<svg width="343" height="228" viewBox="0 0 343 228" fill="none" xmlns="http://www.w3.org/2000/svg">
<g filter="url(#filter0_d_6281_27309)">
<rect x="7.5" y="6" width="328" height="213.697" rx="4.14138" fill="white"/>
</g>
<path d="M41.7532 34.6881V36.5527H35.3105V26.9095H37.4812V34.6881H41.7532ZM49.8584 32.8791C49.8584 33.4543 49.775 33.9831 49.608 34.4655C49.441 34.9386 49.1998 35.3468 48.8844 35.69C48.569 36.024 48.1886 36.2837 47.7433 36.4692C47.3073 36.6548 46.8157 36.7475 46.2683 36.7475C45.7303 36.7475 45.2386 36.6548 44.7933 36.4692C44.3573 36.2837 43.9816 36.024 43.6662 35.69C43.3508 35.3468 43.105 34.9386 42.9287 34.4655C42.7524 33.9831 42.6643 33.4543 42.6643 32.8791C42.6643 32.304 42.7524 31.7798 42.9287 31.3067C43.1142 30.8336 43.3647 30.4301 43.6801 30.0961C44.0048 29.7621 44.3851 29.5024 44.8212 29.3169C45.2664 29.1313 45.7488 29.0386 46.2683 29.0386C46.7971 29.0386 47.2795 29.1313 47.7155 29.3169C48.1608 29.5024 48.5411 29.7621 48.8566 30.0961C49.172 30.4301 49.4178 30.8336 49.5941 31.3067C49.7703 31.7798 49.8584 32.304 49.8584 32.8791ZM47.7433 32.8791C47.7433 32.239 47.6135 31.7381 47.3537 31.3763C47.1032 31.0052 46.7414 30.8197 46.2683 30.8197C45.7952 30.8197 45.4288 31.0052 45.169 31.3763C44.9093 31.7381 44.7794 32.239 44.7794 32.8791C44.7794 33.5192 44.9093 34.0295 45.169 34.4098C45.4288 34.7809 45.7952 34.9664 46.2683 34.9664C46.7414 34.9664 47.1032 34.7809 47.3537 34.4098C47.6135 34.0295 47.7433 33.5192 47.7433 32.8791ZM51.4646 29.4838C51.8171 29.3818 52.2716 29.289 52.8282 29.2055C53.3848 29.1128 53.9693 29.0664 54.5816 29.0664C55.2031 29.0664 55.718 29.1499 56.1261 29.3169C56.5436 29.4746 56.8729 29.7018 57.1141 29.9987C57.3553 30.2956 57.5269 30.6481 57.629 31.0562C57.731 31.4644 57.782 31.919 57.782 32.4199V36.5527H55.7087V32.6704C55.7087 32.0025 55.6205 31.5294 55.4443 31.2511C55.268 30.9728 54.9387 30.8336 54.4563 30.8336C54.3079 30.8336 54.1502 30.8429 53.9832 30.8614C53.8162 30.8707 53.6678 30.8846 53.5379 30.9032V36.5527H51.4646V29.4838ZM61.426 32.6565C61.426 33.8161 61.8944 34.3959 62.8314 34.3959C63.0448 34.3959 63.2442 34.3681 63.4297 34.3124C63.6153 34.2567 63.773 34.1918 63.9029 34.1176V30.8058C63.8008 30.7872 63.6802 30.7733 63.5411 30.764C63.4019 30.7455 63.2396 30.7362 63.054 30.7362C62.5067 30.7362 62.0985 30.9171 61.8295 31.2789C61.5605 31.6407 61.426 32.0999 61.426 32.6565ZM65.9762 35.6343C65.9762 36.831 65.6701 37.717 65.0578 38.2921C64.4548 38.8766 63.5179 39.1688 62.247 39.1688C61.8017 39.1688 61.3564 39.127 60.9111 39.0435C60.4658 38.9693 60.053 38.8673 59.6726 38.7374L60.0344 36.998C60.3591 37.1279 60.6977 37.2299 61.0502 37.3042C61.412 37.3784 61.8202 37.4155 62.2748 37.4155C62.8685 37.4155 63.2859 37.2856 63.5271 37.0258C63.7776 36.7661 63.9029 36.4321 63.9029 36.024V35.7596C63.6802 35.8616 63.4483 35.9405 63.2071 35.9961C62.9752 36.0425 62.7201 36.0657 62.4418 36.0657C61.4306 36.0657 60.656 35.7688 60.1179 35.1751C59.5799 34.5721 59.3109 33.7326 59.3109 32.6565C59.3109 32.1184 59.3943 31.6314 59.5613 31.1954C59.7283 30.7501 59.9695 30.3698 60.2849 30.0544C60.6096 29.7389 61.0039 29.4978 61.4677 29.3308C61.9315 29.1545 62.4557 29.0664 63.0401 29.0664C63.2906 29.0664 63.5457 29.0803 63.8054 29.1081C64.0745 29.1267 64.3389 29.1545 64.5986 29.1916C64.8584 29.2287 65.1042 29.2751 65.3361 29.3308C65.5773 29.3772 65.7907 29.4282 65.9762 29.4838V35.6343Z" fill="#414652"/>
<rect x="8.01245" y="56.8835" width="326.975" height="162.301" stroke="#ECECEC" stroke-width="1.0249"/>
<path d="M7.5 110.16H335.5" stroke="#ECECEC" stroke-width="1.0249"/>
<path d="M7.5 83.7559H335.5" stroke="#ECECEC" stroke-width="1.0249"/>
<path d="M7.5 136.568H335.5" stroke="#ECECEC" stroke-width="1.0249"/>
<path d="M7.5 162.973H335.5" stroke="#ECECEC" stroke-width="1.0249"/>
<path d="M7.5 189.379H335.5" stroke="#ECECEC" stroke-width="1.0249"/>
<path d="M62.6777 56.3711L62.6777 219.697" stroke="#ECECEC" stroke-width="1.0249"/>
<path d="M116.833 56.3711L116.833 219.697" stroke="#ECECEC" stroke-width="1.0249"/>
<path d="M170.989 56.3711L170.989 219.697" stroke="#ECECEC" stroke-width="1.0249"/>
<path d="M225.145 56.3711L225.145 219.697" stroke="#ECECEC" stroke-width="1.0249"/>
<path d="M279 56L279.301 219.697" stroke="#ECECEC" stroke-width="1.0249"/>
<path d="M7.5 57.1348H335.5" stroke="#ECECEC" stroke-width="1.5302"/>
<path d="M39 177.5L73.5 144L89.5 160.5L139 112L161 130L210 101L237 113.5L279.5 77" stroke="#A8A8A8" stroke-width="3.97576"/>
<line x1="8" y1="190.489" x2="334.474" y2="190.489" stroke="black" stroke-width="0.765102"/>
<path d="M181.415 197.241C181.627 197.188 181.879 197.142 182.171 197.102C182.462 197.062 182.764 197.042 183.075 197.042C183.36 197.042 183.638 197.066 183.91 197.112C184.182 197.158 184.424 197.241 184.636 197.36C184.854 197.48 185.027 197.642 185.152 197.848C185.285 198.046 185.351 198.298 185.351 198.603C185.351 198.828 185.312 199.037 185.232 199.229C185.152 199.421 185.046 199.594 184.914 199.746C184.788 199.892 184.639 200.021 184.467 200.134C184.294 200.24 184.115 200.322 183.93 200.382C184.082 200.422 184.218 200.485 184.337 200.571C184.463 200.657 184.566 200.76 184.646 200.879C184.732 200.992 184.798 201.121 184.844 201.267C184.891 201.406 184.914 201.548 184.914 201.694C184.914 202.165 184.818 202.552 184.626 202.857C184.434 203.162 184.182 203.404 183.87 203.583C183.559 203.761 183.201 203.887 182.797 203.96C182.399 204.027 181.988 204.06 181.564 204.06C181.246 204.06 180.938 204.04 180.64 204C180.348 203.967 180.077 203.924 179.825 203.871L181.415 197.241ZM180.6 203.414C180.739 203.44 180.892 203.46 181.057 203.473C181.223 203.48 181.399 203.483 181.584 203.483C181.909 203.483 182.227 203.46 182.538 203.414C182.856 203.367 183.138 203.281 183.383 203.155C183.628 203.023 183.824 202.844 183.97 202.618C184.122 202.393 184.198 202.098 184.198 201.734C184.198 201.343 184.066 201.075 183.801 200.929C183.536 200.776 183.102 200.7 182.499 200.7H181.236L180.6 203.414ZM182.31 200.124C183.145 200.124 183.741 199.998 184.099 199.746C184.463 199.488 184.646 199.146 184.646 198.722C184.646 198.325 184.503 198.043 184.218 197.877C183.94 197.712 183.512 197.629 182.936 197.629C182.757 197.629 182.585 197.635 182.419 197.649C182.253 197.662 182.108 197.679 181.982 197.698L181.385 200.124H182.31ZM189.771 199.418C189.652 199.391 189.543 199.372 189.443 199.358C189.344 199.345 189.241 199.338 189.135 199.338C188.724 199.338 188.36 199.418 188.042 199.577C187.724 199.736 187.455 199.945 187.237 200.203C187.018 200.462 186.849 200.756 186.73 201.088C186.617 201.419 186.561 201.757 186.561 202.102C186.561 202.373 186.587 202.602 186.64 202.787C186.693 202.966 186.766 203.112 186.859 203.225C186.952 203.331 187.058 203.41 187.177 203.463C187.303 203.51 187.435 203.533 187.575 203.533C187.846 203.533 188.101 203.47 188.34 203.344C188.578 203.211 188.804 203.026 189.016 202.787C189.016 202.608 189.042 202.403 189.095 202.171C189.148 201.939 189.198 201.731 189.244 201.545L189.771 199.418ZM189.195 204.06C189.155 203.98 189.118 203.891 189.085 203.791C189.059 203.685 189.039 203.579 189.026 203.473C188.794 203.699 188.549 203.864 188.29 203.97C188.038 204.076 187.777 204.129 187.505 204.129C187.293 204.129 187.091 204.093 186.899 204.02C186.706 203.947 186.538 203.834 186.392 203.682C186.246 203.53 186.127 203.334 186.034 203.096C185.948 202.85 185.905 202.562 185.905 202.231C185.905 201.701 185.991 201.22 186.163 200.79C186.335 200.359 186.574 199.994 186.879 199.696C187.19 199.391 187.555 199.156 187.972 198.991C188.396 198.825 188.857 198.742 189.354 198.742C189.764 198.742 190.159 198.812 190.536 198.951L189.771 202.042C189.731 202.208 189.698 202.363 189.672 202.509C189.645 202.655 189.632 202.794 189.632 202.927C189.632 203.105 189.649 203.274 189.682 203.433C189.715 203.592 189.774 203.768 189.861 203.96L189.195 204.06ZM192.121 199.09C192.373 198.991 192.648 198.908 192.946 198.841C193.251 198.775 193.549 198.742 193.841 198.742C193.993 198.742 194.139 198.752 194.278 198.772C194.417 198.792 194.55 198.825 194.676 198.871L194.507 199.458C194.248 199.378 193.983 199.338 193.712 199.338C193.539 199.338 193.367 199.352 193.195 199.378C193.023 199.405 192.85 199.444 192.678 199.497L191.595 204H190.949L192.121 199.09ZM195.761 199.09C196.013 198.991 196.288 198.908 196.586 198.841C196.891 198.775 197.189 198.742 197.481 198.742C197.633 198.742 197.779 198.752 197.918 198.772C198.057 198.792 198.19 198.825 198.316 198.871L198.147 199.458C197.888 199.378 197.623 199.338 197.352 199.338C197.179 199.338 197.007 199.352 196.835 199.378C196.662 199.405 196.49 199.444 196.318 199.497L195.235 204H194.588L195.761 199.09ZM199.471 198.861H200.117L198.874 204H198.228L199.471 198.861ZM199.729 197.36C199.729 197.188 199.776 197.059 199.868 196.973C199.968 196.88 200.074 196.834 200.186 196.834C200.319 196.834 200.422 196.877 200.495 196.963C200.567 197.042 200.604 197.148 200.604 197.281C200.604 197.44 200.551 197.563 200.445 197.649C200.339 197.735 200.233 197.778 200.127 197.778C199.994 197.778 199.895 197.741 199.829 197.669C199.762 197.589 199.729 197.486 199.729 197.36ZM205.11 200.064C205.11 200.435 205.017 200.737 204.832 200.968C204.653 201.2 204.398 201.386 204.066 201.525C203.742 201.658 203.347 201.754 202.884 201.813C202.426 201.873 201.916 201.916 201.353 201.943V202.151C201.353 202.343 201.373 202.522 201.412 202.688C201.452 202.854 201.525 202.999 201.631 203.125C201.737 203.245 201.883 203.341 202.068 203.414C202.261 203.486 202.506 203.523 202.804 203.523C203.036 203.523 203.268 203.49 203.5 203.424C203.738 203.357 203.964 203.258 204.176 203.125L204.245 203.722C204.02 203.848 203.771 203.944 203.5 204.01C203.228 204.083 202.953 204.119 202.675 204.119C202.31 204.119 202.002 204.073 201.75 203.98C201.505 203.887 201.303 203.758 201.144 203.592C200.992 203.427 200.882 203.228 200.816 202.996C200.75 202.764 200.717 202.509 200.717 202.231C200.717 201.807 200.78 201.386 200.906 200.968C201.038 200.551 201.23 200.177 201.482 199.845C201.734 199.514 202.042 199.249 202.406 199.05C202.777 198.845 203.198 198.742 203.669 198.742C204.133 198.742 204.487 198.865 204.732 199.11C204.984 199.348 205.11 199.666 205.11 200.064ZM203.609 199.328C203.344 199.328 203.096 199.385 202.864 199.497C202.632 199.603 202.423 199.749 202.237 199.935C202.052 200.12 201.89 200.336 201.75 200.581C201.618 200.826 201.518 201.084 201.452 201.356C202.015 201.343 202.489 201.306 202.874 201.247C203.258 201.187 203.566 201.104 203.798 200.998C204.036 200.892 204.205 200.766 204.305 200.621C204.404 200.468 204.454 200.296 204.454 200.104C204.454 199.845 204.374 199.653 204.215 199.527C204.063 199.395 203.861 199.328 203.609 199.328ZM206.594 199.09C206.845 198.991 207.12 198.908 207.419 198.841C207.723 198.775 208.022 198.742 208.313 198.742C208.466 198.742 208.611 198.752 208.751 198.772C208.89 198.792 209.022 198.825 209.148 198.871L208.979 199.458C208.721 199.378 208.456 199.338 208.184 199.338C208.012 199.338 207.839 199.352 207.667 199.378C207.495 199.405 207.323 199.444 207.15 199.497L206.067 204H205.421L206.594 199.09Z" fill="#414652" fill-opacity="0.6"/>
<path d="M243.096 80.6113V72.3457H248.141V73.3357H244.253V75.7927H247.711V76.7588H244.253V79.6214H248.439V80.6113H243.096ZM249.838 74.5881C250.092 74.5244 250.43 74.4569 250.852 74.3853C251.273 74.3137 251.758 74.2779 252.307 74.2779C252.8 74.2779 253.209 74.3495 253.535 74.4926C253.861 74.6278 254.12 74.8226 254.311 75.0771C254.509 75.3236 254.649 75.6218 254.728 75.9716C254.808 76.3215 254.847 76.7071 254.847 77.1286V80.6113H253.738V77.3671C253.738 76.9854 253.71 76.6594 253.655 76.3891C253.607 76.1187 253.523 75.9001 253.404 75.7331C253.285 75.5661 253.126 75.4468 252.927 75.3753C252.728 75.2957 252.482 75.256 252.188 75.256C252.068 75.256 251.945 75.26 251.818 75.2679C251.691 75.2759 251.567 75.2878 251.448 75.3037C251.337 75.3116 251.233 75.3236 251.138 75.3395C251.051 75.3554 250.987 75.3673 250.947 75.3753V80.6113H249.838V74.5881ZM260.694 75.7211C260.559 75.6098 260.364 75.5025 260.11 75.3991C259.855 75.2957 259.577 75.2441 259.275 75.2441C258.957 75.2441 258.683 75.3037 258.452 75.423C258.229 75.5343 258.046 75.6933 257.903 75.9001C257.76 76.0988 257.657 76.3374 257.593 76.6157C257.53 76.894 257.498 77.1922 257.498 77.5102C257.498 78.2338 257.677 78.7944 258.035 79.192C258.392 79.5816 258.869 79.7764 259.466 79.7764C259.768 79.7764 260.018 79.7645 260.217 79.7406C260.424 79.7088 260.583 79.677 260.694 79.6452V75.7211ZM260.694 71.5466L261.804 71.3558V80.4324C261.549 80.504 261.223 80.5755 260.826 80.6471C260.428 80.7187 259.971 80.7545 259.454 80.7545C258.977 80.7545 258.547 80.6789 258.166 80.5278C257.784 80.3768 257.458 80.1621 257.188 79.8838C256.917 79.6055 256.707 79.2675 256.556 78.8699C256.412 78.4644 256.341 78.0112 256.341 77.5102C256.341 77.0331 256.401 76.5958 256.52 76.1982C256.647 75.8007 256.83 75.4587 257.068 75.1725C257.307 74.8862 257.597 74.6636 257.939 74.5046C258.289 74.3455 258.687 74.266 259.132 74.266C259.49 74.266 259.804 74.3137 260.074 74.4091C260.352 74.5046 260.559 74.596 260.694 74.6835V71.5466Z" fill="#414652"/>
<path d="M49.2487 177.952C49.2487 182.343 45.6887 185.903 41.2972 185.903C36.9057 185.903 33.3457 182.343 33.3457 177.952C33.3457 173.56 36.9057 170 41.2972 170C45.6887 170 49.2487 173.56 49.2487 177.952Z" fill="#FF444F"/>
<path d="M30.7429 200.056C31.9515 200.056 32.5559 199.642 32.5559 198.815C32.5559 198.561 32.5002 198.346 32.3889 198.171C32.2855 197.989 32.1424 197.833 31.9595 197.706C31.7766 197.571 31.5659 197.456 31.3273 197.36C31.0968 197.265 30.8503 197.17 30.5879 197.074C30.2857 196.971 29.9994 196.855 29.7291 196.728C29.4587 196.593 29.2242 196.438 29.0254 196.263C28.8266 196.08 28.6676 195.865 28.5483 195.619C28.437 195.372 28.3813 195.074 28.3813 194.724C28.3813 194.001 28.6278 193.436 29.1208 193.031C29.6138 192.625 30.2937 192.422 31.1604 192.422C31.6613 192.422 32.1145 192.478 32.5201 192.589C32.9336 192.693 33.2357 192.808 33.4265 192.935L33.0568 193.878C32.8898 193.774 32.6393 193.675 32.3054 193.579C31.9794 193.476 31.5977 193.424 31.1604 193.424C30.9377 193.424 30.731 193.448 30.5401 193.496C30.3493 193.544 30.1823 193.615 30.0392 193.711C29.8961 193.806 29.7808 193.929 29.6933 194.08C29.6138 194.223 29.574 194.394 29.574 194.593C29.574 194.816 29.6178 195.003 29.7052 195.154C29.7927 195.305 29.916 195.44 30.075 195.559C30.234 195.671 30.4169 195.774 30.6236 195.869C30.8383 195.965 31.0729 196.06 31.3273 196.156C31.6852 196.299 32.0112 196.442 32.3054 196.585C32.6075 196.728 32.866 196.899 33.0807 197.098C33.3033 197.297 33.4743 197.535 33.5935 197.814C33.7128 198.084 33.7724 198.414 33.7724 198.804C33.7724 199.527 33.5061 200.084 32.9733 200.473C32.4485 200.863 31.705 201.058 30.7429 201.058C30.4169 201.058 30.1147 201.034 29.8364 200.986C29.5661 200.946 29.3236 200.899 29.1089 200.843C28.8942 200.78 28.7073 200.716 28.5483 200.652C28.3972 200.581 28.2779 200.521 28.1905 200.473L28.5364 199.519C28.7193 199.623 28.9976 199.738 29.3713 199.865C29.745 199.992 30.2022 200.056 30.7429 200.056ZM36.1367 194.677H38.4864V195.607H36.1367V198.47C36.1367 198.78 36.1606 199.038 36.2083 199.245C36.256 199.444 36.3276 199.603 36.423 199.722C36.5184 199.833 36.6377 199.913 36.7808 199.961C36.9239 200.008 37.0909 200.032 37.2818 200.032C37.6157 200.032 37.8821 199.996 38.0809 199.925C38.2876 199.845 38.4308 199.79 38.5103 199.758L38.725 200.676C38.6136 200.732 38.4188 200.799 38.1405 200.879C37.8622 200.966 37.5442 201.01 37.1863 201.01C36.7649 201.01 36.415 200.958 36.1367 200.855C35.8664 200.744 35.6477 200.581 35.4807 200.366C35.3138 200.151 35.1945 199.889 35.1229 199.579C35.0593 199.261 35.0275 198.895 35.0275 198.482V192.947L36.1367 192.756V194.677ZM41.9971 200.08C42.2595 200.08 42.4901 200.076 42.6889 200.068C42.8957 200.052 43.0666 200.028 43.2018 199.996V198.148C43.1223 198.108 42.9911 198.076 42.8082 198.052C42.6333 198.02 42.4186 198.004 42.1641 198.004C41.9971 198.004 41.8182 198.016 41.6274 198.04C41.4445 198.064 41.2735 198.116 41.1145 198.195C40.9634 198.267 40.8362 198.37 40.7328 198.505C40.6295 198.633 40.5778 198.804 40.5778 199.018C40.5778 199.416 40.705 199.694 40.9595 199.853C41.2139 200.004 41.5598 200.08 41.9971 200.08ZM41.9017 194.522C42.347 194.522 42.7207 194.581 43.0229 194.701C43.333 194.812 43.5795 194.975 43.7624 195.19C43.9532 195.396 44.0884 195.647 44.1679 195.941C44.2474 196.227 44.2872 196.545 44.2872 196.895V200.772C44.1918 200.787 44.0566 200.811 43.8816 200.843C43.7147 200.867 43.5238 200.891 43.3091 200.915C43.0944 200.939 42.8599 200.958 42.6054 200.974C42.3589 200.998 42.1124 201.01 41.8659 201.01C41.5161 201.01 41.194 200.974 40.8998 200.903C40.6056 200.831 40.3512 200.72 40.1365 200.569C39.9218 200.41 39.7548 200.203 39.6355 199.949C39.5163 199.694 39.4566 199.388 39.4566 199.03C39.4566 198.688 39.5242 198.394 39.6594 198.148C39.8025 197.901 39.9934 197.702 40.2319 197.551C40.4704 197.4 40.7487 197.289 41.0668 197.217C41.3849 197.146 41.7188 197.11 42.0687 197.11C42.18 197.11 42.2953 197.118 42.4146 197.134C42.5339 197.142 42.6452 197.158 42.7486 197.181C42.8599 197.197 42.9553 197.213 43.0348 197.229C43.1143 197.245 43.17 197.257 43.2018 197.265V196.955C43.2018 196.772 43.1819 196.593 43.1422 196.418C43.1024 196.235 43.0308 196.076 42.9275 195.941C42.8241 195.798 42.681 195.687 42.4981 195.607C42.3231 195.52 42.0926 195.476 41.8063 195.476C41.4405 195.476 41.1185 195.504 40.8402 195.559C40.5698 195.607 40.3671 195.659 40.2319 195.714L40.1007 194.796C40.2438 194.732 40.4824 194.673 40.8163 194.617C41.1503 194.553 41.5121 194.522 41.9017 194.522ZM48.4195 194.546C48.5149 194.546 48.6223 194.553 48.7415 194.569C48.8688 194.577 48.992 194.593 49.1113 194.617C49.2306 194.633 49.3379 194.653 49.4333 194.677C49.5367 194.693 49.6122 194.709 49.6599 194.724L49.4691 195.691C49.3816 195.659 49.2345 195.623 49.0278 195.583C48.829 195.535 48.5706 195.512 48.2525 195.512C48.0458 195.512 47.839 195.535 47.6323 195.583C47.4335 195.623 47.3023 195.651 47.2387 195.667V200.879H46.1295V194.939C46.3919 194.844 46.7179 194.756 47.1075 194.677C47.4971 194.589 47.9345 194.546 48.4195 194.546ZM51.768 194.677H54.1177V195.607H51.768V198.47C51.768 198.78 51.7918 199.038 51.8396 199.245C51.8873 199.444 51.9588 199.603 52.0542 199.722C52.1497 199.833 52.2689 199.913 52.4121 199.961C52.5552 200.008 52.7222 200.032 52.913 200.032C53.247 200.032 53.5133 199.996 53.7121 199.925C53.9189 199.845 54.062 199.79 54.1415 199.758L54.3562 200.676C54.2449 200.732 54.0501 200.799 53.7718 200.879C53.4935 200.966 53.1754 201.01 52.8176 201.01C52.3962 201.01 52.0463 200.958 51.768 200.855C51.4976 200.744 51.279 200.581 51.112 200.366C50.945 200.151 50.8257 199.889 50.7542 199.579C50.6906 199.261 50.6588 198.895 50.6588 198.482V192.947L51.768 192.756V194.677Z" fill="#414652"/>
<rect x="127.767" y="13.9512" width="105.358" height="33.7939" rx="15.903" fill="#00A79E"/>
<path d="M156.201 25.7543C157.844 25.7543 159.106 26.0459 159.986 26.629C160.866 27.2015 161.306 28.1451 161.306 29.4597C161.306 30.785 160.861 31.7445 159.97 32.3382C159.08 32.9213 157.807 33.2128 156.153 33.2128H155.374V36.9023H152.893V26.0406C153.434 25.9346 154.007 25.8603 154.611 25.8179C155.215 25.7755 155.745 25.7543 156.201 25.7543ZM156.36 27.8694C156.18 27.8694 156 27.8747 155.819 27.8853C155.65 27.8959 155.501 27.9065 155.374 27.9171V31.0977H156.153C157.012 31.0977 157.659 30.9811 158.094 30.7479C158.528 30.5146 158.746 30.0799 158.746 29.4438C158.746 29.1364 158.687 28.8819 158.571 28.6805C158.465 28.479 158.306 28.32 158.094 28.2034C157.892 28.0762 157.643 27.9913 157.346 27.9489C157.049 27.8959 156.721 27.8694 156.36 27.8694ZM165.855 35.2484C166.088 35.2484 166.311 35.2431 166.523 35.2325C166.735 35.2219 166.904 35.206 167.032 35.1848V33.3878C166.936 33.3666 166.793 33.3454 166.602 33.3242C166.411 33.303 166.236 33.2924 166.077 33.2924C165.855 33.2924 165.643 33.3083 165.441 33.3401C165.25 33.3613 165.081 33.409 164.932 33.4832C164.784 33.5574 164.667 33.6581 164.582 33.7853C164.498 33.9126 164.455 34.0716 164.455 34.2624C164.455 34.6335 164.577 34.8933 164.821 35.0417C165.075 35.1795 165.42 35.2484 165.855 35.2484ZM165.664 28.3147C166.364 28.3147 166.947 28.3942 167.413 28.5533C167.88 28.7123 168.251 28.9402 168.526 29.2371C168.813 29.5339 169.014 29.8944 169.131 30.3185C169.247 30.7426 169.306 31.2144 169.306 31.7339V36.6638C168.966 36.738 168.495 36.8228 167.89 36.9182C167.286 37.0243 166.554 37.0773 165.696 37.0773C165.155 37.0773 164.662 37.0296 164.217 36.9341C163.782 36.8387 163.406 36.685 163.088 36.473C162.769 36.2503 162.526 35.9641 162.356 35.6142C162.186 35.2643 162.102 34.8349 162.102 34.3261C162.102 33.8384 162.197 33.4249 162.388 33.0856C162.589 32.7464 162.854 32.476 163.183 32.2746C163.512 32.0731 163.888 31.93 164.312 31.8452C164.736 31.7498 165.176 31.7021 165.632 31.7021C165.939 31.7021 166.21 31.718 166.443 31.7498C166.687 31.771 166.883 31.8028 167.032 31.8452V31.6225C167.032 31.2197 166.91 30.8963 166.666 30.6525C166.422 30.4086 165.998 30.2867 165.393 30.2867C164.991 30.2867 164.593 30.3185 164.201 30.3821C163.808 30.4351 163.469 30.5146 163.183 30.6206L162.881 28.7123C163.019 28.6699 163.188 28.6275 163.39 28.5851C163.602 28.532 163.83 28.4896 164.074 28.4578C164.317 28.4154 164.572 28.3836 164.837 28.3624C165.113 28.3306 165.388 28.3147 165.664 28.3147ZM178.673 28.5373C178.196 30.1489 177.698 31.6596 177.178 33.0697C176.659 34.4798 176.092 35.8474 175.477 37.1727C175.254 37.6498 175.031 38.0527 174.809 38.3813C174.586 38.7206 174.342 38.9962 174.077 39.2083C173.812 39.4309 173.51 39.59 173.171 39.6854C172.842 39.7914 172.455 39.8444 172.01 39.8444C171.639 39.8444 171.294 39.8073 170.976 39.7331C170.669 39.6695 170.414 39.5953 170.213 39.5104L170.626 37.618C170.87 37.7028 171.087 37.7611 171.278 37.7929C171.469 37.8247 171.671 37.8406 171.883 37.8406C172.307 37.8406 172.63 37.724 172.853 37.4908C173.086 37.2681 173.282 36.9554 173.441 36.5525C172.9 35.4923 172.36 34.3048 171.819 32.9902C171.278 31.6649 170.769 30.1807 170.292 28.5373H172.805C172.911 28.9508 173.033 29.4014 173.171 29.8891C173.319 30.3662 173.473 30.8539 173.632 31.3522C173.791 31.8399 173.95 32.317 174.109 32.7835C174.279 33.2499 174.438 33.674 174.586 34.0557C174.724 33.674 174.867 33.2499 175.015 32.7835C175.164 32.317 175.307 31.8399 175.445 31.3522C175.593 30.8539 175.731 30.3662 175.858 29.8891C175.996 29.4014 176.118 28.9508 176.224 28.5373H178.673ZM187.55 32.7039C187.55 33.3613 187.455 33.9656 187.264 34.5169C187.073 35.0576 186.798 35.5241 186.437 35.9164C186.077 36.298 185.642 36.5949 185.133 36.8069C184.635 37.019 184.073 37.125 183.447 37.125C182.832 37.125 182.27 37.019 181.762 36.8069C181.263 36.5949 180.834 36.298 180.473 35.9164C180.113 35.5241 179.832 35.0576 179.631 34.5169C179.429 33.9656 179.328 33.3613 179.328 32.7039C179.328 32.0466 179.429 31.4476 179.631 30.9069C179.843 30.3662 180.129 29.905 180.489 29.5233C180.86 29.1417 181.295 28.8448 181.793 28.6328C182.302 28.4207 182.854 28.3147 183.447 28.3147C184.052 28.3147 184.603 28.4207 185.101 28.6328C185.61 28.8448 186.045 29.1417 186.405 29.5233C186.766 29.905 187.047 30.3662 187.248 30.9069C187.45 31.4476 187.55 32.0466 187.55 32.7039ZM185.133 32.7039C185.133 31.9724 184.985 31.3999 184.688 30.9864C184.401 30.5623 183.988 30.3503 183.447 30.3503C182.907 30.3503 182.488 30.5623 182.191 30.9864C181.894 31.3999 181.746 31.9724 181.746 32.7039C181.746 33.4355 181.894 34.0186 182.191 34.4533C182.488 34.8774 182.907 35.0894 183.447 35.0894C183.988 35.0894 184.401 34.8774 184.688 34.4533C184.985 34.0186 185.133 33.4355 185.133 32.7039ZM196.526 36.6161C196.123 36.7327 195.604 36.8387 194.968 36.9341C194.332 37.0402 193.664 37.0932 192.964 37.0932C192.254 37.0932 191.66 36.9978 191.183 36.8069C190.716 36.6161 190.345 36.351 190.07 36.0118C189.794 35.6619 189.598 35.2484 189.481 34.7713C189.365 34.2942 189.306 33.7694 189.306 33.1969V28.5373H191.676V32.9107C191.676 33.674 191.777 34.2253 191.978 34.5646C192.179 34.9039 192.556 35.0735 193.107 35.0735C193.277 35.0735 193.457 35.0682 193.648 35.0576C193.839 35.0364 194.008 35.0152 194.157 34.994V28.5373H196.526V36.6161ZM198.671 26.4541L201.041 26.0724V28.5373H203.887V30.5093H201.041V33.4514C201.041 33.9497 201.125 34.3473 201.295 34.6441C201.475 34.941 201.83 35.0894 202.361 35.0894C202.615 35.0894 202.875 35.0682 203.14 35.0258C203.415 34.9728 203.665 34.9039 203.887 34.819L204.221 36.6638C203.935 36.7804 203.617 36.8811 203.267 36.966C202.917 37.0508 202.488 37.0932 201.979 37.0932C201.332 37.0932 200.797 37.0084 200.373 36.8387C199.949 36.6585 199.609 36.4147 199.355 36.1072C199.1 35.7891 198.92 35.4075 198.814 34.9622C198.719 34.5169 198.671 34.0239 198.671 33.4832V26.4541ZM208.25 28.7282C208.25 29.5869 208.218 30.3874 208.155 31.1295C208.091 31.8717 208.006 32.6244 207.9 33.3878H206.087C205.981 32.6244 205.891 31.8717 205.817 31.1295C205.753 30.3874 205.721 29.5869 205.721 28.7282V25.8815H208.25V28.7282ZM208.457 35.646C208.457 36.1125 208.303 36.473 207.996 36.7274C207.699 36.9819 207.359 37.1091 206.978 37.1091C206.596 37.1091 206.252 36.9819 205.944 36.7274C205.647 36.473 205.499 36.1125 205.499 35.646C205.499 35.1795 205.647 34.819 205.944 34.5646C206.252 34.3101 206.596 34.1829 206.978 34.1829C207.359 34.1829 207.699 34.3101 207.996 34.5646C208.303 34.819 208.457 35.1795 208.457 35.646Z" fill="white"/>
<path d="M280 58L280 220.018" stroke="#7D7D7D" stroke-width="2.98182"/>
<path d="M289.475 144.112H293.321L293.192 144.698H290.002L289.415 147.094H292.258L292.129 147.67H289.306L288.62 150.414H292.039L291.92 151H287.825L289.475 144.112ZM294.737 148.306L293.465 145.861H294.22L295.224 147.939C295.529 147.568 295.824 147.2 296.109 146.835C296.4 146.464 296.632 146.14 296.804 145.861H297.52C297.228 146.299 296.904 146.736 296.546 147.173C296.195 147.611 295.853 148.021 295.522 148.406C295.608 148.571 295.704 148.757 295.81 148.962C295.916 149.168 296.022 149.387 296.128 149.618C296.241 149.844 296.344 150.076 296.437 150.314C296.536 150.546 296.622 150.775 296.695 151H296.019C295.973 150.848 295.913 150.679 295.84 150.493C295.767 150.301 295.685 150.105 295.592 149.907C295.506 149.708 295.416 149.512 295.323 149.32C295.231 149.121 295.144 148.943 295.065 148.784L293.117 151H292.332L294.737 148.306ZM298.337 150.404C298.542 150.463 298.751 150.493 298.963 150.493C299.374 150.493 299.738 150.414 300.056 150.255C300.374 150.089 300.642 149.877 300.861 149.618C301.08 149.353 301.245 149.059 301.358 148.734C301.471 148.403 301.527 148.068 301.527 147.73C301.527 147.233 301.418 146.872 301.199 146.647C300.98 146.415 300.652 146.299 300.215 146.299C300.063 146.299 299.907 146.312 299.748 146.338C299.595 146.365 299.436 146.401 299.271 146.448L298.337 150.404ZM298.714 146.07C298.993 145.971 299.271 145.891 299.549 145.832C299.827 145.772 300.102 145.742 300.374 145.742C301.58 145.742 302.183 146.372 302.183 147.631C302.183 148.075 302.11 148.505 301.964 148.923C301.819 149.34 301.603 149.711 301.318 150.036C301.04 150.354 300.695 150.609 300.285 150.801C299.88 150.993 299.417 151.089 298.893 151.089C298.635 151.089 298.396 151.06 298.177 151L297.74 152.839H297.084L298.714 146.07ZM303.928 145.861H304.574L303.332 151H302.686L303.928 145.861ZM304.186 144.36C304.186 144.188 304.233 144.059 304.326 143.973C304.425 143.88 304.531 143.834 304.644 143.834C304.776 143.834 304.879 143.877 304.952 143.963C305.025 144.042 305.061 144.148 305.061 144.281C305.061 144.44 305.008 144.563 304.902 144.649C304.796 144.735 304.69 144.778 304.584 144.778C304.451 144.778 304.352 144.741 304.286 144.669C304.22 144.589 304.186 144.486 304.186 144.36ZM306.198 146.09C306.449 145.991 306.724 145.908 307.023 145.841C307.327 145.775 307.626 145.742 307.917 145.742C308.07 145.742 308.215 145.752 308.354 145.772C308.494 145.792 308.626 145.825 308.752 145.871L308.583 146.458C308.325 146.378 308.06 146.338 307.788 146.338C307.616 146.338 307.443 146.352 307.271 146.378C307.099 146.405 306.927 146.444 306.754 146.497L305.671 151H305.025L306.198 146.09ZM307.482 152.153C307.661 152.252 307.863 152.302 308.088 152.302C308.426 152.302 308.757 152.209 309.082 152.024C309.407 151.838 309.708 151.557 309.987 151.179C309.708 150.298 309.49 149.403 309.331 148.495C309.172 147.587 309.079 146.709 309.052 145.861H309.728C309.741 146.179 309.761 146.527 309.788 146.905C309.821 147.283 309.867 147.677 309.927 148.088C309.987 148.499 310.06 148.919 310.146 149.35C310.232 149.774 310.338 150.188 310.464 150.592C310.762 150.122 311.03 149.648 311.269 149.171C311.507 148.687 311.716 148.234 311.895 147.809C312.074 147.385 312.22 147.004 312.332 146.666C312.452 146.322 312.538 146.053 312.591 145.861H313.227C313.187 146 313.114 146.239 313.008 146.577C312.902 146.908 312.76 147.296 312.581 147.74C312.402 148.184 312.183 148.664 311.925 149.181C311.673 149.691 311.381 150.192 311.05 150.682C310.54 151.444 310.046 151.997 309.569 152.342C309.092 152.693 308.595 152.869 308.078 152.869C307.959 152.869 307.83 152.859 307.691 152.839C307.551 152.819 307.406 152.769 307.253 152.69L307.482 152.153Z" fill="#414652" fill-opacity="0.6"/>
<path d="M286.903 77.9515C286.903 82.343 283.343 85.903 278.952 85.903C274.56 85.903 271 82.343 271 77.9515C271 73.56 274.56 70 278.952 70C283.343 70 286.903 73.56 286.903 77.9515Z" fill="#FF444F"/>
<defs>
<filter id="filter0_d_6281_27309" x="0.597702" y="0.478161" width="341.805" height="227.502" filterUnits="userSpaceOnUse" color-interpolation-filters="sRGB">
<feFlood flood-opacity="0" result="BackgroundImageFix"/>
<feColorMatrix in="SourceAlpha" type="matrix" values="0 0 0 0 0 0 0 0 0 0 0 0 0 0 0 0 0 0 127 0" result="hardAlpha"/>
<feOffset dy="1.38046"/>
<feGaussianBlur stdDeviation="3.45115"/>
<feComposite in2="hardAlpha" operator="out"/>
<feColorMatrix type="matrix" values="0 0 0 0 0 0 0 0 0 0 0 0 0 0 0 0 0 0 0.1 0"/>
<feBlend mode="normal" in2="BackgroundImageFix" result="effect1_dropShadow_6281_27309"/>
<feBlend mode="normal" in="SourceGraphic" in2="effect1_dropShadow_6281_27309" result="shape"/>
</filter>
</defs>
</svg>
