<svg width="343" height="228" viewBox="0 0 343 228" fill="none" xmlns="http://www.w3.org/2000/svg">
<g filter="url(#filter0_d_6281_27394)">
<rect x="7.33301" y="6.01758" width="328" height="213.697" rx="4.14138" fill="white"/>
</g>
<path d="M243.026 70V61.7344H248.071V62.7244H244.183V65.1814H247.642V66.1475H244.183V69.01H248.369V70H243.026ZM249.768 63.9767C250.023 63.9131 250.36 63.8455 250.782 63.774C251.203 63.7024 251.688 63.6666 252.237 63.6666C252.73 63.6666 253.14 63.7382 253.466 63.8813C253.792 64.0165 254.05 64.2113 254.241 64.4657C254.44 64.7122 254.579 65.0104 254.658 65.3603C254.738 65.7102 254.778 66.0958 254.778 66.5172V70H253.668V66.7558C253.668 66.3741 253.64 66.0481 253.585 65.7777C253.537 65.5074 253.454 65.2887 253.334 65.1217C253.215 64.9548 253.056 64.8355 252.857 64.7639C252.658 64.6844 252.412 64.6447 252.118 64.6447C251.999 64.6447 251.875 64.6486 251.748 64.6566C251.621 64.6645 251.498 64.6765 251.378 64.6924C251.267 64.7003 251.164 64.7122 251.068 64.7281C250.981 64.744 250.917 64.756 250.877 64.7639V70H249.768V63.9767ZM260.625 65.1098C260.489 64.9985 260.295 64.8912 260.04 64.7878C259.786 64.6844 259.507 64.6327 259.205 64.6327C258.887 64.6327 258.613 64.6924 258.382 64.8116C258.16 64.923 257.977 65.082 257.834 65.2887C257.69 65.4875 257.587 65.7261 257.523 66.0044C257.46 66.2827 257.428 66.5808 257.428 66.8989C257.428 67.6225 257.607 68.1831 257.965 68.5807C258.323 68.9703 258.8 69.1651 259.396 69.1651C259.698 69.1651 259.949 69.1532 260.147 69.1293C260.354 69.0975 260.513 69.0657 260.625 69.0339V65.1098ZM260.625 60.9353L261.734 60.7444V69.8211C261.479 69.8927 261.153 69.9642 260.756 70.0358C260.358 70.1073 259.901 70.1431 259.384 70.1431C258.907 70.1431 258.478 70.0676 258.096 69.9165C257.714 69.7654 257.388 69.5507 257.118 69.2724C256.848 68.9941 256.637 68.6562 256.486 68.2586C256.343 67.8531 256.271 67.3999 256.271 66.8989C256.271 66.4218 256.331 65.9845 256.45 65.5869C256.577 65.1893 256.76 64.8474 256.999 64.5612C257.237 64.2749 257.527 64.0523 257.869 63.8932C258.219 63.7342 258.617 63.6547 259.062 63.6547C259.42 63.6547 259.734 63.7024 260.004 63.7978C260.283 63.8932 260.489 63.9847 260.625 64.0721V60.9353Z" fill="#414652"/>
<path d="M37.7734 34.9144C38.0796 34.9144 38.3301 34.8912 38.5249 34.8448C38.729 34.7892 38.8913 34.7196 39.0119 34.6361C39.1325 34.5433 39.216 34.4367 39.2624 34.3161C39.3088 34.1955 39.3319 34.0609 39.3319 33.9125C39.3319 33.5971 39.1835 33.3374 38.8867 33.1333C38.5898 32.9199 38.0796 32.6926 37.356 32.4514C37.0406 32.3401 36.7252 32.2149 36.4098 32.0757C36.0944 31.9273 35.8114 31.7464 35.5609 31.533C35.3105 31.3104 35.1064 31.046 34.9487 30.7399C34.791 30.4245 34.7121 30.0441 34.7121 29.5988C34.7121 29.1535 34.7956 28.7546 34.9626 28.4021C35.1296 28.0403 35.3661 27.7342 35.6723 27.4837C35.9784 27.2332 36.3495 27.0431 36.7855 26.9132C37.2215 26.774 37.7132 26.7045 38.2605 26.7045C38.9099 26.7045 39.4711 26.774 39.9442 26.9132C40.4173 27.0523 40.807 27.2054 41.1131 27.3724L40.4869 29.084C40.2179 28.9448 39.9164 28.8242 39.5824 28.7222C39.2577 28.6108 38.8635 28.5552 38.3996 28.5552C37.8801 28.5552 37.5044 28.6294 37.2725 28.7778C37.0499 28.917 36.9385 29.135 36.9385 29.4318C36.9385 29.6081 36.9803 29.7565 37.0638 29.8771C37.1473 29.9977 37.2632 30.109 37.4117 30.2111C37.5694 30.3039 37.7456 30.392 37.9404 30.4755C38.1445 30.5497 38.3672 30.6285 38.6084 30.712C39.1093 30.8976 39.5453 31.0831 39.9164 31.2686C40.2875 31.4449 40.5936 31.6536 40.8348 31.8948C41.0853 32.136 41.2708 32.419 41.3914 32.7436C41.512 33.0683 41.5723 33.4626 41.5723 33.9264C41.5723 34.8263 41.2569 35.5267 40.6261 36.0276C39.9952 36.5193 39.0444 36.7651 37.7734 36.7651C37.3467 36.7651 36.9617 36.7373 36.6185 36.6816C36.2753 36.6352 35.9691 36.575 35.7001 36.5007C35.4403 36.4265 35.2131 36.3477 35.0182 36.2642C34.8327 36.1807 34.675 36.1018 34.5451 36.0276L35.1574 34.3021C35.445 34.4598 35.7975 34.6036 36.215 34.7335C36.6417 34.8541 37.1612 34.9144 37.7734 34.9144ZM43.1034 36.5703V26.1061L45.1767 25.7722V29.2788C45.3159 29.2324 45.4922 29.1906 45.7055 29.1535C45.9282 29.1072 46.1415 29.084 46.3456 29.084C46.9393 29.084 47.431 29.1675 47.8206 29.3344C48.2195 29.4921 48.5349 29.7194 48.7669 30.0163C49.0081 30.3131 49.175 30.6656 49.2678 31.0738C49.3698 31.482 49.4209 31.9366 49.4209 32.4375V36.5703H47.3475V32.688C47.3475 32.0201 47.2594 31.5469 47.0831 31.2686C46.9161 30.9903 46.6007 30.8512 46.1369 30.8512C45.9514 30.8512 45.7751 30.8697 45.6081 30.9068C45.4504 30.9347 45.3066 30.9671 45.1767 31.0043V36.5703H43.1034ZM58.1438 32.8967C58.1438 33.4719 58.0603 34.0006 57.8933 34.483C57.7264 34.9562 57.4852 35.3643 57.1698 35.7076C56.8543 36.0415 56.474 36.3013 56.0287 36.4868C55.5927 36.6724 55.101 36.7651 54.5537 36.7651C54.0157 36.7651 53.524 36.6724 53.0787 36.4868C52.6427 36.3013 52.267 36.0415 51.9516 35.7076C51.6362 35.3643 51.3903 34.9562 51.2141 34.483C51.0378 34.0006 50.9497 33.4719 50.9497 32.8967C50.9497 32.3216 51.0378 31.7974 51.2141 31.3243C51.3996 30.8512 51.6501 30.4476 51.9655 30.1137C52.2902 29.7797 52.6705 29.52 53.1065 29.3344C53.5518 29.1489 54.0342 29.0561 54.5537 29.0561C55.0825 29.0561 55.5649 29.1489 56.0009 29.3344C56.4462 29.52 56.8265 29.7797 57.1419 30.1137C57.4573 30.4476 57.7032 30.8512 57.8794 31.3243C58.0557 31.7974 58.1438 32.3216 58.1438 32.8967ZM56.0287 32.8967C56.0287 32.2566 55.8988 31.7557 55.6391 31.3939C55.3886 31.0228 55.0268 30.8373 54.5537 30.8373C54.0806 30.8373 53.7142 31.0228 53.4544 31.3939C53.1947 31.7557 53.0648 32.2566 53.0648 32.8967C53.0648 33.5368 53.1947 34.047 53.4544 34.4274C53.7142 34.7984 54.0806 34.984 54.5537 34.984C55.0268 34.984 55.3886 34.7984 55.6391 34.4274C55.8988 34.047 56.0287 33.5368 56.0287 32.8967ZM64.161 31.0877C63.9755 31.0414 63.7575 30.995 63.507 30.9486C63.2566 30.8929 62.9875 30.8651 62.6999 30.8651C62.5701 30.8651 62.4124 30.879 62.2268 30.9068C62.0506 30.9254 61.9161 30.9486 61.8233 30.9764V36.5703H59.7499V29.6406C60.121 29.5107 60.557 29.3901 61.058 29.2788C61.5682 29.1582 62.1341 29.0979 62.7556 29.0979C62.8669 29.0979 63.0014 29.1072 63.1591 29.1257C63.3168 29.135 63.4746 29.1535 63.6323 29.1814C63.79 29.1999 63.9477 29.2278 64.1054 29.2649C64.2631 29.2927 64.3976 29.3298 64.5089 29.3762L64.161 31.0877ZM65.5508 27.4281L67.6242 27.0941V29.2509H70.115V30.9764H67.6242V33.5507C67.6242 33.9867 67.6984 34.3346 67.8468 34.5944C68.0045 34.8541 68.3153 34.984 68.7791 34.984C69.0018 34.984 69.229 34.9654 69.461 34.9283C69.7022 34.8819 69.9202 34.8216 70.115 34.7474L70.4072 36.3616C70.1567 36.4636 69.8784 36.5518 69.5723 36.626C69.2662 36.7002 68.8904 36.7373 68.4452 36.7373C67.8793 36.7373 67.4108 36.6631 67.0397 36.5147C66.6687 36.3569 66.3718 36.1436 66.1492 35.8746C65.9265 35.5963 65.7688 35.2623 65.676 34.8727C65.5926 34.483 65.5508 34.0517 65.5508 33.5786V27.4281Z" fill="#414652"/>
<rect x="7.84546" y="56.9031" width="326.975" height="162.301" stroke="#ECECEC" stroke-width="1.0249"/>
<path d="M7.33301 110.18H335.333" stroke="#ECECEC" stroke-width="1.0249"/>
<path d="M7.33301 83.7734H335.333" stroke="#ECECEC" stroke-width="1.0249"/>
<path d="M7.33301 136.588H335.333" stroke="#ECECEC" stroke-width="1.0249"/>
<path d="M7.33301 162.992H335.333" stroke="#ECECEC" stroke-width="1.0249"/>
<path d="M7.33301 189.398H335.333" stroke="#ECECEC" stroke-width="1.0249"/>
<path d="M62.5103 56.3906L62.5102 219.716" stroke="#ECECEC" stroke-width="1.0249"/>
<path d="M116.666 56.3906L116.666 219.716" stroke="#ECECEC" stroke-width="1.0249"/>
<path d="M170.822 56.3906L170.822 219.716" stroke="#ECECEC" stroke-width="1.0249"/>
<path d="M224.978 56.3906L224.978 219.716" stroke="#ECECEC" stroke-width="1.0249"/>
<path d="M279.134 56.3906L279.134 219.716" stroke="#ECECEC" stroke-width="1.0249"/>
<path d="M7.33301 57.1523H335.333" stroke="#ECECEC" stroke-width="1.5302"/>
<path d="M59.8325 187.82L94.3325 134.82L125.333 157.32L148.833 122.32L171.5 137L225.5 85.5" stroke="#A8A8A8" stroke-width="3.97576"/>
<line x1="5.66699" y1="109.938" x2="332.141" y2="109.938" stroke="black" stroke-width="0.765102"/>
<path d="M290.415 116.562C290.627 116.509 290.879 116.462 291.171 116.422C291.462 116.383 291.764 116.363 292.075 116.363C292.36 116.363 292.638 116.386 292.91 116.432C293.182 116.479 293.424 116.562 293.636 116.681C293.854 116.8 294.027 116.962 294.152 117.168C294.285 117.367 294.351 117.618 294.351 117.923C294.351 118.149 294.312 118.357 294.232 118.549C294.152 118.742 294.046 118.914 293.914 119.066C293.788 119.212 293.639 119.341 293.467 119.454C293.294 119.56 293.115 119.643 292.93 119.702C293.082 119.742 293.218 119.805 293.337 119.891C293.463 119.977 293.566 120.08 293.646 120.199C293.732 120.312 293.798 120.441 293.844 120.587C293.891 120.726 293.914 120.869 293.914 121.014C293.914 121.485 293.818 121.872 293.626 122.177C293.434 122.482 293.182 122.724 292.87 122.903C292.559 123.082 292.201 123.208 291.797 123.281C291.399 123.347 290.988 123.38 290.564 123.38C290.246 123.38 289.938 123.36 289.64 123.32C289.348 123.287 289.077 123.244 288.825 123.191L290.415 116.562ZM289.6 122.734C289.739 122.76 289.892 122.78 290.057 122.794C290.223 122.8 290.399 122.803 290.584 122.803C290.909 122.803 291.227 122.78 291.538 122.734C291.856 122.688 292.138 122.601 292.383 122.475C292.628 122.343 292.824 122.164 292.97 121.939C293.122 121.713 293.198 121.419 293.198 121.054C293.198 120.663 293.066 120.395 292.801 120.249C292.536 120.097 292.102 120.02 291.499 120.02H290.236L289.6 122.734ZM291.31 119.444C292.145 119.444 292.741 119.318 293.099 119.066C293.463 118.808 293.646 118.467 293.646 118.042C293.646 117.645 293.503 117.363 293.218 117.198C292.94 117.032 292.512 116.949 291.936 116.949C291.757 116.949 291.585 116.956 291.419 116.969C291.253 116.982 291.108 116.999 290.982 117.019L290.385 119.444H291.31ZM298.771 118.738C298.652 118.712 298.543 118.692 298.443 118.679C298.344 118.665 298.241 118.659 298.135 118.659C297.724 118.659 297.36 118.738 297.042 118.897C296.724 119.056 296.455 119.265 296.237 119.523C296.018 119.782 295.849 120.077 295.73 120.408C295.617 120.739 295.561 121.077 295.561 121.422C295.561 121.694 295.587 121.922 295.64 122.108C295.693 122.287 295.766 122.432 295.859 122.545C295.952 122.651 296.058 122.731 296.177 122.784C296.303 122.83 296.435 122.853 296.575 122.853C296.846 122.853 297.101 122.79 297.34 122.664C297.578 122.532 297.804 122.346 298.016 122.108C298.016 121.929 298.042 121.723 298.095 121.491C298.148 121.26 298.198 121.051 298.244 120.865L298.771 118.738ZM298.195 123.38C298.155 123.3 298.118 123.211 298.085 123.112C298.059 123.006 298.039 122.9 298.026 122.794C297.794 123.019 297.549 123.184 297.29 123.29C297.038 123.397 296.777 123.45 296.505 123.45C296.293 123.45 296.091 123.413 295.899 123.34C295.706 123.267 295.538 123.155 295.392 123.002C295.246 122.85 295.127 122.654 295.034 122.416C294.948 122.171 294.905 121.882 294.905 121.551C294.905 121.021 294.991 120.541 295.163 120.11C295.335 119.679 295.574 119.315 295.879 119.017C296.19 118.712 296.555 118.477 296.972 118.311C297.396 118.145 297.857 118.062 298.354 118.062C298.764 118.062 299.159 118.132 299.536 118.271L298.771 121.362C298.731 121.528 298.698 121.684 298.672 121.829C298.645 121.975 298.632 122.114 298.632 122.247C298.632 122.426 298.649 122.595 298.682 122.754C298.715 122.913 298.774 123.088 298.861 123.281L298.195 123.38ZM301.121 118.41C301.373 118.311 301.648 118.228 301.946 118.162C302.251 118.096 302.549 118.062 302.841 118.062C302.993 118.062 303.139 118.072 303.278 118.092C303.417 118.112 303.55 118.145 303.676 118.192L303.507 118.778C303.248 118.698 302.983 118.659 302.712 118.659C302.539 118.659 302.367 118.672 302.195 118.698C302.023 118.725 301.85 118.765 301.678 118.818L300.595 123.32H299.949L301.121 118.41ZM304.761 118.41C305.013 118.311 305.288 118.228 305.586 118.162C305.891 118.096 306.189 118.062 306.481 118.062C306.633 118.062 306.779 118.072 306.918 118.092C307.057 118.112 307.19 118.145 307.316 118.192L307.147 118.778C306.888 118.698 306.623 118.659 306.352 118.659C306.179 118.659 306.007 118.672 305.835 118.698C305.662 118.725 305.49 118.765 305.318 118.818L304.235 123.32H303.588L304.761 118.41ZM308.471 118.182H309.117L307.874 123.32H307.228L308.471 118.182ZM308.729 116.681C308.729 116.509 308.776 116.379 308.868 116.293C308.968 116.2 309.074 116.154 309.186 116.154C309.319 116.154 309.422 116.197 309.495 116.283C309.567 116.363 309.604 116.469 309.604 116.601C309.604 116.76 309.551 116.883 309.445 116.969C309.339 117.055 309.233 117.098 309.127 117.098C308.994 117.098 308.895 117.062 308.829 116.989C308.762 116.909 308.729 116.807 308.729 116.681ZM314.11 119.384C314.11 119.755 314.017 120.057 313.832 120.289C313.653 120.521 313.398 120.706 313.066 120.845C312.742 120.978 312.347 121.074 311.884 121.134C311.426 121.193 310.916 121.236 310.353 121.263V121.472C310.353 121.664 310.373 121.843 310.412 122.008C310.452 122.174 310.525 122.32 310.631 122.446C310.737 122.565 310.883 122.661 311.068 122.734C311.261 122.807 311.506 122.843 311.804 122.843C312.036 122.843 312.268 122.81 312.5 122.744C312.738 122.678 312.964 122.578 313.176 122.446L313.245 123.042C313.02 123.168 312.771 123.264 312.5 123.33C312.228 123.403 311.953 123.44 311.675 123.44C311.31 123.44 311.002 123.393 310.75 123.3C310.505 123.208 310.303 123.078 310.144 122.913C309.992 122.747 309.882 122.548 309.816 122.316C309.75 122.085 309.717 121.829 309.717 121.551C309.717 121.127 309.78 120.706 309.906 120.289C310.038 119.871 310.23 119.497 310.482 119.166C310.734 118.834 311.042 118.569 311.406 118.37C311.777 118.165 312.198 118.062 312.669 118.062C313.133 118.062 313.487 118.185 313.732 118.43C313.984 118.669 314.11 118.987 314.11 119.384ZM312.609 118.649C312.344 118.649 312.096 118.705 311.864 118.818C311.632 118.924 311.423 119.07 311.237 119.255C311.052 119.441 310.89 119.656 310.75 119.901C310.618 120.146 310.518 120.405 310.452 120.676C311.015 120.663 311.489 120.627 311.874 120.567C312.258 120.507 312.566 120.425 312.798 120.319C313.036 120.213 313.205 120.087 313.305 119.941C313.404 119.789 313.454 119.616 313.454 119.424C313.454 119.166 313.374 118.973 313.215 118.848C313.063 118.715 312.861 118.649 312.609 118.649ZM315.594 118.41C315.845 118.311 316.12 118.228 316.419 118.162C316.723 118.096 317.022 118.062 317.313 118.062C317.466 118.062 317.611 118.072 317.751 118.092C317.89 118.112 318.022 118.145 318.148 118.192L317.979 118.778C317.721 118.698 317.456 118.659 317.184 118.659C317.012 118.659 316.839 118.672 316.667 118.698C316.495 118.725 316.323 118.765 316.15 118.818L315.067 123.32H314.421L315.594 118.41Z" fill="#414652" fill-opacity="0.6"/>
<path d="M69.3698 185.272C69.3698 189.663 65.8098 193.223 61.4183 193.223C57.0268 193.223 53.4668 189.663 53.4668 185.272C53.4668 180.88 57.0268 177.32 61.4183 177.32C65.8098 177.32 69.3698 180.88 69.3698 185.272Z" fill="#FF444F"/>
<path d="M50.864 207.376C52.0726 207.376 52.677 206.963 52.677 206.136C52.677 205.881 52.6213 205.667 52.51 205.492C52.4066 205.309 52.2635 205.154 52.0806 205.027C51.8977 204.891 51.687 204.776 51.4484 204.681C51.2178 204.585 50.9714 204.49 50.709 204.394C50.4068 204.291 50.1205 204.176 49.8502 204.049C49.5798 203.913 49.3453 203.758 49.1465 203.583C48.9477 203.4 48.7887 203.186 48.6694 202.939C48.5581 202.693 48.5024 202.395 48.5024 202.045C48.5024 201.321 48.7489 200.757 49.2419 200.351C49.7349 199.946 50.4147 199.743 51.2815 199.743C51.7824 199.743 52.2356 199.798 52.6412 199.91C53.0546 200.013 53.3568 200.128 53.5476 200.256L53.1779 201.198C53.0109 201.095 52.7604 200.995 52.4265 200.9C52.1005 200.796 51.7188 200.745 51.2815 200.745C51.0588 200.745 50.8521 200.769 50.6612 200.816C50.4704 200.864 50.3034 200.936 50.1603 201.031C50.0172 201.126 49.9019 201.25 49.8144 201.401C49.7349 201.544 49.6951 201.715 49.6951 201.914C49.6951 202.136 49.7389 202.323 49.8263 202.474C49.9138 202.625 50.037 202.76 50.1961 202.88C50.3551 202.991 50.538 203.094 50.7447 203.19C50.9594 203.285 51.194 203.381 51.4484 203.476C51.8063 203.619 52.1323 203.762 52.4265 203.905C52.7286 204.049 52.9871 204.219 53.2018 204.418C53.4244 204.617 53.5954 204.856 53.7146 205.134C53.8339 205.404 53.8935 205.734 53.8935 206.124C53.8935 206.847 53.6272 207.404 53.0944 207.794C52.5696 208.183 51.8261 208.378 50.864 208.378C50.538 208.378 50.2358 208.354 49.9575 208.307C49.6872 208.267 49.4447 208.219 49.23 208.163C49.0153 208.1 48.8284 208.036 48.6694 207.973C48.5183 207.901 48.399 207.841 48.3116 207.794L48.6575 206.84C48.8403 206.943 49.1186 207.058 49.4924 207.185C49.8661 207.313 50.3233 207.376 50.864 207.376ZM56.2578 201.997H58.6075V202.927H56.2578V205.79C56.2578 206.1 56.2817 206.358 56.3294 206.565C56.3771 206.764 56.4487 206.923 56.5441 207.042C56.6395 207.154 56.7588 207.233 56.9019 207.281C57.045 207.329 57.212 207.352 57.4029 207.352C57.7368 207.352 58.0032 207.317 58.202 207.245C58.4087 207.166 58.5518 207.11 58.6314 207.078L58.8461 207.996C58.7347 208.052 58.5399 208.12 58.2616 208.199C57.9833 208.287 57.6653 208.33 57.3074 208.33C56.886 208.33 56.5361 208.279 56.2578 208.175C55.9875 208.064 55.7688 207.901 55.6018 207.686C55.4349 207.472 55.3156 207.209 55.244 206.899C55.1804 206.581 55.1486 206.215 55.1486 205.802V200.268L56.2578 200.077V201.997ZM62.1182 207.4C62.3806 207.4 62.6112 207.396 62.81 207.388C63.0167 207.372 63.1877 207.348 63.3229 207.317V205.468C63.2434 205.428 63.1122 205.396 62.9293 205.372C62.7543 205.341 62.5397 205.325 62.2852 205.325C62.1182 205.325 61.9393 205.337 61.7485 205.361C61.5656 205.384 61.3946 205.436 61.2356 205.516C61.0845 205.587 60.9573 205.691 60.8539 205.826C60.7506 205.953 60.6989 206.124 60.6989 206.339C60.6989 206.736 60.8261 207.014 61.0806 207.173C61.335 207.325 61.6809 207.4 62.1182 207.4ZM62.0228 201.842C62.4681 201.842 62.8418 201.902 63.144 202.021C63.4541 202.132 63.7006 202.295 63.8835 202.51C64.0743 202.717 64.2095 202.967 64.289 203.261C64.3685 203.548 64.4083 203.866 64.4083 204.216V208.092C64.3128 208.108 64.1777 208.132 64.0027 208.163C63.8358 208.187 63.6449 208.211 63.4302 208.235C63.2155 208.259 62.981 208.279 62.7265 208.295C62.48 208.318 62.2335 208.33 61.987 208.33C61.6372 208.33 61.3151 208.295 61.0209 208.223C60.7267 208.152 60.4723 208.04 60.2576 207.889C60.0429 207.73 59.8759 207.523 59.7566 207.269C59.6374 207.014 59.5777 206.708 59.5777 206.35C59.5777 206.009 59.6453 205.714 59.7805 205.468C59.9236 205.221 60.1144 205.023 60.353 204.872C60.5915 204.72 60.8698 204.609 61.1879 204.538C61.506 204.466 61.8399 204.43 62.1898 204.43C62.3011 204.43 62.4164 204.438 62.5357 204.454C62.655 204.462 62.7663 204.478 62.8696 204.502C62.981 204.518 63.0764 204.534 63.1559 204.549C63.2354 204.565 63.2911 204.577 63.3229 204.585V204.275C63.3229 204.092 63.303 203.913 63.2632 203.738C63.2235 203.556 63.1519 203.397 63.0486 203.261C62.9452 203.118 62.8021 203.007 62.6192 202.927C62.4442 202.84 62.2136 202.796 61.9274 202.796C61.5616 202.796 61.2396 202.824 60.9613 202.88C60.6909 202.927 60.4882 202.979 60.353 203.035L60.2218 202.116C60.3649 202.053 60.6035 201.993 60.9374 201.937C61.2714 201.874 61.6332 201.842 62.0228 201.842ZM68.5406 201.866C68.636 201.866 68.7434 201.874 68.8626 201.89C68.9899 201.898 69.1131 201.914 69.2324 201.937C69.3517 201.953 69.459 201.973 69.5544 201.997C69.6578 202.013 69.7333 202.029 69.781 202.045L69.5902 203.011C69.5027 202.979 69.3556 202.943 69.1489 202.904C68.9501 202.856 68.6917 202.832 68.3736 202.832C68.1669 202.832 67.9601 202.856 67.7534 202.904C67.5546 202.943 67.4234 202.971 67.3598 202.987V208.199H66.2506V202.259C66.513 202.164 66.839 202.077 67.2286 201.997C67.6182 201.91 68.0556 201.866 68.5406 201.866ZM71.8891 201.997H74.2388V202.927H71.8891V205.79C71.8891 206.1 71.9129 206.358 71.9606 206.565C72.0084 206.764 72.0799 206.923 72.1753 207.042C72.2708 207.154 72.39 207.233 72.5332 207.281C72.6763 207.329 72.8433 207.352 73.0341 207.352C73.3681 207.352 73.6344 207.317 73.8332 207.245C74.04 207.166 74.1831 207.11 74.2626 207.078L74.4773 207.996C74.366 208.052 74.1712 208.12 73.8929 208.199C73.6146 208.287 73.2965 208.33 72.9387 208.33C72.5173 208.33 72.1674 208.279 71.8891 208.175C71.6187 208.064 71.4001 207.901 71.2331 207.686C71.0661 207.472 70.9468 207.209 70.8753 206.899C70.8117 206.581 70.7798 206.215 70.7798 205.802V200.268L71.8891 200.077V201.997Z" fill="#414652"/>
<rect x="127.6" y="13.6484" width="153.067" height="33.7939" rx="15.903" fill="#CC2E3D"/>
<path d="M159.231 36.5996C159.008 36.2391 158.743 35.8522 158.436 35.4387C158.139 35.0146 157.81 34.5958 157.45 34.1823C157.1 33.7583 156.734 33.3554 156.352 32.9737C155.971 32.5814 155.589 32.2369 155.207 31.94V36.5996H152.726V25.5788H155.207V29.7454C155.854 29.0669 156.501 28.3618 157.147 27.6303C157.805 26.8882 158.414 26.2043 158.976 25.5788H161.918C161.166 26.4694 160.408 27.3281 159.644 28.1551C158.891 28.9821 158.096 29.8143 157.259 30.6519C158.139 31.3834 158.987 32.2528 159.803 33.26C160.63 34.2672 161.42 35.3804 162.173 36.5996H159.231ZM163.439 28.5209C163.841 28.4042 164.361 28.2982 164.997 28.2028C165.633 28.0968 166.301 28.0438 167.001 28.0438C167.711 28.0438 168.3 28.1392 168.766 28.33C169.243 28.5103 169.62 28.77 169.895 29.1093C170.171 29.4485 170.367 29.8514 170.484 30.3179C170.6 30.7844 170.659 31.3039 170.659 31.8764V36.5996H168.289V32.1627C168.289 31.3993 168.188 30.8586 167.987 30.5406C167.785 30.2225 167.409 30.0635 166.858 30.0635C166.688 30.0635 166.508 30.0741 166.317 30.0953C166.126 30.1059 165.957 30.1218 165.808 30.143V36.5996H163.439V28.5209ZM180.628 32.4012C180.628 33.0585 180.532 33.6628 180.341 34.2142C180.15 34.7549 179.875 35.2213 179.514 35.6136C179.154 35.9953 178.719 36.2922 178.21 36.5042C177.712 36.7162 177.15 36.8223 176.525 36.8223C175.91 36.8223 175.348 36.7162 174.839 36.5042C174.341 36.2922 173.911 35.9953 173.551 35.6136C173.19 35.2213 172.909 34.7549 172.708 34.2142C172.506 33.6628 172.406 33.0585 172.406 32.4012C172.406 31.7439 172.506 31.1449 172.708 30.6042C172.92 30.0635 173.206 29.6023 173.567 29.2206C173.938 28.8389 174.372 28.5421 174.871 28.33C175.38 28.118 175.931 28.012 176.525 28.012C177.129 28.012 177.68 28.118 178.179 28.33C178.687 28.5421 179.122 28.8389 179.483 29.2206C179.843 29.6023 180.124 30.0635 180.325 30.6042C180.527 31.1449 180.628 31.7439 180.628 32.4012ZM178.21 32.4012C178.21 31.6697 178.062 31.0972 177.765 30.6837C177.479 30.2596 177.065 30.0476 176.525 30.0476C175.984 30.0476 175.565 30.2596 175.268 30.6837C174.971 31.0972 174.823 31.6697 174.823 32.4012C174.823 33.1327 174.971 33.7159 175.268 34.1505C175.565 34.5746 175.984 34.7867 176.525 34.7867C177.065 34.7867 177.479 34.5746 177.765 34.1505C178.062 33.7159 178.21 33.1327 178.21 32.4012ZM182.066 32.4171C182.066 31.8128 182.161 31.2456 182.352 30.7155C182.553 30.1748 182.84 29.7083 183.211 29.316C183.582 28.9131 184.032 28.5951 184.562 28.3618C185.092 28.1286 185.697 28.012 186.375 28.012C186.821 28.012 187.229 28.0544 187.6 28.1392C187.971 28.2134 188.331 28.3247 188.681 28.4732L188.188 30.3656C187.966 30.2808 187.722 30.2066 187.457 30.143C187.192 30.0794 186.895 30.0476 186.566 30.0476C185.866 30.0476 185.342 30.2649 184.992 30.6996C184.652 31.1343 184.483 31.7068 184.483 32.4171C184.483 33.1699 184.642 33.753 184.96 34.1664C185.289 34.5799 185.856 34.7867 186.662 34.7867C186.948 34.7867 187.255 34.7602 187.584 34.7071C187.913 34.6541 188.215 34.5693 188.49 34.4527L188.824 36.3929C188.549 36.5095 188.204 36.6102 187.791 36.695C187.377 36.7798 186.921 36.8223 186.423 36.8223C185.66 36.8223 185.002 36.7109 184.451 36.4883C183.9 36.255 183.444 35.9423 183.083 35.55C182.733 35.1577 182.474 34.6965 182.304 34.1664C182.145 33.6257 182.066 33.0426 182.066 32.4171ZM192.784 31.2562C193.017 31.0017 193.256 30.7367 193.5 30.461C193.754 30.1854 193.998 29.915 194.231 29.65C194.465 29.3743 194.682 29.1146 194.883 28.8707C195.095 28.6269 195.276 28.4148 195.424 28.2346H198.239C197.677 28.8813 197.126 29.5016 196.585 30.0953C196.055 30.6784 195.472 31.2827 194.836 31.9082C195.154 32.1945 195.482 32.539 195.822 32.9419C196.161 33.3342 196.49 33.7424 196.808 34.1664C197.126 34.5905 197.417 35.0146 197.682 35.4387C197.947 35.8628 198.17 36.2497 198.35 36.5996H195.631C195.461 36.324 195.265 36.0218 195.042 35.6931C194.83 35.3539 194.602 35.0199 194.359 34.6912C194.115 34.352 193.855 34.0286 193.579 33.7212C193.314 33.4137 193.049 33.154 192.784 32.9419V36.5996H190.415V24.6405L192.784 24.2589V31.2562ZM198.652 32.4807C198.652 31.7386 198.763 31.0919 198.986 30.5406C199.219 29.9786 199.521 29.5122 199.892 29.1411C200.263 28.77 200.688 28.4891 201.165 28.2982C201.652 28.1074 202.151 28.012 202.659 28.012C203.847 28.012 204.785 28.3777 205.474 29.1093C206.163 29.8302 206.508 30.8957 206.508 32.3058C206.508 32.4436 206.503 32.5973 206.492 32.767C206.482 32.926 206.471 33.0691 206.46 33.1964H201.085C201.138 33.6841 201.366 34.071 201.769 34.3573C202.172 34.6435 202.713 34.7867 203.391 34.7867C203.826 34.7867 204.25 34.7496 204.663 34.6753C205.087 34.5905 205.432 34.4898 205.697 34.3732L206.015 36.2975C205.888 36.3611 205.718 36.4247 205.506 36.4883C205.294 36.5519 205.056 36.6049 204.791 36.6473C204.536 36.7003 204.26 36.7427 203.964 36.7745C203.667 36.8063 203.37 36.8223 203.073 36.8223C202.32 36.8223 201.663 36.7109 201.101 36.4883C200.55 36.2656 200.089 35.9635 199.717 35.5818C199.357 35.1895 199.087 34.7284 198.906 34.1983C198.737 33.6682 198.652 33.0956 198.652 32.4807ZM204.218 31.5743C204.207 31.3728 204.17 31.1767 204.107 30.9858C204.054 30.795 203.964 30.6254 203.836 30.4769C203.72 30.3285 203.566 30.2066 203.375 30.1112C203.195 30.0158 202.967 29.968 202.691 29.968C202.426 29.968 202.198 30.0158 202.007 30.1112C201.817 30.196 201.658 30.3126 201.53 30.461C201.403 30.6095 201.302 30.7844 201.228 30.9858C201.165 31.1767 201.117 31.3728 201.085 31.5743H204.218ZM210.356 32.3535C210.356 33.085 210.521 33.6735 210.849 34.1187C211.178 34.564 211.666 34.7867 212.312 34.7867C212.524 34.7867 212.721 34.7814 212.901 34.7708C213.081 34.7496 213.229 34.7284 213.346 34.7071V30.3974C213.198 30.302 213.002 30.2225 212.758 30.1589C212.524 30.0953 212.286 30.0635 212.042 30.0635C210.918 30.0635 210.356 30.8268 210.356 32.3535ZM215.716 36.3293C215.504 36.3929 215.26 36.4565 214.984 36.5201C214.708 36.5731 214.417 36.6208 214.109 36.6632C213.813 36.7056 213.505 36.7374 213.187 36.7586C212.88 36.7904 212.583 36.8063 212.296 36.8063C211.607 36.8063 210.992 36.7056 210.452 36.5042C209.911 36.3028 209.455 36.0165 209.084 35.6454C208.713 35.2638 208.427 34.8079 208.225 34.2778C208.034 33.7371 207.939 33.1327 207.939 32.4648C207.939 31.7863 208.024 31.1767 208.194 30.636C208.363 30.0847 208.607 29.6182 208.925 29.2365C209.243 28.8548 209.63 28.5633 210.086 28.3618C210.552 28.1604 211.083 28.0597 211.676 28.0597C212.005 28.0597 212.296 28.0915 212.551 28.1551C212.816 28.2187 213.081 28.3088 213.346 28.4255V24.6405L215.716 24.2589V36.3293ZM217.576 30.7791H222.188V32.926H217.576V30.7791ZM226.249 31.0813C226.249 31.622 226.313 32.1097 226.44 32.5443C226.578 32.979 226.769 33.3554 227.012 33.6735C227.267 33.9809 227.574 34.2195 227.935 34.3891C228.295 34.5587 228.709 34.6435 229.175 34.6435C229.631 34.6435 230.039 34.5587 230.4 34.3891C230.771 34.2195 231.078 33.9809 231.322 33.6735C231.577 33.3554 231.767 32.979 231.895 32.5443C232.032 32.1097 232.101 31.622 232.101 31.0813C232.101 30.5406 232.032 30.0529 231.895 29.6182C231.767 29.1729 231.577 28.7965 231.322 28.4891C231.078 28.171 230.771 27.9272 230.4 27.7575C230.039 27.5879 229.631 27.5031 229.175 27.5031C228.709 27.5031 228.295 27.5932 227.935 27.7734C227.574 27.9431 227.267 28.1869 227.012 28.505C226.769 28.8124 226.578 29.1888 226.44 29.6341C226.313 30.0688 226.249 30.5512 226.249 31.0813ZM234.662 31.0813C234.662 32.0248 234.519 32.8571 234.232 33.578C233.957 34.2884 233.575 34.8874 233.087 35.3751C232.6 35.8522 232.017 36.2126 231.338 36.4565C230.67 36.7003 229.949 36.8223 229.175 36.8223C228.422 36.8223 227.712 36.7003 227.044 36.4565C226.376 36.2126 225.793 35.8522 225.295 35.3751C224.797 34.8874 224.404 34.2884 224.118 33.578C223.832 32.8571 223.689 32.0248 223.689 31.0813C223.689 30.1377 223.837 29.3107 224.134 28.6004C224.431 27.8794 224.828 27.2751 225.327 26.7874C225.836 26.2997 226.419 25.934 227.076 25.6901C227.744 25.4463 228.444 25.3244 229.175 25.3244C229.928 25.3244 230.638 25.4463 231.306 25.6901C231.974 25.934 232.557 26.2997 233.056 26.7874C233.554 27.2751 233.946 27.8794 234.232 28.6004C234.519 29.3107 234.662 30.1377 234.662 31.0813ZM243.711 36.3134C243.308 36.43 242.789 36.536 242.153 36.6314C241.517 36.7374 240.849 36.7904 240.149 36.7904C239.439 36.7904 238.845 36.695 238.368 36.5042C237.901 36.3134 237.53 36.0483 237.255 35.709C236.979 35.3592 236.783 34.9457 236.666 34.4686C236.55 33.9915 236.491 33.4667 236.491 32.8942V28.2346H238.861V32.6079C238.861 33.3713 238.961 33.9226 239.163 34.2619C239.364 34.6011 239.741 34.7708 240.292 34.7708C240.462 34.7708 240.642 34.7655 240.833 34.7549C241.024 34.7337 241.193 34.7124 241.342 34.6912V28.2346H243.711V36.3134ZM245.856 26.1513L248.226 25.7696V28.2346H251.072V30.2066H248.226V33.1487C248.226 33.6469 248.31 34.0445 248.48 34.3414C248.66 34.6382 249.015 34.7867 249.545 34.7867C249.8 34.7867 250.06 34.7655 250.325 34.7231C250.6 34.67 250.85 34.6011 251.072 34.5163L251.406 36.3611C251.12 36.4777 250.802 36.5784 250.452 36.6632C250.102 36.748 249.673 36.7904 249.164 36.7904C248.517 36.7904 247.982 36.7056 247.558 36.536C247.134 36.3558 246.794 36.1119 246.54 35.8045C246.285 35.4864 246.105 35.1047 245.999 34.6594C245.904 34.2142 245.856 33.7212 245.856 33.1805V26.1513ZM255.435 28.4255C255.435 29.2842 255.403 30.0847 255.34 30.8268C255.276 31.569 255.191 32.3217 255.085 33.085H253.272C253.166 32.3217 253.076 31.569 253.002 30.8268C252.938 30.0847 252.906 29.2842 252.906 28.4255V25.5788H255.435V28.4255ZM255.642 35.3433C255.642 35.8098 255.488 36.1702 255.181 36.4247C254.884 36.6791 254.544 36.8063 254.163 36.8063C253.781 36.8063 253.436 36.6791 253.129 36.4247C252.832 36.1702 252.684 35.8098 252.684 35.3433C252.684 34.8768 252.832 34.5163 253.129 34.2619C253.436 34.0074 253.781 33.8802 254.163 33.8802C254.544 33.8802 254.884 34.0074 255.181 34.2619C255.488 34.5163 255.642 34.8768 255.642 35.3433Z" fill="white"/>
<path d="M278 58L278 220.018" stroke="#7D7D7D" stroke-width="2.98182"/>
<path d="M287.475 202.112H291.321L291.192 202.698H288.002L287.415 205.094H290.258L290.129 205.67H287.306L286.62 208.414H290.039L289.92 209H285.825L287.475 202.112ZM292.737 206.306L291.465 203.861H292.22L293.224 205.939C293.529 205.568 293.824 205.2 294.109 204.835C294.4 204.464 294.632 204.14 294.804 203.861H295.52C295.228 204.299 294.904 204.736 294.546 205.173C294.195 205.611 293.853 206.021 293.522 206.406C293.608 206.571 293.704 206.757 293.81 206.962C293.916 207.168 294.022 207.387 294.128 207.618C294.241 207.844 294.344 208.076 294.437 208.314C294.536 208.546 294.622 208.775 294.695 209H294.019C293.973 208.848 293.913 208.679 293.84 208.493C293.767 208.301 293.685 208.105 293.592 207.907C293.506 207.708 293.416 207.512 293.323 207.32C293.231 207.121 293.144 206.943 293.065 206.784L291.117 209H290.332L292.737 206.306ZM296.337 208.404C296.542 208.463 296.751 208.493 296.963 208.493C297.374 208.493 297.738 208.414 298.056 208.255C298.374 208.089 298.642 207.877 298.861 207.618C299.08 207.353 299.245 207.059 299.358 206.734C299.471 206.403 299.527 206.068 299.527 205.73C299.527 205.233 299.418 204.872 299.199 204.647C298.98 204.415 298.652 204.299 298.215 204.299C298.063 204.299 297.907 204.312 297.748 204.338C297.595 204.365 297.436 204.401 297.271 204.448L296.337 208.404ZM296.714 204.07C296.993 203.971 297.271 203.891 297.549 203.832C297.827 203.772 298.102 203.742 298.374 203.742C299.58 203.742 300.183 204.372 300.183 205.631C300.183 206.075 300.11 206.505 299.964 206.923C299.819 207.34 299.603 207.711 299.318 208.036C299.04 208.354 298.695 208.609 298.285 208.801C297.88 208.993 297.417 209.089 296.893 209.089C296.635 209.089 296.396 209.06 296.177 209L295.74 210.839H295.084L296.714 204.07ZM301.928 203.861H302.574L301.332 209H300.686L301.928 203.861ZM302.186 202.36C302.186 202.188 302.233 202.059 302.326 201.973C302.425 201.88 302.531 201.834 302.644 201.834C302.776 201.834 302.879 201.877 302.952 201.963C303.025 202.042 303.061 202.148 303.061 202.281C303.061 202.44 303.008 202.563 302.902 202.649C302.796 202.735 302.69 202.778 302.584 202.778C302.451 202.778 302.352 202.741 302.286 202.669C302.22 202.589 302.186 202.486 302.186 202.36ZM304.198 204.09C304.449 203.991 304.724 203.908 305.023 203.841C305.327 203.775 305.626 203.742 305.917 203.742C306.07 203.742 306.215 203.752 306.354 203.772C306.494 203.792 306.626 203.825 306.752 203.871L306.583 204.458C306.325 204.378 306.06 204.338 305.788 204.338C305.616 204.338 305.443 204.352 305.271 204.378C305.099 204.405 304.927 204.444 304.754 204.497L303.671 209H303.025L304.198 204.09ZM305.482 210.153C305.661 210.252 305.863 210.302 306.088 210.302C306.426 210.302 306.757 210.209 307.082 210.024C307.407 209.838 307.708 209.557 307.987 209.179C307.708 208.298 307.49 207.403 307.331 206.495C307.172 205.587 307.079 204.709 307.052 203.861H307.728C307.741 204.179 307.761 204.527 307.788 204.905C307.821 205.283 307.867 205.677 307.927 206.088C307.987 206.499 308.06 206.919 308.146 207.35C308.232 207.774 308.338 208.188 308.464 208.592C308.762 208.122 309.03 207.648 309.269 207.171C309.507 206.687 309.716 206.234 309.895 205.809C310.074 205.385 310.22 205.004 310.332 204.666C310.452 204.322 310.538 204.053 310.591 203.861H311.227C311.187 204 311.114 204.239 311.008 204.577C310.902 204.908 310.76 205.296 310.581 205.74C310.402 206.184 310.183 206.664 309.925 207.181C309.673 207.691 309.381 208.192 309.05 208.682C308.54 209.444 308.046 209.997 307.569 210.342C307.092 210.693 306.595 210.869 306.078 210.869C305.959 210.869 305.83 210.859 305.691 210.839C305.551 210.819 305.406 210.769 305.253 210.69L305.482 210.153Z" fill="#414652" fill-opacity="0.6"/>
<path d="M233.903 83.9515C233.903 88.343 230.343 91.903 225.952 91.903C221.56 91.903 218 88.343 218 83.9515C218 79.56 221.56 76 225.952 76C230.343 76 233.903 79.56 233.903 83.9515Z" fill="#FF444F"/>
<defs>
<filter id="filter0_d_6281_27394" x="0.430709" y="0.495739" width="341.805" height="227.502" filterUnits="userSpaceOnUse" color-interpolation-filters="sRGB">
<feFlood flood-opacity="0" result="BackgroundImageFix"/>
<feColorMatrix in="SourceAlpha" type="matrix" values="0 0 0 0 0 0 0 0 0 0 0 0 0 0 0 0 0 0 127 0" result="hardAlpha"/>
<feOffset dy="1.38046"/>
<feGaussianBlur stdDeviation="3.45115"/>
<feComposite in2="hardAlpha" operator="out"/>
<feColorMatrix type="matrix" values="0 0 0 0 0 0 0 0 0 0 0 0 0 0 0 0 0 0 0.1 0"/>
<feBlend mode="normal" in2="BackgroundImageFix" result="effect1_dropShadow_6281_27394"/>
<feBlend mode="normal" in="SourceGraphic" in2="effect1_dropShadow_6281_27394" result="shape"/>
</filter>
</defs>
</svg>
