<svg xmlns="http://www.w3.org/2000/svg" xmlns:xlink="http://www.w3.org/1999/xlink" width="32" height="32" viewBox="0 0 32 32">
    <defs>
        <rect id="9yzgt48vqa" width="12" height="8" x="0" y="0" rx="1"/>
        <path id="3z7nz3rh8c" d="M1 0h4.6v4.284H0V1c0-.552.448-1 1-1z"/>
    </defs>
    <g fill="none" fill-rule="evenodd">
        <g>
            <g>
                <g>
                    <g>
                        <g>
                            <g>
                                <g>
                                    <g fill="#6E7287" fill-rule="nonzero" transform="translate(-573 -1812) translate(0 1273) translate(324 458) translate(0 48) translate(146 33) translate(103) translate(6 6)">
                                        <path d="M15 4c.552 0 1 .448 1 1v10c0 .552-.448 1-1 1H5c-.552 0-1-.448-1-1V5c0-.552.448-1 1-1h10m0-1H5c-1.105 0-2 .895-2 2v10c0 1.105.895 2 2 2h10c1.105 0 2-.895 2-2V5c0-1.105-.895-2-2-2z"/>
                                        <path d="M13 7v6H7V7h6m0-1H7c-.552 0-1 .448-1 1v6c0 .552.448 1 1 1h6c.552 0 1-.448 1-1V7c0-.552-.448-1-1-1z"/>
                                        <rect width="2" height="4" x="5" y="16" rx="1"/>
                                        <rect width="2" height="4" x="9" y="16" rx="1"/>
                                        <rect width="2" height="4" x="13" y="16" rx="1"/>
                                        <rect width="2" height="4" x="5" rx="1"/>
                                        <rect width="2" height="4" x="9" rx="1"/>
                                        <rect width="2" height="4" x="13" rx="1"/>
                                        <rect width="2" height="4" x="1" y="12" rx="1" transform="rotate(-90 2 14)"/>
                                        <rect width="2" height="4" x="1" y="8" rx="1" transform="rotate(-90 2 10)"/>
                                        <rect width="2" height="4" x="1" y="4" rx="1" transform="rotate(-90 2 6)"/>
                                        <rect width="2" height="4" x="17" y="12" rx="1" transform="rotate(-90 18 14)"/>
                                        <rect width="2" height="4" x="17" y="8" rx="1" transform="rotate(-90 18 10)"/>
                                        <rect width="2" height="4" x="17" y="4" rx="1" transform="rotate(-90 18 6)"/>
                                    </g>
                                    <g transform="translate(-573 -1812) translate(0 1273) translate(324 458) translate(0 48) translate(146 33) translate(103) translate(17 3)">
                                        <mask id="gd0osnic6b" fill="#fff">
                                            <use xlink:href="#9yzgt48vqa"/>
                                        </mask>
                                        <use fill="#FFF" xlink:href="#9yzgt48vqa"/>
                                        <path fill="#F44336" d="M12 7.344c0 .362-.294.656-.656.656H.656C.294 8 0 7.706 0 7.344h12zm0-1.224v.612H0V6.12h12zm0-1.224v.612H0v-.612h12zm0-1.224v.612H0v-.612h12zm0-1.224v.612H0v-.612h12zm0-1.224v.612H0v-.612h12zM11.388 0c.304 0 .557.222.604.513L12 .612H.344C.344.274.618 0 .956 0h10.432z" mask="url(#gd0osnic6b)"/>
                                        <use fill="#0D47A1" xlink:href="#3z7nz3rh8c"/>
                                        <rect width="11.5" height="7.5" x=".25" y=".25" stroke="#000" stroke-opacity=".04" stroke-width=".5" rx="1"/>
                                    </g>
                                </g>
                                <g transform="translate(-573 -1812) translate(0 1273) translate(324 458) translate(0 48) translate(146 33) translate(103) translate(16 22)">
                                    <rect width="14" height="8" fill="#0E0E0E" rx="4"/>
                                    <path fill="#FFF" fill-rule="nonzero" d="M4.882 6v-.444h-1.08V1.812h-.786L1.906 2.85l.294.318 1.056-.984h.042v3.372h-1.17V6h2.754zM7 6.072c.5 0 .865-.19 1.095-.57.23-.38.345-.912.345-1.596S8.325 2.69 8.095 2.31C7.865 1.93 7.5 1.74 7 1.74s-.865.19-1.095.57c-.23.38-.345.912-.345 1.596s.115 1.216.345 1.596c.23.38.595.57 1.095.57zm0-.438c-.164 0-.304-.034-.42-.102-.116-.068-.21-.164-.282-.288-.072-.124-.125-.27-.159-.438-.034-.168-.051-.354-.051-.558v-.684c0-.204.017-.39.051-.558.034-.168.087-.314.159-.438.072-.124.166-.22.282-.288.116-.068.256-.102.42-.102.164 0 .304.034.42.102.116.068.21.164.282.288.072.124.125.27.159.438.034.168.051.354.051.558v.684c0 .204-.017.39-.051.558-.034.168-.087.314-.159.438-.072.124-.166.22-.282.288-.116.068-.256.102-.42.102zm3.6.438c.5 0 .865-.19 1.095-.57.23-.38.345-.912.345-1.596s-.115-1.216-.345-1.596c-.23-.38-.595-.57-1.095-.57s-.865.19-1.095.57c-.23.38-.345.912-.345 1.596s.115 1.216.345 1.596c.23.38.595.57 1.095.57zm0-.438c-.164 0-.304-.034-.42-.102-.116-.068-.21-.164-.282-.288-.072-.124-.125-.27-.159-.438-.034-.168-.051-.354-.051-.558v-.684c0-.204.017-.39.051-.558.034-.168.087-.314.159-.438.072-.124.166-.22.282-.288.116-.068.256-.102.42-.102.164 0 .304.034.42.102.116.068.21.164.282.288.072.124.125.27.159.438.034.168.051.354.051.558v.684c0 .204-.017.39-.051.558-.034.168-.087.314-.159.438-.072.124-.166.22-.282.288-.116.068-.256.102-.42.102z"/>
                                </g>
                            </g>
                        </g>
                    </g>
                </g>
            </g>
        </g>
    </g>
</svg>
