<svg xmlns="http://www.w3.org/2000/svg" width="32" height="32" viewBox="0 0 32 32">
    <g fill="none" fill-rule="evenodd">
        <g>
            <g>
                <g>
                    <g>
                        <g>
                            <g>
                                <path d="M0 0H32V32H0z" transform="translate(-710 -1812) translate(0 1273) translate(324 458) translate(0 48) translate(146 33) translate(240)"/>
                                <g>
                                    <g fill-rule="nonzero">
                                        <g transform="translate(-710 -1812) translate(0 1273) translate(324 458) translate(0 48) translate(146 33) translate(240) translate(4 2) translate(0 6)">
                                            <rect width="24" height="16" fill="#4CAF50" rx="2"/>
                                            <path fill="#FFF" d="M5.397 6.09l.529 2.777.645-2.777h.682l.642 2.782.526-2.782h.803L8.356 10h-.81l-.637-2.616L6.272 10h-.81l-.868-3.91h.803zm6.134 0L12.994 10h-.856l-.272-.806h-1.412l-.269.806H9.33l1.455-3.91h.747zm2.634 0v3.263h1.711V10H13.36V6.09h.805zm2.979 0v3.263h1.71V10h-2.516V6.09h.806zm-5.987.988l-.486 1.464h.978l-.492-1.464zm7.956-3.6c.177 0 .336.032.475.096.139.064.247.155.323.273.077.117.116.25.116.4h-.513c0-.114-.036-.203-.108-.266-.071-.063-.172-.095-.302-.095-.125 0-.223.026-.292.08-.07.052-.104.122-.104.209 0 .08.04.148.122.203.081.055.201.106.36.154.291.088.504.197.637.326.133.13.2.292.2.486 0 .215-.082.384-.245.506-.162.123-.382.184-.657.184-.192 0-.366-.035-.523-.105-.158-.07-.278-.166-.36-.288-.083-.122-.124-.263-.124-.424h.514c0 .275.164.412.493.412.121 0 .217-.025.285-.074.068-.05.102-.119.102-.208 0-.097-.034-.171-.102-.223-.068-.052-.191-.106-.37-.164-.177-.057-.318-.114-.421-.17-.283-.153-.424-.358-.424-.617 0-.134.038-.254.113-.36.076-.105.185-.187.327-.247.142-.059.301-.088.478-.088zm3.134.034v.415h-.762V6h-.513V3.927h-.752v-.415h2.027z"/>
                                            <rect width="23" height="15" x=".5" y=".5" stroke="#FFF" stroke-opacity=".24" rx="1"/>
                                        </g>
                                    </g>
                                    <g transform="translate(-710 -1812) translate(0 1273) translate(324 458) translate(0 48) translate(146 33) translate(240) translate(4 2) translate(15)">
                                        <rect width="11" height="8" fill="#0E0E0E" rx="1"/>
                                        <path fill="#FFF" fill-rule="nonzero" d="M3.508 6.072c.212 0 .406-.03.582-.09.176-.06.326-.143.45-.249.124-.106.22-.234.288-.384.068-.15.102-.315.102-.495 0-.156-.025-.295-.075-.417-.05-.122-.116-.226-.198-.312s-.176-.156-.282-.21c-.106-.054-.215-.093-.327-.117v-.024c.112-.028.217-.07.315-.126.098-.056.183-.124.255-.204.072-.08.129-.174.171-.282.042-.108.063-.23.063-.366 0-.168-.033-.318-.099-.45s-.156-.243-.27-.333c-.114-.09-.249-.158-.405-.204-.156-.046-.322-.069-.498-.069-.168 0-.318.02-.45.06-.132.04-.248.092-.348.156-.1.064-.187.137-.261.219-.074.082-.137.165-.189.249l.372.288c.088-.16.2-.287.336-.381.136-.094.312-.141.528-.141.224 0 .405.055.543.165.138.11.207.275.207.495v.042c0 .204-.071.371-.213.501-.142.13-.355.195-.639.195H3.01v.438h.492c.296 0 .52.067.672.201.152.134.228.325.228.573v.048c0 .248-.076.439-.228.573-.152.134-.376.201-.672.201-.128 0-.24-.013-.336-.039-.096-.026-.182-.063-.258-.111-.076-.048-.145-.106-.207-.174-.062-.068-.119-.144-.171-.228l-.378.288c.064.092.137.18.219.264.082.084.177.16.285.228.108.068.232.122.372.162.14.04.3.06.48.06zm3.792 0c.5 0 .865-.19 1.095-.57.23-.38.345-.912.345-1.596S8.625 2.69 8.395 2.31c-.23-.38-.595-.57-1.095-.57s-.865.19-1.095.57c-.23.38-.345.912-.345 1.596s.115 1.216.345 1.596c.23.38.595.57 1.095.57zm0-.438c-.164 0-.304-.034-.42-.102-.116-.068-.21-.164-.282-.288-.072-.124-.125-.27-.159-.438-.034-.168-.051-.354-.051-.558v-.684c0-.204.017-.39.051-.558.034-.168.087-.314.159-.438.072-.124.166-.22.282-.288.116-.068.256-.102.42-.102.164 0 .304.034.42.102.116.068.21.164.282.288.072.124.125.27.159.438.034.168.051.354.051.558v.684c0 .204-.017.39-.051.558-.034.168-.087.314-.159.438-.072.124-.166.22-.282.288-.116.068-.256.102-.42.102z"/>
                                    </g>
                                </g>
                            </g>
                        </g>
                    </g>
                </g>
            </g>
        </g>
    </g>
</svg>
