<svg xmlns="http://www.w3.org/2000/svg" width="32" height="33" fill="none"  xmlns:v="https://vecta.io/nano"><path d="M26.018 2.672H5.983c-1.831 0-3.316 1.484-3.316 3.316v20.036c0 1.831 1.484 3.316 3.316 3.316h20.036c1.831 0 3.316-1.484 3.316-3.316V5.988c0-1.831-1.485-3.316-3.316-3.316z" fill="#fff"/><path fill-rule="evenodd" d="M20.853 10.457c-.535-.098-1.257-.172-1.712-.172-1.23 0-1.31.491-1.31 1.277v1.399h3.076l-.268 2.897H17.83v8.814h-3.851v-8.814H12v-2.897h1.979v-1.792c0-2.455 1.257-3.83 4.412-3.83 1.096 0 1.899.147 2.942.344l-.481 2.774z" fill="#000"/></svg>
