<svg width="50" height="50" fill="none" xmlns="http://www.w3.org/2000/svg"><path opacity=".01" fill="#fff" stroke="#979797" d="M1 1h48v48H1z"/><path fill-rule="evenodd" clip-rule="evenodd" d="M19.203 23.951H6.653a.79.79 0 0 1 0-1.576h12.55a.788.788 0 1 1 0 1.576Zm0 4.867H6.653a.79.79 0 0 1 0-1.577h12.55a.788.788 0 1 1 0 1.578Zm0 4.866H6.653a.79.79 0 0 1 0-1.577h12.55a.788.788 0 1 1 0 1.577Zm-6.267 4.867H6.654a.79.79 0 0 1 0-1.577h6.282a.789.789 0 1 1 0 1.577ZM33 31.14V21a4 4 0 0 0-4-4H5a4 4 0 0 0-4 4v24a4 4 0 0 0 4 4h10.266c0-9.807 7.944-17.787 17.734-17.86Zm12.936 8.516L36.593 49H49c0-3.498-1.145-6.721-3.063-9.344Zm-10.802-6.383v14.358l9.52-9.52a15.811 15.811 0 0 0-9.52-4.838Z" fill="#85ACAF"/><path fill-rule="evenodd" clip-rule="evenodd" d="M17.267 49h15.867V33.133c-8.763 0-15.867 7.104-15.867 15.867Z" fill="#85ACAF"/><path fill-rule="evenodd" clip-rule="evenodd" d="M22 5.5v18a4.5 4.5 0 0 0 4.5 4.5h18a4.5 4.5 0 0 0 4.5-4.5v-18A4.5 4.5 0 0 0 44.5 1h-18A4.5 4.5 0 0 0 22 5.5Z" fill="#FF444F" style="mix-blend-mode:multiply"/><path fill-rule="evenodd" clip-rule="evenodd" d="M34.239 16.715a1.3 1.3 0 0 1-1.304 1.298c-.72 0-1.305-.58-1.305-1.298V6.797A1.3 1.3 0 0 1 32.935 5.5a1.3 1.3 0 0 1 1.303 1.297v9.918Zm8.957 1.298a1.3 1.3 0 0 0 1.304-1.298v-5.967a1.3 1.3 0 0 0-1.304-1.298 1.3 1.3 0 0 0-1.303 1.298v5.967a1.3 1.3 0 0 0 1.303 1.298Zm-1.303 4.19a1.3 1.3 0 0 0 1.303 1.297 1.3 1.3 0 0 0 1.304-1.297 1.3 1.3 0 0 0-1.304-1.298 1.3 1.3 0 0 0-1.303 1.298Zm-2.522-5.489c0 .717-.585 1.298-1.306 1.298a1.3 1.3 0 0 1-1.304-1.298v-3.329a1.3 1.3 0 0 1 1.304-1.297c.72 0 1.306.58 1.306 1.297v3.33Zm-2.61 5.489a1.3 1.3 0 0 0 1.304 1.297c.72 0 1.306-.581 1.306-1.297 0-.717-.585-1.298-1.306-1.298a1.3 1.3 0 0 0-1.304 1.298Zm-5.131 0a1.3 1.3 0 0 0 1.305 1.297 1.3 1.3 0 0 0 1.303-1.297 1.3 1.3 0 0 0-1.303-1.298c-.72 0-1.305.581-1.305 1.298Zm-2.521-5.487c0 .717-.585 1.297-1.305 1.297a1.3 1.3 0 0 1-1.304-1.297v-6.573a1.3 1.3 0 0 1 1.304-1.298c.72 0 1.305.58 1.305 1.298v6.573ZM26.5 22.203a1.3 1.3 0 0 0 1.304 1.297 1.3 1.3 0 0 0 1.305-1.297c0-.717-.585-1.298-1.305-1.298a1.3 1.3 0 0 0-1.304 1.298Z" fill="#fff"/></svg>