<svg xmlns="http://www.w3.org/2000/svg" width="32" height="32"><defs><linearGradient id="a" x1="0%" x2="100%" y1="96.228%" y2="3.772%"><stop offset="0%" stop-color="#FF444F"/><stop offset="100%" stop-color="#FF6444"/></linearGradient></defs><g fill="none" fill-rule="evenodd"><path d="M0 0h32v32H0z"/><path fill="url(#a)" d="M28 16a1 1 0 0 1 1 1v11a1 1 0 0 1-1 1h-9a1 1 0 0 1-1-1V17a1 1 0 0 1 1-1zm-14 8a1 1 0 0 1 1 1v3a1 1 0 0 1-1 1H4a1 1 0 0 1-1-1v-3a1 1 0 0 1 1-1zm14-7h-9v11h9V17zm-14 8H4v3h10v-3zm-4 1v1H8v-1h2zm3 0v1h-2v-1h2zm-6 0v1H5v-1h2zm20-1v1h-7v-1h7zm0-3v1h-7v-1h7zM14 4c.552 0 1 .304 1 .68v15.64c0 .376-.448.68-1 .68H4c-.552 0-1-.304-1-.68V4.68C3 4.304 3.448 4 4 4zm0 1H4v15h10V5zm13 14v1h-7v-1h7zM6 16v1H5v-1h1zm7 0v1H7v-1h6zM28 4a1 1 0 0 1 1 1v7a1 1 0 0 1-1 1h-9a1 1 0 0 1-1-1V5a1 1 0 0 1 1-1zM6 12v1H5v-1h1zm7 0v1H7v-1h6zm15-7h-9v7h9V5zm-4 4v1h-1V9h1zm3 0v1h-1V9h1zm-6 0v1h-1V9h1zM6 8v1H5V8h1zm7 0v1H7V8h6zm11-1v1h-1V7h1zm3 0v1h-1V7h1zm-6 0v1h-1V7h1z"/></g></svg>