<svg width="32" height="32" fill="none" xmlns="http://www.w3.org/2000/svg"><path fill-rule="evenodd" clip-rule="evenodd" d="M14 32c7.732 0 14-6.268 14-14S21.732 4 14 4 0 10.268 0 18s6.268 14 14 14zm6-14a6 6 0 11-12 0 6 6 0 0112 0zm4 0c0 5.523-4.477 10-10 10S4 23.523 4 18 8.477 8 14 8s10 4.477 10 10z" fill="#85ACB0"/><path fill-rule="evenodd" clip-rule="evenodd" d="M28.527 2.554l-.164-1.63a1.027 1.027 0 00-1.749-.623l-3.313 3.313a1.027 1.027 0 00-.296.83l.288 2.849-10.95 10.95a1 1 0 001.414 1.414l10.95-10.95 2.849.288c.307.03.612-.078.83-.296l3.313-3.313a1.027 1.027 0 00-.623-1.749l-1.63-.164a1.027 1.027 0 01-.919-.92z" fill="#FF444F"/></svg>