<svg width="48" height="48" fill="none" xmlns="http://www.w3.org/2000/svg"><path fill-rule="evenodd" clip-rule="evenodd" d="M0 44a4 4 0 004 4h32a4 4 0 004-4v-2.333H0V44z" fill="#85ACAF"/><mask id="prefix__a" style="mask-type:alpha" maskUnits="userSpaceOnUse" x="0" y="13" width="40" height="28"><path fill-rule="evenodd" clip-rule="evenodd" d="M0 13.817h40V40.02H0V13.817z" fill="#fff"/></mask><g mask="url(#prefix__a)"><path fill-rule="evenodd" clip-rule="evenodd" d="M26.63 30.285v5.947h-3.228v-5.947h-3.228l3.228-4.298 1.615-2.149 1.614 2.15 3.229 4.297h-3.23zm-10.032.563l-1.614 2.15-1.615-2.149-3.23-4.298h3.23v-5.947h3.229v5.947h3.228l-3.228 4.297zM36 13.818H4a4 4 0 00-4 4V40.02h40V17.817a4 4 0 00-4-4z" fill="#85ACAF"/></g><path fill-rule="evenodd" clip-rule="evenodd" d="M34.5 0C27.045 0 21 6.043 21 13.5 21 20.955 27.045 27 34.5 27S48 20.955 48 13.5C48 6.043 41.955 0 34.5 0z" fill="#FF444F"/><path fill-rule="evenodd" clip-rule="evenodd" d="M32.127 9.314a1.814 1.814 0 10-3.627 0 1.814 1.814 0 003.627 0zm.238 10.146h-2.64L37.338 7.5h2.64l-7.612 11.96zm4.507-1.774a1.814 1.814 0 113.628 0 1.814 1.814 0 01-3.628 0z" fill="#fff"/></svg>