<svg width="50" height="50" fill="none" xmlns="http://www.w3.org/2000/svg"><path opacity=".01" fill="#fff" stroke="#979797" d="M1 1h48v48H1z"/><path fill-rule="evenodd" clip-rule="evenodd" d="M7 44.96a2.025 2.025 0 114.05 0 2.025 2.025 0 01-4.05 0zm7.385-24.524H3.615C2.171 20.436 1 21.692 1 23.243V46.13c0 1.55 1.171 2.806 2.615 2.806h11.27c1.444 0 2.615-1.256 2.615-2.806V23.243c0-1.55-1.171-2.807-2.615-2.807" fill="#85ACAF"/><mask id="prefix__a" style="mask-type:alpha" maskUnits="userSpaceOnUse" x="4" y="1" width="45" height="33"><path fill-rule="evenodd" clip-rule="evenodd" d="M4.112 1H49v32.038H4.112V1z" fill="#fff"/></mask><g mask="url(#prefix__a)"><path fill-rule="evenodd" clip-rule="evenodd" d="M45.913 29.47V5.087C45.913 2.83 44.175 1 42.03 1H7.995C5.85 1 4.112 2.83 4.112 5.087v13.798h3.066V6.161c0-1.128.915-2.043 2.044-2.043h31.583c1.128 0 2.043.915 2.043 2.043V28.43H28.04v1.25h-6.08v-1.25H19v4.61h27.957A2.044 2.044 0 0049 30.993V29.47h-3.087z" fill="#85ACAF"/></g><path fill-rule="evenodd" clip-rule="evenodd" d="M17.5 10v2.838h5.829L9.838 26.328V20.5H7V31h10.5v-2.838h-5.483l13.145-13.145V20.5H28V10H17.5z" fill="#FF444F"/></svg>