<svg width="32" height="32" fill="none" xmlns="http://www.w3.org/2000/svg"><path d="M26 0a6 6 0 016 6v20a6 6 0 01-6 6H6a6 6 0 01-6-6V6a6 6 0 016-6h20z" fill="#33658A"/><path fill-rule="evenodd" clip-rule="evenodd" d="M27 22.5a4.5 4.5 0 10-9 0 4.5 4.5 0 009 0zm-2 0a2.5 2.5 0 10-5 0 2.5 2.5 0 005 0zM14 9.5a4.5 4.5 0 10-9 0 4.5 4.5 0 009 0zm-2 0a2.5 2.5 0 10-5 0 2.5 2.5 0 005 0z" fill="#fff"/><path d="M24.293 6.293a1 1 0 011.497 1.32l-.083.094-18 18a1 1 0 01-1.497-1.32l.083-.094 18-18z" fill="#fff"/></svg>