<svg width="48" height="48" fill="none" xmlns="http://www.w3.org/2000/svg"><path fill-rule="evenodd" clip-rule="evenodd" d="M8.998 0h30.004A8.998 8.998 0 0 1 48 8.998v30.004A8.998 8.998 0 0 1 39.002 48H8.998A8.998 8.998 0 0 1 0 39.002V8.998A8.998 8.998 0 0 1 8.998 0" fill="#33658A"/><path d="M10.878 24a.5.5 0 0 0-.459.301l-4.116 9.5a.5.5 0 0 0 .459.699h17.976a.5.5 0 0 0 .46-.699l-4.117-9.5a.5.5 0 0 0-.46-.301h-9.743Z" fill="#fff"/><path d="M27.378 24a.5.5 0 0 0-.459.301l-4.116 9.5a.5.5 0 0 0 .459.699h17.976a.5.5 0 0 0 .46-.699l-4.117-9.5a.5.5 0 0 0-.46-.301h-9.743Z" fill="#fff"/><path d="M19.128 13.5a.5.5 0 0 0-.459.301l-4.116 9.5a.5.5 0 0 0 .459.699h17.976a.5.5 0 0 0 .46-.699l-4.117-9.5a.5.5 0 0 0-.46-.301h-9.743Z" fill="#fff"/></svg>