<svg xmlns="http://www.w3.org/2000/svg" width="64" height="64"><g fill="#FF6444" fill-rule="nonzero"><circle cx="32" cy="32" r="32" fill-opacity=".08"/><path fill-opacity=".48" d="M20.369 32.3l-3.063 7a.5.5 0 00.458.7h13.471a.5.5 0 00.459-.7l-3.063-7a.501.501 0 00-.458-.3h-7.346a.5.5 0 00-.458.3zm15 0l-3.063 7a.5.5 0 00.458.7h13.471a.5.5 0 00.459-.7l-3.063-7a.501.501 0 00-.458-.3h-7.346a.5.5 0 00-.458.3z"/><path d="M27.369 24.3l-3.063 7a.5.5 0 00.458.7h13.471a.5.5 0 00.459-.7l-3.063-7a.501.501 0 00-.458-.3h-7.346a.5.5 0 00-.458.3z"/></g></svg>