<svg width="44" height="44" viewBox="0 0 44 44" fill="none" xmlns="http://www.w3.org/2000/svg">
<path fill-rule="evenodd" clip-rule="evenodd" d="M24.19 14.12C24.19 13.5677 24.6377 13.12 25.19 13.12C27.9106 13.12 30.13 15.3261 30.13 18.06C30.13 20.7923 27.9223 23 25.19 23C24.6377 23 24.19 22.5523 24.19 22C24.19 21.4477 24.6377 21 25.19 21C26.8177 21 28.13 19.6877 28.13 18.06C28.13 16.4339 26.8094 15.12 25.19 15.12C24.6377 15.12 24.19 14.6723 24.19 14.12Z" fill="#414652"/>
<path fill-rule="evenodd" clip-rule="evenodd" d="M25.5 22C25.5 21.4477 25.9477 21 26.5 21C29.2206 21 31.44 23.2061 31.44 25.94C31.44 28.6723 29.2323 30.88 26.5 30.88C25.9477 30.88 25.5 30.4323 25.5 29.88C25.5 29.3277 25.9477 28.88 26.5 28.88C28.1277 28.88 29.44 27.5677 29.44 25.94C29.44 24.3139 28.1194 23 26.5 23C25.9477 23 25.5 22.5523 25.5 22Z" fill="#414652"/>
<path fill-rule="evenodd" clip-rule="evenodd" d="M15 16.12C15 14.4677 16.3477 13.12 18 13.12H25.19C25.7423 13.12 26.19 13.5677 26.19 14.12C26.19 14.6723 25.7423 15.12 25.19 15.12H18C17.4523 15.12 17 15.5723 17 16.12V27.87C17 28.4177 17.4523 28.87 18 28.87H26.5C27.0523 28.87 27.5 29.3177 27.5 29.87C27.5 30.4223 27.0523 30.87 26.5 30.87H18C16.3477 30.87 15 29.5223 15 27.87V16.12Z" fill="#414652"/>
<path fill-rule="evenodd" clip-rule="evenodd" d="M15 22C15 21.4477 15.4477 21 16 21H26.5C27.0523 21 27.5 21.4477 27.5 22C27.5 22.5523 27.0523 23 26.5 23H16C15.4477 23 15 22.5523 15 22Z" fill="#414652"/>
<path fill-rule="evenodd" clip-rule="evenodd" d="M19.94 9C20.4923 9 20.94 9.44771 20.94 10V14.12C20.94 14.6723 20.4923 15.12 19.94 15.12C19.3877 15.12 18.94 14.6723 18.94 14.12V10C18.94 9.44771 19.3877 9 19.94 9Z" fill="#414652"/>
<path fill-rule="evenodd" clip-rule="evenodd" d="M25.19 9C25.7423 9 26.19 9.44771 26.19 10V14.12C26.19 14.6723 25.7423 15.12 25.19 15.12C24.6377 15.12 24.19 14.6723 24.19 14.12V10C24.19 9.44771 24.6377 9 25.19 9Z" fill="#414652"/>
<path fill-rule="evenodd" clip-rule="evenodd" d="M19.94 28.88C20.4923 28.88 20.94 29.3277 20.94 29.88V34C20.94 34.5523 20.4923 35 19.94 35C19.3877 35 18.94 34.5523 18.94 34V29.88C18.94 29.3277 19.3877 28.88 19.94 28.88Z" fill="#414652"/>
<path fill-rule="evenodd" clip-rule="evenodd" d="M25.19 28.88C25.7423 28.88 26.19 29.3277 26.19 29.88V34C26.19 34.5523 25.7423 35 25.19 35C24.6377 35 24.19 34.5523 24.19 34V29.88C24.19 29.3277 24.6377 28.88 25.19 28.88Z" fill="#414652"/>
<path fill-rule="evenodd" clip-rule="evenodd" d="M22 2C10.9543 2 2 10.9543 2 22C2 33.0457 10.9543 42 22 42C33.0457 42 42 33.0457 42 22C42 10.9543 33.0457 2 22 2ZM0 22C0 9.84974 9.84974 0 22 0C34.1503 0 44 9.84974 44 22C44 34.1503 34.1503 44 22 44C9.84974 44 0 34.1503 0 22Z" fill="#414652"/>
</svg>
