<svg width="50" height="50" fill="none" xmlns="http://www.w3.org/2000/svg"><path opacity=".01" fill="#fff" stroke="#979797" d="M1 1h48v48H1z"/><path fill-rule="evenodd" clip-rule="evenodd" d="M1 1v8.022l3.399 4.231c.38.472.954.747 1.56.747h38.082c.606 0 1.18-.275 1.56-.747L49 9.022V1H1Z" fill="#85ACAF"/><path fill-rule="evenodd" clip-rule="evenodd" d="M31.411 20.714h-1.27c-.295 1.776-1.495 3.072-2.975 3.072v-1.695c.64 0 1.351-.914 1.351-2.225 0-1.31-.71-2.224-1.35-2.224-.64 0-1.353.914-1.353 2.224 0 2.2-1.338 3.92-3.047 3.92-1.48 0-2.679-1.296-2.973-3.072H18.59V19.02h1.205c.294-1.776 1.493-3.072 2.973-3.072v1.695c-.638 0-1.35.914-1.35 2.224 0 1.311.712 2.225 1.35 2.225.64 0 1.352-.914 1.352-2.225 0-2.197 1.338-3.919 3.047-3.919 1.48 0 2.68 1.296 2.974 3.072h1.271v1.695ZM14 5.39v28a2 2 0 0 0 2 2h18a2 2 0 0 0 2-2v-28H14Z" fill="#FF444F" style="mix-blend-mode:multiply"/><path fill-rule="evenodd" clip-rule="evenodd" d="m26.496 37.55-2.803-4.214v-5.928c0-.664-.54-1.203-1.203-1.203h-1.545c-.665 0-1.203.539-1.203 1.203v4.81h-3.787a2 2 0 0 1-2-2V18.783l-2.47 2.026a2 2 0 0 0-.701 1.207L9.204 31.2c-.085.498.02 1.01.298 1.433l7.86 10.502c.06.11.09.232.09.356V49H27.81l-1-10.371a2 2 0 0 0-.315-1.078Z" fill="#85ACAF"/></svg>