<svg width="48" height="48" viewBox="0 0 48 48" fill="none" xmlns="http://www.w3.org/2000/svg">
<path d="M32.75 12.19V8C32.75 6.9 31.85 6 30.75 6H10C8.9 6 8 6.9 8 8V33.91C8 35.01 8.9 35.91 10 35.91H16.25M22.44 30.75H30.69M22.44 22.5H30.69M22.44 34.88C27.05 34.88 22.39 34.88 27 34.88M39 43.13H18.25C17.15 43.13 16.25 42.23 16.25 41.13V14.19C16.25 13.09 17.15 12.19 18.25 12.19H39C40.1 12.19 41 13.09 41 14.19V41.13C41 42.23 40.1 43.13 39 43.13Z" stroke="#414652" stroke-width="2" stroke-linecap="round" stroke-linejoin="round"/>
</svg>
