<svg xmlns="http://www.w3.org/2000/svg" width="32" height="32"><defs><linearGradient id="a" x1="0%" x2="100%" y1="100%" y2="0%"><stop offset="0%" stop-color="#FF444F"/><stop offset="100%" stop-color="#FF6444"/></linearGradient></defs><g fill="none" fill-rule="evenodd"><path d="M0 0h32v32H0z"/><path fill="url(#a)" d="M28 2a2 2 0 0 1 2 2v24a2 2 0 0 1-2 2H4a2 2 0 0 1-2-2V4a2 2 0 0 1 2-2h24zm0 1H4a1 1 0 0 0-.993.883L3 4v24a1 1 0 0 0 .883.993L4 29h24a1 1 0 0 0 .993-.883L29 28V4a1 1 0 0 0-.883-.993L28 3zM12.5 7a.5.5 0 0 1 .09.992L12.5 8H8.707L16 15.293 23.292 8H19.5l-.09-.008A.5.5 0 0 1 19.5 7h5l.09.008A.5.5 0 0 1 25 7.5v5l-.008.09a.5.5 0 0 1-.492.41l-.09-.008A.5.5 0 0 1 24 12.5V8.706L16.707 16 24 23.293V19.5a.5.5 0 0 1 .41-.492L24.5 19a.5.5 0 0 1 .492.41l.008.09v5a.5.5 0 0 1-.41.492L24.5 25h-5a.5.5 0 0 1-.09-.992L19.5 24h3.793L16 16.707 8.706 24H12.5l.09.008a.5.5 0 0 1-.09.992h-5l-.09-.008A.5.5 0 0 1 7 24.5v-5l.008-.09A.5.5 0 0 1 7.5 19l.09.008A.5.5 0 0 1 8 19.5l-.001 3.793L15.293 16 7.999 8.706 8 12.5a.5.5 0 0 1-.41.492L7.5 13a.5.5 0 0 1-.492-.41L7 12.5v-5a.5.5 0 0 1 .41-.492L7.5 7h5z"/></g></svg>