<svg width="48" height="48" viewBox="0 0 48 48" fill="none" xmlns="http://www.w3.org/2000/svg">
<path fill-rule="evenodd" clip-rule="evenodd" d="M25.4684 8.36986C25.5149 8.36324 25.562 8.35986 25.6095 8.35986C27.2618 8.35986 28.6095 9.70758 28.6095 11.3599V13.5399C28.6095 15.1921 27.2618 16.5399 25.6095 16.5399H14.1995V20.7199H19.4295C21.0818 20.7199 22.4295 22.0676 22.4295 23.7199V25.8999C22.4295 27.5521 21.0818 28.8999 19.4295 28.8999H14.1995V38.2499C14.1995 39.9021 12.8518 41.2499 11.1995 41.2499H9.01953C7.36725 41.2499 6.01953 39.9021 6.01953 38.2499V13.3699C6.01953 10.6076 8.25725 8.36986 11.0195 8.36986H25.4684ZM25.7041 10.3644C25.6695 10.368 25.6346 10.3699 25.5995 10.3699H11.0195C9.36182 10.3699 8.01953 11.7121 8.01953 13.3699V38.2499C8.01953 38.7976 8.47182 39.2499 9.01953 39.2499H11.1995C11.7472 39.2499 12.1995 38.7976 12.1995 38.2499V27.8999C12.1995 27.3476 12.6472 26.8999 13.1995 26.8999H19.4295C19.9772 26.8999 20.4295 26.4476 20.4295 25.8999V23.7199C20.4295 23.1721 19.9772 22.7199 19.4295 22.7199H13.1995C12.6472 22.7199 12.1995 22.2721 12.1995 21.7199V15.5399C12.1995 14.9876 12.6472 14.5399 13.1995 14.5399H25.6095C26.1572 14.5399 26.6095 14.0876 26.6095 13.5399V11.3599C26.6095 10.844 26.2083 10.4128 25.7041 10.3644Z" fill="#414652"/>
<path fill-rule="evenodd" clip-rule="evenodd" d="M24.6733 23.0532C23.622 21.0514 25.0851 18.6699 27.3295 18.6699H29.9495C31.0634 18.6699 32.0959 19.2983 32.6076 20.2902L32.6085 20.2919L33.1695 21.3714L33.7306 20.2919L33.7315 20.2901C34.2419 19.3008 35.2629 18.6699 36.3895 18.6699H39.0095C41.264 18.6699 42.7004 21.0588 41.6672 23.0504L37.8465 30.4L41.2044 36.8641L41.2058 36.8667C42.257 38.8684 40.7939 41.2499 38.5495 41.2499H35.9295C34.8155 41.2499 33.7829 40.6212 33.2712 39.6291L33.2706 39.6278L33.1695 39.4329L33.0685 39.6278L33.0679 39.6291C32.5575 40.6187 31.5363 41.2499 30.4095 41.2499H27.7895C25.535 41.2499 24.0986 38.8609 25.1319 36.8694L28.4926 30.4L24.6746 23.0556L24.6733 23.0532ZM27.3295 20.6699C26.5749 20.6699 26.0983 21.4664 26.4445 22.1241L26.4468 22.1286L30.5068 29.9386C30.6571 30.2277 30.6571 30.5718 30.5069 30.8609L26.9072 37.7904C26.5604 38.4588 27.044 39.2499 27.7895 39.2499H30.4095C30.7822 39.2499 31.1207 39.0416 31.2906 38.7119L31.2917 38.7097L32.2817 36.7997C32.4536 36.468 32.796 36.2599 33.1695 36.2599C33.5431 36.2599 33.8855 36.468 34.0574 36.7997L35.0485 38.7119C35.217 39.0391 35.564 39.2499 35.9295 39.2499H38.5495C39.3042 39.2499 39.7808 38.4533 39.4346 37.7956L39.4321 37.7909L35.8321 30.8609C35.682 30.5718 35.682 30.2277 35.8323 29.9386L39.8919 22.1294C40.2381 21.461 39.7548 20.6699 39.0095 20.6699H36.3895C36.0168 20.6699 35.6783 20.8781 35.5085 21.2078L35.5069 21.211L34.0569 24.001C33.8848 24.3321 33.5427 24.5399 33.1695 24.5399C32.7964 24.5399 32.4543 24.3321 32.2822 24.001L30.8306 21.2078C30.662 20.8807 30.3151 20.6699 29.9495 20.6699H27.3295Z" fill="#414652"/>
</svg>
