<svg width="48" height="48" fill="none" xmlns="http://www.w3.org/2000/svg"><mask id="a" style="mask-type:alpha" maskUnits="userSpaceOnUse" x="0" y="5" width="37" height="33"><path fill-rule="evenodd" clip-rule="evenodd" d="M0 5.705h36.98v31.618H0V5.705Z" fill="#fff"/></mask><g mask="url(#a)"><path fill-rule="evenodd" clip-rule="evenodd" d="M35.136 27.838h-.487V19.89c0-7.822-6.364-14.185-14.186-14.185h-3.945c-7.822 0-14.186 6.363-14.186 14.185v7.948h-.487A1.845 1.845 0 0 0 0 29.683v5.795c0 1.02.826 1.845 1.845 1.845h3.742v-9.485h-1.41V19.89c0-6.805 5.536-12.34 12.34-12.34h3.946c6.805 0 12.34 5.535 12.34 12.34v7.948h-1.41v9.485h3.743a1.845 1.845 0 0 0 1.845-1.845v-5.795a1.845 1.845 0 0 0-1.845-1.845Z" fill="#85ACAF"/></g><mask id="b" style="mask-type:alpha" maskUnits="userSpaceOnUse" x="7" y="21" width="23" height="27"><path fill-rule="evenodd" clip-rule="evenodd" d="M7.423 21.495h22.135V48H7.423V21.495Z" fill="#fff"/></mask><g mask="url(#b)"><path fill-rule="evenodd" clip-rule="evenodd" d="M27.708 27.838v-2.51c0-3.55-2.423-3.759-2.7-3.77l-2.656-.063v2.35l-.671.19c-4.66 1.326-10.019-.266-12.414-1.179l.001 4.982H7.424l-.001 5.84 5.641 5.896h6.554a.922.922 0 1 1 0 1.845h-6.947a.924.924 0 0 1-.667-.285l-4.581-4.788v2.747c0 .978.389 1.917 1.08 2.61l5.218 5.216A3.687 3.687 0 0 0 16.329 48h4.322a3.69 3.69 0 0 0 2.609-1.08l5.217-5.218a3.69 3.69 0 0 0 1.081-2.609V27.838h-1.85Z" fill="#85ACAF"/></g><path fill-rule="evenodd" clip-rule="evenodd" d="m19.275 9.144-1.702.009C10.986 9.19 5.666 14.542 5.666 21.13v4.079a2.62 2.62 0 0 0 1.756 2.469v-7.663l1.318.624c.064.03 6.42 2.93 11.766 1.788v-2.819l4.554.105c1.554.037 4.492 1.258 4.492 5.615v2.349h.006a2.625 2.625 0 0 0 1.756-2.472v-4.088c0-6.638-5.4-12.01-12.039-11.973Z" fill="#85ACAF"/><path fill-rule="evenodd" clip-rule="evenodd" d="M36 0c-6.627 0-12 5.372-12 12 0 6.627 5.373 12 12 12s12-5.373 12-12c0-6.628-5.373-12-12-12Z" fill="#FF444F" style="mix-blend-mode:multiply"/><path fill-rule="evenodd" clip-rule="evenodd" d="M34.3 17.003 30 12.702l1.802-1.802 2.499 2.498L40.198 7.5 42 9.302l-7.7 7.7Z" fill="#fff"/></svg>