<svg xmlns="http://www.w3.org/2000/svg" width="32" height="32"><g fill="none" fill-rule="evenodd"><path d="M0 0h32v32H0z"/><circle cx="14" cy="18" r="14" fill="#FF444F" fill-rule="nonzero"/><circle cx="14" cy="18" r="8" stroke="#FFF" stroke-opacity=".56" stroke-width="4"/><rect width="2" height="22" x="19.121" y=".879" fill="#333" fill-rule="nonzero" rx="1" transform="scale(-1 1) rotate(-45 0 60.456)"/><path fill="#333" fill-rule="nonzero" d="m28.363.924.164 1.63c.05.485.434.87.92.919l1.629.164a1.028 1.028 0 0 1 .623 1.749l-3.313 3.313a1.028 1.028 0 0 1-.83.296l-3.298-.334a1.029 1.029 0 0 1-.92-.919l-.333-3.298c-.03-.307.078-.612.296-.83L26.614.301a1.028 1.028 0 0 1 1.749.623z"/></g></svg>