<svg width="48" height="48" viewBox="0 0 48 48" fill="none" xmlns="http://www.w3.org/2000/svg">
<path fill-rule="evenodd" clip-rule="evenodd" d="M19.3003 13.7197C18.887 13.7197 18.5183 13.9723 18.3704 14.3469L18.3685 14.3516L14.5603 23.8573L14.5594 23.8597L33.4803 23.8597V23.8573L33.4798 23.8562L29.6743 14.3574L29.6733 14.355C29.5132 13.9651 29.1448 13.7197 28.7403 13.7197H19.3003ZM16.5111 13.61C16.9639 12.466 18.0744 11.7197 19.3003 11.7197H28.7403C29.9749 11.7197 31.0658 12.4733 31.5262 13.602L31.5285 13.6078L35.3407 23.1232C35.8574 24.4349 34.9003 25.8597 33.4803 25.8597H14.5603C13.1402 25.8597 12.1831 24.4349 12.6998 23.1232L12.702 23.1178L16.5101 13.6126L16.5111 13.61Z" fill="#414652"/>
<path fill-rule="evenodd" clip-rule="evenodd" d="M8.66025 25.8597C8.24702 25.8597 7.87828 26.1123 7.73041 26.4869L7.72854 26.4916L3.92025 35.9973L3.91942 35.9997L22.8403 35.9997V35.9973L22.8398 35.9963L19.0343 26.4974L19.0333 26.495C18.8732 26.1051 18.5048 25.8597 18.1003 25.8597H8.66025ZM5.87113 25.75C6.32391 24.606 7.43441 23.8597 8.66025 23.8597H18.1003C19.3349 23.8597 20.4258 24.6133 20.8862 25.742L20.8885 25.7478L24.7007 35.2632C25.2174 36.5749 24.2603 37.9997 22.8403 37.9997H3.92025C2.50021 37.9997 1.54313 36.5749 2.05985 35.2632L2.06196 35.2578L5.8701 25.7526L5.87113 25.75Z" fill="#414652"/>
<path fill-rule="evenodd" clip-rule="evenodd" d="M29.9403 25.8597C29.527 25.8597 29.1583 26.1123 29.0104 26.4869L29.0085 26.4916L25.2002 35.9973L25.1994 35.9997L44.1203 35.9997L44.1202 35.9973L44.1198 35.9963L40.3143 26.4974L40.3133 26.495C40.1532 26.1051 39.7848 25.8597 39.3803 25.8597H29.9403ZM27.1511 25.75C27.6039 24.606 28.7144 23.8597 29.9403 23.8597H39.3803C40.6149 23.8597 41.7058 24.6133 42.1662 25.742L42.1685 25.7478L45.9807 35.2632C46.4974 36.5749 45.5403 37.9997 44.1203 37.9997H25.2003C23.7802 37.9997 22.8231 36.5749 23.3398 35.2632L23.342 35.2578L27.1501 25.7526L27.1511 25.75Z" fill="#414652"/>
</svg>
