<svg xmlns="http://www.w3.org/2000/svg" width="32" height="32"><defs><linearGradient id="a" x1="0%" x2="100%" y1="80.518%" y2="19.482%"><stop offset="0%" stop-color="#FF444F"/><stop offset="100%" stop-color="#FF6444"/></linearGradient></defs><g fill="none" fill-rule="evenodd"><path d="M0 0h32v32H0z"/><path fill="url(#a)" d="M16 6c6.064 0 11 4.913 11 11s-4.936 11-11 11S5 23.087 5 17 9.936 6 16 6zm0 1C10.477 7 6 11.477 6 17s4.477 10 10 10 10-4.477 10-10S21.523 7 16 7zm12.003 15c.642-1.539.997-3.228.997-5 0-7.18-5.82-13-13-13S3 9.82 3 17c0 2.19.542 4.254 1.499 6.065a2 2 0 1 1-1.105.028c-.174-.354-.332-.72-.474-1.092L2 22a2.001 2.001 0 0 1-1.995-1.85L0 20v-4c0-1.054.816-1.918 1.85-1.995L2 14h.322C3.695 7.71 9.298 3 16 3c6.702 0 12.305 4.71 13.678 11H30l.15.005A2 2 0 0 1 32 16v4l-.005.15A2.001 2.001 0 0 1 30 22h-1.997zM16 24a.5.5 0 0 1 .5.5v1a.5.5 0 0 1-1 0v-1a.5.5 0 0 1 .5-.5zM4 24a1 1 0 1 0 0 2 1 1 0 0 0 0-2zm17.657-2.05.707.707a.5.5 0 0 1-.707.707l-.707-.707a.499.499 0 0 1 0-.707.499.499 0 0 1 .707 0zm-10.607 0a.499.499 0 0 1 0 .707l-.707.707a.5.5 0 0 1-.707-.707l.707-.707a.499.499 0 0 1 .707 0zM30 17c0 1.39-.203 2.733-.58 4H30l.117-.007A1 1 0 0 0 31 20v-4l-.007-.117A1 1 0 0 0 30 15h-.142c.094.653.142 1.321.142 2zM2.142 15H2a1 1 0 0 0-.993.883L1 16v4a1 1 0 0 0 .883.993L2 21l.58.001a13.987 13.987 0 0 1-.577-3.688L2 17c0-.679.048-1.347.142-2zM8.5 16.5a.5.5 0 0 1 0 1h-1a.5.5 0 0 1 0-1h1zm16 0a.5.5 0 0 1 0 1h-1a.5.5 0 0 1 0-1h1zm-14.157-5.864.707.707a.499.499 0 0 1 0 .707.499.499 0 0 1-.707 0l-.707-.707a.5.5 0 0 1 .707-.707zm12.021 0a.5.5 0 0 1 0 .707l-.707.707a.499.499 0 0 1-.707 0 .499.499 0 0 1 0-.707l.707-.707a.5.5 0 0 1 .707 0zM16 8a.5.5 0 0 1 .5.5v1a.5.5 0 0 1-1 0v-1A.5.5 0 0 1 16 8z"/></g></svg>