<svg xmlns="http://www.w3.org/2000/svg" width="32" height="32"><defs><linearGradient id="a" x1="0%" x2="100%" y1="100%" y2="0%"><stop offset="0%" stop-color="#FF444F"/><stop offset="100%" stop-color="#FF6444"/></linearGradient></defs><g fill="none" fill-rule="evenodd"><path d="M0 0h32v32H0z"/><path fill="url(#a)" d="M29.5 14a.5.5 0 0 1 .5.5v6a.5.5 0 0 1-.854.354L26.5 18.207l-8.646 8.647a.501.501 0 0 1-.638.057l-.07-.057-4.646-4.647-7.646 7.647a.501.501 0 0 1-.638.057l-.07-.057a.501.501 0 0 1-.057-.638l.057-.07 8-8a.501.501 0 0 1 .638-.057l.07.057 4.646 4.647 8.292-8.294-2.646-2.645a.5.5 0 0 1 .268-.847L23.5 14zM12 2c5.523 0 10 4.477 10 10a9.999 9.999 0 0 1-5.216 8.784l-.74-.741a9 9 0 1 0-8.086 0l-.741.741A9.998 9.998 0 0 1 2 12C2 6.477 6.477 2 12 2zm17 13h-4.293l2.14 2.14.007.006.004.006L29 19.293V15zM12 7a.5.5 0 0 1 .5.5l.001.51c.499.031.94.138 1.323.32.464.22.86.538 1.188.954l-.948.84a2.466 2.466 0 0 0-.792-.672 2.152 2.152 0 0 0-.77-.23l-.002 2.401.172.037c.756.144 1.329.379 1.719.704l.123.112c.388.384.582.912.582 1.584 0 .392-.068.748-.204 1.068a2.25 2.25 0 0 1-.594.822c-.26.228-.578.404-.954.528-.257.085-.537.14-.842.167l-.002.855a.5.5 0 0 1-1 0v-.865a3.491 3.491 0 0 1-1.234-.355A3.997 3.997 0 0 1 9 15.248l.936-.876c.296.36.622.632.978.816.182.094.378.164.586.21l-.001-2.65c-.716-.158-1.261-.412-1.635-.764-.408-.384-.612-.912-.612-1.584 0-.368.07-.702.21-1.002.14-.3.336-.552.588-.756a2.73 2.73 0 0 1 .918-.474c.168-.052.345-.092.531-.12L11.5 7.5A.5.5 0 0 1 12 7zm.5 5.931v2.512c.357-.045.638-.158.844-.339.272-.24.408-.564.408-.972 0-.328-.096-.588-.288-.78-.192-.192-.532-.336-1.02-.432l.056.011zm-1-3.667c-.2.048-.369.123-.508.224-.264.192-.396.472-.396.84 0 .352.108.614.324.786.141.113.334.207.579.284z"/></g></svg>