<svg width="50" height="50" fill="none" xmlns="http://www.w3.org/2000/svg"><path opacity=".01" fill="#fff" stroke="#979797" d="M1 1h48v48H1z"/><path fill-rule="evenodd" clip-rule="evenodd" d="M22.674 36.331V39h-3.33v-2.659c-2.454-.457-3.996-1.972-4.106-4.17h2.888c.142 1.154 1.305 1.897 2.988 1.897 1.551 0 2.651-.753 2.651-1.825 0-.912-.712-1.432-2.464-1.824l-1.856-.398c-2.601-.543-3.878-1.897-3.878-4.073s1.451-3.745 3.759-4.261V19h3.33v2.691c2.254.502 3.754 2.04 3.828 4.106h-2.788c-.141-1.127-1.19-1.879-2.632-1.879-1.442 0-2.482.693-2.482 1.779 0 .88.68 1.368 2.355 1.742l1.719.366c2.87.602 4.106 1.825 4.106 4.055 0 2.386-1.532 3.983-4.088 4.471ZM1 29c0 11.046 8.954 20 20 20s20-8.954 20-20S32.046 9 21 9 1 17.954 1 29Z" fill="#85ACAF"/><path fill-rule="evenodd" clip-rule="evenodd" d="M37 21a7.948 7.948 0 0 1-4.056-1.116l10.94-10.94A7.945 7.945 0 0 1 45 13c0 4.411-3.589 8-8 8Zm0-16c1.481 0 2.864.412 4.056 1.116l-10.94 10.94A7.945 7.945 0 0 1 29 13c0-4.411 3.589-8 8-8Zm0-4c-6.627 0-12 5.373-12 12s5.373 12 12 12 12-5.373 12-12S43.627 1 37 1Z" fill="#FF444F" style="mix-blend-mode:multiply"/></svg>