<svg xmlns="http://www.w3.org/2000/svg" width="32" height="32"><path fill="#FF444F" d="M31 0a1 1 0 0 1 .984.82L32 1v30a1 1 0 0 1-.82.984L31 32H1a1 1 0 0 1-.18-1.984L1 30h29V1a1 1 0 0 1 .82-.984L31 0zm-6 8a1 1 0 0 1 .984.82L26 9v7a1 1 0 0 1-1.984.18L24 16v-4.663l-8.336 7.41c-.29.26-.7.322-1.05.176l-.169-.09-5.411-3.609L1.6 20.8a1 1 0 0 1-1.28-.066L.2 20.6a1.003 1.003 0 0 1 .066-1.28L.4 19.2l8-6a1 1 0 0 1 .998-.118l.157.086 5.357 3.57L22.493 10H18a1 1 0 0 1-.984-.82L17 9a1 1 0 0 1 .82-.984L18 8h7z"/></svg>