<svg width="32" height="32" fill="none" xmlns="http://www.w3.org/2000/svg"><path fill-rule="evenodd" clip-rule="evenodd" d="M26 0a6 6 0 016 6v20a6 6 0 01-6 6H6a6 6 0 01-6-6V6a6 6 0 016-6h20z" fill="#33658A"/><path d="M11 15a1 1 0 01.993.883L12 16v6.585l2.293-2.292a1 1 0 011.32-.083l.094.083a1 1 0 01.083 1.32l-.083.094-4 4a.997.997 0 01-.09.08l.09-.08a1.012 1.012 0 01-.559.282A.952.952 0 0111 26h-.032l-.054-.004L11 26a1.017 1.017 0 01-.52-.146 1.045 1.045 0 01-.187-.147l-4-4a1 1 0 011.32-1.497l.094.083L10 22.585V16a1 1 0 011-1zM21 17a1 1 0 00.993-.883L22 16V9.415l2.293 2.292a1 1 0 001.32.083l.094-.083a1 1 0 00.083-1.32l-.083-.094-4-4a1.012 1.012 0 00-.09-.08l.09.08a1.011 1.011 0 00-.559-.282A.945.945 0 0021 6h-.032a.998.998 0 00-.054.004L21 6a1.009 1.009 0 00-.613.21 1.037 1.037 0 00-.094.083l-4 4a1 1 0 001.32 1.497l.094-.083L20 9.415V16a1 1 0 001 1z" fill="#fff"/></svg>