<svg width="50" height="50" fill="none" xmlns="http://www.w3.org/2000/svg"><path opacity=".01" fill="#fff" stroke="#979797" d="M1 1h48v48H1z"/><path fill-rule="evenodd" clip-rule="evenodd" d="m29.846 41.422 1.492 4.494 1.492-4.494h-2.984ZM17.719 38.577h3.331l.016-.048 1.102-3.322H3.177v9.959H1v3.833h10.358l.23-.693 2.316-6.976a4.013 4.013 0 0 1 3.815-2.753ZM27.197 28.8h8.28c.118 0 .232.018.346.027V18.709H3.176v14.583h19.628l.578-1.739a4.013 4.013 0 0 1 3.815-2.753ZM46.683 42.024a1.82 1.82 0 0 0-1.727-1.247h-8.281a1.82 1.82 0 0 0-1.727 1.247L32.63 49h16.368l-2.316-6.976Z" fill="#85ACAF"/><mask id="a" style="mask-type:alpha" maskUnits="userSpaceOnUse" x="13" y="40" width="18" height="9"><path fill-rule="evenodd" clip-rule="evenodd" d="M13.676 40.777h16.367V49H13.676v-8.223Z" fill="#fff"/></mask><g mask="url(#a)"><path fill-rule="evenodd" clip-rule="evenodd" d="M26 40.777h-8.281a1.82 1.82 0 0 0-1.728 1.247L13.676 49h16.367l-2.315-6.976A1.821 1.821 0 0 0 26 40.777Z" fill="#85ACAF"/></g><path fill-rule="evenodd" clip-rule="evenodd" d="M37.204 32.247A1.819 1.819 0 0 0 35.477 31h-8.28a1.82 1.82 0 0 0-1.728 1.247l-2.317 6.976H39.52l-2.316-6.976Z" fill="#85ACAF"/><mask id="b" style="mask-type:alpha" maskUnits="userSpaceOnUse" x="1" y="1" width="37" height="16"><path fill-rule="evenodd" clip-rule="evenodd" d="M1 1h37v15.792H1V1Z" fill="#fff"/></mask><g mask="url(#b)"><path fill-rule="evenodd" clip-rule="evenodd" d="M3.177 16.792h32.646V6.833H38V3H15.405V1H8.591v2H1v3.833h2.177v9.959Z" fill="#85ACAF"/></g><path fill-rule="evenodd" clip-rule="evenodd" d="M37.174 8.777C36.99 8.578 36.093 7.645 35.478 7a1274 1274 0 0 1-1.63 1.777c-2.124 2.27-6.506 6.986-6.506 11.065 0 4.803 3.356 8.158 8.16 8.158 4.801 0 8.156-3.355 8.156-8.158 0-4.08-4.381-8.795-6.484-11.065Z" fill="#FF444F" style="mix-blend-mode:multiply"/></svg>