<svg width="50" height="50" viewBox="0 0 50 50" fill="none" xmlns="http://www.w3.org/2000/svg">
<rect opacity="0.01" x="1" y="1" width="48" height="48" fill="white" stroke="#979797"/>
<mask id="mask0_957_146927" style="mask-type:alpha" maskUnits="userSpaceOnUse" x="1" y="1" width="48" height="48">
<path fill-rule="evenodd" clip-rule="evenodd" d="M1 1H48.9997V48.9997H1V1Z" fill="white"/>
</mask>
<g mask="url(#mask0_957_146927)">
<path fill-rule="evenodd" clip-rule="evenodd" d="M26.7229 46.1797L26.8539 41.9127L28.6309 41.9677L28.7069 39.4787L31.3729 39.5597L31.4929 35.6487L33.3519 33.0357L35.1569 32.2017L37.9789 32.9997L39.6919 35.1867L43.0529 35.8237C43.0529 35.8237 38.5029 45.0687 26.7229 46.1797ZM19.8419 38.1427L18.4199 37.8267L17.1579 35.6167L18.5779 33.5637L19.8049 32.8877L20.7889 33.5637L21.1049 35.4587L21.2629 37.0367L19.8419 38.1427ZM13.7259 34.3127L14.8149 35.8117L13.4529 37.6507L9.5019 36.5607L4.1219 31.0437C3.7129 28.4217 3.5639 25.9857 3.5639 25.9857C3.5529 25.7037 3.5449 25.4207 3.5449 25.1367C3.5449 20.6907 4.8449 16.4637 7.3179 12.8237L8.4769 11.1397L10.6169 12.4247L11.4059 13.6877L13.6169 15.1097L15.0369 16.0567L15.5109 17.1617V18.7407C15.5109 19.8467 16.1429 24.8987 16.1429 24.8987L14.5639 27.1097L12.5109 28.5307C12.5109 28.5307 12.0369 29.3207 12.0369 30.1097V30.3717V30.4147V30.8997V32.9517L13.7259 34.3127ZM45.942 24.9998L45.9 26.0748C45.878 26.6328 45.346 27.0278 44.806 26.8858L43.262 26.4808L42.362 24.9998H25V0.999756C17.316 0.999756 10.48 4.61676 6.087 10.2348C2.903 14.3078 1 19.4298 1 24.9998C1 25.3698 1.012 25.7378 1.029 26.1038C1.606 38.8458 12.116 48.9998 25 48.9998C38.255 48.9998 49 38.2548 49 24.9998H45.942Z" fill="#85ACAF"/>
</g>
<g style="mix-blend-mode:multiply">
<path fill-rule="evenodd" clip-rule="evenodd" d="M44.2381 4.54976H36.0221L31.6611 12.0608H20.1271C19.7281 12.9108 18.8711 13.5038 17.8691 13.5038C16.4891 13.5038 15.3691 12.3848 15.3691 11.0038C15.3691 9.62276 16.4891 8.50376 17.8691 8.50376C18.9161 8.50376 19.8091 9.14876 20.1821 10.0608H30.5081L34.8701 2.54976H44.1891C44.5631 1.64076 45.4561 0.999756 46.5001 0.999756C47.8801 0.999756 49.0001 2.11876 49.0001 3.49976C49.0001 4.88076 47.8801 5.99976 46.5001 5.99976C45.4961 5.99976 44.6351 5.40376 44.2381 4.54976ZM42.5256 19.737H37.9156V6.61496H42.5256V19.737ZM31.4426 19.737H36.0516V13.88H31.4426V19.737ZM29.5796 19.738H25.0306V14.97H29.5796V19.738ZM48.9996 23.098H25.0306V21.168H48.9996V23.098ZM44.3896 19.737H48.9996V9.06696H44.3896V19.737Z" fill="#FF444F"/>
</g>
</svg>
