<svg width="48" height="48" viewBox="0 0 48 48" fill="none" xmlns="http://www.w3.org/2000/svg">
<path fill-rule="evenodd" clip-rule="evenodd" d="M31.804 29.7735C31.263 29.7735 30.762 29.6155 30.329 29.3555L25.148 33.7105C25.231 33.9795 25.289 34.2595 25.289 34.5565C25.289 36.1515 23.996 37.4435 22.403 37.4435C20.808 37.4435 19.516 36.1515 19.516 34.5565C19.516 34.3375 19.545 34.1275 19.591 33.9215L15.699 30.9195L10.785 35.8605C10.97 36.2415 11.082 36.6625 11.082 37.1135C11.082 38.7085 9.79 40.0005 8.197 40.0005C6.602 40.0005 5.31 38.7085 5.31 37.1135C5.31 35.5195 6.602 34.2265 8.197 34.2265C8.675 34.2265 9.119 34.3545 9.517 34.5605L15.539 28.5025L20.545 32.3645C21.048 31.9375 21.691 31.6695 22.403 31.6695C23.035 31.6695 23.616 31.8795 24.091 32.2255L29.137 27.9845C28.997 27.6465 28.918 27.2755 28.918 26.8865C28.918 25.2925 30.21 24.0005 31.804 24.0005C33.399 24.0005 34.691 25.2925 34.691 26.8865C34.691 28.4805 33.399 29.7735 31.804 29.7735ZM0 22.0005V42.0005C0 45.3135 2.687 48.0005 6 48.0005H34C37.314 48.0005 40 45.3135 40 42.0005V22.0005C40 18.6865 37.314 16.0005 34 16.0005H6C2.687 16.0005 0 18.6865 0 22.0005Z" fill="#85ACAF"/>
<g style="mix-blend-mode:multiply">
<path fill-rule="evenodd" clip-rule="evenodd" d="M45.753 12.624H44.916C44.572 12.624 44.293 12.345 44.293 12C44.293 11.655 44.572 11.376 44.916 11.376H45.753C46.098 11.376 46.377 11.655 46.377 12C46.377 12.345 46.098 12.624 45.753 12.624ZM43.338 19.337V19.338C43.094 19.581 42.699 19.581 42.455 19.338L41.864 18.746C41.62 18.502 41.62 18.107 41.863 17.864L41.864 17.863C42.107 17.62 42.503 17.62 42.746 17.863L43.338 18.455C43.581 18.699 43.581 19.094 43.338 19.337ZM36.624 21.753C36.624 22.098 36.345 22.377 36 22.377C35.655 22.377 35.376 22.098 35.376 21.753V20.916C35.376 20.572 35.655 20.293 36 20.293C36.345 20.293 36.624 20.572 36.624 20.916V21.753ZM30.137 18.746L29.545 19.338C29.302 19.581 28.906 19.581 28.663 19.338V19.337C28.419 19.094 28.419 18.699 28.663 18.455L29.255 17.863C29.498 17.62 29.893 17.62 30.137 17.863V17.864C30.38 18.107 30.38 18.502 30.137 18.746ZM28.663 4.663V4.662C28.906 4.419 29.302 4.419 29.545 4.662L30.137 5.254C30.38 5.498 30.38 5.893 30.137 6.136V6.137C29.893 6.38 29.498 6.38 29.255 6.137L28.663 5.545C28.419 5.302 28.419 4.906 28.663 4.663ZM27.708 12C27.708 12.345 27.429 12.624 27.084 12.624H26.247C25.902 12.624 25.624 12.345 25.624 12C25.624 11.655 25.902 11.376 26.247 11.376H27.084C27.429 11.376 27.708 11.655 27.708 12ZM35.376 2.247C35.376 1.902 35.655 1.623 36 1.623C36.345 1.623 36.624 1.902 36.624 2.247V3.084C36.624 3.429 36.345 3.708 36 3.708C35.655 3.708 35.376 3.429 35.376 3.084V2.247ZM36 0C29.383 0 24 5.383 24 12C24 18.617 29.383 24 36 24C42.617 24 48 18.617 48 12C48 5.383 42.617 0 36 0Z" fill="#FF444F"/>
</g>
<path fill-rule="evenodd" clip-rule="evenodd" d="M42.2307 5.16406L36.1587 11.2371L33.8647 8.94406L32.3877 10.4221L36.1587 14.1921L43.7087 6.64206L42.2307 5.16406Z" fill="white"/>
</svg>
