<svg xmlns="http://www.w3.org/2000/svg" width="32" height="32"><defs><linearGradient id="a" x1="0%" x2="100%" y1="88.281%" y2="11.719%"><stop offset="0%" stop-color="#FF444F"/><stop offset="100%" stop-color="#FF6444"/></linearGradient></defs><g fill="none" fill-rule="evenodd"><path d="M0 0h32v32H0z"/><path fill="url(#a)" d="M29 2a1 1 0 0 1 .993.883L30 3v17h1a1 1 0 0 1 .993.883L32 21v1a2.001 2.001 0 0 1-1.85 1.995L30 24H11v5a1 1 0 0 1-.883.993L10 30H1a1 1 0 0 1-.993-.883L0 29V13a1 1 0 0 1 .883-.993L1 12h1V3a1 1 0 0 1 .883-.993L3 2h26zM9.292 13H1v16h9V13.705L6.706 17H8.5a.5.5 0 0 1 .492.41L9 17.5a.5.5 0 0 1-.41.492L8.5 18h-3a.5.5 0 0 1-.492-.41L5 17.5v-3a.5.5 0 0 1 .992-.09L6 14.5v1.792L9.292 13zM5.5 26a1 1 0 1 1 0 2 1 1 0 0 1 0-2zM31 21H11v2h19a1 1 0 0 0 .993-.883L31 22v-1zM27 5H5v7h5c.09 0 .176.012.259.034L13.292 9H11.5a.5.5 0 0 1-.492-.41L11 8.5a.5.5 0 0 1 .41-.492L11.5 8h3a.5.5 0 0 1 .492.41L15 8.5v3a.5.5 0 0 1-.992.09L14 11.5V9.706l-3.034 3.035a.847.847 0 0 1 .027.142L11 13v7h16V5zm2-2H3v9h1V5a1 1 0 0 1 .883-.993L5 4h22a1 1 0 0 1 .993.883L28 5v15h1V3z"/></g></svg>