<svg width="48" height="48" viewBox="0 0 48 48" fill="none" xmlns="http://www.w3.org/2000/svg">
<path fill-rule="evenodd" clip-rule="evenodd" d="M6 43.9611C6 42.8419 6.9072 41.9361 8.025 41.9361C9.1428 41.9361 10.05 42.8419 10.05 43.9611C10.05 45.0802 9.1428 45.9861 8.025 45.9861C6.9072 45.9861 6 45.0802 6 43.9611ZM13.385 19.4361H2.615C1.171 19.4361 0 20.6924 0 22.2428V45.1305C0 46.6798 1.171 47.9361 2.615 47.9361H13.885C15.329 47.9361 16.5 46.6798 16.5 45.1305V22.2428C16.5 20.6924 15.329 19.4361 13.885 19.4361" fill="#85ACAF"/>
<mask id="mask0_10362_45869" style="mask-type:alpha" maskUnits="userSpaceOnUse" x="3" y="0" width="45" height="33">
<path fill-rule="evenodd" clip-rule="evenodd" d="M3.1123 0.000183105H48.0002V32.0382H3.1123V0.000183105Z" fill="white"/>
</mask>
<g mask="url(#mask0_10362_45869)">
<path fill-rule="evenodd" clip-rule="evenodd" d="M44.9133 28.4702V4.08718C44.9133 1.82918 43.1753 0.000183105 41.0303 0.000183105H6.9953C4.8503 0.000183105 3.1123 1.82918 3.1123 4.08718V17.8852H6.1783V5.16118C6.1783 4.03318 7.0933 3.11818 8.2223 3.11818H39.8053C40.9333 3.11818 41.8483 4.03318 41.8483 5.16118V27.4292H27.0403V28.6792H20.9603V27.4292H18.0003V32.0382H43.9133H45.9573C47.0853 32.0382 48.0003 31.1232 48.0003 29.9942V28.4702H44.9133Z" fill="#85ACAF"/>
</g>
<g style="mix-blend-mode:multiply">
<path fill-rule="evenodd" clip-rule="evenodd" d="M16.5 9V11.8378H22.3289L8.83784 25.3289V19.5H6V30H16.5V27.1622H11.0173L24.1622 14.0173V19.5H27V9H16.5Z" fill="#FF444F"/>
</g>
</svg>
