<svg width="50" height="50" fill="none" xmlns="http://www.w3.org/2000/svg"><path opacity=".01" fill="#fff" stroke="#979797" d="M1 1h48v48H1z"/><path fill-rule="evenodd" clip-rule="evenodd" d="M45.49 37.47V13.087C45.49 10.83 43.754 9 41.61 9H8.644C6.5 9 4.762 10.83 4.762 13.087v7.514H15a4 4 0 0 1 4 4v10.371h23.63v1.458H28.04v1.25h-6.08v-1.25H19v4.608h27.957A2.043 2.043 0 0 0 49 38.995V37.47h-3.51Z" fill="#85ACAF"/><path fill-rule="evenodd" clip-rule="evenodd" d="M9 46.102a1.5 1.5 0 1 1 .001-3 1.5 1.5 0 0 1-.001 3Zm5.385-23.664H3.615A2.615 2.615 0 0 0 1 25.052v21.334A2.615 2.615 0 0 0 3.615 49h10.77A2.615 2.615 0 0 0 17 46.387V25.052a2.615 2.615 0 0 0-2.615-2.614Z" fill="#85ACAF"/><path fill-rule="evenodd" clip-rule="evenodd" d="M25 5v16a4 4 0 0 0 4 4h16a4 4 0 0 0 4-4V5a4 4 0 0 0-4-4H29a4 4 0 0 0-4 4Z" fill="#FF444F" style="mix-blend-mode:multiply"/><path fill-rule="evenodd" clip-rule="evenodd" d="M30.53 18.139a1.097 1.097 0 1 0 0 2.193 1.097 1.097 0 0 0 0-2.193ZM30.53 7.943c-.605 0-1.096.491-1.096 1.097v5.556a1.097 1.097 0 1 0 2.193 0V9.04c0-.606-.491-1.097-1.097-1.097ZM34.844 18.139a1.098 1.098 0 1 0 0 2.195 1.098 1.098 0 0 0 0-2.195ZM34.844 5.115c-.606 0-1.098.491-1.098 1.097v8.383a1.098 1.098 0 0 0 2.194 0V6.212c0-.606-.49-1.097-1.096-1.097ZM39.157 18.139a1.097 1.097 0 1 0 0 2.193 1.097 1.097 0 0 0 0-2.193ZM39.157 10.685c-.605 0-1.096.492-1.096 1.098v2.814a1.097 1.097 0 1 0 2.194 0v-2.814c0-.606-.492-1.098-1.099-1.098ZM43.47 18.139a1.097 1.097 0 1 0 0 2.193 1.097 1.097 0 0 0 0-2.193ZM43.47 8.455c-.606 0-1.097.491-1.097 1.097v5.044a1.097 1.097 0 1 0 2.193 0V9.552c0-.606-.491-1.097-1.096-1.097Z" fill="#fff"/></svg>