<svg width="50" height="50" viewBox="0 0 50 50" fill="none" xmlns="http://www.w3.org/2000/svg">
<rect opacity="0.01" x="1" y="1" width="48" height="48" fill="white" stroke="#979797"/>
<path fill-rule="evenodd" clip-rule="evenodd" d="M45.4907 37.47V13.087C45.4907 10.83 43.7527 9 41.6087 9H8.64372C6.49972 9 4.76172 10.83 4.76172 13.087V20.601H15.0007C17.2097 20.601 19.0007 22.392 19.0007 24.601V34.972H42.6307V36.43H28.0407V37.68H21.9607V36.43H19.0007V41.038H44.9137H46.9577C48.0857 41.038 49.0007 40.123 49.0007 38.995V37.47H45.4907Z" fill="#85ACAF"/>
<path fill-rule="evenodd" clip-rule="evenodd" d="M9 46.1025C8.172 46.1025 7.5 45.4305 7.5 44.6025C7.5 43.7735 8.172 43.1025 9 43.1025C9.828 43.1025 10.5 43.7735 10.5 44.6025C10.5 45.4305 9.828 46.1025 9 46.1025ZM14.385 22.4375H3.615C2.171 22.4375 1 23.6085 1 25.0525V46.3855C1 47.8305 2.171 49.0005 3.615 49.0005H14.385C15.829 49.0005 17 47.8305 17 46.3855V25.0525C17 23.6085 15.829 22.4375 14.385 22.4375Z" fill="#85ACAF"/>
<g style="mix-blend-mode:multiply">
<path fill-rule="evenodd" clip-rule="evenodd" d="M25 5V21C25 23.209 26.791 25 29 25H45C47.209 25 49 23.209 49 21V5C49 2.791 47.209 1 45 1H29C26.791 1 25 2.791 25 5Z" fill="#FF444F"/>
</g>
<path fill-rule="evenodd" clip-rule="evenodd" d="M30.5296 18.1387C29.9246 18.1387 29.4336 18.6297 29.4336 19.2357C29.4336 19.8407 29.9246 20.3317 30.5296 20.3317C31.1356 20.3317 31.6266 19.8407 31.6266 19.2357C31.6266 18.6297 31.1356 18.1387 30.5296 18.1387Z" fill="white"/>
<path fill-rule="evenodd" clip-rule="evenodd" d="M30.5296 7.94336C29.9246 7.94336 29.4336 8.43436 29.4336 9.04036V14.5964C29.4336 15.2024 29.9246 15.6934 30.5296 15.6934C31.1356 15.6934 31.6266 15.2024 31.6266 14.5964V9.04036C31.6266 8.43436 31.1356 7.94336 30.5296 7.94336Z" fill="white"/>
<path fill-rule="evenodd" clip-rule="evenodd" d="M34.8441 18.1387C34.2381 18.1387 33.7461 18.6297 33.7461 19.2357C33.7461 19.8407 34.2381 20.3317 34.8441 20.3317C35.4491 20.3317 35.9401 19.8407 35.9401 19.2357C35.9401 18.6297 35.4491 18.1387 34.8441 18.1387Z" fill="white"/>
<path fill-rule="evenodd" clip-rule="evenodd" d="M34.8441 5.11523C34.2381 5.11523 33.7461 5.60623 33.7461 6.21223V14.5952C33.7461 15.2012 34.2381 15.6922 34.8441 15.6922C35.4491 15.6922 35.9401 15.2012 35.9401 14.5952V6.21223C35.9401 5.60623 35.4491 5.11523 34.8441 5.11523Z" fill="white"/>
<path fill-rule="evenodd" clip-rule="evenodd" d="M39.1565 18.1387C38.5515 18.1387 38.0605 18.6297 38.0605 19.2357C38.0605 19.8407 38.5515 20.3317 39.1565 20.3317C39.7625 20.3317 40.2545 19.8407 40.2545 19.2357C40.2545 18.6297 39.7625 18.1387 39.1565 18.1387Z" fill="white"/>
<path fill-rule="evenodd" clip-rule="evenodd" d="M39.1565 10.6855C38.5515 10.6855 38.0605 11.1765 38.0605 11.7825V14.5965C38.0605 15.2025 38.5515 15.6935 39.1565 15.6935C39.7625 15.6935 40.2545 15.2025 40.2545 14.5965V11.7825C40.2545 11.1765 39.7625 10.6855 39.1565 10.6855Z" fill="white"/>
<path fill-rule="evenodd" clip-rule="evenodd" d="M43.47 18.1387C42.864 18.1387 42.373 18.6297 42.373 19.2357C42.373 19.8407 42.864 20.3317 43.47 20.3317C44.075 20.3317 44.566 19.8407 44.566 19.2357C44.566 18.6297 44.075 18.1387 43.47 18.1387Z" fill="white"/>
<path fill-rule="evenodd" clip-rule="evenodd" d="M43.47 8.45508C42.864 8.45508 42.373 8.94608 42.373 9.55208V14.5961C42.373 15.2021 42.864 15.6931 43.47 15.6931C44.075 15.6931 44.566 15.2021 44.566 14.5961V9.55208C44.566 8.94608 44.075 8.45508 43.47 8.45508Z" fill="white"/>
</svg>
