<svg width="48" height="48" viewBox="0 0 48 48" fill="none" xmlns="http://www.w3.org/2000/svg">
<path fill-rule="evenodd" clip-rule="evenodd" d="M39 0C43.9706 0 48 4.0294 48 9V39C48 43.9706 43.9706 48 39 48H9C4.0294 48 0 43.9706 0 39V9C0 4.0294 4.0294 0 9 0H39Z" fill="#33658A"/>
<path d="M23.3828 39C21.7175 39 20.2634 36.2861 19.4852 32.2521L27.2811 32.2518C26.5023 36.286 25.0482 39 23.3828 39ZM20.7352 38.407C18.5462 37.3971 16.7131 35.1694 15.5874 32.2513L18.3919 32.2523C18.9163 34.8669 19.7356 37.018 20.7352 38.407ZM26.0313 38.406C27.0305 37.0174 27.8497 34.8663 28.374 32.2514L31.178 32.2526C30.0523 35.1698 28.2196 37.3968 26.0313 38.406ZM17.9907 37.8808C15.3376 36.7233 13.1285 34.7382 11.6897 32.2516L14.399 32.2518C15.2308 34.5564 16.4752 36.5008 17.9907 37.8808ZM28.7748 37.8802C30.2902 36.5006 31.5346 34.5564 32.3665 32.252L35.0754 32.2515C33.637 34.7381 31.4279 36.7231 28.7748 37.8802ZM11.5703 24.375C12.1233 24.375 12.6923 24.4029 13.2814 24.4582C13.2663 24.8029 13.2578 25.15 13.2578 25.5C13.2578 27.4935 13.5339 29.3939 14.034 31.1256L11.1079 31.1273C10.3214 29.4143 9.88281 27.5084 9.88281 25.5C9.88281 25.1796 9.89397 24.8619 9.91592 24.5471C10.4056 24.4344 10.9583 24.375 11.5703 24.375ZM14.403 24.593C15.4494 24.7448 16.5612 24.9752 17.7584 25.2824L17.7578 25.5C17.7578 27.4936 17.9112 29.3941 18.1891 31.1259L15.1994 31.1267C14.6751 29.4138 14.3828 27.5081 14.3828 25.5L14.389 24.9961L14.403 24.593ZM18.8829 25.5861L19.4927 25.7623C20.3819 26.0249 21.2643 26.3058 22.3247 26.6622L22.8705 26.8469L26.2997 28.028C26.8167 28.2041 27.3064 28.369 27.771 28.5232C27.7017 29.4289 27.6021 30.2999 27.4755 31.1261L19.2911 31.1266C19.0327 29.4383 18.887 27.5625 18.8829 25.5861ZM28.8571 28.8782C30.0423 29.2592 31.0471 29.5582 31.9208 29.7826C31.8184 30.2421 31.7 30.6905 31.5665 31.1264L28.5765 31.1266C28.6875 30.4349 28.7786 29.7162 28.848 28.9754L28.8571 28.8782ZM33.0116 30.0382C34.2158 30.2888 35.1507 30.3635 36.0072 30.2906C35.8997 30.5739 35.783 30.8526 35.6573 31.1264L32.7314 31.1265C32.8256 30.8002 32.9119 30.468 32.9899 30.1302L33.0116 30.0382ZM36.8828 25.5C36.8828 25.9282 36.8629 26.3517 36.8239 26.7696C35.8725 26.9876 34.8824 26.9926 33.4743 26.724C33.496 26.3205 33.5078 25.9122 33.5078 25.5C33.5078 23.507 33.2318 21.6071 32.732 19.8758L35.6584 19.8743C36.4445 21.5868 36.8828 23.4922 36.8828 25.5ZM32.3828 25.5C32.3828 25.8283 32.375 26.1538 32.3596 26.4762C31.4321 26.2463 30.3381 25.9223 29.01 25.4937C29.0092 23.5034 28.8555 21.6054 28.5776 19.8753L31.5667 19.8749C32.0907 21.5873 32.3828 23.4925 32.3828 25.5ZM27.8811 25.1217C27.5348 25.0074 27.1737 24.8862 26.7971 24.7584L26.2206 24.562L23.6352 23.6694C22.3033 23.2123 21.2617 22.8707 20.2458 22.5633L19.8112 22.4334L19.2184 22.2618C19.1506 22.2426 19.0831 22.2236 19.0158 22.2048C19.0836 21.3968 19.1756 20.6177 19.2895 19.8749L27.4747 19.8748C27.7202 21.4793 27.8639 23.2531 27.8811 25.1217ZM17.9281 21.9149C16.837 21.6375 15.8099 21.4219 14.8332 21.2698C14.9381 20.7925 15.0603 20.3269 15.1987 19.8748L18.1889 19.8747C18.0835 20.5319 17.996 21.2133 17.9281 21.9149ZM13.7199 21.1192C12.9794 21.041 12.2647 21 11.5703 21C11.2467 21 10.935 21.0155 10.6358 21.0456C10.7751 20.6464 10.9327 20.2557 11.1076 19.8745L14.0338 19.8751C13.9166 20.2809 13.8118 20.6959 13.7199 21.1192ZM17.9909 13.1198C16.4751 14.4996 15.2306 16.4442 14.3988 18.749L11.6892 18.7498C13.1274 16.263 15.3371 14.2772 17.9909 13.1198ZM20.7343 12.594C19.735 13.9831 18.9158 16.1344 18.3915 18.7494L15.5865 18.7503C16.7122 15.8316 18.5454 13.6035 20.7343 12.594ZM23.3828 12C25.0484 12 26.5026 14.7147 27.2807 18.7497L19.4837 18.7501C20.2626 14.7154 21.717 12 23.3828 12ZM26.0313 12.594C28.2202 13.6035 30.0533 15.8315 31.1789 18.7503L28.375 18.751C27.8662 16.2151 27.0802 14.1143 26.1212 12.722L26.0313 12.594ZM28.7748 13.1198C31.4284 14.2772 33.638 16.2628 35.0767 18.75L32.3671 18.7497C31.5576 16.5061 30.357 14.6038 28.896 13.2312L28.7748 13.1198Z" fill="white"/>
<path d="M36.2352 22.1311C38.1814 21.8317 40.123 22.8808 40.7648 24.4768C41.492 26.285 40.3418 28.0305 37.6074 28.8508L37.3111 28.9346C34.9504 29.5604 32.762 29.1033 26.3001 26.9026L22.8709 25.7215C21.5587 25.2746 20.5305 24.9432 19.4931 24.6369C16.3916 23.7212 13.8453 23.2496 11.5707 23.2496C8.61168 23.2496 7.04115 24.6384 7.12857 26.4686C7.21248 28.2251 8.79002 29.6029 10.9659 29.4387C11.2757 29.4153 11.5458 29.6474 11.5691 29.9572C11.5925 30.267 11.3603 30.5371 11.0506 30.5605C8.24601 30.7721 6.11913 28.9146 6.00485 26.5223C5.88452 24.003 8.00872 22.1246 11.5707 22.1246C13.8214 22.1246 16.2861 22.555 19.2188 23.3863L19.8116 23.5579C20.9705 23.9001 22.1134 24.2716 23.6356 24.794L26.221 25.6865C32.984 28.0007 35.0776 28.4352 37.2841 27.7733C39.4415 27.1261 40.1719 26.0176 39.7211 24.8965C39.2783 23.7954 37.846 23.0215 36.4063 23.243C36.0992 23.2903 35.812 23.0796 35.7648 22.7726C35.7175 22.4655 35.9282 22.1783 36.2352 22.1311Z" fill="white"/>
</svg>
