<svg width="34" height="44" viewBox="0 0 34 44" fill="none" xmlns="http://www.w3.org/2000/svg">
<path fill-rule="evenodd" clip-rule="evenodd" d="M3.20996 11.3599C2.65768 11.3599 2.20996 11.8076 2.20996 12.3599V31.2899C2.20996 31.8421 2.65768 32.2899 3.20996 32.2899H6.49996C7.05225 32.2899 7.49996 31.8421 7.49996 31.2899V12.3599C7.49996 11.8076 7.05225 11.3599 6.49996 11.3599H3.20996ZM0.209961 12.3599C0.209961 10.703 1.55311 9.35986 3.20996 9.35986H6.49996C8.15682 9.35986 9.49996 10.703 9.49996 12.3599V31.2899C9.49996 32.9467 8.15682 34.2899 6.49996 34.2899H3.20996C1.55311 34.2899 0.209961 32.9467 0.209961 31.2899V12.3599Z" fill="#414652"/>
<path fill-rule="evenodd" clip-rule="evenodd" d="M15.36 7.10986C14.8077 7.10986 14.36 7.55758 14.36 8.10986V34.3199C14.36 34.8721 14.8077 35.3199 15.36 35.3199H18.65C19.2022 35.3199 19.65 34.8721 19.65 34.3199V8.10986C19.65 7.55758 19.2022 7.10986 18.65 7.10986H15.36ZM12.36 8.10986C12.36 6.45301 13.7031 5.10986 15.36 5.10986H18.65C20.3068 5.10986 21.65 6.45301 21.65 8.10986V34.3199C21.65 35.9767 20.3068 37.3199 18.65 37.3199H15.36C13.7031 37.3199 12.36 35.9767 12.36 34.3199V8.10986Z" fill="#414652"/>
<path fill-rule="evenodd" clip-rule="evenodd" d="M27.5 14.9999C26.9477 14.9999 26.5 15.4476 26.5 15.9999V32.4999C26.5 33.0521 26.9477 33.4999 27.5 33.4999H30.79C31.3422 33.4999 31.79 33.0521 31.79 32.4999V15.9999C31.79 15.4476 31.3422 14.9999 30.79 14.9999H27.5ZM24.5 15.9999C24.5 14.343 25.8431 12.9999 27.5 12.9999H30.79C32.4468 12.9999 33.79 14.343 33.79 15.9999V32.4999C33.79 34.1567 32.4468 35.4999 30.79 35.4999H27.5C25.8431 35.4999 24.5 34.1567 24.5 32.4999V15.9999Z" fill="#414652"/>
<path fill-rule="evenodd" clip-rule="evenodd" d="M29.14 5.70986C29.6922 5.70986 30.14 6.15758 30.14 6.70986V13.9999C30.14 14.5521 29.6922 14.9999 29.14 14.9999C28.5877 14.9999 28.14 14.5521 28.14 13.9999V6.70986C28.14 6.15758 28.5877 5.70986 29.14 5.70986Z" fill="#414652"/>
<path fill-rule="evenodd" clip-rule="evenodd" d="M29.14 33.4999C29.6922 33.4999 30.14 33.9476 30.14 34.4999V38.1399C30.14 38.6921 29.6922 39.1399 29.14 39.1399C28.5877 39.1399 28.14 38.6921 28.14 38.1399V34.4999C28.14 33.9476 28.5877 33.4999 29.14 33.4999Z" fill="#414652"/>
<path fill-rule="evenodd" clip-rule="evenodd" d="M17 0.859863C17.5522 0.859863 18 1.30758 18 1.85986V5.49986C18 6.05215 17.5522 6.49986 17 6.49986C16.4477 6.49986 16 6.05215 16 5.49986V1.85986C16 1.30758 16.4477 0.859863 17 0.859863Z" fill="#414652"/>
<path fill-rule="evenodd" clip-rule="evenodd" d="M17 35.9299C17.5522 35.9299 18 36.3776 18 36.9299V42.9999C18 43.5521 17.5522 43.9999 17 43.9999C16.4477 43.9999 16 43.5521 16 42.9999V36.9299C16 36.3776 16.4477 35.9299 17 35.9299Z" fill="#414652"/>
<path fill-rule="evenodd" clip-rule="evenodd" d="M4.85996 5.71986C5.41225 5.71986 5.85996 6.16758 5.85996 6.71986V10.3599C5.85996 10.9121 5.41225 11.3599 4.85996 11.3599C4.30768 11.3599 3.85996 10.9121 3.85996 10.3599V6.71986C3.85996 6.16758 4.30768 5.71986 4.85996 5.71986Z" fill="#414652"/>
<path fill-rule="evenodd" clip-rule="evenodd" d="M4.85996 32.2899C5.41225 32.2899 5.85996 32.7376 5.85996 33.2899V39.3599C5.85996 39.9121 5.41225 40.3599 4.85996 40.3599C4.30768 40.3599 3.85996 39.9121 3.85996 39.3599V33.2899C3.85996 32.7376 4.30768 32.2899 4.85996 32.2899Z" fill="#414652"/>
</svg>
