<svg xmlns="http://www.w3.org/2000/svg" width="64" height="64"><g fill="#FF6444" fill-rule="nonzero"><circle cx="32" cy="32" r="32" fill-opacity=".08"/><path fill-opacity=".48" d="M23.495 43.34l2.16-2.879a.501.501 0 01.753-.053l.285.285a.5.5 0 01.047.654L24.6 44.2a.5.5 0 00.4.8h11.707a.5.5 0 00.45-.716l-4.791-10.02a.5.5 0 00-.858-.075l-1.665 2.33a.5.5 0 01-.76.064L28.8 36.3a.501.501 0 01-.054-.645l1.69-2.364a.501.501 0 00-.407-.791H18.292a.5.5 0 00-.45.716l4.801 10.04a.5.5 0 00.851.084zm14.144.372l-4.814-10.504a.5.5 0 01.454-.708H37a.5.5 0 00.5-.5v-.5a.5.5 0 00-.5-.5h-3.533a.5.5 0 01-.408-.789l7.44-10.503a.5.5 0 01.862.08l4.814 10.504a.5.5 0 01-.454.708H41.5a.5.5 0 00-.5.5v.5a.5.5 0 00.5.5h4.033a.5.5 0 01.408.789l-7.44 10.503a.5.5 0 01-.862-.08z"/><path d="M18.059 30.711l7.433-10.494a.5.5 0 01.865.086l1.459 3.282c.104.235.37.353.615.271l.547-.182a.5.5 0 00.298-.677l-1.464-3.294a.5.5 0 01.457-.703h10.774a.5.5 0 01.41.786l-6.909 9.932a.5.5 0 01-.879-.11l-.996-2.657a.5.5 0 00-.626-.299l-.569.19a.5.5 0 00-.316.632l1.123 3.368a.5.5 0 01-.475.658h-11.34a.5.5 0 01-.407-.789z"/></g></svg>