<svg xmlns="http://www.w3.org/2000/svg" width="48" height="48"><g fill="none" fill-rule="evenodd"><path d="M11.776 1 9.87 3 4.583 8.467l-1.74 1.778-.12.086-.722.544 1.269 1.159 3.493 3.38 2.074 2.039-3.946 4.078 2.35.135.239.004.732-.007h.32l1.759.043.925-.008 3.702.047.835.004 2.408.007.92.027.506.006 1.032.002 1.676.032.115-.006.145-.012.703-.044.001-.885-.25-5.709-.145-2.836-.255-6.04-.164-2.917L18.49 7.47l-.51-.485-4.115-3.998-1.04-1.015L11.776 1zm6.771 8.572 2.588-2.684.099 2.281.146 3.562.183 3.615.168 3.964-1.288-.02-.96-.001-.559-.01-.824-.025-.985-.004-2.33-.006-3.653-.046-.677.008h-.218l-1.76-.043-.173-.001 2.684-2.774-1.118-1.023-5.462-5.319-.129-.123 1.38-1.41 6.183-6.406 2.557 2.5.561.542 2.253 2.178 1.334 1.245zM42.681 38.19l1.74-1.776.12-.086.72-.543-1.268-1.16-3.493-3.38-2.075-2.04 3.946-4.077-2.385-.136-1.257.004-1.77-.043-.993.007-3.845-.048-2.882-.006-1.23-.033-.286-.003-1.079-.002-1.68-.032-.11.006-.146.012-.703.044v.927l.246 5.603.14 2.675.264 6.28.168 2.9 3.95-4.094.715.683 3.48 3.377 1.47 1.438 1.05.973 1.905-2.001 5.288-5.469zM25.72 30.737l-.188-4.39 1.289.022.986.002.533.01.76.022.608.005 2.403.004 3.916.048 1-.006 1.758.042h.174l-2.684 2.775 1.118 1.023 2.7 2.646 2.89 2.795-1.377 1.41-5.94 6.147-.246.259-5.37-5.22-1.334-1.244-2.588 2.683-.28-6.562-.128-2.47z" fill="#FF444F" fill-rule="nonzero"/><path d="M0 0h48v48H0z"/></g></svg>