<svg width="49" height="48" fill="none" xmlns="http://www.w3.org/2000/svg"><path d="M30.613 16h-26a4 4 0 0 0-4 4v15.68l7.18-5.92 5.93 5.83 8.7-8.7h-5.48V24h10.41v10.4h-2.9V29l-10.71 10.67-5.94-5.83-7.19 5.92V44a4 4 0 0 0 4 4h26a4 4 0 0 0 4-4V20a4 4 0 0 0-4-4Z" fill="#85ACB0"/><path d="M44.613 0h-16a4 4 0 0 0-4 4v16a4 4 0 0 0 4 4h16a4 4 0 0 0 4-4V4a4 4 0 0 0-4-4Z" fill="#FF444F" style="mix-blend-mode:multiply"/><path d="M35.033 8.46a2 2 0 1 0-4 0 2 2 0 0 0 4 0ZM38.773 6.5l-6.74 11h2.3l6.73-11h-2.29ZM40.152 13.58a2 2 0 1 0 0 4.001 2 2 0 0 0 0-4Z" fill="#fff"/></svg>