<svg width="32" height="33" fill="none" xmlns="http://www.w3.org/2000/svg"><path fill-rule="evenodd" clip-rule="evenodd" d="M27.986 11.087A2.087 2.087 0 0025.9 9H2.087A2.087 2.087 0 000 11.087v3.534h27.986v-3.534zm-24.675 1.85a1.05 1.05 0 111.05-1.05 1.057 1.057 0 01-1.05 1.05zm3.388 0a1.05 1.05 0 110-2.1 1.05 1.05 0 010 2.1zm3.381 0a1.05 1.05 0 111.05-1.05 1.057 1.057 0 01-1.05 1.05zM0 23.647v6.369a2.087 2.087 0 002.087 2.086h23.812a2.087 2.087 0 002.087-2.086V15.587H0v6.393h2.955l3.554 4.561L12.127 17l4.745 5.829h3.866a1.996 1.996 0 013.785.462 2.002 2.002 0 01-1.968 2.364 1.996 1.996 0 01-1.81-1.16H16.08l-3.732-4.584L6.701 29.5l-4.56-5.853H0z" fill="#85ACB0"/><path fill-rule="evenodd" clip-rule="evenodd" d="M24 0a8 8 0 100 16 8 8 0 000-16z" fill="#FF444F"/><path fill-rule="evenodd" clip-rule="evenodd" d="M22.867 11.335L20 8.468l1.202-1.202 1.665 1.666L26.798 5 28 6.202l-5.133 5.133z" fill="#fff"/></svg>