<svg width="50" height="50" viewBox="0 0 50 50" fill="none" xmlns="http://www.w3.org/2000/svg">
<rect opacity="0.01" x="1" y="1" width="48" height="48" fill="white" stroke="#979797"/>
<path fill-rule="evenodd" clip-rule="evenodd" d="M16.7068 9.81592L1 16.6878V29.5645C1 36.4892 4.99869 42.8654 11.4346 46.2019L16.7068 48.9349L21.9789 46.2019C28.4139 42.8654 32.4126 36.4892 32.4126 29.5645V16.6878L16.7068 9.81592Z" fill="#85ACAF"/>
<path fill-rule="evenodd" clip-rule="evenodd" d="M26.1444 32.8559H24.5662V35.1227H22.467V32.8559H17.043V30.9761L21.8283 23.4028H24.5662V29.5429H22.467V25.5521H22.4248L18.9326 31.1426H21.747H22.467H24.5662H25.0492H26.1444V32.8559Z" fill="white"/>
<path fill-rule="evenodd" clip-rule="evenodd" d="M15.7322 35.1226H7.47133V33.0742L11.232 29.867C11.8599 29.3293 12.3242 28.8404 12.6259 28.3977C12.9286 27.9559 13.0805 27.4827 13.0805 26.9792V26.8107C13.0805 26.2514 12.9228 25.8262 12.6103 25.5343C12.2958 25.2434 11.8599 25.0984 11.2996 25.0984C10.6844 25.0984 10.2142 25.2659 9.88896 25.6019C9.56374 25.9379 9.32863 26.3513 9.18463 26.844L7.26953 26.1221C7.39198 25.742 7.56929 25.3756 7.79851 25.023C8.02774 24.6703 8.31378 24.3598 8.65467 24.0914C8.99655 23.822 9.40308 23.6065 9.87329 23.4439C10.3435 23.2822 10.8793 23.2009 11.4857 23.2009C12.1117 23.2009 12.669 23.2871 13.1549 23.4615C13.6428 23.6349 14.0542 23.8749 14.3892 24.1835C14.7252 24.4911 14.9799 24.8574 15.1533 25.2826C15.3267 25.7087 15.4139 26.173 15.4139 26.6765C15.4139 27.1585 15.3394 27.6003 15.1866 28.0029C15.0357 28.4065 14.8261 28.7895 14.5567 29.1529C14.2893 29.5173 13.9729 29.867 13.6094 30.203C13.246 30.539 12.8503 30.875 12.4261 31.2101L9.87329 33.276H15.7322V35.1226Z" fill="white"/>
<g style="mix-blend-mode:multiply">
<path fill-rule="evenodd" clip-rule="evenodd" d="M48.02 25.5041H44.4014C44.4014 14.5278 35.4714 5.59884 24.4951 5.59884V1.97925C37.4669 1.97925 48.02 12.5324 48.02 25.5041Z" fill="#FF444F"/>
</g>
<g style="mix-blend-mode:multiply">
<path fill-rule="evenodd" clip-rule="evenodd" d="M41.2275 25.5041H37.6089C37.6089 18.2738 31.7255 12.3903 24.4961 12.3903V8.77173C33.7229 8.77173 41.2275 16.2783 41.2275 25.5041Z" fill="#FF444F"/>
</g>
<g style="mix-blend-mode:multiply">
<path fill-rule="evenodd" clip-rule="evenodd" d="M34.0794 25.504H30.4608C30.4608 22.2145 27.7846 19.5393 24.4961 19.5393V15.9197C29.779 15.9197 34.0794 20.2191 34.0794 25.504Z" fill="#FF444F"/>
</g>
</svg>
