<svg width="50" height="50" fill="none" xmlns="http://www.w3.org/2000/svg"><path opacity=".01" fill="#fff" stroke="#979797" d="M1 1h48v48H1z"/><path fill-rule="evenodd" clip-rule="evenodd" d="M3.689 27.705A2.69 2.69 0 0 0 1 30.395v15.558a2.69 2.69 0 1 0 5.379 0V30.395a2.69 2.69 0 0 0-2.69-2.69ZM14.27 14.586a2.69 2.69 0 0 0-2.69 2.69v28.678a2.691 2.691 0 0 0 5.38 0V17.276a2.69 2.69 0 0 0-2.69-2.69ZM24.853 32.973a2.69 2.69 0 0 0-2.689 2.69v10.29a2.69 2.69 0 1 0 5.38 0v-10.29a2.69 2.69 0 0 0-2.69-2.69ZM35.434 22.777a2.69 2.69 0 0 0-2.69 2.69v20.486a2.69 2.69 0 1 0 5.38 0V25.467a2.69 2.69 0 0 0-2.69-2.69ZM46.31 16.627a2.69 2.69 0 0 0-2.69 2.69v26.637a2.69 2.69 0 1 0 5.38 0V19.317a2.69 2.69 0 0 0-2.69-2.69Z" fill="#85ACAF"/><path fill-rule="evenodd" clip-rule="evenodd" d="M24.853 14.586a2.69 2.69 0 0 0-2.689 2.69v5.992a2.69 2.69 0 1 0 5.38 0v-5.992a2.69 2.69 0 0 0-2.69-2.69ZM35.434 8.816a2.69 2.69 0 0 0-2.69 2.69v19.98a2.69 2.69 0 0 0 5.38 0v-19.98a2.69 2.69 0 0 0-2.69-2.69ZM46.31 1a2.69 2.69 0 0 0-2.69 2.69v15.641a2.69 2.69 0 0 0 5.38 0V3.69A2.69 2.69 0 0 0 46.31 1Z" fill="#FF444F" style="mix-blend-mode:multiply"/></svg>