<svg xmlns="http://www.w3.org/2000/svg" width="32" height="32"><defs><linearGradient id="a" x1="0%" x2="100%" y1="100%" y2="0%"><stop offset="0%" stop-color="#FF444F"/><stop offset="100%" stop-color="#FF6444"/></linearGradient></defs><g fill="none" fill-rule="evenodd"><path d="M0 0h32v32H0z"/><path fill="url(#a)" d="M2.5 0a.5.5 0 0 1 .492.41L3 .5v16.431l2.145-1.787a1.497 1.497 0 0 1-.138-.5L5 14.5a1.5 1.5 0 0 1 2.973-.286l2.25 1.499a1.498 1.498 0 0 1 1.414-.707l2.371-3.667a1.5 1.5 0 0 1 2.956-.167l1.219.61a1.499 1.499 0 0 1 1.407-.779l1.573-3.818A1.5 1.5 0 1 1 24 6.5l-.004-.084 2.654 8.848c.205-.14.445-.232.706-.257L27.5 15c.03 0 .06 0 .09.003l1.573-3.818a1.5 1.5 0 1 1 .789.712l-1.44 3.496A1.5 1.5 0 1 1 26 16.5l.004.085-2.654-8.849c-.205.14-.445.232-.706.257L22.5 8c-.193 0-.378-.037-.548-.103l-1.44 3.496a1.5 1.5 0 1 1-2.476 1.436l-1.219-.61a1.5 1.5 0 0 1-2.397.323l-1.868 2.888a1.5 1.5 0 1 1-2.525 1.356l-2.25-1.499a1.498 1.498 0 0 1-2.032.509l.075.088L3 18.234v8.243l3.108-2.417a1.508 1.508 0 0 1-.101-.416L6 23.5a1.5 1.5 0 0 1 2.964-.328l1.219.61a1.499 1.499 0 0 1 1.789-.706l1.035-1.727a1.5 1.5 0 1 1 2.847.797l2.449 2.45a1.498 1.498 0 0 1 2.337-.072l3.372-4.217a1.501 1.501 0 0 1 2.978.025l1.423 2.135a1.5 1.5 0 1 1-.403 1.201l-1.423-2.135a1.499 1.499 0 0 1-2.227-.057l-3.372 4.217a1.501 1.501 0 0 1-2.971.033l-2.871-2.872a1.496 1.496 0 0 1-1.703-.289l-.677 1.13a1.5 1.5 0 1 1-2.73 1.134l-1.219-.61a1.5 1.5 0 0 1-2.045.593L3 27.743V29h28.5a.5.5 0 0 1 .09.992L31.5 30H3v1.5a.5.5 0 0 1-.992.09L2 31.5V30H.5a.5.5 0 0 1-.09-.992L.5 29H2V.5a.5.5 0 0 1 .5-.5zm17 25a.5.5 0 1 0 0 1 .5.5 0 0 0 0-1zm-8-1a.5.5 0 1 0 0 1 .5.5 0 0 0 0-1zm18-1a.5.5 0 1 0 0 1 .5.5 0 0 0 0-1zm-22 0a.5.5 0 1 0 0 1 .5.5 0 0 0 0-1zm7-2a.5.5 0 1 0 0 1 .5.5 0 0 0 0-1zm11-1a.5.5 0 1 0 0 1 .5.5 0 0 0 0-1zm-14-4a.5.5 0 1 0 0 1 .5.5 0 0 0 0-1zm16 0a.5.5 0 1 0 0 1 .5.5 0 0 0 0-1zm-21-2a.5.5 0 1 0 0 1 .5.5 0 0 0 0-1zm13-2a.5.5 0 1 0 0 1 .5.5 0 0 0 0-1zm-4-1a.5.5 0 1 0 0 1 .5.5 0 0 0 0-1zm15-1a.5.5 0 1 0 0 1 .5.5 0 0 0 0-1zm-8-4a.5.5 0 1 0 0 1 .5.5 0 0 0 0-1z"/></g></svg>