<svg width="32" height="32" fill="none" xmlns="http://www.w3.org/2000/svg"><path fill-rule="evenodd" clip-rule="evenodd" d="M0 0v5.348l2.266 2.82c.253.315.636.499 1.04.499h25.388c.404 0 .787-.184 1.04-.498L32 5.348V0H0z" fill="#85ACAF"/><path fill-rule="evenodd" clip-rule="evenodd" d="M20.274 13.143h-.848c-.195 1.184-.995 2.048-1.982 2.048v-1.13c.427 0 .9-.61.9-1.483 0-.874-.474-1.483-.9-1.483-.427 0-.901.61-.901 1.483 0 1.466-.893 2.613-2.032 2.613-.986 0-1.786-.864-1.982-2.048h-.803v-1.13h.803c.196-1.184.995-2.048 1.982-2.048v1.13c-.425 0-.9.61-.9 1.483 0 .874.475 1.483.9 1.483.427 0 .902-.61.902-1.483 0-1.465.892-2.613 2.03-2.613.987 0 1.787.864 1.983 2.048h.848v1.13zM8.666 2.927v18.667c0 .736.597 1.333 1.334 1.333h12c.736 0 1.333-.597 1.333-1.333V2.927H8.667z" fill="#FF444F"/><path fill-rule="evenodd" clip-rule="evenodd" d="M16.997 24.366l-1.868-2.81v-3.952a.802.802 0 00-.802-.802h-1.03a.802.802 0 00-.802.802v3.208H9.97a1.333 1.333 0 01-1.333-1.334v-7.624l-1.646 1.35a1.333 1.333 0 00-.468.805L5.47 20.132a1.33 1.33 0 00.198.955l5.24 7.001c.04.074.06.155.06.238V32h6.906l-.667-6.915c0-.255-.072-.504-.21-.719z" fill="#85ACAF"/></svg>