<svg width="49" height="48" viewBox="0 0 49 48" fill="none" xmlns="http://www.w3.org/2000/svg">
<path fill-rule="evenodd" clip-rule="evenodd" d="M10.2798 15.88L11.5698 13.7C12.0298 12.93 12.8598 12.45 13.7598 12.44L16.2898 12.41C16.7198 12.41 17.1398 12.29 17.5198 12.08L19.7298 10.84C20.5098 10.4 21.4698 10.4 22.2598 10.84L24.4698 12.08C24.8498 12.29 25.2698 12.4 25.6998 12.41L28.2298 12.44C29.1298 12.45 29.9598 12.93 30.4198 13.7L31.7098 15.88C31.9298 16.25 32.2398 16.56 32.6098 16.78L34.7898 18.07C35.5598 18.53 36.0398 19.36 36.0498 20.26L36.0798 22.79C36.0798 23.22 36.1998 23.64 36.4098 24.02L37.6498 26.23C38.0898 27.01 38.0898 27.97 37.6498 28.76L36.4098 30.97C36.1998 31.35 36.0898 31.77 36.0798 32.2L36.0498 34.73C36.0398 35.63 35.5598 36.46 34.7898 36.92L32.6098 38.21C32.2398 38.43 31.9298 38.74 31.7098 39.11L30.4198 41.29C29.9598 42.06 29.1298 42.54 28.2298 42.55L25.6998 42.58C25.2698 42.58 24.8498 42.7 24.4698 42.91L22.2598 44.15C21.4798 44.59 20.5198 44.59 19.7298 44.15L17.5198 42.91C17.1398 42.7 16.7198 42.59 16.2898 42.58L13.7598 42.55C12.8598 42.54 12.0298 42.06 11.5698 41.29L10.2798 39.11C10.0598 38.74 9.74977 38.43 9.37977 38.21L7.19977 36.92C6.42977 36.46 5.94977 35.63 5.93977 34.73L5.90977 32.2C5.90977 31.77 5.78977 31.35 5.57977 30.97L4.33977 28.76C3.89977 27.98 3.89977 27.02 4.33977 26.23L5.57977 24.02C5.78977 23.64 5.89977 23.22 5.90977 22.79L5.93977 20.26C5.94977 19.36 6.42977 18.53 7.19977 18.07L9.37977 16.78C9.74977 16.56 10.0598 16.25 10.2798 15.88V15.88Z" stroke="white" stroke-width="2" stroke-miterlimit="10" stroke-linecap="round"/>
<path d="M27.5994 20.8999L14.3994 34.0999" stroke="white" stroke-width="2" stroke-miterlimit="10" stroke-linecap="round"/>
<path d="M25.3992 34.0999C26.6142 34.0999 27.5992 33.115 27.5992 31.9C27.5992 30.6849 26.6142 29.7 25.3992 29.7C24.1842 29.7 23.1992 30.6849 23.1992 31.9C23.1992 33.115 24.1842 34.0999 25.3992 34.0999Z" stroke="white" stroke-width="2" stroke-miterlimit="10" stroke-linecap="round"/>
<path d="M16.5994 25.2999C17.8144 25.2999 18.7994 24.3149 18.7994 23.0999C18.7994 21.8849 17.8144 20.8999 16.5994 20.8999C15.3844 20.8999 14.3994 21.8849 14.3994 23.0999C14.3994 24.3149 15.3844 25.2999 16.5994 25.2999Z" stroke="white" stroke-width="2" stroke-miterlimit="10" stroke-linecap="round"/>
<path d="M40 14C43.0376 14 45.5 11.5376 45.5 8.5C45.5 5.46243 43.0376 3 40 3C36.9624 3 34.5 5.46243 34.5 8.5C34.5 11.5376 36.9624 14 40 14Z" stroke="white" stroke-width="2" stroke-miterlimit="10" stroke-linecap="round"/>
<path d="M43.5 5C41.17 7.33 38.83 9.67 36.5 12" stroke="white" stroke-width="2" stroke-miterlimit="10" stroke-linecap="round"/>
</svg>
