<svg width="44" height="18" fill="none" xmlns="http://www.w3.org/2000/svg"><path fill-rule="evenodd" clip-rule="evenodd" d="M8 17A8 8 0 118 1a8 8 0 010 16zM1.333 9a6.667 6.667 0 1013.333 0A6.667 6.667 0 001.333 9zm9.529-.471l-2.195 2.195V5H7.333v5.724L5.138 8.529l-.943.942 3.334 3.334.471.471.471-.471 3.334-3.334-.943-.942z" fill="#5085B6"/><path d="M20.924 14V5.624h3.96c.392 0 .744.068 1.056.204.312.128.576.308.792.54.224.232.396.516.516.852.12.328.18.688.18 1.08 0 .4-.06.764-.18 1.092-.12.328-.292.608-.516.84-.216.232-.48.416-.792.552a2.76 2.76 0 01-1.056.192h-2.136V14h-1.824zm1.824-4.608h1.92c.272 0 .484-.068.636-.204.16-.144.24-.352.24-.624v-.528c0-.272-.08-.476-.24-.612-.152-.144-.364-.216-.636-.216h-1.92v2.184zm6.051-3.768h3.156c.552 0 1.056.088 1.512.264.456.176.844.44 1.164.792.32.344.568.78.744 1.308.176.52.264 1.128.264 1.824 0 .696-.088 1.308-.264 1.836-.176.52-.424.956-.744 1.308a3.08 3.08 0 01-1.164.78c-.456.176-.96.264-1.512.264h-3.156V5.624zm3.156 6.756c.544 0 .972-.152 1.284-.456.312-.304.468-.792.468-1.464V9.164c0-.672-.156-1.16-.468-1.464-.312-.304-.74-.456-1.284-.456h-1.332v5.136h1.332zM37.166 14V5.624h5.556v1.62H38.99V8.96h3.18v1.608h-3.18V14h-1.824z" fill="#5085B6"/></svg>