<svg width="97" height="32" viewBox="0 0 97 32" fill="none" xmlns="http://www.w3.org/2000/svg">
<g clip-path="url(#clip0_3388_19489)">
<path d="M19.3208 1.00941L17.6697 10.3693H11.9383C6.59132 10.3693 1.49477 14.6998 0.550156 20.0447L0.15033 22.3197C-0.789882 27.6647 2.77769 31.9952 8.12469 31.9952H12.9049C16.802 31.9952 20.5146 28.8417 21.2 24.9462L25.6023 0L19.3208 1.00941ZM15.2541 24.0633C15.0432 25.2667 13.9594 26.2462 12.7555 26.2462H9.85137C7.44808 26.2462 5.84004 24.2961 6.2618 21.8893L6.51225 20.4707C6.93841 18.0683 9.23186 16.1139 11.6352 16.1139H16.6563L15.2541 24.0633ZM63.4601 31.9947L67.221 10.6675H73.1698L69.4089 31.9947H63.4601ZM64.1035 10.9134C63.8053 12.605 63.5059 14.2967 63.2077 15.9883C60.3894 15.1129 57.4816 15.3917 56.5883 15.5697C55.6235 21.0461 54.6575 26.5237 53.6914 32H47.7386C48.5469 27.4179 51.3087 11.7692 51.3087 11.7692C53.2448 10.9677 57.9994 9.34117 64.1035 10.9134ZM39.9835 10.3657H35.3527C30.8405 10.3657 26.5394 14.0198 25.744 18.5302L24.8082 23.8313C24.0129 28.3418 27.0226 31.9959 31.5349 31.9959H41.3852L42.3958 26.2645H33.1383C31.6358 26.2645 30.6296 25.0479 30.8977 23.5414L30.9285 23.3614H45.8535L46.7058 18.5302C47.5009 14.0198 44.4914 10.3657 39.9792 10.3657H39.9835ZM40.7349 18.0735L40.6997 18.3809H31.8248L31.8732 18.1086C32.141 16.6066 33.512 15.2846 35.0188 15.2846H38.4854C39.9748 15.2846 40.981 16.5846 40.7349 18.0735ZM90.4278 10.6675H96.381C94.353 16.0571 89.7056 25.2252 85.2037 31.9947H79.2505C77.184 25.5518 75.8495 16.5747 75.5949 10.6675H81.5483C81.6558 12.5944 82.5187 19.7416 83.5035 24.7347C86.2046 19.8772 89.1824 13.504 90.4232 10.6675H90.4278Z" fill="#FF444F"/>
</g>
<defs>
<clipPath id="clip0_3388_19489">
<rect width="96.4445" height="32" fill="white"/>
</clipPath>
</defs>
</svg>
