<svg width="32" height="32" viewBox="0 0 32 32" fill="none" xmlns="http://www.w3.org/2000/svg">
<g clip-path="url(#clip0_2921_117)">
<path d="M27 7.75C27.3646 7.75 27.6641 7.86719 27.8984 8.10156C28.1328 8.36198 28.25 8.66146 28.25 9V24C28.25 24.3385 28.1328 24.638 27.8984 24.8984C27.6641 25.1328 27.3646 25.25 27 25.25H12C11.6354 25.25 11.3359 25.1328 11.1016 24.8984C10.8672 24.638 10.75 24.3385 10.75 24V9C10.75 8.66146 10.8672 8.36198 11.1016 8.10156C11.3359 7.86719 11.6354 7.75 12 7.75H27ZM16.0234 22.75H16.0625V14.3906H13.4453V22.75H16.0234ZM14.7344 13.2578C15.1771 13.2578 15.5286 13.1146 15.7891 12.8281C16.0755 12.5417 16.2318 12.1901 16.2578 11.7734C16.2318 11.3307 16.0755 10.9661 15.7891 10.6797C15.5286 10.3932 15.1771 10.25 14.7344 10.25C14.3177 10.25 13.9661 10.3932 13.6797 10.6797C13.3932 10.9661 13.25 11.3307 13.25 11.7734C13.25 12.1901 13.3932 12.5417 13.6797 12.8281C13.9661 13.1146 14.3177 13.2578 14.7344 13.2578ZM25.75 22.75V18.1797C25.8021 17.0339 25.6198 16.0833 25.2031 15.3281C24.7865 14.599 23.9401 14.2214 22.6641 14.1953C22.013 14.1953 21.4792 14.3385 21.0625 14.625C20.6458 14.8854 20.3594 15.1849 20.2031 15.5234H20.1641V14.3906H17.6641V22.75H20.2812V18.6094C20.2552 18.0365 20.3333 17.5417 20.5156 17.125C20.724 16.7083 21.1536 16.487 21.8047 16.4609C22.4557 16.513 22.8464 16.7604 22.9766 17.2031C23.1328 17.6719 23.1979 18.1667 23.1719 18.6875V22.75H25.75Z" fill="black" fill-opacity="0.72"/>
</g>
<defs>
<clipPath id="clip0_2921_117">
<rect width="32" height="32" fill="white"/>
</clipPath>
</defs>
</svg>
