<svg xmlns="http://www.w3.org/2000/svg" width="32" height="32"><g fill="none" fill-rule="evenodd"><path fill="#FEFEFE" d="M26.88 5.027c-6.141-6.155-16.132-6.155-22.274-.002-6.141 6.152-6.141 16.165 0 22.317 6.142 6.156 16.136 6.155 22.274 0 6.148-6.152 6.148-16.165 0-22.315"/><path fill="#293052" d="M11.354 20.323s.18 1.353 1.318 1.98l-.303-.565s.58-1.523-1.015-1.415"/><path fill="#293052" d="M16.385 10.91c1.222.437 1.616 1.743 1.616 1.743-1.556.355-1.228-1.236-1.228-1.236l-.388-.506zm8.186 14.12c-.159.156-.316.308-.477.455-3.513 2.868-6.219 1.441-6.25 1.441-1.834-.367-2.744-.372-3.26-.717-.129-.087-.543-.31-.639-.256-.374.223-.89.338-1.419-.084-.047-.039-.092-.082-.132-.12-.584-.584-.386-1.185-.192-1.394.135-.136-.102-.521-.102-.521s-.689-1.025-1.159-1.641c-.519-.677-.589-2.02-.595-2.038l-.007-.02c-.524-.622-.578-.814-.759-1.117-.105-.18-.267-.348-.405-.493a2.472 2.472 0 01-.244-.268c-.014-.018-.017-.044-.012-.086.048-.29.672-.932.807-1.021.165-.107.877-.54.877-.54s.4-.63 1.08-.63c.614.003.99-.034 2.048.312l.44.14c.739.237 1.39.516 1.907.74.438.19.79.342 1.06.413.913.24 2.524-.5 2.864-.812.557-.509.798-.85.801-1.128.005-.157-.064-.294-.222-.46-.083-.075-.188-.217-.321-.351-.021-.021-.044-.046-.07-.065-1.547-1.645-1.28-2.677-1.278-2.693.067-.74-.357-1.215-.812-1.708l-.074-.092c-.024-.022-.053-.06-.053-.06.658.108 1.106.373 2.393.517.73.079.5.072 1.083.058.804-.026 1.441-.097 1.484-.28-.077-.066-.433.02-2.14-.633-.79-.304-.916-.349-1.418-.516a20.621 20.621 0 01-1.346-.52c2.785.732 3.696 1.019 4.97 1.036.493.01.786-.05.958-.085.181-.033.744-.16.808-.356.019-.034-.54.092-1.573-.25-3.252-1.076-3.528-1.614-5.33-2.316-.63-.245-.834-.379-2.732-.87-.87-.224-2.185-.095-2.364.017-2.465-.58-3.025-.517-3.748-.36 4.822-3.098 11.334-2.54 15.553 1.685a12.72 12.72 0 011.522 1.847l.06.09a12.39 12.39 0 012.076 6.906c0 3.34-1.3 6.478-3.658 8.844zm1.512-19.205c-5.704-5.714-14.977-5.714-20.68 0-5.701 5.712-5.701 15.008 0 20.721 5.703 5.714 14.98 5.712 20.68 0 5.709-5.713 5.709-15.01 0-20.72z"/></g></svg>