<svg xmlns="http://www.w3.org/2000/svg" width="64" height="64" viewBox="0 0 64 64">
    <defs>
        <linearGradient id="prefix__a" x1="38.603%" x2="61.129%" y1="2.242%" y2="98.089%">
            <stop offset="0%" stop-color="#FF6444"/>
            <stop offset="5.232%" stop-color="#FF6444"/>
            <stop offset="100%" stop-color="#FF444F"/>
        </linearGradient>
        <linearGradient id="prefix__b" x1="4.413%" x2="94.516%" y1="2.242%" y2="98.089%">
            <stop offset="0%" stop-color="#FF6444"/>
            <stop offset="5.232%" stop-color="#FF6444"/>
            <stop offset="100%" stop-color="#FF444F"/>
        </linearGradient>
    </defs>
    <g fill="none" fill-rule="evenodd">
        <path d="M0 0H64V64H0z"/>
        <path fill="url(#prefix__a)" d="M24 40.01s.274 2.727 2 3.99l-.46-1.138s.878-3.068-1.54-2.851"/>
        <path fill="url(#prefix__b)" d="M33 22c2.27.73 3 2.913 3 2.913-2.888.595-2.279-2.066-2.279-2.066L33 22zm15.994 26.705c-.307.299-.606.59-.916.87-6.731 5.47-11.914 2.748-11.974 2.748-3.515-.7-5.257-.71-6.244-1.368-.248-.166-1.042-.592-1.225-.488-.718.426-1.705.645-2.72-.161-.09-.073-.175-.156-.253-.23-1.119-1.111-.739-2.257-.367-2.658.258-.26-.197-.994-.197-.994s-1.318-1.954-2.22-3.13c-.993-1.291-1.128-3.852-1.14-3.888l-.012-.035c-1.004-1.189-1.108-1.554-1.455-2.133-.202-.343-.512-.664-.776-.94-.182-.18-.348-.35-.468-.512-.025-.033-.033-.084-.023-.162.092-.555 1.288-1.778 1.547-1.949.316-.205 1.679-1.03 1.679-1.03s.766-1.201 2.071-1.201c1.177.006 1.895-.065 3.924.593l.843.267c1.415.453 2.662.986 3.652 1.412.84.362 1.513.654 2.03.79 1.75.458 4.837-.954 5.488-1.55 1.069-.97 1.53-1.62 1.536-2.151.008-.3-.124-.56-.427-.877-.158-.144-.36-.414-.614-.67-.04-.041-.084-.088-.135-.124-2.963-3.139-2.45-5.106-2.447-5.137.127-1.413-.685-2.319-1.556-3.258l-.142-.176c-.046-.041-.101-.115-.101-.115 1.26.207 2.119.713 4.584.987 1.399.15.957.137 2.076.11 1.54-.049 2.76-.184 2.844-.533-.15-.127-.832.037-4.103-1.209-1.515-.578-1.754-.664-2.716-.983-1.239-.416-2.58-.992-2.58-.992 5.337 1.397 7.083 1.943 9.524 1.976.945.019 1.506-.095 1.836-.163.347-.062 1.424-.306 1.546-.678.037-.064-1.033.176-3.013-.476-6.23-2.053-6.76-3.08-10.212-4.419-1.205-.466-1.596-.723-5.234-1.66-1.667-.427-4.187-.18-4.53.034-4.72-1.108-5.793-.987-7.18-.689 9.239-5.908 21.716-4.844 29.8 3.216 1.094 1.096 2.065 2.274 2.915 3.522l.114.172C54.616 22.533 56 27.078 56 31.836c0 6.371-2.489 12.358-7.006 16.869zm2.805-36.51C40.875 1.268 23.113 1.268 12.191 12.192c-10.921 10.92-10.921 28.693 0 39.616 10.922 10.924 28.69 10.92 39.608-.002 10.935-10.921 10.935-28.693 0-39.613z"/>
    </g>
</svg>
