<svg xmlns="http://www.w3.org/2000/svg" xmlns:xlink="http://www.w3.org/1999/xlink" width="971" height="304"><defs><path id="a" d="M210.497 0H971v304H0z"/></defs><g fill="none" fill-rule="evenodd"><mask id="b" fill="#fff"><use xlink:href="#a"/></mask><use fill="#85ACB0" fill-rule="nonzero" xlink:href="#a"/><g fill="#FFF" fill-rule="nonzero" mask="url(#b)" opacity=".2"><path d="M1261.75-326.854l-.206.103-72.146 143.734-144.189 71.764-.207.103-72.146 143.734-144.086 71.764-.206.103-72.146 143.734-144.086 71.764-.207.103-72.146 143.733-144.086 71.764-.206.103-72.146 143.734L258 712.025v1.441l66.263-33.05.206-.103 72.147-143.734 144.086-71.867.206-.103 72.043-143.837 144.086-71.764.206-.103 72.146-143.733 144.086-71.764.207-.103 72.249-143.528 144.086-71.764.207-.103 72.146-143.734 144.189-71.764.206-.103L1440-463.998h-1.445l-32.719 65.38zM304.673 232.511l72.338-144.002L521.48 16.662l.207-.103 72.338-144.002 144.469-71.95.207-.103 72.338-144.002 144.469-71.949.207-.103L980-463.998h-1.55v.103l-23.768 47.417-144.47 71.949-.206.103-72.338 144.003-144.47 71.949-.206.103-72.338 144.002-144.47 71.95-.206.103-72.338 144.002L256 255.394v1.443l48.466-24.223zm54.033 52.917l72.256-143.831 144.202-71.761.206-.103 72.256-143.832 144.202-71.761.206-.103 72.256-143.831 144.202-71.761.206-.103L1060-463.998h-1.548l-50.786 101.31-144.202 71.761-.206.103-72.256 143.832L646.8-75.128l-.206.103-72.256 143.831-144.202 71.761-.206.103-72.256 143.832L256 335.157v1.441l102.5-51.067zm-18.165 197.327l144.206-71.734.206-.103 72.155-143.778 144.102-71.735.207-.103 72.154-143.778L917.674-20.21l.206-.103 72.154-143.778 144.103-71.735.206-.103 72.155-143.778 144.102-71.735.206-.103 6.194-12.453h-1.342v.103l-5.677 11.424-144.103 71.735-.206.103-72.155 143.778-144.205 71.734-.207.103L916.951-21.24 772.745 50.495l-.206.103-72.258 143.675-144.102 71.838-.207.103-72.154 143.778-144.102 71.734-.207.103-72.154 143.778L256 631.268v1.441l12.387-6.175zm89.954-556.48l.206-.103 72.148-143.574 144.09-71.685.206-.103 72.148-143.574L780-463.001h-2.886l-58.749 29.209-.206.103-72.148 143.574-144.09 71.684-.206.103-72.148 143.574L285.684-3.069l-.206.103L256 55.656v2.777l30.405-60.474z"/><path d="M448.759-54.823l.207-.103 72.233-143.433 144.26-71.716.206-.103 72.233-143.535L835-462.004h-2.786v.103l-94.935 47.263-.206.103-72.234 143.432-144.259 71.614-.207.103L448.14-55.851 303.777 15.866l-.206.103L256 110.494v2.775l48.499-96.376zm470.017-181.242l-.207.103-72.233 143.739-144.26 71.767-.206.103-72.234 143.74-144.259 71.767-.207.103-72.233 143.739-144.363 71.664-.207.103L257 433.518v2.781l12.401-24.609 144.259-71.767.207-.103L486.1 196.08l144.26-71.767.207-.102L702.8-19.529l144.259-71.767.207-.103 72.233-143.74 144.26-71.663.207-.103 72.233-143.74L1161-463.001h-2.893l-22.631 11.326-.207.103-72.233 143.74z"/><path d="M881.692-272.116l-.206.103L809.37-128.36 665.242-56.739l-.206.103L592.92 87.016 448.896 158.74l-.207.103-72.115 143.55L257 362.076v1.441l120.296-59.89.206-.102 72.116-143.653 144.025-71.827.206-.103L665.965-55.71l144.024-71.724.207-.103 72.219-143.652 144.024-71.724.207-.103L1087-463.001h-1.548l-59.735 119.162zm271.503-162.55l-72.123 143.779-144.041 71.838-.206.103-72.123 143.675L720.559-3.536l-.207.103-72.123 143.676-144.04 71.735-.206.102-72.227 143.676-144.143 71.838-.207.103L258 486.361v2.779l30.438-60.62 144.144-71.735.206-.103 72.123-143.778 144.143-71.735.207-.103L721.384-2.61l144.143-71.735.207-.102 72.02-143.573 144.143-71.735.206-.103 72.124-143.676L1215-463.998h-2.889l-58.71 29.229z"/><path d="M900.492-255.195l-.207.103-72.053 143.63-144.106 71.763-.207.103-72.053 143.63-143.9 71.66-.206.103-72.157 143.629L258 387.998v1.441l138.429-68.88.206-.103 72.157-143.63 144.106-71.763.207-.103 72.156-143.629 144.107-71.661.206-.103 72.157-143.629 144.106-71.763.207-.103L1115-463.998h-1.548l-68.854 137.04zm269.343-161.133l-72.256 143.732-144.1 71.865-.206.103L881.12-56.896 736.814 14.969l-.207.103-72.153 143.835-144.203 71.866-.206.102-72.256 143.835-144.1 71.763-.206.103L256 541.195v2.78l48.515-96.576 144.203-71.66.206-.103 72.256-143.834 144.203-71.866.207-.103 72.153-143.834 144.202-71.866.207-.103 72.153-143.834 144.203-71.866.206-.103 72.256-143.834 97.03-48.391h-3.097v.206l-94.862 47.361zm73.493 72.398l-72.185 143.565-144.268 71.834h-.207L954.483 15.137 810.215 86.868l-.206.103-72.186 143.565-144.267 71.731-.207.103-72.185 143.667-144.268 71.731-.207.103-72.185 143.565L257 685.106v1.441l48.33-23.979.207-.103L377.722 518.9l144.268-71.628.206-.103 72.186-143.564 144.164-71.937.207-.103L810.938 88l144.268-71.731.206-.103 72.289-143.668 144.268-71.731.206-.103 72.186-143.564 144.267-71.731.207-.103L1413-463.001h-1.446l-23.752 47.34-144.267 71.629z"/><path d="M1187.95-398.72l-72.236 143.734-144.163 71.765-.206.103-72.236 143.734-144.163 71.661-.207.103-72.236 143.735-144.163 71.764-.206.103-72.236 143.735-144.163 71.661-.206.103L256 594.037v2.779l66.561-132.408 144.162-71.765.207-.103 72.236-143.734 144.163-71.764.206-.103 72.236-143.735 144.266-71.661.207-.103 72.236-143.735 144.06-71.661.206-.103 72.133-143.735L1322-463.998h-2.889l-130.954 65.175z"/><path d="M1224.447-361.87l-72.068 143.724-144.136 71.707-.207.103L935.865-2.715 791.729 68.993l-.207.103-72.171 143.62-144.136 71.708-.207.103-72.171 143.62-144.033 71.708-.207.103-72.171 143.621L257 658.188v1.44l30.252-15.021.207-.103 72.171-143.62 144.136-71.708.207-.103 72.171-143.723 144.136-71.708.207-.103 72.068-143.62L936.691-1.789l.206-.103 72.172-143.518 144.033-71.707.206-.103 72.172-143.621 144.136-71.707.206-.103 15.178-30.35h-1.445l-14.662 29.321-144.239 71.707zm-396.935 35.004l-.206.103-72.201 143.829-144.298 71.812-.207.103L538.399 32.81l-144.298 71.915-.207.103-72.304 143.829-65.59 32.66v1.443l66.416-33.073.207-.103 72.304-143.829 144.298-71.812.207-.103 72.201-143.829L755.931-181.8l.207-.103 72.201-143.829 144.195-71.812.206-.103 33.26-66.351h-1.446l-32.744 65.321zm-70.531-71.703l-72.124 144.046-144.249 71.921-.207.103-72.228 143.943-144.352 71.92-.206.103L258 164.325v2.782l66.648-132.712 144.249-71.921.206-.103 72.228-144.046 144.249-71.92.206-.103 72.228-143.944L891-463.998h-2.893l-130.919 65.326zM484.5-235.843l-.206.103-71.956 143.277-143.809 71.484-.205.103L257 1.822v2.773l12.353-24.547 143.809-71.484.206-.103 71.956-143.277L629.132-306.3l.206-.102 71.956-143.277L726-462.004h-2.882l-22.544 11.298-.206.103-72.059 143.276zM342.558 698.372l72.065-143.752 144.027-71.772.206-.103 72.169-143.752 144.233-71.876.206-.103 72.169-143.751 144.13-71.773.206-.103 72.065-143.649 144.131-71.773.206-.103 72.168-143.751 144.027-71.773.207-.103L1467-463.998h-1.445l-41.711 83.306-144.131 71.773-.206.103-72.168 143.751-144.027 71.773-.207.103-72.168 143.752-144.13 71.773-.207.103-72.065 143.648-144.13 71.773-.206.103-72.169 143.752-144.13 71.773-.206.103-72.169 143.751L258 738.944v1.441l84.351-41.91z"/><path d="M792.257-361.787l-72.256 143.636-144.307 71.766-.207.103L503.231-2.646 358.924 69.12l-.206.103-72.257 143.636L257 227.48v1.441l30.288-15.033.207-.103 72.256-143.532L504.058-1.514l.207-.102 72.256-143.636 144.307-71.766.206-.103 72.257-143.636 144.307-71.766.206-.103L953-463.001h-1.447l-14.679 29.345-144.41 71.766zm53.238 52.937l-.207.103-72.253 143.808-144.298 71.852-.207.103-72.253 143.808-144.298 71.853-.207.103-72.149 143.808L256 308.236v1.443l84.45-41.957.207-.103 72.149-143.911 144.298-71.853.207-.103 72.253-143.808 144.298-71.852.207-.103 72.253-143.808 144.298-71.853.207-.103L1033-463.998h-1.447l-41.76 83.295z"/><path d="M773.558-380.632l-72.155 143.855L557.3-164.952l-.207.103-72.154 143.958-144.206 71.825-.207.103-72.155 143.855L257 200.559v1.443l12.405-6.183L341.56 51.964 485.662-19.86l.207-.104 72.155-143.855 144.103-71.824.206-.103 72.155-143.855 144.103-71.825.207-.103L925-463.998h-1.344l-5.685 11.438-144.207 71.825zm595.66 593.9l-72.163 143.373-144.122 71.584-.206.102-72.163 143.476-144.122 71.584-.206.102L885 745.37h1.443l50.824-100.956 144.121-71.584.206-.103 72.164-143.475 144.224-71.584.207-.103 72.163-143.476L1472 163.56v-1.438l-102.576 51.043zm-107.971-107.107l-.206.103-72.179 143.692-144.15 71.794-.207.103-72.178 143.691-144.15 71.794-.207.103-72.178 143.691L623 747.364h2.891l130.83-65.201.207-.103 72.178-143.692 144.047-71.691.207-.103 72.178-143.691 144.15-71.794.207-.103 72.178-143.692L1406.224 35.5l.206-.103L1472-95.11v-2.987L1405.398 34.47zm71.694-358.639l-.207.102-72.059 143.658-144.221 71.726-.206.103-72.266 143.555-144.221 71.726-.207.103-72.162 143.658-144.221 71.726-.206.103-72.163 143.658-144.221 71.726-.206.103L397 747.364h1.445l68.962-136.969 144.221-71.726.207-.103L684.1 394.908l144.221-71.726.207-.103 72.265-143.657 144.222-71.727.206-.102 72.265-143.658 144.222-71.624.206-.102 72.265-143.658L1472-319.985v-1.441z"/><path d="M1387.372 231.09l-71.95 143.726-143.899 71.761-.206.103-72.052 143.726-143.899 71.761-.206.103L913 746.367h1.443l41.747-83.172 143.899-71.76.206-.103 72.053-143.624 143.899-71.761.206-.102 72.053-143.727L1472 190.48v-1.439l-84.422 41.946zM358.844 718.022l72.168-143.831 144.13-71.761.207-.103 72.168-143.831 144.234-71.761.206-.103 72.168-143.831 144.13-71.761.207-.103 72.272-143.831 144.13-71.761.206-.103 72.168-143.83 144.131-71.761.206-.103L1471-419.138v-2.986l-30.457 60.745-144.13 71.761-.207.103-72.168 143.831-144.13 71.761-.207.103-72.168 143.831-144.234 71.761-.206.103-72.168 143.83-144.131 71.864h-.309L574.316 501.4l-144.233 71.864-.207.103-72.168 143.831L297 747.364h2.891l58.746-29.239z"/><path d="M1405.362 250.045l-72.105 143.348-144.21 71.622-.206.103-72.209 143.451-144.21 71.622-.206.103L939 746.367h1.444l32.803-65.148 144.211-71.623.206-.103 72.208-143.45 144.21-71.622.207-.103 72.208-143.348L1472 218.396v-1.439l-66.432 32.986zm-703.933 377.03l72.169-143.788 144.03-71.843.206-.103 72.17-143.788 143.927-71.637.206-.103 72.067-143.789 144.029-71.843.207-.103 72.066-143.788L1470-187.383v-1.441l-48.216 24.085-.207.103-72.066 143.788-144.03 71.843-.207.103-72.169 143.788-144.03 71.843-.207.103-72.169 143.789-144.03 71.842-.206.103-72.17 143.789-143.927 71.637-.206.103L532 746.367h1.445l23.747-47.346 144.03-71.843z"/><path d="M683.292 610.288l.207-.103 72.163-143.771 144.121-71.782.206-.103 72.164-143.771 144.224-71.886.206-.103 72.267-143.77 144.224-71.783.206-.103 72.164-143.77L1471-213.305v-1.441l-66.589 32.956-.206.103-72.06 143.77-144.224 71.783-.207.103-72.06 143.874-144.224 71.782-.206.103-72.164 143.771-144.224 71.782-.206.103-72.06 143.874-144.121 71.782-.206.103L505 747.364h1.445l32.727-65.294z"/><path d="M665.672 592.312l.206-.103 72.261-143.932 144.315-71.864.207-.103 72.158-144.036 144.315-71.863.206-.103 72.261-143.933 144.316-71.863.206-.103 72.261-143.933L1472-241.221v-1.442l-84.648 42.212-.207.103-72.054 143.933-144.316 71.864-.206.103-72.261 143.829-144.315 71.864-.207.103-72.261 143.933-144.315 71.863-.206.103-72.261 143.933-144.316 71.863-.206.103L478 747.364h1.445l41.912-83.291zm71.871 71.84l72.262-143.769 144.214-71.884.206-.103 72.159-143.871 144.214-71.781.206-.103 72.159-143.768 144.213-71.782.207-.103 72.158-143.871 11.459-5.664v-1.442l-12.181 5.973-.207.103-72.261 143.769L1242.24 87.74l-.207.103-72.158 143.768-144.317 71.884-.207.103-72.158 143.871-144.214 71.782-.206.103-72.159 143.768L592.4 735.006l-.206.103L586 747.364h1.445l5.678-11.328 144.214-71.781z"/><path d="M719.607 646.14l72.196-143.959 144.185-71.98.206-.103 72.196-143.959 144.185-71.876.206-.103 72.196-143.959 144.185-71.877.206-.103 72.196-143.959L1471-160.463v-1.442l-30.159 15.137-.207.103-72.195 143.959-144.185 71.98-.207.103-72.195 143.856-144.185 71.877-.207.102-72.195 143.96-144.289 71.876-.206.103-72.196 143.959-144.185 71.877-.206.103L559 747.364h1.446l14.77-29.245L719.4 646.243zM594.198 519.65l.207-.103L666.6 375.88l144.079-71.731.207-.102 72.195-143.667 144.183-71.731.206-.103 72.298-143.666 144.08-71.834.207-.103 72.194-143.667 144.183-71.73.207-.103L1472-365.301v-2.984l-12.497 24.699-144.08 71.73-.206.103-72.195 143.667-144.183 71.731-.207.102-72.195 143.667-144.079 71.834-.207.103-72.195 143.666-144.182 71.834-.207.103-72.195 143.667-144.183 71.73-.206.103-72.195 143.667L352 746.367h2.892l22.619-11.114.206-.103 72.195-143.667zm53.379 54.549l.206-.103 72.206-143.909 144.307-71.8.207-.103 72.309-143.91 144.307-71.903.207-.103 72.205-143.909 144.308-71.904.207-.103 72.205-143.909L1472-268.14v-1.442l-102.575 51.198-.207.103-72.102 143.909-144.308 71.903-.206.103-72.206 143.807-144.307 71.903-.207.103-72.205 143.909-144.308 71.801-.207.103-72.308 144.012-144.308 71.8-.207.103L451 747.364h1.446l50.823-101.262z"/><path d="M631.28 555.627l.206-.103 72.106-143.621 144.109-71.605.206-.103 72.106-143.621 144.006-71.708.206-.103 71.9-143.827 144.005-71.708.206-.102 72.106-143.622L1472-294.064v-1.44l-120.486 59.979-.206.103L1279.202-91.8l-143.799 71.707-.207.103-72.106 143.621-144.005 71.708-.206.103-72.106 143.621-144.109 71.708-.206.103-72.106 143.621-144.006 71.708-.206.103L426 746.367h1.444l59.831-119.032zm503.65 70.556l72.414-143.663 144.517-71.78.207-.103 72.31-143.663L1472 243.322v-1.44l-48.448 24.167-.207.103-72.31 143.663-144.518 71.779-.206.103L1134 625.36l-144.518 71.677-.206.103L965 745.37h1.446l23.759-47.304 144.518-71.78zm-360.94 72.856l72.279-143.735 144.352-71.816.206-.103 72.279-143.735 144.352-71.713.207-.103 72.176-143.735 144.352-71.816.206-.103L1472-42.374v-2.881l-48.634 96.612-144.248 71.816-.207.103-72.279 143.632-144.352 71.816-.206.103-72.279 143.735-144.249 71.816-.206.103-72.279 143.735L676 746.367h2.891l94.892-47.225zm287.468-143.423l.206-.102 72.132-143.707 144.161-71.853.207-.103 72.132-143.707 119.704-59.5v-1.441l-120.53 60.118-.206.103-72.132 143.706-144.161 71.648-.103.102-72.236 143.604-144.058 71.75-.206.103L856 746.367h1.445l59.852-119.103z"/><path d="M1044.39 537.219l.206-.103 72.289-143.86 144.063-71.878.206-.103 72.186-143.861L1471 108.728v-1.441l-138.589 68.995-.207.103-72.082 143.86-144.166 71.878-.207.103-72.186 143.861-144.165 71.878-.207.103L830 746.367h1.446l68.778-137.269z"/><path d="M792.827 718.022l72.253-143.727 144.195-71.761.206-.103 72.15-143.726 144.195-71.761.206-.103 72.149-143.727 144.196-71.76.206-.103L1472 12.566V9.58l-30.346 60.641-144.195 71.761-.207.103-72.149 143.727-144.195 71.76-.206.103-72.15 143.83-144.298 71.76-.206.103-72.15 143.727L731 747.364h2.89l58.731-29.239z"/><path d="M1025.118 519.553l.207-.103 72.201-143.794 144.197-71.794.207-.103 72.201-143.793 144.3-71.794.207-.103L1470 65.305v-2.884l-12.292 24.721-144.196 71.794-.207.103-72.202 143.793-144.196 71.794-.207.103-72.202 143.794-144.3 71.793-.206.103L807.79 734.11 783 746.367h2.892l22.621-11.124.207-.103 72.202-143.794z"/></g></g></svg>