<svg xmlns="http://www.w3.org/2000/svg" width="64" height="64"><defs><linearGradient id="a" x1="7.727%" x2="91.28%" y1="2.242%" y2="98.089%"><stop offset="0%" stop-color="#FF6444"/><stop offset="5.232%" stop-color="#FF6444"/><stop offset="100%" stop-color="#FF444F"/></linearGradient></defs><g fill="none" fill-rule="evenodd"><path d="M0 0h64v64H0z"/><path fill="url(#a)" fill-rule="nonzero" d="M32.641 5.067a.997.997 0 01.744.01l24 10c.836.349.815 1.541-.034 1.86l-11.528 4.322 11.562 4.818c.796.332.815 1.43.082 1.808l-.116.051-11.528 4.323 11.562 4.818c.796.332.815 1.43.082 1.808l-.116.051-11.528 4.323 11.562 4.818c.796.332.815 1.43.082 1.808l-.116.051-24 9a1 1 0 01-.544.045l-.134-.036-26-9c-.841-.291-.899-1.433-.145-1.827l.113-.051 12.498-4.808-12.466-4.314c-.841-.291-.899-1.433-.145-1.827l.113-.051 12.498-4.808-12.466-4.314c-.841-.291-.899-1.433-.145-1.827l.113-.051 12.498-4.808-12.466-4.314c-.841-.291-.899-1.433-.145-1.827l.113-.051zM22 44.25v.051L9.913 48.95l23.072 7.987 21.296-7.986-11.196-4.665-9.734 3.65a1 1 0 01-.544.045l-.134-.036L22 44.25zm0-11v.051L9.913 37.95l23.072 7.987L43 42.181v-.098l.124.052 11.157-4.184-11.196-4.665-9.734 3.65a1 1 0 01-.544.045l-.134-.036L22 33.25zm0-11v.051L9.913 26.95l23.072 7.987L43 31.181v-.098l.124.052 11.157-4.184-11.196-4.665-9.734 3.65a1 1 0 01-.544.045l-.134-.036L22 22.25zM32.984 7.077L9.913 15.95l23.072 7.987L43 20.181v-.098l.124.052 11.157-4.184-21.297-8.874z"/></g></svg>