
<svg xmlns="http://www.w3.org/2000/svg" width="32" height="32" viewBox="0 0 32 32">
    <g fill="none" fill-rule="evenodd">
        <path d="M26.88 5.027c-6.141-6.155-16.132-6.155-22.274-.002-6.141 6.152-6.141 16.165 0 22.317 6.142 6.156 16.136 6.155 22.274 0 6.148-6.152 6.148-16.165 0-22.315" transform="translate(-1 -1)"/>
        <path fill="#FFF" d="M5.404 5.824C11.106.111 20.379.111 26.083 5.825c5.709 5.712 5.709 15.008 0 20.72-5.7 5.713-14.977 5.715-20.68.001-5.701-5.713-5.701-15.01 0-20.722zm19.167 1.52C20.352 3.117 13.84 2.56 9.018 5.656c.723-.156 1.283-.22 3.748.361.179-.112 1.494-.24 2.364-.017 1.898.491 2.103.625 2.732.87 1.802.702 2.078 1.24 5.33 2.317 1.033.341 1.592.215 1.573.25-.064.194-.627.322-.808.355-.172.035-.465.094-.958.085-1.274-.017-2.185-.304-4.97-1.036 0 0 .7.302 1.346.52.502.167.627.212 1.418.516 1.707.653 2.063.567 2.14.633-.043.183-.68.254-1.484.28-.583.014-.353.02-1.083-.058-1.287-.144-1.735-.41-2.393-.517 0 0 .029.038.053.06l.074.092c.455.493.879.968.812 1.708-.001.016-.269 1.048 1.277 2.693.027.019.05.044.07.065.134.134.24.276.322.351.158.166.227.303.222.46-.003.279-.244.62-.801 1.128-.34.312-1.951 1.052-2.865.812-.27-.07-.62-.224-1.06-.413-.517-.224-1.167-.503-1.905-.74l-.44-.14c-.908-.297-1.314-.312-1.798-.312h-.25c-.577 0-.952.45-1.053.59l-.028.04s-.712.433-.877.54c-.135.09-.759.73-.807 1.021-.005.042-.002.068.012.086.062.084.15.174.244.268.138.145.3.313.405.493.181.303.235.495.759 1.118l.007.019c.006.018.076 1.36.595 2.038.47.616 1.159 1.64 1.159 1.64s.237.386.102.522c-.194.21-.392.81.192 1.393.04.04.085.082.132.12.53.423 1.045.308 1.42.085.095-.054.51.17.639.256.515.345 1.425.35 3.259.717.031 0 2.737 1.427 6.25-1.441.161-.147.318-.3.477-.455 2.358-2.366 3.658-5.504 3.658-8.844 0-2.495-.723-4.877-2.076-6.907l-.06-.09c-.443-.654-.95-1.271-1.522-1.846zM11.354 20.322c1.595-.108 1.015 1.415 1.015 1.415l.303.565c-1.138-.627-1.318-1.98-1.318-1.98zm5.03-9.412l.389.506s-.328 1.591 1.228 1.236c0 0-.394-1.306-1.616-1.742z" transform="translate(-1 -1)"/>
    </g>
</svg>