<svg xmlns="http://www.w3.org/2000/svg" width="64" height="64"><defs><linearGradient id="a" x1="4.413%" x2="94.516%" y1="7.759%" y2="92.534%"><stop offset="0%" stop-color="#FF6444"/><stop offset="5.232%" stop-color="#FF6444"/><stop offset="100%" stop-color="#FF444F"/></linearGradient></defs><g fill="none" fill-rule="evenodd"><path d="M0 0h64v64H0z"/><path fill="url(#a)" d="M32.553 58.713c1.025 0 2.05.008 3.076-.002.866-.008 1.243-.372 1.26-1.185.018-.865-.34-1.265-1.226-1.272-2.07-.017-4.142-.016-6.213 0-.883.007-1.257.42-1.235 1.268.02.812.402 1.18 1.262 1.19 1.025.01 2.05.002 3.076.001zm24.2-30.663v15.552c1.188-.518 1.928-1.399 2.48-2.451.944-1.795 1.21-3.736 1.161-5.734-.045-1.833-.383-3.6-1.319-5.208-.544-.934-1.243-1.715-2.321-2.16zm-49.616-.081c-.442.298-.824.51-1.152.786-.82.69-1.354 1.585-1.731 2.574-.893 2.338-.98 4.742-.524 7.178.278 1.483.802 2.873 1.859 3.986.423.446.963.78 1.548 1.244V27.969zm47.07 7.84c0-3.08.005-6.16-.004-9.24-.003-.93-.323-1.229-1.239-1.226-.878.003-1.21.31-1.21 1.195-.005 6.2-.005 12.4.001 18.6.001.837.41 1.214 1.24 1.207.842-.007 1.207-.38 1.209-1.296.007-3.08.003-6.16.002-9.24zm-42.086.001c0-3.1.006-6.2-.004-9.3-.002-.85-.336-1.16-1.178-1.167-.917-.008-1.234.275-1.27 1.134-.007.161-.004.322-.004.483l.001 17.755c0 .262-.066.57.048.773.168.303.424.67.722.768 1.045.342 1.683-.167 1.685-1.266.005-3.06.001-6.12 0-9.18zm50.763 1.27c-.162.784-.288 1.577-.495 2.349-.475 1.773-1.269 3.388-2.524 4.75-.847.919-1.838 1.616-3.052 1.98-.182.055-.371.233-.464.404a4.822 4.822 0 01-1.833 1.875c-.177.105-.326.383-.353.597-.293 2.376-1.07 4.541-2.722 6.323-2.11 2.277-4.806 3.227-7.837 3.343-1.328.05-2.659.02-3.989.008-.328-.003-.524.07-.708.388-.797 1.375-1.976 2.122-3.612 2.103-1.893-.023-3.787.01-5.68-.01-1.94-.02-3.716-1.615-3.847-3.416-.145-1.984 1.612-3.965 3.617-4.001 2.115-.038 4.232-.05 6.345.006 1.426.037 2.427.852 3.172 2.026.113.179.33.422.495.419 2.031-.04 4.088.063 6.087-.227 3.703-.536 6.077-3.386 6.173-7.097.005-.168-.134-.413-.28-.501-1.45-.884-2.141-2.134-2.132-3.857.032-5.84.027-11.682.003-17.522-.007-1.65.664-2.87 2.055-3.705.283-.17.307-.338.27-.633C50.377 13.524 43.41 6.624 34.16 5.655c-6.864-.718-12.707 1.484-17.3 6.698-2.613 2.967-4.074 6.482-4.554 10.4-.02.172.127.448.28.546 1.368.875 2.043 2.084 2.037 3.73-.022 5.94-.004 11.883-.011 17.824-.003 2.186-1.821 4.057-3.872 3.943-1.452-.08-2.435-.927-3.167-2.133a1.32 1.32 0 00-.643-.531c-1.424-.49-2.55-1.375-3.434-2.562-2.004-2.69-2.74-5.741-2.427-9.053.255-2.694 1.168-5.127 3.032-7.145a6.726 6.726 0 012.97-1.893c.179-.056.364-.232.456-.401a4.728 4.728 0 011.89-1.9.893.893 0 00.393-.574c1.32-9.869 8.984-17.744 18.836-19.329.69-.111 1.388-.184 2.082-.275h2.418c.694.09 1.39.164 2.081.275a22.648 22.648 0 0118.834 19.321c.03.21.205.474.389.577a4.789 4.789 0 011.894 1.895 1 1 0 00.516.42 6.795 6.795 0 012.657 1.618c1.466 1.433 2.361 3.191 2.882 5.15.2.752.326 1.523.485 2.286v2.538z"/></g></svg>