<svg xmlns="http://www.w3.org/2000/svg" width="64" height="64"><defs><linearGradient id="a" x1="4.868%" x2="94.071%" y1="2.242%" y2="98.089%"><stop offset="0%" stop-color="#FF6444"/><stop offset="5.232%" stop-color="#FF6444"/><stop offset="100%" stop-color="#FF444F"/></linearGradient></defs><g fill="none" fill-rule="evenodd"><path d="M0 0h64v64H0z"/><path fill="url(#a)" fill-rule="nonzero" d="M47.5 34C53.299 34 58 38.701 58 44.5c0 3.952-2.184 7.394-5.41 9.186l.029-.016A31.135 31.135 0 0153.755 59H9.245c1.61-13.015 10.961-23 22.255-23 2.804 0 5.489.616 7.964 1.74l-.01.012A10.482 10.482 0 0147.5 34zm-16 4c-9.328 0-17.43 7.714-19.802 18.513l-.103.487h39.809l-.02-.1a28.832 28.832 0 00-.606-2.421A10.51 10.51 0 0147.5 55C41.701 55 37 50.299 37 44.5c0-1.806.456-3.506 1.26-4.99l.047-.088a17.147 17.147 0 00-6.478-1.419L31.5 38zm16-2a8.5 8.5 0 10.001 17.001A8.5 8.5 0 0047.5 36zm6.39 3.545a.999.999 0 01-.435 1.345c-1.756.898-4.332 3.804-7.603 8.668a1 1 0 01-1.357.292l-.1-.072-3.023-2.437a1 1 0 011.153-1.63l.103.073 2.177 1.756.26-.374c2.953-4.24 5.355-6.88 7.294-7.957l.186-.1a1 1 0 011.345.436zM31 10c6.627 0 12 5.596 12 12.5S37.627 35 31 35s-12-5.596-12-12.5S24.373 10 31 10zm0 2c-5.504 0-10 4.683-10 10.5S25.496 33 31 33s10-4.683 10-10.5S36.504 12 31 12z"/></g></svg>