<svg xmlns="http://www.w3.org/2000/svg" width="64" height="64" viewBox="0 0 64 64">
    <defs>
        <linearGradient id="prefix__a" x1="4.868%" x2="94.071%" y1="2.242%" y2="98.089%">
            <stop offset="0%" stop-color="#FF6444"/>
            <stop offset="5.232%" stop-color="#FF6444"/>
            <stop offset="100%" stop-color="#FF444F"/>
        </linearGradient>
    </defs>
    <g fill="none" fill-rule="evenodd">
        <path d="M0 0H64V64H0z"/>
        <path fill="url(#prefix__a)" fill-rule="nonzero" d="M47.5 34C53.299 34 58 38.701 58 44.5c0 3.952-2.184 7.394-5.41 9.186l.029-.016c.524 1.701.907 3.485 1.136 5.33H9.245c1.61-13.015 10.961-23 22.255-23 2.804 0 5.489.616 7.964 1.74l-.01.012C41.382 35.458 44.27 34 47.5 34zm-16 4c-9.328 0-17.43 7.714-19.802 18.513l-.103.487h39.809l-.02-.1c-.169-.825-.372-1.633-.606-2.421-1.032.338-2.133.521-3.278.521C41.701 55 37 50.299 37 44.5c0-1.806.456-3.506 1.26-4.99l.047-.088c-2.04-.88-4.221-1.375-6.478-1.419L31.5 38zm16-2c-4.694 0-8.5 3.806-8.5 8.5s3.806 8.5 8.5 8.5 8.5-3.806 8.5-8.5-3.806-8.5-8.5-8.5zm6.39 3.545c.252.491.057 1.094-.435 1.345-1.756.898-4.332 3.804-7.603 8.668-.304.452-.907.572-1.357.292l-.1-.072-3.023-2.437c-.43-.347-.497-.976-.15-1.406.32-.397.88-.485 1.303-.224l.103.073 2.177 1.756.26-.374c2.953-4.24 5.355-6.88 7.294-7.957l.186-.1c.491-.25 1.094-.056 1.345.436zM31 10c6.627 0 12 5.596 12 12.5S37.627 35 31 35s-12-5.596-12-12.5S24.373 10 31 10zm0 2c-5.504 0-10 4.683-10 10.5S25.496 33 31 33s10-4.683 10-10.5S36.504 12 31 12z"/>
    </g>
</svg>
