<svg width="24" height="25" viewBox="0 0 24 25" fill="none" xmlns="http://www.w3.org/2000/svg">
<g clip-path="url(#clip0_1326_8748)">
<path d="M18.3813 0.151367H5.61515C2.51291 0.151367 -0.00195312 2.66674 -0.00195312 5.7696V18.5383C-0.00195312 21.6412 2.51291 24.1565 5.61515 24.1565H18.3813C21.4835 24.1565 23.9984 21.6412 23.9984 18.5383V5.7696C23.9984 2.66674 21.4835 0.151367 18.3813 0.151367Z" fill="white"/>
<path d="M14.3368 12.1543L13.6244 14.4019L12.9309 12.156H12.254L13.3469 15.4231H13.8739L14.5879 13.2768L15.301 15.4231H15.8324L16.923 12.156H16.2629L15.5683 14.4019L14.8559 12.1543H14.3368ZM10.5529 12.1551L9.17071 15.4214H9.8205L10.0873 14.7891L10.1062 14.7413H11.5424L11.8238 15.4214H12.4913L11.1217 12.1742L11.1095 12.1551H10.5529ZM20.5632 12.1555V15.4193H21.1913V12.1555H20.5632ZM2.55273 12.1559V15.4243H3.18954V14.0969H4.62687V15.4243H5.26368V12.1559H4.62687V13.4746H3.18954V12.1559H2.55273ZM8.21038 12.1568V14.0275C8.21038 14.5589 7.95721 14.8426 7.49723 14.8426C7.03465 14.8426 6.77973 14.551 6.77973 14.0051V12.1589H6.14332V14.0276C6.14332 14.9471 6.63405 15.4742 7.48896 15.4742C8.35199 15.4742 8.84679 14.937 8.84679 14.0006V12.1568L8.21038 12.1568ZM17.4362 12.158V15.4218H19.8055V14.8269H18.0639V14.0176H19.2218V13.4223H18.0639V12.7534H19.7449V12.1581L17.4362 12.158ZM10.8225 12.9822L11.2767 14.0765L11.3074 14.1517H10.3447L10.375 14.0765L10.8225 12.9822Z" fill="#333333"/>
<path fill-rule="evenodd" clip-rule="evenodd" d="M11.8799 8.11212C9.53353 8.11212 7.61328 6.27259 7.61328 3.98145H8.21329C8.21329 5.92148 9.84488 7.51199 11.8799 7.51199C13.9149 7.51199 15.5465 5.92148 15.5465 3.98145H16.1465C16.1465 6.27259 14.2263 8.11212 11.8799 8.11212Z" fill="#333333"/>
</g>
<defs>
<clipPath id="clip0_1326_8748">
<rect width="24.0003" height="24.0052" fill="white" transform="translate(0 0.151367)"/>
</clipPath>
</defs>
</svg>
