<svg width="187" height="34" viewBox="0 0 187 34" fill="none" xmlns="http://www.w3.org/2000/svg">
<g clip-path="url(#clip0_1101_32222)">
<path d="M15.698 1.68175L14.3577 9.28243H9.70536C5.36499 9.28243 1.22792 12.799 0.46114 17.1393L0.136586 18.9867C-0.626621 23.3271 2.26931 26.8437 6.60968 26.8437H10.49C13.6534 26.8437 16.667 24.2829 17.2234 21.1195L20.797 0.862061L15.698 1.68175ZM12.3969 20.4026C12.2257 21.3798 11.3459 22.1752 10.3687 22.1752H8.0113C6.06045 22.1752 4.75514 20.5916 5.0975 18.6372L5.3008 17.4853C5.64674 15.5344 7.50842 13.9473 9.45926 13.9473H13.5351L12.3969 20.4026ZM51.5276 26.8433L54.5804 9.52456H59.4093L56.3565 26.8433H51.5239H51.5276ZM52.0499 9.72426C51.8078 11.0979 51.5647 12.4716 51.3227 13.8453C49.035 13.1344 46.6746 13.3608 45.9495 13.5054C45.1664 17.9524 44.3821 22.4005 43.5979 26.8476H38.7658C39.422 23.1266 41.6638 10.4192 41.6638 10.4192C43.2354 9.76836 47.0949 8.44753 52.0499 9.72426ZM32.4707 9.27949H28.7117C25.049 9.27949 21.5576 12.2468 20.912 15.9095L20.1524 20.2142C19.5068 23.8769 21.9499 26.8443 25.6126 26.8443H33.6086L34.4289 22.19H26.9142C25.6946 22.19 24.8778 21.2021 25.0954 19.9788L25.1204 19.8326H37.2356L37.9275 15.9095C38.5729 12.2468 36.13 9.27949 32.4672 9.27949H32.4707ZM33.0806 15.5386L33.0521 15.7882H25.848L25.8872 15.5671C26.1047 14.3474 27.2175 13.2739 28.4407 13.2739H31.2546C32.4637 13.2739 33.2805 14.3296 33.0806 15.5386ZM78.2507 9.52456C76.6046 13.9012 72.8321 21.3461 69.1777 26.8433H64.3453C62.6678 21.6113 61.5846 14.3215 61.3779 9.52456H66.2105C66.2977 11.0893 66.9982 16.8932 67.7976 20.9478C69.9902 17.0032 72.4074 11.8279 73.4146 9.52456H78.2507Z" fill="#FF444F"/>
<path d="M83.7641 24.6832C84.2304 24.6832 84.6991 24.639 85.1713 24.5499C85.6431 24.4615 86.0562 24.3168 86.4103 24.117C86.7644 23.9171 87.0474 23.6455 87.2594 23.301C87.4714 22.957 87.5617 22.5297 87.5302 22.0187C87.5097 21.6858 87.436 21.3916 87.3094 21.1362C87.1823 20.8812 86.9902 20.6424 86.7325 20.42C86.4743 20.1983 86.156 19.9818 85.7766 19.7707C85.3973 19.5599 84.9439 19.3211 84.417 19.0545C83.8909 18.8105 83.4096 18.5664 82.9731 18.3219C82.536 18.0779 82.1462 17.789 81.8041 17.4559C81.4615 17.123 81.1875 16.729 80.982 16.2736C80.776 15.8187 80.6538 15.2691 80.6142 14.625C80.5117 12.9596 81.0289 11.6223 82.1657 10.6116C83.3027 9.60152 85.0144 9.09637 87.3016 9.09637C88.3672 9.09637 89.3115 9.20186 90.1352 9.41264C90.9585 9.62405 91.531 9.81819 91.853 9.99549L90.843 12.5267C90.521 12.3492 90.0098 12.1603 89.3095 11.9605C88.6087 11.7607 87.8365 11.6609 86.993 11.6609C86.5709 11.6609 86.1517 11.7055 85.7356 11.7939C85.319 11.883 84.9452 12.0329 84.6142 12.2437C84.2827 12.4549 84.0224 12.7322 83.8328 13.0763C83.6427 13.4208 83.5632 13.8371 83.5932 14.3252C83.6301 14.9247 83.8936 15.4191 84.3838 15.8074C84.8739 16.1961 85.5984 16.6014 86.5568 17.023C87.1503 17.2893 87.6833 17.5616 88.1557 17.8389C88.6276 18.1169 89.0354 18.4274 89.3788 18.7715C89.7215 19.116 89.991 19.5209 90.1862 19.9871C90.3815 20.4533 90.4989 21.0086 90.5385 21.6525C90.5958 22.5849 90.4684 23.4067 90.1572 24.117C89.8454 24.8278 89.3878 25.416 88.7837 25.8822C88.1796 26.3483 87.4517 26.6981 86.6001 26.9312C85.7485 27.1645 84.8116 27.2809 83.7906 27.2809C83.0355 27.2809 82.3498 27.231 81.7332 27.131C81.1161 27.0312 80.576 26.9146 80.113 26.7815C79.6494 26.6482 79.2637 26.5099 78.955 26.3652C78.6464 26.221 78.4113 26.1043 78.2507 26.0154L79.294 23.4842C79.4546 23.5731 79.6779 23.684 79.964 23.8173C80.2495 23.9504 80.5908 24.0837 80.9877 24.217C81.3841 24.3501 81.8187 24.4615 82.2905 24.5499C82.7622 24.639 83.2531 24.6832 83.7641 24.6832ZM99.7434 27.2809C98.6111 27.2809 97.6238 27.1197 96.7829 26.7981C95.9414 26.4764 95.2256 26.0321 94.6359 25.4659C94.0459 24.8996 93.5947 24.2393 93.2818 23.4842C92.9689 22.7295 92.7865 21.9302 92.7346 21.0863C92.639 19.5323 92.7799 18.0335 93.1574 16.59C93.535 15.147 94.1226 13.8703 94.9201 12.7598C95.7178 11.6499 96.7178 10.7672 97.9213 10.1121C99.1243 9.45749 100.514 9.12964 102.091 9.12964C103.001 9.12964 103.791 9.24608 104.46 9.47939C105.129 9.71249 105.682 10.0288 106.117 10.4284C106.552 10.8281 106.886 11.2892 107.118 11.8106C107.35 12.3326 107.483 12.8712 107.517 13.4261C107.581 14.4698 107.447 15.3525 107.114 16.0737C106.781 16.7955 106.318 17.4007 105.727 17.8888C105.135 18.3775 104.431 18.7549 103.615 19.0212C102.799 19.2878 101.946 19.499 101.056 19.654C100.166 19.8096 99.2622 19.9153 98.3446 19.9705C97.4263 20.0261 96.5578 20.0762 95.7393 20.1204C95.7279 20.2983 95.7258 20.4426 95.7326 20.5533L95.749 20.8197C95.7805 21.3307 95.871 21.8138 96.0213 22.2686C96.1711 22.7239 96.4236 23.1235 96.7779 23.4676C97.1321 23.8121 97.6093 24.0837 98.2102 24.2835C98.8105 24.4834 99.5884 24.5832 100.543 24.5832C100.965 24.5832 101.401 24.5448 101.852 24.4667C102.302 24.3892 102.729 24.2892 103.132 24.1669C103.535 24.0452 103.894 23.9228 104.209 23.8005C104.523 23.6788 104.744 23.5623 104.87 23.4509L105.298 26.082C104.869 26.3267 104.169 26.5873 103.198 26.8647C102.227 27.142 101.076 27.2809 99.7434 27.2809ZM95.9935 17.7557C97.2783 17.7115 98.4502 17.6281 99.5085 17.5058C100.567 17.3841 101.475 17.1729 102.234 16.873C102.992 16.5734 103.573 16.1685 103.974 15.6574C104.376 15.147 104.551 14.4808 104.501 13.6591C104.488 13.4593 104.437 13.2485 104.345 13.0264C104.254 12.8047 104.108 12.5992 103.908 12.4103C103.707 12.2218 103.437 12.0662 103.096 11.9439C102.756 11.8222 102.341 11.7607 101.853 11.7607C101.075 11.7607 100.359 11.9272 99.702 12.2604C99.045 12.5933 98.4672 13.0321 97.9678 13.5758C97.4684 14.1203 97.052 14.753 96.7191 15.4742C96.3856 16.1961 96.1441 16.9564 95.9935 17.7557ZM108.961 20.6531C108.868 19.1436 109.006 17.689 109.375 16.2902C109.744 14.8914 110.34 13.6591 111.163 12.5933C111.985 11.5276 113.021 10.6784 114.27 10.0456C115.518 9.41264 116.976 9.09637 118.641 9.09637C119.374 9.09637 120.076 9.14627 120.749 9.24608C121.421 9.3461 122.066 9.54066 122.683 9.82893L121.677 12.4269C121.309 12.2271 120.883 12.0719 120.399 11.9605C119.915 11.8497 119.295 11.7939 118.541 11.7939C117.452 11.7939 116.49 12.0329 115.654 12.5101C114.817 12.9879 114.118 13.6206 113.556 14.4086C112.993 15.1969 112.583 16.107 112.325 17.1396C112.066 18.172 111.971 19.2434 112.04 20.3535C112.075 20.9311 112.17 21.475 112.323 21.9854C112.476 22.4964 112.721 22.946 113.056 23.3343C113.39 23.723 113.825 24.0285 114.361 24.2503C114.896 24.4724 115.564 24.5832 116.363 24.5832C116.763 24.5832 117.182 24.5448 117.622 24.4667C118.061 24.3892 118.465 24.2949 118.836 24.1835C119.207 24.0727 119.538 23.9561 119.831 23.834C120.123 23.712 120.332 23.5956 120.459 23.4842L120.887 26.1152C120.481 26.3818 119.842 26.6429 118.97 26.8979C118.097 27.1529 117.095 27.2809 115.963 27.2809C114.897 27.2809 113.943 27.1197 113.102 26.7981C112.261 26.4764 111.544 26.0211 110.953 25.4326C110.362 24.8445 109.897 24.1452 109.559 23.3343C109.22 22.524 109.021 21.6306 108.961 20.6531ZM128.918 27.2809C127.941 27.2809 127.116 27.1363 126.444 26.848C125.771 26.5598 125.214 26.1711 124.773 25.6823C124.332 25.1942 124.003 24.6166 123.784 23.9504C123.565 23.2844 123.433 22.5739 123.387 21.8188C123.351 21.2419 123.366 20.67 123.431 20.1038C123.496 19.5376 123.577 18.9661 123.675 18.3885L125.262 9.5293H128.359L126.898 17.7225C126.818 18.2333 126.711 18.833 126.576 19.5209C126.44 20.2093 126.394 20.8978 126.436 21.5857C126.461 21.9854 126.523 22.3684 126.624 22.7348C126.724 23.1012 126.888 23.4234 127.116 23.7007C127.344 23.9786 127.641 24.2004 128.006 24.3667C128.371 24.5333 128.821 24.6166 129.354 24.6166C130.308 24.6166 131.134 24.4116 131.83 24.0005C132.527 23.5899 133.102 23.1069 133.556 22.5516C133.557 22.1968 133.567 21.8304 133.589 21.4527C133.61 21.0753 133.662 20.6647 133.746 20.2202L135.653 9.5293H138.75L136.793 20.4868C136.713 20.9978 136.65 21.4916 136.601 21.9688C136.553 22.4465 136.545 22.9403 136.576 23.4509C136.607 23.962 136.683 24.4724 136.803 24.983C136.923 25.4939 137.113 26.0487 137.372 26.6482L134.666 27.0479C134.539 26.8038 134.411 26.5265 134.281 26.2153C134.151 25.9045 134.042 25.5716 133.954 25.2161C133.723 25.4383 133.449 25.6714 133.131 25.9154C132.813 26.1601 132.443 26.3818 132.023 26.5817C131.602 26.7815 131.134 26.948 130.621 27.0811C130.107 27.2144 129.54 27.2809 128.918 27.2809ZM148.719 9.16291C148.985 9.16291 149.286 9.17428 149.62 9.19618C149.955 9.2185 150.284 9.25766 150.61 9.31283C150.935 9.36842 151.233 9.42422 151.503 9.47939C151.773 9.53498 151.976 9.59583 152.114 9.66258L151.38 12.3602C150.925 12.1829 150.406 12.0496 149.824 11.9605C149.241 11.8721 148.683 11.8274 148.15 11.8274C147.684 11.8274 147.225 11.8607 146.774 11.9272C146.323 11.9938 145.934 12.0828 145.608 12.1936L142.979 26.848H139.882L142.854 10.1953C143.723 9.88473 144.662 9.635 145.672 9.44591C146.682 9.25766 147.697 9.16291 148.719 9.16291ZM154.369 26.848H151.272L154.37 9.5293H157.467L154.369 26.848ZM156.709 6.39858C156.198 6.39858 155.761 6.24339 155.398 5.93239C155.034 5.62159 154.836 5.18866 154.802 4.6334C154.758 3.92315 154.945 3.36263 155.364 2.95139C155.783 2.54078 156.27 2.33527 156.825 2.33527C157.335 2.33527 157.778 2.49656 158.154 2.81831C158.528 3.14048 158.734 3.59004 158.769 4.1672C158.81 4.83323 158.61 5.37186 158.169 5.78246C157.728 6.19349 157.241 6.39858 156.709 6.39858ZM164.523 27.3142C162.857 27.3142 161.614 26.948 160.792 26.2153C159.969 25.4825 159.515 24.4168 159.429 23.018C159.373 22.1077 159.457 20.942 159.68 19.5209L162.332 4.69994L165.53 4.1672L164.561 9.5293H170.456L169.983 12.1271H164.088L162.728 19.7873C162.525 20.8313 162.448 21.7413 162.496 22.5183C162.541 23.2511 162.773 23.7788 163.193 24.1003C163.612 24.4225 164.288 24.5832 165.221 24.5832C165.864 24.5832 166.491 24.4781 167.1 24.2669C167.708 24.0561 168.174 23.862 168.496 23.684L168.891 26.3151C168.57 26.5149 168.017 26.7314 167.232 26.9647C166.447 27.1978 165.544 27.3142 164.523 27.3142ZM177.178 24.0504C177.939 22.7182 178.62 21.336 179.221 19.9039C179.82 18.4717 180.341 17.1011 180.783 15.7907C181.224 14.4808 181.588 13.2761 181.876 12.177C182.163 11.078 182.364 10.1953 182.479 9.5293H185.71C185.517 10.3732 185.238 11.4225 184.871 12.6766C184.504 13.9312 184.049 15.2858 183.505 16.74C182.962 18.1943 182.343 19.6822 181.648 21.2027C180.954 22.7239 180.183 24.1835 179.337 25.5825C178.69 26.6263 178.04 27.6084 177.387 28.53C176.732 29.4511 176.021 30.2504 175.253 30.928C174.483 31.6049 173.623 32.1379 172.67 32.5266C171.716 32.9149 170.629 33.1094 169.409 33.1094C168.787 33.1094 168.205 33.0313 167.662 32.8764C167.12 32.7207 166.721 32.5542 166.466 32.3767L167.376 29.8454C167.609 30.023 167.918 30.1729 168.303 30.2952C168.688 30.4169 169.113 30.4782 169.58 30.4782C170.867 30.4782 171.942 30.1672 172.803 29.5458C173.664 28.9238 174.463 28.1022 175.199 27.0811C174.212 24.3949 173.366 21.5638 172.662 18.5883C171.957 15.6132 171.455 12.5933 171.155 9.5293H174.319C174.403 10.5284 174.526 11.6223 174.688 12.8099C174.849 13.998 175.053 15.2302 175.298 16.5066C175.543 17.7837 175.822 19.0661 176.134 20.3535C176.446 21.6415 176.794 22.8738 177.178 24.0504Z" fill="#414652"/>
</g>
<defs>
<clipPath id="clip0_1101_32222">
<rect width="186.034" height="32.2759" fill="white" transform="translate(0 0.862061)"/>
</clipPath>
</defs>
</svg>
