<svg width="24" height="24" viewBox="0 0 24 24" fill="none" xmlns="http://www.w3.org/2000/svg">
<path d="M21.5469 12.2013C21.5469 11.5179 21.4853 10.8344 21.3676 10.1621H11.9727V14.0165H17.3396C17.1155 15.2489 16.3984 16.3358 15.3508 17.0249L18.5721 19.5291C20.4601 17.7924 21.5469 15.2377 21.5469 12.2013Z" fill="#3E82F1"/>
<path d="M15.3499 17.0249C14.4592 17.6243 13.3163 17.9773 11.9718 17.9773C9.37232 17.9773 7.17624 16.2238 6.39193 13.8652L3.05859 16.4479C4.75047 19.8148 8.20145 21.9437 11.9718 21.9381C14.6664 21.9381 16.9241 21.0473 18.5712 19.5235L15.3499 17.0249Z" fill="#32A753"/>
<path d="M6.39216 10.0787L3.05882 7.49609C1.64706 10.314 1.64706 13.6361 3.05882 16.4541L6.39216 13.8714C5.97759 12.639 5.97759 11.3056 6.39216 10.0787Z" fill="#F9BB00"/>
<path d="M11.9718 2C8.20145 2 4.75047 4.12885 3.05859 7.4958L6.39193 10.0784C7.17624 7.71989 9.37232 5.96639 11.9718 5.96639C13.4339 5.96639 14.7505 6.47059 15.7813 7.45658L18.644 4.59384C16.9185 2.98599 14.6608 2 11.9718 2Z" fill="#E74133"/>
</svg>
