<svg width="24" height="24" viewBox="0 0 24 24" fill="none" xmlns="http://www.w3.org/2000/svg">
<path d="M20.581 19.049C20.031 18.603 20.245 17.618 19.674 17.132C20.227 13.767 18.677 10.801 16.829 8.9C15.278 7.305 15.778 5.753 15.778 4.41C15.778 2.264 14.897 0 12.228 0C9.375 0 8.593 2.38 8.565 3.738C8.497 7 9.224 7.848 7.315 10.222C5.069 13.015 4.738 15.801 5.245 17.279C5.008 17.555 4.688 17.861 4.09 18.114C2.438 18.834 3.649 20.039 3.192 20.894C3.062 21.137 3 21.391 3 21.634C3 22.384 3.596 23.033 4.679 22.936C6.14 22.806 7.488 23.841 8.36 23.841C9.13 23.841 9.762 23.403 10.056 22.8C11.433 22.461 13.133 22.504 14.509 22.859C14.756 23.55 15.426 24 16.171 24C17.802 24 18.116 22.151 19.987 21.525C20.661 21.3 21 20.646 21 20.037C21 19.647 20.861 19.276 20.581 19.049ZM11.434 8.584C11.115 8.584 10.851 8.326 10.434 8.016C9.906 7.624 9.369 7.398 9.375 6.986C9.375 6.703 9.754 6.616 10.244 6.305C10.77 5.972 10.975 5.634 11.493 5.634C12.023 5.634 12.183 5.902 12.903 6.213C13.611 6.52 14.104 6.64 14.104 6.986C14.104 7.341 13.363 7.595 12.946 7.854C12.333 8.232 12.018 8.584 11.434 8.584ZM13.099 3.369C13.981 3.51 14.08 5.06 13.658 5.823L13.303 5.678C13.487 5.135 13.484 4.241 12.868 4.184C12.477 4.148 12.225 4.664 12.171 5.106C12.018 5.042 11.851 4.996 11.648 4.979C11.71 4.056 12.306 3.242 13.099 3.369ZM9.696 3.7C10.372 3.532 10.771 4.318 10.774 5.135L10.464 5.325C10.422 4.982 10.269 4.428 9.885 4.546C9.474 4.674 9.541 5.629 9.77 5.825L9.464 5.995C9.044 5.288 9.045 3.862 9.696 3.7ZM7.581 22.943C5.618 22.05 4.951 22.253 4.576 22.253C3.799 22.253 3.545 21.674 3.837 21.126C4.085 20.661 4.008 20.174 3.947 19.783C3.853 19.184 3.836 18.989 4.425 18.731C5.24 18.385 5.602 17.94 5.872 17.607C6.63 16.67 7.395 18.144 8.022 19.457C8.429 20.308 9.23 20.739 9.477 21.682C9.704 22.553 8.767 23.483 7.581 22.943ZM14.568 21.069C13.184 21.742 11.421 22.051 10.102 21.368C9.907 20.805 9.595 20.441 9.259 20.075C9.798 19.933 10.198 19.261 9.719 18.586C9.208 17.865 8.164 17.362 7.109 16.546C6.122 15.783 5.81 13.902 7.154 11.8C6.499 13.662 6.882 15.378 7.211 15.869C7.279 14.881 7.357 13.231 8.707 11.254C9.388 10.256 9.398 8.938 9.413 8.114L10.033 8.538C10.489 8.875 10.871 9.246 11.419 9.246C12.229 9.246 12.677 8.78 13.301 8.393C13.545 8.243 13.914 8.091 14.224 7.88C14.744 10.356 16.898 13.334 17.019 15.03C17.52 13.998 16.877 11.516 16.877 11.516C17.719 12.801 17.786 13.872 17.823 15.186C18.412 15.427 19.044 16.055 19.102 16.882L18.857 16.854C18.731 15.935 16.25 14.585 16.027 16.315C14.837 16.496 15.27 18.381 15.03 19.603C14.92 20.162 14.716 20.604 14.568 21.069ZM19.414 21.028C18.429 21.408 17.764 22.215 17.307 22.716C16.427 23.682 15.263 23.219 15.139 22.315C15.008 21.349 15.499 20.822 15.711 19.741C15.904 18.754 15.688 17.235 16.142 17.073C16.437 18.826 18.208 18.089 18.612 17.611C19.269 17.611 19.324 17.833 19.471 18.448C19.563 18.833 19.69 19.157 20.049 19.538C20.467 19.985 20.339 20.671 19.414 21.028ZM11.414 8.022C10.763 8.022 10.276 7.589 9.88 7.253C9.677 7.082 9.93 6.766 10.133 6.938C10.52 7.266 10.91 7.613 11.414 7.613C12.021 7.613 12.556 7.094 13.281 6.808C13.528 6.711 13.669 7.093 13.424 7.19C12.72 7.467 12.155 8.022 11.414 8.022Z" fill="white"/>
</svg>
