<svg fill="none" viewBox="0 0 128 117" xmlns="http://www.w3.org/2000/svg"><g clip-path="url(#a)" fill="#FF525C"><path d="M23.814 20.486a6.655 6.655 0 0 1 6.648 6.648 6.655 6.655 0 0 1-6.648 6.647 6.655 6.655 0 0 1-6.647-6.647 6.655 6.655 0 0 1 6.647-6.648zm0-3a9.648 9.648 0 1 0 .002 19.295 9.648 9.648 0 0 0-.002-19.295z"/><path d="m8.181 31.514 12.562 42.389.637 2.147h47.08a3.056 3.056 0 0 1 3.052 3.053v3.983a3.056 3.056 0 0 1-3.052 3.053H19.818a3.056 3.056 0 0 1-3.052-3.053v-3.85l-.124-.417-13.57-45.79 5.112-1.515h-.002zm.192-3.069c-.261 0-.522.038-.773.113L1.95 30.232a2.718 2.718 0 0 0-1.834 3.38l13.651 46.059v3.415a6.053 6.053 0 0 0 6.052 6.053H68.46a6.053 6.053 0 0 0 6.051-6.053v-3.983a6.053 6.053 0 0 0-6.051-6.053H23.62L10.977 30.392a2.72 2.72 0 0 0-2.606-1.947h.002zM85.506 94.879a2.166 2.166 0 0 1 1.543.64l11.178 11.177a2.183 2.183 0 0 1-2.378 3.558 2.171 2.171 0 0 1-.707-.474L83.963 98.602a2.166 2.166 0 0 1-.638-1.542 2.166 2.166 0 0 1 .638-1.542 2.165 2.165 0 0 1 1.543-.639zm0-3a5.166 5.166 0 0 0-3.664 1.517 5.183 5.183 0 0 0 0 7.328l11.179 11.178a5.152 5.152 0 0 0 3.663 1.517 5.172 5.172 0 0 0 4.788-3.198 5.192 5.192 0 0 0 0-3.966 5.188 5.188 0 0 0-1.123-1.68l-11.18-11.18a5.164 5.164 0 0 0-3.664-1.518v.002zM69.848 94.473a2.184 2.184 0 0 1 2.182 2.182v13.9a2.182 2.182 0 0 1-4.362 0v-13.9a2.184 2.184 0 0 1 2.181-2.182h-.001zm.001-3a5.182 5.182 0 0 0-5.181 5.182v13.9a5.179 5.179 0 0 0 5.181 5.181 5.18 5.18 0 0 0 5.18-5.181v-13.9a5.182 5.182 0 0 0-5.181-5.182h.001zM18.407 95.194a2.184 2.184 0 0 1 2.182 2.181v13.9a2.184 2.184 0 0 1-2.182 2.181 2.183 2.183 0 0 1-2.18-2.18v-13.9a2.184 2.184 0 0 1 2.18-2.182zm0-3a5.18 5.18 0 0 0-5.18 5.181v13.9a5.183 5.183 0 0 0 5.18 5.181 5.185 5.185 0 0 0 5.182-5.18v-13.9a5.182 5.182 0 0 0-5.182-5.182zM83.36 24.404a.535.535 0 0 1 .535.534v24.683H98.76a.535.535 0 0 1 0 1.07h-15.4a.536.536 0 0 1-.535-.536V24.938a.535.535 0 0 1 .535-.534zm0-3a3.535 3.535 0 0 0-3.535 3.534v25.217a3.535 3.535 0 0 0 3.535 3.535h15.4a3.536 3.536 0 0 0 2.5-6.034 3.535 3.535 0 0 0-2.5-1.035H86.896V24.938a3.535 3.535 0 0 0-3.536-3.534z"/><path d="M84.827 3a40.215 40.215 0 0 1 28.393 11.78A40.215 40.215 0 0 1 125 43.173 40.112 40.112 0 0 1 92.61 82.59v-2.448a37.935 37.935 0 0 0 30-36.969A37.821 37.821 0 0 0 84.832 5.395a37.727 37.727 0 0 0-37.15 30.91H45.25A40.114 40.114 0 0 1 57.663 13.61 40.032 40.032 0 0 1 84.833 3h-.005zm.005-3a43.231 43.231 0 0 0-43 39.3h8.437a34.827 34.827 0 0 1 34.56-30.909 34.818 34.818 0 0 1 34.779 34.778 34.833 34.833 0 0 1-30 34.448v8.459a43.233 43.233 0 0 0 38.39-42.907A43.222 43.222 0 0 0 84.825-.004l.007.004z"/><path d="m33.483 41.212 5.255 17.732.637 2.148h27.473v3.137H29.291l-.044-.144-.163-.283-5.8-19.567 10.2-3.023zm.19-3.068a2.74 2.74 0 0 0-.773.112L22.163 41.44a2.718 2.718 0 0 0-1.834 3.38l5.89 19.877c.063.208.15.407.26.594a2.719 2.719 0 0 0 2.6 1.94h38.047a2.72 2.72 0 0 0 2.719-2.72v-3.7a2.717 2.717 0 0 0-2.719-2.718H41.611l-5.335-18a2.72 2.72 0 0 0-2.606-1.947h.004z"/></g><defs><clipPath id="a"><path fill="#fff" d="M0 0h128v116.46H0z"/></clipPath></defs></svg>