<svg width="46" height="27" viewBox="0 0 46 27" fill="none" xmlns="http://www.w3.org/2000/svg">
<path fill-rule="evenodd" clip-rule="evenodd" d="M18.3003 2.72021C17.887 2.72021 17.5183 2.97278 17.3704 3.34738L17.3685 3.35211L13.5603 12.8578L13.5594 12.8602L32.4803 12.8602V12.8578L32.4798 12.8567L28.6743 3.3579L28.6733 3.35545C28.5132 2.96557 28.1448 2.72021 27.7403 2.72021H18.3003ZM15.5111 2.61045C15.9639 1.46651 17.0744 0.720215 18.3003 0.720215H27.7403C28.9749 0.720215 30.0658 1.47383 30.5262 2.60253L30.5285 2.60831L34.3407 12.1237C34.8574 13.4353 33.9003 14.8602 32.4803 14.8602H13.5603C12.1402 14.8602 11.1831 13.4354 11.6998 12.1237L11.702 12.1183L15.5101 2.61305L15.5111 2.61045Z" fill="#414652"/>
<path fill-rule="evenodd" clip-rule="evenodd" d="M7.66025 14.8602C7.24702 14.8602 6.87828 15.1128 6.73041 15.4874L6.72854 15.4921L2.92025 24.9978L2.91942 25.0002L21.8403 25.0002V24.9978L21.8398 24.9967L18.0343 15.4979L18.0333 15.4954C17.8732 15.1056 17.5048 14.8602 17.1003 14.8602H7.66025ZM4.87113 14.7505C5.32391 13.6065 6.43441 12.8602 7.66025 12.8602H17.1003C18.3349 12.8602 19.4258 13.6138 19.8862 14.7425L19.8885 14.7483L23.7007 24.2637C24.2174 25.5754 23.2603 27.0002 21.8403 27.0002H2.92025C1.50021 27.0002 0.543129 25.5754 1.05985 24.2637L1.06196 24.2583L4.8701 14.753L4.87113 14.7505Z" fill="#414652"/>
<path fill-rule="evenodd" clip-rule="evenodd" d="M28.9403 14.8602C28.527 14.8602 28.1583 15.1128 28.0104 15.4874L28.0085 15.4921L24.2002 24.9978L24.1994 25.0002L43.1203 25.0002L43.1202 24.9978L43.1198 24.9967L39.3143 15.4979L39.3133 15.4955C39.1532 15.1056 38.7848 14.8602 38.3803 14.8602H28.9403ZM26.1511 14.7505C26.6039 13.6065 27.7144 12.8602 28.9403 12.8602H38.3803C39.6149 12.8602 40.7058 13.6138 41.1662 14.7425L41.1685 14.7483L44.9807 24.2637C45.4974 25.5754 44.5403 27.0002 43.1203 27.0002H24.2003C22.7802 27.0002 21.8231 25.5754 22.3398 24.2637L22.342 24.2583L26.1501 14.753L26.1511 14.7505Z" fill="#414652"/>
</svg>
