<svg width="48" height="48" viewBox="0 0 48 48" fill="none" xmlns="http://www.w3.org/2000/svg">
<path d="M18 44.83C18 44.83 4 42.5 4 30.83V17.25C4 16.33 4.63 15.53 5.52 15.31C8.56 14.57 15.32 12.79 18 11C20.67 12.78 27.44 14.57 30.48 15.31C31.38 15.53 32 16.33 32 17.25V30.83C32 42.5 18 44.83 18 44.83Z" stroke="white" stroke-width="2" stroke-linecap="round" stroke-linejoin="round"/>
<path d="M16.26 20.2498L9.68997 31.8498C8.93997 33.1798 9.89997 34.8398 11.43 34.8398H24.57C26.1 34.8398 27.07 33.1898 26.31 31.8498L19.74 20.2498C18.97 18.8998 17.03 18.8998 16.26 20.2498V20.2498Z" stroke="white" stroke-width="2" stroke-linecap="round" stroke-linejoin="round"/>
<path d="M18 26.1699V28.1699" stroke="white" stroke-width="2" stroke-linecap="round" stroke-linejoin="round"/>
<path d="M18 30.1699C17.45 30.1699 17 30.6199 17 31.1699C17 31.7199 17.45 32.1699 18 32.1699C18.55 32.1699 19 31.7199 19 31.1699C19 30.6199 18.55 30.1699 18 30.1699Z" fill="white"/>
<path d="M39.5 4C41.98 4 44 6.02 44 8.5C44 10.98 41.98 13 39.5 13C37.02 13 35 10.98 35 8.5C35 6.02 37.02 4 39.5 4ZM39.5 2C35.91 2 33 4.91 33 8.5C33 12.09 35.91 15 39.5 15C43.09 15 46 12.09 46 8.5C46 4.91 43.09 2 39.5 2Z" fill="white"/>
<path d="M38 9L39 10L41 8" stroke="white" stroke-width="2" stroke-linecap="round" stroke-linejoin="round"/>
</svg>
