<svg width="48" height="48" viewBox="0 0 48 48" fill="none" xmlns="http://www.w3.org/2000/svg">
<path fill-rule="evenodd" clip-rule="evenodd" d="M9.77977 15.8798L11.0698 13.6998C11.5298 12.9298 12.3598 12.4498 13.2598 12.4398L15.7898 12.4098C16.2198 12.4098 16.6398 12.2898 17.0198 12.0798L19.2298 10.8398C20.0098 10.3998 20.9698 10.3998 21.7598 10.8398L23.9698 12.0798C24.3498 12.2898 24.7698 12.3998 25.1998 12.4098L27.7298 12.4398C28.6298 12.4498 29.4598 12.9298 29.9198 13.6998L31.2098 15.8798C31.4298 16.2498 31.7398 16.5598 32.1098 16.7798L34.2898 18.0698C35.0598 18.5298 35.5398 19.3598 35.5498 20.2598L35.5798 22.7898C35.5798 23.2198 35.6998 23.6398 35.9098 24.0198L37.1498 26.2298C37.5898 27.0098 37.5898 27.9698 37.1498 28.7598L35.9098 30.9698C35.6998 31.3498 35.5898 31.7698 35.5798 32.1998L35.5498 34.7298C35.5398 35.6298 35.0598 36.4598 34.2898 36.9198L32.1098 38.2098C31.7398 38.4298 31.4298 38.7398 31.2098 39.1098L29.9198 41.2898C29.4598 42.0598 28.6298 42.5398 27.7298 42.5498L25.1998 42.5798C24.7698 42.5798 24.3498 42.6998 23.9698 42.9098L21.7598 44.1498C20.9798 44.5898 20.0198 44.5898 19.2298 44.1498L17.0198 42.9098C16.6398 42.6998 16.2198 42.5898 15.7898 42.5798L13.2598 42.5498C12.3598 42.5398 11.5298 42.0598 11.0698 41.2898L9.77977 39.1098C9.55977 38.7398 9.24977 38.4298 8.87977 38.2098L6.69977 36.9198C5.92977 36.4598 5.44977 35.6298 5.43977 34.7298L5.40977 32.1998C5.40977 31.7698 5.28977 31.3498 5.07977 30.9698L3.83977 28.7598C3.39977 27.9798 3.39977 27.0198 3.83977 26.2298L5.07977 24.0198C5.28977 23.6398 5.39977 23.2198 5.40977 22.7898L5.43977 20.2598C5.44977 19.3598 5.92977 18.5298 6.69977 18.0698L8.87977 16.7798C9.24977 16.5598 9.55977 16.2498 9.77977 15.8798V15.8798Z" stroke="white" stroke-width="2" stroke-miterlimit="10" stroke-linecap="round"/>
<path d="M27.0994 20.8999L13.8994 34.0999" stroke="white" stroke-width="2" stroke-miterlimit="10" stroke-linecap="round"/>
<path d="M24.8992 34.0997C26.1142 34.0997 27.0992 33.1147 27.0992 31.8997C27.0992 30.6847 26.1142 29.6997 24.8992 29.6997C23.6842 29.6997 22.6992 30.6847 22.6992 31.8997C22.6992 33.1147 23.6842 34.0997 24.8992 34.0997Z" stroke="white" stroke-width="2" stroke-miterlimit="10" stroke-linecap="round"/>
<path d="M16.0994 25.2999C17.3144 25.2999 18.2994 24.3149 18.2994 23.0999C18.2994 21.8849 17.3144 20.8999 16.0994 20.8999C14.8844 20.8999 13.8994 21.8849 13.8994 23.0999C13.8994 24.3149 14.8844 25.2999 16.0994 25.2999Z" stroke="white" stroke-width="2" stroke-miterlimit="10" stroke-linecap="round"/>
<path d="M39.5 14C42.5376 14 45 11.5376 45 8.5C45 5.46243 42.5376 3 39.5 3C36.4624 3 34 5.46243 34 8.5C34 11.5376 36.4624 14 39.5 14Z" stroke="white" stroke-width="2" stroke-miterlimit="10" stroke-linecap="round"/>
<path d="M43 5C40.67 7.33 38.33 9.67 36 12" stroke="white" stroke-width="2" stroke-miterlimit="10" stroke-linecap="round"/>
</svg>
