<svg width="180" height="180" fill="none" xmlns="http://www.w3.org/2000/svg"><path d="M41.989 90a4.872 4.872 0 0 0 4.358-2.693L67.5 45c8.96 0 15.893 7.853 14.782 16.745L79.54 83.677A5.625 5.625 0 0 0 85.122 90h44.253c6.213 0 11.25 5.037 11.25 11.25s-5.037 11.25-11.25 11.25h-5.625c6.213 0 11.25 5.037 11.25 11.25S129.963 135 123.75 135h-5.625c6.213 0 11.25 5.037 11.25 11.25s-5.037 11.25-11.25 11.25H112.5c6.213 0 11.25 5.037 11.25 11.25S118.713 180 112.5 180H28.125a5.625 5.625 0 0 1-5.625-5.625v-78.75A5.625 5.625 0 0 1 28.125 90h13.864Z" fill="#85BDB1" fill-opacity=".64"/><path d="M135 112.5s-1.286-2.5-19.286-12.5S91.071 75 90 68.75v-50L135 0l45 18.75v50C178.929 75 172.286 90 154.286 100S135 112.5 135 112.5Z" fill="#85BDB1" style="mix-blend-mode:multiply"/><path d="M129.326 70.924 112.5 54.098l7.043-7.044 9.783 9.783 23.087-23.087 7.044 7.044-30.131 30.13Z" fill="#fff"/><path fill="#85BDB1" fill-opacity=".64" d="M0 90h16.875v90H0z"/></svg>