<svg width="65" height="64" viewBox="0 0 65 64" fill="none" xmlns="http://www.w3.org/2000/svg">
<path d="M8.99995 32.4797H7.49995C6.77995 32.4797 6.19995 31.8997 6.19995 31.1797C6.19995 30.4597 6.77995 29.8797 7.49995 29.8797H8.99995C9.71995 29.8797 10.3 30.4597 10.3 31.1797C10.3 31.8997 9.71995 32.4797 8.99995 32.4797ZM25.26 31.1797C25.26 30.4597 24.6799 29.8797 23.9599 29.8797H12.92C12.2 29.8797 11.62 30.4597 11.62 31.1797C11.62 31.8997 12.2 32.4797 12.92 32.4797H23.9599C24.6799 32.4797 25.26 31.8997 25.26 31.1797ZM30.68 31.1797C30.68 30.4597 30.1 29.8797 29.38 29.8797H27.88C27.16 29.8797 26.58 30.4597 26.58 31.1797C26.58 31.8997 27.16 32.4797 27.88 32.4797H29.38C30.1 32.4797 30.68 31.8997 30.68 31.1797ZM39.04 27.4097L43.65 22.7997V24.1597C43.65 25.2097 44.0599 26.1997 44.7999 26.9497C45.54 27.6897 46.53 28.0997 47.58 28.0997H48.8699C51.0399 28.0997 52.7999 26.3397 52.7999 24.1697V12.2497C52.7999 9.58969 50.63 7.42969 47.9799 7.42969H36.06C33.89 7.42969 32.12 9.19969 32.12 11.3697V12.6497C32.12 14.8197 33.89 16.5897 36.06 16.5897H37.4399L32.83 21.1997C31.15 22.8797 31.15 25.5997 32.83 27.2797L32.9599 27.4097C33.7999 28.2497 34.9 28.6697 36 28.6697C37.1 28.6697 38.2 28.2497 39.04 27.4097ZM50.2 12.2497V24.1697C50.2 24.9097 49.61 25.4997 48.8699 25.4997H47.58C47.22 25.4997 46.8899 25.3597 46.6399 25.1097C46.3899 24.8597 46.25 24.5197 46.25 24.1597V21.7797C46.25 20.8997 45.72 20.1097 44.91 19.7697C44.0999 19.4297 43.16 19.6197 42.54 20.2397L37.2099 25.5697C36.57 26.2097 35.4499 26.2097 34.7999 25.5697L34.6699 25.4397C34.3499 25.1197 34.1699 24.6897 34.1699 24.2397C34.1699 23.7897 34.3499 23.3597 34.6699 23.0397L40 17.7097C40.6199 17.0997 40.8 16.1897 40.47 15.3897C40.11 14.5197 39.25 13.9897 38.2299 13.9897H36.06C35.32 13.9897 34.72 13.3897 34.72 12.6497V11.3697C34.72 10.6297 35.32 10.0297 36.06 10.0297H47.9799C49.2 10.0297 50.2 11.0197 50.2 12.2397V12.2497ZM47.84 54.9297C49.13 54.9297 50.34 54.4297 51.25 53.5197C52.16 52.6097 52.66 51.3997 52.66 50.1097V38.1897C52.66 37.1397 52.25 36.1497 51.5 35.4097C50.7599 34.6697 49.77 34.2597 48.72 34.2597H47.4399C45.27 34.2597 43.5 36.0297 43.5 38.1997V39.5797L38.8499 34.9297C38.0399 34.1197 36.96 33.6697 35.81 33.6697C34.66 33.6697 33.58 34.1197 32.77 34.9297L32.6399 35.0597C31.83 35.8697 31.38 36.9497 31.38 38.0997C31.38 39.2497 31.83 40.3297 32.6399 41.1397L37.29 45.7897H35.9199C33.7499 45.7897 31.9799 47.5597 31.9799 49.7297V51.0097C31.9799 53.1797 33.74 54.9397 35.91 54.9397H47.83L47.84 54.9297ZM38.2999 48.3797C39.18 48.3797 39.97 47.8497 40.31 47.0397C40.65 46.2197 40.4599 45.2897 39.84 44.6597L34.47 39.2897C34.15 38.9697 33.97 38.5397 33.97 38.0897C33.97 37.6397 34.15 37.2097 34.47 36.8897L34.5999 36.7597C35.2399 36.1197 36.36 36.1197 37 36.7597L42.3699 42.1297C42.9799 42.7397 43.8899 42.9297 44.6899 42.5997C45.5599 42.2397 46.09 41.3797 46.09 40.3597V38.1897C46.09 37.4497 46.6899 36.8497 47.43 36.8497H48.7099C49.07 36.8497 49.4 36.9897 49.65 37.2397C49.9 37.4897 50.04 37.8297 50.04 38.1797V50.0997C50.04 50.6897 49.81 51.2497 49.4 51.6697C48.98 52.0897 48.42 52.3197 47.83 52.3197H35.91C35.17 52.3197 34.58 51.7297 34.58 50.9897V49.7097C34.58 48.9697 35.1799 48.3697 35.9199 48.3697H38.2999V48.3797Z" fill="#414652"/>
</svg>
