<svg width="65" height="64" viewBox="0 0 65 64" fill="none" xmlns="http://www.w3.org/2000/svg">
<path d="M51.62 50.9406C51.62 51.6606 51.04 52.2406 50.32 52.2406H24.91C24.19 52.2406 23.61 51.6606 23.61 50.9406C23.61 50.2206 24.19 49.6406 24.91 49.6406H50.32C51.04 49.6406 51.62 50.2206 51.62 50.9406ZM50.32 34.5306C49.6 34.5306 49.02 35.1106 49.02 35.8306V36.3306C49.02 37.0506 49.6 37.6306 50.32 37.6306C51.04 37.6306 51.62 37.0506 51.62 36.3306V35.8306C51.62 35.1106 51.04 34.5306 50.32 34.5306ZM50.32 39.3406C49.6 39.3406 49.02 39.9206 49.02 40.6406V41.5006C49.02 42.2206 49.6 42.8006 50.32 42.8006C51.04 42.8006 51.62 42.2206 51.62 41.5006V40.6406C51.62 39.9206 51.04 39.3406 50.32 39.3406ZM50.32 44.5306C49.6 44.5306 49.02 45.1106 49.02 45.8306V46.3306C49.02 47.0506 49.6 47.6306 50.32 47.6306C51.04 47.6306 51.62 47.0506 51.62 46.3306V45.8306C51.62 45.1106 51.04 44.5306 50.32 44.5306ZM42.46 27.2206L19.65 50.0306C18.84 50.8406 17.76 51.2906 16.61 51.2906C15.46 51.2906 14.38 50.8406 13.57 50.0306L13.45 49.9106C11.77 48.2306 11.77 45.5106 13.45 43.8306L36.23 21.0506H34.87C32.7 21.0506 30.93 19.2806 30.93 17.1106V15.8306C30.93 13.6606 32.7 11.8906 34.87 11.8906H46.79C49.44 11.8906 51.61 14.0506 51.61 16.7006V28.6206C51.61 30.7906 49.85 32.5606 47.68 32.5606H46.4C44.23 32.5606 42.46 30.7906 42.46 28.6206V27.2206ZM43.71 24.2106C44.53 24.5506 45.06 25.3406 45.06 26.2306V28.6206C45.06 29.3606 45.66 29.9606 46.4 29.9606H47.68C48.42 29.9606 49.02 29.3606 49.02 28.6206V16.7006C49.02 16.1106 48.78 15.5506 48.37 15.1306C47.95 14.7106 47.4 14.4806 46.8 14.4806H34.88C34.14 14.4806 33.54 15.0806 33.54 15.8206V17.1006C33.54 17.8406 34.14 18.4406 34.88 18.4406H37.27C38.15 18.4406 38.94 18.9706 39.28 19.7806C39.62 20.5906 39.43 21.5306 38.81 22.1506L15.3 45.6606C14.64 46.3206 14.64 47.4006 15.3 48.0706L15.42 48.1906C16.06 48.8306 17.18 48.8306 17.82 48.1906L41.33 24.6806C41.96 24.0506 42.89 23.8606 43.72 24.2106H43.71Z" fill="#414652"/>
</svg>
