<svg width="25" height="24" viewBox="0 0 25 24" fill="none" xmlns="http://www.w3.org/2000/svg">
<path d="M0.5 4.5C0.5 2.01472 2.51472 0 5 0H20C22.4853 0 24.5 2.01472 24.5 4.5V19.5C24.5 21.9853 22.4853 24 20 24H5C2.51472 24 0.5 21.9853 0.5 19.5V4.5Z" fill="#E22526"/>
<path d="M5 0C2.51472 0 0.5 2.01472 0.5 4.5V4.63071L22.9358 1.08948C22.1478 0.4105 21.1218 0 20 0H5Z" fill="#B51E1E"/>
<path d="M23.399 1.55081L19.2833 24L20 24C22.4853 24 24.5 21.9853 24.5 19.5V4.5C24.5 3.37182 24.0848 2.34061 23.399 1.55081Z" fill="#B51E1E"/>
<path d="M7.2551 12.8033C7.2551 12.4043 7.3181 12.0298 7.4441 11.6798C7.5771 11.3228 7.7661 11.0148 8.0111 10.7558C8.2561 10.4898 8.5536 10.2798 8.9036 10.1258C9.2536 9.97178 9.6526 9.89478 10.1006 9.89478C10.3946 9.89478 10.6641 9.92278 10.9091 9.97878C11.1541 10.0278 11.3921 10.1013 11.6231 10.1993L11.2976 11.4488C11.1506 11.3928 10.9896 11.3438 10.8146 11.3018C10.6396 11.2598 10.4436 11.2388 10.2266 11.2388C9.7646 11.2388 9.4181 11.3823 9.1871 11.6693C8.9631 11.9563 8.8511 12.3343 8.8511 12.8033C8.8511 13.3003 8.9561 13.6853 9.1661 13.9583C9.3831 14.2313 9.7576 14.3678 10.2896 14.3678C10.4786 14.3678 10.6816 14.3503 10.8986 14.3153C11.1156 14.2803 11.3151 14.2243 11.4971 14.1473L11.7176 15.4283C11.5356 15.5053 11.3081 15.5718 11.0351 15.6278C10.7621 15.6838 10.4611 15.7118 10.1321 15.7118C9.6281 15.7118 9.1941 15.6383 8.8301 15.4913C8.4661 15.3373 8.1651 15.1308 7.9271 14.8718C7.6961 14.6128 7.5246 14.3083 7.4126 13.9583C7.3076 13.6013 7.2551 13.2163 7.2551 12.8033Z" fill="white"/>
<path d="M17.7446 8.28828V9.68478H15.5501V15.5648H13.9121V9.68478H11.7176V8.28828H17.7446Z" fill="white"/>
</svg>
