<svg width="25" height="24" viewBox="0 0 25 24" fill="none" xmlns="http://www.w3.org/2000/svg">
<path d="M0.5 4.5C0.5 2.01472 2.51472 0 5 0H20C22.4853 0 24.5 2.01472 24.5 4.5V19.5C24.5 21.9853 22.4853 24 20 24H5C2.51472 24 0.5 21.9853 0.5 19.5V4.5Z" fill="#FF444F"/>
<path d="M5 0C2.51472 0 0.5 2.01472 0.5 4.5V4.63071L22.9358 1.08948C22.1478 0.4105 21.1218 0 20 0H5Z" fill="#E12E3A"/>
<path d="M23.399 1.55081L19.2833 24L20 24C22.4853 24 24.5 21.9853 24.5 19.5V4.5C24.5 3.37182 24.0848 2.34061 23.399 1.55081Z" fill="#E12E3A"/>
<path d="M7.65819 14.2995C7.73519 14.3065 7.82269 14.3135 7.92069 14.3205C8.02569 14.3205 8.14819 14.3205 8.28819 14.3205C9.10719 14.3205 9.71269 14.114 10.1047 13.701C10.5037 13.288 10.7032 12.7175 10.7032 11.9895C10.7032 11.2265 10.5142 10.649 10.1362 10.257C9.75819 9.865 9.15969 9.669 8.34069 9.669C8.22869 9.669 8.11319 9.6725 7.99419 9.6795C7.87519 9.6795 7.76319 9.6865 7.65819 9.7005V14.2995ZM12.3937 11.9895C12.3937 12.6195 12.2957 13.169 12.0997 13.638C11.9037 14.107 11.6237 14.4955 11.2597 14.8035C10.9027 15.1115 10.4652 15.3425 9.94719 15.4965C9.42919 15.6505 8.84819 15.7275 8.20419 15.7275C7.91019 15.7275 7.56719 15.7135 7.17519 15.6855C6.78319 15.6645 6.39819 15.6155 6.02019 15.5385V8.451C6.39819 8.381 6.79019 8.3355 7.19619 8.3145C7.60919 8.2865 7.96269 8.2725 8.25669 8.2725C8.87969 8.2725 9.44319 8.3425 9.94719 8.4825C10.4582 8.6225 10.8957 8.843 11.2597 9.144C11.6237 9.445 11.9037 9.83 12.0997 10.299C12.2957 10.768 12.3937 11.3315 12.3937 11.9895Z" fill="white"/>
<path d="M17.016 15.633C16.813 15.227 16.589 14.8175 16.344 14.4045C16.106 13.9845 15.8295 13.5575 15.5145 13.1235C15.4165 13.2495 15.2905 13.4245 15.1365 13.6485C14.9895 13.8725 14.839 14.1105 14.685 14.3625C14.538 14.6145 14.398 14.856 14.265 15.087C14.132 15.318 14.034 15.5 13.971 15.633H12.102C12.41 15.066 12.767 14.471 13.173 13.848C13.586 13.225 14.0445 12.5635 14.5485 11.8635L12.207 8.3565H14.1915L15.609 10.6245L16.995 8.3565H18.864L16.554 11.8845C17.142 12.6475 17.6355 13.3545 18.0345 14.0055C18.4335 14.6495 18.7485 15.192 18.9795 15.633H17.016Z" fill="white"/>
</svg>
