<svg width="24" height="16" viewBox="0 0 24 16" fill="none" xmlns="http://www.w3.org/2000/svg">
<mask id="mask0_9_32" style="mask-type:alpha" maskUnits="userSpaceOnUse" x="0" y="0" width="24" height="16">
<path d="M22 0H2C0.89543 0 0 0.89543 0 2V14C0 15.1046 0.89543 16 2 16H22C23.1046 16 24 15.1046 24 14V2C24 0.89543 23.1046 0 22 0Z" fill="white"/>
</mask>
<g mask="url(#mask0_9_32)">
<path d="M22 0H2C0.89543 0 0 0.89543 0 2V14C0 15.1046 0.89543 16 2 16H22C23.1046 16 24 15.1046 24 14V2C24 0.89543 23.1046 0 22 0Z" fill="white"/>
<path d="M24 14.688C24 15.4126 23.4126 16 22.688 16H1.312C0.587403 16 0 15.4126 0 14.688H24ZM24 12.24V13.464H0V12.24H24ZM24 9.792V11.016H0V9.792H24ZM24 7.344V8.568H0V7.344H24ZM24 4.896V6.12H0V4.896H24ZM24 2.448V3.672H0V2.448H24ZM22.776 0C23.4097 0 23.931 0.481644 23.9937 1.09885L24 1.224H0.688377C0.688377 0.548003 1.23638 0 1.91238 0H22.776Z" fill="#F44336"/>
<path d="M2 0H11.5V8.568H0V2C0 0.89543 0.89543 0 2 0Z" fill="#0D47A1"/>
<path d="M1.09381 6.81644L1.18901 7.09804H1.48421C1.501 7.09847 1.51573 7.10934 1.5211 7.12525C1.52646 7.14117 1.52131 7.15874 1.50821 7.16924L1.26821 7.34604L1.35861 7.62764C1.36419 7.64413 1.35824 7.66232 1.34399 7.67231C1.32974 7.68231 1.3106 7.68171 1.29701 7.67084L1.05701 7.49884L0.817007 7.67084C0.80322 7.68053 0.784841 7.68053 0.771046 7.67086C0.75725 7.66119 0.750997 7.6439 0.755407 7.62764L0.853807 7.34764L0.613807 7.17084C0.600702 7.16034 0.595553 7.14277 0.600918 7.12685C0.606283 7.11094 0.621018 7.10007 0.637807 7.09964H0.933807L1.02901 6.81804C1.03461 6.77804 1.08261 6.77804 1.09381 6.81644ZM10.1292 6.79089C10.1449 6.79051 10.1588 6.80113 10.1626 6.81644L10.2578 7.09804H10.553C10.5698 7.09847 10.5845 7.10934 10.5899 7.12525C10.5953 7.14117 10.5901 7.15874 10.577 7.16924L10.337 7.34604L10.4274 7.62764C10.433 7.64413 10.427 7.66232 10.4128 7.67231C10.3985 7.68231 10.3794 7.68171 10.3658 7.67084L10.1258 7.49884L9.88581 7.67084C9.87202 7.68053 9.85364 7.68053 9.83985 7.67086C9.82605 7.66119 9.8198 7.6439 9.82421 7.62764L9.92261 7.34764L9.68261 7.17084C9.6695 7.16034 9.66435 7.14277 9.66972 7.12685C9.67508 7.11094 9.68982 7.10007 9.70661 7.09964H10.0018L10.097 6.81804C10.1 6.80257 10.1134 6.79128 10.1292 6.79089ZM7.86036 6.79089C7.87613 6.79051 7.89003 6.80113 7.89381 6.81644L7.98901 7.09804H8.28421C8.301 7.09847 8.31573 7.10934 8.3211 7.12525C8.32646 7.14117 8.32131 7.15874 8.30821 7.16924L8.06821 7.34604L8.15861 7.62764C8.16419 7.64413 8.15824 7.66232 8.14399 7.67231C8.12974 7.68231 8.1106 7.68171 8.09701 7.67084L7.85701 7.49884L7.61701 7.67084C7.60322 7.68053 7.58484 7.68053 7.57105 7.67086C7.55725 7.66119 7.551 7.6439 7.55541 7.62764L7.65381 7.34764L7.41381 7.17084C7.4007 7.16034 7.39555 7.14277 7.40092 7.12685C7.40628 7.11094 7.42102 7.10007 7.43781 7.09964H7.73301L7.82821 6.81804C7.83123 6.80257 7.8446 6.79128 7.86036 6.79089ZM3.36181 6.81644L3.45701 7.09804H3.75221C3.769 7.09847 3.78373 7.10934 3.7891 7.12525C3.79446 7.14117 3.78931 7.15874 3.77621 7.16924L3.53621 7.34604L3.62661 7.62764C3.63219 7.64413 3.62624 7.66232 3.61199 7.67231C3.59774 7.68231 3.5786 7.68171 3.56501 7.67084L3.32501 7.49884L3.08501 7.67084C3.07122 7.68053 3.05284 7.68053 3.03905 7.67086C3.02525 7.66119 3.019 7.6439 3.02341 7.62764L3.12181 7.34764L2.88181 7.17084C2.8687 7.16034 2.86355 7.14277 2.86892 7.12685C2.87428 7.11094 2.88902 7.10007 2.90581 7.09964H3.20181L3.29701 6.81804C3.29781 6.77804 3.35061 6.77804 3.36181 6.81644ZM5.63061 6.81644L5.72581 7.09804H6.02101C6.0378 7.09847 6.05253 7.10934 6.0579 7.12525C6.06326 7.14117 6.05811 7.15874 6.04501 7.16924L5.80501 7.34604L5.89541 7.62764C5.90099 7.64413 5.89504 7.66232 5.88079 7.67231C5.86654 7.68231 5.8474 7.68171 5.83381 7.67084L5.59381 7.49884L5.35381 7.67084C5.34002 7.68053 5.32164 7.68053 5.30785 7.67086C5.29405 7.66119 5.2878 7.6439 5.29221 7.62764L5.39061 7.34764L5.15061 7.17084C5.1375 7.16034 5.13235 7.14277 5.13772 7.12685C5.14308 7.11094 5.15782 7.10007 5.17461 7.09964H5.47061L5.56581 6.81804C5.56661 6.77804 5.61941 6.77804 5.63061 6.81644ZM2.22821 6.07244L2.32341 6.35404H2.61861C2.6354 6.35447 2.65013 6.36534 2.6555 6.38125C2.66086 6.39717 2.65571 6.41474 2.64261 6.42524L2.40261 6.60204L2.49301 6.88364C2.49859 6.90013 2.49264 6.91832 2.47839 6.92831C2.46414 6.93831 2.445 6.93771 2.43141 6.92684L2.19141 6.75484L1.95141 6.92684C1.93762 6.93653 1.91924 6.93653 1.90545 6.92686C1.89165 6.91719 1.8854 6.8999 1.88981 6.88364L1.98021 6.60204L1.74021 6.42524C1.7271 6.41474 1.72195 6.39717 1.72732 6.38125C1.73268 6.36534 1.74742 6.35447 1.76421 6.35404H2.06821L2.16341 6.07244C2.16901 6.03404 2.21701 6.03404 2.22821 6.07244ZM9.00981 6.04057C9.02119 6.04714 9.02821 6.05929 9.02821 6.07244L9.12341 6.35404H9.41861C9.4354 6.35447 9.45013 6.36534 9.4555 6.38125C9.46086 6.39717 9.45571 6.41474 9.44261 6.42524L9.20261 6.60204L9.29301 6.88364C9.29859 6.90013 9.29264 6.91832 9.27839 6.92831C9.26414 6.93831 9.245 6.93771 9.23141 6.92684L8.99141 6.75484L8.75141 6.92684C8.73762 6.93653 8.71924 6.93653 8.70545 6.92686C8.69165 6.91719 8.6854 6.8999 8.68981 6.88364L8.78021 6.60204L8.54021 6.42524C8.5271 6.41474 8.52195 6.39717 8.52732 6.38125C8.53268 6.36534 8.54742 6.35447 8.56421 6.35404H8.85941L8.95461 6.07244C8.95461 6.05929 8.96162 6.04714 8.97301 6.04057C8.98439 6.034 8.99842 6.034 9.00981 6.04057ZM6.76501 6.07244L6.86021 6.35404H7.15541C7.1722 6.35447 7.18693 6.36534 7.1923 6.38125C7.19766 6.39717 7.19251 6.41474 7.17941 6.42524L6.93941 6.60204L7.02981 6.88364C7.03539 6.90013 7.02944 6.91832 7.01519 6.92831C7.00094 6.93831 6.9818 6.93771 6.96821 6.92684L6.72821 6.75484L6.48821 6.92684C6.47442 6.93653 6.45604 6.93653 6.44225 6.92686C6.42845 6.91719 6.4222 6.8999 6.42661 6.88364L6.51701 6.60204L6.27701 6.42524C6.2639 6.41474 6.25875 6.39717 6.26412 6.38125C6.26948 6.36534 6.28422 6.35447 6.30101 6.35404H6.59621L6.69141 6.07244C6.70101 6.03404 6.75381 6.03404 6.76501 6.07244ZM4.49621 6.07244L4.59141 6.35404H4.88661C4.9034 6.35447 4.91813 6.36534 4.9235 6.38125C4.92886 6.39717 4.92371 6.41474 4.91061 6.42524L4.67061 6.60204L4.76101 6.88364C4.76659 6.90013 4.76064 6.91832 4.74639 6.92831C4.73214 6.93831 4.713 6.93771 4.69941 6.92684L4.45941 6.75484L4.21941 6.92684C4.20562 6.93653 4.18724 6.93653 4.17345 6.92686C4.15965 6.91719 4.1534 6.8999 4.15781 6.88364L4.24821 6.60204L4.00821 6.42524C3.9951 6.41474 3.98995 6.39717 3.99532 6.38125C4.00068 6.36534 4.01542 6.35447 4.03221 6.35404H4.33621L4.43141 6.07244C4.43221 6.03404 4.48501 6.03404 4.49621 6.07244ZM3.36181 5.35164L3.45701 5.63324H3.75221C3.769 5.63367 3.78373 5.64454 3.7891 5.66045C3.79446 5.67637 3.78931 5.69394 3.77621 5.70444L3.53621 5.88124L3.62661 6.16284C3.63219 6.17933 3.62624 6.19752 3.61199 6.20751C3.59774 6.21751 3.5786 6.21691 3.56501 6.20604L3.32501 6.03404L3.08501 6.20604C3.07122 6.21573 3.05284 6.21573 3.03905 6.20606C3.02525 6.19639 3.019 6.1791 3.02341 6.16284L3.11381 5.88124L2.87381 5.70444C2.8607 5.69394 2.85555 5.67637 2.86092 5.66045C2.86628 5.64454 2.88102 5.63367 2.89781 5.63324H3.20181L3.29701 5.35164C3.29781 5.31884 3.35061 5.31884 3.36181 5.35164ZM10.1626 5.35164L10.2578 5.63324H10.553C10.5698 5.63367 10.5845 5.64454 10.5899 5.66045C10.5953 5.67637 10.5901 5.69394 10.577 5.70444L10.337 5.88124L10.4274 6.16284C10.433 6.17933 10.427 6.19752 10.4128 6.20751C10.3985 6.21751 10.3794 6.21691 10.3658 6.20604L10.1258 6.03404L9.88581 6.20604C9.87202 6.21573 9.85364 6.21573 9.83985 6.20606C9.82605 6.19639 9.8198 6.1791 9.82421 6.16284L9.91461 5.88124L9.67461 5.70444C9.6615 5.69394 9.65635 5.67637 9.66172 5.66045C9.66708 5.64454 9.68182 5.63367 9.69861 5.63324H9.99381L10.089 5.35164C10.1034 5.31884 10.1562 5.31884 10.1626 5.35164ZM1.09381 5.35164L1.18901 5.63324H1.48421C1.501 5.63367 1.51573 5.64454 1.5211 5.66045C1.52646 5.67637 1.52131 5.69394 1.50821 5.70444L1.26821 5.88124L1.35861 6.16284C1.36419 6.17933 1.35824 6.19752 1.34399 6.20751C1.32974 6.21751 1.3106 6.21691 1.29701 6.20604L1.05701 6.03404L0.817007 6.20604C0.80322 6.21573 0.784841 6.21573 0.771046 6.20606C0.75725 6.19639 0.750997 6.1791 0.755407 6.16284L0.845807 5.88124L0.605807 5.70444C0.592702 5.69394 0.587553 5.67637 0.592918 5.66045C0.598283 5.64454 0.613018 5.63367 0.629807 5.63324H0.933807L1.02901 5.35164C1.03461 5.31884 1.08261 5.31884 1.09381 5.35164ZM7.89381 5.35164L7.98901 5.63324H8.28421C8.301 5.63367 8.31573 5.64454 8.3211 5.66045C8.32646 5.67637 8.32131 5.69394 8.30821 5.70444L8.06821 5.88124L8.15861 6.16284C8.16419 6.17933 8.15824 6.19752 8.14399 6.20751C8.12974 6.21751 8.1106 6.21691 8.09701 6.20604L7.85701 6.03404L7.61701 6.20604C7.60322 6.21573 7.58484 6.21573 7.57105 6.20606C7.55725 6.19639 7.551 6.1791 7.55541 6.16284L7.64581 5.88124L7.40581 5.70444C7.3927 5.69394 7.38755 5.67637 7.39292 5.66045C7.39828 5.64454 7.41302 5.63367 7.42981 5.63324H7.72501L7.82021 5.35164C7.83461 5.31884 7.88741 5.31884 7.89381 5.35164ZM5.63061 5.35164L5.72581 5.63324H6.02101C6.0378 5.63367 6.05253 5.64454 6.0579 5.66045C6.06326 5.67637 6.05811 5.69394 6.04501 5.70444L5.80501 5.88124L5.89541 6.16284C5.90099 6.17933 5.89504 6.19752 5.88079 6.20751C5.86654 6.21751 5.8474 6.21691 5.83381 6.20604L5.59381 6.03404L5.35381 6.20604C5.34002 6.21573 5.32164 6.21573 5.30785 6.20606C5.29405 6.19639 5.2878 6.1791 5.29221 6.16284L5.38261 5.88124L5.14261 5.70444C5.1295 5.69394 5.12435 5.67637 5.12972 5.66045C5.13508 5.64454 5.14982 5.63367 5.16661 5.63324H5.47061L5.56581 5.35164C5.56661 5.31884 5.61941 5.31884 5.63061 5.35164ZM2.22821 4.60844L2.32341 4.89004H2.61861C2.6354 4.89047 2.65013 4.90134 2.6555 4.91725C2.66086 4.93317 2.65571 4.95074 2.64261 4.96124L2.40261 5.13804L2.49301 5.41964C2.49859 5.43613 2.49264 5.45432 2.47839 5.46431C2.46414 5.47431 2.445 5.47371 2.43141 5.46284L2.19141 5.29084L1.95141 5.46284C1.93762 5.47253 1.91924 5.47253 1.90545 5.46286C1.89165 5.45319 1.8854 5.4359 1.88981 5.41964L1.98821 5.13964L1.74821 4.96284C1.7351 4.95234 1.72995 4.93477 1.73532 4.91885C1.74068 4.90294 1.75542 4.89207 1.77221 4.89164H2.06821L2.16341 4.61004C2.16901 4.57004 2.21701 4.57004 2.22821 4.60844ZM8.99141 4.57164C9.01173 4.57164 9.02821 4.58812 9.02821 4.60844L9.12341 4.89004H9.41861C9.4354 4.89047 9.45013 4.90134 9.4555 4.91725C9.46086 4.93317 9.45571 4.95074 9.44261 4.96124L9.20261 5.13804L9.29301 5.41964C9.29859 5.43613 9.29264 5.45432 9.27839 5.46431C9.26414 5.47431 9.245 5.47371 9.23141 5.46284L8.99141 5.29084L8.75141 5.46284C8.73762 5.47253 8.71924 5.47253 8.70545 5.46286C8.69165 5.45319 8.6854 5.4359 8.68981 5.41964L8.78021 5.13804L8.54021 4.96124C8.5271 4.95074 8.52195 4.93317 8.52732 4.91725C8.53268 4.90134 8.54742 4.89047 8.56421 4.89004H8.85941L8.95461 4.60844C8.95461 4.58812 8.97108 4.57164 8.99141 4.57164ZM6.76501 4.60844L6.86021 4.89004H7.15541C7.1722 4.89047 7.18693 4.90134 7.1923 4.91725C7.19766 4.93317 7.19251 4.95074 7.17941 4.96124L6.93941 5.13804L7.02981 5.41964C7.03539 5.43613 7.02944 5.45432 7.01519 5.46431C7.00094 5.47431 6.9818 5.47371 6.96821 5.46284L6.72821 5.29084L6.48821 5.46284C6.47442 5.47253 6.45604 5.47253 6.44225 5.46286C6.42845 5.45319 6.4222 5.4359 6.42661 5.41964L6.51701 5.13804L6.27701 4.96124C6.2639 4.95074 6.25875 4.93317 6.26412 4.91725C6.26948 4.90134 6.28422 4.89047 6.30101 4.89004H6.59621L6.69141 4.60844C6.70101 4.57004 6.75381 4.57004 6.76501 4.60844ZM4.49621 4.60844L4.59141 4.89004H4.88661C4.9034 4.89047 4.91813 4.90134 4.9235 4.91725C4.92886 4.93317 4.92371 4.95074 4.91061 4.96124L4.67061 5.13804L4.76101 5.41964C4.76659 5.43613 4.76064 5.45432 4.74639 5.46431C4.73214 5.47431 4.713 5.47371 4.69941 5.46284L4.45941 5.29084L4.21941 5.46284C4.20562 5.47253 4.18724 5.47253 4.17345 5.46286C4.15965 5.45319 4.1534 5.4359 4.15781 5.41964L4.25621 5.13964L4.01621 4.96284C4.0031 4.95234 3.99795 4.93477 4.00332 4.91885C4.00868 4.90294 4.02342 4.89207 4.04021 4.89164H4.33621L4.43141 4.61004C4.43221 4.57004 4.48501 4.57004 4.49621 4.60844ZM3.36181 3.89244L3.45701 4.17404H3.75221C3.769 4.17447 3.78373 4.18534 3.7891 4.20125C3.79446 4.21717 3.78931 4.23474 3.77621 4.24524L3.53621 4.42204L3.62661 4.70364C3.63219 4.72013 3.62624 4.73832 3.61199 4.74831C3.59774 4.75831 3.5786 4.75771 3.56501 4.74684L3.32501 4.57484L3.08501 4.74684C3.07122 4.75653 3.05284 4.75654 3.03905 4.74686C3.02525 4.73719 3.019 4.7199 3.02341 4.70364L3.12181 4.42364L2.88181 4.24684C2.8687 4.23634 2.86355 4.21877 2.86892 4.20285C2.87428 4.18694 2.88902 4.17607 2.90581 4.17564H3.20181L3.29701 3.89404C3.29781 3.85404 3.35061 3.85404 3.36181 3.89244ZM10.1292 3.86689C10.1449 3.86651 10.1588 3.87713 10.1626 3.89244L10.2578 4.17404H10.553C10.5698 4.17447 10.5845 4.18534 10.5899 4.20125C10.5953 4.21717 10.5901 4.23474 10.577 4.24524L10.337 4.42204L10.4274 4.70364C10.433 4.72013 10.427 4.73832 10.4128 4.74831C10.3985 4.75831 10.3794 4.75771 10.3658 4.74684L10.1258 4.57484L9.88581 4.74684C9.87202 4.75653 9.85364 4.75654 9.83985 4.74686C9.82605 4.73719 9.8198 4.7199 9.82421 4.70364L9.92261 4.42364L9.68261 4.24684C9.6695 4.23634 9.66435 4.21877 9.66972 4.20285C9.67508 4.18694 9.68982 4.17607 9.70661 4.17564H10.0018L10.097 3.89404C10.1 3.87857 10.1134 3.86728 10.1292 3.86689ZM7.85701 3.85564C7.87733 3.85564 7.89381 3.87212 7.89381 3.89244L7.98901 4.17404H8.28421C8.301 4.17447 8.31573 4.18534 8.3211 4.20125C8.32646 4.21717 8.32131 4.23474 8.30821 4.24524L8.06821 4.42204L8.15861 4.70364C8.16419 4.72013 8.15824 4.73832 8.14399 4.74831C8.12974 4.75831 8.1106 4.75771 8.09701 4.74684L7.85701 4.57484L7.61701 4.74684C7.60322 4.75653 7.58484 4.75654 7.57105 4.74686C7.55725 4.73719 7.551 4.7199 7.55541 4.70364L7.64581 4.42204L7.40581 4.24524C7.3927 4.23474 7.38755 4.21717 7.39292 4.20125C7.39828 4.18534 7.41302 4.17447 7.42981 4.17404H7.72501L7.82021 3.89244C7.82021 3.87212 7.83668 3.85564 7.85701 3.85564ZM1.09381 3.89244L1.18901 4.17404H1.48421C1.501 4.17447 1.51573 4.18534 1.5211 4.20125C1.52646 4.21717 1.52131 4.23474 1.50821 4.24524L1.26821 4.42204L1.35861 4.70364C1.36419 4.72013 1.35824 4.73832 1.34399 4.74831C1.32974 4.75831 1.3106 4.75771 1.29701 4.74684L1.05701 4.57484L0.817007 4.74684C0.80322 4.75653 0.784841 4.75654 0.771046 4.74686C0.75725 4.73719 0.750997 4.7199 0.755407 4.70364L0.853807 4.42364L0.613807 4.24684C0.600702 4.23634 0.595553 4.21877 0.600918 4.20285C0.606283 4.18694 0.621018 4.17607 0.637807 4.17564H0.933807L1.02901 3.89404C1.03461 3.85404 1.08261 3.85404 1.09381 3.89244ZM5.63061 3.89244L5.72581 4.17404H6.02101C6.0378 4.17447 6.05253 4.18534 6.0579 4.20125C6.06326 4.21717 6.05811 4.23474 6.04501 4.24524L5.80501 4.42204L5.89541 4.70364C5.90099 4.72013 5.89504 4.73832 5.88079 4.74831C5.86654 4.75831 5.8474 4.75771 5.83381 4.74684L5.59381 4.57484L5.35381 4.74684C5.34002 4.75653 5.32164 4.75654 5.30785 4.74686C5.29405 4.73719 5.2878 4.7199 5.29221 4.70364L5.38261 4.42204L5.14261 4.24524C5.1295 4.23474 5.12435 4.21717 5.12972 4.20125C5.13508 4.18534 5.14982 4.17447 5.16661 4.17404H5.47061L5.56581 3.89244C5.56661 3.85404 5.61941 3.85404 5.63061 3.89244ZM2.22821 3.14284L2.32341 3.42444H2.61861C2.6354 3.42487 2.65013 3.43574 2.6555 3.45165C2.66086 3.46757 2.65571 3.48514 2.64261 3.49564L2.40261 3.67244L2.49301 3.95404C2.49859 3.97053 2.49264 3.98872 2.47839 3.99871C2.46414 4.00871 2.445 4.00811 2.43141 3.99724L2.19141 3.82524L1.95141 3.99724C1.93762 4.00693 1.91924 4.00693 1.90545 3.99726C1.89165 3.98759 1.8854 3.9703 1.88981 3.95404L1.98021 3.67244L1.74021 3.49564C1.7271 3.48514 1.72195 3.46757 1.72732 3.45165C1.73268 3.43574 1.74742 3.42487 1.76421 3.42444H2.06821L2.16341 3.14284C2.16901 3.11004 2.21701 3.11004 2.22821 3.14284ZM6.76501 3.14284L6.86021 3.42444H7.15541C7.1722 3.42487 7.18693 3.43574 7.1923 3.45165C7.19766 3.46757 7.19251 3.48514 7.17941 3.49564L6.93941 3.67244L7.02981 3.95404C7.03539 3.97053 7.02944 3.98872 7.01519 3.99871C7.00094 4.00871 6.9818 4.00811 6.96821 3.99724L6.72821 3.82524L6.48821 3.99724C6.47442 4.00693 6.45604 4.00693 6.44225 3.99726C6.42845 3.98759 6.4222 3.9703 6.42661 3.95404L6.51701 3.67244L6.27701 3.49564C6.2639 3.48514 6.25875 3.46757 6.26412 3.45165C6.26948 3.43574 6.28422 3.42487 6.30101 3.42444H6.59621L6.69141 3.14284C6.70101 3.11004 6.75381 3.11004 6.76501 3.14284ZM4.49621 3.14284L4.59141 3.42444H4.88661C4.9034 3.42487 4.91813 3.43574 4.9235 3.45165C4.92886 3.46757 4.92371 3.48514 4.91061 3.49564L4.67061 3.67244L4.76101 3.95404C4.76659 3.97053 4.76064 3.98872 4.74639 3.99871C4.73214 4.00871 4.713 4.00811 4.69941 3.99724L4.45941 3.82524L4.21941 3.99724C4.20562 4.00693 4.18724 4.00693 4.17345 3.99726C4.15965 3.98759 4.1534 3.9703 4.15781 3.95404L4.24821 3.67244L4.00821 3.49564C3.9951 3.48514 3.98995 3.46757 3.99532 3.45165C4.00068 3.43574 4.01542 3.42487 4.03221 3.42444H4.33621L4.43141 3.14284C4.43221 3.11004 4.48501 3.11004 4.49621 3.14284ZM9.02821 3.14284L9.12341 3.42444H9.41861C9.4354 3.42487 9.45013 3.43574 9.4555 3.45165C9.46086 3.46757 9.45571 3.48514 9.44261 3.49564L9.20261 3.67244L9.29301 3.95404C9.29859 3.97053 9.29264 3.98872 9.27839 3.99871C9.26414 4.00871 9.245 4.00811 9.23141 3.99724L8.99141 3.82524L8.75141 3.99724C8.73762 4.00693 8.71924 4.00693 8.70545 3.99726C8.69165 3.98759 8.6854 3.9703 8.68981 3.95404L8.78021 3.67244L8.54021 3.49564C8.5271 3.48514 8.52195 3.46757 8.52732 3.45165C8.53268 3.43574 8.54742 3.42487 8.56421 3.42444H8.85941L8.95461 3.14284C8.96901 3.11004 9.02181 3.11004 9.02821 3.14284ZM5.63061 2.42764L5.72581 2.70924H6.02101C6.0378 2.70967 6.05253 2.72054 6.0579 2.73645C6.06326 2.75237 6.05811 2.76994 6.04501 2.78044L5.80501 2.95724L5.89541 3.23884C5.90099 3.25533 5.89504 3.27352 5.88079 3.28351C5.86654 3.29351 5.8474 3.29291 5.83381 3.28204L5.59381 3.11004L5.35381 3.28204C5.34002 3.29173 5.32164 3.29173 5.30785 3.28206C5.29405 3.27239 5.2878 3.2551 5.29221 3.23884L5.38261 2.95724L5.14261 2.78044C5.1295 2.76994 5.12435 2.75237 5.12972 2.73645C5.13508 2.72054 5.14982 2.70967 5.16661 2.70924H5.47061L5.56581 2.42764C5.56661 2.39484 5.61941 2.39484 5.63061 2.42764ZM1.09381 2.42764L1.18901 2.70924H1.48421C1.501 2.70967 1.51573 2.72054 1.5211 2.73645C1.52646 2.75237 1.52131 2.76994 1.50821 2.78044L1.26821 2.95724L1.35861 3.23884C1.36419 3.25533 1.35824 3.27352 1.34399 3.28351C1.32974 3.29351 1.3106 3.29291 1.29701 3.28204L1.05701 3.11004L0.817007 3.28204C0.80322 3.29173 0.784841 3.29173 0.771046 3.28206C0.75725 3.27239 0.750997 3.2551 0.755407 3.23884L0.845807 2.95724L0.605807 2.78044C0.592702 2.76994 0.587553 2.75237 0.592918 2.73645C0.598283 2.72054 0.613018 2.70967 0.629807 2.70924H0.933807L1.02901 2.42764C1.03461 2.39484 1.08261 2.39484 1.09381 2.42764ZM3.36501 2.42764L3.46021 2.70924H3.75701C3.7738 2.70967 3.78853 2.72054 3.7939 2.73645C3.79926 2.75237 3.79411 2.76994 3.78101 2.78044L3.54101 2.95724L3.63141 3.23884C3.63699 3.25533 3.63104 3.27352 3.61679 3.28351C3.60254 3.29351 3.5834 3.29291 3.56981 3.28204L3.32981 3.11004L3.08981 3.28204C3.07602 3.29173 3.05764 3.29173 3.04385 3.28206C3.03005 3.27239 3.0238 3.2551 3.02821 3.23884L3.11861 2.95724L2.87861 2.78044C2.8655 2.76994 2.86035 2.75237 2.86572 2.73645C2.87108 2.72054 2.88582 2.70967 2.90261 2.70924H3.19701L3.29221 2.42764C3.29781 2.39484 3.35061 2.39484 3.36501 2.42764ZM7.89381 2.42764L7.98901 2.70924H8.28421C8.301 2.70967 8.31573 2.72054 8.3211 2.73645C8.32646 2.75237 8.32131 2.76994 8.30821 2.78044L8.06821 2.95724L8.15861 3.23884C8.16419 3.25533 8.15824 3.27352 8.14399 3.28351C8.12974 3.29351 8.1106 3.29291 8.09701 3.28204L7.85701 3.11004L7.61701 3.28204C7.60322 3.29173 7.58484 3.29173 7.57105 3.28206C7.55725 3.27239 7.551 3.2551 7.55541 3.23884L7.64581 2.95724L7.40581 2.78044C7.3927 2.76994 7.38755 2.75237 7.39292 2.73645C7.39828 2.72054 7.41302 2.70967 7.42981 2.70924H7.72501L7.82021 2.42764C7.83461 2.39484 7.88741 2.39484 7.89381 2.42764ZM10.1626 2.42764L10.2578 2.70924H10.553C10.5698 2.70967 10.5845 2.72054 10.5899 2.73645C10.5953 2.75237 10.5901 2.76994 10.577 2.78044L10.337 2.95724L10.4274 3.23884C10.433 3.25533 10.427 3.27352 10.4128 3.28351C10.3985 3.29351 10.3794 3.29291 10.3658 3.28204L10.1258 3.11004L9.88581 3.28204C9.87202 3.29173 9.85364 3.29173 9.83985 3.28206C9.82605 3.27239 9.8198 3.2551 9.82421 3.23884L9.91461 2.95724L9.67461 2.78044C9.6615 2.76994 9.65635 2.75237 9.66172 2.73645C9.66708 2.72054 9.68182 2.70967 9.69861 2.70924H9.99381L10.089 2.42764C10.1034 2.39484 10.1562 2.39484 10.1626 2.42764ZM6.76501 1.68364L6.86021 1.96524H7.15541C7.1722 1.96567 7.18693 1.97654 7.1923 1.99245C7.19766 2.00837 7.19251 2.02594 7.17941 2.03644L6.93941 2.21324L7.02981 2.49484C7.03539 2.51133 7.02944 2.52952 7.01519 2.53951C7.00094 2.54951 6.9818 2.54891 6.96821 2.53804L6.72821 2.36604L6.48821 2.53804C6.47442 2.54773 6.45604 2.54773 6.44225 2.53806C6.42845 2.52839 6.4222 2.5111 6.42661 2.49484L6.51701 2.21324L6.27701 2.03644C6.2639 2.02594 6.25875 2.00837 6.26412 1.99245C6.26948 1.97654 6.28422 1.96567 6.30101 1.96524H6.59621L6.69141 1.68364C6.70101 1.64524 6.75381 1.64524 6.76501 1.68364ZM4.49621 1.68364L4.59141 1.96524H4.88661C4.9034 1.96567 4.91813 1.97654 4.9235 1.99245C4.92886 2.00837 4.92371 2.02594 4.91061 2.03644L4.67061 2.21324L4.76101 2.49484C4.76659 2.51133 4.76064 2.52952 4.74639 2.53951C4.73214 2.54951 4.713 2.54891 4.69941 2.53804L4.45941 2.36604L4.21941 2.53804C4.20562 2.54773 4.18724 2.54773 4.17345 2.53806C4.15965 2.52839 4.1534 2.5111 4.15781 2.49484L4.25621 2.21484L4.01621 2.03804C4.0031 2.02754 3.99795 2.00997 4.00332 1.99405C4.00868 1.97814 4.02342 1.96727 4.04021 1.96684H4.33621L4.43141 1.68524C4.43221 1.64524 4.48501 1.64524 4.49621 1.68364ZM2.22821 1.68364L2.32341 1.96524H2.61861C2.6354 1.96567 2.65013 1.97654 2.6555 1.99245C2.66086 2.00837 2.65571 2.02594 2.64261 2.03644L2.40261 2.21324L2.49301 2.49484C2.49859 2.51133 2.49264 2.52952 2.47839 2.53951C2.46414 2.54951 2.445 2.54891 2.43141 2.53804L2.19141 2.36604L1.95141 2.53804C1.93762 2.54773 1.91924 2.54773 1.90545 2.53806C1.89165 2.52839 1.8854 2.5111 1.88981 2.49484L1.98821 2.21484L1.74821 2.03804C1.7351 2.02754 1.72995 2.00997 1.73532 1.99405C1.74068 1.97814 1.75542 1.96727 1.77221 1.96684H2.06821L2.16341 1.68524C2.16901 1.64524 2.21701 1.64524 2.22821 1.68364ZM9.00981 1.65177C9.02119 1.65834 9.02821 1.67049 9.02821 1.68364L9.12341 1.96524H9.41861C9.4354 1.96567 9.45013 1.97654 9.4555 1.99245C9.46086 2.00837 9.45571 2.02594 9.44261 2.03644L9.20261 2.21324L9.29301 2.49484C9.29859 2.51133 9.29264 2.52952 9.27839 2.53951C9.26414 2.54951 9.245 2.54891 9.23141 2.53804L8.99141 2.36604L8.75141 2.53804C8.73762 2.54773 8.71924 2.54773 8.70545 2.53806C8.69165 2.52839 8.6854 2.5111 8.68981 2.49484L8.78021 2.21324L8.54021 2.03644C8.5271 2.02594 8.52195 2.00837 8.52732 1.99245C8.53268 1.97654 8.54742 1.96567 8.56421 1.96524H8.85941L8.95461 1.68364C8.95461 1.67049 8.96162 1.65834 8.97301 1.65177C8.98439 1.6452 8.99842 1.6452 9.00981 1.65177ZM1.09381 0.968441L1.18901 1.25004H1.48421C1.501 1.25047 1.51573 1.26134 1.5211 1.27725C1.52646 1.29317 1.52131 1.31074 1.50821 1.32124L1.26821 1.49804L1.35861 1.77964C1.36419 1.79613 1.35824 1.81432 1.34399 1.82431C1.32974 1.83431 1.3106 1.83371 1.29701 1.82284L1.05701 1.65084L0.817007 1.82284C0.80322 1.83253 0.784841 1.83253 0.771046 1.82286C0.75725 1.81319 0.750997 1.7959 0.755407 1.77964L0.853807 1.49964L0.613807 1.32284C0.600702 1.31234 0.595553 1.29477 0.600918 1.27885C0.606283 1.26294 0.621018 1.25207 0.637807 1.25164H0.933807L1.02901 0.970041C1.03461 0.930041 1.08261 0.930041 1.09381 0.968441ZM3.36181 0.968441L3.45701 1.25004H3.75221C3.769 1.25047 3.78373 1.26134 3.7891 1.27725C3.79446 1.29317 3.78931 1.31074 3.77621 1.32124L3.53621 1.49804L3.62661 1.77964C3.63219 1.79613 3.62624 1.81432 3.61199 1.82431C3.59774 1.83431 3.5786 1.83371 3.56501 1.82284L3.32501 1.65084L3.08501 1.82284C3.07122 1.83253 3.05284 1.83253 3.03905 1.82286C3.02525 1.81319 3.019 1.7959 3.02341 1.77964L3.12181 1.49964L2.88181 1.32284C2.8687 1.31234 2.86355 1.29477 2.86892 1.27885C2.87428 1.26294 2.88902 1.25207 2.90581 1.25164H3.20181L3.29701 0.970041C3.29781 0.930041 3.35061 0.930041 3.36181 0.968441ZM5.63061 0.968441L5.72581 1.25004H6.02101C6.0378 1.25047 6.05253 1.26134 6.0579 1.27725C6.06326 1.29317 6.05811 1.31074 6.04501 1.32124L5.80501 1.49804L5.89541 1.77964C5.90099 1.79613 5.89504 1.81432 5.88079 1.82431C5.86654 1.83431 5.8474 1.83371 5.83381 1.82284L5.59381 1.65084L5.35381 1.82284C5.34002 1.83253 5.32164 1.83253 5.30785 1.82286C5.29405 1.81319 5.2878 1.7959 5.29221 1.77964L5.38261 1.49804L5.14261 1.32124C5.1295 1.31074 5.12435 1.29317 5.12972 1.27725C5.13508 1.26134 5.14982 1.25047 5.16661 1.25004H5.47061L5.56581 0.968441C5.56661 0.930041 5.61941 0.930041 5.63061 0.968441ZM7.87541 0.936571C7.88679 0.943145 7.89381 0.955293 7.89381 0.968441L7.98901 1.25004H8.28421C8.301 1.25047 8.31573 1.26134 8.3211 1.27725C8.32646 1.29317 8.32131 1.31074 8.30821 1.32124L8.06821 1.49804L8.15861 1.77964C8.16419 1.79613 8.15824 1.81432 8.14399 1.82431C8.12974 1.83431 8.1106 1.83371 8.09701 1.82284L7.85701 1.65084L7.61701 1.82284C7.60322 1.83253 7.58484 1.83253 7.57105 1.82286C7.55725 1.81319 7.551 1.7959 7.55541 1.77964L7.64581 1.49804L7.40581 1.32124C7.3927 1.31074 7.38755 1.29317 7.39292 1.27725C7.39828 1.26134 7.41302 1.25047 7.42981 1.25004H7.72501L7.82021 0.968441C7.82021 0.955293 7.82722 0.943145 7.83861 0.936571C7.84999 0.929997 7.86402 0.929997 7.87541 0.936571ZM10.1292 0.942893C10.1449 0.942508 10.1588 0.953134 10.1626 0.968441L10.2578 1.25004H10.553C10.5698 1.25047 10.5845 1.26134 10.5899 1.27725C10.5953 1.29317 10.5901 1.31074 10.577 1.32124L10.337 1.49804L10.4274 1.77964C10.433 1.79613 10.427 1.81432 10.4128 1.82431C10.3985 1.83431 10.3794 1.83371 10.3658 1.82284L10.1258 1.65084L9.88581 1.82284C9.87202 1.83253 9.85364 1.83253 9.83985 1.82286C9.82605 1.81319 9.8198 1.7959 9.82421 1.77964L9.92261 1.49964L9.68261 1.32284C9.6695 1.31234 9.66435 1.29477 9.66972 1.27885C9.67508 1.26294 9.68982 1.25207 9.70661 1.25164H10.0018L10.097 0.970041C10.1 0.954568 10.1134 0.943277 10.1292 0.942893Z" fill="#F5F5F5"/>
<path fill-rule="evenodd" clip-rule="evenodd" d="M22 1H2C1.44772 1 1 1.44772 1 2V14C1 14.5523 1.44772 15 2 15H22C22.5523 15 23 14.5523 23 14V2C23 1.44771 22.5523 1 22 1ZM2 0C0.895431 0 0 0.895431 0 2V14C0 15.1046 0.89543 16 2 16H22C23.1046 16 24 15.1046 24 14V2C24 0.895431 23.1046 0 22 0H2Z" fill="black" fill-opacity="0.04"/>
</g>
</svg>
