<svg width="24" height="16" fill="none" xmlns="http://www.w3.org/2000/svg"><path d="M0 14.171C0 15.181.805 16 1.797 16h20.406c.992 0 1.797-.819 1.797-1.829V8H0v6.171Z" fill="#F44336"/><path d="M22.203 0H1.797C.805 0 0 .819 0 1.829V8h24V1.829C24 .819 23.195 0 22.203 0Z" fill="#fff"/><path fill-rule="evenodd" clip-rule="evenodd" d="M22 1H2a1 1 0 0 0-1 1v12a1 1 0 0 0 1 1h20a1 1 0 0 0 1-1V2a1 1 0 0 0-1-1ZM2 0a2 2 0 0 0-2 2v12a2 2 0 0 0 2 2h20a2 2 0 0 0 2-2V2a2 2 0 0 0-2-2H2Z" fill="#000" fill-opacity=".04"/></svg>