<svg width="24" height="16" fill="none" xmlns="http://www.w3.org/2000/svg"><path d="M22 0H2a2 2 0 0 0-2 2v12a2 2 0 0 0 2 2h20a2 2 0 0 0 2-2V2a2 2 0 0 0-2-2Z" fill="#E92434"/><path fill-rule="evenodd" clip-rule="evenodd" d="M11.556 3c1.604 0 3.031.755 3.946 1.93a4.341 4.341 0 0 0-2.558-.819c-2.3 0-4.166 1.741-4.166 3.889 0 2.148 1.865 3.889 4.166 3.889a4.34 4.34 0 0 0 2.558-.819A5 5 0 1 1 11.555 3Zm4.495 2.657.886 1.337 1.553-.401-.998 1.256.861 1.353-1.502-.562-1.021 1.238.07-1.603-1.493-.588 1.546-.43.098-1.6Z" fill="#fff"/><path fill-rule="evenodd" clip-rule="evenodd" d="M22 1H2a1 1 0 0 0-1 1v12a1 1 0 0 0 1 1h20a1 1 0 0 0 1-1V2a1 1 0 0 0-1-1ZM2 0a2 2 0 0 0-2 2v12a2 2 0 0 0 2 2h20a2 2 0 0 0 2-2V2a2 2 0 0 0-2-2H2Z" fill="#000" fill-opacity=".04"/></svg>