<svg width="25" height="24" viewBox="0 0 25 24" fill="none" xmlns="http://www.w3.org/2000/svg">
<g clip-path="url(#clip0_1593_46438)">
<path d="M22.1 6.8H17.3V8H22.1C22.7615 8 23.3 8.5385 23.3 9.2V16.4C23.3 17.0615 22.7615 17.6 22.1 17.6H19.7V19.4589L16.415 17.6H12.5C11.8385 17.6 11.3 17.0615 11.3 16.4V15.2H10.1V16.3993C10.1 17.7211 11.1781 18.7655 12.4663 18.7655L16.1 18.8L20.1838 21.1111C20.2663 21.1738 20.36 21.2 20.45 21.2C20.6863 21.2 20.9 21.0163 20.9 20.75V18.7989H22.1C23.4219 18.7989 24.5 17.7208 24.5 16.4326V9.16625C24.5 7.87625 23.4238 6.8 22.1 6.8ZM16.1 11.6V4.36625C16.1 3.07812 15.0238 2 13.7 2H2.9C1.57812 2 0.5 3.07812 0.5 4.36625V11.5663C0.5 12.9238 1.57812 14 2.9 14H4.1V15.95C4.1 16.2163 4.3175 16.4 4.55 16.4C4.63925 16.4 4.733 16.3719 4.817 16.3108L8.9 14L13.7 13.997C15.0238 13.9963 16.1 12.9238 16.1 11.6ZM8.585 12.8L5.3 14.66V12.8H2.9C2.2385 12.8 1.7 12.26 1.7 11.6V4.4C1.7 3.7385 2.2385 3.2 2.9 3.2H13.7C14.3615 3.2 14.9 3.7385 14.9 4.4V11.6C14.9 12.2615 14.3615 12.8 13.7 12.8H8.585Z" fill="#414652"/>
<path d="M11.9563 6.37329H3.70147C3.44122 6.37329 3.23047 6.58517 3.23047 6.84429C3.23047 7.10342 3.44122 7.31529 3.70147 7.31529H11.9563C12.2155 7.31529 12.4273 7.10342 12.4273 6.84429C12.4273 6.58517 12.2155 6.37329 11.9563 6.37329Z" fill="#414652"/>
<path d="M7.94159 8.72906C7.94159 8.46993 7.72972 8.25806 7.47059 8.25806H3.70147C3.44122 8.25806 3.23047 8.46993 3.23047 8.72906C3.23047 8.98818 3.44122 9.20006 3.70147 9.20006H7.47059C7.72972 9.20006 7.94159 8.98818 7.94159 8.72906Z" fill="#414652"/>
</g>
<defs>
<clipPath id="clip0_1593_46438">
<rect width="24" height="19.2" fill="white" transform="translate(0.5 2)"/>
</clipPath>
</defs>
</svg>
