<svg width="20" height="20" viewBox="0 0 20 20" fill="none" xmlns="http://www.w3.org/2000/svg">
<g clip-path="url(#clip0_1593_46435)">
<path d="M17.4648 0H2.46484C1.08789 0 -0.0351562 1.12305 -0.0351562 2.46484V13.6797C-0.0351562 15.0566 1.08789 16.1445 2.46484 16.1445H6.21484V19.3906C6.21484 19.7749 6.6457 19.998 6.96172 19.7695L11.8406 16.1094H17.4656C18.8426 16.1094 19.9656 14.9863 19.9656 13.6445V2.46484C19.9648 1.12305 18.875 0 17.4648 0ZM18.75 13.75C18.75 14.4375 18.1875 15 17.5 15H11.8711C11.6005 15 11.3371 15.0878 11.1207 15.2502L7.5 17.9688V15.625C7.5 15.2798 7.22016 15 6.875 15H2.5C1.8125 15 1.25 14.4375 1.25 13.75V2.5C1.25 1.8125 1.8125 1.25 2.5 1.25H17.5C18.1875 1.25 18.75 1.8125 18.75 2.5V13.75ZM16.875 8.75H10.625C10.2812 8.75 10 9.03125 10 9.375C10 9.71875 10.2812 10 10.625 10H16.875C17.2188 10 17.5 9.71875 17.5 9.375C17.5 9.03125 17.2188 8.75 16.875 8.75ZM8.75 9.375C8.75 9.03125 8.46875 8.75 8.125 8.75H3.125C2.77969 8.75 2.5 9.03125 2.5 9.375C2.5 9.71875 2.77969 10 3.125 10H8.125C8.46875 10 8.75 9.71875 8.75 9.375ZM5.625 11.25H4.375C4.03125 11.25 3.75 11.5312 3.75 11.875C3.75 12.2188 4.03125 12.5 4.375 12.5H5.625C5.96875 12.5 6.25 12.2188 6.25 11.875C6.25 11.5312 5.96875 11.25 5.625 11.25ZM15.625 11.25H14.375C14.0312 11.25 13.75 11.5312 13.75 11.875C13.75 12.2188 14.0295 12.5 14.375 12.5H15.625C15.9705 12.5 16.25 12.2205 16.25 11.875C16.25 11.5295 15.9688 11.25 15.625 11.25ZM11.875 11.25H8.125C7.78125 11.25 7.5 11.5312 7.5 11.875C7.5 12.2188 7.78125 12.5 8.125 12.5H11.875C12.2205 12.5 12.5 12.2205 12.5 11.875C12.5 11.5295 12.2188 11.25 11.875 11.25Z" fill="#414652"/>
</g>
<defs>
<clipPath id="clip0_1593_46435">
<rect width="20" height="20" fill="white"/>
</clipPath>
</defs>
</svg>
