<svg xmlns="http://www.w3.org/2000/svg" width="64" height="64"><defs><linearGradient id="a" x1="0%" x2="100%" y1="87.972%" y2="12.028%"><stop offset="0%" stop-color="#FF444F"/><stop offset="100%" stop-color="#FF6444"/></linearGradient></defs><path fill="url(#a)" d="M62 21a2 2 0 012 2v34.773a2 2 0 01-3.329 1.495L53.62 53H18a2 2 0 01-2-2V40h2v11h35.62c.49 0 .962.18 1.329.505L62 57.773V23H52v-2h10zM46 4a2 2 0 012 2v28a2 2 0 01-2 2H10.38l-7.05 6.268A2 2 0 010 40.773V6a2 2 0 012-2zm0 2H2v34.773l7.051-6.268c.367-.325.84-.505 1.33-.505H46V6zM30 22a1 1 0 01.117 1.993L30 24H9a1 1 0 01-.117-1.993L9 22h21zm9-8a1 1 0 01.117 1.993L39 16H9a1 1 0 01-.117-1.993L9 14h30z" fill-rule="evenodd"/></svg>