<svg width="24" height="24" viewBox="0 0 24 24" fill="none" xmlns="http://www.w3.org/2000/svg">
<g clip-path="url(#clip0_771_37740)">
<path fill-rule="evenodd" clip-rule="evenodd" d="M22.2135 1.78397C21.7184 1.28885 20.9157 1.28885 20.4205 1.78397L1.78397 20.4205C1.28885 20.9157 1.28885 21.7184 1.78397 22.2135L1.78406 22.2136L1.78646 22.216C2.28158 22.7112 3.08433 22.7112 3.57945 22.216L22.216 3.57945C22.7112 3.08433 22.7112 2.28158 22.216 1.78646L22.216 1.78642L22.2135 1.78397ZM19.4217 0.785089C20.4685 -0.261696 22.1656 -0.261697 23.2124 0.785088L23.2125 0.785135L23.2149 0.787585C24.2617 1.83437 24.2617 3.53155 23.2149 4.57833L4.57833 23.2149C3.53155 24.2617 1.83437 24.2617 0.787586 23.2149L0.787497 23.2148L0.785089 23.2124C-0.261696 22.1656 -0.261696 20.4685 0.785089 19.4217L19.4217 0.785089ZM4.19547 1.93503C2.9667 1.93503 1.97058 2.93114 1.97058 4.15991C1.97058 5.38869 2.9667 6.3848 4.19547 6.3848C5.42424 6.3848 6.42036 5.38869 6.42036 4.15991C6.42036 2.93114 5.42424 1.93503 4.19547 1.93503ZM0.557954 4.15991C0.557954 2.15097 2.18653 0.522399 4.19547 0.522399C6.20442 0.522399 7.83299 2.15097 7.83299 4.15991C7.83299 6.16886 6.20442 7.79743 4.19547 7.79743C2.18653 7.79743 0.557954 6.16886 0.557954 4.15991ZM19.8368 17.5763C18.608 17.5763 17.6119 18.5725 17.6119 19.8012C17.6119 21.03 18.608 22.0261 19.8368 22.0261C21.0656 22.0261 22.0617 21.03 22.0617 19.8012C22.0617 18.5725 21.0656 17.5763 19.8368 17.5763ZM16.1993 19.8012C16.1993 17.7923 17.8278 16.1637 19.8368 16.1637C21.8457 16.1637 23.4743 17.7923 23.4743 19.8012C23.4743 21.8102 21.8457 23.4388 19.8368 23.4388C17.8278 23.4388 16.1993 21.8102 16.1993 19.8012Z" fill="#414652"/>
</g>
<defs>
<clipPath id="clip0_771_37740">
<rect width="24" height="24" fill="white"/>
</clipPath>
</defs>
</svg>
