<svg width="40" height="40" viewBox="0 0 40 40" fill="none" xmlns="http://www.w3.org/2000/svg">
<g clip-path="url(#clip0_2958_4751)">
<rect width="40" height="40" fill="#E03640"/>
<path d="M38.3333 1.66699L-1.66667 7.98052L-9 41.667H31L38.3333 1.66699Z" fill="#FF444F"/>
<g filter="url(#filter0_d_2958_4751)">
<path d="M13.5434 23.0663C13.646 23.0756 13.7627 23.0849 13.8934 23.0943C14.0334 23.0943 14.1967 23.0943 14.3834 23.0943C15.4754 23.0943 16.2827 22.8189 16.8054 22.2683C17.3374 21.7176 17.6034 20.9569 17.6034 19.9863C17.6034 18.9689 17.3514 18.1989 16.8474 17.6763C16.3434 17.1536 15.5454 16.8923 14.4534 16.8923C14.304 16.8923 14.15 16.8969 13.9914 16.9063C13.8327 16.9063 13.6834 16.9156 13.5434 16.9343V23.0663ZM19.8574 19.9863C19.8574 20.8263 19.7267 21.5589 19.4654 22.1843C19.204 22.8096 18.8307 23.3276 18.3454 23.7383C17.8694 24.1489 17.286 24.4569 16.5954 24.6623C15.9047 24.8676 15.13 24.9703 14.2714 24.9703C13.8794 24.9703 13.422 24.9516 12.8994 24.9143C12.3767 24.8863 11.8634 24.8209 11.3594 24.7183V15.2683C11.8634 15.1749 12.386 15.1143 12.9274 15.0863C13.478 15.0489 13.9494 15.0303 14.3414 15.0303C15.172 15.0303 15.9234 15.1236 16.5954 15.3103C17.2767 15.4969 17.86 15.7909 18.3454 16.1923C18.8307 16.5936 19.204 17.1069 19.4654 17.7323C19.7267 18.3576 19.8574 19.1089 19.8574 19.9863Z" fill="white"/>
<path d="M24.2156 24.9703C23.6836 24.9703 23.1516 24.9516 22.6196 24.9143C22.097 24.8863 21.551 24.8116 20.9816 24.6903V15.2823C21.4296 15.1983 21.9196 15.1376 22.4516 15.1003C22.9836 15.0536 23.4783 15.0303 23.9356 15.0303C24.5516 15.0303 25.1163 15.0769 25.6296 15.1703C26.1523 15.2543 26.6003 15.4036 26.9736 15.6183C27.347 15.8329 27.6363 16.1176 27.8416 16.4723C28.0563 16.8176 28.1636 17.2469 28.1636 17.7603C28.1636 18.5349 27.7903 19.1463 27.0436 19.5943C27.6596 19.8276 28.0796 20.1449 28.3036 20.5463C28.5276 20.9476 28.6396 21.4003 28.6396 21.9043C28.6396 22.9216 28.2663 23.6869 27.5196 24.2003C26.7823 24.7136 25.681 24.9703 24.2156 24.9703ZM23.1096 20.6163V23.1223C23.2683 23.1409 23.441 23.1549 23.6276 23.1643C23.8143 23.1736 24.0196 23.1783 24.2436 23.1783C24.897 23.1783 25.4243 23.0849 25.8256 22.8983C26.227 22.7116 26.4276 22.3663 26.4276 21.8623C26.4276 21.4143 26.2596 21.0969 25.9236 20.9103C25.5876 20.7143 25.107 20.6163 24.4816 20.6163H23.1096ZM23.1096 18.9503H24.1736C24.8456 18.9503 25.3263 18.8663 25.6156 18.6983C25.905 18.5209 26.0496 18.2409 26.0496 17.8583C26.0496 17.4663 25.9003 17.1909 25.6016 17.0323C25.303 16.8736 24.8643 16.7943 24.2856 16.7943C24.099 16.7943 23.8983 16.7989 23.6836 16.8083C23.469 16.8083 23.2776 16.8176 23.1096 16.8363V18.9503Z" fill="white"/>
</g>
</g>
<defs>
<filter id="filter0_d_2958_4751" x="9.35938" y="14.0303" width="21.2793" height="13.9404" filterUnits="userSpaceOnUse" color-interpolation-filters="sRGB">
<feFlood flood-opacity="0" result="BackgroundImageFix"/>
<feColorMatrix in="SourceAlpha" type="matrix" values="0 0 0 0 0 0 0 0 0 0 0 0 0 0 0 0 0 0 127 0" result="hardAlpha"/>
<feOffset dy="1"/>
<feGaussianBlur stdDeviation="1"/>
<feColorMatrix type="matrix" values="0 0 0 0 0.054902 0 0 0 0 0.054902 0 0 0 0 0.054902 0 0 0 0.05 0"/>
<feBlend mode="normal" in2="BackgroundImageFix" result="effect1_dropShadow_2958_4751"/>
<feBlend mode="normal" in="SourceGraphic" in2="effect1_dropShadow_2958_4751" result="shape"/>
</filter>
<clipPath id="clip0_2958_4751">
<rect width="40" height="40" rx="6" fill="white"/>
</clipPath>
</defs>
</svg>
