<svg width="40" height="40" viewBox="0 0 40 40" fill="none" xmlns="http://www.w3.org/2000/svg">
<g clip-path="url(#clip0_2958_21387)">
<rect width="40" height="40" fill="#E03640"/>
<path d="M38.3333 1.66699L-1.66667 7.98052L-9 41.667H31L38.3333 1.66699Z" fill="#FF444F"/>
<g filter="url(#filter0_d_2958_21387)">
<path d="M17.2545 24.5564C17.1592 24.2444 17.0508 23.9237 16.9295 23.5944C16.8168 23.265 16.7042 22.9357 16.5915 22.6064H13.0815C12.9688 22.9357 12.8518 23.265 12.7305 23.5944C12.6178 23.9237 12.5138 24.2444 12.4185 24.5564H10.3125C10.6505 23.5857 10.9712 22.6887 11.2745 21.8654C11.5778 21.042 11.8725 20.2664 12.1585 19.5384C12.4532 18.8104 12.7392 18.1214 13.0165 17.4714C13.3025 16.8127 13.5972 16.1714 13.9005 15.5474H15.8375C16.1322 16.1714 16.4225 16.8127 16.7085 17.4714C16.9945 18.1214 17.2805 18.8104 17.5665 19.5384C17.8612 20.2664 18.1602 21.042 18.4635 21.8654C18.7668 22.6887 19.0875 23.5857 19.4255 24.5564H17.2545ZM14.8235 17.5884C14.7802 17.7184 14.7152 17.896 14.6285 18.1214C14.5418 18.3467 14.4422 18.6067 14.3295 18.9014C14.2168 19.196 14.0912 19.521 13.9525 19.8764C13.8225 20.2317 13.6882 20.6044 13.5495 20.9944H16.1105C15.9718 20.6044 15.8375 20.2317 15.7075 19.8764C15.5775 19.521 15.4518 19.196 15.3305 18.9014C15.2178 18.6067 15.1182 18.3467 15.0315 18.1214C14.9448 17.896 14.8755 17.7184 14.8235 17.5884Z" fill="white"/>
<path d="M22.6456 15.4434C23.989 15.4434 25.0203 15.6817 25.7396 16.1584C26.459 16.6264 26.8186 17.3977 26.8186 18.4724C26.8186 19.5557 26.4546 20.34 25.7266 20.8254C24.9986 21.302 23.9586 21.5404 22.6066 21.5404H21.9696V24.5564H19.9416V15.6774C20.3836 15.5907 20.8516 15.53 21.3456 15.4954C21.8396 15.4607 22.273 15.4434 22.6456 15.4434ZM22.7756 17.1724C22.6283 17.1724 22.481 17.1767 22.3336 17.1854C22.195 17.194 22.0736 17.2027 21.9696 17.2114V19.8114H22.6066C23.3086 19.8114 23.8373 19.716 24.1926 19.5254C24.548 19.3347 24.7256 18.9794 24.7256 18.4594C24.7256 18.208 24.678 18 24.5826 17.8354C24.496 17.6707 24.366 17.5407 24.1926 17.4454C24.028 17.3414 23.8243 17.272 23.5816 17.2374C23.339 17.194 23.0703 17.1724 22.7756 17.1724Z" fill="white"/>
<path d="M27.6579 15.5474H29.6859V24.5564H27.6579V15.5474Z" fill="white"/>
</g>
</g>
<defs>
<filter id="filter0_d_2958_21387" x="8.3125" y="14.4434" width="23.373" height="13.1133" filterUnits="userSpaceOnUse" color-interpolation-filters="sRGB">
<feFlood flood-opacity="0" result="BackgroundImageFix"/>
<feColorMatrix in="SourceAlpha" type="matrix" values="0 0 0 0 0 0 0 0 0 0 0 0 0 0 0 0 0 0 127 0" result="hardAlpha"/>
<feOffset dy="1"/>
<feGaussianBlur stdDeviation="1"/>
<feColorMatrix type="matrix" values="0 0 0 0 0.054902 0 0 0 0 0.054902 0 0 0 0 0.054902 0 0 0 0.05 0"/>
<feBlend mode="normal" in2="BackgroundImageFix" result="effect1_dropShadow_2958_21387"/>
<feBlend mode="normal" in="SourceGraphic" in2="effect1_dropShadow_2958_21387" result="shape"/>
</filter>
<clipPath id="clip0_2958_21387">
<rect width="40" height="40" rx="6" fill="white"/>
</clipPath>
</defs>
</svg>
