<svg width="32" height="32" viewBox="0 0 32 32" fill="none" xmlns="http://www.w3.org/2000/svg">
<path d="M25.2501 9.98976V4.79187M25.2501 24.6066V27.202M16.5936 3.92906V1.33368M16.5936 26.339V30.667M7.93782 7.39431V4.79894M7.93782 23.7438V28.0718M6.75905 7.39356H9.10488C9.89247 7.39356 10.5309 8.03202 10.5309 8.81959V22.317C10.5309 23.1046 9.89247 23.743 9.10488 23.743H6.75905C5.97147 23.743 5.33301 23.1046 5.33301 22.317V8.81959C5.33301 8.03202 5.97147 7.39356 6.75905 7.39356ZM15.4225 4.36315H17.7683C18.5559 4.36315 19.1944 5.0016 19.1944 5.78918V24.4773C19.1944 25.2649 18.5559 25.9033 17.7683 25.9033H15.4225C14.6349 25.9033 13.9965 25.2649 13.9965 24.4773V5.78918C13.9965 5.0016 14.6349 4.36315 15.4225 4.36315ZM24.0783 9.98894H26.4241C27.2117 9.98894 27.8502 10.6274 27.8502 11.415V23.1797C27.8502 23.9673 27.2117 24.6058 26.4241 24.6058H24.0783C23.2907 24.6058 22.6523 23.9673 22.6523 23.1797V11.415C22.6523 10.6274 23.2907 9.98894 24.0783 9.98894Z" stroke="#414652" stroke-width="1.42604" stroke-linecap="round" stroke-linejoin="round"/>
</svg>
