<svg xmlns="http://www.w3.org/2000/svg" xmlns:xlink="http://www.w3.org/1999/xlink" width="660" height="575"><defs><linearGradient id="b" x1="32.361%" x2="69.142%" y1="32.415%" y2="69.084%"><stop offset="0%" stop-color="#FFF"/><stop offset="100%" stop-color="#FFF"/></linearGradient><path id="a" d="M124.359 0H660v575H0z"/></defs><g fill="none" fill-rule="evenodd"><mask id="c" fill="#fff"><use xlink:href="#a"/></mask><use fill="#FF444F" xlink:href="#a"/><path fill="url(#b)" fill-opacity=".8" d="M986.44-365l-44.92 89.773-154.95 77.411-.205.109-77.584 155.04-154.95 77.41-.209.104-77.574 155.04-154.95 77.415-.21.105-77.579 155.039-154.95 77.411-.204.113L10.575 655l-154.95 77.416-.208.104-77.58 155.04L-312 932.446V934l90.672-45.294.208-.109 77.575-155.035 154.95-77.415.209-.11 77.584-155.03 154.946-77.415.208-.104 77.58-155.044 154.95-77.411.208-.104 77.58-155.04 154.945-77.41.209-.11 77.58-155.039 154.945-77.415.209-.1L988-365h-1.56zm-29 0l-35.23 70.398-154.958 77.415-.208.109-77.585 155.043L534.502 15.38l-.208.109-77.585 155.048-154.962 77.42-.208.104-77.585 155.043-154.957 77.424-.208.104-77.59 155.044-154.961 77.42-.209.103-77.58 155.044L-312 903.442V905l71.283-35.611.209-.104 77.58-155.048 154.966-77.42.204-.1L69.827 481.67l154.961-77.42.204-.104 77.59-155.043 154.956-77.42.209-.109 77.59-155.048 154.956-77.415.204-.104 77.585-155.048 154.961-77.415.209-.104L959-365h-1.56zm-29 0l-25.526 51.021-154.978 77.42-.209.104L670.145-81.4 515.167-3.975l-.208.104-77.591 155.057-154.97 77.42-.208.108-77.59 155.052L49.625 461.19l-.209.104-77.586 155.061-154.974 77.42-.208.1-77.591 155.056-51.058 25.51V876l51.888-25.923.208-.104 77.596-155.056 154.969-77.425.208-.1L50.46 462.337l154.974-77.424.204-.108 77.59-155.052 154.974-77.424.204-.1L516.002-2.83l154.964-77.424.208-.104 77.596-155.056 154.978-77.42.204-.109L930-365h-1.56zm-29.004 0l-15.83 31.642-154.985 77.424-.208.104-77.602 155.066-154.985 77.428-.204.105-77.597 155.06-154.985 77.434-.208.1-77.592 155.065-154.985 77.424-.209.109-77.597 155.066-154.98 77.428-.209.104-77.601 155.061L-312 845.441V847l32.498-16.233.204-.109 77.597-155.061 154.985-77.429.204-.104 77.601-155.066 154.98-77.424.209-.104 77.597-155.065 154.985-77.429.208-.104L496.661-22.19l154.99-77.429.203-.109 77.597-155.065 154.985-77.424.209-.105L901-365h-1.564zm-30 0l-6.131 12.256-154.999 77.434-.208.104-77.604 155.076L475.5-42.701l-.208.109-77.608 155.071-154.994 77.434-.204.104-77.608 155.076L9.884 422.526l-.208.105-77.608 155.07-154.994 77.435-.209.104-77.603 155.071-12.262 6.13V818l13.305-6.647 77.603-155.076 154.999-77.433.204-.1 77.603-155.071 154.998-77.434.21-.109 77.603-155.071 154.993-77.434.209-.108 77.608-155.072 154.994-77.433.208-.1 77.604-155.076 154.998-77.433.208-.105L871-365h-1.564zm-39.557 0l-140.766 70.32-.204.104-77.615 155.104-155.036 77.448-.204.1L378.43 93.178l-155.026 77.444-.21.109-77.619 155.1-155.03 77.447-.21.104-77.615 155.109-155.03 77.443-.21.104L-313 776.873V780l71.524-142.918 155.026-77.444.209-.113 77.62-155.1 155.03-77.447.21-.105 77.615-155.104 155.03-77.443.21-.104 77.619-155.104 155.031-77.448.209-.104 77.62-155.1L833-365h-3.12zm-58.01 0l-101.968 50.936-.204.108-77.64 155.124-155.06 77.46-.208.104-77.63 155.127-155.06 77.46-.21.104-77.634 155.123-155.06 77.455-.205.11-77.639 155.127-155.056 77.46-.209.108L-313 718.877V722l52.125-104.156 155.06-77.46.205-.108 77.64-155.128 155.055-77.455.209-.104 77.634-155.123L359.993 75l.209-.104 77.625-155.123 155.065-77.46.21-.108 77.625-155.124L775-365h-3.13zm-58.001 0l-63.102 31.556-.209.104-77.572 155.149-154.944 77.467-.208.11L340.26 54.533 185.316 132.01l-.209.1-77.58 155.153-154.94 77.472-.208.105-77.577 155.148-154.944 77.473-.208.108-31.65 63.303V664l32.693-65.391 154.944-77.473.209-.104 77.572-155.149 154.944-77.472.208-.109 77.577-155.149L341.09 55.681l.208-.104 77.576-155.154 154.94-77.467.209-.105L651.6-332.302 717-365h-3.132zm-57.992 0l-24.32 12.148-.21.104-77.59 155.023-154.97 77.407-.209.104-77.59 155.018-154.975 77.408-.209.104-77.586 155.018-154.979 77.407-.209.11-77.586 155.017-154.974 77.408-.209.104-12.26 24.495V605l13.303-26.578 154.97-77.408.208-.1 77.591-155.027L89.051 268.48l.208-.104 77.587-155.023L321.82 35.95l.209-.104 77.587-155.018 154.978-77.407.209-.109 77.587-155.018L659-365h-3.124zm-47.436 0l-74.027 147.898-154.988 77.407-.208.104-77.592 155.018-154.983 77.407-.208.105L68.842 247.96-86.14 325.364l-.208.104-77.6 155.027L-312 554.437V556l148.884-74.363.209-.105 77.596-155.022 154.983-77.407.209-.1L147.476 93.98 302.46 16.573l.208-.108 77.591-155.019 154.988-77.407.209-.104L610-365h-1.56zm-30.005 0L514.1-236.474 359.105-159.06l-.209.104L281.292-3.923l-155 77.408-.209.109L48.48 228.628l-155 77.413-.208.1-77.6 155.033L-313 525.437V527l129.505-64.684.209-.1 77.595-155.034 155.004-77.408.21-.109 77.599-155.034 155-77.413.208-.1 77.61-155.038 154.994-77.408.21-.104L580-365h-1.565zm-28.995 0l-54.642 109.157-155.014 77.42-.209.103-77.618 155.047-155.019 77.42-.208.1-77.61 155.046-155.018 77.415-.209.108-77.609 155.047L-313 496.437V498l110.114-54.995.209-.104 77.613-155.047 155.019-77.415.209-.104 77.609-155.047 155.018-77.42.209-.099 77.618-155.047 155.01-77.419.208-.109L551-365h-1.56zm-29 0l-44.947 89.785-155.038 77.42-.208.11-77.62 155.06-155.041 77.42-.205.105L9.758 189.96l-155.038 77.425-.208.104-77.624 155.06L-313 467.437V469l90.723-45.305.209-.104 77.618-155.064 155.038-77.421.209-.104 77.628-155.06L243.458-41.48l.209-.11 77.623-155.059 155.038-77.426.208-.1L522-365h-1.56zm-29.005 0l-35.244 70.41-155.059 77.428-.209.109L223.29-61.984 68.236 15.444l-.209.108L-9.61 170.626l-155.058 77.433-.209.104-77.629 155.069L-313 438.437V440l71.328-35.622.208-.104 77.63-155.069 155.062-77.433.205-.108L69.066 16.59l155.059-77.428.204-.104 77.638-155.074 155.054-77.428.208-.104L493-365h-1.565zm-29 0l-25.55 51.032-155.075 77.435-.209.104L203.956-81.34 48.876-3.9l-.209.104-77.64 155.089-155.08 77.435-.21.109-77.644 155.084L-313 409.432V411l51.923-25.933.21-.108 77.648-155.084 155.076-77.44.21-.1L49.71-2.754l155.08-77.44.204-.104 77.645-155.088 155.08-77.436.205-.109L464-365h-1.565zm-28.998 0l-15.821 31.65-154.898 77.444-.209.104-77.548 155.106L30.063-23.248l-.209.105-77.553 155.1-154.894 77.454-.208.1-77.558 155.105-31.641 15.82V382l32.48-16.237.204-.105 77.553-155.105 154.898-77.449.204-.104L30.897-22.101 185.79-99.55l.208-.108 77.554-155.106 154.898-77.444.208-.104L435-365h-1.563zm-29 0l-6.128 12.26-154.916 77.457-.204.104-77.566 155.123L10.712-42.603l-.209.109-77.566 155.118-154.911 77.457-.209.105-77.562 155.123-12.255 6.127V353l13.298-6.653 77.562-155.119 154.915-77.457.204-.109L11.541-41.456l154.916-77.458.208-.1 77.562-155.122 154.911-77.457.209-.105L406-365h-1.564zm-39.56 0l-140.699 70.351-.208.105-77.588 155.174L-8.583-61.887l-.209.1-77.583 155.174-154.965 77.478-.209.11-70.451 140.9V315l71.494-142.988 154.961-77.478.209-.104L-7.75-60.745l154.966-77.483.208-.104 77.583-155.17L368-365h-3.124zm-59.002 0l-101.937 50.885-.209.108-77.61 154.969-155.013 77.382-.204.104-77.615 154.973-155.008 77.382-.208.104L-313 252.88V256l52.11-104.052 155.012-77.386.204-.105L-28.06-80.51l155.008-77.382.208-.109 77.61-154.968L309-365h-3.125zm-58 0l-63.154 31.525-.209.104-77.644 155-155.065 77.392-.209.109-77.639 154.999-155.07 77.402-.209.1L-313 194.88V198l32.72-65.328 155.07-77.398.208-.104 77.635-155.003 155.07-77.393.209-.104 77.64-155.004L251-365h-3.126zm-57.998 0l-24.351 12.15-.209.104-77.67 155.042-155.145 77.417-.21.104-77.67 155.038-155.14 77.417-.209.104L-313 136.88V140l13.317-26.586L-144.547 36l.21-.104 77.674-155.038 155.145-77.417.209-.109 77.67-155.038L193-365h-3.123zm-47.435 0L68.484-217.08l-154.837 77.419-.209.104-77.527 155.041L-312 89.442V91l148.744-74.37.209-.109 77.523-155.04 154.837-77.42.208-.104L144-365h-1.558zm-29 0l-64.28 128.557-154.864 77.43-.208.105-77.532 155.071L-312 60.441V62l129.392-64.695.208-.1 77.527-155.075 154.869-77.427.208-.104L115-365h-1.559zm-29.005 0L29.839-255.806l-154.89 77.446-.21.104-77.545 155.1L-312 31.441V33l110.024-55.014.208-.1 77.55-155.1 154.891-77.445.209-.109L86-365h-1.563zm-29 0l-44.91 89.828-154.927 77.46-.209.108-77.567 155.135L-312 2.441V4l90.658-45.322.208-.109 77.563-155.135 154.927-77.463.209-.1L57-365h-1.564zm-29.001 0l-35.228 70.456-154.966 77.478-.208.109-77.583 155.17L-312-26.56V-25l71.285-35.64.209-.105 77.582-155.174 154.97-77.478.205-.105L28-365h-1.564zm-30 0l-25.534 51.074-155.012 77.501-.209.104-77.61 155.22L-313-55.566V-54l51.9-25.954.21-.105 77.614-155.219 155.008-77.5.209-.109L-2-365h-1.565zm-29.001 0l-15.843 31.685-155.064 77.53-.209.104-77.643 155.278L-313-84.565V-83l32.515-16.255.205-.11 77.638-155.277 155.069-77.53.204-.104L-31-365h-1.565zm-28.996 0l-6.146 12.278-155.136 77.569-.209.104-77.675 155.347-12.273 6.136V-112l13.317-6.658 77.675-155.347 155.14-77.57.205-.103L-60-365h-1.561zm-39.58 0l-141.03 70.193-.21.104L-313-154.12v3.12l71.665-142.662L-98-365h-3.14zm-57.977 0l-101.713 50.857-.208.108L-312-212.118V-209l51.997-103.998L-156-365h-3.118zm-58.003 0l-63.049 31.528-.208.104L-312-270.12v3.12l32.664-65.33L-214-365h-3.12zm-59.014 0l-24.37 12.187-.21.104L-313-328.135V-325l13.33-26.664L-273-365h-3.135zM960.3-255.655l-154.98 77.43-.209.103-77.59 155.066-154.984 77.429-.204.1-77.595 155.065-154.975 77.424-.209.11-77.599 155.065-154.98 77.424-.208.104-77.59 155.07-154.98 77.425-.209.104-77.59 155.066L-269 940h3.129l63.098-31.524.209-.104 77.594-155.066 154.98-77.429.209-.104 77.59-155.066 154.98-77.428.208-.105 77.595-155.065 154.975-77.425.209-.104L573.37 55.514l154.98-77.428.209-.1 77.594-155.066 154.98-77.428.209-.109L993-317.878V-321l-32.7 65.345zm20.395 19.24l-155 77.438-.21.104L747.875-3.79 592.871 73.645l-.208.109-77.607 155.084-155.001 77.438-.209.1-77.607 155.085-155.006 77.438-.208.104-77.607 155.08-155.006 77.438-.208.109-77.603 155.08L-210 940h3.125l24.312-12.144.208-.108 77.598-155.08 155.01-77.439.209-.104 77.602-155.084 155.006-77.438.208-.1 77.612-155.085 155.001-77.433.209-.109 77.607-155.085 155-77.438.21-.1 77.606-155.089 155.006-77.433.208-.104 12.263-24.5V-263l-13.306 26.585zm-135.606 96.814l-.21.104-77.61 155.082-155.007 77.439-.209.104-77.61 155.082-155.017 77.439-.209.104-77.606 155.091-155.012 77.43-.208.113L68.784 713.47-86.23 790.91l-.208.099L-161 940h1.565L-85.4 792.05l155.013-77.434.208-.109 77.61-155.086 155.013-77.435.209-.104 77.605-155.087 155.017-77.439.209-.1L613.09 94.17l155.012-77.439.204-.109 77.615-155.082L994-212.437V-214l-148.912 74.399zm19.39 19.307l-.21.105-77.612 155.093-155.031 77.444-.209.105L553.8 267.55l-155.022 77.44-.209.11-77.617 155.092-155.027 77.445-.208.104L88.103 732.84l-155.031 77.445-.209.1L-132 940h1.565l64.342-128.574 155.03-77.44.21-.105 77.612-155.097 155.026-77.445.209-.1 77.613-155.102 155.03-77.445.21-.104 77.617-155.098 155.022-77.44.208-.104 77.618-155.093L994-183.437V-185l-129.523 64.706zm19.396 19.307l-.209.109-77.634 155.104-155.037 77.455-.209.1-77.62 155.108-155.042 77.45-.209.105-77.62 155.1-155.042 77.454-.209.11-77.63 155.104-155.037 77.45-.209.104L-103 940h1.565l54.641-109.196 155.042-77.446.208-.104 77.626-155.11 155.041-77.45.21-.104 77.624-155.1 155.038-77.454.208-.109 77.625-155.104 155.042-77.45.209-.105L884.704-99.84 994-154.436V-156l-110.126 55.013zm19.392 19.314l-.205.104-77.633 155.121-155.057 77.456-.204.104-77.638 155.117-155.057 77.451-.209.109-77.628 155.12-155.058 77.457-.209.109-77.633 155.116-155.057 77.456-.204.1L-74 940h1.57l44.943-89.811 155.053-77.452.208-.108 77.633-155.117 155.062-77.456.209-.108 77.624-155.121 155.062-77.452.209-.104 77.624-155.116 155.062-77.46.208-.105L904.1-80.526l89.9-44.91V-127l-90.734 45.327zm18.467 19.309l-.208.1-77.562 155.129-154.93 77.462-.204.11-77.563 155.128-154.93 77.463-.204.104-77.571 155.13-154.92 77.467-.21.104-77.566 155.13L-9.06 868.425l-.208.104L-45 940h1.564l35.214-70.428 154.92-77.463.21-.104 77.566-155.13 154.92-77.457.21-.114 77.566-155.13 154.926-77.462.208-.104 77.563-155.134 154.93-77.458.208-.104 77.562-155.134L993-96.436V-98l-71.267 35.636zm19.391 19.302l-.208.109-77.573 155.142-154.938 77.47-.209.104-77.573 155.147-154.933 77.47-.209.103-77.573 155.143-154.938 77.47-.204.104-77.578 155.142-154.933 77.47-.208.108L-16 940h1.568l25.517-51.042 154.938-77.47.208-.103 77.573-155.147 154.934-77.47.208-.1 77.578-155.142 154.933-77.47.209-.108 77.573-155.143 154.938-77.469.208-.109 77.573-155.142L993-67.436V-69l-51.876 25.938zm19.39 19.31l-.21.104-77.58 155.157-154.948 77.48-.208.1-77.585 155.161-154.953 77.472-.204.109-77.58 155.16-154.953 77.477-.208.104-77.576 155.157-154.953 77.476-.208.104L13 940h1.569l15.821-31.648 154.948-77.476.209-.109 77.58-155.156 154.953-77.477.208-.104 77.576-155.161 154.957-77.472.204-.104 77.581-155.157 154.953-77.48.208-.105 77.58-155.156L993-38.436V-40l-32.487 16.248zm19.39 20.292l-.208.104-77.584 155.014-154.973 77.398-.208.108-77.58 155.01-154.972 77.402-.209.104-77.593 155.018-154.959 77.398-.208.1-77.589 155.013-154.968 77.403-.208.104L42 940h1.564l6.125-12.247 154.969-77.398.204-.104 77.588-155.013 154.968-77.403.204-.1 77.593-155.013 154.959-77.403.209-.108 77.592-155.01L902.948 152.8l.204-.1L980.74-2.314 993-8.437V-10l-13.094 6.54zm-57.42 174.326l-155.005 77.42-.208.103-77.61 155.043-155.004 77.424-.209.104-77.609 155.043-155.01 77.42-.208.104-77.609 155.042L81 940h3.125l140.724-70.285.204-.104 77.613-155.042 155.005-77.424.209-.1 77.613-155.047 155.005-77.42.204-.104 77.61-155.043 155.009-77.42.208-.108L994 31.121V28l-71.514 142.866zm19.393 19.253l-155.046 77.433-.204.104-77.632 155.073-155.046 77.428-.209.114-77.623 155.064-155.046 77.432-.209.105-77.623 155.073L139 940h3.125l101.946-50.909.209-.109 77.627-155.068 155.047-77.433.208-.109 77.628-155.064 155.042-77.432.208-.105 77.628-155.077 155.042-77.428.208-.105L994 89.121V86l-52.12 104.12zm19.397 19.242l-155.09 77.443-.208.109-77.645 155.103L573.24 519.46l-.204.104-77.649 155.108-155.085 77.443-.209.104-77.653 155.104L197 940h3.126l63.148-31.532.208-.104 77.65-155.103 155.084-77.448.21-.104 77.648-155.103 155.09-77.448.208-.104 77.65-155.103 155.089-77.443.209-.104L994 147.118V144l-32.724 65.361zm18.425 19.233l-154.926 77.464-.209.1-77.574 155.138-154.925 77.465-.209.104-77.57 155.133-154.925 77.465-.209.109-77.57 155.133L255 940h3.119l24.295-12.148.209-.109 77.574-155.133 154.926-77.465.208-.104 77.57-155.138 154.925-77.465.209-.1 77.57-155.137 154.93-77.46.208-.11L993 205.12V202l-13.3 26.594zm-135.54 96.824l-.21.104-77.572 155.15-154.931 77.458-.209.114-77.572 155.14-154.941 77.468-.209.1L304 940h1.56l74-148.005L534.5 714.53l.21-.109 77.567-155.145 154.937-77.463.204-.105 77.577-155.145L993 252.56V251l-148.84 74.418zm19.374 19.308l-.208.109-77.579 155.171-154.961 77.47-.209.104-77.583 155.167-154.952 77.479-.209.1L333 940h1.56l64.313-128.632 154.961-77.474.209-.104 77.578-155.167 154.957-77.479.209-.1 77.582-155.17L993 281.56V280l-129.465 64.726zm19.383 19.315l-.208.105L805.11 519.33l-154.98 77.49-.208.11-77.59 155.184-154.98 77.49-.208.105L362 940h1.56l54.628-109.253 154.975-77.486.209-.104 77.594-155.19 154.98-77.49.208-.104 77.594-155.185L993 310.56V309l-110.082 55.041zm20.379 19.304l-.204.11-77.607 155.213-155.004 77.503-.204.109-77.611 155.21-155.005 77.502-.208.1L392 940h1.565l44.927-89.865 155.01-77.498.208-.11 77.597-155.209 155.009-77.502.209-.11 77.606-155.213L994 339.56V338l-90.703 45.345zm19.387 20.249l-.209.104-77.616 154.975-155.037 77.376-.204.104-77.616 154.966-155.038 77.382-.204.104L421 940h1.56l35.239-70.354 155.033-77.381.208-.104 77.616-154.966 155.038-77.377.208-.113L923.52 404.74 994 369.558V368l-71.316 35.594zm19.398 19.317l-.208.104-77.636 154.983-155.063 77.39-.209.104-77.636 154.983-155.058 77.39-.209.109L450 940h1.56l25.547-50.99 155.058-77.389.209-.104 77.636-154.988 155.063-77.39.208-.099 77.632-154.983 51.087-25.5V397l-51.918 25.911zm19.401 19.316l-.208.109-77.649 155.003-155.096 77.398-.21.104-77.656 155-155.097 77.397-.204.105L479 940h1.56l15.842-31.616 155.101-77.398.204-.108 77.653-155 155.097-77.397.208-.105 77.653-155.003L994 427.563V426l-32.517 16.227zm19.409 19.314l-.209.104-77.668 155.03-155.14 77.403-.209.1-77.663 155.025-155.14 77.408-.21.104L508 940h1.561l6.137-12.248 155.127-77.403.208-.105L748.71 695.22l155.14-77.408.205-.1 77.672-155.025L994 456.558V455l-13.108 6.54zm-59.35 174.369L766.66 713.353l-.209.104-77.548 155.09L546 940h3.127l140.609-70.306.204-.104 77.548-155.095 154.888-77.443.208-.1L993 496.127V493l-71.458 142.91zm19.37 19.267L785.96 732.652l-.204.105-77.585 155.159L604 940h3.128l101.879-50.937.208-.109 77.58-155.155 154.946-77.475.209-.109L993 554.128V551l-52.088 104.177zm20.375 19.253l-155.038 77.513-.209.104-77.618 155.245L663 940h3.125l63.127-31.56.208-.105 77.624-155.244 155.038-77.518.208-.104 31.67-63.34V609l-32.713 65.43zm19.394 19.203l-155.158 77.58-.208.109-77.69 155.364L721 940h3.128l24.332-12.166.209-.109 77.685-155.364 155.162-77.58.209-.104L994 670.127V667l-13.32 26.633zM844.874 791.23l-.209.1L770 940h1.567l74.143-147.631L994 718.559V717l-149.126 74.23zm19.334 19.334l-.21.1L799 940h1.568l64.476-128.298L994 747.56V746l-129.792 64.563zm19.003 19.333l-.208.104L828 940h1.56l54.479-108.964L993 776.56V775l-109.789 54.896zm19.326 19.335l-.204.1L857 940h1.56l44.81-89.63L993 805.557V804l-90.463 45.23zm19.333 19.329l-.208.104L886 940h1.56l35.143-70.296L993 834.561V833l-71.13 35.56zm19.338 19.333l-.208.109L915 940h1.566l25.47-50.962L993 863.56V862l-51.792 25.893zm19.33 19.338l-.208.104L944 940h1.563l15.81-31.623L993 892.563V891l-32.461 16.23zm20.335 19.33l-.21.104L974 940h1.568l6.141-12.294L994 921.564V920l-13.127 6.56z" mask="url(#c)" opacity=".217"/></g></svg>