<svg xmlns="http://www.w3.org/2000/svg" xmlns:xlink="http://www.w3.org/1999/xlink" width="250" height="244"><defs><linearGradient id="b" x1="32.505%" x2="68.986%" y1="32.361%" y2="69.143%"><stop offset="0%" stop-color="#FFF"/><stop offset="100%" stop-color="#FFF"/></linearGradient><path id="a" d="M47.106 0H250v244H0z"/></defs><g fill="none" fill-rule="evenodd"><mask id="c" fill="#fff"><use xlink:href="#a"/></mask><use fill="#FF444F" xlink:href="#a"/><path fill="url(#b)" fill-opacity=".8" d="M585.163-45.185l-24.05 48.298-82.958 41.647-.11.058-41.536 83.411-82.958 41.648-.112.056-41.532 83.41-82.958 41.65-.111.056-41.535 83.412-82.958 41.647-.109.06-41.534 83.407-82.958 41.65-.112.056-41.534 83.41-48.098 24.15v.836l48.544-24.369.112-.058 41.532-83.409 82.958-41.65.111-.058 41.537-83.406 82.956-41.65.111-.056 41.535-83.413 82.958-41.648.111-.056L354 170.494l82.955-41.648.112-.058 41.535-83.412 82.955-41.65.112-.053 24.329-48.858h-.835zm-15.575 0l-18.86 37.872-82.956 41.647-.112.059-41.534 83.408-82.956 41.647-.111.059-41.535 83.411-82.958 41.65-.111.056-41.535 83.408-82.955 41.652-.112.056-41.537 83.41-82.958 41.649-.111.056-41.533 83.409L-110 637.2v.838l38.161-19.158.112-.056 41.532-83.411 82.96-41.65.11-.053 41.534-83.411 82.958-41.65.109-.056 41.537-83.409 82.955-41.65.112-.058 41.537-83.411 82.955-41.647.11-.056 41.534-83.411 82.958-41.648.112-.056 19.137-38.432h-.835zm-15.577 0L540.347-17.74l-82.96 41.647-.112.056-41.53 83.411-82.96 41.65-.112.056-41.534 83.411-82.956 41.647-.111.059-41.535 83.409-82.958 41.65-.111.055-41.533 83.414-82.957 41.647-.112.054-41.535 83.41L-110 621.562v.838l27.776-13.945.111-.056 41.537-83.41 82.956-41.65.111-.054 41.535-83.411 82.958-41.65.109-.058 41.535-83.409 82.957-41.65.11-.053 41.537-83.411 82.952-41.65.112-.056 41.537-83.411 82.96-41.647.11-.059 13.943-28.004h-.835zm-15.574 0l-8.473 17.02-82.958 41.647-.112.056-41.537 83.412L322.4 138.6l-.109.055-41.534 83.41-82.958 41.651-.112.054-41.532 83.41-82.958 41.648-.111.058-41.535 83.412-82.955 41.65-.112.055-41.537 83.409-16.946 8.51v.839l17.395-8.732.11-.059 41.534-83.409 82.958-41.65.109-.055 41.537-83.411 82.955-41.648.112-.056 41.534-83.41 82.958-41.65.112-.056 41.532-83.41 82.96-41.649.11-.058 41.534-83.411 82.958-41.648.111-.056 8.755-17.578h-.837zm-15.577 0l-3.282 6.592-82.958 41.65-.111.056-41.535 83.41-82.955 41.648-.112.058-41.537 83.41-82.955 41.649-.11.056-41.537 83.411-82.955 41.65-.111.056-41.538 83.408-82.955 41.65-.111.056-41.535 83.409-6.563 3.297v.839l7.121-3.576 41.535-83.41 82.957-41.65.11-.054 41.534-83.409 82.958-41.65.112-.058 41.534-83.409 82.956-41.65.111-.058 41.537-83.408 82.956-41.65.111-.054 41.535-83.41 82.958-41.65.111-.056 3.56-7.153h-.836zm-21.3 0L426.234-7.37l-.11.056-41.532 83.411-82.96 41.65-.109.053-41.537 83.411-82.955 41.648-.112.058-41.535 83.409-82.957 41.65-.112.055-41.532 83.414-82.958 41.647-.112.056L-110 568.886v1.682l38.273-76.858 82.955-41.647.112-.061 41.534-83.409 82.958-41.65.112-.056 41.532-83.41 82.958-41.648.111-.056 41.535-83.411 82.958-41.65.111-.056 41.535-83.409 76.545-38.432h-1.67zm-31.152 0l-54.554 27.388-.109.058-41.537 83.409-82.958 41.65-.111.055-41.533 83.412-82.957 41.65-.112.055-41.535 83.41-82.957 41.646-.11.059-41.537 83.41-82.955 41.65-.112.059L-110 537.609v1.679l27.887-56.004 82.958-41.65.11-.058 41.536-83.411 82.956-41.647.111-.056 41.535-83.41 82.96-41.651.112-.056 41.53-83.409 82.96-41.65.111-.058 41.53-83.409 55.787-28.004h-1.675zm-31.154 0l-33.785 16.964-.112.056-41.532 83.41-82.958 41.646-.111.059-41.533 83.408-82.957 41.652-.112.054-41.537 83.411-82.955 41.65-.112.056-41.535 83.409-82.957 41.65-.112.058-16.946 34.03v1.683l17.504-35.155 82.958-41.65.111-.056 41.533-83.409 82.957-41.65.112-.058 41.535-83.408 82.957-41.65.112-.056 41.535-83.411 82.955-41.647.112-.056 41.534-83.412 35.016-17.578h-1.677zm-31.15 0l-13.018 6.536-.112.056-41.535 83.411-82.955 41.65-.111.056-41.535 83.409-82.958 41.65-.112.055-41.532 83.409-82.96 41.65-.112.058-41.532 83.409-82.958 41.65-.111.055-6.563 13.18v1.682l7.121-14.301 82.955-41.65.112-.053 41.535-83.414 82.96-41.65.111-.055 41.533-83.412 82.957-41.647.112-.056 41.532-83.409 82.96-41.65.112-.058 41.532-83.408 14.245-7.153h-1.672zm-25.42 0l-39.625 79.578-82.96 41.65-.112.055-41.532 83.409-82.958 41.65-.112.055-41.532 83.412-82.958 41.647-.111.056-41.537 83.413L-110 449.526v.84l79.693-40.011.112-.056 41.535-83.412 82.957-41.65.112-.053 41.535-83.411 82.957-41.65.112-.058 41.532-83.409 82.96-41.65.112-.055 39.901-80.136h-.835zm-15.578 0l-34.433 69.15-82.955 41.649-.112.056-41.534 83.411-82.958 41.647-.112.059-41.534 83.41L.51 315.848l-.112.054-41.532 83.411L-110 433.887v.84l69.313-34.8.111-.054 41.53-83.411 82.96-41.648.112-.058 41.532-83.411 82.958-41.65.112-.053 41.537-83.414 82.955-41.647.112-.056 34.712-69.71h-.838zm-15.574 0L322.29 13.538l-82.955 41.65-.112.056-41.537 83.411-82.958 41.65-.111.053-41.532 83.412-82.958 41.647-.112.058-41.532 83.411-58.483 29.36v.84l58.927-29.585.112-.056 41.534-83.412 82.958-41.647.112-.056 41.532-83.411 82.958-41.65.111-.053 41.538-83.411 82.952-41.65.112-.058 29.52-59.282h-.834zm-15.575 0l-24.05 48.298L228.95 44.76l-.111.058-41.532 83.411-82.96 41.648-.11.056-41.534 83.41-82.958 41.65-.112.056-41.534 83.412L-110 402.607v.841l48.544-24.37.112-.057 41.532-83.413 82.958-41.648.111-.056 41.537-83.41 82.956-41.648.111-.058 41.535-83.412 82.958-41.65.111-.053 24.327-48.858h-.835zm-15.577 0L301.524-7.313l-82.958 41.647-.111.059L176.92 117.8l-82.955 41.647-.112.059-41.537 83.411-82.958 41.65-.111.056-41.533 83.408L-110 386.968v.841l38.161-19.16.112-.056 41.532-83.409 82.96-41.65.11-.058 41.534-83.411 82.958-41.647.109-.056 41.537-83.411 82.955-41.648.112-.056 19.137-38.432h-.837zm-15.574 0L291.139-17.74l-82.956 41.647-.111.056-41.535 83.411-82.958 41.65-.111.056-41.533 83.411-82.957 41.647-.112.059-41.535 83.409-27.331 13.72v.844l27.776-13.948.111-.058 41.537-83.409 82.956-41.65.111-.053 41.535-83.411 82.958-41.65.109-.056 41.535-83.411 82.957-41.647.11-.059 13.948-28.004h-.837zm-15.577 0l-8.473 17.02-82.958 41.647-.112.056-41.532 83.412-82.958 41.65-.111.055-41.535 83.41-82.955 41.651-.112.054-41.537 83.41-16.946 8.51v.84l17.395-8.732.11-.056 41.534-83.41 82.958-41.65.109-.056 41.537-83.41 82.955-41.649.112-.058 41.534-83.411 82.958-41.648.112-.056 8.752-17.578h-.837zm-15.575 0l-3.281 6.592-82.958 41.65-.11.056-41.537 83.41-82.955 41.648-.111.058-41.538 83.41-82.955 41.649-.111.056-41.535 83.411-6.563 3.295v.84l7.121-3.577 41.535-83.409 82.957-41.65.11-.058 41.534-83.408 82.958-41.65.112-.054 41.534-83.41 82.956-41.65.111-.056 3.563-7.153h-.837zm-21.303 0L177.031-7.37l-.11.056-41.536 83.411-82.957 41.65-.112.053-41.532 83.411-82.958 41.648-.112.058-37.714 75.74v1.679l38.273-76.86 82.955-41.648.112-.056 41.534-83.411 82.958-41.65.112-.056 41.532-83.409 76.548-38.432h-1.673zm-31.149 0L166.65-17.797l-.112.058-41.535 83.409-82.957 41.65-.11.055L.398 190.787l-82.955 41.65-.112.055L-110 287.378v1.679l27.887-56.004L.845 191.4l.11-.056 41.536-83.409 82.956-41.65.111-.058 41.535-83.409 55.781-28.004h-1.672zm-31.151 0l-33.785 16.964-.112.056-41.537 83.41L31.662 96.89l-.112.059-41.535 83.408-82.957 41.652-.112.054L-110 256.1v1.68l17.504-35.155 82.958-41.65.111-.056 41.533-83.411 82.957-41.647.112-.056 41.535-83.412 35.013-17.578h-1.672zm-31.15 0l-13.02 6.536-.113.056-41.532 83.411-82.96 41.65-.112.056-41.532 83.409-82.958 41.65-.111.055L-110 224.82v1.68l7.121-14.304 82.955-41.647.112-.056 41.535-83.409 82.96-41.65.111-.058 41.533-83.408 14.244-7.153h-1.67zm-25.423 0L93.853 34.393l-82.958 41.65-.111.055-41.537 83.409L-110 199.294v.839l79.693-40.01.112-.058L11.34 76.656l82.957-41.65.112-.055 39.904-80.136h-.835zm-15.577 0l-34.433 69.15L.51 65.613l-.112.056-41.532 83.411L-110 183.656v.838l69.313-34.799.111-.053L.954 66.228l82.96-41.647.112-.056 34.71-69.71h-.835zm-15.575 0L73.085 13.538l-82.958 41.65-.112.056-41.532 83.411L-110 168.017v.838l58.927-29.586.112-.053 41.534-83.411 82.958-41.65.112-.058 29.52-59.282h-.837zm-15.577 0L62.702 3.113-20.256 44.76l-.112.058-41.534 83.411L-110 152.376v.838l48.544-24.368.112-.058 41.532-83.412 82.958-41.65.111-.053 24.33-48.858h-.838zm-15.575 0L52.316-7.313l-82.958 41.647-.111.059-41.533 83.408L-110 136.737v.839l38.161-19.158.112-.056 41.532-83.411 82.96-41.648.11-.056 19.137-38.432h-.838zm-15.574 0L41.935-17.74l-82.957 41.647-.112.056-41.535 83.411L-110 121.1v.84l27.776-13.947.111-.056 41.537-83.411L42.38-17.122l.111-.059 13.946-28.004H55.6zm-15.575 0l-8.475 17.02-82.955 41.647-.112.056-41.537 83.412-16.946 8.508v.84l17.395-8.732.11-.058 41.534-83.411 82.958-41.648.109-.056 8.757-17.578h-.838zm-15.574 0l-3.287 6.592-82.955 41.65-.111.056-41.535 83.41L-110 89.82v.84l7.121-3.575 41.535-83.41 82.957-41.65.11-.056 3.563-7.153h-.835zm-21.308 0L-72.174-7.37l-.112.056L-110 68.424v1.681l38.273-76.858L4.82-45.185H3.143zm-31.149 0l-54.551 27.388-.112.058L-110 37.146v1.68l27.887-56.007 55.78-28.004h-1.673zm-31.149 0l-33.787 16.964-.112.056L-110 5.867v1.679l17.504-35.153 35.013-17.578h-1.672zm-31.152 0l-13.019 6.536-.111.056-6.563 13.18v1.681l7.121-14.3 14.247-7.153h-1.675zm661.803 58.723l-82.958 41.65-.111.056-41.533 83.411-82.96 41.65-.11.053-41.534 83.412-82.955 41.647-.112.058-41.537 83.411-82.958 41.648-.111.056-41.532 83.413-82.958 41.647-.112.056-41.532 83.412-35.006 17.573h1.675l33.775-16.957.112-.056 41.534-83.411 82.958-41.65.112-.056 41.532-83.41 82.958-41.65.111-.056 41.535-83.412 82.955-41.647.112-.056 41.535-83.411 82.957-41.65.112-.053 41.535-83.411 82.957-41.65.112-.058L589-19.933v-1.678l-17.504 35.15zm10.383 10.426l-82.955 41.65-.112.056-41.537 83.411-82.955 41.647-.112.059-41.535 83.41-82.955 41.65-.112.054-41.534 83.411-82.958 41.65-.112.056-41.534 83.409L.51 566.077l-.112.058-41.532 83.408-14.237 7.148h1.672l13.012-6.531.111-.058 41.53-83.41 82.96-41.649.112-.056 41.532-83.411 82.958-41.65.112-.053 41.537-83.411 82.955-41.648.112-.058 41.534-83.411 82.955-41.65.112-.053 41.535-83.414 82.958-41.647.111-.056L589 11.348V9.666l-7.121 14.298zm-72.572 52.078l-.112.056-41.535 83.409-82.955 41.65-.112.055-41.534 83.41-82.96 41.649-.112.056-41.532 83.413-82.958 41.645-.112.061-41.532 83.409-82.958 41.65-.111.053-39.904 80.133h.837L11.34 577.12l82.957-41.648.112-.058 41.535-83.411 82.957-41.647.112-.056 41.532-83.412 82.96-41.65.112-.053 41.532-83.411 82.958-41.65.11-.058 41.536-83.409L589 36.87v-.841l-79.693 40.014zm10.383 10.426l-.112.056-41.532 83.409-82.96 41.65-.112.055-41.535 83.411-82.955 41.648-.111.058-41.535 83.409-82.958 41.65-.112.055-41.532 83.412-82.96 41.65-.112.053-34.71 69.707h.838l34.43-69.147 82.96-41.647.112-.056 41.533-83.411 82.957-41.65.112-.053 41.532-83.414 82.96-41.65.112-.055 41.535-83.412 82.955-41.647.112-.056 41.534-83.409L589 52.51v-.841l-69.31 34.799zm10.385 10.423l-.111.059-41.54 83.408-82.955 41.652-.112.054-41.532 83.411-82.958 41.65-.111.056-41.533 83.406-82.957 41.652-.112.059-41.537 83.408-82.955 41.65-.112.056-29.518 59.28h.837l29.237-58.722 82.957-41.647.112-.056 41.535-83.411 82.957-41.65.112-.056 41.535-83.406 82.955-41.652.112-.059 41.534-83.408 82.958-41.65.112-.056 41.534-83.411L589 68.148v-.84L530.075 96.89zm10.38 10.428l-.108.056-41.535 83.412-82.958 41.65-.109.055-41.537 83.41-82.958 41.646-.111.059-41.533 83.41-82.957 41.65-.112.059-41.535 83.409-82.957 41.65-.11.053-24.329 48.853h.84l24.045-48.293 82.956-41.647.111-.058 41.535-83.409 82.96-41.65.112-.058 41.53-83.411 82.96-41.647.111-.056 41.53-83.41 82.96-41.651.112-.056 41.534-83.409L589 83.787v-.84l-48.544 24.372zm10.384 10.429l-.112.053-41.532 83.409-82.96 41.65-.11.058-41.532 83.409-82.96 41.65-.109.055-41.537 83.41-82.955 41.651-.112.056-41.535 83.409-82.957 41.65-.112.056-19.133 38.427h.838l18.856-37.867 82.955-41.65.112-.055 41.534-83.41 82.956-41.646.111-.061 41.535-83.409 82.958-41.65.111-.056 41.533-83.41 82.96-41.648.111-.056 41.533-83.411L589 99.428v-.84l-38.161 19.16zm10.385 10.423l-.111.058-41.535 83.41-82.958 41.649-.111.056-41.535 83.411-82.955 41.65-.112.056-41.534 83.408-82.958 41.65-.11.056-41.537 83.409-82.955 41.65-.111.058-13.946 28h.84l13.661-27.442 82.958-41.65.112-.056 41.534-83.41 82.956-41.65.111-.054 41.537-83.409 82.956-41.65.111-.058 41.535-83.409 82.958-41.65.111-.058 41.535-83.408L589 115.067v-.84l-27.776 13.944zm10.384 10.428l-.112.056-41.535 83.41-82.955 41.651-.112.054-41.537 83.41-82.958 41.648-.109.058-41.534 83.412-82.958 41.65-.112.055-41.532 83.409-82.958 41.65-.111.056-8.752 17.573h.84l8.47-17.013 82.955-41.65.112-.058 41.534-83.409 82.958-41.65.112-.055 41.532-83.411 82.96-41.648.11-.056 41.534-83.408 82.958-41.652.111-.056 41.535-83.41 16.946-8.51v-.84l-17.392 8.734zm10.383 10.426l-.112.056-41.532 83.411-82.96 41.647-.112.059-41.53 83.409-82.96 41.65-.112.055-41.537 83.414-82.953 41.647-.111.054-41.535 83.41-82.958 41.65-.111.056-3.558 7.148h.837l3.279-6.59 82.958-41.647.109-.056 41.535-83.41 82.957-41.65.11-.054 41.537-83.411 82.952-41.65.112-.058 41.537-83.409 82.96-41.65.11-.053 41.534-83.411 6.563-3.295v-.841l-7.01 3.519zm-31.264 93.893l-82.955 41.65-.112.056-41.534 83.408-82.956 41.652-.111.056-41.535 83.41-82.958 41.649-.111.056-41.535 83.409-76.538 38.427h1.672l75.313-37.81.109-.057 41.537-83.409 82.955-41.652.112-.053 41.537-83.411 82.955-41.65.11-.056 41.534-83.409 82.958-41.65.112-.058L589 167.74v-1.679l-38.273 76.858zm10.386 10.426l-82.958 41.65-.11.055-41.536 83.412-82.958 41.647-.112.06-41.532 83.407-82.958 41.65-.111.056-41.532 83.41-55.775 28h1.672l54.547-27.383.111-.058 41.535-83.409 82.958-41.65.111-.058L354 420.727l82.955-41.65.112-.056 41.535-83.413 82.955-41.648.112-.056L589 199.02v-1.679l-27.887 56.004zm10.383 10.426l-82.958 41.647-.111.058-41.533 83.411-82.96 41.648-.11.056-41.534 83.413-82.955 41.647-.112.056-41.537 83.412-35.003 17.573h1.672l33.778-16.957.111-.056 41.535-83.411 82.955-41.65.112-.056 41.535-83.41 82.957-41.65.112-.056 41.535-83.412 82.957-41.647.112-.056L589 230.296v-1.676l-17.504 35.15zm10.383 10.428l-82.955 41.65-.112.053-41.537 83.411-82.955 41.65-.112.056-41.535 83.409-82.955 41.65-.112.058-41.534 83.408-14.235 7.148h1.67l13.009-6.531.112-.058 41.537-83.41 82.955-41.649.112-.056 41.534-83.411 82.955-41.65.112-.053 41.535-83.411 82.958-41.648.111-.058 6.563-13.18V259.9l-7.121 14.298zm-72.572 52.073l-.112.056-41.535 83.413-82.955 41.645-.112.061-41.534 83.409-82.96 41.65-.112.053-39.899 80.133h.835l39.622-79.572 82.96-41.648.112-.058 41.532-83.411 82.958-41.647.11-.056 41.536-83.412L589 287.1v-.839l-79.693 40.01zm10.383 10.426l-.112.058-41.532 83.414-82.96 41.644-.112.056-41.535 83.412-82.955 41.65-.111.053-34.71 69.707h.835l34.43-69.147 82.96-41.647.112-.056 41.532-83.411 82.958-41.65.112-.053 41.534-83.414L589 302.741v-.838l-69.31 34.794zm10.385 10.428l-.111.056-41.537 83.409-82.958 41.65-.112.058-41.532 83.408-82.958 41.65-.111.056-29.519 59.28h.835l29.242-58.722 82.955-41.647.112-.056 41.534-83.411 82.958-41.65.112-.056 41.534-83.409L589 318.38v-.839l-58.925 29.584zm10.38 10.423l-.108.059-41.535 83.41-82.958 41.65-.109.059-41.537 83.409-82.958 41.65-.111.053-24.327 48.853h.837l24.045-48.293 82.96-41.647.112-.058 41.53-83.409 82.96-41.65.112-.058 41.534-83.411L589 334.018v-.838l-48.544 24.368zm10.384 10.428l-.112.056-41.532 83.414-82.96 41.647-.11.056-41.532 83.409-82.96 41.65-.109.056-19.135 38.427h.835l18.856-37.867 82.958-41.65.111-.055 41.533-83.41 82.96-41.646.111-.061 41.533-83.409L589 349.657v-.838l-38.161 19.157zm10.385 10.429l-.111.056-41.535 83.408-82.958 41.65-.111.056-41.535 83.409-82.955 41.65-.112.058-13.943 28h.834l13.667-27.442 82.956-41.65.111-.056 41.535-83.41 82.958-41.65.111-.054 41.533-83.409L589 365.298v-.838l-27.776 13.945zm10.384 10.423l-.112.058-41.532 83.412-82.958 41.65-.112.055-41.537 83.409-82.958 41.65-.109.056-8.752 17.573h.835l8.473-17.013 82.96-41.65.11-.058 41.534-83.409 82.958-41.65.111-.055 41.535-83.411L589 380.937v-.841l-17.392 8.732zm10.383 10.428l-.112.056-41.532 83.414-82.96 41.647-.112.054-41.53 83.41-82.96 41.65-.112.056-3.558 7.148h.835l3.282-6.59 82.952-41.647.112-.056 41.537-83.41 82.96-41.65.11-.054 41.534-83.411 6.563-3.298v-.838l-7.01 3.52zm-31.264 93.893l-82.955 41.65-.112.056-41.534 83.409-76.538 38.427h1.674l75.31-37.81.11-.057 41.534-83.411 82.958-41.65.112-.053L589 417.973v-1.682l-38.273 76.858zm10.386 10.426l-82.958 41.65-.11.056-41.536 83.41-55.772 28h1.675l54.543-27.383.112-.058 41.535-83.409 82.955-41.65.112-.058L589 449.253v-1.682l-27.887 56.004zm10.383 10.428l-82.958 41.647-.111.056-41.533 83.412-35.006 17.573h1.673l33.777-16.957.112-.056 41.535-83.411 82.957-41.65.112-.056L589 480.531v-1.682l-17.504 35.154zm10.383 10.424l-82.955 41.65-.112.058-41.537 83.408-14.235 7.148h1.672l13.01-6.531.111-.058 41.535-83.41 82.958-41.649.111-.056 6.563-13.18v-1.679l-7.121 14.299zm-72.572 52.077l-.112.054-39.901 80.133h.837l39.622-79.572L589 537.336v-.841l-79.693 40.01zm10.383 10.426l-.112.054-34.71 69.707h.838l34.43-69.147L589 552.974v-.84l-69.31 34.796zm10.385 10.426l-.111.056-29.521 59.28h.837l29.24-58.722L589 568.613v-.84l-58.925 29.583zm10.38 10.428l-.108.054-24.327 48.853h.837l24.045-48.293L589 584.252v-.839l-48.544 24.371zm10.384 10.424l-.112.056-19.132 38.427h.837l18.854-37.867L589 599.893v-.84l-38.161 19.155zm10.385 10.425l-.111.059-13.944 28h.84l13.66-27.442L589 615.532v-.841l-27.776 13.942zm10.384 10.429l-.112.056-8.75 17.573h.838l8.47-17.013L589 631.17v-.84l-17.392 8.732zm10.383 10.425l-.112.056-3.558 7.148h.837l3.28-6.59L589 646.81v-.838l-7.01 3.516z" mask="url(#c)" opacity=".217"/></g></svg>