<svg width="72" height="72" viewBox="0 0 72 72" fill="none" xmlns="http://www.w3.org/2000/svg">
<path d="M0 13.5C0 6.04416 6.04416 0 13.5 0H58.5C65.9558 0 72 6.04416 72 13.5V58.5C72 65.9558 65.9558 72 58.5 72H13.5C6.04416 72 0 65.9558 0 58.5V13.5Z" fill="#FF444F"/>
<path d="M13.5 0C6.04416 0 0 6.04416 0 13.5V13.8921L67.3075 3.26845C64.9433 1.2315 61.8655 0 58.5 0H13.5Z" fill="#E12E3A"/>
<path d="M68.6969 4.65243L56.3498 71.9999L58.5 72C65.9558 72 72 65.9558 72 58.5V13.5C72 10.1155 70.7545 7.02183 68.6969 4.65243Z" fill="#E12E3A"/>
<path d="M26.4531 28.8968C24.1641 28.8968 22.5051 29.5373 21.4761 30.8183C20.4681 32.0783 19.9641 33.8108 19.9641 36.0158C19.9641 37.0868 20.0901 38.0633 20.3421 38.9453C20.5941 39.8063 20.9721 40.5518 21.4761 41.1818C21.9801 41.8118 22.6101 42.3053 23.3661 42.6623C24.1221 42.9983 25.0041 43.1663 26.0121 43.1663C26.5581 43.1663 27.0201 43.1558 27.3981 43.1348C27.7971 43.1138 28.1436 43.0718 28.4376 43.0088V35.4173H33.3516V46.2218C32.7636 46.4528 31.8186 46.6943 30.5166 46.9463C29.2146 47.2193 27.6081 47.3558 25.6971 47.3558C24.0591 47.3558 22.5681 47.1038 21.2241 46.5998C19.9011 46.0958 18.7671 45.3608 17.8221 44.3948C16.8771 43.4288 16.1421 42.2423 15.6171 40.8353C15.1131 39.4283 14.8611 37.8218 14.8611 36.0158C14.8611 34.1888 15.1446 32.5718 15.7116 31.1648C16.2786 29.7578 17.0556 28.5713 18.0426 27.6053C19.0296 26.6183 20.1846 25.8728 21.5076 25.3688C22.8516 24.8648 24.2796 24.6128 25.7916 24.6128C26.8206 24.6128 27.7446 24.6863 28.5636 24.8333C29.4036 24.9593 30.1176 25.1168 30.7056 25.3058C31.3146 25.4738 31.8081 25.6523 32.1861 25.8413C32.5851 26.0303 32.8686 26.1773 33.0366 26.2823L31.6191 30.2198C30.9471 29.8628 30.1701 29.5583 29.2881 29.3063C28.4271 29.0333 27.4821 28.8968 26.4531 28.8968Z" fill="white"/>
<path d="M40.4753 36.0158C40.4753 37.0868 40.6013 38.0528 40.8533 38.9138C41.1263 39.7748 41.5043 40.5203 41.9873 41.1503C42.4913 41.7593 43.1003 42.2318 43.8143 42.5678C44.5283 42.9038 45.3473 43.0718 46.2713 43.0718C47.1743 43.0718 47.9828 42.9038 48.6968 42.5678C49.4318 42.2318 50.0408 41.7593 50.5238 41.1503C51.0278 40.5203 51.4058 39.7748 51.6578 38.9138C51.9308 38.0528 52.0673 37.0868 52.0673 36.0158C52.0673 34.9448 51.9308 33.9788 51.6578 33.1178C51.4058 32.2358 51.0278 31.4903 50.5238 30.8813C50.0408 30.2513 49.4318 29.7683 48.6968 29.4323C47.9828 29.0963 47.1743 28.9283 46.2713 28.9283C45.3473 28.9283 44.5283 29.1068 43.8143 29.4638C43.1003 29.7998 42.4913 30.2828 41.9873 30.9128C41.5043 31.5218 41.1263 32.2673 40.8533 33.1493C40.6013 34.0103 40.4753 34.9658 40.4753 36.0158ZM57.1388 36.0158C57.1388 37.8848 56.8553 39.5333 56.2883 40.9613C55.7423 42.3683 54.9863 43.5548 54.0203 44.5208C53.0543 45.4658 51.8993 46.1798 50.5553 46.6628C49.2323 47.1458 47.8043 47.3873 46.2713 47.3873C44.7803 47.3873 43.3733 47.1458 42.0503 46.6628C40.7273 46.1798 39.5723 45.4658 38.5853 44.5208C37.5983 43.5548 36.8213 42.3683 36.2543 40.9613C35.6873 39.5333 35.4038 37.8848 35.4038 36.0158C35.4038 34.1468 35.6978 32.5088 36.2858 31.1018C36.8738 29.6738 37.6613 28.4768 38.6483 27.5108C39.6563 26.5448 40.8113 25.8203 42.1133 25.3373C43.4363 24.8543 44.8223 24.6128 46.2713 24.6128C47.7623 24.6128 49.1693 24.8543 50.4923 25.3373C51.8153 25.8203 52.9703 26.5448 53.9573 27.5108C54.9443 28.4768 55.7213 29.6738 56.2883 31.1018C56.8553 32.5088 57.1388 34.1468 57.1388 36.0158Z" fill="white"/>
</svg>
