<svg width="12" height="10" viewBox="0 0 12 10" fill="none" xmlns="http://www.w3.org/2000/svg">
<path d="M11.5385 9C11.7934 9 12 9.22386 12 9.5C12 9.77614 11.7934 10 11.5385 10H0.461539C0.206638 10 0 9.77614 0 9.5C0 9.22386 0.206638 9 0.461539 9H11.5385ZM11.5385 4.5C11.7934 4.5 12 4.72386 12 5C12 5.27614 11.7934 5.5 11.5385 5.5H0.461539C0.206638 5.5 0 5.27614 0 5C0 4.72386 0.206638 4.5 0.461539 4.5H11.5385ZM11.5385 0C11.7934 0 12 0.223858 12 0.5C12 0.776142 11.7934 1 11.5385 1H0.461539C0.206638 1 0 0.776142 0 0.5C0 0.223858 0.206638 0 0.461539 0H11.5385Z" fill="#414652"/>
</svg>
