<svg xmlns="http://www.w3.org/2000/svg" width="32" height="32"  xmlns:v="https://vecta.io/nano"><defs><linearGradient id="A" x1="0%" x2="100%" y1="74.321%" y2="25.679%"><stop offset="0%" stop-color="#ff444f"/><stop offset="100%" stop-color="#ff6444"/></linearGradient></defs><path d="M16 7.095c-2.11 0-3.83 1.762-3.83 3.923s1.72 3.923 3.83 3.923 3.83-1.763 3.83-3.923S18.11 7.095 16 7.095zm0 1.046c1.557 0 2.809 1.282 2.809 2.877S17.557 13.895 16 13.895s-2.809-1.282-2.809-2.877S14.443 8.141 16 8.141zm-7.66 2.354c-1.545 0-2.808 1.294-2.808 2.877s1.263 2.877 2.808 2.877 2.81-1.295 2.81-2.877-1.264-2.877-2.809-2.877zm15.32 0c-1.545 0-2.809 1.294-2.809 2.877s1.264 2.877 2.809 2.877 2.808-1.295 2.808-2.877-1.263-2.877-2.808-2.877zM8.34 11.54c.994 0 1.788.813 1.788 1.83s-.794 1.831-1.788 1.831-1.787-.813-1.787-1.83.794-1.831 1.787-1.831zm15.32 0c.993 0 1.787.813 1.787 1.83s-.794 1.831-1.787 1.831-1.788-.813-1.788-1.83.794-1.831 1.788-1.831zM16 15.987c-1.794 0-3.399.824-4.476 2.117-.794-.673-1.814-1.07-2.928-1.07C6.059 17.033 4 19.137 4 21.732v.531c0 .289.229.523.51.523h5.618v.523c0 .289.228.523.51.523h10.724c.282 0 .51-.234.51-.523v-.523h5.617c.282 0 .511-.234.511-.523v-.531c0-2.595-2.059-4.7-4.596-4.7-1.109 0-2.127.403-2.92 1.07-1.077-1.292-2.688-2.114-4.484-2.114zm0 1.046c2.697 0 4.851 2.195 4.851 4.945v.809H11.15v-.81c0-2.75 2.154-4.944 4.851-4.944zM8.596 18.08a3.48 3.48 0 0 1 2.33.883 6.05 6.05 0 0 0-.79 2.779H5.02v-.008c0-2.032 1.585-3.654 3.575-3.654zm14.808 0c1.99 0 3.575 1.622 3.575 3.654v.008h-5.115c-.039-1.008-.322-1.952-.79-2.77a3.48 3.48 0 0 1 2.33-.892z" fill="url(#A)"/></svg>