<svg xmlns="http://www.w3.org/2000/svg" width="32" height="32" viewBox="0 0 32 32">
    <defs>
        <linearGradient id="h5imc4s0ka" x1="0%" x2="100%" y1="74.321%" y2="25.679%">
            <stop offset="0%" stop-color="#FF444F" />
            <stop offset="100%" stop-color="#FF6444" />
        </linearGradient>
    </defs>
    <g fill="none" fill-rule="evenodd">
        <g fill="url(#h5imc4s0ka)" fill-rule="nonzero" transform="translate(-16 -73)">
            <g>
                <g>
                    <g>
                        <path
                            d="M12 .095c-2.11 0-3.83 1.762-3.83 3.923 0 2.16 1.72 3.923 3.83 3.923 2.11 0 3.83-1.763 3.83-3.923S14.11.095 12 .095zm0 1.046c1.557 0 2.809 1.282 2.809 2.877 0 1.595-1.252 2.877-2.809 2.877-1.557 0-2.809-1.282-2.809-2.877 0-1.595 1.252-2.877 2.809-2.877zM4.34 3.495c-1.545 0-2.808 1.294-2.808 2.877 0 1.582 1.263 2.877 2.808 2.877S7.15 7.954 7.15 6.372c0-1.583-1.264-2.877-2.809-2.877zm15.32 0c-1.545 0-2.809 1.294-2.809 2.877 0 1.582 1.264 2.877 2.809 2.877 1.545 0 2.808-1.295 2.808-2.877 0-1.583-1.263-2.877-2.808-2.877zM4.34 4.54c.994 0 1.788.813 1.788 1.83 0 1.018-.794 1.831-1.788 1.831-.993 0-1.787-.813-1.787-1.83 0-1.018.794-1.831 1.787-1.831zm15.32 0c.993 0 1.787.813 1.787 1.83 0 1.018-.794 1.831-1.787 1.831-.994 0-1.788-.813-1.788-1.83 0-1.018.794-1.831 1.788-1.831zM12 8.987c-1.794 0-3.399.824-4.476 2.117-.794-.673-1.814-1.07-2.928-1.07C2.059 10.033 0 12.137 0 14.732v.531c0 .289.229.523.51.523h5.618v.523c0 .289.228.523.51.523h10.724c.282 0 .51-.234.51-.523v-.523h5.617c.282 0 .511-.234.511-.523v-.531c0-2.595-2.059-4.7-4.596-4.7-1.109 0-2.127.403-2.92 1.07C15.407 9.81 13.796 8.988 12 8.988zm0 1.046c2.697 0 4.851 2.195 4.851 4.945v.809H7.15v-.81c0-2.75 2.154-4.944 4.851-4.944zM4.596 11.08c.9 0 1.705.33 2.33.883-.47.82-.751 1.769-.79 2.779H1.02v-.008c0-2.032 1.585-3.654 3.575-3.654zm14.808 0c1.99 0 3.575 1.622 3.575 3.654v.008h-5.115c-.039-1.008-.322-1.952-.79-2.77.625-.555 1.43-.892 2.33-.892z"
                            transform="translate(0 49) translate(16 24) translate(4 7)" />
                    </g>
                </g>
            </g>
        </g>
    </g>
</svg>