<svg xmlns="http://www.w3.org/2000/svg" width="24" height="24"><defs><linearGradient id="a" x1="0%" x2="100%" y1="92.604%" y2="7.396%"><stop offset="0%" stop-color="#FF444F"/><stop offset="100%" stop-color="#FF6444"/></linearGradient></defs><path fill="url(#a)" d="M12 3a3 3 0 0 1 2.94 3.598 7.503 7.503 0 0 1 4.514 7.736 3 3 0 1 1-2.809 5.054A7.46 7.46 0 0 1 12 21a7.467 7.467 0 0 1-4.646-1.612 3 3 0 1 1-2.808-5.055A7.503 7.503 0 0 1 9.06 6.598 3 3 0 0 1 12 3zm2.7 4.312a3 3 0 0 1-5.399-.001 6.752 6.752 0 0 0-4.01 6.941l-.041-.002a3 3 0 0 1 2.57 4.549A6.709 6.709 0 0 0 12 20.25c1.58 0 3.032-.542 4.181-1.45a3 3 0 0 1 2.526-4.55A6.75 6.75 0 0 0 14.7 7.312zM5.25 15a2.25 2.25 0 1 0 0 4.5 2.25 2.25 0 0 0 0-4.5zm13.5 0a2.25 2.25 0 1 0 0 4.5 2.25 2.25 0 0 0 0-4.5zM12 3.75a2.25 2.25 0 1 0 0 4.5 2.25 2.25 0 0 0 0-4.5z"/></svg>