<svg xmlns="http://www.w3.org/2000/svg" width="24" height="24"  xmlns:v="https://vecta.io/nano"><defs><linearGradient id="A" x1="0%" x2="100%" y1="92.014%" y2="7.986%"><stop offset="0%" stop-color="#ff444f"/><stop offset="100%" stop-color="#ff6444"/></linearGradient></defs><path fill="url(#A)" fill-rule="nonzero" d="M5.642 3.255c.493-.382 1.186-.333 1.642.135.496.592.926 1.239 1.272 1.908a4.34 4.34 0 0 1 .3.598l.011-.002h10.83c.684 0 1.244.538 1.299 1.222l.004.11v7.462a1.35 1.35 0 0 1-.378.948c-.217.223-.505.36-.81.388l-.115.005h-4.224c-.198 0-.36-.165-.36-.368 0-.18.128-.33.296-.361l.064-.006h4.224c.156 0 .305-.064.414-.177a.6.6 0 0 0 .165-.347l.004-.08V7.307l-5.694 4.69a1.47 1.47 0 0 1-1.796.075l-.1-.076-4.375-3.678-.008-.008-.22.161-.103.07c-.068.047-.133.098-.197.152-.553.467-.713 1.265-.386 1.914l1.655 3.098.085.14c.318.435.832.674 1.389.632-.035 0-.008-.018.029-.037l.414-.193.184-.083.163-.07c.766-.326 1.649-.155 2.254.445a8.09 8.09 0 0 1 1.567 2.431 1.39 1.39 0 0 1-.337 1.571c-1.193 1.072-2.94 1.164-4.668.676-1.751-.595-3.38-2.507-4.858-5.287-.988-1.858-1.883-4.13-2.135-5.143-.56-2.243.577-4.044 2.5-5.532zm1.114.634a.51.51 0 0 0-.68-.049l-.163.13C4.3 5.27 3.388 6.794 3.841 8.605c.236.95 1.109 3.166 2.07 4.973 1.397 2.628 2.924 4.42 4.434 4.934 1.5.423 3.017.344 3.982-.522.2-.183.262-.475.153-.73a7.34 7.34 0 0 0-1.416-2.203 1.34 1.34 0 0 0-1.469-.285l-.152.066-.7.323a.5.5 0 0 1-.144.049l-.187.007c-.723.008-1.412-.337-1.86-.952-.198-.31-.545-.94-.977-1.759l-.812-1.56a2.33 2.33 0 0 1 .565-2.82c.12-.102.245-.195.372-.276l.087-.06c.643-.472.755-1.106.144-2.13-.332-.64-.732-1.242-1.175-1.772zm12.941 2.74H9.042c.042.425-.046.806-.25 1.138l4.355 3.66a.76.76 0 0 0 .91.054l.075-.056L19.91 6.67c-.044-.017-.09-.03-.138-.036l-.074-.004z"/></svg>