<svg width="19" height="18" fill="none" xmlns="http://www.w3.org/2000/svg"><path fill-rule="evenodd" clip-rule="evenodd" d="M2.27 2.303a.375.375 0 1 1 .725-.194l.097.362.724-.194-.097-.362a.375.375 0 1 1 .725-.194l.097.362.724-.194-.097-.362a.375.375 0 1 1 .724-.194l.097.362.725-.194-.097-.362A.375.375 0 0 1 7.34.945l.097.362 1.45-.388a.75.75 0 0 1 .918.53l2.08 7.764c.194.007.39.053.576.14l1.36.634.316-.68a.75.75 0 0 1-.362-.997l.317-.68a.75.75 0 0 1 .996-.362l2.04.95a.75.75 0 0 1 .362.997l-.317.68a.75.75 0 0 1-.996.363l-.317.68 1.36.634a1.5 1.5 0 0 1 .725 1.993l-1.585 3.399a1.5 1.5 0 0 1-1.994.725L9.61 15.47a1.493 1.493 0 0 1-.656-.593l-4.54 1.217a.75.75 0 0 1-.92-.53L.389 3.971a.75.75 0 0 1 .53-.918l1.45-.388-.098-.363Zm6.474 11.854c-.008-.227.037-.46.14-.68l1.585-3.399c.148-.317.393-.559.684-.705L9.08 1.643l-1.449.388.098.362a.375.375 0 0 1-.725.195l-.097-.363-.724.194.097.363a.375.375 0 0 1-.725.194l-.097-.362-.724.194.097.362a.375.375 0 0 1-.725.194l-.097-.362-.724.194.097.362a.375.375 0 1 1-.725.194l-.097-.362-1.449.388L4.218 15.37l4.526-1.212ZM2.516 6.12a.375.375 0 0 1 .265-.46l5.796-1.553a.375.375 0 0 1 .194.725L2.976 6.385a.375.375 0 0 1-.46-.265ZM3.1 8.293a.375.375 0 0 1 .265-.46l5.795-1.552a.375.375 0 1 1 .195.724L3.558 8.558a.375.375 0 0 1-.46-.265Zm.847 1.714a.375.375 0 1 0 .194.725l5.796-1.553a.375.375 0 0 0-.194-.725l-5.796 1.553Zm.317 2.633a.375.375 0 0 1 .266-.46l3.622-.97a.375.375 0 1 1 .194.724l-3.622.97a.375.375 0 0 1-.46-.264Zm12.549-3.742-2.04-.95-.317.68 2.04.95.316-.68Zm-1.994.726.68.317-.317.68-.68-.317.317-.68Zm-2.673.409 4.758 2.218a.75.75 0 0 1 .363.997l-1.585 3.399a.75.75 0 0 1-.997.362l-4.758-2.218a.75.75 0 0 1-.363-.997l1.585-3.399a.75.75 0 0 1 .997-.362Zm.794 4.508a1.125 1.125 0 1 0 .951-2.04 1.125 1.125 0 0 0-.95 2.04Zm-.317.68a1.875 1.875 0 1 0 1.585-3.4 1.875 1.875 0 0 0-1.585 3.4Zm1.133-1.541a.375.375 0 1 1-.68-.318.375.375 0 0 1 .68.318Z" fill="url(#a)"/><defs><linearGradient id="a" x1="9.224" y1="26.412" x2="26.379" y2="8.697" gradientUnits="userSpaceOnUse"><stop stop-color="#FF444F"/><stop offset="1" stop-color="#FF6444"/></linearGradient></defs></svg>