<svg xmlns="http://www.w3.org/2000/svg" width="24" height="24"><defs><linearGradient id="a" x1="0%" x2="100%" y1="95.92%" y2="4.08%"><stop offset="0%" stop-color="#FF444F"/><stop offset="100%" stop-color="#FF6444"/></linearGradient></defs><g fill="none" fill-rule="evenodd"><path d="M3 3h18v18H3z"/><path fill="url(#a)" fill-rule="nonzero" d="M9 0c1.243 0 2.25 1.175 2.25 2.625 0 .834-.334 1.578-.854 2.058.974.348 1.737 1.17 2.038 2.196.28-.563.718-1.02 1.25-1.306a2.25 2.25 0 112.601.024c.876.486 1.49 1.444 1.545 2.568l.167 2.716a.85.85 0 01-.203.628.732.732 0 01-.564.259l-.594-.001-.42 4.875c-.03.318-.26.565-.547.603l-.08.005h-1.22c-.33.001-.604-.271-.629-.624l-.338-4.693h-.633a.742.742 0 01-.488-.187l.028.02a.621.621 0 01-.215.04h-.84a.085.085 0 00-.084.076l-.465 4.617c-.033.426-.374.752-.78.751H8.726a.797.797 0 01-.781-.756l-.366-4.416c-.005-.05-.043-.087-.086-.087h-.705a.773.773 0 01-.567-.251.85.85 0 01-.222-.603l.12-3.264c0-1.299.703-2.427 1.733-2.99-.66-.457-1.103-1.297-1.103-2.258C6.75 1.175 7.757 0 9 0zM3 1.5a2.25 2.25 0 011.299 4.088c.926.502 1.56 1.52 1.56 2.682l.14 2.702a.845.845 0 01-.212.603.75.75 0 01-.56.253h-.584l-.423 4.821a.651.651 0 01-.55.596l-.08.005H2.376c-.332.001-.608-.268-.633-.617l-.34-4.641H.76a.746.746 0 01-.483-.19l-.064-.064a.84.84 0 01-.213-.59L.1 8.29c0-1.188.645-2.217 1.586-2.718A2.232 2.232 0 01.75 3.75 2.25 2.25 0 013 1.5zm6.347 3.737c-1.393 0-2.523 1.18-2.523 2.65l-.12 3.276c0 .024.008.047.024.064a.08.08 0 00.061.027h.709c.407.005.745.33.784.757l.366 4.427a.08.08 0 00.079.075h1.199c.04 0 .074-.032.078-.082l.465-4.629c.046-.419.386-.735.787-.732H12l.016-.474-.147-2.723c0-1.35-.971-2.464-2.223-2.618L9.48 5.24zm-6.481.76H2.83C1.696 6.077.8 7.074.8 8.304l-.098 2.87c0 .02.007.039.02.053.013.014.03.023.044.023h.701c.332-.001.608.268.633.617l.339 4.641h1.088l.423-4.812a.66.66 0 01.55-.602l.08-.007h.647c.02 0 .038-.008.051-.023a.083.083 0 00.02-.053l-.142-2.72c0-1.27-.975-2.3-2.177-2.3l.126.005L3 6c-.045 0-.09-.001-.134-.004zM14.964 6c-1.155 0-2.107.971-2.168 2.204l-.078 2.311.031.568a.603.603 0 01-.002.095l.021.005h.698c.33-.001.603.271.628.623l.337 4.694h1.096l.42-4.866a.664.664 0 01.546-.61l.081-.006h.664a.063.063 0 00.047-.022c.012-.014.018-.033.016-.059l-.168-2.727C17.073 6.97 16.12 6 14.964 6zm-5.589-.75c.207 0 .375.168.375.375v2.25a.375.375 0 01-.75 0v-2.25c0-.207.168-.375.375-.375zM15 2.248a1.501 1.501 0 100 3.004l-.042-.002h.056A1.501 1.501 0 0015 2.248zm-12 0a1.501 1.501 0 100 3.004l-.036-.002h.055A1.501 1.501 0 003 2.248zM9 .784c-.872 0-1.578.824-1.578 1.841S8.128 4.466 9 4.466c.872 0 1.578-.824 1.578-1.841S9.872.784 9 .784z" transform="translate(3 3)"/></g></svg>
