<svg xmlns="http://www.w3.org/2000/svg" width="24" height="24"  xmlns:v="https://vecta.io/nano"><defs><linearGradient id="A" x1="0%" x2="100%" y1="95.92%" y2="4.08%"><stop offset="0%" stop-color="#ff444f"/><stop offset="100%" stop-color="#ff6444"/></linearGradient></defs><path fill="url(#A)" fill-rule="nonzero" d="M12 3c1.243 0 2.25 1.175 2.25 2.625 0 .834-.334 1.578-.854 2.058.974.348 1.737 1.17 2.038 2.196.28-.563.718-1.02 1.25-1.306a2.24 2.24 0 0 1-.934-1.823 2.25 2.25 0 0 1 4.5 0c0 .765-.381 1.44-.965 1.847.876.486 1.49 1.444 1.545 2.568l.167 2.716a.85.85 0 0 1-.203.628c-.147.17-.355.263-.564.259l-.594-.001-.42 4.875c-.03.318-.26.565-.547.603l-.08.005h-1.22c-.33.001-.604-.271-.629-.624l-.338-4.693h-.633a.74.74 0 0 1-.488-.187l.028.02a.62.62 0 0 1-.215.04h-.84c-.043 0-.08.034-.084.076l-.465 4.617c-.033.426-.374.752-.78.751h-1.199c-.412 0-.754-.334-.781-.756l-.366-4.416c-.005-.05-.043-.087-.086-.087h-.705c-.213 0-.418-.09-.567-.251a.85.85 0 0 1-.222-.603l.12-3.264c0-1.299.703-2.427 1.733-2.99-.66-.457-1.103-1.297-1.103-2.258C9.75 4.175 10.757 3 12 3zM6 4.5a2.25 2.25 0 0 1 1.299 4.088c.926.502 1.56 1.52 1.56 2.682l.14 2.702c.01.223-.066.441-.212.603a.75.75 0 0 1-.56.253h-.584l-.423 4.821c-.03.314-.262.559-.55.596l-.08.005H5.376c-.332.001-.608-.268-.633-.617l-.34-4.641H3.76c-.177-.003-.348-.07-.483-.19l-.064-.064a.84.84 0 0 1-.213-.59l.1-2.858c0-1.188.645-2.217 1.586-2.718A2.23 2.23 0 0 1 3.75 6.75 2.25 2.25 0 0 1 6 4.5zm6.347 3.737c-1.393 0-2.523 1.18-2.523 2.65l-.12 3.276c0 .024.008.047.024.064s.038.027.061.027h.709c.407.005.745.33.784.757l.366 4.427a.08.08 0 0 0 .079.075h1.199c.04 0 .074-.032.078-.082l.465-4.629c.046-.419.386-.735.787-.732H15l.016-.474-.147-2.723c0-1.35-.971-2.464-2.223-2.618l-.166-.015zm-6.481.76H5.83c-1.134.08-2.03 1.077-2.03 2.307l-.098 2.87c0 .02.007.039.02.053s.03.023.044.023h.701c.332-.001.608.268.633.617l.339 4.641h1.088l.423-4.812a.66.66 0 0 1 .55-.602l.08-.007h.647c.02 0 .038-.008.051-.023s.02-.035.02-.053l-.142-2.72c0-1.27-.975-2.3-2.177-2.3l.126.005L6 9a1.98 1.98 0 0 1-.134-.004zM17.964 9c-1.155 0-2.107.971-2.168 2.204l-.078 2.311.031.568c.002.032.001.063-.002.095l.021.005h.698c.33-.001.603.271.628.623l.337 4.694h1.096l.42-4.866c.029-.316.255-.565.546-.61l.081-.006h.664c.017 0 .035-.008.047-.022s.018-.033.016-.059l-.168-2.727C20.073 9.97 19.12 9 17.964 9zm-5.589-.75c.207 0 .375.168.375.375v2.25c0 .207-.168.375-.375.375S12 11.082 12 10.875v-2.25c0-.207.168-.375.375-.375zM18 5.248a1.5 1.5 0 1 0 0 3.004l-.042-.002h.056A1.5 1.5 0 1 0 18 5.248zm-12 0a1.5 1.5 0 1 0 0 3.004l-.036-.002h.055A1.5 1.5 0 1 0 6 5.248zm6-1.464c-.872 0-1.578.824-1.578 1.841S11.128 7.466 12 7.466s1.578-.824 1.578-1.841S12.872 3.784 12 3.784z"/></svg>