<svg width="32" height="32" xmlns="http://www.w3.org/2000/svg"><defs><linearGradient x1="0%" y1="95.92%" x2="100%" y2="4.08%" id="a"><stop stop-color="#FF444F" offset="0%"/><stop stop-color="#FF6444" offset="100%"/></linearGradient></defs><path d="M21.5 5a2.5 2.5 0 11-.67 4.91l-1.762 2.642A4.994 4.994 0 0120.975 16h2.075a2.5 2.5 0 110 1h-2.075a4.994 4.994 0 01-1.907 3.448l1.762 2.643A2.502 2.502 0 0124 25.5a2.5 2.5 0 11-4.067-1.948l-1.714-2.57A4.98 4.98 0 0116 21.5a4.98 4.98 0 01-2.22-.518l-1.713 2.57a2.5 2.5 0 11-.897-.461l1.762-2.643a4.994 4.994 0 01-1.907-3.447H8.95a2.5 2.5 0 110-1h2.075a5 5 0 011.907-3.45L11.17 9.91A2.502 2.502 0 018 7.5a2.5 2.5 0 114.067 1.948l1.714 2.57A4.98 4.98 0 0116 11.5c.797 0 1.55.186 2.22.518l1.713-2.57A2.5 2.5 0 0121.5 5zm-11 19a1.5 1.5 0 100 3 1.5 1.5 0 000-3zm11 0a1.5 1.5 0 100 3 1.5 1.5 0 000-3zm-6.18-5.118l-.02.018-.076.047-1.577.788c.66.481 1.474.765 2.353.765.88 0 1.692-.284 2.353-.765l-1.577-.788-.076-.047a.497.497 0 01-.023-.018 1.996 1.996 0 01-1.356 0zM16 12.5a4 4 0 00-3.12 6.502l1.543-.772A1.991 1.991 0 0114 17v-1a2 2 0 114 0v1c0 .464-.158.89-.423 1.23l1.544.772A4 4 0 0016 12.5zM6.5 15a1.5 1.5 0 100 3 1.5 1.5 0 000-3zm19 0a1.5 1.5 0 100 3 1.5 1.5 0 000-3zM16 15a1 1 0 00-.993.883L15 16v1a1 1 0 001.993.117L17 17v-1a1 1 0 00-1-1zm-5.5-9a1.5 1.5 0 100 3 1.5 1.5 0 000-3zm11 0a1.5 1.5 0 100 3 1.5 1.5 0 000-3z" fill="url(#a)"/></svg>
