<svg xmlns="http://www.w3.org/2000/svg" width="24" height="24"  xmlns:v="https://vecta.io/nano"><defs><linearGradient id="A" x1="0%" x2="100%" y1="100%" y2="0%"><stop offset="0%" stop-color="#ff444f"/><stop offset="100%" stop-color="#ff6444"/></linearGradient></defs><path fill="url(#A)" fill-rule="nonzero" d="M16.567 3.1a1.21 1.21 0 0 1 1.574.586l2.746 5.886c.275.583.03 1.278-.552 1.566l-.835.413v8.19a1.25 1.25 0 0 1-1.108 1.252l-.126.007H4.234C3.553 21 3 20.436 3 19.74v-8.73c0-.696.553-1.26 1.234-1.26h1.344l-.176-.315c-.14-.25-.185-.54-.128-.818l.038-.137a1.19 1.19 0 0 1 .652-.71zm2.211 12.15H3.721v4.49a.52.52 0 0 0 .421.515l.092.008h14.032c.283 0 .512-.234.512-.523v-4.49zm-2.653.5c1.036 0 1.875.84 1.875 1.875s-.84 1.875-1.875 1.875c-.267 0-.52-.056-.75-.156a1.87 1.87 0 0 1-.75.156c-1.036 0-1.875-.84-1.875-1.875s.84-1.875 1.875-1.875c.267 0 .521.056.751.157a1.85 1.85 0 0 1 .749-.157zm-1.512.766l-.109.006a1.11 1.11 0 0 0 .121 2.213h-.012a1.87 1.87 0 0 1 0-2.22zm1.524 0c.228.31.363.694.363 1.109a1.87 1.87 0 0 1-.363 1.11 1.11 1.11 0 1 0-.012-2.22zm-.761.292l-.075.073a1.11 1.11 0 0 0-.286.744c0 .324.139.615.36.818.221-.203.36-.494.36-.818s-.139-.614-.36-.817zm3.402-3.885H3.721v1.327h15.057v-1.327zM5.987 10.486H4.234c-.283 0-.512.235-.512.524L3.72 12h14.871l.073-.64.003-.112a1.08 1.08 0 0 0-.048-.306c-.07-.215-.195-.32-.46-.32l-12.113-.028-.06-.108zM17.465 3.92a.5.5 0 0 0-.612-.18L6.252 8.41c-.127.056-.225.162-.269.292a.49.49 0 0 0 .038.395l.363.654h1.475L7.5 8.807 10.322 7.5l.928 2.092-.347.158h7.363c.604 0 1.107.444 1.213 1.03l.54-.268a.49.49 0 0 0 .252-.579l-.026-.067-2.746-5.885zM9.998 8.425l-1.64.76.216.565h.631l1.15-.524-.357-.8zm8.482-.335l.035.068-2.648 1.376-.035-.068L18.48 8.09zm-.64-1.26l.035.068-3.892 2.021-.035-.067L17.84 6.83z"/></svg>