<svg xmlns="http://www.w3.org/2000/svg" width="24" height="24"  xmlns:v="https://vecta.io/nano"><defs><linearGradient id="A" x1="7.986%" x2="92.014%" y1="100%" y2="0%"><stop offset="0%" stop-color="#ff444f"/><stop offset="100%" stop-color="#ff6444"/></linearGradient><linearGradient id="B" x1="0%" x2="100%" y1="50.781%" y2="49.219%"><stop offset="0%" stop-color="#ff444f"/><stop offset="100%" stop-color="#ff6444"/></linearGradient><linearGradient id="C" x1="0%" x2="100%" y1="51.02%" y2="48.98%"><stop offset="0%" stop-color="#ff444f"/><stop offset="100%" stop-color="#ff6444"/></linearGradient><linearGradient id="D" x1="0%" x2="100%" y1="52%" y2="48%"><stop offset="0%" stop-color="#ff444f"/><stop offset="100%" stop-color="#ff6444"/></linearGradient><linearGradient id="E" x1="0%" x2="100%" y1="55.556%" y2="44.444%"><stop offset="0%" stop-color="#ff444f"/><stop offset="100%" stop-color="#ff6444"/></linearGradient></defs><g transform="translate(3 3)" fill-rule="nonzero"><path fill="url(#A)" d="M9.02 0c.505 0 .986.203 1.337.56l.093.101 1.348 1.589h1.685c.358.006.699.14.962.376l.107.108L16.79 5.25h.085v.096l.028.031c.193.22.312.492.34.778l.007.143v10.296c0 .774-.636 1.4-1.423 1.406H6.682a1.42 1.42 0 0 1-1.432-1.406v-.844H2.167a1.42 1.42 0 0 1-1.412-1.31l-.005-.11V1.447a1.41 1.41 0 0 1 .4-1.02c.235-.243.55-.391.883-.421L2.159 0H9.02zm4.457 3H6.682C6.303 3 6 3.296 6 3.656v12.938c0 .36.303.656.682.656h9.142c.376-.003.676-.298.676-.656V6.296A.63.63 0 0 0 16.428 6h-1.436c-.727 0-1.345-.489-1.404-1.128l-.005-.102-.069-1.766L13.477 3zM9 .75H2.159c-.178 0-.348.072-.472.2a.66.66 0 0 0-.183.395l-.004.093V14.33a.67.67 0 0 0 .584.665l.083.005H5.25V3.656c0-.733.57-1.332 1.294-1.4l.138-.006H9V.75zm5.286 2.813l.047 1.192c0 .236.237.455.567.49l.092.005h.794l-1.5-1.687zM9.751 1.02L9.75 2.25h1.065l-.937-1.103a1.17 1.17 0 0 0-.127-.127z"/><rect width="6" height="1" x="8.625" y="7.875" fill="url(#B)" rx=".375"/><rect width="5.25" height="1" x="8.625" y="9.375" fill="url(#C)" rx=".375"/><rect width="6" height="1" x="8.625" y="10.875" fill="url(#B)" rx=".375"/><rect width="5.25" height="1" x="8.625" y="12.375" fill="url(#C)" rx=".375"/><rect width="3.75" height="1" x="8.625" y="13.875" fill="url(#D)" rx=".375"/><g fill="url(#E)"><rect width="2.25" height="1" x="3.375" y="5.625" rx=".375"/><rect width="2.25" height="1" x="3.375" y="7.125" rx=".375"/><rect width="2.25" height="1" x="3.375" y="8.625" rx=".375"/><rect width="2.25" height="1" x="3.375" y="10.125" rx=".375"/><rect width="2.25" height="1" x="3.375" y="11.625" rx=".375"/></g></g></svg>