<svg width="32" height="32" viewBox="0 0 32 32" fill="none" xmlns="http://www.w3.org/2000/svg">
<g clip-path="url(#clip0_496_18523)">
<path d="M0 6C0 2.68629 2.68629 0 6 0H26C29.3137 0 32 2.68629 32 6V26C32 29.3137 29.3137 32 26 32H6C2.68629 32 0 29.3137 0 26V6Z" fill="#FF444F"/>
<path d="M6 0C2.68629 0 0 2.68629 0 6V6.17428L29.9144 1.45264C28.8637 0.547333 27.4958 0 26 0H6Z" fill="#E12E3A"/>
<path d="M30.5319 2.06775L25.0444 32L26 32C29.3137 32 32 29.3137 32 26V6C32 4.49576 31.4465 3.12081 30.5319 2.06775Z" fill="#E12E3A"/>
<path d="M11.757 12.843C10.7396 12.843 10.0023 13.1277 9.54496 13.697C9.09696 14.257 8.87296 15.027 8.87296 16.007C8.87296 16.483 8.92896 16.917 9.04096 17.309C9.15296 17.6917 9.32096 18.023 9.54496 18.303C9.76896 18.583 10.049 18.8024 10.385 18.961C10.721 19.1104 11.113 19.185 11.561 19.185C11.8036 19.185 12.009 19.1803 12.177 19.171C12.3543 19.1617 12.5083 19.143 12.639 19.115V15.741H14.823V20.543C14.5616 20.6457 14.1416 20.753 13.563 20.865C12.9843 20.9864 12.2703 21.047 11.421 21.047C10.693 21.047 10.0303 20.935 9.43296 20.711C8.84496 20.487 8.34096 20.1604 7.92096 19.731C7.50096 19.3017 7.17429 18.7744 6.94096 18.149C6.71696 17.5237 6.60496 16.8097 6.60496 16.007C6.60496 15.195 6.73096 14.4764 6.98296 13.851C7.23496 13.2257 7.58029 12.6984 8.01896 12.269C8.45763 11.8304 8.97096 11.499 9.55896 11.275C10.1563 11.051 10.791 10.939 11.463 10.939C11.9203 10.939 12.331 10.9717 12.695 11.037C13.0683 11.093 13.3856 11.163 13.647 11.247C13.9176 11.3217 14.137 11.401 14.305 11.485C14.4823 11.569 14.6083 11.6343 14.683 11.681L14.053 13.431C13.7543 13.2724 13.409 13.137 13.017 13.025C12.6343 12.9037 12.2143 12.843 11.757 12.843Z" fill="white"/>
<path d="M17.989 16.007C17.989 16.483 18.045 16.9124 18.157 17.295C18.2784 17.6777 18.4464 18.009 18.661 18.289C18.885 18.5597 19.1557 18.7697 19.473 18.919C19.7904 19.0683 20.1544 19.143 20.565 19.143C20.9664 19.143 21.3257 19.0683 21.643 18.919C21.9697 18.7697 22.2404 18.5597 22.455 18.289C22.679 18.009 22.847 17.6777 22.959 17.295C23.0804 16.9124 23.141 16.483 23.141 16.007C23.141 15.531 23.0804 15.1017 22.959 14.719C22.847 14.327 22.679 13.9957 22.455 13.725C22.2404 13.445 21.9697 13.2304 21.643 13.081C21.3257 12.9317 20.9664 12.857 20.565 12.857C20.1544 12.857 19.7904 12.9364 19.473 13.095C19.1557 13.2444 18.885 13.459 18.661 13.739C18.4464 14.0097 18.2784 14.341 18.157 14.733C18.045 15.1157 17.989 15.5403 17.989 16.007ZM25.395 16.007C25.395 16.8377 25.269 17.5704 25.017 18.205C24.7744 18.8304 24.4384 19.3577 24.009 19.787C23.5797 20.207 23.0664 20.5244 22.469 20.739C21.881 20.9537 21.2464 21.061 20.565 21.061C19.9024 21.061 19.277 20.9537 18.689 20.739C18.101 20.5244 17.5877 20.207 17.149 19.787C16.7104 19.3577 16.365 18.8304 16.113 18.205C15.861 17.5704 15.735 16.8377 15.735 16.007C15.735 15.1764 15.8657 14.4484 16.127 13.823C16.3884 13.1884 16.7384 12.6564 17.177 12.227C17.625 11.7977 18.1384 11.4757 18.717 11.261C19.305 11.0464 19.921 10.939 20.565 10.939C21.2277 10.939 21.853 11.0464 22.441 11.261C23.029 11.4757 23.5424 11.7977 23.981 12.227C24.4197 12.6564 24.765 13.1884 25.017 13.823C25.269 14.4484 25.395 15.1764 25.395 16.007Z" fill="white"/>
</g>
<defs>
<clipPath id="clip0_496_18523">
<rect width="32" height="32" fill="white"/>
</clipPath>
</defs>
</svg>
