<svg xmlns="http://www.w3.org/2000/svg" width="64" height="64"><g fill="none" fill-rule="evenodd"><g fill="#FF444F" fill-rule="nonzero"><path d="M31.5 8c.828 0 1.5-.554 1.5-1.238V1.238C33 .554 32.328 0 31.5 0S30 .554 30 1.238v5.524C30 7.446 30.672 8 31.5 8zm31.267 35.144l-2.231-2.228a4.181 4.181 0 00-2.98-1.232c-.72 0-1.413.18-2.026.516l-4.205-4.207.205-.204a4.396 4.396 0 000-6.2 4.337 4.337 0 00-2.2-1.192 4.39 4.39 0 00.175-1.23 4.346 4.346 0 00-1.281-3.1 4.337 4.337 0 00-2.2-1.192c.115-.394.175-.807.175-1.23a4.348 4.348 0 00-1.283-3.102 4.354 4.354 0 00-2.197-1.188 4.402 4.402 0 00-1.106-4.335 4.381 4.381 0 00-3.566-1.253l-8.334-1.58c-1.27-.241-2.858-.4-3.86.514a2.284 2.284 0 00-.19.199 4.388 4.388 0 00-4.61 1.015 4.356 4.356 0 00-1.28 3.101c0 .423.06.837.174 1.231a4.335 4.335 0 00-2.195 1.189 4.349 4.349 0 00-1.284 3.098c0 .424.06.839.174 1.234a4.345 4.345 0 00-2.198 1.187 4.366 4.366 0 00-1.282 3.104c0 .899.268 1.756.765 2.48a4.346 4.346 0 00-1.683 1.048 4.396 4.396 0 00.001 6.204l.204.204-4.205 4.204a4.221 4.221 0 00-4.78.83l-2.232 2.23C.437 44.053 0 45.113 0 46.243s.437 2.19 1.232 2.984l2.787 2.788a1.261 1.261 0 001.786-.001 1.267 1.267 0 00-.001-1.79l-2.787-2.787a1.677 1.677 0 01-.49-1.194c0-.454.174-.878.49-1.193l2.233-2.23a1.688 1.688 0 012.06-.254 1.252 1.252 0 00.522.448l12.806 12.807a1.26 1.26 0 00.609.617c.271.306.42.698.42 1.115 0 .454-.173.878-.49 1.194l-2.23 2.232a1.697 1.697 0 01-2.39.002l-2.786-2.791a1.263 1.263 0 00-1.787 0 1.267 1.267 0 000 1.789l2.79 2.793A4.198 4.198 0 0017.751 64c1.078 0 2.158-.41 2.98-1.23l2.232-2.232a4.194 4.194 0 001.231-2.985c0-.806-.223-1.576-.64-2.24l4.734-4.735.015-.016c.542-.56 2.051-.456 3.511-.354 1.037.072 2.194.152 3.323.022l5.184 5.185a4.204 4.204 0 00-.515 2.026 4.19 4.19 0 001.231 2.983l2.233 2.233a4.184 4.184 0 002.98 1.231 4.182 4.182 0 002.978-1.231l13.54-13.544C63.563 48.32 64 47.26 64 46.13s-.438-2.19-1.233-2.985zm-33.524-30.47l5.48 1.038-3.28 3.284c-.508-.244-1.203-.7-1.966-1.43-1.044-1.001-1.791-2.156-1.86-2.877v-.001a1.226 1.226 0 01-.005-.125c.165-.04.604-.085 1.63.11zm-6.405 1.031a1.863 1.863 0 012.358-.224c.41 1.721 1.875 3.28 2.535 3.913.488.468 2.056 1.872 3.64 2.258.213.307.33.674.33 1.06a1.84 1.84 0 01-1.852 1.853c-.498 0-.964-.191-1.313-.541v-.001l-5.698-5.696a1.84 1.84 0 01-.539-1.31c0-.499.192-.964.54-1.312zm-3.3 5.521c.347-.349.812-.54 1.31-.54s.964.192 1.314.542l4.588 4.585c.722.725.722 1.904.002 2.626-.35.348-.817.54-1.316.54-.499 0-.966-.192-1.314-.539l-3.48-3.485-.017-.016-1.09-1.09a1.848 1.848 0 01-.54-1.313c0-.496.192-.96.542-1.31zm-3.308 5.52c.348-.348.814-.54 1.313-.54.495 0 .957.19 1.303.53l3.491 3.495c.348.348.54.813.54 1.31a1.84 1.84 0 01-1.853 1.851c-.498 0-.966-.192-1.314-.54l-1.265-1.265-.001-.001-2.214-2.215a1.842 1.842 0 01-.541-1.312c0-.498.192-.964.54-1.313zm-2.2 6.631c.35-.35.816-.542 1.314-.542.499 0 .965.192 1.315.542l1.267 1.267c.348.348.54.813.54 1.31 0 .498-.192.963-.543 1.313-.347.348-.813.54-1.311.54-.499 0-.964-.191-1.315-.543l-.158-.158-.006-.006-.007-.007-1.095-1.092a1.86 1.86 0 01-.001-2.624zm25.744 14.379a1.263 1.263 0 00-1.787-.001l-1.124 1.124c-1.067 1.07-3.003.935-4.874.805-2.032-.141-4.134-.287-5.494 1.11l-4.653 4.655-11.636-11.636 4.118-4.117c.68.418 1.466.642 2.288.642a4.346 4.346 0 003.097-1.28 4.353 4.353 0 001.284-3.104l-.001-.032h.033a4.348 4.348 0 003.095-1.277 4.352 4.352 0 001.284-3.103v-.033h.033a4.358 4.358 0 003.101-1.28c.86-.863 1.286-2 1.278-3.134l.034.001a4.343 4.343 0 003.098-1.282 4.356 4.356 0 001.28-3.101c0-.822-.223-1.607-.639-2.287l3.61-3.614c.268-.268.6-.436.947-.506a1.858 1.858 0 011.682.503c.722.726.722 1.905.002 2.627l-1.099 1.096-.01.01-1.267 1.266a1.267 1.267 0 00-.001 1.79 1.26 1.26 0 001.786 0l1.104-1.103.168-.167a1.858 1.858 0 012.621.006c.348.347.54.813.54 1.31 0 .498-.192.963-.543 1.313l-1.105 1.11-1.266 1.262a1.267 1.267 0 00-.004 1.79 1.263 1.263 0 001.787.003l1.271-1.268c.348-.35.814-.541 1.312-.541.498 0 .964.192 1.314.543.348.348.54.813.54 1.31 0 .498-.192.963-.542 1.312l-2.204 2.208a1.268 1.268 0 000 1.79 1.263 1.263 0 001.787-.001l1.08-1.082.019-.017c.348-.35.813-.541 1.312-.541.498 0 .964.192 1.313.542a1.86 1.86 0 010 2.622l-1.099 1.099v.001l-.002.001-1.743 1.744a1.263 1.263 0 101.785 1.79l.853-.853 4.086 4.088-11.635 11.638-4.168-4.17c.29-.187.568-.407.83-.668l1.123-1.124a1.266 1.266 0 000-1.789zm21.209 1.567l-13.54 13.544c-.317.316-.74.49-1.194.49-.453 0-.877-.174-1.194-.49l-2.232-2.234a1.67 1.67 0 01-.49-1.192c0-.452.173-.875.49-1.192l13.54-13.543c.316-.317.74-.492 1.193-.492.454 0 .878.175 1.195.492l2.232 2.229c.316.317.49.74.49 1.194 0 .454-.174.878-.49 1.194zM14.884 6.637a1.235 1.235 0 001.754-.002 1.243 1.243 0 00-.002-1.756L12.116.363a1.238 1.238 0 00-1.754.002 1.243 1.243 0 00.002 1.756l4.52 4.516zM48.24 7c.318 0 .636-.121.878-.363l4.518-4.517A1.24 1.24 0 1051.882.364L47.364 4.88A1.242 1.242 0 0048.241 7z"/><path d="M7.43 54.448c-.58.59-.572 1.539.018 2.119l.005.004a1.496 1.496 0 002.118-.02 1.501 1.501 0 00-2.14-2.103zM42.501 44a1.5 1.5 0 10-.672-2.839l-.009.004a1.497 1.497 0 00-.658 2.012c.262.522.791.823 1.339.823z"/></g><path d="M0 0h64v64H0z"/></g></svg>