<svg xmlns="http://www.w3.org/2000/svg" width="64" height="64"><g fill="none" fill-rule="evenodd"><g fill="#FF444F" fill-rule="nonzero"><path d="M34.352 36.578l2.034-3.427-5.537-5.537-3.427 2.034a16.54 16.54 0 00-2.83-1.169l-.985-3.864h-7.83l-.985 3.865c-.981.303-1.93.695-2.83 1.17l-3.426-2.035-5.538 5.538 2.035 3.426c-.475.9-.867 1.848-1.17 2.83L0 40.392v7.83l3.865.985c.303.981.694 1.93 1.169 2.83l-2.035 3.426 5.538 5.538 3.427-2.035c.9.475 1.848.867 2.83 1.17L15.777 64h7.83l.985-3.865c.981-.303 1.93-.694 2.83-1.169l3.426 2.035 5.537-5.538-2.034-3.427c.474-.9.866-1.848 1.169-2.83l3.864-.984v-7.83l-3.865-.985a16.57 16.57 0 00-1.168-2.83zm2.96 10.034l-3.466.884-.158.584a14.335 14.335 0 01-1.429 3.459l-.303.525 1.825 3.074-3.259 3.259-3.074-1.824-.526.303c-1.074.62-2.238 1.1-3.458 1.429l-.585.157-.883 3.465H17.39l-.884-3.466-.584-.157a14.378 14.378 0 01-3.459-1.43l-.525-.302-3.074 1.824-3.259-3.259 1.824-3.074-.302-.525a14.419 14.419 0 01-1.43-3.459l-.157-.584-3.466-.883v-4.607l3.466-.884.157-.585c.328-1.22.809-2.384 1.43-3.458l.302-.526-1.824-3.074 3.259-3.259 3.074 1.825.525-.303a14.5 14.5 0 013.459-1.43l.584-.157.883-3.466h4.607l.884 3.466.585.158c1.22.327 2.384.808 3.458 1.429l.526.303 3.074-1.825 3.259 3.259-1.825 3.074.303.526c.62 1.074 1.1 2.238 1.43 3.458l.157.585 3.466.883v4.608z"/><path d="M19.692 32c-6.786 0-12.307 5.521-12.307 12.308 0 6.786 5.52 12.307 12.307 12.307C26.48 56.615 32 51.095 32 44.308 32 37.52 26.479 32 19.692 32zm0 22.564c-5.655 0-10.256-4.6-10.256-10.256 0-5.656 4.6-10.257 10.256-10.257 5.656 0 10.257 4.601 10.257 10.257 0 5.655-4.601 10.256-10.257 10.256z"/><path d="M19.282 38.564c-3.394 0-6.154 2.76-6.154 6.154s2.76 6.154 6.154 6.154 6.154-2.76 6.154-6.154-2.76-6.154-6.154-6.154zm0 10.257c-2.263 0-4.103-1.84-4.103-4.103s1.84-4.103 4.103-4.103 4.103 1.84 4.103 4.103-1.84 4.103-4.103 4.103zm41.6-40.616H35.938a3.111 3.111 0 00-3.117 3.1V25.77c0 1.709 1.398 3.1 3.117 3.1h2.08v4.771l9.598-4.771h13.266c1.72 0 3.118-1.391 3.118-3.1V11.305c0-1.71-1.399-3.1-3.118-3.1zm1.04 17.565c0 .57-.466 1.033-1.04 1.033H47.126l-7.03 3.495v-3.495h-4.158a1.037 1.037 0 01-1.039-1.033V11.305c0-.57.466-1.033 1.04-1.033h24.943c.574 0 1.04.462 1.04 1.033V25.77zM3.118 18.32h10.105l6.524 3.834V18.32h8.315c1.719 0 3.117-1.37 3.117-3.053V3.053C31.18 1.37 29.781 0 28.062 0H3.118C1.398 0 0 1.37 0 3.053v12.214c0 1.683 1.399 3.053 3.118 3.053zM2.078 3.053a1.03 1.03 0 011.04-1.017h24.944a1.03 1.03 0 011.039 1.017v12.214a1.03 1.03 0 01-1.04 1.017H17.669v2.273L13.8 16.284H3.118a1.03 1.03 0 01-1.04-1.017V3.053z"/><path d="M57.846 22.564h-2.051v-8.205h-2.051v8.205h-2.052V12.308h-2.051v10.256H47.59V16.41h-2.052v6.154h-2.051v-4.102h-2.051v4.102h-2.051v2.051h20.512V12.308h-2.051zM7.385 12.308a3.286 3.286 0 003.282-3.282 3.286 3.286 0 00-3.282-3.282c-1.81 0-3.282 1.472-3.282 3.282s1.472 3.282 3.282 3.282zm0-4.376a1.094 1.094 0 110 2.189 1.094 1.094 0 010-2.189zm8.205 4.376a3.286 3.286 0 003.282-3.282 3.286 3.286 0 00-3.282-3.282c-1.81 0-3.282 1.472-3.282 3.282s1.472 3.282 3.282 3.282zm0-4.376a1.094 1.094 0 110 2.189 1.094 1.094 0 010-2.189zm8.205 4.376a3.286 3.286 0 003.282-3.282 3.286 3.286 0 00-3.282-3.282c-1.81 0-3.282 1.472-3.282 3.282s1.472 3.282 3.282 3.282zm0-4.376a1.094 1.094 0 110 2.189 1.094 1.094 0 010-2.189zm29.019 33.094c-1.989 0-3.936.547-5.657 1.587l-6.131-.748 2.062 4.992a11.676 11.676 0 00-1.46 5.656C41.629 58.846 46.648 64 52.815 64S64 58.846 64 52.513c0-6.334-5.018-11.487-11.186-11.487zm-5.74 18.797h11.48a8.963 8.963 0 01-5.74 2.088 8.961 8.961 0 01-5.74-2.088zm4.388-6.81a2.082 2.082 0 01-.681-1.544v-1.912c0-1.191.863-2.205 1.922-2.262a1.984 1.984 0 011.512.57c.407.4.633.936.633 1.515v2.089c0 .589-.242 1.138-.681 1.544l-.336.311v1.923l2.81 1.443c.453.232.805.6 1.02 1.044h-9.693a2.295 2.295 0 011.02-1.044l2.81-1.443v-1.923l-.336-.311zm8.447 5.426c-.114-1.547-.99-2.914-2.358-3.617l-1.539-.79c.559-.73.87-1.634.87-2.563V49.38c0-1.14-.462-2.244-1.267-3.03-.818-.795-1.875-1.184-3.018-1.142-2.16.116-3.85 2.027-3.85 4.35v1.91c0 .93.311 1.833.868 2.564l-1.538.79c-1.369.703-2.245 2.07-2.358 3.617a9.508 9.508 0 01-2.057-5.926c0-1.771.492-3.506 1.422-5.016l.285-.463-1.104-2.67 3.36.41.305-.199a8.946 8.946 0 014.884-1.46c5.047 0 9.152 4.215 9.152 9.398a9.508 9.508 0 01-2.057 5.926z"/></g><path d="M0 0h64v64H0z"/></g></svg>