<svg xmlns="http://www.w3.org/2000/svg" width="24" height="16"><g fill-rule="nonzero" fill="none"><path fill="#2D754D" d="M2 16h20a2 2 0 002-2v-1H0v1a2 2 0 002 2z"/><path fill="#FECB2F" d="M0 10h24v3H0z"/><path fill="#25B1EB" d="M2 0h20a2 2 0 012 2v8H0V2a2 2 0 012-2z"/><path d="M18.99 2l.12 2.07.653-1.968-.419 2.031 1.14-1.732-.93 1.853 1.55-1.378-1.379 1.55 1.854-.931-1.733 1.14 2.032-.42-1.97.654 2.071.12-2.07.122 1.969.652-2.032-.419 1.733 1.14-1.854-.93 1.379 1.55-1.55-1.379.93 1.854-1.14-1.733.42 2.032-.653-1.97-.121 2.072-.121-2.07-.653 1.969.419-2.032-1.14 1.733.93-1.854-1.55 1.379 1.38-1.55-1.854.93 1.732-1.14-2.031.42 1.968-.655L16 4.99l2.07-.121-1.968-.653 2.031.419-1.732-1.14 1.853.93-1.378-1.55 1.55 1.38-.932-1.855 1.14 1.732-.42-2.031.654 1.969.121-2.07zm0 2.063a.927.927 0 100 1.854.927.927 0 000-1.854zm0 .087a.84.84 0 11-.001 1.681.84.84 0 01.001-1.681z" fill="#FECB2F"/><rect width="23" height="15" x=".5" y=".5" stroke="#000" stroke-opacity=".04" rx="1"/></g></svg>