<svg width="32" height="16" viewBox="0 0 32 16" fill="none" xmlns="http://www.w3.org/2000/svg">
<g clip-path="url(#clip0_6205_6512)">
<path d="M32 0H0V16H32V0Z" fill="#012169"/>
<path d="M0 0L16 8L0 0ZM16 0L0 8L16 0Z" fill="black"/>
<path d="M16 0L0 8M0 0L16 8L0 0Z" stroke="white" stroke-width="1.6"/>
<path d="M0 0L16 8L0 0ZM16 0L0 8L16 0Z" fill="black"/>
<path d="M16 0L0 8M0 0L16 8L0 0Z" stroke="#C8102E" stroke-width="1.06667"/>
<path d="M8 0V9.33333V0ZM0 4H18.6667H0Z" fill="black"/>
<path d="M0 4H18.6667M8 0V9.33333V0Z" stroke="white" stroke-width="2.66667"/>
<path d="M8 0V9.33333V0ZM0 4H18.6667H0Z" fill="black"/>
<path d="M0 4H18.6667M8 0V9.33333V0Z" stroke="#C8102E" stroke-width="1.6"/>
<path d="M0 8H16V0H32V16H0V8Z" fill="#012169"/>
<path d="M20.115 11.9882C20.1916 12.1926 20.7412 12.461 21.3802 12.116C21.8147 11.8731 22.0958 11.5281 22.3642 10.9147C22.4409 10.7613 22.4792 10.5696 22.3003 10.4546C22.1597 10.3524 21.9297 10.2374 21.8274 10.1351C21.7763 10.084 21.7252 10.0457 21.6869 10.0073C21.7124 10.0329 21.738 10.0584 21.7635 10.0968C22.0191 10.4035 21.7508 10.8508 21.4696 11.1191C21.2651 11.3108 20.8945 11.7837 20.3578 11.3364C20.2428 11.2342 19.9744 11.6559 20.115 11.9882L20.115 11.9882Z" fill="#FCEA83" stroke="black" stroke-width="0.0383387"/>
<path d="M27.8846 11.9882C27.7952 12.1926 27.2456 12.461 26.6194 12.116C26.1849 11.8731 25.9038 11.5281 25.6226 10.9147C25.5587 10.7613 25.5204 10.5696 25.6993 10.4546C25.8399 10.3524 26.0699 10.2374 26.1722 10.1351C26.2233 10.084 26.2616 10.0457 26.3127 10.0073C26.2872 10.0329 26.2616 10.0584 26.2361 10.0968C25.9805 10.4035 26.2488 10.8508 26.5172 11.1191C26.7217 11.3108 27.1051 11.7837 27.6418 11.3364C27.7568 11.2342 28.0124 11.6559 27.8846 11.9882V11.9882Z" fill="#FCEA83" stroke="black" stroke-width="0.0383387"/>
<path d="M24.0003 13.0868C25.0226 13.0868 26.5945 12.6267 27.438 11.0165C27.5786 10.7481 27.438 10.6075 27.2719 10.5181C27.0929 10.4414 26.8757 10.2625 26.7607 10.1475C26.9651 10.3519 26.9268 10.4925 26.7862 10.7225C26.1345 11.8088 25.2399 12.3583 24.0003 12.3583C22.7607 12.3583 21.8661 11.8088 21.2143 10.7225C21.0738 10.4925 21.0354 10.3519 21.2271 10.1475C21.1249 10.2625 20.8948 10.4414 20.7159 10.5181C20.5498 10.6075 20.4092 10.7481 20.5498 11.0165C21.3932 12.6267 22.9779 13.0868 24.0003 13.0868H24.0003Z" fill="#FCEA83" stroke="black" stroke-width="0.0383387"/>
<path d="M21.6344 10.9281C21.6088 10.8003 21.4427 10.8514 21.3915 11.0048C21.3276 10.9153 21.2637 10.8259 21.2126 10.7236C21.0593 10.4936 21.0337 10.3402 21.251 10.123C21.3532 10.0207 21.5577 9.90573 21.6982 10.0335C21.9922 10.2763 21.8388 10.6725 21.6344 10.9281V10.9281Z" fill="#C8102E" stroke="black" stroke-width="0.0383387"/>
<path d="M26.3507 10.9281C26.3762 10.8003 26.5551 10.8514 26.6063 11.0048C26.6701 10.9153 26.734 10.8259 26.7852 10.7236C26.9385 10.4936 26.9641 10.3402 26.734 10.123C26.6446 10.0207 26.4401 9.90573 26.2868 10.0335C26.0056 10.2763 26.1462 10.6725 26.3507 10.9281L26.3507 10.9281Z" fill="#C8102E" stroke="black" stroke-width="0.0383387"/>
<path d="M20.1142 11.989C19.9864 11.7973 19.8842 11.2989 19.8586 11.1711C19.8203 11.0561 19.8075 10.9538 19.9481 10.9027C20.0887 10.8516 20.2165 11.0305 20.2804 11.1839C20.3443 11.3372 20.4465 11.5672 20.5615 11.8484C20.2804 11.6823 20.0503 11.7973 20.1142 11.989H20.1142Z" fill="#C8102E" stroke="black" stroke-width="0.0383387"/>
<path d="M27.8848 11.989C27.9998 11.7973 28.102 11.2989 28.1404 11.1711C28.1659 11.0561 28.1915 10.9538 28.0509 10.9027C27.9103 10.8516 27.7826 11.0305 27.7187 11.1839C27.6548 11.3372 27.5525 11.5672 27.4375 11.8484C27.7187 11.6823 27.9359 11.7973 27.8848 11.989Z" fill="#C8102E" stroke="black" stroke-width="0.0383387"/>
<path d="M20.8577 10.8392L20.7555 10.8903C20.7299 10.9031 20.7299 10.9287 20.7299 10.9415H20.7171L20.666 10.8265H20.6788C20.6788 10.8392 20.6916 10.852 20.7171 10.8392L20.9344 10.7242C20.9599 10.7114 20.9599 10.6987 20.9472 10.6859L20.9599 10.6731L21.0238 10.8009H21.0111C20.9983 10.7881 20.9855 10.7753 20.9599 10.7881L20.8705 10.8392L20.9088 10.9159L21.0111 10.8776C21.0366 10.8648 21.0238 10.8392 21.0238 10.8265H21.0366L21.0877 10.9415C21.075 10.9287 21.0622 10.9159 21.0366 10.9287L20.8194 11.0437C20.7938 11.0565 20.7938 11.0693 20.8066 11.082L20.7938 11.0948L20.7299 10.9798L20.7427 10.967C20.7555 10.9798 20.7683 10.9926 20.7938 10.9798L20.896 10.9287L20.8577 10.8392Z" fill="#00493D"/>
<path d="M21.0749 11.0045C21.1005 10.9917 21.1005 10.9789 21.0877 10.9534H21.1005L21.2283 11.1451L21.1388 11.209V11.1962C21.1899 11.1578 21.1899 11.1067 21.1772 11.0939C21.1644 11.0812 21.1516 11.0684 21.1516 11.0556C21.1388 11.0556 21.1388 11.0428 21.1133 11.0684C21.1005 11.0812 21.0238 11.1323 21.0238 11.1323C21.0366 11.1451 21.0494 11.1834 21.1133 11.1451H21.126L20.9855 11.2473V11.2345C21.0494 11.1834 21.0238 11.1451 21.011 11.1323L20.9216 11.1962C20.896 11.209 20.896 11.2217 20.896 11.2345C20.9088 11.2345 20.9088 11.2473 20.9216 11.2601C20.9344 11.2856 20.9727 11.3112 21.0366 11.2856L21.0494 11.2984L20.9471 11.3368L20.8193 11.1323H20.8321C20.8449 11.1451 20.8577 11.1578 20.8832 11.1451L21.0749 11.0045Z" fill="#00493D"/>
<path d="M21.2796 11.4908L21.1901 11.5674C21.1773 11.5802 21.1773 11.6058 21.1901 11.6186H21.1773L21.0879 11.5291L21.1007 11.5163C21.1135 11.5291 21.1262 11.5419 21.1518 11.5163L21.3179 11.3502C21.3435 11.3374 21.3435 11.3246 21.3307 11.2991L21.4202 11.4013C21.4074 11.3885 21.3818 11.3885 21.369 11.4013L21.2924 11.478L21.3563 11.5419L21.4329 11.478C21.4585 11.4524 21.4457 11.4396 21.4329 11.4269L21.4457 11.4141L21.5352 11.5163H21.5224C21.5096 11.5163 21.4968 11.5035 21.4713 11.5291L21.3051 11.6825C21.2796 11.708 21.2796 11.7208 21.2924 11.7336V11.7464L21.2029 11.6441C21.2157 11.6441 21.2412 11.6569 21.254 11.6441L21.3435 11.5547L21.2796 11.4908Z" fill="#00493D"/>
<path d="M21.4707 11.7587L21.5091 11.7971C21.5602 11.6821 21.5602 11.6821 21.5602 11.6821C21.5602 11.6821 21.5219 11.6948 21.458 11.7332L21.4707 11.7587L21.458 11.7715L21.4324 11.746C21.4196 11.7587 21.4068 11.7587 21.3941 11.7715C21.3557 11.7971 21.3685 11.8099 21.3813 11.8226V11.8354L21.3174 11.7715H21.3302L21.3813 11.7587C21.6369 11.6182 21.6369 11.6182 21.6369 11.6182L21.6497 11.6309C21.6497 11.6309 21.6369 11.6437 21.5219 11.8993C21.5219 11.9249 21.5091 11.9377 21.5219 11.9632L21.4196 11.8738L21.4324 11.861C21.4452 11.8865 21.4707 11.8865 21.4835 11.861C21.4835 11.8482 21.4963 11.8226 21.4963 11.8099L21.458 11.7715L21.4707 11.7587V11.7587Z" fill="#00493D"/>
<path d="M21.5732 12.0144L21.586 12.0016C21.5988 12.0144 21.6116 12.0144 21.6371 12.0016L21.8033 11.7844L21.7905 11.7716C21.7649 11.7588 21.7266 11.7588 21.6883 11.7971V11.7844L21.7394 11.7205L21.9311 11.861L21.8672 11.9377H21.8544C21.8927 11.8994 21.88 11.8483 21.8544 11.8355V11.8227L21.6883 12.0399C21.6627 12.0527 21.6755 12.0783 21.6883 12.0911H21.6755L21.5732 12.0144Z" fill="#00493D"/>
<path d="M21.9064 12.066L21.8425 12.1555C21.8297 12.1811 21.8425 12.1938 21.8553 12.2066L21.8425 12.2194L21.7402 12.1427V12.1299C21.7658 12.1427 21.7786 12.1427 21.7914 12.1172L21.9319 11.9255C21.9447 11.8999 21.9319 11.8871 21.9191 11.8744L21.9319 11.8616L22.0342 11.9382V11.951C22.0086 11.9382 21.9958 11.9382 21.983 11.9638L21.9191 12.0533L21.9958 12.1044L22.0597 12.0149C22.0725 11.9894 22.0597 11.9766 22.0469 11.9638L22.0597 11.951L22.162 12.0277V12.0405C22.1492 12.0277 22.1236 12.0277 22.1108 12.0533L21.983 12.2577C21.9575 12.2705 21.9703 12.2833 21.983 12.2961V12.3089L21.868 12.2322H21.8808C21.8936 12.2322 21.9064 12.2322 21.9191 12.2194L21.983 12.1172L21.9064 12.066Z" fill="#00493D"/>
<path d="M22.1621 12.4236L22.1749 12.4108C22.1877 12.4236 22.2132 12.4236 22.226 12.398L22.3282 12.1808C22.341 12.1552 22.3282 12.1424 22.3155 12.1296L22.5327 12.2319L22.4816 12.3341L22.4688 12.3213C22.5072 12.2702 22.4688 12.2191 22.456 12.2063C22.4433 12.2063 22.4305 12.1935 22.4177 12.1935C22.4049 12.1935 22.4049 12.1935 22.3921 12.2191C22.3794 12.2319 22.341 12.3086 22.341 12.3086C22.3538 12.3213 22.3794 12.3469 22.4305 12.283H22.4433L22.3666 12.4363L22.3538 12.4236C22.3921 12.3469 22.341 12.3341 22.3282 12.3341L22.2771 12.4363C22.2643 12.4619 22.2771 12.4747 22.2899 12.4747V12.4875L22.1621 12.4236Z" fill="#00493D"/>
<path d="M22.5311 12.6025C22.4928 12.577 22.4928 12.5003 22.5311 12.4236C22.5567 12.347 22.6078 12.2831 22.6589 12.3086C22.6973 12.3214 22.6845 12.3981 22.6589 12.4748C22.6206 12.5642 22.5695 12.6153 22.5311 12.6025H22.5183C22.6078 12.6409 22.6717 12.5898 22.71 12.5003C22.7484 12.4236 22.7356 12.3342 22.6589 12.2958C22.5822 12.2575 22.5056 12.3086 22.4672 12.3981C22.4289 12.4875 22.4417 12.577 22.5183 12.6025H22.5311Z" fill="#00493D"/>
<path d="M22.9283 12.6276L22.9795 12.4742C22.9922 12.4487 22.9795 12.4359 22.9667 12.4231L23.0306 12.4359V12.4487C23.0178 12.4487 23.005 12.4487 22.9922 12.4742L22.9411 12.6276C22.9156 12.6915 22.8772 12.7426 22.8005 12.717C22.7494 12.7043 22.7111 12.6404 22.7367 12.5765L22.8005 12.4103C22.8133 12.3848 22.8005 12.372 22.7878 12.3592V12.3464L22.9028 12.3976V12.4103C22.89 12.3976 22.8644 12.3976 22.8644 12.4231L22.8005 12.5892C22.7878 12.6404 22.7878 12.6915 22.8261 12.7043C22.8644 12.717 22.9028 12.6915 22.9283 12.6276Z" fill="#00493D"/>
<path d="M23.0436 12.4615C23.0436 12.4487 23.0436 12.4487 23.0308 12.4487L23.1202 12.4615L23.1969 12.7043L23.2353 12.551C23.248 12.5254 23.2353 12.5126 23.2225 12.4998L23.2992 12.5126L23.2864 12.5254C23.2736 12.5254 23.2608 12.5254 23.248 12.551L23.1841 12.8321H23.1714L23.0691 12.5254L23.0052 12.7299C23.0052 12.7682 23.018 12.7682 23.0308 12.781V12.7938L22.9541 12.7682V12.7554C22.9669 12.7682 22.9924 12.7554 22.9924 12.7299L23.0563 12.4999L23.0436 12.4615V12.4615Z" fill="#00493D"/>
<path d="M23.4772 12.7177C23.4516 12.8327 23.4005 12.8582 23.375 12.8582H23.3494C23.3494 12.8582 23.3366 12.8455 23.3494 12.8327L23.3877 12.5771C23.4005 12.5643 23.4005 12.5515 23.4133 12.5643H23.4388C23.4644 12.5643 23.49 12.6154 23.4772 12.7177L23.5155 12.7304C23.5411 12.6026 23.49 12.5515 23.4261 12.5387C23.375 12.526 23.2983 12.5132 23.2983 12.5132V12.526C23.3111 12.5387 23.3366 12.5387 23.3238 12.5771L23.2855 12.8071C23.2727 12.8327 23.2599 12.8455 23.2472 12.8455H23.2344L23.3622 12.871C23.4261 12.8838 23.49 12.871 23.5155 12.7304L23.4772 12.7177Z" fill="#00493D"/>
<path d="M23.5933 12.6153C23.5933 12.5898 23.5677 12.577 23.5549 12.577V12.5642L23.785 12.5898L23.7722 12.692C23.7722 12.6281 23.7339 12.6025 23.7083 12.6025C23.6955 12.5898 23.6827 12.5898 23.67 12.5898C23.6572 12.5898 23.6572 12.5898 23.6572 12.6281C23.6572 12.6409 23.6444 12.7303 23.6444 12.7303C23.6572 12.7303 23.6955 12.7431 23.7211 12.6664L23.7083 12.8326H23.6955C23.6955 12.7559 23.6572 12.7559 23.6444 12.7559L23.6316 12.8709C23.6316 12.8965 23.6316 12.8965 23.6444 12.8965L23.67 12.9093C23.7083 12.9093 23.7466 12.8965 23.7722 12.8198H23.785L23.7594 12.922L23.5166 12.8965C23.5422 12.8965 23.5549 12.8837 23.5677 12.8581L23.5933 12.6153Z" fill="#00493D"/>
<path d="M24.014 12.7688C24.014 12.8838 23.9757 12.9221 23.9374 12.9221C23.9246 12.9093 23.9246 12.9093 23.9118 12.9093L23.899 12.8966L23.9118 12.6282C23.9118 12.6154 23.9118 12.6154 23.9246 12.6154H23.9501C23.9757 12.6154 24.014 12.6537 24.014 12.7688H24.0652C24.0652 12.641 24.0013 12.6026 23.9374 12.6026C23.8862 12.5898 23.8096 12.5898 23.8096 12.5898V12.6026C23.8224 12.6026 23.8479 12.6154 23.8479 12.641L23.8351 12.8838C23.8351 12.9093 23.8224 12.9221 23.8096 12.9221V12.9349H23.9246C23.9885 12.9349 24.0524 12.9093 24.0652 12.7688H24.014V12.7688Z" fill="#00493D"/>
<path d="M24.3847 12.8703C24.3847 12.8959 24.3975 12.8959 24.4231 12.8959V12.9087L24.2825 12.9215C24.2953 12.9087 24.3208 12.8959 24.3208 12.8703L24.2953 12.6275C24.2825 12.602 24.2697 12.602 24.2441 12.602V12.5892L24.3847 12.5764C24.3719 12.5892 24.3464 12.602 24.3592 12.6275L24.3847 12.8703Z" fill="#00493D"/>
<path d="M24.5124 12.8964V12.8836C24.5252 12.8836 24.538 12.8708 24.538 12.8453L24.4868 12.5769H24.4741C24.4485 12.5897 24.4229 12.6153 24.4357 12.6664H24.4229L24.4102 12.5769L24.6402 12.5386L24.653 12.628H24.6402C24.6402 12.5769 24.6018 12.5641 24.5635 12.5641H24.5507L24.6019 12.8325C24.6019 12.8581 24.6146 12.8708 24.6402 12.8708V12.8836L24.5124 12.8964Z" fill="#00493D"/>
<path d="M25.0624 12.6403L25.0113 12.487C25.0113 12.4614 24.9857 12.4614 24.9729 12.4614V12.4487L25.0368 12.4231V12.4359C25.0241 12.4487 25.0241 12.4487 25.0241 12.4742L25.0752 12.6403C25.088 12.6915 25.088 12.7681 25.0113 12.7937C24.9602 12.8065 24.8963 12.7809 24.8835 12.7042L24.8324 12.5381C24.8196 12.5126 24.8068 12.5126 24.794 12.5126L24.7812 12.4998L24.909 12.4614V12.4742C24.8963 12.487 24.8835 12.4998 24.8963 12.5253L24.9346 12.6915C24.9474 12.7426 24.9857 12.7681 25.0241 12.7681C25.0624 12.7554 25.0752 12.7042 25.0624 12.6403Z" fill="#00493D"/>
<path d="M25.2022 12.5507C25.2661 12.5252 25.2533 12.4868 25.2405 12.4485C25.2277 12.4101 25.2022 12.3846 25.1766 12.3974C25.1638 12.3974 25.1511 12.4101 25.1638 12.4229L25.2022 12.5507L25.215 12.5635L25.2405 12.6657C25.2533 12.6913 25.2789 12.6913 25.2916 12.6785V12.6913L25.1766 12.7424L25.1638 12.7296C25.1894 12.7168 25.1894 12.7041 25.1894 12.6785L25.0999 12.4613C25.0872 12.4229 25.0744 12.4357 25.0488 12.4357V12.4229L25.1766 12.3718C25.2277 12.359 25.2789 12.3718 25.3044 12.4229C25.3172 12.4868 25.2916 12.5252 25.2405 12.5507C25.2277 12.5507 25.215 12.5635 25.215 12.5635L25.2022 12.5507Z" fill="#00493D"/>
<path d="M25.5228 12.5897C25.4844 12.6025 25.4333 12.5514 25.395 12.4619C25.3566 12.3853 25.3566 12.3086 25.395 12.2958C25.4333 12.283 25.4844 12.3341 25.5228 12.4108C25.5611 12.4875 25.5611 12.5642 25.5228 12.5897C25.5995 12.5642 25.625 12.4747 25.5867 12.3853C25.5483 12.3086 25.4717 12.2575 25.395 12.283C25.3183 12.3214 25.2928 12.4108 25.3311 12.4875C25.3694 12.5769 25.4461 12.6281 25.5228 12.5897Z" fill="#00493D"/>
<path d="M25.5363 12.2318H25.5235H25.5107L25.5874 12.1807L25.8175 12.3085L25.7408 12.1679C25.728 12.1423 25.7024 12.1423 25.6897 12.1423V12.1296L25.7536 12.104C25.7408 12.1168 25.728 12.1296 25.7536 12.1551L25.8814 12.4107L25.8686 12.4235L25.5874 12.2701L25.6897 12.4618C25.7024 12.4874 25.728 12.4874 25.7408 12.4746V12.4874L25.6769 12.5257V12.513C25.6897 12.5002 25.6897 12.4874 25.6769 12.4618L25.5746 12.2574L25.5363 12.2318Z" fill="#00493D"/>
<path d="M26.1099 12.2696V12.2568C26.1099 12.2441 26.1227 12.2313 26.1099 12.2057L25.9566 11.9885H25.9438C25.9182 12.0012 25.9054 12.0524 25.9438 12.0907L25.931 12.1035L25.8799 12.014L26.0716 11.8862L26.1227 11.9629C26.0844 11.9246 26.046 11.9246 26.0205 11.9373L26.0077 11.9501L26.161 12.1674C26.1738 12.1929 26.1994 12.1929 26.2122 12.1802V12.1929L26.1099 12.2696Z" fill="#00493D"/>
<path d="M26.2502 11.9632L26.3269 12.0527C26.3397 12.0654 26.3652 12.0654 26.378 12.0527V12.0654L26.2758 12.1549V12.1421C26.2885 12.1293 26.2885 12.1166 26.2758 12.091L26.1224 11.8993C26.1096 11.8737 26.0968 11.8865 26.0713 11.8865L26.1735 11.7971V11.8098C26.1735 11.8226 26.1607 11.8354 26.1735 11.861L26.2374 11.9376L26.3141 11.8865L26.2502 11.7971C26.2374 11.7715 26.2119 11.7843 26.1991 11.7843L26.3013 11.6948V11.7076C26.2885 11.7204 26.2885 11.7332 26.3013 11.7587L26.4547 11.9504C26.4675 11.9632 26.4802 11.9632 26.493 11.9504L26.5058 11.9632L26.4036 12.0527L26.3908 12.0399C26.4036 12.0271 26.4163 12.0143 26.4036 11.9888L26.3269 11.8993L26.2502 11.9632Z" fill="#00493D"/>
<path d="M26.3646 11.6952C26.3518 11.6824 26.3263 11.6824 26.3135 11.6952V11.6824L26.4796 11.5291L26.5563 11.6057H26.5435C26.5052 11.5546 26.4541 11.5802 26.4285 11.593C26.4285 11.6057 26.4157 11.6057 26.4029 11.6185C26.4029 11.6185 26.4029 11.6313 26.4157 11.6568C26.4285 11.6696 26.4924 11.7335 26.4924 11.7335C26.5052 11.7207 26.5435 11.6952 26.4924 11.6313H26.5052L26.6074 11.7463V11.7591C26.5435 11.6952 26.518 11.7335 26.5052 11.7463L26.5818 11.823C26.5946 11.8485 26.6074 11.8485 26.6074 11.8485C26.6202 11.8358 26.633 11.823 26.6457 11.8102C26.6585 11.7974 26.6713 11.7591 26.6457 11.6824H26.6585L26.7096 11.7719L26.5435 11.938L26.5307 11.9252C26.5435 11.9124 26.5563 11.8997 26.5307 11.8741L26.3646 11.6952Z" fill="#00493D"/>
<path d="M26.6731 11.3369C26.6603 11.3497 26.6603 11.3753 26.6859 11.3881C26.7115 11.4136 26.737 11.4136 26.7881 11.3881C26.8137 11.3753 26.8648 11.3625 26.9032 11.4008C26.9671 11.4647 26.9415 11.5158 26.9287 11.5414C26.9159 11.5542 26.8904 11.567 26.8776 11.5797C26.8648 11.5797 26.8648 11.5797 26.8648 11.5925V11.6053L26.7754 11.5286H26.7881C26.8393 11.5542 26.8904 11.567 26.9159 11.5286C26.9415 11.5031 26.9159 11.4775 26.9032 11.4647C26.8776 11.4392 26.852 11.4392 26.8137 11.4647C26.7754 11.4775 26.7242 11.4775 26.6859 11.4519C26.6348 11.4008 26.6348 11.3625 26.6603 11.3242C26.6731 11.3114 26.6987 11.2986 26.7115 11.2858C26.7242 11.2858 26.7242 11.2858 26.7115 11.2603L26.8009 11.3242H26.7881C26.7242 11.2986 26.6859 11.3114 26.6731 11.3369Z" fill="#00493D"/>
<path d="M26.7866 11.2352C26.761 11.2224 26.7482 11.2352 26.7354 11.2479H26.7227L26.8632 11.0435L26.9527 11.1074L26.9399 11.1201C26.8888 11.0818 26.8377 11.1074 26.8249 11.1201C26.8249 11.1329 26.8121 11.1457 26.8121 11.1585C26.7993 11.1585 26.7993 11.1713 26.8249 11.184C26.8377 11.1968 26.9143 11.2479 26.9143 11.2479C26.9271 11.2352 26.9527 11.2096 26.9016 11.1585V11.1457L27.0294 11.2479C26.9527 11.2096 26.9399 11.2479 26.9271 11.2607L27.0166 11.3246C27.0421 11.3374 27.0549 11.3374 27.0549 11.3374C27.0549 11.3246 27.0677 11.3118 27.0805 11.299C27.0933 11.2735 27.106 11.2352 27.0549 11.184L27.0677 11.1713L27.1316 11.2479L27.0038 11.4396H26.991C27.0038 11.4141 27.0038 11.4013 26.9782 11.3757L26.7866 11.2352Z" fill="#00493D"/>
<path d="M27.1321 11.0046L27.0938 11.0685C27.0427 11.0174 27.0171 10.979 27.0171 10.979L27.1321 11.0046H27.1577C27.1705 11.0046 27.196 11.0174 27.2088 11.0174C27.2471 11.0301 27.2344 11.0429 27.2216 11.0685H27.2344L27.2983 10.9535C27.2727 10.979 27.2599 10.9662 27.2344 10.9662C26.966 10.9151 26.9404 10.9023 26.9404 10.9023V10.9151L27.1449 11.1452C27.1577 11.1579 27.1577 11.1835 27.1577 11.1963H27.1705L27.2088 11.1324L27.196 11.1196C27.1832 11.1452 27.1705 11.1579 27.1449 11.1196C27.1321 11.1068 27.1193 11.094 27.1193 11.094L27.1577 11.0046H27.1321Z" fill="#00493D"/>
<path d="M27.056 10.7237C27.0432 10.7365 27.0432 10.7621 27.0816 10.7749C27.1199 10.7876 27.1327 10.7749 27.171 10.7493C27.2094 10.7237 27.2477 10.6982 27.2988 10.7237C27.3755 10.7621 27.3627 10.826 27.3499 10.8515C27.3372 10.8643 27.3244 10.8899 27.3116 10.9026V10.9154V10.9282L27.2094 10.8771C27.2733 10.8899 27.3244 10.8771 27.3372 10.8388C27.3499 10.8132 27.3244 10.7876 27.3116 10.7749C27.286 10.7621 27.2605 10.7749 27.2221 10.8004C27.1838 10.8388 27.1455 10.8515 27.0943 10.826C27.0432 10.8004 27.0177 10.7621 27.0432 10.7237C27.0432 10.6982 27.0688 10.6854 27.0816 10.6726C27.0816 10.6598 27.0816 10.6598 27.0688 10.6471V10.6343L27.171 10.6854H27.1582C27.0943 10.6726 27.056 10.6982 27.056 10.7237Z" fill="#00493D"/>
<path d="M23.0191 6.19862C22.853 6.23696 22.738 6.24974 22.5846 6.10917C22.4824 6.00693 22.5079 5.82801 22.6102 5.76412C22.7252 5.68744 22.8274 5.63632 22.968 5.67466C23.1086 5.713 23.4792 6.05805 23.3897 6.07083C23.3003 6.07083 23.1597 6.16028 23.0191 6.19862L23.0191 6.19862Z" fill="white" stroke="black" stroke-width="0.0383387"/>
<path d="M23.415 5.58569C23.4662 5.54735 23.5301 5.52179 23.6962 5.50901C23.8495 5.49623 23.9646 5.49623 24.0029 5.61125C24.054 5.75182 24.0924 5.91796 24.1946 5.99464C24.1307 6.03297 23.8112 6.07131 23.6962 6.00741C23.5428 5.93074 23.5045 5.63681 23.415 5.58569H23.415Z" fill="white" stroke="black" stroke-width="0.0383387"/>
<path d="M24.5137 5.59814C24.5648 5.5598 24.6287 5.5598 24.7948 5.57258C24.961 5.58536 25.0249 5.59814 25.0632 5.71316C25.1015 5.84096 25.0632 6.00709 25.1399 6.12211C25.0632 6.14767 24.8076 6.14767 24.7181 6.05821C24.5776 5.95597 24.5903 5.66204 24.5137 5.59814L24.5137 5.59814Z" fill="white" stroke="black" stroke-width="0.0383387"/>
<path d="M25.2809 5.67434C25.1659 5.64878 25.0892 5.636 25.0381 5.67434C25.102 5.75102 25.0509 6.05773 25.1787 6.15997C25.2681 6.22387 25.4982 6.23664 25.5493 6.09607C25.6132 5.96827 25.6132 5.77658 25.2809 5.67434V5.67434Z" fill="#073163" stroke="black" stroke-width="0.0383387"/>
<path d="M23.9648 5.54697C24.0032 5.50863 24.0799 5.49585 24.2332 5.49585C24.3994 5.49585 24.5016 5.52141 24.5527 5.62365C24.6038 5.75144 24.591 5.91758 24.6805 6.01981C24.6422 6.07093 24.2971 6.07093 24.1949 5.99425C24.0543 5.9048 24.0415 5.61086 23.9648 5.54697L23.9648 5.54697Z" fill="#073163" stroke="black" stroke-width="0.0383387"/>
<path d="M22.8779 5.6619C22.8779 5.59801 22.9674 5.58523 23.1974 5.57245C23.4275 5.54689 23.4402 5.55967 23.5169 5.7258C23.5552 5.81526 23.6064 5.96861 23.7086 6.01973C23.4275 6.08363 23.338 6.12197 23.1846 6.03251C23.0696 5.96861 22.9418 5.81526 22.9163 5.75136C22.9035 5.71302 22.9035 5.67468 22.8779 5.6619L22.8779 5.6619Z" fill="#073163" stroke="black" stroke-width="0.0383387"/>
<path d="M23.4951 4.35882C23.2267 4.15435 22.9072 3.96266 22.6133 3.92432C22.805 4.03933 23.3417 4.46106 23.4823 4.60164" fill="#F9D050"/>
<path d="M23.4951 4.35882C23.2267 4.15435 22.9072 3.96266 22.6133 3.92432C22.805 4.03933 23.3417 4.46106 23.4823 4.60164" stroke="black" stroke-width="0.0172507"/>
<path d="M23.6475 4.16653C23.328 3.94928 22.9574 3.70647 22.5996 3.68091C22.868 3.82148 23.2641 4.15375 23.4814 4.42212" fill="#F9D050"/>
<path d="M23.6475 4.16653C23.328 3.94928 22.9574 3.70647 22.5996 3.68091C22.868 3.82148 23.2641 4.15375 23.4814 4.42212" stroke="black" stroke-width="0.0172507"/>
<path d="M24.0557 3.80887C24.2346 3.4127 24.4263 3.19545 24.6819 2.95264C24.5541 3.22101 24.4135 3.77053 24.3496 3.98779" fill="#F9D050"/>
<path d="M24.0557 3.80887C24.2346 3.4127 24.4263 3.19545 24.6819 2.95264C24.5541 3.22101 24.4135 3.77053 24.3496 3.98779" stroke="black" stroke-width="0.0172507"/>
<path d="M24.3379 3.74544C24.4657 3.46428 24.6574 3.22147 24.9897 3.06812C24.8235 3.23425 24.5679 3.73265 24.504 4.00103" fill="#F9D050"/>
<path d="M24.3379 3.74544C24.4657 3.46428 24.6574 3.22147 24.9896 3.06812C24.8235 3.23425 24.5679 3.73265 24.504 4.00103" stroke="black" stroke-width="0.0172507"/>
<path d="M24.4521 4.00068C24.6055 3.78343 24.9122 3.37448 25.4617 3.15723C25.1422 3.47672 24.6694 4.06458 24.5544 4.29461" fill="#F9D050"/>
<path d="M24.4521 4.00068C24.6055 3.78343 24.9122 3.37448 25.4617 3.15723C25.1422 3.47672 24.6694 4.06458 24.5544 4.29461" stroke="black" stroke-width="0.0172507"/>
<path d="M24.6313 4.2824C24.8613 4.1546 25.3214 3.95013 25.6536 4.01403C25.4492 4.0907 24.8358 4.37185 24.5674 4.62745" fill="#F9D050"/>
<path d="M24.6313 4.2824C24.8613 4.1546 25.3214 3.95013 25.6536 4.01403C25.4492 4.0907 24.8358 4.37185 24.5674 4.62745" stroke="black" stroke-width="0.0172507"/>
<path d="M24.5802 4.19198C24.7974 3.96194 25.1936 3.61689 25.6153 3.47632C25.3086 3.77025 24.6568 4.43479 24.5674 4.53702" fill="#F9D050"/>
<path d="M24.5802 4.19198C24.7974 3.96194 25.1936 3.61689 25.6153 3.47632C25.3086 3.77025 24.6568 4.43479 24.5674 4.53702" stroke="black" stroke-width="0.0172507"/>
<path d="M23.9687 4.05216C23.8153 3.57932 23.5853 3.13203 23.2402 2.99146C23.4319 3.27261 23.6747 3.68155 23.8025 4.29498" fill="#F9D050"/>
<path d="M23.9687 4.05216C23.8153 3.57932 23.5853 3.13203 23.2402 2.99146C23.4319 3.27261 23.6747 3.68155 23.8025 4.29498" stroke="black" stroke-width="0.0172507"/>
<path d="M23.6745 4.03914C23.419 3.73243 23.0739 3.42572 22.6777 3.36182C22.9461 3.51517 23.3934 3.96246 23.5595 4.39697" fill="#F9D050"/>
<path d="M23.6745 4.03914C23.419 3.73243 23.0739 3.42572 22.6777 3.36182C22.9461 3.51517 23.3934 3.96246 23.5595 4.39697" stroke="black" stroke-width="0.0172507"/>
<path d="M23.8142 4.02622C23.4947 3.45114 23.2519 3.3489 23.1113 3.23389C23.2263 3.45114 23.5075 4.02622 23.6736 4.26904" fill="#F9D050"/>
<path d="M23.8142 4.02622C23.4947 3.45114 23.2519 3.3489 23.1113 3.23389C23.2263 3.45114 23.5075 4.02622 23.6736 4.26904" stroke="black" stroke-width="0.0172507"/>
<path d="M23.1758 3.98779C23.3291 4.07725 23.5592 4.2945 23.6358 4.43508" stroke="black" stroke-width="0.0172507"/>
<path d="M23.1758 4.25659C23.2525 4.32049 23.393 4.39717 23.5208 4.51218L23.1758 4.25659Z" fill="#F9D050"/>
<path d="M23.1758 4.25659C23.2525 4.32049 23.393 4.39717 23.5208 4.51218" stroke="black" stroke-width="0.0172507"/>
<path d="M24.6963 4.44815C24.8241 4.34592 25.1052 4.17978 25.2458 4.12866L24.6963 4.44815Z" fill="#F9D050"/>
<path d="M24.6963 4.44815C24.8241 4.34592 25.1052 4.17978 25.2458 4.12866" stroke="black" stroke-width="0.0172507"/>
<path d="M24.6055 4.35834C24.7333 4.19221 24.9889 3.96218 25.0783 3.8855L24.6055 4.35834Z" fill="#F9D050"/>
<path d="M24.6055 4.35834C24.7333 4.19221 24.9889 3.96218 25.0783 3.8855" stroke="black" stroke-width="0.0172507"/>
<path d="M24.9641 3.56616C24.8491 3.69396 24.5808 4.01345 24.4785 4.16681L24.9641 3.56616Z" fill="#F9D050"/>
<path d="M24.9641 3.56616C24.8491 3.69396 24.5808 4.01345 24.4785 4.16681" stroke="black" stroke-width="0.0172507"/>
<path d="M24.631 3.45068C24.5416 3.5657 24.3626 3.89797 24.3115 4.01299L24.631 3.45068Z" fill="#F9D050"/>
<path d="M24.631 3.45068C24.5416 3.5657 24.3626 3.89797 24.3115 4.01299" stroke="black" stroke-width="0.0172507"/>
<path d="M23.6221 3.47632C23.6987 3.68079 23.8393 4.02584 23.8904 4.16642L23.6221 3.47632Z" fill="#F9D050"/>
<path d="M23.6221 3.47632C23.6987 3.68079 23.8393 4.02584 23.8904 4.16642" stroke="black" stroke-width="0.0172507"/>
<path d="M23.5068 3.69409C23.558 3.77077 23.6602 3.94968 23.6985 4.07748L23.5068 3.69409Z" fill="#F9D050"/>
<path d="M23.5068 3.69409C23.558 3.77077 23.6602 3.94968 23.6985 4.07748" stroke="black" stroke-width="0.0172507"/>
<path d="M23.9414 3.63002C23.9414 3.515 24.0181 3.38721 24.0948 3.38721C24.1842 3.38721 24.2481 3.54056 24.2481 3.63002C24.2481 3.73226 24.1714 3.82171 24.0948 3.82171C24.0181 3.82171 23.9414 3.74504 23.9414 3.63002Z" fill="#F9D050" stroke="black" stroke-width="0.0172507"/>
<path d="M23.7741 3.73225C23.7869 3.60445 23.8763 3.50222 23.953 3.515C24.0297 3.52778 24.068 3.68113 24.0553 3.77059C24.0425 3.87283 23.953 3.9495 23.8891 3.93672C23.8252 3.93672 23.7613 3.84727 23.7741 3.73225Z" fill="#F9D050" stroke="black" stroke-width="0.0172507"/>
<path d="M24.1199 3.7704C24.0944 3.65538 24.1455 3.52758 24.2222 3.5148C24.2988 3.50202 24.3755 3.62982 24.3883 3.73206C24.4139 3.83429 24.35 3.93653 24.2861 3.93653C24.2222 3.94931 24.1327 3.88541 24.1199 3.7704Z" fill="#F9D050" stroke="black" stroke-width="0.0172507"/>
<path d="M23.9277 3.87245C23.9277 3.74465 24.0044 3.62964 24.0811 3.62964C24.1705 3.62964 24.2344 3.77021 24.2344 3.87245C24.2344 3.97469 24.1578 4.06415 24.0811 4.06415C24.0044 4.06415 23.9277 3.98747 23.9277 3.87245Z" fill="#F9D050" stroke="black" stroke-width="0.0172507"/>
<path d="M23.6973 3.93666C23.6973 3.82164 23.7867 3.69385 23.8634 3.69385C23.9401 3.69385 24.0168 3.8472 24.0168 3.93666C24.0168 4.0389 23.9273 4.12835 23.8634 4.12835C23.7867 4.12835 23.6973 4.05168 23.6973 3.93666Z" fill="#F9D050" stroke="black" stroke-width="0.0172507"/>
<path d="M24.1709 3.88563C24.1709 3.77062 24.2476 3.64282 24.3243 3.64282C24.4137 3.64282 24.4776 3.79618 24.4776 3.88563C24.4776 3.98787 24.4009 4.07733 24.3243 4.07733C24.2476 4.07733 24.1709 4.00065 24.1709 3.88563Z" fill="#F9D050" stroke="black" stroke-width="0.0172507"/>
<path d="M24.1191 3.98793C24.1191 3.86013 24.2086 3.74512 24.2853 3.74512C24.362 3.74512 24.4386 3.88569 24.4386 3.98793C24.4386 4.09017 24.362 4.17962 24.2853 4.17962C24.2086 4.17962 24.1191 4.10295 24.1191 3.98793Z" fill="#F9D050" stroke="black" stroke-width="0.0172507"/>
<path d="M23.915 4.10243C23.915 3.97464 23.9917 3.85962 24.0684 3.85962C24.1579 3.85962 24.2217 4.01297 24.2217 4.10243C24.2217 4.20467 24.1451 4.29413 24.0684 4.29413C23.9917 4.29413 23.915 4.21745 23.915 4.10243Z" fill="#F9D050" stroke="black" stroke-width="0.0172507"/>
<path d="M23.5947 4.10243C23.5947 3.97464 23.6586 3.85962 23.7225 3.85962C23.7864 3.85962 23.8375 4.01297 23.8375 4.10243C23.8375 4.20467 23.7736 4.29413 23.7225 4.29413C23.6586 4.29413 23.5947 4.21745 23.5947 4.10243Z" fill="#F9D050" stroke="black" stroke-width="0.0172507"/>
<path d="M24.3105 4.07745C24.3105 3.96243 24.3744 3.84741 24.4383 3.84741C24.5022 3.84741 24.5661 3.98799 24.5661 4.07745C24.5661 4.19246 24.4895 4.26914 24.4383 4.26914C24.3744 4.26914 24.3105 4.19246 24.3105 4.07745Z" fill="#F9D050" stroke="black" stroke-width="0.0172507"/>
<path d="M24.3889 4.29475C24.4145 4.16695 24.4912 4.06472 24.5423 4.0775C24.5934 4.09028 24.6062 4.24363 24.5806 4.33309C24.5678 4.44811 24.4912 4.512 24.4401 4.49922C24.3889 4.48644 24.3634 4.39699 24.3889 4.29475Z" fill="#F9D050" stroke="black" stroke-width="0.0172507"/>
<path d="M24.1452 4.25583C24.158 4.14081 24.2347 4.02579 24.2986 4.03857C24.3752 4.03857 24.4136 4.19193 24.4008 4.28139C24.388 4.3964 24.3241 4.47308 24.2602 4.4603C24.1963 4.4603 24.1324 4.37084 24.1452 4.25583Z" fill="#F9D050" stroke="black" stroke-width="0.0172507"/>
<path d="M23.7876 4.29455C23.7492 4.16676 23.6726 4.0773 23.6214 4.09008C23.5703 4.10286 23.5575 4.25622 23.5831 4.34567C23.6087 4.44791 23.6853 4.51181 23.7364 4.49903C23.7748 4.48625 23.8131 4.39679 23.7876 4.29455Z" fill="#F9D050" stroke="black" stroke-width="0.0172507"/>
<path d="M23.6973 4.26861C23.6973 4.15359 23.7612 4.03857 23.8251 4.03857C23.9017 4.03857 23.9529 4.17915 23.9529 4.26861C23.9529 4.38362 23.889 4.4603 23.8251 4.4603C23.7739 4.4603 23.6973 4.38362 23.6973 4.26861Z" fill="#F9D050" stroke="black" stroke-width="0.0172507"/>
<path d="M23.8906 4.32021C23.8906 4.19241 23.9673 4.07739 24.044 4.07739C24.1334 4.07739 24.1973 4.21797 24.1973 4.32021C24.1973 4.42244 24.1207 4.5119 24.044 4.5119C23.9673 4.5119 23.8906 4.43522 23.8906 4.32021Z" fill="#F9D050" stroke="black" stroke-width="0.0172507"/>
<path d="M23.9526 2.91415C23.927 3.01638 23.8375 3.10584 23.9014 3.24642C23.7864 3.20808 23.6842 3.1953 23.5947 3.29753C23.7097 3.28475 23.812 3.32309 23.8631 3.39977C23.7609 3.38699 23.7097 3.43811 23.6842 3.50201C23.7736 3.47645 23.8631 3.45089 23.9014 3.46367C23.8631 3.50201 23.7992 3.56591 23.7864 3.61702C23.8631 3.55313 23.9526 3.56591 24.0037 3.52757C23.9653 3.61702 24.042 3.70648 24.1059 3.79594C24.0931 3.66814 24.1698 3.57869 24.1315 3.51479C24.2465 3.54035 24.2593 3.64258 24.4254 3.64258C24.3615 3.60425 24.3232 3.47645 24.2465 3.47645C24.2848 3.46367 24.4382 3.45089 24.4637 3.47645C24.4382 3.42533 24.3487 3.37421 24.2976 3.37421C24.3487 3.32309 24.4382 3.22086 24.5021 3.1953C24.4126 3.20808 24.272 3.22086 24.2209 3.29754C24.3487 3.1953 24.3232 3.0036 24.4637 2.97804C24.3871 2.96527 24.272 3.01638 24.1826 3.10584C24.2209 3.02916 24.2209 2.92693 24.272 2.90137C24.1698 2.92693 24.0548 3.05472 24.0165 3.11862C24.0165 3.05472 23.9781 2.95249 23.9526 2.91415Z" fill="#F9D050" stroke="black" stroke-width="0.0172507"/>
<path d="M24.0167 3.11914C24.0167 3.15748 24.0167 3.23416 24.0039 3.25972L24.0167 3.11914Z" fill="#F9D050"/>
<path d="M24.0167 3.11914C24.0167 3.15748 24.0167 3.23416 24.0039 3.25972" stroke="black" stroke-width="0.0172507"/>
<path d="M24.1831 3.10596C24.1576 3.13152 24.1064 3.22097 24.1064 3.29765L24.1831 3.10596Z" fill="#F9D050"/>
<path d="M24.1831 3.10596C24.1576 3.13152 24.1064 3.22097 24.1064 3.29765" stroke="black" stroke-width="0.0172507"/>
<path d="M24.2604 3.25928C24.222 3.28484 24.1837 3.32318 24.1709 3.37429" stroke="black" stroke-width="0.0172507"/>
<path d="M22.9045 4.52488C22.815 4.52488 22.7384 4.48654 22.6872 4.42265C22.5978 4.30763 22.355 4.25651 22.2527 4.35875C22.2144 4.38431 22.1633 4.38431 22.1249 4.39709C22.061 4.39709 21.9844 4.46099 22.0099 4.58878C22.061 4.55044 22.0738 4.58878 22.1122 4.58878C22.1377 4.576 22.1249 4.60156 22.1249 4.62712C22.1249 4.69102 22.2655 4.81881 22.3933 4.80603C22.5339 4.80603 22.5978 4.85715 22.6233 4.88271C22.6617 4.92105 22.6361 4.90827 22.6617 4.97217C22.7 5.01051 22.7128 5.02329 22.6489 5.07441C22.5594 5.15108 22.4956 5.33 22.6489 5.47057C22.815 5.59837 23.2368 5.79006 23.7096 5.41946C24.1697 5.06163 24.8853 5.2661 24.9365 5.3939C25.0004 5.52169 25.0259 5.59837 25.0387 5.66227C25.0515 5.71339 25.1154 5.76451 25.2048 5.75173C25.2943 5.75173 25.3965 5.79007 25.4476 5.82841C25.5115 5.86674 25.601 5.85396 25.5754 5.73895C25.5243 5.38112 25.3071 5.33 25.2815 5.16386C25.4093 5.17664 25.4988 5.17664 25.5499 5.12553C25.5882 5.07441 25.6393 4.98495 25.6905 4.95939C25.7288 4.93383 25.7288 4.90827 25.6777 4.92105C25.6138 4.93383 25.5754 4.95939 25.4604 4.94661C24.8726 4.88271 23.224 4.43543 22.9045 4.52488H22.9045Z" fill="#059334" stroke="black" stroke-width="0.0383387"/>
<path d="M25.5123 4.95938C25.4484 4.99772 25.3845 5.06162 25.2695 5.21497C25.1417 5.38111 24.7583 5.54724 24.2855 5.54724C23.8254 5.54724 23.5442 5.47056 23.3398 5.30443C23.2247 5.21497 23.1353 5.16385 23.0586 5.12551C22.918 5.06162 22.8925 4.92104 22.9308 4.80602C22.8925 4.86992 22.8669 4.93382 22.7902 4.92104C22.7391 4.92104 22.6369 4.92104 22.6624 4.97216C22.6497 4.9466 22.6497 4.90826 22.6369 4.89548C22.6241 4.8827 22.6113 4.86992 22.6113 4.86992C22.6497 4.89548 22.7391 4.8188 22.803 4.8188C22.8541 4.83158 22.918 4.76768 22.9053 4.69101C22.8925 4.62711 22.8797 4.57599 22.8669 4.52487C22.9692 4.47375 24.311 4.71657 24.5794 4.74212C24.8478 4.7549 25.6145 4.86992 25.5123 4.95938V4.95938Z" fill="black" stroke="black" stroke-width="0.0383387"/>
<path d="M23.0835 4.47364C23.2113 4.34584 23.3646 4.28195 23.518 4.32029H23.5563C23.633 4.25639 23.8119 4.24361 23.9141 4.29473H23.9653C24.1186 4.24361 24.4125 4.29473 24.5148 4.39696L24.5531 4.42252C24.8982 4.39696 25.1026 4.55032 25.3455 4.79313C25.371 4.81869 25.4094 4.86981 25.4732 4.88259C25.5499 4.89537 25.5627 4.93371 25.4988 4.97204C25.4221 5.01038 25.3582 5.07428 25.2304 5.21486C25.1154 5.36821 24.7448 5.52157 24.2847 5.52157C23.8375 5.52157 23.5691 5.44489 23.3646 5.29153C23.2496 5.20208 23.1601 5.15096 23.0962 5.11262C23.0196 5.08706 22.9173 4.98482 22.9557 4.88259C22.9812 4.78035 22.9173 4.65255 22.8662 4.52476C22.9045 4.4992 23.0068 4.46086 23.0579 4.48642L23.0835 4.47364L23.0835 4.47364Z" fill="#059334" stroke="black" stroke-width="0.0383387"/>
<path d="M25.3461 4.79233C25.1033 4.54951 24.8988 4.39616 24.5538 4.42172C24.5538 4.4345 24.5538 4.47284 24.541 4.4984C24.7455 4.57507 25.0394 4.8051 25.1672 4.97124C25.2183 4.92012 25.3078 4.85622 25.3461 4.79233L25.3461 4.79233Z" fill="#00493D" stroke="black" stroke-width="0.0383387"/>
<path d="M24.5136 4.39646C24.4113 4.29422 24.1174 4.24311 23.964 4.29422C23.964 4.34534 23.964 4.42202 23.9385 4.47314C24.0279 4.51148 24.1046 4.60093 24.1813 4.69039C24.2324 4.67761 24.3602 4.63927 24.4241 4.62649C24.4497 4.57538 24.5008 4.46036 24.5136 4.39646H24.5136Z" fill="#00493D" stroke="black" stroke-width="0.0383387"/>
<path d="M23.9137 4.29424C23.8115 4.24312 23.6326 4.2559 23.5559 4.3198C23.5304 4.37092 23.5176 4.47315 23.5176 4.52427C23.5687 4.52427 23.6454 4.56261 23.6709 4.58817C23.7476 4.56261 23.8498 4.51149 23.8882 4.47315C23.901 4.42203 23.9265 4.34536 23.9137 4.29424Z" fill="#00493D" stroke="black" stroke-width="0.0383387"/>
<path d="M23.082 4.47251C23.2098 4.34471 23.3632 4.28082 23.5165 4.31916C23.491 4.35749 23.4782 4.43417 23.4782 4.51085C23.3376 4.49807 23.1587 4.53641 23.082 4.58753V4.47251Z" fill="#00493D" stroke="black" stroke-width="0.0383387"/>
<path d="M25.1155 4.99685C25.0004 4.83071 24.7193 4.63902 24.5276 4.54956C24.5276 4.56234 24.502 4.61346 24.4893 4.6518C24.5659 4.76681 24.7193 5.02241 24.7832 5.16298C24.8471 5.13742 25.026 5.06074 25.1155 4.99685V4.99685Z" fill="#00493D" stroke="black" stroke-width="0.0383387"/>
<path d="M24.1426 5.27853C24.1681 5.09962 24.1809 4.84403 24.1809 4.75457C24.2448 4.74179 24.3726 4.70345 24.4237 4.69067C24.4876 4.79291 24.641 5.06128 24.7049 5.18908C24.5515 5.22742 24.2959 5.29132 24.1426 5.27854V5.27853Z" fill="#00493D" stroke="black" stroke-width="0.0383387"/>
<path d="M23.6982 4.66515C23.7621 4.63959 23.8516 4.58847 23.9155 4.53735C23.9666 4.57569 24.0689 4.66515 24.1072 4.71627C24.1072 4.83128 24.0689 5.16355 24.0561 5.27857C23.9538 5.27857 23.7877 5.25301 23.6982 5.20189C23.711 5.0102 23.7238 4.79295 23.6982 4.66515L23.6982 4.66515Z" fill="#00493D" stroke="black" stroke-width="0.0383387"/>
<path d="M23.0576 4.8183C23.0704 4.79275 23.0832 4.70329 23.0832 4.66495C23.1854 4.60105 23.441 4.53715 23.6327 4.63939C23.6455 4.76719 23.6327 5.08668 23.6199 5.16335C23.4538 5.03556 23.1854 4.85664 23.0576 4.8183L23.0576 4.8183Z" fill="#00493D" stroke="black" stroke-width="0.0383387"/>
<path d="M22.418 4.5884C22.3924 4.5884 22.3797 4.51172 22.3285 4.51172C22.3158 4.51172 22.2774 4.5245 22.2646 4.51172C22.2646 4.53728 22.2774 4.56284 22.2902 4.57562C22.303 4.61396 22.3669 4.5884 22.418 4.5884Z" fill="black"/>
<path d="M22.418 4.8053C22.5713 4.8053 22.5969 4.61361 22.6736 4.60083" stroke="black" stroke-width="0.0383387"/>
<path d="M22.5068 4.81795C22.6219 4.86907 22.7113 4.6007 22.8008 4.61348" stroke="black" stroke-width="0.0383387"/>
<path d="M22.2773 4.48567C22.3157 4.48567 22.3412 4.43455 22.4051 4.49845C22.4307 4.52401 22.469 4.53679 22.4946 4.53679" stroke="black" stroke-width="0.0383387"/>
<path d="M22.469 4.67847C22.4179 4.75514 22.3285 4.80626 22.2773 4.7807" stroke="black" stroke-width="0.0383387"/>
<path d="M22.2516 4.3584C22.2132 4.38396 22.1877 4.43508 22.1621 4.47341" stroke="black" stroke-width="0.0383387"/>
<path d="M22.124 4.5498V4.6137" stroke="black" stroke-width="0.0383387"/>
<path d="M26.3929 6.21265V8.70467C26.3929 10.8644 25.3706 11.6056 24.0032 12.1935C22.6357 11.6056 21.6006 10.8644 21.6006 8.70467V6.21265H26.3929H26.3929Z" fill="white"/>
<path d="M24.0031 8.32128C24.1182 8.32128 24.2971 8.21904 24.4504 8.06569C24.6166 7.88678 24.8977 7.82288 25.1917 8.06569C25.4856 8.3085 25.6645 8.20627 25.8179 8.06569C25.9712 7.92511 26.099 7.874 26.3929 7.874V6.21265H21.6006V7.874C21.8945 7.874 22.0223 7.92511 22.1757 8.06569C22.329 8.20627 22.5079 8.3085 22.8019 8.06569C23.1086 7.82288 23.377 7.88678 23.5559 8.06569C23.6964 8.21904 23.8754 8.32128 24.0032 8.32128H24.0031Z" fill="#C8102E"/>
<path d="M24.0041 9.59907C24.1575 9.59907 24.4642 9.43294 24.5409 9.3946C24.822 9.22846 25.0265 9.38182 25.1926 9.4585C25.3715 9.53518 25.7038 9.62463 25.9083 9.4585C26.1128 9.29236 26.2278 9.30514 26.3684 9.30514C26.3939 9.11345 26.3939 8.92175 26.3939 8.7045V8.55115C26.215 8.51281 26.1255 8.56392 25.9338 8.73006C25.7422 8.89619 25.5249 8.85786 25.2437 8.75562C24.9754 8.6406 24.707 8.43613 24.4386 8.75562C24.362 8.84508 24.183 8.97287 24.0041 8.97287C23.8124 8.97287 23.6463 8.84508 23.5696 8.75562C23.2885 8.43613 23.0329 8.6406 22.7645 8.75562C22.4834 8.85786 22.2533 8.89619 22.0616 8.73006C21.8827 8.56392 21.7933 8.51281 21.6016 8.55115V8.7045C21.6016 8.92175 21.6143 9.11345 21.6399 9.30514C21.7805 9.30514 21.8827 9.29236 22.0872 9.4585C22.2917 9.62463 22.6367 9.53518 22.8028 9.4585C22.9818 9.38182 23.1862 9.22846 23.4674 9.3946C23.5441 9.43294 23.838 9.59907 24.0041 9.59907H24.0041Z" fill="#0B50A0"/>
<path d="M24.0042 10.1484C24.1959 10.1484 24.4259 10.0718 24.6304 9.95674C24.886 9.81616 25.0649 9.88006 25.3205 10.0079C25.5889 10.1357 25.8061 10.0973 25.9595 10.0079C26.0361 9.95674 26.1 9.8545 26.2662 9.89284C26.1895 10.2123 26.0745 10.4935 25.9339 10.7235C25.6783 10.7874 25.5377 10.7874 25.2694 10.6724C25.001 10.5446 24.6687 10.4679 24.4898 10.5829C24.3237 10.6852 24.1448 10.7363 24.0042 10.7363C23.8636 10.7363 23.6847 10.6852 23.5186 10.5829C23.3396 10.4679 23.0074 10.5446 22.739 10.6724C22.4706 10.7874 22.33 10.7874 22.0745 10.7235C21.9339 10.4935 21.8189 10.2123 21.7422 9.89284C21.9083 9.8545 21.9722 9.95674 22.0489 10.0079C22.1895 10.0973 22.4195 10.1357 22.6751 10.0079C22.9435 9.88006 23.1224 9.81616 23.378 9.95674C23.5824 10.0718 23.8125 10.1484 24.0042 10.1484H24.0042Z" fill="#0B50A0"/>
<path d="M24.0051 12.1928C24.5163 11.9756 24.9891 11.7327 25.3725 11.4005C25.2703 11.3621 25.2064 11.3877 25.1169 11.3238C25.0275 11.2599 24.7591 11.2343 24.5291 11.3621C24.2863 11.4771 24.184 11.5027 24.0051 11.5027C23.8262 11.5027 23.724 11.4771 23.4811 11.3621C23.2511 11.2343 22.9827 11.2599 22.8933 11.3238C22.8038 11.3877 22.7399 11.3621 22.6377 11.4005C23.0211 11.7327 23.4811 11.9756 24.0051 12.1928H24.0051Z" fill="#0B50A0"/>
<path d="M23.6694 6.83972C23.6822 6.86528 23.6566 6.92918 23.6694 6.95474C23.695 7.00586 23.695 7.03142 23.7333 7.05698H23.8228C24.1039 7.05698 24.4362 6.94196 24.7173 6.94196C24.9857 6.94196 25.1519 7.03142 25.3052 7.03142C25.3947 7.03142 25.4713 6.96752 25.4713 6.90362C25.4713 6.83972 25.3691 6.80138 25.1519 6.80138C24.8451 6.80138 24.679 6.87806 24.4234 6.87806C24.04 6.87806 23.9761 6.73749 23.9761 6.67359C23.9761 6.60969 24.04 6.52023 24.2445 6.52023C24.3084 6.52023 24.3595 6.50745 24.3851 6.48189C24.3979 6.45633 24.4362 6.40522 24.5129 6.36688C24.6023 6.31576 24.7812 6.36688 24.8707 6.30298C24.8707 6.3541 24.794 6.43078 24.7301 6.45633C24.8579 6.418 24.9985 6.418 25.0241 6.52023C24.9602 6.48189 24.8579 6.50745 24.8196 6.52023C24.7685 6.53301 24.7429 6.54579 24.6918 6.55857C24.7429 6.54579 24.7685 6.64803 24.8451 6.64803C24.7685 6.71193 24.6407 6.71193 24.5129 6.66081C24.4745 6.64803 24.3723 6.60969 24.3084 6.60969C24.1806 6.60969 24.1039 6.63525 24.1039 6.68637C24.1039 6.75026 24.1806 6.7886 24.4106 6.7886C24.6407 6.7886 24.7685 6.72471 25.1135 6.72471C25.088 6.68637 25.1263 6.64803 25.0752 6.60969C25.203 6.60969 25.3436 6.64803 25.3947 6.73749C25.3819 6.64803 25.4586 6.57135 25.433 6.49467C25.5097 6.50745 25.5736 6.58413 25.5864 6.64803C25.5864 6.60969 25.6375 6.60969 25.6375 6.57135C25.7142 6.60969 25.7525 6.69915 25.7397 6.77582C25.7781 6.71193 25.8164 6.73749 25.842 6.66081C25.8675 6.71193 25.8547 6.86528 25.7653 6.9164C25.842 6.86528 25.957 6.86528 26.0336 6.95474C25.957 6.94196 25.9186 6.9803 25.8803 6.99308C25.7269 7.08254 25.4713 7.13365 25.2797 7.12087C25.0752 7.10809 25.0496 7.06976 24.9218 7.06976C24.9985 7.08253 25.1519 7.23589 25.2924 7.23589C25.3819 7.23589 25.4458 7.23589 25.4841 7.22311C25.5225 7.21033 25.5864 7.22311 25.6375 7.24867C25.6758 7.28701 25.7525 7.32535 25.8036 7.31257C25.7908 7.36369 25.7653 7.38925 25.7269 7.40202C25.7908 7.44036 25.7525 7.46592 25.8164 7.51704C25.7908 7.51704 25.7653 7.5426 25.7269 7.52982C25.7653 7.56816 25.7653 7.61928 25.8036 7.64484C25.7908 7.64484 25.7525 7.65762 25.7269 7.64484C25.7653 7.69596 25.7269 7.75985 25.7653 7.78541C25.8036 7.83653 25.7269 7.90043 25.663 7.84931C25.6758 7.88765 25.6375 7.92599 25.5991 7.91321C25.5608 7.90043 25.5352 7.86209 25.548 7.84931C25.548 7.83653 25.548 7.83653 25.5608 7.82375C25.5352 7.86209 25.4841 7.86209 25.4586 7.84931C25.4458 7.83653 25.433 7.82375 25.433 7.81097C25.3435 7.83653 25.3052 7.75985 25.318 7.72152C25.3308 7.68318 25.4074 7.6704 25.433 7.68318C25.4586 7.69596 25.4841 7.70874 25.5097 7.68318C25.5352 7.6704 25.548 7.64484 25.548 7.61928C25.548 7.58094 25.5097 7.46592 25.3436 7.4787C25.1519 7.49148 24.8451 7.44036 24.6918 7.38925C24.679 7.37647 24.6662 7.37647 24.6535 7.36369C24.6535 7.4148 24.6023 7.44036 24.6023 7.49148C24.6023 7.55538 24.6279 7.6065 24.7046 7.63206C24.6662 7.69596 24.6023 7.68318 24.5768 7.64484C24.5768 7.68318 24.5257 7.70874 24.5257 7.75985C24.5129 7.7343 24.5001 7.72152 24.4873 7.69596C24.449 7.78541 24.3467 7.83653 24.2956 7.81097C24.2317 7.86209 24.155 7.84931 24.1295 7.79819C24.0911 7.82375 24.04 7.82375 24.0145 7.79819C24.0145 7.83653 23.9889 7.82375 23.9761 7.87487C23.9761 7.90043 23.925 7.91321 23.8995 7.90043C23.8739 7.88765 23.8611 7.83653 23.8867 7.81097C23.8483 7.83653 23.81 7.83653 23.7844 7.81097C23.7844 7.78541 23.7844 7.74707 23.81 7.7343H23.8356C23.81 7.72152 23.7717 7.73429 23.7461 7.72152C23.7205 7.69596 23.7205 7.6704 23.7333 7.64484C23.7461 7.63206 23.7844 7.6065 23.81 7.63206L23.8228 7.64484C23.8228 7.61928 23.8356 7.59372 23.8483 7.59372C23.8739 7.58094 23.9122 7.58094 23.9506 7.61928C23.9761 7.65762 24.0017 7.65762 24.0784 7.64484C24.1423 7.64484 24.2445 7.58094 24.3212 7.51704C24.1039 7.4787 24.2317 7.33813 24.2956 7.28701C24.2445 7.27423 24.1678 7.27423 24.1167 7.29979C23.8483 7.44036 23.5672 7.6065 23.3883 7.55538C23.3883 7.58094 23.401 7.6065 23.4138 7.63206C23.3755 7.63206 23.2988 7.63206 23.2733 7.59372C23.2605 7.61928 23.2349 7.68318 23.2605 7.7343C23.2349 7.70874 23.1582 7.68318 23.1199 7.6704C23.1455 7.69596 23.1199 7.74707 23.1327 7.78541C23.0943 7.74707 23.0304 7.72152 23.0049 7.74707C22.9793 7.77263 22.9282 7.78541 22.8899 7.77263C22.8643 7.81097 22.826 7.83653 22.7876 7.84931C22.7876 7.82375 22.7876 7.78541 22.7748 7.77263C22.7621 7.81097 22.7237 7.86209 22.6726 7.88765C22.6726 7.86209 22.6726 7.82375 22.6598 7.79819C22.6598 7.84931 22.5576 7.87487 22.5448 7.91321C22.5576 7.87487 22.5576 7.83653 22.5576 7.81097C22.532 7.84931 22.4937 7.88765 22.4298 7.90043C22.4426 7.87487 22.4554 7.84931 22.4426 7.82375C22.4298 7.87487 22.3531 7.90043 22.2892 7.88765C22.2892 7.91321 22.2381 7.95155 22.1742 7.91321C22.1359 7.90043 22.1103 7.86209 22.1359 7.83653C22.0847 7.83653 22.0336 7.78541 22.0592 7.74707C22.0592 7.73429 22.072 7.72152 22.072 7.70874C22.0336 7.68318 22.0209 7.63206 22.0592 7.59372C22.072 7.58094 22.1103 7.58094 22.1359 7.58094C22.1359 7.4787 22.2253 7.4787 22.2637 7.55538C22.2892 7.59372 22.3659 7.65762 22.4298 7.64484C22.4554 7.64484 22.4681 7.63206 22.4937 7.63206C22.5704 7.6065 22.7237 7.5426 22.8132 7.46592C22.826 7.42758 22.826 7.40202 22.826 7.37647C22.7748 7.40202 22.7237 7.42758 22.6982 7.46592V7.42758C22.6598 7.42758 22.5959 7.4148 22.5704 7.4148C22.5832 7.40202 22.5959 7.33813 22.6215 7.32535C22.5576 7.33813 22.4937 7.32535 22.4426 7.31257C22.4681 7.28701 22.4681 7.24867 22.4809 7.21033C22.4554 7.22311 22.3915 7.19755 22.3403 7.21033C22.3531 7.17199 22.3659 7.12087 22.4042 7.10809C22.3531 7.12087 22.2892 7.10809 22.2253 7.08253C22.2764 7.08253 22.302 7.01864 22.3403 7.01864C22.2381 7.01864 22.2125 6.96752 22.1614 6.94196C22.1998 6.95474 22.2253 6.9164 22.2637 6.9164C22.2253 6.90362 22.1614 6.83972 22.187 6.80138C22.1742 6.81416 22.1614 6.83972 22.1359 6.8525C22.1103 6.86528 22.0592 6.8525 22.0209 6.81416C21.9953 6.76304 22.0081 6.69915 22.0592 6.68637C21.9953 6.67359 21.9953 6.60969 22.0209 6.58413C22.0336 6.55857 22.0848 6.52023 22.1103 6.55857C22.1231 6.57135 22.1359 6.59691 22.1486 6.60969C22.1359 6.58413 22.1359 6.53301 22.1359 6.49467C22.1486 6.45633 22.1742 6.45633 22.2125 6.44355C22.2509 6.44355 22.2764 6.48189 22.2764 6.52023C22.2764 6.55857 22.2892 6.58413 22.302 6.63525C22.302 6.62247 22.3148 6.59691 22.3148 6.58413C22.3148 6.53301 22.3787 6.54579 22.417 6.55857C22.4554 6.57135 22.4681 6.64803 22.417 6.68637C22.3915 6.71193 22.4042 6.75026 22.4298 6.77582C22.5193 6.9164 22.6726 7.03142 22.8004 7.0442C22.8004 6.99308 22.826 6.94196 22.8643 6.90362C22.8643 6.87806 22.8771 6.83972 22.8899 6.81416C22.9026 6.73748 22.941 6.69915 22.9921 6.7247C22.9793 6.71192 22.9665 6.69915 22.9665 6.68637C22.9282 6.64803 22.8899 6.58413 22.9154 6.53301C22.941 6.48189 23.0177 6.49467 23.0432 6.52023C23.0304 6.44355 23.1199 6.37966 23.1199 6.34132C23.1327 6.37966 23.1582 6.43077 23.1455 6.46911C23.1582 6.41799 23.2477 6.3541 23.3116 6.32854C23.286 6.36688 23.3627 6.43077 23.3499 6.46911C23.3755 6.40521 23.4777 6.36688 23.5544 6.36688C23.5288 6.39244 23.5288 6.44355 23.5288 6.46911C23.5672 6.46911 23.6311 6.45633 23.6566 6.41799C23.6566 6.46911 23.6311 6.52023 23.6055 6.54579C23.6183 6.53301 23.6694 6.53301 23.7078 6.53301C23.6694 6.57135 23.6822 6.60969 23.6439 6.63525C23.695 6.60969 23.7589 6.60969 23.7717 6.66081C23.7972 6.69915 23.7589 6.76304 23.7333 6.80138C23.7078 6.81416 23.6822 6.83972 23.6694 6.83972L23.6694 6.83972Z" fill="#F9D050" stroke="black" stroke-width="0.0383387"/>
<path d="M22.8768 6.99316C22.7874 7.0315 22.7618 7.12096 22.749 7.17208" stroke="black" stroke-width="0.0383387"/>
<path d="M22.8648 7.08228C22.737 7.15895 22.6859 7.22285 22.7115 7.36343" stroke="black" stroke-width="0.0383387"/>
<path d="M22.9287 7.46618C23.0054 7.44062 23.0565 7.41507 23.1204 7.30005" stroke="black" stroke-width="0.0383387"/>
<path d="M23.0833 7.35107C23.0577 7.40219 23.0833 7.49165 23.0449 7.52999C23.1088 7.49165 23.1599 7.44053 23.1727 7.35107" stroke="black" stroke-width="0.0383387"/>
<path d="M23.1074 7.49176C23.1585 7.4662 23.2352 7.38952 23.2736 7.30007C23.2608 7.3384 23.2736 7.4023 23.248 7.44064C23.3119 7.37674 23.3375 7.3384 23.3502 7.27451C23.3502 7.28729 23.363 7.31285 23.363 7.32563C23.3886 7.30007 23.4141 7.27451 23.4141 7.22339" stroke="black" stroke-width="0.0383387"/>
<path d="M23.4141 7.26158V7.32547C23.4652 7.28714 23.478 7.23602 23.478 7.17212" stroke="black" stroke-width="0.0383387"/>
<path d="M23.4648 7.24818C23.5415 7.19707 23.5543 7.12039 23.5543 7.00537" stroke="black" stroke-width="0.0383387"/>
<path d="M23.5557 7.13326C23.6068 7.09492 23.6196 7.06936 23.6196 6.95435" stroke="black" stroke-width="0.0383387"/>
<path d="M23.4529 6.60956C23.4274 6.60956 23.4018 6.62234 23.4018 6.66068C23.4018 6.68624 23.3635 6.72458 23.3635 6.76292C23.3507 6.81404 23.3251 6.82681 23.2868 6.81403C23.2485 6.78848 23.2485 6.78848 23.2485 6.75014C23.2485 6.69902 23.3124 6.68624 23.3124 6.63512C23.3251 6.60956 23.3379 6.57122 23.3507 6.57122C23.2868 6.60956 23.1974 6.584 23.1846 6.50732" stroke="black" stroke-width="0.0383387"/>
<path d="M23.5674 6.64775C23.5419 6.66053 23.5163 6.62219 23.478 6.63497C23.4652 6.63497 23.4268 6.64775 23.4141 6.63497" stroke="black" stroke-width="0.0383387"/>
<path d="M23.3896 6.71193C23.4024 6.72471 23.4663 6.75027 23.5302 6.72471C23.4791 6.73749 23.4408 6.67359 23.4919 6.63525" stroke="black" stroke-width="0.0383387"/>
<path d="M23.2735 6.58398C23.2224 6.58398 23.184 6.62232 23.1968 6.66066C23.2096 6.699 23.2607 6.699 23.299 6.67344" stroke="black" stroke-width="0.0383387"/>
<path d="M23.1846 7.22314C23.1974 7.21036 23.2101 7.1848 23.2101 7.17202C23.2357 7.17202 23.2612 7.15924 23.274 7.14646C23.3251 7.14646 23.3635 7.10812 23.3763 7.06978C23.4018 7.06978 23.4146 7.00589 23.4274 6.98033C23.4402 6.99311 23.4657 6.98033 23.4785 6.92921C23.5041 6.94199 23.5424 6.92921 23.5552 6.89087" stroke="black" stroke-width="0.0383387"/>
<path d="M23.0299 6.80103C23.0299 6.81381 23.0043 6.83936 22.9788 6.85214C22.9915 6.8777 22.9788 6.9416 22.9532 6.95438C22.966 6.97994 22.9532 7.01828 22.9404 7.04384C22.9404 7.05662 22.9532 7.09496 22.9532 7.10774" stroke="black" stroke-width="0.0383387"/>
<path d="M23.0821 6.54614C23.0566 6.61004 23.0693 6.68672 23.1205 6.6995" stroke="black" stroke-width="0.0383387"/>
<path d="M23.1074 6.74976C23.0946 6.81365 23.0946 6.90311 23.0818 6.94145C23.069 6.96701 23.0435 7.05647 23.1457 7.08203C23.2607 7.10758 23.3246 7.09481 23.3885 6.90311" stroke="black" stroke-width="0.0383387"/>
<path d="M23.5813 7.40234C23.5813 7.41512 23.5685 7.44068 23.543 7.44068" stroke="black" stroke-width="0.0383387"/>
<path d="M23.6702 7.37671C23.6702 7.40227 23.6446 7.44061 23.6318 7.45339" stroke="black" stroke-width="0.0383387"/>
<path d="M23.759 7.35107C23.759 7.37663 23.759 7.41497 23.7334 7.42775" stroke="black" stroke-width="0.0383387"/>
<path d="M22.98 6.55859C22.9928 6.55859 23.0056 6.58415 23.0184 6.60971C22.98 6.58415 22.9417 6.64805 22.9673 6.68639" stroke="black" stroke-width="0.0383387"/>
<path d="M22.9417 6.77539C22.929 6.78817 22.9034 6.80095 22.8906 6.81373" stroke="black" stroke-width="0.0383387"/>
<path d="M22.9026 6.89087C22.8898 6.89087 22.877 6.90365 22.8643 6.90365" stroke="black" stroke-width="0.0383387"/>
<path d="M22.2891 6.66161C22.2891 6.64843 22.2891 6.64843 22.3022 6.63525" stroke="black" stroke-width="0.0383387"/>
<path d="M22.1748 6.6228C22.1616 6.6228 22.1616 6.6228 22.1484 6.60962" stroke="black" stroke-width="0.0383387"/>
<path d="M22.1865 6.80103H22.2129" stroke="black" stroke-width="0.0383387"/>
<path d="M22.1362 6.72462C22.1107 6.69906 22.0724 6.68628 22.0596 6.68628" stroke="black" stroke-width="0.0383387"/>
<path d="M22.8388 7.19775C22.7494 7.27443 22.711 7.33833 22.6982 7.42779" stroke="black" stroke-width="0.0383387"/>
<path d="M22.9294 7.26123C22.9038 7.31235 22.8655 7.35069 22.8271 7.37625" stroke="black" stroke-width="0.0383387"/>
<path d="M22.4316 7.6452C22.3294 7.67076 22.2527 7.65798 22.176 7.60686C22.1633 7.59408 22.1505 7.59408 22.1377 7.5813" stroke="black" stroke-width="0.0383387"/>
<path d="M22.8138 7.46609C22.801 7.51721 22.7883 7.58111 22.7627 7.59389C22.8649 7.54277 22.9544 7.46609 22.9672 7.35107" stroke="black" stroke-width="0.0383387"/>
<path d="M22.0732 7.70858C22.1116 7.6958 22.1499 7.72136 22.1755 7.6958" stroke="black" stroke-width="0.0383387"/>
<path d="M24.2959 7.28712C24.3215 7.2999 24.3598 7.31268 24.3726 7.32546C24.3854 7.2999 24.4365 7.26156 24.4748 7.24878" stroke="black" stroke-width="0.0383387"/>
<path d="M23.3889 7.55513C23.3761 7.50401 23.4017 7.44011 23.4783 7.41455" stroke="black" stroke-width="0.0383387"/>
<path d="M22.8906 7.77305C22.9034 7.74749 22.9034 7.70915 22.9162 7.68359" stroke="black" stroke-width="0.0383387"/>
<path d="M22.3274 7.8103C22.3146 7.83586 22.2891 7.86142 22.2891 7.88698" stroke="black" stroke-width="0.0383387"/>
<path d="M22.1377 7.83596C22.1377 7.83596 22.1377 7.82318 22.1505 7.82318C22.176 7.8104 22.2144 7.78484 22.2272 7.75928" stroke="black" stroke-width="0.0383387"/>
<path d="M23.8744 7.65755C23.8488 7.67033 23.836 7.65755 23.8232 7.64478" stroke="black" stroke-width="0.0383387"/>
<path d="M23.8623 7.72144C23.8623 7.72144 23.8491 7.73461 23.8359 7.73461" stroke="black" stroke-width="0.0383387"/>
<path d="M23.926 7.78589C23.9133 7.79867 23.9005 7.81145 23.8877 7.81145" stroke="black" stroke-width="0.0383387"/>
<path d="M24.2959 7.81089C24.3215 7.79811 24.3342 7.77255 24.347 7.72144" stroke="black" stroke-width="0.0383387"/>
<path d="M24.1299 7.79811C24.1682 7.78533 24.1938 7.75977 24.2321 7.72144" stroke="black" stroke-width="0.0383387"/>
<path d="M24.4873 7.69582C24.4873 7.67026 24.4873 7.6447 24.5001 7.61914" stroke="black" stroke-width="0.0383387"/>
<path d="M25.4338 7.81139C25.4083 7.78583 25.4083 7.74749 25.4466 7.72193C25.4722 7.70915 25.4849 7.69637 25.5105 7.68359" stroke="black" stroke-width="0.0383387"/>
<path d="M24.6537 7.36381C24.4493 7.27436 24.462 7.15934 24.2959 7.17212" stroke="black" stroke-width="0.0383387"/>
<path d="M25.5615 7.75928C25.5743 7.77206 25.5615 7.8104 25.5615 7.82318" stroke="black" stroke-width="0.0383387"/>
<path d="M25.6768 7.75928C25.6641 7.79762 25.6641 7.8104 25.6641 7.84873" stroke="black" stroke-width="0.0383387"/>
<path d="M24.6921 6.55859H24.5898" stroke="black" stroke-width="0.0383387"/>
<path d="M23.6182 6.99316C23.6182 7.01872 23.6565 7.06984 23.7587 7.06984C23.746 7.06984 23.7332 7.05706 23.7332 7.05706" stroke="black" stroke-width="0.0383387"/>
<path d="M23.6708 6.84013C23.6581 6.85291 23.6453 6.84013 23.6453 6.84013C23.6197 6.81457 23.6581 6.76345 23.6964 6.73789C23.6581 6.75067 23.6325 6.75067 23.6069 6.75067C23.5814 6.82735 23.5047 6.86569 23.4536 6.81457C23.4408 6.86569 23.3769 6.92959 23.3258 6.91681C23.2747 6.89125 23.2619 6.85291 23.2747 6.81457C23.2108 6.89125 23.1341 6.84013 23.1085 6.81457C23.0957 6.78901 23.1085 6.72512 23.1341 6.64844" stroke="black" stroke-width="0.0383387"/>
<path d="M24.4887 7.32568C24.4503 7.35124 24.412 7.32568 24.3737 7.36402C24.3481 7.38958 24.3864 7.40236 24.412 7.40236C24.3992 7.4407 24.3992 7.45348 24.4631 7.45348C24.4376 7.49182 24.5142 7.5046 24.5015 7.55572C24.5398 7.51738 24.5398 7.46626 24.527 7.42792C24.5142 7.38958 24.4503 7.36402 24.4887 7.32568Z" fill="black"/>
<path d="M23.3257 6.91645C23.2746 6.89089 23.2618 6.85255 23.2746 6.81421C23.2618 6.83977 23.2362 6.85255 23.2107 6.85255C23.1596 6.96756 23.0957 7.0698 23.019 7.0698C22.9295 7.08258 22.9423 7.17204 23.0062 7.17204C23.1468 7.1976 23.2107 7.14648 23.3257 6.91645Z" fill="#073163"/>
<path d="M22.0607 6.61002C22.099 6.57169 22.0734 6.53335 22.0479 6.52057C22.0095 6.50779 21.9329 6.52057 21.8945 6.58446C21.9329 6.57169 21.9712 6.57169 21.984 6.59724C21.9968 6.6228 22.0223 6.64836 22.0607 6.61002Z" fill="#073163"/>
<path d="M22.124 6.37964C22.2135 6.37964 22.239 6.39242 22.2518 6.43076C22.2646 6.45632 22.239 6.49465 22.2135 6.49465C22.1751 6.49465 22.1368 6.4691 22.1496 6.45632C22.1624 6.43076 22.1624 6.39242 22.124 6.37964Z" fill="#073163"/>
<path d="M22.3803 6.58376C22.4442 6.59654 22.4698 6.5582 22.4314 6.50708C22.4186 6.46874 22.3803 6.44318 22.3164 6.45596C22.3803 6.4943 22.3164 6.5582 22.3803 6.58376Z" fill="#073163"/>
<path d="M21.9082 6.80171C21.9465 6.86561 22.0104 6.86561 22.036 6.85283C22.0743 6.84005 22.0871 6.80171 22.0743 6.77615C22.0488 6.73781 22.0104 6.72503 21.9977 6.77615C21.9721 6.82727 21.9338 6.81449 21.9082 6.80171Z" fill="#073163"/>
<path d="M22.0988 7.58082C22.0732 7.5297 21.9965 7.5297 21.9326 7.58082C21.9582 7.56804 22.0093 7.58082 22.0221 7.60638C22.0349 7.63194 22.0604 7.63194 22.0732 7.63194C22.086 7.61916 22.1115 7.60638 22.0988 7.58082Z" fill="#073163"/>
<path d="M22.2021 7.50462C22.2021 7.44072 22.1126 7.42794 22.0615 7.4535C22.0871 7.4535 22.1254 7.47906 22.1254 7.50462C22.1382 7.53018 22.1638 7.54296 22.1765 7.54296C22.2021 7.53018 22.2149 7.5174 22.2021 7.50462Z" fill="#073163"/>
<path d="M22.074 7.73414C21.9973 7.72136 21.959 7.81082 21.959 7.87472C21.9718 7.83638 22.0101 7.81082 22.0484 7.8236C22.0868 7.8236 22.0996 7.81082 22.0996 7.78526C22.1123 7.7597 22.0996 7.74692 22.074 7.73414Z" fill="#073163"/>
<path d="M22.0859 7.95193C22.1115 7.96471 22.1371 7.93915 22.1498 7.90081C22.1498 7.87525 22.201 7.87525 22.2137 7.88803C22.2393 7.90081 22.2393 7.95193 22.201 7.97749C22.1754 7.99027 22.1115 8.00305 22.0859 7.95193Z" fill="#073163"/>
<path d="M23.8632 7.56834C23.8377 7.55556 23.7738 7.53001 23.7227 7.56834C23.761 7.55556 23.7866 7.58112 23.7993 7.60668C23.7993 7.63224 23.8377 7.64502 23.8505 7.61946C23.8632 7.60668 23.876 7.58112 23.8632 7.56834Z" fill="#073163"/>
<path d="M23.7479 7.65719C23.6968 7.63163 23.6329 7.69552 23.6201 7.74664C23.6329 7.73386 23.684 7.7083 23.7096 7.7083C23.7351 7.72108 23.7607 7.7083 23.7607 7.68275C23.7735 7.66997 23.7735 7.65719 23.7479 7.65719Z" fill="#073163"/>
<path d="M23.8121 7.76025C23.7738 7.76025 23.7227 7.81137 23.7227 7.86249C23.7354 7.83693 23.761 7.82415 23.7866 7.83693C23.8121 7.83693 23.8505 7.82415 23.8505 7.79859C23.8505 7.77303 23.8377 7.76025 23.8121 7.76025Z" fill="#073163"/>
<path d="M23.9253 7.86173C23.8998 7.84895 23.8614 7.86173 23.8614 7.90006C23.8614 7.9384 23.8614 7.97674 23.8486 7.98952C23.8742 7.96396 23.8998 7.95118 23.9253 7.9384C23.9381 7.92562 23.9509 7.88729 23.9253 7.86173Z" fill="#073163"/>
<path d="M25.3707 7.74684C25.3452 7.72128 25.3068 7.73406 25.2941 7.75962C25.2813 7.78518 25.2685 7.84908 25.2941 7.9002C25.2941 7.87464 25.3196 7.8363 25.3452 7.8363C25.3835 7.82352 25.3963 7.7724 25.3707 7.74684Z" fill="#073163"/>
<path d="M25.4483 7.7986C25.3972 7.82416 25.3972 7.91362 25.4355 7.96474C25.4355 7.93918 25.4483 7.90084 25.4739 7.88806C25.5122 7.88806 25.525 7.83694 25.5122 7.81138C25.4867 7.78583 25.4611 7.7986 25.4483 7.7986Z" fill="#073163"/>
<path d="M25.6003 7.84886C25.5748 7.83608 25.5492 7.86164 25.5492 7.8872C25.5364 7.92554 25.562 7.97665 25.6003 8.00221C25.6003 7.97665 25.6131 7.9511 25.6259 7.93832C25.6642 7.91276 25.6515 7.86164 25.6003 7.84886Z" fill="#073163"/>
<path d="M25.7168 7.83691C25.6913 7.83691 25.6657 7.87525 25.6913 7.91359C25.704 7.93915 25.7296 7.95193 25.7807 7.93915C25.7679 7.93915 25.7424 7.90081 25.7551 7.88803C25.7679 7.86247 25.7551 7.83691 25.7168 7.83691Z" fill="#073163"/>
<path d="M22.1608 10.2249L22.7998 8.25684L23.4388 10.2249L21.7646 9.01083H23.8349L22.1608 10.2249Z" fill="#F9D050"/>
<path d="M22.2891 10.0462L23.6182 9.07492H21.9824L23.2987 10.0462L22.8003 8.48706L22.2891 10.0462Z" fill="#024919"/>
<path d="M26.3929 6.21265V8.70467C26.3929 10.8644 25.3706 11.6056 24.0032 12.1935C22.6357 11.6056 21.6006 10.8644 21.6006 8.70467V6.21265H26.3929H26.3929Z" stroke="black" stroke-width="0.0383387"/>
</g>
<defs>
<clipPath id="clip0_6205_6512">
<rect width="32" height="16" rx="2" fill="white"/>
</clipPath>
</defs>
</svg>
