<svg width="160" height="128" viewBox="0 0 160 128" fill="none" xmlns="http://www.w3.org/2000/svg"><path opacity="0.32" fill-rule="evenodd" clip-rule="evenodd" d="M17.9671 128H53.6995C63.5915 128 71.6667 119.742 71.6667 109.832V73.2903C71.6667 63.1742 63.5915 54.9161 53.6995 54.9161H29.8779C37.3474 38.6065 53.0939 27.0452 71.4648 25.8065V0C32.0986 0 0 32.6194 0 73.0839V109.626C0 119.742 8.07512 128 17.9671 128ZM160 109.626V73.0839C160 62.9677 151.925 54.9161 142.033 54.9161H118.211C125.681 38.6065 141.427 27.0452 159.798 25.8065V0C120.432 0 88.3333 32.6194 88.3333 73.0839V109.626C88.3333 119.742 96.4085 128 106.3 128H142.033C151.925 128 160 119.742 160 109.626Z" fill="#E5E5E5"/></svg>
