<svg width="48" height="48" viewBox="0 0 48 48" fill="none" xmlns="http://www.w3.org/2000/svg">
<g clip-path="url(#clip0_2053_4749)">
<mask id="mask0_2053_4749" style="mask-type:alpha" maskUnits="userSpaceOnUse" x="0" y="0" width="48" height="48">
<path d="M0 9C0 4.02944 4.02944 0 9 0H39C43.9706 0 48 4.02944 48 9V39C48 43.9706 43.9706 48 39 48H9C4.02944 48 0 43.9706 0 39V9Z" fill="white"/>
</mask>
<g mask="url(#mask0_2053_4749)">
<rect width="48" height="18" fill="#333333"/>
<path d="M9.57156 8.37564L9.74111 10.7658H10.6217L10.2224 6.29178H9.07931L8.47219 8.51238C8.45031 8.63544 8.4216 8.75577 8.39289 8.8761C8.36418 8.99642 8.33547 9.11675 8.31359 9.23981C8.28529 9.13179 8.26426 9.02136 8.24308 8.91021C8.21923 8.78498 8.19521 8.65885 8.16044 8.53426L7.57521 6.29178H6.42115L6 10.7603H6.89153L7.04467 8.42487C7.06107 8.15686 7.07202 7.88886 7.07748 7.62085C7.12124 7.88886 7.18687 8.15139 7.25798 8.41392L7.8979 10.7658H8.66363L9.36919 8.31548C9.43483 8.08576 9.49498 7.86151 9.53874 7.62632C9.54421 7.87792 9.55515 8.12404 9.57156 8.37564Z" fill="white"/>
<path fill-rule="evenodd" clip-rule="evenodd" d="M12.8095 10.197C12.3118 10.197 12.1039 9.85239 12.1039 9.38749H14.0073C14.0073 8.4358 13.8104 7.39114 12.618 7.39114C11.9945 7.39114 11.5077 7.75212 11.2835 8.34282C11.1139 8.79132 11.1194 9.46406 11.2999 9.90162C11.5515 10.5033 12.0766 10.8424 12.7274 10.8424C13.1814 10.8424 13.619 10.6728 13.969 10.3829L13.6354 9.8688C13.3947 10.0602 13.1212 10.197 12.8095 10.197ZM12.6345 8.02012C12.8806 8.02012 13.072 8.20062 13.0994 8.44674C13.1103 8.55066 13.1158 8.65458 13.1158 8.7585H12.1203C12.1203 8.66005 12.1313 8.5616 12.1477 8.46315C12.186 8.21156 12.3719 8.02012 12.6345 8.02012Z" fill="white"/>
<path d="M14.8277 10.5908C15.1887 10.9353 15.845 10.8916 16.2662 10.6947L16.1513 10.1696C16.0583 10.2188 15.9161 10.2353 15.8122 10.2353C15.495 10.2353 15.4731 9.97272 15.4731 9.71019V8.05841H16.0255L16.2443 7.46771H15.4731C15.4731 7.13407 15.495 6.8059 15.5223 6.47226L14.6472 6.69104C14.6107 6.90537 14.6123 7.12351 14.6138 7.3391C14.6141 7.38209 14.6144 7.42498 14.6144 7.46771H14.2862V8.06388H14.6144V9.85239C14.6144 10.1204 14.6199 10.3884 14.8277 10.5908Z" fill="white"/>
<path fill-rule="evenodd" clip-rule="evenodd" d="M18.5196 10.5361C18.6235 10.722 18.7931 10.8478 18.9845 10.9353L19.4439 10.3993C19.1541 10.197 19.1322 9.98366 19.1322 9.66643V8.5616C19.1322 7.81229 18.8478 7.39114 18.0055 7.39114C17.5077 7.39114 17.01 7.59898 16.5943 7.86151L16.9663 8.47956C17.2343 8.27719 17.5788 8.10217 17.9234 8.10217C18.2516 8.10217 18.3008 8.30453 18.3008 8.59989V8.73662C17.7812 8.67099 16.9335 8.76944 16.6545 9.29451C16.567 9.45859 16.5232 9.65002 16.5232 9.86333C16.5232 10.5361 16.9936 10.8916 17.6554 10.8916C18.0219 10.8916 18.268 10.7877 18.5196 10.5361ZM17.4476 9.85786C17.4367 9.69925 17.4804 9.53516 17.5953 9.44765C17.7621 9.31311 18.0719 9.32154 18.2746 9.32706L18.2844 9.32733L18.2735 10.0384C18.1586 10.1696 18 10.2626 17.825 10.2626C17.5953 10.2626 17.464 10.0712 17.4476 9.85786Z" fill="white"/>
<path d="M21.7138 7.03015H22.7803L22.9335 6.29178H19.7065V7.03015H20.8004V10.7658H21.7138V7.03015Z" fill="white"/>
<path d="M24.8751 7.46224L24.6345 8.22249C24.3719 8.05294 24.0383 8.22249 23.8578 8.4358V10.7658H22.9936V8.56707C22.9936 8.24437 22.9827 7.90526 22.8733 7.59898L23.6445 7.39114C23.732 7.53334 23.7703 7.69743 23.7812 7.86151C24.0328 7.53334 24.4649 7.24893 24.8751 7.46224Z" fill="white"/>
<path fill-rule="evenodd" clip-rule="evenodd" d="M26.9316 10.5361C27.0356 10.722 27.2051 10.8478 27.3965 10.9353L27.856 10.3993C27.5716 10.197 27.5442 9.9946 27.5442 9.66643V8.5616C27.5442 7.78494 27.2434 7.39114 26.4175 7.39114C25.9198 7.39114 25.4221 7.59898 25.0064 7.86151L25.3728 8.48503C25.6408 8.28266 25.9854 8.10764 26.33 8.10764C26.7096 8.10764 26.7085 8.40924 26.7075 8.69279C26.7074 8.70746 26.7074 8.72209 26.7074 8.73662C26.3355 8.69287 25.8487 8.74756 25.5041 8.90618C25.1048 9.09214 24.9298 9.43125 24.9298 9.86333C24.9298 10.0548 24.9626 10.2134 25.0283 10.3392C25.2416 10.7494 25.6135 10.8916 26.0675 10.8916C26.423 10.8916 26.6746 10.7931 26.9316 10.5361ZM25.8596 9.80864C25.8596 9.6719 25.8924 9.53516 26.0073 9.44765C26.1655 9.32006 26.4523 9.32106 26.6544 9.32176C26.6689 9.32181 26.6829 9.32186 26.6964 9.32186L26.6855 10.0329C26.5707 10.1642 26.412 10.2571 26.237 10.2571C25.9854 10.2571 25.8596 10.0384 25.8596 9.80864Z" fill="white"/>
<path fill-rule="evenodd" clip-rule="evenodd" d="M30.3665 10.5744C30.3665 10.64 30.3829 10.7056 30.4157 10.7658H31.1705C31.0425 10.4482 31.046 10.0689 31.0492 9.72063C31.0497 9.66708 31.0501 9.61426 31.0501 9.56251V6.13863L30.2024 6.00189V7.13407C30.2024 7.29269 30.2024 7.4513 30.2297 7.60992C30.0766 7.44583 29.8633 7.39114 29.6445 7.39114C29.2452 7.39114 28.8624 7.56069 28.6108 7.87245C28.3263 8.23343 28.2334 8.72568 28.2334 9.17418C28.2334 9.59533 28.3154 10.0329 28.5889 10.3665C28.8405 10.6892 29.2015 10.8424 29.6062 10.8424C29.8961 10.8424 30.1422 10.7549 30.3665 10.5744ZM29.7429 8.1131C29.9289 8.1131 30.0875 8.20062 30.2242 8.32641H30.2297V9.90709C30.1094 10.0493 29.9508 10.1204 29.7703 10.1204C29.2233 10.1204 29.2015 9.57892 29.2015 9.17965C29.2015 8.8132 29.2288 8.1131 29.7429 8.1131Z" fill="white"/>
<path d="M36.082 8.4358C36.2625 8.22249 36.5962 8.05294 36.8587 8.22249L37.0994 7.45677C36.6892 7.24346 36.2571 7.52787 36.0055 7.85604C35.9945 7.69196 35.9562 7.52787 35.8687 7.38567L35.0975 7.5935C35.2015 7.8998 35.2179 8.24437 35.2179 8.5616V10.7658H36.082V8.4358Z" fill="white"/>
<path fill-rule="evenodd" clip-rule="evenodd" d="M33.4075 10.197C32.9098 10.197 32.7019 9.85239 32.7019 9.38749H34.6053C34.6053 9.21247 34.6053 9.03744 34.5944 8.86242C34.5342 8.01466 34.0912 7.39114 33.2161 7.39114C32.5871 7.39114 32.1057 7.75759 31.8815 8.34282C31.8049 8.53972 31.7666 8.79679 31.7666 9.10855C31.7666 9.57892 31.876 10.0548 32.2097 10.4048C32.505 10.7002 32.9098 10.8424 33.3254 10.8424C33.7794 10.8424 34.217 10.6728 34.567 10.3829L34.2334 9.8688C33.9982 10.0602 33.7138 10.197 33.4075 10.197ZM33.227 8.02012C33.3692 8.02012 33.5005 8.08029 33.588 8.18968C33.7138 8.35376 33.7138 8.5616 33.7083 8.75303H32.7129C32.7129 8.55066 32.7347 8.33735 32.866 8.17874C32.9535 8.07482 33.0738 8.02012 33.227 8.02012Z" fill="white"/>
<path d="M41.2397 11.3784C41.7211 10.9846 42 10.4267 42 9.80317C42 8.63817 40.8952 7.96543 39.7849 8.17327L39.9052 6.9864H41.6773L41.7703 6.00189H38.8332L38.5488 9.27263L38.5513 9.27185C38.9396 9.15155 39.5015 8.97742 39.9654 9.04291C40.4412 9.10855 40.7475 9.45859 40.7475 9.94537C40.7475 10.7713 39.9435 11.2034 39.1887 11.2034C38.9207 11.2034 38.6308 11.1596 38.3628 11.0666L38.2972 11.805C38.6089 11.9363 38.9535 11.9964 39.2872 11.9964C39.9763 11.9964 40.6928 11.8159 41.2397 11.3784Z" fill="white"/>
<rect width="48" height="30" transform="translate(0 18)" fill="#FFAD3A"/>
<path d="M26.4167 29.5L24.3313 27L22.25 29.5L26.4167 29.5Z" fill="white"/>
<path d="M31.0021 36.1667L28.9167 33.6667H33.0833L31.0021 36.1667Z" fill="white"/>
<path d="M31.5893 27.6607C31.9147 27.9862 31.9147 28.5138 31.5893 28.8393L30.9285 29.5H28.5715L30.4107 27.6607C30.7362 27.3353 31.2638 27.3353 31.5893 27.6607Z" fill="white"/>
<path d="M27.7382 30.3333L25.2382 32.8333H27.5952L30.0952 30.3333H27.7382Z" fill="white"/>
<path d="M26.7618 33.6667H24.4048L22.25 35.8215L19.0893 32.6607C18.7638 32.3353 18.2362 32.3353 17.9107 32.6607L13.7441 36.8274C13.4186 37.1528 13.4186 37.6805 13.7441 38.0059C14.0695 38.3314 14.5972 38.3314 14.9226 38.0059L18.5 34.4285L21.6607 37.5893C21.9862 37.9147 22.5138 37.9147 22.8393 37.5893L26.7618 33.6667Z" fill="white"/>
</g>
</g>
<defs>
<clipPath id="clip0_2053_4749">
<rect width="48" height="48" fill="white"/>
</clipPath>
</defs>
</svg>
