<svg width="64" height="64" viewBox="0 0 64 64" fill="none" xmlns="http://www.w3.org/2000/svg">
<path d="M32 64C49.6731 64 64 49.6731 64 32C64 14.3269 49.6731 0 32 0C14.3269 0 0 14.3269 0 32C0 49.6731 14.3269 64 32 64Z" fill="#FF6444" fill-opacity="0.08"/>
<path fill-rule="evenodd" clip-rule="evenodd" d="M46 19C47.105 19 48 19.895 48 21V43C48 44.105 47.105 45 46 45H34V40C34 37.79 32.21 36 30 36H23C20.79 36 19 37.79 19 40V45H18C16.895 45 16 44.105 16 43V21C16 19.895 16.895 19 18 19H46ZM26.5 26C24.015 26 22 28.239 22 31C22 33.761 24.015 36 26.5 36C28.985 36 31 33.761 31 31C31 28.239 28.985 26 26.5 26ZM41 31H36C35.448 31 35 31.448 35 32C35 32.552 35.448 33 36 33H41C41.552 33 42 32.552 42 32C42 31.448 41.552 31 41 31ZM44 26H36C35.448 26 35 26.448 35 27V28C35 28.552 35.448 29 36 29H44C44.552 29 45 28.552 45 28V27C45 26.448 44.552 26 44 26Z" fill="#FCAC9C"/>
<path fill-rule="evenodd" clip-rule="evenodd" d="M18 19H46C47.105 19 48 19.895 48 21V23H16V21C16 19.895 16.895 19 18 19Z" fill="#FF6444"/>
</svg>
