<svg width="180" height="40" fill="none" xmlns="http://www.w3.org/2000/svg"><rect width="180" height="40" rx="4" fill="#0E0E0E"/><g clip-path="url(#a)"><path d="M50.382 8H37.616a5.617 5.617 0 0 0-5.617 5.617v12.766A5.617 5.617 0 0 0 37.616 32h12.766a5.617 5.617 0 0 0 5.616-5.617V13.617A5.617 5.617 0 0 0 50.382 8Z" fill="#C8102E"/><path d="m46.336 20-.713 2.247-.693-2.245h-.677l1.093 3.266h.527l.714-2.146.713 2.146h.531l1.09-3.266h-.66l-.694 2.245L46.855 20h-.52Zm-3.784 0-1.382 3.266h.65l.266-.632.02-.048h1.435l.282.68h.667l-1.37-3.246-.011-.02h-.557Zm10.01.001v3.263h.628v-3.263h-.628Zm-18.01 0v3.268h.637v-1.327h1.437v1.327h.637v-3.267h-.637v1.318H35.19v-1.318h-.637Zm5.657.002v1.87c0 .531-.253.815-.713.815-.462 0-.717-.292-.717-.838v-1.845h-.637v1.868c0 .92.491 1.446 1.346 1.446.863 0 1.358-.537 1.358-1.473v-1.843h-.636Zm9.226 0v3.264h2.37v-.595h-1.742v-.81h1.158v-.594h-1.158v-.669h1.68v-.595h-2.308Zm-6.613.825.454 1.094.03.075h-.962l.03-.075.448-1.094Z" fill="#fff"/><path fill-rule="evenodd" clip-rule="evenodd" d="M43.88 15.959c-2.347 0-4.267-1.84-4.267-4.13h.6c0 1.94 1.632 3.53 3.667 3.53s3.666-1.59 3.666-3.53h.6c0 2.29-1.92 4.13-4.266 4.13Z" fill="#fff"/></g><path d="M67.339 11.92V10.9h-2.11V9.397h1.963V8.384H65.23v-1.28h2.11V6.092h-3.34v5.828h3.34Zm1.797 0 1.348-2.204 1.348 2.204h1.404l-1.959-2.938 1.82-2.89h-1.324l-1.226 2.097-1.249-2.097h-1.356l1.8 2.822-1.923 3.006h1.317Zm6.06 0V9.847h.527c.719 0 1.274-.166 1.663-.498.39-.332.586-.812.586-1.44 0-.603-.184-1.057-.55-1.36-.366-.305-.9-.457-1.604-.457h-1.852v5.828h1.23Zm.404-3.085h-.405v-1.73h.56c.335 0 .582.068.74.207.156.138.235.352.235.641 0 .288-.094.506-.281.656-.188.15-.471.226-.85.226Zm7.047 3.085V10.9h-2.352V6.092h-1.229v5.828h3.581Zm3.51.08c.888 0 1.57-.26 2.046-.777.476-.519.714-1.26.714-2.225 0-.967-.236-1.709-.708-2.225C87.737 6.258 87.056 6 86.165 6s-1.575.256-2.052.767c-.478.512-.716 1.253-.716 2.223s.238 1.714.714 2.233c.476.518 1.158.777 2.046.777Zm0-1.037c-.49 0-.857-.164-1.102-.494-.246-.33-.37-.82-.37-1.471 0-.651.125-1.142.373-1.473.249-.331.618-.496 1.107-.496.976 0 1.463.656 1.463 1.969 0 1.31-.49 1.966-1.471 1.966Zm5.191.957V9.684h.655l1.384 2.236h1.364c-.264-.383-.833-1.229-1.705-2.54.343-.15.61-.36.797-.627.188-.267.281-.572.281-.915 0-.588-.189-1.025-.567-1.314-.378-.288-.96-.432-1.749-.432h-1.69v5.828h1.23Zm.397-3.24h-.397V7.103h.373c.397 0 .69.059.879.176.189.117.283.313.283.59 0 .279-.092.483-.277.614-.185.13-.472.195-.861.195Zm7.075 3.24V10.9h-2.11V9.397h1.963V8.384H96.71v-1.28h2.11V6.092h-3.34v5.828h3.34Zm4.549 0V6.092h-1.23v5.828h1.23Zm3.696 0v-4.8h1.575V6.092h-4.379V7.12h1.575v4.8h1.229Zm7.079.08c.888 0 1.571-.26 2.047-.777.475-.519.713-1.26.713-2.225 0-.967-.236-1.709-.708-2.225-.471-.515-1.153-.773-2.044-.773s-1.575.256-2.052.767c-.477.512-.716 1.253-.716 2.223s.238 1.714.714 2.233c.476.518 1.158.777 2.046.777Zm0-1.037c-.489 0-.856-.164-1.102-.494-.246-.33-.369-.82-.369-1.471 0-.651.124-1.142.373-1.473.248-.331.617-.496 1.106-.496.976 0 1.463.656 1.463 1.969 0 1.31-.49 1.966-1.471 1.966Zm5.061.957V9.177c0-.332-.026-.887-.076-1.666h.036l2.522 4.41h1.563V6.09h-1.107v2.806c.002.319.022.839.06 1.56h-.028l-2.518-4.365h-1.551v5.828h1.099ZM66.31 30.401l1.032-2.929h4.367l1.048 2.929h2.451l-4.524-11.563H68.43L64 30.4h2.31Zm4.76-4.716h-3.098l1.088-3.065c.174-.51.323-1 .45-1.468.152.564.307 1.056.465 1.476l1.095 3.057ZM76.122 34l2.27-.168v-3.519a5.38 5.38 0 0 0 1.584.264c.804 0 1.519-.184 2.144-.551.625-.367 1.115-.913 1.47-1.636.355-.724.532-1.599.532-2.625 0-.953-.148-1.74-.445-2.363-.297-.622-.686-1.078-1.167-1.368a3.004 3.004 0 0 0-1.58-.435c-.52 0-.993.116-1.419.347a4.034 4.034 0 0 0-1.143.938 6.771 6.771 0 0 0-.15-1.117h-2.16c.043.766.064 1.476.064 2.13V34Zm3.563-5.107c-.232 0-.464-.026-.698-.076a2.617 2.617 0 0 1-.595-.196v-4.3c.284-.288.569-.513.855-.675.286-.162.598-.244.934-.244.494 0 .89.197 1.186.591.297.394.446 1.032.446 1.915 0 .98-.186 1.721-.556 2.227-.37.505-.895.758-1.573.758ZM85.674 34l2.27-.168v-3.519a5.38 5.38 0 0 0 1.584.264c.804 0 1.52-.184 2.144-.551.626-.367 1.116-.913 1.47-1.636.355-.724.532-1.599.532-2.625 0-.953-.148-1.74-.445-2.363-.297-.622-.686-1.078-1.166-1.368a3.004 3.004 0 0 0-1.58-.435c-.521 0-.994.116-1.42.347a4.035 4.035 0 0 0-1.143.938 6.76 6.76 0 0 0-.15-1.117h-2.16c.043.766.064 1.476.064 2.13V34Zm3.563-5.107c-.231 0-.464-.026-.698-.076a2.617 2.617 0 0 1-.595-.196v-4.3c.284-.288.569-.513.855-.675.287-.162.598-.244.934-.244.494 0 .89.197 1.187.591.296.394.445 1.032.445 1.915 0 .98-.185 1.721-.556 2.227-.37.505-.894.758-1.572.758Zm11.176 1.668c.725 0 1.451-.083 2.179-.248a10.31 10.31 0 0 0 2.085-.71v-5.02h-4.698v1.724h2.507v2.13a5.896 5.896 0 0 1-1.971.328c-.788 0-1.437-.175-1.947-.527a3.058 3.058 0 0 1-1.123-1.44c-.239-.61-.358-1.307-.358-2.095 0-.899.154-1.664.465-2.294.31-.63.747-1.108 1.312-1.432.565-.325 1.228-.487 1.99-.487.941 0 1.918.245 2.932.734l.521-1.74a8.25 8.25 0 0 0-3.571-.798c-1.125 0-2.14.225-3.047.675-.906.45-1.626 1.126-2.16 2.03-.533.905-.8 2.014-.8 3.328 0 1.208.233 2.25.698 3.128a4.8 4.8 0 0 0 1.979 2.015c.854.466 1.856.699 3.007.699Zm8.346 0c.589 0 1.114-.123 1.577-.367.462-.245.84-.543 1.135-.894.015.388.063.755.141 1.101h2.144a30.708 30.708 0 0 1-.063-1.62v-3.455c0-1.362-.32-2.324-.961-2.885-.641-.561-1.55-.842-2.728-.842-.651 0-1.27.065-1.856.195-.586.13-1.06.279-1.423.443l.332 1.644c.367-.17.792-.316 1.273-.439.48-.122.928-.183 1.343-.183.568 0 1.004.14 1.309.423.305.282.457.76.457 1.436v.144c-.483-.07-.977-.104-1.482-.104-2.596 0-3.894.915-3.894 2.745 0 .58.123 1.07.367 1.469s.57.697.977.893c.408.197.858.296 1.352.296Zm.717-1.676c-.346 0-.62-.092-.819-.276-.2-.183-.3-.464-.3-.841 0-.394.137-.708.41-.942.273-.234.767-.351 1.482-.351.31 0 .707.026 1.19.08v1.428c-.242.26-.544.476-.906.646a2.48 2.48 0 0 1-1.057.256Zm8.347 1.676c.283 0 .582-.027.894-.08.313-.053.574-.125.785-.216l-.261-1.612c-.21.07-.396.104-.559.104-.247 0-.435-.07-.564-.211-.128-.141-.193-.385-.193-.73V18l-2.262.16v10.07c0 .804.183 1.393.548 1.768.365.375.902.563 1.612.563Zm4.87 0c.284 0 .582-.027.895-.08.312-.053.574-.125.784-.216l-.26-1.612c-.211.07-.397.104-.56.104-.247 0-.435-.07-.564-.211-.128-.141-.193-.385-.193-.73V18l-2.262.16v10.07c0 .804.183 1.393.548 1.768.365.375.902.563 1.612.563Zm6.502 0c1.224 0 2.335-.24 3.334-.719l-.489-1.548a7.398 7.398 0 0 1-1.225.391 5.59 5.59 0 0 1-1.234.144c-.709 0-1.268-.186-1.675-.559-.407-.372-.645-.973-.713-1.803h5.501v-.51c0-.804-.135-1.536-.405-2.195a3.495 3.495 0 0 0-1.246-1.576c-.56-.392-1.257-.587-2.093-.587-.798 0-1.504.182-2.116.547-.612.364-1.089.893-1.431 1.588-.341.694-.512 1.52-.512 2.477 0 1.384.364 2.454 1.092 3.212.727.759 1.798 1.138 3.212 1.138Zm1.308-5.49h-3.271c.095-.623.289-1.089.583-1.397.295-.309.668-.463 1.12-.463.462 0 .831.156 1.107.467.276.311.43.775.461 1.392Zm5.998 5.33v-5.41c.373-.506.726-.866 1.06-1.082a2.109 2.109 0 0 1 1.17-.323c.226 0 .436.027.631.08l.284-1.963a2.699 2.699 0 0 0-.773-.104 1.97 1.97 0 0 0-.989.243 2.74 2.74 0 0 0-.753.63 7.324 7.324 0 0 0-.662.962c-.01-.207-.03-.478-.059-.814a17.82 17.82 0 0 0-.091-.853h-2.144a53.8 53.8 0 0 1 .063 2.154v6.48h2.263ZM140.898 34c.688 0 1.281-.124 1.777-.371.497-.247.926-.63 1.289-1.15.363-.518.691-1.203.985-2.054L148 21.767h-2.255l-1.481 4.668a24.134 24.134 0 0 0-.481 1.843c-.074-.484-.221-1.104-.442-1.859l-1.434-4.652h-2.444l3.114 8.762-.103.255c-.184.479-.432.845-.745 1.097a1.705 1.705 0 0 1-1.107.38c-.179 0-.374-.02-.587-.056a4.893 4.893 0 0 1-.485-.104l-.402 1.644a5.983 5.983 0 0 0 1.75.255Z" fill="#fff"/><defs><clipPath id="a"><path fill="#fff" transform="translate(32 8)" d="M0 0h24v24H0z"/></clipPath></defs></svg>