<svg width="154" height="40" viewBox="0 0 154 40" fill="none" xmlns="http://www.w3.org/2000/svg">
<path d="M32.0003 19.4629H18.6421V9.91911L32.0003 7.99731V19.4629Z" fill="#333333"/>
<path d="M17.7002 10.0481V19.4569H8V11.4431L17.7002 10.0481Z" fill="#333333"/>
<path d="M17.7002 20.3958H8V28.5116L17.7002 29.9225V20.3958Z" fill="#333333"/>
<path d="M18.6421 30.0597V20.3958H32.0003V32.0025L18.6421 30.0597Z" fill="#333333"/>
<path d="M40.7212 6.55762H42.7646C44.9531 6.55762 46.0474 7.61963 46.0474 9.74365C46.0474 11.9146 44.9531 13 42.7646 13H40.7212V6.55762ZM41.5737 12.2354H42.7471C43.6816 12.2354 44.3188 12.0186 44.6587 11.585C44.9985 11.1484 45.1685 10.5347 45.1685 9.74365C45.1685 8.97314 44.9985 8.37695 44.6587 7.95508C44.3218 7.5332 43.6846 7.32227 42.7471 7.32227H41.5737V12.2354ZM49.2749 8.23193C49.9399 8.23193 50.4702 8.44434 50.8657 8.86914C51.2641 9.29395 51.4634 9.89453 51.4634 10.6709C51.4634 11.4443 51.2641 12.0449 50.8657 12.4727C50.4702 12.8975 49.9399 13.1099 49.2749 13.1099C48.6128 13.1099 48.0825 12.8975 47.6841 12.4727C47.2886 12.0449 47.0908 11.4443 47.0908 10.6709C47.0908 9.89453 47.2886 9.29395 47.6841 8.86914C48.0825 8.44434 48.6128 8.23193 49.2749 8.23193ZM49.2749 12.4595C49.6704 12.4595 49.9912 12.3101 50.2373 12.0112C50.4834 11.7095 50.6064 11.2627 50.6064 10.6709C50.6064 10.0762 50.4834 9.62939 50.2373 9.33057C49.9912 9.02881 49.6704 8.87793 49.2749 8.87793C48.8794 8.87793 48.5586 9.02881 48.3125 9.33057C48.0664 9.62939 47.9433 10.0762 47.9433 10.6709C47.9433 11.2627 48.0664 11.7095 48.3125 12.0112C48.5586 12.3101 48.8794 12.4595 49.2749 12.4595ZM58.5053 8.3374L57.1035 13H56.3125L55.3017 9.57227L54.2954 13H53.5044L52.0981 8.3374H53.0166L53.8735 11.8926L54.9238 8.3374H55.6796L56.7343 11.8926L57.5913 8.3374H58.5053ZM60.2695 8.93066C60.6826 8.46484 61.1469 8.23193 61.6625 8.23193C62.7143 8.23193 63.2402 8.80469 63.2402 9.9502V13H62.4096V9.98535C62.4096 9.60449 62.3408 9.33057 62.2031 9.16357C62.0683 8.99658 61.8456 8.91309 61.5351 8.91309C61.1132 8.91309 60.6913 9.16211 60.2695 9.66016V13H59.4389V8.3374H60.2695V8.93066ZM65.5492 13H64.7187V6.55762H65.5492V13ZM68.935 8.23193C69.6 8.23193 70.1303 8.44434 70.5258 8.86914C70.9242 9.29395 71.1234 9.89453 71.1234 10.6709C71.1234 11.4443 70.9242 12.0449 70.5258 12.4727C70.1303 12.8975 69.6 13.1099 68.935 13.1099C68.2729 13.1099 67.7426 12.8975 67.3441 12.4727C66.9486 12.0449 66.7509 11.4443 66.7509 10.6709C66.7509 9.89453 66.9486 9.29395 67.3441 8.86914C67.7426 8.44434 68.2729 8.23193 68.935 8.23193ZM68.935 12.4595C69.3305 12.4595 69.6513 12.3101 69.8974 12.0112C70.1435 11.7095 70.2665 11.2627 70.2665 10.6709C70.2665 10.0762 70.1435 9.62939 69.8974 9.33057C69.6513 9.02881 69.3305 8.87793 68.935 8.87793C68.5395 8.87793 68.2187 9.02881 67.9726 9.33057C67.7265 9.62939 67.6034 10.0762 67.6034 10.6709C67.6034 11.2627 67.7265 11.7095 67.9726 12.0112C68.2187 12.3101 68.5395 12.4595 68.935 12.4595ZM75.2782 11.7739V10.7412H74.7113C73.5101 10.7412 72.9096 11.0679 72.9096 11.7212C72.9096 11.9585 72.9974 12.1416 73.1732 12.2705C73.349 12.3965 73.5863 12.4595 73.8851 12.4595C74.1576 12.4595 74.4213 12.3979 74.6762 12.2749C74.931 12.1519 75.1317 11.9849 75.2782 11.7739ZM75.2782 12.521C74.8563 12.9136 74.3129 13.1099 73.6478 13.1099C73.1849 13.1099 72.8041 12.9854 72.5053 12.7363C72.2064 12.4844 72.057 12.1606 72.057 11.7651C72.057 10.6753 72.996 10.1304 74.8739 10.1304H75.2782C75.2782 9.79639 75.2606 9.55469 75.2255 9.40527C75.1903 9.25293 75.0922 9.12695 74.931 9.02734C74.7699 8.92773 74.5136 8.87793 74.162 8.87793C73.4237 8.87793 73.0429 9.1416 73.0194 9.66895H72.1932C72.2548 8.71094 72.9257 8.23193 74.2059 8.23193C74.8036 8.23193 75.2694 8.35059 75.6034 8.58789C75.9374 8.8252 76.1044 9.29102 76.1044 9.98535V13H75.2782V12.521ZM80.558 11.6597V9.44482C80.2005 9.06689 79.7919 8.87793 79.3319 8.87793C78.9774 8.87793 78.6932 9.03174 78.4794 9.33936C78.2684 9.64404 78.1629 10.0996 78.1629 10.7061C78.1629 11.2803 78.2626 11.7168 78.4618 12.0156C78.6639 12.3115 78.9422 12.4595 79.2967 12.4595C79.7596 12.4595 80.18 12.1929 80.558 11.6597ZM80.558 12.4419C80.1888 12.8872 79.745 13.1099 79.2264 13.1099C78.6171 13.1099 78.1454 12.8931 77.8114 12.4595C77.4774 12.0259 77.3104 11.4414 77.3104 10.7061C77.3104 9.94434 77.4964 9.34229 77.8685 8.8999C78.2435 8.45459 78.7137 8.23193 79.2792 8.23193C79.7831 8.23193 80.2093 8.38721 80.558 8.69775V6.55762H81.3841V13H80.558V12.4419ZM86.5164 8.98779V13H85.6903V8.98779H85.0047V8.3374H85.6903V7.92432C85.6903 6.93994 86.1253 6.44775 86.9954 6.44775C87.262 6.44775 87.4686 6.46533 87.6151 6.50049V7.22119C87.451 7.19189 87.284 7.17725 87.1141 7.17725C86.9119 7.17725 86.7611 7.23438 86.6614 7.34863C86.5648 7.45996 86.5164 7.65479 86.5164 7.93311V8.3374H87.3997V8.98779H86.5164ZM90.2098 8.23193C90.8748 8.23193 91.4051 8.44434 91.8006 8.86914C92.199 9.29395 92.3982 9.89453 92.3982 10.6709C92.3982 11.4443 92.199 12.0449 91.8006 12.4727C91.4051 12.8975 90.8748 13.1099 90.2098 13.1099C89.5477 13.1099 89.0174 12.8975 88.6189 12.4727C88.2234 12.0449 88.0257 11.4443 88.0257 10.6709C88.0257 9.89453 88.2234 9.29395 88.6189 8.86914C89.0174 8.44434 89.5477 8.23193 90.2098 8.23193ZM90.2098 12.4595C90.6053 12.4595 90.9261 12.3101 91.1722 12.0112C91.4183 11.7095 91.5413 11.2627 91.5413 10.6709C91.5413 10.0762 91.4183 9.62939 91.1722 9.33057C90.9261 9.02881 90.6053 8.87793 90.2098 8.87793C89.8143 8.87793 89.4935 9.02881 89.2474 9.33057C89.0013 9.62939 88.8782 10.0762 88.8782 10.6709C88.8782 11.2627 89.0013 11.7095 89.2474 12.0112C89.4935 12.3101 89.8143 12.4595 90.2098 12.4595ZM96.0213 9.09326C95.9041 9.05811 95.7356 9.04053 95.5159 9.04053C95.094 9.04053 94.7322 9.26172 94.4305 9.7041V13H93.5999V8.3374H94.4305V8.98779C94.7791 8.48389 95.1834 8.23193 95.6433 8.23193C95.7605 8.23193 95.8865 8.24365 96.0213 8.26709V9.09326Z" fill="#333333"/>
<path d="M55.8799 18.8311L52.5098 31H50.9658L48.0439 20.4248L45.1138 31H43.5698L40.208 18.8311H41.9014L44.3335 28.7422L47.0728 18.8311H49.0068L51.7461 28.7422L54.1782 18.8311H55.8799ZM58.7769 31H57.208V22.1929H58.7769V31ZM58.7769 20.5244H57.208V18.8311H58.7769V20.5244ZM62.6616 23.3135C63.4419 22.4336 64.319 21.9937 65.293 21.9937C67.2796 21.9937 68.2729 23.0755 68.2729 25.2393V31H66.7041V25.3057C66.7041 24.5863 66.5741 24.0688 66.314 23.7534C66.0594 23.438 65.6388 23.2803 65.0522 23.2803C64.2554 23.2803 63.4585 23.7507 62.6616 24.6914V31H61.0928V22.1929H62.6616V23.3135ZM76.1338 28.4683V24.2847C75.4587 23.5708 74.6867 23.2139 73.8179 23.2139C73.1483 23.2139 72.6115 23.5044 72.2075 24.0854C71.8091 24.661 71.6099 25.5215 71.6099 26.667C71.6099 27.7516 71.798 28.5762 72.1743 29.1406C72.5562 29.6995 73.0819 29.979 73.7515 29.979C74.6258 29.979 75.4199 29.4754 76.1338 28.4683ZM76.1338 29.9458C75.4365 30.7869 74.5981 31.2075 73.6187 31.2075C72.4676 31.2075 71.5767 30.798 70.9458 29.979C70.3149 29.16 69.9995 28.056 69.9995 26.667C69.9995 25.2282 70.3509 24.091 71.0537 23.2554C71.762 22.4142 72.6502 21.9937 73.7183 21.9937C74.6701 21.9937 75.4753 22.2869 76.1338 22.8735V18.8311H77.6943V31H76.1338V29.9458ZM83.5879 21.9937C84.8441 21.9937 85.8457 22.3949 86.5928 23.1973C87.3454 23.9997 87.7217 25.1341 87.7217 26.6006C87.7217 28.0615 87.3454 29.196 86.5928 30.0039C85.8457 30.8063 84.8441 31.2075 83.5879 31.2075C82.3372 31.2075 81.3356 30.8063 80.583 30.0039C79.8359 29.196 79.4624 28.0615 79.4624 26.6006C79.4624 25.1341 79.8359 23.9997 80.583 23.1973C81.3356 22.3949 82.3372 21.9937 83.5879 21.9937ZM83.5879 29.979C84.335 29.979 84.9409 29.6968 85.4058 29.1323C85.8706 28.5623 86.103 27.7184 86.103 26.6006C86.103 25.4772 85.8706 24.6333 85.4058 24.0688C84.9409 23.4989 84.335 23.2139 83.5879 23.2139C82.8408 23.2139 82.2349 23.4989 81.77 24.0688C81.3052 24.6333 81.0728 25.4772 81.0728 26.6006C81.0728 27.7184 81.3052 28.5623 81.77 29.1323C82.2349 29.6968 82.8408 29.979 83.5879 29.979ZM100.513 22.1929L97.8652 31H96.3711L94.4619 24.5254L92.561 31H91.0669L88.4106 22.1929H90.1455L91.7642 28.9082L93.748 22.1929H95.1758L97.168 28.9082L98.7866 22.1929H100.513ZM104.913 31.2075C102.505 31.2075 101.246 30.2612 101.136 28.3687H102.705C102.716 29.4422 103.446 29.979 104.896 29.979C105.543 29.979 106.036 29.8462 106.374 29.5806C106.717 29.3094 106.888 28.9718 106.888 28.5679C106.888 28.1694 106.722 27.89 106.39 27.7295C106.058 27.5635 105.372 27.3504 104.332 27.0903C103.297 26.8302 102.539 26.5397 102.057 26.2188C101.581 25.8978 101.343 25.3333 101.343 24.5254C101.343 23.7949 101.639 23.1917 102.231 22.7158C102.829 22.2344 103.626 21.9937 104.622 21.9937C106.93 21.9937 108.108 22.8154 108.158 24.459H106.598C106.542 23.6289 105.92 23.2139 104.73 23.2139C104.204 23.2139 103.767 23.3135 103.418 23.5127C103.075 23.7119 102.904 24.0024 102.904 24.3843C102.904 24.7274 103.037 24.9764 103.302 25.1313C103.568 25.2808 104.232 25.4855 105.294 25.7456C106.362 26.0002 107.154 26.299 107.668 26.6421C108.189 26.9852 108.449 27.5773 108.449 28.4185C108.449 29.2209 108.128 29.8877 107.486 30.4189C106.849 30.9447 105.992 31.2075 104.913 31.2075ZM116.841 31H115.139V29.2983H116.841V31ZM123.257 31.2075C121.962 31.2075 120.922 30.8035 120.136 29.9956C119.35 29.1821 118.958 28.0505 118.958 26.6006C118.958 25.1618 119.337 24.0356 120.095 23.2222C120.858 22.4032 121.854 21.9937 123.083 21.9937C124.339 21.9937 125.341 22.3949 126.088 23.1973C126.84 23.9997 127.217 25.1341 127.217 26.6006V26.9741H120.584C120.651 27.9924 120.93 28.7477 121.423 29.2402C121.921 29.7327 122.532 29.979 123.257 29.979C123.805 29.979 124.298 29.8407 124.735 29.564C125.178 29.2817 125.41 28.8833 125.432 28.3687H127.051C126.929 29.2762 126.517 29.9762 125.814 30.4688C125.117 30.9613 124.264 31.2075 123.257 31.2075ZM125.565 25.7456C125.438 24.8989 125.153 24.2653 124.71 23.8447C124.267 23.4242 123.725 23.2139 123.083 23.2139C122.458 23.2139 121.921 23.4242 121.473 23.8447C121.024 24.2598 120.739 24.8934 120.618 25.7456H125.565ZM136.207 31H134.264L132.073 27.5635L129.881 31H127.939L131.193 26.4263L128.196 22.1929H130.139L132.073 25.2725L134.007 22.1929H135.949L132.953 26.4097L136.207 31ZM141.22 31.2075C139.925 31.2075 138.885 30.8035 138.099 29.9956C137.313 29.1821 136.92 28.0505 136.92 26.6006C136.92 25.1618 137.299 24.0356 138.058 23.2222C138.821 22.4032 139.817 21.9937 141.046 21.9937C142.302 21.9937 143.304 22.3949 144.051 23.1973C144.803 23.9997 145.18 25.1341 145.18 26.6006V26.9741H138.547C138.614 27.9924 138.893 28.7477 139.386 29.2402C139.884 29.7327 140.495 29.979 141.22 29.979C141.768 29.979 142.261 29.8407 142.698 29.564C143.14 29.2817 143.373 28.8833 143.395 28.3687H145.014C144.892 29.2762 144.48 29.9762 143.777 30.4688C143.08 30.9613 142.227 31.2075 141.22 31.2075ZM143.528 25.7456C143.401 24.8989 143.116 24.2653 142.673 23.8447C142.23 23.4242 141.688 23.2139 141.046 23.2139C140.421 23.2139 139.884 23.4242 139.436 23.8447C138.987 24.2598 138.702 24.8934 138.581 25.7456H143.528Z" fill="#333333"/>
<rect x="0.5" y="0.5" width="153" height="39" rx="3.5" stroke="#999999"/>
</svg>
