<svg width="154" height="40" viewBox="0 0 154 40" fill="none" xmlns="http://www.w3.org/2000/svg">
<rect width="154" height="40" rx="4" fill="#0E0E0E"/>
<path d="M32.0003 19.463H18.6421V9.91923L32.0003 7.99744V19.463Z" fill="white"/>
<path d="M17.7002 10.0482V19.457H8V11.4432L17.7002 10.0482Z" fill="white"/>
<path d="M17.7002 20.3959H8V28.5117L17.7002 29.9226V20.3959Z" fill="white"/>
<path d="M18.6421 30.0598V20.3959H32.0003V32.0026L18.6421 30.0598Z" fill="white"/>
<path d="M40.7211 7.55762H42.7645C44.953 7.55762 46.0472 8.61963 46.0472 10.7437C46.0472 12.9146 44.953 14 42.7645 14H40.7211V7.55762ZM41.5736 13.2354H42.7469C43.6815 13.2354 44.3187 13.0186 44.6586 12.585C44.9984 12.1484 45.1683 11.5347 45.1683 10.7437C45.1683 9.97314 44.9984 9.37695 44.6586 8.95508C44.3216 8.5332 43.6844 8.32227 42.7469 8.32227H41.5736V13.2354ZM49.2747 9.23193C49.9398 9.23193 50.4701 9.44434 50.8656 9.86914C51.264 10.2939 51.4632 10.8945 51.4632 11.6709C51.4632 12.4443 51.264 13.0449 50.8656 13.4727C50.4701 13.8975 49.9398 14.1099 49.2747 14.1099C48.6126 14.1099 48.0824 13.8975 47.6839 13.4727C47.2884 13.0449 47.0907 12.4443 47.0907 11.6709C47.0907 10.8945 47.2884 10.2939 47.6839 9.86914C48.0824 9.44434 48.6126 9.23193 49.2747 9.23193ZM49.2747 13.4595C49.6703 13.4595 49.9911 13.3101 50.2371 13.0112C50.4832 12.7095 50.6063 12.2627 50.6063 11.6709C50.6063 11.0762 50.4832 10.6294 50.2371 10.3306C49.9911 10.0288 49.6703 9.87793 49.2747 9.87793C48.8792 9.87793 48.5584 10.0288 48.3123 10.3306C48.0662 10.6294 47.9432 11.0762 47.9432 11.6709C47.9432 12.2627 48.0662 12.7095 48.3123 13.0112C48.5584 13.3101 48.8792 13.4595 49.2747 13.4595ZM58.5052 9.3374L57.1033 14H56.3123L55.3016 10.5723L54.2952 14H53.5042L52.098 9.3374H53.0164L53.8734 12.8926L54.9237 9.3374H55.6795L56.7342 12.8926L57.5911 9.3374H58.5052ZM60.2693 9.93066C60.6824 9.46484 61.1468 9.23193 61.6624 9.23193C62.7142 9.23193 63.24 9.80469 63.24 10.9502V14H62.4095V10.9854C62.4095 10.6045 62.3406 10.3306 62.2029 10.1636C62.0682 9.99658 61.8455 9.91309 61.535 9.91309C61.1131 9.91309 60.6912 10.1621 60.2693 10.6602V14H59.4388V9.3374H60.2693V9.93066ZM65.5491 14H64.7185V7.55762H65.5491V14ZM68.9348 9.23193C69.5999 9.23193 70.1301 9.44434 70.5256 9.86914C70.9241 10.2939 71.1233 10.8945 71.1233 11.6709C71.1233 12.4443 70.9241 13.0449 70.5256 13.4727C70.1301 13.8975 69.5999 14.1099 68.9348 14.1099C68.2727 14.1099 67.7424 13.8975 67.344 13.4727C66.9485 13.0449 66.7507 12.4443 66.7507 11.6709C66.7507 10.8945 66.9485 10.2939 67.344 9.86914C67.7424 9.44434 68.2727 9.23193 68.9348 9.23193ZM68.9348 13.4595C69.3303 13.4595 69.6511 13.3101 69.8972 13.0112C70.1433 12.7095 70.2664 12.2627 70.2664 11.6709C70.2664 11.0762 70.1433 10.6294 69.8972 10.3306C69.6511 10.0288 69.3303 9.87793 68.9348 9.87793C68.5393 9.87793 68.2185 10.0288 67.9724 10.3306C67.7263 10.6294 67.6033 11.0762 67.6033 11.6709C67.6033 12.2627 67.7263 12.7095 67.9724 13.0112C68.2185 13.3101 68.5393 13.4595 68.9348 13.4595ZM75.2781 12.7739V11.7412H74.7112C73.51 11.7412 72.9094 12.0679 72.9094 12.7212C72.9094 12.9585 72.9973 13.1416 73.1731 13.2705C73.3489 13.3965 73.5862 13.4595 73.885 13.4595C74.1575 13.4595 74.4211 13.3979 74.676 13.2749C74.9309 13.1519 75.1316 12.9849 75.2781 12.7739ZM75.2781 13.521C74.8562 13.9136 74.3127 14.1099 73.6477 14.1099C73.1848 14.1099 72.8039 13.9854 72.5051 13.7363C72.2063 13.4844 72.0569 13.1606 72.0569 12.7651C72.0569 11.6753 72.9958 11.1304 74.8738 11.1304H75.2781C75.2781 10.7964 75.2605 10.5547 75.2253 10.4053C75.1902 10.2529 75.092 10.127 74.9309 10.0273C74.7698 9.92773 74.5134 9.87793 74.1619 9.87793C73.4236 9.87793 73.0427 10.1416 73.0193 10.6689H72.1931C72.2546 9.71094 72.9255 9.23193 74.2058 9.23193C74.8035 9.23193 75.2693 9.35059 75.6033 9.58789C75.9372 9.8252 76.1042 10.291 76.1042 10.9854V14H75.2781V13.521ZM80.5578 12.6597V10.4448C80.2004 10.0669 79.7917 9.87793 79.3318 9.87793C78.9773 9.87793 78.6931 10.0317 78.4792 10.3394C78.2683 10.644 78.1628 11.0996 78.1628 11.7061C78.1628 12.2803 78.2624 12.7168 78.4616 13.0156C78.6638 13.3115 78.9421 13.4595 79.2966 13.4595C79.7595 13.4595 80.1799 13.1929 80.5578 12.6597ZM80.5578 13.4419C80.1887 13.8872 79.7448 14.1099 79.2263 14.1099C78.6169 14.1099 78.1452 13.8931 77.8112 13.4595C77.4773 13.0259 77.3103 12.4414 77.3103 11.7061C77.3103 10.9443 77.4963 10.3423 77.8684 9.8999C78.2434 9.45459 78.7136 9.23193 79.279 9.23193C79.7829 9.23193 80.2092 9.38721 80.5578 9.69775V7.55762H81.384V14H80.5578V13.4419ZM86.5163 9.98779V14H85.6901V9.98779H85.0046V9.3374H85.6901V8.92432C85.6901 7.93994 86.1252 7.44775 86.9953 7.44775C87.2619 7.44775 87.4684 7.46533 87.6149 7.50049V8.22119C87.4509 8.19189 87.2839 8.17725 87.1139 8.17725C86.9118 8.17725 86.7609 8.23438 86.6613 8.34863C86.5646 8.45996 86.5163 8.65479 86.5163 8.93311V9.3374H87.3996V9.98779H86.5163ZM90.2096 9.23193C90.8747 9.23193 91.4049 9.44434 91.8004 9.86914C92.1989 10.2939 92.3981 10.8945 92.3981 11.6709C92.3981 12.4443 92.1989 13.0449 91.8004 13.4727C91.4049 13.8975 90.8747 14.1099 90.2096 14.1099C89.5475 14.1099 89.0172 13.8975 88.6188 13.4727C88.2233 13.0449 88.0255 12.4443 88.0255 11.6709C88.0255 10.8945 88.2233 10.2939 88.6188 9.86914C89.0172 9.44434 89.5475 9.23193 90.2096 9.23193ZM90.2096 13.4595C90.6051 13.4595 90.9259 13.3101 91.172 13.0112C91.4181 12.7095 91.5412 12.2627 91.5412 11.6709C91.5412 11.0762 91.4181 10.6294 91.172 10.3306C90.9259 10.0288 90.6051 9.87793 90.2096 9.87793C89.8141 9.87793 89.4933 10.0288 89.2472 10.3306C89.0011 10.6294 88.8781 11.0762 88.8781 11.6709C88.8781 12.2627 89.0011 12.7095 89.2472 13.0112C89.4933 13.3101 89.8141 13.4595 90.2096 13.4595ZM96.0211 10.0933C95.9039 10.0581 95.7355 10.0405 95.5158 10.0405C95.0939 10.0405 94.7321 10.2617 94.4303 10.7041V14H93.5997V9.3374H94.4303V9.98779C94.7789 9.48389 95.1832 9.23193 95.6432 9.23193C95.7604 9.23193 95.8864 9.24365 96.0211 9.26709V10.0933Z" fill="white"/>
<path d="M55.8797 18.8311L52.5096 31H50.9657L48.0438 20.4248L45.1136 31H43.5697L40.2079 18.8311H41.9012L44.3334 28.7422L47.0726 18.8311H49.0067L51.746 28.7422L54.1781 18.8311H55.8797ZM58.7767 31H57.2079V22.1929H58.7767V31ZM58.7767 20.5244H57.2079V18.8311H58.7767V20.5244ZM62.6615 23.3135C63.4418 22.4336 64.3189 21.9937 65.2928 21.9937C67.2795 21.9937 68.2728 23.0755 68.2728 25.2393V31H66.704V25.3057C66.704 24.5863 66.5739 24.0688 66.3138 23.7534C66.0593 23.438 65.6387 23.2803 65.0521 23.2803C64.2552 23.2803 63.4584 23.7507 62.6615 24.6914V31H61.0926V22.1929H62.6615V23.3135ZM76.1337 28.4683V24.2847C75.4585 23.5708 74.6865 23.2139 73.8177 23.2139C73.1481 23.2139 72.6114 23.5044 72.2074 24.0854C71.8089 24.661 71.6097 25.5215 71.6097 26.667C71.6097 27.7516 71.7979 28.5762 72.1742 29.1406C72.556 29.6995 73.0817 29.979 73.7513 29.979C74.6257 29.979 75.4198 29.4754 76.1337 28.4683ZM76.1337 29.9458C75.4364 30.7869 74.598 31.2075 73.6185 31.2075C72.4675 31.2075 71.5765 30.798 70.9457 29.979C70.3148 29.16 69.9994 28.056 69.9994 26.667C69.9994 25.2282 70.3508 24.091 71.0536 23.2554C71.7619 22.4142 72.6501 21.9937 73.7181 21.9937C74.6699 21.9937 75.4751 22.2869 76.1337 22.8735V18.8311H77.6942V31H76.1337V29.9458ZM83.5878 21.9937C84.8439 21.9937 85.8456 22.3949 86.5926 23.1973C87.3452 23.9997 87.7215 25.1341 87.7215 26.6006C87.7215 28.0615 87.3452 29.196 86.5926 30.0039C85.8456 30.8063 84.8439 31.2075 83.5878 31.2075C82.3371 31.2075 81.3355 30.8063 80.5829 30.0039C79.8358 29.196 79.4623 28.0615 79.4623 26.6006C79.4623 25.1341 79.8358 23.9997 80.5829 23.1973C81.3355 22.3949 82.3371 21.9937 83.5878 21.9937ZM83.5878 29.979C84.3348 29.979 84.9408 29.6968 85.4056 29.1323C85.8705 28.5623 86.1029 27.7184 86.1029 26.6006C86.1029 25.4772 85.8705 24.6333 85.4056 24.0688C84.9408 23.4989 84.3348 23.2139 83.5878 23.2139C82.8407 23.2139 82.2347 23.4989 81.7699 24.0688C81.305 24.6333 81.0726 25.4772 81.0726 26.6006C81.0726 27.7184 81.305 28.5623 81.7699 29.1323C82.2347 29.6968 82.8407 29.979 83.5878 29.979ZM100.513 22.1929L97.8651 31H96.371L94.4618 24.5254L92.5609 31H91.0668L88.4105 22.1929H90.1454L91.764 28.9082L93.7479 22.1929H95.1756L97.1678 28.9082L98.7865 22.1929H100.513ZM104.912 31.2075C102.505 31.2075 101.246 30.2612 101.136 28.3687H102.704C102.716 29.4422 103.446 29.979 104.896 29.979C105.543 29.979 106.036 29.8462 106.373 29.5806C106.716 29.3094 106.888 28.9718 106.888 28.5679C106.888 28.1694 106.722 27.89 106.39 27.7295C106.058 27.5635 105.372 27.3504 104.331 27.0903C103.297 26.8302 102.538 26.5397 102.057 26.2188C101.581 25.8978 101.343 25.3333 101.343 24.5254C101.343 23.7949 101.639 23.1917 102.231 22.7158C102.829 22.2344 103.626 21.9937 104.622 21.9937C106.93 21.9937 108.108 22.8154 108.158 24.459H106.598C106.542 23.6289 105.92 23.2139 104.73 23.2139C104.204 23.2139 103.767 23.3135 103.418 23.5127C103.075 23.7119 102.904 24.0024 102.904 24.3843C102.904 24.7274 103.036 24.9764 103.302 25.1313C103.568 25.2808 104.232 25.4855 105.294 25.7456C106.362 26.0002 107.154 26.299 107.668 26.6421C108.189 26.9852 108.449 27.5773 108.449 28.4185C108.449 29.2209 108.128 29.8877 107.486 30.4189C106.849 30.9447 105.992 31.2075 104.912 31.2075ZM116.841 31H115.139V29.2983H116.841V31ZM123.257 31.2075C121.962 31.2075 120.922 30.8035 120.136 29.9956C119.35 29.1821 118.957 28.0505 118.957 26.6006C118.957 25.1618 119.336 24.0356 120.095 23.2222C120.858 22.4032 121.854 21.9937 123.083 21.9937C124.339 21.9937 125.341 22.3949 126.088 23.1973C126.84 23.9997 127.217 25.1341 127.217 26.6006V26.9741H120.584C120.651 27.9924 120.93 28.7477 121.423 29.2402C121.921 29.7327 122.532 29.979 123.257 29.979C123.805 29.979 124.298 29.8407 124.735 29.564C125.177 29.2817 125.41 28.8833 125.432 28.3687H127.051C126.929 29.2762 126.517 29.9762 125.814 30.4688C125.117 30.9613 124.264 31.2075 123.257 31.2075ZM125.565 25.7456C125.438 24.8989 125.153 24.2653 124.71 23.8447C124.267 23.4242 123.725 23.2139 123.083 23.2139C122.458 23.2139 121.921 23.4242 121.473 23.8447C121.024 24.2598 120.739 24.8934 120.618 25.7456H125.565ZM136.206 31H134.264L132.073 27.5635L129.881 31H127.939L131.193 26.4263L128.196 22.1929H130.139L132.073 25.2725L134.007 22.1929H135.949L132.952 26.4097L136.206 31ZM141.22 31.2075C139.925 31.2075 138.885 30.8035 138.099 29.9956C137.313 29.1821 136.92 28.0505 136.92 26.6006C136.92 25.1618 137.299 24.0356 138.057 23.2222C138.821 22.4032 139.817 21.9937 141.046 21.9937C142.302 21.9937 143.304 22.3949 144.051 23.1973C144.803 23.9997 145.18 25.1341 145.18 26.6006V26.9741H138.547C138.614 27.9924 138.893 28.7477 139.386 29.2402C139.884 29.7327 140.495 29.979 141.22 29.979C141.768 29.979 142.26 29.8407 142.698 29.564C143.14 29.2817 143.373 28.8833 143.395 28.3687H145.014C144.892 29.2762 144.48 29.9762 143.777 30.4688C143.079 30.9613 142.227 31.2075 141.22 31.2075ZM143.528 25.7456C143.4 24.8989 143.115 24.2653 142.673 23.8447C142.23 23.4242 141.688 23.2139 141.046 23.2139C140.42 23.2139 139.884 23.4242 139.435 23.8447C138.987 24.2598 138.702 24.8934 138.58 25.7456H143.528Z" fill="white"/>
</svg>
