<svg width="328" height="328" xmlns="http://www.w3.org/2000/svg" xmlns:xlink="http://www.w3.org/1999/xlink"><path fill="#fff" d="M0 0h328v328H0z"/><defs><path id="a" d="M0 0h8v8H0z"/></defs><use xlink:href="#a" x="32" y="32"/><use xlink:href="#a" x="32" y="40"/><use xlink:href="#a" x="32" y="48"/><use xlink:href="#a" x="32" y="56"/><use xlink:href="#a" x="32" y="64"/><use xlink:href="#a" x="32" y="72"/><use xlink:href="#a" x="32" y="80"/><use xlink:href="#a" x="32" y="96"/><use xlink:href="#a" x="32" y="104"/><use xlink:href="#a" x="32" y="136"/><use xlink:href="#a" x="32" y="152"/><use xlink:href="#a" x="32" y="168"/><use xlink:href="#a" x="32" y="176"/><use xlink:href="#a" x="32" y="240"/><use xlink:href="#a" x="32" y="248"/><use xlink:href="#a" x="32" y="256"/><use xlink:href="#a" x="32" y="264"/><use xlink:href="#a" x="32" y="272"/><use xlink:href="#a" x="32" y="280"/><use xlink:href="#a" x="32" y="288"/><use xlink:href="#a" x="40" y="32"/><use xlink:href="#a" x="40" y="80"/><use xlink:href="#a" x="40" y="96"/><use xlink:href="#a" x="40" y="104"/><use xlink:href="#a" x="40" y="128"/><use xlink:href="#a" x="40" y="136"/><use xlink:href="#a" x="40" y="144"/><use xlink:href="#a" x="40" y="160"/><use xlink:href="#a" x="40" y="168"/><use xlink:href="#a" x="40" y="192"/><use xlink:href="#a" x="40" y="200"/><use xlink:href="#a" x="40" y="208"/><use xlink:href="#a" x="40" y="216"/><use xlink:href="#a" x="40" y="224"/><use xlink:href="#a" x="40" y="240"/><use xlink:href="#a" x="40" y="288"/><use xlink:href="#a" x="48" y="32"/><use xlink:href="#a" x="48" y="48"/><use xlink:href="#a" x="48" y="56"/><use xlink:href="#a" x="48" y="64"/><use xlink:href="#a" x="48" y="80"/><use xlink:href="#a" x="48" y="96"/><use xlink:href="#a" x="48" y="104"/><use xlink:href="#a" x="48" y="120"/><use xlink:href="#a" x="48" y="128"/><use xlink:href="#a" x="48" y="152"/><use xlink:href="#a" x="48" y="168"/><use xlink:href="#a" x="48" y="176"/><use xlink:href="#a" x="48" y="184"/><use xlink:href="#a" x="48" y="192"/><use xlink:href="#a" x="48" y="200"/><use xlink:href="#a" x="48" y="240"/><use xlink:href="#a" x="48" y="256"/><use xlink:href="#a" x="48" y="264"/><use xlink:href="#a" x="48" y="272"/><use xlink:href="#a" x="48" y="288"/><use xlink:href="#a" x="56" y="32"/><use xlink:href="#a" x="56" y="48"/><use xlink:href="#a" x="56" y="56"/><use xlink:href="#a" x="56" y="64"/><use xlink:href="#a" x="56" y="80"/><use xlink:href="#a" x="56" y="96"/><use xlink:href="#a" x="56" y="112"/><use xlink:href="#a" x="56" y="152"/><use xlink:href="#a" x="56" y="160"/><use xlink:href="#a" x="56" y="168"/><use xlink:href="#a" x="56" y="176"/><use xlink:href="#a" x="56" y="184"/><use xlink:href="#a" x="56" y="200"/><use xlink:href="#a" x="56" y="208"/><use xlink:href="#a" x="56" y="216"/><use xlink:href="#a" x="56" y="240"/><use xlink:href="#a" x="56" y="256"/><use xlink:href="#a" x="56" y="264"/><use xlink:href="#a" x="56" y="272"/><use xlink:href="#a" x="56" y="288"/><use xlink:href="#a" x="64" y="32"/><use xlink:href="#a" x="64" y="48"/><use xlink:href="#a" x="64" y="56"/><use xlink:href="#a" x="64" y="64"/><use xlink:href="#a" x="64" y="80"/><use xlink:href="#a" x="64" y="96"/><use xlink:href="#a" x="64" y="128"/><use xlink:href="#a" x="64" y="136"/><use xlink:href="#a" x="64" y="144"/><use xlink:href="#a" x="64" y="160"/><use xlink:href="#a" x="64" y="168"/><use xlink:href="#a" x="64" y="176"/><use xlink:href="#a" x="64" y="192"/><use xlink:href="#a" x="64" y="200"/><use xlink:href="#a" x="64" y="216"/><use xlink:href="#a" x="64" y="240"/><use xlink:href="#a" x="64" y="256"/><use xlink:href="#a" x="64" y="264"/><use xlink:href="#a" x="64" y="272"/><use xlink:href="#a" x="64" y="288"/><use xlink:href="#a" x="72" y="32"/><use xlink:href="#a" x="72" y="80"/><use xlink:href="#a" x="72" y="104"/><use xlink:href="#a" x="72" y="112"/><use xlink:href="#a" x="72" y="120"/><use xlink:href="#a" x="72" y="128"/><use xlink:href="#a" x="72" y="136"/><use xlink:href="#a" x="72" y="152"/><use xlink:href="#a" x="72" y="160"/><use xlink:href="#a" x="72" y="168"/><use xlink:href="#a" x="72" y="184"/><use xlink:href="#a" x="72" y="208"/><use xlink:href="#a" x="72" y="224"/><use xlink:href="#a" x="72" y="240"/><use xlink:href="#a" x="72" y="288"/><use xlink:href="#a" x="80" y="32"/><use xlink:href="#a" x="80" y="40"/><use xlink:href="#a" x="80" y="48"/><use xlink:href="#a" x="80" y="56"/><use xlink:href="#a" x="80" y="64"/><use xlink:href="#a" x="80" y="72"/><use xlink:href="#a" x="80" y="80"/><use xlink:href="#a" x="80" y="96"/><use xlink:href="#a" x="80" y="112"/><use xlink:href="#a" x="80" y="128"/><use xlink:href="#a" x="80" y="144"/><use xlink:href="#a" x="80" y="160"/><use xlink:href="#a" x="80" y="176"/><use xlink:href="#a" x="80" y="192"/><use xlink:href="#a" x="80" y="208"/><use xlink:href="#a" x="80" y="224"/><use xlink:href="#a" x="80" y="240"/><use xlink:href="#a" x="80" y="248"/><use xlink:href="#a" x="80" y="256"/><use xlink:href="#a" x="80" y="264"/><use xlink:href="#a" x="80" y="272"/><use xlink:href="#a" x="80" y="280"/><use xlink:href="#a" x="80" y="288"/><use xlink:href="#a" x="88" y="96"/><use xlink:href="#a" x="88" y="104"/><use xlink:href="#a" x="88" y="152"/><use xlink:href="#a" x="88" y="176"/><use xlink:href="#a" x="88" y="192"/><use xlink:href="#a" x="88" y="200"/><use xlink:href="#a" x="88" y="216"/><use xlink:href="#a" x="96" y="40"/><use xlink:href="#a" x="96" y="56"/><use xlink:href="#a" x="96" y="72"/><use xlink:href="#a" x="96" y="80"/><use xlink:href="#a" x="96" y="96"/><use xlink:href="#a" x="96" y="112"/><use xlink:href="#a" x="96" y="120"/><use xlink:href="#a" x="96" y="144"/><use xlink:href="#a" x="96" y="160"/><use xlink:href="#a" x="96" y="176"/><use xlink:href="#a" x="96" y="200"/><use xlink:href="#a" x="96" y="224"/><use xlink:href="#a" x="96" y="232"/><use xlink:href="#a" x="96" y="240"/><use xlink:href="#a" x="96" y="256"/><use xlink:href="#a" x="96" y="264"/><use xlink:href="#a" x="96" y="272"/><use xlink:href="#a" x="96" y="280"/><use xlink:href="#a" x="96" y="288"/><use xlink:href="#a" x="104" y="40"/><use xlink:href="#a" x="104" y="48"/><use xlink:href="#a" x="104" y="64"/><use xlink:href="#a" x="104" y="72"/><use xlink:href="#a" x="104" y="88"/><use xlink:href="#a" x="104" y="120"/><use xlink:href="#a" x="104" y="128"/><use xlink:href="#a" x="104" y="144"/><use xlink:href="#a" x="104" y="152"/><use xlink:href="#a" x="104" y="160"/><use xlink:href="#a" x="104" y="168"/><use xlink:href="#a" x="104" y="176"/><use xlink:href="#a" x="104" y="200"/><use xlink:href="#a" x="104" y="208"/><use xlink:href="#a" x="104" y="240"/><use xlink:href="#a" x="104" y="248"/><use xlink:href="#a" x="104" y="272"/><use xlink:href="#a" x="104" y="288"/><use xlink:href="#a" x="112" y="32"/><use xlink:href="#a" x="112" y="40"/><use xlink:href="#a" x="112" y="48"/><use xlink:href="#a" x="112" y="56"/><use xlink:href="#a" x="112" y="72"/><use xlink:href="#a" x="112" y="80"/><use xlink:href="#a" x="112" y="88"/><use xlink:href="#a" x="112" y="96"/><use xlink:href="#a" x="112" y="112"/><use xlink:href="#a" x="112" y="144"/><use xlink:href="#a" x="112" y="160"/><use xlink:href="#a" x="112" y="176"/><use xlink:href="#a" x="112" y="192"/><use xlink:href="#a" x="112" y="248"/><use xlink:href="#a" x="112" y="256"/><use xlink:href="#a" x="112" y="264"/><use xlink:href="#a" x="112" y="272"/><use xlink:href="#a" x="112" y="280"/><use xlink:href="#a" x="120" y="32"/><use xlink:href="#a" x="120" y="56"/><use xlink:href="#a" x="120" y="64"/><use xlink:href="#a" x="120" y="96"/><use xlink:href="#a" x="120" y="104"/><use xlink:href="#a" x="120" y="120"/><use xlink:href="#a" x="120" y="136"/><use xlink:href="#a" x="120" y="168"/><use xlink:href="#a" x="120" y="184"/><use xlink:href="#a" x="120" y="200"/><use xlink:href="#a" x="120" y="232"/><use xlink:href="#a" x="120" y="264"/><use xlink:href="#a" x="128" y="32"/><use xlink:href="#a" x="128" y="40"/><use xlink:href="#a" x="128" y="56"/><use xlink:href="#a" x="128" y="72"/><use xlink:href="#a" x="128" y="80"/><use xlink:href="#a" x="128" y="88"/><use xlink:href="#a" x="128" y="96"/><use xlink:href="#a" x="128" y="112"/><use xlink:href="#a" x="128" y="128"/><use xlink:href="#a" x="128" y="136"/><use xlink:href="#a" x="128" y="168"/><use xlink:href="#a" x="128" y="176"/><use xlink:href="#a" x="128" y="184"/><use xlink:href="#a" x="128" y="224"/><use xlink:href="#a" x="128" y="240"/><use xlink:href="#a" x="128" y="256"/><use xlink:href="#a" x="128" y="280"/><use xlink:href="#a" x="128" y="288"/><use xlink:href="#a" x="136" y="40"/><use xlink:href="#a" x="136" y="56"/><use xlink:href="#a" x="136" y="64"/><use xlink:href="#a" x="136" y="72"/><use xlink:href="#a" x="136" y="96"/><use xlink:href="#a" x="136" y="104"/><use xlink:href="#a" x="136" y="128"/><use xlink:href="#a" x="136" y="160"/><use xlink:href="#a" x="136" y="192"/><use xlink:href="#a" x="136" y="224"/><use xlink:href="#a" x="136" y="256"/><use xlink:href="#a" x="136" y="272"/><use xlink:href="#a" x="136" y="288"/><use xlink:href="#a" x="144" y="32"/><use xlink:href="#a" x="144" y="48"/><use xlink:href="#a" x="144" y="72"/><use xlink:href="#a" x="144" y="80"/><use xlink:href="#a" x="144" y="96"/><use xlink:href="#a" x="144" y="112"/><use xlink:href="#a" x="144" y="120"/><use xlink:href="#a" x="144" y="128"/><use xlink:href="#a" x="144" y="144"/><use xlink:href="#a" x="144" y="152"/><use xlink:href="#a" x="144" y="160"/><use xlink:href="#a" x="144" y="168"/><use xlink:href="#a" x="144" y="176"/><use xlink:href="#a" x="144" y="192"/><use xlink:href="#a" x="144" y="216"/><use xlink:href="#a" x="144" y="224"/><use xlink:href="#a" x="144" y="232"/><use xlink:href="#a" x="144" y="240"/><use xlink:href="#a" x="144" y="256"/><use xlink:href="#a" x="144" y="264"/><use xlink:href="#a" x="144" y="288"/><use xlink:href="#a" x="152" y="40"/><use xlink:href="#a" x="152" y="48"/><use xlink:href="#a" x="152" y="56"/><use xlink:href="#a" x="152" y="72"/><use xlink:href="#a" x="152" y="88"/><use xlink:href="#a" x="152" y="96"/><use xlink:href="#a" x="152" y="112"/><use xlink:href="#a" x="152" y="144"/><use xlink:href="#a" x="152" y="152"/><use xlink:href="#a" x="152" y="160"/><use xlink:href="#a" x="152" y="176"/><use xlink:href="#a" x="152" y="184"/><use xlink:href="#a" x="152" y="192"/><use xlink:href="#a" x="152" y="208"/><use xlink:href="#a" x="152" y="216"/><use xlink:href="#a" x="152" y="224"/><use xlink:href="#a" x="152" y="240"/><use xlink:href="#a" x="152" y="248"/><use xlink:href="#a" x="152" y="256"/><use xlink:href="#a" x="152" y="272"/><use xlink:href="#a" x="152" y="280"/><use xlink:href="#a" x="152" y="288"/><use xlink:href="#a" x="160" y="32"/><use xlink:href="#a" x="160" y="40"/><use xlink:href="#a" x="160" y="48"/><use xlink:href="#a" x="160" y="64"/><use xlink:href="#a" x="160" y="80"/><use xlink:href="#a" x="160" y="88"/><use xlink:href="#a" x="160" y="96"/><use xlink:href="#a" x="160" y="104"/><use xlink:href="#a" x="160" y="112"/><use xlink:href="#a" x="160" y="120"/><use xlink:href="#a" x="160" y="136"/><use xlink:href="#a" x="160" y="144"/><use xlink:href="#a" x="160" y="152"/><use xlink:href="#a" x="160" y="160"/><use xlink:href="#a" x="160" y="168"/><use xlink:href="#a" x="160" y="176"/><use xlink:href="#a" x="160" y="192"/><use xlink:href="#a" x="160" y="200"/><use xlink:href="#a" x="160" y="208"/><use xlink:href="#a" x="160" y="232"/><use xlink:href="#a" x="160" y="248"/><use xlink:href="#a" x="160" y="256"/><use xlink:href="#a" x="160" y="264"/><use xlink:href="#a" x="160" y="272"/><use xlink:href="#a" x="160" y="280"/><use xlink:href="#a" x="168" y="32"/><use xlink:href="#a" x="168" y="56"/><use xlink:href="#a" x="168" y="96"/><use xlink:href="#a" x="168" y="104"/><use xlink:href="#a" x="168" y="128"/><use xlink:href="#a" x="168" y="136"/><use xlink:href="#a" x="168" y="144"/><use xlink:href="#a" x="168" y="160"/><use xlink:href="#a" x="168" y="192"/><use xlink:href="#a" x="168" y="224"/><use xlink:href="#a" x="168" y="232"/><use xlink:href="#a" x="168" y="240"/><use xlink:href="#a" x="168" y="256"/><use xlink:href="#a" x="168" y="264"/><use xlink:href="#a" x="168" y="288"/><use xlink:href="#a" x="176" y="32"/><use xlink:href="#a" x="176" y="40"/><use xlink:href="#a" x="176" y="64"/><use xlink:href="#a" x="176" y="80"/><use xlink:href="#a" x="176" y="88"/><use xlink:href="#a" x="176" y="96"/><use xlink:href="#a" x="176" y="136"/><use xlink:href="#a" x="176" y="152"/><use xlink:href="#a" x="176" y="168"/><use xlink:href="#a" x="176" y="216"/><use xlink:href="#a" x="176" y="224"/><use xlink:href="#a" x="176" y="232"/><use xlink:href="#a" x="176" y="248"/><use xlink:href="#a" x="176" y="264"/><use xlink:href="#a" x="184" y="32"/><use xlink:href="#a" x="184" y="48"/><use xlink:href="#a" x="184" y="56"/><use xlink:href="#a" x="184" y="64"/><use xlink:href="#a" x="184" y="88"/><use xlink:href="#a" x="184" y="104"/><use xlink:href="#a" x="184" y="128"/><use xlink:href="#a" x="184" y="136"/><use xlink:href="#a" x="184" y="160"/><use xlink:href="#a" x="184" y="168"/><use xlink:href="#a" x="184" y="200"/><use xlink:href="#a" x="184" y="232"/><use xlink:href="#a" x="184" y="264"/><use xlink:href="#a" x="192" y="32"/><use xlink:href="#a" x="192" y="40"/><use xlink:href="#a" x="192" y="48"/><use xlink:href="#a" x="192" y="56"/><use xlink:href="#a" x="192" y="72"/><use xlink:href="#a" x="192" y="80"/><use xlink:href="#a" x="192" y="96"/><use xlink:href="#a" x="192" y="104"/><use xlink:href="#a" x="192" y="120"/><use xlink:href="#a" x="192" y="136"/><use xlink:href="#a" x="192" y="144"/><use xlink:href="#a" x="192" y="168"/><use xlink:href="#a" x="192" y="176"/><use xlink:href="#a" x="192" y="200"/><use xlink:href="#a" x="192" y="216"/><use xlink:href="#a" x="192" y="224"/><use xlink:href="#a" x="192" y="232"/><use xlink:href="#a" x="192" y="240"/><use xlink:href="#a" x="192" y="248"/><use xlink:href="#a" x="192" y="264"/><use xlink:href="#a" x="192" y="280"/><use xlink:href="#a" x="200" y="32"/><use xlink:href="#a" x="200" y="48"/><use xlink:href="#a" x="200" y="64"/><use xlink:href="#a" x="200" y="72"/><use xlink:href="#a" x="200" y="88"/><use xlink:href="#a" x="200" y="120"/><use xlink:href="#a" x="200" y="136"/><use xlink:href="#a" x="200" y="144"/><use xlink:href="#a" x="200" y="152"/><use xlink:href="#a" x="200" y="168"/><use xlink:href="#a" x="200" y="176"/><use xlink:href="#a" x="200" y="184"/><use xlink:href="#a" x="200" y="200"/><use xlink:href="#a" x="200" y="208"/><use xlink:href="#a" x="200" y="216"/><use xlink:href="#a" x="200" y="232"/><use xlink:href="#a" x="200" y="248"/><use xlink:href="#a" x="200" y="280"/><use xlink:href="#a" x="208" y="32"/><use xlink:href="#a" x="208" y="56"/><use xlink:href="#a" x="208" y="72"/><use xlink:href="#a" x="208" y="80"/><use xlink:href="#a" x="208" y="88"/><use xlink:href="#a" x="208" y="112"/><use xlink:href="#a" x="208" y="120"/><use xlink:href="#a" x="208" y="128"/><use xlink:href="#a" x="208" y="152"/><use xlink:href="#a" x="208" y="160"/><use xlink:href="#a" x="208" y="168"/><use xlink:href="#a" x="208" y="192"/><use xlink:href="#a" x="208" y="200"/><use xlink:href="#a" x="208" y="224"/><use xlink:href="#a" x="208" y="232"/><use xlink:href="#a" x="208" y="248"/><use xlink:href="#a" x="208" y="272"/><use xlink:href="#a" x="208" y="280"/><use xlink:href="#a" x="208" y="288"/><use xlink:href="#a" x="216" y="32"/><use xlink:href="#a" x="216" y="48"/><use xlink:href="#a" x="216" y="56"/><use xlink:href="#a" x="216" y="64"/><use xlink:href="#a" x="216" y="104"/><use xlink:href="#a" x="216" y="120"/><use xlink:href="#a" x="216" y="136"/><use xlink:href="#a" x="216" y="152"/><use xlink:href="#a" x="216" y="160"/><use xlink:href="#a" x="216" y="168"/><use xlink:href="#a" x="216" y="192"/><use xlink:href="#a" x="216" y="200"/><use xlink:href="#a" x="216" y="216"/><use xlink:href="#a" x="216" y="224"/><use xlink:href="#a" x="216" y="240"/><use xlink:href="#a" x="216" y="248"/><use xlink:href="#a" x="216" y="264"/><use xlink:href="#a" x="216" y="288"/><use xlink:href="#a" x="224" y="56"/><use xlink:href="#a" x="224" y="72"/><use xlink:href="#a" x="224" y="80"/><use xlink:href="#a" x="224" y="120"/><use xlink:href="#a" x="224" y="160"/><use xlink:href="#a" x="224" y="168"/><use xlink:href="#a" x="224" y="192"/><use xlink:href="#a" x="224" y="224"/><use xlink:href="#a" x="224" y="232"/><use xlink:href="#a" x="224" y="240"/><use xlink:href="#a" x="224" y="248"/><use xlink:href="#a" x="224" y="256"/><use xlink:href="#a" x="224" y="272"/><use xlink:href="#a" x="224" y="288"/><use xlink:href="#a" x="232" y="96"/><use xlink:href="#a" x="232" y="112"/><use xlink:href="#a" x="232" y="120"/><use xlink:href="#a" x="232" y="128"/><use xlink:href="#a" x="232" y="144"/><use xlink:href="#a" x="232" y="152"/><use xlink:href="#a" x="232" y="160"/><use xlink:href="#a" x="232" y="176"/><use xlink:href="#a" x="232" y="192"/><use xlink:href="#a" x="232" y="208"/><use xlink:href="#a" x="232" y="216"/><use xlink:href="#a" x="232" y="224"/><use xlink:href="#a" x="232" y="256"/><use xlink:href="#a" x="232" y="280"/><use xlink:href="#a" x="240" y="32"/><use xlink:href="#a" x="240" y="40"/><use xlink:href="#a" x="240" y="48"/><use xlink:href="#a" x="240" y="56"/><use xlink:href="#a" x="240" y="64"/><use xlink:href="#a" x="240" y="72"/><use xlink:href="#a" x="240" y="80"/><use xlink:href="#a" x="240" y="104"/><use xlink:href="#a" x="240" y="112"/><use xlink:href="#a" x="240" y="120"/><use xlink:href="#a" x="240" y="136"/><use xlink:href="#a" x="240" y="152"/><use xlink:href="#a" x="240" y="168"/><use xlink:href="#a" x="240" y="176"/><use xlink:href="#a" x="240" y="200"/><use xlink:href="#a" x="240" y="224"/><use xlink:href="#a" x="240" y="240"/><use xlink:href="#a" x="240" y="256"/><use xlink:href="#a" x="240" y="272"/><use xlink:href="#a" x="240" y="280"/><use xlink:href="#a" x="240" y="288"/><use xlink:href="#a" x="248" y="32"/><use xlink:href="#a" x="248" y="80"/><use xlink:href="#a" x="248" y="96"/><use xlink:href="#a" x="248" y="128"/><use xlink:href="#a" x="248" y="160"/><use xlink:href="#a" x="248" y="176"/><use xlink:href="#a" x="248" y="192"/><use xlink:href="#a" x="248" y="200"/><use xlink:href="#a" x="248" y="216"/><use xlink:href="#a" x="248" y="224"/><use xlink:href="#a" x="248" y="256"/><use xlink:href="#a" x="248" y="288"/><use xlink:href="#a" x="256" y="32"/><use xlink:href="#a" x="256" y="48"/><use xlink:href="#a" x="256" y="56"/><use xlink:href="#a" x="256" y="64"/><use xlink:href="#a" x="256" y="80"/><use xlink:href="#a" x="256" y="112"/><use xlink:href="#a" x="256" y="120"/><use xlink:href="#a" x="256" y="128"/><use xlink:href="#a" x="256" y="144"/><use xlink:href="#a" x="256" y="160"/><use xlink:href="#a" x="256" y="176"/><use xlink:href="#a" x="256" y="184"/><use xlink:href="#a" x="256" y="192"/><use xlink:href="#a" x="256" y="216"/><use xlink:href="#a" x="256" y="224"/><use xlink:href="#a" x="256" y="232"/><use xlink:href="#a" x="256" y="240"/><use xlink:href="#a" x="256" y="248"/><use xlink:href="#a" x="256" y="256"/><use xlink:href="#a" x="256" y="264"/><use xlink:href="#a" x="264" y="32"/><use xlink:href="#a" x="264" y="48"/><use xlink:href="#a" x="264" y="56"/><use xlink:href="#a" x="264" y="64"/><use xlink:href="#a" x="264" y="80"/><use xlink:href="#a" x="264" y="96"/><use xlink:href="#a" x="264" y="112"/><use xlink:href="#a" x="264" y="128"/><use xlink:href="#a" x="264" y="168"/><use xlink:href="#a" x="264" y="176"/><use xlink:href="#a" x="264" y="200"/><use xlink:href="#a" x="264" y="208"/><use xlink:href="#a" x="264" y="216"/><use xlink:href="#a" x="264" y="224"/><use xlink:href="#a" x="264" y="248"/><use xlink:href="#a" x="264" y="264"/><use xlink:href="#a" x="264" y="280"/><use xlink:href="#a" x="272" y="32"/><use xlink:href="#a" x="272" y="48"/><use xlink:href="#a" x="272" y="56"/><use xlink:href="#a" x="272" y="64"/><use xlink:href="#a" x="272" y="80"/><use xlink:href="#a" x="272" y="104"/><use xlink:href="#a" x="272" y="120"/><use xlink:href="#a" x="272" y="152"/><use xlink:href="#a" x="272" y="184"/><use xlink:href="#a" x="272" y="216"/><use xlink:href="#a" x="272" y="232"/><use xlink:href="#a" x="272" y="240"/><use xlink:href="#a" x="272" y="248"/><use xlink:href="#a" x="272" y="272"/><use xlink:href="#a" x="272" y="280"/><use xlink:href="#a" x="280" y="32"/><use xlink:href="#a" x="280" y="80"/><use xlink:href="#a" x="280" y="96"/><use xlink:href="#a" x="280" y="104"/><use xlink:href="#a" x="280" y="112"/><use xlink:href="#a" x="280" y="136"/><use xlink:href="#a" x="280" y="144"/><use xlink:href="#a" x="280" y="160"/><use xlink:href="#a" x="280" y="168"/><use xlink:href="#a" x="280" y="176"/><use xlink:href="#a" x="280" y="192"/><use xlink:href="#a" x="280" y="200"/><use xlink:href="#a" x="280" y="208"/><use xlink:href="#a" x="280" y="240"/><use xlink:href="#a" x="280" y="256"/><use xlink:href="#a" x="280" y="272"/><use xlink:href="#a" x="280" y="288"/><use xlink:href="#a" x="288" y="32"/><use xlink:href="#a" x="288" y="40"/><use xlink:href="#a" x="288" y="48"/><use xlink:href="#a" x="288" y="56"/><use xlink:href="#a" x="288" y="64"/><use xlink:href="#a" x="288" y="72"/><use xlink:href="#a" x="288" y="80"/><use xlink:href="#a" x="288" y="104"/><use xlink:href="#a" x="288" y="136"/><use xlink:href="#a" x="288" y="168"/><use xlink:href="#a" x="288" y="200"/><use xlink:href="#a" x="288" y="224"/><use xlink:href="#a" x="288" y="232"/><use xlink:href="#a" x="288" y="248"/><use xlink:href="#a" x="288" y="256"/></svg>