<svg width="137" height="40" fill="none" xmlns="http://www.w3.org/2000/svg"><rect width="137" height="40" rx="4" fill="#0E0E0E"/><g clip-path="url(#a)"><path d="m21.226 20.553-10.861 11.03c.471.273.988.417 1.508.417a3 3 0 0 0 1.47-.389l12.318-6.903-4.435-4.155Z" fill="#F93647"/><path d="m29.597 17.496-3.452-1.934-3.878 3.937 4.753 4.452 2.578-1.445c.928-.523 1.484-1.459 1.484-2.506a2.848 2.848 0 0 0-1.485-2.504Z" fill="#FFC801"/><path d="M13.338 8.384a2.962 2.962 0 0 0-2.93.008l10.771 10.09 3.619-3.675-11.46-6.423Z" fill="#00EF77"/><path d="M9.329 9.418a2.83 2.83 0 0 0-.414 1.466v18.224c0 .513.138 1.002.386 1.43l10.831-11L9.33 9.418Z" fill="#00D3FF"/></g><path d="M44.905 13.082h-.027c-.078.294-.27.54-.576.738-.3.192-.69.288-1.17.288-.384 0-.738-.069-1.062-.207a2.304 2.304 0 0 1-.82-.621 3.093 3.093 0 0 1-.54-1.017 4.761 4.761 0 0 1-.188-1.404c0-.522.063-.984.189-1.386.126-.408.306-.747.54-1.017.234-.276.516-.486.846-.63.33-.144.696-.216 1.098-.216.564 0 1.035.126 1.413.378.378.252.669.585.873.999l-.621.378a1.76 1.76 0 0 0-.648-.792c-.282-.192-.621-.288-1.017-.288a1.83 1.83 0 0 0-.756.153 1.712 1.712 0 0 0-.594.414c-.162.18-.288.396-.378.648-.09.252-.135.534-.135.846v1.017c0 .312.045.597.135.855.09.252.216.468.378.648.168.18.372.321.612.423.24.096.51.144.81.144.216 0 .42-.027.612-.081.198-.06.369-.147.513-.261.15-.114.267-.255.35-.423.085-.174.127-.378.127-.612v-.621h-1.386v-.666h2.124V14h-.702v-.918Zm2.19.918V7.718h3.834v.666H47.85v2.106h2.898v.666H47.85v2.178h3.078V14h-3.834Zm7.362-5.616V14H53.7V8.384h-1.998v-.666h4.752v.666h-1.998ZM59.322 14v-.63h.882V8.348h-.882v-.63h2.52v.63h-.882v5.022h.882V14h-2.52Zm5.954-5.616V14h-.756V8.384h-1.998v-.666h4.752v.666h-1.998Zm7.511 5.724c-.408 0-.777-.069-1.107-.207a2.368 2.368 0 0 1-.837-.621 2.973 2.973 0 0 1-.53-1.017 4.761 4.761 0 0 1-.19-1.404c0-.528.063-.993.19-1.395.125-.402.302-.741.53-1.017.234-.276.513-.483.837-.621a2.74 2.74 0 0 1 1.107-.216c.402 0 .768.072 1.098.216.33.138.61.345.837.621.234.276.414.615.54 1.017.126.402.19.867.19 1.395s-.064.996-.19 1.404a2.886 2.886 0 0 1-.54 1.017c-.228.27-.507.477-.837.621a2.82 2.82 0 0 1-1.098.207Zm0-.675c.27 0 .52-.048.747-.144.228-.096.423-.234.585-.414.168-.18.297-.396.387-.648.09-.252.135-.534.135-.846v-1.044c0-.312-.045-.594-.135-.846a1.847 1.847 0 0 0-.387-.648 1.625 1.625 0 0 0-.585-.414 1.906 1.906 0 0 0-.747-.144c-.27 0-.519.048-.747.144a1.712 1.712 0 0 0-.594.414c-.162.18-.288.396-.378.648-.09.252-.135.534-.135.846v1.044c0 .312.045.594.135.846.09.252.216.468.378.648.168.18.366.318.594.414.228.096.477.144.747.144Zm5.544-3.267-.756-1.395h-.027V14h-.738V7.718h.873l2.295 3.834.757 1.395h.026V7.718h.738V14h-.873l-2.295-3.834Z" fill="#fff"/><mask id="b" maskUnits="userSpaceOnUse" x="39" y="17" width="90" height="18" fill="#000"><path fill="#fff" d="M39 17h90v18H39z"/><path d="M52.308 24.851c0 1.7-.505 3.054-1.513 4.063-1.134 1.201-2.624 1.802-4.471 1.802-1.768 0-3.264-.612-4.488-1.836C40.612 27.656 40 26.149 40 24.358c0-1.79.612-3.298 1.836-4.522C43.06 18.612 44.556 18 46.324 18c.895 0 1.74.159 2.533.476.793.317 1.445.765 1.955 1.343l-1.122 1.122c-.374-.453-.861-.805-1.462-1.054a4.653 4.653 0 0 0-1.904-.391c-1.326 0-2.448.459-3.366 1.377-.907.93-1.36 2.091-1.36 3.485 0 1.394.453 2.556 1.36 3.485.918.918 2.04 1.377 3.366 1.377 1.212 0 2.221-.34 3.026-1.02.804-.68 1.27-1.615 1.394-2.805h-4.42v-1.462h5.899c.056.317.085.623.085.918ZM53.377 26.279c0-1.28.402-2.34 1.207-3.179.816-.839 1.842-1.258 3.077-1.258 1.235 0 2.255.42 3.06 1.258.816.839 1.224 1.898 1.224 3.179 0 1.292-.408 2.352-1.224 3.179-.805.839-1.825 1.258-3.06 1.258s-2.26-.42-3.077-1.258c-.805-.839-1.207-1.898-1.207-3.179Zm1.564 0c0 .895.26 1.62.782 2.176a2.551 2.551 0 0 0 1.938.833c.77 0 1.417-.278 1.938-.833.521-.555.782-1.28.782-2.176 0-.884-.26-1.604-.782-2.159-.533-.567-1.179-.85-1.938-.85-.76 0-1.405.283-1.938.85-.521.555-.782 1.275-.782 2.159ZM62.89 26.279c0-1.28.402-2.34 1.207-3.179.816-.839 1.842-1.258 3.077-1.258 1.235 0 2.255.42 3.06 1.258.816.839 1.224 1.898 1.224 3.179 0 1.292-.408 2.352-1.224 3.179-.805.839-1.825 1.258-3.06 1.258-1.236 0-2.261-.42-3.077-1.258-.805-.839-1.207-1.898-1.207-3.179Zm1.564 0c0 .895.26 1.62.782 2.176a2.551 2.551 0 0 0 1.938.833c.77 0 1.416-.278 1.938-.833.521-.555.782-1.28.782-2.176 0-.884-.26-1.604-.782-2.159-.533-.567-1.179-.85-1.938-.85-.76 0-1.406.283-1.938.85-.522.555-.782 1.275-.782 2.159ZM76.618 29.288c.771 0 1.4-.278 1.888-.833.51-.555.764-1.28.764-2.176 0-.873-.254-1.592-.764-2.159a2.406 2.406 0 0 0-1.888-.85c-.747 0-1.376.283-1.886.85s-.766 1.286-.766 2.159c0 .884.256 1.604.766 2.159.51.567 1.139.85 1.886.85Zm-.05 5.1c-.465 0-.901-.062-1.31-.187a4.168 4.168 0 0 1-1.121-.493 3.664 3.664 0 0 1-.85-.765 3.224 3.224 0 0 1-.544-.986l1.479-.612c.17.487.464.878.884 1.173.419.295.906.442 1.462.442.85 0 1.513-.255 1.989-.765.475-.51.713-1.213.713-2.108v-.799h-.067a3.128 3.128 0 0 1-1.207 1.054 3.598 3.598 0 0 1-1.632.374c-1.089 0-2.023-.425-2.806-1.275-.77-.873-1.156-1.927-1.156-3.162 0-1.235.386-2.284 1.156-3.145.782-.861 1.717-1.292 2.805-1.292.59 0 1.134.13 1.633.391a3 3 0 0 1 1.207 1.037h.067v-1.156h1.496v7.973c0 1.337-.38 2.386-1.139 3.145-.77.77-1.79 1.156-3.06 1.156ZM84.237 18.272v12.172h-1.564V18.272h1.564ZM89.8 30.716c-1.224 0-2.233-.42-3.026-1.258-.793-.839-1.19-1.898-1.19-3.179 0-1.27.385-2.323 1.156-3.162.77-.85 1.757-1.275 2.958-1.275 1.236 0 2.216.402 2.941 1.207.737.793 1.105 1.91 1.105 3.349l-.017.17h-6.545c.023.816.295 1.473.816 1.972a2.61 2.61 0 0 0 1.87.748c.998 0 1.78-.499 2.346-1.496l1.394.68a4.136 4.136 0 0 1-1.564 1.649c-.657.397-1.405.595-2.244.595Zm-2.499-5.44h4.777a2.03 2.03 0 0 0-.714-1.428c-.42-.385-.986-.578-1.7-.578a2.3 2.3 0 0 0-1.53.544c-.42.363-.697.85-.833 1.462ZM100.746 25.514v4.93h-1.564V18.272h4.148c1.054 0 1.949.351 2.686 1.054.748.703 1.122 1.558 1.122 2.567 0 1.031-.374 1.893-1.122 2.584-.726.691-1.621 1.037-2.686 1.037h-2.584Zm0-5.746v4.25h2.618c.623 0 1.139-.21 1.547-.629.419-.42.629-.918.629-1.496 0-.567-.21-1.06-.629-1.479-.408-.43-.924-.646-1.547-.646h-2.618ZM110.152 18.272v12.172h-1.564V18.272h1.564ZM113.114 27.894c0 .408.17.748.51 1.02.351.272.759.408 1.224.408.657 0 1.241-.244 1.751-.731.521-.487.782-1.06.782-1.717-.487-.385-1.167-.578-2.04-.578-.635 0-1.167.153-1.598.459-.419.306-.629.686-.629 1.139Zm2.023-6.052c1.156 0 2.068.312 2.737.935.669.612 1.003 1.456 1.003 2.533v5.134h-1.496v-1.156h-.068c-.646.952-1.507 1.428-2.584 1.428-.918 0-1.689-.272-2.312-.816a2.616 2.616 0 0 1-.918-2.04c0-.861.323-1.547.969-2.057.657-.51 1.53-.765 2.618-.765.929 0 1.694.17 2.295.51v-.357c0-.544-.215-1.003-.646-1.377a2.198 2.198 0 0 0-1.513-.578c-.873 0-1.564.368-2.074 1.105l-1.377-.867c.759-1.088 1.881-1.632 3.366-1.632ZM127.921 22.114l-5.219 12.002h-1.615l1.938-4.199-3.434-7.803h1.7l2.482 5.984h.034l2.414-5.984h1.7Z"/></mask><path d="M52.308 24.851c0 1.7-.505 3.054-1.513 4.063-1.134 1.201-2.624 1.802-4.471 1.802-1.768 0-3.264-.612-4.488-1.836C40.612 27.656 40 26.149 40 24.358c0-1.79.612-3.298 1.836-4.522C43.06 18.612 44.556 18 46.324 18c.895 0 1.74.159 2.533.476.793.317 1.445.765 1.955 1.343l-1.122 1.122c-.374-.453-.861-.805-1.462-1.054a4.653 4.653 0 0 0-1.904-.391c-1.326 0-2.448.459-3.366 1.377-.907.93-1.36 2.091-1.36 3.485 0 1.394.453 2.556 1.36 3.485.918.918 2.04 1.377 3.366 1.377 1.212 0 2.221-.34 3.026-1.02.804-.68 1.27-1.615 1.394-2.805h-4.42v-1.462h5.899c.056.317.085.623.085.918ZM53.377 26.279c0-1.28.402-2.34 1.207-3.179.816-.839 1.842-1.258 3.077-1.258 1.235 0 2.255.42 3.06 1.258.816.839 1.224 1.898 1.224 3.179 0 1.292-.408 2.352-1.224 3.179-.805.839-1.825 1.258-3.06 1.258s-2.26-.42-3.077-1.258c-.805-.839-1.207-1.898-1.207-3.179Zm1.564 0c0 .895.26 1.62.782 2.176a2.551 2.551 0 0 0 1.938.833c.77 0 1.417-.278 1.938-.833.521-.555.782-1.28.782-2.176 0-.884-.26-1.604-.782-2.159-.533-.567-1.179-.85-1.938-.85-.76 0-1.405.283-1.938.85-.521.555-.782 1.275-.782 2.159ZM62.89 26.279c0-1.28.402-2.34 1.207-3.179.816-.839 1.842-1.258 3.077-1.258 1.235 0 2.255.42 3.06 1.258.816.839 1.224 1.898 1.224 3.179 0 1.292-.408 2.352-1.224 3.179-.805.839-1.825 1.258-3.06 1.258-1.236 0-2.261-.42-3.077-1.258-.805-.839-1.207-1.898-1.207-3.179Zm1.564 0c0 .895.26 1.62.782 2.176a2.551 2.551 0 0 0 1.938.833c.77 0 1.416-.278 1.938-.833.521-.555.782-1.28.782-2.176 0-.884-.26-1.604-.782-2.159-.533-.567-1.179-.85-1.938-.85-.76 0-1.406.283-1.938.85-.522.555-.782 1.275-.782 2.159ZM76.618 29.288c.771 0 1.4-.278 1.888-.833.51-.555.764-1.28.764-2.176 0-.873-.254-1.592-.764-2.159a2.406 2.406 0 0 0-1.888-.85c-.747 0-1.376.283-1.886.85s-.766 1.286-.766 2.159c0 .884.256 1.604.766 2.159.51.567 1.139.85 1.886.85Zm-.05 5.1c-.465 0-.901-.062-1.31-.187a4.168 4.168 0 0 1-1.121-.493 3.664 3.664 0 0 1-.85-.765 3.224 3.224 0 0 1-.544-.986l1.479-.612c.17.487.464.878.884 1.173.419.295.906.442 1.462.442.85 0 1.513-.255 1.989-.765.475-.51.713-1.213.713-2.108v-.799h-.067a3.128 3.128 0 0 1-1.207 1.054 3.598 3.598 0 0 1-1.632.374c-1.089 0-2.023-.425-2.806-1.275-.77-.873-1.156-1.927-1.156-3.162 0-1.235.386-2.284 1.156-3.145.782-.861 1.717-1.292 2.805-1.292.59 0 1.134.13 1.633.391a3 3 0 0 1 1.207 1.037h.067v-1.156h1.496v7.973c0 1.337-.38 2.386-1.139 3.145-.77.77-1.79 1.156-3.06 1.156ZM84.237 18.272v12.172h-1.564V18.272h1.564ZM89.8 30.716c-1.224 0-2.233-.42-3.026-1.258-.793-.839-1.19-1.898-1.19-3.179 0-1.27.385-2.323 1.156-3.162.77-.85 1.757-1.275 2.958-1.275 1.236 0 2.216.402 2.941 1.207.737.793 1.105 1.91 1.105 3.349l-.017.17h-6.545c.023.816.295 1.473.816 1.972a2.61 2.61 0 0 0 1.87.748c.998 0 1.78-.499 2.346-1.496l1.394.68a4.136 4.136 0 0 1-1.564 1.649c-.657.397-1.405.595-2.244.595Zm-2.499-5.44h4.777a2.03 2.03 0 0 0-.714-1.428c-.42-.385-.986-.578-1.7-.578a2.3 2.3 0 0 0-1.53.544c-.42.363-.697.85-.833 1.462ZM100.746 25.514v4.93h-1.564V18.272h4.148c1.054 0 1.949.351 2.686 1.054.748.703 1.122 1.558 1.122 2.567 0 1.031-.374 1.893-1.122 2.584-.726.691-1.621 1.037-2.686 1.037h-2.584Zm0-5.746v4.25h2.618c.623 0 1.139-.21 1.547-.629.419-.42.629-.918.629-1.496 0-.567-.21-1.06-.629-1.479-.408-.43-.924-.646-1.547-.646h-2.618ZM110.152 18.272v12.172h-1.564V18.272h1.564ZM113.114 27.894c0 .408.17.748.51 1.02.351.272.759.408 1.224.408.657 0 1.241-.244 1.751-.731.521-.487.782-1.06.782-1.717-.487-.385-1.167-.578-2.04-.578-.635 0-1.167.153-1.598.459-.419.306-.629.686-.629 1.139Zm2.023-6.052c1.156 0 2.068.312 2.737.935.669.612 1.003 1.456 1.003 2.533v5.134h-1.496v-1.156h-.068c-.646.952-1.507 1.428-2.584 1.428-.918 0-1.689-.272-2.312-.816a2.616 2.616 0 0 1-.918-2.04c0-.861.323-1.547.969-2.057.657-.51 1.53-.765 2.618-.765.929 0 1.694.17 2.295.51v-.357c0-.544-.215-1.003-.646-1.377a2.198 2.198 0 0 0-1.513-.578c-.873 0-1.564.368-2.074 1.105l-1.377-.867c.759-1.088 1.881-1.632 3.366-1.632ZM127.921 22.114l-5.219 12.002h-1.615l1.938-4.199-3.434-7.803h1.7l2.482 5.984h.034l2.414-5.984h1.7Z" fill="#fff"/><path d="M52.308 24.851c0 1.7-.505 3.054-1.513 4.063-1.134 1.201-2.624 1.802-4.471 1.802-1.768 0-3.264-.612-4.488-1.836C40.612 27.656 40 26.149 40 24.358c0-1.79.612-3.298 1.836-4.522C43.06 18.612 44.556 18 46.324 18c.895 0 1.74.159 2.533.476.793.317 1.445.765 1.955 1.343l-1.122 1.122c-.374-.453-.861-.805-1.462-1.054a4.653 4.653 0 0 0-1.904-.391c-1.326 0-2.448.459-3.366 1.377-.907.93-1.36 2.091-1.36 3.485 0 1.394.453 2.556 1.36 3.485.918.918 2.04 1.377 3.366 1.377 1.212 0 2.221-.34 3.026-1.02.804-.68 1.27-1.615 1.394-2.805h-4.42v-1.462h5.899c.056.317.085.623.085.918ZM53.377 26.279c0-1.28.402-2.34 1.207-3.179.816-.839 1.842-1.258 3.077-1.258 1.235 0 2.255.42 3.06 1.258.816.839 1.224 1.898 1.224 3.179 0 1.292-.408 2.352-1.224 3.179-.805.839-1.825 1.258-3.06 1.258s-2.26-.42-3.077-1.258c-.805-.839-1.207-1.898-1.207-3.179Zm1.564 0c0 .895.26 1.62.782 2.176a2.551 2.551 0 0 0 1.938.833c.77 0 1.417-.278 1.938-.833.521-.555.782-1.28.782-2.176 0-.884-.26-1.604-.782-2.159-.533-.567-1.179-.85-1.938-.85-.76 0-1.405.283-1.938.85-.521.555-.782 1.275-.782 2.159ZM62.89 26.279c0-1.28.402-2.34 1.207-3.179.816-.839 1.842-1.258 3.077-1.258 1.235 0 2.255.42 3.06 1.258.816.839 1.224 1.898 1.224 3.179 0 1.292-.408 2.352-1.224 3.179-.805.839-1.825 1.258-3.06 1.258-1.236 0-2.261-.42-3.077-1.258-.805-.839-1.207-1.898-1.207-3.179Zm1.564 0c0 .895.26 1.62.782 2.176a2.551 2.551 0 0 0 1.938.833c.77 0 1.416-.278 1.938-.833.521-.555.782-1.28.782-2.176 0-.884-.26-1.604-.782-2.159-.533-.567-1.179-.85-1.938-.85-.76 0-1.406.283-1.938.85-.522.555-.782 1.275-.782 2.159ZM76.618 29.288c.771 0 1.4-.278 1.888-.833.51-.555.764-1.28.764-2.176 0-.873-.254-1.592-.764-2.159a2.406 2.406 0 0 0-1.888-.85c-.747 0-1.376.283-1.886.85s-.766 1.286-.766 2.159c0 .884.256 1.604.766 2.159.51.567 1.139.85 1.886.85Zm-.05 5.1c-.465 0-.901-.062-1.31-.187a4.168 4.168 0 0 1-1.121-.493 3.664 3.664 0 0 1-.85-.765 3.224 3.224 0 0 1-.544-.986l1.479-.612c.17.487.464.878.884 1.173.419.295.906.442 1.462.442.85 0 1.513-.255 1.989-.765.475-.51.713-1.213.713-2.108v-.799h-.067a3.128 3.128 0 0 1-1.207 1.054 3.598 3.598 0 0 1-1.632.374c-1.089 0-2.023-.425-2.806-1.275-.77-.873-1.156-1.927-1.156-3.162 0-1.235.386-2.284 1.156-3.145.782-.861 1.717-1.292 2.805-1.292.59 0 1.134.13 1.633.391a3 3 0 0 1 1.207 1.037h.067v-1.156h1.496v7.973c0 1.337-.38 2.386-1.139 3.145-.77.77-1.79 1.156-3.06 1.156ZM84.237 18.272v12.172h-1.564V18.272h1.564ZM89.8 30.716c-1.224 0-2.233-.42-3.026-1.258-.793-.839-1.19-1.898-1.19-3.179 0-1.27.385-2.323 1.156-3.162.77-.85 1.757-1.275 2.958-1.275 1.236 0 2.216.402 2.941 1.207.737.793 1.105 1.91 1.105 3.349l-.017.17h-6.545c.023.816.295 1.473.816 1.972a2.61 2.61 0 0 0 1.87.748c.998 0 1.78-.499 2.346-1.496l1.394.68a4.136 4.136 0 0 1-1.564 1.649c-.657.397-1.405.595-2.244.595Zm-2.499-5.44h4.777a2.03 2.03 0 0 0-.714-1.428c-.42-.385-.986-.578-1.7-.578a2.3 2.3 0 0 0-1.53.544c-.42.363-.697.85-.833 1.462ZM100.746 25.514v4.93h-1.564V18.272h4.148c1.054 0 1.949.351 2.686 1.054.748.703 1.122 1.558 1.122 2.567 0 1.031-.374 1.893-1.122 2.584-.726.691-1.621 1.037-2.686 1.037h-2.584Zm0-5.746v4.25h2.618c.623 0 1.139-.21 1.547-.629.419-.42.629-.918.629-1.496 0-.567-.21-1.06-.629-1.479-.408-.43-.924-.646-1.547-.646h-2.618ZM110.152 18.272v12.172h-1.564V18.272h1.564ZM113.114 27.894c0 .408.17.748.51 1.02.351.272.759.408 1.224.408.657 0 1.241-.244 1.751-.731.521-.487.782-1.06.782-1.717-.487-.385-1.167-.578-2.04-.578-.635 0-1.167.153-1.598.459-.419.306-.629.686-.629 1.139Zm2.023-6.052c1.156 0 2.068.312 2.737.935.669.612 1.003 1.456 1.003 2.533v5.134h-1.496v-1.156h-.068c-.646.952-1.507 1.428-2.584 1.428-.918 0-1.689-.272-2.312-.816a2.616 2.616 0 0 1-.918-2.04c0-.861.323-1.547.969-2.057.657-.51 1.53-.765 2.618-.765.929 0 1.694.17 2.295.51v-.357c0-.544-.215-1.003-.646-1.377a2.198 2.198 0 0 0-1.513-.578c-.873 0-1.564.368-2.074 1.105l-1.377-.867c.759-1.088 1.881-1.632 3.366-1.632ZM127.921 22.114l-5.219 12.002h-1.615l1.938-4.199-3.434-7.803h1.7l2.482 5.984h.034l2.414-5.984h1.7Z" stroke="#fff" stroke-width=".3" mask="url(#b)"/><defs><clipPath id="a"><path fill="#fff" transform="translate(8 8)" d="M0 0h24v24H0z"/></clipPath></defs></svg>