<svg width="64" height="64" viewBox="0 0 64 64" fill="none" xmlns="http://www.w3.org/2000/svg">
<g clip-path="url(#clip0_1402_22411)">
<path d="M11.9998 0C5.37251 0 0 5.37251 0 11.9998V12.3485L59.8281 2.90532C57.7267 1.09468 54.9908 0 51.9993 0H11.9998Z" fill="#0A559E"/>
<path d="M61.063 4.13545L50.088 63.9991H51.9993C58.6266 63.9991 63.9991 58.6266 63.9991 51.9993V11.9998C63.9991 8.99141 62.892 6.24155 61.063 4.13545Z" fill="#0A559E"/>
<path fill-rule="evenodd" clip-rule="evenodd" d="M50.088 63.9991L11.9998 64C5.37251 64 0 58.6275 0 52.0002V12.3485L59.8281 2.90532C60.2688 3.28504 60.6816 3.69624 61.063 4.13545L50.088 63.9991Z" fill="#0364B9"/>
<path d="M14.684 23.504C14.972 24.032 15.3 24.688 15.668 25.472C16.052 26.24 16.444 27.08 16.844 27.992C17.26 28.888 17.668 29.808 18.068 30.752C18.468 31.696 18.844 32.584 19.196 33.416C19.548 32.584 19.924 31.696 20.324 30.752C20.724 29.808 21.124 28.888 21.524 27.992C21.94 27.08 22.332 26.24 22.7 25.472C23.084 24.688 23.42 24.032 23.708 23.504H27.116C27.276 24.608 27.42 25.848 27.548 27.224C27.692 28.584 27.812 30.008 27.908 31.496C28.02 32.968 28.116 34.448 28.196 35.936C28.292 37.424 28.372 38.824 28.436 40.136H24.788C24.74 38.52 24.676 36.76 24.596 34.856C24.516 32.952 24.396 31.032 24.236 29.096C23.948 29.768 23.628 30.512 23.276 31.328C22.924 32.144 22.572 32.96 22.22 33.776C21.884 34.592 21.556 35.376 21.236 36.128C20.916 36.864 20.644 37.496 20.42 38.024H17.804C17.58 37.496 17.308 36.864 16.988 36.128C16.668 35.376 16.332 34.592 15.98 33.776C15.644 32.96 15.3 32.144 14.948 31.328C14.596 30.512 14.276 29.768 13.988 29.096C13.828 31.032 13.708 32.952 13.628 34.856C13.548 36.76 13.484 38.52 13.436 40.136H9.788C9.852 38.824 9.924 37.424 10.004 35.936C10.1 34.448 10.196 32.968 10.292 31.496C10.404 30.008 10.524 28.584 10.652 27.224C10.796 25.848 10.948 24.608 11.108 23.504H14.684Z" fill="white"/>
<path d="M42.7087 23.504V26.696H37.6927V40.136H33.9487V26.696H28.9327V23.504H42.7087Z" fill="white"/>
<path d="M50.6349 35.24C50.6349 34.776 50.5309 34.368 50.3229 34.016C50.1149 33.648 49.7549 33.344 49.2429 33.104C48.7309 32.864 48.0429 32.68 47.1789 32.552C46.3149 32.424 45.2269 32.36 43.9149 32.36C44.0909 30.872 44.2349 29.36 44.3469 27.824C44.4589 26.288 44.5469 24.848 44.6109 23.504H53.6109V26.504H47.6109C47.5789 27.08 47.5389 27.64 47.4909 28.184C47.4589 28.712 47.4189 29.176 47.3709 29.576C49.7069 29.736 51.4269 30.288 52.5309 31.232C53.6509 32.16 54.2109 33.456 54.2109 35.12C54.2109 35.888 54.0749 36.6 53.8029 37.256C53.5309 37.912 53.1229 38.48 52.5789 38.96C52.0349 39.44 51.3469 39.816 50.5149 40.088C49.6989 40.36 48.7389 40.496 47.6349 40.496C47.2029 40.496 46.7469 40.464 46.2669 40.4C45.8029 40.352 45.3469 40.28 44.8989 40.184C44.4669 40.104 44.0749 40.016 43.7229 39.92C43.3709 39.824 43.0989 39.728 42.9069 39.632L43.5549 36.68C43.9549 36.856 44.4829 37.032 45.1389 37.208C45.7949 37.368 46.5789 37.448 47.4909 37.448C48.5949 37.448 49.3949 37.232 49.8909 36.8C50.3869 36.352 50.6349 35.832 50.6349 35.24Z" fill="white"/>
</g>
<defs>
<clipPath id="clip0_1402_22411">
<rect width="64" height="64" fill="white"/>
</clipPath>
</defs>
</svg>
