<svg width="256" height="64" viewBox="0 0 256 64" fill="none" xmlns="http://www.w3.org/2000/svg">
<path d="M12 0C5.37258 0 0 5.37258 0 12V12.3486L59.8289 2.90529C57.7274 1.09467 54.9915 0 52 0H12Z" fill="#0A559E"/>
<path d="M61.0639 4.13549L50.0887 63.9999L50.9402 64H52C58.6274 64 64 58.6274 64 52V12C64 8.99153 62.8929 6.24163 61.0639 4.13549Z" fill="#0A559E"/>
<path d="M0 12.3486V52C0 58.6274 5.37258 64 12 64L50.9402 64L50.0887 63.9999L61.0639 4.13549C60.6825 3.69626 60.2696 3.28503 59.8289 2.90529L0 12.3486Z" fill="#0364B9"/>
<path d="M14.6846 23.504C14.9726 24.032 15.3006 24.688 15.6686 25.472C16.0526 26.24 16.4446 27.08 16.8446 27.992C17.2606 28.888 17.6686 29.808 18.0686 30.752C18.4686 31.696 18.8446 32.584 19.1966 33.416C19.5486 32.584 19.9246 31.696 20.3246 30.752C20.7246 29.808 21.1246 28.888 21.5246 27.992C21.9406 27.08 22.3326 26.24 22.7006 25.472C23.0846 24.688 23.4206 24.032 23.7086 23.504H27.1166C27.2766 24.608 27.4206 25.848 27.5486 27.224C27.6926 28.584 27.8126 30.008 27.9086 31.496C28.0206 32.968 28.1166 34.448 28.1966 35.936C28.2926 37.424 28.3726 38.824 28.4366 40.136H24.7886C24.7406 38.52 24.6766 36.76 24.5966 34.856C24.5166 32.952 24.3966 31.032 24.2366 29.096C23.9486 29.768 23.6286 30.512 23.2766 31.328C22.9246 32.144 22.5726 32.96 22.2206 33.776C21.8846 34.592 21.5566 35.376 21.2366 36.128C20.9166 36.864 20.6446 37.496 20.4206 38.024H17.8046C17.5806 37.496 17.3086 36.864 16.9886 36.128C16.6686 35.376 16.3326 34.592 15.9806 33.776C15.6446 32.96 15.3006 32.144 14.9486 31.328C14.5966 30.512 14.2766 29.768 13.9886 29.096C13.8286 31.032 13.7086 32.952 13.6286 34.856C13.5486 36.76 13.4846 38.52 13.4366 40.136H9.78863C9.85263 38.824 9.92463 37.424 10.0046 35.936C10.1006 34.448 10.1966 32.968 10.2926 31.496C10.4046 30.008 10.5246 28.584 10.6526 27.224C10.7966 25.848 10.9486 24.608 11.1086 23.504H14.6846Z" fill="white"/>
<path d="M42.7093 23.504V26.696H37.6933V40.136H33.9493V26.696H28.9333V23.504H42.7093Z" fill="white"/>
<path d="M50.6355 35.24C50.6355 34.776 50.5315 34.368 50.3235 34.016C50.1155 33.648 49.7555 33.344 49.2435 33.104C48.7315 32.864 48.0435 32.68 47.1795 32.552C46.3155 32.424 45.2275 32.36 43.9155 32.36C44.0915 30.872 44.2355 29.36 44.3475 27.824C44.4595 26.288 44.5475 24.848 44.6115 23.504H53.6115V26.504H47.6115C47.5795 27.08 47.5395 27.64 47.4915 28.184C47.4595 28.712 47.4195 29.176 47.3715 29.576C49.7075 29.736 51.4275 30.288 52.5315 31.232C53.6515 32.16 54.2115 33.456 54.2115 35.12C54.2115 35.888 54.0755 36.6 53.8035 37.256C53.5315 37.912 53.1235 38.48 52.5795 38.96C52.0355 39.44 51.3475 39.816 50.5155 40.088C49.6995 40.36 48.7395 40.496 47.6355 40.496C47.2035 40.496 46.7475 40.464 46.2675 40.4C45.8035 40.352 45.3475 40.28 44.8995 40.184C44.4675 40.104 44.0755 40.016 43.7235 39.92C43.3715 39.824 43.0995 39.728 42.9075 39.632L43.5555 36.68C43.9555 36.856 44.4835 37.032 45.1395 37.208C45.7955 37.368 46.5795 37.448 47.4915 37.448C48.5955 37.448 49.3955 37.232 49.8915 36.8C50.3875 36.352 50.6355 35.832 50.6355 35.24Z" fill="white"/>
<path fill-rule="evenodd" clip-rule="evenodd" d="M96.6573 17.0123L95.082 25.9464H89.6135C84.5117 25.9464 79.6489 30.0799 78.7476 35.1817L78.3661 37.3532C77.469 42.4551 80.873 46.5886 85.9747 46.5886H90.5357C94.2541 46.5886 97.7964 43.5785 98.4504 39.8602L102.651 16.0488L96.6573 17.0123ZM92.7771 39.0175C92.5759 40.1662 91.5418 41.1011 90.3932 41.1011H87.6222C85.3291 41.1011 83.7949 39.2397 84.1973 36.9424L84.4362 35.5883C84.8429 33.2952 87.0311 31.4297 89.3242 31.4297H94.1151L92.7771 39.0175Z" fill="#414652"/>
<path d="M138.772 46.59H144.448L148.036 26.2329H142.36L138.772 46.59Z" fill="#414652"/>
<path d="M138.961 28.8869L138.962 28.8823C139.104 28.0774 139.246 27.2724 139.388 26.4675C133.564 24.9667 129.027 26.5193 127.18 27.2843C127.18 27.2843 124.545 42.2211 123.773 46.5948H129.453C130.375 41.3676 131.297 36.1392 132.217 30.912C133.07 30.742 135.844 30.4759 138.533 31.3115C138.675 30.5033 138.818 29.6951 138.961 28.8869Z" fill="#414652"/>
<path fill-rule="evenodd" clip-rule="evenodd" d="M116.368 25.9443H111.954C107.649 25.9443 103.545 29.4322 102.786 33.7375L101.893 38.7974C101.134 43.1027 104.006 46.5906 108.311 46.5906H117.71L118.674 41.1199H109.841C108.408 41.1199 107.447 39.9586 107.703 38.5207L107.733 38.3488H121.973L122.786 33.7375C123.545 29.4322 120.674 25.9443 116.368 25.9443ZM117.089 33.3015L117.056 33.5949H108.588L108.634 33.3351C108.89 31.9013 110.198 30.6395 111.635 30.6395H114.943C116.364 30.6395 117.324 31.8804 117.089 33.3015Z" fill="#414652"/>
<path d="M157.901 39.6602C160.479 35.0236 163.32 28.9404 164.504 26.2329H170.188C168.253 31.3773 163.819 40.1284 159.524 46.59H153.843C151.872 40.4401 150.598 31.8714 150.355 26.2329H156.036C156.138 28.0722 156.962 34.8942 157.901 39.6602Z" fill="#414652"/>
<path d="M185.31 18.2156C185.814 19.1396 186.388 20.2876 187.032 21.6596C187.704 23.0036 188.39 24.4736 189.09 26.0696C189.818 27.6376 190.532 29.2476 191.232 30.8996C191.932 32.5516 192.59 34.1056 193.206 35.5616C193.822 34.1056 194.48 32.5516 195.18 30.8996C195.88 29.2476 196.58 27.6376 197.28 26.0696C198.008 24.4736 198.694 23.0036 199.338 21.6596C200.01 20.2876 200.598 19.1396 201.102 18.2156H207.066C207.346 20.1476 207.598 22.3176 207.822 24.7256C208.074 27.1056 208.284 29.5976 208.452 32.2016C208.648 34.7776 208.816 37.3676 208.956 39.9716C209.124 42.5756 209.264 45.0256 209.376 47.3216H202.992C202.908 44.4936 202.796 41.4136 202.656 38.0816C202.516 34.7496 202.306 31.3896 202.026 28.0016C201.522 29.1776 200.962 30.4796 200.346 31.9076C199.73 33.3356 199.114 34.7636 198.498 36.1916C197.91 37.6196 197.336 38.9916 196.776 40.3076C196.216 41.5956 195.74 42.7016 195.348 43.6256H190.77C190.378 42.7016 189.902 41.5956 189.342 40.3076C188.782 38.9916 188.194 37.6196 187.578 36.1916C186.99 34.7636 186.388 33.3356 185.772 31.9076C185.156 30.4796 184.596 29.1776 184.092 28.0016C183.812 31.3896 183.602 34.7496 183.462 38.0816C183.322 41.4136 183.21 44.4936 183.126 47.3216H176.742C176.854 45.0256 176.98 42.5756 177.12 39.9716C177.288 37.3676 177.456 34.7776 177.624 32.2016C177.82 29.5976 178.03 27.1056 178.254 24.7256C178.506 22.3176 178.772 20.1476 179.052 18.2156H185.31Z" fill="#414652"/>
<path d="M234.353 18.2156V23.8016H225.575V47.3216H219.023V23.8016H210.245V18.2156H234.353Z" fill="#414652"/>
<path d="M248.224 38.7536C248.224 37.9416 248.042 37.2276 247.678 36.6116C247.314 35.9676 246.684 35.4356 245.788 35.0156C244.892 34.5956 243.688 34.2736 242.176 34.0496C240.664 33.8256 238.76 33.7136 236.464 33.7136C236.772 31.1096 237.024 28.4636 237.22 25.7756C237.416 23.0876 237.57 20.5676 237.682 18.2156H253.432V23.4656H242.932C242.876 24.4736 242.806 25.4536 242.722 26.4056C242.666 27.3296 242.596 28.1416 242.512 28.8416C246.6 29.1216 249.61 30.0876 251.542 31.7396C253.502 33.3636 254.482 35.6316 254.482 38.5436C254.482 39.8876 254.244 41.1336 253.768 42.2816C253.292 43.4296 252.578 44.4236 251.626 45.2636C250.674 46.1036 249.47 46.7616 248.014 47.2376C246.586 47.7136 244.906 47.9516 242.974 47.9516C242.218 47.9516 241.42 47.8956 240.58 47.7836C239.768 47.6996 238.97 47.5736 238.186 47.4056C237.43 47.2656 236.744 47.1116 236.128 46.9436C235.512 46.7756 235.036 46.6076 234.7 46.4396L235.834 41.2736C236.534 41.5816 237.458 41.8896 238.606 42.1976C239.754 42.4776 241.126 42.6176 242.722 42.6176C244.654 42.6176 246.054 42.2396 246.922 41.4836C247.79 40.6996 248.224 39.7896 248.224 38.7536Z" fill="#414652"/>
</svg>
