<svg width="151" height="40" viewBox="0 0 151 40" fill="none" xmlns="http://www.w3.org/2000/svg">
<rect width="151" height="40" rx="4" fill="#0E0E0E"/>
<path d="M20.1558 14.9164C21.0976 14.9164 22.8895 13.6147 24.7377 13.809C26.4945 13.864 28.1225 14.7453 29.1307 16.187C27.5399 17.1663 26.5609 18.8934 26.5369 20.7631C26.5392 22.8785 27.8043 24.7876 29.75 25.6116C29.3758 26.8288 28.8117 27.9792 28.0787 29.02C28.0564 29.0535 28.034 29.087 28.0115 29.1204L27.8765 29.3207C26.9507 30.6844 25.9505 31.9369 24.424 31.9617C22.8322 31.9985 22.2972 31.0237 20.4715 31.0237C18.6286 31.0237 18.0584 31.9351 16.5317 31.9985C14.9716 32.0564 13.7793 30.4247 12.7591 28.964C10.72 25.981 9.13216 20.5573 11.2608 16.8669C12.2604 15.0683 14.1294 13.9269 16.184 13.8604C17.7456 13.8283 19.1957 14.9164 20.1558 14.9164ZM24.757 8C24.8636 9.39335 24.4235 10.7734 23.5303 11.8471C22.6637 12.9264 21.3506 13.5481 19.9677 13.5338C19.8797 12.1806 20.3326 10.8478 21.2265 9.82911C22.1318 8.7966 23.3924 8.14352 24.757 8Z" fill="white"/>
<path d="M41.557 13.28V8.294H42.997C43.393 8.294 43.726 8.351 43.996 8.465C44.266 8.573 44.485 8.735 44.653 8.951C44.827 9.161 44.95 9.419 45.022 9.725C45.1 10.025 45.139 10.367 45.139 10.751C45.139 11.147 45.097 11.486 45.013 11.768C44.935 12.044 44.833 12.275 44.707 12.461C44.581 12.647 44.437 12.794 44.275 12.902C44.119 13.01 43.96 13.094 43.798 13.154C43.636 13.208 43.483 13.244 43.339 13.262C43.195 13.274 43.075 13.28 42.979 13.28H41.557ZM40.702 7.574V14H42.907C43.441 14 43.903 13.925 44.293 13.775C44.683 13.625 45.004 13.409 45.256 13.127C45.508 12.839 45.694 12.488 45.814 12.074C45.934 11.654 45.994 11.174 45.994 10.634C45.994 9.602 45.727 8.834 45.193 8.33C44.659 7.826 43.897 7.574 42.907 7.574H40.702ZM47.7409 11.678C47.7409 11.396 47.7769 11.147 47.8489 10.931C47.9269 10.709 48.0319 10.523 48.1639 10.373C48.2959 10.223 48.4489 10.109 48.6229 10.031C48.8029 9.953 48.9919 9.914 49.1899 9.914C49.3879 9.914 49.5739 9.953 49.7479 10.031C49.9279 10.109 50.0839 10.223 50.2159 10.373C50.3479 10.523 50.4499 10.709 50.5219 10.931C50.5999 11.147 50.6389 11.396 50.6389 11.678C50.6389 11.96 50.5999 12.212 50.5219 12.434C50.4499 12.65 50.3479 12.833 50.2159 12.983C50.0839 13.127 49.9279 13.238 49.7479 13.316C49.5739 13.394 49.3879 13.433 49.1899 13.433C48.9919 13.433 48.8029 13.394 48.6229 13.316C48.4489 13.238 48.2959 13.127 48.1639 12.983C48.0319 12.833 47.9269 12.65 47.8489 12.434C47.7769 12.212 47.7409 11.96 47.7409 11.678ZM46.9309 11.678C46.9309 12.02 46.9789 12.338 47.0749 12.632C47.1709 12.926 47.3149 13.184 47.5069 13.406C47.6989 13.622 47.9359 13.793 48.2179 13.919C48.4999 14.039 48.8239 14.099 49.1899 14.099C49.5619 14.099 49.8859 14.039 50.1619 13.919C50.4439 13.793 50.6809 13.622 50.8729 13.406C51.0649 13.184 51.2089 12.926 51.3049 12.632C51.4009 12.338 51.4489 12.02 51.4489 11.678C51.4489 11.336 51.4009 11.018 51.3049 10.724C51.2089 10.424 51.0649 10.166 50.8729 9.95C50.6809 9.728 50.4439 9.554 50.1619 9.428C49.8859 9.302 49.5619 9.239 49.1899 9.239C48.8239 9.239 48.4999 9.302 48.2179 9.428C47.9359 9.554 47.6989 9.728 47.5069 9.95C47.3149 10.166 47.1709 10.424 47.0749 10.724C46.9789 11.018 46.9309 11.336 46.9309 11.678ZM57.2289 14L58.7139 9.347H57.9219L56.8779 13.154H56.8599L55.8879 9.347H55.0509L54.1149 13.154H54.0969L53.0439 9.347H52.1979L53.6919 14H54.5199L55.4559 10.301H55.4739L56.4189 14H57.2289ZM59.7112 9.347V14H60.4762V11.372C60.4762 11.162 60.5032 10.97 60.5572 10.796C60.6172 10.616 60.7042 10.46 60.8182 10.328C60.9322 10.196 61.0732 10.094 61.2412 10.022C61.4152 9.95 61.6192 9.914 61.8532 9.914C62.1472 9.914 62.3782 9.998 62.5462 10.166C62.7142 10.334 62.7982 10.562 62.7982 10.85V14H63.5632V10.94C63.5632 10.688 63.5362 10.46 63.4822 10.256C63.4342 10.046 63.3472 9.866 63.2212 9.716C63.0952 9.566 62.9302 9.449 62.7262 9.365C62.5222 9.281 62.2672 9.239 61.9612 9.239C61.2712 9.239 60.7672 9.521 60.4492 10.085H60.4312V9.347H59.7112ZM65.0272 7.574V14H65.7922V7.574H65.0272ZM67.8053 11.678C67.8053 11.396 67.8413 11.147 67.9133 10.931C67.9913 10.709 68.0963 10.523 68.2283 10.373C68.3603 10.223 68.5133 10.109 68.6873 10.031C68.8673 9.953 69.0563 9.914 69.2543 9.914C69.4523 9.914 69.6383 9.953 69.8123 10.031C69.9923 10.109 70.1483 10.223 70.2803 10.373C70.4123 10.523 70.5143 10.709 70.5863 10.931C70.6643 11.147 70.7033 11.396 70.7033 11.678C70.7033 11.96 70.6643 12.212 70.5863 12.434C70.5143 12.65 70.4123 12.833 70.2803 12.983C70.1483 13.127 69.9923 13.238 69.8123 13.316C69.6383 13.394 69.4523 13.433 69.2543 13.433C69.0563 13.433 68.8673 13.394 68.6873 13.316C68.5133 13.238 68.3603 13.127 68.2283 12.983C68.0963 12.833 67.9913 12.65 67.9133 12.434C67.8413 12.212 67.8053 11.96 67.8053 11.678ZM66.9953 11.678C66.9953 12.02 67.0433 12.338 67.1393 12.632C67.2353 12.926 67.3793 13.184 67.5713 13.406C67.7633 13.622 68.0003 13.793 68.2823 13.919C68.5643 14.039 68.8883 14.099 69.2543 14.099C69.6263 14.099 69.9503 14.039 70.2263 13.919C70.5083 13.793 70.7453 13.622 70.9373 13.406C71.1293 13.184 71.2733 12.926 71.3693 12.632C71.4653 12.338 71.5133 12.02 71.5133 11.678C71.5133 11.336 71.4653 11.018 71.3693 10.724C71.2733 10.424 71.1293 10.166 70.9373 9.95C70.7453 9.728 70.5083 9.554 70.2263 9.428C69.9503 9.302 69.6263 9.239 69.2543 9.239C68.8883 9.239 68.5643 9.302 68.2823 9.428C68.0003 9.554 67.7633 9.728 67.5713 9.95C67.3793 10.166 67.2353 10.424 67.1393 10.724C67.0433 11.018 66.9953 11.336 66.9953 11.678ZM76.8073 13.982C76.6753 14.06 76.4923 14.099 76.2583 14.099C76.0603 14.099 75.9013 14.045 75.7813 13.937C75.6673 13.823 75.6103 13.64 75.6103 13.388C75.4003 13.64 75.1543 13.823 74.8723 13.937C74.5963 14.045 74.2963 14.099 73.9723 14.099C73.7623 14.099 73.5613 14.075 73.3693 14.027C73.1833 13.979 73.0213 13.904 72.8833 13.802C72.7453 13.7 72.6343 13.568 72.5503 13.406C72.4723 13.238 72.4333 13.037 72.4333 12.803C72.4333 12.539 72.4783 12.323 72.5683 12.155C72.6583 11.987 72.7753 11.852 72.9193 11.75C73.0693 11.642 73.2373 11.561 73.4233 11.507C73.6153 11.453 73.8103 11.408 74.0083 11.372C74.2183 11.33 74.4163 11.3 74.6023 11.282C74.7943 11.258 74.9623 11.228 75.1063 11.192C75.2503 11.15 75.3643 11.093 75.4483 11.021C75.5323 10.943 75.5743 10.832 75.5743 10.688C75.5743 10.52 75.5413 10.385 75.4753 10.283C75.4153 10.181 75.3343 10.103 75.2323 10.049C75.1363 9.995 75.0253 9.959 74.8993 9.941C74.7793 9.923 74.6593 9.914 74.5393 9.914C74.2153 9.914 73.9453 9.977 73.7293 10.103C73.5133 10.223 73.3963 10.454 73.3783 10.796H72.6133C72.6253 10.508 72.6853 10.265 72.7933 10.067C72.9013 9.869 73.0453 9.71 73.2253 9.59C73.4053 9.464 73.6093 9.374 73.8373 9.32C74.0713 9.266 74.3203 9.239 74.5843 9.239C74.7943 9.239 75.0013 9.254 75.2053 9.284C75.4153 9.314 75.6043 9.377 75.7723 9.473C75.9403 9.563 76.0753 9.692 76.1773 9.86C76.2793 10.028 76.3303 10.247 76.3303 10.517V12.911C76.3303 13.091 76.3393 13.223 76.3573 13.307C76.3813 13.391 76.4533 13.433 76.5733 13.433C76.6393 13.433 76.7173 13.418 76.8073 13.388V13.982ZM75.5653 11.597C75.4693 11.669 75.3433 11.723 75.1873 11.759C75.0313 11.789 74.8663 11.816 74.6923 11.84C74.5243 11.858 74.3533 11.882 74.1793 11.912C74.0053 11.936 73.8493 11.978 73.7113 12.038C73.5733 12.098 73.4593 12.185 73.3693 12.299C73.2853 12.407 73.2433 12.557 73.2433 12.749C73.2433 12.875 73.2673 12.983 73.3153 13.073C73.3693 13.157 73.4353 13.226 73.5133 13.28C73.5973 13.334 73.6933 13.373 73.8013 13.397C73.9093 13.421 74.0233 13.433 74.1433 13.433C74.3953 13.433 74.6113 13.4 74.7913 13.334C74.9713 13.262 75.1183 13.175 75.2323 13.073C75.3463 12.965 75.4303 12.851 75.4843 12.731C75.5383 12.605 75.5653 12.488 75.5653 12.38V11.597ZM78.3472 11.714C78.3472 11.486 78.3712 11.264 78.4192 11.048C78.4672 10.832 78.5452 10.64 78.6532 10.472C78.7612 10.304 78.9052 10.169 79.0852 10.067C79.2652 9.965 79.4842 9.914 79.7422 9.914C80.0062 9.914 80.2312 9.965 80.4172 10.067C80.6032 10.163 80.7532 10.292 80.8672 10.454C80.9872 10.616 81.0742 10.805 81.1282 11.021C81.1822 11.231 81.2092 11.45 81.2092 11.678C81.2092 11.894 81.1822 12.107 81.1282 12.317C81.0802 12.527 80.9992 12.716 80.8852 12.884C80.7712 13.046 80.6242 13.178 80.4442 13.28C80.2642 13.382 80.0452 13.433 79.7872 13.433C79.5412 13.433 79.3252 13.385 79.1392 13.289C78.9592 13.193 78.8092 13.064 78.6892 12.902C78.5752 12.74 78.4882 12.557 78.4282 12.353C78.3742 12.143 78.3472 11.93 78.3472 11.714ZM81.9472 14V7.574H81.1822V9.968H81.1642C81.0802 9.83 80.9752 9.716 80.8492 9.626C80.7292 9.53 80.6002 9.455 80.4622 9.401C80.3242 9.341 80.1862 9.299 80.0482 9.275C79.9102 9.251 79.7812 9.239 79.6612 9.239C79.3072 9.239 78.9952 9.305 78.7252 9.437C78.4612 9.563 78.2392 9.737 78.0592 9.959C77.8852 10.175 77.7532 10.43 77.6632 10.724C77.5792 11.018 77.5372 11.33 77.5372 11.66C77.5372 11.99 77.5822 12.302 77.6722 12.596C77.7622 12.89 77.8942 13.148 78.0682 13.37C78.2482 13.592 78.4702 13.769 78.7342 13.901C79.0042 14.033 79.3192 14.099 79.6792 14.099C80.0032 14.099 80.3002 14.042 80.5702 13.928C80.8402 13.814 81.0382 13.628 81.1642 13.37H81.1822V14H81.9472ZM86.4841 10.022V14H87.2491V10.022H88.1491V9.347H87.2491V8.699C87.2491 8.495 87.3001 8.357 87.4021 8.285C87.5041 8.213 87.6481 8.177 87.8341 8.177C87.9001 8.177 87.9721 8.183 88.0501 8.195C88.1281 8.201 88.2001 8.216 88.2661 8.24V7.574C88.1941 7.55 88.1101 7.532 88.0141 7.52C87.9241 7.508 87.8431 7.502 87.7711 7.502C87.3511 7.502 87.0301 7.601 86.8081 7.799C86.5921 7.991 86.4841 8.276 86.4841 8.654V9.347H85.7011V10.022H86.4841ZM89.6602 11.678C89.6602 11.396 89.6962 11.147 89.7682 10.931C89.8462 10.709 89.9512 10.523 90.0832 10.373C90.2152 10.223 90.3682 10.109 90.5422 10.031C90.7222 9.953 90.9112 9.914 91.1092 9.914C91.3072 9.914 91.4932 9.953 91.6672 10.031C91.8472 10.109 92.0032 10.223 92.1352 10.373C92.2672 10.523 92.3692 10.709 92.4412 10.931C92.5192 11.147 92.5582 11.396 92.5582 11.678C92.5582 11.96 92.5192 12.212 92.4412 12.434C92.3692 12.65 92.2672 12.833 92.1352 12.983C92.0032 13.127 91.8472 13.238 91.6672 13.316C91.4932 13.394 91.3072 13.433 91.1092 13.433C90.9112 13.433 90.7222 13.394 90.5422 13.316C90.3682 13.238 90.2152 13.127 90.0832 12.983C89.9512 12.833 89.8462 12.65 89.7682 12.434C89.6962 12.212 89.6602 11.96 89.6602 11.678ZM88.8502 11.678C88.8502 12.02 88.8982 12.338 88.9942 12.632C89.0902 12.926 89.2342 13.184 89.4262 13.406C89.6182 13.622 89.8552 13.793 90.1372 13.919C90.4192 14.039 90.7432 14.099 91.1092 14.099C91.4812 14.099 91.8052 14.039 92.0812 13.919C92.3632 13.793 92.6002 13.622 92.7922 13.406C92.9842 13.184 93.1282 12.926 93.2242 12.632C93.3202 12.338 93.3682 12.02 93.3682 11.678C93.3682 11.336 93.3202 11.018 93.2242 10.724C93.1282 10.424 92.9842 10.166 92.7922 9.95C92.6002 9.728 92.3632 9.554 92.0812 9.428C91.8052 9.302 91.4812 9.239 91.1092 9.239C90.7432 9.239 90.4192 9.302 90.1372 9.428C89.8552 9.554 89.6182 9.728 89.4262 9.95C89.2342 10.166 89.0902 10.424 88.9942 10.724C88.8982 11.018 88.8502 11.336 88.8502 11.678ZM94.5131 9.347V14H95.2781V11.93C95.2781 11.63 95.3081 11.366 95.3681 11.138C95.4281 10.904 95.5241 10.706 95.6561 10.544C95.7881 10.382 95.9621 10.259 96.1781 10.175C96.3941 10.091 96.6551 10.049 96.9611 10.049V9.239C96.5471 9.227 96.2051 9.311 95.9351 9.491C95.6651 9.671 95.4371 9.95 95.2511 10.328H95.2331V9.347H94.5131Z" fill="white"/>
<path d="M41.02 22.211H42.856V23.435H42.907C43.0543 23.2197 43.213 23.0213 43.383 22.84C43.553 22.6587 43.74 22.5057 43.944 22.381C44.1593 22.2563 44.403 22.16 44.675 22.092C44.947 22.0127 45.2587 21.973 45.61 21.973C46.1427 21.973 46.6357 22.092 47.089 22.33C47.5537 22.568 47.8823 22.9363 48.075 23.435C48.4037 22.9817 48.7833 22.6247 49.214 22.364C49.6447 22.1033 50.183 21.973 50.829 21.973C51.7583 21.973 52.478 22.1997 52.988 22.653C53.5093 23.1063 53.77 23.8657 53.77 24.931V31H51.832V25.866C51.832 25.5147 51.8207 25.1973 51.798 24.914C51.7753 24.6193 51.7073 24.37 51.594 24.166C51.492 23.9507 51.3333 23.7863 51.118 23.673C50.9027 23.5597 50.608 23.503 50.234 23.503C49.5767 23.503 49.1007 23.707 48.806 24.115C48.5113 24.523 48.364 25.101 48.364 25.849V31H46.426V25.356C46.426 24.744 46.3127 24.285 46.086 23.979C45.8707 23.6617 45.4683 23.503 44.879 23.503C44.6297 23.503 44.386 23.554 44.148 23.656C43.9213 23.758 43.7173 23.9053 43.536 24.098C43.366 24.2907 43.2243 24.5287 43.111 24.812C43.009 25.0953 42.958 25.4183 42.958 25.781V31H41.02V22.211ZM63.173 29.045C63.173 29.283 63.2013 29.453 63.258 29.555C63.326 29.657 63.4507 29.708 63.632 29.708C63.6887 29.708 63.7567 29.708 63.836 29.708C63.9153 29.708 64.006 29.6967 64.108 29.674V31.017C64.04 31.0397 63.9493 31.0623 63.836 31.085C63.734 31.119 63.6263 31.1473 63.513 31.17C63.3997 31.1927 63.2863 31.2097 63.173 31.221C63.0597 31.2323 62.9633 31.238 62.884 31.238C62.4873 31.238 62.1587 31.1587 61.898 31C61.6373 30.8413 61.4673 30.5637 61.388 30.167C61.0027 30.541 60.5267 30.813 59.96 30.983C59.4047 31.153 58.8663 31.238 58.345 31.238C57.9483 31.238 57.5687 31.1813 57.206 31.068C56.8433 30.966 56.5203 30.813 56.237 30.609C55.965 30.3937 55.744 30.1273 55.574 29.81C55.4153 29.4813 55.336 29.1017 55.336 28.671C55.336 28.127 55.4323 27.685 55.625 27.345C55.829 27.005 56.0897 26.7387 56.407 26.546C56.7357 26.3533 57.0983 26.2173 57.495 26.138C57.903 26.0473 58.311 25.9793 58.719 25.934C59.0703 25.866 59.4047 25.8207 59.722 25.798C60.0393 25.764 60.317 25.713 60.555 25.645C60.8043 25.577 60.997 25.475 61.133 25.339C61.2803 25.1917 61.354 24.9763 61.354 24.693C61.354 24.4437 61.2917 24.2397 61.167 24.081C61.0537 23.9223 60.9063 23.8033 60.725 23.724C60.555 23.6333 60.3623 23.5767 60.147 23.554C59.9317 23.52 59.7277 23.503 59.535 23.503C58.991 23.503 58.5433 23.6163 58.192 23.843C57.8407 24.0697 57.6423 24.421 57.597 24.897H55.659C55.693 24.3303 55.829 23.86 56.067 23.486C56.305 23.112 56.6053 22.8117 56.968 22.585C57.342 22.3583 57.7613 22.1997 58.226 22.109C58.6907 22.0183 59.1667 21.973 59.654 21.973C60.0847 21.973 60.5097 22.0183 60.929 22.109C61.3483 22.1997 61.7223 22.347 62.051 22.551C62.391 22.755 62.663 23.0213 62.867 23.35C63.071 23.6673 63.173 24.0583 63.173 24.523V29.045ZM61.235 26.597C60.9403 26.7897 60.5777 26.9087 60.147 26.954C59.7163 26.988 59.2857 27.0447 58.855 27.124C58.651 27.158 58.4527 27.209 58.26 27.277C58.0673 27.3337 57.8973 27.4187 57.75 27.532C57.6027 27.634 57.4837 27.7757 57.393 27.957C57.3137 28.127 57.274 28.3367 57.274 28.586C57.274 28.8013 57.3363 28.9827 57.461 29.13C57.5857 29.2773 57.733 29.3963 57.903 29.487C58.0843 29.5663 58.277 29.623 58.481 29.657C58.6963 29.691 58.889 29.708 59.059 29.708C59.2743 29.708 59.5067 29.6797 59.756 29.623C60.0053 29.5663 60.2377 29.47 60.453 29.334C60.6797 29.198 60.8667 29.028 61.014 28.824C61.1613 28.6087 61.235 28.348 61.235 28.042V26.597ZM71.1913 25.152C71.1119 24.608 70.8909 24.2 70.5283 23.928C70.1769 23.6447 69.7293 23.503 69.1853 23.503C68.9359 23.503 68.6696 23.5483 68.3863 23.639C68.1029 23.7183 67.8423 23.877 67.6043 24.115C67.3663 24.3417 67.1679 24.6647 67.0093 25.084C66.8506 25.492 66.7713 26.0303 66.7713 26.699C66.7713 27.0617 66.8109 27.4243 66.8903 27.787C66.9809 28.1497 67.1169 28.4727 67.2983 28.756C67.4909 29.0393 67.7346 29.2717 68.0293 29.453C68.3239 29.623 68.6809 29.708 69.1003 29.708C69.6669 29.708 70.1316 29.5323 70.4943 29.181C70.8683 28.8297 71.1006 28.3367 71.1913 27.702H73.1293C72.9479 28.8467 72.5116 29.725 71.8203 30.337C71.1403 30.9377 70.2336 31.238 69.1003 31.238C68.4089 31.238 67.7969 31.1247 67.2643 30.898C66.7429 30.66 66.3009 30.3427 65.9383 29.946C65.5756 29.538 65.2979 29.0563 65.1053 28.501C64.9239 27.9457 64.8333 27.345 64.8333 26.699C64.8333 26.0417 64.9239 25.424 65.1053 24.846C65.2866 24.268 65.5586 23.7693 65.9213 23.35C66.2839 22.9193 66.7316 22.585 67.2643 22.347C67.8083 22.0977 68.4429 21.973 69.1683 21.973C69.6783 21.973 70.1599 22.041 70.6133 22.177C71.0779 22.3017 71.4859 22.4943 71.8373 22.755C72.1999 23.0157 72.4946 23.3443 72.7213 23.741C72.9479 24.1377 73.0839 24.608 73.1293 25.152H71.1913ZM80.1446 20.307C79.4986 20.307 78.9376 20.4373 78.4616 20.698C77.9969 20.9587 77.6172 21.31 77.3226 21.752C77.0279 22.1827 76.8069 22.6757 76.6596 23.231C76.5236 23.7863 76.4556 24.353 76.4556 24.931C76.4556 25.509 76.5236 26.0757 76.6596 26.631C76.8069 27.1863 77.0279 27.685 77.3226 28.127C77.6172 28.5577 77.9969 28.9033 78.4616 29.164C78.9376 29.4247 79.4986 29.555 80.1446 29.555C80.7906 29.555 81.3459 29.4247 81.8106 29.164C82.2866 28.9033 82.6719 28.5577 82.9666 28.127C83.2612 27.685 83.4766 27.1863 83.6126 26.631C83.7599 26.0757 83.8336 25.509 83.8336 24.931C83.8336 24.353 83.7599 23.7863 83.6126 23.231C83.4766 22.6757 83.2612 22.1827 82.9666 21.752C82.6719 21.31 82.2866 20.9587 81.8106 20.698C81.3459 20.4373 80.7906 20.307 80.1446 20.307ZM80.1446 18.573C81.0512 18.573 81.8616 18.743 82.5756 19.083C83.3009 19.423 83.9129 19.882 84.4116 20.46C84.9102 21.038 85.2899 21.7123 85.5506 22.483C85.8226 23.2537 85.9586 24.0697 85.9586 24.931C85.9586 25.8037 85.8226 26.6253 85.5506 27.396C85.2899 28.1667 84.9102 28.841 84.4116 29.419C83.9129 29.997 83.3009 30.456 82.5756 30.796C81.8616 31.1247 81.0512 31.289 80.1446 31.289C79.2379 31.289 78.4219 31.1247 77.6966 30.796C76.9826 30.456 76.3762 29.997 75.8776 29.419C75.3789 28.841 74.9936 28.1667 74.7216 27.396C74.4609 26.6253 74.3306 25.8037 74.3306 24.931C74.3306 24.0697 74.4609 23.2537 74.7216 22.483C74.9936 21.7123 75.3789 21.038 75.8776 20.46C76.3762 19.882 76.9826 19.423 77.6966 19.083C78.4219 18.743 79.2379 18.573 80.1446 18.573ZM89.2866 26.954C89.2866 27.4187 89.3659 27.8153 89.5246 28.144C89.6833 28.4727 89.9043 28.7447 90.1876 28.96C90.4709 29.164 90.7939 29.317 91.1566 29.419C91.5306 29.5097 91.9329 29.555 92.3636 29.555C92.8283 29.555 93.2249 29.504 93.5536 29.402C93.8823 29.2887 94.1486 29.147 94.3526 28.977C94.5566 28.807 94.7039 28.6143 94.7946 28.399C94.8853 28.1723 94.9306 27.9457 94.9306 27.719C94.9306 27.2543 94.8229 26.9143 94.6076 26.699C94.4036 26.4723 94.1769 26.3137 93.9276 26.223C93.4969 26.0643 92.9926 25.917 92.4146 25.781C91.8479 25.6337 91.1453 25.4467 90.3066 25.22C89.7853 25.084 89.3489 24.9083 88.9976 24.693C88.6576 24.4663 88.3856 24.217 88.1816 23.945C87.9776 23.673 87.8303 23.384 87.7396 23.078C87.6603 22.772 87.6206 22.4603 87.6206 22.143C87.6206 21.531 87.7453 21.004 87.9946 20.562C88.2553 20.1087 88.5953 19.7347 89.0146 19.44C89.4339 19.1453 89.9099 18.93 90.4426 18.794C90.9753 18.6467 91.5136 18.573 92.0576 18.573C92.6923 18.573 93.2873 18.658 93.8426 18.828C94.4093 18.9867 94.9023 19.2303 95.3216 19.559C95.7523 19.8877 96.0923 20.2957 96.3416 20.783C96.5909 21.259 96.7156 21.8143 96.7156 22.449H94.5906C94.5339 21.667 94.2676 21.1173 93.7916 20.8C93.3156 20.4713 92.7093 20.307 91.9726 20.307C91.7233 20.307 91.4683 20.3353 91.2076 20.392C90.9469 20.4373 90.7089 20.5223 90.4936 20.647C90.2783 20.7603 90.0969 20.919 89.9496 21.123C89.8136 21.327 89.7456 21.582 89.7456 21.888C89.7456 22.3187 89.8759 22.6587 90.1366 22.908C90.4086 23.146 90.7599 23.3273 91.1906 23.452C91.2359 23.4633 91.4116 23.5143 91.7176 23.605C92.0349 23.6843 92.3863 23.775 92.7716 23.877C93.1569 23.979 93.5309 24.081 93.8936 24.183C94.2676 24.2737 94.5339 24.3417 94.6926 24.387C95.0893 24.5117 95.4349 24.6817 95.7296 24.897C96.0243 25.1123 96.2679 25.3617 96.4606 25.645C96.6646 25.917 96.8119 26.2117 96.9026 26.529C97.0046 26.8463 97.0556 27.1637 97.0556 27.481C97.0556 28.161 96.9139 28.7447 96.6306 29.232C96.3586 29.708 95.9959 30.099 95.5426 30.405C95.0893 30.711 94.5736 30.932 93.9956 31.068C93.4176 31.2153 92.8283 31.289 92.2276 31.289C91.5363 31.289 90.8846 31.204 90.2726 31.034C89.6606 30.864 89.1279 30.6033 88.6746 30.252C88.2213 29.9007 87.8586 29.453 87.5866 28.909C87.3146 28.3537 87.1729 27.702 87.1616 26.954H89.2866ZM103.528 28.705H105.891V31H103.528V28.705ZM116.386 31H114.55V29.81H114.516C114.255 30.32 113.876 30.6883 113.377 30.915C112.878 31.1303 112.351 31.238 111.796 31.238C111.105 31.238 110.498 31.119 109.977 30.881C109.467 30.6317 109.042 30.2973 108.702 29.878C108.362 29.4587 108.107 28.9657 107.937 28.399C107.767 27.821 107.682 27.2033 107.682 26.546C107.682 25.7527 107.79 25.067 108.005 24.489C108.22 23.911 108.504 23.435 108.855 23.061C109.218 22.687 109.626 22.415 110.079 22.245C110.544 22.0637 111.014 21.973 111.49 21.973C111.762 21.973 112.04 22.0013 112.323 22.058C112.606 22.1033 112.878 22.1827 113.139 22.296C113.4 22.4093 113.638 22.5567 113.853 22.738C114.08 22.908 114.267 23.112 114.414 23.35H114.448V18.862H116.386V31ZM109.62 26.699C109.62 27.073 109.665 27.4413 109.756 27.804C109.858 28.1667 110.005 28.4897 110.198 28.773C110.402 29.0563 110.657 29.283 110.963 29.453C111.269 29.623 111.632 29.708 112.051 29.708C112.482 29.708 112.85 29.6173 113.156 29.436C113.473 29.2547 113.728 29.0167 113.921 28.722C114.125 28.4273 114.272 28.0987 114.363 27.736C114.465 27.362 114.516 26.9823 114.516 26.597C114.516 25.6223 114.295 24.863 113.853 24.319C113.422 23.775 112.833 23.503 112.085 23.503C111.632 23.503 111.246 23.5993 110.929 23.792C110.623 23.9733 110.368 24.217 110.164 24.523C109.971 24.8177 109.83 25.1577 109.739 25.543C109.66 25.917 109.62 26.3023 109.62 26.699ZM118.499 22.211H120.335V23.435H120.386C120.534 23.2197 120.692 23.0213 120.862 22.84C121.032 22.6587 121.219 22.5057 121.423 22.381C121.639 22.2563 121.882 22.16 122.154 22.092C122.426 22.0127 122.738 21.973 123.089 21.973C123.622 21.973 124.115 22.092 124.568 22.33C125.033 22.568 125.362 22.9363 125.554 23.435C125.883 22.9817 126.263 22.6247 126.693 22.364C127.124 22.1033 127.662 21.973 128.308 21.973C129.238 21.973 129.957 22.1997 130.467 22.653C130.989 23.1063 131.249 23.8657 131.249 24.931V31H129.311V25.866C129.311 25.5147 129.3 25.1973 129.277 24.914C129.255 24.6193 129.187 24.37 129.073 24.166C128.971 23.9507 128.813 23.7863 128.597 23.673C128.382 23.5597 128.087 23.503 127.713 23.503C127.056 23.503 126.58 23.707 126.285 24.115C125.991 24.523 125.843 25.101 125.843 25.849V31H123.905V25.356C123.905 24.744 123.792 24.285 123.565 23.979C123.35 23.6617 122.948 23.503 122.358 23.503C122.109 23.503 121.865 23.554 121.627 23.656C121.401 23.758 121.197 23.9053 121.015 24.098C120.845 24.2907 120.704 24.5287 120.59 24.812C120.488 25.0953 120.437 25.4183 120.437 25.781V31H118.499V22.211ZM141.417 30.541C141.417 31.867 141.043 32.853 140.295 33.499C139.559 34.1563 138.493 34.485 137.099 34.485C136.657 34.485 136.21 34.4397 135.756 34.349C135.314 34.2583 134.906 34.1053 134.532 33.89C134.17 33.6747 133.864 33.3913 133.614 33.04C133.365 32.6887 133.218 32.258 133.172 31.748H135.11C135.167 32.02 135.263 32.241 135.399 32.411C135.535 32.581 135.694 32.7113 135.875 32.802C136.068 32.904 136.278 32.9663 136.504 32.989C136.731 33.023 136.969 33.04 137.218 33.04C138 33.04 138.573 32.8473 138.935 32.462C139.298 32.0767 139.479 31.5213 139.479 30.796V29.453H139.445C139.173 29.9403 138.799 30.32 138.323 30.592C137.859 30.864 137.354 31 136.81 31C136.108 31 135.507 30.881 135.008 30.643C134.521 30.3937 134.113 30.0593 133.784 29.64C133.467 29.2093 133.235 28.7163 133.087 28.161C132.94 27.6057 132.866 27.0107 132.866 26.376C132.866 25.7867 132.957 25.2257 133.138 24.693C133.32 24.1603 133.58 23.6957 133.92 23.299C134.26 22.891 134.674 22.568 135.161 22.33C135.66 22.092 136.221 21.973 136.844 21.973C137.4 21.973 137.91 22.092 138.374 22.33C138.839 22.5567 139.196 22.9193 139.445 23.418H139.479V22.211H141.417V30.541ZM137.116 29.47C137.547 29.47 137.91 29.385 138.204 29.215C138.51 29.0337 138.754 28.8013 138.935 28.518C139.128 28.2233 139.264 27.8947 139.343 27.532C139.434 27.158 139.479 26.784 139.479 26.41C139.479 26.036 139.434 25.6733 139.343 25.322C139.253 24.9707 139.111 24.659 138.918 24.387C138.737 24.115 138.493 23.8997 138.187 23.741C137.893 23.5823 137.536 23.503 137.116 23.503C136.686 23.503 136.323 23.5937 136.028 23.775C135.734 23.9563 135.496 24.1943 135.314 24.489C135.133 24.7723 135.003 25.101 134.923 25.475C134.844 25.8377 134.804 26.2003 134.804 26.563C134.804 26.9257 134.85 27.2827 134.94 27.634C135.031 27.974 135.167 28.28 135.348 28.552C135.541 28.824 135.779 29.045 136.062 29.215C136.357 29.385 136.708 29.47 137.116 29.47Z" fill="white"/>
</svg>
