<svg width="154" height="40" viewBox="0 0 154 40" fill="none" xmlns="http://www.w3.org/2000/svg">
<path d="M40.081 27.049C39.531 26.603 39.745 25.618 39.174 25.132C39.727 21.767 38.177 18.801 36.329 16.9C34.778 15.305 35.278 13.753 35.278 12.41C35.278 10.264 34.397 8 31.728 8C28.875 8 28.093 10.38 28.065 11.738C27.997 15 28.724 15.848 26.815 18.222C24.569 21.015 24.238 23.801 24.745 25.279C24.508 25.555 24.188 25.861 23.59 26.114C21.938 26.834 23.149 28.039 22.692 28.894C22.562 29.137 22.5 29.391 22.5 29.634C22.5 30.384 23.096 31.033 24.179 30.936C25.64 30.806 26.988 31.841 27.86 31.841C28.63 31.841 29.262 31.403 29.556 30.8C30.933 30.461 32.633 30.504 34.009 30.859C34.256 31.55 34.926 32 35.671 32C37.302 32 37.616 30.151 39.487 29.525C40.161 29.3 40.5 28.646 40.5 28.037C40.5 27.647 40.361 27.276 40.081 27.049ZM30.934 16.584C30.615 16.584 30.351 16.326 29.934 16.016C29.406 15.624 28.869 15.398 28.875 14.986C28.875 14.703 29.254 14.616 29.744 14.305C30.27 13.972 30.475 13.634 30.993 13.634C31.523 13.634 31.683 13.902 32.403 14.213C33.111 14.52 33.604 14.64 33.604 14.986C33.604 15.341 32.863 15.595 32.446 15.854C31.833 16.232 31.518 16.584 30.934 16.584ZM32.599 11.369C33.481 11.51 33.58 13.06 33.158 13.823L32.803 13.678C32.987 13.135 32.984 12.241 32.368 12.184C31.977 12.148 31.725 12.664 31.671 13.106C31.518 13.042 31.351 12.996 31.148 12.979C31.21 12.056 31.806 11.242 32.599 11.369ZM29.196 11.7C29.872 11.532 30.271 12.318 30.274 13.135L29.964 13.325C29.922 12.982 29.769 12.428 29.385 12.546C28.974 12.674 29.041 13.629 29.27 13.825L28.964 13.995C28.544 13.288 28.545 11.862 29.196 11.7ZM27.081 30.943C25.118 30.05 24.451 30.253 24.076 30.253C23.299 30.253 23.045 29.674 23.337 29.126C23.585 28.661 23.508 28.174 23.447 27.783C23.353 27.184 23.336 26.989 23.925 26.731C24.74 26.385 25.102 25.94 25.372 25.607C26.13 24.67 26.895 26.144 27.522 27.457C27.929 28.308 28.73 28.739 28.977 29.682C29.204 30.553 28.267 31.483 27.081 30.943ZM34.068 29.069C32.684 29.742 30.921 30.051 29.602 29.368C29.407 28.805 29.095 28.441 28.759 28.075C29.298 27.933 29.698 27.261 29.219 26.586C28.708 25.865 27.664 25.362 26.609 24.546C25.622 23.783 25.31 21.902 26.654 19.8C25.999 21.662 26.382 23.378 26.711 23.869C26.779 22.881 26.857 21.231 28.207 19.254C28.888 18.256 28.898 16.938 28.913 16.114L29.533 16.538C29.989 16.875 30.371 17.246 30.919 17.246C31.729 17.246 32.177 16.78 32.801 16.393C33.045 16.243 33.414 16.091 33.724 15.88C34.244 18.356 36.398 21.334 36.519 23.03C37.02 21.998 36.377 19.516 36.377 19.516C37.219 20.801 37.286 21.872 37.323 23.186C37.912 23.427 38.544 24.055 38.602 24.882L38.357 24.854C38.231 23.935 35.75 22.585 35.527 24.315C34.337 24.496 34.77 26.381 34.53 27.603C34.42 28.162 34.216 28.604 34.068 29.069ZM38.914 29.028C37.929 29.408 37.264 30.215 36.807 30.716C35.927 31.682 34.763 31.219 34.639 30.315C34.508 29.349 34.999 28.822 35.211 27.741C35.404 26.754 35.188 25.235 35.642 25.073C35.937 26.826 37.708 26.089 38.112 25.611C38.769 25.611 38.824 25.833 38.971 26.448C39.063 26.833 39.19 27.157 39.549 27.538C39.967 27.985 39.839 28.671 38.914 29.028ZM30.914 16.022C30.263 16.022 29.776 15.589 29.38 15.253C29.177 15.082 29.43 14.766 29.633 14.938C30.02 15.266 30.41 15.613 30.914 15.613C31.521 15.613 32.056 15.094 32.781 14.808C33.028 14.711 33.169 15.093 32.924 15.19C32.22 15.467 31.655 16.022 30.914 16.022Z" fill="#333333"/>
<path d="M52.274 7.763H53.147V14H52.274V7.763ZM54.637 9.455C54.829 9.407 55.084 9.356 55.402 9.302C55.72 9.248 56.086 9.221 56.5 9.221C56.872 9.221 57.181 9.275 57.427 9.383C57.673 9.485 57.868 9.632 58.012 9.824C58.162 10.01 58.267 10.235 58.327 10.499C58.387 10.763 58.417 11.054 58.417 11.372V14H57.58V11.552C57.58 11.264 57.559 11.018 57.517 10.814C57.481 10.61 57.418 10.445 57.328 10.319C57.238 10.193 57.118 10.103 56.968 10.049C56.818 9.989 56.632 9.959 56.41 9.959C56.32 9.959 56.227 9.962 56.131 9.968C56.035 9.974 55.942 9.983 55.852 9.995C55.768 10.001 55.69 10.01 55.618 10.022C55.552 10.034 55.504 10.043 55.474 10.049V14H54.637V9.455ZM60.894 13.397C61.236 13.397 61.488 13.352 61.65 13.262C61.818 13.172 61.902 13.028 61.902 12.83C61.902 12.626 61.821 12.464 61.659 12.344C61.497 12.224 61.23 12.089 60.858 11.939C60.678 11.867 60.504 11.795 60.336 11.723C60.174 11.645 60.033 11.555 59.913 11.453C59.793 11.351 59.697 11.228 59.625 11.084C59.553 10.94 59.517 10.763 59.517 10.553C59.517 10.139 59.67 9.812 59.976 9.572C60.282 9.326 60.699 9.203 61.227 9.203C61.359 9.203 61.491 9.212 61.623 9.23C61.755 9.242 61.878 9.26 61.992 9.284C62.106 9.302 62.205 9.323 62.289 9.347C62.379 9.371 62.448 9.392 62.496 9.41L62.343 10.13C62.253 10.082 62.112 10.034 61.92 9.986C61.728 9.932 61.497 9.905 61.227 9.905C60.993 9.905 60.789 9.953 60.615 10.049C60.441 10.139 60.354 10.283 60.354 10.481C60.354 10.583 60.372 10.673 60.408 10.751C60.45 10.829 60.51 10.901 60.588 10.967C60.672 11.027 60.774 11.084 60.894 11.138C61.014 11.192 61.158 11.249 61.326 11.309C61.548 11.393 61.746 11.477 61.92 11.561C62.094 11.639 62.241 11.732 62.361 11.84C62.487 11.948 62.583 12.08 62.649 12.236C62.715 12.386 62.748 12.572 62.748 12.794C62.748 13.226 62.586 13.553 62.262 13.775C61.944 13.997 61.488 14.108 60.894 14.108C60.48 14.108 60.156 14.072 59.922 14C59.688 13.934 59.529 13.883 59.445 13.847L59.598 13.127C59.694 13.163 59.847 13.217 60.057 13.289C60.267 13.361 60.546 13.397 60.894 13.397ZM64.6046 9.32H66.3776V10.022H64.6046V12.182C64.6046 12.416 64.6226 12.611 64.6586 12.767C64.6946 12.917 64.7486 13.037 64.8206 13.127C64.8926 13.211 64.9826 13.271 65.0906 13.307C65.1986 13.343 65.3246 13.361 65.4686 13.361C65.7206 13.361 65.9216 13.334 66.0716 13.28C66.2276 13.22 66.3356 13.178 66.3956 13.154L66.5576 13.847C66.4736 13.889 66.3266 13.94 66.1166 14C65.9066 14.066 65.6666 14.099 65.3966 14.099C65.0786 14.099 64.8146 14.06 64.6046 13.982C64.4006 13.898 64.2356 13.775 64.1096 13.613C63.9836 13.451 63.8936 13.253 63.8396 13.019C63.7916 12.779 63.7676 12.503 63.7676 12.191V8.015L64.6046 7.871V9.32ZM69.0267 13.397C69.2247 13.397 69.3987 13.394 69.5487 13.388C69.7047 13.376 69.8337 13.358 69.9357 13.334V11.939C69.8757 11.909 69.7767 11.885 69.6387 11.867C69.5067 11.843 69.3447 11.831 69.1527 11.831C69.0267 11.831 68.8917 11.84 68.7477 11.858C68.6097 11.876 68.4807 11.915 68.3607 11.975C68.2467 12.029 68.1507 12.107 68.0727 12.209C67.9947 12.305 67.9557 12.434 67.9557 12.596C67.9557 12.896 68.0517 13.106 68.2437 13.226C68.4357 13.34 68.6967 13.397 69.0267 13.397ZM68.9547 9.203C69.2907 9.203 69.5727 9.248 69.8007 9.338C70.0347 9.422 70.2207 9.545 70.3587 9.707C70.5027 9.863 70.6047 10.052 70.6647 10.274C70.7247 10.49 70.7547 10.73 70.7547 10.994V13.919C70.6827 13.931 70.5807 13.949 70.4487 13.973C70.3227 13.991 70.1787 14.009 70.0167 14.027C69.8547 14.045 69.6777 14.06 69.4857 14.072C69.2997 14.09 69.1137 14.099 68.9277 14.099C68.6637 14.099 68.4207 14.072 68.1987 14.018C67.9767 13.964 67.7847 13.88 67.6227 13.766C67.4607 13.646 67.3347 13.49 67.2447 13.298C67.1547 13.106 67.1097 12.875 67.1097 12.605C67.1097 12.347 67.1607 12.125 67.2627 11.939C67.3707 11.753 67.5147 11.603 67.6947 11.489C67.8747 11.375 68.0847 11.291 68.3247 11.237C68.5647 11.183 68.8167 11.156 69.0807 11.156C69.1647 11.156 69.2517 11.162 69.3417 11.174C69.4317 11.18 69.5157 11.192 69.5937 11.21C69.6777 11.222 69.7497 11.234 69.8097 11.246C69.8697 11.258 69.9117 11.267 69.9357 11.273V11.039C69.9357 10.901 69.9207 10.766 69.8907 10.634C69.8607 10.496 69.8067 10.376 69.7287 10.274C69.6507 10.166 69.5427 10.082 69.4047 10.022C69.2727 9.956 69.0987 9.923 68.8827 9.923C68.6067 9.923 68.3637 9.944 68.1537 9.986C67.9497 10.022 67.7967 10.061 67.6947 10.103L67.5957 9.41C67.7037 9.362 67.8837 9.317 68.1357 9.275C68.3877 9.227 68.6607 9.203 68.9547 9.203ZM73.5488 14.09C73.0328 14.078 72.6668 13.967 72.4508 13.757C72.2348 13.547 72.1268 13.22 72.1268 12.776V7.16L72.9638 7.016V12.641C72.9638 12.779 72.9758 12.893 72.9998 12.983C73.0238 13.073 73.0628 13.145 73.1168 13.199C73.1708 13.253 73.2428 13.295 73.3328 13.325C73.4228 13.349 73.5338 13.37 73.6658 13.388L73.5488 14.09ZM76.0097 14.09C75.4937 14.078 75.1277 13.967 74.9117 13.757C74.6957 13.547 74.5877 13.22 74.5877 12.776V7.16L75.4247 7.016V12.641C75.4247 12.779 75.4367 12.893 75.4607 12.983C75.4847 13.073 75.5237 13.145 75.5777 13.199C75.6317 13.253 75.7037 13.295 75.7937 13.325C75.8837 13.349 75.9947 13.37 76.1267 13.388L76.0097 14.09ZM78.6507 13.397C78.8487 13.397 79.0227 13.394 79.1727 13.388C79.3287 13.376 79.4577 13.358 79.5597 13.334V11.939C79.4997 11.909 79.4007 11.885 79.2627 11.867C79.1307 11.843 78.9687 11.831 78.7767 11.831C78.6507 11.831 78.5157 11.84 78.3717 11.858C78.2337 11.876 78.1047 11.915 77.9847 11.975C77.8707 12.029 77.7747 12.107 77.6967 12.209C77.6187 12.305 77.5797 12.434 77.5797 12.596C77.5797 12.896 77.6757 13.106 77.8677 13.226C78.0597 13.34 78.3207 13.397 78.6507 13.397ZM78.5787 9.203C78.9147 9.203 79.1967 9.248 79.4247 9.338C79.6587 9.422 79.8447 9.545 79.9827 9.707C80.1267 9.863 80.2287 10.052 80.2887 10.274C80.3487 10.49 80.3787 10.73 80.3787 10.994V13.919C80.3067 13.931 80.2047 13.949 80.0727 13.973C79.9467 13.991 79.8027 14.009 79.6407 14.027C79.4787 14.045 79.3017 14.06 79.1097 14.072C78.9237 14.09 78.7377 14.099 78.5517 14.099C78.2877 14.099 78.0447 14.072 77.8227 14.018C77.6007 13.964 77.4087 13.88 77.2467 13.766C77.0847 13.646 76.9587 13.49 76.8687 13.298C76.7787 13.106 76.7337 12.875 76.7337 12.605C76.7337 12.347 76.7847 12.125 76.8867 11.939C76.9947 11.753 77.1387 11.603 77.3187 11.489C77.4987 11.375 77.7087 11.291 77.9487 11.237C78.1887 11.183 78.4407 11.156 78.7047 11.156C78.7887 11.156 78.8757 11.162 78.9657 11.174C79.0557 11.18 79.1397 11.192 79.2177 11.21C79.3017 11.222 79.3737 11.234 79.4337 11.246C79.4937 11.258 79.5357 11.267 79.5597 11.273V11.039C79.5597 10.901 79.5447 10.766 79.5147 10.634C79.4847 10.496 79.4307 10.376 79.3527 10.274C79.2747 10.166 79.1667 10.082 79.0287 10.022C78.8967 9.956 78.7227 9.923 78.5067 9.923C78.2307 9.923 77.9877 9.944 77.7777 9.986C77.5737 10.022 77.4207 10.061 77.3187 10.103L77.2197 9.41C77.3277 9.362 77.5077 9.317 77.7597 9.275C78.0117 9.227 78.2847 9.203 78.5787 9.203ZM82.5518 9.32H84.3248V10.022H82.5518V12.182C82.5518 12.416 82.5698 12.611 82.6058 12.767C82.6418 12.917 82.6958 13.037 82.7678 13.127C82.8398 13.211 82.9298 13.271 83.0378 13.307C83.1458 13.343 83.2718 13.361 83.4158 13.361C83.6678 13.361 83.8688 13.334 84.0188 13.28C84.1748 13.22 84.2828 13.178 84.3428 13.154L84.5048 13.847C84.4208 13.889 84.2738 13.94 84.0638 14C83.8538 14.066 83.6138 14.099 83.3438 14.099C83.0258 14.099 82.7618 14.06 82.5518 13.982C82.3478 13.898 82.1828 13.775 82.0568 13.613C81.9308 13.451 81.8408 13.253 81.7868 13.019C81.7388 12.779 81.7148 12.503 81.7148 12.191V8.015L82.5518 7.871V9.32ZM86.2269 14H85.3899V9.32H86.2269V14ZM85.8039 8.474C85.6539 8.474 85.5249 8.426 85.4169 8.33C85.3149 8.228 85.2639 8.093 85.2639 7.925C85.2639 7.757 85.3149 7.625 85.4169 7.529C85.5249 7.427 85.6539 7.376 85.8039 7.376C85.9539 7.376 86.0799 7.427 86.1819 7.529C86.2899 7.625 86.3439 7.757 86.3439 7.925C86.3439 8.093 86.2899 8.228 86.1819 8.33C86.0799 8.426 85.9539 8.474 85.8039 8.474ZM91.7973 11.66C91.7973 12.032 91.7433 12.368 91.6353 12.668C91.5273 12.968 91.3743 13.226 91.1763 13.442C90.9843 13.658 90.7533 13.826 90.4833 13.946C90.2133 14.06 89.9193 14.117 89.6013 14.117C89.2833 14.117 88.9893 14.06 88.7193 13.946C88.4493 13.826 88.2153 13.658 88.0173 13.442C87.8253 13.226 87.6753 12.968 87.5673 12.668C87.4593 12.368 87.4053 12.032 87.4053 11.66C87.4053 11.294 87.4593 10.961 87.5673 10.661C87.6753 10.355 87.8253 10.094 88.0173 9.878C88.2153 9.662 88.4493 9.497 88.7193 9.383C88.9893 9.263 89.2833 9.203 89.6013 9.203C89.9193 9.203 90.2133 9.263 90.4833 9.383C90.7533 9.497 90.9843 9.662 91.1763 9.878C91.3743 10.094 91.5273 10.355 91.6353 10.661C91.7433 10.961 91.7973 11.294 91.7973 11.66ZM90.9243 11.66C90.9243 11.132 90.8043 10.715 90.5643 10.409C90.3303 10.097 90.0093 9.941 89.6013 9.941C89.1933 9.941 88.8693 10.097 88.6293 10.409C88.3953 10.715 88.2783 11.132 88.2783 11.66C88.2783 12.188 88.3953 12.608 88.6293 12.92C88.8693 13.226 89.1933 13.379 89.6013 13.379C90.0093 13.379 90.3303 13.226 90.5643 12.92C90.8043 12.608 90.9243 12.188 90.9243 11.66ZM92.9749 9.455C93.1669 9.407 93.4219 9.356 93.7399 9.302C94.0579 9.248 94.4239 9.221 94.8379 9.221C95.2099 9.221 95.5189 9.275 95.7649 9.383C96.0109 9.485 96.2059 9.632 96.3499 9.824C96.4999 10.01 96.6049 10.235 96.6649 10.499C96.7249 10.763 96.7549 11.054 96.7549 11.372V14H95.9179V11.552C95.9179 11.264 95.8969 11.018 95.8549 10.814C95.8189 10.61 95.7559 10.445 95.6659 10.319C95.5759 10.193 95.4559 10.103 95.3059 10.049C95.1559 9.989 94.9699 9.959 94.7479 9.959C94.6579 9.959 94.5649 9.962 94.4689 9.968C94.3729 9.974 94.2799 9.983 94.1899 9.995C94.1059 10.001 94.0279 10.01 93.9559 10.022C93.8899 10.034 93.8419 10.043 93.8119 10.049V14H92.9749V9.455ZM104.357 11.66C104.357 12.032 104.303 12.368 104.195 12.668C104.087 12.968 103.934 13.226 103.736 13.442C103.544 13.658 103.313 13.826 103.043 13.946C102.773 14.06 102.479 14.117 102.161 14.117C101.843 14.117 101.549 14.06 101.279 13.946C101.009 13.826 100.775 13.658 100.577 13.442C100.385 13.226 100.235 12.968 100.127 12.668C100.019 12.368 99.9649 12.032 99.9649 11.66C99.9649 11.294 100.019 10.961 100.127 10.661C100.235 10.355 100.385 10.094 100.577 9.878C100.775 9.662 101.009 9.497 101.279 9.383C101.549 9.263 101.843 9.203 102.161 9.203C102.479 9.203 102.773 9.263 103.043 9.383C103.313 9.497 103.544 9.662 103.736 9.878C103.934 10.094 104.087 10.355 104.195 10.661C104.303 10.961 104.357 11.294 104.357 11.66ZM103.484 11.66C103.484 11.132 103.364 10.715 103.124 10.409C102.89 10.097 102.569 9.941 102.161 9.941C101.753 9.941 101.429 10.097 101.189 10.409C100.955 10.715 100.838 11.132 100.838 11.66C100.838 12.188 100.955 12.608 101.189 12.92C101.429 13.226 101.753 13.379 102.161 13.379C102.569 13.379 102.89 13.226 103.124 12.92C103.364 12.608 103.484 12.188 103.484 11.66ZM105.534 9.455C105.726 9.407 105.981 9.356 106.299 9.302C106.617 9.248 106.983 9.221 107.397 9.221C107.769 9.221 108.078 9.275 108.324 9.383C108.57 9.485 108.765 9.632 108.909 9.824C109.059 10.01 109.164 10.235 109.224 10.499C109.284 10.763 109.314 11.054 109.314 11.372V14H108.477V11.552C108.477 11.264 108.456 11.018 108.414 10.814C108.378 10.61 108.315 10.445 108.225 10.319C108.135 10.193 108.015 10.103 107.865 10.049C107.715 9.989 107.529 9.959 107.307 9.959C107.217 9.959 107.124 9.962 107.028 9.968C106.932 9.974 106.839 9.983 106.749 9.995C106.665 10.001 106.587 10.01 106.515 10.022C106.449 10.034 106.401 10.043 106.371 10.049V14H105.534V9.455ZM116.592 13.244V14H112.839V7.763H113.712V13.244H116.592ZM118.289 14H117.452V9.32H118.289V14ZM117.866 8.474C117.716 8.474 117.587 8.426 117.479 8.33C117.377 8.228 117.326 8.093 117.326 7.925C117.326 7.757 117.377 7.625 117.479 7.529C117.587 7.427 117.716 7.376 117.866 7.376C118.016 7.376 118.142 7.427 118.244 7.529C118.352 7.625 118.406 7.757 118.406 7.925C118.406 8.093 118.352 8.228 118.244 8.33C118.142 8.426 118.016 8.474 117.866 8.474ZM119.729 9.455C119.921 9.407 120.176 9.356 120.494 9.302C120.812 9.248 121.178 9.221 121.592 9.221C121.964 9.221 122.273 9.275 122.519 9.383C122.765 9.485 122.96 9.632 123.104 9.824C123.254 10.01 123.359 10.235 123.419 10.499C123.479 10.763 123.509 11.054 123.509 11.372V14H122.672V11.552C122.672 11.264 122.651 11.018 122.609 10.814C122.573 10.61 122.51 10.445 122.42 10.319C122.33 10.193 122.21 10.103 122.06 10.049C121.91 9.989 121.724 9.959 121.502 9.959C121.412 9.959 121.319 9.962 121.223 9.968C121.127 9.974 121.034 9.983 120.944 9.995C120.86 10.001 120.782 10.01 120.71 10.022C120.644 10.034 120.596 10.043 120.566 10.049V14H119.729V9.455ZM128.623 13.865C128.431 13.913 128.176 13.964 127.858 14.018C127.546 14.072 127.183 14.099 126.769 14.099C126.409 14.099 126.106 14.048 125.86 13.946C125.614 13.838 125.416 13.688 125.266 13.496C125.116 13.304 125.008 13.079 124.942 12.821C124.876 12.557 124.843 12.266 124.843 11.948V9.32H125.68V11.768C125.68 12.338 125.77 12.746 125.95 12.992C126.13 13.238 126.433 13.361 126.859 13.361C126.949 13.361 127.042 13.358 127.138 13.352C127.234 13.346 127.324 13.34 127.408 13.334C127.492 13.322 127.567 13.313 127.633 13.307C127.705 13.295 127.756 13.283 127.786 13.271V9.32H128.623V13.865ZM132.864 14C132.798 13.868 132.717 13.721 132.621 13.559C132.525 13.397 132.42 13.232 132.306 13.064C132.192 12.89 132.075 12.719 131.955 12.551C131.835 12.383 131.718 12.224 131.604 12.074C131.49 12.224 131.373 12.386 131.253 12.56C131.133 12.728 131.016 12.899 130.902 13.073C130.794 13.241 130.692 13.406 130.596 13.568C130.5 13.73 130.419 13.874 130.353 14H129.489C129.699 13.592 129.948 13.178 130.236 12.758C130.53 12.332 130.821 11.927 131.109 11.543L129.561 9.32H130.506L131.622 10.958L132.747 9.32H133.638L132.126 11.489C132.414 11.879 132.708 12.293 133.008 12.731C133.314 13.163 133.572 13.586 133.782 14H132.864Z" fill="#333333"/>
<path d="M55.053 29.232C55.1777 29.2433 55.342 29.2547 55.546 29.266C55.75 29.266 56.0277 29.266 56.379 29.266C57.8183 29.266 58.8893 28.9033 59.592 28.178C60.306 27.4413 60.663 26.4157 60.663 25.101C60.663 23.7637 60.3173 22.738 59.626 22.024C58.9347 21.31 57.8637 20.953 56.413 20.953C55.7783 20.953 55.325 20.97 55.053 21.004V29.232ZM62.907 25.101C62.907 26.121 62.7483 27.0107 62.431 27.77C62.1137 28.518 61.6603 29.147 61.071 29.657C60.493 30.1557 59.7903 30.5297 58.963 30.779C58.147 31.017 57.2403 31.136 56.243 31.136C55.767 31.136 55.2287 31.1133 54.628 31.068C54.0273 31.034 53.455 30.9547 52.911 30.83V19.389C53.455 19.2643 54.033 19.185 54.645 19.151C55.257 19.117 55.801 19.1 56.277 19.1C57.263 19.1 58.164 19.219 58.98 19.457C59.796 19.6837 60.493 20.0463 61.071 20.545C61.6603 21.0323 62.1137 21.6557 62.431 22.415C62.7483 23.163 62.907 24.0583 62.907 25.101ZM73.185 26.546C73.185 27.2487 73.083 27.889 72.879 28.467C72.675 29.045 72.386 29.538 72.012 29.946C71.638 30.354 71.1846 30.6713 70.652 30.898C70.1306 31.1247 69.5526 31.238 68.918 31.238C68.2833 31.238 67.7053 31.1247 67.184 30.898C66.6626 30.6713 66.215 30.354 65.841 29.946C65.467 29.538 65.1723 29.045 64.957 28.467C64.753 27.889 64.651 27.2487 64.651 26.546C64.651 25.8433 64.753 25.2087 64.957 24.642C65.1723 24.064 65.467 23.571 65.841 23.163C66.2263 22.755 66.6796 22.4433 67.201 22.228C67.7223 22.0013 68.2946 21.888 68.918 21.888C69.5413 21.888 70.1136 22.0013 70.635 22.228C71.1676 22.4433 71.621 22.755 71.995 23.163C72.369 23.571 72.658 24.064 72.862 24.642C73.0773 25.2087 73.185 25.8433 73.185 26.546ZM71.077 26.546C71.077 25.662 70.8843 24.965 70.499 24.455C70.125 23.9337 69.598 23.673 68.918 23.673C68.238 23.673 67.7053 23.9337 67.32 24.455C66.946 24.965 66.759 25.662 66.759 26.546C66.759 27.4413 66.946 28.1497 67.32 28.671C67.7053 29.1923 68.238 29.453 68.918 29.453C69.598 29.453 70.125 29.1923 70.499 28.671C70.8843 28.1497 71.077 27.4413 71.077 26.546ZM80.4255 25.407C80.1648 26.4043 79.8815 27.379 79.5755 28.331C79.2808 29.2717 78.9862 30.1613 78.6915 31H77.0085C76.7818 30.4787 76.5438 29.8837 76.2945 29.215C76.0452 28.5463 75.7958 27.8323 75.5465 27.073C75.2972 26.3137 75.0478 25.5147 74.7985 24.676C74.5492 23.8373 74.3055 22.9817 74.0675 22.109H76.2435C76.3455 22.585 76.4645 23.1007 76.6005 23.656C76.7365 24.2 76.8782 24.761 77.0255 25.339C77.1728 25.9057 77.3258 26.461 77.4845 27.005C77.6432 27.549 77.8018 28.0477 77.9605 28.501C78.1305 27.9797 78.2948 27.4413 78.4535 26.886C78.6235 26.3307 78.7822 25.7753 78.9295 25.22C79.0768 24.6647 79.2128 24.1263 79.3375 23.605C79.4735 23.0723 79.5925 22.5737 79.6945 22.109H81.2755C81.3775 22.5737 81.4908 23.0723 81.6155 23.605C81.7402 24.1263 81.8705 24.6647 82.0065 25.22C82.1538 25.7753 82.3068 26.3307 82.4655 26.886C82.6355 27.4413 82.8055 27.9797 82.9755 28.501C83.1228 28.0477 83.2758 27.549 83.4345 27.005C83.5932 26.461 83.7462 25.9057 83.8935 25.339C84.0522 24.761 84.1995 24.2 84.3355 23.656C84.4715 23.1007 84.5905 22.585 84.6925 22.109H86.8175C86.5795 22.9817 86.3358 23.8373 86.0865 24.676C85.8372 25.5147 85.5878 26.3137 85.3385 27.073C85.0892 27.8323 84.8398 28.5463 84.5905 29.215C84.3412 29.8837 84.0975 30.4787 83.8595 31H82.1935C81.8988 30.1613 81.5928 29.2717 81.2755 28.331C80.9695 27.379 80.6862 26.4043 80.4255 25.407ZM88.3861 22.398C88.7828 22.2847 89.2985 22.177 89.9331 22.075C90.5678 21.973 91.2705 21.922 92.0411 21.922C92.7665 21.922 93.3728 22.024 93.8601 22.228C94.3475 22.4207 94.7328 22.6983 95.0161 23.061C95.3108 23.4123 95.5148 23.843 95.6281 24.353C95.7528 24.8517 95.8151 25.4013 95.8151 26.002V31H93.7581V26.325C93.7581 25.849 93.7241 25.4467 93.6561 25.118C93.5995 24.778 93.4975 24.506 93.3501 24.302C93.2141 24.0867 93.0215 23.9337 92.7721 23.843C92.5341 23.741 92.2395 23.69 91.8881 23.69C91.6275 23.69 91.3555 23.707 91.0721 23.741C90.7888 23.775 90.5791 23.8033 90.4431 23.826V31H88.3861V22.398ZM101.424 31.17C100.812 31.1587 100.302 31.0907 99.8945 30.966C99.4978 30.8413 99.1805 30.6657 98.9425 30.439C98.7045 30.201 98.5345 29.912 98.4325 29.572C98.3418 29.2207 98.2965 28.824 98.2965 28.382V18.148L100.353 17.808V27.991C100.353 28.2403 100.37 28.45 100.404 28.62C100.45 28.79 100.523 28.9373 100.625 29.062C100.727 29.1753 100.863 29.266 101.033 29.334C101.215 29.3907 101.441 29.436 101.713 29.47L101.424 31.17ZM111.418 26.546C111.418 27.2487 111.316 27.889 111.112 28.467C110.908 29.045 110.619 29.538 110.245 29.946C109.871 30.354 109.418 30.6713 108.885 30.898C108.364 31.1247 107.786 31.238 107.151 31.238C106.517 31.238 105.939 31.1247 105.417 30.898C104.896 30.6713 104.448 30.354 104.074 29.946C103.7 29.538 103.406 29.045 103.19 28.467C102.986 27.889 102.884 27.2487 102.884 26.546C102.884 25.8433 102.986 25.2087 103.19 24.642C103.406 24.064 103.7 23.571 104.074 23.163C104.46 22.755 104.913 22.4433 105.434 22.228C105.956 22.0013 106.528 21.888 107.151 21.888C107.775 21.888 108.347 22.0013 108.868 22.228C109.401 22.4433 109.854 22.755 110.228 23.163C110.602 23.571 110.891 24.064 111.095 24.642C111.311 25.2087 111.418 25.8433 111.418 26.546ZM109.31 26.546C109.31 25.662 109.118 24.965 108.732 24.455C108.358 23.9337 107.831 23.673 107.151 23.673C106.471 23.673 105.939 23.9337 105.553 24.455C105.179 24.965 104.992 25.662 104.992 26.546C104.992 27.4413 105.179 28.1497 105.553 28.671C105.939 29.1923 106.471 29.453 107.151 29.453C107.831 29.453 108.358 29.1923 108.732 28.671C109.118 28.1497 109.31 27.4413 109.31 26.546ZM116.666 29.555C117.3 29.555 117.782 29.521 118.111 29.453V27.175C117.997 27.141 117.833 27.107 117.618 27.073C117.402 27.039 117.164 27.022 116.904 27.022C116.677 27.022 116.445 27.039 116.207 27.073C115.98 27.107 115.77 27.1693 115.578 27.26C115.396 27.3507 115.249 27.481 115.136 27.651C115.022 27.8097 114.966 28.0137 114.966 28.263C114.966 28.7503 115.119 29.0903 115.425 29.283C115.731 29.4643 116.144 29.555 116.666 29.555ZM116.496 21.888C117.176 21.888 117.748 21.973 118.213 22.143C118.677 22.313 119.046 22.551 119.318 22.857C119.601 23.163 119.799 23.537 119.913 23.979C120.037 24.4097 120.1 24.8857 120.1 25.407V30.796C119.782 30.864 119.301 30.9433 118.655 31.034C118.02 31.136 117.3 31.187 116.496 31.187C115.963 31.187 115.476 31.136 115.034 31.034C114.592 30.932 114.212 30.7677 113.895 30.541C113.589 30.3143 113.345 30.0197 113.164 29.657C112.994 29.2943 112.909 28.8467 112.909 28.314C112.909 27.804 113.005 27.3733 113.198 27.022C113.402 26.6707 113.674 26.3873 114.014 26.172C114.354 25.9453 114.745 25.7867 115.187 25.696C115.64 25.594 116.11 25.543 116.598 25.543C116.824 25.543 117.062 25.56 117.312 25.594C117.561 25.6167 117.827 25.662 118.111 25.73V25.39C118.111 25.152 118.082 24.9253 118.026 24.71C117.969 24.4947 117.867 24.3077 117.72 24.149C117.584 23.979 117.397 23.8487 117.159 23.758C116.932 23.6673 116.643 23.622 116.292 23.622C115.816 23.622 115.379 23.656 114.983 23.724C114.586 23.792 114.263 23.8713 114.014 23.962L113.759 22.296C114.019 22.2053 114.399 22.1147 114.898 22.024C115.396 21.9333 115.929 21.888 116.496 21.888ZM124.234 26.529C124.234 27.4357 124.449 28.1497 124.88 28.671C125.31 29.181 125.905 29.436 126.665 29.436C126.993 29.436 127.271 29.4247 127.498 29.402C127.736 29.368 127.928 29.334 128.076 29.3V24.2C127.894 24.0753 127.651 23.962 127.345 23.86C127.05 23.7467 126.733 23.69 126.393 23.69C125.645 23.69 125.095 23.945 124.744 24.455C124.404 24.965 124.234 25.6563 124.234 26.529ZM130.133 30.728C129.725 30.8527 129.209 30.966 128.586 31.068C127.974 31.17 127.328 31.221 126.648 31.221C125.945 31.221 125.316 31.1133 124.761 30.898C124.205 30.6827 123.729 30.3767 123.333 29.98C122.947 29.572 122.647 29.0847 122.432 28.518C122.228 27.94 122.126 27.294 122.126 26.58C122.126 25.8773 122.211 25.2427 122.381 24.676C122.562 24.098 122.823 23.605 123.163 23.197C123.503 22.789 123.916 22.4773 124.404 22.262C124.891 22.0353 125.452 21.922 126.087 21.922C126.517 21.922 126.897 21.973 127.226 22.075C127.554 22.177 127.838 22.2903 128.076 22.415V18.148L130.133 17.808V30.728Z" fill="#333333"/>
<rect x="0.5" y="0.5" width="153" height="39" rx="3.5" stroke="#999999"/>
</svg>
