<svg xmlns="http://www.w3.org/2000/svg" width="48" height="48"><g fill="none"><path fill="#333" d="M21 36h6v3h10.5a1.5 1.5 0 011.5 1.5v3a1.5 1.5 0 01-1.5 1.5h-27A1.5 1.5 0 019 43.5v-3a1.5 1.5 0 011.5-1.5H21v-3z"/><g transform="translate(0 6)"><rect width="48" height="30" fill="#FF444F" rx="3"/><path fill="#FFF" fill-opacity=".56" d="M37.28 6.577a3.001 3.001 0 013.638 4.77l-.202.15-15 10.5a3 3 0 01-3.968-.465l-.157-.195-2.91-3.885-8.183 4.688a3 3 0 01-3.967-.915l-.135-.188a2.999 2.999 0 01.915-3.967l.202-.12 10.5-6a3 3 0 013.75.607l.158.195 2.76 3.675 12.6-8.85z"/></g><rect width="27" height="15" fill="#333" rx="1.545"/><path fill="#FFF" fill-opacity=".57" d="M6.697 3.755a3.22 3.22 0 011.193.217c.349.133.666.337.93.6.26.258.448.578.547.93l-1.297.285a1.497 1.497 0 00-.51-.742 1.564 1.564 0 00-.9-.24c-.206.002-.41.045-.6.127-.188.06-.354.171-.48.323a.749.749 0 00-.165.487.75.75 0 00.33.63c.307.197.652.327 1.013.383l.42.082c1.545.308 2.317 1.013 2.317 2.1a1.99 1.99 0 01-.21.915c-.14.293-.345.55-.6.75-.27.208-.575.365-.9.465a3.661 3.661 0 01-2.4-.03 2.85 2.85 0 01-.997-.607 2.25 2.25 0 01-.578-.983l1.305-.285c.101.31.308.576.585.75.288.178.622.266.96.255.258.01.514-.039.75-.142.198-.085.373-.216.51-.383a.9.9 0 00.188-.562.802.802 0 00-.316-.645 2.326 2.326 0 00-.982-.42l-.42-.075a3.573 3.573 0 01-1.83-.773 1.732 1.732 0 01-.577-1.305c-.005-.3.067-.597.21-.862.14-.261.33-.49.562-.675.256-.2.546-.352.855-.45.354-.099.72-.14 1.087-.12zm9.638 0v1.11h-2.348v6.315H12.6V4.865h-2.355v-1.11h6.09zm3.742 0a4.091 4.091 0 011.658.3c.428.17.796.461 1.058.84.251.393.38.853.367 1.32.011.46-.125.912-.39 1.29-.273.38-.651.675-1.087.847a4.205 4.205 0 01-1.666.3h-.48c-.172 0-.352 0-.54-.052v2.58h-1.364V3.755h2.445zm-.022 1.057l-1.058.023V7.43l.503.052h.465c.468.026.932-.095 1.328-.345.304-.236.474-.605.457-.99a1.192 1.192 0 00-.442-.982 1.944 1.944 0 00-1.253-.353z"/></g></svg>