<svg width="48" height="48" fill="none" xmlns="http://www.w3.org/2000/svg"><g clip-path="url(#a)"><mask id="b" style="mask-type:alpha" maskUnits="userSpaceOnUse" x="0" y="0" width="48" height="48"><path d="M0 9a9 9 0 0 1 9-9h30a9 9 0 0 1 9 9v30a9 9 0 0 1-9 9H9a9 9 0 0 1-9-9V9Z" fill="#fff"/></mask><g mask="url(#b)"><path fill="#333" d="M0 0h48v18H0z"/><path d="m9.572 8.376.17 2.39h.88l-.4-4.474H9.08l-.607 2.22c-.022.123-.05.244-.08.364-.028.12-.057.24-.078.364-.029-.108-.05-.219-.07-.33-.025-.125-.049-.251-.084-.376l-.585-2.242H6.421L6 10.76h.892l.153-2.335c.016-.268.027-.536.032-.804.044.268.11.53.181.793l.64 2.352h.766l.705-2.45c.066-.23.126-.455.17-.69.005.252.016.498.033.75Z" fill="#fff"/><path fill-rule="evenodd" clip-rule="evenodd" d="M12.81 10.197c-.498 0-.706-.345-.706-.81h1.903c0-.951-.197-1.996-1.389-1.996-.623 0-1.11.361-1.335.952-.17.448-.164 1.121.017 1.559.252.601.777.94 1.427.94.454 0 .892-.17 1.242-.46l-.334-.513c-.24.191-.514.328-.825.328Zm-.176-2.177c.247 0 .438.18.465.427.011.104.017.208.017.311h-.996c0-.098.011-.196.028-.295.038-.252.224-.443.486-.443Z" fill="#fff"/><path d="M14.828 10.59c.36.345 1.017.302 1.438.105l-.115-.525a.799.799 0 0 1-.339.065c-.317 0-.339-.262-.339-.525V8.058h.553l.218-.59h-.77c0-.334.021-.662.048-.996l-.875.219c-.036.214-.035.432-.033.648v.129h-.328v.596h.328v1.788c0 .268.006.536.214.739Z" fill="#fff"/><path fill-rule="evenodd" clip-rule="evenodd" d="M18.52 10.536a.975.975 0 0 0 .465.4l.459-.537c-.29-.202-.312-.415-.312-.733V8.562c0-.75-.284-1.17-1.127-1.17-.497 0-.995.207-1.41.47l.371.617c.268-.202.613-.377.957-.377.329 0 .378.202.378.498v.137c-.52-.066-1.367.032-1.646.557a1.196 1.196 0 0 0-.132.57c0 .672.47 1.027 1.132 1.027.367 0 .613-.103.865-.355Zm-1.072-.678c-.011-.159.032-.323.147-.41.167-.135.477-.127.68-.121h.01l-.012.711a.608.608 0 0 1-.448.224c-.23 0-.361-.19-.377-.404Z" fill="#fff"/><path d="M21.714 7.03h1.066l.153-.738h-3.227v.738H20.8v3.736h.914V7.03ZM24.875 7.462l-.24.76c-.263-.17-.597 0-.777.214v2.33h-.864V8.567c0-.323-.011-.662-.12-.968l.77-.208c.088.142.126.306.137.47.252-.328.684-.612 1.094-.399Z" fill="#fff"/><path fill-rule="evenodd" clip-rule="evenodd" d="M26.932 10.536a.975.975 0 0 0 .465.4l.459-.537c-.284-.202-.312-.404-.312-.733V8.562c0-.777-.3-1.17-1.127-1.17-.497 0-.995.207-1.41.47l.366.623c.268-.202.612-.377.957-.377.38 0 .379.301.378.585v.044c-.372-.044-.86.01-1.204.17-.4.185-.574.524-.574.956 0 .192.033.35.098.476.214.41.585.553 1.04.553.355 0 .607-.099.864-.356Zm-1.072-.727c0-.137.032-.274.147-.361.159-.128.445-.127.647-.126h.042l-.01.71a.608.608 0 0 1-.449.225c-.252 0-.377-.219-.377-.448ZM30.366 10.574c0 .066.017.132.05.192h.755c-.128-.318-.125-.697-.122-1.045l.001-.159V6.14l-.848-.137v1.132c0 .159 0 .317.028.476-.153-.164-.367-.219-.585-.219-.4 0-.783.17-1.034.481-.285.361-.378.854-.378 1.302 0 .421.082.859.356 1.193.252.322.613.475 1.017.475.29 0 .536-.087.76-.268Zm-.623-2.461c.186 0 .345.088.481.213h.006v1.581a.583.583 0 0 1-.46.213c-.547 0-.569-.541-.569-.94 0-.367.028-1.067.542-1.067Z" fill="#fff"/><path d="M36.082 8.436c.18-.214.514-.383.777-.214l.24-.765c-.41-.214-.842.07-1.093.399a1.02 1.02 0 0 0-.137-.47l-.772.207c.105.307.12.651.12.969v2.204h.865v-2.33Z" fill="#fff"/><path fill-rule="evenodd" clip-rule="evenodd" d="M33.407 10.197c-.497 0-.705-.345-.705-.81h1.903c0-.175 0-.35-.01-.525-.06-.847-.504-1.47-1.379-1.47-.629 0-1.11.366-1.335.95-.076.198-.114.455-.114.766 0 .47.109.947.443 1.297.295.295.7.437 1.115.437.454 0 .892-.17 1.242-.46l-.334-.513c-.235.191-.52.328-.825.328Zm-.18-2.177c.142 0 .274.06.361.17.126.164.126.372.12.563h-.995c0-.202.022-.416.153-.574a.449.449 0 0 1 .361-.159Z" fill="#fff"/><path d="M41.24 11.378c.481-.393.76-.951.76-1.575 0-1.165-1.105-1.838-2.215-1.63l.12-1.187h1.772l.093-.984h-2.937l-.284 3.27h.002c.389-.12.95-.295 1.414-.23.476.066.782.417.782.903 0 .826-.803 1.258-1.558 1.258-.268 0-.558-.043-.826-.136l-.066.738c.312.131.657.191.99.191.69 0 1.406-.18 1.953-.618Z" fill="#fff"/><path fill="#FF6444" d="M0 18h48v30H0z"/><path d="M23.743 30.482a2.4 2.4 0 1 0-4.286 0l-3.975 3.975a2.4 2.4 0 1 0 1.06 1.06l3.976-3.974a2.39 2.39 0 0 0 1.082.257c.39 0 .757-.093 1.082-.257l2.775 2.775a2.4 2.4 0 1 0 4.286 0l2.775-2.775a2.4 2.4 0 1 0-1.06-1.06l-2.776 2.774A2.39 2.39 0 0 0 27.6 33c-.39 0-.757.093-1.082.257l-2.775-2.775Z" fill="#fff"/></g></g><defs><clipPath id="a"><path fill="#fff" d="M0 0h48v48H0z"/></clipPath></defs></svg>