<svg width="48" height="48" viewBox="0 0 32 32" fill="none" xmlns="http://www.w3.org/2000/svg">
<path d="M26 0H6C2.68629 0 0 2.68629 0 6V23.5H32V6C32 2.68629 29.3137 0 26 0Z" fill="#0364B9"/>
<path d="M6 0C2.68629 0 0 2.68629 0 6V6.17428L29.9144 1.45264C28.8637 0.547333 27.4958 0 26 0H6Z" fill="#0A559E"/>
<path d="M32 6C32 4.49576 31.4465 3.12045 30.532 2.06738L26.6028 23.4996L32 23.5V6Z" fill="#0A559E"/>
<path d="M0 23H32V26C32 29.3137 29.3137 32 26 32H6C2.68629 32 0 29.3137 0 26V23Z" fill="#00CCCC"/>
<path d="M7.34613 9.684C7.49013 9.948 7.65413 10.276 7.83813 10.668C8.03013 11.052 8.22613 11.472 8.42613 11.928C8.63413 12.376 8.83813 12.836 9.03813 13.308C9.23813 13.78 9.42613 14.224 9.60213 14.64C9.77813 14.224 9.96613 13.78 10.1661 13.308C10.3661 12.836 10.5661 12.376 10.7661 11.928C10.9741 11.472 11.1701 11.052 11.3541 10.668C11.5461 10.276 11.7141 9.948 11.8581 9.684H13.5621C13.6421 10.236 13.7141 10.856 13.7781 11.544C13.8501 12.224 13.9101 12.936 13.9581 13.68C14.0141 14.416 14.0621 15.156 14.1021 15.9C14.1501 16.644 14.1901 17.344 14.2221 18H12.3981C12.3741 17.192 12.3421 16.312 12.3021 15.36C12.2621 14.408 12.2021 13.448 12.1221 12.48C11.9781 12.816 11.8181 13.188 11.6421 13.596C11.4661 14.004 11.2901 14.412 11.1141 14.82C10.9461 15.228 10.7821 15.62 10.6221 15.996C10.4621 16.364 10.3261 16.68 10.2141 16.944H8.90613C8.79413 16.68 8.65813 16.364 8.49813 15.996C8.33813 15.62 8.17013 15.228 7.99413 14.82C7.82613 14.412 7.65413 14.004 7.47813 13.596C7.30213 13.188 7.14213 12.816 6.99813 12.48C6.91813 13.448 6.85813 14.408 6.81813 15.36C6.77813 16.312 6.74613 17.192 6.72213 18H4.89813C4.93013 17.344 4.96613 16.644 5.00613 15.9C5.05413 15.156 5.10213 14.416 5.15013 13.68C5.20613 12.936 5.26613 12.224 5.33013 11.544C5.40213 10.856 5.47813 10.236 5.55813 9.684H7.34613Z" fill="white"/>
<path d="M21.3585 9.684V11.28H18.8505V18H16.9785V11.28H14.4705V9.684H21.3585Z" fill="white"/>
<path d="M25.3216 15.552C25.3216 15.32 25.2696 15.116 25.1656 14.94C25.0616 14.756 24.8816 14.604 24.6256 14.484C24.3696 14.364 24.0256 14.272 23.5936 14.208C23.1616 14.144 22.6176 14.112 21.9616 14.112C22.0496 13.368 22.1216 12.612 22.1776 11.844C22.2336 11.076 22.2776 10.356 22.3096 9.684H26.8096V11.184H23.8096C23.7936 11.472 23.7736 11.752 23.7496 12.024C23.7336 12.288 23.7136 12.52 23.6896 12.72C24.8576 12.8 25.7176 13.076 26.2696 13.548C26.8296 14.012 27.1096 14.66 27.1096 15.492C27.1096 15.876 27.0416 16.232 26.9056 16.56C26.7696 16.888 26.5656 17.172 26.2936 17.412C26.0216 17.652 25.6776 17.84 25.2616 17.976C24.8536 18.112 24.3736 18.18 23.8216 18.18C23.6056 18.18 23.3776 18.164 23.1376 18.132C22.9056 18.108 22.6776 18.072 22.4536 18.024C22.2376 17.984 22.0416 17.94 21.8656 17.892C21.6896 17.844 21.5536 17.796 21.4576 17.748L21.7816 16.272C21.9816 16.36 22.2456 16.448 22.5736 16.536C22.9016 16.616 23.2936 16.656 23.7496 16.656C24.3016 16.656 24.7016 16.548 24.9496 16.332C25.1976 16.108 25.3216 15.848 25.3216 15.552Z" fill="white"/>
<path d="M11.3095 28.8711C11.4415 28.8711 11.5495 28.8611 11.6335 28.8411C11.7215 28.8171 11.7915 28.7871 11.8435 28.7511C11.8955 28.7111 11.9315 28.6651 11.9515 28.6131C11.9715 28.5611 11.9815 28.5031 11.9815 28.4391C11.9815 28.3031 11.9175 28.1911 11.7895 28.1031C11.6615 28.0111 11.4415 27.9131 11.1295 27.8091C10.9935 27.7611 10.8575 27.7071 10.7215 27.6471C10.5855 27.5831 10.4635 27.5051 10.3555 27.4131C10.2475 27.3171 10.1595 27.2031 10.0915 27.0711C10.0235 26.9351 9.98948 26.7711 9.98948 26.5791C9.98948 26.3871 10.0255 26.2151 10.0975 26.0631C10.1695 25.9071 10.2715 25.7751 10.4035 25.6671C10.5355 25.5591 10.6955 25.4771 10.8835 25.4211C11.0715 25.3611 11.2835 25.3311 11.5195 25.3311C11.7995 25.3311 12.0415 25.3611 12.2455 25.4211C12.4495 25.4811 12.6175 25.5471 12.7495 25.6191L12.4795 26.3571C12.3635 26.2971 12.2335 26.2451 12.0895 26.2011C11.9495 26.1531 11.7795 26.1291 11.5795 26.1291C11.3555 26.1291 11.1935 26.1611 11.0935 26.2251C10.9975 26.2851 10.9495 26.3791 10.9495 26.5071C10.9495 26.5831 10.9675 26.6471 11.0035 26.6991C11.0395 26.7511 11.0895 26.7991 11.1535 26.8431C11.2215 26.8831 11.2975 26.9211 11.3815 26.9571C11.4695 26.9891 11.5655 27.0231 11.6695 27.0591C11.8855 27.1391 12.0735 27.2191 12.2335 27.2991C12.3935 27.3751 12.5255 27.4651 12.6295 27.5691C12.7375 27.6731 12.8175 27.7951 12.8695 27.9351C12.9215 28.0751 12.9475 28.2451 12.9475 28.4451C12.9475 28.8331 12.8115 29.1351 12.5395 29.3511C12.2675 29.5631 11.8575 29.6691 11.3095 29.6691C11.1255 29.6691 10.9595 29.6571 10.8115 29.6331C10.6635 29.6131 10.5315 29.5871 10.4155 29.5551C10.3035 29.5231 10.2055 29.4891 10.1215 29.4531C10.0415 29.4171 9.97348 29.3831 9.91748 29.3511L10.1815 28.6071C10.3055 28.6751 10.4575 28.7371 10.6375 28.7931C10.8215 28.8451 11.0455 28.8711 11.3095 28.8711Z" fill="white"/>
<path d="M16.3991 25.8711C16.4471 26.0351 16.4991 26.2211 16.5551 26.4291C16.6151 26.6331 16.6771 26.8451 16.7411 27.0651C16.8091 27.2851 16.8771 27.5051 16.9451 27.7251C17.0131 27.9451 17.0791 28.1491 17.1431 28.3371C17.1951 28.1331 17.2471 27.9111 17.2991 27.6711C17.3551 27.4311 17.4071 27.1831 17.4551 26.9271C17.5031 26.6711 17.5491 26.4171 17.5931 26.1651C17.6411 25.9091 17.6851 25.6631 17.7251 25.4271H18.6971C18.5571 26.1231 18.3951 26.8291 18.2111 27.5451C18.0311 28.2611 17.8351 28.9411 17.6231 29.5851H16.7651C16.6251 29.2011 16.4891 28.7991 16.3571 28.3791C16.2251 27.9551 16.0951 27.5311 15.9671 27.1071C15.8391 27.5311 15.7111 27.9551 15.5831 28.3791C15.4551 28.7991 15.3211 29.2011 15.1811 29.5851H14.3231C14.1111 28.9411 13.9131 28.2611 13.7291 27.5451C13.5491 26.8291 13.3891 26.1231 13.2491 25.4271H14.2631C14.3031 25.6631 14.3471 25.9091 14.3951 26.1651C14.4431 26.4171 14.4931 26.6711 14.5451 26.9271C14.5971 27.1831 14.6491 27.4311 14.7011 27.6711C14.7571 27.9111 14.8131 28.1331 14.8691 28.3371C14.9411 28.1411 15.0111 27.9331 15.0791 27.7131C15.1471 27.4931 15.2131 27.2731 15.2771 27.0531C15.3411 26.8331 15.3991 26.6211 15.4511 26.4171C15.5071 26.2131 15.5571 26.0311 15.6011 25.8711H16.3991Z" fill="white"/>
<path d="M19.2985 29.5851V25.4271H22.0825V26.2131H20.2345V27.0831H21.8785V27.8691H20.2345V29.5851H19.2985Z" fill="white"/>
</svg>
