<svg width="48" height="48" viewBox="0 0 48 48" fill="none" xmlns="http://www.w3.org/2000/svg">
<path d="M34.5892 28.33C35.1292 29.3 35.1292 30.51 34.5892 31.48L33.5292 33.38C33.4292 33.56 33.3792 33.76 33.3692 33.96L33.3392 36.13C33.3292 37.24 32.7192 38.29 31.7692 38.85L29.8992 39.96C29.7292 40.06 29.5792 40.21 29.4692 40.39L28.3592 42.26C27.7892 43.22 26.7492 43.82 25.6292 43.83L23.4592 43.86C23.2592 43.86 23.0592 43.92 22.8792 44.02L20.9792 45.08C20.4892 45.35 19.9492 45.49 19.4092 45.49C18.8692 45.49 18.3192 45.35 17.8392 45.08L15.9392 44.01C15.7592 43.91 15.5592 43.86 15.3592 43.85L13.1792 43.82C12.0692 43.81 11.0192 43.2 10.4492 42.25L9.33922 40.38C9.23922 40.21 9.08922 40.06 8.91922 39.96L7.04922 38.85C6.08922 38.28 5.48922 37.24 5.47922 36.13L5.44922 33.95C5.44922 33.75 5.38922 33.55 5.28922 33.37L4.22922 31.47C3.68922 30.5 3.68922 29.29 4.22922 28.32L5.28922 26.42C5.38922 26.24 5.43922 26.04 5.44922 25.84L5.47922 23.67C5.48922 22.56 6.09922 21.51 7.04922 20.94L8.91922 19.83C9.08922 19.73 9.23922 19.58 9.33922 19.41L10.4492 17.54C10.7292 17.07 11.3492 16.91 11.8192 17.19C12.2992 17.47 12.4492 18.09 12.1692 18.56L11.0592 20.43C10.7892 20.89 10.3992 21.28 9.93922 21.55L8.06922 22.66C7.70922 22.87 7.47922 23.27 7.47922 23.69L7.44922 25.86C7.44922 26.4 7.29922 26.93 7.03922 27.39L5.97922 29.29C5.76922 29.66 5.76922 30.11 5.97922 30.48L7.03922 32.38C7.29922 32.85 7.43922 33.38 7.44922 33.91L7.47922 36.09C7.47922 36.52 7.70922 36.9 8.07922 37.12L9.94922 38.23C10.4092 38.5 10.7992 38.89 11.0692 39.35L12.1792 41.22C12.3892 41.58 12.7892 41.81 13.2092 41.81L15.3892 41.84C15.9192 41.84 16.4592 41.99 16.9192 42.25L18.8192 43.31C19.1892 43.52 19.6392 43.52 20.0092 43.31L21.9092 42.25C22.3792 41.99 22.9092 41.84 23.4492 41.84L25.6192 41.81C26.0392 41.81 26.4392 41.58 26.6492 41.22L27.7592 39.35C28.0392 38.89 28.4192 38.5 28.8792 38.23L30.7492 37.12C31.1092 36.9 31.3392 36.51 31.3392 36.09L31.3692 33.91C31.3692 33.37 31.5192 32.84 31.7792 32.38L32.8392 30.48C33.0492 30.11 33.0492 29.66 32.8392 29.29L31.7792 27.39C31.5192 26.92 31.3792 26.39 31.3692 25.86L31.3392 23.69C31.3392 23.27 31.1092 22.87 30.7492 22.66L28.8792 21.55C28.4192 21.28 28.0292 20.89 27.7592 20.43L26.6492 18.56C26.5292 18.36 26.3592 18.2 26.1492 18.09C25.6592 17.84 25.4492 17.24 25.6992 16.75C25.9492 16.26 26.5392 16.05 27.0392 16.3C27.5892 16.58 28.0492 17 28.3692 17.53L29.4792 19.4C29.5792 19.57 29.7292 19.72 29.8992 19.82L31.7692 20.93C32.7292 21.5 33.3292 22.54 33.3392 23.66L33.3692 25.83C33.3692 26.03 33.4292 26.23 33.5292 26.41L34.5892 28.31V28.33ZM25.7892 23.53C25.3992 23.14 24.7692 23.14 24.3792 23.53L13.0492 34.86C12.6592 35.25 12.6592 35.88 13.0492 36.27C13.2492 36.47 13.4992 36.56 13.7592 36.56C14.0192 36.56 14.2692 36.46 14.4692 36.27L25.7992 24.94C26.1892 24.55 26.1892 23.92 25.7992 23.53H25.7892ZM26.0792 33.68C26.0792 35.27 24.7792 36.57 23.1892 36.57C21.5992 36.57 20.2992 35.27 20.2992 33.68C20.2992 32.09 21.5992 30.79 23.1892 30.79C24.7792 30.79 26.0792 32.09 26.0792 33.68ZM24.0792 33.68C24.0792 33.19 23.6792 32.79 23.1892 32.79C22.6992 32.79 22.2992 33.19 22.2992 33.68C22.2992 34.17 22.6992 34.57 23.1892 34.57C23.6792 34.57 24.0792 34.17 24.0792 33.68ZM12.7492 26.12C12.7492 24.53 14.0492 23.23 15.6392 23.23C17.2292 23.23 18.5292 24.53 18.5292 26.12C18.5292 27.71 17.2292 29.01 15.6392 29.01C14.0492 29.01 12.7492 27.71 12.7492 26.12ZM14.7492 26.12C14.7492 26.61 15.1492 27.01 15.6392 27.01C16.1292 27.01 16.5292 26.61 16.5292 26.12C16.5292 25.63 16.1292 25.23 15.6392 25.23C15.1492 25.23 14.7492 25.63 14.7492 26.12ZM45.9992 8.5C45.9992 12.08 43.0792 15 39.4992 15C35.9192 15 32.9992 12.08 32.9992 8.5C32.9992 4.92 35.9192 2 39.4992 2C43.0792 2 45.9992 4.92 45.9992 8.5ZM34.9992 8.5C34.9992 9.38 35.2592 10.19 35.6992 10.89L41.8892 4.7C41.1992 4.26 40.3792 4 39.4992 4C37.0192 4 34.9992 6.02 34.9992 8.5ZM43.9992 8.5C43.9992 7.62 43.7392 6.81 43.2992 6.11L37.1092 12.3C37.7992 12.74 38.6192 13 39.4992 13C41.9792 13 43.9992 10.98 43.9992 8.5ZM11.3192 12.67C11.2492 12.47 11.2492 12.24 11.3192 12.04C11.4592 11.62 11.8492 11.35 12.2992 11.35C12.3992 11.35 12.4992 11.37 12.5992 11.4C14.2992 11.83 16.1192 11.33 17.3592 10.09C18.5992 8.85 19.0992 7.04 18.6692 5.34C18.6292 5.23 18.6092 5.12 18.6092 5C18.6092 4.54 18.9192 4.15 19.3692 4.04C19.5492 3.99 19.7392 4 19.9092 4.05C21.0792 4.37 22.1492 4.99 23.0092 5.85C25.7392 8.58 25.7392 13.02 23.0092 15.75C21.6492 17.11 19.8492 17.8 18.0592 17.8C16.2692 17.8 14.4792 17.12 13.1092 15.75C12.2492 14.9 11.6292 13.83 11.3092 12.67H11.3192ZM13.8892 13.55C14.0692 13.83 14.2892 14.09 14.5292 14.33C16.4792 16.28 19.6492 16.28 21.5992 14.33C23.5492 12.38 23.5492 9.21 21.5992 7.26C21.3592 7.02 21.0992 6.81 20.8192 6.62C20.7992 8.43 20.0792 10.19 18.7692 11.5C17.4592 12.81 15.6992 13.53 13.8892 13.55Z" fill="#414652"/>
</svg>
