<svg width="68" height="100" viewBox="0 0 68 100" fill="none" xmlns="http://www.w3.org/2000/svg">
<path d="M34.0217 93.332C23.8837 93.332 16.3727 89.817 11.4887 82.787C6.60468 75.757 4.16268 65.915 4.16268 53.261C4.16268 40.607 6.60468 30.765 11.4887 23.735C16.3727 16.705 23.8837 13.19 34.0217 13.19C44.1597 13.19 51.6707 16.705 56.5547 23.735C61.4387 30.765 63.8807 40.607 63.8807 53.261C63.8807 65.915 61.4387 75.757 56.5547 82.787C51.6707 89.817 44.1597 93.332 34.0217 93.332ZM34.0217 79.235C38.4617 79.235 41.5327 77.607 43.2347 74.351C44.9367 71.095 45.7877 66.507 45.7877 60.587V45.935C45.7877 40.015 44.9367 35.427 43.2347 32.171C41.5327 28.915 38.4617 27.287 34.0217 27.287C29.5817 27.287 26.5107 28.915 24.8087 32.171C23.1067 35.427 22.2557 40.015 22.2557 45.935V60.587C22.2557 66.507 23.1067 71.095 24.8087 74.351C26.5107 77.607 29.5817 79.235 34.0217 79.235Z" fill="#333333"/>
</svg>
