<svg width="33" height="33" viewBox="0 0 33 33" fill="none" xmlns="http://www.w3.org/2000/svg">
<g clip-path="url(#clip0_1228_13812)">
<path d="M25.4129 0.293945H8.39167C4.25543 0.293945 0.902344 3.64703 0.902344 7.78328V24.8045C0.902344 28.9407 4.25543 32.2938 8.39167 32.2938H25.4129C29.5491 32.2938 32.9022 28.9407 32.9022 24.8045V7.78328C32.9022 3.64703 29.5491 0.293945 25.4129 0.293945Z" fill="white"/>
<path d="M20.0165 16.2939L19.0666 19.2901L18.142 16.2962H17.2394L18.6967 20.6513H19.3993L20.3513 17.7903L21.3021 20.6513H22.0105L23.4647 16.2962H22.5846L21.6584 19.2901L20.7086 16.2939H20.0165ZM14.9714 16.295L13.1285 20.6491H13.9949L14.3506 19.8062L14.3758 19.7425H16.2907L16.6659 20.6491H17.5559L15.7297 16.3205L15.7134 16.295H14.9714ZM28.3181 16.2956V20.6463H29.1556V16.2956H28.3181ZM4.30469 16.2961V20.653H5.15374V18.8836H7.07016V20.653H7.91922V16.2961H7.07016V18.054H5.15374V16.2961H4.30469ZM11.8481 16.2972V18.791C11.8481 19.4994 11.5105 19.8776 10.8972 19.8776C10.2805 19.8776 9.94058 19.4889 9.94058 18.7611V16.3001H9.09205V18.7911C9.09205 20.0169 9.74634 20.7195 10.8862 20.7195C12.0369 20.7195 12.6966 20.0034 12.6966 18.7551V16.2973L11.8481 16.2972ZM24.1489 16.2989V20.6496H27.308V19.8566H24.9859V18.7777H26.5298V17.9842H24.9859V17.0926H27.2272V16.299L24.1489 16.2989ZM15.3309 17.3976L15.9365 18.8564L15.9774 18.9566H14.6938L14.7342 18.8564L15.3309 17.3976Z" fill="#414652"/>
<path fill-rule="evenodd" clip-rule="evenodd" d="M16.7434 10.9058C13.615 10.9058 11.0547 8.45361 11.0547 5.39941H11.8547C11.8547 7.98555 14.0301 10.1058 16.7434 10.1058C19.4567 10.1058 21.6322 7.98555 21.6322 5.39941H22.4321C22.4321 8.45361 19.8719 10.9058 16.7434 10.9058Z" fill="#414652"/>
</g>
<defs>
<clipPath id="clip0_1228_13812">
<rect width="32" height="31.9999" fill="white" transform="translate(0.902344 0.293945)"/>
</clipPath>
</defs>
</svg>
