<svg width="33" height="33" viewBox="0 0 33 33" fill="none" xmlns="http://www.w3.org/2000/svg">
<path d="M17.1101 9.51587C18.3659 9.51587 20.755 7.78024 23.2194 8.03926C25.5618 8.11265 27.7324 9.28772 29.0766 11.21C26.9555 12.5158 25.6503 14.8185 25.6182 17.3115C25.6213 20.132 27.3081 22.6774 29.9024 23.7761C29.4035 25.3991 28.6514 26.9329 27.674 28.3206C27.6442 28.3653 27.6143 28.41 27.5844 28.4546L27.4044 28.7216C26.17 30.5398 24.8363 32.2099 22.801 32.243C20.6786 32.292 19.9653 30.9923 17.531 30.9923C15.0739 30.9923 14.3136 32.2075 12.278 32.292C10.1978 32.3692 8.60805 30.1936 7.24777 28.246C4.52896 24.2686 2.41188 17.0371 5.25014 12.1165C6.58294 9.7183 9.07494 8.1965 11.8144 8.10787C13.8965 8.06498 15.83 9.51587 17.1101 9.51587ZM23.245 0.293945C23.3871 2.15175 22.8004 3.99184 21.6094 5.42345C20.454 6.86249 18.7032 7.69138 16.8593 7.67237C16.742 5.86804 17.3458 4.09105 18.5377 2.73276C19.7448 1.35608 21.4255 0.485306 23.245 0.293945Z" fill="white"/>
</svg>
