<svg width="88" height="89" viewBox="0 0 88 89" fill="none" xmlns="http://www.w3.org/2000/svg">
<path d="M34.002 39.1749V38.2949" stroke="#414652" stroke-width="3.58333" stroke-linecap="round" stroke-linejoin="round"/>
<path d="M18.882 54.2949H18.002" stroke="#414652" stroke-width="3.58333" stroke-linecap="round" stroke-linejoin="round"/>
<path d="M34.002 69.416C34.002 70.116 34.002 69.596 34.002 70.296" stroke="#414652" stroke-width="3.58333" stroke-linecap="round" stroke-linejoin="round"/>
<path d="M49.1211 54.2949C49.8211 54.2949 49.3011 54.2949 50.0011 54.2949" stroke="#414652" stroke-width="3.58333" stroke-linecap="round" stroke-linejoin="round"/>
<path d="M48.262 34.9949C44.282 32.0549 39.342 30.2949 34.002 30.2949C20.742 30.2949 10.002 41.0349 10.002 54.2949C10.002 67.5549 20.742 78.2949 34.002 78.2949C47.262 78.2949 58.002 67.5549 58.002 54.2949C58.002 53.6349 57.982 52.9749 57.922 52.3149" stroke="#414652" stroke-width="3.58333" stroke-linecap="round" stroke-linejoin="round"/>
<path d="M45.722 24.5149C42.102 23.0949 38.142 22.2949 34.002 22.2949C16.322 22.2949 2.00195 36.6149 2.00195 54.2949C2.00195 71.9749 16.322 86.2949 34.002 86.2949C51.682 86.2949 66.002 71.9749 66.002 54.2949C66.002 52.9549 65.922 51.6549 65.762 50.3549" stroke="#414652" stroke-width="3.58333" stroke-linecap="round" stroke-linejoin="round"/>
<path d="M41.082 47.2148C39.902 48.3948 35.182 53.1148 34.002 54.2948C35.602 54.7348 37.222 55.1548 38.822 55.5948" stroke="#414652" stroke-width="3.58333" stroke-linecap="round" stroke-linejoin="round"/>
<path d="M28.002 20.773V14.293H40.002V20.773" stroke="#414652" stroke-width="3.58333" stroke-linecap="round" stroke-linejoin="round"/>
<path d="M46.002 14.293H22.002C19.802 14.293 18.002 12.493 18.002 10.293C18.002 8.09297 19.802 6.29297 22.002 6.29297H46.002C48.202 6.29297 50.002 8.09297 50.002 10.293C50.002 12.493 48.202 14.293 46.002 14.293Z" stroke="#414652" stroke-width="3.58333" stroke-linecap="round" stroke-linejoin="round"/>
<path d="M66.002 24.2939H56.002C54.902 24.2939 54.002 25.1939 54.002 26.2939V30.2939C54.002 31.3939 54.902 32.2939 56.002 32.2939H64.002C65.102 32.2939 66.002 33.1939 66.002 34.2939V38.2939C66.002 39.3939 65.102 40.2939 64.002 40.2939H54.002" stroke="#414652" stroke-width="3.58333" stroke-linecap="round" stroke-linejoin="round"/>
<path d="M60.002 24.2939V20.2939" stroke="#414652" stroke-width="3.58333" stroke-linecap="round" stroke-linejoin="round"/>
<path d="M60.002 40.2939V44.2939" stroke="#414652" stroke-width="3.58333" stroke-linecap="round" stroke-linejoin="round"/>
<path d="M70.002 12.2939C73.342 8.95395 76.662 5.63395 80.002 2.29395H74.002" stroke="#414652" stroke-width="3.58333" stroke-linecap="round" stroke-linejoin="round"/>
<path d="M86.002 8.29395C82.662 11.6339 79.342 14.9539 76.002 18.2939H82.002" stroke="#414652" stroke-width="3.58333" stroke-linecap="round" stroke-linejoin="round"/>
</svg>
