<svg width="33" height="33" viewBox="0 0 33 33" fill="none" xmlns="http://www.w3.org/2000/svg">
<g clip-path="url(#clip0_1228_13802)">
<path d="M18.5363 17.0322L4.05469 31.7387C4.68312 32.1029 5.37263 32.2949 6.06608 32.2949C6.73589 32.2949 7.40963 32.1229 8.02625 31.7768L24.4503 22.5719L18.5363 17.0322Z" fill="white"/>
<path d="M29.6991 12.9548L25.0971 10.376L19.9258 15.6257L26.2633 21.5616L29.701 19.635C30.9382 18.9387 31.6789 17.6903 31.6789 16.2939C31.677 14.8974 30.9382 13.649 29.6991 12.9548Z" fill="white"/>
<path d="M8.01983 0.805899C6.7866 0.113686 5.33863 0.129691 4.11328 0.815902L18.4747 14.27L23.2993 9.37054L8.01983 0.805899Z" fill="white"/>
<path d="M2.6727 2.18457C2.32204 2.76675 2.12109 3.43296 2.12109 4.13917V28.4387C2.12109 29.1229 2.30431 29.7751 2.63527 30.3453L17.0775 15.6787L2.6727 2.18457Z" fill="white"/>
</g>
<defs>
<clipPath id="clip0_1228_13802">
<rect width="32" height="32.0001" fill="white" transform="translate(0.902344 0.293945)"/>
</clipPath>
</defs>
</svg>
