<svg width="33" height="33" viewBox="0 0 33 33" fill="none" xmlns="http://www.w3.org/2000/svg">
<g clip-path="url(#clip0_1228_13821)">
<path fill-rule="evenodd" clip-rule="evenodd" d="M16.9021 32.294C18.8136 32.294 20.6467 31.9588 22.3461 31.344L21.8014 27.3043C20.6457 28.8876 19.2957 29.8643 17.9011 30.1809V24.3029C19.1257 24.3247 20.3048 24.3864 21.4209 24.4823L21.1474 22.4534C20.1032 22.373 19.0167 22.3218 17.9011 22.3026V17.294H24.8815C24.8597 17.8243 24.8207 18.3459 24.7656 18.8572L26.5946 20.2738C26.7465 19.3108 26.8442 18.3143 26.883 17.294H30.8667C30.7357 19.1499 30.243 20.9059 29.4587 22.492L31.0682 23.7385C32.2391 21.5148 32.9019 18.9818 32.9019 16.294C32.9019 7.4574 25.7385 0.293945 16.9021 0.293945C8.06568 0.293945 0.902344 7.4574 0.902344 16.294C0.902344 25.1305 8.06568 32.294 16.9021 32.294ZM15.9011 2.40751C14.255 2.7819 12.6712 4.07608 11.3957 6.20185C11.0802 6.72772 10.7883 7.29799 10.5237 7.90726C12.156 8.1171 13.971 8.2505 15.9011 8.28501V2.40751ZM17.9011 2.40706V8.28504C19.8308 8.2506 21.6467 8.1173 23.2805 7.90726C23.0159 7.29799 22.724 6.72772 22.4085 6.20185C21.1325 4.07524 19.5479 2.78087 17.9011 2.40706ZM15.9011 10.2853C13.7346 10.2479 11.6752 10.0897 9.82074 9.83094C9.32088 11.4804 9.00357 13.327 8.9227 15.294H15.9011V10.2853ZM17.9011 15.294V10.2853C20.0698 10.248 22.1297 10.0896 23.9835 9.83093C24.4833 11.4804 24.8006 13.3269 24.8815 15.294H17.9011ZM15.9011 17.294H8.9227C9.00357 19.261 9.32088 21.1075 9.82073 22.757C11.673 22.4986 13.732 22.34 15.9011 22.3026V17.294ZM15.9011 24.3029C13.9731 24.3374 12.1578 24.4706 10.5237 24.6806C10.7883 25.2899 11.0802 25.8602 11.3957 26.3861C12.6712 28.5118 14.255 29.806 15.9011 30.1804V24.3029ZM7.8329 9.49986C7.31637 11.2824 6.99925 13.2397 6.9212 15.294H2.93748C3.1051 12.9188 3.8652 10.7072 5.07089 8.80608C5.89 9.06802 6.81776 9.30075 7.8329 9.49986ZM6.9212 17.294H2.93748C3.1051 19.6691 3.86517 21.8806 5.07081 23.7817C5.88893 23.5201 6.81669 23.2873 7.83288 23.088C7.31637 21.3055 6.99925 19.3482 6.9212 17.294ZM28.7333 8.80612C29.939 10.7072 30.6991 12.9188 30.8667 15.294H26.883C26.805 13.2397 26.4878 11.2824 25.9713 9.49986C26.987 9.30066 27.9148 9.06789 28.7333 8.80612ZM23.1602 3.76717C24.8041 4.59005 26.2635 5.727 27.4597 7.09937C26.8118 7.27948 26.0934 7.4439 25.315 7.5893C24.9672 6.72329 24.5681 5.91399 24.1234 5.17285C23.8256 4.67638 23.5039 4.20587 23.1602 3.76717ZM10.644 28.8208C10.3003 28.3821 9.97864 27.9116 9.68076 27.4151C9.23608 26.6739 8.83695 25.8646 8.48922 24.9986C7.71108 25.1439 6.99275 25.3084 6.34454 25.4886C7.5407 26.8609 9.00006 27.9979 10.644 28.8208ZM8.48922 7.58932C8.83696 6.7233 9.23608 5.914 9.68076 5.17285C9.97863 4.67638 10.3003 4.20587 10.644 3.76717C9.00004 4.59006 7.54066 5.72704 6.34449 7.09943C6.99204 7.27943 7.71038 7.44386 8.48922 7.58932Z" fill="white"/>
<path d="M24.1457 29.7219L22.8185 19.8787L30.9595 26.1837L28.5623 27.429L30.8002 31.2465L28.7812 32.294L26.5429 28.4773L24.1457 29.7219Z" fill="white"/>
</g>
<defs>
<clipPath id="clip0_1228_13821">
<rect width="32" height="32" fill="white" transform="translate(0.902344 0.293945)"/>
</clipPath>
</defs>
</svg>
