<svg xmlns="http://www.w3.org/2000/svg" width="384" height="216"><g fill="none" fill-rule="evenodd"><path d="M0 0h384v216H0z"/><g stroke="#FF444F" stroke-width="2"><path stroke-linecap="round" stroke-linejoin="round" d="M231.68 44c-12.725 0-23.04 10.315-23.04 23.04s10.315 23.04 23.04 23.04 23.04-10.315 23.04-23.04A23.043 23.043 0 00231.68 44z"/><path d="M225.869 72.045c0 2.803 3.174 5.12 7.091 5.12 3.917 0 7.091-2.266 7.091-5.12 0-2.855-3.174-5.12-7.091-5.12-3.917 0-7.091-2.279-7.091-5.12 0-2.842 3.174-5.12 7.091-5.12 3.917 0 7.091 2.265 7.091 5.12m-7.091-9.575v4.583m0 21.504v3.533"/><path stroke-linecap="round" stroke-linejoin="round" d="M250.15 129.555h.18c1.364-.819 2.444-.69 3.673.32a3.69 3.69 0 011.28 1.997c.327 1.657.278 3.349-1.126 4.288h-.154l-40.525 31.424A29.446 29.446 0 01198.31 172l-48.192-6.106a25.318 25.318 0 00-7.219.23V129.76l1.28-.538c1.51-.512 22.208-7.244 36.096-.576a44.386 44.386 0 0027.456 3.674 21.149 21.149 0 015.466-.371 5.121 5.121 0 012.803 2.406 6.135 6.135 0 01-.333 4.775c-2.56 2.035-9.651 6.22-23.232 6.259a3.648 3.648 0 00-3.673 3.328 3.53 3.53 0 003.532 3.737c11.981 0 22.375-3.545 28.16-7.308l29.696-15.59zM128 125.139h14.899V172H128zm84.088-70.502h-67.525v56.409h94.874V96.237"/><path stroke-linecap="round" stroke-linejoin="round" d="M200.653 90.08c-.512 4.006-4.199 6.848-7.757 7.757v3.635h-6.208v-3.98a13.9 13.9 0 01-7.334-6.222 3.096 3.096 0 015.337-3.097c1.562 2.56 3.994 4.096 6.221 3.725 1.728-.295 3.328-1.613 3.443-2.484.167-1.587 0-2.035-2.201-2.777-1.408-.474-2.56-.794-3.572-1.088-3.123-.909-5.593-1.6-7.488-4.48a8.768 8.768 0 012.56-12.07 8.34 8.34 0 012.957-1.28V64.21h6.208v4.109a12.861 12.861 0 017.373 6.208 3.111 3.111 0 01-5.53 2.752 6.667 6.667 0 00-4.288-3.354 4.184 4.184 0 00-3.238.205 2.56 2.56 0 00-.87 3.482c.588.909 1.152 1.126 4.019 1.945 1.088.295 2.278.666 3.84 1.165 1.817.563 7.168 2.432 6.528 9.357z"/></g></g></svg>