<svg width="48" height="49" viewBox="0 0 48 49" fill="none" xmlns="http://www.w3.org/2000/svg">
<path fill-rule="evenodd" clip-rule="evenodd" d="M12 9.42578C10.3423 9.42578 9 10.7681 9 12.4258V18.4258C9 20.0835 10.3423 21.4258 12 21.4258H21V12.4258C21 10.7681 19.6577 9.42578 18 9.42578H12ZM7 12.4258C7 9.6635 9.23772 7.42578 12 7.42578H18C20.7623 7.42578 23 9.6635 23 12.4258V21.4258C23 22.5281 22.1023 23.4258 21 23.4258H12C9.23772 23.4258 7 21.1881 7 18.4258V12.4258ZM30 9.42578C28.3423 9.42578 27 10.7681 27 12.4258V21.4258H36C37.6577 21.4258 39 20.0835 39 18.4258V12.4258C39 10.7681 37.6577 9.42578 36 9.42578H30ZM25 12.4258C25 9.6635 27.2377 7.42578 30 7.42578H36C38.7623 7.42578 41 9.6635 41 12.4258V18.4258C41 21.1881 38.7623 23.4258 36 23.4258H27C25.8977 23.4258 25 22.5281 25 21.4258V12.4258ZM34.9999 12.4258C35.5522 12.4258 35.9999 12.8735 35.9999 13.4258V17.4258C35.9999 17.9781 35.5522 18.4258 34.9999 18.4258C34.4476 18.4258 33.9999 17.9781 33.9999 17.4258V13.4258C33.9999 12.8735 34.4476 12.4258 34.9999 12.4258ZM12.9999 13.4258C13.5522 13.4258 13.9999 13.8735 13.9999 14.4258V17.4258C13.9999 17.9781 13.5522 18.4258 12.9999 18.4258C12.4476 18.4258 11.9999 17.9781 11.9999 17.4258V14.4258C11.9999 13.8735 12.4476 13.4258 12.9999 13.4258ZM17 14.4258C17.5523 14.4258 18 14.8735 18 15.4258V17.4258C18 17.9781 17.5523 18.4258 17 18.4258C16.4477 18.4258 16 17.9781 16 17.4258V15.4258C16 14.8735 16.4477 14.4258 17 14.4258ZM30.9999 15.4258C31.5522 15.4258 31.9999 15.8735 31.9999 16.4258V17.4258C31.9999 17.9781 31.5522 18.4258 30.9999 18.4258C30.4476 18.4258 29.9999 17.9781 29.9999 17.4258V16.4258C29.9999 15.8735 30.4476 15.4258 30.9999 15.4258ZM12 27.4258C10.3423 27.4258 9 28.7681 9 30.4258V36.4258C9 38.0835 10.3423 39.4258 12 39.4258H18C19.6577 39.4258 21 38.0835 21 36.4258V27.4258H12ZM7 30.4258C7 27.6635 9.23772 25.4258 12 25.4258H21C22.1023 25.4258 23 26.3235 23 27.4258V36.4258C23 39.1881 20.7623 41.4258 18 41.4258H12C9.23772 41.4258 7 39.1881 7 36.4258V30.4258ZM24.9999 27.4258C24.9999 26.3235 25.8976 25.4258 26.9999 25.4258H35.9999C38.7622 25.4258 40.9999 27.6635 40.9999 30.4258V36.4258C40.9999 39.1881 38.7622 41.4258 35.9999 41.4258H29.9999C27.2376 41.4258 24.9999 39.1881 24.9999 36.4258V27.4258ZM35.9999 27.4258H26.9999V36.4258C26.9999 38.0835 28.3422 39.4258 29.9999 39.4258H35.9999C37.6576 39.4258 38.9999 38.0835 38.9999 36.4258V30.4258C38.9999 28.7681 37.6576 27.4258 35.9999 27.4258ZM17 30.4258C17.5523 30.4258 18 30.8735 18 31.4258V35.4258C18 35.9781 17.5523 36.4258 17 36.4258C16.4477 36.4258 16 35.9781 16 35.4258V31.4258C16 30.8735 16.4477 30.4258 17 30.4258ZM30.9999 30.4258C31.5522 30.4258 31.9999 30.8735 31.9999 31.4258V35.4258C31.9999 35.9781 31.5522 36.4258 30.9999 36.4258C30.4476 36.4258 29.9999 35.9781 29.9999 35.4258V31.4258C29.9999 30.8735 30.4476 30.4258 30.9999 30.4258ZM12.9999 31.4258C13.5522 31.4258 13.9999 31.8735 13.9999 32.4258V35.4258C13.9999 35.9781 13.5522 36.4258 12.9999 36.4258C12.4476 36.4258 11.9999 35.9781 11.9999 35.4258V32.4258C11.9999 31.8735 12.4476 31.4258 12.9999 31.4258ZM34.9999 33.4258C35.5522 33.4258 35.9999 33.8735 35.9999 34.4258V35.4258C35.9999 35.9781 35.5522 36.4258 34.9999 36.4258C34.4476 36.4258 33.9999 35.9781 33.9999 35.4258V34.4258C33.9999 33.8735 34.4476 33.4258 34.9999 33.4258Z" fill="white"/>
</svg>
