<svg width="43" height="44" viewBox="0 0 43 44" fill="none" xmlns="http://www.w3.org/2000/svg">
<path d="M30.9203 26.33C31.4603 27.3 31.4603 28.51 30.9203 29.48L29.8603 31.38C29.7603 31.56 29.7103 31.76 29.7003 31.96L29.6703 34.13C29.6603 35.24 29.0503 36.29 28.1003 36.85L26.2303 37.96C26.0603 38.06 25.9103 38.21 25.8003 38.39L24.6903 40.26C24.1203 41.22 23.0803 41.82 21.9603 41.83L19.7903 41.86C19.5903 41.86 19.3903 41.92 19.2103 42.02L17.3103 43.08C16.8203 43.35 16.2803 43.49 15.7403 43.49C15.2003 43.49 14.6503 43.35 14.1703 43.08L12.2703 42.01C12.0903 41.91 11.8903 41.86 11.6903 41.85L9.51027 41.82C8.40027 41.81 7.35027 41.2 6.78027 40.25L5.67027 38.38C5.57027 38.21 5.42027 38.06 5.25027 37.96L3.38027 36.85C2.42027 36.28 1.82027 35.24 1.81027 34.13L1.78027 31.95C1.78027 31.75 1.72027 31.55 1.62027 31.37L0.560273 29.47C0.0202734 28.5 0.0202734 27.29 0.560273 26.32L1.62027 24.42C1.72027 24.24 1.77027 24.04 1.78027 23.84L1.81027 21.67C1.82027 20.56 2.43027 19.51 3.38027 18.94L5.25027 17.83C5.42027 17.73 5.57027 17.58 5.67027 17.41L6.78027 15.54C7.06027 15.07 7.68027 14.91 8.15027 15.19C8.63027 15.47 8.78027 16.09 8.50027 16.56L7.39027 18.43C7.12027 18.89 6.73027 19.28 6.27027 19.55L4.40027 20.66C4.04027 20.87 3.81027 21.27 3.81027 21.69L3.78027 23.86C3.78027 24.4 3.63027 24.93 3.37027 25.39L2.31027 27.29C2.10027 27.66 2.10027 28.11 2.31027 28.48L3.37027 30.38C3.63027 30.85 3.77027 31.38 3.78027 31.91L3.81027 34.09C3.81027 34.52 4.04027 34.9 4.41027 35.12L6.28027 36.23C6.74027 36.5 7.13027 36.89 7.40027 37.35L8.51027 39.22C8.72027 39.58 9.12027 39.81 9.54027 39.81L11.7203 39.84C12.2503 39.84 12.7903 39.99 13.2503 40.25L15.1503 41.31C15.5203 41.52 15.9703 41.52 16.3403 41.31L18.2403 40.25C18.7103 39.99 19.2403 39.84 19.7803 39.84L21.9503 39.81C22.3703 39.81 22.7703 39.58 22.9803 39.22L24.0903 37.35C24.3703 36.89 24.7503 36.5 25.2103 36.23L27.0803 35.12C27.4403 34.9 27.6703 34.51 27.6703 34.09L27.7003 31.91C27.7003 31.37 27.8503 30.84 28.1103 30.38L29.1703 28.48C29.3803 28.11 29.3803 27.66 29.1703 27.29L28.1103 25.39C27.8503 24.92 27.7103 24.39 27.7003 23.86L27.6703 21.69C27.6703 21.27 27.4403 20.87 27.0803 20.66L25.2103 19.55C24.7503 19.28 24.3603 18.89 24.0903 18.43L22.9803 16.56C22.8603 16.36 22.6903 16.2 22.4803 16.09C21.9903 15.84 21.7803 15.24 22.0303 14.75C22.2803 14.26 22.8703 14.05 23.3703 14.3C23.9203 14.58 24.3803 15 24.7003 15.53L25.8103 17.4C25.9103 17.57 26.0603 17.72 26.2303 17.82L28.1003 18.93C29.0603 19.5 29.6603 20.54 29.6703 21.66L29.7003 23.83C29.7003 24.03 29.7603 24.23 29.8603 24.41L30.9203 26.31V26.33ZM22.1203 21.53C21.7303 21.14 21.1003 21.14 20.7103 21.53L9.38027 32.86C8.99027 33.25 8.99027 33.88 9.38027 34.27C9.58027 34.47 9.83027 34.56 10.0903 34.56C10.3503 34.56 10.6003 34.46 10.8003 34.27L22.1303 22.94C22.5203 22.55 22.5203 21.92 22.1303 21.53H22.1203ZM22.4103 31.68C22.4103 33.27 21.1103 34.57 19.5203 34.57C17.9303 34.57 16.6303 33.27 16.6303 31.68C16.6303 30.09 17.9303 28.79 19.5203 28.79C21.1103 28.79 22.4103 30.09 22.4103 31.68ZM20.4103 31.68C20.4103 31.19 20.0103 30.79 19.5203 30.79C19.0303 30.79 18.6303 31.19 18.6303 31.68C18.6303 32.17 19.0303 32.57 19.5203 32.57C20.0103 32.57 20.4103 32.17 20.4103 31.68ZM9.08027 24.12C9.08027 22.53 10.3803 21.23 11.9703 21.23C13.5603 21.23 14.8603 22.53 14.8603 24.12C14.8603 25.71 13.5603 27.01 11.9703 27.01C10.3803 27.01 9.08027 25.71 9.08027 24.12ZM11.0803 24.12C11.0803 24.61 11.4803 25.01 11.9703 25.01C12.4603 25.01 12.8603 24.61 12.8603 24.12C12.8603 23.63 12.4603 23.23 11.9703 23.23C11.4803 23.23 11.0803 23.63 11.0803 24.12ZM42.3303 6.5C42.3303 10.08 39.4103 13 35.8303 13C32.2503 13 29.3303 10.08 29.3303 6.5C29.3303 2.92 32.2503 0 35.8303 0C39.4103 0 42.3303 2.92 42.3303 6.5ZM31.3303 6.5C31.3303 7.38 31.5903 8.19 32.0303 8.89L38.2203 2.7C37.5303 2.26 36.7103 2 35.8303 2C33.3503 2 31.3303 4.02 31.3303 6.5ZM40.3303 6.5C40.3303 5.62 40.0703 4.81 39.6303 4.11L33.4403 10.3C34.1303 10.74 34.9503 11 35.8303 11C38.3103 11 40.3303 8.98 40.3303 6.5ZM7.65027 10.67C7.58027 10.47 7.58027 10.24 7.65027 10.04C7.79027 9.62 8.18027 9.35 8.63027 9.35C8.73027 9.35 8.83027 9.37 8.93027 9.4C10.6303 9.83 12.4503 9.33 13.6903 8.09C14.9303 6.85 15.4303 5.04 15.0003 3.34C14.9603 3.23 14.9403 3.12 14.9403 3C14.9403 2.54 15.2503 2.15 15.7003 2.04C15.8803 1.99 16.0703 2 16.2403 2.05C17.4103 2.37 18.4803 2.99 19.3403 3.85C22.0703 6.58 22.0703 11.02 19.3403 13.75C17.9803 15.11 16.1803 15.8 14.3903 15.8C12.6003 15.8 10.8103 15.12 9.44027 13.75C8.58027 12.9 7.96027 11.83 7.64027 10.67H7.65027ZM10.2203 11.55C10.4003 11.83 10.6203 12.09 10.8603 12.33C12.8103 14.28 15.9803 14.28 17.9303 12.33C19.8803 10.38 19.8803 7.21 17.9303 5.26C17.6903 5.02 17.4303 4.81 17.1503 4.62C17.1303 6.43 16.4103 8.19 15.1003 9.5C13.7903 10.81 12.0303 11.53 10.2203 11.55Z" fill="white"/>
</svg>
