<svg width="49" height="48" viewBox="0 0 49 48" fill="none" xmlns="http://www.w3.org/2000/svg">
<path d="M3.33398 40.0002L5.42398 36.0002C5.93398 35.0302 7.11398 34.6502 8.09398 35.1402L12.854 37.5202C13.714 37.9502 14.754 37.7102 15.334 36.9502C17.164 34.5502 18.994 32.1602 20.834 29.7602L26.434 22.4402C26.974 21.7402 27.904 21.4702 28.724 21.7802L33.744 23.6602C34.664 24.0002 35.694 23.6302 36.184 22.7802C37.234 20.9402 38.284 19.1002 39.344 17.2602C40.484 15.1802 41.634 13.1102 42.774 11.0302C43.124 10.3902 43.794 9.99023 44.524 9.99023H45.344" stroke="white" stroke-width="2" stroke-linecap="round" stroke-linejoin="round"/>
<path d="M37.334 12C37.334 10.9 36.434 10 35.334 10H23.334C22.664 9.33 22.004 8.67 21.334 8L19.334 10H8.33398C7.23398 10 6.33398 10.9 6.33398 12" stroke="white" stroke-width="2" stroke-linecap="round" stroke-linejoin="round"/>
<path d="M28.334 36C28.334 37.1 29.234 38 30.334 38H33.334C34.004 38.67 34.664 39.33 35.334 40C36.004 39.33 36.664 38.67 37.334 38H40.334C41.434 38 42.334 37.1 42.334 36" stroke="white" stroke-width="2" stroke-linecap="round" stroke-linejoin="round"/>
<path d="M5.83398 15C5.83398 14.7261 6.06013 14.5 6.33398 14.5C6.60784 14.5 6.83398 14.7261 6.83398 15C6.83398 15.2739 6.60784 15.5 6.33398 15.5C6.06013 15.5 5.83398 15.2739 5.83398 15Z" fill="white" stroke="white"/>
<path d="M5.83398 18C5.83398 17.7261 6.06013 17.5 6.33398 17.5C6.60784 17.5 6.83398 17.7261 6.83398 18C6.83398 18.2739 6.60784 18.5 6.33398 18.5C6.06013 18.5 5.83398 18.2739 5.83398 18Z" fill="white" stroke="white"/>
<path d="M5.83398 21C5.83398 20.7261 6.06013 20.5 6.33398 20.5C6.60784 20.5 6.83398 20.7261 6.83398 21C6.83398 21.2739 6.60784 21.5 6.33398 21.5C6.06013 21.5 5.83398 21.2739 5.83398 21Z" fill="white" stroke="white"/>
<path d="M5.83398 24C5.83398 23.7261 6.06013 23.5 6.33398 23.5C6.60784 23.5 6.83398 23.7261 6.83398 24C6.83398 24.2739 6.60784 24.5 6.33398 24.5C6.06013 24.5 5.83398 24.2739 5.83398 24Z" fill="white" stroke="white"/>
<path d="M5.83398 27C5.83398 26.7261 6.06013 26.5 6.33398 26.5C6.60784 26.5 6.83398 26.7261 6.83398 27C6.83398 27.2739 6.60784 27.5 6.33398 27.5C6.06013 27.5 5.83398 27.2739 5.83398 27Z" fill="white" stroke="white"/>
<path d="M5.83398 30C5.83398 29.7261 6.06013 29.5 6.33398 29.5C6.60784 29.5 6.83398 29.7261 6.83398 30C6.83398 30.2739 6.60784 30.5 6.33398 30.5C6.06013 30.5 5.83398 30.2739 5.83398 30Z" fill="white" stroke="white"/>
<path d="M27.834 30C27.834 29.7261 28.0601 29.5 28.334 29.5C28.6078 29.5 28.834 29.7261 28.834 30C28.834 30.2739 28.6078 30.5 28.334 30.5C28.0601 30.5 27.834 30.2739 27.834 30Z" fill="white" stroke="white"/>
<path d="M27.834 33C27.834 32.7261 28.0601 32.5 28.334 32.5C28.6078 32.5 28.834 32.7261 28.834 33C28.834 33.2739 28.6078 33.5 28.334 33.5C28.0601 33.5 27.834 33.2739 27.834 33Z" fill="white" stroke="white"/>
<path d="M27.834 27C27.834 26.7261 28.0601 26.5 28.334 26.5C28.6078 26.5 28.834 26.7261 28.834 27C28.834 27.2739 28.6078 27.5 28.334 27.5C28.0601 27.5 27.834 27.2739 27.834 27Z" fill="white" stroke="white"/>
<path d="M41.834 30C41.834 29.7261 42.0601 29.5 42.334 29.5C42.6078 29.5 42.834 29.7261 42.834 30C42.834 30.2739 42.6078 30.5 42.334 30.5C42.0601 30.5 41.834 30.2739 41.834 30Z" fill="white" stroke="white"/>
<path d="M41.834 33C41.834 32.7261 42.0601 32.5 42.334 32.5C42.6078 32.5 42.834 32.7261 42.834 33C42.834 33.2739 42.6078 33.5 42.334 33.5C42.0601 33.5 41.834 33.2739 41.834 33Z" fill="white" stroke="white"/>
<path d="M41.834 24C41.834 23.7261 42.0601 23.5 42.334 23.5C42.6078 23.5 42.834 23.7261 42.834 24C42.834 24.2739 42.6078 24.5 42.334 24.5C42.0601 24.5 41.834 24.2739 41.834 24Z" fill="white" stroke="white"/>
<path d="M41.834 27C41.834 26.7261 42.0601 26.5 42.334 26.5C42.6078 26.5 42.834 26.7261 42.834 27C42.834 27.2739 42.6078 27.5 42.334 27.5C42.0601 27.5 41.834 27.2739 41.834 27Z" fill="white" stroke="white"/>
<path d="M41.834 21C41.834 20.7261 42.0601 20.5 42.334 20.5C42.6078 20.5 42.834 20.7261 42.834 21C42.834 21.2739 42.6078 21.5 42.334 21.5C42.0601 21.5 41.834 21.2739 41.834 21Z" fill="white" stroke="white"/>
</svg>
