<svg width="48" height="48" viewBox="0 0 48 48" fill="none" xmlns="http://www.w3.org/2000/svg">
<path fill-rule="evenodd" clip-rule="evenodd" d="M9.16 38C9.16 37.4477 9.60772 37 10.16 37H14.84C15.3923 37 15.84 37.4477 15.84 38C15.84 38.5523 15.3923 39 14.84 39H10.16C9.60772 39 9.16 38.5523 9.16 38Z" fill="#414652"/>
<path fill-rule="evenodd" clip-rule="evenodd" d="M16 24C16.5523 24 17 24.4477 17 25V26C17 26.5523 16.5523 27 16 27C15.4477 27 15 26.5523 15 26V25C15 24.4477 15.4477 24 16 24Z" fill="#414652"/>
<path fill-rule="evenodd" clip-rule="evenodd" d="M10.5829 26.2929C10.9734 25.9024 11.6066 25.9024 11.9971 26.2929L12.7071 27.0029C13.0976 27.3934 13.0976 28.0266 12.7071 28.4171C12.3166 28.8076 11.6834 28.8076 11.2929 28.4171L10.5829 27.7071C10.1924 27.3166 10.1924 26.6834 10.5829 26.2929Z" fill="#414652"/>
<path fill-rule="evenodd" clip-rule="evenodd" d="M9 32C9 31.4477 9.44772 31 10 31H11C11.5523 31 12 31.4477 12 32C12 32.5523 11.5523 33 11 33H10C9.44772 33 9 32.5523 9 32Z" fill="#414652"/>
<path fill-rule="evenodd" clip-rule="evenodd" d="M17.7129 31.2671C17.3234 30.8776 16.6866 30.8776 16.2971 31.2671C15.9076 31.6566 15.9076 32.2934 16.2971 32.6829L23.3671 39.7529C23.5546 39.9404 23.66 40.1948 23.66 40.46C23.66 40.7252 23.5546 40.9796 23.3671 41.1671C22.9776 41.5566 22.9776 42.1934 23.3671 42.5829C23.7566 42.9724 24.3934 42.9724 24.7829 42.5829C25.5634 41.8024 26.8266 41.8024 27.6071 42.5829L28.3171 43.2929C28.7076 43.6834 28.7076 44.3166 28.3171 44.7071C27.9266 45.0976 27.2934 45.0976 26.9029 44.7071L26.195 43.9992C25.0243 45.1676 23.1227 45.1669 21.9529 43.9971C21.0302 43.0744 20.8348 41.6965 21.3668 40.581L14.8829 34.0971C13.7124 32.9266 13.7124 31.0234 14.8829 29.8529C16.0534 28.6824 17.9566 28.6824 19.1271 29.8529L22.27 32.9958L22.9729 32.2929C24.9247 30.3411 28.0861 30.3444 30.0448 32.2906L30.0471 32.2929L31.1471 33.3929C32.4521 34.6979 32.6663 36.6698 31.8009 38.1914C31.7903 38.2109 31.7839 38.2289 31.7806 38.2436C31.7797 38.2476 31.779 38.2512 31.7786 38.2543L32.5671 39.0429C32.9576 39.4334 32.9576 40.0666 32.5671 40.4571C32.1766 40.8476 31.5434 40.8476 31.1529 40.4571L30.3573 39.6615C29.6292 38.9489 29.6579 37.9236 30.0579 37.2108L30.0613 37.2047C30.4934 36.4468 30.3868 35.461 29.7329 34.8071L28.6352 33.7094C28.6348 33.709 28.6345 33.7087 28.6342 33.7084C27.4529 32.5356 25.555 32.5392 24.3871 33.7071L22.9771 35.1171C22.7896 35.3046 22.5352 35.41 22.27 35.41C22.0048 35.41 21.7504 35.3046 21.5629 35.1171L17.7129 31.2671Z" fill="#414652"/>
<path fill-rule="evenodd" clip-rule="evenodd" d="M5 22C5 19.2377 7.23772 17 10 17H16C18.7623 17 21 19.2377 21 22V32.15H19V22C19 20.3423 17.6577 19 16 19H10C8.34228 19 7 20.3423 7 22V38C7 39.6577 8.34228 41 10 41H16C17.6577 41 19 39.6577 19 38V37.81H21V38C21 40.7623 18.7623 43 16 43H10C7.23772 43 5 40.7623 5 38V22Z" fill="#414652"/>
<path d="M36.5 6C38.98 6 41 8.02 41 10.5C41 12.98 38.98 15 36.5 15C34.02 15 32 12.98 32 10.5C32 8.02 34.02 6 36.5 6ZM36.5 4C32.91 4 30 6.91 30 10.5C30 14.09 32.91 17 36.5 17C40.09 17 43 14.09 43 10.5C43 6.91 40.09 4 36.5 4Z" fill="#414652"/>
<path fill-rule="evenodd" clip-rule="evenodd" d="M37.2929 9.29289C37.6834 8.90237 38.3166 8.90237 38.7071 9.29289C39.0976 9.68342 39.0976 10.3166 38.7071 10.7071L36.7071 12.7071C36.3166 13.0976 35.6834 13.0976 35.2929 12.7071L34.2929 11.7071C33.9024 11.3166 33.9024 10.6834 34.2929 10.2929C34.6834 9.90237 35.3166 9.90237 35.7071 10.2929L36 10.5858L37.2929 9.29289Z" fill="#414652"/>
</svg>
