<svg width="48" height="48" viewBox="0 0 48 48" fill="none" xmlns="http://www.w3.org/2000/svg">
<path fill-rule="evenodd" clip-rule="evenodd" d="M12 8.99805C10.3423 8.99805 9 10.3403 9 11.998V17.998C9 19.6558 10.3423 20.998 12 20.998H21V11.998C21 10.3403 19.6577 8.99805 18 8.99805H12ZM7 11.998C7 9.23576 9.23772 6.99805 12 6.99805H18C20.7623 6.99805 23 9.23576 23 11.998V20.998C23 22.1003 22.1023 22.998 21 22.998H12C9.23772 22.998 7 20.7603 7 17.998V11.998ZM30 8.99805C28.3423 8.99805 27 10.3403 27 11.998V20.998H36C37.6577 20.998 39 19.6558 39 17.998V11.998C39 10.3403 37.6577 8.99805 36 8.99805H30ZM25 11.998C25 9.23576 27.2377 6.99805 30 6.99805H36C38.7623 6.99805 41 9.23576 41 11.998V17.998C41 20.7603 38.7623 22.998 36 22.998H27C25.8977 22.998 25 22.1003 25 20.998V11.998ZM34.9999 11.998C35.5522 11.998 35.9999 12.4458 35.9999 12.998V16.998C35.9999 17.5503 35.5522 17.998 34.9999 17.998C34.4476 17.998 33.9999 17.5503 33.9999 16.998V12.998C33.9999 12.4458 34.4476 11.998 34.9999 11.998ZM12.9999 12.998C13.5522 12.998 13.9999 13.4458 13.9999 13.998V16.998C13.9999 17.5503 13.5522 17.998 12.9999 17.998C12.4476 17.998 11.9999 17.5503 11.9999 16.998V13.998C11.9999 13.4458 12.4476 12.998 12.9999 12.998ZM17 13.998C17.5523 13.998 18 14.4458 18 14.998V16.998C18 17.5503 17.5523 17.998 17 17.998C16.4477 17.998 16 17.5503 16 16.998V14.998C16 14.4458 16.4477 13.998 17 13.998ZM30.9999 14.998C31.5522 14.998 31.9999 15.4458 31.9999 15.998V16.998C31.9999 17.5503 31.5522 17.998 30.9999 17.998C30.4476 17.998 29.9999 17.5503 29.9999 16.998V15.998C29.9999 15.4458 30.4476 14.998 30.9999 14.998ZM12 26.998C10.3423 26.998 9 28.3403 9 29.998V35.998C9 37.6558 10.3423 38.998 12 38.998H18C19.6577 38.998 21 37.6558 21 35.998V26.998H12ZM7 29.998C7 27.2358 9.23772 24.998 12 24.998H21C22.1023 24.998 23 25.8958 23 26.998V35.998C23 38.7603 20.7623 40.998 18 40.998H12C9.23772 40.998 7 38.7603 7 35.998V29.998ZM24.9999 26.998C24.9999 25.8958 25.8976 24.998 26.9999 24.998H35.9999C38.7622 24.998 40.9999 27.2358 40.9999 29.998V35.998C40.9999 38.7603 38.7622 40.998 35.9999 40.998H29.9999C27.2376 40.998 24.9999 38.7603 24.9999 35.998V26.998ZM35.9999 26.998H26.9999V35.998C26.9999 37.6558 28.3422 38.998 29.9999 38.998H35.9999C37.6576 38.998 38.9999 37.6558 38.9999 35.998V29.998C38.9999 28.3403 37.6576 26.998 35.9999 26.998ZM17 29.998C17.5523 29.998 18 30.4458 18 30.998V34.998C18 35.5503 17.5523 35.998 17 35.998C16.4477 35.998 16 35.5503 16 34.998V30.998C16 30.4458 16.4477 29.998 17 29.998ZM30.9999 29.998C31.5522 29.998 31.9999 30.4458 31.9999 30.998V34.998C31.9999 35.5503 31.5522 35.998 30.9999 35.998C30.4476 35.998 29.9999 35.5503 29.9999 34.998V30.998C29.9999 30.4458 30.4476 29.998 30.9999 29.998ZM12.9999 30.998C13.5522 30.998 13.9999 31.4458 13.9999 31.998V34.998C13.9999 35.5503 13.5522 35.998 12.9999 35.998C12.4476 35.998 11.9999 35.5503 11.9999 34.998V31.998C11.9999 31.4458 12.4476 30.998 12.9999 30.998ZM34.9999 32.998C35.5522 32.998 35.9999 33.4458 35.9999 33.998V34.998C35.9999 35.5503 35.5522 35.998 34.9999 35.998C34.4476 35.998 33.9999 35.5503 33.9999 34.998V33.998C33.9999 33.4458 34.4476 32.998 34.9999 32.998Z" fill="#414652"/>
</svg>
