<svg width="256" height="256" viewBox="0 0 256 256" fill="none" xmlns="http://www.w3.org/2000/svg">
<rect width="256" height="256" fill="white"/>
<path d="M191.333 158V164.667H198V158H191.333ZM64.6667 131.333V138H71.3333V131.333H64.6667ZM138 131.333V138H144.667V131.333H138ZM118 218V224.667H124.667V218H118ZM191.333 218V224.667H198V218H191.333ZM138 191.333V198H144.667V191.333H138ZM144.667 18V24.6667H151.333V18H144.667ZM218 18V24.6667H224.667V18H218ZM198 104.667V111.333H204.667V104.667H198ZM144.667 78V84.6667H151.333V78H144.667ZM218 78V84.6667H224.667V78H218ZM18 51.3333V58H24.6667V51.3333H18ZM91.3333 51.3333V58H98V51.3333H91.3333ZM18 111.333V118H24.6667V111.333H18ZM91.3333 111.333V118H98V111.333H91.3333ZM18 171.333V178H24.6667V171.333H18ZM91.3333 171.333V178H98V171.333H91.3333ZM84.6667 198V204.667H91.3333V198H84.6667ZM44.6667 31.3333V38H51.3333V31.3333H44.6667ZM31.3333 231.333V238H38V231.333H31.3333ZM38 58V64.6667H44.6667V58H38ZM164.667 144.667V151.333H171.333V144.667H164.667ZM111.333 118V124.667H118V118H111.333ZM164.667 204.667V211.333H171.333V204.667H164.667ZM118 124.667V131.333H124.667V124.667H118ZM64.6667 98V104.667H71.3333V98H64.6667ZM138 98V104.667H144.667V98H138ZM198 71.3333V78H204.667V71.3333H198ZM211.333 198V204.667H218V198H211.333ZM144.667 44.6667V51.3333H151.333V44.6667H144.667ZM218 44.6667V51.3333H224.667V44.6667H218ZM18 18V24.6667H24.6667V18H18ZM18 78V84.6667H24.6667V78H18ZM84.6667 164.667V171.333H91.3333V164.667H84.6667ZM184.667 151.333V158H191.333V151.333H184.667ZM184.667 211.333V218H191.333V211.333H184.667ZM111.333 24.6667V31.3333H118V24.6667H111.333ZM164.667 111.333V118H171.333V111.333H164.667ZM111.333 84.6667V91.3333H118V84.6667H111.333ZM164.667 171.333V178H171.333V171.333H164.667ZM164.667 231.333V238H171.333V231.333H164.667ZM38 204.667V211.333H44.6667V204.667H38ZM111.333 204.667V211.333H118V204.667H111.333ZM191.333 31.3333V38H198V31.3333H191.333ZM118 91.3333V98H124.667V91.3333H118ZM211.333 164.667V171.333H218V164.667H211.333ZM58 211.333V218H64.6667V211.333H58ZM211.333 224.667V231.333H218V224.667H211.333ZM158 198V204.667H164.667V198H158ZM84.6667 131.333V138H91.3333V131.333H84.6667ZM31.3333 104.667V111.333H38V104.667H31.3333ZM184.667 118V124.667H191.333V118H184.667ZM31.3333 164.667V171.333H38V164.667H31.3333ZM184.667 178V184.667H191.333V178H184.667ZM164.667 18V24.6667H171.333V18H164.667ZM164.667 78V84.6667H171.333V78H164.667ZM164.667 198V204.667H171.333V198H164.667ZM111.333 171.333V178H118V171.333H111.333ZM191.333 58V64.6667H198V58H191.333ZM204.667 184.667V191.333H211.333V184.667H204.667ZM64.6667 91.3333V98H71.3333V91.3333H64.6667ZM138 91.3333V98H144.667V91.3333H138ZM78 218V224.667H84.6667V218H78ZM211.333 71.3333V78H218V71.3333H211.333ZM211.333 131.333V138H218V131.333H211.333ZM158 104.667V111.333H164.667V104.667H158ZM58 178V184.667H64.6667V178H58ZM211.333 191.333V198H218V191.333H211.333ZM158 224.667V231.333H164.667V224.667H158ZM84.6667 38V44.6667H91.3333V38H84.6667ZM84.6667 98V104.667H91.3333V98H84.6667ZM31.3333 71.3333V78H38V71.3333H31.3333ZM184.667 84.6667V91.3333H191.333V84.6667H184.667ZM84.6667 158V164.667H91.3333V158H84.6667ZM31.3333 191.333V198H38V191.333H31.3333ZM184.667 204.667V211.333H191.333V204.667H184.667ZM38 18V24.6667H44.6667V18H38ZM164.667 104.667V111.333H171.333V104.667H164.667ZM178 231.333V238H184.667V231.333H178ZM38 78V84.6667H44.6667V78H38ZM111.333 78V84.6667H118V78H111.333ZM38 138V144.667H44.6667V138H38ZM111.333 138V144.667H118V138H111.333ZM191.333 24.6667V31.3333H198V24.6667H191.333ZM131.333 151.333V158H138V151.333H131.333ZM204.667 151.333V158H211.333V151.333H204.667ZM131.333 211.333V218H138V211.333H131.333ZM204.667 211.333V218H211.333V211.333H204.667ZM211.333 38V44.6667H218V38H211.333ZM58 84.6667V91.3333H64.6667V84.6667H58ZM211.333 98V104.667H218V98H211.333ZM211.333 158V164.667H218V158H211.333ZM158 131.333V138H164.667V131.333H158ZM58 204.667V211.333H64.6667V204.667H58ZM84.6667 64.6667V71.3333H91.3333V64.6667H84.6667ZM31.3333 38V44.6667H38V38H31.3333ZM31.3333 98V104.667H38V98H31.3333ZM184.667 111.333V118H191.333V111.333H184.667ZM84.6667 184.667V191.333H91.3333V184.667H84.6667ZM31.3333 218V224.667H38V218H31.3333ZM164.667 71.3333V78H171.333V71.3333H164.667ZM104.667 198V204.667H111.333V198H104.667ZM178 198V204.667H184.667V198H178ZM38 44.6667V51.3333H44.6667V44.6667H38ZM204.667 58V64.6667H211.333V58H204.667ZM131.333 178V184.667H138V178H131.333ZM204.667 178V184.667H211.333V178H204.667ZM78 151.333V158H84.6667V151.333H78ZM58 51.3333V58H64.6667V51.3333H58ZM58 111.333V118H64.6667V111.333H58ZM58 231.333V238H64.6667V231.333H58ZM158 218V224.667H164.667V218H158ZM231.333 131.333V138H238V131.333H231.333ZM178 104.667V111.333H184.667V104.667H178ZM124.667 138V144.667H131.333V138H124.667ZM124.667 198V204.667H131.333V198H124.667ZM204.667 84.6667V91.3333H211.333V84.6667H204.667ZM51.3333 131.333V138H58V131.333H51.3333ZM204.667 144.667V151.333H211.333V144.667H204.667ZM78 118V124.667H84.6667V118H78ZM51.3333 191.333V198H58V191.333H51.3333ZM131.333 204.667V211.333H138V204.667H131.333ZM204.667 204.667V211.333H211.333V204.667H204.667ZM58 18V24.6667H64.6667V18H58ZM211.333 31.3333V38H218V31.3333H211.333ZM158 64.6667V71.3333H164.667V64.6667H158ZM58 138V144.667H64.6667V138H58ZM151.333 151.333V158H158V151.333H151.333ZM151.333 211.333V218H158V211.333H151.333ZM224.667 211.333V218H231.333V211.333H224.667ZM84.6667 58V64.6667H91.3333V58H84.6667ZM98 184.667V191.333H104.667V184.667H98ZM31.3333 31.3333V38H38V31.3333H31.3333ZM231.333 38V44.6667H238V38H231.333ZM31.3333 91.3333V98H38V91.3333H31.3333ZM44.6667 218V224.667H51.3333V218H44.6667ZM231.333 158V164.667H238V158H231.333ZM24.6667 118V124.667H31.3333V118H24.6667ZM104.667 131.333V138H111.333V131.333H104.667ZM104.667 191.333V198H111.333V191.333H104.667ZM178 191.333V198H184.667V191.333H178ZM124.667 224.667V231.333H131.333V224.667H124.667ZM131.333 51.3333V58H138V51.3333H131.333ZM51.3333 98V104.667H58V98H51.3333ZM131.333 111.333V118H138V111.333H131.333ZM204.667 111.333V118H211.333V111.333H204.667ZM51.3333 158V164.667H58V158H51.3333ZM78 144.667V151.333H84.6667V144.667H78ZM78 204.667V211.333H84.6667V204.667H78ZM58 44.6667V51.3333H64.6667V44.6667H58ZM211.333 58V64.6667H218V58H211.333ZM158 31.3333V38H164.667V31.3333H158ZM71.3333 231.333V238H78V231.333H71.3333ZM144.667 231.333V238H151.333V231.333H144.667ZM151.333 118V124.667H158V118H151.333ZM98 151.333V158H104.667V151.333H98ZM171.333 151.333V158H178V151.333H171.333ZM178 38V44.6667H184.667V38H178ZM24.6667 84.6667V91.3333H31.3333V84.6667H24.6667ZM178 98V104.667H184.667V98H178ZM231.333 184.667V191.333H238V184.667H231.333ZM24.6667 144.667V151.333H31.3333V144.667H24.6667ZM124.667 131.333V138H131.333V131.333H124.667ZM124.667 191.333V198H131.333V191.333H124.667ZM204.667 18V24.6667H211.333V18H204.667ZM78 51.3333V58H84.6667V51.3333H78ZM51.3333 124.667V131.333H58V124.667H51.3333ZM78 111.333V118H84.6667V111.333H78ZM198 164.667V171.333H204.667V164.667H198ZM144.667 198V204.667H151.333V198H144.667ZM218 198V204.667H224.667V198H218ZM18 231.333V238H24.6667V231.333H18ZM91.3333 231.333V238H98V231.333H91.3333ZM224.667 84.6667V91.3333H231.333V84.6667H224.667ZM98 58V64.6667H104.667V58H98ZM151.333 204.667V211.333H158V204.667H151.333ZM44.6667 91.3333V98H51.3333V91.3333H44.6667ZM231.333 31.3333V38H238V31.3333H231.333ZM44.6667 151.333V158H51.3333V151.333H44.6667ZM44.6667 211.333V218H51.3333V211.333H44.6667ZM178 64.6667V71.3333H184.667V64.6667H178ZM178 124.667V131.333H184.667V124.667H178ZM178 184.667V191.333H184.667V184.667H178ZM124.667 158V164.667H131.333V158H124.667ZM24.6667 231.333V238H31.3333V231.333H24.6667ZM204.667 44.6667V51.3333H211.333V44.6667H204.667ZM51.3333 91.3333V98H58V91.3333H51.3333ZM144.667 104.667V111.333H151.333V104.667H144.667ZM71.3333 164.667V171.333H78V164.667H71.3333ZM71.3333 224.667V231.333H78V224.667H71.3333ZM144.667 224.667V231.333H151.333V224.667H144.667ZM218 224.667V231.333H224.667V224.667H218ZM18 198V204.667H24.6667V198H18ZM151.333 51.3333V58H158V51.3333H151.333ZM151.333 111.333V118H158V111.333H151.333ZM224.667 111.333V118H231.333V111.333H224.667ZM151.333 171.333V178H158V171.333H151.333ZM44.6667 58V64.6667H51.3333V58H44.6667ZM98 144.667V151.333H104.667V144.667H98ZM171.333 144.667V151.333H178V144.667H171.333ZM224.667 231.333V238H231.333V231.333H224.667ZM98 204.667V211.333H104.667V204.667H98ZM231.333 58V64.6667H238V58H231.333ZM44.6667 178V184.667H51.3333V178H44.6667ZM24.6667 18V24.6667H31.3333V18H24.6667ZM104.667 31.3333V38H111.333V31.3333H104.667ZM178 31.3333V38H184.667V31.3333H178ZM104.667 91.3333V98H111.333V91.3333H104.667ZM124.667 64.6667V71.3333H131.333V64.6667H124.667ZM124.667 124.667V131.333H131.333V124.667H124.667ZM51.3333 58V64.6667H58V58H51.3333ZM198 98V104.667H204.667V98H198ZM71.3333 71.3333V78H78V71.3333H71.3333ZM144.667 71.3333V78H151.333V71.3333H144.667ZM18 44.6667V51.3333H24.6667V44.6667H18ZM144.667 131.333V138H151.333V131.333H144.667ZM71.3333 191.333V198H78V191.333H71.3333ZM18 164.667V171.333H24.6667V164.667H18ZM91.3333 164.667V171.333H98V164.667H91.3333ZM151.333 18V24.6667H158V18H151.333ZM224.667 18V24.6667H231.333V18H224.667ZM18 224.667V231.333H24.6667V224.667H18ZM91.3333 224.667V231.333H98V224.667H91.3333ZM151.333 78V84.6667H158V78H151.333ZM224.667 78V84.6667H231.333V78H224.667ZM98 51.3333V58H104.667V51.3333H98ZM224.667 138V144.667H231.333V138H224.667ZM98 111.333V118H104.667V111.333H98ZM44.6667 84.6667V91.3333H51.3333V84.6667H44.6667ZM171.333 171.333V178H178V171.333H171.333ZM231.333 24.6667V31.3333H238V24.6667H231.333ZM44.6667 144.667V151.333H51.3333V144.667H44.6667ZM44.6667 204.667V211.333H51.3333V204.667H44.6667ZM178 58V64.6667H184.667V58H178ZM124.667 31.3333V38H131.333V31.3333H124.667ZM38 231.333V238H44.6667V231.333H38ZM118 178V184.667H124.667V178H118ZM191.333 178V184.667H198V178H191.333ZM64.6667 151.333V158H71.3333V151.333H64.6667ZM71.3333 38V44.6667H78V38H71.3333ZM218 38V44.6667H224.667V38H218ZM198 124.667V131.333H204.667V124.667H198ZM18 71.3333V78H24.6667V71.3333H18ZM91.3333 71.3333V78H98V71.3333H91.3333ZM71.3333 218V224.667H78V218H71.3333ZM218 218V224.667H224.667V218H218ZM18 191.333V198H24.6667V191.333H18ZM151.333 44.6667V51.3333H158V44.6667H151.333ZM98 18V24.6667H104.667V18H98ZM171.333 18V24.6667H178V18H171.333ZM151.333 104.667V111.333H158V104.667H151.333ZM224.667 104.667V111.333H231.333V104.667H224.667ZM98 78V84.6667H104.667V78H98ZM171.333 78V84.6667H178V78H171.333ZM44.6667 111.333V118H51.3333V111.333H44.6667ZM164.667 164.667V171.333H171.333V164.667H164.667ZM118 24.6667V31.3333H124.667V24.6667H118ZM118 84.6667V91.3333H124.667V84.6667H118ZM138 58V64.6667H144.667V58H138ZM118 144.667V151.333H124.667V144.667H118ZM191.333 144.667V151.333H198V144.667H191.333ZM118 204.667V211.333H124.667V204.667H118ZM191.333 204.667V211.333H198V204.667H191.333ZM198 151.333V158H204.667V151.333H198ZM18 38V44.6667H24.6667V38H18ZM71.3333 124.667V131.333H78V124.667H71.3333ZM144.667 184.667V191.333H151.333V184.667H144.667ZM218 184.667V191.333H224.667V184.667H218ZM18 158V164.667H24.6667V158H18ZM91.3333 218V224.667H98V218H91.3333ZM171.333 44.6667V51.3333H178V44.6667H171.333ZM184.667 171.333V178H191.333V171.333H184.667ZM44.6667 18V24.6667H51.3333V18H44.6667ZM44.6667 78V84.6667H51.3333V78H44.6667ZM164.667 131.333V138H171.333V131.333H164.667ZM38 104.667V111.333H44.6667V104.667H38ZM111.333 224.667V231.333H118V224.667H111.333ZM118 51.3333V58H124.667V51.3333H118ZM191.333 51.3333V58H198V51.3333H191.333ZM118 111.333V118H124.667V111.333H118ZM64.6667 84.6667V91.3333H71.3333V84.6667H64.6667ZM118 231.333V238H124.667V231.333H118ZM191.333 231.333V238H198V231.333H191.333ZM138 204.667V211.333H144.667V204.667H138ZM198 58V64.6667H204.667V58H198ZM144.667 31.3333V38H151.333V31.3333H144.667ZM218 31.3333V38H224.667V31.3333H218ZM218 91.3333V98H224.667V91.3333H218ZM91.3333 64.6667V71.3333H98V64.6667H91.3333ZM18 124.667V131.333H24.6667V124.667H18ZM91.3333 124.667V131.333H98V124.667H91.3333ZM84.6667 151.333V158H91.3333V151.333H84.6667ZM84.6667 211.333V218H91.3333V211.333H84.6667ZM164.667 38V44.6667H171.333V38H164.667ZM164.667 98V104.667H171.333V98H164.667ZM38 71.3333V78H44.6667V71.3333H38ZM111.333 131.333V138H118V131.333H111.333ZM164.667 218V224.667H171.333V218H164.667ZM38 191.333V198H44.6667V191.333H38ZM111.333 191.333V198H118V191.333H111.333ZM118 18V24.6667H124.667V18H118ZM191.333 18V24.6667H198V18H191.333ZM191.333 78V84.6667H198V78H191.333ZM138 51.3333V58H144.667V51.3333H138ZM118 138V144.667H124.667V138H118ZM138 171.333V178H144.667V171.333H138ZM58 198V204.667H64.6667V198H58ZM211.333 211.333V218H218V211.333H211.333ZM218 58V64.6667H224.667V58H218ZM158 184.667V191.333H164.667V184.667H158ZM18 31.3333V38H24.6667V31.3333H18ZM31.3333 151.333V158H38V151.333H31.3333ZM31.3333 211.333V218H38V211.333H31.3333ZM184.667 224.667V231.333H191.333V224.667H184.667ZM164.667 64.6667V71.3333H171.333V64.6667H164.667ZM38 38V44.6667H44.6667V38H38ZM111.333 38V44.6667H118V38H111.333ZM164.667 124.667V131.333H171.333V124.667H164.667ZM38 98V104.667H44.6667V98H38ZM111.333 98V104.667H118V98H111.333ZM164.667 184.667V191.333H171.333V184.667H164.667ZM38 218V224.667H44.6667V218H38ZM191.333 44.6667V51.3333H198V44.6667H191.333ZM138 18V24.6667H144.667V18H138ZM191.333 104.667V111.333H198V104.667H191.333ZM131.333 231.333V238H138V231.333H131.333ZM64.6667 78V84.6667H71.3333V78H64.6667ZM138 138V144.667H144.667V138H138ZM158 91.3333V98H164.667V91.3333H158ZM58 164.667V171.333H64.6667V164.667H58ZM211.333 178V184.667H218V178H211.333ZM58 224.667V231.333H64.6667V224.667H58ZM158 211.333V218H164.667V211.333H158ZM84.6667 24.6667V31.3333H91.3333V24.6667H84.6667ZM84.6667 84.6667V91.3333H91.3333V84.6667H84.6667ZM31.3333 58V64.6667H38V58H31.3333ZM184.667 71.3333V78H191.333V71.3333H184.667ZM31.3333 118V124.667H38V118H31.3333ZM184.667 131.333V138H191.333V131.333H184.667ZM84.6667 204.667V211.333H91.3333V204.667H84.6667ZM31.3333 178V184.667H38V178H31.3333ZM111.333 64.6667V71.3333H118V64.6667H111.333ZM111.333 184.667V191.333H118V184.667H111.333ZM204.667 198V204.667H211.333V198H204.667ZM138 44.6667V51.3333H144.667V44.6667H138ZM78 231.333V238H84.6667V231.333H78ZM58 71.3333V78H64.6667V71.3333H58ZM211.333 84.6667V91.3333H218V84.6667H211.333ZM158 118V124.667H164.667V118H158ZM58 191.333V198H64.6667V191.333H58ZM211.333 204.667V211.333H218V204.667H211.333ZM31.3333 84.6667V91.3333H38V84.6667H31.3333ZM184.667 98V104.667H191.333V98H184.667ZM84.6667 171.333V178H91.3333V171.333H84.6667ZM31.3333 144.667V151.333H38V144.667H31.3333ZM84.6667 231.333V238H91.3333V231.333H84.6667ZM31.3333 204.667V211.333H38V204.667H31.3333ZM231.333 211.333V218H238V211.333H231.333ZM164.667 58V64.6667H171.333V58H164.667ZM104.667 184.667V191.333H111.333V184.667H104.667ZM38 31.3333V38H44.6667V31.3333H38ZM38 91.3333V98H44.6667V91.3333H38ZM131.333 104.667V111.333H138V104.667H131.333ZM78 198V204.667H84.6667V198H78ZM58 38V44.6667H64.6667V38H58ZM58 98V104.667H64.6667V98H58ZM158 84.6667V91.3333H164.667V84.6667H158ZM211.333 171.333V178H218V171.333H211.333ZM158 144.667V151.333H164.667V144.667H158ZM58 218V224.667H64.6667V218H58ZM84.6667 18V24.6667H91.3333V18H84.6667ZM84.6667 78V84.6667H91.3333V78H84.6667ZM84.6667 138V144.667H91.3333V138H84.6667ZM184.667 124.667V131.333H191.333V124.667H184.667ZM231.333 178V184.667H238V178H231.333ZM178 151.333V158H184.667V151.333H178ZM111.333 58V64.6667H118V58H111.333ZM124.667 184.667V191.333H131.333V184.667H124.667ZM131.333 71.3333V78H138V71.3333H131.333ZM78 44.6667V51.3333H84.6667V44.6667H78ZM51.3333 118V124.667H58V118H51.3333ZM78 104.667V111.333H84.6667V104.667H78ZM204.667 191.333V198H211.333V191.333H204.667ZM211.333 18V24.6667H218V18H211.333ZM78 224.667V231.333H84.6667V224.667H78ZM158 51.3333V58H164.667V51.3333H158ZM58 124.667V131.333H64.6667V124.667H58ZM211.333 138V144.667H218V138H211.333ZM158 111.333V118H164.667V111.333H158ZM158 171.333V178H164.667V171.333H158ZM224.667 198V204.667H231.333V198H224.667ZM31.3333 18V24.6667H38V18H31.3333ZM231.333 204.667V211.333H238V204.667H231.333ZM124.667 91.3333V98H131.333V91.3333H124.667ZM178 178V184.667H184.667V178H178ZM124.667 211.333V218H131.333V211.333H124.667ZM131.333 38V44.6667H138V38H131.333ZM204.667 38V44.6667H211.333V38H204.667ZM51.3333 84.6667V91.3333H58V84.6667H51.3333ZM131.333 98V104.667H138V98H131.333ZM204.667 98V104.667H211.333V98H204.667ZM78 71.3333V78H84.6667V71.3333H78ZM78 191.333V198H84.6667V191.333H78ZM58 31.3333V38H64.6667V31.3333H58ZM211.333 44.6667V51.3333H218V44.6667H211.333ZM158 18V24.6667H164.667V18H158ZM158 78V84.6667H164.667V78H158ZM58 151.333V158H64.6667V151.333H58ZM151.333 164.667V171.333H158V164.667H151.333ZM224.667 164.667V171.333H231.333V164.667H224.667ZM151.333 224.667V231.333H158V224.667H151.333ZM98 198V204.667H104.667V198H98ZM171.333 198V204.667H178V198H171.333ZM31.3333 44.6667V51.3333H38V44.6667H31.3333ZM231.333 51.3333V58H238V51.3333H231.333ZM44.6667 171.333V178H51.3333V171.333H44.6667ZM104.667 24.6667V31.3333H111.333V24.6667H104.667ZM44.6667 231.333V238H51.3333V231.333H44.6667ZM24.6667 71.3333V78H31.3333V71.3333H24.6667ZM104.667 84.6667V91.3333H111.333V84.6667H104.667ZM124.667 58V64.6667H131.333V58H124.667ZM24.6667 131.333V138H31.3333V131.333H24.6667ZM104.667 144.667V151.333H111.333V144.667H104.667ZM124.667 118V124.667H131.333V118H124.667ZM24.6667 191.333V198H31.3333V191.333H24.6667ZM178 204.667V211.333H184.667V204.667H178ZM124.667 178V184.667H131.333V178H124.667ZM78 38V44.6667H84.6667V38H78ZM131.333 124.667V131.333H138V124.667H131.333ZM204.667 124.667V131.333H211.333V124.667H204.667ZM78 98V104.667H84.6667V98H78ZM51.3333 231.333V238H58V231.333H51.3333ZM58 58V64.6667H64.6667V58H58ZM71.3333 184.667V191.333H78V184.667H71.3333ZM18 218V224.667H24.6667V218H18ZM224.667 71.3333V78H231.333V71.3333H224.667ZM151.333 131.333V138H158V131.333H151.333ZM224.667 131.333V138H231.333V131.333H224.667ZM171.333 104.667V111.333H178V104.667H171.333ZM224.667 191.333V198H231.333V191.333H224.667ZM98 164.667V171.333H104.667V164.667H98ZM231.333 18V24.6667H238V18H231.333ZM44.6667 138V144.667H51.3333V138H44.6667ZM231.333 78V84.6667H238V78H231.333ZM124.667 24.6667V31.3333H131.333V24.6667H124.667ZM231.333 198V204.667H238V198H231.333ZM124.667 84.6667V91.3333H131.333V84.6667H124.667ZM24.6667 158V164.667H31.3333V158H24.6667ZM178 171.333V178H184.667V171.333H178ZM51.3333 18V24.6667H58V18H51.3333ZM204.667 31.3333V38H211.333V31.3333H204.667ZM51.3333 78V84.6667H58V78H51.3333ZM204.667 91.3333V98H211.333V91.3333H204.667ZM78 64.6667V71.3333H84.6667V64.6667H78ZM78 124.667V131.333H84.6667V124.667H78ZM198 118V124.667H204.667V118H198ZM198 178V184.667H204.667V178H198ZM58 24.6667V31.3333H64.6667V24.6667H58ZM71.3333 211.333V218H78V211.333H71.3333ZM144.667 211.333V218H151.333V211.333H144.667ZM218 211.333V218H224.667V211.333H218ZM151.333 38V44.6667H158V38H151.333ZM151.333 158V164.667H158V158H151.333ZM44.6667 44.6667V51.3333H51.3333V44.6667H44.6667ZM224.667 158V164.667H231.333V158H224.667ZM98 131.333V138H104.667V131.333H98ZM171.333 131.333V138H178V131.333H171.333ZM151.333 218V224.667H158V218H151.333ZM44.6667 104.667V111.333H51.3333V104.667H44.6667ZM171.333 191.333V198H178V191.333H171.333ZM231.333 44.6667V51.3333H238V44.6667H231.333ZM104.667 18V24.6667H111.333V18H104.667ZM231.333 104.667V111.333H238V104.667H231.333ZM104.667 78V84.6667H111.333V78H104.667ZM124.667 51.3333V58H131.333V51.3333H124.667ZM24.6667 124.667V131.333H31.3333V124.667H24.6667ZM104.667 138V144.667H111.333V138H104.667ZM118 198V204.667H124.667V198H118ZM198 84.6667V91.3333H204.667V84.6667H198ZM71.3333 58V64.6667H78V58H71.3333ZM198 144.667V151.333H204.667V144.667H198ZM218 118V124.667H224.667V118H218ZM198 204.667V211.333H204.667V204.667H198ZM71.3333 178V184.667H78V178H71.3333ZM18 151.333V158H24.6667V151.333H18ZM18 211.333V218H24.6667V211.333H18ZM98 38V44.6667H104.667V38H98ZM224.667 124.667V131.333H231.333V124.667H224.667ZM98 98V104.667H104.667V98H98ZM171.333 98V104.667H178V98H171.333ZM151.333 184.667V191.333H158V184.667H151.333ZM44.6667 71.3333V78H51.3333V71.3333H44.6667ZM171.333 158V164.667H178V158H171.333ZM44.6667 131.333V138H51.3333V131.333H44.6667ZM98 218V224.667H104.667V218H98ZM171.333 218V224.667H178V218H171.333ZM44.6667 191.333V198H51.3333V191.333H44.6667ZM24.6667 91.3333V98H31.3333V91.3333H24.6667ZM124.667 78V84.6667H131.333V78H124.667ZM24.6667 151.333V158H31.3333V151.333H24.6667ZM118 164.667V171.333H124.667V164.667H118ZM191.333 164.667V171.333H198V164.667H191.333ZM64.6667 138V144.667H71.3333V138H64.6667ZM118 224.667V231.333H124.667V224.667H118ZM138 198V204.667H144.667V198H138ZM71.3333 24.6667V31.3333H78V24.6667H71.3333ZM71.3333 84.6667V91.3333H78V84.6667H71.3333ZM18 58V64.6667H24.6667V58H18ZM71.3333 144.667V151.333H78V144.667H71.3333ZM144.667 144.667V151.333H151.333V144.667H144.667ZM218 144.667V151.333H224.667V144.667H218ZM91.3333 118V124.667H98V118H91.3333ZM198 231.333V238H204.667V231.333H198ZM71.3333 204.667V211.333H78V204.667H71.3333ZM18 178V184.667H24.6667V178H18ZM91.3333 178V184.667H98V178H91.3333ZM151.333 91.3333V98H158V91.3333H151.333ZM171.333 64.6667V71.3333H178V64.6667H171.333ZM224.667 151.333V158H231.333V151.333H224.667ZM44.6667 38V44.6667H51.3333V38H44.6667ZM171.333 124.667V131.333H178V124.667H171.333ZM44.6667 158V164.667H51.3333V158H44.6667ZM164.667 211.333V218H171.333V211.333H164.667ZM24.6667 58V64.6667H31.3333V58H24.6667ZM124.667 44.6667V51.3333H131.333V44.6667H124.667ZM118 71.3333V78H124.667V71.3333H118ZM191.333 131.333V138H198V131.333H191.333ZM118 191.333V198H124.667V191.333H118ZM191.333 191.333V198H198V191.333H191.333ZM138 164.667V171.333H144.667V164.667H138ZM198 18V24.6667H204.667V18H198ZM71.3333 51.3333V58H78V51.3333H71.3333ZM18 24.6667V31.3333H24.6667V24.6667H18ZM71.3333 111.333V118H78V111.333H71.3333ZM18 84.6667V91.3333H24.6667V84.6667H18ZM218 171.333V178H224.667V171.333H218ZM18 144.667V151.333H24.6667V144.667H18ZM18 204.667V211.333H24.6667V204.667H18ZM151.333 58V64.6667H158V58H151.333ZM224.667 58V64.6667H231.333V58H224.667ZM98 31.3333V38H104.667V31.3333H98ZM171.333 31.3333V38H178V31.3333H171.333ZM98 91.3333V98H104.667V91.3333H98ZM171.333 91.3333V98H178V91.3333H171.333ZM184.667 218V224.667H191.333V218H184.667ZM164.667 178V184.667H171.333V178H164.667ZM38 151.333V158H44.6667V151.333H38ZM111.333 151.333V158H118V151.333H111.333ZM38 211.333V218H44.6667V211.333H38ZM191.333 38V44.6667H198V38H191.333ZM64.6667 71.3333V78H71.3333V71.3333H64.6667Z" fill="black"/>
</svg>
