<svg width="32" height="32" viewBox="0 0 32 32" fill="none" xmlns="http://www.w3.org/2000/svg">
<g clip-path="url(#clip0_496_18500)">
<path d="M0 6C0 2.68629 2.68629 0 6 0H26C29.3137 0 32 2.68629 32 6V26C32 29.3137 29.3137 32 26 32H6C2.68629 32 0 29.3137 0 26V6Z" fill="#FF444F"/>
<path d="M6 0C2.68629 0 0 2.68629 0 6V6.17428L29.9144 1.45264C28.8637 0.547333 27.4958 0 26 0H6Z" fill="#E12E3A"/>
<path d="M30.5319 2.06775L25.0444 32L26 32C29.3137 32 32 29.3137 32 26V6C32 4.49576 31.4465 3.12081 30.5319 2.06775Z" fill="#E12E3A"/>
<path d="M8.52946 20.851V11.149H15.0815V12.983H10.7135V14.887H14.5915V16.679H10.7135V19.017H15.4035V20.851H8.52946Z" fill="white"/>
<path d="M23.3161 12.661C23.0174 12.969 22.6628 13.3704 22.2521 13.865C21.8414 14.3504 21.4168 14.8824 20.9781 15.461C20.5394 16.0397 20.1054 16.637 19.6761 17.253C19.2468 17.869 18.8641 18.457 18.5281 19.017H23.4701V20.851H15.8401V19.549C16.1014 19.073 16.4188 18.5457 16.7921 17.967C17.1748 17.379 17.5714 16.791 17.9821 16.203C18.3928 15.6057 18.8081 15.0317 19.2281 14.481C19.6574 13.921 20.0541 13.4217 20.4181 12.983H16.0641V11.149H23.3161V12.661Z" fill="white"/>
</g>
<defs>
<clipPath id="clip0_496_18500">
<rect width="32" height="32" fill="white"/>
</clipPath>
</defs>
</svg>
