<svg width="32" height="32" viewBox="0 0 32 32" fill="none" xmlns="http://www.w3.org/2000/svg">
<g clip-path="url(#clip0_1339_1826)">
<path d="M0 6C0 2.69 2.69 0 6 0H26C29.31 0 32 2.69 32 6V26C32 29.31 29.31 32 26 32H6C2.69 32 0 29.31 0 26V6Z" fill="url(#paint0_linear_1339_1826)"/>
<path d="M6.09445 11.7422L9.35471 16.0003L4.12891 20.2583H9.41066C10.1592 20.2584 10.8859 20.0029 11.4717 19.537C12.0576 19.0711 12.4683 18.4203 12.6366 17.691L13.0739 15.7966C13.186 15.3114 13.187 14.8071 13.0771 14.3214C12.9672 13.8357 12.749 13.3811 12.439 12.9913C12.1289 12.6016 11.7349 12.2869 11.2863 12.0706C10.8377 11.8544 10.3461 11.7421 9.84813 11.7422H6.09445Z" fill="url(#paint1_linear_1339_1826)"/>
<path d="M9.35471 16.0003L7.03213 20.2583H4.12891L9.35471 16.0003Z" fill="#CC2E3D"/>
<path d="M20.0328 20.2583L20.4317 18.2988L24.7887 13.7017H21.3656L21.7646 11.7422H27.924L27.525 13.7017L23.1681 18.2988H26.6458L26.2469 20.2583H20.0328ZM19.7203 16.9341L20.1193 14.9746H14.8655L13.8063 20.2583H19.5826L19.9816 18.2988H16.3679L16.6397 16.9341H19.7221H19.7203ZM15.5134 11.7422L15.1198 13.7017H20.9137L21.3127 11.7422H15.5134Z" fill="white"/>
</g>
<defs>
<linearGradient id="paint0_linear_1339_1826" x1="16" y1="32" x2="16" y2="0" gradientUnits="userSpaceOnUse">
<stop/>
<stop offset="1" stop-color="#58595B"/>
</linearGradient>
<linearGradient id="paint1_linear_1339_1826" x1="19.1632" y1="10.2748" x2="18.5057" y2="21.2039" gradientUnits="userSpaceOnUse">
<stop stop-color="#FF6444"/>
<stop offset="1" stop-color="#FF444F"/>
</linearGradient>
<clipPath id="clip0_1339_1826">
<rect width="32" height="32" fill="white"/>
</clipPath>
</defs>
</svg>
