<svg width="64" height="64" viewBox="0 0 64 64" fill="none" xmlns="http://www.w3.org/2000/svg">
<path d="M32 64C49.6731 64 64 49.6731 64 32C64 14.3269 49.6731 0 32 0C14.3269 0 0 14.3269 0 32C0 49.6731 14.3269 64 32 64Z" fill="#FF6444" fill-opacity="0.08"/>
<path fill-rule="evenodd" clip-rule="evenodd" d="M18 19H46C47.105 19 48 19.895 48 21V23H16V21C16 19.895 16.895 19 18 19Z" fill="#FF6444"/>
<path fill-rule="evenodd" clip-rule="evenodd" d="M48 20C48 18.895 47.105 18 46 18H18C16.895 18 16 18.895 16 20V42C16 43.105 16.895 44 18 44H19H34H46C47.105 44 48 43.105 48 42V20ZM36 30H41C41.552 30 42 30.448 42 31C42 31.552 41.552 32 41 32H36C35.448 32 35 31.552 35 31C35 30.448 35.448 30 36 30ZM36 25H44C44.552 25 45 25.448 45 26V27C45 27.552 44.552 28 44 28H36C35.448 28 35 27.552 35 27V26C35 25.448 35.448 25 36 25Z" fill="#FCAC9C"/>
<g clip-path="url(#clip0_2623_128396)">
<path d="M26.9471 26.8667C26.9561 27.186 26.705 27.4479 26.3892 27.4569C26.0699 27.4659 25.808 27.2147 25.799 26.899L25.7327 24.5884C25.7237 24.2691 25.9766 24.0072 26.2906 23.9982C26.6099 23.9892 26.8718 24.2404 26.8808 24.5561L26.9471 26.8667Z" fill="#FF6444"/>
<path d="M21.8685 31.7515C22.1878 31.7426 22.4497 31.9955 22.4587 32.3095C22.4676 32.6288 22.2147 32.8907 21.9008 32.8997L19.5902 32.9678C19.2709 32.975 19.009 32.7221 19 32.4099C18.991 32.0906 19.244 31.8287 19.5579 31.8197L21.8685 31.7515Z" fill="#FF6444"/>
<path d="M23.4041 28.2785C23.6337 28.4956 23.6445 28.8597 23.4292 29.0894C23.2139 29.319 22.848 29.3297 22.6183 29.1145L20.941 27.5269C20.7114 27.3116 20.7006 26.9456 20.9159 26.716C21.133 26.4864 21.4971 26.4756 21.725 26.6927L23.4041 28.2785Z" fill="#FF6444"/>
<path d="M31.0731 32.6306C30.7538 32.6395 30.4919 32.3866 30.4829 32.0727C30.4739 31.7533 30.7251 31.4914 31.0408 31.4825L33.3514 31.4161C33.6707 31.4071 33.9326 31.6583 33.9416 31.974C33.9506 32.2933 33.6994 32.5552 33.3837 32.5642L31.0731 32.6306Z" fill="#FF6444"/>
<path d="M30.1349 28.7664C29.9196 28.9961 29.5537 29.0068 29.324 28.7916C29.0962 28.5745 29.0837 28.2103 29.2989 27.9807L30.8794 26.298C31.0946 26.0684 31.4606 26.0576 31.6902 26.2729C31.9198 26.4882 31.9306 26.8541 31.7153 27.0837L30.1349 28.7664Z" fill="#FF6444"/>
<path d="M28.4899 34.1034C28.524 34.0944 28.5616 34.089 28.6011 34.089H29.1823C29.2128 34.089 29.2487 34.0962 29.2792 34.1016C30.0506 34.2236 30.3986 34.6738 30.5367 35.2587C30.5906 35.2353 30.6516 35.2174 30.7143 35.2192H31.2956C31.3261 35.2192 31.362 35.2264 31.3924 35.2318C32.2248 35.3663 32.5567 35.8758 32.6751 36.5216C32.6948 36.5144 32.7146 36.518 32.7415 36.5162H33.3227C33.3532 36.5162 33.3891 36.5234 33.4196 36.5288C35.0126 36.7799 34.9875 38.3639 34.9713 39.6394V39.9713L35.0018 41.4459V41.4908C34.9372 42.7465 34.4421 43.5573 33.8681 44.4938C33.7712 44.6516 33.6761 44.8113 33.5452 45.0337C33.5398 45.0391 33.5398 45.0445 33.5344 45.0481C33.2366 45.5665 32.8922 45.963 32.4993 46.2357C32.101 46.5119 31.6562 46.6519 31.1718 46.6555L26.1452 46.6447C25.6465 46.6519 25.2572 46.4366 24.972 46.0043C24.7406 45.6616 24.5917 45.1755 24.511 44.5727L21.3967 40.0951L21.3824 40.0789C21.1958 39.8314 20.9446 39.4403 20.7545 39.0133C20.6128 38.6904 20.5087 38.3424 20.4836 37.9998C20.4585 37.5908 20.5159 37.2696 20.6325 37.0113C20.776 36.6938 21.0074 36.4875 21.2855 36.3781C21.5438 36.274 21.8344 36.2597 22.1286 36.3189C22.482 36.3888 22.8444 36.5682 23.1512 36.8248C23.4023 37.0364 23.8257 37.3809 24.2383 37.7199L24.5809 38.0034L24.5935 32.1911C24.5971 31.0752 25.0922 30.3613 25.7344 30.0383C25.9927 29.9092 26.269 29.8428 26.5524 29.8446C26.8359 29.8464 27.1121 29.9128 27.3705 30.0437C28.0109 30.3684 28.5132 31.0914 28.5096 32.1875L28.5042 34.1123L28.4917 34.107L28.4899 34.1034Z" fill="#FF6444"/>
<path d="M24.5629 39.0672C24.5432 39.0564 24.5181 39.042 24.4966 39.0259C24.2293 38.8142 23.9387 38.5738 23.6857 38.3693C23.318 38.0662 22.8964 37.7145 22.5986 37.4706C22.3977 37.3037 22.1645 37.1871 21.9492 37.1405C21.8093 37.1136 21.6837 37.1136 21.5814 37.1548C21.5007 37.1889 21.429 37.2553 21.3841 37.3558C21.3231 37.4921 21.2926 37.6823 21.307 37.946C21.3213 38.1792 21.4021 38.4303 21.5061 38.6779C21.6622 39.0367 21.8756 39.3703 22.0389 39.582C22.0497 39.5964 22.0586 39.6071 22.064 39.6233L25.2446 44.187C25.2859 44.248 25.311 44.3144 25.3146 44.3808C25.3792 44.9064 25.4868 45.3046 25.6501 45.5522C25.7703 45.7334 25.9227 45.8249 26.1183 45.8213L31.1413 45.8338C31.4552 45.8285 31.7368 45.7406 31.9988 45.5594C32.2876 45.3638 32.5459 45.0553 32.7827 44.6427C32.7881 44.6373 32.7935 44.6283 32.7988 44.6229C32.8885 44.4669 33.0123 44.2677 33.1271 44.074C33.6384 43.238 34.0833 42.5079 34.1353 41.4692L34.1084 40.0377C34.1012 40.0179 34.103 39.9964 34.103 39.9767C34.103 39.9569 34.103 39.8188 34.1084 39.6394C34.1228 38.6922 34.1389 37.5208 33.2724 37.3737H32.7109C32.7056 37.6392 32.6894 37.9119 32.6733 38.1738C32.6571 38.4124 32.641 38.633 32.6428 38.8501C32.6428 39.0815 32.4544 39.2663 32.223 39.2681C31.9916 39.2663 31.8068 39.0797 31.805 38.8483C31.805 38.6294 31.8212 38.3783 31.8373 38.1182C31.8947 37.2248 31.9647 36.2023 31.2525 36.0731H30.6964C30.6659 36.0731 30.6354 36.0659 30.6067 36.0605C30.6103 36.3835 30.5905 36.7153 30.569 37.04C30.5529 37.2786 30.5367 37.4993 30.5385 37.7163C30.5385 37.9478 30.3501 38.1325 30.1187 38.1343C29.8873 38.1361 29.7025 37.946 29.7007 37.7145C29.7007 37.4957 29.7169 37.2445 29.733 36.9844C29.7904 36.091 29.8604 35.0685 29.1482 34.9393H28.5921C28.5508 34.9393 28.5167 34.934 28.4809 34.9232L28.4773 36.5521C28.4773 36.7835 28.2889 36.9683 28.0575 36.9701C27.8261 36.9719 27.6413 36.7817 27.6395 36.5503L27.6467 32.1785C27.6485 31.4484 27.3525 30.9819 26.9686 30.79C26.8287 30.72 26.6762 30.6842 26.5309 30.6842C26.3856 30.6842 26.2331 30.7182 26.0932 30.7882C25.7146 30.9784 25.4204 31.443 25.4186 32.1928L25.3989 39.8547C25.3989 40.0861 25.2105 40.2709 24.9791 40.2727C24.7477 40.2745 24.5629 40.0843 24.5611 39.8529V39.0743H24.5558L24.5629 39.0672Z" fill="#FFF3F0"/>
</g>
<path fill-rule="evenodd" clip-rule="evenodd" d="M18 18H46C47.105 18 48 18.895 48 20V22H16V20C16 18.895 16.895 18 18 18Z" fill="#FF6444"/>
<defs>
<clipPath id="clip0_2623_128396">
<rect width="16" height="22.6537" fill="white" transform="translate(19 24)"/>
</clipPath>
</defs>
</svg>
