<svg width="64" height="64" viewBox="0 0 64 64" fill="none" xmlns="http://www.w3.org/2000/svg">
<path d="M32 64C49.6731 64 64 49.6731 64 32C64 14.3269 49.6731 0 32 0C14.3269 0 0 14.3269 0 32C0 49.6731 14.3269 64 32 64Z" fill="#FF6444" fill-opacity="0.08"/>
<path d="M23.495 43.3399L25.655 40.4609C25.82 40.2409 26.133 40.1959 26.355 40.3609C26.373 40.3749 26.391 40.3909 26.408 40.4079L26.693 40.6929C26.869 40.8689 26.889 41.1479 26.74 41.3469L24.6 44.1999C24.434 44.4199 24.48 44.7339 24.7 44.8999C24.787 44.9649 24.892 44.9999 25 44.9999H36.707C36.983 44.9999 37.207 44.7759 37.207 44.4999C37.207 44.4249 37.19 44.3519 37.157 44.2839L32.366 34.2639C32.246 34.0149 31.948 33.9099 31.699 34.0289C31.622 34.0649 31.557 34.1209 31.508 34.1889L29.843 36.5189C29.683 36.7439 29.37 36.7959 29.146 36.6359C29.123 36.6199 29.102 36.6019 29.083 36.5829L28.8 36.2999C28.627 36.1269 28.604 35.8539 28.746 35.6549L30.436 33.2909C30.596 33.0659 30.544 32.7539 30.319 32.5929C30.234 32.5329 30.133 32.4999 30.029 32.4999H18.292C18.016 32.4999 17.792 32.7239 17.792 32.9999C17.792 33.0749 17.809 33.1479 17.842 33.2159L22.643 43.2559C22.763 43.5049 23.061 43.6099 23.31 43.4909C23.382 43.4559 23.446 43.4039 23.494 43.3399H23.495ZM37.639 43.7119L32.825 33.2079C32.71 32.9579 32.82 32.6609 33.071 32.5449C33.136 32.5149 33.207 32.4999 33.279 32.4999H37C37.276 32.4999 37.5 32.2759 37.5 31.9999V31.4999C37.5 31.2239 37.276 30.9999 37 30.9999H33.467C33.191 30.9999 32.967 30.7759 32.967 30.4999C32.967 30.3959 32.999 30.2949 33.059 30.2109L40.499 19.7079C40.659 19.4819 40.97 19.4289 41.196 19.5879C41.268 19.6389 41.325 19.7079 41.361 19.7879L46.175 30.2919C46.29 30.5419 46.18 30.8389 45.929 30.9549C45.864 30.9849 45.793 30.9999 45.721 30.9999H41.5C41.224 30.9999 41 31.2239 41 31.4999V31.9999C41 32.2759 41.224 32.4999 41.5 32.4999H45.533C45.809 32.4999 46.033 32.7239 46.033 32.9999C46.033 33.1039 46.001 33.2049 45.941 33.2889L38.501 43.7919C38.341 44.0179 38.03 44.0709 37.804 43.9119C37.732 43.8609 37.675 43.7919 37.639 43.7119Z" fill="#FF6444" fill-opacity="0.48"/>
<path d="M18.0591 30.711L25.4921 20.217C25.6521 19.992 25.9641 19.939 26.1891 20.098C26.2621 20.15 26.3201 20.221 26.3571 20.303L27.8161 23.585C27.9201 23.82 28.1861 23.938 28.4311 23.856L28.9781 23.674C29.2401 23.587 29.3811 23.304 29.2941 23.042C29.2891 23.026 29.2831 23.012 29.2761 22.997L27.8121 19.703C27.7001 19.451 27.8141 19.155 28.0661 19.043C28.1301 19.015 28.1991 19 28.2691 19H39.0431C39.3191 19 39.5431 19.224 39.5431 19.5C39.5431 19.602 39.5121 19.702 39.4531 19.786L32.5441 29.718C32.3861 29.945 32.0741 30 31.8481 29.843C31.7651 29.785 31.7011 29.703 31.6651 29.608L30.6691 26.951C30.5751 26.699 30.2981 26.567 30.0431 26.652L29.4741 26.842C29.2121 26.929 29.0711 27.212 29.1581 27.474L30.2811 30.842C30.3681 31.104 30.2261 31.387 29.9641 31.474C29.9141 31.491 29.8601 31.5 29.8061 31.5H18.4661C18.1911 31.5 17.9661 31.276 17.9661 31C17.9661 30.896 17.9991 30.795 18.0591 30.711Z" fill="#FF6444"/>
</svg>
