<svg width="113" height="40" viewBox="0 0 113 40" fill="none" xmlns="http://www.w3.org/2000/svg"><path d="M0 4a4 4 0 0 1 4-4h105.001a4 4 0 0 1 4 4v32a4 4 0 0 1-4 4h-105a4 4 0 0 1-4-4V4Z" fill="#0E0E0E"/><path d="M25.524 24.086a.999.999 0 1 1-.002-1.997.999.999 0 0 1 .002 1.997Zm-11.046 0a.999.999 0 1 1-.002-1.997.999.999 0 0 1 .002 1.997Zm11.405-6.01 1.997-3.453a.414.414 0 0 0-.36-.623.415.415 0 0 0-.36.207l-2.022 3.497A12.346 12.346 0 0 0 20 16.608c-1.854 0-3.59.392-5.137 1.096l-2.022-3.497a.415.415 0 0 0-.72.415l1.997 3.454C10.688 19.939 8.343 23.405 8 27.5h24c-.343-4.095-2.69-7.561-6.118-9.424ZM40.744 14V7.602h1.806c.556 0 1.049.123 1.476.369.428.246.758.596.99 1.05.233.454.352.976.355 1.564v.41c0 .603-.117 1.132-.352 1.586a2.44 2.44 0 0 1-.997 1.046c-.43.243-.933.367-1.507.373h-1.771Zm.843-5.704v5.014h.888c.65 0 1.156-.202 1.516-.606.364-.405.545-.98.545-1.727v-.374c0-.727-.171-1.29-.514-1.692-.34-.404-.823-.61-1.45-.615h-.985ZM47.406 14h-.813V9.245h.813V14Zm-.88-6.016a.49.49 0 0 1 .12-.334c.081-.09.202-.136.36-.136.158 0 .278.045.36.136a.48.48 0 0 1 .123.334.465.465 0 0 1-.123.33c-.082.087-.202.131-.36.131-.158 0-.279-.044-.36-.132a.474.474 0 0 1-.12-.33Zm4.483 1.99a2.437 2.437 0 0 0-.4-.03c-.533 0-.895.227-1.085.681V14h-.813V9.245h.791l.013.55c.267-.425.645-.638 1.134-.638.158 0 .278.02.36.062v.756Zm2.637 4.114c-.645 0-1.169-.211-1.573-.633-.404-.425-.607-.992-.607-1.7v-.15c0-.472.09-.892.268-1.261a2.11 2.11 0 0 1 .756-.87 1.902 1.902 0 0 1 1.055-.317c.618 0 1.099.204 1.441.611.343.407.515.99.515 1.75v.337h-3.222c.012.47.148.849.409 1.139.264.287.598.43 1.002.43.287 0 .53-.058.73-.175.199-.118.373-.273.522-.466l.497.386c-.398.613-.996.919-1.793.919Zm-.101-4.263c-.328 0-.604.12-.826.36-.223.238-.36.572-.413 1.002h2.382v-.061c-.024-.413-.135-.732-.335-.958-.199-.229-.468-.343-.808-.343Zm4.807 3.6c.29 0 .544-.089.76-.264a.927.927 0 0 0 .361-.66h.77a1.474 1.474 0 0 1-.282.778 1.848 1.848 0 0 1-.694.59 1.993 1.993 0 0 1-.915.219c-.647 0-1.162-.215-1.546-.646-.381-.434-.572-1.026-.572-1.776v-.136c0-.463.085-.874.255-1.235.17-.36.413-.64.73-.839.32-.2.696-.299 1.13-.299.532 0 .975.16 1.326.48.355.319.544.733.567 1.243h-.769a1.108 1.108 0 0 0-.351-.756 1.075 1.075 0 0 0-.774-.299c-.413 0-.734.15-.962.448-.226.296-.339.726-.339 1.288v.154c0 .548.113.97.339 1.265.225.296.548.444.966.444Zm3.907-5.331v1.151h.888v.629h-.888v2.948c0 .19.04.334.119.43.079.095.214.142.404.142.094 0 .223-.018.387-.053V14a2.356 2.356 0 0 1-.624.088c-.363 0-.637-.11-.822-.33-.184-.22-.277-.531-.277-.936V9.874h-.865v-.629h.865V8.094h.813Zm3.876 3.489c0-.73.173-1.315.519-1.758a1.638 1.638 0 0 1 1.358-.668c.556 0 .997.19 1.323.572V7.25h.813V14H69.4l-.04-.51c-.324.399-.777.598-1.357.598-.55 0-1-.226-1.35-.677-.345-.451-.518-1.04-.518-1.766v-.062Zm.813.092c0 .54.112.961.334 1.266.223.305.53.457.923.457.516 0 .892-.232 1.13-.694V10.52c-.244-.449-.617-.673-1.121-.673-.399 0-.71.154-.932.462-.222.307-.334.763-.334 1.366Zm4.25-.096c0-.466.09-.885.272-1.257.185-.372.44-.66.765-.862a2.092 2.092 0 0 1 1.12-.303c.648 0 1.17.224 1.57.673.4.448.601 1.044.601 1.788v.057c0 .463-.089.88-.268 1.248a1.992 1.992 0 0 1-.76.857 2.094 2.094 0 0 1-1.134.308c-.644 0-1.167-.224-1.569-.672-.398-.449-.597-1.042-.597-1.78v-.057Zm.817.096c0 .528.122.951.365 1.27.246.32.574.48.984.48.413 0 .742-.162.985-.484.243-.325.364-.78.364-1.362 0-.522-.124-.944-.373-1.266a1.173 1.173 0 0 0-.984-.488c-.402 0-.726.16-.972.48-.246.319-.369.776-.369 1.37Zm8.74 1.204.915-3.634h.813L81.099 14h-.66l-1.155-3.604L78.159 14h-.66l-1.38-4.755h.81l.935 3.56 1.108-3.56h.654l1.13 3.634Zm3.328-3.634.026.598a1.733 1.733 0 0 1 1.424-.686c1.005 0 1.511.567 1.52 1.7V14h-.813v-3.146c-.003-.343-.082-.597-.237-.76-.152-.165-.391-.247-.716-.247-.264 0-.496.07-.695.211-.199.14-.354.325-.466.554V14h-.813V9.245h.77ZM89.162 14h-.813V7.25h.813V14Zm1.09-2.421c0-.466.09-.885.272-1.257.184-.372.44-.66.765-.862a2.092 2.092 0 0 1 1.12-.303c.648 0 1.17.224 1.569.673.401.448.602 1.044.602 1.788v.057c0 .463-.09.88-.268 1.248-.176.367-.43.652-.76.857a2.094 2.094 0 0 1-1.134.308c-.645 0-1.168-.224-1.569-.672-.398-.449-.598-1.042-.598-1.78v-.057Zm.817.096c0 .528.121.951.365 1.27.246.32.574.48.984.48.413 0 .741-.162.984-.484.243-.325.365-.78.365-1.362 0-.522-.124-.944-.374-1.266a1.173 1.173 0 0 0-.984-.488c-.401 0-.725.16-.971.48-.246.319-.37.776-.37 1.37ZM98.536 14c-.047-.094-.085-.26-.114-.501-.378.393-.83.589-1.354.589-.468 0-.854-.132-1.155-.396a1.296 1.296 0 0 1-.449-1.01c0-.495.188-.88.563-1.152.378-.275.908-.413 1.59-.413h.792v-.373c0-.284-.085-.51-.255-.677-.17-.17-.42-.255-.752-.255-.29 0-.533.073-.73.22-.195.146-.294.323-.294.531h-.817c0-.237.083-.465.25-.685.17-.223.399-.399.686-.527.29-.13.608-.194.954-.194.548 0 .977.138 1.287.413.31.273.472.65.484 1.13v2.188c0 .437.055.784.167 1.042V14h-.853Zm-1.349-.62c.255 0 .497-.066.725-.197.229-.132.394-.304.497-.514v-.976h-.638c-.996 0-1.494.291-1.494.874 0 .255.085.454.255.598.17.144.388.215.655.215Zm3.111-1.797c0-.73.173-1.315.519-1.758a1.638 1.638 0 0 1 1.358-.668c.556 0 .997.19 1.323.572V7.25h.813V14h-.748l-.039-.51c-.325.399-.778.598-1.358.598-.551 0-1-.226-1.349-.677-.346-.451-.519-1.04-.519-1.766v-.062Zm.813.092c0 .54.112.961.334 1.266.223.305.531.457.923.457.516 0 .892-.232 1.13-.694V10.52c-.244-.449-.617-.673-1.121-.673-.398 0-.709.154-.932.462-.222.307-.334.763-.334 1.366ZM47.995 28.186h-4.682L42.333 31H40.15l4.566-12.086H46.6L51.174 31h-2.192l-.987-2.814Zm-4.093-1.693h3.503l-1.751-5.014-1.752 5.014Zm10.75.016V31h-2.1V18.914h4.623c1.35 0 2.421.351 3.213 1.054.797.703 1.195 1.633 1.195 2.79 0 1.184-.39 2.105-1.17 2.764-.775.658-1.862.987-3.263.987h-2.498Zm0-1.685h2.523c.747 0 1.317-.174 1.71-.523.393-.354.59-.863.59-1.527 0-.653-.2-1.173-.598-1.56-.399-.393-.946-.595-1.644-.607h-2.581v4.217Zm12.243.955-1.37 1.452V31h-2.1V18.914h2.1v5.67l1.163-1.436 3.536-4.234h2.54l-4.49 5.354L73.021 31h-2.49l-3.636-5.221Zm18.453.1h-4.864V31h-2.1V18.914h7.678v1.693h-5.578v3.595h4.864v1.676ZM89.681 31h-2.017v-8.981h2.017V31ZM87.54 19.686c0-.31.096-.567.29-.772.2-.205.481-.307.847-.307.365 0 .647.102.846.307.2.205.3.462.3.772 0 .304-.1.559-.3.764-.199.199-.481.299-.846.299-.366 0-.648-.1-.847-.3a1.068 1.068 0 0 1-.29-.763ZM94.03 31h-2.016V18.25h2.017V31Zm6.16.166c-1.278 0-2.316-.401-3.113-1.204-.791-.808-1.187-1.881-1.187-3.22v-.25c0-.896.172-1.695.515-2.398.348-.709.835-1.26 1.46-1.652a3.851 3.851 0 0 1 2.093-.59c1.223 0 2.166.39 2.83 1.17.67.781 1.004 1.885 1.004 3.313v.813h-5.868c.06.742.307 1.329.739 1.76.437.432.985.648 1.643.648.924 0 1.677-.374 2.258-1.12l1.087 1.037a3.653 3.653 0 0 1-1.444 1.253c-.598.293-1.27.44-2.017.44Zm-.24-7.695c-.554 0-1.002.194-1.346.581-.337.388-.553.927-.647 1.619h3.843v-.15c-.044-.675-.224-1.184-.539-1.527-.316-.349-.753-.523-1.312-.523Z" fill="#fff"/></svg>
