<svg width="132" height="40" viewBox="0 0 132 40" fill="none" xmlns="http://www.w3.org/2000/svg">
<rect width="132" height="40" rx="4" fill="#0E0E0E"/>
<g clip-path="url(#clip0_1385_96947)">
<path d="M26.3812 8H13.6155C10.5133 8 7.99854 10.5148 7.99854 13.6169V26.3827C7.99854 29.4848 10.5133 31.9996 13.6155 31.9996H26.3812C29.4834 31.9996 31.9982 29.4848 31.9982 26.3827V13.6169C31.9982 10.5148 29.4834 8 26.3812 8Z" fill="white"/>
<path d="M22.3355 20L21.6231 22.2471L20.9296 20.0017H20.2527L21.3456 23.268H21.8726L22.5865 21.1223L23.2997 23.268H23.831L24.9216 20.0017H24.2616L23.5669 22.2471L22.8546 20H22.3355ZM18.5517 20.0008L17.1695 23.2663H17.8193L18.0861 22.6342L18.105 22.5864H19.5411L19.8225 23.2663H20.49L19.1204 20.0199L19.1082 20.0008H18.5517ZM28.5616 20.0012V23.2643H29.1898V20.0012H28.5616ZM10.5518 20.0016V23.2692H11.1885V21.9422H12.6258V23.2692H13.2626V20.0016H12.6258V21.32H11.1885V20.0016H10.5518ZM16.2092 20.0025V21.8728C16.2092 22.4041 15.9561 22.6877 15.4961 22.6877C15.0335 22.6877 14.7786 22.3962 14.7786 21.8504V20.0046H14.1422V21.8728C14.1422 22.7922 14.633 23.3191 15.4878 23.3191C16.3508 23.3191 16.8456 22.782 16.8456 21.8458V20.0025L16.2092 20.0025ZM25.4348 20.0037V23.2667H27.804V22.6719H26.0625V21.8628H27.2204V21.2677H26.0625V20.599H27.7434V20.0038L25.4348 20.0037ZM18.8213 20.8277L19.2755 21.9218L19.3062 21.997H18.3435L18.3738 21.9218L18.8213 20.8277Z" fill="#333333"/>
<path fill-rule="evenodd" clip-rule="evenodd" d="M19.8793 15.9588C17.533 15.9588 15.6128 14.1197 15.6128 11.8291H16.2128C16.2128 13.7687 17.8443 15.3588 19.8793 15.3588C21.9143 15.3588 23.5458 13.7687 23.5458 11.8291H24.1458C24.1458 14.1197 22.2256 15.9588 19.8793 15.9588Z" fill="#333333"/>
</g>
<path d="M43.3388 11.9203V10.8997H41.2289V9.39668H43.192V8.38405H41.2289V7.10432H43.3388V6.09169H39.9995V11.9203H43.3388ZM45.1353 11.9203L46.4837 9.71561L47.8321 11.9203H49.236L47.2769 8.98206L49.0972 6.09169H47.7726L46.5472 8.1887L45.2979 6.09169H43.9416L45.7421 8.91429L43.8186 11.9203H45.1353ZM51.1951 11.9203V9.84718H51.7226C52.4417 9.84718 52.9963 9.68106 53.3863 9.34884C53.7763 9.01661 53.9712 8.53688 53.9712 7.90963C53.9712 7.30631 53.7882 6.85249 53.422 6.54817C53.0558 6.24385 52.5211 6.09169 51.8178 6.09169H49.9657V11.9203H51.1951ZM51.5997 8.83455H51.1951V7.10432H51.7543C52.0901 7.10432 52.3367 7.17342 52.494 7.31163C52.6513 7.44983 52.7299 7.66379 52.7299 7.95349C52.7299 8.24053 52.6361 8.45914 52.4484 8.6093C52.2606 8.75947 51.9777 8.83455 51.5997 8.83455ZM58.647 11.9203V10.8997H56.2952V6.09169H55.0658V11.9203H58.647ZM62.1568 12C63.0451 12 63.7273 11.7409 64.2032 11.2226C64.6791 10.7043 64.917 9.96279 64.917 8.99801C64.917 8.03056 64.6811 7.28904 64.2091 6.77342C63.7372 6.25781 63.0557 6 62.1647 6C61.2737 6 60.5896 6.25581 60.1124 6.76744C59.6352 7.27907 59.3966 8.01993 59.3966 8.99003C59.3966 9.96013 59.6345 10.7043 60.1104 11.2226C60.5863 11.7409 61.2684 12 62.1568 12ZM62.1568 10.9635C61.6677 10.9635 61.3002 10.7987 61.0543 10.4691C60.8084 10.1395 60.6855 9.64917 60.6855 8.99801C60.6855 8.34684 60.8097 7.85581 61.0582 7.52492C61.3068 7.19402 61.6756 7.02857 62.1647 7.02857C63.1403 7.02857 63.6281 7.68505 63.6281 8.99801C63.6281 10.3083 63.1377 10.9635 62.1568 10.9635ZM67.3481 11.9203V9.68372H68.0025L69.3866 11.9203H70.7508C70.4864 11.5375 69.918 10.691 69.0455 9.38073C69.3892 9.22924 69.6549 9.01993 69.8426 8.75282C70.0303 8.48571 70.1242 8.18073 70.1242 7.83787C70.1242 7.2505 69.9352 6.81262 69.5571 6.52425C69.179 6.23588 68.596 6.09169 67.8081 6.09169H66.1187V11.9203H67.3481ZM67.7447 8.67907H67.3481V7.10432H67.7209C68.1175 7.10432 68.4103 7.16279 68.5993 7.27973C68.7884 7.39668 68.8829 7.59336 68.8829 7.86977C68.8829 8.14884 68.7904 8.35349 68.6053 8.48372C68.4202 8.61395 68.1334 8.67907 67.7447 8.67907ZM74.8198 11.9203V10.8997H72.7099V9.39668H74.673V8.38405H72.7099V7.10432H74.8198V6.09169H71.4805V11.9203H74.8198ZM79.3686 11.9203V6.09169H78.1392V11.9203H79.3686ZM83.0648 11.9203V7.12027H84.6393V6.09169H80.261V7.12027H81.8354V11.9203H83.0648ZM90.1439 12C91.0322 12 91.7144 11.7409 92.1903 11.2226C92.6662 10.7043 92.9041 9.96279 92.9041 8.99801C92.9041 8.03056 92.6682 7.28904 92.1962 6.77342C91.7243 6.25781 91.0428 6 90.1518 6C89.2608 6 88.5767 6.25581 88.0995 6.76744C87.6223 7.27907 87.3836 8.01993 87.3836 8.99003C87.3836 9.96013 87.6216 10.7043 88.0975 11.2226C88.5734 11.7409 89.2555 12 90.1439 12ZM90.1439 10.9635C89.6548 10.9635 89.2873 10.7987 89.0414 10.4691C88.7955 10.1395 88.6726 9.64917 88.6726 8.99801C88.6726 8.34684 88.7968 7.85581 89.0453 7.52492C89.2939 7.19402 89.6627 7.02857 90.1518 7.02857C91.1274 7.02857 91.6152 7.68505 91.6152 8.99801C91.6152 10.3083 91.1248 10.9635 90.1439 10.9635ZM95.2043 11.9203V9.17741C95.2043 8.84518 95.1792 8.2897 95.129 7.51096H95.1647L97.687 11.9203H99.2495V6.09169H98.143L98.1432 8.89681C98.145 9.21563 98.1648 9.73574 98.2025 10.4571H98.1748L95.6564 6.09169H94.1058V11.9203H95.2043Z" fill="white"/>
<path d="M42.309 30.401L43.3416 27.4723H47.7084L48.7567 30.401H51.2081L46.6837 18.8379H44.4294L39.9995 30.401H42.309ZM47.0699 25.6848H43.9722L45.0599 22.6204C45.2334 22.1097 45.3831 21.6203 45.5092 21.1521C45.6616 21.716 45.8166 22.2081 45.9743 22.6284L47.0699 25.6848ZM52.1214 34L54.3915 33.8324V30.3132C54.9591 30.4888 55.4872 30.5766 55.9759 30.5766C56.7799 30.5766 57.4945 30.393 58.1198 30.0259C58.7452 29.6589 59.2352 29.1135 59.5899 28.39C59.9446 27.6665 60.122 26.7914 60.122 25.7646C60.122 24.8123 59.9735 24.0249 59.6766 23.4025C59.3797 22.78 58.9908 22.3239 58.51 22.0339C58.0292 21.744 57.5024 21.599 56.9296 21.599C56.4094 21.599 55.9365 21.7147 55.5108 21.9461C55.0852 22.1776 54.7042 22.4901 54.3679 22.8838C54.3416 22.4529 54.2917 22.0805 54.2181 21.7666H52.0584C52.1004 22.5327 52.1214 23.2429 52.1214 23.8973V34ZM55.6842 28.8928C55.453 28.8928 55.2205 28.8675 54.9866 28.817C54.7528 28.7664 54.5544 28.7012 54.3915 28.6214V24.3202C54.6753 24.0329 54.9604 23.8081 55.2468 23.6459C55.5331 23.4836 55.8445 23.4025 56.1808 23.4025C56.6748 23.4025 57.0702 23.5993 57.3671 23.993C57.664 24.3867 57.8124 25.0251 57.8124 25.9082C57.8124 26.8871 57.6272 27.6293 57.2567 28.1347C56.8863 28.6401 56.3621 28.8928 55.6842 28.8928ZM61.6737 34L63.9438 33.8324V30.3132C64.5113 30.4888 65.0394 30.5766 65.5282 30.5766C66.3321 30.5766 67.0468 30.393 67.6721 30.0259C68.2975 29.6589 68.7875 29.1135 69.1422 28.39C69.4969 27.6665 69.6742 26.7914 69.6742 25.7646C69.6742 24.8123 69.5258 24.0249 69.2289 23.4025C68.932 22.78 68.5431 22.3239 68.0623 22.0339C67.5815 21.744 67.0547 21.599 66.4819 21.599C65.9617 21.599 65.4887 21.7147 65.0631 21.9461C64.6375 22.1776 64.2565 22.4901 63.9202 22.8838C63.8939 22.4529 63.844 22.0805 63.7704 21.7666H61.6107C61.6527 22.5327 61.6737 23.2429 61.6737 23.8973V34ZM65.2365 28.8928C65.0053 28.8928 64.7728 28.8675 64.5389 28.817C64.3051 28.7664 64.1067 28.7012 63.9438 28.6214V24.3202C64.2276 24.0329 64.5126 23.8081 64.799 23.6459C65.0854 23.4836 65.3968 23.4025 65.7331 23.4025C66.227 23.4025 66.6225 23.5993 66.9194 23.993C67.2163 24.3867 67.3647 25.0251 67.3647 25.9082C67.3647 26.8871 67.1795 27.6293 66.809 28.1347C66.4386 28.6401 65.9144 28.8928 65.2365 28.8928ZM76.4125 30.5606C77.1377 30.5606 77.8642 30.4781 78.592 30.3132C79.3198 30.1483 80.0148 29.9116 80.6769 29.603V24.5835H75.979V26.3072H78.4856V28.4379C77.8655 28.656 77.2087 28.7651 76.515 28.7651C75.7268 28.7651 75.0778 28.5895 74.5681 28.2384C74.0584 27.8873 73.684 27.4071 73.4449 26.798C73.2058 26.1889 73.0862 25.4906 73.0862 24.7032C73.0862 23.8042 73.2412 23.0394 73.5513 22.409C73.8613 21.7786 74.2988 21.3011 74.8637 20.9766C75.4286 20.652 76.092 20.4898 76.854 20.4898C77.7946 20.4898 78.772 20.7345 79.7862 21.2239L80.3064 19.4843C79.1819 18.9523 77.9916 18.6863 76.7357 18.6863C75.6112 18.6863 74.5957 18.9111 73.6892 19.3606C72.7828 19.8101 72.0628 20.4871 71.5295 21.3915C70.9961 22.2959 70.7294 23.4052 70.7294 24.7192C70.7294 25.9268 70.9619 26.9696 71.427 27.8474C71.8921 28.7252 72.5515 29.3968 73.4055 29.8623C74.2594 30.3278 75.2617 30.5606 76.4125 30.5606ZM84.7588 30.5606C85.3474 30.5606 85.8729 30.4382 86.3353 30.1935C86.7977 29.9488 87.1761 29.6509 87.4704 29.2998C87.4861 29.6881 87.5334 30.0552 87.6122 30.401H89.7562C89.7142 29.6775 89.6932 29.1375 89.6932 28.781V25.3257C89.6932 23.9638 89.3726 23.0022 88.7315 22.4409C88.0904 21.8796 87.1813 21.599 86.0042 21.599C85.3526 21.599 84.7339 21.6642 84.148 21.7945C83.562 21.9249 83.0878 22.0725 82.7252 22.2374L83.0563 23.8813C83.4241 23.7111 83.8484 23.5648 84.3293 23.4424C84.8101 23.32 85.2581 23.2589 85.6732 23.2589C86.2407 23.2589 86.6769 23.3998 86.9816 23.6818C87.2864 23.9638 87.4388 24.4426 87.4388 25.1182V25.2618C86.9554 25.1927 86.4614 25.1581 85.957 25.1581C83.361 25.1581 82.0631 26.0731 82.0631 27.9032C82.0631 28.4831 82.1853 28.9726 82.4296 29.3716C82.674 29.7706 82.9998 30.0685 83.407 30.2653C83.8143 30.4622 84.2649 30.5606 84.7588 30.5606ZM85.4761 28.8848C85.1293 28.8848 84.8561 28.793 84.6564 28.6095C84.4567 28.4259 84.3568 28.1453 84.3568 27.7676C84.3568 27.3739 84.4935 27.06 84.7667 26.8259C85.04 26.5919 85.5339 26.4748 86.2486 26.4748C86.5586 26.4748 86.9554 26.5014 87.4388 26.5546V27.983C87.1971 28.2437 86.8949 28.4592 86.5324 28.6294C86.1698 28.7997 85.8177 28.8848 85.4761 28.8848ZM93.8224 30.5606C94.1062 30.5606 94.4044 30.534 94.7171 30.4808C95.0297 30.4276 95.2912 30.3558 95.5014 30.2653L95.2412 28.6534C95.031 28.7225 94.8445 28.7571 94.6816 28.7571C94.4346 28.7571 94.2468 28.6866 94.118 28.5456C93.9893 28.4047 93.9249 28.1613 93.9249 27.8155V18L91.6627 18.1596V28.2304C91.6627 29.0337 91.8453 29.6229 92.2105 29.998C92.5757 30.3731 93.113 30.5606 93.8224 30.5606ZM98.6926 30.5606C98.9764 30.5606 99.2746 30.534 99.5873 30.4808C99.8999 30.4276 100.161 30.3558 100.372 30.2653L100.111 28.6534C99.9012 28.7225 99.7147 28.7571 99.5518 28.7571C99.3048 28.7571 99.117 28.6866 98.9882 28.5456C98.8595 28.4047 98.7951 28.1613 98.7951 27.8155V18L96.5329 18.1596V28.2304C96.5329 29.0337 96.7155 29.6229 97.0807 29.998C97.4459 30.3731 97.9832 30.5606 98.6926 30.5606ZM105.194 30.5606C106.419 30.5606 107.53 30.3212 108.529 29.8424L108.04 28.2943C107.646 28.4592 107.237 28.5895 106.814 28.6853C106.391 28.781 105.98 28.8289 105.581 28.8289C104.871 28.8289 104.313 28.6427 103.906 28.2703C103.498 27.8979 103.261 27.2968 103.192 26.4668H108.694V25.9561C108.694 25.1528 108.559 24.4213 108.288 23.7616C108.018 23.1019 107.603 22.5766 107.043 22.1855C106.483 21.7945 105.786 21.599 104.95 21.599C104.151 21.599 103.446 21.7812 102.834 22.1456C102.222 22.5101 101.745 23.0394 101.403 23.7337C101.062 24.4279 100.891 25.2539 100.891 26.2115C100.891 27.5947 101.255 28.6653 101.982 29.4234C102.71 30.1815 103.781 30.5606 105.194 30.5606ZM106.503 25.0703H103.232C103.326 24.4479 103.521 23.9824 103.815 23.6738C104.109 23.3653 104.482 23.211 104.934 23.211C105.397 23.211 105.766 23.3666 106.042 23.6778C106.318 23.989 106.471 24.4532 106.503 25.0703ZM112.5 30.401V24.9905C112.873 24.4851 113.227 24.1247 113.56 23.9092C113.894 23.6938 114.284 23.586 114.731 23.586C114.957 23.586 115.167 23.6126 115.362 23.6658L115.645 21.7027C115.414 21.6336 115.157 21.599 114.873 21.599C114.5 21.599 114.17 21.6801 113.884 21.8424C113.597 22.0047 113.346 22.2148 113.131 22.4728C112.915 22.7308 112.695 23.0514 112.469 23.4344C112.458 23.2269 112.439 22.9556 112.41 22.6204C112.381 22.2853 112.351 22.0007 112.319 21.7666H110.175C110.217 22.7242 110.238 23.4424 110.238 23.9212V30.401H112.5ZM116.898 34C117.586 34 118.178 33.8763 118.675 33.6289C119.172 33.3815 119.601 32.9985 119.964 32.4798C120.326 31.9611 120.655 31.2761 120.949 30.4249L124 21.7666H121.745L120.263 26.4349C120.095 26.9829 119.935 27.5973 119.782 28.2783C119.709 27.7942 119.562 27.1744 119.341 26.419L117.907 21.7666H115.463L118.576 30.5287L118.474 30.784C118.29 31.2628 118.042 31.6286 117.729 31.8813C117.416 32.134 117.047 32.2603 116.622 32.2603C116.443 32.2603 116.247 32.2417 116.034 32.2045C115.822 32.1672 115.66 32.1327 115.55 32.1007L115.148 33.7446C115.332 33.8085 115.58 33.867 115.893 33.9202C116.205 33.9734 116.54 34 116.898 34Z" fill="white"/>
<defs>
<clipPath id="clip0_1385_96947">
<rect width="23.9996" height="23.9996" fill="white" transform="translate(8 8)"/>
</clipPath>
</defs>
</svg>
