<svg width="123" height="40" viewBox="0 0 123 40" fill="none" xmlns="http://www.w3.org/2000/svg">
<rect width="123" height="40" rx="4" fill="#0E0E0E"/>
<path d="M32.0003 19.4631H18.6421V9.91935L32.0003 7.99756V19.4631Z" fill="white"/>
<path d="M17.7002 10.0483V19.4571H8V11.4433L17.7002 10.0483Z" fill="white"/>
<path d="M17.7002 20.396H8V28.5119L17.7002 29.9227V20.396Z" fill="white"/>
<path d="M18.6421 30.06V20.396H32.0003V32.0027L18.6421 30.06Z" fill="white"/>
<path d="M40.7212 7.55762H42.7646C44.9531 7.55762 46.0474 8.61963 46.0474 10.7437C46.0474 12.9146 44.9531 14 42.7646 14H40.7212V7.55762ZM41.5737 13.2354H42.7471C43.6816 13.2354 44.3188 13.0186 44.6587 12.585C44.9985 12.1484 45.1685 11.5347 45.1685 10.7437C45.1685 9.97314 44.9985 9.37695 44.6587 8.95508C44.3218 8.5332 43.6846 8.32227 42.7471 8.32227H41.5737V13.2354ZM49.2749 9.23193C49.9399 9.23193 50.4702 9.44434 50.8657 9.86914C51.2641 10.2939 51.4634 10.8945 51.4634 11.6709C51.4634 12.4443 51.2641 13.0449 50.8657 13.4727C50.4702 13.8975 49.9399 14.1099 49.2749 14.1099C48.6128 14.1099 48.0825 13.8975 47.6841 13.4727C47.2886 13.0449 47.0908 12.4443 47.0908 11.6709C47.0908 10.8945 47.2886 10.2939 47.6841 9.86914C48.0825 9.44434 48.6128 9.23193 49.2749 9.23193ZM49.2749 13.4595C49.6704 13.4595 49.9912 13.3101 50.2373 13.0112C50.4834 12.7095 50.6064 12.2627 50.6064 11.6709C50.6064 11.0762 50.4834 10.6294 50.2373 10.3306C49.9912 10.0288 49.6704 9.87793 49.2749 9.87793C48.8794 9.87793 48.5586 10.0288 48.3125 10.3306C48.0664 10.6294 47.9433 11.0762 47.9433 11.6709C47.9433 12.2627 48.0664 12.7095 48.3125 13.0112C48.5586 13.3101 48.8794 13.4595 49.2749 13.4595ZM58.5053 9.3374L57.1035 14H56.3125L55.3017 10.5723L54.2954 14H53.5044L52.0981 9.3374H53.0166L53.8735 12.8926L54.9238 9.3374H55.6796L56.7343 12.8926L57.5913 9.3374H58.5053ZM60.2695 9.93066C60.6826 9.46484 61.1469 9.23193 61.6625 9.23193C62.7143 9.23193 63.2402 9.80469 63.2402 10.9502V14H62.4096V10.9854C62.4096 10.6045 62.3408 10.3306 62.2031 10.1636C62.0683 9.99658 61.8456 9.91309 61.5351 9.91309C61.1132 9.91309 60.6913 10.1621 60.2695 10.6602V14H59.4389V9.3374H60.2695V9.93066ZM65.5492 14H64.7187V7.55762H65.5492V14ZM68.935 9.23193C69.6 9.23193 70.1303 9.44434 70.5258 9.86914C70.9242 10.2939 71.1234 10.8945 71.1234 11.6709C71.1234 12.4443 70.9242 13.0449 70.5258 13.4727C70.1303 13.8975 69.6 14.1099 68.935 14.1099C68.2729 14.1099 67.7426 13.8975 67.3441 13.4727C66.9486 13.0449 66.7509 12.4443 66.7509 11.6709C66.7509 10.8945 66.9486 10.2939 67.3441 9.86914C67.7426 9.44434 68.2729 9.23193 68.935 9.23193ZM68.935 13.4595C69.3305 13.4595 69.6513 13.3101 69.8974 13.0112C70.1435 12.7095 70.2665 12.2627 70.2665 11.6709C70.2665 11.0762 70.1435 10.6294 69.8974 10.3306C69.6513 10.0288 69.3305 9.87793 68.935 9.87793C68.5395 9.87793 68.2187 10.0288 67.9726 10.3306C67.7265 10.6294 67.6034 11.0762 67.6034 11.6709C67.6034 12.2627 67.7265 12.7095 67.9726 13.0112C68.2187 13.3101 68.5395 13.4595 68.935 13.4595ZM75.2782 12.7739V11.7412H74.7113C73.5101 11.7412 72.9096 12.0679 72.9096 12.7212C72.9096 12.9585 72.9974 13.1416 73.1732 13.2705C73.349 13.3965 73.5863 13.4595 73.8851 13.4595C74.1576 13.4595 74.4213 13.3979 74.6762 13.2749C74.931 13.1519 75.1317 12.9849 75.2782 12.7739ZM75.2782 13.521C74.8563 13.9136 74.3129 14.1099 73.6478 14.1099C73.1849 14.1099 72.8041 13.9854 72.5053 13.7363C72.2064 13.4844 72.057 13.1606 72.057 12.7651C72.057 11.6753 72.996 11.1304 74.8739 11.1304H75.2782C75.2782 10.7964 75.2606 10.5547 75.2255 10.4053C75.1903 10.2529 75.0922 10.127 74.931 10.0273C74.7699 9.92773 74.5136 9.87793 74.162 9.87793C73.4237 9.87793 73.0429 10.1416 73.0194 10.6689H72.1932C72.2548 9.71094 72.9257 9.23193 74.2059 9.23193C74.8036 9.23193 75.2694 9.35059 75.6034 9.58789C75.9374 9.8252 76.1044 10.291 76.1044 10.9854V14H75.2782V13.521ZM80.558 12.6597V10.4448C80.2005 10.0669 79.7919 9.87793 79.3319 9.87793C78.9774 9.87793 78.6932 10.0317 78.4794 10.3394C78.2684 10.644 78.1629 11.0996 78.1629 11.7061C78.1629 12.2803 78.2626 12.7168 78.4618 13.0156C78.6639 13.3115 78.9422 13.4595 79.2967 13.4595C79.7596 13.4595 80.18 13.1929 80.558 12.6597ZM80.558 13.4419C80.1888 13.8872 79.745 14.1099 79.2264 14.1099C78.6171 14.1099 78.1454 13.8931 77.8114 13.4595C77.4774 13.0259 77.3104 12.4414 77.3104 11.7061C77.3104 10.9443 77.4964 10.3423 77.8685 9.8999C78.2435 9.45459 78.7137 9.23193 79.2792 9.23193C79.7831 9.23193 80.2093 9.38721 80.558 9.69775V7.55762H81.3841V14H80.558V13.4419ZM88.4984 12.7739V11.7412H87.9315C86.7303 11.7412 86.1297 12.0679 86.1297 12.7212C86.1297 12.9585 86.2176 13.1416 86.3934 13.2705C86.5692 13.3965 86.8065 13.4595 87.1053 13.4595C87.3778 13.4595 87.6414 13.3979 87.8963 13.2749C88.1512 13.1519 88.3519 12.9849 88.4984 12.7739ZM88.4984 13.521C88.0765 13.9136 87.533 14.1099 86.868 14.1099C86.4051 14.1099 86.0242 13.9854 85.7254 13.7363C85.4266 13.4844 85.2772 13.1606 85.2772 12.7651C85.2772 11.6753 86.2161 11.1304 88.0941 11.1304H88.4984C88.4984 10.7964 88.4808 10.5547 88.4456 10.4053C88.4105 10.2529 88.3123 10.127 88.1512 10.0273C87.9901 9.92773 87.7337 9.87793 87.3821 9.87793C86.6439 9.87793 86.263 10.1416 86.2396 10.6689H85.4134C85.4749 9.71094 86.1458 9.23193 87.4261 9.23193C88.0238 9.23193 88.4896 9.35059 88.8236 9.58789C89.1575 9.8252 89.3245 10.291 89.3245 10.9854V14H88.4984V13.521ZM91.6556 9.89551C92.0247 9.45312 92.4686 9.23193 92.9871 9.23193C93.5965 9.23193 94.0682 9.44873 94.4021 9.88232C94.7361 10.313 94.9031 10.896 94.9031 11.6313C94.9031 12.396 94.7156 13.001 94.3406 13.4463C93.9686 13.8887 93.4983 14.1099 92.93 14.1099C92.4261 14.1099 92.0013 13.9531 91.6556 13.6396V15.793H90.825V9.3374H91.6556V9.89551ZM91.6556 12.8926C92.0101 13.2705 92.4173 13.4595 92.8772 13.4595C93.2347 13.4595 93.5188 13.3071 93.7298 13.0024C93.9407 12.6948 94.0462 12.2378 94.0462 11.6313C94.0462 11.0571 93.9466 10.6221 93.7474 10.3262C93.5481 10.0273 93.2698 9.87793 92.9124 9.87793C92.4524 9.87793 92.0335 10.1445 91.6556 10.6777V12.8926ZM96.9353 9.89551C97.3045 9.45312 97.7483 9.23193 98.2669 9.23193C98.8763 9.23193 99.3479 9.44873 99.6819 9.88232C100.016 10.313 100.183 10.896 100.183 11.6313C100.183 12.396 99.9954 13.001 99.6204 13.4463C99.2483 13.8887 98.7781 14.1099 98.2097 14.1099C97.7058 14.1099 97.281 13.9531 96.9353 13.6396V15.793H96.1048V9.3374H96.9353V9.89551ZM96.9353 12.8926C97.2898 13.2705 97.6971 13.4595 98.157 13.4595C98.5144 13.4595 98.7986 13.3071 99.0096 13.0024C99.2205 12.6948 99.326 12.2378 99.326 11.6313C99.326 11.0571 99.2263 10.6221 99.0271 10.3262C98.8279 10.0273 98.5496 9.87793 98.1922 9.87793C97.7322 9.87793 97.3133 10.1445 96.9353 10.6777V12.8926ZM105.016 9.98779V14H104.19V9.98779H103.505V9.3374H104.19V8.92432C104.19 7.93994 104.625 7.44775 105.495 7.44775C105.762 7.44775 105.968 7.46533 106.115 7.50049V8.22119C105.951 8.19189 105.784 8.17725 105.614 8.17725C105.412 8.17725 105.261 8.23438 105.161 8.34863C105.065 8.45996 105.016 8.65479 105.016 8.93311V9.3374H105.9V9.98779H105.016ZM108.71 9.23193C109.375 9.23193 109.905 9.44434 110.301 9.86914C110.699 10.2939 110.898 10.8945 110.898 11.6709C110.898 12.4443 110.699 13.0449 110.301 13.4727C109.905 13.8975 109.375 14.1099 108.71 14.1099C108.048 14.1099 107.517 13.8975 107.119 13.4727C106.723 13.0449 106.526 12.4443 106.526 11.6709C106.526 10.8945 106.723 10.2939 107.119 9.86914C107.517 9.44434 108.048 9.23193 108.71 9.23193ZM108.71 13.4595C109.105 13.4595 109.426 13.3101 109.672 13.0112C109.918 12.7095 110.041 12.2627 110.041 11.6709C110.041 11.0762 109.918 10.6294 109.672 10.3306C109.426 10.0288 109.105 9.87793 108.71 9.87793C108.314 9.87793 107.993 10.0288 107.747 10.3306C107.501 10.6294 107.378 11.0762 107.378 11.6709C107.378 12.2627 107.501 12.7095 107.747 13.0112C107.993 13.3101 108.314 13.4595 108.71 13.4595ZM114.521 10.0933C114.404 10.0581 114.236 10.0405 114.016 10.0405C113.594 10.0405 113.232 10.2617 112.93 10.7041V14H112.1V9.3374H112.93V9.98779C113.279 9.48389 113.683 9.23193 114.143 9.23193C114.26 9.23193 114.386 9.24365 114.521 9.26709V10.0933Z" fill="white"/>
<path d="M55.8799 18.8311L52.5098 31H50.9658L48.0439 20.4248L45.1138 31H43.5698L40.208 18.8311H41.9014L44.3335 28.7422L47.0728 18.8311H49.0068L51.7461 28.7422L54.1782 18.8311H55.8799ZM58.7769 31H57.208V22.1929H58.7769V31ZM58.7769 20.5244H57.208V18.8311H58.7769V20.5244ZM62.6616 23.3135C63.4419 22.4336 64.319 21.9937 65.293 21.9937C67.2796 21.9937 68.2729 23.0755 68.2729 25.2393V31H66.7041V25.3057C66.7041 24.5863 66.5741 24.0688 66.314 23.7534C66.0594 23.438 65.6388 23.2803 65.0522 23.2803C64.2554 23.2803 63.4585 23.7507 62.6616 24.6914V31H61.0928V22.1929H62.6616V23.3135ZM76.1338 28.4683V24.2847C75.4587 23.5708 74.6867 23.2139 73.8179 23.2139C73.1483 23.2139 72.6115 23.5044 72.2075 24.0854C71.8091 24.661 71.6099 25.5215 71.6099 26.667C71.6099 27.7516 71.798 28.5762 72.1743 29.1406C72.5562 29.6995 73.0819 29.979 73.7515 29.979C74.6258 29.979 75.4199 29.4754 76.1338 28.4683ZM76.1338 29.9458C75.4365 30.7869 74.5981 31.2075 73.6187 31.2075C72.4676 31.2075 71.5767 30.798 70.9458 29.979C70.3149 29.16 69.9995 28.056 69.9995 26.667C69.9995 25.2282 70.3509 24.091 71.0537 23.2554C71.762 22.4142 72.6502 21.9937 73.7183 21.9937C74.6701 21.9937 75.4753 22.2869 76.1338 22.8735V18.8311H77.6943V31H76.1338V29.9458ZM83.5879 21.9937C84.8441 21.9937 85.8457 22.3949 86.5928 23.1973C87.3454 23.9997 87.7217 25.1341 87.7217 26.6006C87.7217 28.0615 87.3454 29.196 86.5928 30.0039C85.8457 30.8063 84.8441 31.2075 83.5879 31.2075C82.3372 31.2075 81.3356 30.8063 80.583 30.0039C79.8359 29.196 79.4624 28.0615 79.4624 26.6006C79.4624 25.1341 79.8359 23.9997 80.583 23.1973C81.3356 22.3949 82.3372 21.9937 83.5879 21.9937ZM83.5879 29.979C84.335 29.979 84.9409 29.6968 85.4058 29.1323C85.8706 28.5623 86.103 27.7184 86.103 26.6006C86.103 25.4772 85.8706 24.6333 85.4058 24.0688C84.9409 23.4989 84.335 23.2139 83.5879 23.2139C82.8408 23.2139 82.2349 23.4989 81.77 24.0688C81.3052 24.6333 81.0728 25.4772 81.0728 26.6006C81.0728 27.7184 81.3052 28.5623 81.77 29.1323C82.2349 29.6968 82.8408 29.979 83.5879 29.979ZM100.513 22.1929L97.8652 31H96.3711L94.4619 24.5254L92.561 31H91.0669L88.4106 22.1929H90.1455L91.7642 28.9082L93.748 22.1929H95.1758L97.168 28.9082L98.7866 22.1929H100.513ZM104.913 31.2075C102.505 31.2075 101.246 30.2612 101.136 28.3687H102.705C102.716 29.4422 103.446 29.979 104.896 29.979C105.543 29.979 106.036 29.8462 106.374 29.5806C106.717 29.3094 106.888 28.9718 106.888 28.5679C106.888 28.1694 106.722 27.89 106.39 27.7295C106.058 27.5635 105.372 27.3504 104.332 27.0903C103.297 26.8302 102.539 26.5397 102.057 26.2188C101.581 25.8978 101.343 25.3333 101.343 24.5254C101.343 23.7949 101.639 23.1917 102.231 22.7158C102.829 22.2344 103.626 21.9937 104.622 21.9937C106.93 21.9937 108.108 22.8154 108.158 24.459H106.598C106.542 23.6289 105.92 23.2139 104.73 23.2139C104.204 23.2139 103.767 23.3135 103.418 23.5127C103.075 23.7119 102.904 24.0024 102.904 24.3843C102.904 24.7274 103.037 24.9764 103.302 25.1313C103.568 25.2808 104.232 25.4855 105.294 25.7456C106.362 26.0002 107.154 26.299 107.668 26.6421C108.189 26.9852 108.449 27.5773 108.449 28.4185C108.449 29.2209 108.128 29.8877 107.486 30.4189C106.849 30.9447 105.992 31.2075 104.913 31.2075Z" fill="white"/>
</svg>
