<svg width="166" height="40" viewBox="0 0 166 40" fill="none" xmlns="http://www.w3.org/2000/svg">
<rect width="166" height="40" rx="4" fill="#0E0E0E"/>
<path d="M20.1558 14.9164C21.0976 14.9164 22.8895 13.6147 24.7377 13.809C26.4945 13.864 28.1225 14.7453 29.1307 16.187C27.5399 17.1663 26.5609 18.8934 26.5369 20.7631C26.5392 22.8785 27.8043 24.7876 29.75 25.6116C29.3758 26.8288 28.8117 27.9792 28.0787 29.02C28.0564 29.0535 28.034 29.087 28.0115 29.1204L27.8765 29.3207C26.9507 30.6844 25.9505 31.9369 24.424 31.9617C22.8322 31.9985 22.2972 31.0237 20.4715 31.0237C18.6286 31.0237 18.0584 31.9351 16.5317 31.9985C14.9716 32.0564 13.7793 30.4247 12.7591 28.964C10.72 25.981 9.13216 20.5573 11.2608 16.8669C12.2604 15.0683 14.1294 13.9269 16.184 13.8604C17.7456 13.8283 19.1957 14.9164 20.1558 14.9164ZM24.757 8C24.8636 9.39335 24.4235 10.7734 23.5303 11.8471C22.6637 12.9264 21.3506 13.5481 19.9677 13.5338C19.8797 12.1806 20.3326 10.8478 21.2265 9.82911C22.1318 8.7966 23.3924 8.14352 24.757 8Z" fill="white"/>
<path d="M41.557 13.28V8.294H42.997C43.393 8.294 43.726 8.351 43.996 8.465C44.266 8.573 44.485 8.735 44.653 8.951C44.827 9.161 44.95 9.419 45.022 9.725C45.1 10.025 45.139 10.367 45.139 10.751C45.139 11.147 45.097 11.486 45.013 11.768C44.935 12.044 44.833 12.275 44.707 12.461C44.581 12.647 44.437 12.794 44.275 12.902C44.119 13.01 43.96 13.094 43.798 13.154C43.636 13.208 43.483 13.244 43.339 13.262C43.195 13.274 43.075 13.28 42.979 13.28H41.557ZM40.702 7.574V14H42.907C43.441 14 43.903 13.925 44.293 13.775C44.683 13.625 45.004 13.409 45.256 13.127C45.508 12.839 45.694 12.488 45.814 12.074C45.934 11.654 45.994 11.174 45.994 10.634C45.994 9.602 45.727 8.834 45.193 8.33C44.659 7.826 43.897 7.574 42.907 7.574H40.702ZM47.7409 11.678C47.7409 11.396 47.7769 11.147 47.8489 10.931C47.9269 10.709 48.0319 10.523 48.1639 10.373C48.2959 10.223 48.4489 10.109 48.6229 10.031C48.8029 9.953 48.9919 9.914 49.1899 9.914C49.3879 9.914 49.5739 9.953 49.7479 10.031C49.9279 10.109 50.0839 10.223 50.2159 10.373C50.3479 10.523 50.4499 10.709 50.5219 10.931C50.5999 11.147 50.6389 11.396 50.6389 11.678C50.6389 11.96 50.5999 12.212 50.5219 12.434C50.4499 12.65 50.3479 12.833 50.2159 12.983C50.0839 13.127 49.9279 13.238 49.7479 13.316C49.5739 13.394 49.3879 13.433 49.1899 13.433C48.9919 13.433 48.8029 13.394 48.6229 13.316C48.4489 13.238 48.2959 13.127 48.1639 12.983C48.0319 12.833 47.9269 12.65 47.8489 12.434C47.7769 12.212 47.7409 11.96 47.7409 11.678ZM46.9309 11.678C46.9309 12.02 46.9789 12.338 47.0749 12.632C47.1709 12.926 47.3149 13.184 47.5069 13.406C47.6989 13.622 47.9359 13.793 48.2179 13.919C48.4999 14.039 48.8239 14.099 49.1899 14.099C49.5619 14.099 49.8859 14.039 50.1619 13.919C50.4439 13.793 50.6809 13.622 50.8729 13.406C51.0649 13.184 51.2089 12.926 51.3049 12.632C51.4009 12.338 51.4489 12.02 51.4489 11.678C51.4489 11.336 51.4009 11.018 51.3049 10.724C51.2089 10.424 51.0649 10.166 50.8729 9.95C50.6809 9.728 50.4439 9.554 50.1619 9.428C49.8859 9.302 49.5619 9.239 49.1899 9.239C48.8239 9.239 48.4999 9.302 48.2179 9.428C47.9359 9.554 47.6989 9.728 47.5069 9.95C47.3149 10.166 47.1709 10.424 47.0749 10.724C46.9789 11.018 46.9309 11.336 46.9309 11.678ZM57.2289 14L58.7139 9.347H57.9219L56.8779 13.154H56.8599L55.8879 9.347H55.0509L54.1149 13.154H54.0969L53.0439 9.347H52.1979L53.6919 14H54.5199L55.4559 10.301H55.4739L56.4189 14H57.2289ZM59.7112 9.347V14H60.4762V11.372C60.4762 11.162 60.5032 10.97 60.5572 10.796C60.6172 10.616 60.7042 10.46 60.8182 10.328C60.9322 10.196 61.0732 10.094 61.2412 10.022C61.4152 9.95 61.6192 9.914 61.8532 9.914C62.1472 9.914 62.3782 9.998 62.5462 10.166C62.7142 10.334 62.7982 10.562 62.7982 10.85V14H63.5632V10.94C63.5632 10.688 63.5362 10.46 63.4822 10.256C63.4342 10.046 63.3472 9.866 63.2212 9.716C63.0952 9.566 62.9302 9.449 62.7262 9.365C62.5222 9.281 62.2672 9.239 61.9612 9.239C61.2712 9.239 60.7672 9.521 60.4492 10.085H60.4312V9.347H59.7112ZM65.0272 7.574V14H65.7922V7.574H65.0272ZM67.8053 11.678C67.8053 11.396 67.8413 11.147 67.9133 10.931C67.9913 10.709 68.0963 10.523 68.2283 10.373C68.3603 10.223 68.5133 10.109 68.6873 10.031C68.8673 9.953 69.0563 9.914 69.2543 9.914C69.4523 9.914 69.6383 9.953 69.8123 10.031C69.9923 10.109 70.1483 10.223 70.2803 10.373C70.4123 10.523 70.5143 10.709 70.5863 10.931C70.6643 11.147 70.7033 11.396 70.7033 11.678C70.7033 11.96 70.6643 12.212 70.5863 12.434C70.5143 12.65 70.4123 12.833 70.2803 12.983C70.1483 13.127 69.9923 13.238 69.8123 13.316C69.6383 13.394 69.4523 13.433 69.2543 13.433C69.0563 13.433 68.8673 13.394 68.6873 13.316C68.5133 13.238 68.3603 13.127 68.2283 12.983C68.0963 12.833 67.9913 12.65 67.9133 12.434C67.8413 12.212 67.8053 11.96 67.8053 11.678ZM66.9953 11.678C66.9953 12.02 67.0433 12.338 67.1393 12.632C67.2353 12.926 67.3793 13.184 67.5713 13.406C67.7633 13.622 68.0003 13.793 68.2823 13.919C68.5643 14.039 68.8883 14.099 69.2543 14.099C69.6263 14.099 69.9503 14.039 70.2263 13.919C70.5083 13.793 70.7453 13.622 70.9373 13.406C71.1293 13.184 71.2733 12.926 71.3693 12.632C71.4653 12.338 71.5133 12.02 71.5133 11.678C71.5133 11.336 71.4653 11.018 71.3693 10.724C71.2733 10.424 71.1293 10.166 70.9373 9.95C70.7453 9.728 70.5083 9.554 70.2263 9.428C69.9503 9.302 69.6263 9.239 69.2543 9.239C68.8883 9.239 68.5643 9.302 68.2823 9.428C68.0003 9.554 67.7633 9.728 67.5713 9.95C67.3793 10.166 67.2353 10.424 67.1393 10.724C67.0433 11.018 66.9953 11.336 66.9953 11.678ZM76.8073 13.982C76.6753 14.06 76.4923 14.099 76.2583 14.099C76.0603 14.099 75.9013 14.045 75.7813 13.937C75.6673 13.823 75.6103 13.64 75.6103 13.388C75.4003 13.64 75.1543 13.823 74.8723 13.937C74.5963 14.045 74.2963 14.099 73.9723 14.099C73.7623 14.099 73.5613 14.075 73.3693 14.027C73.1833 13.979 73.0213 13.904 72.8833 13.802C72.7453 13.7 72.6343 13.568 72.5503 13.406C72.4723 13.238 72.4333 13.037 72.4333 12.803C72.4333 12.539 72.4783 12.323 72.5683 12.155C72.6583 11.987 72.7753 11.852 72.9193 11.75C73.0693 11.642 73.2373 11.561 73.4233 11.507C73.6153 11.453 73.8103 11.408 74.0083 11.372C74.2183 11.33 74.4163 11.3 74.6023 11.282C74.7943 11.258 74.9623 11.228 75.1063 11.192C75.2503 11.15 75.3643 11.093 75.4483 11.021C75.5323 10.943 75.5743 10.832 75.5743 10.688C75.5743 10.52 75.5413 10.385 75.4753 10.283C75.4153 10.181 75.3343 10.103 75.2323 10.049C75.1363 9.995 75.0253 9.959 74.8993 9.941C74.7793 9.923 74.6593 9.914 74.5393 9.914C74.2153 9.914 73.9453 9.977 73.7293 10.103C73.5133 10.223 73.3963 10.454 73.3783 10.796H72.6133C72.6253 10.508 72.6853 10.265 72.7933 10.067C72.9013 9.869 73.0453 9.71 73.2253 9.59C73.4053 9.464 73.6093 9.374 73.8373 9.32C74.0713 9.266 74.3203 9.239 74.5843 9.239C74.7943 9.239 75.0013 9.254 75.2053 9.284C75.4153 9.314 75.6043 9.377 75.7723 9.473C75.9403 9.563 76.0753 9.692 76.1773 9.86C76.2793 10.028 76.3303 10.247 76.3303 10.517V12.911C76.3303 13.091 76.3393 13.223 76.3573 13.307C76.3813 13.391 76.4533 13.433 76.5733 13.433C76.6393 13.433 76.7173 13.418 76.8073 13.388V13.982ZM75.5653 11.597C75.4693 11.669 75.3433 11.723 75.1873 11.759C75.0313 11.789 74.8663 11.816 74.6923 11.84C74.5243 11.858 74.3533 11.882 74.1793 11.912C74.0053 11.936 73.8493 11.978 73.7113 12.038C73.5733 12.098 73.4593 12.185 73.3693 12.299C73.2853 12.407 73.2433 12.557 73.2433 12.749C73.2433 12.875 73.2673 12.983 73.3153 13.073C73.3693 13.157 73.4353 13.226 73.5133 13.28C73.5973 13.334 73.6933 13.373 73.8013 13.397C73.9093 13.421 74.0233 13.433 74.1433 13.433C74.3953 13.433 74.6113 13.4 74.7913 13.334C74.9713 13.262 75.1183 13.175 75.2323 13.073C75.3463 12.965 75.4303 12.851 75.4843 12.731C75.5383 12.605 75.5653 12.488 75.5653 12.38V11.597ZM78.3472 11.714C78.3472 11.486 78.3712 11.264 78.4192 11.048C78.4672 10.832 78.5452 10.64 78.6532 10.472C78.7612 10.304 78.9052 10.169 79.0852 10.067C79.2652 9.965 79.4842 9.914 79.7422 9.914C80.0062 9.914 80.2312 9.965 80.4172 10.067C80.6032 10.163 80.7532 10.292 80.8672 10.454C80.9872 10.616 81.0742 10.805 81.1282 11.021C81.1822 11.231 81.2092 11.45 81.2092 11.678C81.2092 11.894 81.1822 12.107 81.1282 12.317C81.0802 12.527 80.9992 12.716 80.8852 12.884C80.7712 13.046 80.6242 13.178 80.4442 13.28C80.2642 13.382 80.0452 13.433 79.7872 13.433C79.5412 13.433 79.3252 13.385 79.1392 13.289C78.9592 13.193 78.8092 13.064 78.6892 12.902C78.5752 12.74 78.4882 12.557 78.4282 12.353C78.3742 12.143 78.3472 11.93 78.3472 11.714ZM81.9472 14V7.574H81.1822V9.968H81.1642C81.0802 9.83 80.9752 9.716 80.8492 9.626C80.7292 9.53 80.6002 9.455 80.4622 9.401C80.3242 9.341 80.1862 9.299 80.0482 9.275C79.9102 9.251 79.7812 9.239 79.6612 9.239C79.3072 9.239 78.9952 9.305 78.7252 9.437C78.4612 9.563 78.2392 9.737 78.0592 9.959C77.8852 10.175 77.7532 10.43 77.6632 10.724C77.5792 11.018 77.5372 11.33 77.5372 11.66C77.5372 11.99 77.5822 12.302 77.6722 12.596C77.7622 12.89 77.8942 13.148 78.0682 13.37C78.2482 13.592 78.4702 13.769 78.7342 13.901C79.0042 14.033 79.3192 14.099 79.6792 14.099C80.0032 14.099 80.3002 14.042 80.5702 13.928C80.8402 13.814 81.0382 13.628 81.1642 13.37H81.1822V14H81.9472ZM86.7271 11.678C86.7271 11.396 86.7631 11.147 86.8351 10.931C86.9131 10.709 87.0181 10.523 87.1501 10.373C87.2821 10.223 87.4351 10.109 87.6091 10.031C87.7891 9.953 87.9781 9.914 88.1761 9.914C88.3741 9.914 88.5601 9.953 88.7341 10.031C88.9141 10.109 89.0701 10.223 89.2021 10.373C89.3341 10.523 89.4361 10.709 89.5081 10.931C89.5861 11.147 89.6251 11.396 89.6251 11.678C89.6251 11.96 89.5861 12.212 89.5081 12.434C89.4361 12.65 89.3341 12.833 89.2021 12.983C89.0701 13.127 88.9141 13.238 88.7341 13.316C88.5601 13.394 88.3741 13.433 88.1761 13.433C87.9781 13.433 87.7891 13.394 87.6091 13.316C87.4351 13.238 87.2821 13.127 87.1501 12.983C87.0181 12.833 86.9131 12.65 86.8351 12.434C86.7631 12.212 86.7271 11.96 86.7271 11.678ZM85.9171 11.678C85.9171 12.02 85.9651 12.338 86.0611 12.632C86.1571 12.926 86.3011 13.184 86.4931 13.406C86.6851 13.622 86.9221 13.793 87.2041 13.919C87.4861 14.039 87.8101 14.099 88.1761 14.099C88.5481 14.099 88.8721 14.039 89.1481 13.919C89.4301 13.793 89.6671 13.622 89.8591 13.406C90.0511 13.184 90.1951 12.926 90.2911 12.632C90.3871 12.338 90.4351 12.02 90.4351 11.678C90.4351 11.336 90.3871 11.018 90.2911 10.724C90.1951 10.424 90.0511 10.166 89.8591 9.95C89.6671 9.728 89.4301 9.554 89.1481 9.428C88.8721 9.302 88.5481 9.239 88.1761 9.239C87.8101 9.239 87.4861 9.302 87.2041 9.428C86.9221 9.554 86.6851 9.728 86.4931 9.95C86.3011 10.166 86.1571 10.424 86.0611 10.724C85.9651 11.018 85.9171 11.336 85.9171 11.678ZM91.6071 9.347V14H92.3721V11.372C92.3721 11.162 92.3991 10.97 92.4531 10.796C92.5131 10.616 92.6001 10.46 92.7141 10.328C92.8281 10.196 92.9691 10.094 93.1371 10.022C93.3111 9.95 93.5151 9.914 93.7491 9.914C94.0431 9.914 94.2741 9.998 94.4421 10.166C94.6101 10.334 94.6941 10.562 94.6941 10.85V14H95.4591V10.94C95.4591 10.688 95.4321 10.46 95.3781 10.256C95.3301 10.046 95.2431 9.866 95.1171 9.716C94.9911 9.566 94.8261 9.449 94.6221 9.365C94.4181 9.281 94.1631 9.239 93.8571 9.239C93.1671 9.239 92.6631 9.521 92.3451 10.085H92.3271V9.347H91.6071ZM100.715 9.347V7.952H99.9499V9.347H99.1579V10.022H99.9499V12.983C99.9499 13.199 99.9709 13.373 100.013 13.505C100.055 13.637 100.118 13.739 100.202 13.811C100.292 13.883 100.406 13.934 100.544 13.964C100.688 13.988 100.859 14 101.057 14H101.642V13.325H101.291C101.171 13.325 101.072 13.322 100.994 13.316C100.922 13.304 100.865 13.283 100.823 13.253C100.781 13.223 100.751 13.181 100.733 13.127C100.721 13.073 100.715 13.001 100.715 12.911V10.022H101.642V9.347H100.715ZM102.762 7.574V14H103.527V11.372C103.527 11.162 103.554 10.97 103.608 10.796C103.668 10.616 103.755 10.46 103.869 10.328C103.983 10.196 104.124 10.094 104.292 10.022C104.466 9.95 104.67 9.914 104.904 9.914C105.198 9.914 105.429 9.998 105.597 10.166C105.765 10.334 105.849 10.562 105.849 10.85V14H106.614V10.94C106.614 10.688 106.587 10.46 106.533 10.256C106.485 10.046 106.398 9.866 106.272 9.716C106.146 9.566 105.981 9.449 105.777 9.365C105.573 9.281 105.318 9.239 105.012 9.239C104.874 9.239 104.73 9.254 104.58 9.284C104.436 9.314 104.295 9.362 104.157 9.428C104.025 9.488 103.905 9.569 103.797 9.671C103.689 9.767 103.605 9.887 103.545 10.031H103.527V7.574H102.762ZM111.264 11.228H108.591C108.603 11.048 108.642 10.88 108.708 10.724C108.774 10.562 108.864 10.421 108.978 10.301C109.092 10.181 109.227 10.088 109.383 10.022C109.545 9.95 109.725 9.914 109.923 9.914C110.115 9.914 110.289 9.95 110.445 10.022C110.607 10.088 110.745 10.181 110.859 10.301C110.979 10.415 111.072 10.553 111.138 10.715C111.21 10.877 111.252 11.048 111.264 11.228ZM112.002 12.524H111.246C111.18 12.83 111.042 13.058 110.832 13.208C110.628 13.358 110.364 13.433 110.04 13.433C109.788 13.433 109.569 13.391 109.383 13.307C109.197 13.223 109.044 13.112 108.924 12.974C108.804 12.83 108.717 12.668 108.663 12.488C108.609 12.302 108.585 12.107 108.591 11.903H112.074C112.086 11.621 112.059 11.324 111.993 11.012C111.933 10.7 111.819 10.412 111.651 10.148C111.489 9.884 111.27 9.668 110.994 9.5C110.724 9.326 110.382 9.239 109.968 9.239C109.65 9.239 109.356 9.299 109.086 9.419C108.822 9.539 108.591 9.707 108.393 9.923C108.201 10.139 108.051 10.394 107.943 10.688C107.835 10.982 107.781 11.306 107.781 11.66C107.793 12.014 107.844 12.341 107.934 12.641C108.03 12.941 108.171 13.199 108.357 13.415C108.543 13.631 108.771 13.799 109.041 13.919C109.317 14.039 109.641 14.099 110.013 14.099C110.541 14.099 110.979 13.967 111.327 13.703C111.675 13.439 111.9 13.046 112.002 12.524Z" fill="white"/>
<path d="M41.258 18.862H44.25L47.599 28.365H47.633L50.897 18.862H53.855V31H51.832V21.633H51.798L48.432 31H46.681L43.315 21.633H43.281V31H41.258V18.862ZM63.4884 29.045C63.4884 29.283 63.5168 29.453 63.5734 29.555C63.6414 29.657 63.7661 29.708 63.9474 29.708C64.0041 29.708 64.0721 29.708 64.1514 29.708C64.2308 29.708 64.3214 29.6967 64.4234 29.674V31.017C64.3554 31.0397 64.2648 31.0623 64.1514 31.085C64.0494 31.119 63.9418 31.1473 63.8284 31.17C63.7151 31.1927 63.6018 31.2097 63.4884 31.221C63.3751 31.2323 63.2788 31.238 63.1994 31.238C62.8028 31.238 62.4741 31.1587 62.2134 31C61.9528 30.8413 61.7828 30.5637 61.7034 30.167C61.3181 30.541 60.8421 30.813 60.2754 30.983C59.7201 31.153 59.1818 31.238 58.6604 31.238C58.2638 31.238 57.8841 31.1813 57.5214 31.068C57.1588 30.966 56.8358 30.813 56.5524 30.609C56.2804 30.3937 56.0594 30.1273 55.8894 29.81C55.7308 29.4813 55.6514 29.1017 55.6514 28.671C55.6514 28.127 55.7478 27.685 55.9404 27.345C56.1444 27.005 56.4051 26.7387 56.7224 26.546C57.0511 26.3533 57.4138 26.2173 57.8104 26.138C58.2184 26.0473 58.6264 25.9793 59.0344 25.934C59.3858 25.866 59.7201 25.8207 60.0374 25.798C60.3548 25.764 60.6324 25.713 60.8704 25.645C61.1198 25.577 61.3124 25.475 61.4484 25.339C61.5958 25.1917 61.6694 24.9763 61.6694 24.693C61.6694 24.4437 61.6071 24.2397 61.4824 24.081C61.3691 23.9223 61.2218 23.8033 61.0404 23.724C60.8704 23.6333 60.6778 23.5767 60.4624 23.554C60.2471 23.52 60.0431 23.503 59.8504 23.503C59.3064 23.503 58.8588 23.6163 58.5074 23.843C58.1561 24.0697 57.9578 24.421 57.9124 24.897H55.9744C56.0084 24.3303 56.1444 23.86 56.3824 23.486C56.6204 23.112 56.9208 22.8117 57.2834 22.585C57.6574 22.3583 58.0768 22.1997 58.5414 22.109C59.0061 22.0183 59.4821 21.973 59.9694 21.973C60.4001 21.973 60.8251 22.0183 61.2444 22.109C61.6638 22.1997 62.0378 22.347 62.3664 22.551C62.7064 22.755 62.9784 23.0213 63.1824 23.35C63.3864 23.6673 63.4884 24.0583 63.4884 24.523V29.045ZM61.5504 26.597C61.2558 26.7897 60.8931 26.9087 60.4624 26.954C60.0318 26.988 59.6011 27.0447 59.1704 27.124C58.9664 27.158 58.7681 27.209 58.5754 27.277C58.3828 27.3337 58.2128 27.4187 58.0654 27.532C57.9181 27.634 57.7991 27.7757 57.7084 27.957C57.6291 28.127 57.5894 28.3367 57.5894 28.586C57.5894 28.8013 57.6518 28.9827 57.7764 29.13C57.9011 29.2773 58.0484 29.3963 58.2184 29.487C58.3998 29.5663 58.5924 29.623 58.7964 29.657C59.0118 29.691 59.2044 29.708 59.3744 29.708C59.5898 29.708 59.8221 29.6797 60.0714 29.623C60.3208 29.5663 60.5531 29.47 60.7684 29.334C60.9951 29.198 61.1821 29.028 61.3294 28.824C61.4768 28.6087 61.5504 28.348 61.5504 28.042V26.597ZM71.5067 25.152C71.4274 24.608 71.2064 24.2 70.8437 23.928C70.4924 23.6447 70.0447 23.503 69.5007 23.503C69.2514 23.503 68.985 23.5483 68.7017 23.639C68.4184 23.7183 68.1577 23.877 67.9197 24.115C67.6817 24.3417 67.4834 24.6647 67.3247 25.084C67.166 25.492 67.0867 26.0303 67.0867 26.699C67.0867 27.0617 67.1264 27.4243 67.2057 27.787C67.2964 28.1497 67.4324 28.4727 67.6137 28.756C67.8064 29.0393 68.05 29.2717 68.3447 29.453C68.6394 29.623 68.9964 29.708 69.4157 29.708C69.9824 29.708 70.447 29.5323 70.8097 29.181C71.1837 28.8297 71.416 28.3367 71.5067 27.702H73.4447C73.2634 28.8467 72.827 29.725 72.1357 30.337C71.4557 30.9377 70.549 31.238 69.4157 31.238C68.7244 31.238 68.1124 31.1247 67.5797 30.898C67.0584 30.66 66.6164 30.3427 66.2537 29.946C65.891 29.538 65.6134 29.0563 65.4207 28.501C65.2394 27.9457 65.1487 27.345 65.1487 26.699C65.1487 26.0417 65.2394 25.424 65.4207 24.846C65.602 24.268 65.874 23.7693 66.2367 23.35C66.5994 22.9193 67.047 22.585 67.5797 22.347C68.1237 22.0977 68.7584 21.973 69.4837 21.973C69.9937 21.973 70.4754 22.041 70.9287 22.177C71.3934 22.3017 71.8014 22.4943 72.1527 22.755C72.5154 23.0157 72.81 23.3443 73.0367 23.741C73.2634 24.1377 73.3994 24.608 73.4447 25.152H71.5067ZM83.2704 18.862H85.5314L90.2064 31H87.9284L86.7894 27.787H81.9444L80.8054 31H78.6124L83.2704 18.862ZM82.5224 26.172H86.2284L84.4094 20.953H84.3584L82.5224 26.172ZM91.1413 22.211H92.9773V23.401H93.0113C93.2833 22.891 93.663 22.5283 94.1503 22.313C94.6376 22.0863 95.1646 21.973 95.7313 21.973C96.4226 21.973 97.0233 22.0977 97.5333 22.347C98.0546 22.585 98.4853 22.9193 98.8253 23.35C99.1653 23.7693 99.4203 24.2623 99.5903 24.829C99.7603 25.3957 99.8453 26.002 99.8453 26.648C99.8453 27.2373 99.766 27.8097 99.6073 28.365C99.46 28.9203 99.2276 29.4133 98.9103 29.844C98.6043 30.2633 98.2133 30.6033 97.7373 30.864C97.2613 31.1133 96.7003 31.238 96.0543 31.238C95.771 31.238 95.4876 31.2097 95.2043 31.153C94.921 31.1077 94.649 31.0283 94.3883 30.915C94.1276 30.8017 93.884 30.66 93.6573 30.49C93.442 30.3087 93.2606 30.099 93.1133 29.861H93.0793V34.247H91.1413V22.211ZM97.9073 26.614C97.9073 26.2173 97.8563 25.832 97.7543 25.458C97.6523 25.084 97.4993 24.7553 97.2953 24.472C97.0913 24.1773 96.8363 23.945 96.5303 23.775C96.2243 23.5937 95.873 23.503 95.4763 23.503C94.6603 23.503 94.0426 23.7863 93.6233 24.353C93.2153 24.9197 93.0113 25.6733 93.0113 26.614C93.0113 27.056 93.0623 27.4697 93.1643 27.855C93.2776 28.229 93.442 28.552 93.6573 28.824C93.8726 29.096 94.1276 29.3113 94.4223 29.47C94.7283 29.6287 95.0796 29.708 95.4763 29.708C95.9183 29.708 96.2923 29.6173 96.5983 29.436C96.9043 29.2547 97.1536 29.0223 97.3463 28.739C97.5503 28.4443 97.692 28.1157 97.7713 27.753C97.862 27.379 97.9073 26.9993 97.9073 26.614ZM101.534 22.211H103.37V23.401H103.404C103.676 22.891 104.056 22.5283 104.543 22.313C105.03 22.0863 105.557 21.973 106.124 21.973C106.815 21.973 107.416 22.0977 107.926 22.347C108.447 22.585 108.878 22.9193 109.218 23.35C109.558 23.7693 109.813 24.2623 109.983 24.829C110.153 25.3957 110.238 26.002 110.238 26.648C110.238 27.2373 110.159 27.8097 110 28.365C109.853 28.9203 109.62 29.4133 109.303 29.844C108.997 30.2633 108.606 30.6033 108.13 30.864C107.654 31.1133 107.093 31.238 106.447 31.238C106.164 31.238 105.88 31.2097 105.597 31.153C105.314 31.1077 105.042 31.0283 104.781 30.915C104.52 30.8017 104.277 30.66 104.05 30.49C103.835 30.3087 103.653 30.099 103.506 29.861H103.472V34.247H101.534V22.211ZM108.3 26.614C108.3 26.2173 108.249 25.832 108.147 25.458C108.045 25.084 107.892 24.7553 107.688 24.472C107.484 24.1773 107.229 23.945 106.923 23.775C106.617 23.5937 106.266 23.503 105.869 23.503C105.053 23.503 104.435 23.7863 104.016 24.353C103.608 24.9197 103.404 25.6733 103.404 26.614C103.404 27.056 103.455 27.4697 103.557 27.855C103.67 28.229 103.835 28.552 104.05 28.824C104.265 29.096 104.52 29.3113 104.815 29.47C105.121 29.6287 105.472 29.708 105.869 29.708C106.311 29.708 106.685 29.6173 106.991 29.436C107.297 29.2547 107.546 29.0223 107.739 28.739C107.943 28.4443 108.085 28.1157 108.164 27.753C108.255 27.379 108.3 26.9993 108.3 26.614ZM118.273 26.954C118.273 27.4187 118.352 27.8153 118.511 28.144C118.67 28.4727 118.891 28.7447 119.174 28.96C119.457 29.164 119.78 29.317 120.143 29.419C120.517 29.5097 120.919 29.555 121.35 29.555C121.815 29.555 122.211 29.504 122.54 29.402C122.869 29.2887 123.135 29.147 123.339 28.977C123.543 28.807 123.69 28.6143 123.781 28.399C123.872 28.1723 123.917 27.9457 123.917 27.719C123.917 27.2543 123.809 26.9143 123.594 26.699C123.39 26.4723 123.163 26.3137 122.914 26.223C122.483 26.0643 121.979 25.917 121.401 25.781C120.834 25.6337 120.132 25.4467 119.293 25.22C118.772 25.084 118.335 24.9083 117.984 24.693C117.644 24.4663 117.372 24.217 117.168 23.945C116.964 23.673 116.817 23.384 116.726 23.078C116.647 22.772 116.607 22.4603 116.607 22.143C116.607 21.531 116.732 21.004 116.981 20.562C117.242 20.1087 117.582 19.7347 118.001 19.44C118.42 19.1453 118.896 18.93 119.429 18.794C119.962 18.6467 120.5 18.573 121.044 18.573C121.679 18.573 122.274 18.658 122.829 18.828C123.396 18.9867 123.889 19.2303 124.308 19.559C124.739 19.8877 125.079 20.2957 125.328 20.783C125.577 21.259 125.702 21.8143 125.702 22.449H123.577C123.52 21.667 123.254 21.1173 122.778 20.8C122.302 20.4713 121.696 20.307 120.959 20.307C120.71 20.307 120.455 20.3353 120.194 20.392C119.933 20.4373 119.695 20.5223 119.48 20.647C119.265 20.7603 119.083 20.919 118.936 21.123C118.8 21.327 118.732 21.582 118.732 21.888C118.732 22.3187 118.862 22.6587 119.123 22.908C119.395 23.146 119.746 23.3273 120.177 23.452C120.222 23.4633 120.398 23.5143 120.704 23.605C121.021 23.6843 121.373 23.775 121.758 23.877C122.143 23.979 122.517 24.081 122.88 24.183C123.254 24.2737 123.52 24.3417 123.679 24.387C124.076 24.5117 124.421 24.6817 124.716 24.897C125.011 25.1123 125.254 25.3617 125.447 25.645C125.651 25.917 125.798 26.2117 125.889 26.529C125.991 26.8463 126.042 27.1637 126.042 27.481C126.042 28.161 125.9 28.7447 125.617 29.232C125.345 29.708 124.982 30.099 124.529 30.405C124.076 30.711 123.56 30.932 122.982 31.068C122.404 31.2153 121.815 31.289 121.214 31.289C120.523 31.289 119.871 31.204 119.259 31.034C118.647 30.864 118.114 30.6033 117.661 30.252C117.208 29.9007 116.845 29.453 116.573 28.909C116.301 28.3537 116.159 27.702 116.148 26.954H118.273ZM126.746 22.211H128.208V19.576H130.146V22.211H131.897V23.656H130.146V28.348C130.146 28.552 130.152 28.7277 130.163 28.875C130.186 29.0223 130.226 29.147 130.282 29.249C130.35 29.351 130.447 29.4303 130.571 29.487C130.696 29.5323 130.866 29.555 131.081 29.555C131.217 29.555 131.353 29.555 131.489 29.555C131.625 29.5437 131.761 29.521 131.897 29.487V30.983C131.682 31.0057 131.472 31.0283 131.268 31.051C131.064 31.0737 130.855 31.085 130.639 31.085C130.129 31.085 129.716 31.0397 129.398 30.949C129.092 30.847 128.849 30.7053 128.667 30.524C128.497 30.3313 128.378 30.0933 128.31 29.81C128.254 29.5267 128.22 29.2037 128.208 28.841V23.656H126.746V22.211ZM137.32 31.238C136.618 31.238 135.989 31.1247 135.433 30.898C134.889 30.66 134.425 30.337 134.039 29.929C133.665 29.521 133.376 29.0337 133.172 28.467C132.98 27.9003 132.883 27.277 132.883 26.597C132.883 25.9283 132.98 25.3107 133.172 24.744C133.376 24.1773 133.665 23.69 134.039 23.282C134.425 22.874 134.889 22.5567 135.433 22.33C135.989 22.092 136.618 21.973 137.32 21.973C138.023 21.973 138.646 22.092 139.19 22.33C139.746 22.5567 140.21 22.874 140.584 23.282C140.97 23.69 141.259 24.1773 141.451 24.744C141.655 25.3107 141.757 25.9283 141.757 26.597C141.757 27.277 141.655 27.9003 141.451 28.467C141.259 29.0337 140.97 29.521 140.584 29.929C140.21 30.337 139.746 30.66 139.19 30.898C138.646 31.1247 138.023 31.238 137.32 31.238ZM137.32 29.708C137.751 29.708 138.125 29.6173 138.442 29.436C138.76 29.2547 139.02 29.0167 139.224 28.722C139.428 28.4273 139.576 28.0987 139.666 27.736C139.768 27.362 139.819 26.9823 139.819 26.597C139.819 26.223 139.768 25.849 139.666 25.475C139.576 25.101 139.428 24.7723 139.224 24.489C139.02 24.1943 138.76 23.9563 138.442 23.775C138.125 23.5937 137.751 23.503 137.32 23.503C136.89 23.503 136.516 23.5937 136.198 23.775C135.881 23.9563 135.62 24.1943 135.416 24.489C135.212 24.7723 135.059 25.101 134.957 25.475C134.867 25.849 134.821 26.223 134.821 26.597C134.821 26.9823 134.867 27.362 134.957 27.736C135.059 28.0987 135.212 28.4273 135.416 28.722C135.62 29.0167 135.881 29.2547 136.198 29.436C136.516 29.6173 136.89 29.708 137.32 29.708ZM143.369 22.211H145.188V23.911H145.222C145.278 23.673 145.386 23.4407 145.545 23.214C145.715 22.9873 145.913 22.7833 146.14 22.602C146.378 22.4093 146.638 22.2563 146.922 22.143C147.205 22.0297 147.494 21.973 147.789 21.973C148.015 21.973 148.168 21.9787 148.248 21.99C148.338 22.0013 148.429 22.0127 148.52 22.024V23.894C148.384 23.8713 148.242 23.8543 148.095 23.843C147.959 23.8203 147.823 23.809 147.687 23.809C147.358 23.809 147.046 23.877 146.752 24.013C146.468 24.1377 146.219 24.3303 146.004 24.591C145.788 24.8403 145.618 25.152 145.494 25.526C145.369 25.9 145.307 26.3307 145.307 26.818V31H143.369V22.211ZM155.081 25.832C155.059 25.526 154.991 25.2313 154.877 24.948C154.775 24.6647 154.628 24.421 154.435 24.217C154.254 24.0017 154.027 23.8317 153.755 23.707C153.495 23.571 153.2 23.503 152.871 23.503C152.531 23.503 152.22 23.5653 151.936 23.69C151.664 23.8033 151.426 23.9677 151.222 24.183C151.03 24.387 150.871 24.6307 150.746 24.914C150.633 25.1973 150.571 25.5033 150.559 25.832H155.081ZM150.559 27.107C150.559 27.447 150.605 27.7757 150.695 28.093C150.797 28.4103 150.945 28.688 151.137 28.926C151.33 29.164 151.574 29.3567 151.868 29.504C152.163 29.64 152.514 29.708 152.922 29.708C153.489 29.708 153.942 29.589 154.282 29.351C154.634 29.1017 154.894 28.7333 155.064 28.246H156.9C156.798 28.722 156.623 29.147 156.373 29.521C156.124 29.895 155.824 30.2123 155.472 30.473C155.121 30.7223 154.724 30.9093 154.282 31.034C153.852 31.17 153.398 31.238 152.922 31.238C152.231 31.238 151.619 31.1247 151.086 30.898C150.554 30.6713 150.1 30.354 149.726 29.946C149.364 29.538 149.086 29.0507 148.893 28.484C148.712 27.9173 148.621 27.294 148.621 26.614C148.621 25.9907 148.718 25.4013 148.91 24.846C149.114 24.2793 149.398 23.7863 149.76 23.367C150.134 22.9363 150.582 22.5963 151.103 22.347C151.625 22.0977 152.214 21.973 152.871 21.973C153.563 21.973 154.18 22.1203 154.724 22.415C155.28 22.6983 155.739 23.078 156.101 23.554C156.464 24.03 156.725 24.5797 156.883 25.203C157.053 25.815 157.099 26.4497 157.019 27.107H150.559Z" fill="white"/>
</svg>
