<svg width="138" height="40" viewBox="0 0 138 40" fill="none" xmlns="http://www.w3.org/2000/svg"><path d="M.001 4a4 4 0 0 1 4-4h129a4 4 0 0 1 4 4v32a4 4 0 0 1-4 4h-129a4 4 0 0 1-4-4V4Z" fill="#0E0E0E"/><g clip-path="url(#a)" fill="#fff"><path d="M13.338 8.384a2.962 2.962 0 0 0-2.93.007L21.18 18.482l3.619-3.675-11.46-6.423ZM9.329 9.417a2.83 2.83 0 0 0-.414 1.466v18.225c0 .513.137 1.002.386 1.43l10.831-11L9.33 9.418Zm20.268 8.078-3.452-1.934-3.878 3.938 4.753 4.452 2.578-1.445c.928-.523 1.484-1.459 1.484-2.506a2.849 2.849 0 0 0-1.485-2.505Zm-8.371 3.058-10.861 11.03c.471.273.988.417 1.508.417a3 3 0 0 0 1.47-.389l12.319-6.903-4.436-4.155Z"/></g><path d="M46.85 11.039c0 .9-.267 1.617-.8 2.151-.6.636-1.39.954-2.367.954-.937 0-1.728-.324-2.377-.972-.648-.648-.971-1.446-.971-2.394 0-.948.323-1.746.971-2.394.649-.648 1.44-.972 2.377-.972.474 0 .92.084 1.34.252.42.168.765.405 1.035.711l-.593.594a1.952 1.952 0 0 0-.775-.558 2.464 2.464 0 0 0-1.008-.207c-.702 0-1.296.243-1.782.729-.48.492-.72 1.107-.72 1.845s.24 1.353.72 1.845c.486.486 1.08.729 1.782.729.642 0 1.176-.18 1.602-.54.427-.36.672-.855.739-1.485h-2.34v-.774h3.123c.03.168.044.33.044.486Zm4.768-3.483v.792h-2.934v2.043h2.647v.774h-2.647v2.043h2.934V14h-3.762V7.556h3.762Zm3.312.792V14h-.828V8.348h-1.8v-.792h4.428v.792h-1.8ZM60.4 14h-.828V7.556h.828V14Zm3.495-5.652V14h-.828V8.348h-1.8v-.792h4.428v.792h-1.8Zm10.775 2.43c0 .954-.318 1.752-.954 2.394-.642.648-1.428.972-2.358.972-.936 0-1.722-.324-2.358-.972-.636-.642-.954-1.44-.954-2.394 0-.954.318-1.752.954-2.394.636-.648 1.422-.972 2.358-.972.936 0 1.722.327 2.358.981.636.642.954 1.437.954 2.385Zm-5.778 0c0 .744.234 1.359.702 1.845.474.486 1.062.729 1.764.729s1.287-.243 1.755-.729c.474-.48.711-1.095.711-1.845s-.237-1.365-.71-1.845c-.469-.486-1.054-.729-1.756-.729s-1.29.243-1.764.729c-.468.486-.702 1.101-.702 1.845ZM76.476 14h-.829V7.556h1.008l3.132 5.013h.036l-.035-1.242V7.556h.828V14h-.865l-3.276-5.256h-.035l.035 1.242V14ZM52.938 25.407c0 1.7-.504 3.054-1.513 4.063-1.133 1.201-2.623 1.802-4.47 1.802-1.768 0-3.264-.612-4.488-1.836-1.224-1.224-1.837-2.731-1.837-4.522 0-1.79.612-3.298 1.837-4.522 1.224-1.224 2.72-1.836 4.488-1.836.895 0 1.74.159 2.532.476.794.317 1.445.765 1.956 1.343l-1.122 1.122a3.691 3.691 0 0 0-1.462-1.054 4.653 4.653 0 0 0-1.904-.391c-1.326 0-2.448.459-3.366 1.377-.907.93-1.36 2.091-1.36 3.485 0 1.394.453 2.556 1.36 3.485.918.918 2.04 1.377 3.366 1.377 1.212 0 2.22-.34 3.026-1.02.804-.68 1.269-1.615 1.393-2.805h-4.42v-1.462h5.9c.056.317.084.623.084.918Zm1.07 1.428c0-1.28.402-2.34 1.207-3.179.816-.839 1.841-1.258 3.077-1.258 1.235 0 2.255.42 3.06 1.258.816.839 1.224 1.898 1.224 3.179 0 1.292-.408 2.352-1.224 3.179-.805.839-1.825 1.258-3.06 1.258-1.236 0-2.261-.42-3.077-1.258-.805-.839-1.207-1.898-1.207-3.179Zm1.564 0c0 .895.26 1.62.782 2.176a2.551 2.551 0 0 0 1.938.833c.77 0 1.416-.278 1.938-.833.521-.555.782-1.28.782-2.176 0-.884-.26-1.604-.782-2.159-.533-.567-1.179-.85-1.938-.85-.76 0-1.406.283-1.938.85-.522.555-.782 1.275-.782 2.159Zm7.948 0c0-1.28.403-2.34 1.207-3.179.816-.839 1.842-1.258 3.077-1.258 1.236 0 2.256.42 3.06 1.258.816.839 1.224 1.898 1.224 3.179 0 1.292-.408 2.352-1.224 3.179-.804.839-1.824 1.258-3.06 1.258-1.235 0-2.26-.42-3.077-1.258-.804-.839-1.207-1.898-1.207-3.179Zm1.564 0c0 .895.261 1.62.782 2.176a2.551 2.551 0 0 0 1.938.833c.771 0 1.417-.278 1.938-.833.522-.555.782-1.28.782-2.176 0-.884-.26-1.604-.782-2.159-.532-.567-1.178-.85-1.938-.85-.759 0-1.405.283-1.938.85-.52.555-.782 1.275-.782 2.159Zm12.165 3.009c.77 0 1.4-.278 1.887-.833.51-.555.765-1.28.765-2.176 0-.873-.255-1.592-.765-2.159a2.406 2.406 0 0 0-1.887-.85c-.748 0-1.377.283-1.887.85s-.765 1.286-.765 2.159c0 .884.255 1.604.765 2.159.51.567 1.14.85 1.887.85Zm-.05 5.1c-.465 0-.902-.062-1.31-.187a4.168 4.168 0 0 1-1.122-.493 3.666 3.666 0 0 1-.85-.765 3.226 3.226 0 0 1-.544-.986l1.48-.612c.17.487.464.878.883 1.173.42.295.907.442 1.462.442.85 0 1.513-.255 1.99-.765.475-.51.713-1.213.713-2.108v-.799h-.068a3.127 3.127 0 0 1-1.207 1.054 3.598 3.598 0 0 1-1.632.374c-1.088 0-2.023-.425-2.805-1.275-.77-.873-1.156-1.927-1.156-3.162 0-1.235.385-2.284 1.156-3.145.782-.861 1.717-1.292 2.805-1.292.59 0 1.133.13 1.632.391.51.25.912.595 1.207 1.037h.068V22.67h1.496v7.973c0 1.337-.38 2.386-1.139 3.145-.77.77-1.79 1.156-3.06 1.156Zm7.67-16.116V31h-1.565V18.828h1.564Zm5.562 12.444c-1.224 0-2.233-.42-3.026-1.258-.794-.839-1.19-1.898-1.19-3.179 0-1.27.385-2.323 1.156-3.162.77-.85 1.756-1.275 2.958-1.275 1.235 0 2.215.402 2.94 1.207.737.793 1.106 1.91 1.106 3.349l-.017.17h-6.545c.022.816.294 1.473.816 1.972a2.61 2.61 0 0 0 1.87.748c.997 0 1.78-.499 2.346-1.496l1.394.68a4.137 4.137 0 0 1-1.564 1.649c-.658.397-1.406.595-2.244.595Zm-2.5-5.44h4.778a2.031 2.031 0 0 0-.714-1.428c-.42-.385-.986-.578-1.7-.578a2.3 2.3 0 0 0-1.53.544c-.42.363-.697.85-.833 1.462Zm13.445.238V31h-1.564V18.828h4.148c1.054 0 1.95.351 2.686 1.054.748.703 1.122 1.558 1.122 2.567 0 1.031-.374 1.893-1.122 2.584-.725.691-1.62 1.037-2.686 1.037h-2.584Zm0-5.746v4.25h2.618c.624 0 1.139-.21 1.547-.629.42-.42.629-.918.629-1.496 0-.567-.209-1.06-.629-1.479-.408-.43-.923-.646-1.547-.646h-2.618Zm9.407-1.496V31h-1.564V18.828h1.564Zm2.962 9.622c0 .408.17.748.51 1.02.351.272.759.408 1.224.408.657 0 1.241-.244 1.751-.731.521-.487.782-1.06.782-1.717-.488-.385-1.168-.578-2.04-.578-.635 0-1.168.153-1.598.459-.42.306-.629.686-.629 1.139Zm2.023-6.052c1.156 0 2.068.312 2.737.935.668.612 1.003 1.456 1.003 2.533V31h-1.496v-1.156h-.068c-.646.952-1.508 1.428-2.584 1.428-.918 0-1.689-.272-2.312-.816a2.616 2.616 0 0 1-.918-2.04c0-.861.323-1.547.969-2.057.657-.51 1.53-.765 2.618-.765.929 0 1.694.17 2.295.51v-.357c0-.544-.216-1.003-.646-1.377a2.198 2.198 0 0 0-1.513-.578c-.873 0-1.564.368-2.074 1.105l-1.377-.867c.759-1.088 1.881-1.632 3.366-1.632Zm12.784.272-5.219 12.002h-1.615l1.938-4.199-3.434-7.803h1.7l2.482 5.984h.034l2.414-5.984h1.7Z" fill="#fff"/><path d="m51.425 29.47-.106-.106-.003.003.11.103Zm-8.958-.034.105-.106-.105.106Zm0-9.044.105.106-.105-.106Zm8.976-.017.105.106.1-.1-.093-.105-.112.099Zm-1.122 1.122-.116.096.105.127.116-.117-.105-.106Zm-1.462-1.054-.061.137.003.002.057-.139Zm-5.27.986-.107-.106v.001l.107.105Zm0 6.97-.108.105.001.001.107-.106Zm6.392.357-.097-.115.096.115Zm1.393-2.805.15.016.017-.166h-.166v.15Zm-4.42 0h-.15v.15h.15v-.15Zm0-1.462v-.15h-.15v.15h.15Zm5.9 0 .147-.026-.022-.124h-.126v.15Zm-.066.918c0 1.668-.493 2.982-1.469 3.957l.212.212c1.043-1.042 1.558-2.437 1.558-4.169h-.3Zm-1.472 3.96c-1.101 1.168-2.55 1.755-4.361 1.755v.3c1.883 0 3.414-.614 4.58-1.85l-.219-.205Zm-4.361 1.755c-1.73 0-3.187-.597-4.383-1.792l-.212.212c1.253 1.253 2.788 1.88 4.595 1.88v-.3Zm-4.383-1.792c-1.194-1.195-1.791-2.664-1.791-4.416h-.3c0 1.829.626 3.375 1.88 4.628l.212-.212Zm-1.791-4.416c0-1.752.597-3.221 1.791-4.416l-.212-.212c-1.253 1.253-1.88 2.8-1.88 4.628h.3Zm1.791-4.416c1.196-1.195 2.653-1.792 4.383-1.792v-.3c-1.807 0-3.342.627-4.595 1.88l.212.212Zm4.383-1.792c.877 0 1.702.155 2.477.465l.111-.278a6.907 6.907 0 0 0-2.588-.487v.3Zm2.477.465c.774.31 1.405.745 1.898 1.303l.225-.198c-.527-.598-1.2-1.058-2.012-1.383l-.111.278Zm1.904 1.098-1.122 1.122.212.212 1.122-1.122-.212-.212Zm-.9 1.133c-.391-.475-.9-.84-1.52-1.098l-.115.277c.58.242 1.047.579 1.404 1.012l.231-.192Zm-1.517-1.096a4.803 4.803 0 0 0-1.964-.404v.3c.66 0 1.274.126 1.843.378l.121-.274Zm-1.964-.404c-1.365 0-2.526.474-3.473 1.42l.212.213c.89-.89 1.973-1.333 3.26-1.333v-.3Zm-3.474 1.422c-.936.96-1.403 2.16-1.403 3.59h.3c0-1.358.44-2.481 1.318-3.38l-.215-.21Zm-1.403 3.59c0 1.43.467 2.63 1.403 3.59l.215-.21c-.877-.899-1.317-2.022-1.317-3.38h-.3Zm1.404 3.591c.947.947 2.108 1.421 3.473 1.421v-.3c-1.288 0-2.371-.444-3.26-1.333l-.213.212Zm3.473 1.421c1.242 0 2.287-.35 3.122-1.055l-.193-.23c-.774.654-1.747.985-2.93.985v.3Zm3.122-1.055c.839-.709 1.319-1.681 1.447-2.904l-.299-.032c-.12 1.158-.57 2.055-1.341 2.706l.193.23Zm1.297-3.07h-4.42v.3h4.42v-.3Zm-4.27.15v-1.462h-.3v1.462h.3Zm-.15-1.312h5.9v-.3h-5.9v.3Zm5.752-.124c.055.31.082.607.082.892h.3c0-.304-.029-.62-.087-.944l-.295.052Zm2.509-.859-.108-.105v.001l.108.104Zm6.137 0-.108.104.108-.104Zm0 6.358-.107-.105-.002.001.109.104Zm-6.137 0-.109.104h.001l.108-.104Zm5.015-5.338.11-.103h-.001l-.11.103Zm-3.876 0-.11-.103.11.103Zm-2.196 2.159c0-1.246.39-2.267 1.165-3.075l-.217-.208c-.834.87-1.248 1.968-1.248 3.283h.3Zm1.164-3.074c.786-.808 1.772-1.213 2.97-1.213v-.3c-1.274 0-2.339.434-3.185 1.303l.215.21Zm2.97-1.213c1.197 0 2.177.405 2.951 1.212l.217-.208c-.835-.87-1.895-1.304-3.168-1.304v.3Zm2.952 1.213c.786.808 1.182 1.828 1.182 3.074h.3c0-1.316-.42-2.414-1.267-3.284l-.215.21Zm1.182 3.074c0 1.257-.396 2.278-1.181 3.074l.214.21c.846-.858 1.267-1.957 1.267-3.284h-.3Zm-1.183 3.075c-.774.807-1.754 1.212-2.951 1.212v.3c1.273 0 2.333-.434 3.168-1.304l-.217-.208Zm-2.951 1.212c-1.198 0-2.184-.405-2.97-1.213l-.215.21c.846.87 1.911 1.303 3.185 1.303v-.3Zm-2.969-1.212c-.775-.808-1.165-1.829-1.165-3.075h-.3c0 1.315.414 2.413 1.248 3.283l.217-.208Zm.099-3.075c0 .926.27 1.69.822 2.279l.22-.206c-.492-.522-.742-1.209-.742-2.073h-.3Zm.822 2.279a2.7 2.7 0 0 0 2.048.88v-.3c-.73 0-1.336-.26-1.829-.786l-.219.206Zm2.048.88a2.7 2.7 0 0 0 2.047-.88l-.219-.206a2.401 2.401 0 0 1-1.828.786v.3Zm2.047-.88c.552-.588.823-1.353.823-2.279h-.3c0 .864-.25 1.55-.742 2.073l.22.206Zm.823-2.279c0-.916-.271-1.674-.823-2.262l-.219.206c.491.523.742 1.204.742 2.056h.3Zm-.823-2.262c-.56-.596-1.245-.897-2.047-.897v.3c.717 0 1.323.265 1.828.803l.219-.206Zm-2.047-.897c-.802 0-1.487.301-2.048.897l.219.206c.505-.538 1.112-.803 1.829-.803v-.3Zm-2.048.897c-.551.588-.822 1.346-.822 2.262h.3c0-.852.25-1.533.741-2.056l-.219-.206Zm8.483-.917-.107-.105v.001l.107.104Zm6.137 0-.108.104.108-.104Zm0 6.358-.106-.105-.002.001.108.104Zm-6.137 0-.108.104.108-.104Zm5.015-5.338.11-.103-.11.103Zm-3.876 0-.109-.103.11.103Zm-2.196 2.159c0-1.246.39-2.267 1.166-3.075l-.217-.208c-.834.87-1.249 1.968-1.249 3.283h.3Zm1.165-3.074c.786-.808 1.772-1.213 2.97-1.213v-.3c-1.274 0-2.34.434-3.185 1.303l.215.21Zm2.97-1.213c1.197 0 2.177.405 2.951 1.212l.217-.208c-.835-.87-1.895-1.304-3.169-1.304v.3Zm2.952 1.213c.786.808 1.181 1.828 1.181 3.074h.3c0-1.316-.42-2.414-1.266-3.284l-.215.21Zm1.181 3.074c0 1.257-.395 2.278-1.18 3.074l.213.21c.847-.858 1.267-1.957 1.267-3.284h-.3Zm-1.182 3.075c-.774.807-1.754 1.212-2.952 1.212v.3c1.274 0 2.334-.434 3.169-1.304l-.217-.208Zm-2.952 1.212c-1.197 0-2.183-.405-2.97-1.213l-.214.21c.846.87 1.911 1.303 3.184 1.303v-.3Zm-2.968-1.212c-.775-.808-1.166-1.829-1.166-3.075h-.3c0 1.315.415 2.413 1.25 3.283l.216-.208Zm.098-3.075c0 .926.271 1.69.823 2.279l.219-.206c-.49-.522-.742-1.209-.742-2.073h-.3Zm.823 2.279a2.7 2.7 0 0 0 2.047.88v-.3c-.73 0-1.336-.26-1.828-.786l-.219.206Zm2.047.88a2.7 2.7 0 0 0 2.048-.88l-.219-.206a2.401 2.401 0 0 1-1.829.786v.3Zm2.048-.88c.552-.588.822-1.353.822-2.279h-.3c0 .864-.25 1.55-.74 2.073l.218.206Zm.822-2.279c0-.916-.27-1.674-.822-2.262l-.219.206c.491.523.741 1.204.741 2.056h.3Zm-.822-2.262c-.56-.596-1.246-.897-2.048-.897v.3c.717 0 1.324.265 1.83.803l.218-.206Zm-2.048-.897c-.801 0-1.487.301-2.047.897l.219.206c.505-.538 1.112-.803 1.828-.803v-.3Zm-2.047.897c-.552.588-.823 1.346-.823 2.262h.3c0-.852.25-1.533.742-2.056l-.219-.206Zm13.38 4.438-.111-.101-.003.002.113.099Zm0-4.335-.114.1h.002l.111-.1Zm-3.775 0 .112.1-.112-.1Zm0 4.318.112-.1-.001-.002-.11.102Zm.527 5.763.044-.143-.004-.002-.04.145Zm-1.122-.493-.082.125.002.002.08-.127Zm-.85-.765.117-.094-.117.094Zm-.544-.986-.057-.139-.13.054.045.134.142-.049Zm1.48-.612.14-.05-.051-.15-.147.061.057.139Zm.883 1.173-.086.123.086-.123Zm3.451-.323.11.102-.11-.102Zm.714-2.907h.15v-.15h-.15v.15Zm-.068 0v-.15h-.08l-.045.067.125.083Zm-1.207 1.054.067.134h.001l-.068-.134Zm-4.437-.901-.112.1.002.002.11-.102Zm0-6.307-.11-.1h-.002l.112.1Zm4.437-.901-.07.133.004.002.066-.135Zm1.207 1.037-.125.083.045.067h.08v-.15Zm.068 0v.15h.15v-.15h-.15Zm0-1.156v-.15h-.15v.15h.15Zm1.496 0h.15v-.15h-.15v.15Zm-1.139 11.118-.106-.106.106.106Zm-3.009-3.794c.812 0 1.483-.295 2-.884l-.226-.198c-.457.521-1.044.782-1.774.782v.3Zm1.998-.881c.54-.589.804-1.353.804-2.278h-.3c0 .865-.245 1.552-.725 2.075l.22.203Zm.804-2.278c0-.904-.265-1.661-.803-2.26l-.223.201c.481.535.726 1.218.726 2.059h.3Zm-.802-2.258a2.555 2.555 0 0 0-2-.901v.3c.717 0 1.305.265 1.775.8l.225-.2Zm-2-.901c-.791 0-1.46.302-1.998.9l.223.2c.482-.535 1.07-.8 1.775-.8v-.3Zm-1.998.9c-.539.598-.804 1.355-.804 2.259h.3c0-.841.245-1.524.727-2.059l-.223-.2Zm-.804 2.259c0 .915.265 1.673.805 2.26l.22-.203c-.48-.522-.725-1.204-.725-2.057h-.3Zm.804 2.26c.537.597 1.207.899 1.998.899v-.3c-.704 0-1.293-.265-1.775-.8l-.223.2Zm1.947 5.699c-.451 0-.872-.06-1.265-.18l-.088.287c.424.129.875.193 1.353.193v-.3Zm-1.269-.181a4.02 4.02 0 0 1-1.082-.476l-.16.254c.353.223.74.394 1.162.51l.08-.289Zm-1.08-.474a3.517 3.517 0 0 1-.815-.734l-.234.188c.249.307.544.573.885.796l.164-.25Zm-.815-.734a3.075 3.075 0 0 1-.519-.94l-.284.097c.13.379.32.723.57 1.031l.233-.188Zm-.604-.753 1.48-.612-.115-.278-1.48.612.115.278Zm1.28-.702c.18.517.495.934.94 1.247l.172-.246a2.191 2.191 0 0 1-.828-1.1l-.284.1Zm.94 1.247c.447.314.965.469 1.548.469v-.3c-.527 0-.984-.14-1.376-.415l-.172.246Zm1.548.469c.882 0 1.588-.266 2.099-.813l-.22-.204c-.441.473-1.06.717-1.879.717v.3Zm2.099-.813c.508-.545.754-1.288.754-2.21h-.3c0 .869-.23 1.53-.674 2.006l.22.204Zm.754-2.21v-.799h-.3v.799h.3Zm-.15-.949h-.068v.3h.068v-.3Zm-.193.067a2.965 2.965 0 0 1-1.15 1.003l.136.268c.531-.272.954-.64 1.264-1.105l-.25-.166Zm-1.149 1.003a3.447 3.447 0 0 1-1.565.358v.3a3.76 3.76 0 0 0 1.7-.39l-.135-.268Zm-1.565.358c-1.043 0-1.939-.405-2.695-1.227l-.22.204c.808.878 1.782 1.323 2.915 1.323v-.3Zm-2.692-1.224c-.745-.844-1.119-1.862-1.119-3.063h-.3c0 1.27.397 2.36 1.194 3.261l.225-.198Zm-1.119-3.063c0-1.201.374-2.213 1.118-3.045l-.224-.2c-.797.89-1.194 1.976-1.194 3.245h.3Zm1.117-3.044c.756-.833 1.652-1.243 2.694-1.243v-.3c-1.133 0-2.108.451-2.916 1.341l.222.202Zm2.694-1.243a3.32 3.32 0 0 1 1.563.374l.139-.266a3.62 3.62 0 0 0-1.702-.408v.3Zm1.566.376c.488.238.87.567 1.148.985l.25-.166a3.15 3.15 0 0 0-1.266-1.089l-.132.27Zm1.273 1.052h.068v-.3h-.068v.3Zm.218-.15V22.67h-.3v1.156h.3Zm-.15-1.006h1.496v-.3h-1.496v.3Zm1.346-.15v7.973h.3V22.67h-.3Zm0 7.973c0 1.308-.37 2.314-1.095 3.039l.212.212c.794-.794 1.183-1.884 1.183-3.251h-.3Zm-1.095 3.039c-.738.738-1.717 1.112-2.954 1.112v.3c1.302 0 2.363-.397 3.166-1.2l-.212-.212Zm4.716-14.854h.15v-.15h-.15v.15Zm0 12.172v.15h.15V31h-.15Zm-1.564 0h-.15v.15h.15V31Zm0-12.172v-.15h-.15v.15h.15Zm1.414 0V31h.3V18.828h-.3Zm.15 12.022h-1.564v.3h1.564v-.3Zm-1.414.15V18.828h-.3V31h.3Zm-.15-12.022h1.564v-.3h-1.564v.3Zm4.1 11.036.11-.103-.11.103Zm-.033-6.341.11.102v-.001l-.11-.101Zm5.899-.068-.112.1.002.002.11-.102Zm1.105 3.349.149.015v-.015h-.15Zm-.017.17v.15h.135l.014-.135-.15-.015Zm-6.545 0v-.15h-.154l.004.154.15-.004Zm.816 1.972-.104.108.104-.108Zm4.216-.748.066-.135-.127-.062-.07.123.13.074Zm1.394.68.132.07.073-.137-.14-.068-.065.135Zm-1.564 1.649-.077-.129.077.129Zm-4.743-4.845-.147-.033-.04.183h.187v-.15Zm4.777 0v.15h.162l-.013-.162-.15.012Zm-.714-1.428-.102.11.003.003.099-.113Zm-3.23-.034-.097-.115-.001.002.098.113Zm1.666 6.752c-1.186 0-2.154-.404-2.917-1.211l-.218.206c.823.87 1.872 1.305 3.135 1.305v-.3Zm-2.917-1.211c-.764-.808-1.15-1.83-1.15-3.076h-.3c0 1.314.41 2.412 1.232 3.282l.218-.206Zm-1.15-3.076c0-1.236.375-2.253 1.117-3.06l-.22-.203c-.8.87-1.196 1.96-1.196 3.263h.3Zm1.118-3.061c.74-.817 1.686-1.226 2.847-1.226v-.3c-1.242 0-2.269.441-3.07 1.324l.223.202Zm2.847-1.226c1.2 0 2.137.389 2.83 1.157l.222-.2c-.758-.841-1.781-1.257-3.052-1.257v.3Zm2.83 1.16c.704.757 1.066 1.832 1.066 3.246h.3c0-1.464-.375-2.622-1.145-3.451l-.22.204Zm1.066 3.231-.016.17.298.03.017-.17-.299-.03Zm.133.035h-6.545v.3h6.545v-.3Zm-6.695.154c.023.85.308 1.547.862 2.076l.207-.216c-.489-.468-.748-1.086-.77-1.868l-.3.008Zm.862 2.076c.55.526 1.21.79 1.974.79v-.3a2.46 2.46 0 0 1-1.766-.706l-.208.216Zm1.974.79c1.06 0 1.888-.536 2.476-1.572l-.26-.148c-.546.959-1.282 1.42-2.216 1.42v.3Zm2.28-1.511 1.394.68.132-.27-1.395-.68-.131.27Zm1.327.474a3.987 3.987 0 0 1-1.508 1.591l.153.258a4.286 4.286 0 0 0 1.62-1.707l-.265-.142Zm-1.509 1.592c-.631.38-1.352.573-2.166.573v.3c.863 0 1.638-.204 2.321-.617l-.155-.256Zm-4.665-4.567h4.777v-.3h-4.777v.3Zm4.926-.162a2.18 2.18 0 0 0-.765-1.53l-.197.227c.4.348.62.787.663 1.327l.3-.024Zm-.762-1.526c-.453-.417-1.06-.618-1.801-.618v.3c.686 0 1.213.185 1.598.538l.203-.22Zm-1.801-.618a2.45 2.45 0 0 0-1.627.58l.193.229a2.15 2.15 0 0 1 1.434-.509v-.3Zm-1.628.58c-.447.387-.74.904-.882 1.543l.293.066c.13-.585.393-1.043.785-1.381l-.196-.228Zm12.709 1.814v-.15h-.15v.15h.15Zm0 4.93v.15h.15V31h-.15Zm-1.564 0h-.15v.15h.15V31Zm0-12.172v-.15h-.15v.15h.15Zm6.834 1.054-.103.108.001.001.102-.109Zm0 5.151-.101-.11-.002.001.103.109Zm-5.27-4.709v-.15h-.15v.15h.15Zm0 4.25h-.15v.15h.15v-.15Zm4.165-.629-.106-.106-.001.001.107.105Zm0-2.975-.109.103.003.003.106-.106Zm-4.315 5.1V31h.3v-4.93h-.3Zm.15 4.78h-1.564v.3h1.564v-.3Zm-1.414.15V18.828h-.3V31h.3Zm-.15-12.022h4.148v-.3h-4.148v.3Zm4.148 0c1.017 0 1.875.337 2.583 1.012l.207-.216c-.766-.73-1.699-1.096-2.79-1.096v.3Zm2.584 1.013c.718.675 1.074 1.492 1.074 2.458h.3c0-1.05-.391-1.946-1.169-2.676l-.205.218Zm1.074 2.458c0 .99-.357 1.811-1.073 2.474l.203.22c.779-.72 1.17-1.621 1.17-2.694h-.3Zm-1.075 2.475c-.696.663-1.553.996-2.583.996v.3c1.102 0 2.035-.359 2.79-1.078l-.207-.218Zm-2.583.996h-2.584v.3h2.584v-.3Zm-2.734-5.596v4.25h.3v-4.25h-.3Zm.15 4.4h2.618v-.3h-2.618v.3Zm2.618 0c.661 0 1.217-.224 1.655-.674l-.215-.21c-.378.389-.854.584-1.44.584v.3Zm1.653-.673c.447-.447.673-.983.673-1.602h-.3c0 .537-.193.998-.585 1.39l.212.212Zm.673-1.602c0-.609-.227-1.14-.673-1.585l-.212.212c.393.393.585.848.585 1.373h.3Zm-.67-1.582c-.438-.462-.993-.693-1.656-.693v.3c.585 0 1.06.2 1.438.6l.218-.207Zm-1.656-.693h-2.618v.3h2.618v-.3Zm6.789-1.346h.15v-.15h-.15v.15Zm0 12.172v.15h.15V31h-.15Zm-1.564 0h-.15v.15h.15V31Zm0-12.172v-.15h-.15v.15h.15Zm1.414 0V31h.3V18.828h-.3Zm.15 12.022h-1.564v.3h1.564v-.3Zm-1.414.15V18.828h-.3V31h.3Zm-.15-12.022h1.564v-.3h-1.564v.3Zm5.036 10.492-.094.117.002.002.092-.119Zm2.975-.323-.103-.11-.001.002.104.108Zm.782-1.717h.15v-.073l-.057-.045-.093.118Zm-3.638-.119-.087-.122h-.002l.089.122Zm4.131-3.978-.102.11h.001l.101-.11ZM119.508 31v.15h.15V31h-.15Zm-1.496 0h-.15v.15h.15V31Zm0-1.156h.15v-.15h-.15v.15Zm-.068 0v-.15h-.08l-.044.066.124.084Zm-4.896.612-.1.112.001.001.099-.113Zm.051-4.097-.092-.119-.001.001.093.118Zm4.913-.255-.074.13.224.127v-.257h-.15Zm-.646-1.734-.1.112.001.001.099-.113Zm-3.587.527-.08.127.121.076.082-.118-.123-.085Zm-1.377-.867-.123-.086-.09.13.133.083.08-.127Zm1.193 4.42c0 .457.193.839.566 1.137l.188-.234c-.308-.246-.454-.544-.454-.903h-.3Zm.568 1.139c.379.293.82.439 1.316.439v-.3a1.79 1.79 0 0 1-1.132-.377l-.184.238Zm1.316.439c.699 0 1.319-.26 1.854-.773l-.207-.216c-.484.462-1.031.689-1.647.689v.3Zm1.853-.771c.549-.513.83-1.124.83-1.827h-.3c0 .612-.241 1.146-.735 1.607l.205.22Zm.773-1.945c-.523-.413-1.24-.61-2.133-.61v.3c.852 0 1.495.188 1.947.546l.186-.236Zm-2.133-.61c-.66 0-1.224.16-1.685.487l.174.244c.4-.284.901-.431 1.511-.431v-.3Zm-1.687.488c-.451.33-.69.751-.69 1.26h.3c0-.398.18-.735.567-1.018l-.177-.242Zm1.483-4.642c1.128 0 2 .304 2.635.895l.204-.22c-.703-.655-1.656-.975-2.839-.975v.3Zm2.636.896c.631.578.954 1.379.954 2.422h.3c0-1.11-.346-1.998-1.052-2.644l-.202.222Zm.954 2.422V31h.3v-5.134h-.3Zm.15 4.984h-1.496v.3h1.496v-.3Zm-1.346.15v-1.156h-.3V31h.3Zm-.15-1.306h-.068v.3h.068v-.3Zm-.192.066c-.621.914-1.437 1.362-2.46 1.362v.3c1.13 0 2.036-.504 2.708-1.494l-.248-.168Zm-2.46 1.362c-.886 0-1.621-.262-2.214-.779l-.197.226c.654.57 1.461.853 2.411.853v-.3Zm-2.213-.778a2.466 2.466 0 0 1-.867-1.928h-.3c0 .859.324 1.58.968 2.152l.199-.224Zm-.867-1.928c0-.818.304-1.46.912-1.94l-.186-.235c-.684.54-1.026 1.27-1.026 2.175h.3Zm.911-1.939c.624-.484 1.461-.733 2.526-.733v-.3c-1.111 0-2.019.26-2.71.797l.184.236Zm2.526-.733c.912 0 1.649.167 2.221.49l.148-.26c-.63-.357-1.423-.53-2.369-.53v.3Zm2.445.36v-.357h-.3v.357h.3Zm0-.357c0-.59-.236-1.09-.698-1.49l-.197.226c.4.347.595.766.595 1.264h.3Zm-.696-1.489a2.346 2.346 0 0 0-1.613-.616v.3c.541 0 1.01.18 1.413.54l.2-.224Zm-1.613-.616c-.924 0-1.66.394-2.198 1.17l.247.17c.483-.697 1.129-1.04 1.951-1.04v-.3Zm-1.994 1.128-1.377-.867-.16.254 1.377.867.16-.254Zm-1.334-.654c.727-1.043 1.8-1.568 3.243-1.568v-.3c-1.527 0-2.698.563-3.489 1.696l.246.172Zm16.027-1.446.137.06.092-.21h-.229v.15Zm-5.219 12.002v.15h.098l.039-.09-.137-.06Zm-1.615 0-.136-.063-.099.213h.235v-.15Zm1.938-4.199.136.063.028-.062-.027-.061-.137.06Zm-3.434-7.803v-.15h-.23l.093.21.137-.06Zm1.7 0 .138-.058-.038-.092h-.1v.15Zm2.482 5.984-.139.058.039.092h.1v-.15Zm.034 0v.15h.101l.038-.094-.139-.056Zm2.414-5.984v-.15h-.101l-.038.094.139.056Zm1.562-.06-5.219 12.002.275.12 5.219-12.002-.275-.12Zm-5.081 11.912h-1.615v.3h1.615v-.3Zm-1.479.213 1.938-4.2-.272-.125-1.938 4.2.272.125Zm1.939-4.322-3.434-7.803-.274.12 3.434 7.803.274-.12Zm-3.571-7.593h1.7v-.3h-1.7v.3Zm1.561-.093 2.482 5.985.277-.116-2.482-5.983-.277.114Zm2.621 6.077h.034v-.3h-.034v.3Zm.173-.094 2.414-5.984-.278-.112-2.414 5.984.278.112Zm2.275-5.89h1.7v-.3h-1.7v.3Z" fill="#fff"/><defs><clipPath id="a"><path fill="#fff" transform="translate(8.001 8)" d="M0 0h24v24H0z"/></clipPath></defs></svg>
