<svg width="138" height="40" viewBox="0 0 138 40" fill="none" xmlns="http://www.w3.org/2000/svg">
<path d="M0.000976562 4C0.000976562 1.79086 1.79184 0 4.00098 0H133.001C135.21 0 137.001 1.79086 137.001 4V36C137.001 38.2091 135.21 40 133.001 40H4.00097C1.79183 40 0.000976562 38.2091 0.000976562 36V4Z" fill="#0E0E0E"/>
<g clip-path="url(#clip0_6128_148021)">
<path d="M13.3381 8.38396C12.4132 7.86481 11.3272 7.87681 10.4082 8.39147L21.1793 18.482L24.7977 14.8074L13.3381 8.38396Z" fill="white"/>
<path d="M9.32874 9.41742C9.06575 9.85405 8.91504 10.3537 8.91504 10.8834V29.1079C8.91504 29.6211 9.05245 30.1102 9.30067 30.5379L20.1323 19.538L9.32874 9.41742Z" fill="white"/>
<path d="M29.5969 17.4955L26.1454 15.5614L22.2669 19.4986L27.0201 23.9506L29.5984 22.5056C30.5262 21.9834 31.0818 21.0471 31.0818 19.9998C31.0803 18.9525 30.5262 18.0162 29.5969 17.4955Z" fill="white"/>
<path d="M21.2261 20.553L10.3649 31.5829C10.8362 31.856 11.3534 32 11.8735 32C12.3758 32 12.8811 31.871 13.3436 31.6114L25.6616 24.7078L21.2261 20.553Z" fill="white"/>
</g>
<path d="M46.8505 11.039C46.8505 11.939 46.5835 12.656 46.0495 13.19C45.4495 13.826 44.6605 14.144 43.6825 14.144C42.7465 14.144 41.9545 13.82 41.3065 13.172C40.6585 12.524 40.3345 11.726 40.3345 10.778C40.3345 9.83 40.6585 9.032 41.3065 8.384C41.9545 7.736 42.7465 7.412 43.6825 7.412C44.1565 7.412 44.6035 7.496 45.0235 7.664C45.4435 7.832 45.7885 8.069 46.0585 8.375L45.4645 8.969C45.2665 8.729 45.0085 8.543 44.6905 8.411C44.3785 8.273 44.0425 8.204 43.6825 8.204C42.9805 8.204 42.3865 8.447 41.9005 8.933C41.4205 9.425 41.1805 10.04 41.1805 10.778C41.1805 11.516 41.4205 12.131 41.9005 12.623C42.3865 13.109 42.9805 13.352 43.6825 13.352C44.3245 13.352 44.8585 13.172 45.2845 12.812C45.7105 12.452 45.9565 11.957 46.0225 11.327H43.6825V10.553H46.8055C46.8355 10.721 46.8505 10.883 46.8505 11.039ZM51.6185 7.556V8.348H48.6845V10.391H51.3305V11.165H48.6845V13.208H51.6185V14H47.8565V7.556H51.6185ZM54.9304 8.348V14H54.1024V8.348H52.3024V7.556H56.7304V8.348H54.9304ZM60.4003 14H59.5723V7.556H60.4003V14ZM63.8953 8.348V14H63.0673V8.348H61.2673V7.556H65.6953V8.348H63.8953ZM74.6704 10.778C74.6704 11.732 74.3524 12.53 73.7164 13.172C73.0744 13.82 72.2884 14.144 71.3584 14.144C70.4224 14.144 69.6364 13.82 69.0004 13.172C68.3644 12.53 68.0464 11.732 68.0464 10.778C68.0464 9.824 68.3644 9.026 69.0004 8.384C69.6364 7.736 70.4224 7.412 71.3584 7.412C72.2944 7.412 73.0804 7.739 73.7164 8.393C74.3524 9.035 74.6704 9.83 74.6704 10.778ZM68.8924 10.778C68.8924 11.522 69.1264 12.137 69.5944 12.623C70.0684 13.109 70.6564 13.352 71.3584 13.352C72.0604 13.352 72.6454 13.109 73.1134 12.623C73.5874 12.143 73.8244 11.528 73.8244 10.778C73.8244 10.028 73.5874 9.413 73.1134 8.933C72.6454 8.447 72.0604 8.204 71.3584 8.204C70.6564 8.204 70.0684 8.447 69.5944 8.933C69.1264 9.419 68.8924 10.034 68.8924 10.778ZM76.4755 14H75.6475V7.556H76.6555L79.7875 12.569H79.8235L79.7875 11.327V7.556H80.6155V14H79.7515L76.4755 8.744H76.4395L76.4755 9.986V14Z" fill="white"/>
<path d="M52.9385 25.407C52.9385 27.107 52.4341 28.4613 51.4255 29.47C50.2921 30.6713 48.8018 31.272 46.9545 31.272C45.1865 31.272 43.6905 30.66 42.4665 29.436C41.2425 28.212 40.6305 26.7047 40.6305 24.914C40.6305 23.1233 41.2425 21.616 42.4665 20.392C43.6905 19.168 45.1865 18.556 46.9545 18.556C47.8498 18.556 48.6941 18.7147 49.4875 19.032C50.2808 19.3493 50.9325 19.797 51.4425 20.375L50.3205 21.497C49.9465 21.0437 49.4591 20.6923 48.8585 20.443C48.2691 20.1823 47.6345 20.052 46.9545 20.052C45.6285 20.052 44.5065 20.511 43.5885 21.429C42.6818 22.3583 42.2285 23.52 42.2285 24.914C42.2285 26.308 42.6818 27.4697 43.5885 28.399C44.5065 29.317 45.6285 29.776 46.9545 29.776C48.1671 29.776 49.1758 29.436 49.9805 28.756C50.7851 28.076 51.2498 27.141 51.3745 25.951H46.9545V24.489H52.8535C52.9101 24.8063 52.9385 25.1123 52.9385 25.407ZM54.0077 26.835C54.0077 25.5543 54.4101 24.4947 55.2147 23.656C56.0307 22.8173 57.0564 22.398 58.2917 22.398C59.5271 22.398 60.5471 22.8173 61.3517 23.656C62.1677 24.4947 62.5757 25.5543 62.5757 26.835C62.5757 28.127 62.1677 29.1867 61.3517 30.014C60.5471 30.8527 59.5271 31.272 58.2917 31.272C57.0564 31.272 56.0307 30.8527 55.2147 30.014C54.4101 29.1753 54.0077 28.1157 54.0077 26.835ZM55.5717 26.835C55.5717 27.7303 55.8324 28.4557 56.3537 29.011C56.8751 29.5663 57.5211 29.844 58.2917 29.844C59.0624 29.844 59.7084 29.5663 60.2297 29.011C60.7511 28.4557 61.0117 27.7303 61.0117 26.835C61.0117 25.951 60.7511 25.2313 60.2297 24.676C59.6971 24.1093 59.0511 23.826 58.2917 23.826C57.5324 23.826 56.8864 24.1093 56.3537 24.676C55.8324 25.2313 55.5717 25.951 55.5717 26.835ZM63.5204 26.835C63.5204 25.5543 63.9228 24.4947 64.7274 23.656C65.5434 22.8173 66.5691 22.398 67.8044 22.398C69.0398 22.398 70.0598 22.8173 70.8644 23.656C71.6804 24.4947 72.0884 25.5543 72.0884 26.835C72.0884 28.127 71.6804 29.1867 70.8644 30.014C70.0598 30.8527 69.0398 31.272 67.8044 31.272C66.5691 31.272 65.5434 30.8527 64.7274 30.014C63.9228 29.1753 63.5204 28.1157 63.5204 26.835ZM65.0844 26.835C65.0844 27.7303 65.3451 28.4557 65.8664 29.011C66.3878 29.5663 67.0338 29.844 67.8044 29.844C68.5751 29.844 69.2211 29.5663 69.7424 29.011C70.2638 28.4557 70.5244 27.7303 70.5244 26.835C70.5244 25.951 70.2638 25.2313 69.7424 24.676C69.2098 24.1093 68.5638 23.826 67.8044 23.826C67.0451 23.826 66.3991 24.1093 65.8664 24.676C65.3451 25.2313 65.0844 25.951 65.0844 26.835ZM77.2491 29.844C78.0198 29.844 78.6488 29.5663 79.1361 29.011C79.6461 28.4557 79.9011 27.7303 79.9011 26.835C79.9011 25.9623 79.6461 25.2427 79.1361 24.676C78.6375 24.1093 78.0085 23.826 77.2491 23.826C76.5011 23.826 75.8721 24.1093 75.3621 24.676C74.8521 25.2427 74.5971 25.9623 74.5971 26.835C74.5971 27.719 74.8521 28.4387 75.3621 28.994C75.8721 29.5607 76.5011 29.844 77.2491 29.844ZM77.1981 34.944C76.7335 34.944 76.2971 34.8817 75.8891 34.757C75.4811 34.6437 75.1071 34.4793 74.7671 34.264C74.4385 34.0487 74.1551 33.7937 73.9171 33.499C73.6791 33.2043 73.4978 32.8757 73.3731 32.513L74.8521 31.901C75.0221 32.3883 75.3168 32.7793 75.7361 33.074C76.1555 33.3687 76.6428 33.516 77.1981 33.516C78.0481 33.516 78.7111 33.261 79.1871 32.751C79.6631 32.241 79.9011 31.5383 79.9011 30.643V29.844H79.8331C79.5385 30.286 79.1361 30.6373 78.6261 30.898C78.1275 31.1473 77.5835 31.272 76.9941 31.272C75.9061 31.272 74.9711 30.847 74.1891 29.997C73.4185 29.1243 73.0331 28.0703 73.0331 26.835C73.0331 25.5997 73.4185 24.5513 74.1891 23.69C74.9711 22.8287 75.9061 22.398 76.9941 22.398C77.5835 22.398 78.1275 22.5283 78.6261 22.789C79.1361 23.0383 79.5385 23.384 79.8331 23.826H79.9011V22.67H81.3971V30.643C81.3971 31.9803 81.0175 33.0287 80.2581 33.788C79.4875 34.5587 78.4675 34.944 77.1981 34.944ZM84.8681 18.828V31H83.3041V18.828H84.8681ZM90.4308 31.272C89.2068 31.272 88.1981 30.8527 87.4048 30.014C86.6114 29.1753 86.2148 28.1157 86.2148 26.835C86.2148 25.5657 86.6001 24.5117 87.3708 23.673C88.1414 22.823 89.1274 22.398 90.3288 22.398C91.5641 22.398 92.5444 22.8003 93.2698 23.605C94.0064 24.3983 94.3748 25.5147 94.3748 26.954L94.3578 27.124H87.8128C87.8354 27.94 88.1074 28.5973 88.6288 29.096C89.1501 29.5947 89.7734 29.844 90.4988 29.844C91.4961 29.844 92.2781 29.3453 92.8448 28.348L94.2388 29.028C93.8648 29.7307 93.3434 30.2803 92.6748 30.677C92.0174 31.0737 91.2694 31.272 90.4308 31.272ZM87.9318 25.832H92.7088C92.6634 25.254 92.4254 24.778 91.9948 24.404C91.5754 24.0187 91.0088 23.826 90.2948 23.826C89.7054 23.826 89.1954 24.0073 88.7648 24.37C88.3454 24.7327 88.0678 25.22 87.9318 25.832ZM101.376 26.07V31H99.8124V18.828H103.96C105.014 18.828 105.91 19.1793 106.646 19.882C107.394 20.5847 107.768 21.4403 107.768 22.449C107.768 23.4803 107.394 24.3417 106.646 25.033C105.921 25.7243 105.026 26.07 103.96 26.07H101.376ZM101.376 20.324V24.574H103.994C104.618 24.574 105.133 24.3643 105.541 23.945C105.961 23.5257 106.17 23.027 106.17 22.449C106.17 21.8823 105.961 21.3893 105.541 20.97C105.133 20.5393 104.618 20.324 103.994 20.324H101.376ZM110.783 18.828V31H109.219V18.828H110.783ZM113.745 28.45C113.745 28.858 113.915 29.198 114.255 29.47C114.606 29.742 115.014 29.878 115.479 29.878C116.136 29.878 116.72 29.6343 117.23 29.147C117.751 28.6597 118.012 28.0873 118.012 27.43C117.524 27.0447 116.844 26.852 115.972 26.852C115.337 26.852 114.804 27.005 114.374 27.311C113.954 27.617 113.745 27.9967 113.745 28.45ZM115.768 22.398C116.924 22.398 117.836 22.7097 118.505 23.333C119.173 23.945 119.508 24.7893 119.508 25.866V31H118.012V29.844H117.944C117.298 30.796 116.436 31.272 115.36 31.272C114.442 31.272 113.671 31 113.048 30.456C112.436 29.912 112.13 29.232 112.13 28.416C112.13 27.5547 112.453 26.869 113.099 26.359C113.756 25.849 114.629 25.594 115.717 25.594C116.646 25.594 117.411 25.764 118.012 26.104V25.747C118.012 25.203 117.796 24.744 117.366 24.37C116.935 23.9847 116.431 23.792 115.853 23.792C114.98 23.792 114.289 24.1603 113.779 24.897L112.402 24.03C113.161 22.942 114.283 22.398 115.768 22.398ZM128.552 22.67L123.333 34.672H121.718L123.656 30.473L120.222 22.67H121.922L124.404 28.654H124.438L126.852 22.67H128.552Z" fill="white"/>
<path d="M51.4255 29.47L51.3194 29.3639L51.3164 29.3671L51.4255 29.47ZM42.4665 29.436L42.5725 29.3299L42.4665 29.436ZM42.4665 20.392L42.5725 20.4981L42.4665 20.392ZM51.4425 20.375L51.5485 20.4811L51.6482 20.3814L51.5549 20.2758L51.4425 20.375ZM50.3205 21.497L50.2048 21.5925L50.3098 21.7198L50.4265 21.6031L50.3205 21.497ZM48.8585 20.443L48.7978 20.5802L48.801 20.5815L48.8585 20.443ZM43.5885 21.429L43.4824 21.3229L43.4811 21.3243L43.5885 21.429ZM43.5885 28.399L43.4811 28.5038L43.4824 28.5051L43.5885 28.399ZM49.9805 28.756L49.8836 28.6414L49.9805 28.756ZM51.3745 25.951L51.5236 25.9666L51.541 25.801H51.3745V25.951ZM46.9545 25.951H46.8045V26.101H46.9545V25.951ZM46.9545 24.489V24.339H46.8045V24.489H46.9545ZM52.8535 24.489L53.0011 24.4626L52.9791 24.339H52.8535V24.489ZM52.7885 25.407C52.7885 27.0754 52.2946 28.3887 51.3194 29.3639L51.5315 29.5761C52.5736 28.534 53.0885 27.1386 53.0885 25.407H52.7885ZM51.3164 29.3671C50.2149 30.5346 48.7659 31.122 46.9545 31.122V31.422C48.8377 31.422 50.3694 30.808 51.5346 29.5729L51.3164 29.3671ZM46.9545 31.122C45.2253 31.122 43.7677 30.5251 42.5725 29.3299L42.3604 29.5421C43.6132 30.7949 45.1476 31.422 46.9545 31.422V31.122ZM42.5725 29.3299C41.3777 28.1351 40.7805 26.6664 40.7805 24.914H40.4805C40.4805 26.7429 41.1072 28.2889 42.3604 29.5421L42.5725 29.3299ZM40.7805 24.914C40.7805 23.1616 41.3777 21.6929 42.5725 20.4981L42.3604 20.2859C41.1072 21.5391 40.4805 23.0851 40.4805 24.914H40.7805ZM42.5725 20.4981C43.7677 19.3029 45.2253 18.706 46.9545 18.706V18.406C45.1476 18.406 43.6132 19.0331 42.3604 20.2859L42.5725 20.4981ZM46.9545 18.706C47.8316 18.706 48.657 18.8614 49.4318 19.1713L49.5432 18.8927C48.7313 18.568 47.868 18.406 46.9545 18.406V18.706ZM49.4318 19.1713C50.2057 19.4808 50.8371 19.9157 51.33 20.4742L51.5549 20.2758C51.0278 19.6783 50.3559 19.2178 49.5432 18.8927L49.4318 19.1713ZM51.3364 20.2689L50.2144 21.3909L50.4265 21.6031L51.5485 20.4811L51.3364 20.2689ZM50.4362 21.4015C50.045 20.9274 49.5368 20.5622 48.916 20.3045L48.801 20.5815C49.3815 20.8225 49.848 21.16 50.2048 21.5925L50.4362 21.4015ZM48.9191 20.3058C48.3096 20.0362 47.6542 19.902 46.9545 19.902V20.202C47.6147 20.202 48.2286 20.3284 48.7978 20.5802L48.9191 20.3058ZM46.9545 19.902C45.5896 19.902 44.4292 20.3761 43.4824 21.3229L43.6945 21.5351C44.5837 20.6459 45.6673 20.202 46.9545 20.202V19.902ZM43.4811 21.3243C42.545 22.2838 42.0785 23.484 42.0785 24.914H42.3785C42.3785 23.556 42.8186 22.4329 43.6958 21.5337L43.4811 21.3243ZM42.0785 24.914C42.0785 26.344 42.545 27.5442 43.4811 28.5037L43.6958 28.2943C42.8186 27.3951 42.3785 26.272 42.3785 24.914H42.0785ZM43.4824 28.5051C44.4292 29.4519 45.5896 29.926 46.9545 29.926V29.626C45.6673 29.626 44.5837 29.1821 43.6945 28.2929L43.4824 28.5051ZM46.9545 29.926C48.1969 29.926 49.2415 29.5769 50.0773 28.8706L49.8836 28.6414C49.1101 29.2951 48.1374 29.626 46.9545 29.626V29.926ZM50.0773 28.8706C50.9156 28.1621 51.3955 27.1895 51.5236 25.9666L51.2253 25.9354C51.1041 27.0925 50.6547 27.9899 49.8836 28.6414L50.0773 28.8706ZM51.3745 25.801H46.9545V26.101H51.3745V25.801ZM47.1045 25.951V24.489H46.8045V25.951H47.1045ZM46.9545 24.639H52.8535V24.339H46.9545V24.639ZM52.7058 24.5154C52.7611 24.8248 52.7885 25.122 52.7885 25.407H53.0885C53.0885 25.1027 53.0592 24.7879 53.0011 24.4626L52.7058 24.5154ZM55.2147 23.656L55.1072 23.5514L55.1065 23.5522L55.2147 23.656ZM61.3517 23.656L61.2435 23.7599L61.2442 23.7606L61.3517 23.656ZM61.3517 30.014L61.2449 29.9087L61.2435 29.9102L61.3517 30.014ZM55.2147 30.014L55.1065 30.1179L55.1072 30.1186L55.2147 30.014ZM60.2297 24.676L60.3391 24.5733L60.339 24.5733L60.2297 24.676ZM56.3537 24.676L56.2444 24.5733L56.2444 24.5733L56.3537 24.676ZM54.1577 26.835C54.1577 25.5887 54.5479 24.5676 55.323 23.7598L55.1065 23.5522C54.2722 24.4217 53.8577 25.5199 53.8577 26.835H54.1577ZM55.3222 23.7606C56.1083 22.9527 57.0944 22.548 58.2917 22.548V22.248C57.0184 22.248 55.9532 22.6819 55.1072 23.5514L55.3222 23.7606ZM58.2917 22.548C59.4891 22.548 60.469 22.9527 61.2435 23.7598L61.46 23.5522C60.6251 22.682 59.5651 22.248 58.2917 22.248V22.548ZM61.2442 23.7606C62.0303 24.5685 62.4257 25.5894 62.4257 26.835H62.7257C62.7257 25.5193 62.3052 24.4208 61.4592 23.5514L61.2442 23.7606ZM62.4257 26.835C62.4257 28.0924 62.0301 29.1127 61.2449 29.9087L61.4585 30.1193C62.3054 29.2607 62.7257 28.1616 62.7257 26.835H62.4257ZM61.2435 29.9102C60.469 30.7173 59.4891 31.122 58.2917 31.122V31.422C59.5651 31.422 60.6251 30.988 61.46 30.1178L61.2435 29.9102ZM58.2917 31.122C57.0944 31.122 56.1083 30.7173 55.3222 29.9094L55.1072 30.1186C55.9532 30.9881 57.0184 31.422 58.2917 31.422V31.122ZM55.323 29.9102C54.5479 29.1024 54.1577 28.0813 54.1577 26.835H53.8577C53.8577 28.1501 54.2722 29.2483 55.1065 30.1178L55.323 29.9102ZM55.4217 26.835C55.4217 27.7613 55.6924 28.5257 56.2444 29.1137L56.4631 28.9083C55.9724 28.3856 55.7217 27.6993 55.7217 26.835H55.4217ZM56.2444 29.1137C56.7944 29.6996 57.4802 29.994 58.2917 29.994V29.694C57.5619 29.694 56.9557 29.4331 56.4631 28.9083L56.2444 29.1137ZM58.2917 29.994C59.1033 29.994 59.789 29.6996 60.3391 29.1137L60.1204 28.9083C59.6278 29.4331 59.0215 29.694 58.2917 29.694V29.994ZM60.3391 29.1137C60.891 28.5257 61.1617 27.7613 61.1617 26.835H60.8617C60.8617 27.6993 60.6111 28.3856 60.1204 28.9083L60.3391 29.1137ZM61.1617 26.835C61.1617 25.9194 60.8907 25.1609 60.3391 24.5733L60.1204 24.7787C60.6114 25.3017 60.8617 25.9826 60.8617 26.835H61.1617ZM60.339 24.5733C59.7788 23.9773 59.0936 23.676 58.2917 23.676V23.976C59.0086 23.976 59.6154 24.2414 60.1204 24.7787L60.339 24.5733ZM58.2917 23.676C57.4899 23.676 56.8047 23.9773 56.2444 24.5733L56.463 24.7787C56.9681 24.2414 57.5749 23.976 58.2917 23.976V23.676ZM56.2444 24.5733C55.6928 25.1609 55.4217 25.9194 55.4217 26.835H55.7217C55.7217 25.9826 55.972 25.3017 56.4631 24.7787L56.2444 24.5733ZM64.7274 23.656L64.6199 23.5514L64.6192 23.5522L64.7274 23.656ZM70.8644 23.656L70.7562 23.7599L70.7569 23.7606L70.8644 23.656ZM70.8644 30.014L70.7576 29.9087L70.7562 29.9102L70.8644 30.014ZM64.7274 30.014L64.6192 30.1179L64.6199 30.1186L64.7274 30.014ZM69.7424 24.676L69.8518 24.5733L69.8517 24.5733L69.7424 24.676ZM65.8664 24.676L65.7571 24.5733L65.7571 24.5733L65.8664 24.676ZM63.6704 26.835C63.6704 25.5887 64.0606 24.5676 64.8357 23.7598L64.6192 23.5522C63.7849 24.4217 63.3704 25.5199 63.3704 26.835H63.6704ZM64.8349 23.7606C65.621 22.9527 66.6071 22.548 67.8044 22.548V22.248C66.5311 22.248 65.4659 22.6819 64.6199 23.5514L64.8349 23.7606ZM67.8044 22.548C69.0018 22.548 69.9817 22.9527 70.7562 23.7598L70.9727 23.5522C70.1378 22.682 69.0778 22.248 67.8044 22.248V22.548ZM70.7569 23.7606C71.543 24.5685 71.9384 25.5894 71.9384 26.835H72.2384C72.2384 25.5193 71.8179 24.4208 70.9719 23.5514L70.7569 23.7606ZM71.9384 26.835C71.9384 28.0924 71.5427 29.1127 70.7576 29.9087L70.9712 30.1193C71.8181 29.2607 72.2384 28.1616 72.2384 26.835H71.9384ZM70.7562 29.9102C69.9817 30.7173 69.0018 31.122 67.8044 31.122V31.422C69.0778 31.422 70.1378 30.988 70.9727 30.1178L70.7562 29.9102ZM67.8044 31.122C66.6071 31.122 65.621 30.7173 64.8349 29.9094L64.6199 30.1186C65.4659 30.9881 66.5311 31.422 67.8044 31.422V31.122ZM64.8357 29.9102C64.0606 29.1024 63.6704 28.0813 63.6704 26.835H63.3704C63.3704 28.1501 63.7849 29.2483 64.6192 30.1178L64.8357 29.9102ZM64.9344 26.835C64.9344 27.7613 65.2051 28.5257 65.7571 29.1137L65.9758 28.9083C65.4851 28.3856 65.2344 27.6993 65.2344 26.835H64.9344ZM65.7571 29.1137C66.3071 29.6996 66.9929 29.994 67.8044 29.994V29.694C67.0746 29.694 66.4684 29.4331 65.9758 28.9083L65.7571 29.1137ZM67.8044 29.994C68.616 29.994 69.3017 29.6996 69.8518 29.1137L69.6331 28.9083C69.1405 29.4331 68.5342 29.694 67.8044 29.694V29.994ZM69.8518 29.1137C70.4037 28.5257 70.6744 27.7613 70.6744 26.835H70.3744C70.3744 27.6993 70.1238 28.3856 69.6331 28.9083L69.8518 29.1137ZM70.6744 26.835C70.6744 25.9194 70.4034 25.1609 69.8518 24.5733L69.6331 24.7787C70.1241 25.3017 70.3744 25.9826 70.3744 26.835H70.6744ZM69.8517 24.5733C69.2915 23.9773 68.6063 23.676 67.8044 23.676V23.976C68.5213 23.976 69.128 24.2414 69.6331 24.7787L69.8517 24.5733ZM67.8044 23.676C67.0026 23.676 66.3174 23.9773 65.7571 24.5733L65.9757 24.7787C66.4808 24.2414 67.0876 23.976 67.8044 23.976V23.676ZM65.7571 24.5733C65.2055 25.1609 64.9344 25.9194 64.9344 26.835H65.2344C65.2344 25.9826 65.4847 25.3017 65.9758 24.7787L65.7571 24.5733ZM79.1361 29.011L79.0256 28.9095L79.0234 28.9121L79.1361 29.011ZM79.1361 24.676L79.0235 24.7751L79.0246 24.7763L79.1361 24.676ZM75.3621 24.676L75.4736 24.7763L75.3621 24.676ZM75.3621 28.994L75.4736 28.8937L75.4726 28.8925L75.3621 28.994ZM75.8891 34.757L75.933 34.6135L75.9293 34.6125L75.8891 34.757ZM74.7671 34.264L74.6849 34.3895L74.6869 34.3907L74.7671 34.264ZM73.9171 33.499L74.0338 33.4047L73.9171 33.499ZM73.3731 32.513L73.3158 32.3744L73.1854 32.4283L73.2313 32.5618L73.3731 32.513ZM74.8521 31.901L74.9938 31.8516L74.9415 31.7017L74.7948 31.7624L74.8521 31.901ZM75.7361 33.074L75.6499 33.1967L75.7361 33.074ZM79.1871 32.751L79.2968 32.8533L79.1871 32.751ZM79.9011 29.844H80.0511V29.694H79.9011V29.844ZM79.8331 29.844V29.694H79.7529L79.7083 29.7608L79.8331 29.844ZM78.6261 30.898L78.6932 31.0322L78.6944 31.0316L78.6261 30.898ZM74.1891 29.997L74.0767 30.0963L74.0787 30.0986L74.1891 29.997ZM74.1891 23.69L74.0781 23.5892L74.0773 23.59L74.1891 23.69ZM78.6261 22.789L78.5566 22.922L78.5602 22.9238L78.6261 22.789ZM79.8331 23.826L79.7083 23.9092L79.7529 23.976H79.8331V23.826ZM79.9011 23.826V23.976H80.0511V23.826H79.9011ZM79.9011 22.67V22.52H79.7511V22.67H79.9011ZM81.3971 22.67H81.5471V22.52H81.3971V22.67ZM80.2581 33.788L80.1521 33.6819L80.2581 33.788ZM77.2491 29.994C78.0609 29.994 78.7317 29.6993 79.2489 29.1099L79.0234 28.9121C78.5659 29.4334 77.9787 29.694 77.2491 29.694V29.994ZM79.2466 29.1125C79.7867 28.5244 80.0511 27.7604 80.0511 26.835H79.7511C79.7511 27.7002 79.5056 28.3869 79.0257 28.9095L79.2466 29.1125ZM80.0511 26.835C80.0511 25.931 79.786 25.1738 79.2476 24.5757L79.0246 24.7763C79.5063 25.3115 79.7511 25.9937 79.7511 26.835H80.0511ZM79.2487 24.5769C78.7214 23.9777 78.0513 23.676 77.2491 23.676V23.976C77.9657 23.976 78.5535 24.241 79.0235 24.7751L79.2487 24.5769ZM77.2491 23.676C76.4577 23.676 75.7885 23.9781 75.2506 24.5757L75.4736 24.7763C75.9558 24.2406 76.5446 23.976 77.2491 23.976V23.676ZM75.2506 24.5757C74.7123 25.1738 74.4471 25.931 74.4471 26.835H74.7471C74.7471 25.9937 74.992 25.3115 75.4736 24.7763L75.2506 24.5757ZM74.4471 26.835C74.4471 27.7497 74.7119 28.5078 75.2516 29.0955L75.4726 28.8925C74.9923 28.3696 74.7471 27.6883 74.7471 26.835H74.4471ZM75.2506 29.0943C75.7885 29.6919 76.4577 29.994 77.2491 29.994V29.694C76.5446 29.694 75.9558 29.4294 75.4736 28.8937L75.2506 29.0943ZM77.1981 34.794C76.747 34.794 76.3256 34.7335 75.933 34.6135L75.8453 34.9005C76.2687 35.0298 76.7199 35.094 77.1981 35.094V34.794ZM75.9293 34.6125C75.5347 34.5029 75.1743 34.3443 74.8474 34.1373L74.6869 34.3907C75.0399 34.6143 75.4276 34.7845 75.849 34.9015L75.9293 34.6125ZM74.8493 34.1385C74.5332 33.9314 74.2617 33.6868 74.0338 33.4047L73.8004 33.5933C74.0486 33.9005 74.3437 34.1659 74.6849 34.3895L74.8493 34.1385ZM74.0338 33.4047C73.8069 33.1238 73.634 32.8106 73.515 32.4642L73.2313 32.5618C73.3615 32.9407 73.5513 33.2848 73.8004 33.5933L74.0338 33.4047ZM73.4305 32.6516L74.9095 32.0396L74.7948 31.7624L73.3158 32.3744L73.4305 32.6516ZM74.7105 31.9504C74.8908 32.4671 75.2047 32.8839 75.6499 33.1967L75.8224 32.9513C75.4289 32.6748 75.1535 32.3095 74.9938 31.8516L74.7105 31.9504ZM75.6499 33.1967C76.0966 33.5106 76.6146 33.666 77.1981 33.666V33.366C76.671 33.366 76.2143 33.2267 75.8224 32.9513L75.6499 33.1967ZM77.1981 33.666C78.0799 33.666 78.7864 33.4002 79.2968 32.8533L79.0775 32.6487C78.6359 33.1218 78.0163 33.366 77.1981 33.366V33.666ZM79.2968 32.8533C79.8054 32.3084 80.0511 31.5652 80.0511 30.643H79.7511C79.7511 31.5115 79.5208 32.1736 79.0775 32.6487L79.2968 32.8533ZM80.0511 30.643V29.844H79.7511V30.643H80.0511ZM79.9011 29.694H79.8331V29.994H79.9011V29.694ZM79.7083 29.7608C79.429 30.1798 79.0469 30.5145 78.5579 30.7644L78.6944 31.0316C79.2254 30.7602 79.6479 30.3922 79.9579 29.9272L79.7083 29.7608ZM78.559 30.7638C78.0824 31.0022 77.5615 31.122 76.9941 31.122V31.422C77.6054 31.422 78.1725 31.2925 78.6932 31.0322L78.559 30.7638ZM76.9941 31.122C75.9509 31.122 75.0551 30.7167 74.2995 29.8954L74.0787 30.0986C74.8872 30.9773 75.8614 31.422 76.9941 31.422V31.122ZM74.3016 29.8977C73.5567 29.0542 73.1831 28.0362 73.1831 26.835H72.8831C72.8831 28.1045 73.2803 29.1944 74.0767 30.0963L74.3016 29.8977ZM73.1831 26.835C73.1831 25.6338 73.5566 24.6219 74.3009 23.79L74.0773 23.59C73.2803 24.4808 72.8831 25.5655 72.8831 26.835H73.1831ZM74.3002 23.7908C75.056 22.9584 75.9516 22.548 76.9941 22.548V22.248C75.8606 22.248 74.8863 22.699 74.0781 23.5892L74.3002 23.7908ZM76.9941 22.548C77.5604 22.548 78.0804 22.673 78.5566 22.9219L78.6956 22.6561C78.1745 22.3837 77.6065 22.248 76.9941 22.248V22.548ZM78.5602 22.9238C79.0481 23.1623 79.4294 23.4908 79.7083 23.9092L79.9579 23.7428C79.6475 23.2772 79.2242 22.9144 78.692 22.6542L78.5602 22.9238ZM79.8331 23.976H79.9011V23.676H79.8331V23.976ZM80.0511 23.826V22.67H79.7511V23.826H80.0511ZM79.9011 22.82H81.3971V22.52H79.9011V22.82ZM81.2471 22.67V30.643H81.5471V22.67H81.2471ZM81.2471 30.643C81.2471 31.9509 80.8767 32.9573 80.1521 33.6819L80.3642 33.8941C81.1582 33.1001 81.5471 32.0098 81.5471 30.643H81.2471ZM80.1521 33.6819C79.4142 34.4198 78.4348 34.794 77.1981 34.794V35.094C78.5002 35.094 79.5608 34.6975 80.3642 33.8941L80.1521 33.6819ZM84.868 18.828H85.0181V18.678H84.868V18.828ZM84.868 31V31.15H85.0181V31H84.868ZM83.3041 31H83.154V31.15H83.3041V31ZM83.3041 18.828V18.678H83.154V18.828H83.3041ZM84.7181 18.828V31H85.0181V18.828H84.7181ZM84.868 30.85H83.3041V31.15H84.868V30.85ZM83.4541 31V18.828H83.154V31H83.4541ZM83.3041 18.978H84.868V18.678H83.3041V18.978ZM87.4048 30.014L87.5137 29.9109L87.4048 30.014ZM87.3708 23.673L87.4812 23.7745L87.4819 23.7738L87.3708 23.673ZM93.2698 23.605L93.1583 23.7054L93.1599 23.7071L93.2698 23.605ZM94.3748 26.954L94.524 26.9689L94.5248 26.9615V26.954H94.3748ZM94.3578 27.124V27.274H94.4935L94.507 27.1389L94.3578 27.124ZM87.8128 27.124V26.974H87.6585L87.6628 27.1282L87.8128 27.124ZM88.6288 29.096L88.5251 29.2044L88.6288 29.096ZM92.8448 28.348L92.9105 28.2132L92.7839 28.1514L92.7144 28.2739L92.8448 28.348ZM94.2388 29.028L94.3712 29.0985L94.4442 28.9613L94.3045 28.8932L94.2388 29.028ZM92.6748 30.677L92.5982 30.548L92.5973 30.5486L92.6748 30.677ZM87.9318 25.832L87.7853 25.7995L87.7448 25.982H87.9318V25.832ZM92.7088 25.832V25.982H92.871L92.8583 25.8203L92.7088 25.832ZM91.9948 24.404L91.8932 24.5145L91.8964 24.5173L91.9948 24.404ZM88.7648 24.37L88.6681 24.2553L88.6666 24.2565L88.7648 24.37ZM90.4308 31.122C89.2452 31.122 88.2769 30.7177 87.5137 29.9109L87.2958 30.1171C88.1193 30.9877 89.1683 31.422 90.4308 31.422V31.122ZM87.5137 29.9109C86.7497 29.1032 86.3648 28.0819 86.3648 26.835H86.0648C86.0648 28.1495 86.4731 29.2474 87.2958 30.1171L87.5137 29.9109ZM86.3648 26.835C86.3648 25.5986 86.739 24.5822 87.4812 23.7745L87.2603 23.5715C86.4612 24.4411 86.0648 25.5327 86.0648 26.835H86.3648ZM87.4819 23.7738C88.2226 22.9567 89.1675 22.548 90.3288 22.548V22.248C89.0874 22.248 88.0602 22.6893 87.2596 23.5722L87.4819 23.7738ZM90.3288 22.548C91.5282 22.548 92.4656 22.9369 93.1584 23.7054L93.3812 23.5046C92.6233 22.6638 91.6 22.248 90.3288 22.248V22.548ZM93.1599 23.7071C93.8632 24.4645 94.2248 25.5398 94.2248 26.954H94.5248C94.5248 25.4896 94.1497 24.3321 93.3797 23.5029L93.1599 23.7071ZM94.2255 26.9391L94.2085 27.1091L94.507 27.1389L94.524 26.9689L94.2255 26.9391ZM94.3578 26.974H87.8128V27.274H94.3578V26.974ZM87.6628 27.1282C87.6864 27.978 87.9714 28.6748 88.5251 29.2044L88.7325 28.9876C88.2435 28.5199 87.9844 27.902 87.9627 27.1198L87.6628 27.1282ZM88.5251 29.2044C89.0745 29.7299 89.735 29.994 90.4988 29.994V29.694C89.8118 29.694 89.2257 29.4594 88.7325 28.9876L88.5251 29.2044ZM90.4988 29.994C91.5591 29.994 92.3867 29.4579 92.9752 28.4221L92.7144 28.2739C92.1695 29.2328 91.4331 29.694 90.4988 29.694V29.994ZM92.779 28.4828L94.173 29.1628L94.3045 28.8932L92.9105 28.2132L92.779 28.4828ZM94.1064 28.9575C93.7449 29.6365 93.2427 30.1657 92.5982 30.548L92.7513 30.806C93.4442 30.395 93.9846 29.8248 94.3712 29.0985L94.1064 28.9575ZM92.5973 30.5486C91.9655 30.9298 91.2447 31.122 90.4308 31.122V31.422C91.2941 31.422 92.0694 31.2175 92.7523 30.8054L92.5973 30.5486ZM87.9318 25.982H92.7088V25.682H87.9318V25.982ZM92.8583 25.8203C92.81 25.2037 92.5541 24.691 92.0931 24.2907L91.8964 24.5173C92.2968 24.865 92.5169 25.3043 92.5592 25.8437L92.8583 25.8203ZM92.0963 24.2936C91.6427 23.8768 91.0364 23.676 90.2948 23.676V23.976C90.9811 23.976 91.5082 24.1606 91.8933 24.5144L92.0963 24.2936ZM90.2948 23.676C89.6719 23.676 89.1272 23.8687 88.6681 24.2553L88.8614 24.4847C89.2637 24.146 89.739 23.976 90.2948 23.976V23.676ZM88.6666 24.2565C88.2198 24.643 87.9274 25.1603 87.7853 25.7995L88.0782 25.8645C88.2082 25.2797 88.4711 24.8223 88.8629 24.4835L88.6666 24.2565ZM101.376 26.07V25.92H101.226V26.07H101.376ZM101.376 31V31.15H101.526V31H101.376ZM99.8124 31H99.6624V31.15H99.8124V31ZM99.8124 18.828V18.678H99.6624V18.828H99.8124ZM106.646 19.882L106.543 19.9905L106.544 19.9913L106.646 19.882ZM106.646 25.033L106.545 24.9228L106.543 24.9244L106.646 25.033ZM101.376 20.324V20.174H101.226V20.324H101.376ZM101.376 24.574H101.226V24.724H101.376V24.574ZM105.541 23.945L105.435 23.8389L105.434 23.8404L105.541 23.945ZM105.541 20.97L105.432 21.0732L105.435 21.0761L105.541 20.97ZM101.226 26.07V31H101.526V26.07H101.226ZM101.376 30.85H99.8124V31.15H101.376V30.85ZM99.9624 31V18.828H99.6624V31H99.9624ZM99.8124 18.978H103.96V18.678H99.8124V18.978ZM103.96 18.978C104.977 18.978 105.835 19.3155 106.543 19.9905L106.75 19.7735C105.984 19.0432 105.051 18.678 103.96 18.678V18.978ZM106.544 19.9913C107.262 20.6662 107.618 21.4826 107.618 22.449H107.918C107.918 21.3981 107.527 20.5031 106.749 19.7727L106.544 19.9913ZM107.618 22.449C107.618 23.4391 107.261 24.2603 106.545 24.9228L106.748 25.1432C107.527 24.423 107.918 23.5216 107.918 22.449H107.618ZM106.543 24.9244C105.847 25.5874 104.99 25.92 103.96 25.92V26.22C105.062 26.22 105.995 25.8613 106.75 25.1416L106.543 24.9244ZM103.96 25.92H101.376V26.22H103.96V25.92ZM101.226 20.324V24.574H101.526V20.324H101.226ZM101.376 24.724H103.994V24.424H101.376V24.724ZM103.994 24.724C104.655 24.724 105.211 24.5 105.649 24.0496L105.434 23.8404C105.056 24.2287 104.58 24.424 103.994 24.424V24.724ZM105.647 24.0511C106.094 23.6044 106.32 23.0679 106.32 22.449H106.02C106.02 22.9861 105.827 23.4469 105.435 23.8389L105.647 24.0511ZM106.32 22.449C106.32 21.8405 106.093 21.3099 105.647 20.8639L105.435 21.0761C105.828 21.4687 106.02 21.9241 106.02 22.449H106.32ZM105.65 20.8668C105.212 20.4046 104.657 20.174 103.994 20.174V20.474C104.579 20.474 105.054 20.6741 105.432 21.0732L105.65 20.8668ZM103.994 20.174H101.376V20.474H103.994V20.174ZM110.783 18.828H110.933V18.678H110.783V18.828ZM110.783 31V31.15H110.933V31H110.783ZM109.219 31H109.069V31.15H109.219V31ZM109.219 18.828V18.678H109.069V18.828H109.219ZM110.633 18.828V31H110.933V18.828H110.633ZM110.783 30.85H109.219V31.15H110.783V30.85ZM109.369 31V18.828H109.069V31H109.369ZM109.219 18.978H110.783V18.678H109.219V18.978ZM114.255 29.47L114.161 29.5871L114.163 29.5886L114.255 29.47ZM117.23 29.147L117.127 29.0374L117.126 29.0386L117.23 29.147ZM118.012 27.43H118.162V27.3574L118.105 27.3123L118.012 27.43ZM114.374 27.311L114.287 27.1887L114.285 27.1898L114.374 27.311ZM118.505 23.333L118.403 23.4427L118.404 23.4437L118.505 23.333ZM119.508 31V31.15H119.658V31H119.508ZM118.012 31H117.862V31.15H118.012V31ZM118.012 29.844H118.162V29.694H118.012V29.844ZM117.944 29.844V29.694H117.864L117.82 29.7598L117.944 29.844ZM113.048 30.456L112.948 30.5681L112.949 30.569L113.048 30.456ZM113.099 26.359L113.007 26.2405L113.006 26.2413L113.099 26.359ZM118.012 26.104L117.938 26.2345L118.162 26.3613V26.104H118.012ZM117.366 24.37L117.266 24.4818L117.267 24.4833L117.366 24.37ZM113.779 24.897L113.699 25.0239L113.82 25.1004L113.902 24.9824L113.779 24.897ZM112.402 24.03L112.279 23.9442L112.189 24.0731L112.322 24.1569L112.402 24.03ZM113.595 28.45C113.595 28.907 113.788 29.2889 114.161 29.5871L114.349 29.3529C114.041 29.1071 113.895 28.809 113.895 28.45H113.595ZM114.163 29.5886C114.542 29.8819 114.983 30.028 115.479 30.028V29.728C115.046 29.728 114.67 29.6021 114.347 29.3514L114.163 29.5886ZM115.479 30.028C116.178 30.028 116.798 29.7673 117.333 29.2554L117.126 29.0386C116.642 29.5014 116.095 29.728 115.479 29.728V30.028ZM117.332 29.2566C117.881 28.7436 118.162 28.1327 118.162 27.43H117.862C117.862 28.042 117.621 28.5757 117.127 29.0374L117.332 29.2566ZM118.105 27.3123C117.582 26.899 116.865 26.702 115.972 26.702V27.002C116.824 27.002 117.467 27.1903 117.919 27.5477L118.105 27.3123ZM115.972 26.702C115.312 26.702 114.748 26.8613 114.287 27.1887L114.461 27.4333C114.861 27.1487 115.362 27.002 115.972 27.002V26.702ZM114.285 27.1898C113.834 27.5194 113.595 27.9413 113.595 28.45H113.895C113.895 28.052 114.075 27.7146 114.462 27.4322L114.285 27.1898ZM115.768 22.548C116.896 22.548 117.768 22.8516 118.403 23.4427L118.607 23.2233C117.904 22.5677 116.951 22.248 115.768 22.248V22.548ZM118.404 23.4437C119.035 24.0219 119.358 24.8228 119.358 25.866H119.658C119.658 24.7559 119.312 23.8681 118.606 23.2223L118.404 23.4437ZM119.358 25.866V31H119.658V25.866H119.358ZM119.508 30.85H118.012V31.15H119.508V30.85ZM118.162 31V29.844H117.862V31H118.162ZM118.012 29.694H117.944V29.994H118.012V29.694ZM117.82 29.7598C117.199 30.674 116.383 31.122 115.36 31.122V31.422C116.49 31.422 117.396 30.918 118.068 29.9282L117.82 29.7598ZM115.36 31.122C114.474 31.122 113.739 30.8605 113.146 30.343L112.949 30.569C113.603 31.1395 114.41 31.422 115.36 31.422V31.122ZM113.147 30.3439C112.567 29.8282 112.28 29.189 112.28 28.416H111.98C111.98 29.275 112.304 29.9958 112.948 30.5681L113.147 30.3439ZM112.28 28.416C112.28 27.5981 112.584 26.9568 113.192 26.4767L113.006 26.2413C112.322 26.7812 111.98 27.5112 111.98 28.416H112.28ZM113.191 26.4775C113.815 25.9934 114.652 25.744 115.717 25.744V25.444C114.606 25.444 113.698 25.7046 113.007 26.2405L113.191 26.4775ZM115.717 25.744C116.629 25.744 117.366 25.911 117.938 26.2345L118.086 25.9735C117.456 25.617 116.663 25.444 115.717 25.444V25.744ZM118.162 26.104V25.747H117.862V26.104H118.162ZM118.162 25.747C118.162 25.1572 117.926 24.6577 117.464 24.2567L117.267 24.4833C117.667 24.8303 117.862 25.2488 117.862 25.747H118.162ZM117.466 24.2582C117.008 23.8483 116.468 23.642 115.853 23.642V23.942C116.394 23.942 116.863 24.1211 117.266 24.4818L117.466 24.2582ZM115.853 23.642C114.929 23.642 114.193 24.0358 113.655 24.8116L113.902 24.9824C114.385 24.2849 115.031 23.942 115.853 23.942V23.642ZM113.859 24.7701L112.482 23.9031L112.322 24.1569L113.699 25.0239L113.859 24.7701ZM112.525 24.1158C113.252 23.0733 114.325 22.548 115.768 22.548V22.248C114.241 22.248 113.07 22.8107 112.279 23.9442L112.525 24.1158ZM128.552 22.67L128.689 22.7298L128.781 22.52H128.552V22.67ZM123.333 34.672V34.822H123.431L123.47 34.7318L123.333 34.672ZM121.718 34.672L121.582 34.6091L121.483 34.822H121.718V34.672ZM123.656 30.473L123.792 30.5359L123.82 30.4745L123.793 30.4126L123.656 30.473ZM120.222 22.67V22.52H119.992L120.085 22.7304L120.222 22.67ZM121.922 22.67L122.06 22.6125L122.022 22.52H121.922V22.67ZM124.404 28.654L124.265 28.7115L124.304 28.804H124.404V28.654ZM124.438 28.654V28.804H124.539L124.577 28.7101L124.438 28.654ZM126.852 22.67V22.52H126.751L126.713 22.6139L126.852 22.67ZM128.414 22.6102L123.195 34.6122L123.47 34.7318L128.689 22.7298L128.414 22.6102ZM123.333 34.522H121.718V34.822H123.333V34.522ZM121.854 34.7349L123.792 30.5359L123.52 30.4101L121.582 34.6091L121.854 34.7349ZM123.793 30.4126L120.359 22.6096L120.085 22.7304L123.519 30.5334L123.793 30.4126ZM120.222 22.82H121.922V22.52H120.222V22.82ZM121.783 22.7275L124.265 28.7115L124.542 28.5965L122.06 22.6125L121.783 22.7275ZM124.404 28.804H124.438V28.504H124.404V28.804ZM124.577 28.7101L126.991 22.7261L126.713 22.6139L124.299 28.5979L124.577 28.7101ZM126.852 22.82H128.552V22.52H126.852V22.82Z" fill="white"/>
<defs>
<clipPath id="clip0_6128_148021">
<rect width="24.0004" height="24" fill="white" transform="translate(8.00098 8)"/>
</clipPath>
</defs>
</svg>
