<svg width="131" height="40" viewBox="0 0 131 40" fill="none" xmlns="http://www.w3.org/2000/svg">
<path d="M0.000732422 4C0.000732422 1.79086 1.79159 0 4.00073 0H127.001C129.21 0 131.001 1.79086 131.001 4V36C131.001 38.2091 129.21 40 127.001 40H4.00072C1.79159 40 0.000732422 38.2091 0.000732422 36V4Z" fill="#0E0E0E"/>
<path d="M28.5822 27.049C28.0322 26.603 28.2462 25.618 27.6752 25.132C28.2282 21.767 26.6782 18.801 24.8302 16.9C23.2792 15.305 23.7792 13.753 23.7792 12.41C23.7792 10.264 22.8982 8 20.2291 8C17.3761 8 16.5941 10.38 16.5661 11.738C16.4981 15 17.2251 15.848 15.316 18.222C13.07 21.015 12.739 23.801 13.246 25.279C13.009 25.555 12.689 25.861 12.091 26.114C10.439 26.834 11.65 28.039 11.193 28.894C11.063 29.137 11.001 29.391 11.001 29.634C11.001 30.384 11.597 31.033 12.68 30.936C14.141 30.806 15.489 31.841 16.3611 31.841C17.1311 31.841 17.7631 31.403 18.0571 30.8C19.4341 30.461 21.1341 30.504 22.5102 30.859C22.7572 31.55 23.4272 32 24.1722 32C25.8032 32 26.1172 30.151 27.9882 29.525C28.6622 29.3 29.0013 28.646 29.0013 28.037C29.0013 27.647 28.8623 27.276 28.5822 27.049ZM19.4351 16.584C19.1161 16.584 18.8521 16.326 18.4351 16.016C17.9071 15.624 17.3701 15.398 17.3761 14.986C17.3761 14.703 17.7551 14.616 18.2451 14.305C18.7711 13.972 18.9761 13.634 19.4941 13.634C20.0241 13.634 20.1841 13.902 20.9041 14.213C21.6121 14.52 22.1051 14.64 22.1051 14.986C22.1051 15.341 21.3641 15.595 20.9471 15.854C20.3341 16.232 20.0191 16.584 19.4351 16.584ZM21.1001 11.369C21.9821 11.51 22.0811 13.06 21.6591 13.823L21.3041 13.678C21.4881 13.135 21.4851 12.241 20.8691 12.184C20.4781 12.148 20.2261 12.664 20.1721 13.106C20.0191 13.042 19.8521 12.996 19.6491 12.979C19.7111 12.056 20.3071 11.242 21.1001 11.369ZM17.6971 11.7C18.3731 11.532 18.7721 12.318 18.7751 13.135L18.4651 13.325C18.4231 12.982 18.2701 12.428 17.8861 12.546C17.4751 12.674 17.5421 13.629 17.7711 13.825L17.4651 13.995C17.0451 13.288 17.0461 11.862 17.6971 11.7ZM15.582 30.943C13.619 30.05 12.952 30.253 12.577 30.253C11.8 30.253 11.546 29.674 11.838 29.126C12.086 28.661 12.009 28.174 11.948 27.783C11.854 27.184 11.837 26.989 12.426 26.731C13.241 26.385 13.603 25.94 13.873 25.607C14.631 24.67 15.396 26.144 16.0231 27.457C16.4301 28.308 17.2311 28.739 17.4781 29.682C17.7051 30.553 16.7681 31.483 15.582 30.943ZM22.5692 29.069C21.1851 29.742 19.4221 30.051 18.1031 29.368C17.9081 28.805 17.5961 28.441 17.2601 28.075C17.7991 27.933 18.1991 27.261 17.7201 26.586C17.2091 25.865 16.1651 25.362 15.11 24.546C14.123 23.783 13.811 21.902 15.155 19.8C14.5 21.662 14.883 23.378 15.212 23.869C15.28 22.881 15.358 21.231 16.7081 19.254C17.3891 18.256 17.3991 16.938 17.4141 16.114L18.0341 16.538C18.4901 16.875 18.8721 17.246 19.4201 17.246C20.2301 17.246 20.6781 16.78 21.3021 16.393C21.5461 16.243 21.9151 16.091 22.2251 15.88C22.7452 18.356 24.8992 21.334 25.0202 23.03C25.5212 21.998 24.8782 19.516 24.8782 19.516C25.7202 20.801 25.7872 21.872 25.8242 23.186C26.4132 23.427 27.0452 24.055 27.1032 24.882L26.8582 24.854C26.7322 23.935 24.2512 22.585 24.0282 24.315C22.8382 24.496 23.2712 26.381 23.0312 27.603C22.9212 28.162 22.7172 28.604 22.5692 29.069ZM27.4152 29.028C26.4302 29.408 25.7652 30.215 25.3082 30.716C24.4282 31.682 23.2642 31.219 23.1402 30.315C23.0092 29.349 23.5002 28.822 23.7122 27.741C23.9052 26.754 23.6892 25.235 24.1432 25.073C24.4382 26.826 26.2092 26.089 26.6132 25.611C27.2702 25.611 27.3252 25.833 27.4722 26.448C27.5642 26.833 27.6912 27.157 28.0502 27.538C28.4682 27.985 28.3402 28.671 27.4152 29.028ZM19.4151 16.022C18.7641 16.022 18.2771 15.589 17.8811 15.253C17.6781 15.082 17.9311 14.766 18.1341 14.938C18.5211 15.266 18.9111 15.613 19.4151 15.613C20.0221 15.613 20.5571 15.094 21.2821 14.808C21.5291 14.711 21.6701 15.093 21.4251 15.19C20.7211 15.467 20.1561 16.022 19.4151 16.022Z" fill="white"/>
<path d="M40.775 7.763H41.648V14H40.775V7.763ZM43.138 9.455C43.33 9.407 43.585 9.356 43.903 9.302C44.221 9.248 44.587 9.221 45.001 9.221C45.373 9.221 45.682 9.275 45.928 9.383C46.174 9.485 46.369 9.632 46.513 9.824C46.663 10.01 46.768 10.235 46.828 10.499C46.888 10.763 46.918 11.054 46.918 11.372V14H46.081V11.552C46.081 11.264 46.06 11.018 46.018 10.814C45.982 10.61 45.919 10.445 45.829 10.319C45.739 10.193 45.619 10.103 45.469 10.049C45.319 9.989 45.133 9.959 44.911 9.959C44.821 9.959 44.728 9.962 44.632 9.968C44.536 9.974 44.443 9.983 44.353 9.995C44.269 10.001 44.191 10.01 44.119 10.022C44.053 10.034 44.005 10.043 43.975 10.049V14H43.138V9.455ZM49.3949 13.397C49.7369 13.397 49.9889 13.352 50.1509 13.262C50.3189 13.172 50.4029 13.028 50.4029 12.83C50.4029 12.626 50.3219 12.464 50.1599 12.344C49.9979 12.224 49.7309 12.089 49.3589 11.939C49.1789 11.867 49.0049 11.795 48.8369 11.723C48.6749 11.645 48.5339 11.555 48.4139 11.453C48.2939 11.351 48.1979 11.228 48.1259 11.084C48.0539 10.94 48.0179 10.763 48.0179 10.553C48.0179 10.139 48.1709 9.812 48.4769 9.572C48.7829 9.326 49.1999 9.203 49.7279 9.203C49.8599 9.203 49.9919 9.212 50.1239 9.23C50.2559 9.242 50.3789 9.26 50.4929 9.284C50.6069 9.302 50.7059 9.323 50.7899 9.347C50.8799 9.371 50.9489 9.392 50.9969 9.41L50.8439 10.13C50.7539 10.082 50.6129 10.034 50.4209 9.986C50.2289 9.932 49.9979 9.905 49.7279 9.905C49.4939 9.905 49.2899 9.953 49.1159 10.049C48.9419 10.139 48.8549 10.283 48.8549 10.481C48.8549 10.583 48.8729 10.673 48.9089 10.751C48.9509 10.829 49.0109 10.901 49.0889 10.967C49.1729 11.027 49.2749 11.084 49.3949 11.138C49.5149 11.192 49.6589 11.249 49.8269 11.309C50.0489 11.393 50.2469 11.477 50.4209 11.561C50.5949 11.639 50.7419 11.732 50.8619 11.84C50.9879 11.948 51.0839 12.08 51.1499 12.236C51.2159 12.386 51.2489 12.572 51.2489 12.794C51.2489 13.226 51.0869 13.553 50.7629 13.775C50.4449 13.997 49.9889 14.108 49.3949 14.108C48.9809 14.108 48.6569 14.072 48.4229 14C48.1889 13.934 48.0299 13.883 47.9459 13.847L48.0989 13.127C48.1949 13.163 48.3479 13.217 48.5579 13.289C48.7679 13.361 49.0469 13.397 49.3949 13.397ZM53.1055 9.32H54.8785V10.022H53.1055V12.182C53.1055 12.416 53.1235 12.611 53.1595 12.767C53.1955 12.917 53.2495 13.037 53.3215 13.127C53.3935 13.211 53.4835 13.271 53.5915 13.307C53.6995 13.343 53.8255 13.361 53.9695 13.361C54.2215 13.361 54.4225 13.334 54.5725 13.28C54.7285 13.22 54.8365 13.178 54.8965 13.154L55.0585 13.847C54.9745 13.889 54.8275 13.94 54.6175 14C54.4075 14.066 54.1675 14.099 53.8975 14.099C53.5795 14.099 53.3155 14.06 53.1055 13.982C52.9015 13.898 52.7365 13.775 52.6105 13.613C52.4845 13.451 52.3945 13.253 52.3405 13.019C52.2925 12.779 52.2685 12.503 52.2685 12.191V8.015L53.1055 7.871V9.32ZM57.5276 13.397C57.7256 13.397 57.8996 13.394 58.0496 13.388C58.2056 13.376 58.3346 13.358 58.4366 13.334V11.939C58.3766 11.909 58.2776 11.885 58.1396 11.867C58.0076 11.843 57.8456 11.831 57.6536 11.831C57.5276 11.831 57.3926 11.84 57.2486 11.858C57.1106 11.876 56.9816 11.915 56.8616 11.975C56.7476 12.029 56.6516 12.107 56.5736 12.209C56.4956 12.305 56.4566 12.434 56.4566 12.596C56.4566 12.896 56.5526 13.106 56.7446 13.226C56.9366 13.34 57.1976 13.397 57.5276 13.397ZM57.4556 9.203C57.7916 9.203 58.0736 9.248 58.3016 9.338C58.5356 9.422 58.7216 9.545 58.8596 9.707C59.0036 9.863 59.1056 10.052 59.1656 10.274C59.2256 10.49 59.2556 10.73 59.2556 10.994V13.919C59.1836 13.931 59.0816 13.949 58.9496 13.973C58.8236 13.991 58.6796 14.009 58.5176 14.027C58.3556 14.045 58.1786 14.06 57.9866 14.072C57.8006 14.09 57.6146 14.099 57.4286 14.099C57.1646 14.099 56.9216 14.072 56.6996 14.018C56.4776 13.964 56.2856 13.88 56.1236 13.766C55.9616 13.646 55.8356 13.49 55.7456 13.298C55.6556 13.106 55.6106 12.875 55.6106 12.605C55.6106 12.347 55.6616 12.125 55.7636 11.939C55.8716 11.753 56.0156 11.603 56.1956 11.489C56.3756 11.375 56.5856 11.291 56.8256 11.237C57.0656 11.183 57.3176 11.156 57.5816 11.156C57.6656 11.156 57.7526 11.162 57.8426 11.174C57.9326 11.18 58.0166 11.192 58.0946 11.21C58.1786 11.222 58.2506 11.234 58.3106 11.246C58.3706 11.258 58.4126 11.267 58.4366 11.273V11.039C58.4366 10.901 58.4216 10.766 58.3916 10.634C58.3616 10.496 58.3076 10.376 58.2296 10.274C58.1516 10.166 58.0436 10.082 57.9056 10.022C57.7736 9.956 57.5996 9.923 57.3836 9.923C57.1076 9.923 56.8646 9.944 56.6546 9.986C56.4506 10.022 56.2976 10.061 56.1956 10.103L56.0966 9.41C56.2046 9.362 56.3846 9.317 56.6366 9.275C56.8886 9.227 57.1616 9.203 57.4556 9.203ZM62.0498 14.09C61.5338 14.078 61.1678 13.967 60.9518 13.757C60.7358 13.547 60.6278 13.22 60.6278 12.776V7.16L61.4648 7.016V12.641C61.4648 12.779 61.4768 12.893 61.5008 12.983C61.5248 13.073 61.5638 13.145 61.6178 13.199C61.6718 13.253 61.7438 13.295 61.8338 13.325C61.9238 13.349 62.0348 13.37 62.1668 13.388L62.0498 14.09ZM64.5107 14.09C63.9947 14.078 63.6287 13.967 63.4127 13.757C63.1967 13.547 63.0887 13.22 63.0887 12.776V7.16L63.9257 7.016V12.641C63.9257 12.779 63.9377 12.893 63.9617 12.983C63.9857 13.073 64.0247 13.145 64.0787 13.199C64.1327 13.253 64.2047 13.295 64.2947 13.325C64.3847 13.349 64.4957 13.37 64.6277 13.388L64.5107 14.09ZM67.1517 13.397C67.3497 13.397 67.5237 13.394 67.6737 13.388C67.8297 13.376 67.9587 13.358 68.0607 13.334V11.939C68.0007 11.909 67.9017 11.885 67.7637 11.867C67.6317 11.843 67.4697 11.831 67.2777 11.831C67.1517 11.831 67.0167 11.84 66.8727 11.858C66.7347 11.876 66.6057 11.915 66.4857 11.975C66.3717 12.029 66.2757 12.107 66.1977 12.209C66.1197 12.305 66.0807 12.434 66.0807 12.596C66.0807 12.896 66.1767 13.106 66.3687 13.226C66.5607 13.34 66.8217 13.397 67.1517 13.397ZM67.0797 9.203C67.4157 9.203 67.6977 9.248 67.9257 9.338C68.1597 9.422 68.3457 9.545 68.4837 9.707C68.6277 9.863 68.7297 10.052 68.7897 10.274C68.8497 10.49 68.8797 10.73 68.8797 10.994V13.919C68.8077 13.931 68.7057 13.949 68.5737 13.973C68.4477 13.991 68.3037 14.009 68.1417 14.027C67.9797 14.045 67.8027 14.06 67.6107 14.072C67.4247 14.09 67.2387 14.099 67.0527 14.099C66.7887 14.099 66.5457 14.072 66.3237 14.018C66.1017 13.964 65.9097 13.88 65.7477 13.766C65.5857 13.646 65.4597 13.49 65.3697 13.298C65.2797 13.106 65.2347 12.875 65.2347 12.605C65.2347 12.347 65.2857 12.125 65.3877 11.939C65.4957 11.753 65.6397 11.603 65.8197 11.489C65.9997 11.375 66.2097 11.291 66.4497 11.237C66.6897 11.183 66.9417 11.156 67.2057 11.156C67.2897 11.156 67.3767 11.162 67.4667 11.174C67.5567 11.18 67.6407 11.192 67.7187 11.21C67.8027 11.222 67.8747 11.234 67.9347 11.246C67.9947 11.258 68.0367 11.267 68.0607 11.273V11.039C68.0607 10.901 68.0457 10.766 68.0157 10.634C67.9857 10.496 67.9317 10.376 67.8537 10.274C67.7757 10.166 67.6677 10.082 67.5297 10.022C67.3977 9.956 67.2237 9.923 67.0077 9.923C66.7317 9.923 66.4887 9.944 66.2787 9.986C66.0747 10.022 65.9217 10.061 65.8197 10.103L65.7207 9.41C65.8287 9.362 66.0087 9.317 66.2607 9.275C66.5127 9.227 66.7857 9.203 67.0797 9.203ZM71.0528 9.32H72.8258V10.022H71.0528V12.182C71.0528 12.416 71.0708 12.611 71.1068 12.767C71.1428 12.917 71.1968 13.037 71.2688 13.127C71.3408 13.211 71.4308 13.271 71.5388 13.307C71.6468 13.343 71.7728 13.361 71.9168 13.361C72.1688 13.361 72.3698 13.334 72.5198 13.28C72.6758 13.22 72.7838 13.178 72.8438 13.154L73.0058 13.847C72.9218 13.889 72.7748 13.94 72.5648 14C72.3548 14.066 72.1148 14.099 71.8448 14.099C71.5268 14.099 71.2628 14.06 71.0528 13.982C70.8488 13.898 70.6838 13.775 70.5578 13.613C70.4318 13.451 70.3418 13.253 70.2878 13.019C70.2398 12.779 70.2158 12.503 70.2158 12.191V8.015L71.0528 7.871V9.32ZM74.7279 14H73.8909V9.32H74.7279V14ZM74.3049 8.474C74.1549 8.474 74.0259 8.426 73.9179 8.33C73.8159 8.228 73.7649 8.093 73.7649 7.925C73.7649 7.757 73.8159 7.625 73.9179 7.529C74.0259 7.427 74.1549 7.376 74.3049 7.376C74.4549 7.376 74.5809 7.427 74.6829 7.529C74.7909 7.625 74.8449 7.757 74.8449 7.925C74.8449 8.093 74.7909 8.228 74.6829 8.33C74.5809 8.426 74.4549 8.474 74.3049 8.474ZM80.2983 11.66C80.2983 12.032 80.2443 12.368 80.1363 12.668C80.0283 12.968 79.8753 13.226 79.6773 13.442C79.4853 13.658 79.2543 13.826 78.9843 13.946C78.7143 14.06 78.4203 14.117 78.1023 14.117C77.7843 14.117 77.4903 14.06 77.2203 13.946C76.9503 13.826 76.7163 13.658 76.5183 13.442C76.3263 13.226 76.1763 12.968 76.0683 12.668C75.9603 12.368 75.9063 12.032 75.9063 11.66C75.9063 11.294 75.9603 10.961 76.0683 10.661C76.1763 10.355 76.3263 10.094 76.5183 9.878C76.7163 9.662 76.9503 9.497 77.2203 9.383C77.4903 9.263 77.7843 9.203 78.1023 9.203C78.4203 9.203 78.7143 9.263 78.9843 9.383C79.2543 9.497 79.4853 9.662 79.6773 9.878C79.8753 10.094 80.0283 10.355 80.1363 10.661C80.2443 10.961 80.2983 11.294 80.2983 11.66ZM79.4253 11.66C79.4253 11.132 79.3053 10.715 79.0653 10.409C78.8313 10.097 78.5103 9.941 78.1023 9.941C77.6943 9.941 77.3703 10.097 77.1303 10.409C76.8963 10.715 76.7793 11.132 76.7793 11.66C76.7793 12.188 76.8963 12.608 77.1303 12.92C77.3703 13.226 77.6943 13.379 78.1023 13.379C78.5103 13.379 78.8313 13.226 79.0653 12.92C79.3053 12.608 79.4253 12.188 79.4253 11.66ZM81.4759 9.455C81.6679 9.407 81.9229 9.356 82.2409 9.302C82.5589 9.248 82.9249 9.221 83.3389 9.221C83.7109 9.221 84.0199 9.275 84.2659 9.383C84.5119 9.485 84.7069 9.632 84.8509 9.824C85.0009 10.01 85.1059 10.235 85.1659 10.499C85.2259 10.763 85.2559 11.054 85.2559 11.372V14H84.4189V11.552C84.4189 11.264 84.3979 11.018 84.3559 10.814C84.3199 10.61 84.2569 10.445 84.1669 10.319C84.0769 10.193 83.9569 10.103 83.8069 10.049C83.6569 9.989 83.4709 9.959 83.2489 9.959C83.1589 9.959 83.0659 9.962 82.9699 9.968C82.8739 9.974 82.7809 9.983 82.6909 9.995C82.6069 10.001 82.5289 10.01 82.4569 10.022C82.3909 10.034 82.3429 10.043 82.3129 10.049V14H81.4759V9.455ZM92.8578 11.66C92.8578 12.032 92.8038 12.368 92.6958 12.668C92.5878 12.968 92.4348 13.226 92.2368 13.442C92.0448 13.658 91.8138 13.826 91.5438 13.946C91.2738 14.06 90.9798 14.117 90.6618 14.117C90.3438 14.117 90.0498 14.06 89.7798 13.946C89.5098 13.826 89.2758 13.658 89.0778 13.442C88.8858 13.226 88.7358 12.968 88.6278 12.668C88.5198 12.368 88.4658 12.032 88.4658 11.66C88.4658 11.294 88.5198 10.961 88.6278 10.661C88.7358 10.355 88.8858 10.094 89.0778 9.878C89.2758 9.662 89.5098 9.497 89.7798 9.383C90.0498 9.263 90.3438 9.203 90.6618 9.203C90.9798 9.203 91.2738 9.263 91.5438 9.383C91.8138 9.497 92.0448 9.662 92.2368 9.878C92.4348 10.094 92.5878 10.355 92.6958 10.661C92.8038 10.961 92.8578 11.294 92.8578 11.66ZM91.9848 11.66C91.9848 11.132 91.8648 10.715 91.6248 10.409C91.3908 10.097 91.0698 9.941 90.6618 9.941C90.2538 9.941 89.9298 10.097 89.6898 10.409C89.4558 10.715 89.3388 11.132 89.3388 11.66C89.3388 12.188 89.4558 12.608 89.6898 12.92C89.9298 13.226 90.2538 13.379 90.6618 13.379C91.0698 13.379 91.3908 13.226 91.6248 12.92C91.8648 12.608 91.9848 12.188 91.9848 11.66ZM94.0354 9.455C94.2274 9.407 94.4824 9.356 94.8004 9.302C95.1184 9.248 95.4844 9.221 95.8984 9.221C96.2704 9.221 96.5794 9.275 96.8254 9.383C97.0714 9.485 97.2664 9.632 97.4104 9.824C97.5604 10.01 97.6654 10.235 97.7254 10.499C97.7854 10.763 97.8154 11.054 97.8154 11.372V14H96.9784V11.552C96.9784 11.264 96.9574 11.018 96.9154 10.814C96.8794 10.61 96.8164 10.445 96.7264 10.319C96.6364 10.193 96.5164 10.103 96.3664 10.049C96.2164 9.989 96.0304 9.959 95.8084 9.959C95.7184 9.959 95.6254 9.962 95.5294 9.968C95.4334 9.974 95.3404 9.983 95.2504 9.995C95.1664 10.001 95.0884 10.01 95.0164 10.022C94.9504 10.034 94.9024 10.043 94.8724 10.049V14H94.0354V9.455ZM105.093 13.244V14H101.34V7.763H102.213V13.244H105.093ZM106.79 14H105.953V9.32H106.79V14ZM106.367 8.474C106.217 8.474 106.088 8.426 105.98 8.33C105.878 8.228 105.827 8.093 105.827 7.925C105.827 7.757 105.878 7.625 105.98 7.529C106.088 7.427 106.217 7.376 106.367 7.376C106.517 7.376 106.643 7.427 106.745 7.529C106.853 7.625 106.907 7.757 106.907 7.925C106.907 8.093 106.853 8.228 106.745 8.33C106.643 8.426 106.517 8.474 106.367 8.474ZM108.23 9.455C108.422 9.407 108.677 9.356 108.995 9.302C109.313 9.248 109.679 9.221 110.093 9.221C110.465 9.221 110.774 9.275 111.02 9.383C111.266 9.485 111.461 9.632 111.605 9.824C111.755 10.01 111.86 10.235 111.92 10.499C111.98 10.763 112.01 11.054 112.01 11.372V14H111.173V11.552C111.173 11.264 111.152 11.018 111.11 10.814C111.074 10.61 111.011 10.445 110.921 10.319C110.831 10.193 110.711 10.103 110.561 10.049C110.411 9.989 110.225 9.959 110.003 9.959C109.913 9.959 109.82 9.962 109.724 9.968C109.628 9.974 109.535 9.983 109.445 9.995C109.361 10.001 109.283 10.01 109.211 10.022C109.145 10.034 109.097 10.043 109.067 10.049V14H108.23V9.455ZM117.124 13.865C116.932 13.913 116.677 13.964 116.359 14.018C116.047 14.072 115.684 14.099 115.27 14.099C114.91 14.099 114.607 14.048 114.361 13.946C114.115 13.838 113.917 13.688 113.767 13.496C113.617 13.304 113.509 13.079 113.443 12.821C113.377 12.557 113.344 12.266 113.344 11.948V9.32H114.181V11.768C114.181 12.338 114.271 12.746 114.451 12.992C114.631 13.238 114.934 13.361 115.36 13.361C115.45 13.361 115.543 13.358 115.639 13.352C115.735 13.346 115.825 13.34 115.909 13.334C115.993 13.322 116.068 13.313 116.134 13.307C116.206 13.295 116.257 13.283 116.287 13.271V9.32H117.124V13.865ZM121.365 14C121.299 13.868 121.218 13.721 121.122 13.559C121.026 13.397 120.921 13.232 120.807 13.064C120.693 12.89 120.576 12.719 120.456 12.551C120.336 12.383 120.219 12.224 120.105 12.074C119.991 12.224 119.874 12.386 119.754 12.56C119.634 12.728 119.517 12.899 119.403 13.073C119.295 13.241 119.193 13.406 119.097 13.568C119.001 13.73 118.92 13.874 118.854 14H117.99C118.2 13.592 118.449 13.178 118.737 12.758C119.031 12.332 119.322 11.927 119.61 11.543L118.062 9.32H119.007L120.123 10.958L121.248 9.32H122.139L120.627 11.489C120.915 11.879 121.209 12.293 121.509 12.731C121.815 13.163 122.073 13.586 122.283 14H121.365Z" fill="white"/>
<path d="M43.554 29.232C43.6786 29.2433 43.843 29.2547 44.047 29.266C44.251 29.266 44.5286 29.266 44.88 29.266C46.3193 29.266 47.3903 28.9033 48.093 28.178C48.807 27.4413 49.164 26.4157 49.164 25.101C49.164 23.7637 48.8183 22.738 48.127 22.024C47.4356 21.31 46.3646 20.953 44.914 20.953C44.2793 20.953 43.826 20.97 43.554 21.004V29.232ZM51.408 25.101C51.408 26.121 51.2493 27.0107 50.932 27.77C50.6146 28.518 50.1613 29.147 49.572 29.657C48.994 30.1557 48.2913 30.5297 47.464 30.779C46.648 31.017 45.7413 31.136 44.744 31.136C44.268 31.136 43.7296 31.1133 43.129 31.068C42.5283 31.034 41.956 30.9547 41.412 30.83V19.389C41.956 19.2643 42.534 19.185 43.146 19.151C43.758 19.117 44.302 19.1 44.778 19.1C45.764 19.1 46.665 19.219 47.481 19.457C48.297 19.6837 48.994 20.0463 49.572 20.545C50.1613 21.0323 50.6146 21.6557 50.932 22.415C51.2493 23.163 51.408 24.0583 51.408 25.101ZM61.6859 26.546C61.6859 27.2487 61.5839 27.889 61.3799 28.467C61.1759 29.045 60.8869 29.538 60.5129 29.946C60.1389 30.354 59.6856 30.6713 59.1529 30.898C58.6316 31.1247 58.0536 31.238 57.4189 31.238C56.7843 31.238 56.2063 31.1247 55.6849 30.898C55.1636 30.6713 54.7159 30.354 54.3419 29.946C53.9679 29.538 53.6733 29.045 53.4579 28.467C53.2539 27.889 53.1519 27.2487 53.1519 26.546C53.1519 25.8433 53.2539 25.2087 53.4579 24.642C53.6733 24.064 53.9679 23.571 54.3419 23.163C54.7273 22.755 55.1806 22.4433 55.7019 22.228C56.2233 22.0013 56.7956 21.888 57.4189 21.888C58.0423 21.888 58.6146 22.0013 59.1359 22.228C59.6686 22.4433 60.1219 22.755 60.4959 23.163C60.8699 23.571 61.1589 24.064 61.3629 24.642C61.5783 25.2087 61.6859 25.8433 61.6859 26.546ZM59.5779 26.546C59.5779 25.662 59.3853 24.965 58.9999 24.455C58.6259 23.9337 58.0989 23.673 57.4189 23.673C56.7389 23.673 56.2063 23.9337 55.8209 24.455C55.4469 24.965 55.2599 25.662 55.2599 26.546C55.2599 27.4413 55.4469 28.1497 55.8209 28.671C56.2063 29.1923 56.7389 29.453 57.4189 29.453C58.0989 29.453 58.6259 29.1923 58.9999 28.671C59.3853 28.1497 59.5779 27.4413 59.5779 26.546ZM68.9265 25.407C68.6658 26.4043 68.3825 27.379 68.0765 28.331C67.7818 29.2717 67.4871 30.1613 67.1925 31H65.5095C65.2828 30.4787 65.0448 29.8837 64.7955 29.215C64.5461 28.5463 64.2968 27.8323 64.0475 27.073C63.7981 26.3137 63.5488 25.5147 63.2995 24.676C63.0501 23.8373 62.8065 22.9817 62.5685 22.109H64.7445C64.8465 22.585 64.9655 23.1007 65.1015 23.656C65.2375 24.2 65.3791 24.761 65.5265 25.339C65.6738 25.9057 65.8268 26.461 65.9855 27.005C66.1441 27.549 66.3028 28.0477 66.4615 28.501C66.6315 27.9797 66.7958 27.4413 66.9545 26.886C67.1245 26.3307 67.2831 25.7753 67.4305 25.22C67.5778 24.6647 67.7138 24.1263 67.8385 23.605C67.9745 23.0723 68.0935 22.5737 68.1955 22.109H69.7765C69.8785 22.5737 69.9918 23.0723 70.1165 23.605C70.2411 24.1263 70.3715 24.6647 70.5075 25.22C70.6548 25.7753 70.8078 26.3307 70.9665 26.886C71.1365 27.4413 71.3065 27.9797 71.4765 28.501C71.6238 28.0477 71.7768 27.549 71.9355 27.005C72.0941 26.461 72.2471 25.9057 72.3945 25.339C72.5531 24.761 72.7005 24.2 72.8365 23.656C72.9725 23.1007 73.0915 22.585 73.1935 22.109H75.3185C75.0805 22.9817 74.8368 23.8373 74.5875 24.676C74.3381 25.5147 74.0888 26.3137 73.8395 27.073C73.5901 27.8323 73.3408 28.5463 73.0915 29.215C72.8421 29.8837 72.5985 30.4787 72.3605 31H70.6945C70.3998 30.1613 70.0938 29.2717 69.7765 28.331C69.4705 27.379 69.1871 26.4043 68.9265 25.407ZM76.8871 22.398C77.2838 22.2847 77.7995 22.177 78.4341 22.075C79.0688 21.973 79.7715 21.922 80.5421 21.922C81.2675 21.922 81.8738 22.024 82.3611 22.228C82.8485 22.4207 83.2338 22.6983 83.5171 23.061C83.8118 23.4123 84.0158 23.843 84.1291 24.353C84.2538 24.8517 84.3161 25.4013 84.3161 26.002V31H82.2591V26.325C82.2591 25.849 82.2251 25.4467 82.1571 25.118C82.1005 24.778 81.9985 24.506 81.8511 24.302C81.7151 24.0867 81.5225 23.9337 81.2731 23.843C81.0351 23.741 80.7405 23.69 80.3891 23.69C80.1285 23.69 79.8565 23.707 79.5731 23.741C79.2898 23.775 79.0801 23.8033 78.9441 23.826V31H76.8871V22.398ZM89.9255 31.17C89.3135 31.1587 88.8035 31.0907 88.3955 30.966C87.9988 30.8413 87.6815 30.6657 87.4435 30.439C87.2055 30.201 87.0355 29.912 86.9335 29.572C86.8428 29.2207 86.7975 28.824 86.7975 28.382V18.148L88.8545 17.808V27.991C88.8545 28.2403 88.8715 28.45 88.9055 28.62C88.9508 28.79 89.0245 28.9373 89.1265 29.062C89.2285 29.1753 89.3645 29.266 89.5345 29.334C89.7158 29.3907 89.9425 29.436 90.2145 29.47L89.9255 31.17ZM99.9193 26.546C99.9193 27.2487 99.8173 27.889 99.6133 28.467C99.4093 29.045 99.1203 29.538 98.7463 29.946C98.3723 30.354 97.919 30.6713 97.3863 30.898C96.865 31.1247 96.287 31.238 95.6523 31.238C95.0177 31.238 94.4397 31.1247 93.9183 30.898C93.397 30.6713 92.9493 30.354 92.5753 29.946C92.2013 29.538 91.9067 29.045 91.6913 28.467C91.4873 27.889 91.3853 27.2487 91.3853 26.546C91.3853 25.8433 91.4873 25.2087 91.6913 24.642C91.9067 24.064 92.2013 23.571 92.5753 23.163C92.9607 22.755 93.414 22.4433 93.9353 22.228C94.4567 22.0013 95.029 21.888 95.6523 21.888C96.2757 21.888 96.848 22.0013 97.3693 22.228C97.902 22.4433 98.3553 22.755 98.7293 23.163C99.1033 23.571 99.3923 24.064 99.5963 24.642C99.8117 25.2087 99.9193 25.8433 99.9193 26.546ZM97.8113 26.546C97.8113 25.662 97.6187 24.965 97.2333 24.455C96.8593 23.9337 96.3323 23.673 95.6523 23.673C94.9723 23.673 94.4397 23.9337 94.0543 24.455C93.6803 24.965 93.4933 25.662 93.4933 26.546C93.4933 27.4413 93.6803 28.1497 94.0543 28.671C94.4397 29.1923 94.9723 29.453 95.6523 29.453C96.3323 29.453 96.8593 29.1923 97.2333 28.671C97.6187 28.1497 97.8113 27.4413 97.8113 26.546ZM105.166 29.555C105.801 29.555 106.283 29.521 106.611 29.453V27.175C106.498 27.141 106.334 27.107 106.118 27.073C105.903 27.039 105.665 27.022 105.404 27.022C105.178 27.022 104.945 27.039 104.707 27.073C104.481 27.107 104.271 27.1693 104.078 27.26C103.897 27.3507 103.75 27.481 103.636 27.651C103.523 27.8097 103.466 28.0137 103.466 28.263C103.466 28.7503 103.619 29.0903 103.925 29.283C104.231 29.4643 104.645 29.555 105.166 29.555ZM104.996 21.888C105.676 21.888 106.249 21.973 106.713 22.143C107.178 22.313 107.546 22.551 107.818 22.857C108.102 23.163 108.3 23.537 108.413 23.979C108.538 24.4097 108.6 24.8857 108.6 25.407V30.796C108.283 30.864 107.801 30.9433 107.155 31.034C106.521 31.136 105.801 31.187 104.996 31.187C104.464 31.187 103.976 31.136 103.534 31.034C103.092 30.932 102.713 30.7677 102.395 30.541C102.089 30.3143 101.846 30.0197 101.664 29.657C101.494 29.2943 101.409 28.8467 101.409 28.314C101.409 27.804 101.506 27.3733 101.698 27.022C101.902 26.6707 102.174 26.3873 102.514 26.172C102.854 25.9453 103.245 25.7867 103.687 25.696C104.141 25.594 104.611 25.543 105.098 25.543C105.325 25.543 105.563 25.56 105.812 25.594C106.062 25.6167 106.328 25.662 106.611 25.73V25.39C106.611 25.152 106.583 24.9253 106.526 24.71C106.47 24.4947 106.368 24.3077 106.22 24.149C106.084 23.979 105.897 23.8487 105.659 23.758C105.433 23.6673 105.144 23.622 104.792 23.622C104.316 23.622 103.88 23.656 103.483 23.724C103.087 23.792 102.764 23.8713 102.514 23.962L102.259 22.296C102.52 22.2053 102.9 22.1147 103.398 22.024C103.897 21.9333 104.43 21.888 104.996 21.888ZM112.735 26.529C112.735 27.4357 112.95 28.1497 113.381 28.671C113.811 29.181 114.406 29.436 115.166 29.436C115.494 29.436 115.772 29.4247 115.999 29.402C116.237 29.368 116.429 29.334 116.577 29.3V24.2C116.395 24.0753 116.152 23.962 115.846 23.86C115.551 23.7467 115.234 23.69 114.894 23.69C114.146 23.69 113.596 23.945 113.245 24.455C112.905 24.965 112.735 25.6563 112.735 26.529ZM118.634 30.728C118.226 30.8527 117.71 30.966 117.087 31.068C116.475 31.17 115.829 31.221 115.149 31.221C114.446 31.221 113.817 31.1133 113.262 30.898C112.706 30.6827 112.23 30.3767 111.834 29.98C111.448 29.572 111.148 29.0847 110.933 28.518C110.729 27.94 110.627 27.294 110.627 26.58C110.627 25.8773 110.712 25.2427 110.882 24.676C111.063 24.098 111.324 23.605 111.664 23.197C112.004 22.789 112.417 22.4773 112.905 22.262C113.392 22.0353 113.953 21.922 114.588 21.922C115.018 21.922 115.398 21.973 115.727 22.075C116.055 22.177 116.339 22.2903 116.577 22.415V18.148L118.634 17.808V30.728Z" fill="white"/>
</svg>
