<svg width="160" height="40" viewBox="0 0 160 40" fill="none" xmlns="http://www.w3.org/2000/svg">
<rect width="160" height="40" rx="4" fill="#0E0E0E"/>
<g clip-path="url(#clip0_202_73744)">
<path d="M40.3815 8.00018H27.6157C24.5136 8.00018 21.9988 10.515 21.9988 13.6171V26.3829C21.9988 29.485 24.5136 31.9998 27.6157 31.9998H40.3815C43.4836 31.9998 45.9984 29.485 45.9984 26.3829V13.6171C45.9984 10.515 43.4836 8.00018 40.3815 8.00018Z" fill="white"/>
<path d="M36.3357 20L35.6233 22.2471L34.9299 20.0017H34.253L35.3459 23.268H35.8729L36.5868 21.1223L37.2999 23.268H37.8312L38.9218 20.0017H38.2618L37.5672 22.2471L36.8548 20H36.3357ZM32.552 20.0008L31.1698 23.2663H31.8196L32.0864 22.6342L32.1053 22.5864H33.5414L33.8228 23.2663H34.4903L33.1207 20.0199L33.1085 20.0008H32.552ZM42.5619 20.0012V23.2643H43.19V20.0012H42.5619ZM24.552 20.0016V23.2692H25.1888V21.9422H26.6261V23.2692H27.2629V20.0016H26.6261V21.32H25.1888V20.0016H24.552ZM30.2095 20.0025V21.8728C30.2095 22.4041 29.9563 22.6877 29.4963 22.6877C29.0338 22.6877 28.7789 22.3962 28.7789 21.8504V20.0046H28.1425V21.8728C28.1425 22.7922 28.6332 23.3191 29.4881 23.3191C30.3511 23.3191 30.8459 22.782 30.8459 21.8458V20.0025L30.2095 20.0025ZM39.435 20.0037V23.2667H41.8043V22.6719H40.0628V21.8628H41.2206V21.2677H40.0628V20.599H41.7437V20.0038L39.435 20.0037ZM32.8216 20.8277L33.2757 21.9218L33.3064 21.997H32.3438L32.3741 21.9218L32.8216 20.8277Z" fill="#333333"/>
<path fill-rule="evenodd" clip-rule="evenodd" d="M33.8798 15.9589C31.5335 15.9589 29.6133 14.1198 29.6133 11.8292H30.2133C30.2133 13.7688 31.8448 15.359 33.8798 15.359C35.9147 15.359 37.5463 13.7688 37.5463 11.8292H38.1463C38.1463 14.1198 36.2261 15.9589 33.8798 15.9589Z" fill="#333333"/>
</g>
<path d="M57.339 11.9203V10.8997H55.2292V9.39668H57.1923V8.38405H55.2292V7.10432H57.339V6.09169H53.9998V11.9203H57.339ZM59.1356 11.9203L60.4839 9.71561L61.8323 11.9203H63.2363L61.2771 8.98206L63.0974 6.09169H61.7728L60.5474 8.1887L59.2982 6.09169H57.9418L59.7423 8.91429L57.8189 11.9203H59.1356ZM65.1954 11.9203V9.84718H65.7228C66.442 9.84718 66.9966 9.68106 67.3865 9.34884C67.7765 9.01661 67.9715 8.53688 67.9715 7.90963C67.9715 7.30631 67.7884 6.85249 67.4222 6.54817C67.056 6.24385 66.5213 6.09169 65.818 6.09169H63.966V11.9203H65.1954ZM65.5999 8.83455H65.1954V7.10432H65.7546C66.0904 7.10432 66.3369 7.17342 66.4942 7.31163C66.6515 7.44983 66.7302 7.66379 66.7302 7.95349C66.7302 8.24053 66.6363 8.45914 66.4486 8.6093C66.2609 8.75947 65.978 8.83455 65.5999 8.83455ZM72.6472 11.9203V10.8997H70.2955V6.09169H69.0661V11.9203H72.6472ZM76.157 12C77.0454 12 77.7275 11.7409 78.2034 11.2226C78.6793 10.7043 78.9173 9.96279 78.9173 8.99801C78.9173 8.03056 78.6813 7.28904 78.2094 6.77342C77.7374 6.25781 77.056 6 76.165 6C75.274 6 74.5899 6.25581 74.1126 6.76744C73.6354 7.27907 73.3968 8.01993 73.3968 8.99003C73.3968 9.96013 73.6347 10.7043 74.1107 11.2226C74.5866 11.7409 75.2687 12 76.157 12ZM76.157 10.9635C75.6679 10.9635 75.3004 10.7987 75.0545 10.4691C74.8086 10.1395 74.6857 9.64917 74.6857 8.99801C74.6857 8.34684 74.81 7.85581 75.0585 7.52492C75.307 7.19402 75.6758 7.02857 76.165 7.02857C77.1406 7.02857 77.6284 7.68505 77.6284 8.99801C77.6284 10.3083 77.1379 10.9635 76.157 10.9635ZM81.3483 11.9203V9.68372H82.0027L83.3868 11.9203H84.7511C84.4867 11.5375 83.9182 10.691 83.0457 9.38073C83.3894 9.22924 83.6552 9.01993 83.8429 8.75282C84.0306 8.48571 84.1245 8.18073 84.1245 7.83787C84.1245 7.2505 83.9354 6.81262 83.5573 6.52425C83.1793 6.23588 82.5963 6.09169 81.8084 6.09169H80.1189V11.9203H81.3483ZM81.7449 8.67907H81.3483V7.10432H81.7211C82.1177 7.10432 82.4105 7.16279 82.5996 7.27973C82.7886 7.39668 82.8831 7.59336 82.8831 7.86977C82.8831 8.14884 82.7906 8.35349 82.6055 8.48372C82.4205 8.61395 82.1336 8.67907 81.7449 8.67907ZM88.82 11.9203V10.8997H86.7102V9.39668H88.6733V8.38405H86.7102V7.10432H88.82V6.09169H85.4808V11.9203H88.82ZM93.3689 11.9203V6.09169H92.1395V11.9203H93.3689ZM97.0651 11.9203V7.12027H98.6395V6.09169H94.2612V7.12027H95.8356V11.9203H97.0651ZM104.144 12C105.032 12 105.715 11.7409 106.191 11.2226C106.666 10.7043 106.904 9.96279 106.904 8.99801C106.904 8.03056 106.668 7.28904 106.196 6.77342C105.725 6.25781 105.043 6 104.152 6C103.261 6 102.577 6.25581 102.1 6.76744C101.623 7.27907 101.384 8.01993 101.384 8.99003C101.384 9.96013 101.622 10.7043 102.098 11.2226C102.574 11.7409 103.256 12 104.144 12ZM104.144 10.9635C103.655 10.9635 103.288 10.7987 103.042 10.4691C102.796 10.1395 102.673 9.64917 102.673 8.99801C102.673 8.34684 102.797 7.85581 103.046 7.52492C103.294 7.19402 103.663 7.02857 104.152 7.02857C105.128 7.02857 105.615 7.68505 105.615 8.99801C105.615 10.3083 105.125 10.9635 104.144 10.9635ZM109.205 11.9203V9.17741C109.205 8.84518 109.179 8.2897 109.129 7.51096H109.165L111.687 11.9203H113.25V6.09169H112.143L112.143 8.89681C112.145 9.21563 112.165 9.73574 112.203 10.4571H112.175L109.657 6.09169H108.106V11.9203H109.205Z" fill="white"/>
<path d="M56.3093 30.401L57.3418 27.4723H61.7086L62.757 30.401H65.2084L60.6839 18.8379H58.4296L53.9998 30.401H56.3093ZM61.0702 25.6848H57.9724L59.0602 22.6204C59.2336 22.1097 59.3834 21.6203 59.5095 21.1521C59.6619 21.716 59.8169 22.2081 59.9745 22.6284L61.0702 25.6848ZM66.1217 34L68.3918 33.8324V30.3132C68.9593 30.4888 69.4874 30.5766 69.9761 30.5766C70.7801 30.5766 71.4948 30.393 72.1201 30.0259C72.7454 29.6589 73.2354 29.1135 73.5901 28.39C73.9448 27.6665 74.1222 26.7914 74.1222 25.7646C74.1222 24.8123 73.9737 24.0249 73.6768 23.4025C73.3799 22.78 72.9911 22.3239 72.5103 22.0339C72.0294 21.744 71.5026 21.599 70.9299 21.599C70.4096 21.599 69.9367 21.7147 69.5111 21.9461C69.0854 22.1776 68.7044 22.4901 68.3681 22.8838C68.3418 22.4529 68.2919 22.0805 68.2184 21.7666H66.0586C66.1006 22.5327 66.1217 23.2429 66.1217 23.8973V34ZM69.6845 28.8928C69.4533 28.8928 69.2207 28.8675 68.9869 28.817C68.753 28.7664 68.5547 28.7012 68.3918 28.6214V24.3202C68.6755 24.0329 68.9606 23.8081 69.247 23.6459C69.5334 23.4836 69.8447 23.4025 70.181 23.4025C70.675 23.4025 71.0704 23.5993 71.3673 23.993C71.6642 24.3867 71.8127 25.0251 71.8127 25.9082C71.8127 26.8871 71.6274 27.6293 71.257 28.1347C70.8865 28.6401 70.3623 28.8928 69.6845 28.8928ZM75.674 34L77.9441 33.8324V30.3132C78.5116 30.4888 79.0397 30.5766 79.5284 30.5766C80.3324 30.5766 81.0471 30.393 81.6724 30.0259C82.2977 29.6589 82.7877 29.1135 83.1424 28.39C83.4971 27.6665 83.6745 26.7914 83.6745 25.7646C83.6745 24.8123 83.526 24.0249 83.2291 23.4025C82.9322 22.78 82.5434 22.3239 82.0626 22.0339C81.5817 21.744 81.0549 21.599 80.4822 21.599C79.9619 21.599 79.489 21.7147 79.0633 21.9461C78.6377 22.1776 78.2567 22.4901 77.9204 22.8838C77.8941 22.4529 77.8442 22.0805 77.7706 21.7666H75.6109C75.6529 22.5327 75.674 23.2429 75.674 23.8973V34ZM79.2368 28.8928C79.0055 28.8928 78.773 28.8675 78.5392 28.817C78.3053 28.7664 78.107 28.7012 77.9441 28.6214V24.3202C78.2278 24.0329 78.5129 23.8081 78.7993 23.6459C79.0857 23.4836 79.397 23.4025 79.7333 23.4025C80.2273 23.4025 80.6227 23.5993 80.9196 23.993C81.2165 24.3867 81.365 25.0251 81.365 25.9082C81.365 26.8871 81.1797 27.6293 80.8093 28.1347C80.4388 28.6401 79.9146 28.8928 79.2368 28.8928ZM90.4128 30.5606C91.138 30.5606 91.8644 30.4781 92.5922 30.3132C93.32 30.1483 94.015 29.9116 94.6771 29.603V24.5835H89.9793V26.3072H92.4858V28.4379C91.8658 28.656 91.2089 28.7651 90.5153 28.7651C89.727 28.7651 89.0781 28.5895 88.5683 28.2384C88.0586 27.8873 87.6842 27.4071 87.4451 26.798C87.206 26.1889 87.0865 25.4906 87.0865 24.7032C87.0865 23.8042 87.2415 23.0394 87.5515 22.409C87.8616 21.7786 88.299 21.3011 88.8639 20.9766C89.4288 20.652 90.0922 20.4898 90.8542 20.4898C91.7948 20.4898 92.7722 20.7345 93.7864 21.2239L94.3066 19.4843C93.1821 18.9523 91.9919 18.6863 90.736 18.6863C89.6114 18.6863 88.5959 18.9111 87.6895 19.3606C86.783 19.8101 86.0631 20.4871 85.5297 21.3915C84.9963 22.2959 84.7297 23.4052 84.7297 24.7192C84.7297 25.9268 84.9622 26.9696 85.4272 27.8474C85.8923 28.7252 86.5518 29.3968 87.4057 29.8623C88.2596 30.3278 89.262 30.5606 90.4128 30.5606ZM98.7591 30.5606C99.3476 30.5606 99.8731 30.4382 100.336 30.1935C100.798 29.9488 101.176 29.6509 101.471 29.2998C101.486 29.6881 101.534 30.0552 101.612 30.401H103.756C103.714 29.6775 103.693 29.1375 103.693 28.781V25.3257C103.693 23.9638 103.373 23.0022 102.732 22.4409C102.091 21.8796 101.182 21.599 100.004 21.599C99.3529 21.599 98.7341 21.6642 98.1482 21.7945C97.5623 21.9249 97.088 22.0725 96.7255 22.2374L97.0565 23.8813C97.4244 23.7111 97.8487 23.5648 98.3295 23.4424C98.8103 23.32 99.2583 23.2589 99.6734 23.2589C100.241 23.2589 100.677 23.3998 100.982 23.6818C101.287 23.9638 101.439 24.4426 101.439 25.1182V25.2618C100.956 25.1927 100.462 25.1581 99.9572 25.1581C97.3613 25.1581 96.0633 26.0731 96.0633 27.9032C96.0633 28.4831 96.1855 28.9726 96.4299 29.3716C96.6742 29.7706 97 30.0685 97.4073 30.2653C97.8145 30.4622 98.2651 30.5606 98.7591 30.5606ZM99.4764 28.8848C99.1296 28.8848 98.8563 28.793 98.6566 28.6095C98.4569 28.4259 98.3571 28.1453 98.3571 27.7676C98.3571 27.3739 98.4937 27.06 98.767 26.8259C99.0402 26.5919 99.5342 26.4748 100.249 26.4748C100.559 26.4748 100.956 26.5014 101.439 26.5546V27.983C101.197 28.2437 100.895 28.4592 100.533 28.6294C100.17 28.7997 99.8179 28.8848 99.4764 28.8848ZM107.823 30.5606C108.106 30.5606 108.405 30.534 108.717 30.4808C109.03 30.4276 109.291 30.3558 109.502 30.2653L109.241 28.6534C109.031 28.7225 108.845 28.7571 108.682 28.7571C108.435 28.7571 108.247 28.6866 108.118 28.5456C107.99 28.4047 107.925 28.1613 107.925 27.8155V18L105.663 18.1596V28.2304C105.663 29.0337 105.846 29.6229 106.211 29.998C106.576 30.3731 107.113 30.5606 107.823 30.5606ZM112.693 30.5606C112.977 30.5606 113.275 30.534 113.588 30.4808C113.9 30.4276 114.162 30.3558 114.372 30.2653L114.112 28.6534C113.901 28.7225 113.715 28.7571 113.552 28.7571C113.305 28.7571 113.117 28.6866 112.988 28.5456C112.86 28.4047 112.795 28.1613 112.795 27.8155V18L110.533 18.1596V28.2304C110.533 29.0337 110.716 29.6229 111.081 29.998C111.446 30.3731 111.983 30.5606 112.693 30.5606ZM119.195 30.5606C120.419 30.5606 121.53 30.3212 122.529 29.8424L122.04 28.2943C121.646 28.4592 121.238 28.5895 120.815 28.6853C120.392 28.781 119.98 28.8289 119.581 28.8289C118.872 28.8289 118.313 28.6427 117.906 28.2703C117.499 27.8979 117.261 27.2968 117.193 26.4668H122.694V25.9561C122.694 25.1528 122.559 24.4213 122.289 23.7616C122.018 23.1019 121.603 22.5766 121.043 22.1855C120.483 21.7945 119.786 21.599 118.95 21.599C118.152 21.599 117.446 21.7812 116.834 22.1456C116.222 22.5101 115.745 23.0394 115.403 23.7337C115.062 24.4279 114.891 25.2539 114.891 26.2115C114.891 27.5947 115.255 28.6653 115.983 29.4234C116.71 30.1815 117.781 30.5606 119.195 30.5606ZM120.503 25.0703H117.232C117.327 24.4479 117.521 23.9824 117.815 23.6738C118.11 23.3653 118.483 23.211 118.935 23.211C119.397 23.211 119.766 23.3666 120.042 23.6778C120.318 23.989 120.472 24.4532 120.503 25.0703ZM126.501 30.401V24.9905C126.874 24.4851 127.227 24.1247 127.561 23.9092C127.894 23.6938 128.285 23.586 128.731 23.586C128.957 23.586 129.167 23.6126 129.362 23.6658L129.646 21.7027C129.414 21.6336 129.157 21.599 128.873 21.599C128.5 21.599 128.17 21.6801 127.884 21.8424C127.598 22.0047 127.347 22.2148 127.131 22.4728C126.916 22.7308 126.695 23.0514 126.469 23.4344C126.459 23.2269 126.439 22.9556 126.41 22.6204C126.381 22.2853 126.351 22.0007 126.319 21.7666H124.175C124.217 22.7242 124.238 23.4424 124.238 23.9212V30.401H126.501ZM130.898 34C131.586 34 132.179 33.8763 132.675 33.6289C133.172 33.3815 133.601 32.9985 133.964 32.4798C134.327 31.9611 134.655 31.2761 134.949 30.4249L138 21.7666H135.745L134.264 26.4349C134.095 26.9829 133.935 27.5973 133.783 28.2783C133.709 27.7942 133.562 27.1744 133.341 26.419L131.907 21.7666H129.463L132.577 30.5287L132.474 30.784C132.29 31.2628 132.042 31.6286 131.729 31.8813C131.417 32.134 131.048 32.2603 130.622 32.2603C130.443 32.2603 130.248 32.2417 130.035 32.2045C129.822 32.1672 129.66 32.1327 129.55 32.1007L129.148 33.7446C129.332 33.8085 129.58 33.867 129.893 33.9202C130.205 33.9734 130.54 34 130.898 34Z" fill="white"/>
<defs>
<clipPath id="clip0_202_73744">
<rect width="23.9996" height="23.9996" fill="white" transform="translate(22.0002 8.00018)"/>
</clipPath>
</defs>
</svg>
