<svg width="149" height="40" viewBox="0 0 149 40" fill="none" xmlns="http://www.w3.org/2000/svg">
<path d="M0 4C0 1.79086 1.79086 0 4 0H145C147.21 0 149 1.79086 149 4V36C149 38.2091 147.21 40 145 40H4C1.79086 40 0 38.2091 0 36V4Z" fill="#0E0E0E"/>
<g clip-path="url(#clip0_6128_148018)">
<path fill-rule="evenodd" clip-rule="evenodd" d="M20.0002 32C21.4339 32 22.8088 31.7486 24.0833 31.2875L23.6748 28.2577C22.808 29.4452 21.7955 30.1777 20.7495 30.4152V26.0067C21.668 26.0231 22.5523 26.0693 23.3894 26.1412L23.1842 24.6196C22.4011 24.5593 21.5862 24.5209 20.7495 24.5064V20.75H25.9849C25.9685 21.1478 25.9393 21.5389 25.8979 21.9224L27.2697 22.9849C27.3836 22.2626 27.457 21.5153 27.486 20.75H30.4739C30.3756 22.1419 30.0061 23.4589 29.4178 24.6485L30.6249 25.5834C31.5032 23.9156 32.0002 22.0158 32.0002 20C32.0002 13.3726 26.6277 8 20.0002 8C13.3728 8 8.00024 13.3726 8.00024 20C8.00024 26.6274 13.3728 32 20.0002 32ZM19.2495 9.58517C18.0149 9.86596 16.827 10.8366 15.8704 12.4309C15.6338 12.8253 15.4148 13.253 15.2164 13.71C16.4406 13.8674 17.8019 13.9674 19.2495 13.9933V9.58517ZM20.7495 9.58484V13.9933C22.1968 13.9675 23.5587 13.8675 24.7841 13.71C24.5857 13.253 24.3667 12.8253 24.1301 12.4309C23.1731 10.836 21.9846 9.86519 20.7495 9.58484ZM19.2495 15.4935C17.6245 15.4655 16.08 15.3468 14.6891 15.1527C14.3142 16.3898 14.0763 17.7747 14.0156 19.25H19.2495V15.4935ZM20.7495 19.25V15.4935C22.3761 15.4655 23.921 15.3467 25.3113 15.1527C25.6862 16.3898 25.9242 17.7747 25.9849 19.25H20.7495ZM19.2495 20.75H14.0156C14.0763 22.2253 14.3142 23.6102 14.6891 24.8472C16.0784 24.6534 17.6226 24.5346 19.2495 24.5065V20.75ZM19.2495 26.0067C17.8035 26.0325 16.4419 26.1324 15.2164 26.29C15.4148 26.747 15.6337 27.1747 15.8704 27.5691C16.827 29.1634 18.0149 30.134 19.2495 30.4148V26.0067ZM13.1982 14.9044C12.8108 16.2413 12.573 17.7093 12.5145 19.25H9.52662C9.65234 17.4686 10.2224 15.8099 11.1267 14.3841C11.741 14.5805 12.4369 14.7551 13.1982 14.9044ZM12.5145 20.75H9.52662C9.65234 22.5313 10.2224 24.19 11.1266 25.6158C11.7402 25.4196 12.4361 25.245 13.1982 25.0955C12.8108 23.7587 12.573 22.2907 12.5145 20.75ZM28.8738 14.3841C29.7781 15.8099 30.3482 17.4686 30.4739 19.25H27.486C27.4275 17.7093 27.1896 16.2413 26.8023 14.9044C27.564 14.755 28.2599 14.5805 28.8738 14.3841ZM24.6939 10.6049C25.9269 11.2221 27.0214 12.0748 27.9185 13.1041C27.4326 13.2391 26.8938 13.3625 26.31 13.4715C26.0492 12.822 25.7498 12.215 25.4163 11.6592C25.1929 11.2868 24.9517 10.9339 24.6939 10.6049ZM15.3066 29.3951C15.0488 29.0661 14.8076 28.7132 14.5842 28.3408C14.2506 27.785 13.9513 27.178 13.6905 26.5285C13.1069 26.6375 12.5681 26.7608 12.082 26.8959C12.9791 27.9252 14.0736 28.7779 15.3066 29.3951ZM13.6905 13.4715C13.9513 12.822 14.2506 12.215 14.5842 11.6592C14.8076 11.2868 15.0488 10.9339 15.3066 10.6049C14.0736 11.2221 12.9791 12.0748 12.0819 13.1041C12.5676 13.2391 13.1063 13.3624 13.6905 13.4715Z" fill="white"/>
<path d="M25.433 30.0709L24.4376 22.6885L30.5434 27.4173L28.7455 28.3513L30.424 31.2144L28.9097 32L27.2309 29.1375L25.433 30.0709Z" fill="white"/>
</g>
<path d="M45.2476 7.60156V11.9521C45.2446 12.5557 45.0542 13.0493 44.6763 13.4331C44.3013 13.8169 43.7915 14.0322 43.147 14.0791L42.9229 14.0879C42.2227 14.0879 41.6646 13.8989 41.2485 13.521C40.8325 13.1431 40.6216 12.623 40.6157 11.9609V7.60156H41.4507V11.9346C41.4507 12.3975 41.5781 12.7578 41.833 13.0156C42.0879 13.2705 42.4512 13.3979 42.9229 13.3979C43.4004 13.3979 43.7651 13.2705 44.0171 13.0156C44.272 12.7607 44.3994 12.4019 44.3994 11.939V7.60156H45.2476ZM49.4902 12.7388C49.4902 12.519 49.4067 12.3491 49.2397 12.229C49.0757 12.106 48.7871 12.0005 48.374 11.9126C47.9638 11.8247 47.6372 11.7192 47.394 11.5962C47.1538 11.4731 46.9751 11.3267 46.8579 11.1567C46.7436 10.9868 46.6865 10.7847 46.6865 10.5503C46.6865 10.1606 46.8506 9.83105 47.1787 9.56152C47.5097 9.29199 47.9316 9.15723 48.4443 9.15723C48.9834 9.15723 49.4199 9.29639 49.7539 9.57471C50.0908 9.85303 50.2593 10.209 50.2593 10.6426H49.4419C49.4419 10.4199 49.3467 10.228 49.1562 10.0669C48.9687 9.90576 48.7314 9.8252 48.4443 9.8252C48.1484 9.8252 47.917 9.88965 47.75 10.0186C47.583 10.1475 47.4995 10.3159 47.4995 10.5239C47.4995 10.7202 47.5771 10.8682 47.7324 10.9678C47.8877 11.0674 48.1675 11.1626 48.5718 11.2534C48.979 11.3442 49.3086 11.4526 49.5605 11.5786C49.8125 11.7046 49.9985 11.8569 50.1186 12.0356C50.2417 12.2114 50.3032 12.4268 50.3032 12.6816C50.3032 13.1064 50.1333 13.4478 49.7934 13.7056C49.4536 13.9604 49.0127 14.0879 48.4707 14.0879C48.0898 14.0879 47.7529 14.0205 47.4599 13.8857C47.167 13.751 46.937 13.5635 46.77 13.3232C46.6059 13.0801 46.5239 12.8179 46.5239 12.5366H47.3369C47.3515 12.8091 47.4599 13.0259 47.6621 13.187C47.8672 13.3452 48.1367 13.4243 48.4707 13.4243C48.7783 13.4243 49.0244 13.3628 49.209 13.2397C49.3965 13.1138 49.4902 12.9468 49.4902 12.7388ZM53.6054 14.0879C52.9609 14.0879 52.4365 13.877 52.0322 13.4551C51.6279 13.0303 51.4257 12.4634 51.4257 11.7544V11.605C51.4257 11.1333 51.5151 10.7129 51.6938 10.3438C51.8754 9.97168 52.1274 9.68164 52.4497 9.47363C52.7749 9.2627 53.1264 9.15723 53.5044 9.15723C54.1225 9.15723 54.603 9.36084 54.9458 9.76807C55.2885 10.1753 55.4599 10.7583 55.4599 11.5171V11.8555H52.2387C52.2504 12.3242 52.3867 12.7036 52.6474 12.9937C52.9111 13.2808 53.2451 13.4243 53.6494 13.4243C53.9365 13.4243 54.1796 13.3657 54.3789 13.2485C54.5781 13.1313 54.7524 12.9761 54.9018 12.7827L55.3984 13.1694C55 13.7817 54.4023 14.0879 53.6054 14.0879ZM53.5044 9.8252C53.1762 9.8252 52.9008 9.94531 52.6782 10.1855C52.4555 10.4229 52.3178 10.7568 52.2651 11.1875H54.6469V11.126C54.6235 10.7129 54.5122 10.3936 54.3129 10.168C54.1137 9.93945 53.8442 9.8252 53.5044 9.8252ZM60.0605 14H59.2475V9.24512H60.0605V14ZM59.1816 7.98389C59.1816 7.85205 59.2211 7.74072 59.3002 7.6499C59.3822 7.55908 59.5024 7.51367 59.6606 7.51367C59.8188 7.51367 59.9389 7.55908 60.0209 7.6499C60.1029 7.74072 60.144 7.85205 60.144 7.98389C60.144 8.11572 60.1029 8.22559 60.0209 8.31348C59.9389 8.40137 59.8188 8.44531 59.6606 8.44531C59.5024 8.44531 59.3822 8.40137 59.3002 8.31348C59.2211 8.22559 59.1816 8.11572 59.1816 7.98389ZM62.7387 8.09375V9.24512H63.6264V9.87354H62.7387V12.8223C62.7387 13.0127 62.7782 13.1562 62.8573 13.2529C62.9364 13.3467 63.0712 13.3936 63.2616 13.3936C63.3554 13.3936 63.4843 13.376 63.6483 13.3408V14C63.4345 14.0586 63.2265 14.0879 63.0243 14.0879C62.661 14.0879 62.3871 13.978 62.2025 13.7583C62.018 13.5386 61.9257 13.2266 61.9257 12.8223V9.87354H61.06V9.24512H61.9257V8.09375H62.7387ZM67.1371 11.5786C67.1371 11.1128 67.2279 10.6938 67.4095 10.3218C67.5941 9.94971 67.849 9.6626 68.1742 9.46045C68.5023 9.2583 68.8758 9.15723 69.2948 9.15723C69.9422 9.15723 70.4652 9.38135 70.8636 9.82959C71.265 10.2778 71.4657 10.874 71.4657 11.6182V11.6753C71.4657 12.1382 71.3763 12.5542 71.1976 12.9233C71.0218 13.2896 70.7684 13.5752 70.4374 13.7803C70.1092 13.9854 69.7313 14.0879 69.3036 14.0879C68.659 14.0879 68.1361 13.8638 67.7347 13.4155C67.3363 12.9673 67.1371 12.374 67.1371 11.6357V11.5786ZM67.9545 11.6753C67.9545 12.2026 68.076 12.626 68.3192 12.9453C68.5653 13.2646 68.8934 13.4243 69.3036 13.4243C69.7167 13.4243 70.0448 13.2632 70.2879 12.9409C70.5311 12.6157 70.6527 12.1616 70.6527 11.5786C70.6527 11.0571 70.5282 10.6353 70.2792 10.313C70.0331 9.98779 69.7049 9.8252 69.2948 9.8252C68.8934 9.8252 68.5697 9.98486 68.3236 10.3042C68.0775 10.6235 67.9545 11.0806 67.9545 11.6753ZM73.5243 9.24512L73.5506 9.84277C73.9139 9.38574 74.3885 9.15723 74.9745 9.15723C75.9793 9.15723 76.4862 9.72412 76.495 10.8579V14H75.682V10.8535C75.679 10.5107 75.5999 10.2573 75.4447 10.0933C75.2923 9.9292 75.0536 9.84717 74.7284 9.84717C74.4647 9.84717 74.2332 9.91748 74.034 10.0581C73.8348 10.1987 73.6795 10.3833 73.5682 10.6118V14H72.7552V9.24512H73.5243ZM82.0491 12.8091L83.1565 9.24512H84.0267L82.115 14.7339C81.8191 15.5249 81.3489 15.9204 80.7044 15.9204L80.5506 15.9072L80.2474 15.8501V15.1909L80.4671 15.2085C80.7425 15.2085 80.9563 15.1528 81.1087 15.0415C81.264 14.9302 81.3914 14.7266 81.491 14.4307L81.6712 13.9473L79.9749 9.24512H80.8626L82.0491 12.8091ZM84.7405 11.5786C84.7405 11.1128 84.8313 10.6938 85.013 10.3218C85.1975 9.94971 85.4524 9.6626 85.7776 9.46045C86.1057 9.2583 86.4793 9.15723 86.8982 9.15723C87.5457 9.15723 88.0686 9.38135 88.4671 9.82959C88.8684 10.2778 89.0691 10.874 89.0691 11.6182V11.6753C89.0691 12.1382 88.9798 12.5542 88.8011 12.9233C88.6253 13.2896 88.3719 13.5752 88.0408 13.7803C87.7127 13.9854 87.3347 14.0879 86.907 14.0879C86.2625 14.0879 85.7395 13.8638 85.3382 13.4155C84.9397 12.9673 84.7405 12.374 84.7405 11.6357V11.5786ZM85.5579 11.6753C85.5579 12.2026 85.6795 12.626 85.9226 12.9453C86.1687 13.2646 86.4969 13.4243 86.907 13.4243C87.3201 13.4243 87.6482 13.2632 87.8914 12.9409C88.1346 12.6157 88.2561 12.1616 88.2561 11.5786C88.2561 11.0571 88.1316 10.6353 87.8826 10.313C87.6365 9.98779 87.3084 9.8252 86.8982 9.8252C86.4969 9.8252 86.1731 9.98486 85.927 10.3042C85.6809 10.6235 85.5579 11.0806 85.5579 11.6753ZM93.2942 13.5298C92.9778 13.9019 92.5134 14.0879 91.9011 14.0879C91.3943 14.0879 91.0076 13.9414 90.741 13.6484C90.4773 13.3525 90.344 12.916 90.3411 12.3389V9.24512H91.1541V12.3169C91.1541 13.0376 91.447 13.3979 92.033 13.3979C92.6541 13.3979 93.0672 13.1665 93.2722 12.7036V9.24512H94.0852V14H93.3118L93.2942 13.5298ZM97.8928 9.97461C97.7698 9.9541 97.6365 9.94385 97.4929 9.94385C96.9597 9.94385 96.5979 10.1709 96.4075 10.625V14H95.5945V9.24512H96.3855L96.3987 9.79443C96.6653 9.36963 97.0432 9.15723 97.5325 9.15723C97.6907 9.15723 97.8108 9.17773 97.8928 9.21875V9.97461Z" fill="white"/>
<path d="M50.7085 28.0117L52.5679 18.9141H54.6514L51.8623 31H49.8535L47.5542 22.1763L45.2051 31H43.188L40.3989 18.9141H42.4824L44.3584 27.9951L46.666 18.9141H48.4258L50.7085 28.0117ZM59.6816 31.166C58.4033 31.166 57.3657 30.7648 56.5688 29.9624C55.7775 29.1545 55.3818 28.0809 55.3818 26.7417V26.4927C55.3818 25.5962 55.5534 24.7965 55.8965 24.0938C56.2451 23.3854 56.7321 22.8348 57.3574 22.4419C57.9827 22.049 58.68 21.8525 59.4492 21.8525C60.6722 21.8525 61.6157 22.2427 62.2798 23.0229C62.9494 23.8032 63.2842 24.9072 63.2842 26.335V27.1484H57.4155C57.4764 27.89 57.7227 28.4766 58.1543 28.9082C58.5915 29.3398 59.1393 29.5557 59.7979 29.5557C60.722 29.5557 61.4746 29.1821 62.0557 28.4351L63.1431 29.4727C62.7834 30.0094 62.3019 30.4272 61.6987 30.7261C61.1011 31.0194 60.4287 31.166 59.6816 31.166ZM59.4409 23.4712C58.8875 23.4712 58.4393 23.6649 58.0962 24.0522C57.7586 24.4396 57.5428 24.9792 57.4487 25.6709H61.292V25.5215C61.2477 24.8464 61.0679 24.3372 60.7524 23.9941C60.437 23.6455 59.9998 23.4712 59.4409 23.4712ZM72.7388 26.6006C72.7388 27.9951 72.4261 29.1047 71.8008 29.9292C71.181 30.7537 70.326 31.166 69.2358 31.166C68.1844 31.166 67.3654 30.7869 66.7788 30.0288L66.6792 31H64.853V18.25H66.8701V22.8818C67.4512 22.1956 68.2342 21.8525 69.2192 21.8525C70.3149 21.8525 71.1755 22.2593 71.8008 23.0728C72.4261 23.8862 72.7388 25.0234 72.7388 26.4844V26.6006ZM70.7217 26.4263C70.7217 25.4523 70.5501 24.7218 70.207 24.2349C69.8639 23.7479 69.3659 23.5044 68.7129 23.5044C67.8385 23.5044 67.2243 23.8862 66.8701 24.6499V28.3521C67.2298 29.1323 67.8496 29.5225 68.7295 29.5225C69.3604 29.5225 69.8473 29.2873 70.1904 28.8169C70.5335 28.3465 70.7106 27.6354 70.7217 26.6836V26.4263ZM78.8647 31V18.9141H83.0068C84.3737 18.9141 85.4141 19.188 86.1279 19.7358C86.8418 20.2837 87.1987 21.0999 87.1987 22.1846C87.1987 22.738 87.0493 23.236 86.7505 23.6787C86.4517 24.1214 86.0145 24.4645 85.439 24.708C86.092 24.8851 86.5955 25.2199 86.9497 25.7124C87.3094 26.1994 87.4893 26.786 87.4893 27.4722C87.4893 28.6066 87.124 29.4782 86.3936 30.0869C85.6686 30.6956 84.6283 31 83.2725 31H78.8647ZM80.9648 25.5464V29.3232H83.2974C83.9559 29.3232 84.4705 29.16 84.8413 28.8335C85.2121 28.507 85.3975 28.0532 85.3975 27.4722C85.3975 26.216 84.7555 25.5741 83.4717 25.5464H80.9648ZM80.9648 24.0024H83.0234C83.6764 24.0024 84.1855 23.8558 84.5508 23.5625C84.9215 23.2637 85.1069 22.8431 85.1069 22.3008C85.1069 21.7031 84.9354 21.2715 84.5923 21.0059C84.2547 20.7402 83.7262 20.6074 83.0068 20.6074H80.9648V24.0024ZM94.0967 23.8613C93.8311 23.8171 93.5571 23.7949 93.2749 23.7949C92.3507 23.7949 91.7282 24.1491 91.4072 24.8574V31H89.3901V22.0186H91.3159L91.3657 23.0229C91.8527 22.2427 92.5278 21.8525 93.3911 21.8525C93.6789 21.8525 93.9168 21.8913 94.105 21.9688L94.0967 23.8613ZM94.6943 26.4263C94.6943 25.5464 94.8687 24.755 95.2173 24.0522C95.5659 23.3439 96.0557 22.8016 96.6865 22.4253C97.3174 22.0435 98.0423 21.8525 98.8613 21.8525C100.073 21.8525 101.056 22.2427 101.808 23.0229C102.566 23.8032 102.976 24.8381 103.037 26.1274L103.045 26.6006C103.045 27.486 102.873 28.2773 102.53 28.9746C102.193 29.6719 101.706 30.2114 101.069 30.5933C100.438 30.9751 99.708 31.166 98.8779 31.166C97.6107 31.166 96.5952 30.7454 95.8315 29.9043C95.0734 29.0576 94.6943 27.9315 94.6943 26.5259V26.4263ZM96.7114 26.6006C96.7114 27.5247 96.9023 28.2497 97.2842 28.7754C97.666 29.2956 98.1973 29.5557 98.8779 29.5557C99.5586 29.5557 100.087 29.29 100.463 28.7588C100.845 28.2275 101.036 27.45 101.036 26.4263C101.036 25.5187 100.84 24.7993 100.447 24.2681C100.059 23.7368 99.5309 23.4712 98.8613 23.4712C98.2028 23.4712 97.6799 23.734 97.2925 24.2598C96.9051 24.7799 96.7114 25.5602 96.7114 26.6006ZM112.641 28.2192L114.068 22.0186H116.036L113.587 31H111.927L110.001 24.8325L108.108 31H106.448L103.991 22.0186H105.958L107.411 28.1528L109.254 22.0186H110.773L112.641 28.2192ZM122.419 28.5596C122.419 28.1999 122.27 27.9259 121.971 27.7378C121.677 27.5496 121.188 27.3836 120.501 27.2397C119.815 27.0959 119.243 26.9132 118.783 26.6919C117.776 26.2049 117.272 25.4993 117.272 24.5752C117.272 23.8005 117.599 23.153 118.252 22.6328C118.905 22.1126 119.735 21.8525 120.742 21.8525C121.816 21.8525 122.682 22.1182 123.34 22.6494C124.004 23.1807 124.336 23.8696 124.336 24.7163H122.319C122.319 24.3289 122.175 24.008 121.888 23.7534C121.6 23.4933 121.218 23.3633 120.742 23.3633C120.299 23.3633 119.937 23.4657 119.655 23.6704C119.378 23.8752 119.24 24.1491 119.24 24.4922C119.24 24.8021 119.37 25.0428 119.63 25.2144C119.89 25.3859 120.416 25.5602 121.207 25.7373C121.998 25.9089 122.618 26.1164 123.066 26.3599C123.52 26.5978 123.855 26.8856 124.071 27.2231C124.292 27.5607 124.403 27.9702 124.403 28.4517C124.403 29.2596 124.068 29.9154 123.398 30.4189C122.729 30.917 121.852 31.166 120.767 31.166C120.031 31.166 119.375 31.0332 118.8 30.7676C118.224 30.502 117.776 30.1367 117.455 29.6719C117.134 29.207 116.974 28.7062 116.974 28.1694H118.933C118.96 28.6453 119.14 29.0133 119.472 29.2734C119.804 29.528 120.244 29.6553 120.792 29.6553C121.323 29.6553 121.727 29.5557 122.004 29.3564C122.281 29.1517 122.419 28.8861 122.419 28.5596ZM130.122 31.166C128.844 31.166 127.806 30.7648 127.009 29.9624C126.218 29.1545 125.822 28.0809 125.822 26.7417V26.4927C125.822 25.5962 125.994 24.7965 126.337 24.0938C126.686 23.3854 127.173 22.8348 127.798 22.4419C128.423 22.049 129.12 21.8525 129.89 21.8525C131.113 21.8525 132.056 22.2427 132.72 23.0229C133.39 23.8032 133.725 24.9072 133.725 26.335V27.1484H127.856C127.917 27.89 128.163 28.4766 128.595 28.9082C129.032 29.3398 129.58 29.5557 130.238 29.5557C131.162 29.5557 131.915 29.1821 132.496 28.4351L133.583 29.4727C133.224 30.0094 132.742 30.4272 132.139 30.7261C131.542 31.0194 130.869 31.166 130.122 31.166ZM129.881 23.4712C129.328 23.4712 128.88 23.6649 128.537 24.0522C128.199 24.4396 127.983 24.9792 127.889 25.6709H131.732V25.5215C131.688 24.8464 131.508 24.3372 131.193 23.9941C130.877 23.6455 130.44 23.4712 129.881 23.4712ZM140 23.8613C139.734 23.8171 139.46 23.7949 139.178 23.7949C138.254 23.7949 137.632 24.1491 137.311 24.8574V31H135.293V22.0186H137.219L137.269 23.0229C137.756 22.2427 138.431 21.8525 139.294 21.8525C139.582 21.8525 139.82 21.8913 140.008 21.9688L140 23.8613Z" fill="white"/>
<defs>
<clipPath id="clip0_6128_148018">
<rect width="24.0004" height="24" fill="white" transform="translate(8 8)"/>
</clipPath>
</defs>
</svg>
