<svg width="149" height="40" viewBox="0 0 149 40" fill="none" xmlns="http://www.w3.org/2000/svg"><path d="M0 4a4 4 0 0 1 4-4h141a4 4 0 0 1 4 4v32a4 4 0 0 1-4 4H4a4 4 0 0 1-4-4V4Z" fill="#0E0E0E"/><g clip-path="url(#a)" fill="#fff"><path fill-rule="evenodd" clip-rule="evenodd" d="M20 32c1.434 0 2.809-.251 4.083-.712l-.408-3.03c-.867 1.187-1.88 1.92-2.925 2.157v-4.408a39.09 39.09 0 0 1 2.64.134l-.206-1.521a41.048 41.048 0 0 0-2.434-.114V20.75h5.235a17.73 17.73 0 0 1-.087 1.172l1.372 1.063c.114-.722.187-1.47.216-2.235h2.988a10.438 10.438 0 0 1-1.056 3.898l1.207.935A11.947 11.947 0 0 0 32 20c0-6.627-5.372-12-12-12-6.627 0-12 5.373-12 12s5.373 12 12 12Zm-.75-22.415c-1.235.281-2.423 1.252-3.38 2.846-.236.394-.455.822-.654 1.279 1.225.157 2.586.257 4.034.283V9.585Zm1.5 0v4.408a37.084 37.084 0 0 0 4.034-.283 11.013 11.013 0 0 0-.654-1.28c-.957-1.594-2.145-2.565-3.38-2.845Zm-1.5 5.908a38.06 38.06 0 0 1-4.56-.34 16.53 16.53 0 0 0-.674 4.097h5.234v-3.757Zm1.5 3.757v-3.757a38.07 38.07 0 0 0 4.561-.34 16.53 16.53 0 0 1 .674 4.097H20.75Zm-1.5 1.5h-5.234c.06 1.475.298 2.86.673 4.097a38.088 38.088 0 0 1 4.56-.34V20.75Zm0 5.257a37.056 37.056 0 0 0-4.034.283c.199.457.418.885.654 1.28.957 1.593 2.145 2.564 3.38 2.845v-4.408Zm-6.052-11.103a18.145 18.145 0 0 0-.684 4.346H9.527c.125-1.781.695-3.44 1.6-4.866.614.197 1.31.371 2.071.52Zm-.684 5.846H9.527a10.44 10.44 0 0 0 1.6 4.866c.613-.196 1.31-.371 2.071-.52a18.144 18.144 0 0 1-.684-4.346Zm16.36-6.366a10.438 10.438 0 0 1 1.6 4.866h-2.988a18.15 18.15 0 0 0-.684-4.346 18.397 18.397 0 0 0 2.072-.52Zm-4.18-3.78a10.538 10.538 0 0 1 3.225 2.5c-.486.135-1.025.259-1.609.368-.26-.65-.56-1.257-.894-1.813a10.3 10.3 0 0 0-.722-1.054Zm-9.387 18.791a10.3 10.3 0 0 1-.723-1.054 12.767 12.767 0 0 1-.893-1.813 19.22 19.22 0 0 0-1.609.368 10.538 10.538 0 0 0 3.225 2.5ZM13.69 13.472c.261-.65.56-1.257.894-1.813a10.3 10.3 0 0 1 .723-1.054 10.54 10.54 0 0 0-3.225 2.5c.486.134 1.024.257 1.608.367Z"/><path d="m25.433 30.07-.995-7.381 6.105 4.728-1.797.934 1.678 2.863L28.91 32l-1.68-2.863-1.797.934Z"/></g><path d="M45.248 7.602v4.35c-.003.604-.194 1.097-.572 1.481-.375.384-.885.6-1.529.646l-.224.009c-.7 0-1.258-.19-1.675-.567-.415-.378-.626-.898-.632-1.56V7.6h.835v4.334c0 .463.127.823.382 1.08.255.255.618.383 1.09.383.477 0 .842-.127 1.094-.382.255-.255.382-.614.382-1.077V7.602h.849Zm4.242 5.137a.59.59 0 0 0-.25-.51c-.164-.123-.453-.228-.866-.316-.41-.088-.737-.194-.98-.317a1.417 1.417 0 0 1-.536-.44 1.06 1.06 0 0 1-.171-.606c0-.39.164-.719.492-.988.33-.27.753-.405 1.265-.405.54 0 .976.14 1.31.418.337.278.505.634.505 1.068h-.817c0-.223-.095-.415-.286-.576-.187-.161-.425-.242-.712-.242-.296 0-.527.065-.694.194a.609.609 0 0 0-.25.505c0 .196.077.344.232.444.156.1.435.195.84.285.407.091.737.2.988.326.252.126.438.278.559.457.123.175.184.39.184.646 0 .424-.17.766-.51 1.024-.34.254-.78.382-1.322.382-.381 0-.718-.067-1.011-.202a1.666 1.666 0 0 1-.69-.563 1.379 1.379 0 0 1-.246-.786h.813a.85.85 0 0 0 .325.65c.205.158.475.237.809.237.307 0 .553-.061.738-.184a.578.578 0 0 0 .281-.501Zm4.115 1.349c-.644 0-1.168-.211-1.573-.633-.404-.425-.606-.992-.606-1.7v-.15c0-.472.09-.892.268-1.261a2.11 2.11 0 0 1 .756-.87 1.899 1.899 0 0 1 1.054-.317c.619 0 1.099.204 1.442.611.343.407.514.99.514 1.75v.337h-3.221c.011.47.148.849.408 1.139.264.287.598.43 1.002.43.288 0 .53-.058.73-.175.2-.118.373-.273.523-.466l.496.386c-.398.613-.996.919-1.793.919Zm-.1-4.263c-.329 0-.604.12-.827.36-.222.238-.36.572-.413 1.002h2.382v-.061c-.023-.413-.135-.732-.334-.958-.2-.229-.469-.343-.809-.343ZM60.06 14h-.813V9.245h.813V14Zm-.878-6.016a.49.49 0 0 1 .118-.334c.082-.09.202-.136.36-.136.159 0 .279.045.36.136a.48.48 0 0 1 .124.334.465.465 0 0 1-.123.33c-.082.087-.202.131-.36.131-.159 0-.279-.044-.36-.132a.474.474 0 0 1-.12-.33Zm3.557.11v1.151h.887v.629h-.887v2.948c0 .19.04.334.118.43.08.095.214.142.405.142.093 0 .222-.018.386-.053V14a2.356 2.356 0 0 1-.624.088c-.363 0-.637-.11-.822-.33-.184-.22-.276-.531-.276-.936V9.874h-.866v-.629h.866V8.094h.813Zm4.398 3.485c0-.466.09-.885.272-1.257.185-.372.44-.66.765-.862a2.092 2.092 0 0 1 1.12-.303c.648 0 1.171.224 1.57.673.401.448.602 1.044.602 1.788v.057c0 .463-.09.88-.268 1.248-.176.367-.43.652-.76.857a2.094 2.094 0 0 1-1.134.308c-.645 0-1.168-.224-1.57-.672-.398-.449-.597-1.042-.597-1.78v-.057Zm.817.096c0 .528.122.951.365 1.27.246.32.574.48.985.48.413 0 .74-.162.984-.484.243-.325.365-.78.365-1.362 0-.522-.125-.944-.374-1.266a1.173 1.173 0 0 0-.984-.488c-.402 0-.725.16-.971.48-.246.319-.37.776-.37 1.37Zm5.57-2.43.027.598a1.733 1.733 0 0 1 1.424-.686c1.004 0 1.511.567 1.52 1.7V14h-.813v-3.146c-.003-.343-.082-.597-.237-.76-.153-.165-.391-.247-.717-.247-.263 0-.495.07-.694.211-.2.14-.355.325-.466.554V14h-.813V9.245h.77Zm8.525 3.564 1.107-3.564h.87l-1.911 5.489c-.296.79-.766 1.186-1.41 1.186l-.154-.013-.304-.057v-.66l.22.019c.276 0 .49-.056.642-.168.155-.11.282-.314.382-.61l.18-.484-1.696-4.702h.888l1.186 3.564Zm2.691-1.23c0-.466.091-.885.273-1.257.184-.372.44-.66.765-.862a2.093 2.093 0 0 1 1.12-.303c.648 0 1.17.224 1.57.673.4.448.601 1.044.601 1.788v.057c0 .463-.09.88-.268 1.248-.176.367-.43.652-.76.857a2.094 2.094 0 0 1-1.134.308c-.644 0-1.167-.224-1.569-.672-.398-.449-.597-1.042-.597-1.78v-.057Zm.818.096c0 .528.121.951.365 1.27.246.32.574.48.984.48.413 0 .741-.162.984-.484.244-.325.365-.78.365-1.362 0-.522-.124-.944-.373-1.266a1.173 1.173 0 0 0-.985-.488c-.401 0-.725.16-.971.48-.246.319-.37.776-.37 1.37Zm7.736 1.855c-.316.372-.78.558-1.393.558-.507 0-.893-.147-1.16-.44-.264-.296-.397-.732-.4-1.31V9.246h.813v3.072c0 .72.293 1.08.879 1.08.621 0 1.034-.23 1.24-.693v-3.46h.812V14h-.773l-.018-.47Zm4.599-3.555a2.435 2.435 0 0 0-.4-.031c-.533 0-.895.227-1.085.681V14h-.814V9.245h.791l.014.55c.266-.425.644-.638 1.133-.638a.83.83 0 0 1 .36.062v.756ZM50.709 28.012l1.859-9.098h2.083L51.862 31h-2.009l-2.299-8.824L45.205 31h-2.017l-2.79-12.086h2.084l1.876 9.081 2.308-9.08h1.76l2.282 9.097Zm8.973 3.154c-1.279 0-2.316-.401-3.113-1.204-.791-.808-1.187-1.881-1.187-3.22v-.25c0-.896.171-1.695.515-2.398.348-.709.835-1.26 1.46-1.652a3.851 3.851 0 0 1 2.092-.59c1.223 0 2.167.39 2.83 1.17.67.781 1.005 1.885 1.005 3.313v.813h-5.868c.06.742.307 1.329.738 1.76.438.432.985.648 1.644.648.924 0 1.677-.374 2.258-1.12l1.087 1.037c-.36.536-.841.954-1.444 1.253-.598.293-1.27.44-2.017.44Zm-.241-7.695c-.553 0-1.002.194-1.345.581-.337.388-.553.927-.647 1.619h3.843v-.15c-.044-.675-.224-1.184-.54-1.527-.315-.349-.752-.523-1.311-.523Zm13.298 3.13c0 1.394-.313 2.504-.938 3.328-.62.825-1.475 1.237-2.565 1.237-1.052 0-1.87-.38-2.457-1.137l-.1.971h-1.826V18.25h2.017v4.632c.581-.686 1.364-1.03 2.35-1.03 1.095 0 1.956.407 2.58 1.22.626.814.939 1.951.939 3.412v.117Zm-2.017-.175c0-.974-.172-1.704-.515-2.191-.343-.487-.841-.73-1.494-.73-.874 0-1.489.381-1.843 1.145v3.702c.36.78.98 1.17 1.86 1.17.63 0 1.117-.235 1.46-.705.344-.47.52-1.182.532-2.133v-.258ZM78.865 31V18.914h4.142c1.367 0 2.407.274 3.12.822.715.548 1.072 1.364 1.072 2.449a2.61 2.61 0 0 1-.448 1.494c-.3.442-.737.786-1.312 1.029.653.177 1.157.512 1.51 1.004.36.487.54 1.074.54 1.76 0 1.135-.365 2.006-1.095 2.615-.725.609-1.766.913-3.122.913h-4.407Zm2.1-5.454v3.777h2.332c.659 0 1.174-.163 1.544-.49.371-.326.556-.78.556-1.36 0-1.257-.642-1.899-1.925-1.927h-2.507Zm0-1.544h2.058c.653 0 1.163-.146 1.528-.44.37-.298.556-.719.556-1.261 0-.598-.172-1.03-.515-1.295-.337-.266-.866-.399-1.585-.399h-2.042v3.395Zm13.132-.14a5 5 0 0 0-.822-.067c-.924 0-1.547.354-1.868 1.062V31H89.39v-8.981h1.926l.05 1.004c.487-.78 1.162-1.17 2.025-1.17.288 0 .526.038.714.116l-.008 1.892Zm.597 2.564c0-.88.175-1.671.523-2.374.349-.708.839-1.25 1.47-1.627.63-.381 1.355-.573 2.174-.573 1.212 0 2.195.39 2.947 1.17.758.781 1.168 1.816 1.229 3.105l.008.474c0 .885-.172 1.676-.515 2.374a3.733 3.733 0 0 1-1.461 1.618c-.631.382-1.361.573-2.191.573-1.267 0-2.283-.42-3.046-1.262-.759-.846-1.138-1.973-1.138-3.378v-.1Zm2.017.175c0 .924.191 1.649.573 2.174.382.52.913.78 1.594.78.68 0 1.209-.265 1.585-.796.382-.532.573-1.309.573-2.333 0-.907-.196-1.627-.589-2.158-.388-.531-.916-.797-1.586-.797-.658 0-1.181.263-1.569.789-.387.52-.58 1.3-.58 2.34Zm15.93 1.618 1.427-6.2h1.968L113.587 31h-1.66l-1.926-6.168L108.108 31h-1.66l-2.457-8.981h1.967l1.453 6.134 1.843-6.134h1.519l1.868 6.2Zm9.778.34a.912.912 0 0 0-.448-.821c-.294-.188-.783-.354-1.47-.498-.686-.144-1.258-.327-1.718-.548-1.007-.487-1.511-1.193-1.511-2.117 0-.774.327-1.422.98-1.942s1.483-.78 2.49-.78c1.074 0 1.94.265 2.598.796.664.532.996 1.22.996 2.067h-2.017c0-.387-.144-.708-.431-.963-.288-.26-.67-.39-1.146-.39-.443 0-.805.103-1.087.307a.97.97 0 0 0-.415.822c0 .31.13.55.39.722.26.172.786.346 1.577.523.791.172 1.411.38 1.859.623.454.238.789.526 1.005.863.221.338.332.747.332 1.229 0 .808-.335 1.463-1.005 1.967-.669.498-1.546.747-2.631.747-.736 0-1.392-.133-1.967-.398-.576-.266-1.024-.631-1.345-1.096a2.593 2.593 0 0 1-.481-1.503h1.959c.027.476.207.844.539 1.104.332.255.772.382 1.32.382.531 0 .935-.1 1.212-.299.277-.204.415-.47.415-.796Zm7.703 2.607c-1.278 0-2.316-.401-3.113-1.204-.791-.808-1.187-1.881-1.187-3.22v-.25c0-.896.172-1.695.515-2.398.349-.709.836-1.26 1.461-1.652a3.85 3.85 0 0 1 2.092-.59c1.223 0 2.166.39 2.83 1.17.67.781 1.005 1.885 1.005 3.313v.813h-5.869c.061.742.307 1.329.739 1.76.437.432.985.648 1.643.648.924 0 1.677-.374 2.258-1.12l1.087 1.037a3.653 3.653 0 0 1-1.444 1.253c-.597.293-1.27.44-2.017.44Zm-.241-7.695c-.553 0-1.001.194-1.344.581-.338.388-.554.927-.648 1.619h3.843v-.15c-.044-.675-.224-1.184-.539-1.527-.316-.349-.753-.523-1.312-.523Zm10.119.39a5.007 5.007 0 0 0-.822-.066c-.924 0-1.546.354-1.867 1.062V31h-2.018v-8.981h1.926l.05 1.004c.487-.78 1.162-1.17 2.025-1.17.288 0 .526.038.714.116L140 23.86Z" fill="#fff"/><defs><clipPath id="a"><path fill="#fff" transform="translate(8 8)" d="M0 0h24v24H0z"/></clipPath></defs></svg>
