<svg xmlns="http://www.w3.org/2000/svg" width="32" height="32"><g fill="none" fill-rule="evenodd"><path d="M0 0h32v32H0z"/><path d="M28.912 24.938a17.436 17.436 0 0 1-1.72 3.093c-.905 1.29-1.646 2.183-2.217 2.678-.885.814-1.833 1.231-2.848 1.255-.729 0-1.608-.208-2.631-.628-1.027-.42-1.97-.627-2.833-.627-.904 0-1.875.208-2.912.627-1.04.42-1.877.64-2.517.661-.974.042-1.944-.387-2.913-1.288-.618-.539-1.391-1.463-2.318-2.773-.994-1.398-1.811-3.02-2.451-4.869-.686-1.997-1.03-3.93-1.03-5.803 0-2.144.464-3.994 1.392-5.544a8.166 8.166 0 0 1 2.915-2.948 7.85 7.85 0 0 1 3.94-1.112c.773 0 1.787.24 3.047.71 1.257.471 2.064.71 2.418.71.264 0 1.16-.28 2.68-.837 1.437-.517 2.65-.731 3.643-.647 2.693.218 4.715 1.279 6.06 3.19-2.407 1.46-3.599 3.503-3.575 6.125.022 2.041.763 3.74 2.218 5.09a7.28 7.28 0 0 0 2.217 1.453c-.178.516-.366 1.01-.565 1.484zM22.737.64c0 1.6-.584 3.095-1.75 4.478-1.406 1.644-3.107 2.594-4.952 2.444a4.917 4.917 0 0 1-.037-.606c0-1.537.669-3.18 1.856-4.525.593-.68 1.348-1.247 2.262-1.698.913-.445 1.776-.69 2.588-.733.023.214.033.428.033.64z" fill="#000" fill-rule="nonzero"/></g></svg>