<svg xmlns="http://www.w3.org/2000/svg" width="32" height="32"><g fill="none" fill-rule="evenodd"><path d="M0 0h32v32H0z"/><path fill="#FCAF1B" d="M18.31 17.366c.564-.068 1.82-.213 2.044.069.224.287-.248 1.467-.46 1.995-.064.16.073.224.218.103a3.11 3.11 0 0 0 .988-2.668 3.14 3.14 0 0 0-2.833.265c-.154.107-.128.257.043.236zm-5.156 2.876a11.461 11.461 0 0 0 6.472-1.976l-.005.003c.29-.214.041-.535-.254-.409a15.727 15.727 0 0 1-6.033 1.234 15.9 15.9 0 0 1-7.906-2.099c-.198-.114-.344.089-.18.236a11.706 11.706 0 0 0 7.906 3.011z"/><path fill="#231F20" d="M3.513 15.133c.15-.307.21-.65.175-.989l.002-.205c-.675 0-1.387.148-1.387.941 0 .404.207.676.565.676a.756.756 0 0 0 .645-.423zm1.01 1.33a.18.18 0 0 0 .106-.046l.004.007c.186-.166.526-.46.715-.62.032-.032.05-.077.05-.123s-.018-.09-.05-.124a1.267 1.267 0 0 1-.352-.864v-1.602c.003-.558.006-1.065-.41-1.455a2.119 2.119 0 0 0-1.404-.464A1.893 1.893 0 0 0 1.097 12.6a.173.173 0 0 0 .023.132.169.169 0 0 0 .113.071l.903.094a.197.197 0 0 0 .11-.058.197.197 0 0 0 .052-.113.708.708 0 0 1 .753-.565c.1-.004.2.015.292.057.09.043.17.106.231.186.104.21.143.444.114.676v.121a6.42 6.42 0 0 0-1.753.322 1.585 1.585 0 0 0-.994 1.525 1.324 1.324 0 0 0 1.397 1.448 1.851 1.851 0 0 0 1.537-.678c.139.237.32.447.534.62.034.02.074.03.114.026zm11.383-2.319c.035.34-.026.682-.175.989a.758.758 0 0 1-.645.423c-.358 0-.565-.272-.565-.676 0-.793.713-.94 1.387-.94l-.002.204zm.94 2.273a.183.183 0 0 1-.219.021 2.282 2.282 0 0 1-.534-.62 1.858 1.858 0 0 1-1.537.678 1.342 1.342 0 0 1-1.032-.403 1.34 1.34 0 0 1-.364-1.046 1.593 1.593 0 0 1 .994-1.524 6.427 6.427 0 0 1 1.753-.322v-.121c.03-.232-.01-.467-.113-.676a.628.628 0 0 0-.524-.243.711.711 0 0 0-.753.565.194.194 0 0 1-.162.171l-.902-.094a.165.165 0 0 1-.113-.067.189.189 0 0 1-.026-.06.156.156 0 0 1 0-.068 1.891 1.891 0 0 1 2.083-1.427 2.111 2.111 0 0 1 1.405.464c.417.39.414.899.41 1.456v1.601c.003.322.13.63.352.864a.174.174 0 0 1 0 .247c-.188.16-.529.454-.714.62l-.003-.016zm10.554.013h.93l-.003.002a.18.18 0 0 0 .126-.05.179.179 0 0 0 .056-.123v-2.577a2.12 2.12 0 0 1 .148-.905.596.596 0 0 1 .213-.27.602.602 0 0 1 .326-.113c.594 0 .589.65.584 1.162v2.724a.175.175 0 0 0 .165.151h.935a.181.181 0 0 0 .118-.042.178.178 0 0 0 .06-.109v-3.012a3.044 3.044 0 0 0-.24-1.489 1.23 1.23 0 0 0-1.089-.564 1.27 1.27 0 0 0-1.27.965h-.017v-.73a.185.185 0 0 0-.06-.095.183.183 0 0 0-.106-.039h-.865a.18.18 0 0 0-.179.156v4.786c.001.045.02.088.05.12a.18.18 0 0 0 .118.052zm-3-5.215c1.385 0 2.133 1.188 2.133 2.698 0 1.46-.827 2.618-2.132 2.618-1.358 0-2.096-1.188-2.096-2.668 0-1.48.748-2.648 2.096-2.648zm.01.977c-.687 0-.731.936-.731 1.52v.02c0 .59 0 1.812.722 1.812.73 0 .757-1.007.757-1.62a4.387 4.387 0 0 0-.139-1.27.585.585 0 0 0-.608-.462zM6.242 16.429h.933a.199.199 0 0 0 .068-.012.185.185 0 0 0 .098-.093.176.176 0 0 0 .014-.068v-2.575c0-.55 0-1.278.644-1.278.594 0 .584.634.576 1.15l-.002.168v2.536a.176.176 0 0 0 .167.172h.932a.199.199 0 0 0 .068-.012.197.197 0 0 0 .058-.037.195.195 0 0 0 .04-.057.205.205 0 0 0 .014-.067v-2.535c-.02-.308.009-.617.087-.916a.616.616 0 0 1 .557-.393.486.486 0 0 1 .547.413c.032.298.04.597.027.896v2.536a.176.176 0 0 0 .167.172h.932a.199.199 0 0 0 .068-.012.178.178 0 0 0 .097-.094.164.164 0 0 0 .014-.067v-3.018a2.547 2.547 0 0 0-.235-1.5 1.38 1.38 0 0 0-1.289-.508 1.377 1.377 0 0 0-1.077.87 1.284 1.284 0 0 0-1.972-.642c-.219.16-.382.384-.465.641h-.017v-.623a.175.175 0 0 0-.17-.161h-.868a.199.199 0 0 0-.068.012.185.185 0 0 0-.098.093.176.176 0 0 0-.014.068v4.784c.004.041.023.08.054.11.03.028.07.045.113.047zm12.11-4.953v.684l.002.003a.17.17 0 0 0 .109.161.195.195 0 0 0 .068.012h1.6L18.29 14.97a.817.817 0 0 0-.113.47v.693c0 .1.11.216.218.16a3.52 3.52 0 0 1 3.238-.007c.115.06.225-.055.225-.156v-.73a.314.314 0 0 0-.162-.266 3.39 3.39 0 0 0-1.748-.377l1.587-2.266a.963.963 0 0 0 .23-.43v-.586a.19.19 0 0 0-.012-.067.186.186 0 0 0-.039-.057.165.165 0 0 0-.057-.037.16.16 0 0 0-.068-.012h-3.064a.175.175 0 0 0-.124.05.175.175 0 0 0-.049.124z"/></g></svg>