<svg xmlns="http://www.w3.org/2000/svg" xmlns:xlink="http://www.w3.org/1999/xlink" width="32" height="33"><defs><rect id="a" width="24" height="16" x="0" y="0" rx="2"/></defs><g fill="none" fill-rule="evenodd" transform="translate(0 5)"><mask id="b" fill="#fff"><use xlink:href="#a"/></mask><use fill="#0D47A1" fill-rule="nonzero" xlink:href="#a"/><path fill="#FFF" fill-rule="nonzero" d="M.414 7.987h.719l3.833-2.551v2.55h2.069v-2.55l3.832 2.55h.72a.416.416 0 0 0 .413-.42v-.333L8.712 5.044H12V2.943H8.711L12 .753V.42a.417.417 0 0 0-.414-.42h-.719L7.034 2.551V0H4.965v2.551L1.258.084a1.805 1.805 0 0 0-1.017.83l3.048 2.029H0v2.101h3.289L0 7.233v.333c0 .233.185.42.414.42zm5.711 2.292.313 1.047 1-.405c.086-.034.163.065.111.142l-.611.9.936.543c.08.046.052.17-.04.176l-1.075.076.166 1.082c.014.092-.098.147-.16.078l-.729-.806-.729.806c-.062.069-.174.014-.16-.078l.166-1.082-1.075-.076c-.091-.006-.119-.13-.04-.176l.937-.542-.612-.901c-.052-.077.026-.176.111-.142l1 .405.313-1.047a.092.092 0 0 1 .178 0zm12.31 1.524.153.512.488-.198c.042-.017.08.031.055.069l-.3.44.458.265c.039.022.025.083-.02.086l-.524.037.08.528c.008.045-.047.072-.078.039l-.356-.394-.356.394c-.03.033-.085.006-.078-.039l.081-.528-.525-.037c-.045-.003-.058-.064-.02-.086l.458-.265-.299-.44c-.025-.038.013-.086.054-.07l.49.199.152-.512a.045.045 0 0 1 .087 0zm1.18-4.125c.016-.048.083-.048.1 0l.122.373.387.003c.05 0 .071.065.03.096l-.31.233.116.375c.015.049-.04.09-.08.06l-.315-.23-.315.23c-.04.03-.095-.011-.08-.06l.117-.375-.312-.233c-.04-.03-.02-.095.03-.096l.388-.003.122-.373zm-4.582-.92.152.512.49-.198c.041-.016.08.032.054.07l-.3.44.458.265c.039.022.025.082-.02.086l-.524.037.08.528a.045.045 0 0 1-.078.038l-.356-.393-.356.393c-.03.034-.085.007-.078-.038l.081-.528-.525-.037c-.045-.004-.058-.064-.02-.086l.458-.265-.299-.44c-.025-.038.013-.086.054-.07l.49.198.152-.511a.045.045 0 0 1 .087 0zm6.62-1.681.153.512.49-.198c.04-.017.079.031.053.069l-.298.44.457.265c.039.023.025.083-.02.086l-.525.037.081.529c.007.045-.047.072-.078.038l-.356-.394-.356.394c-.03.033-.085.007-.078-.038l.081-.529-.525-.037c-.045-.003-.058-.063-.02-.086l.458-.265-.299-.44c-.025-.038.013-.086.054-.07l.49.199.152-.512a.045.045 0 0 1 .087 0zm-3.218-2.246.153.512.488-.198c.042-.017.08.031.055.069l-.3.44.458.265c.039.023.025.083-.02.086l-.524.037.08.529a.045.045 0 0 1-.078.038l-.356-.394-.356.394c-.03.034-.085.007-.078-.038l.081-.529-.525-.037c-.045-.003-.058-.063-.02-.086l.458-.265-.299-.44c-.025-.038.013-.086.054-.069l.49.198.152-.512a.045.045 0 0 1 .087 0z" mask="url(#b)"/><path fill="#F44336" fill-rule="nonzero" d="M6.62 0v3.363H12v1.261H6.62v3.363H5.38V4.624H0V3.363h5.38V0h1.24zM4.955 5.044.492 7.987H.414a.399.399 0 0 1-.305-.145l-.05-.071 4.135-2.727h.76zm3.164 0L11.993 7.6a.414.414 0 0 1-.234.346l-4.4-2.902h.76zM.685.393l3.867 2.55h-.76L.386.696C.473.584.574.482.685.393zM11.586 0c.122 0 .227.056.301.141l.05.07-4.142 2.732h-.76L11.496 0h.09z" mask="url(#b)"/><rect width="23" height="15" x=".5" y=".5" stroke="#000" stroke-opacity=".04" mask="url(#b)" rx="1"/><rect width="23" height="15" x=".5" y=".5" stroke="#000" stroke-opacity=".04" rx="2"/><g transform="translate(8 8)" fill-rule="nonzero"><path fill="#FFF" d="M0 8h24v6a2 2 0 0 1-2 2H2a2 2 0 0 1-2-2V8z"/><path fill="#E12237" d="M2 0h20a2 2 0 0 1 2 2v6H0V2a2 2 0 0 1 2-2z"/><path fill="#FFF" d="M4.625 2c.62 0 1.19.205 1.639.547a2.29 2.29 0 0 0-.764-.13c-1.208 0-2.187.932-2.187 2.083 0 1.15.979 2.083 2.187 2.083.269 0 .526-.046.764-.13-.45.342-1.02.547-1.639.547C3.175 7 2 5.88 2 4.5S3.175 2 4.625 2zm1.313 3.333c.241 0 .437.187.437.417 0 .23-.196.417-.437.417A.428.428 0 0 1 5.5 5.75c0-.23.196-.417.438-.417zm1.75 0c.241 0 .437.187.437.417 0 .23-.196.417-.437.417a.428.428 0 0 1-.438-.417c0-.23.196-.417.438-.417zM5.063 3.667c.241 0 .437.186.437.416 0 .23-.196.417-.437.417a.428.428 0 0 1-.438-.417c0-.23.196-.416.438-.416zm3.5 0c.241 0 .437.186.437.416 0 .23-.196.417-.437.417a.428.428 0 0 1-.438-.417c0-.23.196-.416.438-.416zm-1.75-1.25c.241 0 .437.186.437.416 0 .23-.196.417-.437.417a.428.428 0 0 1-.438-.417c0-.23.196-.416.438-.416z"/><rect width="23" height="15" x=".5" y=".5" stroke="#000" stroke-opacity=".04" rx="1"/></g><rect width="23" height="15" x="8.5" y="8.5" stroke="#000" stroke-opacity=".04" rx="2"/></g></svg>