<svg xmlns="http://www.w3.org/2000/svg" width="32" height="32"><g fill="none" fill-rule="evenodd"><path d="M0 0h32v32H0z"/><path fill="#6F7070" d="M16 0c-3.165 0-6.258.938-8.89 2.696A16.007 16.007 0 0 0 .309 19.121 15.996 15.996 0 0 0 12.88 31.693c3.103.617 6.32.3 9.244-.91A16.006 16.006 0 0 0 32 16 16 16 0 0 0 16 0zm14.96 16a14.956 14.956 0 0 1-9.235 13.821 14.958 14.958 0 0 1-16.304-3.243A14.963 14.963 0 0 1 16 1.04c3.968 0 7.773 1.576 10.578 4.382A14.956 14.956 0 0 1 30.96 16zM16 6.519v.519A8.974 8.974 0 0 1 24.962 16h.519A9.482 9.482 0 0 0 16 6.519zm0 18.443A8.974 8.974 0 0 1 7.038 16h-.519A9.48 9.48 0 0 0 16 25.481v-.519zm8.367-14.882a14.16 14.16 0 0 0-.706-.832l1.003-1.926.091-.123-.124.091-1.934 1a16.71 16.71 0 0 0-.823-.69l2.055-3.211c.292.224.521.411.76.611l-1.364 2.031-.121.139.152-.1 1.807-.9.64.636-.905 1.794-.1.151.14-.12 2.05-1.346c.192.225.45.545.612.755l-3.233 2.04zm-8.051-4.902L17.2 3.21l.057-.174-.016.182.093 2.629c.31.029.63.072.946.124l-.144-3.894a18.977 18.977 0 0 0-1.321-.1l-.871 2.148-.031.16-.031-.16-.871-2.148c-.44.019-.879.054-1.321.1l-.144 3.894c.316-.052.636-.094.946-.124l.094-2.629-.016-.182.056.174.884 1.968h.806zM9.452 6.539c.51.59.222 1.207-.29 1.742l-.438.457c-.475.495-.859.895-1.572 1.675l-2.762-2.6c.265-.344.71-.874 1.01-1.21 1.006-1.114 1.375-1.439 1.856-1.488a.977.977 0 0 1 .715.2.926.926 0 0 1 .322.973l-.012.033.038-.015a1.001 1.001 0 0 1 1.133.233zm-2.478-.426c-.501.482-.973.993-1.412 1.532l.532.507s1.079-1.121 1.373-1.451a.598.598 0 0 0 .206-.508.378.378 0 0 0-.053-.124.347.347 0 0 0-.358-.139.717.717 0 0 0-.288.183zm1.06 1.095A838.97 838.97 0 0 0 6.64 8.664l.56.527 1.393-1.48c.124-.116.218-.262.272-.423a.327.327 0 0 0-.141-.343.366.366 0 0 0-.373-.008c-.12.072-.227.164-.317.271z"/><path fill="#0D67B0" d="M16 16V6.519a9.496 9.496 0 0 0-3.63.72A9.483 9.483 0 0 0 6.519 16h9.48zm8.76 3.629A9.472 9.472 0 0 0 25.48 16H16v9.481a9.479 9.479 0 0 0 8.76-5.852z"/></g></svg>