<svg width="33" height="32" viewBox="0 0 33 32" fill="none" xmlns="http://www.w3.org/2000/svg">
<g id="Finalised Icons - update -01" clip-path="url(#clip0_1804_25279)">
<path id="Vector" d="M14.666 10H2.66602C1.56602 10 0.666016 9.1 0.666016 8V2C0.666016 0.9 1.56602 0 2.66602 0H14.666C15.766 0 16.666 0.9 16.666 2V8C16.666 9.1 15.766 10 14.666 10Z" fill="#020202"/>
<path id="Vector_2" d="M3.86602 7.8H2.26602C3.56602 6.8 4.46602 6 4.66602 4.9H4.56602C4.36602 5.3 4.06602 5.8 3.36602 5.8C2.36602 5.8 1.66602 5.1 1.66602 4C1.66602 2.8 2.46602 2 3.76602 2C5.06602 2 5.86602 2.9 5.86602 4.3C5.96602 5.8 4.86602 7.1 3.86602 7.8ZM4.66602 4V3.8C4.66602 3.3 4.36602 3 3.76602 3C3.26602 3 2.96602 3.3 2.96602 3.8V4C2.96602 4.6 3.26602 4.9 3.86602 4.9C4.36602 4.8 4.66602 4.5 4.66602 4Z" fill="white"/>
<path id="Vector_3" d="M6.4668 4.9C6.4668 3.1 7.0668 2 8.5668 2C10.0668 2 10.7668 3.1 10.7668 4.9C10.7668 6.7 10.0668 7.8 8.5668 7.8C7.0668 7.8 6.4668 6.7 6.4668 4.9ZM9.4668 5.4V4.4C9.4668 3.5 9.1668 3 8.5668 3C7.9668 3 7.7668 3.5 7.7668 4.4V5.5C7.7668 6.3 7.9668 6.8 8.5668 6.8C9.1668 6.8 9.4668 6.3 9.4668 5.4Z" fill="white"/>
<path id="Vector_4" d="M11.2656 4.9C11.2656 3.1 11.9656 2 13.4656 2C14.9656 2 15.6656 3.1 15.6656 4.9C15.6656 6.7 14.9656 7.8 13.4656 7.8C11.8656 7.8 11.2656 6.7 11.2656 4.9ZM14.2656 5.4V4.4C14.2656 3.6 14.0656 3.1 13.4656 3.1C12.8656 3.1 12.6656 3.6 12.6656 4.4V5.5C12.6656 6.3 12.8656 6.8 13.4656 6.8C14.0656 6.8 14.2656 6.3 14.2656 5.4Z" fill="white"/>
<path id="Vector_5" d="M6.66602 23H3.66602V26H6.66602V23Z" fill="#F04952"/>
<path id="Vector_6" d="M9.66602 26H6.66602V29H9.66602V26Z" fill="#F04952"/>
<path id="Vector_7" d="M3.66602 20H0.666016V23H3.66602V20Z" fill="#F04952"/>
<path id="Vector_8" d="M29.666 10H26.666V13H29.666V10Z" fill="#F04952"/>
<path id="Vector_9" d="M26.666 7H23.666V10H26.666V7Z" fill="#F04952"/>
<path id="Vector_10" d="M32.666 13H29.666V16H32.666V13Z" fill="#F04952"/>
<path id="Vector_11" d="M23.666 4H20.666L11.666 29H9.66602V32H13.166L22.166 7H23.666V4Z" fill="#85ABB0"/>
</g>
<defs>
<clipPath id="clip0_1804_25279">
<rect width="32" height="32" fill="white" transform="translate(0.666016)"/>
</clipPath>
</defs>
</svg>
