<svg xmlns="http://www.w3.org/2000/svg" width="32" height="32"><g fill="none" fill-rule="evenodd"><path d="M0 0h32v32H0z"/><path d="M25 10.91c2.34 1.91 5.37 5.17 5 8.91-.46 3-3.6 5.19-6.26 5.9-2.77.707-5.668.734-8.45.08-.18.48-.36 1.06-.91 1.26a1.207 1.207 0 0 1-1.09-.17c-.79-.74-.15-2.16-1.29-2.61a11.743 11.743 0 0 1-5.78-5.07 1.354 1.354 0 0 1 .28-1.209 13.883 13.883 0 0 1 6.15-2.38c.13 0 .08-.13.18-.18.026-1.503.248-2.996.66-4.44a.399.399 0 0 1 .55-.13c1.4 1.07.74 3.07 1.34 4.51 2.66.13 5.32.25 7.42 1.75.314.288.543.66.66 1.07.116.412.116.848 0 1.26a1.948 1.948 0 0 1-1.64 1.139c-.46 0-1.32 0-1.27-.31.05-.31 1.55-.92 1.09-1.39-.66-.68-4-1.09-6-1.34-.26-.05-.49 0-.49.3a30.455 30.455 0 0 0 .13 5.9c.02.072.058.137.11.19.053.052.118.09.19.11 3.62.59 7.45.26 10.28-1.82a4.328 4.328 0 0 0 1.5-4.24c-1.14-4.58-5.92-7.34-9.85-9.12a27.682 27.682 0 0 0-12.58-2.3c-.72 0-1.87.3-1.87.56 0 .26 1.29.17 1.13.66-.16.49-1.48.2-1.87.07-.39-.13-.35-.68-.25-1 1-1.74 3.74-1.88 5-1.95a28.143 28.143 0 0 1 17.92 6l.01-.01zM12.57 17.7a15.5 15.5 0 0 0-5.21.81c-.33.12-.73.48-.48.91a8.433 8.433 0 0 0 2.48 2.12 9.309 9.309 0 0 0 3.11 1.32c.224-1.657.301-3.33.23-5-.1 0 0-.15-.13-.2v.04z" fill="#231F20"/></g></svg>