<svg width="33" height="32" viewBox="0 0 33 32" fill="none" xmlns="http://www.w3.org/2000/svg">
<g clip-path="url(#clip0_2205_8062)">
<path d="M2.66602 10.3999H0.666016V17.2999H2.66602V10.3999Z" fill="#FF444F"/>
<path d="M6.4668 14.7998H4.4668V25.6998H6.4668V14.7998Z" fill="#FF444F"/>
<path d="M10.166 21.5H8.16602V28.1H10.166V21.5Z" fill="#FF444F"/>
<path d="M13.8652 24.5H11.8652V29.7H13.8652V24.5Z" fill="#58595B"/>
<path d="M17.666 25.1001H15.666V28.7001H17.666V25.1001Z" fill="#58595B"/>
<path d="M21.4668 24.5H19.4668V29.7H21.4668V24.5Z" fill="#58595B"/>
<path d="M32.666 10.3999H30.666V17.2999H32.666V10.3999Z" fill="#85ACB0"/>
<path d="M28.8652 14.7998H26.8652V25.6998H28.8652V14.7998Z" fill="#85ACB0"/>
<path d="M25.166 21.5H23.166V28.1H25.166V21.5Z" fill="#85ACB0"/>
<path d="M8.16602 2.2998H25.066C26.466 2.2998 27.566 3.3998 27.566 4.7998V10.6998C27.566 12.0998 26.466 13.1998 25.066 13.1998H8.16602C6.76602 13.1998 5.66602 12.0998 5.66602 10.6998V4.7998C5.66602 3.3998 6.76602 2.2998 8.16602 2.2998Z" fill="#0E0E0E"/>
<path d="M12.166 10.2997H8.16602V9.19971L9.86602 7.69971C10.466 7.19971 10.666 6.89971 10.666 6.39971V6.29971C10.666 5.89971 10.266 5.69971 9.96602 5.69971C9.46602 5.69971 9.26602 5.99971 9.16602 6.49971L8.16602 6.09971C8.36602 5.29971 9.06602 4.69971 10.266 4.69971C11.466 4.69971 12.166 5.39971 12.166 6.39971C12.166 7.39971 11.466 7.89971 10.666 8.59971L9.66602 9.39971H12.266V10.2997H12.166Z" fill="white"/>
<path d="M12.7656 7.49961C12.7656 5.69961 13.4656 4.59961 14.9656 4.59961C16.4656 4.59961 17.1656 5.69961 17.1656 7.49961C17.1656 9.29961 16.4656 10.3996 14.9656 10.3996C13.4656 10.3996 12.7656 9.29961 12.7656 7.49961ZM15.7656 7.99961V6.99961C15.7656 6.19961 15.5656 5.69961 14.9656 5.69961C14.3656 5.69961 14.0656 6.09961 14.0656 6.99961V7.99961C14.0656 8.79961 14.2656 9.29961 14.8656 9.29961C15.4656 9.29961 15.7656 8.89961 15.7656 7.99961Z" fill="white"/>
<path d="M18.9668 10.3V6.1H20.1668V6.8C20.3668 6.4 20.7668 6 21.3668 6C21.9668 6 22.3668 6.3 22.5668 6.8C22.6668 6.4 23.1668 6 23.8668 6C24.6668 6 25.1668 6.6 25.1668 7.7V10.3H23.9668V7.8C23.8668 7.2 23.6668 7 23.3668 7C22.9668 7 22.6668 7.2 22.6668 7.6V10.3H21.4668V7.8C21.4668 7.3 21.2668 7 20.8668 7C20.5668 7 20.1668 7.2 20.1668 7.6V10.3H18.9668Z" fill="white"/>
</g>
<defs>
<clipPath id="clip0_2205_8062">
<rect width="32" height="32" fill="white" transform="translate(0.666016)"/>
</clipPath>
</defs>
</svg>
