<svg width="33" height="33" viewBox="0 0 33 33" fill="none" xmlns="http://www.w3.org/2000/svg">
<mask id="mask0_4531_40959" style="mask-type:alpha" maskUnits="userSpaceOnUse" x="4" y="8" width="25" height="17">
<path d="M26.5 8.5H6.5C5.39543 8.5 4.5 9.39543 4.5 10.5V22.5C4.5 23.6046 5.39543 24.5 6.5 24.5H26.5C27.6046 24.5 28.5 23.6046 28.5 22.5V10.5C28.5 9.39543 27.6046 8.5 26.5 8.5Z" fill="white"/>
</mask>
<g mask="url(#mask0_4531_40959)">
<path d="M26.5 8.5H6.5C5.39543 8.5 4.5 9.39543 4.5 10.5V22.5C4.5 23.6046 5.39543 24.5 6.5 24.5H26.5C27.6046 24.5 28.5 23.6046 28.5 22.5V10.5C28.5 9.39543 27.6046 8.5 26.5 8.5Z" fill="white"/>
<path d="M28.5 23.188C28.5 23.9126 27.9126 24.5 27.188 24.5H5.812C5.0874 24.5 4.5 23.9126 4.5 23.188H28.5ZM28.5 20.74V21.964H4.5V20.74H28.5ZM28.5 18.292V19.516H4.5V18.292H28.5ZM28.5 15.844V17.068H4.5V15.844H28.5ZM28.5 13.396V14.62H4.5V13.396H28.5ZM28.5 10.948V12.172H4.5V10.948H28.5ZM27.276 8.5C27.9097 8.5 28.431 8.98164 28.4937 9.59885L28.5 9.724H5.18838C5.18838 9.048 5.73638 8.5 6.41238 8.5H27.276Z" fill="#F44336"/>
<path d="M6.5 8.5H16V17.068H4.5V10.5C4.5 9.39543 5.39543 8.5 6.5 8.5Z" fill="#0D47A1"/>
<path d="M5.59362 15.3168L5.68882 15.5984H5.98402C6.00081 15.5988 6.01555 15.6097 6.02091 15.6256C6.02628 15.6415 6.02113 15.6591 6.00802 15.6696L5.76802 15.8464L5.85842 16.128C5.86401 16.1445 5.85805 16.1627 5.8438 16.1727C5.82955 16.1827 5.81042 16.1821 5.79682 16.1712L5.55682 15.9992L5.31682 16.1712C5.30304 16.1809 5.28466 16.1809 5.27086 16.1712C5.25707 16.1616 5.25081 16.1443 5.25522 16.128L5.35362 15.848L5.11362 15.6712C5.10052 15.6607 5.09537 15.6431 5.10073 15.6272C5.1061 15.6113 5.12083 15.6004 5.13762 15.6H5.43362L5.52882 15.3184C5.53442 15.2784 5.58242 15.2784 5.59362 15.3168ZM14.629 15.2913C14.6447 15.2909 14.6587 15.3015 14.6624 15.3168L14.7576 15.5984H15.0528C15.0696 15.5988 15.0843 15.6097 15.0897 15.6256C15.0951 15.6415 15.0899 15.6591 15.0768 15.6696L14.8368 15.8464L14.9272 16.128C14.9328 16.1445 14.9269 16.1627 14.9126 16.1727C14.8984 16.1827 14.8792 16.1821 14.8656 16.1712L14.6256 15.9992L14.3856 16.1712C14.3718 16.1809 14.3535 16.1809 14.3397 16.1712C14.3259 16.1616 14.3196 16.1443 14.324 16.128L14.4224 15.848L14.1824 15.6712C14.1693 15.6607 14.1642 15.6431 14.1695 15.6272C14.1749 15.6113 14.1896 15.6004 14.2064 15.6H14.5016L14.5968 15.3184C14.5998 15.3029 14.6132 15.2916 14.629 15.2913ZM12.3602 15.2913C12.3759 15.2909 12.3899 15.3015 12.3936 15.3168L12.4888 15.5984H12.784C12.8008 15.5988 12.8155 15.6097 12.8209 15.6256C12.8263 15.6415 12.8211 15.6591 12.808 15.6696L12.568 15.8464L12.6584 16.128C12.664 16.1445 12.6581 16.1627 12.6438 16.1727C12.6296 16.1827 12.6104 16.1821 12.5968 16.1712L12.3568 15.9992L12.1168 16.1712C12.103 16.1809 12.0847 16.1809 12.0709 16.1712C12.0571 16.1616 12.0508 16.1443 12.0552 16.128L12.1536 15.848L11.9136 15.6712C11.9005 15.6607 11.8954 15.6431 11.9007 15.6272C11.9061 15.6113 11.9208 15.6004 11.9376 15.6H12.2328L12.328 15.3184C12.331 15.3029 12.3444 15.2916 12.3602 15.2913ZM7.86162 15.3168L7.95682 15.5984H8.25202C8.26881 15.5988 8.28355 15.6097 8.28891 15.6256C8.29428 15.6415 8.28913 15.6591 8.27602 15.6696L8.03602 15.8464L8.12642 16.128C8.13201 16.1445 8.12606 16.1627 8.1118 16.1727C8.09755 16.1827 8.07842 16.1821 8.06482 16.1712L7.82482 15.9992L7.58482 16.1712C7.57104 16.1809 7.55266 16.1809 7.53886 16.1712C7.52507 16.1616 7.51881 16.1443 7.52322 16.128L7.62162 15.848L7.38162 15.6712C7.36852 15.6607 7.36337 15.6431 7.36873 15.6272C7.3741 15.6113 7.38883 15.6004 7.40562 15.6H7.70162L7.79682 15.3184C7.79762 15.2784 7.85042 15.2784 7.86162 15.3168ZM10.1304 15.3168L10.2256 15.5984H10.5208C10.5376 15.5988 10.5523 15.6097 10.5577 15.6256C10.5631 15.6415 10.5579 15.6591 10.5448 15.6696L10.3048 15.8464L10.3952 16.128C10.4008 16.1445 10.3949 16.1627 10.3806 16.1727C10.3664 16.1827 10.3472 16.1821 10.3336 16.1712L10.0936 15.9992L9.85362 16.1712C9.83984 16.1809 9.82146 16.1809 9.80766 16.1712C9.79387 16.1616 9.78761 16.1443 9.79202 16.128L9.89042 15.848L9.65042 15.6712C9.63732 15.6607 9.63217 15.6431 9.63754 15.6272C9.6429 15.6113 9.65763 15.6004 9.67442 15.6H9.97042L10.0656 15.3184C10.0664 15.2784 10.1192 15.2784 10.1304 15.3168ZM6.72802 14.5728L6.82322 14.8544H7.11842C7.13521 14.8548 7.14995 14.8657 7.15531 14.8816C7.16068 14.8975 7.15553 14.9151 7.14242 14.9256L6.90242 15.1024L6.99282 15.384C6.99841 15.4005 6.99245 15.4187 6.9782 15.4287C6.96395 15.4387 6.94482 15.4381 6.93122 15.4272L6.69122 15.2552L6.45122 15.4272C6.43744 15.4369 6.41906 15.4369 6.40526 15.4272C6.39147 15.4176 6.38521 15.4003 6.38962 15.384L6.48002 15.1024L6.24002 14.9256C6.22692 14.9151 6.22177 14.8975 6.22713 14.8816C6.2325 14.8657 6.24723 14.8548 6.26402 14.8544H6.56802L6.66322 14.5728C6.66882 14.5344 6.71682 14.5344 6.72802 14.5728ZM13.5096 14.5409C13.521 14.5475 13.528 14.5597 13.528 14.5728L13.6232 14.8544H13.9184C13.9352 14.8548 13.9499 14.8657 13.9553 14.8816C13.9607 14.8975 13.9555 14.9151 13.9424 14.9256L13.7024 15.1024L13.7928 15.384C13.7984 15.4005 13.7925 15.4187 13.7782 15.4287C13.764 15.4387 13.7448 15.4381 13.7312 15.4272L13.4912 15.2552L13.2512 15.4272C13.2374 15.4369 13.2191 15.4369 13.2053 15.4272C13.1915 15.4176 13.1852 15.4003 13.1896 15.384L13.28 15.1024L13.04 14.9256C13.0269 14.9151 13.0218 14.8975 13.0271 14.8816C13.0325 14.8657 13.0472 14.8548 13.064 14.8544H13.3592L13.4544 14.5728C13.4544 14.5597 13.4614 14.5475 13.4728 14.5409C13.4842 14.5344 13.4982 14.5344 13.5096 14.5409ZM11.2648 14.5728L11.36 14.8544H11.6552C11.672 14.8548 11.6867 14.8657 11.6921 14.8816C11.6975 14.8975 11.6923 14.9151 11.6792 14.9256L11.4392 15.1024L11.5296 15.384C11.5352 15.4005 11.5293 15.4187 11.515 15.4287C11.5008 15.4387 11.4816 15.4381 11.468 15.4272L11.228 15.2552L10.988 15.4272C10.9742 15.4369 10.9559 15.4369 10.9421 15.4272C10.9283 15.4176 10.922 15.4003 10.9264 15.384L11.0168 15.1024L10.7768 14.9256C10.7637 14.9151 10.7586 14.8975 10.7639 14.8816C10.7693 14.8657 10.784 14.8548 10.8008 14.8544H11.096L11.1912 14.5728C11.2008 14.5344 11.2536 14.5344 11.2648 14.5728ZM8.99602 14.5728L9.09122 14.8544H9.38642C9.40321 14.8548 9.41795 14.8657 9.42331 14.8816C9.42868 14.8975 9.42353 14.9151 9.41042 14.9256L9.17042 15.1024L9.26082 15.384C9.26641 15.4005 9.26046 15.4187 9.2462 15.4287C9.23195 15.4387 9.21282 15.4381 9.19922 15.4272L8.95922 15.2552L8.71922 15.4272C8.70544 15.4369 8.68706 15.4369 8.67326 15.4272C8.65947 15.4176 8.65321 15.4003 8.65762 15.384L8.74802 15.1024L8.50802 14.9256C8.49492 14.9151 8.48977 14.8975 8.49513 14.8816C8.5005 14.8657 8.51523 14.8548 8.53202 14.8544H8.83602L8.93122 14.5728C8.93202 14.5344 8.98482 14.5344 8.99602 14.5728ZM7.86162 13.852L7.95682 14.1336H8.25202C8.26881 14.134 8.28355 14.1449 8.28891 14.1608C8.29428 14.1767 8.28913 14.1943 8.27602 14.2048L8.03602 14.3816L8.12642 14.6632C8.13201 14.6797 8.12606 14.6979 8.1118 14.7079C8.09755 14.7179 8.07842 14.7173 8.06482 14.7064L7.82482 14.5344L7.58482 14.7064C7.57104 14.7161 7.55266 14.7161 7.53886 14.7064C7.52507 14.6968 7.51881 14.6795 7.52322 14.6632L7.61362 14.3816L7.37362 14.2048C7.36052 14.1943 7.35537 14.1767 7.36073 14.1608C7.3661 14.1449 7.38083 14.134 7.39762 14.1336H7.70162L7.79682 13.852C7.79762 13.8192 7.85042 13.8192 7.86162 13.852ZM14.6624 13.852L14.7576 14.1336H15.0528C15.0696 14.134 15.0843 14.1449 15.0897 14.1608C15.0951 14.1767 15.0899 14.1943 15.0768 14.2048L14.8368 14.3816L14.9272 14.6632C14.9328 14.6797 14.9269 14.6979 14.9126 14.7079C14.8984 14.7179 14.8792 14.7173 14.8656 14.7064L14.6256 14.5344L14.3856 14.7064C14.3718 14.7161 14.3535 14.7161 14.3397 14.7064C14.3259 14.6968 14.3196 14.6795 14.324 14.6632L14.4144 14.3816L14.1744 14.2048C14.1613 14.1943 14.1562 14.1767 14.1615 14.1608C14.1669 14.1449 14.1816 14.134 14.1984 14.1336H14.4936L14.5888 13.852C14.6032 13.8192 14.656 13.8192 14.6624 13.852ZM5.59362 13.852L5.68882 14.1336H5.98402C6.00081 14.134 6.01555 14.1449 6.02091 14.1608C6.02628 14.1767 6.02113 14.1943 6.00802 14.2048L5.76802 14.3816L5.85842 14.6632C5.86401 14.6797 5.85805 14.6979 5.8438 14.7079C5.82955 14.7179 5.81042 14.7173 5.79682 14.7064L5.55682 14.5344L5.31682 14.7064C5.30304 14.7161 5.28466 14.7161 5.27086 14.7064C5.25707 14.6968 5.25081 14.6795 5.25522 14.6632L5.34562 14.3816L5.10562 14.2048C5.09252 14.1943 5.08737 14.1767 5.09273 14.1608C5.0981 14.1449 5.11283 14.134 5.12962 14.1336H5.43362L5.52882 13.852C5.53442 13.8192 5.58242 13.8192 5.59362 13.852ZM12.3936 13.852L12.4888 14.1336H12.784C12.8008 14.134 12.8155 14.1449 12.8209 14.1608C12.8263 14.1767 12.8211 14.1943 12.808 14.2048L12.568 14.3816L12.6584 14.6632C12.664 14.6797 12.6581 14.6979 12.6438 14.7079C12.6296 14.7179 12.6104 14.7173 12.5968 14.7064L12.3568 14.5344L12.1168 14.7064C12.103 14.7161 12.0847 14.7161 12.0709 14.7064C12.0571 14.6968 12.0508 14.6795 12.0552 14.6632L12.1456 14.3816L11.9056 14.2048C11.8925 14.1943 11.8874 14.1767 11.8927 14.1608C11.8981 14.1449 11.9128 14.134 11.9296 14.1336H12.2248L12.32 13.852C12.3344 13.8192 12.3872 13.8192 12.3936 13.852ZM10.1304 13.852L10.2256 14.1336H10.5208C10.5376 14.134 10.5523 14.1449 10.5577 14.1608C10.5631 14.1767 10.5579 14.1943 10.5448 14.2048L10.3048 14.3816L10.3952 14.6632C10.4008 14.6797 10.3949 14.6979 10.3806 14.7079C10.3664 14.7179 10.3472 14.7173 10.3336 14.7064L10.0936 14.5344L9.85362 14.7064C9.83984 14.7161 9.82146 14.7161 9.80766 14.7064C9.79387 14.6968 9.78761 14.6795 9.79202 14.6632L9.88242 14.3816L9.64242 14.2048C9.62932 14.1943 9.62417 14.1767 9.62953 14.1608C9.6349 14.1449 9.64963 14.134 9.66642 14.1336H9.97042L10.0656 13.852C10.0664 13.8192 10.1192 13.8192 10.1304 13.852ZM6.72802 13.1088L6.82322 13.3904H7.11842C7.13521 13.3908 7.14995 13.4017 7.15531 13.4176C7.16068 13.4335 7.15553 13.4511 7.14242 13.4616L6.90242 13.6384L6.99282 13.92C6.99841 13.9365 6.99245 13.9547 6.9782 13.9647C6.96395 13.9747 6.94482 13.9741 6.93122 13.9632L6.69122 13.7912L6.45122 13.9632C6.43744 13.9729 6.41906 13.9729 6.40526 13.9632C6.39147 13.9536 6.38521 13.9363 6.38962 13.92L6.48802 13.64L6.24802 13.4632C6.23492 13.4527 6.22977 13.4351 6.23513 13.4192C6.2405 13.4033 6.25523 13.3924 6.27202 13.392H6.56802L6.66322 13.1104C6.66882 13.0704 6.71682 13.0704 6.72802 13.1088ZM13.4912 13.072C13.5115 13.072 13.528 13.0885 13.528 13.1088L13.6232 13.3904H13.9184C13.9352 13.3908 13.9499 13.4017 13.9553 13.4176C13.9607 13.4335 13.9555 13.4511 13.9424 13.4616L13.7024 13.6384L13.7928 13.92C13.7984 13.9365 13.7925 13.9547 13.7782 13.9647C13.764 13.9747 13.7448 13.9741 13.7312 13.9632L13.4912 13.7912L13.2512 13.9632C13.2374 13.9729 13.2191 13.9729 13.2053 13.9632C13.1915 13.9536 13.1852 13.9363 13.1896 13.92L13.28 13.6384L13.04 13.4616C13.0269 13.4511 13.0218 13.4335 13.0271 13.4176C13.0325 13.4017 13.0472 13.3908 13.064 13.3904H13.3592L13.4544 13.1088C13.4544 13.0885 13.4709 13.072 13.4912 13.072ZM11.2648 13.1088L11.36 13.3904H11.6552C11.672 13.3908 11.6867 13.4017 11.6921 13.4176C11.6975 13.4335 11.6923 13.4511 11.6792 13.4616L11.4392 13.6384L11.5296 13.92C11.5352 13.9365 11.5293 13.9547 11.515 13.9647C11.5008 13.9747 11.4816 13.9741 11.468 13.9632L11.228 13.7912L10.988 13.9632C10.9742 13.9729 10.9559 13.9729 10.9421 13.9632C10.9283 13.9536 10.922 13.9363 10.9264 13.92L11.0168 13.6384L10.7768 13.4616C10.7637 13.4511 10.7586 13.4335 10.7639 13.4176C10.7693 13.4017 10.784 13.3908 10.8008 13.3904H11.096L11.1912 13.1088C11.2008 13.0704 11.2536 13.0704 11.2648 13.1088ZM8.99602 13.1088L9.09122 13.3904H9.38642C9.40321 13.3908 9.41795 13.4017 9.42331 13.4176C9.42868 13.4335 9.42353 13.4511 9.41042 13.4616L9.17042 13.6384L9.26082 13.92C9.26641 13.9365 9.26046 13.9547 9.2462 13.9647C9.23195 13.9747 9.21282 13.9741 9.19922 13.9632L8.95922 13.7912L8.71922 13.9632C8.70544 13.9729 8.68706 13.9729 8.67326 13.9632C8.65947 13.9536 8.65321 13.9363 8.65762 13.92L8.75602 13.64L8.51602 13.4632C8.50292 13.4527 8.49777 13.4351 8.50313 13.4192C8.5085 13.4033 8.52323 13.3924 8.54002 13.392H8.83602L8.93122 13.1104C8.93202 13.0704 8.98482 13.0704 8.99602 13.1088ZM7.86162 12.3928L7.95682 12.6744H8.25202C8.26881 12.6748 8.28355 12.6857 8.28891 12.7016C8.29428 12.7175 8.28913 12.7351 8.27602 12.7456L8.03602 12.9224L8.12642 13.204C8.13201 13.2205 8.12606 13.2387 8.1118 13.2487C8.09755 13.2587 8.07842 13.2581 8.06482 13.2472L7.82482 13.0752L7.58482 13.2472C7.57104 13.2569 7.55266 13.2569 7.53886 13.2472C7.52507 13.2376 7.51881 13.2203 7.52322 13.204L7.62162 12.924L7.38162 12.7472C7.36852 12.7367 7.36337 12.7191 7.36873 12.7032C7.3741 12.6873 7.38883 12.6764 7.40562 12.676H7.70162L7.79682 12.3944C7.79762 12.3544 7.85042 12.3544 7.86162 12.3928ZM14.629 12.3673C14.6447 12.3669 14.6587 12.3775 14.6624 12.3928L14.7576 12.6744H15.0528C15.0696 12.6748 15.0843 12.6857 15.0897 12.7016C15.0951 12.7175 15.0899 12.7351 15.0768 12.7456L14.8368 12.9224L14.9272 13.204C14.9328 13.2205 14.9269 13.2387 14.9126 13.2487C14.8984 13.2587 14.8792 13.2581 14.8656 13.2472L14.6256 13.0752L14.3856 13.2472C14.3718 13.2569 14.3535 13.2569 14.3397 13.2472C14.3259 13.2376 14.3196 13.2203 14.324 13.204L14.4224 12.924L14.1824 12.7472C14.1693 12.7367 14.1642 12.7191 14.1695 12.7032C14.1749 12.6873 14.1896 12.6764 14.2064 12.676H14.5016L14.5968 12.3944C14.5998 12.3789 14.6132 12.3676 14.629 12.3673ZM12.3568 12.356C12.3771 12.356 12.3936 12.3725 12.3936 12.3928L12.4888 12.6744H12.784C12.8008 12.6748 12.8155 12.6857 12.8209 12.7016C12.8263 12.7175 12.8211 12.7351 12.808 12.7456L12.568 12.9224L12.6584 13.204C12.664 13.2205 12.6581 13.2387 12.6438 13.2487C12.6296 13.2587 12.6104 13.2581 12.5968 13.2472L12.3568 13.0752L12.1168 13.2472C12.103 13.2569 12.0847 13.2569 12.0709 13.2472C12.0571 13.2376 12.0508 13.2203 12.0552 13.204L12.1456 12.9224L11.9056 12.7456C11.8925 12.7351 11.8874 12.7175 11.8927 12.7016C11.8981 12.6857 11.9128 12.6748 11.9296 12.6744H12.2248L12.32 12.3928C12.32 12.3725 12.3365 12.356 12.3568 12.356ZM5.59362 12.3928L5.68882 12.6744H5.98402C6.00081 12.6748 6.01555 12.6857 6.02091 12.7016C6.02628 12.7175 6.02113 12.7351 6.00802 12.7456L5.76802 12.9224L5.85842 13.204C5.86401 13.2205 5.85805 13.2387 5.8438 13.2487C5.82955 13.2587 5.81042 13.2581 5.79682 13.2472L5.55682 13.0752L5.31682 13.2472C5.30304 13.2569 5.28466 13.2569 5.27086 13.2472C5.25707 13.2376 5.25081 13.2203 5.25522 13.204L5.35362 12.924L5.11362 12.7472C5.10052 12.7367 5.09537 12.7191 5.10073 12.7032C5.1061 12.6873 5.12083 12.6764 5.13762 12.676H5.43362L5.52882 12.3944C5.53442 12.3544 5.58242 12.3544 5.59362 12.3928ZM10.1304 12.3928L10.2256 12.6744H10.5208C10.5376 12.6748 10.5523 12.6857 10.5577 12.7016C10.5631 12.7175 10.5579 12.7351 10.5448 12.7456L10.3048 12.9224L10.3952 13.204C10.4008 13.2205 10.3949 13.2387 10.3806 13.2487C10.3664 13.2587 10.3472 13.2581 10.3336 13.2472L10.0936 13.0752L9.85362 13.2472C9.83984 13.2569 9.82146 13.2569 9.80766 13.2472C9.79387 13.2376 9.78761 13.2203 9.79202 13.204L9.88242 12.9224L9.64242 12.7456C9.62932 12.7351 9.62417 12.7175 9.62953 12.7016C9.6349 12.6857 9.64963 12.6748 9.66642 12.6744H9.97042L10.0656 12.3928C10.0664 12.3544 10.1192 12.3544 10.1304 12.3928ZM6.72802 11.6432L6.82322 11.9248H7.11842C7.13521 11.9252 7.14995 11.9361 7.15531 11.952C7.16068 11.9679 7.15553 11.9855 7.14242 11.996L6.90242 12.1728L6.99282 12.4544C6.99841 12.4709 6.99245 12.4891 6.9782 12.4991C6.96395 12.5091 6.94482 12.5085 6.93122 12.4976L6.69122 12.3256L6.45122 12.4976C6.43744 12.5073 6.41906 12.5073 6.40526 12.4976C6.39147 12.488 6.38521 12.4707 6.38962 12.4544L6.48002 12.1728L6.24002 11.996C6.22692 11.9855 6.22177 11.9679 6.22713 11.952C6.2325 11.9361 6.24723 11.9252 6.26402 11.9248H6.56802L6.66322 11.6432C6.66882 11.6104 6.71682 11.6104 6.72802 11.6432ZM11.2648 11.6432L11.36 11.9248H11.6552C11.672 11.9252 11.6867 11.9361 11.6921 11.952C11.6975 11.9679 11.6923 11.9855 11.6792 11.996L11.4392 12.1728L11.5296 12.4544C11.5352 12.4709 11.5293 12.4891 11.515 12.4991C11.5008 12.5091 11.4816 12.5085 11.468 12.4976L11.228 12.3256L10.988 12.4976C10.9742 12.5073 10.9559 12.5073 10.9421 12.4976C10.9283 12.488 10.922 12.4707 10.9264 12.4544L11.0168 12.1728L10.7768 11.996C10.7637 11.9855 10.7586 11.9679 10.7639 11.952C10.7693 11.9361 10.784 11.9252 10.8008 11.9248H11.096L11.1912 11.6432C11.2008 11.6104 11.2536 11.6104 11.2648 11.6432ZM8.99602 11.6432L9.09122 11.9248H9.38642C9.40321 11.9252 9.41795 11.9361 9.42331 11.952C9.42868 11.9679 9.42353 11.9855 9.41042 11.996L9.17042 12.1728L9.26082 12.4544C9.26641 12.4709 9.26046 12.4891 9.2462 12.4991C9.23195 12.5091 9.21282 12.5085 9.19922 12.4976L8.95922 12.3256L8.71922 12.4976C8.70544 12.5073 8.68706 12.5073 8.67326 12.4976C8.65947 12.488 8.65321 12.4707 8.65762 12.4544L8.74802 12.1728L8.50802 11.996C8.49492 11.9855 8.48977 11.9679 8.49513 11.952C8.5005 11.9361 8.51523 11.9252 8.53202 11.9248H8.83602L8.93122 11.6432C8.93202 11.6104 8.98482 11.6104 8.99602 11.6432ZM13.528 11.6432L13.6232 11.9248H13.9184C13.9352 11.9252 13.9499 11.9361 13.9553 11.952C13.9607 11.9679 13.9555 11.9855 13.9424 11.996L13.7024 12.1728L13.7928 12.4544C13.7984 12.4709 13.7925 12.4891 13.7782 12.4991C13.764 12.5091 13.7448 12.5085 13.7312 12.4976L13.4912 12.3256L13.2512 12.4976C13.2374 12.5073 13.2191 12.5073 13.2053 12.4976C13.1915 12.488 13.1852 12.4707 13.1896 12.4544L13.28 12.1728L13.04 11.996C13.0269 11.9855 13.0218 11.9679 13.0271 11.952C13.0325 11.9361 13.0472 11.9252 13.064 11.9248H13.3592L13.4544 11.6432C13.4688 11.6104 13.5216 11.6104 13.528 11.6432ZM10.1304 10.928L10.2256 11.2096H10.5208C10.5376 11.21 10.5523 11.2209 10.5577 11.2368C10.5631 11.2527 10.5579 11.2703 10.5448 11.2808L10.3048 11.4576L10.3952 11.7392C10.4008 11.7557 10.3949 11.7739 10.3806 11.7839C10.3664 11.7939 10.3472 11.7933 10.3336 11.7824L10.0936 11.6104L9.85362 11.7824C9.83984 11.7921 9.82146 11.7921 9.80766 11.7824C9.79387 11.7728 9.78761 11.7555 9.79202 11.7392L9.88242 11.4576L9.64242 11.2808C9.62932 11.2703 9.62417 11.2527 9.62953 11.2368C9.6349 11.2209 9.64963 11.21 9.66642 11.2096H9.97042L10.0656 10.928C10.0664 10.8952 10.1192 10.8952 10.1304 10.928ZM5.59362 10.928L5.68882 11.2096H5.98402C6.00081 11.21 6.01555 11.2209 6.02091 11.2368C6.02628 11.2527 6.02113 11.2703 6.00802 11.2808L5.76802 11.4576L5.85842 11.7392C5.86401 11.7557 5.85805 11.7739 5.8438 11.7839C5.82955 11.7939 5.81042 11.7933 5.79682 11.7824L5.55682 11.6104L5.31682 11.7824C5.30304 11.7921 5.28466 11.7921 5.27086 11.7824C5.25707 11.7728 5.25081 11.7555 5.25522 11.7392L5.34562 11.4576L5.10562 11.2808C5.09252 11.2703 5.08737 11.2527 5.09273 11.2368C5.0981 11.2209 5.11283 11.21 5.12962 11.2096H5.43362L5.52882 10.928C5.53442 10.8952 5.58242 10.8952 5.59362 10.928ZM7.86482 10.928L7.96002 11.2096H8.25682C8.27361 11.21 8.28835 11.2209 8.29371 11.2368C8.29908 11.2527 8.29393 11.2703 8.28082 11.2808L8.04082 11.4576L8.13122 11.7392C8.13681 11.7557 8.13085 11.7739 8.1166 11.7839C8.10235 11.7939 8.08322 11.7933 8.06962 11.7824L7.82962 11.6104L7.58962 11.7824C7.57584 11.7921 7.55746 11.7921 7.54366 11.7824C7.52987 11.7728 7.52361 11.7555 7.52802 11.7392L7.61842 11.4576L7.37842 11.2808C7.36532 11.2703 7.36017 11.2527 7.36554 11.2368C7.3709 11.2209 7.38563 11.21 7.40242 11.2096H7.69682L7.79202 10.928C7.79762 10.8952 7.85042 10.8952 7.86482 10.928ZM12.3936 10.928L12.4888 11.2096H12.784C12.8008 11.21 12.8155 11.2209 12.8209 11.2368C12.8263 11.2527 12.8211 11.2703 12.808 11.2808L12.568 11.4576L12.6584 11.7392C12.664 11.7557 12.6581 11.7739 12.6438 11.7839C12.6296 11.7939 12.6104 11.7933 12.5968 11.7824L12.3568 11.6104L12.1168 11.7824C12.103 11.7921 12.0847 11.7921 12.0709 11.7824C12.0571 11.7728 12.0508 11.7555 12.0552 11.7392L12.1456 11.4576L11.9056 11.2808C11.8925 11.2703 11.8874 11.2527 11.8927 11.2368C11.8981 11.2209 11.9128 11.21 11.9296 11.2096H12.2248L12.32 10.928C12.3344 10.8952 12.3872 10.8952 12.3936 10.928ZM14.6624 10.928L14.7576 11.2096H15.0528C15.0696 11.21 15.0843 11.2209 15.0897 11.2368C15.0951 11.2527 15.0899 11.2703 15.0768 11.2808L14.8368 11.4576L14.9272 11.7392C14.9328 11.7557 14.9269 11.7739 14.9126 11.7839C14.8984 11.7939 14.8792 11.7933 14.8656 11.7824L14.6256 11.6104L14.3856 11.7824C14.3718 11.7921 14.3535 11.7921 14.3397 11.7824C14.3259 11.7728 14.3196 11.7555 14.324 11.7392L14.4144 11.4576L14.1744 11.2808C14.1613 11.2703 14.1562 11.2527 14.1615 11.2368C14.1669 11.2209 14.1816 11.21 14.1984 11.2096H14.4936L14.5888 10.928C14.6032 10.8952 14.656 10.8952 14.6624 10.928ZM11.2648 10.184L11.36 10.4656H11.6552C11.672 10.466 11.6867 10.4769 11.6921 10.4928C11.6975 10.5087 11.6923 10.5263 11.6792 10.5368L11.4392 10.7136L11.5296 10.9952C11.5352 11.0117 11.5293 11.0299 11.515 11.0399C11.5008 11.0499 11.4816 11.0493 11.468 11.0384L11.228 10.8664L10.988 11.0384C10.9742 11.0481 10.9559 11.0481 10.9421 11.0384C10.9283 11.0288 10.922 11.0115 10.9264 10.9952L11.0168 10.7136L10.7768 10.5368C10.7637 10.5263 10.7586 10.5087 10.7639 10.4928C10.7693 10.4769 10.784 10.466 10.8008 10.4656H11.096L11.1912 10.184C11.2008 10.1456 11.2536 10.1456 11.2648 10.184ZM8.99602 10.184L9.09122 10.4656H9.38642C9.40321 10.466 9.41795 10.4769 9.42331 10.4928C9.42868 10.5087 9.42353 10.5263 9.41042 10.5368L9.17042 10.7136L9.26082 10.9952C9.26641 11.0117 9.26046 11.0299 9.2462 11.0399C9.23195 11.0499 9.21282 11.0493 9.19922 11.0384L8.95922 10.8664L8.71922 11.0384C8.70544 11.0481 8.68706 11.0481 8.67326 11.0384C8.65947 11.0288 8.65321 11.0115 8.65762 10.9952L8.75602 10.7152L8.51602 10.5384C8.50292 10.5279 8.49777 10.5103 8.50313 10.4944C8.5085 10.4785 8.52323 10.4676 8.54002 10.4672H8.83602L8.93122 10.1856C8.93202 10.1456 8.98482 10.1456 8.99602 10.184ZM6.72802 10.184L6.82322 10.4656H7.11842C7.13521 10.466 7.14995 10.4769 7.15531 10.4928C7.16068 10.5087 7.15553 10.5263 7.14242 10.5368L6.90242 10.7136L6.99282 10.9952C6.99841 11.0117 6.99245 11.0299 6.9782 11.0399C6.96395 11.0499 6.94482 11.0493 6.93122 11.0384L6.69122 10.8664L6.45122 11.0384C6.43744 11.0481 6.41906 11.0481 6.40526 11.0384C6.39147 11.0288 6.38521 11.0115 6.38962 10.9952L6.48802 10.7152L6.24802 10.5384C6.23492 10.5279 6.22977 10.5103 6.23513 10.4944C6.2405 10.4785 6.25523 10.4676 6.27202 10.4672H6.56802L6.66322 10.1856C6.66882 10.1456 6.71682 10.1456 6.72802 10.184ZM13.5096 10.1521C13.521 10.1587 13.528 10.1709 13.528 10.184L13.6232 10.4656H13.9184C13.9352 10.466 13.9499 10.4769 13.9553 10.4928C13.9607 10.5087 13.9555 10.5263 13.9424 10.5368L13.7024 10.7136L13.7928 10.9952C13.7984 11.0117 13.7925 11.0299 13.7782 11.0399C13.764 11.0499 13.7448 11.0493 13.7312 11.0384L13.4912 10.8664L13.2512 11.0384C13.2374 11.0481 13.2191 11.0481 13.2053 11.0384C13.1915 11.0288 13.1852 11.0115 13.1896 10.9952L13.28 10.7136L13.04 10.5368C13.0269 10.5263 13.0218 10.5087 13.0271 10.4928C13.0325 10.4769 13.0472 10.466 13.064 10.4656H13.3592L13.4544 10.184C13.4544 10.1709 13.4614 10.1587 13.4728 10.1521C13.4842 10.1456 13.4982 10.1456 13.5096 10.1521ZM5.59362 9.46881L5.68882 9.75041H5.98402C6.00081 9.75083 6.01555 9.7617 6.02091 9.77762C6.02628 9.79353 6.02113 9.8111 6.00802 9.82161L5.76802 9.99841L5.85842 10.28C5.86401 10.2965 5.85805 10.3147 5.8438 10.3247C5.82955 10.3347 5.81042 10.3341 5.79682 10.3232L5.55682 10.1512L5.31682 10.3232C5.30304 10.3329 5.28466 10.3329 5.27086 10.3232C5.25707 10.3136 5.25081 10.2963 5.25522 10.28L5.35362 10L5.11362 9.82321C5.10052 9.8127 5.09537 9.79513 5.10073 9.77922C5.1061 9.7633 5.12083 9.75243 5.13762 9.75201H5.43362L5.52882 9.47041C5.53442 9.43041 5.58242 9.43041 5.59362 9.46881ZM7.86162 9.46881L7.95682 9.75041H8.25202C8.26881 9.75083 8.28355 9.7617 8.28891 9.77762C8.29428 9.79353 8.28913 9.8111 8.27602 9.82161L8.03602 9.99841L8.12642 10.28C8.13201 10.2965 8.12606 10.3147 8.1118 10.3247C8.09755 10.3347 8.07842 10.3341 8.06482 10.3232L7.82482 10.1512L7.58482 10.3232C7.57104 10.3329 7.55266 10.3329 7.53886 10.3232C7.52507 10.3136 7.51881 10.2963 7.52322 10.28L7.62162 10L7.38162 9.82321C7.36852 9.8127 7.36337 9.79513 7.36873 9.77922C7.3741 9.7633 7.38883 9.75243 7.40562 9.75201H7.70162L7.79682 9.47041C7.79762 9.43041 7.85042 9.43041 7.86162 9.46881ZM10.1304 9.46881L10.2256 9.75041H10.5208C10.5376 9.75083 10.5523 9.7617 10.5577 9.77762C10.5631 9.79353 10.5579 9.8111 10.5448 9.82161L10.3048 9.99841L10.3952 10.28C10.4008 10.2965 10.3949 10.3147 10.3806 10.3247C10.3664 10.3347 10.3472 10.3341 10.3336 10.3232L10.0936 10.1512L9.85362 10.3232C9.83984 10.3329 9.82146 10.3329 9.80766 10.3232C9.79387 10.3136 9.78761 10.2963 9.79202 10.28L9.88242 9.99841L9.64242 9.82161C9.62932 9.8111 9.62417 9.79353 9.62953 9.77762C9.6349 9.7617 9.64963 9.75083 9.66642 9.75041H9.97042L10.0656 9.46881C10.0664 9.43041 10.1192 9.43041 10.1304 9.46881ZM12.3752 9.43694C12.3866 9.44351 12.3936 9.45566 12.3936 9.46881L12.4888 9.75041H12.784C12.8008 9.75083 12.8155 9.7617 12.8209 9.77762C12.8263 9.79353 12.8211 9.8111 12.808 9.82161L12.568 9.99841L12.6584 10.28C12.664 10.2965 12.6581 10.3147 12.6438 10.3247C12.6296 10.3347 12.6104 10.3341 12.5968 10.3232L12.3568 10.1512L12.1168 10.3232C12.103 10.3329 12.0847 10.3329 12.0709 10.3232C12.0571 10.3136 12.0508 10.2963 12.0552 10.28L12.1456 9.99841L11.9056 9.82161C11.8925 9.8111 11.8874 9.79353 11.8927 9.77762C11.8981 9.7617 11.9128 9.75083 11.9296 9.75041H12.2248L12.32 9.46881C12.32 9.45566 12.327 9.44351 12.3384 9.43694C12.3498 9.43036 12.3638 9.43036 12.3752 9.43694ZM14.629 9.44326C14.6447 9.44287 14.6587 9.4535 14.6624 9.46881L14.7576 9.75041H15.0528C15.0696 9.75083 15.0843 9.7617 15.0897 9.77762C15.0951 9.79353 15.0899 9.8111 15.0768 9.82161L14.8368 9.99841L14.9272 10.28C14.9328 10.2965 14.9269 10.3147 14.9126 10.3247C14.8984 10.3347 14.8792 10.3341 14.8656 10.3232L14.6256 10.1512L14.3856 10.3232C14.3718 10.3329 14.3535 10.3329 14.3397 10.3232C14.3259 10.3136 14.3196 10.2963 14.324 10.28L14.4224 10L14.1824 9.82321C14.1693 9.8127 14.1642 9.79513 14.1695 9.77922C14.1749 9.7633 14.1896 9.75243 14.2064 9.75201H14.5016L14.5968 9.47041C14.5998 9.45493 14.6132 9.44364 14.629 9.44326Z" fill="#F5F5F5"/>
<path fill-rule="evenodd" clip-rule="evenodd" d="M26.5 9.5H6.5C5.94772 9.5 5.5 9.94772 5.5 10.5V22.5C5.5 23.0523 5.94772 23.5 6.5 23.5H26.5C27.0523 23.5 27.5 23.0523 27.5 22.5V10.5C27.5 9.94771 27.0523 9.5 26.5 9.5ZM6.5 8.5C5.39543 8.5 4.5 9.39543 4.5 10.5V22.5C4.5 23.6046 5.39543 24.5 6.5 24.5H26.5C27.6046 24.5 28.5 23.6046 28.5 22.5V10.5C28.5 9.39543 27.6046 8.5 26.5 8.5H6.5Z" fill="black" fill-opacity="0.04"/>
</g>
<path d="M16.5 3.5C16.5 2.94772 16.9477 2.5 17.5 2.5H29.5C30.0523 2.5 30.5 2.94772 30.5 3.5V9.5C30.5 10.0523 30.0523 10.5 29.5 10.5H17.5C16.9477 10.5 16.5 10.0523 16.5 9.5V3.5Z" fill="#0E0E0E"/>
<path d="M21.0994 4.99398H19.2394L19.1314 6.47598H19.1734C19.2214 6.39198 19.2714 6.31798 19.3234 6.25398C19.3754 6.18598 19.4354 6.12798 19.5034 6.07998C19.5714 6.03198 19.6494 5.99598 19.7374 5.97198C19.8254 5.94398 19.9294 5.92998 20.0494 5.92998C20.2294 5.92998 20.3954 5.95998 20.5474 6.01998C20.7034 6.07998 20.8374 6.16598 20.9494 6.27798C21.0654 6.38998 21.1554 6.52798 21.2194 6.69198C21.2834 6.85198 21.3154 7.03398 21.3154 7.23798C21.3154 7.44598 21.2814 7.63798 21.2134 7.81398C21.1494 7.98998 21.0534 8.14198 20.9254 8.26998C20.7974 8.39398 20.6394 8.49198 20.4514 8.56398C20.2674 8.63198 20.0574 8.66598 19.8214 8.66598C19.6334 8.66598 19.4674 8.64398 19.3234 8.59998C19.1794 8.55998 19.0514 8.50598 18.9394 8.43798C18.8314 8.36598 18.7354 8.28598 18.6514 8.19798C18.5714 8.10598 18.4994 8.01198 18.4354 7.91598L18.9274 7.52598C18.9794 7.60998 19.0334 7.68598 19.0894 7.75398C19.1454 7.82198 19.2094 7.88198 19.2814 7.93398C19.3534 7.98598 19.4334 8.02598 19.5214 8.05398C19.6134 8.08198 19.7174 8.09598 19.8334 8.09598C20.0814 8.09598 20.2714 8.02798 20.4034 7.89198C20.5394 7.75598 20.6074 7.56798 20.6074 7.32798V7.25598C20.6074 7.01598 20.5394 6.82798 20.4034 6.69198C20.2714 6.55598 20.0814 6.48798 19.8334 6.48798C19.6534 6.48798 19.5094 6.52198 19.4014 6.58998C19.2934 6.65798 19.2014 6.73398 19.1254 6.81798L18.5674 6.73998L18.7234 4.40598H21.0994V4.99398Z" fill="white"/>
<path d="M23.449 8.66598C23.189 8.66598 22.963 8.61798 22.771 8.52198C22.579 8.42198 22.421 8.27998 22.297 8.09598C22.173 7.91198 22.081 7.68598 22.021 7.41798C21.961 7.14998 21.931 6.84398 21.931 6.49998C21.931 6.15998 21.961 5.85598 22.021 5.58798C22.081 5.31598 22.173 5.08798 22.297 4.90398C22.421 4.71998 22.579 4.57998 22.771 4.48398C22.963 4.38398 23.189 4.33398 23.449 4.33398C23.969 4.33398 24.351 4.52398 24.595 4.90398C24.843 5.28398 24.967 5.81598 24.967 6.49998C24.967 7.18398 24.843 7.71598 24.595 8.09598C24.351 8.47598 23.969 8.66598 23.449 8.66598ZM23.449 8.08998C23.593 8.08998 23.715 8.06198 23.815 8.00598C23.919 7.94598 24.003 7.86198 24.067 7.75398C24.131 7.64598 24.177 7.51798 24.205 7.36998C24.233 7.21798 24.247 7.04998 24.247 6.86598V6.13398C24.247 5.94998 24.233 5.78398 24.205 5.63598C24.177 5.48398 24.131 5.35398 24.067 5.24598C24.003 5.13798 23.919 5.05598 23.815 4.99998C23.715 4.93998 23.593 4.90998 23.449 4.90998C23.305 4.90998 23.181 4.93998 23.077 4.99998C22.977 5.05598 22.895 5.13798 22.831 5.24598C22.767 5.35398 22.721 5.48398 22.693 5.63598C22.665 5.78398 22.651 5.94998 22.651 6.13398V6.86598C22.651 7.04998 22.665 7.21798 22.693 7.36998C22.721 7.51798 22.767 7.64598 22.831 7.75398C22.895 7.86198 22.977 7.94598 23.077 8.00598C23.181 8.06198 23.305 8.08998 23.449 8.08998Z" fill="white"/>
<path d="M27.0467 8.66598C26.7867 8.66598 26.5607 8.61798 26.3687 8.52198C26.1767 8.42198 26.0187 8.27998 25.8947 8.09598C25.7707 7.91198 25.6787 7.68598 25.6187 7.41798C25.5587 7.14998 25.5287 6.84398 25.5287 6.49998C25.5287 6.15998 25.5587 5.85598 25.6187 5.58798C25.6787 5.31598 25.7707 5.08798 25.8947 4.90398C26.0187 4.71998 26.1767 4.57998 26.3687 4.48398C26.5607 4.38398 26.7867 4.33398 27.0467 4.33398C27.5667 4.33398 27.9487 4.52398 28.1927 4.90398C28.4407 5.28398 28.5647 5.81598 28.5647 6.49998C28.5647 7.18398 28.4407 7.71598 28.1927 8.09598C27.9487 8.47598 27.5667 8.66598 27.0467 8.66598ZM27.0467 8.08998C27.1907 8.08998 27.3127 8.06198 27.4127 8.00598C27.5167 7.94598 27.6007 7.86198 27.6647 7.75398C27.7287 7.64598 27.7747 7.51798 27.8027 7.36998C27.8307 7.21798 27.8447 7.04998 27.8447 6.86598V6.13398C27.8447 5.94998 27.8307 5.78398 27.8027 5.63598C27.7747 5.48398 27.7287 5.35398 27.6647 5.24598C27.6007 5.13798 27.5167 5.05598 27.4127 4.99998C27.3127 4.93998 27.1907 4.90998 27.0467 4.90998C26.9027 4.90998 26.7787 4.93998 26.6747 4.99998C26.5747 5.05598 26.4927 5.13798 26.4287 5.24598C26.3647 5.35398 26.3187 5.48398 26.2907 5.63598C26.2627 5.78398 26.2487 5.94998 26.2487 6.13398V6.86598C26.2487 7.04998 26.2627 7.21798 26.2907 7.36998C26.3187 7.51798 26.3647 7.64598 26.4287 7.75398C26.4927 7.86198 26.5747 7.94598 26.6747 8.00598C26.7787 8.06198 26.9027 8.08998 27.0467 8.08998Z" fill="white"/>
</svg>
