<svg width="32" height="32" fill="none" xmlns="http://www.w3.org/2000/svg"><circle cx="16" cy="16" r="16" fill="#0B8311"/><path d="M9 17.07c2.61 1.387 5.335 2.838 7.44 3.961l7.377-3.96A3509.153 3509.153 0 0 1 16.44 28c-2.486-3.649-5.23-7.675-7.44-10.93Zm.284-1.095 7.163-3.822 7.07 3.795-7.066 3.826-7.167-3.799Zm7.155-5.047L9 14.845 16.407 4l7.41 10.869-7.378-3.94Z" fill="#fff"/><path d="m16.439 21.031 7.378-3.96A8395.916 8395.916 0 0 1 16.439 28v-6.969Zm.008-8.878 7.07 3.795-7.066 3.826-.004-7.621Zm-.008-1.224L16.406 4l7.411 10.869-7.378-3.94Z" fill="#ADCDAD"/><path d="m9.283 15.976 7.164.587 7.07-.612-7.066 3.827-7.168-3.802Z" fill="#AECDAE"/><path d="m16.447 16.563 7.07-.612-7.066 3.827-.004-3.215Z" fill="#5B9C5B"/></svg>