<svg xmlns="http://www.w3.org/2000/svg" width="32" height="32"><defs><linearGradient id="a" x1="50%" x2="50%" y1=".511%" y2="100.511%"><stop offset="0%" stop-color="#4D69A2"/><stop offset="100%" stop-color="#3C5A99"/></linearGradient></defs><g fill="none" fill-rule="evenodd"><path d="M0 0h32v32H0z"/><g fill-rule="nonzero"><path fill="url(#a)" d="M31.819 30.125V1.875A1.441 1.441 0 0 0 30.376.432H1.624c-.382 0-.748.15-1.018.42S.183 1.486.18 1.868v28.26a1.439 1.439 0 0 0 1.443 1.441H17.59v-12.5h-4.12V14.76h4.12v-4.677a4.821 4.821 0 0 1 4.593-4.684H26.8v3.916h-2.131c-1.05 0-2.447.85-2.447 1.9v3.546h4.157v4.307h-4.157v12.5h8.154a1.431 1.431 0 0 0 1.02-.423 1.445 1.445 0 0 0 .423-1.021z"/><path fill="#3D568E" d="M30.376 31.749h-8.335V18.888H26.2v-3.946h-4.159v-3.727c0-1.12 1.445-2.079 2.628-2.079h1.948V5.578h-4.434a4.643 4.643 0 0 0-4.411 4.506v4.858H13.65v3.946h4.122v12.861H1.624A1.625 1.625 0 0 1 0 30.128V1.868A1.628 1.628 0 0 1 1.624.251h28.752A1.628 1.628 0 0 1 32 1.875v28.25a1.628 1.628 0 0 1-1.624 1.624zm-7.976-.361h7.974a1.262 1.262 0 0 0 1.263-1.263V1.875A1.261 1.261 0 0 0 30.376.612H1.624A1.264 1.264 0 0 0 .362 1.869v28.259a1.263 1.263 0 0 0 1.263 1.26h15.786v-12.14h-4.122v-4.667h4.122v-4.5a5.018 5.018 0 0 1 1.431-3.37 5.016 5.016 0 0 1 3.341-1.497h4.8V9.5h-2.314c-1 0-2.267.809-2.267 1.718v3.366h4.156v4.667H22.4v12.137z"/></g></g></svg>