<svg xmlns="http://www.w3.org/2000/svg" width="32" height="32"><g fill="none" fill-rule="evenodd"><path d="M0 0h32v32H0z"/><path d="M30.074 16.838v-2.133h-.714v-.7h.714v-1.243h.764v1.246h1v.7h-1v2.072c0 .457.191.664.548.664a.756.756 0 0 0 .348-.066l.266.656c-.195.08-.404.116-.614.108a1.18 1.18 0 0 1-1.312-1.304zm-4.923-.8a2.05 2.05 0 0 1 1.993-2.167 1.948 1.948 0 0 1 1.488.631 1.973 1.973 0 0 1 .504 1.536c0 .058-.008.141-.008.141h-3.213a1.3 1.3 0 0 0 .373.935 1.287 1.287 0 0 0 .927.393 1.127 1.127 0 0 0 1.113-.7L29 17.1a1.846 1.846 0 0 1-1.776 1.113 2.063 2.063 0 0 1-1.511-.63 2.044 2.044 0 0 1-.565-1.537l.003-.008zm1.976-1.47a1.199 1.199 0 0 0-1.162.98h2.358a1.099 1.099 0 0 0-1.196-.976v-.004zm-5.719 2.94h-.033v.563h-.731v-5.939h.764v1.876l-.033.564h.033a1.621 1.621 0 0 1 1.386-.7 2.057 2.057 0 0 1 1.935 2.167 2.054 2.054 0 0 1-1.935 2.166 1.62 1.62 0 0 1-1.386-.694v-.004zm2.557-1.47a1.314 1.314 0 0 0-.317-1.025 1.294 1.294 0 0 0-.978-.441 1.3 1.3 0 0 0-1.247.919c-.054.177-.07.363-.048.547a1.314 1.314 0 0 0 .317 1.025 1.294 1.294 0 0 0 .978.441 1.3 1.3 0 0 0 1.247-.919c.054-.177.07-.363.048-.547zm-7.72.8c0-.922.83-1.42 1.785-1.42.381-.008.76.078 1.1.25v-.108a1.078 1.078 0 0 0-2.034-.4l-.7-.3a1.678 1.678 0 0 1 1.652-.988 1.668 1.668 0 0 1 1.692 1.048c.088.22.128.458.117.695v2.457h-.73v-.564H19.1a1.536 1.536 0 0 1-1.337.7 1.4 1.4 0 0 1-1.055-.35 1.392 1.392 0 0 1-.463-1.011v-.009zm2.889-.523a1.603 1.603 0 0 0-.972-.266c-.8 0-1.12.432-1.12.8 0 .432.448.648.847.648a1.263 1.263 0 0 0 1.245-1.173v-.009zM12.783 14l-.033.564h.033a1.54 1.54 0 0 1 1.287-.7 1.501 1.501 0 0 1 1.553 1.71v2.49h-.764V15.7c0-.847-.424-1.129-1.005-1.129a1.17 1.17 0 0 0-1.071 1.255v2.248h-.763v-5.942h.763v1.876V14zm-4.656 3.5h-.033l.033.564v1.793h-.764v-5.86h.731v.564h.033a1.621 1.621 0 0 1 1.386-.7 2.052 2.052 0 0 1 1.934 2.167 2.054 2.054 0 0 1-1.934 2.166 1.627 1.627 0 0 1-1.386-.682V17.5zm2.557-1.469a1.314 1.314 0 0 0-.317-1.025 1.294 1.294 0 0 0-.978-.441 1.3 1.3 0 0 0-1.247.919c-.054.177-.07.363-.048.547a1.314 1.314 0 0 0 .317 1.025 1.3 1.3 0 0 0 1.515.326 1.3 1.3 0 0 0 .71-.804c.054-.177.07-.363.048-.547zm-4.9 2.033h.766v-5.931h-.764l-.002 5.93zm-3.543-5.931L0 18.074h.847l.581-1.61h2.5l.572 1.61h.847l-2.242-5.942h-.864zm.415.937h.034l.971 2.681-1.976-.001.971-2.68z" fill="#ED1C24" fill-rule="nonzero"/></g></svg>