<svg xmlns="http://www.w3.org/2000/svg" width="32" height="32"><g fill="none" fill-rule="evenodd"><circle cx="25" cy="25" r="5" fill="#EF4852" fill-rule="nonzero"/><path fill="#FFF" fill-rule="nonzero" d="M22.15 27.23v-.61h1.27v-3.39h-.05l-1.05 1.12-.45-.4L23 22.69h1.12v3.93h1.11v.61zm4.64.08a1.64 1.64 0 0 1-1.37-.64l.46-.42c.113.149.256.272.42.36.163.086.345.131.53.13.166.012.33-.03.47-.12a.42.42 0 0 0 .15-.34.414.414 0 0 0-.11-.28.612.612 0 0 0-.37-.14h-.31a1.665 1.665 0 0 1-.82-.3.848.848 0 0 1-.29-.71.995.995 0 0 1 .09-.44.988.988 0 0 1 .25-.32c.12-.093.255-.164.4-.21.166-.045.338-.069.51-.07.254-.008.507.04.74.14.198.098.375.234.52.4l-.43.42a1.049 1.049 0 0 0-.35-.27 1.002 1.002 0 0 0-.48-.12.63.63 0 0 0-.43.12.371.371 0 0 0-.14.31.362.362 0 0 0 .12.29c.122.075.258.122.4.14h.31c.299.03.583.145.82.33a.853.853 0 0 1 .25.65c.003.155-.028.308-.09.45a.993.993 0 0 1-.27.34 1.395 1.395 0 0 1-.42.22c-.182.054-.37.08-.56.08z"/><path d="M0 0h32v32H0z"/><path fill="#84AAAF" fill-rule="nonzero" d="M29.93 11.76a.5.5 0 0 0-.42-.762.5.5 0 0 0-.44.242L26.8 15h-.3a1.52 1.52 0 0 0-.79.23L22.91 13c.06-.16.091-.33.09-.5a1.5 1.5 0 0 0-3 0c0 .348.124.685.35.95L18.8 16a1.481 1.481 0 0 0-1.09.2l-2.8-2.2c.06-.16.091-.33.09-.5a1.502 1.502 0 0 0-1.076-1.48 1.502 1.502 0 0 0-1.504 2.48L10.68 18h-.18a1.52 1.52 0 0 0-.79.23L6.91 16a1.474 1.474 0 0 0 0-.91A1.51 1.51 0 0 0 5.5 14c-.142 0-.283.02-.42.06a1.5 1.5 0 0 0-1 1.86c.087.305.274.573.53.76L3.47 20a1.51 1.51 0 1 0 .95.32L5.53 17c.142 0 .283-.02.42-.06.13-.043.253-.1.37-.17L9.09 19c-.06.16-.091.33-.09.5a1.502 1.502 0 0 0 1.076 1.48 1.502 1.502 0 0 0 1.504-2.48l1.74-3.5h.18a1.52 1.52 0 0 0 .79-.23l2.8 2.23c-.06.156-.09.323-.09.49a1.5 1.5 0 0 0 3 0c0-.348-.124-.685-.35-.95L21.2 14h.3a1.52 1.52 0 0 0 .79-.23l2.8 2.23c-.06.156-.09.323-.09.49a1.5 1.5 0 0 0 3 0c0-.348-.124-.685-.35-.95l2.28-3.78zM3.5 22a.5.5 0 1 1 0-1 .5.5 0 0 1 0 1zm2.14-6H5.5a.503.503 0 0 1-.538-.69.506.506 0 0 1 .398-.31h.14a.505.505 0 0 1 .14 1zm4.86 4a.5.5 0 1 1 0-1 .5.5 0 0 1 0 1zm3-6a.5.5 0 1 1 0-1 .5.5 0 0 1 0 1zm5 4a.5.5 0 1 1 0-1 .5.5 0 0 1 0 1zm3-5a.5.5 0 1 1 0-1 .5.5 0 0 1 0 1zm5 4a.5.5 0 1 1 0-1 .5.5 0 0 1 0 1z"/><rect width="12" height="8" x="2" y="2" fill="#2A2A2A" fill-rule="nonzero" rx="1"/><path fill="#FFF" fill-rule="nonzero" d="M7.44 4.24H5.27L5.14 6h.05c.052-.09.109-.176.17-.26.062-.074.133-.141.21-.2a.814.814 0 0 1 .28-.13c.12-.017.24-.017.36 0 .201-.003.401.03.59.1.173.066.33.169.46.3.14.135.25.299.32.48.154.423.154.887 0 1.31-.07.201-.186.383-.34.53-.156.153-.344.27-.55.34a1.868 1.868 0 0 1-.69.06 2.1 2.1 0 0 1-.59-.08 2.018 2.018 0 0 1-.44-.19A1.88 1.88 0 0 1 4.58 8a3.487 3.487 0 0 1-.25-.33l.57-.47c.059.09.122.177.19.26.067.08.144.15.23.21a.82.82 0 0 0 .28.14c.129.044.265.06.4.05a.899.899 0 0 0 .67-.24.89.89 0 0 0 .19-.62v-.12a.928.928 0 0 0-.23-.66A.94.94 0 0 0 6 6a.892.892 0 0 0-.5.12 1.224 1.224 0 0 0-.33.26l-.65-.09.18-2.72h2.74v.67zM9.9 8.53a1.768 1.768 0 0 1-.79-.17 1.461 1.461 0 0 1-.55-.5 2.218 2.218 0 0 1-.33-.79A4.925 4.925 0 0 1 8.13 6c-.005-.36.028-.718.1-1.07.057-.282.17-.55.33-.79.137-.211.327-.384.55-.5.247-.117.517-.175.79-.17a1.47 1.47 0 0 1 1.34.67c.32.566.469 1.212.43 1.86a3.368 3.368 0 0 1-.43 1.86 1.47 1.47 0 0 1-1.34.67zm0-.67a.83.83 0 0 0 .43-.11.688.688 0 0 0 .29-.29c.086-.14.14-.297.16-.46.033-.192.05-.386.05-.58v-.85a3.3 3.3 0 0 0-.05-.57 1.13 1.13 0 0 0-.16-.45.688.688 0 0 0-.29-.29.997.997 0 0 0-.86 0 .688.688 0 0 0-.29.29A1.132 1.132 0 0 0 9 5a3.304 3.304 0 0 0 0 .58v.86A3.49 3.49 0 0 0 9 7c.021.16.075.313.16.45a.688.688 0 0 0 .29.29.829.829 0 0 0 .45.12z"/></g></svg>