<svg xmlns="http://www.w3.org/2000/svg" width="32" height="32"><g fill="none" fill-rule="evenodd"><path d="M0 0h32v32H0z"/><g fill-rule="nonzero"><path fill="#00AAE8" d="M2.519 9.189H0v2.526h2.519z"/><path fill="#000" d="M2.456 22.35v-9.098H.07v9.098h2.385zm15.847.09v-2.23a5.51 5.51 0 0 1-.86-.054c-.251-.036-.44-.126-.565-.252-.125-.125-.206-.305-.251-.539a5.805 5.805 0 0 1-.054-.88l-.001-3.184h1.73v-2.05h-1.73V9.702H14.18v8.8c0 .746.063 1.375.188 1.879.126.494.34.899.637 1.205.295.305.69.521 1.165.656.484.135 1.093.198 1.82.198h.313zM32 22.35V9h-2.394v13.35H32zm-20.124-8.208c-.663-.72-1.595-1.079-2.778-1.079-.574 0-1.094.117-1.569.35-.466.235-.87.558-1.183.972l-.135.17v-1.301H3.854v9.097h2.375v-4.847.171c.027-.854.233-1.483.628-1.888a2.053 2.053 0 0 1 1.515-.647c.69 0 1.219.216 1.568.63.34.413.52.997.52 1.743v4.828h2.411V17.18c.01-1.295-.331-2.32-.995-3.039zm16.493 3.64c0-.655-.116-1.267-.34-1.842a4.921 4.921 0 0 0-.96-1.501 4.365 4.365 0 0 0-1.478-1.007c-.574-.243-1.21-.36-1.9-.36a4.7 4.7 0 0 0-1.847.369 4.816 4.816 0 0 0-1.497 1.007 4.692 4.692 0 0 0-1.004 1.501 4.584 4.584 0 0 0-.367 1.852c0 .656.116 1.276.35 1.852.232.575.564 1.079.976 1.501.412.423.923.764 1.515 1.007a4.931 4.931 0 0 0 1.945.378c2.026 0 3.28-.926 4.034-1.79l-1.721-1.312c-.359.431-1.22 1.016-2.295 1.016-.672 0-1.228-.153-1.65-.468-.42-.305-.707-.737-.86-1.267l-.027-.081h7.126v-.854zm-7.108-.835c0-.665.762-1.825 2.402-1.834 1.64 0 2.412 1.16 2.412 1.825l-4.814.009z"/></g></g></svg>