<svg xmlns="http://www.w3.org/2000/svg" xmlns:xlink="http://www.w3.org/1999/xlink" width="32" height="32"><defs><rect id="a" width="12" height="8" x="0" y="0" rx="1"/><path id="c" d="M1 0h4.6v4.284H0V1a1 1 0 0 1 1-1z"/></defs><g fill="none" fill-rule="evenodd"><g fill="#6E7287" fill-rule="nonzero" transform="translate(6 6)"><path d="M15 4a1 1 0 0 1 1 1v10a1 1 0 0 1-1 1H5a1 1 0 0 1-1-1V5a1 1 0 0 1 1-1h10m0-1H5a2 2 0 0 0-2 2v10a2 2 0 0 0 2 2h10a2 2 0 0 0 2-2V5a2 2 0 0 0-2-2z"/><path d="M13 7v6H7V7h6m0-1H7a1 1 0 0 0-1 1v6a1 1 0 0 0 1 1h6a1 1 0 0 0 1-1V7a1 1 0 0 0-1-1z"/><rect width="2" height="4" x="5" y="16" rx="1"/><rect width="2" height="4" x="9" y="16" rx="1"/><rect width="2" height="4" x="13" y="16" rx="1"/><rect width="2" height="4" x="5" rx="1"/><rect width="2" height="4" x="9" rx="1"/><rect width="2" height="4" x="13" rx="1"/><rect width="2" height="4" x="1" y="12" rx="1" transform="rotate(-90 2 14)"/><rect width="2" height="4" x="1" y="8" rx="1" transform="rotate(-90 2 10)"/><rect width="2" height="4" x="1" y="4" rx="1" transform="rotate(-90 2 6)"/><rect width="2" height="4" x="17" y="12" rx="1" transform="rotate(-90 18 14)"/><rect width="2" height="4" x="17" y="8" rx="1" transform="rotate(-90 18 10)"/><rect width="2" height="4" x="17" y="4" rx="1" transform="rotate(-90 18 6)"/></g><g transform="translate(17 3)"><mask id="b" fill="#fff"><use xlink:href="#a"/></mask><use fill="#FFF" xlink:href="#a"/><path fill="#F44336" d="M12 7.344a.656.656 0 0 1-.656.656H.656A.656.656 0 0 1 0 7.344h12zm0-1.224v.612H0V6.12h12zm0-1.224v.612H0v-.612h12zm0-1.224v.612H0v-.612h12zm0-1.224v.612H0v-.612h12zm0-1.224v.612H0v-.612h12zM11.388 0c.304 0 .557.222.604.513L12 .612H.344C.344.274.618 0 .956 0h10.432z" mask="url(#b)"/><use fill="#0D47A1" xlink:href="#c"/><rect width="11.5" height="7.5" x=".25" y=".25" stroke="#000" stroke-opacity=".04" stroke-width=".5" rx="1"/></g></g></svg>