<svg xmlns="http://www.w3.org/2000/svg" width="32" height="32"><g fill="none" fill-rule="evenodd"><path d="M0 0h32v32H0z"/><path fill="#E4E4E4" fill-rule="nonzero" d="M29.5 23a.5.5 0 0 1 0 1H29a.5.5 0 0 1 0-1zM6 23a.5.5 0 0 1 0 1H5a.5.5 0 0 1 0-1zm3 0a.5.5 0 0 1 0 1H8a.5.5 0 0 1 0-1zm3 0a.5.5 0 0 1 0 1h-1a.5.5 0 0 1 0-1zm3 0a.5.5 0 0 1 0 1h-1a.5.5 0 0 1 0-1zm3 0a.5.5 0 0 1 0 1h-1a.5.5 0 0 1 0-1zm3 0a.5.5 0 0 1 0 1h-1a.5.5 0 0 1 0-1zm3 0a.5.5 0 0 1 0 1h-1a.5.5 0 0 1 0-1zm3 0a.5.5 0 0 1 0 1h-1a.5.5 0 0 1 0-1zM3 23a.5.5 0 0 1 0 1h-.5a.5.5 0 0 1 0-1zm26.5-11a.5.5 0 0 1 0 1H29a.5.5 0 0 1 0-1zM6 12a.5.5 0 0 1 0 1H5a.5.5 0 0 1 0-1zm3 0a.5.5 0 0 1 0 1H8a.5.5 0 0 1 0-1zm3 0a.5.5 0 0 1 0 1h-1a.5.5 0 0 1 0-1zm3 0a.5.5 0 0 1 0 1h-1a.5.5 0 0 1 0-1zm3 0a.5.5 0 0 1 0 1h-1a.5.5 0 0 1 0-1zm6 0a.5.5 0 0 1 0 1h-1a.5.5 0 0 1 0-1zm3 0a.5.5 0 0 1 0 1h-1a.5.5 0 0 1 0-1zM3 12a.5.5 0 0 1 0 1h-.5a.5.5 0 0 1 0-1z"/><path fill="#84AAAF" fill-rule="nonzero" d="M24.096 7.206a.5.5 0 0 1 .855.51l-.047.078-8 11a.5.5 0 0 1-.575.176l-.086-.041-4.581-2.749-2.889 4.587a.501.501 0 0 1-.66.174l-.081-.055-4.85-4a.5.5 0 0 1 .562-.823l.074.051 4.411 3.638 2.848-4.519a.499.499 0 0 1 .6-.2l.08.038 4.607 2.764 7.732-10.63z"/><circle cx="3.5" cy="16.5" r="1" fill="#FFF" fill-rule="nonzero"/><circle cx="8.5" cy="20.5" r="1" fill="#FFF" fill-rule="nonzero"/><path fill="#EF4852" fill-rule="nonzero" d="m16.17 18.88.57.49a.501.501 0 0 0 .65-.75l-.56-.5a.503.503 0 0 0-.66.76M20.93 23l1.15 1a.505.505 0 0 0 .824-.284.503.503 0 0 0-.164-.476l-1.15-1a.491.491 0 0 0-.7.05.497.497 0 0 0 .04.71zm-1.52-1.33a.491.491 0 0 0 .7-.05.501.501 0 0 0 0-.7l-1.15-1a.503.503 0 0 0-.66.76l1.11.99zm4.2 3.71.56.5a.503.503 0 0 0 .66-.76l-.57-.49c-.13-.144-.33-.2-.515-.144a.499.499 0 0 0-.135.894"/><circle cx="20.5" cy="12.5" r="1" fill="#FFF" fill-rule="nonzero"/><path fill="#58595B" fill-rule="nonzero" d="M20.5 12a.5.5 0 1 1 0 1 .5.5 0 0 1 0-1m0-1a1.5 1.5 0 1 0 .001 3.001A1.5 1.5 0 0 0 20.5 11z"/><circle cx="21.5" cy="23.5" r="1" fill="#FFF" fill-rule="nonzero"/><path fill="#EF4852" fill-rule="nonzero" d="M21.5 23a.5.5 0 1 1 0 1 .5.5 0 0 1 0-1m0-1a1.5 1.5 0 1 0 .001 3.001A1.5 1.5 0 0 0 21.5 22z"/><circle cx="16.5" cy="18.5" r="1" fill="#FFF" fill-rule="nonzero"/><circle cx="11.5" cy="15.5" r="1" fill="#FFF" fill-rule="nonzero"/><path fill="#84AAAF" fill-rule="nonzero" d="M8.5 19a1.5 1.5 0 1 1-.001 3.001A1.5 1.5 0 0 1 8.5 19zm0 1a.5.5 0 1 0 0 1 .5.5 0 0 0 0-1zm8-3a1.5 1.5 0 1 1-.001 3.001A1.5 1.5 0 0 1 16.5 17zm0 1a.5.5 0 1 0 0 1 .5.5 0 0 0 0-1zm-13-3a1.5 1.5 0 1 1-.001 3.001A1.5 1.5 0 0 1 3.5 15zm0 1a.5.5 0 1 0 0 1 .5.5 0 0 0 0-1zm8-2a1.5 1.5 0 1 1-.001 3.001A1.5 1.5 0 0 1 11.5 14zm0 1a.5.5 0 1 0 0 1 .5.5 0 0 0 0-1z"/><path fill="#85ACB0" fill-rule="nonzero" d="m27.82 2.109.066.061 2.004 2.083a.428.428 0 0 1-.077.64.538.538 0 0 1-.64-.012l-.063-.059-1.115-1.075v2.798c0 .251-.223.455-.5.455a.477.477 0 0 1-.482-.373l-.008-.082V3.752L25.89 4.82a.536.536 0 0 1-.628.117l-.075-.046a.427.427 0 0 1-.129-.57l.05-.068 1.996-2.083a.535.535 0 0 1 .642-.11l.074.048z"/><path fill="#FF444F" fill-rule="nonzero" d="m27.18 29.891-.066-.061-2.004-2.083a.428.428 0 0 1 .077-.64.538.538 0 0 1 .64.012l.063.059 1.115 1.075v-2.798c0-.251.223-.455.5-.455.245 0 .44.16.482.373l.008.082v2.793l1.114-1.069a.536.536 0 0 1 .628-.117l.075.046c.192.139.241.38.129.57l-.05.068-1.996 2.083a.535.535 0 0 1-.642.11l-.074-.048z"/><path fill="#2A2A2A" d="M3 10a1 1 0 0 1-1-1V3a1 1 0 0 1 1-1h12a1 1 0 0 1 1 1v6a1 1 0 0 1-1 1H3z"/><path fill="#FFF" d="M6.161 8.305h-.709V4.879l-1.046.356v-.597l1.664-.613h.091zm3.071-2.593c0-.4-.055-.694-.164-.88-.11-.187-.283-.28-.522-.28-.232 0-.403.088-.512.265-.11.177-.167.453-.173.828v.966c0 .398.056.695.167.891.11.195.286.293.524.293.229 0 .398-.09.507-.27.11-.182.167-.465.173-.85v-.963zm.712.797c0 .614-.115 1.076-.344 1.387-.23.312-.58.467-1.048.467-.461 0-.808-.15-1.041-.455-.234-.304-.353-.754-.36-1.35V5.82c0-.613.116-1.073.345-1.379.23-.307.58-.46 1.05-.46.467 0 .815.15 1.045.448.229.3.347.746.353 1.342v.738zm2.938-.797c0-.4-.055-.694-.164-.88-.11-.187-.283-.28-.522-.28-.232 0-.403.088-.512.265-.11.177-.167.453-.173.828v.966c0 .398.056.695.167.891.11.195.286.293.524.293.229 0 .398-.09.507-.27.11-.182.167-.465.173-.85v-.963zm.712.797c0 .614-.115 1.076-.344 1.387-.23.312-.58.467-1.048.467-.461 0-.808-.15-1.041-.455-.234-.304-.353-.754-.36-1.35V5.82c0-.613.116-1.073.345-1.379.23-.307.58-.46 1.05-.46.467 0 .815.15 1.045.448.229.3.347.746.353 1.342v.738z"/></g></svg>