<svg width="33" height="32" viewBox="0 0 33 32" fill="none" xmlns="http://www.w3.org/2000/svg">
<path d="M32.6665 30H0.666504V32H32.6665V30Z" fill="#85ACB0"/>
<path d="M3.1665 18.6C3.2665 18.6 3.3665 18.6 3.4665 18.6L5.2665 21.8C4.9665 22.2 4.8665 22.7 4.8665 23.2C4.8665 24.6 5.9665 25.7 7.3665 25.7C8.7665 25.7 9.8665 24.6 9.8665 23.2C9.8665 22.7 9.7665 22.3 9.4665 21.9L11.5665 18.6C11.6665 18.6 11.8665 18.6 11.9665 18.6C13.3665 18.6 14.4665 17.5 14.4665 16.1C14.4665 15.6 14.3665 15.1 14.0665 14.8L16.1665 11.6C16.2665 11.6 16.4665 11.6 16.5665 11.6C16.6665 11.6 16.8665 11.6 16.9665 11.6L19.0665 14.8C18.7665 15.2 18.6665 15.7 18.6665 16.1C18.6665 17.5 19.7665 18.6 21.1665 18.6C22.5665 18.6 23.6665 17.5 23.6665 16.1C23.6665 15.6 23.5665 15.1 23.2665 14.8L25.3665 11.6C25.4665 11.6 25.6665 11.6 25.7665 11.6C27.1665 11.6 28.2665 10.5 28.2665 9.1C28.2665 8.6 28.0665 8.1 27.8665 7.7L29.8665 5C29.9665 5 30.0665 5 30.1665 5C31.5665 5 32.6665 3.9 32.6665 2.5C32.6665 1.1 31.5665 0 30.1665 0C28.7665 0 27.6665 1.1 27.6665 2.5C27.6665 3 27.8665 3.5 28.1665 3.9L26.4665 6.6C26.3665 6.6 26.2665 6.6 26.0665 6.6C24.6665 6.6 23.5665 7.7 23.5665 9.1C23.5665 9.6 23.6665 10.1 23.9665 10.4L21.8665 13.6C21.7665 13.6 21.5665 13.6 21.4665 13.6C21.3665 13.6 21.1665 13.6 21.0665 13.6L18.9665 10.4C19.2665 10 19.3665 9.5 19.3665 9.1C19.3665 7.7 18.2665 6.6 16.8665 6.6C15.4665 6.6 14.3665 7.7 14.3665 9.1C14.3665 9.6 14.4665 10.1 14.7665 10.4L12.6665 13.6C12.5665 13.6 12.3665 13.6 12.2665 13.6C10.8665 13.6 9.7665 14.7 9.7665 16.1C9.7665 16.6 9.9665 17.1 10.1665 17.5L8.0665 20.7C7.8665 20.7 7.7665 20.6 7.5665 20.6C7.4665 20.6 7.2665 20.6 7.1665 20.6L5.3665 17.5C5.4665 17.2 5.6665 16.7 5.6665 16.1C5.6665 14.7 4.5665 13.6 3.1665 13.6C1.7665 13.6 0.666504 14.7 0.666504 16.1C0.666504 17.5 1.7665 18.6 3.1665 18.6Z" fill="#85ACB0"/>
<path d="M0.666504 1.86471C0.666504 0.833782 1.68985 -0.00195312 2.95222 -0.00195312H14.3808C15.6432 -0.00195312 16.6665 0.833782 16.6665 1.86471V7.46471C16.6665 8.49564 15.6432 9.33138 14.3808 9.33138H2.95222C1.68985 9.33138 0.666504 8.49564 0.666504 7.46471V1.86471Z" fill="#0E0E0E"/>
<path d="M5.34029 6.99805V6.1999H3.5117V5.43749L5.13182 2.84054H6.19204V5.50897H6.7162V6.1999H6.19204V6.99805H5.34029ZM4.22646 5.50897H5.34029V3.76377H5.28072L4.22646 5.50897ZM8.69137 7.06952C8.14736 7.06952 7.74431 6.88091 7.48223 6.50367C7.22016 6.12644 7.08912 5.59831 7.08912 4.91929C7.08912 4.24027 7.22016 3.71215 7.48223 3.33491C7.74431 2.95768 8.14736 2.76906 8.69137 2.76906C9.23538 2.76906 9.63842 2.95768 9.9005 3.33491C10.1626 3.71215 10.2936 4.24027 10.2936 4.91929C10.2936 5.59831 10.1626 6.12644 9.9005 6.50367C9.63842 6.88091 9.23538 7.06952 8.69137 7.06952ZM8.69137 6.31307C8.92962 6.31307 9.09441 6.22571 9.18574 6.05099C9.27707 5.87627 9.32274 5.63008 9.32274 5.31241V4.52618C9.32274 4.20851 9.27707 3.96231 9.18574 3.78759C9.09441 3.61287 8.92962 3.52551 8.69137 3.52551C8.45311 3.52551 8.28832 3.61287 8.19699 3.78759C8.10566 3.96231 8.06 4.20851 8.06 4.52618V5.31241C8.06 5.63008 8.10566 5.87627 8.19699 6.05099C8.28832 6.22571 8.45311 6.31307 8.69137 6.31307ZM12.2628 7.06952C11.7188 7.06952 11.3158 6.88091 11.0537 6.50367C10.7916 6.12644 10.6606 5.59831 10.6606 4.91929C10.6606 4.24027 10.7916 3.71215 11.0537 3.33491C11.3158 2.95768 11.7188 2.76906 12.2628 2.76906C12.8068 2.76906 13.2099 2.95768 13.472 3.33491C13.734 3.71215 13.8651 4.24027 13.8651 4.91929C13.8651 5.59831 13.734 6.12644 13.472 6.50367C13.2099 6.88091 12.8068 7.06952 12.2628 7.06952ZM12.2628 6.31307C12.5011 6.31307 12.6659 6.22571 12.7572 6.05099C12.8485 5.87627 12.8942 5.63008 12.8942 5.31241V4.52618C12.8942 4.20851 12.8485 3.96231 12.7572 3.78759C12.6659 3.61287 12.5011 3.52551 12.2628 3.52551C12.0246 3.52551 11.8598 3.61287 11.7685 3.78759C11.6771 3.96231 11.6315 4.20851 11.6315 4.52618V5.31241C11.6315 5.63008 11.6771 5.87627 11.7685 6.05099C11.8598 6.22571 12.0246 6.31307 12.2628 6.31307Z" fill="white"/>
</svg>
