<svg xmlns="http://www.w3.org/2000/svg" width="28" height="28"><g fill="none" fill-rule="evenodd" transform="translate(-2 -2)"><path stroke="#E4E4E4" stroke-linecap="round" stroke-linejoin="round" d="M29.5 15.5H29"/><path stroke="#E4E4E4" stroke-dasharray="1" stroke-linecap="round" stroke-linejoin="round" d="M27 15.5H4"/><path stroke="#E4E4E4" stroke-linecap="round" stroke-linejoin="round" d="M3 15.5h-.5"/><path stroke="#84AAAF" stroke-linecap="round" stroke-linejoin="round" d="m2.5 15.5 4.05 13h0l9.95-25 4.13 11.95m-.1.05.22-.45"/><path stroke="#84AAAF" stroke-dasharray=".99" stroke-linecap="round" stroke-linejoin="round" d="m21.63 13.28 2.21-4.44"/><path stroke="#84AAAF" stroke-linecap="round" stroke-linejoin="round" d="m24.28 7.95.22-.45"/><path stroke="#EF4852" stroke-linecap="round" stroke-linejoin="round" d="m20.53 15.5.2.46"/><path stroke="#EF4852" stroke-dasharray="1.1" stroke-linecap="round" stroke-linejoin="round" d="m21.62 17.98 2.23 5.05"/><path stroke="#EF4852" stroke-linecap="round" stroke-linejoin="round" d="m24.3 24.04.2.46"/><path d="M0 0h32v32H0z"/><path fill="#EF4852" fill-rule="nonzero" d="m25.15 27.81 2 2a.608.608 0 0 0 .16.11.5.5 0 0 0 .38 0 .608.608 0 0 0 .16-.11l2-2a.5.5 0 0 0-.7-.71L28 28.25v-2.79a.5.5 0 0 0-1 0v2.79l-1.15-1.15a.51.51 0 0 0-.7 0 .5.5 0 0 0 0 .71z"/><path fill="#84AAAF" fill-rule="nonzero" d="m29.85 4.1-2-2a.632.632 0 0 0-.16-.1.5.5 0 0 0-.38 0 .608.608 0 0 0-.16.11l-2 2a.5.5 0 0 0 .7.71L27 3.66v2.79a.5.5 0 0 0 1 0V3.66l1.15 1.15a.51.51 0 0 0 .7 0 .5.5 0 0 0 0-.71z"/><circle cx="6.5" cy="28.5" r="1" fill="#FFF" fill-rule="nonzero"/><path fill="#84AAAF" fill-rule="nonzero" d="M6.5 28a.5.5 0 1 1 0 1 .5.5 0 0 1 0-1m0-1a1.5 1.5 0 1 0 .001 3.001A1.5 1.5 0 0 0 6.5 27z"/><circle cx="11.5" cy="15.5" r="1" fill="#FFF" fill-rule="nonzero"/><path fill="#84AAAF" fill-rule="nonzero" d="M11.5 15a.5.5 0 1 1 0 1 .5.5 0 0 1 0-1m0-1a1.5 1.5 0 1 0 .001 3.001A1.5 1.5 0 0 0 11.5 14z"/><circle cx="16.5" cy="3.5" r="1" fill="#FFF" fill-rule="nonzero"/><path fill="#84AAAF" fill-rule="nonzero" d="M16.5 3a.5.5 0 1 1 0 1 .5.5 0 0 1 0-1m0-1a1.5 1.5 0 1 0 .001 3.001A1.5 1.5 0 0 0 16.5 2z"/><circle cx="20.5" cy="15.5" r="1" fill="#FFF" fill-rule="nonzero"/><path fill="#84AAAF" fill-rule="nonzero" d="M20.5 15a.5.5 0 1 1 0 1 .5.5 0 0 1 0-1m0-1a1.5 1.5 0 1 0 .001 3.001A1.5 1.5 0 0 0 20.5 14z"/></g></svg>