<svg width="32" height="32" viewBox="0 0 32 32" fill="none" xmlns="http://www.w3.org/2000/svg">
<mask id="mask0_4748_22719" style="mask-type:alpha" maskUnits="userSpaceOnUse" x="0" y="6" width="24" height="16">
<path d="M22 6H2C0.89543 6 0 6.89543 0 8V20C0 21.1046 0.89543 22 2 22H22C23.1046 22 24 21.1046 24 20V8C24 6.89543 23.1046 6 22 6Z" fill="white"/>
</mask>
<g mask="url(#mask0_4748_22719)">
<path d="M22 6H2C0.89543 6 0 6.89543 0 8V20C0 21.1046 0.89543 22 2 22H22C23.1046 22 24 21.1046 24 20V8C24 6.89543 23.1046 6 22 6Z" fill="white"/>
<path d="M24 20.688C24 21.4126 23.4126 22 22.688 22H1.312C0.587403 22 0 21.4126 0 20.688H24ZM24 18.24V19.464H0V18.24H24ZM24 15.792V17.016H0V15.792H24ZM24 13.344V14.568H0V13.344H24ZM24 10.896V12.12H0V10.896H24ZM24 8.448V9.672H0V8.448H24ZM22.776 6C23.4097 6 23.931 6.48164 23.9937 7.09885L24 7.224H0.688377C0.688377 6.548 1.23638 6 1.91238 6H22.776Z" fill="#F44336"/>
<path d="M2 6H11.5V14.568H0V8C0 6.89543 0.89543 6 2 6Z" fill="#0D47A1"/>
<path d="M1.09283 12.8168L1.18803 13.0984H1.48323C1.50002 13.0988 1.51476 13.1097 1.52012 13.1256C1.52548 13.1415 1.52034 13.1591 1.50723 13.1696L1.26723 13.3464L1.35763 13.628C1.36322 13.6445 1.35726 13.6627 1.34301 13.6727C1.32876 13.6827 1.30963 13.6821 1.29603 13.6712L1.05603 13.4992L0.816031 13.6712C0.802244 13.6809 0.783865 13.6809 0.770069 13.6712C0.756274 13.6616 0.75002 13.6443 0.754431 13.628L0.852831 13.348L0.612831 13.1712C0.599725 13.1607 0.594577 13.1431 0.599941 13.1272C0.605306 13.1113 0.620041 13.1004 0.636831 13.1H0.932831L1.02803 12.8184C1.03363 12.7784 1.08163 12.7784 1.09283 12.8168ZM10.1282 12.7913C10.1439 12.7909 10.1579 12.8015 10.1616 12.8168L10.2568 13.0984H10.552C10.5688 13.0988 10.5836 13.1097 10.5889 13.1256C10.5943 13.1415 10.5891 13.1591 10.576 13.1696L10.336 13.3464L10.4264 13.628C10.432 13.6445 10.4261 13.6627 10.4118 13.6727C10.3976 13.6827 10.3784 13.6821 10.3648 13.6712L10.1248 13.4992L9.88483 13.6712C9.87104 13.6809 9.85266 13.6809 9.83887 13.6712C9.82507 13.6616 9.81882 13.6443 9.82323 13.628L9.92163 13.348L9.68163 13.1712C9.66852 13.1607 9.66338 13.1431 9.66874 13.1272C9.67411 13.1113 9.68884 13.1004 9.70563 13.1H10.0008L10.096 12.8184C10.0991 12.8029 10.1124 12.7916 10.1282 12.7913ZM7.85939 12.7913C7.87515 12.7909 7.88906 12.8015 7.89283 12.8168L7.98803 13.0984H8.28323C8.30002 13.0988 8.31476 13.1097 8.32012 13.1256C8.32548 13.1415 8.32034 13.1591 8.30723 13.1696L8.06723 13.3464L8.15763 13.628C8.16322 13.6445 8.15726 13.6627 8.14301 13.6727C8.12876 13.6827 8.10963 13.6821 8.09603 13.6712L7.85603 13.4992L7.61603 13.6712C7.60224 13.6809 7.58386 13.6809 7.57007 13.6712C7.55627 13.6616 7.55002 13.6443 7.55443 13.628L7.65283 13.348L7.41283 13.1712C7.39973 13.1607 7.39458 13.1431 7.39994 13.1272C7.40531 13.1113 7.42004 13.1004 7.43683 13.1H7.73203L7.82723 12.8184C7.83025 12.8029 7.84363 12.7916 7.85939 12.7913ZM3.36083 12.8168L3.45603 13.0984H3.75123C3.76802 13.0988 3.78276 13.1097 3.78812 13.1256C3.79348 13.1415 3.78834 13.1591 3.77523 13.1696L3.53523 13.3464L3.62563 13.628C3.63122 13.6445 3.62526 13.6627 3.61101 13.6727C3.59676 13.6827 3.57763 13.6821 3.56403 13.6712L3.32403 13.4992L3.08403 13.6712C3.07024 13.6809 3.05186 13.6809 3.03807 13.6712C3.02427 13.6616 3.01802 13.6443 3.02243 13.628L3.12083 13.348L2.88083 13.1712C2.86773 13.1607 2.86258 13.1431 2.86794 13.1272C2.87331 13.1113 2.88804 13.1004 2.90483 13.1H3.20083L3.29603 12.8184C3.29683 12.7784 3.34963 12.7784 3.36083 12.8168ZM5.62963 12.8168L5.72483 13.0984H6.02003C6.03682 13.0988 6.05156 13.1097 6.05692 13.1256C6.06228 13.1415 6.05714 13.1591 6.04403 13.1696L5.80403 13.3464L5.89443 13.628C5.90002 13.6445 5.89406 13.6627 5.87981 13.6727C5.86556 13.6827 5.84643 13.6821 5.83283 13.6712L5.59283 13.4992L5.35283 13.6712C5.33904 13.6809 5.32066 13.6809 5.30687 13.6712C5.29307 13.6616 5.28682 13.6443 5.29123 13.628L5.38963 13.348L5.14963 13.1712C5.13653 13.1607 5.13138 13.1431 5.13674 13.1272C5.14211 13.1113 5.15684 13.1004 5.17363 13.1H5.46963L5.56483 12.8184C5.56563 12.7784 5.61843 12.7784 5.62963 12.8168ZM2.22723 12.0728L2.32243 12.3544H2.61763C2.63442 12.3548 2.64916 12.3657 2.65452 12.3816C2.65988 12.3975 2.65474 12.4151 2.64163 12.4256L2.40163 12.6024L2.49203 12.884C2.49762 12.9005 2.49166 12.9187 2.47741 12.9287C2.46316 12.9387 2.44403 12.9381 2.43043 12.9272L2.19043 12.7552L1.95043 12.9272C1.93664 12.9369 1.91826 12.9369 1.90447 12.9272C1.89067 12.9176 1.88442 12.9003 1.88883 12.884L1.97923 12.6024L1.73923 12.4256C1.72613 12.4151 1.72098 12.3975 1.72634 12.3816C1.73171 12.3657 1.74644 12.3548 1.76323 12.3544H2.06723L2.16243 12.0728C2.16803 12.0344 2.21603 12.0344 2.22723 12.0728ZM9.00883 12.0409C9.02022 12.0475 9.02723 12.0597 9.02723 12.0728L9.12243 12.3544H9.41763C9.43442 12.3548 9.44916 12.3657 9.45452 12.3816C9.45988 12.3975 9.45474 12.4151 9.44163 12.4256L9.20163 12.6024L9.29203 12.884C9.29762 12.9005 9.29166 12.9187 9.27741 12.9287C9.26316 12.9387 9.24403 12.9381 9.23043 12.9272L8.99043 12.7552L8.75043 12.9272C8.73664 12.9369 8.71826 12.9369 8.70447 12.9272C8.69067 12.9176 8.68442 12.9003 8.68883 12.884L8.77923 12.6024L8.53923 12.4256C8.52613 12.4151 8.52098 12.3975 8.52634 12.3816C8.53171 12.3657 8.54644 12.3548 8.56323 12.3544H8.85843L8.95363 12.0728C8.95363 12.0597 8.96064 12.0475 8.97203 12.0409C8.98342 12.0344 8.99744 12.0344 9.00883 12.0409ZM6.76403 12.0728L6.85923 12.3544H7.15443C7.17122 12.3548 7.18596 12.3657 7.19132 12.3816C7.19668 12.3975 7.19154 12.4151 7.17843 12.4256L6.93843 12.6024L7.02883 12.884C7.03442 12.9005 7.02846 12.9187 7.01421 12.9287C6.99996 12.9387 6.98083 12.9381 6.96723 12.9272L6.72723 12.7552L6.48723 12.9272C6.47344 12.9369 6.45506 12.9369 6.44127 12.9272C6.42747 12.9176 6.42122 12.9003 6.42563 12.884L6.51603 12.6024L6.27603 12.4256C6.26293 12.4151 6.25778 12.3975 6.26314 12.3816C6.26851 12.3657 6.28324 12.3548 6.30003 12.3544H6.59523L6.69043 12.0728C6.70003 12.0344 6.75283 12.0344 6.76403 12.0728ZM4.49523 12.0728L4.59043 12.3544H4.88563C4.90242 12.3548 4.91716 12.3657 4.92252 12.3816C4.92788 12.3975 4.92274 12.4151 4.90963 12.4256L4.66963 12.6024L4.76003 12.884C4.76562 12.9005 4.75966 12.9187 4.74541 12.9287C4.73116 12.9387 4.71203 12.9381 4.69843 12.9272L4.45843 12.7552L4.21843 12.9272C4.20464 12.9369 4.18626 12.9369 4.17247 12.9272C4.15867 12.9176 4.15242 12.9003 4.15683 12.884L4.24723 12.6024L4.00723 12.4256C3.99413 12.4151 3.98898 12.3975 3.99434 12.3816C3.99971 12.3657 4.01444 12.3548 4.03123 12.3544H4.33523L4.43043 12.0728C4.43123 12.0344 4.48403 12.0344 4.49523 12.0728ZM3.36083 11.352L3.45603 11.6336H3.75123C3.76802 11.634 3.78276 11.6449 3.78812 11.6608C3.79348 11.6767 3.78834 11.6943 3.77523 11.7048L3.53523 11.8816L3.62563 12.1632C3.63122 12.1797 3.62526 12.1979 3.61101 12.2079C3.59676 12.2179 3.57763 12.2173 3.56403 12.2064L3.32403 12.0344L3.08403 12.2064C3.07024 12.2161 3.05186 12.2161 3.03807 12.2064C3.02427 12.1968 3.01802 12.1795 3.02243 12.1632L3.11283 11.8816L2.87283 11.7048C2.85973 11.6943 2.85458 11.6767 2.85994 11.6608C2.86531 11.6449 2.88004 11.634 2.89683 11.6336H3.20083L3.29603 11.352C3.29683 11.3192 3.34963 11.3192 3.36083 11.352ZM10.1616 11.352L10.2568 11.6336H10.552C10.5688 11.634 10.5836 11.6449 10.5889 11.6608C10.5943 11.6767 10.5891 11.6943 10.576 11.7048L10.336 11.8816L10.4264 12.1632C10.432 12.1797 10.4261 12.1979 10.4118 12.2079C10.3976 12.2179 10.3784 12.2173 10.3648 12.2064L10.1248 12.0344L9.88483 12.2064C9.87104 12.2161 9.85266 12.2161 9.83887 12.2064C9.82507 12.1968 9.81882 12.1795 9.82323 12.1632L9.91363 11.8816L9.67363 11.7048C9.66053 11.6943 9.65538 11.6767 9.66074 11.6608C9.66611 11.6449 9.68084 11.634 9.69763 11.6336H9.99283L10.088 11.352C10.1024 11.3192 10.1552 11.3192 10.1616 11.352ZM1.09283 11.352L1.18803 11.6336H1.48323C1.50002 11.634 1.51476 11.6449 1.52012 11.6608C1.52548 11.6767 1.52034 11.6943 1.50723 11.7048L1.26723 11.8816L1.35763 12.1632C1.36322 12.1797 1.35726 12.1979 1.34301 12.2079C1.32876 12.2179 1.30963 12.2173 1.29603 12.2064L1.05603 12.0344L0.816031 12.2064C0.802244 12.2161 0.783865 12.2161 0.770069 12.2064C0.756274 12.1968 0.75002 12.1795 0.754431 12.1632L0.844831 11.8816L0.604831 11.7048C0.591725 11.6943 0.586577 11.6767 0.591941 11.6608C0.597306 11.6449 0.612041 11.634 0.628831 11.6336H0.932831L1.02803 11.352C1.03363 11.3192 1.08163 11.3192 1.09283 11.352ZM7.89283 11.352L7.98803 11.6336H8.28323C8.30002 11.634 8.31476 11.6449 8.32012 11.6608C8.32548 11.6767 8.32034 11.6943 8.30723 11.7048L8.06723 11.8816L8.15763 12.1632C8.16322 12.1797 8.15726 12.1979 8.14301 12.2079C8.12876 12.2179 8.10963 12.2173 8.09603 12.2064L7.85603 12.0344L7.61603 12.2064C7.60224 12.2161 7.58386 12.2161 7.57007 12.2064C7.55627 12.1968 7.55002 12.1795 7.55443 12.1632L7.64483 11.8816L7.40483 11.7048C7.39173 11.6943 7.38658 11.6767 7.39194 11.6608C7.39731 11.6449 7.41204 11.634 7.42883 11.6336H7.72403L7.81923 11.352C7.83363 11.3192 7.88643 11.3192 7.89283 11.352ZM5.62963 11.352L5.72483 11.6336H6.02003C6.03682 11.634 6.05156 11.6449 6.05692 11.6608C6.06228 11.6767 6.05714 11.6943 6.04403 11.7048L5.80403 11.8816L5.89443 12.1632C5.90002 12.1797 5.89406 12.1979 5.87981 12.2079C5.86556 12.2179 5.84643 12.2173 5.83283 12.2064L5.59283 12.0344L5.35283 12.2064C5.33904 12.2161 5.32066 12.2161 5.30687 12.2064C5.29307 12.1968 5.28682 12.1795 5.29123 12.1632L5.38163 11.8816L5.14163 11.7048C5.12853 11.6943 5.12338 11.6767 5.12874 11.6608C5.13411 11.6449 5.14884 11.634 5.16563 11.6336H5.46963L5.56483 11.352C5.56563 11.3192 5.61843 11.3192 5.62963 11.352ZM2.22723 10.6088L2.32243 10.8904H2.61763C2.63442 10.8908 2.64916 10.9017 2.65452 10.9176C2.65988 10.9335 2.65474 10.9511 2.64163 10.9616L2.40163 11.1384L2.49203 11.42C2.49762 11.4365 2.49166 11.4547 2.47741 11.4647C2.46316 11.4747 2.44403 11.4741 2.43043 11.4632L2.19043 11.2912L1.95043 11.4632C1.93664 11.4729 1.91826 11.4729 1.90447 11.4632C1.89067 11.4536 1.88442 11.4363 1.88883 11.42L1.98723 11.14L1.74723 10.9632C1.73413 10.9527 1.72898 10.9351 1.73434 10.9192C1.73971 10.9033 1.75444 10.8924 1.77123 10.892H2.06723L2.16243 10.6104C2.16803 10.5704 2.21603 10.5704 2.22723 10.6088ZM8.99043 10.572C9.01075 10.572 9.02723 10.5885 9.02723 10.6088L9.12243 10.8904H9.41763C9.43442 10.8908 9.44916 10.9017 9.45452 10.9176C9.45988 10.9335 9.45474 10.9511 9.44163 10.9616L9.20163 11.1384L9.29203 11.42C9.29762 11.4365 9.29166 11.4547 9.27741 11.4647C9.26316 11.4747 9.24403 11.4741 9.23043 11.4632L8.99043 11.2912L8.75043 11.4632C8.73664 11.4729 8.71826 11.4729 8.70447 11.4632C8.69067 11.4536 8.68442 11.4363 8.68883 11.42L8.77923 11.1384L8.53923 10.9616C8.52613 10.9511 8.52098 10.9335 8.52634 10.9176C8.53171 10.9017 8.54644 10.8908 8.56323 10.8904H8.85843L8.95363 10.6088C8.95363 10.5885 8.97011 10.572 8.99043 10.572ZM6.76403 10.6088L6.85923 10.8904H7.15443C7.17122 10.8908 7.18596 10.9017 7.19132 10.9176C7.19668 10.9335 7.19154 10.9511 7.17843 10.9616L6.93843 11.1384L7.02883 11.42C7.03442 11.4365 7.02846 11.4547 7.01421 11.4647C6.99996 11.4747 6.98083 11.4741 6.96723 11.4632L6.72723 11.2912L6.48723 11.4632C6.47344 11.4729 6.45506 11.4729 6.44127 11.4632C6.42747 11.4536 6.42122 11.4363 6.42563 11.42L6.51603 11.1384L6.27603 10.9616C6.26293 10.9511 6.25778 10.9335 6.26314 10.9176C6.26851 10.9017 6.28324 10.8908 6.30003 10.8904H6.59523L6.69043 10.6088C6.70003 10.5704 6.75283 10.5704 6.76403 10.6088ZM4.49523 10.6088L4.59043 10.8904H4.88563C4.90242 10.8908 4.91716 10.9017 4.92252 10.9176C4.92788 10.9335 4.92274 10.9511 4.90963 10.9616L4.66963 11.1384L4.76003 11.42C4.76562 11.4365 4.75966 11.4547 4.74541 11.4647C4.73116 11.4747 4.71203 11.4741 4.69843 11.4632L4.45843 11.2912L4.21843 11.4632C4.20464 11.4729 4.18626 11.4729 4.17247 11.4632C4.15867 11.4536 4.15242 11.4363 4.15683 11.42L4.25523 11.14L4.01523 10.9632C4.00213 10.9527 3.99698 10.9351 4.00234 10.9192C4.00771 10.9033 4.02244 10.8924 4.03923 10.892H4.33523L4.43043 10.6104C4.43123 10.5704 4.48403 10.5704 4.49523 10.6088ZM3.36083 9.89281L3.45603 10.1744H3.75123C3.76802 10.1748 3.78276 10.1857 3.78812 10.2016C3.79348 10.2175 3.78834 10.2351 3.77523 10.2456L3.53523 10.4224L3.62563 10.704C3.63122 10.7205 3.62526 10.7387 3.61101 10.7487C3.59676 10.7587 3.57763 10.7581 3.56403 10.7472L3.32403 10.5752L3.08403 10.7472C3.07024 10.7569 3.05186 10.7569 3.03807 10.7472C3.02427 10.7376 3.01802 10.7203 3.02243 10.704L3.12083 10.424L2.88083 10.2472C2.86773 10.2367 2.86258 10.2191 2.86794 10.2032C2.87331 10.1873 2.88804 10.1764 2.90483 10.176H3.20083L3.29603 9.89441C3.29683 9.85441 3.34963 9.85441 3.36083 9.89281ZM10.1282 9.86726C10.1439 9.86687 10.1579 9.8775 10.1616 9.89281L10.2568 10.1744H10.552C10.5688 10.1748 10.5836 10.1857 10.5889 10.2016C10.5943 10.2175 10.5891 10.2351 10.576 10.2456L10.336 10.4224L10.4264 10.704C10.432 10.7205 10.4261 10.7387 10.4118 10.7487C10.3976 10.7587 10.3784 10.7581 10.3648 10.7472L10.1248 10.5752L9.88483 10.7472C9.87104 10.7569 9.85266 10.7569 9.83887 10.7472C9.82507 10.7376 9.81882 10.7203 9.82323 10.704L9.92163 10.424L9.68163 10.2472C9.66852 10.2367 9.66338 10.2191 9.66874 10.2032C9.67411 10.1873 9.68884 10.1764 9.70563 10.176H10.0008L10.096 9.89441C10.0991 9.87893 10.1124 9.86764 10.1282 9.86726ZM7.85603 9.85601C7.87636 9.85601 7.89283 9.87248 7.89283 9.89281L7.98803 10.1744H8.28323C8.30002 10.1748 8.31476 10.1857 8.32012 10.2016C8.32548 10.2175 8.32034 10.2351 8.30723 10.2456L8.06723 10.4224L8.15763 10.704C8.16322 10.7205 8.15726 10.7387 8.14301 10.7487C8.12876 10.7587 8.10963 10.7581 8.09603 10.7472L7.85603 10.5752L7.61603 10.7472C7.60224 10.7569 7.58386 10.7569 7.57007 10.7472C7.55627 10.7376 7.55002 10.7203 7.55443 10.704L7.64483 10.4224L7.40483 10.2456C7.39173 10.2351 7.38658 10.2175 7.39194 10.2016C7.39731 10.1857 7.41204 10.1748 7.42883 10.1744H7.72403L7.81923 9.89281C7.81923 9.87248 7.83571 9.85601 7.85603 9.85601ZM1.09283 9.89281L1.18803 10.1744H1.48323C1.50002 10.1748 1.51476 10.1857 1.52012 10.2016C1.52548 10.2175 1.52034 10.2351 1.50723 10.2456L1.26723 10.4224L1.35763 10.704C1.36322 10.7205 1.35726 10.7387 1.34301 10.7487C1.32876 10.7587 1.30963 10.7581 1.29603 10.7472L1.05603 10.5752L0.816031 10.7472C0.802244 10.7569 0.783865 10.7569 0.770069 10.7472C0.756274 10.7376 0.75002 10.7203 0.754431 10.704L0.852831 10.424L0.612831 10.2472C0.599725 10.2367 0.594577 10.2191 0.599941 10.2032C0.605306 10.1873 0.620041 10.1764 0.636831 10.176H0.932831L1.02803 9.89441C1.03363 9.85441 1.08163 9.85441 1.09283 9.89281ZM5.62963 9.89281L5.72483 10.1744H6.02003C6.03682 10.1748 6.05156 10.1857 6.05692 10.2016C6.06228 10.2175 6.05714 10.2351 6.04403 10.2456L5.80403 10.4224L5.89443 10.704C5.90002 10.7205 5.89406 10.7387 5.87981 10.7487C5.86556 10.7587 5.84643 10.7581 5.83283 10.7472L5.59283 10.5752L5.35283 10.7472C5.33904 10.7569 5.32066 10.7569 5.30687 10.7472C5.29307 10.7376 5.28682 10.7203 5.29123 10.704L5.38163 10.4224L5.14163 10.2456C5.12853 10.2351 5.12338 10.2175 5.12874 10.2016C5.13411 10.1857 5.14884 10.1748 5.16563 10.1744H5.46963L5.56483 9.89281C5.56563 9.85441 5.61843 9.85441 5.62963 9.89281ZM2.22723 9.14321L2.32243 9.42481H2.61763C2.63442 9.42523 2.64916 9.4361 2.65452 9.45202C2.65988 9.46793 2.65474 9.4855 2.64163 9.49601L2.40163 9.67281L2.49203 9.95441C2.49762 9.97089 2.49166 9.98909 2.47741 9.99908C2.46316 10.0091 2.44403 10.0085 2.43043 9.99761L2.19043 9.82561L1.95043 9.99761C1.93664 10.0073 1.91826 10.0073 1.90447 9.99763C1.89067 9.98795 1.88442 9.97067 1.88883 9.95441L1.97923 9.67281L1.73923 9.49601C1.72613 9.4855 1.72098 9.46793 1.72634 9.45202C1.73171 9.4361 1.74644 9.42523 1.76323 9.42481H2.06723L2.16243 9.14321C2.16803 9.11041 2.21603 9.11041 2.22723 9.14321ZM6.76403 9.14321L6.85923 9.42481H7.15443C7.17122 9.42523 7.18596 9.4361 7.19132 9.45202C7.19668 9.46793 7.19154 9.4855 7.17843 9.49601L6.93843 9.67281L7.02883 9.95441C7.03442 9.97089 7.02846 9.98909 7.01421 9.99908C6.99996 10.0091 6.98083 10.0085 6.96723 9.99761L6.72723 9.82561L6.48723 9.99761C6.47344 10.0073 6.45506 10.0073 6.44127 9.99763C6.42747 9.98795 6.42122 9.97067 6.42563 9.95441L6.51603 9.67281L6.27603 9.49601C6.26293 9.4855 6.25778 9.46793 6.26314 9.45202C6.26851 9.4361 6.28324 9.42523 6.30003 9.42481H6.59523L6.69043 9.14321C6.70003 9.11041 6.75283 9.11041 6.76403 9.14321ZM4.49523 9.14321L4.59043 9.42481H4.88563C4.90242 9.42523 4.91716 9.4361 4.92252 9.45202C4.92788 9.46793 4.92274 9.4855 4.90963 9.49601L4.66963 9.67281L4.76003 9.95441C4.76562 9.97089 4.75966 9.98909 4.74541 9.99908C4.73116 10.0091 4.71203 10.0085 4.69843 9.99761L4.45843 9.82561L4.21843 9.99761C4.20464 10.0073 4.18626 10.0073 4.17247 9.99763C4.15867 9.98795 4.15242 9.97067 4.15683 9.95441L4.24723 9.67281L4.00723 9.49601C3.99413 9.4855 3.98898 9.46793 3.99434 9.45202C3.99971 9.4361 4.01444 9.42523 4.03123 9.42481H4.33523L4.43043 9.14321C4.43123 9.11041 4.48403 9.11041 4.49523 9.14321ZM9.02723 9.14321L9.12243 9.42481H9.41763C9.43442 9.42523 9.44916 9.4361 9.45452 9.45202C9.45988 9.46793 9.45474 9.4855 9.44163 9.49601L9.20163 9.67281L9.29203 9.95441C9.29762 9.97089 9.29166 9.98909 9.27741 9.99908C9.26316 10.0091 9.24403 10.0085 9.23043 9.99761L8.99043 9.82561L8.75043 9.99761C8.73664 10.0073 8.71826 10.0073 8.70447 9.99763C8.69067 9.98795 8.68442 9.97067 8.68883 9.95441L8.77923 9.67281L8.53923 9.49601C8.52613 9.4855 8.52098 9.46793 8.52634 9.45202C8.53171 9.4361 8.54644 9.42523 8.56323 9.42481H8.85843L8.95363 9.14321C8.96803 9.11041 9.02083 9.11041 9.02723 9.14321ZM5.62963 8.42801L5.72483 8.70961H6.02003C6.03682 8.71003 6.05156 8.7209 6.05692 8.73682C6.06228 8.75273 6.05714 8.7703 6.04403 8.78081L5.80403 8.95761L5.89443 9.23921C5.90002 9.25569 5.89406 9.27389 5.87981 9.28388C5.86556 9.29387 5.84643 9.29327 5.83283 9.28241L5.59283 9.11041L5.35283 9.28241C5.33904 9.29209 5.32066 9.2921 5.30687 9.28243C5.29307 9.27275 5.28682 9.25547 5.29123 9.23921L5.38163 8.95761L5.14163 8.78081C5.12853 8.7703 5.12338 8.75273 5.12874 8.73682C5.13411 8.7209 5.14884 8.71003 5.16563 8.70961H5.46963L5.56483 8.42801C5.56563 8.39521 5.61843 8.39521 5.62963 8.42801ZM1.09283 8.42801L1.18803 8.70961H1.48323C1.50002 8.71003 1.51476 8.7209 1.52012 8.73682C1.52548 8.75273 1.52034 8.7703 1.50723 8.78081L1.26723 8.95761L1.35763 9.23921C1.36322 9.25569 1.35726 9.27389 1.34301 9.28388C1.32876 9.29387 1.30963 9.29327 1.29603 9.28241L1.05603 9.11041L0.816031 9.28241C0.802244 9.29209 0.783865 9.2921 0.770069 9.28243C0.756274 9.27275 0.75002 9.25547 0.754431 9.23921L0.844831 8.95761L0.604831 8.78081C0.591725 8.7703 0.586577 8.75273 0.591941 8.73682C0.597306 8.7209 0.612041 8.71003 0.628831 8.70961H0.932831L1.02803 8.42801C1.03363 8.39521 1.08163 8.39521 1.09283 8.42801ZM3.36403 8.42801L3.45923 8.70961H3.75603C3.77282 8.71003 3.78756 8.7209 3.79292 8.73682C3.79829 8.75273 3.79314 8.7703 3.78003 8.78081L3.54003 8.95761L3.63043 9.23921C3.63602 9.25569 3.63006 9.27389 3.61581 9.28388C3.60156 9.29387 3.58243 9.29327 3.56883 9.28241L3.32883 9.11041L3.08883 9.28241C3.07504 9.29209 3.05666 9.2921 3.04287 9.28243C3.02907 9.27275 3.02282 9.25547 3.02723 9.23921L3.11763 8.95761L2.87763 8.78081C2.86453 8.7703 2.85938 8.75273 2.86474 8.73682C2.87011 8.7209 2.88484 8.71003 2.90163 8.70961H3.19603L3.29123 8.42801C3.29683 8.39521 3.34963 8.39521 3.36403 8.42801ZM7.89283 8.42801L7.98803 8.70961H8.28323C8.30002 8.71003 8.31476 8.7209 8.32012 8.73682C8.32548 8.75273 8.32034 8.7703 8.30723 8.78081L8.06723 8.95761L8.15763 9.23921C8.16322 9.25569 8.15726 9.27389 8.14301 9.28388C8.12876 9.29387 8.10963 9.29327 8.09603 9.28241L7.85603 9.11041L7.61603 9.28241C7.60224 9.29209 7.58386 9.2921 7.57007 9.28243C7.55627 9.27275 7.55002 9.25547 7.55443 9.23921L7.64483 8.95761L7.40483 8.78081C7.39173 8.7703 7.38658 8.75273 7.39194 8.73682C7.39731 8.7209 7.41204 8.71003 7.42883 8.70961H7.72403L7.81923 8.42801C7.83363 8.39521 7.88643 8.39521 7.89283 8.42801ZM10.1616 8.42801L10.2568 8.70961H10.552C10.5688 8.71003 10.5836 8.7209 10.5889 8.73682C10.5943 8.75273 10.5891 8.7703 10.576 8.78081L10.336 8.95761L10.4264 9.23921C10.432 9.25569 10.4261 9.27389 10.4118 9.28388C10.3976 9.29387 10.3784 9.29327 10.3648 9.28241L10.1248 9.11041L9.88483 9.28241C9.87104 9.29209 9.85266 9.2921 9.83887 9.28243C9.82507 9.27275 9.81882 9.25547 9.82323 9.23921L9.91363 8.95761L9.67363 8.78081C9.66053 8.7703 9.65538 8.75273 9.66074 8.73682C9.66611 8.7209 9.68084 8.71003 9.69763 8.70961H9.99283L10.088 8.42801C10.1024 8.39521 10.1552 8.39521 10.1616 8.42801ZM6.76403 7.68401L6.85923 7.96561H7.15443C7.17122 7.96603 7.18596 7.9769 7.19132 7.99282C7.19668 8.00873 7.19154 8.0263 7.17843 8.03681L6.93843 8.21361L7.02883 8.49521C7.03442 8.51169 7.02846 8.52989 7.01421 8.53988C6.99996 8.54987 6.98083 8.54927 6.96723 8.53841L6.72723 8.36641L6.48723 8.53841C6.47344 8.54809 6.45506 8.5481 6.44127 8.53843C6.42747 8.52875 6.42122 8.51147 6.42563 8.49521L6.51603 8.21361L6.27603 8.03681C6.26293 8.0263 6.25778 8.00873 6.26314 7.99282C6.26851 7.9769 6.28324 7.96603 6.30003 7.96561H6.59523L6.69043 7.68401C6.70003 7.64561 6.75283 7.64561 6.76403 7.68401ZM4.49523 7.68401L4.59043 7.96561H4.88563C4.90242 7.96603 4.91716 7.9769 4.92252 7.99282C4.92788 8.00873 4.92274 8.0263 4.90963 8.03681L4.66963 8.21361L4.76003 8.49521C4.76562 8.51169 4.75966 8.52989 4.74541 8.53988C4.73116 8.54987 4.71203 8.54927 4.69843 8.53841L4.45843 8.36641L4.21843 8.53841C4.20464 8.54809 4.18626 8.5481 4.17247 8.53843C4.15867 8.52875 4.15242 8.51147 4.15683 8.49521L4.25523 8.21521L4.01523 8.03841C4.00213 8.0279 3.99698 8.01033 4.00234 7.99442C4.00771 7.9785 4.02244 7.96763 4.03923 7.96721H4.33523L4.43043 7.68561C4.43123 7.64561 4.48403 7.64561 4.49523 7.68401ZM2.22723 7.68401L2.32243 7.96561H2.61763C2.63442 7.96603 2.64916 7.9769 2.65452 7.99282C2.65988 8.00873 2.65474 8.0263 2.64163 8.03681L2.40163 8.21361L2.49203 8.49521C2.49762 8.51169 2.49166 8.52989 2.47741 8.53988C2.46316 8.54987 2.44403 8.54927 2.43043 8.53841L2.19043 8.36641L1.95043 8.53841C1.93664 8.54809 1.91826 8.5481 1.90447 8.53843C1.89067 8.52875 1.88442 8.51147 1.88883 8.49521L1.98723 8.21521L1.74723 8.03841C1.73413 8.0279 1.72898 8.01033 1.73434 7.99442C1.73971 7.9785 1.75444 7.96763 1.77123 7.96721H2.06723L2.16243 7.68561C2.16803 7.64561 2.21603 7.64561 2.22723 7.68401ZM9.00883 7.65214C9.02022 7.65871 9.02723 7.67086 9.02723 7.68401L9.12243 7.96561H9.41763C9.43442 7.96603 9.44916 7.9769 9.45452 7.99282C9.45988 8.00873 9.45474 8.0263 9.44163 8.03681L9.20163 8.21361L9.29203 8.49521C9.29762 8.51169 9.29166 8.52989 9.27741 8.53988C9.26316 8.54987 9.24403 8.54927 9.23043 8.53841L8.99043 8.36641L8.75043 8.53841C8.73664 8.54809 8.71826 8.5481 8.70447 8.53843C8.69067 8.52875 8.68442 8.51147 8.68883 8.49521L8.77923 8.21361L8.53923 8.03681C8.52613 8.0263 8.52098 8.00873 8.52634 7.99282C8.53171 7.9769 8.54644 7.96603 8.56323 7.96561H8.85843L8.95363 7.68401C8.95363 7.67086 8.96064 7.65871 8.97203 7.65214C8.98342 7.64556 8.99744 7.64556 9.00883 7.65214ZM1.09283 6.96881L1.18803 7.25041H1.48323C1.50002 7.25083 1.51476 7.2617 1.52012 7.27762C1.52548 7.29353 1.52034 7.3111 1.50723 7.32161L1.26723 7.49841L1.35763 7.78001C1.36322 7.79649 1.35726 7.81469 1.34301 7.82468C1.32876 7.83467 1.30963 7.83407 1.29603 7.82321L1.05603 7.65121L0.816031 7.82321C0.802244 7.83289 0.783865 7.8329 0.770069 7.82323C0.756274 7.81355 0.75002 7.79627 0.754431 7.78001L0.852831 7.50001L0.612831 7.32321C0.599725 7.3127 0.594577 7.29513 0.599941 7.27922C0.605306 7.2633 0.620041 7.25243 0.636831 7.25201H0.932831L1.02803 6.97041C1.03363 6.93041 1.08163 6.93041 1.09283 6.96881ZM3.36083 6.96881L3.45603 7.25041H3.75123C3.76802 7.25083 3.78276 7.2617 3.78812 7.27762C3.79348 7.29353 3.78834 7.3111 3.77523 7.32161L3.53523 7.49841L3.62563 7.78001C3.63122 7.79649 3.62526 7.81469 3.61101 7.82468C3.59676 7.83467 3.57763 7.83407 3.56403 7.82321L3.32403 7.65121L3.08403 7.82321C3.07024 7.83289 3.05186 7.8329 3.03807 7.82323C3.02427 7.81355 3.01802 7.79627 3.02243 7.78001L3.12083 7.50001L2.88083 7.32321C2.86773 7.3127 2.86258 7.29513 2.86794 7.27922C2.87331 7.2633 2.88804 7.25243 2.90483 7.25201H3.20083L3.29603 6.97041C3.29683 6.93041 3.34963 6.93041 3.36083 6.96881ZM5.62963 6.96881L5.72483 7.25041H6.02003C6.03682 7.25083 6.05156 7.2617 6.05692 7.27762C6.06228 7.29353 6.05714 7.3111 6.04403 7.32161L5.80403 7.49841L5.89443 7.78001C5.90002 7.79649 5.89406 7.81469 5.87981 7.82468C5.86556 7.83467 5.84643 7.83407 5.83283 7.82321L5.59283 7.65121L5.35283 7.82321C5.33904 7.83289 5.32066 7.8329 5.30687 7.82323C5.29307 7.81355 5.28682 7.79627 5.29123 7.78001L5.38163 7.49841L5.14163 7.32161C5.12853 7.3111 5.12338 7.29353 5.12874 7.27762C5.13411 7.2617 5.14884 7.25083 5.16563 7.25041H5.46963L5.56483 6.96881C5.56563 6.93041 5.61843 6.93041 5.62963 6.96881ZM7.87443 6.93694C7.88582 6.94351 7.89283 6.95566 7.89283 6.96881L7.98803 7.25041H8.28323C8.30002 7.25083 8.31476 7.2617 8.32012 7.27762C8.32548 7.29353 8.32034 7.3111 8.30723 7.32161L8.06723 7.49841L8.15763 7.78001C8.16322 7.79649 8.15726 7.81469 8.14301 7.82468C8.12876 7.83467 8.10963 7.83407 8.09603 7.82321L7.85603 7.65121L7.61603 7.82321C7.60224 7.83289 7.58386 7.8329 7.57007 7.82323C7.55627 7.81355 7.55002 7.79627 7.55443 7.78001L7.64483 7.49841L7.40483 7.32161C7.39173 7.3111 7.38658 7.29353 7.39194 7.27762C7.39731 7.2617 7.41204 7.25083 7.42883 7.25041H7.72403L7.81923 6.96881C7.81923 6.95566 7.82624 6.94351 7.83763 6.93694C7.84902 6.93036 7.86304 6.93036 7.87443 6.93694ZM10.1282 6.94326C10.1439 6.94287 10.1579 6.9535 10.1616 6.96881L10.2568 7.25041H10.552C10.5688 7.25083 10.5836 7.2617 10.5889 7.27762C10.5943 7.29353 10.5891 7.3111 10.576 7.32161L10.336 7.49841L10.4264 7.78001C10.432 7.79649 10.4261 7.81469 10.4118 7.82468C10.3976 7.83467 10.3784 7.83407 10.3648 7.82321L10.1248 7.65121L9.88483 7.82321C9.87104 7.83289 9.85266 7.8329 9.83887 7.82323C9.82507 7.81355 9.81882 7.79627 9.82323 7.78001L9.92163 7.50001L9.68163 7.32321C9.66852 7.3127 9.66338 7.29513 9.66874 7.27922C9.67411 7.2633 9.68884 7.25243 9.70563 7.25201H10.0008L10.096 6.97041C10.0991 6.95493 10.1124 6.94364 10.1282 6.94326Z" fill="#F5F5F5"/>
<path fill-rule="evenodd" clip-rule="evenodd" d="M22 7H2C1.44772 7 1 7.44772 1 8V20C1 20.5523 1.44772 21 2 21H22C22.5523 21 23 20.5523 23 20V8C23 7.44771 22.5523 7 22 7ZM2 6C0.895431 6 0 6.89543 0 8V20C0 21.1046 0.89543 22 2 22H22C23.1046 22 24 21.1046 24 20V8C24 6.89543 23.1046 6 22 6H2Z" fill="black" fill-opacity="0.04"/>
</g>
<path d="M30 14H10C8.89543 14 8 14.8954 8 16V28C8 29.1046 8.89543 30 10 30H30C31.1046 30 32 29.1046 32 28V16C32 14.8954 31.1046 14 30 14Z" fill="#F44336"/>
<path d="M24.5525 20.3186H21.6559V17.3761C21.6559 17.1439 21.4706 16.9557 21.2421 16.9557H18.7593C18.5308 16.9557 18.3455 17.1439 18.3455 17.3761V20.3186H15.449C15.2205 20.3186 15.0352 20.5068 15.0352 20.739V23.2612C15.0352 23.4933 15.2205 23.6815 15.449 23.6815H18.3455V26.6241C18.3455 26.8562 18.5308 27.0445 18.7593 27.0445H21.2421C21.4706 27.0445 21.6559 26.8562 21.6559 26.6241V23.6815H24.5525C24.781 23.6815 24.9663 23.4932 24.9663 23.2611V20.7389C24.9663 20.5068 24.781 20.3186 24.5525 20.3186Z" fill="white"/>
<path fill-rule="evenodd" clip-rule="evenodd" d="M30 15H10C9.44772 15 9 15.4477 9 16V28C9 28.5523 9.44772 29 10 29H30C30.5523 29 31 28.5523 31 28V16C31 15.4477 30.5523 15 30 15ZM10 14C8.89543 14 8 14.8954 8 16V28C8 29.1046 8.89543 30 10 30H30C31.1046 30 32 29.1046 32 28V16C32 14.8954 31.1046 14 30 14H10Z" fill="black" fill-opacity="0.04"/>
<path d="M22 1C22 0.447715 22.3198 0 22.7143 0H31.2857C31.6802 0 32 0.447715 32 1V7C32 7.55228 31.6802 8 31.2857 8H22.7143C22.3198 8 22 7.55228 22 7V1Z" fill="#0E0E0E"/>
<path d="M26.904 6.26H24.06V5.612L25.398 4.418C25.61 4.226 25.772 4.044 25.884 3.872C26 3.696 26.058 3.512 26.058 3.32V3.242C26.058 3.038 25.996 2.878 25.872 2.762C25.752 2.646 25.588 2.588 25.38 2.588C25.264 2.588 25.162 2.606 25.074 2.642C24.99 2.674 24.916 2.72 24.852 2.78C24.788 2.84 24.734 2.91 24.69 2.99C24.65 3.07 24.618 3.156 24.594 3.248L24 3.02C24.044 2.888 24.104 2.762 24.18 2.642C24.256 2.518 24.352 2.408 24.468 2.312C24.584 2.216 24.72 2.14 24.876 2.084C25.036 2.028 25.222 2 25.434 2C25.646 2 25.836 2.032 26.004 2.096C26.172 2.156 26.312 2.242 26.424 2.354C26.54 2.462 26.628 2.592 26.688 2.744C26.748 2.896 26.778 3.062 26.778 3.242C26.778 3.41 26.752 3.566 26.7 3.71C26.648 3.854 26.576 3.99 26.484 4.118C26.392 4.246 26.284 4.368 26.16 4.484C26.04 4.6 25.912 4.718 25.776 4.838L24.792 5.684H26.904V6.26Z" fill="white"/>
<path d="M29.0557 6.332C28.7957 6.332 28.5697 6.284 28.3777 6.188C28.1857 6.088 28.0277 5.946 27.9037 5.762C27.7797 5.578 27.6877 5.352 27.6277 5.084C27.5677 4.816 27.5377 4.51 27.5377 4.166C27.5377 3.826 27.5677 3.522 27.6277 3.254C27.6877 2.982 27.7797 2.754 27.9037 2.57C28.0277 2.386 28.1857 2.246 28.3777 2.15C28.5697 2.05 28.7957 2 29.0557 2C29.5757 2 29.9577 2.19 30.2017 2.57C30.4497 2.95 30.5737 3.482 30.5737 4.166C30.5737 4.85 30.4497 5.382 30.2017 5.762C29.9577 6.142 29.5757 6.332 29.0557 6.332ZM29.0557 5.756C29.1997 5.756 29.3217 5.728 29.4217 5.672C29.5257 5.612 29.6097 5.528 29.6737 5.42C29.7377 5.312 29.7837 5.184 29.8117 5.036C29.8397 4.884 29.8537 4.716 29.8537 4.532V3.8C29.8537 3.616 29.8397 3.45 29.8117 3.302C29.7837 3.15 29.7377 3.02 29.6737 2.912C29.6097 2.804 29.5257 2.722 29.4217 2.666C29.3217 2.606 29.1997 2.576 29.0557 2.576C28.9117 2.576 28.7877 2.606 28.6837 2.666C28.5837 2.722 28.5017 2.804 28.4377 2.912C28.3737 3.02 28.3277 3.15 28.2997 3.302C28.2717 3.45 28.2577 3.616 28.2577 3.8V4.532C28.2577 4.716 28.2717 4.884 28.2997 5.036C28.3277 5.184 28.3737 5.312 28.4377 5.42C28.5017 5.528 28.5837 5.612 28.6837 5.672C28.7877 5.728 28.9117 5.756 29.0557 5.756Z" fill="white"/>
</svg>
