<svg width="33" height="32" viewBox="0 0 33 32" fill="none" xmlns="http://www.w3.org/2000/svg">
<path d="M22.833 13.0001H24.333V22H22.833V32H21.833V22H20.333V13.0001H21.833V11.0001H22.833V13.0001Z" fill="#85ACB0"/>
<path d="M30.333 11V18H28.833V22H27.833V18H26.333V11H30.333Z" fill="#85ACB0"/>
<path d="M16.833 20V16H15.833V20H14.333V28H15.833V30H16.833V28H18.333V20H16.833Z" fill="#85ACB0"/>
<path d="M10.833 15H12.333V21H10.833V28H9.83301V21H8.33301V15H9.83301V13H10.833V15Z" fill="#85ACB0"/>
<path d="M4.83301 19H6.33301V23H4.83301V25H3.83301V23H2.33301V19H3.83301V17H4.83301V19Z" fill="#85ACB0"/>
<path d="M0.333008 2C0.333008 0.89543 1.22844 0 2.33301 0H12.333C13.4376 0 14.333 0.895431 14.333 2V8C14.333 9.10457 13.4376 10 12.333 10H2.33301C1.22844 10 0.333008 9.10457 0.333008 8V2Z" fill="#0E0E0E"/>
<path d="M6.7123 3.46382H4.1763L4.0563 5.23182H4.1203C4.17363 5.09849 4.2323 4.97849 4.2963 4.87182C4.36563 4.75982 4.44563 4.66649 4.5363 4.59182C4.62696 4.51182 4.7363 4.45049 4.8643 4.40782C4.9923 4.36516 5.1443 4.34382 5.3203 4.34382C5.5603 4.34382 5.7843 4.38382 5.9923 4.46382C6.2003 4.54382 6.38163 4.66116 6.5363 4.81582C6.69096 4.96516 6.81363 5.15182 6.9043 5.37582C6.99496 5.59449 7.0403 5.84249 7.0403 6.11982C7.0403 6.40249 6.9923 6.66649 6.8963 6.91182C6.80563 7.15182 6.66696 7.35982 6.4803 7.53582C6.29896 7.71182 6.07496 7.85049 5.8083 7.95182C5.54163 8.04782 5.23763 8.09582 4.8963 8.09582C4.6243 8.09582 4.3843 8.06649 4.1763 8.00782C3.9683 7.94916 3.7843 7.87182 3.6243 7.77582C3.4643 7.67449 3.32563 7.55982 3.2083 7.43182C3.09096 7.30382 2.98963 7.16782 2.9043 7.02382L3.7763 6.33582C3.89896 6.55449 4.04563 6.74116 4.2163 6.89582C4.38696 7.04516 4.6163 7.11982 4.9043 7.11982C5.1923 7.11982 5.4083 7.03716 5.5523 6.87182C5.70163 6.70649 5.7763 6.48782 5.7763 6.21582V6.15182C5.7763 5.89582 5.70163 5.69316 5.5523 5.54382C5.40296 5.39449 5.19763 5.31982 4.9363 5.31982C4.71763 5.31982 4.5363 5.36516 4.3923 5.45582C4.25363 5.54116 4.14696 5.62649 4.0723 5.71182L3.0883 5.57582L3.2963 2.41582H6.7123V3.46382Z" fill="white"/>
<path d="M9.73317 8.09582C9.00251 8.09582 8.46117 7.84249 8.10917 7.33582C7.75717 6.82916 7.58117 6.11982 7.58117 5.20782C7.58117 4.29582 7.75717 3.58649 8.10917 3.07982C8.46117 2.57316 9.00251 2.31982 9.73317 2.31982C10.4638 2.31982 11.0052 2.57316 11.3572 3.07982C11.7092 3.58649 11.8852 4.29582 11.8852 5.20782C11.8852 6.11982 11.7092 6.82916 11.3572 7.33582C11.0052 7.84249 10.4638 8.09582 9.73317 8.09582ZM9.73317 7.07982C10.0532 7.07982 10.2745 6.96249 10.3972 6.72782C10.5198 6.49316 10.5812 6.16249 10.5812 5.73582V4.67982C10.5812 4.25316 10.5198 3.92249 10.3972 3.68782C10.2745 3.45316 10.0532 3.33582 9.73317 3.33582C9.41317 3.33582 9.19184 3.45316 9.06917 3.68782C8.94651 3.92249 8.88517 4.25316 8.88517 4.67982V5.73582C8.88517 6.16249 8.94651 6.49316 9.06917 6.72782C9.19184 6.96249 9.41317 7.07982 9.73317 7.07982Z" fill="white"/>
</svg>
