<svg width="33" height="32" viewBox="0 0 33 32" fill="none" xmlns="http://www.w3.org/2000/svg">
<path d="M23.167 13.0001H24.667V22H23.167V32H22.167V22H20.667V13.0001H22.167V11.0001H23.167V13.0001Z" fill="#85ACB0"/>
<path d="M30.667 11V18H29.167V22H28.167V18H26.667V11H30.667Z" fill="#85ACB0"/>
<path d="M17.167 20V16H16.167V20H14.667V28H16.167V30H17.167V28H18.667V20H17.167Z" fill="#85ACB0"/>
<path d="M11.167 15H12.667V21H11.167V28H10.167V21H8.66699V15H10.167V13H11.167V15Z" fill="#85ACB0"/>
<path d="M5.16699 19H6.66699V23H5.16699V25H4.16699V23H2.66699V19H4.16699V17H5.16699V19Z" fill="#85ACB0"/>
<path d="M22.667 5C22.667 2.23858 24.9056 0 27.667 0C30.4284 0 32.667 2.23858 32.667 5C32.667 7.76142 30.4284 10 27.667 10C24.9056 10 22.667 7.76142 22.667 5Z" fill="#FF444F"/>
<path d="M24.9204 7.00001V6.27401H26.0484V3.46601H25.9944L25.1424 4.58201L24.5664 4.13201L25.5684 2.81201H26.9484V6.27401H27.8364V7.00001H24.9204Z" fill="white"/>
<path d="M29.4361 7.07201C29.1321 7.07201 28.8761 7.02401 28.6681 6.92801C28.4601 6.82801 28.2741 6.68801 28.1101 6.50801L28.6321 5.98001C28.7441 6.10401 28.8681 6.20201 29.0041 6.27401C29.1401 6.34601 29.2941 6.38201 29.4661 6.38201C29.6421 6.38201 29.7641 6.35601 29.8321 6.30401C29.9001 6.24801 29.9341 6.17401 29.9341 6.08201C29.9341 5.93401 29.8281 5.84601 29.6161 5.81801L29.2741 5.77601C28.5661 5.68801 28.2121 5.36401 28.2121 4.80401C28.2121 4.65201 28.2401 4.51401 28.2961 4.39001C28.3561 4.26201 28.4381 4.15401 28.5421 4.06601C28.6501 3.97401 28.7781 3.90401 28.9261 3.85601C29.0781 3.80401 29.2481 3.77801 29.4361 3.77801C29.6001 3.77801 29.7441 3.79001 29.8681 3.81401C29.9961 3.83401 30.1081 3.86601 30.2041 3.91001C30.3041 3.95001 30.3941 4.00201 30.4741 4.06601C30.5581 4.12601 30.6401 4.19401 30.7201 4.27001L30.2101 4.79201C30.1101 4.69201 29.9961 4.61401 29.8681 4.55801C29.7441 4.49801 29.6161 4.46801 29.4841 4.46801C29.3321 4.46801 29.2241 4.49201 29.1601 4.54001C29.0961 4.58801 29.0641 4.65201 29.0641 4.73201C29.0641 4.81601 29.0861 4.88201 29.1301 4.93001C29.1781 4.97401 29.2661 5.00601 29.3941 5.02601L29.7481 5.07401C30.4401 5.16601 30.7861 5.48201 30.7861 6.02201C30.7861 6.17401 30.7541 6.31401 30.6901 6.44201C30.6261 6.57001 30.5341 6.68201 30.4141 6.77801C30.2981 6.87001 30.1561 6.94201 29.9881 6.99401C29.8241 7.04601 29.6401 7.07201 29.4361 7.07201Z" fill="white"/>
<path d="M0.666992 2C0.666992 0.89543 1.56242 0 2.66699 0H12.667C13.7716 0 14.667 0.895431 14.667 2V8C14.667 9.10457 13.7716 10 12.667 10H2.66699C1.56242 10 0.666992 9.10457 0.666992 8V2Z" fill="#0E0E0E"/>
<path d="M4.19855 8.00002L6.07055 3.39202H4.32655V4.40802H3.31055V2.41602H7.26255V3.45602L5.46255 8.00002H4.19855Z" fill="white"/>
<path d="M11.8434 3.46402H9.30742L9.18742 5.23202H9.25142C9.30476 5.09868 9.36342 4.97868 9.42742 4.87202C9.49676 4.76002 9.57676 4.66668 9.66742 4.59202C9.75809 4.51202 9.86742 4.45068 9.99542 4.40802C10.1234 4.36535 10.2754 4.34402 10.4514 4.34402C10.6914 4.34402 10.9154 4.38402 11.1234 4.46402C11.3314 4.54402 11.5128 4.66135 11.6674 4.81602C11.8221 4.96535 11.9448 5.15202 12.0354 5.37602C12.1261 5.59468 12.1714 5.84268 12.1714 6.12002C12.1714 6.40268 12.1234 6.66668 12.0274 6.91202C11.9368 7.15202 11.7981 7.36002 11.6114 7.53602C11.4301 7.71202 11.2061 7.85068 10.9394 7.95202C10.6728 8.04802 10.3688 8.09602 10.0274 8.09602C9.75542 8.09602 9.51542 8.06668 9.30742 8.00802C9.09942 7.94935 8.91542 7.87202 8.75542 7.77602C8.59542 7.67468 8.45676 7.56002 8.33942 7.43202C8.22209 7.30402 8.12076 7.16802 8.03542 7.02402L8.90742 6.33602C9.03009 6.55468 9.17676 6.74135 9.34742 6.89602C9.51809 7.04535 9.74742 7.12002 10.0354 7.12002C10.3234 7.12002 10.5394 7.03735 10.6834 6.87202C10.8328 6.70668 10.9074 6.48802 10.9074 6.21602V6.15202C10.9074 5.89602 10.8328 5.69335 10.6834 5.54402C10.5341 5.39468 10.3288 5.32002 10.0674 5.32002C9.84876 5.32002 9.66742 5.36535 9.52342 5.45602C9.38476 5.54135 9.27809 5.62668 9.20342 5.71202L8.21942 5.57602L8.42742 2.41602H11.8434V3.46402Z" fill="white"/>
</svg>
