<svg width="33" height="32" viewBox="0 0 33 32" fill="none" xmlns="http://www.w3.org/2000/svg">
<path d="M22.833 13.0001H24.333V22H22.833V32H21.833V22H20.333V13.0001H21.833V11.0001H22.833V13.0001Z" fill="#85ACB0"/>
<path d="M30.333 11V18H28.833V22H27.833V18H26.333V11H30.333Z" fill="#85ACB0"/>
<path d="M16.833 20V16H15.833V20H14.333V28H15.833V30H16.833V28H18.333V20H16.833Z" fill="#85ACB0"/>
<path d="M10.833 15H12.333V21H10.833V28H9.83301V21H8.33301V15H9.83301V13H10.833V15Z" fill="#85ACB0"/>
<path d="M4.83301 19H6.33301V23H4.83301V25H3.83301V23H2.33301V19H3.83301V17H4.83301V19Z" fill="#85ACB0"/>
<path d="M22.333 5C22.333 2.23858 24.5716 0 27.333 0C30.0944 0 32.333 2.23858 32.333 5C32.333 7.76142 30.0944 10 27.333 10C24.5716 10 22.333 7.76142 22.333 5Z" fill="#FF444F"/>
<path d="M24.5864 7.00001V6.27401H25.7144V3.46601H25.6604L24.8084 4.58201L24.2324 4.13201L25.2344 2.81201H26.6144V6.27401H27.5024V7.00001H24.5864Z" fill="white"/>
<path d="M29.1021 7.07201C28.7981 7.07201 28.5421 7.02401 28.3341 6.92801C28.1261 6.82801 27.9401 6.68801 27.7761 6.50801L28.2981 5.98001C28.4101 6.10401 28.5341 6.20201 28.6701 6.27401C28.8061 6.34601 28.9601 6.38201 29.1321 6.38201C29.3081 6.38201 29.4301 6.35601 29.4981 6.30401C29.5661 6.24801 29.6001 6.17401 29.6001 6.08201C29.6001 5.93401 29.4941 5.84601 29.2821 5.81801L28.9401 5.77601C28.2321 5.68801 27.8781 5.36401 27.8781 4.80401C27.8781 4.65201 27.9061 4.51401 27.9621 4.39001C28.0221 4.26201 28.1041 4.15401 28.2081 4.06601C28.3161 3.97401 28.4441 3.90401 28.5921 3.85601C28.7441 3.80401 28.9141 3.77801 29.1021 3.77801C29.2661 3.77801 29.4101 3.79001 29.5341 3.81401C29.6621 3.83401 29.7741 3.86601 29.8701 3.91001C29.9701 3.95001 30.0601 4.00201 30.1401 4.06601C30.2241 4.12601 30.3061 4.19401 30.3861 4.27001L29.8761 4.79201C29.7761 4.69201 29.6621 4.61401 29.5341 4.55801C29.4101 4.49801 29.2821 4.46801 29.1501 4.46801C28.9981 4.46801 28.8901 4.49201 28.8261 4.54001C28.7621 4.58801 28.7301 4.65201 28.7301 4.73201C28.7301 4.81601 28.7521 4.88201 28.7961 4.93001C28.8441 4.97401 28.9321 5.00601 29.0601 5.02601L29.4141 5.07401C30.1061 5.16601 30.4521 5.48201 30.4521 6.02201C30.4521 6.17401 30.4201 6.31401 30.3561 6.44201C30.2921 6.57001 30.2001 6.68201 30.0801 6.77801C29.9641 6.87001 29.8221 6.94201 29.6541 6.99401C29.4901 7.04601 29.3061 7.07201 29.1021 7.07201Z" fill="white"/>
<path d="M0.333008 2C0.333008 0.89543 1.22844 0 2.33301 0H17.333C18.4376 0 19.333 0.895431 19.333 2V8C19.333 9.10457 18.4376 10 17.333 10H2.33301C1.22844 10 0.333008 9.10457 0.333008 8V2Z" fill="#0E0E0E"/>
<path d="M3.38997 7.99982V7.03182H4.89397V3.28782H4.82197L3.68597 4.77582L2.91797 4.17582L4.25397 2.41582H6.09397V7.03182H7.27797V7.99982H3.38997Z" fill="white"/>
<path d="M9.83484 8.09582C9.10418 8.09582 8.56284 7.84249 8.21084 7.33582C7.85884 6.82916 7.68284 6.11982 7.68284 5.20782C7.68284 4.29582 7.85884 3.58649 8.21084 3.07982C8.56284 2.57316 9.10418 2.31982 9.83484 2.31982C10.5655 2.31982 11.1068 2.57316 11.4588 3.07982C11.8108 3.58649 11.9868 4.29582 11.9868 5.20782C11.9868 6.11982 11.8108 6.82916 11.4588 7.33582C11.1068 7.84249 10.5655 8.09582 9.83484 8.09582ZM9.83484 7.07982C10.1548 7.07982 10.3762 6.96249 10.4988 6.72782C10.6215 6.49316 10.6828 6.16249 10.6828 5.73582V4.67982C10.6828 4.25316 10.6215 3.92249 10.4988 3.68782C10.3762 3.45316 10.1548 3.33582 9.83484 3.33582C9.51484 3.33582 9.29351 3.45316 9.17084 3.68782C9.04818 3.92249 8.98684 4.25316 8.98684 4.67982V5.73582C8.98684 6.16249 9.04818 6.49316 9.17084 6.72782C9.29351 6.96249 9.51484 7.07982 9.83484 7.07982Z" fill="white"/>
<path d="M14.6317 8.09582C13.9011 8.09582 13.3597 7.84249 13.0077 7.33582C12.6557 6.82916 12.4797 6.11982 12.4797 5.20782C12.4797 4.29582 12.6557 3.58649 13.0077 3.07982C13.3597 2.57316 13.9011 2.31982 14.6317 2.31982C15.3624 2.31982 15.9037 2.57316 16.2557 3.07982C16.6077 3.58649 16.7837 4.29582 16.7837 5.20782C16.7837 6.11982 16.6077 6.82916 16.2557 7.33582C15.9037 7.84249 15.3624 8.09582 14.6317 8.09582ZM14.6317 7.07982C14.9517 7.07982 15.1731 6.96249 15.2957 6.72782C15.4184 6.49316 15.4797 6.16249 15.4797 5.73582V4.67982C15.4797 4.25316 15.4184 3.92249 15.2957 3.68782C15.1731 3.45316 14.9517 3.33582 14.6317 3.33582C14.3117 3.33582 14.0904 3.45316 13.9677 3.68782C13.8451 3.92249 13.7837 4.25316 13.7837 4.67982V5.73582C13.7837 6.16249 13.8451 6.49316 13.9677 6.72782C14.0904 6.96249 14.3117 7.07982 14.6317 7.07982Z" fill="white"/>
</svg>
