<svg width="33" height="32" viewBox="0 0 33 32" fill="none" xmlns="http://www.w3.org/2000/svg">
<path d="M23.167 13.0001H24.667V22H23.167V32H22.167V22H20.667V13.0001H22.167V11.0001H23.167V13.0001Z" fill="#85ACB0"/>
<path d="M30.667 11V18H29.167V22H28.167V18H26.667V11H30.667Z" fill="#85ACB0"/>
<path d="M17.167 20V16H16.167V20H14.667V28H16.167V30H17.167V28H18.667V20H17.167Z" fill="#85ACB0"/>
<path d="M11.167 15H12.667V21H11.167V28H10.167V21H8.66699V15H10.167V13H11.167V15Z" fill="#85ACB0"/>
<path d="M5.16699 19H6.66699V23H5.16699V25H4.16699V23H2.66699V19H4.16699V17H5.16699V19Z" fill="#85ACB0"/>
<path d="M0.666992 2C0.666992 0.89543 1.56242 0 2.66699 0H17.667C18.7716 0 19.667 0.895431 19.667 2V8C19.667 9.10457 18.7716 10 17.667 10H2.66699C1.56242 10 0.666992 9.10457 0.666992 8V2Z" fill="#0E0E0E"/>
<path d="M3.72395 7.99982V7.03182H5.22795V3.28782H5.15595L4.01995 4.77582L3.25195 4.17582L4.58795 2.41582H6.42795V7.03182H7.61195V7.99982H3.72395Z" fill="white"/>
<path d="M10.1688 8.09582C9.43816 8.09582 8.89683 7.84249 8.54483 7.33582C8.19283 6.82916 8.01683 6.11982 8.01683 5.20782C8.01683 4.29582 8.19283 3.58649 8.54483 3.07982C8.89683 2.57316 9.43816 2.31982 10.1688 2.31982C10.8995 2.31982 11.4408 2.57316 11.7928 3.07982C12.1448 3.58649 12.3208 4.29582 12.3208 5.20782C12.3208 6.11982 12.1448 6.82916 11.7928 7.33582C11.4408 7.84249 10.8995 8.09582 10.1688 8.09582ZM10.1688 7.07982C10.4888 7.07982 10.7102 6.96249 10.8328 6.72782C10.9555 6.49316 11.0168 6.16249 11.0168 5.73582V4.67982C11.0168 4.25316 10.9555 3.92249 10.8328 3.68782C10.7102 3.45316 10.4888 3.33582 10.1688 3.33582C9.84883 3.33582 9.6275 3.45316 9.50483 3.68782C9.38216 3.92249 9.32083 4.25316 9.32083 4.67982V5.73582C9.32083 6.16249 9.38216 6.49316 9.50483 6.72782C9.6275 6.96249 9.84883 7.07982 10.1688 7.07982Z" fill="white"/>
<path d="M14.9657 8.09582C14.235 8.09582 13.6937 7.84249 13.3417 7.33582C12.9897 6.82916 12.8137 6.11982 12.8137 5.20782C12.8137 4.29582 12.9897 3.58649 13.3417 3.07982C13.6937 2.57316 14.235 2.31982 14.9657 2.31982C15.6964 2.31982 16.2377 2.57316 16.5897 3.07982C16.9417 3.58649 17.1177 4.29582 17.1177 5.20782C17.1177 6.11982 16.9417 6.82916 16.5897 7.33582C16.2377 7.84249 15.6964 8.09582 14.9657 8.09582ZM14.9657 7.07982C15.2857 7.07982 15.507 6.96249 15.6297 6.72782C15.7524 6.49316 15.8137 6.16249 15.8137 5.73582V4.67982C15.8137 4.25316 15.7524 3.92249 15.6297 3.68782C15.507 3.45316 15.2857 3.33582 14.9657 3.33582C14.6457 3.33582 14.4244 3.45316 14.3017 3.68782C14.179 3.92249 14.1177 4.25316 14.1177 4.67982V5.73582C14.1177 6.16249 14.179 6.49316 14.3017 6.72782C14.4244 6.96249 14.6457 7.07982 14.9657 7.07982Z" fill="white"/>
</svg>
