<svg width="32" height="32" viewBox="0 0 32 32" fill="none" xmlns="http://www.w3.org/2000/svg">
<path d="M22.5 13.0001H24V22H22.5V32H21.5V22H20V13.0001H21.5V11.0001H22.5V13.0001Z" fill="#85ACB0"/>
<path d="M30 11V18H28.5V22H27.5V18H26V11H30Z" fill="#85ACB0"/>
<path d="M16.5 20V16H15.5V20H14V28H15.5V30H16.5V28H18V20H16.5Z" fill="#85ACB0"/>
<path d="M10.5 15H12V21H10.5V28H9.5V21H8V15H9.5V13H10.5V15Z" fill="#85ACB0"/>
<path d="M4.5 19H6V23H4.5V25H3.5V23H2V19H3.5V17H4.5V19Z" fill="#85ACB0"/>
<path d="M0 2C0 0.89543 0.895431 0 2 0H12C13.1046 0 14 0.895431 14 2V8C14 9.10457 13.1046 10 12 10H2C0.89543 10 0 9.10457 0 8V2Z" fill="#0E0E0E"/>
<path d="M3.53155 8.00002L5.40355 3.39202H3.65955V4.40802H2.64355V2.41602H6.59555V3.45602L4.79555 8.00002H3.53155Z" fill="white"/>
<path d="M11.1764 3.46402H8.64043L8.52043 5.23202H8.58443C8.63776 5.09868 8.69643 4.97868 8.76043 4.87202C8.82976 4.76002 8.90976 4.66668 9.00043 4.59202C9.0911 4.51202 9.20043 4.45068 9.32843 4.40802C9.45643 4.36535 9.60843 4.34402 9.78443 4.34402C10.0244 4.34402 10.2484 4.38402 10.4564 4.46402C10.6644 4.54402 10.8458 4.66135 11.0004 4.81602C11.1551 4.96535 11.2778 5.15202 11.3684 5.37602C11.4591 5.59468 11.5044 5.84268 11.5044 6.12002C11.5044 6.40268 11.4564 6.66668 11.3604 6.91202C11.2698 7.15202 11.1311 7.36002 10.9444 7.53602C10.7631 7.71202 10.5391 7.85068 10.2724 7.95202C10.0058 8.04802 9.70176 8.09602 9.36043 8.09602C9.08843 8.09602 8.84843 8.06668 8.64043 8.00802C8.43243 7.94935 8.24843 7.87202 8.08843 7.77602C7.92843 7.67468 7.78976 7.56002 7.67243 7.43202C7.5551 7.30402 7.45376 7.16802 7.36843 7.02402L8.24043 6.33602C8.3631 6.55468 8.50976 6.74135 8.68043 6.89602C8.8511 7.04535 9.08043 7.12002 9.36843 7.12002C9.65643 7.12002 9.87243 7.03735 10.0164 6.87202C10.1658 6.70668 10.2404 6.48802 10.2404 6.21602V6.15202C10.2404 5.89602 10.1658 5.69335 10.0164 5.54402C9.8671 5.39468 9.66176 5.32002 9.40043 5.32002C9.18176 5.32002 9.00043 5.36535 8.85643 5.45602C8.71776 5.54135 8.6111 5.62668 8.53643 5.71202L7.55243 5.57602L7.76043 2.41602H11.1764V3.46402Z" fill="white"/>
</svg>
