<svg width="33" height="32" fill="none" xmlns="http://www.w3.org/2000/svg"><path d="M2.613 11a9 9 0 1 1 18 0 9 9 0 0 1-18 0Z" fill="#fff"/><path d="M11.613 2a9 9 0 0 0-8.541 11.843h2.691V6.27l5.85 5.85 5.85-5.85v7.572h2.692A9 9 0 0 0 11.613 2Z" fill="#F60"/><path d="M7.714 10.912v4.765H3.922A8.995 8.995 0 0 0 11.612 20a8.995 8.995 0 0 0 7.69-4.323H15.51v-4.765l-3.898 3.898-3.898-3.898Z" fill="#4C4C4C"/><path d="M12.613 21a9 9 0 1 1 18 0 9 9 0 0 1-18 0Z" fill="#fff"/><path fill-rule="evenodd" clip-rule="evenodd" d="M21.233 12c-1.734.1-3.334.69-4.667 1.633h10.386A8.956 8.956 0 0 0 22.284 12h-1.051Zm-6.427 3.266a8.985 8.985 0 0 0-1.068 1.633H29.78a8.978 8.978 0 0 0-1.068-1.633H14.806ZM12.65 20.18c.05-.56.15-1.106.299-1.633h17.317c.148.527.249 1.072.298 1.633H12.65Zm.004 1.633a8.89 8.89 0 0 0 .308 1.633h17.29a8.897 8.897 0 0 0 .309-1.633H12.654Zm2.039 4.899a8.99 8.99 0 0 1-1.083-1.633h15.994a8.987 8.987 0 0 1-1.082 1.633H14.693Zm6.534 3.256.027.001.027.001a8.86 8.86 0 0 0 5.455-1.625H16.479a8.859 8.859 0 0 0 4.748 1.623Z" fill="#F44336"/><path d="M21.422 12.005a8.991 8.991 0 0 0-8.77 8.178h8.77v-8.178Z" fill="#283991"/><path d="m14.413 17.085.137.421h.444l-.36.26.138.422-.36-.26-.358.26.137-.422-.359-.26h.444l.137-.42Zm0 1.488.137.42h.444l-.36.261.138.421-.36-.26-.358.26.137-.42-.359-.261h.444l.137-.421Zm1.491-3.72.137.422h.444l-.36.26.138.421-.36-.26-.358.26.137-.42-.36-.261h.445l.137-.422Zm0 1.488.137.421h.444l-.36.26.138.422-.36-.26-.358.26.137-.422-.36-.26h.445l.137-.42Zm0 1.488.137.421h.444l-.36.26.138.421-.36-.26-.358.26.137-.42-.36-.26h.445l.137-.422Zm-2.623 1.102-.137-.42.359-.261h-.444l-.01-.03c-.048.15-.092.302-.133.456l.006-.005.36.26Zm.773-2.231.359-.26.359.26-.137-.421.359-.26h-.444l-.137-.422-.137.421h-.164l-.09.139.169.122-.137.421Zm1.85-2.492.359.26-.137-.42.358-.261h-.256a8.943 8.943 0 0 0-.63.516l-.054.165.36-.26Zm1.131-.483.36-.26.358.26-.137-.422.36-.26h-.444l-.02-.056a9.5 9.5 0 0 0-.444.24l.104.076-.137.422Zm.36.385.137.42h.443l-.359.261.137.421-.358-.26-.36.26.138-.42-.36-.261h.444l.137-.421Zm0 1.487.137.421h.443l-.359.26.137.422-.358-.26-.36.26.138-.421-.36-.26h.444l.137-.422Zm0 1.488.137.421h.443l-.359.26.137.422-.358-.26-.36.26.138-.422-.36-.26h.444l.137-.42Zm0 1.488.137.42h.443l-.359.261.137.421-.358-.26-.36.26.138-.42-.36-.261h.444l.137-.421Zm1.49-5.207.137.42h.444l-.359.261.137.421-.359-.26-.359.26.137-.42-.359-.261h.444l.137-.421Zm0 1.487.137.422h.444l-.359.26.137.421-.359-.26-.359.26.137-.42-.359-.261h.444l.137-.422Zm0 1.488.137.421h.444l-.359.26.137.422-.359-.26-.359.26.137-.422-.359-.26h.444l.137-.42Zm0 1.488.137.421h.444l-.359.26.137.421-.359-.26-.359.26.137-.42-.359-.26h.444l.137-.422Zm1.491-5.207.137.421h.444l-.359.26.137.422-.359-.26-.359.26.137-.422-.359-.26h.444l.137-.42Zm0 1.488.137.42h.444l-.359.261.137.421-.359-.26-.359.26.137-.42-.359-.261h.444l.137-.421Zm0 1.487.137.421h.444l-.359.26.137.422-.359-.26-.359.26.137-.421-.359-.26h.444l.137-.422Zm0 1.488.137.421h.444l-.359.26.137.422-.359-.26-.359.26.137-.422-.359-.26h.444l.137-.42Zm0 1.488.137.42h.444l-.359.261.137.421-.359-.26-.359.26.137-.42-.359-.261h.444l.137-.421Z" fill="#EFEFEF"/></svg>