<svg xmlns="http://www.w3.org/2000/svg" xmlns:xlink="http://www.w3.org/1999/xlink" width="328" height="164"><defs><linearGradient id="a" x1="50%" x2="70.279%" y1="0%" y2="100%"><stop offset="0%" stop-color="#E16A11"/><stop offset="100%" stop-color="#F6BF35"/></linearGradient><linearGradient id="b" x1="50%" x2="70.279%" y1="0%" y2="100%"><stop offset=".012%" stop-color="#FFA460"/><stop offset="24.515%" stop-color="#E16A11"/><stop offset="100%" stop-color="#F6BF35"/></linearGradient><linearGradient id="c" x1="11.093%" x2="50%" y1="0%" y2="100%"><stop offset="0%" stop-color="#171717"/><stop offset="100%" stop-color="#343333"/></linearGradient><linearGradient id="d" x1="25.694%" x2="47.941%" y1="0%" y2="69.223%"><stop offset="0%" stop-color="#484848"/><stop offset="22.259%" stop-color="#2E2E2E"/><stop offset="100%" stop-color="#151515"/></linearGradient><linearGradient id="f" x1="50%" x2="59.997%" y1="0%" y2="100%"><stop offset="0%" stop-color="#387ACD"/><stop offset="100%" stop-color="#69CEE8"/></linearGradient><linearGradient id="g" x1="36.219%" x2="59.997%" y1="0%" y2="100%"><stop offset="0%" stop-color="#ACD1FF"/><stop offset="15.014%" stop-color="#387ACD"/><stop offset="100%" stop-color="#69CEE8"/></linearGradient><linearGradient id="k" x1="50%" x2="50%" y1="0%" y2="100%"><stop offset="0%" stop-color="#A0A0A0"/><stop offset="100%" stop-color="#E3E3E3"/></linearGradient><linearGradient id="l" x1="50%" x2="50%" y1="0%" y2="100%"><stop offset=".03%" stop-color="#D1D1D1"/><stop offset="23.774%" stop-color="#A0A0A0"/><stop offset="100%" stop-color="#E3E3E3"/></linearGradient><filter id="e"><feColorMatrix in="SourceGraphic" values="0 0 0 0 1.000000 0 0 0 0 1.000000 0 0 0 0 1.000000 0 0 0 1.000000 0"/></filter><filter id="h"><feColorMatrix in="SourceGraphic" values="0 0 0 0 1.000000 0 0 0 0 1.000000 0 0 0 0 1.000000 0 0 0 1.000000 0"/></filter><filter id="m"><feColorMatrix in="SourceGraphic" values="0 0 0 0 0.000000 0 0 0 0 0.000000 0 0 0 0 0.000000 0 0 0 1.000000 0"/></filter><path id="i" d="M.006.047h20.049v16.392H.006z"/></defs><g fill="none" fill-rule="evenodd"><g transform="translate(0 .967)"><rect width="72" height="72" x=".5" y=".5" fill="url(#a)" stroke="url(#b)" rx="10"/><path fill="#FFF" fill-rule="nonzero" d="M7.54 52.945v-3.773h.033l.378.75 1.072 1.951 1.072-1.95.378-.751h.033v3.773h.526v-4.48h-.693l-1.29 2.414h-.032l-1.284-2.413h-.719v4.48h.527zm6.264.077c.377 0 .698-.09.963-.273a1.75 1.75 0 00.61-.747l-.43-.27c-.09.244-.231.44-.424.587a1.145 1.145 0 01-.719.222c-.39 0-.69-.13-.905-.392-.214-.26-.32-.622-.32-1.084v-.668c0-.23.027-.44.083-.625.056-.187.136-.347.24-.482.105-.135.234-.238.386-.311.151-.073.324-.11.516-.11.278 0 .51.07.693.21.184.139.321.324.411.555l.436-.264a1.68 1.68 0 00-.593-.725c-.255-.17-.57-.256-.947-.256-.569 0-1.012.202-1.328.606-.317.404-.475.983-.475 1.736s.158 1.323.475 1.71c.316.387.76.581 1.328.581zm3.909-.077c.278 0 .53-.047.757-.141.227-.094.42-.234.58-.42a1.92 1.92 0 00.37-.7c.085-.28.128-.606.128-.979 0-.372-.043-.698-.128-.978a1.912 1.912 0 00-.37-.7 1.523 1.523 0 00-.58-.42 1.963 1.963 0 00-.757-.141H16.21v4.48h1.502zm0-.475h-.963v-3.53h.963c.183 0 .352.032.507.094.154.062.286.152.397.272.112.12.198.267.26.44s.093.371.093.594v.731c0 .223-.03.42-.093.594-.062.173-.148.32-.26.44-.11.12-.243.21-.397.272a1.353 1.353 0 01-.507.093zM8.548 64.702v-.526c.41-.039.735-.17.972-.395.238-.224.357-.52.357-.889 0-.338-.102-.602-.305-.792-.203-.19-.527-.335-.972-.433l-.058-.013v-1.502a1.312 1.312 0 01.918.558l.391-.295a1.75 1.75 0 00-.549-.504 1.813 1.813 0 00-.754-.221v-.52H8.15v.526a1.94 1.94 0 00-.513.113 1.235 1.235 0 00-.398.234 1.044 1.044 0 00-.353.809c0 .333.102.595.305.786.203.19.525.334.966.433v1.65c-.218-.03-.41-.1-.575-.21a1.816 1.816 0 01-.452-.439l-.379.34c.159.21.35.384.575.523.224.14.5.22.824.24v.527h.398zm-.391-3.132c-.257-.068-.448-.157-.575-.266-.126-.11-.189-.273-.189-.491 0-.188.07-.338.209-.45.139-.11.324-.181.555-.211v1.418zm.385 2.15v-1.579c.3.073.512.167.638.283.127.115.19.282.19.5a.701.701 0 01-.222.536c-.147.14-.35.226-.606.26zm6.648.456V63.7h-2.355l1.207-1.085c.14-.128.272-.256.394-.385a2.64 2.64 0 00.312-.394c.085-.135.153-.277.202-.427a1.56 1.56 0 00.074-.488c0-.192-.031-.368-.093-.526a1.188 1.188 0 00-.267-.41 1.177 1.177 0 00-.43-.27 1.633 1.633 0 00-.584-.097c-.218 0-.407.03-.568.09a1.336 1.336 0 00-.693.575 1.843 1.843 0 00-.176.388l.481.186c.03-.107.07-.206.119-.298a.864.864 0 01.186-.241.79.79 0 01.266-.16.993.993 0 01.36-.058c.278 0 .485.077.622.23.137.155.205.356.205.604v.077c0 .218-.07.435-.211.651-.142.216-.317.42-.527.613l-1.463 1.348v.552h2.94zm2.356.077c.534 0 .925-.203 1.17-.61.247-.406.37-.975.37-1.707 0-.732-.123-1.3-.37-1.707-.245-.406-.636-.61-1.17-.61-.535 0-.926.204-1.172.61-.246.406-.369.975-.369 1.707 0 .732.123 1.3.37 1.707.245.407.636.61 1.17.61zm0-.469a.875.875 0 01-.45-.109.825.825 0 01-.301-.308 1.521 1.521 0 01-.17-.468 2.973 2.973 0 01-.055-.597v-.732c0-.218.018-.417.055-.597.036-.18.093-.335.17-.468a.832.832 0 01.301-.308.875.875 0 01.45-.11c.175 0 .325.037.449.11a.835.835 0 01.302.308c.077.133.133.289.17.468.036.18.054.38.054.597v.732c0 .218-.018.417-.054.597-.037.18-.093.336-.17.468a.827.827 0 01-.302.308.872.872 0 01-.45.11zm3.85.469c.257 0 .482-.033.674-.1.193-.066.354-.157.485-.272.13-.116.228-.253.295-.411.066-.158.1-.33.1-.514 0-.308-.084-.551-.251-.731a1.35 1.35 0 00-.655-.379v-.051c.236-.081.423-.213.562-.395.139-.182.209-.4.209-.658 0-.342-.125-.615-.373-.818-.248-.203-.597-.305-1.046-.305-.449 0-.798.102-1.046.305s-.372.476-.372.818c0 .257.07.476.209.658.139.182.326.314.561.395v.051c-.27.073-.488.2-.655.379-.166.18-.25.423-.25.731 0 .184.033.356.1.514.066.158.164.295.295.41.13.116.292.207.484.273.193.067.418.1.674.1zm0-2.657c-.282 0-.496-.06-.642-.18-.145-.12-.218-.295-.218-.526v-.096c0-.231.073-.407.218-.526.146-.12.36-.18.642-.18.283 0 .497.06.642.18.145.12.218.295.218.526v.096c0 .231-.073.406-.218.526-.145.12-.36.18-.642.18zm0 2.188c-.312 0-.554-.07-.725-.208-.171-.14-.257-.337-.257-.594v-.135c0-.256.086-.454.257-.593.171-.14.413-.209.725-.209.313 0 .554.07.725.209.172.139.257.337.257.593v.135c0 .257-.085.455-.257.594-.17.139-.412.208-.725.208zm2.798.469c.137 0 .237-.034.299-.103a.385.385 0 00.093-.27v-.083a.39.39 0 00-.093-.27c-.062-.068-.162-.102-.299-.102-.137 0-.236.034-.298.103a.385.385 0 00-.093.27v.083c0 .11.03.2.093.27.062.068.161.102.298.102zm2.574-.077l1.681-4.005v-.475h-2.94v1.297h.482v-.835h1.913l-1.714 4.018h.578zm5.66 0V63.7h-1.155v-4.005h-.84l-1.188 1.11.314.34 1.13-1.052h.045V63.7h-1.252v.475h2.946z"/><path fill="#FFF" d="M25.77 11.03c1.939 0 3.51 8.171 3.51 18.25h2.808c0-10.854-2.829-19.654-6.317-19.654-1.985 0-3.755 2.645-4.913 6.78-1.158-4.135-2.93-6.78-4.914-6.78-3.489 0-6.318 8.8-6.318 19.654h2.809c0-10.079 1.571-18.25 3.509-18.25s3.51 7.543 3.51 16.846h2.807c0-9.303 1.572-16.846 3.51-16.846"/></g><g transform="translate(85 .967)"><rect width="158" height="162" x=".5" y=".5" fill="url(#c)" stroke="url(#d)" rx="10"/><path d="M9.929 139.885l.45-1.313h1.811l.45 1.313h.565l-1.567-4.45h-.688l-1.567 4.45h.546zm2.126-1.785h-1.548l.758-2.168h.032l.758 2.168zm2.435 1.785v-1.9h1.246c.403 0 .712-.114.929-.341.216-.227.324-.539.324-.934s-.108-.707-.324-.934c-.217-.228-.526-.341-.93-.341H13.95v4.45h.54zm1.246-2.372H14.49v-1.607h1.246c.214 0 .38.056.498.166.118.11.177.268.177.472v.332c0 .204-.059.361-.177.472-.118.11-.284.165-.498.165zm2.647 2.372v-1.9h1.246c.403 0 .712-.114.929-.341.216-.227.324-.539.324-.934s-.107-.707-.324-.934c-.217-.228-.526-.341-.929-.341h-1.786v4.45h.54zm1.246-2.372h-1.246v-1.607h1.246c.215 0 .38.056.498.166.118.11.177.268.177.472v.332c0 .204-.059.361-.177.472-.117.11-.283.165-.498.165zm4.555 2.372v-.471h-1.908v-3.981h-.54v4.451h2.448zm-12.816 11.682v-.523c.411-.038.735-.169.973-.392s.357-.517.357-.883c0-.336-.102-.598-.305-.787-.204-.19-.528-.333-.974-.43l-.058-.014v-1.492c.206.03.384.093.534.188.15.096.278.218.385.367l.392-.293a1.717 1.717 0 00-.55-.5 1.798 1.798 0 00-.754-.22v-.517h-.398v.523c-.189.017-.36.054-.514.111a1.256 1.256 0 00-.399.233 1.042 1.042 0 00-.26.347 1.074 1.074 0 00-.093.456c0 .332.102.592.305.781.204.19.526.333.967.43v1.64a1.38 1.38 0 01-.575-.208 1.823 1.823 0 01-.453-.436l-.379.338c.159.208.35.381.575.52.225.137.5.217.826.238v.523h.398zm-.392-3.112c-.257-.068-.449-.156-.575-.264-.126-.109-.19-.271-.19-.488 0-.187.07-.336.21-.446.138-.11.324-.181.555-.21v1.408zm.385 2.137v-1.569c.3.072.513.166.64.28.126.115.19.281.19.498a.698.698 0 01-.222.532c-.148.138-.35.225-.608.259zm6.746.452v-.472h-1.156v-3.978h-.842l-1.189 1.103.315.338 1.13-1.046h.046v3.583h-1.253v.472h2.949zm2.062.077c.227 0 .435-.032.623-.096a1.46 1.46 0 00.482-.264c.133-.113.236-.25.308-.409.073-.159.11-.334.11-.526 0-.165-.027-.313-.08-.443a1.048 1.048 0 00-.213-.331 1.094 1.094 0 00-.302-.224 1.462 1.462 0 00-.35-.124v-.025c.12-.03.233-.075.338-.134a1.14 1.14 0 00.273-.217.966.966 0 00.183-.3c.045-.115.067-.244.067-.389 0-.178-.035-.338-.106-.478a1.035 1.035 0 00-.289-.354 1.273 1.273 0 00-.434-.217 1.88 1.88 0 00-.533-.073c-.18 0-.34.021-.482.064a1.476 1.476 0 00-.372.166 1.39 1.39 0 00-.28.232 1.9 1.9 0 00-.202.265l.398.306c.094-.17.214-.305.36-.405.146-.1.334-.15.565-.15.24 0 .434.059.582.176.147.116.221.292.221.526v.044a.688.688 0 01-.228.533c-.152.138-.38.207-.684.207h-.488v.465h.527c.317 0 .556.072.72.214.162.142.243.345.243.609v.051c0 .264-.081.467-.244.609-.163.142-.402.214-.72.214a1.39 1.39 0 01-.36-.042 1.002 1.002 0 01-.497-.303 1.686 1.686 0 01-.183-.242l-.405.306c.069.098.147.191.235.28.087.09.19.17.305.243.115.072.248.13.398.172.15.043.321.064.514.064zm3.855 0c.227 0 .434-.032.623-.096a1.48 1.48 0 00.482-.264c.132-.113.235-.25.308-.409.073-.159.11-.334.11-.526 0-.165-.028-.313-.081-.443a1.046 1.046 0 00-.212-.331 1.125 1.125 0 00-.302-.224 1.478 1.478 0 00-.35-.124v-.025c.12-.03.232-.075.337-.134.105-.06.196-.132.273-.217a.966.966 0 00.183-.3c.045-.115.068-.244.068-.389 0-.178-.036-.338-.106-.478a1.038 1.038 0 00-.29-.354 1.268 1.268 0 00-.433-.217 1.886 1.886 0 00-.533-.073c-.18 0-.34.021-.482.064a1.39 1.39 0 00-.653.398 1.98 1.98 0 00-.202.265l.399.306c.094-.17.214-.305.36-.405.145-.1.334-.15.565-.15.24 0 .433.059.581.176.148.116.222.292.222.526v.044a.688.688 0 01-.228.533c-.152.138-.38.207-.684.207h-.489v.465h.527c.317 0 .557.072.72.214.162.142.244.345.244.609v.051c0 .264-.082.467-.244.609-.163.142-.403.214-.72.214a1.38 1.38 0 01-.36-.042 1.009 1.009 0 01-.497-.303 1.62 1.62 0 01-.184-.242l-.404.306c.068.098.146.191.234.28a1.54 1.54 0 00.704.415c.15.043.32.064.514.064zm3.006 0c.137 0 .237-.034.299-.102a.382.382 0 00.093-.268v-.083c0-.11-.031-.2-.093-.268s-.162-.102-.299-.102c-.137 0-.236.034-.299.102a.383.383 0 00-.093.268v.083c0 .11.031.2.093.268.063.068.162.102.3.102zm2.698-.077a3.789 3.789 0 001.07-1.087c.156-.24.284-.506.382-.797.099-.291.148-.603.148-.934 0-.264-.034-.502-.103-.714a1.481 1.481 0 00-.299-.54 1.315 1.315 0 00-.475-.337 1.588 1.588 0 00-.626-.118c-.227 0-.432.036-.614.108a1.405 1.405 0 00-.469.303c-.13.13-.231.285-.302.466-.07.18-.106.38-.106.596 0 .213.033.403.1.57.066.169.157.312.273.431.116.12.255.21.417.274.163.064.34.096.534.096.274 0 .495-.06.665-.182a1.46 1.46 0 00.414-.456l.032.013a3.4 3.4 0 01-.238.698 3.05 3.05 0 01-.36.58c-.14.181-.306.354-.494.52a9.012 9.012 0 01-.642.51h.693zm.103-2.136c-.295 0-.526-.08-.69-.242-.165-.162-.248-.393-.248-.695v-.051c0-.302.083-.534.248-.695.164-.162.395-.243.69-.243.296 0 .526.081.69.243.166.161.248.393.248.695v.05c0 .303-.082.534-.247.696-.165.161-.395.242-.69.242zm4.85 2.136v-.873h.65v-.447h-.65v-3.13h-.803l-1.875 3.105v.472h2.164v.873h.514zm-.514-1.32H32.51l1.625-2.716h.032v2.716z" fill="#FFF" fill-rule="nonzero"/><g filter="url(#e)"><g fill="#000" fill-rule="nonzero"><path d="M15.483 32.378c-3.354-.02-6.128-6.967-6.128-10.506 0-5.78 4.274-7.045 5.92-7.045.743 0 1.535.296 2.234.558.489.182.994.37 1.275.37.169 0 .565-.16.915-.3.747-.302 1.676-.677 2.758-.677h.007c.808 0 3.257.18 4.73 2.424l.345.526-.496.38c-.71.544-2.004 1.534-2.004 3.496 0 2.324 1.466 3.218 2.17 3.648.31.19.632.385.632.813 0 .28-2.197 6.278-5.388 6.278-.781 0-1.333-.238-1.82-.448-.493-.213-.918-.396-1.62-.396-.356 0-.806.17-1.282.352-.651.247-1.388.527-2.225.527h-.022z"/><path d="M23.032 9.805c.087 3.01-2.158 5.099-4.4 4.968-.368-2.403 2.243-4.968 4.401-4.968z"/></g></g></g><g transform="translate(255 90.967)"><rect width="72" height="72" x=".5" y=".5" fill="url(#f)" stroke="url(#g)" rx="10"/><g filter="url(#h)"><g transform="translate(9.626 9.626)"><mask id="j" fill="#fff"><use xlink:href="#i"/></mask><path fill="#38A0CD" d="M20.055 1.988c-.738.33-1.53.552-2.363.652A4.148 4.148 0 0019.501.35a8.228 8.228 0 01-2.613 1.004A4.095 4.095 0 0013.885.047C11.613.047 9.77 1.9 9.77 4.187c0 .324.037.64.107.943A11.65 11.65 0 011.397.804a4.136 4.136 0 00-.558 2.082c0 1.436.726 2.703 1.83 3.445a4.073 4.073 0 01-1.863-.517v.052a4.136 4.136 0 003.3 4.059 4.08 4.08 0 01-1.858.071 4.123 4.123 0 003.843 2.875A8.224 8.224 0 010 14.585a11.59 11.59 0 006.307 1.86c7.568 0 11.707-6.308 11.707-11.779 0-.179-.004-.357-.012-.535a8.403 8.403 0 002.053-2.143" mask="url(#j)"/></g></g><path d="M8.523 52.945v-4.003h1.425v-.476h-3.39v.475h1.425v4.004h.539zm3.382 0l.597-2.233.423-1.643h.013l.411 1.643.584 2.233h.597l1.148-4.48h-.552l-.506 2.157-.385 1.669h-.02l-.417-1.669-.545-2.156h-.616l-.565 2.156-.417 1.675h-.013l-.372-1.675-.482-2.156h-.57l1.09 4.48h.597zm6.007 0v-4.003h1.425v-.476h-3.389v.475h1.425v4.004h.539zm2.702 0V51.02h1.046l.969 1.925h.61l-1.027-1.976c.295-.069.518-.209.67-.42.152-.213.228-.483.228-.813 0-.41-.11-.725-.33-.943-.22-.218-.528-.327-.921-.327h-1.784v4.48h.539zm1.245-2.387h-1.245v-1.617h1.245c.214 0 .38.055.497.166.118.112.177.27.177.475v.334c0 .205-.06.364-.177.475-.118.111-.283.167-.497.167zM8.548 64.702v-.526c.411-.039.735-.17.973-.395.237-.224.356-.52.356-.889 0-.338-.102-.602-.305-.792-.203-.19-.527-.335-.972-.433l-.058-.013v-1.502a1.316 1.316 0 01.918.558l.391-.295a1.757 1.757 0 00-.548-.504 1.817 1.817 0 00-.754-.22v-.52h-.398v.525c-.189.018-.36.055-.514.113a1.284 1.284 0 00-.398.234c-.11.098-.197.215-.26.35a1.103 1.103 0 00-.093.459c0 .333.102.595.305.786.204.19.525.335.966.433v1.65c-.218-.03-.41-.1-.574-.21a1.802 1.802 0 01-.453-.439l-.378.34c.158.21.35.384.574.523.225.14.5.22.825.241v.526h.398zm-.39-3.132c-.258-.068-.449-.157-.575-.266-.126-.109-.19-.273-.19-.49 0-.19.07-.339.209-.45.14-.111.324-.182.555-.212v1.418zm.384 2.15v-1.578c.3.072.513.166.639.282.126.115.19.282.19.5a.705.705 0 01-.222.536c-.148.14-.35.226-.607.26zm4.929.456l1.681-4.005v-.475h-2.939v1.297h.481v-.834h1.914l-1.714 4.017h.578zm3.023.077c.137 0 .236-.034.298-.103a.385.385 0 00.093-.27v-.083c0-.11-.03-.2-.093-.27-.062-.068-.161-.102-.298-.102-.137 0-.237.034-.299.103a.385.385 0 00-.093.27v.083c0 .111.031.2.093.27.062.068.162.102.299.102zm3.792-.077v-.88h.649v-.448h-.649v-3.152h-.802l-1.874 3.126v.475h2.163v.879h.513zm-.513-1.328h-1.656l1.624-2.734h.032v2.734zm3.37 1.405c.534 0 .924-.203 1.17-.61.246-.406.37-.975.37-1.707 0-.731-.124-1.3-.37-1.707-.246-.406-.636-.61-1.17-.61-.536 0-.926.204-1.172.61-.246.407-.369.976-.369 1.707 0 .732.123 1.3.369 1.707.246.407.636.61 1.171.61zm0-.469a.872.872 0 01-.45-.109.827.827 0 01-.302-.308 1.538 1.538 0 01-.17-.468 3.051 3.051 0 01-.054-.597v-.732c0-.218.018-.417.054-.596.037-.18.093-.336.17-.469a.835.835 0 01.302-.308.872.872 0 01.45-.109c.175 0 .324.036.448.11a.817.817 0 01.302.307c.077.133.134.289.17.469.037.18.055.378.055.596v.732c0 .218-.018.417-.055.597-.036.18-.093.336-.17.468a.82.82 0 01-.302.308.869.869 0 01-.449.11z" fill="#FFF" fill-rule="nonzero"/></g><g transform="translate(255 .967)"><rect width="72" height="78" x=".5" y=".5" fill="url(#k)" stroke="url(#l)" rx="10"/><g filter="url(#m)"><g fill="#E82127" fill-rule="nonzero"><path d="M44.34 11.812v3.207h1.022v-2.135h3.721v2.135h1.022v-3.201l-5.765-.006m.908-1.037h3.932c.546-.11.952-.594 1.066-1.063h-6.064c.113.47.525.954 1.065 1.064M41.244 15.021c.515-.22.792-.6.899-1.045h-4.587l.004-4.26-1.028.002v5.303h4.712M28.888 10.761h3.63c.548-.16 1.008-.58 1.12-1.045h-5.767v3.134h4.72v1.1l-3.703.003c-.58.163-1.072.555-1.317 1.073l.3-.005h5.734v-3.213h-4.717v-1.047M19.926 10.771h3.93c.547-.11.953-.595 1.067-1.065h-6.064c.113.47.526.954 1.067 1.064m0 2.096h3.93c.547-.108.953-.592 1.067-1.062h-6.064c.113.47.526.954 1.067 1.063m0 2.154h3.93c.547-.11.953-.594 1.067-1.063h-6.064c.113.469.526.953 1.067 1.063M9.702 9.72c.118.464.517.938 1.065 1.056h1.654l.084.034v4.199h1.033v-4.2l.094-.033h1.656a1.491 1.491 0 001.06-1.056v-.01H9.702v.01"/></g></g></g><path d="M266.731 57.953v-3.984h1.425v-.472h-3.39v.472h1.425v3.984h.539zm3.42.077c.24 0 .455-.032.646-.096.19-.064.351-.153.484-.268a1.14 1.14 0 00.305-.421 1.42 1.42 0 00.106-.556c0-.332-.099-.598-.295-.798-.197-.2-.516-.349-.957-.447l-.365-.083c-.283-.064-.494-.15-.633-.258-.139-.109-.208-.27-.208-.482 0-.243.082-.425.247-.546.165-.122.39-.182.677-.182.26 0 .48.049.655.147.175.098.325.232.449.402l.404-.294a1.651 1.651 0 00-.613-.542 1.884 1.884 0 00-.87-.186 2.14 2.14 0 00-.6.08 1.388 1.388 0 00-.468.233 1.06 1.06 0 00-.305.383 1.218 1.218 0 00-.109.524c0 .345.108.612.324.801.216.19.53.33.94.425l.366.083c.295.068.507.16.636.274.128.115.192.279.192.492 0 .255-.084.46-.253.613-.17.153-.414.23-.735.23-.261 0-.488-.055-.68-.163a1.761 1.761 0 01-.527-.476l-.398.332c.18.243.398.433.655.571.257.139.567.208.93.208zm4.916-.077v-.472h-1.906v-3.984h-.539v4.456h2.445zm.867 0l.449-1.315h1.81l.449 1.315h.565l-1.566-4.456h-.687l-1.566 4.456h.546zm2.124-1.787h-1.547l.758-2.171h.032l.757 2.17zm-11.302 13.483v-.523c.411-.039.735-.17.973-.393.237-.224.356-.518.356-.884 0-.337-.102-.6-.305-.789-.203-.19-.527-.333-.972-.43l-.058-.013v-1.494c.206.03.383.092.533.188.15.096.278.218.385.367l.391-.294a1.744 1.744 0 00-.548-.5 1.817 1.817 0 00-.754-.221v-.517h-.398v.523c-.189.017-.36.055-.514.112a1.282 1.282 0 00-.398.233c-.11.098-.197.214-.26.348a1.09 1.09 0 00-.093.457c0 .332.102.592.305.782.204.189.525.333.966.43v1.641a1.37 1.37 0 01-.574-.207 1.833 1.833 0 01-.453-.438l-.378.339c.158.208.35.382.574.52.225.138.5.218.825.24v.523h.398zm-.39-3.115c-.258-.069-.449-.157-.575-.265-.126-.109-.19-.272-.19-.489 0-.187.07-.336.209-.447.14-.11.324-.18.555-.21v1.41zm.384 2.138v-1.57c.3.072.513.166.639.28.126.116.19.282.19.499a.701.701 0 01-.222.533c-.148.138-.35.224-.607.258zm5.154.53c.256 0 .48-.033.673-.099a1.42 1.42 0 00.485-.271c.13-.115.229-.251.295-.409.066-.157.1-.327.1-.51 0-.307-.084-.55-.25-.728a1.356 1.356 0 00-.655-.377v-.051a1.16 1.16 0 00.561-.393c.14-.18.209-.399.209-.654 0-.34-.124-.612-.372-.814-.249-.202-.597-.303-1.046-.303-.45 0-.798.1-1.047.303-.248.202-.372.474-.372.814 0 .255.07.473.209.654.139.181.326.312.561.393v.051c-.27.072-.487.198-.654.377-.167.179-.25.421-.25.728 0 .183.033.353.099.51.066.158.165.294.295.409.13.115.292.205.485.271.192.066.417.1.674.1zm0-2.643c-.283 0-.497-.06-.642-.179-.146-.119-.218-.293-.218-.523v-.096c0-.23.072-.404.218-.523.145-.12.36-.18.642-.18.282 0 .496.06.641.18.146.119.218.293.218.523v.096c0 .23-.072.404-.218.523-.145.12-.36.18-.641.18zm0 2.177c-.313 0-.555-.069-.726-.207-.17-.139-.256-.336-.256-.59v-.135c0-.255.085-.452.256-.59.171-.139.413-.208.726-.208.312 0 .554.07.725.207.17.139.256.336.256.591v.134c0 .255-.085.452-.256.59-.171.139-.413.208-.725.208zm3.818.466c.235 0 .446-.036.632-.108a1.294 1.294 0 00.773-.77c.069-.18.103-.38.103-.597 0-.217-.033-.41-.1-.58a1.199 1.199 0 00-.702-.703 1.443 1.443 0 00-.533-.096c-.235 0-.42.045-.555.134-.135.09-.255.209-.362.358h-.045l.128-1.698h1.964v-.473h-2.4l-.16 2.452.455.064c.094-.102.2-.19.317-.265.118-.075.28-.112.485-.112.308 0 .541.08.7.243.158.161.237.39.237.683v.064c0 .293-.08.521-.237.683-.159.161-.392.242-.7.242-.137 0-.255-.013-.353-.041a.897.897 0 01-.465-.303 2.113 2.113 0 01-.177-.243l-.404.306c.068.098.144.192.228.281.083.09.18.17.292.243.111.072.238.13.382.172.143.043.309.064.497.064zm4.877-.076v-.875h.649v-.447h-.649v-3.135h-.802l-1.874 3.11v.472h2.163v.875h.513zm-.513-1.322h-1.656l1.624-2.72h.032v2.72zm2.317 1.398c.137 0 .236-.034.298-.102a.382.382 0 00.093-.268v-.083c0-.11-.03-.2-.093-.268-.062-.068-.161-.102-.298-.102-.137 0-.237.034-.299.102a.382.382 0 00-.093.268v.083c0 .11.031.2.093.268s.162.102.299.102zm2.804 0c.223 0 .426-.036.61-.108.184-.073.341-.174.472-.304.13-.13.23-.285.301-.466.07-.18.106-.38.106-.597a1.54 1.54 0 00-.1-.568 1.287 1.287 0 00-.272-.434 1.165 1.165 0 00-.417-.274 1.443 1.443 0 00-.533-.096c-.274 0-.495.06-.664.182-.17.121-.307.273-.414.456l-.032-.013a3.1 3.1 0 01.597-1.279 3.75 3.75 0 01.494-.52 8.58 8.58 0 01.642-.512h-.694a3.796 3.796 0 00-1.068 1.089c-.156.24-.284.506-.382.798a2.913 2.913 0 00-.148.935c0 .264.035.502.103.715.069.213.168.393.299.54.13.147.288.26.474.338.187.079.395.118.626.118zm-.006-.466c-.295 0-.525-.08-.69-.242-.165-.162-.247-.394-.247-.696v-.051c0-.303.082-.535.247-.696.165-.162.395-.243.69-.243.295 0 .525.08.69.243.164.161.247.393.247.696v.05c0 .303-.083.535-.247.697-.165.161-.395.242-.69.242zm3.748.39a3.48 3.48 0 00.552-.45c.188-.186.36-.398.516-.639.156-.24.284-.506.382-.798.098-.292.148-.603.148-.935 0-.264-.035-.503-.103-.715a1.5 1.5 0 00-.298-.54 1.31 1.31 0 00-.475-.338 1.588 1.588 0 00-.626-.118c-.227 0-.431.036-.613.108a1.33 1.33 0 00-.77.77c-.07.18-.106.38-.106.597 0 .212.033.403.1.57a1.178 1.178 0 00.689.706c.163.064.34.096.533.096.274 0 .495-.06.664-.182.17-.121.307-.273.414-.456l.032.012a3.1 3.1 0 01-.597 1.28 3.69 3.69 0 01-.494.52 8.76 8.76 0 01-.641.512h.693zm.102-2.14c-.295 0-.525-.08-.69-.242-.164-.161-.247-.393-.247-.696v-.05c0-.303.083-.535.247-.697.165-.161.395-.242.69-.242.296 0 .525.08.69.242.165.162.247.394.247.696v.051c0 .303-.082.535-.247.696-.165.162-.394.243-.69.243z" fill="#333" fill-rule="nonzero"/></g></svg>