<svg xmlns="http://www.w3.org/2000/svg" xmlns:xlink="http://www.w3.org/1999/xlink" width="272" height="224"><defs><path id="a" d="M0 .85h272v223H0z"/><path id="d" d="M153.17-39h106.122c7.587 0 13.257 6.15 12.666 13.738l-18.319 234.925c-.592 7.588-7.221 13.738-14.808 13.738H132.708c-7.587 0-13.257-6.15-12.666-13.738l18.319-234.925C138.953-32.849 145.582-39 153.169-39z"/><path id="g" d="M20.494 6.96h85.613c6.567 0 11.423 5.315 10.847 11.872l-7.514 85.483c-.577 6.558-6.367 11.873-12.934 11.873H10.893c-6.567 0-11.423-5.315-10.847-11.873L7.56 18.832C8.137 12.275 13.927 6.96 20.494 6.96z"/><path id="j" d="M29.548 134.175h18.53c6.584 0 11.453 5.316 10.875 11.873l-7.533 85.483c-.578 6.557-6.384 11.873-12.968 11.873h-18.53c-6.584 0-11.453-5.316-10.875-11.873l7.533-85.483c.578-6.557 6.384-11.873 12.968-11.873z"/><linearGradient id="e" x1="57.657%" x2="53.287%" y1="13.751%" y2="93.774%"><stop offset="0%" stop-color="#444" stop-opacity="0"/><stop offset="100%" stop-color="#303030"/></linearGradient><linearGradient id="h" x1="50%" x2="41.344%" y1="19.724%" y2="124.026%"><stop offset="0%" stop-color="#E3E0E0" stop-opacity="0"/><stop offset="100%" stop-color="#D1D1D1"/></linearGradient><linearGradient id="k" x1="50%" x2="48.186%" y1="15.263%" y2="134.934%"><stop offset="0%" stop-color="#E3E0E0" stop-opacity="0"/><stop offset="100%" stop-color="#D1D1D1"/></linearGradient><filter id="c" width="178.9%" height="145.7%" x="-36.8%" y="-11.4%" filterUnits="objectBoundingBox"><feOffset dx="4" dy="30" in="SourceAlpha" result="shadowOffsetOuter1"/><feGaussianBlur in="shadowOffsetOuter1" result="shadowBlurOuter1" stdDeviation="15"/><feColorMatrix in="shadowBlurOuter1" values="0 0 0 0 0 0 0 0 0 0 0 0 0 0 0 0 0 0 0.2 0"/></filter><filter id="f" width="202.6%" height="209.9%" x="-47.9%" y="-27.5%" filterUnits="objectBoundingBox"><feOffset dx="4" dy="30" in="SourceAlpha" result="shadowOffsetOuter1"/><feGaussianBlur in="shadowOffsetOuter1" result="shadowBlurOuter1" stdDeviation="15"/><feColorMatrix in="shadowBlurOuter1" values="0 0 0 0 0 0 0 0 0 0 0 0 0 0 0 0 0 0 0.1 0"/></filter><filter id="i" width="340%" height="209.9%" x="-112%" y="-27.5%" filterUnits="objectBoundingBox"><feOffset dx="4" dy="30" in="SourceAlpha" result="shadowOffsetOuter1"/><feGaussianBlur in="shadowOffsetOuter1" result="shadowBlurOuter1" stdDeviation="15"/><feColorMatrix in="shadowBlurOuter1" values="0 0 0 0 0 0 0 0 0 0 0 0 0 0 0 0 0 0 0.1 0"/></filter></defs><g fill="none" fill-rule="evenodd"><mask id="b" fill="#fff"><use xlink:href="#a"/></mask><g fill-rule="nonzero" mask="url(#b)" opacity=".378"><use fill="#000" filter="url(#c)" xlink:href="#d"/><use fill="url(#e)" xlink:href="#d"/></g><g fill-rule="nonzero" mask="url(#b)" opacity=".101"><use fill="#000" filter="url(#f)" xlink:href="#g"/><use fill="url(#h)" xlink:href="#g"/></g><g fill-rule="nonzero" mask="url(#b)" opacity=".101"><use fill="#000" filter="url(#i)" xlink:href="#j"/><use fill="url(#k)" xlink:href="#j"/></g></g></svg>