<svg xmlns="http://www.w3.org/2000/svg" xmlns:xlink="http://www.w3.org/1999/xlink" width="328" height="164" viewBox="0 0 328 164">
    <defs>
        <linearGradient id="8revw2qxqb" x1="50%" x2="70.279%" y1="0%" y2="100%">
            <stop offset="0%" stop-color="#E16A11"/>
            <stop offset="100%" stop-color="#F6BF35"/>
        </linearGradient>
        <linearGradient id="41mwncn15a" x1="50%" x2="70.279%" y1="0%" y2="100%">
            <stop offset=".012%" stop-color="#FFA460"/>
            <stop offset="24.515%" stop-color="#E16A11"/>
            <stop offset="100%" stop-color="#F6BF35"/>
        </linearGradient>
        <linearGradient id="c0xyv10xcd" x1="11.093%" x2="50%" y1="0%" y2="100%">
            <stop offset="0%" stop-color="#171717"/>
            <stop offset="100%" stop-color="#343333"/>
        </linearGradient>
        <linearGradient id="hygymyzihc" x1="25.694%" x2="47.941%" y1="0%" y2="69.223%">
            <stop offset="0%" stop-color="#484848"/>
            <stop offset="22.259%" stop-color="#2E2E2E"/>
            <stop offset="100%" stop-color="#151515"/>
        </linearGradient>
        <linearGradient id="0bz2798xzg" x1="50%" x2="59.997%" y1="0%" y2="100%">
            <stop offset="0%" stop-color="#387ACD"/>
            <stop offset="100%" stop-color="#69CEE8"/>
        </linearGradient>
        <linearGradient id="sng9c1khpf" x1="36.219%" x2="59.997%" y1="0%" y2="100%">
            <stop offset="0%" stop-color="#ACD1FF"/>
            <stop offset="15.014%" stop-color="#387ACD"/>
            <stop offset="100%" stop-color="#69CEE8"/>
        </linearGradient>
        <linearGradient id="a20bq74udl" x1="50%" x2="50%" y1="0%" y2="100%">
            <stop offset="0%" stop-color="#A0A0A0"/>
            <stop offset="100%" stop-color="#E3E3E3"/>
        </linearGradient>
        <linearGradient id="tyvsdtg1zk" x1="50%" x2="50%" y1="0%" y2="100%">
            <stop offset=".03%" stop-color="#D1D1D1"/>
            <stop offset="23.774%" stop-color="#A0A0A0"/>
            <stop offset="100%" stop-color="#E3E3E3"/>
        </linearGradient>
        <filter id="prv90ic0oe">
            <feColorMatrix in="SourceGraphic" values="0 0 0 0 1.000000 0 0 0 0 1.000000 0 0 0 0 1.000000 0 0 0 1.000000 0"/>
        </filter>
        <filter id="72c4kgcy7h">
            <feColorMatrix in="SourceGraphic" values="0 0 0 0 1.000000 0 0 0 0 1.000000 0 0 0 0 1.000000 0 0 0 1.000000 0"/>
        </filter>
        <filter id="er9ecs57em">
            <feColorMatrix in="SourceGraphic" values="0 0 0 0 0.000000 0 0 0 0 0.000000 0 0 0 0 0.000000 0 0 0 1.000000 0"/>
        </filter>
        <path id="4jhysxtpni" d="M0.006 0.047L20.055 0.047 20.055 16.439 0.006 16.439z"/>
    </defs>
    <g fill="none" fill-rule="evenodd">
        <g>
            <g>
                <g transform="translate(-16 -734) translate(16 734) translate(0 .967)">
                    <rect width="72" height="72" x=".5" y=".5" fill="url(#8revw2qxqb)" stroke="url(#41mwncn15a)" rx="10"/>
                    <path fill="#FFF" fill-rule="nonzero" d="M7.54 52.945v-3.773h.033l.378.75 1.072 1.951 1.072-1.95.378-.751h.033v3.773h.526v-4.48h-.693l-1.29 2.414h-.032l-1.284-2.413h-.719v4.48h.527zm6.264.077c.377 0 .698-.09.963-.273.265-.182.468-.43.61-.747l-.43-.27c-.09.244-.231.44-.424.587-.193.148-.432.222-.719.222-.39 0-.69-.13-.905-.392-.214-.26-.32-.622-.32-1.084v-.668c0-.23.027-.44.083-.625.056-.187.136-.347.24-.482.105-.135.234-.238.386-.311.151-.073.324-.11.516-.11.278 0 .51.07.693.21.184.139.321.324.411.555l.436-.264c-.14-.312-.339-.554-.593-.725-.255-.17-.57-.256-.947-.256-.569 0-1.012.202-1.328.606-.317.404-.475.983-.475 1.736s.158 1.323.475 1.71c.316.387.76.581 1.328.581zm3.909-.077c.278 0 .53-.047.757-.141.227-.094.42-.234.58-.42.161-.187.284-.42.37-.7.085-.28.128-.606.128-.979 0-.372-.043-.698-.128-.978-.086-.28-.209-.514-.37-.7-.16-.186-.353-.326-.58-.42-.227-.094-.48-.141-.757-.141H16.21v4.48h1.502zm0-.475h-.963v-3.53h.963c.183 0 .352.032.507.094.154.062.286.152.397.272.112.12.198.267.26.44s.093.371.093.594v.731c0 .223-.03.42-.093.594-.062.173-.148.32-.26.44-.11.12-.243.21-.397.272-.155.062-.324.093-.507.093zM8.548 64.702v-.526c.41-.039.735-.17.972-.395.238-.224.357-.52.357-.889 0-.338-.102-.602-.305-.792-.203-.19-.527-.335-.972-.433l-.058-.013v-1.502c.205.03.383.093.532.19.15.096.279.219.386.368l.391-.295c-.154-.214-.337-.382-.549-.504-.211-.122-.463-.195-.754-.221v-.52H8.15v.526c-.188.017-.36.055-.513.113-.154.057-.287.135-.398.234-.111.098-.198.215-.26.35-.062.134-.093.287-.093.459 0 .333.102.595.305.786.203.19.525.334.966.433v1.65c-.218-.03-.41-.1-.575-.21-.164-.108-.315-.255-.452-.439l-.379.34c.159.21.35.384.575.523.224.14.5.22.824.24v.527h.398zm-.391-3.132c-.257-.068-.448-.157-.575-.266-.126-.11-.189-.273-.189-.491 0-.188.07-.338.209-.45.139-.11.324-.181.555-.211v1.418zm.385 2.15v-1.579c.3.073.512.167.638.283.127.115.19.282.19.5 0 .219-.074.397-.222.536-.147.14-.35.226-.606.26zm6.648.456V63.7h-2.355l1.207-1.085c.14-.128.272-.256.394-.385.122-.128.226-.26.312-.394.085-.135.153-.277.202-.427.049-.15.074-.312.074-.488 0-.192-.031-.368-.093-.526-.063-.158-.151-.295-.267-.41-.115-.116-.259-.206-.43-.27-.17-.065-.366-.097-.584-.097-.218 0-.407.03-.568.09-.16.06-.297.14-.41.238-.114.098-.208.21-.283.337-.075.126-.134.255-.176.388l.481.186c.03-.107.07-.206.119-.298.049-.092.11-.173.186-.241.075-.069.163-.122.266-.16.103-.04.223-.058.36-.058.278 0 .485.077.622.23.137.155.205.356.205.604v.077c0 .218-.07.435-.211.651-.142.216-.317.42-.527.613l-1.463 1.348v.552h2.94zm2.356.077c.534 0 .925-.203 1.17-.61.247-.406.37-.975.37-1.707 0-.732-.123-1.3-.37-1.707-.245-.406-.636-.61-1.17-.61-.535 0-.926.204-1.172.61-.246.406-.369.975-.369 1.707 0 .732.123 1.3.37 1.707.245.407.636.61 1.17.61zm0-.469c-.176 0-.325-.036-.45-.109-.124-.072-.224-.175-.301-.308-.077-.132-.134-.289-.17-.468-.037-.18-.055-.379-.055-.597v-.732c0-.218.018-.417.055-.597.036-.18.093-.335.17-.468.077-.133.177-.235.301-.308.125-.073.274-.11.45-.11.175 0 .325.037.449.11.124.073.225.175.302.308.077.133.133.289.17.468.036.18.054.38.054.597v.732c0 .218-.018.417-.054.597-.037.18-.093.336-.17.468-.077.133-.178.236-.302.308-.124.073-.274.11-.45.11zm3.85.469c.257 0 .482-.033.674-.1.193-.066.354-.157.485-.272.13-.116.228-.253.295-.411.066-.158.1-.33.1-.514 0-.308-.084-.551-.251-.731-.167-.18-.385-.306-.655-.379v-.051c.236-.081.423-.213.562-.395.139-.182.209-.4.209-.658 0-.342-.125-.615-.373-.818-.248-.203-.597-.305-1.046-.305-.449 0-.798.102-1.046.305s-.372.476-.372.818c0 .257.07.476.209.658.139.182.326.314.561.395v.051c-.27.073-.488.2-.655.379-.166.18-.25.423-.25.731 0 .184.033.356.1.514.066.158.164.295.295.41.13.116.292.207.484.273.193.067.418.1.674.1zm0-2.657c-.282 0-.496-.06-.642-.18-.145-.12-.218-.295-.218-.526v-.096c0-.231.073-.407.218-.526.146-.12.36-.18.642-.18.283 0 .497.06.642.18.145.12.218.295.218.526v.096c0 .231-.073.406-.218.526-.145.12-.36.18-.642.18zm0 2.188c-.312 0-.554-.07-.725-.208-.171-.14-.257-.337-.257-.594v-.135c0-.256.086-.454.257-.593.171-.14.413-.209.725-.209.313 0 .554.07.725.209.172.139.257.337.257.593v.135c0 .257-.085.455-.257.594-.17.139-.412.208-.725.208zm2.798.469c.137 0 .237-.034.299-.103.062-.068.093-.158.093-.27v-.083c0-.111-.031-.2-.093-.27-.062-.068-.162-.102-.299-.102-.137 0-.236.034-.298.103-.062.068-.093.158-.093.27v.083c0 .11.03.2.093.27.062.068.161.102.298.102zm2.574-.077l1.681-4.005v-.475h-2.94v1.297h.482v-.835h1.913l-1.714 4.018h.578zm5.66 0V63.7h-1.155v-4.005h-.84l-1.188 1.11.314.34 1.13-1.052h.045v3.607h-1.252v.475h2.946z"/>
                    <path fill="#FFF" d="M25.77 11.03c1.939 0 3.51 8.171 3.51 18.25h2.808c0-10.854-2.829-19.654-6.317-19.654-1.985 0-3.755 2.645-4.913 6.78-1.158-4.135-2.93-6.78-4.914-6.78-3.489 0-6.318 8.8-6.318 19.654h2.809c0-10.079 1.571-18.25 3.509-18.25s3.51 7.543 3.51 16.846h2.807c0-9.303 1.572-16.846 3.51-16.846"/>
                </g>
                <g transform="translate(-16 -734) translate(16 734) translate(85 .967)">
                    <rect width="158" height="162" x=".5" y=".5" fill="url(#c0xyv10xcd)" stroke="url(#hygymyzihc)" rx="10"/>
                    <g fill="#FFF" fill-rule="nonzero">
                        <path d="M.694 4.782l.45-1.313h1.811l.45 1.313h.565L2.403.332h-.688L.148 4.782h.546zM2.82 2.997H1.272L2.03.829h.032l.758 2.168zm2.435 1.785v-1.9h1.246c.403 0 .712-.114.929-.341.216-.227.324-.539.324-.934S7.646.9 7.43.673C7.213.445 6.904.332 6.5.332H4.715v4.45h.54zM6.501 2.41H5.255V.803h1.246c.214 0 .38.056.498.166.118.11.177.268.177.472v.332c0 .204-.059.361-.177.472-.118.11-.284.165-.498.165zm2.647 2.372v-1.9h1.246c.403 0 .712-.114.929-.341.216-.227.324-.539.324-.934S11.54.9 11.323.673c-.217-.228-.526-.341-.929-.341H8.608v4.45h.54zm1.246-2.372H9.148V.803h1.246c.215 0 .38.056.498.166.118.11.177.268.177.472v.332c0 .204-.059.361-.177.472-.117.11-.283.165-.498.165zm4.555 2.372v-.471h-1.908V.33h-.54v4.451h2.448zM2.133 16.464v-.523c.411-.038.735-.169.973-.392s.357-.517.357-.883c0-.336-.102-.598-.305-.787-.204-.19-.528-.333-.974-.43l-.058-.014v-1.492c.206.03.384.093.534.188.15.096.278.218.385.367l.392-.293c-.154-.213-.337-.38-.55-.5-.211-.122-.463-.195-.754-.22v-.517h-.398v.523c-.189.017-.36.054-.514.111-.155.057-.287.135-.399.233-.111.098-.198.213-.26.347-.062.134-.093.286-.093.456 0 .332.102.592.305.781.204.19.526.333.967.43v1.64c-.218-.03-.41-.1-.575-.208-.165-.108-.316-.254-.453-.436l-.379.338c.159.208.35.381.575.52.225.137.5.217.826.238v.523h.398zm-.392-3.112c-.257-.068-.449-.156-.575-.264-.126-.109-.19-.271-.19-.488 0-.187.07-.336.21-.446.138-.11.324-.181.555-.21v1.408zm.385 2.137V13.92c.3.072.513.166.64.28.126.115.19.281.19.498 0 .217-.075.394-.222.532-.148.138-.35.225-.608.259zm6.746.452v-.472H7.716v-3.978h-.842l-1.189 1.103.315.338 1.13-1.046h.046v3.583H5.923v.472h2.949zm2.062.077c.227 0 .435-.032.623-.096.189-.064.35-.152.482-.264.133-.113.236-.25.308-.409.073-.159.11-.334.11-.526 0-.165-.027-.313-.08-.443-.054-.13-.125-.24-.213-.331-.087-.092-.188-.166-.302-.224-.113-.057-.23-.098-.35-.124v-.025c.12-.03.233-.075.338-.134.104-.06.195-.132.273-.217.077-.085.138-.185.183-.3.045-.115.067-.244.067-.389 0-.178-.035-.338-.106-.478-.07-.14-.167-.258-.289-.354-.122-.096-.267-.168-.434-.217-.167-.049-.344-.073-.533-.073-.18 0-.34.021-.482.064-.141.042-.265.098-.372.166-.107.068-.2.145-.28.232-.079.087-.146.176-.202.265l.398.306c.094-.17.214-.305.36-.405.146-.1.334-.15.565-.15.24 0 .434.059.582.176.147.116.221.292.221.526v.044c0 .217-.076.395-.228.533-.152.138-.38.207-.684.207h-.488v.465h.527c.317 0 .556.072.72.214.162.142.243.345.243.609v.051c0 .264-.081.467-.244.609-.163.142-.402.214-.72.214-.136 0-.256-.014-.36-.042-.102-.027-.194-.067-.275-.118-.082-.05-.156-.112-.222-.185-.066-.072-.127-.153-.183-.242l-.405.306c.069.098.147.191.235.28.087.09.19.17.305.243.115.072.248.13.398.172.15.043.321.064.514.064zm3.855 0c.227 0 .434-.032.623-.096.188-.064.349-.152.482-.264.132-.113.235-.25.308-.409.073-.159.11-.334.11-.526 0-.165-.028-.313-.081-.443-.054-.13-.124-.24-.212-.331-.088-.092-.189-.166-.302-.224-.114-.057-.23-.098-.35-.124v-.025c.12-.03.232-.075.337-.134.105-.06.196-.132.273-.217.077-.085.138-.185.183-.3.045-.115.068-.244.068-.389 0-.178-.036-.338-.106-.478-.071-.14-.167-.258-.29-.354-.122-.096-.266-.168-.433-.217-.167-.049-.345-.073-.533-.073-.18 0-.34.021-.482.064-.141.042-.266.098-.373.166-.107.068-.2.145-.28.232-.078.087-.146.176-.202.265l.399.306c.094-.17.214-.305.36-.405.145-.1.334-.15.565-.15.24 0 .433.059.581.176.148.116.222.292.222.526v.044c0 .217-.076.395-.228.533-.152.138-.38.207-.684.207h-.489v.465h.527c.317 0 .557.072.72.214.162.142.244.345.244.609v.051c0 .264-.082.467-.244.609-.163.142-.403.214-.72.214-.137 0-.257-.014-.36-.042-.102-.027-.194-.067-.276-.118-.081-.05-.155-.112-.221-.185-.067-.072-.128-.153-.184-.242l-.404.306c.068.098.146.191.234.28.088.09.19.17.305.243.116.072.249.13.399.172.15.043.32.064.514.064zm3.006 0c.137 0 .237-.034.299-.102.062-.068.093-.157.093-.268v-.083c0-.11-.031-.2-.093-.268s-.162-.102-.299-.102c-.137 0-.236.034-.299.102-.062.068-.093.158-.093.268v.083c0 .11.031.2.093.268.063.068.162.102.3.102zm2.698-.077c.18-.114.364-.264.553-.45.188-.184.36-.397.517-.637.156-.24.284-.506.382-.797.099-.291.148-.603.148-.934 0-.264-.034-.502-.103-.714-.068-.213-.168-.392-.299-.54-.13-.146-.289-.258-.475-.337-.186-.079-.395-.118-.626-.118-.227 0-.432.036-.614.108-.182.073-.338.174-.469.303-.13.13-.231.285-.302.466-.07.18-.106.38-.106.596 0 .213.033.403.1.57.066.169.157.312.273.431.116.12.255.21.417.274.163.064.34.096.534.096.274 0 .495-.06.665-.182.169-.121.307-.273.414-.456l.032.013c-.06.26-.14.492-.238.698-.098.206-.218.4-.36.58-.14.181-.306.354-.494.52-.189.166-.403.336-.642.51h.693zm.103-2.136c-.295 0-.526-.08-.69-.242-.165-.162-.248-.393-.248-.695v-.051c0-.302.083-.534.248-.695.164-.162.395-.243.69-.243.296 0 .526.081.69.243.166.161.248.393.248.695v.05c0 .303-.082.534-.247.696-.165.161-.395.242-.69.242zm4.85 2.136v-.873h.65v-.447h-.65v-3.13h-.803l-1.875 3.105v.472h2.164v.873h.514zm-.514-1.32h-1.657l1.625-2.716h.032v2.716z" transform="translate(9.235 135.103)"/>
                    </g>
                    <g filter="url(#prv90ic0oe)">
                        <g fill="#000" fill-rule="nonzero">
                            <path d="M6.248 22.813C2.894 22.793.12 15.846.12 12.307c0-5.78 4.274-7.045 5.92-7.045.743 0 1.535.296 2.234.558.489.182.994.37 1.275.37.169 0 .565-.16.915-.3.747-.302 1.676-.677 2.758-.677h.007c.808 0 3.257.18 4.73 2.424l.345.526-.496.38c-.71.544-2.004 1.534-2.004 3.496 0 2.324 1.466 3.218 2.17 3.648.31.19.632.385.632.813 0 .28-2.197 6.278-5.388 6.278-.781 0-1.333-.238-1.82-.448-.493-.213-.918-.396-1.62-.396-.356 0-.806.17-1.282.352-.651.247-1.388.527-2.225.527h-.022z" transform="translate(9.235 9.565)"/>
                            <path d="M13.797.24c.087 3.01-2.158 5.099-4.4 4.968C9.029 2.805 11.64.24 13.798.24z" transform="translate(9.235 9.565)"/>
                        </g>
                    </g>
                </g>
                <g transform="translate(-16 -734) translate(16 734) translate(255 90.967)">
                    <rect width="72" height="72" x=".5" y=".5" fill="url(#0bz2798xzg)" stroke="url(#sng9c1khpf)" rx="10"/>
                    <g filter="url(#72c4kgcy7h)">
                        <g transform="translate(9.626 9.626)">
                            <mask id="ahci8ynfjj" fill="#fff">
                                <use xlink:href="#4jhysxtpni"/>
                            </mask>
                            <path fill="#38A0CD" d="M20.055 1.988c-.738.33-1.53.552-2.363.652.85-.513 1.502-1.324 1.809-2.29-.795.474-1.676.818-2.613 1.004-.75-.805-1.82-1.307-3.003-1.307-2.272 0-4.115 1.853-4.115 4.14 0 .324.037.64.107.943-3.42-.173-6.452-1.82-8.48-4.326-.355.612-.558 1.323-.558 2.082 0 1.436.726 2.703 1.83 3.445-.674-.021-1.308-.207-1.863-.517v.052c0 2.005 1.418 3.679 3.3 4.059-.345.095-.709.145-1.084.145-.265 0-.523-.026-.774-.074.523 1.644 2.043 2.841 3.843 2.875-1.408 1.11-3.182 1.772-5.11 1.772-.332 0-.66-.02-.981-.058 1.82 1.175 3.984 1.86 6.307 1.86 7.568 0 11.707-6.308 11.707-11.779 0-.179-.004-.357-.012-.535.804-.584 1.501-1.313 2.053-2.143" mask="url(#ahci8ynfjj)"/>
                        </g>
                    </g>
                    <g fill="#FFF" fill-rule="nonzero">
                        <path d="M2.105 4.813V.81H3.53V.334H.14v.475h1.425v4.004h.539zm3.382 0l.597-2.233.423-1.643h.013l.411 1.643.584 2.233h.597L9.26.333h-.552L8.202 2.49l-.385 1.669h-.02L7.38 2.49 6.835.334h-.616L5.654 2.49l-.417 1.675h-.013L4.852 2.49 4.37.334H3.8l1.09 4.48h.597zm6.007 0V.81h1.425V.334H9.53v.475h1.425v4.004h.539zm2.702 0V2.888h1.046l.969 1.925h.61l-1.027-1.976c.295-.069.518-.209.67-.42.152-.213.228-.483.228-.813 0-.41-.11-.725-.33-.943-.22-.218-.528-.327-.921-.327h-1.784v4.48h.539zm1.245-2.387h-1.245V.809h1.245c.214 0 .38.055.497.166.118.112.177.27.177.475v.334c0 .205-.06.364-.177.475-.118.111-.283.167-.497.167zM2.13 16.57v-.526c.411-.039.735-.17.973-.395.237-.224.356-.52.356-.889 0-.338-.102-.602-.305-.792-.203-.19-.527-.335-.972-.433l-.058-.013V12.02c.206.03.383.093.533.19.15.096.278.219.385.368l.391-.295c-.154-.214-.337-.382-.548-.504-.212-.121-.463-.195-.754-.22v-.52h-.398v.525c-.189.018-.36.055-.514.113-.154.058-.286.136-.398.234-.11.098-.197.215-.26.35-.061.135-.093.288-.093.459 0 .333.102.595.305.786.204.19.525.335.966.433v1.65c-.218-.03-.41-.1-.574-.21-.165-.108-.316-.255-.453-.439l-.378.34c.158.21.35.384.574.523.225.14.5.22.825.241v.526h.398zm-.39-3.132c-.258-.068-.449-.157-.575-.266-.126-.109-.19-.273-.19-.49 0-.19.07-.339.209-.45.14-.111.324-.182.555-.212v1.418zm.384 2.15V14.01c.3.072.513.166.639.282.126.115.19.282.19.5 0 .219-.075.397-.222.536-.148.14-.35.226-.607.26zm4.929.456l1.681-4.005v-.475H5.795v1.297h.481v-.834H8.19l-1.714 4.017h.578zm3.023.077c.137 0 .236-.034.298-.103.062-.068.093-.158.093-.27v-.083c0-.11-.03-.2-.093-.27-.062-.068-.161-.102-.298-.102-.137 0-.237.034-.299.103-.062.068-.093.158-.093.27v.083c0 .111.031.2.093.27.062.068.162.102.299.102zm3.792-.077v-.88h.649v-.448h-.649v-3.152h-.802l-1.874 3.126v.475h2.163v.879h.513zm-.513-1.328h-1.656l1.624-2.734h.032v2.734zm3.37 1.405c.534 0 .924-.203 1.17-.61.246-.406.37-.975.37-1.707 0-.731-.124-1.3-.37-1.707-.246-.406-.636-.61-1.17-.61-.536 0-.926.204-1.172.61-.246.407-.369.976-.369 1.707 0 .732.123 1.3.369 1.707.246.407.636.61 1.171.61zm0-.469c-.176 0-.326-.036-.45-.109-.124-.072-.225-.175-.302-.308-.077-.132-.133-.288-.17-.468-.036-.18-.054-.379-.054-.597v-.732c0-.218.018-.417.054-.596.037-.18.093-.336.17-.469.077-.133.178-.235.302-.308.124-.073.274-.109.45-.109.175 0 .324.036.448.11.125.072.225.174.302.307.077.133.134.289.17.469.037.18.055.378.055.596v.732c0 .218-.018.417-.055.597-.036.18-.093.336-.17.468-.077.133-.177.236-.302.308-.124.073-.273.11-.449.11z" transform="translate(6.418 48.132)"/>
                    </g>
                </g>
                <g>
                    <g transform="translate(-16 -734) translate(16 734) translate(255 .967)">
                        <rect width="72" height="78" x=".5" y=".5" fill="url(#a20bq74udl)" stroke="url(#tyvsdtg1zk)" rx="10"/>
                        <g filter="url(#er9ecs57em)">
                            <g fill="#E82127" fill-rule="nonzero">
                                <g>
                                    <path d="M.233 2.236L.233 5.443 1.255 5.443 1.255 3.308 4.976 3.308 4.976 5.443 5.998 5.443 5.998 2.242.233 2.236M1.141 1.199h3.932c.546-.11.952-.594 1.066-1.063H.075C.188.606.6 1.09 1.14 1.2" transform="translate(9.626 9.576) translate(34.481)"/>
                                </g>
                                <g>
                                    <path d="M4.848 5.445c.515-.22.792-.6.899-1.045H1.16L1.164.14.136.142v5.303h4.712" transform="translate(9.626 9.576) translate(26.77)"/>
                                </g>
                                <g>
                                    <path d="M1.367 1.185h3.63c.548-.16 1.008-.58 1.12-1.045H.35v3.134h4.72v1.1l-3.703.003C.787 4.54.295 4.932.05 5.45l.3-.005h5.734V2.232H1.367V1.185" transform="translate(9.626 9.576) translate(17.895)"/>
                                </g>
                                <g>
                                    <path d="M1.134 1.195h3.93C5.611 1.085 6.017.6 6.131.13H.067c.113.47.526.954 1.067 1.064M1.134 3.29h3.93c.547-.108.953-.592 1.067-1.062H.067c.113.47.526.954 1.067 1.063M1.134 5.445h3.93c.547-.11.953-.594 1.067-1.063H.067c.113.469.526.953 1.067 1.063" transform="translate(9.626 9.576) translate(9.166)"/>
                                </g>
                                <g>
                                    <path d="M.076.144c.118.464.517.938 1.065 1.056h1.654l.084.034v4.199h1.033v-4.2l.094-.033h1.656c.553-.143.944-.592 1.06-1.056v-.01H.076v.01" transform="translate(9.626 9.576)"/>
                                </g>
                            </g>
                        </g>
                    </g>
                    <g fill="#333" fill-rule="nonzero">
                        <path d="M2.105 4.788V.804H3.53V.332H.14v.472h1.425v3.984h.539zm3.42.077c.24 0 .455-.032.646-.096.19-.064.351-.153.484-.268.133-.115.234-.255.305-.421.07-.166.106-.352.106-.556 0-.332-.099-.598-.295-.798-.197-.2-.516-.349-.957-.447l-.365-.083c-.283-.064-.494-.15-.633-.258-.139-.109-.208-.27-.208-.482 0-.243.082-.425.247-.546.165-.122.39-.182.677-.182.26 0 .48.049.655.147.175.098.325.232.449.402L7.04.983C6.873.745 6.67.563 6.427.441c-.242-.124-.531-.186-.87-.186-.218 0-.418.027-.6.08-.181.053-.337.131-.468.233-.13.102-.232.23-.305.383-.072.153-.109.328-.109.524 0 .345.108.612.324.801.216.19.53.33.94.425l.366.083c.295.068.507.16.636.274.128.115.192.279.192.492 0 .255-.084.46-.253.613-.17.153-.414.23-.735.23-.261 0-.488-.055-.68-.163-.193-.109-.368-.268-.527-.476l-.398.332c.18.243.398.433.655.571.257.139.567.208.93.208zm4.916-.077v-.472H8.535V.332h-.539v4.456h2.445zm.867 0l.449-1.315h1.81l.449 1.315h.565L13.015.332h-.687l-1.566 4.456h.546zm2.124-1.787h-1.547L12.643.83h.032L13.432 3zM2.13 16.484v-.523c.411-.039.735-.17.973-.393.237-.224.356-.518.356-.884 0-.337-.102-.6-.305-.789-.203-.19-.527-.333-.972-.43l-.058-.013v-1.494c.206.03.383.092.533.188.15.096.278.218.385.367l.391-.294c-.154-.212-.337-.38-.548-.5-.212-.122-.463-.195-.754-.221v-.517h-.398v.523c-.189.017-.36.055-.514.112-.154.058-.286.135-.398.233-.11.098-.197.214-.26.348-.061.134-.093.286-.093.457 0 .332.102.592.305.782.204.189.525.333.966.43v1.641c-.218-.03-.41-.099-.574-.207-.165-.109-.316-.255-.453-.438l-.378.339c.158.208.35.382.574.52.225.138.5.218.825.24v.523h.398zm-.39-3.115c-.258-.069-.449-.157-.575-.265-.126-.109-.19-.272-.19-.489 0-.187.07-.336.209-.447.14-.11.324-.18.555-.21v1.41zm.384 2.138v-1.57c.3.072.513.166.639.28.126.116.19.282.19.499 0 .217-.075.394-.222.533-.148.138-.35.224-.607.258zm5.154.53c.256 0 .48-.033.673-.099.193-.066.354-.156.485-.271.13-.115.229-.251.295-.409.066-.157.1-.327.1-.51 0-.307-.084-.55-.25-.728-.168-.179-.386-.305-.655-.377v-.051c.235-.08.422-.212.561-.393.14-.18.209-.399.209-.654 0-.34-.124-.612-.372-.814-.249-.202-.597-.303-1.046-.303-.45 0-.798.1-1.047.303-.248.202-.372.474-.372.814 0 .255.07.473.209.654.139.181.326.312.561.393v.051c-.27.072-.487.198-.654.377-.167.179-.25.421-.25.728 0 .183.033.353.099.51.066.158.165.294.295.409.13.115.292.205.485.271.192.066.417.1.674.1zm0-2.643c-.283 0-.497-.06-.642-.179-.146-.119-.218-.293-.218-.523v-.096c0-.23.072-.404.218-.523.145-.12.36-.18.642-.18.282 0 .496.06.641.18.146.119.218.293.218.523v.096c0 .23-.072.404-.218.523-.145.12-.36.18-.641.18zm0 2.177c-.313 0-.555-.069-.726-.207-.17-.139-.256-.336-.256-.59v-.135c0-.255.085-.452.256-.59.171-.139.413-.208.726-.208.312 0 .554.07.725.207.17.139.256.336.256.591v.134c0 .255-.085.452-.256.59-.171.139-.413.208-.725.208zm3.818.466c.235 0 .446-.036.632-.108.186-.073.345-.174.475-.304s.23-.285.298-.466c.069-.18.103-.38.103-.597 0-.217-.033-.41-.1-.58-.066-.17-.159-.314-.279-.431-.12-.118-.26-.208-.423-.272-.163-.064-.34-.096-.533-.096-.235 0-.42.045-.555.134-.135.09-.255.209-.362.358h-.045l.128-1.698h1.964v-.473h-2.4l-.16 2.452.455.064c.094-.102.2-.19.317-.265.118-.075.28-.112.485-.112.308 0 .541.08.7.243.158.161.237.39.237.683v.064c0 .293-.08.521-.237.683-.159.161-.392.242-.7.242-.137 0-.255-.013-.353-.041-.098-.028-.185-.067-.26-.118-.075-.051-.143-.113-.205-.185-.062-.073-.121-.154-.177-.243l-.404.306c.068.098.144.192.228.281.083.09.18.17.292.243.111.072.238.13.382.172.143.043.309.064.497.064zm4.877-.076v-.875h.649v-.447h-.649v-3.135h-.802l-1.874 3.11v.472h2.163v.875h.513zm-.513-1.322h-1.656l1.624-2.72h.032v2.72zm2.317 1.398c.137 0 .236-.034.298-.102.062-.068.093-.157.093-.268v-.083c0-.11-.03-.2-.093-.268-.062-.068-.161-.102-.298-.102-.137 0-.237.034-.299.102-.062.068-.093.157-.093.268v.083c0 .11.031.2.093.268s.162.102.299.102zm2.804 0c.223 0 .426-.036.61-.108.184-.073.341-.174.472-.304.13-.13.23-.285.301-.466.07-.18.106-.38.106-.597 0-.208-.033-.398-.1-.568-.066-.17-.157-.315-.272-.434-.116-.12-.255-.21-.417-.274-.163-.064-.34-.096-.533-.096-.274 0-.495.06-.664.182-.17.121-.307.273-.414.456l-.032-.013c.06-.26.139-.492.237-.699.099-.206.218-.4.36-.58.14-.181.306-.355.494-.52.188-.167.402-.337.642-.512h-.694c-.18.115-.363.265-.551.45-.189.186-.36.398-.517.639-.156.24-.284.506-.382.798-.098.291-.148.603-.148.935 0 .264.035.502.103.715.069.213.168.393.299.54.13.147.288.26.474.338.187.079.395.118.626.118zm-.006-.466c-.295 0-.525-.08-.69-.242-.165-.162-.247-.394-.247-.696v-.051c0-.303.082-.535.247-.696.165-.162.395-.243.69-.243.295 0 .525.08.69.243.164.161.247.393.247.696v.05c0 .303-.083.535-.247.697-.165.161-.395.242-.69.242zm3.748.39c.18-.115.363-.265.552-.45.188-.186.36-.398.516-.639.156-.24.284-.506.382-.798.098-.292.148-.603.148-.935 0-.264-.035-.503-.103-.715-.069-.213-.168-.393-.298-.54-.131-.147-.29-.26-.475-.338-.186-.079-.395-.118-.626-.118-.227 0-.431.036-.613.108-.182.073-.338.174-.468.304-.131.13-.231.285-.302.466-.07.18-.106.38-.106.597 0 .212.033.403.1.57.066.169.157.313.272.432.116.119.255.21.417.274.163.064.34.096.533.096.274 0 .495-.06.664-.182.17-.121.307-.273.414-.456l.032.012c-.06.26-.139.493-.237.7-.099.206-.218.4-.36.58-.14.181-.305.355-.494.52-.188.167-.402.337-.641.512h.693zm.102-2.14c-.295 0-.525-.08-.69-.242-.164-.161-.247-.393-.247-.696v-.05c0-.303.083-.535.247-.697.165-.161.395-.242.69-.242.296 0 .525.08.69.242.165.162.247.394.247.696v.051c0 .303-.082.535-.247.696-.165.162-.394.243-.69.243z" transform="translate(-16 -734) translate(16 734) translate(255 .967) translate(9.626 52.198)"/>
                    </g>
                </g>
            </g>
        </g>
    </g>
</svg>
