<svg width="484" height="816" viewBox="0 0 484 816" fill="none" xmlns="http://www.w3.org/2000/svg">
<rect x="168.5" y="0.5" width="315" height="325" rx="23.5" fill="url(#paint0_linear_4_465)"/>
<path d="M216.312 37.8329C218.195 37.8329 221.779 35.2294 225.475 35.618C228.989 35.728 232.245 37.4906 234.261 40.3741C231.08 42.3327 229.122 45.7868 229.074 49.5263C229.078 53.7571 231.609 57.5752 235.5 59.2232C234.752 61.6577 233.623 63.9583 232.157 66.0399C232.113 66.107 232.068 66.174 232.023 66.2409L231.753 66.6413C229.901 69.3688 227.901 71.8738 224.848 71.9234C221.664 71.997 220.594 70.0474 216.943 70.0474C213.257 70.0474 212.117 71.8702 209.063 71.997C205.943 72.1127 203.559 68.8494 201.518 65.928C197.44 59.9619 194.264 49.1146 198.522 41.7338C200.521 38.1365 204.259 35.8538 208.368 35.7209C211.491 35.6565 214.391 37.8329 216.312 37.8329ZM225.514 24C225.727 26.7867 224.847 29.5468 223.061 31.6943C221.327 33.8528 218.701 35.0961 215.935 35.0676C215.759 32.3611 216.665 29.6956 218.453 27.6582C220.264 25.5932 222.785 24.287 225.514 24Z" fill="white"/>
<path d="M199.42 273L198.44 270.116H194.492L193.512 273H192.322L195.738 263.228H197.236L200.652 273H199.42ZM196.494 264.32H196.424L194.772 269.08H198.146L196.494 264.32ZM208.594 273L207.614 270.116H203.666L202.686 273H201.496L204.912 263.228H206.41L209.826 273H208.594ZM205.668 264.32H205.598L203.946 269.08H207.32L205.668 264.32ZM211.445 273V263.228H215.337C216.214 263.228 216.886 263.48 217.353 263.984C217.829 264.479 218.067 265.16 218.067 266.028C218.067 266.896 217.829 267.582 217.353 268.086C216.886 268.581 216.214 268.828 215.337 268.828H212.621V273H211.445ZM212.621 267.792H215.337C215.803 267.792 216.163 267.671 216.415 267.428C216.676 267.185 216.807 266.84 216.807 266.392V265.664C216.807 265.216 216.676 264.871 216.415 264.628C216.163 264.385 215.803 264.264 215.337 264.264H212.621V267.792ZM219.935 273V263.228H221.111V271.964H225.269V273H219.935Z" fill="white"/>
<path d="M195.78 298.148V297C195.071 296.953 194.469 296.781 193.974 296.482C193.489 296.174 193.073 295.791 192.728 295.334L193.554 294.592C193.853 294.993 194.179 295.315 194.534 295.558C194.898 295.791 195.318 295.941 195.794 296.006V292.408C194.833 292.193 194.128 291.881 193.68 291.47C193.241 291.05 193.022 290.476 193.022 289.748C193.022 289.375 193.087 289.043 193.218 288.754C193.358 288.455 193.549 288.199 193.792 287.984C194.035 287.769 194.324 287.601 194.66 287.48C194.996 287.349 195.369 287.265 195.78 287.228V286.08H196.648V287.214C197.283 287.27 197.829 287.433 198.286 287.704C198.753 287.965 199.154 288.329 199.49 288.796L198.636 289.44C198.403 289.113 198.123 288.847 197.796 288.642C197.469 288.427 197.082 288.287 196.634 288.222V291.498L196.76 291.526C197.731 291.741 198.435 292.058 198.874 292.478C199.322 292.889 199.546 293.463 199.546 294.2C199.546 295.003 199.285 295.651 198.762 296.146C198.249 296.631 197.544 296.916 196.648 297V298.148H195.78ZM198.44 294.27C198.44 293.794 198.3 293.43 198.02 293.178C197.749 292.926 197.287 292.721 196.634 292.562V296.006C197.194 295.931 197.633 295.745 197.95 295.446C198.277 295.138 198.44 294.746 198.44 294.27ZM194.128 289.664C194.128 290.14 194.263 290.499 194.534 290.742C194.814 290.975 195.234 291.167 195.794 291.316V288.222C195.29 288.287 194.884 288.441 194.576 288.684C194.277 288.927 194.128 289.253 194.128 289.664ZM204.908 297V295.964H207.638V288.096H207.54L205.076 290.392L204.39 289.65L206.98 287.228H208.814V295.964H211.334V297H204.908ZM215.724 291.372C216.387 291.372 216.882 291.223 217.208 290.924C217.544 290.616 217.712 290.224 217.712 289.748V289.65C217.712 289.137 217.549 288.754 217.222 288.502C216.905 288.241 216.485 288.11 215.962 288.11C215.458 288.11 215.048 288.222 214.73 288.446C214.413 288.661 214.152 288.955 213.946 289.328L213.078 288.656C213.2 288.46 213.344 288.269 213.512 288.082C213.69 287.886 213.895 287.713 214.128 287.564C214.362 287.415 214.632 287.293 214.94 287.2C215.248 287.107 215.598 287.06 215.99 287.06C216.401 287.06 216.788 287.116 217.152 287.228C217.516 287.331 217.829 287.489 218.09 287.704C218.361 287.909 218.571 288.166 218.72 288.474C218.879 288.782 218.958 289.132 218.958 289.524C218.958 289.841 218.907 290.126 218.804 290.378C218.711 290.63 218.58 290.849 218.412 291.036C218.244 291.223 218.044 291.381 217.81 291.512C217.586 291.643 217.344 291.741 217.082 291.806V291.862C217.344 291.918 217.596 292.011 217.838 292.142C218.09 292.263 218.31 292.427 218.496 292.632C218.692 292.828 218.846 293.071 218.958 293.36C219.08 293.64 219.14 293.962 219.14 294.326C219.14 294.746 219.061 295.133 218.902 295.488C218.744 295.833 218.52 296.132 218.23 296.384C217.941 296.627 217.591 296.818 217.18 296.958C216.77 297.098 216.317 297.168 215.822 297.168C215.402 297.168 215.029 297.121 214.702 297.028C214.376 296.935 214.086 296.809 213.834 296.65C213.582 296.491 213.358 296.314 213.162 296.118C212.976 295.922 212.808 295.717 212.658 295.502L213.54 294.83C213.662 295.026 213.792 295.203 213.932 295.362C214.082 295.521 214.245 295.656 214.422 295.768C214.6 295.88 214.8 295.969 215.024 296.034C215.248 296.09 215.51 296.118 215.808 296.118C216.499 296.118 217.022 295.964 217.376 295.656C217.731 295.339 217.908 294.891 217.908 294.312V294.2C217.908 293.621 217.731 293.178 217.376 292.87C217.022 292.553 216.499 292.394 215.808 292.394H214.66V291.372H215.724ZM224.119 291.372C224.782 291.372 225.276 291.223 225.603 290.924C225.939 290.616 226.107 290.224 226.107 289.748V289.65C226.107 289.137 225.944 288.754 225.617 288.502C225.3 288.241 224.88 288.11 224.357 288.11C223.853 288.11 223.442 288.222 223.125 288.446C222.808 288.661 222.546 288.955 222.341 289.328L221.473 288.656C221.594 288.46 221.739 288.269 221.907 288.082C222.084 287.886 222.29 287.713 222.523 287.564C222.756 287.415 223.027 287.293 223.335 287.2C223.643 287.107 223.993 287.06 224.385 287.06C224.796 287.06 225.183 287.116 225.547 287.228C225.911 287.331 226.224 287.489 226.485 287.704C226.756 287.909 226.966 288.166 227.115 288.474C227.274 288.782 227.353 289.132 227.353 289.524C227.353 289.841 227.302 290.126 227.199 290.378C227.106 290.63 226.975 290.849 226.807 291.036C226.639 291.223 226.438 291.381 226.205 291.512C225.981 291.643 225.738 291.741 225.477 291.806V291.862C225.738 291.918 225.99 292.011 226.233 292.142C226.485 292.263 226.704 292.427 226.891 292.632C227.087 292.828 227.241 293.071 227.353 293.36C227.474 293.64 227.535 293.962 227.535 294.326C227.535 294.746 227.456 295.133 227.297 295.488C227.138 295.833 226.914 296.132 226.625 296.384C226.336 296.627 225.986 296.818 225.575 296.958C225.164 297.098 224.712 297.168 224.217 297.168C223.797 297.168 223.424 297.121 223.097 297.028C222.77 296.935 222.481 296.809 222.229 296.65C221.977 296.491 221.753 296.314 221.557 296.118C221.37 295.922 221.202 295.717 221.053 295.502L221.935 294.83C222.056 295.026 222.187 295.203 222.327 295.362C222.476 295.521 222.64 295.656 222.817 295.768C222.994 295.88 223.195 295.969 223.419 296.034C223.643 296.09 223.904 296.118 224.203 296.118C224.894 296.118 225.416 295.964 225.771 295.656C226.126 295.339 226.303 294.891 226.303 294.312V294.2C226.303 293.621 226.126 293.178 225.771 292.87C225.416 292.553 224.894 292.394 224.203 292.394H223.055V291.372H224.119ZM230.763 297.168C230.465 297.168 230.245 297.093 230.105 296.944C229.975 296.795 229.909 296.599 229.909 296.356V296.174C229.909 295.931 229.975 295.735 230.105 295.586C230.245 295.437 230.465 295.362 230.763 295.362C231.062 295.362 231.277 295.437 231.407 295.586C231.547 295.735 231.617 295.931 231.617 296.174V296.356C231.617 296.599 231.547 296.795 231.407 296.944C231.277 297.093 231.062 297.168 230.763 297.168ZM240.136 290.812C240.136 291.54 240.028 292.226 239.814 292.87C239.599 293.505 239.319 294.088 238.974 294.62C238.638 295.143 238.264 295.609 237.854 296.02C237.443 296.421 237.042 296.748 236.65 297H235.138C235.66 296.617 236.127 296.244 236.538 295.88C236.948 295.516 237.308 295.138 237.616 294.746C237.924 294.345 238.185 293.92 238.4 293.472C238.614 293.015 238.787 292.501 238.918 291.932L238.848 291.904C238.614 292.305 238.311 292.641 237.938 292.912C237.574 293.173 237.093 293.304 236.496 293.304C236.076 293.304 235.688 293.234 235.334 293.094C234.979 292.954 234.676 292.753 234.424 292.492C234.172 292.231 233.971 291.918 233.822 291.554C233.682 291.181 233.612 290.761 233.612 290.294C233.612 289.818 233.686 289.384 233.836 288.992C233.994 288.591 234.214 288.25 234.494 287.97C234.783 287.681 235.124 287.457 235.516 287.298C235.917 287.139 236.365 287.06 236.86 287.06C237.364 287.06 237.816 287.149 238.218 287.326C238.628 287.494 238.974 287.741 239.254 288.068C239.543 288.385 239.762 288.777 239.912 289.244C240.061 289.711 240.136 290.233 240.136 290.812ZM236.874 292.31C237.518 292.31 238.017 292.133 238.372 291.778C238.736 291.423 238.918 290.915 238.918 290.252V290.14C238.918 289.477 238.736 288.969 238.372 288.614C238.017 288.259 237.518 288.082 236.874 288.082C236.23 288.082 235.726 288.259 235.362 288.614C235.007 288.969 234.83 289.477 234.83 290.14V290.252C234.83 290.915 235.007 291.423 235.362 291.778C235.726 292.133 236.23 292.31 236.874 292.31ZM246.318 297V295.082H241.6V294.046L245.688 287.228H247.438V294.102H248.852V295.082H247.438V297H246.318ZM242.706 294.102H246.318V288.138H246.248L242.706 294.102Z" fill="white"/>
<rect x="168.5" y="0.5" width="315" height="325" rx="23.5" stroke="url(#paint1_linear_4_465)"/>
<rect x="338.5" y="518.5" width="143" height="297" rx="23.5" fill="url(#paint2_linear_4_465)"/>
<rect x="338.5" y="518.5" width="143" height="297" rx="23.5" fill="url(#paint3_linear_4_465)"/>
<path fill-rule="evenodd" clip-rule="evenodd" d="M374.35 544.123H382.171C383.26 543.904 384.068 542.937 384.295 542H372.226C372.451 542.937 373.271 543.904 374.35 544.123ZM432.576 544.131H424.751C423.675 543.913 422.854 542.946 422.629 542.009H434.699C434.471 542.945 433.663 543.913 432.576 544.131ZM422.943 552.605V546.202L434.418 546.213V552.605H432.384V548.342H424.979V552.605H422.943ZM416.78 552.609C417.807 552.17 418.358 551.411 418.57 550.522H409.443L409.449 542.015L407.403 542.02V552.609H416.78ZM399.415 544.103H392.188V546.194H401.577V552.606H390.163L389.566 552.617C390.055 551.584 391.034 550.801 392.188 550.476L399.558 550.47V548.275H390.163V542.018H401.642C401.419 542.946 400.504 543.783 399.415 544.103ZM382.171 548.307H374.35C373.271 548.091 372.451 547.124 372.226 546.186H384.295C384.068 547.123 383.26 548.091 382.171 548.307ZM374.35 552.608H382.171C383.26 552.389 384.068 551.422 384.295 550.485H372.226C372.451 551.422 373.271 552.389 374.35 552.608ZM356.119 544.134C355.029 543.897 354.235 542.951 354 542.026V542.005H367.227V542.026C366.996 542.951 366.219 543.847 365.118 544.134H361.822L361.635 544.201V552.584H359.579V544.201L359.411 544.134H356.119Z" fill="black"/>
<path d="M358.592 754.264V763H357.416V754.264H354.308V753.228H361.7V754.264H358.592ZM365.907 763.168C365.114 763.168 364.437 763.019 363.877 762.72C363.317 762.412 362.841 761.992 362.449 761.46L363.317 760.732C363.663 761.189 364.045 761.539 364.465 761.782C364.885 762.015 365.38 762.132 365.949 762.132C366.649 762.132 367.181 761.964 367.545 761.628C367.919 761.292 368.105 760.844 368.105 760.284C368.105 759.817 367.965 759.458 367.685 759.206C367.405 758.954 366.943 758.753 366.299 758.604L365.501 758.422C364.605 758.217 363.919 757.909 363.443 757.498C362.977 757.078 362.743 756.49 362.743 755.734C362.743 755.305 362.823 754.922 362.981 754.586C363.14 754.25 363.359 753.97 363.639 753.746C363.929 753.522 364.269 753.354 364.661 753.242C365.063 753.121 365.501 753.06 365.977 753.06C366.715 753.06 367.345 753.195 367.867 753.466C368.399 753.737 368.847 754.133 369.211 754.656L368.329 755.3C368.059 754.927 367.732 754.633 367.349 754.418C366.967 754.203 366.491 754.096 365.921 754.096C365.296 754.096 364.801 754.231 364.437 754.502C364.083 754.763 363.905 755.16 363.905 755.692C363.905 756.159 364.055 756.513 364.353 756.756C364.661 756.989 365.123 757.176 365.739 757.316L366.537 757.498C367.499 757.713 368.194 758.039 368.623 758.478C369.053 758.917 369.267 759.5 369.267 760.228C369.267 760.676 369.188 761.082 369.029 761.446C368.88 761.81 368.661 762.118 368.371 762.37C368.082 762.622 367.727 762.818 367.307 762.958C366.897 763.098 366.43 763.168 365.907 763.168ZM371.298 763V753.228H372.474V761.964H376.632V763H371.298ZM384.69 763L383.71 760.116H379.762L378.782 763H377.592L381.008 753.228H382.506L385.922 763H384.69ZM381.764 754.32H381.694L380.042 759.08H383.416L381.764 754.32Z" fill="#6E6E6E"/>
<path d="M357.78 788.148V787C357.071 786.953 356.469 786.781 355.974 786.482C355.489 786.174 355.073 785.791 354.728 785.334L355.554 784.592C355.853 784.993 356.179 785.315 356.534 785.558C356.898 785.791 357.318 785.941 357.794 786.006V782.408C356.833 782.193 356.128 781.881 355.68 781.47C355.241 781.05 355.022 780.476 355.022 779.748C355.022 779.375 355.087 779.043 355.218 778.754C355.358 778.455 355.549 778.199 355.792 777.984C356.035 777.769 356.324 777.601 356.66 777.48C356.996 777.349 357.369 777.265 357.78 777.228V776.08H358.648V777.214C359.283 777.27 359.829 777.433 360.286 777.704C360.753 777.965 361.154 778.329 361.49 778.796L360.636 779.44C360.403 779.113 360.123 778.847 359.796 778.642C359.469 778.427 359.082 778.287 358.634 778.222V781.498L358.76 781.526C359.731 781.741 360.435 782.058 360.874 782.478C361.322 782.889 361.546 783.463 361.546 784.2C361.546 785.003 361.285 785.651 360.762 786.146C360.249 786.631 359.544 786.916 358.648 787V788.148H357.78ZM360.44 784.27C360.44 783.794 360.3 783.43 360.02 783.178C359.749 782.926 359.287 782.721 358.634 782.562V786.006C359.194 785.931 359.633 785.745 359.95 785.446C360.277 785.138 360.44 784.746 360.44 784.27ZM356.128 779.664C356.128 780.14 356.263 780.499 356.534 780.742C356.814 780.975 357.234 781.167 357.794 781.316V778.222C357.29 778.287 356.884 778.441 356.576 778.684C356.277 778.927 356.128 779.253 356.128 779.664ZM369.876 787.168C369.316 787.168 368.826 787.098 368.406 786.958C367.986 786.809 367.631 786.608 367.342 786.356C367.062 786.104 366.847 785.805 366.698 785.46C366.558 785.115 366.488 784.741 366.488 784.34C366.488 783.668 366.67 783.136 367.034 782.744C367.398 782.352 367.874 782.077 368.462 781.918V781.806C367.948 781.629 367.538 781.344 367.23 780.952C366.931 780.551 366.782 780.07 366.782 779.51C366.782 778.763 367.052 778.171 367.594 777.732C368.135 777.284 368.896 777.06 369.876 777.06C370.856 777.06 371.616 777.284 372.158 777.732C372.699 778.171 372.97 778.763 372.97 779.51C372.97 780.07 372.816 780.551 372.508 780.952C372.209 781.344 371.803 781.629 371.29 781.806V781.918C371.878 782.077 372.354 782.352 372.718 782.744C373.082 783.136 373.264 783.668 373.264 784.34C373.264 784.741 373.189 785.115 373.04 785.46C372.9 785.805 372.685 786.104 372.396 786.356C372.116 786.608 371.766 786.809 371.346 786.958C370.926 787.098 370.436 787.168 369.876 787.168ZM369.876 786.146C370.557 786.146 371.084 785.997 371.458 785.698C371.831 785.39 372.018 784.956 372.018 784.396V784.102C372.018 783.542 371.831 783.113 371.458 782.814C371.084 782.506 370.557 782.352 369.876 782.352C369.194 782.352 368.667 782.506 368.294 782.814C367.92 783.113 367.734 783.542 367.734 784.102V784.396C367.734 784.956 367.92 785.39 368.294 785.698C368.667 785.997 369.194 786.146 369.876 786.146ZM369.876 781.372C370.492 781.372 370.958 781.241 371.276 780.98C371.593 780.719 371.752 780.336 371.752 779.832V779.622C371.752 779.118 371.593 778.735 371.276 778.474C370.958 778.213 370.492 778.082 369.876 778.082C369.26 778.082 368.793 778.213 368.476 778.474C368.158 778.735 368 779.118 368 779.622V779.832C368 780.336 368.158 780.719 368.476 780.98C368.793 781.241 369.26 781.372 369.876 781.372ZM381.042 778.264H376.758L376.478 781.988H376.576C376.81 781.661 377.071 781.4 377.36 781.204C377.659 781.008 378.065 780.91 378.578 780.91C378.998 780.91 379.386 780.98 379.74 781.12C380.095 781.26 380.403 781.461 380.664 781.722C380.926 781.974 381.126 782.287 381.266 782.66C381.416 783.033 381.49 783.458 381.49 783.934C381.49 784.41 381.416 784.849 381.266 785.25C381.117 785.642 380.898 785.983 380.608 786.272C380.328 786.552 379.983 786.771 379.572 786.93C379.171 787.089 378.714 787.168 378.2 787.168C377.79 787.168 377.426 787.121 377.108 787.028C376.8 786.935 376.525 786.809 376.282 786.65C376.04 786.491 375.825 786.314 375.638 786.118C375.461 785.922 375.298 785.717 375.148 785.502L376.03 784.83C376.152 785.026 376.278 785.203 376.408 785.362C376.548 785.521 376.698 785.656 376.856 785.768C377.024 785.88 377.216 785.969 377.43 786.034C377.645 786.09 377.902 786.118 378.2 786.118C378.872 786.118 379.381 785.941 379.726 785.586C380.072 785.231 380.244 784.732 380.244 784.088V783.948C380.244 783.304 380.072 782.805 379.726 782.45C379.381 782.095 378.872 781.918 378.2 781.918C377.752 781.918 377.398 782.002 377.136 782.17C376.884 782.329 376.656 782.52 376.45 782.744L375.456 782.604L375.806 777.228H381.042V778.264ZM387.715 787V785.082H382.997V784.046L387.085 777.228H388.835V784.102H390.249V785.082H388.835V787H387.715ZM384.103 784.102H387.715V778.138H387.645L384.103 784.102ZM392.763 787.168C392.465 787.168 392.245 787.093 392.105 786.944C391.975 786.795 391.909 786.599 391.909 786.356V786.174C391.909 785.931 391.975 785.735 392.105 785.586C392.245 785.437 392.465 785.362 392.763 785.362C393.062 785.362 393.277 785.437 393.407 785.586C393.547 785.735 393.617 785.931 393.617 786.174V786.356C393.617 786.599 393.547 786.795 393.407 786.944C393.277 787.093 393.062 787.168 392.763 787.168ZM398.888 787.168C398.384 787.168 397.926 787.084 397.516 786.916C397.114 786.739 396.769 786.491 396.48 786.174C396.2 785.847 395.985 785.451 395.836 784.984C395.686 784.517 395.612 783.995 395.612 783.416C395.612 782.688 395.719 782.007 395.934 781.372C396.148 780.728 396.424 780.145 396.76 779.622C397.105 779.09 397.483 778.623 397.894 778.222C398.304 777.811 398.706 777.48 399.098 777.228H400.61C400.087 777.611 399.62 777.984 399.21 778.348C398.799 778.712 398.44 779.095 398.132 779.496C397.824 779.888 397.562 780.313 397.348 780.77C397.133 781.218 396.96 781.727 396.83 782.296L396.9 782.324C397.133 781.923 397.432 781.591 397.796 781.33C398.169 781.059 398.654 780.924 399.252 780.924C399.672 780.924 400.059 780.994 400.414 781.134C400.768 781.274 401.072 781.475 401.324 781.736C401.576 781.997 401.772 782.315 401.912 782.688C402.061 783.061 402.136 783.477 402.136 783.934C402.136 784.41 402.056 784.849 401.898 785.25C401.748 785.642 401.529 785.983 401.24 786.272C400.96 786.552 400.619 786.771 400.218 786.93C399.816 787.089 399.373 787.168 398.888 787.168ZM398.874 786.146C399.518 786.146 400.017 785.969 400.372 785.614C400.736 785.259 400.918 784.751 400.918 784.088V783.976C400.918 783.313 400.736 782.805 400.372 782.45C400.017 782.095 399.518 781.918 398.874 781.918C398.23 781.918 397.726 782.095 397.362 782.45C397.007 782.805 396.83 783.313 396.83 783.976V784.088C396.83 784.751 397.007 785.259 397.362 785.614C397.726 785.969 398.23 786.146 398.874 786.146ZM410.53 780.812C410.53 781.54 410.423 782.226 410.208 782.87C409.994 783.505 409.714 784.088 409.368 784.62C409.032 785.143 408.659 785.609 408.248 786.02C407.838 786.421 407.436 786.748 407.044 787H405.532C406.055 786.617 406.522 786.244 406.932 785.88C407.343 785.516 407.702 785.138 408.01 784.746C408.318 784.345 408.58 783.92 408.794 783.472C409.009 783.015 409.182 782.501 409.312 781.932L409.242 781.904C409.009 782.305 408.706 782.641 408.332 782.912C407.968 783.173 407.488 783.304 406.89 783.304C406.47 783.304 406.083 783.234 405.728 783.094C405.374 782.954 405.07 782.753 404.818 782.492C404.566 782.231 404.366 781.918 404.216 781.554C404.076 781.181 404.006 780.761 404.006 780.294C404.006 779.818 404.081 779.384 404.23 778.992C404.389 778.591 404.608 778.25 404.888 777.97C405.178 777.681 405.518 777.457 405.91 777.298C406.312 777.139 406.76 777.06 407.254 777.06C407.758 777.06 408.211 777.149 408.612 777.326C409.023 777.494 409.368 777.741 409.648 778.068C409.938 778.385 410.157 778.777 410.306 779.244C410.456 779.711 410.53 780.233 410.53 780.812ZM407.268 782.31C407.912 782.31 408.412 782.133 408.766 781.778C409.13 781.423 409.312 780.915 409.312 780.252V780.14C409.312 779.477 409.13 778.969 408.766 778.614C408.412 778.259 407.912 778.082 407.268 778.082C406.624 778.082 406.12 778.259 405.756 778.614C405.402 778.969 405.224 779.477 405.224 780.14V780.252C405.224 780.915 405.402 781.423 405.756 781.778C406.12 782.133 406.624 782.31 407.268 782.31Z" fill="#6E6E6E"/>
<rect x="338.5" y="518.5" width="143" height="297" rx="23.5" stroke="url(#paint4_linear_4_465)"/>
<rect x="338.5" y="518.5" width="143" height="297" rx="23.5" stroke="url(#paint5_linear_4_465)"/>
<rect x="0.5" y="520.5" width="313" height="143" rx="23.5" fill="url(#paint6_linear_4_465)"/>
<rect x="0.5" y="520.5" width="313" height="143" rx="23.5" fill="url(#paint7_linear_4_465)"/>
<path fill-rule="evenodd" clip-rule="evenodd" d="M33.0459 574.215L34.2554 566.546L34.3335 566.121C34.3917 565.751 34.581 565.413 34.8661 565.17C35.1512 564.926 35.5147 564.792 35.8896 564.792H36.85C38.4509 564.792 39.9217 564.621 41.2218 564.284C42.6088 563.924 43.8426 563.364 44.8884 562.62C45.9972 561.832 46.9285 560.812 47.6568 559.591C48.4251 558.303 48.9892 556.751 49.3338 554.981C49.6383 553.418 49.6953 552.018 49.504 550.821C49.3014 549.556 48.8141 548.476 48.0559 547.612C47.5961 547.088 47.0077 546.635 46.3074 546.263L46.2908 546.254L46.2904 546.234C46.535 544.674 46.5257 543.372 46.2625 542.251C45.998 541.128 45.4626 540.118 44.6243 539.163C42.8875 537.184 39.7284 536.18 35.2353 536.18H22.8954C22.483 536.18 22.0826 536.328 21.7688 536.596C21.455 536.864 21.2472 537.236 21.1825 537.644L16.0443 570.226C15.9974 570.524 16.0828 570.826 16.2785 571.054C16.4742 571.283 16.7589 571.414 17.0598 571.414H24.7152L24.7083 571.451L24.1826 574.785C24.1422 575.044 24.2166 575.307 24.3868 575.506C24.5571 575.705 24.805 575.82 25.067 575.82H31.4878C31.8481 575.82 32.1971 575.691 32.4709 575.457C32.7447 575.223 32.9266 574.898 32.9828 574.542L33.0459 574.215Z" fill="#27346A"/>
<path fill-rule="evenodd" clip-rule="evenodd" d="M28.6466 546.277C28.7279 545.76 29.0591 545.338 29.5051 545.124C29.7081 545.027 29.9346 544.973 30.1719 544.973H39.8444C40.9905 544.973 42.0589 545.048 43.0359 545.205C43.3149 545.25 43.5862 545.302 43.8503 545.36C44.1144 545.419 44.3703 545.484 44.6182 545.557C44.7424 545.593 44.8641 545.631 44.9842 545.671C45.4638 545.83 45.9102 546.018 46.3211 546.236C46.8055 543.147 46.3178 541.046 44.6473 539.142C42.8082 537.047 39.4858 536.149 35.2349 536.149H22.895C22.0264 536.149 21.2868 536.781 21.1513 537.639L16.0132 570.222C15.9117 570.865 16.4087 571.446 17.0593 571.446H24.6772L28.6466 546.277Z" fill="#DBDBDB"/>
<path fill-rule="evenodd" clip-rule="evenodd" d="M46.3217 546.236C46.2849 546.471 46.2441 546.711 46.1956 546.958C44.5687 555.313 39.0012 558.202 31.8904 558.202H28.2696C27.4009 558.202 26.6674 558.834 26.5319 559.692L24.1521 574.78C24.0636 575.342 24.4983 575.851 25.0672 575.851H31.4885C32.2483 575.851 32.8953 575.298 33.0138 574.547L33.0769 574.221L34.2864 566.551L34.3645 566.127C34.483 565.376 35.13 564.823 35.8898 564.823H36.8502C43.0709 564.823 47.9417 562.296 49.3651 554.987C49.9596 551.933 49.6523 549.384 48.0796 547.592C47.604 547.05 47.012 546.601 46.3217 546.236Z" fill="#BDBDBD"/>
<path fill-rule="evenodd" clip-rule="evenodd" d="M44.6187 545.556C44.3708 545.483 44.1148 545.418 43.8508 545.36C43.5867 545.301 43.3154 545.249 43.0363 545.204C42.0593 545.047 40.9909 544.972 39.8449 544.972H30.1724C29.935 544.972 29.7086 545.026 29.5056 545.123C29.0596 545.337 28.7284 545.76 28.6471 546.276L26.5912 559.311L26.5317 559.692C26.6672 558.833 27.4008 558.201 28.2694 558.201H31.8903C39.001 558.201 44.5686 555.312 46.1954 546.957C46.2439 546.71 46.2848 546.471 46.3216 546.235C45.9107 546.017 45.4643 545.83 44.9847 545.67C44.8646 545.63 44.7428 545.592 44.6187 545.556Z" fill="white"/>
<path d="M17.302 623V613.228H21.194C22.0713 613.228 22.7433 613.48 23.21 613.984C23.686 614.479 23.924 615.16 23.924 616.028C23.924 616.896 23.686 617.582 23.21 618.086C22.7433 618.581 22.0713 618.828 21.194 618.828H18.478V623H17.302ZM18.478 617.792H21.194C21.6607 617.792 22.02 617.671 22.272 617.428C22.5333 617.185 22.664 616.84 22.664 616.392V615.664C22.664 615.216 22.5333 614.871 22.272 614.628C22.02 614.385 21.6607 614.264 21.194 614.264H18.478V617.792ZM28.0322 623V619.136L24.6722 613.228H26.0162L28.6202 617.932H28.6622L31.2662 613.228H32.6102L29.2082 619.094V623H28.0322ZM34.0911 623V613.228H37.9831C38.8604 613.228 39.5324 613.48 39.9991 613.984C40.4751 614.479 40.7131 615.16 40.7131 616.028C40.7131 616.896 40.4751 617.582 39.9991 618.086C39.5324 618.581 38.8604 618.828 37.9831 618.828H35.2671V623H34.0911ZM35.2671 617.792H37.9831C38.4497 617.792 38.8091 617.671 39.0611 617.428C39.3224 617.185 39.4531 616.84 39.4531 616.392V615.664C39.4531 615.216 39.3224 614.871 39.0611 614.628C38.8091 614.385 38.4497 614.264 37.9831 614.264H35.2671V617.792ZM42.5813 623V613.228H43.7573V621.964H47.9153V623H42.5813Z" fill="white"/>
<path d="M19.78 644.148V643C19.0707 642.953 18.4687 642.781 17.974 642.482C17.4887 642.174 17.0733 641.791 16.728 641.334L17.554 640.592C17.8527 640.993 18.1793 641.315 18.534 641.558C18.898 641.791 19.318 641.941 19.794 642.006V638.408C18.8327 638.193 18.128 637.881 17.68 637.47C17.2413 637.05 17.022 636.476 17.022 635.748C17.022 635.375 17.0873 635.043 17.218 634.754C17.358 634.455 17.5493 634.199 17.792 633.984C18.0347 633.769 18.324 633.601 18.66 633.48C18.996 633.349 19.3693 633.265 19.78 633.228V632.08H20.648V633.214C21.2827 633.27 21.8287 633.433 22.286 633.704C22.7527 633.965 23.154 634.329 23.49 634.796L22.636 635.44C22.4027 635.113 22.1227 634.847 21.796 634.642C21.4693 634.427 21.082 634.287 20.634 634.222V637.498L20.76 637.526C21.7307 637.741 22.4353 638.058 22.874 638.478C23.322 638.889 23.546 639.463 23.546 640.2C23.546 641.003 23.2847 641.651 22.762 642.146C22.2487 642.631 21.544 642.916 20.648 643V644.148H19.78ZM22.44 640.27C22.44 639.794 22.3 639.43 22.02 639.178C21.7493 638.926 21.2873 638.721 20.634 638.562V642.006C21.194 641.931 21.6327 641.745 21.95 641.446C22.2767 641.138 22.44 640.746 22.44 640.27ZM18.128 635.664C18.128 636.14 18.2633 636.499 18.534 636.742C18.814 636.975 19.234 637.167 19.794 637.316V634.222C19.29 634.287 18.884 634.441 18.576 634.684C18.2773 634.927 18.128 635.253 18.128 635.664ZM35.1378 643H28.7258V641.796L31.9178 638.856C32.3751 638.436 32.7578 637.993 33.0658 637.526C33.3738 637.05 33.5278 636.574 33.5278 636.098V635.93C33.5278 635.389 33.3784 634.95 33.0798 634.614C32.7811 634.278 32.3284 634.11 31.7218 634.11C31.4231 634.11 31.1618 634.152 30.9378 634.236C30.7138 634.32 30.5178 634.437 30.3498 634.586C30.1911 634.735 30.0558 634.913 29.9438 635.118C29.8411 635.314 29.7571 635.529 29.6918 635.762L28.6418 635.356C28.7351 635.067 28.8611 634.787 29.0198 634.516C29.1878 634.236 29.3931 633.989 29.6358 633.774C29.8878 633.559 30.1864 633.387 30.5318 633.256C30.8864 633.125 31.3018 633.06 31.7778 633.06C32.2538 633.06 32.6784 633.13 33.0518 633.27C33.4251 633.41 33.7378 633.606 33.9898 633.858C34.2418 634.11 34.4331 634.409 34.5638 634.754C34.7038 635.099 34.7738 635.482 34.7738 635.902C34.7738 636.285 34.7178 636.639 34.6058 636.966C34.5031 637.293 34.3584 637.605 34.1718 637.904C33.9851 638.193 33.7564 638.478 33.4858 638.758C33.2244 639.038 32.9398 639.318 32.6318 639.598L29.9998 641.964H35.1378V643ZM43.0423 634.264H38.7583L38.4783 637.988H38.5763C38.8096 637.661 39.071 637.4 39.3603 637.204C39.659 637.008 40.065 636.91 40.5783 636.91C40.9983 636.91 41.3856 636.98 41.7403 637.12C42.095 637.26 42.403 637.461 42.6643 637.722C42.9256 637.974 43.1263 638.287 43.2663 638.66C43.4156 639.033 43.4903 639.458 43.4903 639.934C43.4903 640.41 43.4156 640.849 43.2663 641.25C43.117 641.642 42.8976 641.983 42.6083 642.272C42.3283 642.552 41.983 642.771 41.5723 642.93C41.171 643.089 40.7136 643.168 40.2003 643.168C39.7896 643.168 39.4256 643.121 39.1083 643.028C38.8003 642.935 38.525 642.809 38.2823 642.65C38.0396 642.491 37.825 642.314 37.6383 642.118C37.461 641.922 37.2976 641.717 37.1483 641.502L38.0303 640.83C38.1516 641.026 38.2776 641.203 38.4083 641.362C38.5483 641.521 38.6976 641.656 38.8563 641.768C39.0243 641.88 39.2156 641.969 39.4303 642.034C39.645 642.09 39.9016 642.118 40.2003 642.118C40.8723 642.118 41.381 641.941 41.7263 641.586C42.0716 641.231 42.2443 640.732 42.2443 640.088V639.948C42.2443 639.304 42.0716 638.805 41.7263 638.45C41.381 638.095 40.8723 637.918 40.2003 637.918C39.7523 637.918 39.3976 638.002 39.1363 638.17C38.8843 638.329 38.6556 638.52 38.4503 638.744L37.4563 638.604L37.8063 633.228H43.0423V634.264ZM45.6968 643V641.964H48.4268V634.096H48.3288L45.8648 636.392L45.1788 635.65L47.7688 633.228H49.6028V641.964H52.1228V643H45.6968ZM54.7634 643.168C54.4647 643.168 54.2454 643.093 54.1054 642.944C53.9747 642.795 53.9094 642.599 53.9094 642.356V642.174C53.9094 641.931 53.9747 641.735 54.1054 641.586C54.2454 641.437 54.4647 641.362 54.7634 641.362C55.062 641.362 55.2767 641.437 55.4074 641.586C55.5474 641.735 55.6174 641.931 55.6174 642.174V642.356C55.6174 642.599 55.5474 642.795 55.4074 642.944C55.2767 643.093 55.062 643.168 54.7634 643.168ZM64.1358 636.812C64.1358 637.54 64.0285 638.226 63.8138 638.87C63.5992 639.505 63.3192 640.088 62.9738 640.62C62.6378 641.143 62.2645 641.609 61.8538 642.02C61.4432 642.421 61.0418 642.748 60.6498 643H59.1378C59.6605 642.617 60.1272 642.244 60.5378 641.88C60.9485 641.516 61.3078 641.138 61.6158 640.746C61.9238 640.345 62.1852 639.92 62.3998 639.472C62.6145 639.015 62.7872 638.501 62.9178 637.932L62.8478 637.904C62.6145 638.305 62.3112 638.641 61.9378 638.912C61.5738 639.173 61.0932 639.304 60.4958 639.304C60.0758 639.304 59.6885 639.234 59.3338 639.094C58.9792 638.954 58.6758 638.753 58.4238 638.492C58.1718 638.231 57.9712 637.918 57.8218 637.554C57.6818 637.181 57.6118 636.761 57.6118 636.294C57.6118 635.818 57.6865 635.384 57.8358 634.992C57.9945 634.591 58.2138 634.25 58.4938 633.97C58.7832 633.681 59.1238 633.457 59.5158 633.298C59.9172 633.139 60.3652 633.06 60.8598 633.06C61.3638 633.06 61.8165 633.149 62.2178 633.326C62.6285 633.494 62.9738 633.741 63.2538 634.068C63.5432 634.385 63.7625 634.777 63.9118 635.244C64.0612 635.711 64.1358 636.233 64.1358 636.812ZM60.8738 638.31C61.5178 638.31 62.0172 638.133 62.3718 637.778C62.7358 637.423 62.9178 636.915 62.9178 636.252V636.14C62.9178 635.477 62.7358 634.969 62.3718 634.614C62.0172 634.259 61.5178 634.082 60.8738 634.082C60.2298 634.082 59.7258 634.259 59.3618 634.614C59.0072 634.969 58.8298 635.477 58.8298 636.14V636.252C58.8298 636.915 59.0072 637.423 59.3618 637.778C59.7258 638.133 60.2298 638.31 60.8738 638.31ZM69.2684 643.168C68.1017 643.168 67.2477 642.725 66.7064 641.838C66.1744 640.951 65.9084 639.71 65.9084 638.114C65.9084 636.518 66.1744 635.277 66.7064 634.39C67.2477 633.503 68.1017 633.06 69.2684 633.06C70.435 633.06 71.2844 633.503 71.8164 634.39C72.3577 635.277 72.6284 636.518 72.6284 638.114C72.6284 639.71 72.3577 640.951 71.8164 641.838C71.2844 642.725 70.435 643.168 69.2684 643.168ZM69.2684 642.146C69.651 642.146 69.9777 642.067 70.2484 641.908C70.519 641.749 70.7384 641.525 70.9064 641.236C71.0744 640.947 71.1957 640.606 71.2704 640.214C71.3544 639.822 71.3964 639.388 71.3964 638.912V637.316C71.3964 636.84 71.3544 636.406 71.2704 636.014C71.1957 635.622 71.0744 635.281 70.9064 634.992C70.7384 634.703 70.519 634.479 70.2484 634.32C69.9777 634.161 69.651 634.082 69.2684 634.082C68.8857 634.082 68.559 634.161 68.2884 634.32C68.0177 634.479 67.7984 634.703 67.6304 634.992C67.4624 635.281 67.3364 635.622 67.2524 636.014C67.1777 636.406 67.1404 636.84 67.1404 637.316V638.912C67.1404 639.388 67.1777 639.822 67.2524 640.214C67.3364 640.606 67.4624 640.947 67.6304 641.236C67.7984 641.525 68.0177 641.749 68.2884 641.908C68.559 642.067 68.8857 642.146 69.2684 642.146Z" fill="white"/>
<rect x="0.5" y="520.5" width="313" height="143" rx="23.5" stroke="url(#paint8_linear_4_465)"/>
<rect x="0.5" y="520.5" width="313" height="143" rx="23.5" stroke="url(#paint9_linear_4_465)"/>
<rect x="338.5" y="350.5" width="143" height="143" rx="23.5" fill="url(#paint10_linear_4_465)"/>
<rect x="338.5" y="350.5" width="143" height="143" rx="23.5" fill="url(#paint11_linear_4_465)"/>
<path d="M389.905 374.091C389.929 374.444 389.929 374.797 389.929 375.153C389.929 385.996 381.674 398.503 366.579 398.503V398.496C362.12 398.503 357.754 397.225 354 394.817C354.648 394.895 355.3 394.934 355.953 394.936C359.649 394.939 363.238 393.699 366.145 391.416C362.634 391.349 359.554 389.06 358.479 385.717C359.709 385.954 360.976 385.905 362.184 385.575C358.355 384.802 355.601 381.438 355.601 377.532C355.601 377.496 355.601 377.462 355.601 377.428C356.741 378.063 358.019 378.416 359.325 378.455C355.719 376.045 354.608 371.248 356.785 367.497C360.952 372.624 367.099 375.741 373.699 376.071C373.037 373.22 373.941 370.234 376.073 368.23C379.378 365.123 384.576 365.282 387.684 368.586C389.521 368.223 391.283 367.549 392.895 366.594C392.282 368.493 391 370.107 389.287 371.132C390.914 370.941 392.503 370.505 394 369.84C392.898 371.491 391.51 372.93 389.905 374.091Z" fill="white"/>
<path d="M358.592 440.264V449H357.416V440.264H354.308V439.228H361.7V440.264H358.592ZM364.877 449L362.497 439.228H363.743L364.793 443.932L365.605 447.586H365.633L366.543 443.932L367.775 439.228H369.119L370.309 443.932L371.219 447.572H371.261L372.101 443.932L373.207 439.228H374.411L371.905 449H370.603L369.329 444.128L368.433 440.544H368.405L367.481 444.128L366.179 449H364.877ZM379.483 440.264V449H378.307V440.264H375.199V439.228H382.591V440.264H379.483ZM385.38 449H384.204V439.228H388.096C388.955 439.228 389.622 439.466 390.098 439.942C390.584 440.418 390.826 441.104 390.826 442C390.826 442.719 390.658 443.311 390.322 443.778C389.996 444.235 389.51 444.539 388.866 444.688L391.106 449H389.776L387.662 444.8H385.38V449ZM388.096 443.792C388.563 443.792 388.922 443.671 389.174 443.428C389.436 443.185 389.566 442.84 389.566 442.392V441.664C389.566 441.216 389.436 440.871 389.174 440.628C388.922 440.385 388.563 440.264 388.096 440.264H385.38V443.792H388.096Z" fill="white"/>
<path d="M357.78 474.148V473C357.071 472.953 356.469 472.781 355.974 472.482C355.489 472.174 355.073 471.791 354.728 471.334L355.554 470.592C355.853 470.993 356.179 471.315 356.534 471.558C356.898 471.791 357.318 471.941 357.794 472.006V468.408C356.833 468.193 356.128 467.881 355.68 467.47C355.241 467.05 355.022 466.476 355.022 465.748C355.022 465.375 355.087 465.043 355.218 464.754C355.358 464.455 355.549 464.199 355.792 463.984C356.035 463.769 356.324 463.601 356.66 463.48C356.996 463.349 357.369 463.265 357.78 463.228V462.08H358.648V463.214C359.283 463.27 359.829 463.433 360.286 463.704C360.753 463.965 361.154 464.329 361.49 464.796L360.636 465.44C360.403 465.113 360.123 464.847 359.796 464.642C359.469 464.427 359.082 464.287 358.634 464.222V467.498L358.76 467.526C359.731 467.741 360.435 468.058 360.874 468.478C361.322 468.889 361.546 469.463 361.546 470.2C361.546 471.003 361.285 471.651 360.762 472.146C360.249 472.631 359.544 472.916 358.648 473V474.148H357.78ZM360.44 470.27C360.44 469.794 360.3 469.43 360.02 469.178C359.749 468.926 359.287 468.721 358.634 468.562V472.006C359.194 471.931 359.633 471.745 359.95 471.446C360.277 471.138 360.44 470.746 360.44 470.27ZM356.128 465.664C356.128 466.14 356.263 466.499 356.534 466.742C356.814 466.975 357.234 467.167 357.794 467.316V464.222C357.29 464.287 356.884 464.441 356.576 464.684C356.277 464.927 356.128 465.253 356.128 465.664ZM368.126 473L371.864 464.236H367.692V466.056H366.642V463.228H373.054V464.264L369.386 473H368.126ZM375.974 473.168C375.676 473.168 375.456 473.093 375.316 472.944C375.186 472.795 375.12 472.599 375.12 472.356V472.174C375.12 471.931 375.186 471.735 375.316 471.586C375.456 471.437 375.676 471.362 375.974 471.362C376.273 471.362 376.488 471.437 376.618 471.586C376.758 471.735 376.828 471.931 376.828 472.174V472.356C376.828 472.599 376.758 472.795 376.618 472.944C376.488 473.093 376.273 473.168 375.974 473.168ZM383.135 473V471.082H378.417V470.046L382.505 463.228H384.255V470.102H385.669V471.082H384.255V473H383.135ZM379.523 470.102H383.135V464.138H383.065L379.523 470.102ZM390.479 473.168C389.313 473.168 388.459 472.725 387.917 471.838C387.385 470.951 387.119 469.71 387.119 468.114C387.119 466.518 387.385 465.277 387.917 464.39C388.459 463.503 389.313 463.06 390.479 463.06C391.646 463.06 392.495 463.503 393.027 464.39C393.569 465.277 393.839 466.518 393.839 468.114C393.839 469.71 393.569 470.951 393.027 471.838C392.495 472.725 391.646 473.168 390.479 473.168ZM390.479 472.146C390.862 472.146 391.189 472.067 391.459 471.908C391.73 471.749 391.949 471.525 392.117 471.236C392.285 470.947 392.407 470.606 392.481 470.214C392.565 469.822 392.607 469.388 392.607 468.912V467.316C392.607 466.84 392.565 466.406 392.481 466.014C392.407 465.622 392.285 465.281 392.117 464.992C391.949 464.703 391.73 464.479 391.459 464.32C391.189 464.161 390.862 464.082 390.479 464.082C390.097 464.082 389.77 464.161 389.499 464.32C389.229 464.479 389.009 464.703 388.841 464.992C388.673 465.281 388.547 465.622 388.463 466.014C388.389 466.406 388.351 466.84 388.351 467.316V468.912C388.351 469.388 388.389 469.822 388.463 470.214C388.547 470.606 388.673 470.947 388.841 471.236C389.009 471.525 389.229 471.749 389.499 471.908C389.77 472.067 390.097 472.146 390.479 472.146Z" fill="white"/>
<rect x="338.5" y="350.5" width="143" height="143" rx="23.5" stroke="url(#paint12_linear_4_465)"/>
<rect x="338.5" y="350.5" width="143" height="143" rx="23.5" stroke="url(#paint13_linear_4_465)"/>
<rect x="168.5" y="350.5" width="143" height="143" rx="23.5" fill="url(#paint14_linear_4_465)"/>
<rect x="168.5" y="350.5" width="143" height="143" rx="23.5" fill="url(#paint15_linear_4_465)"/>
<path d="M187.146 381.691L187.933 381.73H199.73L199.691 380.944C199.593 379.646 198.669 378.702 197.371 378.624L196.584 378.584H189.506L198.944 369.146L198.904 368.36C198.846 367.062 197.882 366.098 196.584 366.039L195.798 366H184L184.039 366.787C184.138 368.065 185.081 369.028 186.36 369.107L187.146 369.146H194.225L184.787 378.584L184.826 379.371C184.904 380.669 185.848 381.612 187.146 381.691Z" fill="white"/>
<path fill-rule="evenodd" clip-rule="evenodd" d="M206.809 366C208.834 366 210.84 366.767 212.374 368.301C215.441 371.368 215.441 376.362 212.374 379.43C209.287 382.497 204.312 382.497 201.244 379.43C198.177 376.343 198.177 371.368 201.244 368.301C202.778 366.767 204.803 366 206.809 366ZM203.486 377.208C205.315 379.056 208.303 379.056 210.152 377.208C211.98 375.36 211.98 372.371 210.152 370.542C208.323 368.694 205.334 368.694 203.486 370.542C201.638 372.371 201.638 375.36 203.486 377.208Z" fill="white"/>
<path fill-rule="evenodd" clip-rule="evenodd" d="M223.326 366C225.351 366 227.357 366.767 228.89 368.301C231.958 371.368 231.958 376.362 228.89 379.43C225.803 382.497 220.829 382.497 217.761 379.43C214.694 376.343 214.694 371.368 217.761 368.301C219.295 366.767 221.32 366 223.326 366ZM220.003 377.208C221.831 379.056 224.82 379.056 226.669 377.208C228.497 375.36 228.497 372.371 226.669 370.542C224.84 368.694 221.851 368.694 220.003 370.542C218.154 372.371 218.154 375.36 220.003 377.208Z" fill="white"/>
<path d="M241.376 372.292C241.337 371.702 241.258 371.191 240.983 370.719C240.452 369.775 239.43 369.146 238.27 369.146C237.11 369.146 236.107 369.775 235.556 370.719C235.281 371.171 235.202 371.702 235.163 372.292L235.124 373.079V378.584L235.084 379.371C235.025 380.669 234.081 381.612 232.764 381.691L231.978 381.73V366C232.764 366 234.14 366.393 234.75 367.081C235.753 366.393 236.972 366 238.27 366C240.157 366 241.829 366.826 242.989 368.124C244.149 366.826 245.82 366 247.708 366C251.188 366 254 368.812 254 372.292V381.73L253.213 381.691C251.916 381.612 250.972 380.669 250.893 379.371L250.854 378.584V373.079L250.815 372.292C250.795 371.722 250.716 371.191 250.441 370.719C249.89 369.775 248.868 369.146 247.708 369.146C246.548 369.146 245.545 369.756 244.994 370.699C244.719 371.171 244.64 371.702 244.601 372.292L244.562 373.079V381.73L243.775 381.691C242.478 381.612 241.534 380.649 241.455 379.371L241.416 378.584V373.079L241.376 372.292Z" fill="white"/>
<path d="M191.616 449H184.504V447.936L190.146 440.264H184.798V439.228H191.42V440.292L185.764 447.964H191.616V449ZM196.713 440.264V449H195.537V440.264H192.429V439.228H199.821V440.264H196.713ZM203.801 443.036L202.625 440.866H202.583V449H201.435V439.228H202.793L206.363 445.192L207.539 447.362H207.581V439.228H208.729V449H207.371L203.801 443.036ZM214.987 449.168C214.353 449.168 213.779 449.061 213.265 448.846C212.761 448.622 212.327 448.3 211.963 447.88C211.609 447.451 211.333 446.923 211.137 446.298C210.941 445.663 210.843 444.935 210.843 444.114C210.843 443.293 210.941 442.569 211.137 441.944C211.333 441.319 211.609 440.791 211.963 440.362C212.327 439.933 212.761 439.611 213.265 439.396C213.779 439.172 214.353 439.06 214.987 439.06C215.613 439.06 216.182 439.172 216.695 439.396C217.209 439.611 217.643 439.933 217.997 440.362C218.361 440.791 218.641 441.319 218.837 441.944C219.033 442.569 219.131 443.293 219.131 444.114C219.131 444.935 219.033 445.663 218.837 446.298C218.641 446.923 218.361 447.451 217.997 447.88C217.643 448.3 217.209 448.622 216.695 448.846C216.182 449.061 215.613 449.168 214.987 449.168ZM214.987 448.118C215.407 448.118 215.795 448.043 216.149 447.894C216.504 447.745 216.807 447.53 217.059 447.25C217.321 446.97 217.521 446.634 217.661 446.242C217.801 445.85 217.871 445.411 217.871 444.926V443.302C217.871 442.817 217.801 442.378 217.661 441.986C217.521 441.594 217.321 441.258 217.059 440.978C216.807 440.698 216.504 440.483 216.149 440.334C215.795 440.185 215.407 440.11 214.987 440.11C214.567 440.11 214.18 440.185 213.825 440.334C213.471 440.483 213.163 440.698 212.901 440.978C212.649 441.258 212.453 441.594 212.313 441.986C212.173 442.378 212.103 442.817 212.103 443.302V444.926C212.103 445.411 212.173 445.85 212.313 446.242C212.453 446.634 212.649 446.97 212.901 447.25C213.163 447.53 213.471 447.745 213.825 447.894C214.18 448.043 214.567 448.118 214.987 448.118Z" fill="white"/>
<path d="M187.78 474.148V473C187.071 472.953 186.469 472.781 185.974 472.482C185.489 472.174 185.073 471.791 184.728 471.334L185.554 470.592C185.853 470.993 186.179 471.315 186.534 471.558C186.898 471.791 187.318 471.941 187.794 472.006V468.408C186.833 468.193 186.128 467.881 185.68 467.47C185.241 467.05 185.022 466.476 185.022 465.748C185.022 465.375 185.087 465.043 185.218 464.754C185.358 464.455 185.549 464.199 185.792 463.984C186.035 463.769 186.324 463.601 186.66 463.48C186.996 463.349 187.369 463.265 187.78 463.228V462.08H188.648V463.214C189.283 463.27 189.829 463.433 190.286 463.704C190.753 463.965 191.154 464.329 191.49 464.796L190.636 465.44C190.403 465.113 190.123 464.847 189.796 464.642C189.469 464.427 189.082 464.287 188.634 464.222V467.498L188.76 467.526C189.731 467.741 190.435 468.058 190.874 468.478C191.322 468.889 191.546 469.463 191.546 470.2C191.546 471.003 191.285 471.651 190.762 472.146C190.249 472.631 189.544 472.916 188.648 473V474.148H187.78ZM190.44 470.27C190.44 469.794 190.3 469.43 190.02 469.178C189.749 468.926 189.287 468.721 188.634 468.562V472.006C189.194 471.931 189.633 471.745 189.95 471.446C190.277 471.138 190.44 470.746 190.44 470.27ZM186.128 465.664C186.128 466.14 186.263 466.499 186.534 466.742C186.814 466.975 187.234 467.167 187.794 467.316V464.222C187.29 464.287 186.884 464.441 186.576 464.684C186.277 464.927 186.128 465.253 186.128 465.664ZM199.876 473.168C198.709 473.168 197.855 472.725 197.314 471.838C196.782 470.951 196.516 469.71 196.516 468.114C196.516 466.518 196.782 465.277 197.314 464.39C197.855 463.503 198.709 463.06 199.876 463.06C201.042 463.06 201.892 463.503 202.424 464.39C202.965 465.277 203.236 466.518 203.236 468.114C203.236 469.71 202.965 470.951 202.424 471.838C201.892 472.725 201.042 473.168 199.876 473.168ZM199.876 472.146C200.258 472.146 200.585 472.067 200.856 471.908C201.126 471.749 201.346 471.525 201.514 471.236C201.682 470.947 201.803 470.606 201.878 470.214C201.962 469.822 202.004 469.388 202.004 468.912V467.316C202.004 466.84 201.962 466.406 201.878 466.014C201.803 465.622 201.682 465.281 201.514 464.992C201.346 464.703 201.126 464.479 200.856 464.32C200.585 464.161 200.258 464.082 199.876 464.082C199.493 464.082 199.166 464.161 198.896 464.32C198.625 464.479 198.406 464.703 198.238 464.992C198.07 465.281 197.944 465.622 197.86 466.014C197.785 466.406 197.748 466.84 197.748 467.316V468.912C197.748 469.388 197.785 469.822 197.86 470.214C197.944 470.606 198.07 470.947 198.238 471.236C198.406 471.525 198.625 471.749 198.896 471.908C199.166 472.067 199.493 472.146 199.876 472.146ZM205.974 473.168C205.676 473.168 205.456 473.093 205.316 472.944C205.186 472.795 205.12 472.599 205.12 472.356V472.174C205.12 471.931 205.186 471.735 205.316 471.586C205.456 471.437 205.676 471.362 205.974 471.362C206.273 471.362 206.488 471.437 206.618 471.586C206.758 471.735 206.828 471.931 206.828 472.174V472.356C206.828 472.599 206.758 472.795 206.618 472.944C206.488 473.093 206.273 473.168 205.974 473.168ZM215.347 473H208.935V471.796L212.127 468.856C212.584 468.436 212.967 467.993 213.275 467.526C213.583 467.05 213.737 466.574 213.737 466.098V465.93C213.737 465.389 213.587 464.95 213.289 464.614C212.99 464.278 212.537 464.11 211.931 464.11C211.632 464.11 211.371 464.152 211.147 464.236C210.923 464.32 210.727 464.437 210.559 464.586C210.4 464.735 210.265 464.913 210.153 465.118C210.05 465.314 209.966 465.529 209.901 465.762L208.851 465.356C208.944 465.067 209.07 464.787 209.229 464.516C209.397 464.236 209.602 463.989 209.845 463.774C210.097 463.559 210.395 463.387 210.741 463.256C211.095 463.125 211.511 463.06 211.987 463.06C212.463 463.06 212.887 463.13 213.261 463.27C213.634 463.41 213.947 463.606 214.199 463.858C214.451 464.11 214.642 464.409 214.773 464.754C214.913 465.099 214.983 465.482 214.983 465.902C214.983 466.285 214.927 466.639 214.815 466.966C214.712 467.293 214.567 467.605 214.381 467.904C214.194 468.193 213.965 468.478 213.695 468.758C213.433 469.038 213.149 469.318 212.841 469.598L210.209 471.964H215.347V473ZM217.511 473V471.964H220.241V464.096H220.143L217.679 466.392L216.993 465.65L219.583 463.228H221.417V471.964H223.937V473H217.511Z" fill="white"/>
<rect x="168.5" y="350.5" width="143" height="143" rx="23.5" stroke="url(#paint16_linear_4_465)"/>
<rect x="168.5" y="350.5" width="143" height="143" rx="23.5" stroke="url(#paint17_linear_4_465)"/>
<rect x="0.5" y="168.5" width="143" height="327" rx="23.5" fill="url(#paint18_linear_4_465)"/>
<rect x="0.5" y="168.5" width="143" height="327" rx="23.5" fill="url(#paint19_linear_4_465)"/>
<g clip-path="url(#clip0_4_465)">
<g filter="url(#filter0_i_4_465)">
<path d="M40.4562 215.2C40.9923 215.107 48.8632 239.487 49.5909 239.36C49.5909 238.671 49.5909 193.64 49.5909 192.91C48.8733 192.91 41.6136 192.91 40.4562 192.91C40.4561 207.2 40.1603 214.334 40.4562 215.2Z" fill="#B11D23"/>
<path d="M40.4562 215.2C40.9923 215.107 48.8632 239.487 49.5909 239.36C49.5909 238.671 49.5909 193.64 49.5909 192.91C48.8733 192.91 41.6136 192.91 40.4562 192.91C40.4561 207.2 40.1603 214.334 40.4562 215.2Z" fill="#D0D0D0"/>
</g>
<g filter="url(#filter1_i_4_465)">
<path d="M33.1425 217.993C32.6065 218.085 24.7277 192.785 24 192.912C24 193.601 24.0079 238.688 24.0079 239.418C27.6365 238.982 29.4512 238.812 33.1425 238.644C33.1425 220.8 33.4384 218.859 33.1425 217.993Z" fill="#B11D23"/>
<path d="M33.1425 217.993C32.6065 218.085 24.7277 192.785 24 192.912C24 193.601 24.0079 238.688 24.0079 239.418C27.6365 238.982 29.4512 238.812 33.1425 238.644C33.1425 220.8 33.4384 218.859 33.1425 217.993Z" fill="#D0D0D0"/>
</g>
<path d="M33.1429 192.911H24.0083L40.1835 238.645C44.729 238.759 49.5916 239.418 49.5916 239.418L33.1429 192.911Z" fill="white"/>
</g>
<path d="M27.668 435.036L26.492 432.866H26.45V441H25.302V431.228H26.66L30.23 437.192L31.406 439.362H31.448V431.228H32.596V441H31.238L27.668 435.036ZM35.2004 441V431.228H41.0244V432.264H36.3764V435.54H40.6184V436.576H36.3764V441H35.2004ZM43.0208 441V431.228H44.1968V439.964H48.3548V441H43.0208ZM56.9784 441H55.5644L53.0024 436.898H52.9744L50.4124 441H49.0684L52.2604 436.03L49.1524 431.228H50.5664L53.0164 435.12H53.0444L55.5504 431.228H56.8944L53.7584 435.988L56.9784 441Z" fill="white"/>
<path d="M27.78 466.148V465C27.0707 464.953 26.4687 464.781 25.974 464.482C25.4887 464.174 25.0733 463.791 24.728 463.334L25.554 462.592C25.8527 462.993 26.1793 463.315 26.534 463.558C26.898 463.791 27.318 463.941 27.794 464.006V460.408C26.8327 460.193 26.128 459.881 25.68 459.47C25.2413 459.05 25.022 458.476 25.022 457.748C25.022 457.375 25.0873 457.043 25.218 456.754C25.358 456.455 25.5493 456.199 25.792 455.984C26.0347 455.769 26.324 455.601 26.66 455.48C26.996 455.349 27.3693 455.265 27.78 455.228V454.08H28.648V455.214C29.2827 455.27 29.8287 455.433 30.286 455.704C30.7527 455.965 31.154 456.329 31.49 456.796L30.636 457.44C30.4027 457.113 30.1227 456.847 29.796 456.642C29.4693 456.427 29.082 456.287 28.634 456.222V459.498L28.76 459.526C29.7307 459.741 30.4353 460.058 30.874 460.478C31.322 460.889 31.546 461.463 31.546 462.2C31.546 463.003 31.2847 463.651 30.762 464.146C30.2487 464.631 29.544 464.916 28.648 465V466.148H27.78ZM30.44 462.27C30.44 461.794 30.3 461.43 30.02 461.178C29.7493 460.926 29.2873 460.721 28.634 460.562V464.006C29.194 463.931 29.6327 463.745 29.95 463.446C30.2767 463.138 30.44 462.746 30.44 462.27ZM26.128 457.664C26.128 458.14 26.2633 458.499 26.534 458.742C26.814 458.975 27.234 459.167 27.794 459.316V456.222C27.29 456.287 26.884 456.441 26.576 456.684C26.2773 456.927 26.128 457.253 26.128 457.664ZM42.6478 456.264H38.3638L38.0838 459.988H38.1818C38.4151 459.661 38.6764 459.4 38.9658 459.204C39.2644 459.008 39.6704 458.91 40.1838 458.91C40.6038 458.91 40.9911 458.98 41.3458 459.12C41.7004 459.26 42.0084 459.461 42.2698 459.722C42.5311 459.974 42.7318 460.287 42.8718 460.66C43.0211 461.033 43.0958 461.458 43.0958 461.934C43.0958 462.41 43.0211 462.849 42.8718 463.25C42.7224 463.642 42.5031 463.983 42.2138 464.272C41.9338 464.552 41.5884 464.771 41.1778 464.93C40.7764 465.089 40.3191 465.168 39.8058 465.168C39.3951 465.168 39.0311 465.121 38.7138 465.028C38.4058 464.935 38.1304 464.809 37.8878 464.65C37.6451 464.491 37.4304 464.314 37.2438 464.118C37.0664 463.922 36.9031 463.717 36.7538 463.502L37.6358 462.83C37.7571 463.026 37.8831 463.203 38.0138 463.362C38.1538 463.521 38.3031 463.656 38.4618 463.768C38.6298 463.88 38.8211 463.969 39.0358 464.034C39.2504 464.09 39.5071 464.118 39.8058 464.118C40.4778 464.118 40.9864 463.941 41.3318 463.586C41.6771 463.231 41.8498 462.732 41.8498 462.088V461.948C41.8498 461.304 41.6771 460.805 41.3318 460.45C40.9864 460.095 40.4778 459.918 39.8058 459.918C39.3578 459.918 39.0031 460.002 38.7418 460.17C38.4898 460.329 38.2611 460.52 38.0558 460.744L37.0618 460.604L37.4118 455.228H42.6478V456.264ZM47.7243 459.372C48.387 459.372 48.8816 459.223 49.2083 458.924C49.5443 458.616 49.7123 458.224 49.7123 457.748V457.65C49.7123 457.137 49.549 456.754 49.2223 456.502C48.905 456.241 48.485 456.11 47.9623 456.11C47.4583 456.11 47.0476 456.222 46.7303 456.446C46.413 456.661 46.1516 456.955 45.9463 457.328L45.0783 456.656C45.1996 456.46 45.3443 456.269 45.5123 456.082C45.6896 455.886 45.895 455.713 46.1283 455.564C46.3616 455.415 46.6323 455.293 46.9403 455.2C47.2483 455.107 47.5983 455.06 47.9903 455.06C48.401 455.06 48.7883 455.116 49.1523 455.228C49.5163 455.331 49.829 455.489 50.0903 455.704C50.361 455.909 50.571 456.166 50.7203 456.474C50.879 456.782 50.9583 457.132 50.9583 457.524C50.9583 457.841 50.907 458.126 50.8043 458.378C50.711 458.63 50.5803 458.849 50.4123 459.036C50.2443 459.223 50.0436 459.381 49.8103 459.512C49.5863 459.643 49.3436 459.741 49.0823 459.806V459.862C49.3436 459.918 49.5956 460.011 49.8383 460.142C50.0903 460.263 50.3096 460.427 50.4963 460.632C50.6923 460.828 50.8463 461.071 50.9583 461.36C51.0796 461.64 51.1403 461.962 51.1403 462.326C51.1403 462.746 51.061 463.133 50.9023 463.488C50.7436 463.833 50.5196 464.132 50.2303 464.384C49.941 464.627 49.591 464.818 49.1803 464.958C48.7696 465.098 48.317 465.168 47.8223 465.168C47.4023 465.168 47.029 465.121 46.7023 465.028C46.3756 464.935 46.0863 464.809 45.8343 464.65C45.5823 464.491 45.3583 464.314 45.1623 464.118C44.9756 463.922 44.8076 463.717 44.6583 463.502L45.5403 462.83C45.6616 463.026 45.7923 463.203 45.9323 463.362C46.0816 463.521 46.245 463.656 46.4223 463.768C46.5996 463.88 46.8003 463.969 47.0243 464.034C47.2483 464.09 47.5096 464.118 47.8083 464.118C48.499 464.118 49.0216 463.964 49.3763 463.656C49.731 463.339 49.9083 462.891 49.9083 462.312V462.2C49.9083 461.621 49.731 461.178 49.3763 460.87C49.0216 460.553 48.499 460.394 47.8083 460.394H46.6603V459.372H47.7243ZM59.9268 458.812C59.9268 459.54 59.8195 460.226 59.6048 460.87C59.3902 461.505 59.1102 462.088 58.7648 462.62C58.4288 463.143 58.0555 463.609 57.6448 464.02C57.2342 464.421 56.8328 464.748 56.4408 465H54.9288C55.4515 464.617 55.9182 464.244 56.3288 463.88C56.7395 463.516 57.0988 463.138 57.4068 462.746C57.7148 462.345 57.9762 461.92 58.1908 461.472C58.4055 461.015 58.5782 460.501 58.7088 459.932L58.6388 459.904C58.4055 460.305 58.1022 460.641 57.7288 460.912C57.3648 461.173 56.8842 461.304 56.2868 461.304C55.8668 461.304 55.4795 461.234 55.1248 461.094C54.7702 460.954 54.4668 460.753 54.2148 460.492C53.9628 460.231 53.7622 459.918 53.6128 459.554C53.4728 459.181 53.4028 458.761 53.4028 458.294C53.4028 457.818 53.4775 457.384 53.6268 456.992C53.7855 456.591 54.0048 456.25 54.2848 455.97C54.5742 455.681 54.9148 455.457 55.3068 455.298C55.7082 455.139 56.1562 455.06 56.6508 455.06C57.1548 455.06 57.6075 455.149 58.0088 455.326C58.4195 455.494 58.7648 455.741 59.0448 456.068C59.3342 456.385 59.5535 456.777 59.7028 457.244C59.8522 457.711 59.9268 458.233 59.9268 458.812ZM56.6648 460.31C57.3088 460.31 57.8082 460.133 58.1628 459.778C58.5268 459.423 58.7088 458.915 58.7088 458.252V458.14C58.7088 457.477 58.5268 456.969 58.1628 456.614C57.8082 456.259 57.3088 456.082 56.6648 456.082C56.0208 456.082 55.5168 456.259 55.1528 456.614C54.7982 456.969 54.6208 457.477 54.6208 458.14V458.252C54.6208 458.915 54.7982 459.423 55.1528 459.778C55.5168 460.133 56.0208 460.31 56.6648 460.31ZM62.7634 465.168C62.4647 465.168 62.2454 465.093 62.1054 464.944C61.9747 464.795 61.9094 464.599 61.9094 464.356V464.174C61.9094 463.931 61.9747 463.735 62.1054 463.586C62.2454 463.437 62.4647 463.362 62.7634 463.362C63.062 463.362 63.2767 463.437 63.4074 463.586C63.5474 463.735 63.6174 463.931 63.6174 464.174V464.356C63.6174 464.599 63.5474 464.795 63.4074 464.944C63.2767 465.093 63.062 465.168 62.7634 465.168ZM69.9238 465V463.082H65.2058V462.046L69.2938 455.228H71.0438V462.102H72.4578V463.082H71.0438V465H69.9238ZM66.3118 462.102H69.9238V456.138H69.8538L66.3118 462.102ZM80.0404 456.264H75.7564L75.4764 459.988H75.5744C75.8077 459.661 76.069 459.4 76.3584 459.204C76.657 459.008 77.063 458.91 77.5764 458.91C77.9964 458.91 78.3837 458.98 78.7384 459.12C79.093 459.26 79.401 459.461 79.6624 459.722C79.9237 459.974 80.1244 460.287 80.2644 460.66C80.4137 461.033 80.4884 461.458 80.4884 461.934C80.4884 462.41 80.4137 462.849 80.2644 463.25C80.115 463.642 79.8957 463.983 79.6064 464.272C79.3264 464.552 78.981 464.771 78.5704 464.93C78.169 465.089 77.7117 465.168 77.1984 465.168C76.7877 465.168 76.4237 465.121 76.1064 465.028C75.7984 464.935 75.523 464.809 75.2804 464.65C75.0377 464.491 74.823 464.314 74.6364 464.118C74.459 463.922 74.2957 463.717 74.1464 463.502L75.0284 462.83C75.1497 463.026 75.2757 463.203 75.4064 463.362C75.5464 463.521 75.6957 463.656 75.8544 463.768C76.0224 463.88 76.2137 463.969 76.4284 464.034C76.643 464.09 76.8997 464.118 77.1984 464.118C77.8704 464.118 78.379 463.941 78.7244 463.586C79.0697 463.231 79.2424 462.732 79.2424 462.088V461.948C79.2424 461.304 79.0697 460.805 78.7244 460.45C78.379 460.095 77.8704 459.918 77.1984 459.918C76.7504 459.918 76.3957 460.002 76.1344 460.17C75.8824 460.329 75.6537 460.52 75.4484 460.744L74.4544 460.604L74.8044 455.228H80.0404V456.264Z" fill="white"/>
<rect x="0.5" y="168.5" width="143" height="327" rx="23.5" stroke="url(#paint20_linear_4_465)"/>
<rect x="0.5" y="168.5" width="143" height="327" rx="23.5" stroke="url(#paint21_linear_4_465)"/>
<rect x="0.5" y="0.5" width="143" height="143" rx="23.5" fill="url(#paint22_linear_4_465)"/>
<rect x="0.5" y="0.5" width="143" height="143" rx="23.5" fill="url(#paint23_linear_4_465)"/>
<path d="M44.75 18.5C48.2 18.5 51 33.05 51 51H56C56 31.6667 51 16 44.75 16C41.2167 16 38.0833 20.7167 36 28.0667C33.9333 20.7167 30.7833 16 27.25 16C21 16 16 31.6667 16 51H21C21 33.05 23.8 18.5 27.25 18.5C30.7 18.5 33.5 31.9333 33.5 48.5H38.5C38.5 31.9333 41.3 18.5 44.75 18.5Z" fill="white"/>
<path d="M24.918 94.768H24.848L24.022 96.406L21.684 100.662L19.346 96.406L18.52 94.768H18.45V103H17.302V93.228H18.87L21.67 98.492H21.74L24.554 93.228H26.066V103H24.918V94.768ZM32.1073 103.168C30.866 103.168 29.9 102.748 29.2093 101.908C28.5187 101.059 28.1733 99.8127 28.1733 98.17C28.1733 96.5273 28.5187 95.2673 29.2093 94.39C29.9 93.5033 30.866 93.06 32.1073 93.06C32.9287 93.06 33.6147 93.2467 34.1653 93.62C34.7253 93.9933 35.1593 94.5207 35.4673 95.202L34.5153 95.776C34.3193 95.272 34.0207 94.8707 33.6193 94.572C33.218 94.264 32.714 94.11 32.1073 94.11C31.6873 94.11 31.3093 94.1893 30.9733 94.348C30.6467 94.5067 30.3667 94.7353 30.1333 95.034C29.9093 95.3233 29.7367 95.6733 29.6153 96.084C29.494 96.4853 29.4333 96.938 29.4333 97.442V98.898C29.4333 99.906 29.6667 100.695 30.1333 101.264C30.6 101.833 31.258 102.118 32.1073 102.118C32.7327 102.118 33.2553 101.959 33.6753 101.642C34.0953 101.315 34.4033 100.886 34.5993 100.354L35.5373 100.942C35.2293 101.633 34.786 102.179 34.2073 102.58C33.6287 102.972 32.9287 103.168 32.1073 103.168ZM37.3586 93.228H40.6346C41.2413 93.228 41.792 93.3307 42.2866 93.536C42.7813 93.7413 43.2013 94.0493 43.5466 94.46C43.9013 94.8613 44.172 95.37 44.3586 95.986C44.5453 96.5927 44.6386 97.302 44.6386 98.114C44.6386 98.926 44.5453 99.64 44.3586 100.256C44.172 100.863 43.9013 101.371 43.5466 101.782C43.2013 102.183 42.7813 102.487 42.2866 102.692C41.792 102.897 41.2413 103 40.6346 103H37.3586V93.228ZM40.6346 101.964C41.036 101.964 41.4046 101.899 41.7406 101.768C42.0766 101.628 42.366 101.427 42.6086 101.166C42.8513 100.905 43.038 100.587 43.1686 100.214C43.3086 99.8313 43.3786 99.3973 43.3786 98.912V97.316C43.3786 96.8307 43.3086 96.4013 43.1686 96.028C43.038 95.6453 42.8513 95.3233 42.6086 95.062C42.366 94.8007 42.0766 94.6047 41.7406 94.474C41.4046 94.334 41.036 94.264 40.6346 94.264H38.5346V101.964H40.6346Z" fill="white"/>
<path d="M19.78 124.148V123C19.0707 122.953 18.4687 122.781 17.974 122.482C17.4887 122.174 17.0733 121.791 16.728 121.334L17.554 120.592C17.8527 120.993 18.1793 121.315 18.534 121.558C18.898 121.791 19.318 121.941 19.794 122.006V118.408C18.8327 118.193 18.128 117.881 17.68 117.47C17.2413 117.05 17.022 116.476 17.022 115.748C17.022 115.375 17.0873 115.043 17.218 114.754C17.358 114.455 17.5493 114.199 17.792 113.984C18.0347 113.769 18.324 113.601 18.66 113.48C18.996 113.349 19.3693 113.265 19.78 113.228V112.08H20.648V113.214C21.2827 113.27 21.8287 113.433 22.286 113.704C22.7527 113.965 23.154 114.329 23.49 114.796L22.636 115.44C22.4027 115.113 22.1227 114.847 21.796 114.642C21.4693 114.427 21.082 114.287 20.634 114.222V117.498L20.76 117.526C21.7307 117.741 22.4353 118.058 22.874 118.478C23.322 118.889 23.546 119.463 23.546 120.2C23.546 121.003 23.2847 121.651 22.762 122.146C22.2487 122.631 21.544 122.916 20.648 123V124.148H19.78ZM22.44 120.27C22.44 119.794 22.3 119.43 22.02 119.178C21.7493 118.926 21.2873 118.721 20.634 118.562V122.006C21.194 121.931 21.6327 121.745 21.95 121.446C22.2767 121.138 22.44 120.746 22.44 120.27ZM18.128 115.664C18.128 116.14 18.2633 116.499 18.534 116.742C18.814 116.975 19.234 117.167 19.794 117.316V114.222C19.29 114.287 18.884 114.441 18.576 114.684C18.2773 114.927 18.128 115.253 18.128 115.664ZM35.1378 123H28.7258V121.796L31.9178 118.856C32.3751 118.436 32.7578 117.993 33.0658 117.526C33.3738 117.05 33.5278 116.574 33.5278 116.098V115.93C33.5278 115.389 33.3784 114.95 33.0798 114.614C32.7811 114.278 32.3284 114.11 31.7218 114.11C31.4231 114.11 31.1618 114.152 30.9378 114.236C30.7138 114.32 30.5178 114.437 30.3498 114.586C30.1911 114.735 30.0558 114.913 29.9438 115.118C29.8411 115.314 29.7571 115.529 29.6918 115.762L28.6418 115.356C28.7351 115.067 28.8611 114.787 29.0198 114.516C29.1878 114.236 29.3931 113.989 29.6358 113.774C29.8878 113.559 30.1864 113.387 30.5318 113.256C30.8864 113.125 31.3018 113.06 31.7778 113.06C32.2538 113.06 32.6784 113.13 33.0518 113.27C33.4251 113.41 33.7378 113.606 33.9898 113.858C34.2418 114.11 34.4331 114.409 34.5638 114.754C34.7038 115.099 34.7738 115.482 34.7738 115.902C34.7738 116.285 34.7178 116.639 34.6058 116.966C34.5031 117.293 34.3584 117.605 34.1718 117.904C33.9851 118.193 33.7564 118.478 33.4858 118.758C33.2244 119.038 32.9398 119.318 32.6318 119.598L29.9998 121.964H35.1378V123ZM40.2703 123.168C39.1036 123.168 38.2496 122.725 37.7083 121.838C37.1763 120.951 36.9103 119.71 36.9103 118.114C36.9103 116.518 37.1763 115.277 37.7083 114.39C38.2496 113.503 39.1036 113.06 40.2703 113.06C41.437 113.06 42.2863 113.503 42.8183 114.39C43.3596 115.277 43.6303 116.518 43.6303 118.114C43.6303 119.71 43.3596 120.951 42.8183 121.838C42.2863 122.725 41.437 123.168 40.2703 123.168ZM40.2703 122.146C40.653 122.146 40.9796 122.067 41.2503 121.908C41.521 121.749 41.7403 121.525 41.9083 121.236C42.0763 120.947 42.1976 120.606 42.2723 120.214C42.3563 119.822 42.3983 119.388 42.3983 118.912V117.316C42.3983 116.84 42.3563 116.406 42.2723 116.014C42.1976 115.622 42.0763 115.281 41.9083 114.992C41.7403 114.703 41.521 114.479 41.2503 114.32C40.9796 114.161 40.653 114.082 40.2703 114.082C39.8876 114.082 39.561 114.161 39.2903 114.32C39.0196 114.479 38.8003 114.703 38.6323 114.992C38.4643 115.281 38.3383 115.622 38.2543 116.014C38.1796 116.406 38.1423 116.84 38.1423 117.316V118.912C38.1423 119.388 38.1796 119.822 38.2543 120.214C38.3383 120.606 38.4643 120.947 38.6323 121.236C38.8003 121.525 39.0196 121.749 39.2903 121.908C39.561 122.067 39.8876 122.146 40.2703 122.146ZM48.6648 123.168C48.1048 123.168 47.6148 123.098 47.1948 122.958C46.7748 122.809 46.4202 122.608 46.1308 122.356C45.8508 122.104 45.6362 121.805 45.4868 121.46C45.3468 121.115 45.2768 120.741 45.2768 120.34C45.2768 119.668 45.4588 119.136 45.8228 118.744C46.1868 118.352 46.6628 118.077 47.2508 117.918V117.806C46.7375 117.629 46.3268 117.344 46.0188 116.952C45.7202 116.551 45.5708 116.07 45.5708 115.51C45.5708 114.763 45.8415 114.171 46.3828 113.732C46.9242 113.284 47.6848 113.06 48.6648 113.06C49.6448 113.06 50.4055 113.284 50.9468 113.732C51.4882 114.171 51.7588 114.763 51.7588 115.51C51.7588 116.07 51.6048 116.551 51.2968 116.952C50.9982 117.344 50.5922 117.629 50.0788 117.806V117.918C50.6668 118.077 51.1428 118.352 51.5068 118.744C51.8708 119.136 52.0528 119.668 52.0528 120.34C52.0528 120.741 51.9782 121.115 51.8288 121.46C51.6888 121.805 51.4742 122.104 51.1848 122.356C50.9048 122.608 50.5548 122.809 50.1348 122.958C49.7148 123.098 49.2248 123.168 48.6648 123.168ZM48.6648 122.146C49.3462 122.146 49.8735 121.997 50.2468 121.698C50.6202 121.39 50.8068 120.956 50.8068 120.396V120.102C50.8068 119.542 50.6202 119.113 50.2468 118.814C49.8735 118.506 49.3462 118.352 48.6648 118.352C47.9835 118.352 47.4562 118.506 47.0828 118.814C46.7095 119.113 46.5228 119.542 46.5228 120.102V120.396C46.5228 120.956 46.7095 121.39 47.0828 121.698C47.4562 121.997 47.9835 122.146 48.6648 122.146ZM48.6648 117.372C49.2808 117.372 49.7475 117.241 50.0648 116.98C50.3822 116.719 50.5408 116.336 50.5408 115.832V115.622C50.5408 115.118 50.3822 114.735 50.0648 114.474C49.7475 114.213 49.2808 114.082 48.6648 114.082C48.0488 114.082 47.5822 114.213 47.2648 114.474C46.9475 114.735 46.7888 115.118 46.7888 115.622V115.832C46.7888 116.336 46.9475 116.719 47.2648 116.98C47.5822 117.241 48.0488 117.372 48.6648 117.372ZM54.7634 123.168C54.4647 123.168 54.2454 123.093 54.1054 122.944C53.9747 122.795 53.9094 122.599 53.9094 122.356V122.174C53.9094 121.931 53.9747 121.735 54.1054 121.586C54.2454 121.437 54.4647 121.362 54.7634 121.362C55.062 121.362 55.2767 121.437 55.4074 121.586C55.5474 121.735 55.6174 121.931 55.6174 122.174V122.356C55.6174 122.599 55.5474 122.795 55.4074 122.944C55.2767 123.093 55.062 123.168 54.7634 123.168ZM59.1238 123L62.8618 114.236H58.6898V116.056H57.6398V113.228H64.0518V114.264L60.3838 123H59.1238ZM66.3004 123V121.964H69.0304V114.096H68.9324L66.4684 116.392L65.7824 115.65L68.3724 113.228H70.2064V121.964H72.7264V123H66.3004Z" fill="white"/>
<rect x="0.5" y="0.5" width="143" height="143" rx="23.5" stroke="url(#paint24_linear_4_465)"/>
<rect x="0.5" y="0.5" width="143" height="143" rx="23.5" stroke="url(#paint25_linear_4_465)"/>
<defs>
<filter id="filter0_i_4_465" x="40.3247" y="186.51" width="9.26611" height="52.8504" filterUnits="userSpaceOnUse" color-interpolation-filters="sRGB">
<feFlood flood-opacity="0" result="BackgroundImageFix"/>
<feBlend mode="normal" in="SourceGraphic" in2="BackgroundImageFix" result="shape"/>
<feColorMatrix in="SourceAlpha" type="matrix" values="0 0 0 0 0 0 0 0 0 0 0 0 0 0 0 0 0 0 127 0" result="hardAlpha"/>
<feOffset dy="-12.8"/>
<feGaussianBlur stdDeviation="3.2"/>
<feComposite in2="hardAlpha" operator="arithmetic" k2="-1" k3="1"/>
<feColorMatrix type="matrix" values="0 0 0 0 0 0 0 0 0 0 0 0 0 0 0 0 0 0 0.08 0"/>
<feBlend mode="normal" in2="shape" result="effect1_innerShadow_4_465"/>
</filter>
<filter id="filter1_i_4_465" x="24" y="192.912" width="9.27393" height="52.9059" filterUnits="userSpaceOnUse" color-interpolation-filters="sRGB">
<feFlood flood-opacity="0" result="BackgroundImageFix"/>
<feBlend mode="normal" in="SourceGraphic" in2="BackgroundImageFix" result="shape"/>
<feColorMatrix in="SourceAlpha" type="matrix" values="0 0 0 0 0 0 0 0 0 0 0 0 0 0 0 0 0 0 127 0" result="hardAlpha"/>
<feOffset dy="9.6"/>
<feGaussianBlur stdDeviation="3.2"/>
<feComposite in2="hardAlpha" operator="arithmetic" k2="-1" k3="1"/>
<feColorMatrix type="matrix" values="0 0 0 0 0 0 0 0 0 0 0 0 0 0 0 0 0 0 0.24 0"/>
<feBlend mode="normal" in2="shape" result="effect1_innerShadow_4_465"/>
</filter>
<linearGradient id="paint0_linear_4_465" x1="204.597" y1="3.14653e-06" x2="332.746" y2="323.326" gradientUnits="userSpaceOnUse">
<stop stop-color="#171717"/>
<stop offset="1" stop-color="#343333"/>
</linearGradient>
<linearGradient id="paint1_linear_4_465" x1="250.158" y1="-7.0785e-07" x2="323.606" y2="224.348" gradientUnits="userSpaceOnUse">
<stop stop-color="#484848"/>
<stop offset="0.222593" stop-color="#2E2E2E"/>
<stop offset="1" stop-color="#151515"/>
</linearGradient>
<linearGradient id="paint2_linear_4_465" x1="354.677" y1="518" x2="521.269" y2="727.535" gradientUnits="userSpaceOnUse">
<stop stop-color="#171717"/>
<stop offset="1" stop-color="#343333"/>
</linearGradient>
<linearGradient id="paint3_linear_4_465" x1="410" y1="518" x2="410" y2="816" gradientUnits="userSpaceOnUse">
<stop stop-color="#A0A0A0"/>
<stop offset="1" stop-color="#E3E3E3"/>
</linearGradient>
<linearGradient id="paint4_linear_4_465" x1="375.439" y1="518" x2="479.622" y2="676.64" gradientUnits="userSpaceOnUse">
<stop stop-color="#484848"/>
<stop offset="0.222593" stop-color="#2E2E2E"/>
<stop offset="1" stop-color="#151515"/>
</linearGradient>
<linearGradient id="paint5_linear_4_465" x1="410" y1="518" x2="410" y2="816" gradientUnits="userSpaceOnUse">
<stop offset="0.000302188" stop-color="#D1D1D1"/>
<stop offset="0.237736" stop-color="#A0A0A0"/>
<stop offset="1" stop-color="#E3E3E3"/>
</linearGradient>
<linearGradient id="paint6_linear_4_465" x1="36.3652" y1="520" x2="64.6044" y2="680.279" gradientUnits="userSpaceOnUse">
<stop stop-color="#171717"/>
<stop offset="1" stop-color="#343333"/>
</linearGradient>
<linearGradient id="paint7_linear_4_465" x1="109.406" y1="576.646" x2="127.897" y2="636.365" gradientUnits="userSpaceOnUse">
<stop stop-color="#1F264F"/>
<stop offset="1" stop-color="#2790C3"/>
</linearGradient>
<linearGradient id="paint8_linear_4_465" x1="81.6376" y1="520" x2="97.2744" y2="627.444" gradientUnits="userSpaceOnUse">
<stop stop-color="#484848"/>
<stop offset="0.222593" stop-color="#2E2E2E"/>
<stop offset="1" stop-color="#151515"/>
</linearGradient>
<linearGradient id="paint9_linear_4_465" x1="109.406" y1="576.646" x2="127.897" y2="636.365" gradientUnits="userSpaceOnUse">
<stop stop-color="#535E9E"/>
<stop offset="0.296826" stop-color="#1F264F"/>
<stop offset="1" stop-color="#2790C3"/>
</linearGradient>
<linearGradient id="paint10_linear_4_465" x1="354.677" y1="350" x2="410" y2="494" gradientUnits="userSpaceOnUse">
<stop stop-color="#171717"/>
<stop offset="1" stop-color="#343333"/>
</linearGradient>
<linearGradient id="paint11_linear_4_465" x1="410" y1="350" x2="424.395" y2="494" gradientUnits="userSpaceOnUse">
<stop stop-color="#387ACD"/>
<stop offset="1" stop-color="#69CEE8"/>
</linearGradient>
<linearGradient id="paint12_linear_4_465" x1="375.439" y1="350" x2="407.072" y2="449.681" gradientUnits="userSpaceOnUse">
<stop stop-color="#484848"/>
<stop offset="0.222593" stop-color="#2E2E2E"/>
<stop offset="1" stop-color="#151515"/>
</linearGradient>
<linearGradient id="paint13_linear_4_465" x1="390.156" y1="350" x2="424.395" y2="494" gradientUnits="userSpaceOnUse">
<stop stop-color="#ACD1FF"/>
<stop offset="0.150144" stop-color="#387ACD"/>
<stop offset="1" stop-color="#69CEE8"/>
</linearGradient>
<linearGradient id="paint14_linear_4_465" x1="184.677" y1="350" x2="240" y2="494" gradientUnits="userSpaceOnUse">
<stop stop-color="#171717"/>
<stop offset="1" stop-color="#343333"/>
</linearGradient>
<linearGradient id="paint15_linear_4_465" x1="222.591" y1="350" x2="240" y2="514.706" gradientUnits="userSpaceOnUse">
<stop stop-color="#4F1CB1"/>
<stop offset="1" stop-color="#CA59FF"/>
</linearGradient>
<linearGradient id="paint16_linear_4_465" x1="205.439" y1="350" x2="237.072" y2="449.681" gradientUnits="userSpaceOnUse">
<stop stop-color="#484848"/>
<stop offset="0.222593" stop-color="#2E2E2E"/>
<stop offset="1" stop-color="#151515"/>
</linearGradient>
<linearGradient id="paint17_linear_4_465" x1="222.591" y1="350" x2="240" y2="514.706" gradientUnits="userSpaceOnUse">
<stop stop-color="#A374FE"/>
<stop offset="0.185007" stop-color="#4F1CB1"/>
<stop offset="1" stop-color="#CA59FF"/>
</linearGradient>
<linearGradient id="paint18_linear_4_465" x1="16.6771" y1="168" x2="203.22" y2="381.17" gradientUnits="userSpaceOnUse">
<stop stop-color="#171717"/>
<stop offset="1" stop-color="#343333"/>
</linearGradient>
<linearGradient id="paint19_linear_4_465" x1="68.6497" y1="168" x2="125.188" y2="528.574" gradientUnits="userSpaceOnUse">
<stop stop-color="#A71111"/>
<stop offset="1" stop-color="#F44336"/>
</linearGradient>
<linearGradient id="paint20_linear_4_465" x1="37.4389" y1="168" x2="156.093" y2="332.15" gradientUnits="userSpaceOnUse">
<stop stop-color="#484848"/>
<stop offset="0.222593" stop-color="#2E2E2E"/>
<stop offset="1" stop-color="#151515"/>
</linearGradient>
<linearGradient id="paint21_linear_4_465" x1="68.6497" y1="168" x2="125.188" y2="528.574" gradientUnits="userSpaceOnUse">
<stop stop-color="#D75151"/>
<stop offset="0.202061" stop-color="#A71111"/>
<stop offset="1" stop-color="#F44336"/>
</linearGradient>
<linearGradient id="paint22_linear_4_465" x1="16.6771" y1="1.38988e-06" x2="72" y2="144" gradientUnits="userSpaceOnUse">
<stop stop-color="#171717"/>
<stop offset="1" stop-color="#343333"/>
</linearGradient>
<linearGradient id="paint23_linear_4_465" x1="72" y1="8.70262e-07" x2="101.201" y2="144" gradientUnits="userSpaceOnUse">
<stop stop-color="#E16A11"/>
<stop offset="1" stop-color="#F6BF35"/>
</linearGradient>
<linearGradient id="paint24_linear_4_465" x1="37.4389" y1="-3.1267e-07" x2="69.0723" y2="99.6815" gradientUnits="userSpaceOnUse">
<stop stop-color="#484848"/>
<stop offset="0.222593" stop-color="#2E2E2E"/>
<stop offset="1" stop-color="#151515"/>
</linearGradient>
<linearGradient id="paint25_linear_4_465" x1="72" y1="8.70262e-07" x2="101.201" y2="144" gradientUnits="userSpaceOnUse">
<stop offset="0.00012015" stop-color="#FFA460"/>
<stop offset="0.245152" stop-color="#E16A11"/>
<stop offset="1" stop-color="#F6BF35"/>
</linearGradient>
<clipPath id="clip0_4_465">
<rect width="25.6" height="48" fill="white" transform="translate(24 192)"/>
</clipPath>
</defs>
</svg>
