<svg xmlns="http://www.w3.org/2000/svg" width="90" height="90"><g fill="none" fill-rule="evenodd"><path fill="#FFF" fill-rule="nonzero" stroke="#979797" d="M1 1h88v88H1z" opacity=".01"/><path fill="#85ACAF" d="M40.735 65.773v4.894H34.63v-4.875c-4.499-.838-7.326-3.616-7.528-7.645h5.295c.26 2.116 2.393 3.478 5.478 3.478 2.844 0 4.86-1.38 4.86-3.346 0-1.672-1.305-2.626-4.517-3.344l-3.403-.73c-4.768-.995-7.11-3.478-7.11-7.467 0-3.99 2.66-6.866 6.892-7.812V34h6.105v4.934c4.132.92 6.882 3.74 7.018 7.527h-5.111c-.259-2.066-2.182-3.445-4.826-3.445-2.643 0-4.55 1.27-4.55 3.262 0 1.613 1.247 2.508 4.318 3.194l3.151.67c5.262 1.104 7.528 3.346 7.528 7.435 0 4.374-2.809 7.302-7.495 8.197zM.999 52.334C1 72.584 17.415 89 37.666 89s36.667-16.416 36.667-36.667c0-20.25-16.416-36.666-36.667-36.666S.999 32.082.999 52.333z"/><path fill="#FF444F" d="M67 37.667a14.58 14.58 0 01-7.436-2.046l20.057-20.057A14.57 14.57 0 0181.667 23c0 8.087-6.58 14.667-14.667 14.667zm0-29.334c2.715 0 5.25.756 7.436 2.046L54.379 30.436A14.57 14.57 0 0152.333 23c0-8.087 6.58-14.667 14.667-14.667zM67 1c-12.15 0-22 9.85-22 22s9.85 22 22 22 22-9.85 22-22S79.15 1 67 1z" style="mix-blend-mode:multiply"/></g></svg>