<svg xmlns="http://www.w3.org/2000/svg" width="89" height="88"><g fill-rule="nonzero" fill="none"><path d="M67 55a32.997 32.997 0 00-32.67-33H34A33 33 0 001 54.652 1.557 1.557 0 001 55a33.001 33.001 0 0032.56 33H34a33.127 33.127 0 0033-32.542V55zM34 26.675v.898c3.007 0 6.362 4.914 8.342 11.935A70.918 70.918 0 0034 38.995a67.085 67.085 0 00-8.452.513 23.372 23.372 0 015.134-10.266A4.986 4.986 0 0134 27.5v-.88.055zm14.428 13.86a39.967 39.967 0 00-4.07-11 27.38 27.38 0 0114.997 14.979 39.019 39.019 0 00-10.908-3.979h-.019zM59.3 65.56a27.33 27.33 0 01-14.905 14.813 39.578 39.578 0 004.052-10.871 39.528 39.528 0 0010.871-3.942H59.3zm-9.845-2.017a68.928 68.928 0 00.037-17.068 23.624 23.624 0 0110.175 5.243 4.977 4.977 0 011.833 3.538c-.183 2.586-3.923 6.069-12.027 8.287h-.018zM33.872 83.325l-.092-.825c-2.603 0-6.105-3.813-8.305-11.935 2.817.342 5.651.513 8.488.513 2.837.001 5.67-.158 8.489-.476a23.562 23.562 0 01-5.17 10.065 4.954 4.954 0 01-3.392 1.705l-.018.953zM44.432 55a63.642 63.642 0 01-.752 9.68 64.49 64.49 0 01-9.717.697v.898l-.165-.898a64.058 64.058 0 01-9.533-.734 64.817 64.817 0 01-.697-9.9c.007-3.18.252-6.354.734-9.496a63.705 63.705 0 0119.396 0c.508 3.226.753 6.487.734 9.753zM19.498 69.483a39.339 39.339 0 003.942 10.835A27.505 27.505 0 018.645 65.487a39.113 39.113 0 0010.853 3.996zm-10.89-24.86a27.508 27.508 0 0114.887-14.978 39.408 39.408 0 00-3.997 11 39.158 39.158 0 00-10.89 3.978zm9.882 1.925a71.898 71.898 0 00-.495 8.232 74.648 74.648 0 00.495 8.69 23.614 23.614 0 01-10.157-5.133A4.994 4.994 0 016.5 55v-.092c.147-3.043 4.987-6.38 11.99-8.36z" fill="#85ACB0"/><path fill="#FF444F" d="M81.667 0H52.333A7.333 7.333 0 0045 7.333v29.334A7.333 7.333 0 0052.333 44h29.334A7.333 7.333 0 0089 36.667V7.333A7.333 7.333 0 0081.667 0z" style="mix-blend-mode:multiply"/><path fill="#FFF" d="M65.92 31v-2.904h-3.552V14.248h-5.52l-4.008 5.28 2.304 1.8 3.408-4.464h.216v11.232h-4.512V31H65.92zm13.704 0v-3.024h-7.92l3.12-2.448c.592-.48 1.16-.952 1.704-1.416.544-.464 1.02-.956 1.428-1.476.408-.52.732-1.076.972-1.668.24-.592.36-1.248.36-1.968s-.128-1.388-.384-2.004a4.468 4.468 0 00-1.116-1.596c-.488-.448-1.084-.8-1.788-1.056s-1.512-.384-2.424-.384c-.864 0-1.64.112-2.328.336-.688.224-1.284.532-1.788.924s-.924.848-1.26 1.368c-.336.52-.6 1.068-.792 1.644l3.144 1.2c.08-.32.192-.62.336-.9.144-.28.324-.528.54-.744.216-.216.472-.388.768-.516a2.615 2.615 0 011.044-.192c.272 0 .54.04.804.12.264.08.5.2.708.36.208.16.376.36.504.6s.192.52.192.84v.336c0 .352-.044.68-.132.984a3.549 3.549 0 01-.432.924c-.2.312-.46.632-.78.96-.32.328-.712.692-1.176 1.092l-5.16 4.416V31h11.856z"/></g></svg>