<svg xmlns="http://www.w3.org/2000/svg" xmlns:xlink="http://www.w3.org/1999/xlink" width="90" height="90"><defs><path id="a" d="M0 .062h72.823v48.385H0z"/></defs><g fill="none" fill-rule="evenodd"><path stroke="#979797" d="M1 1.109h88v88H1z" opacity=".01"/><path fill="#85ACAF" d="M1 81.168c0 4.385 3.278 7.941 7.321 7.941h58.568c4.043 0 7.321-3.556 7.321-7.941v-4.63H1v4.63z"/><g transform="translate(1 26.252)"><mask id="b" fill="#fff"><use xlink:href="#a"/></mask><path fill="#85ACAF" d="M48.484 30.472v10.982h-5.88V30.472h-5.876l5.877-7.936 2.94-3.968 2.939 3.968 5.878 7.936h-5.878zm-18.266 1.04l-2.939 3.968-2.94-3.966-5.878-7.937h5.878V12.596h5.879v10.981h5.876l-5.876 7.935zM65.54.062H7.282C3.261.062 0 3.369 0 7.448v40.999h72.823V7.448c0-4.079-3.26-7.386-7.283-7.386z" mask="url(#b)"/></g><path fill="#FF444F" d="M64.227.37c-13.681 0-24.773 11.09-24.773 24.773 0 13.68 11.092 24.773 24.773 24.773S89 38.824 89 25.143C89 11.46 77.908.37 64.227.37z" style="mix-blend-mode:multiply"/><path fill="#FFF" d="M59.47 18.513a3.353 3.353 0 10-6.705 0 3.353 3.353 0 006.705 0zm.44 18.758h-4.88L69.102 15.16h4.881L59.91 37.27zm8.333-3.28a3.353 3.353 0 116.707 0c0 1.853-1.5 3.354-3.354 3.354a3.352 3.352 0 01-3.353-3.354z"/></g></svg>