<svg xmlns="http://www.w3.org/2000/svg" width="90" height="90" viewBox="0 0 90 90">
    <g fill="none" fill-rule="evenodd">
        <g>
            <g>
                <g>
                    <path fill="#FFF" fill-rule="nonzero" stroke="#979797" d="M0 0H88V88H0z" opacity=".01" transform="translate(-683 -2804) translate(120 2640) translate(564 165)"/>
                    <path fill="#85ACAF" d="M39.735 64.773v4.894H33.63v-4.875c-4.499-.838-7.326-3.616-7.528-7.645h5.295c.26 2.116 2.393 3.478 5.478 3.478 2.844 0 4.86-1.38 4.86-3.346 0-1.672-1.305-2.626-4.517-3.344l-3.403-.73c-4.768-.995-7.11-3.478-7.11-7.467 0-3.99 2.66-6.866 6.892-7.812V33h6.105v4.934c4.132.92 6.882 3.74 7.018 7.527h-5.111c-.259-2.066-2.182-3.445-4.826-3.445-2.643 0-4.55 1.27-4.55 3.262 0 1.613 1.247 2.508 4.318 3.194l3.151.67c5.262 1.104 7.528 3.346 7.528 7.435 0 4.374-2.809 7.302-7.495 8.197zM-.001 51.334C0 71.584 16.415 88 36.666 88s36.667-16.416 36.667-36.667c0-20.25-16.416-36.666-36.667-36.666S-.001 31.082-.001 51.333z" transform="translate(-683 -2804) translate(120 2640) translate(564 165)"/>
                    <path fill="#FF444F" d="M66 36.667c-2.715 0-5.25-.756-7.436-2.046l20.057-20.057c1.29 2.183 2.046 4.72 2.046 7.436 0 8.087-6.58 14.667-14.667 14.667zm0-29.334c2.715 0 5.25.756 7.436 2.046L53.379 29.436c-1.29-2.183-2.046-4.72-2.046-7.436 0-8.087 6.58-14.667 14.667-14.667zM66 0C53.85 0 44 9.85 44 22s9.85 22 22 22 22-9.85 22-22S78.15 0 66 0z" style="mix-blend-mode:multiply" transform="translate(-683 -2804) translate(120 2640) translate(564 165)"/>
                </g>
            </g>
        </g>
    </g>
</svg>
