<svg width="64" height="64" viewBox="0 0 64 64" fill="none" xmlns="http://www.w3.org/2000/svg">
<g opacity="0.64" clip-path="url(#clip0_662_1416)">
<g clip-path="url(#clip1_662_1416)">
<mask id="path-1-inside-1_662_1416" fill="white">
<path d="M33.3098 6.11047C33.2597 6.16555 33.1896 6.21062 33.1595 6.21062C33.1245 6.21062 33.0694 6.24568 33.0343 6.28574C32.9993 6.3258 32.8641 6.42095 32.7289 6.49106C32.4735 6.63128 32.3883 6.75146 32.4935 6.82158C32.5436 6.85162 32.5286 6.88668 32.4384 6.9618C32.2782 7.097 32.2531 7.08699 32.2181 6.89669C32.198 6.81156 32.173 6.68136 32.153 6.61626C32.1279 6.53112 32.1329 6.50608 32.173 6.53112C32.2581 6.5812 32.2481 6.5161 32.158 6.43097C32.0929 6.36086 32.0728 6.36086 32.0027 6.43097C31.9627 6.47604 31.9426 6.53613 31.9577 6.56117C31.9777 6.59122 31.9677 6.6463 31.9376 6.68136C31.8926 6.73143 31.8976 6.75647 31.9577 6.78151C32.0328 6.80655 32.0628 7.03691 31.9977 7.07697C31.9026 7.13206 31.7323 7.01187 31.7323 6.89169C31.7323 6.81657 31.6772 6.72643 31.5971 6.66133C31.4519 6.55116 30.6406 6.06039 30.6005 6.06039C30.5655 6.06039 30.6406 6.33081 30.6957 6.39591C30.7207 6.43097 30.7257 6.46101 30.7007 6.46101C30.6807 6.46101 30.6857 6.48605 30.7207 6.52111C30.7558 6.55616 30.7808 6.62126 30.7808 6.67134C30.7808 6.72142 30.8059 6.76148 30.8309 6.76148C30.861 6.76148 30.881 6.78652 30.881 6.81156C30.881 6.89169 31.1414 7.16211 31.2866 7.24223C31.3667 7.2823 31.4318 7.36743 31.4469 7.46258C31.4719 7.58276 31.512 7.62283 31.6422 7.64787C31.7323 7.6679 31.8225 7.67791 31.8475 7.6729C31.8675 7.6679 31.8825 7.70796 31.8825 7.76305C31.8825 7.81813 31.8625 7.8632 31.8325 7.8632C31.8074 7.8632 31.7824 7.90827 31.7824 7.95835C31.7824 8.01344 31.7423 8.08855 31.6872 8.12361C31.522 8.23879 31.3818 8.52924 31.3818 8.75459C31.3818 9.15522 31.6522 9.49074 32.0478 9.58589C32.158 9.61093 32.178 9.63597 32.1379 9.68605C32.1029 9.72611 32.1029 9.80623 32.1279 9.89637C32.148 9.9765 32.173 10.2319 32.178 10.4623C32.183 10.6976 32.198 10.9029 32.2081 10.918C32.2181 10.938 32.143 11.0382 32.0328 11.1433C31.8475 11.3236 31.8325 11.3286 31.6872 11.2685C31.557 11.2134 31.512 11.2184 31.4068 11.2885C31.3367 11.3386 31.2516 11.4338 31.2265 11.5089C31.1614 11.6691 31.1965 12.8009 31.2966 13.8225C31.3467 14.3032 31.3467 14.5136 31.3117 14.5586C31.2215 14.6538 30.5805 14.9893 30.5455 14.9543C30.5304 14.9392 30.5455 14.8291 30.5805 14.7039C30.6156 14.5787 30.6206 14.4535 30.6005 14.4134C30.5755 14.3784 30.5655 14.2832 30.5755 14.2081C30.5955 14.0128 30.4653 13.8375 30.275 13.7975C30.1498 13.7674 30.0948 13.7824 30.0497 13.8475C29.9946 13.9227 29.9696 13.9277 29.9045 13.8726C29.8394 13.8175 29.8293 13.8325 29.8293 13.9777C29.8343 14.2031 29.7392 15.0144 29.6891 15.1996C29.6441 15.3599 29.5088 15.41 28.7527 15.5502C28.5624 15.5853 28.4622 15.6153 28.5423 15.6203C28.6174 15.6253 28.8929 15.5802 29.1583 15.5201C29.4237 15.4651 29.6491 15.43 29.6591 15.44C29.6741 15.455 29.6691 15.5201 29.6491 15.5903C29.619 15.7205 29.604 15.7205 29.1633 15.7405L28.7026 15.7555L29.1683 15.7655C29.4187 15.7705 29.629 15.7906 29.629 15.8056C29.629 15.8256 29.5389 15.9759 29.4237 16.1461L29.2184 16.4516L29.2384 16.9624C29.2534 17.4582 29.2534 17.4682 29.1533 17.4181C28.8228 17.2428 28.7927 17.1978 28.7677 16.8172C28.7276 16.1712 28.5323 15.9608 27.9314 15.9108C27.5858 15.8807 27.3755 15.8156 27.3755 15.7305C27.3755 15.7054 27.4707 15.6954 27.5908 15.7104C27.706 15.7205 27.9364 15.7104 28.1016 15.6804C28.3821 15.6353 28.3721 15.6353 27.9514 15.6554C27.6159 15.6754 27.4757 15.6654 27.4106 15.6153C27.3555 15.5752 27.2553 15.3549 27.1752 15.1195C26.9548 14.4385 26.7896 14.138 26.5092 13.9176C26.2237 13.6873 26.1486 13.6823 25.9232 13.8475C25.8281 13.9176 25.6829 13.9727 25.6027 13.9727C25.4525 13.9727 25.4525 13.9727 25.5627 14.0529C25.6779 14.133 25.7129 14.3433 25.6228 14.3984C25.5577 14.4385 25.5577 14.6388 25.6228 14.7039C25.6779 14.759 25.7029 15.2347 25.6528 15.3148C25.6328 15.3449 25.6528 15.45 25.6929 15.5502C25.753 15.6954 25.793 15.7255 25.9182 15.7255C25.9984 15.7255 26.0985 15.7405 26.1436 15.7555C26.2538 15.7956 26.2437 15.9859 26.1286 16.1311C25.9383 16.3765 25.9032 16.5768 25.9933 16.9173C26.1135 17.3931 26.1035 17.5333 25.9182 17.6785L25.768 17.8087L25.8281 18.5549C25.8882 19.3511 25.9433 19.5014 26.1436 19.4713C26.2788 19.4513 26.3088 19.2159 26.1987 19.0457C26.0985 18.9004 26.0484 18.4647 26.0935 18.2093C26.1436 17.9439 26.2988 17.8187 26.5743 17.8288C26.9048 17.8388 26.9198 17.8388 26.8897 17.7336C26.8447 17.5583 27.04 17.6685 27.1652 17.8838C27.2703 18.0641 27.2804 18.1442 27.2904 18.9805C27.2954 19.6015 27.2854 19.897 27.2453 19.922C27.2153 19.942 27.1752 20.0071 27.1552 20.0672L27.1201 20.1824H25.8932C24.7063 20.1824 24.6713 20.1874 24.6713 20.2826C24.6713 20.3727 24.6362 20.3827 24.2957 20.3827H23.9201V20.6331V20.8835H23.6747H23.4243L23.4093 21.1439L23.3943 21.4093L13.0882 21.4244C7.42433 21.4294 2.78709 21.4444 2.78709 21.4594C2.78709 21.4744 3.04749 21.815 3.36299 22.2206L3.93889 22.9618V24.2988V25.6409H3.68849H3.4381V25.8913V26.1417H2.38646H1.33482L0.834034 26.3921C0.558604 26.5323 0.333252 26.6525 0.333252 26.6675C0.333252 26.6826 0.558604 26.8028 0.834034 26.943L1.33482 27.1934V27.4588V27.7192L2.38646 28.5104L3.4381 29.2966V30.8741V32.4516H2.91228H2.38646L2.91228 33.2378L3.4381 34.029V45.8324V57.6409H5.54139H7.64468V56.8496V56.0584L7.36925 55.788L7.09382 55.5176V44.245V32.9724L7.35923 32.712L7.62464 32.4516H10.0034H12.3821L12.6425 32.717L12.9029 32.9824V44.245V55.5075L12.6275 55.788L12.347 56.0734L12.3821 56.8546L12.4171 57.6409H14.7658H17.1095V56.8496V56.0584L16.834 55.788L16.5586 55.5176V44.245V32.9724L16.824 32.712L17.0894 32.4516H19.994H22.8985L23.1589 32.717L23.4193 32.9824V44.25V55.5176L23.1439 55.788L22.8685 56.0584V56.8496V57.6409H25.2472H27.6259V56.8546V56.0684L27.3505 55.803L27.075 55.5376V44.255V32.9724L27.3405 32.712L27.6059 32.4516H32.3383H37.0707L37.3311 32.717L37.5915 32.9824V44.24V55.5025L37.316 55.793L37.0406 56.0834V56.8597V57.6409H39.4193H41.798V56.8496V56.0584L41.5226 55.788L41.2472 55.5176V44.245V32.9724L41.5126 32.712L41.778 32.4516H44.6825H47.5871L47.8475 32.717L48.1079 32.9824V44.25V55.5176L47.8325 55.788L47.557 56.0584V56.8496V57.6409H49.9358H52.3145V56.8496V56.0584L52.039 55.788L51.7636 55.5176V44.245V32.9724L52.029 32.712L52.2944 32.4516H54.6732H57.0519L57.3123 32.717L57.5727 32.9824V44.25V55.5176L57.2973 55.788L57.0218 56.0584V56.8496V57.6409H59.1251H61.2284V45.8324V34.029L61.7542 33.2378L62.28 32.4516H61.7542H61.2284V30.8741V29.2966L62.28 28.5104L63.3317 27.7192V27.4588V27.1934L63.8325 26.943C64.1079 26.8028 64.3333 26.6826 64.3333 26.6675C64.3333 26.6525 64.1079 26.5323 63.8325 26.3921L63.3317 26.1417H62.28H61.2284V25.8963V25.6459L60.973 25.6309L60.7226 25.6159L60.7276 24.2888L60.7326 22.9618L61.2985 22.2106L61.8694 21.4594L51.5683 21.4344L41.2722 21.4093L41.2572 21.1439L41.2422 20.8835H40.9918H40.7464V20.6331V20.3827H40.2456C39.7799 20.3827 39.7448 20.3777 39.7448 20.2826C39.7448 20.1874 39.7098 20.1824 38.8334 20.1824L37.917 20.1774L37.8068 20.0071C37.7016 19.8419 37.6966 19.8068 37.7417 19.276C37.7768 18.8453 37.8068 18.6901 37.8819 18.61C38.0121 18.4647 38.1924 18.1392 38.1924 18.0541C38.1924 17.979 38.3827 17.7787 38.4528 17.7787C38.4779 17.7787 38.4728 17.8237 38.4428 17.8838C38.3727 18.009 38.4128 18.0641 38.5129 17.984C38.568 17.9389 38.6231 17.9389 38.7633 17.999C38.9336 18.0691 38.9436 18.0892 38.9436 18.2895C38.9386 18.4097 38.9085 18.5599 38.8685 18.63C38.8284 18.7001 38.7984 18.8153 38.7933 18.8854C38.7933 18.9555 38.7483 19.0557 38.6932 19.1057C38.5379 19.246 38.573 19.5014 38.7483 19.5214C38.9035 19.5414 38.9937 19.4463 38.9987 19.251C39.0037 19.1708 39.0237 19.0607 39.0437 19.0056C39.0638 18.9505 39.1088 18.7602 39.1389 18.5799C39.1689 18.3996 39.209 18.1943 39.224 18.1192C39.2441 18.0341 39.214 17.8838 39.1439 17.7136C39.0337 17.4532 39.0337 17.4331 39.1088 17.1076C39.189 16.7621 39.1739 16.6319 39.0337 16.3464C38.8685 16.0259 38.8785 15.8857 39.0838 15.5802C39.2491 15.3399 39.2791 15.2547 39.2891 15.0043C39.2941 14.8441 39.3292 14.6488 39.3743 14.5637C39.4293 14.4535 39.4343 14.3984 39.3943 14.3483C39.3292 14.2682 39.3743 14.0529 39.4744 13.9677C39.5145 13.9377 39.5445 13.8676 39.5445 13.8125C39.5445 13.7274 39.5345 13.7223 39.4394 13.7925C39.3492 13.8576 39.3242 13.8525 39.2441 13.7824C39.189 13.7424 39.1589 13.6823 39.1739 13.6623C39.219 13.5921 38.8434 13.6723 38.6381 13.7774C38.543 13.8225 38.4378 13.9227 38.4027 13.9928C38.3727 14.0629 38.3226 14.123 38.2926 14.123C38.1824 14.123 37.937 14.774 37.8619 15.2648C37.8168 15.5652 37.7617 15.7705 37.7167 15.8056C37.6766 15.8356 37.6566 15.8707 37.6716 15.8857C37.6866 15.9007 37.4663 15.9108 37.1808 15.9007C36.7401 15.8907 36.7201 15.8907 37.0406 15.9208L37.4162 15.9508L37.1207 16.0209C36.8403 16.091 36.8102 16.091 36.4948 15.9809C36.3145 15.9158 35.8988 15.7505 35.5733 15.6053C35.0575 15.3799 34.9874 15.3399 35.0124 15.2497C35.1126 14.9192 35.1276 14.804 35.0725 14.7189C35.0325 14.6538 35.0325 14.5536 35.0775 14.3283C35.1326 14.0679 35.1326 14.0028 35.0625 13.8726C35.0174 13.7824 34.9974 13.6723 35.0124 13.6172C35.0425 13.527 35.0325 13.517 34.9423 13.5471C34.8872 13.5621 34.8021 13.5571 34.752 13.527C34.6919 13.497 34.6268 13.497 34.5667 13.532C34.5217 13.5571 34.4666 13.5671 34.4466 13.5521C34.4315 13.532 34.3865 13.1765 34.3514 12.7558C34.3164 12.3402 34.2613 11.8895 34.2312 11.7593C34.1311 11.3286 33.9057 11.1633 33.6503 11.3436C33.5652 11.4037 33.5502 11.4538 33.5702 11.6141C33.5902 11.7693 33.5752 11.8294 33.4901 11.9145C33.3549 12.0497 33.2897 12.0497 33.1195 11.8945C32.9542 11.7342 32.9492 11.6491 33.1095 11.3486C33.2647 11.0582 33.2647 10.9981 33.1245 10.8679C32.9943 10.7477 32.7539 10.7377 32.5135 10.8378L32.3433 10.908L32.3182 10.6275C32.2732 10.0967 32.2782 9.90639 32.3433 9.82626C32.3933 9.76617 32.3933 9.74614 32.3483 9.73112C32.2331 9.69105 32.2782 9.62595 32.4585 9.56586C32.6738 9.49575 32.9142 9.22533 32.9793 8.97994C33.0644 8.66946 32.9092 8.23378 32.6788 8.10859C32.6287 8.08355 32.5887 8.03347 32.5987 8.00342C32.6037 7.97337 32.5636 7.92329 32.5085 7.89325C32.3733 7.81813 32.3933 7.56273 32.5336 7.56273C32.7088 7.56273 32.8841 7.44755 32.9192 7.31735C32.9342 7.24724 32.9993 7.13707 33.0644 7.07197C33.1746 6.9618 33.3098 6.66133 33.2497 6.66133C33.2347 6.66133 33.2497 6.62627 33.2847 6.58621C33.3198 6.54615 33.3348 6.51109 33.3148 6.51109C33.2998 6.51109 33.3098 6.451 33.3398 6.37087C33.3899 6.24568 33.435 6.01031 33.4099 6.01031C33.4049 6.01031 33.3599 6.05538 33.3098 6.11047ZM31.9827 7.93331C31.9827 7.94333 31.9477 7.96336 31.9076 7.98339C31.8675 7.99841 31.8325 7.9884 31.8325 7.96336C31.8325 7.93331 31.8675 7.91328 31.9076 7.91328C31.9477 7.91328 31.9827 7.92329 31.9827 7.93331ZM32.5586 7.96336C32.5736 7.9884 32.5536 8.01344 32.5135 8.01344C32.4685 8.01344 32.4334 7.9884 32.4334 7.96336C32.4334 7.93331 32.4534 7.91328 32.4785 7.91328C32.5085 7.91328 32.5436 7.93331 32.5586 7.96336ZM32.1329 8.21375C32.1329 8.23879 32.0879 8.26382 32.0328 8.26382C31.9126 8.26382 31.9126 8.26382 32.0077 8.44411C32.0829 8.58933 32.1029 8.71453 32.0578 8.71453C32.0428 8.71453 31.9527 8.67947 31.8575 8.64442L31.6822 8.5693V8.78965V9.00999L31.8575 8.93487C31.9527 8.89982 32.0428 8.86477 32.0578 8.86477C32.1079 8.86477 32.0779 9.09011 32.0128 9.21531L31.9426 9.3355L31.7874 9.17024C31.522 8.8898 31.5921 8.41907 31.9276 8.23879C32.0829 8.15366 32.1329 8.14865 32.1329 8.21375ZM32.6538 8.41907C32.8791 8.68448 32.794 9.13018 32.4835 9.29043C32.3132 9.38057 32.2832 9.38057 32.2832 9.31547C32.2832 9.28542 32.3182 9.26539 32.3633 9.26539C32.4034 9.26539 32.4234 9.24035 32.4084 9.21531C32.3883 9.18526 32.3533 9.09512 32.3333 9.00999C32.2832 8.83973 32.2631 8.84473 32.6237 8.94489C32.7239 8.97494 32.7339 8.95991 32.7339 8.76962C32.7339 8.53926 32.7339 8.53926 32.4985 8.62439C32.2932 8.6995 32.2581 8.66445 32.3333 8.44411C32.4034 8.22376 32.4835 8.21876 32.6538 8.41907ZM32.1329 9.31547C32.1329 9.34051 32.1079 9.36554 32.0779 9.36554C32.0528 9.36554 32.0428 9.34051 32.0578 9.31547C32.0728 9.28542 32.0979 9.26539 32.1129 9.26539C32.1229 9.26539 32.1329 9.28542 32.1329 9.31547ZM32.2331 11.6191C32.2331 11.7993 32.2231 11.8194 32.1079 11.8194C31.9426 11.8194 31.8976 11.7042 32.0027 11.5439C32.1329 11.3486 32.2331 11.3837 32.2331 11.6191ZM32.4334 11.6241C32.4334 11.6741 32.4134 11.7192 32.3833 11.7192C32.3583 11.7192 32.3333 11.6591 32.3333 11.589C32.3333 11.5189 32.3533 11.4738 32.3833 11.4939C32.4134 11.5089 32.4334 11.569 32.4334 11.6241ZM33.6854 14.0328C33.6854 14.0428 33.7304 14.168 33.7855 14.3083C33.8907 14.5837 33.8556 14.6438 33.6854 14.4735C33.5802 14.3684 33.5401 14.0228 33.6353 14.0228C33.6653 14.0228 33.6854 14.0278 33.6854 14.0328ZM31.9527 14.3483C31.9326 14.3884 31.9126 14.4234 31.9026 14.4234C31.8926 14.4234 31.8825 14.3884 31.8825 14.3483C31.8825 14.3083 31.9026 14.2732 31.9326 14.2732C31.9577 14.2732 31.9677 14.3083 31.9527 14.3483ZM31.1714 14.8241C31.0713 14.9092 30.886 15.0895 30.7658 15.2297L30.5405 15.4851L30.5204 15.2798L30.5054 15.0795L30.881 14.8842C31.3467 14.6438 31.4068 14.6288 31.1714 14.8241ZM26.2538 15.4701C26.2487 15.5853 26.2287 15.6754 26.2037 15.6754C26.1786 15.6754 26.1586 15.5953 26.1636 15.5001C26.1686 15.2297 26.1686 15.2147 26.2137 15.2447C26.2387 15.2597 26.2538 15.3599 26.2538 15.4701ZM35.8888 15.8156C35.9239 15.8707 36.6951 16.1261 36.8153 16.1261C36.9104 16.1261 36.9104 16.1261 36.8102 16.1962C36.7251 16.2563 36.64 16.4766 36.5148 16.9524C36.4998 17.0175 35.7386 17.4982 35.7085 17.4632C35.6935 17.4482 35.6685 17.1126 35.6534 16.712L35.6234 15.9859L35.4932 15.9608C35.4231 15.9458 35.348 15.9608 35.3279 15.9909C35.3079 16.0209 35.2578 15.9608 35.2027 15.8457C35.1527 15.7405 35.1026 15.6403 35.0876 15.6253C35.0725 15.6103 35.0575 15.5602 35.0475 15.5151C35.0375 15.45 35.1076 15.4651 35.4481 15.6053C35.6735 15.7054 35.8738 15.7956 35.8888 15.8156ZM38.9937 15.5953C38.9937 15.6103 38.9736 15.6353 38.9436 15.6504C38.9185 15.6654 38.8935 15.6554 38.8935 15.6303C38.8935 15.6003 38.9185 15.5752 38.9436 15.5752C38.9736 15.5752 38.9937 15.5853 38.9937 15.5953ZM36.4747 17.358C36.4597 17.4582 36.4347 17.5483 36.4246 17.5633C36.4096 17.5734 36.2694 17.5784 36.1092 17.5683L35.8137 17.5533L36.1142 17.368C36.2794 17.2679 36.4347 17.1827 36.4597 17.1827C36.4847 17.1777 36.4897 17.2579 36.4747 17.358ZM29.003 17.5683C28.8428 17.5784 28.7026 17.5734 28.6926 17.5583C28.6775 17.5433 28.6775 17.4782 28.6976 17.4081L28.7276 17.2779L29.0081 17.4181L29.2885 17.5533L29.003 17.5683ZM28.8178 18.9154L28.8027 20.1574H28.5774H28.352L28.337 19.912C28.327 19.7417 28.347 19.6466 28.4021 19.5815C28.4472 19.5314 28.4772 19.4763 28.4672 19.4513C28.4622 19.4262 28.4822 19.3561 28.5173 19.296C28.5624 19.2159 28.5674 19.0757 28.5373 18.7702C28.4572 18.0291 28.5223 17.6785 28.7326 17.6785C28.8278 17.6785 28.8278 17.7136 28.8178 18.9154ZM29.4538 18.1092C29.4988 18.3095 29.5289 18.5148 29.5088 18.5549C29.4938 18.5949 29.5038 18.6951 29.5339 18.7702C29.614 18.9705 29.6841 19.7217 29.6491 19.9671L29.619 20.1824H29.2434H28.8728L28.8829 18.9655C28.8879 18.2995 28.8979 17.7436 28.9029 17.7286C28.9129 17.7136 29.0181 17.7086 29.1433 17.7186L29.3636 17.7386L29.4538 18.1092ZM36.2994 18.4798C36.3045 18.9205 36.3145 19.4763 36.3145 19.7117V20.1424L36.014 20.1474H35.7135L35.6985 19.261C35.6885 18.6851 35.7035 18.3796 35.7386 18.3796C35.7636 18.3796 35.7887 18.3446 35.7887 18.3045C35.7887 18.2644 35.8237 18.2294 35.8638 18.2294C35.9038 18.2294 35.9389 18.1843 35.9389 18.1292C35.9389 18.0741 35.9088 18.0291 35.8788 18.0291C35.8187 18.0291 35.6885 17.8137 35.6885 17.7186C35.6885 17.6985 35.8237 17.6785 35.989 17.6785H36.2894L36.2994 18.4798ZM36.5448 18.3796C36.5498 18.5849 36.5498 18.8003 36.5448 18.8554C36.5248 19.4162 36.5398 19.5464 36.64 19.6165C36.7001 19.6616 36.7401 19.7417 36.7401 19.8319C36.7401 20.0021 36.9254 20.1524 37.0656 20.1023C37.1408 20.0723 37.1458 20.0272 37.1207 19.8018C37.1007 19.6466 37.1107 19.5264 37.1408 19.5064C37.2109 19.4663 37.2059 19.1508 37.1358 19.0156C37.0606 18.8854 37.2259 17.979 37.3311 17.9439C37.4262 17.9039 37.4412 17.9339 37.4763 18.2194C37.4963 18.3996 37.4863 18.5048 37.4362 18.5599C37.3761 18.63 37.291 19.3762 37.276 19.9671L37.271 20.1824H36.8303H36.3896V18.9154C36.3946 17.7436 36.3996 17.6685 36.4697 17.8288C36.5148 17.9289 36.5448 18.1593 36.5448 18.3796ZM27.9063 17.989C27.8112 18.1242 27.8012 18.0841 27.8863 17.8989C27.9214 17.8288 27.9564 17.7937 27.9664 17.8237C27.9764 17.8538 27.9464 17.9289 27.9063 17.989ZM30.3401 18.8353C30.3802 19.261 30.5004 19.6816 30.5855 19.6816C30.6106 19.6816 30.6306 19.7918 30.6306 19.932V20.1824H30.4102C30.2149 20.1824 30.1849 20.1674 30.1448 20.0422C30.1148 19.9571 30.1148 19.7167 30.1398 19.4062C30.1649 19.1308 30.1849 18.7852 30.1849 18.64C30.1799 18.4397 30.1949 18.3746 30.24 18.3896C30.28 18.4046 30.3201 18.5649 30.3401 18.8353ZM31.0663 19.0156C31.0963 19.3411 31.1063 19.7317 31.0863 19.882C31.0563 20.1474 31.0513 20.1574 30.896 20.1724L30.7307 20.1874V19.942C30.7307 19.7918 30.7558 19.6716 30.8009 19.6366C30.911 19.5464 30.9261 19.3461 30.8509 18.9856C30.7508 18.5098 30.7558 18.4297 30.896 18.4297C31.0062 18.4297 31.0112 18.4547 31.0663 19.0156ZM35.3079 18.5148C35.3179 18.5649 35.348 18.9605 35.368 19.3962L35.398 20.1824L35.2829 20.1674C35.2178 20.1574 35.1627 20.1173 35.1627 20.0773C35.1627 20.0372 35.1426 19.9821 35.1226 19.9471C35.0826 19.882 35.0826 19.0907 35.1226 18.6901C35.1477 18.4297 35.2528 18.3295 35.3079 18.5148ZM32.0829 18.5349L32.5836 18.5949V19.3061C32.5836 19.8569 32.5686 20.0322 32.5135 20.0773C32.4685 20.1173 32.2531 20.1323 31.8775 20.1223L31.3117 20.1073L31.3016 19.882C31.2916 19.7568 31.3117 19.4763 31.3417 19.256C31.3717 19.0356 31.4018 18.7702 31.4018 18.6651C31.4018 18.4497 31.3667 18.4547 32.0829 18.5349ZM34.4065 18.8654C34.4566 19.0807 34.5016 19.3812 34.5066 19.5314C34.5117 19.8068 34.5167 19.8068 34.6819 19.8219C34.8221 19.8369 34.8422 19.8519 34.8171 19.9471C34.8021 20.0071 34.7871 20.0873 34.7871 20.1173C34.7871 20.1624 34.6819 20.1824 34.4215 20.1824C34.2162 20.1824 34.0409 20.1724 34.0309 20.1624C33.9958 20.1273 34.111 18.7101 34.1611 18.5399C34.1761 18.5098 34.2112 18.4798 34.2462 18.4798C34.2863 18.4798 34.3464 18.63 34.4065 18.8654ZM33.6253 18.5849C33.5201 18.645 33.5051 18.8804 33.5952 18.9705C33.6303 19.0056 33.7004 19.0306 33.7505 19.0306C33.8456 19.0306 33.8456 19.0557 33.8156 19.5665C33.7955 19.8619 33.7705 20.1223 33.7555 20.1374C33.7455 20.1574 33.5852 20.1674 33.3999 20.1624C32.9642 20.1574 32.9342 20.1073 32.9342 19.3561C32.9342 18.62 32.9442 18.5899 33.2046 18.5649C33.6453 18.5248 33.7154 18.5298 33.6253 18.5849ZM27.701 19.7117C27.676 19.9721 27.6459 20.0823 27.5908 20.1023C27.5207 20.1323 27.5157 20.0823 27.5408 19.6766C27.5608 19.4212 27.5758 19.1358 27.5808 19.0356C27.5808 18.8554 27.5808 18.8554 27.661 19.1057C27.716 19.286 27.7261 19.4513 27.701 19.7117ZM28.2268 19.9871C28.2268 20.1524 28.2118 20.1874 28.1417 20.1724C28.0315 20.1524 27.9915 19.887 28.0866 19.8269C28.2018 19.7518 28.2268 19.7768 28.2268 19.9871ZM27.9113 20.1424C27.8963 20.1824 27.8813 20.1674 27.8813 20.1123C27.8763 20.0572 27.8913 20.0272 27.9063 20.0472C27.9214 20.0622 27.9264 20.1073 27.9113 20.1424Z"/>
</mask>
<path d="M33.3098 6.11047C33.2597 6.16555 33.1896 6.21062 33.1595 6.21062C33.1245 6.21062 33.0694 6.24568 33.0343 6.28574C32.9993 6.3258 32.8641 6.42095 32.7289 6.49106C32.4735 6.63128 32.3883 6.75146 32.4935 6.82158C32.5436 6.85162 32.5286 6.88668 32.4384 6.9618C32.2782 7.097 32.2531 7.08699 32.2181 6.89669C32.198 6.81156 32.173 6.68136 32.153 6.61626C32.1279 6.53112 32.1329 6.50608 32.173 6.53112C32.2581 6.5812 32.2481 6.5161 32.158 6.43097C32.0929 6.36086 32.0728 6.36086 32.0027 6.43097C31.9627 6.47604 31.9426 6.53613 31.9577 6.56117C31.9777 6.59122 31.9677 6.6463 31.9376 6.68136C31.8926 6.73143 31.8976 6.75647 31.9577 6.78151C32.0328 6.80655 32.0628 7.03691 31.9977 7.07697C31.9026 7.13206 31.7323 7.01187 31.7323 6.89169C31.7323 6.81657 31.6772 6.72643 31.5971 6.66133C31.4519 6.55116 30.6406 6.06039 30.6005 6.06039C30.5655 6.06039 30.6406 6.33081 30.6957 6.39591C30.7207 6.43097 30.7257 6.46101 30.7007 6.46101C30.6807 6.46101 30.6857 6.48605 30.7207 6.52111C30.7558 6.55616 30.7808 6.62126 30.7808 6.67134C30.7808 6.72142 30.8059 6.76148 30.8309 6.76148C30.861 6.76148 30.881 6.78652 30.881 6.81156C30.881 6.89169 31.1414 7.16211 31.2866 7.24223C31.3667 7.2823 31.4318 7.36743 31.4469 7.46258C31.4719 7.58276 31.512 7.62283 31.6422 7.64787C31.7323 7.6679 31.8225 7.67791 31.8475 7.6729C31.8675 7.6679 31.8825 7.70796 31.8825 7.76305C31.8825 7.81813 31.8625 7.8632 31.8325 7.8632C31.8074 7.8632 31.7824 7.90827 31.7824 7.95835C31.7824 8.01344 31.7423 8.08855 31.6872 8.12361C31.522 8.23879 31.3818 8.52924 31.3818 8.75459C31.3818 9.15522 31.6522 9.49074 32.0478 9.58589C32.158 9.61093 32.178 9.63597 32.1379 9.68605C32.1029 9.72611 32.1029 9.80623 32.1279 9.89637C32.148 9.9765 32.173 10.2319 32.178 10.4623C32.183 10.6976 32.198 10.9029 32.2081 10.918C32.2181 10.938 32.143 11.0382 32.0328 11.1433C31.8475 11.3236 31.8325 11.3286 31.6872 11.2685C31.557 11.2134 31.512 11.2184 31.4068 11.2885C31.3367 11.3386 31.2516 11.4338 31.2265 11.5089C31.1614 11.6691 31.1965 12.8009 31.2966 13.8225C31.3467 14.3032 31.3467 14.5136 31.3117 14.5586C31.2215 14.6538 30.5805 14.9893 30.5455 14.9543C30.5304 14.9392 30.5455 14.8291 30.5805 14.7039C30.6156 14.5787 30.6206 14.4535 30.6005 14.4134C30.5755 14.3784 30.5655 14.2832 30.5755 14.2081C30.5955 14.0128 30.4653 13.8375 30.275 13.7975C30.1498 13.7674 30.0948 13.7824 30.0497 13.8475C29.9946 13.9227 29.9696 13.9277 29.9045 13.8726C29.8394 13.8175 29.8293 13.8325 29.8293 13.9777C29.8343 14.2031 29.7392 15.0144 29.6891 15.1996C29.6441 15.3599 29.5088 15.41 28.7527 15.5502C28.5624 15.5853 28.4622 15.6153 28.5423 15.6203C28.6174 15.6253 28.8929 15.5802 29.1583 15.5201C29.4237 15.4651 29.6491 15.43 29.6591 15.44C29.6741 15.455 29.6691 15.5201 29.6491 15.5903C29.619 15.7205 29.604 15.7205 29.1633 15.7405L28.7026 15.7555L29.1683 15.7655C29.4187 15.7705 29.629 15.7906 29.629 15.8056C29.629 15.8256 29.5389 15.9759 29.4237 16.1461L29.2184 16.4516L29.2384 16.9624C29.2534 17.4582 29.2534 17.4682 29.1533 17.4181C28.8228 17.2428 28.7927 17.1978 28.7677 16.8172C28.7276 16.1712 28.5323 15.9608 27.9314 15.9108C27.5858 15.8807 27.3755 15.8156 27.3755 15.7305C27.3755 15.7054 27.4707 15.6954 27.5908 15.7104C27.706 15.7205 27.9364 15.7104 28.1016 15.6804C28.3821 15.6353 28.3721 15.6353 27.9514 15.6554C27.6159 15.6754 27.4757 15.6654 27.4106 15.6153C27.3555 15.5752 27.2553 15.3549 27.1752 15.1195C26.9548 14.4385 26.7896 14.138 26.5092 13.9176C26.2237 13.6873 26.1486 13.6823 25.9232 13.8475C25.8281 13.9176 25.6829 13.9727 25.6027 13.9727C25.4525 13.9727 25.4525 13.9727 25.5627 14.0529C25.6779 14.133 25.7129 14.3433 25.6228 14.3984C25.5577 14.4385 25.5577 14.6388 25.6228 14.7039C25.6779 14.759 25.7029 15.2347 25.6528 15.3148C25.6328 15.3449 25.6528 15.45 25.6929 15.5502C25.753 15.6954 25.793 15.7255 25.9182 15.7255C25.9984 15.7255 26.0985 15.7405 26.1436 15.7555C26.2538 15.7956 26.2437 15.9859 26.1286 16.1311C25.9383 16.3765 25.9032 16.5768 25.9933 16.9173C26.1135 17.3931 26.1035 17.5333 25.9182 17.6785L25.768 17.8087L25.8281 18.5549C25.8882 19.3511 25.9433 19.5014 26.1436 19.4713C26.2788 19.4513 26.3088 19.2159 26.1987 19.0457C26.0985 18.9004 26.0484 18.4647 26.0935 18.2093C26.1436 17.9439 26.2988 17.8187 26.5743 17.8288C26.9048 17.8388 26.9198 17.8388 26.8897 17.7336C26.8447 17.5583 27.04 17.6685 27.1652 17.8838C27.2703 18.0641 27.2804 18.1442 27.2904 18.9805C27.2954 19.6015 27.2854 19.897 27.2453 19.922C27.2153 19.942 27.1752 20.0071 27.1552 20.0672L27.1201 20.1824H25.8932C24.7063 20.1824 24.6713 20.1874 24.6713 20.2826C24.6713 20.3727 24.6362 20.3827 24.2957 20.3827H23.9201V20.6331V20.8835H23.6747H23.4243L23.4093 21.1439L23.3943 21.4093L13.0882 21.4244C7.42433 21.4294 2.78709 21.4444 2.78709 21.4594C2.78709 21.4744 3.04749 21.815 3.36299 22.2206L3.93889 22.9618V24.2988V25.6409H3.68849H3.4381V25.8913V26.1417H2.38646H1.33482L0.834034 26.3921C0.558604 26.5323 0.333252 26.6525 0.333252 26.6675C0.333252 26.6826 0.558604 26.8028 0.834034 26.943L1.33482 27.1934V27.4588V27.7192L2.38646 28.5104L3.4381 29.2966V30.8741V32.4516H2.91228H2.38646L2.91228 33.2378L3.4381 34.029V45.8324V57.6409H5.54139H7.64468V56.8496V56.0584L7.36925 55.788L7.09382 55.5176V44.245V32.9724L7.35923 32.712L7.62464 32.4516H10.0034H12.3821L12.6425 32.717L12.9029 32.9824V44.245V55.5075L12.6275 55.788L12.347 56.0734L12.3821 56.8546L12.4171 57.6409H14.7658H17.1095V56.8496V56.0584L16.834 55.788L16.5586 55.5176V44.245V32.9724L16.824 32.712L17.0894 32.4516H19.994H22.8985L23.1589 32.717L23.4193 32.9824V44.25V55.5176L23.1439 55.788L22.8685 56.0584V56.8496V57.6409H25.2472H27.6259V56.8546V56.0684L27.3505 55.803L27.075 55.5376V44.255V32.9724L27.3405 32.712L27.6059 32.4516H32.3383H37.0707L37.3311 32.717L37.5915 32.9824V44.24V55.5025L37.316 55.793L37.0406 56.0834V56.8597V57.6409H39.4193H41.798V56.8496V56.0584L41.5226 55.788L41.2472 55.5176V44.245V32.9724L41.5126 32.712L41.778 32.4516H44.6825H47.5871L47.8475 32.717L48.1079 32.9824V44.25V55.5176L47.8325 55.788L47.557 56.0584V56.8496V57.6409H49.9358H52.3145V56.8496V56.0584L52.039 55.788L51.7636 55.5176V44.245V32.9724L52.029 32.712L52.2944 32.4516H54.6732H57.0519L57.3123 32.717L57.5727 32.9824V44.25V55.5176L57.2973 55.788L57.0218 56.0584V56.8496V57.6409H59.1251H61.2284V45.8324V34.029L61.7542 33.2378L62.28 32.4516H61.7542H61.2284V30.8741V29.2966L62.28 28.5104L63.3317 27.7192V27.4588V27.1934L63.8325 26.943C64.1079 26.8028 64.3333 26.6826 64.3333 26.6675C64.3333 26.6525 64.1079 26.5323 63.8325 26.3921L63.3317 26.1417H62.28H61.2284V25.8963V25.6459L60.973 25.6309L60.7226 25.6159L60.7276 24.2888L60.7326 22.9618L61.2985 22.2106L61.8694 21.4594L51.5683 21.4344L41.2722 21.4093L41.2572 21.1439L41.2422 20.8835H40.9918H40.7464V20.6331V20.3827H40.2456C39.7799 20.3827 39.7448 20.3777 39.7448 20.2826C39.7448 20.1874 39.7098 20.1824 38.8334 20.1824L37.917 20.1774L37.8068 20.0071C37.7016 19.8419 37.6966 19.8068 37.7417 19.276C37.7768 18.8453 37.8068 18.6901 37.8819 18.61C38.0121 18.4647 38.1924 18.1392 38.1924 18.0541C38.1924 17.979 38.3827 17.7787 38.4528 17.7787C38.4779 17.7787 38.4728 17.8237 38.4428 17.8838C38.3727 18.009 38.4128 18.0641 38.5129 17.984C38.568 17.9389 38.6231 17.9389 38.7633 17.999C38.9336 18.0691 38.9436 18.0892 38.9436 18.2895C38.9386 18.4097 38.9085 18.5599 38.8685 18.63C38.8284 18.7001 38.7984 18.8153 38.7933 18.8854C38.7933 18.9555 38.7483 19.0557 38.6932 19.1057C38.5379 19.246 38.573 19.5014 38.7483 19.5214C38.9035 19.5414 38.9937 19.4463 38.9987 19.251C39.0037 19.1708 39.0237 19.0607 39.0437 19.0056C39.0638 18.9505 39.1088 18.7602 39.1389 18.5799C39.1689 18.3996 39.209 18.1943 39.224 18.1192C39.2441 18.0341 39.214 17.8838 39.1439 17.7136C39.0337 17.4532 39.0337 17.4331 39.1088 17.1076C39.189 16.7621 39.1739 16.6319 39.0337 16.3464C38.8685 16.0259 38.8785 15.8857 39.0838 15.5802C39.2491 15.3399 39.2791 15.2547 39.2891 15.0043C39.2941 14.8441 39.3292 14.6488 39.3743 14.5637C39.4293 14.4535 39.4343 14.3984 39.3943 14.3483C39.3292 14.2682 39.3743 14.0529 39.4744 13.9677C39.5145 13.9377 39.5445 13.8676 39.5445 13.8125C39.5445 13.7274 39.5345 13.7223 39.4394 13.7925C39.3492 13.8576 39.3242 13.8525 39.2441 13.7824C39.189 13.7424 39.1589 13.6823 39.1739 13.6623C39.219 13.5921 38.8434 13.6723 38.6381 13.7774C38.543 13.8225 38.4378 13.9227 38.4027 13.9928C38.3727 14.0629 38.3226 14.123 38.2926 14.123C38.1824 14.123 37.937 14.774 37.8619 15.2648C37.8168 15.5652 37.7617 15.7705 37.7167 15.8056C37.6766 15.8356 37.6566 15.8707 37.6716 15.8857C37.6866 15.9007 37.4663 15.9108 37.1808 15.9007C36.7401 15.8907 36.7201 15.8907 37.0406 15.9208L37.4162 15.9508L37.1207 16.0209C36.8403 16.091 36.8102 16.091 36.4948 15.9809C36.3145 15.9158 35.8988 15.7505 35.5733 15.6053C35.0575 15.3799 34.9874 15.3399 35.0124 15.2497C35.1126 14.9192 35.1276 14.804 35.0725 14.7189C35.0325 14.6538 35.0325 14.5536 35.0775 14.3283C35.1326 14.0679 35.1326 14.0028 35.0625 13.8726C35.0174 13.7824 34.9974 13.6723 35.0124 13.6172C35.0425 13.527 35.0325 13.517 34.9423 13.5471C34.8872 13.5621 34.8021 13.5571 34.752 13.527C34.6919 13.497 34.6268 13.497 34.5667 13.532C34.5217 13.5571 34.4666 13.5671 34.4466 13.5521C34.4315 13.532 34.3865 13.1765 34.3514 12.7558C34.3164 12.3402 34.2613 11.8895 34.2312 11.7593C34.1311 11.3286 33.9057 11.1633 33.6503 11.3436C33.5652 11.4037 33.5502 11.4538 33.5702 11.6141C33.5902 11.7693 33.5752 11.8294 33.4901 11.9145C33.3549 12.0497 33.2897 12.0497 33.1195 11.8945C32.9542 11.7342 32.9492 11.6491 33.1095 11.3486C33.2647 11.0582 33.2647 10.9981 33.1245 10.8679C32.9943 10.7477 32.7539 10.7377 32.5135 10.8378L32.3433 10.908L32.3182 10.6275C32.2732 10.0967 32.2782 9.90639 32.3433 9.82626C32.3933 9.76617 32.3933 9.74614 32.3483 9.73112C32.2331 9.69105 32.2782 9.62595 32.4585 9.56586C32.6738 9.49575 32.9142 9.22533 32.9793 8.97994C33.0644 8.66946 32.9092 8.23378 32.6788 8.10859C32.6287 8.08355 32.5887 8.03347 32.5987 8.00342C32.6037 7.97337 32.5636 7.92329 32.5085 7.89325C32.3733 7.81813 32.3933 7.56273 32.5336 7.56273C32.7088 7.56273 32.8841 7.44755 32.9192 7.31735C32.9342 7.24724 32.9993 7.13707 33.0644 7.07197C33.1746 6.9618 33.3098 6.66133 33.2497 6.66133C33.2347 6.66133 33.2497 6.62627 33.2847 6.58621C33.3198 6.54615 33.3348 6.51109 33.3148 6.51109C33.2998 6.51109 33.3098 6.451 33.3398 6.37087C33.3899 6.24568 33.435 6.01031 33.4099 6.01031C33.4049 6.01031 33.3599 6.05538 33.3098 6.11047ZM31.9827 7.93331C31.9827 7.94333 31.9477 7.96336 31.9076 7.98339C31.8675 7.99841 31.8325 7.9884 31.8325 7.96336C31.8325 7.93331 31.8675 7.91328 31.9076 7.91328C31.9477 7.91328 31.9827 7.92329 31.9827 7.93331ZM32.5586 7.96336C32.5736 7.9884 32.5536 8.01344 32.5135 8.01344C32.4685 8.01344 32.4334 7.9884 32.4334 7.96336C32.4334 7.93331 32.4534 7.91328 32.4785 7.91328C32.5085 7.91328 32.5436 7.93331 32.5586 7.96336ZM32.1329 8.21375C32.1329 8.23879 32.0879 8.26382 32.0328 8.26382C31.9126 8.26382 31.9126 8.26382 32.0077 8.44411C32.0829 8.58933 32.1029 8.71453 32.0578 8.71453C32.0428 8.71453 31.9527 8.67947 31.8575 8.64442L31.6822 8.5693V8.78965V9.00999L31.8575 8.93487C31.9527 8.89982 32.0428 8.86477 32.0578 8.86477C32.1079 8.86477 32.0779 9.09011 32.0128 9.21531L31.9426 9.3355L31.7874 9.17024C31.522 8.8898 31.5921 8.41907 31.9276 8.23879C32.0829 8.15366 32.1329 8.14865 32.1329 8.21375ZM32.6538 8.41907C32.8791 8.68448 32.794 9.13018 32.4835 9.29043C32.3132 9.38057 32.2832 9.38057 32.2832 9.31547C32.2832 9.28542 32.3182 9.26539 32.3633 9.26539C32.4034 9.26539 32.4234 9.24035 32.4084 9.21531C32.3883 9.18526 32.3533 9.09512 32.3333 9.00999C32.2832 8.83973 32.2631 8.84473 32.6237 8.94489C32.7239 8.97494 32.7339 8.95991 32.7339 8.76962C32.7339 8.53926 32.7339 8.53926 32.4985 8.62439C32.2932 8.6995 32.2581 8.66445 32.3333 8.44411C32.4034 8.22376 32.4835 8.21876 32.6538 8.41907ZM32.1329 9.31547C32.1329 9.34051 32.1079 9.36554 32.0779 9.36554C32.0528 9.36554 32.0428 9.34051 32.0578 9.31547C32.0728 9.28542 32.0979 9.26539 32.1129 9.26539C32.1229 9.26539 32.1329 9.28542 32.1329 9.31547ZM32.2331 11.6191C32.2331 11.7993 32.2231 11.8194 32.1079 11.8194C31.9426 11.8194 31.8976 11.7042 32.0027 11.5439C32.1329 11.3486 32.2331 11.3837 32.2331 11.6191ZM32.4334 11.6241C32.4334 11.6741 32.4134 11.7192 32.3833 11.7192C32.3583 11.7192 32.3333 11.6591 32.3333 11.589C32.3333 11.5189 32.3533 11.4738 32.3833 11.4939C32.4134 11.5089 32.4334 11.569 32.4334 11.6241ZM33.6854 14.0328C33.6854 14.0428 33.7304 14.168 33.7855 14.3083C33.8907 14.5837 33.8556 14.6438 33.6854 14.4735C33.5802 14.3684 33.5401 14.0228 33.6353 14.0228C33.6653 14.0228 33.6854 14.0278 33.6854 14.0328ZM31.9527 14.3483C31.9326 14.3884 31.9126 14.4234 31.9026 14.4234C31.8926 14.4234 31.8825 14.3884 31.8825 14.3483C31.8825 14.3083 31.9026 14.2732 31.9326 14.2732C31.9577 14.2732 31.9677 14.3083 31.9527 14.3483ZM31.1714 14.8241C31.0713 14.9092 30.886 15.0895 30.7658 15.2297L30.5405 15.4851L30.5204 15.2798L30.5054 15.0795L30.881 14.8842C31.3467 14.6438 31.4068 14.6288 31.1714 14.8241ZM26.2538 15.4701C26.2487 15.5853 26.2287 15.6754 26.2037 15.6754C26.1786 15.6754 26.1586 15.5953 26.1636 15.5001C26.1686 15.2297 26.1686 15.2147 26.2137 15.2447C26.2387 15.2597 26.2538 15.3599 26.2538 15.4701ZM35.8888 15.8156C35.9239 15.8707 36.6951 16.1261 36.8153 16.1261C36.9104 16.1261 36.9104 16.1261 36.8102 16.1962C36.7251 16.2563 36.64 16.4766 36.5148 16.9524C36.4998 17.0175 35.7386 17.4982 35.7085 17.4632C35.6935 17.4482 35.6685 17.1126 35.6534 16.712L35.6234 15.9859L35.4932 15.9608C35.4231 15.9458 35.348 15.9608 35.3279 15.9909C35.3079 16.0209 35.2578 15.9608 35.2027 15.8457C35.1527 15.7405 35.1026 15.6403 35.0876 15.6253C35.0725 15.6103 35.0575 15.5602 35.0475 15.5151C35.0375 15.45 35.1076 15.4651 35.4481 15.6053C35.6735 15.7054 35.8738 15.7956 35.8888 15.8156ZM38.9937 15.5953C38.9937 15.6103 38.9736 15.6353 38.9436 15.6504C38.9185 15.6654 38.8935 15.6554 38.8935 15.6303C38.8935 15.6003 38.9185 15.5752 38.9436 15.5752C38.9736 15.5752 38.9937 15.5853 38.9937 15.5953ZM36.4747 17.358C36.4597 17.4582 36.4347 17.5483 36.4246 17.5633C36.4096 17.5734 36.2694 17.5784 36.1092 17.5683L35.8137 17.5533L36.1142 17.368C36.2794 17.2679 36.4347 17.1827 36.4597 17.1827C36.4847 17.1777 36.4897 17.2579 36.4747 17.358ZM29.003 17.5683C28.8428 17.5784 28.7026 17.5734 28.6926 17.5583C28.6775 17.5433 28.6775 17.4782 28.6976 17.4081L28.7276 17.2779L29.0081 17.4181L29.2885 17.5533L29.003 17.5683ZM28.8178 18.9154L28.8027 20.1574H28.5774H28.352L28.337 19.912C28.327 19.7417 28.347 19.6466 28.4021 19.5815C28.4472 19.5314 28.4772 19.4763 28.4672 19.4513C28.4622 19.4262 28.4822 19.3561 28.5173 19.296C28.5624 19.2159 28.5674 19.0757 28.5373 18.7702C28.4572 18.0291 28.5223 17.6785 28.7326 17.6785C28.8278 17.6785 28.8278 17.7136 28.8178 18.9154ZM29.4538 18.1092C29.4988 18.3095 29.5289 18.5148 29.5088 18.5549C29.4938 18.5949 29.5038 18.6951 29.5339 18.7702C29.614 18.9705 29.6841 19.7217 29.6491 19.9671L29.619 20.1824H29.2434H28.8728L28.8829 18.9655C28.8879 18.2995 28.8979 17.7436 28.9029 17.7286C28.9129 17.7136 29.0181 17.7086 29.1433 17.7186L29.3636 17.7386L29.4538 18.1092ZM36.2994 18.4798C36.3045 18.9205 36.3145 19.4763 36.3145 19.7117V20.1424L36.014 20.1474H35.7135L35.6985 19.261C35.6885 18.6851 35.7035 18.3796 35.7386 18.3796C35.7636 18.3796 35.7887 18.3446 35.7887 18.3045C35.7887 18.2644 35.8237 18.2294 35.8638 18.2294C35.9038 18.2294 35.9389 18.1843 35.9389 18.1292C35.9389 18.0741 35.9088 18.0291 35.8788 18.0291C35.8187 18.0291 35.6885 17.8137 35.6885 17.7186C35.6885 17.6985 35.8237 17.6785 35.989 17.6785H36.2894L36.2994 18.4798ZM36.5448 18.3796C36.5498 18.5849 36.5498 18.8003 36.5448 18.8554C36.5248 19.4162 36.5398 19.5464 36.64 19.6165C36.7001 19.6616 36.7401 19.7417 36.7401 19.8319C36.7401 20.0021 36.9254 20.1524 37.0656 20.1023C37.1408 20.0723 37.1458 20.0272 37.1207 19.8018C37.1007 19.6466 37.1107 19.5264 37.1408 19.5064C37.2109 19.4663 37.2059 19.1508 37.1358 19.0156C37.0606 18.8854 37.2259 17.979 37.3311 17.9439C37.4262 17.9039 37.4412 17.9339 37.4763 18.2194C37.4963 18.3996 37.4863 18.5048 37.4362 18.5599C37.3761 18.63 37.291 19.3762 37.276 19.9671L37.271 20.1824H36.8303H36.3896V18.9154C36.3946 17.7436 36.3996 17.6685 36.4697 17.8288C36.5148 17.9289 36.5448 18.1593 36.5448 18.3796ZM27.9063 17.989C27.8112 18.1242 27.8012 18.0841 27.8863 17.8989C27.9214 17.8288 27.9564 17.7937 27.9664 17.8237C27.9764 17.8538 27.9464 17.9289 27.9063 17.989ZM30.3401 18.8353C30.3802 19.261 30.5004 19.6816 30.5855 19.6816C30.6106 19.6816 30.6306 19.7918 30.6306 19.932V20.1824H30.4102C30.2149 20.1824 30.1849 20.1674 30.1448 20.0422C30.1148 19.9571 30.1148 19.7167 30.1398 19.4062C30.1649 19.1308 30.1849 18.7852 30.1849 18.64C30.1799 18.4397 30.1949 18.3746 30.24 18.3896C30.28 18.4046 30.3201 18.5649 30.3401 18.8353ZM31.0663 19.0156C31.0963 19.3411 31.1063 19.7317 31.0863 19.882C31.0563 20.1474 31.0513 20.1574 30.896 20.1724L30.7307 20.1874V19.942C30.7307 19.7918 30.7558 19.6716 30.8009 19.6366C30.911 19.5464 30.9261 19.3461 30.8509 18.9856C30.7508 18.5098 30.7558 18.4297 30.896 18.4297C31.0062 18.4297 31.0112 18.4547 31.0663 19.0156ZM35.3079 18.5148C35.3179 18.5649 35.348 18.9605 35.368 19.3962L35.398 20.1824L35.2829 20.1674C35.2178 20.1574 35.1627 20.1173 35.1627 20.0773C35.1627 20.0372 35.1426 19.9821 35.1226 19.9471C35.0826 19.882 35.0826 19.0907 35.1226 18.6901C35.1477 18.4297 35.2528 18.3295 35.3079 18.5148ZM32.0829 18.5349L32.5836 18.5949V19.3061C32.5836 19.8569 32.5686 20.0322 32.5135 20.0773C32.4685 20.1173 32.2531 20.1323 31.8775 20.1223L31.3117 20.1073L31.3016 19.882C31.2916 19.7568 31.3117 19.4763 31.3417 19.256C31.3717 19.0356 31.4018 18.7702 31.4018 18.6651C31.4018 18.4497 31.3667 18.4547 32.0829 18.5349ZM34.4065 18.8654C34.4566 19.0807 34.5016 19.3812 34.5066 19.5314C34.5117 19.8068 34.5167 19.8068 34.6819 19.8219C34.8221 19.8369 34.8422 19.8519 34.8171 19.9471C34.8021 20.0071 34.7871 20.0873 34.7871 20.1173C34.7871 20.1624 34.6819 20.1824 34.4215 20.1824C34.2162 20.1824 34.0409 20.1724 34.0309 20.1624C33.9958 20.1273 34.111 18.7101 34.1611 18.5399C34.1761 18.5098 34.2112 18.4798 34.2462 18.4798C34.2863 18.4798 34.3464 18.63 34.4065 18.8654ZM33.6253 18.5849C33.5201 18.645 33.5051 18.8804 33.5952 18.9705C33.6303 19.0056 33.7004 19.0306 33.7505 19.0306C33.8456 19.0306 33.8456 19.0557 33.8156 19.5665C33.7955 19.8619 33.7705 20.1223 33.7555 20.1374C33.7455 20.1574 33.5852 20.1674 33.3999 20.1624C32.9642 20.1574 32.9342 20.1073 32.9342 19.3561C32.9342 18.62 32.9442 18.5899 33.2046 18.5649C33.6453 18.5248 33.7154 18.5298 33.6253 18.5849ZM27.701 19.7117C27.676 19.9721 27.6459 20.0823 27.5908 20.1023C27.5207 20.1323 27.5157 20.0823 27.5408 19.6766C27.5608 19.4212 27.5758 19.1358 27.5808 19.0356C27.5808 18.8554 27.5808 18.8554 27.661 19.1057C27.716 19.286 27.7261 19.4513 27.701 19.7117ZM28.2268 19.9871C28.2268 20.1524 28.2118 20.1874 28.1417 20.1724C28.0315 20.1524 27.9915 19.887 28.0866 19.8269C28.2018 19.7518 28.2268 19.7768 28.2268 19.9871ZM27.9113 20.1424C27.8963 20.1824 27.8813 20.1674 27.8813 20.1123C27.8763 20.0572 27.8913 20.0272 27.9063 20.0472C27.9214 20.0622 27.9264 20.1073 27.9113 20.1424Z" stroke="#85ACB0" stroke-width="3" stroke-linejoin="bevel" mask="url(#path-1-inside-1_662_1416)"/>
<path d="M35.3628 15.7509C35.4728 15.7909 35.6178 15.8159 35.6878 15.8159C35.7578 15.8159 35.6878 15.7859 35.5378 15.7509C35.1928 15.6609 35.0978 15.6659 35.3628 15.7509Z" fill="#85ACB0"/>
<path d="M28.2168 15.7608C28.3068 15.7708 28.4418 15.7708 28.5168 15.7608C28.5918 15.7508 28.5168 15.7408 28.3518 15.7408C28.1868 15.7408 28.1268 15.7508 28.2168 15.7608Z" fill="#85ACB0"/>
</g>
</g>
<defs>
<clipPath id="clip0_662_1416">
<rect width="64" height="64" fill="white" transform="translate(0 0.000976562)"/>
</clipPath>
<clipPath id="clip1_662_1416">
<rect width="64" height="51.6" fill="white" transform="translate(0.333252 6.00098)"/>
</clipPath>
</defs>
</svg>
