<svg width="64" height="64" viewBox="0 0 64 64" fill="none" xmlns="http://www.w3.org/2000/svg">
<g clip-path="url(#clip0_1506_10281)">
<path d="M63.9699 50.31C63.8699 50.05 63.5699 49.93 63.3199 50.04C59.6999 51.53 55.7399 52.45 51.6999 52.81L63.5499 38H54.7499L47.7499 29H45.7599L42.7599 25H33.7699L31.7299 22H29.9999V18.16L18.9999 13.76V22H17.2099L12.2499 29H10.2399L4.23994 38H0.779938L4.74994 48.54C3.22994 48.96 1.73994 49.45 0.309938 50.03C0.0499377 50.13 -0.0700624 50.43 0.0399376 50.68C0.149938 50.94 0.439938 51.06 0.689938 50.95C10.2899 47.02 22.2099 47.02 31.8099 50.95C36.7299 52.96 42.2399 53.97 47.7499 53.97C48.6699 53.97 49.5899 53.93 50.5099 53.87C50.5299 53.87 50.5499 53.89 50.5699 53.89C50.6299 53.89 50.6799 53.87 50.7299 53.85C55.2299 53.55 59.6599 52.59 63.6899 50.94C63.9499 50.84 64.0699 50.54 63.9599 50.29L63.9699 50.31ZM19.9999 15.24L28.9999 18.84V22H19.9999V15.24ZM10.7699 30H19.9999V29H13.4699L17.7299 23H31.2099L33.2499 26H42.2599L44.5099 29H35.0099V30H47.2699L50.3799 34H42.0099V35H51.1499L53.4799 38H5.43994L10.7699 30ZM50.3399 52.9C44.1099 53.27 37.7599 52.32 32.1899 50.04C24.0899 46.72 14.3899 46.14 5.71994 48.29L4.10994 44H9.99994V43H3.72994L2.21994 39H61.4599L50.3399 52.9ZM58.9899 57.03C59.0599 57.3 58.8999 57.57 58.6299 57.64C55.0999 58.55 51.4199 59 47.7499 59C42.2299 59 36.7299 57.98 31.8099 55.96C23.8199 52.69 14.2799 52.09 5.61994 54.33C5.34994 54.4 5.07994 54.24 5.00994 53.97C4.93994 53.7 5.09994 53.43 5.36994 53.36C14.2299 51.07 23.9999 51.68 32.1799 55.04C40.1699 58.31 49.7099 58.91 58.3699 56.67C58.6399 56.6 58.9099 56.76 58.9799 57.03H58.9899ZM53.9999 63.06C54.0399 63.33 53.8399 63.59 53.5699 63.62C51.6499 63.87 49.6999 64 47.7699 64C42.2099 64 36.6999 62.96 31.8199 60.96C25.3999 58.33 17.8499 57.41 10.5699 58.37C10.2999 58.41 10.0399 58.21 10.0099 57.94C9.96994 57.67 10.1699 57.41 10.4399 57.38C17.8799 56.4 25.6099 57.34 32.1899 60.04C38.6099 62.67 46.1499 63.6 53.4399 62.63C53.7099 62.59 53.9699 62.79 53.9999 63.06ZM32.9999 30H21.9999V29H32.9999V30ZM10.9999 34H39.9999V35H10.9999V34ZM10.9999 43H13.9999V44H10.9999V43ZM12.9999 43H13.9999V44H12.9999V43ZM54.9999 43V44H47.9999V43H54.9999ZM43.9299 45.76C43.8999 45.81 43.1599 47 41.4999 47C39.8399 47 39.0999 45.81 39.0699 45.76C38.9299 45.52 38.9999 45.22 39.2399 45.07C39.4699 44.93 39.7799 45 39.9199 45.24C39.9399 45.28 40.2799 45.77 40.9899 45.94V41.5C40.9899 41.22 41.2099 41 41.4899 41C41.7699 41 41.9899 41.22 41.9899 41.5V45.94C42.7099 45.77 43.0499 45.27 43.0599 45.24C43.2099 45.01 43.5099 44.93 43.7499 45.08C43.9799 45.22 44.0599 45.53 43.9199 45.76H43.9299ZM51.0299 4.35C51.0499 4.3 51.4899 3 53.5099 3C54.5299 3 55.1499 3.33 55.5099 3.66C55.8699 3.33 56.4899 3 57.5099 3C59.5299 3 59.9699 4.29 59.9899 4.35C60.0699 4.61 59.9299 4.89 59.6699 4.98C59.6199 5 59.5699 5 59.5199 5C59.3099 5 59.1099 4.87 59.0399 4.65C59.0399 4.64 58.7699 4 57.5199 4C56.2699 4 55.9999 4.64 55.9899 4.67C55.9199 4.86 55.7299 5 55.5199 5C55.5199 5 55.5199 5 55.5099 5C55.2999 5 55.1099 4.86 55.0499 4.66C55.0499 4.65 54.7799 4.01 53.5299 4.01C52.2799 4.01 52.0099 4.65 51.9999 4.68C51.8999 4.93 51.6199 5.07 51.3599 4.98C51.1099 4.89 50.9699 4.62 51.0499 4.36L51.0299 4.35ZM59.5099 6.67C59.8699 6.34 60.4899 6.01 61.5099 6.01C63.5299 6.01 63.9699 7.3 63.9899 7.36C64.0699 7.62 63.9299 7.9 63.6699 7.99C63.6199 8.01 63.5699 8.01 63.5199 8.01C63.3099 8.01 63.1099 7.88 63.0399 7.66C63.0399 7.65 62.7699 7.01 61.5199 7.01C60.2699 7.01 59.9999 7.65 59.9899 7.68C59.9099 7.88 59.7199 8.06 59.5099 8.01C59.2999 8.01 59.1099 7.87 59.0499 7.67C59.0499 7.66 58.7799 7.02 57.5299 7.02C56.2799 7.02 56.0099 7.66 55.9999 7.69C55.8999 7.94 55.6199 8.08 55.3599 7.99C55.1099 7.9 54.9699 7.63 55.0499 7.37C55.0699 7.32 55.5099 6.02 57.5299 6.02C58.5499 6.02 59.1699 6.35 59.5299 6.68L59.5099 6.67ZM0.499938 8H21.4999C21.7799 8 21.9999 7.78 21.9999 7.5C21.9999 7.22 21.7799 7 21.4999 7H19.9299C19.6999 5.76 18.8999 4 16.9999 4C16.0399 4 15.3299 4.31 14.8599 4.63C14.5499 3.43 13.6199 2 11.4999 2C10.1899 2 9.30994 2.51 8.74994 3.1C8.27994 1.63 7.06994 0 4.49994 0C3.45994 0 2.56994 0.37 1.85994 1.11C-0.120062 3.15 -6.23601e-05 7.34 -6.23601e-05 7.52C-6.23601e-05 7.79 0.229938 8 0.499938 8ZM2.57994 1.8C3.09994 1.26 3.72994 1 4.49994 1C7.83994 1 7.99994 4.37 7.99994 4.52C7.99994 4.77 8.19994 4.97 8.44994 5C8.70994 5.01 8.92994 4.87 8.98994 4.62C8.98994 4.6 9.41994 3 11.4999 3C13.8299 3 13.9899 5.26 13.9999 5.52C13.9999 5.53 13.9999 5.54 13.9999 5.56C13.9699 5.75 14.0399 5.94 14.2099 6.06C14.4399 6.21 14.7499 6.15 14.8999 5.92C14.8999 5.92 15.5299 5 16.9899 5C18.2499 5 18.7299 6.25 18.8999 7H1.00994C1.03994 5.9 1.24994 3.18 2.57994 1.8Z" fill="#85ACB0"/>
</g>
<defs>
<clipPath id="clip0_1506_10281">
<rect width="64" height="64" fill="white"/>
</clipPath>
</defs>
</svg>
