<svg xmlns="http://www.w3.org/2000/svg" width="64" height="64" viewBox="0 0 64 64">
    <g fill="none" fill-rule="evenodd">
        <path d="M0 0H64V64H0z"/>
        <path fill="#85ACB0" fill-rule="nonzero" d="M37.965 1.838c.19 0 .377.056.535.162l1.055.703c.278.186.445.498.445.832V15h-.132c3.657 3.151 6.694 6.485 9.113 10H52v1c0 .829-.504 1.54-1.222 1.843 5.65 9.762 6.773 20.848 3.361 33.23l-.262.927H35v-1H11.133C9.955 61 9 60.105 9 59v-1c0-1.105.955-2 2.133-2h4.202C12.708 54.093 11 50.997 11 47.5c0-1.98.548-3.83 1.5-5.411V42h.054c1.848-3 5.164-5 8.946-5 .862 0 1.7.104 2.5.3V18.5c0-.552.448-1 1-1 .132 0 .263.026.385.077l10 4.167c.372.155.615.519.615.923V15c0-.552.448-1 1-1V2.803c0-.533.432-.965.965-.965zM49.713 28h-1.59c.201.352.397.706.588 1.061l.373.71.376.729h-8.584l-.037-.5H39v31h14.12l.055-.19c3.379-12.264 2.228-23.191-3.462-32.81zM38 30h-2v31h2V30zM25 18.5L24.999 56H25v4l1-.001V23h1v36.999h1V25h1v34.999h1V27h1v32.999L35 60l-.001-30H34.5c-.828 0-1.5-.672-1.5-1.5s.672-1.5 1.5-1.5h.499L35 22.667 25 18.5zM24 57H11.077c-.552 0-1.008.386-1.07.883L10 58v1c0 .513.416.936.951.993l.126.007H24v-3zm29.939-5.5l-.024.523c-.088 1.928-.294 3.884-.618 5.87l-.147.852L52.915 60h-9.88l-.622-8.5H53.94zm-1.064 1.236L44.94 59h7.144l.083-.435c.3-1.675.516-3.329.647-4.962l.058-.815.003-.052zm-1.314-.237h-8.073l.44 6.025 7.633-6.025zM24 53l-10.246.001c.538.757 1.184 1.43 1.916 2L24 55v-2zm0-3H12.333c.19.703.46 1.373.799 2H24v-2zm29.175-8.5l.075.41c.436 2.375.672 4.798.709 7.267l.005.825-.001.499L42.34 50.5l-.658-9h11.493zm-.794 1.254L44.369 49.5h8.591l-.002-.397c-.03-1.787-.168-3.549-.412-5.285l-.13-.866-.035-.198zm-1.25-.254l-8.374-.001.486 6.643L51.13 42.5zM24 46H12.118c-.078.489-.118.99-.118 1.5s.04 1.012.118 1.501L24 49v-3zm0-3H13.131c-.338.628-.608 1.298-.799 2H24v-2zm0-3h-8.332c-.731.57-1.377 1.244-1.915 2H24v-2zm25.931-8.5l.134.293c1.077 2.369 1.93 4.79 2.562 7.266l.202.827.143.614H41.608l-.658-9h8.981zm-.508 1.314l-6.27 6.686h8.551l-.046-.194c-.48-1.88-1.091-3.73-1.834-5.548l-.327-.777-.074-.167zM21.5 38c-1.526 0-2.969.36-4.247 1H24v-.667c-.796-.217-1.634-.333-2.5-.333zm26.846-5.5l-6.321-.001.457 6.255 5.864-6.254zm-7.241-12.573L41.622 27h.878c.828 0 1.5.672 1.5 1.5 0 .385-.145.736-.383 1.001l4.193-.002-.36-.658c-.158-.281-.318-.562-.483-.842L47 28c-1.105 0-2-.895-2-2v-1h.058c-.981-1.427-2.054-2.833-3.219-4.218l-.555-.651-.179-.204zM42.5 28h-8c-.276 0-.5.224-.5.5 0 .245.177.45.41.492l.09.008h8c.276 0 .5-.224.5-.5 0-.245-.177-.45-.41-.492L42.5 28zM39 15.574V27h1.62l-.724-9.898.973 1.06c2.036 2.222 3.835 4.5 5.397 6.838h1.495c-2.351-3.305-5.271-6.447-8.76-9.426zM38 26h-2v1h2v-1zm13 0h-5c0 .513.386.936.883.993L47 27h3c.513 0 .936-.386.993-.883L51 26zM38 15h-1v10h1V15zm0-12.131V14h1V3.535l-1-.666z"/>
    </g>
</svg>
