<svg width="45" height="64" viewBox="0 0 45 64" fill="none" xmlns="http://www.w3.org/2000/svg">
<path d="M22.7071 0L22.7074 3.08219C23.415 3.31957 24.0498 4.06739 24.6543 5.27639L25.0161 6H24.695L24.6752 6.88454L24.651 8.22572L24.6291 10.1802L24.624 11.4449L24.6264 12.6791L24.6365 13.8827L24.6541 15.0556C24.6577 15.2486 24.6616 15.4402 24.6658 15.6306L24.6948 16.7577L24.7314 17.8541L24.7756 18.9199L24.8273 19.955C24.8366 20.125 24.8462 20.2937 24.8561 20.4611L24.9192 21.4502L24.9898 22.4087L25.068 23.3365L25.1538 24.2336L25.2471 25.1L25.3479 25.9358L25.4563 26.7408C25.475 26.8724 25.494 27.0027 25.5134 27.1317L25.633 27.8907C25.6536 28.0146 25.6745 28.1372 25.6957 28.2586L25.8267 28.9714C25.8492 29.0876 25.8719 29.2026 25.895 29.3163L26.0373 29.9829L26.1871 30.6188C26.2126 30.7223 26.2385 30.8244 26.2648 30.9253L26.4258 31.515C26.4734 31.681 26.522 31.8432 26.5716 32.0015L29.0161 32L27.602 34.827L27.7842 35.3936L28.1153 36.3972L28.4425 37.36L28.7658 38.282L29.0851 39.1632L29.4005 40.0034C29.4527 40.1401 29.5048 40.275 29.5567 40.4083L29.8662 41.1872C29.9687 41.44 30.0705 41.686 30.1716 41.9252L30.4731 42.6223C30.523 42.7351 30.5727 42.8461 30.6223 42.9555L30.9177 43.5911C31.2111 44.2062 31.4985 44.7599 31.7796 45.2519L31.639 45H34.0161L32.738 47.555L32.8524 47.8506C34.7967 52.7618 38.1817 57.6851 43.0119 62.6179L43.535 63.1464L44.3886 64L34.5602 64.0004C33.6349 57.7644 28.4499 53 22.2071 53C15.9643 53 10.7793 57.7644 9.85399 64.0004L0 64L0.853553 63.1464C5.96327 58.0367 9.52242 52.9372 11.5361 47.8506L11.661 47.525L10.3981 45H12.913L12.9424 44.9493C13.1693 44.5359 13.4002 44.0832 13.6349 43.5911L13.9303 42.9555C13.9799 42.8461 14.0296 42.7351 14.0795 42.6223L14.381 41.9252C14.4821 41.686 14.584 41.44 14.6865 41.1872L14.9959 40.4083C15.0478 40.275 15.0999 40.1401 15.1521 40.0034L15.4675 39.1632L15.7869 38.282L16.1102 37.36L16.4374 36.3972L16.7684 35.3936L16.896 34.995L15.3981 32L18.0364 32.0015C18.0859 31.8432 18.1345 31.681 18.1821 31.515L18.3432 30.9253C18.3694 30.8244 18.3953 30.7223 18.4209 30.6188L18.5707 29.9829L18.7129 29.3163C18.736 29.2026 18.7588 29.0876 18.7812 28.9714L18.9122 28.2586C18.9334 28.1372 18.9543 28.0146 18.9749 27.8907L19.0946 27.1317C19.1139 27.0027 19.1329 26.8724 19.1516 26.7408L19.26 25.9358L19.3608 25.1L19.4541 24.2336L19.5399 23.3365L19.6181 22.4087L19.6888 21.4502L19.7519 20.4611C19.7618 20.2937 19.7713 20.125 19.7806 19.955L19.8323 18.9199L19.8765 17.8541L19.9131 16.7577L19.9421 15.6306C19.9463 15.4402 19.9502 15.2486 19.9538 15.0556L19.9714 13.8827L19.9815 12.6791L19.984 11.4449L19.9788 10.1802L19.9569 8.22572L19.9327 6.88454L19.911 6H19.3981L19.7599 5.27639C20.3646 4.06703 20.9996 3.31912 21.7075 3.08197L21.7071 0H22.7071ZM4.80817 60.3709C4.1041 61.1848 3.36177 61.9985 2.58119 62.812L2.39811 63L3.131 62.9994L5.85 62.1624L4.80817 60.3709ZM9.21758 62.1734L7.348 62.7484L7.494 62.9994L9.01763 63.0007C9.07635 62.7217 9.14308 62.4459 9.21758 62.1734ZM39.5804 60.3709L38.5386 62.1624L41.2576 62.9994L41.9904 63L41.8074 62.812C41.0268 61.9985 40.2845 61.1848 39.5804 60.3709ZM35.3966 63.0007L36.8946 62.9994L37.0406 62.7484L35.1988 62.1814C35.2724 62.4513 35.3384 62.7245 35.3966 63.0007ZM8.107 59.8344L5.78911 60.069L6.831 61.8604L8.94511 61.21L8.107 59.8344ZM36.2816 59.8344L35.4435 61.21L37.5576 61.8604L38.5994 60.069L36.2816 59.8344ZM10.1848 59.625L9.21 59.7234L9.74622 60.6043C9.88052 60.2711 10.0269 59.9445 10.1848 59.625ZM34.6574 60.5782L35.1786 59.7234L34.2309 59.6279C34.3841 59.9382 34.5265 60.2551 34.6574 60.5782ZM6.88401 57.8261C6.5707 58.2349 6.24775 58.6436 5.91516 59.0522L7.53 58.8884L6.88401 57.8261ZM37.5045 57.8261L36.8586 58.8884L38.4734 59.0522C38.1408 58.6436 37.8179 58.2349 37.5045 57.8261ZM9.386 56.9984L7.77311 57.367L8.633 58.7764L10.1891 58.62L9.386 56.9984ZM35.0026 56.9984L34.1994 58.62L35.7556 58.7764L36.6154 57.367L35.0026 56.9984ZM12.4785 56.2937L10.389 56.7694L11.053 58.111C11.4792 57.4642 11.9563 56.8563 12.4785 56.2937ZM33.3467 58.089L33.9996 56.7694L31.9423 56.3007C32.456 56.855 32.926 57.4531 33.3467 58.089ZM8.6103 55.429C8.41785 55.7146 8.22069 56.0001 8.01884 56.2857L8.93 56.0764L8.6103 55.429ZM35.7783 55.429L35.4586 56.0764L36.3697 56.2857C36.1679 56.0001 35.9707 55.7146 35.7783 55.429ZM12.16 54.2704L9.44011 54.853L9.932 55.8474L12.8441 55.183L12.16 54.2704ZM32.2286 54.2704L31.5444 55.183L34.4566 55.8474L34.9484 54.853L32.2286 54.2704ZM14.955 53.6714L13.237 54.0394L13.9189 54.9482C14.1828 54.7351 14.4545 54.5319 14.7335 54.3392L14.955 53.6714ZM29.4336 53.6714L29.6479 54.3167C29.9328 54.5122 30.2101 54.7186 30.4792 54.9353L31.1516 54.0394L29.4336 53.6714ZM33.794 52.1821L32.8896 53.3894L34.7214 53.7829C34.3959 53.2494 34.0867 52.7158 33.794 52.1821ZM10.5946 52.1821C10.3018 52.7158 9.99268 53.2494 9.66712 53.7829L11.499 53.3894L10.5946 52.1821ZM27.821 52H16.567L16.0566 53.5341C17.9011 52.5534 19.9918 52 22.2071 52C24.4105 52 26.4906 52.5474 28.3278 53.5182L27.821 52ZM15.512 52H11.708L12.576 53.1584L15.322 52.5704L15.512 52ZM32.68 52H28.875L29.0666 52.5704L31.8126 53.1584L32.68 52ZM32.6892 50.0007H11.6994C11.5446 50.334 11.3834 50.6672 11.2159 51.0003H33.1727C33.0051 50.6672 32.844 50.334 32.6892 50.0007ZM31.839 48H30.707V49L32.244 49.0009C32.1562 48.7945 32.0707 48.5882 31.9877 48.3818L31.839 48ZM25.707 48H24.707V49H25.707V48ZM23.707 48H22.707V49H23.707V48ZM13.707 48H12.548L12.4008 48.3818C12.3178 48.5882 12.2324 48.7945 12.1445 49.0009L13.707 49V48ZM29.707 48H28.707V49H29.707V48ZM27.707 48H26.707V49H27.707V48ZM15.707 48H14.707V49H15.707V48ZM17.707 48H16.707V49H17.707V48ZM19.707 48H18.707V49H19.707V48ZM21.707 48H20.707V49H21.707V48ZM32.3971 46H12.0161L12.5161 47H31.8971L32.3971 46ZM24.4884 39.1411L24.448 39H20.104L20.0643 39.1411L19.8584 39.7875L19.6903 40.2792L19.2512 41.5037L18.7783 42.7781L17.932 45H26.62L25.7744 42.7781L25.3014 41.5037L24.8623 40.2792L24.6942 39.7875L24.4884 39.1411ZM27.3491 44.1032L27.6895 45L29.5861 44.9992L27.3491 44.1032ZM17.2035 44.1032L14.9665 44.9992L16.8631 45L17.2035 44.1032ZM15.5419 41.7379C15.1853 42.6092 14.8358 43.4011 14.4933 44.1138L16.9921 43.111L15.5419 41.7379ZM29.0107 41.7379L27.5605 43.111L30.0594 44.1138C29.7168 43.4011 29.3673 42.6092 29.0107 41.7379ZM18.8935 39.5272L16.2351 41.017L17.8085 42.5082L18.5257 40.5699L18.8044 39.7888L18.8935 39.5272ZM25.6591 39.5272L25.7482 39.7888L26.0269 40.5699L26.7441 42.5082L28.3175 41.017L25.6591 39.5272ZM27.961 39H26.763L28.2719 39.8461C28.2068 39.672 28.1415 39.4954 28.076 39.3163L27.961 39ZM17.789 39H16.59L16.4766 39.3163C16.4111 39.4954 16.3458 39.672 16.2807 39.8461L17.789 39ZM27.6065 38L27.3332 37.2075C27.31 37.1393 27.2868 37.0709 27.2636 37.0021H17.289C17.2658 37.0709 17.2426 37.1393 17.2194 37.2075L16.9461 38H20.2071H20.207H27.6065ZM26.7073 35.3137L26.607 35H25.7071L25.707 36L26.9306 36.0012C26.8565 35.775 26.782 35.5459 26.7073 35.3137ZM20.7071 35H19.7071L19.707 36H20.707L20.7071 35ZM18.7071 35H17.945L17.8453 35.3137C17.7706 35.5459 17.6962 35.775 17.622 36.0012L18.707 36L18.7071 35ZM24.7071 35H23.7071L23.707 36H24.707L24.7071 35ZM22.7071 35H21.7071L21.707 36H22.707L22.7071 35ZM27.3971 33H17.0161L17.5161 34H26.8971L27.3971 33ZM22.3394 29.7465L22.3311 29.7665C22.3104 29.8026 22.2849 29.8365 22.2548 29.8669C22.1479 30.7403 22.0284 31.6425 21.8958 32.5707L21.975 32H22.632L22.6036 31.7955C22.5079 31.0972 22.4198 30.4142 22.3394 29.7465ZM19.2948 31.2382C19.2437 31.433 19.1914 31.6232 19.138 31.809L19.0818 32L20.184 31.999L19.2948 31.2382ZM25.3381 31.3325L24.559 31.999L25.5261 32L25.4699 31.809C25.4251 31.6534 25.3812 31.4945 25.3381 31.3325ZM23.4932 30.9057L23.577 31.524L24.5631 30.678L23.4094 30.2539C23.4366 30.4696 23.4645 30.6869 23.4932 30.9057ZM21.1918 30.3066L20.181 30.678L21.045 31.419L21.1147 30.9057C21.1411 30.7047 21.1668 30.505 21.1918 30.3066ZM19.8401 28.7483C19.773 29.1161 19.7029 29.4724 19.6299 29.8171L20.8 29.385L19.8401 28.7483ZM24.7828 28.83L23.9441 29.385L24.9664 29.7619C24.9029 29.4601 24.8417 29.1494 24.7828 28.83ZM23.2206 28.6648L24.0391 28.121L23.1196 27.7217C23.1514 28.0324 23.1851 28.3467 23.2206 28.6648ZM21.482 27.7838L20.705 28.121L21.3969 28.5792C21.4265 28.3115 21.4549 28.0463 21.482 27.7838ZM20.2251 26.2673C20.1787 26.6212 20.1302 26.9668 20.0795 27.3039L21.048 26.883L20.2251 26.2673ZM24.3952 26.361L23.6961 26.883L24.519 27.2406C24.4762 26.9535 24.4349 26.6602 24.3952 26.361ZM22.9736 26.1737L23.6951 25.634L22.9044 25.3174C22.9257 25.5993 22.9488 25.8848 22.9736 26.1737ZM21.6992 25.3739L21.049 25.634L21.6425 26.0782C21.6626 25.8411 21.6815 25.6063 21.6992 25.3739ZM20.518 23.611L20.5052 23.758L20.4134 24.6754C20.4084 24.7227 20.4033 24.7698 20.3982 24.8168L21.525 24.366L20.518 23.611ZM24.098 23.707L23.2191 24.366L24.2037 24.7607C24.2006 24.7323 24.1976 24.7039 24.1945 24.6754L24.1027 23.758L24.098 23.707ZM22.86 22.6125C22.8502 22.8751 22.8386 23.1412 22.8253 23.4107L23.3741 23L22.86 22.6125ZM21.7518 22.7129L21.37 23L21.7774 23.3042C21.7679 23.1052 21.7594 22.9081 21.7518 22.7129ZM20.755 20.425L20.6995 21.3257L20.628 22.306L21.7071 21.4962C21.7073 21.4679 21.7099 21.4396 21.7149 21.4116C21.7149 21.4007 21.7147 21.3917 21.7146 21.3827L20.755 20.425ZM23.86 20.553L23.0248 21.3897C23.0327 21.4248 23.0368 21.4605 23.037 21.4962L23.971 22.198L23.9084 21.3257L23.86 20.553ZM22.707 19V20.292L23.4451 19.554L22.707 19ZM21.707 19.248L21.299 19.554L21.707 19.962V19.248ZM20.906 16.957L20.8871 17.5868L20.845 18.644L21.707 17.997V17.833L20.906 16.957ZM23.705 17.102L23.0166 17.8578C23.03 17.9035 23.0368 17.9505 23.037 17.9975L23.758 18.538L23.7209 17.5868L23.705 17.102ZM22.707 15.555V16.711L23.3121 16.049L22.707 15.555ZM20.977 13.217L20.9761 13.4584C20.9742 13.6643 20.972 13.8688 20.9694 14.072L20.951 15.15L21.707 14.532V14.212L20.977 13.217ZM23.631 13.402L22.986 14.281C23.0261 14.3652 23.0411 14.4485 23.0361 14.5302L23.653 15.036L23.6385 14.072C23.6359 13.8688 23.6337 13.6643 23.6318 13.4584L23.631 13.402ZM22.707 11.287V12.971L23.3921 12.036L22.707 11.287ZM21.707 11.648L21.352 12.036L21.707 12.521V11.648ZM20.9685 9.07305C20.9706 9.25266 20.9726 9.43142 20.9742 9.60932L20.9829 10.9242L20.982 10.958L21.707 10.167V9.851L20.9685 9.07305ZM23.6377 9.21882L23.0204 9.87187C23.0438 9.96062 23.0425 10.0546 23.0163 10.1428L23.626 10.81L23.6337 9.60932C23.6349 9.47961 23.6363 9.34944 23.6377 9.21882ZM22.707 7.253V8.745L23.4141 8L22.707 7.253ZM21.707 7.601L21.33 8L21.707 8.397V7.601ZM21.7071 6H20.912L20.9329 6.88397C20.9335 6.91102 20.9341 6.93805 20.9346 6.96506L21.707 6.148L21.7071 6ZM23.695 6L23.037 6.00019C23.037 6.04423 23.0312 6.08829 23.0196 6.13115L23.675 6.823L23.695 6ZM22.2071 4C21.8929 4 21.5083 4.30599 21.0868 4.95664L21.0591 5H23.3541L23.3274 4.95664C22.941 4.36021 22.5857 4.05339 22.2871 4.0064L22.2071 4Z" fill="#85ACB0"/>
</svg>
