<svg xmlns="http://www.w3.org/2000/svg" width="64" height="64"><g fill="none" fill-rule="evenodd"><circle cx="32" cy="32" r="32" fill="#FFF"/><circle cx="32" cy="32" r="32" fill="#FF6444" fill-opacity=".08" fill-rule="nonzero"/><path fill="#FF6444" fill-opacity=".48" d="m29.477 12.05-13 10.568A4.003 4.003 0 0 0 15 25.722V44c0 2.21 1.79 4 4 4h26c2.21 0 4-1.79 4-4V25.722a4 4 0 0 0-1.477-3.104l-13-10.567a4 4 0 0 0-5.046 0z"/><path fill="#FF6444" d="M43 14a2 2 0 0 1 2 2v13.882l-11.297 5.316a3.997 3.997 0 0 1-3.406 0L19 29.882V16a2 2 0 0 1 2-2h22z"/><rect width="9" height="2" x="23" y="18" fill="#FFF" rx="1"/><rect width="14" height="2" x="23" y="22" fill="#FFF" rx="1"/><rect width="14" height="2" x="23" y="26" fill="#FFF" rx="1"/><path fill="#FFF" fill-rule="nonzero" d="M49 28v1l-14.988 7.553a4.5 4.5 0 0 1-3.799.105l-.225-.105L15 29v-1l15.435 7.658a3.497 3.497 0 0 0 3.13 0L49 28z"/></g></svg>