<svg xmlns="http://www.w3.org/2000/svg" width="64" height="64" viewBox="0 0 64 64">
    <g fill="none" fill-rule="evenodd">
        <path d="M0 0H64V64H0z"/>
        <path fill="#85ACB0" fill-rule="nonzero" d="M17 36v26h-1V36h1zm3 0v26h-1V36h1zm3 0v26h-1V36h1zM20 2l.001 2.063C20.863 4.286 21.5 5.068 21.5 6c0 .932-.637 1.714-1.499 1.937L20 10.333 22.749 14H23v5h1v7h1v7h1v1h-.001v14.091L30.949 42H26v-1h5.5v-2H26v-1h12v-5h1v-7h1v-7h1v-5h.25L44 10.333V7.937c-.863-.222-1.5-1.005-1.5-1.937 0-.932.637-1.715 1.5-1.937V2h1l.001 2.063C45.863 4.286 46.5 5.068 46.5 6c0 .932-.637 1.714-1.499 1.937L45 10.333 47.749 14H48v5h1v7h1v7h1v1h-.001L51 62h-1l-.001-28H39v28h-1V49.678l-6-7.385-6.001 7.385L26 62h-1l-.001-28H14v28h-1V33h1v-7h1v-7h1v-5h.25L19 10.333V7.937c-.863-.222-1.5-1.005-1.5-1.937 0-.932.637-1.715 1.5-1.937V2h1zm22 34v26h-1V36h1zm3 0v26h-1V36h1zm3 0v26h-1V36h1zm-10 6h-4.95L38 48.091V42zm0-1v-2h-5.5v2H38zM24 27h-9v6h2v-4h1v4h1v-4h1v4h1v-4h1v4h2v-6zm25 0h-9v6h2v-4h1v4h1v-4h1v4h1v-4h1v4h2v-6zm-26-7h-7v6h2v-4h1v4h1v-4h1v4h2v-6zm25 0h-7v6h2v-4h1v4h1v-4h1v4h2v-6zm-1-5h-5v4h2v-2h1v2h2v-4zm-25 0h-5v4h2v-2h1v2h2v-4zm22.5-3.667L42.499 14h4.002L44.5 11.333zm-25 0L17.499 14h4.002L19.5 11.333zM19.5 5c-.552 0-1 .448-1 1s.448 1 1 1 1-.448 1-1-.448-1-1-1zm25 0c-.552 0-1 .448-1 1s.448 1 1 1 1-.448 1-1-.448-1-1-1z"/>
    </g>
</svg>
