<svg xmlns="http://www.w3.org/2000/svg" width="64" height="64" viewBox="0 0 64 64">
    <g fill="none" fill-rule="evenodd">
        <path d="M0 0H64V64H0z" opacity=".401"/>
        <path fill="#85ACB0" fill-rule="nonzero" d="M32 61c2.21 0 4.182 1.171 5.465 3h-1.269c-1.087-1.24-2.572-2-4.196-2-1.624 0-3.11.76-4.196 2h-1.269c1.283-1.829 3.254-3 5.465-3zm32-4v1h-8.192L55 59.617V64h-1v-4h-3v4h-1v-4.383L49.19 58h-4.382L44 59.617V64h-1v-4h-3v4h-1.674c-1.123-2.365-3.533-4-6.326-4-2.793 0-5.203 1.635-6.326 4H24v-4h-3v4h-1v-4.383L19.19 58h-4.382L14 59.617V64h-1v-4h-3v4H9v-4.383L8.19 58H0v-1h64zm-25.81 1H25.808L25 59.617v3.508C26.363 60.665 28.987 59 32 59c3.013 0 5.637 1.666 7.001 4.126L39 59.617 38.19 58zm-13.5 0h-4.381l.5 1h3.381l.5-1zm19 0h-4.381l.5 1h3.381l.5-1zm-30 0H9.309l.5 1h3.381l.5-1zm41 0h-4.381l.5 1h3.381l.5-1zM64 54v1H0v-1h64zM32.5 4.5V7h2v1h-2v5H34v2.038c6.36.24 12.017 1.617 16.001 3.687L50 17h2v-1.114c-.583-.275-1-1.016-1-1.886 0-.812.363-1.512.885-1.825l.114-.06L52 11.5c0-.276.224-.5.5-.5.245 0 .45.177.492.41l.008.09v.614c.582.274 1 1.015 1 1.886 0 .813-.364 1.513-.886 1.825l-.114.061V17h2v4.999l2.194.001-1.195 3.583V35h2.408l.074-.027c.682-.297 1.18-1.05 1.473-2.312l.056-.26.08-.401H64v1h-3.101l-.03.125c-.38 1.436-1.051 2.38-2.034 2.784l-.177.065L58.5 36h-2.501v1H64v1h-8.001L56 52h8v1H0v-1h8l-.001-14H0v-1h7.999v-1H5.5l-.158-.026-.177-.065c-.983-.404-1.655-1.348-2.034-2.784L3.101 33H0v-1h3.91l.08.402.056.26c.294 1.262.791 2.014 1.473 2.31l.074.028h2.406v-1.5H7l-.158-.026-.177-.065c-.983-.404-1.655-1.348-2.034-2.784l-.03-.125H0v-1h5.41l.08.402.056.26c.294 1.262.791 2.014 1.473 2.31l.074.028h.906v-6.92L6.806 22 9 21.999V17h2v-1.114c-.582-.274-1-1.015-1-1.886s.418-1.612 1-1.886V11.5c0-.276.224-.5.5-.5s.5.224.5.5v.614c.583.275 1 1.016 1 1.886 0 .87-.417 1.611-1 1.886V17h2v1.724c3.984-2.069 9.64-3.446 16-3.686V13h1.5V8h-2V7h2V4.5h1zM55 29l-.191-.001-.81 1.618L54 50h-5V30.617L48.19 29h-3.381l-.81 1.618L44 50h-5V30.617L38.19 29H25.809l-.81 1.618L25 50h-5V30.617L19.19 29h-3.381l-.81 1.618L15 50h-5V30.617L9.19 29 9 29l-.001 8H9v1h-.001L9 52h20v-6c0-1.105.895-2 2-2h2c1.105 0 2 .895 2 2v6h20V29zM33 45h-2c-.513 0-.936.386-.993.883L30 46v6h4v-6c0-.513-.386-.936-.883-.993L33 45zm-15.5-1c.828 0 1.5.672 1.5 1.5V50h-3v-4.5c0-.828.672-1.5 1.5-1.5zm29 0c.828 0 1.5.672 1.5 1.5V50h-3v-4.5c0-.828.672-1.5 1.5-1.5zm0 1c-.245 0-.45.177-.492.41L46 45.5V49h1v-3.5c0-.245-.177-.45-.41-.492L46.5 45zM53 31h-3v18h3V31zm-10 0h-3v18h3V31zM17.5 45c-.245 0-.45.177-.492.41L17 45.5V49h1v-3.5c0-.245-.177-.45-.41-.492L17.5 45zM24 31h-3v18h3V31zm-10 0h-3v18h3V31zM1.5 45c.828 0 1.5.672 1.5 1.5S2.328 48 1.5 48 0 47.328 0 46.5.672 45 1.5 45zm61 0c.828 0 1.5.672 1.5 1.5s-.672 1.5-1.5 1.5-1.5-.672-1.5-1.5.672-1.5 1.5-1.5zm0 1c-.276 0-.5.224-.5.5s.224.5.5.5.5-.224.5-.5-.224-.5-.5-.5zm-61 0c-.276 0-.5.224-.5.5s.224.5.5.5.5-.224.5-.5-.224-.5-.5-.5zM38 39v4H26v-4h12zm-1 1H27v2h10v-2zm10-2c.552 0 1 .448 1 1v2c0 .552-.448 1-1 1h-1c-.552 0-1-.448-1-1v-2c0-.552.448-1 1-1h1zm-29 0c.552 0 1 .448 1 1v2c0 .552-.448 1-1 1h-1c-.552 0-1-.448-1-1v-2c0-.552.448-1 1-1h1zm29 1h-1v2h1v-2zm-29 0h-1v2h1v-2zm14-9c2.21 0 4 1.79 4 4s-1.79 4-4 4-4-1.79-4-4 1.79-4 4-4zm0 1c-1.657 0-3 1.343-3 3s1.343 3 3 3 3-1.343 3-3-1.343-3-3-3zm0 1c1.105 0 2 .895 2 2s-.895 2-2 2-2-.895-2-2 .895-2 2-2zm0 1c-.552 0-1 .448-1 1s.448 1 1 1 1-.448 1-1-.448-1-1-1zm32-3.5v1h-4.601l-.03.125c-.38 1.436-1.051 2.38-2.034 2.784l-.177.065L57 33.5h-1v-1h.907l.074-.027c.682-.297 1.18-1.05 1.473-2.312l.056-.26.08-.401H64zm-20.31-.501h-4.381l.5 1.001h3.381l.5-1.001zm-19 0h-4.381l.5 1.001h3.381l.5-1.001zm-10 0h-4.381l.5 1.001h3.381l.5-1.001zm39 0h-4.381l.5 1.001h3.381l.5-1.001zM55 26H9v2h46v-2zm.805-3H8.194l.666 2h46.278l.667-2zM32 16c-9.397 0-17.42 2.54-21.002 6l42.004-.001-.199-.187c-3.617-3.31-11.332-5.736-20.374-5.81L32 16zm22 2h-3l.001 1.28c1.196.708 2.207 1.486 3 2.318L54 18zm-41 0h-3v3.597c.793-.832 1.804-1.61 3-2.318V18zm20-4h-2v1.01c.19-.004.379-.007.569-.008L32 15c.335 0 .669.003 1 .01V14zm19.5-1c-.203 0-.5.395-.5 1s.297 1 .5 1 .5-.395.5-1-.297-1-.5-1zm-41 0c-.203 0-.5.395-.5 1s.297 1 .5 1 .5-.395.5-1-.297-1-.5-1z"/>
    </g>
</svg>
