<svg xmlns="http://www.w3.org/2000/svg" width="32" height="32"><defs><linearGradient id="a" x1="50.013%" x2="50.013%" y1="1.809%" y2="98.807%"><stop offset="0%" stop-color="#4FC8ED"/><stop offset="100%" stop-color="#10528A"/></linearGradient><linearGradient id="b" x1="0%" x2="99.988%" y1="50.018%" y2="50.018%"><stop offset="0%" stop-color="#EE3324"/><stop offset="100%" stop-color="#A02121"/></linearGradient><linearGradient id="c" x1="2168.703%" x2="1353.467%" y1="862.731%" y2="1585.379%"><stop offset="0%" stop-color="#EE3324"/><stop offset="100%" stop-color="#A02121"/></linearGradient><linearGradient id="d" x1="23.248%" x2="97.432%" y1="50.186%" y2="49.24%"><stop offset="0%" stop-color="#E6EAEF"/><stop offset="100%" stop-color="#95AAB1"/></linearGradient></defs><g fill="none" fill-rule="evenodd"><path d="M0 0h32v32H0z"/><g fill-rule="nonzero"><path fill="url(#a)" d="M0 .888c3.113 0 5.13-.478 7.405 2.156l7.437 9.188H9.324A4.118 4.118 0 0 1 5.5 9.917L0 .887z" transform="translate(0 1)"/><path fill="url(#b)" d="m16.9 14.9 11.75 14.243h-8.236a6.218 6.218 0 0 1-5.546-3.517l-3.532-6.01 1.02-3.158L16.9 14.9z" transform="translate(0 1)"/><path fill="url(#c)" d="M12.214 21.148c.534-2.314 4.55-4.228 6.644-3.917l-2.1-2.581-3.472.756-2.271 3.664 1.199 2.078z" transform="translate(0 1)"/><path fill="url(#d)" d="M12.13 21.044 9.414 16.46c-.79-1.424-.077-3.116 2.816-3.427 2.893-.311 7.923-.8 9.346 2.15-3.916-.402-9.747.788-9.448 5.86z" transform="translate(0 1)"/><path fill="#3A4D76" d="M29.779 28.861h-.439V28.7h1.068v.159h-.441v1.285h-.188zm2.005.651c-.01-.2-.024-.445-.024-.623-.052.167-.11.349-.182.548l-.255.7h-.14l-.237-.688a6.647 6.647 0 0 1-.164-.56c0 .179-.014.42-.028.638l-.038.619h-.178l.1-1.444h.237l.247.7c.06.178.107.337.145.486.04-.145.091-.3.155-.486l.256-.7h.238L32 30.146h-.184l-.032-.634z"/></g></g></svg>