<svg width="33" height="32" fill="none" xmlns="http://www.w3.org/2000/svg"><path d="M2.613 11a9 9 0 1 1 18 0 9 9 0 0 1-18 0Z" fill="#0033AD"/><path d="M11.587 7.06a.28.28 0 1 0 .032-.56.28.28 0 0 0-.032.56ZM14.027 7.199a.22.22 0 1 1-.004-.442.22.22 0 0 1 .004.442ZM9.282 7.186a.22.22 0 1 0-.201-.392.22.22 0 0 0 .2.392ZM9.497 11.636a.683.683 0 0 1-.172-.494h-.002a.682.682 0 1 1 .681.721h-.037a.683.683 0 0 1-.47-.227ZM6.66 11a.22.22 0 1 1 .223.38.22.22 0 0 1-.224-.38ZM10.117 8.256a.34.34 0 1 1-.593-.335.34.34 0 0 1 .593.335ZM7.646 9.221a.28.28 0 1 0 .308-.468.28.28 0 0 0-.308.468ZM7.868 10.892a.34.34 0 1 1 .346.586.34.34 0 0 1-.346-.586ZM7.683 13.134a.281.281 0 1 0 .254.501.281.281 0 0 0-.254-.501ZM9.23 10.207a.401.401 0 1 1-.007-.803.401.401 0 0 1 .007.803ZM13.205 8.365a.341.341 0 1 0 .373-.571.341.341 0 0 0-.373.571ZM13.259 10.493a.684.684 0 0 0-.72.641.682.682 0 0 0 .642.72h.04a.681.681 0 0 0 .038-1.361ZM10.449 10.369a.68.68 0 0 1-.222-.938.682.682 0 1 1 .222.938ZM15.543 9.221a.28.28 0 1 0-.253-.5.28.28 0 0 0 .253.5ZM13.646 9.598a.4.4 0 1 1 .697.395.4.4 0 0 1-.697-.395ZM11.81 8.77a.401.401 0 1 1-.407-.69.401.401 0 0 1 .407.69ZM9.412 12.916a.401.401 0 1 0-.36-.716.401.401 0 0 0 .36.716ZM11.734 9.84a.681.681 0 1 1 1.358-.112.681.681 0 0 1-1.358.111ZM13.028 12.26a.683.683 0 1 0-.608.99.682.682 0 0 0 .609-.989ZM13.996 12.147a.4.4 0 1 1 .007.802.4.4 0 0 1-.007-.802ZM15.525 11.189a.34.34 0 1 0-.68-.039.34.34 0 0 0 .68.039ZM16.343 10.976a.22.22 0 1 1 .224.381.22.22 0 0 1-.224-.38ZM15.58 13.133a.28.28 0 1 0-.308.469.28.28 0 0 0 .308-.469ZM9.2 15.155a.22.22 0 1 1 .003.44.22.22 0 0 1-.004-.44ZM13.944 15.168a.22.22 0 1 0 .199.395.22.22 0 0 0-.2-.395ZM11.492 12.514a.682.682 0 1 1-1.36.111.682.682 0 0 1 1.36-.11ZM10.02 13.99a.341.341 0 0 0-.424.527.34.34 0 1 0 .425-.527ZM11.452 15.332a.281.281 0 0 1 .366.411.281.281 0 0 1-.476-.29.281.281 0 0 1 .11-.12ZM11.613 13.53a.401.401 0 1 0-.049.8.401.401 0 0 0 .049-.8ZM13.11 14.1a.34.34 0 0 1 .635.206.34.34 0 1 1-.636-.207Z" fill="#fff"/><path d="M12.613 21a9 9 0 1 1 18 0 9 9 0 0 1-18 0Z" fill="#fff"/><path fill-rule="evenodd" clip-rule="evenodd" d="M21.233 12c-1.734.1-3.334.69-4.667 1.633h10.386A8.956 8.956 0 0 0 22.284 12H21.233Zm-6.427 3.266a8.985 8.985 0 0 0-1.068 1.633H29.78a8.978 8.978 0 0 0-1.068-1.633H14.806ZM12.65 20.18c.05-.56.15-1.106.299-1.633h17.317c.148.527.249 1.072.298 1.633H12.65Zm.004 1.633c.052.561.157 1.107.308 1.633h17.29a8.897 8.897 0 0 0 .309-1.633H12.654Zm2.039 4.899a8.99 8.99 0 0 1-1.083-1.633h15.994a8.987 8.987 0 0 1-1.082 1.633H14.693Zm6.534 3.256.027.001.027.001a8.86 8.86 0 0 0 5.455-1.625H16.479a8.859 8.859 0 0 0 4.748 1.623Z" fill="#F44336"/><path d="M21.422 12.005a8.991 8.991 0 0 0-8.77 8.178h8.77v-8.178Z" fill="#283991"/><path d="m14.413 17.085.137.421h.444l-.36.26.138.422-.36-.26-.358.26.137-.422-.359-.26h.444l.137-.421ZM14.413 18.572l.137.422h.444l-.36.26.138.421-.36-.26-.358.26.137-.421-.359-.26h.444l.137-.422ZM15.904 14.853l.137.421h.444l-.36.261.138.421-.36-.26-.358.26.137-.421-.36-.26h.445l.137-.422ZM15.904 16.341l.137.421h.444l-.36.26.138.422-.36-.26-.358.26.137-.422-.36-.26h.445l.137-.421ZM15.904 17.829l.137.421h.444l-.36.26.138.421-.36-.26-.358.26.137-.421-.36-.26h.445l.137-.421ZM13.281 18.931l-.137-.421.359-.26h-.444l-.01-.03a8.58 8.58 0 0 0-.133.456l.006-.005.36.26ZM14.054 16.7l.359-.26.359.26-.137-.421.359-.26h-.444l-.137-.422-.137.421h-.164l-.09.139.169.122-.137.421ZM15.904 14.208l.359.26-.137-.42.358-.261h-.256a8.944 8.944 0 0 0-.63.515l-.054.166.36-.26ZM17.035 13.725l.36-.26.358.26-.137-.422.36-.26h-.444l-.02-.057c-.15.077-.298.157-.444.242l.104.075-.137.422ZM17.395 14.11l.137.42h.443l-.359.261.137.421-.358-.26-.36.26.138-.421-.36-.26h.444l.137-.421ZM17.395 15.597l.137.421h.443l-.359.26.137.422-.358-.26-.36.26.138-.421-.36-.26h.444l.137-.422ZM17.395 17.085l.137.421h.443l-.359.26.137.422-.358-.26-.36.26.138-.422-.36-.26h.444l.137-.421ZM17.395 18.572l.137.422h.443l-.359.26.137.421-.358-.26-.36.26.138-.421-.36-.26h.444l.137-.422ZM18.885 13.366l.137.42h.444l-.359.261.137.421-.359-.26-.359.26.137-.42-.359-.261h.444l.137-.421ZM18.885 14.853l.137.421h.444l-.359.261.137.421-.359-.26-.359.26.137-.421-.359-.26h.444l.137-.422ZM18.885 16.341l.137.421h.444l-.359.26.137.422-.359-.26-.359.26.137-.422-.359-.26h.444l.137-.421ZM18.885 17.829l.137.421h.444l-.359.26.137.421-.359-.26-.359.26.137-.421-.359-.26h.444l.137-.421ZM20.376 12.622l.137.421h.444l-.359.26.137.422-.359-.26-.359.26.137-.422-.359-.26h.444l.137-.421ZM20.376 14.11l.137.42h.444l-.359.261.137.421-.359-.26-.359.26.137-.421-.359-.26h.444l.137-.421ZM20.376 15.597l.137.421h.444l-.359.26.137.422-.359-.26-.359.26.137-.421-.359-.26h.444l.137-.422ZM20.376 17.085l.137.421h.444l-.359.26.137.422-.359-.26-.359.26.137-.422-.359-.26h.444l.137-.421ZM20.376 18.572l.137.422h.444l-.359.26.137.421-.359-.26-.359.26.137-.421-.359-.26h.444l.137-.422Z" fill="#EFEFEF"/></svg>