<svg xmlns="http://www.w3.org/2000/svg" width="32" height="33" viewBox="0 0 32 33">
    <g fill="none" fill-rule="evenodd">
        <g transform="translate(0 1) translate(5 6)">
            <path fill="#6E7287" d="M3 8H19V18H3z"/>
            <path fill="#D2D3DA" d="M2 18h18c.552 0 1 .448 1 1H1c0-.552.448-1 1-1zM1 8h20c0 .552-.448 1-1 1H2c-.552 0-1-.448-1-1z"/>
            <rect width="22" height="1" y="19" fill="#B0B3BF" rx=".5"/>
            <g>
                <path fill="#B0B3BF" d="M0.25 0H1.75V9H0.25z" transform="translate(2 9)"/>
                <path fill="#E9E9ED" d="M.333 8h1.334c.184 0 .333.15.333.333V9H0v-.667C0 8.149.15 8 .333 8zM0 0h2v.667C2 .851 1.85 1 1.667 1H.333C.149 1 0 .85 0 .667V0z" transform="translate(2 9)"/>
            </g>
            <g>
                <path fill="#B0B3BF" d="M0.25 0H1.75V9H0.25z" transform="translate(7 9)"/>
                <path fill="#E9E9ED" d="M.333 8h1.334c.184 0 .333.15.333.333V9H0v-.667C0 8.149.15 8 .333 8zM0 0h2v.667C2 .851 1.85 1 1.667 1H.333C.149 1 0 .85 0 .667V0z" transform="translate(7 9)"/>
            </g>
            <g>
                <path fill="#B0B3BF" d="M0.25 0H1.75V9H0.25z" transform="translate(13 9)"/>
                <path fill="#E9E9ED" d="M.333 8h1.334c.184 0 .333.15.333.333V9H0v-.667C0 8.149.15 8 .333 8zM0 0h2v.667C2 .851 1.85 1 1.667 1H.333C.149 1 0 .85 0 .667V0z" transform="translate(13 9)"/>
            </g>
            <g>
                <path fill="#B0B3BF" d="M0.25 0H1.75V9H0.25z" transform="translate(18 9)"/>
                <path fill="#E9E9ED" d="M.333 8h1.334c.184 0 .333.15.333.333V9H0v-.667C0 8.149.15 8 .333 8zM0 0h2v.667C2 .851 1.85 1 1.667 1H.333C.149 1 0 .85 0 .667V0z" transform="translate(18 9)"/>
            </g>
            <path fill="#F4F4F6" stroke="#B0B3BF" stroke-linecap="round" stroke-linejoin="round" d="M0.5 7.5L21.5 7.5 11 0.5z"/>
            <circle cx="11" cy="4" r="1" fill="#B0B3BF"/>
        </g>
        <g transform="translate(0 1) translate(17 3)">
            <path fill="#0D47A1" fill-rule="nonzero" d="M11.101 0H.9C.402 0 0 .409 0 .913v6.16c0 .505.402.914.899.914H11.1c.497 0 .899-.409.899-.913V.913C12 .409 11.598 0 11.101 0z"/>
            <path fill="#FFF" fill-rule="nonzero" d="M.207 3.993h.36l1.916-1.275v1.275h1.034V2.718l1.917 1.275h.36c.113 0 .206-.094.206-.21v-.166L4.356 2.522H6v-1.05H4.356L6 .376V.21C6 .094 5.907 0 5.793 0h-.36L3.518 1.276V0H2.483v1.276L.629.042C.413.11.232.26.12.457l1.524 1.014H0v1.051h1.644L0 3.617v.166c0 .116.093.21.207.21zM3.063 5.14l.156.523.5-.202c.043-.018.082.032.056.07l-.306.45.468.272c.04.023.026.085-.02.088l-.537.038.083.54c.007.047-.05.075-.08.04l-.365-.403-.364.403c-.031.035-.087.007-.08-.04l.083-.54-.538-.038c-.046-.003-.06-.065-.02-.088l.468-.271-.305-.45c-.027-.04.012-.089.055-.071l.5.202.157-.524c.013-.044.075-.044.089 0zm6.154.761l.077.256.244-.099c.021-.008.04.016.027.035l-.149.22.229.132c.019.012.012.042-.01.043l-.263.02.04.263c.004.023-.023.036-.038.02l-.178-.198-.178.197c-.015.017-.043.004-.04-.019l.041-.264-.262-.019c-.023-.001-.03-.031-.01-.043l.228-.132-.149-.22c-.013-.019.006-.043.027-.035l.245.1.076-.257c.007-.021.037-.021.043 0zm.626-2.078l.014.016.061.187.194.001c.025 0 .035.033.015.048l-.155.117.058.187c.008.024-.02.045-.04.03l-.158-.115-.157.115c-.02.015-.048-.005-.04-.03l.058-.187-.155-.117c-.02-.015-.01-.048.015-.048l.193-.001.062-.187c.008-.024.041-.024.05 0zm-2.327-.444l.077.256.244-.099c.021-.008.04.016.027.035l-.149.22.229.132c.019.012.012.042-.01.043l-.263.019.04.264c.004.023-.023.036-.038.02l-.178-.198-.178.197c-.015.017-.043.004-.04-.019l.041-.264-.262-.019c-.023-.001-.03-.031-.01-.043l.228-.132-.149-.22c-.013-.02.006-.043.027-.035l.245.1.076-.257c.007-.022.037-.022.043 0zm3.31-.84l.077.255.245-.099c.02-.008.04.016.027.035l-.15.22.229.133c.02.01.013.041-.01.043l-.262.018.04.264c.004.023-.024.036-.039.02l-.178-.197-.178.196c-.015.017-.043.004-.04-.019l.041-.264-.262-.018c-.022-.002-.03-.032-.01-.043l.229-.133-.15-.22c-.012-.019.007-.043.028-.035l.244.1.076-.256c.007-.022.037-.022.044 0zM9.218 1.416l.077.255.244-.099c.021-.008.04.016.027.035l-.149.22.229.133c.019.01.012.041-.01.043l-.263.018.04.264c.004.023-.023.036-.038.02l-.178-.197-.178.196c-.015.017-.043.004-.04-.019l.041-.264-.262-.018c-.023-.002-.03-.032-.01-.043l.228-.133-.149-.22c-.013-.019.006-.043.027-.034l.245.098.076-.255c.007-.022.037-.022.043 0z"/>
            <path fill="#F44336" fill-rule="nonzero" d="M3.31 0v1.681H6v.631H3.31v1.681h-.62V2.312H0v-.63h2.69V0h.62zm-.833 2.522L.246 3.993h-.04c-.076 0-.14-.044-.176-.108l2.067-1.363h.38zm1.582 0L5.997 3.8c-.006.077-.052.142-.118.173l-2.2-1.45h.38zM.342.196l1.934 1.275h-.38L.193.348C.237.292.287.241.343.196zM5.793 0c.076 0 .14.044.176.105L3.897 1.471h-.38L5.748 0z"/>
            <rect width="11.5" height="7.5" x=".25" y=".25" stroke="#000" stroke-opacity=".04" stroke-width=".5" rx="1"/>
        </g>
    </g>
</svg>
