<svg xmlns="http://www.w3.org/2000/svg" xmlns:xlink="http://www.w3.org/1999/xlink" width="32" height="33" viewBox="0 0 32 33">
    <defs>
        <rect id="audnzdprefix__a" width="24" height="16" x="0" y="0" rx="2"/>
    </defs>
    <g fill="none" fill-rule="evenodd" transform="translate(0 5)">
        <mask id="audnzdprefix__b" fill="#fff">
            <use xlink:href="#audnzdprefix__a"/>
        </mask>
        <use fill="#0D47A1" fill-rule="nonzero" xlink:href="#audnzdprefix__a"/>
        <path fill="#FFF" fill-rule="nonzero" d="M.414 7.987h.719l3.833-2.551v2.55h2.069v-2.55l3.832 2.55h.72c.228 0 .413-.187.413-.42v-.333L8.712 5.044H12V2.943H8.711L12 .753V.42c0-.232-.185-.42-.414-.42h-.719L7.034 2.551V0H4.965v2.551L1.258.084C.825.222.464.522.241.914l3.048 2.029H0v2.101h3.289L0 7.233v.333c0 .233.185.42.414.42zM6.125 10.279l.313 1.047 1-.405c.086-.034.163.065.111.142l-.611.9.936.543c.08.046.052.17-.04.176l-1.075.076.166 1.082c.014.092-.098.147-.16.078l-.729-.806-.729.806c-.062.069-.174.014-.16-.078l.166-1.082-1.075-.076c-.091-.006-.119-.13-.04-.176l.937-.542-.612-.901c-.052-.077.026-.176.111-.142l1 .405.313-1.047c.027-.09.152-.09.178 0zm12.31 1.524l.153.512.488-.198c.042-.017.08.031.055.069l-.3.44.458.265c.039.022.025.083-.02.086l-.524.037.08.528c.008.045-.047.072-.078.039l-.356-.394-.356.394c-.03.033-.085.006-.078-.039l.081-.528-.525-.037c-.045-.003-.058-.064-.02-.086l.458-.265-.299-.44c-.025-.038.013-.086.054-.07l.49.199.152-.512c.013-.044.074-.044.087 0zm1.18-4.125c.016-.048.083-.048.1 0l.122.373.387.003c.05 0 .071.065.03.096l-.31.233.116.375c.015.049-.04.09-.08.06l-.315-.23-.315.23c-.04.03-.095-.011-.08-.06l.117-.375-.312-.233c-.04-.03-.02-.095.03-.096l.388-.003.122-.373zm-4.582-.92l.152.512.49-.198c.041-.016.08.032.054.07l-.3.44.458.265c.039.022.025.082-.02.086l-.524.037.08.528c.008.045-.047.072-.078.038l-.356-.393-.356.393c-.03.034-.085.007-.078-.038l.081-.528-.525-.037c-.045-.004-.058-.064-.02-.086l.458-.265-.299-.44c-.025-.038.013-.086.054-.07l.49.198.152-.511c.013-.044.074-.044.087 0zm6.62-1.681l.153.512.49-.198c.04-.017.079.031.053.069l-.298.44.457.265c.039.023.025.083-.02.086l-.525.037.081.529c.007.045-.047.072-.078.038l-.356-.394-.356.394c-.03.033-.085.007-.078-.038l.081-.529-.525-.037c-.045-.003-.058-.063-.02-.086l.458-.265-.299-.44c-.025-.038.013-.086.054-.07l.49.199.152-.512c.013-.044.074-.044.087 0zm-3.218-2.246l.153.512.488-.198c.042-.017.08.031.055.069l-.3.44.458.265c.039.023.025.083-.02.086l-.524.037.08.529c.008.045-.047.072-.078.038l-.356-.394-.356.394c-.03.034-.085.007-.078-.038l.081-.529-.525-.037c-.045-.003-.058-.063-.02-.086l.458-.265-.299-.44c-.025-.038.013-.086.054-.069l.49.198.152-.512c.013-.044.074-.044.087 0z" mask="url(#audnzdprefix__b)"/>
        <path fill="#F44336" fill-rule="nonzero" d="M6.62 0v3.363H12v1.261H6.62v3.363H5.38V4.624H0V3.363h5.38V0h1.24zM4.955 5.044L.492 7.987H.414c-.123 0-.23-.057-.305-.145l-.05-.071 4.135-2.727h.76zm3.164 0L11.993 7.6c-.012.154-.102.284-.234.346l-4.4-2.902h.76zM.685.393l3.867 2.55h-.76L.386.696C.473.584.574.482.685.393zM11.586 0c.122 0 .227.056.301.141l.05.07-4.142 2.732h-.76L11.496 0h.09z" mask="url(#audnzdprefix__b)"/>
        <rect width="23" height="15" x=".5" y=".5" fill-rule="nonzero" stroke="#000" stroke-opacity=".04" mask="url(#audnzdprefix__b)" rx="1"/>
        <rect width="23" height="15" x=".5" y=".5" stroke="#000" stroke-opacity=".04" rx="2"/>
        <g fill-rule="nonzero">
            <g transform="translate(8 8)">
                <rect width="24" height="16" fill="#0D47A1" rx="2"/>
                <path fill="#FFF" d="M.414 8h.719l3.833-2.551V8h2.069V5.449L10.867 8h.72c.228 0 .413-.188.413-.42v-.334L8.712 5.057H12V2.956H8.711L12 .767V.434c0-.233-.185-.42-.414-.42h-.719l-3.833 2.55V.014H4.965v2.55L1.258.097C.825.235.464.535.241.927l3.048 2.029H0v2.101h3.289L0 7.247v.333c0 .232.185.42.414.42z"/>
                <path fill="#F44336" d="M6.62.013v3.363H12v1.261H6.62V8H5.38V4.637H0V3.376h5.38V.013h1.24zM4.955 5.057L.492 8H.414c-.123 0-.23-.057-.305-.145l-.05-.071 4.135-2.727h.76zm3.164 0l3.875 2.556c-.012.154-.102.284-.234.346l-4.4-2.902h.76zM.685.406l3.867 2.55h-.76L.386.71C.473.597.574.495.685.406zM11.586.013c.122 0 .227.056.301.142l.05.069-4.142 2.732h-.76L11.496.013h.09z"/>
                <path fill="#F44336" stroke="#FFF" stroke-width=".2" d="M18 11.489c.036 0 .067.023.079.057l.19.58.602.005c.036 0 .067.024.078.059.011.034 0 .072-.03.093l-.484.363.182.583c.01.035-.002.072-.03.094-.015.01-.032.016-.05.016-.016 0-.033-.006-.047-.016l-.49-.355-.49.355c-.014.01-.031.016-.048.016s-.034-.006-.049-.016c-.028-.022-.04-.06-.03-.094l.182-.583-.484-.363c-.029-.021-.04-.059-.03-.093.011-.035.042-.058.078-.059l.602-.005.19-.58c.012-.034.044-.057.08-.057zm-2.896-3.835c.035 0 .067.024.078.058l.19.58.602.004c.036 0 .068.024.079.059.01.034-.001.071-.03.093l-.484.364.182.582c.01.035-.002.073-.03.094-.016.01-.033.016-.05.016s-.033-.005-.048-.016l-.49-.355-.49.355c-.014.01-.03.016-.047.016s-.035-.005-.049-.016c-.029-.021-.041-.059-.03-.094l.181-.582-.484-.364c-.028-.022-.04-.06-.03-.093.012-.035.043-.058.079-.059l.602-.004.19-.58c.011-.034.043-.058.079-.058zm5.793-.84c.035 0 .067.023.078.057l.19.58.603.005c.035 0 .067.023.078.058.01.034-.001.072-.03.094l-.484.363.182.583c.01.034-.002.072-.03.093-.015.011-.033.016-.05.016s-.033-.005-.048-.015l-.49-.356-.49.356c-.014.01-.03.015-.047.015s-.034-.005-.049-.016c-.029-.021-.041-.059-.03-.093l.181-.583-.484-.363c-.028-.022-.04-.06-.03-.094.012-.035.043-.058.079-.058l.602-.005.19-.58c.011-.034.043-.057.079-.057zM18 4.712c.036 0 .067.023.079.057l.19.58.602.005c.036 0 .067.024.078.058.011.034 0 .072-.03.094l-.484.363.182.583c.01.034-.002.072-.03.094-.015.01-.032.016-.05.016-.016 0-.033-.006-.047-.016L18 6.19l-.49.356c-.014.01-.031.016-.048.016s-.034-.006-.049-.016c-.028-.022-.04-.06-.03-.094l.182-.583-.484-.363c-.029-.022-.04-.06-.03-.094.011-.034.043-.058.078-.058l.602-.005.19-.58c.012-.034.044-.057.08-.057z"/>
                <rect width="23" height="15" x=".5" y=".5" stroke="#000" stroke-opacity=".04" rx="1"/>
            </g>
        </g>
        <rect width="23" height="15" x="8.5" y="8.5" stroke="#000" stroke-opacity=".04" rx="2"/>
    </g>
</svg>
