<svg width="32" height="32" fill="none" xmlns="http://www.w3.org/2000/svg"><path fill-rule="evenodd" clip-rule="evenodd" d="M26.69 17.242A1 1 0 0 0 25.72 16H6.28a1 1 0 0 0-.97 1.242l2.5 10a1 1 0 0 0 .97.758h14.44a1 1 0 0 0 .97-.758l2.5-10ZM11 19a1 1 0 0 0-1 1v4a1 1 0 1 0 2 0v-4a1 1 0 0 0-1-1Zm4 1a1 1 0 1 1 2 0v4a1 1 0 1 1-2 0v-4Zm6-1a1 1 0 0 0-1 1v4a1 1 0 1 0 2 0v-4a1 1 0 0 0-1-1ZM15.914 7.395 13.185 12h5.63l-2.729-4.605a.1.1 0 0 0-.172 0ZM21.8 12l-4.285-7.143a1.766 1.766 0 0 0-3.03 0L10.2 12H5a1 1 0 1 0 0 2h22a1 1 0 1 0 0-2h-5.2Z" fill="#D2D3DA"/><path d="M30.75 0h-12.5C17.56 0 17 .56 17 1.25v7.5c0 .69.56 1.25 1.25 1.25h12.5c.69 0 1.25-.56 1.25-1.25v-7.5C32 .56 31.44 0 30.75 0Z" fill="#0D47A1"/><path d="M17.259 4.992h.449l2.396-1.595v1.595h1.293V3.397l2.395 1.595h.45a.26.26 0 0 0 .258-.263v-.208l-2.055-1.368H24.5V1.839h-2.055L24.5.471V.263A.26.26 0 0 0 24.241 0h-.449l-2.396 1.594V0h-1.293v1.594L17.786.052a1.13 1.13 0 0 0-.636.52l1.905 1.267H17v1.314h2.055L17 4.52v.208a.26.26 0 0 0 .259.263Zm3.569 1.433.195.654.626-.253c.053-.022.102.04.07.088l-.383.564.585.339c.05.029.032.106-.025.11l-.672.047.104.676c.009.058-.061.092-.1.05l-.456-.505-.455.504c-.039.043-.109.009-.1-.049l.104-.676-.672-.047c-.058-.004-.075-.081-.025-.11l.585-.34-.382-.563c-.033-.048.016-.11.07-.088l.625.253.195-.654a.058.058 0 0 1 .111 0Zm7.694.952.095.32.306-.124c.026-.01.05.02.033.043l-.186.275.285.166c.025.014.016.052-.012.054l-.328.023.05.33c.005.028-.029.045-.048.024l-.223-.246-.222.246c-.019.021-.053.004-.049-.024l.05-.33-.327-.023c-.029-.002-.037-.04-.013-.054l.286-.166-.187-.275c-.015-.023.008-.053.034-.043l.306.124.095-.32a.028.028 0 0 1 .055 0Zm.737-2.578c.01-.03.052-.03.062 0l.077.233.242.002c.031 0 .044.041.019.06l-.195.146.073.234c.01.03-.024.056-.05.037l-.197-.143-.197.143c-.025.019-.059-.006-.05-.037l.073-.234-.194-.146c-.025-.019-.012-.06.019-.06l.242-.002.076-.233Zm-2.864-.575.096.32.305-.123c.026-.011.05.02.034.043l-.186.275.285.165c.025.015.016.052-.012.054l-.328.023.05.33c.005.029-.03.046-.048.025l-.223-.247-.222.247a.03.03 0 0 1-.05-.024l.052-.33-.329-.024c-.028-.002-.036-.04-.012-.054l.286-.165-.187-.275c-.016-.024.008-.054.034-.043l.306.123.095-.32a.028.028 0 0 1 .054 0Zm4.138-1.05.096.32.305-.124c.026-.01.05.02.034.043l-.186.275.285.166c.024.014.016.051-.012.053l-.328.024.05.33c.005.028-.03.045-.048.024l-.223-.246-.222.246c-.02.02-.054.004-.05-.024l.051-.33-.328-.024c-.028-.002-.036-.04-.012-.053l.286-.166-.187-.275c-.016-.024.008-.054.034-.043l.306.123.095-.32a.028.028 0 0 1 .054 0ZM28.522 1.77l.095.32.306-.124c.026-.01.05.02.033.043l-.186.275.285.166c.025.014.016.052-.012.054l-.328.023.05.33c.005.028-.029.045-.048.024l-.223-.246-.222.246a.029.029 0 0 1-.049-.024l.05-.33-.327-.023c-.029-.002-.037-.04-.013-.054l.286-.166-.187-.275c-.015-.023.008-.054.034-.043l.306.124.095-.32a.028.028 0 0 1 .055 0Z" fill="#fff"/><path d="M21.138 0v2.102H24.5v.788h-3.362v2.102h-.776V2.89H17v-.788h3.362V0h.776Zm-1.042 3.153-2.789 1.839h-.048a.248.248 0 0 1-.19-.09l-.032-.045 2.584-1.704h.475Zm1.978 0 2.422 1.597a.26.26 0 0 1-.147.216L21.6 3.153h.475ZM17.428.245l2.417 1.594h-.475L17.24.435a1.14 1.14 0 0 1 .187-.19ZM24.24 0c.076 0 .142.035.189.088l.03.044-2.588 1.707h-.475L24.185 0h.056Z" fill="#F44336"/><path fill-rule="evenodd" clip-rule="evenodd" d="M30.75.625h-12.5a.625.625 0 0 0-.625.625v7.5c0 .345.28.625.625.625h12.5c.345 0 .625-.28.625-.625v-7.5a.625.625 0 0 0-.625-.625ZM18.25 0C17.56 0 17 .56 17 1.25v7.5c0 .69.56 1.25 1.25 1.25h12.5c.69 0 1.25-.56 1.25-1.25v-7.5C32 .56 31.44 0 30.75 0h-12.5Z" fill="#000" fill-opacity=".04"/></svg>