<svg xmlns="http://www.w3.org/2000/svg" xmlns:xlink="http://www.w3.org/1999/xlink" width="32" height="33" viewBox="0 0 32 33">
    <defs>
        <rect id="audcadprefix__a" width="24" height="16" x="0" y="0" rx="2"/>
    </defs>
    <g fill="none" fill-rule="evenodd" transform="translate(0 5)">
        <mask id="audcadprefix__b" fill="#fff">
            <use xlink:href="#audcadprefix__a"/>
        </mask>
        <use fill="#0D47A1" fill-rule="nonzero" xlink:href="#audcadprefix__a"/>
        <path fill="#FFF" fill-rule="nonzero" d="M.414 7.987h.719l3.833-2.551v2.55h2.069v-2.55l3.832 2.55h.72c.228 0 .413-.187.413-.42v-.333L8.712 5.044H12V2.943H8.711L12 .753V.42c0-.232-.185-.42-.414-.42h-.719L7.034 2.551V0H4.965v2.551L1.258.084C.825.222.464.522.241.914l3.048 2.029H0v2.101h3.289L0 7.233v.333c0 .233.185.42.414.42zM6.125 10.279l.313 1.047 1-.405c.086-.034.163.065.111.142l-.611.9.936.543c.08.046.052.17-.04.176l-1.075.076.166 1.082c.014.092-.098.147-.16.078l-.729-.806-.729.806c-.062.069-.174.014-.16-.078l.166-1.082-1.075-.076c-.091-.006-.119-.13-.04-.176l.937-.542-.612-.901c-.052-.077.026-.176.111-.142l1 .405.313-1.047c.027-.09.152-.09.178 0zm12.31 1.524l.153.512.488-.198c.042-.017.08.031.055.069l-.3.44.458.265c.039.022.025.083-.02.086l-.524.037.08.528c.008.045-.047.072-.078.039l-.356-.394-.356.394c-.03.033-.085.006-.078-.039l.081-.528-.525-.037c-.045-.003-.058-.064-.02-.086l.458-.265-.299-.44c-.025-.038.013-.086.054-.07l.49.199.152-.512c.013-.044.074-.044.087 0zm1.18-4.125c.016-.048.083-.048.1 0l.122.373.387.003c.05 0 .071.065.03.096l-.31.233.116.375c.015.049-.04.09-.08.06l-.315-.23-.315.23c-.04.03-.095-.011-.08-.06l.117-.375-.312-.233c-.04-.03-.02-.095.03-.096l.388-.003.122-.373zm-4.582-.92l.152.512.49-.198c.041-.016.08.032.054.07l-.3.44.458.265c.039.022.025.082-.02.086l-.524.037.08.528c.008.045-.047.072-.078.038l-.356-.393-.356.393c-.03.034-.085.007-.078-.038l.081-.528-.525-.037c-.045-.004-.058-.064-.02-.086l.458-.265-.299-.44c-.025-.038.013-.086.054-.07l.49.198.152-.511c.013-.044.074-.044.087 0zm6.62-1.681l.153.512.49-.198c.04-.017.079.031.053.069l-.298.44.457.265c.039.023.025.083-.02.086l-.525.037.081.529c.007.045-.047.072-.078.038l-.356-.394-.356.394c-.03.033-.085.007-.078-.038l.081-.529-.525-.037c-.045-.003-.058-.063-.02-.086l.458-.265-.299-.44c-.025-.038.013-.086.054-.07l.49.199.152-.512c.013-.044.074-.044.087 0zm-3.218-2.246l.153.512.488-.198c.042-.017.08.031.055.069l-.3.44.458.265c.039.023.025.083-.02.086l-.524.037.08.529c.008.045-.047.072-.078.038l-.356-.394-.356.394c-.03.034-.085.007-.078-.038l.081-.529-.525-.037c-.045-.003-.058-.063-.02-.086l.458-.265-.299-.44c-.025-.038.013-.086.054-.069l.49.198.152-.512c.013-.044.074-.044.087 0z" mask="url(#audcadprefix__b)"/>
        <path fill="#F44336" fill-rule="nonzero" d="M6.62 0v3.363H12v1.261H6.62v3.363H5.38V4.624H0V3.363h5.38V0h1.24zM4.955 5.044L.492 7.987H.414c-.123 0-.23-.057-.305-.145l-.05-.071 4.135-2.727h.76zm3.164 0L11.993 7.6c-.012.154-.102.284-.234.346l-4.4-2.902h.76zM.685.393l3.867 2.55h-.76L.386.696C.473.584.574.482.685.393zM11.586 0c.122 0 .227.056.301.141l.05.07-4.142 2.732h-.76L11.496 0h.09z" mask="url(#audcadprefix__b)"/>
        <rect width="23" height="15" x=".5" y=".5" fill-rule="nonzero" stroke="#000" stroke-opacity=".04" mask="url(#audcadprefix__b)" rx="1"/>
        <rect width="23" height="15" x=".5" y=".5" stroke="#000" stroke-opacity=".04" rx="2"/>
        <g fill-rule="nonzero">
            <g transform="translate(8 8)">
                <path fill="#FFF" d="M6 0H18V16H6z"/>
                <path fill="#F44336" d="M18 0h4c1.105 0 2 .895 2 2v12c0 1.105-.895 2-2 2h-4V0zM2 0h4v16H2c-1.105 0-2-.895-2-2V2C0 .895.895 0 2 0zM12.001 3.06v.001l.672 1.28c.091.173.288.26.474.207l.639-.177-.417 2.462c-.036.209.222.332.358.171l.976-1.16.1.457c.05.237.29.38.519.312l1.04-.307-.184 1.396c-.023.178.067.352.225.432l.564.286-2.456 1.426c-.254.147-.366.46-.263.74l.21.57-2.105-.183c-.117-.01-.216.085-.212.204l.066 2.288h-.414l.066-2.288c.004-.119-.095-.214-.212-.204l-2.104.182.21-.57c.103-.279-.009-.592-.263-.74L7.035 8.42l.563-.286c.158-.08.249-.254.225-.431L7.64 6.306l1.04.307c.229.068.467-.075.519-.312l.1-.457.976 1.16c.135.16.393.038.357-.17l-.416-2.463.638.177c.186.052.383-.034.474-.207L12 3.06l.001-.002z"/>
                <rect width="23" height="15" x=".5" y=".5" stroke="#000" stroke-opacity=".04" rx="1"/>
            </g>
        </g>
        <rect width="23" height="15" x="8.5" y="8.5" stroke="#000" stroke-opacity=".04" rx="2"/>
    </g>
</svg>
