<svg width="32" height="32" fill="none" xmlns="http://www.w3.org/2000/svg"><path d="M2 11a9 9 0 1 1 18 0 9 9 0 0 1-18 0Z" fill="#E84142"/><path d="M6.672 15.041h1.744c.41 0 .616 0 .8-.05.2-.06.384-.166.536-.312.193-.184.316-.44.446-.669l2.262-3.999c.201-.35.3-.527.345-.713a1.31 1.31 0 0 0 0-.614c-.044-.184-.144-.36-.342-.705l-.89-1.554c-.184-.322-.276-.483-.393-.543a.444.444 0 0 0-.402 0c-.117.06-.21.221-.393.543l-4.307 7.592c-.181.318-.272.477-.265.607.009.142.082.27.2.347.111.07.292.07.659.07Zm8.648 0h-2.499c-.369 0-.554 0-.662-.07a.447.447 0 0 1-.201-.349c-.007-.13.084-.287.267-.602l1.252-2.15c.183-.315.276-.472.39-.531a.44.44 0 0 1 .4 0c.114.058.203.208.379.505l1.284 2.198c.174.299.262.452.256.578a.442.442 0 0 1-.2.349c-.111.072-.297.072-.666.072Z" fill="#fff"/><path d="M12 21a9 9 0 1 1 18 0 9 9 0 0 1-18 0Z" fill="#fff"/><path fill-rule="evenodd" clip-rule="evenodd" d="M20.62 12c-1.734.1-3.335.69-4.668 1.633h10.386A8.956 8.956 0 0 0 21.671 12H20.62Zm-6.428 3.266a8.985 8.985 0 0 0-1.067 1.633h16.041a8.973 8.973 0 0 0-1.068-1.633H14.192Zm-2.155 4.915c.05-.56.15-1.106.298-1.633h17.317c.148.527.25 1.072.299 1.633H12.037Zm.003 1.633a9.06 9.06 0 0 0 .308 1.633H29.64a8.897 8.897 0 0 0 .308-1.633H12.041Zm2.04 4.899a8.99 8.99 0 0 1-1.083-1.633H28.99a8.981 8.981 0 0 1-1.082 1.633H14.08Zm6.533 3.256.028.001.027.001a8.86 8.86 0 0 0 5.454-1.625H15.866a8.859 8.859 0 0 0 4.747 1.623Z" fill="#F44336"/><path d="M20.809 12.005a8.991 8.991 0 0 0-8.77 8.178h8.77v-8.178Z" fill="#283991"/><path d="m13.8 17.085.137.421h.444l-.36.26.138.422-.36-.26-.358.26.137-.422-.36-.26h.445l.137-.421Zm0 1.487.137.422h.444l-.36.26.138.421-.36-.26-.358.26.137-.421-.36-.26h.445l.137-.422Zm1.49-3.719.138.421h.443l-.359.261.137.421-.358-.26-.36.26.138-.421-.36-.26h.444l.137-.422Zm0 1.488.138.421h.443l-.359.26.137.422-.358-.26-.36.26.138-.422-.36-.26h.444l.137-.421Zm0 1.488.138.421h.443l-.359.26.137.421-.358-.26-.36.26.138-.421-.36-.26h.444l.137-.421Zm-2.622 1.102-.137-.421.359-.26h-.444l-.01-.03c-.049.15-.093.302-.133.456l.006-.005.359.26Zm.772-2.231.36-.26.359.26-.138-.421.36-.26h-.444l-.137-.422-.138.421H13.5l-.09.139.169.122-.137.421Zm1.85-2.492.36.26-.138-.42.36-.261h-.257a8.943 8.943 0 0 0-.63.515l-.054.166.36-.26Zm1.132-.483.36-.26.358.26-.137-.422.359-.26h-.444l-.018-.057c-.15.077-.3.157-.445.242l.104.075-.137.422Zm.359.385.137.42h.444l-.359.261.137.421-.359-.26-.359.26.137-.421-.359-.26h.444l.137-.421Zm0 1.487.137.421h.444l-.359.26.137.422-.359-.26-.359.26.137-.421-.359-.26h.444l.137-.422Zm0 1.488.137.421h.444l-.359.26.137.422-.359-.26-.359.26.137-.422-.359-.26h.444l.137-.421Zm0 1.487.137.422h.444l-.359.26.137.421-.359-.26-.359.26.137-.421-.359-.26h.444l.137-.422Zm1.491-5.206.137.42h.444l-.359.261.137.421-.359-.26-.36.26.138-.42-.359-.261h.444l.137-.421Zm0 1.487.137.421h.444l-.359.261.137.421-.359-.26-.36.26.138-.421-.359-.26h.444l.137-.422Zm0 1.488.137.421h.444l-.359.26.137.422-.359-.26-.36.26.138-.422-.359-.26h.444l.137-.421Zm0 1.488.137.421h.444l-.359.26.137.421-.359-.26-.36.26.138-.421-.359-.26h.444l.137-.421Zm1.491-5.207.137.421h.444l-.36.26.138.422-.36-.26-.358.26.137-.422-.36-.26h.445l.137-.421Zm0 1.488.137.42h.444l-.36.261.138.421-.36-.26-.358.26.137-.421-.36-.26h.445l.137-.421Zm0 1.487.137.421h.444l-.36.26.138.422-.36-.26-.358.26.137-.421-.36-.26h.445l.137-.422Zm0 1.488.137.421h.444l-.36.26.138.422-.36-.26-.358.26.137-.422-.36-.26h.445l.137-.421Zm0 1.487.137.422h.444l-.36.26.138.421-.36-.26-.358.26.137-.421-.36-.26h.445l.137-.422Z" fill="#EFEFEF"/></svg>