<svg width="32" height="32" fill="none" xmlns="http://www.w3.org/2000/svg"><circle cx="16" cy="16" r="16" fill="#E84142"/><path d="M8.528 23.369h3.1c.73 0 1.096 0 1.422-.09a2.34 2.34 0 0 0 .953-.554c.344-.327.561-.784.793-1.19l4.022-7.11c.357-.623.534-.937.613-1.267a2.33 2.33 0 0 0 0-1.091c-.078-.328-.257-.64-.609-1.254L17.24 8.05c-.325-.573-.49-.86-.698-.966a.79.79 0 0 0-.715 0c-.208.106-.373.393-.698.966L7.472 21.547c-.322.565-.483.848-.471 1.08a.788.788 0 0 0 .357.616c.196.126.518.126 1.17.126Zm15.375 0H19.46c-.656 0-.986 0-1.178-.126a.795.795 0 0 1-.357-.62c-.012-.23.15-.51.475-1.07l2.226-3.821c.325-.561.49-.84.694-.946a.782.782 0 0 1 .71 0c.203.103.361.37.674.898l2.283 3.907c.309.532.466.804.455 1.028a.785.785 0 0 1-.357.62c-.197.13-.526.13-1.182.13Z" fill="#fff"/></svg>