<svg xmlns="http://www.w3.org/2000/svg" xmlns:xlink="http://www.w3.org/1999/xlink" width="24" height="24"><defs><path id="a" d="M.02.012h5.474v3.752H.02z"/></defs><g fill="none" fill-rule="evenodd"><path d="M0 0h24v24H0z"/><path fill="#F3BA2F" fill-rule="nonzero" d="M19.5 6h-15A1.5 1.5 0 003 7.5v9A1.5 1.5 0 004.5 18h15a1.5 1.5 0 001.5-1.5v-9A1.5 1.5 0 0019.5 6z"/><path stroke="#000" stroke-opacity=".04" stroke-width=".75" d="M19.125 6.375H4.875a1.5 1.5 0 00-1.5 1.5v8.25a1.5 1.5 0 001.5 1.5h14.25a1.5 1.5 0 001.5-1.5v-8.25a1.5 1.5 0 00-1.5-1.5z"/><g><path fill="#FFF" d="M14.756 13.75l-.059.064c-.877.878-1.755 1.755-2.631 2.635-.057.057-.085.047-.135-.004-.875-.877-1.75-1.754-2.628-2.628-.062-.063-.06-.1.002-.159.296-.288.59-.577.88-.872.075-.078.11-.024.156.021.519.519 1.04 1.035 1.554 1.56.09.092.13.076.212-.007.509-.516 1.025-1.025 1.534-1.541.085-.086.133-.085.217.002.274.284.558.56.838.84.024.024.058.041.06.089"/><g transform="translate(9.242 7.514)"><mask id="b" fill="#fff"><use xlink:href="#a"/></mask><path fill="#FFF" d="M4.518 3.764c-.056-.008-.08-.05-.11-.08-.515-.515-1.032-1.029-1.543-1.549-.086-.087-.13-.086-.216 0-.51.52-1.03 1.033-1.542 1.552-.074.074-.116.083-.195 0a34.854 34.854 0 00-.84-.836c-.071-.07-.067-.113.001-.18C.947 1.798 1.82.925 2.69.05c.056-.055.086-.05.137.003.869.87 1.738 1.741 2.61 2.61.07.069.083.113.004.19-.284.275-.56.557-.84.836-.027.027-.057.051-.083.074" mask="url(#b)"/></g><path fill="#FFF" d="M11.984 13.022c-.014-.012-.036-.026-.054-.044-.302-.304-.603-.61-.907-.912-.042-.041-.06-.063-.009-.113.315-.311.626-.626.936-.941.043-.044.068-.033.106.006.302.306.604.612.91.913.063.062.06.096-.002.156-.302.294-.598.593-.896.89-.021.022-.04.049-.084.045m3.513-2.017c.02.018.046.04.07.065.3.296.598.595.9.89.036.036.044.05.003.09-.31.303-.617.61-.923.917-.046.046-.073.056-.126.003a56.866 56.866 0 00-.885-.886c-.062-.061-.062-.095 0-.156.296-.288.586-.582.878-.873.021-.021.036-.052.083-.05m-6.994 2.007l-.043-.039c-.312-.309-.623-.619-.936-.927-.035-.034-.032-.048.001-.081.307-.301.614-.603.916-.909.057-.057.088-.06.147 0 .3.302.602.6.907.898.04.04.037.066.004.098l-.935.928c-.015.015-.028.035-.062.032"/></g></g></svg>