<svg xmlns="http://www.w3.org/2000/svg" width="24" height="24" viewBox="0 0 24 24">
    <g fill="none" fill-rule="evenodd">
        <g>
            <g>
                <g>
                    <g>
                        <g>
                            <path d="M0 0H24V24H0z" transform="translate(-176 -2098) translate(0 1460) translate(0 205) translate(16 417) translate(160 16)"/>
                            <g>
                                <path fill="#F7931A" fill-rule="nonzero" d="M16.5 0h-15C.672 0 0 .672 0 1.5v9c0 .828.672 1.5 1.5 1.5h15c.828 0 1.5-.672 1.5-1.5v-9c0-.828-.672-1.5-1.5-1.5z" transform="translate(-176 -2098) translate(0 1460) translate(0 205) translate(16 417) translate(160 16) translate(3 6)"/>
                                <path fill="#FFF" fill-rule="nonzero" d="M12.357 5.118c.14-.945-.574-1.454-1.552-1.793l.318-1.281-.774-.194-.31 1.247c-.203-.051-.411-.1-.62-.147l.312-1.256-.774-.194-.317 1.28c-.169-.038-.335-.076-.495-.116l.001-.005-1.068-.268-.206.833s.575.132.563.14c.313.08.37.288.36.454l-.36 1.46c.02.005.049.013.08.026l-.082-.02-.506 2.044c-.039.096-.136.24-.355.185.008.011-.563-.141-.563-.141l-.384.892 1.008.253.551.144-.32 1.295.773.194.317-1.28c.212.056.417.11.618.16l-.317 1.276.774.194.32-1.293c1.32.252 2.313.15 2.731-1.052.337-.969-.016-1.528-.711-1.892.506-.117.887-.452.988-1.145zm-1.769 2.499c-.238.968-1.857.445-2.382.313l.425-1.716c.525.132 2.208.393 1.957 1.403zm.24-2.513c-.218.881-1.565.433-2.002.324L9.21 3.87c.437.11 1.844.314 1.617 1.233z" transform="translate(-176 -2098) translate(0 1460) translate(0 205) translate(16 417) translate(160 16) translate(3 6)"/>
                                <path stroke="#000" stroke-opacity=".04" stroke-width=".75" d="M16.125.375H1.875c-.828 0-1.5.672-1.5 1.5v8.25c0 .828.672 1.5 1.5 1.5h14.25c.828 0 1.5-.672 1.5-1.5v-8.25c0-.828-.672-1.5-1.5-1.5z" transform="translate(-176 -2098) translate(0 1460) translate(0 205) translate(16 417) translate(160 16) translate(3 6)"/>
                            </g>
                        </g>
                    </g>
                </g>
            </g>
        </g>
    </g>
</svg>
