<svg xmlns="http://www.w3.org/2000/svg" width="29" height="28" viewBox="0 0 29 28">
    <g fill="none" fill-rule="evenodd" transform="translate(-2 -2)">
        <path d="M0 0H32V32H0z"/>
        <path fill="#E4E4E4" fill-rule="nonzero" d="M29.5 20H29c-.276 0-.5-.224-.5-.5s.224-.5.5-.5h.5c.276 0 .5.224.5.5s-.224.5-.5.5zM27 20h-1c-.276 0-.5-.224-.5-.5s.224-.5.5-.5h1c.276 0 .5.224.5.5s-.224.5-.5.5zm-3 0h-1c-.276 0-.5-.224-.5-.5s.224-.5.5-.5h1c.276 0 .5.224.5.5s-.224.5-.5.5zm-3 0h-1c-.276 0-.5-.224-.5-.5s.224-.5.5-.5h1c.276 0 .5.224.5.5s-.224.5-.5.5zm-3 0h-1c-.276 0-.5-.224-.5-.5s.224-.5.5-.5h1c.276 0 .5.224.5.5s-.224.5-.5.5zm-3 0h-1c-.276 0-.5-.224-.5-.5s.224-.5.5-.5h1c.276 0 .5.224.5.5s-.224.5-.5.5zm-3 0h-1c-.276 0-.5-.224-.5-.5s.224-.5.5-.5h1c.276 0 .5.224.5.5s-.224.5-.5.5zm-3 0H8c-.276 0-.5-.224-.5-.5s.224-.5.5-.5h1c.276 0 .5.224.5.5s-.224.5-.5.5zm-3 0H5c-.276 0-.5-.224-.5-.5s.224-.5.5-.5h1c.276 0 .5.224.5.5s-.224.5-.5.5zM3 20h-.5c-.276 0-.5-.224-.5-.5s.224-.5.5-.5H3c.276 0 .5.224.5.5s-.224.5-.5.5zM29.5 9H29c-.276 0-.5-.224-.5-.5s.224-.5.5-.5h.5c.276 0 .5.224.5.5s-.224.5-.5.5zM27 9h-1c-.276 0-.5-.224-.5-.5s.224-.5.5-.5h1c.276 0 .5.224.5.5s-.224.5-.5.5zm-3 0h-1c-.276 0-.5-.224-.5-.5s.224-.5.5-.5h1c.276 0 .5.224.5.5s-.224.5-.5.5zm-3 0h-1c-.276 0-.5-.224-.5-.5s.224-.5.5-.5h1c.276 0 .5.224.5.5s-.224.5-.5.5zm-3 0h-1c-.276 0-.5-.224-.5-.5s.224-.5.5-.5h1c.276 0 .5.224.5.5s-.224.5-.5.5zm-3 0h-1c-.276 0-.5-.224-.5-.5s.224-.5.5-.5h1c.276 0 .5.224.5.5s-.224.5-.5.5zM9 9H8c-.276 0-.5-.224-.5-.5S7.724 8 8 8h1c.276 0 .5.224.5.5S9.276 9 9 9zM6 9H5c-.276 0-.5-.224-.5-.5S4.724 8 5 8h1c.276 0 .5.224.5.5S6.276 9 6 9z"/>
        <path fill="#84AAAF" fill-rule="nonzero" d="M29.85 25.15l-2-2c-.042-.05-.098-.089-.16-.11-.122-.05-.258-.05-.38 0-.062.021-.118.06-.16.11l-2 2c-.193.193-.193.507 0 .7.193.193.507.193.7 0L27 24.71v4.79c0 .276.224.5.5.5s.5-.224.5-.5v-4.79l1.15 1.14c.09.097.217.152.35.152.133 0 .26-.055.35-.152.097-.09.152-.217.152-.35 0-.133-.055-.26-.152-.35z"/>
        <path fill="#58595B" fill-rule="nonzero" d="M3.5 9c.276 0 .5.224.5.5s-.224.5-.5.5-.5-.224-.5-.5.224-.5.5-.5zm0-1C2.672 8 2 8.672 2 9.5S2.672 11 3.5 11 5 10.328 5 9.5 4.328 8 3.5 8z"/>
        <rect width="16" height="8" x="2" y="22" fill="#84AAAF" fill-rule="nonzero" rx="2"/>
        <path fill="#58595B" fill-rule="nonzero" d="M28.5 2c-.638.003-1.205.41-1.413 1.013-.207.604-.01 1.273.493 1.667L23.8 16c-.1-.01-.2-.01-.3 0-.16 0-.319.028-.47.08l-2.37-5.63c.223-.266.343-.603.34-.95.018-.68-.423-1.287-1.076-1.48-.653-.191-1.353.08-1.706.662-.353.581-.27 1.328.202 1.818L15.68 16H15.35l-2.67-5.61c.202-.253.315-.566.32-.89 0-.828-.672-1.5-1.5-1.5S10 8.672 10 9.5c0 .33.113.652.32.91L7.65 16H7.32l-2.74-5.46c.494-.514.559-1.305.154-1.892-.405-.586-1.167-.807-1.823-.528-.656.28-1.024.982-.882 1.68.143.699.758 1.2 1.471 1.2h.18l2.74 5.48c-.578.588-.573 1.533.012 2.115.586.582 1.53.582 2.116 0 .585-.582.59-1.527.012-2.115l2.6-5.48c.224.054.456.054.68 0l2.6 5.48c-.578.588-.573 1.533.012 2.115.586.582 1.53.582 2.116 0 .585-.582.59-1.527.012-2.115L19.32 11H19.79l2.43 5.77c-.144.227-.22.49-.22.76 0 .828.672 1.5 1.5 1.5s1.5-.672 1.5-1.5c-.004-.338-.12-.665-.33-.93L28.53 5c.828 0 1.5-.672 1.5-1.5S29.358 2 28.53 2h-.03zm-25 8c-.276 0-.5-.224-.5-.5s.224-.5.5-.5.5.224.5.5-.224.5-.5.5zm4 8c-.276 0-.5-.224-.5-.5s.224-.5.5-.5.5.224.5.5-.224.5-.5.5zm4-8c-.276 0-.5-.224-.5-.5s.224-.5.5-.5.5.224.5.5-.224.5-.5.5zm4 8c-.276 0-.5-.224-.5-.5s.224-.5.5-.5.5.224.5.5-.224.5-.5.5zm4-8c-.276 0-.5-.224-.5-.5s.224-.5.5-.5.5.224.5.5-.224.5-.5.5zm4 8c-.276 0-.5-.224-.5-.5s.224-.5.5-.5.5.224.5.5-.224.5-.5.5zm5-14c-.276 0-.5-.224-.5-.5s.224-.5.5-.5.5.224.5.5-.224.5-.5.5z"/>
        <path fill="#FFF" fill-rule="nonzero" d="M3.328 28v-.564h1.176v-3.132h-.048l-.972 1.038-.414-.372 1.068-1.158H5.17v3.624h1.02V28H3.328zm4.872.072c-.26 0-.486-.049-.678-.147-.192-.098-.35-.239-.474-.423s-.216-.41-.276-.678c-.06-.268-.09-.574-.09-.918 0-.34.03-.645.09-.915s.152-.497.276-.681c.124-.184.282-.325.474-.423.192-.098.418-.147.678-.147.52 0 .903.19 1.149.57.246.38.369.912.369 1.596s-.123 1.216-.369 1.596c-.246.38-.629.57-1.149.57zm0-.576c.144 0 .267-.029.369-.087.102-.058.185-.141.249-.249.064-.108.11-.237.138-.387.028-.15.042-.317.042-.501v-.732c0-.184-.014-.351-.042-.501-.028-.15-.074-.279-.138-.387-.064-.108-.147-.191-.249-.249-.102-.058-.225-.087-.369-.087s-.267.029-.369.087c-.102.058-.185.141-.249.249-.064.108-.11.237-.138.387-.028.15-.042.317-.042.501v.732c0 .184.014.351.042.501.028.15.074.279.138.387.064.108.147.191.249.249.102.058.225.087.369.087zm3.6.576c-.26 0-.486-.049-.678-.147-.192-.098-.35-.239-.474-.423s-.216-.41-.276-.678c-.06-.268-.09-.574-.09-.918 0-.34.03-.645.09-.915s.152-.497.276-.681c.124-.184.282-.325.474-.423.192-.098.418-.147.678-.147.52 0 .903.19 1.149.57.246.38.369.912.369 1.596s-.123 1.216-.369 1.596c-.246.38-.629.57-1.149.57zm0-.576c.144 0 .267-.029.369-.087.102-.058.185-.141.249-.249.064-.108.11-.237.138-.387.028-.15.042-.317.042-.501v-.732c0-.184-.014-.351-.042-.501-.028-.15-.074-.279-.138-.387-.064-.108-.147-.191-.249-.249-.102-.058-.225-.087-.369-.087s-.267.029-.369.087c-.102.058-.185.141-.249.249-.064.108-.11.237-.138.387-.028.15-.042.317-.042.501v.732c0 .184.014.351.042.501.028.15.074.279.138.387.064.108.147.191.249.249.102.058.225.087.369.087zm3.6.576c-.26 0-.486-.049-.678-.147-.192-.098-.35-.239-.474-.423s-.216-.41-.276-.678c-.06-.268-.09-.574-.09-.918 0-.34.03-.645.09-.915s.152-.497.276-.681c.124-.184.282-.325.474-.423.192-.098.418-.147.678-.147.52 0 .903.19 1.149.57.246.38.369.912.369 1.596s-.123 1.216-.369 1.596c-.246.38-.629.57-1.149.57zm0-.576c.144 0 .267-.029.369-.087.102-.058.185-.141.249-.249.064-.108.11-.237.138-.387.028-.15.042-.317.042-.501v-.732c0-.184-.014-.351-.042-.501-.028-.15-.074-.279-.138-.387-.064-.108-.147-.191-.249-.249-.102-.058-.225-.087-.369-.087s-.267.029-.369.087c-.102.058-.185.141-.249.249-.064.108-.11.237-.138.387-.028.15-.042.317-.042.501v.732c0 .184.014.351.042.501.028.15.074.279.138.387.064.108.147.191.249.249.102.058.225.087.369.087z"/>
    </g>
</svg>
