<svg width="32" height="32" viewBox="0 0 32 32" fill="none" xmlns="http://www.w3.org/2000/svg">
<path d="M0 2C0 0.89543 0.895431 0 2 0H17C18.1046 0 19 0.895431 19 2V8C19 9.10457 18.1046 10 17 10H2C0.895431 10 0 9.10457 0 8V2Z" fill="#0E0E0E"/>
<path d="M3.60089 8.10267C3.24726 8.10267 2.9307 8.04848 2.65122 7.94011C2.37174 7.82604 2.13504 7.66633 1.94111 7.461C1.75289 7.24996 1.60744 6.999 1.50478 6.70811C1.40781 6.41722 1.35933 6.09211 1.35933 5.73278C1.35933 5.31641 1.42207 4.92285 1.54756 4.55211C1.67874 4.17567 1.84415 3.83059 2.04378 3.51689C2.24911 3.19748 2.47726 2.9123 2.72822 2.66133C2.98489 2.41037 3.24156 2.19933 3.49822 2.02822H5.26922C4.90419 2.29059 4.57622 2.54155 4.28533 2.78111C3.99444 3.01496 3.74063 3.25167 3.52389 3.49122C3.31285 3.73078 3.13604 3.97604 2.99344 4.227C2.85656 4.47226 2.75959 4.73748 2.70256 5.02267L2.77956 5.04833C2.83089 4.93426 2.89078 4.82304 2.95922 4.71467C3.03337 4.6063 3.12178 4.51218 3.22444 4.43233C3.33282 4.34678 3.4583 4.27833 3.60089 4.227C3.74348 4.17567 3.90889 4.15 4.09711 4.15C4.34237 4.15 4.57052 4.19563 4.78156 4.28689C4.9983 4.37244 5.18367 4.49507 5.33767 4.65478C5.49737 4.81448 5.62 5.01126 5.70556 5.24511C5.79682 5.47326 5.84245 5.72707 5.84245 6.00656C5.84245 6.31456 5.78826 6.59689 5.67989 6.85356C5.57722 7.11022 5.42607 7.33267 5.22644 7.52089C5.03252 7.70341 4.79867 7.846 4.52489 7.94867C4.25111 8.05133 3.94311 8.10267 3.60089 8.10267ZM3.60089 7.10167C3.88607 7.10167 4.10852 7.02467 4.26822 6.87067C4.42793 6.71096 4.50778 6.48567 4.50778 6.19478V6.04078C4.50778 5.74989 4.42793 5.52744 4.26822 5.37344C4.10852 5.21374 3.88607 5.13389 3.60089 5.13389C3.3157 5.13389 3.09326 5.21374 2.93356 5.37344C2.77385 5.52744 2.694 5.74989 2.694 6.04078V6.19478C2.694 6.48567 2.77385 6.71096 2.93356 6.87067C3.09326 7.02467 3.3157 7.10167 3.60089 7.10167ZM8.69666 8.10267C7.91525 8.10267 7.33632 7.83174 6.95988 7.28989C6.58344 6.74804 6.39521 5.98944 6.39521 5.01411C6.39521 4.03878 6.58344 3.28018 6.95988 2.73833C7.33632 2.19648 7.91525 1.92555 8.69666 1.92555C9.47807 1.92555 10.057 2.19648 10.4334 2.73833C10.8099 3.28018 10.9981 4.03878 10.9981 5.01411C10.9981 5.98944 10.8099 6.74804 10.4334 7.28989C10.057 7.83174 9.47807 8.10267 8.69666 8.10267ZM8.69666 7.01611C9.03888 7.01611 9.27558 6.89063 9.40677 6.63967C9.53795 6.3887 9.60355 6.03507 9.60355 5.57878V4.44944C9.60355 3.99315 9.53795 3.63952 9.40677 3.38855C9.27558 3.13759 9.03888 3.01211 8.69666 3.01211C8.35444 3.01211 8.11773 3.13759 7.98655 3.38855C7.85536 3.63952 7.78977 3.99315 7.78977 4.44944V5.57878C7.78977 6.03507 7.85536 6.3887 7.98655 6.63967C8.11773 6.89063 8.35444 7.01611 8.69666 7.01611ZM13.8267 8.10267C13.0452 8.10267 12.4663 7.83174 12.0899 7.28989C11.7134 6.74804 11.5252 5.98944 11.5252 5.01411C11.5252 4.03878 11.7134 3.28018 12.0899 2.73833C12.4663 2.19648 13.0452 1.92555 13.8267 1.92555C14.6081 1.92555 15.187 2.19648 15.5634 2.73833C15.9399 3.28018 16.1281 4.03878 16.1281 5.01411C16.1281 5.98944 15.9399 6.74804 15.5634 7.28989C15.187 7.83174 14.6081 8.10267 13.8267 8.10267ZM13.8267 7.01611C14.1689 7.01611 14.4056 6.89063 14.5368 6.63967C14.6679 6.3887 14.7335 6.03507 14.7335 5.57878V4.44944C14.7335 3.99315 14.6679 3.63952 14.5368 3.38855C14.4056 3.13759 14.1689 3.01211 13.8267 3.01211C13.4844 3.01211 13.2477 3.13759 13.1165 3.38855C12.9854 3.63952 12.9198 3.99315 12.9198 4.44944V5.57878C12.9198 6.03507 12.9854 6.3887 13.1165 6.63967C13.2477 6.89063 13.4844 7.01611 13.8267 7.01611Z" fill="white"/>
<path d="M0 17.4144L6.99995 24.4143L9.99995 21.4143L17 28.4143L20 25.4143L26 31.4143V28.5859L20 22.5859L17 25.5859L9.99995 18.5859L6.99995 21.5859L0 14.5859V17.4144Z" fill="#FF444F"/>
<path d="M27.0001 10L31.7072 14.7071L30.293 16.1213L28.0001 13.8284L28.0001 32H26.5858L26.0001 31.4142L26.0001 13.8284L23.7072 16.1213L22.293 14.7071L27.0001 10Z" fill="#85ACB0"/>
</svg>
