<?xml version="1.0" encoding="UTF-8"?>
<svg width="32px" height="32px" viewBox="0 0 32 32" version="1.1" xmlns="http://www.w3.org/2000/svg" xmlns:xlink="http://www.w3.org/1999/xlink">
    <title>DEDB27D5-C5D2-48F9-936C-3CA3032405C9</title>
    <g id="Trade-type" stroke="none" stroke-width="1" fill="none" fill-rule="evenodd">
        <g id="Multipliers---instruments---synthetic-tab---open-(EU)" transform="translate(-679.000000, -2659.000000)">
            <g id="Instruments-available" transform="translate(0.000000, 1917.000000)">
                <g transform="translate(364.000000, 437.000000)" id="Volatility-indices-Copy">
                    <g transform="translate(0.000000, 273.000000)">
                        <g id="content" transform="translate(146.000000, 32.000000)">
                            <g id="1" transform="translate(169.000000, 0.000000)">
                                <g id="boom-300" transform="translate(2.000000, 2.000000)">
                                    <g transform="translate(0.000000, 10.000000)" fill-rule="nonzero" id="Path">
                                        <polygon fill="#FF444F" points="0 6.35310546 6.19226346 12.1765111 8.84610962 9.68073019 15.0384615 15.5042191 17.6923077 13.0084381 23.1502199 18 23.153069 15.7349677 17.6923077 10.6554158 15.0384615 13.1511968 8.84610962 7.32770792 6.19226346 9.82348886 0 4"></polygon>
                                        <polygon fill="#85ACB0" points="24 0 28 3.85126364 26.798241 5.00833636 24.8497801 3.13232727 24.8497801 18 23.6479361 18 23.1502199 18 23.1502199 3.13232727 21.201759 5.00833636 20 3.85126364"></polygon>
                                    </g>
                                    <g id="300">
                                        <path d="M13,8 L1,8 C0.448,8 0,7.553 0,7 L0,1 C0,0.447 0.448,0 1,0 L13,0 C13.552,0 14,0.447 14,1 L14,7 C14,7.553 13.552,8 13,8" id="bg" fill="#2A2A2A"></path>
                                        <path d="M3.47412109,6.05859375 C3.92919922,6.05859375 4.29492188,5.94433594 4.57128906,5.71582031 C4.84765625,5.48730469 4.98583984,5.18359375 4.98583984,4.8046875 C4.98583984,4.5703125 4.92675781,4.3671875 4.80859375,4.1953125 C4.69042969,4.0234375 4.51123047,3.89453125 4.27099609,3.80859375 C4.46435547,3.72070312 4.62060547,3.59472656 4.73974609,3.43066406 C4.85888672,3.26660156 4.91845703,3.08691406 4.91845703,2.89160156 C4.91845703,2.51269531 4.79052734,2.21533203 4.53466797,1.99951172 C4.27880859,1.78369141 3.92529297,1.67578125 3.47412109,1.67578125 C3.21435547,1.67578125 2.9765625,1.72558594 2.76074219,1.82519531 C2.54492188,1.92480469 2.37695312,2.06298828 2.25683594,2.23974609 C2.13671875,2.41650391 2.07666016,2.61621094 2.07666016,2.83886719 L2.07666016,2.83886719 L2.92333984,2.83886719 C2.92333984,2.69628906 2.97802734,2.58056641 3.08740234,2.49169922 C3.19677734,2.40283203 3.33251953,2.35839844 3.49462891,2.35839844 C3.67431641,2.35839844 3.81542969,2.40625 3.91796875,2.50195312 C4.02050781,2.59765625 4.07177734,2.73144531 4.07177734,2.90332031 C4.07177734,3.08105469 4.02001953,3.22363281 3.91650391,3.33105469 C3.81298828,3.43847656 3.65380859,3.4921875 3.43896484,3.4921875 L3.43896484,3.4921875 L2.98779297,3.4921875 L2.98779297,4.15429688 L3.43603516,4.15429688 C3.90478516,4.15429688 4.13916016,4.3671875 4.13916016,4.79296875 C4.13916016,4.96875 4.08203125,5.10986328 3.96777344,5.21630859 C3.85351562,5.32275391 3.69580078,5.37597656 3.49462891,5.37597656 C3.31884766,5.37597656 3.17089844,5.32519531 3.05078125,5.22363281 C2.93066406,5.12207031 2.87060547,4.99121094 2.87060547,4.83105469 L2.87060547,4.83105469 L2.02392578,4.83105469 C2.02392578,5.20019531 2.15917969,5.49707031 2.4296875,5.72167969 C2.70019531,5.94628906 3.04833984,6.05859375 3.47412109,6.05859375 Z M7.00146484,6.05859375 C7.47216797,6.05859375 7.82958984,5.90234375 8.07373047,5.58984375 C8.31787109,5.27734375 8.43994141,4.82617188 8.43994141,4.23632812 L8.43994141,4.23632812 L8.43994141,3.45117188 C8.43408203,2.87890625 8.30810547,2.43994141 8.06201172,2.13427734 C7.81591797,1.82861328 7.46044922,1.67578125 6.99560547,1.67578125 C6.53076172,1.67578125 6.17480469,1.83007812 5.92773438,2.13867188 C5.68066406,2.44726562 5.55712891,2.89941406 5.55712891,3.49511719 L5.55712891,3.49511719 L5.55712891,4.28027344 C5.56298828,4.85253906 5.68896484,5.29199219 5.93505859,5.59863281 C6.18115234,5.90527344 6.53662109,6.05859375 7.00146484,6.05859375 Z M7.00146484,5.37597656 C6.79248047,5.37597656 6.640625,5.29150391 6.54589844,5.12255859 C6.45117188,4.95361328 6.40380859,4.6953125 6.40380859,4.34765625 L6.40380859,4.34765625 L6.40380859,3.31054688 C6.40966797,2.984375 6.45996094,2.74462891 6.5546875,2.59130859 C6.64941406,2.43798828 6.79638672,2.36132812 6.99560547,2.36132812 C7.20068359,2.36132812 7.3515625,2.44189453 7.44824219,2.60302734 C7.54492188,2.76416016 7.59326172,3.02148438 7.59326172,3.375 L7.59326172,3.375 L7.59326172,4.38867188 C7.58935547,4.72265625 7.54150391,4.97070312 7.44970703,5.1328125 C7.35791016,5.29492188 7.20849609,5.37597656 7.00146484,5.37597656 Z M10.4438477,6.05859375 C10.9145508,6.05859375 11.2719727,5.90234375 11.5161133,5.58984375 C11.7602539,5.27734375 11.8823242,4.82617188 11.8823242,4.23632812 L11.8823242,4.23632812 L11.8823242,3.45117188 C11.8764648,2.87890625 11.7504883,2.43994141 11.5043945,2.13427734 C11.2583008,1.82861328 10.902832,1.67578125 10.4379883,1.67578125 C9.97314453,1.67578125 9.6171875,1.83007812 9.37011719,2.13867188 C9.12304688,2.44726562 8.99951172,2.89941406 8.99951172,3.49511719 L8.99951172,3.49511719 L8.99951172,4.28027344 C9.00537109,4.85253906 9.13134766,5.29199219 9.37744141,5.59863281 C9.62353516,5.90527344 9.97900391,6.05859375 10.4438477,6.05859375 Z M10.4438477,5.37597656 C10.2348633,5.37597656 10.0830078,5.29150391 9.98828125,5.12255859 C9.89355469,4.95361328 9.84619141,4.6953125 9.84619141,4.34765625 L9.84619141,4.34765625 L9.84619141,3.31054688 C9.85205078,2.984375 9.90234375,2.74462891 9.99707031,2.59130859 C10.0917969,2.43798828 10.2387695,2.36132812 10.4379883,2.36132812 C10.6430664,2.36132812 10.7939453,2.44189453 10.890625,2.60302734 C10.9873047,2.76416016 11.0356445,3.02148438 11.0356445,3.375 L11.0356445,3.375 L11.0356445,4.38867188 C11.0317383,4.72265625 10.9838867,4.97070312 10.8920898,5.1328125 C10.800293,5.29492188 10.6508789,5.37597656 10.4438477,5.37597656 Z" fill="#FFFFFF" fill-rule="nonzero"></path>
                                    </g>
                                </g>
                            </g>
                        </g>
                    </g>
                </g>
            </g>
        </g>
    </g>
</svg>