<svg width="33" height="32" viewBox="0 0 33 32" fill="none" xmlns="http://www.w3.org/2000/svg">
<path d="M0.666016 2C0.666016 0.89543 1.56145 0 2.66602 0H17.666C18.7706 0 19.666 0.895431 19.666 2V8C19.666 9.10457 18.7706 10 17.666 10H2.66602C1.56145 10 0.666016 9.10457 0.666016 8V2Z" fill="#0E0E0E"/>
<path d="M7.44002 4.29544C7.44002 4.71752 7.37442 5.11393 7.24324 5.48467C7.11776 5.85541 6.95235 6.20048 6.74702 6.51989C6.54739 6.83359 6.31924 7.11593 6.06257 7.36689C5.81161 7.61785 5.55779 7.82889 5.30113 8H3.53013C3.89516 7.73763 4.22313 7.48952 4.51402 7.25567C4.8049 7.01611 5.05587 6.77656 5.2669 6.537C5.48365 6.29744 5.66046 6.05504 5.79735 5.80978C5.93424 5.55881 6.03405 5.29074 6.09679 5.00556L6.01979 4.97989C5.96846 5.09396 5.90572 5.20518 5.83157 5.31356C5.76313 5.42193 5.67472 5.51889 5.56635 5.60444C5.46368 5.6843 5.34105 5.74989 5.19846 5.80122C5.05587 5.85256 4.89046 5.87822 4.70224 5.87822C4.45698 5.87822 4.22598 5.83544 4.00924 5.74989C3.7982 5.65863 3.61283 5.53315 3.45313 5.37344C3.29913 5.21374 3.1765 5.01981 3.08524 4.79167C2.99968 4.56352 2.9569 4.30685 2.9569 4.02167C2.9569 3.71367 3.00824 3.43133 3.1109 3.17467C3.21927 2.918 3.37042 2.69841 3.56435 2.51589C3.76398 2.32767 4.00068 2.18222 4.27446 2.07955C4.54824 1.97689 4.85624 1.92555 5.19846 1.92555C5.55209 1.92555 5.86865 1.98259 6.14813 2.09667C6.42761 2.20504 6.66146 2.36474 6.84968 2.57578C7.04361 2.78111 7.18905 3.02922 7.28602 3.32011C7.38868 3.611 7.44002 3.93611 7.44002 4.29544ZM5.19846 4.89433C5.48365 4.89433 5.70609 4.81733 5.86579 4.66333C6.0255 4.50363 6.10535 4.27833 6.10535 3.98744V3.83344C6.10535 3.54255 6.0255 3.32011 5.86579 3.16611C5.70609 3.00641 5.48365 2.92655 5.19846 2.92655C4.91328 2.92655 4.69083 3.00641 4.53113 3.16611C4.37142 3.32011 4.29157 3.54255 4.29157 3.83344V3.98744C4.29157 4.27833 4.37142 4.50363 4.53113 4.66333C4.69083 4.81733 4.91328 4.89433 5.19846 4.89433ZM10.3627 8.10267C9.58127 8.10267 9.00234 7.83174 8.6259 7.28989C8.24945 6.74804 8.06123 5.98944 8.06123 5.01411C8.06123 4.03878 8.24945 3.28018 8.6259 2.73833C9.00234 2.19648 9.58127 1.92555 10.3627 1.92555C11.1441 1.92555 11.723 2.19648 12.0995 2.73833C12.4759 3.28018 12.6641 4.03878 12.6641 5.01411C12.6641 5.98944 12.4759 6.74804 12.0995 7.28989C11.723 7.83174 11.1441 8.10267 10.3627 8.10267ZM10.3627 7.01611C10.7049 7.01611 10.9416 6.89063 11.0728 6.63967C11.204 6.3887 11.2696 6.03507 11.2696 5.57878V4.44944C11.2696 3.99315 11.204 3.63952 11.0728 3.38855C10.9416 3.13759 10.7049 3.01211 10.3627 3.01211C10.0205 3.01211 9.78375 3.13759 9.65256 3.38855C9.52138 3.63952 9.45579 3.99315 9.45579 4.44944V5.57878C9.45579 6.03507 9.52138 6.3887 9.65256 6.63967C9.78375 6.89063 10.0205 7.01611 10.3627 7.01611ZM15.4927 8.10267C14.7113 8.10267 14.1323 7.83174 13.7559 7.28989C13.3794 6.74804 13.1912 5.98944 13.1912 5.01411C13.1912 4.03878 13.3794 3.28018 13.7559 2.73833C14.1323 2.19648 14.7113 1.92555 15.4927 1.92555C16.2741 1.92555 16.853 2.19648 17.2294 2.73833C17.6059 3.28018 17.7941 4.03878 17.7941 5.01411C17.7941 5.98944 17.6059 6.74804 17.2294 7.28989C16.853 7.83174 16.2741 8.10267 15.4927 8.10267ZM15.4927 7.01611C15.8349 7.01611 16.0716 6.89063 16.2028 6.63967C16.334 6.3887 16.3996 6.03507 16.3996 5.57878V4.44944C16.3996 3.99315 16.334 3.63952 16.2028 3.38855C16.0716 3.13759 15.8349 3.01211 15.4927 3.01211C15.1504 3.01211 14.9137 3.13759 14.7826 3.38855C14.6514 3.63952 14.5858 3.99315 14.5858 4.44944V5.57878C14.5858 6.03507 14.6514 6.3887 14.7826 6.63967C14.9137 6.89063 15.1504 7.01611 15.4927 7.01611Z" fill="white"/>
<path d="M0.666016 17.4144L7.66597 24.4143L10.666 21.4143L17.666 28.4143L20.666 25.4143L26.666 31.4143V28.5859L20.666 22.5859L17.666 25.5859L10.666 18.5859L7.66597 21.5859L0.666016 14.5859V17.4144Z" fill="#FF444F"/>
<path d="M27.6661 10L32.3732 14.7071L30.959 16.1213L28.6661 13.8284L28.6661 32H27.2519L26.6661 31.4142L26.6661 13.8284L24.3732 16.1213L22.959 14.7071L27.6661 10Z" fill="#85ACB0"/>
</svg>
