<svg width="33" height="32" fill="none" xmlns="http://www.w3.org/2000/svg"><path d="M2.5 11a9 9 0 1 1 18 0 9 9 0 0 1-18 0Z" fill="#F7931A"/><path d="M15.544 9.886c.176-1.179-.722-1.813-1.95-2.236l.4-1.597-.973-.242-.388 1.555c-.255-.064-.518-.123-.78-.183l.392-1.566-.972-.242-.398 1.597c-.212-.048-.42-.096-.621-.146V6.82l-1.34-.335-.26 1.038s.723.166.707.176c.394.098.465.359.453.566l-.453 1.82a.87.87 0 0 1 .101.031l-.103-.025-.635 2.55c-.049.119-.17.298-.447.23.01.014-.706-.176-.706-.176l-.483 1.113 1.266.315.692.179-.402 1.615.972.242.398-1.597c.265.071.523.138.775.2l-.397 1.591.972.242.402-1.612c1.658.314 2.905.188 3.43-1.312.423-1.207-.021-1.904-.894-2.358.636-.146 1.114-.564 1.242-1.428Zm-2.222 3.115c-.3 1.208-2.333.555-2.992.391l.534-2.14c.66.165 2.772.49 2.458 1.75Zm.3-3.132c-.273 1.098-1.965.54-2.513.403l.483-1.94c.549.136 2.317.391 2.03 1.537Z" fill="#fff"/><path d="M12.5 21a9 9 0 1 1 18 0 9 9 0 0 1-18 0Z" fill="#BFBBBB"/><path d="m18.365 22.808-.802.311.387-1.551.812-.327 1.17-4.741h2.885l-.854 3.485.793-.32-.382 1.546-.803.321-.477 1.96h4.343l-.49 2.008h-7.243l.661-2.692Z" fill="#fff"/></svg>