<svg width="32" height="32" fill="none" xmlns="http://www.w3.org/2000/svg"><path d="M2 11a9 9 0 1 1 18 0 9 9 0 0 1-18 0Z" fill="#F7931A"/><path d="M15.044 9.886c.176-1.179-.722-1.813-1.95-2.236l.4-1.597-.973-.242-.388 1.555c-.255-.064-.518-.123-.78-.183l.392-1.566-.972-.242-.398 1.597c-.212-.048-.42-.096-.621-.146V6.82l-1.34-.335-.26 1.038s.723.166.707.176c.394.098.465.359.453.566l-.453 1.82a.87.87 0 0 1 .101.031l-.103-.025-.635 2.55c-.049.119-.17.298-.447.23.01.014-.706-.176-.706-.176l-.483 1.113 1.266.315.692.179-.402 1.615.972.242.398-1.597c.265.071.523.138.775.2l-.397 1.591.972.242.402-1.612c1.658.314 2.905.188 3.43-1.312.423-1.207-.021-1.904-.894-2.358.636-.146 1.114-.564 1.242-1.428Zm-2.222 3.115c-.3 1.208-2.333.555-2.992.391l.534-2.14c.66.165 2.772.49 2.458 1.75Zm.3-3.132c-.273 1.098-1.965.54-2.513.403l.483-1.94c.549.136 2.317.391 2.03 1.537Z" fill="#fff"/><circle cx="21" cy="21" r="9" fill="#DFDFDF"/><path d="M26.738 14.066a9.028 9.028 0 0 0-1.251-.87l-12.29 12.29c.254.443.545.861.87 1.252l12.671-12.672ZM16.343 28.703a9.039 9.039 0 0 1-1.774-1.407l12.727-12.727a9.039 9.039 0 0 1 1.407 1.774l-12.36 12.36Zm2.63 1.067a8.976 8.976 0 0 1-.828-.232l11.393-11.393c.09.27.168.547.233.828L18.973 29.77Z" fill="#F8F8F8"/><g clip-path="url(#a)"><circle cx="21" cy="21" r="7.313" fill="#D1D1D1"/><path d="M21 28.313a7.313 7.313 0 0 0 6.46-10.743 14.53 14.53 0 0 0-9.89 9.89 7.28 7.28 0 0 0 3.43.853Z" fill="#C4C4C4"/></g><path d="M26.444 16.118a7.312 7.312 0 0 0-10.326 10.326 7.312 7.312 0 1 1 10.326-10.326Z" fill="#ADADAD"/><defs><clipPath id="a"><rect x="13.688" y="13.688" width="14.625" height="14.625" rx="7.313" fill="#fff"/></clipPath></defs></svg>