<svg width="32" height="32" fill="none" xmlns="http://www.w3.org/2000/svg"><path d="M2 11a9 9 0 1 1 18 0 9 9 0 0 1-18 0Z" fill="#F7931A"/><path d="M15.044 9.886c.176-1.179-.722-1.813-1.95-2.236l.4-1.597-.973-.242-.388 1.555c-.255-.064-.518-.123-.78-.183l.392-1.566-.972-.242-.398 1.597c-.212-.048-.42-.096-.621-.146V6.82l-1.34-.335-.26 1.038s.723.166.707.176c.394.098.465.359.453.566l-.453 1.82a.87.87 0 0 1 .101.031l-.103-.025-.635 2.55c-.049.119-.17.298-.447.23.01.014-.706-.176-.706-.176l-.483 1.113 1.266.315.692.179-.402 1.615.972.242.398-1.597c.265.071.523.138.775.2l-.397 1.591.972.242.402-1.612c1.658.314 2.905.188 3.43-1.312.423-1.207-.021-1.904-.894-2.358.636-.146 1.114-.564 1.242-1.428Zm-2.222 3.115c-.3 1.208-2.333.555-2.992.391l.534-2.14c.66.165 2.772.49 2.458 1.75Zm.3-3.132c-.273 1.098-1.965.54-2.513.403l.483-1.94c.549.136 2.317.391 2.03 1.537Z" fill="#fff"/><path d="M12 21a9 9 0 1 1 18 0 9 9 0 0 1-18 0Z" fill="#EBF0F1"/><path d="M20.999 14.25v9.318l4.217-2.444L21 14.25Z" fill="#12100B" fill-opacity=".8"/><path d="m20.999 14.25-4.218 6.874L21 23.57V14.25Z" fill="#12100B" fill-opacity=".45"/><path d="M20.999 24.357v3.39l4.22-5.838-4.22 2.448Z" fill="#12100B" fill-opacity=".8"/><path d="M20.999 27.747v-3.39l-4.218-2.448L21 27.747Z" fill="#12100B" fill-opacity=".45"/><path d="m20.999 23.572 4.217-2.448L21 19.24v4.332Z" fill="#12100B" fill-opacity=".6"/><path d="M16.781 21.123 21 23.572V19.24l-4.218 1.884Z" fill="#12100B" fill-opacity=".6"/></svg>