<svg width="33" height="32" fill="none" xmlns="http://www.w3.org/2000/svg"><path d="M2.113 11a9 9 0 1 1 18 0 9 9 0 0 1-18 0Z" fill="#F7931A"/><path d="M15.157 9.886c.176-1.179-.722-1.813-1.95-2.236l.399-1.597-.972-.242-.388 1.555c-.256-.064-.518-.123-.78-.183l.392-1.566-.972-.242-.399 1.597c-.211-.048-.42-.096-.62-.146V6.82l-1.34-.335-.26 1.038s.722.166.707.176c.394.098.465.359.453.566l-.453 1.82a.87.87 0 0 1 .1.031l-.102-.025-.636 2.55c-.048.119-.17.298-.446.23.01.014-.706-.176-.706-.176L6.7 13.809l1.266.315.692.179-.402 1.615.971.242.399-1.597c.265.071.523.138.775.2l-.397 1.591.972.242.402-1.612c1.658.314 2.905.188 3.43-1.312.423-1.207-.021-1.904-.894-2.358.636-.146 1.114-.564 1.242-1.428Zm-2.222 3.115c-.3 1.208-2.334.555-2.993.391l.535-2.14c.659.165 2.772.49 2.458 1.75Zm.3-3.132c-.273 1.098-1.965.54-2.514.403l.484-1.94c.549.136 2.316.391 2.03 1.537Z" fill="#fff"/><path d="M12.113 21a9 9 0 1 1 18 0 9 9 0 0 1-18 0Z" fill="#fff"/><path fill-rule="evenodd" clip-rule="evenodd" d="M20.733 12c-1.734.1-3.334.69-4.667 1.633h10.386A8.956 8.956 0 0 0 21.784 12H20.733Zm-6.427 3.266a8.985 8.985 0 0 0-1.068 1.633H29.28a8.978 8.978 0 0 0-1.068-1.633H14.306ZM12.15 20.18c.05-.56.15-1.106.299-1.633h17.317c.148.527.249 1.072.298 1.633H12.15Zm.004 1.633c.052.561.157 1.107.308 1.633h17.29a8.897 8.897 0 0 0 .309-1.633H12.154Zm2.039 4.899a8.99 8.99 0 0 1-1.083-1.633h15.994a8.987 8.987 0 0 1-1.082 1.633H14.193Zm6.534 3.256.027.001.027.001a8.86 8.86 0 0 0 5.455-1.625H15.979a8.859 8.859 0 0 0 4.748 1.623Z" fill="#F44336"/><path d="M20.922 12.005a8.991 8.991 0 0 0-8.77 8.178h8.77v-8.178Z" fill="#283991"/><path d="m13.913 17.085.137.421h.444l-.36.26.138.422-.36-.26-.358.26.137-.422-.359-.26h.444l.137-.421ZM13.913 18.572l.137.422h.444l-.36.26.138.421-.36-.26-.358.26.137-.421-.359-.26h.444l.137-.422ZM15.404 14.853l.137.421h.444l-.36.261.138.421-.36-.26-.358.26.137-.421-.36-.26h.445l.137-.422ZM15.404 16.341l.137.421h.444l-.36.26.138.422-.36-.26-.358.26.137-.422-.36-.26h.445l.137-.421ZM15.404 17.829l.137.421h.444l-.36.26.138.421-.36-.26-.358.26.137-.421-.36-.26h.445l.137-.421ZM12.781 18.931l-.137-.421.359-.26h-.444l-.01-.03a8.58 8.58 0 0 0-.133.456l.006-.005.36.26ZM13.554 16.7l.359-.26.359.26-.137-.421.359-.26h-.444l-.137-.422-.137.421h-.164l-.09.139.169.122-.137.421ZM15.404 14.208l.359.26-.137-.42.358-.261h-.256a8.944 8.944 0 0 0-.63.515l-.054.166.36-.26ZM16.535 13.725l.36-.26.358.26-.137-.422.36-.26h-.444l-.02-.057c-.15.077-.298.157-.444.242l.104.075-.137.422ZM16.895 14.11l.137.42h.443l-.359.261.137.421-.358-.26-.36.26.138-.421-.36-.26h.444l.137-.421ZM16.895 15.597l.137.421h.443l-.359.26.137.422-.358-.26-.36.26.138-.421-.36-.26h.444l.137-.422ZM16.895 17.085l.137.421h.443l-.359.26.137.422-.358-.26-.36.26.138-.422-.36-.26h.444l.137-.421ZM16.895 18.572l.137.422h.443l-.359.26.137.421-.358-.26-.36.26.138-.421-.36-.26h.444l.137-.422ZM18.385 13.366l.137.42h.444l-.359.261.137.421-.359-.26-.359.26.137-.42-.359-.261h.444l.137-.421ZM18.385 14.853l.137.421h.444l-.359.261.137.421-.359-.26-.359.26.137-.421-.359-.26h.444l.137-.422ZM18.385 16.341l.137.421h.444l-.359.26.137.422-.359-.26-.359.26.137-.422-.359-.26h.444l.137-.421ZM18.385 17.829l.137.421h.444l-.359.26.137.421-.359-.26-.359.26.137-.421-.359-.26h.444l.137-.421ZM19.876 12.622l.137.421h.444l-.359.26.137.422-.359-.26-.359.26.137-.422-.359-.26h.444l.137-.421ZM19.876 14.11l.137.42h.444l-.359.261.137.421-.359-.26-.359.26.137-.421-.359-.26h.444l.137-.421ZM19.876 15.597l.137.421h.444l-.359.26.137.422-.359-.26-.359.26.137-.421-.359-.26h.444l.137-.422ZM19.876 17.085l.137.421h.444l-.359.26.137.422-.359-.26-.359.26.137-.422-.359-.26h.444l.137-.421ZM19.876 18.572l.137.422h.444l-.359.26.137.421-.359-.26-.359.26.137-.421-.359-.26h.444l.137-.422Z" fill="#EFEFEF"/></svg>