<svg xmlns="http://www.w3.org/2000/svg" width="24" height="24"><g fill="none" fill-rule="evenodd"><path d="M0 0h24v24H0z"/><path fill="#8DC351" fill-rule="nonzero" d="M19.5 6h-15A1.5 1.5 0 003 7.5v9A1.5 1.5 0 004.5 18h15a1.5 1.5 0 001.5-1.5v-9A1.5 1.5 0 0019.5 6z"/><path fill="#FFF" fill-rule="nonzero" d="M14.394 9.541c-.36-.89-1.264-.97-2.316-.772L11.703 7.5l-.795.222.365 1.236c-.21.058-.422.122-.633.185l-.367-1.245-.795.222.374 1.27c-.17.05-.339.101-.504.147l-.001-.004-1.097.305.244.826s.584-.175.577-.162c.322-.09.48.063.557.212l.428 1.446a.62.62 0 01.085-.019l-.084.024.598 2.026c.015.103.002.276-.223.34.012.005-.579.16-.579.16l.115.967 1.035-.288.569-.154.38 1.284.793-.221-.374-1.27c.213-.055.425-.113.637-.172l.372 1.265.796-.222-.378-1.281c1.315-.447 2.154-1.035 1.91-2.288-.196-1.008-.8-1.314-1.612-1.28.394-.357.563-.839.298-1.49zm-.302 3.055c.284.96-1.44 1.322-1.978 1.473l-.502-1.701c.539-.15 2.184-.772 2.48.229zM13.014 10.3c.257.874-1.183 1.165-1.632 1.29l-.455-1.543c.448-.125 1.818-.657 2.087.254z"/><path stroke="#000" stroke-opacity=".04" stroke-width=".75" d="M19.125 6.375H4.875a1.5 1.5 0 00-1.5 1.5v8.25a1.5 1.5 0 001.5 1.5h14.25a1.5 1.5 0 001.5-1.5v-8.25a1.5 1.5 0 00-1.5-1.5z"/></g></svg>