<svg xmlns="http://www.w3.org/2000/svg" width="32" height="24" viewBox="0 0 32 24">
    <g fill="none" fill-rule="evenodd">
        <g>
            <g transform="translate(-86 -915) translate(86 915)">
                <g>
                    <g fill-rule="nonzero">
                        <path fill="#FFF" d="M6 0H18V16H6z"/>
                        <path fill="#F44336" d="M18 0h4c1.105 0 2 .895 2 2v12c0 1.105-.895 2-2 2h-4V0zM2 0h4v16H2c-1.105 0-2-.895-2-2V2C0 .895.895 0 2 0zM12.001 3.06v.001l.672 1.28c.091.173.288.26.474.207l.639-.177-.417 2.462c-.036.209.222.332.358.171l.976-1.16.1.457c.05.237.29.38.519.312l1.04-.307-.184 1.396c-.023.178.067.352.225.432l.564.286-2.456 1.426c-.254.147-.366.46-.263.74l.21.57-2.105-.183c-.117-.01-.216.085-.212.204l.066 2.288h-.414l.066-2.288c.004-.119-.095-.214-.212-.204l-2.104.182.21-.57c.103-.279-.009-.592-.263-.74L7.035 8.42l.563-.286c.158-.08.249-.254.225-.431L7.64 6.306l1.04.307c.229.068.467-.075.519-.312l.1-.457.976 1.16c.135.16.393.038.357-.17l-.416-2.463.638.177c.186.052.383-.034.474-.207L12 3.06l.001-.002z"/>
                        <rect width="23" height="15" x=".5" y=".5" stroke="#000" stroke-opacity=".04" rx="1"/>
                    </g>
                    <rect width="23" height="15" x=".5" y=".5" stroke="#000" stroke-opacity=".04" rx="2"/>
                </g>
                <g fill-rule="nonzero" transform="translate(8 8)">
                    <path fill="#FFF" d="M22.203.013H1.797C.805.013 0 .831 0 1.84v12.322c0 1.008.805 1.826 1.797 1.826h20.406c.992 0 1.797-.818 1.797-1.826V1.839C24 .831 23.195.013 22.203.013z"/>
                    <ellipse cx="12" cy="8" fill="#ED293F" rx="4.552" ry="4.624"/>
                    <rect width="23" height="15" x=".5" y=".5" stroke="#000" stroke-opacity=".04" rx="1"/>
                </g>
                <rect width="23" height="15" x="8.5" y="8.5" stroke="#000" stroke-opacity=".04" rx="2"/>
            </g>
        </g>
    </g>
</svg>
