<svg width="32" height="32" viewBox="0 0 32 32" fill="none" xmlns="http://www.w3.org/2000/svg">
<path d="M0 14.5856L6.99995 7.58568L9.99995 10.5857L17 3.58568L20 6.58568L26 0.585684V3.41411L20 9.41411L17 6.41411L9.99995 13.4141L6.99995 10.4141L0 17.4141V14.5856Z" fill="#85ACB0"/>
<path d="M27.0001 22L31.7072 17.2929L30.293 15.8787L28.0001 18.1716L28.0001 9.53674e-06H26.5858L26.0001 0.585752L26.0001 18.1716L23.7072 15.8787L22.293 17.2929L27.0001 22Z" fill="#FF444F"/>
<path d="M0 24C0 22.8954 0.895431 22 2 22H17C18.1046 22 19 22.8954 19 24V30C19 31.1046 18.1046 32 17 32H2C0.895431 32 0 31.1046 0 30V24Z" fill="#0E0E0E"/>
<path d="M4.60089 30.1027C4.24726 30.1027 3.9307 30.0485 3.65122 29.9401C3.37174 29.826 3.13504 29.6663 2.94111 29.461C2.75289 29.25 2.60744 28.999 2.50478 28.7081C2.40781 28.4172 2.35933 28.0921 2.35933 27.7328C2.35933 27.3164 2.42207 26.9229 2.54756 26.5521C2.67874 26.1757 2.84415 25.8306 3.04378 25.5169C3.24911 25.1975 3.47726 24.9123 3.72822 24.6613C3.98489 24.4104 4.24156 24.1993 4.49822 24.0282H6.26922C5.90419 24.2906 5.57622 24.5416 5.28533 24.7811C4.99444 25.015 4.74063 25.2517 4.52389 25.4912C4.31285 25.7308 4.13604 25.976 3.99344 26.227C3.85656 26.4723 3.75959 26.7375 3.70256 27.0227L3.77956 27.0483C3.83089 26.9343 3.89078 26.823 3.95922 26.7147C4.03337 26.6063 4.12178 26.5122 4.22444 26.4323C4.33282 26.3468 4.4583 26.2783 4.60089 26.227C4.74348 26.1757 4.90889 26.15 5.09711 26.15C5.34237 26.15 5.57052 26.1956 5.78156 26.2869C5.9983 26.3724 6.18367 26.4951 6.33767 26.6548C6.49737 26.8145 6.62 27.0113 6.70556 27.2451C6.79682 27.4733 6.84245 27.7271 6.84245 28.0066C6.84245 28.3146 6.78826 28.5969 6.67989 28.8536C6.57722 29.1102 6.42607 29.3327 6.22644 29.5209C6.03252 29.7034 5.79867 29.846 5.52489 29.9487C5.25111 30.0513 4.94311 30.1027 4.60089 30.1027ZM4.60089 29.1017C4.88607 29.1017 5.10852 29.0247 5.26822 28.8707C5.42793 28.711 5.50778 28.4857 5.50778 28.1948V28.0408C5.50778 27.7499 5.42793 27.5274 5.26822 27.3734C5.10852 27.2137 4.88607 27.1339 4.60089 27.1339C4.3157 27.1339 4.09326 27.2137 3.93356 27.3734C3.77385 27.5274 3.694 27.7499 3.694 28.0408V28.1948C3.694 28.4857 3.77385 28.711 3.93356 28.8707C4.09326 29.0247 4.3157 29.1017 4.60089 29.1017ZM9.69666 30.1027C8.91525 30.1027 8.33632 29.8317 7.95988 29.2899C7.58344 28.748 7.39521 27.9894 7.39521 27.0141C7.39521 26.0388 7.58344 25.2802 7.95988 24.7383C8.33632 24.1965 8.91525 23.9256 9.69666 23.9256C10.4781 23.9256 11.057 24.1965 11.4334 24.7383C11.8099 25.2802 11.9981 26.0388 11.9981 27.0141C11.9981 27.9894 11.8099 28.748 11.4334 29.2899C11.057 29.8317 10.4781 30.1027 9.69666 30.1027ZM9.69666 29.0161C10.0389 29.0161 10.2756 28.8906 10.4068 28.6397C10.538 28.3887 10.6035 28.0351 10.6035 27.5788V26.4494C10.6035 25.9931 10.538 25.6395 10.4068 25.3886C10.2756 25.1376 10.0389 25.0121 9.69666 25.0121C9.35444 25.0121 9.11773 25.1376 8.98655 25.3886C8.85536 25.6395 8.78977 25.9931 8.78977 26.4494V27.5788C8.78977 28.0351 8.85536 28.3887 8.98655 28.6397C9.11773 28.8906 9.35444 29.0161 9.69666 29.0161ZM14.8267 30.1027C14.0452 30.1027 13.4663 29.8317 13.0899 29.2899C12.7134 28.748 12.5252 27.9894 12.5252 27.0141C12.5252 26.0388 12.7134 25.2802 13.0899 24.7383C13.4663 24.1965 14.0452 23.9256 14.8267 23.9256C15.6081 23.9256 16.187 24.1965 16.5634 24.7383C16.9399 25.2802 17.1281 26.0388 17.1281 27.0141C17.1281 27.9894 16.9399 28.748 16.5634 29.2899C16.187 29.8317 15.6081 30.1027 14.8267 30.1027ZM14.8267 29.0161C15.1689 29.0161 15.4056 28.8906 15.5368 28.6397C15.6679 28.3887 15.7335 28.0351 15.7335 27.5788V26.4494C15.7335 25.9931 15.6679 25.6395 15.5368 25.3886C15.4056 25.1376 15.1689 25.0121 14.8267 25.0121C14.4844 25.0121 14.2477 25.1376 14.1165 25.3886C13.9854 25.6395 13.9198 25.9931 13.9198 26.4494V27.5788C13.9198 28.0351 13.9854 28.3887 14.1165 28.6397C14.2477 28.8906 14.4844 29.0161 14.8267 29.0161Z" fill="white"/>
</svg>
