<svg width="33" height="32" viewBox="0 0 33 32" fill="none" xmlns="http://www.w3.org/2000/svg">
<path d="M0.666016 14.5856L7.66597 7.58568L10.666 10.5857L17.666 3.58568L20.666 6.58568L26.666 0.585684V3.41411L20.666 9.41411L17.666 6.41411L10.666 13.4141L7.66597 10.4141L0.666016 17.4141V14.5856Z" fill="#85ACB0"/>
<path d="M27.6661 22L32.3732 17.2929L30.959 15.8787L28.6661 18.1716L28.6661 9.53674e-06H27.2519L26.6661 0.585752L26.6661 18.1716L24.3732 15.8787L22.959 17.2929L27.6661 22Z" fill="#FF444F"/>
<path d="M0.666016 24C0.666016 22.8954 1.56145 22 2.66602 22H17.666C18.7706 22 19.666 22.8954 19.666 24V30C19.666 31.1046 18.7706 32 17.666 32H2.66602C1.56145 32 0.666016 31.1046 0.666016 30V24Z" fill="#0E0E0E"/>
<path d="M7.44002 26.2954C7.44002 26.7175 7.37442 27.1139 7.24324 27.4847C7.11776 27.8554 6.95235 28.2005 6.74702 28.5199C6.54739 28.8336 6.31924 29.1159 6.06257 29.3669C5.81161 29.6179 5.55779 29.8289 5.30113 30H3.53013C3.89516 29.7376 4.22313 29.4895 4.51402 29.2557C4.8049 29.0161 5.05587 28.7766 5.2669 28.537C5.48365 28.2974 5.66046 28.055 5.79735 27.8098C5.93424 27.5588 6.03405 27.2907 6.09679 27.0056L6.01979 26.9799C5.96846 27.094 5.90572 27.2052 5.83157 27.3136C5.76313 27.4219 5.67472 27.5189 5.56635 27.6044C5.46368 27.6843 5.34105 27.7499 5.19846 27.8012C5.05587 27.8526 4.89046 27.8782 4.70224 27.8782C4.45698 27.8782 4.22598 27.8354 4.00924 27.7499C3.7982 27.6586 3.61283 27.5331 3.45313 27.3734C3.29913 27.2137 3.1765 27.0198 3.08524 26.7917C2.99968 26.5635 2.9569 26.3069 2.9569 26.0217C2.9569 25.7137 3.00824 25.4313 3.1109 25.1747C3.21927 24.918 3.37042 24.6984 3.56435 24.5159C3.76398 24.3277 4.00068 24.1822 4.27446 24.0796C4.54824 23.9769 4.85624 23.9256 5.19846 23.9256C5.55209 23.9256 5.86865 23.9826 6.14813 24.0967C6.42761 24.205 6.66146 24.3647 6.84968 24.5758C7.04361 24.7811 7.18905 25.0292 7.28602 25.3201C7.38868 25.611 7.44002 25.9361 7.44002 26.2954ZM5.19846 26.8943C5.48365 26.8943 5.70609 26.8173 5.86579 26.6633C6.0255 26.5036 6.10535 26.2783 6.10535 25.9874V25.8334C6.10535 25.5426 6.0255 25.3201 5.86579 25.1661C5.70609 25.0064 5.48365 24.9266 5.19846 24.9266C4.91328 24.9266 4.69083 25.0064 4.53113 25.1661C4.37142 25.3201 4.29157 25.5426 4.29157 25.8334V25.9874C4.29157 26.2783 4.37142 26.5036 4.53113 26.6633C4.69083 26.8173 4.91328 26.8943 5.19846 26.8943ZM10.3627 30.1027C9.58127 30.1027 9.00234 29.8317 8.6259 29.2899C8.24945 28.748 8.06123 27.9894 8.06123 27.0141C8.06123 26.0388 8.24945 25.2802 8.6259 24.7383C9.00234 24.1965 9.58127 23.9256 10.3627 23.9256C11.1441 23.9256 11.723 24.1965 12.0995 24.7383C12.4759 25.2802 12.6641 26.0388 12.6641 27.0141C12.6641 27.9894 12.4759 28.748 12.0995 29.2899C11.723 29.8317 11.1441 30.1027 10.3627 30.1027ZM10.3627 29.0161C10.7049 29.0161 10.9416 28.8906 11.0728 28.6397C11.204 28.3887 11.2696 28.0351 11.2696 27.5788V26.4494C11.2696 25.9931 11.204 25.6395 11.0728 25.3886C10.9416 25.1376 10.7049 25.0121 10.3627 25.0121C10.0205 25.0121 9.78375 25.1376 9.65256 25.3886C9.52138 25.6395 9.45579 25.9931 9.45579 26.4494V27.5788C9.45579 28.0351 9.52138 28.3887 9.65256 28.6397C9.78375 28.8906 10.0205 29.0161 10.3627 29.0161ZM15.4927 30.1027C14.7113 30.1027 14.1323 29.8317 13.7559 29.2899C13.3794 28.748 13.1912 27.9894 13.1912 27.0141C13.1912 26.0388 13.3794 25.2802 13.7559 24.7383C14.1323 24.1965 14.7113 23.9256 15.4927 23.9256C16.2741 23.9256 16.853 24.1965 17.2294 24.7383C17.6059 25.2802 17.7941 26.0388 17.7941 27.0141C17.7941 27.9894 17.6059 28.748 17.2294 29.2899C16.853 29.8317 16.2741 30.1027 15.4927 30.1027ZM15.4927 29.0161C15.8349 29.0161 16.0716 28.8906 16.2028 28.6397C16.334 28.3887 16.3996 28.0351 16.3996 27.5788V26.4494C16.3996 25.9931 16.334 25.6395 16.2028 25.3886C16.0716 25.1376 15.8349 25.0121 15.4927 25.0121C15.1504 25.0121 14.9137 25.1376 14.7826 25.3886C14.6514 25.6395 14.5858 25.9931 14.5858 26.4494V27.5788C14.5858 28.0351 14.6514 28.3887 14.7826 28.6397C14.9137 28.8906 15.1504 29.0161 15.4927 29.0161Z" fill="white"/>
</svg>
