<svg width="32" height="32" fill="none" xmlns="http://www.w3.org/2000/svg"><path d="M0 16C0 7.163 7.163 0 16 0s16 7.163 16 16-7.163 16-16 16S0 24.837 0 16Z" fill="#4165A5"/><path fill-rule="evenodd" clip-rule="evenodd" d="M22.89 20.221c.65-1.203.975-2.613.975-4.232 0-1.634-.325-3.053-.976-4.256-.65-1.203-1.607-2.125-2.87-2.768C18.754 8.322 17.238 8 15.467 8h-5.084v5.26H8.13v1.804h2.254V24h5.084c1.77 0 3.287-.33 4.55-.987 1.264-.658 2.22-1.589 2.871-2.792Zm-10.44-5.157v7.075h2.86c2.087 0 3.683-.537 4.788-1.611 1.104-1.075 1.657-2.588 1.657-4.54 0-1.951-.549-3.468-1.646-4.55-1.097-1.082-2.697-1.622-4.8-1.622h-2.86v3.444h4.098v1.804H12.45Z" fill="#fff"/></svg>