<svg width="32" height="32" viewBox="0 0 32 32" fill="none" xmlns="http://www.w3.org/2000/svg">
<g clip-path="url(#clip0_1733_25015)">
<path d="M14 10H2C0.9 10 0 9.1 0 8V2C0 0.9 0.9 0 2 0H14C15.1 0 16 0.9 16 2V8C16 9.1 15.1 10 14 10Z" fill="#020202"/>
<path d="M3.2 7.8H1.6C2.9 6.8 3.8 6 4 4.9H3.9C3.7 5.3 3.4 5.8 2.7 5.8C1.7 5.8 1 5.1 1 4C1 2.8 1.8 2 3.1 2C4.4 2 5.2 2.9 5.2 4.3C5.3 5.8 4.2 7.1 3.2 7.8ZM4 4V3.8C4 3.3 3.7 3 3.1 3C2.6 3 2.3 3.3 2.3 3.8V4C2.3 4.6 2.6 4.9 3.2 4.9C3.7 4.8 4 4.5 4 4Z" fill="white"/>
<path d="M5.80078 4.9C5.80078 3.1 6.40078 2 7.90078 2C9.40078 2 10.1008 3.1 10.1008 4.9C10.1008 6.7 9.40078 7.8 7.90078 7.8C6.40078 7.8 5.80078 6.7 5.80078 4.9ZM8.80078 5.4V4.4C8.80078 3.5 8.50078 3 7.90078 3C7.30078 3 7.10078 3.5 7.10078 4.4V5.5C7.10078 6.3 7.30078 6.8 7.90078 6.8C8.50078 6.8 8.80078 6.3 8.80078 5.4Z" fill="white"/>
<path d="M10.5996 4.9C10.5996 3.1 11.2996 2 12.7996 2C14.2996 2 14.9996 3.1 14.9996 4.9C14.9996 6.7 14.2996 7.8 12.7996 7.8C11.1996 7.8 10.5996 6.7 10.5996 4.9ZM13.5996 5.4V4.4C13.5996 3.6 13.3996 3.1 12.7996 3.1C12.1996 3.1 11.9996 3.6 11.9996 4.4V5.5C11.9996 6.3 12.1996 6.8 12.7996 6.8C13.3996 6.8 13.5996 6.3 13.5996 5.4Z" fill="white"/>
<path d="M6 23H3V26H6V23Z" fill="#F04952"/>
<path d="M9 26H6V29H9V26Z" fill="#F04952"/>
<path d="M3 20H0V23H3V20Z" fill="#F04952"/>
<path d="M29 10H26V13H29V10Z" fill="#F04952"/>
<path d="M26 7H23V10H26V7Z" fill="#F04952"/>
<path d="M32 13H29V16H32V13Z" fill="#F04952"/>
<path d="M23 4H20L11 29H9V32H12.5L21.5 7H23V4Z" fill="#85ABB0"/>
<path d="M27.5 19L23 23.7L24.3 25.1L26.5 22.8V32H28.4V22.8L30.6 25.1L32 23.7L27.5 19Z" fill="#101010"/>
</g>
<defs>
<clipPath id="clip0_1733_25015">
<rect width="32" height="32" fill="white"/>
</clipPath>
</defs>
</svg>
