<svg width="32" height="32" viewBox="0 0 32 32" fill="none" xmlns="http://www.w3.org/2000/svg">
<g clip-path="url(#clip0_1144_23569)">
<path d="M14 0H2C0.89543 0 0 0.89543 0 2V8C0 9.10457 0.89543 10 2 10H14C15.1046 10 16 9.10457 16 8V2C16 0.89543 15.1046 0 14 0Z" fill="#020202"/>
<path d="M3.24 7.78H1.55C2.93 6.79 3.76 6.02 3.99 4.93L3.91 4.9C3.71 5.33 3.38 5.75 2.66 5.75C1.72 5.75 1 5.06 1 3.99C1 2.83 1.84 2 3.13 2C4.42 2 5.26 2.89 5.26 4.25C5.26 5.84 4.2 7.11 3.23 7.77H3.24V7.78ZM4 3.96V3.81C4 3.26 3.67 2.95 3.14 2.95C2.61 2.95 2.28 3.26 2.28 3.81V3.96C2.28 4.51 2.61 4.82 3.14 4.82C3.67 4.82 4 4.51 4 3.96Z" fill="white"/>
<path d="M5.75 4.89C5.75 3.07 6.44 2 7.9 2C9.36 2 10.05 3.06 10.05 4.89C10.05 6.72 9.36 7.78 7.9 7.78C6.44 7.78 5.75 6.72 5.75 4.89ZM8.75 5.42V4.36C8.75 3.51 8.54 3.02 7.9 3.02C7.26 3.02 7.05 3.51 7.05 4.36V5.42C7.05 6.27 7.26 6.76 7.9 6.76C8.54 6.76 8.75 6.27 8.75 5.42Z" fill="white"/>
<path d="M10.5596 4.89C10.5596 3.07 11.2496 2 12.7096 2C14.1696 2 14.8596 3.06 14.8596 4.89C14.8596 6.72 14.1696 7.78 12.7096 7.78C11.2496 7.78 10.5596 6.72 10.5596 4.89ZM13.5596 5.42V4.36C13.5596 3.51 13.3496 3.02 12.7096 3.02C12.0696 3.02 11.8596 3.51 11.8596 4.36V5.42C11.8596 6.27 12.0696 6.76 12.7096 6.76C13.3496 6.76 13.5596 6.27 13.5596 5.42Z" fill="white"/>
<path d="M6 23H3V26H6V23Z" fill="#F04952"/>
<path d="M9 26H6V29H9V26Z" fill="#F04952"/>
<path d="M3 20H0V23H3V20Z" fill="#F04952"/>
<path d="M29 10H26V13H29V10Z" fill="#F04952"/>
<path d="M26 7H23V10H26V7Z" fill="#F04952"/>
<path d="M32 13H29V16H32V13Z" fill="#F04952"/>
<path d="M23 4H20L11 29H9V32H12.47L21.5 7H23V4Z" fill="#85ABB0"/>
<path d="M27.5 32L32 27.29L30.65 25.88L28.46 28.17V19H26.55V28.17L24.36 25.88L23.01 27.29L27.51 32H27.5Z" fill="#101010"/>
</g>
<defs>
<clipPath id="clip0_1144_23569">
<rect width="32" height="32" fill="white"/>
</clipPath>
</defs>
</svg>
