<svg width="33" height="32" viewBox="0 0 33 32" fill="none" xmlns="http://www.w3.org/2000/svg">
<g id="Finalised Icons - update -01" clip-path="url(#clip0_1804_25311)">
<path id="Vector" d="M14.334 10H2.33398C1.23398 10 0.333984 9.1 0.333984 8V2C0.333984 0.9 1.23398 0 2.33398 0H14.334C15.434 0 16.334 0.9 16.334 2V8C16.334 9.1 15.434 10 14.334 10Z" fill="#020202"/>
<g id="1500">
<path d="M1.042 7.50108V6.73399H2.23384V3.76708H2.17678L1.27656 4.94624L0.667969 4.47077L1.72667 3.07607H3.18477V6.73399H4.12302V7.50108H1.042Z" fill="white"/>
<path d="M7.55658 3.90655H5.54694L5.45185 5.30759H5.50256C5.54483 5.20193 5.59132 5.10684 5.64203 5.02231C5.69698 4.93356 5.76037 4.8596 5.83222 4.80043C5.90407 4.73703 5.99071 4.68843 6.09214 4.65462C6.19357 4.62081 6.31402 4.6039 6.4535 4.6039C6.64368 4.6039 6.82119 4.6356 6.98602 4.699C7.15084 4.76239 7.29454 4.85537 7.41711 4.97794C7.53967 5.09628 7.63688 5.2442 7.70872 5.42171C7.78057 5.59499 7.8165 5.79151 7.8165 6.01128C7.8165 6.23528 7.77846 6.44449 7.70238 6.6389C7.63054 6.82908 7.52065 6.99391 7.37273 7.13338C7.22903 7.27285 7.05153 7.38274 6.84021 7.46304C6.62889 7.53911 6.38799 7.57715 6.1175 7.57715C5.90195 7.57715 5.71177 7.55391 5.54694 7.50742C5.38211 7.46093 5.2363 7.39964 5.10951 7.32357C4.98272 7.24327 4.87284 7.1524 4.77986 7.05097C4.68688 6.94954 4.60657 6.84176 4.53895 6.72765L5.22996 6.18245C5.32717 6.35573 5.44339 6.50365 5.57864 6.62622C5.71388 6.74456 5.89562 6.80373 6.12384 6.80373C6.35206 6.80373 6.52323 6.73822 6.63734 6.6072C6.75568 6.47618 6.81485 6.3029 6.81485 6.08736V6.03664C6.81485 5.83378 6.75568 5.67317 6.63734 5.55484C6.519 5.4365 6.35629 5.37733 6.1492 5.37733C5.97592 5.37733 5.83222 5.41325 5.71811 5.4851C5.60822 5.55272 5.52369 5.62034 5.46453 5.68797L4.68476 5.58019L4.84959 3.07607H7.55658V3.90655Z" fill="white"/>
<path d="M9.95045 7.57715C9.37143 7.57715 8.94246 7.3764 8.66352 6.97489C8.38458 6.57339 8.24511 6.01128 8.24511 5.28858C8.24511 4.56587 8.38458 4.00376 8.66352 3.60226C8.94246 3.20075 9.37143 3 9.95045 3C10.5295 3 10.9584 3.20075 11.2374 3.60226C11.5163 4.00376 11.6558 4.56587 11.6558 5.28858C11.6558 6.01128 11.5163 6.57339 11.2374 6.97489C10.9584 7.3764 10.5295 7.57715 9.95045 7.57715ZM9.95045 6.77203C10.204 6.77203 10.3794 6.67905 10.4766 6.49309C10.5738 6.30713 10.6224 6.04509 10.6224 5.70698V4.87017C10.6224 4.53206 10.5738 4.27002 10.4766 4.08406C10.3794 3.8981 10.204 3.80512 9.95045 3.80512C9.69686 3.80512 9.52147 3.8981 9.42426 4.08406C9.32706 4.27002 9.27845 4.53206 9.27845 4.87017V5.70698C9.27845 6.04509 9.32706 6.30713 9.42426 6.49309C9.52147 6.67905 9.69686 6.77203 9.95045 6.77203Z" fill="white"/>
<path d="M13.7517 7.57715C13.1727 7.57715 12.7437 7.3764 12.4648 6.97489C12.1858 6.57339 12.0464 6.01128 12.0464 5.28858C12.0464 4.56587 12.1858 4.00376 12.4648 3.60226C12.7437 3.20075 13.1727 3 13.7517 3C14.3307 3 14.7597 3.20075 15.0386 3.60226C15.3176 4.00376 15.457 4.56587 15.457 5.28858C15.457 6.01128 15.3176 6.57339 15.0386 6.97489C14.7597 7.3764 14.3307 7.57715 13.7517 7.57715ZM13.7517 6.77203C14.0053 6.77203 14.1807 6.67905 14.2779 6.49309C14.3751 6.30713 14.4237 6.04509 14.4237 5.70698V4.87017C14.4237 4.53206 14.3751 4.27002 14.2779 4.08406C14.1807 3.8981 14.0053 3.80512 13.7517 3.80512C13.4981 3.80512 13.3227 3.8981 13.2255 4.08406C13.1283 4.27002 13.0797 4.53206 13.0797 4.87017V5.70698C13.0797 6.04509 13.1283 6.30713 13.2255 6.49309C13.3227 6.67905 13.4981 6.77203 13.7517 6.77203Z" fill="white"/>
</g>
<path id="Vector_2" d="M6.33398 23H3.33398V26H6.33398V23Z" fill="#F04952"/>
<path id="Vector_3" d="M9.33398 26H6.33398V29H9.33398V26Z" fill="#F04952"/>
<path id="Vector_4" d="M3.33398 20H0.333984V23H3.33398V20Z" fill="#F04952"/>
<path id="Vector_5" d="M29.334 10H26.334V13H29.334V10Z" fill="#F04952"/>
<path id="Vector_6" d="M26.334 7H23.334V10H26.334V7Z" fill="#F04952"/>
<path id="Vector_7" d="M32.334 13H29.334V16H32.334V13Z" fill="#F04952"/>
<path id="Vector_8" d="M23.334 4H20.334L11.334 29H9.33398V32H12.834L21.834 7H23.334V4Z" fill="#85ABB0"/>
</g>
<defs>
<clipPath id="clip0_1804_25311">
<rect width="32" height="32" fill="white" transform="translate(0.333984)"/>
</clipPath>
</defs>
</svg>
