<svg width="32" height="32" viewBox="0 0 32 32" fill="none" xmlns="http://www.w3.org/2000/svg">
<g id="Finalised Icons - update -02" clip-path="url(#clip0_1804_25263)">
<path id="Vector" d="M14 32H2C0.9 32 0 31.1 0 30V24C0 22.9 0.9 22 2 22H14C15.1 22 16 22.9 16 24V30C16 31.1 15.1 32 14 32Z" fill="#020202"/>
<path id="Vector_2" d="M3.00703 23.9998H4.60703C3.20703 24.9998 2.40703 25.7998 2.20703 26.8998H2.30703C2.50703 26.4998 2.80703 25.9998 3.60703 25.9998C4.50703 25.9998 5.20703 26.6998 5.20703 27.7998C5.20703 28.9998 4.40703 29.7998 3.10703 29.7998C1.80703 29.7998 1.00703 28.8998 1.00703 27.4998C0.907032 25.9998 2.00703 24.6998 3.00703 23.9998ZM2.20703 27.7998V27.9998C2.20703 28.4998 2.50703 28.7998 3.10703 28.7998C3.60703 28.7998 4.00703 28.4998 4.00703 27.8998V27.7998C4.00703 27.1998 3.70703 26.8998 3.10703 26.8998C2.50703 26.9998 2.20703 27.2998 2.20703 27.7998Z" fill="white"/>
<path id="Vector_3" d="M5.80078 26.9C5.80078 25.1 6.50078 24 8.00078 24C9.50078 24 10.2008 25.1 10.2008 26.9C10.2008 28.7 9.50078 29.8 8.00078 29.8C6.40078 29.8 5.80078 28.7 5.80078 26.9ZM8.80078 27.4V26.3C8.80078 25.5 8.60078 25 8.00078 25C7.40078 25 7.20078 25.5 7.20078 26.3V27.4C7.20078 28.2 7.40078 28.7 8.00078 28.7C8.60078 28.7 8.80078 28.3 8.80078 27.4Z" fill="white"/>
<path id="Vector_4" d="M10.5996 26.9C10.5996 25.1 11.2996 24 12.7996 24C14.2996 24 14.9996 25.1 14.9996 26.9C14.9996 28.7 14.2996 29.8 12.7996 29.8C11.1996 29.8 10.5996 28.7 10.5996 26.9ZM13.5996 27.4V26.3C13.5996 25.5 13.3996 25 12.7996 25C12.1996 25 11.9996 25.5 11.9996 26.3V27.4C11.9996 28.2 12.1996 28.7 12.7996 28.7C13.3996 28.7 13.5996 28.3 13.5996 27.4Z" fill="white"/>
<path id="Vector_5" d="M26 22H29V19H26V22Z" fill="#85ABB0"/>
<path id="Vector_6" d="M23 25H26V22H23V25Z" fill="#85ABB0"/>
<path id="Vector_7" d="M29 19H32V16H29V19Z" fill="#85ABB0"/>
<path id="Vector_8" d="M3 9H6V6H3V9Z" fill="#85ABB0"/>
<path id="Vector_9" d="M6 6H9V3H6V6Z" fill="#85ABB0"/>
<path id="Vector_10" d="M0 12H3V9H0V12Z" fill="#85ABB0"/>
<path id="Vector_11" d="M21 25L12 0H9V3H10.6L19.6 28H23V25H21Z" fill="#F04952"/>
</g>
<defs>
<clipPath id="clip0_1804_25263">
<rect width="32" height="32" fill="white"/>
</clipPath>
</defs>
</svg>
