<svg width="33" height="32" viewBox="0 0 33 32" fill="none" xmlns="http://www.w3.org/2000/svg">
<g clip-path="url(#clip0_1733_25029)">
<path d="M14.666 32H2.66602C1.56602 32 0.666016 31.1 0.666016 30V24C0.666016 22.9 1.56602 22 2.66602 22H14.666C15.766 22 16.666 22.9 16.666 24V30C16.666 31.1 15.766 32 14.666 32Z" fill="#020202"/>
<path d="M3.86602 29.8H2.26602C3.66602 28.8 4.46602 28 4.66602 26.9H4.56602C4.36602 27.3 4.06602 27.8 3.26602 27.8C2.36602 27.8 1.66602 27.1 1.66602 26C1.66602 24.8 2.46602 24 3.76602 24C5.06602 24 5.86602 24.9 5.86602 26.3C5.96602 27.8 4.86602 29.1 3.86602 29.8ZM4.66602 26V25.8C4.66602 25.3 4.36602 25 3.76602 25C3.26602 25 2.86602 25.3 2.86602 25.9V26C2.86602 26.6 3.16602 26.9 3.76602 26.9C4.36602 26.8 4.66602 26.5 4.66602 26Z" fill="white"/>
<path d="M6.4668 26.9C6.4668 25.1 7.1668 24 8.6668 24C10.1668 24 10.8668 25.1 10.8668 26.9C10.8668 28.7 10.1668 29.8 8.6668 29.8C7.0668 29.8 6.4668 28.7 6.4668 26.9ZM9.4668 27.4V26.3C9.4668 25.5 9.2668 25 8.6668 25C8.0668 25 7.8668 25.5 7.8668 26.3V27.4C7.8668 28.2 8.0668 28.7 8.6668 28.7C9.2668 28.7 9.4668 28.3 9.4668 27.4Z" fill="white"/>
<path d="M11.2656 26.9C11.2656 25.1 11.9656 24 13.4656 24C14.9656 24 15.6656 25.1 15.6656 26.9C15.6656 28.7 14.9656 29.8 13.4656 29.8C11.8656 29.8 11.2656 28.7 11.2656 26.9ZM14.2656 27.4V26.3C14.2656 25.5 14.0656 25 13.4656 25C12.8656 25 12.6656 25.5 12.6656 26.3V27.4C12.6656 28.2 12.8656 28.7 13.4656 28.7C14.0656 28.7 14.2656 28.3 14.2656 27.4Z" fill="white"/>
<path d="M26.666 22H29.666V19H26.666V22Z" fill="#85ABB0"/>
<path d="M23.666 25H26.666V22H23.666V25Z" fill="#85ABB0"/>
<path d="M29.666 19H32.666V16H29.666V19Z" fill="#85ABB0"/>
<path d="M3.66602 9H6.66602V6H3.66602V9Z" fill="#85ABB0"/>
<path d="M6.66602 6H9.66602V3H6.66602V6Z" fill="#85ABB0"/>
<path d="M0.666016 12H3.66602V9H0.666016V12Z" fill="#85ABB0"/>
<path d="M21.666 25L12.666 0H9.66602V3H11.266L20.266 28H23.666V25H21.666Z" fill="#F04952"/>
<path d="M28.166 13L32.666 8.3L31.266 6.9L29.066 9.2V0H27.166V9.2L24.966 6.9L23.666 8.3L28.166 13Z" fill="#101010"/>
</g>
<defs>
<clipPath id="clip0_1733_25029">
<rect width="32" height="32" fill="white" transform="translate(0.666016)"/>
</clipPath>
</defs>
</svg>
