<svg width="32" height="32" viewBox="0 0 32 32" fill="none" xmlns="http://www.w3.org/2000/svg">
<g clip-path="url(#clip0_1144_23590)">
<path d="M14 22H2C0.89543 22 0 22.8954 0 24V30C0 31.1046 0.89543 32 2 32H14C15.1046 32 16 31.1046 16 30V24C16 22.8954 15.1046 22 14 22Z" fill="#020202"/>
<path d="M3.24 29.78H1.55C2.93 28.79 3.76 28.02 3.99 26.93L3.91 26.9C3.71 27.33 3.38 27.75 2.66 27.75C1.72 27.75 1 27.06 1 25.99C1 24.83 1.84 24 3.13 24C4.42 24 5.26 24.89 5.26 26.25C5.26 27.84 4.2 29.11 3.23 29.77H3.24V29.78ZM4 25.96V25.81C4 25.26 3.67 24.95 3.14 24.95C2.61 24.95 2.28 25.26 2.28 25.81V25.96C2.28 26.51 2.61 26.82 3.14 26.82C3.67 26.82 4 26.51 4 25.96Z" fill="white"/>
<path d="M5.75 26.89C5.75 25.07 6.44 24 7.9 24C9.36 24 10.05 25.06 10.05 26.89C10.05 28.72 9.36 29.78 7.9 29.78C6.44 29.78 5.75 28.72 5.75 26.89ZM8.75 27.42V26.36C8.75 25.51 8.54 25.02 7.9 25.02C7.26 25.02 7.05 25.51 7.05 26.36V27.42C7.05 28.27 7.26 28.76 7.9 28.76C8.54 28.76 8.75 28.27 8.75 27.42Z" fill="white"/>
<path d="M10.56 26.89C10.56 25.07 11.25 24 12.71 24C14.17 24 14.86 25.06 14.86 26.89C14.86 28.72 14.17 29.78 12.71 29.78C11.25 29.78 10.56 28.72 10.56 26.89ZM13.56 27.42V26.36C13.56 25.51 13.35 25.02 12.71 25.02C12.07 25.02 11.86 25.51 11.86 26.36V27.42C11.86 28.27 12.07 28.76 12.71 28.76C13.35 28.76 13.56 28.27 13.56 27.42Z" fill="white"/>
<path d="M26 22H29V19H26V22Z" fill="#85ABB0"/>
<path d="M23 25H26V22H23V25Z" fill="#85ABB0"/>
<path d="M29 19H32V16H29V19Z" fill="#85ABB0"/>
<path d="M3 9H6V6H3V9Z" fill="#85ABB0"/>
<path d="M6 6H9V3H6V6Z" fill="#85ABB0"/>
<path d="M0 12H3V9H0V12Z" fill="#85ABB0"/>
<path d="M21 25L12 0H9V3H10.57L19.57 28H23.01V25H21.01H21Z" fill="#F04952"/>
<path d="M27.5 0L23 4.71L24.35 6.12L26.54 3.83V13H28.45V3.83L30.64 6.12L31.99 4.71L27.5 0Z" fill="#101010"/>
</g>
<defs>
<clipPath id="clip0_1144_23590">
<rect width="32" height="32" fill="white"/>
</clipPath>
</defs>
</svg>
