<svg width="32" height="32" fill="none" xmlns="http://www.w3.org/2000/svg"><path d="M11 20a9 9 0 1 0 0-18 9 9 0 0 0 0 18Z" fill="#988430"/><path d="M11 19.712a8.712 8.712 0 1 0 0-17.424 8.712 8.712 0 0 0 0 17.424Z" fill="#7A6A2A"/><path d="M11 19.528a8.528 8.528 0 1 0 0-17.056 8.528 8.528 0 0 0 0 17.056Z" fill="#BA9F33"/><path fill-rule="evenodd" clip-rule="evenodd" d="M5.935 10.04c-.05-.047-.105-.094-.154-.14-.05-.047-.1-.094-.152-.14l-.151-.144-.076-.072-.078-.068c-.202-.191-.404-.382-.602-.573l.612.565.071.072c.025.024.051.046.076.071l.151.14c.051.046.1.093.152.144.05.05.1.097.151.144Zm-2.668-.03s.731.076 1.088.127c.33.047 1.365.205 1.365.205l-2.453-.332Zm0 0c.206.018.41.04.616.061l.306.032.154.018.152.022.612.097.305.051c.1.018.201.037.306.054-.1-.01-.205-.025-.306-.04l-.305-.043-.612-.09c-.051-.007-.1-.018-.152-.025l-.154-.018c-.1-.01-.205-.024-.306-.036a18.93 18.93 0 0 1-.616-.083Zm2.38.523s-.78.198-1.044.274c-.26.07-1.045.31-1.045.31l2.089-.584Z" fill="#CFB66C"/><path fill-rule="evenodd" clip-rule="evenodd" d="M5.646 10.532c-.173.051-.345.1-.521.147l-.521.14c-.174.051-.346.1-.519.152l-.259.071c-.086.025-.173.046-.262.071.086-.028.173-.058.26-.083l.258-.083c.174-.053.346-.104.519-.158.176-.044.35-.09.525-.133.168-.042.344-.084.52-.124Zm-1.979 1.065a81.385 81.385 0 0 0 1.307-.602c.115-.053.45-.172.45-.172l-1.757.774Z" fill="#CFB66C"/><path fill-rule="evenodd" clip-rule="evenodd" d="M3.668 11.597c.075-.029.147-.064.22-.098l.215-.1.433-.208c.144-.069.283-.144.432-.209a2.95 2.95 0 0 1 .227-.082l.115-.037.116-.032c-.144.069-.296.127-.44.194-.144.071-.292.13-.44.193l-.44.194c-.148.06-.292.124-.439.185Zm.096.403s.897-.525 1.205-.694c.162-.09.685-.35.685-.35L3.764 12Z" fill="#CFB66C"/><path fill-rule="evenodd" clip-rule="evenodd" d="m3.764 12 .46-.284.23-.14.235-.136c.078-.047.154-.094.234-.137a.837.837 0 0 1 .12-.062l.122-.06c.162-.08.323-.16.494-.228-.155.098-.314.18-.472.267-.079.043-.159.083-.238.126-.078.044-.154.09-.234.133a6.09 6.09 0 0 1-.235.132l-.237.13-.48.26Zm1.883-.929s-.558.428-.739.565c-.18.137-.712.521-.712.521l1.45-1.086Z" fill="#CFB66C"/><path fill-rule="evenodd" clip-rule="evenodd" d="m8.847 14.524-.285-.54.166-.676 1.184-.457-.504-1.034.25-1.044.467-.935 1.444-.227 1.062-1.012 2.292.173.45 2.45-.866 3.087-.494 1.597-2.001.076-.93-.643-1.087-.455-1.148-.36Z" fill="#E2CC85"/><path fill-rule="evenodd" clip-rule="evenodd" d="M12.357 14.507s-.276.127-.748.098c-.137-.184-1.094-.27-1.094-.27s-.12-.036-.33.051c-.213.087-.414.076-.602.123-.188.046-.374-.198-.518-.25a1.97 1.97 0 0 1-.335-.183l-.403-.04-.81-.341-1.286-1.282-.35.547-.108.677.39.803 1.046.954 2.042.518 1.21-.356 1.516-.641.38-.408Z" fill="#F1D789"/><path fill-rule="evenodd" clip-rule="evenodd" d="m5.103 9.977.26-.785.308-.506.995-.083-.299.87-.831 1.48.345 1.321-.612.306-.188-.289-.15-.66-.011-.744.183-.91Z" fill="#F4ECB4"/><path fill-rule="evenodd" clip-rule="evenodd" d="m6.219 14.453-.19-.267s-.052-.127-.023-.237c.03-.112.025-.12.01-.162-.014-.042-.136-.188-.13-.313.008-.127-.01-.169.084-.27.097-.097.068-.266.068-.266l.127.079.029-.044s.046.036.046.093c.01-.078-.032-.442.064-.525.096-.083.267.388.267.388l-.105-.684-.27-.702-.479-.64-.028-.707v-.061s-.22.338-.281.605c-.044.183.06.406.039.67-.018.262-.04.241.025.345.064.104.22.317.158.472-.053.133-.237.04-.237.04s-.036.107-.086.146a.326.326 0 0 0-.071-.144c-.003.025-.01.059-.01.059s-.033-.1-.065-.228c-.043-.168-.09-.391-.132-.51a8.862 8.862 0 0 0-.061.276l.025.32.119.44.115.288.112.353.098.236.078.18.069.407.33.35.177.078.128-.065Z" fill="#F3E19D"/><path fill-rule="evenodd" clip-rule="evenodd" d="M5.277 9.337s-.238.403-.306.81c-.068.406-.13.836-.086 1.39.043.557.126.9.193 1.144.115.406.414.971.414.971l.01-.022a1.534 1.534 0 0 1-.12-.298c-.039-.155-.053-.338-.09-.421-.032-.083-.086-.154-.112-.256-.025-.098-.029-.252-.105-.367a.743.743 0 0 1-.083-.292c-.014-.183.008-.389-.01-.557-.032-.281-.054-.472-.025-.62.03-.147.181-.564.274-.896.061-.213.025-.392.137-.577.112-.184.18-.345.205-.457.03-.102-.297.448-.297.448Z" fill="#F2E8B0"/><path fill-rule="evenodd" clip-rule="evenodd" d="M6.402 9.175s-.122.036-.18.1c-.059.061-.083.112-.162.216-.079.103-.083.188-.147.317-.064.127-.205.318-.223.386-.017.069-.046.389-.083.54a.727.727 0 0 0 .037.338l.083-.017s0 .108.083.18c.082.072.097-.241.097-.241l.31-1.047.468-.318.05-.256-.333-.198Z" fill="#F5EEC0"/><path fill-rule="evenodd" clip-rule="evenodd" d="M6.63 9.65s-.22.014-.328.093c-.044.032-.061.058-.108.098-.086.071-.173.137-.215.23-.047.093-.098.235-.133.501-.014.112-.014.216-.024.306-.015.122-.037.22-.025.288.014.14.159.213.173.371l.298-.151.281-1.109.597-.374-.338-.379-.179.125Z" fill="#E6DB9D"/><path fill-rule="evenodd" clip-rule="evenodd" d="m5.054 17.113.004-.033c.044-.375.051-.659.083-.836.047-.252.079-.346.071-.44-.01-.152-.021-.262-.007-.379.022-.154.173-.338.17-.464-.004-.1-.055-.166-.099-.227l-.078-.113s.298-.205.295-1.032a.075.075 0 0 1 .018.007l.147.418.1.122.386.72.497.482.734.494.46.5.047 1.336-.602.78-.098.179a8.554 8.554 0 0 1-2.128-1.514Z" fill="#E5CB7A"/><path fill-rule="evenodd" clip-rule="evenodd" d="M6.892 18.39s.01-.165.147-.273c.022.037.036.072.032.098a.869.869 0 0 1 .59-.396c.391-.072.486-.357.486-.357l.831-.756.951-.875 1.157-.407.54-.132s.01.04-.01.127c.1-.008.323-.059.555-.14.093-.037.18-.051.227-.003.068.064.079.215.083.306.112-.025.242-.133.345-.123.167.018.314.213.483.213.222 0 .323-.137.479-.245.093-.064.227-.144.303-.198.18-.132 2.09-.716 2.09-.716l.67.043.109.72-.058 1.88-.021.021-3.046 1.591-4.222.647a8.467 8.467 0 0 1-2.7-.928l-.021-.096Z" fill="#D8C173"/><path fill-rule="evenodd" clip-rule="evenodd" d="M5.31 17.353c.06-.126.115-.23.124-.268.007.076.021.242.049.418l-.172-.15Z" fill="#F1D789"/><path fill-rule="evenodd" clip-rule="evenodd" d="m8.395 19.123.546-.152.046.014s.025.015.025.064c.069-.039.127-.032.17-.058.02.047.043.201.139.22.1.022.208-.044.317-.127.108-.085.23-.193.324-.237.034.063.064.127.09.194.122-.098.335-.494.638-.487a1.15 1.15 0 0 1 .42-.508c.282-.19.458-.205.678-.188.087-.113.194-.21.317-.284.036.015.137.076.262.018.127-.058.27-.284.457-.313a.442.442 0 0 1 .292.06s.547-.542.925-.723c-.015-.044-.044-.208.399-.572.024.021.007.083.024.086.007 0 .115-.047.252-.151.17-.127.372-.26.494-.296.23-.069.475.071.475.071a.218.218 0 0 1 .068-.032c.058-.01.1-.017.133-.029-.003.076.039.206 0 .318a.71.71 0 0 0 .143.061c-.024.054-.078.19-.168.256.075.037.085.079.193.116a2.147 2.147 0 0 0-.147.23c-.032.068-.147.352-.198.46-.054.108-.127.306-.162.346-.035.04-.161.208-.259.29.087-.031.44-.139.59-.18l-.488.724a8.544 8.544 0 0 1-6.996.81v-.001Z" fill="#E0CD81"/><path fill-rule="evenodd" clip-rule="evenodd" d="M6.666 9.61s-.127 0-.152.018c-.024.018.127.054.174.072a.398.398 0 0 1 .173.161c.025.062.91.418.91.418l.626-.032.216-.298-.41-.36.288-.849-.382.061-.917.548-.46.176-.066.086Z" fill="#DFC57C"/><path fill-rule="evenodd" clip-rule="evenodd" d="M8.041 9.891a.098.098 0 0 0 .086.047c.13 0 .25.032.299.098.083.104.313.44.313.44l.55.197.036-.648-.601-.418-.685.252v.032h.002Z" fill="#E5CC7C"/><path fill-rule="evenodd" clip-rule="evenodd" d="M7.933 10.132s.1.007.227-.04c.127-.046.335-.147.425-.107.127.053.1.222.238.374.083.093.234.09.32.19.086.101.382.055.382.055l.112.604-.45.577-.147.717h-.61l-.556-.22-.273-.663.136-.67.195-.817Z" fill="#D2C281"/><path fill-rule="evenodd" clip-rule="evenodd" d="M9.11 10.16c.015.005.03.008.046.008-.017.015-.054.047-.04.13.015.083.062.188.023.252a.315.315 0 0 1 .068.12c.025.07.032.136.194.146a.335.335 0 0 0-.064.051s.112.098.169.188a1.39 1.39 0 0 0 .212-.05l.032.021.069-.028s-.064-.025-.018-.181c.044-.137.083-.13.087-.14.003-.01.032-.154.032-.212a2.55 2.55 0 0 0 .04-.306l-.047-.508-.263-.16-.213-.205-.2.379-.133.132-.01.327.016.037Z" fill="#E2C270"/><path fill-rule="evenodd" clip-rule="evenodd" d="M9.74 9.736s.047.133.064.235c.007-.02.01-.04.01-.061 0 0 .037.2.044.284.015-.003.029-.008.032.007.003.014.037.176.029.266.06-.1.144-.184.245-.244a.428.428 0 0 1 .198-.079c.112-.003.193.072.327.072.324 0 .616-.238.832-.31.159-.055.295-.094.392-.181.046-.04.13-.127.205-.257.1-.172.205-.323.31-.342a.65.65 0 0 1-.144.01s.032-.032.087-.075c.054-.044.12-.098.212-.098.166 0 .25.025.342.025.094-.003.147-.025.147-.025s.098.069.318.069c.22.002.367.021.482.032.115.01.501-.032.612-.03a.555.555 0 0 1 .208.052l-.357-1.037-1.282-1.12-.763.54-1.174 1.174-1.135.42-.238.267v.406H9.74Z" fill="#CCB360"/><path fill-rule="evenodd" clip-rule="evenodd" d="M12.289 9.142s.032-.032.086-.076c.053-.043.12-.097.212-.097.166 0 .25.024.343.024a.463.463 0 0 0 .146-.024s.098.068.318.068c.22.003.367.022.482.032.115.01.501-.032.612-.029.072.003.143.02.208.051l-.162-.467-.188-.357-.535-.587-.649-.382a8.86 8.86 0 0 0-.222-.06l-.583.352-.528 1.367-.01.288.341.162c.086-.144.181-.26.27-.274-.08.009-.141.009-.141.009Z" fill="#D5B457"/><path fill-rule="evenodd" clip-rule="evenodd" d="M12.282 9.24c-.051.002-.094-.008-.105-.044-.044-.122-.079-.14-.115-.14-.037 0-.086.079-.116.086-.029.007-.064-.09-.064-.09l-.032-.015s-.188.122-.32.267c-.133.144-.35.389-.447.432-.098.044-.433.058-.547.083a.71.71 0 0 0-.26.127c-.017.019.052.04.062.058.01.018-.112.01-.123.029-.007.014.03.097.047.14a.238.238 0 0 1 .1-.025c.113-.003.194.071.328.071.323 0 .616-.237.832-.31.158-.054.295-.093.391-.18.047-.04.13-.127.206-.257a1.82 1.82 0 0 1 .163-.233Z" fill="#D2B257"/><path fill-rule="evenodd" clip-rule="evenodd" d="M7.645 16.447s-.03-.108-.296-.386c-.076-.079-.122-.144-.173-.19-.127-.12-.201-.152-.292-.22-.198-.148-.413-.148-.58-.328-.165-.18-.359-.526-.493-.878a5.925 5.925 0 0 1-.169-.475c0-.01.037-.079.083-.069.047.01.047.1.058.123.024.035.05.07.079.1.068.079.166.173.216.313a1.416 1.416 0 0 0-.051-.252s.256.162.474.33c.22.17.31.228.375.336.064.108.215.392.288.475.072.083 1.065.396 1.065.396l.473.352.234.514-.183.288-.353.076-.572-.257-.183-.248Z" fill="#D2B159"/><path fill-rule="evenodd" clip-rule="evenodd" d="M6.373 14.676s.12.191.41.372c.263.158.678.303 1.048.389.212.05.425.09.616.093.514.007.868-.14 1.306-.188.238-.025.529-.044.832-.115.389-.094.619-.199.932-.346.227-.105.435-.184.604-.284.238-.14.41-.296.612-.342-.025.068-.051.19-.25.317.106-.003.25-.01.25-.01s-.14.083-.386.27c-.152.115-.352.31-.558.44-.132.082-.277.143-.371.193-.23.127-.324.19-.475.346a.204.204 0 0 1 .058 0s-.19.024-.327.097c-.03 0-.08-.01-.166.015-.069.022-.16.071-.252.097-.133.04-.177.022-.177.022l.022.044s-.173-.003-.23.003c.01.003.007.007.007.007a.09.09 0 0 0-.029.01.299.299 0 0 1-.09.04c-.017.002-.032.002-.054.007.008.017.064.115.09.173-.021.014-.349.262-.349.262a.25.25 0 0 1 .025.05c.01.033.014.08.025.101.024.044.039.051.039.051s-.04.007-.108.025c-.058.014-.13.04-.23.054a.938.938 0 0 1-.094.007c.015.032.079.154-.039.296-.118.14-.154.161-.19.252a.384.384 0 0 0-.059-.037c-.04-.017-.093-.043-.112-.079a.932.932 0 0 1-.044.137c-.036.098-.09.194-.1.267-.04-.044-.112-.13-.213-.112-.1.017-.18.154-.198.194 0-.025-.017-.044-.022-.015a1.107 1.107 0 0 1-.367.638c-.003-.069-.003-.22-.01-.27-.029.03-.064.072-.274.162-.205.09-.172.18-.172.18s-.018-.143.093-.295c.112-.151.18-.223.18-.235a.065.065 0 0 0-.014-.032c-.015-.014-.044-.032-.044-.043.018-.007.19-.09.18-.262a.465.465 0 0 0-.122-.292c-.007-.007.069-.06.059-.078-.008-.01-.1-.079-.113-.115a.333.333 0 0 1 .015-.064c.01-.032.018-.054.015-.076a.606.606 0 0 0-.059-.147c.01.003.083 0 .083 0s-.058-.094-.068-.137c-.01-.044-.032-.159-.044-.18.025.002.086.006.086 0 .003-.023-.054-.059-.029-.087.018.003.051.017.083.058-.017-.047-.046-.137-.108-.173a.264.264 0 0 1 .213.014c.086.051.115.123.115.123l.13.097c.09.072.205.173.389.245.04.022.14.022.212.007a.324.324 0 0 0 .09-.036.196.196 0 0 1 .033-.015.699.699 0 0 0-.054-.09c.025 0 .054.003.054.003s.017-.04-.061-.115c.017-.018.039-.03.039-.059-.025-.002-.069-.039-.079-.053.015-.01.037-.044.061-.054-.021-.018-.075-.09-.1-.098a.455.455 0 0 0 .068-.032s-.122-.032-.161-.058c-.04-.029-.098-.079-.133-.093-.036-.015-.1-.022-.126-.051.024.007.064 0 .093 0 .022 0 .032.003.039.003-.003-.01-.003-.032.054-.04a.268.268 0 0 0 .079-.024s-.054-.003-.116-.062a.448.448 0 0 0-.147-.112c-.036-.007-.105.025-.147.022-.058-.007-.083-.036-.083-.036s-.193.017-.623-.245c-.371-.227-.533-.428-.533-.428a.64.64 0 0 1-.1-.047c-.14-.073-.334-.224-.328-.422v.001Z" fill="#C2A44D"/><path fill-rule="evenodd" clip-rule="evenodd" d="M11.731 5.935a.19.19 0 0 1 .087.058c.068.079.112.227-.044.386.061.022.086.029.14.022-.054.064-.176.201-.184.32-.007.098.054.127.054.127s-.093.108-.098.288a1.25 1.25 0 0 1 .145-.137c.107-.086.256-.183.356-.244a.206.206 0 0 0 .01.075s.188-.154.346-.085c.072.032.04.132.04.132s.097-.036.165.032c.069.069.166.245.215.313.022.033.079.094.137.188.08.133.146.273.198.418.003-.075.022-.193.238-.12.215.077.46.235.665.548.205.313.256.666.36.8.105.13.212.345.22.436.007.09-.032.381.183 1.169.061-.245.154-.788.154-.788l.051-.48.059-1.482-1.548-1.286-1.21-.878-.788.076.05.112Z" fill="#CAA13E"/><path fill-rule="evenodd" clip-rule="evenodd" d="M14.607 8.142s-.021-.144-.385-.39c-.364-.24-.649-.24-.91-.446-.202-.162-.411-.533-.548-.656-.132-.12-.154-.47-.154-.47l.447-.374.665-.962.562-.618.27.374.374.44.208.882.076 1.292-.605.928Z" fill="#B59544"/><path fill-rule="evenodd" clip-rule="evenodd" d="M15.057 9.69a1.641 1.641 0 0 0-.071-.58 10.662 10.662 0 0 0-.404-1.027c-.039-.22-.01-.237.033-.262.042-.025.2-.115.288-.433.087-.317.356-.327.356-.327l.166-.123.252.631.22.57.069.435.05.371-.119.785-.59.533-.25-.573Z" fill="#C89D3A"/><path fill-rule="evenodd" clip-rule="evenodd" d="M6.828 18.439v-.016a.124.124 0 0 0 .032-.03c.01-.014.017-.031.024-.035a.274.274 0 0 1 .12-.022c.036.007.132.046.183.043.105-.003.227-.083.421-.046.291.054.36.252.529.364.115.079.234.044.252.044h.04c.006 0 .06-.062.09-.059.058.003.063.051.1.054.086.01.252-.044.335-.022a.161.161 0 0 1 .105.105.162.162 0 0 1-.04.162c-.09.083-.176.161-.193.23a.837.837 0 0 1 .064.054 8.48 8.48 0 0 1-2.062-.825v-.001Z" fill="#CEB052"/><path fill-rule="evenodd" clip-rule="evenodd" d="M14.582 15.53s.228-.303.306-.453c.079-.155-.249-2.114-.249-2.114l.659-2.156-.018-.702s.032-.648.108-.93c.09.162.371.357.432.46.03-.197.127-.615.113-1.06.053.082.183.917.183.917l.13.562.169.597.188.63.112.436.064.105.054.183.05.198.148.465.086.381.069.692c.014.053.025.107.032.162.002.076-.01.12-.01.133 0 .013.024.165.014.28-.015.116-.015.206-.105.289-.09.082-.147.576-.147.576l-.162-.107s.032-.148-.043-.282a.284.284 0 0 0-.306-.14c-.083.018-.25.044-.303.09-.051.047-.176.192-.291.257-.144.087-.379.093-.504.122-.127.03-.267.116-.414.216a2.308 2.308 0 0 1-.364.192Z" fill="#CCA847"/><path fill-rule="evenodd" clip-rule="evenodd" d="m14.582 18.711.029.017a8.554 8.554 0 0 0 2.726-2.021 14.83 14.83 0 0 0-.031-.71c-.025-.236-.007-.478-.015-.618a8.947 8.947 0 0 0-.122-.856c-.04-.147-.115-.22-.127-.22-.01.003-.071.276-.071.345 0 .07-.015.235-.015.277-.01-.003-.014-.029-.014-.04-.015.037-.032.101-.04.108-.007.008.01-.06 0-.075s-.028-.007-.024-.044a.406.406 0 0 1 .01-.064s-.044.064-.076.227c-.032.162-.032.166-.043.18-.01.018-.069.077-.072.098-.003.04.054.08.059.1.002.037-.052.206-.069.289-.017.082-.01.244-.029.328-.014.075-.029.119-.078.15a.97.97 0 0 1 .07.018s.052.216-.078.4c-.046.063-.058.093-.107.15-.098.109-.174.231-.181.311a.52.52 0 0 1-.01-.071s-.152.176-.216.276c-.083.13-.198.123-.23.155s-.04.09-.029.137c-.029.007-.083.017-.12.13a.273.273 0 0 1-.129.154c-.068.039-.152.05-.194.06.037.011.051.011.069.023-.022.036-.123.093-.235.166a.49.49 0 0 0-.193.234c-.03.061-.072.1-.14.108.029.017.071.058.093.071-.032.008-.086.008-.183.09-.102.085-.137.11-.184.117Z" fill="#C39D3C"/><path fill-rule="evenodd" clip-rule="evenodd" d="M12.556 19.386a.827.827 0 0 1 .18-.095c.227-.09.467-.108.562-.137.09-.029.162-.069.274-.09l-.008.072a8.48 8.48 0 0 1-1.008.25Z" fill="#D2BA6B"/><path fill-rule="evenodd" clip-rule="evenodd" d="M16.746 13.412s-.047.252-.13.41a5.407 5.407 0 0 0-.173.379c0-.05.007-.099.018-.147-.105.06-.36.208-.432.274a1.467 1.467 0 0 0-.213.22c.069-.201.14-.382.152-.465-.105.076-.595.48-.85.746l-.793.642c-.092.05-.186.093-.283.132-.136.058-.298.108-.418.155a.662.662 0 0 1 .155-.235c.076-.071.303-.317.338-.432.032-.12.039-.19-.003-.291-.04.01-.13.014-.19.032-.062.017-.128.083-.128.083s.047-.267.147-.519c-.075.003-.205.025-.205.025s.18-.303.49-.514a1.56 1.56 0 0 0-.277.086c-.18.075-.379.188-.526.249.083-.115.666-.947 1.012-1.722.346-.773.475-.97.55-1.386.04-.205.03-.509.04-.78.01-.27.044-.512.022-.673.09.112.428.428.44 1.134.01.707-.323 1.66-.677 2.174.086.025.31.054.54-.345.23-.4.227-.511.31-.677.01.083.007.112.007.112s.335-.407.494-.918c.032.22.127.414-.022.817-.132.364-.305.453-.305.453s.085-.014.212-.09c.022.054.018.115.054.137.036.021.086.058.093.093.04-.058.1-.133.12-.188-.015.115-.025.62.028.875.113-.01.228-.017.306-.22a.9.9 0 0 0-.017.487.573.573 0 0 0 .113-.114Z" fill="#C0993A"/><path fill-rule="evenodd" clip-rule="evenodd" d="M12.962 5.385s-.112.046-.303.046c-.166 0-.12-.064-.379-.064-.399 0-1.792.23-2.037.227-.159-.003.536.069.536.069l1.775.025.357-.03.132-.269-.081-.004Z" fill="#A88F33"/><path fill-rule="evenodd" clip-rule="evenodd" d="M8.358 8.855s-.227.173-.323.306c-.096.132-.147.22-.256.327a.224.224 0 0 0 .076-.01s0 .029-.018.037a.102.102 0 0 1 .083.028c-.032.018-.12.105-.051.209.051.078.159.085.159.085s-.025.072.078.065c.223-.01.472-.108.587-.083.116.028.181.039.262.18.087.14.162.162.162.162s.051-.13.04-.323a.961.961 0 0 0 .068-.328l-.076-.558-.33-.418-.428.238-.033.083Z" fill="#E3C571"/><path fill-rule="evenodd" clip-rule="evenodd" d="M8.765 8.772s.032.076.166.083c-.015.032-.015.036-.01.06l.007.062a.135.135 0 0 0 .04-.029c.006.032-.008.083 0 .12a.266.266 0 0 0 .02.064.131.131 0 0 1 .008-.015c.003-.007.029.079.1.144 0-.01.003-.02.008-.029a.101.101 0 0 0 .017.051.053.053 0 0 1-.014-.01s.007.23.046.35a.163.163 0 0 0 .018-.025c0-.007-.003.064-.01.115-.01.051-.003.123-.003.123a.382.382 0 0 1 .086-.051c.043-.018.115-.072.158-.191.026-.068.045-.138.059-.209a.29.29 0 0 1 .029.087c.003.036.071.017.071.017l.015-.158.086-.36.079-.223.378-.59.684-.527.597.137.504-.684-.868-.521-.821.085-.746 1.033-.597.936-.107.155Z" fill="#D8B65B"/><path fill-rule="evenodd" clip-rule="evenodd" d="M13.067 7.278s-.051.01-.198.086c-.147.076-.25.1-.306.213-.057.112-.061.2-.061.2s.1-.043.159-.058c.06-.014.13-.01.122.015a.17.17 0 0 1-.029.047s.115-.003.112.053a.3.3 0 0 1-.043.148c-.022.028-.113.071-.123.104-.025.069.01.072-.003.127-.01.054-.058.159-.215.342-.162.184-.23.313-.23.313s-.08-.147-.12-.273c-.029.014-.184.1-.184.1l-.358-1.248.007-.083s.032-.04.04-.112c-.054-.018-.061-.032-.133-.1-.071-.069-.13-.152-.249-.209-.017-.032-.04-.075-.127-.093-.087-.018-.14-.032-.14-.032s.047-.018.07-.054c-.055.007-.098.025-.216.022-.12-.003-.133-.007-.198.003-.066.01-.144.04-.174-.061-.032-.025-.1-.003-.159.083-.058.085-.078.154-.19.188a.39.39 0 0 1-.051.14c-.032.053-.083.107-.152.187-.107.127-.09.335-.262.494-.173.159.029-.44.029-.44l.277-.662.787-.77 1.224-.084.12.634.596.205.377.575Z" fill="#D3AE4D"/><path fill-rule="evenodd" clip-rule="evenodd" d="m13.26 7.417-.514-.741-.36-.277s-.256-.472-.273-.486a3.393 3.393 0 0 0-.411-.047l.029.072a.19.19 0 0 1 .086.058c.069.078.112.227-.044.386.062.022.087.029.14.022-.054.064-.176.2-.183.32-.008.098.054.127.054.127s-.094.107-.098.288c.044-.05.092-.096.144-.137.108-.087.256-.184.357-.245a.205.205 0 0 0 .01.076s.188-.155.346-.086c.071.032.039.132.039.132s.098-.036.166.032c.068.069.166.245.216.314.021.032.078.093.136.187.08.133.146.273.199.418.002-.058.014-.14.115-.14l-.153-.273Z" fill="#CAA13E"/><path fill-rule="evenodd" clip-rule="evenodd" d="M5.553 9.523s-.036-.09 0-.266c.037-.176.093-.26.112-.519.02-.259.188-.582.188-.582l.468-.213.33.09.098.443-.418.23s-.022.098-.14.177c-.118.079-.281.14-.32.22a.641.641 0 0 0-.051.154s-.12-.025-.191.054c-.076.08-.073.152-.076.213Z" fill="#F4EFC8"/><path fill-rule="evenodd" clip-rule="evenodd" d="M6.497 9.405s-.04.025-.068.086c-.03-.046-.098-.323-.1-.572-.004-.25-.019-.31.039-.397.058-.085.283-.176.251-.33-.032-.148-.166-.209-.33-.166-.115.028-.201.273-.32.396-.09.093-.199.078-.228.13-.04.068-.003.136-.014.18a.872.872 0 0 1-.105.188c-.133.19-.357.46-.386.702.01-.137.003-.14.04-.292l-.023-.036.144-.472.094-.389.208-.65.367-.666.357-.4.37.026.045.557.212 1.047.447.55-.716.483-.284.025Z" fill="#EBCC73"/><path fill-rule="evenodd" clip-rule="evenodd" d="M6.72 9.603s-.061.015-.083.003c-.022-.011-.044-.024-.036-.039.007-.015.046-.04.046-.05a.04.04 0 0 0-.036-.045c-.034-.004-.044.018-.044.018s-.032-.025-.058-.029a.403.403 0 0 1 .046-.003.454.454 0 0 0-.126-.036c.036-.022.108-.086.154-.086.047 0 .076-.007.069-.032-.008-.025-.044-.061-.083-.076.014-.017.024-.044-.01-.115-.037-.071-.022-.12-.01-.137.01-.022.046-.061.063-.086.018-.025.032-.058.061-.076a.768.768 0 0 1 .108-.046c.051-.018.093-.04.123-.018.032.022.017.051.017.051s.1-.036.19.01c.091.044.311.072.311.072l.079.159-.522.447-.215.108-.044.007Z" fill="#E5C66B"/><path fill-rule="evenodd" clip-rule="evenodd" d="M7.444 8.872s-.162.108-.199.147c.022.003.059.018.044.04-.017.021-.122.097-.18.169a1.01 1.01 0 0 0-.14.205.739.739 0 0 1-.245.169c.12 0 .36-.147.45-.147-.003.043.025.093.076.097.05.005.198.032.396-.09.198-.12.132-.208.215-.266.16-.105.223-.199.31-.257a.57.57 0 0 1 .133-.071s.003-.044.029-.04a.04.04 0 0 1 .032.025s.152-.108.346-.137a.02.02 0 0 1-.01-.01s.014-.007.017-.014c0 0 .01-.015.017-.008.008.008.018.061.032.083.033-.014.094-.151.094-.151l.147-.421v-.384l-.115.021-.864.367-.525.544-.06.13Z" fill="#E6BD62"/><path fill-rule="evenodd" clip-rule="evenodd" d="M9.93 6.986a.49.49 0 0 0 .134-.054c-.018.047-.018.098-.093.208-.076.111-.08.127-.14.242-.061.12-.069.291-.127.367a.266.266 0 0 1 .083-.025s-.058.051-.083.105-.068.166-.176.235c-.108.068-.245.112-.392.273-.147.16-.298.36-.374.432.04-.068.093-.205.108-.295.014-.09-.003-.198.021-.318.025-.119.025-.205.144-.413.12-.209.324-.932.324-.932l.44-.14.132.314v.001Z" fill="#B6933F"/><path fill-rule="evenodd" clip-rule="evenodd" d="M9.614 6.72s-.133.191-.17.36c-.036.17-.002.154-.024.238a.31.31 0 0 0 0 .154.548.548 0 0 1 .183-.18c.125-.076.227-.13.288-.194.061-.069.112-.181.245-.267-.054-.007-.13-.032-.144-.029.054-.06.215-.154.378-.266.162-.115.152-.162.414-.277-.086.015-.127-.007-.198 0 .029-.061.13-.09.23-.19.101-.101-.064-.25-.064-.25l-.768.465-.371.437Z" fill="#C49937"/><path fill-rule="evenodd" clip-rule="evenodd" d="m7.53 6.373.017-.14.22-.352.23-.619v-.846l-.017-.49.036-.32.028-.102.029-.04.188.098.26.353.024.68-.252 1.073-.72.785-.043-.08Z" fill="#DFC068"/><path fill-rule="evenodd" clip-rule="evenodd" d="M8.102 3.425s-.115.003-.14.483c-.025.479-.036.73-.054.968-.017.237-.058.382-.079.521-.02.14-.032.33-.097.447-.029.054-.09.223-.235.35-.161.14-.403.237-.44.245-.064.014-.388.046-.52.12-.047.024-.127.053-.216.136a2.75 2.75 0 0 0-.58.785c-.26.511-.518 1.954-.518 1.954l.058-.097s.007-.13.137-.357c.127-.227.09-.482.266-.918.069-.166.155-.381.26-.565.166-.298.367-.554.569-.694a1.8 1.8 0 0 1 .695-.277l.391-.26s.069-.132.16-.283c.126-.213.287-.45.322-.795.054-.511-.075-.846-.068-1.15.007-.302.01-.525.071-.579.062-.054.018-.033.018-.033Z" fill="#A88F33"/><path fill-rule="evenodd" clip-rule="evenodd" d="M8.102 5.712s.173-.425.252-.802c.014-.076.043-.152.05-.213.037-.357.047-.504 0-.699-.036-.144-.176-.274-.248-.374-.072-.105-.105-.144-.09-.166a.161.161 0 0 1 .126-.054.434.434 0 0 1 .31.144c.112.13.201.57.201.57l.094.58.237.73-.932.285Z" fill="#C99E3D"/><path fill-rule="evenodd" clip-rule="evenodd" d="M9.726 5.27s-.032.014-.09 0a.13.13 0 0 1-.059.122c-.06-.025-.633.025-.633.025s-.267-.047-.35-.4c-.058-.234.044-.557.01-.77-.05-.313-.122-.374-.13-.471-.006-.098-.014-.123-.014-.184-.032-.007-.05-.017-.083-.017-.007-.03.008-.054-.024-.105.017.007.136.022.276.154.115.108.115.147.133.169.022.022.198.173.274.323.075.15.222.63.256.71a.51.51 0 0 0 .086.136c.085.105.209.279.348.308Z" fill="#B58634"/><path fill-rule="evenodd" clip-rule="evenodd" d="M8.782 3.8c.088.142.168.29.238.443.085.193.136.352.244.482-.058-.17-.161-.501-.223-.62a1.42 1.42 0 0 0-.259-.305Z" fill="#A88F33"/><path fill-rule="evenodd" clip-rule="evenodd" d="M7.792 6.194s-.147.037-.421.181a3.71 3.71 0 0 1-.26.122 4.524 4.524 0 0 1-.63.238.42.42 0 0 0 .022.024s0 .072.04.113c-.022.021-.314.22-.228.882.058-.022.127-.05.137-.05.018.002.022.05.044.05.021 0 .093-.029.169-.127-.003.04-.047.436.187.702.044-.05.155-.22.155-.22l.003-.054s.01-.187.071-.36c.061-.171.18-.298.18-.298l.624-.89-.093-.313Z" fill="#E6C367"/><path fill-rule="evenodd" clip-rule="evenodd" d="M7.21 7.5a.344.344 0 0 1-.094.047.36.36 0 0 1 .061-.284c.1-.147.32-.338.382-.49.04-.097.022-.342.371-.655.35-.313.487-.421.487-.421l.565-.284.694.274-.345 1.353-.268.633-1.065-.2-.789.027Z" fill="#DCBA5A"/><path fill-rule="evenodd" clip-rule="evenodd" d="m7.616 7.133.133-.166V6.85s.147-.04.306-.2c.158-.163.378-.473.572-.454.194.022.213.421.22.533.007.112.032.367.071.504.044.137-.472.655-.472.655l-.35.267-.48-1.02Z" fill="#E9CE77"/><path fill-rule="evenodd" clip-rule="evenodd" d="M8.026 8.515s.108-.169.03-.205c.046-.105.132-.215.132-.215s.06-.152.259-.338c.198-.187.32-.31.352-.436.02-.081.03-.165.032-.249a.473.473 0 0 0 .069.047c.032.014.183.14.162.392-.022.252-.116.356-.116.356s-.09.09-.154.137c-.068.047-.093.1-.208.105a.138.138 0 0 1 .04-.022s-.12-.014-.184.044c-.065.058-.2.237-.27.291l-.143.094Z" fill="#CDAE50"/><path fill-rule="evenodd" clip-rule="evenodd" d="M12.869 5.683a1.754 1.754 0 0 0-.536-.105c-.306-.01-.753.007-1.192.01-.471.003-.9-.162-1.494-.19-.097-.06-.345-.314-1.12.226.047-.003.563-.12.742.105.18.223.13.602.104.692-.046.2-.198.494-.259.699-.06.205-.046.313-.09.457-.044.144-.14.216-.083.382.076-.047.115-.047.242-.33.126-.285.1-.487.31-.728.205-.241.547-.572.677-.655.13-.083 1.162-.619 2.243-.108.26-.027.456-.456.456-.456Z" fill="#D2A83E"/><path fill-rule="evenodd" clip-rule="evenodd" d="M8.963 5.485a.134.134 0 0 0-.007-.032.234.234 0 0 0-.04-.059s-.256-.046-.386-.032c-.227.025-.432.306-.528.45-.097.144-.216.367-.346.482a.048.048 0 0 0-.007-.032s.007.01-.007.025c-.015.015-.015.022-.007.029l.022.022c.007 0 .208-.09.482-.346.29-.267.514-.403.63-.45a.887.887 0 0 1 .194-.057Z" fill="#C29637"/><path fill-rule="evenodd" clip-rule="evenodd" d="M13.935 4.39s-.047.058-.105.122c-.13.137-.299.291-.443.45-.137.151-.291.27-.465.467-.173.198-.374.418-.425.482a.475.475 0 0 0-.083.223 2.111 2.111 0 0 0-.054-.036.362.362 0 0 0 .044.064c.036.051.093.115.122.154.036.05.062.107.076.166.018.003.13.025.27-.205.14-.23.323-.482.323-.482l.291-.433.183-.367.23-.41.036-.195Z" fill="#AC8132"/><path fill-rule="evenodd" clip-rule="evenodd" d="M14.233 4.096s-.176.144-.245.23c-.068.087-.23.313-.23.313l.058-.007.296-.262.115-.205.006-.069Z" fill="#A88F33"/><path fill-rule="evenodd" clip-rule="evenodd" d="M14.179 15.669s-.003-.12.064-.191c.069-.071.242-.176.41-.57.17-.393.189-.481.189-.481s-.303.259-.49.32c.044-.09.068-.155.09-.201-.024-.022-.13-.047-.14-.058.059-.059.09-.201.209-.296.151-.115.428-.313.643-.49.215-.176.638-.586.692-.706.032.047.039.076.039.076s-.213.277-.323.453c-.098.151-.09.237-.09.237l.2-.086s.059.215-.205.543c.115-.044.162-.018.227-.054-.108.069-.256.162-.396.418-.137.256-.323.555-.638.741-.306.197-.482.344-.482.344h.001Z" fill="#A67A2E"/><path fill-rule="evenodd" clip-rule="evenodd" d="M13.39 5.835s-.12.249-.137.443c-.003.046-.015.083-.015.136-.002.174.01.367-.028.458-.015-.037-.022-.061-.037-.076-.022.061-.061.252-.093.323a1.518 1.518 0 0 1-.044-.399c.003-.19.008-.227.008-.266-.008.058-.047.137-.062.183-.021-.039-.046-.09-.075-.132-.018.029-.04.071-.059.093a1.363 1.363 0 0 1-.014-.13c-.003-.075-.007-.173-.003-.193a.877.877 0 0 1 .198-.335c.154-.17.313-.494.36-.594.046-.101.244-.519.244-.519h.152l-.22.501s-.133.274-.201.374c-.069.101-.213.39-.277.502.047-.062.086-.094.133-.152.045-.04.17-.217.17-.217Z" fill="#8C6228"/><path fill-rule="evenodd" clip-rule="evenodd" d="M14.236 4.077a.625.625 0 0 1-.115.208c-.09.108-.284.252-.379.367a.992.992 0 0 0-.18.781c.028-.079.083-.234.227-.41.144-.177.298-.38.374-.537.076-.158.086-.284.086-.284l.029-.036-.018-.083-.024-.006Z" fill="#CBA94C"/><path fill-rule="evenodd" clip-rule="evenodd" d="M17.185 13.736s-.058-.158-.076-.303c-.017-.144.03-.172-.025-.337-.032-.1-.09-.087-.104-.1-.015-.015-.025-.167-.022-.25a.935.935 0 0 0-.018-.237c-.021-.018-.036-.032-.068-.14-.037-.108-.054-.162-.072-.194-.017-.032-.068-.06-.068-.093 0-.064.058-.098.058-.115-.003-.037-.046-.007-.058-.018-.014-.017.037-.122.018-.136-.008-.008-.059.053-.072.036-.015-.018-.032-.19-.058-.306-.025-.112-.051-.193-.054-.227a21.88 21.88 0 0 0-.249-.734 3.47 3.47 0 0 1-.098-.353c-.014-.068-.024-.208-.032-.193-.007.014-.003.086-.014.083-.01-.003-.047-.252-.058-.291-.01-.04-.072-.173-.087-.27-.014-.097-.046-.352-.068-.526-.022-.173-.032-.244-.032-.288a1.793 1.793 0 0 0-.018-.317 2.958 2.958 0 0 0-.137-.536c-.097-.245-.357-.87-.403-1.027 0-.039.051-.017.051-.017s.127.317.22.562c.09.245.176.46.198.482.018.022.154.262.216.655.06.394.082.756.119.998.018.115.032.237.069.36.039.132.1.27.18.479.069.176.12.323.147.45.032.162.032.284.051.364.018.068.044.205.105.403.061.198.151.453.213.612.12.317.172.582.19.724.016.145.07.65.056.8Z" fill="#A88F33"/><path fill-rule="evenodd" clip-rule="evenodd" d="m14.243 4.06-.007.017s.022.007.017.036c0 .04-.002.08-.007.12-.007.05-.022.09-.025.122 0 .068.01.147-.086.342-.029.054-.047.1-.061.133a.392.392 0 0 1-.076.126c.051-.028.235-.144.328-.126a.683.683 0 0 0-.223.2.5.5 0 0 0 .173 0c.161-.024.342-.082.5-.07.174.01.106-.209.106-.209l-.2-.44-.38-.266-.059.014Z" fill="#BE9C44"/><path fill-rule="evenodd" clip-rule="evenodd" d="M15.23 7.353s-.168-.169-.237-.749c-.068-.582-.054-1.44-.054-1.44l-.137-.335s-.028-.222-.1-.305c-.072-.083-.213-.223-.277-.292-.064-.068-.137-.161-.18-.176.021-.036.12-.242.493-.244.375-.003.49.205.529.28.039.076.216.404.28 1.028.062.623.065.67.055.885a5.02 5.02 0 0 1-.115.692c-.063.25-.131.53-.257.657Z" fill="#A17C34"/><path fill-rule="evenodd" clip-rule="evenodd" d="M14.7 7.85a.286.286 0 0 0 .163-.037c.053-.002.248.022.399-.168.01.043.036.161-.033.266.037-.036.09-.05.098-.061.003.054.054.22-.162.623.059-.064.127-.061.188-.068.003.075.044.33-.064.467-.071.093-.188.064-.188.064a.367.367 0 0 0 0-.06c-.003-.04-.017-.08-.007-.106a.523.523 0 0 1-.151-.105c-.127-.12-.292-.323-.303-.474a.187.187 0 0 1 .137-.206.16.16 0 0 1-.032-.04c-.008-.024-.015-.063-.044-.095Z" fill="#8C6228"/><path fill-rule="evenodd" clip-rule="evenodd" d="M13.578 6.018s-.008-.01-.047.037c.008-.047.015-.09.018-.133a.46.46 0 0 1 .071-.108c-.022.044-.036.083-.036.083s.054-.1.132-.161c.054-.044.123-.064.152-.105.032-.044.024-.051.032-.058 0 0 .071-.047.18-.184.015-.018.037-.036.051-.054a2.21 2.21 0 0 0 .152-.071c.071-.04.151-.093.2-.116.098-.043.202-.039.25-.107.036-.01.075-.12.068-.213.054.022.33.194.425.57.069.266-.053.677-.104.875-.051.198-.059.345-.13.435-.09.12-.382.288-.453.372-.061.068-.245.241-.237.367.007.093.122.144.147.161.025.018.024.04.071.029.047-.01.064-.032.083-.032.022.003.022.007.032.007a.105.105 0 0 0 .022-.003s-.007.133-.317.173c-.022.003-.044.01-.072.015.037-.018.058-.018.098-.072-.044-.007-.17-.014-.201-.024a.384.384 0 0 1 .071-.086c.025-.022-.003-.03-.025-.018a1.17 1.17 0 0 0-.107.083c-.037.032-.069.076-.127.115a.284.284 0 0 1 .054-.249c-.018.003-.051.054-.083.044a.464.464 0 0 1 .01-.159.718.718 0 0 1 .112-.18l.457-.817.098-.62-1.047.204Z" fill="#92723A"/><path fill-rule="evenodd" clip-rule="evenodd" d="M13.553 6.053s-.025.017.025.05c-.008.01-.025.047-.047.072-.025.029-.05.047-.061.072-.022.05-.04.085-.04.107a.53.53 0 0 1-.068.252c-.022.032-.046.086-.064.123-.036.064-.068.115-.076.144a1.54 1.54 0 0 0-.024.19l.043-.054a.374.374 0 0 1-.064.105c.018-.014.069-.05.155-.126.119-.1.305-.27.533-.404-.069.025-.127.025-.174.032.037-.036.364-.42.536-.457a.069.069 0 0 0 .015-.046l-.147-.015-.299.064-.043-.23-.2.12Z" fill="#B18E3E"/><path fill-rule="evenodd" clip-rule="evenodd" d="M14.028 7.363s-.04.04-.076.137a.46.46 0 0 1-.071-.097c-.054-.09-.137-.206-.33-.14-.004-.061-.008-.093 0-.137.031-.007.129-.086.226-.201a.93.93 0 0 0 .177-.284c.028-.022.078-.058.144-.1.093-.065.205-.152.222-.25-.043.018-.136.062-.276.054.054-.024.137-.05.126-.158a.851.851 0 0 1 .04-.025.144.144 0 0 0-.051-.007c-.003-.01-.008-.025-.032-.018-.025.007-.029.007-.032.018-.01.003-.044 0-.069.017-.024.018-.093.076-.12.086l.025-.044s-.07.008-.122.03c-.093.031-.2.09-.31.146.01-.017.015-.029.022-.032.007-.003.025-.007.025-.01s-.008-.029-.003-.04a1.34 1.34 0 0 1 .115-.197.386.386 0 0 0 .061-.166l.223-.113.626-.144.406.025-.05.281-.24.491-.206.447-.234.274-.216.157Z" fill="#543E26"/><path fill-rule="evenodd" clip-rule="evenodd" d="M15.043 6.147s-.245.303-.313.35c.043-.093.313-.648.41-.803-.022-.017-.05-.017.018-.288-.058.137-.079.208-.127.245-.048.036-.054.025-.086.025a.061.061 0 0 0 .007-.037s-.206-.025-.346-.025c-.14 0-.418.076-.572.137-.122.051-.19.051-.235.083-.043.037-.068.076-.09.086-.017.01-.1.037-.12.064-.017.03-.046.061-.046.069 0 .007-.007.017.015.01a2.02 2.02 0 0 0 .122-.069c.083-.046.184-.1.256-.132.209-.083.274-.068.367-.086.098-.017.238-.058.33-.058.094-.003.27 0 .311.007-.017.015-.032.032-.025.093 0 .018-.014.037-.029.079a7.08 7.08 0 0 1-.172.418c-.064.137-.137.252-.173.323-.036.071-.115.26-.194.36-.078.1-.12.162-.144.183-.024.022-.2.152-.188.198a.972.972 0 0 0 .382-.251c.147-.166.176-.267.291-.357a.974.974 0 0 0 .26-.367c.044-.117.034-.153.091-.257Z" fill="#806031"/><path fill-rule="evenodd" clip-rule="evenodd" d="M9.77 8.408s-.032.133-.105.198c-.072.064-.198.12-.213.227-.017.108.127.162.127.162s-.079.13-.079.227c0 .1-.003.12.007.216a.096.096 0 0 0-.028.029s.007.093.078.15c.072.06.133.094.17.08l.014.036s.054-.137.09-.256c.036-.123.069-.105.083-.27.014-.164.173-.447.173-.447l.108-.241-.176-.137-.25.026Z" fill="#B6903C"/><path fill-rule="evenodd" clip-rule="evenodd" d="M10.097 8.646c-.036.037-.07.077-.1.119-.047.064-.083.122-.152.147-.068.025-.112.025-.107.093.004.069.068.098.104.133a.17.17 0 0 1 .054.166c.022-.01.062-.022.098-.1.036-.08.29-.558.29-.558h-.187Z" fill="#685026"/><path fill-rule="evenodd" clip-rule="evenodd" d="M11.1 7.54s.023-.059 0-.1c-.021-.044-.154-.06-.22-.109-.068-.05-.15-.086-.22-.064.011-.024.052-.078.018-.09-.032-.01-.151.044-.183.068-.032.025-.105.054-.12.072-.014.017-.039.05-.053.036-.015-.01-.022-.036-.047-.022a.592.592 0 0 0-.166.17.864.864 0 0 1-.22.327c-.149.144-.213.237-.169.291.044.054.064.015.071.061a.393.393 0 0 1-.007.137c-.017.076-.046.147-.007.162.1.032.198-.029.22-.01.043.04-.025.18.078.208.105.029.209-.025.209-.025l.381-.205.367-.194.188-.371-.1-.31-.02-.032Z" fill="#D4B968"/><path fill-rule="evenodd" clip-rule="evenodd" d="M10.74 8.426s-.063-.097.015-.183c.08-.086.191-.123.235-.176a.068.068 0 0 0-.032-.022.29.29 0 0 1 .127-.12.121.121 0 0 0-.083-.039c-.072 0-.116.044-.181.044-.064 0-.071-.032-.071-.032s.107-.01.097-.059c-.01-.05-.029-.05-.029-.05s.209-.087.245-.133c.036-.046.032-.1.04-.122.024 0 .168-.076.226-.044.059.032.018.12.018.12s.176-.133.266-.263c.079.007.115-.054.173-.054.071 0 .184.098.205.306.015.12.037.188.015.399-.01.12-.007.374.029.5.024.101.083.091.083.091a.164.164 0 0 1-.051.079c-.04.036-.044.132-.04.169a.714.714 0 0 0 .022.078s-.046.054-.058.09c-.01.037-.058.062-.093.062-.035 0-.018-.003-.064 0-.047.003-.061.01-.09 0-.03-.01-.052-.022-.04-.115.01-.094-.36-.31-.36-.31l-.604-.216Z" fill="#CCA849"/><path fill-rule="evenodd" clip-rule="evenodd" d="M10.046 9.347s.133.176.678.176c.259 0 .35-.024.403-.039.058-.015.276-.1.496-.36.198-.234.155-.33.155-.33l-.116-.018-.374.051-1.108.472-.134.048Z" fill="#585136"/><path fill-rule="evenodd" clip-rule="evenodd" d="M10.452 9.39s-.472.105-.472-.193c0-.291.292-.597.365-.651.075-.054.256-.115.256-.115h.435l.083.22-.036.474-.63.265Z" fill="#252211"/><path fill-rule="evenodd" clip-rule="evenodd" d="M10.888 8.52s-.09-.083-.296.029c-.205.112-.37.345-.381.558-.01.187.154.327.41.334.191.008.306-.014.365-.028l-.09-.112-.008-.781Z" fill="#C3B378"/><path fill-rule="evenodd" clip-rule="evenodd" d="M10.799 8.567s-.022-.018-.086.017c-.054.03-.133.105-.194.16-.04.031-.064.046-.087.07-.09.108-.166.285-.122.372.044.087.188.188.555.12l-.067-.739Z" fill="#E6D89C"/><path fill-rule="evenodd" clip-rule="evenodd" d="M10.68 8.747s-.059.09-.059.234c0 .148.083.382.39.4.234.014.391-.338.561-.475.13-.105.209-.108.209-.108s-.133-.144-.487-.33c-.35-.188-.741-.213-.954.075.1-.007.426-.09.426-.09l.158.05-.244.244Z" fill="#252211"/><path fill-rule="evenodd" clip-rule="evenodd" d="M11.137 8.937c-.01-.021-.018-.05.025-.058.042-.007.06-.003.075.029s.03.058.008.071c-.022.012-.079 0-.108-.042Zm-.069-.205s-.014.01-.007-.01c.003-.025.022-.069.069-.058.046.01.036.06.028.075-.007.015-.046.04-.075.03a.025.025 0 0 1-.017-.015.024.024 0 0 1-.002-.011c0-.004.002-.008.004-.011Z" fill="#6F674D"/><path fill-rule="evenodd" clip-rule="evenodd" d="M7.126 8.826s.116.086.25.083c.132-.003.302-.14.381-.227.047-.051.086-.105.13-.147.036-.037.06-.054.078-.079.025-.029.051-.083.064-.1-.032.024-.078.068-.126.097a1.5 1.5 0 0 1-.188.098c-.04.014-.447.23-.447.23l-.142.045Z" fill="#AC924C"/><path fill-rule="evenodd" clip-rule="evenodd" d="M7.302 7.75s.064-.044.188-.072c.12-.029.36-.051.36-.051l.198.086.079.299-.145.31-.183.115-.208-.335-.288-.352Z" fill="#9F8E57"/><path fill-rule="evenodd" clip-rule="evenodd" d="m7.043 8.016-.068.051s.017-.032.032-.13a1.2 1.2 0 0 1 .2-.471c.111-.137.109-.13.109-.13a.073.073 0 0 0-.059.014.697.697 0 0 1 .201-.205c.093-.057.13-.075.227-.028.098.047.123.07.194.068.072-.003.133-.079.133-.079s.014.047-.04.155-.266.327-.266.327l-.443.303-.22.125Z" fill="#EAC970"/><path fill-rule="evenodd" clip-rule="evenodd" d="M7.371 7.713s.32.043.418-.047c.003.01.015.01.015.018a.029.029 0 0 1-.008.014.233.233 0 0 1 .032-.003.19.19 0 0 0 .04.008L7.9 7.7a.054.054 0 0 1-.022.036c.014 0 .029.003.029.015 0 .011.003.046-.015.053a.066.066 0 0 1-.044-.003.18.18 0 0 0 .022.08c.03.053.09.114.173.097 0 0 .044.105-.14.338-.024.032-.05.075-.083.112a.425.425 0 0 0-.029.086s.31-.12.4-.392c.09-.274.107-.543.09-.795a.41.41 0 0 0-.032-.159c-.044-.09-.166-.076-.216-.025-.071.072-.19.25-.357.372-.168.122-.176.144-.305.198Z" fill="#D7BC6B"/><path fill-rule="evenodd" clip-rule="evenodd" d="M6.987 8.106s-.062.036-.094.173c-.032.14.03.31.064.364.036.054.116.2.281.208a.308.308 0 0 0 .12-.025.755.755 0 0 0 .162-.1c.071-.054.13-.1.122-.105-.018-.007-.44-.357-.44-.357l-.159-.177-.057.02v-.001Z" fill="#585136"/><path fill-rule="evenodd" clip-rule="evenodd" d="M7.386 8.685s.086-.007.137-.039c.05-.032-.299-.378-.299-.378l.025.374.137.043Z" fill="#453A25"/><path fill-rule="evenodd" clip-rule="evenodd" d="M7.014 8.08s-.044.083-.044.105c-.007.071.015.296.032.367.018.076.112.19.235.19.075 0 .18-.046.18-.058 0-.014-.107-.028-.137-.083a.49.49 0 0 1-.028-.172c-.003-.047-.003-.098.014-.116.04-.043.047-.169.047-.169l.14-.26h-.184l-.22.138-.035.058Z" fill="#84754B"/><path fill-rule="evenodd" clip-rule="evenodd" d="M6.96 8.16s.144-.19.274-.234c.13-.044.188-.018.188-.018l-.076.194-.107.12.007.06s-.018.162.09.274c.108.113.188.108.235.108.046 0 .18-.04.249-.2.06-.152.112-.346-.01-.541a.44.44 0 0 0-.372-.201c-.04 0-.361.016-.478.438Z" fill="#252211"/><path fill-rule="evenodd" clip-rule="evenodd" d="M10.658 8.808c-.054-.024-.003-.176.05-.222a.38.38 0 0 1 .242-.108c.044-.003.086.025.08.054-.011.054-.087.13-.155.183-.095.074-.156.121-.217.093Z" fill="#F7F7E7"/><path fill-rule="evenodd" clip-rule="evenodd" d="M7.745 7.983c.04-.003.09.028.1.071.01.047-.024.14-.1.14-.061 0-.093-.076-.093-.098 0-.018.006-.035.014-.05.003-.005.01-.056.08-.063Z" fill="#F8F6DE"/><path fill-rule="evenodd" clip-rule="evenodd" d="M7.177 8.016s-.1.046-.147.144a.382.382 0 0 0-.03.23.564.564 0 0 0 .069.159c.024.032.058.054.083.05.024-.002.075-.068.075-.107 0-.04.003-.205.051-.296.042-.09-.102-.18-.102-.18Z" fill="#D4C38B"/><path fill-rule="evenodd" clip-rule="evenodd" d="M7.192 8.01c-.018.01-.047.024-.04.043.008.017.069.029.09.071.026.044.026.09.018.112a.177.177 0 0 0 .051-.036c.032-.036.072-.086.105-.086.022 0 .044.01.064.01.032 0 .064-.01.069-.043.007-.044-.061-.083-.1-.076.006-.029.017-.071-.015-.1-.032-.03-.133.021-.155.036-.022.014-.087.068-.087.068Z" fill="#E2D59D"/><path fill-rule="evenodd" clip-rule="evenodd" d="m9.506 11.069.215-.064.061.044s.044.093.112.104c-.021.047-.078.087-.075.12a.101.101 0 0 0 .032.058s-.194.32.188.643c-.09.037-.206.087-.267.115.044.01.137.03.176.065.04.035.04.046.076.068.036.022.058.051.051.064-.025-.014-.108-.058-.122-.017-.015.04-.36.024-.36.024l-.583.113s.022-.059-.039-.113c-.071-.064-.159.003-.252-.068-.122-.093-.127-.201-.166-.242.04-.024.12-.06.31-.086-.007-.015-.032-.059-.017-.098.017-.05.09-.083.068-.144.032-.007.047-.007.127-.107.076-.101.122-.123.18-.13.059-.007.094 0 .202-.1.075-.072.05-.133.05-.133s.05-.016.033-.117Z" fill="#CBAC5A"/><path fill-rule="evenodd" clip-rule="evenodd" d="M8.87 11.1c.002-.014.014-.021.093-.014.078.008.576-.046.712-.054.137-.01.619-.003.853.047.235.05.472.108.587.137.115.032.152.043.147.058-.003.015-.029.029-.043.025-.015-.003-.397-.12-.514-.144a4.653 4.653 0 0 0-.75-.087c-.208.003-.29-.003-.467.018-.176.022-.467.05-.555.04-.086-.011-.068-.011-.064-.026Z" fill="#D6BC6F"/><path fill-rule="evenodd" clip-rule="evenodd" d="M10.042 12.242s.299.162.406.36a.156.156 0 0 1-.046.22s.169 0 .147.093c-.01.059-.291.216-.48.299-.19.083-.183.079-.276.093-.09.015-.338-.029-.389.044-.05.072-.029.147-.014.158a.83.83 0 0 0 .132.025s-.025.069-.27.076c-.244.007-.305.025-.32.05-.014.026.047.011.159.03.112.017.27.029.27.029s-.052.043-.184.078c-.152.04-.389.076-.46.12.036.024.09.06.115.064a.73.73 0 0 0-.162.058l.051.032s-.122.147-.193.184c-.072.036-.482.227-.624.19-.352-.093-.396-.479-.482-.508-.13-.044-.19.044-.306-.018.051-.036.08-.058.133-.083a9.22 9.22 0 0 1-.36-.22 2.226 2.226 0 0 0-.105-.2c-.058-.1-.144-.235-.208-.353-.14-.26-.147-.379-.274-.526.022-.028.098-.024.098-.024l1.062.35 1.882.054.49-.7.208.025Z" fill="#DFC677"/><path fill-rule="evenodd" clip-rule="evenodd" d="M7.253 13.309a.169.169 0 0 0 .04.032c.036.025.09.054.126.097.015-.022.05-.06.115 0 .064.061.144.018.194.032.05.018.054.025.054.025s.028-.025.093-.05c.04-.015.086-.026.137-.04.046-.01.097-.025.132-.025.032.022.147.144.609-.036.435-.17.536-.188.609-.162.007-.018.014-.051.126-.047 0-.046-.093-.205-.093-.205l-.514-.176H8.6l-.843.154-.467.267-.037.134Z" fill="#C4A859"/><path fill-rule="evenodd" clip-rule="evenodd" d="M6.972 13.012s.01.08.126.162c.116.083.152.133.152.133s.022-.03.04-.059c.017-.032.031-.068.06-.078.059-.025.191.022.22.014.025-.007.018-.058.044-.058.061-.003.1.04.122.04.022 0 .076-.004.083-.015.007-.012.01-.133.093-.191a.249.249 0 0 1 .23-.022c0 .022.004.076.062.079.058.003.064-.007.115.01.051.018.112-.003.14.083.025-.007.083-.014.068-.098.03-.021.054-.036.116-.122.014-.022.039-.046.058-.079.05 0 .112-.01.193.062-.024.017-.039.029-.046.046.021.021.04.044.058.069.022.029.037.064.064.071.061.018.162-.007.274 0a.552.552 0 0 1 .237.071c.015-.007.015-.01.051-.002.037.007.064.01.025-.037.022.01.047.032.069.01.021-.022.039-.054.1-.06.061-.008.083.002.108-.062.032-.079-.079-.079-.079-.079s.051-.046.108-.107c.068-.064.147-.147.166-.25.032-.187-.151-.212-.151-.212l-.89.274L7.9 12.55l-.928.462Z" fill="#927D49"/><path fill-rule="evenodd" clip-rule="evenodd" d="M6.172 10.442s-.028.037-.046.123-.01.075-.025.136c-.014.062-.194.67-.127.876.068.205.184.28.257.447.014.036.029.058.036.09.025.108.003.19.032.299a.33.33 0 0 0 .076.122c.086.09.227.176.288.237.086.09.208.274.364.292a.525.525 0 0 0 .299-.083c.086-.054.14-.13.23-.173.064-.032.132-.044.194-.058a.876.876 0 0 1 .31-.015c.105.022.352.098.49.098a1.36 1.36 0 0 0 .317-.044c.208-.061.46-.166.626-.213.098-.029.176-.036.256-.053.137-.033.252-.076.318-.16-.044-.05-.098-.129-.389-.126-.33.007-.712.19-.9.22-.188.03-.27.054-.48-.022-.205-.077-.212-.127-.212-.127s-.215-.151-.306-.536c-.09-.385 0-.665.235-.932.06-.069.046-.13.046-.13s.155-.208.112-.403c-.046-.194-.345-.154-.345-.154l-1.655.29Z" fill="#6E6342"/><path fill-rule="evenodd" clip-rule="evenodd" d="M6.421 11.09a.15.15 0 0 0-.017.08c.003.039.015.09.132.205.101.1.08.212.08.212s.05.01.187-.054c.108-.05.144.04.144.04a.304.304 0 0 1 .1-.032.222.222 0 0 0 .09-.03s.127.13.238.192c.1.054.159.09.208.054.047-.033.047-.098.044-.127a.377.377 0 0 0-.044-.076c-.032-.046-.083-.1-.086-.144-.007-.1.076-.22.058-.249-.017-.03-.083-.036-.244.022-.168.055-.89-.092-.89-.092Z" fill="#39331F"/><path fill-rule="evenodd" clip-rule="evenodd" d="M6.803 11.742s-.083-.08-.054-.46a.416.416 0 0 1 .105.01s.045.295-.051.45Z" fill="#292311"/><path fill-rule="evenodd" clip-rule="evenodd" d="M6.212 10.15a.23.23 0 0 0 .032-.028c-.029.054-.162.27-.054.608.108.338.379.59.712.602.334.012.509-.152.71-.396.078-.098.168-.22.248-.303.12-.13.213-.166.213-.291 0-.257-.262-.372-.648-.487-.386-.115-.734-.1-.915-.022-.176.086-.252.176-.298.318Z" fill="#252211"/><path fill-rule="evenodd" clip-rule="evenodd" d="m7.451 11.856.029-.014s.007-.116.054-.112c.046.007.068.068.064.09-.003.022-.015.058-.061.054-.062.001-.086-.018-.086-.018Z" fill="#3F3824"/><path fill-rule="evenodd" clip-rule="evenodd" d="M7.321 11.367s.03-.01.064.024c.03 0 .155-.014.194.01.04.025.051.047.051.047s-.147.032-.227 0c-.082-.027-.082-.081-.082-.081Z" fill="#2D2815"/><path fill-rule="evenodd" clip-rule="evenodd" d="M7.97 11.39a.36.36 0 0 0-.162-.08c-.015-.002-.018.008-.029.008-.007-.003-.01-.025-.01-.025l-.047.025s-.008.01.017.029c.022.017.058.032.069.06.01.03.01.04.014.044a.16.16 0 0 0 .079-.014c.025-.015.071-.038.068-.048Z" fill="#82764F"/><path fill-rule="evenodd" clip-rule="evenodd" d="M7.234 11.684s.014-.1.112-.104c.1-.008.12.09.12.09l-.059.058c0-.001-.044-.063-.173-.044Z" fill="#2D2816"/><path fill-rule="evenodd" clip-rule="evenodd" d="M7.867 11.252s-.054.058-.173.076c-.01-.015-.032-.044 0-.09.032-.047.068-.062.105-.047a.086.086 0 0 1 .068.061Z" fill="#574F35"/><path fill-rule="evenodd" clip-rule="evenodd" d="M8.087 11.324c.003-.015-.007-.018 0-.025.007-.007.047-.022.054-.015.003.003 0 .015 0 .03 0 .013 0 .028-.007.038-.01.015-.04.022-.054.018-.015-.004-.018-.025-.018-.029.008-.003.025-.01.025-.017Zm.249-.158c0-.007.025-.021.04-.021.021 0 .021.017.024.021.007.003.007-.003.014.01.008.014.018.037.01.052-.007.014-.036.024-.043.021a.388.388 0 0 1-.045-.083Z" fill="#82764F"/><path fill-rule="evenodd" clip-rule="evenodd" d="M7.835 11.357s.033.007.076.043c-.014.01-.036.022-.036.022s-.003-.034-.04-.066Z" fill="#6E6342"/><path fill-rule="evenodd" clip-rule="evenodd" d="M7.764 11.036c-.007-.007.022-.025.04-.022.017.003.024.015.043.018.02.002.022-.008.03-.015.006-.007.031-.003.035 0a.08.08 0 0 1 .008.01.04.04 0 0 1 .014-.029.047.047 0 0 1 .04-.007c.002.01.017.047.014.054-.003.007-.046.018-.054.01.008.018.04.054.044.061.004.008-.032.025-.047.022a.594.594 0 0 1-.167-.102Zm.191-.242a.034.034 0 0 0-.014-.017c-.01-.003-.044 0-.044.017a.54.54 0 0 0 .061.166c.036.051.061.093.086.105a.034.034 0 0 0 .044-.014.881.881 0 0 0 .007-.188 1.727 1.727 0 0 0-.015-.257c-.007-.007-.036-.007-.046.008a1.34 1.34 0 0 0-.079.18Z" fill="#585136"/><path fill-rule="evenodd" clip-rule="evenodd" d="M7.825 11.54s-.05-.032-.1-.01c-.047.022-.044.108-.044.108a.069.069 0 0 0 .064-.007c.032-.022.073-.059.08-.09Z" fill="#574F35"/><path fill-rule="evenodd" clip-rule="evenodd" d="M7.921 11.656c-.003-.029-.028-.029-.028-.044a.033.033 0 0 1 .032-.025c.014 0 .028.018.046.03.018.01.044.028.047.05.003.022-.029.083-.064.083s-.025-.066-.032-.095Zm.281-.04s-.058.018-.053 0c.004-.017.017-.021.036-.021a.058.058 0 0 1 .036-.018c.008 0 .016.002.022.007 0 0 .04-.017.051-.007.012.01.003.01.01.022a.09.09 0 0 1 .018.044c0 .011-.044.036-.079.032-.04-.009-.033-.051-.04-.059Zm.34-.065s.017.01.003.022a.238.238 0 0 1-.105.032c-.044 0-.083.007-.083-.008 0-.014.036-.043.058-.05a.047.047 0 0 1 .016-.013.047.047 0 0 1 .02-.005c.018 0 .086-.007.105-.01.018-.003.032.007.022.022-.004.01-.036.01-.036.01Zm.1-.45s-.022.047-.046.047c-.025-.003-.025-.01-.025-.018 0-.01.025-.036.022-.043-.007 0-.025 0-.022-.018 0-.014.025-.032.046-.029a.096.096 0 0 1 .059-.021c.025 0 .046.007.046.021 0 .015-.028.047-.039.054-.012.012-.026.02-.04.008Zm-.332.86s-.029.004-.029.018c0 .008.008.008.018.003a.074.074 0 0 0 .017-.003c.003.003.003.018.025.018a.138.138 0 0 0 .051-.018c.018-.007.032-.014.032-.028-.007-.025-.022-.037-.044-.037a.059.059 0 0 0-.032.007s-.007-.014-.032 0c-.024.015-.022.015-.014.022.013.012.008.02.008.02v-.001Zm-.164.152c0-.007.036-.022.046-.017.01.003.04.058.04.064 0 .007-.037.025-.052.025-.014 0-.039-.025-.039-.03 0-.002.018-.006.018-.01.004-.006-.013-.024-.013-.031Zm-.116-.212c.008-.003.008-.01.018-.018a.025.025 0 0 1 .022-.003.036.036 0 0 1 .025-.017c.017-.003.032 0 .028.007 0 .022.015.037.015.054s-.01.04-.047.054a.257.257 0 0 1-.093.007c-.007-.003-.014-.032-.007-.046a.12.12 0 0 1 .04-.038Z" fill="#82764F"/><path fill-rule="evenodd" clip-rule="evenodd" d="M8.077 11.91s-.025.015-.025.022a.065.065 0 0 0-.003.022c0 .004.032-.003.037-.008.001-.002-.009-.028-.009-.036Z" fill="#6E6342"/><path fill-rule="evenodd" clip-rule="evenodd" d="M7.86 11.842c.015.003.04 0 .058.007.015.007.025.022.01.04-.014.017-.028.043-.06.039-.037-.003-.072-.022-.072-.037a.07.07 0 0 1 .018-.05c.014-.012.021-.005.046 0Z" fill="#585136"/><path fill-rule="evenodd" clip-rule="evenodd" d="M7.843 11.856s-.047.037-.058.054c-.015.018-.086.108-.108.127a.283.283 0 0 1 .025-.036.15.15 0 0 0-.062.078c-.017.054.098.083.174.105.075.022.105.029.105.029a.814.814 0 0 1-.072-.132c-.029-.069-.043-.076-.025-.108.015-.032.037-.054.037-.079l-.016-.038Z" fill="#574F35"/><path fill-rule="evenodd" clip-rule="evenodd" d="M6.182 11.972a.09.09 0 0 0 .032 0c.022-.003.25-.087.487-.072.178.011.354.04.526.087.298.078.67.234.91.323.064.025.126.068.172.086.184.071.191.071.3.09.126.018.255-.025.39-.054.167-.036.45-.054.7-.09.08-.011.16-.03.237-.054 0 0-.198.198-.673.27a2.126 2.126 0 0 1-.58.007 1.761 1.761 0 0 1-.327-.058c-.086-.025-.262-.09-.479-.144-.151-.04-.32-.069-.514-.105-.478-.088-.996-.188-1.18-.286Z" fill="#252211"/><path fill-rule="evenodd" clip-rule="evenodd" d="M5.646 11.071a7.83 7.83 0 0 1-.356.281l-.36.277c-.122.09-.242.183-.364.274-.123.09-.245.176-.375.259.116-.098.238-.188.36-.277.122-.089.25-.176.367-.266l.36-.277c.124-.09.243-.183.368-.27Zm-.636 1.02s.13-.108.291-.26c.201-.187.447-.428.526-.471l-.817.73Z" fill="#CFB66C"/><path fill-rule="evenodd" clip-rule="evenodd" d="M5.01 12.09a4.98 4.98 0 0 1 .201-.187l.105-.09c.032-.03.069-.062.1-.094.065-.064.127-.132.191-.198a1.45 1.45 0 0 1 .1-.093.273.273 0 0 1 .06-.04c.017-.01.036-.028.06-.032-.014.022-.032.033-.046.051-.018.015-.032.033-.047.047-.032.032-.068.061-.1.09-.069.059-.14.115-.209.176-.068.061-.132.127-.2.188-.075.063-.143.124-.215.183Zm.871-.582s-.475.465-.572.54l.572-.54Z" fill="#CFB66C"/><path fill-rule="evenodd" clip-rule="evenodd" d="M5.881 11.508c-.043.05-.089.096-.137.14l-.144.136c-.047.047-.09.094-.14.14-.05.044-.097.087-.151.127l.14-.137c.046-.046.097-.086.147-.132l.14-.137c.047-.048.094-.095.145-.137Zm.022.252a3.028 3.028 0 0 1-.155.357c-.122.244-.305.55-.386.706l.54-1.063Z" fill="#CFB66C"/><path fill-rule="evenodd" clip-rule="evenodd" d="M5.903 11.76c0 .054-.014.1-.032.147a1.447 1.447 0 0 1-.13.27c-.024.042-.053.085-.075.129l-.147.26c-.051.085-.1.172-.155.255.037-.093.086-.18.133-.266.05-.086.097-.173.144-.262.023-.045.043-.09.061-.137.022-.047.044-.09.061-.133.022-.046.04-.09.061-.132.025-.045.045-.089.079-.131Z" fill="#CFB66C"/><path fill-rule="evenodd" clip-rule="evenodd" d="M6.421 12.954s-.144.19-.13.433c.04-.127.09-.32.13-.433Zm.137.191s-.05.519-.093.774c.06-.295.071-.27.093-.774Zm.954.804s-.216.634-.22.81c.047-.181.137-.551.22-.81Z" fill="#DEC270"/><path fill-rule="evenodd" clip-rule="evenodd" d="M8.016 12.915s.35.577.612 1.069c-.071-.248-.234-.702-.612-1.069Z" fill="#CBAF59"/><path fill-rule="evenodd" clip-rule="evenodd" d="M8.956 13.764c.191.339.365.689.518 1.047a1.6 1.6 0 0 0-.518-1.047Z" fill="#E3C677"/><path fill-rule="evenodd" clip-rule="evenodd" d="M11.717 14.615c.058-.037.173-.235.273-.284.1-.051.176-.061.267-.162.09-.105.115-.169.313-.252.277-.12.086-.274.086-.274a.895.895 0 0 1 .098-.083c.071-.054.154-.12.147-.234-.01-.194-.047-.475-.205-.638.154-.032.45-.054.633-.1.213-.054.31-.13.31-.13s-.122-.208.076-.418.36-.335.48-.57c-.138-.017-.346-.09-.879.113a.655.655 0 0 1 .083.046s-.327.09-.447.191c-.208.176-.235.32-.46.428-.226.108-.453.079-.64.166-.189.088-.216.162-.285.194.015.017-.003.046.025.071-.018.025-.12.19-.223.19.01.04.098.07.098.07s-.065.046-.228.058c.083.086.162.18.38.317-.018.037-.091.09-.062.159.032.068.115.162.447.237-.169.007-.367.047-.634.01-.266-.032-.31-.05-.474-.01.017.018.064.018.104.064-.043.003-.317-.032-.41.09a.794.794 0 0 0-.133.475c-.05.025-.1.069-.075.16.024.09.154.119.237.175.083.062.09.083.169.069.083-.018.205-.1.277-.1.071 0 .122.053.122.053s.194-.093.213-.075c.017.017.002.13.021.146.02.014.238-.116.296-.152Z" fill="#ECD592"/><path fill-rule="evenodd" clip-rule="evenodd" d="M15.95 8.787C15.04 6.437 12.79 6 12.79 6H6.37l.025 2.394h1.278v5.346H6.37v2.39h6.242c1.504 0 2.71-1.512 2.71-1.512 1.931-2.74.628-5.832.628-5.832Zm-3.305 4.222s-.49.706-1.022.706h-1.066l-.025-5.314H11.9s.633.132 1.076 1.386c0 0 .587 1.795-.33 3.222Z" fill="#fff" fill-opacity=".8"/><path d="M12 21a9 9 0 1 1 18 0 9 9 0 0 1-18 0Z" fill="#fff"/><path fill-rule="evenodd" clip-rule="evenodd" d="M20.62 12c-1.734.1-3.335.69-4.668 1.633h10.386A8.956 8.956 0 0 0 21.671 12H20.62Zm-6.428 3.266a8.985 8.985 0 0 0-1.067 1.633h16.041a8.973 8.973 0 0 0-1.068-1.633H14.192Zm-2.155 4.915c.05-.56.15-1.106.298-1.633h17.317c.148.527.25 1.072.299 1.633H12.037Zm.003 1.633a9.06 9.06 0 0 0 .308 1.633H29.64a8.897 8.897 0 0 0 .308-1.633H12.041Zm2.04 4.899a8.99 8.99 0 0 1-1.083-1.633H28.99a8.981 8.981 0 0 1-1.082 1.633H14.08Zm6.533 3.256.028.001.027.001a8.86 8.86 0 0 0 5.454-1.625H15.866a8.859 8.859 0 0 0 4.747 1.623Z" fill="#F44336"/><path d="M20.808 12.005a8.991 8.991 0 0 0-8.77 8.179h8.77v-8.18Z" fill="#283991"/><path d="m13.8 17.085.137.421h.444l-.36.26.138.422-.36-.26-.358.26.137-.422-.36-.26h.445l.137-.42Zm0 1.488.137.42h.444l-.36.261.138.421-.36-.26-.358.26.137-.42-.36-.261h.445l.137-.421Zm1.49-3.72.138.422h.443l-.359.26.137.421-.358-.26-.36.26.138-.42-.36-.261h.444l.137-.422Zm0 1.488.138.421h.443l-.359.26.137.422-.358-.26-.36.26.138-.422-.36-.26h.444l.137-.42Zm0 1.488.138.421h.443l-.359.26.137.421-.358-.26-.36.26.138-.42-.36-.26h.444l.137-.422Zm-2.622 1.102-.137-.42.359-.261h-.444l-.01-.03c-.049.15-.093.302-.133.456l.006-.005.359.26Zm.772-2.231.36-.26.359.26-.138-.421.36-.26h-.444l-.137-.422-.138.421H13.5l-.09.139.169.122-.137.421Zm1.85-2.492.36.26-.138-.42.36-.261h-.257a8.941 8.941 0 0 0-.63.516l-.054.165.36-.26Zm1.132-.483.36-.26.358.26-.137-.422.359-.26h-.444l-.018-.056c-.15.076-.3.156-.445.24l.104.076-.137.422Zm.359.385.137.42h.444l-.359.261.137.421-.359-.26-.359.26.137-.42-.359-.261h.444l.137-.421Zm0 1.487.137.421h.444l-.359.26.137.422-.359-.26-.359.26.137-.421-.359-.26h.444l.137-.422Zm0 1.488.137.421h.444l-.359.26.137.422-.359-.26-.359.26.137-.422-.359-.26h.444l.137-.42Zm0 1.488.137.42h.444l-.359.261.137.421-.359-.26-.359.26.137-.42-.359-.261h.444l.137-.421Zm1.491-5.207.137.42h.444l-.359.261.137.421-.359-.26-.36.26.138-.42-.359-.261h.444l.137-.421Zm0 1.487.137.422h.444l-.359.26.137.421-.359-.26-.36.26.138-.42-.359-.261h.444l.137-.422Zm0 1.488.137.421h.444l-.359.26.137.422-.359-.26-.36.26.138-.422-.359-.26h.444l.137-.42Zm0 1.488.137.421h.444l-.359.26.137.421-.359-.26-.36.26.138-.42-.359-.26h.444l.137-.422Zm1.491-5.207.137.421h.444l-.36.26.138.422-.36-.26-.358.26.137-.422-.36-.26h.445l.137-.42Zm0 1.488.137.42h.444l-.36.261.138.421-.36-.26-.358.26.137-.42-.36-.261h.445l.137-.421Zm0 1.487.137.421h.444l-.36.26.138.422-.36-.26-.358.26.137-.421-.36-.26h.445l.137-.422Zm0 1.488.137.421h.444l-.36.26.138.422-.36-.26-.358.26.137-.422-.36-.26h.445l.137-.42Zm0 1.488.137.42h.444l-.36.261.138.421-.36-.26-.358.26.137-.42-.36-.261h.445l.137-.421Z" fill="#EFEFEF"/></svg>