<svg width="33" height="32" fill="none" xmlns="http://www.w3.org/2000/svg"><path d="M2.613 11a9 9 0 1 1 18 0 9 9 0 0 1-18 0Z" fill="#C2A633"/><path fill-rule="evenodd" clip-rule="evenodd" d="m6.547 10.04-.155-.14-.151-.14-.152-.144c-.024-.025-.05-.047-.075-.072l-.079-.068c-.201-.191-.403-.382-.601-.573.205.188.406.375.611.565l.072.072.075.071.152.14c.05.046.1.093.151.144.051.05.1.097.152.144Zm-2.668-.03s.73.076 1.088.127c.33.047 1.364.205 1.364.205l-2.452-.332Zm0 0c.205.018.41.04.616.061l.306.032.154.018.151.022.612.097.306.051c.1.018.2.037.306.054-.1-.01-.206-.025-.306-.04l-.306-.043-.612-.09c-.05-.007-.1-.018-.151-.025l-.154-.018c-.1-.01-.206-.024-.306-.036a18.93 18.93 0 0 1-.616-.083Zm2.38.523s-.781.198-1.045.274c-.259.07-1.044.31-1.044.31l2.088-.584Z" fill="#CFB66C"/><path fill-rule="evenodd" clip-rule="evenodd" d="M6.258 10.533c-.173.05-.346.1-.521.147l-.522.14-.518.151-.26.071c-.085.025-.172.047-.261.072.086-.029.173-.059.259-.083l.26-.083c.172-.054.345-.105.517-.159.177-.044.35-.09.526-.133.167-.042.344-.084.52-.123Zm-1.979 1.064a80.406 80.406 0 0 0 1.306-.601c.115-.054.45-.173.45-.173l-1.756.774Z" fill="#CFB66C"/><path fill-rule="evenodd" clip-rule="evenodd" d="M4.28 11.597c.075-.028.146-.064.22-.097l.215-.1.432-.209c.144-.068.284-.144.433-.208.075-.032.151-.058.227-.083l.115-.037c.04-.01.076-.021.115-.032-.144.069-.295.127-.44.194-.144.072-.29.13-.44.194l-.44.193c-.147.06-.29.124-.438.185Zm.095.404s.897-.526 1.206-.695c.162-.09.684-.35.684-.35l-1.89 1.045Z" fill="#CFB66C"/><path fill-rule="evenodd" clip-rule="evenodd" d="m4.375 12.001.46-.284.23-.14.235-.137c.079-.046.154-.093.234-.136a.837.837 0 0 1 .12-.062l.122-.06c.162-.08.323-.16.494-.228-.155.098-.313.18-.472.266-.079.044-.159.083-.237.127-.08.044-.155.09-.235.133-.079.046-.154.09-.234.132l-.238.13-.479.26Zm1.883-.93s-.558.429-.739.566c-.18.137-.712.521-.712.521l1.45-1.086Z" fill="#CFB66C"/><path fill-rule="evenodd" clip-rule="evenodd" d="m9.46 14.525-.286-.54.166-.676 1.184-.458-.504-1.034.249-1.044.467-.935 1.445-.227L13.242 8.6l2.292.173.45 2.451-.867 3.086-.493 1.598-2 .075-.93-.643-1.087-.455-1.148-.36Z" fill="#E2CC85"/><path fill-rule="evenodd" clip-rule="evenodd" d="M12.968 14.507s-.277.127-.749.098c-.136-.184-1.093-.27-1.093-.27s-.12-.036-.33.051c-.213.087-.414.076-.602.122-.188.047-.374-.198-.518-.249a1.97 1.97 0 0 1-.335-.183l-.403-.04-.81-.342-1.286-1.281-.35.547-.107.677.389.803 1.046.954 2.042.518 1.21-.357 1.516-.64.38-.408Z" fill="#F1D789"/><path fill-rule="evenodd" clip-rule="evenodd" d="m5.715 9.978.259-.785.309-.507.994-.083-.298.87-.832 1.48.345 1.321-.611.306-.188-.288-.152-.661-.01-.743.184-.91Z" fill="#F4ECB4"/><path fill-rule="evenodd" clip-rule="evenodd" d="m6.83 14.453-.19-.267s-.05-.126-.022-.237c.03-.112.025-.12.01-.162-.014-.042-.136-.188-.129-.313.007-.127-.01-.169.083-.27.097-.097.068-.266.068-.266l.127.079.029-.044s.046.037.046.093c.01-.078-.032-.442.064-.525.097-.083.267.389.267.389l-.105-.685-.27-.702-.478-.64-.03-.707v-.061s-.22.338-.28.605c-.044.183.06.406.04.67-.018.262-.04.241.024.345.064.104.22.318.159.472-.054.133-.238.04-.238.04s-.036.107-.086.146a.326.326 0 0 0-.071-.144c-.003.025-.01.059-.01.059s-.032-.1-.064-.227c-.044-.17-.09-.392-.133-.512-.017.069-.06.277-.06.277l.024.32.12.44.114.288.113.353.097.236.079.181.068.406.33.35.177.079.128-.066Z" fill="#F3E19D"/><path fill-rule="evenodd" clip-rule="evenodd" d="M5.889 9.337s-.237.403-.306.81c-.068.406-.13.836-.086 1.389.044.558.127.9.194 1.145.115.406.413.971.413.971l.01-.022a1.537 1.537 0 0 1-.12-.298c-.039-.155-.053-.338-.09-.421-.032-.083-.085-.155-.112-.257-.024-.097-.028-.252-.104-.367a.743.743 0 0 1-.083-.29c-.015-.184.007-.39-.01-.559-.033-.28-.054-.471-.025-.619.029-.147.18-.565.273-.897.062-.212.025-.391.137-.576.112-.184.18-.345.206-.458.028-.101-.297.449-.297.449Z" fill="#F2E8B0"/><path fill-rule="evenodd" clip-rule="evenodd" d="M7.015 9.175s-.123.037-.181.1c-.058.062-.083.113-.162.216-.078.104-.083.188-.147.318-.064.127-.205.317-.223.386-.017.068-.046.389-.083.54a.727.727 0 0 0 .037.338l.083-.018s0 .108.083.181c.083.071.097-.242.097-.242l.31-1.047.468-.317.05-.257-.333-.198Z" fill="#F5EEC0"/><path fill-rule="evenodd" clip-rule="evenodd" d="M7.24 9.65s-.22.015-.327.093c-.044.032-.061.059-.108.098-.086.071-.173.137-.215.23-.047.093-.098.235-.133.501-.014.112-.014.216-.025.306-.014.122-.036.22-.024.288.014.14.158.213.172.371l.299-.151.28-1.108.598-.375-.338-.378-.179.124v.001Z" fill="#E6DB9D"/><path fill-rule="evenodd" clip-rule="evenodd" d="m5.666 17.113.004-.033c.043-.374.05-.658.083-.835.046-.252.078-.346.071-.44-.01-.152-.022-.262-.007-.379.022-.154.173-.338.169-.465-.003-.1-.054-.165-.098-.227l-.078-.112s.298-.205.295-1.032a.079.079 0 0 1 .018.007l.147.418.1.122.386.72.497.482.733.493.46.501.047 1.336-.601.78-.099.178a8.555 8.555 0 0 1-2.127-1.514Z" fill="#E5CB7A"/><path fill-rule="evenodd" clip-rule="evenodd" d="M7.504 18.391s.01-.166.147-.274c.022.037.036.072.032.098a.868.868 0 0 1 .59-.396c.391-.072.486-.357.486-.357l.831-.756.951-.875 1.156-.406.54-.133s.01.04-.01.127c.1-.007.324-.058.555-.14.093-.036.18-.051.227-.003.069.064.079.216.083.306.112-.025.242-.133.346-.122.166.017.313.212.482.212.223 0 .323-.137.479-.245.093-.063.227-.143.303-.197.18-.133 2.09-.717 2.09-.717l.67.044.108.719-.057 1.88-.022.021-3.045 1.591-4.221.648a8.47 8.47 0 0 1-2.7-.929l-.02-.096h-.001Z" fill="#D8C173"/><path fill-rule="evenodd" clip-rule="evenodd" d="M5.922 17.353c.06-.126.114-.23.123-.268.008.075.022.241.05.418l-.173-.15Z" fill="#F1D789"/><path fill-rule="evenodd" clip-rule="evenodd" d="m9.007 19.122.545-.151.047.014s.025.015.025.064c.068-.039.127-.032.169-.058.022.047.043.201.14.22.1.022.208-.044.317-.127.108-.086.23-.194.323-.237.034.063.064.127.09.194.123-.098.335-.494.638-.487a1.15 1.15 0 0 1 .42-.508c.282-.19.458-.206.678-.188.087-.114.195-.21.317-.284.037.015.137.076.262.017.127-.058.27-.284.457-.313a.442.442 0 0 1 .292.062s.547-.544.924-.724c-.014-.044-.043-.209.4-.573.024.022.007.083.024.087.007 0 .115-.047.252-.152.169-.126.371-.259.493-.295.23-.069.475.071.475.071a.217.217 0 0 1 .069-.032c.058-.01.1-.018.132-.029-.003.076.04.206 0 .318a.705.705 0 0 0 .144.06c-.025.055-.079.191-.169.257.076.037.086.079.194.115a2.151 2.151 0 0 0-.147.23c-.032.07-.147.353-.198.46-.054.109-.127.307-.162.346-.035.04-.162.209-.26.292.087-.033.44-.14.59-.181l-.488.724a8.541 8.541 0 0 1-6.994.81v-.002Z" fill="#E0CD81"/><path fill-rule="evenodd" clip-rule="evenodd" d="M7.277 9.61s-.126 0-.151.018c-.025.018.126.054.173.072a.398.398 0 0 1 .173.161c.025.062.91.418.91.418l.626-.032.216-.298-.41-.36.288-.849-.382.061-.917.548-.46.176-.066.086Z" fill="#DFC57C"/><path fill-rule="evenodd" clip-rule="evenodd" d="M8.652 9.892a.098.098 0 0 0 .087.047c.13 0 .249.032.298.097.083.105.313.44.313.44l.55.198.036-.648-.601-.418-.685.252v.032h.002Z" fill="#E5CC7C"/><path fill-rule="evenodd" clip-rule="evenodd" d="M8.544 10.132s.1.008.227-.04c.127-.046.335-.146.426-.107.126.054.1.223.237.375.083.093.234.09.32.19s.382.054.382.054l.112.605-.45.577-.147.716h-.609l-.555-.22-.274-.663.137-.67.194-.817Z" fill="#D2C281"/><path fill-rule="evenodd" clip-rule="evenodd" d="M9.721 10.162c.015.004.03.007.047.007-.018.014-.054.046-.04.13.015.082.061.187.022.251a.316.316 0 0 1 .069.12c.024.071.032.137.193.147a.34.34 0 0 0-.064.05s.112.098.169.189c.058-.003.213-.05.213-.05l.032.021.068-.029s-.064-.024-.017-.18c.043-.137.083-.13.086-.14.003-.01.032-.155.032-.213.022-.075.04-.306.04-.306l-.047-.508-.262-.159-.213-.205-.201.378-.133.132-.01.328.016.037Z" fill="#E2C270"/><path fill-rule="evenodd" clip-rule="evenodd" d="M10.352 9.736s.046.133.064.235a.21.21 0 0 0 .01-.061s.036.2.043.284c.015-.003.03-.008.033.007.003.014.036.176.028.266.06-.1.145-.184.245-.244a.428.428 0 0 1 .198-.079c.112-.003.194.071.328.071.323 0 .615-.237.831-.31.159-.054.296-.093.392-.18.046-.04.13-.127.205-.257.1-.173.205-.323.31-.342a.65.65 0 0 1-.144.01s.032-.032.087-.075c.054-.044.119-.098.212-.098.166 0 .249.025.342.025a.466.466 0 0 0 .147-.025s.098.068.318.068c.22.003.367.022.482.033.115.01.5-.033.611-.03.072.004.143.02.209.052l-.357-1.037-1.282-1.12-.763.54-1.174 1.174-1.135.42-.238.267v.406h-.002Z" fill="#CCB360"/><path fill-rule="evenodd" clip-rule="evenodd" d="M12.9 9.142s.032-.032.086-.076c.054-.043.12-.097.212-.097.166 0 .25.024.343.024.093-.002.147-.024.147-.024s.097.068.317.068c.22.003.367.022.482.032.115.01.501-.032.612-.029.072.003.143.02.208.051l-.162-.467-.188-.357-.535-.587-.648-.382a8.853 8.853 0 0 0-.223-.06l-.583.352-.528 1.367-.01.288.342.162c.086-.144.18-.26.27-.274-.08.009-.142.009-.142.009Z" fill="#D5B457"/><path fill-rule="evenodd" clip-rule="evenodd" d="M12.893 9.24c-.05.003-.093-.007-.105-.044-.043-.122-.078-.14-.115-.14-.037 0-.086.079-.115.086-.03.007-.064-.09-.064-.09l-.032-.015s-.188.123-.32.267c-.133.144-.35.389-.447.432-.098.044-.433.059-.548.083a.708.708 0 0 0-.259.127c-.017.019.051.04.062.058.01.018-.113.01-.123.03-.007.014.029.097.047.139a.238.238 0 0 1 .1-.025c.112-.003.194.072.328.072.323 0 .616-.238.831-.31.159-.055.296-.094.392-.181.046-.04.13-.127.205-.257.056-.088.11-.172.163-.233Z" fill="#D2B257"/><path fill-rule="evenodd" clip-rule="evenodd" d="M8.256 16.447s-.029-.108-.295-.386c-.076-.079-.123-.144-.174-.19-.126-.12-.2-.152-.291-.22-.198-.148-.413-.148-.58-.328-.165-.18-.359-.526-.493-.878a5.924 5.924 0 0 1-.17-.475c0-.01.037-.079.084-.069.046.01.046.1.058.123.023.035.05.07.079.1.068.079.166.173.215.313a1.415 1.415 0 0 0-.05-.252s.256.162.474.33c.22.17.31.228.374.336.065.108.216.392.288.475.073.083 1.066.396 1.066.396l.472.352.235.514-.184.288-.352.076-.573-.257-.183-.248Z" fill="#D2B159"/><path fill-rule="evenodd" clip-rule="evenodd" d="M6.984 14.676s.12.19.411.371c.262.16.677.303 1.047.39a3 3 0 0 0 .616.093c.514.007.868-.14 1.306-.188.237-.025.529-.044.831-.116.39-.093.62-.198.932-.345.227-.105.436-.184.604-.284.238-.14.411-.296.612-.342-.025.068-.05.19-.249.317.105-.003.25-.01.25-.01s-.14.083-.387.27c-.151.115-.352.31-.557.44-.133.082-.277.143-.372.193-.23.127-.323.19-.474.345.053-.002.058 0 .058 0s-.19.025-.328.098c-.029 0-.078-.01-.166.015-.068.021-.159.071-.252.097-.132.04-.176.022-.176.022l.022.044s-.173-.003-.23.003c.01.003.007.007.007.007a.088.088 0 0 0-.029.01.3.3 0 0 1-.09.04c-.018.002-.032.002-.054.007.007.017.064.115.09.173-.022.014-.35.262-.35.262a.25.25 0 0 1 .026.05c.01.033.014.08.024.101.025.044.04.051.04.051s-.04.007-.108.025c-.058.014-.13.04-.23.054a.88.88 0 0 1-.094.007c.015.032.079.154-.04.296-.117.14-.153.161-.19.252a.4.4 0 0 0-.058-.037c-.04-.017-.093-.044-.112-.079a.932.932 0 0 1-.044.137c-.036.098-.09.194-.1.267-.04-.044-.112-.13-.213-.112-.1.017-.18.154-.198.193 0-.024-.017-.043-.022-.014a1.107 1.107 0 0 1-.367.638c-.002-.069-.002-.22-.01-.27-.029.03-.064.072-.274.162-.205.09-.172.18-.172.18s-.018-.143.093-.295c.112-.152.18-.223.18-.235a.065.065 0 0 0-.014-.032c-.015-.014-.044-.032-.044-.043.018-.008.19-.09.18-.262a.465.465 0 0 0-.122-.292c-.007-.007.069-.06.059-.078-.008-.01-.1-.079-.112-.115a.333.333 0 0 1 .014-.064c.01-.033.018-.055.015-.076a.606.606 0 0 0-.058-.147c.01.002.082 0 .082 0s-.058-.094-.068-.137c-.01-.044-.032-.159-.044-.18.025.002.086.006.086 0 .003-.023-.054-.06-.029-.087.018.003.051.017.083.058-.017-.047-.046-.137-.107-.173a.264.264 0 0 1 .212.014c.086.051.115.123.115.123l.13.097c.09.072.205.173.389.245.04.022.14.022.212.007a.327.327 0 0 0 .09-.036.166.166 0 0 1 .033-.015.698.698 0 0 0-.054-.09.62.62 0 0 1 .054.003s.017-.04-.061-.115c.017-.018.039-.03.039-.059-.025-.003-.069-.039-.079-.054.015-.01.037-.043.061-.053-.021-.018-.075-.09-.1-.098a.455.455 0 0 0 .068-.032s-.122-.032-.161-.058c-.04-.03-.098-.079-.133-.094-.036-.014-.1-.021-.126-.05.024.007.064 0 .093 0 .022 0 .032.002.039.002-.003-.01-.003-.032.054-.039a.265.265 0 0 0 .079-.025s-.054-.003-.116-.06c-.06-.06-.112-.106-.147-.113-.036-.007-.104.025-.147.022-.058-.007-.083-.037-.083-.037s-.193.018-.623-.244c-.371-.227-.533-.428-.533-.428a.64.64 0 0 1-.1-.047c-.14-.073-.334-.224-.328-.422v.001Z" fill="#C2A44D"/><path fill-rule="evenodd" clip-rule="evenodd" d="M12.342 5.935a.19.19 0 0 1 .087.058c.068.079.112.227-.044.386.061.022.087.029.14.022-.054.064-.176.2-.184.32-.007.098.054.127.054.127s-.093.108-.097.288c.044-.05.092-.095.144-.137.108-.086.256-.183.357-.244a.204.204 0 0 0 .01.075s.188-.154.345-.086c.072.032.04.133.04.133s.097-.037.166.032c.068.068.165.245.215.313.021.032.078.094.136.188.08.133.146.273.198.418.003-.076.022-.194.238-.12.215.076.46.235.665.548.205.313.256.666.36.8.104.13.212.345.22.435.007.09-.032.382.183 1.17.061-.245.154-.788.154-.788l.051-.48.059-1.482-1.548-1.286-1.21-.878-.788.076.05.112Z" fill="#CAA13E"/><path fill-rule="evenodd" clip-rule="evenodd" d="M15.218 8.141s-.022-.144-.386-.388c-.364-.242-.648-.242-.91-.447-.2-.162-.41-.534-.547-.656-.133-.12-.154-.47-.154-.47l.447-.375.665-.96.562-.62.269.375.374.44.208.882.076 1.292-.605.927h.001Z" fill="#B59544"/><path fill-rule="evenodd" clip-rule="evenodd" d="M15.667 9.69a1.639 1.639 0 0 0-.072-.58 10.69 10.69 0 0 0-.403-1.027c-.039-.22-.01-.237.033-.262.042-.025.2-.115.287-.433.087-.317.357-.327.357-.327l.166-.123.252.631.22.57.068.435.051.371-.12.785-.589.533-.25-.573Z" fill="#C89D3A"/><path fill-rule="evenodd" clip-rule="evenodd" d="M7.44 18.44v-.017a.123.123 0 0 0 .031-.029c.01-.014.018-.032.025-.036a.274.274 0 0 1 .12-.022c.036.007.132.046.183.044.105-.003.227-.083.42-.047.292.054.36.252.53.364.115.079.234.044.251.044h.04c.007 0 .06-.061.09-.058.058.002.064.05.1.053.086.01.252-.043.335-.021a.16.16 0 0 1 .066.266c-.09.083-.176.162-.194.23a.814.814 0 0 1 .064.055 8.474 8.474 0 0 1-2.062-.826Z" fill="#CEB052"/><path fill-rule="evenodd" clip-rule="evenodd" d="M15.193 15.53s.228-.303.306-.453c.079-.155-.249-2.113-.249-2.113l.658-2.157-.017-.702s.032-.648.108-.93c.09.162.37.358.432.461.029-.198.127-.616.112-1.062.054.083.184.918.184.918l.13.562.168.597.188.63.112.436.064.105.054.183.051.198.147.465.086.382.069.691a.988.988 0 0 1 .032.162c.003.076-.01.12-.01.133 0 .013.024.166.014.28-.014.116-.014.206-.105.289-.09.082-.147.576-.147.576l-.161-.107s.032-.147-.044-.281a.284.284 0 0 0-.306-.14c-.083.017-.249.043-.303.09-.05.047-.176.19-.29.256-.145.087-.38.093-.504.123-.127.028-.267.115-.414.215a2.316 2.316 0 0 1-.364.192Z" fill="#CCA847"/><path fill-rule="evenodd" clip-rule="evenodd" d="m15.193 18.711.029.017a8.55 8.55 0 0 0 2.725-2.021 15.058 15.058 0 0 0-.03-.709c-.025-.237-.008-.479-.015-.619a8.985 8.985 0 0 0-.122-.856c-.04-.147-.116-.22-.127-.22-.01.003-.072.277-.072.346 0 .069-.014.234-.014.277-.01-.004-.015-.03-.015-.04-.014.037-.032.1-.039.108-.007.007.01-.061 0-.076-.01-.014-.029-.007-.025-.043a.418.418 0 0 1 .01-.065s-.043.064-.075.228c-.032.161-.032.166-.044.18-.01.018-.068.076-.071.098-.003.04.054.078.058.1.003.037-.051.206-.069.288-.017.083-.01.245-.028.328-.015.076-.03.12-.079.151a1 1 0 0 1 .071.018s.051.215-.078.399c-.047.064-.058.093-.108.151-.098.108-.173.23-.18.31a.538.538 0 0 1-.01-.071s-.152.176-.216.277c-.083.13-.198.122-.23.154-.033.032-.04.09-.03.137-.028.007-.082.018-.119.13a.273.273 0 0 1-.13.154c-.068.04-.15.051-.193.061.036.01.051.01.068.022-.021.036-.122.093-.234.166a.49.49 0 0 0-.194.235c-.028.06-.071.1-.14.107.03.018.072.058.094.072-.032.007-.087.007-.184.09-.102.085-.136.11-.183.117Z" fill="#C39D3C"/><path fill-rule="evenodd" clip-rule="evenodd" d="M13.166 19.387a.822.822 0 0 1 .18-.096c.227-.09.468-.108.562-.137.09-.028.162-.068.274-.09l-.008.072a8.29 8.29 0 0 1-1.008.25Z" fill="#D2BA6B"/><path fill-rule="evenodd" clip-rule="evenodd" d="M17.355 13.412s-.047.252-.13.41a5.407 5.407 0 0 0-.172.38c0-.05.006-.1.017-.148-.105.061-.36.209-.432.274a1.463 1.463 0 0 0-.212.22c.068-.201.14-.382.151-.465-.105.076-.594.48-.849.746l-.793.642a2.7 2.7 0 0 1-.283.133c-.137.058-.298.107-.418.154a.663.663 0 0 1 .155-.235c.075-.07.303-.317.337-.432.032-.119.04-.19-.002-.29-.04.01-.13.014-.191.031a.373.373 0 0 0-.127.083s.047-.266.147-.518c-.076.003-.205.024-.205.024s.18-.302.49-.513c-.095.02-.188.048-.277.085-.18.076-.379.188-.526.25.083-.116.665-.947 1.012-1.722.346-.773.475-.971.55-1.386.04-.206.03-.51.04-.781.01-.27.043-.511.022-.673.09.112.428.428.44 1.135.01.706-.324 1.66-.678 2.174.087.025.31.054.54-.346.23-.4.228-.51.31-.677.01.083.008.112.008.112s.335-.406.494-.917c.032.22.126.413-.022.817-.133.364-.306.453-.306.453s.086-.015.212-.09c.022.053.018.115.054.136.037.022.086.059.094.094.039-.059.1-.133.119-.188-.015.115-.025.619.029.875.112-.01.227-.018.306-.22a.902.902 0 0 0-.018.486.556.556 0 0 0 .114-.113Z" fill="#C0993A"/><path fill-rule="evenodd" clip-rule="evenodd" d="M13.572 5.385s-.112.046-.303.046c-.166 0-.12-.064-.378-.064-.4 0-1.793.23-2.037.228-.16-.003.536.068.536.068l1.774.025.357-.029.133-.27-.082-.004Z" fill="#A88F33"/><path fill-rule="evenodd" clip-rule="evenodd" d="M8.97 8.855s-.227.174-.323.306c-.096.133-.147.22-.256.328a.224.224 0 0 0 .075-.01s0 .028-.017.036a.102.102 0 0 1 .083.029c-.032.017-.12.105-.051.208.05.079.159.086.159.086s-.025.071.078.064c.223-.01.472-.108.587-.083.115.029.18.04.262.18.086.14.162.162.162.162s.05-.13.04-.323a.962.962 0 0 0 .068-.328l-.076-.557-.33-.418-.429.237-.032.083Z" fill="#E3C571"/><path fill-rule="evenodd" clip-rule="evenodd" d="M9.375 8.772s.032.076.166.083c-.015.032-.015.037-.01.061l.007.061a.136.136 0 0 0 .04-.028c.007.032-.008.082 0 .119a.265.265 0 0 0 .021.064.128.128 0 0 1 .008-.014c.002-.008.028.078.1.143 0-.01.002-.02.007-.028a.101.101 0 0 0 .018.05.053.053 0 0 1-.015-.01s.007.23.047.35a.165.165 0 0 0 .017-.025c0-.007-.003.064-.01.115-.01.051-.003.123-.003.123a.382.382 0 0 1 .086-.051c.044-.018.115-.072.159-.191.025-.068.044-.137.058-.208a.29.29 0 0 1 .029.086c.003.037.071.018.071.018l.015-.16.086-.359.079-.223.378-.59.684-.526.597.137.504-.685-.868-.521-.821.086-.745 1.032-.597.937-.108.154Z" fill="#D8B65B"/><path fill-rule="evenodd" clip-rule="evenodd" d="M13.678 7.278s-.052.01-.199.086c-.147.077-.248.1-.305.213-.057.112-.061.2-.061.2s.1-.043.158-.057c.061-.015.13-.01.123.014a.17.17 0 0 1-.03.047s.116-.003.113.054a.3.3 0 0 1-.044.147c-.022.029-.112.071-.122.105-.025.068.01.071-.003.126-.01.054-.058.16-.215.343-.162.183-.23.313-.23.313s-.08-.147-.12-.274c-.029.014-.184.1-.184.1l-.358-1.248.007-.083s.032-.039.04-.112c-.054-.017-.061-.032-.133-.1-.071-.069-.13-.152-.249-.209-.017-.032-.04-.075-.126-.093-.088-.017-.14-.032-.14-.032s.046-.017.068-.054c-.054.008-.097.025-.215.022-.12-.003-.133-.007-.198.003-.066.01-.144.04-.174-.061-.032-.025-.1-.003-.158.083-.059.086-.079.154-.191.188a.39.39 0 0 1-.051.14c-.032.053-.083.107-.151.187-.108.127-.09.335-.263.494-.173.159.03-.44.03-.44l.276-.662.788-.77 1.223-.084.12.634.596.205.377.576v-.001Z" fill="#D3AE4D"/><path fill-rule="evenodd" clip-rule="evenodd" d="m13.87 7.418-.513-.742-.36-.276s-.256-.472-.274-.487a3.387 3.387 0 0 0-.41-.046l.028.071a.19.19 0 0 1 .087.058c.068.079.112.227-.044.386.061.022.087.029.14.022-.054.064-.176.201-.183.32-.008.098.053.127.053.127s-.093.108-.097.288c.044-.05.092-.095.144-.137.108-.086.256-.183.357-.245a.207.207 0 0 0 .01.076s.188-.154.345-.086c.072.032.04.133.04.133s.097-.037.166.032c.068.068.166.245.215.313.022.032.079.093.137.188.08.132.146.272.198.418.003-.058.015-.14.115-.14l-.153-.274Z" fill="#CAA13E"/><path fill-rule="evenodd" clip-rule="evenodd" d="M6.165 9.524s-.037-.09 0-.267c.036-.176.093-.259.112-.518.019-.26.188-.583.188-.583l.467-.212.33.09.098.443-.418.23s-.022.098-.14.176c-.118.079-.28.14-.32.22a.641.641 0 0 0-.05.155s-.12-.025-.192.053c-.075.08-.073.152-.075.213Z" fill="#F4EFC8"/><path fill-rule="evenodd" clip-rule="evenodd" d="M7.109 9.406s-.04.025-.069.086c-.029-.046-.097-.323-.1-.572-.003-.25-.018-.31.04-.397.057-.085.283-.176.251-.33-.032-.148-.166-.209-.33-.166-.116.028-.201.273-.32.396-.091.093-.199.078-.228.13-.04.068-.003.136-.015.18a.871.871 0 0 1-.104.188c-.133.19-.357.46-.386.702.01-.137.003-.14.039-.292l-.022-.036.144-.472.093-.389.209-.65.366-.666.357-.4.371.026.044.557.213 1.047.447.55-.717.483-.284.025Z" fill="#EBCC73"/><path fill-rule="evenodd" clip-rule="evenodd" d="M7.332 9.603s-.06.015-.083.003c-.022-.011-.043-.024-.036-.039.007-.015.046-.04.046-.05a.04.04 0 0 0-.036-.045c-.034-.004-.044.018-.044.018s-.032-.025-.058-.029a.405.405 0 0 1 .047-.003.454.454 0 0 0-.127-.036c.036-.022.108-.086.154-.086.047 0 .076-.007.069-.032-.008-.025-.044-.061-.083-.076.014-.017.025-.044-.01-.115-.037-.071-.022-.12-.01-.137.01-.022.046-.061.064-.086.017-.025.032-.058.06-.076a.767.767 0 0 1 .108-.046c.051-.018.094-.04.123-.018.032.022.017.051.017.051s.1-.036.19.01c.091.044.311.072.311.072l.079.159-.521.447-.216.108-.043.007Z" fill="#E5C66B"/><path fill-rule="evenodd" clip-rule="evenodd" d="M8.055 8.872s-.161.108-.198.148c.022.003.058.017.044.039-.018.022-.122.097-.18.169a1.07 1.07 0 0 0-.14.205.738.738 0 0 1-.245.17c.12 0 .36-.148.45-.148-.003.044.025.093.076.098.05.004.198.032.396-.09.198-.12.132-.209.215-.267.159-.105.223-.198.31-.257a.567.567 0 0 1 .133-.071s.003-.044.029-.04a.04.04 0 0 1 .032.026s.151-.108.345-.137a.02.02 0 0 1-.01-.01s.014-.008.017-.015c0 0 .01-.015.018-.007.007.007.017.06.032.083.032-.015.093-.152.093-.152l.147-.42V7.81l-.115.022-.864.367-.524.543-.061.13Z" fill="#E6BD62"/><path fill-rule="evenodd" clip-rule="evenodd" d="M10.542 6.986a.488.488 0 0 0 .133-.053c-.018.046-.018.097-.093.208-.076.11-.079.127-.14.242-.061.119-.069.29-.127.366a.266.266 0 0 1 .083-.024s-.058.05-.083.105c-.024.053-.068.166-.176.234-.108.069-.245.112-.392.274-.147.159-.298.36-.374.432.04-.069.093-.205.108-.296.014-.09-.003-.198.022-.317.024-.12.024-.205.144-.414.119-.208.323-.932.323-.932l.44-.14.132.315Z" fill="#B6933F"/><path fill-rule="evenodd" clip-rule="evenodd" d="M10.225 6.72s-.133.19-.169.36c-.036.169-.003.154-.025.237a.308.308 0 0 0 0 .155.547.547 0 0 1 .183-.181c.126-.076.228-.13.288-.194.062-.068.113-.18.245-.266-.054-.008-.13-.032-.144-.03.054-.06.216-.153.379-.266.161-.115.151-.161.413-.276-.086.014-.127-.008-.198 0 .029-.061.13-.09.23-.191.101-.1-.064-.249-.064-.249l-.767.465-.372.436Z" fill="#C49937"/><path fill-rule="evenodd" clip-rule="evenodd" d="m8.14 6.373.018-.14.22-.352.23-.619v-.846l-.017-.49.036-.32.028-.102.029-.039.188.098.259.352.025.68-.252 1.073-.72.785-.043-.08Z" fill="#DFC068"/><path fill-rule="evenodd" clip-rule="evenodd" d="M8.713 3.426s-.116.003-.14.482c-.025.48-.037.731-.054.968-.018.238-.058.382-.079.522-.02.14-.032.33-.097.447-.029.054-.09.223-.235.35-.161.14-.403.237-.44.244-.063.015-.388.047-.52.12-.047.024-.127.053-.216.136a2.75 2.75 0 0 0-.58.785c-.259.512-.518 1.955-.518 1.955l.058-.098s.008-.13.137-.357c.127-.227.09-.482.267-.917.068-.166.154-.382.259-.565.166-.299.367-.555.57-.695a1.8 1.8 0 0 1 .694-.277l.391-.259s.069-.132.16-.284c.126-.212.287-.45.322-.795.054-.511-.075-.846-.068-1.149.007-.303.01-.525.071-.58.062-.053.018-.033.018-.033Z" fill="#A88F33"/><path fill-rule="evenodd" clip-rule="evenodd" d="M8.714 5.712s.172-.425.251-.802c.015-.076.044-.152.051-.213.037-.357.047-.504 0-.699-.036-.144-.176-.274-.249-.374-.07-.105-.104-.144-.09-.166a.161.161 0 0 1 .127-.054.434.434 0 0 1 .31.144c.112.13.2.57.2.57l.094.58.238.73-.932.285Z" fill="#C99E3D"/><path fill-rule="evenodd" clip-rule="evenodd" d="M10.336 5.27s-.032.014-.09 0a.13.13 0 0 1-.058.122c-.062-.025-.634.025-.634.025s-.266-.047-.35-.4c-.058-.234.044-.557.01-.77-.05-.313-.122-.374-.129-.472-.007-.097-.014-.122-.014-.183-.032-.007-.051-.018-.083-.018-.008-.028.007-.054-.025-.105.017.008.137.022.277.155.115.108.115.147.132.169.022.022.198.173.274.323.076.15.223.63.256.71.01.031.032.063.086.136.085.105.209.279.348.307Z" fill="#B58634"/><path fill-rule="evenodd" clip-rule="evenodd" d="M9.393 3.8c.088.143.167.29.237.443.086.194.137.352.245.482-.059-.169-.162-.501-.223-.619a1.419 1.419 0 0 0-.26-.306Z" fill="#A88F33"/><path fill-rule="evenodd" clip-rule="evenodd" d="M8.402 6.194s-.147.037-.42.18c-.09.047-.176.087-.26.123a4.524 4.524 0 0 1-.63.237.42.42 0 0 0 .022.025s0 .072.04.112c-.023.022-.314.22-.228.883.058-.022.127-.051.137-.051.017.003.022.05.043.05.022 0 .094-.028.17-.126-.003.04-.047.436.187.702.044-.05.155-.22.155-.22l.002-.054s.01-.188.072-.36c.061-.171.18-.298.18-.298l.623-.89-.093-.313Z" fill="#E6C367"/><path fill-rule="evenodd" clip-rule="evenodd" d="M7.82 7.5a.344.344 0 0 1-.093.047.36.36 0 0 1 .06-.284c.101-.147.321-.338.382-.49.04-.097.022-.341.372-.655.349-.313.486-.42.486-.42l.565-.284.694.273-.345 1.353-.268.634-1.065-.201-.788.028Z" fill="#DCBA5A"/><path fill-rule="evenodd" clip-rule="evenodd" d="m8.227 7.134.132-.166V6.85s.147-.04.306-.201c.158-.162.378-.472.572-.453.194.022.213.42.22.533.007.112.032.367.071.504.044.137-.471.655-.471.655l-.35.267-.48-1.021Z" fill="#E9CE77"/><path fill-rule="evenodd" clip-rule="evenodd" d="M8.637 8.516s.108-.17.029-.206c.046-.104.132-.215.132-.215s.061-.152.26-.338c.197-.186.32-.31.352-.435.02-.082.03-.166.032-.25a.473.473 0 0 0 .068.047c.032.015.184.14.162.392-.022.252-.115.357-.115.357s-.09.09-.155.137c-.068.046-.093.1-.208.104a.138.138 0 0 1 .04-.021s-.12-.015-.184.043c-.064.058-.2.238-.269.292l-.144.093Z" fill="#CDAE50"/><path fill-rule="evenodd" clip-rule="evenodd" d="M13.48 5.683a1.753 1.753 0 0 0-.537-.105c-.305-.01-.752.007-1.19.01-.472.003-.9-.161-1.495-.19-.097-.059-.345-.314-1.12.227.047-.003.563-.12.742.105.18.223.13.601.105.691-.047.201-.198.494-.26.7-.06.205-.046.313-.09.457-.043.144-.14.215-.083.381.076-.046.115-.046.242-.33.126-.284.1-.487.31-.727.205-.242.547-.572.677-.655.13-.083 1.162-.62 2.242-.108.261-.028.456-.456.456-.456Z" fill="#D2A83E"/><path fill-rule="evenodd" clip-rule="evenodd" d="M9.573 5.485a.134.134 0 0 0-.007-.032.234.234 0 0 0-.04-.058s-.256-.047-.386-.032c-.227.024-.432.305-.528.45-.096.144-.216.367-.345.482a.048.048 0 0 0-.008-.032s.008.01-.007.024c-.014.015-.014.022-.007.03l.022.02c.007 0 .208-.09.482-.345.291-.266.514-.403.63-.45a.887.887 0 0 1 .194-.057Z" fill="#C29637"/><path fill-rule="evenodd" clip-rule="evenodd" d="M14.545 4.39s-.047.058-.105.122c-.13.137-.299.292-.443.45-.137.152-.291.27-.464.468-.174.198-.375.418-.425.482a.474.474 0 0 0-.083.223 2.041 2.041 0 0 0-.054-.037.363.363 0 0 0 .043.064c.037.051.094.116.123.155a.47.47 0 0 1 .075.166c.018.003.13.025.27-.205.14-.23.323-.483.323-.483l.291-.432.184-.367.23-.41.035-.196Z" fill="#AC8132"/><path fill-rule="evenodd" clip-rule="evenodd" d="M14.844 4.096s-.176.144-.244.23c-.069.087-.23.313-.23.313l.057-.007.296-.262.115-.205.006-.069Z" fill="#A88F33"/><path fill-rule="evenodd" clip-rule="evenodd" d="M14.79 15.669s-.003-.12.064-.19c.068-.072.242-.177.41-.57.17-.394.188-.482.188-.482s-.303.259-.49.32c.045-.09.07-.154.091-.2-.025-.023-.13-.048-.14-.06.059-.057.09-.2.209-.295.151-.115.428-.313.643-.49.215-.176.637-.586.691-.706.032.047.04.076.04.076s-.213.277-.324.453c-.097.151-.09.237-.09.237l.201-.086s.058.215-.205.543c.115-.043.161-.017.227-.054-.108.069-.256.162-.396.418-.137.256-.324.555-.638.741-.306.197-.482.344-.482.344v.001Z" fill="#A67A2E"/><path fill-rule="evenodd" clip-rule="evenodd" d="M14 5.835s-.12.249-.137.442c-.003.047-.014.083-.014.137-.003.173.01.367-.03.457-.014-.036-.021-.06-.036-.075-.021.06-.06.252-.093.323a1.522 1.522 0 0 1-.043-.399c.003-.19.007-.227.007-.266-.007.058-.047.136-.061.183-.022-.04-.047-.09-.076-.132-.018.028-.04.07-.058.093a1.317 1.317 0 0 1-.015-.13c-.003-.076-.007-.173-.003-.194a.879.879 0 0 1 .198-.335c.155-.169.313-.493.36-.594.046-.1.245-.518.245-.518h.151l-.22.5s-.132.275-.2.375c-.07.1-.213.39-.277.501.046-.06.085-.093.132-.151.045-.041.17-.217.17-.217Z" fill="#8C6228"/><path fill-rule="evenodd" clip-rule="evenodd" d="M14.847 4.077a.629.629 0 0 1-.115.208c-.09.108-.284.252-.38.367a.992.992 0 0 0-.18.78c.03-.078.083-.234.227-.41.145-.176.299-.378.375-.536.076-.159.086-.284.086-.284l.028-.036-.017-.083-.025-.006Z" fill="#CBA94C"/><path fill-rule="evenodd" clip-rule="evenodd" d="M17.795 13.737s-.058-.159-.076-.303c-.017-.144.03-.173-.024-.338-.032-.1-.09-.086-.105-.1-.015-.015-.025-.167-.022-.25a.936.936 0 0 0-.018-.237c-.021-.017-.036-.032-.068-.14-.036-.107-.054-.161-.071-.193-.018-.032-.069-.062-.069-.094 0-.064.058-.097.058-.115-.002-.036-.046-.007-.058-.017-.014-.018.037-.123.018-.137-.008-.007-.059.054-.072.036-.014-.017-.032-.19-.058-.306-.025-.112-.051-.193-.054-.227-.003-.032-.2-.597-.249-.734a3.462 3.462 0 0 1-.097-.352c-.015-.069-.025-.208-.032-.194-.008.015-.003.086-.015.083-.01-.003-.047-.252-.058-.291-.01-.04-.072-.173-.087-.27-.014-.097-.046-.352-.068-.525-.022-.173-.032-.245-.032-.288a1.793 1.793 0 0 0-.018-.318 2.958 2.958 0 0 0-.136-.536c-.098-.244-.357-.87-.404-1.026 0-.04.051-.018.051-.018s.127.318.22.562c.09.245.176.46.198.482.018.022.155.263.216.656s.083.756.12.997c.017.115.031.238.068.36.039.133.1.27.18.48.069.175.12.322.147.45.032.16.032.283.051.363.018.069.044.206.105.404.061.197.152.452.213.611.12.318.172.583.19.724.016.146.07.65.056.8Z" fill="#A88F33"/><path fill-rule="evenodd" clip-rule="evenodd" d="m14.852 4.06-.007.017s.022.007.018.037c0 .04-.002.08-.008.119-.007.05-.021.09-.024.122 0 .069.01.147-.087.342-.028.054-.046.1-.06.133a.392.392 0 0 1-.077.127c.051-.03.235-.144.328-.127a.684.684 0 0 0-.223.201.501.501 0 0 0 .173 0c.162-.025.342-.083.5-.071.174.01.106-.209.106-.209l-.2-.44-.379-.266-.06.015Z" fill="#BE9C44"/><path fill-rule="evenodd" clip-rule="evenodd" d="M15.841 7.354s-.169-.169-.237-.749c-.069-.582-.054-1.44-.054-1.44l-.137-.335s-.029-.223-.1-.306c-.072-.083-.213-.222-.277-.29-.064-.07-.137-.163-.18-.177.021-.036.119-.242.493-.245.374-.003.49.206.529.281.039.076.215.404.28 1.028.062.623.065.67.054.885a5.02 5.02 0 0 1-.115.692c-.062.25-.13.53-.256.656Z" fill="#A17C34"/><path fill-rule="evenodd" clip-rule="evenodd" d="M15.31 7.85a.286.286 0 0 0 .162-.036c.054-.003.249.022.399-.17.01.044.036.162-.032.267.036-.036.09-.05.097-.06.003.053.054.219-.161.622.058-.064.126-.06.187-.068.003.076.044.33-.064.467-.07.094-.188.064-.188.064a.367.367 0 0 0 0-.06c-.002-.04-.017-.08-.007-.106a.521.521 0 0 1-.151-.104c-.127-.12-.291-.324-.303-.475a.187.187 0 0 1 .137-.206.16.16 0 0 1-.032-.039c-.007-.025-.015-.064-.044-.096Z" fill="#8C6228"/><path fill-rule="evenodd" clip-rule="evenodd" d="M14.187 6.018s-.007-.01-.046.037c.007-.047.014-.09.017-.133a.457.457 0 0 1 .072-.108c-.022.044-.037.083-.037.083s.054-.1.133-.162c.053-.043.122-.064.151-.104.032-.044.025-.051.032-.059 0 0 .071-.046.18-.183.015-.018.037-.037.052-.054.024-.01.083-.036.151-.071.071-.04.152-.094.201-.116.098-.043.201-.039.249-.107.036-.01.076-.12.068-.213.054.022.33.194.426.57.068.266-.054.677-.105.875-.051.198-.059.345-.13.435-.09.12-.381.288-.453.371-.06.069-.244.242-.237.367.007.094.122.144.147.162.025.018.025.04.071.029.047-.01.064-.032.083-.032.022.003.022.007.032.007a.104.104 0 0 0 .022-.003s-.007.133-.317.173c-.022.003-.044.01-.072.015.037-.018.059-.018.098-.072-.044-.007-.169-.014-.201-.025a.39.39 0 0 1 .071-.086c.025-.021-.003-.028-.024-.017a1.169 1.169 0 0 0-.108.083c-.036.032-.069.076-.127.115a.284.284 0 0 1 .054-.249c-.017.003-.05.054-.083.044a.464.464 0 0 1 .01-.159.728.728 0 0 1 .112-.18l.458-.818.097-.619-1.047.204Z" fill="#92723A"/><path fill-rule="evenodd" clip-rule="evenodd" d="M14.163 6.053s-.025.018.025.051c-.008.01-.025.047-.047.072-.025.028-.051.046-.061.071-.022.051-.04.086-.04.108a.531.531 0 0 1-.068.252c-.022.032-.047.086-.064.122-.036.064-.069.115-.076.144-.014.051-.024.19-.024.19l.043-.053a.406.406 0 0 1-.064.105c.018-.015.068-.051.154-.127.12-.1.306-.27.534-.403-.07.025-.127.025-.174.032.037-.036.364-.421.536-.457a.069.069 0 0 0 .015-.047l-.148-.015-.298.065-.044-.23-.2.12Z" fill="#B18E3E"/><path fill-rule="evenodd" clip-rule="evenodd" d="M14.638 7.364s-.04.04-.075.137a.46.46 0 0 1-.072-.098c-.054-.09-.137-.205-.33-.14-.003-.06-.008-.093 0-.136.032-.008.13-.086.227-.201a.93.93 0 0 0 .176-.284 2.36 2.36 0 0 1 .144-.1c.093-.065.205-.152.223-.25-.044.018-.137.061-.277.054.054-.025.137-.05.127-.159l.039-.024a.143.143 0 0 0-.05-.008c-.004-.01-.008-.024-.033-.017-.025.007-.029.007-.032.017-.01.003-.044 0-.069.018-.024.017-.093.076-.119.086l.025-.044s-.072.007-.123.029c-.093.032-.2.09-.31.147.01-.018.015-.029.022-.032.007-.003.025-.007.025-.01s-.007-.03-.003-.04a1.34 1.34 0 0 1 .115-.198.386.386 0 0 0 .061-.166l.223-.112.626-.144.407.025-.051.281-.24.49-.206.448-.234.274-.216.157Z" fill="#543E26"/><path fill-rule="evenodd" clip-rule="evenodd" d="M15.653 6.147s-.245.303-.313.35c.043-.093.313-.648.41-.803-.021-.017-.05-.017.018-.288-.058.137-.079.209-.127.245-.048.036-.054.025-.086.025a.061.061 0 0 0 .007-.037s-.205-.024-.346-.024c-.14 0-.417.075-.572.136-.122.051-.19.051-.234.083-.044.037-.069.076-.09.086-.018.01-.1.037-.12.064-.017.03-.046.062-.046.069 0 .007-.008.017.014.01a2.02 2.02 0 0 0 .122-.068c.083-.047.184-.1.257-.133.208-.083.273-.068.367-.086.097-.017.237-.058.33-.058.093-.003.27 0 .31.007-.017.015-.032.032-.025.093 0 .018-.014.037-.028.079a7.48 7.48 0 0 1-.173.418c-.064.137-.137.252-.173.323-.036.072-.115.26-.194.36-.078.1-.119.162-.143.184-.025.021-.201.15-.188.198a.972.972 0 0 0 .381-.252c.147-.166.176-.267.291-.357a.973.973 0 0 0 .26-.367c.045-.117.034-.153.091-.256Z" fill="#806031"/><path fill-rule="evenodd" clip-rule="evenodd" d="M10.381 8.408s-.032.132-.104.198c-.072.064-.198.12-.213.227-.018.108.127.162.127.162s-.079.13-.079.227c0 .1-.003.12.007.215a.095.095 0 0 0-.028.03s.007.092.078.15c.072.059.133.094.169.08.006.011.01.023.014.036 0 0 .054-.137.09-.257.037-.122.07-.105.084-.27.014-.164.172-.446.172-.446l.108-.242-.176-.137-.249.027Z" fill="#B6903C"/><path fill-rule="evenodd" clip-rule="evenodd" d="M10.707 8.645a.964.964 0 0 0-.1.12c-.046.064-.083.122-.151.147-.069.025-.112.024-.108.093.004.068.068.097.105.132a.17.17 0 0 1 .054.167c.021-.01.06-.022.097-.101.037-.079.291-.558.291-.558h-.188Z" fill="#685026"/><path fill-rule="evenodd" clip-rule="evenodd" d="M11.712 7.54s.022-.058 0-.1c-.022-.044-.154-.059-.22-.108-.068-.051-.151-.087-.22-.064.01-.025.051-.079.018-.09-.032-.01-.151.043-.183.068-.032.025-.105.054-.12.071-.014.018-.04.051-.054.037-.014-.01-.022-.037-.046-.022a.581.581 0 0 0-.166.169.865.865 0 0 1-.22.328c-.149.144-.213.237-.17.29.045.055.065.015.072.062a.39.39 0 0 1-.007.137c-.018.076-.047.147-.007.161.1.033.198-.028.22-.01.043.04-.025.18.078.209.105.028.209-.025.209-.025l.38-.206.368-.193.188-.372-.101-.31-.02-.032h.001Z" fill="#D4B968"/><path fill-rule="evenodd" clip-rule="evenodd" d="M11.35 8.427s-.063-.097.015-.183c.08-.086.191-.123.235-.177a.067.067 0 0 0-.032-.021.29.29 0 0 1 .126-.12.121.121 0 0 0-.083-.04c-.07 0-.115.045-.18.045-.064 0-.071-.032-.071-.032s.107-.01.097-.059c-.01-.05-.029-.05-.029-.05s.208-.087.245-.133c.036-.046.032-.1.04-.122.024 0 .168-.076.226-.044.059.032.018.12.018.12s.176-.133.266-.263c.079.007.115-.054.173-.054.071 0 .183.097.205.306.015.119.036.187.015.399-.01.12-.008.374.028.5.025.101.083.09.083.09a.163.163 0 0 1-.05.08c-.04.036-.044.132-.04.168a.715.715 0 0 0 .022.08s-.047.053-.058.09c-.01.036-.059.06-.094.06s-.017-.002-.064 0c-.046.004-.06.01-.09 0s-.05-.021-.04-.115c.011-.093-.359-.31-.359-.31l-.605-.215h.002Z" fill="#CCA849"/><path fill-rule="evenodd" clip-rule="evenodd" d="M10.657 9.347s.132.177.677.177c.259 0 .35-.025.403-.04.058-.014.277-.1.496-.36.198-.234.155-.33.155-.33l-.115-.018-.375.051-1.107.472-.135.048Z" fill="#585136"/><path fill-rule="evenodd" clip-rule="evenodd" d="M11.064 9.39s-.472.106-.472-.193c0-.291.291-.597.364-.65.076-.055.256-.116.256-.116h.436l.082.22-.036.475-.63.265Z" fill="#252211"/><path fill-rule="evenodd" clip-rule="evenodd" d="M11.498 8.52s-.09-.083-.296.029c-.205.112-.371.345-.381.558-.01.187.154.327.41.334a1.29 1.29 0 0 0 .364-.028l-.09-.112-.007-.781Z" fill="#C3B378"/><path fill-rule="evenodd" clip-rule="evenodd" d="M11.41 8.567s-.022-.018-.087.017c-.054.029-.132.105-.193.159-.04.032-.065.046-.087.071-.09.108-.166.284-.122.372.044.087.188.188.555.12l-.067-.74Z" fill="#E6D89C"/><path fill-rule="evenodd" clip-rule="evenodd" d="M11.29 8.747s-.058.09-.058.235c0 .147.083.381.389.399.234.014.392-.338.562-.475.13-.105.208-.108.208-.108s-.132-.144-.486-.33c-.35-.188-.741-.213-.954.076.1-.008.425-.09.425-.09l.16.05-.245.243Z" fill="#252211"/><path fill-rule="evenodd" clip-rule="evenodd" d="M11.748 8.938c-.01-.022-.018-.051.025-.058.042-.007.06-.003.075.029.015.031.029.058.007.071-.021.012-.078 0-.107-.042Zm-.069-.205s-.014.01-.007-.01c.003-.025.022-.069.068-.059.047.01.037.061.03.076-.008.015-.047.04-.076.029a.025.025 0 0 1-.017-.014.024.024 0 0 1 .002-.022Z" fill="#6F674D"/><path fill-rule="evenodd" clip-rule="evenodd" d="M7.738 8.826s.115.087.25.083c.132-.003.302-.14.38-.227.047-.051.087-.105.13-.147.037-.037.061-.054.079-.079.025-.029.05-.083.064-.1-.032.024-.079.068-.127.097a1.5 1.5 0 0 1-.188.098c-.039.014-.447.23-.447.23l-.14.045Z" fill="#AC924C"/><path fill-rule="evenodd" clip-rule="evenodd" d="M7.914 7.75s.064-.044.188-.072c.12-.029.36-.05.36-.05l.198.086.078.298-.144.31-.183.116-.208-.335-.288-.353Z" fill="#9F8E57"/><path fill-rule="evenodd" clip-rule="evenodd" d="m7.654 8.016-.068.051s.018-.032.032-.13a1.2 1.2 0 0 1 .201-.471c.11-.137.108-.13.108-.13a.073.073 0 0 0-.058.015.697.697 0 0 1 .2-.205c.094-.058.13-.076.228-.03.097.048.122.072.193.07.072-.004.133-.08.133-.08s.014.047-.04.155c-.053.108-.266.328-.266.328l-.443.303-.22.124Z" fill="#EAC970"/><path fill-rule="evenodd" clip-rule="evenodd" d="M7.983 7.713s.32.044.418-.046c.003.01.014.01.014.017 0 .006-.003.01-.007.015a.234.234 0 0 1 .032-.003.189.189 0 0 0 .04.007l.03-.003a.054.054 0 0 1-.021.037c.014 0 .028.003.028.014 0 .012.003.047-.014.054a.066.066 0 0 1-.044-.003.18.18 0 0 0 .022.079c.029.054.09.115.173.097 0 0 .043.105-.14.338-.025.032-.051.076-.083.112a.425.425 0 0 0-.029.086s.31-.12.4-.391c.09-.274.107-.544.09-.795a.41.41 0 0 0-.033-.16c-.043-.09-.166-.075-.215-.024-.071.071-.19.249-.357.371-.169.123-.176.144-.306.198Z" fill="#D7BC6B"/><path fill-rule="evenodd" clip-rule="evenodd" d="M7.598 8.107s-.06.036-.093.172c-.032.14.029.31.064.364.035.054.115.202.281.209a.308.308 0 0 0 .12-.025.756.756 0 0 0 .161-.1c.072-.054.13-.1.123-.105-.018-.008-.44-.357-.44-.357l-.159-.177-.057.019Z" fill="#585136"/><path fill-rule="evenodd" clip-rule="evenodd" d="M7.998 8.686s.085-.007.136-.04c.051-.031-.298-.378-.298-.378l.025.375.137.043Z" fill="#453A25"/><path fill-rule="evenodd" clip-rule="evenodd" d="M7.625 8.08s-.043.083-.043.105c-.008.071.014.296.032.367.017.076.112.19.234.19.076 0 .18-.046.18-.057 0-.015-.107-.03-.136-.083a.49.49 0 0 1-.03-.173c-.002-.047-.002-.098.016-.115.039-.044.046-.17.046-.17l.14-.26H7.88l-.22.138-.035.058Z" fill="#84754B"/><path fill-rule="evenodd" clip-rule="evenodd" d="M7.572 8.16s.144-.19.274-.234c.13-.044.188-.018.188-.018l-.076.194-.108.12.008.06s-.018.162.09.274c.108.113.188.108.234.108.047 0 .18-.04.25-.2.06-.152.111-.346-.01-.541a.44.44 0 0 0-.372-.201c-.041 0-.361.016-.478.438Z" fill="#252211"/><path fill-rule="evenodd" clip-rule="evenodd" d="M11.269 8.808c-.054-.024-.003-.176.051-.222a.38.38 0 0 1 .242-.108c.043-.003.086.025.078.054-.01.054-.085.13-.154.183-.095.075-.156.121-.217.093Z" fill="#F7F7E7"/><path fill-rule="evenodd" clip-rule="evenodd" d="M8.357 7.983c.04-.003.09.029.1.071.01.047-.024.14-.1.14-.061 0-.093-.076-.093-.097a.1.1 0 0 1 .014-.051c.003-.005.01-.056.079-.063Z" fill="#F8F6DE"/><path fill-rule="evenodd" clip-rule="evenodd" d="M7.788 8.016s-.1.047-.147.144a.382.382 0 0 0-.03.23.564.564 0 0 0 .07.16c.024.031.058.053.082.05.025-.003.076-.068.076-.108 0-.039.003-.205.051-.295.042-.09-.102-.18-.102-.18Z" fill="#D4C38B"/><path fill-rule="evenodd" clip-rule="evenodd" d="M7.804 8.009c-.017.01-.046.025-.04.044.008.017.07.028.091.071.025.044.025.09.018.112a.177.177 0 0 0 .05-.036c.033-.037.072-.086.105-.086.022 0 .044.01.064.01.033 0 .065-.01.069-.044.007-.043-.061-.083-.1-.075.007-.03.017-.072-.015-.1-.032-.03-.133.021-.155.036a1.975 1.975 0 0 0-.087.068Z" fill="#E2D59D"/><path fill-rule="evenodd" clip-rule="evenodd" d="m10.116 11.069.216-.064.061.044s.043.093.112.104c-.022.047-.079.087-.076.12a.1.1 0 0 0 .032.058s-.193.32.188.643a6.05 6.05 0 0 0-.266.116c.043.01.137.028.176.064.04.035.04.046.076.068.036.022.058.051.05.064-.024-.014-.107-.058-.122-.017-.014.04-.36.024-.36.024l-.582.113s.022-.059-.04-.113c-.07-.063-.158.003-.251-.068-.122-.093-.127-.201-.166-.242.04-.024.12-.06.31-.086-.007-.015-.032-.058-.017-.098.017-.05.09-.083.068-.144.032-.007.047-.007.127-.107.076-.1.122-.123.18-.13.059-.007.094 0 .201-.1.076-.072.051-.133.051-.133s.05-.016.032-.117Z" fill="#CBAC5A"/><path fill-rule="evenodd" clip-rule="evenodd" d="M9.481 11.101c.003-.015.015-.022.093-.015.08.008.577-.046.713-.053.136-.01.618-.003.853.046.234.05.472.108.587.137.115.032.151.044.147.058-.003.015-.03.03-.044.025-.015-.003-.396-.12-.514-.144a4.639 4.639 0 0 0-.749-.086c-.208.003-.29-.003-.467.017-.176.022-.467.051-.555.04-.086-.01-.068-.01-.064-.025Z" fill="#D6BC6F"/><path fill-rule="evenodd" clip-rule="evenodd" d="M10.653 12.243s.299.161.406.36a.156.156 0 0 1-.046.22s.169 0 .147.092c-.01.059-.291.216-.48.299-.19.083-.183.079-.276.093-.09.015-.338-.029-.389.044-.05.072-.028.147-.014.159a.82.82 0 0 0 .132.024s-.024.069-.269.076c-.245.007-.306.025-.32.051-.015.025.046.01.158.029.113.017.27.029.27.029s-.051.043-.184.078c-.151.04-.389.076-.46.12.037.024.09.06.115.064a.73.73 0 0 0-.161.058c.021.015.05.032.05.032s-.122.147-.193.184c-.071.036-.482.227-.623.19-.353-.093-.396-.479-.482-.508-.13-.043-.19.044-.306-.017.051-.037.079-.059.133-.083-.059-.03-.36-.22-.36-.22a2.229 2.229 0 0 0-.105-.201c-.058-.1-.144-.235-.208-.353-.14-.259-.147-.378-.274-.525.022-.03.098-.025.098-.025l1.061.35 1.883.054.489-.7.208.026Z" fill="#DFC677"/><path fill-rule="evenodd" clip-rule="evenodd" d="M7.865 13.308a.166.166 0 0 0 .04.032c.036.025.09.054.126.098.015-.022.051-.061.115 0 .065.061.144.017.194.032.05.017.054.025.054.025s.029-.025.093-.051c.04-.015.086-.025.137-.04.046-.01.097-.024.132-.024.033.021.147.144.61-.037.434-.169.535-.188.608-.162.007-.017.014-.05.126-.046 0-.047-.093-.205-.093-.205l-.514-.177h-.28l-.844.155-.467.266-.036.135Z" fill="#C4A859"/><path fill-rule="evenodd" clip-rule="evenodd" d="M7.584 13.013s.01.079.127.162c.115.083.151.132.151.132s.022-.029.04-.058c.017-.032.031-.069.06-.079.059-.024.191.022.22.015.025-.007.018-.058.044-.058.061-.003.1.039.122.039.022 0 .076-.003.083-.015.008-.011.01-.132.094-.19a.25.25 0 0 1 .23-.022c0 .021.003.075.061.078.058.003.064-.007.115.01.051.018.112-.002.14.084.025-.008.083-.015.068-.098.03-.022.054-.036.116-.122.014-.022.039-.047.058-.079.05 0 .112-.01.193.061-.024.018-.039.029-.046.047.021.02.04.044.058.068.022.029.037.064.064.072.061.017.162-.008.274 0a.551.551 0 0 1 .237.07c.015-.006.015-.01.051-.002.037.007.064.01.025-.036.022.01.047.032.069.01.021-.022.039-.054.1-.061.061-.008.083.003.108-.062.032-.078-.079-.078-.079-.078s.051-.047.108-.108c.068-.064.147-.147.166-.249.032-.188-.152-.213-.152-.213l-.89.274-1.087-.054-.927.462h-.001Z" fill="#927D49"/><path fill-rule="evenodd" clip-rule="evenodd" d="M6.783 10.443s-.029.036-.046.122c-.018.086-.01.076-.025.137-.015.06-.194.67-.127.875.068.205.184.281.257.447.014.037.028.058.036.09.025.108.003.191.032.299a.33.33 0 0 0 .076.122c.086.09.227.176.288.238.086.09.208.274.364.29a.525.525 0 0 0 .298-.082c.087-.054.14-.13.23-.173.065-.032.133-.044.194-.058a.878.878 0 0 1 .31-.015c.105.022.353.098.49.098a1.33 1.33 0 0 0 .317-.044c.209-.061.46-.166.626-.212.098-.03.177-.037.257-.054.137-.032.252-.076.317-.16-.043-.05-.097-.129-.389-.126-.33.008-.712.191-.9.22-.187.03-.269.054-.479-.022-.205-.076-.212-.127-.212-.127s-.216-.15-.306-.536c-.09-.385 0-.665.234-.932.061-.068.047-.13.047-.13s.154-.208.112-.403c-.047-.193-.345-.154-.345-.154l-1.656.29Z" fill="#6E6342"/><path fill-rule="evenodd" clip-rule="evenodd" d="M7.033 11.09a.15.15 0 0 0-.017.08c.003.039.014.09.132.205.1.1.079.212.079.212s.05.01.188-.054c.108-.05.144.04.144.04a.304.304 0 0 1 .1-.033.221.221 0 0 0 .09-.028s.127.13.238.19c.1.054.159.09.208.054.047-.032.047-.097.044-.126a.38.38 0 0 0-.044-.076c-.032-.047-.083-.1-.086-.144-.008-.1.075-.22.058-.25-.018-.028-.083-.036-.245.023-.167.055-.89-.092-.89-.092h.001Z" fill="#39331F"/><path fill-rule="evenodd" clip-rule="evenodd" d="M7.414 11.742s-.083-.079-.054-.46a.416.416 0 0 1 .105.01s.045.295-.051.45Z" fill="#292311"/><path fill-rule="evenodd" clip-rule="evenodd" d="M6.823 10.151a.236.236 0 0 0 .032-.028c-.029.053-.162.269-.054.608.108.338.379.59.712.602.334.011.509-.152.71-.396.078-.098.168-.22.248-.303.12-.13.213-.166.213-.292 0-.256-.262-.37-.648-.486-.386-.115-.734-.1-.914-.022-.177.086-.252.176-.299.317Z" fill="#252211"/><path fill-rule="evenodd" clip-rule="evenodd" d="m8.063 11.856.029-.014s.007-.115.053-.112c.047.007.069.068.064.09-.002.022-.014.058-.06.054-.062.001-.086-.018-.086-.018Z" fill="#3F3824"/><path fill-rule="evenodd" clip-rule="evenodd" d="M7.934 11.367s.028-.01.064.025c.028 0 .154-.014.193.01.04.025.051.047.051.047s-.147.032-.227 0c-.081-.028-.081-.082-.081-.082Z" fill="#2D2815"/><path fill-rule="evenodd" clip-rule="evenodd" d="M8.58 11.389a.36.36 0 0 0-.16-.079c-.015-.003-.018.008-.03.008-.007-.003-.01-.025-.01-.025l-.047.025s-.007.01.018.029c.021.017.058.032.068.06.01.03.01.04.015.044.002.003.053 0 .078-.014.025-.015.072-.039.069-.048Z" fill="#82764F"/><path fill-rule="evenodd" clip-rule="evenodd" d="M7.846 11.685s.014-.1.112-.105c.1-.007.12.09.12.09l-.059.059c0-.002-.044-.063-.173-.044Z" fill="#2D2816"/><path fill-rule="evenodd" clip-rule="evenodd" d="M8.48 11.252s-.055.059-.174.076c-.01-.014-.032-.044 0-.09.032-.047.068-.061.105-.047a.085.085 0 0 1 .068.061Z" fill="#574F35"/><path fill-rule="evenodd" clip-rule="evenodd" d="M8.698 11.324c.003-.015-.007-.018 0-.025.008-.007.047-.022.054-.015.003.003 0 .015 0 .03 0 .013 0 .028-.007.038-.01.015-.04.022-.054.018-.014-.004-.017-.025-.017-.029.007-.003.024-.01.024-.017Zm.25-.158c0-.007.024-.021.038-.021.022 0 .022.017.025.021.007.003.007-.003.015.01.007.014.017.037.01.052-.008.014-.037.024-.044.021a.388.388 0 0 1-.045-.083Z" fill="#82764F"/><path fill-rule="evenodd" clip-rule="evenodd" d="M8.447 11.357s.032.008.076.044a.444.444 0 0 1-.036.022s-.003-.034-.04-.066Z" fill="#6E6342"/><path fill-rule="evenodd" clip-rule="evenodd" d="M8.376 11.037c-.007-.008.022-.025.04-.022.017.003.024.014.043.017.019.003.022-.007.029-.014.007-.008.032-.003.036 0a.08.08 0 0 1 .008.01.04.04 0 0 1 .014-.029.046.046 0 0 1 .04-.007c.002.01.017.046.014.054-.003.007-.047.017-.054.01.007.017.04.054.044.061.004.007-.032.025-.047.022a.592.592 0 0 1-.167-.102Zm.19-.242a.033.033 0 0 0-.014-.018c-.01-.002-.043 0-.043.018a.54.54 0 0 0 .06.166c.037.051.062.093.087.105a.034.034 0 0 0 .044-.014.881.881 0 0 0 .007-.189 1.729 1.729 0 0 0-.015-.256c-.007-.007-.036-.007-.047.007a1.36 1.36 0 0 0-.078.18Z" fill="#585136"/><path fill-rule="evenodd" clip-rule="evenodd" d="M8.437 11.54s-.05-.032-.1-.01c-.047.022-.044.108-.044.108a.069.069 0 0 0 .064-.007c.032-.022.073-.059.08-.09Z" fill="#574F35"/><path fill-rule="evenodd" clip-rule="evenodd" d="M8.533 11.655c-.003-.028-.03-.028-.03-.043a.033.033 0 0 1 .033-.025c.014 0 .029.018.047.029.017.01.043.029.046.05.003.023-.029.084-.064.084s-.025-.066-.032-.095Zm.28-.039s-.058.018-.053 0c.004-.017.017-.022.036-.022a.058.058 0 0 1 .037-.017c.008 0 .015.002.021.007 0 0 .04-.018.051-.007.012.01.003.01.01.022a.09.09 0 0 1 .018.043c0 .012-.044.037-.079.032-.04-.008-.033-.05-.04-.058Zm.34-.066s.017.01.003.022a.237.237 0 0 1-.105.033c-.044 0-.083.007-.083-.008 0-.014.036-.043.058-.05a.046.046 0 0 1 .037-.018c.017 0 .086-.008.105-.01.017-.003.032.007.021.021-.004.01-.036.01-.036.01Zm.1-.45s-.021.047-.046.047c-.025-.002-.025-.01-.025-.017 0-.01.025-.037.022-.044-.007 0-.025 0-.022-.017 0-.015.025-.032.047-.029a.096.096 0 0 1 .058-.022c.025 0 .046.007.046.022s-.028.046-.039.054c-.011.011-.026.02-.04.007Zm-.332.861s-.028.003-.028.018c0 .007.007.007.017.003a.08.08 0 0 0 .018-.003c.002.003.002.017.024.017a.138.138 0 0 0 .051-.017c.018-.007.032-.015.032-.029-.007-.025-.022-.036-.043-.036a.058.058 0 0 0-.032.007s-.008-.015-.032 0c-.025.015-.022.015-.015.022.013.011.009.02.009.02v-.002Zm-.164.152c0-.007.036-.022.046-.018.01.003.04.059.04.064 0 .008-.037.025-.051.025-.015 0-.04-.024-.04-.028 0-.003.018-.008.018-.01.004-.008-.013-.025-.013-.033Zm-.115-.213c.007-.002.007-.01.017-.017a.025.025 0 0 1 .022-.003.035.035 0 0 1 .025-.018c.017-.002.032 0 .029.008 0 .022.014.036.014.054 0 .017-.01.039-.046.053a.257.257 0 0 1-.094.008c-.007-.003-.014-.032-.007-.047a.121.121 0 0 1 .04-.038Z" fill="#82764F"/><path fill-rule="evenodd" clip-rule="evenodd" d="M8.688 11.91s-.025.015-.025.022a.064.064 0 0 0-.003.022c0 .004.032-.003.037-.007.001-.003-.01-.03-.01-.037Z" fill="#6E6342"/><path fill-rule="evenodd" clip-rule="evenodd" d="M8.472 11.842c.015.003.04 0 .059.007.014.008.024.022.01.04-.015.017-.029.043-.061.039-.037-.003-.072-.022-.072-.036a.07.07 0 0 1 .018-.051c.014-.012.022-.005.046.001Z" fill="#585136"/><path fill-rule="evenodd" clip-rule="evenodd" d="M8.454 11.856s-.046.037-.058.054c-.015.018-.086.108-.108.127a.283.283 0 0 1 .025-.036.15.15 0 0 0-.061.078c-.018.054.097.083.173.105l.105.029a.814.814 0 0 1-.071-.132c-.03-.069-.044-.076-.025-.108.014-.032.036-.054.036-.079l-.016-.038Z" fill="#574F35"/><path fill-rule="evenodd" clip-rule="evenodd" d="M6.793 11.971c.01.002.022.002.032 0 .022-.003.25-.086.487-.071.177.01.353.04.525.086.299.079.67.235.91.324.064.024.127.068.173.085.184.072.19.072.299.09.126.018.256-.024.391-.053.166-.037.45-.054.7-.09.08-.011.159-.03.236-.054 0 0-.198.198-.672.27-.192.028-.387.03-.58.007a1.767 1.767 0 0 1-.327-.059c-.086-.024-.263-.09-.48-.144-.15-.04-.32-.068-.513-.105-.478-.087-.996-.188-1.181-.285Z" fill="#252211"/><path fill-rule="evenodd" clip-rule="evenodd" d="M6.257 11.072a8.22 8.22 0 0 1-.356.28l-.36.277c-.122.09-.242.183-.364.274-.122.09-.244.176-.374.259.115-.098.237-.188.36-.277.122-.089.248-.176.366-.266l.36-.277c.124-.09.243-.183.368-.27Zm-.636 1.019s.13-.108.291-.26c.201-.187.447-.427.526-.471l-.817.731Z" fill="#CFB66C"/><path fill-rule="evenodd" clip-rule="evenodd" d="M5.621 12.091c.064-.064.133-.126.201-.188l.105-.09c.032-.029.068-.061.1-.093.064-.064.127-.133.191-.198.032-.033.065-.064.1-.093a.273.273 0 0 1 .059-.04c.017-.01.036-.029.06-.032-.014.022-.031.032-.046.051-.017.015-.032.032-.046.047-.032.032-.069.06-.1.09-.07.058-.14.115-.209.176-.068.061-.132.127-.2.188-.075.063-.143.124-.215.182Zm.87-.582s-.474.464-.571.54l.572-.54Z" fill="#CFB66C"/><path fill-rule="evenodd" clip-rule="evenodd" d="M6.492 11.508c-.043.05-.088.096-.137.14l-.144.137c-.046.046-.09.093-.14.14-.05.043-.097.086-.151.126l.14-.136c.046-.047.097-.086.147-.133l.14-.137c.048-.048.094-.095.145-.137Zm.022.252a3.03 3.03 0 0 1-.154.357c-.123.245-.306.55-.386.706l.54-1.063Z" fill="#CFB66C"/><path fill-rule="evenodd" clip-rule="evenodd" d="M6.513 11.76c0 .054-.014.1-.032.147a1.445 1.445 0 0 1-.13.27c-.024.042-.053.086-.075.13l-.147.259c-.051.086-.1.173-.154.256.036-.093.086-.18.132-.267.051-.086.098-.172.144-.262.023-.044.043-.09.061-.137.022-.046.044-.09.061-.132.022-.047.04-.09.062-.133.024-.045.045-.088.078-.13Z" fill="#CFB66C"/><path fill-rule="evenodd" clip-rule="evenodd" d="M7.033 12.955s-.144.19-.13.432c.04-.127.09-.32.13-.432Zm.137.19s-.051.52-.093.774c.06-.295.07-.27.093-.773Zm.954.805s-.216.633-.22.81c.046-.182.136-.552.22-.81Z" fill="#DEC270"/><path fill-rule="evenodd" clip-rule="evenodd" d="M8.627 12.915s.35.577.612 1.07c-.071-.248-.235-.703-.612-1.07Z" fill="#CBAF59"/><path fill-rule="evenodd" clip-rule="evenodd" d="M9.566 13.764c.192.34.365.69.519 1.047a1.6 1.6 0 0 0-.519-1.047Z" fill="#E3C677"/><path fill-rule="evenodd" clip-rule="evenodd" d="M12.328 14.615c.058-.037.173-.235.273-.284.1-.051.176-.061.267-.162.09-.105.115-.169.313-.252.277-.12.086-.274.086-.274a.877.877 0 0 1 .098-.083c.071-.054.154-.12.147-.234-.01-.194-.047-.475-.205-.638.154-.032.45-.054.633-.1.213-.054.31-.13.31-.13s-.122-.208.076-.418.36-.335.479-.57c-.137-.017-.345-.09-.878.113a.662.662 0 0 1 .083.046s-.328.09-.447.191c-.208.176-.235.32-.46.428-.226.108-.453.079-.64.166-.188.088-.216.162-.285.194.015.017-.003.046.025.071-.018.025-.12.19-.223.19.01.04.098.07.098.07s-.064.046-.227.058c.083.086.161.18.378.317-.017.037-.09.09-.061.159.032.068.115.162.447.237-.169.007-.367.047-.633.01-.267-.032-.31-.05-.475-.01.017.018.064.018.105.064-.044.003-.318-.032-.41.09a.794.794 0 0 0-.133.475c-.051.025-.1.069-.076.16.025.09.154.119.237.175.083.062.09.083.17.069.082-.018.204-.1.276-.1.071 0 .122.053.122.053s.194-.093.213-.075c.017.017.003.13.022.147.019.013.237-.117.295-.153Z" fill="#ECD592"/><path fill-rule="evenodd" clip-rule="evenodd" d="M16.559 8.787C15.649 6.437 13.399 6 13.399 6H6.98l.024 2.394h1.279v5.346H6.98v2.39h6.241c1.504 0 2.71-1.512 2.71-1.512 1.93-2.74.628-5.832.628-5.832Zm-3.304 4.221s-.49.707-1.022.707h-1.066L11.142 8.4h1.367s.634.132 1.076 1.386c0 0 .587 1.795-.33 3.221Z" fill="#fff" fill-opacity=".8"/><path d="M12.613 21a9 9 0 1 1 18 0 9 9 0 0 1-18 0Z" fill="#fff"/><path fill-rule="evenodd" clip-rule="evenodd" d="M21.233 12c-1.734.1-3.334.69-4.667 1.633h10.386A8.956 8.956 0 0 0 22.284 12h-1.051Zm-6.427 3.266a8.985 8.985 0 0 0-1.068 1.633H29.78a8.978 8.978 0 0 0-1.068-1.633H14.806ZM12.65 20.18c.05-.56.15-1.106.299-1.633h17.317c.148.527.249 1.072.298 1.633H12.65Zm.004 1.633a8.89 8.89 0 0 0 .308 1.633h17.29a8.897 8.897 0 0 0 .309-1.633H12.654Zm2.039 4.899a8.99 8.99 0 0 1-1.083-1.633h15.994a8.987 8.987 0 0 1-1.082 1.633H14.693Zm6.534 3.256.027.001.027.001a8.86 8.86 0 0 0 5.455-1.625H16.479a8.859 8.859 0 0 0 4.748 1.623Z" fill="#F44336"/><path d="M21.422 12.005a8.991 8.991 0 0 0-8.77 8.178h8.77v-8.178Z" fill="#283991"/><path d="m14.413 17.085.137.421h.444l-.36.26.138.422-.36-.26-.358.26.137-.422-.359-.26h.444l.137-.421Zm0 1.487.137.422h.444l-.36.26.138.421-.36-.26-.358.26.137-.421-.359-.26h.444l.137-.422Zm1.491-3.719.137.421h.444l-.36.261.138.421-.36-.26-.358.26.137-.421-.36-.26h.445l.137-.422Zm0 1.488.137.421h.444l-.36.26.138.422-.36-.26-.358.26.137-.422-.36-.26h.445l.137-.421Zm0 1.488.137.421h.444l-.36.26.138.421-.36-.26-.358.26.137-.421-.36-.26h.445l.137-.421Zm-2.623 1.102-.137-.421.359-.26h-.444l-.01-.03a8.58 8.58 0 0 0-.133.456l.006-.005.36.26Zm.773-2.231.359-.26.359.26-.137-.421.359-.26h-.444l-.137-.422-.137.421h-.164l-.09.139.169.122-.137.421Zm1.85-2.492.359.26-.137-.42.358-.261h-.256a8.944 8.944 0 0 0-.63.515l-.054.166.36-.26Zm1.131-.483.36-.26.358.26-.137-.422.36-.26h-.444l-.02-.057c-.15.077-.298.157-.444.242l.104.075-.137.422Zm.36.385.137.42h.443l-.359.261.137.421-.358-.26-.36.26.138-.421-.36-.26h.444l.137-.421Zm0 1.487.137.421h.443l-.359.26.137.422-.358-.26-.36.26.138-.421-.36-.26h.444l.137-.422Zm0 1.488.137.421h.443l-.359.26.137.422-.358-.26-.36.26.138-.422-.36-.26h.444l.137-.421Zm0 1.487.137.422h.443l-.359.26.137.421-.358-.26-.36.26.138-.421-.36-.26h.444l.137-.422Zm1.49-5.206.137.42h.444l-.359.261.137.421-.359-.26-.359.26.137-.42-.359-.261h.444l.137-.421Zm0 1.487.137.421h.444l-.359.261.137.421-.359-.26-.359.26.137-.421-.359-.26h.444l.137-.422Zm0 1.488.137.421h.444l-.359.26.137.422-.359-.26-.359.26.137-.422-.359-.26h.444l.137-.421Zm0 1.488.137.421h.444l-.359.26.137.421-.359-.26-.359.26.137-.421-.359-.26h.444l.137-.421Zm1.491-5.207.137.421h.444l-.359.26.137.422-.359-.26-.359.26.137-.422-.359-.26h.444l.137-.421Zm0 1.488.137.42h.444l-.359.261.137.421-.359-.26-.359.26.137-.421-.359-.26h.444l.137-.421Zm0 1.487.137.421h.444l-.359.26.137.422-.359-.26-.359.26.137-.421-.359-.26h.444l.137-.422Zm0 1.488.137.421h.444l-.359.26.137.422-.359-.26-.359.26.137-.422-.359-.26h.444l.137-.421Zm0 1.487.137.422h.444l-.359.26.137.421-.359-.26-.359.26.137-.421-.359-.26h.444l.137-.422Z" fill="#EFEFEF"/></svg>