<svg width="33" height="32" fill="none" xmlns="http://www.w3.org/2000/svg"><path d="M16.5 32c8.837 0 16-7.163 16-16s-7.163-16-16-16S.5 7.163.5 16s7.163 16 16 16Z" fill="#988430"/><path d="M16.5 31.488c8.554 0 15.488-6.934 15.488-15.488C31.988 7.447 25.054.513 16.5.513 7.947.513 1.013 7.447 1.013 16c0 8.554 6.934 15.488 15.487 15.488Z" fill="#7A6A2A"/><path d="M16.5 31.161c8.373 0 15.161-6.788 15.161-15.161S24.873.839 16.5.839 1.339 7.627 1.339 16 8.127 31.161 16.5 31.161Z" fill="#BA9F33"/><path fill-rule="evenodd" clip-rule="evenodd" d="M7.496 14.292c-.091-.083-.187-.166-.275-.249a27.004 27.004 0 0 0-.269-.248l-.27-.256c-.043-.044-.09-.083-.134-.127-.044-.04-.096-.083-.14-.122-.357-.34-.717-.678-1.069-1.017.365.334.722.665 1.088 1.004l.126.127c.044.044.091.083.135.127l.27.248c.09.083.178.166.268.256.091.09.18.174.27.256Zm-4.743-.052s1.3.135 1.934.226c.587.083 2.425.365 2.425.365l-4.36-.59Zm0 0c.365.031.73.07 1.095.11.186.017.365.038.544.056l.274.031.27.039 1.087.173.543.091c.179.031.358.065.544.096a12.952 12.952 0 0 1-.544-.07l-.543-.078-1.088-.16c-.09-.013-.179-.031-.27-.044l-.274-.032c-.178-.018-.365-.044-.543-.065-.365-.043-.73-.09-1.096-.147Zm4.23.93s-1.388.351-1.856.486c-.461.127-1.857.551-1.857.551l3.713-1.038Z" fill="#CFB66C"/><path fill-rule="evenodd" clip-rule="evenodd" d="M6.983 15.169c-.308.09-.615.179-.927.262l-.927.248-.922.27-.46.126c-.153.044-.308.083-.466.127.152-.051.308-.103.46-.148l.461-.147c.308-.096.615-.187.922-.282.313-.078.621-.16.935-.236.297-.075.61-.15.924-.22Zm-3.518 1.893c.152-.057 1.913-.878 2.322-1.07.205-.096.8-.307.8-.307l-3.122 1.377Z" fill="#CFB66C"/><path fill-rule="evenodd" clip-rule="evenodd" d="M3.465 17.062c.134-.051.261-.114.39-.174l.384-.178.769-.37c.256-.122.504-.256.768-.37a5.15 5.15 0 0 1 .404-.148l.205-.065c.07-.018.135-.039.205-.057-.256.122-.526.226-.782.344-.256.127-.518.231-.782.345l-.782.344c-.262.106-.518.22-.78.329Zm.17.717s1.595-.935 2.144-1.235a50.81 50.81 0 0 1 1.217-.622l-3.36 1.857Z" fill="#CFB66C"/><path fill-rule="evenodd" clip-rule="evenodd" d="M3.635 17.779c.27-.166.544-.334.818-.505l.41-.249c.14-.083.274-.16.417-.243.14-.083.274-.166.417-.244.067-.041.138-.078.212-.108l.217-.109c.288-.14.575-.282.878-.404-.274.174-.557.321-.839.474-.14.077-.282.147-.422.225-.14.078-.274.16-.417.236-.14.082-.274.16-.417.235l-.422.23-.851.462Zm3.348-1.652s-.992.76-1.313 1.004c-.32.244-1.266.927-1.266.927l2.579-1.931Z" fill="#CFB66C"/><path fill-rule="evenodd" clip-rule="evenodd" d="m12.673 22.265-.507-.96.295-1.202 2.105-.813-.896-1.838.443-1.856.831-1.662 2.568-.404 1.888-1.8 4.075.309.8 4.357-1.54 5.486-.878 2.84-3.558.135-1.651-1.145-1.934-.808-2.04-.639Z" fill="#E2CC85"/><path fill-rule="evenodd" clip-rule="evenodd" d="M18.913 22.235s-.492.225-1.331.173c-.243-.326-1.944-.479-1.944-.479s-.212-.064-.588.09c-.378.154-.735.135-1.069.218-.334.083-.665-.352-.921-.442-.257-.096-.596-.327-.596-.327l-.717-.07-1.44-.608-2.286-2.278-.621.973-.192 1.203.691 1.427 1.862 1.696 3.63.921 2.151-.633 2.695-1.14.676-.724Z" fill="#F1D789"/><path fill-rule="evenodd" clip-rule="evenodd" d="m6.017 14.182.46-1.395.55-.901 1.768-.148-.53 1.549-1.479 2.63.614 2.348-1.088.544-.334-.513-.269-1.175-.018-1.32.326-1.619Z" fill="#F4ECB4"/><path fill-rule="evenodd" clip-rule="evenodd" d="m8 22.138-.339-.473s-.09-.226-.038-.422c.05-.2.043-.213.018-.288-.026-.075-.244-.334-.23-.557.012-.225-.019-.3.147-.479.173-.173.121-.473.121-.473l.226.14.05-.078s.084.065.084.166c.018-.14-.057-.788.114-.935.17-.148.473.691.473.691l-.186-1.217-.48-1.247-.85-1.14-.052-1.255v-.11s-.391.602-.5 1.076c-.077.326.109.722.07 1.191-.031.466-.07.43.044.614.114.185.391.565.282.84-.095.235-.422.07-.422.07s-.064.19-.152.26a.58.58 0 0 0-.127-.255c-.006.044-.018.103-.018.103s-.057-.178-.114-.404c-.078-.3-.16-.696-.236-.908-.031.121-.109.492-.109.492l.044.57.213.781.205.512.199.627.173.42.14.322.122.722.587.621.313.14L8 22.14Z" fill="#F3E19D"/><path fill-rule="evenodd" clip-rule="evenodd" d="M6.325 13.043s-.422.717-.543 1.44c-.122.722-.23 1.486-.154 2.47.078.991.225 1.6.345 2.035.204.722.735 1.727.735 1.727l.018-.04a2.728 2.728 0 0 1-.212-.53c-.07-.274-.096-.6-.161-.748-.057-.148-.153-.275-.2-.456-.043-.173-.05-.448-.186-.652-.057-.083-.127-.3-.147-.518-.026-.326.013-.691-.018-.992-.057-.5-.096-.838-.044-1.1.051-.262.32-1.004.486-1.595.11-.378.044-.696.244-1.025.199-.326.32-.614.365-.813.05-.181-.528.797-.528.797Z" fill="#F2E8B0"/><path fill-rule="evenodd" clip-rule="evenodd" d="M8.327 12.756s-.218.065-.321.178c-.104.11-.148.2-.288.384-.14.184-.147.334-.261.564-.114.225-.365.565-.396.686-.031.122-.083.691-.148.96-.057.27.065.601.065.601l.147-.03s0 .19.148.32c.147.127.173-.43.173-.43l.552-1.861.83-.564.091-.456-.593-.352Z" fill="#F5EEC0"/><path fill-rule="evenodd" clip-rule="evenodd" d="M8.73 13.6s-.39.026-.582.166c-.078.057-.109.103-.192.173-.152.127-.308.243-.383.41-.083.165-.173.416-.235.89-.026.2-.026.383-.044.544-.026.217-.065.39-.045.512.026.248.283.378.308.66l.53-.269.5-1.97 1.062-.666-.601-.673-.318.222v.001Z" fill="#E6DB9D"/><path fill-rule="evenodd" clip-rule="evenodd" d="m5.93 26.868.007-.059c.077-.665.09-1.17.147-1.486.083-.448.14-.614.127-.782-.018-.269-.038-.466-.013-.673.04-.274.309-.6.3-.826-.004-.178-.095-.295-.173-.404l-.14-.199s.531-.365.526-1.835a.14.14 0 0 1 .031.012l.262.743.178.218.686 1.279.883.857 1.305.877.818.89.083 2.375-1.07 1.388-.174.317a15.21 15.21 0 0 1-3.783-2.692Z" fill="#E5CB7A"/><path fill-rule="evenodd" clip-rule="evenodd" d="M9.196 29.139s.018-.295.262-.487c.039.065.064.127.057.173a1.544 1.544 0 0 1 1.048-.704c.697-.127.865-.634.865-.634l1.478-1.344 1.69-1.556 2.056-.722.961-.236s.018.07-.018.226c.179-.013.575-.104.986-.249.166-.065.322-.09.404-.005.122.114.14.383.148.544.2-.044.43-.236.614-.218.296.031.557.378.857.378.396 0 .575-.243.852-.435.166-.114.404-.256.539-.352.32-.236 3.717-1.274 3.717-1.274l1.191.078.192 1.279-.102 3.343-.038.037-5.415 2.828-7.506 1.15a15.055 15.055 0 0 1-4.799-1.65l-.038-.17Z" fill="#D8C173"/><path fill-rule="evenodd" clip-rule="evenodd" d="M6.385 27.293c.107-.223.203-.41.22-.477.013.135.037.43.087.744a16.667 16.667 0 0 1-.307-.267Z" fill="#F1D789"/><path fill-rule="evenodd" clip-rule="evenodd" d="m11.868 30.44.971-.27.083.026s.044.026.044.113c.122-.07.225-.056.3-.103.04.083.078.357.249.39.178.04.37-.077.564-.224.192-.153.41-.345.575-.422.06.111.114.226.16.344.218-.173.596-.878 1.134-.865.156-.368.416-.682.748-.903.5-.34.813-.365 1.204-.334a2.05 2.05 0 0 1 .565-.505c.064.026.243.134.466.03.225-.102.479-.504.813-.556a.785.785 0 0 1 .517.11s.973-.967 1.644-1.288c-.026-.077-.077-.37.71-1.017.044.039.013.147.044.153.012 0 .204-.082.447-.269.3-.225.66-.46.878-.525.41-.122.844.126.844.126a.39.39 0 0 1 .122-.057c.103-.018.178-.03.235-.05-.005.134.07.364 0 .564.081.045.167.082.256.108-.043.096-.14.34-.3.456.135.065.153.14.344.205a3.794 3.794 0 0 0-.261.41c-.057.121-.262.626-.352.817-.096.192-.226.544-.288.615-.062.07-.287.37-.46.517.153-.057.781-.248 1.048-.32-.08.116-.482.713-.868 1.287a15.192 15.192 0 0 1-12.437 1.44l.001-.003Z" fill="#E0CD81"/><path fill-rule="evenodd" clip-rule="evenodd" d="M8.794 13.53s-.225 0-.269.031c-.044.031.226.096.308.127.083.031.262.174.308.288.044.108 1.618.742 1.618.742l1.114-.056.384-.53-.73-.64.512-1.51-.679.11-1.63.972-.819.313-.117.153Z" fill="#DFC57C"/><path fill-rule="evenodd" clip-rule="evenodd" d="M11.24 14.03a.174.174 0 0 0 .153.082c.23 0 .442.057.53.174.148.186.557.782.557.782l.979.352.063-1.153-1.07-.743-1.216.448v.057h.003Z" fill="#E5CC7C"/><path fill-rule="evenodd" clip-rule="evenodd" d="M11.047 14.457s.179.013.404-.07c.225-.083.595-.261.756-.191.225.095.178.396.422.665.148.166.417.16.57.34.152.178.678.095.678.095l.2 1.075-.8 1.026-.262 1.274h-1.082l-.988-.392-.487-1.178.243-1.191.346-1.453Z" fill="#D2C281"/><path fill-rule="evenodd" clip-rule="evenodd" d="M13.14 14.508a.29.29 0 0 0 .082.013c-.03.026-.095.083-.07.23.026.148.11.335.04.448a.562.562 0 0 1 .121.213c.044.127.057.243.344.261a.6.6 0 0 0-.114.091s.2.173.3.334c.104-.005.379-.09.379-.09l.057.039.121-.051s-.114-.044-.03-.321c.077-.244.147-.23.153-.249a2.53 2.53 0 0 0 .057-.378c.039-.134.07-.543.07-.543l-.083-.904-.466-.282-.379-.366-.357.673-.236.235-.018.582.029.065Z" fill="#E2C270"/><path fill-rule="evenodd" clip-rule="evenodd" d="M14.26 13.753s.084.236.115.417a.398.398 0 0 0 .018-.109s.064.358.077.505c.026-.005.051-.013.057.013.006.026.065.313.052.474.107-.178.256-.327.434-.435.104-.065.226-.135.353-.14.199-.005.344.127.582.127.575 0 1.095-.422 1.478-.551.283-.096.526-.166.697-.322.083-.07.23-.225.365-.455.178-.307.365-.575.551-.608-.084.015-.17.021-.256.018 0 0 .057-.057.154-.135.097-.078.212-.173.378-.173.295 0 .443.043.608.043.166-.005.262-.043.262-.043s.173.121.564.121c.391.005.653.039.857.057.205.018.89-.057 1.088-.051a.951.951 0 0 1 .37.09l-.634-1.843-2.28-1.991-1.356.96-2.087 2.087-2.02.748-.421.474v.722h-.005Z" fill="#CCB360"/><path fill-rule="evenodd" clip-rule="evenodd" d="M18.791 12.697s.057-.057.153-.135c.096-.078.212-.173.378-.173.295 0 .443.044.608.044a.86.86 0 0 0 .262-.044s.174.121.564.121c.391.005.653.039.857.057.205.018.89-.057 1.088-.051a.946.946 0 0 1 .37.09l-.288-.83-.333-.635-.953-1.043-1.152-.679a16.007 16.007 0 0 0-.396-.108l-1.036.626-.94 2.431-.018.512.608.288c.153-.256.322-.461.48-.487-.143.015-.252.015-.252.015Z" fill="#D5B457"/><path fill-rule="evenodd" clip-rule="evenodd" d="M18.779 12.87c-.091.005-.166-.013-.187-.078-.077-.217-.14-.248-.205-.248-.065 0-.152.14-.204.152-.052.013-.114-.16-.114-.16l-.057-.026s-.334.217-.57.473c-.235.257-.621.692-.794.77-.174.077-.77.103-.973.147a1.26 1.26 0 0 0-.461.225c-.031.034.09.07.109.104.018.03-.2.018-.218.05-.013.027.051.174.083.25a.423.423 0 0 1 .179-.045c.199-.005.344.127.582.127.575 0 1.095-.422 1.478-.551.283-.096.526-.166.697-.321.083-.07.23-.226.365-.456a3.21 3.21 0 0 1 .29-.414Z" fill="#D2B257"/><path fill-rule="evenodd" clip-rule="evenodd" d="M10.535 25.683s-.051-.192-.525-.686c-.135-.14-.218-.256-.309-.34-.225-.212-.357-.269-.517-.39-.352-.262-.736-.262-1.03-.583-.296-.321-.64-.934-.879-1.561-.235-.627-.3-.826-.3-.844 0-.018.065-.14.148-.122.082.018.082.179.103.218.042.063.088.123.14.178.122.14.295.307.383.557-.018-.212-.09-.448-.09-.448s.455.287.844.588c.39.3.551.404.665.595.114.192.383.697.512.844.129.148 1.895.704 1.895.704l.84.627.416.913-.326.512-.627.135-1.017-.456-.326-.441Z" fill="#D2B159"/><path fill-rule="evenodd" clip-rule="evenodd" d="M8.275 22.534s.212.34.73.66c.466.283 1.204.539 1.862.692.377.09.755.16 1.095.165.914.013 1.543-.248 2.322-.334.422-.044.94-.077 1.478-.204.692-.166 1.1-.353 1.657-.615.404-.186.774-.326 1.075-.505.422-.248.73-.525 1.087-.608-.044.122-.09.34-.442.565.186-.006.442-.019.442-.019s-.248.148-.686.48c-.27.204-.626.55-.991.781-.236.148-.492.256-.66.345-.41.225-.575.339-.845.614a.367.367 0 0 1 .104 0s-.34.044-.583.173c-.05 0-.14-.018-.295.026-.121.04-.282.127-.448.174-.235.07-.313.039-.313.039l.039.077s-.307-.005-.41.005c.018.005.013.013.013.013a.156.156 0 0 0-.05.018.536.536 0 0 1-.161.07c-.031.005-.057.005-.096.013.013.031.114.205.16.307-.038.026-.621.466-.621.466a.446.446 0 0 1 .044.091c.018.057.026.14.044.179.044.077.07.09.07.09s-.07.013-.192.044c-.103.026-.23.07-.41.096a1.64 1.64 0 0 1-.165.013c.026.057.14.274-.07.526-.21.25-.275.287-.34.448a.693.693 0 0 0-.103-.065c-.07-.031-.166-.078-.2-.14a1.66 1.66 0 0 1-.077.243c-.065.174-.16.345-.178.474-.07-.078-.2-.23-.378-.2-.18.032-.321.275-.352.345 0-.044-.031-.078-.04-.026a1.968 1.968 0 0 1-.652 1.134c-.005-.122-.005-.39-.018-.479-.051.051-.114.127-.486.288-.366.16-.308.32-.308.32s-.03-.255.166-.525c.2-.27.321-.396.321-.417a.115.115 0 0 0-.026-.057c-.026-.026-.078-.057-.078-.078.031-.012.34-.16.322-.466a.826.826 0 0 0-.218-.517c-.013-.013.122-.109.104-.14-.013-.018-.179-.14-.2-.205a.6.6 0 0 1 .026-.114c.018-.057.031-.096.026-.134a1.081 1.081 0 0 0-.103-.262c.018.005.147 0 .147 0s-.103-.165-.122-.243c-.018-.078-.057-.282-.077-.321.044.005.152.013.152 0 .006-.039-.095-.104-.05-.154.03.005.09.031.147.104-.031-.083-.083-.243-.192-.308a.47.47 0 0 1 .378.026c.153.09.205.217.205.217s.09.07.23.174c.16.126.365.307.692.434.07.04.248.04.378.013a.579.579 0 0 0 .16-.064.296.296 0 0 1 .057-.026 1.232 1.232 0 0 0-.096-.16c.044 0 .096.005.096.005s.031-.07-.109-.205c.031-.031.07-.052.07-.104-.044-.005-.121-.07-.14-.096.026-.018.065-.077.11-.095-.04-.031-.135-.161-.18-.174a.812.812 0 0 0 .122-.057s-.217-.057-.287-.103c-.07-.052-.174-.14-.236-.166-.064-.026-.178-.039-.225-.09.044.012.114 0 .166 0 .038 0 .057.004.07.004-.006-.018-.006-.057.095-.07a.474.474 0 0 0 .14-.043s-.096-.006-.204-.11c-.11-.103-.2-.186-.262-.199-.065-.012-.186.044-.261.04-.104-.014-.148-.065-.148-.065s-.344.03-1.108-.435c-.66-.404-.948-.761-.948-.761a1.139 1.139 0 0 1-.178-.083c-.249-.13-.593-.4-.583-.751l-.001.002Z" fill="#C2A44D"/><path fill-rule="evenodd" clip-rule="evenodd" d="M17.8 6.995c.06.02.113.056.153.104.122.14.2.404-.078.686.11.039.154.051.249.039-.096.114-.313.357-.326.57-.013.173.096.225.096.225s-.166.191-.174.512c.078-.089.164-.17.256-.244.192-.152.456-.326.634-.435a.365.365 0 0 0 .019.135s.333-.274.614-.153c.127.057.07.236.07.236s.173-.065.295.057.294.435.382.557c.039.057.14.166.243.334.142.236.26.484.352.743.006-.135.04-.344.422-.212.384.134.819.417 1.184.973.365.555.455 1.183.639 1.422.186.23.378.613.39.774.014.16-.056.678.327 2.079.109-.435.274-1.4.274-1.4l.091-.853.104-2.635-2.752-2.287-2.152-1.56-1.4.134.087.2Z" fill="#CAA13E"/><path fill-rule="evenodd" clip-rule="evenodd" d="M22.913 10.918s-.04-.256-.686-.691c-.648-.43-1.152-.43-1.618-.795-.358-.288-.73-.948-.973-1.165-.236-.215-.275-.837-.275-.837l.795-.665 1.182-1.709 1-1.1.478.666.666.781.37 1.57.135 2.296-1.075 1.65v-.001Z" fill="#B59544"/><path fill-rule="evenodd" clip-rule="evenodd" d="M23.713 13.67a2.917 2.917 0 0 0-.127-1.03 18.69 18.69 0 0 0-.717-1.826c-.07-.39-.018-.422.057-.466.076-.044.358-.205.512-.769.155-.564.635-.582.635-.582l.295-.218.448 1.121.39 1.013.122.774.091.66-.212 1.396-1.049.947-.445-1.02Z" fill="#C89D3A"/><path fill-rule="evenodd" clip-rule="evenodd" d="M9.083 29.225v-.029a.219.219 0 0 0 .056-.05c.018-.027.032-.058.044-.066a.487.487 0 0 1 .213-.038c.064.012.235.082.326.077.186-.005.404-.147.748-.083.518.096.64.448.94.648.205.14.417.077.448.077h.07c.013 0 .108-.108.16-.103.104.005.114.09.179.096.153.018.448-.078.595-.04a.285.285 0 0 1 .117.474c-.16.148-.313.288-.344.41.04.03.077.062.113.096a15.073 15.073 0 0 1-3.665-1.467v-.002Z" fill="#CEB052"/><path fill-rule="evenodd" clip-rule="evenodd" d="M22.87 24.052s.403-.539.543-.806c.14-.275-.443-3.756-.443-3.756l1.17-3.834-.03-1.248s.056-1.152.19-1.652c.162.287.661.634.77.818.051-.352.225-1.095.2-1.887.095.147.325 1.63.325 1.63l.23 1 .301 1.061.334 1.122.2.774.113.186.096.326.09.352.262.826.154.678.122 1.23c.026.095.045.19.057.288.005.134-.018.212-.018.235 0 .024.043.296.025.5-.026.205-.026.365-.186.512-.16.147-.262 1.025-.262 1.025l-.287-.191s.057-.262-.078-.5a.505.505 0 0 0-.543-.248c-.148.03-.443.077-.539.16-.09.083-.313.34-.518.456-.256.153-.673.165-.895.217-.226.051-.474.205-.736.383a4.107 4.107 0 0 1-.647.342Z" fill="#CCA847"/><path fill-rule="evenodd" clip-rule="evenodd" d="m22.87 29.71.05.028a15.207 15.207 0 0 0 4.846-3.592 24.98 24.98 0 0 0-.055-1.26c-.044-.422-.013-.852-.026-1.1a15.978 15.978 0 0 0-.217-1.523c-.07-.261-.205-.39-.226-.39-.018.004-.127.491-.127.613 0 .123-.026.417-.026.492-.018-.005-.025-.05-.025-.07-.026.065-.057.18-.07.192-.013.013.018-.109 0-.135-.018-.025-.052-.012-.044-.077a.744.744 0 0 1 .018-.114s-.078.114-.135.404c-.057.287-.057.295-.077.32-.018.032-.122.136-.127.174-.006.07.095.14.103.179.005.065-.09.365-.122.512-.03.147-.018.435-.05.582-.027.135-.052.213-.14.27.064.012.126.03.126.03s.09.384-.14.71c-.082.114-.103.166-.19.27-.175.19-.31.409-.322.55a.919.919 0 0 1-.018-.126s-.27.313-.383.492c-.148.23-.352.217-.41.274-.057.057-.07.16-.051.244-.051.013-.148.03-.212.23a.484.484 0 0 1-.23.274c-.123.07-.27.091-.345.11.064.017.09.017.121.038-.038.065-.217.166-.416.295-.2.122-.296.3-.345.417-.051.109-.127.179-.248.192.05.03.127.103.166.127-.058.012-.154.012-.327.16-.18.15-.243.194-.326.207Z" fill="#C39D3C"/><path fill-rule="evenodd" clip-rule="evenodd" d="M19.267 30.908c.099-.07.206-.126.32-.17.403-.16.83-.19.998-.242.161-.052.288-.122.487-.161l-.014.128a15.08 15.08 0 0 1-1.792.445Z" fill="#D2BA6B"/><path fill-rule="evenodd" clip-rule="evenodd" d="M26.715 20.287s-.083.448-.23.73c-.148.282-.308.673-.308.673 0-.088.011-.175.031-.261-.186.108-.64.37-.768.486-.122.11-.326.3-.378.391.122-.357.248-.678.27-.825-.187.134-1.057.851-1.51 1.325l-1.411 1.142a4.89 4.89 0 0 1-.502.235c-.244.104-.531.192-.743.274.057-.152.147-.287.274-.416.135-.127.538-.565.6-.768.058-.213.07-.34-.005-.518-.07.018-.23.026-.339.057-.108.03-.225.147-.225.147s.083-.474.262-.921c-.135.005-.365.043-.365.043s.32-.538.87-.913a2.83 2.83 0 0 0-.492.152c-.32.135-.673.334-.934.443.147-.205 1.183-1.683 1.799-3.06.614-1.375.844-1.727.979-2.465.07-.365.05-.904.07-1.387.017-.48.077-.91.038-1.197.16.2.761.761.782 2.017.018 1.256-.575 2.952-1.204 3.866.154.044.552.095.96-.615.41-.71.405-.909.552-1.204.018.148.013.2.013.2s.596-.723.878-1.631c.057.39.225.735-.04 1.452-.235.647-.543.805-.543.805s.153-.026.378-.16c.039.095.031.204.096.243.065.039.153.104.166.166.07-.104.178-.236.212-.334-.026.204-.044 1.1.051 1.556.2-.018.404-.031.544-.391-.096.352-.096.564-.031.864.106-.072.202-.201.202-.201Z" fill="#C0993A"/><path fill-rule="evenodd" clip-rule="evenodd" d="M19.987 6.016s-.199.083-.538.083c-.295 0-.212-.114-.673-.114-.71 0-3.187.41-3.622.404-.283-.005.952.122.952.122l3.157.044.634-.051.235-.48-.145-.008Z" fill="#A88F33"/><path fill-rule="evenodd" clip-rule="evenodd" d="M11.803 12.186s-.404.308-.574.544c-.171.236-.262.39-.456.582a.4.4 0 0 0 .135-.018s0 .052-.031.065a.18.18 0 0 1 .147.051c-.057.031-.212.187-.09.37.09.14.282.153.282.153s-.044.127.14.114c.396-.018.838-.192 1.043-.147.205.05.32.07.466.32.153.25.287.288.287.288s.09-.23.07-.575a1.71 1.71 0 0 0 .122-.582l-.135-.992-.587-.743-.762.422-.057.148Z" fill="#E3C571"/><path fill-rule="evenodd" clip-rule="evenodd" d="M12.526 12.04s.057.134.295.147c-.026.056-.026.064-.018.108l.013.109a.239.239 0 0 0 .07-.051c.013.057-.013.147 0 .212.008.04.02.078.039.114a.222.222 0 0 1 .012-.026c.006-.013.052.14.18.256 0-.018.003-.035.012-.051a.18.18 0 0 0 .031.09.091.091 0 0 1-.026-.018s.013.41.083.622a.281.281 0 0 0 .031-.044c0-.013-.005.114-.018.205-.018.09-.005.217-.005.217a.682.682 0 0 1 .152-.09c.078-.032.205-.128.283-.34.045-.12.08-.244.103-.37.025.048.043.1.052.154.005.064.127.03.127.03l.025-.282.154-.64.14-.395.673-1.049 1.216-.936 1.062.243.895-1.217-1.543-.927-1.46.153L13.78 10.1l-1.062 1.664-.191.275Z" fill="#D8B65B"/><path fill-rule="evenodd" clip-rule="evenodd" d="M20.174 9.383s-.09.018-.352.153c-.262.136-.443.179-.544.378a.977.977 0 0 0-.109.358s.18-.078.283-.104c.108-.026.23-.018.217.026a.302.302 0 0 1-.051.083s.205-.005.2.096a.533.533 0 0 1-.078.261c-.04.051-.2.127-.218.187-.044.121.018.127-.005.225-.018.096-.103.282-.383.608-.288.327-.41.557-.41.557s-.14-.261-.212-.487a23.38 23.38 0 0 0-.326.179l-.637-2.219.013-.148s.057-.07.07-.199c-.096-.031-.11-.057-.236-.178-.127-.122-.23-.27-.443-.37-.03-.058-.07-.135-.225-.166-.155-.032-.248-.057-.248-.057s.082-.032.121-.096c-.096.013-.173.044-.383.039-.212-.006-.236-.013-.352.005-.116.018-.256.07-.308-.109-.057-.044-.179-.005-.282.148-.104.152-.14.274-.34.334a.695.695 0 0 1-.09.248c-.057.096-.148.192-.27.334-.19.225-.16.596-.465.878-.308.282.05-.782.05-.782l.493-1.178 1.4-1.37 2.175-.147.213 1.127 1.061.365.67 1.022v-.001Z" fill="#D3AE4D"/><path fill-rule="evenodd" clip-rule="evenodd" d="m20.518 9.631-.914-1.318-.64-.492s-.455-.838-.486-.864c-.026-.018-.456-.065-.73-.083l.051.127c.06.02.113.055.154.103.121.14.199.404-.078.686.109.04.154.052.248.04-.095.113-.313.357-.326.569-.013.173.096.225.096.225s-.166.192-.173.512c.078-.088.164-.17.256-.243.191-.154.455-.327.634-.435a.366.366 0 0 0 .018.134s.334-.274.615-.152c.126.057.07.235.07.235s.173-.064.295.057c.121.122.295.435.383.557.038.057.14.166.243.334.141.235.26.484.352.743.005-.104.026-.249.205-.249l-.272-.486Z" fill="#CAA13E"/><path fill-rule="evenodd" clip-rule="evenodd" d="M6.817 13.375s-.064-.16 0-.473c.065-.314.166-.461.2-.922.033-.46.334-1.036.334-1.036l.83-.378.588.16.174.788-.743.41s-.039.173-.249.313-.5.248-.57.39a1.14 1.14 0 0 0-.09.275s-.212-.044-.339.096c-.135.142-.13.27-.135.378Z" fill="#F4EFC8"/><path fill-rule="evenodd" clip-rule="evenodd" d="M8.495 13.165s-.07.044-.122.153c-.051-.082-.174-.574-.179-1.017-.005-.443-.031-.553.071-.705.103-.153.504-.313.447-.588-.057-.262-.295-.37-.588-.295-.204.05-.357.486-.57.704-.16.166-.351.14-.403.23-.07.122-.005.244-.026.321a1.55 1.55 0 0 1-.186.334c-.236.34-.635.819-.687 1.248.019-.243.006-.248.07-.518l-.038-.064.256-.84.165-.69.37-1.158.653-1.183.634-.71.66.045.078.991.378 1.862.795.979-1.274.857-.505.044Z" fill="#EBCC73"/><path fill-rule="evenodd" clip-rule="evenodd" d="M8.89 13.517s-.108.026-.147.006c-.039-.021-.077-.044-.064-.07.012-.026.082-.07.082-.091a.072.072 0 0 0-.064-.078c-.06-.007-.078.031-.078.031s-.057-.043-.103-.05a.716.716 0 0 1 .082-.006.805.805 0 0 0-.225-.065c.065-.039.192-.153.274-.153.083 0 .135-.012.122-.056-.013-.044-.077-.11-.147-.135.025-.031.044-.078-.018-.205-.065-.127-.04-.212-.018-.243.018-.039.082-.109.113-.153s.057-.103.11-.135c.025-.018.108-.05.19-.082.091-.031.166-.07.218-.031.057.038.031.09.031.09s.179-.064.34.018c.16.078.55.127.55.127l.141.282-.927.795-.383.192-.078.013Z" fill="#E5C66B"/><path fill-rule="evenodd" clip-rule="evenodd" d="M10.177 12.217s-.287.192-.352.262c.04.005.104.031.078.07-.031.039-.218.173-.321.3a1.981 1.981 0 0 0-.249.365c-.038.07-.334.275-.435.3.213 0 .64-.26.8-.26-.005.077.044.165.135.173.09.007.352.056.704-.16.352-.213.236-.371.383-.475.283-.186.396-.352.552-.455a1.01 1.01 0 0 1 .235-.127s.006-.078.052-.07a.07.07 0 0 1 .057.044s.269-.192.614-.243a.036.036 0 0 1-.018-.019s.026-.013.031-.026c0 0 .018-.026.031-.013.013.014.031.11.057.148.057-.026.166-.27.166-.27l.261-.747v-.684l-.204.039-1.536.652-.933.966-.108.23Z" fill="#E6BD62"/><path fill-rule="evenodd" clip-rule="evenodd" d="M14.6 8.865a.868.868 0 0 0 .236-.096c-.03.083-.03.173-.165.37s-.14.226-.249.43c-.109.212-.122.518-.225.652a.474.474 0 0 1 .147-.044s-.103.091-.147.187c-.044.095-.122.295-.313.417-.192.122-.436.2-.697.486-.261.283-.53.64-.665.769a1.93 1.93 0 0 0 .191-.526c.026-.16-.005-.352.039-.564.044-.213.044-.365.256-.736.212-.37.575-1.657.575-1.657l.781-.248.236.559Z" fill="#B6933F"/><path fill-rule="evenodd" clip-rule="evenodd" d="M14.035 8.39s-.235.34-.3.64c-.064.3-.005.275-.044.422a.55.55 0 0 0 0 .275.975.975 0 0 1 .326-.321c.223-.135.404-.23.512-.345.109-.121.2-.32.435-.473-.096-.013-.23-.057-.256-.051.096-.11.383-.275.673-.474.287-.205.27-.288.735-.492-.152.026-.225-.013-.352 0 .051-.109.23-.16.41-.34.179-.178-.114-.442-.114-.442l-1.365.826-.66.777V8.39Z" fill="#C49937"/><path fill-rule="evenodd" clip-rule="evenodd" d="m10.33 7.775.032-.249.39-.626.41-1.1V4.294l-.031-.87.064-.57.05-.18.051-.07.334.173.461.626.044 1.21-.448 1.908-1.279 1.395-.077-.142Z" fill="#DFC068"/><path fill-rule="evenodd" clip-rule="evenodd" d="M11.348 2.535s-.205.005-.248.857c-.044.852-.065 1.3-.096 1.722-.031.422-.104.678-.14.926-.037.25-.057.588-.174.795-.05.096-.16.396-.417.622a2.569 2.569 0 0 1-.781.435c-.114.025-.692.082-.927.212-.083.044-.226.096-.383.243a4.89 4.89 0 0 0-1.03 1.396c-.462.909-.923 3.474-.923 3.474l.104-.173s.013-.23.243-.635c.226-.404.161-.857.474-1.63.122-.296.275-.679.461-1.005.295-.531.652-.987 1.012-1.235a3.2 3.2 0 0 1 1.235-.492l.697-.46s.121-.236.282-.506c.225-.378.512-.8.575-1.413.096-.909-.135-1.504-.122-2.043.013-.538.018-.934.127-1.03.109-.096.031-.06.031-.06Z" fill="#A88F33"/><path fill-rule="evenodd" clip-rule="evenodd" d="M11.348 6.6s.307-.756.448-1.427c.026-.135.078-.27.09-.378.065-.634.083-.896 0-1.243-.064-.256-.313-.486-.442-.665-.127-.187-.187-.256-.16-.296a.287.287 0 0 1 .224-.095.77.77 0 0 1 .552.256c.2.23.357 1.012.357 1.012l.166 1.032.422 1.3-1.657.505V6.6Z" fill="#C99E3D"/><path fill-rule="evenodd" clip-rule="evenodd" d="M14.235 5.812s-.057.026-.16 0a.23.23 0 0 1-.104.218c-.11-.044-1.127.044-1.127.044s-.474-.083-.621-.71c-.104-.416.077-.991.018-1.37-.09-.556-.218-.665-.23-.838-.014-.173-.026-.217-.026-.326-.057-.013-.091-.031-.148-.031-.013-.051.013-.096-.044-.187.031.013.243.04.492.275.205.191.205.261.236.3.038.039.352.307.486.575.135.268.396 1.12.456 1.26.018.058.057.115.154.244.15.187.37.495.618.546Z" fill="#B58634"/><path fill-rule="evenodd" clip-rule="evenodd" d="M12.557 3.2c.157.254.298.516.422.787.153.345.243.627.435.857-.104-.3-.287-.89-.396-1.1-.122-.222-.37-.46-.46-.544Z" fill="#A88F33"/><path fill-rule="evenodd" clip-rule="evenodd" d="M10.796 7.456s-.261.065-.748.321c-.16.083-.313.153-.46.218a8.042 8.042 0 0 1-1.122.422.746.746 0 0 0 .04.044s0 .127.069.199c-.039.039-.557.39-.404 1.569.104-.039.225-.09.243-.09.032.005.04.09.078.09.039 0 .166-.051.3-.225-.005.07-.082.774.334 1.248.078-.091.275-.392.275-.392l.005-.095s.018-.334.127-.64a1.7 1.7 0 0 1 .321-.53l1.108-1.582-.166-.557Z" fill="#E6C367"/><path fill-rule="evenodd" clip-rule="evenodd" d="M9.76 9.779a.612.612 0 0 1-.165.083.64.64 0 0 1 .109-.505c.178-.262.57-.6.678-.87.07-.174.039-.609.66-1.166.622-.556.865-.748.865-.748l1.004-.505 1.235.487-.613 2.405-.477 1.126-1.894-.357-1.402.05Z" fill="#DCBA5A"/><path fill-rule="evenodd" clip-rule="evenodd" d="m10.484 9.126.236-.295v-.21s.261-.07.543-.357c.282-.288.673-.84 1.018-.805.344.038.378.748.39.947.014.2.058.652.128.896.077.243-.84 1.165-.84 1.165l-.622.474-.853-1.815Z" fill="#E9CE77"/><path fill-rule="evenodd" clip-rule="evenodd" d="M11.213 11.583s.192-.3.052-.365c.082-.186.235-.383.235-.383s.109-.27.46-.6c.353-.332.57-.552.628-.775.035-.145.054-.293.057-.442a.843.843 0 0 0 .121.082c.057.026.326.249.288.697-.04.448-.205.634-.205.634s-.16.16-.274.244c-.122.082-.166.178-.37.186a.246.246 0 0 1 .07-.039s-.213-.026-.327.078c-.114.103-.356.422-.478.518a27.53 27.53 0 0 0-.256.165Z" fill="#CDAE50"/><path fill-rule="evenodd" clip-rule="evenodd" d="M19.822 6.548a3.118 3.118 0 0 0-.953-.187c-.544-.018-1.338.013-2.118.018-.839.005-1.6-.287-2.656-.339-.173-.103-.614-.557-1.991.404.083-.005 1-.212 1.318.186.32.397.23 1.07.186 1.23-.083.357-.352.878-.46 1.243-.11.365-.083.557-.161.813-.078.256-.249.383-.148.678.135-.083.205-.083.43-.588.225-.504.179-.864.552-1.292.365-.43.972-1.017 1.204-1.165.23-.147 2.065-1.1 3.987-.191.463-.05.81-.81.81-.81Z" fill="#D2A83E"/><path fill-rule="evenodd" clip-rule="evenodd" d="M12.878 6.195a.237.237 0 0 0-.013-.057.417.417 0 0 0-.07-.103s-.456-.083-.686-.057c-.404.044-.77.543-.94.8-.17.256-.383.652-.614.857a.085.085 0 0 0-.012-.057s.013.018-.013.044-.026.038-.013.05l.039.04c.013 0 .37-.161.857-.615.517-.474.913-.717 1.12-.8.111-.047.227-.081.345-.102Z" fill="#C29637"/><path fill-rule="evenodd" clip-rule="evenodd" d="M21.717 4.249s-.083.103-.187.217c-.23.244-.53.518-.787.8-.243.27-.518.48-.826.832-.308.352-.665.742-.756.856a.844.844 0 0 0-.147.397 3.564 3.564 0 0 0-.096-.065.65.65 0 0 0 .078.114c.064.09.165.205.217.274.064.089.11.19.134.295.032.006.23.044.48-.365.248-.409.574-.857.574-.857l.518-.769.326-.652.41-.73.062-.347Z" fill="#AC8132"/><path fill-rule="evenodd" clip-rule="evenodd" d="M22.248 3.726s-.313.256-.435.41c-.122.153-.41.556-.41.556l.104-.013.526-.466.204-.365.01-.122Z" fill="#A88F33"/><path fill-rule="evenodd" clip-rule="evenodd" d="M22.152 24.3s-.005-.212.114-.339c.121-.127.43-.313.73-1.012.3-.7.334-.857.334-.857s-.539.46-.87.57c.077-.161.121-.275.16-.358-.044-.039-.23-.083-.249-.103.104-.104.16-.358.37-.526.27-.205.762-.557 1.144-.87.382-.314 1.134-1.044 1.23-1.256.057.083.07.134.07.134s-.378.492-.575.805c-.174.27-.16.423-.16.423l.357-.154s.103.383-.365.966c.205-.078.287-.031.404-.096-.192.122-.456.287-.705.743-.243.456-.574.986-1.133 1.318-.544.35-.858.61-.858.61l.002.002Z" fill="#A67A2E"/><path fill-rule="evenodd" clip-rule="evenodd" d="M20.748 6.817s-.212.442-.243.787c-.005.083-.026.147-.026.243-.005.308.018.653-.051.813-.026-.065-.039-.109-.065-.134-.039.108-.109.447-.166.574a2.708 2.708 0 0 1-.077-.71c.005-.338.013-.403.013-.473-.013.104-.083.244-.11.326-.038-.07-.082-.16-.134-.235-.03.051-.07.127-.103.166a2.373 2.373 0 0 1-.026-.23c-.005-.136-.013-.309-.005-.345.013-.07.122-.345.352-.596.274-.3.557-.877.64-1.056.082-.179.434-.922.434-.922h.27l-.392.89s-.235.488-.357.667c-.121.178-.378.69-.492.89.083-.108.153-.165.236-.27.08-.072.303-.385.303-.385Z" fill="#8C6228"/><path fill-rule="evenodd" clip-rule="evenodd" d="M22.253 3.691a1.115 1.115 0 0 1-.205.37c-.16.192-.505.449-.673.653-.154.2-.461.743-.322 1.388.052-.14.148-.417.404-.73.257-.314.531-.673.666-.953.135-.282.153-.505.153-.505l.05-.065-.03-.147-.044-.01Z" fill="#CBA94C"/><path fill-rule="evenodd" clip-rule="evenodd" d="M27.495 20.865s-.103-.282-.134-.538c-.031-.257.051-.308-.044-.6-.057-.18-.16-.154-.187-.18-.025-.025-.044-.295-.038-.442a1.661 1.661 0 0 0-.031-.422c-.04-.031-.065-.057-.122-.249-.065-.192-.096-.287-.127-.344-.031-.057-.122-.109-.122-.166 0-.114.104-.173.104-.205-.005-.064-.083-.012-.104-.03-.026-.032.065-.218.031-.244-.013-.013-.103.096-.127.065-.026-.031-.057-.34-.103-.544-.044-.2-.09-.344-.096-.404-.005-.057-.357-1.061-.443-1.305a6.202 6.202 0 0 1-.173-.626c-.026-.122-.044-.37-.057-.345-.013.026-.005.153-.026.148-.018-.005-.083-.448-.103-.518-.018-.07-.127-.307-.154-.479-.026-.173-.083-.626-.122-.934-.039-.308-.057-.435-.057-.512a3.2 3.2 0 0 0-.03-.565 5.256 5.256 0 0 0-.244-.952c-.174-.435-.634-1.549-.717-1.826 0-.07.09-.03.09-.03s.226.564.391.998c.161.436.314.819.353.858.03.038.274.466.383 1.165.109.699.147 1.343.212 1.773.031.205.057.422.122.64.07.235.178.479.32.851.123.314.213.575.262.8.057.288.057.505.091.648.031.121.078.364.187.716.108.352.269.806.377 1.088a6.02 6.02 0 0 1 .34 1.287c.028.259.124 1.154.098 1.424Z" fill="#A88F33"/><path fill-rule="evenodd" clip-rule="evenodd" d="m22.266 3.66-.013.031s.039.013.03.065c.001.071-.003.142-.012.213-.013.09-.039.16-.044.217 0 .122.018.261-.154.608-.05.096-.082.179-.108.236a.699.699 0 0 1-.135.225c.09-.051.417-.256.583-.225a1.215 1.215 0 0 0-.397.357.89.89 0 0 0 .308 0c.287-.044.608-.147.89-.127.308.018.187-.37.187-.37l-.356-.782-.673-.473-.106.026Z" fill="#BE9C44"/><path fill-rule="evenodd" clip-rule="evenodd" d="M24.021 9.517s-.3-.3-.422-1.331c-.121-1.036-.096-2.56-.096-2.56l-.243-.596s-.051-.396-.179-.543c-.127-.148-.377-.396-.491-.518-.114-.122-.244-.287-.321-.313.038-.065.212-.43.877-.435.665-.005.87.365.94.5.07.134.383.716.5 1.826.108 1.108.114 1.19.095 1.574a8.893 8.893 0 0 1-.204 1.23c-.112.445-.233.942-.456 1.167v-.001Z" fill="#A17C34"/><path fill-rule="evenodd" clip-rule="evenodd" d="M23.08 10.4c.1.007.2-.015.287-.065.095-.005.442.04.709-.3.018.078.065.288-.057.474.065-.065.16-.09.174-.109.005.096.095.391-.288 1.108.104-.114.225-.108.334-.121.005.134.078.587-.114.83-.127.166-.334.114-.334.114a.658.658 0 0 0 0-.108c-.005-.07-.031-.14-.013-.187a.929.929 0 0 1-.269-.186c-.225-.213-.518-.575-.538-.844a.333.333 0 0 1 .243-.365.287.287 0 0 1-.057-.07c-.013-.044-.026-.114-.078-.17Z" fill="#8C6228"/><path fill-rule="evenodd" clip-rule="evenodd" d="M21.082 7.143s-.013-.018-.082.065c.012-.083.026-.16.03-.236a.813.813 0 0 1 .127-.191c-.038.077-.064.147-.064.147s.096-.179.235-.287c.096-.078.218-.114.27-.187.056-.077.044-.09.056-.103 0 0 .128-.083.322-.327.026-.03.064-.064.09-.095.044-.018.148-.065.27-.127.127-.07.269-.166.357-.205.173-.078.357-.07.443-.192.064-.018.134-.212.121-.378.096.04.588.345.756 1.013.122.473-.096 1.203-.186 1.556-.09.352-.104.613-.23.774-.161.212-.679.512-.806.66-.108.122-.435.43-.422.652.013.166.218.256.262.288.044.031.044.07.127.05.082-.018.113-.056.147-.056.039.005.039.013.057.013a.187.187 0 0 0 .039-.005s-.013.235-.565.307c-.038.005-.077.018-.127.026.065-.031.104-.031.174-.127-.078-.013-.3-.026-.357-.044a.69.69 0 0 1 .127-.153c.044-.039-.006-.051-.044-.031a1.961 1.961 0 0 0-.192.148c-.065.056-.122.134-.225.204a.505.505 0 0 1 .096-.442c-.032.005-.091.095-.148.077a.828.828 0 0 1 .018-.282c.031-.117.2-.321.2-.321l.812-1.453.174-1.1-1.862.362Z" fill="#92723A"/><path fill-rule="evenodd" clip-rule="evenodd" d="M21.039 7.206s-.044.03.044.09c-.013.018-.044.083-.083.127-.044.051-.09.083-.109.127-.039.09-.07.153-.07.192 0 .039-.013.287-.122.448-.038.057-.083.152-.114.217-.064.114-.121.205-.134.256-.026.09-.044.34-.044.34l.078-.097c-.032.065-.065.135-.114.187.03-.026.121-.09.274-.226.212-.178.544-.478.948-.716-.122.044-.226.044-.308.057.064-.065.647-.749.952-.813a.122.122 0 0 0 .026-.083l-.261-.026-.531.114-.078-.41-.354.215Z" fill="#B18E3E"/><path fill-rule="evenodd" clip-rule="evenodd" d="M21.883 9.535s-.07.07-.135.243a.816.816 0 0 1-.127-.173c-.096-.16-.243-.365-.587-.249-.006-.108-.014-.165 0-.243.056-.013.23-.153.403-.357.122-.14.236-.3.314-.505.05-.039.14-.104.256-.179.165-.114.365-.269.396-.442-.078.03-.244.108-.492.095.096-.044.243-.09.225-.282.039-.026.07-.044.07-.044a.256.256 0 0 0-.09-.013c-.006-.018-.014-.044-.058-.03-.044.012-.05.012-.057.03-.018.005-.077 0-.121.031-.044.032-.166.135-.213.153l.044-.077s-.127.012-.217.05c-.166.058-.357.161-.552.262.018-.03.026-.051.04-.057.012-.006.043-.013.043-.018 0-.005-.013-.051-.005-.07.058-.123.127-.24.205-.352a.685.685 0 0 0 .108-.295l.397-.2 1.113-.255.722.044-.09.5-.427.872-.365.795-.417.487-.383.28Z" fill="#543E26"/><path fill-rule="evenodd" clip-rule="evenodd" d="M23.687 7.373s-.435.538-.557.621c.078-.165.557-1.152.73-1.426-.038-.031-.09-.031.031-.512-.103.243-.14.37-.225.435-.085.064-.096.044-.153.044a.109.109 0 0 0 .012-.065s-.365-.044-.614-.044c-.25 0-.743.135-1.017.243-.218.09-.34.09-.417.148-.078.064-.122.134-.16.152-.032.018-.18.065-.213.114-.031.051-.083.109-.083.122 0 .013-.013.031.026.018.013-.005.109-.057.218-.122.147-.082.326-.178.455-.235.37-.148.487-.122.652-.153.174-.031.422-.104.588-.104.166-.005.48 0 .552.013-.031.026-.057.057-.044.166 0 .031-.026.065-.052.14-.077.212-.225.564-.307.743-.114.243-.243.448-.307.575-.064.126-.205.46-.344.64-.14.178-.212.287-.256.325-.044.04-.358.27-.334.353.057-.019.417-.154.678-.448.261-.295.313-.474.518-.635.204-.16.365-.43.46-.652.08-.207.063-.272.164-.456h-.001Z" fill="#806031"/><path fill-rule="evenodd" clip-rule="evenodd" d="M14.313 11.392s-.057.235-.187.352c-.127.114-.352.212-.378.404-.03.191.226.287.226.287s-.14.23-.14.404c0 .178-.006.212.013.383a.171.171 0 0 0-.052.051s.013.166.14.27c.127.103.236.165.3.139.01.021.019.043.026.065 0 0 .096-.243.16-.456.066-.217.123-.186.148-.479.026-.292.307-.795.307-.795l.193-.429-.314-.243-.442.046Z" fill="#B6903C"/><path fill-rule="evenodd" clip-rule="evenodd" d="M14.895 11.813a1.883 1.883 0 0 0-.178.213c-.083.114-.148.217-.27.261-.121.045-.199.044-.191.166.008.122.122.174.186.236.07.064.127.173.096.295.039-.018.109-.039.174-.179.064-.14.517-.991.517-.991h-.334Z" fill="#685026"/><path fill-rule="evenodd" clip-rule="evenodd" d="M16.68 9.848s.038-.103 0-.178c-.04-.078-.275-.104-.392-.192-.122-.09-.27-.154-.39-.114.017-.044.09-.14.03-.16-.057-.019-.269.077-.326.121-.057.044-.186.096-.212.127-.026.031-.07.09-.096.065-.026-.018-.039-.065-.083-.04-.044.027-.256.2-.295.301-.04.101-.127.326-.391.583-.264.256-.378.422-.3.518.077.095.114.026.127.108a.697.697 0 0 1-.013.244c-.031.134-.083.261-.013.287.178.057.352-.051.39-.018.078.07-.043.32.14.37a.57.57 0 0 0 .37-.044l.679-.365.653-.344.333-.66-.179-.552-.034-.057h.001Z" fill="#D4B968"/><path fill-rule="evenodd" clip-rule="evenodd" d="M16.04 11.425s-.115-.173.025-.326c.14-.153.34-.218.417-.313a.12.12 0 0 0-.057-.04.516.516 0 0 1 .225-.212.216.216 0 0 0-.147-.07c-.127 0-.205.078-.321.078-.114 0-.127-.057-.127-.057s.192-.018.173-.103c-.018-.091-.05-.091-.05-.091s.37-.154.434-.236c.065-.081.057-.178.07-.217.044 0 .3-.135.404-.078.103.057.03.213.03.213s.314-.236.474-.467c.14.013.205-.096.307-.096.127 0 .327.174.365.544.026.212.065.334.026.71-.018.212-.013.665.052.89.043.178.147.16.147.16a.29.29 0 0 1-.09.14c-.07.065-.078.236-.07.3.01.048.023.094.038.14 0 0-.082.096-.103.16-.018.066-.104.11-.166.11-.062 0-.031-.006-.114 0-.083.005-.109.018-.16 0-.052-.018-.091-.04-.07-.205.018-.166-.64-.552-.64-.552l-1.075-.383.002.001Z" fill="#CCA849"/><path fill-rule="evenodd" clip-rule="evenodd" d="M14.804 13.062s.236.313 1.204.313c.46 0 .621-.044.717-.07.103-.026.492-.178.883-.64.352-.416.274-.587.274-.587l-.205-.031-.665.09-1.97.84-.239.085h.001Z" fill="#585136"/><path fill-rule="evenodd" clip-rule="evenodd" d="M15.526 13.139s-.838.187-.838-.344c0-.518.517-1.062.647-1.158.134-.096.455-.204.455-.204h.775l.147.39-.065.845-1.12.47Z" fill="#252211"/><path fill-rule="evenodd" clip-rule="evenodd" d="M16.3 11.59s-.16-.147-.525.052c-.365.199-.66.614-.678.992-.018.334.274.582.73.595.34.013.544-.026.647-.051l-.16-.2-.013-1.387Z" fill="#C3B378"/><path fill-rule="evenodd" clip-rule="evenodd" d="M16.143 11.674s-.039-.031-.154.03c-.095.052-.235.187-.344.283-.07.057-.114.083-.153.127-.161.192-.296.505-.218.66.078.156.334.334.987.213l-.12-1.313h.002Z" fill="#E6D89C"/><path fill-rule="evenodd" clip-rule="evenodd" d="M15.93 11.995s-.103.16-.103.417c0 .261.148.678.691.71.417.025.697-.601 1-.845.23-.186.37-.191.37-.191s-.236-.256-.865-.588c-.621-.334-1.318-.378-1.696.135.179-.013.756-.16.756-.16l.283.09-.435.432Z" fill="#252211"/><path fill-rule="evenodd" clip-rule="evenodd" d="M16.743 12.334c-.018-.039-.03-.09.044-.103.075-.013.109-.006.135.05.026.057.051.104.013.128-.039.02-.14 0-.192-.075Zm-.121-.365s-.026.018-.013-.018c.005-.044.038-.122.121-.104.083.019.065.11.052.135-.014.026-.083.07-.135.051a.043.043 0 0 1-.026-.064Z" fill="#6F674D"/><path fill-rule="evenodd" clip-rule="evenodd" d="M9.614 12.134a.8.8 0 0 0 .442.148c.236-.005.539-.249.679-.404.083-.09.153-.187.23-.262.065-.064.109-.095.14-.14.044-.05.09-.147.114-.178-.057.044-.14.122-.225.173a2.665 2.665 0 0 1-.334.174c-.07.026-.795.41-.795.41l-.251.08Z" fill="#AC924C"/><path fill-rule="evenodd" clip-rule="evenodd" d="M9.927 10.222s.114-.078.334-.127c.212-.052.64-.091.64-.091l.351.154.14.53-.256.552-.326.205-.37-.596-.512-.627h-.001Z" fill="#9F8E57"/><path fill-rule="evenodd" clip-rule="evenodd" d="m9.466 10.695-.122.091s.031-.057.057-.23c.026-.174.16-.596.357-.84.197-.243.192-.23.192-.23a.13.13 0 0 0-.104.026 1.24 1.24 0 0 1 .358-.364c.165-.103.23-.135.403-.052.174.084.218.127.345.122.127-.005.235-.14.235-.14s.026.083-.07.275c-.095.191-.473.582-.473.582l-.787.539-.391.221Z" fill="#EAC970"/><path fill-rule="evenodd" clip-rule="evenodd" d="M10.048 10.157s.57.078.743-.083c.005.018.026.018.026.031a.045.045 0 0 1-.013.026.42.42 0 0 1 .057-.005.34.34 0 0 0 .07.013c.02 0 .038-.002.057-.005a.097.097 0 0 1-.039.064c.026 0 .051.006.051.026 0 .02.005.083-.026.096a.117.117 0 0 1-.077-.005.313.313 0 0 0 .039.14c.05.095.16.205.307.173 0 0 .077.187-.249.6-.044.058-.09.135-.147.2a.75.75 0 0 0-.051.153s.551-.213.709-.697c.16-.486.192-.965.16-1.413a.727.727 0 0 0-.056-.282c-.078-.161-.296-.135-.383-.044-.128.127-.34.442-.635.66-.3.217-.313.256-.544.352h.001Z" fill="#D7BC6B"/><path fill-rule="evenodd" clip-rule="evenodd" d="M9.365 10.856s-.109.065-.166.307c-.057.249.051.552.114.647.063.096.205.358.5.37a.547.547 0 0 0 .212-.043c.103-.048.2-.107.287-.179.127-.096.23-.178.218-.186-.031-.013-.782-.635-.782-.635l-.282-.315-.101.034Z" fill="#585136"/><path fill-rule="evenodd" clip-rule="evenodd" d="M10.075 11.886s.152-.012.243-.07c.09-.056-.53-.672-.53-.672l.043.665.244.078Z" fill="#453A25"/><path fill-rule="evenodd" clip-rule="evenodd" d="M9.414 10.81s-.078.147-.078.186c-.013.126.026.525.057.652.031.135.2.339.417.339.134 0 .321-.083.321-.103 0-.026-.192-.052-.243-.148-.031-.051-.044-.179-.052-.307-.005-.083-.005-.174.026-.205.07-.078.083-.3.083-.3l.249-.462h-.327l-.391.243-.062.104Z" fill="#84754B"/><path fill-rule="evenodd" clip-rule="evenodd" d="M9.318 10.952s.256-.34.487-.417c.23-.078.334-.031.334-.031l-.135.344-.191.212.013.11s-.031.287.16.486c.192.2.334.191.417.191.083 0 .321-.07.443-.357.108-.269.2-.614-.018-.96-.213-.345-.588-.358-.66-.358-.073 0-.643.028-.85.78Z" fill="#252211"/><path fill-rule="evenodd" clip-rule="evenodd" d="M15.891 12.104c-.095-.044-.005-.313.091-.396a.674.674 0 0 1 .43-.192c.077-.005.152.044.14.096-.018.096-.153.23-.275.326-.168.132-.277.215-.386.166Z" fill="#F7F7E7"/><path fill-rule="evenodd" clip-rule="evenodd" d="M10.714 10.636c.07-.005.16.051.178.127.018.083-.044.248-.178.248-.11 0-.166-.134-.166-.173a.198.198 0 0 1 .026-.09c.005-.008.018-.099.14-.112Z" fill="#F8F6DE"/><path fill-rule="evenodd" clip-rule="evenodd" d="M9.704 10.695s-.179.083-.261.256a.68.68 0 0 0-.052.41 1 1 0 0 0 .122.282c.044.057.104.096.148.09.044-.005.134-.121.134-.19 0-.07.005-.366.09-.526.076-.16-.18-.322-.18-.322Z" fill="#D4C38B"/><path fill-rule="evenodd" clip-rule="evenodd" d="M9.73 10.683c-.031.018-.083.044-.07.077.013.031.121.051.16.127.044.078.044.16.031.2a.314.314 0 0 0 .091-.065c.057-.065.127-.153.186-.153.04 0 .078.018.114.018.057 0 .114-.018.122-.077.013-.078-.109-.148-.179-.135.013-.051.031-.127-.026-.179-.057-.052-.235.04-.274.065a3.404 3.404 0 0 0-.155.122Z" fill="#E2D59D"/><path fill-rule="evenodd" clip-rule="evenodd" d="m13.844 16.122.383-.113.108.077s.078.166.2.187c-.04.083-.14.153-.135.212a.18.18 0 0 0 .057.104s-.344.57.334 1.143c-.16.065-.365.154-.474.205.078.018.243.051.313.114s.07.083.135.122c.065.039.104.09.09.114-.043-.026-.19-.104-.217-.032-.025.073-.64.044-.64.044l-1.035.2s.039-.104-.07-.2c-.127-.113-.282.006-.448-.121-.217-.166-.225-.358-.295-.43.07-.044.213-.109.552-.154-.013-.026-.057-.103-.031-.173.03-.09.16-.148.121-.256.057-.013.083-.013.226-.192.134-.178.217-.217.32-.23.104-.013.167 0 .358-.179.135-.127.09-.235.09-.235s.089-.029.058-.207Z" fill="#CBAC5A"/><path fill-rule="evenodd" clip-rule="evenodd" d="M12.713 16.18c.005-.026.026-.04.165-.026.14.013 1.025-.083 1.266-.096.244-.018 1.1-.005 1.518.083.416.088.838.191 1.043.243.205.057.27.078.261.103-.005.026-.051.052-.077.045-.026-.006-.705-.213-.914-.256-.21-.044-.935-.161-1.331-.154-.37.005-.518-.005-.831.03-.314.04-.832.091-.987.07-.153-.017-.122-.017-.114-.043Z" fill="#D6BC6F"/><path fill-rule="evenodd" clip-rule="evenodd" d="M14.796 18.209s.531.287.723.64a.277.277 0 0 1-.083.39s.3 0 .261.166c-.018.104-.517.383-.851.53-.34.148-.327.14-.492.166-.16.026-.601-.05-.692.078-.09.129-.05.262-.026.282.026.019.236.044.236.044s-.044.122-.479.135c-.435.013-.543.044-.57.09-.025.044.083.019.283.052.2.03.479.051.479.051s-.09.078-.326.14c-.27.07-.692.135-.819.212.065.044.161.109.205.114a1.293 1.293 0 0 0-.287.104c.038.026.09.057.09.057s-.217.261-.344.326c-.127.065-.857.404-1.108.339-.627-.166-.704-.852-.857-.904-.23-.077-.34.078-.544-.03.09-.065.14-.104.236-.148-.104-.051-.64-.391-.64-.391a3.985 3.985 0 0 0-.186-.357c-.104-.18-.256-.417-.37-.627-.249-.46-.262-.673-.487-.935.039-.05.173-.044.173-.044l1.888.622 3.347.097.87-1.243.37.044Z" fill="#DFC677"/><path fill-rule="evenodd" clip-rule="evenodd" d="M9.838 20.104c.02.022.044.041.07.056.065.044.16.096.226.174.025-.039.09-.109.204 0 .114.109.256.031.345.057.09.031.095.044.095.044s.051-.044.166-.09c.07-.027.153-.045.243-.07.083-.019.174-.045.236-.045.057.04.261.256 1.082-.064.774-.3.953-.334 1.082-.288.013-.03.026-.09.226-.083 0-.082-.166-.365-.166-.365l-.914-.313h-.5l-1.499.275-.83.474-.065.239v-.002Z" fill="#C4A859"/><path fill-rule="evenodd" clip-rule="evenodd" d="M9.339 19.578s.018.14.225.287c.205.148.27.236.27.236s.038-.052.07-.104c.03-.057.056-.122.108-.14.104-.044.34.04.391.026.044-.013.031-.103.078-.103.108-.006.178.07.217.07.039 0 .134-.006.147-.026.013-.02.019-.236.166-.34a.443.443 0 0 1 .41-.038c0 .038.005.134.109.14.103.005.113-.013.204.018.091.03.2-.006.249.147.044-.013.147-.026.121-.173.052-.04.096-.065.205-.218.026-.039.07-.083.104-.14.09 0 .2-.018.344.11-.044.03-.07.05-.083.082a.924.924 0 0 1 .104.122c.039.05.065.114.114.127.109.03.287-.013.487 0a.979.979 0 0 1 .422.126c.025-.012.025-.018.09-.005.065.013.114.018.044-.064.039.018.083.057.122.018.039-.04.07-.096.178-.11.11-.012.148.006.192-.108.057-.14-.14-.14-.14-.14s.091-.082.192-.191c.122-.114.262-.262.295-.443.057-.334-.27-.378-.27-.378l-1.581.487-1.934-.096-1.65.82Z" fill="#927D49"/><path fill-rule="evenodd" clip-rule="evenodd" d="M7.918 15.008s-.052.065-.083.218c-.032.152-.018.134-.044.243-.026.109-.345 1.19-.225 1.556.12.365.326.5.455.795.026.064.052.103.065.16.044.192.005.34.057.531.018.065.065.14.135.217.153.16.404.314.512.422.152.16.37.487.647.518.148.018.357-.044.53-.147.154-.096.25-.23.41-.308.114-.057.236-.077.345-.103.225-.044.43-.051.551-.026.187.039.627.174.87.174.191-.004.38-.03.565-.078.37-.109.818-.295 1.113-.378.174-.051.313-.065.456-.096.243-.057.448-.135.564-.282-.077-.09-.173-.23-.691-.226-.588.014-1.266.34-1.6.392-.334.051-.479.095-.852-.04-.366-.135-.378-.225-.378-.225s-.383-.269-.544-.953c-.16-.685 0-1.183.417-1.657.109-.122.083-.23.083-.23s.274-.37.2-.717c-.084-.345-.615-.275-.615-.275l-2.943.515Z" fill="#6E6342"/><path fill-rule="evenodd" clip-rule="evenodd" d="M8.36 16.16a.268.268 0 0 0-.031.14c.005.07.026.16.235.365.18.178.14.378.14.378s.09.018.334-.096c.192-.09.256.07.256.07a.543.543 0 0 1 .179-.057.391.391 0 0 0 .16-.052s.226.23.422.34c.18.096.283.16.37.096.084-.057.084-.174.078-.226a.68.68 0 0 0-.077-.134c-.057-.083-.148-.18-.154-.256-.013-.179.135-.391.104-.443-.032-.052-.148-.065-.435.039-.298.098-1.582-.163-1.582-.163h.001Z" fill="#39331F"/><path fill-rule="evenodd" clip-rule="evenodd" d="M9.038 17.318s-.147-.14-.095-.818a.84.84 0 0 1 .186.018s.08.526-.09.8Z" fill="#292311"/><path fill-rule="evenodd" clip-rule="evenodd" d="M7.988 14.49a.406.406 0 0 0 .057-.051c-.051.096-.288.479-.096 1.082.191.6.673 1.049 1.266 1.07.593.02.904-.27 1.26-.705.14-.173.301-.39.443-.538.213-.23.378-.295.378-.518 0-.456-.466-.66-1.152-.865-.686-.204-1.305-.179-1.626-.039-.313.153-.448.313-.53.564Z" fill="#252211"/><path fill-rule="evenodd" clip-rule="evenodd" d="m10.19 17.522.052-.026s.012-.204.095-.199c.083.013.122.122.114.16-.005.04-.026.104-.109.096-.108.003-.152-.03-.152-.03Z" fill="#3F3824"/><path fill-rule="evenodd" clip-rule="evenodd" d="M9.96 16.653s.052-.018.114.044c.052 0 .275-.026.345.018.07.044.09.083.09.083s-.261.057-.404 0c-.145-.05-.145-.145-.145-.145Z" fill="#2D2815"/><path fill-rule="evenodd" clip-rule="evenodd" d="M11.112 16.692c0-.014-.14-.11-.287-.14-.026-.006-.031.012-.051.012-.013-.005-.018-.044-.018-.044l-.084.045s-.013.018.03.05c.04.032.104.058.123.11.018.051.018.07.025.077.005.005.096 0 .14-.026.044-.026.127-.068.122-.085Z" fill="#82764F"/><path fill-rule="evenodd" clip-rule="evenodd" d="M9.805 17.217s.025-.178.199-.186c.178-.013.212.16.212.16l-.103.104c0-.003-.078-.111-.307-.078h-.001Z" fill="#2D2816"/><path fill-rule="evenodd" clip-rule="evenodd" d="M10.931 16.447s-.096.104-.308.135c-.018-.026-.057-.078 0-.16.057-.083.122-.11.187-.083a.152.152 0 0 1 .121.108Z" fill="#574F35"/><path fill-rule="evenodd" clip-rule="evenodd" d="M11.322 16.574c.006-.026-.013-.03 0-.044.013-.013.083-.039.096-.026.005.006 0 .026 0 .052 0 .025 0 .05-.013.07-.018.025-.07.038-.096.03-.026-.007-.03-.043-.03-.05.012-.006.043-.019.043-.032Zm.442-.28c0-.012.044-.038.07-.038.039 0 .039.03.044.039.013.005.013-.006.026.018.013.023.031.065.018.09-.013.026-.065.044-.077.04a.687.687 0 0 1-.08-.148Z" fill="#82764F"/><path fill-rule="evenodd" clip-rule="evenodd" d="M10.874 16.634s.057.013.135.078c-.026.018-.065.038-.065.038s-.005-.06-.07-.116Z" fill="#6E6342"/><path fill-rule="evenodd" clip-rule="evenodd" d="M10.747 16.065c-.013-.013.039-.044.07-.039.031.006.044.026.078.032.033.005.039-.014.05-.026.013-.013.058-.006.066 0l.013.018a.071.071 0 0 1 .025-.052.083.083 0 0 1 .07-.012c.005.018.031.082.026.095-.005.013-.083.031-.096.018.013.032.07.096.078.109.008.013-.057.044-.083.039a1.055 1.055 0 0 1-.298-.181h.001Zm.34-.43a.06.06 0 0 0-.027-.03c-.018-.006-.077 0-.077.03 0 .031.05.205.108.296.065.09.11.165.153.186a.06.06 0 0 0 .078-.026c.005-.013.018-.109.013-.334-.005-.225-.013-.443-.026-.456-.013-.012-.065-.012-.083.013a2.423 2.423 0 0 0-.14.321Z" fill="#585136"/><path fill-rule="evenodd" clip-rule="evenodd" d="M10.856 16.96s-.09-.057-.179-.018c-.082.04-.077.192-.077.192a.122.122 0 0 0 .114-.013c.057-.039.129-.103.142-.16Z" fill="#574F35"/><path fill-rule="evenodd" clip-rule="evenodd" d="M11.027 17.165c-.005-.051-.051-.051-.051-.078a.058.058 0 0 1 .056-.044c.026 0 .052.032.083.052.031.018.078.05.083.09.005.04-.051.148-.114.148-.062 0-.044-.117-.057-.169v.001Zm.5-.07s-.104.031-.096 0c.007-.03.03-.039.064-.039a.102.102 0 0 1 .065-.03.05.05 0 0 1 .039.012s.07-.03.09-.013c.021.018.006.018.019.04a.162.162 0 0 1 .03.077c0 .02-.077.064-.14.057-.072-.016-.059-.09-.072-.104Zm.603-.116s.03.018.005.038a.422.422 0 0 1-.187.058c-.077 0-.147.012-.147-.014 0-.025.065-.077.103-.09a.083.083 0 0 1 .065-.031c.031 0 .153-.013.187-.018.03-.006.057.012.038.038-.007.019-.064.019-.064.019Zm.178-.8s-.039.083-.082.083c-.045-.005-.045-.018-.045-.031 0-.018.045-.065.04-.078-.014 0-.045 0-.04-.03 0-.027.045-.058.083-.052a.17.17 0 0 1 .104-.039c.044 0 .083.013.083.039 0 .026-.052.083-.07.096-.021.02-.047.034-.073.013Zm-.59 1.53s-.051.006-.051.031c0 .013.013.013.03.006a.165.165 0 0 0 .032-.006c.005.006.005.031.044.031a.246.246 0 0 0 .09-.03c.032-.014.058-.027.058-.052-.013-.044-.04-.065-.078-.065a.103.103 0 0 0-.057.013s-.013-.026-.057 0c-.044.026-.039.026-.026.04.023.02.016.033.016.033h-.001Zm-.293.27c0-.014.065-.04.083-.032.018.006.07.104.07.114 0 .013-.065.044-.09.044-.027 0-.07-.044-.07-.05 0-.006.03-.014.03-.019.008-.013-.023-.044-.023-.057Zm-.204-.378c.013-.006.013-.019.03-.032a.045.045 0 0 1 .039-.005.064.064 0 0 1 .045-.03c.03-.006.057 0 .05.012 0 .039.027.065.027.096 0 .03-.018.07-.083.096a.458.458 0 0 1-.166.013c-.013-.006-.026-.057-.013-.083a.216.216 0 0 1 .07-.067Z" fill="#82764F"/><path fill-rule="evenodd" clip-rule="evenodd" d="M11.303 17.618s-.044.026-.044.04a.115.115 0 0 0-.005.038c0 .007.057-.005.065-.013.002-.005-.016-.051-.016-.065Z" fill="#6E6342"/><path fill-rule="evenodd" clip-rule="evenodd" d="M10.918 17.496c.026.005.07 0 .103.013.026.013.044.039.018.07-.025.031-.05.078-.108.07-.065-.005-.127-.039-.127-.065a.124.124 0 0 1 .031-.09c.026-.021.039-.008.083.002Z" fill="#585136"/><path fill-rule="evenodd" clip-rule="evenodd" d="M10.887 17.523s-.083.064-.104.095c-.025.031-.152.192-.191.226a.497.497 0 0 1 .044-.065.265.265 0 0 0-.109.14c-.031.096.174.147.308.186.135.039.187.051.187.051a1.448 1.448 0 0 1-.127-.235c-.051-.122-.078-.135-.044-.192.026-.057.064-.096.064-.14a.776.776 0 0 0-.028-.066Z" fill="#574F35"/><path fill-rule="evenodd" clip-rule="evenodd" d="M7.935 17.727a.16.16 0 0 0 .057 0c.04-.005.443-.154.865-.127.316.019.63.07.935.153.53.14 1.19.417 1.618.575.114.044.225.122.307.153.326.127.34.127.53.16.226.032.457-.044.697-.095.295-.065.8-.096 1.243-.16a2.54 2.54 0 0 0 .422-.097s-.352.352-1.196.48a3.743 3.743 0 0 1-1.03.012 3.133 3.133 0 0 1-.583-.103c-.153-.044-.466-.161-.852-.256-.27-.07-.57-.122-.914-.187-.849-.155-1.77-.334-2.099-.507v-.001Z" fill="#252211"/><path fill-rule="evenodd" clip-rule="evenodd" d="M6.983 16.127c-.205.173-.422.34-.635.5l-.64.49c-.216.161-.429.327-.646.488-.218.16-.435.313-.666.46.205-.173.422-.334.64-.492.217-.157.442-.312.652-.472l.64-.492c.22-.16.432-.326.655-.482ZM5.85 17.939s.23-.191.518-.46c.357-.334.795-.762.935-.84l-1.453 1.3Z" fill="#CFB66C"/><path fill-rule="evenodd" clip-rule="evenodd" d="M5.852 17.939a9.04 9.04 0 0 1 .357-.334l.186-.16c.057-.052.122-.11.179-.166.114-.114.225-.236.34-.352.056-.059.115-.114.178-.166a.481.481 0 0 1 .103-.07c.031-.018.065-.051.109-.057-.026.039-.057.057-.083.09-.03.026-.057.057-.083.083-.057.057-.121.109-.178.16-.122.104-.249.206-.37.314-.122.108-.236.225-.358.334-.132.111-.253.22-.38.324ZM7.4 16.903s-.844.826-1.018.96l1.018-.96Z" fill="#CFB66C"/><path fill-rule="evenodd" clip-rule="evenodd" d="M7.4 16.903a2.73 2.73 0 0 1-.244.249l-.256.243c-.083.083-.16.166-.248.249-.091.077-.174.153-.27.225l.249-.243c.083-.083.173-.153.261-.236l.249-.243c.085-.086.168-.169.259-.244Zm.039.448c-.078.217-.17.43-.275.634-.217.436-.543.98-.686 1.256l.96-1.89Z" fill="#CFB66C"/><path fill-rule="evenodd" clip-rule="evenodd" d="M7.438 17.352a.726.726 0 0 1-.057.261 2.36 2.36 0 0 1-.103.243 4.112 4.112 0 0 1-.127.236c-.044.075-.096.153-.135.23l-.261.461c-.09.154-.179.308-.275.456.065-.166.153-.321.236-.474a9.84 9.84 0 0 0 .256-.466c.04-.08.077-.16.109-.243.039-.083.077-.16.109-.236.038-.083.07-.16.108-.235.044-.08.08-.158.14-.233Z" fill="#CFB66C"/><path fill-rule="evenodd" clip-rule="evenodd" d="M8.36 19.475s-.256.339-.23.768c.07-.225.158-.57.23-.768Zm.244.34s-.091.921-.166 1.374c.106-.523.127-.48.165-1.374Zm1.695 1.429s-.383 1.126-.39 1.44c.082-.323.243-.98.39-1.441Z" fill="#DEC270"/><path fill-rule="evenodd" clip-rule="evenodd" d="M11.195 19.405s.622 1.025 1.088 1.9c-.126-.44-.416-1.247-1.088-1.9Z" fill="#CBAF59"/><path fill-rule="evenodd" clip-rule="evenodd" d="M12.865 20.914c.341.603.65 1.225.922 1.861-.052-.44-.192-1.193-.922-1.86Z" fill="#E3C677"/><path fill-rule="evenodd" clip-rule="evenodd" d="M17.774 22.426c.103-.065.308-.417.486-.505.179-.09.314-.109.474-.287.16-.187.205-.3.557-.448.492-.213.153-.487.153-.487.055-.053.113-.103.174-.148.127-.095.274-.212.261-.416-.018-.345-.082-.844-.365-1.134.275-.057.8-.096 1.127-.179.378-.096.551-.23.551-.23s-.217-.37.135-.743.64-.596.852-1.013c-.244-.03-.615-.16-1.562.2.051.024.1.051.148.082 0 0-.583.16-.795.34-.37.313-.417.57-.818.76-.401.192-.805.14-1.14.296-.333.155-.382.287-.504.344.026.031-.005.083.044.127-.031.044-.212.34-.396.34.018.07.173.12.173.12s-.114.084-.404.104c.148.154.288.322.674.565-.032.064-.161.16-.11.282.058.122.206.287.796.422-.3.013-.653.083-1.127.018-.474-.057-.551-.09-.844-.018.031.031.114.031.187.114-.078.005-.565-.057-.73.16-.174.226-.249.596-.236.845-.09.044-.179.121-.135.282.044.16.275.212.422.313.148.109.16.148.3.122.148-.031.366-.179.493-.179a.33.33 0 0 1 .217.096s.345-.166.378-.135c.031.031.005.23.039.262.034.023.422-.207.526-.272h-.001Z" fill="#ECD592"/><path fill-rule="evenodd" clip-rule="evenodd" d="M25.3 12.065c-1.618-4.179-5.618-4.953-5.618-4.953H8.27l.044 4.257h2.272v9.504H8.27v4.248h11.096c2.675 0 4.818-2.687 4.818-2.687C27.617 17.56 25.3 12.065 25.3 12.065Zm-5.874 7.505s-.87 1.256-1.818 1.256h-1.894l-.045-9.447H18.1s1.127.236 1.913 2.465c0 0 1.044 3.191-.587 5.726Z" fill="#fff" fill-opacity=".8"/></svg>