<svg xmlns="http://www.w3.org/2000/svg" width="24" height="16" viewBox="0 0 24 16">
    <g fill="none" fill-rule="evenodd">
        <g>
            <g transform="translate(-86 -531) translate(86 531)">
                <rect width="24" height="16" fill="#008DE4" fill-rule="nonzero" rx="2"/>
                <path fill="#FFF" fill-rule="nonzero" d="M13.86 3c3.842 0 4.52 2.15 3.975 5.173-.367 2.03-1.28 3.584-2.816 4.316-.694.326-1.347.511-2.885.511H7.775l.363-2.08 3.833.002c2.304.003 2.92-1.022 3.218-1.922.113-.338.372-1.38.381-1.993.017-1.2-.556-1.924-2.498-1.924l-3.943-.005L9.49 3zm-1.78 3.956s-.047.247-.19.852c-.107.463-.271 1.228-1.416 1.228H6s.047-.247.19-.851c.107-.463.27-1.229 1.416-1.229z"/>
                <rect width="23" height="15" x=".5" y=".5" stroke="#000" stroke-opacity=".04" rx="2"/>
            </g>
        </g>
    </g>
</svg>
