<svg width="32" height="32" viewBox="0 0 32 32" fill="none" xmlns="http://www.w3.org/2000/svg">
<path d="M0 16C0 7.16344 7.16344 0 16 0C24.8366 0 32 7.16344 32 16C32 24.8366 24.8366 32 16 32C7.16344 32 0 24.8366 0 16Z" fill="black"/>
<path d="M15.9999 6L11.3199 12.44L9.35986 21.96L15.9999 26L22.6399 21.96L20.6399 12.4L15.9999 6ZM10.4399 21.52L11.9199 14.28L15.2799 24.48L10.4399 21.52ZM12.3999 12.64L15.9999 7.68L19.5999 12.64L15.9999 23.52L12.3999 12.64ZM16.6799 24.48L20.0399 14.28L21.5199 21.52L16.6799 24.48Z" fill="white"/>
</svg>
