<svg width="33" height="32" fill="none" xmlns="http://www.w3.org/2000/svg"><circle cx="11.5" cy="11" r="9" fill="#0B8311"/><path d="M7.563 11.602c1.468.78 3 1.596 4.184 2.228l4.15-2.228a1985.326 1985.326 0 0 1-4.15 6.148c-1.398-2.052-2.942-4.317-4.184-6.148Zm.16-.616 4.029-2.15 3.977 2.134-3.975 2.153-4.032-2.137Zm4.024-2.839L7.563 10.35l4.166-6.1 4.168 6.114-4.15-2.217Z" fill="#fff"/><path d="m11.747 13.83 4.15-2.228c-1.502 2.232-4.15 6.148-4.15 6.148v-3.92Zm.005-4.994 3.977 2.134-3.975 2.153-.002-4.287Zm-.005-.689L11.73 4.25l4.169 6.114-4.15-2.217Z" fill="#ADCDAD"/><path d="m7.722 10.986 4.03.331 3.977-.344-3.975 2.152-4.032-2.139Z" fill="#AECDAE"/><path d="m11.752 11.317 3.976-.344-3.974 2.152-.002-1.808Z" fill="#5B9C5B"/><path d="M12.5 21a9 9 0 1 1 18 0 9 9 0 0 1-18 0Z" fill="#fff"/><path fill-rule="evenodd" clip-rule="evenodd" d="M21.12 12c-1.734.1-3.335.69-4.668 1.633h10.386A8.956 8.956 0 0 0 22.171 12H21.12Zm-6.428 3.266a8.985 8.985 0 0 0-1.067 1.633h16.041a8.973 8.973 0 0 0-1.068-1.633H14.692Zm-2.155 4.915c.05-.56.15-1.106.298-1.633h17.317c.148.527.25 1.072.299 1.633H12.537Zm.003 1.633c.053.561.158 1.107.308 1.633H30.14a8.897 8.897 0 0 0 .308-1.633H12.541Zm2.04 4.899a8.99 8.99 0 0 1-1.083-1.633H29.49a8.981 8.981 0 0 1-1.082 1.633H14.58Zm6.533 3.256.028.001.027.001a8.86 8.86 0 0 0 5.454-1.625H16.366a8.859 8.859 0 0 0 4.747 1.623Z" fill="#F44336"/><path d="M21.308 12.005a8.991 8.991 0 0 0-8.77 8.179h8.77v-8.18Z" fill="#283991"/><path d="m14.3 17.085.137.421h.444l-.36.26.138.422-.36-.26-.358.26.137-.422-.36-.26h.445l.137-.42ZM14.3 18.573l.137.42h.444l-.36.261.138.421-.36-.26-.358.26.137-.42-.36-.261h.445l.137-.421ZM15.79 14.853l.138.422h.443l-.359.26.137.421-.359-.26-.359.26.138-.42-.36-.261h.444l.137-.422ZM15.79 16.341l.138.421h.443l-.359.26.137.422-.359-.26-.359.26.138-.422-.36-.26h.444l.137-.42ZM15.79 17.829l.138.421h.443l-.359.26.137.421-.359-.26-.359.26.138-.42-.36-.26h.444l.137-.422ZM13.168 18.931l-.137-.42.359-.261h-.444l-.01-.03c-.049.15-.093.302-.133.456l.006-.005.359.26ZM13.94 16.7l.36-.26.359.26-.138-.421.36-.26h-.444l-.137-.422-.138.421H14l-.09.139.169.122-.137.421ZM15.79 14.208l.36.26-.138-.42.36-.261h-.257a8.941 8.941 0 0 0-.63.516l-.054.165.36-.26ZM16.922 13.725l.36-.26.358.26-.137-.422.359-.26h-.444l-.018-.056c-.15.076-.3.156-.445.24l.104.076-.137.422ZM17.281 14.11l.137.42h.444l-.359.261.137.421-.359-.26-.359.26.137-.42-.359-.261h.444l.137-.421ZM17.281 15.597l.137.421h.444l-.359.26.137.422-.359-.26-.359.26.137-.421-.359-.26h.444l.137-.422ZM17.281 17.085l.137.421h.444l-.359.26.137.422-.359-.26-.359.26.137-.422-.359-.26h.444l.137-.42ZM17.281 18.573l.137.42h.444l-.359.261.137.421-.359-.26-.359.26.137-.42-.359-.261h.444l.137-.421ZM18.772 13.366l.137.42h.444l-.359.261.137.421-.359-.26-.36.26.138-.42-.359-.261h.444l.137-.421ZM18.772 14.853l.137.422h.444l-.359.26.137.421-.359-.26-.36.26.138-.42-.359-.261h.444l.137-.422ZM18.772 16.341l.137.421h.444l-.359.26.137.422-.359-.26-.36.26.138-.422-.359-.26h.444l.137-.42ZM18.772 17.829l.137.421h.444l-.359.26.137.421-.359-.26-.36.26.138-.42-.359-.26h.444l.137-.422ZM20.263 12.622l.137.421h.444l-.36.26.138.422-.36-.26-.358.26.137-.422-.36-.26h.445l.137-.42ZM20.263 14.11l.137.42h.444l-.36.261.138.421-.36-.26-.358.26.137-.42-.36-.261h.445l.137-.421ZM20.263 15.597l.137.421h.444l-.36.26.138.422-.36-.26-.358.26.137-.421-.36-.26h.445l.137-.422ZM20.263 17.085l.137.421h.444l-.36.26.138.422-.36-.26-.358.26.137-.422-.36-.26h.445l.137-.42ZM20.263 18.573l.137.42h.444l-.36.261.138.421-.36-.26-.358.26.137-.42-.36-.261h.445l.137-.421Z" fill="#EFEFEF"/></svg>