<svg xmlns="http://www.w3.org/2000/svg" width="24" height="24"><g fill="none" fill-rule="evenodd"><path d="M0 0h24v24H0z"/><path fill="#EBF0F1" fill-rule="nonzero" d="M19.5 6h-15A1.5 1.5 0 003 7.5v9A1.5 1.5 0 004.5 18h15a1.5 1.5 0 001.5-1.5v-9A1.5 1.5 0 0019.5 6z"/><path fill="#12100B" fill-opacity=".8" fill-rule="nonzero" d="M11.811 7.5v6.212l2.811-1.629z"/><path fill="#12100B" fill-opacity=".45" fill-rule="nonzero" d="M11.812 7.5L9 12.083l2.812 1.631z"/><path fill="#12100B" fill-opacity=".8" fill-rule="nonzero" d="M11.811 14.238v2.26l2.813-3.892z"/><path fill="#12100B" fill-opacity=".45" fill-rule="nonzero" d="M11.812 16.498v-2.261L9 12.606z"/><path fill="#12100B" fill-opacity=".6" fill-rule="nonzero" d="M11.811 13.715l2.811-1.633-2.811-1.255z"/><path fill="#12100B" fill-opacity=".6" fill-rule="nonzero" d="M9 12.082l2.812 1.633v-2.888z"/><path stroke="#000" stroke-opacity=".04" stroke-width=".75" d="M19.125 6.375H4.875a1.5 1.5 0 00-1.5 1.5v8.25a1.5 1.5 0 001.5 1.5h14.25a1.5 1.5 0 001.5-1.5v-8.25a1.5 1.5 0 00-1.5-1.5z"/></g></svg>