<svg width="32" height="32" viewBox="0 0 32 32" fill="none" xmlns="http://www.w3.org/2000/svg">
<circle cx="16" cy="16" r="16" fill="#0B8311"/>
<path d="M9 17.0703C11.6108 18.4568 14.3351 19.9081 16.4392 21.031L23.8175 17.0703C21.146 21.0391 18.92 24.3432 16.4392 28C13.954 24.3513 11.2095 20.3252 9 17.0703ZM9.28377 15.9755L16.4473 12.153L23.5175 15.9476L16.4513 19.7743L9.28377 15.9755ZM16.4392 10.9283L9 14.8446L16.4068 4L23.8175 14.8689L16.4392 10.9283Z" fill="white"/>
<path d="M16.4387 21.031L23.817 17.0703C21.1455 21.0391 16.4387 28 16.4387 28V21.031ZM16.4468 12.153L23.517 15.9476L16.4508 19.7743L16.4468 12.153ZM16.4387 10.9286L16.4062 4L23.817 14.8689L16.4387 10.9286Z" fill="#ADCDAD"/>
<path d="M9.2832 15.9755L16.4471 16.5634L23.5174 15.9512L16.4507 19.7782L9.2832 15.9755Z" fill="#AECDAE"/>
<path d="M16.4473 16.5634L23.5175 15.9512L16.4513 19.7782L16.4473 16.5634Z" fill="#5B9C5B"/>
</svg>
