<svg xmlns="http://www.w3.org/2000/svg" width="32" height="33" viewBox="0 0 32 33">
    <g fill="none" fill-rule="evenodd" transform="translate(0 5)">
        <g fill-rule="nonzero">
            <rect width="24" height="16" fill="#0D47A1" rx="2"/>
            <path fill="#FFEB3B" d="M12.168 12.693l.166.505.525.004c.068 0 .096.089.041.13l-.422.316.158.508c.02.066-.053.12-.108.08l-.427-.31-.426.31c-.056.04-.13-.014-.109-.08l.158-.508-.422-.316c-.054-.041-.026-.13.042-.13l.524-.004.166-.505c.022-.066.113-.066.134 0zm-2.584-.848l.166.506.525.004c.067 0 .096.088.041.13l-.422.316.158.508c.02.066-.053.12-.108.08l-.427-.31-.426.31c-.056.04-.13-.014-.109-.08l.158-.508-.422-.317c-.054-.04-.026-.129.042-.13l.524-.003.166-.506c.022-.065.113-.065.134 0zm5.207 0c.021-.065.112-.065.134 0l.166.506.524.004c.068 0 .096.088.041.13l-.421.316.158.508c.02.066-.053.12-.109.08l-.426-.31-.427.31c-.055.04-.129-.014-.108-.08l.158-.508-.422-.317c-.055-.04-.027-.129.041-.13l.525-.003.166-.506zM16.88 9.86l.165.505.525.004c.068 0 .096.089.041.13l-.422.316.159.508c.02.066-.054.12-.109.08l-.427-.31-.426.31c-.055.04-.13-.014-.109-.08l.159-.508-.422-.316c-.055-.041-.027-.13.041-.13l.525-.004.165-.505c.022-.066.113-.066.135 0zm-9.27-.032l.02.032.165.505.525.004c.054 0 .083.057.064.1l-.023.03-.422.316.159.508c.016.053-.028.098-.075.093l-.034-.013-.427-.31-.426.31c-.044.032-.1.004-.11-.043l.001-.037.159-.508-.422-.316c-.044-.033-.035-.096.005-.12l.036-.01.524-.004.166-.505c.018-.053.08-.063.114-.032zm9.899-2.56l.166.505.524.004c.068 0 .096.088.042.13l-.422.316.158.508c.02.066-.053.12-.109.08l-.426-.31-.427.31c-.055.04-.129-.014-.108-.08l.158-.508-.422-.317c-.055-.04-.027-.129.041-.13l.525-.003.166-.506c.021-.065.112-.065.134 0zm-10.681 0l.166.505.524.004c.068 0 .096.088.041.13l-.421.316.158.508c.02.066-.053.12-.109.08l-.426-.31-.427.31c-.055.04-.129-.014-.108-.08l.158-.508-.422-.317c-.055-.04-.027-.129.041-.13l.525-.003.166-.506c.021-.065.112-.065.134 0zm.801-2.834l.166.506.525.004c.068 0 .096.088.041.13l-.422.316.159.508c.02.065-.054.12-.109.08l-.427-.31-.426.31c-.055.04-.13-.015-.109-.08l.159-.508-.422-.317c-.055-.04-.027-.129.041-.13l.524-.003.166-.506c.022-.065.113-.065.134 0zm9.23-.031l.02.031.166.506.525.004c.054 0 .083.057.064.1l-.023.03-.422.316.159.508c.016.052-.028.098-.074.093l-.035-.013-.427-.31-.426.31c-.044.032-.1.003-.11-.043l.001-.037.159-.508-.422-.317c-.044-.033-.035-.095.005-.12l.036-.01.525-.003.165-.506c.018-.052.08-.063.114-.031zm-1.934-1.955l.166.506.524.004c.068 0 .096.088.042.13l-.422.316.158.508c.02.066-.053.12-.109.08l-.426-.31-.427.31c-.055.04-.129-.014-.108-.08l.158-.508-.422-.317c-.055-.04-.027-.129.041-.129l.525-.004.166-.506c.021-.065.112-.065.134 0zm-5.36-.031l.02.031.165.506.525.004c.054 0 .083.057.064.1l-.023.03-.422.316.158.508c.017.052-.027.098-.074.093l-.034-.013-.427-.31-.426.31c-.045.032-.1.004-.11-.043l.001-.037.158-.508-.422-.317c-.043-.032-.034-.095.006-.12l.036-.009.524-.004.166-.506c.017-.052.079-.062.114-.031zm2.603-.575l.166.505.525.005c.068 0 .096.088.041.13l-.422.316.158.508c.02.065-.053.12-.108.08l-.427-.31-.426.31c-.056.04-.13-.015-.109-.08l.158-.508-.422-.317c-.054-.04-.026-.129.042-.13l.524-.004.166-.505c.022-.065.113-.065.134 0z"/>
            <rect width="23" height="15" x=".5" y=".5" stroke="#000" stroke-opacity=".04" rx="1"/>
        </g>
        <rect width="23" height="15" x=".5" y=".5" stroke="#000" stroke-opacity=".04" rx="2"/>
        <g transform="translate(8 8)">
            <path fill="#0E46D4" d="M0 14c0 1.105.897 2 2.005 2h19.99C23.102 16 24 15.112 24 14v-2H0v2z"/>
            <path fill="#FFF" d="M0 4H24V12H0z"/>
            <g stroke="#093EC5" stroke-width=".5">
                <path d="M2-.504L-.43 3.75h4.86L2-.504z" transform="translate(10 5.75)"/>
                <path d="M2 5.004L-.43.75h4.86L2 5.004z" transform="translate(10 5.75)"/>
            </g>
            <path fill="#0E46D4" d="M0 4h24V2c0-1.105-.897-2-2.005-2H2.005C.898 0 0 .888 0 2v2z"/>
            <rect width="23" height="15" x=".5" y=".5" fill-rule="nonzero" stroke="#000" stroke-opacity=".04" rx="1"/>
        </g>
        <rect width="23" height="15" x="8.5" y="8.5" stroke="#000" stroke-opacity=".04" rx="2"/>
    </g>
</svg>
