<svg xmlns="http://www.w3.org/2000/svg" width="33" height="33"><g fill="none" fill-rule="evenodd"><path d="M.5 0h32v32H.5z"/><g transform="translate(4.5 8)" fill-rule="nonzero"><rect width="24" height="16" fill="#0D47A1" rx="2"/><path fill="#FFEB3B" d="m12.168 12.693.166.505.525.004c.068 0 .096.089.041.13l-.422.316.158.508c.02.066-.053.12-.108.08l-.427-.31-.426.31a.071.071 0 0 1-.109-.08l.158-.508-.422-.316c-.054-.041-.026-.13.042-.13l.524-.004.166-.505a.07.07 0 0 1 .134 0zm-2.584-.848.166.506.525.004c.067 0 .096.088.041.13l-.422.316.158.508c.02.066-.053.12-.108.08l-.427-.31-.426.31a.071.071 0 0 1-.109-.08l.158-.508-.422-.317c-.054-.04-.026-.129.042-.13l.524-.003.166-.506c.022-.065.113-.065.134 0zm5.207 0c.021-.065.112-.065.134 0l.166.506.524.004c.068 0 .096.088.041.13l-.421.316.158.508c.02.066-.053.12-.109.08l-.426-.31-.427.31c-.055.04-.129-.014-.108-.08l.158-.508-.422-.317c-.055-.04-.027-.129.041-.13l.525-.003.166-.506zM16.88 9.86l.165.505.525.004c.068 0 .096.089.041.13l-.422.316.159.508c.02.066-.054.12-.109.08l-.427-.31-.426.31c-.055.04-.13-.014-.109-.08l.159-.508-.422-.316c-.055-.041-.027-.13.041-.13l.525-.004.165-.505a.07.07 0 0 1 .135 0zm-9.27-.032.02.032.165.505.525.004c.054 0 .083.057.064.1l-.023.03-.422.316.159.508a.072.072 0 0 1-.075.093l-.034-.013-.427-.31-.426.31c-.044.032-.1.004-.11-.043l.001-.037.159-.508-.422-.316a.073.073 0 0 1 .005-.12l.036-.01.524-.004.166-.505a.07.07 0 0 1 .114-.032zm9.899-2.56.166.505.524.004c.068 0 .096.088.042.13l-.422.316.158.508c.02.066-.053.12-.109.08l-.426-.31-.427.31c-.055.04-.129-.014-.108-.08l.158-.508-.422-.317c-.055-.04-.027-.129.041-.13l.525-.003.166-.506c.021-.065.112-.065.134 0zm-10.681 0 .166.505.524.004c.068 0 .096.088.041.13l-.421.316.158.508c.02.066-.053.12-.109.08l-.426-.31-.427.31c-.055.04-.129-.014-.108-.08l.158-.508-.422-.317c-.055-.04-.027-.129.041-.13l.525-.003.166-.506c.021-.065.112-.065.134 0zm.801-2.834.166.506.525.004c.068 0 .096.088.041.13l-.422.316.159.508c.02.065-.054.12-.109.08l-.427-.31-.426.31c-.055.04-.13-.015-.109-.08l.159-.508-.422-.317c-.055-.04-.027-.129.041-.13l.524-.003.166-.506c.022-.065.113-.065.134 0zm9.23-.031.02.031.166.506.525.004c.054 0 .083.057.064.1l-.023.03-.422.316.159.508a.072.072 0 0 1-.074.093l-.035-.013-.427-.31-.426.31c-.044.032-.1.003-.11-.043l.001-.037.159-.508-.422-.317a.073.073 0 0 1 .005-.12l.036-.01.525-.003.165-.506a.07.07 0 0 1 .114-.031zm-1.934-1.955.166.506.524.004c.068 0 .096.088.042.13l-.422.316.158.508c.02.066-.053.12-.109.08l-.426-.31-.427.31c-.055.04-.129-.014-.108-.08l.158-.508-.422-.317c-.055-.04-.027-.129.041-.129l.525-.004.166-.506c.021-.065.112-.065.134 0zm-5.36-.031.02.031.165.506.525.004c.054 0 .083.057.064.1l-.023.03-.422.316.158.508a.071.071 0 0 1-.074.093l-.034-.013-.427-.31-.426.31a.07.07 0 0 1-.11-.043l.001-.037.158-.508-.422-.317c-.043-.032-.034-.095.006-.12l.036-.009.524-.004.166-.506a.07.07 0 0 1 .114-.031zm2.603-.575.166.505.525.005c.068 0 .096.088.041.13l-.422.316.158.508c.02.065-.053.12-.108.08l-.427-.31-.426.31c-.056.04-.13-.015-.109-.08l.158-.508-.422-.317c-.054-.04-.026-.129.042-.13l.524-.004.166-.505c.022-.065.113-.065.134 0z"/><rect width="23" height="15" x=".5" y=".5" stroke="#000" stroke-opacity=".04" rx="1"/></g><g transform="translate(19.5 2)"><rect width="11" height="8" fill="#0E0E0E" rx="1"/><text fill="#FFF" font-family="IBMPlexSans, IBM Plex Sans" font-size="6">
                                <tspan x="1.9" y="6">50</tspan>
                            </text></g></g></svg>