<svg width="32" height="32" viewBox="0 0 32 32" fill="none" xmlns="http://www.w3.org/2000/svg">
<path d="M22 6H2C0.89543 6 0 6.89543 0 8V20C0 21.1046 0.89543 22 2 22H22C23.1046 22 24 21.1046 24 20V8C24 6.89543 23.1046 6 22 6Z" fill="#0D47A1"/>
<path d="M12.1688 18.6927L12.3347 19.198L12.8591 19.2022C12.9271 19.2027 12.9552 19.2907 12.9006 19.3317L12.4787 19.6482L12.6368 20.1561C12.6573 20.2218 12.5836 20.2763 12.5284 20.2361L12.1018 19.9263L11.6752 20.2361C11.6199 20.2762 11.5462 20.2218 11.5667 20.1561L11.7248 19.6482L11.303 19.3317C11.2484 19.2907 11.2765 19.2027 11.3444 19.2022L11.8688 19.198L12.0347 18.6927C12.0562 18.6272 12.1473 18.6272 12.1688 18.6927ZM9.58472 17.8453L9.75066 18.3507L10.2751 18.3548C10.343 18.3554 10.3711 18.4434 10.3165 18.4844L9.89461 18.8008L10.0528 19.3088C10.0733 19.3745 9.99957 19.4289 9.9443 19.3888L9.51769 19.079L9.09108 19.3888C9.03587 19.4289 8.96213 19.3745 8.98262 19.3088L9.14077 18.8008L8.7189 18.4844C8.66429 18.4434 8.69241 18.3554 8.76033 18.3548L9.28472 18.3508L9.45066 17.8454C9.47213 17.7798 9.5633 17.7798 9.58472 17.8453ZM14.7912 17.8453C14.8126 17.7798 14.9037 17.7798 14.9252 17.8454L15.0912 18.3508L15.6156 18.3548C15.6835 18.3554 15.7116 18.4434 15.657 18.4844L15.2351 18.8008L15.3933 19.3088C15.4138 19.3745 15.34 19.4289 15.2848 19.3888L14.8582 19.079L14.4316 19.3888C14.3763 19.4289 14.3026 19.3745 14.3231 19.3088L14.4813 18.8008L14.0594 18.4844C14.0048 18.4434 14.0329 18.3554 14.1009 18.3548L14.6252 18.3507L14.7912 17.8453ZM16.88 15.8595L17.046 16.3648L17.5703 16.369C17.6383 16.3695 17.6664 16.4575 17.6118 16.4985L17.1899 16.815L17.3481 17.3229C17.3686 17.3887 17.2949 17.4431 17.2396 17.4029L16.813 17.0931L16.3864 17.4029C16.3312 17.443 16.2574 17.3887 16.2779 17.3229L16.4361 16.815L16.0142 16.4985C15.9596 16.4575 15.9877 16.3695 16.0556 16.369L16.58 16.3648L16.746 15.8595C16.7674 15.7941 16.8586 15.7941 16.88 15.8595ZM7.60985 15.8281L7.62999 15.8595L7.79593 16.3648L8.32032 16.369C8.37466 16.3694 8.40352 16.4258 8.38494 16.4694L8.36176 16.4985L7.93988 16.815L8.09804 17.3229C8.11442 17.3755 8.07051 17.4208 8.02402 17.4163L7.98957 17.4029L7.56296 17.0931L7.13635 17.4029C7.09214 17.4351 7.03613 17.4067 7.02599 17.3603L7.02788 17.3229L7.18604 16.815L6.76416 16.4985C6.72047 16.4657 6.72974 16.4028 6.76997 16.3787L6.8056 16.369L7.32999 16.3648L7.49593 15.8595C7.5131 15.8072 7.57483 15.7967 7.60985 15.8281ZM17.5093 13.2673L17.6753 13.7727L18.1996 13.7768C18.2676 13.7774 18.2957 13.8654 18.2411 13.9064L17.8192 14.2228L17.9774 14.7308C17.9979 14.7965 17.9242 14.8509 17.8689 14.8108L17.4423 14.501L17.0157 14.8108C16.9605 14.8509 16.8867 14.7965 16.9072 14.7308L17.0654 14.2228L16.6435 13.9064C16.5889 13.8654 16.617 13.7774 16.6849 13.7768L17.2093 13.7727L17.3753 13.2673C17.3967 13.2019 17.4878 13.2019 17.5093 13.2673ZM6.82824 13.2673L6.99418 13.7727L7.51857 13.7768C7.58649 13.7774 7.61462 13.8654 7.56001 13.9064L7.13813 14.2228L7.29629 14.7308C7.31677 14.7965 7.24308 14.8509 7.18782 14.8108L6.76121 14.501L6.3346 14.8108C6.27938 14.8509 6.20565 14.7965 6.22613 14.7308L6.38429 14.2228L5.96241 13.9064C5.9078 13.8654 5.93593 13.7774 6.00385 13.7768L6.52824 13.7727L6.69418 13.2673C6.71565 13.2019 6.80682 13.2019 6.82824 13.2673ZM7.62999 10.4342L7.79593 10.9396L8.32032 10.9437C8.38824 10.9442 8.41637 11.0322 8.36176 11.0732L7.93988 11.3897L8.09804 11.8976C8.11852 11.9633 8.04483 12.0178 7.98957 11.9777L7.56296 11.6678L7.13635 11.9777C7.08113 12.0178 7.0074 11.9634 7.02788 11.8976L7.18604 11.3897L6.76416 11.0732C6.70955 11.0322 6.73768 10.9442 6.8056 10.9437L7.32999 10.9396L7.49593 10.4342C7.5174 10.3688 7.60847 10.3688 7.62999 10.4342ZM16.8599 10.4028L16.88 10.4342L17.046 10.9396L17.5703 10.9437C17.6247 10.9441 17.6536 11.0005 17.635 11.0441L17.6118 11.0732L17.1899 11.3897L17.3481 11.8976C17.3645 11.9502 17.3205 11.9955 17.2741 11.991L17.2396 11.9777L16.813 11.6678L16.3864 11.9777C16.3422 12.0098 16.2862 11.9813 16.276 11.935L16.2779 11.8976L16.4361 11.3897L16.0142 11.0732C15.9705 11.0404 15.9798 10.9776 16.02 10.9534L16.0556 10.9437L16.58 10.9396L16.746 10.4342C16.7631 10.3818 16.8249 10.3714 16.8599 10.4028ZM14.9253 8.44837L15.0912 8.95375L15.6156 8.9579C15.6835 8.95842 15.7117 9.04642 15.6571 9.08742L15.2352 9.4039L15.3933 9.9118C15.4138 9.97752 15.3401 10.032 15.2849 9.99185L14.8583 9.68204L14.4316 9.99185C14.3764 10.0319 14.3026 9.97756 14.3231 9.9118L14.4813 9.4039L14.0594 9.08742C14.0048 9.04642 14.0329 8.95842 14.1009 8.9579L14.6252 8.95375L14.7912 8.44837C14.8126 8.38299 14.9037 8.38299 14.9253 8.44837ZM9.56458 8.41699L9.58472 8.44837L9.75066 8.95375L10.2751 8.9579C10.3294 8.95832 10.3583 9.01472 10.3397 9.05826L10.3165 9.08742L9.89461 9.4039L10.0528 9.9118C10.0692 9.96441 10.0252 10.0097 9.97875 10.0052L9.9443 9.99185L9.51769 9.68204L9.09108 9.99185C9.04687 10.024 8.99087 9.99552 8.98072 9.94921L8.98262 9.9118L9.14077 9.4039L8.7189 9.08742C8.67521 9.05462 8.68447 8.99174 8.7247 8.96763L8.76033 8.9579L9.28472 8.95375L9.45066 8.44837C9.46784 8.39607 9.52956 8.38561 9.56458 8.41699ZM12.1688 7.84204L12.3347 8.34742L12.8591 8.35156C12.9271 8.35209 12.9552 8.44009 12.9006 8.48109L12.4787 8.79756L12.6368 9.30547C12.6573 9.37118 12.5836 9.42566 12.5284 9.38552L12.1018 9.07571L11.6752 9.38552C11.6199 9.42561 11.5462 9.37123 11.5667 9.30547L11.7248 8.79756L11.303 8.48109C11.2484 8.44009 11.2765 8.35209 11.3444 8.35156L11.8688 8.34742L12.0347 7.84204C12.0562 7.77661 12.1473 7.77661 12.1688 7.84204Z" fill="#FFEB3B"/>
<path fill-rule="evenodd" clip-rule="evenodd" d="M22 7H2C1.44772 7 1 7.44772 1 8V20C1 20.5523 1.44772 21 2 21H22C22.5523 21 23 20.5523 23 20V8C23 7.44771 22.5523 7 22 7ZM2 6C0.895431 6 0 6.89543 0 8V20C0 21.1046 0.89543 22 2 22H22C23.1046 22 24 21.1046 24 20V8C24 6.89543 23.1046 6 22 6H2Z" fill="black" fill-opacity="0.04"/>
<mask id="mask0_4748_22641" style="mask-type:alpha" maskUnits="userSpaceOnUse" x="8" y="14" width="24" height="16">
<path d="M30 14H10C8.89543 14 8 14.8954 8 16V28C8 29.1046 8.89543 30 10 30H30C31.1046 30 32 29.1046 32 28V16C32 14.8954 31.1046 14 30 14Z" fill="white"/>
</mask>
<g mask="url(#mask0_4748_22641)">
<path d="M30 14H10C8.89543 14 8 14.8954 8 16V28C8 29.1046 8.89543 30 10 30H30C31.1046 30 32 29.1046 32 28V16C32 14.8954 31.1046 14 30 14Z" fill="white"/>
<path d="M32 28.688C32 29.4126 31.4126 30 30.688 30H9.312C8.5874 30 8 29.4126 8 28.688H32ZM32 26.24V27.464H8V26.24H32ZM32 23.792V25.016H8V23.792H32ZM32 21.344V22.568H8V21.344H32ZM32 18.896V20.12H8V18.896H32ZM32 16.448V17.672H8V16.448H32ZM30.776 14C31.4097 14 31.931 14.4816 31.9937 15.0989L32 15.224H8.68838C8.68838 14.548 9.23638 14 9.91238 14H30.776Z" fill="#F44336"/>
<path d="M10 14H19.5V22.568H8V16C8 14.8954 8.89543 14 10 14Z" fill="#0D47A1"/>
<path d="M9.09283 20.8168L9.18803 21.0984H9.48323C9.50002 21.0988 9.51476 21.1097 9.52012 21.1256C9.52548 21.1415 9.52034 21.1591 9.50723 21.1696L9.26723 21.3464L9.35763 21.628C9.36322 21.6445 9.35726 21.6627 9.34301 21.6727C9.32876 21.6827 9.30963 21.6821 9.29603 21.6712L9.05603 21.4992L8.81603 21.6712C8.80224 21.6809 8.78386 21.6809 8.77007 21.6712C8.75627 21.6616 8.75002 21.6443 8.75443 21.628L8.85283 21.348L8.61283 21.1712C8.59973 21.1607 8.59458 21.1431 8.59994 21.1272C8.60531 21.1113 8.62004 21.1004 8.63683 21.1H8.93283L9.02803 20.8184C9.03363 20.7784 9.08163 20.7784 9.09283 20.8168ZM18.1282 20.7913C18.1439 20.7909 18.1579 20.8015 18.1616 20.8168L18.2568 21.0984H18.552C18.5688 21.0988 18.5836 21.1097 18.5889 21.1256C18.5943 21.1415 18.5891 21.1591 18.576 21.1696L18.336 21.3464L18.4264 21.628C18.432 21.6445 18.4261 21.6627 18.4118 21.6727C18.3976 21.6827 18.3784 21.6821 18.3648 21.6712L18.1248 21.4992L17.8848 21.6712C17.871 21.6809 17.8527 21.6809 17.8389 21.6712C17.8251 21.6616 17.8188 21.6443 17.8232 21.628L17.9216 21.348L17.6816 21.1712C17.6685 21.1607 17.6634 21.1431 17.6687 21.1272C17.6741 21.1113 17.6888 21.1004 17.7056 21.1H18.0008L18.096 20.8184C18.0991 20.8029 18.1124 20.7916 18.1282 20.7913ZM15.8594 20.7913C15.8751 20.7909 15.8891 20.8015 15.8928 20.8168L15.988 21.0984H16.2832C16.3 21.0988 16.3148 21.1097 16.3201 21.1256C16.3255 21.1415 16.3203 21.1591 16.3072 21.1696L16.0672 21.3464L16.1576 21.628C16.1632 21.6445 16.1573 21.6627 16.143 21.6727C16.1288 21.6827 16.1096 21.6821 16.096 21.6712L15.856 21.4992L15.616 21.6712C15.6022 21.6809 15.5839 21.6809 15.5701 21.6712C15.5563 21.6616 15.55 21.6443 15.5544 21.628L15.6528 21.348L15.4128 21.1712C15.3997 21.1607 15.3946 21.1431 15.3999 21.1272C15.4053 21.1113 15.42 21.1004 15.4368 21.1H15.732L15.8272 20.8184C15.8303 20.8029 15.8436 20.7916 15.8594 20.7913ZM11.3608 20.8168L11.456 21.0984H11.7512C11.768 21.0988 11.7828 21.1097 11.7881 21.1256C11.7935 21.1415 11.7883 21.1591 11.7752 21.1696L11.5352 21.3464L11.6256 21.628C11.6312 21.6445 11.6253 21.6627 11.611 21.6727C11.5968 21.6827 11.5776 21.6821 11.564 21.6712L11.324 21.4992L11.084 21.6712C11.0702 21.6809 11.0519 21.6809 11.0381 21.6712C11.0243 21.6616 11.018 21.6443 11.0224 21.628L11.1208 21.348L10.8808 21.1712C10.8677 21.1607 10.8626 21.1431 10.8679 21.1272C10.8733 21.1113 10.888 21.1004 10.9048 21.1H11.2008L11.296 20.8184C11.2968 20.7784 11.3496 20.7784 11.3608 20.8168ZM13.6296 20.8168L13.7248 21.0984H14.02C14.0368 21.0988 14.0516 21.1097 14.0569 21.1256C14.0623 21.1415 14.0571 21.1591 14.044 21.1696L13.804 21.3464L13.8944 21.628C13.9 21.6445 13.8941 21.6627 13.8798 21.6727C13.8656 21.6827 13.8464 21.6821 13.8328 21.6712L13.5928 21.4992L13.3528 21.6712C13.339 21.6809 13.3207 21.6809 13.3069 21.6712C13.2931 21.6616 13.2868 21.6443 13.2912 21.628L13.3896 21.348L13.1496 21.1712C13.1365 21.1607 13.1314 21.1431 13.1367 21.1272C13.1421 21.1113 13.1568 21.1004 13.1736 21.1H13.4696L13.5648 20.8184C13.5656 20.7784 13.6184 20.7784 13.6296 20.8168ZM10.2272 20.0728L10.3224 20.3544H10.6176C10.6344 20.3548 10.6492 20.3657 10.6545 20.3816C10.6599 20.3975 10.6547 20.4151 10.6416 20.4256L10.4016 20.6024L10.492 20.884C10.4976 20.9005 10.4917 20.9187 10.4774 20.9287C10.4632 20.9387 10.444 20.9381 10.4304 20.9272L10.1904 20.7552L9.95043 20.9272C9.93664 20.9369 9.91826 20.9369 9.90447 20.9272C9.89067 20.9176 9.88442 20.9003 9.88883 20.884L9.97923 20.6024L9.73923 20.4256C9.72613 20.4151 9.72098 20.3975 9.72634 20.3816C9.73171 20.3657 9.74644 20.3548 9.76323 20.3544H10.0672L10.1624 20.0728C10.168 20.0344 10.216 20.0344 10.2272 20.0728ZM17.0088 20.0409C17.0202 20.0475 17.0272 20.0597 17.0272 20.0728L17.1224 20.3544H17.4176C17.4344 20.3548 17.4492 20.3657 17.4545 20.3816C17.4599 20.3975 17.4547 20.4151 17.4416 20.4256L17.2016 20.6024L17.292 20.884C17.2976 20.9005 17.2917 20.9187 17.2774 20.9287C17.2632 20.9387 17.244 20.9381 17.2304 20.9272L16.9904 20.7552L16.7504 20.9272C16.7366 20.9369 16.7183 20.9369 16.7045 20.9272C16.6907 20.9176 16.6844 20.9003 16.6888 20.884L16.7792 20.6024L16.5392 20.4256C16.5261 20.4151 16.521 20.3975 16.5263 20.3816C16.5317 20.3657 16.5464 20.3548 16.5632 20.3544H16.8584L16.9536 20.0728C16.9536 20.0597 16.9606 20.0475 16.972 20.0409C16.9834 20.0344 16.9974 20.0344 17.0088 20.0409ZM14.764 20.0728L14.8592 20.3544H15.1544C15.1712 20.3548 15.186 20.3657 15.1913 20.3816C15.1967 20.3975 15.1915 20.4151 15.1784 20.4256L14.9384 20.6024L15.0288 20.884C15.0344 20.9005 15.0285 20.9187 15.0142 20.9287C15 20.9387 14.9808 20.9381 14.9672 20.9272L14.7272 20.7552L14.4872 20.9272C14.4734 20.9369 14.4551 20.9369 14.4413 20.9272C14.4275 20.9176 14.4212 20.9003 14.4256 20.884L14.516 20.6024L14.276 20.4256C14.2629 20.4151 14.2578 20.3975 14.2631 20.3816C14.2685 20.3657 14.2832 20.3548 14.3 20.3544H14.5952L14.6904 20.0728C14.7 20.0344 14.7528 20.0344 14.764 20.0728ZM12.4952 20.0728L12.5904 20.3544H12.8856C12.9024 20.3548 12.9172 20.3657 12.9225 20.3816C12.9279 20.3975 12.9227 20.4151 12.9096 20.4256L12.6696 20.6024L12.76 20.884C12.7656 20.9005 12.7597 20.9187 12.7454 20.9287C12.7312 20.9387 12.712 20.9381 12.6984 20.9272L12.4584 20.7552L12.2184 20.9272C12.2046 20.9369 12.1863 20.9369 12.1725 20.9272C12.1587 20.9176 12.1524 20.9003 12.1568 20.884L12.2472 20.6024L12.0072 20.4256C11.9941 20.4151 11.989 20.3975 11.9943 20.3816C11.9997 20.3657 12.0144 20.3548 12.0312 20.3544H12.3352L12.4304 20.0728C12.4312 20.0344 12.484 20.0344 12.4952 20.0728ZM11.3608 19.352L11.456 19.6336H11.7512C11.768 19.634 11.7828 19.6449 11.7881 19.6608C11.7935 19.6767 11.7883 19.6943 11.7752 19.7048L11.5352 19.8816L11.6256 20.1632C11.6312 20.1797 11.6253 20.1979 11.611 20.2079C11.5968 20.2179 11.5776 20.2173 11.564 20.2064L11.324 20.0344L11.084 20.2064C11.0702 20.2161 11.0519 20.2161 11.0381 20.2064C11.0243 20.1968 11.018 20.1795 11.0224 20.1632L11.1128 19.8816L10.8728 19.7048C10.8597 19.6943 10.8546 19.6767 10.8599 19.6608C10.8653 19.6449 10.88 19.634 10.8968 19.6336H11.2008L11.296 19.352C11.2968 19.3192 11.3496 19.3192 11.3608 19.352ZM18.1616 19.352L18.2568 19.6336H18.552C18.5688 19.634 18.5836 19.6449 18.5889 19.6608C18.5943 19.6767 18.5891 19.6943 18.576 19.7048L18.336 19.8816L18.4264 20.1632C18.432 20.1797 18.4261 20.1979 18.4118 20.2079C18.3976 20.2179 18.3784 20.2173 18.3648 20.2064L18.1248 20.0344L17.8848 20.2064C17.871 20.2161 17.8527 20.2161 17.8389 20.2064C17.8251 20.1968 17.8188 20.1795 17.8232 20.1632L17.9136 19.8816L17.6736 19.7048C17.6605 19.6943 17.6554 19.6767 17.6607 19.6608C17.6661 19.6449 17.6808 19.634 17.6976 19.6336H17.9928L18.088 19.352C18.1024 19.3192 18.1552 19.3192 18.1616 19.352ZM9.09283 19.352L9.18803 19.6336H9.48323C9.50002 19.634 9.51476 19.6449 9.52012 19.6608C9.52548 19.6767 9.52034 19.6943 9.50723 19.7048L9.26723 19.8816L9.35763 20.1632C9.36322 20.1797 9.35726 20.1979 9.34301 20.2079C9.32876 20.2179 9.30963 20.2173 9.29603 20.2064L9.05603 20.0344L8.81603 20.2064C8.80224 20.2161 8.78386 20.2161 8.77007 20.2064C8.75627 20.1968 8.75002 20.1795 8.75443 20.1632L8.84483 19.8816L8.60483 19.7048C8.59173 19.6943 8.58658 19.6767 8.59194 19.6608C8.59731 19.6449 8.61204 19.634 8.62883 19.6336H8.93283L9.02803 19.352C9.03363 19.3192 9.08163 19.3192 9.09283 19.352ZM15.8928 19.352L15.988 19.6336H16.2832C16.3 19.634 16.3148 19.6449 16.3201 19.6608C16.3255 19.6767 16.3203 19.6943 16.3072 19.7048L16.0672 19.8816L16.1576 20.1632C16.1632 20.1797 16.1573 20.1979 16.143 20.2079C16.1288 20.2179 16.1096 20.2173 16.096 20.2064L15.856 20.0344L15.616 20.2064C15.6022 20.2161 15.5839 20.2161 15.5701 20.2064C15.5563 20.1968 15.55 20.1795 15.5544 20.1632L15.6448 19.8816L15.4048 19.7048C15.3917 19.6943 15.3866 19.6767 15.3919 19.6608C15.3973 19.6449 15.412 19.634 15.4288 19.6336H15.724L15.8192 19.352C15.8336 19.3192 15.8864 19.3192 15.8928 19.352ZM13.6296 19.352L13.7248 19.6336H14.02C14.0368 19.634 14.0516 19.6449 14.0569 19.6608C14.0623 19.6767 14.0571 19.6943 14.044 19.7048L13.804 19.8816L13.8944 20.1632C13.9 20.1797 13.8941 20.1979 13.8798 20.2079C13.8656 20.2179 13.8464 20.2173 13.8328 20.2064L13.5928 20.0344L13.3528 20.2064C13.339 20.2161 13.3207 20.2161 13.3069 20.2064C13.2931 20.1968 13.2868 20.1795 13.2912 20.1632L13.3816 19.8816L13.1416 19.7048C13.1285 19.6943 13.1234 19.6767 13.1287 19.6608C13.1341 19.6449 13.1488 19.634 13.1656 19.6336H13.4696L13.5648 19.352C13.5656 19.3192 13.6184 19.3192 13.6296 19.352ZM10.2272 18.6088L10.3224 18.8904H10.6176C10.6344 18.8908 10.6492 18.9017 10.6545 18.9176C10.6599 18.9335 10.6547 18.9511 10.6416 18.9616L10.4016 19.1384L10.492 19.42C10.4976 19.4365 10.4917 19.4547 10.4774 19.4647C10.4632 19.4747 10.444 19.4741 10.4304 19.4632L10.1904 19.2912L9.95043 19.4632C9.93664 19.4729 9.91826 19.4729 9.90447 19.4632C9.89067 19.4536 9.88442 19.4363 9.88883 19.42L9.98723 19.14L9.74723 18.9632C9.73413 18.9527 9.72898 18.9351 9.73434 18.9192C9.73971 18.9033 9.75444 18.8924 9.77123 18.892H10.0672L10.1624 18.6104C10.168 18.5704 10.216 18.5704 10.2272 18.6088ZM16.9904 18.572C17.0108 18.572 17.0272 18.5885 17.0272 18.6088L17.1224 18.8904H17.4176C17.4344 18.8908 17.4492 18.9017 17.4545 18.9176C17.4599 18.9335 17.4547 18.9511 17.4416 18.9616L17.2016 19.1384L17.292 19.42C17.2976 19.4365 17.2917 19.4547 17.2774 19.4647C17.2632 19.4747 17.244 19.4741 17.2304 19.4632L16.9904 19.2912L16.7504 19.4632C16.7366 19.4729 16.7183 19.4729 16.7045 19.4632C16.6907 19.4536 16.6844 19.4363 16.6888 19.42L16.7792 19.1384L16.5392 18.9616C16.5261 18.9511 16.521 18.9335 16.5263 18.9176C16.5317 18.9017 16.5464 18.8908 16.5632 18.8904H16.8584L16.9536 18.6088C16.9536 18.5885 16.9701 18.572 16.9904 18.572ZM14.764 18.6088L14.8592 18.8904H15.1544C15.1712 18.8908 15.186 18.9017 15.1913 18.9176C15.1967 18.9335 15.1915 18.9511 15.1784 18.9616L14.9384 19.1384L15.0288 19.42C15.0344 19.4365 15.0285 19.4547 15.0142 19.4647C15 19.4747 14.9808 19.4741 14.9672 19.4632L14.7272 19.2912L14.4872 19.4632C14.4734 19.4729 14.4551 19.4729 14.4413 19.4632C14.4275 19.4536 14.4212 19.4363 14.4256 19.42L14.516 19.1384L14.276 18.9616C14.2629 18.9511 14.2578 18.9335 14.2631 18.9176C14.2685 18.9017 14.2832 18.8908 14.3 18.8904H14.5952L14.6904 18.6088C14.7 18.5704 14.7528 18.5704 14.764 18.6088ZM12.4952 18.6088L12.5904 18.8904H12.8856C12.9024 18.8908 12.9172 18.9017 12.9225 18.9176C12.9279 18.9335 12.9227 18.9511 12.9096 18.9616L12.6696 19.1384L12.76 19.42C12.7656 19.4365 12.7597 19.4547 12.7454 19.4647C12.7312 19.4747 12.712 19.4741 12.6984 19.4632L12.4584 19.2912L12.2184 19.4632C12.2046 19.4729 12.1863 19.4729 12.1725 19.4632C12.1587 19.4536 12.1524 19.4363 12.1568 19.42L12.2552 19.14L12.0152 18.9632C12.0021 18.9527 11.997 18.9351 12.0023 18.9192C12.0077 18.9033 12.0224 18.8924 12.0392 18.892H12.3352L12.4304 18.6104C12.4312 18.5704 12.484 18.5704 12.4952 18.6088ZM11.3608 17.8928L11.456 18.1744H11.7512C11.768 18.1748 11.7828 18.1857 11.7881 18.2016C11.7935 18.2175 11.7883 18.2351 11.7752 18.2456L11.5352 18.4224L11.6256 18.704C11.6312 18.7205 11.6253 18.7387 11.611 18.7487C11.5968 18.7587 11.5776 18.7581 11.564 18.7472L11.324 18.5752L11.084 18.7472C11.0702 18.7569 11.0519 18.7569 11.0381 18.7472C11.0243 18.7376 11.018 18.7203 11.0224 18.704L11.1208 18.424L10.8808 18.2472C10.8677 18.2367 10.8626 18.2191 10.8679 18.2032C10.8733 18.1873 10.888 18.1764 10.9048 18.176H11.2008L11.296 17.8944C11.2968 17.8544 11.3496 17.8544 11.3608 17.8928ZM18.1282 17.8673C18.1439 17.8669 18.1579 17.8775 18.1616 17.8928L18.2568 18.1744H18.552C18.5688 18.1748 18.5836 18.1857 18.5889 18.2016C18.5943 18.2175 18.5891 18.2351 18.576 18.2456L18.336 18.4224L18.4264 18.704C18.432 18.7205 18.4261 18.7387 18.4118 18.7487C18.3976 18.7587 18.3784 18.7581 18.3648 18.7472L18.1248 18.5752L17.8848 18.7472C17.871 18.7569 17.8527 18.7569 17.8389 18.7472C17.8251 18.7376 17.8188 18.7203 17.8232 18.704L17.9216 18.424L17.6816 18.2472C17.6685 18.2367 17.6634 18.2191 17.6687 18.2032C17.6741 18.1873 17.6888 18.1764 17.7056 18.176H18.0008L18.096 17.8944C18.0991 17.8789 18.1124 17.8676 18.1282 17.8673ZM15.856 17.856C15.8764 17.856 15.8928 17.8725 15.8928 17.8928L15.988 18.1744H16.2832C16.3 18.1748 16.3148 18.1857 16.3201 18.2016C16.3255 18.2175 16.3203 18.2351 16.3072 18.2456L16.0672 18.4224L16.1576 18.704C16.1632 18.7205 16.1573 18.7387 16.143 18.7487C16.1288 18.7587 16.1096 18.7581 16.096 18.7472L15.856 18.5752L15.616 18.7472C15.6022 18.7569 15.5839 18.7569 15.5701 18.7472C15.5563 18.7376 15.55 18.7203 15.5544 18.704L15.6448 18.4224L15.4048 18.2456C15.3917 18.2351 15.3866 18.2175 15.3919 18.2016C15.3973 18.1857 15.412 18.1748 15.4288 18.1744H15.724L15.8192 17.8928C15.8192 17.8725 15.8357 17.856 15.856 17.856ZM9.09283 17.8928L9.18803 18.1744H9.48323C9.50002 18.1748 9.51476 18.1857 9.52012 18.2016C9.52548 18.2175 9.52034 18.2351 9.50723 18.2456L9.26723 18.4224L9.35763 18.704C9.36322 18.7205 9.35726 18.7387 9.34301 18.7487C9.32876 18.7587 9.30963 18.7581 9.29603 18.7472L9.05603 18.5752L8.81603 18.7472C8.80224 18.7569 8.78386 18.7569 8.77007 18.7472C8.75627 18.7376 8.75002 18.7203 8.75443 18.704L8.85283 18.424L8.61283 18.2472C8.59973 18.2367 8.59458 18.2191 8.59994 18.2032C8.60531 18.1873 8.62004 18.1764 8.63683 18.176H8.93283L9.02803 17.8944C9.03363 17.8544 9.08163 17.8544 9.09283 17.8928ZM13.6296 17.8928L13.7248 18.1744H14.02C14.0368 18.1748 14.0516 18.1857 14.0569 18.2016C14.0623 18.2175 14.0571 18.2351 14.044 18.2456L13.804 18.4224L13.8944 18.704C13.9 18.7205 13.8941 18.7387 13.8798 18.7487C13.8656 18.7587 13.8464 18.7581 13.8328 18.7472L13.5928 18.5752L13.3528 18.7472C13.339 18.7569 13.3207 18.7569 13.3069 18.7472C13.2931 18.7376 13.2868 18.7203 13.2912 18.704L13.3816 18.4224L13.1416 18.2456C13.1285 18.2351 13.1234 18.2175 13.1287 18.2016C13.1341 18.1857 13.1488 18.1748 13.1656 18.1744H13.4696L13.5648 17.8928C13.5656 17.8544 13.6184 17.8544 13.6296 17.8928ZM10.2272 17.1432L10.3224 17.4248H10.6176C10.6344 17.4252 10.6492 17.4361 10.6545 17.452C10.6599 17.4679 10.6547 17.4855 10.6416 17.496L10.4016 17.6728L10.492 17.9544C10.4976 17.9709 10.4917 17.9891 10.4774 17.9991C10.4632 18.0091 10.444 18.0085 10.4304 17.9976L10.1904 17.8256L9.95043 17.9976C9.93664 18.0073 9.91826 18.0073 9.90447 17.9976C9.89067 17.988 9.88442 17.9707 9.88883 17.9544L9.97923 17.6728L9.73923 17.496C9.72613 17.4855 9.72098 17.4679 9.72634 17.452C9.73171 17.4361 9.74644 17.4252 9.76323 17.4248H10.0672L10.1624 17.1432C10.168 17.1104 10.216 17.1104 10.2272 17.1432ZM14.764 17.1432L14.8592 17.4248H15.1544C15.1712 17.4252 15.186 17.4361 15.1913 17.452C15.1967 17.4679 15.1915 17.4855 15.1784 17.496L14.9384 17.6728L15.0288 17.9544C15.0344 17.9709 15.0285 17.9891 15.0142 17.9991C15 18.0091 14.9808 18.0085 14.9672 17.9976L14.7272 17.8256L14.4872 17.9976C14.4734 18.0073 14.4551 18.0073 14.4413 17.9976C14.4275 17.988 14.4212 17.9707 14.4256 17.9544L14.516 17.6728L14.276 17.496C14.2629 17.4855 14.2578 17.4679 14.2631 17.452C14.2685 17.4361 14.2832 17.4252 14.3 17.4248H14.5952L14.6904 17.1432C14.7 17.1104 14.7528 17.1104 14.764 17.1432ZM12.4952 17.1432L12.5904 17.4248H12.8856C12.9024 17.4252 12.9172 17.4361 12.9225 17.452C12.9279 17.4679 12.9227 17.4855 12.9096 17.496L12.6696 17.6728L12.76 17.9544C12.7656 17.9709 12.7597 17.9891 12.7454 17.9991C12.7312 18.0091 12.712 18.0085 12.6984 17.9976L12.4584 17.8256L12.2184 17.9976C12.2046 18.0073 12.1863 18.0073 12.1725 17.9976C12.1587 17.988 12.1524 17.9707 12.1568 17.9544L12.2472 17.6728L12.0072 17.496C11.9941 17.4855 11.989 17.4679 11.9943 17.452C11.9997 17.4361 12.0144 17.4252 12.0312 17.4248H12.3352L12.4304 17.1432C12.4312 17.1104 12.484 17.1104 12.4952 17.1432ZM17.0272 17.1432L17.1224 17.4248H17.4176C17.4344 17.4252 17.4492 17.4361 17.4545 17.452C17.4599 17.4679 17.4547 17.4855 17.4416 17.496L17.2016 17.6728L17.292 17.9544C17.2976 17.9709 17.2917 17.9891 17.2774 17.9991C17.2632 18.0091 17.244 18.0085 17.2304 17.9976L16.9904 17.8256L16.7504 17.9976C16.7366 18.0073 16.7183 18.0073 16.7045 17.9976C16.6907 17.988 16.6844 17.9707 16.6888 17.9544L16.7792 17.6728L16.5392 17.496C16.5261 17.4855 16.521 17.4679 16.5263 17.452C16.5317 17.4361 16.5464 17.4252 16.5632 17.4248H16.8584L16.9536 17.1432C16.968 17.1104 17.0208 17.1104 17.0272 17.1432ZM13.6296 16.428L13.7248 16.7096H14.02C14.0368 16.71 14.0516 16.7209 14.0569 16.7368C14.0623 16.7527 14.0571 16.7703 14.044 16.7808L13.804 16.9576L13.8944 17.2392C13.9 17.2557 13.8941 17.2739 13.8798 17.2839C13.8656 17.2939 13.8464 17.2933 13.8328 17.2824L13.5928 17.1104L13.3528 17.2824C13.339 17.2921 13.3207 17.2921 13.3069 17.2824C13.2931 17.2728 13.2868 17.2555 13.2912 17.2392L13.3816 16.9576L13.1416 16.7808C13.1285 16.7703 13.1234 16.7527 13.1287 16.7368C13.1341 16.7209 13.1488 16.71 13.1656 16.7096H13.4696L13.5648 16.428C13.5656 16.3952 13.6184 16.3952 13.6296 16.428ZM9.09283 16.428L9.18803 16.7096H9.48323C9.50002 16.71 9.51476 16.7209 9.52012 16.7368C9.52548 16.7527 9.52034 16.7703 9.50723 16.7808L9.26723 16.9576L9.35763 17.2392C9.36322 17.2557 9.35726 17.2739 9.34301 17.2839C9.32876 17.2939 9.30963 17.2933 9.29603 17.2824L9.05603 17.1104L8.81603 17.2824C8.80224 17.2921 8.78386 17.2921 8.77007 17.2824C8.75627 17.2728 8.75002 17.2555 8.75443 17.2392L8.84483 16.9576L8.60483 16.7808C8.59173 16.7703 8.58658 16.7527 8.59194 16.7368C8.59731 16.7209 8.61204 16.71 8.62883 16.7096H8.93283L9.02803 16.428C9.03363 16.3952 9.08163 16.3952 9.09283 16.428ZM11.364 16.428L11.4592 16.7096H11.756C11.7728 16.71 11.7876 16.7209 11.7929 16.7368C11.7983 16.7527 11.7931 16.7703 11.78 16.7808L11.54 16.9576L11.6304 17.2392C11.636 17.2557 11.6301 17.2739 11.6158 17.2839C11.6016 17.2939 11.5824 17.2933 11.5688 17.2824L11.3288 17.1104L11.0888 17.2824C11.075 17.2921 11.0567 17.2921 11.0429 17.2824C11.0291 17.2728 11.0228 17.2555 11.0272 17.2392L11.1176 16.9576L10.8776 16.7808C10.8645 16.7703 10.8594 16.7527 10.8647 16.7368C10.8701 16.7209 10.8848 16.71 10.9016 16.7096H11.196L11.2912 16.428C11.2968 16.3952 11.3496 16.3952 11.364 16.428ZM15.8928 16.428L15.988 16.7096H16.2832C16.3 16.71 16.3148 16.7209 16.3201 16.7368C16.3255 16.7527 16.3203 16.7703 16.3072 16.7808L16.0672 16.9576L16.1576 17.2392C16.1632 17.2557 16.1573 17.2739 16.143 17.2839C16.1288 17.2939 16.1096 17.2933 16.096 17.2824L15.856 17.1104L15.616 17.2824C15.6022 17.2921 15.5839 17.2921 15.5701 17.2824C15.5563 17.2728 15.55 17.2555 15.5544 17.2392L15.6448 16.9576L15.4048 16.7808C15.3917 16.7703 15.3866 16.7527 15.3919 16.7368C15.3973 16.7209 15.412 16.71 15.4288 16.7096H15.724L15.8192 16.428C15.8336 16.3952 15.8864 16.3952 15.8928 16.428ZM18.1616 16.428L18.2568 16.7096H18.552C18.5688 16.71 18.5836 16.7209 18.5889 16.7368C18.5943 16.7527 18.5891 16.7703 18.576 16.7808L18.336 16.9576L18.4264 17.2392C18.432 17.2557 18.4261 17.2739 18.4118 17.2839C18.3976 17.2939 18.3784 17.2933 18.3648 17.2824L18.1248 17.1104L17.8848 17.2824C17.871 17.2921 17.8527 17.2921 17.8389 17.2824C17.8251 17.2728 17.8188 17.2555 17.8232 17.2392L17.9136 16.9576L17.6736 16.7808C17.6605 16.7703 17.6554 16.7527 17.6607 16.7368C17.6661 16.7209 17.6808 16.71 17.6976 16.7096H17.9928L18.088 16.428C18.1024 16.3952 18.1552 16.3952 18.1616 16.428ZM14.764 15.684L14.8592 15.9656H15.1544C15.1712 15.966 15.186 15.9769 15.1913 15.9928C15.1967 16.0087 15.1915 16.0263 15.1784 16.0368L14.9384 16.2136L15.0288 16.4952C15.0344 16.5117 15.0285 16.5299 15.0142 16.5399C15 16.5499 14.9808 16.5493 14.9672 16.5384L14.7272 16.3664L14.4872 16.5384C14.4734 16.5481 14.4551 16.5481 14.4413 16.5384C14.4275 16.5288 14.4212 16.5115 14.4256 16.4952L14.516 16.2136L14.276 16.0368C14.2629 16.0263 14.2578 16.0087 14.2631 15.9928C14.2685 15.9769 14.2832 15.966 14.3 15.9656H14.5952L14.6904 15.684C14.7 15.6456 14.7528 15.6456 14.764 15.684ZM12.4952 15.684L12.5904 15.9656H12.8856C12.9024 15.966 12.9172 15.9769 12.9225 15.9928C12.9279 16.0087 12.9227 16.0263 12.9096 16.0368L12.6696 16.2136L12.76 16.4952C12.7656 16.5117 12.7597 16.5299 12.7454 16.5399C12.7312 16.5499 12.712 16.5493 12.6984 16.5384L12.4584 16.3664L12.2184 16.5384C12.2046 16.5481 12.1863 16.5481 12.1725 16.5384C12.1587 16.5288 12.1524 16.5115 12.1568 16.4952L12.2552 16.2152L12.0152 16.0384C12.0021 16.0279 11.997 16.0103 12.0023 15.9944C12.0077 15.9785 12.0224 15.9676 12.0392 15.9672H12.3352L12.4304 15.6856C12.4312 15.6456 12.484 15.6456 12.4952 15.684ZM10.2272 15.684L10.3224 15.9656H10.6176C10.6344 15.966 10.6492 15.9769 10.6545 15.9928C10.6599 16.0087 10.6547 16.0263 10.6416 16.0368L10.4016 16.2136L10.492 16.4952C10.4976 16.5117 10.4917 16.5299 10.4774 16.5399C10.4632 16.5499 10.444 16.5493 10.4304 16.5384L10.1904 16.3664L9.95043 16.5384C9.93664 16.5481 9.91826 16.5481 9.90447 16.5384C9.89067 16.5288 9.88442 16.5115 9.88883 16.4952L9.98723 16.2152L9.74723 16.0384C9.73413 16.0279 9.72898 16.0103 9.73434 15.9944C9.73971 15.9785 9.75444 15.9676 9.77123 15.9672H10.0672L10.1624 15.6856C10.168 15.6456 10.216 15.6456 10.2272 15.684ZM17.0088 15.6521C17.0202 15.6587 17.0272 15.6709 17.0272 15.684L17.1224 15.9656H17.4176C17.4344 15.966 17.4492 15.9769 17.4545 15.9928C17.4599 16.0087 17.4547 16.0263 17.4416 16.0368L17.2016 16.2136L17.292 16.4952C17.2976 16.5117 17.2917 16.5299 17.2774 16.5399C17.2632 16.5499 17.244 16.5493 17.2304 16.5384L16.9904 16.3664L16.7504 16.5384C16.7366 16.5481 16.7183 16.5481 16.7045 16.5384C16.6907 16.5288 16.6844 16.5115 16.6888 16.4952L16.7792 16.2136L16.5392 16.0368C16.5261 16.0263 16.521 16.0087 16.5263 15.9928C16.5317 15.9769 16.5464 15.966 16.5632 15.9656H16.8584L16.9536 15.684C16.9536 15.6709 16.9606 15.6587 16.972 15.6521C16.9834 15.6456 16.9974 15.6456 17.0088 15.6521ZM9.09283 14.9688L9.18803 15.2504H9.48323C9.50002 15.2508 9.51476 15.2617 9.52012 15.2776C9.52548 15.2935 9.52034 15.3111 9.50723 15.3216L9.26723 15.4984L9.35763 15.78C9.36322 15.7965 9.35726 15.8147 9.34301 15.8247C9.32876 15.8347 9.30963 15.8341 9.29603 15.8232L9.05603 15.6512L8.81603 15.8232C8.80224 15.8329 8.78386 15.8329 8.77007 15.8232C8.75627 15.8136 8.75002 15.7963 8.75443 15.78L8.85283 15.5L8.61283 15.3232C8.59973 15.3127 8.59458 15.2951 8.59994 15.2792C8.60531 15.2633 8.62004 15.2524 8.63683 15.252H8.93283L9.02803 14.9704C9.03363 14.9304 9.08163 14.9304 9.09283 14.9688ZM11.3608 14.9688L11.456 15.2504H11.7512C11.768 15.2508 11.7828 15.2617 11.7881 15.2776C11.7935 15.2935 11.7883 15.3111 11.7752 15.3216L11.5352 15.4984L11.6256 15.78C11.6312 15.7965 11.6253 15.8147 11.611 15.8247C11.5968 15.8347 11.5776 15.8341 11.564 15.8232L11.324 15.6512L11.084 15.8232C11.0702 15.8329 11.0519 15.8329 11.0381 15.8232C11.0243 15.8136 11.018 15.7963 11.0224 15.78L11.1208 15.5L10.8808 15.3232C10.8677 15.3127 10.8626 15.2951 10.8679 15.2792C10.8733 15.2633 10.888 15.2524 10.9048 15.252H11.2008L11.296 14.9704C11.2968 14.9304 11.3496 14.9304 11.3608 14.9688ZM13.6296 14.9688L13.7248 15.2504H14.02C14.0368 15.2508 14.0516 15.2617 14.0569 15.2776C14.0623 15.2935 14.0571 15.3111 14.044 15.3216L13.804 15.4984L13.8944 15.78C13.9 15.7965 13.8941 15.8147 13.8798 15.8247C13.8656 15.8347 13.8464 15.8341 13.8328 15.8232L13.5928 15.6512L13.3528 15.8232C13.339 15.8329 13.3207 15.8329 13.3069 15.8232C13.2931 15.8136 13.2868 15.7963 13.2912 15.78L13.3816 15.4984L13.1416 15.3216C13.1285 15.3111 13.1234 15.2935 13.1287 15.2776C13.1341 15.2617 13.1488 15.2508 13.1656 15.2504H13.4696L13.5648 14.9688C13.5656 14.9304 13.6184 14.9304 13.6296 14.9688ZM15.8744 14.9369C15.8858 14.9435 15.8928 14.9557 15.8928 14.9688L15.988 15.2504H16.2832C16.3 15.2508 16.3148 15.2617 16.3201 15.2776C16.3255 15.2935 16.3203 15.3111 16.3072 15.3216L16.0672 15.4984L16.1576 15.78C16.1632 15.7965 16.1573 15.8147 16.143 15.8247C16.1288 15.8347 16.1096 15.8341 16.096 15.8232L15.856 15.6512L15.616 15.8232C15.6022 15.8329 15.5839 15.8329 15.5701 15.8232C15.5563 15.8136 15.55 15.7963 15.5544 15.78L15.6448 15.4984L15.4048 15.3216C15.3917 15.3111 15.3866 15.2935 15.3919 15.2776C15.3973 15.2617 15.412 15.2508 15.4288 15.2504H15.724L15.8192 14.9688C15.8192 14.9557 15.8262 14.9435 15.8376 14.9369C15.849 14.9304 15.863 14.9304 15.8744 14.9369ZM18.1282 14.9433C18.1439 14.9429 18.1579 14.9535 18.1616 14.9688L18.2568 15.2504H18.552C18.5688 15.2508 18.5836 15.2617 18.5889 15.2776C18.5943 15.2935 18.5891 15.3111 18.576 15.3216L18.336 15.4984L18.4264 15.78C18.432 15.7965 18.4261 15.8147 18.4118 15.8247C18.3976 15.8347 18.3784 15.8341 18.3648 15.8232L18.1248 15.6512L17.8848 15.8232C17.871 15.8329 17.8527 15.8329 17.8389 15.8232C17.8251 15.8136 17.8188 15.7963 17.8232 15.78L17.9216 15.5L17.6816 15.3232C17.6685 15.3127 17.6634 15.2951 17.6687 15.2792C17.6741 15.2633 17.6888 15.2524 17.7056 15.252H18.0008L18.096 14.9704C18.0991 14.9549 18.1124 14.9436 18.1282 14.9433Z" fill="#F5F5F5"/>
<path fill-rule="evenodd" clip-rule="evenodd" d="M30 15H10C9.44772 15 9 15.4477 9 16V28C9 28.5523 9.44772 29 10 29H30C30.5523 29 31 28.5523 31 28V16C31 15.4477 30.5523 15 30 15ZM10 14C8.89543 14 8 14.8954 8 16V28C8 29.1046 8.89543 30 10 30H30C31.1046 30 32 29.1046 32 28V16C32 14.8954 31.1046 14 30 14H10Z" fill="black" fill-opacity="0.04"/>
</g>
<path d="M22 1C22 0.447715 22.3198 0 22.7143 0H31.2857C31.6802 0 32 0.447715 32 1V7C32 7.55228 31.6802 8 31.2857 8H22.7143C22.3198 8 22 7.55228 22 7V1Z" fill="#0E0E0E"/>
<path d="M26.904 6.26H24.06V5.612L25.398 4.418C25.61 4.226 25.772 4.044 25.884 3.872C26 3.696 26.058 3.512 26.058 3.32V3.242C26.058 3.038 25.996 2.878 25.872 2.762C25.752 2.646 25.588 2.588 25.38 2.588C25.264 2.588 25.162 2.606 25.074 2.642C24.99 2.674 24.916 2.72 24.852 2.78C24.788 2.84 24.734 2.91 24.69 2.99C24.65 3.07 24.618 3.156 24.594 3.248L24 3.02C24.044 2.888 24.104 2.762 24.18 2.642C24.256 2.518 24.352 2.408 24.468 2.312C24.584 2.216 24.72 2.14 24.876 2.084C25.036 2.028 25.222 2 25.434 2C25.646 2 25.836 2.032 26.004 2.096C26.172 2.156 26.312 2.242 26.424 2.354C26.54 2.462 26.628 2.592 26.688 2.744C26.748 2.896 26.778 3.062 26.778 3.242C26.778 3.41 26.752 3.566 26.7 3.71C26.648 3.854 26.576 3.99 26.484 4.118C26.392 4.246 26.284 4.368 26.16 4.484C26.04 4.6 25.912 4.718 25.776 4.838L24.792 5.684H26.904V6.26Z" fill="white"/>
<path d="M29.0557 6.332C28.7957 6.332 28.5697 6.284 28.3777 6.188C28.1857 6.088 28.0277 5.946 27.9037 5.762C27.7797 5.578 27.6877 5.352 27.6277 5.084C27.5677 4.816 27.5377 4.51 27.5377 4.166C27.5377 3.826 27.5677 3.522 27.6277 3.254C27.6877 2.982 27.7797 2.754 27.9037 2.57C28.0277 2.386 28.1857 2.246 28.3777 2.15C28.5697 2.05 28.7957 2 29.0557 2C29.5757 2 29.9577 2.19 30.2017 2.57C30.4497 2.95 30.5737 3.482 30.5737 4.166C30.5737 4.85 30.4497 5.382 30.2017 5.762C29.9577 6.142 29.5757 6.332 29.0557 6.332ZM29.0557 5.756C29.1997 5.756 29.3217 5.728 29.4217 5.672C29.5257 5.612 29.6097 5.528 29.6737 5.42C29.7377 5.312 29.7837 5.184 29.8117 5.036C29.8397 4.884 29.8537 4.716 29.8537 4.532V3.8C29.8537 3.616 29.8397 3.45 29.8117 3.302C29.7837 3.15 29.7377 3.02 29.6737 2.912C29.6097 2.804 29.5257 2.722 29.4217 2.666C29.3217 2.606 29.1997 2.576 29.0557 2.576C28.9117 2.576 28.7877 2.606 28.6837 2.666C28.5837 2.722 28.5017 2.804 28.4377 2.912C28.3737 3.02 28.3277 3.15 28.2997 3.302C28.2717 3.45 28.2577 3.616 28.2577 3.8V4.532C28.2577 4.716 28.2717 4.884 28.2997 5.036C28.3277 5.184 28.3737 5.312 28.4377 5.42C28.5017 5.528 28.5837 5.612 28.6837 5.672C28.7877 5.728 28.9117 5.756 29.0557 5.756Z" fill="white"/>
</svg>
