<svg width="32" height="32" viewBox="0 0 32 32" fill="none" xmlns="http://www.w3.org/2000/svg">
<path d="M22 4H2C0.89543 4 0 4.89543 0 6V18C0 19.1046 0.89543 20 2 20H22C23.1046 20 24 19.1046 24 18V6C24 4.89543 23.1046 4 22 4Z" fill="#0D47A1"/>
<path d="M12.1683 16.6927L12.3342 17.198L12.8586 17.2022C12.9265 17.2027 12.9547 17.2907 12.9 17.3317L12.4782 17.6482L12.6363 18.1561C12.6568 18.2218 12.5831 18.2763 12.5279 18.2361L12.1013 17.9263L11.6746 18.2361C11.6194 18.2762 11.5457 18.2218 11.5662 18.1561L11.7243 17.6482L11.3025 17.3317C11.2478 17.2907 11.276 17.2027 11.3439 17.2022L11.8683 17.198L12.0342 16.6927C12.0556 16.6272 12.1468 16.6272 12.1683 16.6927ZM9.58421 15.8453L9.75014 16.3507L10.2745 16.3548C10.3425 16.3554 10.3706 16.4434 10.316 16.4844L9.8941 16.8008L10.0523 17.3088C10.0727 17.3745 9.99905 17.4289 9.94378 17.3888L9.51717 17.079L9.09057 17.3888C9.03535 17.4289 8.96161 17.3745 8.9821 17.3088L9.14025 16.8008L8.71838 16.4844C8.66377 16.4434 8.69189 16.3554 8.75981 16.3548L9.28421 16.3508L9.45014 15.8454C9.47161 15.7798 9.56278 15.7798 9.58421 15.8453ZM14.7907 15.8453C14.8121 15.7798 14.9032 15.7798 14.9247 15.8454L15.0907 16.3508L15.6151 16.3548C15.683 16.3554 15.7111 16.4434 15.6565 16.4844L15.2346 16.8008L15.3928 17.3088C15.4133 17.3745 15.3395 17.4289 15.2843 17.3888L14.8577 17.079L14.4311 17.3888C14.3758 17.4289 14.3021 17.3745 14.3226 17.3088L14.4808 16.8008L14.0589 16.4844C14.0043 16.4434 14.0324 16.3554 14.1003 16.3548L14.6247 16.3507L14.7907 15.8453ZM16.8795 13.8595L17.0454 14.3648L17.5698 14.369C17.6378 14.3695 17.6659 14.4575 17.6113 14.4985L17.1894 14.815L17.3476 15.3229C17.368 15.3887 17.2943 15.4431 17.2391 15.4029L16.8125 15.0931L16.3859 15.4029C16.3306 15.443 16.2569 15.3887 16.2774 15.3229L16.4355 14.815L16.0137 14.4985C15.9591 14.4575 15.9872 14.3695 16.0551 14.369L16.5795 14.3648L16.7454 13.8595C16.7669 13.7941 16.858 13.7941 16.8795 13.8595ZM7.60933 13.8281L7.62947 13.8595L7.79541 14.3648L8.3198 14.369C8.37414 14.3694 8.403 14.4258 8.38442 14.4694L8.36124 14.4985L7.93936 14.815L8.09752 15.3229C8.11391 15.3755 8.06999 15.4208 8.0235 15.4163L7.98905 15.4029L7.56244 15.0931L7.13583 15.4029C7.09162 15.4351 7.03562 15.4067 7.02547 15.3603L7.02736 15.3229L7.18552 14.815L6.76364 14.4985C6.71996 14.4657 6.72922 14.4028 6.76945 14.3787L6.80508 14.369L7.32947 14.3648L7.49541 13.8595C7.51258 13.8072 7.57431 13.7967 7.60933 13.8281ZM17.5088 11.2673L17.6747 11.7727L18.1991 11.7768C18.267 11.7774 18.2952 11.8654 18.2406 11.9064L17.8187 12.2228L17.9768 12.7308C17.9973 12.7965 17.9236 12.8509 17.8684 12.8108L17.4418 12.501L17.0152 12.8108C16.9599 12.8509 16.8862 12.7965 16.9067 12.7308L17.0648 12.2228L16.643 11.9064C16.5884 11.8654 16.6165 11.7774 16.6844 11.7768L17.2088 11.7727L17.3747 11.2673C17.3962 11.2019 17.4873 11.2019 17.5088 11.2673ZM6.82772 11.2673L6.99366 11.7727L7.51805 11.7768C7.58597 11.7774 7.6141 11.8654 7.55949 11.9064L7.13761 12.2228L7.29577 12.7308C7.31625 12.7965 7.24257 12.8509 7.1873 12.8108L6.76069 12.501L6.33408 12.8108C6.27886 12.8509 6.20513 12.7965 6.22561 12.7308L6.38377 12.2228L5.96189 11.9064C5.90728 11.8654 5.93541 11.7774 6.00333 11.7768L6.52772 11.7727L6.69366 11.2673C6.71513 11.2019 6.8063 11.2019 6.82772 11.2673ZM7.62947 8.43418L7.79541 8.93956L8.3198 8.94371C8.38772 8.94423 8.41585 9.03223 8.36124 9.07323L7.93936 9.38971L8.09752 9.89761C8.118 9.96333 8.04432 10.0178 7.98905 9.97766L7.56244 9.66785L7.13583 9.97766C7.08061 10.0178 7.00688 9.96337 7.02736 9.89761L7.18552 9.38971L6.76364 9.07323C6.70903 9.03223 6.73716 8.94423 6.80508 8.94371L7.32947 8.93956L7.49541 8.43418C7.51688 8.36875 7.60796 8.36875 7.62947 8.43418ZM16.8594 8.40278L16.8795 8.43418L17.0454 8.93956L17.5698 8.94371C17.6242 8.94413 17.653 9.00053 17.6344 9.04407L17.6113 9.07323L17.1894 9.38971L17.3476 9.89761C17.3639 9.95022 17.32 9.99555 17.2735 9.99104L17.2391 9.97766L16.8125 9.66785L16.3859 9.97766C16.3417 10.0098 16.2856 9.98133 16.2755 9.93502L16.2774 9.89761L16.4355 9.38971L16.0137 9.07323C15.97 9.04043 15.9792 8.97755 16.0195 8.95344L16.0551 8.94371L16.5795 8.93956L16.7454 8.43418C16.7626 8.38184 16.8244 8.37137 16.8594 8.40278ZM14.9248 6.44837L15.0907 6.95375L15.6151 6.9579C15.683 6.95842 15.7111 7.04642 15.6565 7.08742L15.2347 7.4039L15.3928 7.9118C15.4133 7.97752 15.3396 8.03199 15.2843 7.99185L14.8577 7.68204L14.4311 7.99185C14.3759 8.03194 14.3021 7.97756 14.3226 7.9118L14.4808 7.4039L14.0589 7.08742C14.0043 7.04642 14.0324 6.95842 14.1003 6.9579L14.6247 6.95375L14.7907 6.44837C14.8121 6.38299 14.9032 6.38299 14.9248 6.44837ZM9.56406 6.41699L9.58421 6.44837L9.75014 6.95375L10.2745 6.9579C10.3289 6.95832 10.3577 7.01472 10.3392 7.05826L10.316 7.08742L9.8941 7.4039L10.0523 7.9118C10.0686 7.96441 10.0247 8.00974 9.97823 8.00523L9.94378 7.99185L9.51717 7.68204L9.09057 7.99185C9.04635 8.02396 8.99035 7.99552 8.98021 7.94921L8.9821 7.9118L9.14025 7.4039L8.71838 7.08742C8.67469 7.05462 8.68395 6.99174 8.72418 6.96763L8.75981 6.9579L9.28421 6.95375L9.45014 6.44837C9.46732 6.39607 9.52904 6.38561 9.56406 6.41699ZM12.1683 5.84204L12.3342 6.34742L12.8586 6.35156C12.9265 6.35209 12.9547 6.44009 12.9 6.48109L12.4782 6.79756L12.6363 7.30547C12.6568 7.37118 12.5831 7.42566 12.5279 7.38552L12.1013 7.07571L11.6746 7.38552C11.6194 7.42561 11.5457 7.37123 11.5662 7.30547L11.7243 6.79756L11.3025 6.48109C11.2478 6.44009 11.276 6.35209 11.3439 6.35156L11.8683 6.34742L12.0342 5.84204C12.0556 5.77661 12.1468 5.77661 12.1683 5.84204Z" fill="#FFEB3B"/>
<path fill-rule="evenodd" clip-rule="evenodd" d="M22 5H2C1.44772 5 1 5.44772 1 6V18C1 18.5523 1.44772 19 2 19H22C22.5523 19 23 18.5523 23 18V6C23 5.44771 22.5523 5 22 5ZM2 4C0.895431 4 0 4.89543 0 6V18C0 19.1046 0.89543 20 2 20H22C23.1046 20 24 19.1046 24 18V6C24 4.89543 23.1046 4 22 4H2Z" fill="black" fill-opacity="0.04"/>
<path d="M30 12H10C8.89543 12 8 12.8954 8 14V26C8 27.1046 8.89543 28 10 28H30C31.1046 28 32 27.1046 32 26V14C32 12.8954 31.1046 12 30 12Z" fill="#F44336"/>
<path d="M32 17.8982H18.7586V12.0132H14.6207V17.8982H8V22.1019H14.6207V27.9869H18.7586V22.1019H32V17.8982Z" fill="white"/>
<path d="M32 18.7389H17.931V12.0132H15.4483V18.7389H8V21.2611H15.4483V27.9869H17.931V21.2611H32V18.7389Z" fill="#0D47A1"/>
<path fill-rule="evenodd" clip-rule="evenodd" d="M30 13H10C9.44772 13 9 13.4477 9 14V26C9 26.5523 9.44772 27 10 27H30C30.5523 27 31 26.5523 31 26V14C31 13.4477 30.5523 13 30 13ZM10 12C8.89543 12 8 12.8954 8 14V26C8 27.1046 8.89543 28 10 28H30C31.1046 28 32 27.1046 32 26V14C32 12.8954 31.1046 12 30 12H10Z" fill="black" fill-opacity="0.04"/>
</svg>
