<svg width="32" height="32" fill="none" xmlns="http://www.w3.org/2000/svg"><path fill-rule="evenodd" clip-rule="evenodd" d="M17 8h-2v8h2V8zm-2-2a2 2 0 00-2 2v8a2 2 0 002 2h2a2 2 0 002-2V8a2 2 0 00-2-2h-2zm-4 5H6a1 1 0 100 2h5v-2zm10 2h5a1 1 0 100-2h-5v2zm-10 2H6l3.521 9.683A2 2 0 0011.401 26h9.198a2 2 0 001.88-1.317L26 15h-5v1a4 4 0 01-4 4v3a1 1 0 11-2 0v-3a4 4 0 01-4-4v-1zm10 4a1 1 0 00-1 1v2a1 1 0 102 0v-2a1 1 0 00-1-1zm-11 1a1 1 0 112 0v2a1 1 0 11-2 0v-2z" fill="#D2D3DA"/><path d="M28 2H18a1 1 0 00-1 1v6a1 1 0 001 1h10a1 1 0 001-1V3a1 1 0 00-1-1z" fill="#0D47A1"/><path d="M17.207 5.993h.36l1.916-1.275v1.275h1.034V4.718l1.917 1.275h.36a.209.209 0 00.206-.21v-.166l-1.644-1.095H23v-1.05h-1.644L23 2.376V2.21a.209.209 0 00-.207-.21h-.36l-1.916 1.276V2h-1.034v1.276l-1.854-1.234a.904.904 0 00-.509.415l1.524 1.014H17v1.051h1.644L17 5.617v.166c0 .116.093.21.207.21zM20.063 7.14l.156.523.5-.202c.043-.018.082.032.056.07l-.306.45.468.272c.04.023.026.085-.02.088l-.537.038.083.54c.007.047-.05.075-.08.04l-.365-.403-.364.403c-.031.034-.087.007-.08-.04l.083-.54-.538-.038c-.045-.003-.06-.065-.02-.088l.468-.271-.305-.45c-.026-.04.013-.089.055-.071l.5.202.157-.524a.046.046 0 01.089 0zm6.155.761l.076.256.244-.099c.021-.008.04.016.027.035l-.149.22.229.132c.02.012.012.042-.01.043l-.262.02.04.263c.004.023-.024.036-.039.02l-.178-.198-.178.197c-.015.017-.043.004-.04-.019l.041-.264-.262-.019c-.023-.001-.03-.031-.01-.043l.229-.132-.15-.22c-.012-.019.007-.043.027-.035l.245.1.076-.257a.023.023 0 01.044 0zm.59-2.062a.026.026 0 01.05 0l.06.187.194.001c.025 0 .036.033.016.048l-.156.117.058.187c.008.024-.02.045-.04.03l-.157-.115-.158.115c-.02.015-.047-.006-.04-.03l.059-.187-.156-.117c-.02-.015-.01-.048.015-.048l.194-.001.06-.187zm-2.291-.46l.076.256.244-.099c.021-.008.04.016.027.035l-.149.22.229.132c.02.012.012.042-.01.043l-.262.019.04.264c.004.023-.024.036-.039.02l-.178-.198-.178.197c-.015.017-.043.004-.04-.019l.041-.264-.262-.019c-.023-.001-.03-.031-.01-.043l.229-.132-.15-.22c-.012-.02.007-.043.027-.035l.245.1.076-.257a.023.023 0 01.044 0zm3.31-.84l.076.255.245-.099c.02-.008.04.016.027.035l-.15.22.23.133c.019.01.012.041-.01.043l-.263.018.04.264c.004.023-.023.036-.039.02l-.178-.197-.178.196c-.015.017-.042.004-.039-.019l.04-.264-.262-.018c-.022-.002-.029-.032-.01-.043l.23-.133-.15-.22c-.013-.019.006-.043.027-.035l.244.1.077-.256a.023.023 0 01.043 0zm-1.61-1.123l.077.255.244-.099c.021-.008.04.016.027.035l-.149.22.229.133c.02.01.012.041-.01.043l-.262.018.04.264c.004.023-.024.036-.039.02l-.178-.197-.178.196c-.015.017-.043.004-.04-.019l.041-.264-.262-.018c-.023-.002-.03-.032-.01-.043l.229-.133-.15-.22c-.012-.019.007-.043.027-.035l.245.1.076-.256a.023.023 0 01.044 0z" fill="#fff"/><path d="M20.31 2v1.681H23v.631h-2.69v1.681h-.62V4.312H17v-.63h2.69V2h.62zm-.833 2.522l-2.231 1.471h-.04a.199.199 0 01-.151-.072l-.025-.036 2.067-1.363h.38zm1.582 0L22.997 5.8a.208.208 0 01-.118.173l-2.2-1.45h.38zm-3.717-2.326l1.934 1.275h-.38l-1.703-1.123a.908.908 0 01.15-.152zM22.793 2c.06 0 .114.028.15.07l.025.035-2.07 1.366h-.38L22.747 2h.045z" fill="#F44336"/><path fill-rule="evenodd" clip-rule="evenodd" d="M28 2.5H18a.5.5 0 00-.5.5v6a.5.5 0 00.5.5h10a.5.5 0 00.5-.5V3a.5.5 0 00-.5-.5zM18 2a1 1 0 00-1 1v6a1 1 0 001 1h10a1 1 0 001-1V3a1 1 0 00-1-1H18z" fill="#000" fill-opacity=".04"/></svg>