<svg width="33" height="32" fill="none" xmlns="http://www.w3.org/2000/svg"><path d="M2.613 11a9 9 0 1 1 18 0 9 9 0 0 1-18 0Z" fill="#0090FF"/><path fill-rule="evenodd" clip-rule="evenodd" d="m12.504 10.131-.223 1.187 2.114.297-.148.556-2.077-.296c-.149.482-.223 1.001-.408 1.446a18.48 18.48 0 0 1-.594 1.52c-.296.631-.816 1.077-1.52 1.188-.408.074-.853.037-1.187-.223-.111-.074-.223-.222-.223-.334 0-.148.074-.333.186-.408.074-.037.26 0 .37.037.112.112.223.26.297.408.223.297.52.334.816.112.334-.297.52-.705.63-1.113.223-.89.446-1.743.631-2.633v-.149l-1.965-.296.074-.557 2.04.297.26-1.15-2.115-.334.074-.593 2.189.296c.074-.222.111-.408.185-.593.186-.668.371-1.335.816-1.929.445-.593.965-.964 1.743-.927.334 0 .668.111.89.37.038.038.112.112.112.186 0 .149 0 .334-.111.445-.149.112-.334.075-.482-.074-.112-.111-.186-.222-.297-.333-.223-.297-.557-.334-.816-.075-.186.186-.371.445-.482.705-.26.779-.445 1.595-.705 2.41l2.04.298-.149.556-1.965-.297Z" fill="#fff"/><path d="M12.613 21a9 9 0 1 1 18 0 9 9 0 0 1-18 0Z" fill="#fff"/><path fill-rule="evenodd" clip-rule="evenodd" d="M21.233 12c-1.734.1-3.334.69-4.667 1.633h10.386A8.956 8.956 0 0 0 22.284 12H21.233Zm-6.427 3.266a8.985 8.985 0 0 0-1.068 1.633H29.78a8.978 8.978 0 0 0-1.068-1.633H14.806ZM12.65 20.18c.05-.56.15-1.106.299-1.633h17.317c.148.527.249 1.072.298 1.633H12.65Zm.004 1.633c.052.561.157 1.107.308 1.633h17.29a8.897 8.897 0 0 0 .309-1.633H12.654Zm2.039 4.899a8.99 8.99 0 0 1-1.083-1.633h15.994a8.987 8.987 0 0 1-1.082 1.633H14.693Zm6.534 3.256.027.001.027.001a8.86 8.86 0 0 0 5.455-1.625H16.479a8.859 8.859 0 0 0 4.748 1.623Z" fill="#F44336"/><path d="M21.422 12.005a8.991 8.991 0 0 0-8.77 8.178h8.77v-8.178Z" fill="#283991"/><path d="m14.413 17.085.137.421h.444l-.36.26.138.422-.36-.26-.358.26.137-.422-.359-.26h.444l.137-.421ZM14.413 18.572l.137.422h.444l-.36.26.138.421-.36-.26-.358.26.137-.421-.359-.26h.444l.137-.422ZM15.904 14.853l.137.421h.444l-.36.261.138.421-.36-.26-.358.26.137-.421-.36-.26h.445l.137-.422ZM15.904 16.341l.137.421h.444l-.36.26.138.422-.36-.26-.358.26.137-.422-.36-.26h.445l.137-.421ZM15.904 17.829l.137.421h.444l-.36.26.138.421-.36-.26-.358.26.137-.421-.36-.26h.445l.137-.421ZM13.281 18.931l-.137-.421.359-.26h-.444l-.01-.03a8.58 8.58 0 0 0-.133.456l.006-.005.36.26ZM14.054 16.7l.359-.26.359.26-.137-.421.359-.26h-.444l-.137-.422-.137.421h-.164l-.09.139.169.122-.137.421ZM15.904 14.208l.359.26-.137-.42.358-.261h-.256a8.944 8.944 0 0 0-.63.515l-.054.166.36-.26ZM17.035 13.725l.36-.26.358.26-.137-.422.36-.26h-.444l-.02-.057c-.15.077-.298.157-.444.242l.104.075-.137.422ZM17.395 14.11l.137.42h.443l-.359.261.137.421-.358-.26-.36.26.138-.421-.36-.26h.444l.137-.421ZM17.395 15.597l.137.421h.443l-.359.26.137.422-.358-.26-.36.26.138-.421-.36-.26h.444l.137-.422ZM17.395 17.085l.137.421h.443l-.359.26.137.422-.358-.26-.36.26.138-.422-.36-.26h.444l.137-.421ZM17.395 18.572l.137.422h.443l-.359.26.137.421-.358-.26-.36.26.138-.421-.36-.26h.444l.137-.422ZM18.885 13.366l.137.42h.444l-.359.261.137.421-.359-.26-.359.26.137-.42-.359-.261h.444l.137-.421ZM18.885 14.853l.137.421h.444l-.359.261.137.421-.359-.26-.359.26.137-.421-.359-.26h.444l.137-.422ZM18.885 16.341l.137.421h.444l-.359.26.137.422-.359-.26-.359.26.137-.422-.359-.26h.444l.137-.421ZM18.885 17.829l.137.421h.444l-.359.26.137.421-.359-.26-.359.26.137-.421-.359-.26h.444l.137-.421ZM20.376 12.622l.137.421h.444l-.359.26.137.422-.359-.26-.359.26.137-.422-.359-.26h.444l.137-.421ZM20.376 14.11l.137.42h.444l-.359.261.137.421-.359-.26-.359.26.137-.421-.359-.26h.444l.137-.421ZM20.376 15.597l.137.421h.444l-.359.26.137.422-.359-.26-.359.26.137-.421-.359-.26h.444l.137-.422ZM20.376 17.085l.137.421h.444l-.359.26.137.422-.359-.26-.359.26.137-.422-.359-.26h.444l.137-.421ZM20.376 18.572l.137.422h.444l-.359.26.137.421-.359-.26-.359.26.137-.421-.359-.26h.444l.137-.422Z" fill="#EFEFEF"/></svg>