<svg xmlns="http://www.w3.org/2000/svg" xmlns:xlink="http://www.w3.org/1999/xlink" width="32" height="33"><defs><rect id="a" width="24" height="16" x="0" y="0" rx="2"/></defs><g fill="none" fill-rule="evenodd" transform="translate(0 5)"><mask id="b" fill="#fff"><use xlink:href="#a"/></mask><use fill="#0D47A1" xlink:href="#a"/><path fill="#FFF" fill-rule="nonzero" d="M23.975 1.537A1.807 1.807 0 0 0 22.203.013h-.468l-7.666 5.102V.013H9.931v5.102L2.265.013h-.468C.906.013.167.673.025 1.537l6.552 4.361H0v4.204h6.577l-6.552 4.36a1.807 1.807 0 0 0 1.772 1.525h.468l7.666-5.102v5.102h4.138v-5.102l7.666 5.102h.468c.891 0 1.63-.66 1.772-1.524l-6.552-4.361H24V5.898h-6.577l6.552-4.36z" mask="url(#b)"/><path fill="#F44336" fill-rule="nonzero" d="M13.241.013V6.74H24v2.52H13.241v6.726H10.76V9.26H0V6.74h10.759V.013h2.482zM9.908 10.102l-8.746 5.767a1.77 1.77 0 0 1-.606-.389l-.124-.132 7.956-5.246h1.52zm6.329 0 7.527 4.963c-.113.2-.262.378-.439.521l-.137.102-8.471-5.586h1.52zM.725.373l8.378 5.525h-1.52L.19 1.023C.316.766.5.543.725.373zM22.824.125c.286.107.539.287.735.517l-7.97 5.256h-1.52L22.824.125z" mask="url(#b)"/><rect width="23" height="15" x=".5" y=".5" stroke="#000" stroke-opacity=".04" mask="url(#b)" rx="1"/><rect width="23" height="15" x=".5" y=".5" stroke="#000" stroke-opacity=".04" rx="2"/><g fill-rule="nonzero" transform="translate(8 8)"><rect width="24" height="16" fill="#E92434" rx="2"/><g fill="#FFF"><path d="m15.013 8.542-1.045.745.385-1.224-1.031-.764 1.283-.012.408-1.216.407 1.216 1.284.012-1.032.764.386 1.224-1.045-.745z"/><path d="M11 4c1.282 0 2.424.603 3.156 1.542a3.475 3.475 0 0 0-2.046-.653c-1.839 0-3.332 1.393-3.332 3.111 0 1.718 1.492 3.111 3.333 3.111.77 0 1.48-.244 2.045-.654A3.999 3.999 0 0 1 7 8c0-2.21 1.79-4 4-4z"/></g><rect width="23" height="15" x=".5" y=".5" stroke="#000" stroke-opacity=".04" rx="1"/></g><rect width="23" height="15" x="8.5" y="8.5" stroke="#000" stroke-opacity=".04" rx="2"/></g></svg>