<svg xmlns="http://www.w3.org/2000/svg" xmlns:xlink="http://www.w3.org/1999/xlink" width="32" height="33" viewBox="0 0 32 33">
    <defs>
        <rect id="gbpsgdprefix__a" width="24" height="16" x="0" y="0" rx="2"/>
        <rect id="gbpsgdprefix__c" width="24" height="16" x="0" y="0" rx="2"/>
    </defs>
    <g fill="none" fill-rule="evenodd" transform="translate(0 5)">
        <g>
            <mask id="gbpsgdprefix__b" fill="#fff">
                <use xlink:href="#gbpsgdprefix__a"/>
            </mask>
            <use fill="#0D47A1" xlink:href="#gbpsgdprefix__a"/>
            <path fill="#FFF" fill-rule="nonzero" d="M23.975 1.537C23.833.673 23.094.013 22.203.013h-.468l-7.666 5.102V.013H9.931v5.102L2.265.013h-.468C.906.013.167.673.025 1.537l6.552 4.361H0v4.204h6.577l-6.552 4.36c.142.865.881 1.525 1.772 1.525h.468l7.666-5.102v5.102h4.138v-5.102l7.666 5.102h.468c.891 0 1.63-.66 1.772-1.524l-6.552-4.361H24V5.898h-6.577l6.552-4.36z" mask="url(#gbpsgdprefix__b)"/>
            <path fill="#F44336" fill-rule="nonzero" d="M13.241.013V6.74H24V9.26H13.241v6.726H10.76V9.26H0V6.74h10.759V.013h2.482zM9.908 10.102l-8.746 5.767c-.228-.087-.433-.22-.606-.389l-.124-.132 7.956-5.246h1.52zm6.329 0l7.527 4.963c-.113.2-.262.378-.439.521l-.137.102-8.471-5.586h1.52zM.725.373l8.378 5.525h-1.52L.19 1.023C.316.766.5.543.725.373zM22.824.125c.286.107.539.287.735.517l-7.97 5.256h-1.52L22.824.125z" mask="url(#gbpsgdprefix__b)"/>
            <rect width="23" height="15" x=".5" y=".5" fill-rule="nonzero" stroke="#000" stroke-opacity=".04" mask="url(#gbpsgdprefix__b)" rx="1"/>
        </g>
        <rect width="23" height="15" x=".5" y=".5" stroke="#000" stroke-opacity=".04" rx="2"/>
        <g transform="translate(8 8)">
            <mask id="gbpsgdprefix__d" fill="#fff">
                <use xlink:href="#gbpsgdprefix__c"/>
            </mask>
            <use fill="#0D47A1" fill-rule="nonzero" xlink:href="#gbpsgdprefix__c"/>
            <path fill="#FFF" fill-rule="nonzero" d="M.414 7.987h.719l3.833-2.551v2.55h2.069v-2.55l3.832 2.55h.72c.228 0 .413-.187.413-.42v-.333L8.712 5.044H12V2.943H8.711L12 .753V.42c0-.232-.185-.42-.414-.42h-.719L7.034 2.551V0H4.965v2.551L1.258.084C.825.222.464.522.241.914l3.048 2.029H0v2.101h3.289L0 7.233v.333c0 .233.185.42.414.42zM6.125 10.279l.313 1.047 1-.405c.086-.034.163.065.111.142l-.611.9.936.543c.08.046.052.17-.04.176l-1.075.076.166 1.082c.014.092-.098.147-.16.078l-.729-.806-.729.806c-.062.069-.174.014-.16-.078l.166-1.082-1.075-.076c-.091-.006-.119-.13-.04-.176l.937-.542-.612-.901c-.052-.077.026-.176.111-.142l1 .405.313-1.047c.027-.09.152-.09.178 0zm12.31 1.524l.153.512.488-.198c.042-.017.08.031.055.069l-.3.44.458.265c.039.022.025.083-.02.086l-.524.037.08.528c.008.045-.047.072-.078.039l-.356-.394-.356.394c-.03.033-.085.006-.078-.039l.081-.528-.525-.037c-.045-.003-.058-.064-.02-.086l.458-.265-.299-.44c-.025-.038.013-.086.054-.07l.49.199.152-.512c.013-.044.074-.044.087 0zm1.18-4.125c.016-.048.083-.048.1 0l.122.373.387.003c.05 0 .071.065.03.096l-.31.233.116.375c.015.049-.04.09-.08.06l-.315-.23-.315.23c-.04.03-.095-.011-.08-.06l.117-.375-.312-.233c-.04-.03-.02-.095.03-.096l.388-.003.122-.373zm-4.582-.92l.152.512.49-.198c.041-.016.08.032.054.07l-.3.44.458.265c.039.022.025.082-.02.086l-.524.037.08.528c.008.045-.047.072-.078.038l-.356-.393-.356.393c-.03.034-.085.007-.078-.038l.081-.528-.525-.037c-.045-.004-.058-.064-.02-.086l.458-.265-.299-.44c-.025-.038.013-.086.054-.07l.49.198.152-.511c.013-.044.074-.044.087 0zm6.62-1.681l.153.512.49-.198c.04-.017.079.031.053.069l-.298.44.457.265c.039.023.025.083-.02.086l-.525.037.081.529c.007.045-.047.072-.078.038l-.356-.394-.356.394c-.03.033-.085.007-.078-.038l.081-.529-.525-.037c-.045-.003-.058-.063-.02-.086l.458-.265-.299-.44c-.025-.038.013-.086.054-.07l.49.199.152-.512c.013-.044.074-.044.087 0zm-3.218-2.246l.153.512.488-.198c.042-.017.08.031.055.069l-.3.44.458.265c.039.023.025.083-.02.086l-.524.037.08.529c.008.045-.047.072-.078.038l-.356-.394-.356.394c-.03.034-.085.007-.078-.038l.081-.529-.525-.037c-.045-.003-.058-.063-.02-.086l.458-.265-.299-.44c-.025-.038.013-.086.054-.069l.49.198.152-.512c.013-.044.074-.044.087 0z" mask="url(#gbpsgdprefix__d)"/>
            <path fill="#F44336" fill-rule="nonzero" d="M6.62 0v3.363H12v1.261H6.62v3.363H5.38V4.624H0V3.363h5.38V0h1.24zM4.955 5.044L.492 7.987H.414c-.123 0-.23-.057-.305-.145l-.05-.071 4.135-2.727h.76zm3.164 0L11.993 7.6c-.012.154-.102.284-.234.346l-4.4-2.902h.76zM.685.393l3.867 2.55h-.76L.386.696C.473.584.574.482.685.393zM11.586 0c.122 0 .227.056.301.141l.05.07-4.142 2.732h-.76L11.496 0h.09z" mask="url(#gbpsgdprefix__d)"/>
            <rect width="23" height="15" x=".5" y=".5" fill-rule="nonzero" stroke="#000" stroke-opacity=".04" mask="url(#gbpsgdprefix__d)" rx="1"/>
        </g>
        <rect width="23" height="15" x="8.5" y="8.5" stroke="#000" stroke-opacity=".04" rx="2"/>
    </g>
</svg>
