<svg xmlns="http://www.w3.org/2000/svg" xmlns:xlink="http://www.w3.org/1999/xlink" width="32" height="32" viewBox="0 0 32 32">
    <defs>
        <rect id="gbpsgdprefix__a" width="24" height="16" x="0" y="0" rx="2"/>
    </defs>
    <g fill="none" fill-rule="evenodd" transform="translate(0 4)">
        <g>
            <mask id="prefix__b" fill="#fff">
                <use xlink:href="#gbpsgdprefix__a"/>
            </mask>
            <use fill="#0D47A1" xlink:href="#gbpsgdprefix__a"/>
            <path fill="#FFF" fill-rule="nonzero" d="M23.975 1.537C23.833.673 23.094.013 22.203.013h-.468l-7.666 5.102V.013H9.931v5.102L2.265.013h-.468C.906.013.167.673.025 1.537l6.552 4.361H0v4.204h6.577l-6.552 4.36c.142.865.881 1.525 1.772 1.525h.468l7.666-5.102v5.102h4.138v-5.102l7.666 5.102h.468c.891 0 1.63-.66 1.772-1.524l-6.552-4.361H24V5.898h-6.577l6.552-4.36z" mask="url(#prefix__b)"/>
            <path fill="#F44336" fill-rule="nonzero" d="M13.241.013V6.74H24V9.26H13.241v6.726H10.76V9.26H0V6.74h10.759V.013h2.482zM9.908 10.102l-8.746 5.767c-.228-.087-.433-.22-.606-.389l-.124-.132 7.956-5.246h1.52zm6.329 0l7.527 4.963c-.113.2-.262.378-.439.521l-.137.102-8.471-5.586h1.52zM.725.373l8.378 5.525h-1.52L.19 1.023C.316.766.5.543.725.373zM22.824.125c.286.107.539.287.735.517l-7.97 5.256h-1.52L22.824.125z" mask="url(#prefix__b)"/>
            <rect width="23" height="15" x=".5" y=".5" fill-rule="nonzero" stroke="#000" stroke-opacity=".04" mask="url(#prefix__b)" rx="1"/>
        </g>
        <rect width="23" height="15" x=".5" y=".5" stroke="#000" stroke-opacity=".04" rx="2"/>
        <g fill-rule="nonzero" transform="translate(8 8)">
            <path fill="#FFF" d="M0 8h24v6c0 1.105-.895 2-2 2H2c-1.105 0-2-.895-2-2V8z"/>
            <path fill="#E12237" d="M2 0h20c1.105 0 2 .895 2 2v6H0V2C0 .895.895 0 2 0z"/>
            <path fill="#FFF" d="M4.625 2c.62 0 1.19.205 1.639.547-.238-.084-.495-.13-.764-.13-1.208 0-2.187.932-2.187 2.083 0 1.15.979 2.083 2.187 2.083.269 0 .526-.046.764-.13-.45.342-1.02.547-1.639.547C3.175 7 2 5.88 2 4.5S3.175 2 4.625 2zm1.313 3.333c.241 0 .437.187.437.417 0 .23-.196.417-.437.417-.242 0-.438-.187-.438-.417 0-.23.196-.417.438-.417zm1.75 0c.241 0 .437.187.437.417 0 .23-.196.417-.437.417-.242 0-.438-.187-.438-.417 0-.23.196-.417.438-.417zM5.063 3.667c.241 0 .437.186.437.416 0 .23-.196.417-.437.417-.242 0-.438-.187-.438-.417 0-.23.196-.416.438-.416zm3.5 0c.241 0 .437.186.437.416 0 .23-.196.417-.437.417-.242 0-.438-.187-.438-.417 0-.23.196-.416.438-.416zm-1.75-1.25c.241 0 .437.186.437.416 0 .23-.196.417-.437.417-.242 0-.438-.187-.438-.417 0-.23.196-.416.438-.416z"/>
            <rect width="23" height="15" x=".5" y=".5" stroke="#000" stroke-opacity=".04" rx="1"/>
        </g>
        <rect width="23" height="15" x="8.5" y="8.5" stroke="#000" stroke-opacity=".04" rx="2"/>
    </g>
</svg>
