<svg xmlns="http://www.w3.org/2000/svg" xmlns:xlink="http://www.w3.org/1999/xlink" width="32" height="33" viewBox="0 0 32 33">
    <defs>
        <rect id="gbpnzdprefix__a" width="24" height="16" x="0" y="0" rx="2"/>
    </defs>
    <g fill="none" fill-rule="evenodd" transform="translate(0 5)">
        <g>
            <mask id="gbpnzdprefix__b" fill="#fff">
                <use xlink:href="#gbpnzdprefix__a"/>
            </mask>
            <use fill="#0D47A1" xlink:href="#gbpnzdprefix__a"/>
            <path fill="#FFF" fill-rule="nonzero" d="M23.975 1.537C23.833.673 23.094.013 22.203.013h-.468l-7.666 5.102V.013H9.931v5.102L2.265.013h-.468C.906.013.167.673.025 1.537l6.552 4.361H0v4.204h6.577l-6.552 4.36c.142.865.881 1.525 1.772 1.525h.468l7.666-5.102v5.102h4.138v-5.102l7.666 5.102h.468c.891 0 1.63-.66 1.772-1.524l-6.552-4.361H24V5.898h-6.577l6.552-4.36z" mask="url(#gbpnzdprefix__b)"/>
            <path fill="#F44336" fill-rule="nonzero" d="M13.241.013V6.74H24V9.26H13.241v6.726H10.76V9.26H0V6.74h10.759V.013h2.482zM9.908 10.102l-8.746 5.767c-.228-.087-.433-.22-.606-.389l-.124-.132 7.956-5.246h1.52zm6.329 0l7.527 4.963c-.113.2-.262.378-.439.521l-.137.102-8.471-5.586h1.52zM.725.373l8.378 5.525h-1.52L.19 1.023C.316.766.5.543.725.373zM22.824.125c.286.107.539.287.735.517l-7.97 5.256h-1.52L22.824.125z" mask="url(#gbpnzdprefix__b)"/>
            <rect width="23" height="15" x=".5" y=".5" fill-rule="nonzero" stroke="#000" stroke-opacity=".04" mask="url(#gbpnzdprefix__b)" rx="1"/>
        </g>
        <rect width="23" height="15" x=".5" y=".5" stroke="#000" stroke-opacity=".04" rx="2"/>
        <g fill-rule="nonzero" transform="translate(8 8)">
            <rect width="24" height="16" fill="#0D47A1" rx="2"/>
            <path fill="#FFF" d="M.414 8h.719l3.833-2.551V8h2.069V5.449L10.867 8h.72c.228 0 .413-.188.413-.42v-.334L8.712 5.057H12V2.956H8.711L12 .767V.434c0-.233-.185-.42-.414-.42h-.719l-3.833 2.55V.014H4.965v2.55L1.258.097C.825.235.464.535.241.927l3.048 2.029H0v2.101h3.289L0 7.247v.333c0 .232.185.42.414.42z"/>
            <path fill="#F44336" d="M6.62.013v3.363H12v1.261H6.62V8H5.38V4.637H0V3.376h5.38V.013h1.24zM4.955 5.057L.492 8H.414c-.123 0-.23-.057-.305-.145l-.05-.071 4.135-2.727h.76zm3.164 0l3.875 2.556c-.012.154-.102.284-.234.346l-4.4-2.902h.76zM.685.406l3.867 2.55h-.76L.386.71C.473.597.574.495.685.406zM11.586.013c.122 0 .227.056.301.142l.05.069-4.142 2.732h-.76L11.496.013h.09z"/>
            <path fill="#F44336" stroke="#FFF" stroke-width=".2" d="M18 11.489c.036 0 .067.023.079.057l.19.58.602.005c.036 0 .067.024.078.059.011.034 0 .072-.03.093l-.484.363.182.583c.01.035-.002.072-.03.094-.015.01-.032.016-.05.016-.016 0-.033-.006-.047-.016l-.49-.355-.49.355c-.014.01-.031.016-.048.016s-.034-.006-.049-.016c-.028-.022-.04-.06-.03-.094l.182-.583-.484-.363c-.029-.021-.04-.059-.03-.093.011-.035.042-.058.078-.059l.602-.005.19-.58c.012-.034.044-.057.08-.057zm-2.896-3.835c.035 0 .067.024.078.058l.19.58.602.004c.036 0 .068.024.079.059.01.034-.001.071-.03.093l-.484.364.182.582c.01.035-.002.073-.03.094-.016.01-.033.016-.05.016s-.033-.005-.048-.016l-.49-.355-.49.355c-.014.01-.03.016-.047.016s-.035-.005-.049-.016c-.029-.021-.041-.059-.03-.094l.181-.582-.484-.364c-.028-.022-.04-.06-.03-.093.012-.035.043-.058.079-.059l.602-.004.19-.58c.011-.034.043-.058.079-.058zm5.793-.84c.035 0 .067.023.078.057l.19.58.603.005c.035 0 .067.023.078.058.01.034-.001.072-.03.094l-.484.363.182.583c.01.034-.002.072-.03.093-.015.011-.033.016-.05.016s-.033-.005-.048-.015l-.49-.356-.49.356c-.014.01-.03.015-.047.015s-.034-.005-.049-.016c-.029-.021-.041-.059-.03-.093l.181-.583-.484-.363c-.028-.022-.04-.06-.03-.094.012-.035.043-.058.079-.058l.602-.005.19-.58c.011-.034.043-.057.079-.057zM18 4.712c.036 0 .067.023.079.057l.19.58.602.005c.036 0 .067.024.078.058.011.034 0 .072-.03.094l-.484.363.182.583c.01.034-.002.072-.03.094-.015.01-.032.016-.05.016-.016 0-.033-.006-.047-.016L18 6.19l-.49.356c-.014.01-.031.016-.048.016s-.034-.006-.049-.016c-.028-.022-.04-.06-.03-.094l.182-.583-.484-.363c-.029-.022-.04-.06-.03-.094.011-.034.043-.058.078-.058l.602-.005.19-.58c.012-.034.044-.057.08-.057z"/>
            <rect width="23" height="15" x=".5" y=".5" stroke="#000" stroke-opacity=".04" rx="1"/>
        </g>
        <rect width="23" height="15" x="8.5" y="8.5" stroke="#000" stroke-opacity=".04" rx="2"/>
    </g>
</svg>
