<svg xmlns="http://www.w3.org/2000/svg" xmlns:xlink="http://www.w3.org/1999/xlink" width="32" height="33" viewBox="0 0 32 33">
    <defs>
        <rect id="gbptryprefix__a" width="24" height="16" x="0" y="0" rx="2"/>
    </defs>
    <g fill="none" fill-rule="evenodd" transform="translate(0 5)">
        <g>
            <mask id="gbptryprefix__b" fill="#fff">
                <use xlink:href="#gbptryprefix__a"/>
            </mask>
            <use fill="#0D47A1" xlink:href="#gbptryprefix__a"/>
            <path fill="#FFF" fill-rule="nonzero" d="M23.975 1.537C23.833.673 23.094.013 22.203.013h-.468l-7.666 5.102V.013H9.931v5.102L2.265.013h-.468C.906.013.167.673.025 1.537l6.552 4.361H0v4.204h6.577l-6.552 4.36c.142.865.881 1.525 1.772 1.525h.468l7.666-5.102v5.102h4.138v-5.102l7.666 5.102h.468c.891 0 1.63-.66 1.772-1.524l-6.552-4.361H24V5.898h-6.577l6.552-4.36z" mask="url(#gbptryprefix__b)"/>
            <path fill="#F44336" fill-rule="nonzero" d="M13.241.013V6.74H24V9.26H13.241v6.726H10.76V9.26H0V6.74h10.759V.013h2.482zM9.908 10.102l-8.746 5.767c-.228-.087-.433-.22-.606-.389l-.124-.132 7.956-5.246h1.52zm6.329 0l7.527 4.963c-.113.2-.262.378-.439.521l-.137.102-8.471-5.586h1.52zM.725.373l8.378 5.525h-1.52L.19 1.023C.316.766.5.543.725.373zM22.824.125c.286.107.539.287.735.517l-7.97 5.256h-1.52L22.824.125z" mask="url(#gbptryprefix__b)"/>
            <rect width="23" height="15" x=".5" y=".5" fill-rule="nonzero" stroke="#000" stroke-opacity=".04" mask="url(#gbptryprefix__b)" rx="1"/>
        </g>
        <rect width="23" height="15" x=".5" y=".5" stroke="#000" stroke-opacity=".04" rx="2"/>
        <g fill-rule="nonzero" transform="translate(8 8)">
            <rect width="24" height="16" fill="#E92434" rx="2"/>
            <g fill="#FFF">
                <path d="M8.013 4.542L6.968 5.287 7.353 4.063 6.322 3.299 7.605 3.287 8.013 2.071 8.42 3.287 9.704 3.299 8.672 4.063 9.058 5.287 8.013 4.542z" transform="translate(7 4)"/>
                <path d="M4 0c1.282 0 2.424.603 3.156 1.542C6.59 1.132 5.882.889 5.11.889 3.271.889 1.778 2.282 1.778 4c0 1.718 1.492 3.111 3.333 3.111.77 0 1.48-.244 2.045-.654C6.424 7.397 5.282 8 4 8 1.79 8 0 6.21 0 4s1.79-4 4-4z" transform="translate(7 4)"/>
            </g>
            <rect width="23" height="15" x=".5" y=".5" stroke="#000" stroke-opacity=".04" rx="1"/>
        </g>
        <rect width="23" height="15" x="8.5" y="8.5" stroke="#000" stroke-opacity=".04" rx="2"/>
    </g>
</svg>
