<svg width="32" height="32" fill="none" xmlns="http://www.w3.org/2000/svg"><path fill-rule="evenodd" clip-rule="evenodd" d="M26.69 17.242A1 1 0 0 0 25.72 16H6.28a1 1 0 0 0-.97 1.242l2.5 10a1 1 0 0 0 .97.758h14.44a1 1 0 0 0 .97-.758l2.5-10ZM11 19a1 1 0 0 0-1 1v4a1 1 0 1 0 2 0v-4a1 1 0 0 0-1-1Zm4 1a1 1 0 1 1 2 0v4a1 1 0 1 1-2 0v-4Zm6-1a1 1 0 0 0-1 1v4a1 1 0 1 0 2 0v-4a1 1 0 0 0-1-1ZM15.914 7.395 13.185 12h5.63l-2.729-4.605a.1.1 0 0 0-.172 0ZM21.8 12l-4.285-7.143a1.766 1.766 0 0 0-3.03 0L10.2 12H5a1 1 0 1 0 0 2h22a1 1 0 1 0 0-2h-5.2Z" fill="#D2D3DA"/><mask id="a" style="mask-type:alpha" maskUnits="userSpaceOnUse" x="17" y="0" width="15" height="10"><path d="M30.75 0h-12.5C17.56 0 17 .56 17 1.25v7.5c0 .69.56 1.25 1.25 1.25h12.5c.69 0 1.25-.56 1.25-1.25v-7.5C32 .56 31.44 0 30.75 0Z" fill="#fff"/></mask><g mask="url(#a)"><path d="M30.75 0h-12.5C17.56 0 17 .56 17 1.25v7.5c0 .69.56 1.25 1.25 1.25h12.5c.69 0 1.25-.56 1.25-1.25v-7.5C32 .56 31.44 0 30.75 0Z" fill="#0D47A1"/><path d="M31.984.96a1.129 1.129 0 0 0-1.107-.952h-.293l-4.79 3.189V.007h-2.587v3.19L18.416.007h-.293c-.557 0-1.019.413-1.107.953l4.095 2.726H17v2.627h4.11L17.017 9.04c.088.54.55.952 1.107.952h.293l4.79-3.188V9.99h2.587V6.803l4.791 3.188h.293c.557 0 1.019-.412 1.107-.952L27.89 6.313H32V3.686h-4.11L31.983.96Z" fill="#fff"/><path d="M25.276.008V4.21H32v1.577h-6.724V9.99h-1.552V5.788H17V4.21h6.724V.008h1.552Zm-2.083 6.305-5.467 3.605a1.12 1.12 0 0 1-.379-.243l-.077-.083 4.973-3.279h.95Zm3.955 0 4.704 3.102a1.14 1.14 0 0 1-.274.326l-.085.063-5.295-3.49h.95ZM17.453.233l5.237 3.453h-.95L17.119.639c.079-.16.194-.3.334-.406ZM31.265.078c.179.067.337.18.46.323l-4.982 3.285h-.95L31.265.078Z" fill="#F44336"/><path fill-rule="evenodd" clip-rule="evenodd" d="M30.75.625h-12.5a.625.625 0 0 0-.625.625v7.5c0 .345.28.625.625.625h12.5c.345 0 .625-.28.625-.625v-7.5a.625.625 0 0 0-.625-.625ZM18.25 0C17.56 0 17 .56 17 1.25v7.5c0 .69.56 1.25 1.25 1.25h12.5c.69 0 1.25-.56 1.25-1.25v-7.5C32 .56 31.44 0 30.75 0h-12.5Z" fill="#000" fill-opacity=".04"/></g></svg>