<svg xmlns="http://www.w3.org/2000/svg" xmlns:xlink="http://www.w3.org/1999/xlink" width="32" height="32"><defs><rect id="a" width="24" height="16" x="0" y="0" rx="2"/></defs><g fill="none" fill-rule="evenodd" transform="translate(0 4)"><mask id="b" fill="#fff"><use xlink:href="#a"/></mask><use fill="#0D47A1" xlink:href="#a"/><path fill="#FFF" fill-rule="nonzero" d="M23.975 1.537A1.807 1.807 0 0 0 22.203.013h-.468l-7.666 5.102V.013H9.931v5.102L2.265.013h-.468C.906.013.167.673.025 1.537l6.552 4.361H0v4.204h6.577l-6.552 4.36a1.807 1.807 0 0 0 1.772 1.525h.468l7.666-5.102v5.102h4.138v-5.102l7.666 5.102h.468c.891 0 1.63-.66 1.772-1.524l-6.552-4.361H24V5.898h-6.577l6.552-4.36z" mask="url(#b)"/><path fill="#F44336" fill-rule="nonzero" d="M13.241.013V6.74H24v2.52H13.241v6.726H10.76V9.26H0V6.74h10.759V.013h2.482zM9.908 10.102l-8.746 5.767a1.77 1.77 0 0 1-.606-.389l-.124-.132 7.956-5.246h1.52zm6.329 0 7.527 4.963c-.113.2-.262.378-.439.521l-.137.102-8.471-5.586h1.52zM.725.373l8.378 5.525h-1.52L.19 1.023C.316.766.5.543.725.373zM22.824.125c.286.107.539.287.735.517l-7.97 5.256h-1.52L22.824.125z" mask="url(#b)"/><rect width="23" height="15" x=".5" y=".5" stroke="#000" stroke-opacity=".04" mask="url(#b)" rx="1"/><rect width="23" height="15" x=".5" y=".5" stroke="#000" stroke-opacity=".04" rx="2"/><g fill-rule="nonzero" transform="translate(8 8)"><path fill="#FFF" d="M0 8h24v6a2 2 0 0 1-2 2H2a2 2 0 0 1-2-2V8z"/><path fill="#E12237" d="M2 0h20a2 2 0 0 1 2 2v6H0V2a2 2 0 0 1 2-2z"/><path fill="#FFF" d="M4.625 2c.62 0 1.19.205 1.639.547a2.29 2.29 0 0 0-.764-.13c-1.208 0-2.187.932-2.187 2.083 0 1.15.979 2.083 2.187 2.083.269 0 .526-.046.764-.13-.45.342-1.02.547-1.639.547C3.175 7 2 5.88 2 4.5S3.175 2 4.625 2zm1.313 3.333c.241 0 .437.187.437.417 0 .23-.196.417-.437.417A.428.428 0 0 1 5.5 5.75c0-.23.196-.417.438-.417zm1.75 0c.241 0 .437.187.437.417 0 .23-.196.417-.437.417a.428.428 0 0 1-.438-.417c0-.23.196-.417.438-.417zM5.063 3.667c.241 0 .437.186.437.416 0 .23-.196.417-.437.417a.428.428 0 0 1-.438-.417c0-.23.196-.416.438-.416zm3.5 0c.241 0 .437.186.437.416 0 .23-.196.417-.437.417a.428.428 0 0 1-.438-.417c0-.23.196-.416.438-.416zm-1.75-1.25c.241 0 .437.186.437.416 0 .23-.196.417-.437.417a.428.428 0 0 1-.438-.417c0-.23.196-.416.438-.416z"/><rect width="23" height="15" x=".5" y=".5" stroke="#000" stroke-opacity=".04" rx="1"/></g><rect width="23" height="15" x="8.5" y="8.5" stroke="#000" stroke-opacity=".04" rx="2"/></g></svg>