<svg xmlns="http://www.w3.org/2000/svg" width="32" height="32"><g transform="translate(3 4)" fill="none" fill-rule="evenodd"><path fill="#6E7287" fill-rule="nonzero" d="M19.756 12.477H3.119v10.398h16.637z"/><path fill="#D2D3DA" d="M2.08 22.875h18.716c.574 0 1.04.466 1.04 1.04H1.04c0-.574.465-1.04 1.04-1.04zM1.04 12.477h20.796a1.04 1.04 0 0 1-1.04 1.04H2.08a1.04 1.04 0 0 1-1.04-1.04z"/><path fill="#B0B3BF" fill-rule="nonzero" d="M22.355 23.915H.52a.52.52 0 0 0 0 1.04h21.835a.52.52 0 1 0 0-1.04zM3.899 13.517H2.34v9.358h1.559z"/><path fill="#E9E9ED" d="M2.426 21.836h1.387c.191 0 .346.155.346.346v.693H2.08v-.693c0-.191.156-.346.347-.346zm-.346-8.319h2.08v.694a.347.347 0 0 1-.347.346H2.426a.346.346 0 0 1-.346-.346v-.694z"/><path fill="#B0B3BF" fill-rule="nonzero" d="M9.098 13.517h-1.56v9.358h1.56z"/><path fill="#E9E9ED" d="M7.625 21.836h1.387c.191 0 .346.155.346.346v.693h-2.08v-.693c0-.191.156-.346.347-.346zm-.346-8.319h2.08v.694a.347.347 0 0 1-.347.346H7.625a.346.346 0 0 1-.346-.346v-.694z"/><path fill="#B0B3BF" fill-rule="nonzero" d="M15.337 13.517h-1.56v9.358h1.56z"/><path fill="#E9E9ED" d="M13.863 21.836h1.388c.19 0 .346.155.346.346v.693h-2.08v-.693c0-.191.155-.346.346-.346zm-.346-8.319h2.08v.694a.346.346 0 0 1-.346.346h-1.388a.347.347 0 0 1-.346-.346v-.694z"/><path fill="#B0B3BF" fill-rule="nonzero" d="M20.536 13.517h-1.56v9.358h1.56z"/><path fill="#E9E9ED" d="M19.062 21.836h1.388c.19 0 .346.155.346.346v.693h-2.08v-.693c0-.191.155-.346.346-.346zm-.346-8.319h2.08v.694a.346.346 0 0 1-.346.346h-1.388a.347.347 0 0 1-.346-.346v-.694z"/><path fill="#F4F4F6" d="M.52 11.958h21.835L11.438 4.679z"/><path fill="#B0B3BF" d="M11.15 4.246a.52.52 0 0 1 .576 0l10.918 7.279c.19.127.275.364.21.583a.522.522 0 0 1-.499.37H.52a.52.52 0 0 1-.288-.953l10.917-7.279zm-8.913 7.192h18.401l-9.2-6.134-9.201 6.134z"/><path fill="#B0B3BF" fill-rule="nonzero" d="M11.438 9.358a1.04 1.04 0 1 0 0-2.08 1.04 1.04 0 0 0 0 2.08z"/><circle cx="21.836" cy="4.159" r="4.159" fill="#FFDA5B" fill-rule="nonzero"/><path fill="#FDF1CA" fill-rule="nonzero" d="M24.487.954a4.14 4.14 0 0 0-.578-.402l-5.68 5.68c.118.204.253.398.402.578L24.487.954zm-4.803 6.765a4.197 4.197 0 0 1-.82-.65l5.881-5.882c.25.244.469.52.65.82l-5.711 5.712zm1.215.493a4.092 4.092 0 0 1-.383-.108l5.265-5.265c.042.125.078.253.108.383l-4.99 4.99z"/><g fill-rule="nonzero" transform="translate(17.676)"><circle cx="4.159" cy="4.159" r="3.379" fill="#FFC329"/><path fill="#F8B712" d="M4.16 7.538a3.379 3.379 0 0 0 2.984-4.964 6.713 6.713 0 0 0-4.57 4.57 3.359 3.359 0 0 0 1.585.394z"/></g><path fill="#DB9E43" fill-rule="nonzero" d="M24.352 1.903a3.38 3.38 0 0 0-4.772 4.772 3.38 3.38 0 1 1 4.772-4.772z"/></g></svg>