<svg xmlns="http://www.w3.org/2000/svg" width="28" height="28"><g fill="none" fill-rule="evenodd" transform="translate(-2 -2)"><path d="M0 0h32v32H0z"/><path fill="#E4E4E4" fill-rule="nonzero" d="M29.5 13H29a.5.5 0 0 1 0-1h.5a.5.5 0 0 1 0 1zM27 13h-1a.5.5 0 0 1 0-1h1a.5.5 0 0 1 0 1zm-3 0h-1a.5.5 0 0 1 0-1h1a.5.5 0 0 1 0 1zm-3 0h-1a.5.5 0 0 1 0-1h1a.5.5 0 0 1 0 1zm-3 0h-1a.5.5 0 0 1 0-1h1a.5.5 0 0 1 0 1zm-3 0h-1a.5.5 0 0 1 0-1h1a.5.5 0 0 1 0 1zm-3 0h-1a.5.5 0 0 1 0-1h1a.5.5 0 0 1 0 1zm-3 0H8a.5.5 0 0 1 0-1h1a.5.5 0 0 1 0 1zm-3 0H5a.5.5 0 0 1 0-1h1a.5.5 0 0 1 0 1zm-3 0h-.5a.5.5 0 0 1 0-1H3a.5.5 0 0 1 0 1zm24 10h-1a.5.5 0 0 1 0-1h1a.5.5 0 0 1 0 1zm-3 0h-1a.5.5 0 0 1 0-1h1a.5.5 0 0 1 0 1zm-3 0h-1a.5.5 0 0 1 0-1h1a.5.5 0 0 1 0 1zm-3 0h-1a.5.5 0 0 1 0-1h1a.5.5 0 0 1 0 1zm-6 0h-1a.5.5 0 0 1 0-1h1a.5.5 0 0 1 0 1zm-3 0H8a.5.5 0 0 1 0-1h1a.5.5 0 0 1 0 1zm-3 0H5a.5.5 0 0 1 0-1h1a.5.5 0 0 1 0 1z"/><path fill="#EF4852" fill-rule="nonzero" d="M6.85 7.15a.477.477 0 0 0-.7 0L5 8.29V5.5a.5.5 0 0 0-1 0v2.79L2.85 7.15a.496.496 0 0 0-.7.7l2 2c.042.05.098.089.16.11a.474.474 0 0 0 .38 0 .363.363 0 0 0 .16-.11l2-2a.477.477 0 0 0 0-.7z"/><path fill="#84AAAF" fill-rule="nonzero" d="m29.85 27.15-2-2a.363.363 0 0 0-.16-.11.5.5 0 0 0-.38 0 .363.363 0 0 0-.16.11l-2 2a.494.494 0 1 0 .7.7L27 26.71v2.79a.5.5 0 0 0 1 0v-2.79l1.15 1.14a.477.477 0 0 0 .7 0 .477.477 0 0 0 0-.7zm.05-4.95-3-5a.489.489 0 0 0-.36-.2.459.459 0 0 0-.39.15l-.55.54-2-3.24a1.46 1.46 0 0 0 .4-.95 1.5 1.5 0 0 0-3 0c0 .348.124.685.35.95l-1.81 3-.54-1.17a.512.512 0 0 0-.4-.28.48.48 0 0 0-.44.19L15 20.09a1.34 1.34 0 0 0-.5-.09 1.31 1.31 0 0 0-.28 0L12 16.25a.53.53 0 0 0-.36-.25.51.51 0 0 0-.42.14l-1.58 1.53-1.06-2.13a1.5 1.5 0 1 0-2.31-.18l-4.18 6.85a.506.506 0 0 0-.086.375.505.505 0 0 0 .206.325.52.52 0 0 0 .29.09.489.489 0 0 0 .41-.21l4.18-6.85c.134.035.272.056.41.06h.18l1.37 2.74a.47.47 0 0 0 .37.27.5.5 0 0 0 .43-.13l1.62-1.56 1.89 3.24c-.24.277-.368.634-.36 1a1.5 1.5 0 0 0 3 0 1.52 1.52 0 0 0-.23-.79l2.63-3.29.65 1.3a.5.5 0 0 0 .43.28.53.53 0 0 0 .45-.24L22.2 15h.6l2.27 3.79c.082.13.217.219.37.24a.51.51 0 0 0 .41-.15l.6-.59 2.65 4.51a.51.51 0 0 0 .7.1.502.502 0 0 0 .1-.7zM7.5 15a.5.5 0 1 1 0-1 .5.5 0 0 1 0 1zm7 7a.5.5 0 1 1 0-1 .5.5 0 0 1 0 1zm8-8a.5.5 0 1 1 0-1 .5.5 0 0 1 0 1z"/><rect width="11" height="8" x="19" y="2" fill="#2A2A2A" fill-rule="nonzero" rx="1"/><path fill="#FFF" fill-rule="nonzero" d="M21.258 8.26v-.564h1.176V4.564h-.048l-.972 1.038L21 5.23l1.068-1.158H23.1v3.624h1.02v.564h-2.862zm5.26.072c-.26 0-.486-.049-.678-.147-.192-.098-.35-.239-.474-.423s-.216-.41-.276-.678a4.224 4.224 0 0 1-.09-.918c0-.34.03-.645.09-.915s.152-.497.276-.681a1.25 1.25 0 0 1 .474-.423c.192-.098.418-.147.678-.147.52 0 .903.19 1.149.57.246.38.369.912.369 1.596s-.123 1.216-.369 1.596c-.246.38-.629.57-1.149.57zm0-.576a.735.735 0 0 0 .369-.087.676.676 0 0 0 .249-.249c.064-.108.11-.237.138-.387a2.74 2.74 0 0 0 .042-.501V5.8a2.74 2.74 0 0 0-.042-.501 1.178 1.178 0 0 0-.138-.387.676.676 0 0 0-.249-.249c-.102-.058-.225-.087-.369-.087s-.267.029-.369.087a.676.676 0 0 0-.249.249c-.064.108-.11.237-.138.387a2.74 2.74 0 0 0-.042.501v.732c0 .184.014.351.042.501.028.15.074.279.138.387a.676.676 0 0 0 .249.249.735.735 0 0 0 .369.087z"/></g></svg>