<svg xmlns="http://www.w3.org/2000/svg" width="32" height="32" viewBox="0 0 32 32">
    <g fill="none" fill-rule="evenodd">
        <g>
            <g transform="translate(-86 -119) translate(86 119)">
                <g>
                    <path d="M0 0H32V32H0z"/>
                    <path fill="#E4E4E4" fill-rule="nonzero" d="M29.5 13H29c-.276 0-.5-.224-.5-.5s.224-.5.5-.5h.5c.276 0 .5.224.5.5s-.224.5-.5.5zM27 13h-1c-.276 0-.5-.224-.5-.5s.224-.5.5-.5h1c.276 0 .5.224.5.5s-.224.5-.5.5zm-3 0h-1c-.276 0-.5-.224-.5-.5s.224-.5.5-.5h1c.276 0 .5.224.5.5s-.224.5-.5.5zm-3 0h-1c-.276 0-.5-.224-.5-.5s.224-.5.5-.5h1c.276 0 .5.224.5.5s-.224.5-.5.5zm-3 0h-1c-.276 0-.5-.224-.5-.5s.224-.5.5-.5h1c.276 0 .5.224.5.5s-.224.5-.5.5zm-3 0h-1c-.276 0-.5-.224-.5-.5s.224-.5.5-.5h1c.276 0 .5.224.5.5s-.224.5-.5.5zm-3 0h-1c-.276 0-.5-.224-.5-.5s.224-.5.5-.5h1c.276 0 .5.224.5.5s-.224.5-.5.5zm-3 0H8c-.276 0-.5-.224-.5-.5s.224-.5.5-.5h1c.276 0 .5.224.5.5s-.224.5-.5.5zm-3 0H5c-.276 0-.5-.224-.5-.5s.224-.5.5-.5h1c.276 0 .5.224.5.5s-.224.5-.5.5zM3 13h-.5c-.276 0-.5-.224-.5-.5s.224-.5.5-.5H3c.276 0 .5.224.5.5s-.224.5-.5.5zM27 23h-1c-.276 0-.5-.224-.5-.5s.224-.5.5-.5h1c.276 0 .5.224.5.5s-.224.5-.5.5zm-3 0h-1c-.276 0-.5-.224-.5-.5s.224-.5.5-.5h1c.276 0 .5.224.5.5s-.224.5-.5.5zm-3 0h-1c-.276 0-.5-.224-.5-.5s.224-.5.5-.5h1c.276 0 .5.224.5.5s-.224.5-.5.5zm-3 0h-1c-.276 0-.5-.224-.5-.5s.224-.5.5-.5h1c.276 0 .5.224.5.5s-.224.5-.5.5zm-6 0h-1c-.276 0-.5-.224-.5-.5s.224-.5.5-.5h1c.276 0 .5.224.5.5s-.224.5-.5.5zm-3 0H8c-.276 0-.5-.224-.5-.5s.224-.5.5-.5h1c.276 0 .5.224.5.5s-.224.5-.5.5zm-3 0H5c-.276 0-.5-.224-.5-.5s.224-.5.5-.5h1c.276 0 .5.224.5.5s-.224.5-.5.5z"/>
                    <path fill="#EF4852" fill-rule="nonzero" d="M6.85 7.15c-.09-.097-.217-.152-.35-.152-.133 0-.26.055-.35.152L5 8.29V5.5c0-.276-.224-.5-.5-.5s-.5.224-.5.5v2.79L2.85 7.15c-.193-.193-.507-.193-.7 0-.193.193-.193.507 0 .7l2 2c.042.05.098.089.16.11.121.053.259.053.38 0 .062-.021.118-.06.16-.11l2-2c.097-.09.152-.217.152-.35 0-.133-.055-.26-.152-.35z"/>
                    <path fill="#84AAAF" fill-rule="nonzero" d="M29.85 27.15l-2-2c-.042-.05-.098-.089-.16-.11-.122-.05-.258-.05-.38 0-.062.021-.118.06-.16.11l-2 2c-.125.125-.174.307-.128.478.046.17.18.304.35.35.17.046.353-.003.478-.128L27 26.71v2.79c0 .276.224.5.5.5s.5-.224.5-.5v-2.79l1.15 1.14c.09.097.217.152.35.152.133 0 .26-.055.35-.152.097-.09.152-.217.152-.35 0-.133-.055-.26-.152-.35zM29.9 22.2l-3-5c-.085-.116-.216-.19-.36-.2-.147-.015-.292.04-.39.15l-.55.54-2-3.24c.244-.258.387-.595.4-.95 0-.828-.672-1.5-1.5-1.5s-1.5.672-1.5 1.5c0 .348.124.685.35.95l-1.81 3-.54-1.17c-.077-.155-.228-.26-.4-.28-.17-.02-.338.053-.44.19L15 20.09c-.16-.062-.33-.092-.5-.09-.093-.01-.187-.01-.28 0L12 16.25c-.078-.131-.21-.223-.36-.25-.154-.02-.309.032-.42.14l-1.58 1.53-1.06-2.13c.548-.57.56-1.467.027-2.051-.533-.584-1.428-.654-2.046-.16-.617.495-.744 1.383-.291 2.031l-4.18 6.85c-.077.109-.108.244-.086.375.023.131.097.248.206.325.086.058.187.09.29.09.163.003.317-.076.41-.21l4.18-6.85c.134.035.272.056.41.06h.18l1.37 2.74c.068.148.208.25.37.27.156.027.315-.021.43-.13l1.62-1.56 1.89 3.24c-.24.277-.368.634-.36 1 0 .828.672 1.5 1.5 1.5s1.5-.672 1.5-1.5c-.003-.28-.082-.553-.23-.79l2.63-3.29.65 1.3c.08.165.246.273.43.28.181.002.35-.088.45-.24L22.2 15h.6l2.27 3.79c.082.13.217.219.37.24.152.014.303-.041.41-.15l.6-.59 2.65 4.51c.169.216.478.26.7.1.106-.08.176-.198.195-.33.019-.13-.015-.264-.095-.37zM7.5 15c-.276 0-.5-.224-.5-.5s.224-.5.5-.5.5.224.5.5-.224.5-.5.5zm7 7c-.276 0-.5-.224-.5-.5s.224-.5.5-.5.5.224.5.5-.224.5-.5.5zm8-8c-.276 0-.5-.224-.5-.5s.224-.5.5-.5.5.224.5.5-.224.5-.5.5z"/>
                </g>
                <rect width="11" height="8" x="19" y="2" fill="#2A2A2A" fill-rule="nonzero" rx="1"/>
                <path fill="#FFF" fill-rule="nonzero" d="M23.664 4.66h-1.86l-.108 1.482h.042c.048-.084.098-.159.15-.225.052-.066.112-.123.18-.171.068-.048.146-.085.234-.111.088-.026.192-.039.312-.039.18 0 .347.03.501.09.154.06.288.146.402.258.114.112.203.249.267.411.064.162.096.345.096.549 0 .208-.033.4-.099.576-.066.176-.163.327-.291.453-.128.126-.285.224-.471.294-.186.07-.397.105-.633.105-.188 0-.354-.021-.498-.063-.144-.042-.271-.098-.381-.168-.11-.07-.206-.15-.288-.24-.082-.09-.155-.183-.219-.279l.492-.39c.052.084.106.16.162.228.056.068.12.128.192.18.072.052.153.092.243.12.09.028.193.042.309.042.248 0 .439-.068.573-.204.134-.136.201-.324.201-.564v-.072c0-.24-.067-.428-.201-.564-.134-.136-.325-.204-.573-.204-.18 0-.324.034-.432.102-.108.068-.2.144-.276.228l-.558-.078.156-2.334h2.376v.588zm2.854 3.672c-.26 0-.486-.049-.678-.147-.192-.098-.35-.239-.474-.423s-.216-.41-.276-.678c-.06-.268-.09-.574-.09-.918 0-.34.03-.645.09-.915s.152-.497.276-.681c.124-.184.282-.325.474-.423.192-.098.418-.147.678-.147.52 0 .903.19 1.149.57.246.38.369.912.369 1.596s-.123 1.216-.369 1.596c-.246.38-.629.57-1.149.57zm0-.576c.144 0 .267-.029.369-.087.102-.058.185-.141.249-.249.064-.108.11-.237.138-.387.028-.15.042-.317.042-.501V5.8c0-.184-.014-.351-.042-.501-.028-.15-.074-.279-.138-.387-.064-.108-.147-.191-.249-.249-.102-.058-.225-.087-.369-.087s-.267.029-.369.087c-.102.058-.185.141-.249.249-.064.108-.11.237-.138.387-.028.15-.042.317-.042.501v.732c0 .184.014.351.042.501.028.15.074.279.138.387.064.108.147.191.249.249.102.058.225.087.369.087z"/>
            </g>
        </g>
    </g>
</svg>
