<svg xmlns="http://www.w3.org/2000/svg" width="32" height="32" viewBox="0 0 32 32">
    <g fill="none" fill-rule="evenodd">
        <circle cx="25" cy="25" r="5" fill="#EF4852" fill-rule="nonzero"/>
        <path fill="#FFF" fill-rule="nonzero" d="M22.15 27.23L22.15 26.62 23.42 26.62 23.42 23.23 23.37 23.23 22.32 24.35 21.87 23.95 23 22.69 24.12 22.69 24.12 26.62 25.23 26.62 25.23 27.23zM26.79 27.31c-.534.022-1.045-.216-1.37-.64l.46-.42c.113.149.256.272.42.36.163.086.345.131.53.13.166.012.33-.03.47-.12.1-.084.156-.21.15-.34 0-.104-.04-.204-.11-.28-.104-.086-.235-.136-.37-.14h-.31c-.295-.025-.578-.129-.82-.3-.204-.177-.312-.44-.29-.71-.004-.152.027-.302.09-.44.06-.123.146-.232.25-.32.12-.093.255-.164.4-.21.166-.045.338-.069.51-.07.254-.008.507.04.74.14.198.098.375.234.52.4l-.43.42c-.096-.114-.216-.206-.35-.27-.147-.08-.312-.12-.48-.12-.153-.014-.306.029-.43.12-.094.074-.146.19-.14.31-.006.11.038.217.12.29.122.075.258.122.4.14h.31c.299.03.583.145.82.33.172.171.263.408.25.65.003.155-.028.308-.09.45-.064.132-.156.248-.27.34-.126.097-.269.171-.42.22-.182.054-.37.08-.56.08z"/>
        <path d="M0 0H32V32H0z"/>
        <path fill="#84AAAF" fill-rule="nonzero" d="M29.93 11.76c.093-.154.097-.345.01-.502-.086-.158-.25-.257-.43-.26-.18-.004-.347.088-.44.242L26.8 15h-.3c-.28.003-.553.082-.79.23L22.91 13c.06-.16.091-.33.09-.5 0-.828-.672-1.5-1.5-1.5s-1.5.672-1.5 1.5c0 .348.124.685.35.95L18.8 16c-.376-.077-.766-.005-1.09.2l-2.8-2.2c.06-.16.091-.33.09-.5.018-.68-.423-1.287-1.076-1.48-.653-.191-1.353.08-1.706.662-.353.581-.27 1.328.202 1.818L10.68 18h-.18c-.28.003-.553.082-.79.23L6.91 16c.096-.296.096-.614 0-.91-.183-.632-.753-1.072-1.41-1.09-.142 0-.283.02-.42.06-.787.24-1.234 1.07-1 1.86.087.305.274.573.53.76L3.47 20c-.736.01-1.357.549-1.471 1.276-.115.727.312 1.43 1.01 1.665.697.235 1.462-.067 1.81-.715.35-.648.18-1.453-.399-1.906L5.53 17c.142 0 .283-.02.42-.06.13-.043.253-.1.37-.17L9.09 19c-.06.16-.091.33-.09.5-.018.68.423 1.287 1.076 1.48.653.191 1.353-.08 1.706-.662.353-.581.27-1.328-.202-1.818l1.74-3.5h.18c.28-.003.553-.082.79-.23l2.8 2.23c-.06.156-.09.323-.09.49 0 .828.672 1.5 1.5 1.5s1.5-.672 1.5-1.5c0-.348-.124-.685-.35-.95L21.2 14h.3c.28-.003.553-.082.79-.23l2.8 2.23c-.06.156-.09.323-.09.49 0 .828.672 1.5 1.5 1.5s1.5-.672 1.5-1.5c0-.348-.124-.685-.35-.95l2.28-3.78zM3.5 22c-.276 0-.5-.224-.5-.5s.224-.5.5-.5.5.224.5.5-.224.5-.5.5zm2.14-6H5.5c-.179.025-.357-.047-.468-.19-.111-.142-.138-.332-.07-.5.068-.167.22-.285.398-.31h.14c.276-.039.531.154.57.43.039.276-.154.531-.43.57zm4.86 4c-.276 0-.5-.224-.5-.5s.224-.5.5-.5.5.224.5.5-.224.5-.5.5zm3-6c-.276 0-.5-.224-.5-.5s.224-.5.5-.5.5.224.5.5-.224.5-.5.5zm5 4c-.276 0-.5-.224-.5-.5s.224-.5.5-.5.5.224.5.5-.224.5-.5.5zm3-5c-.276 0-.5-.224-.5-.5s.224-.5.5-.5.5.224.5.5-.224.5-.5.5zm5 4c-.276 0-.5-.224-.5-.5s.224-.5.5-.5.5.224.5.5-.224.5-.5.5z"/>
        <rect width="12" height="8" x="2" y="2" fill="#2A2A2A" fill-rule="nonzero" rx="1"/>
        <path fill="#FFF" fill-rule="nonzero" d="M7.74 8.49H4.4v-.57l1.65-1.81c.193-.205.364-.43.51-.67.104-.161.16-.348.16-.54.008-.209-.063-.412-.2-.57-.135-.143-.323-.223-.52-.22-.237-.016-.468.076-.63.25-.158.175-.244.404-.24.64H4.3c-.004-.287.068-.57.21-.82.133-.244.34-.44.59-.56.28-.137.59-.199.9-.18.413-.024.82.108 1.14.37.284.253.438.62.42 1-.006.273-.078.54-.21.78-.185.341-.417.654-.69.93L5.43 7.83h2.31v.66zM8.6 6l.27-2.51h2.67v.72h-2l-.12 1.21c.238-.134.507-.203.78-.2.42-.023.829.146 1.11.46.274.346.413.78.39 1.22.02.446-.138.881-.44 1.21-.32.312-.755.475-1.2.45-.412.014-.814-.125-1.13-.39-.293-.253-.47-.614-.49-1h.81c.013.21.106.407.26.55.151.133.349.201.55.19.231.009.453-.091.6-.27.15-.216.225-.477.21-.74.018-.262-.068-.52-.24-.72-.155-.187-.387-.294-.63-.29-.14.01-.275.048-.4.11-.126.057-.24.134-.34.23L8.6 6z"/>
    </g>
</svg>
