<svg xmlns="http://www.w3.org/2000/svg" width="32" height="32" viewBox="0 0 32 32">
    <g fill="none" fill-rule="evenodd">
        <circle cx="25" cy="25" r="5" fill="#EF4852" fill-rule="nonzero"/>
        <path fill="#FFF" fill-rule="nonzero" d="M22.15 27.23L22.15 26.62 23.42 26.62 23.42 23.23 23.37 23.23 22.32 24.35 21.87 23.95 23 22.69 24.12 22.69 24.12 26.62 25.23 26.62 25.23 27.23zM26.79 27.31c-.534.022-1.045-.216-1.37-.64l.46-.42c.113.149.256.272.42.36.163.086.345.131.53.13.166.012.33-.03.47-.12.1-.084.156-.21.15-.34 0-.104-.04-.204-.11-.28-.104-.086-.235-.136-.37-.14h-.31c-.295-.025-.578-.129-.82-.3-.204-.177-.312-.44-.29-.71-.004-.152.027-.302.09-.44.06-.123.146-.232.25-.32.12-.093.255-.164.4-.21.166-.045.338-.069.51-.07.254-.008.507.04.74.14.198.098.375.234.52.4l-.43.42c-.096-.114-.216-.206-.35-.27-.147-.08-.312-.12-.48-.12-.153-.014-.306.029-.43.12-.094.074-.146.19-.14.31-.006.11.038.217.12.29.122.075.258.122.4.14h.31c.299.03.583.145.82.33.172.171.263.408.25.65.003.155-.028.308-.09.45-.064.132-.156.248-.27.34-.126.097-.269.171-.42.22-.182.054-.37.08-.56.08z"/>
        <path d="M0 0H32V32H0z"/>
        <path fill="#84AAAF" fill-rule="nonzero" d="M29.93 11.76c.093-.154.097-.345.01-.502-.086-.158-.25-.257-.43-.26-.18-.004-.347.088-.44.242L26.8 15h-.3c-.28.003-.553.082-.79.23L22.91 13c.06-.16.091-.33.09-.5 0-.828-.672-1.5-1.5-1.5s-1.5.672-1.5 1.5c0 .348.124.685.35.95L18.8 16c-.376-.077-.766-.005-1.09.2l-2.8-2.2c.06-.16.091-.33.09-.5.018-.68-.423-1.287-1.076-1.48-.653-.191-1.353.08-1.706.662-.353.581-.27 1.328.202 1.818L10.68 18h-.18c-.28.003-.553.082-.79.23L6.91 16c.096-.296.096-.614 0-.91-.183-.632-.753-1.072-1.41-1.09-.142 0-.283.02-.42.06-.787.24-1.234 1.07-1 1.86.087.305.274.573.53.76L3.47 20c-.736.01-1.357.549-1.471 1.276-.115.727.312 1.43 1.01 1.665.697.235 1.462-.067 1.81-.715.35-.648.18-1.453-.399-1.906L5.53 17c.142 0 .283-.02.42-.06.13-.043.253-.1.37-.17L9.09 19c-.06.16-.091.33-.09.5-.018.68.423 1.287 1.076 1.48.653.191 1.353-.08 1.706-.662.353-.581.27-1.328-.202-1.818l1.74-3.5h.18c.28-.003.553-.082.79-.23l2.8 2.23c-.06.156-.09.323-.09.49 0 .828.672 1.5 1.5 1.5s1.5-.672 1.5-1.5c0-.348-.124-.685-.35-.95L21.2 14h.3c.28-.003.553-.082.79-.23l2.8 2.23c-.06.156-.09.323-.09.49 0 .828.672 1.5 1.5 1.5s1.5-.672 1.5-1.5c0-.348-.124-.685-.35-.95l2.28-3.78zM3.5 22c-.276 0-.5-.224-.5-.5s.224-.5.5-.5.5.224.5.5-.224.5-.5.5zm2.14-6H5.5c-.179.025-.357-.047-.468-.19-.111-.142-.138-.332-.07-.5.068-.167.22-.285.398-.31h.14c.276-.039.531.154.57.43.039.276-.154.531-.43.57zm4.86 4c-.276 0-.5-.224-.5-.5s.224-.5.5-.5.5.224.5.5-.224.5-.5.5zm3-6c-.276 0-.5-.224-.5-.5s.224-.5.5-.5.5.224.5.5-.224.5-.5.5zm5 4c-.276 0-.5-.224-.5-.5s.224-.5.5-.5.5.224.5.5-.224.5-.5.5zm3-5c-.276 0-.5-.224-.5-.5s.224-.5.5-.5.5.224.5.5-.224.5-.5.5zm5 4c-.276 0-.5-.224-.5-.5s.224-.5.5-.5.5.224.5.5-.224.5-.5.5z"/>
        <rect width="12" height="8" x="2" y="2" fill="#2A2A2A" fill-rule="nonzero" rx="1"/>
        <path fill="#FFF" fill-rule="nonzero" d="M5.11 8.4L6.88 4.17 5 4.17 5 5.07 4.36 5.07 4.36 3.51 7.67 3.51 7.67 4.2 6 8.4zM11.39 4.2H9.22L9.1 5.93c.053-.091.113-.178.18-.26.057-.079.128-.147.21-.2.081-.06.173-.103.27-.13.123-.017.247-.017.37 0 .199 0 .395.037.58.11.176.066.336.168.47.3.137.136.243.3.31.48.08.204.117.421.11.64.002.228-.035.455-.11.67-.15.41-.477.73-.89.87-.237.087-.488.131-.74.13-.196.002-.392-.025-.58-.08-.158-.043-.31-.107-.45-.19-.119-.083-.229-.177-.33-.28-.093-.105-.18-.215-.26-.33l.58-.45c.058.09.121.178.19.26.063.08.137.15.22.21.085.062.18.11.28.14.117.033.238.05.36.05.246.025.49-.062.667-.236.176-.174.265-.417.243-.664v-.13c.022-.247-.067-.49-.243-.664-.176-.174-.42-.26-.667-.236-.175-.008-.348.034-.5.12-.12.074-.227.165-.32.27l-.65-.09.18-2.73h2.77l.04.69z"/>
    </g>
</svg>
