<svg width="32" height="32" fill="none" xmlns="http://www.w3.org/2000/svg"><path d="M25 30a5 5 0 1 0 0-10 5 5 0 0 0 0 10Z" fill="#EF4852"/><path d="M22.15 27.23v-.61h1.27v-3.39h-.05l-1.05 1.12-.45-.4L23 22.69h1.12v3.93h1.11v.61h-3.08Zm4.64.08a1.64 1.64 0 0 1-1.37-.64l.46-.42a1.3 1.3 0 0 0 .42.36c.163.087.345.131.53.13a.76.76 0 0 0 .47-.12.42.42 0 0 0 .15-.34.41.41 0 0 0-.11-.28.61.61 0 0 0-.37-.14h-.31a1.66 1.66 0 0 1-.82-.3.85.85 0 0 1-.29-.71 1 1 0 0 1 .09-.44 1.01 1.01 0 0 1 .25-.32 1.27 1.27 0 0 1 .4-.21c.166-.045.338-.068.51-.07.254-.008.506.04.74.14.198.098.375.234.52.4l-.43.42a1.06 1.06 0 0 0-.35-.27 1 1 0 0 0-.48-.12.63.63 0 0 0-.43.12.37.37 0 0 0-.14.31.36.36 0 0 0 .12.29 1 1 0 0 0 .4.14h.31a1.6 1.6 0 0 1 .82.33.85.85 0 0 1 .25.65 1.06 1.06 0 0 1-.09.45 1 1 0 0 1-.27.34 1.4 1.4 0 0 1-.42.22 1.93 1.93 0 0 1-.56.08Z" fill="#fff"/><path d="M29.93 11.76a.502.502 0 1 0-.86-.52L26.8 15h-.3c-.28.002-.553.082-.79.23L22.91 13c.06-.16.091-.33.09-.5a1.5 1.5 0 1 0-3 0c0 .348.124.685.35.95L18.8 16a1.48 1.48 0 0 0-1.09.2l-2.8-2.2c.06-.16.091-.33.09-.5a1.5 1.5 0 1 0-2.58 1L10.68 18h-.18c-.28.002-.553.082-.79.23L6.91 16a1.48 1.48 0 0 0 0-.91A1.51 1.51 0 0 0 5.5 14c-.142 0-.284.02-.42.06a1.5 1.5 0 0 0-1 1.86c.087.305.274.572.53.76L3.47 20a1.51 1.51 0 1 0 .95.32L5.53 17c.142 0 .283-.02.42-.06.129-.043.253-.1.37-.17L9.09 19c-.061.16-.092.329-.09.5a1.5 1.5 0 1 0 2.58-1l1.74-3.5h.18a1.52 1.52 0 0 0 .79-.23l2.8 2.23a1.37 1.37 0 0 0-.09.49 1.5 1.5 0 0 0 3 0 1.46 1.46 0 0 0-.35-.95L21.2 14h.3a1.52 1.52 0 0 0 .79-.23l2.8 2.23a1.37 1.37 0 0 0-.09.49 1.5 1.5 0 0 0 3 0 1.46 1.46 0 0 0-.35-.95l2.28-3.78ZM3.5 22a.5.5 0 1 1 0-1 .5.5 0 0 1 0 1Zm2.14-6H5.5a.505.505 0 0 1-.14-1h.14a.505.505 0 1 1 .14 1Zm4.86 4a.5.5 0 1 1 0-1 .5.5 0 0 1 0 1Zm3-6a.5.5 0 1 1 0-1 .5.5 0 0 1 0 1Zm5 4a.5.5 0 1 1 0-1 .5.5 0 0 1 0 1Zm3-5a.5.5 0 1 1 0-1 .5.5 0 0 1 0 1Zm5 4a.5.5 0 1 1 0-1 .5.5 0 0 1 0 1Z" fill="#84AAAF"/><path d="M17 2H3a1 1 0 0 0-1 1v6a1 1 0 0 0 1 1h14a1 1 0 0 0 1-1V3a1 1 0 0 0-1-1Z" fill="#2A2A2A"/><path d="M7.454 8.443H4.136v-.756l1.561-1.393c.248-.224.437-.437.567-.637a1.15 1.15 0 0 0 .203-.644v-.091c0-.238-.072-.425-.217-.56-.14-.136-.33-.203-.574-.203a.938.938 0 0 0-.357.063.781.781 0 0 0-.259.16.981.981 0 0 0-.189.246 1.54 1.54 0 0 0-.112.3l-.693-.265c.052-.154.122-.301.21-.441a1.547 1.547 0 0 1 .812-.651 1.97 1.97 0 0 1 .651-.098c.248 0 .47.037.665.112.196.07.36.17.49.3.136.127.238.278.308.456.07.177.105.37.105.58 0 .197-.03.379-.09.547a1.948 1.948 0 0 1-.253.476 2.93 2.93 0 0 1-.378.427c-.14.135-.289.273-.448.413L4.99 7.77h2.464v.672Zm2.511.084c-.304 0-.567-.056-.791-.168a1.487 1.487 0 0 1-.553-.497 2.305 2.305 0 0 1-.322-.791A4.928 4.928 0 0 1 8.194 6c0-.397.035-.752.105-1.064.07-.318.177-.584.322-.798a1.43 1.43 0 0 1 .553-.49 1.69 1.69 0 0 1 .79-.175c.607 0 1.053.221 1.338.665.289.443.434 1.064.434 1.862s-.145 1.418-.434 1.862c-.285.443-.73.665-1.337.665Zm0-.672c.168 0 .31-.033.427-.098a.808.808 0 0 0 .294-.294c.074-.126.128-.276.16-.448.033-.178.05-.374.05-.588v-.854c0-.215-.017-.409-.05-.581a1.378 1.378 0 0 0-.16-.455.816.816 0 0 0-.721-.392.854.854 0 0 0-.434.105.77.77 0 0 0-.287.287 1.376 1.376 0 0 0-.161.455 3.14 3.14 0 0 0-.05.58v.855c0 .214.017.41.05.588.032.172.086.322.16.448a.829.829 0 0 0 .288.294.903.903 0 0 0 .434.098Zm4.197.672a1.75 1.75 0 0 1-.791-.168 1.487 1.487 0 0 1-.553-.497 2.306 2.306 0 0 1-.322-.791A4.928 4.928 0 0 1 12.39 6c0-.397.035-.752.105-1.064.07-.318.177-.584.322-.798a1.43 1.43 0 0 1 .553-.49 1.69 1.69 0 0 1 .79-.175c.608 0 1.053.221 1.338.665.29.443.434 1.064.434 1.862s-.145 1.418-.434 1.862c-.285.443-.73.665-1.337.665Zm0-.672c.168 0 .31-.033.427-.098a.806.806 0 0 0 .294-.294c.075-.126.128-.276.16-.448.034-.178.05-.374.05-.588v-.854c0-.215-.016-.409-.05-.581a1.374 1.374 0 0 0-.16-.455.816.816 0 0 0-.721-.392.854.854 0 0 0-.434.105.77.77 0 0 0-.287.287 1.378 1.378 0 0 0-.161.455 3.145 3.145 0 0 0-.05.58v.855c0 .214.017.41.05.588.033.172.086.322.16.448a.837.837 0 0 0 .288.294.903.903 0 0 0 .434.098Z" fill="#fff"/></svg>