<svg width="33" height="32" viewBox="0 0 33 32" fill="none" xmlns="http://www.w3.org/2000/svg">
<path d="M23.166 13.0001H24.666V22H23.166V32H22.166V22H20.666V13.0001H22.166V11.0001H23.166V13.0001Z" fill="#85ACB0"/>
<path d="M30.666 11V18H29.166V22H28.166V18H26.666V11H30.666Z" fill="#85ACB0"/>
<path d="M17.166 20V16H16.166V20H14.666V28H16.166V30H17.166V28H18.666V20H17.166Z" fill="#85ACB0"/>
<path d="M11.166 15H12.666V21H11.166V28H10.166V21H8.66602V15H10.166V13H11.166V15Z" fill="#85ACB0"/>
<path d="M5.16602 19H6.66602V23H5.16602V25H4.16602V23H2.66602V19H4.16602V17H5.16602V19Z" fill="#85ACB0"/>
<path d="M0.666016 2C0.666016 0.89543 1.56145 0 2.66602 0H12.666C13.7706 0 14.666 0.895431 14.666 2V8C14.666 9.10457 13.7706 10 12.666 10H2.66602C1.56145 10 0.666016 9.10457 0.666016 8V2Z" fill="#0E0E0E"/>
<path d="M7.04433 3.46431H4.50833L4.38833 5.23231H4.45233C4.50566 5.09898 4.56433 4.97898 4.62833 4.87231C4.69766 4.76031 4.77766 4.66698 4.86833 4.59231C4.95899 4.51231 5.06833 4.45098 5.19633 4.40831C5.32433 4.36565 5.47633 4.34431 5.65233 4.34431C5.89233 4.34431 6.11633 4.38431 6.32433 4.46431C6.53233 4.54431 6.71366 4.66165 6.86833 4.81631C7.02299 4.96565 7.14566 5.15231 7.23633 5.37631C7.32699 5.59498 7.37233 5.84298 7.37233 6.12031C7.37233 6.40298 7.32433 6.66698 7.22833 6.91231C7.13766 7.15231 6.99899 7.36031 6.81233 7.53631C6.631 7.71231 6.40699 7.85098 6.14033 7.95231C5.87366 8.04831 5.56966 8.09631 5.22833 8.09631C4.95633 8.09631 4.71633 8.06698 4.50833 8.00831C4.30033 7.94965 4.11633 7.87231 3.95633 7.77631C3.79633 7.67498 3.65766 7.56031 3.54033 7.43231C3.42299 7.30431 3.32166 7.16831 3.23633 7.02431L4.10833 6.33631C4.23099 6.55498 4.37766 6.74165 4.54833 6.89631C4.71899 7.04565 4.94833 7.12031 5.23633 7.12031C5.52433 7.12031 5.74033 7.03765 5.88433 6.87231C6.03366 6.70698 6.10833 6.48831 6.10833 6.21631V6.15231C6.10833 5.89631 6.03366 5.69365 5.88433 5.54431C5.73499 5.39498 5.52966 5.32031 5.26833 5.32031C5.04966 5.32031 4.86833 5.36565 4.72433 5.45631C4.58566 5.54165 4.47899 5.62698 4.40433 5.71231L3.42033 5.57631L3.62833 2.41631H7.04433V3.46431Z" fill="white"/>
<path d="M10.0652 8.09631C9.33454 8.09631 8.7932 7.84298 8.4412 7.33631C8.0892 6.82965 7.9132 6.12031 7.9132 5.20831C7.9132 4.29631 8.0892 3.58698 8.4412 3.08031C8.7932 2.57365 9.33454 2.32031 10.0652 2.32031C10.7959 2.32031 11.3372 2.57365 11.6892 3.08031C12.0412 3.58698 12.2172 4.29631 12.2172 5.20831C12.2172 6.12031 12.0412 6.82965 11.6892 7.33631C11.3372 7.84298 10.7959 8.09631 10.0652 8.09631ZM10.0652 7.08031C10.3852 7.08031 10.6065 6.96298 10.7292 6.72831C10.8519 6.49365 10.9132 6.16298 10.9132 5.73631V4.68031C10.9132 4.25365 10.8519 3.92298 10.7292 3.68831C10.6065 3.45365 10.3852 3.33631 10.0652 3.33631C9.7452 3.33631 9.52387 3.45365 9.4012 3.68831C9.27854 3.92298 9.2172 4.25365 9.2172 4.68031V5.73631C9.2172 6.16298 9.27854 6.49365 9.4012 6.72831C9.52387 6.96298 9.7452 7.08031 10.0652 7.08031Z" fill="white"/>
</svg>
