<svg xmlns="http://www.w3.org/2000/svg" width="32" height="32"><g fill="none" fill-rule="evenodd"><circle cx="25" cy="25" r="5" fill="#EF4852" fill-rule="nonzero"/><path d="M0 0h32v32H0z"/><path fill="#FFF" fill-rule="nonzero" d="M22.15 27.23v-.61h1.27v-3.39h-.05l-1.05 1.12-.45-.4L23 22.69h1.12v3.93h1.11v.61zm4.64.08a1.64 1.64 0 0 1-1.37-.64l.46-.42c.113.149.256.272.42.36.163.086.345.131.53.13.166.012.33-.03.47-.12a.42.42 0 0 0 .15-.34.414.414 0 0 0-.11-.28.612.612 0 0 0-.37-.14h-.31a1.665 1.665 0 0 1-.82-.3.848.848 0 0 1-.29-.71.995.995 0 0 1 .09-.44.988.988 0 0 1 .25-.32c.12-.093.255-.164.4-.21.166-.045.338-.069.51-.07.254-.008.507.04.74.14.198.098.375.234.52.4l-.43.42a1.049 1.049 0 0 0-.35-.27 1.002 1.002 0 0 0-.48-.12.63.63 0 0 0-.43.12.371.371 0 0 0-.14.31.362.362 0 0 0 .12.29c.122.075.258.122.4.14h.31c.299.03.583.145.82.33a.853.853 0 0 1 .25.65c.003.155-.028.308-.09.45a.993.993 0 0 1-.27.34 1.395 1.395 0 0 1-.42.22c-.182.054-.37.08-.56.08z"/><path fill="#84AAAF" fill-rule="nonzero" d="M29.93 12.76a.5.5 0 0 0-.42-.762.5.5 0 0 0-.44.242L26.8 16h-.3a1.52 1.52 0 0 0-.79.23L22.91 14c.06-.16.091-.33.09-.5a1.5 1.5 0 0 0-3 0c0 .348.124.685.35.95L18.8 17a1.481 1.481 0 0 0-1.09.2l-2.8-2.2c.06-.16.091-.33.09-.5a1.502 1.502 0 0 0-1.076-1.48 1.502 1.502 0 0 0-1.504 2.48L10.68 19h-.18a1.52 1.52 0 0 0-.79.23L6.91 17a1.474 1.474 0 0 0 0-.91A1.51 1.51 0 0 0 5.5 15c-.142 0-.283.02-.42.06a1.5 1.5 0 0 0-1 1.86c.087.305.274.573.53.76L3.47 21a1.51 1.51 0 1 0 .95.32L5.53 18c.142 0 .283-.02.42-.06.13-.043.253-.1.37-.17L9.09 20c-.06.16-.091.33-.09.5a1.502 1.502 0 0 0 1.076 1.48 1.502 1.502 0 0 0 1.504-2.48l1.74-3.5h.18a1.52 1.52 0 0 0 .79-.23l2.8 2.23c-.06.156-.09.323-.09.49a1.5 1.5 0 0 0 3 0c0-.348-.124-.685-.35-.95L21.2 15h.3a1.52 1.52 0 0 0 .79-.23l2.8 2.23c-.06.156-.09.323-.09.49a1.5 1.5 0 0 0 3 0c0-.348-.124-.685-.35-.95l2.28-3.78zM3.5 23a.5.5 0 1 1 0-1 .5.5 0 0 1 0 1zm2.14-6H5.5a.503.503 0 0 1-.538-.69.506.506 0 0 1 .398-.31h.14a.505.505 0 0 1 .14 1zm4.86 4a.5.5 0 1 1 0-1 .5.5 0 0 1 0 1zm3-6a.5.5 0 1 1 0-1 .5.5 0 0 1 0 1zm5 4a.5.5 0 1 1 0-1 .5.5 0 0 1 0 1zm3-5a.5.5 0 1 1 0-1 .5.5 0 0 1 0 1zm5 4a.5.5 0 1 1 0-1 .5.5 0 0 1 0 1z"/><rect width="11" height="8" x="2" y="2" fill="#2A2A2A" fill-rule="nonzero" rx="1"/><path fill="#FFF" fill-rule="nonzero" d="M4.258 8.26v-.564h1.176V4.564h-.048l-.972 1.038L4 5.23l1.068-1.158H6.1v3.624h1.02v.564H4.258zm5.26.072c-.26 0-.486-.049-.678-.147-.192-.098-.35-.239-.474-.423s-.216-.41-.276-.678A4.224 4.224 0 0 1 8 6.166c0-.34.03-.645.09-.915s.152-.497.276-.681a1.25 1.25 0 0 1 .474-.423c.192-.098.418-.147.678-.147.52 0 .903.19 1.149.57.246.38.369.912.369 1.596s-.123 1.216-.369 1.596c-.246.38-.629.57-1.149.57zm0-.576a.735.735 0 0 0 .369-.087.676.676 0 0 0 .249-.249c.064-.108.11-.237.138-.387a2.74 2.74 0 0 0 .042-.501V5.8a2.74 2.74 0 0 0-.042-.501 1.178 1.178 0 0 0-.138-.387.676.676 0 0 0-.249-.249c-.102-.058-.225-.087-.369-.087s-.267.029-.369.087a.676.676 0 0 0-.249.249c-.064.108-.11.237-.138.387a2.74 2.74 0 0 0-.042.501v.732c0 .184.014.351.042.501.028.15.074.279.138.387a.676.676 0 0 0 .249.249.735.735 0 0 0 .369.087z"/></g></svg>