<svg width="33" height="32" fill="none" xmlns="http://www.w3.org/2000/svg"><path d="M2.113 11a9 9 0 1 1 18 0 9 9 0 0 1-18 0Z" fill="#131F37"/><path d="M13.447 7.633a.518.518 0 1 1-.577-.86.518.518 0 0 1 .577.86ZM14.03 14.94a.517.517 0 1 1-.576-.859.517.517 0 0 1 .577.858ZM13.308 9.014a.434.434 0 1 0-.002-.868.434.434 0 0 0 .002.868ZM14.707 9.107a.434.434 0 1 1-.484-.721.434.434 0 0 1 .484.72ZM13.16 10.114a.37.37 0 1 0 0-.74.37.37 0 0 0 0 .74ZM14.523 10.207a.37.37 0 1 1-.412-.615.37.37 0 0 1 .412.615ZM15.244 10.63a.37.37 0 1 0-.001-.74.37.37 0 0 0 .001.74ZM14.155 11.102a.323.323 0 1 1-.36-.537.323.323 0 0 1 .36.537ZM12.818 11a.325.325 0 0 0 .317-.387.324.324 0 0 0-.586-.116.324.324 0 0 0 .27.503ZM15.09 11.463a.323.323 0 1 1-.36-.536.323.323 0 0 1 .36.536ZM13.513 11.831a.277.277 0 1 0-.002-.555.277.277 0 0 0 .002.555ZM14.601 12.136a.277.277 0 1 1-.309-.46.277.277 0 0 1 .31.46ZM12.364 11.665a.278.278 0 0 0 .054-.55.278.278 0 1 0-.054.55ZM13.133 12.245a.231.231 0 1 1-.258-.385.231.231 0 0 1 .258.385ZM13.401 12.92a.203.203 0 1 0 0-.405.203.203 0 0 0 0 .405ZM13.002 13.022a.167.167 0 1 1-.185-.276.167.167 0 0 1 .185.276ZM12.476 12.57a.203.203 0 1 0-.001-.405.203.203 0 0 0 0 .405ZM11.974 12.088a.231.231 0 1 1-.258-.384.231.231 0 0 1 .258.384ZM11.836 10.39a.231.231 0 1 0-.001-.462.231.231 0 0 0 .001.462ZM12.05 9.543a.203.203 0 1 1-.226-.338.203.203 0 0 1 .227.338ZM12.16 8.912a.166.166 0 1 0-.001-.332.166.166 0 0 0 .001.332ZM11.884 8.565a.203.203 0 1 1-.227-.338.203.203 0 0 1 .227.338ZM13.93 12.635a.231.231 0 1 0-.002-.463.231.231 0 0 0 .001.463ZM11.372 8.29a.231.231 0 1 1-.258-.383.231.231 0 0 1 .258.383ZM11.401 9.31a.231.231 0 1 0-.001-.462.231.231 0 0 0 .001.462ZM11.296 10.195a.277.277 0 1 1-.31-.46.277.277 0 0 1 .31.46ZM10.299 10.242a.323.323 0 1 0-.003-.646.323.323 0 0 0 .003.646ZM9.522 10.402a.37.37 0 1 1-.412-.615.37.37 0 0 1 .412.615ZM8.243 10.99a.434.434 0 1 0-.002-.867.434.434 0 0 0 .002.868ZM7.419 11.79a.518.518 0 1 1-.577-.86.518.518 0 0 1 .577.86ZM7.808 9.91a.434.434 0 1 0-.002-.868.434.434 0 0 0 .002.868ZM9.087 9.321a.37.37 0 1 1-.412-.614.37.37 0 0 1 .412.614ZM8.725 8.404a.37.37 0 1 0-.003-.739.37.37 0 0 0 .003.74ZM9.886 8.128a.323.323 0 1 1-.361-.537.323.323 0 0 1 .36.537ZM10.549 8.183a.277.277 0 1 0-.002-.555.277.277 0 0 0 .002.555ZM10.86 9.114a.278.278 0 1 1-.309-.46.278.278 0 0 1 .31.46ZM9.864 9.171a.323.323 0 1 0-.001-.646.323.323 0 0 0 .001.646ZM9.04 11.6a.167.167 0 0 1-.21-.02.167.167 0 0 1 .053-.272.166.166 0 0 1 .156.292ZM9.614 11.545a.204.204 0 1 0-.003-.407.204.204 0 0 0 .003.407ZM10.474 11.229a.231.231 0 1 1-.258-.385.231.231 0 0 1 .258.385ZM10.521 12.007a.277.277 0 1 0 0-.554.277.277 0 0 0 0 .554ZM9.76 12.143a.232.232 0 0 1-.32-.32.231.231 0 1 1 .32.32ZM8.845 12.173a.203.203 0 1 0-.001-.406.203.203 0 0 0 .001.406ZM8.983 12.771a.231.231 0 1 1-.258-.384.231.231 0 0 1 .258.384ZM9.799 12.93a.277.277 0 1 0-.001-.554.277.277 0 0 0 0 .554ZM11.08 12.756a.324.324 0 1 1-.36-.539.324.324 0 0 1 .36.539ZM11.55 13.614a.37.37 0 1 0-.003-.74.37.37 0 0 0 .003.74ZM10.367 13.67a.324.324 0 1 1-.36-.539.324.324 0 0 1 .36.54ZM9.419 14.353a.324.324 0 1 0-.002-.647.324.324 0 0 0 .002.647ZM10.263 15.103a.37.37 0 1 1-.411-.615.37.37 0 0 1 .411.615ZM11.762 15.314a.434.434 0 1 0-.002-.868.434.434 0 0 0 .002.868ZM11.032 14.475a.37.37 0 1 1-.412-.615.37.37 0 0 1 .412.615ZM12.475 14.39a.435.435 0 1 0-.002-.869.435.435 0 0 0 .002.87ZM9.185 13.512a.277.277 0 1 1-.31-.46.277.277 0 0 1 .31.46Z" fill="#fff"/><path d="M12.113 21a9 9 0 1 1 18 0 9 9 0 0 1-18 0Z" fill="#fff"/><path fill-rule="evenodd" clip-rule="evenodd" d="M20.733 12c-1.734.1-3.334.69-4.667 1.633h10.386A8.956 8.956 0 0 0 21.784 12H20.733Zm-6.427 3.266a8.985 8.985 0 0 0-1.068 1.633H29.28a8.978 8.978 0 0 0-1.068-1.633H14.306ZM12.15 20.18c.05-.56.15-1.106.299-1.633h17.317c.148.527.249 1.072.298 1.633H12.15Zm.004 1.633c.052.561.157 1.107.308 1.633h17.29a8.897 8.897 0 0 0 .309-1.633H12.154Zm2.039 4.899a8.99 8.99 0 0 1-1.083-1.633h15.994a8.987 8.987 0 0 1-1.082 1.633H14.193Zm6.534 3.256.027.001.027.001a8.86 8.86 0 0 0 5.455-1.625H15.979a8.859 8.859 0 0 0 4.748 1.623Z" fill="#F44336"/><path d="M20.922 12.005a8.991 8.991 0 0 0-8.77 8.178h8.77v-8.178Z" fill="#283991"/><path d="m13.913 17.085.137.421h.444l-.36.26.138.422-.36-.26-.358.26.137-.422-.359-.26h.444l.137-.421ZM13.913 18.572l.137.422h.444l-.36.26.138.421-.36-.26-.358.26.137-.421-.359-.26h.444l.137-.422ZM15.404 14.853l.137.421h.444l-.36.261.138.421-.36-.26-.358.26.137-.421-.36-.26h.445l.137-.422ZM15.404 16.341l.137.421h.444l-.36.26.138.422-.36-.26-.358.26.137-.422-.36-.26h.445l.137-.421ZM15.404 17.829l.137.421h.444l-.36.26.138.421-.36-.26-.358.26.137-.421-.36-.26h.445l.137-.421ZM12.781 18.931l-.137-.421.359-.26h-.444l-.01-.03a8.58 8.58 0 0 0-.133.456l.006-.005.36.26ZM13.554 16.7l.359-.26.359.26-.137-.421.359-.26h-.444l-.137-.422-.137.421h-.164l-.09.139.169.122-.137.421ZM15.404 14.208l.359.26-.137-.42.358-.261h-.256a8.944 8.944 0 0 0-.63.515l-.054.166.36-.26ZM16.535 13.725l.36-.26.358.26-.137-.422.36-.26h-.444l-.02-.057c-.15.077-.298.157-.444.242l.104.075-.137.422ZM16.895 14.11l.137.42h.443l-.359.261.137.421-.358-.26-.36.26.138-.421-.36-.26h.444l.137-.421ZM16.895 15.597l.137.421h.443l-.359.26.137.422-.358-.26-.36.26.138-.421-.36-.26h.444l.137-.422ZM16.895 17.085l.137.421h.443l-.359.26.137.422-.358-.26-.36.26.138-.422-.36-.26h.444l.137-.421ZM16.895 18.572l.137.422h.443l-.359.26.137.421-.358-.26-.36.26.138-.421-.36-.26h.444l.137-.422ZM18.385 13.366l.137.42h.444l-.359.261.137.421-.359-.26-.359.26.137-.42-.359-.261h.444l.137-.421ZM18.385 14.853l.137.421h.444l-.359.261.137.421-.359-.26-.359.26.137-.421-.359-.26h.444l.137-.422ZM18.385 16.341l.137.421h.444l-.359.26.137.422-.359-.26-.359.26.137-.422-.359-.26h.444l.137-.421ZM18.385 17.829l.137.421h.444l-.359.26.137.421-.359-.26-.359.26.137-.421-.359-.26h.444l.137-.421ZM19.876 12.622l.137.421h.444l-.359.26.137.422-.359-.26-.359.26.137-.422-.359-.26h.444l.137-.421ZM19.876 14.11l.137.42h.444l-.359.261.137.421-.359-.26-.359.26.137-.421-.359-.26h.444l.137-.421ZM19.876 15.597l.137.421h.444l-.359.26.137.422-.359-.26-.359.26.137-.421-.359-.26h.444l.137-.422ZM19.876 17.085l.137.421h.444l-.359.26.137.422-.359-.26-.359.26.137-.422-.359-.26h.444l.137-.421ZM19.876 18.572l.137.422h.444l-.359.26.137.421-.359-.26-.359.26.137-.421-.359-.26h.444l.137-.422Z" fill="#EFEFEF"/></svg>