<svg width="33" height="32" viewBox="0 0 33 32" fill="none" xmlns="http://www.w3.org/2000/svg">
<path d="M2.11328 11C2.11328 6.02944 6.14272 2 11.1133 2C16.0838 2 20.1133 6.02944 20.1133 11C20.1133 15.9706 16.0838 20 11.1133 20C6.14272 20 2.11328 15.9706 2.11328 11Z" fill="#131F37"/>
<path d="M13.4474 7.63291C13.3625 7.68993 13.2626 7.72052 13.1604 7.72082C13.023 7.72097 12.8912 7.66658 12.7939 7.56958C12.6967 7.47258 12.6419 7.34092 12.6416 7.20355C12.6416 7.1013 12.6719 7.00136 12.7287 6.91632C12.7855 6.83129 12.8662 6.76499 12.9606 6.7258C13.055 6.6866 13.159 6.67627 13.2593 6.69611C13.3596 6.71595 13.4517 6.76506 13.5241 6.83725C13.5965 6.90945 13.6459 7.00147 13.6661 7.10172C13.6862 7.20196 13.6762 7.30592 13.6372 7.40046C13.5983 7.495 13.5322 7.57589 13.4474 7.63291Z" fill="white"/>
<path d="M14.0309 14.9394C13.946 14.9964 13.8461 15.027 13.7438 15.0272C13.6066 15.0273 13.475 14.9729 13.3778 14.8761C13.2806 14.7792 13.2258 14.6478 13.2254 14.5105C13.2252 14.4083 13.2554 14.3082 13.3122 14.2231C13.3689 14.138 13.4495 14.0716 13.544 14.0323C13.6384 13.9931 13.7424 13.9827 13.8427 14.0024C13.9431 14.0222 14.0353 14.0713 14.1078 14.1435C14.1802 14.2157 14.2296 14.3078 14.2498 14.4081C14.2699 14.5083 14.2599 14.6123 14.2209 14.7069C14.182 14.8015 14.1159 14.8824 14.0309 14.9394Z" fill="white"/>
<path d="M13.3084 9.01389C13.3942 9.01366 13.4781 8.98799 13.5493 8.94014C13.6205 8.89229 13.676 8.8244 13.7087 8.74505C13.7414 8.6657 13.7498 8.57844 13.7329 8.4943C13.716 8.41016 13.6746 8.33292 13.6138 8.27232C13.553 8.21172 13.4757 8.17049 13.3915 8.15383C13.3073 8.13718 13.2201 8.14585 13.1408 8.17874C13.0615 8.21164 12.9938 8.26728 12.9462 8.33866C12.8985 8.41003 12.8731 8.49392 12.8731 8.57974C12.8731 8.63684 12.8844 8.69338 12.9063 8.74611C12.9282 8.79885 12.9603 8.84675 13.0007 8.88707C13.0412 8.92739 13.0892 8.95935 13.142 8.98111C13.1948 9.00287 13.2513 9.01401 13.3084 9.01389Z" fill="white"/>
<path d="M14.707 9.10654C14.6357 9.15436 14.5519 9.17997 14.4661 9.18015C14.3508 9.18023 14.2402 9.13454 14.1586 9.05313C14.0771 8.97172 14.0312 8.86124 14.031 8.74599C14.031 8.66016 14.0564 8.57626 14.1041 8.50488C14.1518 8.4335 14.2195 8.37785 14.2988 8.34497C14.3781 8.31208 14.4653 8.30343 14.5495 8.32011C14.6337 8.33679 14.7111 8.37805 14.7718 8.43868C14.8326 8.49931 14.874 8.57658 14.8909 8.66074C14.9077 8.7449 14.8992 8.83217 14.8665 8.91151C14.8338 8.99086 14.7783 9.05873 14.707 9.10654Z" fill="white"/>
<path d="M13.1606 10.1135C13.2336 10.1134 13.3051 10.0916 13.3658 10.0509C13.4265 10.0102 13.4738 9.95242 13.5016 9.88487C13.5295 9.81731 13.5368 9.74301 13.5224 9.67134C13.5081 9.59968 13.4729 9.53387 13.4211 9.48223C13.3694 9.43059 13.3035 9.39545 13.2319 9.38123C13.1602 9.36702 13.0859 9.37437 13.0184 9.40237C12.9509 9.43037 12.8932 9.47774 12.8526 9.53852C12.812 9.5993 12.7903 9.67074 12.7903 9.74382C12.7905 9.84192 12.8296 9.93594 12.899 10.0052C12.9684 10.0745 13.0625 10.1135 13.1606 10.1135Z" fill="white"/>
<path d="M14.5232 10.2075C14.4625 10.2482 14.3911 10.27 14.318 10.2702C14.2695 10.2703 14.2213 10.2608 14.1764 10.2423C14.1315 10.2238 14.0907 10.1966 14.0563 10.1623C14.0219 10.128 13.9946 10.0872 13.9759 10.0424C13.9572 9.99753 13.9476 9.94944 13.9475 9.90086C13.9474 9.82777 13.969 9.75631 14.0096 9.6955C14.0501 9.63469 14.1078 9.58727 14.1753 9.55922C14.2428 9.53117 14.317 9.52375 14.3888 9.53791C14.4605 9.55206 14.5263 9.58716 14.5781 9.63875C14.6299 9.69035 14.6652 9.75613 14.6796 9.82778C14.694 9.89943 14.6868 9.97375 14.6589 10.0413C14.6311 10.1089 14.5839 10.1667 14.5232 10.2075Z" fill="white"/>
<path d="M15.2442 10.6305C15.3173 10.6304 15.3887 10.6086 15.4494 10.568C15.5101 10.5273 15.5574 10.4695 15.5853 10.4019C15.6132 10.3344 15.6204 10.2601 15.6061 10.1884C15.5918 10.1167 15.5565 10.0509 15.5048 9.9993C15.4531 9.94767 15.3872 9.91252 15.3155 9.89831C15.2438 9.88409 15.1695 9.89145 15.102 9.91944C15.0345 9.94744 14.9768 9.99482 14.9362 10.0556C14.8956 10.1164 14.874 10.1878 14.874 10.2609C14.8741 10.359 14.9132 10.453 14.9826 10.5223C15.0521 10.5916 15.1461 10.6305 15.2442 10.6305Z" fill="white"/>
<path d="M14.1552 11.1022C14.1021 11.1378 14.0396 11.1569 13.9757 11.157C13.8898 11.1571 13.8075 11.1231 13.7468 11.0625C13.686 11.0019 13.6518 10.9197 13.6516 10.8339C13.6516 10.7699 13.6705 10.7074 13.7059 10.6542C13.7414 10.6009 13.7919 10.5594 13.8509 10.5349C13.91 10.5103 13.975 10.5039 14.0378 10.5163C14.1005 10.5287 14.1582 10.5594 14.2034 10.6045C14.2487 10.6497 14.2796 10.7073 14.2922 10.77C14.3048 10.8327 14.2985 10.8977 14.2741 10.9569C14.2497 11.016 14.2083 11.0666 14.1552 11.1022Z" fill="white"/>
<path d="M12.8182 10.9999C12.8821 10.9998 12.9446 10.9808 12.9978 10.9453C13.0509 10.9097 13.0923 10.8591 13.1168 10.8C13.1412 10.7409 13.1476 10.6759 13.1351 10.6132C13.1225 10.5505 13.0917 10.4929 13.0465 10.4477C13.0012 10.4024 12.9436 10.3717 12.8809 10.3592C12.8181 10.3468 12.7531 10.3532 12.694 10.3777C12.6349 10.4022 12.5844 10.4436 12.5489 10.4968C12.5134 10.55 12.4944 10.6125 12.4944 10.6765C12.4946 10.7623 12.5288 10.8445 12.5894 10.9051C12.6501 10.9657 12.7324 10.9998 12.8182 10.9999Z" fill="white"/>
<path d="M15.0905 11.4625C15.0374 11.4982 14.9749 11.5172 14.9109 11.5173C14.8251 11.5174 14.7428 11.4834 14.682 11.4228C14.6213 11.3623 14.587 11.28 14.5869 11.1942C14.5868 11.1302 14.6057 11.0677 14.6412 11.0145C14.6767 10.9613 14.7271 10.9198 14.7862 10.8952C14.8453 10.8707 14.9103 10.8642 14.973 10.8766C15.0358 10.889 15.0934 10.9197 15.1387 10.9649C15.184 11.01 15.2149 11.0676 15.2275 11.1303C15.24 11.193 15.2337 11.2581 15.2093 11.3172C15.185 11.3763 15.1436 11.4269 15.0905 11.4625Z" fill="white"/>
<path d="M13.5127 11.8314C13.5675 11.8313 13.6211 11.8149 13.6666 11.7844C13.7121 11.7539 13.7475 11.7105 13.7684 11.6599C13.7893 11.6092 13.7947 11.5535 13.784 11.4997C13.7732 11.446 13.7467 11.3966 13.7079 11.3579C13.6691 11.3192 13.6197 11.2929 13.566 11.2822C13.5122 11.2716 13.4565 11.2771 13.4059 11.2981C13.3553 11.3191 13.312 11.3546 13.2816 11.4002C13.2511 11.4458 13.2349 11.4994 13.2349 11.5542C13.2349 11.5906 13.2421 11.6267 13.2561 11.6604C13.2701 11.694 13.2906 11.7246 13.3164 11.7503C13.3422 11.7761 13.3728 11.7965 13.4065 11.8104C13.4402 11.8243 13.4763 11.8315 13.5127 11.8314Z" fill="white"/>
<path d="M14.6011 12.1356C14.5556 12.1661 14.5021 12.1825 14.4473 12.1826C14.3737 12.1826 14.3031 12.1534 14.251 12.1014C14.1989 12.0495 14.1696 11.9789 14.1694 11.9054C14.1694 11.8506 14.1857 11.797 14.2161 11.7514C14.2465 11.7058 14.2898 11.6703 14.3404 11.6493C14.391 11.6283 14.4468 11.6228 14.5005 11.6334C14.5543 11.6441 14.6037 11.6704 14.6425 11.7091C14.6813 11.7478 14.7077 11.7972 14.7185 11.8509C14.7293 11.9046 14.7239 11.9604 14.703 12.011C14.6821 12.0617 14.6466 12.105 14.6011 12.1356Z" fill="white"/>
<path d="M12.364 11.6648C12.4188 11.6647 12.4724 11.6484 12.518 11.6179C12.5635 11.5874 12.599 11.5441 12.6199 11.4934C12.6409 11.4428 12.6463 11.387 12.6356 11.3333C12.6249 11.2795 12.5984 11.2302 12.5596 11.1914C12.5209 11.1527 12.4715 11.1263 12.4177 11.1156C12.3639 11.105 12.3082 11.1105 12.2576 11.1315C12.2069 11.1524 12.1636 11.188 12.1332 11.2336C12.1027 11.2791 12.0865 11.3327 12.0865 11.3876C12.0866 11.4611 12.1158 11.5316 12.1679 11.5836C12.2199 11.6356 12.2905 11.6648 12.364 11.6648Z" fill="white"/>
<path d="M13.1326 12.2447C13.0947 12.2701 13.05 12.2838 13.0044 12.2839C12.974 12.284 12.9439 12.2781 12.9158 12.2665C12.8878 12.255 12.8622 12.238 12.8407 12.2166C12.8192 12.1951 12.8021 12.1697 12.7905 12.1416C12.7788 12.1136 12.7728 12.0835 12.7727 12.0532C12.7727 12.0075 12.7862 11.9628 12.8115 11.9248C12.8368 11.8868 12.8728 11.8571 12.915 11.8396C12.9572 11.822 13.0036 11.8174 13.0484 11.8262C13.0933 11.835 13.1344 11.857 13.1668 11.8892C13.1992 11.9214 13.2213 11.9625 13.2303 12.0073C13.2393 12.0521 13.2348 12.0986 13.2174 12.1408C13.2 12.183 13.1705 12.2192 13.1326 12.2447Z" fill="white"/>
<path d="M13.4013 12.9202C13.4414 12.9201 13.4806 12.9081 13.5139 12.8857C13.5473 12.8633 13.5732 12.8315 13.5885 12.7944C13.6038 12.7573 13.6077 12.7165 13.5998 12.6771C13.5919 12.6377 13.5725 12.6016 13.5441 12.5732C13.5156 12.5449 13.4794 12.5256 13.4401 12.5178C13.4007 12.51 13.3599 12.5141 13.3228 12.5295C13.2857 12.5449 13.254 12.5709 13.2317 12.6043C13.2094 12.6377 13.1975 12.6769 13.1975 12.7171C13.1975 12.7438 13.2028 12.7703 13.213 12.795C13.2233 12.8196 13.2383 12.8421 13.2572 12.8609C13.2762 12.8798 13.2986 12.8948 13.3233 12.9049C13.348 12.9151 13.3745 12.9203 13.4013 12.9202Z" fill="white"/>
<path d="M13.0022 13.0222C12.9749 13.0405 12.9428 13.0503 12.91 13.0504C12.8658 13.0504 12.8235 13.0329 12.7923 13.0017C12.7611 12.9705 12.7435 12.9283 12.7434 12.8842C12.7434 12.8513 12.7532 12.8192 12.7714 12.7918C12.7897 12.7645 12.8156 12.7432 12.846 12.7306C12.8763 12.718 12.9097 12.7147 12.942 12.7211C12.9742 12.7275 13.0038 12.7433 13.0271 12.7665C13.0504 12.7897 13.0662 12.8193 13.0727 12.8515C13.0791 12.8838 13.0759 12.9172 13.0633 12.9476C13.0508 12.9779 13.0295 13.0039 13.0022 13.0222Z" fill="white"/>
<path d="M12.4755 12.5701C12.5157 12.57 12.5549 12.558 12.5882 12.5356C12.6215 12.5132 12.6475 12.4814 12.6627 12.4443C12.678 12.4072 12.682 12.3664 12.6741 12.327C12.6662 12.2876 12.6468 12.2515 12.6183 12.2232C12.5899 12.1948 12.5537 12.1755 12.5143 12.1677C12.4749 12.1599 12.4341 12.164 12.397 12.1794C12.36 12.1948 12.3283 12.2208 12.306 12.2542C12.2837 12.2876 12.2718 12.3268 12.2718 12.367C12.2718 12.3937 12.2771 12.4202 12.2874 12.4448C12.2976 12.4695 12.3127 12.4919 12.3316 12.5108C12.3505 12.5296 12.3729 12.5446 12.3976 12.5548C12.4223 12.5649 12.4488 12.5702 12.4755 12.5701Z" fill="white"/>
<path d="M11.9739 12.0876C11.936 12.113 11.8914 12.1267 11.8457 12.1268C11.8153 12.1268 11.7852 12.1209 11.7572 12.1093C11.7291 12.0977 11.7036 12.0807 11.6821 12.0593C11.6605 12.0378 11.6435 12.0123 11.6318 11.9843C11.6201 11.9562 11.6141 11.9262 11.6141 11.8958C11.6141 11.8501 11.6276 11.8055 11.653 11.7675C11.6783 11.7295 11.7144 11.6999 11.7566 11.6824C11.7987 11.6649 11.8452 11.6603 11.89 11.6691C11.9348 11.678 11.9759 11.6999 12.0083 11.7322C12.0406 11.7645 12.0627 11.8056 12.0716 11.8503C12.0806 11.8951 12.0761 11.9415 12.0587 11.9838C12.0413 12.026 12.0118 12.0621 11.9739 12.0876Z" fill="white"/>
<path d="M11.8362 10.3903C11.8819 10.3902 11.9265 10.3765 11.9644 10.3511C12.0023 10.3256 12.0318 10.2895 12.0492 10.2473C12.0666 10.205 12.0711 10.1586 12.0621 10.1138C12.0531 10.069 12.0311 10.0279 11.9987 9.99569C11.9664 9.96344 11.9252 9.94149 11.8804 9.93263C11.8356 9.92376 11.7892 9.92837 11.747 9.94588C11.7049 9.96338 11.6688 9.99299 11.6435 10.031C11.6181 10.069 11.6046 10.1136 11.6046 10.1593C11.6046 10.1896 11.6106 10.2197 11.6223 10.2478C11.634 10.2758 11.651 10.3013 11.6725 10.3228C11.694 10.3442 11.7196 10.3612 11.7476 10.3728C11.7757 10.3844 11.8058 10.3903 11.8362 10.3903Z" fill="white"/>
<path d="M12.0509 9.54297C12.0175 9.56537 11.9782 9.57736 11.9379 9.57742C11.9112 9.57746 11.8848 9.57224 11.8601 9.56205C11.8354 9.55187 11.8129 9.53691 11.794 9.51805C11.7751 9.49919 11.7601 9.47679 11.7498 9.45212C11.7395 9.42745 11.7342 9.40101 11.7342 9.3743C11.7341 9.33406 11.746 9.29471 11.7683 9.26123C11.7906 9.22774 11.8224 9.20162 11.8595 9.18617C11.8966 9.17072 11.9375 9.16663 11.977 9.17442C12.0165 9.18221 12.0528 9.20153 12.0813 9.22994C12.1097 9.25835 12.1292 9.29457 12.1371 9.33401C12.145 9.37346 12.141 9.41437 12.1257 9.45157C12.1103 9.48876 12.0843 9.52057 12.0509 9.54297Z" fill="white"/>
<path d="M12.1603 8.91233C12.1931 8.91222 12.2252 8.90237 12.2525 8.88403C12.2797 8.86569 12.3009 8.83969 12.3134 8.80931C12.3259 8.77892 12.3291 8.74552 12.3226 8.71332C12.3162 8.68111 12.3003 8.65155 12.277 8.62836C12.2537 8.60518 12.2241 8.58941 12.1919 8.58304C12.1597 8.57668 12.1263 8.58 12.0959 8.5926C12.0656 8.6052 12.0397 8.6265 12.0214 8.65383C12.0032 8.68115 11.9935 8.71326 11.9935 8.74611C11.9935 8.76798 11.9979 8.78963 12.0063 8.80981C12.0147 8.83 12.027 8.84834 12.0425 8.86377C12.0579 8.87921 12.0763 8.89144 12.0965 8.89977C12.1168 8.9081 12.1384 8.91237 12.1603 8.91233Z" fill="white"/>
<path d="M11.8839 8.56522C11.8505 8.58762 11.8112 8.59961 11.7709 8.59967C11.7442 8.59975 11.7177 8.59456 11.693 8.58438C11.6683 8.57421 11.6458 8.55926 11.6269 8.54039C11.608 8.52152 11.593 8.4991 11.5827 8.47442C11.5725 8.44973 11.5672 8.42327 11.5672 8.39655C11.5672 8.35631 11.579 8.31696 11.6013 8.28348C11.6236 8.24999 11.6554 8.22387 11.6925 8.20842C11.7297 8.19297 11.7706 8.18888 11.81 8.19667C11.8495 8.20446 11.8858 8.22378 11.9143 8.25219C11.9428 8.2806 11.9622 8.31682 11.9701 8.35627C11.978 8.39571 11.974 8.43662 11.9587 8.47382C11.9434 8.51101 11.9173 8.54282 11.8839 8.56522Z" fill="white"/>
<path d="M13.9294 12.6347C13.9751 12.6346 14.0197 12.6209 14.0576 12.5955C14.0955 12.57 14.125 12.5339 14.1424 12.4916C14.1598 12.4494 14.1643 12.4029 14.1553 12.3581C14.1463 12.3134 14.1242 12.2722 14.0918 12.24C14.0595 12.2078 14.0183 12.1859 13.9735 12.177C13.9286 12.1682 13.8822 12.1728 13.84 12.1904C13.7979 12.2079 13.7618 12.2376 13.7365 12.2756C13.7112 12.3136 13.6977 12.3583 13.6978 12.404C13.6978 12.4344 13.7038 12.4644 13.7155 12.4925C13.7271 12.5205 13.7442 12.5459 13.7657 12.5674C13.7873 12.5888 13.8128 12.6058 13.8409 12.6173C13.8689 12.6289 13.899 12.6348 13.9294 12.6347Z" fill="white"/>
<path d="M11.3721 8.29032C11.3342 8.31582 11.2896 8.32952 11.244 8.32969C11.2136 8.32977 11.1835 8.32386 11.1553 8.31229C11.1272 8.30072 11.1017 8.28372 11.0801 8.26226C11.0586 8.2408 11.0415 8.21531 11.0298 8.18724C11.0181 8.15917 11.0121 8.12907 11.0121 8.09866C11.0121 8.05301 11.0256 8.00838 11.0509 7.9704C11.0763 7.93243 11.1123 7.90282 11.1545 7.88531C11.1966 7.86779 11.243 7.86317 11.2878 7.87201C11.3326 7.88085 11.3738 7.90276 11.4061 7.93498C11.4385 7.96721 11.4606 8.00829 11.4696 8.05304C11.4786 8.0978 11.4741 8.14422 11.4568 8.18645C11.4394 8.22868 11.41 8.26483 11.3721 8.29032Z" fill="white"/>
<path d="M11.4012 9.30964C11.4468 9.30952 11.4915 9.29587 11.5294 9.27039C11.5673 9.24492 11.5968 9.20878 11.6142 9.16654C11.6316 9.1243 11.6361 9.07785 11.627 9.03306C11.618 8.98828 11.596 8.94717 11.5636 8.91493C11.5312 8.88269 11.49 8.86077 11.4452 8.85194C11.4004 8.84311 11.354 8.84776 11.3118 8.86531C11.2696 8.88286 11.2336 8.91252 11.2083 8.95054C11.1829 8.98856 11.1695 9.03323 11.1695 9.07891C11.1697 9.14021 11.1942 9.19894 11.2376 9.24221C11.281 9.28547 11.3399 9.30972 11.4012 9.30964Z" fill="white"/>
<path d="M11.2958 10.1955C11.2503 10.226 11.1968 10.2424 11.1419 10.2425C11.1055 10.2425 11.0694 10.2354 11.0357 10.2215C11.002 10.2076 10.9714 10.1871 10.9456 10.1614C10.9198 10.1357 10.8993 10.1051 10.8854 10.0714C10.8714 10.0378 10.8642 10.0017 10.8641 9.96524C10.8641 9.91044 10.8804 9.85686 10.9108 9.81128C10.9412 9.7657 10.9845 9.73017 11.0351 9.70917C11.0857 9.68817 11.1415 9.68264 11.1952 9.69329C11.249 9.70394 11.2984 9.73028 11.3372 9.769C11.376 9.80771 11.4024 9.85705 11.4132 9.91079C11.4239 9.96453 11.4185 10.0203 11.3977 10.0709C11.3768 10.1216 11.3413 10.1649 11.2958 10.1955Z" fill="white"/>
<path d="M10.2988 10.2422C10.3627 10.2419 10.4251 10.2226 10.4781 10.1868C10.531 10.151 10.5722 10.1003 10.5964 10.0411C10.6206 9.98194 10.6267 9.91692 10.6139 9.85427C10.6011 9.79162 10.5701 9.73416 10.5247 9.68914C10.4793 9.64412 10.4216 9.61357 10.3588 9.60133C10.2961 9.5891 10.2311 9.59574 10.1721 9.62041C10.1132 9.64508 10.0628 9.68668 10.0275 9.73995C9.99211 9.79321 9.97334 9.85576 9.97352 9.9197C9.97364 9.96225 9.98215 10.0044 9.99857 10.0436C10.015 10.0829 10.039 10.1185 10.0692 10.1485C10.0994 10.1784 10.1352 10.2021 10.1746 10.2182C10.214 10.2343 10.2562 10.2425 10.2988 10.2422Z" fill="white"/>
<path d="M9.52237 10.4016C9.4617 10.4423 9.39032 10.4641 9.31725 10.4643C9.26864 10.4644 9.22049 10.4549 9.17556 10.4363C9.13062 10.4178 9.08978 10.3906 9.05537 10.3563C9.02096 10.3219 8.99365 10.2811 8.975 10.2363C8.95635 10.1914 8.94674 10.1432 8.9467 10.0946C8.9467 10.0216 8.96835 9.95014 9.00893 9.88937C9.04951 9.8286 9.10719 9.78122 9.17468 9.75322C9.24217 9.72521 9.31645 9.71784 9.38813 9.73203C9.45981 9.74622 9.52568 9.78134 9.57741 9.83294C9.62914 9.88455 9.66442 9.95033 9.67878 10.022C9.69315 10.0936 9.68596 10.1679 9.65811 10.2355C9.63028 10.303 9.58304 10.3608 9.52237 10.4016Z" fill="white"/>
<path d="M8.24288 10.9906C8.32871 10.9905 8.41256 10.9648 8.48384 10.917C8.55512 10.8692 8.61062 10.8013 8.64335 10.722C8.67607 10.6426 8.68454 10.5554 8.66768 10.4712C8.65083 10.3871 8.60941 10.3098 8.54866 10.2492C8.4879 10.1885 8.41054 10.1473 8.32635 10.1306C8.24215 10.1139 8.15491 10.1226 8.07563 10.1555C7.99635 10.1883 7.92859 10.244 7.88093 10.3154C7.83326 10.3867 7.80782 10.4706 7.80782 10.5565C7.80798 10.6717 7.8539 10.7822 7.93548 10.8636C8.01706 10.945 8.12763 10.9907 8.24288 10.9906Z" fill="white"/>
<path d="M7.4188 11.7894C7.3339 11.8464 7.23401 11.8769 7.13175 11.8772C7.06374 11.8772 6.99639 11.8639 6.93352 11.838C6.87066 11.812 6.81353 11.7739 6.76539 11.7259C6.71724 11.6779 6.67903 11.6208 6.65293 11.558C6.62683 11.4952 6.61336 11.4279 6.61328 11.3599C6.61328 11.2576 6.64359 11.1577 6.70037 11.0726C6.75716 10.9876 6.83788 10.9213 6.93232 10.8821C7.02677 10.8429 7.13072 10.8326 7.23102 10.8525C7.33133 10.8723 7.4235 10.9215 7.49589 10.9937C7.56828 11.0659 7.61764 11.158 7.63773 11.2582C7.65783 11.3585 7.64776 11.4625 7.60879 11.557C7.56982 11.6516 7.50371 11.7324 7.4188 11.7894Z" fill="white"/>
<path d="M7.80813 9.90998C7.89395 9.90974 7.97777 9.88408 8.04901 9.83623C8.12025 9.78838 8.17571 9.72049 8.20839 9.64114C8.24106 9.56179 8.24949 9.47453 8.2326 9.39039C8.21572 9.30625 8.17427 9.229 8.11351 9.16841C8.05274 9.10781 7.97538 9.06658 7.89119 9.04992C7.80701 9.03327 7.71978 9.04193 7.64051 9.07483C7.56125 9.10772 7.49352 9.16337 7.44586 9.23474C7.39821 9.30611 7.37278 9.39001 7.37278 9.47582C7.37286 9.53292 7.38418 9.58944 7.4061 9.64215C7.42802 9.69487 7.46011 9.74275 7.50054 9.78307C7.54097 9.82338 7.58894 9.85534 7.64171 9.87712C7.69449 9.89889 7.75104 9.91006 7.80813 9.90998Z" fill="white"/>
<path d="M9.08711 9.32105C9.0264 9.36174 8.95499 9.38352 8.8819 9.38364C8.78381 9.38364 8.68973 9.34471 8.62031 9.27541C8.55089 9.2061 8.51181 9.11208 8.51165 9.01399C8.51165 8.94091 8.53332 8.86946 8.57391 8.80869C8.6145 8.74791 8.6722 8.70053 8.73971 8.67254C8.80721 8.64454 8.88151 8.63719 8.9532 8.6514C9.02489 8.66562 9.09075 8.70076 9.14247 8.7524C9.19419 8.80403 9.22945 8.86984 9.24378 8.94151C9.25811 9.01317 9.25087 9.08748 9.22299 9.15503C9.1951 9.22259 9.14781 9.28036 9.08711 9.32105Z" fill="white"/>
<path d="M8.7246 8.40442C8.79766 8.40413 8.86899 8.38219 8.92959 8.34138C8.99019 8.30057 9.03733 8.24271 9.06507 8.17513C9.09281 8.10754 9.0999 8.03325 9.08545 7.96163C9.07099 7.89002 9.03564 7.8243 8.98385 7.77276C8.93206 7.72123 8.86617 7.68619 8.79449 7.67208C8.7228 7.65798 8.64855 7.66543 8.58109 7.69349C8.51364 7.72156 8.45602 7.76899 8.4155 7.82978C8.37499 7.89058 8.3534 7.96202 8.35346 8.03507C8.35349 8.08372 8.36313 8.13188 8.38182 8.17679C8.40051 8.2217 8.42788 8.26248 8.46236 8.29679C8.49684 8.33111 8.53775 8.35828 8.58275 8.37675C8.62776 8.39521 8.67596 8.40462 8.7246 8.40442Z" fill="white"/>
<path d="M9.88556 8.12778C9.83249 8.16344 9.77003 8.18257 9.70608 8.18274C9.66357 8.18282 9.62146 8.17453 9.58215 8.15833C9.54284 8.14213 9.5071 8.11835 9.47699 8.08835C9.44687 8.05834 9.42296 8.0227 9.40661 7.98345C9.39027 7.9442 9.38182 7.90212 9.38174 7.8596C9.38168 7.79566 9.40058 7.73313 9.43604 7.67992C9.47151 7.62671 9.52195 7.58521 9.58099 7.56065C9.64004 7.5361 9.70503 7.5296 9.76777 7.54197C9.83051 7.55435 9.88817 7.58504 9.93347 7.63017C9.97877 7.6753 10.0097 7.73285 10.0223 7.79554C10.0349 7.85823 10.0286 7.92325 10.0043 7.98239C9.97996 8.04152 9.93864 8.09211 9.88556 8.12778Z" fill="white"/>
<path d="M10.5487 8.18298C10.6035 8.18286 10.6571 8.1665 10.7026 8.13597C10.7481 8.10543 10.7835 8.06209 10.8044 8.01142C10.8253 7.96075 10.8307 7.90503 10.8199 7.85129C10.8092 7.79755 10.7827 7.74821 10.7439 7.7095C10.7051 7.67078 10.6557 7.64444 10.602 7.63379C10.5482 7.62314 10.4925 7.62867 10.4419 7.64967C10.3913 7.67067 10.348 7.7062 10.3176 7.75178C10.2871 7.79736 10.2709 7.85094 10.2709 7.90574C10.271 7.97933 10.3004 8.04984 10.3525 8.10182C10.4045 8.15379 10.4751 8.18298 10.5487 8.18298Z" fill="white"/>
<path d="M10.8601 9.11443C10.8145 9.14498 10.761 9.16134 10.7062 9.16146C10.6326 9.16154 10.562 9.13242 10.5099 9.08049C10.4578 9.02856 10.4285 8.95808 10.4283 8.88453C10.4283 8.82971 10.4445 8.7761 10.4749 8.73048C10.5053 8.68486 10.5485 8.64928 10.5991 8.62824C10.6497 8.60719 10.7055 8.60162 10.7593 8.61224C10.813 8.62285 10.8625 8.64917 10.9013 8.68787C10.9401 8.72657 10.9666 8.77592 10.9774 8.82966C10.9882 8.88341 10.9828 8.93915 10.9619 8.98984C10.941 9.04052 10.9056 9.08388 10.8601 9.11443Z" fill="white"/>
<path d="M9.86428 9.17111C9.92821 9.17094 9.99066 9.15181 10.0437 9.11617C10.0968 9.08052 10.1381 9.02994 10.1625 8.97082C10.1868 8.91171 10.1931 8.8467 10.1805 8.78402C10.1679 8.72134 10.137 8.66379 10.0918 8.61865C10.0465 8.5735 9.98887 8.54279 9.92615 8.53038C9.86343 8.51797 9.79845 8.52443 9.7394 8.54893C9.68035 8.57344 9.62989 8.6149 9.59439 8.66807C9.55889 8.72124 9.53994 8.78374 9.53994 8.84767C9.53998 8.89021 9.5484 8.93233 9.56472 8.97161C9.58105 9.01089 9.60496 9.04657 9.63508 9.07661C9.6652 9.10665 9.70095 9.13046 9.74028 9.14667C9.7796 9.16289 9.82174 9.17119 9.86428 9.17111Z" fill="white"/>
<path d="M9.03945 11.5998C9.01219 11.6181 8.98011 11.6279 8.94726 11.6281C8.90312 11.6281 8.86078 11.6106 8.82952 11.5794C8.79825 11.5483 8.7806 11.506 8.78044 11.4618C8.78044 11.429 8.79018 11.3969 8.80841 11.3696C8.82665 11.3422 8.85258 11.3209 8.88292 11.3083C8.91325 11.2957 8.94665 11.2924 8.97887 11.2988C9.0111 11.3051 9.04072 11.3209 9.06399 11.3441C9.08726 11.3673 9.10314 11.3968 9.10962 11.429C9.1161 11.4612 9.11289 11.4947 9.10041 11.525C9.08792 11.5554 9.0667 11.5814 9.03945 11.5998Z" fill="white"/>
<path d="M9.6136 11.5448C9.65373 11.5446 9.69292 11.5325 9.7262 11.5101C9.75949 11.4877 9.78538 11.4559 9.80062 11.4188C9.81586 11.3816 9.81975 11.3408 9.81181 11.3015C9.80387 11.2621 9.78446 11.226 9.75601 11.1977C9.72757 11.1694 9.69138 11.1501 9.652 11.1424C9.61262 11.1346 9.57182 11.1387 9.53476 11.1541C9.49769 11.1695 9.46602 11.1955 9.44374 11.2289C9.42146 11.2623 9.40957 11.3015 9.40957 11.3416C9.40961 11.3684 9.41492 11.3949 9.4252 11.4195C9.43548 11.4442 9.45052 11.4666 9.46947 11.4855C9.48842 11.5044 9.5109 11.5193 9.53564 11.5295C9.56037 11.5397 9.58686 11.5448 9.6136 11.5448Z" fill="white"/>
<path d="M10.4737 11.2286C10.4358 11.254 10.3911 11.2676 10.3455 11.2677C10.2842 11.2677 10.2254 11.2434 10.182 11.2001C10.1386 11.1567 10.1142 11.098 10.1141 11.0367C10.1141 10.991 10.1277 10.9463 10.1531 10.9084C10.1784 10.8704 10.2145 10.8408 10.2567 10.8233C10.2989 10.8058 10.3453 10.8012 10.3901 10.8101C10.4349 10.819 10.4761 10.8409 10.5084 10.8732C10.5407 10.9055 10.5628 10.9466 10.5717 10.9914C10.5807 11.0362 10.5761 11.0827 10.5587 11.1249C10.5413 11.1671 10.5117 11.2032 10.4737 11.2286Z" fill="white"/>
<path d="M10.5213 12.0068C10.5761 12.0068 10.6297 11.9905 10.6753 11.96C10.7208 11.9295 10.7563 11.8861 10.7772 11.8355C10.7982 11.7848 10.8036 11.7291 10.7929 11.6753C10.7821 11.6216 10.7557 11.5722 10.7169 11.5334C10.6782 11.4947 10.6288 11.4683 10.575 11.4577C10.5212 11.447 10.4655 11.4525 10.4148 11.4735C10.3642 11.4945 10.3209 11.53 10.2905 11.5756C10.26 11.6212 10.2438 11.6748 10.2438 11.7296C10.2439 11.8031 10.2732 11.8736 10.3253 11.9256C10.3773 11.9775 10.4478 12.0067 10.5213 12.0068Z" fill="white"/>
<path d="M9.76039 12.143C9.72243 12.1684 9.67779 12.182 9.63211 12.1821C9.57081 12.1821 9.51202 12.1578 9.46864 12.1145C9.42527 12.0711 9.40086 12.0124 9.40078 11.9511C9.40078 11.9054 9.41432 11.8607 9.4397 11.8227C9.46507 11.7848 9.50113 11.7552 9.54333 11.7377C9.58553 11.7202 9.63197 11.7156 9.67677 11.7245C9.72158 11.7333 9.76275 11.7553 9.79507 11.7876C9.82739 11.8199 9.84942 11.861 9.85837 11.9058C9.86732 11.9506 9.86278 11.9971 9.84534 12.0393C9.8279 12.0815 9.79834 12.1176 9.76039 12.143Z" fill="white"/>
<path d="M8.84501 12.1728C8.88516 12.1727 8.92438 12.1607 8.9577 12.1383C8.99103 12.1159 9.01697 12.0841 9.03225 12.047C9.04753 12.0099 9.05147 11.969 9.04357 11.9297C9.03566 11.8903 9.01627 11.8542 8.98783 11.8258C8.9594 11.7975 8.92321 11.7782 8.88382 11.7704C8.84444 11.7626 8.80362 11.7667 8.76654 11.7821C8.72946 11.7975 8.69777 11.8235 8.67548 11.8569C8.65319 11.8903 8.64129 11.9295 8.64129 11.9697C8.64133 11.9964 8.64663 12.0228 8.65689 12.0475C8.66715 12.0722 8.68216 12.0946 8.70108 12.1134C8.72 12.1323 8.74245 12.1472 8.76714 12.1574C8.79184 12.1676 8.8183 12.1728 8.84501 12.1728Z" fill="white"/>
<path d="M8.9828 12.7713C8.94488 12.7967 8.90028 12.8104 8.85461 12.8105C8.82423 12.8105 8.79414 12.8046 8.76606 12.793C8.73798 12.7814 8.71245 12.7644 8.69094 12.743C8.66944 12.7215 8.65236 12.696 8.6407 12.668C8.62904 12.6399 8.62302 12.6098 8.62298 12.5795C8.62298 12.5338 8.63651 12.4892 8.66187 12.4512C8.68723 12.4132 8.72328 12.3836 8.76546 12.3661C8.80764 12.3486 8.85406 12.344 8.89886 12.3528C8.94366 12.3617 8.98483 12.3836 9.01716 12.4159C9.04949 12.4481 9.07154 12.4893 9.08053 12.534C9.08951 12.5788 9.08502 12.6252 9.06762 12.6675C9.05023 12.7097 9.02071 12.7458 8.9828 12.7713Z" fill="white"/>
<path d="M9.79873 12.9304C9.85354 12.9303 9.90708 12.9139 9.95259 12.8834C9.99811 12.8528 10.0335 12.8095 10.0544 12.7588C10.0753 12.7081 10.0807 12.6524 10.07 12.5987C10.0592 12.5449 10.0328 12.4956 9.99396 12.4569C9.95516 12.4182 9.90576 12.3918 9.852 12.3812C9.79824 12.3705 9.74252 12.3761 9.6919 12.3971C9.64128 12.4181 9.59801 12.4536 9.56758 12.4992C9.53714 12.5448 9.5209 12.5983 9.5209 12.6531C9.52094 12.6896 9.52815 12.7257 9.54214 12.7593C9.55612 12.793 9.5766 12.8236 9.6024 12.8493C9.6282 12.875 9.65881 12.8955 9.6925 12.9094C9.72619 12.9233 9.76229 12.9304 9.79873 12.9304Z" fill="white"/>
<path d="M11.0804 12.7557C11.0272 12.7913 10.9647 12.8103 10.9008 12.8104C10.815 12.8103 10.7327 12.7762 10.672 12.7156C10.6113 12.655 10.5772 12.5727 10.577 12.4869C10.577 12.423 10.596 12.3605 10.6315 12.3073C10.667 12.2541 10.7175 12.2126 10.7766 12.1882C10.8357 12.1637 10.9007 12.1572 10.9634 12.1697C11.0262 12.1822 11.0838 12.2129 11.1291 12.2581C11.1743 12.3033 11.2051 12.3609 11.2176 12.4237C11.2302 12.4864 11.2238 12.5514 11.1994 12.6105C11.1749 12.6696 11.1335 12.7202 11.0804 12.7557Z" fill="white"/>
<path d="M11.5496 13.614C11.6227 13.6138 11.6941 13.5919 11.7547 13.5512C11.8154 13.5105 11.8627 13.4527 11.8905 13.3851C11.9183 13.3175 11.9255 13.2432 11.9111 13.1715C11.8967 13.0999 11.8614 13.0341 11.8096 12.9825C11.7579 12.9309 11.692 12.8958 11.6203 12.8817C11.5486 12.8675 11.4743 12.8749 11.4068 12.903C11.3393 12.931 11.2817 12.9784 11.2411 13.0393C11.2006 13.1001 11.179 13.1715 11.179 13.2446C11.1791 13.2932 11.1888 13.3413 11.2074 13.3861C11.2261 13.431 11.2534 13.4717 11.2878 13.506C11.3222 13.5403 11.3631 13.5675 11.408 13.586C11.4529 13.6045 11.501 13.614 11.5496 13.614Z" fill="white"/>
<path d="M10.3669 13.6702C10.3138 13.7057 10.2513 13.7247 10.1874 13.7248C10.1448 13.7248 10.1027 13.7163 10.0633 13.7C10.024 13.6836 9.98832 13.6597 9.95825 13.6296C9.92818 13.5994 9.90435 13.5636 9.88812 13.5243C9.87189 13.4849 9.86358 13.4427 9.86366 13.4001C9.86389 13.3362 9.88306 13.2738 9.91873 13.2208C9.9544 13.1678 10.005 13.1265 10.0641 13.1022C10.1232 13.0779 10.1882 13.0717 10.2508 13.0842C10.3135 13.0968 10.371 13.1277 10.4161 13.173C10.4613 13.2182 10.492 13.2758 10.5044 13.3385C10.5168 13.4012 10.5104 13.4662 10.4859 13.5252C10.4614 13.5842 10.42 13.6347 10.3669 13.6702Z" fill="white"/>
<path d="M9.41899 14.3528C9.48296 14.3526 9.54544 14.3335 9.59853 14.2978C9.65162 14.2621 9.69293 14.2115 9.71725 14.1523C9.74157 14.0932 9.74779 14.0281 9.73514 13.9654C9.72248 13.9027 9.69152 13.8451 9.64616 13.8C9.6008 13.7549 9.54308 13.7243 9.4803 13.712C9.41753 13.6997 9.35251 13.7063 9.29348 13.7309C9.23444 13.7555 9.18404 13.7971 9.14865 13.8504C9.11326 13.9037 9.09446 13.9663 9.09464 14.0303C9.09496 14.116 9.12929 14.1982 9.1901 14.2586C9.25091 14.3191 9.33323 14.353 9.41899 14.3528Z" fill="white"/>
<path d="M10.2634 15.1029C10.2026 15.1436 10.1312 15.1654 10.0581 15.1655C9.96007 15.1656 9.86598 15.1268 9.79656 15.0575C9.72713 14.9882 9.68804 14.8943 9.68788 14.7962C9.68782 14.7231 9.70944 14.6516 9.74999 14.5908C9.79055 14.53 9.84822 14.4826 9.91573 14.4545C9.98323 14.4265 10.0575 14.4191 10.1292 14.4333C10.2009 14.4474 10.2668 14.4826 10.3186 14.5342C10.3703 14.5858 10.4056 14.6516 10.42 14.7233C10.4343 14.795 10.4271 14.8693 10.3992 14.9369C10.3714 15.0044 10.3241 15.0622 10.2634 15.1029Z" fill="white"/>
<path d="M11.7623 15.3136C11.8482 15.3134 11.932 15.2877 12.0032 15.2399C12.0745 15.192 12.1299 15.1241 12.1626 15.0448C12.1953 14.9654 12.2037 14.8782 12.1868 14.794C12.1699 14.7099 12.1285 14.6326 12.0677 14.572C12.0069 14.5114 11.9296 14.4702 11.8454 14.4535C11.7612 14.4369 11.674 14.4456 11.5947 14.4785C11.5155 14.5113 11.4477 14.567 11.4001 14.6384C11.3524 14.7097 11.327 14.7936 11.327 14.8794C11.327 14.9365 11.3383 14.9931 11.3602 15.0458C11.3821 15.0986 11.4142 15.1465 11.4547 15.1868C11.4951 15.2271 11.5431 15.2591 11.5959 15.2808C11.6487 15.3026 11.7052 15.3137 11.7623 15.3136Z" fill="white"/>
<path d="M11.0319 14.4748C10.9712 14.5155 10.8998 14.5373 10.8267 14.5375C10.7781 14.5376 10.73 14.5281 10.6851 14.5096C10.6402 14.4911 10.5994 14.4639 10.5649 14.4296C10.5305 14.3953 10.5032 14.3545 10.4846 14.3097C10.4659 14.2648 10.4562 14.2167 10.4562 14.1682C10.4561 14.0951 10.4777 14.0236 10.5183 13.9628C10.5588 13.902 10.6165 13.8546 10.6839 13.8265C10.7514 13.7985 10.8257 13.7911 10.8974 13.8052C10.9691 13.8194 11.035 13.8545 11.0868 13.9061C11.1385 13.9577 11.1738 14.0234 11.1882 14.0951C11.2026 14.1667 11.1954 14.2411 11.1676 14.3086C11.1398 14.3762 11.0925 14.434 11.0319 14.4748Z" fill="white"/>
<path d="M12.4754 14.3904C12.5612 14.3902 12.6451 14.3646 12.7164 14.3168C12.7876 14.269 12.8431 14.2011 12.8759 14.1218C12.9086 14.0424 12.9171 13.9552 12.9002 13.871C12.8833 13.7868 12.8419 13.7096 12.7812 13.6489C12.7204 13.5883 12.6431 13.5471 12.5589 13.5304C12.4747 13.5137 12.3874 13.5224 12.3081 13.5552C12.2289 13.5881 12.1611 13.6438 12.1134 13.7151C12.0658 13.7865 12.0403 13.8704 12.0403 13.9563C12.0404 14.0133 12.0517 14.0699 12.0736 14.1226C12.0954 14.1753 12.1275 14.2232 12.1679 14.2635C12.2083 14.3038 12.2563 14.3358 12.309 14.3575C12.3618 14.3793 12.4183 14.3905 12.4754 14.3904Z" fill="white"/>
<path d="M9.18453 13.5116C9.13905 13.5422 9.08554 13.5586 9.03075 13.5588C8.99428 13.5588 8.95815 13.5517 8.92442 13.5378C8.8907 13.524 8.86005 13.5035 8.83422 13.4778C8.80839 13.4521 8.78788 13.4215 8.77388 13.3878C8.75988 13.3541 8.75265 13.318 8.75261 13.2815C8.75261 13.2267 8.76885 13.1732 8.79927 13.1276C8.8297 13.082 8.87294 13.0465 8.92355 13.0255C8.97415 13.0045 9.02985 12.9989 9.0836 13.0096C9.13736 13.0202 9.18676 13.0465 9.22557 13.0852C9.26437 13.1239 9.29085 13.1732 9.30165 13.2269C9.31245 13.2806 9.30709 13.3363 9.28624 13.387C9.26539 13.4377 9.23 13.481 9.18453 13.5116Z" fill="white"/>
<path d="M12.1133 21C12.1133 16.0294 16.1427 12 21.1133 12C26.0838 12 30.1133 16.0294 30.1133 21C30.1133 25.9706 26.0838 30 21.1133 30C16.1427 30 12.1133 25.9706 12.1133 21Z" fill="white"/>
<path fill-rule="evenodd" clip-rule="evenodd" d="M20.7326 12C18.9993 12.0999 17.3987 12.6903 16.0656 13.6331H26.4516C25.1184 12.6903 23.5178 12.0999 21.7845 12H21.5076H20.7326ZM14.3057 15.2657C13.893 15.7672 13.5355 16.3149 13.2382 16.8987L24.0605 16.8988H29.279C28.9816 16.3151 28.6244 15.7673 28.2114 15.2658L24.2144 15.2657H14.3057ZM12.1504 20.1809C12.1995 19.6202 12.3008 19.0747 12.4486 18.5483H29.7656C29.9135 19.0746 30.0147 19.6202 30.064 20.1809H12.1504ZM12.1538 21.8143C12.2059 22.3753 12.3109 22.9208 12.4617 23.4469H29.7527C29.9037 22.9208 30.0085 22.3752 30.0606 21.8143H12.1538ZM14.1925 26.7129C13.7747 26.212 13.412 25.6642 13.1102 25.08H24.4614L29.1041 25.08C28.8023 25.6643 28.4396 26.212 28.0218 26.7129H23.6433L14.1925 26.7129ZM20.7266 29.969L20.7539 29.97L20.7811 29.971C20.8894 29.9749 20.9979 29.9775 21.1071 29.9775C23.0138 29.9775 24.7805 29.3734 26.2356 28.3463L23.3454 28.3462H15.9788C17.3363 29.3046 18.9657 29.8945 20.7266 29.969Z" fill="#F44336"/>
<path d="M20.922 12.0046C16.3131 12.0984 12.5566 15.6569 12.1523 20.1834H20.9221V12.0046H20.922Z" fill="#283991"/>
<path d="M13.9129 17.085L14.05 17.506H14.4939L14.1348 17.7663L14.2719 18.1876L13.9129 17.9271L13.5541 18.1876L13.691 17.7663L13.332 17.506H13.7759L13.9129 17.085Z" fill="#EFEFEF"/>
<path d="M13.9129 18.5724L14.05 18.9936H14.4939L14.1348 19.254L14.2719 19.6753L13.9129 19.4148L13.5541 19.6753L13.691 19.254L13.332 18.9936H13.7759L13.9129 18.5724Z" fill="#EFEFEF"/>
<path d="M15.4037 14.8533L15.5408 15.2745H15.9846L15.6255 15.535L15.7626 15.956L15.4037 15.6958L15.0447 15.956L15.1818 15.535L14.8226 15.2745H15.2665L15.4037 14.8533Z" fill="#EFEFEF"/>
<path d="M15.4037 16.341L15.5408 16.7621H15.9846L15.6255 17.0223L15.7626 17.4436L15.4037 17.1835L15.0447 17.4436L15.1818 17.0223L14.8226 16.7621H15.2665L15.4037 16.341Z" fill="#EFEFEF"/>
<path d="M15.4037 17.8287L15.5408 18.25H15.9846L15.6255 18.51L15.7626 18.9313L15.4037 18.6709L15.0447 18.9313L15.1818 18.51L14.8226 18.25H15.2665L15.4037 17.8287Z" fill="#EFEFEF"/>
<path d="M12.7811 18.9313L12.6439 18.51L13.003 18.2498H12.5593L12.5493 18.2191C12.5006 18.3694 12.4566 18.5216 12.416 18.6755L12.4223 18.6709L12.7811 18.9313Z" fill="#EFEFEF"/>
<path d="M13.5541 16.7L13.9129 16.4395L14.2719 16.7L14.1348 16.2786L14.4938 16.0182H14.0499L13.9128 15.5972L13.7758 16.0182H13.6122C13.5818 16.0641 13.5524 16.1103 13.5229 16.1569L13.691 16.2786L13.5541 16.7Z" fill="#EFEFEF"/>
<path d="M15.4037 14.2081L15.7626 14.4683L15.6256 14.0473L15.9844 13.7868H15.7281C15.5104 13.9493 15.3003 14.1211 15.0985 14.3025L15.0444 14.4683L15.4037 14.2081Z" fill="#EFEFEF"/>
<path d="M16.5355 13.7246L16.8946 13.4642L17.2534 13.7246L17.1164 13.3033L17.4752 13.0431H17.0315L17.0128 12.9864C16.8625 13.0631 16.7136 13.1428 16.5682 13.2277L16.6724 13.3033L16.5355 13.7246Z" fill="#EFEFEF"/>
<path d="M16.8945 14.1096L17.0316 14.5305H17.4754L17.1163 14.791L17.2534 15.2123L16.8945 14.9518L16.5355 15.2123L16.6726 14.791L16.3134 14.5305H16.7573L16.8945 14.1096Z" fill="#EFEFEF"/>
<path d="M16.8945 15.5973L17.0316 16.0182H17.4754L17.1163 16.2786L17.2534 16.7L16.8945 16.4395L16.5355 16.7L16.6726 16.2786L16.3134 16.0182H16.7573L16.8945 15.5973Z" fill="#EFEFEF"/>
<path d="M16.8945 17.085L17.0316 17.506H17.4754L17.1163 17.7663L17.2534 18.1876L16.8945 17.9271L16.5355 18.1876L16.6726 17.7663L16.3134 17.506H16.7573L16.8945 17.085Z" fill="#EFEFEF"/>
<path d="M16.8945 18.5724L17.0316 18.9936H17.4754L17.1163 19.254L17.2534 19.6753L16.8945 19.4148L16.5355 19.6753L16.6726 19.254L16.3134 18.9936H16.7573L16.8945 18.5724Z" fill="#EFEFEF"/>
<path d="M18.3853 13.3656L18.5224 13.7868H18.9662L18.6073 14.0473L18.7442 14.4683L18.3853 14.2081L18.0262 14.4683L18.1634 14.0473L17.8043 13.7868H18.2481L18.3853 13.3656Z" fill="#EFEFEF"/>
<path d="M18.3853 14.8533L18.5224 15.2745H18.9662L18.6073 15.535L18.7442 15.956L18.3853 15.6958L18.0262 15.956L18.1634 15.535L17.8043 15.2745H18.2481L18.3853 14.8533Z" fill="#EFEFEF"/>
<path d="M18.3853 16.341L18.5224 16.7621H18.9662L18.6073 17.0223L18.7442 17.4436L18.3853 17.1835L18.0262 17.4436L18.1634 17.0223L17.8043 16.7621H18.2481L18.3853 16.341Z" fill="#EFEFEF"/>
<path d="M18.3853 17.8287L18.5224 18.25H18.9662L18.6073 18.51L18.7442 18.9313L18.3853 18.6709L18.0262 18.9313L18.1634 18.51L17.8043 18.25H18.2481L18.3853 17.8287Z" fill="#EFEFEF"/>
<path d="M19.8762 12.6219L20.0132 13.0431H20.457L20.098 13.3033L20.235 13.7246L19.8762 13.4641L19.517 13.7246L19.6542 13.3033L19.2951 13.0431H19.7388L19.8762 12.6219Z" fill="#EFEFEF"/>
<path d="M19.8762 14.1096L20.0132 14.5305H20.457L20.098 14.791L20.235 15.2123L19.8762 14.9518L19.517 15.2123L19.6542 14.791L19.2951 14.5305H19.7388L19.8762 14.1096Z" fill="#EFEFEF"/>
<path d="M19.8762 15.5973L20.0132 16.0182H20.457L20.098 16.2786L20.235 16.7L19.8762 16.4395L19.517 16.7L19.6542 16.2786L19.2951 16.0182H19.7388L19.8762 15.5973Z" fill="#EFEFEF"/>
<path d="M19.8762 17.085L20.0132 17.506H20.457L20.098 17.7663L20.235 18.1876L19.8762 17.9271L19.517 18.1876L19.6542 17.7663L19.2951 17.506H19.7388L19.8762 17.085Z" fill="#EFEFEF"/>
<path d="M19.8762 18.5724L20.0132 18.9936H20.457L20.098 19.254L20.235 19.6753L19.8762 19.4148L19.517 19.6753L19.6542 19.254L19.2951 18.9936H19.7388L19.8762 18.5724Z" fill="#EFEFEF"/>
</svg>
