<svg width="33" height="32" fill="none" xmlns="http://www.w3.org/2000/svg"><path d="M2.5 11a9 9 0 1 1 18 0 9 9 0 0 1-18 0Z" fill="#131F37"/><path d="M13.834 7.633a.517.517 0 1 1-.577-.859.517.517 0 0 1 .577.86ZM14.418 14.94a.517.517 0 1 1-.577-.858.517.517 0 0 1 .577.858ZM13.695 9.014a.434.434 0 1 0-.002-.868.434.434 0 0 0 .002.868ZM15.094 9.107a.434.434 0 1 1-.484-.72.434.434 0 0 1 .484.72ZM13.547 10.114a.37.37 0 1 0 0-.739.37.37 0 0 0 0 .739ZM14.91 10.208a.37.37 0 1 1-.412-.613.37.37 0 0 1 .412.613ZM15.63 10.63a.37.37 0 1 0 0-.739.37.37 0 0 0 0 .74ZM14.542 11.102a.323.323 0 1 1-.36-.537.323.323 0 0 1 .36.537ZM13.205 11a.324.324 0 1 0-.001-.647.324.324 0 0 0 0 .647ZM15.477 11.463a.323.323 0 1 1-.36-.538.323.323 0 0 1 .36.538ZM13.9 11.832a.278.278 0 1 0-.002-.555.278.278 0 0 0 .001.555ZM14.988 12.136a.276.276 0 0 1-.432-.23.278.278 0 1 1 .432.23ZM12.75 11.665a.277.277 0 1 0 0-.554.277.277 0 0 0 0 .554ZM13.52 12.245a.23.23 0 0 1-.322-.32.232.232 0 0 1 .419.083.23.23 0 0 1-.098.237ZM13.788 12.92a.204.204 0 0 0 .198-.243.203.203 0 1 0-.198.244ZM13.389 13.023a.165.165 0 0 1-.21-.021.166.166 0 1 1 .21.02ZM12.862 12.57a.203.203 0 1 0-.001-.405.203.203 0 0 0 .001.405ZM12.36 12.088a.23.23 0 0 1-.32-.32.231.231 0 1 1 .32.32ZM12.223 10.39a.23.23 0 0 0 .044-.457.231.231 0 1 0-.044.457ZM12.438 9.543a.203.203 0 1 1-.227-.338.203.203 0 0 1 .227.338ZM12.547 8.913a.166.166 0 1 0-.001-.333.166.166 0 0 0 .001.333ZM12.27 8.565a.203.203 0 1 1-.226-.337.203.203 0 0 1 .227.337ZM14.316 12.635a.231.231 0 1 0-.001-.463.231.231 0 0 0 .001.463ZM11.759 8.29a.231.231 0 1 1-.258-.383.231.231 0 0 1 .258.384ZM11.788 9.31a.23.23 0 1 0-.001-.462.23.23 0 0 0 0 .462ZM11.682 10.196a.277.277 0 1 1-.308-.46.277.277 0 0 1 .308.46ZM10.685 10.242a.324.324 0 1 0-.004-.647.324.324 0 0 0 .005.647ZM9.91 10.402a.37.37 0 1 1-.413-.613.37.37 0 0 1 .412.613ZM8.63 10.99a.434.434 0 1 0-.002-.868.434.434 0 0 0 .002.869ZM7.806 11.79a.518.518 0 1 1-.577-.86.518.518 0 0 1 .577.86ZM8.195 9.91a.434.434 0 1 0-.003-.868.434.434 0 0 0 .003.868ZM9.474 9.321a.37.37 0 1 1-.412-.614.37.37 0 0 1 .412.614ZM9.111 8.405a.37.37 0 1 0-.003-.74.37.37 0 0 0 .003.74ZM10.272 8.128a.324.324 0 1 1-.36-.537.324.324 0 0 1 .36.537ZM10.935 8.183a.277.277 0 1 0 0-.554.277.277 0 0 0 0 .554ZM11.247 9.115a.277.277 0 1 1-.31-.46.277.277 0 0 1 .31.46ZM10.251 9.171a.323.323 0 1 0-.002-.646.323.323 0 0 0 .002.646ZM9.426 11.6a.166.166 0 1 1-.185-.276.166.166 0 0 1 .185.276ZM10 11.545a.203.203 0 0 0 .039-.402.203.203 0 1 0-.039.402ZM10.86 11.229a.23.23 0 1 1-.256-.384.23.23 0 0 1 .257.384ZM10.908 12.007a.278.278 0 0 0 .054-.55.277.277 0 1 0-.054.55ZM10.147 12.143a.23.23 0 1 1-.257-.383.23.23 0 0 1 .257.383ZM9.232 12.173a.203.203 0 1 0-.001-.406.203.203 0 0 0 0 .406ZM9.37 12.771a.23.23 0 1 1-.258-.382.23.23 0 0 1 .258.383ZM10.185 12.93a.277.277 0 1 0 0-.554.277.277 0 0 0 0 .555ZM11.467 12.756a.323.323 0 1 1-.36-.537.323.323 0 0 1 .36.537ZM11.936 13.614a.37.37 0 1 0-.002-.74.37.37 0 0 0 .002.74ZM10.754 13.67a.323.323 0 1 1-.36-.537.323.323 0 0 1 .36.538ZM9.806 14.353a.324.324 0 0 0 .227-.553.324.324 0 1 0-.227.553ZM10.65 15.103a.37.37 0 1 1-.412-.614.37.37 0 0 1 .412.614ZM12.15 15.314a.434.434 0 1 0-.003-.868.434.434 0 0 0 .002.868ZM11.419 14.475a.37.37 0 1 1-.413-.615.37.37 0 0 1 .413.615ZM12.862 14.39a.435.435 0 1 0-.002-.869.435.435 0 0 0 .002.87ZM9.571 13.512a.278.278 0 0 1-.385-.384.278.278 0 1 1 .385.384Z" fill="#fff"/><path d="M12.5 21a9 9 0 1 1 18 0 9 9 0 0 1-18 0Z" fill="#fff"/><path fill-rule="evenodd" clip-rule="evenodd" d="M21.12 12c-1.734.1-3.335.69-4.668 1.633h10.386A8.956 8.956 0 0 0 22.171 12H21.12Zm-6.428 3.266a8.985 8.985 0 0 0-1.067 1.633h16.041a8.973 8.973 0 0 0-1.068-1.633H14.692Zm-2.155 4.915c.05-.56.15-1.106.298-1.633h17.317c.148.527.25 1.072.299 1.633H12.537Zm.003 1.633c.053.561.158 1.107.308 1.633H30.14a8.897 8.897 0 0 0 .308-1.633H12.541Zm2.04 4.899a8.99 8.99 0 0 1-1.083-1.633H29.49a8.981 8.981 0 0 1-1.082 1.633H14.58Zm6.533 3.256.028.001.027.001a8.86 8.86 0 0 0 5.454-1.625H16.366a8.859 8.859 0 0 0 4.747 1.623Z" fill="#F44336"/><path d="M21.308 12.005a8.991 8.991 0 0 0-8.77 8.179h8.77v-8.18Z" fill="#283991"/><path d="m14.3 17.085.137.421h.444l-.36.26.138.422-.36-.26-.358.26.137-.422-.36-.26h.445l.137-.42ZM14.3 18.573l.137.42h.444l-.36.261.138.421-.36-.26-.358.26.137-.42-.36-.261h.445l.137-.421ZM15.79 14.853l.138.422h.443l-.359.26.137.421-.359-.26-.359.26.138-.42-.36-.261h.444l.137-.422ZM15.79 16.341l.138.421h.443l-.359.26.137.422-.359-.26-.359.26.138-.422-.36-.26h.444l.137-.42ZM15.79 17.829l.138.421h.443l-.359.26.137.421-.359-.26-.359.26.138-.42-.36-.26h.444l.137-.422ZM13.168 18.931l-.137-.42.359-.261h-.444l-.01-.03c-.049.15-.093.302-.133.456l.006-.005.359.26ZM13.94 16.7l.36-.26.359.26-.138-.421.36-.26h-.444l-.137-.422-.138.421H14l-.09.139.169.122-.137.421ZM15.79 14.208l.36.26-.138-.42.36-.261h-.257a8.941 8.941 0 0 0-.63.516l-.054.165.36-.26ZM16.922 13.725l.36-.26.358.26-.137-.422.359-.26h-.444l-.018-.056c-.15.076-.3.156-.445.24l.104.076-.137.422ZM17.281 14.11l.137.42h.444l-.359.261.137.421-.359-.26-.359.26.137-.42-.359-.261h.444l.137-.421ZM17.281 15.597l.137.421h.444l-.359.26.137.422-.359-.26-.359.26.137-.421-.359-.26h.444l.137-.422ZM17.281 17.085l.137.421h.444l-.359.26.137.422-.359-.26-.359.26.137-.422-.359-.26h.444l.137-.42ZM17.281 18.573l.137.42h.444l-.359.261.137.421-.359-.26-.359.26.137-.42-.359-.261h.444l.137-.421ZM18.772 13.366l.137.42h.444l-.359.261.137.421-.359-.26-.36.26.138-.42-.359-.261h.444l.137-.421ZM18.772 14.853l.137.422h.444l-.359.26.137.421-.359-.26-.36.26.138-.42-.359-.261h.444l.137-.422ZM18.772 16.341l.137.421h.444l-.359.26.137.422-.359-.26-.36.26.138-.422-.359-.26h.444l.137-.42ZM18.772 17.829l.137.421h.444l-.359.26.137.421-.359-.26-.36.26.138-.42-.359-.26h.444l.137-.422ZM20.263 12.622l.137.421h.444l-.36.26.138.422-.36-.26-.358.26.137-.422-.36-.26h.445l.137-.42ZM20.263 14.11l.137.42h.444l-.36.261.138.421-.36-.26-.358.26.137-.42-.36-.261h.445l.137-.421ZM20.263 15.597l.137.421h.444l-.36.26.138.422-.36-.26-.358.26.137-.421-.36-.26h.445l.137-.422ZM20.263 17.085l.137.421h.444l-.36.26.138.422-.36-.26-.358.26.137-.422-.36-.26h.445l.137-.42ZM20.263 18.573l.137.42h.444l-.36.261.138.421-.36-.26-.358.26.137-.42-.36-.261h.445l.137-.421Z" fill="#EFEFEF"/></svg>