<svg xmlns="http://www.w3.org/2000/svg" width="24" height="24"><g fill="none" fill-rule="evenodd"><path d="M0 0h24v24H0z"/><path fill="#131F37" fill-rule="nonzero" d="M19.5 6h-15A1.5 1.5 0 003 7.5v9A1.5 1.5 0 004.5 18h15a1.5 1.5 0 001.5-1.5v-9A1.5 1.5 0 0019.5 6z"/><g fill="#FFF" fill-rule="nonzero" transform="translate(7.5 7.5)"><circle cx="6.425" cy=".537" r="1"/><circle cx="6.564" cy="1.945" r="1"/><circle cx="7.696" cy="2.115" r="1"/><circle cx="7.557" cy="3.315" r="1"/><circle cx="8.463" cy="3.682" r="1"/><circle cx="6.419" cy="3.152" r="1"/><circle cx="6.09" cy="4.118" r="1"/><circle cx="7.223" cy="4.281" r="1"/><circle cx="8.127" cy="4.646" r="1"/><circle cx="7.678" cy="5.382" r="1"/><circle cx="6.771" cy="5.014" r="1"/><circle cx="5.638" cy="4.849" r="1"/><circle cx="6.266" cy="5.529" r="1"/><circle cx="7.174" cy="5.896" r="1"/><circle cx="6.661" cy="6.22" r="1"/><circle cx="6.175" cy="6.385" r="1"/><circle cx="5.753" cy="5.863" r="1"/><circle cx="5.132" cy="5.366" r="1"/><circle cx="6.99" cy="8.067" r="1"/><circle cx="5.756" cy="7.502" r="1"/><circle cx="5.053" cy="8.432" r="1"/><circle cx="4.84" cy="6.764" r="1"/><circle cx="4.137" cy="7.713" r="1"/><circle cx="3.383" cy="8.358" r="1"/><circle cx="2.751" cy="7.572" r="1"/><circle cx="3.508" cy="6.926" r="1"/><circle cx="4.214" cy="5.978" r="1"/><circle cx="3.132" cy="6.149" r="1"/><circle cx="2.379" cy="6.795" r="1"/><circle cx="2.204" cy="6.076" r="1"/><circle cx="2.196" cy="5.445" r="1"/><circle cx="2.299" cy="4.923" r="1"/><circle cx="2.951" cy="4.801" r="1"/><circle cx="3.664" cy="4.481" r="1"/><circle cx="3.835" cy="5.199" r="1"/><circle cx="2.96" cy="5.432" r="1"/><circle cx=".51" cy="4.823" r="1"/><circle cx="1.603" cy="3.986" r="1"/><circle cx="1.174" cy="2.87" r="1"/><circle cx="2.228" cy="2.399" r="1"/><circle cx="2.66" cy="3.513" r="1"/><circle cx="3.619" cy="3.334" r="1"/><circle cx="4.448" cy="3.38" r="1"/><circle cx="5.132" cy="3.584" r="1"/><circle cx="5.22" cy="2.772" r="1"/><circle cx="4.694" cy="2.468" r="1"/><circle cx="4.018" cy="2.264" r="1"/><circle cx="3.191" cy="2.221" r="1"/><circle cx="2.076" cy="1.387" r="1"/><circle cx="3.034" cy="1.208" r="1"/><circle cx="3.863" cy="1.254" r="1"/><circle cx="4.543" cy="1.458" r="1"/><circle cx="5.065" cy="1.764" r="1"/><circle cx="5.447" cy="2.122" r="1"/></g><path stroke="#000" stroke-opacity=".04" stroke-width=".75" d="M19.435 6H4.565C3.701 6 3 6.716 3 7.6v8.8c0 .884.7 1.6 1.565 1.6h14.87c.864 0 1.565-.716 1.565-1.6V7.6c0-.884-.7-1.6-1.565-1.6z"/></g></svg>