<svg xmlns="http://www.w3.org/2000/svg" width="32" height="32"><g fill="none" fill-rule="evenodd"><path d="M0 0h32v32H0z"/><path d="M11.014.09c.138-.056.285-.085.433-.085h10.261l9.524 9.047H10.316V1.134a1.14 1.14 0 0 1 .332-.799c.105-.105.23-.188.367-.244zm20.9 10.924c.057.138.086.284.086.433l.001 10.263-9.048 9.524V10.318h7.917a1.136 1.136 0 0 1 1.045.696zM20.555 32a1.126 1.126 0 0 0 1.042-.699c.056-.137.085-.284.085-.432v-7.921H.764l9.525 9.045h10.266V32zM.085 20.985A1.124 1.124 0 0 1 0 20.553V10.292L9.048.766v20.918H1.127a1.126 1.126 0 0 1-1.042-.699z" fill="#0079C1"/></g></svg>