<svg xmlns="http://www.w3.org/2000/svg" width="28" height="28"><g fill="none" fill-rule="evenodd"><path fill="#E4E4E4" fill-rule="nonzero" d="M27.5 24H27a.5.5 0 0 1 0-1h.5a.5.5 0 0 1 0 1zM25 24h-1a.5.5 0 0 1 0-1h1a.5.5 0 0 1 0 1zm-3 0h-1a.5.5 0 0 1 0-1h1a.5.5 0 0 1 0 1zm-3 0h-1a.5.5 0 0 1 0-1h1a.5.5 0 0 1 0 1zm-3 0h-1a.5.5 0 0 1 0-1h1a.5.5 0 0 1 0 1zm-3 0h-1a.5.5 0 0 1 0-1h1a.5.5 0 0 1 0 1zm-3 0H9a.5.5 0 0 1 0-1h1a.5.5 0 0 1 0 1zm-3 0H6a.5.5 0 0 1 0-1h1a.5.5 0 0 1 0 1zm-3 0H3a.5.5 0 0 1 0-1h1a.5.5 0 0 1 0 1zm-3 0H.5a.5.5 0 0 1 0-1H1a.5.5 0 0 1 0 1z"/><path stroke="#85ACB0" stroke-linecap="round" stroke-linejoin="round" d="m1.5 20.5 4 6 6-12 5 7 10-20"/><path fill="#FFF" fill-rule="nonzero" stroke="#85ACB0" d="M2.5 20.5a1 1 0 1 1-2 0 1 1 0 0 1 2 0z"/><circle cx="5.5" cy="26.5" r="1" fill="#FFF" fill-rule="nonzero" stroke="#85ACB0"/><circle cx="11.5" cy="14.5" r="1" fill="#FFF" fill-rule="nonzero" stroke="#85ACB0"/><path fill="#FFF" fill-rule="nonzero" stroke="#85ACB0" d="M17.5 21.5a1 1 0 1 1-2 0 1 1 0 0 1 2 0z"/><circle cx="26.5" cy="1.5" r="1" fill="#FFF" fill-rule="nonzero" stroke="#85ACB0"/><rect width="11.753" height="8" fill="#333" fill-rule="nonzero" rx="1"/><path fill="#FFF" fill-rule="nonzero" d="M2.301 6.443v-.658h1.372V2.131h-.056L2.483 3.342 2 2.908l1.246-1.351H4.45v4.228h1.19v.658zm5.681.084c-.303 0-.567-.056-.79-.168a1.477 1.477 0 0 1-.554-.497 2.318 2.318 0 0 1-.322-.791A4.932 4.932 0 0 1 6.211 4c0-.397.035-.751.105-1.064.07-.317.178-.583.322-.798.145-.215.33-.378.553-.49.224-.117.488-.175.791-.175.607 0 1.053.222 1.337.665.29.443.434 1.064.434 1.862S9.61 5.419 9.32 5.862c-.284.443-.73.665-1.337.665zm0-.672c.168 0 .31-.033.427-.098a.797.797 0 0 0 .294-.294c.075-.126.129-.275.161-.448.033-.177.05-.373.05-.588v-.854c0-.215-.017-.408-.05-.581a1.378 1.378 0 0 0-.16-.455.814.814 0 0 0-.722-.392.856.856 0 0 0-.434.105.774.774 0 0 0-.287.287 1.378 1.378 0 0 0-.16.455c-.033.173-.05.366-.05.581v.854c0 .215.017.41.05.588.032.173.086.322.16.448.075.126.17.224.287.294a.909.909 0 0 0 .434.098z"/></g></svg>