<svg xmlns="http://www.w3.org/2000/svg" width="28" height="28" viewBox="0 0 28 28">
    <g fill="none" fill-rule="evenodd">
        <g>
            <g>
                <g>
                    <g>
                        <g>
                            <g>
                                <g transform="translate(-645.000000, -2295.000000) translate(0.000000, 1273.000000) translate(324.000000, 498.000000) translate(0.000000, 448.000000) translate(147.000000, 24.000000) translate(0.000000, 52.000000) translate(174.000000, 0.000000)">
                                    <path fill="#E4E4E4" fill-rule="nonzero" d="M27.5 24H27c-.276 0-.5-.224-.5-.5s.224-.5.5-.5h.5c.276 0 .5.224.5.5s-.224.5-.5.5zM25 24h-1c-.276 0-.5-.224-.5-.5s.224-.5.5-.5h1c.276 0 .5.224.5.5s-.224.5-.5.5zm-3 0h-1c-.276 0-.5-.224-.5-.5s.224-.5.5-.5h1c.276 0 .5.224.5.5s-.224.5-.5.5zm-3 0h-1c-.276 0-.5-.224-.5-.5s.224-.5.5-.5h1c.276 0 .5.224.5.5s-.224.5-.5.5zm-3 0h-1c-.276 0-.5-.224-.5-.5s.224-.5.5-.5h1c.276 0 .5.224.5.5s-.224.5-.5.5zm-3 0h-1c-.276 0-.5-.224-.5-.5s.224-.5.5-.5h1c.276 0 .5.224.5.5s-.224.5-.5.5zm-3 0H9c-.276 0-.5-.224-.5-.5s.224-.5.5-.5h1c.276 0 .5.224.5.5s-.224.5-.5.5zm-3 0H6c-.276 0-.5-.224-.5-.5s.224-.5.5-.5h1c.276 0 .5.224.5.5s-.224.5-.5.5zm-3 0H3c-.276 0-.5-.224-.5-.5s.224-.5.5-.5h1c.276 0 .5.224.5.5s-.224.5-.5.5zM1 24H.5c-.276 0-.5-.224-.5-.5s.224-.5.5-.5H1c.276 0 .5.224.5.5s-.224.5-.5.5z"/>
                                    <path stroke="#85ACB0" stroke-linecap="round" stroke-linejoin="round" d="M1.5 20.5L5.5 26.5 11.5 14.5 16.5 21.5 26.5 1.5"/>
                                    <path fill="#FFF" fill-rule="nonzero" stroke="#85ACB0" d="M2.5 20.5c0 .552-.448 1-1 1s-1-.448-1-1 .448-1 1-1 1 .448 1 1z"/>
                                    <circle cx="5.5" cy="26.5" r="1" fill="#FFF" fill-rule="nonzero" stroke="#85ACB0"/>
                                    <circle cx="11.5" cy="14.5" r="1" fill="#FFF" fill-rule="nonzero" stroke="#85ACB0"/>
                                    <path fill="#FFF" fill-rule="nonzero" stroke="#85ACB0" d="M17.5 21.5c0 .552-.448 1-1 1s-1-.448-1-1 .448-1 1-1 1 .448 1 1z"/>
                                    <circle cx="26.5" cy="1.5" r="1" fill="#FFF" fill-rule="nonzero" stroke="#85ACB0"/>
                                    <rect width="15.95" height="8" fill="#333" fill-rule="nonzero" rx="1"/>
                                    <path fill="#FFF" fill-rule="nonzero" d="M2.301 6.443L2.301 5.785 3.673 5.785 3.673 2.131 3.617 2.131 2.483 3.342 2 2.908 3.246 1.557 4.45 1.557 4.45 5.785 5.64 5.785 5.64 6.443zM7.982 6.527c-.303 0-.567-.056-.79-.168-.225-.117-.41-.282-.554-.497-.144-.215-.252-.478-.322-.791-.07-.313-.105-.67-.105-1.071 0-.397.035-.751.105-1.064.07-.317.178-.583.322-.798.145-.215.33-.378.553-.49.224-.117.488-.175.791-.175.607 0 1.053.222 1.337.665.29.443.434 1.064.434 1.862S9.61 5.419 9.32 5.862c-.284.443-.73.665-1.337.665zm0-.672c.168 0 .31-.033.427-.098.122-.07.22-.168.294-.294.075-.126.129-.275.161-.448.033-.177.05-.373.05-.588v-.854c0-.215-.017-.408-.05-.581-.032-.177-.086-.329-.16-.455-.075-.126-.173-.222-.295-.287-.116-.07-.259-.105-.427-.105-.168 0-.312.035-.434.105-.116.065-.212.161-.287.287-.074.126-.128.278-.16.455-.033.173-.05.366-.05.581v.854c0 .215.017.41.05.588.032.173.086.322.16.448.075.126.17.224.287.294.122.065.266.098.434.098zM12.18 6.527c-.304 0-.567-.056-.791-.168-.224-.117-.409-.282-.553-.497-.145-.215-.252-.478-.322-.791-.07-.313-.105-.67-.105-1.071 0-.397.034-.751.104-1.064.07-.317.178-.583.322-.798.145-.215.33-.378.553-.49.225-.117.488-.175.792-.175.606 0 1.052.222 1.337.665.289.443.434 1.064.434 1.862s-.145 1.419-.434 1.862c-.285.443-.73.665-1.337.665zm0-.672c.168 0 .31-.033.427-.098.12-.07.219-.168.293-.294.075-.126.129-.275.162-.448.032-.177.049-.373.049-.588v-.854c0-.215-.017-.408-.05-.581-.032-.177-.086-.329-.16-.455-.075-.126-.173-.222-.294-.287-.117-.07-.26-.105-.427-.105-.168 0-.313.035-.434.105-.117.065-.213.161-.287.287-.075.126-.129.278-.162.455-.032.173-.049.366-.049.581v.854c0 .215.017.41.05.588.032.173.086.322.16.448.075.126.17.224.287.294.122.065.267.098.435.098z"/>
                                </g>
                            </g>
                        </g>
                    </g>
                </g>
            </g>
        </g>
    </g>
</svg>
