<svg xmlns="http://www.w3.org/2000/svg" width="28" height="28" viewBox="0 0 28 28">
    <g fill="none" fill-rule="evenodd">
        <g>
            <g>
                <g>
                    <g>
                        <g>
                            <g transform="translate(-471.000000, -2295.000000) translate(0.000000, 1273.000000) translate(324.000000, 498.000000) translate(0.000000, 448.000000) translate(147.000000, 24.000000) translate(0.000000, 52.000000)">
                                <path fill="#E4E4E4" fill-rule="nonzero" d="M27.5 24H27c-.276 0-.5-.224-.5-.5s.224-.5.5-.5h.5c.276 0 .5.224.5.5s-.224.5-.5.5zM25 24h-1c-.276 0-.5-.224-.5-.5s.224-.5.5-.5h1c.276 0 .5.224.5.5s-.224.5-.5.5zm-3 0h-1c-.276 0-.5-.224-.5-.5s.224-.5.5-.5h1c.276 0 .5.224.5.5s-.224.5-.5.5zm-3 0h-1c-.276 0-.5-.224-.5-.5s.224-.5.5-.5h1c.276 0 .5.224.5.5s-.224.5-.5.5zm-3 0h-1c-.276 0-.5-.224-.5-.5s.224-.5.5-.5h1c.276 0 .5.224.5.5s-.224.5-.5.5zm-3 0h-1c-.276 0-.5-.224-.5-.5s.224-.5.5-.5h1c.276 0 .5.224.5.5s-.224.5-.5.5zm-3 0H9c-.276 0-.5-.224-.5-.5s.224-.5.5-.5h1c.276 0 .5.224.5.5s-.224.5-.5.5zm-3 0H6c-.276 0-.5-.224-.5-.5s.224-.5.5-.5h1c.276 0 .5.224.5.5s-.224.5-.5.5zm-3 0H3c-.276 0-.5-.224-.5-.5s.224-.5.5-.5h1c.276 0 .5.224.5.5s-.224.5-.5.5zM1 24H.5c-.276 0-.5-.224-.5-.5s.224-.5.5-.5H1c.276 0 .5.224.5.5s-.224.5-.5.5z"/>
                                <path stroke="#85ACB0" stroke-linecap="round" stroke-linejoin="round" d="M1.5 20.5L5.5 26.5 11.5 14.5 16.5 21.5 26.5 1.5"/>
                                <path fill="#FFF" fill-rule="nonzero" stroke="#85ACB0" d="M2.5 20.5c0 .552-.448 1-1 1s-1-.448-1-1 .448-1 1-1 1 .448 1 1z"/>
                                <circle cx="5.5" cy="26.5" r="1" fill="#FFF" fill-rule="nonzero" stroke="#85ACB0"/>
                                <circle cx="11.5" cy="14.5" r="1" fill="#FFF" fill-rule="nonzero" stroke="#85ACB0"/>
                                <path fill="#FFF" fill-rule="nonzero" stroke="#85ACB0" d="M17.5 21.5c0 .552-.448 1-1 1s-1-.448-1-1 .448-1 1-1 1 .448 1 1z"/>
                                <circle cx="26.5" cy="1.5" r="1" fill="#FFF" fill-rule="nonzero" stroke="#85ACB0"/>
                                <rect width="11.564" height="8" fill="#333" fill-rule="nonzero" rx="1"/>
                                <path fill="#FFF" fill-rule="nonzero" d="M2.756 6.401L4.527 2.166 2.679 2.166 2.679 3.069 2 3.069 2 1.515 5.311 1.515 5.311 2.201 3.589 6.401zM9.312 2.201h-2.17L7.016 3.93h.05c.055-.098.114-.184.174-.259.06-.08.13-.147.21-.203.08-.056.17-.098.273-.126.103-.033.224-.049.364-.049.21 0 .404.035.581.105.182.07.339.17.47.301.135.13.24.292.314.483.075.187.112.399.112.637 0 .243-.04.467-.119.672-.074.205-.186.383-.336.532-.15.145-.333.259-.553.343-.214.08-.46.119-.735.119-.22 0-.413-.026-.58-.077-.169-.047-.318-.11-.449-.189-.126-.084-.238-.177-.336-.28-.093-.107-.177-.217-.252-.329l.574-.455c.06.098.124.187.19.266.065.08.14.15.223.21.084.06.178.107.28.14.108.033.229.049.364.049.29 0 .511-.08.665-.238.159-.159.238-.378.238-.658V4.84c0-.28-.08-.5-.238-.658-.154-.159-.375-.238-.665-.238-.21 0-.378.04-.504.119-.126.08-.233.168-.322.266l-.65-.091.181-2.723h2.772v.686z"/>
                            </g>
                        </g>
                    </g>
                </g>
            </g>
        </g>
    </g>
</svg>
