<svg xmlns="http://www.w3.org/2000/svg" width="28" height="28" viewBox="0 0 28 28">
    <g fill="none" fill-rule="evenodd">
        <g>
            <g>
                <g>
                    <g>
                        <g>
                            <g transform="translate(-807.000000, -2243.000000) translate(0.000000, 1273.000000) translate(324.000000, 498.000000) translate(0.000000, 448.000000) translate(147.000000, 24.000000) translate(336.000000, 0.000000)">
                                <path fill="#E4E4E4" fill-rule="nonzero" d="M27.5 24H27c-.276 0-.5-.224-.5-.5s.224-.5.5-.5h.5c.276 0 .5.224.5.5s-.224.5-.5.5zM25 24h-1c-.276 0-.5-.224-.5-.5s.224-.5.5-.5h1c.276 0 .5.224.5.5s-.224.5-.5.5zm-3 0h-1c-.276 0-.5-.224-.5-.5s.224-.5.5-.5h1c.276 0 .5.224.5.5s-.224.5-.5.5zm-3 0h-1c-.276 0-.5-.224-.5-.5s.224-.5.5-.5h1c.276 0 .5.224.5.5s-.224.5-.5.5zm-3 0h-1c-.276 0-.5-.224-.5-.5s.224-.5.5-.5h1c.276 0 .5.224.5.5s-.224.5-.5.5zm-3 0h-1c-.276 0-.5-.224-.5-.5s.224-.5.5-.5h1c.276 0 .5.224.5.5s-.224.5-.5.5zm-3 0H9c-.276 0-.5-.224-.5-.5s.224-.5.5-.5h1c.276 0 .5.224.5.5s-.224.5-.5.5zm-3 0H6c-.276 0-.5-.224-.5-.5s.224-.5.5-.5h1c.276 0 .5.224.5.5s-.224.5-.5.5zm-3 0H3c-.276 0-.5-.224-.5-.5s.224-.5.5-.5h1c.276 0 .5.224.5.5s-.224.5-.5.5zM1 24H.5c-.276 0-.5-.224-.5-.5s.224-.5.5-.5H1c.276 0 .5.224.5.5s-.224.5-.5.5z"/>
                                <path stroke="#85ACB0" stroke-linecap="round" stroke-linejoin="round" d="M1.5 20.5L5.5 26.5 11.5 14.5 16.5 21.5 26.5 1.5"/>
                                <path fill="#FFF" fill-rule="nonzero" stroke="#85ACB0" d="M2.5 20.5c0 .552-.448 1-1 1s-1-.448-1-1 .448-1 1-1 1 .448 1 1z"/>
                                <circle cx="5.5" cy="26.5" r="1" fill="#FFF" fill-rule="nonzero" stroke="#85ACB0"/>
                                <circle cx="11.5" cy="14.5" r="1" fill="#FFF" fill-rule="nonzero" stroke="#85ACB0"/>
                                <path fill="#FFF" fill-rule="nonzero" stroke="#85ACB0" d="M17.5 21.5c0 .552-.448 1-1 1s-1-.448-1-1 .448-1 1-1 1 .448 1 1z"/>
                                <circle cx="26.5" cy="1.5" r="1" fill="#FFF" fill-rule="nonzero" stroke="#85ACB0"/>
                                <rect width="11.62" height="8" fill="#333" fill-rule="nonzero" rx="1"/>
                                <path fill="#FFF" fill-rule="nonzero" d="M5.108 2.243h-2.17l-.126 1.729h.049c.056-.098.114-.184.175-.259.06-.08.13-.147.21-.203.08-.056.17-.098.273-.126.103-.033.224-.049.364-.049.21 0 .404.035.581.105.182.07.338.17.469.301.135.13.24.292.315.483.075.187.112.399.112.637 0 .243-.04.467-.119.672-.075.205-.187.383-.336.532-.15.145-.334.259-.553.343-.215.08-.46.119-.735.119-.22 0-.413-.026-.581-.077-.168-.047-.317-.11-.448-.189-.126-.084-.238-.177-.336-.28-.093-.107-.177-.217-.252-.329l.574-.455c.06.098.124.187.189.266.065.08.14.15.224.21.084.06.177.107.28.14.107.033.229.049.364.049.29 0 .511-.08.665-.238.159-.159.238-.378.238-.658v-.084c0-.28-.08-.5-.238-.658-.154-.159-.376-.238-.665-.238-.21 0-.378.04-.504.119-.126.08-.233.168-.322.266l-.651-.091.182-2.723h2.772v.686zM7.85 6.527c-.304 0-.568-.056-.792-.168-.224-.117-.408-.282-.553-.497-.144-.215-.252-.478-.322-.791-.07-.313-.105-.67-.105-1.071 0-.397.035-.751.105-1.064.07-.317.178-.583.322-.798.145-.215.33-.378.553-.49.224-.117.488-.175.791-.175.607 0 1.053.222 1.337.665.29.443.434 1.064.434 1.862s-.144 1.419-.434 1.862c-.284.443-.73.665-1.337.665zm0-.672c.167 0 .31-.033.426-.098.122-.07.22-.168.294-.294.075-.126.129-.275.161-.448.033-.177.05-.373.05-.588v-.854c0-.215-.017-.408-.05-.581-.032-.177-.086-.329-.16-.455-.075-.126-.173-.222-.295-.287-.116-.07-.259-.105-.427-.105-.168 0-.312.035-.434.105-.116.065-.212.161-.287.287-.074.126-.128.278-.16.455-.033.173-.05.366-.05.581v.854c0 .215.017.41.05.588.032.173.086.322.16.448.075.126.17.224.287.294.122.065.266.098.434.098z"/>
                            </g>
                        </g>
                    </g>
                </g>
            </g>
        </g>
    </g>
</svg>
