<svg xmlns="http://www.w3.org/2000/svg" width="24" height="24"><g fill="none" fill-rule="evenodd"><path d="M0 0h24v24H0z"/><path fill="#BFBBBB" fill-rule="nonzero" d="M19.5 6h-15A1.5 1.5 0 003 7.5v9A1.5 1.5 0 004.5 18h15a1.5 1.5 0 001.5-1.5v-9A1.5 1.5 0 0019.5 6z"/><path fill="#FFF" fill-rule="nonzero" d="M9.091 13.808l-.841.311.405-1.551.851-.327L10.733 7.5h3.022l-.895 3.485.831-.321-.401 1.547-.841.321-.499 1.959h4.55l-.514 2.009H8.399z"/><path stroke="#000" stroke-opacity=".04" stroke-width=".75" d="M19.125 6.375H4.875a1.5 1.5 0 00-1.5 1.5v8.25a1.5 1.5 0 001.5 1.5h14.25a1.5 1.5 0 001.5-1.5v-8.25a1.5 1.5 0 00-1.5-1.5z"/></g></svg>