<svg width="32" height="32" fill="none" xmlns="http://www.w3.org/2000/svg"><path fill-rule="evenodd" clip-rule="evenodd" d="M29 16a3 3 0 1 0-2.708-1.707L18.5 22.086l-4.5-4.5-4.5 4.5-4.5-4.5-5 5v2.828l5-5 4.5 4.5 4.5-4.5 4.5 4.5 9.207-9.206c.391.187.83.292 1.293.292Zm0-2a1 1 0 1 0 0-2 1 1 0 0 0 0 2Z" fill="#85ACB0"/><path d="M22.017 14H0v-2h24l-1.983 2ZM24 32H0v-2h24v2Z" fill="#85ACB0"/><path d="m21.793 23.207 1.8 1.8 1.414-1.414-1.8-1.8-1.414 1.414Z" fill="#FF444F"/><path fill-rule="evenodd" clip-rule="evenodd" d="m26.293 27.707-1.8-1.8 1.414-1.414 1.8 1.8a3 3 0 1 1-1.414 1.414ZM30 29a1 1 0 1 1-2 0 1 1 0 0 1 2 0Z" fill="#FF444F"/><path d="M0 2a2 2 0 0 1 2-2h15a2 2 0 0 1 2 2v6a2 2 0 0 1-2 2H2a2 2 0 0 1-2-2V2Z" fill="#0E0E0E"/><path d="M6.713 8H2.76V6.904l1.72-1.472c.154-.133.285-.253.392-.36.106-.112.192-.218.256-.32.069-.106.117-.21.144-.312.032-.101.048-.21.048-.328V4a.586.586 0 0 0-.232-.48.88.88 0 0 0-.504-.16.901.901 0 0 0-.352.064.844.844 0 0 0-.256.176.945.945 0 0 0-.176.248c-.048.091-.086.19-.112.296l-1.048-.4c.064-.192.152-.373.264-.544.112-.176.25-.328.416-.456.17-.133.37-.237.6-.312.229-.074.488-.112.776-.112.304 0 .573.043.808.128.234.086.432.203.592.352.165.15.29.328.376.536.085.203.128.424.128.664 0 .24-.04.459-.12.656-.08.198-.19.384-.328.56-.134.171-.291.334-.472.488a29.7 29.7 0 0 1-.568.472l-1.04.816h2.64V8ZM9.502 8.096c-.731 0-1.273-.253-1.625-.76-.351-.506-.527-1.216-.527-2.128 0-.912.176-1.621.528-2.128.351-.506.893-.76 1.623-.76.731 0 1.273.254 1.625.76.351.507.527 1.216.527 2.128 0 .912-.176 1.622-.527 2.128-.352.507-.894.76-1.624.76Zm0-1.016c.32 0 .54-.117.663-.352.123-.234.185-.565.185-.992V4.68c0-.426-.062-.757-.184-.992-.123-.234-.345-.352-.665-.352-.32 0-.54.118-.663.352-.123.235-.184.566-.184.992v1.056c0 .427.06.758.184.992.122.235.344.352.664.352ZM14.298 8.096c-.73 0-1.272-.253-1.624-.76-.352-.506-.528-1.216-.528-2.128 0-.912.176-1.621.528-2.128.352-.506.894-.76 1.624-.76.731 0 1.272.254 1.624.76.352.507.528 1.216.528 2.128 0 .912-.176 1.622-.528 2.128-.352.507-.893.76-1.624.76Zm0-1.016c.32 0 .542-.117.664-.352.123-.234.184-.565.184-.992V4.68c0-.426-.061-.757-.184-.992-.122-.234-.344-.352-.664-.352-.32 0-.541.118-.664.352-.122.235-.184.566-.184.992v1.056c0 .427.062.758.184.992.123.235.344.352.664.352Z" fill="#fff"/></svg>