<svg width="33" height="32" fill="none" xmlns="http://www.w3.org/2000/svg"><path d="M.5 16c0-8.837 7.163-16 16-16s16 7.163 16 16-7.163 16-16 16-16-7.163-16-16Z" fill="#fff"/><path d="M16.5 0C7.665 0 .5 7.164.5 16c0 1.766.286 3.464.815 5.053H6.1V7.592l10.4 10.4 10.4-10.4v13.461h4.785A15.97 15.97 0 0 0 32.5 16c0-8.836-7.165-16-16-16Z" fill="#F60"/><path d="M9.57 15.844v8.47H2.828C5.637 28.922 10.71 32 16.5 32c5.79 0 10.863-3.078 13.671-7.686H23.43v-8.47l-6.93 6.93-6.93-6.93Z" fill="#4C4C4C"/></svg>