<svg xmlns="http://www.w3.org/2000/svg" width="24" height="24"><g fill="none" fill-rule="evenodd"><path d="M0 0h24v24H0z"/><path fill="#FFF" fill-rule="nonzero" d="M19.5 6h-15A1.5 1.5 0 003 7.5v9A1.5 1.5 0 004.5 18h15a1.5 1.5 0 001.5-1.5v-9A1.5 1.5 0 0019.5 6z"/><g fill-rule="nonzero"><path fill="#FFF" d="M16.396 11.948a4.448 4.448 0 11-8.896 0 4.448 4.448 0 018.896 0z"/><path fill="#F26822" d="M11.948 7.5a4.447 4.447 0 00-4.447 4.448c0 .49.078.963.225 1.405h1.331V9.61l2.891 2.89 2.89-2.89v3.742h1.332a4.445 4.445 0 00-4.222-5.851V7.5z"/><path fill="#4D4D4D" d="M11.283 13.166l-1.261-1.261v2.354H8.147a4.446 4.446 0 007.602 0h-1.875v-2.354l-1.262 1.261-.664.665-.665-.665z"/></g><path stroke="#000" stroke-opacity=".04" stroke-width=".75" d="M19.125 6.375H4.875a1.5 1.5 0 00-1.5 1.5v8.25a1.5 1.5 0 001.5 1.5h14.25a1.5 1.5 0 001.5-1.5v-8.25a1.5 1.5 0 00-1.5-1.5z"/></g></svg>