<svg width="32" height="32" viewBox="0 0 32 32" fill="none" xmlns="http://www.w3.org/2000/svg">
<path d="M25 19C25 14.0294 21 10 13 4C13 12 7 13 7 19C7 23.9706 11.0294 28 16 28C20.9706 28 25 23.9706 25 19Z" fill="#6495E8"/>
<path d="M22 22C22 18.6863 20 16.6667 16 12C12 16.6667 10 18.6863 10 22C10 25.3137 12.6863 28 16 28C19.3137 28 22 25.3137 22 22Z" fill="#81AAEE"/>
<path d="M19 25C19 23.3431 18 22.3333 16 20C14 22.3333 13 23.3431 13 25C13 26.6569 14.3431 28 16 28C17.6569 28 19 26.6569 19 25Z" fill="#A0BFF1"/>
</svg>
