<svg width="32" height="32" fill="none" xmlns="http://www.w3.org/2000/svg"><path d="M22 4H2a2 2 0 0 0-2 2v12a2 2 0 0 0 2 2h20a2 2 0 0 0 2-2V6a2 2 0 0 0-2-2Z" fill="#0D47A1"/><path d="M.414 12h.719l3.833-2.551V12h2.069V9.449L10.867 12h.72a.417.417 0 0 0 .413-.42v-.334L8.712 9.058H12V6.956H8.711L12 4.767v-.333a.417.417 0 0 0-.414-.42h-.719l-3.833 2.55v-2.55H4.965v2.55L1.258 4.097a1.807 1.807 0 0 0-1.017.83l3.048 2.029H0v2.102h3.289L0 11.246v.334c0 .232.185.42.414.42Z" fill="#fff"/><path d="M6.62 4.013v3.363H12v1.261H6.62V12H5.38V8.637H0v-1.26h5.38V4.012h1.24ZM4.955 9.058.492 12H.414a.398.398 0 0 1-.305-.145l-.05-.071 4.135-2.726h.76Zm3.164 0 3.875 2.555a.416.416 0 0 1-.234.346l-4.4-2.901h.76ZM.685 4.406l3.867 2.55h-.76L.386 4.71c.087-.113.188-.215.299-.304Zm10.901-.393c.122 0 .227.056.301.142l.05.069-4.142 2.732h-.76l4.462-2.943h.09Z" fill="#F44336"/><path d="M18 15.489c.036 0 .067.023.079.057l.19.58.602.005c.036 0 .067.024.078.059a.085.085 0 0 1-.03.093l-.484.363.182.583a.085.085 0 0 1-.03.094.083.083 0 0 1-.097 0l-.49-.355-.49.355a.082.082 0 0 1-.097 0 .085.085 0 0 1-.03-.094l.182-.583-.484-.363a.085.085 0 0 1-.03-.093.083.083 0 0 1 .078-.059l.602-.005.19-.58a.083.083 0 0 1 .08-.057Zm-2.896-3.835c.035 0 .067.024.078.058l.19.58.603.004c.035 0 .067.024.078.059a.085.085 0 0 1-.03.093l-.484.364.182.583a.085.085 0 0 1-.03.093.082.082 0 0 1-.097 0l-.49-.355-.49.356a.082.082 0 0 1-.097 0 .085.085 0 0 1-.03-.094l.181-.583-.484-.364a.085.085 0 0 1-.03-.093.083.083 0 0 1 .079-.059l.602-.004.19-.58a.083.083 0 0 1 .079-.058Zm5.793-.84c.035 0 .067.023.078.057l.19.58.603.005c.035 0 .067.024.078.058a.085.085 0 0 1-.03.094l-.484.363.182.583a.085.085 0 0 1-.03.093.083.083 0 0 1-.098 0l-.49-.355-.49.356a.083.083 0 0 1-.096 0 .085.085 0 0 1-.03-.094l.181-.583-.484-.363a.085.085 0 0 1-.03-.094.083.083 0 0 1 .079-.058l.602-.005.19-.58a.083.083 0 0 1 .079-.057ZM18 8.712c.036 0 .067.023.079.057l.19.58.602.005c.036 0 .067.024.078.058a.085.085 0 0 1-.03.094l-.484.363.182.583a.085.085 0 0 1-.03.094.083.083 0 0 1-.097 0L18 10.19l-.49.356a.082.082 0 0 1-.097 0 .085.085 0 0 1-.03-.094l.182-.583-.484-.363a.085.085 0 0 1-.03-.094.083.083 0 0 1 .078-.058l.602-.005.19-.58a.083.083 0 0 1 .08-.057Z" fill="#F44336" stroke="#fff" stroke-width=".2"/><path fill-rule="evenodd" clip-rule="evenodd" d="M22 5H2a1 1 0 0 0-1 1v12a1 1 0 0 0 1 1h20a1 1 0 0 0 1-1V6a1 1 0 0 0-1-1ZM2 4a2 2 0 0 0-2 2v12a2 2 0 0 0 2 2h20a2 2 0 0 0 2-2V6a2 2 0 0 0-2-2H2Z" fill="#000" fill-opacity=".04"/><path d="M26 12H14v16h12V12Z" fill="#fff"/><path d="M26 12h4a2 2 0 0 1 2 2v12a2 2 0 0 1-2 2h-4V12Zm-16 0h4v16h-4a2 2 0 0 1-2-2V14a2 2 0 0 1 2-2Zm10.001 3.06v.001l.672 1.28a.41.41 0 0 0 .474.207l.639-.177-.417 2.462c-.036.209.222.332.358.17l.976-1.16.1.458c.05.237.29.38.519.312l1.04-.307-.184 1.396a.422.422 0 0 0 .225.432l.564.286-2.456 1.426a.612.612 0 0 0-.263.74l.21.57-2.105-.183a.197.197 0 0 0-.212.204l.066 2.288h-.414l.067-2.288a.197.197 0 0 0-.213-.204l-2.104.183.21-.57a.612.612 0 0 0-.263-.74l-2.455-1.426.563-.286a.422.422 0 0 0 .225-.431l-.183-1.397 1.04.307a.413.413 0 0 0 .519-.312l.1-.457.976 1.16c.135.16.393.038.358-.17l-.417-2.463.638.177a.411.411 0 0 0 .474-.207L20 15.06l.001-.002Z" fill="#F44336"/><path fill-rule="evenodd" clip-rule="evenodd" d="M30 13H10a1 1 0 0 0-1 1v12a1 1 0 0 0 1 1h20a1 1 0 0 0 1-1V14a1 1 0 0 0-1-1Zm-20-1a2 2 0 0 0-2 2v12a2 2 0 0 0 2 2h20a2 2 0 0 0 2-2V14a2 2 0 0 0-2-2H10Z" fill="#000" fill-opacity=".04"/></svg>