<svg xmlns="http://www.w3.org/2000/svg" width="32" height="32" viewBox="0 0 32 32">
    <g fill="none" fill-rule="evenodd" transform="translate(0 4)">
        <g fill-rule="nonzero">
            <rect width="24" height="16" fill="#0D47A1" rx="2"/>
            <path fill="#FFF" d="M.414 8h.719l3.833-2.551V8h2.069V5.449L10.867 8h.72c.228 0 .413-.188.413-.42v-.334L8.712 5.057H12V2.956H8.711L12 .767V.434c0-.233-.185-.42-.414-.42h-.719l-3.833 2.55V.014H4.965v2.55L1.258.097C.825.235.464.535.241.927l3.048 2.029H0v2.101h3.289L0 7.247v.333c0 .232.185.42.414.42z"/>
            <path fill="#F44336" d="M6.62.013v3.363H12v1.261H6.62V8H5.38V4.637H0V3.376h5.38V.013h1.24zM4.955 5.057L.492 8H.414c-.123 0-.23-.057-.305-.145l-.05-.071 4.135-2.727h.76zm3.164 0l3.875 2.556c-.012.154-.102.284-.234.346l-4.4-2.902h.76zM.685.406l3.867 2.55h-.76L.386.71C.473.597.574.495.685.406zM11.586.013c.122 0 .227.056.301.142l.05.069-4.142 2.732h-.76L11.496.013h.09z"/>
            <path fill="#F44336" stroke="#FFF" stroke-width=".2" d="M18 11.489c.036 0 .067.023.079.057l.19.58.602.005c.036 0 .067.024.078.059.011.034 0 .072-.03.093l-.484.363.182.583c.01.035-.002.072-.03.094-.015.01-.032.016-.05.016-.016 0-.033-.006-.047-.016l-.49-.355-.49.355c-.014.01-.031.016-.048.016s-.034-.006-.049-.016c-.028-.022-.04-.06-.03-.094l.182-.583-.484-.363c-.029-.021-.04-.059-.03-.093.011-.035.042-.058.078-.059l.602-.005.19-.58c.012-.034.044-.057.08-.057zm-2.896-3.835c.035 0 .067.024.078.058l.19.58.602.004c.036 0 .068.024.079.059.01.034-.001.071-.03.093l-.484.364.182.582c.01.035-.002.073-.03.094-.016.01-.033.016-.05.016s-.033-.005-.048-.016l-.49-.355-.49.355c-.014.01-.03.016-.047.016s-.035-.005-.049-.016c-.029-.021-.041-.059-.03-.094l.181-.582-.484-.364c-.028-.022-.04-.06-.03-.093.012-.035.043-.058.079-.059l.602-.004.19-.58c.011-.034.043-.058.079-.058zm5.793-.84c.035 0 .067.023.078.057l.19.58.603.005c.035 0 .067.023.078.058.01.034-.001.072-.03.094l-.484.363.182.583c.01.034-.002.072-.03.093-.015.011-.033.016-.05.016s-.033-.005-.048-.015l-.49-.356-.49.356c-.014.01-.03.015-.047.015s-.034-.005-.049-.016c-.029-.021-.041-.059-.03-.093l.181-.583-.484-.363c-.028-.022-.04-.06-.03-.094.012-.035.043-.058.079-.058l.602-.005.19-.58c.011-.034.043-.057.079-.057zM18 4.712c.036 0 .067.023.079.057l.19.58.602.005c.036 0 .067.024.078.058.011.034 0 .072-.03.094l-.484.363.182.583c.01.034-.002.072-.03.094-.015.01-.032.016-.05.016-.016 0-.033-.006-.047-.016L18 6.19l-.49.356c-.014.01-.031.016-.048.016s-.034-.006-.049-.016c-.028-.022-.04-.06-.03-.094l.182-.583-.484-.363c-.029-.022-.04-.06-.03-.094.011-.034.043-.058.078-.058l.602-.005.19-.58c.012-.034.044-.057.08-.057z"/>
            <rect width="23" height="15" x=".5" y=".5" stroke="#000" stroke-opacity=".04" rx="1"/>
        </g>
        <rect width="23" height="15" x=".5" y=".5" stroke="#000" stroke-opacity=".04" rx="2"/>
        <g fill-rule="nonzero" transform="translate(8 8)">
            <path fill="#FFF" d="M0 8h24v6c0 1.105-.895 2-2 2H2c-1.105 0-2-.895-2-2V8z"/>
            <path fill="#E12237" d="M2 0h20c1.105 0 2 .895 2 2v6H0V2C0 .895.895 0 2 0z"/>
            <path fill="#FFF" d="M4.625 2c.62 0 1.19.205 1.639.547-.238-.084-.495-.13-.764-.13-1.208 0-2.187.932-2.187 2.083 0 1.15.979 2.083 2.187 2.083.269 0 .526-.046.764-.13-.45.342-1.02.547-1.639.547C3.175 7 2 5.88 2 4.5S3.175 2 4.625 2zm1.313 3.333c.241 0 .437.187.437.417 0 .23-.196.417-.437.417-.242 0-.438-.187-.438-.417 0-.23.196-.417.438-.417zm1.75 0c.241 0 .437.187.437.417 0 .23-.196.417-.437.417-.242 0-.438-.187-.438-.417 0-.23.196-.417.438-.417zM5.063 3.667c.241 0 .437.186.437.416 0 .23-.196.417-.437.417-.242 0-.438-.187-.438-.417 0-.23.196-.416.438-.416zm3.5 0c.241 0 .437.186.437.416 0 .23-.196.417-.437.417-.242 0-.438-.187-.438-.417 0-.23.196-.416.438-.416zm-1.75-1.25c.241 0 .437.186.437.416 0 .23-.196.417-.437.417-.242 0-.438-.187-.438-.417 0-.23.196-.416.438-.416z"/>
            <rect width="23" height="15" x=".5" y=".5" stroke="#000" stroke-opacity=".04" rx="1"/>
        </g>
        <rect width="23" height="15" x="8.5" y="8.5" stroke="#000" stroke-opacity=".04" rx="2"/>
    </g>
</svg>
