<svg xmlns="http://www.w3.org/2000/svg" width="24" height="24"><g fill="none" fill-rule="evenodd"><path d="M0 0h24v24H0z"/><path fill="#000" fill-rule="nonzero" d="M19.5 6h-15A1.5 1.5 0 0 0 3 7.5v9A1.5 1.5 0 0 0 4.5 18h15a1.5 1.5 0 0 0 1.5-1.5v-9A1.5 1.5 0 0 0 19.5 6z"/><path stroke="#000" stroke-opacity=".04" stroke-width=".75" d="M19.435 6H4.565C3.701 6 3 6.716 3 7.6v8.8c0 .884.7 1.6 1.565 1.6h14.87c.864 0 1.565-.716 1.565-1.6V7.6c0-.884-.7-1.6-1.565-1.6z"/><g fill="#FFF" fill-rule="nonzero"><path d="M12 7.5a4.5 4.5 0 1 0 0 9 4.5 4.5 0 0 0 0-9zm-2.373 5.626c-.658 0-1.075-.493-1.075-1.126 0-.633.417-1.127 1.075-1.127.659 0 1.076.498 1.076 1.127 0 .63-.417 1.126-1.076 1.126zm3.557-.055h-.375V11.56l-.551 1.51h-.359l-.552-1.51v1.51h-.363v-2.143h.508l.594 1.638.595-1.638h.508l-.005 2.143zm1.327-.32c.29 0 .519-.144.555-.458h-.617v-.371h.999v1.148h-.371v-.245c-.08.137-.276.3-.628.3-.6 0-.986-.478-.986-1.11 0-.587.333-1.139 1.05-1.139.509 0 .88.273.935.763h-.408c-.024-.242-.254-.389-.539-.389-.435 0-.64.34-.64.753 0 .442.232.748.649.748h.001z"/><path d="M9.627 11.257c-.42 0-.67.32-.67.744 0 .426.25.742.67.742.42 0 .672-.316.672-.743 0-.428-.251-.743-.672-.743z"/></g></g></svg>