<svg xmlns="http://www.w3.org/2000/svg" width="32" height="32" viewBox="0 0 32 32">
    <g fill="none" fill-rule="evenodd">
        <g fill-rule="nonzero" transform="translate(4 8)">
            <rect width="24" height="16" fill="#F0371D" rx="2"/>
            <path fill="#FFF" d="M15.477 10.705c.473 1.456-.033 2.925-1.13 3.282-.407-1.25-1.11-1.16-1.305-1.762-.24-.738-.3-.925.02-2.192.32-1.267-.97-1.142-.428-1.318 1.097-.357 2.37.534 2.843 1.99zm-3.868-1.47c.678.934.224 2.42-1.015 3.32-1.238.9-2.792.872-3.47-.062 1.064-.772.76-1.413 1.273-1.785.627-.456.787-.572 2.09-.658 1.305-.087.787-1.275 1.122-.815zm-2.367 2.049c-.155.112-.188.33-.075.485.113.155.33.19.485.078.154-.112.188-.33.075-.485-.113-.156-.33-.19-.485-.078zm4.832-.121c-.183.06-.283.255-.224.437.059.182.255.281.438.222.183-.06.283-.255.224-.437-.059-.182-.255-.282-.438-.222zm-7.76-6.021c1.064.773 1.58.287 2.09.658.629.456.788.572 1.273 1.786.485 1.213 1.456.354 1.121.814-.678.934-2.232.96-3.47.061-1.238-.9-1.692-2.386-1.014-3.32zm8.914.327c1.531 0 2.772.935 2.772 2.089-1.315 0-1.446.696-2.079.696-.776 0-.973 0-2.078-.696-1.106-.697-1.386.569-1.386 0 0-1.154 1.24-2.09 2.771-2.09zm-7.593 1.39c-.113.155-.08.373.075.485.155.113.372.078.485-.078.113-.155.08-.373-.075-.485-.155-.113-.372-.078-.485.078zm5.4-4.767c-.406 1.25.216 1.59.02 2.192-.24.738-.3.925-1.304 1.761-1.004.837.113 1.494-.428 1.318-1.098-.356-1.604-1.825-1.131-3.281.473-1.456 1.746-2.347 2.843-1.99zm2.54 4.504c-.191 0-.347.156-.347.349 0 .192.156.348.347.348.191 0 .346-.156.346-.348 0-.193-.155-.349-.346-.349zM11.37 4.1c-.059.182.041.378.224.437.183.06.38-.04.438-.222.06-.182-.04-.377-.224-.437-.183-.06-.379.04-.438.222z"/>
            <rect width="23" height="15" x=".5" y=".5" stroke="#000" stroke-opacity=".04" rx="1"/>
        </g>
        <g>
            <path fill="#494C5A" fill-opacity=".4" fill-rule="nonzero" d="M2 0h9c1.105 0 2 .895 2 2v5c0 1.105-.895 2-2 2H2C.895 9 0 8.105 0 7V2C0 .895.895 0 2 0z" transform="translate(19 2)"/>
            <path fill="#494C5A" d="M2 1c-.552 0-1 .448-1 1v5c0 .552.448 1 1 1h9c.552 0 1-.448 1-1V2c0-.552-.448-1-1-1H2z" transform="translate(19 2)"/>
            <path fill="#FFF" d="M5.063 4.566c0 .288-.052.54-.157.756-.105.217-.254.384-.45.502-.194.117-.418.176-.67.176-.25 0-.472-.058-.668-.174-.196-.117-.347-.283-.455-.499-.107-.216-.162-.464-.163-.745v-.144c0-.288.053-.54.16-.76.107-.218.258-.386.453-.503.195-.117.418-.175.669-.175.25 0 .473.058.668.175.195.117.346.285.453.504.107.218.16.47.16.757v.13zm-.628-.132c0-.306-.057-.539-.17-.698-.113-.16-.274-.239-.483-.239-.208 0-.369.079-.482.236-.113.157-.17.387-.172.69v.143c0 .298.057.53.17.694.113.164.276.247.488.247.208 0 .368-.08.48-.238.111-.158.168-.39.169-.693v-.142zm3.345-.907h-.922V5.96h-.62V3.527h-.91V3.04H7.78v.487zm2.716 1.46c-.024.314-.143.562-.359.742-.215.18-.5.271-.853.271-.385 0-.689-.126-.91-.378-.221-.252-.332-.598-.332-1.038v-.178c0-.281.051-.528.153-.742.102-.214.248-.378.437-.493.19-.114.41-.171.66-.171.348 0 .628.09.84.27.212.181.335.435.368.76h-.62c-.015-.188-.07-.324-.162-.41-.093-.084-.235-.127-.425-.127-.207 0-.362.072-.464.216-.103.144-.156.367-.158.669v.22c0 .316.049.546.147.692.099.146.254.219.466.219.192 0 .335-.043.43-.128.094-.085.148-.216.162-.394h.62z" transform="translate(19 2)"/>
        </g>
    </g>
</svg>
