<svg xmlns="http://www.w3.org/2000/svg" width="32" height="32" viewBox="0 0 32 32">
    <g fill="none" fill-rule="evenodd">
        <g fill-rule="nonzero" transform="translate(4 8)">
            <rect width="24" height="16" fill="#F44336" rx="2"/>
            <path fill="#FFF" d="M16.552 6.319h-2.897V3.376c0-.232-.185-.42-.414-.42H10.76c-.229 0-.414.188-.414.42v2.943H7.448c-.228 0-.414.188-.414.42v2.522c0 .232.186.42.414.42h2.897v2.943c0 .232.185.42.414.42h2.482c.229 0 .414-.188.414-.42V9.681h2.897c.228 0 .414-.188.414-.42V6.739c0-.232-.186-.42-.414-.42z"/>
            <rect width="23" height="15" x=".5" y=".5" stroke="#000" stroke-opacity=".04" rx="1"/>
        </g>
        <g>
            <path fill="#494C5A" fill-opacity=".4" fill-rule="nonzero" d="M2 0h9c1.105 0 2 .895 2 2v5c0 1.105-.895 2-2 2H2C.895 9 0 8.105 0 7V2C0 .895.895 0 2 0z" transform="translate(19 2)"/>
            <path fill="#494C5A" d="M2 1c-.552 0-1 .448-1 1v5c0 .552.448 1 1 1h9c.552 0 1-.448 1-1V2c0-.552-.448-1-1-1H2z" transform="translate(19 2)"/>
            <path fill="#FFF" d="M5.063 4.566c0 .288-.052.54-.157.756-.105.217-.254.384-.45.502-.194.117-.418.176-.67.176-.25 0-.472-.058-.668-.174-.196-.117-.347-.283-.455-.499-.107-.216-.162-.464-.163-.745v-.144c0-.288.053-.54.16-.76.107-.218.258-.386.453-.503.195-.117.418-.175.669-.175.25 0 .473.058.668.175.195.117.346.285.453.504.107.218.16.47.16.757v.13zm-.628-.132c0-.306-.057-.539-.17-.698-.113-.16-.274-.239-.483-.239-.208 0-.369.079-.482.236-.113.157-.17.387-.172.69v.143c0 .298.057.53.17.694.113.164.276.247.488.247.208 0 .368-.08.48-.238.111-.158.168-.39.169-.693v-.142zm3.345-.907h-.922V5.96h-.62V3.527h-.91V3.04H7.78v.487zm2.716 1.46c-.024.314-.143.562-.359.742-.215.18-.5.271-.853.271-.385 0-.689-.126-.91-.378-.221-.252-.332-.598-.332-1.038v-.178c0-.281.051-.528.153-.742.102-.214.248-.378.437-.493.19-.114.41-.171.66-.171.348 0 .628.09.84.27.212.181.335.435.368.76h-.62c-.015-.188-.07-.324-.162-.41-.093-.084-.235-.127-.425-.127-.207 0-.362.072-.464.216-.103.144-.156.367-.158.669v.22c0 .316.049.546.147.692.099.146.254.219.466.219.192 0 .335-.043.43-.128.094-.085.148-.216.162-.394h.62z" transform="translate(19 2)"/>
        </g>
    </g>
</svg>
