<svg xmlns="http://www.w3.org/2000/svg" xmlns:xlink="http://www.w3.org/1999/xlink" width="32" height="32" viewBox="0 0 32 32">
    <defs>
        <rect id="ustechprefix__a" width="12" height="8" x="0" y="0" rx="1"/>
        <path id="ustechprefix__c" d="M1 0h4.6v4.284H0V1c0-.552.448-1 1-1z"/>
    </defs>
    <g fill="none" fill-rule="evenodd">
        <g fill="#6E7287" fill-rule="nonzero" transform="translate(6 6)">
            <path d="M15 4c.552 0 1 .448 1 1v10c0 .552-.448 1-1 1H5c-.552 0-1-.448-1-1V5c0-.552.448-1 1-1h10m0-1H5c-1.105 0-2 .895-2 2v10c0 1.105.895 2 2 2h10c1.105 0 2-.895 2-2V5c0-1.105-.895-2-2-2z"/>
            <path d="M13 7v6H7V7h6m0-1H7c-.552 0-1 .448-1 1v6c0 .552.448 1 1 1h6c.552 0 1-.448 1-1V7c0-.552-.448-1-1-1z"/>
            <rect width="2" height="4" x="5" y="16" rx="1"/>
            <rect width="2" height="4" x="9" y="16" rx="1"/>
            <rect width="2" height="4" x="13" y="16" rx="1"/>
            <rect width="2" height="4" x="5" rx="1"/>
            <rect width="2" height="4" x="9" rx="1"/>
            <rect width="2" height="4" x="13" rx="1"/>
            <rect width="2" height="4" x="1" y="12" rx="1" transform="rotate(-90 2 14)"/>
            <rect width="2" height="4" x="1" y="8" rx="1" transform="rotate(-90 2 10)"/>
            <rect width="2" height="4" x="1" y="4" rx="1" transform="rotate(-90 2 6)"/>
            <rect width="2" height="4" x="17" y="12" rx="1" transform="rotate(-90 18 14)"/>
            <rect width="2" height="4" x="17" y="8" rx="1" transform="rotate(-90 18 10)"/>
            <rect width="2" height="4" x="17" y="4" rx="1" transform="rotate(-90 18 6)"/>
        </g>
        <g transform="translate(17 3)">
            <mask id="ustechprefix__b" fill="#fff">
                <use xlink:href="#ustechprefix__a"/>
            </mask>
            <use fill="#FFF" xlink:href="#ustechprefix__a"/>
            <path fill="#F44336" d="M12 7.344c0 .362-.294.656-.656.656H.656C.294 8 0 7.706 0 7.344h12zm0-1.224v.612H0V6.12h12zm0-1.224v.612H0v-.612h12zm0-1.224v.612H0v-.612h12zm0-1.224v.612H0v-.612h12zm0-1.224v.612H0v-.612h12zM11.388 0c.304 0 .557.222.604.513L12 .612H.344C.344.274.618 0 .956 0h10.432z" mask="url(#ustechprefix__b)"/>
            <use fill="#0D47A1" xlink:href="#ustechprefix__c"/>
            <rect width="11.5" height="7.5" x=".25" y=".25" stroke="#000" stroke-opacity=".04" stroke-width=".5" rx="1"/>
        </g>
    </g>
</svg>
