<svg xmlns="http://www.w3.org/2000/svg" width="32" height="32"><g fill="none" transform="translate(4 8)"><rect width="24" height="16" fill="#4CAF50" rx="2"/><path fill="#FFF" d="M5.397 6.09l.529 2.777.645-2.777h.682l.642 2.782.526-2.782h.803L8.356 10h-.81l-.637-2.616L6.272 10h-.81l-.868-3.91h.803zm6.134 0L12.994 10h-.856l-.272-.806h-1.412l-.269.806H9.33l1.455-3.91h.747zm2.634 0v3.263h1.711V10H13.36V6.09h.805zm2.979 0v3.263h1.71V10h-2.516V6.09h.806zm-5.987.988l-.486 1.464h.978l-.492-1.464zm7.956-3.6c.177 0 .336.032.475.096a.743.743 0 01.323.273.71.71 0 01.116.4h-.513a.335.335 0 00-.108-.266.44.44 0 00-.302-.095.465.465 0 00-.292.08.247.247 0 00-.104.209c0 .08.04.148.122.203.081.055.201.106.36.154.291.088.504.197.637.326.133.13.2.292.2.486a.598.598 0 01-.245.506c-.162.123-.382.184-.657.184a1.27 1.27 0 01-.523-.105.82.82 0 01-.36-.288.735.735 0 01-.124-.424h.514c0 .275.164.412.493.412a.483.483 0 00.285-.074.243.243 0 00.102-.208.264.264 0 00-.102-.223 1.34 1.34 0 00-.37-.164 2.538 2.538 0 01-.421-.17c-.283-.153-.424-.358-.424-.617 0-.134.038-.254.113-.36a.752.752 0 01.327-.247c.142-.059.301-.088.478-.088zm3.134.034v.415h-.762V6h-.513V3.927h-.752v-.415h2.027z"/><rect width="23" height="15" x=".5" y=".5" stroke="#FFF" stroke-opacity=".24" rx="1"/></g></svg>