<svg xmlns="http://www.w3.org/2000/svg" xmlns:xlink="http://www.w3.org/1999/xlink" width="16" height="16"><defs><path id="a" d="M5.559 0h2.882c.19 0 .363.107.447.276l1.25 2.5a.5.5 0 0 1-.447.724H4.309a.5.5 0 0 1-.447-.724l1.25-2.5A.5.5 0 0 1 5.559 0z"/><path id="c" d="M2.059 4h2.882c.19 0 .363.107.447.276l1.25 2.5a.5.5 0 0 1-.447.724H.809a.5.5 0 0 1-.447-.724l1.25-2.5A.5.5 0 0 1 2.059 4z"/><path id="d" d="M9.059 4h2.882c.19 0 .363.107.447.276l1.25 2.5a.5.5 0 0 1-.447.724H7.809a.5.5 0 0 1-.447-.724l1.25-2.5A.5.5 0 0 1 9.059 4z"/><linearGradient id="b" x1="50%" x2="50%" y1="0%" y2="100%"><stop offset="0%" stop-color="#F4F3F3"/><stop offset="100%" stop-color="#E5E4E2"/></linearGradient></defs><g fill="none" fill-rule="evenodd" transform="translate(1 4)"><use fill="#E5E4E2" xlink:href="#a"/><path fill="url(#b)" stroke="#000" stroke-linejoin="square" stroke-opacity=".08" stroke-width=".5" d="M8.308.262 5.311.51 4.64 3.207l5.083-.63L8.308.261z"/><use fill="#E5E4E2" xlink:href="#c"/><path fill="url(#b)" stroke="#000" stroke-linejoin="square" stroke-opacity=".08" stroke-width=".5" d="m4.808 4.262-2.997.249-.671 2.696 5.083-.63-1.415-2.315z"/><use fill="#E5E4E2" xlink:href="#d"/><path fill="url(#b)" stroke="#000" stroke-linejoin="square" stroke-opacity=".08" stroke-width=".5" d="m11.808 4.262-2.997.249-.671 2.696 5.083-.63-1.415-2.315z"/></g></svg>