<svg width="33" height="32" fill="none" xmlns="http://www.w3.org/2000/svg"><circle cx="16.5" cy="16" r="16" fill="#8247E5"/><path d="M21.13 12.84c-.33-.187-.753-.187-1.129 0l-2.632 1.552-1.785.987-2.585 1.55c-.33.189-.752.189-1.128 0l-2.021-1.22a1.146 1.146 0 0 1-.564-.987v-2.35c0-.376.188-.752.564-.987l2.02-1.175c.33-.188.753-.188 1.129 0l2.02 1.222c.33.188.565.564.565.987v1.55l1.785-1.033v-1.598a1.16 1.16 0 0 0-.564-.987l-3.76-2.209c-.328-.188-.751-.188-1.127 0l-3.854 2.256a1.034 1.034 0 0 0-.564.94v4.418c0 .376.188.751.564.986l3.807 2.21c.329.187.752.187 1.128 0l2.585-1.505 1.785-1.034 2.585-1.503c.33-.188.752-.188 1.128 0l2.021 1.175c.33.188.564.564.564.986v2.35c0 .376-.188.752-.564.987l-1.974 1.175c-.329.188-.752.188-1.128 0l-2.02-1.175a1.146 1.146 0 0 1-.565-.987v-1.504L15.63 18.95v1.551c0 .376.188.752.565.987L20 23.698c.33.187.752.187 1.128 0l3.807-2.21c.329-.188.564-.564.564-.987v-4.464a1.16 1.16 0 0 0-.564-.987l-3.807-2.21Z" fill="#fff"/></svg>