<svg xmlns="http://www.w3.org/2000/svg" width="32" height="32" viewBox="0 0 32 32">
    <g fill="none" fill-rule="evenodd">
        <path d="M0 0H32V32H0z"/>
        <path fill="#E4E4E4" fill-rule="nonzero" d="M29.5 23c.276 0 .5.224.5.5s-.224.5-.5.5H29c-.276 0-.5-.224-.5-.5s.224-.5.5-.5zM6 23c.276 0 .5.224.5.5s-.224.5-.5.5H5c-.276 0-.5-.224-.5-.5s.224-.5.5-.5zm3 0c.276 0 .5.224.5.5s-.224.5-.5.5H8c-.276 0-.5-.224-.5-.5s.224-.5.5-.5zm3 0c.276 0 .5.224.5.5s-.224.5-.5.5h-1c-.276 0-.5-.224-.5-.5s.224-.5.5-.5zm3 0c.276 0 .5.224.5.5s-.224.5-.5.5h-1c-.276 0-.5-.224-.5-.5s.224-.5.5-.5zm3 0c.276 0 .5.224.5.5s-.224.5-.5.5h-1c-.276 0-.5-.224-.5-.5s.224-.5.5-.5zm3 0c.276 0 .5.224.5.5s-.224.5-.5.5h-1c-.276 0-.5-.224-.5-.5s.224-.5.5-.5zm3 0c.276 0 .5.224.5.5s-.224.5-.5.5h-1c-.276 0-.5-.224-.5-.5s.224-.5.5-.5zm3 0c.276 0 .5.224.5.5s-.224.5-.5.5h-1c-.276 0-.5-.224-.5-.5s.224-.5.5-.5zM3 23c.276 0 .5.224.5.5s-.224.5-.5.5h-.5c-.276 0-.5-.224-.5-.5s.224-.5.5-.5zm26.5-11c.276 0 .5.224.5.5s-.224.5-.5.5H29c-.276 0-.5-.224-.5-.5s.224-.5.5-.5zM6 12c.276 0 .5.224.5.5s-.224.5-.5.5H5c-.276 0-.5-.224-.5-.5s.224-.5.5-.5zm3 0c.276 0 .5.224.5.5s-.224.5-.5.5H8c-.276 0-.5-.224-.5-.5s.224-.5.5-.5zm3 0c.276 0 .5.224.5.5s-.224.5-.5.5h-1c-.276 0-.5-.224-.5-.5s.224-.5.5-.5zm3 0c.276 0 .5.224.5.5s-.224.5-.5.5h-1c-.276 0-.5-.224-.5-.5s.224-.5.5-.5zm3 0c.276 0 .5.224.5.5s-.224.5-.5.5h-1c-.276 0-.5-.224-.5-.5s.224-.5.5-.5zm6 0c.276 0 .5.224.5.5s-.224.5-.5.5h-1c-.276 0-.5-.224-.5-.5s.224-.5.5-.5zm3 0c.276 0 .5.224.5.5s-.224.5-.5.5h-1c-.276 0-.5-.224-.5-.5s.224-.5.5-.5zM3 12c.276 0 .5.224.5.5s-.224.5-.5.5h-.5c-.276 0-.5-.224-.5-.5s.224-.5.5-.5z"/>
        <path fill="#84AAAF" fill-rule="nonzero" d="M24.096 7.206c.162-.223.475-.273.698-.11.199.144.26.407.157.62l-.047.078-8 11c-.133.183-.37.251-.575.176l-.086-.041-4.581-2.749-2.889 4.587c-.143.226-.434.296-.66.174l-.081-.055-4.85-4c-.213-.176-.243-.491-.068-.704.156-.19.423-.234.63-.119l.074.051 4.411 3.638 2.848-4.519c.129-.204.382-.284.6-.2l.08.038 4.607 2.764 7.732-10.63z"/>
        <circle cx="3.5" cy="16.5" r="1" fill="#FFF" fill-rule="nonzero"/>
        <circle cx="8.5" cy="20.5" r="1" fill="#FFF" fill-rule="nonzero"/>
        <path fill="#EF4852" fill-rule="nonzero" d="M16.17 18.88l.57.49c.21.14.491.103.657-.088.165-.19.162-.475-.007-.662l-.56-.5c-.21-.182-.528-.16-.71.05-.182.21-.16.528.05.71M20.93 23l1.15 1c.136.118.324.154.494.096.17-.059.296-.204.33-.38.034-.177-.028-.358-.164-.476l-1.15-1c-.099-.088-.229-.132-.36-.123-.132.01-.255.072-.34.173-.09.1-.136.23-.128.363.007.134.068.259.168.347zm-1.52-1.33c.099.088.229.132.36.123.132-.01.255-.072.34-.173.19-.194.19-.506 0-.7l-1.15-1c-.21-.182-.528-.16-.71.05-.182.21-.16.528.05.71l1.11.99zM23.61 25.38l.56.5c.21.182.528.16.71-.05.182-.21.16-.528-.05-.71l-.57-.49c-.13-.144-.33-.2-.515-.144-.185.056-.322.213-.35.404-.03.192.054.382.215.49"/>
        <circle cx="20.5" cy="12.5" r="1" fill="#FFF" fill-rule="nonzero"/>
        <path fill="#58595B" fill-rule="nonzero" d="M20.5 12c.276 0 .5.224.5.5s-.224.5-.5.5-.5-.224-.5-.5.224-.5.5-.5m0-1c-.828 0-1.5.672-1.5 1.5s.672 1.5 1.5 1.5 1.5-.672 1.5-1.5-.672-1.5-1.5-1.5z"/>
        <circle cx="21.5" cy="23.5" r="1" fill="#FFF" fill-rule="nonzero"/>
        <path fill="#EF4852" fill-rule="nonzero" d="M21.5 23c.276 0 .5.224.5.5s-.224.5-.5.5-.5-.224-.5-.5.224-.5.5-.5m0-1c-.828 0-1.5.672-1.5 1.5s.672 1.5 1.5 1.5 1.5-.672 1.5-1.5-.672-1.5-1.5-1.5z"/>
        <circle cx="16.5" cy="18.5" r="1" fill="#FFF" fill-rule="nonzero"/>
        <circle cx="11.5" cy="15.5" r="1" fill="#FFF" fill-rule="nonzero"/>
        <path fill="#84AAAF" fill-rule="nonzero" d="M8.5 19c.828 0 1.5.672 1.5 1.5S9.328 22 8.5 22 7 21.328 7 20.5 7.672 19 8.5 19zm0 1c-.276 0-.5.224-.5.5s.224.5.5.5.5-.224.5-.5-.224-.5-.5-.5zm8-3c.828 0 1.5.672 1.5 1.5s-.672 1.5-1.5 1.5-1.5-.672-1.5-1.5.672-1.5 1.5-1.5zm0 1c-.276 0-.5.224-.5.5s.224.5.5.5.5-.224.5-.5-.224-.5-.5-.5zm-13-3c.828 0 1.5.672 1.5 1.5S4.328 18 3.5 18 2 17.328 2 16.5 2.672 15 3.5 15zm0 1c-.276 0-.5.224-.5.5s.224.5.5.5.5-.224.5-.5-.224-.5-.5-.5zm8-2c.828 0 1.5.672 1.5 1.5s-.672 1.5-1.5 1.5-1.5-.672-1.5-1.5.672-1.5 1.5-1.5zm0 1c-.276 0-.5.224-.5.5s.224.5.5.5.5-.224.5-.5-.224-.5-.5-.5z"/>
        <path fill="#85ACB0" fill-rule="nonzero" d="M27.82 2.109l.066.061 2.004 2.083c.173.196.138.482-.077.64-.192.139-.462.13-.64-.012l-.063-.059-1.115-1.075v2.798c0 .251-.223.455-.5.455-.245 0-.44-.16-.482-.373l-.008-.082V3.752L25.89 4.82c-.153.174-.419.219-.628.117l-.075-.046c-.192-.139-.241-.38-.129-.57l.05-.068 1.996-2.083c.16-.182.435-.219.642-.11l.074.048z"/>
        <path fill="#FF444F" fill-rule="nonzero" d="M27.18 29.891l-.066-.061-2.004-2.083c-.173-.196-.138-.482.077-.64.192-.139.462-.13.64.012l.063.059 1.115 1.075v-2.798c0-.251.223-.455.5-.455.245 0 .44.16.482.373l.008.082v2.793l1.114-1.069c.153-.174.419-.219.628-.117l.075.046c.192.139.241.38.129.57l-.05.068-1.996 2.083c-.16.182-.435.219-.642.11l-.074-.048z"/>
        <g>
            <path fill="#2A2A2A" d="M1 8c-.552 0-1-.447-1-1V1c0-.552.448-1 1-1h12c.552 0 1 .448 1 1v6c0 .553-.448 1-1 1H1z" transform="translate(2 2)"/>
            <path fill="#FFF" d="M4.161 6.305L3.452 6.305 3.452 2.879 2.406 3.235 2.406 2.638 4.07 2.025 4.161 2.025zM7.232 3.712c0-.4-.055-.694-.164-.88-.11-.187-.283-.28-.522-.28-.232 0-.403.088-.512.265-.11.177-.167.453-.173.828v.966c0 .398.056.695.167.891.11.195.286.293.524.293.229 0 .398-.09.507-.27.11-.182.167-.465.173-.85v-.963zm.712.797c0 .614-.115 1.076-.344 1.387-.23.312-.58.467-1.048.467-.461 0-.808-.15-1.041-.455-.234-.304-.353-.754-.36-1.35V3.82c0-.613.116-1.073.345-1.379.23-.307.58-.46 1.05-.46.467 0 .815.15 1.045.448.229.3.347.746.353 1.342v.738zM10.882 3.712c0-.4-.055-.694-.164-.88-.11-.187-.283-.28-.522-.28-.232 0-.403.088-.512.265-.11.177-.167.453-.173.828v.966c0 .398.056.695.167.891.11.195.286.293.524.293.229 0 .398-.09.507-.27.11-.182.167-.465.173-.85v-.963zm.712.797c0 .614-.115 1.076-.344 1.387-.23.312-.58.467-1.048.467-.461 0-.808-.15-1.041-.455-.234-.304-.353-.754-.36-1.35V3.82c0-.613.116-1.073.345-1.379.23-.307.58-.46 1.05-.46.467 0 .815.15 1.045.448.229.3.347.746.353 1.342v.738z" transform="translate(2 2)"/>
        </g>
    </g>
</svg>
