<svg xmlns="http://www.w3.org/2000/svg" width="24" height="24"><g fill="none" fill-rule="evenodd"><path d="M0 0h24v24H0z"/><path fill="#23292F" fill-rule="nonzero" d="M19.5 6.75h-15A1.5 1.5 0 003 8.25v9a1.5 1.5 0 001.5 1.5h15a1.5 1.5 0 001.5-1.5v-9a1.5 1.5 0 00-1.5-1.5z"/><path fill="#FFF" fill-rule="nonzero" d="M13.775 13.786L16.5 16.5h-1.302l-2.074-2.066a1.595 1.595 0 00-2.248 0L8.802 16.5H7.5l2.725-2.714a2.518 2.518 0 013.55 0zM8.818 9l2.058 2.049c.62.618 1.627.618 2.248 0L15.181 9h1.302l-2.708 2.697c-.98.976-2.57.976-3.55 0L7.517 9h1.301z"/><path stroke="#000" stroke-opacity=".04" stroke-width=".75" d="M19.125 7.125H4.875a1.5 1.5 0 00-1.5 1.5v8.25a1.5 1.5 0 001.5 1.5h14.25a1.5 1.5 0 001.5-1.5v-8.25a1.5 1.5 0 00-1.5-1.5z"/></g></svg>