<svg width="32" height="32" fill="none" xmlns="http://www.w3.org/2000/svg"><path d="M0 16C0 7.163 7.163 0 16 0s16 7.163 16 16-7.163 16-16 16S0 24.837 0 16Z" fill="#000"/><path d="M24 9.85v1.383L8 19.386v-1.383l.581-.296a1.231 1.231 0 0 0 .67-1.19 6.77 6.77 0 0 1 10.726-5.994l-1.268.645a5.542 5.542 0 0 0-8.197 5.555L24 9.851Zm-12.63 9.198L24 12.617v1.378l-.582.297a1.232 1.232 0 0 0-.668 1.19 6.77 6.77 0 0 1-10.727 5.996l1.196-.61.067-.036a5.54 5.54 0 0 0 8.205-5.559L8 22.147v-1.381l3.37-1.718Z" fill="#fff"/></svg>