<svg width="32" height="32" viewBox="0 0 32 32" fill="none" xmlns="http://www.w3.org/2000/svg">
<path d="M32 30H0V32H32V30Z" fill="#85ACB0"/>
<path d="M2.5 18.6C2.6 18.6 2.7 18.6 2.8 18.6L4.6 21.8C4.3 22.2 4.2 22.7 4.2 23.2C4.2 24.6 5.3 25.7 6.7 25.7C8.1 25.7 9.2 24.6 9.2 23.2C9.2 22.7 9.1 22.3 8.8 21.9L10.9 18.6C11 18.6 11.2 18.6 11.3 18.6C12.7 18.6 13.8 17.5 13.8 16.1C13.8 15.6 13.7 15.1 13.4 14.8L15.5 11.6C15.6 11.6 15.8 11.6 15.9 11.6C16 11.6 16.2 11.6 16.3 11.6L18.4 14.8C18.1 15.2 18 15.7 18 16.1C18 17.5 19.1 18.6 20.5 18.6C21.9 18.6 23 17.5 23 16.1C23 15.6 22.9 15.1 22.6 14.8L24.7 11.6C24.8 11.6 25 11.6 25.1 11.6C26.5 11.6 27.6 10.5 27.6 9.1C27.6 8.6 27.4 8.1 27.2 7.7L29.2 5C29.3 5 29.4 5 29.5 5C30.9 5 32 3.9 32 2.5C32 1.1 30.9 0 29.5 0C28.1 0 27 1.1 27 2.5C27 3 27.2 3.5 27.5 3.9L25.8 6.6C25.7 6.6 25.6 6.6 25.4 6.6C24 6.6 22.9 7.7 22.9 9.1C22.9 9.6 23 10.1 23.3 10.4L21.2 13.6C21.1 13.6 20.9 13.6 20.8 13.6C20.7 13.6 20.5 13.6 20.4 13.6L18.3 10.4C18.6 10 18.7 9.5 18.7 9.1C18.7 7.7 17.6 6.6 16.2 6.6C14.8 6.6 13.7 7.7 13.7 9.1C13.7 9.6 13.8 10.1 14.1 10.4L12 13.6C11.9 13.6 11.7 13.6 11.6 13.6C10.2 13.6 9.1 14.7 9.1 16.1C9.1 16.6 9.3 17.1 9.5 17.5L7.4 20.7C7.2 20.7 7.1 20.6 6.9 20.6C6.8 20.6 6.6 20.6 6.5 20.6L4.7 17.5C4.8 17.2 5 16.7 5 16.1C5 14.7 3.9 13.6 2.5 13.6C1.1 13.6 0 14.7 0 16.1C0 17.5 1.1 18.6 2.5 18.6Z" fill="#85ACB0"/>
<path d="M0 1.86471C0 0.833782 1.02335 -0.00195312 2.28571 -0.00195312H13.7143C14.9767 -0.00195312 16 0.833782 16 1.86471V7.46471C16 8.49564 14.9767 9.33138 13.7143 9.33138H2.28571C1.02335 9.33138 0 8.49564 0 7.46471V1.86471Z" fill="#0E0E0E"/>
<path d="M3.2264 6.99805V6.27733H4.34619V3.48978H4.29258L3.44678 4.59765L2.87497 4.15093L3.86968 2.84054H5.23963V6.27733H6.12117V6.99805H3.2264ZM8.02486 7.06952C7.48085 7.06952 7.07781 6.88091 6.81573 6.50367C6.55365 6.12644 6.42261 5.59831 6.42261 4.91929C6.42261 4.24027 6.55365 3.71215 6.81573 3.33491C7.07781 2.95768 7.48085 2.76906 8.02486 2.76906C8.56887 2.76906 8.97192 2.95768 9.23399 3.33491C9.49607 3.71215 9.62711 4.24027 9.62711 4.91929C9.62711 5.59831 9.49607 6.12644 9.23399 6.50367C8.97192 6.88091 8.56887 7.06952 8.02486 7.06952ZM8.02486 6.31307C8.26311 6.31307 8.42791 6.22571 8.51924 6.05099C8.61057 5.87627 8.65623 5.63008 8.65623 5.31241V4.52618C8.65623 4.20851 8.61057 3.96231 8.51924 3.78759C8.42791 3.61287 8.26311 3.52551 8.02486 3.52551C7.78661 3.52551 7.62182 3.61287 7.53049 3.78759C7.43916 3.96231 7.39349 4.20851 7.39349 4.52618V5.31241C7.39349 5.63008 7.43916 5.87627 7.53049 6.05099C7.62182 6.22571 7.78661 6.31307 8.02486 6.31307ZM11.5963 7.06952C11.0523 7.06952 10.6493 6.88091 10.3872 6.50367C10.1251 6.12644 9.99408 5.59831 9.99408 4.91929C9.99408 4.24027 10.1251 3.71215 10.3872 3.33491C10.6493 2.95768 11.0523 2.76906 11.5963 2.76906C12.1403 2.76906 12.5434 2.95768 12.8055 3.33491C13.0675 3.71215 13.1986 4.24027 13.1986 4.91929C13.1986 5.59831 13.0675 6.12644 12.8055 6.50367C12.5434 6.88091 12.1403 7.06952 11.5963 7.06952ZM11.5963 6.31307C11.8346 6.31307 11.9994 6.22571 12.0907 6.05099C12.182 5.87627 12.2277 5.63008 12.2277 5.31241V4.52618C12.2277 4.20851 12.182 3.96231 12.0907 3.78759C11.9994 3.61287 11.8346 3.52551 11.5963 3.52551C11.3581 3.52551 11.1933 3.61287 11.102 3.78759C11.0106 3.96231 10.965 4.20851 10.965 4.52618V5.31241C10.965 5.63008 11.0106 5.87627 11.102 6.05099C11.1933 6.22571 11.3581 6.31307 11.5963 6.31307Z" fill="white"/>
</svg>