<svg width="33" height="32" viewBox="0 0 33 32" fill="none" xmlns="http://www.w3.org/2000/svg">
<path d="M32.666 30H0.666016V32H32.666V30Z" fill="#85ACB0"/>
<path d="M3.16602 18.6C3.26602 18.6 3.36602 18.6 3.46602 18.6L5.26602 21.8C4.96602 22.2 4.86602 22.7 4.86602 23.2C4.86602 24.6 5.96602 25.7 7.36602 25.7C8.76602 25.7 9.86602 24.6 9.86602 23.2C9.86602 22.7 9.76602 22.3 9.46602 21.9L11.566 18.6C11.666 18.6 11.866 18.6 11.966 18.6C13.366 18.6 14.466 17.5 14.466 16.1C14.466 15.6 14.366 15.1 14.066 14.8L16.166 11.6C16.266 11.6 16.466 11.6 16.566 11.6C16.666 11.6 16.866 11.6 16.966 11.6L19.066 14.8C18.766 15.2 18.666 15.7 18.666 16.1C18.666 17.5 19.766 18.6 21.166 18.6C22.566 18.6 23.666 17.5 23.666 16.1C23.666 15.6 23.566 15.1 23.266 14.8L25.366 11.6C25.466 11.6 25.666 11.6 25.766 11.6C27.166 11.6 28.266 10.5 28.266 9.1C28.266 8.6 28.066 8.1 27.866 7.7L29.866 5C29.966 5 30.066 5 30.166 5C31.566 5 32.666 3.9 32.666 2.5C32.666 1.1 31.566 0 30.166 0C28.766 0 27.666 1.1 27.666 2.5C27.666 3 27.866 3.5 28.166 3.9L26.466 6.6C26.366 6.6 26.266 6.6 26.066 6.6C24.666 6.6 23.566 7.7 23.566 9.1C23.566 9.6 23.666 10.1 23.966 10.4L21.866 13.6C21.766 13.6 21.566 13.6 21.466 13.6C21.366 13.6 21.166 13.6 21.066 13.6L18.966 10.4C19.266 10 19.366 9.5 19.366 9.1C19.366 7.7 18.266 6.6 16.866 6.6C15.466 6.6 14.366 7.7 14.366 9.1C14.366 9.6 14.466 10.1 14.766 10.4L12.666 13.6C12.566 13.6 12.366 13.6 12.266 13.6C10.866 13.6 9.76602 14.7 9.76602 16.1C9.76602 16.6 9.96602 17.1 10.166 17.5L8.06602 20.7C7.86602 20.7 7.76602 20.6 7.56602 20.6C7.46602 20.6 7.26602 20.6 7.16602 20.6L5.36602 17.5C5.46602 17.2 5.66602 16.7 5.66602 16.1C5.66602 14.7 4.56602 13.6 3.16602 13.6C1.76602 13.6 0.666016 14.7 0.666016 16.1C0.666016 17.5 1.76602 18.6 3.16602 18.6Z" fill="#85ACB0"/>
<path d="M0.666016 2C0.666016 0.89543 1.30561 0 2.09459 0H9.23744C10.0264 0 10.666 0.895431 10.666 2V8C10.666 9.10457 10.0264 10 9.23744 10H2.09459C1.30561 10 0.666016 9.10457 0.666016 8V2Z" fill="#0E0E0E"/>
<path d="M7.39705 3.94732H5.13127L5.02406 5.52694H5.08124C5.12889 5.40781 5.1813 5.3006 5.23848 5.2053C5.30043 5.10523 5.3719 5.02184 5.45291 4.95513C5.53392 4.88366 5.6316 4.82886 5.74596 4.79074C5.86032 4.75262 5.99613 4.73356 6.15337 4.73356C6.3678 4.73356 6.56793 4.76929 6.75377 4.84077C6.93961 4.91225 7.10162 5.01708 7.23981 5.15526C7.37799 5.28868 7.48759 5.45546 7.56859 5.65559C7.6496 5.85096 7.6901 6.07254 7.6901 6.32032C7.6901 6.57287 7.64722 6.80874 7.56145 7.02793C7.48044 7.24236 7.35655 7.42819 7.18977 7.58544C7.02776 7.74269 6.82763 7.86658 6.58938 7.95711C6.35112 8.04289 6.07952 8.08577 5.77455 8.08577C5.53153 8.08577 5.31711 8.05956 5.13127 8.00715C4.94543 7.95473 4.78104 7.88564 4.63809 7.79987C4.49513 7.70933 4.37124 7.60688 4.26641 7.49252C4.16158 7.37816 4.07105 7.25665 3.9948 7.128L4.77389 6.5133C4.88349 6.70867 5.01453 6.87545 5.16701 7.01363C5.31949 7.14706 5.52439 7.21377 5.7817 7.21377C6.03901 7.21377 6.232 7.13991 6.36065 6.99219C6.49407 6.84447 6.56079 6.64911 6.56079 6.40609V6.34891C6.56079 6.12019 6.49407 5.93911 6.36065 5.80569C6.22723 5.67227 6.04378 5.60556 5.81029 5.60556C5.61492 5.60556 5.45291 5.64606 5.32425 5.72707C5.20036 5.80331 5.10506 5.87955 5.03835 5.95579L4.1592 5.83428L4.34504 3.01099H7.39705V3.94732Z" fill="white"/>
</svg>
