<svg width="32" height="32" viewBox="0 0 32 32" fill="none" xmlns="http://www.w3.org/2000/svg">
<path d="M32 30H0V32H32V30Z" fill="#85ACB0"/>
<path d="M2.5 18.6C2.6 18.6 2.7 18.6 2.8 18.6L4.6 21.8C4.3 22.2 4.2 22.7 4.2 23.2C4.2 24.6 5.3 25.7 6.7 25.7C8.1 25.7 9.2 24.6 9.2 23.2C9.2 22.7 9.1 22.3 8.8 21.9L10.9 18.6C11 18.6 11.2 18.6 11.3 18.6C12.7 18.6 13.8 17.5 13.8 16.1C13.8 15.6 13.7 15.1 13.4 14.8L15.5 11.6C15.6 11.6 15.8 11.6 15.9 11.6C16 11.6 16.2 11.6 16.3 11.6L18.4 14.8C18.1 15.2 18 15.7 18 16.1C18 17.5 19.1 18.6 20.5 18.6C21.9 18.6 23 17.5 23 16.1C23 15.6 22.9 15.1 22.6 14.8L24.7 11.6C24.8 11.6 25 11.6 25.1 11.6C26.5 11.6 27.6 10.5 27.6 9.1C27.6 8.6 27.4 8.1 27.2 7.7L29.2 5C29.3 5 29.4 5 29.5 5C30.9 5 32 3.9 32 2.5C32 1.1 30.9 0 29.5 0C28.1 0 27 1.1 27 2.5C27 3 27.2 3.5 27.5 3.9L25.8 6.6C25.7 6.6 25.6 6.6 25.4 6.6C24 6.6 22.9 7.7 22.9 9.1C22.9 9.6 23 10.1 23.3 10.4L21.2 13.6C21.1 13.6 20.9 13.6 20.8 13.6C20.7 13.6 20.5 13.6 20.4 13.6L18.3 10.4C18.6 10 18.7 9.5 18.7 9.1C18.7 7.7 17.6 6.6 16.2 6.6C14.8 6.6 13.7 7.7 13.7 9.1C13.7 9.6 13.8 10.1 14.1 10.4L12 13.6C11.9 13.6 11.7 13.6 11.6 13.6C10.2 13.6 9.1 14.7 9.1 16.1C9.1 16.6 9.3 17.1 9.5 17.5L7.4 20.7C7.2 20.7 7.1 20.6 6.9 20.6C6.8 20.6 6.6 20.6 6.5 20.6L4.7 17.5C4.8 17.2 5 16.7 5 16.1C5 14.7 3.9 13.6 2.5 13.6C1.1 13.6 0 14.7 0 16.1C0 17.5 1.1 18.6 2.5 18.6Z" fill="#85ACB0"/>
<path d="M0 2C0 0.89543 0.639593 0 1.42857 0H8.57143C9.36041 0 10 0.895431 10 2V8C10 9.10457 9.36041 10 8.57143 10H1.42857C0.639593 10 0 9.10457 0 8V2Z" fill="#0E0E0E"/>
<path d="M6.93832 8H3.40741V7.02078L4.94414 5.70563C5.08233 5.5865 5.19907 5.47929 5.29437 5.38399C5.38967 5.28392 5.46591 5.18862 5.5231 5.09808C5.58504 5.00278 5.62793 4.90986 5.65175 4.81933C5.68034 4.72879 5.69464 4.63111 5.69464 4.52628V4.42621C5.69464 4.33091 5.67558 4.24752 5.63746 4.17604C5.59934 4.10457 5.5493 4.04501 5.48736 3.99736C5.42541 3.9497 5.35394 3.91397 5.27293 3.89014C5.19669 3.86632 5.11807 3.8544 5.03706 3.8544C4.91793 3.8544 4.8131 3.87346 4.72257 3.91158C4.6368 3.94971 4.56055 4.00212 4.49384 4.06883C4.4319 4.13078 4.37948 4.20464 4.3366 4.29041C4.29371 4.37141 4.26036 4.45957 4.23653 4.55487L3.3002 4.19749C3.35738 4.02595 3.436 3.86393 3.53607 3.71145C3.63613 3.55421 3.76003 3.4184 3.90774 3.30404C4.06022 3.18491 4.23891 3.092 4.44381 3.02528C4.64871 2.95857 4.87981 2.92522 5.13713 2.92522C5.40873 2.92522 5.64937 2.96334 5.85903 3.03958C6.06869 3.11582 6.245 3.22065 6.38795 3.35407C6.53567 3.48749 6.64765 3.64712 6.72389 3.83296C6.80013 4.01403 6.83825 4.21178 6.83825 4.42621C6.83825 4.64064 6.80251 4.836 6.73104 5.01231C6.65956 5.18862 6.56188 5.3554 6.43799 5.51264C6.31886 5.66512 6.17829 5.81046 6.01628 5.94864C5.85427 6.08683 5.68511 6.2274 5.5088 6.37035L4.57962 7.09941H6.93832V8Z" fill="white"/>
</svg>
