<svg xmlns="http://www.w3.org/2000/svg" width="28" height="28"><g fill="none" fill-rule="evenodd"><path fill="#E4E4E4" fill-rule="nonzero" d="M27.5 24H27a.5.5 0 0 1 0-1h.5a.5.5 0 0 1 0 1zM25 24h-1a.5.5 0 0 1 0-1h1a.5.5 0 0 1 0 1zm-3 0h-1a.5.5 0 0 1 0-1h1a.5.5 0 0 1 0 1zm-3 0h-1a.5.5 0 0 1 0-1h1a.5.5 0 0 1 0 1zm-3 0h-1a.5.5 0 0 1 0-1h1a.5.5 0 0 1 0 1zm-3 0h-1a.5.5 0 0 1 0-1h1a.5.5 0 0 1 0 1zm-3 0H9a.5.5 0 0 1 0-1h1a.5.5 0 0 1 0 1zm-3 0H6a.5.5 0 0 1 0-1h1a.5.5 0 0 1 0 1zm-3 0H3a.5.5 0 0 1 0-1h1a.5.5 0 0 1 0 1zm-3 0H.5a.5.5 0 0 1 0-1H1a.5.5 0 0 1 0 1z"/><path stroke="#85ACB0" stroke-linecap="round" stroke-linejoin="round" d="m1.5 20.5 4 6 6-12 5 7 10-20"/><path fill="#FFF" fill-rule="nonzero" stroke="#85ACB0" d="M2.5 20.5a1 1 0 1 1-2 0 1 1 0 0 1 2 0z"/><circle cx="5.5" cy="26.5" r="1" fill="#FFF" fill-rule="nonzero" stroke="#85ACB0"/><circle cx="11.5" cy="14.5" r="1" fill="#FFF" fill-rule="nonzero" stroke="#85ACB0"/><path fill="#FFF" fill-rule="nonzero" stroke="#85ACB0" d="M17.5 21.5a1 1 0 1 1-2 0 1 1 0 0 1 2 0z"/><circle cx="26.5" cy="1.5" r="1" fill="#FFF" fill-rule="nonzero" stroke="#85ACB0"/><rect width="11.606" height="8" fill="#333" fill-rule="nonzero" rx="1"/><path fill="#FFF" fill-rule="nonzero" d="M5.388 6.443H2.07v-.756l1.561-1.393c.247-.224.436-.436.567-.637.135-.205.203-.42.203-.644v-.091c0-.238-.072-.425-.217-.56-.14-.135-.331-.203-.574-.203a.94.94 0 0 0-.357.063.78.78 0 0 0-.259.161.972.972 0 0 0-.189.245 1.52 1.52 0 0 0-.112.301L2 2.663a1.98 1.98 0 0 1 .21-.441 1.535 1.535 0 0 1 .812-.651c.187-.065.404-.098.651-.098s.469.037.665.112c.196.07.36.17.49.301.135.126.238.278.308.455s.105.371.105.581c0 .196-.03.378-.091.546-.06.168-.145.327-.252.476a2.83 2.83 0 0 1-.378.427c-.14.135-.29.273-.448.413l-1.148.987h2.464v.672zm3.966-4.2h-2.17l-.126 1.729h.05c.055-.098.114-.184.174-.259a.866.866 0 0 1 .483-.329 1.567 1.567 0 0 1 .945.056c.182.07.339.17.47.301.135.13.24.292.314.483.075.187.112.399.112.637 0 .243-.04.467-.119.672a1.42 1.42 0 0 1-.336.532c-.15.145-.333.259-.553.343-.214.08-.46.119-.735.119-.22 0-.413-.026-.58-.077a1.794 1.794 0 0 1-.449-.189 1.966 1.966 0 0 1-.336-.28 3.306 3.306 0 0 1-.252-.329l.574-.455c.06.098.124.187.19.266.065.08.14.15.223.21a1.02 1.02 0 0 0 .644.189c.29 0 .511-.08.665-.238.159-.159.238-.378.238-.658v-.084c0-.28-.08-.5-.238-.658-.154-.159-.375-.238-.665-.238-.21 0-.378.04-.504.119-.126.08-.233.168-.322.266l-.65-.091.181-2.723h2.772v.686z"/></g></svg>