<svg width="32" height="32" fill="none" xmlns="http://www.w3.org/2000/svg"><path fill-rule="evenodd" clip-rule="evenodd" d="M26.69 17.242A1 1 0 0 0 25.72 16H6.28a1 1 0 0 0-.97 1.242l2.5 10a1 1 0 0 0 .97.758h14.44a1 1 0 0 0 .97-.758l2.5-10ZM11 19a1 1 0 0 0-1 1v4a1 1 0 1 0 2 0v-4a1 1 0 0 0-1-1Zm4 1a1 1 0 1 1 2 0v4a1 1 0 1 1-2 0v-4Zm6-1a1 1 0 0 0-1 1v4a1 1 0 1 0 2 0v-4a1 1 0 0 0-1-1ZM15.914 7.395 13.185 12h5.63l-2.729-4.605a.1.1 0 0 0-.172 0ZM21.8 12l-4.285-7.143a1.766 1.766 0 0 0-3.03 0L10.2 12H5a1 1 0 1 0 0 2h22a1 1 0 1 0 0-2h-5.2Z" fill="#D2D3DA"/><path d="M30.75 0h-12.5C17.56 0 17 .56 17 1.25v7.5c0 .69.56 1.25 1.25 1.25h12.5c.69 0 1.25-.56 1.25-1.25v-7.5C32 .56 31.44 0 30.75 0Z" fill="#0D47A1"/><path d="m24.605 7.933.104.316.328.002c.042 0 .06.056.025.081l-.263.198.099.318c.012.04-.034.075-.068.05l-.267-.194-.266.194c-.035.025-.081-.01-.068-.05l.099-.318-.264-.198c-.034-.025-.017-.08.026-.08l.328-.003.103-.316a.044.044 0 0 1 .084 0Zm-1.615-.53.104.316.327.003c.043 0 .06.055.026.08l-.263.199.098.317c.013.041-.033.075-.067.05l-.267-.194-.267.194c-.034.025-.08-.009-.067-.05l.098-.317-.263-.198a.045.045 0 0 1 .026-.081l.327-.003.104-.316a.044.044 0 0 1 .084 0Zm3.254 0c.013-.04.07-.04.084 0l.104.316.327.003c.043 0 .06.055.026.08l-.264.199.1.317c.012.041-.034.075-.069.05l-.266-.194-.267.194c-.034.025-.08-.009-.067-.05l.098-.317-.263-.198a.045.045 0 0 1 .026-.081l.327-.003.104-.316Zm1.305-1.24.104.315.328.003c.042 0 .06.055.026.08l-.264.198.1.318c.012.04-.034.075-.069.05l-.266-.194-.267.194c-.035.025-.08-.01-.068-.05l.1-.318-.265-.197c-.034-.026-.016-.081.026-.081l.328-.003.104-.316c.013-.04.07-.04.083 0Zm-5.793-.02.012.02.104.315.328.003c.034 0 .052.035.04.062l-.014.019-.264.197.099.318a.045.045 0 0 1-.046.058l-.022-.008-.267-.194-.266.194c-.028.02-.063.002-.07-.027l.002-.023.099-.318-.264-.197a.045.045 0 0 1 .004-.075l.022-.006.328-.003.104-.316a.043.043 0 0 1 .07-.02Zm6.187-1.6.104.315.327.003c.043 0 .06.055.026.08l-.263.198.098.318c.013.04-.033.075-.067.05l-.267-.194-.267.194c-.034.025-.08-.01-.067-.05l.098-.318-.263-.198c-.034-.025-.017-.08.026-.08l.327-.003.104-.316c.013-.04.07-.04.084 0Zm-6.676 0 .104.315.328.003c.042 0 .06.055.025.08l-.263.198.099.318c.013.04-.034.075-.068.05l-.267-.194-.266.194c-.035.025-.081-.01-.068-.05l.099-.318-.264-.198c-.034-.025-.017-.08.026-.08l.328-.003.103-.316c.014-.04.07-.04.084 0Zm.501-1.772.104.316.328.003c.042 0 .06.055.026.08l-.264.199.099.317c.013.041-.034.075-.068.05l-.267-.194-.266.194c-.035.025-.08-.009-.068-.05l.099-.317-.264-.198a.045.045 0 0 1 .026-.081l.328-.003.104-.316c.013-.04.07-.04.083 0Zm5.769-.02.012.02.104.316.328.003c.034 0 .052.035.04.063l-.014.018-.264.198.1.317a.045.045 0 0 1-.047.058l-.022-.008-.266-.194-.267.194a.044.044 0 0 1-.069-.027l.001-.023.1-.317-.265-.198a.045.045 0 0 1 .004-.075l.022-.006.328-.003.104-.316c.01-.032.05-.039.07-.02Zm-1.21-1.22.104.315.328.003c.043 0 .06.055.026.08l-.264.198.1.318c.012.041-.034.075-.068.05l-.267-.194-.267.194c-.034.025-.08-.009-.067-.05l.098-.318-.263-.197c-.034-.026-.017-.081.026-.081l.327-.003.104-.316c.013-.04.07-.04.084 0Zm-3.35-.02.013.02.104.315.327.003c.034 0 .052.035.04.062l-.014.019-.263.197.098.318a.045.045 0 0 1-.046.058l-.021-.008-.267-.194-.267.194c-.027.02-.062.002-.069-.027l.002-.023.098-.318-.263-.197a.045.045 0 0 1 .003-.075l.023-.006.327-.003.104-.316c.01-.032.05-.039.071-.02Zm1.628-.36.104.316.328.003c.042 0 .06.055.025.08l-.263.198.099.318c.012.041-.034.075-.068.05l-.267-.194-.266.194c-.035.025-.081-.009-.068-.05l.099-.318-.264-.197a.045.045 0 0 1 .026-.081l.328-.003.103-.316c.014-.04.07-.04.084 0Z" fill="#FFEB3B"/><path fill-rule="evenodd" clip-rule="evenodd" d="M30.75.625h-12.5a.625.625 0 0 0-.625.625v7.5c0 .345.28.625.625.625h12.5c.345 0 .625-.28.625-.625v-7.5a.625.625 0 0 0-.625-.625ZM18.25 0C17.56 0 17 .56 17 1.25v7.5c0 .69.56 1.25 1.25 1.25h12.5c.69 0 1.25-.56 1.25-1.25v-7.5C32 .56 31.44 0 30.75 0h-12.5Z" fill="#000" fill-opacity=".04"/></svg>