<svg xmlns="http://www.w3.org/2000/svg" width="32" height="32"><g fill="none" fill-rule="evenodd"><path d="M0 0h32v32H0z"/><path fill="#000" fill-rule="nonzero" d="M0 4c0-2.21 1.79-4 4-4h24c2.21 0 4 1.79 4 4v24c0 2.21-1.79 4-4 4H4c-2.21 0-4-1.79-4-4V4z"/><path fill="#FFF" d="M12.6 14.83v-3l-1.18-.03V20h1.22v-.72c.274.273.596.494.95.65.372.16.774.243 1.18.24a3.159 3.159 0 0 0 2.9-1.9c.163-.382.244-.794.24-1.21a3.085 3.085 0 0 0-.24-1.21 3.022 3.022 0 0 0-.67-1 3.283 3.283 0 0 0-1-.67 3.146 3.146 0 0 0-1.23-.24 2.854 2.854 0 0 0-1.17.24 3.154 3.154 0 0 0-1 .65zm.57 3.66a2.133 2.133 0 0 1-.43-2.28c.107-.246.26-.47.45-.66a1.987 1.987 0 0 1 1.45-.6c.271-.003.54.051.79.16a2 2 0 0 1 .65.44c.187.19.336.414.44.66a2.133 2.133 0 0 1 0 1.62 2.009 2.009 0 0 1-1.09 1.1c-.25.109-.518.163-.79.16a1.979 1.979 0 0 1-.81-.16 2.288 2.288 0 0 1-.66-.44zm-7.37-.02a1.984 1.984 0 0 1-.42-.69 2.479 2.479 0 0 1-.15-.89v-5.06H4V17c-.014.428.05.855.19 1.26.152.374.376.714.66 1 .282.287.623.509 1 .65.388.154.802.232 1.22.23.412.003.82-.078 1.2-.24a2.814 2.814 0 0 0 1-.67V20h1.18v-8.17H9.22v5.06c.004.303-.047.605-.15.89-.094.255-.24.486-.43.68-.182.19-.4.344-.64.45a2.069 2.069 0 0 1-.76.16 1.93 1.93 0 0 1-.8-.16 1.667 1.667 0 0 1-.64-.44zm12.72-2.62c.147-.373.368-.713.65-1 .28-.294.621-.523 1-.67.38-.17.793-.255 1.21-.25.411-.002.819.076 1.2.23a2.923 2.923 0 0 1 1.57 1.641c.132.385.196.791.19 1.2v.39h-4.86c.04.235.12.462.24.67.109.204.255.387.43.54.18.15.383.27.6.36a2.14 2.14 0 0 0 2.43-.751l.85.63a2.997 2.997 0 0 1-1.1.93 3.09 3.09 0 0 1-1.47.34 3.22 3.22 0 0 1-1.25-.23 2.98 2.98 0 0 1-1-.66 3.179 3.179 0 0 1-.68-1 3.262 3.262 0 0 1 0-2.43l-.01.06zm1.65-.46c-.343.28-.58.668-.67 1.1h3.64a1.857 1.857 0 0 0-.65-1.1 1.809 1.809 0 0 0-2.32 0zm6 1.24a1.565 1.565 0 0 1 .38-1.11 1.244 1.244 0 0 1 .96-.42H28V14h-.41a1.602 1.602 0 0 0-1.42.73V14H25v6h1.17v-3.37z"/></g></svg>