<svg width="33" height="32" fill="none" xmlns="http://www.w3.org/2000/svg"><path d="M.5 16c0-8.837 7.163-16 16-16s16 7.163 16 16-7.163 16-16 16-16-7.163-16-16Z" fill="#000"/><path fill-rule="evenodd" clip-rule="evenodd" d="M10.424 9.173a.605.605 0 0 1 .417-.172h14.364c.262 0 .394.317.208.502l-2.837 2.838a.59.59 0 0 1-.417.172H7.795a.294.294 0 0 1-.208-.502l2.837-2.838Zm0 10.596a.59.59 0 0 1 .417-.172h14.364c.262 0 .394.317.208.502l-2.837 2.838a.59.59 0 0 1-.417.172H7.795a.294.294 0 0 1-.208-.502l2.837-2.838Zm11.735-5.504a.59.59 0 0 1 .417.172l2.837 2.838a.294.294 0 0 1-.208.502H10.84a.589.589 0 0 1-.417-.172l-2.837-2.837a.294.294 0 0 1 .208-.503H22.16Z" fill="url(#a)"/><defs><linearGradient id="a" x1="21.645" y1="6.164" x2="11.702" y2="25.206" gradientUnits="userSpaceOnUse"><stop stop-color="#00FFA3"/><stop offset="1" stop-color="#DC1FFF"/></linearGradient></defs></svg>