<svg xmlns="http://www.w3.org/2000/svg" xmlns:xlink="http://www.w3.org/1999/xlink" width="32" height="32"><defs><path id="a" d="M0 0h32v32H0z"/></defs><g fill="none" fill-rule="evenodd"><mask id="b" fill="#fff"><use xlink:href="#a"/></mask><g fill-rule="nonzero" mask="url(#b)"><path fill="#00364F" d="M15.032 4.758h1.852a.38.38 0 0 0 .269-.647.387.387 0 0 0-.27-.111h-1.852v.758zm0 1.768h1.894a.42.42 0 1 0 0-.842h-1.894v.842zm2.99-1.347a1.373 1.373 0 0 1 .42.968 1.336 1.336 0 0 1-.824 1.253c-.164.068-.34.102-.518.1h-3.079V3.074h3.032a1.312 1.312 0 0 1 1.3 1.3 1.72 1.72 0 0 1-.332.805zm.715 7.579H17.6L17.263 12H14.78l-.337.758h-1.137L15.5 8.337h1.01l2.227 4.421zM16 9.474l-.758 1.6h1.516L16 9.474zm1.516 4.252h1.263l-2.232 2.863v1.558H15.5v-1.558l-2.232-2.863h1.263l1.516 2.021 1.47-2.021zm5.852 0v.974h-2.947v.758h2.863v.968h-2.863v.842h2.947v.969h-4v-4.511h4zm3.243 2.737h-.8v1.684h-1.053v-4.421h2.7a1.38 1.38 0 0 1 .379 2.695l1.3 1.726h-1.263l-1.263-1.684zm.757-1.81h-1.515v.847h1.515a.422.422 0 0 0 .421-.421.452.452 0 0 0-.42-.426zm-13.642 3.494H12.59l-.336-.758H9.768l-.336.758H8.3l2.231-4.421h1.011l2.184 4.421zm-2.737-3.284-.757 1.6h1.557l-.8-1.6zm-6.689.548h1.847a.38.38 0 0 0 .269-.647.382.382 0 0 0-.269-.111H4.3v.758zm0 1.768h1.89a.422.422 0 0 0-.001-.842H4.3v.842zm2.99-1.347a1.373 1.373 0 0 1 .42.968 1.314 1.314 0 0 1-.389.958 1.33 1.33 0 0 1-.958.389h-3.12v-4.421h3.031a1.309 1.309 0 0 1 1.3 1.306 1.326 1.326 0 0 1-.29.8h.005zm10.736 3.242v.968h-2.952v.758h2.863v.968h-2.863v.843h2.947v.968h-4v-4.5l4.005-.005zm-.758 6.863a.405.405 0 0 0-.116-.305.4.4 0 0 0-.305-.116h-1.81v.842h1.81a.39.39 0 0 0 .391-.258.393.393 0 0 0 .025-.163h.005zm-3.284 3.074v-4.422h2.947a1.364 1.364 0 0 1 1.253.865c.066.166.098.345.095.525a1.336 1.336 0 0 1-.842 1.263l1.347 1.769h-1.268l-1.263-1.685h-1.22v1.685h-1.049z"/><path fill="#6ABD45" d="M31.958 14.989A15.987 15.987 0 0 0 16-.005 15.987 15.987 0 0 0 .042 14.989c.007.338.035.676.084 1.011a15.684 15.684 0 0 0 2.99 7.5 15.935 15.935 0 0 0 5.66 4.805A15.948 15.948 0 0 0 16 30.021a14.026 14.026 0 0 1-13.979-13.01A8.133 8.133 0 0 1 1.979 16a8.125 8.125 0 0 1 .042-1.011A14.024 14.024 0 0 1 16 1.98c2.51-.004 4.985.584 7.224 1.719a15.903 15.903 0 0 1 5.66 4.807 15.69 15.69 0 0 1 2.99 7.495c.047.32.075.644.084.968 0-.336.042-.673.042-1.01a7.837 7.837 0 0 0-.042-.969"/><path fill="#00B5F1" d="M.042 17.011a15.991 15.991 0 0 0 26.907 10.657 15.991 15.991 0 0 0 5.01-10.657A8.355 8.355 0 0 0 31.874 16a15.69 15.69 0 0 0-2.99-7.495 15.914 15.914 0 0 0-5.66-4.807A15.912 15.912 0 0 0 16 1.979a14.024 14.024 0 0 1 13.979 13.01c.035.336.05.673.042 1.011.007.338-.007.675-.042 1.011A13.99 13.99 0 0 1 16 30.021 15.927 15.927 0 0 1 3.117 23.5 15.675 15.675 0 0 1 .126 16a8.037 8.037 0 0 1-.085-.968c0 .336-.042.673-.042 1.01-.006.324.008.647.042.969"/></g></g></svg>