<svg width="32" height="32" fill="none" xmlns="http://www.w3.org/2000/svg"><path d="M0 16C0 7.163 7.163 0 16 0s16 7.163 16 16-7.163 16-16 16S0 24.837 0 16Z" fill="#2C7DF7"/><path d="M17.539 25c-1.285 0-2.222-.31-2.813-.928a2.865 2.865 0 0 1-.882-2 1.32 1.32 0 0 1 .155-.66c.1-.176.246-.322.421-.423.414-.207.9-.207 1.313 0 .175.1.32.246.42.422.11.203.166.43.16.661.011.276-.068.547-.225.773a1.048 1.048 0 0 1-.534.391c.21.27.51.454.844.527.374.108.76.163 1.15.166a2.57 2.57 0 0 0 1.449-.433 2.53 2.53 0 0 0 .944-1.28 5.55 5.55 0 0 0 .31-1.915 5.25 5.25 0 0 0-.338-1.991 2.453 2.453 0 0 0-.976-1.238 2.601 2.601 0 0 0-1.406-.402 2.678 2.678 0 0 0-1.218.414l-.903.453v-.453l4.059-5.444h-5.626v5.65c-.016.407.091.81.31 1.155.213.306.572.478.944.453.34-.006.666-.122.933-.328.304-.223.569-.495.782-.805a.274.274 0 0 1 .102-.134.206.206 0 0 1 .136-.051c.097.009.19.048.264.113a.567.567 0 0 1 .143.382 2.365 2.365 0 0 1-.05.28c-.2.485-.535.9-.965 1.199-.4.27-.872.413-1.354.411-1.218 0-2.06-.24-2.531-.72a2.695 2.695 0 0 1-.697-1.968v-5.639H9v-1.05h2.874V8.196l-.657-.658V7h1.91l.717.372v3.217l7.43-.023.74.742-4.556 4.579c.275-.11.565-.18.86-.208a3.74 3.74 0 0 1 1.666.476c.591.28 1.088.725 1.434 1.28.31.47.529.993.647 1.544a6.5 6.5 0 0 1 .155 1.322 5.529 5.529 0 0 1-.563 2.45 3.595 3.595 0 0 1-1.686 1.686 5.468 5.468 0 0 1-2.432.563Z" fill="#fff"/></svg>