<svg width="32" height="32" fill="none" xmlns="http://www.w3.org/2000/svg"><path fill-rule="evenodd" clip-rule="evenodd" d="M26.69 17.242A1 1 0 0 0 25.72 16H6.28a1 1 0 0 0-.97 1.242l2.5 10a1 1 0 0 0 .97.758h14.44a1 1 0 0 0 .97-.758l2.5-10ZM11 19a1 1 0 0 0-1 1v4a1 1 0 1 0 2 0v-4a1 1 0 0 0-1-1Zm4 1a1 1 0 1 1 2 0v4a1 1 0 1 1-2 0v-4Zm6-1a1 1 0 0 0-1 1v4a1 1 0 1 0 2 0v-4a1 1 0 0 0-1-1ZM15.914 7.395 13.185 12h5.63l-2.729-4.605a.1.1 0 0 0-.172 0ZM21.8 12l-4.285-7.143a1.766 1.766 0 0 0-3.03 0L10.2 12H5a1 1 0 1 0 0 2h22a1 1 0 1 0 0-2h-5.2Z" fill="#D2D3DA"/><mask id="a" style="mask-type:alpha" maskUnits="userSpaceOnUse" x="17" y="0" width="15" height="10"><path d="M30.75 0h-12.5C17.56 0 17 .56 17 1.25v7.5c0 .69.56 1.25 1.25 1.25h12.5c.69 0 1.25-.56 1.25-1.25v-7.5C32 .56 31.44 0 30.75 0Z" fill="#fff"/></mask><g mask="url(#a)"><path d="M30.75 0h-12.5C17.56 0 17 .56 17 1.25v7.5c0 .69.56 1.25 1.25 1.25h12.5c.69 0 1.25-.56 1.25-1.25v-7.5C32 .56 31.44 0 30.75 0Z" fill="#fff"/><path d="M32 9.18a.82.82 0 0 1-.82.82H17.82a.82.82 0 0 1-.82-.82h15Zm0-1.53v.765H17V7.65h15Zm0-1.53v.765H17V6.12h15Zm0-1.53v.765H17V4.59h15Zm0-1.53v.765H17V3.06h15Zm0-1.53v.765H17V1.53h15ZM31.235 0c.396 0 .722.301.761.687L32 .765H17.43c0-.422.343-.765.765-.765h13.04Z" fill="#F44336"/><path d="M18.25 0h5.938v5.355H17V1.25C17 .56 17.56 0 18.25 0Z" fill="#0D47A1"/><path d="m17.683 4.26.06.176h.184c.011 0 .02.007.024.017.003.01 0 .021-.009.028l-.15.11.057.176a.024.024 0 0 1-.038.027l-.15-.107-.15.107a.025.025 0 0 1-.039-.027l.061-.175-.15-.11a.025.025 0 0 1-.008-.028.025.025 0 0 1 .023-.017h.186l.059-.176c.003-.025.034-.025.04 0Zm5.648-.016a.02.02 0 0 1 .02.016l.06.176h.184c.011 0 .02.007.024.017.003.01 0 .021-.009.028l-.15.11.057.176a.024.024 0 0 1-.038.027l-.15-.107-.15.107a.025.025 0 0 1-.039-.027l.061-.175-.15-.11a.025.025 0 0 1-.007-.028.025.025 0 0 1 .023-.017h.184l.06-.176a.021.021 0 0 1 .02-.017Zm-1.418 0a.02.02 0 0 1 .02.016l.06.176h.184c.011 0 .02.007.024.017.003.01 0 .021-.009.028l-.15.11.057.176a.024.024 0 0 1-.038.027l-.15-.107-.15.107a.025.025 0 0 1-.039-.027l.061-.175-.15-.11a.025.025 0 0 1-.008-.028.025.025 0 0 1 .023-.017h.185l.06-.176a.021.021 0 0 1 .02-.017ZM19.1 4.26l.06.176h.184c.01 0 .02.007.023.017.003.01 0 .021-.008.028l-.15.11.056.176a.024.024 0 0 1-.038.027l-.15-.107-.15.107a.025.025 0 0 1-.038-.027l.061-.175-.15-.11a.025.025 0 0 1-.008-.028.025.025 0 0 1 .023-.017H19l.06-.176c0-.025.033-.025.04 0Zm1.418 0 .06.176h.184c.01 0 .02.007.023.017.003.01 0 .021-.008.028l-.15.11.056.176a.024.024 0 0 1-.038.027l-.15-.107-.15.107a.025.025 0 0 1-.038-.027l.061-.175-.15-.11a.025.025 0 0 1-.008-.028.025.025 0 0 1 .023-.017h.185l.06-.176c0-.025.033-.025.04 0Zm-2.127-.465.06.176h.184c.011 0 .02.007.024.017.003.01 0 .021-.009.028l-.15.11.057.176a.024.024 0 0 1-.038.027l-.15-.107-.15.107a.025.025 0 0 1-.039-.027l.056-.176-.15-.11a.025.025 0 0 1-.008-.028.025.025 0 0 1 .023-.017h.19l.06-.176c.003-.024.034-.024.04 0Zm4.239-.02a.023.023 0 0 1 .011.02l.06.176h.184c.011 0 .02.007.024.017.003.01 0 .021-.009.028l-.15.11.057.176a.024.024 0 0 1-.038.027l-.15-.107-.15.107a.025.025 0 0 1-.039-.027l.056-.176-.15-.11a.025.025 0 0 1-.008-.028.025.025 0 0 1 .023-.017h.185l.06-.176a.023.023 0 0 1 .034-.02Zm-1.403.02.06.176h.184c.01 0 .02.007.023.017.003.01 0 .021-.008.028l-.15.11.056.176a.024.024 0 0 1-.038.027l-.15-.107-.15.107a.025.025 0 0 1-.038-.027l.056-.176-.15-.11a.025.025 0 0 1-.008-.028.025.025 0 0 1 .023-.017h.184l.06-.176c.006-.024.039-.024.046 0Zm-1.418 0 .06.176h.184c.01 0 .02.007.023.017.003.01 0 .021-.008.028l-.15.11.056.176a.024.024 0 0 1-.038.027l-.15-.107-.15.107a.025.025 0 0 1-.038-.027l.056-.176-.15-.11a.025.025 0 0 1-.008-.028.025.025 0 0 1 .023-.017h.19l.06-.176c0-.024.033-.024.04 0Zm-.709-.45.06.176h.184c.01 0 .02.007.023.017.003.01 0 .02-.008.027l-.15.11.056.177a.024.024 0 0 1-.038.027l-.15-.108-.15.108a.025.025 0 0 1-.038-.027l.056-.176-.15-.11a.025.025 0 0 1-.008-.028.025.025 0 0 1 .023-.017H19l.06-.176c0-.02.033-.02.04 0Zm4.25 0 .06.176h.184c.011 0 .02.007.024.017.003.01 0 .02-.009.027l-.15.11.057.177a.024.024 0 0 1-.038.027l-.15-.108-.15.108a.025.025 0 0 1-.039-.027l.056-.176-.15-.11a.025.025 0 0 1-.008-.028.025.025 0 0 1 .023-.017h.185l.06-.176c.008-.02.041-.02.046 0Zm-5.668 0 .06.176h.184c.011 0 .02.007.024.017.003.01 0 .02-.009.027l-.15.11.057.177a.024.024 0 0 1-.038.027l-.15-.108-.15.108a.025.025 0 0 1-.039-.027l.056-.176-.15-.11a.025.025 0 0 1-.008-.028.025.025 0 0 1 .023-.017h.19l.06-.176c.003-.02.034-.02.04 0Zm4.25 0 .06.176h.184c.011 0 .02.007.024.017.003.01 0 .02-.009.027l-.15.11.057.177a.024.024 0 0 1-.038.027l-.15-.108-.15.108a.025.025 0 0 1-.039-.027l.056-.176-.15-.11a.025.025 0 0 1-.008-.028.025.025 0 0 1 .023-.017h.185l.06-.176c.008-.02.041-.02.045 0Zm-1.414 0 .06.176h.184c.01 0 .02.007.023.017.003.01 0 .02-.008.027l-.15.11.056.177a.024.024 0 0 1-.038.027l-.15-.108-.15.108a.025.025 0 0 1-.038-.027l.056-.176-.15-.11a.025.025 0 0 1-.008-.028.025.025 0 0 1 .023-.017h.19l.06-.176c0-.02.033-.02.04 0Zm-2.127-.465.06.176h.184c.011 0 .02.007.024.017.003.01 0 .021-.009.028l-.15.11.057.176a.024.024 0 0 1-.038.027l-.15-.107-.15.107a.025.025 0 0 1-.039-.027l.061-.175-.15-.11a.025.025 0 0 1-.008-.028.025.025 0 0 1 .024-.017h.184l.06-.176c.003-.025.034-.025.04 0Zm4.227-.023c.013 0 .023.01.023.023l.06.176h.184c.011 0 .02.007.024.017.003.01 0 .021-.009.028l-.15.11.057.176a.024.024 0 0 1-.038.027l-.15-.107-.15.107a.025.025 0 0 1-.039-.027l.056-.176-.15-.11a.025.025 0 0 1-.008-.028.025.025 0 0 1 .023-.017h.185l.06-.176c0-.012.01-.023.022-.023Zm-1.391.023.06.176h.184c.01 0 .02.007.023.017.003.01 0 .021-.008.028l-.15.11.056.176a.024.024 0 0 1-.038.027l-.15-.107-.15.107a.025.025 0 0 1-.038-.027l.056-.176-.15-.11a.025.025 0 0 1-.008-.028.025.025 0 0 1 .023-.017h.184l.06-.176c.006-.024.039-.024.046 0Zm-1.418 0 .06.176h.184c.01 0 .02.007.023.017.003.01 0 .021-.008.028l-.15.11.056.176a.024.024 0 0 1-.038.027l-.15-.107-.15.107a.025.025 0 0 1-.038-.027l.061-.175-.15-.11a.025.025 0 0 1-.008-.028.025.025 0 0 1 .023-.017h.185l.06-.176c0-.025.033-.025.04 0Zm-.709-.447.06.176h.184c.01 0 .02.007.023.017.003.01 0 .02-.008.027l-.15.11.056.177a.024.024 0 0 1-.038.027l-.15-.108-.15.108a.025.025 0 0 1-.038-.027l.061-.175-.15-.11a.025.025 0 0 1-.008-.028.025.025 0 0 1 .023-.017H19l.06-.176c0-.025.033-.025.04-.001Zm4.23-.016a.02.02 0 0 1 .02.016l.06.176h.184c.011 0 .02.007.024.017.003.01 0 .02-.009.027l-.15.11.057.177a.024.024 0 0 1-.038.027l-.15-.108-.15.108a.025.025 0 0 1-.039-.027l.061-.175-.15-.11a.025.025 0 0 1-.007-.028.025.025 0 0 1 .023-.017h.184l.06-.176a.021.021 0 0 1 .02-.017Zm-1.42-.007c.012 0 .022.01.022.023l.06.176h.184c.011 0 .02.007.024.017.003.01 0 .02-.009.027l-.15.11.057.177a.024.024 0 0 1-.038.027l-.15-.108-.15.108a.025.025 0 0 1-.039-.027l.056-.176-.15-.11a.025.025 0 0 1-.008-.028.025.025 0 0 1 .023-.017h.185l.06-.176c0-.013.01-.023.022-.023Zm-4.228.023.06.176h.184c.011 0 .02.007.024.017.003.01 0 .02-.009.027l-.15.11.057.177a.024.024 0 0 1-.038.027l-.15-.108-.15.108a.025.025 0 0 1-.039-.027l.061-.175-.15-.11a.025.025 0 0 1-.008-.028.025.025 0 0 1 .023-.017h.186l.059-.176c.003-.025.034-.025.04-.001Zm2.836 0 .06.176h.184c.01 0 .02.007.023.017.003.01 0 .02-.008.027l-.15.11.056.177a.024.024 0 0 1-.038.027l-.15-.108-.15.108a.025.025 0 0 1-.038-.027l.056-.176-.15-.11a.025.025 0 0 1-.008-.028.025.025 0 0 1 .023-.017h.19l.06-.176c0-.024.033-.024.04 0Zm-2.127-.469.06.176h.184c.011 0 .02.007.024.017.003.01 0 .021-.009.028l-.15.11.057.176a.024.024 0 0 1-.038.027l-.15-.107-.15.107a.025.025 0 0 1-.039-.027l.056-.176-.15-.11a.025.025 0 0 1-.008-.028.025.025 0 0 1 .023-.017h.19l.06-.176c.003-.02.034-.02.04 0Zm2.836 0 .06.176h.184c.01 0 .02.007.023.017.003.01 0 .021-.008.028l-.15.11.056.176a.024.024 0 0 1-.038.027l-.15-.107-.15.107a.025.025 0 0 1-.038-.027l.056-.176-.15-.11a.025.025 0 0 1-.008-.028.025.025 0 0 1 .023-.017h.184l.06-.176c.006-.02.039-.02.046 0Zm-1.418 0 .06.176h.184c.01 0 .02.007.023.017.003.01 0 .021-.008.028l-.15.11.056.176a.024.024 0 0 1-.038.027l-.15-.107-.15.107a.025.025 0 0 1-.038-.027l.056-.176-.15-.11a.025.025 0 0 1-.008-.028.025.025 0 0 1 .023-.017h.19l.06-.176c0-.02.033-.02.04 0Zm2.832 0 .06.176h.184c.011 0 .02.007.024.017.003.01 0 .021-.009.028l-.15.11.057.176a.024.024 0 0 1-.038.027l-.15-.107-.15.107a.025.025 0 0 1-.039-.027l.056-.176-.15-.11a.025.025 0 0 1-.008-.028.025.025 0 0 1 .023-.017h.185l.06-.176c.008-.02.041-.02.045 0Zm-2.123-.447.06.176h.184c.01 0 .02.007.023.017.003.01 0 .021-.008.028l-.15.11.056.176a.024.024 0 0 1-.038.027l-.15-.107-.15.107a.025.025 0 0 1-.038-.027l.056-.176-.15-.11a.025.025 0 0 1-.008-.028.025.025 0 0 1 .023-.017h.19l.06-.176c0-.02.033-.02.04 0Zm-2.835 0 .059.176h.184c.011 0 .02.007.024.017.003.01 0 .021-.009.028l-.15.11.057.176a.024.024 0 0 1-.038.027l-.15-.107-.15.107a.025.025 0 0 1-.039-.027l.056-.176-.15-.11a.025.025 0 0 1-.008-.028.025.025 0 0 1 .023-.017h.19l.06-.176c.003-.02.034-.02.04 0Zm1.419 0 .06.176h.185c.01 0 .02.007.023.017.003.01 0 .021-.008.028l-.15.11.056.176a.024.024 0 0 1-.038.027l-.15-.107-.15.107a.025.025 0 0 1-.039-.027l.057-.176-.15-.11a.025.025 0 0 1-.008-.028.025.025 0 0 1 .023-.017h.184l.06-.176c.003-.02.036-.02.045 0Zm2.83 0 .06.176h.184c.011 0 .02.007.024.017.003.01 0 .021-.009.028l-.15.11.057.176a.024.024 0 0 1-.038.027l-.15-.107-.15.107a.025.025 0 0 1-.039-.027l.056-.176-.15-.11a.025.025 0 0 1-.008-.028.025.025 0 0 1 .023-.017h.185l.06-.176c.008-.02.041-.02.045 0Zm1.419 0 .059.176h.184c.011 0 .02.007.024.017.003.01 0 .021-.009.028l-.15.11.057.176a.024.024 0 0 1-.038.027l-.15-.107-.15.107a.025.025 0 0 1-.039-.027l.056-.176-.15-.11a.025.025 0 0 1-.008-.028.025.025 0 0 1 .023-.017h.185l.06-.176c.008-.02.041-.02.046 0Zm-2.124-.465.06.176h.184c.01 0 .02.007.023.017.003.01 0 .021-.008.028l-.15.11.056.176a.024.024 0 0 1-.038.027l-.15-.107-.15.107a.025.025 0 0 1-.038-.027l.056-.176-.15-.11a.025.025 0 0 1-.008-.028.025.025 0 0 1 .023-.017h.184l.06-.176c.006-.024.039-.024.046 0Zm-1.418 0 .06.176h.184c.01 0 .02.007.023.017.003.01 0 .021-.008.028l-.15.11.056.176a.024.024 0 0 1-.038.027l-.15-.107-.15.107a.025.025 0 0 1-.038-.027l.061-.175-.15-.11a.025.025 0 0 1-.008-.028.025.025 0 0 1 .023-.017h.185l.06-.176c0-.025.033-.025.04 0Zm-1.418 0 .06.176h.184c.011 0 .02.007.024.017.003.01 0 .021-.009.028l-.15.11.057.176a.024.024 0 0 1-.038.027l-.15-.107-.15.107a.025.025 0 0 1-.039-.027l.061-.175-.15-.11a.025.025 0 0 1-.008-.028.025.025 0 0 1 .024-.017h.184l.06-.176c.003-.025.034-.025.04 0Zm4.239-.02a.023.023 0 0 1 .011.02l.06.176h.184c.011 0 .02.007.024.017.003.01 0 .021-.009.028l-.15.11.057.176a.024.024 0 0 1-.038.027l-.15-.107-.15.107a.025.025 0 0 1-.039-.027l.056-.176-.15-.11a.025.025 0 0 1-.008-.028.025.025 0 0 1 .023-.017h.185l.06-.176a.023.023 0 0 1 .034-.02ZM17.683.605l.06.176h.184c.011 0 .02.007.024.017.003.01 0 .021-.009.028l-.15.11.057.176a.024.024 0 0 1-.038.027l-.15-.107-.15.107a.025.025 0 0 1-.039-.027l.061-.175-.15-.11a.025.025 0 0 1-.008-.028.025.025 0 0 1 .023-.017h.186l.059-.176c.003-.025.034-.025.04 0Zm1.418 0 .06.176h.184c.01 0 .02.007.023.017.003.01 0 .021-.008.028l-.15.11.056.176a.024.024 0 0 1-.038.027l-.15-.107-.15.107a.025.025 0 0 1-.038-.027l.061-.175-.15-.11a.025.025 0 0 1-.008-.028.025.025 0 0 1 .023-.017h.185l.06-.176c0-.025.033-.025.04 0Zm1.418 0 .06.176h.184c.01 0 .02.007.023.017.003.01 0 .021-.008.028l-.15.11.056.176a.024.024 0 0 1-.038.027l-.15-.107-.15.107a.025.025 0 0 1-.038-.027l.056-.176-.15-.11a.025.025 0 0 1-.008-.028.025.025 0 0 1 .023-.017h.19l.06-.176c0-.024.033-.024.04 0Zm1.403-.02a.023.023 0 0 1 .011.02l.06.176h.184c.011 0 .02.007.024.017.003.01 0 .021-.009.028l-.15.11.057.176a.024.024 0 0 1-.038.027l-.15-.107-.15.107a.025.025 0 0 1-.039-.027l.056-.176-.15-.11a.025.025 0 0 1-.008-.028.025.025 0 0 1 .023-.017h.185l.06-.176a.023.023 0 0 1 .034-.02Zm1.409.004a.02.02 0 0 1 .02.016l.06.176h.184c.011 0 .02.007.024.017.003.01 0 .021-.009.028l-.15.11.057.176a.024.024 0 0 1-.038.027l-.15-.107-.15.107a.025.025 0 0 1-.039-.027l.061-.175-.15-.11a.025.025 0 0 1-.007-.028.025.025 0 0 1 .023-.017h.184l.06-.176a.021.021 0 0 1 .02-.017Z" fill="#F5F5F5"/><path fill-rule="evenodd" clip-rule="evenodd" d="M30.75.625h-12.5a.625.625 0 0 0-.625.625v7.5c0 .345.28.625.625.625h12.5c.345 0 .625-.28.625-.625v-7.5a.625.625 0 0 0-.625-.625ZM18.25 0C17.56 0 17 .56 17 1.25v7.5c0 .69.56 1.25 1.25 1.25h12.5c.69 0 1.25-.56 1.25-1.25v-7.5C32 .56 31.44 0 30.75 0h-12.5Z" fill="#000" fill-opacity=".04"/></g></svg>