<svg xmlns="http://www.w3.org/2000/svg" width="32" height="32"><g fill="none" fill-rule="evenodd"><circle cx="25" cy="25" r="5" fill="#EF4852" fill-rule="nonzero"/><path fill="#FFF" fill-rule="nonzero" d="M22.15 27.23v-.61h1.27v-3.39h-.05l-1.05 1.12-.45-.4L23 22.69h1.12v3.93h1.11v.61zm4.64.08a1.64 1.64 0 0 1-1.37-.64l.46-.42c.113.149.256.272.42.36.163.086.345.131.53.13.166.012.33-.03.47-.12a.42.42 0 0 0 .15-.34.414.414 0 0 0-.11-.28.612.612 0 0 0-.37-.14h-.31a1.665 1.665 0 0 1-.82-.3.848.848 0 0 1-.29-.71.995.995 0 0 1 .09-.44.988.988 0 0 1 .25-.32c.12-.093.255-.164.4-.21.166-.045.338-.069.51-.07.254-.008.507.04.74.14.198.098.375.234.52.4l-.43.42a1.049 1.049 0 0 0-.35-.27 1.002 1.002 0 0 0-.48-.12.63.63 0 0 0-.43.12.371.371 0 0 0-.14.31.362.362 0 0 0 .12.29c.122.075.258.122.4.14h.31c.299.03.583.145.82.33a.853.853 0 0 1 .25.65c.003.155-.028.308-.09.45a.993.993 0 0 1-.27.34 1.395 1.395 0 0 1-.42.22c-.182.054-.37.08-.56.08z"/><path d="M0 0h32v32H0z"/><path fill="#84AAAF" fill-rule="nonzero" d="M29.93 11.76a.5.5 0 0 0-.42-.762.5.5 0 0 0-.44.242L26.8 15h-.3a1.52 1.52 0 0 0-.79.23L22.91 13c.06-.16.091-.33.09-.5a1.5 1.5 0 0 0-3 0c0 .348.124.685.35.95L18.8 16a1.481 1.481 0 0 0-1.09.2l-2.8-2.2c.06-.16.091-.33.09-.5a1.502 1.502 0 0 0-1.076-1.48 1.502 1.502 0 0 0-1.504 2.48L10.68 18h-.18a1.52 1.52 0 0 0-.79.23L6.91 16a1.474 1.474 0 0 0 0-.91A1.51 1.51 0 0 0 5.5 14c-.142 0-.283.02-.42.06a1.5 1.5 0 0 0-1 1.86c.087.305.274.573.53.76L3.47 20a1.51 1.51 0 1 0 .95.32L5.53 17c.142 0 .283-.02.42-.06.13-.043.253-.1.37-.17L9.09 19c-.06.16-.091.33-.09.5a1.502 1.502 0 0 0 1.076 1.48 1.502 1.502 0 0 0 1.504-2.48l1.74-3.5h.18a1.52 1.52 0 0 0 .79-.23l2.8 2.23c-.06.156-.09.323-.09.49a1.5 1.5 0 0 0 3 0c0-.348-.124-.685-.35-.95L21.2 14h.3a1.52 1.52 0 0 0 .79-.23l2.8 2.23c-.06.156-.09.323-.09.49a1.5 1.5 0 0 0 3 0c0-.348-.124-.685-.35-.95l2.28-3.78zM3.5 22a.5.5 0 1 1 0-1 .5.5 0 0 1 0 1zm2.14-6H5.5a.503.503 0 0 1-.538-.69.506.506 0 0 1 .398-.31h.14a.505.505 0 0 1 .14 1zm4.86 4a.5.5 0 1 1 0-1 .5.5 0 0 1 0 1zm3-6a.5.5 0 1 1 0-1 .5.5 0 0 1 0 1zm5 4a.5.5 0 1 1 0-1 .5.5 0 0 1 0 1zm3-5a.5.5 0 1 1 0-1 .5.5 0 0 1 0 1zm5 4a.5.5 0 1 1 0-1 .5.5 0 0 1 0 1z"/><rect width="12" height="8" x="2" y="2" fill="#2A2A2A" fill-rule="nonzero" rx="1"/><path fill="#FFF" fill-rule="nonzero" d="M7.74 8.49H4.4v-.57l1.65-1.81c.193-.205.364-.43.51-.67a.995.995 0 0 0 .16-.54.82.82 0 0 0-.2-.57.7.7 0 0 0-.52-.22.788.788 0 0 0-.63.25.932.932 0 0 0-.24.64H4.3c-.004-.287.068-.57.21-.82.133-.244.34-.44.59-.56.28-.137.59-.199.9-.18.413-.024.82.108 1.14.37.284.253.438.62.42 1-.006.273-.078.54-.21.78a4.106 4.106 0 0 1-.69.93L5.43 7.83h2.31v.66zM8.6 6l.27-2.51h2.67v.72h-2l-.12 1.21c.238-.134.507-.203.78-.2.42-.023.829.146 1.11.46.274.346.413.78.39 1.22.02.446-.138.881-.44 1.21a1.59 1.59 0 0 1-1.2.45 1.67 1.67 0 0 1-1.13-.39 1.418 1.418 0 0 1-.49-1h.81a.82.82 0 0 0 .26.55.769.769 0 0 0 .55.19.74.74 0 0 0 .6-.27c.15-.216.225-.477.21-.74a.998.998 0 0 0-.24-.72.802.802 0 0 0-.63-.29 1.07 1.07 0 0 0-.4.11c-.126.057-.24.134-.34.23L8.6 6z"/></g></svg>