<svg width="24" height="24" fill="none" xmlns="http://www.w3.org/2000/svg"><path d="M17.25 4.5H6.75v15h10.5v-15Z" fill="#5798B4"/><path fill-rule="evenodd" clip-rule="evenodd" d="M6.375 4.5h11.25a.375.375 0 0 1 0 .75H6.375a.375.375 0 1 1 0-.75Zm0 1.5h11.25a.375.375 0 0 1 0 .75H6.375a.375.375 0 1 1 0-.75Zm11.25 12.75H6.375a.375.375 0 0 0 0 .75h11.25a.375.375 0 0 0 0-.75Zm-11.25-1.5h11.25a.375.375 0 0 1 0 .75H6.375a.375.375 0 0 1 0-.75Z" fill="#3B7B96"/><path d="M14.243 12.863C14.243 14.05 13.233 15 12 15c-1.232 0-2.242-.95-2.242-2.137C9.758 11.675 12 9 12 9s2.243 2.688 2.243 3.863Z" fill="#FFC521"/><path d="M12 14.438c-.905 0-1.652-.7-1.652-1.575 0-.1.091-.187.196-.187.105 0 .197.087.197.187 0 .663.564 1.2 1.26 1.2.104 0 .196.088.196.188s-.092.187-.197.187Z" fill="#fff"/><mask id="a" style="mask-type:alpha" maskUnits="userSpaceOnUse" x="12" y="0" width="12" height="8"><path d="M23.063 0h-9.375a.937.937 0 0 0-.938.938v5.625c0 .517.42.937.938.937h9.374c.518 0 .938-.42.938-.938V.938A.937.937 0 0 0 23.062 0Z" fill="#fff"/></mask><g mask="url(#a)"><path d="M23.063 0h-9.375a.937.937 0 0 0-.938.938v5.625c0 .517.42.937.938.937h9.374c.518 0 .938-.42.938-.938V.938A.937.937 0 0 0 23.062 0Z" fill="#fff"/><path d="M24 6.885c0 .34-.275.615-.615.615h-10.02a.615.615 0 0 1-.615-.615H24Zm0-1.147v.573H12.75v-.574H24Zm0-1.148v.574H12.75V4.59H24Zm0-1.147v.573H12.75v-.574H24Zm0-1.148v.574H12.75v-.574H24Zm0-1.147v.573H12.75v-.574H24ZM23.426 0c.297 0 .542.226.571.515L24 .574H13.073c0-.317.257-.574.573-.574h9.78Z" fill="#F44336"/><path d="M13.688 0h4.453v4.016H12.75V.937c0-.517.42-.937.938-.937Z" fill="#0D47A1"/><path d="m13.263 3.196.045.132h.138a.019.019 0 0 1 .011.033l-.112.083.042.132a.018.018 0 0 1-.029.02l-.112-.08-.113.08a.019.019 0 0 1-.029-.02l.047-.131-.113-.083a.019.019 0 0 1 .011-.033h.14l.044-.132c.002-.019.025-.019.03-.001Zm4.235-.012c.008 0 .014.005.016.012l.045.132h.138a.019.019 0 0 1 .011.033l-.112.083.042.132a.018.018 0 0 1-.029.02l-.112-.08-.113.08a.019.019 0 0 1-.029-.02l.047-.131-.113-.083a.019.019 0 0 1 .011-.033h.139l.044-.132a.016.016 0 0 1 .015-.013Zm-1.063 0c.007 0 .014.005.016.012l.044.132h.139a.019.019 0 0 1 .01.033l-.112.083.043.132a.018.018 0 0 1-.029.02l-.113-.08-.112.08a.019.019 0 0 1-.029-.02l.046-.131-.112-.083a.019.019 0 0 1 .01-.033h.14l.044-.132a.016.016 0 0 1 .015-.013Zm-2.109.012.045.132h.138a.019.019 0 0 1 .011.033l-.112.083.042.132a.018.018 0 0 1-.028.02l-.113-.08-.112.08a.019.019 0 0 1-.022 0 .019.019 0 0 1-.007-.02l.046-.131-.113-.083a.019.019 0 0 1 .011-.033h.14l.044-.132c0-.019.025-.019.03-.001Zm1.064 0 .044.132h.139a.019.019 0 0 1 .011.033l-.112.083.042.132a.018.018 0 0 1-.029.02l-.112-.08-.113.08a.019.019 0 0 1-.022 0 .019.019 0 0 1-.007-.02l.046-.131-.112-.083a.019.019 0 0 1 .011-.033h.139l.044-.132c0-.019.025-.019.03-.001Zm-1.595-.349.044.132h.139c.008 0 .015.006.017.013a.019.019 0 0 1-.006.02l-.112.083.042.132a.018.018 0 0 1-.029.02l-.112-.08-.113.08a.019.019 0 0 1-.029-.02l.043-.131-.113-.083a.019.019 0 0 1 .011-.034h.143l.044-.132c.003-.018.026-.018.03 0Zm3.179-.015a.017.017 0 0 1 .008.015l.045.132h.138c.008 0 .015.006.018.013a.019.019 0 0 1-.006.02l-.113.083.043.132a.018.018 0 0 1-.03.02l-.112-.08-.112.08a.019.019 0 0 1-.029-.02l.042-.131-.112-.083a.019.019 0 0 1 .01-.034h.14l.044-.132c0-.006.003-.012.008-.015a.017.017 0 0 1 .018 0Zm-1.053.015.045.132h.139a.019.019 0 0 1 .01.034l-.112.083.043.131a.018.018 0 0 1-.007.021.019.019 0 0 1-.022 0l-.113-.08-.112.08a.019.019 0 0 1-.03-.02l.043-.133-.112-.082a.019.019 0 0 1 .011-.034h.138l.045-.132c.005-.018.03-.018.034 0Zm-1.063 0 .045.132h.138a.019.019 0 0 1 .011.034l-.112.083.042.131a.018.018 0 0 1-.007.021.019.019 0 0 1-.022 0l-.112-.08-.113.08a.019.019 0 0 1-.029-.02l.043-.133-.113-.082a.019.019 0 0 1 .011-.034h.143l.045-.132c0-.018.025-.018.03 0Zm-.532-.338.045.132h.138a.019.019 0 0 1 .011.034l-.112.083.042.132a.018.018 0 0 1-.028.02l-.113-.08-.112.08a.019.019 0 0 1-.022 0 .019.019 0 0 1-.007-.02l.042-.132-.113-.083a.019.019 0 0 1-.005-.02.019.019 0 0 1 .017-.014h.142l.045-.132c0-.015.025-.015.03 0Zm3.188 0 .045.132h.138a.019.019 0 0 1 .011.034l-.112.083.042.132a.018.018 0 0 1-.029.02l-.112-.08-.113.08a.019.019 0 0 1-.029-.02l.043-.132-.113-.083a.019.019 0 0 1 .012-.034h.138l.045-.132c.006-.015.031-.015.034 0Zm-4.25 0 .044.132h.138a.019.019 0 0 1 .011.034l-.112.083.042.132a.018.018 0 0 1-.029.02l-.112-.08-.113.08a.019.019 0 0 1-.028-.02l.042-.132-.113-.083a.019.019 0 0 1 .012-.034h.142l.045-.132c.002-.015.025-.015.03 0Zm3.187 0 .044.132h.139a.019.019 0 0 1 .01.034l-.112.083.043.132a.018.018 0 0 1-.029.02l-.113-.08-.112.08a.019.019 0 0 1-.029-.02l.042-.132-.112-.083a.019.019 0 0 1 .011-.034h.139l.044-.132c.007-.015.032-.015.035 0Zm-1.061 0 .044.132h.139a.019.019 0 0 1 .011.034l-.112.083.042.132a.018.018 0 0 1-.029.02l-.112-.08-.113.08a.019.019 0 0 1-.022 0 .019.019 0 0 1-.007-.02l.043-.132-.113-.083a.019.019 0 0 1-.006-.02.019.019 0 0 1 .017-.014h.143l.044-.132c0-.015.025-.015.03 0Zm-1.595-.348.044.132h.139c.008 0 .015.005.017.013a.019.019 0 0 1-.006.02l-.112.083.042.132a.018.018 0 0 1-.029.02l-.112-.08-.113.08a.019.019 0 0 1-.029-.02l.046-.131-.112-.083a.019.019 0 0 1 .011-.033h.139l.044-.132c.003-.019.026-.019.03-.001Zm3.17-.017c.01 0 .017.007.017.017l.045.132h.138a.02.02 0 0 1 .018.013.019.019 0 0 1-.006.02l-.113.083.043.132a.018.018 0 0 1-.03.02l-.112-.08-.112.08a.019.019 0 0 1-.029-.02l.042-.132-.112-.083a.019.019 0 0 1 .01-.033h.14l.044-.132c0-.01.008-.017.017-.017Zm-1.043.017.044.132h.139a.019.019 0 0 1 .01.033l-.112.083.043.132a.018.018 0 0 1-.007.021.019.019 0 0 1-.022 0l-.113-.081-.112.08a.019.019 0 0 1-.03-.02l.043-.132-.112-.083a.019.019 0 0 1 .011-.033h.138l.045-.132c.005-.018.03-.018.034 0Zm-1.064 0 .045.132h.138a.019.019 0 0 1 .011.033l-.112.083.042.132a.018.018 0 0 1-.007.021.019.019 0 0 1-.022 0l-.112-.081-.113.08a.019.019 0 0 1-.029-.02l.046-.131-.112-.083a.019.019 0 0 1-.006-.02.019.019 0 0 1 .017-.013h.139l.045-.132c0-.019.025-.019.03-.001Zm-.532-.336.045.132h.138a.019.019 0 0 1 .011.034l-.112.083.042.132a.018.018 0 0 1-.028.02l-.113-.08-.112.08a.019.019 0 0 1-.022 0 .019.019 0 0 1-.007-.02l.046-.132-.113-.082a.019.019 0 0 1 .011-.034h.14l.044-.132c0-.019.025-.019.03 0Zm3.172-.012c.008 0 .014.005.016.012l.045.132h.138a.019.019 0 0 1 .011.034l-.112.083.042.132a.018.018 0 0 1-.029.02l-.112-.08-.113.08a.019.019 0 0 1-.029-.02l.047-.132-.113-.082a.019.019 0 0 1 .011-.034h.139l.044-.132a.016.016 0 0 1 .015-.013Zm-1.065-.005c.01 0 .018.008.018.017l.044.132h.139a.019.019 0 0 1 .01.034l-.112.083.043.132a.018.018 0 0 1-.029.02l-.113-.08-.112.08a.019.019 0 0 1-.029-.02l.042-.132-.112-.083a.019.019 0 0 1 .011-.034h.139l.044-.132c0-.01.008-.017.017-.017Zm-3.17.017.045.132h.138a.019.019 0 0 1 .011.034l-.112.083.042.132a.018.018 0 0 1-.029.02l-.112-.08-.113.08a.019.019 0 0 1-.029-.02l.047-.132-.113-.082a.019.019 0 0 1 .011-.034h.14l.044-.132c.002-.019.025-.019.03 0Zm2.127 0 .044.132h.139a.019.019 0 0 1 .011.034l-.112.083.042.132a.018.018 0 0 1-.029.02l-.112-.08-.113.08a.019.019 0 0 1-.022 0 .019.019 0 0 1-.007-.02l.043-.132-.113-.083a.019.019 0 0 1-.006-.02.019.019 0 0 1 .017-.014h.143l.044-.132c0-.018.025-.018.03 0Zm-1.595-.351.044.132h.139c.008 0 .015.005.017.013a.019.019 0 0 1-.006.02l-.112.083.042.132a.018.018 0 0 1-.029.02l-.112-.08-.113.08a.019.019 0 0 1-.029-.02l.043-.132-.113-.083a.019.019 0 0 1 .011-.033h.143l.044-.132c.003-.015.026-.015.03 0Zm2.127 0 .044.132h.139a.019.019 0 0 1 .01.033l-.112.083.043.132a.018.018 0 0 1-.007.021.019.019 0 0 1-.022 0l-.113-.081-.112.08a.019.019 0 0 1-.03-.02l.043-.132-.112-.083a.019.019 0 0 1 .011-.033h.138l.045-.132c.005-.015.03-.015.034 0Zm-1.064 0 .045.132h.138a.019.019 0 0 1 .011.033l-.112.083.042.132a.018.018 0 0 1-.007.021.019.019 0 0 1-.022 0l-.112-.081-.113.08a.019.019 0 0 1-.029-.02l.043-.132-.113-.083a.019.019 0 0 1 .011-.033h.143l.045-.132c0-.015.025-.015.03 0Zm2.124 0 .045.132h.138a.02.02 0 0 1 .018.013.019.019 0 0 1-.006.02l-.113.083.043.132a.018.018 0 0 1-.03.02l-.112-.08-.112.08a.019.019 0 0 1-.029-.02l.042-.132-.112-.083a.019.019 0 0 1 .01-.033h.14l.044-.132c.007-.015.031-.015.034 0Zm-1.592-.335.044.132h.139a.019.019 0 0 1 .011.033l-.112.083.042.132a.018.018 0 0 1-.029.02l-.112-.08-.113.08a.019.019 0 0 1-.022 0 .019.019 0 0 1-.007-.02l.043-.132-.113-.083a.019.019 0 0 1-.006-.02.019.019 0 0 1 .017-.013h.143l.044-.132c0-.016.025-.016.03 0Zm-2.127 0 .045.132h.138a.019.019 0 0 1 .011.033l-.112.083.042.132a.018.018 0 0 1-.029.02l-.112-.08-.113.08a.019.019 0 0 1-.029-.02l.043-.132-.113-.083a.019.019 0 0 1 .012-.033h.142l.045-.132c.002-.016.025-.016.03 0Zm1.065 0 .044.132h.14a.019.019 0 0 1 .01.033l-.112.083.043.132a.018.018 0 0 1-.007.02.019.019 0 0 1-.022 0l-.113-.08-.112.08a.019.019 0 0 1-.03-.02l.043-.132-.112-.083a.019.019 0 0 1 .011-.033h.138l.045-.132c.002-.016.027-.016.034 0Zm2.123 0 .044.132h.139a.019.019 0 0 1 .01.033l-.112.083.043.132a.018.018 0 0 1-.029.02l-.113-.08-.112.08a.019.019 0 0 1-.029-.02l.042-.132-.112-.083a.019.019 0 0 1 .011-.033h.139l.044-.132c.007-.016.032-.016.035 0Zm1.063 0 .045.132h.138a.019.019 0 0 1 .011.033l-.112.083.042.132a.018.018 0 0 1-.029.02l-.112-.08-.113.08a.019.019 0 0 1-.029-.02l.043-.132-.113-.083a.019.019 0 0 1 .012-.033h.138l.045-.132c.006-.016.031-.016.034 0ZM15.922.79l.044.132h.139a.019.019 0 0 1 .01.033l-.112.083.043.132a.018.018 0 0 1-.007.021.019.019 0 0 1-.022 0l-.113-.081-.112.08a.019.019 0 0 1-.03-.02l.043-.132-.112-.083a.019.019 0 0 1 .011-.033h.138l.045-.132c.005-.018.03-.018.034 0Zm-1.064 0 .045.132h.138a.019.019 0 0 1 .011.033l-.112.083.042.132a.018.018 0 0 1-.007.021.019.019 0 0 1-.022 0l-.112-.081-.113.08a.019.019 0 0 1-.029-.02l.046-.131-.112-.083a.019.019 0 0 1-.006-.02.019.019 0 0 1 .017-.013h.139l.045-.132c0-.019.025-.019.03-.001Zm-1.063 0 .044.132h.139c.008 0 .015.005.017.013a.019.019 0 0 1-.006.02l-.112.083.042.132a.018.018 0 0 1-.029.02l-.112-.08-.113.08a.019.019 0 0 1-.029-.02l.046-.131-.112-.083a.019.019 0 0 1 .011-.033h.139l.044-.132c.003-.019.026-.019.03-.001Zm3.179-.015a.017.017 0 0 1 .008.015l.045.132h.138a.02.02 0 0 1 .018.013.019.019 0 0 1-.006.02l-.113.083.043.132a.018.018 0 0 1-.03.02l-.112-.08-.112.08a.019.019 0 0 1-.029-.02l.042-.132-.112-.083a.019.019 0 0 1 .01-.033h.14l.044-.132c0-.006.003-.012.008-.015a.017.017 0 0 1 .018 0Zm-3.71-.32.044.132h.138a.019.019 0 0 1 .011.033l-.112.083.042.132a.018.018 0 0 1-.029.02l-.112-.08-.113.08a.019.019 0 0 1-.029-.02l.047-.131-.113-.083a.019.019 0 0 1 .011-.033h.14l.044-.132c.002-.02.025-.02.03-.001Zm1.062 0 .045.132h.138a.019.019 0 0 1 .011.033l-.112.083.042.132a.018.018 0 0 1-.028.02l-.113-.08-.112.08a.019.019 0 0 1-.022 0 .019.019 0 0 1-.007-.02l.046-.131L14.1.62a.019.019 0 0 1 .011-.033h.14l.044-.132c0-.02.025-.02.03-.001Zm1.064 0 .044.132h.139a.019.019 0 0 1 .011.033l-.112.083.042.132a.018.018 0 0 1-.029.02l-.112-.08-.113.08a.019.019 0 0 1-.022 0 .019.019 0 0 1-.007-.02l.043-.132L15.16.62a.019.019 0 0 1-.006-.02.019.019 0 0 1 .017-.013h.143l.044-.132c0-.018.025-.018.03 0ZM16.442.44a.017.017 0 0 1 .009.015l.044.132h.139a.019.019 0 0 1 .01.033l-.112.083.043.132a.018.018 0 0 1-.029.02l-.113-.08-.112.08a.019.019 0 0 1-.029-.02l.042-.132-.112-.083a.019.019 0 0 1 .011-.033h.139l.044-.132a.017.017 0 0 1 .026-.015Zm1.056.003c.008 0 .014.005.016.012l.045.132h.138a.019.019 0 0 1 .011.033l-.112.083.042.132a.018.018 0 0 1-.029.02l-.112-.08-.113.08a.019.019 0 0 1-.029-.02l.047-.131-.113-.083A.019.019 0 0 1 17.3.588h.139l.044-.132a.016.016 0 0 1 .015-.013Z" fill="#F5F5F5"/><path fill-rule="evenodd" clip-rule="evenodd" d="M23.063.469h-9.375a.469.469 0 0 0-.47.469v5.625c0 .258.21.468.47.468h9.374c.26 0 .47-.21.47-.468V.938a.469.469 0 0 0-.47-.47ZM13.688 0a.937.937 0 0 0-.938.938v5.625c0 .517.42.937.938.937h9.374c.518 0 .938-.42.938-.938V.938A.937.937 0 0 0 23.062 0h-9.375Z" fill="#000" fill-opacity=".04"/></g></svg>
