<svg xmlns="http://www.w3.org/2000/svg" width="32" height="32"><g fill="none" fill-rule="evenodd"><path d="M0 0h32v32H0z"/><path fill="#0067B1" d="M0 14.43a50.645 50.645 0 0 1 8.84-3.77v.01c.82.24 1.61.53 2.4.82a48.498 48.498 0 0 0-8.58 4C1.79 15.12.9 14.77 0 14.43zm15.2-1.32c-.93-.45-1.83-.84-2.83-1.21a59.12 59.12 0 0 0-8.54 4.09c.95.42 1.89.89 2.82 1.37a59.649 59.649 0 0 1 8.55-4.25z"/><path fill="#EE2A24" d="M15.09 7.91c2.604.71 5.15 1.612 7.62 2.7-.84.21-1.71.47-2.56.73a50.006 50.006 0 0 0-7.54-2.87c.82-.21 1.64-.4 2.48-.56zm-3.8.93a54.509 54.509 0 0 1 7.49 2.93v.02c-.84.29-1.66.58-2.48.89a54.009 54.009 0 0 0-7.7-3c.87-.29 1.77-.58 2.69-.84zm17.76 3.88a66.399 66.399 0 0 0-17.26 8.78c1.32.82 2.59 1.66 3.83 2.59A69.697 69.697 0 0 1 32 14.4c-1-.6-1.95-1.16-2.95-1.68zM6.83 18.78a59.56 59.56 0 0 1 17.94-8.07c1.044.412 2.038.891 3.028 1.369l.272.13a63.056 63.056 0 0 0-17.62 8.5 66.24 66.24 0 0 0-3.62-1.93z"/></g></svg>