<svg width="33" height="32" fill="none" xmlns="http://www.w3.org/2000/svg"><path d="M2.113 11a9 9 0 1 1 18 0 9 9 0 0 1-18 0Z" fill="#2C7DF7"/><path d="M11.979 16.063c-.723 0-1.25-.175-1.582-.522a1.612 1.612 0 0 1-.496-1.125.742.742 0 0 1 .087-.372.65.65 0 0 1 .237-.238.825.825 0 0 1 .738 0c.099.057.18.139.236.238a.736.736 0 0 1 .09.372.71.71 0 0 1-.126.434.59.59 0 0 1-.3.22.824.824 0 0 0 .474.296c.21.062.428.093.647.094.29.002.574-.083.815-.244.25-.176.436-.428.531-.72.12-.346.18-.71.174-1.077a2.956 2.956 0 0 0-.19-1.12 1.38 1.38 0 0 0-.549-.696 1.462 1.462 0 0 0-.79-.226c-.245.02-.48.1-.686.232l-.508.255v-.255l2.284-3.062H9.9v3.178c-.009.23.051.456.174.65a.6.6 0 0 0 .531.255.887.887 0 0 0 .525-.185c.171-.125.32-.278.44-.452a.159.159 0 0 1 .057-.076.116.116 0 0 1 .077-.028.265.265 0 0 1 .148.063c.053.06.082.136.081.215a1.322 1.322 0 0 1-.028.158 1.53 1.53 0 0 1-.543.674c-.225.152-.49.233-.762.231-.685 0-1.159-.135-1.423-.405a1.516 1.516 0 0 1-.393-1.107V8.547H7.176v-.59h1.617V6.61l-.37-.37v-.303h1.074l.404.21v1.81l4.18-.014.415.418-2.563 2.575c.155-.062.318-.101.485-.117.328.015.649.107.936.268.333.158.612.408.807.72.174.265.297.559.364.868.055.244.083.494.087.744a3.11 3.11 0 0 1-.316 1.378c-.2.415-.534.75-.95.949-.425.21-.893.318-1.367.316Z" fill="#fff"/><path d="M12.113 21a9 9 0 1 1 18 0 9 9 0 0 1-18 0Z" fill="#fff"/><path fill-rule="evenodd" clip-rule="evenodd" d="M20.733 12c-1.734.1-3.334.69-4.667 1.633h10.386A8.956 8.956 0 0 0 21.784 12h-1.051Zm-6.427 3.266a8.985 8.985 0 0 0-1.068 1.633H29.28a8.978 8.978 0 0 0-1.068-1.633H14.306ZM12.15 20.18c.05-.56.15-1.106.299-1.633h17.317c.148.527.249 1.072.298 1.633H12.15Zm.004 1.633a8.89 8.89 0 0 0 .308 1.633h17.29a8.897 8.897 0 0 0 .309-1.633H12.154Zm2.039 4.899a8.99 8.99 0 0 1-1.083-1.633h15.994a8.987 8.987 0 0 1-1.082 1.633H14.193Zm6.534 3.256.027.001.027.001a8.86 8.86 0 0 0 5.455-1.625H15.979a8.859 8.859 0 0 0 4.748 1.623Z" fill="#F44336"/><path d="M20.922 12.005a8.991 8.991 0 0 0-8.77 8.178h8.77v-8.178Z" fill="#283991"/><path d="m13.913 17.085.137.421h.444l-.36.26.138.422-.36-.26-.358.26.137-.422-.359-.26h.444l.137-.42Zm0 1.488.137.42h.444l-.36.261.138.421-.36-.26-.358.26.137-.42-.359-.261h.444l.137-.421Zm1.491-3.72.137.422h.444l-.36.26.138.421-.36-.26-.358.26.137-.42-.36-.261h.445l.137-.422Zm0 1.488.137.421h.444l-.36.26.138.422-.36-.26-.358.26.137-.422-.36-.26h.445l.137-.42Zm0 1.488.137.421h.444l-.36.26.138.421-.36-.26-.358.26.137-.42-.36-.26h.445l.137-.422Zm-2.623 1.102-.137-.42.359-.261h-.444l-.01-.03c-.048.15-.092.302-.133.456l.006-.005.36.26Zm.773-2.231.359-.26.359.26-.137-.421.359-.26h-.444l-.137-.422-.137.421h-.164l-.09.139.169.122-.137.421Zm1.85-2.492.359.26-.137-.42.358-.261h-.256a8.943 8.943 0 0 0-.63.516l-.054.165.36-.26Zm1.131-.483.36-.26.358.26-.137-.422.36-.26h-.444l-.02-.056a9.5 9.5 0 0 0-.444.24l.104.076-.137.422Zm.36.385.137.42h.443l-.359.261.137.421-.358-.26-.36.26.138-.42-.36-.261h.444l.137-.421Zm0 1.487.137.421h.443l-.359.26.137.422-.358-.26-.36.26.138-.421-.36-.26h.444l.137-.422Zm0 1.488.137.421h.443l-.359.26.137.422-.358-.26-.36.26.138-.422-.36-.26h.444l.137-.42Zm0 1.488.137.42h.443l-.359.261.137.421-.358-.26-.36.26.138-.42-.36-.261h.444l.137-.421Zm1.49-5.207.137.42h.444l-.359.261.137.421-.359-.26-.359.26.137-.42-.359-.261h.444l.137-.421Zm0 1.487.137.422h.444l-.359.26.137.421-.359-.26-.359.26.137-.42-.359-.261h.444l.137-.422Zm0 1.488.137.421h.444l-.359.26.137.422-.359-.26-.359.26.137-.422-.359-.26h.444l.137-.42Zm0 1.488.137.421h.444l-.359.26.137.421-.359-.26-.359.26.137-.42-.359-.26h.444l.137-.422Zm1.491-5.207.137.421h.444l-.359.26.137.422-.359-.26-.359.26.137-.422-.359-.26h.444l.137-.42Zm0 1.488.137.42h.444l-.359.261.137.421-.359-.26-.359.26.137-.42-.359-.261h.444l.137-.421Zm0 1.487.137.421h.444l-.359.26.137.422-.359-.26-.359.26.137-.421-.359-.26h.444l.137-.422Zm0 1.488.137.421h.444l-.359.26.137.422-.359-.26-.359.26.137-.422-.359-.26h.444l.137-.42Zm0 1.488.137.42h.444l-.359.261.137.421-.359-.26-.359.26.137-.42-.359-.261h.444l.137-.421Z" fill="#EFEFEF"/></svg>