<svg xmlns="http://www.w3.org/2000/svg" width="32" height="32"><g fill="none" fill-rule="evenodd"><path d="M0 0h32v32H0z"/><path fill="#FFF" fill-rule="nonzero" d="M8.88 8.35a1.673 1.673 0 0 1-.74-.16 1.336 1.336 0 0 1-.51-.46 1.91 1.91 0 0 1-.3-.73 4.255 4.255 0 0 1-.1-1 4.255 4.255 0 0 1 .1-1 2.01 2.01 0 0 1 .3-.74c.127-.195.303-.354.51-.46.231-.109.484-.164.74-.16a1.38 1.38 0 0 1 1.24.62 3.14 3.14 0 0 1 .4 1.74 3.139 3.139 0 0 1-.4 1.73 1.38 1.38 0 0 1-1.24.62zm0-.63a.84.84 0 0 0 .4-.09.7.7 0 0 0 .27-.27 1.28 1.28 0 0 0 .15-.42c.016-.18.016-.36 0-.54v-.8c.016-.18.016-.36 0-.54a1.28 1.28 0 0 0-.15-.42.7.7 0 0 0-.27-.27.84.84 0 0 0-.4-.09.829.829 0 0 0-.4.09.7.7 0 0 0-.27.27 1.28 1.28 0 0 0-.15.42A2.89 2.89 0 0 0 8 5.6v.8c0 .181.017.362.05.54.025.148.076.29.15.42a.7.7 0 0 0 .27.27.823.823 0 0 0 .41.09z"/><circle cx="25" cy="25" r="5" fill="#EF4852" fill-rule="nonzero"/><path fill="#FFF" fill-rule="nonzero" d="M22.15 27.23v-.61h1.27v-3.39h-.05l-1.05 1.12-.45-.4L23 22.69h1.12v3.93h1.11v.61zm4.64.08a1.64 1.64 0 0 1-1.37-.64l.46-.42c.113.149.256.272.42.36.163.086.345.131.53.13.166.012.33-.03.47-.12a.42.42 0 0 0 .15-.34.414.414 0 0 0-.11-.28.612.612 0 0 0-.37-.14h-.31a1.665 1.665 0 0 1-.82-.3.848.848 0 0 1-.29-.71.995.995 0 0 1 .09-.44.988.988 0 0 1 .25-.32c.12-.093.255-.164.4-.21.166-.045.338-.069.51-.07.254-.008.507.04.74.14.198.098.375.234.52.4l-.43.42a1.049 1.049 0 0 0-.35-.27 1.002 1.002 0 0 0-.48-.12.63.63 0 0 0-.43.12.371.371 0 0 0-.14.31.362.362 0 0 0 .12.29c.122.075.258.122.4.14h.31c.299.03.583.145.82.33a.853.853 0 0 1 .25.65c.003.155-.028.308-.09.45a.993.993 0 0 1-.27.34 1.395 1.395 0 0 1-.42.22c-.182.054-.37.08-.56.08z"/><path fill="#84AAAF" fill-rule="nonzero" d="M29.93 12.76a.5.5 0 0 0-.42-.762.5.5 0 0 0-.44.242L26.8 16h-.3a1.52 1.52 0 0 0-.79.23L22.91 14c.06-.16.091-.33.09-.5a1.5 1.5 0 0 0-3 0c0 .348.124.685.35.95L18.8 17a1.481 1.481 0 0 0-1.09.2l-2.8-2.2c.06-.16.091-.33.09-.5a1.502 1.502 0 0 0-1.076-1.48 1.502 1.502 0 0 0-1.504 2.48L10.68 19h-.18a1.52 1.52 0 0 0-.79.23L6.91 17a1.474 1.474 0 0 0 0-.91A1.51 1.51 0 0 0 5.5 15c-.142 0-.283.02-.42.06a1.5 1.5 0 0 0-1 1.86c.087.305.274.573.53.76L3.47 21a1.51 1.51 0 1 0 .95.32L5.53 18c.142 0 .283-.02.42-.06.13-.043.253-.1.37-.17L9.09 20c-.06.16-.091.33-.09.5a1.502 1.502 0 0 0 1.076 1.48 1.502 1.502 0 0 0 1.504-2.48l1.74-3.5h.18a1.52 1.52 0 0 0 .79-.23l2.8 2.23c-.06.156-.09.323-.09.49a1.5 1.5 0 0 0 3 0c0-.348-.124-.685-.35-.95L21.2 15h.3a1.52 1.52 0 0 0 .79-.23l2.8 2.23c-.06.156-.09.323-.09.49a1.5 1.5 0 0 0 3 0c0-.348-.124-.685-.35-.95l2.28-3.78zM3.5 23a.5.5 0 1 1 0-1 .5.5 0 0 1 0 1zm2.14-6H5.5a.503.503 0 0 1-.538-.69.506.506 0 0 1 .398-.31h.14a.505.505 0 0 1 .14 1zm4.86 4a.5.5 0 1 1 0-1 .5.5 0 0 1 0 1zm3-6a.5.5 0 1 1 0-1 .5.5 0 0 1 0 1zm5 4a.5.5 0 1 1 0-1 .5.5 0 0 1 0 1zm3-5a.5.5 0 1 1 0-1 .5.5 0 0 1 0 1zm5 4a.5.5 0 1 1 0-1 .5.5 0 0 1 0 1z"/><rect width="14" height="9" x="2" y="2" fill="#2A2A2A" fill-rule="nonzero" rx="1"/><path fill="#FFF" fill-rule="nonzero" d="M3.301 8.97v-.658h1.372V4.658h-.056L3.483 5.869 3 5.435l1.246-1.351H5.45v4.228h1.19v.658H3.301zm5.684.084c-.303 0-.567-.057-.791-.171a1.473 1.473 0 0 1-.553-.494 2.298 2.298 0 0 1-.322-.791 4.932 4.932 0 0 1-.105-1.071c0-.397.035-.752.105-1.067.07-.316.177-.58.322-.795.145-.215.329-.38.553-.494.224-.114.488-.171.791-.171.607 0 1.053.222 1.34.665.288.443.431 1.064.431 1.862s-.143 1.419-.43 1.862c-.288.443-.734.665-1.341.665zm0-.672a.863.863 0 0 0 .43-.101.789.789 0 0 0 .291-.291 1.37 1.37 0 0 0 .161-.452c.033-.175.049-.37.049-.584V6.1c0-.215-.016-.41-.049-.584a1.37 1.37 0 0 0-.161-.452.783.783 0 0 0-.29-.29.859.859 0 0 0-.431-.102.778.778 0 0 0-.721.392 1.37 1.37 0 0 0-.161.452c-.033.175-.049.37-.049.584v.854c0 .215.016.41.049.585s.086.325.161.451a.783.783 0 0 0 .29.29c.12.068.263.102.431.102zm4.2.672c-.303 0-.567-.057-.791-.171a1.473 1.473 0 0 1-.553-.494 2.298 2.298 0 0 1-.322-.791 4.932 4.932 0 0 1-.105-1.071c0-.397.035-.752.105-1.067.07-.316.177-.58.322-.795.145-.215.329-.38.553-.494.224-.114.488-.171.791-.171.607 0 1.053.222 1.34.665.288.443.431 1.064.431 1.862s-.143 1.419-.43 1.862c-.288.443-.734.665-1.341.665zm0-.672a.863.863 0 0 0 .43-.101.789.789 0 0 0 .291-.291 1.37 1.37 0 0 0 .161-.452c.033-.175.049-.37.049-.584V6.1c0-.215-.016-.41-.049-.584a1.37 1.37 0 0 0-.161-.452.783.783 0 0 0-.29-.29.859.859 0 0 0-.431-.102.778.778 0 0 0-.721.392 1.37 1.37 0 0 0-.161.452c-.033.175-.049.37-.049.584v.854c0 .215.016.41.049.585s.086.325.161.451a.783.783 0 0 0 .29.29c.12.068.263.102.431.102z"/></g></svg>