<svg xmlns="http://www.w3.org/2000/svg" width="32" height="32"><g fill="none" fill-rule="evenodd"><path d="M0 0h32v32H0z"/><path d="M8.845 7.765c.131.131.205.31.205.495v7.38a.7.7 0 1 1-1.4 0V8.26a.7.7 0 0 1 1.195-.495zM5.22 10.88a.698.698 0 0 0-1.159-.44.7.7 0 0 0-.231.44v3.38a.696.696 0 0 0 .695.616.701.701 0 0 0 .695-.616v-3.38zm-4.031 1.43c.129.13.201.307.201.491v1.46a.696.696 0 0 1-.695.616.701.701 0 0 1-.695-.616V12.8a.7.7 0 0 1 .7-.7c.184.003.36.078.489.209zM15.78 20a4.711 4.711 0 0 0-1.1-.17c-.56 0-.87.19-.87.45s.41.46.64.53l.39.13a1.669 1.669 0 0 1 1.33 1.59c0 1.39-1.23 1.86-2.31 1.86a7.978 7.978 0 0 1-1.51-.15V23c.43.127.873.197 1.32.21.7 0 1-.21 1-.52 0-.31-.27-.45-.62-.55l-.3-.1c-.78-.25-1.43-.71-1.43-1.63 0-.92.77-1.74 2.07-1.74.462.008.922.069 1.37.18l.02 1.15zm12.879 3.202a2.944 2.944 0 0 0 .461-1.652 2.85 2.85 0 0 0-.862-2.058 2.877 2.877 0 0 0-2.078-.812 2.94 2.94 0 1 0 2.479 4.522zm-3.302-2.873c.245-.16.531-.243.823-.239a1.446 1.446 0 0 1 1.345.901c.072.177.108.367.105.56a1.468 1.468 0 0 1-1.758 1.45 1.467 1.467 0 0 1-1.065-2.015c.114-.269.305-.498.55-.657zM7.12 20.37a2.447 2.447 0 0 0-1.18-.3c-.398 0-.78.158-1.06.44a1.494 1.494 0 0 0 0 2.12c.28.282.662.44 1.06.44.412 0 .817-.104 1.18-.3v1.49a4.002 4.002 0 0 1-1.28.2 2.882 2.882 0 0 1-2.814-4.016c.156-.36.383-.685.669-.955.285-.269.623-.477.992-.61a2.865 2.865 0 0 1 1.153-.169c.433.005.864.069 1.28.19v1.47zm13.47-.3c.412-.001.818.102 1.18.3V18.9a4.864 4.864 0 0 0-1.28-.19 2.882 2.882 0 0 0-2.814 4.016c.156.36.383.685.669.955a2.883 2.883 0 0 0 2.145.78c.434 0 .866-.068 1.28-.2v-1.49a2.516 2.516 0 0 1-1.18.3 1.499 1.499 0 1 1 0-3.001zm-11.54-1.3h1.4v5.56h-1.4v-5.56zm3.82-7.89a.698.698 0 0 0-1.16-.44.698.698 0 0 0-.23.44v3.38a.696.696 0 0 0 .695.616.697.697 0 0 0 .695-.616v-3.38zm3.618 1.432c.13.13.202.305.202.488v1.46a.691.691 0 0 1-1.38 0V12.8a.693.693 0 0 1 .69-.69c.183 0 .358.073.488.202zm4.032-1.432a.698.698 0 0 0-1.16-.44.698.698 0 0 0-.23.44v3.38a.696.696 0 0 0 .695.616.701.701 0 0 0 .695-.616v-3.38zm3.6-3.06c.128.114.21.27.23.44v7.38a.712.712 0 0 1-.171.548.714.714 0 0 1-.524.236.692.692 0 0 1-.524-.236.698.698 0 0 1-.171-.548V8.26a.696.696 0 0 1 .695-.616c.171 0 .336.062.464.176zm4.06 3.06a.7.7 0 1 0-1.4 0v3.38a.7.7 0 1 0 1.4 0l-.001-3.38zm3.793 1.628c.03.094.039.194.027.292v1.46a.696.696 0 0 1-.695.616.7.7 0 0 1-.695-.616l-.001-1.46a.712.712 0 0 1 .171-.548.714.714 0 0 1 .524-.236.692.692 0 0 1 .524.236.698.698 0 0 1 .144.256zM31.2 23.6v.09h-.25v.64h-.1v-.64h-.25v-.09h.6zm.21 0h-.16v.73h.1v-.6h.01l.21.6h.1l.22-.6v.6H32v-.73h-.16l-.21.6-.22-.6z" fill="#00A7E0"/></g></svg>