<svg width="32" height="32" fill="none" xmlns="http://www.w3.org/2000/svg"><path d="M2 11a9 9 0 1 1 18 0 9 9 0 0 1-18 0Z" fill="#172852"/><path d="M13.535 8.912c.863.269 1.725.564 2.51 1.02l.053.027c.073.548.126 1.107.03 1.656-.396-.167-.716-.462-1.051-.722-.645-.536-1.302-1.15-1.542-1.981Z" fill="#FF6F03"/><path d="M12.56 5.975c-1.075-.324-2.26-.323-3.315.071-.247.127-.594.31-.56.637.074.339.391.523.675.689l.1.058c.9.471 1.866.782 2.831 1.092.436.14.872.28 1.301.436.864.269 1.725.564 2.51 1.02-.016-.42-.179-.813-.349-1.19-.616-1.324-1.796-2.38-3.194-2.813ZM7.549 7.066c-.68.57-1.18 1.338-1.485 2.166-.558 1.54-.326 3.338.595 4.691.816 1.225 2.169 2.093 3.634 2.28 2.427.381 5.047-1.205 5.709-3.596l-.285.056c-.578.114-1.16.23-1.751.21-1.736.03-3.443-.735-4.64-1.98-1-1.033-1.604-2.406-1.777-3.827Z" fill="#FFD83D"/><path d="M12 21a9 9 0 1 1 18 0 9 9 0 0 1-18 0Z" fill="#fff"/><path fill-rule="evenodd" clip-rule="evenodd" d="M20.62 12c-1.734.1-3.335.69-4.668 1.633h10.386A8.956 8.956 0 0 0 21.671 12H20.62Zm-6.428 3.266a8.985 8.985 0 0 0-1.067 1.633h16.041a8.973 8.973 0 0 0-1.068-1.633H14.192Zm-2.155 4.915c.05-.56.15-1.106.298-1.633h17.317c.148.527.25 1.072.299 1.633H12.037Zm.003 1.633a9.06 9.06 0 0 0 .308 1.633H29.64a8.897 8.897 0 0 0 .308-1.633H12.041Zm2.04 4.899a8.99 8.99 0 0 1-1.083-1.633H28.99a8.981 8.981 0 0 1-1.082 1.633H14.08Zm6.533 3.256.028.001.027.001a8.86 8.86 0 0 0 5.454-1.625H15.866a8.859 8.859 0 0 0 4.747 1.623Z" fill="#F44336"/><path d="M20.809 12.005a8.991 8.991 0 0 0-8.77 8.178h8.77v-8.178Z" fill="#283991"/><path d="m13.8 17.085.137.421h.444l-.36.26.138.422-.36-.26-.358.26.137-.422-.36-.26h.445l.137-.42Zm0 1.488.137.42h.444l-.36.261.138.421-.36-.26-.358.26.137-.42-.36-.261h.445l.137-.421Zm1.49-3.72.138.422h.443l-.359.26.137.421-.358-.26-.36.26.138-.42-.36-.261h.444l.137-.422Zm0 1.488.138.421h.443l-.359.26.137.422-.358-.26-.36.26.138-.422-.36-.26h.444l.137-.42Zm0 1.488.138.421h.443l-.359.26.137.421-.358-.26-.36.26.138-.42-.36-.26h.444l.137-.422Zm-2.622 1.102-.137-.42.359-.261h-.444l-.01-.03c-.049.15-.093.302-.133.456l.006-.005.359.26Zm.772-2.231.36-.26.359.26-.138-.421.36-.26h-.444l-.137-.422-.138.421H13.5l-.09.139.169.122-.137.421Zm1.85-2.492.36.26-.138-.42.36-.261h-.257a8.941 8.941 0 0 0-.63.516l-.054.165.36-.26Zm1.132-.483.36-.26.358.26-.137-.422.359-.26h-.444l-.018-.056c-.15.076-.3.156-.445.24l.104.076-.137.422Zm.359.385.137.42h.444l-.359.261.137.421-.359-.26-.359.26.137-.42-.359-.261h.444l.137-.421Zm0 1.487.137.421h.444l-.359.26.137.422-.359-.26-.359.26.137-.421-.359-.26h.444l.137-.422Zm0 1.488.137.421h.444l-.359.26.137.422-.359-.26-.359.26.137-.422-.359-.26h.444l.137-.42Zm0 1.488.137.42h.444l-.359.261.137.421-.359-.26-.359.26.137-.42-.359-.261h.444l.137-.421Zm1.491-5.207.137.42h.444l-.359.261.137.421-.359-.26-.36.26.138-.42-.359-.261h.444l.137-.421Zm0 1.487.137.422h.444l-.359.26.137.421-.359-.26-.36.26.138-.42-.359-.261h.444l.137-.422Zm0 1.488.137.421h.444l-.359.26.137.422-.359-.26-.36.26.138-.422-.359-.26h.444l.137-.42Zm0 1.488.137.421h.444l-.359.26.137.421-.359-.26-.36.26.138-.42-.359-.26h.444l.137-.422Zm1.491-5.207.137.421h.444l-.36.26.138.422-.36-.26-.358.26.137-.422-.36-.26h.445l.137-.42Zm0 1.488.137.42h.444l-.36.261.138.421-.36-.26-.358.26.137-.42-.36-.261h.445l.137-.421Zm0 1.487.137.421h.444l-.36.26.138.422-.36-.26-.358.26.137-.421-.36-.26h.445l.137-.422Zm0 1.488.137.421h.444l-.36.26.138.422-.36-.26-.358.26.137-.422-.36-.26h.445l.137-.42Zm0 1.488.137.42h.444l-.36.261.138.421-.36-.26-.358.26.137-.42-.36-.261h.445l.137-.421Z" fill="#EFEFEF"/></svg>