<svg width="33" height="32" fill="none" xmlns="http://www.w3.org/2000/svg"><g clip-path="url(#a)"><path d="M16.5 32c8.837 0 16-7.163 16-16s-7.163-16-16-16S.5 7.163.5 16s7.163 16 16 16Z" fill="#172852"/><path d="M13.39 7.15c1.873-.7 3.982-.702 5.89-.126 2.485.77 4.583 2.646 5.679 5 .302.67.592 1.37.62 2.115-1.396-.81-2.927-1.334-4.462-1.813-2.454-.885-5.024-1.5-7.347-2.715-.54-.323-1.23-.654-1.377-1.328-.06-.582.556-.907.996-1.133Zm-5.657 5.664c.542-1.472 1.432-2.838 2.64-3.851.307 2.526 1.382 4.968 3.158 6.805 2.13 2.212 5.163 3.57 8.25 3.52 1.225.038 2.424-.245 3.619-.474-1.176 4.25-5.834 7.07-10.149 6.392-2.605-.333-5.01-1.875-6.46-4.053-1.637-2.406-2.05-5.601-1.058-8.339Z" fill="#FFD83D"/><path d="M21.115 12.326c1.535.479 3.066 1.004 4.463 1.813l.094.05c.13.974.224 1.968.051 2.944-.702-.298-1.272-.821-1.867-1.283-1.146-.954-2.315-2.045-2.74-3.524Z" fill="#FF6F03"/></g><defs><clipPath id="a"><path fill="#fff" transform="translate(.5)" d="M0 0h32v32H0z"/></clipPath></defs></svg>