<svg width="32" height="32" viewBox="0 0 32 32" fill="none" xmlns="http://www.w3.org/2000/svg">
<path d="M0 16C0 7.16344 7.16344 0 16 0C24.8366 0 32 7.16344 32 16C32 24.8366 24.8366 32 16 32C7.16344 32 0 24.8366 0 16Z" fill="#DC062B"/>
<path d="M20.4733 10.2235L8.39062 8L14.7493 24L23.6091 13.2057L20.4733 10.2235ZM20.2788 11.2032L22.1271 12.9599L17.0719 13.8753L20.2788 11.2032ZM15.9742 13.6922L10.6459 9.27325L19.3544 10.8756L15.9742 13.6922ZM15.5944 14.4737L14.7259 21.6562L10.0414 9.86789L15.5944 14.4737ZM16.3986 14.855L21.9962 13.8412L15.5755 21.6638L16.3986 14.855Z" fill="white"/>
</svg>
