<svg width="33" height="32" fill="none" xmlns="http://www.w3.org/2000/svg"><path d="M2.613 11a9 9 0 1 1 18 0 9 9 0 0 1-18 0Z" fill="#DC062B"/><path d="M14.13 7.75 7.334 6.5l3.577 9 4.983-6.072-1.764-1.677Zm-.109.552 1.04.988-2.844.515 1.804-1.503Zm-2.421 1.4L8.603 7.216l4.898.902L11.6 9.702Zm-.214.44-.488 4.04L8.263 7.55l3.123 2.59Zm.453.214 3.148-.57-3.611 4.4.463-3.83ZM12.613 21a9 9 0 1 1 18 0 9 9 0 0 1-18 0Z" fill="#fff"/><path fill-rule="evenodd" clip-rule="evenodd" d="M21.233 12c-1.734.1-3.334.69-4.667 1.633h10.386A8.956 8.956 0 0 0 22.284 12H21.233Zm-6.427 3.266a8.985 8.985 0 0 0-1.068 1.633H29.78a8.978 8.978 0 0 0-1.068-1.633H14.806ZM12.65 20.18c.05-.56.15-1.106.299-1.633h17.317c.148.527.249 1.072.298 1.633H12.65Zm.004 1.633c.052.561.157 1.107.308 1.633h17.29a8.897 8.897 0 0 0 .309-1.633H12.654Zm2.039 4.899a8.99 8.99 0 0 1-1.083-1.633h15.994a8.987 8.987 0 0 1-1.082 1.633H14.693Zm6.534 3.256.027.001.027.001a8.86 8.86 0 0 0 5.455-1.625H16.479a8.859 8.859 0 0 0 4.748 1.623Z" fill="#F44336"/><path d="M21.422 12.005a8.991 8.991 0 0 0-8.77 8.178h8.77v-8.178Z" fill="#283991"/><path d="m14.413 17.085.137.421h.444l-.36.26.138.422-.36-.26-.358.26.137-.422-.359-.26h.444l.137-.42ZM14.413 18.573l.137.42h.444l-.36.261.138.421-.36-.26-.358.26.137-.42-.359-.261h.444l.137-.421ZM15.904 14.853l.137.422h.444l-.36.26.138.421-.36-.26-.358.26.137-.42-.36-.261h.445l.137-.422ZM15.904 16.341l.137.421h.444l-.36.26.138.422-.36-.26-.358.26.137-.422-.36-.26h.445l.137-.42ZM15.904 17.829l.137.421h.444l-.36.26.138.421-.36-.26-.358.26.137-.42-.36-.26h.445l.137-.422ZM13.281 18.931l-.137-.42.359-.261h-.444l-.01-.03c-.048.15-.092.302-.133.456l.006-.005.36.26ZM14.054 16.7l.359-.26.359.26-.137-.421.359-.26h-.444l-.137-.422-.137.421h-.164l-.09.139.169.122-.137.421ZM15.904 14.208l.359.26-.137-.42.358-.261h-.256a8.943 8.943 0 0 0-.63.516l-.054.165.36-.26ZM17.035 13.725l.36-.26.358.26-.137-.422.36-.26h-.444l-.02-.056c-.15.076-.298.156-.444.24l.104.076-.137.422ZM17.395 14.11l.137.42h.443l-.359.261.137.421-.358-.26-.36.26.138-.42-.36-.261h.444l.137-.421ZM17.395 15.597l.137.421h.443l-.359.26.137.422-.358-.26-.36.26.138-.421-.36-.26h.444l.137-.422ZM17.395 17.085l.137.421h.443l-.359.26.137.422-.358-.26-.36.26.138-.422-.36-.26h.444l.137-.42ZM17.395 18.573l.137.42h.443l-.359.261.137.421-.358-.26-.36.26.138-.42-.36-.261h.444l.137-.421ZM18.885 13.366l.137.42h.444l-.359.261.137.421-.359-.26-.359.26.137-.42-.359-.261h.444l.137-.421ZM18.885 14.853l.137.422h.444l-.359.26.137.421-.359-.26-.359.26.137-.42-.359-.261h.444l.137-.422ZM18.885 16.341l.137.421h.444l-.359.26.137.422-.359-.26-.359.26.137-.422-.359-.26h.444l.137-.42ZM18.885 17.829l.137.421h.444l-.359.26.137.421-.359-.26-.359.26.137-.42-.359-.26h.444l.137-.422ZM20.376 12.622l.137.421h.444l-.359.26.137.422-.359-.26-.359.26.137-.422-.359-.26h.444l.137-.42ZM20.376 14.11l.137.42h.444l-.359.261.137.421-.359-.26-.359.26.137-.42-.359-.261h.444l.137-.421ZM20.376 15.597l.137.421h.444l-.359.26.137.422-.359-.26-.359.26.137-.421-.359-.26h.444l.137-.422ZM20.376 17.085l.137.421h.444l-.359.26.137.422-.359-.26-.359.26.137-.422-.359-.26h.444l.137-.42ZM20.376 18.573l.137.42h.444l-.359.261.137.421-.359-.26-.359.26.137-.42-.359-.261h.444l.137-.421Z" fill="#EFEFEF"/></svg>