<svg xmlns="http://www.w3.org/2000/svg" width="32" height="32"><g fill="none" fill-rule="evenodd"><path d="M0 0h32v32H0z"/><path d="M32 6.08c-1.2.518-2.47.855-3.77 1a6.61 6.61 0 0 0 2.89-3.63A13.167 13.167 0 0 1 27 5.07a6.573 6.573 0 0 0-11.41 4.49 6.7 6.7 0 0 0 .17 1.5A18.653 18.653 0 0 1 2.23 4.2a6.556 6.556 0 0 0 2 8.76 6.466 6.466 0 0 1-3-.82v.09c0 1.514.524 2.982 1.482 4.154A6.565 6.565 0 0 0 6.49 18.66a6.609 6.609 0 0 1-1.73.23 7.148 7.148 0 0 1-1.23-.11 6.566 6.566 0 0 0 6.13 4.55A13.134 13.134 0 0 1 0 26.05c3 1.93 6.493 2.955 10.06 2.95 12.08 0 18.68-10 18.68-18.68v-.85A13.22 13.22 0 0 0 32 6.08" fill="#60AADD" fill-rule="nonzero"/></g></svg>