<svg width="33" height="32" fill="none" xmlns="http://www.w3.org/2000/svg"><path d="M2.5 11a9 9 0 1 1 18 0 9 9 0 0 1-18 0Z" fill="#FF007A"/><g clip-path="url(#a)" fill="#fff"><path d="M10.36 7.373c-.122-.018-.128-.023-.07-.03.11-.017.366.007.546.047.418.099.795.354 1.196.801l.104.122.151-.023a3.237 3.237 0 0 1 1.858.232c.15.07.389.21.418.244a.56.56 0 0 1 .04.162c.041.273.024.476-.063.633-.047.087-.047.11-.018.186.023.058.093.099.157.099.14 0 .284-.22.354-.529l.029-.121.052.058c.296.33.528.789.563 1.114l.012.087-.052-.075a.98.98 0 0 0-.279-.296c-.197-.134-.406-.174-.958-.203-.5-.03-.784-.07-1.062-.163-.476-.157-.72-.36-1.283-1.109-.25-.33-.406-.51-.563-.662-.343-.33-.685-.505-1.132-.574Z"/><path d="M14.684 8.11c.012-.221.04-.366.104-.5a.403.403 0 0 1 .053-.098c.006 0-.006.04-.023.087-.047.127-.053.307-.024.51.04.262.058.297.337.581.128.134.279.302.337.372l.098.127-.098-.093a3.536 3.536 0 0 0-.465-.365c-.04-.023-.046-.023-.075.006-.024.023-.03.058-.03.226-.005.261-.04.424-.127.592-.046.087-.052.07-.012-.029.03-.075.035-.11.035-.36 0-.505-.058-.627-.412-.83a4.335 4.335 0 0 0-.325-.168 1.29 1.29 0 0 1-.157-.076c.012-.011.354.087.488.145.203.082.238.087.261.082.018-.018.03-.064.035-.21Zm-4.087.864c-.244-.336-.4-.859-.366-1.248l.012-.122.058.012c.105.018.284.087.372.14.232.139.336.33.435.806.029.14.07.302.087.354.03.087.14.29.232.418.064.093.024.14-.122.128-.22-.023-.516-.226-.708-.488Zm3.791 2.526c-1.15-.465-1.556-.866-1.556-1.545 0-.098.006-.18.006-.18.006 0 .046.035.099.076.232.186.493.267 1.219.371.423.064.667.11.888.186.702.232 1.138.708 1.242 1.353.03.185.012.54-.035.725-.04.145-.156.412-.185.418-.006 0-.018-.029-.018-.075a.945.945 0 0 0-.337-.656c-.243-.21-.557-.366-1.323-.674Zm-.813.191a1.378 1.378 0 0 0-.058-.244l-.029-.087.052.064c.076.087.134.192.186.337.04.11.04.145.04.325 0 .174-.005.215-.04.313a1.05 1.05 0 0 1-.244.39c-.209.214-.481.33-.87.383-.07.005-.268.023-.442.034-.435.024-.725.07-.987.163-.034.011-.07.023-.075.017-.012-.011.168-.116.313-.185.204-.1.413-.151.871-.233a3.96 3.96 0 0 0 .517-.104c.575-.18.86-.627.766-1.173Z"/><path d="M14.104 12.626c-.151-.33-.186-.644-.105-.94.012-.029.023-.058.035-.058.012 0 .046.017.081.04.07.047.215.128.587.331.47.256.737.453.923.68.162.197.26.423.307.702.03.157.012.534-.029.69-.127.494-.418.889-.841 1.115a.81.81 0 0 1-.122.058.462.462 0 0 1 .052-.127c.14-.296.157-.58.052-.9-.064-.197-.197-.435-.464-.836-.32-.464-.395-.586-.476-.755Zm-4.325 1.776c.43-.36.957-.615 1.445-.696a2.13 2.13 0 0 1 .749.029c.308.08.586.255.731.47.14.209.204.389.268.79.023.156.052.318.058.353.046.21.139.372.255.459.18.133.493.14.801.023.052-.017.099-.035.099-.029.011.012-.145.116-.25.168a.821.821 0 0 1-.418.1c-.278 0-.516-.146-.708-.436a3.264 3.264 0 0 1-.192-.383c-.203-.47-.307-.61-.545-.767-.21-.133-.476-.162-.68-.064a.437.437 0 0 0-.15.68.593.593 0 0 0 .33.174.355.355 0 0 0 .401-.354c0-.14-.052-.22-.192-.285-.185-.081-.389.012-.383.192 0 .075.035.122.11.156.047.024.047.024.012.018-.168-.035-.209-.244-.075-.377.162-.163.505-.093.62.133a.607.607 0 0 1 .013.395c-.1.255-.378.389-.662.313-.192-.052-.273-.104-.505-.342-.407-.418-.563-.5-1.144-.586l-.11-.018.122-.116Z"/><path fill-rule="evenodd" clip-rule="evenodd" d="M6.725 5.062a618.667 618.667 0 0 1 3.541 4.336c.087.117.052.227-.093.308a.888.888 0 0 1-.33.093.419.419 0 0 1-.28-.122c-.052-.052-.278-.383-.789-1.178-.389-.61-.72-1.115-.725-1.12-.024-.012-.024-.012.685 1.253.447.795.592 1.08.592 1.115 0 .075-.023.116-.116.22-.157.174-.227.372-.279.784-.058.459-.215.784-.662 1.335-.261.325-.302.383-.366.517a.982.982 0 0 0-.116.464c-.011.22.012.36.076.569.058.186.122.308.278.546.134.209.215.365.215.423 0 .047.012.047.22 0 .5-.116.912-.313 1.139-.557.139-.15.174-.232.174-.441a.487.487 0 0 0-.04-.244c-.059-.127-.17-.232-.407-.394-.314-.215-.447-.39-.482-.622-.029-.197.006-.33.18-.696.18-.378.226-.534.255-.917.018-.244.047-.343.117-.418.075-.082.139-.11.319-.134.296-.04.487-.116.638-.261a.546.546 0 0 0 .198-.424l.005-.133-.075-.082c-.273-.313-4.052-4.47-4.07-4.47-.005 0 .088.11.198.25Zm1.782 8.255a.24.24 0 0 0-.075-.32c-.099-.063-.25-.034-.25.053 0 .023.012.046.047.058.052.029.058.058.017.122-.04.063-.04.122.012.162.08.064.191.03.25-.075Zm2.351-3.054a.516.516 0 0 0-.313.343c-.023.093-.012.26.03.313.063.081.121.105.284.105.319 0 .592-.14.62-.308.03-.14-.092-.33-.26-.418a.59.59 0 0 0-.36-.035Zm.372.29c.046-.07.03-.145-.058-.197-.157-.099-.395-.017-.395.134 0 .075.122.156.238.156.076 0 .18-.046.215-.093Z"/></g><path d="M12.5 21a9 9 0 1 1 18 0 9 9 0 0 1-18 0Z" fill="#fff"/><path fill-rule="evenodd" clip-rule="evenodd" d="M21.12 12c-1.734.1-3.335.69-4.668 1.633h10.386A8.956 8.956 0 0 0 22.171 12H21.12Zm-6.428 3.266a8.985 8.985 0 0 0-1.067 1.633h16.041a8.973 8.973 0 0 0-1.068-1.633H14.692Zm-2.155 4.915c.05-.56.15-1.106.298-1.633h17.317c.148.527.25 1.072.299 1.633H12.537Zm.003 1.633a9.06 9.06 0 0 0 .308 1.633H30.14a8.897 8.897 0 0 0 .308-1.633H12.541Zm2.04 4.899a8.99 8.99 0 0 1-1.083-1.633H29.49a8.981 8.981 0 0 1-1.082 1.633H14.58Zm6.533 3.256.028.001.027.001a8.86 8.86 0 0 0 5.454-1.625H16.366a8.859 8.859 0 0 0 4.747 1.623Z" fill="#F44336"/><path d="M21.308 12.005a8.991 8.991 0 0 0-8.77 8.179h8.77v-8.18Z" fill="#283991"/><path d="m14.3 17.085.137.421h.444l-.36.26.138.422-.36-.26-.358.26.137-.422-.36-.26h.445l.137-.42Zm0 1.488.137.42h.444l-.36.261.138.421-.36-.26-.358.26.137-.42-.36-.261h.445l.137-.421Zm1.49-3.72.138.422h.443l-.359.26.137.421-.359-.26-.359.26.138-.42-.36-.261h.444l.137-.422Zm0 1.488.138.421h.443l-.359.26.137.422-.359-.26-.359.26.138-.422-.36-.26h.444l.137-.42Zm0 1.488.138.421h.443l-.359.26.137.421-.359-.26-.359.26.138-.42-.36-.26h.444l.137-.422Zm-2.622 1.102-.137-.42.359-.261h-.444l-.01-.03c-.049.15-.093.302-.133.456l.006-.005.359.26Zm.772-2.231.36-.26.359.26-.138-.421.36-.26h-.444l-.137-.422-.138.421H14l-.09.139.169.122-.137.421Zm1.85-2.492.36.26-.138-.42.36-.261h-.257a8.941 8.941 0 0 0-.63.516l-.054.165.36-.26Zm1.132-.483.36-.26.358.26-.137-.422.359-.26h-.444l-.018-.056c-.15.076-.3.156-.445.24l.104.076-.137.422Zm.359.385.137.42h.444l-.359.261.137.421-.359-.26-.359.26.137-.42-.359-.261h.444l.137-.421Zm0 1.487.137.421h.444l-.359.26.137.422-.359-.26-.359.26.137-.421-.359-.26h.444l.137-.422Zm0 1.488.137.421h.444l-.359.26.137.422-.359-.26-.359.26.137-.422-.359-.26h.444l.137-.42Zm0 1.488.137.42h.444l-.359.261.137.421-.359-.26-.359.26.137-.42-.359-.261h.444l.137-.421Zm1.491-5.207.137.42h.444l-.359.261.137.421-.359-.26-.36.26.138-.42-.359-.261h.444l.137-.421Zm0 1.487.137.422h.444l-.359.26.137.421-.359-.26-.36.26.138-.42-.359-.261h.444l.137-.422Zm0 1.488.137.421h.444l-.359.26.137.422-.359-.26-.36.26.138-.422-.359-.26h.444l.137-.42Zm0 1.488.137.421h.444l-.359.26.137.421-.359-.26-.36.26.138-.42-.359-.26h.444l.137-.422Zm1.491-5.207.137.421h.444l-.36.26.138.422-.36-.26-.358.26.137-.422-.36-.26h.445l.137-.42Zm0 1.488.137.42h.444l-.36.261.138.421-.36-.26-.358.26.137-.42-.36-.261h.445l.137-.421Zm0 1.487.137.421h.444l-.36.26.138.422-.36-.26-.358.26.137-.421-.36-.26h.445l.137-.422Zm0 1.488.137.421h.444l-.36.26.138.422-.36-.26-.358.26.137-.422-.36-.26h.445l.137-.42Zm0 1.488.137.42h.444l-.36.261.138.421-.36-.26-.358.26.137-.42-.36-.261h.445l.137-.421Z" fill="#EFEFEF"/><defs><clipPath id="a"><path fill="#fff" transform="translate(6.528 4.813)" d="M0 0h9.77v11.25H0z"/></clipPath></defs></svg>