<svg width="128" height="32" viewBox="0 0 128 32" fill="none" xmlns="http://www.w3.org/2000/svg">
<path d="M2.11328 11C2.11328 6.02944 6.14272 2 11.1133 2C16.0838 2 20.1133 6.02944 20.1133 11C20.1133 15.9706 16.0838 20 11.1133 20C6.14272 20 2.11328 15.9706 2.11328 11Z" fill="#FF007A"/>
<path fill-rule="evenodd" clip-rule="evenodd" d="M6.33826 5.06211C7.69088 6.70491 9.77496 9.25909 9.87946 9.39841C9.96654 9.51451 9.9317 9.62481 9.78657 9.70608C9.7053 9.75252 9.53695 9.79895 9.45568 9.79895C9.36279 9.79895 9.25249 9.75252 9.17702 9.67705C9.12478 9.62481 8.89837 9.29392 8.38751 8.49865C7.99856 7.88913 7.66766 7.38409 7.66186 7.37829C7.63864 7.36668 7.63864 7.36668 8.34687 8.63216C8.79388 9.42744 8.93901 9.71188 8.93901 9.74671C8.93901 9.82218 8.91579 9.86281 8.8229 9.9673C8.66616 10.1414 8.5965 10.3388 8.54425 10.751C8.4862 11.2096 8.32946 11.5346 7.88246 12.0861C7.62122 12.4112 7.58058 12.4692 7.51673 12.6027C7.43545 12.7653 7.41223 12.8582 7.40062 13.0671C7.38901 13.2877 7.41223 13.4271 7.47609 13.636C7.53414 13.8218 7.598 13.9437 7.75474 14.1817C7.88826 14.3907 7.96953 14.5474 7.96953 14.6055C7.96953 14.6519 7.98114 14.6519 8.19013 14.6055C8.68938 14.4894 9.10156 14.292 9.32796 14.0482C9.46729 13.8973 9.50212 13.816 9.50212 13.607C9.50212 13.4735 9.49631 13.4445 9.46148 13.3632C9.40343 13.2355 9.29313 13.131 9.05511 12.9685C8.74163 12.7537 8.60811 12.5795 8.57328 12.3473C8.54425 12.15 8.57908 12.0164 8.75324 11.6507C8.9332 11.2734 8.97965 11.1167 9.00867 10.7336C9.02609 10.4897 9.05511 10.3911 9.12478 10.3156C9.20024 10.2343 9.2641 10.2053 9.44407 10.1821C9.74013 10.1414 9.9317 10.066 10.0826 9.92086C10.2162 9.79895 10.2742 9.67705 10.28 9.4971L10.2858 9.36358L10.2104 9.28231C9.93751 8.96885 6.1583 4.8125 6.14088 4.8125C6.13734 4.8125 6.17062 4.85366 6.2222 4.91744C6.25505 4.95808 6.29534 5.0079 6.33826 5.06211ZM8.12047 13.3168C8.18433 13.2065 8.1495 13.0671 8.045 12.9975C7.94631 12.9336 7.79538 12.9627 7.79538 13.0497C7.79538 13.0729 7.80699 13.0962 7.84182 13.1078C7.89407 13.1368 7.89987 13.1658 7.85923 13.2297C7.8186 13.2935 7.8186 13.3516 7.87084 13.3922C7.95212 13.4561 8.06242 13.4212 8.12047 13.3168Z" fill="white"/>
<path d="M9.97272 7.37258C9.85081 7.35517 9.845 7.34936 9.90306 7.34356C10.0134 7.32614 10.2688 7.34936 10.4487 7.39C10.8667 7.48868 11.2441 7.7441 11.6446 8.19108L11.7491 8.31298L11.9001 8.28977C12.5444 8.18528 13.2062 8.26655 13.7577 8.52196C13.9087 8.59162 14.1467 8.73094 14.1757 8.76577C14.1873 8.77738 14.2047 8.85285 14.2163 8.92831C14.257 9.20114 14.2396 9.40432 14.1525 9.56105C14.1061 9.64812 14.1061 9.67134 14.1351 9.74681C14.1583 9.80486 14.228 9.84549 14.2918 9.84549C14.4311 9.84549 14.5763 9.6249 14.6459 9.31724L14.675 9.19534L14.7272 9.25339C15.0233 9.58427 15.2555 10.0429 15.2903 10.3679L15.3019 10.455L15.2497 10.3795C15.1626 10.246 15.0813 10.159 14.971 10.0835C14.7737 9.94998 14.5647 9.90935 14.0132 9.88032C13.5139 9.8513 13.2295 9.81066 12.9508 9.71778C12.4748 9.56105 12.231 9.35788 11.6678 8.60904C11.4182 8.27816 11.2615 8.0982 11.1047 7.94727C10.7622 7.61639 10.4197 7.44224 9.97272 7.37258Z" fill="white"/>
<path d="M14.2974 8.1092C14.309 7.88861 14.338 7.74349 14.4019 7.60998C14.4251 7.55773 14.4483 7.51129 14.4542 7.51129C14.46 7.51129 14.4483 7.55193 14.4309 7.59837C14.3845 7.72607 14.3787 7.90603 14.4077 8.1092C14.4483 8.37042 14.4658 8.40525 14.7444 8.6897C14.8721 8.82321 15.0231 8.99155 15.0811 9.06121L15.1798 9.18892L15.0811 9.09604C14.9592 8.97995 14.6806 8.75936 14.6167 8.73033C14.5761 8.70711 14.5703 8.70711 14.5412 8.73614C14.518 8.75936 14.5122 8.79419 14.5122 8.96253C14.5064 9.22375 14.4716 9.38629 14.3845 9.55464C14.338 9.64171 14.3322 9.62429 14.3729 9.52561C14.4019 9.45015 14.4077 9.41532 14.4077 9.1657C14.4077 8.66067 14.3497 8.53877 13.9955 8.33559C13.9085 8.28335 13.7575 8.20789 13.6704 8.16725C13.5776 8.12662 13.5079 8.09179 13.5137 8.09179C13.5253 8.08018 13.8678 8.17886 14.0013 8.23691C14.2045 8.31818 14.2394 8.32399 14.2626 8.31818C14.28 8.30077 14.2916 8.25433 14.2974 8.1092Z" fill="white"/>
<path d="M9.84474 7.72603C9.8099 8.11496 9.96665 8.63741 10.2105 8.97409C10.402 9.23532 10.6981 9.43849 10.9187 9.46171C11.0638 9.47332 11.1045 9.42688 11.0406 9.334C10.9477 9.20629 10.8374 9.00312 10.8084 8.91605C10.791 8.8638 10.7504 8.70126 10.7213 8.56194C10.6226 8.08594 10.5181 7.89437 10.2859 7.75505C10.1989 7.70281 10.0189 7.63315 9.9144 7.61574L9.85635 7.60413L9.84474 7.72603Z" fill="white"/>
<path d="M14.0012 11.4996C12.8518 11.0352 12.4454 10.6347 12.4454 9.95553C12.4454 9.85684 12.4512 9.77557 12.4512 9.77557C12.4551 9.77557 12.4745 9.79105 12.5024 9.8134C12.5164 9.82458 12.5325 9.83749 12.5499 9.85104C12.7821 10.0368 13.0434 10.1181 13.769 10.2226C14.1928 10.2864 14.4366 10.3328 14.6572 10.4083C15.3597 10.6405 15.7951 11.1165 15.8996 11.7609C15.9286 11.9466 15.9112 12.3007 15.8647 12.4865C15.8241 12.6316 15.708 12.8986 15.679 12.9044C15.6732 12.9044 15.6615 12.8754 15.6615 12.829C15.6499 12.5852 15.528 12.353 15.3248 12.173C15.081 11.964 14.7675 11.8073 14.0012 11.4996Z" fill="white"/>
<path d="M13.1305 11.4474C13.1479 11.4939 13.1769 11.6042 13.1885 11.6912C13.2814 12.2369 12.997 12.6839 12.4222 12.8638C12.3642 12.8871 12.132 12.9335 11.9056 12.9683C11.447 13.0496 11.238 13.1018 11.0348 13.2005C10.8897 13.2702 10.7097 13.3747 10.7213 13.3863C10.7271 13.3921 10.7619 13.3805 10.7968 13.3689C11.058 13.276 11.3483 13.2295 11.7837 13.2063C11.9295 13.1966 12.0915 13.1828 12.1813 13.1752L12.2249 13.1715C12.6138 13.1193 12.8867 13.0032 13.0957 12.7884C13.2118 12.6665 13.2814 12.5562 13.3395 12.3994C13.3743 12.3008 13.3801 12.2601 13.3801 12.086C13.3801 11.906 13.3801 11.8712 13.3395 11.7609C13.2872 11.6158 13.2292 11.5113 13.1537 11.4242L13.1015 11.3604L13.1305 11.4474Z" fill="white"/>
<path d="M13.7168 12.6263C13.5659 12.2954 13.5311 11.982 13.6123 11.6859C13.624 11.6569 13.6356 11.6279 13.6472 11.6279C13.6588 11.6279 13.6936 11.6453 13.7284 11.6685C13.7981 11.7149 13.9432 11.7962 14.3148 11.9994C14.785 12.2548 15.052 12.4522 15.2378 12.6786C15.4004 12.8759 15.499 13.1023 15.5455 13.381C15.5745 13.5377 15.5571 13.915 15.5165 14.0718C15.3887 14.5652 15.0985 14.9599 14.6747 15.1863C14.6108 15.2211 14.5586 15.2444 14.5528 15.2444C14.547 15.2444 14.5702 15.1863 14.605 15.1166C14.7444 14.8206 14.7618 14.5361 14.6573 14.2169C14.5934 14.0195 14.4599 13.7815 14.1929 13.381C13.8736 12.9166 13.7981 12.7947 13.7168 12.6263Z" fill="white"/>
<path d="M10.8374 13.7055C10.3497 13.7868 9.82146 14.0422 9.39187 14.4021L9.26996 14.5182L9.38026 14.5356C9.96078 14.6227 10.1175 14.704 10.5239 15.1219C10.7561 15.3599 10.8374 15.4122 11.0289 15.4644C11.3134 15.5399 11.5921 15.4064 11.6907 15.151C11.7314 15.0349 11.7256 14.8491 11.6791 14.7562C11.563 14.5298 11.2205 14.4602 11.058 14.6227C10.9245 14.7562 10.9651 14.9652 11.1334 15C11.1491 15.0026 11.1578 15.0041 11.1583 15.0027C11.1588 15.0011 11.1473 14.9953 11.1218 14.9826C11.0464 14.9478 11.0115 14.9013 11.0115 14.8259C11.0057 14.6459 11.2089 14.553 11.3947 14.6343C11.534 14.6982 11.5863 14.7794 11.5863 14.9188C11.5863 15.1335 11.4005 15.3019 11.1857 15.2729C11.0696 15.2554 10.9303 15.1858 10.8548 15.0987C10.669 14.8897 10.7387 14.5472 11.0057 14.4195C11.2089 14.3208 11.476 14.3499 11.6849 14.4834C11.923 14.6401 12.0274 14.7794 12.2306 15.2496C12.3003 15.4064 12.3816 15.5747 12.4222 15.6328C12.6138 15.923 12.8518 16.0681 13.1304 16.0681C13.2872 16.0681 13.4033 16.0449 13.5484 15.9694C13.6529 15.9172 13.8097 15.8127 13.798 15.8011C13.798 15.7965 13.7692 15.8064 13.7314 15.8193L13.6994 15.8301C13.3917 15.9462 13.0782 15.9404 12.8982 15.8069C12.7821 15.7198 12.6892 15.5573 12.6428 15.3483L12.6371 15.3152C12.6261 15.2514 12.6035 15.1209 12.5848 14.9942C12.5209 14.5937 12.457 14.4137 12.3177 14.2047C12.1726 13.99 11.8939 13.8158 11.5863 13.7345C11.3947 13.6823 11.0464 13.6707 10.8374 13.7055Z" fill="white"/>
<path fill-rule="evenodd" clip-rule="evenodd" d="M10.1583 10.6063C10.1989 10.4554 10.3324 10.3045 10.4718 10.2638C10.5646 10.2348 10.7446 10.2522 10.8317 10.2987C11 10.3857 11.1219 10.5773 11.0929 10.7166C11.0639 10.885 10.791 11.0243 10.4718 11.0243C10.3092 11.0243 10.2512 11.0011 10.1873 10.9198C10.1467 10.8675 10.1351 10.6992 10.1583 10.6063ZM10.7852 10.3567C10.8723 10.4089 10.8897 10.4844 10.8433 10.5541C10.8085 10.6005 10.704 10.647 10.6285 10.647C10.5124 10.647 10.3905 10.5657 10.3905 10.4902C10.3905 10.3393 10.6285 10.258 10.7852 10.3567Z" fill="white"/>
<path d="M12.1133 21C12.1133 16.0294 16.1427 12 21.1133 12C26.0838 12 30.1133 16.0294 30.1133 21C30.1133 25.9706 26.0838 30 21.1133 30C16.1427 30 12.1133 25.9706 12.1133 21Z" fill="white"/>
<path fill-rule="evenodd" clip-rule="evenodd" d="M20.7326 12C18.9993 12.0999 17.3987 12.6903 16.0656 13.6331H26.4516C25.1184 12.6903 23.5178 12.0999 21.7845 12H21.5076H20.7326ZM14.3057 15.2657C13.893 15.7672 13.5355 16.3149 13.2382 16.8987L24.0605 16.8988H29.279C28.9816 16.3151 28.6244 15.7673 28.2114 15.2658L24.2144 15.2657H14.3057ZM12.1504 20.1809C12.1995 19.6202 12.3008 19.0747 12.4486 18.5483H29.7656C29.9135 19.0746 30.0147 19.6202 30.064 20.1809H12.1504ZM12.1538 21.8143C12.2059 22.3753 12.3109 22.9208 12.4617 23.4469H29.7527C29.9037 22.9208 30.0085 22.3752 30.0606 21.8143H12.1538ZM14.1925 26.7129C13.7747 26.212 13.412 25.6642 13.1102 25.08H24.4614L29.1041 25.08C28.8023 25.6643 28.4396 26.212 28.0218 26.7129H23.6433L14.1925 26.7129ZM20.7266 29.969L20.7539 29.97L20.7811 29.971C20.8894 29.9749 20.9979 29.9775 21.1071 29.9775C23.0138 29.9775 24.7805 29.3734 26.2356 28.3463L23.3454 28.3462H15.9788C17.3363 29.3046 18.9657 29.8945 20.7266 29.969Z" fill="#F44336"/>
<path d="M20.922 12.0046C16.3131 12.0984 12.5566 15.6569 12.1523 20.1834H20.9221V12.0046H20.922Z" fill="#283991"/>
<path d="M13.9129 17.0851L14.05 17.5061H14.4939L14.1348 17.7664L14.2719 18.1877L13.9129 17.9273L13.5541 18.1877L13.691 17.7664L13.332 17.5061H13.7759L13.9129 17.0851Z" fill="#EFEFEF"/>
<path d="M13.9129 18.5725L14.05 18.9938H14.4939L14.1348 19.2541L14.2719 19.6754L13.9129 19.4149L13.5541 19.6754L13.691 19.2541L13.332 18.9938H13.7759L13.9129 18.5725Z" fill="#EFEFEF"/>
<path d="M15.4037 14.8534L15.5408 15.2746H15.9846L15.6255 15.5351L15.7626 15.9561L15.4037 15.6959L15.0447 15.9561L15.1818 15.5351L14.8226 15.2746H15.2665L15.4037 14.8534Z" fill="#EFEFEF"/>
<path d="M15.4037 16.3411L15.5408 16.7623H15.9846L15.6255 17.0224L15.7626 17.4438L15.4037 17.1836L15.0447 17.4438L15.1818 17.0224L14.8226 16.7623H15.2665L15.4037 16.3411Z" fill="#EFEFEF"/>
<path d="M15.4037 17.8288L15.5408 18.2501H15.9846L15.6255 18.5101L15.7626 18.9314L15.4037 18.671L15.0447 18.9314L15.1818 18.5101L14.8226 18.2501H15.2665L15.4037 17.8288Z" fill="#EFEFEF"/>
<path d="M12.7811 18.9314L12.6439 18.5101L13.003 18.2499H12.5593L12.5493 18.2192C12.5006 18.3696 12.4566 18.5218 12.416 18.6756L12.4223 18.671L12.7811 18.9314Z" fill="#EFEFEF"/>
<path d="M13.5541 16.7001L13.9129 16.4396L14.2719 16.7001L14.1348 16.2788L14.4938 16.0183H14.0499L13.9128 15.5973L13.7758 16.0183H13.6122C13.5818 16.0642 13.5524 16.1104 13.5229 16.157L13.691 16.2788L13.5541 16.7001Z" fill="#EFEFEF"/>
<path d="M15.4037 14.2082L15.7626 14.4684L15.6256 14.0474L15.9844 13.787H15.7281C15.5104 13.9494 15.3003 14.1213 15.0985 14.3026L15.0444 14.4684L15.4037 14.2082Z" fill="#EFEFEF"/>
<path d="M16.5355 13.7247L16.8946 13.4643L17.2534 13.7247L17.1164 13.3034L17.4752 13.0432H17.0315L17.0128 12.9865C16.8625 13.0632 16.7136 13.143 16.5682 13.2279L16.6724 13.3034L16.5355 13.7247Z" fill="#EFEFEF"/>
<path d="M16.8945 14.1097L17.0316 14.5306H17.4754L17.1163 14.7911L17.2534 15.2124L16.8945 14.9519L16.5355 15.2124L16.6726 14.7911L16.3134 14.5306H16.7573L16.8945 14.1097Z" fill="#EFEFEF"/>
<path d="M16.8945 15.5974L17.0316 16.0183H17.4754L17.1163 16.2788L17.2534 16.7001L16.8945 16.4396L16.5355 16.7001L16.6726 16.2788L16.3134 16.0183H16.7573L16.8945 15.5974Z" fill="#EFEFEF"/>
<path d="M16.8945 17.0851L17.0316 17.5061H17.4754L17.1163 17.7664L17.2534 18.1877L16.8945 17.9273L16.5355 18.1877L16.6726 17.7664L16.3134 17.5061H16.7573L16.8945 17.0851Z" fill="#EFEFEF"/>
<path d="M16.8945 18.5725L17.0316 18.9938H17.4754L17.1163 19.2541L17.2534 19.6754L16.8945 19.4149L16.5355 19.6754L16.6726 19.2541L16.3134 18.9938H16.7573L16.8945 18.5725Z" fill="#EFEFEF"/>
<path d="M18.3853 13.3658L18.5224 13.7869H18.9662L18.6073 14.0474L18.7442 14.4684L18.3853 14.2082L18.0262 14.4684L18.1634 14.0474L17.8043 13.7869H18.2481L18.3853 13.3658Z" fill="#EFEFEF"/>
<path d="M18.3853 14.8534L18.5224 15.2746H18.9662L18.6073 15.5351L18.7442 15.9561L18.3853 15.6959L18.0262 15.9561L18.1634 15.5351L17.8043 15.2746H18.2481L18.3853 14.8534Z" fill="#EFEFEF"/>
<path d="M18.3853 16.3411L18.5224 16.7623H18.9662L18.6073 17.0224L18.7442 17.4438L18.3853 17.1836L18.0262 17.4438L18.1634 17.0224L17.8043 16.7623H18.2481L18.3853 16.3411Z" fill="#EFEFEF"/>
<path d="M18.3853 17.8288L18.5224 18.2501H18.9662L18.6073 18.5101L18.7442 18.9314L18.3853 18.671L18.0262 18.9314L18.1634 18.5101L17.8043 18.2501H18.2481L18.3853 17.8288Z" fill="#EFEFEF"/>
<path d="M19.8762 12.6221L20.0132 13.0432H20.457L20.098 13.3034L20.235 13.7247L19.8762 13.4642L19.517 13.7247L19.6542 13.3034L19.2951 13.0432H19.7388L19.8762 12.6221Z" fill="#EFEFEF"/>
<path d="M19.8762 14.1097L20.0132 14.5306H20.457L20.098 14.7911L20.235 15.2124L19.8762 14.9519L19.517 15.2124L19.6542 14.7911L19.2951 14.5306H19.7388L19.8762 14.1097Z" fill="#EFEFEF"/>
<path d="M19.8762 15.5974L20.0132 16.0183H20.457L20.098 16.2788L20.235 16.7001L19.8762 16.4396L19.517 16.7001L19.6542 16.2788L19.2951 16.0183H19.7388L19.8762 15.5974Z" fill="#EFEFEF"/>
<path d="M19.8762 17.0851L20.0132 17.5061H20.457L20.098 17.7664L20.235 18.1877L19.8762 17.9273L19.517 18.1877L19.6542 17.7664L19.2951 17.5061H19.7388L19.8762 17.0851Z" fill="#EFEFEF"/>
<path d="M19.8762 18.5725L20.0132 18.9938H20.457L20.098 19.2541L20.235 19.6754L19.8762 19.4149L19.517 19.6754L19.6542 19.2541L19.2951 18.9938H19.7388L19.8762 18.5725Z" fill="#EFEFEF"/>
<path d="M42.5213 11.228V17.276C42.5213 18.2093 42.6939 18.9187 43.0393 19.404C43.3846 19.88 43.9913 20.118 44.8593 20.118C45.7273 20.118 46.3339 19.88 46.6793 19.404C47.0246 18.9187 47.1973 18.2093 47.1973 17.276V11.228H48.3733V16.996C48.3733 17.7053 48.3079 18.3213 48.1773 18.844C48.0559 19.3667 47.8553 19.8007 47.5753 20.146C47.2953 20.4913 46.9266 20.748 46.4693 20.916C46.0213 21.084 45.4706 21.168 44.8173 21.168C44.1639 21.168 43.6133 21.084 43.1653 20.916C42.7266 20.748 42.3719 20.4913 42.1013 20.146C41.8306 19.8007 41.6346 19.3667 41.5133 18.844C41.4013 18.3213 41.3453 17.7053 41.3453 16.996V11.228H42.5213ZM53.2696 15.036L52.0936 12.866H52.0516V21H50.9036V11.228H52.2616L55.8316 17.192L57.0076 19.362H57.0496V11.228H58.1976V21H56.8396L53.2696 15.036ZM60.34 21V20.02H61.712V12.208H60.34V11.228H64.26V12.208H62.888V20.02H64.26V21H60.34ZM65.2315 23.114L68.8855 10.64H69.8935L66.2395 23.114H65.2315ZM72.8728 11.228V17.276C72.8728 18.2093 73.0455 18.9187 73.3908 19.404C73.7362 19.88 74.3428 20.118 75.2108 20.118C76.0788 20.118 76.6855 19.88 77.0308 19.404C77.3762 18.9187 77.5488 18.2093 77.5488 17.276V11.228H78.7248V16.996C78.7248 17.7053 78.6595 18.3213 78.5288 18.844C78.4075 19.3667 78.2068 19.8007 77.9268 20.146C77.6468 20.4913 77.2782 20.748 76.8208 20.916C76.3728 21.084 75.8222 21.168 75.1688 21.168C74.5155 21.168 73.9648 21.084 73.5168 20.916C73.0782 20.748 72.7235 20.4913 72.4528 20.146C72.1822 19.8007 71.9862 19.3667 71.8648 18.844C71.7528 18.3213 71.6968 17.7053 71.6968 16.996V11.228H72.8728ZM83.9991 21.168C83.2058 21.168 82.5291 21.0187 81.9691 20.72C81.4091 20.412 80.9331 19.992 80.5411 19.46L81.4091 18.732C81.7545 19.1893 82.1371 19.5393 82.5571 19.782C82.9771 20.0153 83.4718 20.132 84.0411 20.132C84.7411 20.132 85.2731 19.964 85.6371 19.628C86.0105 19.292 86.1971 18.844 86.1971 18.284C86.1971 17.8173 86.0571 17.458 85.7771 17.206C85.4971 16.954 85.0351 16.7533 84.3911 16.604L83.5931 16.422C82.6971 16.2167 82.0111 15.9087 81.5351 15.498C81.0685 15.078 80.8351 14.49 80.8351 13.734C80.8351 13.3047 80.9145 12.922 81.0731 12.586C81.2318 12.25 81.4511 11.97 81.7311 11.746C82.0205 11.522 82.3611 11.354 82.7531 11.242C83.1545 11.1207 83.5931 11.06 84.0691 11.06C84.8065 11.06 85.4365 11.1953 85.9591 11.466C86.4911 11.7367 86.9391 12.1333 87.3031 12.656L86.4211 13.3C86.1505 12.9267 85.8238 12.6327 85.4411 12.418C85.0585 12.2033 84.5825 12.096 84.0131 12.096C83.3878 12.096 82.8931 12.2313 82.5291 12.502C82.1745 12.7633 81.9971 13.16 81.9971 13.692C81.9971 14.1587 82.1465 14.5133 82.4451 14.756C82.7531 14.9893 83.2151 15.176 83.8311 15.316L84.6291 15.498C85.5905 15.7127 86.2858 16.0393 86.7151 16.478C87.1445 16.9167 87.3591 17.5 87.3591 18.228C87.3591 18.676 87.2798 19.082 87.1211 19.446C86.9718 19.81 86.7525 20.118 86.4631 20.37C86.1738 20.622 85.8191 20.818 85.3991 20.958C84.9885 21.098 84.5218 21.168 83.9991 21.168ZM89.3899 11.228H92.6659C93.2726 11.228 93.8232 11.3307 94.3179 11.536C94.8126 11.7413 95.2326 12.0493 95.5779 12.46C95.9326 12.8613 96.2032 13.37 96.3899 13.986C96.5766 14.5927 96.6699 15.302 96.6699 16.114C96.6699 16.926 96.5766 17.64 96.3899 18.256C96.2032 18.8627 95.9326 19.3713 95.5779 19.782C95.2326 20.1833 94.8126 20.4867 94.3179 20.692C93.8232 20.8973 93.2726 21 92.6659 21H89.3899V11.228ZM92.6659 19.964C93.0672 19.964 93.4359 19.8987 93.7719 19.768C94.1079 19.628 94.3972 19.4273 94.6399 19.166C94.8826 18.9047 95.0692 18.5873 95.1999 18.214C95.3399 17.8313 95.4099 17.3973 95.4099 16.912V15.316C95.4099 14.8307 95.3399 14.4013 95.1999 14.028C95.0692 13.6453 94.8826 13.3233 94.6399 13.062C94.3972 12.8007 94.1079 12.6047 93.7719 12.474C93.4359 12.334 93.0672 12.264 92.6659 12.264H90.5659V19.964H92.6659Z" fill="#333333"/>
</svg>
