<svg width="32" height="32" viewBox="0 0 32 32" fill="none" xmlns="http://www.w3.org/2000/svg">
<path fill-rule="evenodd" clip-rule="evenodd" d="M26.6894 17.2425C26.8471 16.6114 26.3698 16 25.7192 16H6.28077C5.6302 16 5.15284 16.6114 5.31062 17.2425L7.81062 27.2425C7.92192 27.6877 8.3219 28 8.78077 28H23.2192C23.6781 28 24.0781 27.6877 24.1894 27.2425L26.6894 17.2425ZM11.0001 19C10.4478 19 10.0001 19.4477 10.0001 20V24C10.0001 24.5523 10.4478 25 11.0001 25C11.5524 25 12.0001 24.5523 12.0001 24V20C12.0001 19.4477 11.5524 19 11.0001 19ZM15.0001 20C15.0001 19.4477 15.4478 19 16.0001 19C16.5524 19 17.0001 19.4477 17.0001 20V24C17.0001 24.5523 16.5524 25 16.0001 25C15.4478 25 15.0001 24.5523 15.0001 24V20ZM21.0001 19C20.4478 19 20.0001 19.4477 20.0001 20V24C20.0001 24.5523 20.4478 25 21.0001 25C21.5524 25 22.0001 24.5523 22.0001 24V20C22.0001 19.4477 21.5524 19 21.0001 19Z" fill="#D2D3DA"/>
<path fill-rule="evenodd" clip-rule="evenodd" d="M15.914 7.39517L13.1852 12H18.8148L16.086 7.39517C16.0473 7.32981 15.9527 7.32981 15.914 7.39517ZM21.8 12L17.5145 4.85749C17.1953 4.32551 16.6204 4 16 4C15.3796 4 14.8047 4.32551 14.4855 4.85749L10.2 12H5C4.44772 12 4 12.4477 4 13C4 13.5523 4.44772 14 5 14H9H12H20H23H27C27.5523 14 28 13.5523 28 13C28 12.4477 27.5523 12 27 12H21.8Z" fill="#D2D3DA"/>
<mask id="mask0_10467_276840" style="mask-type:alpha" maskUnits="userSpaceOnUse" x="17" y="0" width="15" height="10">
<path d="M30.75 0H18.25C17.5596 0 17 0.559644 17 1.25V8.75C17 9.44036 17.5596 10 18.25 10H30.75C31.4404 10 32 9.44036 32 8.75V1.25C32 0.559644 31.4404 0 30.75 0Z" fill="white"/>
</mask>
<g mask="url(#mask0_10467_276840)">
<path d="M30.75 0H18.25C17.5596 0 17 0.559644 17 1.25V8.75C17 9.44036 17.5596 10 18.25 10H30.75C31.4404 10 32 9.44036 32 8.75V1.25C32 0.559644 31.4404 0 30.75 0Z" fill="white"/>
<path d="M32 9.18C32 9.63287 31.6329 10 31.18 10H17.82C17.3671 10 17 9.63287 17 9.18H32ZM32 7.65V8.415H17V7.65H32ZM32 6.12V6.885H17V6.12H32ZM32 4.59V5.355H17V4.59H32ZM32 3.06V3.825H17V3.06H32ZM32 1.53V2.295H17V1.53H32ZM31.235 0C31.6311 0 31.9569 0.301027 31.9961 0.686783L32 0.765H17.4302C17.4302 0.342502 17.7727 0 18.1952 0H31.235Z" fill="#F44336"/>
<path d="M18.25 0H24.1875V5.355H17V1.25C17 0.559644 17.5596 0 18.25 0Z" fill="#0D47A1"/>
<path d="M17.6835 4.26028L17.743 4.43628H17.9275C17.938 4.43654 17.9472 4.44333 17.9506 4.45328C17.9539 4.46323 17.9507 4.47421 17.9425 4.48078L17.7925 4.59128L17.849 4.76728C17.8525 4.77758 17.8488 4.78895 17.8399 4.7952C17.831 4.80144 17.819 4.80107 17.8105 4.79428L17.6605 4.68678L17.5105 4.79428C17.5019 4.80033 17.4904 4.80033 17.4818 4.79429C17.4732 4.78824 17.4693 4.77744 17.472 4.76728L17.5335 4.59228L17.3835 4.48178C17.3753 4.47521 17.3721 4.46423 17.3755 4.45428C17.3788 4.44433 17.388 4.43754 17.3985 4.43728H17.5835L17.643 4.26128C17.6465 4.23628 17.6765 4.23628 17.6835 4.26028ZM23.3306 4.24431C23.3405 4.24407 23.3491 4.25071 23.3515 4.26028L23.411 4.43628H23.5955C23.606 4.43654 23.6152 4.44333 23.6186 4.45328C23.6219 4.46323 23.6187 4.47421 23.6105 4.48078L23.4605 4.59128L23.517 4.76728C23.5205 4.77758 23.5168 4.78895 23.5079 4.7952C23.499 4.80144 23.487 4.80107 23.4785 4.79428L23.3285 4.68678L23.1785 4.79428C23.1699 4.80033 23.1584 4.80033 23.1498 4.79429C23.1412 4.78824 23.1373 4.77744 23.14 4.76728L23.2015 4.59228L23.0515 4.48178C23.0433 4.47521 23.0401 4.46423 23.0435 4.45428C23.0468 4.44433 23.056 4.43754 23.0665 4.43728H23.251L23.3105 4.26128C23.3124 4.2516 23.3208 4.24455 23.3306 4.24431ZM21.9126 4.24431C21.9225 4.24407 21.9311 4.25071 21.9335 4.26028L21.993 4.43628H22.1775C22.188 4.43654 22.1972 4.44333 22.2006 4.45328C22.2039 4.46323 22.2007 4.47421 22.1925 4.48078L22.0425 4.59128L22.099 4.76728C22.1025 4.77758 22.0988 4.78895 22.0899 4.7952C22.081 4.80144 22.069 4.80107 22.0605 4.79428L21.9105 4.68678L21.7605 4.79428C21.7519 4.80033 21.7404 4.80033 21.7318 4.79429C21.7232 4.78824 21.7193 4.77744 21.722 4.76728L21.7835 4.59228L21.6335 4.48178C21.6253 4.47521 21.6221 4.46423 21.6255 4.45428C21.6288 4.44433 21.638 4.43754 21.6485 4.43728H21.833L21.8925 4.26128C21.8944 4.2516 21.9028 4.24455 21.9126 4.24431ZM19.101 4.26028L19.1605 4.43628H19.345C19.3555 4.43654 19.3647 4.44333 19.3681 4.45328C19.3714 4.46323 19.3682 4.47421 19.36 4.48078L19.21 4.59128L19.2665 4.76728C19.27 4.77758 19.2663 4.78895 19.2574 4.7952C19.2485 4.80144 19.2365 4.80107 19.228 4.79428L19.078 4.68678L18.928 4.79428C18.9194 4.80033 18.9079 4.80033 18.8993 4.79429C18.8907 4.78824 18.8868 4.77744 18.8895 4.76728L18.951 4.59228L18.801 4.48178C18.7928 4.47521 18.7896 4.46423 18.793 4.45428C18.7963 4.44433 18.8055 4.43754 18.816 4.43728H19.001L19.0605 4.26128C19.061 4.23628 19.094 4.23628 19.101 4.26028ZM20.519 4.26028L20.5785 4.43628H20.763C20.7735 4.43654 20.7827 4.44333 20.7861 4.45328C20.7894 4.46323 20.7862 4.47421 20.778 4.48078L20.628 4.59128L20.6845 4.76728C20.688 4.77758 20.6843 4.78895 20.6754 4.7952C20.6665 4.80144 20.6545 4.80107 20.646 4.79428L20.496 4.68678L20.346 4.79428C20.3374 4.80033 20.3259 4.80033 20.3173 4.79429C20.3087 4.78824 20.3048 4.77744 20.3075 4.76728L20.369 4.59228L20.219 4.48178C20.2108 4.47521 20.2076 4.46423 20.211 4.45428C20.2143 4.44433 20.2235 4.43754 20.234 4.43728H20.419L20.4785 4.26128C20.479 4.23628 20.512 4.23628 20.519 4.26028ZM18.3925 3.79528L18.452 3.97128H18.6365C18.647 3.97154 18.6562 3.97833 18.6596 3.98828C18.6629 3.99823 18.6597 4.00921 18.6515 4.01578L18.5015 4.12628L18.558 4.30228C18.5615 4.31258 18.5578 4.32395 18.5489 4.3302C18.54 4.33644 18.528 4.33607 18.5195 4.32928L18.3695 4.22178L18.2195 4.32928C18.2109 4.33533 18.1994 4.33533 18.1908 4.32929C18.1822 4.32324 18.1783 4.31244 18.181 4.30228L18.2375 4.12628L18.0875 4.01578C18.0793 4.00921 18.0761 3.99823 18.0795 3.98828C18.0828 3.97833 18.092 3.97154 18.1025 3.97128H18.2925L18.352 3.79528C18.3555 3.77128 18.3855 3.77128 18.3925 3.79528ZM22.631 3.77536C22.6381 3.77947 22.6425 3.78706 22.6425 3.79528L22.702 3.97128H22.8865C22.897 3.97154 22.9062 3.97833 22.9096 3.98828C22.9129 3.99823 22.9097 4.00921 22.9015 4.01578L22.7515 4.12628L22.808 4.30228C22.8115 4.31258 22.8078 4.32395 22.7989 4.3302C22.79 4.33644 22.778 4.33607 22.7695 4.32928L22.6195 4.22178L22.4695 4.32928C22.4609 4.33533 22.4494 4.33533 22.4408 4.32929C22.4322 4.32324 22.4283 4.31244 22.431 4.30228L22.4875 4.12628L22.3375 4.01578C22.3293 4.00921 22.3261 3.99823 22.3295 3.98828C22.3328 3.97833 22.342 3.97154 22.3525 3.97128H22.537L22.5965 3.79528C22.5965 3.78706 22.6009 3.77947 22.608 3.77536C22.6151 3.77125 22.6239 3.77125 22.631 3.77536ZM21.228 3.79528L21.2875 3.97128H21.472C21.4825 3.97154 21.4917 3.97833 21.4951 3.98828C21.4984 3.99823 21.4952 4.00921 21.487 4.01578L21.337 4.12628L21.3935 4.30228C21.397 4.31258 21.3933 4.32395 21.3844 4.3302C21.3755 4.33644 21.3635 4.33607 21.355 4.32928L21.205 4.22178L21.055 4.32928C21.0464 4.33533 21.0349 4.33533 21.0263 4.32929C21.0177 4.32324 21.0138 4.31244 21.0165 4.30228L21.073 4.12628L20.923 4.01578C20.9148 4.00921 20.9116 3.99823 20.915 3.98828C20.9183 3.97833 20.9275 3.97154 20.938 3.97128H21.1225L21.182 3.79528C21.188 3.77128 21.221 3.77128 21.228 3.79528ZM19.81 3.79528L19.8695 3.97128H20.054C20.0645 3.97154 20.0737 3.97833 20.0771 3.98828C20.0804 3.99823 20.0772 4.00921 20.069 4.01578L19.919 4.12628L19.9755 4.30228C19.979 4.31258 19.9753 4.32395 19.9664 4.3302C19.9575 4.33644 19.9455 4.33607 19.937 4.32928L19.787 4.22178L19.637 4.32928C19.6284 4.33533 19.6169 4.33533 19.6083 4.32929C19.5997 4.32324 19.5958 4.31244 19.5985 4.30228L19.655 4.12628L19.505 4.01578C19.4968 4.00921 19.4936 3.99823 19.497 3.98828C19.5003 3.97833 19.5095 3.97154 19.52 3.97128H19.71L19.7695 3.79528C19.77 3.77128 19.803 3.77128 19.81 3.79528ZM19.101 3.34478L19.1605 3.52078H19.345C19.3555 3.52104 19.3647 3.52783 19.3681 3.53778C19.3714 3.54773 19.3682 3.55871 19.36 3.56528L19.21 3.67578L19.2665 3.85178C19.27 3.86208 19.2663 3.87345 19.2574 3.8797C19.2485 3.88594 19.2365 3.88557 19.228 3.87878L19.078 3.77128L18.928 3.87878C18.9194 3.88483 18.9079 3.88483 18.8993 3.87879C18.8907 3.87274 18.8868 3.86194 18.8895 3.85178L18.946 3.67578L18.796 3.56528C18.7878 3.55871 18.7846 3.54773 18.788 3.53778C18.7913 3.52783 18.8005 3.52104 18.811 3.52078H19.001L19.0605 3.34478C19.061 3.32428 19.094 3.32428 19.101 3.34478ZM23.3515 3.34478L23.411 3.52078H23.5955C23.606 3.52104 23.6152 3.52783 23.6186 3.53778C23.6219 3.54773 23.6187 3.55871 23.6105 3.56528L23.4605 3.67578L23.517 3.85178C23.5205 3.86208 23.5168 3.87345 23.5079 3.8797C23.499 3.88594 23.487 3.88557 23.4785 3.87878L23.3285 3.77128L23.1785 3.87878C23.1699 3.88483 23.1584 3.88483 23.1498 3.87879C23.1412 3.87274 23.1373 3.86194 23.14 3.85178L23.1965 3.67578L23.0465 3.56528C23.0383 3.55871 23.0351 3.54773 23.0385 3.53778C23.0418 3.52783 23.051 3.52104 23.0615 3.52078H23.246L23.3055 3.34478C23.3145 3.32428 23.3475 3.32428 23.3515 3.34478ZM17.6835 3.34478L17.743 3.52078H17.9275C17.938 3.52104 17.9472 3.52783 17.9506 3.53778C17.9539 3.54773 17.9507 3.55871 17.9425 3.56528L17.7925 3.67578L17.849 3.85178C17.8525 3.86208 17.8488 3.87345 17.8399 3.8797C17.831 3.88594 17.819 3.88557 17.8105 3.87878L17.6605 3.77128L17.5105 3.87878C17.5019 3.88483 17.4904 3.88483 17.4818 3.87879C17.4732 3.87274 17.4693 3.86194 17.472 3.85178L17.5285 3.67578L17.3785 3.56528C17.3703 3.55871 17.3671 3.54773 17.3705 3.53778C17.3738 3.52783 17.383 3.52104 17.3935 3.52078H17.5835L17.643 3.34478C17.6465 3.32428 17.6765 3.32428 17.6835 3.34478ZM21.9335 3.34478L21.993 3.52078H22.1775C22.188 3.52104 22.1972 3.52783 22.2006 3.53778C22.2039 3.54773 22.2007 3.55871 22.1925 3.56528L22.0425 3.67578L22.099 3.85178C22.1025 3.86208 22.0988 3.87345 22.0899 3.8797C22.081 3.88594 22.069 3.88557 22.0605 3.87878L21.9105 3.77128L21.7605 3.87878C21.7519 3.88483 21.7404 3.88483 21.7318 3.87879C21.7232 3.87274 21.7193 3.86194 21.722 3.85178L21.7785 3.67578L21.6285 3.56528C21.6203 3.55871 21.6171 3.54773 21.6205 3.53778C21.6238 3.52783 21.633 3.52104 21.6435 3.52078H21.828L21.8875 3.34478C21.8965 3.32428 21.9295 3.32428 21.9335 3.34478ZM20.519 3.34478L20.5785 3.52078H20.763C20.7735 3.52104 20.7827 3.52783 20.7861 3.53778C20.7894 3.54773 20.7862 3.55871 20.778 3.56528L20.628 3.67578L20.6845 3.85178C20.688 3.86208 20.6843 3.87345 20.6754 3.8797C20.6665 3.88594 20.6545 3.88557 20.646 3.87878L20.496 3.77128L20.346 3.87878C20.3374 3.88483 20.3259 3.88483 20.3173 3.87879C20.3087 3.87274 20.3048 3.86194 20.3075 3.85178L20.364 3.67578L20.214 3.56528C20.2058 3.55871 20.2026 3.54773 20.206 3.53778C20.2093 3.52783 20.2185 3.52104 20.229 3.52078H20.419L20.4785 3.34478C20.479 3.32428 20.512 3.32428 20.519 3.34478ZM18.3925 2.88028L18.452 3.05628H18.6365C18.647 3.05654 18.6562 3.06333 18.6596 3.07328C18.6629 3.08323 18.6597 3.09421 18.6515 3.10078L18.5015 3.21128L18.558 3.38728C18.5615 3.39758 18.5578 3.40895 18.5489 3.4152C18.54 3.42144 18.528 3.42107 18.5195 3.41428L18.3695 3.30678L18.2195 3.41428C18.2109 3.42033 18.1994 3.42033 18.1908 3.41429C18.1822 3.40824 18.1783 3.39744 18.181 3.38728L18.2425 3.21228L18.0925 3.10178C18.0843 3.09521 18.0811 3.08423 18.0845 3.07428C18.0878 3.06434 18.097 3.05754 18.1075 3.05728H18.2925L18.352 2.88128C18.3555 2.85628 18.3855 2.85628 18.3925 2.88028ZM22.6195 2.85728C22.6322 2.85728 22.6425 2.86757 22.6425 2.88028L22.702 3.05628H22.8865C22.897 3.05654 22.9062 3.06333 22.9096 3.07328C22.9129 3.08323 22.9097 3.09421 22.9015 3.10078L22.7515 3.21128L22.808 3.38728C22.8115 3.39758 22.8078 3.40895 22.7989 3.4152C22.79 3.42144 22.778 3.42107 22.7695 3.41428L22.6195 3.30678L22.4695 3.41428C22.4609 3.42033 22.4494 3.42033 22.4408 3.41429C22.4322 3.40824 22.4283 3.39744 22.431 3.38728L22.4875 3.21128L22.3375 3.10078C22.3293 3.09421 22.3261 3.08323 22.3295 3.07328C22.3328 3.06333 22.342 3.05654 22.3525 3.05628H22.537L22.5965 2.88028C22.5965 2.86757 22.6068 2.85728 22.6195 2.85728ZM21.228 2.88028L21.2875 3.05628H21.472C21.4825 3.05654 21.4917 3.06333 21.4951 3.07328C21.4984 3.08323 21.4952 3.09421 21.487 3.10078L21.337 3.21128L21.3935 3.38728C21.397 3.39758 21.3933 3.40895 21.3844 3.4152C21.3755 3.42144 21.3635 3.42107 21.355 3.41428L21.205 3.30678L21.055 3.41428C21.0464 3.42033 21.0349 3.42033 21.0263 3.41429C21.0177 3.40824 21.0138 3.39744 21.0165 3.38728L21.073 3.21128L20.923 3.10078C20.9148 3.09421 20.9116 3.08323 20.915 3.07328C20.9183 3.06333 20.9275 3.05654 20.938 3.05628H21.1225L21.182 2.88028C21.188 2.85628 21.221 2.85628 21.228 2.88028ZM19.81 2.88028L19.8695 3.05628H20.054C20.0645 3.05654 20.0737 3.06333 20.0771 3.07328C20.0804 3.08323 20.0772 3.09421 20.069 3.10078L19.919 3.21128L19.9755 3.38728C19.979 3.39758 19.9753 3.40895 19.9664 3.4152C19.9575 3.42144 19.9455 3.42107 19.937 3.41428L19.787 3.30678L19.637 3.41428C19.6284 3.42033 19.6169 3.42033 19.6083 3.41429C19.5997 3.40824 19.5958 3.39744 19.5985 3.38728L19.66 3.21228L19.51 3.10178C19.5018 3.09521 19.4986 3.08423 19.502 3.07428C19.5053 3.06434 19.5145 3.05754 19.525 3.05728H19.71L19.7695 2.88128C19.77 2.85628 19.803 2.85628 19.81 2.88028ZM19.101 2.43278L19.1605 2.60878H19.345C19.3555 2.60904 19.3647 2.61584 19.3681 2.62578C19.3714 2.63573 19.3682 2.64671 19.36 2.65328L19.21 2.76378L19.2665 2.93978C19.27 2.95008 19.2663 2.96145 19.2574 2.9677C19.2485 2.97394 19.2365 2.97357 19.228 2.96678L19.078 2.85928L18.928 2.96678C18.9194 2.97283 18.9079 2.97283 18.8993 2.96679C18.8907 2.96074 18.8868 2.94994 18.8895 2.93978L18.951 2.76478L18.801 2.65428C18.7928 2.64771 18.7896 2.63673 18.793 2.62678C18.7963 2.61683 18.8055 2.61004 18.816 2.60978H19.001L19.0605 2.43378C19.061 2.40878 19.094 2.40878 19.101 2.43278ZM23.3306 2.41681C23.3405 2.41657 23.3491 2.42321 23.3515 2.43278L23.411 2.60878H23.5955C23.606 2.60904 23.6152 2.61584 23.6186 2.62578C23.6219 2.63573 23.6187 2.64671 23.6105 2.65328L23.4605 2.76378L23.517 2.93978C23.5205 2.95008 23.5168 2.96145 23.5079 2.9677C23.499 2.97394 23.487 2.97357 23.4785 2.96678L23.3285 2.85928L23.1785 2.96678C23.1699 2.97283 23.1584 2.97283 23.1498 2.96679C23.1412 2.96074 23.1373 2.94994 23.14 2.93978L23.2015 2.76478L23.0515 2.65428C23.0433 2.64771 23.0401 2.63673 23.0435 2.62678C23.0468 2.61683 23.056 2.61004 23.0665 2.60978H23.251L23.3105 2.43378C23.3124 2.4241 23.3208 2.41705 23.3306 2.41681ZM21.9105 2.40978C21.9232 2.40978 21.9335 2.42007 21.9335 2.43278L21.993 2.60878H22.1775C22.188 2.60904 22.1972 2.61584 22.2006 2.62578C22.2039 2.63573 22.2007 2.64671 22.1925 2.65328L22.0425 2.76378L22.099 2.93978C22.1025 2.95008 22.0988 2.96145 22.0899 2.9677C22.081 2.97394 22.069 2.97357 22.0605 2.96678L21.9105 2.85928L21.7605 2.96678C21.7519 2.97283 21.7404 2.97283 21.7318 2.96679C21.7232 2.96074 21.7193 2.94994 21.722 2.93978L21.7785 2.76378L21.6285 2.65328C21.6203 2.64671 21.6171 2.63573 21.6205 2.62578C21.6238 2.61584 21.633 2.60904 21.6435 2.60878H21.828L21.8875 2.43278C21.8875 2.42007 21.8978 2.40978 21.9105 2.40978ZM17.6835 2.43278L17.743 2.60878H17.9275C17.938 2.60904 17.9472 2.61584 17.9506 2.62578C17.9539 2.63573 17.9507 2.64671 17.9425 2.65328L17.7925 2.76378L17.849 2.93978C17.8525 2.95008 17.8488 2.96145 17.8399 2.9677C17.831 2.97394 17.819 2.97357 17.8105 2.96678L17.6605 2.85928L17.5105 2.96678C17.5019 2.97283 17.4904 2.97283 17.4818 2.96679C17.4732 2.96074 17.4693 2.94994 17.472 2.93978L17.5335 2.76478L17.3835 2.65428C17.3753 2.64771 17.3721 2.63673 17.3755 2.62678C17.3788 2.61683 17.388 2.61004 17.3985 2.60978H17.5835L17.643 2.43378C17.6465 2.40878 17.6765 2.40878 17.6835 2.43278ZM20.519 2.43278L20.5785 2.60878H20.763C20.7735 2.60904 20.7827 2.61584 20.7861 2.62578C20.7894 2.63573 20.7862 2.64671 20.778 2.65328L20.628 2.76378L20.6845 2.93978C20.688 2.95008 20.6843 2.96145 20.6754 2.9677C20.6665 2.97394 20.6545 2.97357 20.646 2.96678L20.496 2.85928L20.346 2.96678C20.3374 2.97283 20.3259 2.97283 20.3173 2.96679C20.3087 2.96074 20.3048 2.94994 20.3075 2.93978L20.364 2.76378L20.214 2.65328C20.2058 2.64671 20.2026 2.63573 20.206 2.62578C20.2093 2.61584 20.2185 2.60904 20.229 2.60878H20.419L20.4785 2.43278C20.479 2.40878 20.512 2.40878 20.519 2.43278ZM18.3925 1.96428L18.452 2.14028H18.6365C18.647 2.14054 18.6562 2.14733 18.6596 2.15728C18.6629 2.16723 18.6597 2.17821 18.6515 2.18478L18.5015 2.29528L18.558 2.47128C18.5615 2.48158 18.5578 2.49295 18.5489 2.4992C18.54 2.50544 18.528 2.50507 18.5195 2.49828L18.3695 2.39078L18.2195 2.49828C18.2109 2.50433 18.1994 2.50433 18.1908 2.49829C18.1822 2.49224 18.1783 2.48144 18.181 2.47128L18.2375 2.29528L18.0875 2.18478C18.0793 2.17821 18.0761 2.16723 18.0795 2.15728C18.0828 2.14733 18.092 2.14054 18.1025 2.14028H18.2925L18.352 1.96428C18.3555 1.94378 18.3855 1.94378 18.3925 1.96428ZM21.228 1.96428L21.2875 2.14028H21.472C21.4825 2.14054 21.4917 2.14733 21.4951 2.15728C21.4984 2.16723 21.4952 2.17821 21.487 2.18478L21.337 2.29528L21.3935 2.47128C21.397 2.48158 21.3933 2.49295 21.3844 2.4992C21.3755 2.50544 21.3635 2.50507 21.355 2.49828L21.205 2.39078L21.055 2.49828C21.0464 2.50433 21.0349 2.50433 21.0263 2.49829C21.0177 2.49224 21.0138 2.48144 21.0165 2.47128L21.073 2.29528L20.923 2.18478C20.9148 2.17821 20.9116 2.16723 20.915 2.15728C20.9183 2.14733 20.9275 2.14054 20.938 2.14028H21.1225L21.182 1.96428C21.188 1.94378 21.221 1.94378 21.228 1.96428ZM19.81 1.96428L19.8695 2.14028H20.054C20.0645 2.14054 20.0737 2.14733 20.0771 2.15728C20.0804 2.16723 20.0772 2.17821 20.069 2.18478L19.919 2.29528L19.9755 2.47128C19.979 2.48158 19.9753 2.49295 19.9664 2.4992C19.9575 2.50544 19.9455 2.50507 19.937 2.49828L19.787 2.39078L19.637 2.49828C19.6284 2.50433 19.6169 2.50433 19.6083 2.49829C19.5997 2.49224 19.5958 2.48144 19.5985 2.47128L19.655 2.29528L19.505 2.18478C19.4968 2.17821 19.4936 2.16723 19.497 2.15728C19.5003 2.14733 19.5095 2.14054 19.52 2.14028H19.71L19.7695 1.96428C19.77 1.94378 19.803 1.94378 19.81 1.96428ZM22.6425 1.96428L22.702 2.14028H22.8865C22.897 2.14054 22.9062 2.14733 22.9096 2.15728C22.9129 2.16723 22.9097 2.17821 22.9015 2.18478L22.7515 2.29528L22.808 2.47128C22.8115 2.48158 22.8078 2.49295 22.7989 2.4992C22.79 2.50544 22.778 2.50507 22.7695 2.49828L22.6195 2.39078L22.4695 2.49828C22.4609 2.50433 22.4494 2.50433 22.4408 2.49829C22.4322 2.49224 22.4283 2.48144 22.431 2.47128L22.4875 2.29528L22.3375 2.18478C22.3293 2.17821 22.3261 2.16723 22.3295 2.15728C22.3328 2.14733 22.342 2.14054 22.3525 2.14028H22.537L22.5965 1.96428C22.6055 1.94378 22.6385 1.94378 22.6425 1.96428ZM20.519 1.51728L20.5785 1.69328H20.763C20.7735 1.69354 20.7827 1.70033 20.7861 1.71028C20.7894 1.72023 20.7862 1.73121 20.778 1.73778L20.628 1.84828L20.6845 2.02428C20.688 2.03458 20.6843 2.04595 20.6754 2.0522C20.6665 2.05844 20.6545 2.05807 20.646 2.05128L20.496 1.94378L20.346 2.05128C20.3374 2.05733 20.3259 2.05733 20.3173 2.05129C20.3087 2.04524 20.3048 2.03444 20.3075 2.02428L20.364 1.84828L20.214 1.73778C20.2058 1.73121 20.2026 1.72023 20.206 1.71028C20.2093 1.70033 20.2185 1.69354 20.229 1.69328H20.419L20.4785 1.51728C20.479 1.49678 20.512 1.49678 20.519 1.51728ZM17.6835 1.51728L17.743 1.69328H17.9275C17.938 1.69354 17.9472 1.70033 17.9506 1.71028C17.9539 1.72023 17.9507 1.73121 17.9425 1.73778L17.7925 1.84828L17.849 2.02428C17.8525 2.03458 17.8488 2.04595 17.8399 2.0522C17.831 2.05844 17.819 2.05807 17.8105 2.05128L17.6605 1.94378L17.5105 2.05128C17.5019 2.05733 17.4904 2.05733 17.4818 2.05129C17.4732 2.04524 17.4693 2.03444 17.472 2.02428L17.5285 1.84828L17.3785 1.73778C17.3703 1.73121 17.3671 1.72023 17.3705 1.71028C17.3738 1.70033 17.383 1.69354 17.3935 1.69328H17.5835L17.643 1.51728C17.6465 1.49678 17.6765 1.49678 17.6835 1.51728ZM19.103 1.51728L19.1625 1.69328H19.348C19.3585 1.69354 19.3677 1.70033 19.3711 1.71028C19.3744 1.72023 19.3712 1.73121 19.363 1.73778L19.213 1.84828L19.2695 2.02428C19.273 2.03458 19.2693 2.04595 19.2604 2.0522C19.2515 2.05844 19.2395 2.05807 19.231 2.05128L19.081 1.94378L18.931 2.05128C18.9224 2.05733 18.9109 2.05733 18.9023 2.05129C18.8937 2.04524 18.8898 2.03444 18.8925 2.02428L18.949 1.84828L18.799 1.73778C18.7908 1.73121 18.7876 1.72023 18.791 1.71028C18.7943 1.70033 18.8035 1.69354 18.814 1.69328H18.998L19.0575 1.51728C19.061 1.49678 19.094 1.49678 19.103 1.51728ZM21.9335 1.51728L21.993 1.69328H22.1775C22.188 1.69354 22.1972 1.70033 22.2006 1.71028C22.2039 1.72023 22.2007 1.73121 22.1925 1.73778L22.0425 1.84828L22.099 2.02428C22.1025 2.03458 22.0988 2.04595 22.0899 2.0522C22.081 2.05844 22.069 2.05807 22.0605 2.05128L21.9105 1.94378L21.7605 2.05128C21.7519 2.05733 21.7404 2.05733 21.7318 2.05129C21.7232 2.04524 21.7193 2.03444 21.722 2.02428L21.7785 1.84828L21.6285 1.73778C21.6203 1.73121 21.6171 1.72023 21.6205 1.71028C21.6238 1.70033 21.633 1.69354 21.6435 1.69328H21.828L21.8875 1.51728C21.8965 1.49678 21.9295 1.49678 21.9335 1.51728ZM23.3515 1.51728L23.411 1.69328H23.5955C23.606 1.69354 23.6152 1.70033 23.6186 1.71028C23.6219 1.72023 23.6187 1.73121 23.6105 1.73778L23.4605 1.84828L23.517 2.02428C23.5205 2.03458 23.5168 2.04595 23.5079 2.0522C23.499 2.05844 23.487 2.05807 23.4785 2.05128L23.3285 1.94378L23.1785 2.05128C23.1699 2.05733 23.1584 2.05733 23.1498 2.05129C23.1412 2.04524 23.1373 2.03444 23.14 2.02428L23.1965 1.84828L23.0465 1.73778C23.0383 1.73121 23.0351 1.72023 23.0385 1.71028C23.0418 1.70033 23.051 1.69354 23.0615 1.69328H23.246L23.3055 1.51728C23.3145 1.49678 23.3475 1.49678 23.3515 1.51728ZM21.228 1.05228L21.2875 1.22828H21.472C21.4825 1.22854 21.4917 1.23533 21.4951 1.24528C21.4984 1.25523 21.4952 1.26621 21.487 1.27278L21.337 1.38328L21.3935 1.55928C21.397 1.56958 21.3933 1.58095 21.3844 1.5872C21.3755 1.59344 21.3635 1.59307 21.355 1.58628L21.205 1.47878L21.055 1.58628C21.0464 1.59233 21.0349 1.59233 21.0263 1.58629C21.0177 1.58024 21.0138 1.56944 21.0165 1.55928L21.073 1.38328L20.923 1.27278C20.9148 1.26621 20.9116 1.25523 20.915 1.24528C20.9183 1.23533 20.9275 1.22854 20.938 1.22828H21.1225L21.182 1.05228C21.188 1.02828 21.221 1.02828 21.228 1.05228ZM19.81 1.05228L19.8695 1.22828H20.054C20.0645 1.22854 20.0737 1.23533 20.0771 1.24528C20.0804 1.25523 20.0772 1.26621 20.069 1.27278L19.919 1.38328L19.9755 1.55928C19.979 1.56958 19.9753 1.58095 19.9664 1.5872C19.9575 1.59344 19.9455 1.59307 19.937 1.58628L19.787 1.47878L19.637 1.58628C19.6284 1.59233 19.6169 1.59233 19.6083 1.58629C19.5997 1.58024 19.5958 1.56944 19.5985 1.55928L19.66 1.38428L19.51 1.27378C19.5018 1.26721 19.4986 1.25623 19.502 1.24628C19.5053 1.23633 19.5145 1.22954 19.525 1.22928H19.71L19.7695 1.05328C19.77 1.02828 19.803 1.02828 19.81 1.05228ZM18.3925 1.05228L18.452 1.22828H18.6365C18.647 1.22854 18.6562 1.23533 18.6596 1.24528C18.6629 1.25523 18.6597 1.26621 18.6515 1.27278L18.5015 1.38328L18.558 1.55928C18.5615 1.56958 18.5578 1.58095 18.5489 1.5872C18.54 1.59344 18.528 1.59307 18.5195 1.58628L18.3695 1.47878L18.2195 1.58628C18.2109 1.59233 18.1994 1.59233 18.1908 1.58629C18.1822 1.58024 18.1783 1.56944 18.181 1.55928L18.2425 1.38428L18.0925 1.27378C18.0843 1.26721 18.0811 1.25623 18.0845 1.24628C18.0878 1.23633 18.097 1.22954 18.1075 1.22928H18.2925L18.352 1.05328C18.3555 1.02828 18.3855 1.02828 18.3925 1.05228ZM22.631 1.03236C22.6381 1.03647 22.6425 1.04406 22.6425 1.05228L22.702 1.22828H22.8865C22.897 1.22854 22.9062 1.23533 22.9096 1.24528C22.9129 1.25523 22.9097 1.26621 22.9015 1.27278L22.7515 1.38328L22.808 1.55928C22.8115 1.56958 22.8078 1.58095 22.7989 1.5872C22.79 1.59344 22.778 1.59307 22.7695 1.58628L22.6195 1.47878L22.4695 1.58628C22.4609 1.59233 22.4494 1.59233 22.4408 1.58629C22.4322 1.58024 22.4283 1.56944 22.431 1.55928L22.4875 1.38328L22.3375 1.27278C22.3293 1.26621 22.3261 1.25523 22.3295 1.24528C22.3328 1.23533 22.342 1.22854 22.3525 1.22828H22.537L22.5965 1.05228C22.5965 1.04406 22.6009 1.03647 22.608 1.03236C22.6151 1.02825 22.6239 1.02825 22.631 1.03236ZM17.6835 0.605275L17.743 0.781275H17.9275C17.938 0.781542 17.9472 0.788335 17.9506 0.798282C17.9539 0.808229 17.9507 0.819211 17.9425 0.825775L17.7925 0.936275L17.849 1.11228C17.8525 1.12258 17.8488 1.13395 17.8399 1.1402C17.831 1.14644 17.819 1.14607 17.8105 1.13928L17.6605 1.03178L17.5105 1.13928C17.5019 1.14533 17.4904 1.14533 17.4818 1.13929C17.4732 1.13324 17.4693 1.12244 17.472 1.11228L17.5335 0.937275L17.3835 0.826775C17.3753 0.820211 17.3721 0.809229 17.3755 0.799282C17.3788 0.789335 17.388 0.782542 17.3985 0.782275H17.5835L17.643 0.606275C17.6465 0.581275 17.6765 0.581275 17.6835 0.605275ZM19.101 0.605275L19.1605 0.781275H19.345C19.3555 0.781542 19.3647 0.788335 19.3681 0.798282C19.3714 0.808229 19.3682 0.819211 19.36 0.825775L19.21 0.936275L19.2665 1.11228C19.27 1.12258 19.2663 1.13395 19.2574 1.1402C19.2485 1.14644 19.2365 1.14607 19.228 1.13928L19.078 1.03178L18.928 1.13928C18.9194 1.14533 18.9079 1.14533 18.8993 1.13929C18.8907 1.13324 18.8868 1.12244 18.8895 1.11228L18.951 0.937275L18.801 0.826775C18.7928 0.820211 18.7896 0.809229 18.793 0.799282C18.7963 0.789335 18.8055 0.782542 18.816 0.782275H19.001L19.0605 0.606275C19.061 0.581275 19.094 0.581275 19.101 0.605275ZM20.519 0.605275L20.5785 0.781275H20.763C20.7735 0.781542 20.7827 0.788335 20.7861 0.798282C20.7894 0.808229 20.7862 0.819211 20.778 0.825775L20.628 0.936275L20.6845 1.11228C20.688 1.12258 20.6843 1.13395 20.6754 1.1402C20.6665 1.14644 20.6545 1.14607 20.646 1.13928L20.496 1.03178L20.346 1.13928C20.3374 1.14533 20.3259 1.14533 20.3173 1.13929C20.3087 1.13324 20.3048 1.12244 20.3075 1.11228L20.364 0.936275L20.214 0.825775C20.2058 0.819211 20.2026 0.808229 20.206 0.798282C20.2093 0.788335 20.2185 0.781542 20.229 0.781275H20.419L20.4785 0.605275C20.479 0.581275 20.512 0.581275 20.519 0.605275ZM21.922 0.585357C21.9291 0.589465 21.9335 0.597058 21.9335 0.605275L21.993 0.781275H22.1775C22.188 0.781542 22.1972 0.788335 22.2006 0.798282C22.2039 0.808229 22.2007 0.819211 22.1925 0.825775L22.0425 0.936275L22.099 1.11228C22.1025 1.12258 22.0988 1.13395 22.0899 1.1402C22.081 1.14644 22.069 1.14607 22.0605 1.13928L21.9105 1.03178L21.7605 1.13928C21.7519 1.14533 21.7404 1.14533 21.7318 1.13929C21.7232 1.13324 21.7193 1.12244 21.722 1.11228L21.7785 0.936275L21.6285 0.825775C21.6203 0.819211 21.6171 0.808229 21.6205 0.798282C21.6238 0.788335 21.633 0.781542 21.6435 0.781275H21.828L21.8875 0.605275C21.8875 0.597058 21.8919 0.589465 21.899 0.585357C21.9061 0.581248 21.9149 0.581248 21.922 0.585357ZM23.3306 0.589308C23.3405 0.589068 23.3491 0.595708 23.3515 0.605275L23.411 0.781275H23.5955C23.606 0.781542 23.6152 0.788335 23.6186 0.798282C23.6219 0.808229 23.6187 0.819211 23.6105 0.825775L23.4605 0.936275L23.517 1.11228C23.5205 1.12258 23.5168 1.13395 23.5079 1.1402C23.499 1.14644 23.487 1.14607 23.4785 1.13928L23.3285 1.03178L23.1785 1.13928C23.1699 1.14533 23.1584 1.14533 23.1498 1.13929C23.1412 1.13324 23.1373 1.12244 23.14 1.11228L23.2015 0.937275L23.0515 0.826775C23.0433 0.820211 23.0401 0.809229 23.0435 0.799282C23.0468 0.789335 23.056 0.782542 23.0665 0.782275H23.251L23.3105 0.606275C23.3124 0.596605 23.3208 0.589548 23.3306 0.589308Z" fill="#F5F5F5"/>
<path fill-rule="evenodd" clip-rule="evenodd" d="M30.75 0.625H18.25C17.9048 0.625 17.625 0.904822 17.625 1.25V8.75C17.625 9.09518 17.9048 9.375 18.25 9.375H30.75C31.0952 9.375 31.375 9.09518 31.375 8.75V1.25C31.375 0.904822 31.0952 0.625 30.75 0.625ZM18.25 0C17.5596 0 17 0.559644 17 1.25V8.75C17 9.44036 17.5596 10 18.25 10H30.75C31.4404 10 32 9.44036 32 8.75V1.25C32 0.559644 31.4404 0 30.75 0H18.25Z" fill="black" fill-opacity="0.04"/>
</g>
</svg>
