<svg xmlns="http://www.w3.org/2000/svg" xmlns:xlink="http://www.w3.org/1999/xlink" width="32" height="24" viewBox="0 0 32 24">
    <defs>
        <rect id="atmz4iu1wa" width="24" height="16" x="0" y="0" rx="2"/>
        <rect id="qiioo37h6c" width="24" height="16" x="0" y="0" rx="2"/>
        <rect id="wlkz21l59e" width="24" height="16" x="0" y="0" rx="2"/>
    </defs>
    <g fill="none" fill-rule="evenodd">
        <g>
            <g transform="translate(-86 -1059) translate(86 1059)">
                <g>
                    <g>
                        <mask id="x6501kefyb" fill="#fff">
                            <use xlink:href="#atmz4iu1wa"/>
                        </mask>
                        <use fill="#FFF" fill-rule="nonzero" xlink:href="#atmz4iu1wa"/>
                        <path fill="#F44336" fill-rule="nonzero" d="M24 14.688c0 .725-.587 1.312-1.312 1.312H1.312C.587 16 0 15.413 0 14.688h24zm0-2.448v1.224H0V12.24h24zm0-2.448v1.224H0V9.792h24zm0-2.448v1.224H0V7.344h24zm0-2.448V6.12H0V4.896h24zm0-2.448v1.224H0V2.448h24zM22.776 0c.634 0 1.155.482 1.218 1.099l.006.125H.688C.688.548 1.236 0 1.912 0h20.864z" mask="url(#x6501kefyb)"/>
                        <path fill="#0D47A1" fill-rule="nonzero" d="M2 0h9.5v8.568H0V2C0 .895.895 0 2 0z" mask="url(#x6501kefyb)"/>
                        <path fill="#F5F5F5" fill-rule="nonzero" d="M1.094 6.817l.095.281h.295c.017 0 .032.012.037.028.005.016 0 .033-.013.044l-.24.176.09.282c.006.016 0 .035-.014.045-.014.01-.034.01-.047-.002l-.24-.172-.24.172c-.014.01-.032.01-.046 0-.014-.01-.02-.027-.016-.043l.099-.28-.24-.177C.6 7.161.595 7.143.6 7.127.606 7.111.62 7.1.638 7.1h.296l.095-.282c.005-.04.053-.04.065-.001zm9.035-.026c.016 0 .03.01.033.026l.096.281h.295c.017 0 .031.012.037.028.005.016 0 .033-.013.044l-.24.176.09.282c.006.016 0 .035-.014.045-.015.01-.034.01-.047-.002l-.24-.172-.24.172c-.014.01-.033.01-.046 0-.014-.01-.02-.027-.016-.043l.098-.28-.24-.177c-.013-.01-.018-.028-.012-.044.005-.016.02-.027.036-.027h.296l.095-.282c.003-.015.016-.026.032-.027zm-2.269 0c.016 0 .03.01.034.026l.095.281h.295c.017 0 .032.012.037.028.005.016 0 .033-.013.044l-.24.176.09.282c.006.016 0 .035-.014.045-.014.01-.034.01-.047-.002l-.24-.172-.24.172c-.014.01-.032.01-.046 0-.014-.01-.02-.027-.016-.043l.099-.28-.24-.177c-.014-.01-.019-.028-.013-.044.005-.016.02-.027.037-.027h.295l.095-.282c.003-.015.016-.026.032-.027zm-4.498.026l.095.281h.295c.017 0 .032.012.037.028.005.016 0 .033-.013.044l-.24.176.09.282c.006.016 0 .035-.014.045-.014.01-.034.01-.047-.002l-.24-.172-.24.172c-.014.01-.032.01-.046 0-.014-.01-.02-.027-.016-.043l.099-.28-.24-.177c-.014-.01-.019-.028-.013-.044.005-.016.02-.027.037-.027h.296l.095-.282c0-.04.053-.04.065-.001zm2.268 0l.096.281h.295c.017 0 .031.012.037.028.005.016 0 .033-.013.044l-.24.176.09.282c.006.016 0 .035-.014.045-.015.01-.034.01-.047-.002l-.24-.172-.24.172c-.014.01-.033.01-.046 0-.014-.01-.02-.027-.016-.043l.098-.28-.24-.177c-.013-.01-.018-.028-.012-.044.005-.016.02-.027.036-.027h.296l.096-.282c0-.04.053-.04.064-.001zm-3.402-.744l.095.281h.295c.017 0 .032.012.037.028.006.016 0 .033-.013.044l-.24.176.09.282c.006.016 0 .035-.014.045-.014.01-.033.01-.047-.002l-.24-.172-.24.172c-.014.01-.032.01-.046 0-.014-.01-.02-.027-.015-.043l.09-.282-.24-.176c-.013-.01-.018-.028-.013-.044.005-.016.02-.027.037-.028h.304l.095-.281c.006-.039.054-.039.065 0zM9.01 6.04c.011.007.018.019.018.032l.095.281h.295c.017 0 .032.012.037.028.006.016 0 .033-.013.044l-.24.176.09.282c.006.016 0 .035-.014.045-.014.01-.033.01-.047-.002l-.24-.172-.24.172c-.014.01-.032.01-.046 0-.014-.01-.02-.027-.015-.043l.09-.282-.24-.176c-.013-.01-.018-.028-.013-.044.005-.016.02-.027.037-.028h.295l.095-.281c0-.013.007-.025.019-.032.011-.007.025-.007.037 0zm-2.245.032l.095.281h.295c.017 0 .032.012.037.028.005.016 0 .033-.013.044l-.24.176.09.282c.006.016 0 .035-.014.045-.014.01-.033.01-.047-.002l-.24-.172-.24.172c-.014.01-.032.01-.046 0-.014-.01-.02-.027-.016-.043l.09-.282-.24-.176c-.012-.01-.017-.028-.012-.044.005-.016.02-.027.037-.028h.295l.095-.281c.01-.039.063-.039.074 0zm-2.269 0l.095.281h.295c.017 0 .032.012.037.028.006.016 0 .033-.013.044l-.24.176.09.282c.006.016 0 .035-.014.045-.014.01-.033.01-.047-.002l-.24-.172-.24.172c-.014.01-.032.01-.046 0-.014-.01-.02-.027-.015-.043l.09-.282-.24-.176c-.013-.01-.018-.028-.013-.044.005-.016.02-.027.037-.028h.304l.095-.281c.001-.039.054-.039.065 0zm-1.134-.721l.095.282h.295c.017 0 .032.01.037.027.005.016 0 .033-.013.044l-.24.177.09.281c.006.017 0 .035-.014.045-.014.01-.034.01-.047-.002l-.24-.172-.24.172c-.014.01-.032.01-.046 0-.014-.01-.02-.027-.016-.043l.09-.281-.24-.177c-.013-.01-.018-.028-.012-.044.005-.016.02-.027.037-.027h.304l.095-.282c0-.033.053-.033.065 0zm6.8 0l.096.282h.295c.017 0 .031.01.037.027.005.016 0 .033-.013.044l-.24.177.09.281c.006.017 0 .035-.014.045-.015.01-.034.01-.047-.002l-.24-.172-.24.172c-.014.01-.033.01-.046 0-.014-.01-.02-.027-.016-.043l.09-.281-.24-.177c-.013-.01-.018-.028-.012-.044.005-.016.02-.027.036-.027h.296l.095-.282c.014-.033.067-.033.073 0zm-9.068 0l.095.282h.295c.017 0 .032.01.037.027.005.016 0 .033-.013.044l-.24.177.09.281c.006.017 0 .035-.014.045-.014.01-.034.01-.047-.002l-.24-.172-.24.172c-.014.01-.032.01-.046 0-.014-.01-.02-.027-.016-.043l.09-.281-.24-.177c-.013-.01-.018-.028-.012-.044.005-.016.02-.027.037-.027h.304l.095-.282c.005-.033.053-.033.065 0zm6.8 0l.095.282h.295c.017 0 .032.01.037.027.005.016 0 .033-.013.044l-.24.177.09.281c.006.017 0 .035-.014.045-.014.01-.034.01-.047-.002l-.24-.172-.24.172c-.014.01-.032.01-.046 0-.014-.01-.02-.027-.016-.043l.09-.281-.24-.177c-.013-.01-.018-.028-.012-.044.005-.016.02-.027.037-.027h.295l.095-.282c.014-.033.067-.033.074 0zm-2.264 0l.096.282h.295c.017 0 .031.01.037.027.005.016 0 .033-.013.044l-.24.177.09.281c.006.017 0 .035-.014.045-.015.01-.034.01-.047-.002l-.24-.172-.24.172c-.014.01-.033.01-.046 0-.014-.01-.02-.027-.016-.043l.09-.281-.24-.177c-.013-.01-.018-.028-.012-.044.005-.016.02-.027.036-.027h.304l.096-.282c0-.033.053-.033.064 0zm-3.402-.743l.095.281h.295c.017 0 .032.012.037.028.006.016 0 .033-.013.044l-.24.176.09.282c.006.016 0 .035-.014.045-.014.01-.033.01-.047-.002l-.24-.172-.24.172c-.014.01-.032.01-.046 0-.014-.01-.02-.027-.015-.043l.098-.28-.24-.177c-.013-.01-.018-.028-.013-.044.005-.016.02-.027.037-.027h.296l.095-.282c.006-.04.054-.04.065-.001zm6.763-.037c.02 0 .037.016.037.037l.095.281h.295c.017 0 .032.012.037.028.006.016 0 .033-.013.044l-.24.176.09.282c.006.016 0 .035-.014.045-.014.01-.033.01-.047-.002l-.24-.172-.24.172c-.014.01-.032.01-.046 0-.014-.01-.02-.027-.015-.043l.09-.282-.24-.176c-.013-.01-.018-.028-.013-.044.005-.016.02-.027.037-.028h.295l.095-.281c0-.02.017-.037.037-.037zm-2.226.037l.095.281h.295c.017 0 .032.012.037.028.005.016 0 .033-.013.044l-.24.176.09.282c.006.016 0 .035-.014.045-.014.01-.033.01-.047-.002l-.24-.172-.24.172c-.014.01-.032.01-.046 0-.014-.01-.02-.027-.016-.043l.09-.282-.24-.176c-.012-.01-.017-.028-.012-.044.005-.016.02-.027.037-.028h.295l.095-.281c.01-.039.063-.039.074 0zm-2.269 0l.095.281h.295c.017 0 .032.012.037.028.006.016 0 .033-.013.044l-.24.176.09.282c.006.016 0 .035-.014.045-.014.01-.033.01-.047-.002l-.24-.172-.24.172c-.014.01-.032.01-.046 0-.014-.01-.02-.027-.015-.043l.098-.28-.24-.177c-.013-.01-.018-.028-.013-.044.005-.016.02-.027.037-.027h.296l.095-.282c.001-.04.054-.04.065-.001zm-1.134-.716l.095.281h.295c.017 0 .032.012.037.028.005.016 0 .033-.013.044l-.24.176.09.282c.006.016 0 .035-.014.045-.014.01-.034.01-.047-.002l-.24-.172-.24.172c-.014.01-.032.01-.046 0-.014-.01-.02-.027-.016-.043l.099-.28-.24-.177c-.014-.01-.019-.028-.013-.044.005-.016.02-.027.037-.027h.296l.095-.282c0-.04.053-.04.065-.001zm6.767-.026c.016 0 .03.01.033.026l.096.281h.295c.017 0 .031.012.037.028.005.016 0 .033-.013.044l-.24.176.09.282c.006.016 0 .035-.014.045-.015.01-.034.01-.047-.002l-.24-.172-.24.172c-.014.01-.033.01-.046 0-.014-.01-.02-.027-.016-.043l.098-.28-.24-.177c-.013-.01-.018-.028-.012-.044.005-.016.02-.027.036-.027h.296l.095-.282c.003-.015.016-.026.032-.027zm-2.272-.011c.02 0 .037.016.037.037l.095.281h.295c.017 0 .032.012.037.028.005.016 0 .033-.013.044l-.24.176.09.282c.006.016 0 .035-.014.045-.014.01-.034.01-.047-.002l-.24-.172-.24.172c-.014.01-.032.01-.046 0-.014-.01-.02-.027-.016-.043l.09-.282-.24-.176c-.013-.01-.018-.028-.012-.044.005-.016.02-.027.037-.028h.295l.095-.281c0-.02.016-.037.037-.037zm-6.763.037l.095.281h.295c.017 0 .032.012.037.028.005.016 0 .033-.013.044l-.24.176.09.282c.006.016 0 .035-.014.045-.014.01-.034.01-.047-.002l-.24-.172-.24.172c-.014.01-.032.01-.046 0-.014-.01-.02-.027-.016-.043l.099-.28-.24-.177C.6 4.237.595 4.22.6 4.203c.005-.016.02-.027.037-.027h.296l.095-.282c.005-.04.053-.04.065-.001zm4.536 0l.096.281h.295c.017 0 .031.012.037.028.005.016 0 .033-.013.044l-.24.176.09.282c.006.016 0 .035-.014.045-.015.01-.034.01-.047-.002l-.24-.172-.24.172c-.014.01-.033.01-.046 0-.014-.01-.02-.027-.016-.043l.09-.282-.24-.176c-.013-.01-.018-.028-.012-.044.005-.016.02-.027.036-.028h.304l.096-.281c0-.039.053-.039.064 0zm-3.402-.75l.095.282h.295c.017 0 .032.011.037.027.006.016 0 .033-.013.044l-.24.177.09.281c.006.017 0 .035-.014.045-.014.01-.033.01-.047-.001l-.24-.172-.24.172c-.014.01-.032.01-.046 0-.014-.01-.02-.027-.015-.044l.09-.281-.24-.177c-.013-.01-.018-.028-.013-.044.005-.016.02-.027.037-.027h.304l.095-.282c.006-.033.054-.033.065 0zm4.537 0l.095.282h.295c.017 0 .032.011.037.027.005.016 0 .033-.013.044l-.24.177.09.281c.006.017 0 .035-.014.045-.014.01-.033.01-.047-.001l-.24-.172-.24.172c-.014.01-.032.01-.046 0-.014-.01-.02-.027-.016-.044l.09-.281-.24-.177c-.012-.01-.017-.028-.012-.044.005-.016.02-.027.037-.027h.295l.095-.282c.01-.033.063-.033.074 0zm-2.269 0l.095.282h.295c.017 0 .032.011.037.027.006.016 0 .033-.013.044l-.24.177.09.281c.006.017 0 .035-.014.045-.014.01-.033.01-.047-.001l-.24-.172-.24.172c-.014.01-.032.01-.046 0-.014-.01-.02-.027-.015-.044l.09-.281-.24-.177c-.013-.01-.018-.028-.013-.044.005-.016.02-.027.037-.027h.304l.095-.282c.001-.033.054-.033.065 0zm4.532 0l.095.282h.295c.017 0 .032.011.037.027.006.016 0 .033-.013.044l-.24.177.09.281c.006.017 0 .035-.014.045-.014.01-.033.01-.047-.001l-.24-.172-.24.172c-.014.01-.032.01-.046 0-.014-.01-.02-.027-.015-.044l.09-.281-.24-.177c-.013-.01-.018-.028-.013-.044.005-.016.02-.027.037-.027h.295l.095-.282c.015-.033.068-.033.074 0zM5.63 2.428l.096.282h.295c.017 0 .031.01.037.027.005.016 0 .033-.013.044l-.24.177.09.281c.006.017 0 .035-.014.045-.015.01-.034.01-.047-.002l-.24-.172-.24.172c-.014.01-.033.01-.046 0-.014-.01-.02-.027-.016-.043l.09-.281-.24-.177c-.013-.01-.018-.028-.012-.044.005-.016.02-.027.036-.027h.304l.096-.282c0-.033.053-.033.064 0zm-4.536 0l.095.282h.295c.017 0 .032.01.037.027.005.016 0 .033-.013.044l-.24.177.09.281c.006.017 0 .035-.014.045-.014.01-.034.01-.047-.002l-.24-.172-.24.172c-.014.01-.032.01-.046 0-.014-.01-.02-.027-.016-.043l.09-.281-.24-.177c-.013-.01-.018-.028-.012-.044.005-.016.02-.027.037-.027h.304l.095-.282c.005-.033.053-.033.065 0zm2.27 0l.096.282h.297c.017 0 .031.01.037.027.005.016 0 .033-.013.044l-.24.177.09.281c.006.017 0 .035-.014.045-.015.01-.034.01-.047-.002l-.24-.172-.24.172c-.014.01-.033.01-.046 0-.014-.01-.02-.027-.016-.043l.09-.281-.24-.177c-.013-.01-.018-.028-.012-.044.005-.016.02-.027.036-.027h.295l.095-.282c.006-.033.058-.033.073 0zm4.53 0l.095.282h.295c.017 0 .032.01.037.027.005.016 0 .033-.013.044l-.24.177.09.281c.006.017 0 .035-.014.045-.014.01-.034.01-.047-.002l-.24-.172-.24.172c-.014.01-.032.01-.046 0-.014-.01-.02-.027-.016-.043l.09-.281-.24-.177c-.013-.01-.018-.028-.012-.044.005-.016.02-.027.037-.027h.295l.095-.282c.014-.033.067-.033.074 0zm2.268 0l.096.282h.295c.017 0 .031.01.037.027.005.016 0 .033-.013.044l-.24.177.09.281c.006.017 0 .035-.014.045-.015.01-.034.01-.047-.002l-.24-.172-.24.172c-.014.01-.033.01-.046 0-.014-.01-.02-.027-.016-.043l.09-.281-.24-.177c-.013-.01-.018-.028-.012-.044.005-.016.02-.027.036-.027h.296l.095-.282c.014-.033.067-.033.073 0zm-3.397-.744l.095.282h.295c.017 0 .032.01.037.027.005.016 0 .033-.013.044l-.24.177.09.281c.006.017 0 .035-.014.045-.014.01-.033.01-.047-.002l-.24-.172-.24.172c-.014.01-.032.01-.046 0-.014-.01-.02-.027-.016-.043l.09-.281-.24-.177c-.012-.01-.017-.028-.012-.044.005-.016.02-.027.037-.027h.295l.095-.282c.01-.038.063-.038.074 0zm-2.269 0l.095.282h.295c.017 0 .032.01.037.027.006.016 0 .033-.013.044l-.24.177.09.281c.006.017 0 .035-.014.045-.014.01-.033.01-.047-.002l-.24-.172-.24.172c-.014.01-.032.01-.046 0-.014-.01-.02-.027-.015-.043l.098-.28-.24-.177c-.013-.01-.018-.028-.013-.044.005-.016.02-.026.037-.027h.296l.095-.281c.001-.04.054-.04.065-.002zm-2.268 0l.095.282h.295c.017 0 .032.01.037.027.006.016 0 .033-.013.044l-.24.177.09.281c.006.017 0 .035-.014.045-.014.01-.033.01-.047-.002l-.24-.172-.24.172c-.014.01-.032.01-.046 0-.014-.01-.02-.027-.015-.043l.098-.28-.24-.177c-.013-.01-.018-.028-.013-.044.005-.016.02-.026.037-.027h.296l.095-.281c.006-.04.054-.04.065-.002zm6.782-.032c.011.007.018.019.018.032l.095.282h.295c.017 0 .032.01.037.027.006.016 0 .033-.013.044l-.24.177.09.281c.006.017 0 .035-.014.045-.014.01-.033.01-.047-.002l-.24-.172-.24.172c-.014.01-.032.01-.046 0-.014-.01-.02-.027-.015-.043l.09-.281-.24-.177c-.013-.01-.018-.028-.013-.044.005-.016.02-.027.037-.027h.295l.095-.282c0-.013.007-.025.019-.032.011-.006.025-.006.037 0zM1.094.97l.095.281h.295c.017 0 .032.012.037.028.005.016 0 .033-.013.044l-.24.176.09.282c.006.016 0 .035-.014.045-.014.01-.034.01-.047-.002l-.24-.172-.24.172c-.014.01-.032.01-.046 0-.014-.01-.02-.027-.016-.043l.099-.28-.24-.177C.6 1.313.595 1.295.6 1.28c.005-.016.02-.027.037-.027h.296L1.029.97c.005-.04.053-.04.065-.001zm2.268 0l.095.281h.295c.017 0 .032.012.037.028.005.016 0 .033-.013.044l-.24.176.09.282c.006.016 0 .035-.014.045-.014.01-.034.01-.047-.002l-.24-.172-.24.172c-.014.01-.032.01-.046 0-.014-.01-.02-.027-.016-.043l.099-.28-.24-.177c-.014-.01-.019-.028-.013-.044.005-.016.02-.027.037-.027h.296L3.297.97c0-.04.053-.04.065-.001zm2.268 0l.096.281h.295c.017 0 .031.012.037.028.005.016 0 .033-.013.044l-.24.176.09.282c.006.016 0 .035-.014.045-.015.01-.034.01-.047-.002l-.24-.172-.24.172c-.014.01-.033.01-.046 0-.014-.01-.02-.027-.016-.043l.09-.282-.24-.176c-.013-.01-.018-.028-.012-.044.005-.016.02-.027.036-.028h.304L5.566.97c0-.039.053-.039.064 0zM7.875.937c.012.007.019.019.019.032l.095.281h.295c.017 0 .032.012.037.028.005.016 0 .033-.013.044l-.24.176.09.282c.006.016 0 .035-.014.045-.014.01-.034.01-.047-.002l-.24-.172-.24.172c-.014.01-.032.01-.046 0-.014-.01-.02-.027-.016-.043l.09-.282-.24-.176c-.013-.01-.018-.028-.012-.044.005-.016.02-.027.037-.028h.295L7.82.97c0-.013.007-.025.018-.032.012-.007.026-.007.037 0zm2.254.006c.016 0 .03.01.033.026l.096.281h.295c.017 0 .031.012.037.028.005.016 0 .033-.013.044l-.24.176.09.282c.006.016 0 .035-.014.045-.015.01-.034.01-.047-.002l-.24-.172-.24.172c-.014.01-.033.01-.046 0-.014-.01-.02-.027-.016-.043l.098-.28-.24-.177c-.013-.01-.018-.028-.012-.044.005-.016.02-.027.036-.027h.296l.095-.282c.003-.015.016-.026.032-.027z" mask="url(#x6501kefyb)"/>
                        <rect width="23" height="15" x=".5" y=".5" fill-rule="nonzero" stroke="#000" stroke-opacity=".04" mask="url(#x6501kefyb)" rx="1"/>
                    </g>
                    <rect width="23" height="15" x=".5" y=".5" stroke="#000" stroke-opacity=".04" rx="2"/>
                </g>
                <g transform="translate(8 8)">
                    <path fill="#072CB4" fill-rule="nonzero" d="M0 11h24v3c0 1.105-.895 2-2 2H2c-1.105 0-2-.895-2-2v-3z"/>
                    <path fill="#F44E46" fill-rule="nonzero" d="M2 0h20c1.105 0 2 .895 2 2v3H0V2C0 .895.895 0 2 0z"/>
                    <g>
                        <mask id="new1v54cxd" fill="#fff">
                            <use xlink:href="#qiioo37h6c"/>
                        </mask>
                        <path fill="#06A86E" fill-rule="nonzero" stroke="#FFF" d="M8.167 5.5L24.5 5.5 24.5 10.5 8.167 10.5 -0.5 17 -0.5 -1z" mask="url(#new1v54cxd)"/>
                    </g>
                    <g>
                        <mask id="eupctnsilf" fill="#fff">
                            <use xlink:href="#wlkz21l59e"/>
                        </mask>
                        <path fill="#262626" fill-rule="nonzero" stroke="#FFBF2E" d="M-1.5 2.96L4.8 8 -1.5 13.04z" mask="url(#eupctnsilf)"/>
                    </g>
                    <rect width="23" height="15" x=".5" y=".5" fill-rule="nonzero" stroke="#000" stroke-opacity=".04" rx="1"/>
                </g>
                <rect width="23" height="15" x="8.5" y="8.5" stroke="#000" stroke-opacity=".04" rx="2"/>
            </g>
        </g>
    </g>
</svg>
