<svg width="24" height="24" viewBox="0 0 24 24" fill="none" xmlns="http://www.w3.org/2000/svg">
<path d="M17.25 4.5H6.75V19.5H17.25V4.5Z" fill="#5798B4"/>
<path fill-rule="evenodd" clip-rule="evenodd" d="M6.375 4.5H17.625C17.8321 4.5 18 4.66789 18 4.875C18 5.08211 17.8321 5.25 17.625 5.25H6.375C6.16789 5.25 6 5.08211 6 4.875C6 4.66789 6.16789 4.5 6.375 4.5ZM6.375 6H17.625C17.8321 6 18 6.16789 18 6.375C18 6.58211 17.8321 6.75 17.625 6.75H6.375C6.16789 6.75 6 6.58211 6 6.375C6 6.16789 6.16789 6 6.375 6ZM17.625 18.75H6.375C6.16789 18.75 6 18.9179 6 19.125C6 19.3321 6.16789 19.5 6.375 19.5H17.625C17.8321 19.5 18 19.3321 18 19.125C18 18.9179 17.8321 18.75 17.625 18.75ZM6.375 17.25H17.625C17.8321 17.25 18 17.4179 18 17.625C18 17.8321 17.8321 18 17.625 18H6.375C6.16789 18 6 17.8321 6 17.625C6 17.4179 6.16789 17.25 6.375 17.25Z" fill="#3B7B96"/>
<path d="M14.2431 12.8625C14.2431 14.05 13.2332 15 12.0004 15C10.7676 15 9.75781 14.05 9.75781 12.8625C9.75781 11.675 12.0004 9 12.0004 9C12.0004 9 14.2431 11.6875 14.2431 12.8625Z" fill="#FFC521"/>
<path d="M12.0001 14.4383C11.0952 14.4383 10.3477 13.7383 10.3477 12.8633C10.3477 12.7633 10.4395 12.6758 10.5444 12.6758C10.6493 12.6758 10.7411 12.7633 10.7411 12.8633C10.7411 13.5258 11.305 14.0633 12.0001 14.0633C12.105 14.0633 12.1968 14.1508 12.1968 14.2508C12.1968 14.3508 12.105 14.4383 12.0001 14.4383Z" fill="white"/>
<mask id="mask0_12766_80164" style="mask-type:alpha" maskUnits="userSpaceOnUse" x="12" y="0" width="12" height="8">
<path d="M23.0625 0H13.6875C13.1697 0 12.75 0.419733 12.75 0.9375V6.5625C12.75 7.08027 13.1697 7.5 13.6875 7.5H23.0625C23.5803 7.5 24 7.08027 24 6.5625V0.9375C24 0.419733 23.5803 0 23.0625 0Z" fill="white"/>
</mask>
<g mask="url(#mask0_12766_80164)">
<path d="M23.0625 0H13.6875C13.1697 0 12.75 0.419733 12.75 0.9375V6.5625C12.75 7.08027 13.1697 7.5 13.6875 7.5H23.0625C23.5803 7.5 24 7.08027 24 6.5625V0.9375C24 0.419733 23.5803 0 23.0625 0Z" fill="white"/>
<path d="M24 6.885C24 7.22466 23.7247 7.5 23.385 7.5H13.365C13.0253 7.5 12.75 7.22466 12.75 6.885H24ZM24 5.7375V6.31125H12.75V5.7375H24ZM24 4.59V5.16375H12.75V4.59H24ZM24 3.4425V4.01625H12.75V3.4425H24ZM24 2.295V2.86875H12.75V2.295H24ZM24 1.1475V1.72125H12.75V1.1475H24ZM23.4263 0C23.7233 0 23.9677 0.22577 23.997 0.515087L24 0.57375H13.0727C13.0727 0.256877 13.3296 0 13.6464 0H23.4263Z" fill="#F44336"/>
<path d="M13.6875 0H18.1406V4.01625H12.75V0.9375C12.75 0.419733 13.1697 0 13.6875 0Z" fill="#0D47A1"/>
<path d="M13.2631 3.196L13.3077 3.328H13.4461C13.454 3.3282 13.4609 3.33329 13.4634 3.34075C13.4659 3.34822 13.4635 3.35645 13.4574 3.36137L13.3449 3.44425L13.3872 3.57625C13.3899 3.58398 13.3871 3.59251 13.3804 3.59719C13.3737 3.60187 13.3647 3.60159 13.3584 3.5965L13.2459 3.51587L13.1334 3.5965C13.1269 3.60104 13.1183 3.60104 13.1118 3.59651C13.1054 3.59197 13.1024 3.58387 13.1045 3.57625L13.1506 3.445L13.0381 3.36212C13.032 3.3572 13.0296 3.34896 13.0321 3.3415C13.0346 3.33404 13.0415 3.32895 13.0494 3.32875H13.1881L13.2327 3.19675C13.2354 3.178 13.2579 3.178 13.2631 3.196ZM17.4984 3.18402C17.5058 3.18384 17.5124 3.18882 17.5141 3.196L17.5587 3.328H17.6971C17.705 3.3282 17.7119 3.33329 17.7144 3.34075C17.7169 3.34822 17.7145 3.35645 17.7084 3.36137L17.5959 3.44425L17.6382 3.57625C17.6409 3.58398 17.6381 3.59251 17.6314 3.59719C17.6247 3.60187 17.6157 3.60159 17.6094 3.5965L17.4969 3.51587L17.3844 3.5965C17.3779 3.60104 17.3693 3.60104 17.3628 3.59651C17.3564 3.59197 17.3534 3.58387 17.3555 3.57625L17.4016 3.445L17.2891 3.36212C17.283 3.3572 17.2806 3.34896 17.2831 3.3415C17.2856 3.33404 17.2925 3.32895 17.3004 3.32875H17.4387L17.4834 3.19675C17.4848 3.1895 17.4911 3.1842 17.4984 3.18402ZM16.4349 3.18402C16.4423 3.18384 16.4489 3.18882 16.4506 3.196L16.4952 3.328H16.6336C16.6415 3.3282 16.6484 3.33329 16.6509 3.34075C16.6534 3.34822 16.651 3.35645 16.6449 3.36137L16.5324 3.44425L16.5747 3.57625C16.5774 3.58398 16.5746 3.59251 16.5679 3.59719C16.5612 3.60187 16.5522 3.60159 16.5459 3.5965L16.4334 3.51587L16.3209 3.5965C16.3144 3.60104 16.3058 3.60104 16.2993 3.59651C16.2929 3.59197 16.2899 3.58387 16.292 3.57625L16.3381 3.445L16.2256 3.36212C16.2195 3.3572 16.2171 3.34896 16.2196 3.3415C16.2221 3.33404 16.229 3.32895 16.2369 3.32875H16.3752L16.4199 3.19675C16.4213 3.1895 16.4276 3.1842 16.4349 3.18402ZM14.3262 3.196L14.3709 3.328H14.5092C14.5171 3.3282 14.524 3.33329 14.5265 3.34075C14.5291 3.34822 14.5266 3.35645 14.5205 3.36137L14.408 3.44425L14.4504 3.57625C14.453 3.58398 14.4502 3.59251 14.4435 3.59719C14.4368 3.60187 14.4279 3.60159 14.4215 3.5965L14.309 3.51587L14.1965 3.5965C14.19 3.60104 14.1814 3.60104 14.1749 3.59651C14.1685 3.59197 14.1656 3.58387 14.1676 3.57625L14.2137 3.445L14.1012 3.36212C14.0951 3.3572 14.0927 3.34896 14.0952 3.3415C14.0977 3.33404 14.1046 3.32895 14.1125 3.32875H14.2512L14.2959 3.19675C14.2962 3.178 14.321 3.178 14.3262 3.196ZM15.3897 3.196L15.4344 3.328H15.5727C15.5806 3.3282 15.5875 3.33329 15.59 3.34075C15.5926 3.34822 15.5901 3.35645 15.584 3.36137L15.4715 3.44425L15.5139 3.57625C15.5165 3.58398 15.5137 3.59251 15.507 3.59719C15.5003 3.60187 15.4914 3.60159 15.485 3.5965L15.3725 3.51587L15.26 3.5965C15.2535 3.60104 15.2449 3.60104 15.2384 3.59651C15.232 3.59197 15.2291 3.58387 15.2311 3.57625L15.2772 3.445L15.1647 3.36212C15.1586 3.3572 15.1562 3.34896 15.1587 3.3415C15.1612 3.33404 15.1681 3.32895 15.176 3.32875H15.3147L15.3594 3.19675C15.3597 3.178 15.3845 3.178 15.3897 3.196ZM13.7949 2.84725L13.8395 2.97925H13.9779C13.9857 2.97945 13.9926 2.98454 13.9952 2.992C13.9977 2.99946 13.9953 3.0077 13.9891 3.01262L13.8766 3.0955L13.919 3.2275C13.9216 3.23523 13.9188 3.24376 13.9121 3.24844C13.9055 3.25312 13.8965 3.25284 13.8901 3.24775L13.7776 3.16712L13.6651 3.24775C13.6587 3.25229 13.65 3.25229 13.6436 3.24776C13.6371 3.24322 13.6342 3.23512 13.6362 3.2275L13.6786 3.0955L13.5661 3.01262C13.56 3.0077 13.5576 2.99946 13.5601 2.992C13.5626 2.98454 13.5695 2.97945 13.5774 2.97925H13.7199L13.7645 2.84725C13.7671 2.82925 13.7896 2.82925 13.7949 2.84725ZM16.9737 2.83231C16.9791 2.83539 16.9824 2.84109 16.9824 2.84725L17.027 2.97925H17.1654C17.1732 2.97945 17.1801 2.98454 17.1827 2.992C17.1852 2.99946 17.1828 3.0077 17.1766 3.01262L17.0641 3.0955L17.1065 3.2275C17.1091 3.23523 17.1063 3.24376 17.0996 3.24844C17.093 3.25312 17.084 3.25284 17.0776 3.24775L16.9651 3.16712L16.8526 3.24775C16.8462 3.25229 16.8375 3.25229 16.8311 3.24776C16.8246 3.24322 16.8217 3.23512 16.8237 3.2275L16.8661 3.0955L16.7536 3.01262C16.7475 3.0077 16.7451 2.99946 16.7476 2.992C16.7501 2.98454 16.757 2.97945 16.7649 2.97925H16.9032L16.9479 2.84725C16.9479 2.84109 16.9512 2.83539 16.9565 2.83231C16.9618 2.82923 16.9684 2.82923 16.9737 2.83231ZM15.9215 2.84725L15.9661 2.97925H16.1045C16.1124 2.97945 16.1193 2.98454 16.1218 2.992C16.1243 2.99946 16.1219 3.0077 16.1157 3.01262L16.0032 3.0955L16.0456 3.2275C16.0482 3.23523 16.0454 3.24376 16.0388 3.24844C16.0321 3.25312 16.0231 3.25284 16.0167 3.24775L15.9042 3.16712L15.7917 3.24775C15.7853 3.25229 15.7767 3.25229 15.7702 3.24776C15.7637 3.24322 15.7608 3.23512 15.7629 3.2275L15.8052 3.0955L15.6927 3.01262C15.6866 3.0077 15.6842 2.99946 15.6867 2.992C15.6892 2.98454 15.6961 2.97945 15.704 2.97925H15.8424L15.887 2.84725C15.8915 2.82925 15.9162 2.82925 15.9215 2.84725ZM14.858 2.84725L14.9026 2.97925H15.041C15.0489 2.97945 15.0558 2.98454 15.0583 2.992C15.0608 2.99946 15.0584 3.0077 15.0522 3.01262L14.9397 3.0955L14.9821 3.2275C14.9847 3.23523 14.9819 3.24376 14.9753 3.24844C14.9686 3.25312 14.9596 3.25284 14.9532 3.24775L14.8407 3.16712L14.7282 3.24775C14.7218 3.25229 14.7132 3.25229 14.7067 3.24776C14.7002 3.24322 14.6973 3.23512 14.6994 3.2275L14.7417 3.0955L14.6292 3.01262C14.6231 3.0077 14.6207 2.99946 14.6232 2.992C14.6257 2.98454 14.6326 2.97945 14.6405 2.97925H14.783L14.8276 2.84725C14.828 2.82925 14.8527 2.82925 14.858 2.84725ZM14.3262 2.50938L14.3709 2.64138H14.5092C14.5171 2.64157 14.524 2.64667 14.5265 2.65413C14.5291 2.66159 14.5266 2.66983 14.5205 2.67475L14.408 2.75762L14.4504 2.88962C14.453 2.89735 14.4502 2.90588 14.4435 2.91056C14.4368 2.91525 14.4279 2.91497 14.4215 2.90987L14.309 2.82925L14.1965 2.90987C14.19 2.91442 14.1814 2.91442 14.1749 2.90988C14.1685 2.90535 14.1656 2.89725 14.1676 2.88962L14.21 2.75762L14.0975 2.67475C14.0914 2.66983 14.0889 2.66159 14.0915 2.65413C14.094 2.64667 14.1009 2.64157 14.1087 2.64138H14.2512L14.2959 2.50938C14.2962 2.494 14.321 2.494 14.3262 2.50938ZM17.5141 2.50938L17.5587 2.64138H17.6971C17.705 2.64157 17.7119 2.64667 17.7144 2.65413C17.7169 2.66159 17.7145 2.66983 17.7084 2.67475L17.5959 2.75762L17.6382 2.88962C17.6409 2.89735 17.6381 2.90588 17.6314 2.91056C17.6247 2.91525 17.6157 2.91497 17.6094 2.90987L17.4969 2.82925L17.3844 2.90987C17.3779 2.91442 17.3693 2.91442 17.3628 2.90988C17.3564 2.90535 17.3534 2.89725 17.3555 2.88962L17.3979 2.75762L17.2854 2.67475C17.2792 2.66983 17.2768 2.66159 17.2793 2.65413C17.2818 2.64667 17.2887 2.64157 17.2966 2.64138H17.435L17.4796 2.50938C17.4864 2.494 17.5111 2.494 17.5141 2.50938ZM13.2631 2.50938L13.3077 2.64138H13.4461C13.454 2.64157 13.4609 2.64667 13.4634 2.65413C13.4659 2.66159 13.4635 2.66983 13.4574 2.67475L13.3449 2.75762L13.3872 2.88962C13.3899 2.89735 13.3871 2.90588 13.3804 2.91056C13.3737 2.91525 13.3647 2.91497 13.3584 2.90987L13.2459 2.82925L13.1334 2.90987C13.1269 2.91442 13.1183 2.91442 13.1118 2.90988C13.1054 2.90535 13.1024 2.89725 13.1045 2.88962L13.1469 2.75762L13.0344 2.67475C13.0282 2.66983 13.0258 2.66159 13.0283 2.65413C13.0308 2.64667 13.0377 2.64157 13.0456 2.64138H13.1881L13.2327 2.50938C13.2354 2.494 13.2579 2.494 13.2631 2.50938ZM16.4506 2.50938L16.4952 2.64138H16.6336C16.6415 2.64157 16.6484 2.64667 16.6509 2.65413C16.6534 2.66159 16.651 2.66983 16.6449 2.67475L16.5324 2.75762L16.5747 2.88962C16.5774 2.89735 16.5746 2.90588 16.5679 2.91056C16.5612 2.91525 16.5522 2.91497 16.5459 2.90987L16.4334 2.82925L16.3209 2.90987C16.3144 2.91442 16.3058 2.91442 16.2993 2.90988C16.2929 2.90535 16.2899 2.89725 16.292 2.88962L16.3344 2.75762L16.2219 2.67475C16.2157 2.66983 16.2133 2.66159 16.2158 2.65413C16.2183 2.64667 16.2252 2.64157 16.2331 2.64138H16.3715L16.4161 2.50938C16.4229 2.494 16.4476 2.494 16.4506 2.50938ZM15.3897 2.50938L15.4344 2.64138H15.5727C15.5806 2.64157 15.5875 2.64667 15.59 2.65413C15.5926 2.66159 15.5901 2.66983 15.584 2.67475L15.4715 2.75762L15.5139 2.88962C15.5165 2.89735 15.5137 2.90588 15.507 2.91056C15.5003 2.91525 15.4914 2.91497 15.485 2.90987L15.3725 2.82925L15.26 2.90987C15.2535 2.91442 15.2449 2.91442 15.2384 2.90988C15.232 2.90535 15.2291 2.89725 15.2311 2.88962L15.2735 2.75762L15.161 2.67475C15.1549 2.66983 15.1524 2.66159 15.155 2.65413C15.1575 2.64667 15.1644 2.64157 15.1722 2.64138H15.3147L15.3594 2.50938C15.3597 2.494 15.3845 2.494 15.3897 2.50938ZM13.7949 2.161L13.8395 2.293H13.9779C13.9857 2.2932 13.9926 2.29829 13.9952 2.30575C13.9977 2.31322 13.9953 2.32145 13.9891 2.32637L13.8766 2.40925L13.919 2.54125C13.9216 2.54898 13.9188 2.55751 13.9121 2.56219C13.9055 2.56687 13.8965 2.56659 13.8901 2.5615L13.7776 2.48088L13.6651 2.5615C13.6587 2.56604 13.65 2.56604 13.6436 2.56151C13.6371 2.55697 13.6342 2.54887 13.6362 2.54125L13.6824 2.41L13.5699 2.32712C13.5637 2.3222 13.5613 2.31397 13.5638 2.3065C13.5663 2.29904 13.5732 2.29395 13.5811 2.29375H13.7199L13.7645 2.16175C13.7671 2.143 13.7896 2.143 13.7949 2.161ZM16.9651 2.14375C16.9746 2.14375 16.9824 2.15147 16.9824 2.161L17.027 2.293H17.1654C17.1732 2.2932 17.1801 2.29829 17.1827 2.30575C17.1852 2.31322 17.1828 2.32145 17.1766 2.32637L17.0641 2.40925L17.1065 2.54125C17.1091 2.54898 17.1063 2.55751 17.0996 2.56219C17.093 2.56687 17.084 2.56659 17.0776 2.5615L16.9651 2.48088L16.8526 2.5615C16.8462 2.56604 16.8375 2.56604 16.8311 2.56151C16.8246 2.55697 16.8217 2.54887 16.8237 2.54125L16.8661 2.40925L16.7536 2.32637C16.7475 2.32145 16.7451 2.31322 16.7476 2.30575C16.7501 2.29829 16.757 2.2932 16.7649 2.293H16.9032L16.9479 2.161C16.9479 2.15147 16.9556 2.14375 16.9651 2.14375ZM15.9215 2.161L15.9661 2.293H16.1045C16.1124 2.2932 16.1193 2.29829 16.1218 2.30575C16.1243 2.31322 16.1219 2.32145 16.1157 2.32637L16.0032 2.40925L16.0456 2.54125C16.0482 2.54898 16.0454 2.55751 16.0388 2.56219C16.0321 2.56687 16.0231 2.56659 16.0167 2.5615L15.9042 2.48088L15.7917 2.5615C15.7853 2.56604 15.7767 2.56604 15.7702 2.56151C15.7637 2.55697 15.7608 2.54887 15.7629 2.54125L15.8052 2.40925L15.6927 2.32637C15.6866 2.32145 15.6842 2.31322 15.6867 2.30575C15.6892 2.29829 15.6961 2.2932 15.704 2.293H15.8424L15.887 2.161C15.8915 2.143 15.9162 2.143 15.9215 2.161ZM14.858 2.161L14.9026 2.293H15.041C15.0489 2.2932 15.0558 2.29829 15.0583 2.30575C15.0608 2.31322 15.0584 2.32145 15.0522 2.32637L14.9397 2.40925L14.9821 2.54125C14.9847 2.54898 14.9819 2.55751 14.9753 2.56219C14.9686 2.56687 14.9596 2.56659 14.9532 2.5615L14.8407 2.48088L14.7282 2.5615C14.7218 2.56604 14.7132 2.56604 14.7067 2.56151C14.7002 2.55697 14.6973 2.54887 14.6994 2.54125L14.7455 2.41L14.633 2.32712C14.6269 2.3222 14.6244 2.31397 14.627 2.3065C14.6295 2.29904 14.6364 2.29395 14.6442 2.29375H14.783L14.8276 2.16175C14.828 2.143 14.8527 2.143 14.858 2.161ZM14.3262 1.82538L14.3709 1.95737H14.5092C14.5171 1.95757 14.524 1.96267 14.5265 1.97013C14.5291 1.97759 14.5266 1.98583 14.5205 1.99075L14.408 2.07363L14.4504 2.20563C14.453 2.21335 14.4502 2.22188 14.4435 2.22657C14.4368 2.23125 14.4279 2.23097 14.4215 2.22588L14.309 2.14525L14.1965 2.22588C14.19 2.23042 14.1814 2.23042 14.1749 2.22588C14.1685 2.22135 14.1656 2.21325 14.1676 2.20563L14.2137 2.07437L14.1012 1.9915C14.0951 1.98658 14.0927 1.97834 14.0952 1.97088C14.0977 1.96342 14.1046 1.95832 14.1125 1.95813H14.2512L14.2959 1.82613C14.2962 1.80738 14.321 1.80738 14.3262 1.82538ZM17.4984 1.8134C17.5058 1.81322 17.5124 1.8182 17.5141 1.82538L17.5587 1.95737H17.6971C17.705 1.95757 17.7119 1.96267 17.7144 1.97013C17.7169 1.97759 17.7145 1.98583 17.7084 1.99075L17.5959 2.07363L17.6382 2.20563C17.6409 2.21335 17.6381 2.22188 17.6314 2.22657C17.6247 2.23125 17.6157 2.23097 17.6094 2.22588L17.4969 2.14525L17.3844 2.22588C17.3779 2.23042 17.3693 2.23042 17.3628 2.22588C17.3564 2.22135 17.3534 2.21325 17.3555 2.20563L17.4016 2.07437L17.2891 1.9915C17.283 1.98658 17.2806 1.97834 17.2831 1.97088C17.2856 1.96342 17.2925 1.95832 17.3004 1.95813H17.4387L17.4834 1.82613C17.4848 1.81887 17.4911 1.81358 17.4984 1.8134ZM16.4334 1.80813C16.4429 1.80813 16.4506 1.81585 16.4506 1.82538L16.4952 1.95737H16.6336C16.6415 1.95757 16.6484 1.96267 16.6509 1.97013C16.6534 1.97759 16.651 1.98583 16.6449 1.99075L16.5324 2.07363L16.5747 2.20563C16.5774 2.21335 16.5746 2.22188 16.5679 2.22657C16.5612 2.23125 16.5522 2.23097 16.5459 2.22588L16.4334 2.14525L16.3209 2.22588C16.3144 2.23042 16.3058 2.23042 16.2993 2.22588C16.2929 2.22135 16.2899 2.21325 16.292 2.20563L16.3344 2.07363L16.2219 1.99075C16.2157 1.98583 16.2133 1.97759 16.2158 1.97013C16.2183 1.96267 16.2252 1.95757 16.2331 1.95737H16.3715L16.4161 1.82538C16.4161 1.81585 16.4238 1.80813 16.4334 1.80813ZM13.2631 1.82538L13.3077 1.95737H13.4461C13.454 1.95757 13.4609 1.96267 13.4634 1.97013C13.4659 1.97759 13.4635 1.98583 13.4574 1.99075L13.3449 2.07363L13.3872 2.20563C13.3899 2.21335 13.3871 2.22188 13.3804 2.22657C13.3737 2.23125 13.3647 2.23097 13.3584 2.22588L13.2459 2.14525L13.1334 2.22588C13.1269 2.23042 13.1183 2.23042 13.1118 2.22588C13.1054 2.22135 13.1024 2.21325 13.1045 2.20563L13.1506 2.07437L13.0381 1.9915C13.032 1.98658 13.0296 1.97834 13.0321 1.97088C13.0346 1.96342 13.0415 1.95832 13.0494 1.95813H13.1881L13.2327 1.82613C13.2354 1.80738 13.2579 1.80738 13.2631 1.82538ZM15.3897 1.82538L15.4344 1.95737H15.5727C15.5806 1.95757 15.5875 1.96267 15.59 1.97013C15.5926 1.97759 15.5901 1.98583 15.584 1.99075L15.4715 2.07363L15.5139 2.20563C15.5165 2.21335 15.5137 2.22188 15.507 2.22657C15.5003 2.23125 15.4914 2.23097 15.485 2.22588L15.3725 2.14525L15.26 2.22588C15.2535 2.23042 15.2449 2.23042 15.2384 2.22588C15.232 2.22135 15.2291 2.21325 15.2311 2.20563L15.2735 2.07363L15.161 1.99075C15.1549 1.98583 15.1524 1.97759 15.155 1.97013C15.1575 1.96267 15.1644 1.95757 15.1722 1.95737H15.3147L15.3594 1.82538C15.3597 1.80738 15.3845 1.80738 15.3897 1.82538ZM13.7949 1.474L13.8395 1.606H13.9779C13.9857 1.6062 13.9926 1.61129 13.9952 1.61875C13.9977 1.62622 13.9953 1.63445 13.9891 1.63938L13.8766 1.72225L13.919 1.85425C13.9216 1.86198 13.9188 1.87051 13.9121 1.87519C13.9055 1.87987 13.8965 1.87959 13.8901 1.8745L13.7776 1.79387L13.6651 1.8745C13.6587 1.87904 13.65 1.87904 13.6436 1.87451C13.6371 1.86997 13.6342 1.86187 13.6362 1.85425L13.6786 1.72225L13.5661 1.63938C13.56 1.63445 13.5576 1.62622 13.5601 1.61875C13.5626 1.61129 13.5695 1.6062 13.5774 1.606H13.7199L13.7645 1.474C13.7671 1.45862 13.7896 1.45862 13.7949 1.474ZM15.9215 1.474L15.9661 1.606H16.1045C16.1124 1.6062 16.1193 1.61129 16.1218 1.61875C16.1243 1.62622 16.1219 1.63445 16.1157 1.63938L16.0032 1.72225L16.0456 1.85425C16.0482 1.86198 16.0454 1.87051 16.0388 1.87519C16.0321 1.87987 16.0231 1.87959 16.0167 1.8745L15.9042 1.79387L15.7917 1.8745C15.7853 1.87904 15.7767 1.87904 15.7702 1.87451C15.7637 1.86997 15.7608 1.86187 15.7629 1.85425L15.8052 1.72225L15.6927 1.63938C15.6866 1.63445 15.6842 1.62622 15.6867 1.61875C15.6892 1.61129 15.6961 1.6062 15.704 1.606H15.8424L15.887 1.474C15.8915 1.45862 15.9162 1.45862 15.9215 1.474ZM14.858 1.474L14.9026 1.606H15.041C15.0489 1.6062 15.0558 1.61129 15.0583 1.61875C15.0608 1.62622 15.0584 1.63445 15.0522 1.63938L14.9397 1.72225L14.9821 1.85425C14.9847 1.86198 14.9819 1.87051 14.9753 1.87519C14.9686 1.87987 14.9596 1.87959 14.9532 1.8745L14.8407 1.79387L14.7282 1.8745C14.7218 1.87904 14.7132 1.87904 14.7067 1.87451C14.7002 1.86997 14.6973 1.86187 14.6994 1.85425L14.7417 1.72225L14.6292 1.63938C14.6231 1.63445 14.6207 1.62622 14.6232 1.61875C14.6257 1.61129 14.6326 1.6062 14.6405 1.606H14.783L14.8276 1.474C14.828 1.45862 14.8527 1.45862 14.858 1.474ZM16.9824 1.474L17.027 1.606H17.1654C17.1732 1.6062 17.1801 1.61129 17.1827 1.61875C17.1852 1.62622 17.1828 1.63445 17.1766 1.63938L17.0641 1.72225L17.1065 1.85425C17.1091 1.86198 17.1063 1.87051 17.0996 1.87519C17.093 1.87987 17.084 1.87959 17.0776 1.8745L16.9651 1.79387L16.8526 1.8745C16.8462 1.87904 16.8375 1.87904 16.8311 1.87451C16.8246 1.86997 16.8217 1.86187 16.8237 1.85425L16.8661 1.72225L16.7536 1.63938C16.7475 1.63445 16.7451 1.62622 16.7476 1.61875C16.7501 1.61129 16.757 1.6062 16.7649 1.606H16.9032L16.9479 1.474C16.9546 1.45862 16.9794 1.45862 16.9824 1.474ZM15.3897 1.13875L15.4344 1.27075H15.5727C15.5806 1.27095 15.5875 1.27604 15.59 1.2835C15.5926 1.29097 15.5901 1.2992 15.584 1.30413L15.4715 1.387L15.5139 1.519C15.5165 1.52673 15.5137 1.53526 15.507 1.53994C15.5003 1.54462 15.4914 1.54434 15.485 1.53925L15.3725 1.45863L15.26 1.53925C15.2535 1.54379 15.2449 1.54379 15.2384 1.53926C15.232 1.53472 15.2291 1.52662 15.2311 1.519L15.2735 1.387L15.161 1.30413C15.1549 1.2992 15.1524 1.29097 15.155 1.2835C15.1575 1.27604 15.1644 1.27095 15.1722 1.27075H15.3147L15.3594 1.13875C15.3597 1.12337 15.3845 1.12337 15.3897 1.13875ZM13.2631 1.13875L13.3077 1.27075H13.4461C13.454 1.27095 13.4609 1.27604 13.4634 1.2835C13.4659 1.29097 13.4635 1.2992 13.4574 1.30413L13.3449 1.387L13.3872 1.519C13.3899 1.52673 13.3871 1.53526 13.3804 1.53994C13.3737 1.54462 13.3647 1.54434 13.3584 1.53925L13.2459 1.45863L13.1334 1.53925C13.1269 1.54379 13.1183 1.54379 13.1118 1.53926C13.1054 1.53472 13.1024 1.52662 13.1045 1.519L13.1469 1.387L13.0344 1.30413C13.0282 1.2992 13.0258 1.29097 13.0283 1.2835C13.0308 1.27604 13.0377 1.27095 13.0456 1.27075H13.1881L13.2327 1.13875C13.2354 1.12337 13.2579 1.12337 13.2631 1.13875ZM14.3277 1.13875L14.3724 1.27075H14.5115C14.5194 1.27095 14.5263 1.27604 14.5288 1.2835C14.5313 1.29097 14.5289 1.2992 14.5227 1.30413L14.4102 1.387L14.4526 1.519C14.4552 1.52673 14.4524 1.53526 14.4458 1.53994C14.4391 1.54462 14.4301 1.54434 14.4237 1.53925L14.3112 1.45863L14.1987 1.53925C14.1923 1.54379 14.1837 1.54379 14.1772 1.53926C14.1707 1.53472 14.1678 1.52662 14.1699 1.519L14.2122 1.387L14.0997 1.30413C14.0936 1.2992 14.0912 1.29097 14.0937 1.2835C14.0962 1.27604 14.1031 1.27095 14.111 1.27075H14.249L14.2936 1.13875C14.2962 1.12337 14.321 1.12337 14.3277 1.13875ZM16.4506 1.13875L16.4952 1.27075H16.6336C16.6415 1.27095 16.6484 1.27604 16.6509 1.2835C16.6534 1.29097 16.651 1.2992 16.6449 1.30413L16.5324 1.387L16.5747 1.519C16.5774 1.52673 16.5746 1.53526 16.5679 1.53994C16.5612 1.54462 16.5522 1.54434 16.5459 1.53925L16.4334 1.45863L16.3209 1.53925C16.3144 1.54379 16.3058 1.54379 16.2993 1.53926C16.2929 1.53472 16.2899 1.52662 16.292 1.519L16.3344 1.387L16.2219 1.30413C16.2157 1.2992 16.2133 1.29097 16.2158 1.2835C16.2183 1.27604 16.2252 1.27095 16.2331 1.27075H16.3715L16.4161 1.13875C16.4229 1.12337 16.4476 1.12337 16.4506 1.13875ZM17.5141 1.13875L17.5587 1.27075H17.6971C17.705 1.27095 17.7119 1.27604 17.7144 1.2835C17.7169 1.29097 17.7145 1.2992 17.7084 1.30413L17.5959 1.387L17.6382 1.519C17.6409 1.52673 17.6381 1.53526 17.6314 1.53994C17.6247 1.54462 17.6157 1.54434 17.6094 1.53925L17.4969 1.45863L17.3844 1.53925C17.3779 1.54379 17.3693 1.54379 17.3628 1.53926C17.3564 1.53472 17.3534 1.52662 17.3555 1.519L17.3979 1.387L17.2854 1.30413C17.2792 1.2992 17.2768 1.29097 17.2793 1.2835C17.2818 1.27604 17.2887 1.27095 17.2966 1.27075H17.435L17.4796 1.13875C17.4864 1.12337 17.5111 1.12337 17.5141 1.13875ZM15.9215 0.79L15.9661 0.922H16.1045C16.1124 0.9222 16.1193 0.927295 16.1218 0.934755C16.1243 0.942215 16.1219 0.950452 16.1157 0.955375L16.0032 1.03825L16.0456 1.17025C16.0482 1.17798 16.0454 1.18651 16.0388 1.19119C16.0321 1.19587 16.0231 1.19559 16.0167 1.1905L15.9042 1.10988L15.7917 1.1905C15.7853 1.19504 15.7767 1.19504 15.7702 1.19051C15.7637 1.18597 15.7608 1.17787 15.7629 1.17025L15.8052 1.03825L15.6927 0.955375C15.6866 0.950452 15.6842 0.942215 15.6867 0.934755C15.6892 0.927295 15.6961 0.9222 15.704 0.922H15.8424L15.887 0.79C15.8915 0.772 15.9162 0.772 15.9215 0.79ZM14.858 0.79L14.9026 0.922H15.041C15.0489 0.9222 15.0558 0.927295 15.0583 0.934755C15.0608 0.942215 15.0584 0.950452 15.0522 0.955375L14.9397 1.03825L14.9821 1.17025C14.9847 1.17798 14.9819 1.18651 14.9753 1.19119C14.9686 1.19587 14.9596 1.19559 14.9532 1.1905L14.8407 1.10988L14.7282 1.1905C14.7218 1.19504 14.7132 1.19504 14.7067 1.19051C14.7002 1.18597 14.6973 1.17787 14.6994 1.17025L14.7455 1.039L14.633 0.956125C14.6269 0.951202 14.6244 0.942965 14.627 0.935505C14.6295 0.928045 14.6364 0.92295 14.6442 0.92275H14.783L14.8276 0.79075C14.828 0.772 14.8527 0.772 14.858 0.79ZM13.7949 0.79L13.8395 0.922H13.9779C13.9857 0.9222 13.9926 0.927295 13.9952 0.934755C13.9977 0.942215 13.9953 0.950452 13.9891 0.955375L13.8766 1.03825L13.919 1.17025C13.9216 1.17798 13.9188 1.18651 13.9121 1.19119C13.9055 1.19587 13.8965 1.19559 13.8901 1.1905L13.7776 1.10988L13.6651 1.1905C13.6587 1.19504 13.65 1.19504 13.6436 1.19051C13.6371 1.18597 13.6342 1.17787 13.6362 1.17025L13.6824 1.039L13.5699 0.956125C13.5637 0.951202 13.5613 0.942965 13.5638 0.935505C13.5663 0.928045 13.5732 0.92295 13.5811 0.92275H13.7199L13.7645 0.79075C13.7671 0.772 13.7896 0.772 13.7949 0.79ZM16.9737 0.775061C16.9791 0.778142 16.9824 0.783837 16.9824 0.79L17.027 0.922H17.1654C17.1732 0.9222 17.1801 0.927295 17.1827 0.934755C17.1852 0.942215 17.1828 0.950452 17.1766 0.955375L17.0641 1.03825L17.1065 1.17025C17.1091 1.17798 17.1063 1.18651 17.0996 1.19119C17.093 1.19587 17.084 1.19559 17.0776 1.1905L16.9651 1.10988L16.8526 1.1905C16.8462 1.19504 16.8375 1.19504 16.8311 1.19051C16.8246 1.18597 16.8217 1.17787 16.8237 1.17025L16.8661 1.03825L16.7536 0.955375C16.7475 0.950452 16.7451 0.942215 16.7476 0.934755C16.7501 0.927295 16.757 0.9222 16.7649 0.922H16.9032L16.9479 0.79C16.9479 0.783837 16.9512 0.778142 16.9565 0.775061C16.9618 0.77198 16.9684 0.77198 16.9737 0.775061ZM13.2631 0.45475L13.3077 0.58675H13.4461C13.454 0.58695 13.4609 0.592045 13.4634 0.599505C13.4659 0.606965 13.4635 0.615202 13.4574 0.620125L13.3449 0.703L13.3872 0.835C13.3899 0.842727 13.3871 0.851255 13.3804 0.85594C13.3737 0.860624 13.3647 0.860343 13.3584 0.85525L13.2459 0.774625L13.1334 0.85525C13.1269 0.85979 13.1183 0.859794 13.1118 0.855259C13.1054 0.850724 13.1024 0.842623 13.1045 0.835L13.1506 0.70375L13.0381 0.620875C13.032 0.615952 13.0296 0.607715 13.0321 0.600255C13.0346 0.592795 13.0415 0.5877 13.0494 0.5875H13.1881L13.2327 0.4555C13.2354 0.43675 13.2579 0.43675 13.2631 0.45475ZM14.3262 0.45475L14.3709 0.58675H14.5092C14.5171 0.58695 14.524 0.592045 14.5265 0.599505C14.5291 0.606965 14.5266 0.615202 14.5205 0.620125L14.408 0.703L14.4504 0.835C14.453 0.842727 14.4502 0.851255 14.4435 0.85594C14.4368 0.860624 14.4279 0.860343 14.4215 0.85525L14.309 0.774625L14.1965 0.85525C14.19 0.85979 14.1814 0.859794 14.1749 0.855259C14.1685 0.850724 14.1656 0.842623 14.1676 0.835L14.2137 0.70375L14.1012 0.620875C14.0951 0.615952 14.0927 0.607715 14.0952 0.600255C14.0977 0.592795 14.1046 0.5877 14.1125 0.5875H14.2512L14.2959 0.4555C14.2962 0.43675 14.321 0.43675 14.3262 0.45475ZM15.3897 0.45475L15.4344 0.58675H15.5727C15.5806 0.58695 15.5875 0.592045 15.59 0.599505C15.5926 0.606965 15.5901 0.615202 15.584 0.620125L15.4715 0.703L15.5139 0.835C15.5165 0.842727 15.5137 0.851255 15.507 0.85594C15.5003 0.860624 15.4914 0.860343 15.485 0.85525L15.3725 0.774625L15.26 0.85525C15.2535 0.85979 15.2449 0.859794 15.2384 0.855259C15.232 0.850724 15.2291 0.842623 15.2311 0.835L15.2735 0.703L15.161 0.620125C15.1549 0.615202 15.1524 0.606965 15.155 0.599505C15.1575 0.592045 15.1644 0.58695 15.1722 0.58675H15.3147L15.3594 0.45475C15.3597 0.43675 15.3845 0.43675 15.3897 0.45475ZM16.442 0.439811C16.4473 0.442892 16.4506 0.448587 16.4506 0.45475L16.4952 0.58675H16.6336C16.6415 0.58695 16.6484 0.592045 16.6509 0.599505C16.6534 0.606965 16.651 0.615202 16.6449 0.620125L16.5324 0.703L16.5747 0.835C16.5774 0.842727 16.5746 0.851255 16.5679 0.85594C16.5612 0.860624 16.5522 0.860343 16.5459 0.85525L16.4334 0.774625L16.3209 0.85525C16.3144 0.85979 16.3058 0.859794 16.2993 0.855259C16.2929 0.850724 16.2899 0.842623 16.292 0.835L16.3344 0.703L16.2219 0.620125C16.2157 0.615202 16.2133 0.606965 16.2158 0.599505C16.2183 0.592045 16.2252 0.58695 16.2331 0.58675H16.3715L16.4161 0.45475C16.4161 0.448587 16.4194 0.442892 16.4247 0.439811C16.4301 0.43673 16.4367 0.43673 16.442 0.439811ZM17.4984 0.442774C17.5058 0.442594 17.5124 0.447575 17.5141 0.45475L17.5587 0.58675H17.6971C17.705 0.58695 17.7119 0.592045 17.7144 0.599505C17.7169 0.606965 17.7145 0.615202 17.7084 0.620125L17.5959 0.703L17.6382 0.835C17.6409 0.842727 17.6381 0.851255 17.6314 0.85594C17.6247 0.860624 17.6157 0.860343 17.6094 0.85525L17.4969 0.774625L17.3844 0.85525C17.3779 0.85979 17.3693 0.859794 17.3628 0.855259C17.3564 0.850724 17.3534 0.842623 17.3555 0.835L17.4016 0.70375L17.2891 0.620875C17.283 0.615952 17.2806 0.607715 17.2831 0.600255C17.2856 0.592795 17.2925 0.5877 17.3004 0.5875H17.4387L17.4834 0.4555C17.4848 0.448247 17.4911 0.442955 17.4984 0.442774Z" fill="#F5F5F5"/>
<path fill-rule="evenodd" clip-rule="evenodd" d="M23.0625 0.46875H13.6875C13.4286 0.46875 13.2188 0.678617 13.2188 0.9375V6.5625C13.2188 6.82138 13.4286 7.03125 13.6875 7.03125H23.0625C23.3214 7.03125 23.5312 6.82138 23.5312 6.5625V0.9375C23.5312 0.678616 23.3214 0.46875 23.0625 0.46875ZM13.6875 0C13.1697 0 12.75 0.419733 12.75 0.9375V6.5625C12.75 7.08027 13.1697 7.5 13.6875 7.5H23.0625C23.5803 7.5 24 7.08027 24 6.5625V0.9375C24 0.419733 23.5803 0 23.0625 0H13.6875Z" fill="black" fill-opacity="0.04"/>
</g>
</svg>
