<svg xmlns="http://www.w3.org/2000/svg" xmlns:xlink="http://www.w3.org/1999/xlink" width="32" height="33"><defs><rect id="a" width="12" height="8" x="0" y="0" rx="1"/><path id="c" d="M1 0h4.6v4.284H0V1a1 1 0 0 1 1-1z"/></defs><g fill="none" fill-rule="evenodd"><g transform="translate(5 7)"><path fill="#6E7287" d="M3 8h16v10H3z"/><path fill="#D2D3DA" d="M2 18h18a1 1 0 0 1 1 1H1a1 1 0 0 1 1-1zM1 8h20a1 1 0 0 1-1 1H2a1 1 0 0 1-1-1z"/><rect width="22" height="1" y="19" fill="#B0B3BF" rx=".5"/><path fill="#B0B3BF" d="M2.25 9h1.5v9h-1.5z"/><path fill="#E9E9ED" d="M2.333 17h1.334c.184 0 .333.15.333.333V18H2v-.667c0-.184.15-.333.333-.333zM2 9h2v.667c0 .184-.15.333-.333.333H2.333A.334.334 0 0 1 2 9.667V9z"/><path fill="#B0B3BF" d="M7.25 9h1.5v9h-1.5z"/><path fill="#E9E9ED" d="M7.333 17h1.334c.184 0 .333.15.333.333V18H7v-.667c0-.184.15-.333.333-.333zM7 9h2v.667c0 .184-.15.333-.333.333H7.333A.334.334 0 0 1 7 9.667V9z"/><path fill="#B0B3BF" d="M13.25 9h1.5v9h-1.5z"/><path fill="#E9E9ED" d="M13.333 17h1.334c.184 0 .333.15.333.333V18h-2v-.667c0-.184.15-.333.333-.333zM13 9h2v.667c0 .184-.15.333-.333.333h-1.334A.334.334 0 0 1 13 9.667V9z"/><path fill="#B0B3BF" d="M18.25 9h1.5v9h-1.5z"/><path fill="#E9E9ED" d="M18.333 17h1.334c.184 0 .333.15.333.333V18h-2v-.667c0-.184.15-.333.333-.333zM18 9h2v.667c0 .184-.15.333-.333.333h-1.334A.334.334 0 0 1 18 9.667V9z"/><path fill="#F4F4F6" stroke="#B0B3BF" stroke-linecap="round" stroke-linejoin="round" d="M.5 7.5h21L11 .5z"/><circle cx="11" cy="4" r="1" fill="#B0B3BF"/></g><g transform="translate(17 4)"><mask id="b" fill="#fff"><use xlink:href="#a"/></mask><use fill="#FFF" xlink:href="#a"/><path fill="#F44336" d="M12 7.344a.656.656 0 0 1-.656.656H.656A.656.656 0 0 1 0 7.344h12zm0-1.224v.612H0V6.12h12zm0-1.224v.612H0v-.612h12zm0-1.224v.612H0v-.612h12zm0-1.224v.612H0v-.612h12zm0-1.224v.612H0v-.612h12zM11.388 0c.304 0 .557.222.604.513L12 .612H.344C.344.274.618 0 .956 0h10.432z" mask="url(#b)"/><use fill="#0D47A1" xlink:href="#c"/><rect width="11.5" height="7.5" x=".25" y=".25" stroke="#000" stroke-opacity=".04" stroke-width=".5" rx="1"/></g></g></svg>