<svg width="32" height="32" viewBox="0 0 32 32" fill="none" xmlns="http://www.w3.org/2000/svg">
<mask id="mask0_1407_11179" style="mask-type:alpha" maskUnits="userSpaceOnUse" x="0" y="6" width="24" height="16">
<path d="M22 6H2C0.89543 6 0 6.89543 0 8V20C0 21.1046 0.89543 22 2 22H22C23.1046 22 24 21.1046 24 20V8C24 6.89543 23.1046 6 22 6Z" fill="white"/>
</mask>
<g mask="url(#mask0_1407_11179)">
<path d="M22 6H2C0.89543 6 0 6.89543 0 8V20C0 21.1046 0.89543 22 2 22H22C23.1046 22 24 21.1046 24 20V8C24 6.89543 23.1046 6 22 6Z" fill="white"/>
<path d="M24 20.688C24 21.4126 23.4126 22 22.688 22H1.312C0.587403 22 0 21.4126 0 20.688H24ZM24 18.24V19.464H0V18.24H24ZM24 15.792V17.016H0V15.792H24ZM24 13.344V14.568H0V13.344H24ZM24 10.896V12.12H0V10.896H24ZM24 8.448V9.672H0V8.448H24ZM22.776 6C23.4097 6 23.931 6.48164 23.9937 7.09885L24 7.224H0.688377C0.688377 6.548 1.23638 6 1.91238 6H22.776Z" fill="#F44336"/>
<path d="M2 6H11.5V14.568H0V8C0 6.89543 0.89543 6 2 6Z" fill="#0D47A1"/>
<path d="M1.09381 12.8168L1.18901 13.0984H1.48421C1.501 13.0988 1.51573 13.1097 1.5211 13.1256C1.52646 13.1415 1.52131 13.1591 1.50821 13.1696L1.26821 13.3464L1.35861 13.628C1.36419 13.6445 1.35824 13.6627 1.34399 13.6727C1.32974 13.6827 1.3106 13.6821 1.29701 13.6712L1.05701 13.4992L0.817007 13.6712C0.80322 13.6809 0.784841 13.6809 0.771046 13.6712C0.75725 13.6616 0.750997 13.6443 0.755407 13.628L0.853807 13.348L0.613807 13.1712C0.600702 13.1607 0.595553 13.1431 0.600918 13.1272C0.606283 13.1113 0.621018 13.1004 0.637807 13.1H0.933807L1.02901 12.8184C1.03461 12.7784 1.08261 12.7784 1.09381 12.8168ZM10.1292 12.7913C10.1449 12.7909 10.1588 12.8015 10.1626 12.8168L10.2578 13.0984H10.553C10.5698 13.0988 10.5845 13.1097 10.5899 13.1256C10.5953 13.1415 10.5901 13.1591 10.577 13.1696L10.337 13.3464L10.4274 13.628C10.433 13.6445 10.427 13.6627 10.4128 13.6727C10.3985 13.6827 10.3794 13.6821 10.3658 13.6712L10.1258 13.4992L9.88581 13.6712C9.87202 13.6809 9.85364 13.6809 9.83985 13.6712C9.82605 13.6616 9.8198 13.6443 9.82421 13.628L9.92261 13.348L9.68261 13.1712C9.6695 13.1607 9.66435 13.1431 9.66972 13.1272C9.67508 13.1113 9.68982 13.1004 9.70661 13.1H10.0018L10.097 12.8184C10.1 12.8029 10.1134 12.7916 10.1292 12.7913ZM7.86036 12.7913C7.87613 12.7909 7.89003 12.8015 7.89381 12.8168L7.98901 13.0984H8.28421C8.301 13.0988 8.31573 13.1097 8.3211 13.1256C8.32646 13.1415 8.32131 13.1591 8.30821 13.1696L8.06821 13.3464L8.15861 13.628C8.16419 13.6445 8.15824 13.6627 8.14399 13.6727C8.12974 13.6827 8.1106 13.6821 8.09701 13.6712L7.85701 13.4992L7.61701 13.6712C7.60322 13.6809 7.58484 13.6809 7.57105 13.6712C7.55725 13.6616 7.551 13.6443 7.55541 13.628L7.65381 13.348L7.41381 13.1712C7.4007 13.1607 7.39555 13.1431 7.40092 13.1272C7.40628 13.1113 7.42102 13.1004 7.43781 13.1H7.73301L7.82821 12.8184C7.83123 12.8029 7.8446 12.7916 7.86036 12.7913ZM3.36181 12.8168L3.45701 13.0984H3.75221C3.769 13.0988 3.78373 13.1097 3.7891 13.1256C3.79446 13.1415 3.78931 13.1591 3.77621 13.1696L3.53621 13.3464L3.62661 13.628C3.63219 13.6445 3.62624 13.6627 3.61199 13.6727C3.59774 13.6827 3.5786 13.6821 3.56501 13.6712L3.32501 13.4992L3.08501 13.6712C3.07122 13.6809 3.05284 13.6809 3.03905 13.6712C3.02525 13.6616 3.019 13.6443 3.02341 13.628L3.12181 13.348L2.88181 13.1712C2.8687 13.1607 2.86355 13.1431 2.86892 13.1272C2.87428 13.1113 2.88902 13.1004 2.90581 13.1H3.20181L3.29701 12.8184C3.29781 12.7784 3.35061 12.7784 3.36181 12.8168ZM5.63061 12.8168L5.72581 13.0984H6.02101C6.0378 13.0988 6.05253 13.1097 6.0579 13.1256C6.06326 13.1415 6.05811 13.1591 6.04501 13.1696L5.80501 13.3464L5.89541 13.628C5.90099 13.6445 5.89504 13.6627 5.88079 13.6727C5.86654 13.6827 5.8474 13.6821 5.83381 13.6712L5.59381 13.4992L5.35381 13.6712C5.34002 13.6809 5.32164 13.6809 5.30785 13.6712C5.29405 13.6616 5.2878 13.6443 5.29221 13.628L5.39061 13.348L5.15061 13.1712C5.1375 13.1607 5.13235 13.1431 5.13772 13.1272C5.14308 13.1113 5.15782 13.1004 5.17461 13.1H5.47061L5.56581 12.8184C5.56661 12.7784 5.61941 12.7784 5.63061 12.8168ZM2.22821 12.0728L2.32341 12.3544H2.61861C2.6354 12.3548 2.65013 12.3657 2.6555 12.3816C2.66086 12.3975 2.65571 12.4151 2.64261 12.4256L2.40261 12.6024L2.49301 12.884C2.49859 12.9005 2.49264 12.9187 2.47839 12.9287C2.46414 12.9387 2.445 12.9381 2.43141 12.9272L2.19141 12.7552L1.95141 12.9272C1.93762 12.9369 1.91924 12.9369 1.90545 12.9272C1.89165 12.9176 1.8854 12.9003 1.88981 12.884L1.98021 12.6024L1.74021 12.4256C1.7271 12.4151 1.72195 12.3975 1.72732 12.3816C1.73268 12.3657 1.74742 12.3548 1.76421 12.3544H2.06821L2.16341 12.0728C2.16901 12.0344 2.21701 12.0344 2.22821 12.0728ZM9.00981 12.0409C9.02119 12.0475 9.02821 12.0597 9.02821 12.0728L9.12341 12.3544H9.41861C9.4354 12.3548 9.45013 12.3657 9.4555 12.3816C9.46086 12.3975 9.45571 12.4151 9.44261 12.4256L9.20261 12.6024L9.29301 12.884C9.29859 12.9005 9.29264 12.9187 9.27839 12.9287C9.26414 12.9387 9.245 12.9381 9.23141 12.9272L8.99141 12.7552L8.75141 12.9272C8.73762 12.9369 8.71924 12.9369 8.70545 12.9272C8.69165 12.9176 8.6854 12.9003 8.68981 12.884L8.78021 12.6024L8.54021 12.4256C8.5271 12.4151 8.52195 12.3975 8.52732 12.3816C8.53268 12.3657 8.54742 12.3548 8.56421 12.3544H8.85941L8.95461 12.0728C8.95461 12.0597 8.96162 12.0475 8.97301 12.0409C8.98439 12.0344 8.99842 12.0344 9.00981 12.0409ZM6.76501 12.0728L6.86021 12.3544H7.15541C7.1722 12.3548 7.18693 12.3657 7.1923 12.3816C7.19766 12.3975 7.19251 12.4151 7.17941 12.4256L6.93941 12.6024L7.02981 12.884C7.03539 12.9005 7.02944 12.9187 7.01519 12.9287C7.00094 12.9387 6.9818 12.9381 6.96821 12.9272L6.72821 12.7552L6.48821 12.9272C6.47442 12.9369 6.45604 12.9369 6.44225 12.9272C6.42845 12.9176 6.4222 12.9003 6.42661 12.884L6.51701 12.6024L6.27701 12.4256C6.2639 12.4151 6.25875 12.3975 6.26412 12.3816C6.26948 12.3657 6.28422 12.3548 6.30101 12.3544H6.59621L6.69141 12.0728C6.70101 12.0344 6.75381 12.0344 6.76501 12.0728ZM4.49621 12.0728L4.59141 12.3544H4.88661C4.9034 12.3548 4.91813 12.3657 4.9235 12.3816C4.92886 12.3975 4.92371 12.4151 4.91061 12.4256L4.67061 12.6024L4.76101 12.884C4.76659 12.9005 4.76064 12.9187 4.74639 12.9287C4.73214 12.9387 4.713 12.9381 4.69941 12.9272L4.45941 12.7552L4.21941 12.9272C4.20562 12.9369 4.18724 12.9369 4.17345 12.9272C4.15965 12.9176 4.1534 12.9003 4.15781 12.884L4.24821 12.6024L4.00821 12.4256C3.9951 12.4151 3.98995 12.3975 3.99532 12.3816C4.00068 12.3657 4.01542 12.3548 4.03221 12.3544H4.33621L4.43141 12.0728C4.43221 12.0344 4.48501 12.0344 4.49621 12.0728ZM3.36181 11.352L3.45701 11.6336H3.75221C3.769 11.634 3.78373 11.6449 3.7891 11.6608C3.79446 11.6767 3.78931 11.6943 3.77621 11.7048L3.53621 11.8816L3.62661 12.1632C3.63219 12.1797 3.62624 12.1979 3.61199 12.2079C3.59774 12.2179 3.5786 12.2173 3.56501 12.2064L3.32501 12.0344L3.08501 12.2064C3.07122 12.2161 3.05284 12.2161 3.03905 12.2064C3.02525 12.1968 3.019 12.1795 3.02341 12.1632L3.11381 11.8816L2.87381 11.7048C2.8607 11.6943 2.85555 11.6767 2.86092 11.6608C2.86628 11.6449 2.88102 11.634 2.89781 11.6336H3.20181L3.29701 11.352C3.29781 11.3192 3.35061 11.3192 3.36181 11.352ZM10.1626 11.352L10.2578 11.6336H10.553C10.5698 11.634 10.5845 11.6449 10.5899 11.6608C10.5953 11.6767 10.5901 11.6943 10.577 11.7048L10.337 11.8816L10.4274 12.1632C10.433 12.1797 10.427 12.1979 10.4128 12.2079C10.3985 12.2179 10.3794 12.2173 10.3658 12.2064L10.1258 12.0344L9.88581 12.2064C9.87202 12.2161 9.85364 12.2161 9.83985 12.2064C9.82605 12.1968 9.8198 12.1795 9.82421 12.1632L9.91461 11.8816L9.67461 11.7048C9.6615 11.6943 9.65635 11.6767 9.66172 11.6608C9.66708 11.6449 9.68182 11.634 9.69861 11.6336H9.99381L10.089 11.352C10.1034 11.3192 10.1562 11.3192 10.1626 11.352ZM1.09381 11.352L1.18901 11.6336H1.48421C1.501 11.634 1.51573 11.6449 1.5211 11.6608C1.52646 11.6767 1.52131 11.6943 1.50821 11.7048L1.26821 11.8816L1.35861 12.1632C1.36419 12.1797 1.35824 12.1979 1.34399 12.2079C1.32974 12.2179 1.3106 12.2173 1.29701 12.2064L1.05701 12.0344L0.817007 12.2064C0.80322 12.2161 0.784841 12.2161 0.771046 12.2064C0.75725 12.1968 0.750997 12.1795 0.755407 12.1632L0.845807 11.8816L0.605807 11.7048C0.592702 11.6943 0.587553 11.6767 0.592918 11.6608C0.598283 11.6449 0.613018 11.634 0.629807 11.6336H0.933807L1.02901 11.352C1.03461 11.3192 1.08261 11.3192 1.09381 11.352ZM7.89381 11.352L7.98901 11.6336H8.28421C8.301 11.634 8.31573 11.6449 8.3211 11.6608C8.32646 11.6767 8.32131 11.6943 8.30821 11.7048L8.06821 11.8816L8.15861 12.1632C8.16419 12.1797 8.15824 12.1979 8.14399 12.2079C8.12974 12.2179 8.1106 12.2173 8.09701 12.2064L7.85701 12.0344L7.61701 12.2064C7.60322 12.2161 7.58484 12.2161 7.57105 12.2064C7.55725 12.1968 7.551 12.1795 7.55541 12.1632L7.64581 11.8816L7.40581 11.7048C7.3927 11.6943 7.38755 11.6767 7.39292 11.6608C7.39828 11.6449 7.41302 11.634 7.42981 11.6336H7.72501L7.82021 11.352C7.83461 11.3192 7.88741 11.3192 7.89381 11.352ZM5.63061 11.352L5.72581 11.6336H6.02101C6.0378 11.634 6.05253 11.6449 6.0579 11.6608C6.06326 11.6767 6.05811 11.6943 6.04501 11.7048L5.80501 11.8816L5.89541 12.1632C5.90099 12.1797 5.89504 12.1979 5.88079 12.2079C5.86654 12.2179 5.8474 12.2173 5.83381 12.2064L5.59381 12.0344L5.35381 12.2064C5.34002 12.2161 5.32164 12.2161 5.30785 12.2064C5.29405 12.1968 5.2878 12.1795 5.29221 12.1632L5.38261 11.8816L5.14261 11.7048C5.1295 11.6943 5.12435 11.6767 5.12972 11.6608C5.13508 11.6449 5.14982 11.634 5.16661 11.6336H5.47061L5.56581 11.352C5.56661 11.3192 5.61941 11.3192 5.63061 11.352ZM2.22821 10.6088L2.32341 10.8904H2.61861C2.6354 10.8908 2.65013 10.9017 2.6555 10.9176C2.66086 10.9335 2.65571 10.9511 2.64261 10.9616L2.40261 11.1384L2.49301 11.42C2.49859 11.4365 2.49264 11.4547 2.47839 11.4647C2.46414 11.4747 2.445 11.4741 2.43141 11.4632L2.19141 11.2912L1.95141 11.4632C1.93762 11.4729 1.91924 11.4729 1.90545 11.4632C1.89165 11.4536 1.8854 11.4363 1.88981 11.42L1.98821 11.14L1.74821 10.9632C1.7351 10.9527 1.72995 10.9351 1.73532 10.9192C1.74068 10.9033 1.75542 10.8924 1.77221 10.892H2.06821L2.16341 10.6104C2.16901 10.5704 2.21701 10.5704 2.22821 10.6088ZM8.99141 10.572C9.01173 10.572 9.02821 10.5885 9.02821 10.6088L9.12341 10.8904H9.41861C9.4354 10.8908 9.45013 10.9017 9.4555 10.9176C9.46086 10.9335 9.45571 10.9511 9.44261 10.9616L9.20261 11.1384L9.29301 11.42C9.29859 11.4365 9.29264 11.4547 9.27839 11.4647C9.26414 11.4747 9.245 11.4741 9.23141 11.4632L8.99141 11.2912L8.75141 11.4632C8.73762 11.4729 8.71924 11.4729 8.70545 11.4632C8.69165 11.4536 8.6854 11.4363 8.68981 11.42L8.78021 11.1384L8.54021 10.9616C8.5271 10.9511 8.52195 10.9335 8.52732 10.9176C8.53268 10.9017 8.54742 10.8908 8.56421 10.8904H8.85941L8.95461 10.6088C8.95461 10.5885 8.97108 10.572 8.99141 10.572ZM6.76501 10.6088L6.86021 10.8904H7.15541C7.1722 10.8908 7.18693 10.9017 7.1923 10.9176C7.19766 10.9335 7.19251 10.9511 7.17941 10.9616L6.93941 11.1384L7.02981 11.42C7.03539 11.4365 7.02944 11.4547 7.01519 11.4647C7.00094 11.4747 6.9818 11.4741 6.96821 11.4632L6.72821 11.2912L6.48821 11.4632C6.47442 11.4729 6.45604 11.4729 6.44225 11.4632C6.42845 11.4536 6.4222 11.4363 6.42661 11.42L6.51701 11.1384L6.27701 10.9616C6.2639 10.9511 6.25875 10.9335 6.26412 10.9176C6.26948 10.9017 6.28422 10.8908 6.30101 10.8904H6.59621L6.69141 10.6088C6.70101 10.5704 6.75381 10.5704 6.76501 10.6088ZM4.49621 10.6088L4.59141 10.8904H4.88661C4.9034 10.8908 4.91813 10.9017 4.9235 10.9176C4.92886 10.9335 4.92371 10.9511 4.91061 10.9616L4.67061 11.1384L4.76101 11.42C4.76659 11.4365 4.76064 11.4547 4.74639 11.4647C4.73214 11.4747 4.713 11.4741 4.69941 11.4632L4.45941 11.2912L4.21941 11.4632C4.20562 11.4729 4.18724 11.4729 4.17345 11.4632C4.15965 11.4536 4.1534 11.4363 4.15781 11.42L4.25621 11.14L4.01621 10.9632C4.0031 10.9527 3.99795 10.9351 4.00332 10.9192C4.00868 10.9033 4.02342 10.8924 4.04021 10.892H4.33621L4.43141 10.6104C4.43221 10.5704 4.48501 10.5704 4.49621 10.6088ZM3.36181 9.89281L3.45701 10.1744H3.75221C3.769 10.1748 3.78373 10.1857 3.7891 10.2016C3.79446 10.2175 3.78931 10.2351 3.77621 10.2456L3.53621 10.4224L3.62661 10.704C3.63219 10.7205 3.62624 10.7387 3.61199 10.7487C3.59774 10.7587 3.5786 10.7581 3.56501 10.7472L3.32501 10.5752L3.08501 10.7472C3.07122 10.7569 3.05284 10.7569 3.03905 10.7472C3.02525 10.7376 3.019 10.7203 3.02341 10.704L3.12181 10.424L2.88181 10.2472C2.8687 10.2367 2.86355 10.2191 2.86892 10.2032C2.87428 10.1873 2.88902 10.1764 2.90581 10.176H3.20181L3.29701 9.89441C3.29781 9.85441 3.35061 9.85441 3.36181 9.89281ZM10.1292 9.86726C10.1449 9.86687 10.1588 9.8775 10.1626 9.89281L10.2578 10.1744H10.553C10.5698 10.1748 10.5845 10.1857 10.5899 10.2016C10.5953 10.2175 10.5901 10.2351 10.577 10.2456L10.337 10.4224L10.4274 10.704C10.433 10.7205 10.427 10.7387 10.4128 10.7487C10.3985 10.7587 10.3794 10.7581 10.3658 10.7472L10.1258 10.5752L9.88581 10.7472C9.87202 10.7569 9.85364 10.7569 9.83985 10.7472C9.82605 10.7376 9.8198 10.7203 9.82421 10.704L9.92261 10.424L9.68261 10.2472C9.6695 10.2367 9.66435 10.2191 9.66972 10.2032C9.67508 10.1873 9.68982 10.1764 9.70661 10.176H10.0018L10.097 9.89441C10.1 9.87893 10.1134 9.86764 10.1292 9.86726ZM7.85701 9.85601C7.87733 9.85601 7.89381 9.87248 7.89381 9.89281L7.98901 10.1744H8.28421C8.301 10.1748 8.31573 10.1857 8.3211 10.2016C8.32646 10.2175 8.32131 10.2351 8.30821 10.2456L8.06821 10.4224L8.15861 10.704C8.16419 10.7205 8.15824 10.7387 8.14399 10.7487C8.12974 10.7587 8.1106 10.7581 8.09701 10.7472L7.85701 10.5752L7.61701 10.7472C7.60322 10.7569 7.58484 10.7569 7.57105 10.7472C7.55725 10.7376 7.551 10.7203 7.55541 10.704L7.64581 10.4224L7.40581 10.2456C7.3927 10.2351 7.38755 10.2175 7.39292 10.2016C7.39828 10.1857 7.41302 10.1748 7.42981 10.1744H7.72501L7.82021 9.89281C7.82021 9.87248 7.83668 9.85601 7.85701 9.85601ZM1.09381 9.89281L1.18901 10.1744H1.48421C1.501 10.1748 1.51573 10.1857 1.5211 10.2016C1.52646 10.2175 1.52131 10.2351 1.50821 10.2456L1.26821 10.4224L1.35861 10.704C1.36419 10.7205 1.35824 10.7387 1.34399 10.7487C1.32974 10.7587 1.3106 10.7581 1.29701 10.7472L1.05701 10.5752L0.817007 10.7472C0.80322 10.7569 0.784841 10.7569 0.771046 10.7472C0.75725 10.7376 0.750997 10.7203 0.755407 10.704L0.853807 10.424L0.613807 10.2472C0.600702 10.2367 0.595553 10.2191 0.600918 10.2032C0.606283 10.1873 0.621018 10.1764 0.637807 10.176H0.933807L1.02901 9.89441C1.03461 9.85441 1.08261 9.85441 1.09381 9.89281ZM5.63061 9.89281L5.72581 10.1744H6.02101C6.0378 10.1748 6.05253 10.1857 6.0579 10.2016C6.06326 10.2175 6.05811 10.2351 6.04501 10.2456L5.80501 10.4224L5.89541 10.704C5.90099 10.7205 5.89504 10.7387 5.88079 10.7487C5.86654 10.7587 5.8474 10.7581 5.83381 10.7472L5.59381 10.5752L5.35381 10.7472C5.34002 10.7569 5.32164 10.7569 5.30785 10.7472C5.29405 10.7376 5.2878 10.7203 5.29221 10.704L5.38261 10.4224L5.14261 10.2456C5.1295 10.2351 5.12435 10.2175 5.12972 10.2016C5.13508 10.1857 5.14982 10.1748 5.16661 10.1744H5.47061L5.56581 9.89281C5.56661 9.85441 5.61941 9.85441 5.63061 9.89281ZM2.22821 9.14321L2.32341 9.42481H2.61861C2.6354 9.42523 2.65013 9.4361 2.6555 9.45202C2.66086 9.46793 2.65571 9.4855 2.64261 9.49601L2.40261 9.67281L2.49301 9.95441C2.49859 9.97089 2.49264 9.98909 2.47839 9.99908C2.46414 10.0091 2.445 10.0085 2.43141 9.99761L2.19141 9.82561L1.95141 9.99761C1.93762 10.0073 1.91924 10.0073 1.90545 9.99763C1.89165 9.98795 1.8854 9.97067 1.88981 9.95441L1.98021 9.67281L1.74021 9.49601C1.7271 9.4855 1.72195 9.46793 1.72732 9.45202C1.73268 9.4361 1.74742 9.42523 1.76421 9.42481H2.06821L2.16341 9.14321C2.16901 9.11041 2.21701 9.11041 2.22821 9.14321ZM6.76501 9.14321L6.86021 9.42481H7.15541C7.1722 9.42523 7.18693 9.4361 7.1923 9.45202C7.19766 9.46793 7.19251 9.4855 7.17941 9.49601L6.93941 9.67281L7.02981 9.95441C7.03539 9.97089 7.02944 9.98909 7.01519 9.99908C7.00094 10.0091 6.9818 10.0085 6.96821 9.99761L6.72821 9.82561L6.48821 9.99761C6.47442 10.0073 6.45604 10.0073 6.44225 9.99763C6.42845 9.98795 6.4222 9.97067 6.42661 9.95441L6.51701 9.67281L6.27701 9.49601C6.2639 9.4855 6.25875 9.46793 6.26412 9.45202C6.26948 9.4361 6.28422 9.42523 6.30101 9.42481H6.59621L6.69141 9.14321C6.70101 9.11041 6.75381 9.11041 6.76501 9.14321ZM4.49621 9.14321L4.59141 9.42481H4.88661C4.9034 9.42523 4.91813 9.4361 4.9235 9.45202C4.92886 9.46793 4.92371 9.4855 4.91061 9.49601L4.67061 9.67281L4.76101 9.95441C4.76659 9.97089 4.76064 9.98909 4.74639 9.99908C4.73214 10.0091 4.713 10.0085 4.69941 9.99761L4.45941 9.82561L4.21941 9.99761C4.20562 10.0073 4.18724 10.0073 4.17345 9.99763C4.15965 9.98795 4.1534 9.97067 4.15781 9.95441L4.24821 9.67281L4.00821 9.49601C3.9951 9.4855 3.98995 9.46793 3.99532 9.45202C4.00068 9.4361 4.01542 9.42523 4.03221 9.42481H4.33621L4.43141 9.14321C4.43221 9.11041 4.48501 9.11041 4.49621 9.14321ZM9.02821 9.14321L9.12341 9.42481H9.41861C9.4354 9.42523 9.45013 9.4361 9.4555 9.45202C9.46086 9.46793 9.45571 9.4855 9.44261 9.49601L9.20261 9.67281L9.29301 9.95441C9.29859 9.97089 9.29264 9.98909 9.27839 9.99908C9.26414 10.0091 9.245 10.0085 9.23141 9.99761L8.99141 9.82561L8.75141 9.99761C8.73762 10.0073 8.71924 10.0073 8.70545 9.99763C8.69165 9.98795 8.6854 9.97067 8.68981 9.95441L8.78021 9.67281L8.54021 9.49601C8.5271 9.4855 8.52195 9.46793 8.52732 9.45202C8.53268 9.4361 8.54742 9.42523 8.56421 9.42481H8.85941L8.95461 9.14321C8.96901 9.11041 9.02181 9.11041 9.02821 9.14321ZM5.63061 8.42801L5.72581 8.70961H6.02101C6.0378 8.71003 6.05253 8.7209 6.0579 8.73682C6.06326 8.75273 6.05811 8.7703 6.04501 8.78081L5.80501 8.95761L5.89541 9.23921C5.90099 9.25569 5.89504 9.27389 5.88079 9.28388C5.86654 9.29387 5.8474 9.29327 5.83381 9.28241L5.59381 9.11041L5.35381 9.28241C5.34002 9.29209 5.32164 9.2921 5.30785 9.28243C5.29405 9.27275 5.2878 9.25547 5.29221 9.23921L5.38261 8.95761L5.14261 8.78081C5.1295 8.7703 5.12435 8.75273 5.12972 8.73682C5.13508 8.7209 5.14982 8.71003 5.16661 8.70961H5.47061L5.56581 8.42801C5.56661 8.39521 5.61941 8.39521 5.63061 8.42801ZM1.09381 8.42801L1.18901 8.70961H1.48421C1.501 8.71003 1.51573 8.7209 1.5211 8.73682C1.52646 8.75273 1.52131 8.7703 1.50821 8.78081L1.26821 8.95761L1.35861 9.23921C1.36419 9.25569 1.35824 9.27389 1.34399 9.28388C1.32974 9.29387 1.3106 9.29327 1.29701 9.28241L1.05701 9.11041L0.817007 9.28241C0.80322 9.29209 0.784841 9.2921 0.771046 9.28243C0.75725 9.27275 0.750997 9.25547 0.755407 9.23921L0.845807 8.95761L0.605807 8.78081C0.592702 8.7703 0.587553 8.75273 0.592918 8.73682C0.598283 8.7209 0.613018 8.71003 0.629807 8.70961H0.933807L1.02901 8.42801C1.03461 8.39521 1.08261 8.39521 1.09381 8.42801ZM3.36501 8.42801L3.46021 8.70961H3.75701C3.7738 8.71003 3.78853 8.7209 3.7939 8.73682C3.79926 8.75273 3.79411 8.7703 3.78101 8.78081L3.54101 8.95761L3.63141 9.23921C3.63699 9.25569 3.63104 9.27389 3.61679 9.28388C3.60254 9.29387 3.5834 9.29327 3.56981 9.28241L3.32981 9.11041L3.08981 9.28241C3.07602 9.29209 3.05764 9.2921 3.04385 9.28243C3.03005 9.27275 3.0238 9.25547 3.02821 9.23921L3.11861 8.95761L2.87861 8.78081C2.8655 8.7703 2.86035 8.75273 2.86572 8.73682C2.87108 8.7209 2.88582 8.71003 2.90261 8.70961H3.19701L3.29221 8.42801C3.29781 8.39521 3.35061 8.39521 3.36501 8.42801ZM7.89381 8.42801L7.98901 8.70961H8.28421C8.301 8.71003 8.31573 8.7209 8.3211 8.73682C8.32646 8.75273 8.32131 8.7703 8.30821 8.78081L8.06821 8.95761L8.15861 9.23921C8.16419 9.25569 8.15824 9.27389 8.14399 9.28388C8.12974 9.29387 8.1106 9.29327 8.09701 9.28241L7.85701 9.11041L7.61701 9.28241C7.60322 9.29209 7.58484 9.2921 7.57105 9.28243C7.55725 9.27275 7.551 9.25547 7.55541 9.23921L7.64581 8.95761L7.40581 8.78081C7.3927 8.7703 7.38755 8.75273 7.39292 8.73682C7.39828 8.7209 7.41302 8.71003 7.42981 8.70961H7.72501L7.82021 8.42801C7.83461 8.39521 7.88741 8.39521 7.89381 8.42801ZM10.1626 8.42801L10.2578 8.70961H10.553C10.5698 8.71003 10.5845 8.7209 10.5899 8.73682C10.5953 8.75273 10.5901 8.7703 10.577 8.78081L10.337 8.95761L10.4274 9.23921C10.433 9.25569 10.427 9.27389 10.4128 9.28388C10.3985 9.29387 10.3794 9.29327 10.3658 9.28241L10.1258 9.11041L9.88581 9.28241C9.87202 9.29209 9.85364 9.2921 9.83985 9.28243C9.82605 9.27275 9.8198 9.25547 9.82421 9.23921L9.91461 8.95761L9.67461 8.78081C9.6615 8.7703 9.65635 8.75273 9.66172 8.73682C9.66708 8.7209 9.68182 8.71003 9.69861 8.70961H9.99381L10.089 8.42801C10.1034 8.39521 10.1562 8.39521 10.1626 8.42801ZM6.76501 7.68401L6.86021 7.96561H7.15541C7.1722 7.96603 7.18693 7.9769 7.1923 7.99282C7.19766 8.00873 7.19251 8.0263 7.17941 8.03681L6.93941 8.21361L7.02981 8.49521C7.03539 8.51169 7.02944 8.52989 7.01519 8.53988C7.00094 8.54987 6.9818 8.54927 6.96821 8.53841L6.72821 8.36641L6.48821 8.53841C6.47442 8.54809 6.45604 8.5481 6.44225 8.53843C6.42845 8.52875 6.4222 8.51147 6.42661 8.49521L6.51701 8.21361L6.27701 8.03681C6.2639 8.0263 6.25875 8.00873 6.26412 7.99282C6.26948 7.9769 6.28422 7.96603 6.30101 7.96561H6.59621L6.69141 7.68401C6.70101 7.64561 6.75381 7.64561 6.76501 7.68401ZM4.49621 7.68401L4.59141 7.96561H4.88661C4.9034 7.96603 4.91813 7.9769 4.9235 7.99282C4.92886 8.00873 4.92371 8.0263 4.91061 8.03681L4.67061 8.21361L4.76101 8.49521C4.76659 8.51169 4.76064 8.52989 4.74639 8.53988C4.73214 8.54987 4.713 8.54927 4.69941 8.53841L4.45941 8.36641L4.21941 8.53841C4.20562 8.54809 4.18724 8.5481 4.17345 8.53843C4.15965 8.52875 4.1534 8.51147 4.15781 8.49521L4.25621 8.21521L4.01621 8.03841C4.0031 8.0279 3.99795 8.01033 4.00332 7.99442C4.00868 7.9785 4.02342 7.96763 4.04021 7.96721H4.33621L4.43141 7.68561C4.43221 7.64561 4.48501 7.64561 4.49621 7.68401ZM2.22821 7.68401L2.32341 7.96561H2.61861C2.6354 7.96603 2.65013 7.9769 2.6555 7.99282C2.66086 8.00873 2.65571 8.0263 2.64261 8.03681L2.40261 8.21361L2.49301 8.49521C2.49859 8.51169 2.49264 8.52989 2.47839 8.53988C2.46414 8.54987 2.445 8.54927 2.43141 8.53841L2.19141 8.36641L1.95141 8.53841C1.93762 8.54809 1.91924 8.5481 1.90545 8.53843C1.89165 8.52875 1.8854 8.51147 1.88981 8.49521L1.98821 8.21521L1.74821 8.03841C1.7351 8.0279 1.72995 8.01033 1.73532 7.99442C1.74068 7.9785 1.75542 7.96763 1.77221 7.96721H2.06821L2.16341 7.68561C2.16901 7.64561 2.21701 7.64561 2.22821 7.68401ZM9.00981 7.65214C9.02119 7.65871 9.02821 7.67086 9.02821 7.68401L9.12341 7.96561H9.41861C9.4354 7.96603 9.45013 7.9769 9.4555 7.99282C9.46086 8.00873 9.45571 8.0263 9.44261 8.03681L9.20261 8.21361L9.29301 8.49521C9.29859 8.51169 9.29264 8.52989 9.27839 8.53988C9.26414 8.54987 9.245 8.54927 9.23141 8.53841L8.99141 8.36641L8.75141 8.53841C8.73762 8.54809 8.71924 8.5481 8.70545 8.53843C8.69165 8.52875 8.6854 8.51147 8.68981 8.49521L8.78021 8.21361L8.54021 8.03681C8.5271 8.0263 8.52195 8.00873 8.52732 7.99282C8.53268 7.9769 8.54742 7.96603 8.56421 7.96561H8.85941L8.95461 7.68401C8.95461 7.67086 8.96162 7.65871 8.97301 7.65214C8.98439 7.64556 8.99842 7.64556 9.00981 7.65214ZM1.09381 6.96881L1.18901 7.25041H1.48421C1.501 7.25083 1.51573 7.2617 1.5211 7.27762C1.52646 7.29353 1.52131 7.3111 1.50821 7.32161L1.26821 7.49841L1.35861 7.78001C1.36419 7.79649 1.35824 7.81469 1.34399 7.82468C1.32974 7.83467 1.3106 7.83407 1.29701 7.82321L1.05701 7.65121L0.817007 7.82321C0.80322 7.83289 0.784841 7.8329 0.771046 7.82323C0.75725 7.81355 0.750997 7.79627 0.755407 7.78001L0.853807 7.50001L0.613807 7.32321C0.600702 7.3127 0.595553 7.29513 0.600918 7.27922C0.606283 7.2633 0.621018 7.25243 0.637807 7.25201H0.933807L1.02901 6.97041C1.03461 6.93041 1.08261 6.93041 1.09381 6.96881ZM3.36181 6.96881L3.45701 7.25041H3.75221C3.769 7.25083 3.78373 7.2617 3.7891 7.27762C3.79446 7.29353 3.78931 7.3111 3.77621 7.32161L3.53621 7.49841L3.62661 7.78001C3.63219 7.79649 3.62624 7.81469 3.61199 7.82468C3.59774 7.83467 3.5786 7.83407 3.56501 7.82321L3.32501 7.65121L3.08501 7.82321C3.07122 7.83289 3.05284 7.8329 3.03905 7.82323C3.02525 7.81355 3.019 7.79627 3.02341 7.78001L3.12181 7.50001L2.88181 7.32321C2.8687 7.3127 2.86355 7.29513 2.86892 7.27922C2.87428 7.2633 2.88902 7.25243 2.90581 7.25201H3.20181L3.29701 6.97041C3.29781 6.93041 3.35061 6.93041 3.36181 6.96881ZM5.63061 6.96881L5.72581 7.25041H6.02101C6.0378 7.25083 6.05253 7.2617 6.0579 7.27762C6.06326 7.29353 6.05811 7.3111 6.04501 7.32161L5.80501 7.49841L5.89541 7.78001C5.90099 7.79649 5.89504 7.81469 5.88079 7.82468C5.86654 7.83467 5.8474 7.83407 5.83381 7.82321L5.59381 7.65121L5.35381 7.82321C5.34002 7.83289 5.32164 7.8329 5.30785 7.82323C5.29405 7.81355 5.2878 7.79627 5.29221 7.78001L5.38261 7.49841L5.14261 7.32161C5.1295 7.3111 5.12435 7.29353 5.12972 7.27762C5.13508 7.2617 5.14982 7.25083 5.16661 7.25041H5.47061L5.56581 6.96881C5.56661 6.93041 5.61941 6.93041 5.63061 6.96881ZM7.87541 6.93694C7.88679 6.94351 7.89381 6.95566 7.89381 6.96881L7.98901 7.25041H8.28421C8.301 7.25083 8.31573 7.2617 8.3211 7.27762C8.32646 7.29353 8.32131 7.3111 8.30821 7.32161L8.06821 7.49841L8.15861 7.78001C8.16419 7.79649 8.15824 7.81469 8.14399 7.82468C8.12974 7.83467 8.1106 7.83407 8.09701 7.82321L7.85701 7.65121L7.61701 7.82321C7.60322 7.83289 7.58484 7.8329 7.57105 7.82323C7.55725 7.81355 7.551 7.79627 7.55541 7.78001L7.64581 7.49841L7.40581 7.32161C7.3927 7.3111 7.38755 7.29353 7.39292 7.27762C7.39828 7.2617 7.41302 7.25083 7.42981 7.25041H7.72501L7.82021 6.96881C7.82021 6.95566 7.82722 6.94351 7.83861 6.93694C7.84999 6.93036 7.86402 6.93036 7.87541 6.93694ZM10.1292 6.94326C10.1449 6.94287 10.1588 6.9535 10.1626 6.96881L10.2578 7.25041H10.553C10.5698 7.25083 10.5845 7.2617 10.5899 7.27762C10.5953 7.29353 10.5901 7.3111 10.577 7.32161L10.337 7.49841L10.4274 7.78001C10.433 7.79649 10.427 7.81469 10.4128 7.82468C10.3985 7.83467 10.3794 7.83407 10.3658 7.82321L10.1258 7.65121L9.88581 7.82321C9.87202 7.83289 9.85364 7.8329 9.83985 7.82323C9.82605 7.81355 9.8198 7.79627 9.82421 7.78001L9.92261 7.50001L9.68261 7.32321C9.6695 7.3127 9.66435 7.29513 9.66972 7.27922C9.67508 7.2633 9.68982 7.25243 9.70661 7.25201H10.0018L10.097 6.97041C10.1 6.95493 10.1134 6.94364 10.1292 6.94326Z" fill="#F5F5F5"/>
<path fill-rule="evenodd" clip-rule="evenodd" d="M22 7H2C1.44772 7 1 7.44772 1 8V20C1 20.5523 1.44772 21 2 21H22C22.5523 21 23 20.5523 23 20V8C23 7.44771 22.5523 7 22 7ZM2 6C0.895431 6 0 6.89543 0 8V20C0 21.1046 0.89543 22 2 22H22C23.1046 22 24 21.1046 24 20V8C24 6.89543 23.1046 6 22 6H2Z" fill="black" fill-opacity="0.04"/>
</g>
<path d="M30 14H10C8.89543 14 8 14.8954 8 16V28C8 29.1046 8.89543 30 10 30H30C31.1046 30 32 29.1046 32 28V16C32 14.8954 31.1046 14 30 14Z" fill="#F44336"/>
<path d="M24.5515 20.3186H21.6549V17.3761C21.6549 17.1439 21.4696 16.9557 21.2411 16.9557H18.7584C18.5298 16.9557 18.3445 17.1439 18.3445 17.3761V20.3186H15.448C15.2195 20.3186 15.0342 20.5068 15.0342 20.739V23.2612C15.0342 23.4933 15.2195 23.6815 15.448 23.6815H18.3445V26.6241C18.3445 26.8562 18.5298 27.0445 18.7584 27.0445H21.2411C21.4696 27.0445 21.6549 26.8562 21.6549 26.6241V23.6815H24.5515C24.78 23.6815 24.9653 23.4932 24.9653 23.2611V20.7389C24.9653 20.5068 24.78 20.3186 24.5515 20.3186Z" fill="white"/>
<path fill-rule="evenodd" clip-rule="evenodd" d="M30 15H10C9.44772 15 9 15.4477 9 16V28C9 28.5523 9.44772 29 10 29H30C30.5523 29 31 28.5523 31 28V16C31 15.4477 30.5523 15 30 15ZM10 14C8.89543 14 8 14.8954 8 16V28C8 29.1046 8.89543 30 10 30H30C31.1046 30 32 29.1046 32 28V16C32 14.8954 31.1046 14 30 14H10Z" fill="black" fill-opacity="0.04"/>
<path d="M18 1C18 0.447715 18.4477 0 19 0H31C31.5523 0 32 0.447715 32 1V7C32 7.55228 31.5523 8 31 8H19C18.4477 8 18 7.55228 18 7V1Z" fill="#0E0E0E"/>
<path d="M20.1359 6.09398V5.52998H21.3119V2.39798H21.2639L20.2919 3.43598L19.8779 3.06398L20.9459 1.90598H21.9779V5.52998H22.9979V6.09398H20.1359Z" fill="white"/>
<path d="M25.0056 6.16598C24.7456 6.16598 24.5196 6.11798 24.3276 6.02198C24.1356 5.92198 23.9776 5.77998 23.8536 5.59598C23.7296 5.41198 23.6376 5.18598 23.5776 4.91798C23.5176 4.64998 23.4876 4.34398 23.4876 3.99998C23.4876 3.65998 23.5176 3.35598 23.5776 3.08798C23.6376 2.81598 23.7296 2.58798 23.8536 2.40398C23.9776 2.21998 24.1356 2.07998 24.3276 1.98398C24.5196 1.88398 24.7456 1.83398 25.0056 1.83398C25.5256 1.83398 25.9076 2.02398 26.1516 2.40398C26.3996 2.78398 26.5236 3.31598 26.5236 3.99998C26.5236 4.68398 26.3996 5.21598 26.1516 5.59598C25.9076 5.97598 25.5256 6.16598 25.0056 6.16598ZM25.0056 5.58998C25.1496 5.58998 25.2716 5.56198 25.3716 5.50598C25.4756 5.44598 25.5596 5.36198 25.6236 5.25398C25.6876 5.14598 25.7336 5.01798 25.7616 4.86998C25.7896 4.71798 25.8036 4.54998 25.8036 4.36598V3.63398C25.8036 3.44998 25.7896 3.28398 25.7616 3.13598C25.7336 2.98398 25.6876 2.85398 25.6236 2.74598C25.5596 2.63798 25.4756 2.55598 25.3716 2.49998C25.2716 2.43998 25.1496 2.40998 25.0056 2.40998C24.8616 2.40998 24.7376 2.43998 24.6336 2.49998C24.5336 2.55598 24.4516 2.63798 24.3876 2.74598C24.3236 2.85398 24.2776 2.98398 24.2496 3.13598C24.2216 3.28398 24.2076 3.44998 24.2076 3.63398V4.36598C24.2076 4.54998 24.2216 4.71798 24.2496 4.86998C24.2776 5.01798 24.3236 5.14598 24.3876 5.25398C24.4516 5.36198 24.5336 5.44598 24.6336 5.50598C24.7376 5.56198 24.8616 5.58998 25.0056 5.58998Z" fill="white"/>
<path d="M28.6032 6.16598C28.3432 6.16598 28.1172 6.11798 27.9252 6.02198C27.7332 5.92198 27.5752 5.77998 27.4512 5.59598C27.3272 5.41198 27.2352 5.18598 27.1752 4.91798C27.1152 4.64998 27.0852 4.34398 27.0852 3.99998C27.0852 3.65998 27.1152 3.35598 27.1752 3.08798C27.2352 2.81598 27.3272 2.58798 27.4512 2.40398C27.5752 2.21998 27.7332 2.07998 27.9252 1.98398C28.1172 1.88398 28.3432 1.83398 28.6032 1.83398C29.1232 1.83398 29.5052 2.02398 29.7492 2.40398C29.9972 2.78398 30.1212 3.31598 30.1212 3.99998C30.1212 4.68398 29.9972 5.21598 29.7492 5.59598C29.5052 5.97598 29.1232 6.16598 28.6032 6.16598ZM28.6032 5.58998C28.7472 5.58998 28.8692 5.56198 28.9692 5.50598C29.0732 5.44598 29.1572 5.36198 29.2212 5.25398C29.2852 5.14598 29.3312 5.01798 29.3592 4.86998C29.3872 4.71798 29.4012 4.54998 29.4012 4.36598V3.63398C29.4012 3.44998 29.3872 3.28398 29.3592 3.13598C29.3312 2.98398 29.2852 2.85398 29.2212 2.74598C29.1572 2.63798 29.0732 2.55598 28.9692 2.49998C28.8692 2.43998 28.7472 2.40998 28.6032 2.40998C28.4592 2.40998 28.3352 2.43998 28.2312 2.49998C28.1312 2.55598 28.0492 2.63798 27.9852 2.74598C27.9212 2.85398 27.8752 2.98398 27.8472 3.13598C27.8192 3.28398 27.8052 3.44998 27.8052 3.63398V4.36598C27.8052 4.54998 27.8192 4.71798 27.8472 4.86998C27.8752 5.01798 27.9212 5.14598 27.9852 5.25398C28.0492 5.36198 28.1312 5.44598 28.2312 5.50598C28.3352 5.56198 28.4592 5.58998 28.6032 5.58998Z" fill="white"/>
</svg>
