<svg width="33" height="32" viewBox="0 0 33 32" fill="none" xmlns="http://www.w3.org/2000/svg">
<path d="M23.166 13.0001H24.666V22H23.166V32H22.166V22H20.666V13.0001H22.166V11.0001H23.166V13.0001Z" fill="#85ACB0"/>
<path d="M30.666 11V18H29.166V22H28.166V18H26.666V11H30.666Z" fill="#85ACB0"/>
<path d="M17.166 20V16H16.166V20H14.666V28H16.166V30H17.166V28H18.666V20H17.166Z" fill="#85ACB0"/>
<path d="M11.166 15H12.666V21H11.166V28H10.166V21H8.66602V15H10.166V13H11.166V15Z" fill="#85ACB0"/>
<path d="M5.16602 19H6.66602V23H5.16602V25H4.16602V23H2.66602V19H4.16602V17H5.16602V19Z" fill="#85ACB0"/>
<path d="M22.666 5C22.666 2.23858 24.9046 0 27.666 0C30.4274 0 32.666 2.23858 32.666 5C32.666 7.76142 30.4274 10 27.666 10C24.9046 10 22.666 7.76142 22.666 5Z" fill="#FF444F"/>
<path d="M24.9204 7.00001V6.27401H26.0484V3.46601H25.9944L25.1424 4.58201L24.5664 4.13201L25.5684 2.81201H26.9484V6.27401H27.8364V7.00001H24.9204Z" fill="white"/>
<path d="M29.4361 7.07201C29.1321 7.07201 28.8761 7.02401 28.6681 6.92801C28.4601 6.82801 28.2741 6.68801 28.1101 6.50801L28.6321 5.98001C28.7441 6.10401 28.8681 6.20201 29.0041 6.27401C29.1401 6.34601 29.2941 6.38201 29.4661 6.38201C29.6421 6.38201 29.7641 6.35601 29.8321 6.30401C29.9001 6.24801 29.9341 6.17401 29.9341 6.08201C29.9341 5.93401 29.8281 5.84601 29.6161 5.81801L29.2741 5.77601C28.5661 5.68801 28.2121 5.36401 28.2121 4.80401C28.2121 4.65201 28.2401 4.51401 28.2961 4.39001C28.3561 4.26201 28.4381 4.15401 28.5421 4.06601C28.6501 3.97401 28.7781 3.90401 28.9261 3.85601C29.0781 3.80401 29.2481 3.77801 29.4361 3.77801C29.6001 3.77801 29.7441 3.79001 29.8681 3.81401C29.9961 3.83401 30.1081 3.86601 30.2041 3.91001C30.3041 3.95001 30.3941 4.00201 30.4741 4.06601C30.5581 4.12601 30.6401 4.19401 30.7201 4.27001L30.2101 4.79201C30.1101 4.69201 29.9961 4.61401 29.8681 4.55801C29.7441 4.49801 29.6161 4.46801 29.4841 4.46801C29.3321 4.46801 29.2241 4.49201 29.1601 4.54001C29.0961 4.58801 29.0641 4.65201 29.0641 4.73201C29.0641 4.81601 29.0861 4.88201 29.1301 4.93001C29.1781 4.97401 29.2661 5.00601 29.3941 5.02601L29.7481 5.07401C30.4401 5.16601 30.7861 5.48201 30.7861 6.02201C30.7861 6.17401 30.7541 6.31401 30.6901 6.44201C30.6261 6.57001 30.5341 6.68201 30.4141 6.77801C30.2981 6.87001 30.1561 6.94201 29.9881 6.99401C29.8241 7.04601 29.6401 7.07201 29.4361 7.07201Z" fill="white"/>
<path d="M0.666016 2C0.666016 0.89543 1.56145 0 2.66602 0H12.666C13.7706 0 14.666 0.895431 14.666 2V8C14.666 9.10457 13.7706 10 12.666 10H2.66602C1.56145 10 0.666016 9.10457 0.666016 8V2Z" fill="#0E0E0E"/>
<path d="M4.87309 4.4451C5.18758 4.4451 5.41503 4.38613 5.55542 4.2682C5.70144 4.14465 5.77445 3.99302 5.77445 3.81331V3.75434C5.77445 3.54093 5.70425 3.36965 5.56385 3.24048C5.42907 3.11131 5.23532 3.04673 4.9826 3.04673C4.74673 3.04673 4.5249 3.1085 4.31711 3.23205C4.10932 3.34999 3.93241 3.52128 3.7864 3.74591L2.99455 3.00461C3.10687 2.85859 3.22761 2.72662 3.35678 2.60868C3.48595 2.48513 3.63196 2.38124 3.79482 2.297C3.95769 2.20714 4.1402 2.13975 4.34238 2.09482C4.54455 2.04428 4.772 2.01901 5.02472 2.01901C5.33921 2.01901 5.62282 2.05551 5.87553 2.12852C6.13387 2.20153 6.35289 2.30823 6.5326 2.44863C6.71793 2.58341 6.85833 2.74627 6.9538 2.93722C7.05488 3.12816 7.10543 3.34157 7.10543 3.57744C7.10543 3.76276 7.07454 3.93124 7.01276 4.08287C6.95661 4.2345 6.87517 4.36648 6.76847 4.4788C6.66738 4.59112 6.54945 4.68378 6.41467 4.75679C6.27988 4.82418 6.13668 4.87191 5.98505 4.89999V4.95054C6.15914 4.98423 6.31919 5.04039 6.46521 5.11902C6.61684 5.19202 6.74601 5.28749 6.85271 5.40543C6.96503 5.52336 7.05208 5.66376 7.11385 5.82663C7.17563 5.98387 7.20652 6.16358 7.20652 6.36576C7.20652 6.62971 7.15316 6.86839 7.04646 7.08179C6.93976 7.2952 6.78813 7.47772 6.59157 7.62935C6.39501 7.78098 6.15914 7.89891 5.88396 7.98315C5.60878 8.06178 5.30551 8.10109 4.97417 8.10109C4.67653 8.10109 4.41258 8.0702 4.18232 8.00842C3.95207 7.94665 3.74989 7.86522 3.5758 7.76413C3.40732 7.65743 3.2585 7.53668 3.12933 7.4019C3.00578 7.26712 2.89627 7.12391 2.8008 6.97228L3.73586 6.24782C3.86502 6.48931 4.02227 6.68867 4.2076 6.84592C4.39854 6.99755 4.65406 7.07337 4.97417 7.07337C5.26059 7.07337 5.48242 7.00317 5.63966 6.86277C5.80253 6.71675 5.88396 6.5202 5.88396 6.27309V6.22255C5.88396 5.98106 5.79129 5.80135 5.60597 5.68342C5.42626 5.55987 5.17635 5.49809 4.85624 5.49809H4.32553V4.4451H4.87309ZM10.2443 8.10109C9.47488 8.10109 8.90486 7.83433 8.53421 7.30081C8.16355 6.7673 7.97823 6.02038 7.97823 5.06005C7.97823 4.09972 8.16355 3.3528 8.53421 2.81928C8.90486 2.28577 9.47488 2.01901 10.2443 2.01901C11.0136 2.01901 11.5837 2.28577 11.9543 2.81928C12.325 3.3528 12.5103 4.09972 12.5103 5.06005C12.5103 6.02038 12.325 6.7673 11.9543 7.30081C11.5837 7.83433 11.0136 8.10109 10.2443 8.10109ZM10.2443 7.03125C10.5812 7.03125 10.8143 6.9077 10.9435 6.66059C11.0726 6.41349 11.1372 6.0653 11.1372 5.61603V4.50407C11.1372 4.05479 11.0726 3.7066 10.9435 3.4595C10.8143 3.2124 10.5812 3.08885 10.2443 3.08885C9.90731 3.08885 9.67424 3.2124 9.54508 3.4595C9.41591 3.7066 9.35133 4.05479 9.35133 4.50407V5.61603C9.35133 6.0653 9.41591 6.41349 9.54508 6.66059C9.67424 6.9077 9.90731 7.03125 10.2443 7.03125Z" fill="white"/>
</svg>
