<svg width="32" height="32" viewBox="0 0 32 32" fill="none" xmlns="http://www.w3.org/2000/svg">
<path d="M22.5 13.0001H24V22H22.5V32H21.5V22H20V13.0001H21.5V11.0001H22.5V13.0001Z" fill="#85ACB0"/>
<path d="M30 11V18H28.5V22H27.5V18H26V11H30Z" fill="#85ACB0"/>
<path d="M16.5 20V16H15.5V20H14V28H15.5V30H16.5V28H18V20H16.5Z" fill="#85ACB0"/>
<path d="M10.5 15H12V21H10.5V28H9.5V21H8V15H9.5V13H10.5V15Z" fill="#85ACB0"/>
<path d="M4.5 19H6V23H4.5V25H3.5V23H2V19H3.5V17H4.5V19Z" fill="#85ACB0"/>
<path d="M22 5C22 2.23858 24.2386 0 27 0C29.7614 0 32 2.23858 32 5C32 7.76142 29.7614 10 27 10C24.2386 10 22 7.76142 22 5Z" fill="#FF444F"/>
<path d="M24.2534 7.0005V6.2745H25.3814V3.4665H25.3274L24.4754 4.5825L23.8994 4.1325L24.9014 2.8125H26.2814V6.2745H27.1694V7.0005H24.2534Z" fill="white"/>
<path d="M28.7691 7.0725C28.4651 7.0725 28.2091 7.0245 28.0011 6.9285C27.7931 6.8285 27.6071 6.6885 27.4431 6.5085L27.9651 5.9805C28.0771 6.1045 28.2011 6.2025 28.3371 6.2745C28.4731 6.3465 28.6271 6.3825 28.7991 6.3825C28.9751 6.3825 29.0971 6.3565 29.1651 6.3045C29.2331 6.2485 29.2671 6.1745 29.2671 6.0825C29.2671 5.9345 29.1611 5.8465 28.9491 5.8185L28.6071 5.7765C27.8991 5.6885 27.5451 5.3645 27.5451 4.8045C27.5451 4.6525 27.5731 4.5145 27.6291 4.3905C27.6891 4.2625 27.7711 4.1545 27.8751 4.0665C27.9831 3.9745 28.1111 3.9045 28.2591 3.8565C28.4111 3.8045 28.5811 3.7785 28.7691 3.7785C28.9331 3.7785 29.0771 3.7905 29.2011 3.8145C29.3291 3.8345 29.4411 3.8665 29.5371 3.9105C29.6371 3.9505 29.7271 4.0025 29.8071 4.0665C29.8911 4.1265 29.9731 4.1945 30.0531 4.2705L29.5431 4.7925C29.4431 4.6925 29.3291 4.6145 29.2011 4.5585C29.0771 4.4985 28.9491 4.4685 28.8171 4.4685C28.6651 4.4685 28.5571 4.4925 28.4931 4.5405C28.4291 4.5885 28.3971 4.6525 28.3971 4.7325C28.3971 4.8165 28.4191 4.8825 28.4631 4.9305C28.5111 4.9745 28.5991 5.0065 28.7271 5.0265L29.0811 5.0745C29.7731 5.1665 30.1191 5.4825 30.1191 6.0225C30.1191 6.1745 30.0871 6.3145 30.0231 6.4425C29.9591 6.5705 29.8671 6.6825 29.7471 6.7785C29.6311 6.8705 29.4891 6.9425 29.3211 6.9945C29.1571 7.0465 28.9731 7.0725 28.7691 7.0725Z" fill="white"/>
<path d="M0 2C0 0.89543 0.895431 0 2 0H17C18.1046 0 19 0.895431 19 2V8C19 9.10457 18.1046 10 17 10H2C0.895431 10 0 9.10457 0 8V2Z" fill="#0E0E0E"/>
<path d="M3.472 7.68V6.712H4.976V2.968H4.904L3.768 4.456L3 3.856L4.336 2.096H6.176V6.712H7.36V7.68H3.472Z" fill="white"/>
<path d="M11.6929 3.144H9.15688L9.03688 4.912H9.10087C9.15421 4.77867 9.21287 4.65867 9.27688 4.552C9.34621 4.44 9.42621 4.34667 9.51687 4.272C9.60754 4.192 9.71688 4.13067 9.84487 4.088C9.97288 4.04533 10.1249 4.024 10.3009 4.024C10.5409 4.024 10.7649 4.064 10.9729 4.144C11.1809 4.224 11.3622 4.34133 11.5169 4.496C11.6715 4.64533 11.7942 4.832 11.8849 5.056C11.9755 5.27467 12.0209 5.52267 12.0209 5.8C12.0209 6.08267 11.9729 6.34667 11.8769 6.592C11.7862 6.832 11.6475 7.04 11.4609 7.216C11.2795 7.392 11.0555 7.53067 10.7889 7.632C10.5222 7.728 10.2182 7.776 9.87687 7.776C9.60488 7.776 9.36488 7.74667 9.15688 7.688C8.94887 7.62933 8.76487 7.552 8.60488 7.456C8.44488 7.35467 8.30621 7.24 8.18888 7.112C8.07154 6.984 7.97021 6.848 7.88487 6.704L8.75688 6.016C8.87954 6.23467 9.02621 6.42133 9.19688 6.576C9.36754 6.72533 9.59687 6.8 9.88487 6.8C10.1729 6.8 10.3889 6.71733 10.5329 6.552C10.6822 6.38667 10.7569 6.168 10.7569 5.896V5.832C10.7569 5.576 10.6822 5.37333 10.5329 5.224C10.3835 5.07467 10.1782 5 9.91687 5C9.69821 5 9.51688 5.04533 9.37288 5.136C9.23421 5.22133 9.12754 5.30667 9.05288 5.392L8.06887 5.256L8.27688 2.096H11.6929V3.144Z" fill="white"/>
<path d="M14.7137 7.776C13.9831 7.776 13.4418 7.52267 13.0898 7.016C12.7378 6.50933 12.5618 5.8 12.5618 4.888C12.5618 3.976 12.7378 3.26667 13.0898 2.76C13.4418 2.25333 13.9831 2 14.7137 2C15.4444 2 15.9858 2.25333 16.3378 2.76C16.6898 3.26667 16.8658 3.976 16.8658 4.888C16.8658 5.8 16.6898 6.50933 16.3378 7.016C15.9858 7.52267 15.4444 7.776 14.7137 7.776ZM14.7137 6.76C15.0337 6.76 15.2551 6.64267 15.3778 6.408C15.5004 6.17333 15.5618 5.84267 15.5618 5.416V4.36C15.5618 3.93333 15.5004 3.60267 15.3778 3.368C15.2551 3.13333 15.0337 3.016 14.7137 3.016C14.3938 3.016 14.1724 3.13333 14.0498 3.368C13.9271 3.60267 13.8658 3.93333 13.8658 4.36V5.416C13.8658 5.84267 13.9271 6.17333 14.0498 6.408C14.1724 6.64267 14.3938 6.76 14.7137 6.76Z" fill="white"/>
</svg>
