<?xml version="1.0" encoding="UTF-8"?>
<svg width="32px" height="32px" viewBox="0 0 32 32" version="1.1" xmlns="http://www.w3.org/2000/svg" xmlns:xlink="http://www.w3.org/1999/xlink">
    <title>D4BD7322-C978-4721-A74D-A1ABD96FFBA1</title>
    <g id="Trade-type" stroke="none" stroke-width="1" fill="none" fill-rule="evenodd">
        <g id="Multipliers---instruments---synthetic-tab---open-(EU)" transform="translate(-510.000000, -2434.000000)">
            <g id="Instruments-available" transform="translate(0.000000, 1917.000000)">
                <g transform="translate(364.000000, 437.000000)" id="Volatility-indices">
                    <g transform="translate(0.000000, 48.000000)">
                        <g id="content-" transform="translate(146.000000, 32.000000)">
                            <g id="volatility-200" transform="translate(2.000000, 2.000000)">
                                <polygon id="Path" fill="#85ACB0" fill-rule="nonzero" points="20.5 10.8095324 22 10.8095324 22 18.9523379 20.5 18.9523379 20.5 28 19.5 28 19.5 18.9523379 18 18.9523379 18 10.8095324 19.5 10.8095324 19.5 9 20.5 9"></polygon>
                                <polygon id="Path" fill="#85ACB0" fill-rule="nonzero" points="28 9 28 14.7272727 26.5 14.7272727 26.5 18 25.5 18 25.5 14.7272727 24 14.7272727 24 9"></polygon>
                                <polygon id="Path" fill="#85ACB0" fill-rule="nonzero" points="14.5 17.4285714 14.5 14 13.5 14 13.5 17.4285714 12 17.4285714 12 24.2857143 13.5 24.2857143 13.5 26 14.5 26 14.5 24.2857143 16 24.2857143 16 17.4285714"></polygon>
                                <polygon id="Path" fill="#85ACB0" fill-rule="nonzero" points="8.5 12.8666667 10 12.8666667 10 18.4666667 8.5 18.4666667 8.5 25 7.5 25 7.5 18.4666667 6 18.4666667 6 12.8666667 7.5 12.8666667 7.5 11 8.5 11"></polygon>
                                <polygon id="Path" fill="#85ACB0" fill-rule="nonzero" points="2.5 16.75 4 16.75 4 20.25 2.5 20.25 2.5 22 1.5 22 1.5 20.25 0 20.25 0 16.75 1.5 16.75 1.5 15 2.5 15"></polygon>
                                <g id="200">
                                    <path d="M13,8 L1,8 C0.448,8 0,7.553 0,7 L0,1 C0,0.447 0.448,0 1,0 L13,0 C13.552,0 14,0.447 14,1 L14,7 C14,7.553 13.552,8 13,8" id="bg" fill="#2A2A2A"></path>
                                    <path d="M5.00878906,6.32421875 L5.00878906,5.64160156 L3.17480469,5.64160156 L4.14453125,4.61914062 C4.41015625,4.328125 4.59765625,4.07324219 4.70703125,3.85449219 C4.81640625,3.63574219 4.87109375,3.42089844 4.87109375,3.20996094 C4.87109375,2.82519531 4.74951172,2.52734375 4.50634766,2.31640625 C4.26318359,2.10546875 3.921875,2 3.48242188,2 C3.1953125,2 2.93847656,2.06103516 2.71191406,2.18310547 C2.48535156,2.30517578 2.31005859,2.47363281 2.18603516,2.68847656 C2.06201172,2.90332031 2,3.140625 2,3.40039062 L2,3.40039062 L2.84960938,3.40039062 C2.84960938,3.18554688 2.90478516,3.01220703 3.01513672,2.88037109 C3.12548828,2.74853516 3.27636719,2.68261719 3.46777344,2.68261719 C3.64550781,2.68261719 3.78222656,2.73681641 3.87792969,2.84521484 C3.97363281,2.95361328 4.02148438,3.10253906 4.02148438,3.29199219 C4.02148438,3.43066406 3.97607422,3.57714844 3.88525391,3.73144531 C3.79443359,3.88574219 3.65429688,4.06640625 3.46484375,4.2734375 L3.46484375,4.2734375 L2.08496094,5.74414062 L2.08496094,6.32421875 L5.00878906,6.32421875 Z M6.95996094,6.3828125 C7.43066406,6.3828125 7.78808594,6.2265625 8.03222656,5.9140625 C8.27636719,5.6015625 8.3984375,5.15039062 8.3984375,4.56054688 L8.3984375,4.56054688 L8.3984375,3.77539062 C8.39257812,3.203125 8.26660156,2.76416016 8.02050781,2.45849609 C7.77441406,2.15283203 7.41894531,2 6.95410156,2 C6.48925781,2 6.13330078,2.15429688 5.88623047,2.46289062 C5.63916016,2.77148438 5.515625,3.22363281 5.515625,3.81933594 L5.515625,3.81933594 L5.515625,4.60449219 C5.52148438,5.17675781 5.64746094,5.61621094 5.89355469,5.92285156 C6.13964844,6.22949219 6.49511719,6.3828125 6.95996094,6.3828125 Z M6.95996094,5.70019531 C6.75097656,5.70019531 6.59912109,5.61572266 6.50439453,5.44677734 C6.40966797,5.27783203 6.36230469,5.01953125 6.36230469,4.671875 L6.36230469,4.671875 L6.36230469,3.63476562 C6.36816406,3.30859375 6.41845703,3.06884766 6.51318359,2.91552734 C6.60791016,2.76220703 6.75488281,2.68554688 6.95410156,2.68554688 C7.15917969,2.68554688 7.31005859,2.76611328 7.40673828,2.92724609 C7.50341797,3.08837891 7.55175781,3.34570312 7.55175781,3.69921875 L7.55175781,3.69921875 L7.55175781,4.71289062 C7.54785156,5.046875 7.5,5.29492188 7.40820312,5.45703125 C7.31640625,5.61914062 7.16699219,5.70019531 6.95996094,5.70019531 Z M10.4023438,6.3828125 C10.8730469,6.3828125 11.2304688,6.2265625 11.4746094,5.9140625 C11.71875,5.6015625 11.8408203,5.15039062 11.8408203,4.56054688 L11.8408203,4.56054688 L11.8408203,3.77539062 C11.8349609,3.203125 11.7089844,2.76416016 11.4628906,2.45849609 C11.2167969,2.15283203 10.8613281,2 10.3964844,2 C9.93164062,2 9.57568359,2.15429688 9.32861328,2.46289062 C9.08154297,2.77148438 8.95800781,3.22363281 8.95800781,3.81933594 L8.95800781,3.81933594 L8.95800781,4.60449219 C8.96386719,5.17675781 9.08984375,5.61621094 9.3359375,5.92285156 C9.58203125,6.22949219 9.9375,6.3828125 10.4023438,6.3828125 Z M10.4023438,5.70019531 C10.1933594,5.70019531 10.0415039,5.61572266 9.94677734,5.44677734 C9.85205078,5.27783203 9.8046875,5.01953125 9.8046875,4.671875 L9.8046875,4.671875 L9.8046875,3.63476562 C9.81054688,3.30859375 9.86083984,3.06884766 9.95556641,2.91552734 C10.050293,2.76220703 10.1972656,2.68554688 10.3964844,2.68554688 C10.6015625,2.68554688 10.7524414,2.76611328 10.8491211,2.92724609 C10.9458008,3.08837891 10.9941406,3.34570312 10.9941406,3.69921875 L10.9941406,3.69921875 L10.9941406,4.71289062 C10.9902344,5.046875 10.9423828,5.29492188 10.8505859,5.45703125 C10.7587891,5.61914062 10.609375,5.70019531 10.4023438,5.70019531 Z" fill="#FFFFFF" fill-rule="nonzero"></path>
                                </g>
                            </g>
                        </g>
                    </g>
                </g>
            </g>
        </g>
    </g>
</svg>