<svg width="32" height="32" viewBox="0 0 32 32" fill="none" xmlns="http://www.w3.org/2000/svg">
<path d="M22.5 13.0001H24V22H22.5V32H21.5V22H20V13.0001H21.5V11.0001H22.5V13.0001Z" fill="#85ACB0"/>
<path d="M30 11V18H28.5V22H27.5V18H26V11H30Z" fill="#85ACB0"/>
<path d="M16.5 20V16H15.5V20H14V28H15.5V30H16.5V28H18V20H16.5Z" fill="#85ACB0"/>
<path d="M10.5 15H12V21H10.5V28H9.5V21H8V15H9.5V13H10.5V15Z" fill="#85ACB0"/>
<path d="M4.5 19H6V23H4.5V25H3.5V23H2V19H3.5V17H4.5V19Z" fill="#85ACB0"/>
<path d="M22 5C22 2.23858 24.2386 0 27 0C29.7614 0 32 2.23858 32 5C32 7.76142 29.7614 10 27 10C24.2386 10 22 7.76142 22 5Z" fill="#FF444F"/>
<path d="M24.2534 7.00001V6.27401H25.3814V3.46601H25.3274L24.4754 4.58201L23.8994 4.13201L24.9014 2.81201H26.2814V6.27401H27.1694V7.00001H24.2534Z" fill="white"/>
<path d="M28.7691 7.07201C28.4651 7.07201 28.2091 7.02401 28.0011 6.92801C27.7931 6.82801 27.6071 6.68801 27.4431 6.50801L27.9651 5.98001C28.0771 6.10401 28.2011 6.20201 28.3371 6.27401C28.4731 6.34601 28.6271 6.38201 28.7991 6.38201C28.9751 6.38201 29.0971 6.35601 29.1651 6.30401C29.2331 6.24801 29.2671 6.17401 29.2671 6.08201C29.2671 5.93401 29.1611 5.84601 28.9491 5.81801L28.6071 5.77601C27.8991 5.68801 27.5451 5.36401 27.5451 4.80401C27.5451 4.65201 27.5731 4.51401 27.6291 4.39001C27.6891 4.26201 27.7711 4.15401 27.8751 4.06601C27.9831 3.97401 28.1111 3.90401 28.2591 3.85601C28.4111 3.80401 28.5811 3.77801 28.7691 3.77801C28.9331 3.77801 29.0771 3.79001 29.2011 3.81401C29.3291 3.83401 29.4411 3.86601 29.5371 3.91001C29.6371 3.95001 29.7271 4.00201 29.8071 4.06601C29.8911 4.12601 29.9731 4.19401 30.0531 4.27001L29.5431 4.79201C29.4431 4.69201 29.3291 4.61401 29.2011 4.55801C29.0771 4.49801 28.9491 4.46801 28.8171 4.46801C28.6651 4.46801 28.5571 4.49201 28.4931 4.54001C28.4291 4.58801 28.3971 4.65201 28.3971 4.73201C28.3971 4.81601 28.4191 4.88201 28.4631 4.93001C28.5111 4.97401 28.5991 5.00601 28.7271 5.02601L29.0811 5.07401C29.7731 5.16601 30.1191 5.48201 30.1191 6.02201C30.1191 6.17401 30.0871 6.31401 30.0231 6.44201C29.9591 6.57001 29.8671 6.68201 29.7471 6.77801C29.6311 6.87001 29.4891 6.94201 29.3211 6.99401C29.1571 7.04601 28.9731 7.07201 28.7691 7.07201Z" fill="white"/>
<path d="M0 2C0 0.89543 0.895431 0 2 0H17C18.1046 0 19 0.895431 19 2V8C19 9.10457 18.1046 10 17 10H2C0.895431 10 0 9.10457 0 8V2Z" fill="#0E0E0E"/>
<path d="M4.40068 4.62395C4.69935 4.62395 4.91535 4.56795 5.04868 4.45595C5.18735 4.33861 5.25668 4.19461 5.25668 4.02395V3.96795C5.25668 3.76528 5.19001 3.60261 5.05668 3.47995C4.92868 3.35728 4.74468 3.29595 4.50468 3.29595C4.28068 3.29595 4.07001 3.35461 3.87268 3.47195C3.67534 3.58395 3.50734 3.74661 3.36868 3.95995L2.61668 3.25595C2.72334 3.11728 2.83801 2.99195 2.96068 2.87995C3.08334 2.76261 3.22201 2.66395 3.37668 2.58395C3.53134 2.49861 3.70468 2.43461 3.89668 2.39195C4.08868 2.34395 4.30468 2.31995 4.54468 2.31995C4.84335 2.31995 5.11268 2.35461 5.35268 2.42395C5.59801 2.49328 5.80601 2.59461 5.97668 2.72795C6.15268 2.85595 6.28601 3.01061 6.37668 3.19195C6.47268 3.37328 6.52068 3.57595 6.52068 3.79995C6.52068 3.97595 6.49134 4.13595 6.43268 4.27995C6.37934 4.42395 6.30201 4.54928 6.20068 4.65595C6.10468 4.76261 5.99268 4.85061 5.86468 4.91995C5.73668 4.98395 5.60068 5.02928 5.45668 5.05595V5.10395C5.62201 5.13595 5.77401 5.18928 5.91268 5.26395C6.05668 5.33328 6.17934 5.42395 6.28068 5.53595C6.38734 5.64795 6.47001 5.78128 6.52868 5.93595C6.58734 6.08528 6.61668 6.25595 6.61668 6.44795C6.61668 6.69861 6.56601 6.92528 6.46468 7.12795C6.36335 7.33061 6.21935 7.50395 6.03268 7.64795C5.84601 7.79195 5.62201 7.90395 5.36068 7.98395C5.09934 8.05861 4.81134 8.09595 4.49668 8.09595C4.21401 8.09595 3.96334 8.06661 3.74468 8.00795C3.52601 7.94928 3.33401 7.87195 3.16868 7.77595C3.00868 7.67461 2.86734 7.55995 2.74468 7.43195C2.62734 7.30395 2.52334 7.16795 2.43268 7.02395L3.32068 6.33595C3.44334 6.56528 3.59268 6.75461 3.76868 6.90395C3.95001 7.04795 4.19268 7.11995 4.49668 7.11995C4.76868 7.11995 4.97935 7.05328 5.12868 6.91995C5.28335 6.78128 5.36068 6.59461 5.36068 6.35995V6.31195C5.36068 6.08261 5.27268 5.91195 5.09668 5.79995C4.92601 5.68261 4.68868 5.62395 4.38468 5.62395H3.88068V4.62395H4.40068Z" fill="white"/>
<path d="M9.50155 8.09595C8.77089 8.09595 8.22955 7.84261 7.87755 7.33595C7.52555 6.82928 7.34955 6.11995 7.34955 5.20795C7.34955 4.29595 7.52555 3.58661 7.87755 3.07995C8.22955 2.57328 8.77089 2.31995 9.50155 2.31995C10.2322 2.31995 10.7736 2.57328 11.1256 3.07995C11.4776 3.58661 11.6536 4.29595 11.6536 5.20795C11.6536 6.11995 11.4776 6.82928 11.1256 7.33595C10.7736 7.84261 10.2322 8.09595 9.50155 8.09595ZM9.50155 7.07995C9.82155 7.07995 10.0429 6.96261 10.1656 6.72795C10.2882 6.49328 10.3496 6.16261 10.3496 5.73595V4.67995C10.3496 4.25328 10.2882 3.92261 10.1656 3.68795C10.0429 3.45328 9.82155 3.33595 9.50155 3.33595C9.18155 3.33595 8.96022 3.45328 8.83755 3.68795C8.71489 3.92261 8.65355 4.25328 8.65355 4.67995V5.73595C8.65355 6.16261 8.71489 6.49328 8.83755 6.72795C8.96022 6.96261 9.18155 7.07995 9.50155 7.07995Z" fill="white"/>
<path d="M14.2984 8.09595C13.5678 8.09595 13.0264 7.84261 12.6744 7.33595C12.3224 6.82928 12.1464 6.11995 12.1464 5.20795C12.1464 4.29595 12.3224 3.58661 12.6744 3.07995C13.0264 2.57328 13.5678 2.31995 14.2984 2.31995C15.0291 2.31995 15.5704 2.57328 15.9224 3.07995C16.2744 3.58661 16.4504 4.29595 16.4504 5.20795C16.4504 6.11995 16.2744 6.82928 15.9224 7.33595C15.5704 7.84261 15.0291 8.09595 14.2984 8.09595ZM14.2984 7.07995C14.6184 7.07995 14.8398 6.96261 14.9624 6.72795C15.0851 6.49328 15.1464 6.16261 15.1464 5.73595V4.67995C15.1464 4.25328 15.0851 3.92261 14.9624 3.68795C14.8398 3.45328 14.6184 3.33595 14.2984 3.33595C13.9784 3.33595 13.7571 3.45328 13.6344 3.68795C13.5118 3.92261 13.4504 4.25328 13.4504 4.67995V5.73595C13.4504 6.16261 13.5118 6.49328 13.6344 6.72795C13.7571 6.96261 13.9784 7.07995 14.2984 7.07995Z" fill="white"/>
</svg>
