<svg width="32" height="32" viewBox="0 0 32 32" fill="none" xmlns="http://www.w3.org/2000/svg">
<path d="M22.5 13.0001H24V22H22.5V32H21.5V22H20V13.0001H21.5V11.0001H22.5V13.0001Z" fill="#85ACB0"/>
<path d="M30 11V18H28.5V22H27.5V18H26V11H30Z" fill="#85ACB0"/>
<path d="M16.5 20V16H15.5V20H14V28H15.5V30H16.5V28H18V20H16.5Z" fill="#85ACB0"/>
<path d="M10.5 15H12V21H10.5V28H9.5V21H8V15H9.5V13H10.5V15Z" fill="#85ACB0"/>
<path d="M4.5 19H6V23H4.5V25H3.5V23H2V19H3.5V17H4.5V19Z" fill="#85ACB0"/>
<path d="M22 5C22 2.23858 24.2386 0 27 0C29.7614 0 32 2.23858 32 5C32 7.76142 29.7614 10 27 10C24.2386 10 22 7.76142 22 5Z" fill="#FF444F"/>
<path d="M24.2534 7.00001V6.27401H25.3814V3.46601H25.3274L24.4754 4.58201L23.8994 4.13201L24.9014 2.81201H26.2814V6.27401H27.1694V7.00001H24.2534Z" fill="white"/>
<path d="M28.7691 7.07201C28.4651 7.07201 28.2091 7.02401 28.0011 6.92801C27.7931 6.82801 27.6071 6.68801 27.4431 6.50801L27.9651 5.98001C28.0771 6.10401 28.2011 6.20201 28.3371 6.27401C28.4731 6.34601 28.6271 6.38201 28.7991 6.38201C28.9751 6.38201 29.0971 6.35601 29.1651 6.30401C29.2331 6.24801 29.2671 6.17401 29.2671 6.08201C29.2671 5.93401 29.1611 5.84601 28.9491 5.81801L28.6071 5.77601C27.8991 5.68801 27.5451 5.36401 27.5451 4.80401C27.5451 4.65201 27.5731 4.51401 27.6291 4.39001C27.6891 4.26201 27.7711 4.15401 27.8751 4.06601C27.9831 3.97401 28.1111 3.90401 28.2591 3.85601C28.4111 3.80401 28.5811 3.77801 28.7691 3.77801C28.9331 3.77801 29.0771 3.79001 29.2011 3.81401C29.3291 3.83401 29.4411 3.86601 29.5371 3.91001C29.6371 3.95001 29.7271 4.00201 29.8071 4.06601C29.8911 4.12601 29.9731 4.19401 30.0531 4.27001L29.5431 4.79201C29.4431 4.69201 29.3291 4.61401 29.2011 4.55801C29.0771 4.49801 28.9491 4.46801 28.8171 4.46801C28.6651 4.46801 28.5571 4.49201 28.4931 4.54001C28.4291 4.58801 28.3971 4.65201 28.3971 4.73201C28.3971 4.81601 28.4191 4.88201 28.4631 4.93001C28.5111 4.97401 28.5991 5.00601 28.7271 5.02601L29.0811 5.07401C29.7731 5.16601 30.1191 5.48201 30.1191 6.02201C30.1191 6.17401 30.0871 6.31401 30.0231 6.44201C29.9591 6.57001 29.8671 6.68201 29.7471 6.77801C29.6311 6.87001 29.4891 6.94201 29.3211 6.99401C29.1571 7.04601 28.9731 7.07201 28.7691 7.07201Z" fill="white"/>
<path d="M0 2C0 0.89543 0.895431 0 2 0H17C18.1046 0 19 0.895431 19 2V8C19 9.10457 18.1046 10 17 10H2C0.895431 10 0 9.10457 0 8V2Z" fill="#0E0E0E"/>
<path d="M6.71263 8.00007H2.76063V6.90407L4.48063 5.43207C4.63529 5.29874 4.76596 5.17874 4.87263 5.07207C4.97929 4.96007 5.06463 4.8534 5.12863 4.75207C5.19796 4.6454 5.24596 4.5414 5.27263 4.44007C5.30463 4.33874 5.32063 4.2294 5.32063 4.11207V4.00007C5.32063 3.8934 5.29929 3.80007 5.25663 3.72007C5.21396 3.64007 5.15796 3.5734 5.08863 3.52007C5.01929 3.46674 4.93929 3.42673 4.84863 3.40007C4.76329 3.3734 4.67529 3.36007 4.58463 3.36007C4.45129 3.36007 4.33396 3.3814 4.23263 3.42407C4.13662 3.46674 4.05129 3.5254 3.97662 3.60007C3.90729 3.6694 3.84863 3.75207 3.80063 3.84807C3.75263 3.93874 3.71529 4.0374 3.68863 4.14407L2.64062 3.74407C2.70462 3.55207 2.79262 3.37074 2.90462 3.20007C3.01662 3.02407 3.15529 2.87207 3.32063 2.74407C3.49129 2.61074 3.69129 2.50673 3.92062 2.43207C4.14996 2.3574 4.40863 2.32007 4.69663 2.32007C5.00063 2.32007 5.26996 2.36274 5.50463 2.44807C5.73929 2.5334 5.93663 2.65074 6.09663 2.80007C6.26196 2.9494 6.38729 3.12807 6.47263 3.33607C6.55796 3.53874 6.60063 3.76007 6.60063 4.00007C6.60063 4.24007 6.56063 4.45874 6.48063 4.65607C6.40063 4.8534 6.29129 5.04007 6.15263 5.21607C6.01929 5.38674 5.86196 5.5494 5.68063 5.70407C5.49929 5.85874 5.30996 6.01607 5.11263 6.17607L4.07263 6.99207H6.71263V8.00007Z" fill="white"/>
<path d="M11.2775 3.46407H8.7415L8.6215 5.23207H8.6855C8.73883 5.09874 8.7975 4.97874 8.8615 4.87207C8.93083 4.76007 9.01083 4.66674 9.1015 4.59207C9.19217 4.51207 9.3015 4.45074 9.4295 4.40807C9.5575 4.3654 9.7095 4.34407 9.8855 4.34407C10.1255 4.34407 10.3495 4.38407 10.5575 4.46407C10.7655 4.54407 10.9468 4.6614 11.1015 4.81607C11.2562 4.9654 11.3788 5.15207 11.4695 5.37607C11.5602 5.59474 11.6055 5.84274 11.6055 6.12007C11.6055 6.40274 11.5575 6.66674 11.4615 6.91207C11.3708 7.15207 11.2322 7.36007 11.0455 7.53607C10.8642 7.71207 10.6402 7.85074 10.3735 7.95207C10.1068 8.04807 9.80283 8.09607 9.4615 8.09607C9.1895 8.09607 8.9495 8.06674 8.7415 8.00807C8.5335 7.9494 8.3495 7.87207 8.1895 7.77607C8.0295 7.67474 7.89083 7.56007 7.7735 7.43207C7.65617 7.30407 7.55483 7.16807 7.4695 7.02407L8.3415 6.33607C8.46417 6.55474 8.61083 6.7414 8.7815 6.89607C8.95217 7.0454 9.1815 7.12007 9.4695 7.12007C9.7575 7.12007 9.9735 7.0374 10.1175 6.87207C10.2668 6.70674 10.3415 6.48807 10.3415 6.21607V6.15207C10.3415 5.89607 10.2668 5.6934 10.1175 5.54407C9.96817 5.39474 9.76283 5.32007 9.5015 5.32007C9.28283 5.32007 9.1015 5.3654 8.9575 5.45607C8.81883 5.5414 8.71217 5.62674 8.6375 5.71207L7.6535 5.57607L7.8615 2.41607H11.2775V3.46407Z" fill="white"/>
<path d="M14.2984 8.09607C13.5677 8.09607 13.0264 7.84274 12.6744 7.33607C12.3224 6.8294 12.1464 6.12007 12.1464 5.20807C12.1464 4.29607 12.3224 3.58674 12.6744 3.08007C13.0264 2.5734 13.5677 2.32007 14.2984 2.32007C15.029 2.32007 15.5704 2.5734 15.9224 3.08007C16.2744 3.58674 16.4504 4.29607 16.4504 5.20807C16.4504 6.12007 16.2744 6.8294 15.9224 7.33607C15.5704 7.84274 15.029 8.09607 14.2984 8.09607ZM14.2984 7.08007C14.6184 7.08007 14.8397 6.96274 14.9624 6.72807C15.085 6.4934 15.1464 6.16274 15.1464 5.73607V4.68007C15.1464 4.2534 15.085 3.92274 14.9624 3.68807C14.8397 3.4534 14.6184 3.33607 14.2984 3.33607C13.9784 3.33607 13.757 3.4534 13.6344 3.68807C13.5117 3.92274 13.4504 4.2534 13.4504 4.68007V5.73607C13.4504 6.16274 13.5117 6.4934 13.6344 6.72807C13.757 6.96274 13.9784 7.08007 14.2984 7.08007Z" fill="white"/>
</svg>
