<svg width="32" height="32" fill="none" xmlns="http://www.w3.org/2000/svg"><path d="M2 11a9 9 0 1 1 18 0 9 9 0 0 1-18 0Z" fill="#2C7DF7"/><path d="M11.866 16.063c-.723 0-1.25-.175-1.582-.522a1.612 1.612 0 0 1-.497-1.125.649.649 0 0 1 .324-.61.825.825 0 0 1 .739 0c.098.057.18.139.236.238a.737.737 0 0 1 .09.372.71.71 0 0 1-.127.434.59.59 0 0 1-.3.22.824.824 0 0 0 .475.296c.21.062.427.093.647.094.29.002.574-.083.814-.244.25-.176.436-.428.532-.72.12-.346.18-.71.174-1.077a2.952 2.952 0 0 0-.19-1.12 1.38 1.38 0 0 0-.55-.696 1.462 1.462 0 0 0-.79-.226c-.244.02-.48.1-.685.232l-.508.255v-.255l2.283-3.062H9.787v3.178c-.01.23.051.456.174.65a.6.6 0 0 0 .531.255.887.887 0 0 0 .525-.185c.171-.125.32-.278.44-.452.01-.03.03-.057.057-.076a.116.116 0 0 1 .076-.028.265.265 0 0 1 .15.063.32.32 0 0 1 .08.215 1.343 1.343 0 0 1-.029.158c-.112.272-.3.506-.543.674-.224.152-.49.233-.761.231-.685 0-1.16-.135-1.424-.405a1.516 1.516 0 0 1-.392-1.107V8.547H7.063v-.59h1.616V6.61l-.37-.37v-.303h1.075l.403.21v1.81l4.18-.014.416.418-2.563 2.575c.155-.062.318-.101.484-.117.329.015.65.107.937.268.332.158.612.408.807.72.174.265.297.559.364.868.054.244.083.494.087.744a3.11 3.11 0 0 1-.317 1.378c-.199.415-.534.75-.949.949-.425.21-.893.318-1.367.316Z" fill="#fff"/><path d="M12 21a9 9 0 1 1 18 0 9 9 0 0 1-18 0Z" fill="#fff"/><path fill-rule="evenodd" clip-rule="evenodd" d="M20.62 12c-1.734.1-3.335.69-4.668 1.633h10.386A8.956 8.956 0 0 0 21.671 12H20.62Zm-6.428 3.266a8.985 8.985 0 0 0-1.067 1.633h16.041a8.973 8.973 0 0 0-1.068-1.633H14.192Zm-2.155 4.915c.05-.56.15-1.106.298-1.633h17.317c.148.527.25 1.072.299 1.633H12.037Zm.003 1.633c.053.561.158 1.107.308 1.633H29.64a8.897 8.897 0 0 0 .308-1.633H12.041Zm2.04 4.899a8.99 8.99 0 0 1-1.083-1.633H28.99a8.981 8.981 0 0 1-1.082 1.633H14.08Zm6.533 3.256.028.001.027.001a8.86 8.86 0 0 0 5.454-1.625H15.866a8.859 8.859 0 0 0 4.747 1.623Z" fill="#F44336"/><path d="M20.808 12.005a8.991 8.991 0 0 0-8.77 8.179h8.77v-8.18Z" fill="#283991"/><path d="m13.8 17.085.137.421h.444l-.36.26.138.422-.36-.26-.358.26.137-.422-.36-.26h.445l.137-.42ZM13.8 18.573l.137.42h.444l-.36.261.138.421-.36-.26-.358.26.137-.42-.36-.261h.445l.137-.421ZM15.29 14.853l.138.422h.443l-.359.26.137.421-.358-.26-.36.26.138-.42-.36-.261h.444l.137-.422ZM15.29 16.341l.138.421h.443l-.359.26.137.422-.358-.26-.36.26.138-.422-.36-.26h.444l.137-.42ZM15.29 17.829l.138.421h.443l-.359.26.137.421-.358-.26-.36.26.138-.42-.36-.26h.444l.137-.422ZM12.668 18.931l-.137-.42.359-.261h-.444l-.01-.03c-.049.15-.093.302-.133.456l.006-.005.359.26ZM13.44 16.7l.36-.26.359.26-.138-.421.36-.26h-.444l-.137-.422-.138.421H13.5l-.09.139.169.122-.137.421ZM15.29 14.208l.36.26-.138-.42.36-.261h-.257a8.941 8.941 0 0 0-.63.516l-.054.165.36-.26ZM16.422 13.725l.36-.26.358.26-.137-.422.359-.26h-.444l-.018-.056c-.15.076-.3.156-.445.24l.104.076-.137.422ZM16.781 14.11l.137.42h.444l-.359.261.137.421-.359-.26-.359.26.137-.42-.359-.261h.444l.137-.421ZM16.781 15.597l.137.421h.444l-.359.26.137.422-.359-.26-.359.26.137-.421-.359-.26h.444l.137-.422ZM16.781 17.085l.137.421h.444l-.359.26.137.422-.359-.26-.359.26.137-.422-.359-.26h.444l.137-.42ZM16.781 18.573l.137.42h.444l-.359.261.137.421-.359-.26-.359.26.137-.42-.359-.261h.444l.137-.421ZM18.272 13.366l.137.42h.444l-.359.261.137.421-.359-.26-.36.26.138-.42-.359-.261h.444l.137-.421ZM18.272 14.853l.137.422h.444l-.359.26.137.421-.359-.26-.36.26.138-.42-.359-.261h.444l.137-.422ZM18.272 16.341l.137.421h.444l-.359.26.137.422-.359-.26-.36.26.138-.422-.359-.26h.444l.137-.42ZM18.272 17.829l.137.421h.444l-.359.26.137.421-.359-.26-.36.26.138-.42-.359-.26h.444l.137-.422ZM19.763 12.622l.137.421h.444l-.36.26.138.422-.36-.26-.358.26.137-.422-.36-.26h.445l.137-.42ZM19.763 14.11l.137.42h.444l-.36.261.138.421-.36-.26-.358.26.137-.42-.36-.261h.445l.137-.421ZM19.763 15.597l.137.421h.444l-.36.26.138.422-.36-.26-.358.26.137-.421-.36-.26h.445l.137-.422ZM19.763 17.085l.137.421h.444l-.36.26.138.422-.36-.26-.358.26.137-.422-.36-.26h.445l.137-.42ZM19.763 18.573l.137.42h.444l-.36.261.138.421-.36-.26-.358.26.137-.42-.36-.261h.445l.137-.421Z" fill="#EFEFEF"/></svg>