<svg xmlns="http://www.w3.org/2000/svg" width="24" height="24"><g fill="none" fill-rule="evenodd"><path d="M0 0h24v24H0z"/><path fill="#F4B628" fill-rule="nonzero" d="M19.5 6h-15A1.5 1.5 0 003 7.5v9A1.5 1.5 0 004.5 18h15a1.5 1.5 0 001.5-1.5v-9A1.5 1.5 0 0019.5 6z"/><path fill="#231F21" d="M12.853 7.602a4.495 4.495 0 013.466 5.596 4.503 4.503 0 01-3.673 3.251c-.108.016-.219.012-.324.048h-.701c-.01-.026-.035-.016-.053-.02-.115-.016-.232-.027-.347-.047a4.496 4.496 0 01-3.674-3.767l-.02-.193a.348.348 0 00-.027-.094v-.754c.03-.013.017-.04.02-.061.023-.141.04-.284.066-.424.467-2.42 2.841-4.012 5.267-3.535zm-.85.659a3.74 3.74 0 00-3.759 3.729 3.743 3.743 0 003.726 3.764 3.752 3.752 0 003.768-3.734 3.751 3.751 0 00-3.734-3.76zm.292.908c.058 0 .075.016.074.073-.003.202.002.404-.002.605-.002.063.019.077.079.077.353-.003.707 0 1.06-.003.064 0 .087.013.085.081-.005.179-.003.357 0 .535 0 .05-.011.089-.043.128-.633.803-1.21 1.648-1.818 2.47-.008.01-.015.023-.03.047.61 0 1.202.002 1.795-.002.077 0 .098.018.096.096-.005.245-.004.491 0 .736.001.07-.021.082-.084.082l-1.052-.004c-.066 0-.09.012-.089.085.006.198 0 .397.003.596 0 .05-.01.072-.068.071a18.424 18.424 0 00-.622 0c-.064.002-.07-.026-.07-.078l.003-.596c.001-.06-.015-.079-.078-.078-.353.003-.707 0-1.06.003-.07 0-.089-.02-.087-.088.006-.178.004-.357.001-.535a.18.18 0 01.041-.12c.635-.805 1.213-1.652 1.823-2.475.007-.01.012-.02.025-.043h-.1c-.567 0-1.134-.002-1.7 0-.066.001-.091-.01-.09-.084.005-.248.005-.497 0-.745 0-.065.015-.084.082-.083.354.004.707 0 1.06.003.067 0 .085-.017.083-.083-.004-.195 0-.391-.003-.587 0-.062.01-.087.08-.085.202.005.404.004.606 0z"/><path stroke="#000" stroke-opacity=".04" stroke-width=".75" d="M19.125 6.375H4.875a1.5 1.5 0 00-1.5 1.5v8.25a1.5 1.5 0 001.5 1.5h14.25a1.5 1.5 0 001.5-1.5v-8.25a1.5 1.5 0 00-1.5-1.5z"/><path fill="#F4B628" d="M11.7 13.182l.03-.048c.608-.821 1.185-1.666 1.818-2.469a.183.183 0 00.042-.128c-.002-.178-.004-.356.001-.535.002-.068-.021-.081-.084-.08-.354.002-.708 0-1.061.002-.06 0-.08-.014-.08-.077.005-.201 0-.403.003-.605 0-.057-.016-.074-.074-.073-.202.004-.404.005-.605 0-.07-.002-.082.023-.08.085.003.196-.002.392.002.587.002.066-.016.084-.082.083-.354-.003-.707 0-1.061-.003-.067 0-.082.018-.081.083.004.248.004.497 0 .745-.002.073.023.085.088.085.567-.003 1.134-.001 1.7-.001h.101c-.013.023-.018.034-.025.043-.61.823-1.188 1.67-1.823 2.475a.175.175 0 00-.04.12c.002.178.004.357-.002.535-.002.069.017.088.087.088.353-.004.707 0 1.06-.003.063 0 .079.018.078.078-.004.199 0 .398-.002.596 0 .052.005.08.07.079.207-.005.414-.004.621 0 .057 0 .069-.021.068-.072-.002-.199.003-.398-.003-.596-.002-.073.023-.086.089-.085.35.003.701 0 1.052.003.063 0 .085-.013.084-.082-.004-.245-.005-.49 0-.736.002-.078-.019-.096-.096-.096-.593.004-1.186.002-1.795.002m3.829-1.174a3.54 3.54 0 01-3.568 3.539c-1.94 0-3.52-1.6-3.509-3.57a3.528 3.528 0 013.588-3.508 3.536 3.536 0 013.489 3.539"/></g></svg>