<svg width="33" height="32" fill="none" xmlns="http://www.w3.org/2000/svg"><path d="M.5 16c0-8.837 7.163-16 16-16s16 7.163 16 16-7.163 16-16 16-16-7.163-16-16Z" fill="#F4B728"/><path d="M13.655 19.73v-1.223l3.392-4.598h-3.392v-1.62h2.187V10.95h1.344v1.337h2.186v1.223l-3.392 4.601h3.392v1.618h-2.186v1.34h-1.344v-1.34h-2.187Z" fill="#231F20"/><path fill-rule="evenodd" clip-rule="evenodd" d="M8.5 16c0-4.412 3.588-8 8-8s8 3.588 8 8-3.588 8-8 8-8-3.588-8-8Zm1.32 0a6.686 6.686 0 0 0 6.68 6.68A6.686 6.686 0 0 0 23.18 16a6.686 6.686 0 0 0-6.68-6.68A6.686 6.686 0 0 0 9.82 16Z" fill="#231F20"/></svg>