<svg width="32" height="32" fill="none" xmlns="http://www.w3.org/2000/svg"><path d="M0 16C0 7.163 7.163 0 16 0s16 7.163 16 16-7.163 16-16 16S0 24.837 0 16Z" fill="#F2F3F4"/><path d="M7.105 13.1C5.41 13.1 4 13.812 4 15.98c0 1.717.945 2.827 3.15 2.827 2.587 0 2.752-1.702 2.752-1.702H8.65a1.5 1.5 0 0 1-1.583.915 1.718 1.718 0 0 1-1.83-1.725H10v-.63c0-1.028-.6-2.565-2.895-2.565Zm-.045.802a1.545 1.545 0 0 1 1.702 1.553H5.267a1.665 1.665 0 0 1 1.793-1.553Z" fill="#E53338"/><path d="M10 11v7.605h1.2c.028-.25.043-.5.045-.75a2.55 2.55 0 0 0 2.198.953 2.715 2.715 0 0 0 2.842-2.858 2.699 2.699 0 0 0-2.842-2.82c-1.673 0-2.19.9-2.19.9v-3L10 11Zm3.105 2.94a1.852 1.852 0 0 1 1.883 1.995 1.89 1.89 0 1 1-3.75 0 1.86 1.86 0 0 1 1.897-1.995h-.03Z" fill="#3466B1"/><path d="M19.254 13.1c-2.55 0-2.715 1.395-2.715 1.612h1.268s.067-.81 1.357-.81c.84 0 1.5.383 1.5 1.118v.262h-1.5c-1.972 0-3 .578-3 1.748s.968 1.777 2.25 1.777c1.778 0 2.348-.975 2.348-.975v.75h1.125s-.038-.48-.038-.75v-2.647c0-1.725-1.395-2.085-2.625-2.085h.03Zm1.395 3v.352c0 .45-.277 1.59-1.935 1.59-.907 0-1.297-.457-1.297-.982 0-.983 1.312-.99 3.232-.99v.03Z" fill="#F3AF1C"/><path d="M21.19 13.318h1.432l2.047 4.095 2.04-4.095H28l-3.75 7.298h-1.327l1.08-2.033-2.813-5.25v-.015Z" fill="#86B940"/></svg>