<svg width="32" height="32" fill="none" xmlns="http://www.w3.org/2000/svg"><path d="M0 16C0 7.163 7.163 0 16 0s16 7.163 16 16-7.163 16-16 16S0 24.837 0 16Z" fill="#F2F3F4"/><g clip-path="url(#a)" fill-rule="evenodd" clip-rule="evenodd"><path d="M9.2 16.973h.647c.253 0 .349.087.349.3 0 .206-.096.293-.35.293H9.2v-.593Zm-1.004 2.16h1.003v-.879h1.075c.712 0 .968-.419.968-.96 0-.63-.264-.986-.975-.986H8.196v2.825Zm3.377-2.825h2.7v.688h-1.697v.38h1.576v.689h-1.576v.38h1.697v.688h-2.7v-2.825Zm4.123.665h.648c.252 0 .348.087.348.3 0 .206-.096.293-.348.293h-.648v-.593Zm-1.003 2.16h1.003v-.879h1.075c.711 0 .968-.419.968-.96 0-.63-.264-.986-.976-.986h-2.07v2.825Zm4.017-1.199c-.491-.083-.694-.4-.694-.795 0-.732.644-.93 1.47-.93 1.13 0 1.597.329 1.633.926H19.95c0-.115-.06-.186-.152-.226a.734.734 0 0 0-.314-.059c-.298 0-.401.083-.401.202 0 .079.031.13.131.146l1.199.198c.505.083.819.344.819.823 0 .688-.506 1.012-1.634 1.012-.772 0-1.615-.118-1.619-.949h1.21c.003.095.036.158.107.202.075.04.185.06.341.06.313 0 .399-.096.399-.23 0-.083-.046-.166-.181-.19l-1.146-.19Zm2.85-1.626h1.003v2.825H21.56v-2.825Zm4.721 1.725c-.064.372-.178.672-.427.878-.245.206-.63.32-1.241.32-.609 0-1.737-.047-1.737-1.51 0-1.464 1.128-1.512 1.737-1.512.604 0 1.537.087 1.668 1.207H25.15c-.029-.202-.15-.495-.537-.495-.41 0-.67.226-.67.8 0 .573.253.798.62.798.316 0 .505-.146.587-.486h1.131Zm1.313-.312c0-.574.26-.8.67-.8.408 0 .668.226.668.8 0 .573-.26.799-.669.799-.41 0-.669-.226-.669-.8Zm-1.067 0c0 1.463 1.127 1.51 1.736 1.51.608 0 1.736-.047 1.736-1.51 0-1.464-1.127-1.512-1.736-1.512s-1.736.048-1.736 1.512ZM6.68 16.336c.065-1.355-1.104-2.88-2.697-3.07l.003-.018c1.57 0 2.774 1.454 2.774 2.601-.001.239-.02.387-.054.494l-.026-.007Zm-.095.173a2.554 2.554 0 0 1-.39.378c-.283-1.63-1.48-3.054-2.327-3.47l-.018.013c.851.699 1.866 2.055 2.261 3.52a3.3 3.3 0 0 1-.648.372c-.803-.916-1.552-2.682-1.794-3.803l-.024.007c.005 1.088.778 2.935 1.72 3.837a3.25 3.25 0 0 1-.67.185c-.903-.358-1.546-1.504-1.546-2.678 0-.766.234-1.24.279-1.337l-.02-.008c-.054.083-.396.557-.396 1.384 0 1.327.654 2.341 1.523 2.66a2.99 2.99 0 0 1-.931-.043l-.007.02c.093.034.409.166.89.166a2.475 2.475 0 0 0 2.119-1.19l-.021-.013Z" fill="#28458E"/><path d="M4.378 12.768c-.825 0-1.792.595-1.792 1.139 0 .21.192.388.59.388.926 0 1.785-.635 1.785-1.13 0-.26-.25-.397-.583-.397Zm.329.382c0 .417-.8.926-1.469.926-.295 0-.455-.117-.455-.308 0-.423.81-.923 1.436-.923.41 0 .488.208.488.305Z" fill="#0096D6"/><path d="M2.259 14.16a.923.923 0 0 0-.116.408c0 .345.349.665.99.665 1.235 0 2.662-.909 2.662-1.752 0-.379-.358-.585-.607-.627l-.005.014c.077.025.361.157.361.494 0 .672-1.26 1.588-2.514 1.588-.48 0-.783-.237-.783-.582 0-.11.022-.181.028-.202l-.016-.007Z" fill="#EB7B30"/><path d="M6.304 13.545a.655.655 0 0 1 .237.516c0 1.093-1.712 2.168-3.227 2.168-.902 0-1.314-.446-1.296-.842h.016c.036.205.329.573 1.12.573 1.515 0 3.208-1.112 3.208-2.086a.652.652 0 0 0-.071-.318l.013-.011Z" fill="#00984A"/><path d="M6.877 14.565c.007.023.044.127.044.291 0 1.216-1.733 2.257-3.24 2.257-.776 0-1.181-.377-1.267-.53l.014-.01c.215.188.637.33 1.13.33 1.332 0 3.319-1.012 3.3-2.334l.02-.005Z" fill="#DF002C"/></g><defs><clipPath id="a"><path fill="#fff" transform="translate(2 12.113)" d="M0 0h28v7.773H0z"/></clipPath></defs></svg>