<svg width="32" height="32" fill="none" xmlns="http://www.w3.org/2000/svg"><path d="M0 16C0 7.163 7.163 0 16 0s16 7.163 16 16-7.163 16-16 16S0 24.837 0 16Z" fill="#F2F3F4"/><path d="M6 6.149c2.173 0 3.581-.334 5.17 1.505l5.19 6.414H12.51a2.873 2.873 0 0 1-2.67-1.616L6 6.149Z" fill="url(#a)"/><path d="m17.798 15.93 8.203 9.942h-5.75a4.334 4.334 0 0 1-3.87-2.455l-2.467-4.195.713-2.205 3.171-1.087Z" fill="url(#b)"/><path d="M14.526 20.292c.373-1.615 3.177-2.952 4.639-2.734l-1.466-1.802-2.424.528-1.585 2.557.836 1.451Z" fill="url(#c)"/><path d="m14.467 20.219-1.894-3.2c-.552-.994-.054-2.176 1.966-2.393 2.02-.217 5.53-.558 6.524 1.501-2.734-.28-6.804.55-6.596 4.092Z" fill="url(#d)"/><defs><linearGradient id="a" x1="11.182" y1="6.269" x2="11.182" y2="13.974" gradientUnits="userSpaceOnUse"><stop stop-color="#4FC8ED"/><stop offset="1" stop-color="#10528A"/></linearGradient><linearGradient id="b" x1="13.914" y1="20.903" x2="25.999" y2="20.903" gradientUnits="userSpaceOnUse"><stop stop-color="#EE3324"/><stop offset="1" stop-color="#A02121"/></linearGradient><linearGradient id="c" x1="132.426" y1="71.731" x2="87.792" y2="119.486" gradientUnits="userSpaceOnUse"><stop stop-color="#EE3324"/><stop offset="1" stop-color="#A02121"/></linearGradient><linearGradient id="d" x1="14.386" y1="17.364" x2="20.839" y2="17.24" gradientUnits="userSpaceOnUse"><stop stop-color="#E6EAEF"/><stop offset="1" stop-color="#95AAB1"/></linearGradient></defs></svg>