<svg width="49" height="49" viewBox="0 0 49 49" fill="none" xmlns="http://www.w3.org/2000/svg">
<path fill-rule="evenodd" clip-rule="evenodd" d="M10.335 34.7891C9.78271 34.7891 9.33499 35.2368 9.33499 35.7891V41.7891C9.33499 42.3413 9.78271 42.7891 10.335 42.7891H11.335C11.8873 42.7891 12.335 42.3413 12.335 41.7891V35.7891C12.335 35.2368 11.8873 34.7891 11.335 34.7891H10.335ZM7.33499 35.7891C7.33499 34.1322 8.67814 32.7891 10.335 32.7891H11.335C12.9918 32.7891 14.335 34.1322 14.335 35.7891V41.7891C14.335 43.4459 12.9918 44.7891 11.335 44.7891H10.335C8.67814 44.7891 7.33499 43.4459 7.33499 41.7891V35.7891Z" fill="white"/>
<path fill-rule="evenodd" clip-rule="evenodd" d="M19.335 26.7891C18.7827 26.7891 18.335 27.2368 18.335 27.7891V41.7891C18.335 42.3413 18.7827 42.7891 19.335 42.7891H20.335C20.8873 42.7891 21.335 42.3413 21.335 41.7891V27.7891C21.335 27.2368 20.8873 26.7891 20.335 26.7891H19.335ZM16.335 27.7891C16.335 26.1322 17.6781 24.7891 19.335 24.7891H20.335C21.9918 24.7891 23.335 26.1322 23.335 27.7891V41.7891C23.335 43.4459 21.9918 44.7891 20.335 44.7891H19.335C17.6781 44.7891 16.335 43.4459 16.335 41.7891V27.7891Z" fill="white"/>
<path fill-rule="evenodd" clip-rule="evenodd" d="M28.335 33.7891C27.7827 33.7891 27.335 34.2368 27.335 34.7891V41.7891C27.335 42.3413 27.7827 42.7891 28.335 42.7891H29.335C29.8873 42.7891 30.335 42.3413 30.335 41.7891V34.7891C30.335 34.2368 29.8873 33.7891 29.335 33.7891H28.335ZM25.335 34.7891C25.335 33.1322 26.6781 31.7891 28.335 31.7891H29.335C30.9918 31.7891 32.335 33.1322 32.335 34.7891V41.7891C32.335 43.4459 30.9918 44.7891 29.335 44.7891H28.335C26.6781 44.7891 25.335 43.4459 25.335 41.7891V34.7891Z" fill="white"/>
<path fill-rule="evenodd" clip-rule="evenodd" d="M37.335 24.7891C36.7827 24.7891 36.335 25.2368 36.335 25.7891V41.7891C36.335 42.3413 36.7827 42.7891 37.335 42.7891H38.335C38.8873 42.7891 39.335 42.3413 39.335 41.7891V25.7891C39.335 25.2368 38.8873 24.7891 38.335 24.7891H37.335ZM34.335 25.7891C34.335 24.1322 35.6781 22.7891 37.335 22.7891H38.335C39.9918 22.7891 41.335 24.1322 41.335 25.7891V41.7891C41.335 43.4459 39.9918 44.7891 38.335 44.7891H37.335C35.6781 44.7891 34.335 43.4459 34.335 41.7891V25.7891Z" fill="white"/>
<path fill-rule="evenodd" clip-rule="evenodd" d="M16.335 6.78906C10.2573 6.78906 5.33499 11.7113 5.33499 17.7891C5.33499 22.7187 8.5881 26.9007 13.0624 28.2943C13.5897 28.4585 13.884 29.0191 13.7197 29.5464C13.5555 30.0737 12.9949 30.3681 12.4676 30.2038C7.18188 28.5574 3.33499 23.6194 3.33499 17.7891C3.33499 10.6068 9.15271 4.78906 16.335 4.78906C16.8873 4.78906 17.335 5.23678 17.335 5.78906C17.335 6.34135 16.8873 6.78906 16.335 6.78906Z" fill="white"/>
<path fill-rule="evenodd" clip-rule="evenodd" d="M28.335 16.7891C28.8873 16.7891 29.335 17.2368 29.335 17.7891C29.335 20.3015 28.6197 22.6425 27.3958 24.6245C27.1057 25.0944 26.4895 25.2401 26.0196 24.9499C25.5497 24.6598 25.404 24.0436 25.6941 23.5737C26.7303 21.8956 27.335 19.9166 27.335 17.7891C27.335 17.2368 27.7827 16.7891 28.335 16.7891Z" fill="white"/>
<path fill-rule="evenodd" clip-rule="evenodd" d="M16.335 4.78906C16.8873 4.78906 17.335 5.23678 17.335 5.78906V16.7891H28.335C28.8873 16.7891 29.335 17.2368 29.335 17.7891C29.335 18.3413 28.8873 18.7891 28.335 18.7891H16.335C15.7827 18.7891 15.335 18.3413 15.335 17.7891V5.78906C15.335 5.23678 15.7827 4.78906 16.335 4.78906Z" fill="white"/>
<path fill-rule="evenodd" clip-rule="evenodd" d="M19.335 5.78906C19.335 5.23678 19.7827 4.78906 20.335 4.78906C25.3073 4.78906 29.335 8.81678 29.335 13.7891C29.335 14.3413 28.8873 14.7891 28.335 14.7891H20.335C19.7827 14.7891 19.335 14.3413 19.335 13.7891V5.78906ZM21.335 6.85986V12.7891H27.2642C26.826 9.72211 24.4019 7.29803 21.335 6.85986Z" fill="white"/>
<path fill-rule="evenodd" clip-rule="evenodd" d="M32.335 8.78906C32.335 8.23678 32.7827 7.78906 33.335 7.78906H44.335C44.8873 7.78906 45.335 8.23678 45.335 8.78906C45.335 9.34135 44.8873 9.78906 44.335 9.78906H33.335C32.7827 9.78906 32.335 9.34135 32.335 8.78906Z" fill="white"/>
<path fill-rule="evenodd" clip-rule="evenodd" d="M35.335 12.7891C35.335 12.2368 35.7827 11.7891 36.335 11.7891H44.335C44.8873 11.7891 45.335 12.2368 45.335 12.7891C45.335 13.3413 44.8873 13.7891 44.335 13.7891H36.335C35.7827 13.7891 35.335 13.3413 35.335 12.7891Z" fill="white"/>
<path fill-rule="evenodd" clip-rule="evenodd" d="M39.335 16.7891C39.335 16.2368 39.7827 15.7891 40.335 15.7891H44.335C44.8873 15.7891 45.335 16.2368 45.335 16.7891C45.335 17.3413 44.8873 17.7891 44.335 17.7891H40.335C39.7827 17.7891 39.335 17.3413 39.335 16.7891Z" fill="white"/>
</svg>
