<svg width="49" height="49" viewBox="0 0 49 49" fill="none" xmlns="http://www.w3.org/2000/svg">
<path d="M6.37666 38.4991C7.90666 40.0291 9.43666 41.5591 10.9667 43.0891C11.3567 43.4791 11.9867 43.4791 12.3767 43.0891C13.9067 41.5591 15.4367 40.0291 16.9667 38.4991C17.5967 37.8691 17.1467 36.7891 16.2567 36.7891H14.6667V24.7891H13.6667C10.9067 24.7891 8.66666 27.0291 8.66666 29.7891V36.7891H7.07666C6.18666 36.7891 5.73666 37.8691 6.36666 38.4991H6.37666Z" stroke="white" stroke-width="2" stroke-linecap="round" stroke-linejoin="round"/>
<path d="M42.9567 11.0788C41.4267 9.54879 39.8967 8.01879 38.3667 6.48879C37.9767 6.09879 37.3467 6.09879 36.9567 6.48879C35.4267 8.01879 33.8967 9.54879 32.3667 11.0788C31.7367 11.7088 32.1867 12.7888 33.0767 12.7888H34.6667V24.7888H36.6667C38.8767 24.7888 40.6667 22.9988 40.6667 20.7888V12.7888H42.2567C43.1467 12.7888 43.5967 11.7088 42.9667 11.0788H42.9567Z" stroke="white" stroke-width="2" stroke-linecap="round" stroke-linejoin="round"/>
<path d="M27.6667 20.7891H22.6667C22.1167 20.7891 21.6667 21.2391 21.6667 21.7891V23.7891C21.6667 24.3391 22.1167 24.7891 22.6667 24.7891H26.6667C27.2167 24.7891 27.6667 25.2391 27.6667 25.7891V27.7891C27.6667 28.3391 27.2167 28.7891 26.6667 28.7891H21.6667" stroke="white" stroke-width="2" stroke-linecap="round" stroke-linejoin="round"/>
<path d="M24.6667 20.7891V18.7891" stroke="white" stroke-width="2" stroke-linecap="round" stroke-linejoin="round"/>
<path d="M24.6667 28.7891V30.7891" stroke="white" stroke-width="2" stroke-linecap="round" stroke-linejoin="round"/>
<path d="M21.6667 12.7891H34.6667V29.7891C34.6667 33.6491 31.5267 36.7891 27.6667 36.7891H14.6667V19.7891C14.6667 15.9291 17.8067 12.7891 21.6667 12.7891Z" stroke="white" stroke-width="2" stroke-linecap="round" stroke-linejoin="round"/>
</svg>
