<svg width="49" height="49" viewBox="0 0 49 49" fill="none" xmlns="http://www.w3.org/2000/svg">
<path fill-rule="evenodd" clip-rule="evenodd" d="M9.66501 30.7891C9.66501 29.6868 10.5627 28.7891 11.665 28.7891H16.665C17.2173 28.7891 17.665 29.2368 17.665 29.7891C17.665 30.3413 17.2173 30.7891 16.665 30.7891H11.665V32.7891H15.665C16.7673 32.7891 17.665 33.6868 17.665 34.7891V36.7891C17.665 37.8913 16.7673 38.7891 15.665 38.7891H10.665C10.1127 38.7891 9.66501 38.3413 9.66501 37.7891C9.66501 37.2368 10.1127 36.7891 10.665 36.7891H15.665V34.7891H11.665C10.5627 34.7891 9.66501 33.8913 9.66501 32.7891V30.7891Z" fill="white"/>
<path fill-rule="evenodd" clip-rule="evenodd" d="M13.665 26.7891C14.2173 26.7891 14.665 27.2368 14.665 27.7891V29.7891C14.665 30.3413 14.2173 30.7891 13.665 30.7891C13.1127 30.7891 12.665 30.3413 12.665 29.7891V27.7891C12.665 27.2368 13.1127 26.7891 13.665 26.7891Z" fill="white"/>
<path fill-rule="evenodd" clip-rule="evenodd" d="M13.665 36.7891C14.2173 36.7891 14.665 37.2368 14.665 37.7891V39.7891C14.665 40.3413 14.2173 40.7891 13.665 40.7891C13.1127 40.7891 12.665 40.3413 12.665 39.7891V37.7891C12.665 37.2368 13.1127 36.7891 13.665 36.7891Z" fill="white"/>
<path fill-rule="evenodd" clip-rule="evenodd" d="M13.665 24.7891C8.69445 24.7891 4.66501 28.8185 4.66501 33.7891C4.66501 38.7596 8.69445 42.7891 13.665 42.7891C18.6356 42.7891 22.665 38.7596 22.665 33.7891C22.665 28.8185 18.6356 24.7891 13.665 24.7891ZM2.66501 33.7891C2.66501 27.7139 7.58988 22.7891 13.665 22.7891C19.7401 22.7891 24.665 27.7139 24.665 33.7891C24.665 39.8642 19.7401 44.7891 13.665 44.7891C7.58988 44.7891 2.66501 39.8642 2.66501 33.7891Z" fill="white"/>
<path fill-rule="evenodd" clip-rule="evenodd" d="M17.3954 19.2007C18.4473 18.9296 19.5411 18.7891 20.665 18.7891C27.8473 18.7891 33.665 24.6068 33.665 31.7891C33.665 37.6194 29.8181 42.5574 24.5324 44.2038C24.0051 44.3681 23.4445 44.0737 23.2803 43.5464C23.116 43.0191 23.4103 42.4585 23.9376 42.2943C28.4119 40.9007 31.665 36.7187 31.665 31.7891C31.665 25.7113 26.7427 20.7891 20.665 20.7891C19.7089 20.7891 18.7827 20.9085 17.8946 21.1374C17.3598 21.2753 16.8145 20.9534 16.6767 20.4186C16.5388 19.8838 16.8606 19.3385 17.3954 19.2007Z" fill="white"/>
<path fill-rule="evenodd" clip-rule="evenodd" d="M24.6735 15.2123C26.6548 14.2912 28.8486 13.7891 31.165 13.7891C39.7393 13.7891 46.665 21.0089 46.665 29.2891C46.665 37.5631 40.1972 44.3078 32.0413 44.7675C31.4899 44.7986 31.0177 44.3767 30.9866 43.8253C30.9555 43.2739 31.3773 42.8017 31.9287 42.7706C39.0328 42.3703 44.665 36.495 44.665 29.2891C44.665 22.0893 38.6107 15.7891 31.165 15.7891C29.1414 15.7891 27.2352 16.2269 25.5166 17.0259C25.0157 17.2587 24.421 17.0414 24.1882 16.5406C23.9554 16.0398 24.1726 15.4451 24.6735 15.2123Z" fill="white"/>
<path fill-rule="evenodd" clip-rule="evenodd" d="M24.665 5.78906C24.665 5.23678 25.1127 4.78906 25.665 4.78906H27.665C28.0695 4.78906 28.4341 5.0327 28.5889 5.40638C28.7437 5.78005 28.6581 6.21017 28.3721 6.49617L22.3721 12.4962C21.9816 12.8867 21.3484 12.8867 20.9579 12.4962L19.665 11.2033L14.3721 16.4962C13.9816 16.8867 13.3484 16.8867 12.9579 16.4962L11.665 15.2033L6.37212 20.4962C5.98159 20.8867 5.34843 20.8867 4.9579 20.4962C4.56738 20.1056 4.56738 19.4725 4.9579 19.082L10.9579 13.082C11.3484 12.6914 11.9816 12.6914 12.3721 13.082L13.665 14.3748L18.9579 9.08196C19.3484 8.69143 19.9816 8.69143 20.3721 9.08196L21.665 10.3748L25.3141 6.72576C24.9349 6.58364 24.665 6.21787 24.665 5.78906Z" fill="white"/>
<path fill-rule="evenodd" clip-rule="evenodd" d="M27.665 4.78906C28.2173 4.78906 28.665 5.23678 28.665 5.78906V7.78906C28.665 8.34135 28.2173 8.78906 27.665 8.78906C27.1127 8.78906 26.665 8.34135 26.665 7.78906V5.78906C26.665 5.23678 27.1127 4.78906 27.665 4.78906Z" fill="white"/>
</svg>
