<svg width="343" height="228" viewBox="0 0 343 228" fill="none" xmlns="http://www.w3.org/2000/svg">
<g filter="url(#filter0_d_2702_39228)">
<rect x="7.5" y="5.69727" width="328" height="213.697" rx="4.14138" fill="white"/>
</g>
<path d="M291.798 178.389V170.123H296.844V171.113H292.955V173.57H296.414V174.536H292.955V177.399H297.142V178.389H291.798ZM298.541 172.365C298.795 172.302 299.133 172.234 299.555 172.163C299.976 172.091 300.461 172.055 301.01 172.055C301.503 172.055 301.912 172.127 302.238 172.27C302.564 172.405 302.823 172.6 303.014 172.854C303.212 173.101 303.351 173.399 303.431 173.749C303.511 174.099 303.55 174.484 303.55 174.906V178.389H302.441V175.144C302.441 174.763 302.413 174.437 302.358 174.166C302.31 173.896 302.226 173.677 302.107 173.51C301.988 173.343 301.829 173.224 301.63 173.153C301.431 173.073 301.185 173.033 300.89 173.033C300.771 173.033 300.648 173.037 300.521 173.045C300.394 173.053 300.27 173.065 300.151 173.081C300.04 173.089 299.936 173.101 299.841 173.117C299.753 173.133 299.69 173.145 299.65 173.153V178.389H298.541V172.365ZM309.397 173.498C309.262 173.387 309.067 173.28 308.813 173.176C308.558 173.073 308.28 173.021 307.978 173.021C307.66 173.021 307.386 173.081 307.155 173.2C306.932 173.312 306.749 173.471 306.606 173.677C306.463 173.876 306.36 174.115 306.296 174.393C306.233 174.671 306.201 174.97 306.201 175.288C306.201 176.011 306.38 176.572 306.737 176.969C307.095 177.359 307.572 177.554 308.169 177.554C308.471 177.554 308.721 177.542 308.92 177.518C309.127 177.486 309.286 177.454 309.397 177.423V173.498ZM309.397 169.324L310.506 169.133V178.21C310.252 178.281 309.926 178.353 309.528 178.424C309.131 178.496 308.674 178.532 308.157 178.532C307.68 178.532 307.25 178.456 306.869 178.305C306.487 178.154 306.161 177.939 305.891 177.661C305.62 177.383 305.41 177.045 305.258 176.647C305.115 176.242 305.044 175.789 305.044 175.288C305.044 174.81 305.103 174.373 305.223 173.976C305.35 173.578 305.533 173.236 305.771 172.95C306.01 172.664 306.3 172.441 306.642 172.282C306.992 172.123 307.389 172.043 307.835 172.043C308.193 172.043 308.507 172.091 308.777 172.186C309.055 172.282 309.262 172.373 309.397 172.461V169.324Z" fill="#414652"/>
<path d="M38.2048 26.4955C39.6427 26.4955 40.7467 26.7506 41.5166 27.2608C42.2866 27.7618 42.6716 28.5874 42.6716 29.7377C42.6716 30.8973 42.282 31.7369 41.5027 32.2564C40.7235 32.7666 39.6103 33.0217 38.1631 33.0217H37.4812V36.25H35.3105V26.746C35.7836 26.6532 36.2845 26.5882 36.8133 26.5511C37.3421 26.514 37.8059 26.4955 38.2048 26.4955ZM38.344 28.3462C38.1863 28.3462 38.0286 28.3508 37.8709 28.3601C37.7224 28.3694 37.5926 28.3787 37.4812 28.3879V31.171H38.1631C38.9145 31.171 39.4804 31.0689 39.8607 30.8648C40.2411 30.6607 40.4313 30.2804 40.4313 29.7238C40.4313 29.4548 40.3802 29.2321 40.2782 29.0559C40.1854 28.8796 40.0463 28.7405 39.8607 28.6384C39.6845 28.5271 39.4665 28.4529 39.2067 28.4158C38.947 28.3694 38.6594 28.3462 38.344 28.3462ZM50.3744 35.9995C50.0219 36.1016 49.5673 36.1943 49.0107 36.2778C48.4541 36.3706 47.8697 36.417 47.2574 36.417C46.6359 36.417 46.1164 36.3335 45.6989 36.1665C45.2907 35.9995 44.966 35.7676 44.7248 35.4708C44.4836 35.1646 44.312 34.8028 44.21 34.3854C44.1079 33.9679 44.0569 33.5087 44.0569 33.0078V28.9306H46.1303V32.7573C46.1303 33.4252 46.2184 33.9076 46.3947 34.2045C46.5709 34.5013 46.9002 34.6498 47.3826 34.6498C47.5311 34.6498 47.6888 34.6451 47.8557 34.6358C48.0227 34.6173 48.1712 34.5987 48.301 34.5802V28.9306H50.3744V35.9995ZM52.2511 27.1077L54.3244 26.7738V28.9306H56.8153V30.6561H54.3244V33.2304C54.3244 33.6664 54.3987 34.0143 54.5471 34.274C54.7048 34.5338 55.0156 34.6637 55.4794 34.6637C55.702 34.6637 55.9293 34.6451 56.1612 34.608C56.4024 34.5616 56.6204 34.5013 56.8153 34.4271L57.1075 36.0413C56.857 36.1433 56.5787 36.2314 56.2726 36.3057C55.9664 36.3799 55.5907 36.417 55.1454 36.417C54.5796 36.417 54.1111 36.3428 53.74 36.1943C53.3689 36.0366 53.0721 35.8233 52.8494 35.5542C52.6268 35.2759 52.4691 34.942 52.3763 34.5524C52.2928 34.1627 52.2511 33.7314 52.2511 33.2582V27.1077Z" fill="#414652"/>
<rect x="8.01245" y="56.5789" width="326.975" height="162.301" stroke="#ECECEC" stroke-width="1.0249"/>
<path d="M7.5 109.855H335.5" stroke="#ECECEC" stroke-width="1.0249"/>
<path d="M7.5 83.4512H335.5" stroke="#ECECEC" stroke-width="1.0249"/>
<path d="M7.5 136.264H335.5" stroke="#ECECEC" stroke-width="1.0249"/>
<path d="M7.5 162.668H335.5" stroke="#ECECEC" stroke-width="1.0249"/>
<path d="M7.5 189.074H335.5" stroke="#ECECEC" stroke-width="1.0249"/>
<path d="M62.6779 56.0664L62.6779 219.392" stroke="#ECECEC" stroke-width="1.0249"/>
<path d="M116.833 56.0664L116.833 219.392" stroke="#ECECEC" stroke-width="1.0249"/>
<path d="M170.989 56.0664L170.989 219.392" stroke="#ECECEC" stroke-width="1.0249"/>
<path d="M225.145 56.0664L225.145 219.392" stroke="#ECECEC" stroke-width="1.0249"/>
<path d="M279.301 56.0664L279.301 219.392" stroke="#ECECEC" stroke-width="1.0249"/>
<path d="M7.5 56.832H335.5" stroke="#ECECEC" stroke-width="1.5302"/>
<path d="M63.1604 136.899L100.93 165.227L117.827 130.616L132.736 142.047L147.645 107.756L185.912 153.796L206.785 97.8164L253.997 191.744L278.845 171.865" stroke="#A8A8A8" stroke-width="3.97576"/>
<line x1="7.5" y1="136.514" x2="333.974" y2="136.514" stroke="black" stroke-width="0.765102"/>
<path d="M294.579 148.949C294.772 149.094 295.004 149.214 295.275 149.307C295.554 149.393 295.842 149.436 296.14 149.436C296.379 149.436 296.607 149.409 296.826 149.356C297.051 149.297 297.25 149.207 297.422 149.088C297.601 148.962 297.744 148.806 297.85 148.621C297.956 148.429 298.009 148.2 298.009 147.935C298.009 147.67 297.946 147.454 297.82 147.289C297.694 147.123 297.535 146.981 297.343 146.861C297.157 146.742 296.952 146.633 296.726 146.533C296.508 146.427 296.302 146.301 296.11 146.156C295.925 146.01 295.769 145.834 295.643 145.629C295.517 145.417 295.454 145.142 295.454 144.804C295.454 144.565 295.504 144.33 295.603 144.098C295.703 143.86 295.855 143.648 296.06 143.462C296.272 143.277 296.534 143.128 296.846 143.015C297.164 142.896 297.538 142.836 297.969 142.836C298.254 142.836 298.522 142.866 298.774 142.925C299.032 142.978 299.311 143.078 299.609 143.224L299.261 143.79C299.029 143.651 298.797 143.555 298.565 143.502C298.34 143.442 298.101 143.412 297.85 143.412C297.631 143.412 297.419 143.439 297.213 143.492C297.015 143.538 296.836 143.615 296.677 143.721C296.518 143.82 296.388 143.956 296.289 144.128C296.196 144.294 296.15 144.496 296.15 144.734C296.15 144.999 296.213 145.215 296.339 145.38C296.465 145.546 296.624 145.689 296.816 145.808C297.008 145.927 297.213 146.04 297.432 146.146C297.651 146.245 297.856 146.368 298.048 146.514C298.24 146.653 298.4 146.832 298.525 147.05C298.651 147.269 298.714 147.554 298.714 147.905C298.714 148.163 298.661 148.422 298.555 148.68C298.456 148.932 298.294 149.157 298.068 149.356C297.85 149.555 297.568 149.717 297.223 149.843C296.885 149.963 296.478 150.022 296.001 150.022C295.683 150.022 295.371 149.979 295.067 149.893C294.768 149.807 294.49 149.688 294.232 149.535L294.579 148.949ZM300.964 143.224L301.639 143.104L301.252 144.734H303.061L302.932 145.291H301.113L300.506 147.806C300.473 147.925 300.443 148.054 300.417 148.193C300.397 148.326 300.387 148.458 300.387 148.591C300.387 148.889 300.46 149.098 300.606 149.217C300.752 149.336 300.934 149.396 301.152 149.396C301.364 149.396 301.547 149.373 301.699 149.326C301.858 149.28 302.024 149.217 302.196 149.138L302.256 149.724C302.077 149.797 301.875 149.86 301.649 149.913C301.431 149.966 301.212 149.992 300.993 149.992C300.821 149.992 300.659 149.972 300.506 149.933C300.354 149.893 300.218 149.827 300.099 149.734C299.986 149.641 299.893 149.519 299.821 149.366C299.754 149.214 299.721 149.022 299.721 148.79C299.721 148.505 299.768 148.177 299.86 147.806L300.964 143.224ZM304.343 144.963C304.594 144.864 304.869 144.781 305.168 144.715C305.472 144.648 305.77 144.615 306.062 144.615C306.214 144.615 306.36 144.625 306.499 144.645C306.639 144.665 306.771 144.698 306.897 144.744L306.728 145.331C306.47 145.251 306.205 145.211 305.933 145.211C305.761 145.211 305.588 145.225 305.416 145.251C305.244 145.278 305.071 145.317 304.899 145.371L303.816 149.873H303.17L304.343 144.963ZM308.052 144.734H308.698L307.456 149.873H306.81L308.052 144.734ZM308.31 143.234C308.31 143.061 308.357 142.932 308.45 142.846C308.549 142.753 308.655 142.707 308.768 142.707C308.9 142.707 309.003 142.75 309.076 142.836C309.149 142.915 309.185 143.021 309.185 143.154C309.185 143.313 309.132 143.436 309.026 143.522C308.92 143.608 308.814 143.651 308.708 143.651C308.575 143.651 308.476 143.615 308.41 143.542C308.344 143.462 308.31 143.359 308.31 143.234ZM310.978 142.279L311.654 142.16L310.511 146.911C310.749 146.752 310.991 146.573 311.236 146.374C311.488 146.169 311.726 145.967 311.952 145.768C312.184 145.563 312.392 145.371 312.578 145.192C312.763 145.006 312.909 144.854 313.015 144.734H313.8C313.681 144.887 313.509 145.072 313.284 145.291C313.065 145.51 312.83 145.732 312.578 145.957C312.333 146.182 312.088 146.394 311.842 146.593C311.604 146.785 311.405 146.928 311.246 147.02C311.471 147.193 311.69 147.395 311.902 147.627C312.121 147.859 312.32 148.104 312.498 148.362C312.677 148.621 312.836 148.882 312.976 149.147C313.121 149.406 313.234 149.648 313.313 149.873H312.618C312.326 149.25 311.995 148.717 311.624 148.273C311.253 147.822 310.862 147.458 310.451 147.179L309.795 149.873H309.149L310.978 142.279ZM318.399 145.937C318.399 146.308 318.306 146.61 318.12 146.842C317.942 147.073 317.686 147.259 317.355 147.398C317.03 147.531 316.636 147.627 316.172 147.686C315.715 147.746 315.205 147.789 314.642 147.816V148.024C314.642 148.216 314.662 148.395 314.701 148.561C314.741 148.727 314.814 148.872 314.92 148.998C315.026 149.118 315.172 149.214 315.357 149.287C315.549 149.36 315.795 149.396 316.093 149.396C316.325 149.396 316.557 149.363 316.789 149.297C317.027 149.23 317.252 149.131 317.464 148.998L317.534 149.595C317.309 149.721 317.06 149.817 316.789 149.883C316.517 149.956 316.242 149.992 315.964 149.992C315.599 149.992 315.291 149.946 315.039 149.853C314.794 149.76 314.592 149.631 314.433 149.466C314.281 149.3 314.171 149.101 314.105 148.869C314.039 148.637 314.006 148.382 314.006 148.104C314.006 147.68 314.069 147.259 314.194 146.842C314.327 146.424 314.519 146.05 314.771 145.718C315.023 145.387 315.331 145.122 315.695 144.923C316.066 144.718 316.487 144.615 316.958 144.615C317.421 144.615 317.776 144.738 318.021 144.983C318.273 145.221 318.399 145.539 318.399 145.937ZM316.898 145.202C316.633 145.202 316.384 145.258 316.152 145.371C315.921 145.477 315.712 145.622 315.526 145.808C315.341 145.993 315.178 146.209 315.039 146.454C314.907 146.699 314.807 146.957 314.741 147.229C315.304 147.216 315.778 147.179 316.162 147.12C316.547 147.06 316.855 146.977 317.087 146.871C317.325 146.765 317.494 146.639 317.594 146.494C317.693 146.341 317.743 146.169 317.743 145.977C317.743 145.718 317.663 145.526 317.504 145.4C317.352 145.268 317.15 145.202 316.898 145.202Z" fill="#414652" fill-opacity="0.6"/>
<path d="M69.6212 137.891C69.6212 142.282 66.0612 145.842 61.6697 145.842C57.2782 145.842 53.7182 142.282 53.7182 137.891C53.7182 133.499 57.2782 129.939 61.6697 129.939C66.0612 129.939 69.6212 133.499 69.6212 137.891Z" fill="#FF444F"/>
<path d="M51.1157 159.995C52.3243 159.995 52.9287 159.582 52.9287 158.755C52.9287 158.5 52.873 158.286 52.7617 158.111C52.6583 157.928 52.5152 157.773 52.3323 157.646C52.1494 157.511 51.9387 157.395 51.7002 157.3C51.4696 157.204 51.2231 157.109 50.9607 157.014C50.6585 156.91 50.3722 156.795 50.1019 156.668C49.8315 156.532 49.597 156.377 49.3982 156.203C49.1994 156.02 49.0404 155.805 48.9211 155.558C48.8098 155.312 48.7541 155.014 48.7541 154.664C48.7541 153.94 49.0006 153.376 49.4936 152.97C49.9866 152.565 50.6665 152.362 51.5332 152.362C52.0341 152.362 52.4874 152.418 52.8929 152.529C53.3064 152.632 53.6085 152.748 53.7994 152.875L53.4296 153.817C53.2626 153.714 53.0122 153.614 52.6782 153.519C52.3522 153.415 51.9705 153.364 51.5332 153.364C51.3105 153.364 51.1038 153.388 50.913 153.435C50.7221 153.483 50.5551 153.555 50.412 153.65C50.2689 153.745 50.1536 153.869 50.0661 154.02C49.9866 154.163 49.9468 154.334 49.9468 154.533C49.9468 154.755 49.9906 154.942 50.078 155.093C50.1655 155.244 50.2888 155.38 50.4478 155.499C50.6068 155.61 50.7897 155.713 50.9964 155.809C51.2111 155.904 51.4457 156 51.7002 156.095C52.058 156.238 52.384 156.381 52.6782 156.525C52.9803 156.668 53.2388 156.839 53.4535 157.037C53.6761 157.236 53.8471 157.475 53.9663 157.753C54.0856 158.023 54.1452 158.353 54.1452 158.743C54.1452 159.467 53.8789 160.023 53.3461 160.413C52.8213 160.802 52.0778 160.997 51.1157 160.997C50.7897 160.997 50.4875 160.973 50.2092 160.926C49.9389 160.886 49.6964 160.838 49.4817 160.783C49.267 160.719 49.0801 160.655 48.9211 160.592C48.77 160.52 48.6507 160.461 48.5633 160.413L48.9092 159.459C49.0921 159.562 49.3704 159.677 49.7441 159.805C50.1178 159.932 50.575 159.995 51.1157 159.995ZM56.5095 154.616H58.8592V155.547H56.5095V158.409C56.5095 158.719 56.5334 158.978 56.5811 159.184C56.6288 159.383 56.7004 159.542 56.7958 159.661C56.8912 159.773 57.0105 159.852 57.1536 159.9C57.2967 159.948 57.4637 159.972 57.6546 159.972C57.9885 159.972 58.2549 159.936 58.4537 159.864C58.6604 159.785 58.8036 159.729 58.8831 159.697L59.0978 160.616C58.9864 160.671 58.7916 160.739 58.5133 160.818C58.235 160.906 57.917 160.95 57.5591 160.95C57.1377 160.95 56.7878 160.898 56.5095 160.795C56.2392 160.683 56.0205 160.52 55.8535 160.305C55.6866 160.091 55.5673 159.828 55.4957 159.518C55.4321 159.2 55.4003 158.834 55.4003 158.421V152.887L56.5095 152.696V154.616ZM62.3699 160.019C62.6323 160.019 62.8629 160.015 63.0617 160.007C63.2685 159.991 63.4394 159.968 63.5746 159.936V158.087C63.4951 158.047 63.3639 158.015 63.181 157.992C63.0061 157.96 62.7914 157.944 62.5369 157.944C62.3699 157.944 62.191 157.956 62.0002 157.98C61.8173 158.004 61.6463 158.055 61.4873 158.135C61.3362 158.206 61.209 158.31 61.1056 158.445C61.0023 158.572 60.9506 158.743 60.9506 158.958C60.9506 159.355 61.0778 159.634 61.3323 159.793C61.5867 159.944 61.9326 160.019 62.3699 160.019ZM62.2745 154.461C62.7198 154.461 63.0935 154.521 63.3957 154.64C63.7058 154.751 63.9523 154.914 64.1352 155.129C64.326 155.336 64.4612 155.586 64.5407 155.88C64.6202 156.167 64.66 156.485 64.66 156.835V160.711C64.5646 160.727 64.4294 160.751 64.2544 160.783C64.0875 160.806 63.8966 160.83 63.6819 160.854C63.4672 160.878 63.2327 160.898 62.9782 160.914C62.7317 160.938 62.4852 160.95 62.2387 160.95C61.8889 160.95 61.5668 160.914 61.2726 160.842C60.9784 160.771 60.724 160.659 60.5093 160.508C60.2946 160.349 60.1276 160.142 60.0083 159.888C59.8891 159.634 59.8294 159.327 59.8294 158.97C59.8294 158.628 59.897 158.334 60.0322 158.087C60.1753 157.841 60.3662 157.642 60.6047 157.491C60.8432 157.34 61.1215 157.228 61.4396 157.157C61.7577 157.085 62.0916 157.049 62.4415 157.049C62.5528 157.049 62.6681 157.057 62.7874 157.073C62.9067 157.081 63.018 157.097 63.1214 157.121C63.2327 157.137 63.3281 157.153 63.4076 157.169C63.4871 157.185 63.5428 157.196 63.5746 157.204V156.894C63.5746 156.711 63.5547 156.532 63.515 156.358C63.4752 156.175 63.4036 156.016 63.3003 155.88C63.1969 155.737 63.0538 155.626 62.8709 155.547C62.6959 155.459 62.4654 155.415 62.1791 155.415C61.8133 155.415 61.4913 155.443 61.213 155.499C60.9426 155.547 60.7399 155.598 60.6047 155.654L60.4735 154.735C60.6166 154.672 60.8552 154.612 61.1891 154.557C61.5231 154.493 61.8849 154.461 62.2745 154.461ZM68.7923 154.485C68.8877 154.485 68.9951 154.493 69.1143 154.509C69.2416 154.517 69.3648 154.533 69.4841 154.557C69.6034 154.572 69.7107 154.592 69.8061 154.616C69.9095 154.632 69.985 154.648 70.0327 154.664L69.8419 155.63C69.7544 155.598 69.6073 155.562 69.4006 155.523C69.2018 155.475 68.9434 155.451 68.6253 155.451C68.4186 155.451 68.2118 155.475 68.0051 155.523C67.8063 155.562 67.6751 155.59 67.6115 155.606V160.818H66.5023V154.879C66.7647 154.783 67.0907 154.696 67.4803 154.616C67.8699 154.529 68.3073 154.485 68.7923 154.485ZM72.1408 154.616H74.4905V155.547H72.1408V158.409C72.1408 158.719 72.1646 158.978 72.2124 159.184C72.2601 159.383 72.3316 159.542 72.427 159.661C72.5225 159.773 72.6417 159.852 72.7849 159.9C72.928 159.948 73.095 159.972 73.2858 159.972C73.6198 159.972 73.8862 159.936 74.0849 159.864C74.2917 159.785 74.4348 159.729 74.5143 159.697L74.729 160.616C74.6177 160.671 74.4229 160.739 74.1446 160.818C73.8663 160.906 73.5482 160.95 73.1904 160.95C72.769 160.95 72.4191 160.898 72.1408 160.795C71.8704 160.683 71.6518 160.52 71.4848 160.305C71.3178 160.091 71.1985 159.828 71.127 159.518C71.0634 159.2 71.0316 158.834 71.0316 158.421V152.887L72.1408 152.696V154.616Z" fill="#414652"/>
<rect x="127.767" y="13.6484" width="105.358" height="33.7939" rx="15.903" fill="#00A79E"/>
<path d="M156.201 25.4516C157.845 25.4516 159.106 25.7431 159.986 26.3263C160.866 26.8988 161.306 27.8423 161.306 29.157C161.306 30.4822 160.861 31.4417 159.97 32.0354C159.08 32.6186 157.807 32.9101 156.154 32.9101H155.374V36.5996H152.893V25.7378C153.434 25.6318 154.007 25.5576 154.611 25.5152C155.215 25.4728 155.745 25.4516 156.201 25.4516ZM156.36 27.5667C156.18 27.5667 156 27.572 155.82 27.5826C155.65 27.5932 155.502 27.6038 155.374 27.6144V30.795H156.154C157.012 30.795 157.659 30.6784 158.094 30.4451C158.528 30.2119 158.746 29.7772 158.746 29.1411C158.746 28.8336 158.687 28.5792 158.571 28.3777C158.465 28.1763 158.306 28.0173 158.094 27.9007C157.892 27.7734 157.643 27.6886 157.346 27.6462C157.049 27.5932 156.721 27.5667 156.36 27.5667ZM165.855 34.9457C166.088 34.9457 166.311 34.9404 166.523 34.9298C166.735 34.9192 166.904 34.9033 167.032 34.8821V33.085C166.936 33.0638 166.793 33.0426 166.602 33.0214C166.411 33.0002 166.236 32.9896 166.077 32.9896C165.855 32.9896 165.643 33.0055 165.441 33.0373C165.25 33.0585 165.081 33.1062 164.932 33.1805C164.784 33.2547 164.667 33.3554 164.583 33.4826C164.498 33.6098 164.455 33.7689 164.455 33.9597C164.455 34.3308 164.577 34.5905 164.821 34.739C165.076 34.8768 165.42 34.9457 165.855 34.9457ZM165.664 28.012C166.364 28.012 166.947 28.0915 167.413 28.2505C167.88 28.4095 168.251 28.6375 168.527 28.9343C168.813 29.2312 169.014 29.5917 169.131 30.0158C169.247 30.4398 169.306 30.9116 169.306 31.4311V36.3611C168.966 36.4353 168.495 36.5201 167.89 36.6155C167.286 36.7215 166.555 36.7745 165.696 36.7745C165.155 36.7745 164.662 36.7268 164.217 36.6314C163.782 36.536 163.406 36.3823 163.088 36.1702C162.77 35.9476 162.526 35.6613 162.356 35.3115C162.187 34.9616 162.102 34.5322 162.102 34.0233C162.102 33.5356 162.197 33.1221 162.388 32.7829C162.589 32.4436 162.854 32.1733 163.183 31.9718C163.512 31.7704 163.888 31.6273 164.312 31.5424C164.736 31.447 165.176 31.3993 165.632 31.3993C165.94 31.3993 166.21 31.4152 166.443 31.447C166.687 31.4682 166.883 31.5 167.032 31.5424V31.3198C167.032 30.9169 166.91 30.5936 166.666 30.3497C166.422 30.1059 165.998 29.9839 165.394 29.9839C164.991 29.9839 164.593 30.0158 164.201 30.0794C163.809 30.1324 163.469 30.2119 163.183 30.3179L162.881 28.4095C163.019 28.3671 163.188 28.3247 163.39 28.2823C163.602 28.2293 163.83 28.1869 164.074 28.1551C164.318 28.1127 164.572 28.0809 164.837 28.0597C165.113 28.0279 165.388 28.012 165.664 28.012ZM178.673 28.2346C178.196 29.8461 177.698 31.3569 177.178 32.767C176.659 34.177 176.092 35.5447 175.477 36.87C175.254 37.3471 175.031 37.7499 174.809 38.0786C174.586 38.4179 174.342 38.6935 174.077 38.9055C173.812 39.1282 173.51 39.2872 173.171 39.3826C172.842 39.4887 172.455 39.5417 172.01 39.5417C171.639 39.5417 171.294 39.5046 170.976 39.4303C170.669 39.3667 170.414 39.2925 170.213 39.2077L170.626 37.3152C170.87 37.4001 171.088 37.4584 171.278 37.4902C171.469 37.522 171.671 37.5379 171.883 37.5379C172.307 37.5379 172.63 37.4213 172.853 37.188C173.086 36.9654 173.282 36.6526 173.441 36.2497C172.9 35.1895 172.36 34.0021 171.819 32.6875C171.278 31.3622 170.769 29.8779 170.292 28.2346H172.805C172.911 28.6481 173.033 29.0987 173.171 29.5864C173.319 30.0635 173.473 30.5512 173.632 31.0495C173.791 31.5371 173.95 32.0142 174.109 32.4807C174.279 32.9472 174.438 33.3713 174.586 33.753C174.724 33.3713 174.867 32.9472 175.016 32.4807C175.164 32.0142 175.307 31.5371 175.445 31.0495C175.593 30.5512 175.731 30.0635 175.858 29.5864C175.996 29.0987 176.118 28.6481 176.224 28.2346H178.673ZM187.55 32.4012C187.55 33.0585 187.455 33.6628 187.264 34.2142C187.073 34.7549 186.798 35.2213 186.437 35.6136C186.077 35.9953 185.642 36.2922 185.133 36.5042C184.635 36.7162 184.073 36.8223 183.447 36.8223C182.832 36.8223 182.271 36.7162 181.762 36.5042C181.263 36.2922 180.834 35.9953 180.474 35.6136C180.113 35.2213 179.832 34.7549 179.631 34.2142C179.429 33.6628 179.329 33.0585 179.329 32.4012C179.329 31.7439 179.429 31.1449 179.631 30.6042C179.843 30.0635 180.129 29.6023 180.489 29.2206C180.861 28.8389 181.295 28.5421 181.793 28.33C182.302 28.118 182.854 28.012 183.447 28.012C184.052 28.012 184.603 28.118 185.101 28.33C185.61 28.5421 186.045 28.8389 186.405 29.2206C186.766 29.6023 187.047 30.0635 187.248 30.6042C187.45 31.1449 187.55 31.7439 187.55 32.4012ZM185.133 32.4012C185.133 31.6697 184.985 31.0972 184.688 30.6837C184.402 30.2596 183.988 30.0476 183.447 30.0476C182.907 30.0476 182.488 30.2596 182.191 30.6837C181.894 31.0972 181.746 31.6697 181.746 32.4012C181.746 33.1327 181.894 33.7159 182.191 34.1505C182.488 34.5746 182.907 34.7867 183.447 34.7867C183.988 34.7867 184.402 34.5746 184.688 34.1505C184.985 33.7159 185.133 33.1327 185.133 32.4012ZM196.526 36.3134C196.124 36.43 195.604 36.536 194.968 36.6314C194.332 36.7374 193.664 36.7904 192.964 36.7904C192.254 36.7904 191.66 36.695 191.183 36.5042C190.716 36.3134 190.345 36.0483 190.07 35.709C189.794 35.3592 189.598 34.9457 189.481 34.4686C189.365 33.9915 189.306 33.4667 189.306 32.8942V28.2346H191.676V32.6079C191.676 33.3713 191.777 33.9226 191.978 34.2619C192.18 34.6011 192.556 34.7708 193.107 34.7708C193.277 34.7708 193.457 34.7655 193.648 34.7549C193.839 34.7337 194.008 34.7124 194.157 34.6912V28.2346H196.526V36.3134ZM198.671 26.1513L201.041 25.7696V28.2346H203.887V30.2066H201.041V33.1487C201.041 33.6469 201.126 34.0445 201.295 34.3414C201.475 34.6382 201.831 34.7867 202.361 34.7867C202.615 34.7867 202.875 34.7655 203.14 34.7231C203.416 34.67 203.665 34.6011 203.887 34.5163L204.221 36.3611C203.935 36.4777 203.617 36.5784 203.267 36.6632C202.917 36.748 202.488 36.7904 201.979 36.7904C201.332 36.7904 200.797 36.7056 200.373 36.536C199.949 36.3558 199.609 36.1119 199.355 35.8045C199.101 35.4864 198.92 35.1047 198.814 34.6594C198.719 34.2142 198.671 33.7212 198.671 33.1805V26.1513ZM208.25 28.4255C208.25 29.2842 208.218 30.0847 208.155 30.8268C208.091 31.569 208.006 32.3217 207.9 33.085H206.087C205.981 32.3217 205.891 31.569 205.817 30.8268C205.753 30.0847 205.722 29.2842 205.722 28.4255V25.5788H208.25V28.4255ZM208.457 35.3433C208.457 35.8098 208.303 36.1702 207.996 36.4247C207.699 36.6791 207.36 36.8063 206.978 36.8063C206.596 36.8063 206.252 36.6791 205.944 36.4247C205.647 36.1702 205.499 35.8098 205.499 35.3433C205.499 34.8768 205.647 34.5163 205.944 34.2619C206.252 34.0074 206.596 33.8802 206.978 33.8802C207.36 33.8802 207.699 34.0074 207.996 34.2619C208.303 34.5163 208.457 34.8768 208.457 35.3433Z" fill="white"/>
<path d="M279.839 56.0664L279.839 219.392" stroke="#7D7D7D" stroke-width="2.98182"/>
<path d="M288.278 68.1179H292.124L291.995 68.7043H288.805L288.218 71.0997H291.061L290.932 71.6762H288.109L287.423 74.4194H290.842L290.723 75.0059H286.628L288.278 68.1179ZM293.54 72.3123L292.268 69.8672H293.023L294.027 71.9445C294.332 71.5735 294.627 71.2057 294.912 70.8413C295.203 70.4702 295.435 70.1455 295.607 69.8672H296.323C296.031 70.3045 295.707 70.7419 295.349 71.1792C294.998 71.6165 294.657 72.0274 294.325 72.4117C294.411 72.5773 294.507 72.7629 294.613 72.9683C294.719 73.1737 294.825 73.3924 294.932 73.6243C295.044 73.8496 295.147 74.0815 295.24 74.32C295.339 74.552 295.425 74.7806 295.498 75.0059H294.822C294.776 74.8535 294.716 74.6845 294.643 74.499C294.57 74.3068 294.488 74.1113 294.395 73.9125C294.309 73.7137 294.219 73.5183 294.126 73.3261C294.034 73.1273 293.948 72.9484 293.868 72.7894L291.92 75.0059H291.135L293.54 72.3123ZM297.14 74.4095C297.345 74.4691 297.554 74.499 297.766 74.499C298.177 74.499 298.541 74.4194 298.859 74.2604C299.177 74.0947 299.445 73.8827 299.664 73.6243C299.883 73.3592 300.048 73.0644 300.161 72.7397C300.274 72.4084 300.33 72.0737 300.33 71.7358C300.33 71.2388 300.221 70.8777 300.002 70.6524C299.783 70.4205 299.455 70.3045 299.018 70.3045C298.866 70.3045 298.71 70.3178 298.551 70.3443C298.399 70.3708 298.239 70.4072 298.074 70.4536L297.14 74.4095ZM297.517 70.0759C297.796 69.9765 298.074 69.897 298.352 69.8374C298.63 69.7777 298.905 69.7479 299.177 69.7479C300.383 69.7479 300.986 70.3774 300.986 71.6364C300.986 72.0804 300.913 72.5111 300.767 72.9285C300.622 73.346 300.406 73.7171 300.121 74.0417C299.843 74.3598 299.498 74.6149 299.088 74.8071C298.683 74.9992 298.22 75.0953 297.696 75.0953C297.438 75.0953 297.199 75.0655 296.981 75.0059L296.543 76.8446H295.887L297.517 70.0759ZM302.731 69.8672H303.377L302.135 75.0059H301.489L302.731 69.8672ZM302.989 68.3663C302.989 68.1941 303.036 68.0648 303.129 67.9787C303.228 67.8859 303.334 67.8396 303.447 67.8396C303.579 67.8396 303.682 67.8826 303.755 67.9688C303.828 68.0483 303.864 68.1543 303.864 68.2868C303.864 68.4459 303.811 68.5684 303.705 68.6546C303.599 68.7407 303.493 68.7838 303.387 68.7838C303.254 68.7838 303.155 68.7474 303.089 68.6745C303.023 68.5949 302.989 68.4922 302.989 68.3663ZM305.001 70.0958C305.252 69.9964 305.527 69.9136 305.826 69.8473C306.13 69.7811 306.429 69.7479 306.72 69.7479C306.873 69.7479 307.018 69.7579 307.158 69.7777C307.297 69.7976 307.429 69.8307 307.555 69.8771L307.386 70.4636C307.128 70.384 306.863 70.3443 306.591 70.3443C306.419 70.3443 306.246 70.3575 306.074 70.384C305.902 70.4105 305.73 70.4503 305.557 70.5033L304.474 75.0059H303.828L305.001 70.0958ZM306.285 76.1588C306.464 76.2582 306.666 76.3079 306.891 76.3079C307.229 76.3079 307.561 76.2152 307.885 76.0296C308.21 75.8441 308.511 75.5625 308.79 75.1848C308.511 74.3035 308.293 73.4089 308.134 72.5011C307.975 71.5933 307.882 70.7154 307.855 69.8672H308.531C308.545 70.1853 308.564 70.5331 308.591 70.9108C308.624 71.2885 308.67 71.6828 308.73 72.0936C308.79 72.5044 308.863 72.9252 308.949 73.3559C309.035 73.78 309.141 74.1941 309.267 74.5983C309.565 74.1279 309.833 73.6541 310.072 73.177C310.31 72.6933 310.519 72.2394 310.698 71.8153C310.877 71.3912 311.023 71.0102 311.135 70.6723C311.255 70.3277 311.341 70.0594 311.394 69.8672H312.03C311.99 70.0063 311.917 70.2449 311.811 70.5828C311.705 70.9141 311.563 71.3018 311.384 71.7457C311.205 72.1897 310.986 72.6701 310.728 73.187C310.476 73.6972 310.185 74.1975 309.853 74.6878C309.343 75.4498 308.849 76.0031 308.372 76.3477C307.895 76.6989 307.398 76.8745 306.881 76.8745C306.762 76.8745 306.633 76.8645 306.494 76.8446C306.355 76.8248 306.209 76.7751 306.056 76.6956L306.285 76.1588Z" fill="#414652" fill-opacity="0.6"/>
<path d="M287.791 170.371C287.791 174.763 284.231 178.323 279.839 178.323C275.448 178.323 271.888 174.763 271.888 170.371C271.888 165.98 275.448 162.42 279.839 162.42C284.231 162.42 287.791 165.98 287.791 170.371Z" fill="#FF444F"/>
<defs>
<filter id="filter0_d_2702_39228" x="0.597702" y="0.175427" width="341.805" height="227.502" filterUnits="userSpaceOnUse" color-interpolation-filters="sRGB">
<feFlood flood-opacity="0" result="BackgroundImageFix"/>
<feColorMatrix in="SourceAlpha" type="matrix" values="0 0 0 0 0 0 0 0 0 0 0 0 0 0 0 0 0 0 127 0" result="hardAlpha"/>
<feOffset dy="1.38046"/>
<feGaussianBlur stdDeviation="3.45115"/>
<feComposite in2="hardAlpha" operator="out"/>
<feColorMatrix type="matrix" values="0 0 0 0 0 0 0 0 0 0 0 0 0 0 0 0 0 0 0.1 0"/>
<feBlend mode="normal" in2="BackgroundImageFix" result="effect1_dropShadow_2702_39228"/>
<feBlend mode="normal" in="SourceGraphic" in2="effect1_dropShadow_2702_39228" result="shape"/>
</filter>
</defs>
</svg>
