<svg width="343" height="228" viewBox="0 0 343 228" fill="none" xmlns="http://www.w3.org/2000/svg">
<g filter="url(#filter0_d_2702_39259)">
<rect x="7.5" y="5.69727" width="328" height="213.697" rx="4.14138" fill="white"/>
</g>
<path d="M38.2048 26.4955C39.6427 26.4955 40.7467 26.7506 41.5166 27.2608C42.2866 27.7618 42.6716 28.5874 42.6716 29.7377C42.6716 30.8973 42.282 31.7369 41.5027 32.2564C40.7235 32.7666 39.6103 33.0217 38.1631 33.0217H37.4812V36.25H35.3105V26.746C35.7836 26.6532 36.2845 26.5882 36.8133 26.5511C37.3421 26.514 37.8059 26.4955 38.2048 26.4955ZM38.344 28.3462C38.1863 28.3462 38.0286 28.3508 37.8709 28.3601C37.7224 28.3694 37.5926 28.3787 37.4812 28.3879V31.171H38.1631C38.9145 31.171 39.4804 31.0689 39.8607 30.8648C40.2411 30.6607 40.4313 30.2804 40.4313 29.7238C40.4313 29.4548 40.3802 29.2321 40.2782 29.0559C40.1854 28.8796 40.0463 28.7405 39.8607 28.6384C39.6845 28.5271 39.4665 28.4529 39.2067 28.4158C38.947 28.3694 38.6594 28.3462 38.344 28.3462ZM50.3744 35.9995C50.0219 36.1016 49.5673 36.1943 49.0107 36.2778C48.4541 36.3706 47.8697 36.417 47.2574 36.417C46.6359 36.417 46.1164 36.3335 45.6989 36.1665C45.2907 35.9995 44.966 35.7676 44.7248 35.4708C44.4836 35.1646 44.312 34.8028 44.21 34.3854C44.1079 33.9679 44.0569 33.5087 44.0569 33.0078V28.9306H46.1303V32.7573C46.1303 33.4252 46.2184 33.9076 46.3947 34.2045C46.5709 34.5013 46.9002 34.6498 47.3826 34.6498C47.5311 34.6498 47.6888 34.6451 47.8557 34.6358C48.0227 34.6173 48.1712 34.5987 48.301 34.5802V28.9306H50.3744V35.9995ZM52.2511 27.1077L54.3244 26.7738V28.9306H56.8153V30.6561H54.3244V33.2304C54.3244 33.6664 54.3987 34.0143 54.5471 34.274C54.7048 34.5338 55.0156 34.6637 55.4794 34.6637C55.702 34.6637 55.9293 34.6451 56.1612 34.608C56.4024 34.5616 56.6204 34.5013 56.8153 34.4271L57.1075 36.0413C56.857 36.1433 56.5787 36.2314 56.2726 36.3057C55.9664 36.3799 55.5907 36.417 55.1454 36.417C54.5796 36.417 54.1111 36.3428 53.74 36.1943C53.3689 36.0366 53.0721 35.8233 52.8494 35.5542C52.6268 35.2759 52.4691 34.942 52.3763 34.5524C52.2928 34.1627 52.2511 33.7314 52.2511 33.2582V27.1077Z" fill="#414652"/>
<rect x="8.01245" y="56.5789" width="326.975" height="162.301" stroke="#ECECEC" stroke-width="1.0249"/>
<path d="M7.5 109.855H335.5" stroke="#ECECEC" stroke-width="1.0249"/>
<path d="M7.5 83.4512H335.5" stroke="#ECECEC" stroke-width="1.0249"/>
<path d="M7.5 136.264H335.5" stroke="#ECECEC" stroke-width="1.0249"/>
<path d="M7.5 162.668H335.5" stroke="#ECECEC" stroke-width="1.0249"/>
<path d="M7.5 189.074H335.5" stroke="#ECECEC" stroke-width="1.0249"/>
<path d="M62.678 56.0664L62.678 219.392" stroke="#ECECEC" stroke-width="1.0249"/>
<path d="M116.833 56.0664L116.833 219.392" stroke="#ECECEC" stroke-width="1.0249"/>
<path d="M170.989 56.0664L170.989 219.392" stroke="#ECECEC" stroke-width="1.0249"/>
<path d="M225.145 56.0664L225.145 219.392" stroke="#ECECEC" stroke-width="1.0249"/>
<path d="M279.301 56.0664L279.301 219.392" stroke="#ECECEC" stroke-width="1.0249"/>
<path d="M278.845 56.3867L278.845 217.405" stroke="#7D7D7D" stroke-width="2.98182"/>
<path d="M285.296 67.1237H289.143L289.014 67.7101H285.823L285.237 70.1055H288.079L287.95 70.682H285.127L284.441 73.4253H287.861L287.741 74.0117H283.646L285.296 67.1237ZM290.558 71.3181L289.286 68.8731H290.041L291.045 70.9504C291.35 70.5793 291.645 70.2116 291.93 69.8471C292.221 69.476 292.453 69.1514 292.626 68.8731H293.341C293.05 69.3104 292.725 69.7477 292.367 70.1851C292.016 70.6224 291.675 71.0332 291.343 71.4175C291.43 71.5832 291.526 71.7687 291.632 71.9741C291.738 72.1796 291.844 72.3982 291.95 72.6301C292.062 72.8554 292.165 73.0874 292.258 73.3259C292.357 73.5578 292.443 73.7864 292.516 74.0117H291.84C291.794 73.8593 291.734 73.6903 291.661 73.5048C291.589 73.3126 291.506 73.1172 291.413 72.9184C291.327 72.7196 291.237 72.5241 291.145 72.332C291.052 72.1332 290.966 71.9543 290.886 71.7952L288.938 74.0117H288.153L290.558 71.3181ZM294.158 73.4154C294.363 73.475 294.572 73.5048 294.784 73.5048C295.195 73.5048 295.559 73.4253 295.877 73.2663C296.195 73.1006 296.464 72.8886 296.682 72.6301C296.901 72.3651 297.067 72.0702 297.179 71.7455C297.292 71.4142 297.348 71.0796 297.348 70.7417C297.348 70.2447 297.239 69.8836 297.02 69.6583C296.802 69.4263 296.474 69.3104 296.036 69.3104C295.884 69.3104 295.728 69.3236 295.569 69.3501C295.417 69.3766 295.258 69.4131 295.092 69.4595L294.158 73.4154ZM294.535 69.0818C294.814 68.9824 295.092 68.9029 295.37 68.8432C295.649 68.7836 295.924 68.7538 296.195 68.7538C297.401 68.7538 298.004 69.3833 298.004 70.6423C298.004 71.0862 297.931 71.5169 297.786 71.9344C297.64 72.3518 297.425 72.7229 297.14 73.0476C296.861 73.3657 296.517 73.6208 296.106 73.8129C295.702 74.0051 295.238 74.1012 294.714 74.1012C294.456 74.1012 294.217 74.0714 293.999 74.0117L293.561 75.8505H292.905L294.535 69.0818ZM299.749 68.8731H300.395L299.153 74.0117H298.507L299.749 68.8731ZM300.008 67.3722C300.008 67.1999 300.054 67.0707 300.147 66.9846C300.246 66.8918 300.352 66.8454 300.465 66.8454C300.597 66.8454 300.7 66.8885 300.773 66.9746C300.846 67.0541 300.882 67.1602 300.882 67.2927C300.882 67.4517 300.829 67.5743 300.723 67.6604C300.617 67.7466 300.511 67.7897 300.405 67.7897C300.273 67.7897 300.173 67.7532 300.107 67.6803C300.041 67.6008 300.008 67.4981 300.008 67.3722ZM302.019 69.1017C302.271 69.0023 302.546 68.9194 302.844 68.8532C303.149 68.7869 303.447 68.7538 303.738 68.7538C303.891 68.7538 304.037 68.7637 304.176 68.7836C304.315 68.8035 304.447 68.8366 304.573 68.883L304.404 69.4694C304.146 69.3899 303.881 69.3501 303.609 69.3501C303.437 69.3501 303.265 69.3634 303.092 69.3899C302.92 69.4164 302.748 69.4562 302.575 69.5092L301.492 74.0117H300.846L302.019 69.1017ZM303.303 75.1647C303.482 75.2641 303.684 75.3138 303.909 75.3138C304.247 75.3138 304.579 75.221 304.903 75.0355C305.228 74.8499 305.53 74.5683 305.808 74.1906C305.53 73.3093 305.311 72.4148 305.152 71.507C304.993 70.5992 304.9 69.7212 304.874 68.8731H305.549C305.563 69.1911 305.583 69.539 305.609 69.9167C305.642 70.2944 305.689 70.6886 305.748 71.0995C305.808 71.5103 305.881 71.9311 305.967 72.3618C306.053 72.7859 306.159 73.2 306.285 73.6042C306.583 73.1337 306.852 72.66 307.09 72.1829C307.329 71.6992 307.537 71.2453 307.716 70.8212C307.895 70.3971 308.041 70.0161 308.154 69.6781C308.273 69.3336 308.359 69.0652 308.412 68.8731H309.048C309.008 69.0122 308.935 69.2507 308.829 69.5887C308.723 69.92 308.581 70.3076 308.402 70.7516C308.223 71.1956 308.004 71.676 307.746 72.1928C307.494 72.703 307.203 73.2033 306.871 73.6937C306.361 74.4557 305.868 75.009 305.39 75.3535C304.913 75.7047 304.416 75.8803 303.9 75.8803C303.78 75.8803 303.651 75.8704 303.512 75.8505C303.373 75.8306 303.227 75.7809 303.075 75.7014L303.303 75.1647Z" fill="#414652" fill-opacity="0.6"/>
<path d="M7.5 56.832H335.5" stroke="#ECECEC" stroke-width="1.5302"/>
<path d="M63.1604 136.899L79.5604 117.517L119.318 180.633L153.609 111.554L175.476 130.936L204.3 103.105L236.106 125.469L250.518 100.62L279.342 87.6992" stroke="#A8A8A8" stroke-width="3.97576"/>
<line x1="7.5" y1="136.514" x2="333.974" y2="136.514" stroke="black" stroke-width="0.765102"/>
<path d="M294.579 148.949C294.772 149.094 295.004 149.214 295.275 149.307C295.554 149.393 295.842 149.436 296.14 149.436C296.379 149.436 296.607 149.409 296.826 149.356C297.051 149.297 297.25 149.207 297.422 149.088C297.601 148.962 297.744 148.806 297.85 148.621C297.956 148.429 298.009 148.2 298.009 147.935C298.009 147.67 297.946 147.454 297.82 147.289C297.694 147.123 297.535 146.981 297.343 146.861C297.157 146.742 296.952 146.633 296.726 146.533C296.508 146.427 296.302 146.301 296.11 146.156C295.925 146.01 295.769 145.834 295.643 145.629C295.517 145.417 295.454 145.142 295.454 144.804C295.454 144.565 295.504 144.33 295.603 144.098C295.703 143.86 295.855 143.648 296.06 143.462C296.272 143.277 296.534 143.128 296.846 143.015C297.164 142.896 297.538 142.836 297.969 142.836C298.254 142.836 298.522 142.866 298.774 142.925C299.032 142.978 299.311 143.078 299.609 143.224L299.261 143.79C299.029 143.651 298.797 143.555 298.565 143.502C298.34 143.442 298.101 143.412 297.85 143.412C297.631 143.412 297.419 143.439 297.213 143.492C297.015 143.538 296.836 143.615 296.677 143.721C296.518 143.82 296.388 143.956 296.289 144.128C296.196 144.294 296.15 144.496 296.15 144.734C296.15 144.999 296.213 145.215 296.339 145.38C296.465 145.546 296.624 145.689 296.816 145.808C297.008 145.927 297.213 146.04 297.432 146.146C297.651 146.245 297.856 146.368 298.048 146.514C298.24 146.653 298.4 146.832 298.525 147.05C298.651 147.269 298.714 147.554 298.714 147.905C298.714 148.163 298.661 148.422 298.555 148.68C298.456 148.932 298.294 149.157 298.068 149.356C297.85 149.555 297.568 149.717 297.223 149.843C296.885 149.963 296.478 150.022 296.001 150.022C295.683 150.022 295.371 149.979 295.067 149.893C294.768 149.807 294.49 149.688 294.232 149.535L294.579 148.949ZM300.964 143.224L301.639 143.104L301.252 144.734H303.061L302.932 145.291H301.113L300.506 147.806C300.473 147.925 300.443 148.054 300.417 148.193C300.397 148.326 300.387 148.458 300.387 148.591C300.387 148.889 300.46 149.098 300.606 149.217C300.752 149.336 300.934 149.396 301.152 149.396C301.364 149.396 301.547 149.373 301.699 149.326C301.858 149.28 302.024 149.217 302.196 149.138L302.256 149.724C302.077 149.797 301.875 149.86 301.649 149.913C301.431 149.966 301.212 149.992 300.993 149.992C300.821 149.992 300.659 149.972 300.506 149.933C300.354 149.893 300.218 149.827 300.099 149.734C299.986 149.641 299.893 149.519 299.821 149.366C299.754 149.214 299.721 149.022 299.721 148.79C299.721 148.505 299.768 148.177 299.86 147.806L300.964 143.224ZM304.343 144.963C304.594 144.864 304.869 144.781 305.168 144.715C305.472 144.648 305.77 144.615 306.062 144.615C306.214 144.615 306.36 144.625 306.499 144.645C306.639 144.665 306.771 144.698 306.897 144.744L306.728 145.331C306.47 145.251 306.205 145.211 305.933 145.211C305.761 145.211 305.588 145.225 305.416 145.251C305.244 145.278 305.071 145.317 304.899 145.371L303.816 149.873H303.17L304.343 144.963ZM308.052 144.734H308.698L307.456 149.873H306.81L308.052 144.734ZM308.31 143.234C308.31 143.061 308.357 142.932 308.45 142.846C308.549 142.753 308.655 142.707 308.768 142.707C308.9 142.707 309.003 142.75 309.076 142.836C309.149 142.915 309.185 143.021 309.185 143.154C309.185 143.313 309.132 143.436 309.026 143.522C308.92 143.608 308.814 143.651 308.708 143.651C308.575 143.651 308.476 143.615 308.41 143.542C308.344 143.462 308.31 143.359 308.31 143.234ZM310.978 142.279L311.654 142.16L310.511 146.911C310.749 146.752 310.991 146.573 311.236 146.374C311.488 146.169 311.726 145.967 311.952 145.768C312.184 145.563 312.392 145.371 312.578 145.192C312.763 145.006 312.909 144.854 313.015 144.734H313.8C313.681 144.887 313.509 145.072 313.284 145.291C313.065 145.51 312.83 145.732 312.578 145.957C312.333 146.182 312.088 146.394 311.842 146.593C311.604 146.785 311.405 146.928 311.246 147.02C311.471 147.193 311.69 147.395 311.902 147.627C312.121 147.859 312.32 148.104 312.498 148.362C312.677 148.621 312.836 148.882 312.976 149.147C313.121 149.406 313.234 149.648 313.313 149.873H312.618C312.326 149.25 311.995 148.717 311.624 148.273C311.253 147.822 310.862 147.458 310.451 147.179L309.795 149.873H309.149L310.978 142.279ZM318.399 145.937C318.399 146.308 318.306 146.61 318.12 146.842C317.942 147.073 317.686 147.259 317.355 147.398C317.03 147.531 316.636 147.627 316.172 147.686C315.715 147.746 315.205 147.789 314.642 147.816V148.024C314.642 148.216 314.662 148.395 314.701 148.561C314.741 148.727 314.814 148.872 314.92 148.998C315.026 149.118 315.172 149.214 315.357 149.287C315.549 149.36 315.795 149.396 316.093 149.396C316.325 149.396 316.557 149.363 316.789 149.297C317.027 149.23 317.252 149.131 317.464 148.998L317.534 149.595C317.309 149.721 317.06 149.817 316.789 149.883C316.517 149.956 316.242 149.992 315.964 149.992C315.599 149.992 315.291 149.946 315.039 149.853C314.794 149.76 314.592 149.631 314.433 149.466C314.281 149.3 314.171 149.101 314.105 148.869C314.039 148.637 314.006 148.382 314.006 148.104C314.006 147.68 314.069 147.259 314.194 146.842C314.327 146.424 314.519 146.05 314.771 145.718C315.023 145.387 315.331 145.122 315.695 144.923C316.066 144.718 316.487 144.615 316.958 144.615C317.421 144.615 317.776 144.738 318.021 144.983C318.273 145.221 318.399 145.539 318.399 145.937ZM316.898 145.202C316.633 145.202 316.384 145.258 316.152 145.371C315.921 145.477 315.712 145.622 315.526 145.808C315.341 145.993 315.178 146.209 315.039 146.454C314.907 146.699 314.807 146.957 314.741 147.229C315.304 147.216 315.778 147.179 316.162 147.12C316.547 147.06 316.855 146.977 317.087 146.871C317.325 146.765 317.494 146.639 317.594 146.494C317.693 146.341 317.743 146.169 317.743 145.977C317.743 145.718 317.663 145.526 317.504 145.4C317.352 145.268 317.15 145.202 316.898 145.202Z" fill="#414652" fill-opacity="0.6"/>
<path d="M243.095 80.3086V72.043H248.141V73.033H244.252V75.49H247.711V76.4561H244.252V79.3186H248.439V80.3086H243.095ZM249.838 74.2853C250.092 74.2217 250.43 74.1541 250.852 74.0826C251.273 74.011 251.758 73.9752 252.307 73.9752C252.8 73.9752 253.209 74.0468 253.535 74.1899C253.861 74.3251 254.12 74.5199 254.311 74.7743C254.509 75.0208 254.648 75.319 254.728 75.6689C254.808 76.0188 254.847 76.4044 254.847 76.8258V80.3086H253.738V77.0644C253.738 76.6827 253.71 76.3567 253.655 76.0863C253.607 75.816 253.523 75.5973 253.404 75.4303C253.285 75.2634 253.126 75.1441 252.927 75.0725C252.728 74.993 252.482 74.9532 252.187 74.9532C252.068 74.9532 251.945 74.9572 251.818 74.9652C251.691 74.9731 251.567 74.9851 251.448 75.001C251.337 75.0089 251.233 75.0208 251.138 75.0367C251.05 75.0526 250.987 75.0646 250.947 75.0725V80.3086H249.838V74.2853ZM260.694 75.4184C260.559 75.3071 260.364 75.1997 260.11 75.0964C259.855 74.993 259.577 74.9413 259.275 74.9413C258.957 74.9413 258.682 75.001 258.452 75.1202C258.229 75.2316 258.046 75.3906 257.903 75.5973C257.76 75.7961 257.657 76.0347 257.593 76.313C257.53 76.5913 257.498 76.8894 257.498 77.2075C257.498 77.9311 257.677 78.4917 258.034 78.8892C258.392 79.2789 258.869 79.4737 259.466 79.4737C259.768 79.4737 260.018 79.4618 260.217 79.4379C260.424 79.4061 260.583 79.3743 260.694 79.3425V75.4184ZM260.694 71.2439L261.803 71.053V80.1297C261.549 80.2012 261.223 80.2728 260.825 80.3444C260.428 80.4159 259.971 80.4517 259.454 80.4517C258.977 80.4517 258.547 80.3762 258.166 80.2251C257.784 80.074 257.458 79.8593 257.188 79.581C256.917 79.3027 256.707 78.9648 256.555 78.5672C256.412 78.1617 256.341 77.7084 256.341 77.2075C256.341 76.7304 256.4 76.2931 256.52 75.8955C256.647 75.4979 256.83 75.156 257.068 74.8698C257.307 74.5835 257.597 74.3609 257.939 74.2018C258.289 74.0428 258.686 73.9633 259.132 73.9633C259.49 73.9633 259.804 74.011 260.074 74.1064C260.352 74.2018 260.559 74.2933 260.694 74.3807V71.2439Z" fill="#414652"/>
<path d="M285.803 87.1996C285.803 91.5911 282.243 95.1511 277.852 95.1511C273.46 95.1511 269.9 91.5911 269.9 87.1996C269.9 82.8081 273.46 79.248 277.852 79.248C282.243 79.248 285.803 82.8081 285.803 87.1996Z" fill="#FF444F"/>
<path d="M69.6212 137.891C69.6212 142.282 66.0612 145.842 61.6697 145.842C57.2782 145.842 53.7182 142.282 53.7182 137.891C53.7182 133.499 57.2782 129.939 61.6697 129.939C66.0612 129.939 69.6212 133.499 69.6212 137.891Z" fill="#FF444F"/>
<path d="M51.1157 159.995C52.3243 159.995 52.9287 159.582 52.9287 158.755C52.9287 158.5 52.873 158.286 52.7617 158.111C52.6583 157.928 52.5152 157.773 52.3323 157.646C52.1494 157.511 51.9387 157.395 51.7002 157.3C51.4696 157.204 51.2231 157.109 50.9607 157.014C50.6585 156.91 50.3722 156.795 50.1019 156.668C49.8315 156.532 49.597 156.377 49.3982 156.203C49.1994 156.02 49.0404 155.805 48.9211 155.558C48.8098 155.312 48.7541 155.014 48.7541 154.664C48.7541 153.94 49.0006 153.376 49.4936 152.97C49.9866 152.565 50.6665 152.362 51.5332 152.362C52.0341 152.362 52.4874 152.418 52.8929 152.529C53.3064 152.632 53.6085 152.748 53.7994 152.875L53.4296 153.817C53.2626 153.714 53.0122 153.614 52.6782 153.519C52.3522 153.415 51.9705 153.364 51.5332 153.364C51.3105 153.364 51.1038 153.388 50.913 153.435C50.7221 153.483 50.5551 153.555 50.412 153.65C50.2689 153.745 50.1536 153.869 50.0661 154.02C49.9866 154.163 49.9468 154.334 49.9468 154.533C49.9468 154.755 49.9906 154.942 50.078 155.093C50.1655 155.244 50.2888 155.38 50.4478 155.499C50.6068 155.61 50.7897 155.713 50.9964 155.809C51.2111 155.904 51.4457 156 51.7002 156.095C52.058 156.238 52.384 156.381 52.6782 156.525C52.9803 156.668 53.2388 156.839 53.4535 157.037C53.6761 157.236 53.8471 157.475 53.9663 157.753C54.0856 158.023 54.1452 158.353 54.1452 158.743C54.1452 159.467 53.8789 160.023 53.3461 160.413C52.8213 160.802 52.0778 160.997 51.1157 160.997C50.7897 160.997 50.4875 160.973 50.2092 160.926C49.9389 160.886 49.6964 160.838 49.4817 160.783C49.267 160.719 49.0801 160.655 48.9211 160.592C48.77 160.52 48.6507 160.461 48.5633 160.413L48.9092 159.459C49.0921 159.562 49.3704 159.677 49.7441 159.805C50.1178 159.932 50.575 159.995 51.1157 159.995ZM56.5095 154.616H58.8592V155.547H56.5095V158.409C56.5095 158.719 56.5334 158.978 56.5811 159.184C56.6288 159.383 56.7004 159.542 56.7958 159.661C56.8912 159.773 57.0105 159.852 57.1536 159.9C57.2967 159.948 57.4637 159.972 57.6546 159.972C57.9885 159.972 58.2549 159.936 58.4537 159.864C58.6604 159.785 58.8036 159.729 58.8831 159.697L59.0978 160.616C58.9864 160.671 58.7916 160.739 58.5133 160.818C58.235 160.906 57.917 160.95 57.5591 160.95C57.1377 160.95 56.7878 160.898 56.5095 160.795C56.2392 160.683 56.0205 160.52 55.8535 160.305C55.6866 160.091 55.5673 159.828 55.4957 159.518C55.4321 159.2 55.4003 158.834 55.4003 158.421V152.887L56.5095 152.696V154.616ZM62.3699 160.019C62.6323 160.019 62.8629 160.015 63.0617 160.007C63.2685 159.991 63.4394 159.968 63.5746 159.936V158.087C63.4951 158.047 63.3639 158.015 63.181 157.992C63.0061 157.96 62.7914 157.944 62.5369 157.944C62.3699 157.944 62.191 157.956 62.0002 157.98C61.8173 158.004 61.6463 158.055 61.4873 158.135C61.3362 158.206 61.209 158.31 61.1056 158.445C61.0023 158.572 60.9506 158.743 60.9506 158.958C60.9506 159.355 61.0778 159.634 61.3323 159.793C61.5867 159.944 61.9326 160.019 62.3699 160.019ZM62.2745 154.461C62.7198 154.461 63.0935 154.521 63.3957 154.64C63.7058 154.751 63.9523 154.914 64.1352 155.129C64.326 155.336 64.4612 155.586 64.5407 155.88C64.6202 156.167 64.66 156.485 64.66 156.835V160.711C64.5646 160.727 64.4294 160.751 64.2544 160.783C64.0875 160.806 63.8966 160.83 63.6819 160.854C63.4672 160.878 63.2327 160.898 62.9782 160.914C62.7317 160.938 62.4852 160.95 62.2387 160.95C61.8889 160.95 61.5668 160.914 61.2726 160.842C60.9784 160.771 60.724 160.659 60.5093 160.508C60.2946 160.349 60.1276 160.142 60.0083 159.888C59.8891 159.634 59.8294 159.327 59.8294 158.97C59.8294 158.628 59.897 158.334 60.0322 158.087C60.1753 157.841 60.3662 157.642 60.6047 157.491C60.8432 157.34 61.1215 157.228 61.4396 157.157C61.7577 157.085 62.0916 157.049 62.4415 157.049C62.5528 157.049 62.6681 157.057 62.7874 157.073C62.9067 157.081 63.018 157.097 63.1214 157.121C63.2327 157.137 63.3281 157.153 63.4076 157.169C63.4871 157.185 63.5428 157.196 63.5746 157.204V156.894C63.5746 156.711 63.5547 156.532 63.515 156.358C63.4752 156.175 63.4036 156.016 63.3003 155.88C63.1969 155.737 63.0538 155.626 62.8709 155.547C62.6959 155.459 62.4654 155.415 62.1791 155.415C61.8133 155.415 61.4913 155.443 61.213 155.499C60.9426 155.547 60.7399 155.598 60.6047 155.654L60.4735 154.735C60.6166 154.672 60.8552 154.612 61.1891 154.557C61.5231 154.493 61.8849 154.461 62.2745 154.461ZM68.7923 154.485C68.8877 154.485 68.9951 154.493 69.1143 154.509C69.2416 154.517 69.3648 154.533 69.4841 154.557C69.6034 154.572 69.7107 154.592 69.8061 154.616C69.9095 154.632 69.985 154.648 70.0327 154.664L69.8419 155.63C69.7544 155.598 69.6073 155.562 69.4006 155.523C69.2018 155.475 68.9434 155.451 68.6253 155.451C68.4186 155.451 68.2118 155.475 68.0051 155.523C67.8063 155.562 67.6751 155.59 67.6115 155.606V160.818H66.5023V154.879C66.7647 154.783 67.0907 154.696 67.4803 154.616C67.8699 154.529 68.3073 154.485 68.7923 154.485ZM72.1408 154.616H74.4905V155.547H72.1408V158.409C72.1408 158.719 72.1646 158.978 72.2124 159.184C72.2601 159.383 72.3316 159.542 72.427 159.661C72.5225 159.773 72.6417 159.852 72.7849 159.9C72.928 159.948 73.095 159.972 73.2858 159.972C73.6198 159.972 73.8862 159.936 74.0849 159.864C74.2917 159.785 74.4348 159.729 74.5143 159.697L74.729 160.616C74.6177 160.671 74.4229 160.739 74.1446 160.818C73.8663 160.906 73.5482 160.95 73.1904 160.95C72.769 160.95 72.4191 160.898 72.1408 160.795C71.8704 160.683 71.6518 160.52 71.4848 160.305C71.3178 160.091 71.1985 159.828 71.127 159.518C71.0634 159.2 71.0316 158.834 71.0316 158.421V152.887L72.1408 152.696V154.616Z" fill="#414652"/>
<rect x="127.767" y="13.3281" width="126.23" height="33.7939" rx="15.903" fill="#CC2E3D"/>
<path d="M160.288 36.2793C159.578 35.0177 158.809 33.7719 157.982 32.5421C157.155 31.3123 156.276 30.1513 155.343 29.0593V36.2793H152.893V25.2585H154.913C155.263 25.6084 155.65 26.0377 156.074 26.5466C156.498 27.0555 156.928 27.6015 157.362 28.1847C157.807 28.7572 158.247 29.3562 158.682 29.9817C159.117 30.5966 159.525 31.1903 159.907 31.7628V25.2585H162.372V36.2793H160.288ZM172.579 32.0809C172.579 32.7382 172.484 33.3425 172.293 33.8938C172.102 34.4345 171.826 34.901 171.466 35.2933C171.105 35.675 170.671 35.9718 170.162 36.1839C169.664 36.3959 169.102 36.5019 168.476 36.5019C167.861 36.5019 167.299 36.3959 166.79 36.1839C166.292 35.9718 165.863 35.675 165.502 35.2933C165.142 34.901 164.861 34.4345 164.659 33.8938C164.458 33.3425 164.357 32.7382 164.357 32.0809C164.357 31.4236 164.458 30.8246 164.659 30.2839C164.872 29.7432 165.158 29.282 165.518 28.9003C165.889 28.5186 166.324 28.2218 166.822 28.0097C167.331 27.7977 167.882 27.6917 168.476 27.6917C169.081 27.6917 169.632 27.7977 170.13 28.0097C170.639 28.2218 171.074 28.5186 171.434 28.9003C171.795 29.282 172.076 29.7432 172.277 30.2839C172.478 30.8246 172.579 31.4236 172.579 32.0809ZM170.162 32.0809C170.162 31.3494 170.013 30.7768 169.717 30.3634C169.43 29.9393 169.017 29.7272 168.476 29.7272C167.935 29.7272 167.517 29.9393 167.22 30.3634C166.923 30.7768 166.775 31.3494 166.775 32.0809C166.775 32.8124 166.923 33.3955 167.22 33.8302C167.517 34.2543 167.935 34.4664 168.476 34.4664C169.017 34.4664 169.43 34.2543 169.717 33.8302C170.013 33.3955 170.162 32.8124 170.162 32.0809ZM183.595 32.1604C183.595 31.4289 183.43 30.8458 183.102 30.4111C182.773 29.9658 182.285 29.7432 181.638 29.7432C181.426 29.7432 181.23 29.7538 181.05 29.775C180.87 29.7856 180.721 29.8015 180.605 29.8227V34.1006C180.753 34.196 180.944 34.2755 181.177 34.3391C181.421 34.4027 181.665 34.4345 181.909 34.4345C183.033 34.4345 183.595 33.6765 183.595 32.1604ZM186.012 32.0968C186.012 32.7435 185.932 33.3319 185.773 33.862C185.614 34.3921 185.381 34.848 185.073 35.2297C184.766 35.6114 184.384 35.9082 183.928 36.1203C183.473 36.3323 182.948 36.4383 182.354 36.4383C182.025 36.4383 181.718 36.4065 181.432 36.3429C181.145 36.2793 180.87 36.1892 180.605 36.0726V39.2214H178.235V28.2006C178.447 28.1369 178.691 28.0786 178.967 28.0256C179.242 27.962 179.529 27.909 179.825 27.8666C180.133 27.8242 180.44 27.7924 180.748 27.7712C181.066 27.7394 181.368 27.7235 181.654 27.7235C182.343 27.7235 182.958 27.8295 183.499 28.0415C184.04 28.243 184.496 28.5345 184.867 28.9162C185.238 29.2873 185.519 29.7432 185.71 30.2839C185.911 30.8246 186.012 31.4289 186.012 32.0968ZM191.029 34.6254C191.263 34.6254 191.485 34.6201 191.697 34.6095C191.909 34.5989 192.079 34.583 192.206 34.5618V32.7647C192.111 32.7435 191.968 32.7223 191.777 32.7011C191.586 32.6799 191.411 32.6693 191.252 32.6693C191.029 32.6693 190.817 32.6852 190.616 32.717C190.425 32.7382 190.255 32.7859 190.107 32.8601C189.959 32.9344 189.842 33.0351 189.757 33.1623C189.672 33.2895 189.63 33.4486 189.63 33.6394C189.63 34.0105 189.752 34.2702 189.996 34.4186C190.25 34.5565 190.595 34.6254 191.029 34.6254ZM190.839 27.6917C191.538 27.6917 192.121 27.7712 192.588 27.9302C193.054 28.0892 193.425 28.3172 193.701 28.614C193.987 28.9109 194.189 29.2714 194.305 29.6954C194.422 30.1195 194.48 30.5913 194.48 31.1108V36.0408C194.141 36.115 193.669 36.1998 193.065 36.2952C192.461 36.4012 191.729 36.4542 190.87 36.4542C190.33 36.4542 189.837 36.4065 189.391 36.3111C188.957 36.2157 188.58 36.062 188.262 35.8499C187.944 35.6273 187.7 35.341 187.531 34.9912C187.361 34.6413 187.276 34.2119 187.276 33.703C187.276 33.2153 187.372 32.8018 187.563 32.4626C187.764 32.1233 188.029 31.853 188.358 31.6515C188.686 31.4501 189.063 31.3069 189.487 31.2221C189.911 31.1267 190.351 31.079 190.807 31.079C191.114 31.079 191.385 31.0949 191.618 31.1267C191.862 31.1479 192.058 31.1797 192.206 31.2221V30.9995C192.206 30.5966 192.084 30.2733 191.84 30.0294C191.597 29.7856 191.173 29.6636 190.568 29.6636C190.165 29.6636 189.768 29.6954 189.376 29.7591C188.983 29.8121 188.644 29.8916 188.358 29.9976L188.056 28.0892C188.193 28.0468 188.363 28.0044 188.564 27.962C188.776 27.909 189.004 27.8666 189.248 27.8348C189.492 27.7924 189.747 27.7606 190.012 27.7394C190.287 27.7076 190.563 27.6917 190.839 27.6917ZM203.848 27.9143C203.371 29.5258 202.873 31.0366 202.353 32.4467C201.834 33.8567 201.266 35.2244 200.651 36.5496C200.429 37.0267 200.206 37.4296 199.983 37.7583C199.761 38.0975 199.517 38.3732 199.252 38.5852C198.987 38.8079 198.685 38.9669 198.345 39.0623C198.017 39.1683 197.63 39.2214 197.185 39.2214C196.813 39.2214 196.469 39.1843 196.151 39.11C195.843 39.0464 195.589 38.9722 195.387 38.8874L195.801 36.9949C196.045 37.0797 196.262 37.1381 196.453 37.1699C196.644 37.2017 196.845 37.2176 197.057 37.2176C197.481 37.2176 197.805 37.101 198.027 36.8677C198.261 36.6451 198.457 36.3323 198.616 35.9294C198.075 34.8692 197.534 33.6818 196.994 32.3672C196.453 31.0419 195.944 29.5576 195.467 27.9143H197.98C198.086 28.3278 198.208 28.7784 198.345 29.2661C198.494 29.7432 198.648 30.2308 198.807 30.7291C198.966 31.2168 199.125 31.6939 199.284 32.1604C199.453 32.6269 199.612 33.051 199.761 33.4327C199.899 33.051 200.042 32.6269 200.19 32.1604C200.339 31.6939 200.482 31.2168 200.62 30.7291C200.768 30.2308 200.906 29.7432 201.033 29.2661C201.171 28.7784 201.293 28.3278 201.399 27.9143H203.848ZM212.725 32.0809C212.725 32.7382 212.63 33.3425 212.439 33.8938C212.248 34.4345 211.972 34.901 211.612 35.2933C211.251 35.675 210.817 35.9718 210.308 36.1839C209.809 36.3959 209.248 36.5019 208.622 36.5019C208.007 36.5019 207.445 36.3959 206.936 36.1839C206.438 35.9718 206.009 35.675 205.648 35.2933C205.288 34.901 205.007 34.4345 204.805 33.8938C204.604 33.3425 204.503 32.7382 204.503 32.0809C204.503 31.4236 204.604 30.8246 204.805 30.2839C205.017 29.7432 205.304 29.282 205.664 28.9003C206.035 28.5186 206.47 28.2218 206.968 28.0097C207.477 27.7977 208.028 27.6917 208.622 27.6917C209.226 27.6917 209.778 27.7977 210.276 28.0097C210.785 28.2218 211.22 28.5186 211.58 28.9003C211.94 29.282 212.221 29.7432 212.423 30.2839C212.624 30.8246 212.725 31.4236 212.725 32.0809ZM210.308 32.0809C210.308 31.3494 210.159 30.7768 209.862 30.3634C209.576 29.9393 209.163 29.7272 208.622 29.7272C208.081 29.7272 207.663 29.9393 207.366 30.3634C207.069 30.7768 206.92 31.3494 206.92 32.0809C206.92 32.8124 207.069 33.3955 207.366 33.8302C207.663 34.2543 208.081 34.4664 208.622 34.4664C209.163 34.4664 209.576 34.2543 209.862 33.8302C210.159 33.3955 210.308 32.8124 210.308 32.0809ZM221.701 35.993C221.298 36.1097 220.779 36.2157 220.143 36.3111C219.506 36.4171 218.838 36.4701 218.139 36.4701C217.428 36.4701 216.835 36.3747 216.358 36.1839C215.891 35.993 215.52 35.728 215.244 35.3887C214.969 35.0389 214.773 34.6254 214.656 34.1483C214.539 33.6712 214.481 33.1464 214.481 32.5739V27.9143H216.851V32.2876C216.851 33.051 216.951 33.6023 217.153 33.9416C217.354 34.2808 217.731 34.4504 218.282 34.4504C218.452 34.4504 218.632 34.4451 218.823 34.4345C219.013 34.4133 219.183 34.3921 219.331 34.3709V27.9143H221.701V35.993ZM223.846 25.831L226.215 25.4493V27.9143H229.062V29.8863H226.215V32.8283C226.215 33.3266 226.3 33.7242 226.47 34.0211C226.65 34.3179 227.005 34.4664 227.535 34.4664C227.79 34.4664 228.05 34.4451 228.315 34.4027C228.59 34.3497 228.839 34.2808 229.062 34.196L229.396 36.0408C229.11 36.1574 228.792 36.2581 228.442 36.3429C228.092 36.4277 227.663 36.4701 227.154 36.4701C226.507 36.4701 225.972 36.3853 225.547 36.2157C225.123 36.0355 224.784 35.7916 224.53 35.4841C224.275 35.1661 224.095 34.7844 223.989 34.3391C223.894 33.8938 223.846 33.4008 223.846 32.8601V25.831Z" fill="white"/>
<defs>
<filter id="filter0_d_2702_39259" x="0.597702" y="0.175427" width="341.805" height="227.502" filterUnits="userSpaceOnUse" color-interpolation-filters="sRGB">
<feFlood flood-opacity="0" result="BackgroundImageFix"/>
<feColorMatrix in="SourceAlpha" type="matrix" values="0 0 0 0 0 0 0 0 0 0 0 0 0 0 0 0 0 0 127 0" result="hardAlpha"/>
<feOffset dy="1.38046"/>
<feGaussianBlur stdDeviation="3.45115"/>
<feComposite in2="hardAlpha" operator="out"/>
<feColorMatrix type="matrix" values="0 0 0 0 0 0 0 0 0 0 0 0 0 0 0 0 0 0 0.1 0"/>
<feBlend mode="normal" in2="BackgroundImageFix" result="effect1_dropShadow_2702_39259"/>
<feBlend mode="normal" in="SourceGraphic" in2="effect1_dropShadow_2702_39259" result="shape"/>
</filter>
</defs>
</svg>
