<svg width="45" height="45" viewBox="0 0 45 45" fill="none" xmlns="http://www.w3.org/2000/svg">
<path fill-rule="evenodd" clip-rule="evenodd" d="M36.2322 1.45117C36.2322 0.898887 36.68 0.451172 37.2322 0.451172H40.2322C40.6367 0.451172 41.0013 0.694814 41.1561 1.06849C41.3109 1.44216 41.2253 1.87228 40.9393 2.15828L35.9393 7.15828C35.5488 7.5488 34.9157 7.5488 34.5251 7.15828C34.1346 6.76775 34.1346 6.13459 34.5251 5.74406L37.818 2.45117H37.2322C36.68 2.45117 36.2322 2.00346 36.2322 1.45117ZM11.2326 4.45081C10.6849 4.45081 10.2326 4.90309 10.2326 5.45081C10.2326 5.99852 10.6849 6.45081 11.2326 6.45081H23.2326C23.7803 6.45081 24.2326 5.99852 24.2326 5.45081C24.2326 4.90309 23.7803 4.45081 23.2326 4.45081H11.2326ZM21.2326 8.45081H23.2326C24.8849 8.45081 26.2326 7.10309 26.2326 5.45081C26.2326 3.79852 24.8849 2.45081 23.2326 2.45081H11.2326C9.58032 2.45081 8.2326 3.79852 8.2326 5.45081C8.2326 7.10309 9.58032 8.45081 11.2326 8.45081H13.2326V10.6908C13.2326 10.769 13.2416 10.8451 13.2585 10.9181C5.78466 12.7064 0.232422 19.4278 0.232422 27.4515C0.232422 36.8438 7.84014 44.4515 17.2324 44.4515C26.6247 44.4515 34.2324 36.8438 34.2324 27.4515C34.2324 26.741 34.19 26.0502 34.1049 25.3594C34.0375 24.8112 33.5384 24.4216 32.9903 24.489C32.4421 24.5565 32.0524 25.0555 32.1199 25.6037C32.1949 26.2128 32.2324 26.822 32.2324 27.4515C32.2324 35.7393 25.5201 42.4515 17.2324 42.4515C8.94471 42.4515 2.23242 35.7393 2.23242 27.4515C2.23242 19.1638 8.94471 12.4515 17.2324 12.4515C19.1729 12.4515 21.0293 12.8264 22.7272 13.4925C23.2414 13.6942 23.8217 13.4409 24.0234 12.9267C24.225 12.4126 23.9717 11.8323 23.4576 11.6306C22.7314 11.3457 21.9792 11.1078 21.2057 10.922C21.2233 10.8478 21.2326 10.7704 21.2326 10.6908V8.45081ZM19.2326 8.45081H15.2326V10.5678C15.8885 10.491 16.5558 10.4515 17.2324 10.4515C17.9091 10.4515 18.5766 10.4918 19.2326 10.5694V8.45081ZM43.9393 3.74406C44.3299 4.13459 44.3299 4.76775 43.9393 5.15828L40.6465 8.45117H41.2322C41.7845 8.45117 42.2322 8.89889 42.2322 9.45117C42.2322 10.0035 41.7845 10.4512 41.2322 10.4512H38.2322C37.8278 10.4512 37.4631 10.2075 37.3084 9.83385C37.1536 9.46018 37.2391 9.03006 37.5251 8.74406L42.5251 3.74406C42.9157 3.35354 43.5488 3.35354 43.9393 3.74406ZM30.2328 9.45117C30.7851 9.45117 31.2328 9.89889 31.2328 10.4512V11.4512H33.2328C33.7851 11.4512 34.2328 11.8989 34.2328 12.4512C34.2328 13.0035 33.7851 13.4512 33.2328 13.4512H28.2328V15.4512H32.2328C33.3351 15.4512 34.2328 16.3489 34.2328 17.4512V19.4512C34.2328 20.5535 33.3351 21.4512 32.2328 21.4512H31.2328V22.4512C31.2328 23.0035 30.7851 23.4512 30.2328 23.4512C29.6805 23.4512 29.2328 23.0035 29.2328 22.4512V21.4512H27.2328C26.6805 21.4512 26.2328 21.0035 26.2328 20.4512C26.2328 19.8989 26.6805 19.4512 27.2328 19.4512H30.2307C30.2314 19.4512 30.2321 19.4512 30.2328 19.4512C30.2335 19.4512 30.2342 19.4512 30.2349 19.4512H32.2328V17.4512H28.2328C27.1305 17.4512 26.2328 16.5535 26.2328 15.4512V13.4512C26.2328 12.3489 27.1305 11.4512 28.2328 11.4512H29.2328V10.4512C29.2328 9.89889 29.6805 9.45117 30.2328 9.45117ZM4.23242 27.4515C4.23242 20.2693 10.0501 14.4515 17.2324 14.4515C20.1253 14.4515 22.8019 15.4055 24.9566 16.9972C25.4008 17.3253 25.4949 17.9515 25.1668 18.3957C24.8386 18.8399 24.2125 18.934 23.7683 18.6059C21.9429 17.2575 19.6796 16.4515 17.2324 16.4515C11.1547 16.4515 6.23242 21.3738 6.23242 27.4515C6.23242 33.5293 11.1547 38.4515 17.2324 38.4515C23.3101 38.4515 28.2324 33.5293 28.2324 27.4515C28.2324 27.141 28.223 26.8429 28.1965 26.5521C28.1465 26.0021 28.5519 25.5156 29.1019 25.4656C29.6519 25.4156 30.1383 25.821 30.1883 26.371C30.2219 26.7402 30.2324 27.1021 30.2324 27.4515C30.2324 34.6338 24.4147 40.4515 17.2324 40.4515C10.0501 40.4515 4.23242 34.6338 4.23242 27.4515ZM17.2324 18.4515C17.7847 18.4515 18.2324 18.8992 18.2324 19.4515V19.8915C18.2324 20.4438 17.7847 20.8915 17.2324 20.8915C16.6801 20.8915 16.2324 20.4438 16.2324 19.8915V19.4515C16.2324 18.8992 16.6801 18.4515 17.2324 18.4515ZM21.4797 23.2046C21.8702 23.5952 21.8702 24.2283 21.4797 24.6189L19.163 26.9356C19.411 27.0021 19.6597 27.0693 19.9078 27.1375C20.4403 27.284 20.7533 27.8344 20.6068 28.3669C20.4604 28.8994 19.91 29.2124 19.3774 29.066C18.9816 28.9571 18.5827 28.8505 18.1796 28.7429L18.1772 28.7422C17.7761 28.6351 17.3708 28.5269 16.9674 28.416C16.6241 28.3215 16.3569 28.0517 16.2658 27.7074C16.1748 27.3631 16.2737 26.9964 16.5255 26.7446L20.0655 23.2046C20.456 22.8141 21.0892 22.8141 21.4797 23.2046ZM8.23242 27.4515C8.23242 26.8993 8.68014 26.4515 9.23242 26.4515H9.67242C10.2247 26.4515 10.6724 26.8993 10.6724 27.4515C10.6724 28.0038 10.2247 28.4515 9.67242 28.4515H9.23242C8.68014 28.4515 8.23242 28.0038 8.23242 27.4515ZM23.792 27.4515C23.792 26.8993 24.2397 26.4515 24.792 26.4515H25.232C25.7843 26.4515 26.232 26.8993 26.232 27.4515C26.232 28.0038 25.7843 28.4515 25.232 28.4515H24.792C24.2397 28.4515 23.792 28.0038 23.792 27.4515ZM17.2324 34.0121C17.7847 34.0121 18.2324 34.4598 18.2324 35.0121V35.4521C18.2324 36.0044 17.7847 36.4521 17.2324 36.4521C16.6801 36.4521 16.2324 36.0044 16.2324 35.4521V35.0121C16.2324 34.4598 16.6801 34.0121 17.2324 34.0121Z" fill="#414652"/>
</svg>
