<svg width="65" height="64" viewBox="0 0 65 64" fill="none" xmlns="http://www.w3.org/2000/svg">
<g clip-path="url(#clip0_1602_12868)">
<rect x="0.00195312" width="64" height="64" fill="#E03640"/>
<path d="M61.3368 2.66602L-2.66315 12.7677L-14.3965 66.666H49.6035L61.3368 2.66602Z" fill="#FF444F"/>
<g filter="url(#filter0_d_1602_12868)">
<path d="M16.6689 23.774C19.3555 23.774 21.4182 24.2507 22.8569 25.204C24.2955 26.14 25.0149 27.6827 25.0149 29.832C25.0149 31.9987 24.2869 33.5673 22.8309 34.538C21.3749 35.4913 19.2949 35.968 16.5909 35.968H15.3169V42H11.2609V24.242C12.1449 24.0687 13.0809 23.9473 14.0689 23.878C15.0569 23.8087 15.9235 23.774 16.6689 23.774ZM16.9289 27.232C16.6342 27.232 16.3395 27.2407 16.0449 27.258C15.7675 27.2753 15.5249 27.2927 15.3169 27.31V32.51H16.5909C17.9949 32.51 19.0522 32.3193 19.7629 31.938C20.4735 31.5567 20.8289 30.846 20.8289 29.806C20.8289 29.3033 20.7335 28.8873 20.5429 28.558C20.3695 28.2287 20.1095 27.9687 19.7629 27.778C19.4335 27.57 19.0262 27.4313 18.5409 27.362C18.0555 27.2753 17.5182 27.232 16.9289 27.232ZM37.5093 28.714C37.5093 29.3727 37.3793 30.0053 37.1193 30.612C36.8593 31.2187 36.5213 31.808 36.1053 32.38C35.6893 32.9347 35.2213 33.472 34.7013 33.992C34.1813 34.512 33.6699 35.006 33.1673 35.474C32.9073 35.7167 32.6213 35.994 32.3093 36.306C32.0146 36.6007 31.7286 36.904 31.4513 37.216C31.1739 37.528 30.9226 37.8227 30.6973 38.1C30.4893 38.36 30.3593 38.5767 30.3073 38.75H38.0553V42H26.0433C26.0086 41.8093 25.9913 41.5667 25.9913 41.272C25.9913 40.9773 25.9913 40.7693 25.9913 40.648C25.9913 39.816 26.1213 39.0533 26.3813 38.36C26.6586 37.6667 27.0139 37.0253 27.4473 36.436C27.8806 35.8293 28.3659 35.266 28.9033 34.746C29.4579 34.226 30.0039 33.706 30.5413 33.186C30.9573 32.7873 31.3473 32.4147 31.7113 32.068C32.0753 31.704 32.3959 31.3573 32.6733 31.028C32.9506 30.6813 33.1673 30.3433 33.3233 30.014C33.4793 29.6673 33.5573 29.3207 33.5573 28.974C33.5573 28.2113 33.3406 27.674 32.9073 27.362C32.4739 27.05 31.9366 26.894 31.2953 26.894C30.8273 26.894 30.3853 26.972 29.9693 27.128C29.5706 27.2667 29.1979 27.44 28.8513 27.648C28.5219 27.8387 28.2359 28.038 27.9933 28.246C27.7506 28.4367 27.5686 28.5927 27.4473 28.714L25.5233 26.01C26.2859 25.2993 27.1699 24.7187 28.1753 24.268C29.1979 23.8 30.2899 23.566 31.4513 23.566C32.5086 23.566 33.4186 23.6873 34.1813 23.93C34.9439 24.1727 35.5679 24.5193 36.0533 24.97C36.5559 25.4033 36.9199 25.9407 37.1453 26.582C37.3879 27.206 37.5093 27.9167 37.5093 28.714ZM45.5786 23.774C48.2653 23.774 50.328 24.2507 51.7666 25.204C53.2053 26.14 53.9246 27.6827 53.9246 29.832C53.9246 31.9987 53.1966 33.5673 51.7406 34.538C50.2846 35.4913 48.2046 35.968 45.5006 35.968H44.2266V42H40.1706V24.242C41.0546 24.0687 41.9906 23.9473 42.9786 23.878C43.9666 23.8087 44.8333 23.774 45.5786 23.774ZM45.8386 27.232C45.544 27.232 45.2493 27.2407 44.9546 27.258C44.6773 27.2753 44.4346 27.2927 44.2266 27.31V32.51H45.5006C46.9046 32.51 47.962 32.3193 48.6726 31.938C49.3833 31.5567 49.7386 30.846 49.7386 29.806C49.7386 29.3033 49.6433 28.8873 49.4526 28.558C49.2793 28.2287 49.0193 27.9687 48.6726 27.778C48.3433 27.57 47.936 27.4313 47.4506 27.362C46.9653 27.2753 46.428 27.232 45.8386 27.232Z" fill="white"/>
</g>
</g>
<defs>
<filter id="filter0_d_1602_12868" x="9.26172" y="22.5664" width="46.6621" height="22.4336" filterUnits="userSpaceOnUse" color-interpolation-filters="sRGB">
<feFlood flood-opacity="0" result="BackgroundImageFix"/>
<feColorMatrix in="SourceAlpha" type="matrix" values="0 0 0 0 0 0 0 0 0 0 0 0 0 0 0 0 0 0 127 0" result="hardAlpha"/>
<feOffset dy="1"/>
<feGaussianBlur stdDeviation="1"/>
<feColorMatrix type="matrix" values="0 0 0 0 0.054902 0 0 0 0 0.054902 0 0 0 0 0.054902 0 0 0 0.05 0"/>
<feBlend mode="normal" in2="BackgroundImageFix" result="effect1_dropShadow_1602_12868"/>
<feBlend mode="normal" in="SourceGraphic" in2="effect1_dropShadow_1602_12868" result="shape"/>
</filter>
<clipPath id="clip0_1602_12868">
<rect x="0.00195312" width="64" height="64" rx="12" fill="white"/>
</clipPath>
</defs>
</svg>
