<svg width="69" height="73" viewBox="0 0 69 73" fill="none" xmlns="http://www.w3.org/2000/svg">
<path d="M50.002 26.5947C48.662 27.9347 47.342 29.2547 46.002 30.5947H56.002" stroke="#414652" stroke-width="4" stroke-linecap="round" stroke-linejoin="round"/>
<path d="M46.002 30.5947C47.342 31.9347 48.662 33.2547 50.002 34.5947" stroke="#414652" stroke-width="4" stroke-linecap="round" stroke-linejoin="round"/>
<path d="M34.002 26.5947C35.342 27.9347 36.662 29.2547 38.002 30.5947C35.342 30.5947 30.662 30.5947 28.002 30.5947" stroke="#414652" stroke-width="4" stroke-linecap="round" stroke-linejoin="round"/>
<path d="M38.002 30.5947C36.662 31.9347 35.342 33.2547 34.002 34.5947" stroke="#414652" stroke-width="4" stroke-linecap="round" stroke-linejoin="round"/>
<path d="M36.202 44.9932H27.702C26.762 44.9932 26.002 45.7532 26.002 46.6932V50.0932C26.002 51.0332 26.762 51.7932 27.702 51.7932H34.502C35.442 51.7932 36.202 52.5532 36.202 53.4932V56.8932C36.202 57.8332 35.442 58.5932 34.502 58.5932H26.002" stroke="#414652" stroke-width="4" stroke-linecap="round" stroke-linejoin="round"/>
<path d="M31.1016 44.9947V41.5947" stroke="#414652" stroke-width="4" stroke-linecap="round" stroke-linejoin="round"/>
<path d="M31.1016 58.5947V61.9947" stroke="#414652" stroke-width="4" stroke-linecap="round" stroke-linejoin="round"/>
<path d="M44.002 43.5947H54.002" stroke="#414652" stroke-width="4" stroke-linecap="round" stroke-linejoin="round"/>
<path d="M44.002 51.5947H58.002" stroke="#414652" stroke-width="4" stroke-linecap="round" stroke-linejoin="round"/>
<path d="M44.002 59.5947H56.802" stroke="#414652" stroke-width="4" stroke-linecap="round" stroke-linejoin="round"/>
<path d="M18.002 18.2939H62.002C64.202 18.2939 66.002 20.0939 66.002 22.2939V66.2939C66.002 68.4939 64.202 70.2939 62.002 70.2939H22.002C19.802 70.2939 18.002 68.4939 18.002 66.2939V18.2939Z" stroke="#414652" stroke-width="4" stroke-linecap="round" stroke-linejoin="round"/>
<path d="M18.002 62.2939H14.002C11.802 62.2939 10.002 60.4939 10.002 58.2939V10.2939H54.002C56.202 10.2939 58.002 12.0939 58.002 14.2939V18.2939" stroke="#414652" stroke-width="4" stroke-linecap="round" stroke-linejoin="round"/>
<path d="M10.002 54.2939H6.00195C3.80195 54.2939 2.00195 52.4939 2.00195 50.2939V2.29395H46.002C48.202 2.29395 50.002 4.09395 50.002 6.29395V10.2939" stroke="#414652" stroke-width="4" stroke-linecap="round" stroke-linejoin="round"/>
</svg>
