<svg xmlns="http://www.w3.org/2000/svg" width="24" height="16"><g fill="none" fill-rule="evenodd"><path fill="#124BBA" d="M0 13.995C0 15.102.897 16 2.005 16h19.99A2.003 2.003 0 0024 13.995V11H0v2.995z"/><path fill="#FFF" d="M0 5h24v6H0z"/><path fill="#E33F39" d="M0 5h24V2.005A2.005 2.005 0 0021.995 0H2.005A2.003 2.003 0 000 2.005V5z"/><circle cx="12" cy="8" r="2.15" stroke="#3D3D3D" stroke-width=".3"/><path stroke="#06A86E" stroke-linecap="round" stroke-width=".3" d="M11.006 6.877a1.5 1.5 0 102.011.02"/><path fill="#FFD34F" fill-rule="nonzero" d="M12 8.325l-.351.185a.052.052 0 01-.068-.021c-.005-.01-.007-.021-.005-.032l.067-.391-.284-.277a.048.048 0 010-.07.04.04 0 01.028-.015l.393-.057.175-.356a.05.05 0 01.09 0l.175.356.393.057a.05.05 0 01.042.056.047.047 0 01-.014.029l-.284.277.067.39a.052.052 0 01-.041.059.05.05 0 01-.032-.005L12 8.325z"/><rect width="23" height="15" x=".5" y=".5" stroke="#000" stroke-opacity=".04" rx="1"/></g></svg>