<svg width="24" height="16" viewBox="0 0 24 16" fill="none" xmlns="http://www.w3.org/2000/svg">
<mask id="mask0_5065_6351" style="mask-type:alpha" maskUnits="userSpaceOnUse" x="0" y="0" width="24" height="16">
<path d="M22 0H2C0.89543 0 0 0.89543 0 2V14C0 15.1046 0.89543 16 2 16H22C23.1046 16 24 15.1046 24 14V2C24 0.89543 23.1046 0 22 0Z" fill="white"/>
</mask>
<g mask="url(#mask0_5065_6351)">
<path d="M0 0H32V16H0V0Z" fill="white"/>
<path d="M0 0H32V5.33333H0V0Z" fill="black"/>
<path d="M0 10.6667H32V16.0001H0V10.6667Z" fill="#007A3D"/>
<path d="M16 8L0 16V0M4.94286 6.85714L4.69524 7.48571L4.05079 7.28889L4.3873 7.87302L3.82857 8.25397L4.49841 8.35556L4.44762 9.02857L4.94286 8.57143L5.44127 9.02857L5.39048 8.35556L6.05714 8.25397L5.50159 7.87302L5.8381 7.28889L5.19365 7.48571L4.94286 6.85714Z" fill="#CE1126"/>
<path fill-rule="evenodd" clip-rule="evenodd" d="M22 1H2C1.44772 1 1 1.44772 1 2V14C1 14.5523 1.44772 15 2 15H22C22.5523 15 23 14.5523 23 14V2C23 1.44771 22.5523 1 22 1ZM2 0C0.895431 0 0 0.895431 0 2V14C0 15.1046 0.89543 16 2 16H22C23.1046 16 24 15.1046 24 14V2C24 0.895431 23.1046 0 22 0H2Z" fill="black" fill-opacity="0.04"/>
</g>
</svg>
