<svg width="24" height="16" viewBox="0 0 24 16" fill="none" xmlns="http://www.w3.org/2000/svg">
<rect width="24" height="16" rx="2" fill="#0D47A1"/>
<mask id="mask0_6863_64450" style="mask-type:alpha" maskUnits="userSpaceOnUse" x="0" y="0" width="12" height="8">
<path d="M11 0H1C0.447715 0 0 0.447715 0 1V7C0 7.55228 0.447715 8 1 8H11C11.5523 8 12 7.55228 12 7V1C12 0.447715 11.5523 0 11 0Z" fill="white"/>
</mask>
<g mask="url(#mask0_6863_64450)">
<path d="M11 0H1C0.447715 0 0 0.447715 0 1V7C0 7.55228 0.447715 8 1 8H11C11.5523 8 12 7.55228 12 7V1C12 0.447715 11.5523 0 11 0Z" fill="#0D47A1"/>
<path d="M11.9876 0.768663C11.9167 0.336306 11.547 0.0065918 11.1013 0.0065918H10.8675L7.03448 2.55771V0.0065918H4.96552V2.55773L1.13255 0.0065918H0.898711C0.453 0.0065918 0.0832734 0.336306 0.0124453 0.768687L3.28849 2.94916H0V5.05097H3.28849L0.0124453 7.2314C0.0832734 7.66376 0.453 7.99347 0.898711 7.99347H1.13255L4.96552 5.44235V7.99347H7.03448V5.44235L10.8675 7.99347H11.1013C11.547 7.99347 11.9167 7.66378 11.9876 7.2314L8.71151 5.05093H12V2.94912H8.71151L11.9876 0.768663Z" fill="white"/>
<path d="M6.6207 0.0065918V3.36947H12V4.63057H6.6207V7.99345H5.3793V4.63057H0V3.36947H5.3793V0.0065918H6.6207ZM4.95412 5.05093L0.581086 7.93459C0.467105 7.89084 0.364253 7.82421 0.277836 7.74023L0.216188 7.67407L4.19409 5.05093H4.95412ZM8.11847 5.05093L11.8819 7.53259C11.8255 7.63293 11.7509 7.72136 11.6627 7.7932L11.594 7.8439L7.35844 5.05093H8.11847ZM0.362695 0.186735L4.55173 2.94912H3.7917L0.0948984 0.51133C0.15818 0.382973 0.250219 0.271782 0.362695 0.186735ZM11.4118 0.062568C11.5552 0.116211 11.6813 0.206116 11.7797 0.321139L7.79452 2.94912H7.03448L11.4118 0.062568Z" fill="#F44336"/>
<path fill-rule="evenodd" clip-rule="evenodd" d="M11 0.5H1C0.723858 0.5 0.5 0.723858 0.5 1V7C0.5 7.27614 0.723858 7.5 1 7.5H11C11.2761 7.5 11.5 7.27614 11.5 7V1C11.5 0.723857 11.2761 0.5 11 0.5ZM1 0C0.447715 0 0 0.447715 0 1V7C0 7.55228 0.447715 8 1 8H11C11.5523 8 12 7.55228 12 7V1C12 0.447715 11.5523 0 11 0H1Z" fill="black" fill-opacity="0.04"/>
</g>
<g clip-path="url(#clip0_6863_64450)">
<path d="M15.8135 5.04728L20.6096 5.01929V9.33013C20.6189 9.88997 19.6765 10.4591 18.2022 11.187C16.6813 10.4032 15.8042 9.92731 15.7948 9.32081L15.8135 5.04733L15.8135 5.04728Z" fill="#006129" stroke="black" stroke-width="0.0379064"/>
<path d="M16.4659 5.68409L16.749 5.26831L17.0335 5.68497" stroke="#F7C600" stroke-width="0.0379064"/>
<path d="M16.8059 5.52865C16.8059 5.55971 16.7808 5.58489 16.7497 5.58489C16.7186 5.58489 16.6935 5.55971 16.6935 5.52865C16.6935 5.49759 16.7186 5.47241 16.7497 5.47241C16.7808 5.47241 16.8059 5.49759 16.8059 5.52865Z" fill="#F7C600" stroke="black" stroke-width="0.0189542"/>
<path d="M16.5192 5.99116L16.9581 5.99241C16.9581 5.99241 16.965 5.93545 16.9123 5.90083C17.1421 5.86922 17.0824 5.66646 17.275 5.65495C17.3123 5.6607 17.1744 5.74116 17.1744 5.74116C17.1744 5.74116 17.0583 5.82307 17.1112 5.86472C17.1531 5.89778 17.1715 5.84461 17.1773 5.80438C17.183 5.76415 17.364 5.73828 17.3382 5.62335C17.2951 5.52852 17.0422 5.68656 17.0422 5.68656L16.8618 5.68556C16.8506 5.66531 16.8008 5.58412 16.7495 5.58374C16.6886 5.58596 16.6457 5.68656 16.6457 5.68656H16.2376C16.2376 5.68656 16.2236 5.79126 16.4305 5.81137C16.4771 5.8722 16.5132 5.8892 16.5537 5.90495C16.5267 5.92745 16.5191 5.95466 16.5192 5.99115L16.5192 5.99116Z" fill="#F7C600" stroke="black" stroke-width="0.0189542"/>
<path d="M16.551 5.90212L16.9166 5.90088L16.551 5.90212Z" fill="#F7C600"/>
<path d="M16.551 5.90212L16.9166 5.90088" stroke="black" stroke-width="0.0189542"/>
<path d="M16.3834 5.68652C16.3834 5.68652 16.4127 5.8575 16.5476 5.898L16.3834 5.68652Z" fill="#F7C600"/>
<path d="M16.3834 5.68652C16.3834 5.68652 16.4127 5.8575 16.5476 5.898" stroke="black" stroke-width="0.0189542"/>
<path d="M16.3609 5.68423C16.3744 5.619 16.3991 5.60774 16.4261 5.52451C16.4306 5.44352 16.3609 5.45252 16.3811 5.40078C16.4171 5.34454 16.3991 5.29055 16.3316 5.2478C16.3451 5.32204 16.2439 5.39178 16.2439 5.45251C16.2439 5.51325 16.2956 5.49975 16.2889 5.59199C16.2934 5.64598 16.2754 5.63248 16.2709 5.68422H16.3609L16.3609 5.68423Z" fill="url(#paint0_linear_6863_64450)" stroke="black" stroke-width="0.0189542"/>
<path d="M16.8016 5.27903C16.8016 5.3076 16.7784 5.33077 16.7498 5.33077C16.7213 5.33077 16.6981 5.3076 16.6981 5.27903C16.6981 5.25046 16.7213 5.22729 16.7498 5.22729C16.7784 5.22729 16.8016 5.25046 16.8016 5.27903Z" fill="#F7C600" stroke="black" stroke-width="0.0189542"/>
<path d="M16.4506 6.51368L16.7337 6.0979L17.0181 6.51456" stroke="#F7C600" stroke-width="0.0379064"/>
<path d="M16.7907 6.35824C16.7907 6.3893 16.7655 6.41448 16.7344 6.41448C16.7034 6.41448 16.6782 6.3893 16.6782 6.35824C16.6782 6.32718 16.7034 6.302 16.7344 6.302C16.7655 6.302 16.7907 6.32718 16.7907 6.35824Z" fill="#F7C600" stroke="black" stroke-width="0.0189542"/>
<path d="M16.5038 6.821L16.9427 6.82225C16.9427 6.82225 16.9496 6.76529 16.8969 6.73067C17.1268 6.69906 17.0671 6.4963 17.2596 6.48479C17.2969 6.49053 17.159 6.57099 17.159 6.57099C17.159 6.57099 17.0429 6.65291 17.0958 6.69455C17.1378 6.72761 17.1561 6.67444 17.1619 6.63421C17.1676 6.59398 17.3487 6.56812 17.3228 6.45318C17.2797 6.35835 17.0268 6.51639 17.0268 6.51639L16.8464 6.51539C16.8352 6.49515 16.7855 6.41395 16.7341 6.41357C16.6732 6.4158 16.6303 6.5164 16.6303 6.5164H16.2222C16.2222 6.5164 16.2083 6.62109 16.4151 6.6412C16.4617 6.70204 16.4978 6.71904 16.5383 6.73478C16.5113 6.75728 16.5037 6.7845 16.5038 6.82099L16.5038 6.821Z" fill="#F7C600" stroke="black" stroke-width="0.0189542"/>
<path d="M16.5355 6.73171L16.9011 6.73047L16.5355 6.73171Z" fill="#F7C600"/>
<path d="M16.5355 6.73171L16.9011 6.73047" stroke="black" stroke-width="0.0189542"/>
<path d="M16.368 6.51636C16.368 6.51636 16.3973 6.68733 16.5323 6.72783L16.368 6.51636Z" fill="#F7C600"/>
<path d="M16.368 6.51636C16.368 6.51636 16.3973 6.68733 16.5323 6.72783" stroke="black" stroke-width="0.0189542"/>
<path d="M16.3455 6.51407C16.359 6.44883 16.3837 6.43758 16.4107 6.35434C16.4152 6.27335 16.3455 6.28235 16.3657 6.23061C16.4017 6.17437 16.3837 6.12038 16.3163 6.07764C16.3297 6.15187 16.2285 6.22161 16.2285 6.28234C16.2285 6.34308 16.2803 6.32959 16.2735 6.42182C16.278 6.47581 16.26 6.46232 16.2555 6.51406H16.3455L16.3455 6.51407Z" fill="url(#paint1_linear_6863_64450)" stroke="black" stroke-width="0.0189542"/>
<path d="M16.7862 6.10862C16.7862 6.13719 16.763 6.16036 16.7345 6.16036C16.7059 6.16036 16.6827 6.13719 16.6827 6.10862C16.6827 6.08005 16.7059 6.05688 16.7345 6.05688C16.763 6.05688 16.7862 6.08005 16.7862 6.10862Z" fill="#F7C600" stroke="black" stroke-width="0.0189542"/>
<path d="M16.4443 7.33131L16.7274 6.91553L17.0119 7.33219" stroke="#F7C600" stroke-width="0.0379064"/>
<path d="M16.7844 7.17587C16.7845 7.20693 16.7593 7.23211 16.7282 7.23211C16.6972 7.23211 16.672 7.20693 16.672 7.17587C16.672 7.14481 16.6972 7.11963 16.7282 7.11963C16.7593 7.11963 16.7845 7.14481 16.7844 7.17587Z" fill="#F7C600" stroke="black" stroke-width="0.0189542"/>
<path d="M16.4975 7.63862L16.9364 7.63987C16.9364 7.63987 16.9433 7.58292 16.8905 7.54829C17.1204 7.51668 17.0607 7.31392 17.2532 7.30241C17.2906 7.30816 17.1527 7.38862 17.1527 7.38862C17.1527 7.38862 17.0366 7.47053 17.0895 7.51218C17.1314 7.54524 17.1498 7.49207 17.1555 7.45184C17.1613 7.41161 17.3423 7.38574 17.3165 7.27081C17.2734 7.17598 17.0205 7.33402 17.0205 7.33402L16.8401 7.33302C16.8288 7.31277 16.7791 7.23158 16.7278 7.2312C16.6669 7.23342 16.6239 7.33402 16.6239 7.33402H16.2159C16.2159 7.33402 16.2019 7.43872 16.4088 7.45883C16.4554 7.51967 16.4915 7.53666 16.532 7.55241C16.505 7.57491 16.4974 7.60212 16.4975 7.63861L16.4975 7.63862Z" fill="#F7C600" stroke="black" stroke-width="0.0189542"/>
<path d="M16.5293 7.54934L16.8949 7.5481L16.5293 7.54934Z" fill="#F7C600"/>
<path d="M16.5293 7.54934L16.8949 7.5481" stroke="black" stroke-width="0.0189542"/>
<path d="M16.3618 7.33398C16.3618 7.33398 16.3911 7.50496 16.526 7.54546L16.3618 7.33398Z" fill="#F7C600"/>
<path d="M16.3618 7.33398C16.3618 7.33398 16.3911 7.50496 16.526 7.54546" stroke="black" stroke-width="0.0189542"/>
<path d="M16.3391 7.33169C16.3526 7.26646 16.3774 7.2552 16.4044 7.17197C16.4089 7.09098 16.3391 7.09998 16.3594 7.04824C16.3954 6.992 16.3774 6.93801 16.3099 6.89526C16.3234 6.9695 16.2222 7.03924 16.2222 7.09997C16.2222 7.16071 16.2739 7.14721 16.2672 7.23945C16.2717 7.29344 16.2537 7.27994 16.2492 7.33168H16.3391L16.3391 7.33169Z" fill="url(#paint2_linear_6863_64450)" stroke="black" stroke-width="0.0189542"/>
<path d="M16.78 6.92625C16.78 6.95482 16.7568 6.97799 16.7282 6.97799C16.6997 6.97799 16.6765 6.95482 16.6765 6.92625C16.6765 6.89768 16.6997 6.87451 16.7282 6.87451C16.7568 6.87451 16.78 6.89768 16.78 6.92625Z" fill="#F7C600" stroke="black" stroke-width="0.0189542"/>
<path d="M16.9807 8.2168L17.2638 7.80103L17.5483 8.21769" stroke="#F7C600" stroke-width="0.0379064"/>
<path d="M17.3208 8.06137C17.3208 8.09242 17.2957 8.11761 17.2646 8.11761C17.2335 8.11761 17.2084 8.09242 17.2084 8.06137C17.2084 8.03031 17.2335 8.00513 17.2646 8.00513C17.2957 8.00513 17.3208 8.03031 17.3208 8.06137Z" fill="#F7C600" stroke="black" stroke-width="0.0189542"/>
<path d="M17.034 8.52388L17.4729 8.52513C17.4729 8.52513 17.4798 8.46817 17.427 8.43355C17.6569 8.40194 17.5972 8.19918 17.7897 8.18767C17.8271 8.19341 17.6892 8.27387 17.6892 8.27387C17.6892 8.27387 17.5731 8.35579 17.6259 8.39743C17.6679 8.4305 17.6863 8.37732 17.692 8.33709C17.6978 8.29686 17.8788 8.271 17.853 8.15606C17.8099 8.06123 17.557 8.21927 17.557 8.21927L17.3766 8.21827C17.3653 8.19803 17.3156 8.11683 17.2643 8.11646C17.2034 8.11868 17.1604 8.21928 17.1604 8.21928H16.7524C16.7524 8.21928 16.7384 8.32397 16.9453 8.34408C16.9919 8.40492 17.028 8.42192 17.0685 8.43766C17.0415 8.46016 17.0339 8.48738 17.034 8.52387L17.034 8.52388Z" fill="#F7C600" stroke="black" stroke-width="0.0189542"/>
<path d="M17.0657 8.43484L17.4312 8.43359L17.0657 8.43484Z" fill="#F7C600"/>
<path d="M17.0657 8.43484L17.4312 8.43359" stroke="black" stroke-width="0.0189542"/>
<path d="M16.8982 8.21924C16.8982 8.21924 16.9274 8.39021 17.0624 8.43071L16.8982 8.21924Z" fill="#F7C600"/>
<path d="M16.8982 8.21924C16.8982 8.21924 16.9274 8.39021 17.0624 8.43071" stroke="black" stroke-width="0.0189542"/>
<path d="M16.8758 8.21695C16.8893 8.15171 16.914 8.14046 16.941 8.05722C16.9455 7.97624 16.8758 7.98523 16.896 7.93349C16.932 7.87725 16.914 7.82326 16.8465 7.78052C16.86 7.85476 16.7588 7.92449 16.7588 7.98522C16.7588 8.04596 16.8105 8.03247 16.8038 8.1247C16.8083 8.17869 16.7903 8.1652 16.7858 8.21694H16.8758L16.8758 8.21695Z" fill="url(#paint3_linear_6863_64450)" stroke="black" stroke-width="0.0189542"/>
<path d="M17.3163 7.81175C17.3163 7.84032 17.2932 7.86349 17.2646 7.86349C17.236 7.86349 17.2129 7.84032 17.2129 7.81175C17.2129 7.78318 17.236 7.76001 17.2646 7.76001C17.2932 7.76001 17.3163 7.78318 17.3163 7.81175Z" fill="#F7C600" stroke="black" stroke-width="0.0189542"/>
<path d="M16.374 8.94117L16.6571 8.52539L16.9416 8.94205" stroke="#F7C600" stroke-width="0.0379064"/>
<path d="M16.7141 8.78573C16.7141 8.81679 16.689 8.84197 16.6579 8.84197C16.6268 8.84197 16.6017 8.81679 16.6017 8.78573C16.6017 8.75467 16.6268 8.72949 16.6579 8.72949C16.689 8.72949 16.7141 8.75467 16.7141 8.78573Z" fill="#F7C600" stroke="black" stroke-width="0.0189542"/>
<path d="M16.4273 9.24824L16.8662 9.24949C16.8662 9.24949 16.8731 9.19253 16.8204 9.15791C17.0502 9.1263 16.9905 8.92354 17.1831 8.91203C17.2204 8.91778 17.0825 8.99824 17.0825 8.99824C17.0825 8.99824 16.9664 9.08015 17.0193 9.1218C17.0612 9.15486 17.0796 9.10169 17.0854 9.06146C17.0911 9.02123 17.2721 8.99536 17.2463 8.88043C17.2032 8.7856 16.9503 8.94364 16.9503 8.94364L16.7699 8.94264C16.7586 8.92239 16.7089 8.8412 16.6576 8.84082C16.5967 8.84304 16.5538 8.94364 16.5538 8.94364H16.1457C16.1457 8.94364 16.1317 9.04834 16.3386 9.06845C16.3852 9.12928 16.4213 9.14628 16.4618 9.16203C16.4348 9.18453 16.4272 9.21174 16.4273 9.24823L16.4273 9.24824Z" fill="#F7C600" stroke="black" stroke-width="0.0189542"/>
<path d="M16.4591 9.1592L16.8247 9.15796L16.4591 9.1592Z" fill="#F7C600"/>
<path d="M16.4591 9.1592L16.8247 9.15796" stroke="black" stroke-width="0.0189542"/>
<path d="M16.2915 8.94385C16.2915 8.94385 16.3207 9.11482 16.4557 9.15532L16.2915 8.94385Z" fill="#F7C600"/>
<path d="M16.2915 8.94385C16.2915 8.94385 16.3207 9.11482 16.4557 9.15532" stroke="black" stroke-width="0.0189542"/>
<path d="M16.2691 8.94131C16.2826 8.87608 16.3073 8.86482 16.3343 8.78159C16.3388 8.7006 16.2691 8.7096 16.2893 8.65786C16.3253 8.60162 16.3073 8.54763 16.2398 8.50488C16.2533 8.57912 16.1521 8.64886 16.1521 8.70959C16.1521 8.77033 16.2038 8.75683 16.1971 8.84907C16.2016 8.90306 16.1836 8.88956 16.1791 8.9413H16.2691L16.2691 8.94131Z" fill="url(#paint4_linear_6863_64450)" stroke="black" stroke-width="0.0189542"/>
<path d="M16.7098 8.53611C16.7098 8.56468 16.6866 8.58785 16.658 8.58785C16.6295 8.58785 16.6063 8.56468 16.6063 8.53611C16.6063 8.50754 16.6295 8.48438 16.658 8.48438C16.6866 8.48438 16.7098 8.50754 16.7098 8.53611Z" fill="#F7C600" stroke="black" stroke-width="0.0189542"/>
<path d="M16.3903 9.79713L16.6734 9.38135L16.9578 9.79801" stroke="#F7C600" stroke-width="0.0379064"/>
<path d="M16.7302 9.64169C16.7303 9.67275 16.7051 9.69793 16.674 9.69793C16.643 9.69793 16.6178 9.67275 16.6178 9.64169C16.6178 9.61063 16.643 9.58545 16.674 9.58545C16.7051 9.58545 16.7303 9.61063 16.7302 9.64169Z" fill="#F7C600" stroke="black" stroke-width="0.0189542"/>
<path d="M16.4434 10.1042L16.8823 10.1055C16.8823 10.1055 16.8892 10.0485 16.8365 10.0139C17.0663 9.98226 17.0066 9.7795 17.1992 9.76799C17.2365 9.77374 17.0986 9.8542 17.0986 9.8542C17.0986 9.8542 16.9825 9.93611 17.0354 9.97775C17.0773 10.0108 17.0957 9.95764 17.1015 9.91741C17.1072 9.87718 17.2882 9.85132 17.2624 9.73638C17.2193 9.64156 16.9664 9.7996 16.9664 9.7996L16.786 9.7986C16.7748 9.77835 16.725 9.69715 16.6737 9.69678C16.6128 9.699 16.5699 9.7996 16.5699 9.7996H16.1618C16.1618 9.7996 16.1478 9.90429 16.3547 9.92441C16.4013 9.98524 16.4374 10.0022 16.4779 10.018C16.4509 10.0405 16.4433 10.0677 16.4434 10.1042L16.4434 10.1042Z" fill="#F7C600" stroke="black" stroke-width="0.0189542"/>
<path d="M16.4751 10.0149L16.8407 10.0137L16.4751 10.0149Z" fill="#F7C600"/>
<path d="M16.4751 10.0149L16.8407 10.0137" stroke="black" stroke-width="0.0189542"/>
<path d="M16.3076 9.79956C16.3076 9.79956 16.3369 9.97054 16.4718 10.011L16.3076 9.79956Z" fill="#F7C600"/>
<path d="M16.3076 9.79956C16.3076 9.79956 16.3369 9.97054 16.4718 10.011" stroke="black" stroke-width="0.0189542"/>
<path d="M16.2852 9.79727C16.2987 9.73203 16.3234 9.72078 16.3504 9.63754C16.3549 9.55656 16.2852 9.56556 16.3054 9.51382C16.3414 9.45757 16.3234 9.40358 16.2559 9.36084C16.2694 9.43508 16.1682 9.50482 16.1682 9.56555C16.1682 9.62629 16.22 9.61279 16.2132 9.70503C16.2177 9.75901 16.1997 9.74552 16.1952 9.79726H16.2852L16.2852 9.79727Z" fill="url(#paint5_linear_6863_64450)" stroke="black" stroke-width="0.0189542"/>
<path d="M16.7259 9.39207C16.7259 9.42064 16.7027 9.44381 16.6742 9.44381C16.6456 9.44381 16.6224 9.42064 16.6224 9.39207C16.6224 9.3635 16.6456 9.34033 16.6742 9.34033C16.7027 9.34033 16.7259 9.3635 16.7259 9.39207Z" fill="#F7C600" stroke="black" stroke-width="0.0189542"/>
<path d="M19.4042 5.69776L19.6873 5.28198L19.9718 5.69865" stroke="#F7C600" stroke-width="0.0379064"/>
<path d="M19.7442 5.54232C19.7442 5.57338 19.719 5.59856 19.6879 5.59856C19.6569 5.59856 19.6317 5.57338 19.6317 5.54232C19.6317 5.51127 19.6569 5.48608 19.6879 5.48608C19.719 5.48608 19.7442 5.51127 19.7442 5.54232Z" fill="#F7C600" stroke="black" stroke-width="0.0189542"/>
<path d="M19.4575 6.00484L19.8964 6.00609C19.8964 6.00609 19.9032 5.94913 19.8505 5.91451C20.0804 5.88289 20.0207 5.68013 20.2132 5.66863C20.2506 5.67437 20.1126 5.75483 20.1126 5.75483C20.1126 5.75483 19.9966 5.83674 20.0494 5.87839C20.0914 5.91145 20.1098 5.85828 20.1155 5.81805C20.1213 5.77782 20.3023 5.75196 20.2764 5.63702C20.2333 5.54219 19.9804 5.70023 19.9804 5.70023L19.8 5.69923C19.7888 5.67898 19.7391 5.59779 19.6877 5.59741C19.6268 5.59963 19.5839 5.70023 19.5839 5.70023H19.1759C19.1759 5.70023 19.1619 5.80493 19.3688 5.82504C19.4153 5.88588 19.4515 5.90287 19.4919 5.91862C19.4649 5.94112 19.4573 5.96834 19.4575 6.00483L19.4575 6.00484Z" fill="#F7C600" stroke="black" stroke-width="0.0189542"/>
<path d="M19.4891 5.9158L19.8547 5.91455L19.4891 5.9158Z" fill="#F7C600"/>
<path d="M19.4891 5.9158L19.8547 5.91455" stroke="black" stroke-width="0.0189542"/>
<path d="M19.3217 5.7002C19.3217 5.7002 19.3509 5.87117 19.4859 5.91167L19.3217 5.7002Z" fill="#F7C600"/>
<path d="M19.3217 5.7002C19.3217 5.7002 19.3509 5.87117 19.4859 5.91167" stroke="black" stroke-width="0.0189542"/>
<path d="M19.2991 5.69815C19.3126 5.63291 19.3374 5.62166 19.3643 5.53842C19.3688 5.45744 19.2991 5.46644 19.3194 5.41469C19.3554 5.35845 19.3374 5.30446 19.2699 5.26172C19.2834 5.33596 19.1821 5.4057 19.1821 5.46642C19.1821 5.52717 19.2339 5.51367 19.2271 5.60591C19.2316 5.65989 19.2136 5.6464 19.2091 5.69814H19.2991L19.2991 5.69815Z" fill="url(#paint6_linear_6863_64450)" stroke="black" stroke-width="0.0189542"/>
<path d="M19.7397 5.29271C19.7397 5.32128 19.7165 5.34444 19.688 5.34444C19.6594 5.34444 19.6362 5.32128 19.6362 5.29271C19.6362 5.26413 19.6594 5.24097 19.688 5.24097C19.7165 5.24097 19.7397 5.26413 19.7397 5.29271Z" fill="#F7C600" stroke="black" stroke-width="0.0189542"/>
<path d="M19.377 6.51197L19.6601 6.09619L19.9445 6.51285" stroke="#F7C600" stroke-width="0.0379064"/>
<path d="M19.7171 6.35653C19.7171 6.38759 19.6919 6.41277 19.6608 6.41277C19.6298 6.41277 19.6046 6.38759 19.6046 6.35653C19.6046 6.32548 19.6298 6.30029 19.6608 6.30029C19.6919 6.30029 19.7171 6.32548 19.7171 6.35653Z" fill="#F7C600" stroke="black" stroke-width="0.0189542"/>
<path d="M19.4304 6.81929L19.8693 6.82054C19.8693 6.82054 19.8761 6.76358 19.8234 6.72896C20.0533 6.69735 19.9936 6.49459 20.1861 6.48308C20.2235 6.48882 20.0855 6.56928 20.0855 6.56928C20.0855 6.56928 19.9695 6.6512 20.0223 6.69284C20.0643 6.72591 20.0827 6.67273 20.0884 6.6325C20.0942 6.59227 20.2752 6.56641 20.2493 6.45147C20.2062 6.35664 19.9533 6.51468 19.9533 6.51468L19.7729 6.51368C19.7617 6.49344 19.712 6.41224 19.6606 6.41187C19.5997 6.41409 19.5568 6.51469 19.5568 6.51469H19.1488C19.1488 6.51469 19.1348 6.61938 19.3417 6.63949C19.3882 6.70033 19.4244 6.71733 19.4648 6.73307C19.4378 6.75557 19.4302 6.78279 19.4304 6.81928L19.4304 6.81929Z" fill="#F7C600" stroke="black" stroke-width="0.0189542"/>
<path d="M19.462 6.73L19.8276 6.72876L19.462 6.73Z" fill="#F7C600"/>
<path d="M19.462 6.73L19.8276 6.72876" stroke="black" stroke-width="0.0189542"/>
<path d="M19.2944 6.51465C19.2944 6.51465 19.3237 6.68562 19.4587 6.72612L19.2944 6.51465Z" fill="#F7C600"/>
<path d="M19.2944 6.51465C19.2944 6.51465 19.3237 6.68562 19.4587 6.72612" stroke="black" stroke-width="0.0189542"/>
<path d="M19.272 6.51236C19.2855 6.44712 19.3103 6.43587 19.3372 6.35263C19.3417 6.27165 19.272 6.28064 19.2923 6.2289C19.3283 6.17266 19.3103 6.11867 19.2428 6.07593C19.2563 6.15017 19.155 6.2199 19.155 6.28063C19.155 6.34137 19.2068 6.32788 19.2 6.42011C19.2045 6.4741 19.1865 6.46061 19.182 6.51235H19.272L19.272 6.51236Z" fill="url(#paint7_linear_6863_64450)" stroke="black" stroke-width="0.0189542"/>
<path d="M19.7128 6.10691C19.7128 6.13549 19.6897 6.15865 19.6611 6.15865C19.6325 6.15865 19.6094 6.13549 19.6094 6.10691C19.6094 6.07834 19.6325 6.05518 19.6611 6.05518C19.6897 6.05518 19.7128 6.07834 19.7128 6.10691Z" fill="#F7C600" stroke="black" stroke-width="0.0189542"/>
<path d="M19.3412 7.34449L19.6243 6.92871L19.9088 7.34537" stroke="#F7C600" stroke-width="0.0379064"/>
<path d="M19.6813 7.18905C19.6813 7.22011 19.6561 7.24529 19.6251 7.24529C19.594 7.24529 19.5688 7.22011 19.5688 7.18905C19.5688 7.15799 19.594 7.13281 19.6251 7.13281C19.6561 7.13281 19.6813 7.15799 19.6813 7.18905Z" fill="#F7C600" stroke="black" stroke-width="0.0189542"/>
<path d="M19.3945 7.65181L19.8334 7.65306C19.8334 7.65306 19.8402 7.5961 19.7875 7.56148C20.0174 7.52987 19.9577 7.32711 20.1502 7.3156C20.1876 7.32134 20.0496 7.4018 20.0496 7.4018C20.0496 7.4018 19.9336 7.48372 19.9864 7.52536C20.0284 7.55843 20.0468 7.50525 20.0525 7.46502C20.0583 7.42479 20.2393 7.39893 20.2134 7.28399C20.1703 7.18916 19.9175 7.3472 19.9175 7.3472L19.7371 7.3462C19.7258 7.32596 19.6761 7.24476 19.6247 7.24438C19.5638 7.24661 19.5209 7.34721 19.5209 7.34721H19.1129C19.1129 7.34721 19.0989 7.4519 19.3058 7.47201C19.3524 7.53285 19.3885 7.54985 19.429 7.56559C19.402 7.58809 19.3944 7.61531 19.3945 7.6518L19.3945 7.65181Z" fill="#F7C600" stroke="black" stroke-width="0.0189542"/>
<path d="M19.4261 7.56252L19.7917 7.56128L19.4261 7.56252Z" fill="#F7C600"/>
<path d="M19.4261 7.56252L19.7917 7.56128" stroke="black" stroke-width="0.0189542"/>
<path d="M19.2587 7.34692C19.2587 7.34692 19.2879 7.5179 19.4229 7.5584L19.2587 7.34692Z" fill="#F7C600"/>
<path d="M19.2587 7.34692C19.2587 7.34692 19.2879 7.5179 19.4229 7.5584" stroke="black" stroke-width="0.0189542"/>
<path d="M19.2361 7.34488C19.2496 7.27964 19.2744 7.26839 19.3014 7.18515C19.3059 7.10417 19.2361 7.11316 19.2564 7.06142C19.2924 7.00518 19.2744 6.95119 19.2069 6.90845C19.2204 6.98269 19.1191 7.05242 19.1191 7.11315C19.1191 7.17389 19.1709 7.1604 19.1641 7.25263C19.1686 7.30662 19.1506 7.29313 19.1461 7.34487H19.2361L19.2361 7.34488Z" fill="url(#paint8_linear_6863_64450)" stroke="black" stroke-width="0.0189542"/>
<path d="M19.6769 6.93943C19.6769 6.96801 19.6538 6.99117 19.6252 6.99117C19.5966 6.99117 19.5735 6.96801 19.5735 6.93943C19.5735 6.91086 19.5966 6.8877 19.6252 6.8877C19.6538 6.8877 19.6769 6.91086 19.6769 6.93943Z" fill="#F7C600" stroke="black" stroke-width="0.0189542"/>
<path d="M19.3816 8.16334L19.6647 7.74756L19.9492 8.16422" stroke="#F7C600" stroke-width="0.0379064"/>
<path d="M19.7216 8.0079C19.7216 8.03896 19.6964 8.06414 19.6654 8.06414C19.6343 8.06414 19.6091 8.03896 19.6091 8.0079C19.6091 7.97684 19.6343 7.95166 19.6654 7.95166C19.6964 7.95166 19.7216 7.97684 19.7216 8.0079Z" fill="#F7C600" stroke="black" stroke-width="0.0189542"/>
<path d="M19.4348 8.47041L19.8736 8.47166C19.8736 8.47166 19.8805 8.4147 19.8278 8.38008C20.0577 8.34847 19.998 8.14571 20.1905 8.1342C20.2279 8.13995 20.0899 8.22041 20.0899 8.22041C20.0899 8.22041 19.9738 8.30232 20.0267 8.34396C20.0687 8.37703 20.087 8.32385 20.0928 8.28362C20.0985 8.24339 20.2796 8.21753 20.2537 8.10259C20.2106 8.00777 19.9577 8.16581 19.9577 8.16581L19.7773 8.16481C19.7661 8.14456 19.7164 8.06336 19.665 8.06299C19.6041 8.06521 19.5612 8.16581 19.5612 8.16581H19.1532C19.1532 8.16581 19.1392 8.2705 19.3461 8.29062C19.3926 8.35145 19.4287 8.36845 19.4692 8.3842C19.4422 8.4067 19.4346 8.43391 19.4348 8.4704L19.4348 8.47041Z" fill="#F7C600" stroke="black" stroke-width="0.0189542"/>
<path d="M19.4666 8.38113L19.8321 8.37988L19.4666 8.38113Z" fill="#F7C600"/>
<path d="M19.4666 8.38113L19.8321 8.37988" stroke="black" stroke-width="0.0189542"/>
<path d="M19.2992 8.16553C19.2992 8.16553 19.3284 8.3365 19.4634 8.377L19.2992 8.16553Z" fill="#F7C600"/>
<path d="M19.2992 8.16553C19.2992 8.16553 19.3284 8.3365 19.4634 8.377" stroke="black" stroke-width="0.0189542"/>
<path d="M19.2765 8.16348C19.29 8.09824 19.3148 8.08699 19.3418 8.00376C19.3463 7.92277 19.2765 7.93177 19.2968 7.88003C19.3328 7.82378 19.3148 7.76979 19.2473 7.72705C19.2608 7.80129 19.1595 7.87103 19.1595 7.93176C19.1595 7.9925 19.2113 7.979 19.2045 8.07124C19.209 8.12523 19.191 8.11173 19.1865 8.16347H19.2765L19.2765 8.16348Z" fill="url(#paint9_linear_6863_64450)" stroke="black" stroke-width="0.0189542"/>
<path d="M19.7171 7.75828C19.7171 7.78685 19.6939 7.81002 19.6654 7.81002C19.6368 7.81002 19.6136 7.78685 19.6136 7.75828C19.6136 7.72971 19.6368 7.70654 19.6654 7.70654C19.6939 7.70654 19.7171 7.72971 19.7171 7.75828Z" fill="#F7C600" stroke="black" stroke-width="0.0189542"/>
<path d="M19.3727 8.98194L19.6558 8.56616L19.9403 8.98282" stroke="#F7C600" stroke-width="0.0379064"/>
<path d="M19.7127 8.82675C19.7127 8.85781 19.6875 8.88299 19.6564 8.88299C19.6254 8.88299 19.6002 8.85781 19.6002 8.82675C19.6002 8.79569 19.6254 8.77051 19.6564 8.77051C19.6875 8.77051 19.7127 8.79569 19.7127 8.82675Z" fill="#F7C600" stroke="black" stroke-width="0.0189542"/>
<path d="M19.426 9.28926L19.8649 9.29051C19.8649 9.29051 19.8717 9.23355 19.819 9.19893C20.0489 9.16732 19.9892 8.96456 20.1817 8.95305C20.2191 8.9588 20.0811 9.03925 20.0811 9.03925C20.0811 9.03925 19.9651 9.12117 20.0179 9.16281C20.0599 9.19588 20.0783 9.1427 20.084 9.10247C20.0898 9.06224 20.2708 9.03638 20.2449 8.92144C20.2018 8.82661 19.949 8.98465 19.949 8.98465L19.7685 8.98365C19.7573 8.96341 19.7076 8.88221 19.6562 8.88184C19.5953 8.88406 19.5524 8.98466 19.5524 8.98466H19.1444C19.1444 8.98466 19.1304 9.08935 19.3373 9.10946C19.3838 9.1703 19.42 9.1873 19.4604 9.20304C19.4335 9.22554 19.4259 9.25276 19.426 9.28925L19.426 9.28926Z" fill="#F7C600" stroke="black" stroke-width="0.0189542"/>
<path d="M19.4576 9.19998L19.8232 9.19873L19.4576 9.19998Z" fill="#F7C600"/>
<path d="M19.4576 9.19998L19.8232 9.19873" stroke="black" stroke-width="0.0189542"/>
<path d="M19.2902 8.98438C19.2902 8.98438 19.3194 9.15535 19.4544 9.19585L19.2902 8.98438Z" fill="#F7C600"/>
<path d="M19.2902 8.98438C19.2902 8.98438 19.3194 9.15535 19.4544 9.19585" stroke="black" stroke-width="0.0189542"/>
<path d="M19.2676 8.98208C19.2811 8.91685 19.3059 8.9056 19.3329 8.82236C19.3374 8.74137 19.2676 8.75037 19.2879 8.69863C19.3239 8.64239 19.3059 8.5884 19.2384 8.54565C19.2519 8.61989 19.1506 8.68963 19.1506 8.75036C19.1506 8.8111 19.2024 8.7976 19.1956 8.88984C19.2001 8.94383 19.1821 8.93033 19.1776 8.98207H19.2676L19.2676 8.98208Z" fill="url(#paint10_linear_6863_64450)" stroke="black" stroke-width="0.0189542"/>
<path d="M19.7084 8.57689C19.7084 8.60546 19.6853 8.62862 19.6567 8.62862C19.6281 8.62862 19.605 8.60546 19.605 8.57689C19.605 8.54831 19.6281 8.52515 19.6567 8.52515C19.6853 8.52515 19.7084 8.54831 19.7084 8.57689Z" fill="#F7C600" stroke="black" stroke-width="0.0189542"/>
<path d="M19.377 9.80567L19.6601 9.38989L19.9445 9.80656" stroke="#F7C600" stroke-width="0.0379064"/>
<path d="M19.7171 9.64999C19.7171 9.68105 19.6919 9.70623 19.6608 9.70623C19.6298 9.70623 19.6046 9.68105 19.6046 9.64999C19.6046 9.61893 19.6298 9.59375 19.6608 9.59375C19.6919 9.59375 19.7171 9.61893 19.7171 9.64999Z" fill="#F7C600" stroke="black" stroke-width="0.0189542"/>
<path d="M19.4304 10.1127L19.8693 10.114C19.8693 10.114 19.8761 10.057 19.8234 10.0224C20.0533 9.9908 19.9936 9.78804 20.1861 9.77654C20.2235 9.78228 20.0855 9.86274 20.0855 9.86274C20.0855 9.86274 19.9695 9.94465 20.0223 9.9863C20.0643 10.0194 20.0827 9.96619 20.0884 9.92596C20.0942 9.88573 20.2752 9.85987 20.2493 9.74493C20.2062 9.6501 19.9533 9.80814 19.9533 9.80814L19.7729 9.80714C19.7617 9.78689 19.712 9.7057 19.6606 9.70532C19.5997 9.70755 19.5568 9.80814 19.5568 9.80814H19.1488C19.1488 9.80814 19.1348 9.91284 19.3417 9.93295C19.3882 9.99379 19.4244 10.0108 19.4648 10.0265C19.4378 10.049 19.4302 10.0762 19.4304 10.1127L19.4304 10.1127Z" fill="#F7C600" stroke="black" stroke-width="0.0189542"/>
<path d="M19.462 10.0235L19.8276 10.0222L19.462 10.0235Z" fill="#F7C600"/>
<path d="M19.462 10.0235L19.8276 10.0222" stroke="black" stroke-width="0.0189542"/>
<path d="M19.2944 9.80786C19.2944 9.80786 19.3237 9.97884 19.4587 10.0193L19.2944 9.80786Z" fill="#F7C600"/>
<path d="M19.2944 9.80786C19.2944 9.80786 19.3237 9.97884 19.4587 10.0193" stroke="black" stroke-width="0.0189542"/>
<path d="M19.272 9.80582C19.2855 9.74058 19.3103 9.72933 19.3372 9.64609C19.3417 9.5651 19.272 9.5741 19.2923 9.52236C19.3283 9.46612 19.3103 9.41213 19.2428 9.36938C19.2563 9.44362 19.155 9.51336 19.155 9.57409C19.155 9.63483 19.2068 9.62133 19.2 9.71357C19.2045 9.76756 19.1865 9.75406 19.182 9.80581H19.272L19.272 9.80582Z" fill="url(#paint11_linear_6863_64450)" stroke="black" stroke-width="0.0189542"/>
<path d="M19.7128 9.40037C19.7128 9.42894 19.6897 9.45211 19.6611 9.45211C19.6325 9.45211 19.6094 9.42894 19.6094 9.40037C19.6094 9.3718 19.6325 9.34863 19.6611 9.34863C19.6897 9.34863 19.7128 9.3718 19.7128 9.40037Z" fill="#F7C600" stroke="black" stroke-width="0.0189542"/>
<path d="M18.4957 10.1931C18.4957 10.1931 18.6103 10.4571 18.7407 10.2949C18.8711 10.1326 18.8234 10.0626 18.8234 10.0626L18.5307 9.90356L18.4448 10.0849L18.4957 10.1931L18.4957 10.1931Z" fill="#F7C600" stroke="black" stroke-width="0.0189542"/>
<path d="M18.7471 10.158C18.7471 10.158 18.7661 10.1611 18.7821 10.1325C18.798 10.1039 18.7471 10.0911 18.7248 10.0593L18.6993 10.1102L18.7471 10.158Z" fill="#FFC6B5" stroke="black" stroke-width="0.0189542"/>
<path d="M18.0853 10.0881L17.8276 10.2281C17.8276 10.2281 17.7003 10.2535 17.6908 10.2281C17.6813 10.2026 17.694 10.1803 17.7608 10.1772C17.8276 10.174 18.0089 10.0085 18.0089 10.0085L18.0853 10.0881L18.0853 10.0881Z" fill="#FFC6B5" stroke="black" stroke-width="0.0189542"/>
<path d="M18.0886 5.51006C18.0886 5.51006 18.0949 5.5705 18.0981 5.60232C18.1013 5.63413 18.0472 5.70094 18.044 5.69776C18.0409 5.69458 18.0154 5.70094 18.0186 5.72003C18.0218 5.73912 18.0599 5.74548 18.0599 5.74548C18.0599 5.74548 18.044 5.81229 18.0599 5.81548C18.0759 5.81866 18.0186 5.90138 18.0599 5.92365C18.1013 5.94592 18.1713 5.97455 18.2031 5.96819C18.2349 5.96183 18.2031 6.09226 18.2031 6.09226L18.114 6.28315L18.604 6.23225L18.5022 6.06999C18.5022 6.06999 18.4545 6.03818 18.4672 5.94592C18.4799 5.85366 18.4608 5.43688 18.4608 5.43688L18.1109 5.38916L18.0886 5.51006H18.0886Z" fill="#FFC6B5" stroke="black" stroke-width="0.0189542"/>
<path d="M17.9993 6.23512C17.9993 6.23512 17.8402 6.3083 17.8466 6.50554C17.8052 6.69643 17.783 6.88732 17.783 6.88732C17.783 6.88732 17.5953 7.10048 17.538 7.17682C17.4807 7.25318 17.3948 7.40907 17.363 7.45042C17.3312 7.49178 17.2071 7.62859 17.2103 7.67949C17.2135 7.73039 17.1817 7.95628 17.3058 7.98173C17.3376 7.99445 17.4394 7.72085 17.4394 7.72085C17.4394 7.72085 17.4457 7.60313 17.4107 7.58086C17.3757 7.55859 17.4871 7.48224 17.4871 7.48224C17.4871 7.48224 17.7003 7.32634 17.748 7.28817C17.7957 7.24999 17.9261 7.10364 17.9261 7.10364L17.9993 6.23511L17.9993 6.23512Z" fill="#FFC6B5" stroke="black" stroke-width="0.0189542"/>
<path d="M18.1807 6.08583C18.1807 6.08583 18.2221 6.19719 18.3143 6.1781C18.4066 6.15901 18.5148 6.07311 18.5148 6.07311C18.5148 6.07311 18.6007 6.06993 18.6134 6.08265C18.6261 6.09538 18.8456 6.30853 18.8393 6.37535C18.8329 6.44216 18.7375 6.42307 18.7025 6.46761C18.6675 6.51215 18.6102 6.6235 18.6261 6.70622C18.642 6.78894 18.6897 6.89711 18.6834 6.93846C18.677 6.97982 18.642 6.99255 18.642 7.01482C18.642 7.03709 18.6706 7.07527 18.6706 7.11663C18.6706 7.15799 18.6325 7.21843 18.6388 7.25979C18.6452 7.30115 18.6484 7.42205 18.6484 7.42205L18.6388 7.98197C18.6388 7.98197 18.6706 8.00106 18.6738 8.03288C18.677 8.06469 18.8902 8.99049 18.8902 8.99049C18.8902 8.99049 18.8806 9.01912 18.8583 9.01594C18.8361 9.01276 18.9442 9.15911 18.9474 9.20047C18.9506 9.24183 19.0588 9.56633 19.0556 9.61088C19.0524 9.65542 19.0365 9.75405 19.027 9.75723C19.0174 9.76041 19.097 9.96085 19.0842 9.99266C19.0715 10.0245 18.9411 10.0213 18.9411 10.0213L18.9061 10.0149C18.9061 10.0149 18.9092 10.0563 18.8838 10.0595C18.8583 10.0627 18.6706 10.0499 18.6706 10.0499C18.6706 10.0499 18.6165 10.1326 18.5847 10.1295C18.5529 10.1263 18.5116 10.069 18.502 10.0786C18.4925 10.0881 18.5306 10.1422 18.5211 10.1581C18.5116 10.174 18.3493 10.209 18.3175 10.1326C18.2857 10.0563 18.3366 10.0754 18.327 10.0595C18.3175 10.0436 18.2443 10.0022 18.222 10.0149C18.1998 10.0277 18.2793 10.0467 18.2761 10.0786C18.2729 10.1104 18.2061 10.1581 18.1807 10.1581C18.1552 10.1581 18.0948 10.0404 18.0057 10.0531C17.9166 10.0658 17.8594 10.0881 17.8594 10.0881C17.8594 10.0881 17.7544 10.1326 17.7098 10.1231C17.6653 10.1136 17.6462 10.0786 17.6462 10.0595C17.6462 10.0404 17.678 9.95767 17.6748 9.93222C17.6716 9.90677 17.6462 9.88131 17.6462 9.84314C17.6462 9.80496 17.7194 9.67452 17.7194 9.67452L17.7162 9.08912C17.7162 9.08912 17.6494 9.08912 17.6462 9.04776C17.643 9.0064 17.748 8.12196 17.7639 8.06468C17.7798 8.00742 17.8212 7.8038 17.8212 7.8038C17.8212 7.8038 17.7735 7.82607 17.7703 7.8038C17.7671 7.78153 17.9134 7.27568 17.9134 7.27568C17.9134 7.27568 17.9389 7.02434 17.9389 6.95754C17.9389 6.89073 17.9262 6.79846 17.9262 6.79846C17.9262 6.79846 17.7955 6.74317 17.7925 6.65848C17.7806 6.52373 17.9166 6.44849 17.9325 6.40396C17.9484 6.35942 17.9961 6.2258 17.9961 6.2258C17.9961 6.2258 18.0661 6.10491 18.1807 6.08582L18.1807 6.08583Z" fill="white" stroke="black" stroke-width="0.0189542"/>
<path d="M18.1329 10.1261C18.1329 10.1261 17.8243 10.2884 17.7797 10.3011C17.7352 10.3138 17.7066 10.247 17.7511 10.2343C17.7956 10.2215 17.8656 10.2152 17.8656 10.2152C17.8656 10.2152 17.7606 10.1325 17.7638 10.1293C17.767 10.1261 17.907 10.0752 17.9102 10.0752C17.9133 10.0752 17.9547 10.1579 17.9833 10.1515C18.012 10.1452 18.0947 10.0816 18.0947 10.0816C18.0947 10.0816 18.1392 10.1325 18.1329 10.1261L18.1329 10.1261Z" fill="#F7C600" stroke="black" stroke-width="0.0189542"/>
<path d="M18.5677 10.2152C18.5969 10.2528 18.6083 10.3181 18.6751 10.2799C18.742 10.2418 18.6409 10.1709 18.6409 10.1709L18.5677 10.2152Z" fill="#FFC6B5" stroke="black" stroke-width="0.0189542"/>
<path d="M18.6897 10.209C18.6897 10.209 18.7215 10.2344 18.7501 10.2058C18.7787 10.1771 18.6928 10.1167 18.6928 10.1167L18.6515 10.1644L18.6897 10.209Z" fill="#FFC6B5" stroke="black" stroke-width="0.0189542"/>
<path d="M18.8266 6.3899C18.8298 6.3899 18.9316 6.70487 18.9443 6.78441C18.957 6.86395 18.9984 7.18209 18.9825 7.22664C18.9666 7.27118 18.8043 7.48433 18.7852 7.53842C18.7661 7.5925 18.6516 7.7993 18.6516 7.7993C18.6516 7.7993 18.623 8.00293 18.6102 8.01247C18.5975 8.02201 18.6431 8.07199 18.6389 8.08882C18.6326 8.10776 18.5466 8.19699 18.5084 8.18745C18.4703 8.1779 18.4098 8.13336 18.4066 8.092C18.4034 8.05064 18.4098 7.91384 18.4384 7.87884C18.4671 7.84384 18.6166 7.4907 18.6261 7.46842C18.6357 7.44615 18.763 7.16936 18.7661 7.12164C18.7693 7.07391 18.7265 6.96356 18.6816 6.92307C18.5814 6.62836 18.6208 6.45063 18.8266 6.38989L18.8266 6.3899Z" fill="#FFC6B5" stroke="black" stroke-width="0.0189542"/>
<path d="M18.0789 5.49066C18.0789 5.49066 18.1488 5.50021 18.187 5.47794C18.2252 5.45567 18.2697 5.44612 18.3016 5.49066C18.3334 5.5352 18.3556 5.53202 18.3556 5.53202C18.3556 5.53202 18.3079 5.64973 18.3556 5.66246C18.4034 5.67519 18.4256 5.67519 18.4288 5.6911C18.432 5.707 18.3875 5.742 18.4002 5.75791C18.4129 5.77381 18.4352 5.7929 18.4384 5.80563C18.4415 5.81836 18.4097 5.87244 18.4193 5.88517C18.4288 5.89789 18.4574 5.9488 18.4765 5.9488C18.4956 5.9488 18.4829 6.02833 18.5402 6.00925C18.5974 5.99016 18.5943 5.93925 18.5943 5.93925C18.5943 5.93925 18.6547 5.92971 18.6706 5.87562C18.6865 5.82154 18.7247 5.80881 18.7247 5.80881C18.7247 5.80881 18.801 5.76745 18.6992 5.70382C18.6992 5.25842 18.4065 5.30614 18.4065 5.30614C18.4065 5.30614 18.3715 5.2266 18.3143 5.23615C18.257 5.24569 18.2538 5.31251 18.2125 5.30614C18.1711 5.29978 18.1616 5.27114 18.1584 5.27433C18.1552 5.27751 18.1202 5.34114 18.1202 5.35704C18.1202 5.37295 18.0089 5.33477 18.0184 5.41749C18.0279 5.50021 18.082 5.49703 18.0788 5.49067L18.0789 5.49066Z" fill="#9C5100" stroke="black" stroke-width="0.0189542"/>
<path d="M18.5944 6.20972C18.5944 6.20972 18.3112 6.39106 18.3176 6.45469" stroke="black" stroke-width="0.0189542"/>
<path d="M18.658 6.24146C18.658 6.24146 18.5944 6.31145 18.5912 6.31145" stroke="black" stroke-width="0.0189542"/>
<path d="M18.744 6.31787C18.744 6.31787 18.604 6.4324 18.6263 6.50558" stroke="black" stroke-width="0.0189542"/>
<path d="M18.0822 6.1936C18.0822 6.1936 18.0408 6.2795 18.0504 6.30813C18.0599 6.33677 18.1299 6.44494 18.1395 6.51176C18.149 6.57857 18.1395 6.62629 18.1395 6.62629" stroke="black" stroke-width="0.0189542"/>
<path d="M18.0092 6.35278C18.0092 6.35278 18.0219 6.45459 18.041 6.47368C18.0601 6.49277 18.111 6.57867 18.1173 6.61366" stroke="black" stroke-width="0.0189542"/>
<path d="M17.9835 6.77592C17.9835 6.77592 18.0662 6.81728 18.1426 6.6582" stroke="black" stroke-width="0.0189542"/>
<path d="M18.2668 6.54712C18.2636 6.54712 18.2064 6.70301 18.3082 6.76028C18.41 6.81755 18.4864 6.81118 18.5309 6.79528C18.5754 6.77937 18.6232 6.75074 18.6232 6.75074" stroke="black" stroke-width="0.0189542"/>
<path d="M18.222 6.73779C18.222 6.73779 18.2284 6.94778 18.537 7.15456" stroke="black" stroke-width="0.0189542"/>
<path d="M18.2347 6.93506C18.2347 6.93506 18.2316 7.11958 18.3525 7.20231" stroke="black" stroke-width="0.0189542"/>
<path d="M18.1713 6.71875C18.1713 6.71875 18.079 6.99235 18.0059 7.02099" stroke="black" stroke-width="0.0189542"/>
<path d="M18.1426 6.91919C18.1426 6.91919 18.1395 7.11644 18.114 7.18644" stroke="black" stroke-width="0.0189542"/>
<path d="M18.0886 7.23425C18.0886 7.23425 18.1523 7.31378 18.2222 7.30742C18.2922 7.30106 18.3209 7.21834 18.3686 7.23107C18.4163 7.24379 18.4609 7.28197 18.5722 7.27243" stroke="black" stroke-width="0.0189542"/>
<path d="M18.4131 7.35498C18.4131 7.35498 18.4131 7.51724 18.4417 7.53314C18.4704 7.54905 18.4576 7.69858 18.4576 7.69858" stroke="black" stroke-width="0.0189542"/>
<path d="M18.0249 7.27856C18.0249 7.27856 18.0217 7.43128 18.0027 7.48536C17.9836 7.53944 17.9454 7.63171 17.9518 7.71123" stroke="black" stroke-width="0.0189542"/>
<path d="M17.8309 7.80042C17.8468 7.79406 17.9009 7.74634 17.9009 7.74634" stroke="black" stroke-width="0.0189542"/>
<path d="M17.9296 7.78149C17.9296 7.78149 17.7928 8.36689 17.8309 8.71685" stroke="black" stroke-width="0.0189542"/>
<path d="M17.9614 7.81006C17.9614 7.81006 17.8914 8.2491 17.9232 8.33183" stroke="black" stroke-width="0.0189542"/>
<path d="M17.9264 7.79712C17.9296 7.79712 18.1936 7.81621 18.1936 7.81621" stroke="black" stroke-width="0.0189542"/>
<path d="M18.2319 7.78149C18.2319 7.78149 18.3051 7.81967 18.4069 7.81331" stroke="black" stroke-width="0.0189542"/>
<path d="M18.1998 7.99463C18.1998 7.99463 18.1871 8.74547 18.168 8.91089" stroke="black" stroke-width="0.0189542"/>
<path d="M18.5913 8.16626C18.5913 8.16626 18.674 8.82483 18.7217 8.88526" stroke="black" stroke-width="0.0189542"/>
<path d="M18.4323 8.24902C18.4323 8.24902 18.4832 8.83123 18.5118 8.88214" stroke="black" stroke-width="0.0189542"/>
<path d="M17.71 9.08582C17.71 9.08582 17.8086 9.05401 17.8977 8.95856C17.9995 9.09537 18.1554 8.96493 18.1554 8.96493C18.1554 8.96493 18.3971 9.13037 18.5053 8.94584C18.6708 9.05401 18.7535 8.92993 18.7535 8.92993C18.7535 8.92993 18.8139 9.02219 18.8585 9.01265" stroke="black" stroke-width="0.0189542"/>
<path d="M18.5944 9.07642C18.5944 9.07642 18.7184 9.65862 18.903 9.82406" stroke="black" stroke-width="0.0189542"/>
<path d="M17.9551 9.01562C17.9551 9.01562 17.971 9.50238 17.9996 9.84598" stroke="black" stroke-width="0.0189542"/>
<path d="M17.9328 9.56616C17.9328 9.56616 17.9169 9.88431 17.8978 9.90658" stroke="black" stroke-width="0.0189542"/>
<path d="M17.745 9.93834C17.745 9.93834 17.78 10.0751 17.955 9.94788C18.1299 9.82062 18.1331 9.9956 18.1395 10.0147C18.1458 10.0338 18.1745 10.1706 18.2413 10.0561" stroke="black" stroke-width="0.0189542"/>
<path d="M18.3812 9.86838C18.3812 9.86838 18.3526 10.1515 18.6039 9.94473C18.8553 9.73793 18.8966 9.94155 18.903 10.0052" stroke="black" stroke-width="0.0189542"/>
<path d="M18.3845 5.38232C18.3845 5.38232 18.3622 5.52231 18.5117 5.50958C18.4926 5.58594 18.5499 5.61139 18.5499 5.61139" stroke="black" stroke-width="0.0189542"/>
<path d="M18.6611 5.69775C18.6643 5.69775 18.728 5.73911 18.658 5.79002" stroke="black" stroke-width="0.0189542"/>
<path d="M18.4449 5.80884C18.4449 5.80884 18.4768 5.84702 18.5118 5.83747C18.5468 5.82793 18.604 5.87247 18.604 5.87247C18.604 5.87247 18.6517 5.88838 18.6581 5.87883" stroke="black" stroke-width="0.0189542"/>
<path d="M18.2509 5.92976C18.2509 5.92976 18.359 5.97112 18.429 5.79932" stroke="black" stroke-width="0.0189542"/>
<path d="M18.0505 5.74829L18.1142 5.75147" stroke="black" stroke-width="0.0189542"/>
<path d="M17.3445 7.75464L17.3495 7.89406" stroke="black" stroke-width="0.0189542"/>
<path d="M17.2137 7.74438C17.2137 7.74438 17.3031 7.89388 17.2957 7.97355" stroke="black" stroke-width="0.0189542"/>
<path d="M18.0599 5.81201H18.1172L18.0663 5.83428" stroke="black" stroke-width="0.0189542" stroke-linejoin="round"/>
<path d="M18.4117 8.05664C18.4117 8.05664 18.4786 8.04961 18.4765 8.1612C18.5192 8.02258 18.6059 8.01929 18.6059 8.01929" stroke="black" stroke-width="0.0189542" stroke-linejoin="round"/>
<path d="M18.1394 5.63393C18.1489 5.63393 18.1839 5.6212 18.1903 5.63075C18.1967 5.64029 18.1521 5.64666 18.1394 5.63393Z" stroke="black" stroke-width="0.0341163" stroke-linejoin="round"/>
<path d="M18.1835 11.2428C19.5271 11.2055 20.3948 10.2351 20.3856 10.2257C20.3763 10.2164 20.5629 9.95514 20.7122 9.99246C20.8615 10.0298 21.0761 10.4683 21.3374 10.5616C21.468 10.7669 21.3 10.9535 21.244 10.9908C21.1881 11.0282 20.9361 11.1308 20.8988 10.9815C20.8615 10.8322 20.7868 10.8602 20.7868 10.8602C20.7868 10.8602 19.5925 12.0266 18.2115 11.9799C16.7839 11.9892 15.6083 10.8602 15.6083 10.8602L15.5057 10.9722C15.5057 10.9722 15.3937 11.0935 15.3377 11.0841C15.2817 11.0748 15.0391 10.9162 15.0205 10.7576C15.0018 10.5989 15.1698 10.4963 15.1698 10.4963C15.1698 10.4963 15.5803 10.1791 15.627 10.0111C15.7203 9.91778 15.8976 10.0764 15.8976 10.0764C15.8976 10.0764 16.98 11.3174 18.1837 11.2428L18.1835 11.2428Z" fill="#F7C600" stroke="black" stroke-width="0.0379064"/>
<path d="M15.1417 10.5213C15.1417 10.5213 15.2528 10.4917 15.2935 10.5379C15.3342 10.5842 15.6136 10.8581 15.6136 10.8581" stroke="black" stroke-width="0.0379064"/>
<path d="M15.3952 10.6506L15.2842 10.7339C15.2842 10.7339 15.5636 10.7894 15.5007 10.9726" stroke="black" stroke-width="0.0379064"/>
<path d="M21.2364 10.5116C21.2364 10.5116 21.1809 10.482 21.0939 10.5468C21.007 10.6116 20.7867 10.8577 20.7867 10.8577" stroke="black" stroke-width="0.0379064"/>
<path d="M20.9873 10.6431L21.1076 10.7356C21.1076 10.7356 20.8559 10.7522 20.9114 10.9909" stroke="black" stroke-width="0.0379064"/>
<path d="M16.5638 10.8173C16.5565 10.8384 16.5373 10.8167 16.5213 10.8209C16.4792 10.8225 16.4443 10.85 16.4082 10.8687C16.285 10.9405 16.1618 11.0124 16.0385 11.0842C16.0261 11.0801 16.029 11.0701 16.0321 11.06C16.0649 10.9061 16.099 10.7524 16.131 10.5983C16.1363 10.5714 16.1448 10.5379 16.1188 10.5183C16.1077 10.5107 16.1249 10.4954 16.132 10.5093C16.195 10.5542 16.258 10.5992 16.321 10.6441C16.3149 10.6619 16.3042 10.6494 16.2934 10.6422C16.2672 10.617 16.2357 10.6403 16.2365 10.6721C16.214 10.7735 16.1921 10.8751 16.1698 10.9767C16.2535 10.9269 16.3381 10.8788 16.421 10.8278C16.4506 10.8146 16.4724 10.775 16.4417 10.7504C16.43 10.7435 16.4107 10.7247 16.4299 10.7218C16.4746 10.7536 16.5192 10.7854 16.5638 10.8173L16.5638 10.8173Z" fill="black"/>
<path d="M16.6969 11.4597C16.6935 11.4712 16.6875 11.4738 16.6784 11.4655C16.6042 11.4249 16.5301 11.3844 16.4559 11.3439C16.4593 11.3324 16.4653 11.3298 16.4745 11.3381C16.4945 11.3518 16.5274 11.3569 16.542 11.333C16.5714 11.2858 16.5963 11.2358 16.6235 11.1873C16.6606 11.1186 16.6992 11.0507 16.7352 10.9815C16.7524 10.9569 16.7332 10.9267 16.7091 10.9162C16.701 10.9118 16.689 10.9086 16.6993 10.8988C16.7042 10.8927 16.7148 10.9058 16.722 10.9073C16.7931 10.9462 16.8641 10.9851 16.9352 11.0239C16.9318 11.0354 16.9259 11.038 16.9167 11.0297C16.8966 11.016 16.8636 11.0108 16.8488 11.0346C16.8194 11.0818 16.7946 11.1318 16.7673 11.1803C16.7302 11.249 16.6916 11.3169 16.6556 11.3861C16.6384 11.4109 16.6576 11.4413 16.682 11.4516C16.687 11.4543 16.6919 11.457 16.6969 11.4597L16.6969 11.4597Z" fill="black"/>
<path d="M17.5525 11.259C17.5323 11.3155 17.5122 11.372 17.4921 11.4286C17.4673 11.4259 17.4838 11.3943 17.4761 11.3776C17.4673 11.3012 17.411 11.23 17.3343 11.2137C17.2756 11.1977 17.2138 11.2279 17.1793 11.2756C17.1273 11.3466 17.0957 11.4333 17.0912 11.5213C17.0883 11.5713 17.1112 11.6227 17.1549 11.649C17.1895 11.6718 17.2315 11.681 17.2727 11.6798C17.2872 11.6371 17.3045 11.5952 17.3166 11.5517C17.3215 11.5234 17.2923 11.5063 17.2689 11.4998C17.2652 11.4916 17.2743 11.4815 17.2838 11.4903C17.3577 11.5166 17.4316 11.543 17.5055 11.5693C17.5029 11.5966 17.472 11.5671 17.455 11.578C17.4277 11.5885 17.4253 11.6213 17.415 11.645C17.406 11.6703 17.3969 11.6956 17.3879 11.7209C17.2886 11.7279 17.1862 11.7069 17.0998 11.6569C17.0157 11.6039 16.9589 11.5017 16.9754 11.4014C16.9882 11.3155 17.0417 11.2351 17.1208 11.1972C17.1936 11.1586 17.2823 11.1587 17.3578 11.1894C17.3991 11.2033 17.4347 11.2288 17.4666 11.2578C17.486 11.284 17.5235 11.284 17.5393 11.2543C17.5437 11.2559 17.5481 11.2574 17.5525 11.259" fill="black"/>
<path d="M17.9132 11.8377C17.9127 11.8468 17.9117 11.855 17.9009 11.85C17.8163 11.8372 17.7317 11.8244 17.6471 11.8115C17.6475 11.8025 17.6485 11.7943 17.6593 11.7993C17.6813 11.8038 17.7108 11.8034 17.7215 11.7797C17.7322 11.7458 17.7344 11.7099 17.7405 11.6749C17.7551 11.5774 17.7706 11.48 17.7844 11.3824C17.7898 11.3613 17.7826 11.3375 17.7608 11.3293C17.7485 11.3235 17.7348 11.3226 17.7215 11.3204C17.7219 11.3114 17.7229 11.3031 17.7337 11.3082C17.8184 11.321 17.903 11.3338 17.9876 11.3466C17.9871 11.3556 17.9861 11.3639 17.9753 11.3589C17.9532 11.3543 17.9238 11.3549 17.9128 11.3784C17.9021 11.4123 17.8999 11.4482 17.8938 11.4832C17.8792 11.5807 17.8637 11.6781 17.8499 11.7757C17.8445 11.7967 17.8517 11.821 17.8737 11.8289C17.8861 11.8346 17.8999 11.8355 17.9132 11.8377H17.9132Z" fill="black"/>
<path d="M18.5983 11.6711C18.595 11.7311 18.5916 11.7911 18.5883 11.8511C18.4373 11.8588 18.2864 11.8665 18.1355 11.8742C18.1327 11.8632 18.1356 11.8573 18.1476 11.8596C18.1704 11.8602 18.1997 11.8506 18.2026 11.8245C18.2046 11.7797 18.1996 11.735 18.1981 11.6903C18.1932 11.6011 18.1897 11.5118 18.1839 11.4226C18.1863 11.3961 18.1624 11.3764 18.1372 11.3772C18.1292 11.3732 18.1076 11.3856 18.1098 11.371C18.1061 11.3592 18.1225 11.3655 18.1295 11.3632C18.2134 11.3589 18.2974 11.3546 18.3814 11.3503C18.3841 11.3614 18.3812 11.3672 18.3692 11.3649C18.3459 11.3648 18.3157 11.3705 18.3092 11.3967C18.3055 11.4354 18.3109 11.4743 18.312 11.5131C18.3171 11.606 18.3207 11.699 18.3268 11.7918C18.325 11.8161 18.3445 11.8376 18.3696 11.8329C18.4064 11.8311 18.4439 11.8327 18.4798 11.8234C18.5302 11.81 18.5576 11.7602 18.5714 11.7136C18.5805 11.701 18.573 11.6696 18.5929 11.6714C18.5947 11.6713 18.5965 11.6712 18.5983 11.6711" fill="black"/>
<path d="M18.9515 11.2356C18.9395 11.2358 18.9448 11.2511 18.9417 11.2592C18.9217 11.4093 18.9027 11.5596 18.8819 11.7097C18.8769 11.7429 18.8686 11.7818 18.8358 11.7986C18.8237 11.8029 18.8344 11.8219 18.8454 11.8113C18.8959 11.7962 18.9463 11.7811 18.9967 11.766C18.9948 11.7405 18.9657 11.7636 18.9495 11.7592C18.9148 11.7591 18.9096 11.717 18.9144 11.6907C18.9165 11.6729 18.9186 11.6551 18.9207 11.6373C18.9785 11.6199 19.0362 11.6026 19.094 11.5852C19.1161 11.613 19.1404 11.6392 19.1604 11.6686C19.1755 11.6969 19.139 11.7099 19.1178 11.7154C19.1079 11.7164 19.1165 11.7371 19.1255 11.7275C19.2014 11.7048 19.2773 11.682 19.3532 11.6593C19.3525 11.6335 19.3195 11.6576 19.3056 11.6405C19.263 11.6084 19.2324 11.5639 19.1971 11.5245C19.1153 11.4282 19.0334 11.3319 18.9515 11.2356L18.9515 11.2356ZM18.9502 11.4157C18.9912 11.4647 19.0322 11.5136 19.0732 11.5626C19.0241 11.5773 18.9749 11.5919 18.9257 11.6065C18.9339 11.5429 18.9421 11.4793 18.9502 11.4157Z" fill="black"/>
<path d="M19.7261 10.8972C19.748 10.9378 19.7698 10.9784 19.7916 11.0189C19.7712 11.0364 19.7606 10.9959 19.7422 10.9897C19.7119 10.9642 19.6663 10.9594 19.6326 10.981C19.6188 10.9882 19.6052 10.9957 19.5915 11.003C19.6573 11.1249 19.7222 11.2472 19.7886 11.3688C19.7989 11.3999 19.8372 11.4058 19.8619 11.3882C19.8714 11.3813 19.8801 11.3774 19.8831 11.392C19.8497 11.4114 19.8132 11.4298 19.7786 11.4488C19.735 11.4722 19.6915 11.4956 19.6479 11.5191C19.6376 11.5084 19.6445 11.503 19.656 11.4989C19.687 11.4874 19.6989 11.4498 19.6782 11.4233C19.6138 11.3023 19.5484 11.1818 19.4837 11.0609C19.4476 11.0809 19.4015 11.0989 19.3924 11.1439C19.3822 11.1722 19.3972 11.2069 19.3972 11.231C19.3861 11.2425 19.3832 11.2268 19.3781 11.2184C19.3594 11.1838 19.3408 11.1491 19.3221 11.1144C19.4568 11.042 19.5915 10.9696 19.7262 10.8972L19.7261 10.8972Z" fill="black"/>
<path d="M20.0324 10.7156C20.0741 10.7709 20.1159 10.8262 20.1576 10.8816C20.1866 10.8631 20.2108 10.8301 20.2021 10.7941C20.2055 10.766 20.1653 10.7341 20.1791 10.7144C20.1882 10.7087 20.1935 10.7298 20.2011 10.7353C20.2487 10.7985 20.2964 10.8617 20.344 10.9249C20.3254 10.9461 20.3119 10.9028 20.2921 10.8981C20.2643 10.8783 20.2252 10.8685 20.1953 10.8902C20.173 10.8973 20.1741 10.9098 20.1893 10.9236C20.2228 10.9669 20.2539 11.0121 20.2897 11.0536C20.3117 11.0749 20.3389 11.0526 20.3575 11.0379C20.4054 11.0052 20.4475 10.9542 20.4451 10.893C20.4482 10.8663 20.4314 10.8365 20.4316 10.814C20.4424 10.7997 20.4454 10.8219 20.4515 10.8292L20.5192 10.9513C20.4017 11.0399 20.2842 11.1285 20.1668 11.2171C20.1515 11.2062 20.1665 11.1999 20.1762 11.1924C20.2091 11.172 20.1986 11.1305 20.1744 11.1078C20.0991 11.0086 20.0252 10.9084 19.9489 10.81C19.9294 10.7836 19.8934 10.7975 19.8737 10.816C19.8656 10.8275 19.8528 10.8043 19.8682 10.8026C19.979 10.7191 20.0898 10.6355 20.2005 10.552C20.2308 10.5922 20.2611 10.6324 20.2915 10.6726C20.2704 10.6939 20.2517 10.6463 20.2277 10.6438C20.184 10.6211 20.1321 10.6394 20.0961 10.6681C20.0745 10.6835 20.0536 10.6998 20.0324 10.7156" fill="black"/>
</g>
<defs>
<linearGradient id="paint0_linear_6863_64450" x1="16.2999" y1="5.55935" x2="16.0707" y2="5.52547" gradientUnits="userSpaceOnUse">
<stop stop-color="#FF0000"/>
<stop offset="1" stop-color="#FFFF00"/>
</linearGradient>
<linearGradient id="paint1_linear_6863_64450" x1="16.2845" y1="6.38919" x2="16.0553" y2="6.3553" gradientUnits="userSpaceOnUse">
<stop stop-color="#FF0000"/>
<stop offset="1" stop-color="#FFFF00"/>
</linearGradient>
<linearGradient id="paint2_linear_6863_64450" x1="16.2781" y1="7.20681" x2="16.0489" y2="7.17293" gradientUnits="userSpaceOnUse">
<stop stop-color="#FF0000"/>
<stop offset="1" stop-color="#FFFF00"/>
</linearGradient>
<linearGradient id="paint3_linear_6863_64450" x1="16.8148" y1="8.09207" x2="16.5856" y2="8.05818" gradientUnits="userSpaceOnUse">
<stop stop-color="#FF0000"/>
<stop offset="1" stop-color="#FFFF00"/>
</linearGradient>
<linearGradient id="paint4_linear_6863_64450" x1="16.2081" y1="8.81643" x2="15.9789" y2="8.78255" gradientUnits="userSpaceOnUse">
<stop stop-color="#FF0000"/>
<stop offset="1" stop-color="#FFFF00"/>
</linearGradient>
<linearGradient id="paint5_linear_6863_64450" x1="16.2242" y1="9.67239" x2="15.995" y2="9.6385" gradientUnits="userSpaceOnUse">
<stop stop-color="#FF0000"/>
<stop offset="1" stop-color="#FFFF00"/>
</linearGradient>
<linearGradient id="paint6_linear_6863_64450" x1="19.2381" y1="5.57327" x2="19.0089" y2="5.53938" gradientUnits="userSpaceOnUse">
<stop stop-color="#FF0000"/>
<stop offset="1" stop-color="#FFFF00"/>
</linearGradient>
<linearGradient id="paint7_linear_6863_64450" x1="19.211" y1="6.38748" x2="18.9818" y2="6.35359" gradientUnits="userSpaceOnUse">
<stop stop-color="#FF0000"/>
<stop offset="1" stop-color="#FFFF00"/>
</linearGradient>
<linearGradient id="paint8_linear_6863_64450" x1="19.1751" y1="7.22" x2="18.9459" y2="7.18611" gradientUnits="userSpaceOnUse">
<stop stop-color="#FF0000"/>
<stop offset="1" stop-color="#FFFF00"/>
</linearGradient>
<linearGradient id="paint9_linear_6863_64450" x1="19.2155" y1="8.0386" x2="18.9863" y2="8.00472" gradientUnits="userSpaceOnUse">
<stop stop-color="#FF0000"/>
<stop offset="1" stop-color="#FFFF00"/>
</linearGradient>
<linearGradient id="paint10_linear_6863_64450" x1="19.2066" y1="8.8572" x2="18.9774" y2="8.82332" gradientUnits="userSpaceOnUse">
<stop stop-color="#FF0000"/>
<stop offset="1" stop-color="#FFFF00"/>
</linearGradient>
<linearGradient id="paint11_linear_6863_64450" x1="19.211" y1="9.68093" x2="18.9818" y2="9.64705" gradientUnits="userSpaceOnUse">
<stop stop-color="#FF0000"/>
<stop offset="1" stop-color="#FFFF00"/>
</linearGradient>
<clipPath id="clip0_6863_64450">
<rect width="6.40435" height="7" fill="white" transform="translate(15 5)"/>
</clipPath>
</defs>
</svg>
