<svg width="48" height="48" fill="none" xmlns="http://www.w3.org/2000/svg"><rect width="48" height="48" rx="8" fill="#FF6444"/><path fill-rule="evenodd" clip-rule="evenodd" d="M31 16h-4.18c-.42-1.16-1.52-2-2.82-2-1.3 0-2.4.84-2.82 2H17c-1.1 0-2 .9-2 2v14c0 1.1.9 2 2 2h14c1.1 0 2-.9 2-2V18c0-1.1-.9-2-2-2zm-7 0c.55 0 1 .45 1 1s-.45 1-1 1-1-.45-1-1 .45-1 1-1zm-5.3 10.7 2.59 2.59c.39.39 1.03.39 1.41 0l6.59-6.59a.996.996 0 1 0-1.41-1.41L22 27.17l-1.89-1.88a.996.996 0 1 0-1.41 1.41z" fill="#fff"/></svg>