<svg width="48" height="48" fill="none" xmlns="http://www.w3.org/2000/svg"><rect width="48" height="48" rx="8" fill="#98BE71"/><path fill-rule="evenodd" clip-rule="evenodd" d="M32 16H16c-.55 0-1 .45-1 1v2c0 .55.45 1 1 1h16c.55 0 1-.45 1-1v-2c0-.55-.45-1-1-1zm-16 6h16c.55 0 1 .45 1 1v1c0 .55-.45 1-1 1H16c-.55 0-1-.45-1-1v-1c0-.55.45-1 1-1zm0 5h16c.55 0 1 .45 1 1s-.45 1-1 1H16c-.55 0-1-.45-1-1s.45-1 1-1zm-.5 4h17c.28 0 .5.22.5.5s-.22.5-.5.5h-17c-.28 0-.5-.22-.5-.5s.22-.5.5-.5z" fill="#fff"/></svg>