<svg width="48" height="48" fill="none" xmlns="http://www.w3.org/2000/svg"><rect width="48" height="48" rx="8" fill="#FFB22A"/><path d="M24 14c-5.52 0-10 4.48-10 10s4.48 10 10 10 10-4.48 10-10-4.48-10-10-10zm7.46 7.12-2.78 1.15a4.982 4.982 0 0 0-2.95-2.94l1.15-2.78c2.1.8 3.77 2.47 4.58 4.57zM24 27c-1.66 0-3-1.34-3-3s1.34-3 3-3 3 1.34 3 3-1.34 3-3 3zm-2.87-10.46 1.17 2.78a5 5 0 0 0-2.98 2.97l-2.78-1.16a7.984 7.984 0 0 1 4.59-4.59zm-4.59 10.33 2.78-1.15a4.968 4.968 0 0 0 2.97 2.96l-1.17 2.78a7.996 7.996 0 0 1-4.58-4.59zm10.34 4.59-1.15-2.78a4.978 4.978 0 0 0 2.95-2.97l2.78 1.17a8.007 8.007 0 0 1-4.58 4.58z" fill="#fff"/></svg>