<svg width="32" height="32" viewBox="0 0 32 32" fill="none" xmlns="http://www.w3.org/2000/svg">
<path fill-rule="evenodd" clip-rule="evenodd" d="M26 0C29.3137 0 32 2.68627 32 6V26C32 29.3137 29.3137 32 26 32H6C2.68627 32 0 29.3137 0 26V6C0 2.68627 2.68627 0 6 0H26Z" fill="#33658A"/>
<path d="M24.63 9.20659L19.2967 5.33325H12.7034L7.37004 9.20659L5.33337 15.4766L7.37004 21.7466L12.7034 25.6199H19.2967L24.63 21.7466L26.6667 15.4766L24.63 9.20659ZM18.2767 24.0799H13.7334V19.6099H18.2767V24.0799ZM13.7334 18.0666V12.8899H18.2767V18.0666H13.7334ZM13.7334 6.87658H18.2767V11.3466H13.7334V6.87658ZM19.82 12.8899H24.2034L25.0434 15.4766L24.2034 18.0633H19.82V12.8866V12.8899ZM23.7034 11.3466H19.82V7.61992L23.3167 10.1599L23.7034 11.3466ZM12.1934 7.61325V11.3466H8.30004L8.68671 10.1599L12.1967 7.60992L12.1934 7.61325ZM7.79671 12.8899H12.1934V18.0666H7.79671L6.95671 15.4799L7.79671 12.8933V12.8899ZM8.29671 19.6099H12.19V23.3433L8.68004 20.7933L8.29671 19.6066V19.6099ZM19.82 23.3366V19.6099H23.7034L23.3167 20.7966L19.82 23.3366Z" fill="white"/>
</svg>
