<svg width="48" height="48" viewBox="0 0 48 48" fill="none" xmlns="http://www.w3.org/2000/svg">
<path fill-rule="evenodd" clip-rule="evenodd" d="M17 20C13.6863 20 11 22.6863 11 26C11 29.3137 13.6863 32 17 32C20.3137 32 23 29.3137 23 26C23 22.6863 20.3137 20 17 20ZM9 26C9 21.5817 12.5817 18 17 18C21.4183 18 25 21.5817 25 26C25 30.4183 21.4183 34 17 34C12.5817 34 9 30.4183 9 26Z" fill="#414652"/>
<path fill-rule="evenodd" clip-rule="evenodd" d="M13 31C13.5523 31 14 31.4477 14 32V43.3736C14.0013 43.3743 14.0025 43.3749 14.0034 43.3753C14.429 43.16 14.8542 42.9474 15.277 42.7359C15.7024 42.5233 16.126 42.3114 16.5486 42.0977C16.8314 41.9546 17.1653 41.9541 17.4486 42.0963L20 43.377V32C20 31.4477 20.4477 31 21 31C21.5523 31 22 31.4477 22 32V43.38C22 44.8561 20.4425 45.8423 19.0998 45.1629C19.099 45.1625 19.0982 45.1621 19.0975 45.1618L17.0009 44.1094C16.7243 44.2484 16.4481 44.3865 16.1729 44.5241C15.7475 44.7368 15.324 44.9486 14.9014 45.1623L14.8972 45.1644C13.5829 45.8216 12 44.8752 12 43.38V32C12 31.4477 12.4477 31 13 31Z" fill="#414652"/>
<path fill-rule="evenodd" clip-rule="evenodd" d="M16.4446 8.16843C16.7806 7.94403 17.2185 7.94384 17.5547 8.16795C18.7577 8.96994 20.9904 9.82711 23.4033 10.5917C25.7792 11.3446 28.2074 11.971 29.7165 12.3384C31.0682 12.6688 32 13.8734 32 15.25V28.83C32 37.0284 25.6048 40.9117 21.3663 42.5805C20.8525 42.7828 20.2719 42.5302 20.0695 42.0163C19.8672 41.5025 20.1198 40.9219 20.6337 40.7195C24.6752 39.1283 30 35.7316 30 28.83V15.25C30 14.7868 29.691 14.3912 29.2429 14.2815C27.712 13.9088 25.2355 13.2703 22.7992 12.4983C20.6804 11.8269 18.4934 11.025 17.0006 10.1732C15.504 11.0291 13.3157 11.8314 11.1968 12.5021C8.76231 13.2727 6.28904 13.9086 4.7586 14.2811C4.31395 14.3917 4 14.7922 4 15.25V28.83C4 35.7316 9.32484 39.1283 13.3663 40.7195C13.8802 40.9219 14.1328 41.5025 13.9305 42.0163C13.7281 42.5302 13.1475 42.7828 12.6337 42.5805C8.39516 40.9117 2 37.0284 2 28.83V15.25C2 13.8683 2.94541 12.6691 4.28003 12.3392L4.28348 12.3384C5.79321 11.9709 8.2188 11.3469 10.5932 10.5954C13.0045 9.83213 15.237 8.97502 16.4446 8.16843Z" fill="#414652"/>
<path fill-rule="evenodd" clip-rule="evenodd" d="M17 24C15.8954 24 15 24.8954 15 26C15 27.1046 15.8954 28 17 28C18.1046 28 19 27.1046 19 26C19 24.8954 18.1046 24 17 24ZM13 26C13 23.7909 14.7909 22 17 22C19.2091 22 21 23.7909 21 26C21 28.2091 19.2091 30 17 30C14.7909 30 13 28.2091 13 26Z" fill="#414652"/>
<path d="M39.5 4C41.98 4 44 6.02 44 8.5C44 10.98 41.98 13 39.5 13C37.02 13 35 10.98 35 8.5C35 6.02 37.02 4 39.5 4ZM39.5 2C35.91 2 33 4.91 33 8.5C33 12.09 35.91 15 39.5 15C43.09 15 46 12.09 46 8.5C46 4.91 43.09 2 39.5 2Z" fill="#414652"/>
<path fill-rule="evenodd" clip-rule="evenodd" d="M40.2929 7.29289C40.6834 6.90237 41.3166 6.90237 41.7071 7.29289C42.0976 7.68342 42.0976 8.31658 41.7071 8.70711L39.7071 10.7071C39.3166 11.0976 38.6834 11.0976 38.2929 10.7071L37.2929 9.70711C36.9024 9.31658 36.9024 8.68342 37.2929 8.29289C37.6834 7.90237 38.3166 7.90237 38.7071 8.29289L39 8.58579L40.2929 7.29289Z" fill="#414652"/>
</svg>
