<svg width="25" height="24" viewBox="0 0 25 24" fill="none" xmlns="http://www.w3.org/2000/svg">
<path d="M12.3169 7.15385C13.1052 7.15385 14.0932 6.60458 14.6817 5.87222C15.2145 5.20852 15.6031 4.28163 15.6031 3.35474C15.6031 3.22886 15.592 3.10299 15.5698 3C14.6928 3.03433 13.6381 3.60648 13.0053 4.37317C12.5057 4.95677 12.0505 5.87222 12.0505 6.81055C12.0505 6.94787 12.0727 7.08519 12.0838 7.13096C12.1393 7.1424 12.2281 7.15385 12.3169 7.15385ZM9.54144 21C10.6183 21 11.0957 20.2562 12.4391 20.2562C13.8046 20.2562 14.1044 20.9771 15.3034 20.9771C16.4802 20.9771 17.2684 19.8557 18.0122 18.7572C18.8449 17.4984 19.1891 16.2626 19.2113 16.2053C19.1335 16.1825 16.8798 15.2327 16.8798 12.5664C16.8798 10.2549 18.6562 9.2136 18.7561 9.1335C17.5793 7.39415 15.7919 7.34838 15.3034 7.34838C13.9822 7.34838 12.9053 8.17228 12.2281 8.17228C11.4954 8.17228 10.5295 7.39415 9.38601 7.39415C7.21003 7.39415 5.00073 9.24793 5.00073 12.7495C5.00073 14.9237 5.82228 17.2238 6.83256 18.7114C7.69851 19.9701 8.45345 21 9.54144 21Z" fill="white"/>
</svg>
