<svg width="25" height="24" viewBox="0 0 25 24" fill="none" xmlns="http://www.w3.org/2000/svg">
<path d="M4.99994 0C2.51469 0 0.5 2.01469 0.5 4.49994V4.63068L22.9355 1.08949C22.1475 0.410504 21.1216 0 19.9997 0H4.99994Z" fill="#E12E3A"/>
<path d="M23.3986 1.55079L19.283 23.9997H19.9997C22.485 23.9997 24.4997 21.985 24.4997 19.4997V4.49994C24.4997 3.37178 24.0845 2.34058 23.3986 1.55079Z" fill="#E12E3A"/>
<path fill-rule="evenodd" clip-rule="evenodd" d="M19.283 23.9997L4.99994 24C2.51469 24 0.5 21.9853 0.5 19.5001V4.63068L22.9355 1.08949C23.1008 1.23189 23.2556 1.38609 23.3986 1.55079L19.283 23.9997Z" fill="#FF444F"/>
<path d="M9.31754 9.63226C8.55454 9.63226 8.00154 9.84576 7.65854 10.2728C7.32254 10.6928 7.15454 11.2703 7.15454 12.0053C7.15454 12.3623 7.19654 12.6878 7.28054 12.9818C7.36454 13.2688 7.49054 13.5173 7.65854 13.7273C7.82654 13.9373 8.03654 14.1018 8.28854 14.2208C8.54054 14.3328 8.83454 14.3888 9.17054 14.3888C9.35254 14.3888 9.50654 14.3853 9.63254 14.3783C9.76554 14.3713 9.88104 14.3573 9.97904 14.3363V11.8058H11.617V15.4073C11.421 15.4843 11.106 15.5648 10.672 15.6488C10.238 15.7398 9.70254 15.7853 9.06554 15.7853C8.51954 15.7853 8.02254 15.7013 7.57454 15.5333C7.13354 15.3653 6.75554 15.1203 6.44054 14.7983C6.12554 14.4763 5.88054 14.0808 5.70554 13.6118C5.53754 13.1428 5.45354 12.6073 5.45354 12.0053C5.45354 11.3963 5.54804 10.8573 5.73704 10.3883C5.92604 9.91926 6.18504 9.52376 6.51404 9.20176C6.84304 8.87276 7.22804 8.62426 7.66904 8.45626C8.11704 8.28826 8.59304 8.20426 9.09704 8.20426C9.44004 8.20426 9.74804 8.22876 10.021 8.27776C10.301 8.31976 10.539 8.37226 10.735 8.43526C10.938 8.49126 11.1025 8.55076 11.2285 8.61376C11.3615 8.67676 11.456 8.72576 11.512 8.76076L11.0395 10.0733C10.8155 9.95426 10.5565 9.85276 10.2625 9.76876C9.97554 9.67776 9.66054 9.63226 9.31754 9.63226Z" fill="white"/>
<path d="M13.9916 12.0053C13.9916 12.3623 14.0336 12.6843 14.1176 12.9713C14.2086 13.2583 14.3346 13.5068 14.4956 13.7168C14.6636 13.9198 14.8666 14.0773 15.1046 14.1893C15.3426 14.3013 15.6156 14.3573 15.9236 14.3573C16.2246 14.3573 16.4941 14.3013 16.7321 14.1893C16.9771 14.0773 17.1801 13.9198 17.3411 13.7168C17.5091 13.5068 17.6351 13.2583 17.7191 12.9713C17.8101 12.6843 17.8556 12.3623 17.8556 12.0053C17.8556 11.6483 17.8101 11.3263 17.7191 11.0393C17.6351 10.7453 17.5091 10.4968 17.3411 10.2938C17.1801 10.0838 16.9771 9.92276 16.7321 9.81076C16.4941 9.69876 16.2246 9.64276 15.9236 9.64276C15.6156 9.64276 15.3426 9.70226 15.1046 9.82126C14.8666 9.93326 14.6636 10.0943 14.4956 10.3043C14.3346 10.5073 14.2086 10.7558 14.1176 11.0498C14.0336 11.3368 13.9916 11.6553 13.9916 12.0053ZM19.5461 12.0053C19.5461 12.6283 19.4516 13.1778 19.2626 13.6538C19.0806 14.1228 18.8286 14.5183 18.5066 14.8403C18.1846 15.1553 17.7996 15.3933 17.3516 15.5543C16.9106 15.7153 16.4346 15.7958 15.9236 15.7958C15.4266 15.7958 14.9576 15.7153 14.5166 15.5543C14.0756 15.3933 13.6906 15.1553 13.3616 14.8403C13.0326 14.5183 12.7736 14.1228 12.5846 13.6538C12.3956 13.1778 12.3011 12.6283 12.3011 12.0053C12.3011 11.3823 12.3991 10.8363 12.5951 10.3673C12.7911 9.89126 13.0536 9.49226 13.3826 9.17026C13.7186 8.84826 14.1036 8.60676 14.5376 8.44576C14.9786 8.28476 15.4406 8.20426 15.9236 8.20426C16.4206 8.20426 16.8896 8.28476 17.3306 8.44576C17.7716 8.60676 18.1566 8.84826 18.4856 9.17026C18.8146 9.49226 19.0736 9.89126 19.2626 10.3673C19.4516 10.8363 19.5461 11.3823 19.5461 12.0053Z" fill="white"/>
</svg>
