<svg xmlns="http://www.w3.org/2000/svg" width="32" height="32"><defs><linearGradient id="a" x1="63.183%" x2="44.397%" y1="-9.798%" y2="101.954%"><stop offset="0%" stop-color="#F26447"/><stop offset="100%" stop-color="#EF4852"/></linearGradient></defs><g fill="none"><path fill="#1A1A1A" d="M0 6a6 6 0 0 1 6-6h20a6 6 0 0 1 6 6v20a6 6 0 0 1-6 6H6a6 6 0 0 1-6-6V6z"/><path fill="url(#a)" d="m6.705 10.5 4.212 5.5-6.75 5.5h6.822a4.278 4.278 0 0 0 4.167-3.316l.565-2.447a4.288 4.288 0 0 0-.82-3.624 4.278 4.278 0 0 0-3.347-1.613H6.705z"/><path fill="#CC2F3E" d="m10.917 16-3 5.5h-3.75z"/><path fill="#FFF" d="M20.526 10.5H17.27l2.563 5.5-4.503 5.5h3.258l4.501-5.5zm4.176 0h3.295l-3.907 4.726-1.181-2.535zm-1.941 11-1.02-2.189 2.076-2.536 2.201 4.725z"/></g></svg>