<svg width="24" height="24" viewBox="0 0 24 24" fill="none" xmlns="http://www.w3.org/2000/svg">
<path d="M4.49994 0C2.01469 0 0 2.01469 0 4.49994V4.63068L22.4355 1.08949C21.6475 0.410504 20.6216 0 19.4997 0H4.49994Z" fill="#E12E3A"/>
<path d="M22.8986 1.55079L18.783 23.9997H19.4997C21.985 23.9997 23.9997 21.985 23.9997 19.4997V4.49994C23.9997 3.37178 23.5845 2.34058 22.8986 1.55079Z" fill="#E12E3A"/>
<path fill-rule="evenodd" clip-rule="evenodd" d="M18.783 23.9997L4.49994 24C2.01469 24 0 21.9853 0 19.5001V4.63068L22.4355 1.08949C22.6008 1.23189 22.7556 1.38609 22.8986 1.55079L18.783 23.9997Z" fill="#FF444F"/>
<path d="M7.15819 14.2995C7.23519 14.3065 7.32269 14.3135 7.42069 14.3205C7.52569 14.3205 7.64819 14.3205 7.78819 14.3205C8.60719 14.3205 9.21269 14.114 9.60469 13.701C10.0037 13.288 10.2032 12.7175 10.2032 11.9895C10.2032 11.2265 10.0142 10.649 9.63619 10.257C9.25819 9.865 8.65969 9.669 7.84069 9.669C7.72869 9.669 7.61319 9.6725 7.49419 9.6795C7.37519 9.6795 7.26319 9.6865 7.15819 9.7005V14.2995ZM11.8937 11.9895C11.8937 12.6195 11.7957 13.169 11.5997 13.638C11.4037 14.107 11.1237 14.4955 10.7597 14.8035C10.4027 15.1115 9.96519 15.3425 9.44719 15.4965C8.92919 15.6505 8.34819 15.7275 7.70419 15.7275C7.41019 15.7275 7.06719 15.7135 6.67519 15.6855C6.28319 15.6645 5.89819 15.6155 5.52019 15.5385V8.451C5.89819 8.381 6.29019 8.3355 6.69619 8.3145C7.10919 8.2865 7.46269 8.2725 7.75669 8.2725C8.37969 8.2725 8.94319 8.3425 9.44719 8.4825C9.95819 8.6225 10.3957 8.843 10.7597 9.144C11.1237 9.445 11.4037 9.83 11.5997 10.299C11.7957 10.768 11.8937 11.3315 11.8937 11.9895Z" fill="white"/>
<path d="M16.516 15.633C16.313 15.227 16.089 14.8175 15.844 14.4045C15.606 13.9845 15.3295 13.5575 15.0145 13.1235C14.9165 13.2495 14.7905 13.4245 14.6365 13.6485C14.4895 13.8725 14.339 14.1105 14.185 14.3625C14.038 14.6145 13.898 14.856 13.765 15.087C13.632 15.318 13.534 15.5 13.471 15.633H11.602C11.91 15.066 12.267 14.471 12.673 13.848C13.086 13.225 13.5445 12.5635 14.0485 11.8635L11.707 8.3565H13.6915L15.109 10.6245L16.495 8.3565H18.364L16.054 11.8845C16.642 12.6475 17.1355 13.3545 17.5345 14.0055C17.9335 14.6495 18.2485 15.192 18.4795 15.633H16.516Z" fill="white"/>
</svg>
