<svg width="24" height="24" viewBox="0 0 24 24" fill="none" xmlns="http://www.w3.org/2000/svg">
<path d="M21.5469 12.2018C21.5469 11.5183 21.4853 10.8349 21.3676 10.1626H11.9727V14.0169H17.3396C17.1155 15.2494 16.3984 16.3363 15.3508 17.0253L18.5721 19.5295C20.4601 17.7929 21.5469 15.2382 21.5469 12.2018Z" fill="#3E82F1"/>
<path d="M15.3499 17.0254C14.4592 17.6248 13.3163 17.9778 11.9718 17.9778C9.37232 17.9778 7.17624 16.2243 6.39193 13.8657L3.05859 16.4484C4.75047 19.8153 8.20145 21.9442 11.9718 21.9386C14.6664 21.9386 16.9241 21.0478 18.5712 19.524L15.3499 17.0254Z" fill="#32A753"/>
<path d="M6.39216 10.0782L3.05882 7.49561C1.64706 10.3135 1.64706 13.6357 3.05882 16.4536L6.39216 13.871C5.97759 12.6385 5.97759 11.3051 6.39216 10.0782Z" fill="#F9BB00"/>
<path d="M11.9718 2C8.20145 2 4.75047 4.12885 3.05859 7.4958L6.39193 10.0784C7.17624 7.71989 9.37232 5.96639 11.9718 5.96639C13.4339 5.96639 14.7505 6.47059 15.7813 7.45658L18.644 4.59384C16.9185 2.98599 14.6608 2 11.9718 2Z" fill="#E74133"/>
</svg>
