<svg width="40" height="40" fill="none" xmlns="http://www.w3.org/2000/svg"><rect width="40" height="40" rx="4" fill="#F2F3F4"/><path d="M30 20.234c0-.686-.064-1.371-.184-2.046h-9.613v3.867h5.491a4.589 4.589 0 0 1-2.035 3.017l3.296 2.512C28.887 25.842 30 23.28 30 20.234Z" fill="#3E82F1"/><path d="M23.66 25.074c-.91.601-2.08.955-3.456.955-2.66 0-4.907-1.759-5.71-4.125l-3.41 2.59c1.731 3.378 5.262 5.514 9.12 5.508 2.757 0 5.067-.893 6.753-2.422l-3.296-2.506Z" fill="#32A753"/><path d="m14.494 18.103-3.41-2.59a9.858 9.858 0 0 0 0 8.985l3.41-2.59a5.846 5.846 0 0 1 0-3.805Z" fill="#F9BB00"/><path d="M20.204 10c-3.858 0-7.389 2.135-9.12 5.513l3.41 2.59c.803-2.365 3.05-4.124 5.71-4.124 1.496 0 2.843.505 3.898 1.494l2.93-2.871C25.265 10.989 22.955 10 20.203 10Z" fill="#E74133"/></svg>