<svg width="24" height="24" viewBox="0 0 24 24" fill="none" xmlns="http://www.w3.org/2000/svg">
<g clip-path="url(#clip0_771_37745)">
<path fill-rule="evenodd" clip-rule="evenodd" d="M4.56727 0.774843L11.8106 8.01461C11.9161 8.12014 12.0869 8.12026 12.1925 8.01473L19.4324 0.774843C20.4705 -0.263327 22.1565 -0.263327 23.1947 0.774843L23.223 0.803083C24.2611 1.84125 24.2611 3.52726 23.223 4.56543L15.9552 11.8332C15.8747 11.939 15.8829 12.0904 15.9795 12.1871L23.2194 19.427C24.2576 20.4652 24.2576 22.1512 23.2194 23.1893L23.1912 23.2176C22.153 24.2558 20.467 24.2558 19.4288 23.2176L12.1889 15.9777C12.0834 15.8722 11.9127 15.8722 11.8072 15.9777L4.56727 23.2176C3.5291 24.2558 1.84308 24.2558 0.804914 23.2176L0.776674 23.1893C-0.261496 22.1512 -0.261496 20.4652 0.776674 19.427L8.01656 12.1871C8.12209 12.0816 8.12209 11.9108 8.01656 11.8053L0.776674 4.56543C-0.261496 3.52726 -0.261496 1.84125 0.776674 0.803083L0.804914 0.774843C1.84304 -0.263286 3.52909 -0.263205 4.56727 0.774843ZM3.56885 1.77326C3.08209 1.2865 2.29009 1.2865 1.80333 1.77326L1.77509 1.8015C1.28833 2.28826 1.28833 3.08026 1.77509 3.56702L9.01498 10.8069C9.67192 11.4638 9.67192 12.5286 9.01498 13.1855L1.77509 20.4254C1.28833 20.9122 1.28833 21.7042 1.77509 22.1909L1.80333 22.2192C2.29009 22.7059 3.08209 22.7059 3.56885 22.2192L10.8087 14.9793C11.4657 14.3223 12.5304 14.3223 13.1874 14.9793L20.4272 22.2192C20.914 22.7059 21.706 22.7059 22.1928 22.2192L22.221 22.1909C22.7078 21.7042 22.7078 20.9122 22.221 20.4254L14.9811 13.1855C14.3242 12.5286 14.3242 11.4638 14.9811 10.8069L15.1879 10.6001H15.1914L22.2245 3.56702C22.7113 3.08026 22.7113 2.28826 22.2245 1.8015L22.1963 1.77326C21.7095 1.2865 20.9175 1.2865 20.4308 1.77326L13.1909 9.01315C12.534 9.67004 11.4693 9.67008 10.8124 9.01327L3.56885 1.77326Z" fill="#414652"/>
</g>
<defs>
<clipPath id="clip0_771_37745">
<rect width="24" height="24" fill="white"/>
</clipPath>
</defs>
</svg>
