<svg width="406" height="40" viewBox="0 0 406 40" fill="none" xmlns="http://www.w3.org/2000/svg">
<rect width="406" height="40" rx="16" fill="black"/>
<path d="M136.317 15.1538C137.105 15.1538 138.093 14.6046 138.682 13.8722C139.215 13.2085 139.603 12.2816 139.603 11.3547C139.603 11.2289 139.592 11.103 139.57 11C138.693 11.0343 137.638 11.6065 137.005 12.3732C136.506 12.9568 136.05 13.8722 136.05 14.8106C136.05 14.9479 136.073 15.0852 136.084 15.131C136.139 15.1424 136.228 15.1538 136.317 15.1538ZM133.541 29C134.618 29 135.096 28.2562 136.439 28.2562C137.805 28.2562 138.104 28.9771 139.303 28.9771C140.48 28.9771 141.268 27.8557 142.012 26.7572C142.845 25.4984 143.189 24.2626 143.211 24.2053C143.134 24.1825 140.88 23.2327 140.88 20.5664C140.88 18.2549 142.656 17.2136 142.756 17.1335C141.579 15.3942 139.792 15.3484 139.303 15.3484C137.982 15.3484 136.905 16.1723 136.228 16.1723C135.495 16.1723 134.53 15.3942 133.386 15.3942C131.21 15.3942 129.001 17.2479 129.001 20.7495C129.001 22.9237 129.822 25.2238 130.833 26.7114C131.699 27.9701 132.453 29 133.541 29Z" fill="white"/>
<path d="M160.456 23.334C160.764 23.334 161.016 23.3107 161.212 23.264C161.418 23.208 161.581 23.138 161.702 23.054C161.824 22.9607 161.908 22.8533 161.954 22.732C162.001 22.6107 162.024 22.4753 162.024 22.326C162.024 22.0087 161.875 21.7473 161.576 21.542C161.278 21.3273 160.764 21.0987 160.036 20.856C159.719 20.744 159.402 20.618 159.084 20.478C158.767 20.3287 158.482 20.1467 158.23 19.932C157.978 19.708 157.773 19.442 157.614 19.134C157.456 18.8167 157.376 18.434 157.376 17.986C157.376 17.538 157.46 17.1367 157.628 16.782C157.796 16.418 158.034 16.11 158.342 15.858C158.65 15.606 159.024 15.4147 159.462 15.284C159.901 15.144 160.396 15.074 160.946 15.074C161.6 15.074 162.164 15.144 162.64 15.284C163.116 15.424 163.508 15.578 163.816 15.746L163.186 17.468C162.916 17.328 162.612 17.2067 162.276 17.104C161.95 16.992 161.553 16.936 161.086 16.936C160.564 16.936 160.186 17.0107 159.952 17.16C159.728 17.3 159.616 17.5193 159.616 17.818C159.616 17.9953 159.658 18.1447 159.742 18.266C159.826 18.3873 159.943 18.4993 160.092 18.602C160.251 18.6953 160.428 18.784 160.624 18.868C160.83 18.9427 161.054 19.022 161.296 19.106C161.8 19.2927 162.239 19.4793 162.612 19.666C162.986 19.8433 163.294 20.0533 163.536 20.296C163.788 20.5387 163.975 20.8233 164.096 21.15C164.218 21.4767 164.278 21.8733 164.278 22.34C164.278 23.2453 163.961 23.95 163.326 24.454C162.692 24.9487 161.735 25.196 160.456 25.196C160.027 25.196 159.64 25.168 159.294 25.112C158.949 25.0653 158.641 25.0047 158.37 24.93C158.109 24.8553 157.88 24.776 157.684 24.692C157.498 24.608 157.339 24.5287 157.208 24.454L157.824 22.718C158.114 22.8767 158.468 23.0213 158.888 23.152C159.318 23.2733 159.84 23.334 160.456 23.334ZM167.905 25H165.819V17.636H167.905V25ZM168.101 15.508C168.101 15.8907 167.975 16.194 167.723 16.418C167.48 16.6327 167.191 16.74 166.855 16.74C166.519 16.74 166.225 16.6327 165.973 16.418C165.73 16.194 165.609 15.8907 165.609 15.508C165.609 15.1253 165.73 14.8267 165.973 14.612C166.225 14.388 166.519 14.276 166.855 14.276C167.191 14.276 167.48 14.388 167.723 14.612C167.975 14.8267 168.101 15.1253 168.101 15.508ZM171.644 21.08C171.644 22.2467 172.115 22.83 173.058 22.83C173.272 22.83 173.473 22.802 173.66 22.746C173.846 22.69 174.005 22.6247 174.136 22.55V19.218C174.033 19.1993 173.912 19.1853 173.772 19.176C173.632 19.1573 173.468 19.148 173.282 19.148C172.731 19.148 172.32 19.33 172.05 19.694C171.779 20.058 171.644 20.52 171.644 21.08ZM176.222 24.076C176.222 25.28 175.914 26.1713 175.298 26.75C174.691 27.338 173.748 27.632 172.47 27.632C172.022 27.632 171.574 27.59 171.126 27.506C170.678 27.4313 170.262 27.3287 169.88 27.198L170.244 25.448C170.57 25.5787 170.911 25.6813 171.266 25.756C171.63 25.8307 172.04 25.868 172.498 25.868C173.095 25.868 173.515 25.7373 173.758 25.476C174.01 25.2147 174.136 24.8787 174.136 24.468V24.202C173.912 24.3047 173.678 24.384 173.436 24.44C173.202 24.4867 172.946 24.51 172.666 24.51C171.648 24.51 170.869 24.2113 170.328 23.614C169.786 23.0073 169.516 22.1627 169.516 21.08C169.516 20.5387 169.6 20.0487 169.768 19.61C169.936 19.162 170.178 18.7793 170.496 18.462C170.822 18.1447 171.219 17.902 171.686 17.734C172.152 17.5567 172.68 17.468 173.268 17.468C173.52 17.468 173.776 17.482 174.038 17.51C174.308 17.5287 174.574 17.5567 174.836 17.594C175.097 17.6313 175.344 17.678 175.578 17.734C175.82 17.7807 176.035 17.832 176.222 17.888V24.076ZM178.178 17.888C178.533 17.7853 178.99 17.692 179.55 17.608C180.11 17.5147 180.698 17.468 181.314 17.468C181.94 17.468 182.458 17.552 182.868 17.72C183.288 17.8787 183.62 18.1073 183.862 18.406C184.105 18.7047 184.278 19.0593 184.38 19.47C184.483 19.8807 184.534 20.338 184.534 20.842V25H182.448V21.094C182.448 20.422 182.36 19.946 182.182 19.666C182.005 19.386 181.674 19.246 181.188 19.246C181.039 19.246 180.88 19.2553 180.712 19.274C180.544 19.2833 180.395 19.2973 180.264 19.316V25H178.178V17.888ZM196.072 24.748C195.717 24.8507 195.26 24.944 194.7 25.028C194.14 25.1213 193.552 25.168 192.936 25.168C192.31 25.168 191.788 25.084 191.368 24.916C190.957 24.748 190.63 24.5147 190.388 24.216C190.145 23.908 189.972 23.544 189.87 23.124C189.767 22.704 189.716 22.242 189.716 21.738V17.636H191.802V21.486C191.802 22.158 191.89 22.6433 192.068 22.942C192.245 23.2407 192.576 23.39 193.062 23.39C193.211 23.39 193.37 23.3853 193.538 23.376C193.706 23.3573 193.855 23.3387 193.986 23.32V17.636H196.072V24.748ZM202.748 21.374C202.748 20.73 202.603 20.2167 202.314 19.834C202.024 19.442 201.595 19.246 201.026 19.246C200.839 19.246 200.666 19.2553 200.508 19.274C200.349 19.2833 200.218 19.2973 200.116 19.316V23.082C200.246 23.166 200.414 23.236 200.62 23.292C200.834 23.348 201.049 23.376 201.264 23.376C202.253 23.376 202.748 22.7087 202.748 21.374ZM204.876 21.318C204.876 21.8873 204.806 22.4053 204.666 22.872C204.526 23.3387 204.32 23.74 204.05 24.076C203.779 24.412 203.443 24.6733 203.042 24.86C202.64 25.0467 202.178 25.14 201.656 25.14C201.366 25.14 201.096 25.112 200.844 25.056C200.592 25 200.349 24.9207 200.116 24.818V27.59H198.03V17.888C198.216 17.832 198.431 17.7807 198.674 17.734C198.916 17.678 199.168 17.6313 199.43 17.594C199.7 17.5567 199.971 17.5287 200.242 17.51C200.522 17.482 200.788 17.468 201.04 17.468C201.646 17.468 202.188 17.5613 202.664 17.748C203.14 17.9253 203.541 18.182 203.868 18.518C204.194 18.8447 204.442 19.246 204.61 19.722C204.787 20.198 204.876 20.73 204.876 21.318ZM214.322 20.772C214.136 21.4813 213.935 22.186 213.72 22.886C213.515 23.586 213.296 24.2907 213.062 25H211.438C211.27 24.608 211.088 24.1413 210.892 23.6C210.696 23.0587 210.491 22.4707 210.276 21.836C210.071 21.192 209.856 20.5153 209.632 19.806C209.418 19.0873 209.208 18.364 209.002 17.636H211.2C211.275 17.972 211.354 18.3407 211.438 18.742C211.532 19.134 211.625 19.54 211.718 19.96C211.821 20.38 211.924 20.8047 212.026 21.234C212.138 21.654 212.25 22.06 212.362 22.452C212.484 22.0413 212.6 21.6213 212.712 21.192C212.834 20.7627 212.946 20.3427 213.048 19.932C213.16 19.512 213.263 19.1107 213.356 18.728C213.459 18.336 213.548 17.972 213.622 17.636H215.134C215.209 17.972 215.293 18.336 215.386 18.728C215.48 19.1107 215.578 19.512 215.68 19.932C215.783 20.3427 215.89 20.7627 216.002 21.192C216.114 21.6213 216.231 22.0413 216.352 22.452C216.464 22.06 216.576 21.654 216.688 21.234C216.8 20.8047 216.903 20.38 216.996 19.96C217.099 19.54 217.192 19.134 217.276 18.742C217.37 18.3407 217.454 17.972 217.528 17.636H219.698C219.493 18.364 219.278 19.0873 219.054 19.806C218.84 20.5153 218.625 21.192 218.41 21.836C218.205 22.4707 218 23.0587 217.794 23.6C217.598 24.1413 217.416 24.608 217.248 25H215.624C215.391 24.2907 215.162 23.586 214.938 22.886C214.714 22.186 214.509 21.4813 214.322 20.772ZM222.907 25H220.821V17.636H222.907V25ZM223.103 15.508C223.103 15.8907 222.977 16.194 222.725 16.418C222.482 16.6327 222.193 16.74 221.857 16.74C221.521 16.74 221.227 16.6327 220.975 16.418C220.732 16.194 220.611 15.8907 220.611 15.508C220.611 15.1253 220.732 14.8267 220.975 14.612C221.227 14.388 221.521 14.276 221.857 14.276C222.193 14.276 222.482 14.388 222.725 14.612C222.977 14.8267 223.103 15.1253 223.103 15.508ZM224.798 15.802L226.884 15.466V17.636H229.39V19.372H226.884V21.962C226.884 22.4007 226.958 22.7507 227.108 23.012C227.266 23.2733 227.579 23.404 228.046 23.404C228.27 23.404 228.498 23.3853 228.732 23.348C228.974 23.3013 229.194 23.2407 229.39 23.166L229.684 24.79C229.432 24.8927 229.152 24.9813 228.844 25.056C228.536 25.1307 228.158 25.168 227.71 25.168C227.14 25.168 226.669 25.0933 226.296 24.944C225.922 24.7853 225.624 24.5707 225.4 24.3C225.176 24.02 225.017 23.684 224.924 23.292C224.84 22.9 224.798 22.466 224.798 21.99V15.802ZM231.088 25V14.472L233.174 14.136V17.664C233.314 17.6173 233.492 17.5753 233.706 17.538C233.93 17.4913 234.145 17.468 234.35 17.468C234.948 17.468 235.442 17.552 235.834 17.72C236.236 17.8787 236.553 18.1073 236.786 18.406C237.029 18.7047 237.197 19.0593 237.29 19.47C237.393 19.8807 237.444 20.338 237.444 20.842V25H235.358V21.094C235.358 20.422 235.27 19.946 235.092 19.666C234.924 19.386 234.607 19.246 234.14 19.246C233.954 19.246 233.776 19.2647 233.608 19.302C233.45 19.33 233.305 19.3627 233.174 19.4V25H231.088ZM249.332 25C249.229 24.664 249.112 24.3187 248.982 23.964C248.86 23.6093 248.739 23.2547 248.618 22.9H244.838C244.716 23.2547 244.59 23.6093 244.46 23.964C244.338 24.3187 244.226 24.664 244.124 25H241.856C242.22 23.9547 242.565 22.9887 242.892 22.102C243.218 21.2153 243.536 20.38 243.844 19.596C244.161 18.812 244.469 18.07 244.768 17.37C245.076 16.6607 245.393 15.97 245.72 15.298H247.806C248.123 15.97 248.436 16.6607 248.744 17.37C249.052 18.07 249.36 18.812 249.668 19.596C249.985 20.38 250.307 21.2153 250.634 22.102C250.96 22.9887 251.306 23.9547 251.67 25H249.332ZM246.714 17.496C246.667 17.636 246.597 17.8273 246.504 18.07C246.41 18.3127 246.303 18.5927 246.182 18.91C246.06 19.2273 245.925 19.5773 245.776 19.96C245.636 20.3427 245.491 20.744 245.342 21.164H248.1C247.95 20.744 247.806 20.3427 247.666 19.96C247.526 19.5773 247.39 19.2273 247.26 18.91C247.138 18.5927 247.031 18.3127 246.938 18.07C246.844 17.8273 246.77 17.636 246.714 17.496ZM257.504 21.374C257.504 20.73 257.359 20.2167 257.07 19.834C256.78 19.442 256.351 19.246 255.782 19.246C255.595 19.246 255.422 19.2553 255.264 19.274C255.105 19.2833 254.974 19.2973 254.872 19.316V23.082C255.002 23.166 255.17 23.236 255.376 23.292C255.59 23.348 255.805 23.376 256.02 23.376C257.009 23.376 257.504 22.7087 257.504 21.374ZM259.632 21.318C259.632 21.8873 259.562 22.4053 259.422 22.872C259.282 23.3387 259.076 23.74 258.806 24.076C258.535 24.412 258.199 24.6733 257.798 24.86C257.396 25.0467 256.934 25.14 256.412 25.14C256.122 25.14 255.852 25.112 255.6 25.056C255.348 25 255.105 24.9207 254.872 24.818V27.59H252.786V17.888C252.972 17.832 253.187 17.7807 253.43 17.734C253.672 17.678 253.924 17.6313 254.186 17.594C254.456 17.5567 254.727 17.5287 254.998 17.51C255.278 17.482 255.544 17.468 255.796 17.468C256.402 17.468 256.944 17.5613 257.42 17.748C257.896 17.9253 258.297 18.182 258.624 18.518C258.95 18.8447 259.198 19.246 259.366 19.722C259.543 20.198 259.632 20.73 259.632 21.318ZM265.953 21.374C265.953 20.73 265.808 20.2167 265.519 19.834C265.23 19.442 264.8 19.246 264.231 19.246C264.044 19.246 263.872 19.2553 263.713 19.274C263.554 19.2833 263.424 19.2973 263.321 19.316V23.082C263.452 23.166 263.62 23.236 263.825 23.292C264.04 23.348 264.254 23.376 264.469 23.376C265.458 23.376 265.953 22.7087 265.953 21.374ZM268.081 21.318C268.081 21.8873 268.011 22.4053 267.871 22.872C267.731 23.3387 267.526 23.74 267.255 24.076C266.984 24.412 266.648 24.6733 266.247 24.86C265.846 25.0467 265.384 25.14 264.861 25.14C264.572 25.14 264.301 25.112 264.049 25.056C263.797 25 263.554 24.9207 263.321 24.818V27.59H261.235V17.888C261.422 17.832 261.636 17.7807 261.879 17.734C262.122 17.678 262.374 17.6313 262.635 17.594C262.906 17.5567 263.176 17.5287 263.447 17.51C263.727 17.482 263.993 17.468 264.245 17.468C264.852 17.468 265.393 17.5613 265.869 17.748C266.345 17.9253 266.746 18.182 267.073 18.518C267.4 18.8447 267.647 19.246 267.815 19.722C267.992 20.198 268.081 20.73 268.081 21.318ZM272.624 25.14C272.017 25.1307 271.523 25.0653 271.14 24.944C270.767 24.8227 270.468 24.6547 270.244 24.44C270.029 24.216 269.88 23.95 269.796 23.642C269.721 23.3247 269.684 22.97 269.684 22.578V14.472L271.77 14.136V22.158C271.77 22.3447 271.784 22.5127 271.812 22.662C271.84 22.8113 271.891 22.9373 271.966 23.04C272.05 23.1427 272.167 23.2267 272.316 23.292C272.465 23.3573 272.666 23.3993 272.918 23.418L272.624 25.14ZM273.764 21.374C273.764 20.7207 273.862 20.1513 274.058 19.666C274.263 19.1713 274.529 18.7607 274.856 18.434C275.182 18.1073 275.556 17.86 275.976 17.692C276.405 17.524 276.844 17.44 277.292 17.44C278.337 17.44 279.163 17.762 279.77 18.406C280.376 19.0407 280.68 19.9787 280.68 21.22C280.68 21.3413 280.675 21.4767 280.666 21.626C280.656 21.766 280.647 21.892 280.638 22.004H275.906C275.952 22.4333 276.153 22.774 276.508 23.026C276.862 23.278 277.338 23.404 277.936 23.404C278.318 23.404 278.692 23.3713 279.056 23.306C279.429 23.2313 279.732 23.1427 279.966 23.04L280.246 24.734C280.134 24.79 279.984 24.846 279.798 24.902C279.611 24.958 279.401 25.0047 279.168 25.042C278.944 25.0887 278.701 25.126 278.44 25.154C278.178 25.182 277.917 25.196 277.656 25.196C276.993 25.196 276.414 25.098 275.92 24.902C275.434 24.706 275.028 24.44 274.702 24.104C274.384 23.7587 274.146 23.3527 273.988 22.886C273.838 22.4193 273.764 21.9153 273.764 21.374ZM278.664 20.576C278.654 20.3987 278.622 20.226 278.566 20.058C278.519 19.89 278.44 19.7407 278.328 19.61C278.225 19.4793 278.09 19.372 277.922 19.288C277.763 19.204 277.562 19.162 277.32 19.162C277.086 19.162 276.886 19.204 276.718 19.288C276.55 19.3627 276.41 19.4653 276.298 19.596C276.186 19.7267 276.097 19.8807 276.032 20.058C275.976 20.226 275.934 20.3987 275.906 20.576H278.664Z" fill="white"/>
</svg>
