<svg xmlns="http://www.w3.org/2000/svg" viewBox="0 0 72 72"><g fill="none" fill-rule="evenodd"><path fill="#2A3052" d="M13.496 0h45.008C65.957 0 72 6.043 72 13.496v45.008C72 65.957 65.957 72 58.504 72H13.496C6.043 72 0 65.957 0 58.504V13.496C0 6.043 6.043 0 13.496 0"/><path fill="#FFF" fill-rule="nonzero" d="m44.019 30.642-9.883-4.475 1.638 8.238 5.308 2.435a7.763 7.763 0 0 1 4.183 9.725 7.764 7.764 0 0 1-9.406 4.859c-.4-.097-.79-.23-1.165-.396l-5.047-2.322-7.765 3.812 10.109 4.595c7.236 2.96 15.518-.328 18.753-7.447 3.234-7.118.264-15.52-6.725-19.024z"/><path fill="#FFF" fill-rule="nonzero" d="M30.96 35.344a7.766 7.766 0 0 1 5.224-14.591c.398.1.787.232 1.164.395l5.097 2.316 7.764-3.812-10.1-4.596a14.891 14.891 0 0 0-2.33-.797c-7.24-1.746-14.631 2.254-17.13 9.27-2.5 7.015.697 14.786 7.41 18.012l9.882 4.475-1.68-8.294-5.301-2.378z"/></g></svg>