<svg width="32" height="32" viewBox="0 0 32 32" fill="none" xmlns="http://www.w3.org/2000/svg">
<g clip-path="url(#clip0_219_73880)">
<rect width="32" height="32" fill="#2A3052"/>
<path d="M30.6667 1.33325L-1.33333 6.38407L-7.2 33.3333H24.8L30.6667 1.33325Z" fill="#384177"/>
<g filter="url(#filter0_d_219_73880)">
<path d="M11.8787 19.334C12.1867 19.334 12.4387 19.3107 12.6347 19.264C12.84 19.208 13.0034 19.138 13.1247 19.054C13.246 18.9607 13.33 18.8533 13.3767 18.732C13.4234 18.6107 13.4467 18.4753 13.4467 18.326C13.4467 18.0087 13.2974 17.7473 12.9987 17.542C12.7 17.3273 12.1867 17.0987 11.4587 16.856C11.1414 16.744 10.824 16.618 10.5067 16.478C10.1894 16.3287 9.9047 16.1467 9.6527 15.932C9.4007 15.708 9.19536 15.442 9.0367 15.134C8.87803 14.8167 8.7987 14.434 8.7987 13.986C8.7987 13.538 8.8827 13.1367 9.0507 12.782C9.2187 12.418 9.4567 12.11 9.7647 11.858C10.0727 11.606 10.446 11.4147 10.8847 11.284C11.3234 11.144 11.818 11.074 12.3687 11.074C13.022 11.074 13.5867 11.144 14.0627 11.284C14.5387 11.424 14.9307 11.578 15.2387 11.746L14.6087 13.468C14.338 13.328 14.0347 13.2067 13.6987 13.104C13.372 12.992 12.9754 12.936 12.5087 12.936C11.986 12.936 11.608 13.0107 11.3747 13.16C11.1507 13.3 11.0387 13.5193 11.0387 13.818C11.0387 13.9953 11.0807 14.1447 11.1647 14.266C11.2487 14.3873 11.3654 14.4993 11.5147 14.602C11.6734 14.6953 11.8507 14.784 12.0467 14.868C12.252 14.9427 12.476 15.022 12.7187 15.106C13.2227 15.2927 13.6614 15.4793 14.0347 15.666C14.408 15.8433 14.716 16.0533 14.9587 16.296C15.2107 16.5387 15.3974 16.8233 15.5187 17.15C15.64 17.4767 15.7007 17.8733 15.7007 18.34C15.7007 19.2453 15.3834 19.95 14.7487 20.454C14.114 20.9487 13.1574 21.196 11.8787 21.196C11.4494 21.196 11.062 21.168 10.7167 21.112C10.3714 21.0653 10.0634 21.0047 9.7927 20.93C9.53136 20.8553 9.3027 20.776 9.1067 20.692C8.92003 20.608 8.76136 20.5287 8.6307 20.454L9.2467 18.718C9.53603 18.8767 9.8907 19.0213 10.3107 19.152C10.74 19.2733 11.2627 19.334 11.8787 19.334ZM23.6037 11.298V13.16H20.6777V21H18.4937V13.16H15.5677V11.298H23.6037Z" fill="white"/>
</g>
</g>
<defs>
<filter id="filter0_d_219_73880" x="6.6307" y="10.074" width="18.973" height="14.1221" filterUnits="userSpaceOnUse" color-interpolation-filters="sRGB">
<feFlood flood-opacity="0" result="BackgroundImageFix"/>
<feColorMatrix in="SourceAlpha" type="matrix" values="0 0 0 0 0 0 0 0 0 0 0 0 0 0 0 0 0 0 127 0" result="hardAlpha"/>
<feOffset dy="1"/>
<feGaussianBlur stdDeviation="1"/>
<feColorMatrix type="matrix" values="0 0 0 0 0.054902 0 0 0 0 0.054902 0 0 0 0 0.054902 0 0 0 0.05 0"/>
<feBlend mode="normal" in2="BackgroundImageFix" result="effect1_dropShadow_219_73880"/>
<feBlend mode="normal" in="SourceGraphic" in2="effect1_dropShadow_219_73880" result="shape"/>
</filter>
<clipPath id="clip0_219_73880">
<rect width="32" height="32" rx="6" fill="white"/>
</clipPath>
</defs>
</svg>
