<svg xmlns="http://www.w3.org/2000/svg" width="64" height="64"><g fill="none"><path fill="#85ACB0" d="M.374 30.992a2.17 2.17 0 01.206-.17 8.34 8.34 0 01.587-.39c.207-.127.448-.272.834-.5l.512-.304.574-.34c2.295-1.37 4.225-2.602 6.333-4.102a1 1 0 111.16 1.629c-2.158 1.537-4.131 2.796-6.47 4.19l-.577.344-.512.303a52.42 52.42 0 00-1.021.62v28.574c.02.64.548 1.144 1.21 1.125h57.608A1.15 1.15 0 0062 60.88V32.355l-8.542-5.515a1 1 0 111.084-1.68l8.767 5.66c.401.131.691.512.691.961v29.13c-.056 1.754-1.504 3.132-3.21 3.083H3.238C1.504 64.043.056 62.664 0 60.878V31.781c0-.319.146-.603.374-.789z"/><path fill="#1A1A1A" d="M11 39V3.079c0-.55.42-1.003.955-1.027H52.09c.49.024.91.477.91 1.026V39h2V3.079C55.002 1.432 53.739.075 52.135 0H11.91C10.261.075 8.998 1.432 9 3.08V39h2z"/><path fill="#85ACB0" d="M22.468 44.116a1 1 0 11-.936 1.768l-17-9a1 1 0 11.936-1.768l17 9zm36.064-9a1 1 0 01.936 1.768l-17 9a1 1 0 01-.936-1.768l17-9z"/><path fill="#FF444F" d="M32 34c7.74 0 14-6.5 14-14.5S39.74 5 32 5s-14 6.5-14 14.5S24.26 34 32 34zm0-2c-6.619 0-12-5.588-12-12.5S25.381 7 32 7s12 5.588 12 12.5S38.619 32 32 32z"/><path fill="#FF444F" d="M32 18.143l5.324-4.88a1 1 0 111.352 1.474L33.48 19.5l5.196 4.763a1 1 0 11-1.352 1.474L32 20.857l-5.324 4.88a1 1 0 11-1.352-1.474L30.52 19.5l-5.196-4.763a1 1 0 111.352-1.474L32 18.143z"/><path fill="#85ACB0" d="M2.646 62.745c14.55-11.893 23.941-19.549 28.172-22.967.69-.52 1.675-.52 2.389.02 4.206 3.399 13.616 11.055 28.203 22.948a1 1 0 001.263-1.55c-14.588-11.895-24-19.553-28.235-22.974a4.009 4.009 0 00-4.851-.02c-4.26 3.442-13.654 11.1-28.206 22.994a1 1 0 001.265 1.549z"/></g></svg>