<svg width="48" height="48" fill="none" xmlns="http://www.w3.org/2000/svg"><path fill-rule="evenodd" clip-rule="evenodd" d="M19.617 40.302v2.416h-3.015V40.31c-2.221-.413-3.618-1.784-3.716-3.776H15.5c.128 1.045 1.18 1.718 2.705 1.718 1.404 0 2.399-.68 2.399-1.651 0-.826-.644-1.297-2.23-1.653l-1.681-.36c-2.354-.49-3.511-1.717-3.511-3.686 0-1.971 1.314-3.391 3.404-3.858v-2.432H19.6v2.436c2.04.454 3.4 1.846 3.465 3.717h-2.523c-.128-1.02-1.078-1.701-2.383-1.701s-2.247.628-2.247 1.61c0 .797.616 1.239 2.132 1.578l1.556.33c2.598.545 3.717 1.653 3.717 3.672 0 2.159-1.387 3.606-3.7 4.047zm14.854-9.095c-3-6.89-8.816-11.877-8.816-11.877h-15.09S0 28.383 0 38.948C0 44.982 4.543 48 7.545 48h21.13c1.071 0 2.334-.39 3.517-1.152A10.35 10.35 0 0 1 29.6 40c0-3.702 1.952-6.95 4.872-8.793z" fill="#85ACAF"/><path fill-rule="evenodd" clip-rule="evenodd" d="M40.837 43.666V45h-1.665v-1.33c-1.227-.228-1.998-.985-2.053-2.085h1.444c.071.577.653.95 1.494.95.776 0 1.326-.377 1.326-.913 0-.456-.357-.717-1.233-.913l-.927-.198c-1.3-.272-1.94-.949-1.94-2.037s.726-1.872 1.88-2.13V35h1.665v1.346c1.127.251 1.877 1.02 1.914 2.052h-1.394c-.07-.563-.595-.939-1.316-.939-.72 0-1.24.347-1.24.89 0 .44.34.684 1.176.871l.86.182c1.435.301 2.053.912 2.053 2.028 0 1.193-.767 1.992-2.044 2.236zM40 32c-1.742 0-3.35.563-4.664 1.51a7.98 7.98 0 0 0-1.34 11.765A7.977 7.977 0 0 0 40.002 48a8 8 0 0 0 0-16zM10.564 16.306h15.091l1.4-3.969a1.512 1.512 0 0 0-1.4-2.064h-4.172a4.542 4.542 0 0 0-6.748 0h-4.17a1.51 1.51 0 0 0-1.4 2.064l1.4 3.97z" fill="#85ACAF"/><path fill-rule="evenodd" clip-rule="evenodd" d="M24 12a12.001 12.001 0 0 0 18 10.393A12.001 12.001 0 0 0 30 1.607 12.001 12.001 0 0 0 24 12z" fill="#FF444F" style="mix-blend-mode:multiply"/><path fill-rule="evenodd" clip-rule="evenodd" d="M34.301 16.75 30 12.45l1.802-1.802 2.499 2.499 5.896-5.898L42 9.05l-7.699 7.7z" fill="#fff"/></svg>