<svg xmlns="http://www.w3.org/2000/svg" width="24" height="24" viewBox="0 0 24 24">
    <defs>
        <linearGradient id="ly7zahk3na" x1="0%" x2="100%" y1="92.014%" y2="7.986%">
            <stop offset="0%" stop-color="#FF444F"/>
            <stop offset="100%" stop-color="#FF6444"/>
        </linearGradient>
    </defs>
    <g fill="none" fill-rule="evenodd">
        <path d="M0 0H18V18H0z" transform="translate(3 3)"/>
        <path fill="url(#ly7zahk3na)" fill-rule="nonzero" d="M2.642.255c.493-.382 1.186-.333 1.642.135.496.592.926 1.239 1.272 1.908.123.206.222.405.3.598l.011-.002h10.83c.684 0 1.244.538 1.299 1.222l.004.11v7.462c.003.355-.134.696-.378.948-.217.223-.505.36-.81.388l-.115.005h-4.224c-.198 0-.36-.165-.36-.368 0-.18.128-.33.296-.361l.064-.006h4.224c.156 0 .305-.064.414-.177.091-.093.149-.215.165-.347l.004-.08V4.307l-5.694 4.69c-.519.433-1.251.458-1.796.075l-.1-.076-4.375-3.678-.008-.008c-.069.056-.142.11-.22.161l-.103.07c-.068.047-.133.098-.197.152-.553.467-.713 1.265-.386 1.914.712 1.385 1.338 2.565 1.655 3.098l.085.14c.318.435.832.674 1.389.632-.035 0-.008-.018.029-.037l.414-.193.184-.083.163-.07c.766-.326 1.649-.155 2.254.445.663.708 1.195 1.533 1.567 2.431.232.542.097 1.175-.337 1.571-1.193 1.072-2.94 1.164-4.668.676-1.751-.595-3.38-2.507-4.858-5.287C1.29 9.072.395 6.8.143 5.787c-.56-2.243.577-4.044 2.5-5.532zm1.114.634C3.573.702 3.283.68 3.076.84l-.163.13C1.3 2.27.388 3.794.841 5.605c.236.95 1.109 3.166 2.07 4.973 1.397 2.628 2.924 4.42 4.434 4.934 1.5.423 3.017.344 3.982-.522.2-.183.262-.475.153-.73-.34-.82-.823-1.57-1.416-2.203-.39-.386-.967-.498-1.469-.285l-.152.066-.7.323c-.077.034-.11.045-.144.049l-.187.007c-.723.008-1.412-.337-1.86-.952-.198-.31-.545-.94-.977-1.759l-.812-1.56c-.484-.96-.248-2.134.565-2.82.12-.102.245-.195.372-.276l.087-.06c.643-.472.755-1.106.144-2.13-.332-.64-.732-1.242-1.175-1.772zm12.941 2.74H6.042c.042.425-.046.806-.25 1.138l4.355 3.66c.262.22.63.238.91.054l.075-.056L16.91 3.67c-.044-.017-.09-.03-.138-.036l-.074-.004z" transform="translate(3 3)"/>
    </g>
</svg>
