<svg xmlns="http://www.w3.org/2000/svg" width="32" height="32"><g fill="none" fill-rule="evenodd"><path d="M0 0h32v32H0z"/><g transform="translate(4 8)" fill-rule="nonzero"><path fill="#FF002D" d="M16 0h6a2 2 0 0 1 2 2v12a2 2 0 0 1-2 2h-6V0z"/><path fill="#FFF" d="M8 0h8v16H8z"/><path fill="#001F9B" d="M2 0h6v16H2a2 2 0 0 1-2-2V2a2 2 0 0 1 2-2z"/><rect width="23" height="15" x=".5" y=".5" stroke="#000" stroke-opacity=".04" rx="1"/></g><g transform="translate(19 2)"><rect width="11" height="8" fill="#0E0E0E" rx="1"/><path fill="#FFF" fill-rule="nonzero" d="M4.63 6v-.822h.606v-.42H4.63V1.812h-.75L2.128 4.734v.444H4.15V6h.48zm-.48-1.242H2.602L4.12 2.202h.03v2.556zM7.3 6.072c.5 0 .865-.19 1.095-.57.23-.38.345-.912.345-1.596S8.625 2.69 8.395 2.31c-.23-.38-.595-.57-1.095-.57s-.865.19-1.095.57c-.23.38-.345.912-.345 1.596s.115 1.216.345 1.596c.23.38.595.57 1.095.57zm0-.438a.817.817 0 0 1-.42-.102.78.78 0 0 1-.282-.288 1.433 1.433 0 0 1-.159-.438 2.82 2.82 0 0 1-.051-.558v-.684c0-.204.017-.39.051-.558.034-.168.087-.314.159-.438a.78.78 0 0 1 .282-.288.817.817 0 0 1 .42-.102c.164 0 .304.034.42.102a.78.78 0 0 1 .282.288c.072.124.125.27.159.438.034.168.051.354.051.558v.684c0 .204-.017.39-.051.558a1.433 1.433 0 0 1-.159.438.78.78 0 0 1-.282.288.817.817 0 0 1-.42.102z"/></g></g></svg>