<svg xmlns="http://www.w3.org/2000/svg" width="32" height="32" viewBox="0 0 32 32">
    <g fill="none" fill-rule="evenodd">
        <g>
            <g>
                <g>
                    <g>
                        <g>
                            <g>
                                <path d="M0 0H32V32H0z" transform="translate(-914 -2046) translate(0 1273) translate(324 458) translate(0 290) translate(146 25) translate(444)"/>
                                <g>
                                    <g fill-rule="nonzero">
                                        <g transform="translate(-914 -2046) translate(0 1273) translate(324 458) translate(0 290) translate(146 25) translate(444) translate(4 2) translate(0 6)">
                                            <path fill="#FFCD00" d="M0 11h24v3c0 1.105-.895 2-2 2H2c-1.105 0-2-.895-2-2v-3z"/>
                                            <path fill="#F10000" d="M0 5H24V11H0z"/>
                                            <path fill="#333" d="M2 0h20c1.105 0 2 .895 2 2v3H0V2C0 .895.895 0 2 0z"/>
                                            <rect width="23" height="15" x=".5" y=".5" stroke="#000" stroke-opacity=".04" rx="1"/>
                                        </g>
                                    </g>
                                    <g transform="translate(-914 -2046) translate(0 1273) translate(324 458) translate(0 290) translate(146 25) translate(444) translate(4 2) translate(15)">
                                        <rect width="11" height="8" fill="#0E0E0E" rx="1"/>
                                        <path fill="#FFF" fill-rule="nonzero" d="M3.508 6.072c.212 0 .406-.03.582-.09.176-.06.326-.143.45-.249.124-.106.22-.234.288-.384.068-.15.102-.315.102-.495 0-.156-.025-.295-.075-.417-.05-.122-.116-.226-.198-.312s-.176-.156-.282-.21c-.106-.054-.215-.093-.327-.117v-.024c.112-.028.217-.07.315-.126.098-.056.183-.124.255-.204.072-.08.129-.174.171-.282.042-.108.063-.23.063-.366 0-.168-.033-.318-.099-.45s-.156-.243-.27-.333c-.114-.09-.249-.158-.405-.204-.156-.046-.322-.069-.498-.069-.168 0-.318.02-.45.06-.132.04-.248.092-.348.156-.1.064-.187.137-.261.219-.074.082-.137.165-.189.249l.372.288c.088-.16.2-.287.336-.381.136-.094.312-.141.528-.141.224 0 .405.055.543.165.138.11.207.275.207.495v.042c0 .204-.071.371-.213.501-.142.13-.355.195-.639.195H3.01v.438h.492c.296 0 .52.067.672.201.152.134.228.325.228.573v.048c0 .248-.076.439-.228.573-.152.134-.376.201-.672.201-.128 0-.24-.013-.336-.039-.096-.026-.182-.063-.258-.111-.076-.048-.145-.106-.207-.174-.062-.068-.119-.144-.171-.228l-.378.288c.064.092.137.18.219.264.082.084.177.16.285.228.108.068.232.122.372.162.14.04.3.06.48.06zm3.792 0c.5 0 .865-.19 1.095-.57.23-.38.345-.912.345-1.596S8.625 2.69 8.395 2.31c-.23-.38-.595-.57-1.095-.57s-.865.19-1.095.57c-.23.38-.345.912-.345 1.596s.115 1.216.345 1.596c.23.38.595.57 1.095.57zm0-.438c-.164 0-.304-.034-.42-.102-.116-.068-.21-.164-.282-.288-.072-.124-.125-.27-.159-.438-.034-.168-.051-.354-.051-.558v-.684c0-.204.017-.39.051-.558.034-.168.087-.314.159-.438.072-.124.166-.22.282-.288.116-.068.256-.102.42-.102.164 0 .304.034.42.102.116.068.21.164.282.288.072.124.125.27.159.438.034.168.051.354.051.558v.684c0 .204-.017.39-.051.558-.034.168-.087.314-.159.438-.072.124-.166.22-.282.288-.116.068-.256.102-.42.102z"/>
                                    </g>
                                </g>
                            </g>
                        </g>
                    </g>
                </g>
            </g>
        </g>
    </g>
</svg>
