<svg width="32" height="32" viewBox="0 0 32 32" fill="none" xmlns="http://www.w3.org/2000/svg">
<path d="M4 19H28V22C28 23.1046 27.1046 24 26 24H6C4.89543 24 4 23.1046 4 22V19Z" fill="#FFCD00"/>
<path d="M28 13H4V19H28V13Z" fill="#F10000"/>
<path d="M6 8H26C27.1046 8 28 8.89543 28 10V13H4V10C4 8.89543 4.89543 8 6 8Z" fill="#333333"/>
<path fill-rule="evenodd" clip-rule="evenodd" d="M26 9H6C5.44772 9 5 9.44772 5 10V22C5 22.5523 5.44772 23 6 23H26C26.5523 23 27 22.5523 27 22V10C27 9.44771 26.5523 9 26 9ZM6 8C4.89543 8 4 8.89543 4 10V22C4 23.1046 4.89543 24 6 24H26C27.1046 24 28 23.1046 28 22V10C28 8.89543 27.1046 8 26 8H6Z" fill="black" fill-opacity="0.04"/>
<path d="M19 3C19 2.44772 19.3518 2 19.7857 2H29.2143C29.6482 2 30 2.44772 30 3V9C30 9.55228 29.6482 10 29.2143 10H19.7857C19.3518 10 19 9.55228 19 9V3Z" fill="#0E0E0E"/>
<path d="M24.4565 6.68882V7.12877H21.4116V6.81328L23.2988 3.89285H23.7358L23.2669 4.73801L22.0194 6.68882H24.4565ZM23.869 3.89285V8.10707H23.3335V3.89285H23.869Z" fill="white"/>
<path d="M27.5882 5.66421V6.30677C27.5882 6.65216 27.5574 6.94353 27.4956 7.18087C27.4339 7.41821 27.3451 7.60924 27.2293 7.75396C27.1136 7.89868 26.9737 8.00384 26.8096 8.06945C26.6476 8.13312 26.4643 8.16496 26.2597 8.16496C26.0976 8.16496 25.9481 8.1447 25.8111 8.10418C25.6741 8.06366 25.5506 7.99902 25.4406 7.91025C25.3325 7.81956 25.2399 7.70186 25.1627 7.55714C25.0856 7.41242 25.0267 7.23683 24.9862 7.03036C24.9457 6.8239 24.9254 6.5827 24.9254 6.30677V5.66421C24.9254 5.31882 24.9563 5.02938 25.018 4.7959C25.0817 4.56242 25.1714 4.37525 25.2872 4.23439C25.403 4.0916 25.5419 3.98933 25.704 3.92758C25.868 3.86583 26.0513 3.83496 26.2539 3.83496C26.4179 3.83496 26.5685 3.85522 26.7055 3.89574C26.8444 3.93433 26.9679 3.99705 27.0759 4.08388C27.184 4.16878 27.2756 4.28263 27.3509 4.42542C27.4281 4.56628 27.4869 4.73897 27.5275 4.94351C27.568 5.14805 27.5882 5.38828 27.5882 5.66421ZM27.0499 6.3936V5.57449C27.0499 5.38539 27.0383 5.21944 27.0152 5.07665C26.9939 4.93193 26.9621 4.80844 26.9196 4.70617C26.8772 4.6039 26.8232 4.52093 26.7576 4.45725C26.6939 4.39358 26.6196 4.34727 26.5347 4.31832C26.4517 4.28745 26.3581 4.27201 26.2539 4.27201C26.1266 4.27201 26.0137 4.29613 25.9153 4.34437C25.8169 4.39068 25.7339 4.46497 25.6664 4.56724C25.6008 4.66951 25.5506 4.80362 25.5159 4.96956C25.4811 5.1355 25.4638 5.33715 25.4638 5.57449V6.3936C25.4638 6.5827 25.4744 6.74961 25.4956 6.89433C25.5188 7.03905 25.5525 7.16447 25.5969 7.2706C25.6413 7.37479 25.6953 7.46066 25.759 7.5282C25.8227 7.59573 25.896 7.6459 25.979 7.6787C26.0639 7.70958 26.1574 7.72501 26.2597 7.72501C26.3909 7.72501 26.5057 7.69993 26.6041 7.64976C26.7026 7.59959 26.7846 7.52144 26.8502 7.41532C26.9177 7.30726 26.9679 7.16929 27.0007 7.00142C27.0335 6.83161 27.0499 6.62901 27.0499 6.3936Z" fill="white"/>
</svg>
