<svg xmlns="http://www.w3.org/2000/svg" xmlns:xlink="http://www.w3.org/1999/xlink" width="32" height="32" viewBox="0 0 32 32">
    <defs>
        <rect id="c2g97dph5a" width="24" height="16" x="0" y="0" rx="2"/>
    </defs>
    <g fill="none" fill-rule="evenodd">
        <g>
            <g>
                <g>
                    <g>
                        <g>
                            <g>
                                <g>
                                    <path d="M0 0H32V32H0z" transform="translate(-618 -2094) translate(0 1273) translate(324 458) translate(0 290) translate(146 25) translate(0 48) translate(148)"/>
                                    <g>
                                        <g>
                                            <g transform="translate(-618 -2094) translate(0 1273) translate(324 458) translate(0 290) translate(146 25) translate(0 48) translate(148) translate(4 2) translate(0 6)">
                                                <mask id="eoinq4jsyb" fill="#fff">
                                                    <use xlink:href="#c2g97dph5a"/>
                                                </mask>
                                                <use fill="#DD172C" xlink:href="#c2g97dph5a"/>
                                                <path fill="#FFD133" fill-rule="nonzero" d="M0 4H24V12H0z" mask="url(#eoinq4jsyb)"/>
                                                <g mask="url(#eoinq4jsyb)">
                                                    <g>
                                                        <path fill="#FFEDB1" d="M3.333 3.333L4.667 3.333 4.667 4 3.333 4z" transform="translate(2 4)"/>
                                                        <path stroke="#A41517" stroke-width=".667" d="M2.054 3.3l.167 2.007c.047.567.547 1.026 1.112 1.026.566 0 1.065-.461 1.112-1.026L4.613 3.3c.014-.174-.105-.3-.288-.3H2.341c-.176 0-.301.133-.287.3z" transform="translate(2 4)"/>
                                                        <path fill="#A41517" d="M2 4L4.667 4 4.667 4.667 4 4.667 3.333 6 2.667 4.667 2 4.667zM0 2H1.333V6.667H0zM5.333 2H6.666V6.667H5.333zM2 1.333c0-.368.306-.666.673-.666h1.32c.372 0 .674.296.674.666v.33c0 .186-.144.337-.327.337H2.327C2.147 2 2 1.857 2 1.664v-.33z" transform="translate(2 4)"/>
                                                    </g>
                                                </g>
                                                <rect width="23" height="15" x=".5" y=".5" fill-rule="nonzero" stroke="#000" stroke-opacity=".04" mask="url(#eoinq4jsyb)" rx="1"/>
                                            </g>
                                        </g>
                                        <g transform="translate(-618 -2094) translate(0 1273) translate(324 458) translate(0 290) translate(146 25) translate(0 48) translate(148) translate(4 2) translate(15)">
                                            <rect width="11" height="8" fill="#0E0E0E" rx="1"/>
                                            <path fill="#FFF" fill-rule="nonzero" d="M3.508 6.072c.212 0 .406-.03.582-.09.176-.06.326-.143.45-.249.124-.106.22-.234.288-.384.068-.15.102-.315.102-.495 0-.156-.025-.295-.075-.417-.05-.122-.116-.226-.198-.312s-.176-.156-.282-.21c-.106-.054-.215-.093-.327-.117v-.024c.112-.028.217-.07.315-.126.098-.056.183-.124.255-.204.072-.08.129-.174.171-.282.042-.108.063-.23.063-.366 0-.168-.033-.318-.099-.45s-.156-.243-.27-.333c-.114-.09-.249-.158-.405-.204-.156-.046-.322-.069-.498-.069-.168 0-.318.02-.45.06-.132.04-.248.092-.348.156-.1.064-.187.137-.261.219-.074.082-.137.165-.189.249l.372.288c.088-.16.2-.287.336-.381.136-.094.312-.141.528-.141.224 0 .405.055.543.165.138.11.207.275.207.495v.042c0 .204-.071.371-.213.501-.142.13-.355.195-.639.195H3.01v.438h.492c.296 0 .52.067.672.201.152.134.228.325.228.573v.048c0 .248-.076.439-.228.573-.152.134-.376.201-.672.201-.128 0-.24-.013-.336-.039-.096-.026-.182-.063-.258-.111-.076-.048-.145-.106-.207-.174-.062-.068-.119-.144-.171-.228l-.378.288c.064.092.137.18.219.264.082.084.177.16.285.228.108.068.232.122.372.162.14.04.3.06.48.06zm3.762 0c.22 0 .417-.034.591-.102.174-.068.322-.163.444-.285.122-.122.215-.268.279-.438.064-.17.096-.357.096-.561 0-.204-.031-.386-.093-.546-.062-.16-.149-.295-.261-.405-.112-.11-.244-.195-.396-.255-.152-.06-.318-.09-.498-.09-.22 0-.393.042-.519.126-.126.084-.239.196-.339.336h-.042l.12-1.596h1.836v-.444H6.244l-.15 2.304.426.06c.088-.096.187-.179.297-.249.11-.07.261-.105.453-.105.288 0 .506.076.654.228.148.152.222.366.222.642v.06c0 .276-.074.49-.222.642-.148.152-.366.228-.654.228-.128 0-.238-.013-.33-.039-.092-.026-.173-.063-.243-.111s-.134-.106-.192-.174c-.058-.068-.113-.144-.165-.228l-.378.288c.064.092.135.18.213.264.078.084.169.16.273.228.104.068.223.122.357.162.134.04.289.06.465.06z"/>
                                        </g>
                                    </g>
                                </g>
                            </g>
                        </g>
                    </g>
                </g>
            </g>
        </g>
    </g>
</svg>
