<svg width="32" height="32" xmlns="http://www.w3.org/2000/svg"><g fill="none" fill-rule="evenodd"><path d="M0 0h32v32H0z"/><g transform="translate(4 8)" fill-rule="nonzero"><rect fill="#F44336" width="24" height="16" rx="2"/><path d="M16.552 6.319h-2.897V3.376a.417.417 0 0 0-.414-.42H10.76a.417.417 0 0 0-.414.42v2.943H7.448a.417.417 0 0 0-.414.42v2.522c0 .232.186.42.414.42h2.897v2.943c0 .232.185.42.414.42h2.482a.417.417 0 0 0 .414-.42V9.681h2.897a.417.417 0 0 0 .414-.42V6.739a.417.417 0 0 0-.414-.42z" fill="#FFF"/><rect stroke-opacity=".04" stroke="#000" x=".5" y=".5" width="23" height="15" rx="1"/></g><g transform="translate(19 2)"><rect fill="#0E0E0E" width="11" height="8" rx="1"/><path d="M5.098 6v-.444H2.896l1.128-1.014c.132-.12.255-.24.369-.36.114-.12.211-.243.291-.369.08-.126.143-.259.189-.399.046-.14.069-.292.069-.456 0-.18-.029-.344-.087-.492a1.108 1.108 0 0 0-.249-.384 1.11 1.11 0 0 0-.402-.252c-.16-.06-.342-.09-.546-.09-.204 0-.381.028-.531.084a1.242 1.242 0 0 0-.648.537c-.07.118-.125.239-.165.363l.45.174c.028-.1.065-.193.111-.279a.837.837 0 0 1 .174-.225.76.76 0 0 1 .249-.15.955.955 0 0 1 .336-.054c.26 0 .454.072.582.216.128.144.192.332.192.564v.072c0 .204-.066.407-.198.609a3.033 3.033 0 0 1-.492.573L2.35 5.484V6h2.748zm2.202.072c.5 0 .865-.19 1.095-.57.23-.38.345-.912.345-1.596S8.625 2.69 8.395 2.31c-.23-.38-.595-.57-1.095-.57s-.865.19-1.095.57c-.23.38-.345.912-.345 1.596s.115 1.216.345 1.596c.23.38.595.57 1.095.57zm0-.438a.817.817 0 0 1-.42-.102.78.78 0 0 1-.282-.288 1.433 1.433 0 0 1-.159-.438 2.82 2.82 0 0 1-.051-.558v-.684c0-.204.017-.39.051-.558.034-.168.087-.314.159-.438a.78.78 0 0 1 .282-.288.817.817 0 0 1 .42-.102c.164 0 .304.034.42.102a.78.78 0 0 1 .282.288c.072.124.125.27.159.438.034.168.051.354.051.558v.684c0 .204-.017.39-.051.558a1.433 1.433 0 0 1-.159.438.78.78 0 0 1-.282.288.817.817 0 0 1-.42.102z" fill="#FFF" fill-rule="nonzero"/></g></g></svg>