<svg xmlns="http://www.w3.org/2000/svg" xmlns:xlink="http://www.w3.org/1999/xlink" width="32" height="32" viewBox="0 0 32 32">
    <defs>
        <rect id="j3j43yq1ua" width="24" height="16" x="0" y="0" rx="2"/>
    </defs>
    <g fill="none" fill-rule="evenodd">
        <g>
            <g>
                <g>
                    <g>
                        <g>
                            <g>
                                <path d="M0 0H32V32H0z" transform="translate(-470 -2094) translate(0 1273) translate(324 458) translate(0 290) translate(146 25) translate(0 48)"/>
                                <g>
                                    <g>
                                        <g transform="translate(-470 -2094) translate(0 1273) translate(324 458) translate(0 290) translate(146 25) translate(0 48) translate(4 2) translate(0 6)">
                                            <mask id="ax21akteob" fill="#fff">
                                                <use xlink:href="#j3j43yq1ua"/>
                                            </mask>
                                            <use fill="#0D47A1" xlink:href="#j3j43yq1ua"/>
                                            <path fill="#FFF" fill-rule="nonzero" d="M23.975 1.537C23.833.673 23.094.013 22.203.013h-.468l-7.666 5.102V.013H9.931v5.102L2.265.013h-.468C.906.013.167.673.025 1.537l6.552 4.361H0v4.204h6.577l-6.552 4.36c.142.865.881 1.525 1.772 1.525h.468l7.666-5.102v5.102h4.138v-5.102l7.666 5.102h.468c.891 0 1.63-.66 1.772-1.524l-6.552-4.361H24V5.898h-6.577l6.552-4.36z" mask="url(#ax21akteob)"/>
                                            <path fill="#F44336" fill-rule="nonzero" d="M13.241.013V6.74H24V9.26H13.241v6.726H10.76V9.26H0V6.74h10.759V.013h2.482zM9.908 10.102l-8.746 5.767c-.228-.087-.433-.22-.606-.389l-.124-.132 7.956-5.246h1.52zm6.329 0l7.527 4.963c-.113.2-.262.378-.439.521l-.137.102-8.471-5.586h1.52zM.725.373l8.378 5.525h-1.52L.19 1.023C.316.766.5.543.725.373zM22.824.125c.286.107.539.287.735.517l-7.97 5.256h-1.52L22.824.125z" mask="url(#ax21akteob)"/>
                                            <rect width="23" height="15" x=".5" y=".5" fill-rule="nonzero" stroke="#000" stroke-opacity=".04" mask="url(#ax21akteob)" rx="1"/>
                                        </g>
                                    </g>
                                    <g transform="translate(-470 -2094) translate(0 1273) translate(324 458) translate(0 290) translate(146 25) translate(0 48) translate(4 2) translate(12)">
                                        <rect width="14" height="8" fill="#0E0E0E" rx="1"/>
                                        <path fill="#FFF" fill-rule="nonzero" d="M4.882 6v-.444h-1.08V1.812h-.786L1.906 2.85l.294.318 1.056-.984h.042v3.372h-1.17V6h2.754zM7 6.072c.5 0 .865-.19 1.095-.57.23-.38.345-.912.345-1.596S8.325 2.69 8.095 2.31C7.865 1.93 7.5 1.74 7 1.74s-.865.19-1.095.57c-.23.38-.345.912-.345 1.596s.115 1.216.345 1.596c.23.38.595.57 1.095.57zm0-.438c-.164 0-.304-.034-.42-.102-.116-.068-.21-.164-.282-.288-.072-.124-.125-.27-.159-.438-.034-.168-.051-.354-.051-.558v-.684c0-.204.017-.39.051-.558.034-.168.087-.314.159-.438.072-.124.166-.22.282-.288.116-.068.256-.102.42-.102.164 0 .304.034.42.102.116.068.21.164.282.288.072.124.125.27.159.438.034.168.051.354.051.558v.684c0 .204-.017.39-.051.558-.034.168-.087.314-.159.438-.072.124-.166.22-.282.288-.116.068-.256.102-.42.102zm3.6.438c.5 0 .865-.19 1.095-.57.23-.38.345-.912.345-1.596s-.115-1.216-.345-1.596c-.23-.38-.595-.57-1.095-.57s-.865.19-1.095.57c-.23.38-.345.912-.345 1.596s.115 1.216.345 1.596c.23.38.595.57 1.095.57zm0-.438c-.164 0-.304-.034-.42-.102-.116-.068-.21-.164-.282-.288-.072-.124-.125-.27-.159-.438-.034-.168-.051-.354-.051-.558v-.684c0-.204.017-.39.051-.558.034-.168.087-.314.159-.438.072-.124.166-.22.282-.288.116-.068.256-.102.42-.102.164 0 .304.034.42.102.116.068.21.164.282.288.072.124.125.27.159.438.034.168.051.354.051.558v.684c0 .204-.017.39-.051.558-.034.168-.087.314-.159.438-.072.124-.166.22-.282.288-.116.068-.256.102-.42.102z"/>
                                    </g>
                                </g>
                            </g>
                        </g>
                    </g>
                </g>
            </g>
        </g>
    </g>
</svg>
