<svg width="24" height="24" viewBox="0 0 24 24" fill="none" xmlns="http://www.w3.org/2000/svg">
    <g clip-path="url(#clip0_902_12376)">
        <path
            d="M16.6445 11.616H6.34465C5.95772 11.616 5.69614 11.2291 5.83783 10.8694L7.91415 5.68645C8.07764 5.27225 8.48092 4.99976 8.92779 4.99976H14.0723C14.5192 4.99976 14.917 5.27225 15.0859 5.68645L17.1622 10.8694C17.3039 11.2291 17.0424 11.616 16.6554 11.616H16.6445Z"
            stroke="#414652" stroke-width="1.08996" stroke-linecap="round" stroke-linejoin="round" />
        <path
            d="M10.8457 18.2315H0.54582C0.158893 18.2315 -0.102691 17.8446 0.0390007 17.4849L2.11533 12.3019C2.27882 11.8877 2.68209 11.6152 3.12896 11.6152H8.27345C8.72033 11.6152 9.11815 11.8877 9.28709 12.3019L11.3634 17.4849C11.5051 17.8446 11.2435 18.2315 10.8566 18.2315H10.8457Z"
            stroke="#414652" stroke-width="1.08996" stroke-linecap="round" stroke-linejoin="round" />
        <path
            d="M22.4434 18.2315H12.1435C11.7565 18.2315 11.495 17.8446 11.6367 17.4849L13.713 12.3019C13.8765 11.8877 14.2797 11.6152 14.7266 11.6152H19.8711C20.318 11.6152 20.7158 11.8877 20.8848 12.3019L22.9611 17.4849C23.1028 17.8446 22.8412 18.2315 22.4543 18.2315H22.4434Z"
            stroke="#414652" stroke-width="1.08996" stroke-linecap="round" stroke-linejoin="round" />
    </g>
    <defs>
        <clipPath id="clip0_902_12376">
            <rect width="24" height="24" fill="white" />
        </clipPath>
    </defs>
</svg>