<svg width="15" height="10" viewBox="0 0 15 10" fill="none" xmlns="http://www.w3.org/2000/svg">
<path d="M7.33333 1C9.91156 1 12.2109 2.54909 13.3333 5C12.2109 7.45091 9.91837 9 7.33333 9C4.7483 9 2.45578 7.45091 1.33333 5C2.45578 2.54909 4.7551 1 7.33333 1ZM7.33333 0C4 0 1.15333 2.07333 0 5C1.15333 7.92667 4 10 7.33333 10C10.6667 10 13.5133 7.92667 14.6667 5C13.5133 2.07333 10.6667 0 7.33333 0ZM7.33333 3C8.43733 3 9.33333 3.896 9.33333 5C9.33333 6.104 8.43733 7 7.33333 7C6.22933 7 5.33333 6.104 5.33333 5C5.33333 3.896 6.22933 3 7.33333 3ZM7.33333 2C5.68 2 4.33333 3.34667 4.33333 5C4.33333 6.65333 5.68 8 7.33333 8C8.98667 8 10.3333 6.65333 10.3333 5C10.3333 3.34667 8.98667 2 7.33333 2Z" fill="#333333"/>
</svg>
