<svg width="96" height="96" viewBox="0 0 96 96" fill="none" xmlns="http://www.w3.org/2000/svg">
<path d="M80.6868 25.1174L11.2368 43.7264C9.10289 44.2982 7.83656 46.4916 8.40832 48.6254L12.2466 62.9501C12.8184 65.084 15.0117 66.3503 17.1456 65.7785L86.5957 47.1694C88.7295 46.5977 89.9959 44.4043 89.4241 42.2705L85.5858 27.9458C85.014 25.8119 82.8207 24.5456 80.6868 25.1174Z" stroke="white" stroke-width="4" stroke-miterlimit="10"/>
<path d="M59.9511 73.7505C61.4411 76.4405 59.4611 79.7405 56.3911 79.6905L48.9111 79.5605L41.4311 79.4305C38.3511 79.3805 36.4811 76.0105 38.0711 73.3705L41.9211 66.9505L45.7711 60.5305C47.3511 57.8905 51.2011 57.9505 52.7011 60.6505L56.3311 67.1905L59.9611 73.7305L59.9511 73.7505Z" stroke="white" stroke-width="4" stroke-miterlimit="10"/>
</svg>
