<svg width="70" height="69" viewBox="0 0 70 69" fill="none" xmlns="http://www.w3.org/2000/svg">
<path d="M57.4389 4.15773L4.66757 56.9291C2.48454 59.1121 2.48454 62.6515 4.66757 64.8346L4.67464 64.8416C6.85767 67.0247 10.3971 67.0247 12.5801 64.8416L65.3515 12.0703C67.5345 9.88722 67.5345 6.34783 65.3515 4.1648L65.3444 4.15773C63.1614 1.9747 59.622 1.9747 57.4389 4.15773Z" stroke="white" stroke-width="4" stroke-miterlimit="10"/>
<path d="M57.2004 64.8895C61.7843 64.8895 65.5004 61.1735 65.5004 56.5895C65.5004 52.0056 61.7843 48.2896 57.2004 48.2896C52.6164 48.2896 48.9004 52.0056 48.9004 56.5895C48.9004 61.1735 52.6164 64.8895 57.2004 64.8895Z" stroke="white" stroke-width="4" stroke-miterlimit="10"/>
<path d="M12.9094 20.6C17.4933 20.6 21.2094 16.884 21.2094 12.3C21.2094 7.71604 17.4933 4 12.9094 4C8.32541 4 4.60938 7.71604 4.60938 12.3C4.60938 16.884 8.32541 20.6 12.9094 20.6Z" stroke="white" stroke-width="4" stroke-miterlimit="10"/>
</svg>
