<svg width="24" height="25" viewBox="0 0 24 25" fill="none" xmlns="http://www.w3.org/2000/svg" id="derived">
<g clip-path="url(#clip0_882_33595)">
<path d="M12 22.2004C16.9706 22.2004 21 18.171 21 13.2004C21 8.22988 16.9706 4.20044 12 4.20044C7.02944 4.20044 3 8.22988 3 13.2004C3 18.171 7.02944 22.2004 12 22.2004Z" stroke-miterlimit="10"/>
<path d="M19.1998 18.6004C17.5598 17.7504 14.9398 17.2004 11.9998 17.2004C9.0598 17.2004 6.4398 17.7504 4.7998 18.6004" stroke-miterlimit="10"/>
<path d="M4.7998 7.80042C6.4398 8.65042 9.0598 9.20042 11.9998 9.20042C14.9398 9.20042 17.5598 8.65042 19.1998 7.80042" stroke-miterlimit="10"/>
<path d="M12.0001 22.2004C13.8668 22.2004 15.3801 18.171 15.3801 13.2004C15.3801 8.22988 13.8668 4.20044 12.0001 4.20044C10.1334 4.20044 8.62012 8.22988 8.62012 13.2004C8.62012 18.171 10.1334 22.2004 12.0001 22.2004Z" stroke-miterlimit="10"/>
<path d="M21 13.2004H3" stroke-miterlimit="10"/>
</g>
<defs>
<clipPath id="clip0_882_33595">
<rect width="24" height="24" fill="white" transform="translate(0 0.833252)"/>
</clipPath>
</defs>
</svg>
