<svg width="25" height="24" viewBox="0 0 25 24" fill="none" xmlns="http://www.w3.org/2000/svg">
<rect width="24" height="24" transform="translate(0.5)" fill="white"/>
<path d="M16.5 6V4C16.5 3.45 16.05 3 15.5 3H5.5C4.95 3 4.5 3.45 4.5 4V16.5C4.5 17.05 4.95 17.5 5.5 17.5H8.5M11.5 15H15.5M11.5 11H15.5M11.5 17C13.74 17 11.26 17 13.5 17M19.5 21H9.5C8.95 21 8.5 20.55 8.5 20V7C8.5 6.45 8.95 6 9.5 6H19.5C20.05 6 20.5 6.45 20.5 7V20C20.5 20.55 20.05 21 19.5 21Z" stroke="#FF444F" stroke-linecap="round" stroke-linejoin="round"/>
</svg>
