<svg width="96" height="97" viewBox="0 0 96 97" fill="none" xmlns="http://www.w3.org/2000/svg">
<path d="M80.6868 22.0353L11.2368 40.6444C9.10289 41.2162 7.83656 43.4095 8.40832 45.5434L12.2466 59.8681C12.8184 62.0019 15.0117 63.2683 17.1456 62.6965L86.5957 44.0874C88.7295 43.5156 89.9959 41.3223 89.4241 39.1884L85.5858 24.8637C85.014 22.7299 82.8207 21.4636 80.6868 22.0353Z" stroke="white" stroke-width="4" stroke-miterlimit="10"/>
<path d="M59.9511 70.6684C61.4411 73.3584 59.4611 76.6584 56.3911 76.6084L48.9111 76.4784L41.4311 76.3484C38.3511 76.2984 36.4811 72.9284 38.0711 70.2884L41.9211 63.8684L45.7711 57.4484C47.3511 54.8084 51.2011 54.8684 52.7011 57.5684L56.3311 64.1084L59.9611 70.6484L59.9511 70.6684Z" stroke="white" stroke-width="4" stroke-miterlimit="10"/>
</svg>
