<svg width="25" height="24" viewBox="0 0 25 24" fill="none" xmlns="http://www.w3.org/2000/svg">
<path d="M14.0947 8.06006L14.0947 8.56006H14.0947V8.06006ZM14.0947 11.5001C13.8186 11.5001 13.5947 11.7239 13.5947 12.0001C13.5947 12.2762 13.8186 12.5001 14.0947 12.5001V11.5001ZM14.75 15.44C14.4739 15.44 14.25 15.6639 14.25 15.94C14.25 16.2161 14.4739 16.44 14.75 16.44V15.44ZM10.5 8.06L10.5 7.56H10.5V8.06ZM14.75 16.435C15.0261 16.435 15.25 16.2111 15.25 15.935C15.25 15.6589 15.0261 15.435 14.75 15.435V16.435ZM9.5 11.5C9.22386 11.5 9 11.7239 9 12C9 12.2761 9.22386 12.5 9.5 12.5V11.5ZM10.9697 8.06C10.9697 8.33614 11.1936 8.56 11.4697 8.56C11.7459 8.56 11.9697 8.33614 11.9697 8.06H10.9697ZM11.9697 6C11.9697 5.72386 11.7459 5.5 11.4697 5.5C11.1936 5.5 10.9697 5.72386 10.9697 6H11.9697ZM14.5947 6C14.5947 5.72386 14.3709 5.5 14.0947 5.5C13.8186 5.5 13.5947 5.72386 13.5947 6H14.5947ZM10.9697 17.9999C10.9697 18.2761 11.1936 18.4999 11.4697 18.4999C11.7459 18.4999 11.9697 18.2761 11.9697 17.9999H10.9697ZM11.9697 15.9399C11.9697 15.6638 11.7459 15.4399 11.4697 15.4399C11.1936 15.4399 10.9697 15.6638 10.9697 15.9399H11.9697ZM13.5947 17.9999C13.5947 18.2761 13.8186 18.4999 14.0947 18.4999C14.3709 18.4999 14.5947 18.2761 14.5947 17.9999H13.5947ZM14.5947 15.9399C14.5947 15.6638 14.3709 15.4399 14.0947 15.4399C13.8186 15.4399 13.5947 15.6638 13.5947 15.9399H14.5947ZM14.0947 8.56006C14.9044 8.56006 15.5647 9.21703 15.5647 10.0301H16.5647C16.5647 8.66309 15.455 7.56006 14.0947 7.56006V8.56006ZM15.5647 10.0301C15.5647 10.8439 14.9086 11.5001 14.0947 11.5001V12.5001C15.4609 12.5001 16.5647 11.3962 16.5647 10.0301H15.5647ZM14.75 12.5C15.5597 12.5 16.22 13.157 16.22 13.97H17.22C17.22 12.603 16.1103 11.5 14.75 11.5V12.5ZM16.22 13.97C16.22 14.7839 15.5639 15.44 14.75 15.44V16.44C16.1161 16.44 17.22 15.3361 17.22 13.97H16.22ZM14.0947 7.56006L10.5 7.56L10.5 8.56L14.0947 8.56006L14.0947 7.56006ZM10.5 7.56C9.67386 7.56 9 8.23386 9 9.06H10C10 8.78614 10.2261 8.56 10.5 8.56V7.56ZM9 9.06V14.935H10V9.06H9ZM9 14.935C9 15.7611 9.67386 16.435 10.5 16.435V15.435C10.2261 15.435 10 15.2089 10 14.935H9ZM10.5 16.435H14.75V15.435H10.5V16.435ZM14.75 11.5H9.5V12.5H14.75V11.5ZM11.9697 8.06V6H10.9697V8.06H11.9697ZM14.5947 8.06006V6H13.5947V8.06006H14.5947ZM11.9697 17.9999V15.9399H10.9697V17.9999H11.9697ZM14.5947 17.9999V15.9399H13.5947V17.9999H14.5947ZM22.5 12C22.5 17.5228 18.0228 22 12.5 22V23C18.5751 23 23.5 18.0751 23.5 12H22.5ZM12.5 22C6.97715 22 2.5 17.5228 2.5 12H1.5C1.5 18.0751 6.42487 23 12.5 23V22ZM2.5 12C2.5 6.47715 6.97715 2 12.5 2V1C6.42487 1 1.5 5.92487 1.5 12H2.5ZM12.5 2C18.0228 2 22.5 6.47715 22.5 12H23.5C23.5 5.92487 18.5751 1 12.5 1V2Z" fill="#FF444F"/>
</svg>
