<svg width="68" height="69" viewBox="0 0 68 69" fill="none" xmlns="http://www.w3.org/2000/svg">
<path d="M43.87 32.54L64.38 12.03C66.54 9.87 66.54 6.36 64.38 4.2L64.3 4.12C62.14 1.96 58.63 1.96 56.47 4.12L35.96 24.63C34.88 25.71 33.13 25.71 32.05 24.63L11.53 4.12C9.37 1.96 5.86 1.96 3.7 4.12L3.62 4.2C1.46 6.36 1.46 9.87 3.62 12.03L24.13 32.54C25.21 33.62 25.21 35.37 24.13 36.45L3.62 56.96C1.46 59.12 1.46 62.63 3.62 64.79L3.7 64.87C5.86 67.03 9.37 67.03 11.53 64.87L32.04 44.36C33.12 43.28 34.87 43.28 35.95 44.36L56.46 64.87C58.62 67.03 62.13 67.03 64.29 64.87L64.37 64.79C66.53 62.63 66.53 59.12 64.37 56.96L43.86 36.45C42.78 35.37 42.78 33.62 43.86 32.54H43.87Z" stroke="white" stroke-width="4" stroke-miterlimit="10"/>
</svg>
