<svg width="24" height="25" viewBox="0 0 24 25" fill="none" xmlns="http://www.w3.org/2000/svg">
<g clip-path="url(#clip0_882_33615)">
<path d="M18.9379 8.32555V4.42714M18.9379 19.2882V21.2347M12.4455 3.78003V1.8335M12.4455 20.5875V23.8335M5.95361 6.37897V4.43244M5.95361 18.6411V21.8871M5.06953 6.37841H6.82891C7.41959 6.37841 7.89844 6.85725 7.89844 7.44793V17.571C7.89844 18.1617 7.41959 18.6405 6.82891 18.6405H5.06953C4.47885 18.6405 4 18.1617 4 17.571V7.44793C4 6.85725 4.47885 6.37841 5.06953 6.37841ZM11.5671 4.1056H13.3265C13.9172 4.1056 14.396 4.58444 14.396 5.17512V19.1912C14.396 19.7819 13.9172 20.2607 13.3265 20.2607H11.5671C10.9764 20.2607 10.4976 19.7819 10.4976 19.1912V5.17512C10.4976 4.58444 10.9764 4.1056 11.5671 4.1056ZM18.059 8.32494H19.8184C20.409 8.32494 20.8879 8.80378 20.8879 9.39446V18.218C20.8879 18.8087 20.409 19.2876 19.8184 19.2876H18.059C17.4683 19.2876 16.9894 18.8087 16.9894 18.218V9.39446C16.9894 8.80378 17.4683 8.32494 18.059 8.32494Z" stroke="#414652" stroke-opacity="0.8" stroke-width="1.06953" stroke-linecap="round" stroke-linejoin="round"/>
</g>
<defs>
<clipPath id="clip0_882_33615">
<rect width="24" height="24" fill="white" transform="translate(0 0.833252)"/>
</clipPath>
</defs>
</svg>
