<svg width="25" height="24" viewBox="0 0 25 24" fill="none" xmlns="http://www.w3.org/2000/svg">
    <path fill-rule="evenodd" clip-rule="evenodd"
        d="M13.2998 4.68713H6.00977C4.90477 4.68713 4.00977 5.58213 4.00977 6.68713V19.1271C4.00977 19.6771 4.45977 20.1271 5.00977 20.1271H6.09977C6.64977 20.1271 7.09977 19.6771 7.09977 19.1271V13.9521H10.2148C10.7648 13.9521 11.2148 13.5021 11.2148 12.9521V11.8621C11.2148 11.3121 10.7648 10.8621 10.2148 10.8621H7.09977V7.77213H13.3048C13.8548 7.77213 14.3048 7.32213 14.3048 6.77213V5.68213C14.3048 5.13213 13.8548 4.68213 13.3048 4.68213L13.2998 4.68713Z"
        stroke="#414652" stroke-linecap="round" stroke-linejoin="round" />
    <path fill-rule="evenodd" clip-rule="evenodd"
        d="M14.395 20.1269H15.705C16.08 20.1269 16.42 19.9169 16.59 19.5869L17.085 18.6319L17.58 19.5869C17.75 19.9169 18.095 20.1269 18.465 20.1269H19.775C20.525 20.1269 21.01 19.3319 20.66 18.6669L18.86 15.2019L20.89 11.2969C21.235 10.6319 20.755 9.83691 20.005 9.83691H18.695C18.32 9.83691 17.98 10.0469 17.81 10.3769L17.085 11.7719L16.36 10.3769C16.19 10.0469 15.845 9.83691 15.475 9.83691H14.165C13.415 9.83691 12.93 10.6319 13.28 11.2969L15.31 15.2019L13.51 18.6669C13.165 19.3319 13.645 20.1269 14.395 20.1269Z"
        stroke="#414652" stroke-linecap="round" stroke-linejoin="round" />
</svg>