<svg width="24" height="24" viewBox="0 0 24 24" fill="none" xmlns="http://www.w3.org/2000/svg">
<rect opacity="0.4" x="2" y="2" width="16" height="20" rx="1" fill="#85ACB0"/>
<g style="mix-blend-mode:multiply">
<rect x="8" y="14" width="14" height="6" rx="3" fill="#85ACB0"/>
</g>
<path d="M10.12 15.27H11.435C11.665 15.27 11.875 15.3066 12.065 15.38C12.255 15.4533 12.4167 15.5633 12.55 15.71C12.6833 15.8533 12.7867 16.035 12.86 16.255C12.9333 16.4716 12.97 16.725 12.97 17.015C12.97 17.305 12.9333 17.56 12.86 17.78C12.7867 17.9966 12.6833 18.1783 12.55 18.325C12.4167 18.4683 12.255 18.5766 12.065 18.65C11.875 18.7233 11.665 18.76 11.435 18.76H10.12V15.27ZM11.435 18.085C11.6617 18.085 11.84 18.0216 11.97 17.895C12.1 17.7683 12.165 17.565 12.165 17.285V16.745C12.165 16.465 12.1 16.2616 11.97 16.135C11.84 16.0083 11.6617 15.945 11.435 15.945H10.88V18.085H11.435Z" fill="white"/>
<path d="M15.0063 18.82C14.7763 18.82 14.5663 18.7816 14.3763 18.705C14.1863 18.6283 14.0247 18.515 13.8913 18.365C13.758 18.2116 13.6547 18.0233 13.5813 17.8C13.508 17.5733 13.4713 17.3116 13.4713 17.015C13.4713 16.7183 13.508 16.4583 13.5813 16.235C13.6547 16.0083 13.758 15.82 13.8913 15.67C14.0247 15.5166 14.1863 15.4016 14.3763 15.325C14.5663 15.2483 14.7763 15.21 15.0063 15.21C15.2363 15.21 15.4463 15.2483 15.6363 15.325C15.8263 15.4016 15.988 15.5166 16.1213 15.67C16.2547 15.82 16.358 16.0083 16.4313 16.235C16.5047 16.4583 16.5413 16.7183 16.5413 17.015C16.5413 17.3116 16.5047 17.5733 16.4313 17.8C16.358 18.0233 16.2547 18.2116 16.1213 18.365C15.988 18.515 15.8263 18.6283 15.6363 18.705C15.4463 18.7816 15.2363 18.82 15.0063 18.82ZM15.0063 18.145C15.2363 18.145 15.4147 18.07 15.5413 17.92C15.6713 17.77 15.7363 17.555 15.7363 17.275V16.755C15.7363 16.475 15.6713 16.26 15.5413 16.11C15.4147 15.96 15.2363 15.885 15.0063 15.885C14.7763 15.885 14.5963 15.96 14.4663 16.11C14.3397 16.26 14.2763 16.475 14.2763 16.755V17.275C14.2763 17.555 14.3397 17.77 14.4663 17.92C14.5963 18.07 14.7763 18.145 15.0063 18.145Z" fill="white"/>
<path d="M18.5857 18.82C18.349 18.82 18.1357 18.7833 17.9457 18.71C17.7557 18.6333 17.594 18.5216 17.4607 18.375C17.3273 18.225 17.224 18.04 17.1507 17.82C17.0773 17.5966 17.0407 17.3366 17.0407 17.04C17.0407 16.7466 17.0773 16.4866 17.1507 16.26C17.224 16.03 17.3273 15.8383 17.4607 15.685C17.594 15.5283 17.7557 15.41 17.9457 15.33C18.1357 15.25 18.349 15.21 18.5857 15.21C18.909 15.21 19.1757 15.2766 19.3857 15.41C19.5957 15.54 19.764 15.7466 19.8907 16.03L19.2357 16.37C19.189 16.2233 19.1157 16.1066 19.0157 16.02C18.919 15.93 18.7757 15.885 18.5857 15.885C18.3623 15.885 18.1823 15.9583 18.0457 16.105C17.9123 16.2483 17.8457 16.4583 17.8457 16.735V17.295C17.8457 17.5716 17.9123 17.7833 18.0457 17.93C18.1823 18.0733 18.3623 18.145 18.5857 18.145C18.7723 18.145 18.9207 18.095 19.0307 17.995C19.144 17.8916 19.2273 17.7683 19.2807 17.625L19.9007 17.985C19.7707 18.2516 19.599 18.4583 19.3857 18.605C19.1757 18.7483 18.909 18.82 18.5857 18.82Z" fill="white"/>
<path fill-rule="evenodd" clip-rule="evenodd" d="M5 5H15V6H5V5ZM5 7H15V8H5V7ZM15 9H5V10H15V9ZM5 11H15V12H5V11ZM8 14H5V15H8V14ZM5 16H7V17H5V16ZM7 18H5V19H7V18Z" fill="white"/>
</svg>
