<svg xmlns="http://www.w3.org/2000/svg" xmlns:xlink="http://www.w3.org/1999/xlink" width="250" height="244"><defs><linearGradient id="b" x1="32.361%" x2="69.142%" y1="32.361%" y2="69.143%"><stop offset="0%" stop-color="#FFF"/><stop offset="100%" stop-color="#FFF"/></linearGradient><path id="a" d="M47.106 0H250v244H0z"/></defs><g fill="none" fill-rule="evenodd"><mask id="c" fill="#fff"><use xlink:href="#a"/></mask><use fill="#FF6444" xlink:href="#a"/><path fill="url(#b)" fill-opacity=".8" d="M585.163-45l-24.05 48.1-82.958 41.476-.11.059-41.536 83.069-82.958 41.476-.112.056-41.532 83.07-82.958 41.478-.111.056-41.535 83.07-82.958 41.476-.109.06-41.534 83.065-82.958 41.48-.112.055-41.534 83.07-48.098 24.05v.832l48.544-24.269.112-.058 41.532-83.067 82.958-41.479.111-.058 41.537-83.064 82.956-41.48.111-.055 41.535-83.072 82.958-41.476.111-.056L354 169.794l82.955-41.476.112-.058 41.535-83.07 82.955-41.478.112-.054L585.998-45h-.835zm-15.575 0l-18.86 37.717-82.956 41.476-.112.059-41.534 83.066-82.956 41.477-.111.058-41.535 83.07-82.958 41.478-.111.056-41.535 83.067-82.955 41.481-.112.056-41.537 83.067-82.958 41.479-.111.056-41.533 83.067L-110 634.588v.835l38.161-19.08.112-.055 41.532-83.07 82.96-41.478.11-.054 41.534-83.069 82.958-41.479.109-.056 41.537-83.067 82.955-41.478.112-.059 41.537-83.069 82.955-41.476.11-.056 41.534-83.07 82.958-41.476.112-.056L570.423-45h-.835zm-15.577 0l-13.664 27.334-82.96 41.476-.112.056-41.53 83.07-82.96 41.478-.112.056-41.534 83.07-82.956 41.476-.111.058-41.535 83.067-82.958 41.479-.111.056-41.533 83.072-82.957 41.476-.112.053-41.535 83.07L-110 619.014v.835l27.776-13.888.111-.056 41.537-83.07 82.956-41.478.111-.054 41.535-83.069 82.958-41.479.109-.058 41.535-83.067 82.957-41.479.11-.053 41.537-83.07 82.952-41.479.112-.055 41.537-83.07 82.96-41.476.11-.058L554.845-45h-.835zm-15.574 0l-8.473 16.95-82.958 41.477-.112.056-41.537 83.07L322.4 138.03l-.109.056-41.534 83.067-82.958 41.481-.112.054-41.532 83.069-82.958 41.476-.111.059-41.535 83.069-82.955 41.479-.112.056-41.537 83.067-16.946 8.475v.835l17.395-8.696.11-.059 41.534-83.067 82.958-41.478.109-.056 41.537-83.07 82.955-41.476.112-.056 41.534-83.07 82.958-41.478.112-.056 41.532-83.067 82.96-41.479.11-.058 41.534-83.07 82.958-41.476.111-.055L539.274-45h-.837zm-15.577 0l-3.282 6.565-82.958 41.48-.111.055-41.535 83.07-82.955 41.476-.112.058-41.537 83.067-82.955 41.479-.11.056-41.537 83.069-82.955 41.479-.111.056-41.538 83.067-82.955 41.478-.111.056-41.535 83.067-6.563 3.284v.835l7.121-3.56 41.535-83.07 82.957-41.479.11-.053 41.534-83.067 82.958-41.479.112-.058 41.534-83.067 82.956-41.48.111-.057 41.537-83.067 82.956-41.48.111-.052 41.535-83.07 82.958-41.479.111-.056 3.56-7.123h-.836zm-21.3 0L426.234-7.339l-.11.056-41.532 83.07-82.96 41.478-.109.053-41.537 83.07-82.955 41.476-.112.059-41.535 83.066-82.957 41.48-.112.055-41.532 83.072-82.958 41.476-.112.056L-110 566.555v1.674l38.273-76.543 82.955-41.476.112-.06 41.534-83.068 82.958-41.479.112-.055 41.532-83.07 82.958-41.476.111-.056 41.535-83.07 82.958-41.478.111-.056 41.535-83.067L503.229-45h-1.67zm-31.152 0l-54.554 27.276-.109.058L374.208 65.4l-82.958 41.48-.111.055-41.533 83.07-82.957 41.479-.112.055-41.535 83.067-82.957 41.477-.11.058-41.537 83.07-82.955 41.478-.112.059L-110 535.405v1.673l27.887-55.775L.845 439.824l.11-.058 41.536-83.07 82.956-41.476.111-.055 41.535-83.067 82.96-41.482.112-.055 41.53-83.067 82.96-41.48.111-.057 41.53-83.067L472.083-45h-1.675zm-31.154 0l-33.785 16.895-.112.056-41.532 83.067-82.958 41.476-.111.058-41.533 83.067-82.957 41.482-.112.053-41.537 83.07-82.955 41.478-.112.056-41.535 83.067-82.957 41.479-.112.058L-110 504.254v1.674l17.504-35.01 82.958-41.479.111-.056 41.533-83.067 82.957-41.479.112-.058 41.535-83.067 82.957-41.479.112-.055 41.535-83.07 82.955-41.476.112-.056 41.534-83.07L440.931-45h-1.677zm-31.15 0l-13.018 6.51-.112.055-41.535 83.07-82.955 41.478-.111.056-41.535 83.067-82.958 41.48-.112.055-41.532 83.067-82.96 41.479-.112.058-41.532 83.067-82.958 41.479-.111.056-6.563 13.125v1.675l7.121-14.242 82.955-41.48.112-.052 41.535-83.072 82.96-41.48.111-.055 41.533-83.07 82.957-41.476.112-.056 41.532-83.066 82.96-41.48.112-.058 41.532-83.067L409.777-45h-1.672zm-25.42 0l-39.625 79.252-82.96 41.478-.112.056-41.532 83.067-82.958 41.479-.112.056-41.532 83.07-82.958 41.476-.111.055-41.537 83.072L-110 447.683v.838l79.693-39.848.112-.056 41.535-83.07 82.957-41.478.112-.054 41.535-83.069 82.957-41.479.112-.058 41.532-83.067 82.96-41.479.112-.056L383.518-45h-.835zm-15.578 0l-34.433 68.866-82.955 41.479-.112.056-41.534 83.07-82.958 41.476-.112.058-41.534 83.07L.51 314.552l-.112.053-41.532 83.07L-110 432.109v.837l69.313-34.659.111-.053 41.53-83.07 82.96-41.476.112-.058 41.532-83.07 82.958-41.478.112-.054 41.537-83.071L333.12 24.48l.112-.056L367.944-45h-.838zm-15.574 0L322.29 13.483l-82.955 41.479-.112.056-41.537 83.069-82.958 41.479-.111.053-41.532 83.07-82.958 41.476-.112.058-41.532 83.07L-110 416.532v.837l58.927-29.465.112-.056 41.534-83.069 82.958-41.476.112-.056 41.532-83.07 82.958-41.478.111-.054 41.538-83.07 82.952-41.478.112-.058L352.366-45h-.834zm-15.575 0l-24.05 48.1-82.958 41.476-.111.059-41.532 83.069-82.96 41.476-.11.056-41.534 83.07-82.958 41.478-.112.056-41.534 83.07L-110 400.957v.837l48.544-24.27.112-.056 41.532-83.072 82.958-41.476.111-.056 41.537-83.07 82.956-41.476.111-.058 41.535-83.07 82.958-41.478.111-.054L336.792-45h-.835zm-15.577 0L301.524-7.283l-82.958 41.476-.111.059-41.535 83.066-82.955 41.477-.112.058-41.537 83.07-82.958 41.478-.111.056-41.533 83.067L-110 385.383v.837l38.161-19.082.112-.056 41.532-83.067 82.96-41.478.11-.059 41.534-83.069 82.958-41.476.109-.056 41.537-83.07 82.955-41.476.112-.056L321.217-45h-.837zm-15.574 0l-13.667 27.334-82.956 41.476-.111.056-41.535 83.07-82.958 41.478-.111.056-41.533 83.07-82.957 41.476-.112.058-41.535 83.067L-110 369.806v.84l27.776-13.89.111-.06 41.537-83.066 82.956-41.48.111-.053 41.535-83.07 82.958-41.479.109-.055 41.535-83.07 82.957-41.476.11-.058L305.642-45h-.837zm-15.577 0l-8.473 16.95-82.958 41.477-.112.056-41.532 83.07-82.958 41.478-.111.056-41.535 83.067-82.955 41.481-.112.054-41.537 83.069-16.946 8.473v.837l17.395-8.696.11-.056 41.534-83.07 82.958-41.478.109-.056 41.537-83.067 82.955-41.479.112-.058 41.534-83.07 82.958-41.476.112-.055L290.066-45h-.837zm-15.575 0l-3.281 6.565-82.958 41.48-.11.055-41.537 83.07-82.955 41.476-.111.058-41.538 83.067-82.955 41.479-.111.056-41.535 83.069-6.563 3.281v.838l7.121-3.563 41.535-83.067 82.957-41.48.11-.057 41.534-83.067 82.958-41.48.112-.052 41.534-83.07 82.956-41.479.111-.056L274.491-45h-.837zm-21.303 0l-75.32 37.661-.11.056-41.536 83.07-82.957 41.478-.112.053-41.532 83.07-82.958 41.476-.112.059L-110 317.35v1.673l38.273-76.546 82.955-41.476.112-.056 41.534-83.07 82.958-41.478.112-.056 41.532-83.067L254.024-45h-1.673zm-31.149 0L166.65-17.724l-.112.058L125.002 65.4l-82.957 41.48-.11.055-41.537 83.07-82.955 41.479-.112.055L-110 286.2v1.673l27.887-55.774L.845 190.616l.11-.055 41.536-83.067 82.956-41.48.111-.057 41.535-83.067L222.874-45h-1.672zm-31.151 0l-33.785 16.895-.112.056-41.537 83.067-82.955 41.476-.112.058-41.535 83.067-82.957 41.482-.112.053L-110 255.051v1.672l17.504-35.01 82.958-41.48.111-.055 41.533-83.07 82.957-41.476.112-.056 41.535-83.07L191.723-45h-1.672zm-31.15 0l-13.02 6.51-.113.055-41.532 83.07-82.96 41.478-.112.056-41.532 83.067-82.958 41.48-.111.055-6.563 13.128v1.672l7.121-14.244 82.955-41.477.112-.056 41.535-83.066 82.96-41.48.111-.058 41.533-83.067L160.57-45h-1.67zm-25.423 0L93.853 34.252 10.895 75.73l-.111.056-41.537 83.067L-110 198.478v.835l79.693-39.846.112-.058L11.34 76.342l82.957-41.479.112-.056L134.313-45h-.835zM117.9-45L83.468 23.866.51 65.345l-.112.056-41.532 83.07L-110 182.902v.835l69.313-34.656.111-.054 41.53-83.07 82.96-41.477.112-.056L118.736-45h-.835zm-15.575 0l-29.24 58.483-82.958 41.479-.112.056-41.532 83.069L-110 167.329v.834l58.927-29.464.112-.054 41.534-83.07 82.958-41.478.112-.058L103.163-45h-.837zM86.75-45L62.702 3.1l-82.958 41.476-.112.059-41.534 83.069L-110 151.752v.834l48.544-24.268.112-.058 41.532-83.07L63.146 3.712l.111-.054L87.587-45h-.838zm-15.575 0L52.316-7.283l-82.958 41.476-.111.059-41.533 83.066L-110 136.177v.835l38.161-19.08.112-.055 41.532-83.07 82.96-41.476.11-.056L72.011-45h-.838zM55.6-45L41.935-17.666-41.022 23.81l-.112.056-41.535 83.07L-110 120.601v.838l27.776-13.89.111-.056 41.537-83.07L42.38-17.052l.111-.058L56.437-45H55.6zm-15.575 0L31.55-28.05l-82.955 41.477-.112.056-41.537 83.07-16.946 8.472v.838l17.395-8.697.11-.058 41.534-83.07 82.958-41.476.109-.055L40.863-45h-.838zm-15.574 0l-3.287 6.565-82.955 41.48-.111.055-41.535 83.07-6.563 3.28v.838l7.121-3.56 41.535-83.07L21.613-37.82l.11-.056L25.286-45h-.835zM3.143-45L-72.174-7.339l-.112.056L-110 68.143v1.675l38.273-76.543L4.82-45H3.143zm-31.149 0l-54.551 27.276-.112.058L-110 36.994v1.672l27.887-55.776L-26.333-45h-1.673zm-31.149 0l-33.787 16.895-.112.056L-110 5.843v1.672l17.504-35.008L-57.483-45h-1.672zm-31.152 0l-13.019 6.51-.111.055L-110-25.309v1.675l7.121-14.243L-88.632-45h-1.675zm661.803 58.483l-82.958 41.479-.111.056-41.533 83.069-82.96 41.479-.11.053-41.534 83.07-82.955 41.476-.112.058-41.537 83.07-82.958 41.476-.111.056-41.532 83.072-82.958 41.476-.112.056-41.532 83.07L-86.523 654h1.675l33.775-16.888.112-.055 41.534-83.07 82.958-41.479.112-.056 41.532-83.069 82.958-41.479.111-.056 41.535-83.069 82.955-41.476.112-.056 41.535-83.07 82.957-41.478.112-.054 41.535-83.07 82.957-41.478.112-.058L589-19.851v-1.672l-17.504 35.006zm10.383 10.383l-82.955 41.479-.112.056-41.537 83.07-82.955 41.476-.112.058-41.535 83.07-82.955 41.478-.112.053-41.534 83.07-82.958 41.479-.112.055-41.534 83.067L.51 563.757l-.112.057-41.532 83.067L-55.37 654h1.672l13.012-6.505.111-.058L.954 564.37l82.96-41.479.112-.055 41.532-83.07 82.958-41.479.112-.053 41.537-83.07 82.955-41.476.112-.058 41.534-83.07 82.955-41.478.112-.054 41.535-83.071 82.958-41.477.111-.056L589 11.301V9.626l-7.121 14.24zM509.307 75.73l-.112.056-41.535 83.067-82.955 41.479-.112.056-41.534 83.067-82.96 41.479-.112.055-41.532 83.072-82.958 41.474-.112.06-41.532 83.068-82.958 41.479-.111.053L-29.12 654h.837l39.623-79.247 82.957-41.476.112-.058 41.535-83.07 82.957-41.476.112-.056 41.532-83.07 82.96-41.478.112-.054 41.532-83.069 82.958-41.479.11-.058 41.536-83.067L589 36.717v-.837l-79.693 39.85zm10.383 10.383l-.112.056-41.532 83.067-82.96 41.48-.112.055-41.535 83.07-82.955 41.476-.111.058-41.535 83.067-82.958 41.479-.112.056-41.532 83.069-82.96 41.479-.112.053L-13.546 654h.838l34.43-68.864 82.96-41.476.112-.056 41.533-83.07 82.957-41.478.112-.053 41.532-83.072 82.96-41.48.112-.055 41.535-83.07 82.955-41.476.112-.056 41.534-83.066L589 52.294v-.837l-69.31 34.656zm10.385 10.381l-.111.058-41.54 83.067-82.955 41.482-.112.053-41.532 83.07-82.958 41.478-.111.056-41.533 83.064-82.957 41.482-.112.058-41.537 83.067-82.955 41.479-.112.056L2.032 654h.837l29.237-58.48 82.957-41.477.112-.056 41.535-83.07 82.957-41.478.112-.056 41.535-83.064 82.955-41.482.112-.058 41.534-83.067 82.958-41.479.112-.055 41.534-83.07L589 67.87v-.837l-58.925 29.462zm10.38 10.386l-.108.055-41.535 83.07-82.958 41.479-.109.055-41.537 83.067-82.958 41.477-.111.058-41.533 83.07-82.957 41.478-.112.059-41.535 83.066-82.957 41.48-.11.053L17.606 654h.84l24.045-48.095 82.956-41.477.111-.058 41.535-83.067 82.96-41.479.112-.058 41.53-83.07 82.96-41.476.111-.055 41.53-83.067 82.96-41.482.112-.055 41.534-83.067L589 83.444v-.838l-48.544 24.274zm10.384 10.385l-.112.053-41.532 83.067-82.96 41.48-.11.058-41.532 83.066-82.96 41.48-.109.055-41.537 83.067-82.955 41.481-.112.056-41.535 83.067-82.957 41.479-.112.056L33.183 654h.838l18.856-37.712 82.955-41.479.112-.056 41.534-83.067 82.956-41.476.111-.06 41.535-83.068 82.958-41.479.111-.055 41.533-83.07 82.96-41.476.111-.056 41.533-83.07L589 99.022v-.838l-38.161 19.082zm10.385 10.38l-.111.059-41.535 83.067-82.958 41.479-.111.056-41.535 83.069-82.955 41.479-.112.056-41.534 83.067-82.958 41.478-.11.056-41.537 83.067-82.955 41.479-.111.058L48.756 654h.84l13.661-27.329 82.958-41.479.112-.056 41.534-83.069 82.956-41.479.111-.053 41.537-83.067 82.956-41.479.111-.058 41.535-83.067 82.958-41.48.111-.057 41.535-83.067L589 114.595v-.837l-27.776 13.888zm10.384 10.386l-.112.056-41.535 83.067-82.955 41.481-.112.054-41.537 83.069-82.958 41.476-.109.059-41.534 83.069-82.958 41.479-.112.056-41.532 83.067-82.958 41.478-.111.056L64.333 654h.84l8.47-16.943 82.955-41.48.112-.058 41.534-83.067 82.958-41.478.112-.056 41.532-83.07 82.96-41.476.11-.056 41.534-83.067 82.958-41.481.111-.056 41.535-83.067L589 130.17v-.837l-17.392 8.698zm10.383 10.383l-.112.056-41.532 83.07-82.96 41.476-.112.058-41.53 83.067-82.96 41.479-.112.056-41.537 83.072-82.953 41.476-.111.053-41.535 83.07-82.958 41.479-.111.055L79.91 654h.837l3.279-6.563 82.958-41.476.109-.056 41.535-83.07 82.957-41.478.11-.054 41.537-83.069 82.952-41.479.112-.058 41.537-83.067 82.96-41.479.11-.053 41.534-83.07 6.563-3.281v-.837l-7.01 3.504zm-31.264 93.509L467.772 283.4l-.112.056-41.534 83.067-82.956 41.481-.111.056-41.535 83.067-82.958 41.479-.111.056-41.535 83.067L100.382 654h1.672l75.313-37.656.109-.056 41.537-83.067 82.955-41.481.112-.054 41.537-83.069 82.955-41.479.11-.056 41.534-83.067 82.958-41.478.112-.059L589 167.052v-1.672l-38.273 76.543zm10.386 10.383l-82.958 41.478-.11.056-41.536 83.07-82.958 41.476-.112.06-41.532 83.065-82.958 41.48-.111.055-41.532 83.07L131.53 654h1.672l54.547-27.27.111-.059 41.535-83.067 82.958-41.479.111-.058L354 419.003l82.955-41.48.112-.055 41.535-83.072 82.955-41.476.112-.056L589 198.204v-1.673l-27.887 55.775zm10.383 10.383l-82.958 41.476-.111.058-41.533 83.07-82.96 41.476-.11.056-41.534 83.072-82.955 41.476-.112.056-41.537 83.07L162.683 654h1.672l33.778-16.888.111-.055 41.535-83.07 82.955-41.479.112-.056 41.535-83.069 82.957-41.479.112-.056 41.535-83.069 82.957-41.476.112-.056L589 229.353v-1.67l-17.504 35.006zm10.383 10.385l-82.955 41.479-.112.053-41.537 83.07-82.955 41.479-.112.055-41.535 83.067-82.955 41.48-.112.057-41.534 83.067L193.837 654h1.67l13.009-6.505.112-.058 41.537-83.067 82.955-41.479.112-.055 41.534-83.07 82.955-41.479.112-.053 41.535-83.07 82.958-41.476.111-.058L589 260.504v-1.67l-7.121 14.24zm-72.572 51.86l-.112.055-41.535 83.072-82.955 41.474-.112.06-41.534 83.068-82.96 41.479-.112.053L220.088 654h.835l39.622-79.247 82.96-41.476.112-.058 41.532-83.07 82.958-41.476.11-.056 41.536-83.07L589 285.924v-.835l-79.693 39.846zm10.383 10.383l-.112.058-41.532 83.072-82.96 41.474-.112.056-41.535 83.069-82.955 41.479-.111.053L235.662 654h.835l34.43-68.864 82.96-41.476.112-.056 41.532-83.07 82.958-41.478.112-.053 41.534-83.072L589 301.5v-.836l-69.31 34.652zm10.385 10.385l-.111.056-41.537 83.067-82.958 41.479-.112.058-41.532 83.067-82.958 41.479-.111.056L251.237 654h.835l29.242-58.48 82.955-41.477.112-.056 41.534-83.07 82.958-41.478.112-.056 41.534-83.067L589 317.075v-.835l-58.925 29.462zm10.38 10.38l-.108.06-41.535 83.068-82.958 41.48-.109.058-41.537 83.066-82.958 41.48-.111.053L266.812 654h.837l24.045-48.095 82.96-41.477.112-.058 41.53-83.067 82.96-41.479.112-.058 41.534-83.07L589 332.65v-.835l-48.544 24.269zm10.384 10.386l-.112.056-41.532 83.072-82.96 41.476-.11.056-41.532 83.067-82.96 41.479-.109.056L282.39 654h.835l18.856-37.712 82.958-41.479.111-.056 41.533-83.067 82.96-41.476.111-.06 41.533-83.068L589 348.224v-.835l-38.161 19.08zm10.385 10.386l-.111.056-41.535 83.067-82.958 41.478-.111.056-41.535 83.067-82.955 41.479-.112.058L297.964 654h.834l13.667-27.329 82.956-41.479.111-.056 41.535-83.069 82.958-41.479.111-.053 41.533-83.067L589 363.8v-.835l-27.776 13.888zm10.384 10.38l-.112.059-41.532 83.069-82.958 41.479-.112.056-41.537 83.067-82.958 41.478-.109.056L313.538 654h.835l8.473-16.943 82.96-41.48.11-.058 41.534-83.067 82.958-41.478.111-.056 41.535-83.07L589 379.376v-.838l-17.392 8.696zm10.383 10.386l-.112.056-41.532 83.072-82.96 41.476-.112.053-41.53 83.07-82.96 41.479-.112.055-3.558 7.119h.835l3.282-6.563 82.952-41.476.112-.056 41.537-83.07 82.96-41.478.11-.054 41.534-83.069L589 394.95v-.835l-7.01 3.505zm-31.264 93.508l-82.955 41.479-.112.056-41.534 83.067L349.588 654h1.674l75.31-37.656.11-.056 41.534-83.07 82.958-41.478.112-.054L589 416.26v-1.675l-38.273 76.543zm10.386 10.383l-82.958 41.48-.11.055-41.536 83.07L380.737 654h1.675l54.543-27.27.112-.059 41.535-83.067 82.955-41.479.112-.058L589 447.412v-1.675l-27.887 55.774zm10.383 10.386l-82.958 41.476-.111.056-41.533 83.07L411.888 654h1.673l33.777-16.888.112-.055 41.535-83.07 82.957-41.479.112-.056L589 478.561v-1.675l-17.504 35.01zm10.383 10.38l-82.955 41.48-.112.057-41.537 83.067L443.04 654h1.672l13.01-6.505.111-.058 41.535-83.067 82.958-41.479.111-.055L589 509.71v-1.672l-7.121 14.24zm-72.572 51.865l-.112.053L469.294 654h.837l39.622-79.247L589 535.133v-.837l-79.693 39.846zm10.383 10.383l-.112.053L484.868 654h.838l34.43-68.864L589 550.708v-.837l-69.31 34.654zm10.385 10.383l-.111.056L500.443 654h.837l29.24-58.48L589 566.282v-.838l-58.925 29.463zm10.38 10.385l-.108.054L516.02 654h.837l24.045-48.095L589 581.857v-.835l-48.544 24.271zm10.384 10.38l-.112.057L531.595 654h.837l18.854-37.712L589 597.434v-.837l-38.161 19.077zm10.385 10.384l-.111.058L547.169 654h.84l13.66-27.329L589 613.009v-.837l-27.776 13.885zm10.384 10.385l-.112.056-8.75 17.502h.838l8.47-16.943L589 628.584v-.838l-17.392 8.696zm10.383 10.384l-.112.055L578.32 654h.837l3.28-6.563 6.562-3.279v-.835l-7.01 3.503z" mask="url(#c)" opacity=".217"/></g></svg>