<svg xmlns="http://www.w3.org/2000/svg" width="24" height="24" viewBox="0 0 24 24">
    <g fill="none" fill-rule="evenodd">
        <g>
            <g>
                <g>
                    <g>
                        <path fill="#FF6444" fill-rule="nonzero" d="M0 1.5C0 .672.672 0 1.5 0h21c.828 0 1.5.672 1.5 1.5v21c0 .828-.672 1.5-1.5 1.5h-21C.672 24 0 23.328 0 22.5v-21z" transform="translate(-296 -4288) translate(0 3993) translate(16 279) translate(280 16)"/>
                        <path fill="#1A1A1A" fill-rule="nonzero" d="M0 1.5C0 .672.672 0 1.5 0h21c.828 0 1.5.672 1.5 1.5v6H0v-6z" transform="translate(-296 -4288) translate(0 3993) translate(16 279) translate(280 16)"/>
                        <g fill="#FFF" fill-rule="nonzero">
                            <path d="M6.274.182L5.086.182 6.021 2.186 4.378 4.189 5.567 4.189 7.209 2.186zM7.798.182L9 .182 7.575 1.904 7.144.98zM7.09 4.189L6.718 3.392 7.475 2.468 8.278 4.189zM.987.182l1.537 2.004L.06 4.189H2.55c.353 0 .695-.12.971-.34.276-.218.47-.525.55-.868l.205-.891c.053-.228.054-.466.002-.694-.052-.229-.155-.443-.3-.626C3.83.587 3.644.439 3.433.337 3.223.235 2.99.182 2.756.182H.987z" transform="translate(-296 -4288) translate(0 3993) translate(16 279) translate(280 16) translate(7.5 1.5)"/>
                        </g>
                        <path fill="#FFF" d="M4.181 19.444c.576.575 1.509.575 2.084 0 .449-.45.542-1.114.29-1.659l3.355-3.354c.391.18.842.18 1.233 0l2.029 2.028c-.252.545-.158 1.21.29 1.659.576.575 1.509.575 2.084 0 .449-.45.543-1.114.291-1.659l2.029-2.028c.544.251 1.209.158 1.658-.291.575-.575.575-1.508 0-2.084-.576-.575-1.508-.575-2.084 0-.449.45-.542 1.114-.29 1.659l-2.029 2.028c-.391-.18-.842-.18-1.233 0l-2.028-2.028c.251-.545.157-1.21-.291-1.659-.576-.575-1.509-.575-2.084 0-.449.45-.542 1.114-.29 1.659L5.84 17.069c-.545-.251-1.21-.158-1.659.291-.575.575-.575 1.508 0 2.084z" transform="translate(-296 -4288) translate(0 3993) translate(16 279) translate(280 16)"/>
                    </g>
                </g>
            </g>
        </g>
    </g>
</svg>
