<svg xmlns="http://www.w3.org/2000/svg" width="24" height="24" viewBox="0 0 24 24">
    <g fill="none" fill-rule="evenodd">
        <g fill-rule="nonzero">
            <g>
                <g>
                    <g>
                        <path fill="#85ACB0" d="M0 1.5C0 .672.672 0 1.5 0h21c.828 0 1.5.672 1.5 1.5v21c0 .828-.672 1.5-1.5 1.5h-21C.672 24 0 23.328 0 22.5v-21z" transform="translate(-296 -4104) translate(0 3993) translate(16 94) translate(280 17)"/>
                        <path fill="#1A1A1A" d="M0 1.5C0 .672.672 0 1.5 0h21c.828 0 1.5.672 1.5 1.5v6H0v-6z" transform="translate(-296 -4104) translate(0 3993) translate(16 94) translate(280 17)"/>
                        <g fill="#FFF">
                            <path d="M6.274.182L5.086.182 6.021 2.186 4.378 4.189 5.567 4.189 7.209 2.186zM7.798.182L9 .182 7.574 1.904 7.144.98zM7.089 4.189L6.718 3.392 7.475 2.468 8.278 4.189zM.987.182l1.537 2.004L.06 4.189H2.55c.353 0 .695-.12.971-.34.276-.218.47-.525.55-.868l.205-.891c.053-.228.054-.466.002-.694-.052-.229-.155-.443-.3-.626C3.83.587 3.644.439 3.433.337 3.223.235 2.99.182 2.756.182H.987z" transform="translate(-296 -4104) translate(0 3993) translate(16 94) translate(280 17) translate(7.5 1.5)"/>
                        </g>
                        <path fill="#FFF" d="M18.68 15.269l-2.911-5.039c-.084-.146-.205-.267-.351-.351-.146-.085-.312-.129-.48-.129H9.12c-.169 0-.335.044-.48.129-.147.084-.269.205-.353.351l-2.91 5.039c-.082.146-.126.312-.126.48 0 .168.044.334.127.48l2.909 5.04c.085.146.206.267.352.352.147.084.312.129.481.129h5.818c.168 0 .334-.045.48-.13.145-.084.267-.205.351-.35l2.91-5.04c.084-.147.128-.313.128-.481 0-.168-.044-.334-.127-.48zm-3.525 1.016h2.257l-2.223 3.846-2.193-3.846h1.234l.536-1.072h-1.808l2.225-3.854 2.229 3.854h-1.72l-.537 1.072zm-3.098-1.656l-.768-1.342-.698.939.565.987h-4.51l2.273-3.93 1.21 2.121.704-.939-.943-1.642h4.364l-2.197 3.806zm-1.334 4.453l-.598-1.092-1.256 2.151-2.223-3.856h4.456l-.487.878.598 1.092.844-1.47 2.213 3.892H9.804l.919-1.595z" transform="translate(-296 -4104) translate(0 3993) translate(16 94) translate(280 17)"/>
                    </g>
                </g>
            </g>
        </g>
    </g>
</svg>
