<svg xmlns="http://www.w3.org/2000/svg" width="64" height="64" viewBox="0 0 64 64">
    <g fill="none" fill-rule="evenodd">
        <g fill="#FF6444">
            <g>
                <g>
                    <g transform="translate(-144 -1322) translate(0 1118) translate(120 180) translate(24 24)">
                        <circle cx="32" cy="32" r="32" fill-opacity=".08" fill-rule="nonzero"/>
                        <path fill-opacity=".48" d="M25.333 40C26.806 40 28 41.194 28 42.667v2.666C28 46.806 26.806 48 25.333 48h-6.666C17.194 48 16 46.806 16 45.333v-2.666C16 41.194 17.194 40 18.667 40h6.666zm20-8C46.806 32 48 33.194 48 34.667v10.666C48 46.806 46.806 48 45.333 48H32.667C31.194 48 30 46.806 30 45.333V34.667C30 33.194 31.194 32 32.667 32h12.666zm-20-16C26.806 16 28 17.194 28 18.667v16.666C28 36.806 26.806 38 25.333 38h-6.666C17.194 38 16 36.806 16 35.333V18.667C16 17.194 17.194 16 18.667 16h6.666z"/>
                        <rect width="18" height="14" x="30" y="16" fill-rule="nonzero" rx="2.667"/>
                    </g>
                </g>
            </g>
        </g>
    </g>
</svg>
