<svg width="80" height="16" viewBox="0 0 80 16" fill="none" xmlns="http://www.w3.org/2000/svg"><path d="M7.99999 11.6798L10.7667 13.3531C11.2733 13.6598 11.8933 13.2064 11.76 12.6331L11.0267 9.48643L13.4733 7.36643C13.92 6.97976 13.68 6.24643 13.0933 6.19976L9.87332 5.92643L8.61332 2.9531C8.38665 2.4131 7.61332 2.4131 7.38665 2.9531L6.12665 5.91976L2.90665 6.1931C2.31999 6.23976 2.07999 6.9731 2.52665 7.35976L4.97332 9.47976L4.23999 12.6264C4.10665 13.1998 4.72665 13.6531 5.23332 13.3464L7.99999 11.6798Z" fill="#333333"/><path d="M24 11.6798L26.7667 13.3531C27.2733 13.6598 27.8933 13.2064 27.76 12.6331L27.0267 9.48643L29.4733 7.36643C29.92 6.97976 29.68 6.24643 29.0933 6.19976L25.8733 5.92643L24.6133 2.9531C24.3867 2.4131 23.6133 2.4131 23.3867 2.9531L22.1267 5.91976L18.9067 6.1931C18.32 6.23976 18.08 6.9731 18.5267 7.35976L20.9733 9.47976L20.24 12.6264C20.1067 13.1998 20.7267 13.6531 21.2333 13.3464L24 11.6798Z" fill="#333333"/><path d="M40 11.6798L42.7667 13.3531C43.2733 13.6598 43.8933 13.2064 43.76 12.6331L43.0267 9.48643L45.4733 7.36643C45.92 6.97976 45.68 6.24643 45.0933 6.19976L41.8733 5.92643L40.6133 2.9531C40.3867 2.4131 39.6133 2.4131 39.3867 2.9531L38.1267 5.91976L34.9067 6.1931C34.32 6.23976 34.08 6.9731 34.5267 7.35976L36.9733 9.47976L36.24 12.6264C36.1067 13.1998 36.7267 13.6531 37.2333 13.3464L40 11.6798Z" fill="#333333"/><path d="M56 11.6798L58.7667 13.3531C59.2733 13.6598 59.8933 13.2064 59.76 12.6331L59.0267 9.48643L61.4733 7.36643C61.92 6.97976 61.68 6.24643 61.0933 6.19976L57.8733 5.92643L56.6133 2.9531C56.3867 2.4131 55.6133 2.4131 55.3867 2.9531L54.1267 5.91976L50.9067 6.1931C50.32 6.23976 50.08 6.9731 50.5267 7.35976L52.9733 9.47976L52.24 12.6264C52.1067 13.1998 52.7267 13.6531 53.2333 13.3464L56 11.6798Z" fill="#333333"/><path fill-rule="evenodd" clip-rule="evenodd" d="M73.8723 5.91634L77.099 6.19634C77.6857 6.24301 77.919 6.97634 77.4723 7.36301L75.0257 9.48301L75.759 12.6363C75.8923 13.2097 75.2723 13.663 74.7657 13.3563L71.999 11.683L69.2323 13.3497C68.7257 13.6563 68.1057 13.203 68.239 12.6297L68.9723 9.48301L66.5257 7.36301C66.079 6.97634 66.319 6.24301 66.9057 6.19634L70.1257 5.92301L71.3857 2.94968C71.6123 2.40968 72.3857 2.40968 72.6123 2.94968L73.8723 5.91634ZM69.4923 11.9497L71.999 10.4363L74.5123 11.9563L73.8457 9.10301L76.059 7.18301L73.139 6.92968L71.999 4.23634L70.8657 6.92301L67.9457 7.17634L70.159 9.09634L69.4923 11.9497Z" fill="#333333"/></svg>