<svg width="148" height="64" viewBox="0 0 148 64" fill="none" xmlns="http://www.w3.org/2000/svg">
<path d="M12 0.000976562C5.37258 0.000976562 0 5.37356 0 12.001V12.3495L59.8288 2.90626C57.7273 1.09564 54.9915 0.000976562 52 0.000976562H12Z" fill="#E12E3A"/>
<path d="M61.0638 4.13646L50.0887 64.0008L50.9401 64.0009H52C58.6274 64.0009 64 58.6284 64 52.0009V12.001C64 8.9925 62.8929 6.2426 61.0638 4.13646Z" fill="#E12E3A"/>
<path d="M0 12.3495V52.0009C0 58.6283 5.37258 64.0009 12 64.0009L50.9401 64.0009L50.0887 64.0008L61.0638 4.13646C60.6824 3.69723 60.2696 3.286 59.8288 2.90626L0 12.3495Z" fill="#FF444F"/>
<path d="M16.0762 22.9919C18.7628 22.9919 20.8255 23.4686 22.2642 24.4219C23.7028 25.3579 24.4222 26.9006 24.4222 29.0499C24.4222 31.2166 23.6942 32.7853 22.2382 33.7559C20.7822 34.7093 18.7022 35.1859 15.9982 35.1859H14.7242V41.2179H10.6682V23.4599C11.5522 23.2866 12.4882 23.1653 13.4762 23.0959C14.4642 23.0266 15.3308 22.9919 16.0762 22.9919ZM16.3362 26.4499C16.0415 26.4499 15.7468 26.4586 15.4522 26.4759C15.1748 26.4933 14.9322 26.5106 14.7242 26.5279V31.7279H15.9982C17.4022 31.7279 18.4595 31.5373 19.1702 31.1559C19.8808 30.7746 20.2362 30.0639 20.2362 29.0239C20.2362 28.5213 20.1408 28.1053 19.9502 27.7759C19.7768 27.4466 19.5168 27.1866 19.1702 26.9959C18.8408 26.7879 18.4335 26.6493 17.9482 26.5799C17.4628 26.4933 16.9255 26.4499 16.3362 26.4499Z" fill="white"/>
<path d="M36.9166 27.9319C36.9166 28.5906 36.7866 29.2233 36.5266 29.8299C36.2666 30.4366 35.9286 31.0259 35.5126 31.5979C35.0966 32.1526 34.6286 32.6899 34.1086 33.2099C33.5886 33.7299 33.0773 34.2239 32.5746 34.6919C32.3146 34.9346 32.0286 35.2119 31.7166 35.5239C31.4219 35.8186 31.1359 36.1219 30.8586 36.4339C30.5813 36.7459 30.3299 37.0406 30.1046 37.3179C29.8966 37.5779 29.7666 37.7946 29.7146 37.9679H37.4626V41.2179H25.4506C25.4159 41.0273 25.3986 40.7846 25.3986 40.4899C25.3986 40.1953 25.3986 39.9873 25.3986 39.8659C25.3986 39.0339 25.5286 38.2713 25.7886 37.5779C26.0659 36.8846 26.4213 36.2433 26.8546 35.6539C27.2879 35.0473 27.7733 34.4839 28.3106 33.9639C28.8653 33.4439 29.4113 32.9239 29.9486 32.4039C30.3646 32.0053 30.7546 31.6326 31.1186 31.2859C31.4826 30.9219 31.8033 30.5753 32.0806 30.2459C32.3579 29.8993 32.5746 29.5613 32.7306 29.2319C32.8866 28.8853 32.9646 28.5386 32.9646 28.1919C32.9646 27.4293 32.7479 26.8919 32.3146 26.5799C31.8813 26.2679 31.3439 26.1119 30.7026 26.1119C30.2346 26.1119 29.7926 26.1899 29.3766 26.3459C28.9779 26.4846 28.6053 26.6579 28.2586 26.8659C27.9293 27.0566 27.6433 27.2559 27.4006 27.4639C27.1579 27.6546 26.9759 27.8106 26.8546 27.9319L24.9306 25.2279C25.6933 24.5173 26.5773 23.9366 27.5826 23.4859C28.6053 23.0179 29.6973 22.7839 30.8586 22.7839C31.9159 22.7839 32.8259 22.9053 33.5886 23.1479C34.3512 23.3906 34.9753 23.7373 35.4606 24.1879C35.9632 24.6213 36.3272 25.1586 36.5526 25.7999C36.7952 26.4239 36.9166 27.1346 36.9166 27.9319Z" fill="white"/>
<path d="M44.9859 22.9919C47.6726 22.9919 49.7352 23.4686 51.1739 24.4219C52.6126 25.3579 53.3319 26.9006 53.3319 29.0499C53.3319 31.2166 52.6039 32.7853 51.1479 33.7559C49.6919 34.7093 47.6119 35.1859 44.9079 35.1859H43.6339V41.2179H39.5779V23.4599C40.4619 23.2866 41.3979 23.1653 42.3859 23.0959C43.3739 23.0266 44.2406 22.9919 44.9859 22.9919ZM45.2459 26.4499C44.9513 26.4499 44.6566 26.4586 44.3619 26.4759C44.0846 26.4933 43.8419 26.5106 43.6339 26.5279V31.7279H44.9079C46.3119 31.7279 47.3692 31.5373 48.0799 31.1559C48.7906 30.7746 49.1459 30.0639 49.1459 29.0239C49.1459 28.5213 49.0506 28.1053 48.8599 27.7759C48.6866 27.4466 48.4266 27.1866 48.0799 26.9959C47.7506 26.7879 47.3433 26.6493 46.8579 26.5799C46.3726 26.4933 45.8353 26.4499 45.2459 26.4499Z" fill="white"/>
<path fill-rule="evenodd" clip-rule="evenodd" d="M88.4434 6.66436L87.6557 11.1314H84.9215C82.3707 11.1314 79.9393 13.1981 79.4887 15.749L79.2979 16.8348C78.8494 19.3857 80.5513 21.4525 83.1022 21.4525H85.3826C87.2418 21.4525 89.0129 19.9474 89.3399 18.0883L91.4401 6.18262L88.4434 6.66436ZM86.5033 17.667C86.4027 18.2413 85.8857 18.7087 85.3114 18.7087H83.9259C82.7794 18.7087 82.0123 17.778 82.2135 16.6294L82.3329 15.9524C82.5363 14.8058 83.6304 13.8731 84.7769 13.8731H87.1723L86.5033 17.667Z" fill="#414652"/>
<path d="M109.501 21.4534H112.339L114.133 11.2749H111.296L109.501 21.4534Z" fill="#414652"/>
<path d="M109.595 12.6013L109.595 12.5991C109.666 12.1966 109.737 11.7941 109.808 11.3917C106.896 10.6413 104.628 11.4176 103.704 11.8001C103.704 11.8001 102.387 19.2685 102.001 21.4554H104.841C105.302 18.8418 105.763 16.2275 106.223 13.6139C106.649 13.5289 108.036 13.3959 109.381 13.8137C109.452 13.4096 109.524 13.0055 109.595 12.6013Z" fill="#414652"/>
<path fill-rule="evenodd" clip-rule="evenodd" d="M98.2977 11.1304H96.0906C93.938 11.1304 91.8861 12.8743 91.5067 15.0269L91.0603 17.5569C90.6809 19.7095 92.1167 21.4535 94.2693 21.4535H98.9685L99.4506 18.7181H95.0342C94.3175 18.7181 93.8374 18.1375 93.9653 17.4185L93.98 17.3326H101.1L101.507 15.0269C101.886 12.8743 100.45 11.1304 98.2977 11.1304ZM98.6582 14.809L98.6415 14.9557H94.4076L94.4307 14.8257C94.5584 14.1089 95.2125 13.478 95.9313 13.478H97.5851C98.2957 13.478 98.7757 14.0984 98.6582 14.809Z" fill="#414652"/>
<path d="M119.065 17.9885C120.354 15.6703 121.774 12.6286 122.366 11.2749H125.208C124.241 13.8471 122.024 18.2227 119.876 21.4534H117.036C116.05 18.3785 115.414 14.0941 115.292 11.2749H118.132C118.183 12.1945 118.595 15.6056 119.065 17.9885Z" fill="#414652"/>
<path d="M86.9587 28.377C91.2987 28.377 94.6307 29.147 96.9547 30.687C99.2787 32.199 100.441 34.691 100.441 38.163C100.441 41.663 99.2647 44.197 96.9127 45.765C94.5607 47.305 91.2007 48.075 86.8327 48.075H84.7747V57.819H78.2227V29.133C79.6507 28.853 81.1627 28.657 82.7587 28.545C84.3547 28.433 85.7547 28.377 86.9587 28.377ZM87.3787 33.963C86.9027 33.963 86.4267 33.977 85.9507 34.005C85.5027 34.033 85.1107 34.061 84.7747 34.089V42.489H86.8327C89.1007 42.489 90.8087 42.181 91.9567 41.565C93.1047 40.949 93.6787 39.801 93.6787 38.121C93.6787 37.309 93.5247 36.637 93.2167 36.105C92.9367 35.573 92.5167 35.153 91.9567 34.845C91.4247 34.509 90.7667 34.285 89.9827 34.173C89.1987 34.033 88.3307 33.963 87.3787 33.963Z" fill="#414652"/>
<path d="M120.624 36.357C120.624 37.421 120.414 38.443 119.994 39.423C119.574 40.403 119.028 41.355 118.356 42.279C117.684 43.175 116.928 44.043 116.088 44.883C115.248 45.723 114.422 46.521 113.61 47.277C113.19 47.669 112.728 48.117 112.224 48.621C111.748 49.097 111.286 49.587 110.838 50.091C110.39 50.595 109.984 51.071 109.62 51.519C109.284 51.939 109.074 52.289 108.99 52.569H121.506V57.819H102.102C102.046 57.511 102.018 57.119 102.018 56.643C102.018 56.167 102.018 55.831 102.018 55.635C102.018 54.291 102.228 53.059 102.648 51.939C103.096 50.819 103.67 49.783 104.37 48.831C105.07 47.851 105.854 46.941 106.722 46.101C107.618 45.261 108.5 44.421 109.368 43.581C110.04 42.937 110.67 42.335 111.258 41.775C111.846 41.187 112.364 40.627 112.812 40.095C113.26 39.535 113.61 38.989 113.862 38.457C114.114 37.897 114.24 37.337 114.24 36.777C114.24 35.545 113.89 34.677 113.19 34.173C112.49 33.669 111.622 33.417 110.586 33.417C109.83 33.417 109.116 33.543 108.444 33.795C107.8 34.019 107.198 34.299 106.638 34.635C106.106 34.943 105.644 35.265 105.252 35.601C104.86 35.909 104.566 36.161 104.37 36.357L101.262 31.989C102.494 30.841 103.922 29.903 105.546 29.175C107.198 28.419 108.962 28.041 110.838 28.041C112.546 28.041 114.016 28.237 115.248 28.629C116.48 29.021 117.488 29.581 118.272 30.309C119.084 31.009 119.672 31.877 120.036 32.913C120.428 33.921 120.624 35.069 120.624 36.357Z" fill="#414652"/>
<path d="M133.659 28.377C137.999 28.377 141.331 29.147 143.655 30.687C145.979 32.199 147.141 34.691 147.141 38.163C147.141 41.663 145.965 44.197 143.613 45.765C141.261 47.305 137.901 48.075 133.533 48.075H131.475V57.819H124.923V29.133C126.351 28.853 127.863 28.657 129.459 28.545C131.055 28.433 132.455 28.377 133.659 28.377ZM134.079 33.963C133.603 33.963 133.127 33.977 132.651 34.005C132.203 34.033 131.811 34.061 131.475 34.089V42.489H133.533C135.801 42.489 137.509 42.181 138.657 41.565C139.805 40.949 140.379 39.801 140.379 38.121C140.379 37.309 140.225 36.637 139.917 36.105C139.637 35.573 139.217 35.153 138.657 34.845C138.125 34.509 137.467 34.285 136.683 34.173C135.899 34.033 135.031 33.963 134.079 33.963Z" fill="#414652"/>
</svg>
