<svg width="25" height="24" viewBox="0 0 25 24" fill="none" xmlns="http://www.w3.org/2000/svg">
<path d="M0.5 4.5C0.5 2.01472 2.51472 0 5 0H20C22.4853 0 24.5 2.01472 24.5 4.5V19.5C24.5 21.9853 22.4853 24 20 24H5C2.51472 24 0.5 21.9853 0.5 19.5V4.5Z" fill="#0364B9"/>
<path d="M5 0C2.51472 0 0.5 2.01472 0.5 4.5V4.63071L22.9358 1.08948C22.1478 0.4105 21.1218 0 20 0H5Z" fill="#0A559E"/>
<path d="M23.399 1.55081L19.2833 24L20 24C22.4853 24 24.5 21.9853 24.5 19.5V4.5C24.5 3.37182 24.0848 2.34061 23.399 1.55081Z" fill="#0A559E"/>
<path d="M6.0065 8.814C6.1145 9.012 6.2375 9.25799 6.3755 9.552C6.5195 9.83999 6.6665 10.155 6.8165 10.497C6.9725 10.833 7.1255 11.178 7.2755 11.532C7.4255 11.886 7.5665 12.219 7.6985 12.531C7.8305 12.219 7.9715 11.886 8.1215 11.532C8.2715 11.178 8.4215 10.833 8.5715 10.497C8.7275 10.155 8.8745 9.83999 9.0125 9.552C9.1565 9.25799 9.2825 9.012 9.3905 8.814H10.6685C10.7285 9.22799 10.7825 9.693 10.8305 10.209C10.8845 10.719 10.9295 11.253 10.9655 11.811C11.0075 12.363 11.0435 12.918 11.0735 13.476C11.1095 14.034 11.1395 14.559 11.1635 15.051H9.7955C9.7775 14.445 9.7535 13.785 9.7235 13.071C9.6935 12.357 9.6485 11.637 9.5885 10.911C9.4805 11.163 9.3605 11.442 9.2285 11.748C9.0965 12.054 8.9645 12.36 8.8325 12.666C8.7065 12.972 8.5835 13.266 8.4635 13.548C8.3435 13.824 8.2415 14.061 8.1575 14.259H7.1765C7.0925 14.061 6.9905 13.824 6.8705 13.548C6.7505 13.266 6.6245 12.972 6.4925 12.666C6.3665 12.36 6.2375 12.054 6.1055 11.748C5.9735 11.442 5.8535 11.163 5.7455 10.911C5.6855 11.637 5.6405 12.357 5.6105 13.071C5.5805 13.785 5.5565 14.445 5.5385 15.051H4.1705C4.1945 14.559 4.2215 14.034 4.2515 13.476C4.2875 12.918 4.3235 12.363 4.3595 11.811C4.4015 11.253 4.4465 10.719 4.4945 10.209C4.5485 9.693 4.6055 9.22799 4.6655 8.814H6.0065Z" fill="white"/>
<path d="M16.5158 8.814V10.011H14.6348V15.051H13.2308V10.011H11.3498V8.814H16.5158Z" fill="white"/>
<path d="M19.4881 13.215C19.4881 13.041 19.4491 12.888 19.3711 12.756C19.2931 12.618 19.1581 12.504 18.9661 12.414C18.7741 12.324 18.5161 12.255 18.1921 12.207C17.8681 12.159 17.4601 12.135 16.9681 12.135C17.0341 11.577 17.0881 11.01 17.1301 10.434C17.1721 9.858 17.2051 9.318 17.2291 8.814H20.6041V9.939H18.3541C18.3421 10.155 18.3271 10.365 18.3091 10.569C18.2971 10.767 18.2821 10.941 18.2641 11.091C19.1401 11.151 19.7851 11.358 20.1991 11.712C20.6191 12.06 20.8291 12.546 20.8291 13.17C20.8291 13.458 20.7781 13.725 20.6761 13.971C20.5741 14.217 20.4211 14.43 20.2171 14.61C20.0131 14.79 19.7551 14.931 19.4431 15.033C19.1371 15.135 18.7771 15.186 18.3631 15.186C18.2011 15.186 18.0301 15.174 17.8501 15.15C17.6761 15.132 17.5051 15.105 17.3371 15.069C17.1751 15.039 17.0281 15.006 16.8961 14.97C16.7641 14.934 16.6621 14.898 16.5901 14.862L16.8331 13.755C16.9831 13.821 17.1811 13.887 17.4271 13.953C17.6731 14.013 17.9671 14.043 18.3091 14.043C18.7231 14.043 19.0231 13.962 19.2091 13.8C19.3951 13.632 19.4881 13.437 19.4881 13.215Z" fill="white"/>
</svg>
