<svg width="156" height="112" viewBox="0 0 156 112" fill="none" xmlns="http://www.w3.org/2000/svg">
<rect width="156" height="112" rx="16" fill="#F6F7F8"/>
<path d="M100.825 52.3898C101.495 52.3898 102.095 52.4538 102.621 52.5845C103.151 52.7153 103.631 52.8844 104.064 53.0972L102.924 55.7436C102.626 55.6205 102.317 55.5129 101.997 55.4129C101.677 55.313 101.286 55.2643 100.825 55.2643C99.7211 55.2643 98.8486 55.6526 98.199 56.4266C97.552 57.202 97.2272 58.2439 97.2272 59.5523C97.2272 60.3276 97.3902 60.9543 97.7188 61.4336C98.0461 61.9129 98.6512 62.1513 99.5275 62.1513C99.9605 62.1513 100.38 62.1051 100.78 62.0154C101.182 61.9244 101.539 61.8104 101.852 61.6733L102.099 64.3863C101.681 64.5529 101.22 64.7016 100.715 64.8336C100.208 64.9591 99.6039 65.0258 98.9033 65.0258C97.9799 65.0258 97.1979 64.8874 96.5585 64.6157C95.9178 64.3389 95.3892 63.9724 94.9727 63.5084C94.5549 63.0432 94.2543 62.5011 94.0684 61.877C93.8824 61.2542 93.7882 60.5993 93.7882 59.9163C93.7882 58.8833 93.9512 57.9094 94.2785 56.9969C94.6046 56.0844 95.0759 55.286 95.6873 54.6004C96.2961 53.9199 97.0374 53.3791 97.9099 52.9831C98.7798 52.5884 99.7516 52.3898 100.824 52.3898H100.825ZM73.6828 47.0085L72.2995 52.8908C72.595 52.755 72.8944 52.6499 73.1911 52.573C73.4905 52.4961 73.8101 52.4577 74.1515 52.4577C74.8673 52.4577 75.4863 52.5884 76.006 52.846C76.5282 53.1049 76.9587 53.4547 77.3052 53.8956C77.6453 54.3377 77.8987 54.8542 78.063 55.4462C78.2261 56.0396 78.3076 56.6778 78.3076 57.3621C78.3076 58.4117 78.1191 59.4036 77.7382 60.3379C77.3587 61.2734 76.8428 62.0859 76.1856 62.7792C75.5296 63.4713 74.7552 64.0159 73.8624 64.4196C72.9708 64.822 72.0015 65.0245 70.9596 65.0245C70.8259 65.0245 70.589 65.0207 70.254 65.013C69.9203 65.0066 69.5356 64.9707 69.1051 64.9104C68.672 64.8502 68.2135 64.7592 67.7308 64.6362C67.2468 64.517 66.7882 64.3479 66.3564 64.1351L70.2221 47.5558L73.6828 47.0085ZM110.438 52.3898C111.212 52.3898 111.894 52.5128 112.484 52.755C113.069 52.9985 113.553 53.3419 113.936 53.7815C114.314 54.2236 114.6 54.7427 114.794 55.345C114.989 55.9435 115.084 56.6099 115.084 57.3391C115.084 58.249 114.943 59.1627 114.662 60.0765C114.38 60.9864 113.961 61.8078 113.41 62.5396C112.859 63.2688 112.171 63.8647 111.344 64.3286C110.518 64.7913 109.56 65.0245 108.473 65.0245C107.683 65.0245 106.999 64.9015 106.417 64.6593C105.837 64.4158 105.357 64.0749 104.978 63.6327C104.597 63.1932 104.313 62.6716 104.118 62.0705C103.922 61.4708 103.829 60.8057 103.829 60.0777C103.829 59.164 103.973 58.2503 104.262 57.3391C104.552 56.4266 104.98 55.6064 105.548 54.8772C106.111 54.1468 106.807 53.5496 107.624 53.0843C108.442 52.623 109.382 52.3898 110.438 52.3898ZM91.0726 49.1756L90.2231 52.7101H93.9321L93.2621 55.4911H89.576L88.594 59.6882C88.5036 60.038 88.4514 60.3648 88.4373 60.6673C88.4208 60.9723 88.459 61.235 88.5482 61.4554C88.6373 61.6758 88.7965 61.8463 89.0283 61.968C89.2589 62.0898 89.5888 62.1513 90.0218 62.1513C90.3785 62.1513 90.7262 62.1167 91.0624 62.0488C91.3962 61.9808 91.735 61.886 92.0776 61.763L92.3247 64.3645C91.8776 64.5311 91.3936 64.6746 90.8727 64.7964C90.3504 64.9194 89.7314 64.9784 89.0169 64.9784C87.9903 64.9784 87.1942 64.822 86.6261 64.5119C86.0606 64.2005 85.6594 63.7737 85.4199 63.2329C85.183 62.6947 85.0773 62.0744 85.1079 61.3759C85.1385 60.6749 85.2416 59.9393 85.4199 59.164L87.6107 49.7229L91.0726 49.1756ZM84.713 52.7101L81.8982 64.7054H78.5916L81.3836 52.7101H84.713ZM121.503 52.7101L118.688 64.7054H115.379L118.172 52.7101H121.503ZM128.618 52.4359C130.361 52.4359 131.564 52.9536 132.227 53.9866C132.89 55.0208 133.004 56.4356 132.575 58.2285L131.054 64.7054H127.726L129.2 58.3656C129.289 57.9683 129.36 57.5864 129.412 57.2122C129.465 56.8418 129.462 56.515 129.4 56.2331C129.341 55.9537 129.203 55.7243 128.988 55.5475C128.77 55.3732 128.44 55.286 127.993 55.286C127.562 55.286 127.123 55.3335 126.676 55.4245L124.509 64.7054H121.179L123.883 53.2574C124.134 53.1817 124.414 53.092 124.72 52.9946C125.026 52.896 125.367 52.805 125.749 52.723C126.126 52.6384 126.552 52.5692 127.022 52.5166C127.49 52.4615 128.024 52.4359 128.618 52.4359ZM73.3261 55.286C73.1173 55.286 72.8472 55.3271 72.5122 55.4001C72.176 55.477 71.8754 55.6372 71.6066 55.8794L70.133 62.1269L70.3673 62.1731C70.4323 62.1884 70.5049 62.1987 70.5775 62.2077C70.6539 62.2154 70.7418 62.2205 70.8475 62.2205H71.2487C71.771 62.2205 72.2613 62.0898 72.7224 61.8322C73.1848 61.5759 73.5847 61.2273 73.9197 60.7941C74.2534 60.3597 74.5183 59.8714 74.7119 59.3229C74.9043 58.7757 75.0023 58.2054 75.0023 57.612C75.0023 56.8816 74.8826 56.3126 74.6457 55.9012C74.4075 55.4911 73.9668 55.286 73.3274 55.286H73.3261ZM110.126 55.2643C109.636 55.2643 109.202 55.4091 108.832 55.6961C108.459 55.9871 108.147 56.351 107.894 56.7919C107.64 57.234 107.45 57.7159 107.321 58.24C107.196 58.7654 107.134 59.2614 107.134 59.733C107.134 60.4942 107.254 61.0876 107.491 61.5144C107.73 61.9373 108.161 62.1513 108.786 62.1513C109.279 62.1513 109.709 62.0077 110.083 61.7168C110.452 61.4298 110.765 61.0632 111.02 60.6224C111.274 60.1828 111.463 59.6997 111.592 59.1743C111.717 58.6514 111.78 58.1516 111.78 57.6813C111.78 56.9226 111.661 56.3279 111.421 55.9025C111.183 55.477 110.751 55.2643 110.126 55.2643ZM83.9998 47.2354C84.4608 47.2354 84.8773 47.3763 85.2493 47.657C85.6212 47.9389 85.8084 48.3695 85.8084 48.945C85.8084 49.2653 85.7447 49.5652 85.6174 49.8472C85.4913 50.1291 85.3244 50.3713 85.1155 50.5776C84.9092 50.7827 84.6646 50.9442 84.3895 51.0672C84.1131 51.1902 83.8202 51.2479 83.5081 51.2479C83.047 51.2479 82.6293 51.1069 82.2573 50.8263C81.8829 50.5469 81.6969 50.1176 81.6969 49.5383C81.6969 49.2179 81.7606 48.9206 81.888 48.6374C82.0153 48.3554 82.1809 48.1145 82.3911 47.9069C82.6 47.7031 82.8407 47.5404 83.1171 47.4174C83.3922 47.2956 83.6864 47.2354 83.9998 47.2354ZM120.787 47.2354C121.249 47.2354 121.667 47.3763 122.039 47.657C122.411 47.9389 122.599 48.3695 122.599 48.945C122.599 49.2653 122.532 49.5652 122.407 49.8472C122.282 50.1291 122.114 50.3713 121.906 50.5776C121.696 50.7827 121.456 50.9442 121.18 51.0672C120.904 51.1902 120.61 51.2479 120.296 51.2479C119.835 51.2479 119.418 51.1069 119.046 50.8263C118.674 50.5469 118.487 50.1176 118.487 49.5383C118.487 49.2179 118.55 48.9206 118.678 48.6374C118.802 48.3554 118.971 48.1145 119.179 47.9069C119.388 47.7031 119.632 47.5404 119.905 47.4174C120.181 47.2956 120.475 47.2354 120.787 47.2354Z" fill="#4D4D4D"/>
<circle cx="42" cy="56" r="18" fill="#F7931B"/>
<path fill-rule="evenodd" clip-rule="evenodd" d="M40.4035 47.5244L41.1981 44.2778L43.1336 44.7698L42.3543 47.9523C42.8761 48.0752 43.3988 48.1984 43.9078 48.3264L44.6795 45.1644L46.615 45.6564L45.823 48.9055C48.2678 49.7639 50.0556 51.0528 49.7016 53.4512C49.4495 55.2039 48.497 56.0546 47.2313 56.3519C48.9682 57.2769 49.8519 58.6914 49.0115 61.1487C47.9648 64.1954 45.4817 64.4542 42.1812 63.8136L41.3789 67.0935L39.4434 66.6015L40.2329 63.3678C39.7338 63.2396 39.2193 63.1038 38.6896 62.9578L37.8976 66.2069L35.9621 65.7149L36.7643 62.4299C35.4653 62.0921 34.166 61.7563 32.8652 61.4255L33.8253 59.1628C33.8253 59.1628 35.2515 59.5472 35.2337 59.5216C35.7812 59.66 36.0232 59.2935 36.1199 59.0501C36.8456 56.0858 37.5694 53.121 38.2923 50.156C38.3178 49.7358 38.1752 49.2053 37.3908 49.0055C37.4213 48.9824 35.985 48.6493 35.985 48.6493L36.4994 46.5379C37.7995 46.8687 39.0965 47.2215 40.4035 47.5244ZM40.8503 56.3364C40.6713 56.2955 40.5131 56.2593 40.3832 56.2263L39.3212 60.5773C39.4289 60.6047 39.5551 60.6387 39.6964 60.6769C41.2747 61.103 44.7312 62.0361 45.2805 59.7829C45.8428 57.4785 42.4819 56.7097 40.8503 56.3364ZM42.2313 50.3816C42.079 50.3473 41.9446 50.3171 41.8348 50.2892L40.8696 54.2353C40.9618 54.2587 41.0702 54.2882 41.1917 54.3212C42.5106 54.6797 45.3777 55.4589 45.879 53.4154C46.3898 51.318 43.5937 50.6884 42.2313 50.3816Z" fill="white"/>
</svg>
