<svg width="128" height="81" viewBox="0 0 128 81" fill="none" xmlns="http://www.w3.org/2000/svg">
<g id="rapid transfer">
<g id="logo">
<path fill-rule="evenodd" clip-rule="evenodd" d="M70.5464 22.86C71.1433 22.8663 71.5454 23.0158 71.7005 23.0734C71.7154 23.079 71.7282 23.0837 71.7385 23.0874C72.6894 23.3975 73.4681 24.4724 73.4612 25.5819C73.4612 26.3399 73.2545 27.029 73.0064 27.7181L71.9935 30.4882L71.0218 33.1343C70.8668 33.5547 70.7135 33.9733 70.5601 34.392C70.4068 34.8106 70.2535 35.2292 70.0985 35.6495C69.6712 36.8072 69.244 37.9717 68.8236 39.1294C68.4998 40.0113 68.1829 40.8931 67.866 41.775L67.8363 41.8585C67.4537 42.9332 67.0731 44.0026 66.2602 44.8558C65.5229 45.6344 64.6684 46.2271 63.6692 46.6198C62.9388 46.9093 62.1808 46.9713 61.409 46.9713C61.094 46.9713 60.7785 46.9717 60.4628 46.9721C59.515 46.9734 58.5649 46.9747 57.619 46.9644C57.3227 46.9644 57.1435 47.0677 57.0471 47.3365C56.7025 48.2805 56.3511 49.2246 55.9996 50.1687L55.745 50.8587L55.7444 50.8603C55.4295 51.7137 55.1138 52.5696 54.7937 53.4212L54.793 53.4231C54.4694 54.3045 54.1458 55.1859 53.8152 56.0604C53.6636 56.4532 53.512 56.8459 53.3673 57.2525C53.3138 57.3636 53.2751 57.4624 53.2291 57.5798C53.198 57.6589 53.1637 57.7465 53.1192 57.852H48.3507C48.3746 57.7787 48.3982 57.7054 48.4217 57.6321C48.4998 57.3888 48.5777 57.1463 48.6677 56.908C48.8297 56.4669 48.9933 56.0276 49.157 55.5883C49.3206 55.1491 49.4844 54.7096 49.6462 54.2687C49.7803 53.9045 49.9131 53.5402 50.0457 53.1764C50.2267 52.6802 50.4074 52.1845 50.5903 51.6915C50.6983 51.4021 50.807 51.1126 50.9157 50.8232C51.1332 50.2444 51.3506 49.6656 51.5619 49.0868C51.6959 48.7225 51.8288 48.3583 51.9614 47.9945C52.1424 47.4981 52.323 47.0027 52.506 46.5096C52.6713 46.0584 52.8383 45.6089 53.0054 45.1594C53.1725 44.7098 53.3398 44.2597 53.5051 43.8083C53.8152 42.9609 54.1254 42.113 54.4423 41.2656L54.7152 40.5311C55.0511 39.6275 55.3864 38.7255 55.7171 37.8201C55.8722 37.4032 56.0272 36.9846 56.1823 36.566C56.3373 36.1474 56.4923 35.7288 56.6474 35.3119C56.8093 34.8708 56.9713 34.4315 57.1332 33.9922C57.2952 33.5529 57.4571 33.1136 57.619 32.6726C57.7766 32.2445 57.9341 31.818 58.0917 31.3916L58.0945 31.3839C58.253 30.955 58.4115 30.5261 58.57 30.0954C58.7319 29.6544 58.8956 29.2151 59.0592 28.7758C59.2229 28.3365 59.3865 27.8972 59.5485 27.4562C59.8792 26.5673 60.21 25.6784 60.5408 24.7825C60.7751 24.1417 61.0025 23.4939 61.2299 22.8462C64.6615 22.86 67.1285 22.86 70.5464 22.86ZM66.4945 26.898V26.9118C66.3542 26.9118 66.2132 26.9155 66.072 26.9193C65.7418 26.9279 65.4101 26.9367 65.0819 26.898C64.7029 26.8567 64.5168 26.9945 64.3997 27.3115C64.1792 27.9041 63.9655 28.4898 63.7519 29.0825C63.5865 29.5338 63.4229 29.9852 63.2592 30.4365L63.2581 30.4395C63.0948 30.8899 62.9315 31.3402 62.7665 31.7906C62.6115 32.2075 62.4547 32.6261 62.2979 33.0447C62.1412 33.4634 61.9844 33.882 61.8294 34.2989L60.8164 37.069C60.6935 37.405 60.5712 37.7409 60.449 38.0767C60.16 38.8704 59.8714 39.6632 59.576 40.4525C59.3486 41.0727 59.1143 41.6997 58.8663 42.313C58.7147 42.692 58.7974 42.8367 59.2246 42.8367H62.1532C62.6011 42.8367 62.7183 42.7334 62.8699 42.2992C63.0766 41.7067 63.2894 41.1203 63.5022 40.5339C63.6087 40.2406 63.7151 39.9472 63.8208 39.6531C64.0321 39.0744 64.2495 38.4957 64.4669 37.917C64.5757 37.6274 64.6845 37.3379 64.7925 37.0484C65.1301 36.1388 65.4609 35.2223 65.7916 34.3058C65.9501 33.8717 66.1086 33.4358 66.2671 32.9999C66.4256 32.5641 66.5841 32.1282 66.7426 31.6941C67.0733 30.8052 67.4041 29.9163 67.7349 29.0204L67.8451 28.7295C68.0234 28.2595 68.2032 27.7855 68.3688 27.3115C68.4722 27.0152 68.3482 26.8774 68.045 26.8843C67.5213 26.898 67.0044 26.898 66.4945 26.898Z" fill="black"/>
<path fill-rule="evenodd" clip-rule="evenodd" d="M40.7018 57.8658H35.8093C35.8093 57.666 35.8782 57.4868 35.954 57.3008L36.1233 56.8605C36.399 56.1439 36.6763 55.4234 36.9394 54.7029C37.1578 54.1205 37.3704 53.5363 37.5833 52.9511L37.5838 52.9499C37.7738 52.4276 37.9641 51.9045 38.1591 51.3815C38.336 50.9106 38.5169 50.441 38.6977 49.9715L38.6982 49.9702L38.6986 49.9692C38.9329 49.3609 39.1671 48.7529 39.3925 48.1427C39.4717 47.9264 39.5503 47.71 39.629 47.4938L39.6302 47.4903C39.9895 46.5025 40.3478 45.5171 40.7432 44.5457C40.881 44.208 40.8121 44.1115 40.4469 44.1184C39.241 44.146 38.035 44.1529 36.836 44.1115C36.4708 44.0978 36.3192 44.2011 36.2021 44.5526C36.078 44.9247 35.954 45.2899 35.8162 45.6551C35.6508 46.0906 35.4832 46.5261 35.3156 46.9617C35.0642 47.6149 34.8128 48.2682 34.5689 48.9214C34.2876 49.6689 34.015 50.4208 33.7425 51.1721C33.5277 51.7644 33.313 52.3564 33.0943 52.9457C32.8965 53.4712 32.6945 53.9956 32.4924 54.5203C32.1805 55.3303 31.8683 56.1407 31.5714 56.9562C31.5402 57.0399 31.5036 57.1225 31.4669 57.2052C31.3736 57.4154 31.28 57.6265 31.2751 57.8589H26.4514C26.5438 57.3646 26.7322 56.9044 26.9211 56.443C27.014 56.2161 27.107 55.9889 27.1887 55.7572C27.379 55.2174 27.5863 54.6833 27.7942 54.1476L27.7948 54.146C27.9104 53.8481 28.0265 53.549 28.1397 53.2489L29.1113 50.6441C29.2698 50.2203 29.43 49.7983 29.5902 49.3762C29.7504 48.9541 29.9107 48.5321 30.0691 48.1083C30.1748 47.8257 30.2797 47.5432 30.3846 47.2607C30.5944 46.6956 30.8042 46.1306 31.0201 45.5655C31.2233 45.0249 31.4299 44.4859 31.6365 43.947C31.8432 43.4078 32.0503 42.8678 32.2536 42.3268C32.4777 41.7292 32.6977 41.1296 32.9181 40.529L32.9185 40.528C33.1046 40.0209 33.2909 39.5131 33.4801 39.0054C33.7317 38.337 33.9883 37.6685 34.245 37.0001C34.5017 36.3317 34.7584 35.6633 35.0099 34.9949C35.2317 34.4054 35.4495 33.8132 35.6674 33.2208C35.9437 32.4696 36.2202 31.7179 36.5053 30.9706C36.8406 30.0794 37.182 29.1883 37.5235 28.2971C37.6943 27.8514 37.865 27.4058 38.035 26.9601C38.7861 24.9962 40.1988 23.7351 42.1765 23.0805C42.1943 23.0745 42.2175 23.0656 42.2459 23.0547C42.4154 22.9895 42.7705 22.8531 43.2721 22.8531H48.9227C49.6738 22.8462 50.5007 23.0322 50.611 23.0736C51.7548 23.5146 52.3061 24.4587 52.3681 25.5957C52.4026 26.2641 52.1821 26.8774 51.9409 27.4907C51.7427 28.0135 51.5523 28.5414 51.3618 29.0698C51.2409 29.4049 51.1198 29.7405 50.9968 30.0748C50.783 30.6595 50.5637 31.2414 50.3441 31.8241C50.2169 32.1616 50.0896 32.4994 49.9632 32.838C49.6531 33.6718 49.343 34.5125 49.0329 35.3532C48.7786 36.0458 48.52 36.7342 48.2605 37.4251L48.2602 37.4261L48.0475 37.9924C47.8822 38.4368 47.7151 38.8813 47.548 39.3257C47.3809 39.7702 47.2137 40.2147 47.0484 40.6592L46.9083 41.0406C46.7342 41.5151 46.5592 41.992 46.3799 42.4646C46.0698 43.3122 45.7598 44.1598 45.4428 45.0074C45.2809 45.4414 45.1172 45.8754 44.9536 46.3095C44.7899 46.7437 44.6262 47.1779 44.4643 47.6121C44.3302 47.9765 44.1973 48.3408 44.0647 48.7046L44.0643 48.7057C43.8834 49.2017 43.703 49.6967 43.5202 50.1893L42.2798 53.497C42.174 53.7822 42.0667 54.0675 41.9594 54.353C41.7245 54.9778 41.4892 55.6036 41.2669 56.2327C41.2102 56.3838 41.1493 56.5319 41.0889 56.679C40.929 57.0683 40.7718 57.4507 40.7018 57.8658ZM37.9799 40.0804C38.0056 40.0897 38.0282 40.0999 38.0489 40.1092C38.0893 40.1273 38.1227 40.1424 38.1591 40.1424C39.4683 40.1493 40.7776 40.1493 42.0869 40.1493C42.2661 40.1493 42.3901 40.0597 42.4521 39.8874C42.8242 38.8813 43.2032 37.8684 43.5822 36.8623L44.5332 34.3196C44.8639 33.4306 45.1947 32.5417 45.5255 31.6459C45.746 31.0464 45.9734 30.44 46.2008 29.8405C46.3318 29.4902 46.4651 29.1411 46.5984 28.7922C46.7876 28.297 46.9767 27.8018 47.1586 27.3046C47.3033 26.9118 47.2068 26.8016 46.7934 26.8016C46.5044 26.8016 46.2149 26.802 45.9252 26.8024C45.0548 26.8037 44.1819 26.805 43.3135 26.7947C43.0034 26.7878 42.8311 26.9049 42.7209 27.1944C42.1904 28.648 41.6461 30.0948 41.1019 31.5415L41.1015 31.5425C40.8466 32.2177 40.5899 32.8911 40.3333 33.5646C40.0767 34.238 39.8197 34.9124 39.5648 35.5875C39.0893 36.8416 38.6208 38.0958 38.1591 39.3568C38.1466 39.3874 38.1337 39.418 38.1206 39.4488C38.0398 39.6397 37.9562 39.8371 37.9799 40.0804Z" fill="black"/>
<path fill-rule="evenodd" clip-rule="evenodd" d="M18.3064 22.86H27.864C28.3326 22.86 28.9252 23.0322 29.0424 23.0736C30.3517 23.5353 30.9443 24.8583 30.7376 26.14C30.5951 27.0267 30.2629 27.8459 29.9306 28.6652C29.7644 29.0748 29.5983 29.4844 29.4558 29.9025C29.2212 30.5935 28.9536 31.2707 28.686 31.9481C28.5293 32.3448 28.3725 32.7416 28.2224 33.1412C28.0157 33.6924 27.8124 34.2454 27.6091 34.7984C27.4058 35.3514 27.2025 35.9044 26.9958 36.4557C26.5617 37.6134 26.1206 38.7711 25.6727 39.915C25.4178 40.5558 25.1077 41.1622 24.6529 41.6997C24.0327 42.4439 23.2747 43.009 22.4478 43.4914C22.2824 43.5878 22.179 43.7119 22.1515 43.9186C22.0412 44.7042 21.9103 45.4828 21.7794 46.2615C21.6174 47.1815 21.4538 48.1015 21.2901 49.0214C21.1264 49.9413 20.9628 50.8612 20.8009 51.7811C20.5114 53.4418 20.2289 55.1026 19.9533 56.7633C19.9097 57.0149 19.8832 57.2734 19.8569 57.5292C19.8457 57.6375 19.8347 57.7454 19.8224 57.852H14.8609C14.8664 57.7969 14.8697 57.7418 14.873 57.6866C14.878 57.604 14.8829 57.5213 14.8954 57.4386C14.9615 57.083 15.0299 56.7275 15.0982 56.3719C15.2007 55.8385 15.3033 55.3052 15.3984 54.7718C15.504 54.193 15.6066 53.6134 15.7092 53.0338C15.9144 51.8746 16.1196 50.7153 16.3493 49.5623C16.4043 49.2845 16.4552 49.0054 16.5062 48.7255C16.5703 48.3736 16.6347 48.0203 16.7077 47.6673C16.8755 46.8488 17.0314 46.0264 17.1875 45.2031C17.2364 44.9449 17.2854 44.6867 17.3347 44.4285C17.3761 44.208 17.2865 44.0978 17.0591 44.0978C16.7593 44.1012 16.4612 44.1064 16.1632 44.1115C15.8655 44.1167 15.5669 44.1219 15.2675 44.1253C15.0745 44.1253 14.9849 44.2218 14.9229 44.401C14.851 44.6123 14.7662 44.8211 14.6811 45.0305C14.6275 45.1624 14.5738 45.2945 14.5232 45.4277C14.3579 45.8618 14.1942 46.296 14.0305 46.7301C13.8669 47.1642 13.7032 47.5983 13.5378 48.0325L12.5869 50.5339C12.5 50.7607 12.413 50.9869 12.3262 51.2128L12.3231 51.221C12.0945 51.816 11.8669 52.4084 11.6428 53.0008C11.5281 53.3068 11.4162 53.6136 11.3044 53.9204C11.1139 54.4428 10.9235 54.9649 10.7195 55.4815C10.6687 55.6102 10.6175 55.7389 10.5663 55.8677C10.305 56.5249 10.0425 57.1849 9.82364 57.8589H5V57.4455C5.09647 57.4248 5.17227 57.3765 5.19984 57.2732C5.29979 56.9168 5.43813 56.5769 5.5768 56.2361C5.658 56.0366 5.73933 55.8367 5.81313 55.6331C6.01986 55.0612 6.23347 54.4961 6.45398 53.9311C6.57562 53.6169 6.69819 53.3036 6.82066 52.9905C7.03115 52.4525 7.24157 51.9146 7.44627 51.3746C7.77015 50.5339 8.08713 49.6863 8.40411 48.8387C8.556 48.4413 8.70881 48.0448 8.86153 47.6485C9.12445 46.9663 9.38735 46.2842 9.64447 45.6C9.80297 45.1831 9.95973 44.7645 10.1165 44.3458C10.2732 43.9273 10.4301 43.5085 10.5885 43.0917C11.0158 41.9823 11.443 40.8728 11.8702 39.7565C12.0253 39.3499 12.1786 38.9434 12.3319 38.5368C12.4852 38.1303 12.6386 37.7236 12.7936 37.3171C13.0107 36.7521 13.2277 36.1854 13.4448 35.6186C13.6618 35.0518 13.8789 34.485 14.096 33.9199C14.2958 33.3963 14.4939 32.871 14.6919 32.3456C14.89 31.8204 15.0884 31.2943 15.2881 30.7707L16.5698 27.4424C16.6666 27.1926 16.7645 26.9433 16.8623 26.6941C17.0991 26.0912 17.3359 25.4883 17.5552 24.879C17.6285 24.6891 17.7062 24.4997 17.7843 24.3096C17.978 23.8376 18.1737 23.361 18.3064 22.86ZM18.6509 40.2871C18.8042 40.2871 18.9581 40.286 19.1123 40.2848C19.4984 40.282 19.8862 40.2792 20.2703 40.294C20.5804 40.3009 20.7802 40.1768 20.8836 39.9012C21.133 39.245 21.3782 38.5846 21.6225 37.9266L21.8207 37.3929C21.9758 36.9795 22.1308 36.5677 22.2859 36.156C22.4409 35.7443 22.5959 35.3325 22.751 34.9191L22.9615 34.3687C23.215 33.7067 23.4675 33.0471 23.7157 32.3832C24.0327 31.5356 24.3497 30.688 24.6736 29.8405C24.767 29.5988 24.861 29.3571 24.9551 29.1153L24.9555 29.1141C25.1805 28.5357 25.4059 27.9563 25.6245 27.3735C25.7554 27.0359 25.6383 26.9049 25.2868 26.9049C24.1705 26.9118 23.0611 26.9118 21.9448 26.898C21.7242 26.898 21.6071 26.9738 21.5037 27.153C21.4018 27.3383 21.3342 27.5361 21.2673 27.7316C21.2347 27.8269 21.2022 27.9219 21.1661 28.0144L20.9535 28.561C20.7008 29.2105 20.449 29.8576 20.2014 30.5089C20.0394 30.9327 19.8826 31.3565 19.7259 31.7803C19.5691 32.204 19.4123 32.6279 19.2504 33.0516C19.0749 33.5126 18.8943 33.9723 18.7136 34.4323C18.4755 35.0383 18.2372 35.6449 18.01 36.2559C17.919 36.4992 17.8285 36.7428 17.738 36.9864C17.3902 37.9228 17.0422 38.86 16.6594 39.7841C16.5147 40.1355 16.5974 40.2802 16.9833 40.2802C17.5484 40.2871 18.0996 40.2871 18.6509 40.2871Z" fill="black"/>
<path fill-rule="evenodd" clip-rule="evenodd" d="M105.772 23.0605C105.623 23.0044 105.241 22.86 104.408 22.86H94.9402C94.8957 23.1849 94.7764 23.4869 94.6566 23.79C94.5911 23.9561 94.5253 24.1226 94.4716 24.2933C94.3357 24.7237 94.176 25.1451 94.0159 25.5674C93.9325 25.7874 93.849 26.0078 93.7687 26.2296C93.6382 26.5893 93.5067 26.9499 93.3749 27.3112L93.372 27.3189C93.1639 27.8896 92.9551 28.4619 92.7489 29.0342C92.5424 29.5941 92.342 30.1539 92.1416 30.7138L92.1408 30.7159C92.0406 30.996 91.9403 31.2762 91.8393 31.5563C91.737 31.8365 91.6342 32.1166 91.5313 32.397C91.2874 33.0613 91.0431 33.7266 90.8056 34.3954C90.6437 34.8433 90.4869 35.2912 90.3302 35.7391C90.1734 36.187 90.0166 36.6349 89.8547 37.0828C89.6514 37.6444 89.4464 38.2026 89.2414 38.7607C89.0364 39.3189 88.8314 39.8771 88.6281 40.4387C88.4662 40.8866 88.3077 41.3345 88.1492 41.7824C87.9907 42.2303 87.8322 42.6782 87.6703 43.1261C87.5083 43.574 87.3447 44.0202 87.181 44.4664C87.0174 44.9126 86.8537 45.3588 86.6918 45.8067C86.3759 46.6927 86.0599 47.5718 85.744 48.4509L85.7408 48.4597C85.5985 48.85 85.4554 49.2403 85.3123 49.6306C85.0258 50.4118 84.7394 51.1929 84.4591 51.9741C84.3005 52.4222 84.1437 52.8704 83.9868 53.3185C83.8302 53.7662 83.6735 54.2139 83.5151 54.6615L83.5147 54.6625C83.2116 55.5029 82.9086 56.3432 82.5917 57.1767L82.5619 57.2579C82.4885 57.457 82.4161 57.6534 82.3918 57.8658H91.7497C92.9349 57.8658 93.5827 57.6866 93.7067 57.6522C95.333 57.1698 96.5458 56.1637 97.414 54.7167C97.6599 54.3068 97.8135 53.8681 97.9699 53.4217L98.0135 53.2971C98.2686 52.5533 98.5359 51.8135 98.8029 51.0747C98.8822 50.8553 98.9614 50.636 99.0403 50.4167L99.1843 50.0201C99.3635 49.5273 99.5417 49.037 99.7156 48.5424C99.8775 48.0876 100.038 47.6345 100.198 47.1814C100.358 46.7284 100.518 46.2753 100.68 45.8205C100.907 45.2011 101.128 44.5749 101.348 43.9487L101.348 43.9476L101.349 43.9462C101.466 43.6119 101.586 43.2777 101.707 42.9435C101.828 42.6093 101.948 42.2751 102.065 41.9409C102.22 41.5034 102.374 41.0658 102.527 40.6283C102.68 40.1907 102.834 39.7531 102.989 39.3155C103.196 38.74 103.404 38.1646 103.612 37.5892C103.821 37.0138 104.029 36.4385 104.236 35.8631C104.43 35.3257 104.617 34.7882 104.804 34.2508C104.929 33.8924 105.053 33.534 105.18 33.1757C105.525 32.2109 105.869 31.2531 106.214 30.2953C106.313 30.0186 106.414 29.7419 106.515 29.4651L106.515 29.4635C106.736 28.8585 106.957 28.2516 107.165 27.6423L107.204 27.5328C107.385 27.0247 107.567 26.5133 107.599 25.954C107.675 24.693 107.027 23.5215 105.807 23.0736C105.797 23.0701 105.786 23.0657 105.772 23.0605ZM91.3264 53.9219C91.1689 53.9231 91.0114 53.9242 90.8539 53.9242C90.6598 53.9242 90.4665 53.925 90.2744 53.9257C89.894 53.9273 89.518 53.9288 89.1518 53.9242C88.7659 53.9173 88.6833 53.8208 88.8073 53.4556C89.0226 52.8098 89.2545 52.1672 89.4868 51.5234C89.5891 51.24 89.6916 50.956 89.7927 50.6717C90.0201 50.0308 90.2475 49.3969 90.4749 48.7629C90.8056 47.8536 91.1362 46.9373 91.4669 46.0211C91.5897 45.6861 91.7088 45.3483 91.8279 45.0104C91.9293 44.7229 92.0311 44.4342 92.1356 44.146C92.301 43.6877 92.4664 43.2311 92.6318 42.7745L92.6324 42.773C92.7975 42.317 92.9627 41.8611 93.1279 41.4034L93.1286 41.4015L93.1291 41.4002L93.1294 41.3992C93.4321 40.5461 93.7348 39.6931 94.0444 38.8469C94.2615 38.2439 94.4802 37.6409 94.699 37.0379C94.9178 36.435 95.1366 35.8321 95.3537 35.2292C95.4869 34.8522 95.6178 34.474 95.7487 34.0957L95.7495 34.0935C95.9366 33.5528 96.1239 33.0115 96.3184 32.4728C96.5531 31.8125 96.7946 31.1568 97.0365 30.5004L97.0372 30.4984C97.2141 30.0183 97.3911 29.5378 97.5656 29.0549L97.6129 28.9249C97.8175 28.3627 98.0204 27.8051 98.1996 27.2357C98.2892 26.9394 98.4683 26.8016 98.7716 26.8016C99.1553 26.8016 99.5383 26.8008 99.921 26.8C100.686 26.7985 101.45 26.797 102.217 26.8016C102.541 26.8016 102.644 26.9601 102.527 27.277C102.344 27.7783 102.16 28.2786 101.977 28.7786L101.973 28.7891L101.972 28.7911C101.652 29.6619 101.332 30.5319 101.018 31.4047C100.811 31.9867 100.606 32.5705 100.402 33.1543L100.399 33.1602C100.195 33.7425 99.9906 34.3247 99.7845 34.9053C99.5777 35.4808 99.3675 36.0564 99.1573 36.6319L99.1559 36.6357C98.9462 37.2097 98.7366 37.7837 98.5304 38.3576C98.3684 38.809 98.21 39.2637 98.0515 39.7185L98.0507 39.7208C97.8924 40.1749 97.7342 40.6289 97.5725 41.0795C97.3865 41.6086 97.1931 42.1377 96.9996 42.6669C96.8706 43.0198 96.7415 43.3727 96.6147 43.7256C96.3987 44.3231 96.1888 44.9205 95.979 45.5179C95.8741 45.8163 95.7693 46.1147 95.6637 46.4131C95.5422 46.7535 95.4217 47.0927 95.3014 47.4314L95.2992 47.4377C95.1134 47.9609 94.9281 48.4825 94.7404 49.0041C94.5785 49.4517 94.4167 49.8976 94.2549 50.3435L94.2538 50.3464L94.2486 50.3609L94.248 50.3624C94.0882 50.8026 93.9285 51.2428 93.7687 51.6847C93.6619 51.9879 93.5568 52.2911 93.4517 52.5943C93.3467 52.8975 93.2416 53.2007 93.1348 53.5039C93.0314 53.7933 92.8385 53.938 92.5077 53.9311C92.1139 53.9163 91.7202 53.9191 91.3264 53.9219Z" fill="black"/>
<path d="M86.7397 23.2373C86.7835 23.1113 86.8272 22.9855 86.8709 22.86C85.2654 22.86 83.6598 22.86 82.0542 22.8531C82.0107 23.1862 81.8895 23.4922 81.7687 23.7972C81.717 23.9276 81.6655 24.0578 81.6201 24.1899C81.3169 25.0513 81.0068 25.9126 80.6967 26.774C80.5313 27.2254 80.3642 27.6767 80.1971 28.1281C80.03 28.5794 79.8629 29.0308 79.6975 29.4821C79.4862 30.0564 79.281 30.6306 79.0758 31.2049C78.9732 31.492 78.8706 31.7791 78.7672 32.0662C78.5299 32.7346 78.2858 33.3996 78.042 34.0636C77.9389 34.3443 77.836 34.6248 77.7336 34.9053C77.6155 35.2302 77.4984 35.554 77.3815 35.8772C77.1984 36.3835 77.0159 36.8882 76.8309 37.3929C76.6681 37.8359 76.5043 38.28 76.3402 38.7247C76.0806 39.4282 75.8205 40.1333 75.563 40.8384C75.401 41.2794 75.2408 41.7204 75.0806 42.1615C74.9203 42.6025 74.7601 43.0435 74.5982 43.4845C74.482 43.8002 74.3649 44.115 74.2479 44.4295C74.0457 44.9731 73.8437 45.516 73.6473 46.0617C73.4337 46.6474 73.2218 47.2348 73.0099 47.8222C72.798 48.4097 72.5861 48.9972 72.3725 49.5829C72.1726 50.1308 71.9711 50.6786 71.7695 51.2264C71.5679 51.7742 71.3664 52.3221 71.1665 52.8699C71.037 53.2293 70.9055 53.5881 70.7741 53.9469C70.4721 54.7711 70.1702 55.595 69.8917 56.4256C69.8419 56.5752 69.7804 56.7213 69.719 56.8675C69.5851 57.186 69.4511 57.5047 69.4369 57.8589H74.2606C74.2468 57.7418 74.2675 57.6315 74.3088 57.5213C74.3617 57.3787 74.4146 57.2364 74.4675 57.0943C74.6624 56.5703 74.8564 56.0487 75.0461 55.5229C75.1279 55.2948 75.2097 55.0664 75.2915 54.8378C75.6028 53.9684 75.9149 53.0966 76.2314 52.229C76.4036 51.7571 76.5759 51.2834 76.7481 50.8097C76.9204 50.3359 77.0927 49.8621 77.265 49.39C77.427 48.9487 77.5873 48.5075 77.7476 48.0663C77.9077 47.6255 78.0679 47.1847 78.2297 46.7439C78.5536 45.8756 78.8706 45.0074 79.1807 44.1322C79.3086 43.7747 79.434 43.4148 79.5595 43.0545C79.7317 42.5605 79.9041 42.0658 80.0834 41.5757C80.2122 41.2261 80.3416 40.8765 80.4711 40.5267C80.778 39.6975 81.0853 38.8673 81.3858 38.0338C81.5281 37.6415 81.6676 37.2492 81.8068 36.8576C81.9708 36.3962 82.1345 35.9357 82.3023 35.4772C82.3752 35.2788 82.4481 35.0808 82.521 34.8828C82.7924 34.1459 83.0628 33.4114 83.329 32.6726C83.6322 31.8388 83.9354 30.9981 84.2386 30.1574C84.3754 29.7821 84.5134 29.4067 84.6516 29.0308C84.8406 28.5165 85.03 28.0013 85.2171 27.4838C85.5548 26.5604 85.8924 25.6301 86.2232 24.7067C86.3986 24.219 86.5696 23.7268 86.7397 23.2373Z" fill="black"/>
<path d="M100.997 57.8658C101.004 57.5557 101.156 57.2939 101.252 57.0182C101.783 55.5642 102.334 54.124 102.879 52.6769C103.43 51.2092 103.981 49.7414 104.532 48.2737C105.091 46.799 105.642 45.3175 106.207 43.8428C106.806 42.2579 107.42 40.6799 108.012 39.095C108.329 38.2612 108.619 37.4205 108.922 36.5798C108.943 36.5109 108.97 36.4488 109.053 36.4282C109.239 36.4902 109.197 36.6625 109.197 36.8003C109.204 37.1931 109.191 37.579 109.191 37.9717C109.191 44.6077 109.191 51.2367 109.191 57.8727C106.469 57.8658 103.733 57.8658 100.997 57.8658Z" fill="#65C18E"/>
<path d="M122.38 25.8782C122.366 26.4846 122.394 26.5053 122.979 26.5122V26.5111C122.979 25.2987 122.979 24.0793 122.986 22.86H122.366C122.368 22.9674 122.37 23.0741 122.371 23.1805C122.374 23.3949 122.378 23.6082 122.387 23.8247C122.4 24.3346 122.359 24.376 121.849 24.376H114.062C113.945 24.376 113.828 24.376 113.718 24.3966C113.566 24.4242 113.477 24.5276 113.477 24.6861C113.477 24.8308 113.566 24.9341 113.697 24.9617C113.828 24.9893 113.966 24.9962 114.104 24.9962H121.477C122.008 24.9962 122.237 24.9752 122.331 25.0777C122.424 25.1787 122.387 25.3995 122.38 25.8782Z" fill="black"/>
<path fill-rule="evenodd" clip-rule="evenodd" d="M122.809 29.8993C122.865 29.7813 122.968 29.5661 122.979 29.2685C122.979 28.4697 122.979 28.1451 122.986 27.3115C122.853 27.3069 122.717 27.3084 122.58 27.31C122.511 27.3107 122.442 27.3115 122.373 27.3115H113.973C113.732 27.3115 113.497 27.3597 113.497 27.6423C113.497 27.9317 113.732 27.9799 113.966 27.9799C115.096 27.9799 116.233 27.9799 117.37 27.9593C117.611 27.9524 117.722 28.0488 117.735 28.2625C117.746 28.4276 117.744 28.5889 117.743 28.7521C117.743 28.8067 117.742 28.8619 117.742 28.9171C117.735 29.7922 117.391 30.1368 116.502 30.1368C116.221 30.1368 115.942 30.136 115.662 30.1352C115.104 30.1337 114.547 30.1322 113.987 30.1368L113.96 30.1367C113.738 30.1362 113.477 30.1356 113.484 30.4538C113.484 30.757 113.745 30.757 113.966 30.757C114.19 30.757 114.414 30.7574 114.638 30.7578C115.31 30.7591 115.982 30.7604 116.653 30.7501C117.115 30.7432 117.542 30.6398 117.846 30.247C117.914 30.1575 118.004 30.0748 118.176 30.0954C118.459 30.5365 118.921 30.7294 119.444 30.7432C120.126 30.7707 120.802 30.7776 121.477 30.7432C122.028 30.7156 122.545 30.5571 122.779 29.9645C122.786 29.9479 122.796 29.9261 122.809 29.8993ZM121.381 30.1506H120.278C120.18 30.1442 120.068 30.147 119.948 30.1501C119.679 30.157 119.363 30.1651 119.045 30.0748C118.652 29.9714 118.445 29.7027 118.356 29.3374C118.282 29.0314 118.296 28.7144 118.309 28.3962C118.311 28.3563 118.313 28.3162 118.314 28.2762C118.321 28.0626 118.431 27.9661 118.672 27.973C119.555 27.9896 120.437 27.9885 121.319 27.9874C121.539 27.9871 121.76 27.9868 121.98 27.9868C122.325 27.9868 122.4 28.0557 122.394 28.4072L122.373 29.1996C122.345 29.7716 122.056 30.0817 121.484 30.1437C121.45 30.1506 121.415 30.1506 121.381 30.1506Z" fill="black"/>
<path d="M122.159 40.6385C122.435 40.6385 122.711 40.6247 122.979 40.5696C122.979 40.4112 122.979 40.2526 122.972 40.0873C121.654 39.9865 120.336 40.0213 119.018 40.0561C118.172 40.0784 117.327 40.1007 116.481 40.0873C116.289 40.0828 116.096 40.0841 115.883 40.0856C115.768 40.0864 115.647 40.0873 115.516 40.0873C115.716 39.9012 115.889 39.8047 116.075 39.7427C116.599 39.5785 117.124 39.4165 117.649 39.2546C118.402 39.0224 119.155 38.7901 119.906 38.5506C120.586 38.3347 121.265 38.1066 121.945 37.8785L121.946 37.8782C122.286 37.7642 122.626 37.65 122.966 37.5376V36.9863C122.901 36.9807 122.836 36.9739 122.771 36.9672C122.599 36.9493 122.424 36.9312 122.249 36.9312H114.021C113.911 36.9312 113.794 36.9381 113.683 36.9657C113.553 37.0001 113.47 37.0966 113.47 37.2413C113.47 37.3929 113.566 37.4756 113.697 37.5032C113.835 37.5307 113.973 37.5307 114.111 37.5307C116.199 37.5445 118.287 37.5238 120.375 37.4825C120.403 37.4815 120.431 37.4796 120.459 37.4778C120.62 37.4675 120.783 37.457 120.912 37.5859C120.878 37.7006 120.8 37.715 120.728 37.7286C120.713 37.7313 120.698 37.734 120.685 37.7375C120.596 37.7615 120.507 37.7853 120.417 37.8091C120.098 37.8942 119.777 37.9797 119.465 38.082C118.552 38.3782 117.638 38.6779 116.723 38.9776L116.722 38.9779C115.808 39.2776 114.893 39.5774 113.98 39.8736C113.945 39.8853 113.908 39.8959 113.872 39.9065C113.65 39.971 113.424 40.0365 113.484 40.356C113.543 40.652 113.78 40.6428 113.999 40.6344C114.034 40.633 114.07 40.6316 114.104 40.6316C116.791 40.6385 119.472 40.6385 122.159 40.6385Z" fill="black"/>
<path fill-rule="evenodd" clip-rule="evenodd" d="M122.979 56.4118C122.968 56.7094 122.865 56.9246 122.809 57.0426C122.796 57.0694 122.786 57.0912 122.779 57.1078C122.545 57.7004 122.028 57.8589 121.477 57.8865C120.802 57.9209 120.126 57.914 119.444 57.8865C118.921 57.8727 118.459 57.6797 118.176 57.2387C118.004 57.2181 117.914 57.3007 117.846 57.3903C117.542 57.7831 117.115 57.8865 116.653 57.8934C115.982 57.9037 115.31 57.9024 114.638 57.9011C114.415 57.9007 114.19 57.9003 113.966 57.9003C113.745 57.9003 113.484 57.9003 113.484 57.5971C113.477 57.2789 113.738 57.2795 113.96 57.28L113.987 57.2801C114.547 57.2755 115.104 57.277 115.662 57.2785C115.942 57.2793 116.221 57.2801 116.502 57.2801C117.391 57.2801 117.735 56.9355 117.742 56.0604C117.742 56.0051 117.743 55.9503 117.743 55.8957C117.744 55.7325 117.746 55.5709 117.735 55.4057C117.722 55.1921 117.611 55.0957 117.37 55.1025C116.233 55.1232 115.097 55.1232 113.967 55.1232C113.732 55.1232 113.497 55.075 113.497 54.7856C113.497 54.503 113.732 54.4548 113.973 54.4548H122.373C122.442 54.4548 122.511 54.454 122.579 54.4533C122.716 54.4517 122.853 54.4502 122.986 54.4548C122.979 55.2815 122.979 55.613 122.979 56.4118ZM120.278 57.287H121.381C121.415 57.287 121.45 57.287 121.484 57.2801C122.056 57.2181 122.345 56.908 122.373 56.336L122.394 55.5436C122.4 55.1921 122.325 55.1232 121.98 55.1232C121.76 55.1232 121.539 55.1235 121.318 55.1238C120.437 55.1249 119.554 55.126 118.672 55.1094C118.431 55.1026 118.321 55.199 118.314 55.4126C118.313 55.4526 118.311 55.4927 118.309 55.5326C118.296 55.8508 118.282 56.1678 118.356 56.4738C118.445 56.8391 118.652 57.1078 119.045 57.2112C119.363 57.3015 119.679 57.2934 119.948 57.2865C120.068 57.2834 120.18 57.2806 120.278 57.287Z" fill="black"/>
<path d="M122.775 44.7085C122.832 44.6123 122.973 44.3734 122.979 44.1529C122.985 43.937 122.99 43.8056 122.993 43.7127C123 43.4882 123 43.4881 123 43.0641C122.976 42.8345 122.872 42.6703 122.813 42.5758C122.802 42.5597 122.793 42.5456 122.786 42.5335C122.504 42.0512 122.035 41.9202 121.525 41.8927C121.134 41.8721 120.75 41.8788 120.359 41.8857L120.354 41.8858C119.658 41.8927 119.086 42.1476 118.659 42.7196C118.438 43.0121 118.213 43.2999 117.988 43.5885C117.825 43.7961 117.662 44.0046 117.501 44.2149C117.274 44.5112 116.998 44.7042 116.619 44.7593C115.999 44.8489 115.379 44.8558 114.765 44.7662C114.297 44.6973 114.028 44.4148 113.98 43.9393C113.959 43.767 113.959 43.5947 113.973 43.4225C114.007 42.8436 114.373 42.4991 114.951 42.4922C115.119 42.4922 115.287 42.493 115.455 42.4937C115.793 42.4952 116.132 42.4968 116.467 42.4922C116.667 42.4922 116.881 42.4577 116.888 42.1959C116.895 41.934 116.688 41.8858 116.481 41.8858C116.318 41.8858 116.154 41.8835 115.99 41.8813C115.58 41.8757 115.167 41.87 114.758 41.8996C114.152 41.9478 113.704 42.2372 113.504 42.8574C113.38 43.2295 113.387 43.6016 113.408 43.9806C113.456 44.8558 113.994 45.3795 114.869 45.3933C115.406 45.407 115.951 45.407 116.488 45.3933C116.998 45.3864 117.446 45.221 117.811 44.8351C118.107 44.5112 118.376 44.1667 118.631 43.8152C119.596 42.4991 119.61 42.4922 121.25 42.4991C122.159 42.506 122.442 42.7885 122.435 43.6981C122.428 44.4492 122.132 44.7524 121.367 44.7662C121.184 44.7696 121 44.7679 120.816 44.7662C120.632 44.7645 120.447 44.7627 120.264 44.7662C120.064 44.7731 119.878 44.8144 119.878 45.0625C119.878 45.3175 120.051 45.3933 120.271 45.3933C120.419 45.3908 120.567 45.3927 120.714 45.3947C120.98 45.3981 121.246 45.4016 121.512 45.3795C122.015 45.3381 122.497 45.221 122.766 44.7248L122.775 44.7085Z" fill="black"/>
<path fill-rule="evenodd" clip-rule="evenodd" d="M122.979 34.1612C121.628 34.4161 120.278 34.671 118.927 34.9191C118.583 34.9811 118.239 35.0413 117.894 35.1016L117.893 35.1018C117.549 35.162 117.205 35.2223 116.86 35.2843C116.486 35.3535 116.111 35.4242 115.736 35.4951C115.29 35.5792 114.842 35.6637 114.393 35.746C114.221 35.7804 114.056 35.808 113.883 35.8218C113.711 35.8356 113.511 35.8425 113.484 35.6082C113.456 35.367 113.635 35.2981 113.828 35.2636C114.021 35.2257 114.212 35.1913 114.404 35.1568C114.595 35.1224 114.786 35.0879 114.979 35.05C115.482 34.9535 115.482 34.9535 115.482 34.4574C115.482 34.349 115.482 34.2403 115.481 34.1313C115.48 33.8036 115.479 33.4739 115.489 33.1481C115.496 32.8794 115.379 32.7553 115.117 32.714C114.84 32.6777 114.567 32.6296 114.293 32.5813C114.15 32.5561 114.007 32.5308 113.863 32.5072C113.649 32.4728 113.463 32.3832 113.497 32.142C113.532 31.8733 113.752 31.8871 113.952 31.9284C115.253 32.1611 116.548 32.3989 117.847 32.6374L118.452 32.7484C118.861 32.823 119.27 32.8946 119.68 32.9661C120.671 33.1394 121.662 33.3126 122.642 33.5271C122.715 33.5409 122.792 33.5424 122.87 33.544C122.908 33.5447 122.947 33.5455 122.986 33.5478C122.979 33.7476 122.979 33.9545 122.979 34.1612ZM121.126 33.8648C121.065 33.7244 120.955 33.7083 120.845 33.6922C120.83 33.6901 120.816 33.688 120.802 33.6856L120.259 33.5956C118.985 33.3843 117.706 33.1724 116.433 32.9552C116.192 32.9138 116.061 33.0034 116.054 33.2239C116.033 33.6718 116.033 34.1197 116.054 34.5676C116.061 34.7675 116.192 34.857 116.412 34.8157C117.047 34.7047 117.681 34.5952 118.315 34.4857C119.058 34.3574 119.8 34.2292 120.54 34.0991C120.583 34.0891 120.626 34.0812 120.67 34.0733C120.837 34.0429 121.005 34.0124 121.126 33.8648Z" fill="black"/>
<path d="M122.373 52.608C122.373 53.2144 122.387 53.2213 122.979 53.2489C122.979 52.3327 122.979 51.4156 122.972 50.4787C122.918 50.4731 122.863 50.4664 122.807 50.4597C122.66 50.4419 122.509 50.4236 122.359 50.4236H113.959C113.559 50.4236 113.47 50.5132 113.463 50.906C113.458 51.3284 113.46 51.7477 113.461 52.168C113.462 52.3786 113.463 52.5894 113.463 52.801L113.464 52.8175C113.47 53.0132 113.477 53.2284 113.739 53.2351C114.028 53.2418 114.028 53.0048 114.028 52.801L114.028 51.5468C114.035 51.1265 114.111 51.0438 114.538 51.0438C114.975 51.0408 115.412 51.0417 115.849 51.0425C116.432 51.0437 117.015 51.0448 117.598 51.0369C117.901 51.0369 118.011 51.1609 118.011 51.4435V52.7872C118.011 52.9801 118.025 53.1731 118.28 53.18C118.555 53.1869 118.576 52.987 118.576 52.7803V51.4366C118.576 51.1747 118.672 51.0438 118.962 51.0438C119.954 51.0576 120.953 51.0507 121.953 51.0438C122.242 51.0369 122.38 51.1334 122.373 51.4366C122.368 51.6982 122.37 51.9567 122.371 52.2162C122.372 52.3464 122.373 52.4769 122.373 52.608Z" fill="black"/>
<path d="M122.979 49.39C122.387 49.3624 122.373 49.3555 122.373 48.7491C122.373 48.6593 122.372 48.5699 122.372 48.4808C122.371 48.2142 122.369 47.9496 122.38 47.681C122.394 47.3778 122.29 47.24 121.966 47.24C120.967 47.2538 119.968 47.2538 118.969 47.24C118.672 47.2331 118.576 47.3778 118.576 47.6328C118.571 47.9174 118.573 48.1989 118.574 48.4814C118.575 48.623 118.576 48.765 118.576 48.9076C118.576 49.1143 118.569 49.3211 118.287 49.3211C118.004 49.3211 118.004 49.1075 118.004 48.9007V47.6604C118.004 47.3641 117.88 47.2331 117.563 47.24C116.684 47.2504 115.806 47.2491 114.927 47.2478C114.634 47.2473 114.342 47.2469 114.049 47.2469C114.023 47.2469 113.997 47.2475 113.97 47.2481C113.749 47.2528 113.496 47.2583 113.484 46.9575C113.477 46.6297 113.743 46.635 113.972 46.6395C113.998 46.64 114.024 46.6405 114.049 46.6405H122.283C122.518 46.6405 122.738 46.6681 122.966 46.7094C122.979 47.5982 122.979 48.4944 122.979 49.39Z" fill="black"/>
</g>
</g>
</svg>
