<svg width="156" height="112" viewBox="0 0 156 112" fill="none" xmlns="http://www.w3.org/2000/svg">
<rect width="156" height="112" rx="16" fill="#F6F7F8"/>
<path d="M45.257 66.462C48.0317 63.6874 49.5904 59.9241 49.5904 56.0002C49.5904 52.0762 48.0317 48.3129 45.257 45.5383C44.0442 44.3255 42.6425 43.3449 41.1211 42.6254C39.7757 42.9254 38.5701 43.6688 37.6978 44.7365C36.8223 45.8081 36.3339 47.1437 36.3116 48.5273C36.3116 48.6275 36.3116 48.7277 36.3259 48.7707C40.8353 49.8658 42.8753 52.5858 42.8896 56.3509C42.8868 57.3935 42.6781 58.4254 42.2754 59.3871C41.8727 60.3489 41.284 61.2216 40.5431 61.9552C39.8022 62.6888 38.9237 63.2688 37.958 63.6619C36.9923 64.0551 35.9584 64.2536 34.9158 64.246C30.8502 64.2603 26.6199 60.7959 26.5984 55.2199C26.5913 51.5336 28.5811 47.9905 31.115 45.8861C33.5988 43.8318 36.9916 42.5219 40.0694 42.5075C40.4126 42.4946 40.7558 42.5293 41.0894 42.6104C39.1385 41.6934 36.9921 41.2048 34.7952 41.2048C30.8713 41.2048 27.1081 42.7636 24.3334 45.5383C21.5588 48.3129 20 52.0762 20 56.0002C20 59.9241 21.5588 63.6874 24.3334 66.462C27.1081 69.2367 30.8713 70.7955 34.7952 70.7955C38.7192 70.7955 42.4824 69.2367 45.257 66.462Z" fill="#EE3023"/>
<path d="M59.1452 62.1269L54.6286 51.3257H57.5848L60.4122 58.4979L63.1464 51.3257H65.9666L61.5717 62.1269H59.1452ZM73.8331 56.6726C73.8363 56.2381 73.7834 55.8051 73.6756 55.3842C73.5845 55.0117 73.4242 54.6596 73.2032 54.3463C73.004 54.0622 72.745 53.8253 72.4445 53.652C72.1238 53.471 71.7604 53.3795 71.3923 53.3871C71.0241 53.3792 70.6606 53.4707 70.3401 53.652C70.0363 53.8236 69.7747 54.0608 69.5742 54.3463C69.3548 54.6623 69.197 55.0169 69.1089 55.3913C69.0017 55.8099 68.9488 56.2405 68.9514 56.6726C68.9478 57.1071 69.0008 57.5402 69.1089 57.961C69.199 58.3324 69.3515 58.6857 69.5599 59.0061C69.7579 59.308 70.0291 59.555 70.3482 59.724C70.6673 59.8929 71.024 59.9784 71.3851 59.9724C71.746 59.9834 72.1035 59.9 72.4224 59.7305C72.7412 59.5611 73.0104 59.3114 73.2032 59.0061C73.4211 58.691 73.5811 58.3395 73.6756 57.9682C73.7844 57.545 73.8373 57.1095 73.8331 56.6726ZM76.5602 56.6798C76.5603 57.3841 76.4517 58.0843 76.2381 58.7555C76.0299 59.4178 75.7024 60.0363 75.2718 60.5808C74.81 61.1616 74.2185 61.626 73.5448 61.9368C72.871 62.2476 72.1338 62.396 71.3923 62.3703C70.6499 62.3944 69.9122 62.2452 69.2376 61.9346C68.5629 61.624 67.9699 61.1605 67.5056 60.5808C67.0759 60.0357 66.7485 59.4173 66.5392 58.7555C66.1139 57.4117 66.1139 55.9693 66.5392 54.6255C66.7487 53.9703 67.0762 53.359 67.5056 52.8217C67.9425 52.284 68.4923 51.849 69.1161 51.5476C69.8267 51.2107 70.606 51.044 71.3923 51.0608C72.1291 51.0405 72.8609 51.1885 73.532 51.4936C74.203 51.7987 74.7956 52.253 75.2646 52.8217C75.6941 53.3513 76.0234 53.9526 76.2381 54.6255C76.4528 55.2983 76.5602 55.9854 76.5602 56.6798ZM84.9062 53.7092C84.432 53.5095 83.9246 53.4002 83.4102 53.3871C83.0081 53.3677 82.6075 53.4492 82.2449 53.6242C81.8823 53.7992 81.5694 54.0622 81.3345 54.3892C81.1084 54.7034 80.9388 55.0547 80.8334 55.4271C80.7224 55.8109 80.667 56.2087 80.6688 56.6082C80.6663 57.0418 80.7144 57.4741 80.812 57.8966C80.898 58.2782 81.0507 58.6417 81.2629 58.9703C81.4562 59.2727 81.7156 59.5272 82.0216 59.7147C82.3223 59.9008 82.6873 60.001 83.0953 60.001C83.4641 59.9928 83.8254 59.8945 84.1475 59.7147C84.4562 59.5692 84.7188 59.3413 84.9062 59.0562V53.7092ZM85.1281 62.1269L85.0207 61.2966C84.7356 61.6064 84.3959 61.8612 84.0187 62.0482C83.4716 62.2822 82.8791 62.3908 82.2845 62.3661C81.69 62.3413 81.1086 62.1838 80.5829 61.905C80.0193 61.5949 79.5306 61.1649 79.1513 60.6452C78.7508 60.0988 78.4503 59.4856 78.2638 58.8343C78.0627 58.1363 77.9615 57.4133 77.9631 56.6869C77.9631 55.9783 78.0633 55.2911 78.2709 54.6183C78.4728 53.965 78.7958 53.3556 79.2229 52.8217C79.6843 52.2496 80.2724 51.7928 80.9407 51.4872C81.6091 51.1816 82.3394 51.0356 83.0738 51.0608C83.6465 51.0608 84.2549 51.1682 84.9062 51.3758V47.1884H87.6835V62.1269H85.1281ZM95.4998 57.0591C94.8875 57.1001 94.278 57.1766 93.6746 57.2882C93.0733 57.4099 92.6581 57.6103 92.4219 57.9038C92.2008 58.1718 92.0794 58.5082 92.0784 58.8558C92.0784 59.2136 92.2072 59.5 92.472 59.7147C92.7927 59.9495 93.1847 60.0658 93.5815 60.044C93.9394 60.044 94.2973 59.9724 94.6337 59.8221C94.9519 59.6832 95.2447 59.4921 95.4998 59.2566V57.0591ZM95.7217 62.1126L95.6143 61.3109C95.2969 61.6546 94.9052 61.9215 94.4691 62.0911C93.5519 62.4541 92.5336 62.4694 91.6059 62.1341C90.9399 61.912 90.3627 61.482 89.9594 60.9073C89.5561 60.3326 89.3479 59.6435 89.3655 58.9417C89.3563 58.4689 89.4569 58.0005 89.6593 57.5733C89.8618 57.146 90.1606 56.7716 90.5323 56.4793C90.9079 56.1871 91.3253 55.9531 91.7706 55.785C92.6231 55.4827 93.5107 55.2903 94.4118 55.2124L95.4855 55.1122V54.9547C95.4855 54.3606 95.328 53.9383 95.0202 53.6806C94.6535 53.408 94.2023 53.2737 93.7461 53.3012C92.9349 53.3053 92.1448 53.5603 91.4843 54.0313C91.3399 54.123 91.2013 54.2234 91.0691 54.332L90.1458 52.385C90.5887 52.049 91.075 51.7745 91.5916 51.569C92.9371 51.0098 94.4304 50.9141 95.8362 51.297C96.3196 51.4481 96.7619 51.708 97.1292 52.0567C97.4965 52.4053 97.7789 52.8335 97.9549 53.3084C98.1701 53.9071 98.272 54.5406 98.2556 55.1766V62.1197L95.7217 62.1126ZM106.838 49.6507C106.343 49.4292 105.805 49.3216 105.263 49.3358C104.884 49.3358 104.554 49.4503 104.297 49.6865C104.032 49.9156 103.903 50.2949 103.903 50.8175V51.3257H106.237V53.5661H103.925V62.1269H101.147V53.5661H99.7158V51.3257H101.147V50.753C101.147 50.0444 101.24 49.4503 101.419 48.9636C101.565 48.5276 101.812 48.132 102.139 47.8087C102.466 47.4855 102.864 47.2436 103.302 47.1025C104.577 46.7619 105.929 46.8448 107.153 47.3387L106.838 49.6507ZM114.411 56.6726C114.413 56.2382 114.36 55.8053 114.253 55.3842C114.162 55.0117 114.002 54.6596 113.781 54.3463C113.582 54.0622 113.323 53.8253 113.022 53.652C112.702 53.471 112.338 53.3795 111.97 53.3871C111.602 53.3792 111.238 53.4707 110.918 53.652C110.615 53.8248 110.353 54.0618 110.152 54.3463C109.932 54.663 109.772 55.0172 109.679 55.3913C109.462 56.2365 109.462 57.1231 109.679 57.9682C109.774 58.3371 109.929 58.6878 110.138 59.0061C110.333 59.3014 110.596 59.5465 110.903 59.7219C111.231 59.8984 111.598 59.9871 111.97 59.9795C112.33 59.9885 112.687 59.9035 113.004 59.7328C113.322 59.5621 113.59 59.3116 113.781 59.0061C113.999 58.691 114.159 58.3395 114.253 57.9682C114.361 57.5448 114.414 57.1094 114.411 56.6726ZM117.138 56.6798C117.139 57.3842 117.031 58.0846 116.816 58.7555C116.609 59.4183 116.281 60.037 115.85 60.5808C115.388 61.1616 114.796 61.626 114.122 61.9368C113.449 62.2476 112.711 62.396 111.97 62.3703C111.228 62.3944 110.49 62.2452 109.815 61.9346C109.141 61.624 108.548 61.1605 108.083 60.5808C107.654 60.0357 107.326 59.4173 107.117 58.7555C106.686 57.4126 106.686 55.9684 107.117 54.6255C107.324 53.9708 107.649 53.3595 108.076 52.8217C108.515 52.2832 109.067 51.8482 109.694 51.5476C110.404 51.2107 111.184 51.044 111.97 51.0608C112.707 51.0405 113.439 51.1885 114.11 51.4936C114.781 51.7987 115.373 52.253 115.842 52.8217C116.272 53.3513 116.601 53.9526 116.816 54.6255C117.031 55.2983 117.138 55.9854 117.138 56.6798ZM125.763 62.1269V55.9711C125.806 55.2948 125.625 54.6231 125.248 54.06C125.08 53.8413 124.863 53.6661 124.614 53.549C124.365 53.4319 124.091 53.3764 123.816 53.3871C123.391 53.3823 122.974 53.499 122.614 53.7236C122.268 53.9327 121.948 54.1826 121.662 54.468V62.1269H118.884V51.3257H121.418L121.547 52.1846C122.421 51.4561 123.523 51.0583 124.661 51.0608C125.233 51.0608 125.756 51.1467 126.236 51.3185C126.703 51.4876 127.123 51.7676 127.46 52.1345C127.81 52.5067 128.075 52.9935 128.261 53.5876C128.447 54.1888 128.54 54.9046 128.54 55.7349V62.1269H125.763ZM137.18 55.4271C137.159 55.0912 137.079 54.7616 136.944 54.4537C136.833 54.1999 136.672 53.9711 136.471 53.7808C136.124 53.4598 135.67 53.281 135.197 53.2798C134.69 53.2889 134.202 53.4793 133.823 53.8166C133.594 54.0205 133.409 54.268 133.277 54.5445C133.146 54.8211 133.071 55.1212 133.057 55.4271H137.18ZM132.992 57.4242C133.05 58.3332 133.336 58.9918 133.851 59.3926C134.419 59.8145 135.113 60.0292 135.82 60.001C136.48 60.0002 137.135 59.8789 137.752 59.6431C137.979 59.5534 138.199 59.4482 138.411 59.3282C138.555 59.246 138.69 59.1475 138.812 59.0347L139.556 61.2966C139.135 61.5815 138.674 61.8034 138.189 61.9551C137.303 62.2269 136.382 62.3668 135.455 62.3703C134.772 62.3727 134.095 62.2589 133.451 62.0339C132.825 61.8155 132.255 61.461 131.783 60.996C131.283 60.495 130.893 59.8953 130.638 59.2351C130.335 58.4354 130.189 57.5848 130.208 56.7299C130.208 55.8137 130.344 55.012 130.602 54.3105C130.922 53.3489 131.542 52.5148 132.37 51.9302C133.198 51.3455 134.191 51.0409 135.204 51.0608C135.857 51.0543 136.505 51.1684 137.115 51.3973C137.695 51.6191 138.196 51.9699 138.619 52.4351C139.048 52.9076 139.384 53.516 139.628 54.2676C139.878 55.012 140 55.8996 140 56.9303V57.4242H132.992Z" fill="#EE3023"/>
</svg>
