<svg width="156" height="112" viewBox="0 0 156 112" fill="none" xmlns="http://www.w3.org/2000/svg">
<rect width="156" height="112" rx="16" fill="#F6F7F8"/>
<path d="M29.0148 54.9461L30.9248 49.8767H18L19.8956 54.9461H29.0148Z" fill="#00AF7E"/>
<path d="M41.9395 54.9461L43.8495 49.8767H35.8217L37.7174 54.9461H41.9395Z" fill="#00AF7E"/>
<path d="M33.7683 57.4737L35.6783 62.5287H19.8956L18 57.4737H33.7683Z" fill="#00AF7E"/>
<path d="M41.9397 62.5287L43.8497 57.4737H38.7372L40.6759 62.5287H41.9397Z" fill="#00AF7E"/>
<path d="M37.3532 67.394H42.3939L37.5399 54.7563L35.6012 49.6869L33.4183 44H27.9899L25.807 49.6869H30.7041L32.5997 54.7563L37.3532 67.394Z" fill="#141A23"/>
<path d="M23.8681 54.7562H28.7939L27.8461 57.2837H22.8916L23.8681 54.7562Z" fill="#141A23"/>
<path d="M20.9531 62.3388H25.9507L24.0551 67.3938H19L20.9531 62.3388Z" fill="#141A23"/>
<path d="M45.4815 66.4033C45.3954 66.6905 45.18 66.8629 44.8927 66.8629C44.7061 66.8629 44.5481 66.8054 44.4332 66.6762C44.3183 66.5469 44.2609 66.3889 44.2609 66.1879C44.2609 66.0012 44.3183 65.8432 44.4476 65.7283C44.5768 65.5991 44.7204 65.5416 44.8927 65.5416C45.0364 65.5416 45.1656 65.5847 45.2661 65.6709C45.381 65.7571 45.4528 65.8719 45.4815 66.0012L45.2374 66.0874C45.1943 65.8863 45.0651 65.7571 44.8927 65.7571C44.6773 65.7571 44.5337 65.9294 44.5337 66.2023C44.5337 66.4607 44.6773 66.6331 44.8927 66.6331C45.0794 66.6331 45.1943 66.5182 45.2374 66.3028L45.4815 66.4033Z" fill="#141A23"/>
<path fill-rule="evenodd" clip-rule="evenodd" d="M44.864 67.4517C44.5194 67.4517 44.2178 67.3368 43.9736 67.0926C43.7295 66.8485 43.6146 66.5613 43.6146 66.2166C43.6146 65.8719 43.7295 65.5704 43.9736 65.3406C44.2178 65.0965 44.505 64.9816 44.864 64.9816C45.2087 64.9816 45.5103 65.0965 45.74 65.3406C45.9842 65.5847 46.0991 65.8719 46.0991 66.2166C46.0991 66.5613 45.9842 66.8629 45.74 67.0926C45.5103 67.3224 45.2087 67.4517 44.864 67.4517ZM45.6108 66.9634C45.8119 66.7623 45.9124 66.5038 45.9124 66.2023C45.9124 65.9007 45.8119 65.6565 45.6108 65.4555C45.4097 65.2544 45.1656 65.1539 44.864 65.1539C44.5768 65.1539 44.3183 65.2544 44.1173 65.4555C43.9162 65.6565 43.8157 65.915 43.8157 66.2023C43.8157 66.5038 43.9162 66.748 44.1173 66.9634C44.3183 67.1644 44.5768 67.265 44.864 67.265C45.1512 67.265 45.4097 67.1644 45.6108 66.9634Z" fill="#141A23"/>
<path fill-rule="evenodd" clip-rule="evenodd" d="M49.2585 67.365H52.5471L53.9976 63.229H61.0631L62.6285 67.365H66.2187L59.4116 49.658H55.8214L49.2585 67.365ZM60.0004 60.3999H55.0172L57.4442 53.5928L60.0004 60.3999Z" fill="#141A23"/>
<path fill-rule="evenodd" clip-rule="evenodd" d="M74.8066 67.365V63.9471C74.3615 66.2305 73.1264 67.6091 70.7856 67.6091C68.3729 67.6091 65.9747 65.6704 65.9747 61.4052C65.9747 57.2693 68.3873 55.3305 70.7856 55.3305C73.1264 55.3305 74.3471 56.6805 74.8066 58.9495V49.658H77.8799V67.365H74.8066ZM72.1499 65.4406C73.6865 65.4406 74.7205 64.0189 74.7205 61.3765C74.7205 58.8202 73.6865 57.4129 72.1499 57.4129C70.6132 57.4129 69.3926 58.8346 69.3926 61.3765C69.3782 64.0333 70.6132 65.4406 72.1499 65.4406Z" fill="#141A23"/>
<path d="M84.1125 67.365H86.238L91.4797 55.5603H88.507L85.4337 63.2578L82.4179 55.5603H79.0431L84.1125 67.365Z" fill="#141A23"/>
<path d="M97.4106 55.3165C99.8663 55.3165 102.15 56.8818 102.724 59.3375L99.9094 60.3715C99.5073 58.203 98.5163 57.2983 97.2239 57.2983C95.6442 57.2983 94.6102 58.7631 94.6102 61.4342C94.6102 64.2921 95.8596 65.5702 97.2526 65.5702C98.6887 65.5702 99.4498 64.4644 99.9237 62.2672L102.738 63.3012C102.293 65.9148 99.9237 67.5951 97.4249 67.5951C94.007 67.5951 91.1923 65.0676 91.1923 61.4342C91.1779 57.844 93.9926 55.3165 97.4106 55.3165Z" fill="#141A23"/>
<path d="M121.594 60.0842C119.699 59.6821 119.11 59.3518 119.11 58.7199C119.11 58.0593 119.67 57.6141 120.805 57.571C121.839 57.571 122.715 58.0019 123.303 59.1364L125.4 58.0737C124.524 56.0201 122.657 55.2877 120.675 55.2877C118.291 55.2877 116.353 56.5514 116.353 58.9066C116.353 61.1038 117.645 62.1522 120.388 62.7123C122.284 63.1144 122.873 63.5165 122.873 64.2058C122.873 64.8377 122.37 65.2398 121.121 65.2398C119.799 65.2398 118.708 64.7515 118.119 63.617L116.022 64.7946C116.898 66.6615 118.593 67.5806 121.049 67.5806C124.337 67.5806 125.63 65.8142 125.63 63.7606C125.63 61.8075 124.61 60.7161 121.594 60.0842Z" fill="#141A23"/>
<path d="M130.225 67.365H127.152V49.658H130.225V59.4377C130.671 56.8241 131.906 55.3305 134.246 55.3305C136.085 55.3305 137.794 56.5799 137.794 59.0356V67.365H134.72V60.1845C134.72 59.6388 134.548 59.1505 134.246 58.6479C133.945 58.1453 133.442 57.9155 132.753 57.9155C130.857 57.9155 130.225 59.8255 130.225 60.7446V67.365Z" fill="#141A23"/>
<path fill-rule="evenodd" clip-rule="evenodd" d="M104.002 58.9929L106.817 60.0269C107.061 59.1653 107.334 58.5621 107.65 58.2318C107.98 57.8584 108.583 57.6717 109.459 57.6717C110.192 57.6717 110.709 57.8153 111.025 58.1169C111.341 58.4185 111.499 58.878 111.499 59.5099V60.0126C110.407 60.4147 109.402 60.7019 108.469 60.8886C107.535 61.0753 106.731 61.2907 106.056 61.5205C105.381 61.7502 104.85 62.0949 104.462 62.5257C104.074 62.9566 103.887 63.6172 103.887 64.4932C103.887 65.4697 104.203 66.2309 104.821 66.7909C105.438 67.351 106.271 67.6239 107.291 67.6239C107.722 67.6239 108.167 67.5521 108.641 67.4228C108.649 67.4147 108.662 67.4112 108.676 67.4071C108.688 67.4039 108.7 67.4004 108.713 67.3941C109.416 67.1787 110.034 66.7478 110.508 66.1734L111.499 64.9671V65.5128L111.484 67.3797H114.572V58.9929C114.572 57.6861 114.184 56.7526 113.409 56.1782C112.633 55.6181 111.355 55.3309 109.574 55.3309C108.899 55.3309 108.253 55.4027 107.636 55.5463C107.018 55.6899 106.472 55.9053 105.984 56.2069C105.496 56.5085 105.079 56.8962 104.735 57.3558C104.39 57.8153 104.146 58.3611 104.002 58.9929ZM107.65 64.9814C107.377 64.7086 107.248 64.3639 107.248 63.9187C107.248 63.2438 107.535 62.6981 108.11 62.2816C108.545 61.9768 109.302 61.7545 110.375 61.4395C110.718 61.339 111.092 61.2291 111.499 61.104V62.9996C111.384 63.4017 111.212 63.7608 110.996 64.0623C110.781 64.3639 110.551 64.6081 110.292 64.8091C110.048 64.9958 109.775 65.1394 109.503 65.2399C109.23 65.3405 108.986 65.3836 108.785 65.3836C108.296 65.3836 107.923 65.2543 107.65 64.9814Z" fill="#141A23"/>
</svg>
