<svg width="156" height="112" viewBox="0 0 156 112" fill="none" xmlns="http://www.w3.org/2000/svg">
<rect width="156" height="112" rx="16" fill="#F6F7F8"/>
<path d="M102.214 46.964C100.427 46.964 98.6801 47.494 97.1942 48.487C95.7083 49.4799 94.5502 50.8912 93.8664 52.5424C93.1826 54.1936 93.0038 56.0104 93.3526 57.7632C93.7015 59.516 94.5623 61.126 95.8262 62.3895C97.09 63.653 98.7003 64.5134 100.453 64.8617C102.206 65.2101 104.023 65.0308 105.674 64.3465C107.325 63.6622 108.736 62.5037 109.728 61.0175C110.721 59.5313 111.25 57.7841 111.25 55.997C111.25 54.8105 111.016 53.6357 110.562 52.5396C110.108 51.4435 109.442 50.4476 108.603 49.6088C107.764 48.77 106.768 48.1047 105.672 47.6509C104.576 47.1971 103.401 46.9637 102.214 46.964ZM102.214 61.1337C101.201 61.1307 100.211 60.8275 99.3704 60.2623C98.5293 59.6972 97.8747 58.8954 97.489 57.9584C97.1033 57.0214 97.004 55.9911 97.2036 54.9977C97.4031 54.0043 97.8926 53.0922 98.6101 52.3768C99.3277 51.6614 100.241 51.1747 101.235 50.9781C102.229 50.7815 103.259 50.884 104.195 51.2724C105.131 51.6609 105.931 52.318 106.493 53.1607C107.056 54.0034 107.356 54.994 107.356 56.0072C107.356 56.6817 107.223 57.3496 106.965 57.9726C106.706 58.5956 106.327 59.1614 105.849 59.6377C105.372 60.1139 104.805 60.4912 104.181 60.7479C103.557 61.0047 102.889 61.1358 102.214 61.1337Z" fill="#1E2330"/>
<path d="M66.4773 46.964C64.6901 46.9635 62.9428 47.4931 61.4565 48.4857C59.9702 49.4784 58.8117 50.8895 58.1275 52.5406C57.4433 54.1917 57.2642 56.0087 57.6128 57.7616C57.9613 59.5146 58.8219 61.1248 60.0857 62.3886C61.3495 63.6524 62.9597 64.513 64.7127 64.8615C66.4656 65.2101 68.2826 65.0309 69.9337 64.3468C71.5848 63.6626 72.9959 62.5041 73.9886 61.0178C74.9812 59.5315 75.5108 57.7842 75.5103 55.997C75.5096 53.6015 74.5577 51.3043 72.8638 49.6105C71.17 47.9166 68.8728 46.9647 66.4773 46.964ZM66.4773 61.1337C65.4639 61.1312 64.474 60.8284 63.6327 60.2635C62.7913 59.6987 62.1362 58.8972 61.7502 57.9602C61.3641 57.0232 61.2644 55.9929 61.4637 54.9993C61.6629 54.0057 62.1522 53.0934 62.8697 52.3777C63.5871 51.662 64.5006 51.1751 65.4947 50.9783C66.4888 50.7815 67.5189 50.8838 68.4549 51.2722C69.3909 51.6606 70.1908 52.3176 70.7536 53.1604C71.3163 54.0032 71.6167 54.9938 71.6167 56.0072C71.6167 56.6815 71.4836 57.3492 71.2252 57.972C70.9668 58.5948 70.588 59.1606 70.1106 59.6368C69.6332 60.113 69.0666 60.4903 68.4431 60.7472C67.8196 61.0041 67.1516 61.1354 66.4773 61.1337Z" fill="#1E2330"/>
<path d="M92.1894 64.5839H76.9149V61.6182L86.1427 51.1088H78.6861C78.2164 51.1088 77.7659 50.9222 77.4337 50.5901C77.1015 50.2579 76.9149 49.8074 76.9149 49.3376V47.3742H92.1894V50.4116L82.5361 60.8595H90.4207C90.6532 60.8595 90.8834 60.9053 91.0982 60.9944C91.3129 61.0834 91.508 61.2139 91.6723 61.3784C91.8365 61.5429 91.9668 61.7382 92.0555 61.9531C92.1442 62.168 92.1897 62.3982 92.1894 62.6307V64.5839Z" fill="#1E2330"/>
<path d="M132.276 64.6172H128.175L124.794 54.4795L121.38 64.6172H117.279L111.557 47.3742H114.328C114.835 47.3741 115.329 47.5348 115.739 47.8333C116.149 48.1318 116.454 48.5526 116.61 49.0352L119.488 57.9604L123 47.3742H126.552L130.069 57.9938L132.948 49.0403C133.103 48.5572 133.408 48.1359 133.817 47.8369C134.227 47.538 134.722 47.3768 135.229 47.3767H138L132.276 64.6172Z" fill="#1E2330"/>
<path d="M49.9366 55.5125C49.5617 55.5597 49.1834 55.456 48.8849 55.2243C48.5864 54.9927 48.3921 54.6519 48.3448 54.277C48.0233 51.7252 46.9906 49.3153 45.3646 47.3226C43.7386 45.3298 41.5848 43.8346 39.1494 43.0077C36.714 42.1809 34.0951 42.0557 31.5919 42.6465C29.0887 43.2373 26.8022 44.5203 24.9935 46.3489C24.7263 46.6159 24.3639 46.7659 23.9861 46.7659C23.6084 46.7659 23.246 46.6159 22.9788 46.3489C22.7117 46.0816 22.5617 45.7193 22.5617 45.3415C22.5617 44.9637 22.7117 44.6014 22.9788 44.3341C25.1644 42.1293 27.9257 40.5831 30.9477 39.8719C33.9697 39.1607 37.1308 39.3131 40.0703 40.3117C43.0099 41.3104 45.6096 43.1151 47.573 45.52C49.5364 47.9248 50.7844 50.8331 51.1747 53.913C51.2218 54.288 51.1181 54.6662 50.8865 54.9647C50.6548 55.2632 50.314 55.4575 49.9392 55.5048L49.9366 55.5125Z" fill="url(#paint0_linear_16450_10903)"/>
<path d="M34.7339 61.2619C33.693 61.2624 32.6753 60.9542 31.8096 60.3763C30.9438 59.7984 30.269 58.9767 29.8703 58.0151C29.4716 57.0536 29.367 55.9954 29.5698 54.9745C29.7725 53.9535 30.2735 53.0156 31.0094 52.2794C31.7452 51.5432 32.6829 51.0417 33.7037 50.8385C34.7246 50.6352 35.7828 50.7393 36.7446 51.1375C37.7063 51.5357 38.5283 52.2102 39.1067 53.0757C39.685 53.9411 39.9937 54.9586 39.9937 55.9995C39.9923 57.3943 39.4378 58.7317 38.4518 59.7182C37.4658 60.7047 36.1287 61.2599 34.7339 61.2619ZM34.7339 53.5875C34.2568 53.5875 33.7905 53.729 33.3938 53.994C32.9972 54.259 32.688 54.6358 32.5055 55.0765C32.3229 55.5172 32.2751 56.0022 32.3682 56.4701C32.4613 56.938 32.691 57.3678 33.0283 57.7051C33.3657 58.0424 33.7954 58.2722 34.2633 58.3652C34.7312 58.4583 35.2162 58.4105 35.6569 58.228C36.0977 58.0454 36.4744 57.7362 36.7394 57.3396C37.0045 56.9429 37.1459 56.4766 37.1459 55.9995C37.1452 55.36 36.8909 54.7469 36.4387 54.2947C35.9865 53.8425 35.3734 53.5882 34.7339 53.5875Z" fill="url(#paint1_linear_16450_10903)"/>
<path d="M38.1405 46.7154C38.1421 46.8181 38.1309 46.9205 38.1071 47.0204C38.0392 47.3399 37.8631 47.626 37.6086 47.8306C37.3541 48.0352 37.0367 48.1456 36.7102 48.1431C36.6084 48.1433 36.507 48.1322 36.4077 48.1098C35.8609 47.9929 35.3033 47.9337 34.7441 47.933C32.7391 47.9453 30.8028 48.6651 29.2767 49.9656C28.5744 50.5782 27.8849 51.2934 27.2261 51.988C26.8801 52.3495 26.5366 52.7058 26.2008 53.0518L21.1665 58.0758L19.4056 59.8367C19.3137 59.93 19.1982 59.9965 19.0715 60.0292C18.9447 60.0619 18.8115 60.0596 18.6859 60.0225C18.5604 59.9853 18.4473 59.9149 18.3587 59.8185C18.2701 59.7221 18.2094 59.6035 18.1829 59.4753C18.1188 59.1421 18.0624 58.8063 18.0189 58.4654C17.9736 58.1139 18.01 57.7567 18.1251 57.4215C18.2403 57.0864 18.4311 56.7822 18.6827 56.5327L24.1733 51.0371C24.5065 50.7064 24.8346 50.3629 25.1627 50.0118C25.8753 49.2659 26.6058 48.502 27.4081 47.8022C28.5547 46.8211 29.8878 46.0817 31.3273 45.6286C33.164 45.0313 35.1252 44.9261 37.0152 45.3236C37.334 45.3912 37.6198 45.5665 37.8247 45.8199C38.0296 46.0733 38.1411 46.3895 38.1405 46.7154Z" fill="url(#paint2_linear_16450_10903)"/>
<path d="M34.7339 72.5685C31.8601 72.5587 29.0377 71.8058 26.5409 70.3829C24.0442 68.96 21.9578 66.9155 20.4847 64.448C20.3254 64.1765 20.2608 63.8596 20.3012 63.5474C20.3415 63.2351 20.4846 62.9451 20.7077 62.723L24.9192 58.5141C25.0858 58.3475 25.2912 58.2248 25.5169 58.1571C25.7426 58.0893 25.9815 58.0786 26.2124 58.1258C26.4432 58.1731 26.6588 58.2768 26.8397 58.4278C27.0207 58.5787 27.1613 58.7722 27.2492 58.9909C27.9512 60.739 29.2431 62.1862 30.9007 63.0813C32.5583 63.9763 34.477 64.2628 36.3238 63.8911C38.1706 63.5193 39.8289 62.5126 41.011 61.0459C42.1931 59.5791 42.8244 57.7447 42.7953 55.8611C42.7913 55.5714 42.7707 55.2821 42.7338 54.9947C42.5022 53.1652 41.6499 51.4706 40.3192 50.1938C40.0463 49.9323 39.8884 49.5732 39.8803 49.1954C39.8721 48.8176 40.0143 48.452 40.2757 48.179C40.4054 48.0441 40.5606 47.9361 40.7321 47.8613C40.9037 47.7865 41.0884 47.7462 41.2756 47.7429C41.4627 47.7396 41.6487 47.7732 41.8229 47.8419C41.997 47.9106 42.1559 48.0129 42.2904 48.1431C44.0881 49.8684 45.2413 52.1568 45.5585 54.6282C45.6186 55.0828 45.6477 55.541 45.6457 55.9995C45.6447 58.3567 44.8804 60.6501 43.4673 62.5366C42.0541 64.4232 40.0681 65.8014 37.8063 66.4651C35.5446 67.1288 33.1287 67.0423 30.9202 66.2185C28.7117 65.3947 26.8294 63.8779 25.5548 61.895L23.5376 63.9123C24.7624 65.6468 26.3734 67.073 28.2437 68.0784C30.1139 69.0838 32.1922 69.6409 34.3145 69.7058C36.4369 69.7706 38.5453 69.3415 40.4735 68.4522C42.4016 67.5629 44.0968 66.2378 45.4252 64.5813C45.5427 64.4355 45.6877 64.3143 45.852 64.2246C46.0163 64.1349 46.1967 64.0784 46.3829 64.0584C46.569 64.0384 46.7573 64.0553 46.9369 64.1081C47.1165 64.1608 47.284 64.2485 47.4297 64.366C47.5754 64.4832 47.6966 64.628 47.7863 64.7921C47.876 64.9562 47.9324 65.1364 47.9524 65.3223C47.9724 65.5083 47.9556 65.6963 47.9028 65.8757C47.8501 66.0551 47.7625 66.2224 47.645 66.3679C46.0966 68.3045 44.1319 69.8675 41.8967 70.9409C39.6616 72.0143 37.2134 72.5706 34.7339 72.5685Z" fill="url(#paint3_linear_16450_10903)"/>
<defs>
<linearGradient id="paint0_linear_16450_10903" x1="28.2483" y1="28.8786" x2="69.5" y2="124.002" gradientUnits="userSpaceOnUse">
<stop stop-color="#00E587"/>
<stop offset="1" stop-color="#00B8AD"/>
</linearGradient>
<linearGradient id="paint1_linear_16450_10903" x1="-93.2907" y1="2.42862" x2="-53.5195" y2="165.541" gradientUnits="userSpaceOnUse">
<stop stop-color="#00E587"/>
<stop offset="1" stop-color="#00B8AD"/>
</linearGradient>
<linearGradient id="paint2_linear_16450_10903" x1="15.3481" y1="30.1299" x2="51.3536" y2="139.85" gradientUnits="userSpaceOnUse">
<stop stop-color="#00E587"/>
<stop offset="1" stop-color="#00B8AD"/>
</linearGradient>
<linearGradient id="paint3_linear_16450_10903" x1="17.5908" y1="40.8532" x2="44.8229" y2="71.6944" gradientUnits="userSpaceOnUse">
<stop stop-color="#00E587"/>
<stop offset="1" stop-color="#00B8AD"/>
</linearGradient>
</defs>
</svg>
