<svg width="156" height="112" viewBox="0 0 156 112" fill="none" xmlns="http://www.w3.org/2000/svg">
<rect width="156" height="112" rx="16" fill="#F6F7F8"/>
<path d="M39.7336 51.7427C41.379 51.7427 42.2189 52.6626 42.2498 54.4516V59.9656C42.2335 60.5928 41.9644 61.1873 41.5026 61.6109C41.0554 62.0764 40.4409 62.3454 39.7936 62.3563H36.2557V66.3251H33.6377V54.5552C33.6068 53.8243 33.8231 53.1026 34.2522 52.5099C34.4813 52.2808 34.7521 52.0972 35.0485 51.9681C35.3467 51.8227 35.6703 51.7463 36.0012 51.7427H39.7336ZM57.6907 51.7427V58.8203C57.6907 59.3911 57.9161 59.6675 58.387 59.6675H60.2378C60.445 59.6711 60.6468 59.5947 60.8014 59.4529C60.9468 59.3493 61.0323 59.1821 61.0359 59.0039V51.7427H63.623V63.4326C63.6412 64.1689 63.4048 64.8907 62.9576 65.4761C62.5231 66.0087 61.8668 66.3087 61.1777 66.2851H55.0436V63.6453H60.2705C60.4687 63.6344 60.6559 63.5544 60.8014 63.4217C60.9359 63.3181 61.0141 63.1599 61.0159 62.9926V62.3563H57.6725C57.3234 62.3691 56.9762 62.3091 56.6489 62.1836C56.3362 62.0618 56.0544 61.8746 55.8217 61.6309C55.5744 61.3764 55.3835 61.0746 55.2581 60.7419C55.1308 60.4147 55.069 60.0693 55.0763 59.7184V51.7445H57.6943L57.6907 51.7427ZM110.042 51.7536V52.3772H106.093C105.517 52.3445 104.944 52.4954 104.457 52.8062C104.015 53.2135 103.791 53.8043 103.855 54.4007V59.4129C103.855 59.7584 103.906 60.1038 104.008 60.4347C104.128 60.7601 104.328 61.0473 104.589 61.2746C104.831 61.4782 105.12 61.62 105.429 61.6818C105.735 61.7455 106.048 61.7764 106.36 61.7746H110.093V62.4091H106.298V62.3581C105.935 62.3581 105.571 62.3218 105.215 62.2545C104.837 62.1818 104.486 62.0109 104.191 61.7637C103.859 61.4928 103.602 61.1419 103.446 60.7419C103.297 60.3238 103.224 59.8856 103.23 59.4439V54.4316C103.22 54.0861 103.26 53.7407 103.353 53.4098C103.462 53.0662 103.651 52.7553 103.906 52.5008C104.186 52.2063 104.539 51.9918 104.928 51.8754C105.293 51.79 105.668 51.7482 106.042 51.7536H110.042ZM50.2966 51.7427C52.0292 51.7427 52.9092 52.5808 52.9364 54.2588V59.8729C52.9382 60.5183 52.7055 61.1455 52.2819 61.6309C51.8456 62.1109 51.222 62.3763 50.5729 62.3581H46.995C45.246 62.3581 44.3661 61.54 44.3352 59.9638V57.7985C44.2515 57.1041 44.4915 56.4096 44.986 55.9169C45.4824 55.4224 46.1769 55.186 46.8714 55.2733H50.3893V55.017L50.3384 55.0479C50.3384 54.6388 50.1239 54.4552 49.6421 54.4661H44.377V51.7409H50.2966V51.7427ZM73.6769 51.7227V54.4134H69.0608C68.5191 54.4134 68.2536 54.577 68.2536 54.9042V55.137C68.2536 55.486 68.53 55.6496 69.0808 55.6496H71.3825C71.9825 55.6624 72.5533 55.9223 72.957 56.3641C73.3897 56.8041 73.6333 57.3949 73.6333 58.0112V59.9656C73.6024 60.6019 73.3351 61.2019 72.8861 61.6528C72.6861 61.8891 72.4388 62.08 72.1588 62.2145C71.8298 62.32 71.4843 62.3672 71.1371 62.3581H65.6556V59.6675H70.3099C70.7389 59.6675 70.9535 59.4857 70.9734 59.1584V58.9221C70.9716 58.8403 70.9498 58.7585 70.9116 58.6857C70.7989 58.4821 70.6771 58.3803 70.5244 58.3803H68.2118C67.5573 58.3803 66.9264 58.1276 66.4537 57.6731C66.0065 57.2968 65.7411 56.7459 65.7265 56.1605V54.1152C65.7265 52.5481 66.5756 51.75 68.2736 51.7227H73.6733H73.6769ZM81.4582 51.7427C83.1854 51.7427 84.0653 52.6117 84.0853 54.2588V59.8729C84.0981 60.5183 83.8672 61.1455 83.4417 61.6309C83.0054 62.1109 82.3818 62.3763 81.7328 62.3581H78.1439C76.4058 62.3581 75.5168 61.54 75.495 59.9638V57.7985C75.4132 57.1095 75.6495 56.4223 76.1386 55.9296C76.6258 55.4387 77.313 55.1951 78.0021 55.2733H81.4782V55.017L81.4982 55.0479C81.4982 54.6388 81.2837 54.4552 80.7928 54.4661H75.5368V51.7409H81.4582V51.7427ZM90.6831 47.7958V50.3937H89.6595C89.1068 50.3937 88.8305 50.6682 88.8214 51.1809V51.7427H90.6813V54.4334H88.8305V62.3581H86.1834V50.2283C86.1779 49.5556 86.4743 48.9139 86.9906 48.4812C87.5669 48.0121 88.2942 47.7685 89.0359 47.7958H90.6831ZM94.7919 51.7427H98.3117C99.0026 51.6772 99.6898 51.9318 100.172 52.4335C100.653 52.9353 100.881 53.6298 100.786 54.3188V56.4368L94.8755 58.7585V58.9221C94.861 59.1093 94.9246 59.293 95.0483 59.4329C95.1028 59.5729 95.2373 59.6657 95.3864 59.6693H100.755V62.3581H95.0483C94.6374 62.3727 94.2265 62.3218 93.832 62.2036C93.5175 62.1036 93.232 61.9327 92.9938 61.7037C92.732 61.4637 92.5321 61.1655 92.4121 60.8346C92.2884 60.4347 92.2321 60.0165 92.2484 59.5966V54.2279C92.1757 53.5371 92.423 52.8535 92.9211 52.3699C93.4156 51.8863 94.1065 51.6554 94.7937 51.7427H94.7919ZM117.792 51.6809C118.241 51.6754 118.69 51.71 119.132 51.7827C119.338 51.8227 119.532 51.9027 119.705 52.019C119.907 52.1463 120.081 52.3136 120.218 52.5099C120.694 53.1208 120.945 53.8807 120.923 54.657V59.4639C120.923 59.8056 120.894 60.1474 120.841 60.4856C120.756 60.8655 120.576 61.2164 120.319 61.5091C119.796 62.08 119.047 62.3909 118.274 62.3581H115.203C114.472 62.3872 113.76 62.1254 113.22 61.6309C112.749 61.1764 112.473 60.5619 112.442 59.9165V58.0312C112.345 57.2786 112.598 56.5205 113.127 55.9751C113.656 55.4297 114.407 55.1551 115.163 55.2297H120.358V54.5243C120.37 53.9716 120.194 53.4298 119.858 52.9899C119.672 52.7281 119.412 52.5281 119.11 52.4172C118.776 52.3372 118.432 52.299 118.087 52.3045H112.413V51.6809H117.79H117.792ZM127.592 51.6809V52.3045H126.792C125.341 52.3045 124.625 53.1226 124.655 54.6879V62.3581H124.021V54.6879C124.021 52.6426 124.952 51.6809 126.893 51.6809H127.59H127.592ZM137.971 48.2139V59.3929H138C137.94 61.4382 136.876 62.3981 134.789 62.3563H132.468C132.026 62.3618 131.584 62.32 131.15 62.2345C130.708 62.1036 130.311 61.8527 130.004 61.5073C129.75 61.2164 129.571 60.8637 129.482 60.4856C129.377 60.1038 129.337 59.7056 129.359 59.3111V54.737C129.359 52.6917 130.382 51.67 132.428 51.67H137.346V48.2139H137.971ZM137.376 52.3045H132.428C132.082 52.2972 131.737 52.339 131.404 52.4281C131.07 52.5154 130.768 52.7044 130.546 52.9699C130.311 53.1898 130.142 53.4698 130.055 53.7771C129.951 54.1079 129.91 54.4552 129.931 54.8006V59.6893C129.855 60.3292 130.128 60.9619 130.648 61.3437C130.888 61.4891 131.15 61.5946 131.424 61.6528C131.742 61.7382 132.068 61.78 132.397 61.7746H134.555C135.258 61.8018 135.955 61.6055 136.538 61.211C137.084 60.7674 137.378 60.0838 137.326 59.382L137.376 52.3045ZM120.298 55.8533H115.052C114.503 55.8423 113.972 56.0532 113.58 56.435C113.249 56.8023 113.054 57.2677 113.027 57.7567V59.6057C113.023 59.8911 113.058 60.1765 113.129 60.4529C113.205 60.7401 113.378 60.9892 113.62 61.1601C114.038 61.5237 114.571 61.7237 115.123 61.7218H118.305C119.632 61.7218 120.35 61.0055 120.35 59.6147L120.298 55.8514V55.8533ZM39.0282 54.4316H36.9829C36.7757 54.4261 36.5757 54.5079 36.4357 54.6588C36.3302 54.7715 36.2648 54.9152 36.2466 55.066V58.8803C36.2248 59.1002 36.3066 59.3166 36.4648 59.4711C36.6248 59.6238 36.8466 59.6966 37.0647 59.6675H38.9355C39.1228 59.6711 39.3009 59.5929 39.4264 59.4529C39.5537 59.3475 39.6264 59.1893 39.6209 59.0239V55.077C39.6209 54.6588 39.4064 54.4425 39.0282 54.4316ZM47.0641 57.8985C46.955 58.0694 46.9095 58.2712 46.9332 58.4712L46.9532 59.1366C46.9532 59.2857 47.0295 59.4275 47.1586 59.5038C47.2859 59.6184 47.4568 59.6766 47.6277 59.6675H49.673C50.1239 59.6675 50.3584 59.4948 50.3693 59.1366V58.3912C50.3693 57.9803 50.133 57.7767 49.653 57.7767H47.6077C47.4186 57.7585 47.2295 57.8022 47.0659 57.8985H47.0641ZM78.2257 57.8985C78.113 58.0676 78.0621 58.2694 78.0839 58.4712L78.1021 59.1366C78.1021 59.2893 78.1857 59.4293 78.3184 59.5038C78.4475 59.6184 78.6166 59.6766 78.7893 59.6675H80.8346C81.2837 59.6675 81.52 59.4948 81.5291 59.1366V58.3912C81.5291 57.9803 81.2928 57.7767 80.8128 57.7767H78.7693C78.5802 57.7585 78.3912 57.8022 78.2275 57.8985H78.2257ZM97.4954 54.4316H95.6737C95.4682 54.4206 95.2664 54.4916 95.1119 54.6261C94.9392 54.7297 94.8337 54.917 94.8355 55.117V56.1605L98.1081 54.9642V54.9024C98.1135 54.7679 98.0535 54.637 97.9444 54.5552C97.8099 54.4697 97.6535 54.4279 97.4954 54.4316Z" fill="#008AC9"/>
<path d="M26.736 51.741C28.3814 51.761 29.2504 52.6609 29.2504 54.4499V59.564C29.2195 61.353 28.3814 62.2729 26.7342 62.2729H20.3546C20.0274 62.2693 19.7037 62.1966 19.4038 62.0602C19.1129 61.9348 18.8474 61.7621 18.6165 61.5475C18.1911 60.953 17.9766 60.2331 18.002 59.5022V54.5135C17.9784 53.7845 18.1947 53.0663 18.6147 52.4682C18.8474 52.2573 19.1129 52.0882 19.4019 51.9682C19.6983 51.8228 20.0237 51.7464 20.3528 51.7428L26.736 51.741ZM23.5362 46.0014C26.3324 45.9378 28.6995 48.0413 28.9668 50.8192C28.994 51.161 28.994 51.5028 28.9668 51.8428C28.5595 51.4737 28.0559 51.2283 27.5123 51.1374C27.1342 49.2957 25.5106 47.9722 23.6271 47.9722C21.7454 47.9722 20.1219 49.2939 19.7419 51.1374C19.531 51.1828 19.3238 51.2519 19.1274 51.3428L19.1783 51.3119C18.8765 51.4446 18.5929 51.621 18.342 51.8337V51.0665C18.4747 48.2758 20.7437 46.0669 23.5362 46.0014Z" fill="#E3001B"/>
</svg>
