<svg width="156" height="112" viewBox="0 0 156 112" fill="none" xmlns="http://www.w3.org/2000/svg">
<rect width="156" height="112" rx="16" fill="#F6F7F8"/>
<path d="M99.5097 43.1434C97.519 42.3777 95.4037 41.9901 93.2719 42.0002C86.389 42.0002 81.5418 45.6824 81.5015 50.9525C81.5015 54.847 84.9581 57.0218 87.5983 58.3165C90.2386 59.6113 91.2262 60.5015 91.2161 61.685C91.2161 63.5057 89.0495 64.3352 87.0441 64.3352C84.7776 64.4017 82.5291 63.9121 80.4938 62.9089L79.5969 62.4841L78.5892 68.5533C81.0633 69.5166 83.695 70.0072 86.3487 69.9999C93.6548 69.9999 98.4415 66.3583 98.4415 60.7341C98.4415 57.6388 96.6075 55.3022 92.5866 53.3701C90.158 52.1057 88.6665 51.2762 88.6867 50.0017C88.7068 48.7271 89.9463 47.665 92.6672 47.665C94.4563 47.6198 96.2339 47.9649 97.8772 48.6766L98.502 48.9901L99.448 43.12L99.5097 43.1434Z" fill="#1A1F71"/>
<path fill-rule="evenodd" clip-rule="evenodd" d="M111.985 42.5062C110.396 42.3067 108.881 43.2393 108.337 44.7518L97.9981 69.6053H105.314C105.314 69.6053 106.503 66.2571 106.775 65.5592H115.684C115.767 65.9327 115.917 66.6372 116.069 67.355L116.151 67.746C116.355 68.717 116.54 69.6053 116.54 69.6053H123L117.367 42.5062H111.985ZM111.805 51.7015C112.002 51.1555 112.273 50.3933 112.469 49.8095L112.943 52.1563C112.943 52.1563 113.294 53.8482 113.673 55.6824L113.777 56.185C114.106 57.7803 114.435 59.3765 114.555 59.9755H108.781C109.355 58.4177 111.552 52.399 111.552 52.399C111.552 52.399 111.616 52.2248 111.714 51.9547L111.805 51.7015Z" fill="#1A1F71"/>
<path d="M74.2559 69.5952L78.6093 42.4758H71.656L67.3026 69.5952H74.2559Z" fill="#1A1F71"/>
<path d="M51.4811 44.772C51.0579 43.0524 49.8284 42.5466 48.3168 42.4859H37.0907L37 43.0423C39.733 43.7447 42.1771 44.7579 44.319 46.0176L50.5036 69.5649H57.8299L68.8343 42.496H61.4577L54.6454 60.987L53.9198 57.2241L53.8859 57.1126L53.9198 57.2038L51.4811 44.772Z" fill="#1A1F71"/>
<path d="M92.5735 73.9609H91.6509V81.4072H92.5735V73.9609Z" fill="#1A1F71"/>
<path d="M89.9118 78.094H87.1741V80.6421H90.2366V81.4082H86.2515V74.3389H90.0795V75.105H87.1741V77.3385H89.9118V78.094Z" fill="#1A1F71"/>
<path fill-rule="evenodd" clip-rule="evenodd" d="M96.6416 80.7999C95.7088 80.7999 94.9219 80.2861 94.9011 79.0376H98.4667C98.488 78.9327 98.4986 78.7964 98.4986 78.608C98.4986 77.6747 98.0684 76.227 96.4009 76.227C94.9219 76.227 94.0205 77.4228 94.0205 78.954C94.0205 80.4853 94.9538 81.5235 96.5159 81.5235C97.3241 81.5235 97.8901 81.3451 98.2154 81.1987L98.0477 80.538C97.7117 80.6844 97.3028 80.7999 96.6416 80.7999ZM96.3275 76.8877C97.3657 76.8877 97.6175 77.8003 97.6068 78.3769H94.9112C94.9847 77.7375 95.3835 76.8877 96.3275 76.8877Z" fill="#1A1F71"/>
<path d="M103.52 81.2296C103.279 81.3451 102.744 81.5235 102.062 81.5235C100.531 81.5235 99.5349 80.4853 99.5349 78.9327C99.5349 77.3701 100.604 76.227 102.261 76.227C102.807 76.227 103.289 76.3628 103.541 76.4996L103.332 77.2024C103.111 77.0869 102.765 76.9607 102.261 76.9607C101.097 76.9607 100.468 77.8312 100.468 78.8806C100.468 80.0551 101.223 80.7786 102.23 80.7786C102.754 80.7786 103.1 80.653 103.362 80.5374L103.52 81.2296Z" fill="#1A1F71"/>
<path d="M106.109 75.1153V76.3319H107.43V77.0342H106.109V79.7718C106.109 80.4017 106.287 80.7579 106.801 80.7579C107.052 80.7579 107.2 80.7371 107.336 80.6945L107.378 81.3978C107.2 81.4606 106.916 81.5235 106.56 81.5235C106.13 81.5235 105.783 81.3765 105.564 81.1359C105.312 80.8521 105.207 80.4017 105.207 79.8038V77.0342H104.42V76.3319H105.207V75.3879L106.109 75.1153Z" fill="#1A1F71"/>
<path d="M108.719 77.9156C108.719 77.3177 108.708 76.8039 108.677 76.3317H109.485L109.527 77.3385H109.558C109.789 76.657 110.355 76.2268 110.973 76.2268C111.057 76.2268 111.123 76.235 111.195 76.2439L111.226 76.2476V77.1186C111.131 77.0973 111.037 77.0973 110.91 77.0973C110.261 77.0973 109.799 77.5797 109.673 78.2723C109.652 78.398 109.642 78.555 109.642 78.7025V81.4082H108.719V77.9156Z" fill="#1A1F71"/>
<path fill-rule="evenodd" clip-rule="evenodd" d="M116.898 78.8279C116.898 80.7051 115.587 81.5235 114.37 81.5235C113.007 81.5235 111.938 80.5161 111.938 78.912C111.938 77.2232 113.059 76.227 114.454 76.227C115.912 76.227 116.898 77.286 116.898 78.8279ZM112.881 78.8806C112.881 79.9922 113.51 80.8313 114.412 80.8313C115.293 80.8313 115.953 80.0024 115.953 78.8593C115.953 77.9994 115.524 76.9186 114.433 76.9186C113.353 76.9186 112.881 77.926 112.881 78.8806Z" fill="#1A1F71"/>
<path d="M118.312 77.7049C118.312 77.1703 118.301 76.7508 118.27 76.3312H119.088L119.141 77.1703H119.162C119.413 76.6981 120.001 76.2263 120.84 76.2263C121.542 76.2263 122.633 76.6459 122.633 78.3863V81.4072H121.71V78.4811C121.71 77.6633 121.406 76.9813 120.536 76.9813C119.938 76.9813 119.466 77.4115 119.298 77.9253C119.256 78.0408 119.235 78.1979 119.235 78.3555V81.4072H118.312V77.7049Z" fill="#1A1F71"/>
</svg>
