<svg width="156" height="112" viewBox="0 0 156 112" fill="none" xmlns="http://www.w3.org/2000/svg">
<rect width="156" height="112" rx="16" fill="#F6F7F8"/>
<path d="M48.482 42V70H47.4686V42H48.482ZM62.2991 61.1506C63.1548 61.1506 63.8484 60.4923 63.8484 59.6803V44.8851H70.0262V59.6803C70.1266 62.3639 68.6752 64.8854 66.2416 66.2554C65.1507 66.8696 63.9404 67.2085 62.7178 67.272L62.4355 67.2818H62.153C60.835 67.259 59.5217 66.9168 58.3469 66.2554C55.9133 64.8854 54.4619 62.3639 54.5623 59.6803H60.7498C60.7498 60.4923 61.4435 61.1506 62.2991 61.1506ZM113.066 51.247C114.06 51.6495 114.96 52.234 115.716 52.967L115.736 52.9762C116.506 53.7234 117.109 54.6103 117.509 55.5839C118.353 57.6959 118.353 60.028 117.509 62.14C116.713 64.1042 115.109 65.6764 113.066 66.4954C112.143 66.8495 111.174 67.0518 110.197 67.1024L109.872 67.1136H109.546C108.46 67.0949 107.378 66.8888 106.352 66.4954C105.346 66.0946 104.435 65.5067 103.673 64.7662C102.915 64.0065 102.319 63.1147 101.919 62.14C101.49 61.0938 101.275 59.9798 101.285 58.8573C101.273 57.7378 101.488 56.6265 101.919 55.5839C102.319 54.6148 102.915 53.7291 103.673 52.9762C104.435 52.2357 105.346 51.6478 106.352 51.247C108.503 50.409 110.915 50.409 113.066 51.247ZM80.2965 50.5812C81.4401 50.5649 82.5758 50.7628 83.6387 51.1638C84.6087 51.5367 85.4779 52.1119 86.1819 52.8468V52.8375C86.8832 53.581 87.4171 54.4526 87.7507 55.3989C88.1154 56.4614 88.2932 57.5736 88.2769 58.6909V59.4676C88.2681 59.667 88.2253 59.8638 88.1502 60.0502L87.9748 60.3738H77.2563C77.3937 61.013 77.7337 61.597 78.2307 62.0476C78.5458 62.3343 78.9164 62.5603 79.3221 62.7133C79.7434 62.8737 80.1933 62.9553 80.6473 62.9538L80.8745 62.9616L81.1007 62.9542C81.7015 62.9141 82.2815 62.7135 82.7715 62.3712L83.0151 62.1678L87.5558 63.3699L87.0686 64.0542C86.6354 64.6669 86.0949 65.2048 85.4706 65.6447C84.8264 66.1136 84.1055 66.4791 83.3366 66.7266C82.5483 66.9588 81.7355 67.085 80.9212 67.1057L80.5723 67.1081C79.5255 67.096 78.4818 66.9098 77.4902 66.5509C76.4921 66.1844 75.586 65.6237 74.83 64.9049C74.0501 64.1544 73.4342 63.2651 73.0176 62.288C72.5412 61.1758 72.3059 59.9838 72.3258 58.7834C72.3138 57.641 72.5356 56.5074 72.9786 55.4452C73.3847 54.4897 73.9801 53.6171 74.7326 52.8745C75.4577 52.1632 76.3258 51.5972 77.2855 51.21C78.2318 50.8028 79.2575 50.5886 80.2965 50.5812ZM42.236 60.8177C40.7696 63.7108 38.0547 65.8595 34.7923 66.7088C31.5298 67.5582 28.0396 67.0251 25.2229 65.247L42.236 60.8177ZM96.3158 46.642V51.0528H99.4436V55.288H96.3158V61.391C96.2851 61.7219 96.3859 62.0517 96.5983 62.3157C96.8389 62.4845 97.1272 62.5785 97.4239 62.5869L97.5727 62.5839C97.7303 62.5983 97.8885 62.6059 98.0467 62.6065L98.284 62.6024L98.703 62.5469L99.4728 62.362V66.3012L99.0831 66.4491C98.9954 66.4491 98.8297 66.5324 98.3328 66.6618C98.003 66.7326 97.6684 66.7799 97.3318 66.8035L96.9947 66.8192C96.8821 66.8218 96.7695 66.8217 96.6568 66.819C95.2775 66.8786 93.9303 66.4125 92.9151 65.5244C91.956 64.5654 91.4525 63.2756 91.5217 61.9551V55.288H89.6703V51.0528H91.5217V46.642H96.3158ZM128.931 50.6454L129.223 50.6515C130.002 50.6839 130.777 50.8452 131.511 51.1361C132.267 51.4509 132.934 51.9291 133.46 52.5324C133.961 53.1319 134.338 53.8159 134.571 54.5482L134.63 54.5575C134.879 55.3367 135.004 56.1472 135 56.9617V66.6711H130.128V57.5443C130.152 56.8606 129.947 56.1873 129.543 55.6209C129.058 55.1892 128.447 54.9623 127.83 54.9378L127.661 54.9361L127.493 54.9444C126.877 54.9934 126.277 55.2443 125.811 55.6948C125.353 56.289 125.12 57.0122 125.149 57.7477V66.6618H120.276V51.0528H125.002V51.9128C125.33 51.6464 125.694 51.4225 126.084 51.247C126.985 50.8462 127.958 50.6452 128.931 50.6454ZM109.704 54.9181C109.234 54.9174 108.769 54.9989 108.33 55.1585C107.912 55.3157 107.536 55.5589 107.229 55.8705C106.879 56.231 106.605 56.6516 106.42 57.1096C106.201 57.6684 106.096 58.2613 106.109 58.8573C106.098 59.4592 106.203 60.0579 106.42 60.6235C106.606 61.0837 106.88 61.507 107.229 61.8719C107.541 62.1864 107.92 62.4353 108.34 62.6024C108.776 62.7688 109.238 62.852 109.699 62.852L109.93 62.845C110.314 62.8219 110.695 62.741 111.059 62.6024C111.489 62.4336 111.877 62.1816 112.199 61.8626C112.542 61.5039 112.804 61.0822 112.968 60.6235L112.988 60.6328C113.197 60.0622 113.299 59.4613 113.29 58.8573C113.301 58.2592 113.199 57.6641 112.988 57.1004C112.816 56.6462 112.548 56.2306 112.199 55.8798C111.88 55.5655 111.495 55.3196 111.068 55.1585C110.633 54.999 110.171 54.9175 109.704 54.9181ZM41.437 49.7768C42.7259 51.6204 43.4045 53.7876 43.3858 56V56.5548L21.9488 62.1308C20.6753 60.3148 19.9972 58.1814 20 56V55.3342L41.437 49.7768ZM80.3062 54.6592C79.8782 54.6544 79.4537 54.7331 79.059 54.8904C78.6942 55.0295 78.3628 55.2371 78.0846 55.5007C77.8243 55.7741 77.6136 56.0866 77.4609 56.4254C77.4339 56.5106 77.4111 56.597 77.3927 56.6843L77.4122 56.675H83.3366C83.3047 56.5397 83.2624 56.4068 83.2099 56.2774C83.0833 55.974 82.8945 55.6974 82.6545 55.4637C82.3751 55.2083 82.0435 55.01 81.6801 54.8811C81.3149 54.749 80.9299 54.6746 80.5403 54.6604L80.3062 54.6592ZM28.6073 45.3046C31.8133 44.4699 35.2421 44.9697 38.0363 46.679L21.2375 51.0528C22.7213 48.2297 25.4013 46.1394 28.6073 45.3046Z" fill="#FF671F"/>
</svg>
