<svg width="156" height="112" viewBox="0 0 156 112" fill="none" xmlns="http://www.w3.org/2000/svg">
<rect width="156" height="112" rx="16" fill="#F6F7F8"/>
<path d="M54.3865 86.8135V82.5694C54.3865 80.9762 53.4577 79.9186 51.8712 79.905C50.9394 79.8448 50.0513 80.3072 49.5661 81.105C49.1261 80.3324 48.2919 79.8695 47.4034 79.905C46.6181 79.8591 45.8682 80.2366 45.4373 80.8948V80.0745H44.1221V86.8135H45.478V82.983C45.4195 82.5167 45.5699 82.0484 45.8888 81.7033C46.2078 81.3582 46.6628 81.1715 47.1322 81.1932C48.0746 81.1932 48.6102 81.8304 48.6102 82.9694V86.8474H49.9661V82.983C49.9125 82.5177 50.0645 82.0522 50.3824 81.7083C50.7002 81.3644 51.1523 81.1762 51.6204 81.1932C52.5966 81.1932 53.1119 81.8304 53.1119 82.9694V86.8474L54.3865 86.8135ZM75.7085 80.0745H73.3289V78.0406H71.9729V80.0745H70.617V81.3016H71.9729V84.4881C71.9729 86.0474 72.5085 86.983 74.1899 86.983C74.8221 86.9844 75.4413 86.8031 75.9729 86.4609L75.5594 85.2609C75.1823 85.4964 74.7495 85.6274 74.3051 85.6406C73.6272 85.6406 73.3017 85.1932 73.3017 84.5152V81.3016H75.6814L75.7085 80.0745ZM87.8509 79.905C87.132 79.8954 86.4636 80.2736 86.1017 80.8948V80.0745H84.7458V86.8135H86.1017V83.0169C86.1017 81.905 86.617 81.1864 87.5526 81.1864C87.8571 81.1813 88.1595 81.239 88.4407 81.3559L88.8814 80.0881C88.5516 79.9658 88.2026 79.9038 87.8509 79.905ZM69.4983 80.583C68.6946 80.0977 67.765 79.8618 66.8272 79.905C65.1729 79.905 64.1627 80.7118 64.1627 82.0474C64.1627 83.1457 64.9017 83.8101 66.3661 84.0203L67.0441 84.122C67.8305 84.2304 68.2509 84.5152 68.2509 84.8948C68.2509 85.4169 67.6746 85.7559 66.7051 85.7559C65.9227 85.7913 65.1527 85.5514 64.5289 85.0779L63.8509 86.1355C64.6789 86.7202 65.6713 87.0264 66.6848 87.0101C68.5763 87.0101 69.6136 86.1084 69.6136 84.8203C69.6136 83.6406 68.8204 83.0304 67.3831 82.7864L66.7051 82.6915C66.0882 82.6033 65.539 82.4067 65.539 81.9593C65.539 81.5118 66.0611 81.1254 66.8407 81.1254C67.5569 81.1398 68.2573 81.3383 68.8746 81.7016L69.4983 80.583ZM89.3424 83.4169C89.2782 84.3558 89.6161 85.2778 90.2718 85.953C90.9275 86.6281 91.8393 86.9927 92.7797 86.9559C93.6378 86.9947 94.4786 86.7064 95.1322 86.1491L94.4543 85.0915C93.9693 85.4807 93.3676 85.6956 92.7458 85.7016C91.5799 85.5744 90.6968 84.5897 90.6968 83.4169C90.6968 82.244 91.5799 81.2593 92.7458 81.1321C93.3663 81.1389 93.9671 81.3511 94.4543 81.7355L95.1322 80.6847C94.0779 79.8157 92.6175 79.6312 91.3802 80.2107C90.1429 80.7903 89.3498 82.0303 89.3424 83.3965V83.4169ZM80.1492 79.8779C78.2305 79.8779 76.9153 81.3016 76.9153 83.4033C76.9153 85.505 78.2712 86.9559 80.2441 86.9559C81.2359 86.9963 82.2058 86.6568 82.956 86.0067L82.278 85.0101C81.7401 85.4442 81.0709 85.6831 80.3797 85.6881C79.3427 85.7437 78.446 84.9725 78.3458 83.9389H83.2339C83.2339 83.7559 83.2339 83.5728 83.2339 83.3762C83.2136 81.3287 81.9797 79.905 80.1492 79.905V79.8779ZM80.1492 81.1321C80.6063 81.1229 81.0476 81.2995 81.3722 81.6215C81.6967 81.9435 81.8768 82.3834 81.8712 82.8406H78.3119C78.3594 81.882 79.1625 81.136 80.1221 81.1593L80.1492 81.1321ZM62.4339 83.4169V80.0271H61.0916V80.8474C60.5802 80.2137 59.7963 79.8634 58.9831 79.905C57.1526 79.905 55.756 81.383 55.756 83.444C55.756 85.505 57.1526 86.983 58.9831 86.983C59.8093 87.0178 60.6009 86.6486 61.1051 85.9932V86.8135H62.4204L62.4339 83.4169ZM57.139 83.4169C57.0842 82.8392 57.2723 82.2648 57.6582 81.8314C58.044 81.3979 58.5928 81.1446 59.1729 81.1321C60.3729 81.1321 61.1661 82.1084 61.1661 83.4169C61.1661 84.7254 60.3729 85.7016 59.1729 85.7016C58.5932 85.696 58.0419 85.4496 57.651 85.0214C57.2601 84.5933 57.0648 84.0219 57.1119 83.444L57.139 83.4169ZM107.641 79.8779C106.912 79.8583 106.231 80.2379 105.864 80.8677V80.0474H104.563V86.7864H105.878V82.9898C105.878 81.8779 106.4 81.1593 107.329 81.1593C107.633 81.1541 107.936 81.2118 108.217 81.3287L108.658 80.0609C108.322 79.9463 107.968 79.8935 107.614 79.905L107.641 79.8779ZM102.61 83.4169V80.0271H101.268V80.8474C100.761 80.1947 99.9713 79.8262 99.1458 79.8576C97.3085 79.8576 95.9119 81.3355 95.9119 83.3965C95.9119 85.4576 97.3085 86.9355 99.1458 86.9355C99.9713 86.9669 100.761 86.5984 101.268 85.9457V86.766H102.583L102.61 83.4169ZM97.3085 83.4169C97.2537 82.8392 97.4418 82.2648 97.8277 81.8314C98.2135 81.3979 98.7623 81.1446 99.3424 81.1321C100.549 81.1321 101.376 82.1084 101.376 83.4169C101.376 84.7254 100.583 85.7016 99.3424 85.7016C98.7627 85.696 98.2114 85.4496 97.8205 85.0214C97.4296 84.5933 97.2343 84.0219 97.2814 83.444L97.3085 83.4169ZM115.817 83.4169V77.3152H114.502V80.8406C113.995 80.1879 113.205 79.8194 112.38 79.8508C110.542 79.8508 109.146 81.3287 109.146 83.3898C109.146 85.4508 110.542 86.9287 112.38 86.9287C113.205 86.9601 113.995 86.5916 114.502 85.9389V86.7593H115.817V83.4169ZM110.515 83.4169C110.461 82.8392 110.649 82.2648 111.034 81.8314C111.42 81.3979 111.969 81.1446 112.549 81.1321C113.756 81.1321 114.583 82.1084 114.583 83.4169C114.583 84.7254 113.79 85.7016 112.549 85.7016C111.973 85.6904 111.427 85.4416 111.041 85.0141C110.654 84.5866 110.462 84.0184 110.509 83.444L110.515 83.4169Z" fill="black"/>
<circle cx="65" cy="49" r="25" fill="#EB001B"/>
<circle cx="95" cy="49" r="25" fill="#F79E1B"/>
<path fill-rule="evenodd" clip-rule="evenodd" d="M80 69.0017C86.0722 64.4407 90 57.179 90 48.9999C90 40.8208 86.0722 33.5591 80 28.998C73.9278 33.5591 70 40.8208 70 48.9999C70 57.179 73.9278 64.4407 80 69.0017Z" fill="#FF5F00"/>
</svg>
