<svg width="128" height="81" viewBox="0 0 128 81" fill="none" xmlns="http://www.w3.org/2000/svg">
<g id="payment methods / payment method-ideal">
<g id="Vector">
<path d="M30.0293 14.8257V65.9302C30.0293 68.3764 32.0269 70.3779 34.4684 70.3779H64.9432C87.9824 70.3779 97.9705 57.4572 97.9705 40.3112C97.9705 23.2541 87.9824 10.3779 64.9432 10.3779H34.4684C32.0269 10.3779 30.0293 12.3794 30.0293 14.8257Z" fill="white"/>
<path d="M50.4272 22.9203V60.6816H66.8299C81.7232 60.6816 88.1822 52.2531 88.1822 40.3332C88.1822 28.9247 81.7232 20.0737 66.8299 20.0737H53.2683C51.6924 20.0737 50.4272 21.3636 50.4272 22.9203Z" fill="#CC0066"/>
<path d="M64.9433 66.308H38.4415C36.0888 66.308 34.18 64.3955 34.18 62.0382V18.7394C34.18 16.3821 36.0888 14.4696 38.4415 14.4696H64.9433C90.091 14.4696 93.8421 30.6816 93.8421 40.3332C93.8421 57.0789 83.5655 66.308 64.9433 66.308ZM38.4415 15.8929C36.8656 15.8929 35.6005 17.1605 35.6005 18.7394V62.0382C35.6005 63.6171 36.8656 64.8847 38.4415 64.8847H64.9433C82.6555 64.8847 92.4216 56.1671 92.4216 40.3332C92.4216 19.073 75.1977 15.8929 64.9433 15.8929H38.4415Z" fill="black"/>
<path d="M56.1981 35.2408C56.7752 35.2408 57.3079 35.3297 57.8184 35.5077C58.3289 35.6856 58.7506 35.9747 59.1279 36.3305C59.4831 36.7085 59.7716 37.1756 59.9936 37.7093C60.1933 38.2653 60.3043 38.9102 60.3043 39.6663C60.3043 40.3334 60.2155 40.9339 60.0602 41.4899C59.8826 42.0458 59.6384 42.5351 59.3055 42.9354C58.9726 43.3357 58.5509 43.647 58.0404 43.8916C57.5299 44.114 56.9306 44.2475 56.2425 44.2475H52.3582V35.2185H56.1981V35.2408ZM56.0649 42.6018C56.3535 42.6018 56.6198 42.5573 56.9084 42.4684C57.1747 42.3794 57.4189 42.2237 57.6186 42.0014C57.8184 41.779 57.996 41.5121 58.1291 41.1563C58.2623 40.8005 58.3289 40.4002 58.3289 39.8887C58.3289 39.4439 58.2845 39.0214 58.1957 38.6655C58.1069 38.3097 57.9516 37.9761 57.7518 37.7315C57.552 37.4869 57.2857 37.2645 56.9528 37.1311C56.6198 36.9976 56.2203 36.9309 55.732 36.9309H54.3115V42.624H56.0649V42.6018Z" fill="white"/>
<path d="M68.317 36.9087H63.5671V38.8435H67.9397V40.3779H63.5671V42.5796H68.428V44.2475H61.5917V35.2185H68.317V36.9087Z" fill="white"/>
<path d="M75.109 35.241L78.4827 44.2699H76.4185L75.7305 42.2684H72.3567L71.6464 44.2699H69.6488L73.0448 35.241H75.109ZM75.22 40.7784L74.088 37.4648H74.0658L72.8894 40.7784H75.22Z" fill="white"/>
<path d="M81.701 35.241V42.602H86.0958V44.2699H79.7256V35.241H81.701Z" fill="white"/>
<path d="M43.0138 43.9138C45.3061 43.9138 47.1644 42.0519 47.1644 39.7552C47.1644 37.4584 45.3061 35.5965 43.0138 35.5965C40.7214 35.5965 38.8632 37.4584 38.8632 39.7552C38.8632 42.0519 40.7214 43.9138 43.0138 43.9138Z" fill="black"/>
<path d="M46.1435 60.6818C42.6587 60.6818 39.8621 57.8575 39.8621 54.3883V49.4735C39.8621 47.7389 41.2604 46.3156 43.0139 46.3156C44.7451 46.3156 46.1657 47.7167 46.1657 49.4735V60.6818H46.1435Z" fill="black"/>
</g>
</g>
</svg>
