<svg width="156" height="112" viewBox="0 0 156 112" fill="none" xmlns="http://www.w3.org/2000/svg">
<rect width="156" height="112" rx="16" fill="#F6F7F8"/>
<path d="M93.2719 42.0002C95.4037 41.9901 97.519 42.3777 99.5097 43.1434L99.448 43.12L98.502 48.9901L97.8772 48.6766C96.2339 47.9649 94.4563 47.6198 92.6672 47.665C89.9463 47.665 88.7068 48.7271 88.6867 50.0017C88.6665 51.2762 90.158 52.1057 92.5866 53.3701C96.6075 55.3022 98.4415 57.6388 98.4415 60.7341C98.4415 66.3583 93.6548 69.9999 86.3487 69.9999C83.695 70.0072 81.0633 69.5166 78.5892 68.5533L79.5969 62.4841L80.4938 62.9089C82.5291 63.9121 84.7776 64.4017 87.0441 64.3352C89.0494 64.3352 91.2161 63.5058 91.2161 61.685C91.2262 60.5015 90.2386 59.6113 87.5983 58.3165C84.958 57.0218 81.5015 54.847 81.5015 50.9525C81.5418 45.6824 86.389 42.0002 93.2719 42.0002ZM108.337 44.7518C108.881 43.2393 110.396 42.3067 111.985 42.5062H117.367L123 69.6053H116.54C116.54 69.6053 116.355 68.717 116.151 67.746L116.069 67.355C115.917 66.6372 115.767 65.9327 115.684 65.5592H106.775C106.503 66.2571 105.314 69.6053 105.314 69.6053H97.9981L108.337 44.7518ZM78.6093 42.4758L74.2559 69.5952H67.3026L71.656 42.4758H78.6093ZM48.3168 42.4859C49.8284 42.5466 51.0579 43.0524 51.4811 44.772L53.9198 57.2039C53.9086 57.1734 53.8973 57.143 53.8859 57.1126L53.9198 57.2241L54.6454 60.987L61.4577 42.496H68.8343L57.8299 69.5649H50.5036L44.319 46.0176C42.1771 44.758 39.733 43.7447 37 43.0423L37.0907 42.4859H48.3168ZM112.469 49.8095C112.273 50.3933 112.002 51.1555 111.805 51.7015L111.714 51.9547C111.616 52.2248 111.552 52.399 111.552 52.399C111.552 52.399 109.355 58.4177 108.781 59.9755H114.555C114.435 59.3765 114.106 57.7803 113.777 56.185L113.673 55.6824C113.294 53.8482 112.943 52.1563 112.943 52.1563L112.469 49.8095Z" fill="#1A1F71"/>
</svg>
