<svg width="156" height="112" viewBox="0 0 156 112" fill="none" xmlns="http://www.w3.org/2000/svg">
<rect width="156" height="112" rx="16" fill="#F6F7F8"/>
<path d="M42.0751 42C39.2907 42 36.5689 42.8257 34.2538 44.3726C31.9386 45.9195 30.1342 48.1182 29.0687 50.6906C28.0032 53.263 27.7244 56.0936 28.2676 58.8245C28.8108 61.5553 30.1516 64.0638 32.1204 66.0326C34.0893 68.0015 36.5977 69.3423 39.3286 69.8855C42.0594 70.4287 44.8901 70.1499 47.4625 69.0843C50.0349 68.0188 52.2336 66.2144 53.7805 63.8993C55.3274 61.5842 56.153 58.8623 56.153 56.078C56.153 54.2292 55.7889 52.3986 55.0814 50.6906C54.3739 48.9826 53.337 47.4306 52.0297 46.1233C50.7224 44.8161 49.1705 43.7791 47.4625 43.0716C45.7544 42.3641 43.9238 42 42.0751 42V42ZM42.3032 56.5411L40.8389 61.4824H48.6713C48.7336 61.4825 48.795 61.4972 48.8507 61.5251C48.9064 61.5531 48.9548 61.5936 48.9921 61.6435C49.0294 61.6933 49.0546 61.7512 49.0657 61.8125C49.0769 61.8738 49.0736 61.9368 49.0562 61.9966L48.3751 64.3429C48.3426 64.455 48.2745 64.5535 48.1811 64.6235C48.0878 64.6936 47.9742 64.7313 47.8575 64.7311H35.8942L37.917 57.8999L35.6797 58.581L36.1735 56.9838L38.4142 56.3027L41.2544 46.7063C41.2856 46.5938 41.3527 46.4947 41.4456 46.424C41.5384 46.3533 41.6519 46.3149 41.7686 46.3147H44.7994C44.8616 46.3144 44.923 46.3287 44.9787 46.3562C45.0345 46.3837 45.0831 46.4238 45.1208 46.4734C45.1584 46.5229 45.184 46.5804 45.1956 46.6415C45.2072 46.7026 45.2045 46.7656 45.1876 46.8255L42.8038 54.9406L45.0412 54.2595L44.561 55.8839L42.3032 56.5411Z" fill="#A5A8A9"/>
<path d="M68.8319 46.1593C69.0433 46.1383 69.2561 46.1806 69.4434 46.2807C69.6935 46.4144 69.8805 46.6418 69.9635 46.913C70.0464 47.1842 70.0186 47.4773 69.8861 47.728C69.7868 47.9158 69.6341 48.0699 69.4472 48.1707C69.2603 48.2716 69.0477 48.3147 68.8363 48.2947C68.6248 48.2746 68.4241 48.1922 68.2596 48.0579C68.095 47.9237 67.974 47.7436 67.9119 47.5405C67.8498 47.3374 67.8493 47.1205 67.9106 46.9172C67.9719 46.7138 68.0922 46.5333 68.2562 46.3983C68.4202 46.2634 68.6206 46.1802 68.8319 46.1593Z" fill="#4D4D4E"/>
<path d="M63.4159 46.2739H64.2945C64.4648 46.2739 64.5669 46.3488 64.5397 46.5463L62.2546 64.4759C62.255 64.5137 62.2472 64.5511 62.2318 64.5857C62.2163 64.6202 62.1936 64.651 62.1651 64.6759C62.1366 64.7008 62.1031 64.7192 62.0668 64.73C62.0306 64.7407 61.9924 64.7435 61.955 64.7381H61.0832C60.9027 64.7381 60.8448 64.6461 60.8652 64.4759L63.1196 46.5395C63.1214 46.5025 63.1304 46.4663 63.1463 46.4328C63.1622 46.3994 63.1846 46.3694 63.2121 46.3447C63.2397 46.32 63.2719 46.301 63.3069 46.2888C63.3419 46.2767 63.3789 46.2716 63.4159 46.2739Z" fill="#4D4D4E"/>
<path d="M67.9962 51.4433H68.8646C69.0553 51.4433 69.1132 51.5353 69.1064 51.7124L67.5024 64.4759C67.5015 64.5148 67.4922 64.5531 67.4752 64.5882C67.4582 64.6233 67.4338 64.6543 67.4038 64.6791C67.3738 64.704 67.3388 64.7221 67.3012 64.7323C67.2636 64.7424 67.2242 64.7444 67.1857 64.7381H66.3139C66.1505 64.7381 66.0483 64.6495 66.0688 64.4759L67.6965 51.7055C67.6978 51.6682 67.7066 51.6315 67.7226 51.5978C67.7386 51.5641 67.7613 51.5339 67.7894 51.5094C67.8175 51.4848 67.8504 51.4662 67.886 51.4549C67.9215 51.4435 67.9591 51.4396 67.9962 51.4433Z" fill="#4D4D4E"/>
<path fill-rule="evenodd" clip-rule="evenodd" d="M107.124 51.2322C105.997 51.2064 104.894 51.5658 103.998 52.2511C103.102 52.9365 102.467 53.9068 102.197 55.002C101.954 56.0185 101.773 57.0489 101.655 58.0873C101.516 59.1103 101.434 60.1404 101.41 61.1726C101.399 61.6764 101.489 62.1774 101.676 62.6455C101.862 63.1136 102.141 63.5393 102.496 63.8969C103.205 64.578 104.175 64.9186 105.408 64.9186C106.537 64.9441 107.641 64.5837 108.538 63.8969C109.422 63.2176 110.047 62.2562 110.308 61.1726C110.554 60.1567 110.735 59.1262 110.85 58.0873C110.988 57.0551 111.069 56.016 111.092 54.9747C111.115 54.4707 111.031 53.9676 110.846 53.4981C110.661 53.0287 110.379 52.6035 110.019 52.2504C109.226 51.5421 108.186 51.1761 107.124 51.2322ZM109.587 56.8477C109.505 57.4982 109.454 57.9136 109.437 58.0873C109.273 59.4052 109.127 60.3485 109.001 60.9104C108.831 61.7148 108.39 62.4363 107.751 62.9536C107.128 63.4587 106.347 63.7287 105.544 63.7164C105.179 63.7407 104.813 63.6871 104.47 63.5591C104.127 63.4311 103.816 63.2316 103.556 62.974C103.296 62.7164 103.094 62.4065 102.963 62.0648C102.832 61.7231 102.775 61.3574 102.796 60.9921C102.804 60.4453 102.845 59.8994 102.919 59.3575C103 58.7071 103.052 58.295 103.069 58.1179C103.232 56.8545 103.378 55.9112 103.504 55.2983C103.675 54.4944 104.116 53.7733 104.754 53.255C105.379 52.7515 106.159 52.4817 106.961 52.4922C107.326 52.4679 107.692 52.5216 108.035 52.6496C108.378 52.7776 108.69 52.977 108.949 53.2346C109.209 53.4923 109.411 53.8022 109.542 54.1439C109.673 54.4856 109.73 54.8512 109.709 55.2165C109.701 55.7622 109.66 56.307 109.587 56.8477Z" fill="#4D4D4E"/>
<path d="M115.216 51.4433H116.084C116.254 51.4433 116.326 51.5353 116.302 51.7055L114.698 64.4759C114.696 64.513 114.687 64.5494 114.671 64.583C114.655 64.6165 114.632 64.6464 114.604 64.6709C114.576 64.6954 114.544 64.714 114.508 64.7255C114.473 64.737 114.435 64.7413 114.398 64.7381H113.527C113.363 64.7381 113.258 64.6597 113.281 64.4759L114.916 51.7055C114.921 51.6311 114.956 51.5618 115.012 51.5127C115.068 51.4636 115.141 51.4387 115.216 51.4433Z" fill="#4D4D4E"/>
<path d="M127.097 52.1959C126.498 51.5693 125.657 51.2594 124.567 51.2594C123.892 51.2523 123.224 51.3917 122.609 51.6681C122.006 51.9435 121.482 52.3649 121.083 52.894C121.012 52.9621 120.974 52.9451 120.974 52.8396L121.11 51.7055C121.131 51.5455 121.059 51.4433 120.892 51.4433H120.024C119.987 51.4401 119.95 51.4444 119.914 51.4559C119.879 51.4674 119.846 51.486 119.818 51.5105C119.79 51.535 119.767 51.5649 119.751 51.5984C119.735 51.632 119.726 51.6684 119.724 51.7055L118.12 64.4759C118.1 64.6427 118.158 64.7381 118.338 64.7381H119.21C119.247 64.7408 119.284 64.7362 119.319 64.7245C119.355 64.7128 119.387 64.6942 119.415 64.6698C119.443 64.6454 119.466 64.6156 119.482 64.5823C119.498 64.5491 119.508 64.5129 119.51 64.4759L120.678 55.3255C120.844 54.5321 121.265 53.8146 121.877 53.2823C122.474 52.7636 123.241 52.4846 124.032 52.499C124.374 52.4844 124.715 52.5427 125.033 52.6701C125.351 52.7975 125.637 52.9911 125.874 53.238C126.352 53.7763 126.596 54.4814 126.556 55.1995C126.559 55.394 126.55 55.5885 126.528 55.7818L125.415 64.4759C125.407 64.5076 125.406 64.5407 125.414 64.5726C125.421 64.6045 125.435 64.6343 125.456 64.6597C125.482 64.6871 125.514 64.7084 125.549 64.7219C125.584 64.7354 125.622 64.741 125.66 64.7381H126.528C126.565 64.7413 126.603 64.737 126.638 64.7255C126.673 64.714 126.706 64.6954 126.734 64.6709C126.762 64.6464 126.785 64.6165 126.801 64.583C126.817 64.5494 126.826 64.513 126.828 64.4759L127.945 55.5639C127.982 55.2233 127.999 54.9475 127.999 54.7738C128.027 54.3058 127.961 53.8371 127.806 53.3947C127.651 52.9522 127.41 52.5448 127.097 52.1959Z" fill="#4D4D4E"/>
<path d="M116.707 46.2807C116.519 46.1823 116.306 46.1418 116.095 46.1644C115.884 46.187 115.685 46.2716 115.522 46.4077C115.359 46.5437 115.24 46.7249 115.18 46.9285C115.12 47.1321 115.122 47.3489 115.186 47.5514C115.249 47.7539 115.371 47.933 115.536 48.0662C115.701 48.1993 115.902 48.2805 116.114 48.2994C116.325 48.3183 116.537 48.2741 116.724 48.1724C116.91 48.0707 117.062 47.9161 117.16 47.728C117.292 47.476 117.318 47.182 117.233 46.9106C117.148 46.6392 116.959 46.4127 116.707 46.2807Z" fill="#4D4D4E"/>
<path d="M92.5899 52.2743C93.4916 51.5752 94.6061 51.2073 95.7467 51.2322C96.8075 51.1707 97.8495 51.5319 98.6447 52.2368C99.0062 52.5892 99.2891 53.0141 99.4745 53.4837C99.66 53.9533 99.7439 54.4568 99.7208 54.9611V55.271C99.7208 55.2919 99.7167 55.3125 99.7086 55.3318C99.7005 55.351 99.6886 55.3684 99.6737 55.383C99.6588 55.3976 99.6412 55.4091 99.6218 55.4167C99.6024 55.4244 99.5816 55.4281 99.5608 55.4277H98.5391C98.5122 55.4277 98.4855 55.4223 98.4606 55.4117C98.4358 55.4012 98.4134 55.3858 98.3946 55.3664C98.3759 55.347 98.3612 55.3241 98.3515 55.2989C98.3418 55.2737 98.3373 55.2469 98.3382 55.2199V55.1995C98.3594 54.8339 98.3024 54.4679 98.1713 54.126C98.0401 53.784 97.8376 53.4739 97.5774 53.2162C97.3171 52.9586 97.005 52.7592 96.6618 52.6314C96.3185 52.5037 95.952 52.4504 95.5866 52.4752C94.7857 52.4646 94.0063 52.7344 93.3833 53.238C92.7469 53.7609 92.3103 54.4874 92.1472 55.2949C92.0178 55.9078 91.8747 56.8511 91.7113 58.1145C91.6908 58.2916 91.6296 58.8126 91.5614 59.3541C91.4875 59.896 91.4466 60.4419 91.4388 60.9887C91.4178 61.354 91.4746 61.7197 91.6056 62.0614C91.7366 62.403 91.9387 62.713 92.1986 62.9706C92.4585 63.2282 92.7701 63.4277 93.113 63.5557C93.4558 63.6837 93.8219 63.7373 94.187 63.713C94.9883 63.7259 95.7685 63.4558 96.3903 62.9502C97.0301 62.4331 97.4725 61.7116 97.6435 60.907C97.6421 60.89 97.6421 60.8729 97.6435 60.8559C97.6528 60.819 97.6744 60.7864 97.7048 60.7635C97.7351 60.7406 97.7724 60.7287 97.8104 60.7299H98.8831C98.9015 60.7299 98.9196 60.7341 98.9362 60.7421C98.9527 60.7502 98.9672 60.7618 98.9787 60.7762C98.9901 60.7906 98.9982 60.8073 99.0023 60.8253C99.0064 60.8432 99.0064 60.8618 99.0023 60.8797C98.9784 60.9819 98.9546 61.0772 98.9308 61.1692C98.6722 62.2534 98.0481 63.2155 97.1634 63.8935C96.2666 64.5798 95.1628 64.9402 94.0338 64.9152C92.801 64.9152 91.8305 64.5746 91.1221 63.8935C90.7652 63.5371 90.4846 63.1117 90.2972 62.6434C90.1099 62.175 90.0198 61.6735 90.0324 61.1692C90.0586 60.1371 90.1404 59.1072 90.2776 58.0839C90.4024 57.0462 90.5843 56.0162 90.8225 54.9986C91.0864 53.9166 91.7094 52.9562 92.5899 52.2743Z" fill="#4D4D4E"/>
<path fill-rule="evenodd" clip-rule="evenodd" d="M86.9609 52.2606C86.168 51.5503 85.126 51.1829 84.0629 51.239C82.9353 51.2132 81.8325 51.5726 80.9366 52.258C80.0408 52.9433 79.4054 53.9137 79.1353 55.0088C78.8936 56.0256 78.7128 57.0558 78.5938 58.0941C78.4355 59.115 78.3535 60.1463 78.3486 61.1794C78.3371 61.6832 78.4274 62.1842 78.6141 62.6523C78.8007 63.1204 79.0799 63.5461 79.435 63.9037C80.1433 64.5848 81.1138 64.9254 82.3466 64.9254C83.4756 64.9509 84.5796 64.5905 85.4762 63.9037C86.3607 63.225 86.9858 62.2634 87.247 61.1794C87.2708 61.0875 87.2947 60.9921 87.3185 60.89C87.3226 60.872 87.3226 60.8534 87.3185 60.8355C87.3144 60.8176 87.3064 60.8008 87.2949 60.7864C87.2835 60.772 87.2689 60.7604 87.2524 60.7524C87.2358 60.7444 87.2177 60.7402 87.1993 60.7401H86.1164C86.0785 60.7396 86.0415 60.7517 86.0113 60.7745C85.9811 60.7973 85.9594 60.8295 85.9495 60.8661V60.9172C85.7799 61.7216 85.3386 62.4431 84.6997 62.9604C84.0717 63.4597 83.2883 63.7225 82.4862 63.7028C82.1211 63.7271 81.755 63.6734 81.4121 63.5454C81.0693 63.4174 80.7576 63.218 80.4978 62.9604C80.2379 62.7028 80.0358 62.3928 79.9048 62.0511C79.7738 61.7095 79.717 61.3438 79.738 60.9785C79.7443 60.5014 79.7772 60.025 79.8368 59.5516L87.6999 57.1168C87.772 57.1011 87.8364 57.061 87.8823 57.0033C87.9282 56.9456 87.9528 56.8738 87.9519 56.8C87.9996 56.3914 88.0302 55.7001 88.037 54.9918C88.0508 54.4875 87.9626 53.9857 87.7776 53.5164C87.5927 53.0471 87.3149 52.62 86.9609 52.2606ZM86.651 55.9351C86.6497 55.973 86.6365 56.0095 86.6133 56.0394C86.59 56.0694 86.558 56.0912 86.5216 56.1019L80.0037 58.1145V58.0873C80.1671 56.8239 80.3136 55.8806 80.4396 55.2676C80.6104 54.4637 81.0515 53.7426 81.6893 53.2244C82.3136 52.7208 83.0941 52.451 83.896 52.4616C84.2642 52.4469 84.6314 52.5082 84.9747 52.6418C85.3181 52.7754 85.6302 52.9784 85.8916 53.238C86.6953 54.0246 86.6987 54.8658 86.651 55.9351Z" fill="#4D4D4E"/>
<path d="M75.4859 63.298C75.4474 63.2967 75.4092 63.306 75.3756 63.3248C74.8171 63.587 73.7512 63.839 73.1859 63.3623C72.7803 62.9697 72.8649 62.2691 72.9597 61.4839C72.9636 61.4518 72.9675 61.4195 72.9714 61.3871L73.9249 53.7147H76.6492C76.7268 53.7198 76.8037 53.6981 76.8672 53.6534C76.9203 53.5988 76.9496 53.5253 76.9489 53.4491L77.0238 52.843C77.0341 52.6761 76.9625 52.5807 76.8059 52.5807H74.0816L74.5992 48.358C74.623 48.2082 74.5822 48.0958 74.3812 48.0958H73.5401C73.5029 48.0921 73.4654 48.096 73.4299 48.1073C73.3943 48.1187 73.3614 48.1372 73.3333 48.1618C73.3052 48.1864 73.2825 48.2165 73.2665 48.2503C73.2505 48.284 73.2416 48.3207 73.2404 48.358L72.859 51.3378L72.6956 52.6829L71.5445 62.0342C71.4015 63.2635 71.6569 64.2477 72.6547 64.704C73.5364 65.0274 74.5065 65.014 75.379 64.6666C75.4323 64.6458 75.479 64.6112 75.5143 64.5662C75.5496 64.5213 75.5723 64.4678 75.5799 64.4111L75.6889 63.5291C75.6926 63.4908 75.6857 63.4522 75.669 63.4175C75.6523 63.3827 75.6264 63.3533 75.5941 63.3322C75.5618 63.3112 75.5244 63.2994 75.4859 63.298Z" fill="#4D4D4E"/>
</svg>
