<svg width="156" height="112" viewBox="0 0 156 112" fill="none" xmlns="http://www.w3.org/2000/svg">
<rect width="156" height="112" rx="16" fill="#F6F7F8"/>
<path fill-rule="evenodd" clip-rule="evenodd" d="M36.6354 52.0332C36.6354 53.427 36.1628 54.7105 35.3689 55.732C36.7093 56.8386 37.5636 58.5129 37.5636 60.3868C37.5636 63.7188 34.8625 66.42 31.5304 66.42H19.9282C19.4156 66.42 19 66.0044 19 65.4918V46.9282C19 46.4156 19.4156 46 19.9282 46H30.6023C33.9343 46 36.6354 48.7011 36.6354 52.0332ZM22.7127 50.6409C22.7127 50.1283 23.1283 49.7127 23.6409 49.7127H30.6023C31.8838 49.7127 32.9227 50.7516 32.9227 52.0332C32.9227 53.3147 31.8838 54.3536 30.6023 54.3536H23.6409C23.1283 54.3536 22.7127 53.9381 22.7127 53.4254V50.6409ZM23.6409 62.7073C23.1283 62.7073 22.7127 62.2917 22.7127 61.7791V58.9945C22.7127 58.4819 23.1283 58.0663 23.6409 58.0663H31.5304C32.812 58.0663 33.8509 59.1053 33.8509 60.3868C33.8509 61.6684 32.812 62.7073 31.5304 62.7073H23.6409Z" fill="#101730"/>
<path fill-rule="evenodd" clip-rule="evenodd" d="M54.5014 46.9548C54.1739 46.3655 53.5528 46 52.8786 46C52.2044 46 51.5833 46.3655 51.2558 46.9548L41.974 63.6621C41.6546 64.2371 41.6633 64.9381 41.9968 65.505C42.3304 66.0719 42.939 66.42 43.5968 66.42H62.1604C62.8182 66.42 63.4268 66.0719 63.7603 65.505C64.0939 64.9381 64.1026 64.2371 63.7832 63.6621L54.5014 46.9548ZM52.8786 51.6788L59.0055 62.7073H46.7517L52.8786 51.6788Z" fill="#101730"/>
<path d="M69.1218 66.4201C68.6091 66.4201 68.1936 66.0046 68.1936 65.492V46.9282C68.1936 46.4156 68.6091 46 69.1218 46H70.4499C70.7052 46 70.9493 46.1052 71.1247 46.2909L83.9727 59.8946V46.9283C83.9727 46.4157 84.3882 46.0002 84.9008 46.0002H86.7572C87.2698 46.0002 87.6854 46.4157 87.6854 46.9283V65.4918C87.6854 66.0044 87.2698 66.42 86.7572 66.42H85.4288C85.1734 66.42 84.9293 66.3148 84.754 66.1291L71.9063 52.5257V65.492C71.9063 66.0046 71.4907 66.4201 70.9781 66.4201H69.1218Z" fill="#101730"/>
<path d="M93.018 47.4957L99.7518 56.2101L93.0181 64.9243C92.5467 65.5344 92.9815 66.42 93.7526 66.42H96.2993C96.594 66.42 96.8713 66.28 97.0462 66.0428L102.205 59.0502L107.363 66.0428C107.538 66.28 107.815 66.42 108.11 66.42H110.657C111.428 66.42 111.863 65.5344 111.391 64.9243L104.657 56.2101L111.391 47.4957C111.863 46.8856 111.428 46 110.657 46H108.11C107.815 46 107.538 46.14 107.363 46.3772L102.205 53.3699L97.0461 46.3772C96.8711 46.14 96.5939 46 96.2992 46H93.7524C92.9814 46 92.5465 46.8856 93.018 47.4957Z" fill="#101730"/>
<path fill-rule="evenodd" clip-rule="evenodd" d="M125.862 46C126.536 46 127.157 46.3655 127.485 46.9548L136.766 63.6621C137.086 64.2371 137.077 64.9381 136.744 65.505C136.41 66.0719 135.801 66.42 135.144 66.42H116.58C115.922 66.42 115.314 66.0719 114.98 65.505C114.646 64.9381 114.638 64.2371 114.957 63.6621L124.239 46.9548C124.566 46.3655 125.188 46 125.862 46ZM119.735 62.7073H131.989L125.862 51.6788L119.735 62.7073Z" fill="url(#paint0_linear_16450_10878)"/>
<defs>
<linearGradient id="paint0_linear_16450_10878" x1="114.459" y1="66.42" x2="127.453" y2="58.9945" gradientUnits="userSpaceOnUse">
<stop stop-color="#147ABB"/>
<stop offset="1" stop-color="#22BCAD"/>
</linearGradient>
</defs>
</svg>
