<svg width="156" height="112" viewBox="0 0 156 112" fill="none" xmlns="http://www.w3.org/2000/svg">
<rect width="156" height="112" rx="16" fill="#F6F7F8"/>
<path d="M27.2948 56.0039L22.6461 60.65L18 56.0039L22.6461 51.3578L27.2948 56.0039ZM38.5774 44.7213L46.5417 52.6857L51.1852 48.05L38.5748 35.4292L25.9643 48.05L30.6104 52.6961L38.5774 44.7213ZM54.5061 51.3578L49.86 56.0039L54.5035 60.65L59.1496 56.0039L54.5061 51.3578ZM38.5774 67.2865L30.613 59.3222L25.9643 63.963L38.5748 76.5708L51.1852 63.963L46.5391 59.3169L38.5774 67.2865ZM38.5774 60.65L43.2235 56.0039L38.5774 51.3578L33.9313 56.0039L38.5774 60.65ZM68.447 44.7187H78.9261C81.5061 44.7187 83.5383 45.4283 84.827 46.717C85.3347 47.2159 85.7342 47.8142 86.0003 48.4745C86.2665 49.1347 86.3937 49.8428 86.3739 50.5544V50.617C86.3739 53.1657 85.02 54.5848 83.4078 55.4874C86.0165 56.4865 87.6313 58.0022 87.6313 61.0335V61.0935C87.6313 65.2204 84.2791 67.2839 79.1843 67.2839H68.4444L68.447 44.7187ZM77.8617 53.8491C80.0557 53.8491 81.4409 53.1422 81.4409 51.4648V51.3996C81.4409 49.9178 80.28 49.0778 78.1852 49.0778H73.2809V53.8413L77.8617 53.8491ZM79.1843 62.943C81.3783 62.943 82.6983 62.1604 82.6983 60.4935V60.4282C82.6983 58.9126 81.5713 57.9787 79.0226 57.9787H73.2835V62.9352L79.1843 62.943ZM92.5304 44.7266H97.1113L107.687 58.623V44.7187H112.586V67.2865H108.36L97.4296 52.9387V67.2865H92.5278L92.5304 44.7266ZM118.808 44.7266H129.295C131.875 44.7266 133.907 45.4361 135.196 46.7248C135.703 47.2238 136.103 47.822 136.369 48.4823C136.635 49.1425 136.762 49.8506 136.743 50.5622V50.6248C136.743 53.1735 135.389 54.5926 133.777 55.4952C136.385 56.4943 138 58.01 138 61.0413V61.0935C138 65.2204 134.648 67.2839 129.553 67.2839H118.805L118.808 44.7266ZM128.223 53.857C130.417 53.857 131.802 53.15 131.802 51.4726V51.4074C131.802 49.9257 130.641 49.0857 128.546 49.0857H123.642V53.8413L128.223 53.857ZM129.556 62.9352C131.75 62.9352 133.07 62.1526 133.07 60.4856V60.4204C133.07 58.9048 131.943 57.9709 129.394 57.9709H123.655V62.9274L129.556 62.9352Z" fill="#F0B90B"/>
</svg>
