<svg width="128" height="81" viewBox="0 0 128 81" fill="none" xmlns="http://www.w3.org/2000/svg">
<g id="payment methods / payment method-eps">
<g id="logo">
<path d="M93.539 41.4566H102.113C106.585 41.5227 110.25 45.254 110.25 49.7659C110.25 54.2645 106.585 58.0487 102.113 58.1148H77.7937C80.8369 56.8578 82.3321 54.3439 83.8669 51.4065H101.994C102.946 51.4065 103.714 50.7053 103.714 49.7526C103.714 48.8 102.946 48.0458 101.994 48.0458H93.539C88.9874 48.0458 85.2827 44.3278 85.2827 39.7894C85.2827 35.2511 88.9874 31.5331 93.539 31.5331H106.585V37.9635H93.539C92.5863 37.9635 91.8189 38.7971 91.8189 39.7497C91.8189 40.7024 92.5863 41.4566 93.539 41.4566Z" fill="#71706F"/>
<path fill-rule="evenodd" clip-rule="evenodd" d="M56.0812 44.791C56.0812 37.4873 61.9956 31.5332 69.2596 31.5332C76.5236 31.5332 82.4115 37.4608 82.3983 44.7778C82.3983 52.0815 76.5104 58.115 69.2463 58.115H62.6571V72.3784H56.0812V44.791ZM62.6571 51.3934H69.2596C72.9114 51.3934 75.8885 48.4693 75.8885 44.7645C75.8885 41.0598 72.9114 38.043 69.2596 38.043C65.6077 38.043 62.6571 41.0598 62.6571 44.7645V51.3934Z" fill="#71706F"/>
<path d="M35.2419 8.37793C41.4209 8.37793 46.4356 13.2603 46.4356 19.2938H46.4488V22.3502C46.4488 22.7472 46.0916 23.1309 45.6947 23.1309H41.5797C41.1695 23.1309 40.852 22.7472 40.852 22.3502V19.2938C40.852 16.277 38.3513 13.8292 35.2551 13.8292C32.159 13.8292 29.6583 16.277 29.6583 19.2938V22.3502C29.6583 22.7472 29.301 23.1309 28.9041 23.1309H24.7891C24.379 23.1309 24.0614 22.7472 24.0614 22.3502V19.0027C24.2202 13.1147 29.1687 8.37793 35.2419 8.37793Z" fill="#B90466"/>
<path d="M35.2683 58.1144C29.0496 58.1144 23.8232 53.6819 22.4074 47.8998C22.4074 47.8998 21.9973 45.9813 21.9973 44.7243C21.9973 43.4673 22.381 41.5355 22.381 41.5355C23.81 35.7667 29.0231 31.4665 35.2286 31.4665C42.5323 31.4665 48.5261 37.3941 48.5261 44.6978V47.913H29.129C30.2801 50.1491 32.5956 51.4061 35.2683 51.4061H52.7072L52.7337 32.4721C52.7337 29.6538 50.4314 27.3383 47.5999 27.3383H22.8838C20.0655 27.3383 17.75 29.5744 17.75 32.4059V57.1221C17.75 59.9403 20.0655 62.322 22.8838 62.322H47.5999C50.1271 62.322 52.2441 60.5093 52.6543 58.1276H35.2683V58.1144Z" fill="#B90466"/>
<path d="M35.2419 37.7384C32.5824 37.7384 30.267 39.3659 29.1158 41.4697H41.3681C40.2169 39.3659 37.9014 37.7384 35.2419 37.7384Z" fill="#B90466"/>
</g>
</g>
</svg>
