<svg width="42" height="42" viewBox="0 0 42 42" fill="none" xmlns="http://www.w3.org/2000/svg">
<path d="M27 14H5C2.79086 14 1 15.7909 1 18V37C1 39.2091 2.79086 41 5 41H27C29.2091 41 31 39.2091 31 37V18C31 15.7909 29.2091 14 27 14Z" stroke="white" stroke-width="2" stroke-linecap="round" stroke-linejoin="round"/>
<path d="M8 12V16" stroke="white" stroke-width="2" stroke-linecap="round" stroke-linejoin="round"/>
<path d="M24 16V12" stroke="white" stroke-width="2" stroke-linecap="round" stroke-linejoin="round"/>
<path d="M16 12V16" stroke="white" stroke-width="2" stroke-linecap="round" stroke-linejoin="round"/>
<path d="M7 22C6.45 22 6 22.45 6 23C6 23.55 6.45 24 7 24C7.55 24 8 23.55 8 23C8 22.45 7.55 22 7 22Z" fill="white"/>
<path d="M13 22C12.45 22 12 22.45 12 23C12 23.55 12.45 24 13 24C13.55 24 14 23.55 14 23C14 22.45 13.55 22 13 22Z" fill="white"/>
<path d="M19 22C18.45 22 18 22.45 18 23C18 23.55 18.45 24 19 24C19.55 24 20 23.55 20 23C20 22.45 19.55 22 19 22Z" fill="white"/>
<path d="M25 22C24.45 22 24 22.45 24 23C24 23.55 24.45 24 25 24C25.55 24 26 23.55 26 23C26 22.45 25.55 22 25 22Z" fill="white"/>
<path d="M7 28C6.45 28 6 28.45 6 29C6 29.55 6.45 30 7 30C7.55 30 8 29.55 8 29C8 28.45 7.55 28 7 28Z" fill="white"/>
<path d="M13 28C12.45 28 12 28.45 12 29C12 29.55 12.45 30 13 30C13.55 30 14 29.55 14 29C14 28.45 13.55 28 13 28Z" fill="white"/>
<path d="M19 28C18.45 28 18 28.45 18 29C18 29.55 18.45 30 19 30C19.55 30 20 29.55 20 29C20 28.45 19.55 28 19 28Z" fill="white"/>
<path d="M25 28C24.45 28 24 28.45 24 29C24 29.55 24.45 30 25 30C25.55 30 26 29.55 26 29C26 28.45 25.55 28 25 28Z" fill="white"/>
<path d="M7 34C6.45 34 6 34.45 6 35C6 35.55 6.45 36 7 36C7.55 36 8 35.55 8 35C8 34.45 7.55 34 7 34Z" fill="white"/>
<path d="M13 34C12.45 34 12 34.45 12 35C12 35.55 12.45 36 13 36C13.55 36 14 35.55 14 35C14 34.45 13.55 34 13 34Z" fill="white"/>
<path d="M19 34C18.45 34 18 34.45 18 35C18 35.55 18.45 36 19 36C19.55 36 20 35.55 20 35C20 34.45 19.55 34 19 34Z" fill="white"/>
<path d="M25 34C24.45 34 24 34.45 24 35C24 35.55 24.45 36 25 36C25.55 36 26 35.55 26 35C26 34.45 25.55 34 25 34Z" fill="white"/>
<path d="M35 8C35.17 7.5 35.33 7 35.5 6.5C36.33 6.33 37.17 6.17 38 6" stroke="white" stroke-width="2" stroke-linecap="round" stroke-linejoin="round"/>
<path d="M35.5 12C38.5376 12 41 9.53757 41 6.5C41 3.46243 38.5376 1 35.5 1C32.4624 1 30 3.46243 30 6.5C30 9.53757 32.4624 12 35.5 12Z" stroke="white" stroke-width="2" stroke-linecap="round" stroke-linejoin="round"/>
</svg>
