<svg width="48" height="48" viewBox="0 0 48 48" fill="none" xmlns="http://www.w3.org/2000/svg">
<g id="icon">
<g id="Vector">
<path d="M28.67 28.5C28.67 26.02 26.65 24 24.17 24C21.69 24 19.67 26.02 19.67 28.5C19.67 30.98 21.69 33 24.17 33C26.65 33 28.67 30.98 28.67 28.5ZM21.67 28.5C21.67 27.12 22.79 26 24.17 26C25.55 26 26.67 27.12 26.67 28.5C26.67 29.88 25.55 31 24.17 31C22.79 31 21.67 29.88 21.67 28.5Z" fill="#414652"/>
<path d="M27.17 34C26.62 34 26.17 34.45 26.17 35C26.17 35.55 26.62 36 27.17 36C28.27 36 29.17 36.9 29.17 38V41C29.17 41.55 28.72 42 28.17 42H20.17C19.62 42 19.17 41.55 19.17 41V38C19.17 36.9 20.07 36 21.17 36C21.72 36 22.17 35.55 22.17 35C22.17 34.45 21.72 34 21.17 34C18.96 34 17.17 35.79 17.17 38V41C17.17 42.65 18.52 44 20.17 44H28.17C29.82 44 31.17 42.65 31.17 41V38C31.17 35.79 29.38 34 27.17 34Z" fill="#414652"/>
<path d="M13.17 27C11.33 27 9.84 28.5 9.84 30.33C9.84 32.16 11.34 33.66 13.17 33.66C15 33.66 16.5 32.16 16.5 30.33C16.5 28.5 15 27 13.17 27ZM13.17 31.67C12.43 31.67 11.84 31.07 11.84 30.34C11.84 29.61 12.44 29.01 13.17 29.01C13.9 29.01 14.5 29.61 14.5 30.34C14.5 31.07 13.9 31.67 13.17 31.67Z" fill="#414652"/>
<path d="M14.17 40.67H10.5C10.32 40.67 10.17 40.52 10.17 40.34V38.34C10.17 37.79 10.62 37.34 11.17 37.34C11.72 37.34 12.17 36.89 12.17 36.34C12.17 35.79 11.72 35.34 11.17 35.34C9.52 35.34 8.17 36.69 8.17 38.34V40.34C8.17 41.63 9.22 42.67 10.5 42.67H14.17C14.72 42.67 15.17 42.22 15.17 41.67C15.17 41.12 14.72 40.67 14.17 40.67Z" fill="#414652"/>
<path d="M38.5 30.33C38.5 28.49 37 27 35.17 27C33.34 27 31.84 28.5 31.84 30.33C31.84 32.16 33.34 33.66 35.17 33.66C37 33.66 38.5 32.16 38.5 30.33ZM33.83 30.33C33.83 29.59 34.43 29 35.16 29C35.89 29 36.49 29.6 36.49 30.33C36.49 31.06 35.89 31.66 35.16 31.66C34.43 31.66 33.83 31.06 33.83 30.33Z" fill="#414652"/>
<path d="M37.17 35.33C36.62 35.33 36.17 35.78 36.17 36.33C36.17 36.88 36.62 37.33 37.17 37.33C37.72 37.33 38.17 37.78 38.17 38.33V40.33C38.17 40.51 38.02 40.66 37.84 40.66H34.17C33.62 40.66 33.17 41.11 33.17 41.66C33.17 42.21 33.62 42.66 34.17 42.66H37.84C39.13 42.66 40.17 41.61 40.17 40.33V38.33C40.17 36.68 38.82 35.33 37.17 35.33Z" fill="#414652"/>
<path d="M39 5H9C7.35 5 6 6.35 6 8V18C6 19.65 7.35 21 9 21H12.04L15.29 24.25C15.48 24.44 15.74 24.54 16 24.54C16.13 24.54 16.26 24.52 16.38 24.46C16.75 24.31 17 23.94 17 23.54V21H39C40.65 21 42 19.65 42 18V8C42 6.35 40.65 5 39 5ZM40 18C40 18.55 39.55 19 39 19H16C15.45 19 15 19.45 15 20V21.13L13.17 19.3C12.98 19.11 12.73 19.01 12.46 19.01H9C8.45 19.01 8 18.56 8 18.01V8C8 7.45 8.45 7 9 7H39C39.55 7 40 7.45 40 8V18Z" fill="#414652"/>
<path d="M37.92 10.62C37.92 10.62 37.91 10.6 37.9 10.59C37.86 10.49 37.79 10.4 37.72 10.33C37.7 10.3 37.67 10.28 37.64 10.26C37.58 10.2 37.51 10.16 37.43 10.12C37.4 10.1 37.37 10.09 37.33 10.07C37.22 10.03 37.1 10 36.98 10H34.98C34.43 10 33.98 10.45 33.98 11C33.98 11.43 34.25 11.79 34.63 11.94L31.98 14.59L29.69 12.3C29.3 11.91 28.67 11.91 28.28 12.3L25.99 14.59L23.7 12.3C23.31 11.91 22.68 11.91 22.29 12.3C21.9 12.69 21.9 13.32 22.29 13.71L25.29 16.71C25.68 17.1 26.31 17.1 26.7 16.71L28.99 14.42L31.28 16.71C31.48 16.91 31.73 17 31.99 17C32.25 17 32.5 16.9 32.7 16.71L36.06 13.35C36.2 13.73 36.56 14.01 36.99 14.01C37.54 14.01 37.99 13.56 37.99 13.01V11.01C37.99 11.01 37.99 10.99 37.99 10.97C37.99 10.85 37.97 10.74 37.92 10.62Z" fill="#414652"/>
<path d="M11 12H18C18.55 12 19 11.55 19 11C19 10.45 18.55 10 18 10H11C10.45 10 10 10.45 10 11C10 11.55 10.45 12 11 12Z" fill="#414652"/>
<path d="M20 14H11C10.45 14 10 14.45 10 15C10 15.55 10.45 16 11 16H20C20.55 16 21 15.55 21 15C21 14.45 20.55 14 20 14Z" fill="#414652"/>
</g>
</g>
</svg>
