<svg xmlns="http://www.w3.org/2000/svg" fill="none" viewBox="0 0 48 48"><path d="M0 9c0-5 4-9 9-9h30c5 0 9 4 9 9v30c0 5-4 9-9 9H9c-5 0-9-4-9-9V9Z" fill="#E22526"/><path d="M9 0C4 0 0 4 0 9v.3l44.9-7.1A9 9 0 0 0 39 0H9Zm36.8 3.1L37.6 48H39c5 0 9-4 9-9V9a9 9 0 0 0-2.2-5.9Z" fill="#B51E1E"/><path d="M13.5 25.6c0-.8.1-1.5.4-2.2a5.4 5.4 0 0 1 5.3-3.6 7.3 7.3 0 0 1 3 .6l-.6 2.5-1-.3a5 5 0 0 0-1.1-.1c-1 0-1.7.3-2.1.8-.5.6-.7 1.4-.7 2.3 0 1 .2 1.8.6 2.3.5.6 1.2.8 2.3.8a7.7 7.7 0 0 0 2.4-.4l.4 2.6-1.3.4a9 9 0 0 1-4.4-.3c-.8-.3-1.4-.7-1.8-1.3a5 5 0 0 1-1-1.8c-.3-.7-.4-1.5-.4-2.3Zm21-9v2.8H30V31h-3.3V19.4h-4.4v-2.8h12Z" fill="#fff"/></svg>