<svg xmlns="http://www.w3.org/2000/svg" fill="none" viewBox="0 0 48 48"><path d="M0 9c0-5 4-9 9-9h30c5 0 9 4 9 9v30c0 5-4 9-9 9H9c-5 0-9-4-9-9V9Z" fill="#FF444F"/><path d="M9 0C4 0 0 4 0 9v.3l44.9-7.1A9 9 0 0 0 39 0H9Zm36.8 3.1L37.6 48H39c5 0 9-4 9-9V9a9 9 0 0 0-2.2-5.9Z" fill="#E12E3A"/><path d="M15 28.6h1.1c1.6 0 2.8-.4 3.6-1.2.8-.8 1.2-2 1.2-3.4 0-1.5-.4-2.7-1.1-3.5-.8-.8-2-1.2-3.6-1.2a11.8 11.8 0 0 0-1.4.1v9.2Zm9.4-4.6c0 1.2-.2 2.3-.6 3.3a6 6 0 0 1-1.7 2.3 7 7 0 0 1-2.6 1.4c-1 .3-2.2.5-3.5.5a29.3 29.3 0 0 1-4.4-.4V16.9a12.6 12.6 0 0 1 7.9 0 7 7 0 0 1 2.6 1.4c.7.6 1.3 1.4 1.7 2.3.4 1 .6 2 .6 3.4Zm12-7.3v2.8H32v11.8h-3.3V19.5h-4.4v-2.8h12Z" fill="#fff"/></svg>