<svg xmlns="http://www.w3.org/2000/svg" fill="none" viewBox="0 0 120 152"><path d="M43 76.2v.6c-.2.4-.5.6-.7.7-1 .7-2 1-2 1a16.1 16.1 0 0 1-7.2.4s-1.5-.2-2.9-.7c0 0-.6-.2-1-.7-.4-.2-.5-.4-.6-.6l-.2-.7v-29a28 28 0 0 1 6.2-17.7 22.6 22.6 0 0 1 9.5-7A2294.4 2294.4 0 0 0 70 12a15 15 0 0 1 7-.8c2.1.3 3.7 1 4 1.3a13.2 13.2 0 0 1 5.7 5.3 18 18 0 0 1 2.4 6.6c.3 1.6.4 3 .4 4v29.4l-.3.5-.5.5-.6.4-.8.3a13.4 13.4 0 0 1-5.6.9 17.9 17.9 0 0 1-4.5-.8l-1.2-.5c-.5-.3-.7-.6-.8-.7a1.8 1.8 0 0 1-.3-1V28c0-.3 0-.7-.2-1.1l-.2-1-25.4 10.2a6.9 6.9 0 0 0-2.6 1.7c-.7.7-1 1.4-1.5 2.1a15 15 0 0 0-2 7.4v28.8Z" fill="#fff"/><path d="M35.8 79.4a18.7 18.7 0 0 1-5.7-1c-.2 0-.6-.2-1.1-.7l-.6-.6a2 2 0 0 1-.3-1V47.3a28.2 28.2 0 0 1 6.3-18 23 23 0 0 1 9.6-7 2882 2882 0 0 0 26-10.4 15.2 15.2 0 0 1 7-.9c2 .2 3.5.9 4.2 1.2 1.3.6 2.5 1.5 3.5 2.5a18.6 18.6 0 0 1 4.7 9.7l.4 4v29.1l-.1.4c0 .3-.2.4-.3.6l-.5.5-.6.4a2 2 0 0 1-.9.4 14.8 14.8 0 0 1-5.7.8 18.3 18.3 0 0 1-4.6-.7l-1.2-.6a3 3 0 0 1-1-.8l-.3-.7v-29a11.8 11.8 0 0 0-.3-2.4l-25 10.1a6.7 6.7 0 0 0-2.5 1.6l-1.4 2a14.7 14.7 0 0 0-2 7.3v28.8H43h.3a1.7 1.7 0 0 1-.8 1.6c-1 .7-2 1-2 1a16.5 16.5 0 0 1-4.7.6Zm39.4-68a14.8 14.8 0 0 0-5 1 2781.3 2781.3 0 0 1-26 10.3c-2 .8-3.9 1.8-5.6 3.1a28.5 28.5 0 0 0-10 21.4l.1 29c0 .2 0 .4.2.6 0 .1.1.3.4.5l1 .6c1.4.6 2.8.8 2.8.8l3.4.2a16 16 0 0 0 3.8-.7s.9-.2 1.8-.9l.6-.6v-.5a4845 4845 0 0 1 .2-31 14.7 14.7 0 0 1 2-5.3 7.8 7.8 0 0 1 4.2-4l25.4-10.2a.3.3 0 0 1 .3.2 7.3 7.3 0 0 1 .4 2.2v29.2a1.4 1.4 0 0 0 .3 1l.8.6 1.1.5 1.8.4a18 18 0 0 0 4.3.2c.4 0 1.2 0 2.1-.2a13 13 0 0 0 2.5-.9l.6-.3a2.2 2.2 0 0 0 .5-.8V28.4a23.7 23.7 0 0 0-1-6.7c-.5-1.8-1.3-3.1-1.6-3.8-.4-.6-1-1.7-2.2-2.8a13 13 0 0 0-9.2-3.7Z" fill="#000"/><path d="M106.5 58c0 1.1-.8 2-1.3 2.6-.8 1-1.7 1.5-2.5 2l-2.2 1L53 82.8a40.7 40.7 0 0 1-14.5 2.7 56.2 56.2 0 0 1-16-1.5 29 29 0 0 1-6.9-2.5 8 8 0 0 1-3.3-2.8c-.3-.6-.9-1.5-.8-2.6 0-1.3.8-2.2 1.4-2.9.8-1 1.8-1.5 2.7-2l2.5-1.2 2.3-1 8-3.2v10.4c0 .1 0 .4.2.7 0 .2.2.4.5.6.5.5 1 .7 1.1.7 1.4.5 3 .7 3 .7.7.2 1.8.3 3.3.2a11 11 0 0 0 3.8-.6s1-.3 2-1c.2-.1.5-.3.6-.7l.1-.6V60a82110.8 82110.8 0 0 0 23-9.2 41.4 41.4 0 0 1 9-1.8v8.4a1.8 1.8 0 0 0 .3 1c0 .2.3.5.8.8l1.2.5 1.9.5a18 18 0 0 0 8.2-.6 5.4 5.4 0 0 0 1.4-.7 2.6 2.6 0 0 0 .7-1V49a33.4 33.4 0 0 1 6.2 1c1.4.4 2.6.7 4.2 1.4 1 .4 2.2.9 3.4 1.7 1.2.9 2.4 1.7 3 3.1 0 .4.3 1 .2 1.8Z" fill="#fff"/><path d="M35 85.8a53.2 53.2 0 0 1-12.6-1.5c-1.8-.5-4.3-1.2-7-2.6a8.4 8.4 0 0 1-3.3-2.9 4 4 0 0 1-.9-2.7c0-1.4.9-2.4 1.5-3a7.2 7.2 0 0 1 2.8-2.2l2.4-1.2 2.4-1 .4-.1 7.6-3a.3.3 0 0 1 .4.2v10.4c0 .2 0 .4.2.6 0 .1.1.3.4.5l1 .6c1.4.6 2.8.8 2.8.8l3.4.2a16 16 0 0 0 3.7-.7s1-.2 2-.9l.5-.6v-.5a2147.5 2147.5 0 0 1 .2-16.6 82110.8 82110.8 0 0 0 23-9.1 34.5 34.5 0 0 1 9.2-1.8l.1.2v8.4a1.5 1.5 0 0 0 .3 1l.8.6 1.1.5 1.8.4a17.8 17.8 0 0 0 4.3.2c.4 0 1.2 0 2.1-.2l1.7-.5.8-.4.6-.3a2.3 2.3 0 0 0 .5-.8v-8.9a.3.3 0 0 1 .4-.3 34.6 34.6 0 0 1 6.2 1c1.4.4 2.6.7 4.2 1.4 1 .4 2.2.9 3.5 1.8 1.2.8 2.4 1.7 3 3.2 0 .3.4 1 .3 2-.1 1.2-.8 2-1.4 2.7-.8 1-1.7 1.6-2.5 2.1l-2.3 1.1L53 83a48.3 48.3 0 0 1-14.6 2.7l-3.4.1Zm-6.9-19.6-7.1 3-.5.1-2.3 1-2.4 1a9 9 0 0 0-2.7 2.1c-.6.7-1.3 1.5-1.3 2.7 0 1 .4 2 .7 2.4a8 8 0 0 0 3.3 2.7c2.5 1.4 5 2 6.8 2.5a52 52 0 0 0 15.8 1.5c3-.2 6.5-.3 10.8-1.5a41 41 0 0 0 3.7-1.2 1507434.4 1507434.4 0 0 0 49.7-20.2c.7-.4 1.6-1 2.4-2 .5-.6 1.1-1.3 1.2-2.4l-.2-1.7c-.6-1.4-1.7-2.1-2.8-3-1.3-.8-2.4-1.3-3.4-1.7a34 34 0 0 0-10-2.4V58l-.3.6a2.8 2.8 0 0 1-1.1 1l-.9.3a13.5 13.5 0 0 1-4 .8 19.2 19.2 0 0 1-6.3-.7l-1.2-.6a3 3 0 0 1-1-.8 2.2 2.2 0 0 1-.3-1.2v-8.1A29.6 29.6 0 0 0 66 51a51.6 51.6 0 0 0-5.8 2.2l-17 6.9v16l-.1.8a2 2 0 0 1-.7.9c-1 .7-2 1-2 1-1 .2-2.2.5-4 .6a18.3 18.3 0 0 1-6.4-1c-.2 0-.6-.2-1.1-.7l-.6-.6a2 2 0 0 1-.3-1v-9.9Z" fill="#000"/><path d="m80.2 93.6 8.7 3c.4.3 1 .6 1.6 1.2a20.2 20.2 0 0 1 2.3 4.7 30.5 30.5 0 0 1 1.3 6.3c.1 1.5 0 1.7.2 3.3a26 26 0 0 0 1.8 8 43223.2 43223.2 0 0 1-15 6.1c-.3.2-.7.6-1.3 1.6-.5 1-.3 1-.8 1.8-.5 1-1 1.1-1 1.2-.2 0-.7.3-1.2.2-.7 0-1-.7-1.4-1.2-1-1.8-1.5-3.4-1.6-3.7-.4-1.7-.5-3-.7-4.2l-.2-3a43.1 43.1 0 0 0-1.4-7.7 21 21 0 0 0-1.3-3.2 8 8 0 0 0-1.4-2l-1.4-.8a25.7 25.7 0 0 1-4-1.4v-3.4l16.8-6.8Z" fill="#FF7E88"/><path d="M77 131.3h-.3c-.7-.1-1.2-.8-1.6-1.4a15 15 0 0 1-1.5-3.8 29 29 0 0 1-.8-4.2v-1.4l-.2-1.6a43.1 43.1 0 0 0-1.4-7.7c-.1-.4-.5-1.6-1.3-3a5 5 0 0 0-1.3-2l-1.3-.7-1.3-.5h-.3l-2.4-1a.3.3 0 0 1-.2-.2v-3.4l.2-.3 16.8-6.8h.2l8.7 3.1c.6.3 1.2.7 1.7 1.2l1.1 1.8a31 31 0 0 1 2.5 9.4l.2 1.8v1.4c.2 2 .4 3.5 1 5.4a18 18 0 0 0 .8 2.7l-.1.2-14.4 5.8-.6.4c-.2.1-.6.5-1.1 1.5l-.4.8-.5 1a3 3 0 0 1-1.2 1.3c-.3.2-.6.2-1 .2Zm-13.3-27.7a25 25 0 0 0 2.5.9 9.2 9.2 0 0 1 2.8 1.3c.5.5.9 1 1.4 2a31.4 31.4 0 0 1 2.2 6.8l.6 4.2v1.7l.2 1.3c.1 1.1.3 2.5.7 4.2.2.6.6 2 1.5 3.6.3.5.7 1 1.2 1.2.3 0 .6 0 1-.2l1-1.1.3-.8.5-1c.5-1 1-1.5 1.3-1.7l.7-.4 14.1-5.7-.8-2.4c-.6-1.9-.7-3.5-.9-5.4v-1.5l-.2-1.7a38.6 38.6 0 0 0-2.5-9.3 6 6 0 0 0-1-1.6c-.5-.5-1-.8-1.5-1l-8.6-3.1-16.5 6.7v3Z" fill="#000"/><path d="m83 94.5-2.8-1-16.8 6.9v-2a7 7 0 0 1 2-4.6c.6-.6 1.2-1 1.6-1.1l2.2-.9 8-3.3 5.7-2.2v8.2Z" fill="#FF444F"/><path d="M63.4 100.7h-.1l-.2-.3v-2c0-1 .3-1.7.6-2.5.1-.5.5-1.5 1.4-2.3.5-.5 1.1-.9 1.8-1.2l.5-.2 1.7-.7 7-2.8 1-.4a3432.6 3432.6 0 0 0 6-2.3v.2a16403.4 16403.4 0 0 0 0 8.6h-.3l-2.6-1-.7.4-16 6.5Zm19.2-14-5.2 2-1 .5-7 2.9a6 6 0 0 0-1.8.7l-.5.2a5 5 0 0 0-3 3.1l-.4 2.2v1.7l15.6-6.3.8-.4h.2l2.3.8v-7.4Z" fill="#000"/><path d="M90 97.4c-.4-.4-.8-.6-1.1-.7l-6-2.2v-8.2l3.9-1.6a2.2 2.2 0 0 1 2 .3c.4.2.5.5.7.7a3.6 3.6 0 0 1 .5 2v9.7Z" fill="#CED0D6"/><path d="M90 97.6h-.2a5 5 0 0 0-1-.7l-6-2a.3.3 0 0 1-.2-.4v-8.2c0-.2 0-.3.2-.3l3.9-1.6a2.5 2.5 0 0 1 2.3.4c.4.2.6.5.7.8a4 4 0 0 1 .5 2v9.8a.3.3 0 0 1-.2.2Zm-6.8-3.3 5.8 2.1.7.4V87l-.5-1.1a2 2 0 0 0-.5-.7 2 2 0 0 0-1.8-.2l-3.7 1.4v8Z" fill="#000"/><path d="m67.2 105.1-3.8 1.6v-2.9l2.4.9 1.4.4Z" fill="#FF444F"/><path d="M63.4 107h-.1l-.2-.3v-2.9a.3.3 0 0 1 .4-.3 26.3 26.3 0 0 0 3.8 1.4.3.3 0 0 1 0 .5l-3.8 1.6Zm.3-2.8v2l2.7-1-.4-.2a23 23 0 0 1-2.3-.8Z" fill="#000"/><path d="M70.7 109a1299.8 1299.8 0 0 1-4 1.7c-.5.2-.8.3-1.3.2-.1 0-.4 0-.7-.2l-.8-.9-.4-1.2v-1.9l3.7-1.6.2.1c.4.2 1 .4 1.4.8.5.4.8.9 1.4 2l.5 1Z" fill="#CED0D6"/><path d="M65.7 111.2a2.4 2.4 0 0 1-1.1-.3c-.5-.3-.7-.7-1-1a5.7 5.7 0 0 1-.6-2.4l.1-.8.2-.2 3.8-1.6h.4c.4.2 1 .5 1.5 1 .5.4.9.9 1.4 2a21 21 0 0 1 .6 1.2l-.2.2a1795.7 1795.7 0 0 1-5.1 2v-.1Zm-2-4.3v.6a5.2 5.2 0 0 0 .5 2.2c.1.2.3.5.7.7.2.2.5.2.6.2l1-.1c.3 0 .5-.2.7-.3l3.1-1.3-.4-.8a5 5 0 0 0-1.3-1.8 5.9 5.9 0 0 0-1.4-.9l-3.5 1.5Z" fill="#000"/><path d="M106.6 108a279821.4 279821.4 0 0 1 0-50c-.2 1.1-.9 1.9-1.4 2.6-.8 1-1.7 1.5-2.5 2l-2.2 1L53 82.8a40.7 40.7 0 0 1-14.5 2.7 56.2 56.2 0 0 1-16-1.5 29 29 0 0 1-6.9-2.5 8 8 0 0 1-3.3-2.8c-.3-.6-.8-1.3-.8-2.3v51.3a4.3 4.3 0 0 0 .7 2.3c.5.8 1.1 1.3 1.5 1.6 1.3 1 2.6 1.7 3.8 2.2.7.3 1.8.8 3.5 1.3a44.4 44.4 0 0 0 12.3 1.8 62.6 62.6 0 0 0 16-1.5 65 65 0 0 0 8.2-3l16.3-6.5c-.4-1.6-.5-2.9-.7-4l-.2-3a43 43 0 0 0-1.4-7.7l-.8-2.1-3.3 1.4-.8.3c-.4 0-.7.2-1.2 0l-.7-.1-.8-.9-.4-1.2V98.4a7 7 0 0 1 1.8-4.6c.7-.6 1.3-1 1.7-1 .4-.3 1.8-.8 2.2-1l8-3.3 5.7-2.2 3.9-1.6a2.2 2.2 0 0 1 2 .3c.4.2.5.5.7.7a3.6 3.6 0 0 1 .5 2v9.7l.5.4a20.3 20.3 0 0 1 2.3 4.7 31.2 31.2 0 0 1 1.3 6.3c.1 1.5 0 1.7.2 3.3.2 1.8.3 3.4.8 5.2l6.2-2.6 1.8-1a7 7 0 0 0 2.8-2.6 6.6 6.6 0 0 0 .7-3.1Z" fill="#EBECEF"/><path d="M35.9 137.3a61.3 61.3 0 0 1-15-2 29 29 0 0 1-3.5-1.2 17 17 0 0 1-3.8-2.2c-.5-.4-1.1-1-1.6-1.8a5 5 0 0 1-.9-2.4V76.4c0-.2.2-.3.4-.3.1 0 .3.1.3.3 0 1 .5 1.7.7 2.1a8 8 0 0 0 3.3 2.7c2.5 1.4 5 2 6.8 2.5a52 52 0 0 0 15.8 1.5c3-.2 6.5-.3 10.8-1.5 1.2-.3 2.5-.7 3.7-1.2a1507391.5 1507391.5 0 0 0 49.7-20.2c.7-.4 1.6-1 2.4-2a4.4 4.4 0 0 0 1.2-2.5c0-.2.2-.3.3-.3.2 0 .3.1.3.3a838050.4 838050.4 0 0 0 0 51c0 .4-.1 1.4-.6 2.4a8.2 8.2 0 0 1-3 2.8l-1.7 1-6.3 2.5a.3.3 0 0 1-.4-.2c-.5-1.8-.6-3.4-.8-5.2v-1.5l-.2-1.7-.5-3-.8-3.3a20 20 0 0 0-1.2-3 6 6 0 0 0-1.5-2v-.3l-.1-9.7V87l-.5-1.1a2 2 0 0 0-.5-.7 2 2 0 0 0-1.8-.3l-4 1.6-5.5 2.3-1 .4-7 2.9a6 6 0 0 0-1.8.7l-.5.2a5.1 5.1 0 0 0-3 3.1l-.4 2.2v9.2a5.2 5.2 0 0 0 .5 2.2c.1.2.3.5.7.7.2.2.5.2.6.2l1-.1c.3 0 .5-.2.7-.3l3.4-1.4c.1 0 .3 0 .3.2a22 22 0 0 1 1.7 5.7 43.3 43.3 0 0 1 .8 7.1c.1 1 .3 2.4.7 4 0 .1 0 .3-.2.3l-9.8 4-6.4 2.6-3.2 1.3-5 1.7c-3.4.9-6.1 1.1-7.6 1.3l-4.9.3h-1Zm-24.1-59-.1 49.4a4 4 0 0 0 .7 2.1c.5.8 1 1.3 1.5 1.6 1 .9 2.2 1.5 3.7 2.2l3.5 1.2c3 .9 5.5 1.2 7 1.4a59.3 59.3 0 0 0 21.2-1c2.1-.6 3.8-1.3 5-1.7l3.2-1.3 6.4-2.6 9.6-3.9c-.4-1.5-.5-2.8-.7-3.8v-1.4a39.6 39.6 0 0 0-2.3-11l-3 1.2-.8.3a3 3 0 0 1-1.3.2c-.1 0-.5 0-.8-.3-.5-.3-.7-.7-1-1a5.7 5.7 0 0 1-.6-2.4l.1-.8v-8.3c0-1 .3-1.7.6-2.5a5.7 5.7 0 0 1 3.2-3.5l.5-.2 1.7-.7 7-2.8 1-.4 5.7-2.3 3.9-1.6a2.5 2.5 0 0 1 2.3.4c.4.2.6.5.7.8a4 4 0 0 1 .5 2v9.6l.5.4 1.1 1.8a31 31 0 0 1 2.7 11.2v1.4c.2 1.7.3 3.2.8 4.9l6-2.4 1.6-1c1.3-.9 2.2-1.5 2.8-2.6a6.3 6.3 0 0 0 .6-3V59.7l-.9 1.1c-.8 1-1.7 1.6-2.5 2.1l-2.3 1.1L53 83a48.3 48.3 0 0 1-14.6 2.7 56.9 56.9 0 0 1-16-1.4c-2-.5-4.4-1.2-7-2.6a8.4 8.4 0 0 1-3.7-3.4Z" fill="#000"/><path d="M108.6 125.3 87.3 134a115.1 115.1 0 0 0-2.5-6.3c-.4-.6-1-1.4-2-1.7l-1.4.1.3-.1 14.4-5.9a14838.7 14838.7 0 0 0 7.4-2.8c.5 0 .9.2 1.2.4.1 0 .6.4 1.1 1l.9 1.5.9 2.1 1 3.1Z" fill="#FF7E88"/><path d="M87.3 134.1a.3.3 0 0 1-.3-.1 114.2 114.2 0 0 0-2.4-6.2c-.4-.6-1-1.4-2-1.6l-1.1.1a.3.3 0 0 1-.3-.5l.4-.2 14.4-5.8 6.7-2.7.8-.2c.6 0 1 .3 1.3.4l1.3 1.2.8 1.5c.5.8.7 1.5 1 2.2l1 3c0 .2 0 .3-.2.4L87.4 134h-.1Zm-4.4-8.4c1.1.3 1.7 1.1 2.2 1.8a119.3 119.3 0 0 1 2.4 6l20.7-8.4a47.4 47.4 0 0 0-1.8-4.9c-.3-.7-.6-1-.8-1.3-.3-.5-.7-.9-1-1-.3-.2-.6-.4-1-.4h-.6l-6.8 2.8-13.3 5.4Z" fill="#000"/><path d="m85 128-5 2-2.2.9h.1c.2-.2.6-.4 1.1-1.3.5-.8.3-.9.8-1.8a4 4 0 0 1 1.3-1.6l.3-.2c.3 0 .8-.2 1.4 0 1 .2 1.6 1 2 1.6l.3.4Z" fill="#FF444F"/><path d="M77.8 131.2a.3.3 0 0 1-.1-.6c.2 0 .5-.3 1-1.1.3-.4.4-.6.4-.9l.5-1c.5-1 1-1.4 1.3-1.6l.3-.2a3 3 0 0 1 1.6-.1c1.2.2 1.8 1.1 2.3 1.8l.2.4v.4l-5.2 2-.6.3-1.6.5Zm3.7-4.9-.3.2c-.2.1-.6.5-1.1 1.5l-.4.8a4.5 4.5 0 0 1-.7 1.3h.3l.5-.3 4.9-2c-.5-.6-1-1.4-2-1.6l-1.2.1Z" fill="#000"/></svg>