<svg xmlns="http://www.w3.org/2000/svg" fill="none" viewBox="0 0 48 48"><path d="M11.6 40c-.9 0-1.8-.4-2.5-1.1a3.5 3.5 0 0 1 0-5l9.6-9.7c.2-.1.2-.3 0-.5l-9.6-9.6a3.5 3.5 0 0 1 0-5 3.5 3.5 0 0 1 5 0l9.7 9.6h.5L33.9 9a3.5 3.5 0 0 1 5 0 3.5 3.5 0 0 1 0 5l-9.6 9.6v.5L39 34a3.5 3.5 0 0 1 0 5 3.5 3.5 0 0 1-5 0l-9.6-9.6h-.5L14 38.9c-.6.7-1.6 1-2.5 1ZM24 27.2c.6 0 1.2.3 1.6.7l9.6 9.6c.7.6 1.7.6 2.3 0 .7-.7.7-1.7 0-2.4L28 25.6a2 2 0 0 1 0-3.2l9.6-9.6c.6-.6.6-1.7 0-2.3-.7-.7-1.8-.7-2.4 0L25.6 20c-.9.8-2.3.8-3.2 0l-9.6-9.7c-.7-.6-1.7-.6-2.3 0-.7.7-.7 1.8 0 2.4l9.5 9.6c1 1 1 2.3 0 3.2l-9.6 9.6c-.6.7-.6 1.7 0 2.4.7.6 1.8.6 2.4 0l9.6-9.6c.4-.4 1-.7 1.6-.7Z" fill="#000" fill-opacity=".7"/></svg>