<svg width="32" height="32" viewBox="0 0 32 32" fill="none" xmlns="http://www.w3.org/2000/svg">
<path fill-rule="evenodd" clip-rule="evenodd" d="M17.0664 6.24953H7.34635C5.87302 6.24953 4.67969 7.44286 4.67969 8.91619V25.5029C4.67969 26.2362 5.27969 26.8362 6.01302 26.8362H7.46635C8.19969 26.8362 8.79969 26.2362 8.79969 25.5029V18.6029H12.953C13.6864 18.6029 14.2864 18.0029 14.2864 17.2695V15.8162C14.2864 15.0829 13.6864 14.4829 12.953 14.4829H8.79969V10.3629H17.073C17.8064 10.3629 18.4064 9.76286 18.4064 9.02953V7.57619C18.4064 6.84286 17.8064 6.24286 17.073 6.24286L17.0664 6.24953Z" stroke="#414652" stroke-width="1.33333" stroke-linecap="round" stroke-linejoin="round"/>
<path fill-rule="evenodd" clip-rule="evenodd" d="M18.5267 26.8359H20.2733C20.7733 26.8359 21.2267 26.5559 21.4533 26.1159L22.1133 24.8426L22.7733 26.1159C23 26.5559 23.46 26.8359 23.9533 26.8359H25.7C26.7 26.8359 27.3467 25.7759 26.88 24.8892L24.48 20.2692L27.1867 15.0626C27.6467 14.1759 27.0067 13.1159 26.0067 13.1159H24.26C23.76 13.1159 23.3067 13.3959 23.08 13.8359L22.1133 15.6959L21.1467 13.8359C20.92 13.3959 20.46 13.1159 19.9667 13.1159H18.22C17.22 13.1159 16.5733 14.1759 17.04 15.0626L19.7467 20.2692L17.3467 24.8892C16.8867 25.7759 17.5267 26.8359 18.5267 26.8359Z" stroke="#414652" stroke-width="1.33333" stroke-linecap="round" stroke-linejoin="round"/>
</svg>
