<?xml version="1.0" encoding="UTF-8"?>
<svg id="Linear" xmlns="http://www.w3.org/2000/svg" viewBox="0 0 32 32">
  <defs>
    <style>
      .cls-1 {
        fill: none;
        stroke: #414652;
        stroke-miterlimit: 10;
        stroke-width: 1.5px;
      }
    </style>
  </defs>
  <g id="Layer_192" data-name="Layer 192">
    <path class="cls-1" d="M19.56,15.31l7.41-7.41c.78-.78,.78-2.05,0-2.83l-.03-.03c-.78-.78-2.05-.78-2.83,0l-7.41,7.41c-.39,.39-1.02,.39-1.41,0L7.88,5.05c-.78-.78-2.05-.78-2.83,0l-.03,.03c-.78,.78-.78,2.05,0,2.83l7.41,7.41c.39,.39,.39,1.02,0,1.41l-7.41,7.41c-.78,.78-.78,2.05,0,2.83l.03,.03c.78,.78,2.05,.78,2.83,0l7.41-7.41c.39-.39,1.02-.39,1.41,0l7.41,7.41c.78,.78,2.05,.78,2.83,0l.03-.03c.78-.78,.78-2.05,0-2.83l-7.41-7.41c-.39-.39-.39-1.02,0-1.41Z"/>
  </g>
</svg>