<svg width="168" height="114" fill="none" xmlns="http://www.w3.org/2000/svg"><path d="m120.274 47.918-26.87 25.079 13.883-29.557 12.987 4.478z" fill="#4A3871"/><path d="m93.405 72.997-7.166-34.483 80.162-37.17-59.114 42.096-13.882 29.557z" fill="#8773B4"/><path d="m107.287 43.44 59.114-42.096-17.913 56.427-41.201-14.331zM86.24 38.514l-26.87-6.27 107.03-30.9-80.162 37.17z" fill="#6950A1"/><path fill-rule="evenodd" clip-rule="evenodd" d="M66.74 58.205a.448.448 0 0 1 .468-.427c2.275.105 4.206 1.257 5.579 3.174a.448.448 0 0 1-.729.521c-1.232-1.72-2.923-2.709-4.891-2.8a.448.448 0 0 1-.427-.468zm-5.019 1.682a.448.448 0 0 1-.122.621 18.24 18.24 0 0 0-2.37 1.917 15.249 15.249 0 0 0-1.57 1.724.448.448 0 1 1-.707-.548c.48-.62 1.031-1.23 1.661-1.827a19.128 19.128 0 0 1 2.487-2.01.448.448 0 0 1 .621.123zm12.714 6.707a.448.448 0 0 1 .497.392c.118 1.004.158 2.071.11 3.193-.037.9-.162 1.825-.377 2.764a.448.448 0 1 1-.873-.2c.203-.888.32-1.758.356-2.601a19.259 19.259 0 0 0-.105-3.05.448.448 0 0 1 .392-.498zm-19.198 1.092a.446.446 0 0 1 .304.555 12.057 12.057 0 0 0-.407 4.584.448.448 0 0 1-.892.088 12.952 12.952 0 0 1 .44-4.923.448.448 0 0 1 .555-.304zM90.6 75.23a.448.448 0 0 1-.026.633 67.498 67.498 0 0 1-1.806 1.606.448.448 0 0 1-.583-.68 65.44 65.44 0 0 0 1.782-1.585.448.448 0 0 1 .633.026zm-34.84 1.845a.448.448 0 0 1 .593.221 12.28 12.28 0 0 0 1.142 2.008l.01.013.01.015c.365.605.828 1.23 1.386 1.84a.448.448 0 0 1-.661.604 12.714 12.714 0 0 1-1.483-1.966 13.157 13.157 0 0 1-1.22-2.142.448.448 0 0 1 .222-.593zm16.697.407c.215.122.29.395.168.61a23.91 23.91 0 0 1-3.281 4.438.448.448 0 1 1-.656-.61 23.02 23.02 0 0 0 3.158-4.27.448.448 0 0 1 .61-.168zm12.61 2.36a.448.448 0 0 1-.103.625 42.254 42.254 0 0 1-4.077 2.598.448.448 0 0 1-.435-.783 41.345 41.345 0 0 0 3.99-2.543.448.448 0 0 1 .625.103zm-23.108 4.33a.448.448 0 0 1 .605-.188 13.927 13.927 0 0 0 4.4 1.427.448.448 0 1 1-.133.886c-.508-.076-1-.176-1.474-.296a.446.446 0 0 1-.144.175 33.654 33.654 0 0 1-4.694 2.85.448.448 0 1 1-.403-.8 32.974 32.974 0 0 0 4.22-2.523c-.78-.257-1.51-.57-2.187-.926a.448.448 0 0 1-.19-.604zm14.78.36a.448.448 0 0 1-.267.575c-1.67.61-3.25.998-4.734 1.2a.448.448 0 1 1-.12-.888c1.416-.192 2.932-.563 4.546-1.154a.448.448 0 0 1 .574.267zm-21.004 6.034a.448.448 0 0 1-.28.568 46.12 46.12 0 0 1-5.29 1.439.448.448 0 1 1-.185-.876 45.21 45.21 0 0 0 5.187-1.411.448.448 0 0 1 .568.28zM28.15 92.81a.448.448 0 0 1 .466-.428 52.8 52.8 0 0 1 2.58.172c.912.083 1.81.15 2.691.2a.448.448 0 1 1-.05.893c-.893-.05-1.8-.117-2.723-.201a52.088 52.088 0 0 0-2.535-.17.448.448 0 0 1-.429-.466zm-4.213.06a.448.448 0 0 1-.413.48c-1.796.136-3.454.39-4.983.743a.448.448 0 0 1-.2-.873 34.305 34.305 0 0 1 5.116-.763.448.448 0 0 1 .48.412zm21.223.058a.448.448 0 0 1-.398.493c-1.741.186-3.562.3-5.462.335a.448.448 0 1 1-.017-.895 61.702 61.702 0 0 0 5.384-.33.448.448 0 0 1 .493.397zm-31.152 2.144c.1.226-.002.49-.228.591a21.762 21.762 0 0 0-4.31 2.524.448.448 0 0 1-.54-.715 22.649 22.649 0 0 1 4.487-2.628c.226-.1.49.002.591.228zm-8.184 5.965a.448.448 0 0 1 .072.629 19.986 19.986 0 0 0-2.592 4.258.448.448 0 1 1-.817-.367 20.854 20.854 0 0 1 2.708-4.449.448.448 0 0 1 .63-.071zm-4.35 9.137a.447.447 0 0 1 .366.517 16.61 16.61 0 0 0-.242 2.47.448.448 0 0 1-.896-.017 17.49 17.49 0 0 1 .256-2.605.447.447 0 0 1 .517-.365z" fill="#1F1830"/></svg>