<svg width="109" height="40" viewBox="0 0 109 40" fill="none" xmlns="http://www.w3.org/2000/svg">
<g opacity="0.8" clip-path="url(#clip0_726_28061)">
<path fill-rule="evenodd" clip-rule="evenodd" d="M22.6854 2.82324L20.7943 13.5479H14.2298C8.10559 13.5479 2.26819 18.5096 1.186 24.6338L0.727633 27.2398C-0.348477 33.3641 3.7374 38.3258 9.86015 38.3258H15.3348C19.7986 38.3258 24.0499 34.7119 24.8346 30.2496L29.8767 1.66669L22.6824 2.82324H22.6854ZM18.0274 29.2373C17.786 30.6154 16.5445 31.7386 15.1663 31.7386H11.8409C9.08759 31.7386 7.24652 29.5044 7.72918 26.7466L8.01604 25.121C8.50477 22.3678 11.1305 20.129 13.8838 20.129H19.6347L18.0289 29.2373H18.0274ZM71.1193 38.3258H77.9327L82.2402 13.8894H75.4268L71.1193 38.3258ZM70.6837 13.6405C71.1861 13.7149 71.69 13.8105 72.1878 13.9167V13.9183L72.1924 13.9228C72.221 13.9282 72.2469 13.936 72.2726 13.9437C72.2973 13.9512 72.3219 13.9586 72.3487 13.9638L71.2817 20.0273C70.7035 19.8771 70.0189 19.7162 69.2342 19.5447C68.445 19.3732 67.5738 19.2882 66.6282 19.2882C66.2002 19.2882 65.6811 19.3276 65.0725 19.4035C64.4638 19.4794 64.0009 19.5644 63.6791 19.66L60.3886 38.3333H53.5707L57.652 15.2008C58.9452 14.7682 60.4599 14.3554 62.1902 13.9683C63.922 13.5798 65.8086 13.384 67.8515 13.384C68.2188 13.384 68.6514 13.4083 69.1644 13.4538C69.6729 13.4993 70.1813 13.5661 70.6837 13.6405ZM45.5174 13.5433H40.2203C35.0522 13.5433 30.1255 17.7294 29.2148 22.8974L28.1433 28.9716C27.2326 34.1397 30.6795 38.3257 35.8475 38.3257H47.1292L48.2873 31.7583H37.6841C35.9629 31.7583 34.8109 30.3649 35.1175 28.6377L35.1524 28.4313H52.2457L53.0805 23.7019L53.2216 22.8974C54.1323 17.7294 50.6854 13.5433 45.5174 13.5433ZM46.384 22.3753L46.3446 22.7274H36.1799L36.2346 22.4148C36.5412 20.6936 38.1121 19.1789 39.8378 19.1789H43.8083C45.5143 19.1789 46.6663 20.6678 46.384 22.3738V22.3753ZM99.76 17.8144C100.425 16.4059 101.023 15.0976 101.546 13.8894H108.37C106.327 18.927 104.122 23.5319 101.848 27.718C99.1757 32.6402 97.7019 35.231 95.5679 38.3258H88.75C87.7088 35.2265 87.1502 32.6402 86.2092 27.718C85.4093 23.5304 84.8311 18.927 84.5639 13.8894H91.3818C91.4774 15.0976 91.6125 16.4059 91.784 17.8144C91.9556 19.2184 92.1422 20.6481 92.338 22.087C92.5338 23.5259 92.7357 24.9252 92.9467 26.2882C93.1576 27.6512 93.3792 28.8897 93.6206 30.0068C94.255 28.8897 94.9198 27.6512 95.6089 26.2882C96.2979 24.9298 96.9976 23.5259 97.7019 22.087C98.4061 20.6481 99.0952 19.2229 99.76 17.8144Z" fill="#414652"/>
</g>
<defs>
<clipPath id="clip0_726_28061">
<rect width="108.889" height="40" fill="white"/>
</clipPath>
</defs>
</svg>
