<svg width="32" height="32" viewBox="0 0 32 32" fill="none" xmlns="http://www.w3.org/2000/svg">
<g clip-path="url(#clip0_726_28064)">
<path fill-rule="evenodd" clip-rule="evenodd" d="M8.83065 0H23.169C28.0386 0 32.0002 3.96162 32 8.83084V23.1692C32 28.0384 28.0386 32 23.169 32H8.83065C3.96143 32 0 28.0386 0 23.1692V8.83084C0 3.96162 3.96143 0 8.83065 0ZM23.1687 29.1608C26.4725 29.1608 29.1605 26.4731 29.1605 23.1692H29.1603V8.83088C29.1603 5.52719 26.4723 2.83923 23.1685 2.83923H8.83016C5.52647 2.83923 2.8387 5.52719 2.8387 8.83088V23.1692C2.8387 26.4731 5.52647 29.161 8.83016 29.1608H23.1687ZM7.61957 16.0002C7.61957 11.3787 11.3792 7.61902 16.0005 7.61902C20.6218 7.61902 24.3815 11.3787 24.3815 16.0002C24.3815 20.6214 20.6218 24.3809 16.0005 24.3809C11.3792 24.3809 7.61957 20.6214 7.61957 16.0002ZM10.5048 15.9999C10.5048 19.0299 12.97 21.4948 15.9999 21.4948C19.0298 21.4948 21.4951 19.0299 21.4951 15.9999C21.4951 12.9697 19.03 10.5046 15.9999 10.5046C12.9698 10.5046 10.5048 12.9697 10.5048 15.9999ZM23.4162 5.89095C23.7696 5.53597 24.2612 5.33337 24.7616 5.33337C25.2638 5.33337 25.7556 5.53597 26.1088 5.89095C26.4638 6.2442 26.6664 6.73597 26.6664 7.23814C26.6664 7.73857 26.4638 8.23034 26.1088 8.58532C25.7538 8.93857 25.2638 9.1429 24.7616 9.1429C24.2612 9.1429 23.7694 8.93857 23.4162 8.58532C23.0612 8.23034 22.8569 7.73874 22.8569 7.23814C22.8569 6.73597 23.061 6.2442 23.4162 5.89095Z" fill="#414652" fill-opacity="0.8"/>
</g>
<defs>
<clipPath id="clip0_726_28064">
<rect width="32" height="32" fill="white"/>
</clipPath>
</defs>
</svg>
