<svg width="32" height="32" viewBox="0 0 32 32" fill="none" xmlns="http://www.w3.org/2000/svg">
<path d="M1.18451 6.93331H5.9266C6.58082 6.93331 7.11111 6.50349 7.11111 5.97322V2.56006C7.11111 2.0298 6.58082 1.59998 5.9266 1.59998H1.18451C0.530227 1.59998 0 2.0298 0 2.56006V5.97322C0 6.50349 0.530227 6.93331 1.18451 6.93331Z" fill="#414652" fill-opacity="0.8"/>
<path d="M1.18451 30.0444H5.9266C6.58082 30.0444 7.11111 29.5954 7.11111 29.0415V11.4918C7.11111 10.9378 6.58082 10.4889 5.9266 10.4889H1.18451C0.530227 10.4889 0 10.9378 0 11.4918V29.0415C0 29.5953 0.530227 30.0444 1.18451 30.0444Z" fill="#414652" fill-opacity="0.8"/>
<path d="M27.8788 9.47401C29.0103 9.98286 29.866 10.632 30.4463 11.4215C31.0269 12.2113 31.4311 13.1072 31.6586 14.1093C31.8861 15.1114 32 16.5464 32 18.4139V28.9783C32 29.567 31.5382 30.0444 30.9685 30.0444H26.8389C26.2691 30.0444 25.8074 29.567 25.8074 28.9783V21.1016C25.8074 18.4898 25.6752 16.8007 25.4106 16.0338C25.1462 15.2669 24.7164 14.6712 24.1213 14.246C23.5261 13.8207 22.8098 13.6081 21.9724 13.6081C20.8997 13.6081 19.9375 13.9119 19.0852 14.5193C18.2331 15.1267 17.6489 15.9313 17.3332 16.9334C17.0173 17.9355 16.8594 19.788 16.8594 22.4908V28.9783C16.8594 29.5671 16.3977 30.0444 15.8279 30.0444H11.6982C11.1285 30.0444 10.6667 29.5671 10.6667 28.9783V10.3238C10.6667 9.73497 11.1284 9.25777 11.6982 9.25777H15.3872C15.9569 9.25777 16.4188 9.73497 16.4188 10.3238V11.745C16.4188 12.3338 16.6975 12.429 17.0809 11.9936C19.0079 9.80511 21.3583 8.71109 24.1321 8.71109C25.4985 8.71109 26.7474 8.96551 27.8788 9.47401Z" fill="#414652" fill-opacity="0.8"/>
</svg>
