<svg width="32" height="32" viewBox="0 0 32 32" fill="none" xmlns="http://www.w3.org/2000/svg">
<path fill-rule="evenodd" clip-rule="evenodd" d="M30.2553 6.33532C30.7522 6.83789 31.1102 7.46336 31.2938 8.14943C32.3507 12.4524 32.1065 19.2482 31.3143 23.7172C31.1308 24.4033 30.7727 25.0287 30.2758 25.5313C29.7789 26.0339 29.1605 26.396 28.4822 26.5817C25.9989 27.2666 16.0043 27.2666 16.0043 27.2666C16.0043 27.2666 6.00974 27.2666 3.52648 26.5817C2.84815 26.396 2.22975 26.0339 1.73285 25.5313C1.23595 25.0287 0.877891 24.4033 0.694338 23.7172C-0.368741 19.4329 -0.077318 12.6329 0.673816 8.17018C0.857369 7.48411 1.21542 6.85865 1.71232 6.35608C2.20923 5.8535 2.82763 5.49136 3.50596 5.30571C5.98921 4.62073 15.9838 4.59998 15.9838 4.59998C15.9838 4.59998 25.9784 4.59998 28.4617 5.28496C29.14 5.47061 29.7584 5.83275 30.2553 6.33532ZM21.094 15.9334L12.8028 20.7905V11.0762L21.094 15.9334Z" fill="#414652" fill-opacity="0.8"/>
</svg>
