<svg xmlns="http://www.w3.org/2000/svg" width="41" height="41"><g fill="none" fill-rule="evenodd"><circle cx="20" cy="20" r="20" fill="#333"/><g transform="translate(5 5)"><rect width="30" height="30" rx="3.73"/><path fill="#FFF" fill-rule="nonzero" d="M4.583 23.75h3.334c.46 0 .833-.316.833-.705v-12.34c0-.39-.373-.705-.833-.705H4.583c-.46 0-.833.316-.833.705v12.34c0 .39.373.705.833.705zm0-16.25h3.334c.46 0 .833-.302.833-.675v-2.4c0-.373-.373-.675-.833-.675H4.583c-.46 0-.833.302-.833.675v2.4c0 .373.373.675.833.675zm20.575 3.156c-.409-.555-1.01-1.012-1.806-1.37-.795-.357-1.673-.536-2.634-.536-1.95 0-3.603.77-4.958 2.308-.27.306-.466.24-.466-.175v-1a.737.737 0 00-.725-.749h-2.594c-.4 0-.725.336-.725.75V23c0 .414.325.75.725.75h2.904c.4 0 .725-.336.725-.75v-4.56c0-1.9.111-3.203.333-3.908a3.221 3.221 0 011.232-1.697c.6-.427 1.276-.64 2.03-.64.59 0 1.093.149 1.511.448.419.299.72.718.907 1.257.186.539.279 1.727.279 3.563V23c0 .414.324.75.725.75h2.904c.4 0 .725-.336.725-.75v-7.428c0-1.313-.08-2.322-.24-3.026a5.032 5.032 0 00-.852-1.89z"/></g></g></svg>