<svg width="12" height="16" viewBox="0 0 12 16" fill="none" xmlns="http://www.w3.org/2000/svg">
<path d="M11.5385 14C11.7934 14 12 14.2239 12 14.5C12 14.7761 11.7934 15 11.5385 15H0.461539C0.206638 15 0 14.7761 0 14.5C0 14.2239 0.206638 14 0.461539 14H11.5385ZM11.5385 9.5C11.7934 9.5 12 9.72386 12 10C12 10.2761 11.7934 10.5 11.5385 10.5H0.461539C0.206638 10.5 0 10.2761 0 10C0 9.72386 0.206638 9.5 0.461539 9.5H11.5385ZM11.5385 5C11.7934 5 12 5.22386 12 5.5C12 5.77614 11.7934 6 11.5385 6H0.461539C0.206638 6 0 5.77614 0 5.5C0 5.22386 0.206638 5 0.461539 5H11.5385Z" fill="#414652"/>
</svg>
