<svg width="32" height="32" viewBox="0 0 32 32" fill="none" xmlns="http://www.w3.org/2000/svg">
<g clip-path="url(#clip0_3594_25096)">
<g filter="url(#filter0_f_3594_25096)">
<path d="M9.56049 25.8142L9.99336 26.0706C11.8114 27.1496 13.896 27.7203 16.0218 27.7213H16.0263C22.5546 27.7213 27.8676 22.4096 27.8703 15.881C27.8715 12.7173 26.6407 9.74226 24.4044 7.50434C23.3076 6.40067 22.0028 5.5255 20.5655 4.92949C19.1282 4.33349 17.5869 4.02849 16.0309 4.03214C9.49754 4.03214 4.18434 9.34329 4.18202 15.8715C4.1788 18.1007 4.80656 20.2853 5.99272 22.1727L6.27453 22.6205L5.07778 26.9894L9.56049 25.8142ZM1.65625 30.374L3.67807 22.9923C2.43116 20.8321 1.77517 18.3813 1.77594 15.8705C1.77924 8.01584 8.17142 1.62573 16.0265 1.62573C19.8383 1.62767 23.4161 3.11103 26.1069 5.80369C28.7977 8.49635 30.2781 12.0755 30.2768 15.8819C30.2733 23.736 23.8801 30.1273 16.0263 30.1273H16.0201C13.6353 30.1263 11.292 29.5281 9.21051 28.3931L1.65625 30.374Z" fill="#B3B3B3"/>
</g>
<path d="M1.50781 30.2273L3.52963 22.8456C2.28058 20.6801 1.62449 18.2236 1.62751 15.7238C1.6308 7.86911 8.02298 1.479 15.878 1.479C19.6898 1.48094 23.2677 2.9643 25.9584 5.65696C28.6492 8.34962 30.1297 11.9287 30.1283 15.7352C30.1249 23.5893 23.7317 29.9806 15.8778 29.9806H15.8716C13.4869 29.9796 11.1435 29.3813 9.06207 28.2464L1.50781 30.2273Z" fill="white"/>
<path d="M15.8841 3.88553C9.35069 3.88553 4.03749 9.19668 4.03517 15.7249C4.03195 17.9541 4.65971 20.1387 5.84587 22.0261L6.12768 22.4741L4.93093 26.843L9.41383 25.6676L9.8467 25.924C11.6648 27.0029 13.7493 27.5735 15.8752 27.5747H15.8796C22.408 27.5747 27.7211 22.2629 27.7237 15.7344C27.7286 14.1783 27.4248 12.6367 26.8299 11.1989C26.235 9.761 25.3607 8.45543 24.2578 7.35773C23.161 6.25403 21.8561 5.37885 20.4187 4.78284C18.9814 4.18684 17.4401 3.88185 15.8841 3.88553Z" fill="url(#paint0_linear_3594_25096)"/>
<path fill-rule="evenodd" clip-rule="evenodd" d="M12.3182 9.76846C12.0513 9.17562 11.7705 9.16361 11.5169 9.15335L10.8344 9.14502C10.597 9.14502 10.2112 9.23411 9.885 9.59047C9.55884 9.94683 8.63867 10.8081 8.63867 12.5599C8.63867 14.3117 9.91463 16.0044 10.0924 16.2422C10.2702 16.4801 12.5556 20.1895 16.1749 21.6167C19.1826 22.8028 19.7946 22.5669 20.4477 22.5076C21.1008 22.4483 22.5543 21.6463 22.8508 20.8149C23.1474 19.9834 23.1476 19.2711 23.0587 19.1222C22.9698 18.9732 22.7323 18.8847 22.3759 18.7065C22.0196 18.5284 20.2693 17.6671 19.9429 17.5482C19.6166 17.4293 19.3793 17.3702 19.1417 17.7266C18.904 18.0829 18.2225 18.8845 18.0147 19.1222C17.8069 19.3598 17.5994 19.3896 17.2431 19.2117C16.8867 19.0337 15.7401 18.6575 14.3797 17.4446C13.3213 16.5008 12.6068 15.3353 12.3988 14.9791C12.1907 14.6229 12.3767 14.43 12.5553 14.2526C12.715 14.093 12.9112 13.8368 13.0896 13.629C13.268 13.4212 13.3267 13.2726 13.4452 13.0354C13.5637 12.7981 13.5047 12.5897 13.4156 12.4117C13.3265 12.2337 12.6347 10.4727 12.3182 9.76846Z" fill="white"/>
</g>
<defs>
<filter id="filter0_f_3594_25096" x="0.288504" y="0.257986" width="31.3566" height="31.4838" filterUnits="userSpaceOnUse" color-interpolation-filters="sRGB">
<feFlood flood-opacity="0" result="BackgroundImageFix"/>
<feBlend mode="normal" in="SourceGraphic" in2="BackgroundImageFix" result="shape"/>
<feGaussianBlur stdDeviation="0.683873" result="effect1_foregroundBlur_3594_25096"/>
</filter>
<linearGradient id="paint0_linear_3594_25096" x1="15.6383" y1="5.3071" x2="15.7584" y2="25.551" gradientUnits="userSpaceOnUse">
<stop stop-color="#57D163"/>
<stop offset="1" stop-color="#23B33A"/>
</linearGradient>
<clipPath id="clip0_3594_25096">
<rect width="32" height="32" fill="white"/>
</clipPath>
</defs>
</svg>
