<svg width="32" height="32" viewBox="0 0 32 32" fill="none" xmlns="http://www.w3.org/2000/svg">
<rect width="32" height="32" fill="white"/>
<g clip-path="url(#clip0_3594_25066)">
<path d="M28.8 9.4H22.4V11H28.8C29.682 11 30.4 11.718 30.4 12.6V22.2C30.4 23.082 29.682 23.8 28.8 23.8H25.6V26.2785L21.22 23.8H16C15.118 23.8 14.4 23.082 14.4 22.2V20.6H12.8V22.199C12.8 23.9615 14.2375 25.354 15.955 25.354L20.8 25.4L26.245 28.4815C26.355 28.565 26.48 28.6 26.6 28.6C26.915 28.6 27.2 28.355 27.2 28V25.3985H28.8C30.5625 25.3985 32 23.961 32 22.2435V12.555C32 10.835 30.565 9.4 28.8 9.4ZM20.8 15.8V6.155C20.8 4.4375 19.365 3 17.6 3H3.2C1.4375 3 0 4.4375 0 6.155V15.755C0 17.565 1.4375 19 3.2 19H4.8V21.6C4.8 21.955 5.09 22.2 5.4 22.2C5.519 22.2 5.644 22.1625 5.756 22.081L11.2 19L17.6 18.996C19.365 18.995 20.8 17.565 20.8 15.8ZM10.78 17.4L6.4 19.88V17.4H3.2C2.318 17.4 1.6 16.68 1.6 15.8V6.2C1.6 5.318 2.318 4.6 3.2 4.6H17.6C18.482 4.6 19.2 5.318 19.2 6.2V15.8C19.2 16.682 18.482 17.4 17.6 17.4H10.78Z" fill="#414652" fill-opacity="0.72"/>
<path d="M15.2741 8.83105H4.26765C3.92065 8.83105 3.63965 9.11355 3.63965 9.45905C3.63965 9.80455 3.92065 10.0871 4.26765 10.0871H15.2741C15.6196 10.0871 15.9021 9.80455 15.9021 9.45905C15.9021 9.11355 15.6196 8.83105 15.2741 8.83105Z" fill="#414652" fill-opacity="0.72"/>
<path d="M9.92115 11.972C9.92115 11.6265 9.63865 11.344 9.29315 11.344H4.26765C3.92065 11.344 3.63965 11.6265 3.63965 11.972C3.63965 12.3175 3.92065 12.6 4.26765 12.6H9.29315C9.63865 12.6 9.92115 12.3175 9.92115 11.972Z" fill="#414652" fill-opacity="0.72"/>
</g>
<defs>
<clipPath id="clip0_3594_25066">
<rect width="32" height="25.6" fill="white" transform="translate(0 3)"/>
</clipPath>
</defs>
</svg>
