<svg xmlns="http://www.w3.org/2000/svg" width="32" height="32"><path fill="#85ACB0" d="M29 10l.176.005A3 3 0 0132 13v16l-.006.114c-.087.814-1.099 1.196-1.701.593L26.586 26H11l-.176-.005A3 3 0 018 23v-3h2v3l.007.117A1 1 0 0011 24h16l.131.009c.217.028.42.128.576.284L30 26.584V13l-.007-.117A1 1 0 0029 12h-3v-2h3zm-8-8a3 3 0 013 3v10a3 3 0 01-3 3H5.414l-3.707 3.707c-.602.603-1.614.22-1.701-.593L0 21V5a3 3 0 013-3zm0 2H3a1 1 0 00-1 1v13.584l2.293-2.291a.996.996 0 01.576-.284L5 16h16a1 1 0 001-1V5a1 1 0 00-1-1zm-10 6a1 1 0 01.117 1.993L11 12H7a1 1 0 01-.117-1.993L7 10h4zm6-4a1 1 0 01.117 1.993L17 8H7a1 1 0 01-.117-1.993L7 6h10z"/></svg>