<svg width="32" height="32" viewBox="0 0 32 32" fill="none" xmlns="http://www.w3.org/2000/svg">
<rect width="32" height="32" fill="white"/>
<g clip-path="url(#clip0_3594_25067)">
<path d="M20.8 15.8V6.155C20.8 4.4375 19.365 3 17.6 3H3.2C1.4375 3 0 4.4375 0 6.155V15.755C0 17.565 1.4375 19 3.2 19H4.8V21.6C4.8 21.955 5.09 22.2 5.4 22.2C5.519 22.2 5.644 22.1625 5.756 22.081L11.2 19L17.6 18.996C19.365 18.9945 20.8 17.565 20.8 15.8Z" fill="#FF444F"/>
<path d="M28.7998 9.3999H22.3998V10.9999H28.7998C29.6818 10.9999 30.3998 11.7179 30.3998 12.5999V22.1999C30.3998 23.0819 29.6818 23.7999 28.7998 23.7999H25.5998V26.2784L21.2198 23.7999H15.9998C15.1178 23.7999 14.3998 23.0819 14.3998 22.1999V20.5999H12.7998V22.1989C12.7998 23.9614 14.2373 25.3539 15.9548 25.3539L20.7998 25.3999L26.2448 28.4814C26.3548 28.5649 26.4798 28.5999 26.5998 28.5999C26.9148 28.5999 27.1998 28.3549 27.1998 27.9999V25.3984H28.7998C30.5623 25.3984 31.9998 23.9609 31.9998 22.2434V12.5549C31.9998 10.8349 30.5648 9.3999 28.7998 9.3999Z" fill="#FF444F"/>
<path d="M15.2741 8.83105H4.26765C3.92065 8.83105 3.63965 9.11355 3.63965 9.45905C3.63965 9.80455 3.92065 10.0871 4.26765 10.0871H15.2741C15.6196 10.0871 15.9021 9.80455 15.9021 9.45905C15.9021 9.11355 15.6196 8.83105 15.2741 8.83105Z" fill="white"/>
<path d="M9.92115 11.972C9.92115 11.6265 9.63865 11.344 9.29315 11.344H4.26765C3.92065 11.344 3.63965 11.6265 3.63965 11.972C3.63965 12.3175 3.92065 12.6 4.26765 12.6H9.29315C9.63865 12.6 9.92115 12.3175 9.92115 11.972Z" fill="white"/>
</g>
<defs>
<clipPath id="clip0_3594_25067">
<rect width="32" height="25.6" fill="white" transform="translate(0 3)"/>
</clipPath>
</defs>
</svg>
