<?xml version="1.0" encoding="UTF-8"?>
<svg fill="none" viewBox="0 0 97 32" xmlns="http://www.w3.org/2000/svg">
<path d="m19.321 1.0094-1.6511 9.3599h-5.7314c-5.347 0-10.444 4.3305-11.388 9.6754l-0.39983 2.275c-0.94021 5.345 2.6274 9.6755 7.9744 9.6755h4.7802c3.8971 0 7.6097-3.1535 8.2951-7.049l4.4023-24.946-6.2815 1.0094zm-4.0667 23.054c-0.2109 1.2034-1.2947 2.1829-2.4986 2.1829h-2.9041c-2.4033 0-4.0113-1.9501-3.5896-4.3569l0.25045-1.4186c0.42616-2.4024 2.7196-4.3568 5.123-4.3568h5.0211l-1.4022 7.9494zm48.206 7.9314 3.7609-21.327h5.9488l-3.7609 21.327h-5.9488zm0.6434-21.081c-0.2982 1.6916-0.5976 3.3833-0.8958 5.0749-2.8183-0.8754-5.7261-0.5966-6.6194-0.4186-0.9648 5.4764-1.9308 10.954-2.8969 16.43h-5.9528c0.8083-4.5821 3.5701-20.231 3.5701-20.231 1.9361-0.8015 6.6907-2.428 12.795-0.8558zm-24.12-0.5477h-4.6308c-4.5122 0-8.8133 3.6541-9.6087 8.1645l-0.9358 5.3011c-0.7953 4.5105 2.2144 8.1646 6.7267 8.1646h9.8503l1.0106-5.7314h-9.2575c-1.5025 0-2.5087-1.2166-2.2406-2.7231l0.0308-0.18h14.925l0.8523-4.8312c0.7951-4.5104-2.2144-8.1645-6.7266-8.1645h0.0043zm0.7514 7.7078-0.0352 0.3074h-8.8749l0.0484-0.2723c0.2678-1.502 1.6388-2.824 3.1456-2.824h3.4666c1.4894 0 2.4956 1.3 2.2495 2.7889zm49.693-7.406h5.9532c-2.028 5.3896-6.6754 14.558-11.177 21.327h-5.9532c-2.0665-6.4429-3.401-15.42-3.6556-21.327h5.9534c0.1075 1.9269 0.9704 9.0741 1.9552 14.067 2.7011-4.8575 5.6789-11.231 6.9197-14.067h0.0046z" fill="#FF444F"/>
</svg>
