<svg width="262" height="37" viewBox="0 0 262 37" fill="none" xmlns="http://www.w3.org/2000/svg">
<g clip-path="url(#clip0_214_7524)">
<path d="M6.33101 5.66699L16.1851 18.5003L0.390137 31.3337H16.3542C18.6167 31.3341 20.8131 30.5639 22.5839 29.1597C24.3547 27.7554 25.5958 25.7941 26.1048 23.5959L27.4265 17.8867C27.7651 16.4242 27.7683 14.9044 27.436 13.4405C27.1038 11.9766 26.4445 10.6063 25.5073 9.43182C24.5702 8.25729 23.3793 7.30876 22.0235 6.65691C20.6676 6.00505 19.1817 5.66668 17.6765 5.66699H6.33101Z" fill="url(#paint0_linear_214_7524)"/>
<path d="M16.1851 18.5L9.16514 31.3333H0.390137L16.1851 18.5Z" fill="#CC2E3D"/>
<path fill-rule="evenodd" clip-rule="evenodd" d="M39.6405 5.66699H49.6843C57.7778 5.66699 62.39 11.2037 61.1123 18.4254L61.099 18.4986C59.8212 25.7219 53.2369 31.3321 45.1434 31.3321H35.1001L39.6405 5.66699ZM46.045 26.2369C48.237 26.2724 50.368 25.5161 52.0441 24.1075C53.7202 22.699 54.8281 20.7334 55.1633 18.574L55.1762 18.5005C55.9806 13.9522 53.4176 10.7626 48.7823 10.7626H44.4046L41.6672 26.2357L46.045 26.2369Z" fill="white"/>
<path d="M68.5712 5.66699H88.1797L87.2911 10.6902H73.3114L72.39 15.8971H81.2937L80.4039 20.9203H71.5014L70.5479 26.3104H84.5275L83.6389 31.3337H64.0303L68.5712 5.66699Z" fill="white"/>
<path d="M113.384 14.2105C112.651 18.355 109.946 20.9569 106.458 22.167L111.127 31.3325H104.505L98.3409 18.1325H102.61C105.368 18.1325 107.21 16.6657 107.593 14.5026L107.606 14.4291C108.034 12.0093 106.562 10.7626 103.803 10.7626H98.1743L94.5353 31.3337H88.8697L93.4106 5.66699H105.183C108.457 5.66699 110.834 6.58381 112.226 8.27042C113.409 9.7003 113.826 11.7171 113.397 14.137L113.384 14.2105Z" fill="white"/>
<path d="M120.112 5.66699H125.778L121.237 31.3337H115.572L120.112 5.66699Z" fill="white"/>
<path d="M136.569 5.66699H130.359L136.154 31.3337H141.122L156 5.66699H149.936L140.077 23.6156L136.569 5.66699Z" fill="white"/>
</g>
<rect x="164" y="5" width="1" height="27" fill="white"/>
<path d="M179.936 27.788C178.576 27.788 177.416 27.532 176.456 27.02C175.496 26.492 174.68 25.772 174.008 24.86L175.496 23.612C176.088 24.396 176.744 24.996 177.464 25.412C178.184 25.812 179.032 26.012 180.008 26.012C181.208 26.012 182.12 25.724 182.744 25.148C183.384 24.572 183.704 23.804 183.704 22.844C183.704 22.044 183.464 21.428 182.984 20.996C182.504 20.564 181.712 20.22 180.608 19.964L179.24 19.652C177.704 19.3 176.528 18.772 175.712 18.068C174.912 17.348 174.512 16.34 174.512 15.044C174.512 14.308 174.648 13.652 174.92 13.076C175.192 12.5 175.568 12.02 176.048 11.636C176.544 11.252 177.128 10.964 177.8 10.772C178.488 10.564 179.24 10.46 180.056 10.46C181.32 10.46 182.4 10.692 183.296 11.156C184.208 11.62 184.976 12.3 185.6 13.196L184.088 14.3C183.624 13.66 183.064 13.156 182.408 12.788C181.752 12.42 180.936 12.236 179.96 12.236C178.888 12.236 178.04 12.468 177.416 12.932C176.808 13.38 176.504 14.06 176.504 14.972C176.504 15.772 176.76 16.38 177.272 16.796C177.8 17.196 178.592 17.516 179.648 17.756L181.016 18.068C182.664 18.436 183.856 18.996 184.592 19.748C185.328 20.5 185.696 21.5 185.696 22.748C185.696 23.516 185.56 24.212 185.288 24.836C185.032 25.46 184.656 25.988 184.16 26.42C183.664 26.852 183.056 27.188 182.336 27.428C181.632 27.668 180.832 27.788 179.936 27.788ZM193.641 27.788C192.793 27.788 192.025 27.636 191.337 27.332C190.665 27.028 190.081 26.596 189.585 26.036C189.105 25.46 188.729 24.78 188.457 23.996C188.201 23.196 188.073 22.3 188.073 21.308C188.073 20.332 188.201 19.444 188.457 18.644C188.729 17.844 189.105 17.164 189.585 16.604C190.081 16.028 190.665 15.588 191.337 15.284C192.025 14.98 192.793 14.828 193.641 14.828C194.473 14.828 195.217 14.98 195.873 15.284C196.529 15.588 197.089 16.012 197.553 16.556C198.017 17.084 198.369 17.716 198.609 18.452C198.865 19.188 198.993 19.996 198.993 20.876V21.788H190.089V22.364C190.089 22.892 190.169 23.388 190.329 23.852C190.505 24.3 190.745 24.692 191.049 25.028C191.369 25.364 191.753 25.628 192.201 25.82C192.665 26.012 193.185 26.108 193.761 26.108C194.545 26.108 195.225 25.924 195.801 25.556C196.393 25.188 196.849 24.66 197.169 23.972L198.537 24.956C198.137 25.804 197.513 26.492 196.665 27.02C195.817 27.532 194.809 27.788 193.641 27.788ZM193.641 16.436C193.113 16.436 192.633 16.532 192.201 16.724C191.769 16.9 191.393 17.156 191.073 17.492C190.769 17.828 190.529 18.228 190.353 18.692C190.177 19.14 190.089 19.636 190.089 20.18V20.348H196.929V20.084C196.929 18.98 196.625 18.1 196.017 17.444C195.425 16.772 194.633 16.436 193.641 16.436ZM206.765 27.788C205.901 27.788 205.125 27.636 204.437 27.332C203.749 27.028 203.165 26.596 202.685 26.036C202.221 25.476 201.861 24.796 201.605 23.996C201.365 23.196 201.245 22.3 201.245 21.308C201.245 20.316 201.365 19.42 201.605 18.62C201.861 17.82 202.221 17.14 202.685 16.58C203.165 16.02 203.749 15.588 204.437 15.284C205.125 14.98 205.901 14.828 206.765 14.828C207.997 14.828 208.981 15.1 209.717 15.644C210.469 16.172 211.029 16.868 211.397 17.732L209.789 18.548C209.565 17.908 209.197 17.412 208.685 17.06C208.173 16.708 207.533 16.532 206.765 16.532C206.189 16.532 205.685 16.628 205.253 16.82C204.821 16.996 204.461 17.252 204.173 17.588C203.885 17.908 203.669 18.3 203.525 18.764C203.381 19.212 203.309 19.708 203.309 20.252V22.364C203.309 23.452 203.597 24.348 204.173 25.052C204.765 25.74 205.629 26.084 206.765 26.084C208.317 26.084 209.437 25.364 210.125 23.924L211.517 24.86C211.117 25.756 210.517 26.468 209.717 26.996C208.933 27.524 207.949 27.788 206.765 27.788ZM221.86 25.484H221.764C221.636 25.772 221.476 26.06 221.284 26.348C221.108 26.62 220.884 26.868 220.612 27.092C220.34 27.3 220.012 27.468 219.628 27.596C219.244 27.724 218.796 27.788 218.284 27.788C217.004 27.788 215.988 27.38 215.236 26.564C214.484 25.732 214.108 24.564 214.108 23.06V15.116H216.028V22.724C216.028 24.948 216.972 26.06 218.86 26.06C219.244 26.06 219.612 26.012 219.964 25.916C220.332 25.82 220.652 25.676 220.924 25.484C221.212 25.292 221.436 25.052 221.596 24.764C221.772 24.46 221.86 24.1 221.86 23.684V15.116H223.78V27.5H221.86V25.484ZM227.868 27.5V15.116H229.788V17.396H229.908C230.132 16.804 230.532 16.276 231.108 15.812C231.684 15.348 232.476 15.116 233.484 15.116H234.228V17.036H233.1C232.06 17.036 231.244 17.236 230.652 17.636C230.076 18.02 229.788 18.508 229.788 19.1V27.5H227.868ZM237.641 12.212C237.225 12.212 236.921 12.116 236.729 11.924C236.553 11.716 236.465 11.452 236.465 11.132V10.82C236.465 10.5 236.553 10.244 236.729 10.052C236.921 9.844 237.225 9.74 237.641 9.74C238.057 9.74 238.353 9.844 238.529 10.052C238.721 10.244 238.817 10.5 238.817 10.82V11.132C238.817 11.452 238.721 11.716 238.529 11.924C238.353 12.116 238.057 12.212 237.641 12.212ZM236.681 15.116H238.601V27.5H236.681V15.116ZM245.417 27.5C244.745 27.5 244.233 27.316 243.881 26.948C243.545 26.564 243.377 26.068 243.377 25.46V16.796H241.337V15.116H242.489C242.905 15.116 243.185 15.036 243.329 14.876C243.489 14.7 243.569 14.404 243.569 13.988V11.684H245.297V15.116H248.009V16.796H245.297V25.82H247.817V27.5H245.417ZM258.727 15.116H260.623L255.079 30.38C254.935 30.748 254.791 31.052 254.647 31.292C254.503 31.548 254.327 31.748 254.119 31.892C253.911 32.036 253.647 32.14 253.327 32.204C253.023 32.268 252.647 32.3 252.199 32.3H251.215V30.62H253.159L254.095 27.98L249.463 15.116H251.383L254.359 23.54L254.935 25.556H255.055L255.727 23.54L258.727 15.116Z" fill="white"/>
<defs>
<linearGradient id="paint0_linear_214_7524" x1="17.6344" y1="1.24455" x2="12.5359" y2="33.4969" gradientUnits="userSpaceOnUse">
<stop stop-color="#FF6444"/>
<stop offset="1" stop-color="#FF444F"/>
</linearGradient>
<clipPath id="clip0_214_7524">
<rect width="156" height="28" fill="white" transform="translate(0 4.5)"/>
</clipPath>
</defs>
</svg>
