<svg width="16" height="16" viewBox="0 0 16 16" fill="none" xmlns="http://www.w3.org/2000/svg">
<path d="M3.85355 3.14645L8 7.293L12.1464 3.14645C12.3417 2.95118 12.6583 2.95118 12.8536 3.14645C13.0488 3.34171 13.0488 3.65829 12.8536 3.85355L8.707 8L12.8536 12.1464C13.0488 12.3417 13.0488 12.6583 12.8536 12.8536C12.6583 13.0488 12.3417 13.0488 12.1464 12.8536L8 8.707L3.85355 12.8536C3.65829 13.0488 3.34171 13.0488 3.14645 12.8536C2.95118 12.6583 2.95118 12.3417 3.14645 12.1464L7.293 8L3.14645 3.85355C2.95118 3.65829 2.95118 3.34171 3.14645 3.14645C3.34171 2.95118 3.65829 2.95118 3.85355 3.14645Z" fill="#333333"/>
</svg>
