<svg width="32" height="32" viewBox="0 0 32 32" fill="none" xmlns="http://www.w3.org/2000/svg">
<g clip-path="url(#clip0_3594_25085)">
<g filter="url(#filter0_f_3594_25085)">
<path d="M9.55658 25.8144L9.98945 26.0708C11.8075 27.1498 13.8921 27.7206 16.0179 27.7215H16.0224C22.5507 27.7215 27.8637 22.4098 27.8664 15.8812C27.8676 12.7175 26.6367 9.7425 24.4005 7.50459C23.3037 6.40091 21.9989 5.52574 20.5616 4.92974C19.1243 4.33373 17.583 4.02873 16.027 4.03239C9.49363 4.03239 4.18044 9.34353 4.17811 15.8717C4.17489 18.1009 4.80265 20.2855 5.98882 22.1729L6.27062 22.6207L5.07388 26.9896L9.55658 25.8144ZM1.65234 30.3743L3.67416 22.9926C2.42725 20.8323 1.77126 18.3816 1.77204 15.8708C1.77533 8.01608 8.16751 1.62598 16.0226 1.62598C19.8344 1.62791 23.4122 3.11127 26.103 5.80393C28.7938 8.49659 30.2742 12.0757 30.2729 15.8822C30.2694 23.7363 23.8762 30.1276 16.0224 30.1276H16.0162C13.6314 30.1266 11.2881 29.5283 9.2066 28.3934L1.65234 30.3743Z" fill="#B3B3B3"/>
</g>
<path d="M1.50586 30.2276L3.52768 22.8458C2.27862 20.6804 1.62254 18.2239 1.62555 15.724C1.62885 7.86935 8.02103 1.47925 15.8761 1.47925C19.6879 1.48118 23.2657 2.96454 25.9565 5.6572C28.6473 8.34986 30.1278 11.929 30.1264 15.7355C30.1229 23.5896 23.7298 29.9808 15.8759 29.9808H15.8697C13.4849 29.9799 11.1416 29.3816 9.06012 28.2467L1.50586 30.2276Z" fill="url(#paint0_linear_3594_25085)"/>
<path d="M15.8821 3.88553C9.34874 3.88553 4.03554 9.19667 4.03322 15.7249C4.03 17.9541 4.65776 20.1387 5.84392 22.0261L6.12572 22.4741L4.92898 26.843L9.41188 25.6676L9.84475 25.924C11.6628 27.0029 13.7474 27.5735 15.8732 27.5747H15.8777C22.406 27.5747 27.7192 22.2629 27.7217 15.7344C27.7266 14.1783 27.4229 12.6367 26.8279 11.1989C26.233 9.761 25.3588 8.45543 24.2558 7.35773C23.159 6.25403 21.8541 5.37885 20.4168 4.78284C18.9794 4.18684 17.4381 3.88185 15.8821 3.88553Z" fill="white"/>
<path fill-rule="evenodd" clip-rule="evenodd" d="M12.3162 9.76846C12.0493 9.17562 11.7685 9.16361 11.515 9.15335L10.8325 9.14502C10.595 9.14502 10.2092 9.23411 9.88304 9.59047C9.55689 9.94683 8.63672 10.8081 8.63672 12.5599C8.63672 14.3117 9.91268 16.0044 10.0905 16.2422C10.2683 16.4801 12.5537 20.1895 16.173 21.6167C19.1806 22.8028 19.7926 22.5669 20.4457 22.5076C21.0988 22.4483 22.5524 21.6463 22.8489 20.8149C23.1454 19.9834 23.1456 19.2711 23.0567 19.1222C22.9678 18.9732 22.7304 18.8847 22.374 18.7065C22.0176 18.5284 20.2673 17.6671 19.941 17.5482C19.6146 17.4293 19.3774 17.3702 19.1397 17.7266C18.9021 18.0829 18.2205 18.8845 18.0127 19.1222C17.8049 19.3598 17.5975 19.3896 17.2411 19.2117C16.8847 19.0337 15.7382 18.6576 14.3778 17.4446C13.3193 16.5008 12.6048 15.3353 12.3968 14.9791C12.1888 14.6229 12.3747 14.43 12.5533 14.2526C12.7131 14.093 12.9093 13.8368 13.0877 13.629C13.266 13.4212 13.3247 13.2726 13.4433 13.0354C13.5618 12.7981 13.5027 12.5897 13.4136 12.4117C13.3245 12.2337 12.6327 10.4727 12.3162 9.76846Z" fill="url(#paint1_linear_3594_25085)"/>
</g>
<defs>
<filter id="filter0_f_3594_25085" x="0.284597" y="0.25823" width="31.3566" height="31.4838" filterUnits="userSpaceOnUse" color-interpolation-filters="sRGB">
<feFlood flood-opacity="0" result="BackgroundImageFix"/>
<feBlend mode="normal" in="SourceGraphic" in2="BackgroundImageFix" result="shape"/>
<feGaussianBlur stdDeviation="0.683873" result="effect1_foregroundBlur_3594_25085"/>
</filter>
<linearGradient id="paint0_linear_3594_25085" x1="4.29689" y1="28.693" x2="22.8549" y2="4.30191" gradientUnits="userSpaceOnUse">
<stop stop-color="#24B43B"/>
<stop offset="1" stop-color="#4FCD5D"/>
</linearGradient>
<linearGradient id="paint1_linear_3594_25085" x1="9.07065" y1="22.8601" x2="22.8567" y2="8.54353" gradientUnits="userSpaceOnUse">
<stop stop-color="#28B63E"/>
<stop offset="1" stop-color="#52CE5F"/>
</linearGradient>
<clipPath id="clip0_3594_25085">
<rect width="32" height="32" fill="white"/>
</clipPath>
</defs>
</svg>
