<svg width="32" height="32" viewBox="0 0 32 32" fill="none" xmlns="http://www.w3.org/2000/svg">
<g clip-path="url(#clip0_3594_25085)">
<g filter="url(#filter0_f_3594_25085)">
<path d="M9.93739 25.237L10.3448 25.4784C12.0559 26.4939 14.0179 27.031 16.0187 27.032H16.0229C22.1673 27.032 27.1678 22.0327 27.1703 15.8881C27.1714 12.9106 26.013 10.1105 23.9083 8.00425C22.876 6.96549 21.6479 6.1418 20.2951 5.58086C18.9424 5.01991 17.4917 4.73285 16.0273 4.73629C9.87815 4.73629 4.87745 9.73502 4.87526 15.8792C4.87223 17.9773 5.46307 20.0333 6.57947 21.8098L6.8447 22.2312L5.71834 26.3431L9.93739 25.237ZM2.49805 29.5287L4.40095 22.5812C3.22738 20.548 2.60997 18.2414 2.6107 15.8783C2.6138 8.48565 8.63003 2.47144 16.0231 2.47144C19.6107 2.47326 22.9781 3.86936 25.5106 6.40363C28.0431 8.9379 29.4365 12.3065 29.4353 15.889C29.432 23.2811 23.4148 29.2964 16.0229 29.2964H16.0171C13.7725 29.2955 11.567 28.7325 9.608 27.6643L2.49805 29.5287Z" fill="#B3B3B3"/>
</g>
<path d="M2.35938 29.3907L4.26228 22.4432C3.08669 20.4051 2.46919 18.0932 2.47203 15.7403C2.47513 8.34771 8.49135 2.3335 15.8844 2.3335C19.472 2.33532 22.8394 3.73142 25.3719 6.26569C27.9045 8.79996 29.2979 12.1685 29.2966 15.7511C29.2933 23.1432 23.2762 29.1585 15.8842 29.1585H15.8784C13.6339 29.1576 11.4284 28.5945 9.46933 27.5264L2.35938 29.3907Z" fill="url(#paint0_linear_3594_25085)"/>
<path d="M15.8903 4.59818C9.74118 4.59818 4.74048 9.5969 4.73829 15.7411C4.73526 17.8391 5.3261 19.8952 6.4425 21.6716L6.70773 22.0933L5.58137 26.2052L9.80061 25.0989L10.208 25.3402C11.9192 26.3557 13.8811 26.8927 15.8819 26.8938H15.8861C22.0305 26.8938 27.0312 21.8946 27.0335 15.75C27.0382 14.2855 26.7523 12.8346 26.1923 11.4813C25.6324 10.128 24.8096 8.89925 23.7715 7.86613C22.7392 6.82735 21.5111 6.00365 20.1583 5.44271C18.8054 4.88176 17.3548 4.59471 15.8903 4.59818Z" fill="white"/>
<path fill-rule="evenodd" clip-rule="evenodd" d="M12.5334 10.1351C12.2822 9.57714 12.0179 9.56584 11.7793 9.55618L11.1369 9.54834C10.9134 9.54834 10.5503 9.63219 10.2433 9.96759C9.93636 10.303 9.07031 11.1136 9.07031 12.7623C9.07031 14.4111 10.2712 16.0042 10.4386 16.2281C10.6059 16.4519 12.7569 19.9432 16.1633 21.2864C18.9941 22.4027 19.5701 22.1807 20.1848 22.1249C20.7994 22.0691 22.1675 21.3143 22.4466 20.5318C22.7257 19.7492 22.7259 19.0788 22.6422 18.9386C22.5585 18.7984 22.335 18.7151 21.9996 18.5474C21.6642 18.3797 20.0169 17.5691 19.7097 17.4572C19.4026 17.3453 19.1793 17.2897 18.9556 17.6251C18.7319 17.9605 18.0905 18.7149 17.8949 18.9386C17.6993 19.1623 17.504 19.1903 17.1686 19.0228C16.8332 18.8553 15.7541 18.5013 14.4737 17.3597C13.4775 16.4714 12.805 15.3744 12.6092 15.0392C12.4135 14.704 12.5885 14.5225 12.7565 14.3555C12.9069 14.2053 13.0916 13.9641 13.2595 13.7685C13.4274 13.5729 13.4826 13.4331 13.5941 13.2098C13.7057 12.9865 13.6501 12.7904 13.5663 12.6229C13.4824 12.4554 12.8313 10.7979 12.5334 10.1351Z" fill="url(#paint1_linear_3594_25085)"/>
</g>
<defs>
<filter id="filter0_f_3594_25085" x="1.21075" y="1.18414" width="29.5121" height="29.6317" filterUnits="userSpaceOnUse" color-interpolation-filters="sRGB">
<feFlood flood-opacity="0" result="BackgroundImageFix"/>
<feBlend mode="normal" in="SourceGraphic" in2="BackgroundImageFix" result="shape"/>
<feGaussianBlur stdDeviation="0.643648" result="effect1_foregroundBlur_3594_25085"/>
</filter>
<linearGradient id="paint0_linear_3594_25085" x1="4.98625" y1="27.9465" x2="22.4526" y2="4.98997" gradientUnits="userSpaceOnUse">
<stop stop-color="#24B43B"/>
<stop offset="1" stop-color="#4FCD5D"/>
</linearGradient>
<linearGradient id="paint1_linear_3594_25085" x1="9.47872" y1="22.4567" x2="22.4538" y2="8.98212" gradientUnits="userSpaceOnUse">
<stop stop-color="#28B63E"/>
<stop offset="1" stop-color="#52CE5F"/>
</linearGradient>
<clipPath id="clip0_3594_25085">
<rect width="32" height="32" fill="white"/>
</clipPath>
</defs>
</svg>
