<svg width="32" height="32" viewBox="0 0 32 32" fill="none" xmlns="http://www.w3.org/2000/svg">
<g clip-path="url(#clip0_2103_207868)">
<path fill-rule="evenodd" clip-rule="evenodd" d="M27.3343 4.67391C24.3249 1.66452 20.3302 0.00726468 16.0686 0C7.28556 0 0.145294 7.14844 0.137121 15.9242C0.137121 18.7347 0.869945 21.4689 2.26022 23.8899L0 32L8.447 29.9305C10.7762 31.1982 13.3961 31.8701 16.0613 31.8701H16.0686C24.8443 31.8701 31.9927 24.7217 32 15.9387C32 11.6843 30.3437 7.6824 27.3343 4.67391Z" fill="#F2F2F2"/>
<path fill-rule="evenodd" clip-rule="evenodd" d="M16.0693 29.1818C13.6865 29.1818 11.3573 28.5398 9.32588 27.3338L8.8446 27.0432L3.83469 28.3572L5.17139 23.469L4.85811 22.965C3.52958 20.8574 2.83398 18.421 2.83398 15.9237C2.83398 8.62183 8.77558 2.6875 16.0775 2.6875C19.6136 2.6875 22.9353 4.06961 25.4408 6.56684C27.938 9.07224 29.3128 12.394 29.3128 15.9301C29.3056 23.2393 23.3631 29.1809 16.0693 29.1809V29.1818Z" fill="url(#paint0_linear_2103_207868)"/>
<path fill-rule="evenodd" clip-rule="evenodd" d="M23.3325 19.2611C22.9357 19.0623 20.9806 18.1006 20.6137 17.9626C20.2469 17.8327 19.9799 17.7637 19.7202 18.1614C19.4532 18.5583 18.6895 19.46 18.4598 19.7197C18.2309 19.9867 17.9939 20.0176 17.5971 19.8187C17.2003 19.6198 15.9171 19.2003 14.397 17.8409C13.2129 16.7866 12.4192 15.4808 12.1822 15.0839C11.9533 14.6871 12.1595 14.4728 12.3574 14.2748C12.5327 14.0996 12.7543 13.809 12.9531 13.5801C13.152 13.3513 13.2201 13.1833 13.35 12.9154C13.4798 12.6485 13.419 12.4187 13.3191 12.2207C13.2201 12.0219 12.4255 10.0595 12.0896 9.26493C11.769 8.48579 11.4403 8.59295 11.196 8.58477C10.9672 8.56934 10.6993 8.56934 10.4323 8.56934C10.1653 8.56934 9.73761 8.66832 9.37075 9.06606C9.00388 9.46289 7.98047 10.4255 7.98047 12.3887C7.98047 14.352 9.40889 16.2381 9.60685 16.5051C9.80572 16.7721 12.4101 20.7894 16.4039 22.5157C17.351 22.928 18.092 23.1722 18.6723 23.3557C19.6267 23.6608 20.4902 23.6154 21.1777 23.5164C21.9414 23.402 23.5296 22.5538 23.8665 21.6221C24.1952 20.6904 24.1952 19.8959 24.0953 19.7279C23.9964 19.5599 23.7285 19.4609 23.3316 19.262L23.3325 19.2611Z" fill="white"/>
</g>
<defs>
<linearGradient id="paint0_linear_2103_207868" x1="16.0739" y1="29.1818" x2="16.0739" y2="2.6875" gradientUnits="userSpaceOnUse">
<stop stop-color="#2FBB43"/>
<stop offset="1" stop-color="#4DCC5C"/>
</linearGradient>
<clipPath id="clip0_2103_207868">
<rect width="32" height="32" fill="white"/>
</clipPath>
</defs>
</svg>
