<svg width="32" height="32" viewBox="0 0 32 32" fill="none" xmlns="http://www.w3.org/2000/svg">
<path fill-rule="evenodd" clip-rule="evenodd" d="M27.3337 4.67399C24.3246 1.66492 20.3303 0.00763723 16.0687 0C7.28592 0 0.145106 7.14845 0.137469 15.9236C0.137469 18.7341 0.870642 21.4683 2.26062 23.8893L0 32L8.44678 29.9303C10.7761 31.1981 13.3957 31.8702 16.0611 31.8702H16.0687C24.8439 31.8702 31.9924 24.7217 32 15.9389C32 11.685 30.3427 7.68306 27.3337 4.67399ZM16.0687 29.1819C13.6859 29.1819 11.3566 28.5403 9.32506 27.3337L8.84391 27.0434L3.83389 28.357L5.1704 23.4692L4.85728 22.9652C3.5284 20.8573 2.83341 18.421 2.83341 15.9236C2.83341 8.62244 8.77518 2.68831 16.0764 2.68831C19.6124 2.68831 22.9346 4.07064 25.4396 6.56802C27.937 9.07303 29.3117 12.3952 29.3117 15.9313C29.3041 23.2401 23.3623 29.1819 16.0687 29.1819ZM23.3317 19.2611C22.9346 19.0625 20.9795 18.1002 20.6129 17.9628C20.2463 17.8329 19.979 17.7642 19.7193 18.1613C19.452 18.5585 18.6883 19.4597 18.4592 19.7193C18.2301 19.9866 17.9933 20.0172 17.5962 19.8186C17.199 19.6201 15.916 19.2 14.3962 17.8406C13.2124 16.7866 12.4181 15.4807 12.1814 15.0835C11.9523 14.6864 12.1585 14.4726 12.357 14.274C12.5327 14.0983 12.7542 13.8081 12.9527 13.579C13.1513 13.3499 13.22 13.1819 13.3499 12.9146C13.4797 12.6473 13.4186 12.4181 13.3193 12.2196C13.22 12.021 12.4258 10.0582 12.0897 9.26396C11.769 8.48497 11.4406 8.59189 11.1962 8.58425C10.9671 8.56897 10.6998 8.56898 10.4325 8.56898C10.1652 8.56898 9.73747 8.66826 9.37088 9.0654C9.0043 9.46253 7.98091 10.4248 7.98091 12.3876C7.98091 14.3504 9.40907 16.2368 9.60764 16.5041C9.8062 16.7714 12.4105 20.7885 16.4048 22.5146C17.3518 22.927 18.0926 23.1714 18.673 23.3547C19.6277 23.6601 20.4907 23.6143 21.178 23.515C21.9418 23.4005 23.5303 22.5527 23.8664 21.621C24.1948 20.6893 24.1947 19.895 24.0955 19.727C23.9962 19.559 23.7289 19.4597 23.3317 19.2611Z" fill="url(#paint0_linear_1985_200568)"/>
<defs>
<linearGradient id="paint0_linear_1985_200568" x1="16" y1="0" x2="16" y2="32" gradientUnits="userSpaceOnUse">
<stop stop-color="#2FBB43"/>
<stop offset="1" stop-color="#4DCC5C"/>
</linearGradient>
</defs>
</svg>
