<svg width="342" height="229" viewBox="0 0 342 229" fill="none" xmlns="http://www.w3.org/2000/svg">
<g filter="url(#filter0_d_3177_30440)">
<rect x="7" y="6.0498" width="328" height="213.697" rx="4.14138" fill="white"/>
</g>
<path d="M37.6353 26.849C39.0824 26.849 40.191 27.1087 40.961 27.6282C41.7309 28.1385 42.1159 28.9363 42.1159 30.0216C42.1159 30.6989 41.9582 31.2508 41.6428 31.6776C41.3367 32.095 40.8914 32.4243 40.307 32.6655C40.5018 32.9067 40.7059 33.185 40.9192 33.5004C41.1326 33.8066 41.3413 34.1313 41.5454 34.4745C41.7588 34.8085 41.9629 35.161 42.1577 35.532C42.3525 35.8938 42.5334 36.251 42.7004 36.6035H40.2652C40.089 36.2881 39.9081 35.9681 39.7225 35.6434C39.5463 35.3187 39.3607 35.0033 39.1659 34.6971C38.9804 34.391 38.7948 34.1034 38.6093 33.8344C38.4238 33.5561 38.2382 33.3056 38.0527 33.083H36.9812V36.6035H34.8105V27.0995C35.2836 27.0067 35.7706 26.9418 36.2716 26.9047C36.7818 26.8675 37.2364 26.849 37.6353 26.849ZM37.7605 28.6997C37.6028 28.6997 37.459 28.7043 37.3291 28.7136C37.2085 28.7229 37.0926 28.7322 36.9812 28.7415V31.3575H37.5935C38.4099 31.3575 38.9943 31.2555 39.3468 31.0514C39.6993 30.8473 39.8756 30.4994 39.8756 30.0077C39.8756 29.5346 39.6947 29.2007 39.3329 29.0058C38.9804 28.8018 38.4562 28.6997 37.7605 28.6997ZM43.2514 32.9995C43.2514 32.3501 43.3488 31.7842 43.5436 31.3018C43.7477 30.8102 44.0121 30.402 44.3368 30.0773C44.6615 29.7526 45.0326 29.5068 45.45 29.3398C45.8768 29.1728 46.3128 29.0893 46.758 29.0893C47.797 29.0893 48.618 29.4094 49.221 30.0495C49.824 30.6803 50.1255 31.6126 50.1255 32.8464C50.1255 32.967 50.1209 33.1015 50.1116 33.25C50.1023 33.3891 50.093 33.5144 50.0838 33.6257H45.3804C45.4268 34.0524 45.6263 34.391 45.9788 34.6415C46.3313 34.892 46.8044 35.0172 47.3981 35.0172C47.7785 35.0172 48.1496 34.9847 48.5114 34.9198C48.8824 34.8456 49.1839 34.7574 49.4158 34.6554L49.6941 36.3391C49.5828 36.3948 49.4344 36.4504 49.2489 36.5061C49.0633 36.5618 48.8546 36.6082 48.6227 36.6453C48.4 36.6916 48.1588 36.7288 47.8991 36.7566C47.6393 36.7844 47.3796 36.7983 47.1198 36.7983C46.4612 36.7983 45.886 36.7009 45.3944 36.5061C44.912 36.3113 44.5084 36.0469 44.1837 35.7129C43.8683 35.3697 43.6318 34.9662 43.4741 34.5023C43.3256 34.0385 43.2514 33.5375 43.2514 32.9995ZM48.1217 32.2063C48.1125 32.0301 48.08 31.8584 48.0243 31.6915C47.9779 31.5245 47.8991 31.3761 47.7878 31.2462C47.6857 31.1163 47.5512 31.0096 47.3842 30.9261C47.2265 30.8426 47.0271 30.8009 46.7859 30.8009C46.554 30.8009 46.3545 30.8426 46.1875 30.9261C46.0205 31.0003 45.8814 31.1024 45.7701 31.2323C45.6588 31.3621 45.5706 31.5152 45.5057 31.6915C45.45 31.8584 45.4083 32.0301 45.3804 32.2063H48.1217ZM53.8267 35.1146C54.2071 35.1146 54.4761 35.0775 54.6338 35.0033C54.7915 34.9291 54.8704 34.7853 54.8704 34.5719C54.8704 34.4049 54.7683 34.2611 54.5642 34.1405C54.3601 34.0107 54.0494 33.8669 53.6319 33.7092C53.3072 33.5886 53.0104 33.4633 52.7413 33.3335C52.4816 33.2036 52.259 33.0505 52.0734 32.8743C51.8879 32.6887 51.7441 32.4707 51.642 32.2202C51.54 31.9698 51.489 31.6683 51.489 31.3158C51.489 30.6293 51.7441 30.0866 52.2543 29.6877C52.7645 29.2888 53.4649 29.0893 54.3555 29.0893C54.8008 29.0893 55.2275 29.1311 55.6357 29.2146C56.0439 29.2888 56.3686 29.3723 56.6098 29.465L56.248 31.0792C56.0068 30.9957 55.7424 30.9215 55.4548 30.8566C55.1765 30.7916 54.8611 30.7592 54.5086 30.7592C53.8592 30.7592 53.5345 30.94 53.5345 31.3018C53.5345 31.3853 53.5484 31.4595 53.5763 31.5245C53.6041 31.5894 53.6597 31.6544 53.7432 31.7193C53.8267 31.775 53.938 31.8399 54.0772 31.9141C54.2256 31.979 54.4112 32.0533 54.6338 32.1368C55.0884 32.3037 55.4641 32.4707 55.7609 32.6377C56.0578 32.7954 56.2897 32.9717 56.4567 33.1665C56.633 33.352 56.7535 33.5607 56.8185 33.7927C56.8927 34.0246 56.9298 34.2936 56.9298 34.5997C56.9298 35.3233 56.6561 35.8707 56.1088 36.2417C55.5708 36.6128 54.8054 36.7983 53.8128 36.7983C53.1634 36.7983 52.6207 36.7427 52.1847 36.6313C51.758 36.52 51.4612 36.4273 51.2942 36.353L51.642 34.6693C51.9946 34.8085 52.3564 34.9198 52.7274 35.0033C53.0985 35.0775 53.4649 35.1146 53.8267 35.1146ZM58.1314 32.9995C58.1314 32.3501 58.2288 31.7842 58.4236 31.3018C58.6277 30.8102 58.8921 30.402 59.2168 30.0773C59.5415 29.7526 59.9125 29.5068 60.33 29.3398C60.7567 29.1728 61.1927 29.0893 61.638 29.0893C62.677 29.0893 63.498 29.4094 64.101 30.0495C64.704 30.6803 65.0055 31.6126 65.0055 32.8464C65.0055 32.967 65.0008 33.1015 64.9916 33.25C64.9823 33.3891 64.973 33.5144 64.9637 33.6257H60.2604C60.3068 34.0524 60.5063 34.391 60.8588 34.6415C61.2113 34.892 61.6844 35.0172 62.2781 35.0172C62.6585 35.0172 63.0295 34.9847 63.3913 34.9198C63.7624 34.8456 64.0639 34.7574 64.2958 34.6554L64.5741 36.3391C64.4628 36.3948 64.3144 36.4504 64.1288 36.5061C63.9433 36.5618 63.7346 36.6082 63.5027 36.6453C63.28 36.6916 63.0388 36.7288 62.7791 36.7566C62.5193 36.7844 62.2596 36.7983 61.9998 36.7983C61.3412 36.7983 60.766 36.7009 60.2743 36.5061C59.7919 36.3113 59.3884 36.0469 59.0637 35.7129C58.7483 35.3697 58.5117 34.9662 58.354 34.5023C58.2056 34.0385 58.1314 33.5375 58.1314 32.9995ZM63.0017 32.2063C62.9924 32.0301 62.96 31.8584 62.9043 31.6915C62.8579 31.5245 62.7791 31.3761 62.6677 31.2462C62.5657 31.1163 62.4312 31.0096 62.2642 30.9261C62.1065 30.8426 61.907 30.8009 61.6659 30.8009C61.4339 30.8009 61.2345 30.8426 61.0675 30.9261C60.9005 31.0003 60.7614 31.1024 60.65 31.2323C60.5387 31.3621 60.4506 31.5152 60.3857 31.6915C60.33 31.8584 60.2883 32.0301 60.2604 32.2063H63.0017ZM66.5359 27.4613L68.6093 27.1273V29.2841H71.1001V31.0096H68.6093V33.5839C68.6093 34.0199 68.6835 34.3678 68.8319 34.6276C68.9896 34.8873 69.3004 35.0172 69.7643 35.0172C69.9869 35.0172 70.2142 34.9986 70.4461 34.9615C70.6873 34.9151 70.9053 34.8548 71.1001 34.7806L71.3923 36.3948C71.1419 36.4968 70.8635 36.585 70.5574 36.6592C70.2513 36.7334 69.8756 36.7705 69.4303 36.7705C68.8644 36.7705 68.3959 36.6963 68.0249 36.5479C67.6538 36.3901 67.3569 36.1768 67.1343 35.9078C66.9116 35.6295 66.7539 35.2955 66.6612 34.9059C66.5777 34.5162 66.5359 34.0849 66.5359 33.6118V27.4613ZM79.1649 26.849C80.6028 26.849 81.7068 27.1041 82.4767 27.6143C83.2467 28.1153 83.6317 28.9409 83.6317 30.0912C83.6317 31.2508 83.2421 32.0904 82.4628 32.6099C81.6836 33.1201 80.5703 33.3752 79.1232 33.3752H78.4413V36.6035H76.2706V27.0995C76.7437 27.0067 77.2446 26.9418 77.7734 26.9047C78.3022 26.8675 78.766 26.849 79.1649 26.849ZM79.3041 28.6997C79.1464 28.6997 78.9887 28.7043 78.831 28.7136C78.6825 28.7229 78.5526 28.7322 78.4413 28.7415V31.5245H79.1232C79.8746 31.5245 80.4405 31.4224 80.8208 31.2184C81.2012 31.0143 81.3913 30.6339 81.3913 30.0773C81.3913 29.8083 81.3403 29.5856 81.2383 29.4094C81.1455 29.2331 81.0064 29.094 80.8208 28.9919C80.6446 28.8806 80.4266 28.8064 80.1668 28.7693C79.9071 28.7229 79.6195 28.6997 79.3041 28.6997ZM91.3345 36.353C90.982 36.4551 90.5274 36.5479 89.9708 36.6313C89.4142 36.7241 88.8298 36.7705 88.2175 36.7705C87.5959 36.7705 87.0764 36.687 86.659 36.52C86.2508 36.353 85.9261 36.1211 85.6849 35.8243C85.4437 35.5181 85.2721 35.1563 85.1701 34.7389C85.068 34.3214 85.017 33.8622 85.017 33.3613V29.2841H87.0904V33.1108C87.0904 33.7787 87.1785 34.2611 87.3547 34.558C87.531 34.8548 87.8603 35.0033 88.3427 35.0033C88.4911 35.0033 88.6489 34.9986 88.8158 34.9894C88.9828 34.9708 89.1312 34.9523 89.2611 34.9337V29.2841H91.3345V36.353ZM93.2112 27.4613L95.2845 27.1273V29.2841H97.7753V31.0096H95.2845V33.5839C95.2845 34.0199 95.3587 34.3678 95.5072 34.6276C95.6649 34.8873 95.9757 35.0172 96.4395 35.0172C96.6621 35.0172 96.8894 34.9986 97.1213 34.9615C97.3625 34.9151 97.5805 34.8548 97.7753 34.7806L98.0676 36.3948C97.8171 36.4968 97.5388 36.585 97.2327 36.6592C96.9265 36.7334 96.5508 36.7705 96.1055 36.7705C95.5396 36.7705 95.0712 36.6963 94.7001 36.5479C94.329 36.3901 94.0322 36.1768 93.8095 35.9078C93.5869 35.6295 93.4292 35.2955 93.3364 34.9059C93.2529 34.5162 93.2112 34.0849 93.2112 33.6118V27.4613Z" fill="#414652"/>
<rect x="7.51196" y="56.9334" width="326.975" height="162.301" stroke="#ECECEC" stroke-width="1.0249"/>
<path d="M6.99951 110.211H335" stroke="#ECECEC" stroke-width="1.0249"/>
<path d="M6.99951 83.8047H335" stroke="#ECECEC" stroke-width="1.0249"/>
<path d="M6.99951 136.616H335" stroke="#ECECEC" stroke-width="1.0249"/>
<path d="M6.99951 163.023H335" stroke="#ECECEC" stroke-width="1.0249"/>
<path d="M6.99951 189.429H335" stroke="#ECECEC" stroke-width="1.0249"/>
<path d="M62.1772 56.4209L62.1772 219.746" stroke="#ECECEC" stroke-width="1.0249"/>
<path d="M116.333 56.4209L116.333 219.746" stroke="#ECECEC" stroke-width="1.0249"/>
<path d="M170.489 56.4209L170.489 219.746" stroke="#ECECEC" stroke-width="1.0249"/>
<path d="M224.645 56.4209L224.645 219.746" stroke="#ECECEC" stroke-width="1.0249"/>
<path d="M278.801 56.4209L278.801 219.746" stroke="#ECECEC" stroke-width="1.0249"/>
<path d="M7 57.1846H335" stroke="#ECECEC" stroke-width="1.5302"/>
<path d="M42.7812 109.775L101.921 71.8272L134.721 85.5648L170.502 188.438L224.175 162.098L271.387 85.5648" stroke="#A8A8A8" stroke-width="2.98182"/>
<path d="M271.843 220.066L271.843 56.7408" stroke="#7D7D7D" stroke-width="2.98182"/>
<path d="M170.005 219.747L170.005 56.4215" stroke="#7D7D7D" stroke-width="1.98788" stroke-dasharray="5.96 5.96"/>
<line x1="7.99414" y1="110.031" x2="334.469" y2="110.031" stroke="black" stroke-width="0.765102"/>
<line x1="7" y1="188.836" x2="333.474" y2="188.836" stroke="black" stroke-width="0.765102" stroke-dasharray="5.96 5.96"/>
<rect x="143.17" y="14.001" width="82.497" height="33.7939" rx="15.903" fill="#CC2E3D"/>
<path d="M175.66 34.8211V36.9521H168.297V25.9313H170.778V34.8211H175.66ZM184.923 32.7537C184.923 33.4111 184.827 34.0154 184.637 34.5667C184.446 35.1074 184.17 35.5739 183.81 35.9662C183.449 36.3478 183.015 36.6447 182.506 36.8567C182.007 37.0688 181.445 37.1748 180.82 37.1748C180.205 37.1748 179.643 37.0688 179.134 36.8567C178.636 36.6447 178.207 36.3478 177.846 35.9662C177.486 35.5739 177.205 35.1074 177.003 34.5667C176.802 34.0154 176.701 33.4111 176.701 32.7537C176.701 32.0964 176.802 31.4974 177.003 30.9567C177.215 30.416 177.501 29.9548 177.862 29.5731C178.233 29.1915 178.668 28.8946 179.166 28.6826C179.675 28.4705 180.226 28.3645 180.82 28.3645C181.424 28.3645 181.976 28.4705 182.474 28.6826C182.983 28.8946 183.417 29.1915 183.778 29.5731C184.138 29.9548 184.419 30.416 184.621 30.9567C184.822 31.4974 184.923 32.0964 184.923 32.7537ZM182.506 32.7537C182.506 32.0222 182.357 31.4497 182.06 31.0362C181.774 30.6121 181.361 30.4001 180.82 30.4001C180.279 30.4001 179.86 30.6121 179.564 31.0362C179.267 31.4497 179.118 32.0222 179.118 32.7537C179.118 33.4853 179.267 34.0684 179.564 34.5031C179.86 34.9272 180.279 35.1392 180.82 35.1392C181.361 35.1392 181.774 34.9272 182.06 34.5031C182.357 34.0684 182.506 33.4853 182.506 32.7537ZM189.16 35.2505C189.595 35.2505 189.902 35.2081 190.082 35.1233C190.262 35.0385 190.353 34.8742 190.353 34.6303C190.353 34.4395 190.236 34.2751 190.003 34.1373C189.769 33.9889 189.414 33.8246 188.937 33.6443C188.566 33.5065 188.227 33.3634 187.919 33.2149C187.623 33.0665 187.368 32.8916 187.156 32.6901C186.944 32.4781 186.78 32.2289 186.663 31.9427C186.546 31.6564 186.488 31.3119 186.488 30.909C186.488 30.1244 186.78 29.5042 187.363 29.0483C187.946 28.5925 188.746 28.3645 189.764 28.3645C190.273 28.3645 190.761 28.4122 191.227 28.5076C191.694 28.5925 192.065 28.6879 192.34 28.7939L191.927 30.6386C191.651 30.5432 191.349 30.4584 191.02 30.3842C190.702 30.31 190.342 30.2729 189.939 30.2729C189.197 30.2729 188.826 30.4796 188.826 30.8931C188.826 30.9885 188.842 31.0733 188.874 31.1475C188.905 31.2218 188.969 31.296 189.064 31.3702C189.16 31.4338 189.287 31.508 189.446 31.5928C189.616 31.667 189.828 31.7519 190.082 31.8473C190.602 32.0381 191.031 32.2289 191.37 32.4198C191.71 32.6 191.975 32.8015 192.165 33.0241C192.367 33.2361 192.505 33.4747 192.579 33.7397C192.664 34.0048 192.706 34.3122 192.706 34.6621C192.706 35.4891 192.393 36.1146 191.768 36.5387C191.153 36.9628 190.278 37.1748 189.144 37.1748C188.402 37.1748 187.782 37.1112 187.283 36.984C186.796 36.8567 186.456 36.7507 186.265 36.6659L186.663 34.7416C187.066 34.9007 187.479 35.0279 187.903 35.1233C188.328 35.2081 188.746 35.2505 189.16 35.2505ZM196.878 35.2505C197.313 35.2505 197.621 35.2081 197.801 35.1233C197.981 35.0385 198.071 34.8742 198.071 34.6303C198.071 34.4395 197.954 34.2751 197.721 34.1373C197.488 33.9889 197.133 33.8246 196.656 33.6443C196.285 33.5065 195.945 33.3634 195.638 33.2149C195.341 33.0665 195.087 32.8916 194.875 32.6901C194.663 32.4781 194.498 32.2289 194.382 31.9427C194.265 31.6564 194.207 31.3119 194.207 30.909C194.207 30.1244 194.498 29.5042 195.081 29.0483C195.664 28.5925 196.465 28.3645 197.483 28.3645C197.992 28.3645 198.479 28.4122 198.946 28.5076C199.412 28.5925 199.783 28.6879 200.059 28.7939L199.646 30.6386C199.37 30.5432 199.068 30.4584 198.739 30.3842C198.421 30.31 198.061 30.2729 197.658 30.2729C196.915 30.2729 196.544 30.4796 196.544 30.8931C196.544 30.9885 196.56 31.0733 196.592 31.1475C196.624 31.2218 196.688 31.296 196.783 31.3702C196.878 31.4338 197.006 31.508 197.165 31.5928C197.334 31.667 197.546 31.7519 197.801 31.8473C198.32 32.0381 198.75 32.2289 199.089 32.4198C199.428 32.6 199.693 32.8015 199.884 33.0241C200.085 33.2361 200.223 33.4747 200.298 33.7397C200.382 34.0048 200.425 34.3122 200.425 34.6621C200.425 35.4891 200.112 36.1146 199.486 36.5387C198.872 36.9628 197.997 37.1748 196.862 37.1748C196.12 37.1748 195.5 37.1112 195.002 36.984C194.514 36.8567 194.175 36.7507 193.984 36.6659L194.382 34.7416C194.784 34.9007 195.198 35.0279 195.622 35.1233C196.046 35.2081 196.465 35.2505 196.878 35.2505Z" fill="white"/>
<path d="M102.517 200.451C102.645 200.61 102.804 200.821 102.994 201.083C103.193 201.338 103.396 201.624 103.603 201.942C103.809 202.252 104.012 202.578 104.211 202.92C104.418 203.262 104.593 203.592 104.736 203.91H103.472C103.312 203.608 103.138 203.302 102.947 202.992C102.764 202.682 102.577 202.387 102.386 202.109C102.195 201.823 102.004 201.557 101.814 201.31C101.631 201.064 101.464 200.849 101.313 200.666C101.209 200.674 101.102 200.678 100.991 200.678C100.887 200.678 100.78 200.678 100.669 200.678H99.6309V203.91H98.474V195.764C98.8 195.684 99.1618 195.633 99.5594 195.609C99.9649 195.577 100.335 195.561 100.669 195.561C101.83 195.561 102.712 195.78 103.316 196.217C103.929 196.654 104.235 197.306 104.235 198.173C104.235 198.722 104.088 199.191 103.794 199.581C103.507 199.97 103.082 200.26 102.517 200.451ZM100.764 196.575C100.271 196.575 99.8933 196.587 99.6309 196.611V199.724H100.454C100.851 199.724 101.209 199.704 101.527 199.664C101.845 199.624 102.112 199.549 102.326 199.437C102.549 199.326 102.72 199.171 102.839 198.972C102.959 198.766 103.018 198.495 103.018 198.161C103.018 197.851 102.959 197.593 102.839 197.386C102.72 197.179 102.557 197.016 102.35 196.897C102.152 196.778 101.913 196.694 101.635 196.646C101.364 196.599 101.074 196.575 100.764 196.575ZM105.558 200.821C105.558 200.272 105.637 199.795 105.796 199.39C105.955 198.976 106.166 198.634 106.428 198.364C106.691 198.094 106.993 197.891 107.335 197.756C107.677 197.621 108.027 197.553 108.384 197.553C109.219 197.553 109.859 197.815 110.305 198.34C110.75 198.857 110.973 199.648 110.973 200.714C110.973 200.761 110.973 200.825 110.973 200.904C110.973 200.976 110.969 201.044 110.961 201.107H106.715C106.762 201.751 106.949 202.24 107.275 202.574C107.601 202.908 108.11 203.075 108.802 203.075C109.192 203.075 109.518 203.043 109.78 202.98C110.05 202.908 110.253 202.841 110.388 202.777L110.543 203.707C110.408 203.779 110.17 203.854 109.828 203.934C109.494 204.014 109.112 204.053 108.683 204.053C108.142 204.053 107.673 203.974 107.275 203.815C106.886 203.648 106.564 203.421 106.309 203.135C106.055 202.849 105.864 202.511 105.737 202.121C105.617 201.723 105.558 201.29 105.558 200.821ZM109.816 200.213C109.824 199.712 109.696 199.302 109.434 198.984C109.18 198.658 108.826 198.495 108.373 198.495C108.118 198.495 107.891 198.547 107.693 198.65C107.502 198.746 107.339 198.873 107.204 199.032C107.068 199.191 106.961 199.374 106.882 199.581C106.81 199.787 106.762 199.998 106.738 200.213H109.816ZM114.009 203.111C114.462 203.111 114.796 203.051 115.011 202.932C115.234 202.813 115.345 202.622 115.345 202.36C115.345 202.089 115.238 201.875 115.023 201.716C114.808 201.557 114.455 201.378 113.962 201.179C113.723 201.083 113.492 200.988 113.27 200.893C113.055 200.789 112.868 200.67 112.709 200.535C112.55 200.4 112.423 200.237 112.328 200.046C112.232 199.855 112.184 199.62 112.184 199.342C112.184 198.793 112.387 198.36 112.793 198.042C113.198 197.716 113.751 197.553 114.451 197.553C114.626 197.553 114.8 197.565 114.975 197.589C115.15 197.605 115.313 197.628 115.464 197.66C115.615 197.684 115.747 197.712 115.858 197.744C115.977 197.776 116.069 197.803 116.132 197.827L115.93 198.781C115.81 198.718 115.623 198.654 115.369 198.591C115.115 198.519 114.808 198.483 114.451 198.483C114.14 198.483 113.87 198.547 113.64 198.674C113.409 198.793 113.294 198.984 113.294 199.247C113.294 199.382 113.317 199.501 113.365 199.604C113.421 199.708 113.5 199.803 113.604 199.891C113.715 199.97 113.85 200.046 114.009 200.117C114.168 200.189 114.359 200.264 114.582 200.344C114.876 200.455 115.138 200.567 115.369 200.678C115.6 200.781 115.794 200.904 115.953 201.048C116.12 201.191 116.248 201.366 116.335 201.572C116.423 201.771 116.466 202.018 116.466 202.312C116.466 202.884 116.252 203.318 115.822 203.612C115.401 203.906 114.796 204.053 114.009 204.053C113.461 204.053 113.031 204.006 112.721 203.91C112.411 203.823 112.2 203.755 112.089 203.707L112.292 202.753C112.419 202.801 112.622 202.872 112.9 202.968C113.178 203.063 113.548 203.111 114.009 203.111ZM117.543 200.821C117.543 200.272 117.623 199.795 117.782 199.39C117.941 198.976 118.151 198.634 118.414 198.364C118.676 198.094 118.978 197.891 119.32 197.756C119.662 197.621 120.012 197.553 120.37 197.553C121.205 197.553 121.845 197.815 122.29 198.34C122.736 198.857 122.958 199.648 122.958 200.714C122.958 200.761 122.958 200.825 122.958 200.904C122.958 200.976 122.954 201.044 122.946 201.107H118.7C118.748 201.751 118.935 202.24 119.261 202.574C119.587 202.908 120.096 203.075 120.787 203.075C121.177 203.075 121.503 203.043 121.765 202.98C122.036 202.908 122.239 202.841 122.374 202.777L122.529 203.707C122.394 203.779 122.155 203.854 121.813 203.934C121.479 204.014 121.098 204.053 120.668 204.053C120.127 204.053 119.658 203.974 119.261 203.815C118.871 203.648 118.549 203.421 118.295 203.135C118.04 202.849 117.849 202.511 117.722 202.121C117.603 201.723 117.543 201.29 117.543 200.821ZM121.801 200.213C121.809 199.712 121.682 199.302 121.42 198.984C121.165 198.658 120.811 198.495 120.358 198.495C120.104 198.495 119.877 198.547 119.678 198.65C119.487 198.746 119.324 198.873 119.189 199.032C119.054 199.191 118.947 199.374 118.867 199.581C118.796 199.787 118.748 199.998 118.724 200.213H121.801ZM125.589 197.708H127.939V198.638H125.589V201.501C125.589 201.811 125.613 202.069 125.661 202.276C125.709 202.475 125.78 202.634 125.875 202.753C125.971 202.865 126.09 202.944 126.233 202.992C126.376 203.039 126.543 203.063 126.734 203.063C127.068 203.063 127.335 203.028 127.533 202.956C127.74 202.876 127.883 202.821 127.963 202.789L128.177 203.707C128.066 203.763 127.871 203.831 127.593 203.91C127.315 203.998 126.997 204.041 126.639 204.041C126.217 204.041 125.868 203.99 125.589 203.886C125.319 203.775 125.1 203.612 124.933 203.397C124.766 203.183 124.647 202.92 124.575 202.61C124.512 202.292 124.48 201.926 124.48 201.513V195.979L125.589 195.788V197.708ZM128.24 199.819H131.186V200.857H128.24V199.819ZM133.486 197.708H135.836V198.638H133.486V201.501C133.486 201.811 133.51 202.069 133.558 202.276C133.606 202.475 133.677 202.634 133.773 202.753C133.868 202.865 133.987 202.944 134.13 202.992C134.274 203.039 134.441 203.063 134.631 203.063C134.965 203.063 135.232 203.028 135.431 202.956C135.637 202.876 135.78 202.821 135.86 202.789L136.075 203.707C135.963 203.763 135.768 203.831 135.49 203.91C135.212 203.998 134.894 204.041 134.536 204.041C134.115 204.041 133.765 203.99 133.486 203.886C133.216 203.775 132.997 203.612 132.83 203.397C132.663 203.183 132.544 202.92 132.473 202.61C132.409 202.292 132.377 201.926 132.377 201.513V195.979L133.486 195.788V197.708ZM138.357 203.91H137.248V197.708H138.357V203.91ZM137.796 196.587C137.597 196.587 137.427 196.523 137.283 196.396C137.148 196.261 137.081 196.082 137.081 195.859C137.081 195.637 137.148 195.462 137.283 195.334C137.427 195.199 137.597 195.132 137.796 195.132C137.995 195.132 138.162 195.199 138.297 195.334C138.44 195.462 138.512 195.637 138.512 195.859C138.512 196.082 138.44 196.261 138.297 196.396C138.162 196.523 137.995 196.587 137.796 196.587ZM140.264 197.887C140.519 197.823 140.853 197.756 141.266 197.684C141.688 197.613 142.173 197.577 142.721 197.577C143.119 197.577 143.453 197.632 143.723 197.744C143.994 197.847 144.22 198.002 144.403 198.209C144.459 198.169 144.546 198.114 144.666 198.042C144.785 197.97 144.932 197.903 145.107 197.839C145.282 197.768 145.477 197.708 145.691 197.66C145.906 197.605 146.137 197.577 146.383 197.577C146.86 197.577 147.25 197.648 147.552 197.791C147.854 197.927 148.089 198.121 148.256 198.376C148.431 198.63 148.546 198.933 148.602 199.282C148.665 199.632 148.697 200.014 148.697 200.427V203.91H147.588V200.666C147.588 200.3 147.568 199.986 147.528 199.724C147.496 199.461 147.429 199.243 147.325 199.068C147.23 198.893 147.095 198.766 146.92 198.686C146.753 198.599 146.534 198.555 146.264 198.555C145.89 198.555 145.58 198.606 145.333 198.71C145.095 198.805 144.932 198.893 144.844 198.972C144.908 199.179 144.956 199.406 144.988 199.652C145.019 199.899 145.035 200.157 145.035 200.427V203.91H143.926V200.666C143.926 200.3 143.906 199.986 143.866 199.724C143.827 199.461 143.755 199.243 143.652 199.068C143.556 198.893 143.421 198.766 143.246 198.686C143.079 198.599 142.865 198.555 142.602 198.555C142.491 198.555 142.372 198.559 142.244 198.567C142.117 198.575 141.994 198.587 141.875 198.603C141.763 198.61 141.66 198.622 141.564 198.638C141.469 198.654 141.405 198.666 141.374 198.674V203.91H140.264V197.887ZM150.192 200.821C150.192 200.272 150.271 199.795 150.43 199.39C150.589 198.976 150.8 198.634 151.062 198.364C151.325 198.094 151.627 197.891 151.969 197.756C152.311 197.621 152.661 197.553 153.019 197.553C153.853 197.553 154.494 197.815 154.939 198.34C155.384 198.857 155.607 199.648 155.607 200.714C155.607 200.761 155.607 200.825 155.607 200.904C155.607 200.976 155.603 201.044 155.595 201.107H151.349C151.396 201.751 151.583 202.24 151.909 202.574C152.235 202.908 152.744 203.075 153.436 203.075C153.826 203.075 154.152 203.043 154.414 202.98C154.684 202.908 154.887 202.841 155.022 202.777L155.177 203.707C155.042 203.779 154.804 203.854 154.462 203.934C154.128 204.014 153.746 204.053 153.317 204.053C152.776 204.053 152.307 203.974 151.909 203.815C151.52 203.648 151.198 203.421 150.943 203.135C150.689 202.849 150.498 202.511 150.371 202.121C150.251 201.723 150.192 201.29 150.192 200.821ZM154.45 200.213C154.458 199.712 154.331 199.302 154.068 198.984C153.814 198.658 153.46 198.495 153.007 198.495C152.752 198.495 152.526 198.547 152.327 198.65C152.136 198.746 151.973 198.873 151.838 199.032C151.703 199.191 151.595 199.374 151.516 199.581C151.444 199.787 151.396 199.998 151.373 200.213H154.45Z" fill="#414652"/>
<path d="M177.958 188.935C177.958 193.326 174.398 196.886 170.006 196.886C165.615 196.886 162.055 193.326 162.055 188.935C162.055 184.543 165.615 180.983 170.006 180.983C174.398 180.983 177.958 184.543 177.958 188.935Z" fill="#FF444F"/>
<path d="M27.8367 129.217C29.0453 129.217 29.6496 128.804 29.6496 127.977C29.6496 127.722 29.5939 127.507 29.4826 127.333C29.3793 127.15 29.2361 126.995 29.0532 126.867C28.8704 126.732 28.6596 126.617 28.4211 126.521C28.1905 126.426 27.944 126.331 27.6816 126.235C27.3794 126.132 27.0932 126.017 26.8228 125.889C26.5525 125.754 26.3179 125.599 26.1191 125.424C25.9203 125.241 25.7613 125.027 25.642 124.78C25.5307 124.534 25.4751 124.235 25.4751 123.886C25.4751 123.162 25.7216 122.597 26.2146 122.192C26.7075 121.786 27.3874 121.584 28.2541 121.584C28.7551 121.584 29.2083 121.639 29.6138 121.751C30.0273 121.854 30.3295 121.969 30.5203 122.096L30.1506 123.039C29.9836 122.935 29.7331 122.836 29.3991 122.741C29.0731 122.637 28.6914 122.585 28.2541 122.585C28.0315 122.585 27.8247 122.609 27.6339 122.657C27.4431 122.705 27.2761 122.776 27.133 122.872C26.9898 122.967 26.8745 123.09 26.7871 123.241C26.7075 123.385 26.6678 123.556 26.6678 123.754C26.6678 123.977 26.7115 124.164 26.799 124.315C26.8865 124.466 27.0097 124.601 27.1687 124.72C27.3278 124.832 27.5106 124.935 27.7174 125.031C27.9321 125.126 28.1666 125.221 28.4211 125.317C28.7789 125.46 29.1049 125.603 29.3991 125.746C29.7013 125.889 29.9597 126.06 30.1744 126.259C30.397 126.458 30.568 126.696 30.6873 126.975C30.8066 127.245 30.8662 127.575 30.8662 127.965C30.8662 128.688 30.5998 129.245 30.0671 129.635C29.5423 130.024 28.7988 130.219 27.8367 130.219C27.5106 130.219 27.2085 130.195 26.9302 130.147C26.6598 130.108 26.4173 130.06 26.2026 130.004C25.9879 129.941 25.8011 129.877 25.642 129.813C25.491 129.742 25.3717 129.682 25.2842 129.635L25.6301 128.68C25.813 128.784 26.0913 128.899 26.465 129.026C26.8387 129.153 27.296 129.217 27.8367 129.217ZM33.2305 123.838H35.5802V124.768H33.2305V127.631C33.2305 127.941 33.2543 128.199 33.3021 128.406C33.3498 128.605 33.4213 128.764 33.5167 128.883C33.6122 128.994 33.7314 129.074 33.8746 129.122C34.0177 129.169 34.1847 129.193 34.3755 129.193C34.7095 129.193 34.9758 129.157 35.1746 129.086C35.3814 129.006 35.5245 128.951 35.604 128.919L35.8187 129.837C35.7074 129.893 35.5126 129.961 35.2343 130.04C34.956 130.128 34.6379 130.171 34.2801 130.171C33.8587 130.171 33.5088 130.12 33.2305 130.016C32.9601 129.905 32.7415 129.742 32.5745 129.527C32.4075 129.312 32.2882 129.05 32.2167 128.74C32.1531 128.422 32.1213 128.056 32.1213 127.643V122.108L33.2305 121.918V123.838ZM39.0909 129.241C39.3533 129.241 39.5839 129.237 39.7827 129.229C39.9894 129.213 40.1604 129.189 40.2955 129.157V127.309C40.216 127.269 40.0848 127.237 39.9019 127.213C39.727 127.181 39.5123 127.166 39.2579 127.166C39.0909 127.166 38.912 127.177 38.7211 127.201C38.5383 127.225 38.3673 127.277 38.2083 127.356C38.0572 127.428 37.93 127.531 37.8266 127.667C37.7232 127.794 37.6715 127.965 37.6715 128.179C37.6715 128.577 37.7988 128.855 38.0532 129.014C38.3077 129.165 38.6535 129.241 39.0909 129.241ZM38.9955 123.683C39.4407 123.683 39.8145 123.742 40.1166 123.862C40.4267 123.973 40.6732 124.136 40.8561 124.351C41.047 124.557 41.1821 124.808 41.2616 125.102C41.3412 125.388 41.3809 125.706 41.3809 126.056V129.933C41.2855 129.949 41.1503 129.972 40.9754 130.004C40.8084 130.028 40.6176 130.052 40.4029 130.076C40.1882 130.1 39.9536 130.12 39.6992 130.135C39.4527 130.159 39.2062 130.171 38.9597 130.171C38.6098 130.171 38.2878 130.135 37.9936 130.064C37.6994 129.992 37.4449 129.881 37.2302 129.73C37.0155 129.571 36.8486 129.364 36.7293 129.11C36.61 128.855 36.5504 128.549 36.5504 128.191C36.5504 127.849 36.618 127.555 36.7531 127.309C36.8963 127.062 37.0871 126.863 37.3256 126.712C37.5642 126.561 37.8425 126.45 38.1606 126.378C38.4786 126.307 38.8126 126.271 39.1624 126.271C39.2738 126.271 39.3891 126.279 39.5083 126.295C39.6276 126.303 39.7389 126.319 39.8423 126.343C39.9536 126.358 40.049 126.374 40.1286 126.39C40.2081 126.406 40.2637 126.418 40.2955 126.426V126.116C40.2955 125.933 40.2757 125.754 40.2359 125.579C40.1961 125.396 40.1246 125.237 40.0212 125.102C39.9178 124.959 39.7747 124.848 39.5918 124.768C39.4169 124.681 39.1863 124.637 38.9 124.637C38.5343 124.637 38.2122 124.665 37.9339 124.72C37.6636 124.768 37.4608 124.82 37.3256 124.876L37.1944 123.957C37.3376 123.894 37.5761 123.834 37.9101 123.778C38.244 123.715 38.6058 123.683 38.9955 123.683ZM45.5133 123.707C45.6087 123.707 45.716 123.715 45.8353 123.731C45.9625 123.738 46.0858 123.754 46.205 123.778C46.3243 123.794 46.4317 123.814 46.5271 123.838C46.6304 123.854 46.706 123.87 46.7537 123.886L46.5629 124.852C46.4754 124.82 46.3283 124.784 46.1215 124.744C45.9228 124.697 45.6643 124.673 45.3463 124.673C45.1395 124.673 44.9328 124.697 44.7261 124.744C44.5273 124.784 44.3961 124.812 44.3325 124.828V130.04H43.2232V124.1C43.4856 124.005 43.8116 123.917 44.2013 123.838C44.5909 123.75 45.0282 123.707 45.5133 123.707ZM48.8617 123.838H51.2114V124.768H48.8617V127.631C48.8617 127.941 48.8856 128.199 48.9333 128.406C48.981 128.605 49.0526 128.764 49.148 128.883C49.2434 128.994 49.3627 129.074 49.5058 129.122C49.6489 129.169 49.8159 129.193 50.0068 129.193C50.3407 129.193 50.6071 129.157 50.8059 129.086C51.0126 129.006 51.1558 128.951 51.2353 128.919L51.45 129.837C51.3386 129.893 51.1438 129.961 50.8655 130.04C50.5872 130.128 50.2692 130.171 49.9113 130.171C49.4899 130.171 49.14 130.12 48.8617 130.016C48.5914 129.905 48.3727 129.742 48.2057 129.527C48.0388 129.312 47.9195 129.05 47.8479 128.74C47.7843 128.422 47.7525 128.056 47.7525 127.643V122.108L48.8617 121.918V123.838Z" fill="#414652"/>
<path d="M54.7087 107.113C54.7087 111.504 51.1487 115.064 46.7572 115.064C42.3657 115.064 38.8057 111.504 38.8057 107.113C38.8057 102.721 42.3657 99.1611 46.7572 99.1611C51.1487 99.1611 54.7087 102.721 54.7087 107.113Z" fill="#FF444F"/>
<path d="M288.316 87.6201V79.3545H293.362V80.3445H289.473V82.8015H292.932V83.7676H289.473V86.6302H293.66V87.6201H288.316ZM295.059 81.5968C295.313 81.5332 295.651 81.4656 296.072 81.3941C296.494 81.3225 296.979 81.2867 297.528 81.2867C298.021 81.2867 298.43 81.3583 298.756 81.5014C299.082 81.6366 299.341 81.8314 299.531 82.0859C299.73 82.3324 299.869 82.6305 299.949 82.9804C300.028 83.3303 300.068 83.7159 300.068 84.1374V87.6201H298.959V84.3759C298.959 83.9942 298.931 83.6682 298.875 83.3979C298.828 83.1275 298.744 82.9088 298.625 82.7419C298.506 82.5749 298.347 82.4556 298.148 82.384C297.949 82.3045 297.703 82.2648 297.408 82.2648C297.289 82.2648 297.166 82.2687 297.039 82.2767C296.911 82.2847 296.788 82.2966 296.669 82.3125C296.557 82.3204 296.454 82.3324 296.359 82.3483C296.271 82.3642 296.208 82.3761 296.168 82.384V87.6201H295.059V81.5968ZM305.915 82.7299C305.78 82.6186 305.585 82.5113 305.331 82.4079C305.076 82.3045 304.798 82.2528 304.496 82.2528C304.178 82.2528 303.903 82.3125 303.673 82.4318C303.45 82.5431 303.267 82.7021 303.124 82.9088C302.981 83.1076 302.878 83.3462 302.814 83.6245C302.75 83.9028 302.719 84.201 302.719 84.519C302.719 85.2426 302.897 85.8032 303.255 86.2008C303.613 86.5904 304.09 86.7852 304.687 86.7852C304.989 86.7852 305.239 86.7733 305.438 86.7494C305.645 86.7176 305.804 86.6858 305.915 86.654V82.7299ZM305.915 78.5554L307.024 78.3646V87.4412C306.77 87.5128 306.444 87.5843 306.046 87.6559C305.649 87.7275 305.191 87.7632 304.675 87.7632C304.198 87.7632 303.768 87.6877 303.386 87.5366C303.005 87.3855 302.679 87.1709 302.408 86.8926C302.138 86.6143 301.927 86.2763 301.776 85.8787C301.633 85.4732 301.562 85.02 301.562 84.519C301.562 84.0419 301.621 83.6046 301.741 83.207C301.868 82.8095 302.051 82.4675 302.289 82.1813C302.528 81.895 302.818 81.6724 303.16 81.5134C303.51 81.3543 303.907 81.2748 304.353 81.2748C304.71 81.2748 305.024 81.3225 305.295 81.4179C305.573 81.5134 305.78 81.6048 305.915 81.6923V78.5554Z" fill="#414652"/>
<path d="M280.334 83.5775C280.334 87.969 276.774 91.529 272.382 91.529C267.991 91.529 264.431 87.969 264.431 83.5775C264.431 79.186 267.991 75.626 272.382 75.626C276.774 75.626 280.334 79.186 280.334 83.5775Z" fill="#FF444F"/>
<path d="M287.111 116.094H285.004L285.133 115.508H290.033L289.894 116.094H287.787L286.276 122.396H285.601L287.111 116.094ZM292.707 117.813C292.588 117.787 292.479 117.767 292.379 117.754C292.28 117.741 292.177 117.734 292.071 117.734C291.66 117.734 291.296 117.813 290.978 117.972C290.66 118.132 290.391 118.34 290.173 118.599C289.954 118.857 289.785 119.152 289.666 119.483C289.553 119.815 289.497 120.153 289.497 120.497C289.497 120.769 289.523 120.997 289.576 121.183C289.629 121.362 289.702 121.508 289.795 121.62C289.888 121.726 289.994 121.806 290.113 121.859C290.239 121.905 290.372 121.928 290.511 121.928C290.782 121.928 291.037 121.865 291.276 121.74C291.515 121.607 291.74 121.421 291.952 121.183C291.952 121.004 291.978 120.799 292.031 120.567C292.084 120.335 292.134 120.126 292.18 119.94L292.707 117.813ZM292.131 122.455C292.091 122.376 292.055 122.286 292.021 122.187C291.995 122.081 291.975 121.975 291.962 121.869C291.73 122.094 291.485 122.26 291.226 122.366C290.974 122.472 290.713 122.525 290.441 122.525C290.229 122.525 290.027 122.488 289.835 122.415C289.643 122.342 289.474 122.23 289.328 122.077C289.182 121.925 289.063 121.73 288.97 121.491C288.884 121.246 288.841 120.958 288.841 120.626C288.841 120.096 288.927 119.616 289.099 119.185C289.272 118.754 289.51 118.39 289.815 118.092C290.126 117.787 290.491 117.552 290.908 117.386C291.332 117.22 291.793 117.138 292.29 117.138C292.701 117.138 293.095 117.207 293.473 117.346L292.707 120.437C292.668 120.603 292.634 120.759 292.608 120.905C292.581 121.05 292.568 121.19 292.568 121.322C292.568 121.501 292.585 121.67 292.618 121.829C292.651 121.988 292.711 122.164 292.797 122.356L292.131 122.455ZM295.058 117.485C295.309 117.386 295.584 117.303 295.883 117.237C296.187 117.171 296.485 117.138 296.777 117.138C296.929 117.138 297.075 117.148 297.214 117.167C297.354 117.187 297.486 117.22 297.612 117.267L297.443 117.853C297.185 117.774 296.92 117.734 296.648 117.734C296.476 117.734 296.303 117.747 296.131 117.774C295.959 117.8 295.786 117.84 295.614 117.893L294.531 122.396H293.885L295.058 117.485ZM301.522 117.804C301.31 117.75 301.104 117.724 300.906 117.724C300.448 117.724 300.051 117.804 299.713 117.963C299.382 118.122 299.107 118.327 298.888 118.579C298.669 118.824 298.507 119.099 298.401 119.404C298.295 119.702 298.242 119.99 298.242 120.268C298.242 120.447 298.258 120.62 298.292 120.785C298.325 120.944 298.381 121.084 298.461 121.203C298.54 121.322 298.649 121.418 298.789 121.491C298.928 121.557 299.107 121.59 299.325 121.59C299.551 121.59 299.782 121.551 300.021 121.471C300.266 121.385 300.498 121.272 300.717 121.133L301.522 117.804ZM297.069 123.28C297.208 123.393 297.407 123.486 297.665 123.558C297.93 123.631 298.192 123.668 298.451 123.668C299.06 123.668 299.527 123.529 299.852 123.25C300.183 122.972 300.399 122.578 300.498 122.068L300.548 121.809C300.349 121.935 300.137 122.031 299.912 122.097C299.686 122.157 299.461 122.187 299.236 122.187C298.951 122.187 298.702 122.14 298.49 122.048C298.285 121.955 298.116 121.829 297.983 121.67C297.851 121.504 297.752 121.315 297.685 121.103C297.619 120.885 297.586 120.653 297.586 120.408C297.586 120.03 297.652 119.649 297.785 119.265C297.924 118.874 298.136 118.522 298.421 118.211C298.706 117.893 299.06 117.635 299.484 117.436C299.915 117.237 300.425 117.138 301.015 117.138C301.254 117.138 301.479 117.164 301.691 117.217C301.903 117.263 302.092 117.333 302.257 117.426L301.144 122.058C301.078 122.336 300.992 122.608 300.886 122.873C300.78 123.138 300.624 123.373 300.419 123.578C300.213 123.784 299.938 123.949 299.594 124.075C299.256 124.201 298.818 124.264 298.282 124.264C298.176 124.264 298.056 124.254 297.924 124.234C297.791 124.221 297.655 124.198 297.516 124.165C297.384 124.132 297.255 124.092 297.129 124.045C297.003 124.006 296.89 123.956 296.791 123.896L297.069 123.28ZM307.211 118.46C307.211 118.831 307.119 119.132 306.933 119.364C306.754 119.596 306.499 119.781 306.168 119.921C305.843 120.053 305.449 120.149 304.985 120.209C304.528 120.268 304.017 120.312 303.454 120.338V120.547C303.454 120.739 303.474 120.918 303.514 121.084C303.554 121.249 303.627 121.395 303.733 121.521C303.839 121.64 303.984 121.736 304.17 121.809C304.362 121.882 304.607 121.918 304.905 121.918C305.137 121.918 305.369 121.885 305.601 121.819C305.84 121.753 306.065 121.653 306.277 121.521L306.347 122.117C306.121 122.243 305.873 122.339 305.601 122.405C305.329 122.478 305.054 122.515 304.776 122.515C304.412 122.515 304.104 122.468 303.852 122.376C303.607 122.283 303.405 122.154 303.246 121.988C303.093 121.822 302.984 121.624 302.918 121.392C302.851 121.16 302.818 120.905 302.818 120.626C302.818 120.202 302.881 119.781 303.007 119.364C303.139 118.947 303.332 118.572 303.583 118.241C303.835 117.91 304.143 117.644 304.508 117.446C304.879 117.24 305.3 117.138 305.77 117.138C306.234 117.138 306.588 117.26 306.834 117.505C307.085 117.744 307.211 118.062 307.211 118.46ZM305.71 117.724C305.445 117.724 305.197 117.78 304.965 117.893C304.733 117.999 304.524 118.145 304.339 118.33C304.153 118.516 303.991 118.731 303.852 118.976C303.719 119.222 303.62 119.48 303.554 119.752C304.117 119.738 304.591 119.702 304.975 119.642C305.359 119.583 305.667 119.5 305.899 119.394C306.138 119.288 306.307 119.162 306.406 119.016C306.506 118.864 306.555 118.691 306.555 118.499C306.555 118.241 306.476 118.049 306.317 117.923C306.164 117.79 305.962 117.724 305.71 117.724ZM309.063 115.746L309.739 115.627L309.351 117.257H311.16L311.031 117.813H309.212L308.606 120.328C308.572 120.447 308.543 120.577 308.516 120.716C308.496 120.848 308.486 120.981 308.486 121.113C308.486 121.412 308.559 121.62 308.705 121.74C308.851 121.859 309.033 121.918 309.252 121.918C309.464 121.918 309.646 121.895 309.798 121.849C309.957 121.802 310.123 121.74 310.295 121.66L310.355 122.246C310.176 122.319 309.974 122.382 309.749 122.435C309.53 122.488 309.311 122.515 309.093 122.515C308.92 122.515 308.758 122.495 308.606 122.455C308.453 122.415 308.317 122.349 308.198 122.256C308.085 122.164 307.993 122.041 307.92 121.889C307.854 121.736 307.82 121.544 307.82 121.312C307.82 121.027 307.867 120.699 307.96 120.328L309.063 115.746Z" fill="#414652" fill-opacity="0.6"/>
<defs>
<filter id="filter0_d_3177_30440" x="0.0977015" y="0.527966" width="341.805" height="227.502" filterUnits="userSpaceOnUse" color-interpolation-filters="sRGB">
<feFlood flood-opacity="0" result="BackgroundImageFix"/>
<feColorMatrix in="SourceAlpha" type="matrix" values="0 0 0 0 0 0 0 0 0 0 0 0 0 0 0 0 0 0 127 0" result="hardAlpha"/>
<feOffset dy="1.38046"/>
<feGaussianBlur stdDeviation="3.45115"/>
<feComposite in2="hardAlpha" operator="out"/>
<feColorMatrix type="matrix" values="0 0 0 0 0 0 0 0 0 0 0 0 0 0 0 0 0 0 0.1 0"/>
<feBlend mode="normal" in2="BackgroundImageFix" result="effect1_dropShadow_3177_30440"/>
<feBlend mode="normal" in="SourceGraphic" in2="effect1_dropShadow_3177_30440" result="shape"/>
</filter>
</defs>
</svg>
