<svg width="342" height="229" viewBox="0 0 342 229" fill="none" xmlns="http://www.w3.org/2000/svg">
<g filter="url(#filter0_d_2591_27017)">
<rect x="7" y="6.39453" width="328" height="213.697" rx="4.14138" fill="white"/>
</g>
<path d="M37.4404 35.2923C37.7466 35.2923 37.997 35.2691 38.1919 35.2228C38.3959 35.1671 38.5583 35.0975 38.6789 35.014C38.7995 34.9213 38.883 34.8146 38.9294 34.694C38.9757 34.5734 38.9989 34.4389 38.9989 34.2904C38.9989 33.975 38.8505 33.7153 38.5537 33.5112C38.2568 33.2978 37.7466 33.0706 37.023 32.8294C36.7076 32.718 36.3922 32.5928 36.0768 32.4536C35.7613 32.3052 35.4784 32.1243 35.2279 31.911C34.9775 31.6883 34.7734 31.4239 34.6157 31.1178C34.458 30.8024 34.3791 30.422 34.3791 29.9768C34.3791 29.5315 34.4626 29.1326 34.6296 28.78C34.7966 28.4183 35.0331 28.1121 35.3393 27.8616C35.6454 27.6112 36.0165 27.421 36.4525 27.2911C36.8885 27.152 37.3801 27.0824 37.9275 27.0824C38.5768 27.0824 39.1381 27.152 39.6112 27.2911C40.0843 27.4303 40.4739 27.5833 40.7801 27.7503L40.1539 29.4619C39.8849 29.3227 39.5834 29.2021 39.2494 29.1001C38.9247 28.9888 38.5305 28.9331 38.0666 28.9331C37.5471 28.9331 37.1714 29.0073 36.9395 29.1558C36.7169 29.2949 36.6055 29.5129 36.6055 29.8098C36.6055 29.986 36.6473 30.1345 36.7308 30.2551C36.8143 30.3757 36.9302 30.487 37.0786 30.589C37.2364 30.6818 37.4126 30.7699 37.6074 30.8534C37.8115 30.9276 38.0342 31.0065 38.2754 31.09C38.7763 31.2755 39.2123 31.461 39.5834 31.6466C39.9544 31.8228 40.2606 32.0316 40.5018 32.2728C40.7522 32.5139 40.9378 32.7969 41.0584 33.1216C41.179 33.4463 41.2393 33.8405 41.2393 34.3044C41.2393 35.2042 40.9239 35.9046 40.293 36.4056C39.6622 36.8972 38.7114 37.1431 37.4404 37.1431C37.0137 37.1431 36.6287 37.1152 36.2855 37.0596C35.9422 37.0132 35.6361 36.9529 35.3671 36.8787C35.1073 36.8045 34.8801 36.7256 34.6852 36.6421C34.4997 36.5586 34.342 36.4798 34.2121 36.4056L34.8244 34.6801C35.112 34.8378 35.4645 34.9816 35.8819 35.1114C36.3087 35.232 36.8282 35.2923 37.4404 35.2923ZM42.7008 27.806L44.7742 27.472V29.6289H47.265V31.3544H44.7742V33.9287C44.7742 34.3647 44.8484 34.7125 44.9968 34.9723C45.1545 35.232 45.4653 35.3619 45.9291 35.3619C46.1518 35.3619 46.379 35.3434 46.611 35.3063C46.8522 35.2599 47.0702 35.1996 47.265 35.1254L47.5572 36.7395C47.3067 36.8416 47.0284 36.9297 46.7223 37.0039C46.4161 37.0781 46.0404 37.1152 45.5952 37.1152C45.0293 37.1152 44.5608 37.041 44.1897 36.8926C43.8187 36.7349 43.5218 36.5215 43.2992 36.2525C43.0765 35.9742 42.9188 35.6402 42.826 35.2506C42.7425 34.861 42.7008 34.4296 42.7008 33.9565V27.806ZM51.4785 35.5011C51.6826 35.5011 51.8774 35.4964 52.063 35.4872C52.2485 35.4779 52.3969 35.464 52.5083 35.4454V33.873C52.4248 33.8544 52.2995 33.8359 52.1326 33.8173C51.9656 33.7988 51.8125 33.7895 51.6734 33.7895C51.4785 33.7895 51.293 33.8034 51.1168 33.8312C50.9498 33.8498 50.8013 33.8915 50.6715 33.9565C50.5416 34.0214 50.4395 34.1096 50.3653 34.2209C50.2911 34.3322 50.254 34.4713 50.254 34.6383C50.254 34.963 50.3607 35.1903 50.5741 35.3202C50.7967 35.4408 51.0982 35.5011 51.4785 35.5011ZM51.3116 29.4341C51.9238 29.4341 52.4341 29.5036 52.8422 29.6428C53.2504 29.7819 53.5751 29.9814 53.8163 30.2411C54.0668 30.5009 54.243 30.8163 54.3451 31.1874C54.4471 31.5584 54.4981 31.9713 54.4981 32.4258V36.7395C54.2013 36.8045 53.7885 36.8787 53.2597 36.9622C52.7309 37.0549 52.0908 37.1013 51.3394 37.1013C50.8663 37.1013 50.4349 37.0596 50.0453 36.9761C49.6649 36.8926 49.3356 36.7581 49.0573 36.5725C48.779 36.3777 48.5656 36.1272 48.4172 35.8211C48.2688 35.515 48.1946 35.1393 48.1946 34.694C48.1946 34.2673 48.2781 33.9055 48.445 33.6086C48.6213 33.3117 48.8532 33.0752 49.1408 32.8989C49.4284 32.7227 49.7577 32.5974 50.1288 32.5232C50.4998 32.4397 50.8848 32.398 51.2837 32.398C51.5528 32.398 51.7893 32.4119 51.9934 32.4397C52.2068 32.4583 52.3784 32.4861 52.5083 32.5232V32.3284C52.5083 31.9759 52.4016 31.693 52.1882 31.4796C51.9749 31.2662 51.6038 31.1595 51.075 31.1595C50.7225 31.1595 50.3746 31.1874 50.0314 31.243C49.6881 31.2894 49.3913 31.359 49.1408 31.4518L48.8764 29.7819C48.997 29.7448 49.1454 29.7077 49.3217 29.6706C49.5072 29.6242 49.7067 29.5871 49.92 29.5593C50.1334 29.5222 50.3561 29.4944 50.588 29.4758C50.8292 29.448 51.0704 29.4341 51.3116 29.4341ZM62.6947 29.6289C62.2772 31.0389 61.8412 32.3609 61.3867 33.5947C60.9321 34.8285 60.4358 36.0252 59.8978 37.1848C59.7029 37.6023 59.5081 37.9548 59.3133 38.2424C59.1185 38.5392 58.9051 38.7804 58.6732 38.9659C58.4413 39.1608 58.1769 39.2999 57.8801 39.3834C57.5925 39.4762 57.2539 39.5225 56.8643 39.5225C56.5396 39.5225 56.2381 39.4901 55.9598 39.4251C55.6907 39.3695 55.4681 39.3045 55.2918 39.2303L55.6536 37.5744C55.867 37.6486 56.0572 37.6997 56.2242 37.7275C56.3911 37.7553 56.5674 37.7692 56.7529 37.7692C57.124 37.7692 57.4069 37.6672 57.6018 37.4631C57.8058 37.2683 57.9775 36.9946 58.1166 36.6421C57.6435 35.7144 57.1704 34.6754 56.6973 33.5251C56.2242 32.3655 55.7789 31.0668 55.3614 29.6289H57.56C57.6528 29.9907 57.7595 30.3849 57.8801 30.8117C58.0099 31.2291 58.1444 31.6558 58.2836 32.0919C58.4228 32.5186 58.5619 32.936 58.7011 33.3442C58.8495 33.7524 58.9886 34.1235 59.1185 34.4574C59.2391 34.1235 59.3643 33.7524 59.4942 33.3442C59.6241 32.936 59.7493 32.5186 59.8699 32.0919C59.9998 31.6558 60.1204 31.2291 60.2317 30.8117C60.3523 30.3849 60.459 29.9907 60.5518 29.6289H62.6947ZM65.9074 35.4593C66.2877 35.4593 66.5567 35.4222 66.7144 35.348C66.8721 35.2738 66.951 35.13 66.951 34.9166C66.951 34.7496 66.849 34.6059 66.6449 34.4853C66.4408 34.3554 66.13 34.2116 65.7126 34.0539C65.3879 33.9333 65.091 33.8081 64.822 33.6782C64.5622 33.5483 64.3396 33.3952 64.1541 33.219C63.9685 33.0334 63.8247 32.8154 63.7227 32.565C63.6206 32.3145 63.5696 32.013 63.5696 31.6605C63.5696 30.974 63.8247 30.4313 64.335 30.0324C64.8452 29.6335 65.5456 29.4341 66.4361 29.4341C66.8814 29.4341 67.3082 29.4758 67.7163 29.5593C68.1245 29.6335 68.4492 29.717 68.6904 29.8098L68.3286 31.4239C68.0874 31.3404 67.823 31.2662 67.5354 31.2013C67.2571 31.1363 66.9417 31.1039 66.5892 31.1039C65.9398 31.1039 65.6151 31.2848 65.6151 31.6466C65.6151 31.7301 65.6291 31.8043 65.6569 31.8692C65.6847 31.9341 65.7404 31.9991 65.8239 32.064C65.9074 32.1197 66.0187 32.1846 66.1578 32.2588C66.3063 32.3238 66.4918 32.398 66.7144 32.4815C67.169 32.6485 67.5447 32.8154 67.8416 32.9824C68.1384 33.1401 68.3703 33.3164 68.5373 33.5112C68.7136 33.6967 68.8342 33.9055 68.8991 34.1374C68.9733 34.3693 69.0104 34.6383 69.0104 34.9445C69.0104 35.668 68.7368 36.2154 68.1894 36.5864C67.6514 36.9575 66.8861 37.1431 65.8934 37.1431C65.2441 37.1431 64.7014 37.0874 64.2654 36.9761C63.8386 36.8648 63.5418 36.772 63.3748 36.6978L63.7227 35.014C64.0752 35.1532 64.437 35.2645 64.8081 35.348C65.1791 35.4222 65.5456 35.4593 65.9074 35.4593ZM77.2564 37.0735C76.7276 37.0735 76.1988 37.0549 75.67 37.0178C75.1505 36.99 74.6078 36.9158 74.042 36.7952V27.4442C74.4872 27.3607 74.9743 27.3004 75.5031 27.2633C76.0318 27.2169 76.5235 27.1937 76.9781 27.1937C77.5903 27.1937 78.1516 27.2401 78.6618 27.3329C79.1813 27.4164 79.6266 27.5648 79.9977 27.7782C80.3687 27.9915 80.6563 28.2745 80.8604 28.627C81.0738 28.9702 81.1804 29.397 81.1804 29.9072C81.1804 30.6771 80.8094 31.2848 80.0672 31.7301C80.6795 31.962 81.0969 32.2774 81.3196 32.6763C81.5422 33.0752 81.6536 33.5251 81.6536 34.0261C81.6536 35.0372 81.2825 35.7979 80.5403 36.3081C79.8075 36.8184 78.7128 37.0735 77.2564 37.0735ZM76.1571 32.7459V35.2367C76.3148 35.2552 76.4864 35.2691 76.6719 35.2784C76.8575 35.2877 77.0616 35.2923 77.2842 35.2923C77.9336 35.2923 78.4577 35.1996 78.8566 35.014C79.2555 34.8285 79.455 34.4853 79.455 33.9843C79.455 33.539 79.288 33.2236 78.954 33.0381C78.6201 32.8433 78.1423 32.7459 77.5208 32.7459H76.1571ZM76.1571 31.09H77.2146C77.8825 31.09 78.3603 31.0065 78.6479 30.8395C78.9355 30.6632 79.0793 30.3849 79.0793 30.0046C79.0793 29.615 78.9308 29.3413 78.634 29.1836C78.3371 29.0259 77.9011 28.947 77.3259 28.947C77.1404 28.947 76.941 28.9517 76.7276 28.9609C76.5142 28.9609 76.324 28.9702 76.1571 28.9888V31.09ZM82.9042 33.3442C82.9042 32.6948 83.0016 32.129 83.1964 31.6466C83.4005 31.1549 83.6649 30.7467 83.9896 30.422C84.3142 30.0973 84.6853 29.8515 85.1028 29.6845C85.5295 29.5176 85.9655 29.4341 86.4108 29.4341C87.4498 29.4341 88.2708 29.7541 88.8738 30.3942C89.4768 31.025 89.7783 31.9573 89.7783 33.1912C89.7783 33.3117 89.7736 33.4463 89.7643 33.5947C89.7551 33.7338 89.7458 33.8591 89.7365 33.9704H85.0332C85.0796 34.3971 85.279 34.7357 85.6315 34.9862C85.9841 35.2367 86.4572 35.3619 87.0509 35.3619C87.4312 35.3619 87.8023 35.3294 88.1641 35.2645C88.5352 35.1903 88.8367 35.1022 89.0686 35.0001L89.3469 36.6839C89.2356 36.7395 89.0871 36.7952 88.9016 36.8508C88.7161 36.9065 88.5073 36.9529 88.2754 36.99C88.0528 37.0364 87.8116 37.0735 87.5518 37.1013C87.2921 37.1291 87.0323 37.1431 86.7726 37.1431C86.1139 37.1431 85.5388 37.0456 85.0471 36.8508C84.5647 36.656 84.1612 36.3916 83.8365 36.0577C83.5211 35.7144 83.2845 35.3109 83.1268 34.8471C82.9784 34.3832 82.9042 33.8823 82.9042 33.3442ZM87.7745 32.5511C87.7652 32.3748 87.7327 32.2032 87.6771 32.0362C87.6307 31.8692 87.5518 31.7208 87.4405 31.5909C87.3385 31.461 87.204 31.3544 87.037 31.2709C86.8793 31.1874 86.6798 31.1456 86.4386 31.1456C86.2067 31.1456 86.0073 31.1874 85.8403 31.2709C85.6733 31.3451 85.5341 31.4471 85.4228 31.577C85.3115 31.7069 85.2234 31.8599 85.1584 32.0362C85.1028 32.2032 85.061 32.3748 85.0332 32.5511H87.7745ZM91.3087 27.806L93.3821 27.472V29.6289H95.8729V31.3544H93.3821V33.9287C93.3821 34.3647 93.4563 34.7125 93.6047 34.9723C93.7624 35.232 94.0732 35.3619 94.537 35.3619C94.7597 35.3619 94.9869 35.3434 95.2189 35.3063C95.4601 35.2599 95.6781 35.1996 95.8729 35.1254L96.1651 36.7395C95.9146 36.8416 95.6363 36.9297 95.3302 37.0039C95.0241 37.0781 94.6483 37.1152 94.2031 37.1152C93.6372 37.1152 93.1687 37.041 92.7976 36.8926C92.4266 36.7349 92.1297 36.5215 91.9071 36.2525C91.6844 35.9742 91.5267 35.6402 91.4339 35.2506C91.3505 34.861 91.3087 34.4296 91.3087 33.9565V27.806ZM102.15 32.7459C101.964 33.4509 101.765 34.1513 101.552 34.8471C101.348 35.5428 101.13 36.2432 100.898 36.9482H99.2835C99.1165 36.5586 98.9356 36.0948 98.7408 35.5567C98.546 35.0187 98.3419 34.4342 98.1285 33.8034C97.9245 33.1633 97.7111 32.4908 97.4885 31.7857C97.2751 31.0714 97.0664 30.3525 96.8623 29.6289H99.0469C99.1212 29.9628 99.2 30.3293 99.2835 30.7282C99.3763 31.1178 99.469 31.5213 99.5618 31.9388C99.6639 32.3562 99.7659 32.7783 99.8679 33.2051C99.9793 33.6225 100.091 34.0261 100.202 34.4157C100.323 34.0075 100.438 33.5901 100.55 33.1633C100.67 32.7366 100.782 32.3191 100.884 31.911C100.995 31.4935 101.097 31.0946 101.19 30.7143C101.292 30.3246 101.38 29.9628 101.454 29.6289H102.957C103.031 29.9628 103.115 30.3246 103.208 30.7143C103.3 31.0946 103.398 31.4935 103.5 31.911C103.602 32.3191 103.709 32.7366 103.82 33.1633C103.931 33.5901 104.047 34.0075 104.168 34.4157C104.279 34.0261 104.39 33.6225 104.502 33.2051C104.613 32.7783 104.715 32.3562 104.808 31.9388C104.91 31.5213 105.003 31.1178 105.086 30.7282C105.179 30.3293 105.262 29.9628 105.337 29.6289H107.493C107.289 30.3525 107.076 31.0714 106.853 31.7857C106.64 32.4908 106.427 33.1633 106.213 33.8034C106.009 34.4342 105.805 35.0187 105.601 35.5567C105.406 36.0948 105.225 36.5586 105.058 36.9482H103.444C103.212 36.2432 102.985 35.5428 102.762 34.8471C102.54 34.1513 102.336 33.4509 102.15 32.7459ZM108.098 33.3442C108.098 32.6948 108.196 32.129 108.39 31.6466C108.595 31.1549 108.859 30.7467 109.184 30.422C109.508 30.0973 109.879 29.8515 110.297 29.6845C110.724 29.5176 111.16 29.4341 111.605 29.4341C112.644 29.4341 113.465 29.7541 114.068 30.3942C114.671 31.025 114.972 31.9573 114.972 33.1912C114.972 33.3117 114.968 33.4463 114.958 33.5947C114.949 33.7338 114.94 33.8591 114.931 33.9704H110.227C110.274 34.3971 110.473 34.7357 110.826 34.9862C111.178 35.2367 111.651 35.3619 112.245 35.3619C112.625 35.3619 112.996 35.3294 113.358 35.2645C113.729 35.1903 114.031 35.1022 114.263 35.0001L114.541 36.6839C114.43 36.7395 114.281 36.7952 114.096 36.8508C113.91 36.9065 113.701 36.9529 113.469 36.99C113.247 37.0364 113.006 37.0735 112.746 37.1013C112.486 37.1291 112.226 37.1431 111.967 37.1431C111.308 37.1431 110.733 37.0456 110.241 36.8508C109.759 36.656 109.355 36.3916 109.031 36.0577C108.715 35.7144 108.479 35.3109 108.321 34.8471C108.172 34.3832 108.098 33.8823 108.098 33.3442ZM112.969 32.5511C112.959 32.3748 112.927 32.2032 112.871 32.0362C112.825 31.8692 112.746 31.7208 112.635 31.5909C112.533 31.461 112.398 31.3544 112.231 31.2709C112.073 31.1874 111.874 31.1456 111.633 31.1456C111.401 31.1456 111.201 31.1874 111.034 31.2709C110.867 31.3451 110.728 31.4471 110.617 31.577C110.506 31.7069 110.417 31.8599 110.352 32.0362C110.297 32.2032 110.255 32.3748 110.227 32.5511H112.969ZM116.224 33.3442C116.224 32.6948 116.322 32.129 116.517 31.6466C116.721 31.1549 116.985 30.7467 117.31 30.422C117.635 30.0973 118.006 29.8515 118.423 29.6845C118.85 29.5176 119.286 29.4341 119.731 29.4341C120.77 29.4341 121.591 29.7541 122.194 30.3942C122.797 31.025 123.099 31.9573 123.099 33.1912C123.099 33.3117 123.094 33.4463 123.085 33.5947C123.075 33.7338 123.066 33.8591 123.057 33.9704H118.353C118.4 34.3971 118.599 34.7357 118.952 34.9862C119.304 35.2367 119.777 35.3619 120.371 35.3619C120.752 35.3619 121.123 35.3294 121.484 35.2645C121.855 35.1903 122.157 35.1022 122.389 35.0001L122.667 36.6839C122.556 36.7395 122.407 36.7952 122.222 36.8508C122.036 36.9065 121.828 36.9529 121.596 36.99C121.373 37.0364 121.132 37.0735 120.872 37.1013C120.612 37.1291 120.353 37.1431 120.093 37.1431C119.434 37.1431 118.859 37.0456 118.367 36.8508C117.885 36.656 117.481 36.3916 117.157 36.0577C116.841 35.7144 116.605 35.3109 116.447 34.8471C116.299 34.3832 116.224 33.8823 116.224 33.3442ZM121.095 32.5511C121.085 32.3748 121.053 32.2032 120.997 32.0362C120.951 31.8692 120.872 31.7208 120.761 31.5909C120.659 31.461 120.524 31.3544 120.357 31.2709C120.2 31.1874 120 31.1456 119.759 31.1456C119.527 31.1456 119.328 31.1874 119.161 31.2709C118.994 31.3451 118.854 31.4471 118.743 31.577C118.632 31.7069 118.544 31.8599 118.479 32.0362C118.423 32.2032 118.381 32.3748 118.353 32.5511H121.095ZM124.699 29.8793C125.051 29.7773 125.506 29.6845 126.062 29.601C126.619 29.5083 127.203 29.4619 127.816 29.4619C128.437 29.4619 128.952 29.5454 129.36 29.7124C129.778 29.8701 130.107 30.0973 130.348 30.3942C130.589 30.6911 130.761 31.0436 130.863 31.4518C130.965 31.8599 131.016 32.3145 131.016 32.8154V36.9482H128.943V33.0659C128.943 32.398 128.855 31.9249 128.678 31.6466C128.502 31.3683 128.173 31.2291 127.69 31.2291C127.542 31.2291 127.384 31.2384 127.217 31.2569C127.05 31.2662 126.902 31.2801 126.772 31.2987V36.9482H124.699V29.8793Z" fill="#414652"/>
<rect x="7.51245" y="57.2781" width="326.975" height="162.301" stroke="#ECECEC" stroke-width="1.0249"/>
<path d="M7 110.556H335" stroke="#ECECEC" stroke-width="1.0249"/>
<path d="M7 84.1494H335" stroke="#ECECEC" stroke-width="1.0249"/>
<path d="M7 136.961H335" stroke="#ECECEC" stroke-width="1.0249"/>
<path d="M7 163.367H335" stroke="#ECECEC" stroke-width="1.0249"/>
<path d="M7 189.772H335" stroke="#ECECEC" stroke-width="1.0249"/>
<path d="M62.1777 56.7656L62.1777 220.091" stroke="#ECECEC" stroke-width="1.0249"/>
<path d="M116.333 56.7656L116.333 220.091" stroke="#ECECEC" stroke-width="1.0249"/>
<path d="M170.489 56.7656L170.489 220.091" stroke="#ECECEC" stroke-width="1.0249"/>
<path d="M224.645 56.7656L224.645 220.091" stroke="#ECECEC" stroke-width="1.0249"/>
<path d="M278.801 56.7656L278.801 220.091" stroke="#ECECEC" stroke-width="1.0249"/>
<path d="M7 57.5293H335" stroke="#ECECEC" stroke-width="1.5302"/>
<path d="M271.843 56.7656L271.843 220.091" stroke="#7D7D7D" stroke-width="2.98182"/>
<path d="M40.7939 161.946L92.4788 116.147L135.349 173.387L172.491 116.147L197.836 169.897L252.503 77.958" stroke="#A8A8A8" stroke-width="2.98182"/>
<line x1="7.99414" y1="110.375" x2="334.469" y2="110.375" stroke="black" stroke-width="0.765102" stroke-dasharray="6.12 6.12"/>
<path d="M23.7386 93.985H24.4145L23.6789 96.9768H27.2472L27.9628 93.985H28.6387L26.9987 100.873H26.3228L27.118 97.5632H23.5597L22.7645 100.873H22.0886L23.7386 93.985ZM29.8441 95.7344H30.4901L29.2477 100.873H28.6017L29.8441 95.7344ZM30.1025 94.2335C30.1025 94.0612 30.1489 93.932 30.2417 93.8459C30.3411 93.7531 30.4471 93.7067 30.5597 93.7067C30.6922 93.7067 30.795 93.7498 30.8678 93.836C30.9407 93.9155 30.9772 94.0215 30.9772 94.154C30.9772 94.313 30.9242 94.4356 30.8181 94.5218C30.7121 94.6079 30.6061 94.651 30.5001 94.651C30.3676 94.651 30.2682 94.6145 30.2019 94.5417C30.1356 94.4621 30.1025 94.3594 30.1025 94.2335ZM35.0061 96.281C34.7941 96.228 34.5887 96.2015 34.3899 96.2015C33.9327 96.2015 33.5351 96.281 33.1972 96.4401C32.8658 96.5991 32.5909 96.8045 32.3722 97.0563C32.1535 97.3015 31.9912 97.5765 31.8852 97.8813C31.7791 98.1795 31.7261 98.4677 31.7261 98.746C31.7261 98.9249 31.7427 99.0972 31.7758 99.2629C31.809 99.4219 31.8653 99.561 31.9448 99.6803C32.0243 99.7996 32.1336 99.8957 32.2728 99.9686C32.4119 100.035 32.5909 100.068 32.8095 100.068C33.0348 100.068 33.2667 100.028 33.5053 99.9487C33.7505 99.8625 33.9824 99.7499 34.201 99.6107L35.0061 96.281ZM30.5533 101.758C30.6924 101.87 30.8912 101.963 31.1496 102.036C31.4147 102.109 31.6764 102.145 31.9349 102.145C32.5445 102.145 33.0116 102.006 33.3363 101.728C33.6676 101.45 33.883 101.055 33.9824 100.545L34.0321 100.287C33.8333 100.413 33.6212 100.509 33.3959 100.575C33.1707 100.635 32.9454 100.664 32.7201 100.664C32.4351 100.664 32.1867 100.618 31.9746 100.525C31.7692 100.432 31.6002 100.307 31.4677 100.147C31.3352 99.9818 31.2358 99.793 31.1695 99.5809C31.1033 99.3623 31.0701 99.1303 31.0701 98.8852C31.0701 98.5075 31.1364 98.1265 31.2689 97.7421C31.4081 97.3512 31.6201 97 31.905 96.6886C32.19 96.3705 32.5445 96.1121 32.9686 95.9133C33.3993 95.7145 33.9095 95.6151 34.4992 95.6151C34.7378 95.6151 34.9631 95.6416 35.1751 95.6946C35.3871 95.741 35.576 95.8106 35.7416 95.9033L34.6284 100.535C34.5622 100.813 34.476 101.085 34.37 101.35C34.264 101.615 34.1083 101.85 33.9029 102.056C33.6974 102.261 33.4225 102.427 33.0779 102.553C32.7399 102.679 32.3026 102.742 31.7659 102.742C31.6599 102.742 31.5406 102.732 31.4081 102.712C31.2755 102.699 31.1397 102.675 31.0006 102.642C30.868 102.609 30.7388 102.569 30.6129 102.523C30.487 102.483 30.3744 102.434 30.275 102.374L30.5533 101.758ZM36.7993 100.873H36.1533L37.9622 93.2793L38.6381 93.1601L37.9821 95.8735C38.3996 95.7012 38.7938 95.6151 39.1649 95.6151C39.3902 95.6151 39.5989 95.6482 39.7911 95.7145C39.9833 95.7808 40.1522 95.8802 40.298 96.0127C40.4438 96.1452 40.5564 96.3142 40.6359 96.5196C40.7221 96.7184 40.7652 96.9569 40.7652 97.2352C40.7652 97.4075 40.7519 97.5864 40.7254 97.772C40.6989 97.9509 40.6624 98.1331 40.6161 98.3186L39.9998 100.873H39.3538L39.9004 98.587C39.9534 98.3683 40.0031 98.1463 40.0495 97.921C40.0959 97.6958 40.1191 97.4804 40.1191 97.275C40.1191 97.0762 40.086 96.9105 40.0197 96.778C39.9601 96.6389 39.8772 96.5295 39.7712 96.45C39.6718 96.3639 39.5525 96.3042 39.4134 96.2711C39.2742 96.2313 39.1285 96.2115 38.9761 96.2115C38.7839 96.2115 38.5884 96.2313 38.3896 96.2711C38.1975 96.3109 38.0153 96.3606 37.843 96.4202L36.7993 100.873ZM46.8515 94.5715H44.7443L44.8735 93.985H49.7737L49.6345 94.5715H47.5274L46.0166 100.873H45.3407L46.8515 94.5715ZM52.4474 96.291C52.3282 96.2645 52.2188 96.2446 52.1194 96.2313C52.02 96.2181 51.9173 96.2115 51.8113 96.2115C51.4005 96.2115 51.036 96.291 50.718 96.45C50.3999 96.609 50.1316 96.8178 49.9129 97.0762C49.6942 97.3346 49.5253 97.6295 49.406 97.9608C49.2933 98.2921 49.237 98.6301 49.237 98.9746C49.237 99.2463 49.2635 99.4749 49.3165 99.6604C49.3695 99.8393 49.4424 99.9851 49.5352 100.098C49.628 100.204 49.734 100.283 49.8533 100.336C49.9792 100.383 50.1117 100.406 50.2508 100.406C50.5225 100.406 50.7776 100.343 51.0162 100.217C51.2547 100.085 51.48 99.899 51.692 99.6604C51.692 99.4815 51.7185 99.2761 51.7716 99.0442C51.8246 98.8123 51.8743 98.6036 51.9206 98.418L52.4474 96.291ZM51.8709 100.933C51.8312 100.853 51.7947 100.764 51.7616 100.664C51.7351 100.558 51.7152 100.452 51.702 100.346C51.4701 100.572 51.2249 100.737 50.9665 100.843C50.7147 100.949 50.4529 101.002 50.1813 101.002C49.9692 101.002 49.7671 100.966 49.5749 100.893C49.3828 100.82 49.2138 100.707 49.068 100.555C48.9223 100.403 48.803 100.207 48.7102 99.9686C48.6241 99.7234 48.581 99.4351 48.581 99.1038C48.581 98.5737 48.6672 98.0933 48.8394 97.6626C49.0117 97.2319 49.2503 96.8675 49.5551 96.5693C49.8665 96.2645 50.2309 96.0292 50.6484 95.8636C51.0725 95.6979 51.533 95.6151 52.03 95.6151C52.4408 95.6151 52.8351 95.6847 53.2128 95.8238L52.4474 98.915C52.4077 99.0806 52.3745 99.2364 52.348 99.3821C52.3215 99.5279 52.3083 99.6671 52.3083 99.7996C52.3083 99.9785 52.3248 100.147 52.358 100.307C52.3911 100.466 52.4507 100.641 52.5369 100.833L51.8709 100.933ZM54.7977 95.963C55.0495 95.8636 55.3245 95.7808 55.6227 95.7145C55.9275 95.6482 56.2257 95.6151 56.5172 95.6151C56.6696 95.6151 56.8154 95.625 56.9546 95.6449C57.0937 95.6648 57.2262 95.6979 57.3521 95.7443L57.1832 96.3307C56.9247 96.2512 56.6597 96.2115 56.388 96.2115C56.2157 96.2115 56.0434 96.2247 55.8712 96.2512C55.6989 96.2777 55.5266 96.3175 55.3543 96.3705L54.2709 100.873H53.6249L54.7977 95.963ZM61.262 96.281C61.05 96.228 60.8446 96.2015 60.6458 96.2015C60.1886 96.2015 59.791 96.281 59.4531 96.4401C59.1218 96.5991 58.8468 96.8045 58.6281 97.0563C58.4094 97.3015 58.2471 97.5765 58.1411 97.8813C58.0351 98.1795 57.982 98.4677 57.982 98.746C57.982 98.9249 57.9986 99.0972 58.0317 99.2629C58.0649 99.4219 58.1212 99.561 58.2007 99.6803C58.2802 99.7996 58.3896 99.8957 58.5287 99.9686C58.6679 100.035 58.8468 100.068 59.0654 100.068C59.2907 100.068 59.5227 100.028 59.7612 99.9487C60.0064 99.8625 60.2383 99.7499 60.457 99.6107L61.262 96.281ZM56.8092 101.758C56.9483 101.87 57.1471 101.963 57.4056 102.036C57.6706 102.109 57.9323 102.145 58.1908 102.145C58.8004 102.145 59.2675 102.006 59.5922 101.728C59.9235 101.45 60.1389 101.055 60.2383 100.545L60.288 100.287C60.0892 100.413 59.8772 100.509 59.6519 100.575C59.4266 100.635 59.2013 100.664 58.976 100.664C58.6911 100.664 58.4426 100.618 58.2305 100.525C58.0251 100.432 57.8561 100.307 57.7236 100.147C57.5911 99.9818 57.4917 99.793 57.4254 99.5809C57.3592 99.3623 57.326 99.1303 57.326 98.8852C57.326 98.5075 57.3923 98.1265 57.5248 97.7421C57.664 97.3512 57.876 97 58.161 96.6886C58.4459 96.3705 58.8004 96.1121 59.2245 95.9133C59.6552 95.7145 60.1654 95.6151 60.7551 95.6151C60.9937 95.6151 61.219 95.6416 61.431 95.6946C61.6431 95.741 61.8319 95.8106 61.9976 95.9033L60.8843 100.535C60.8181 100.813 60.7319 101.085 60.6259 101.35C60.5199 101.615 60.3642 101.85 60.1588 102.056C59.9534 102.261 59.6784 102.427 59.3338 102.553C58.9959 102.679 58.5585 102.742 58.0218 102.742C57.9158 102.742 57.7965 102.732 57.664 102.712C57.5315 102.699 57.3956 102.675 57.2565 102.642C57.1239 102.609 56.9947 102.569 56.8688 102.523C56.7429 102.483 56.6303 102.434 56.5309 102.374L56.8092 101.758ZM66.9515 96.937C66.9515 97.3081 66.8587 97.6096 66.6732 97.8415C66.4943 98.0735 66.2392 98.259 65.9079 98.3981C65.5832 98.5307 65.1889 98.6267 64.7251 98.6864C64.2679 98.746 63.7576 98.7891 63.1944 98.8156V99.0243C63.1944 99.2165 63.2143 99.3954 63.254 99.561C63.2938 99.7267 63.3667 99.8725 63.4727 99.9984C63.5787 100.118 63.7245 100.214 63.91 100.287C64.1022 100.36 64.3474 100.396 64.6456 100.396C64.8775 100.396 65.1094 100.363 65.3413 100.297C65.5799 100.23 65.8052 100.131 66.0172 99.9984L66.0868 100.595C65.8615 100.721 65.613 100.817 65.3413 100.883C65.0696 100.956 64.7946 100.992 64.5163 100.992C64.1519 100.992 63.8438 100.946 63.592 100.853C63.3468 100.76 63.1447 100.631 62.9857 100.466C62.8333 100.3 62.7239 100.101 62.6577 99.8692C62.5914 99.6372 62.5583 99.3821 62.5583 99.1038C62.5583 98.6798 62.6212 98.259 62.7471 97.8415C62.8797 97.4241 63.0718 97.0497 63.3236 96.7184C63.5754 96.3871 63.8835 96.122 64.248 95.9232C64.619 95.7178 65.0398 95.6151 65.5103 95.6151C65.9741 95.6151 66.3286 95.7377 66.5738 95.9829C66.8256 96.2214 66.9515 96.5395 66.9515 96.937ZM65.4506 96.2015C65.1856 96.2015 64.9371 96.2579 64.7052 96.3705C64.4733 96.4765 64.2645 96.6223 64.079 96.8078C63.8935 96.9934 63.7311 97.2087 63.592 97.4539C63.4595 97.6991 63.3601 97.9575 63.2938 98.2292C63.857 98.2159 64.3308 98.1795 64.7151 98.1198C65.0995 98.0602 65.4076 97.9774 65.6395 97.8713C65.878 97.7653 66.047 97.6394 66.1464 97.4937C66.2458 97.3412 66.2955 97.169 66.2955 96.9768C66.2955 96.7184 66.216 96.5262 66.0569 96.4003C65.9045 96.2678 65.7024 96.2015 65.4506 96.2015ZM68.803 94.2236L69.4789 94.1043L69.0913 95.7344H70.9002L70.771 96.291H68.9521L68.3458 98.8057C68.3127 98.9249 68.2829 99.0541 68.2563 99.1933C68.2365 99.3258 68.2265 99.4583 68.2265 99.5909C68.2265 99.889 68.2994 100.098 68.4452 100.217C68.591 100.336 68.7732 100.396 68.9919 100.396C69.2039 100.396 69.3861 100.373 69.5385 100.326C69.6976 100.28 69.8632 100.217 70.0355 100.138L70.0951 100.724C69.9162 100.797 69.7141 100.86 69.4888 100.913C69.2702 100.966 69.0515 100.992 68.8328 100.992C68.6606 100.992 68.4982 100.972 68.3458 100.933C68.1934 100.893 68.0576 100.827 67.9383 100.734C67.8256 100.641 67.7329 100.519 67.66 100.366C67.5937 100.214 67.5606 100.022 67.5606 99.7897C67.5606 99.5047 67.607 99.1767 67.6997 98.8057L68.803 94.2236Z" fill="#414652" fill-opacity="0.6"/>
<path d="M23.2374 198.349H23.9133L22.4025 204.661H25.4539L25.3247 205.237H21.5974L23.2374 198.349ZM26.6539 203.587C26.6539 203.978 26.7633 204.273 26.9819 204.472C27.2006 204.671 27.4623 204.77 27.7672 204.77C28.0057 204.77 28.2509 204.711 28.5027 204.591C28.7545 204.465 28.9831 204.28 29.1885 204.035C29.4005 203.783 29.5728 203.468 29.7053 203.09C29.8445 202.713 29.9141 202.269 29.9141 201.759C29.9141 201.368 29.8047 201.073 29.5861 200.874C29.3674 200.675 29.1057 200.576 28.8009 200.576C28.5623 200.576 28.3171 200.639 28.0653 200.765C27.8135 200.884 27.5816 201.069 27.3696 201.321C27.1642 201.566 26.9919 201.878 26.8527 202.255C26.7202 202.633 26.6539 203.077 26.6539 203.587ZM30.5701 201.709C30.5701 202.332 30.4806 202.872 30.3017 203.329C30.1294 203.786 29.9041 204.167 29.6258 204.472C29.3541 204.77 29.0493 204.992 28.7114 205.138C28.3801 205.284 28.0521 205.357 27.7274 205.357C27.4955 205.357 27.2735 205.32 27.0615 205.247C26.856 205.174 26.6738 205.065 26.5148 204.919C26.3558 204.773 26.2299 204.595 26.1371 204.383C26.0443 204.164 25.9979 203.912 25.9979 203.627C25.9979 203.004 26.0841 202.464 26.2564 202.007C26.4353 201.55 26.6606 201.172 26.9322 200.874C27.2105 200.576 27.5154 200.354 27.8467 200.208C28.1846 200.062 28.5159 199.989 28.8406 199.989C29.0725 199.989 29.2912 200.026 29.4966 200.099C29.7086 200.172 29.8942 200.281 30.0532 200.427C30.2122 200.572 30.3381 200.755 30.4309 200.973C30.5237 201.185 30.5701 201.431 30.5701 201.709ZM32.7007 205.237H32.0249C31.8857 204.508 31.7731 203.71 31.6869 202.842C31.6074 201.974 31.561 201.059 31.5478 200.099H32.1839C32.1905 200.45 32.2038 200.834 32.2237 201.252C32.2435 201.662 32.27 202.073 32.3032 202.484C32.3363 202.895 32.3727 203.283 32.4125 203.647C32.4523 204.011 32.4986 204.316 32.5517 204.561C32.7637 204.263 32.979 203.932 33.1977 203.567C33.423 203.203 33.635 202.825 33.8338 202.434C34.0392 202.037 34.2281 201.639 34.4004 201.242C34.5793 200.844 34.7284 200.463 34.8477 200.099H35.5136C35.5136 200.423 35.5202 200.778 35.5335 201.162C35.5533 201.546 35.5765 201.937 35.603 202.335C35.6296 202.733 35.6594 203.124 35.6925 203.508C35.7323 203.892 35.7753 204.243 35.8217 204.561C35.9807 204.383 36.1729 204.114 36.3982 203.756C36.6301 203.392 36.862 202.998 37.094 202.574C37.3259 202.143 37.5412 201.709 37.74 201.271C37.9454 200.834 38.0978 200.443 38.1972 200.099H38.8333C38.6809 200.589 38.4822 201.093 38.237 201.609C37.9918 202.12 37.7301 202.607 37.4518 203.071C37.1801 203.528 36.9084 203.948 36.6367 204.333C36.3651 204.711 36.1265 205.012 35.9211 205.237H35.2452C35.179 204.654 35.116 204.025 35.0564 203.349C34.9967 202.673 34.9603 202.007 34.947 201.351C34.8145 201.662 34.6588 201.997 34.4799 202.355C34.3076 202.706 34.1221 203.057 33.9233 203.408C33.7245 203.753 33.5191 204.084 33.307 204.402C33.1016 204.72 32.8995 204.999 32.7007 205.237ZM43.9434 198.936H41.8362L41.9654 198.349H46.8655L46.7264 198.936H44.6192L43.1085 205.237H42.4326L43.9434 198.936ZM49.5393 200.655C49.42 200.629 49.3107 200.609 49.2113 200.596C49.1119 200.582 49.0092 200.576 48.9032 200.576C48.4924 200.576 48.1279 200.655 47.8099 200.814C47.4918 200.973 47.2234 201.182 47.0048 201.44C46.7861 201.699 46.6171 201.994 46.4979 202.325C46.3852 202.656 46.3289 202.994 46.3289 203.339C46.3289 203.611 46.3554 203.839 46.4084 204.025C46.4614 204.204 46.5343 204.349 46.6271 204.462C46.7198 204.568 46.8259 204.648 46.9451 204.701C47.071 204.747 47.2036 204.77 47.3427 204.77C47.6144 204.77 47.8695 204.707 48.108 204.581C48.3466 204.449 48.5719 204.263 48.7839 204.025C48.7839 203.846 48.8104 203.64 48.8634 203.408C48.9164 203.177 48.9661 202.968 49.0125 202.782L49.5393 200.655ZM48.9628 205.297C48.9231 205.217 48.8866 205.128 48.8535 205.029C48.827 204.923 48.8071 204.817 48.7939 204.711C48.5619 204.936 48.3168 205.101 48.0583 205.207C47.8066 205.314 47.5448 205.367 47.2731 205.367C47.0611 205.367 46.859 205.33 46.6668 205.257C46.4747 205.184 46.3057 205.072 46.1599 204.919C46.0141 204.767 45.8949 204.571 45.8021 204.333C45.716 204.088 45.6729 203.799 45.6729 203.468C45.6729 202.938 45.759 202.458 45.9313 202.027C46.1036 201.596 46.3421 201.232 46.647 200.934C46.9584 200.629 47.3228 200.394 47.7403 200.228C48.1644 200.062 48.6249 199.979 49.1219 199.979C49.5327 199.979 49.927 200.049 50.3047 200.188L49.5393 203.279C49.4996 203.445 49.4664 203.601 49.4399 203.746C49.4134 203.892 49.4002 204.031 49.4002 204.164C49.4002 204.343 49.4167 204.512 49.4499 204.671C49.483 204.83 49.5426 205.005 49.6288 205.198L48.9628 205.297ZM51.8896 200.327C52.1414 200.228 52.4164 200.145 52.7146 200.079C53.0194 200.012 53.3176 199.979 53.6091 199.979C53.7615 199.979 53.9073 199.989 54.0464 200.009C54.1856 200.029 54.3181 200.062 54.444 200.109L54.2751 200.695C54.0166 200.615 53.7516 200.576 53.4799 200.576C53.3076 200.576 53.1353 200.589 52.9631 200.615C52.7908 200.642 52.6185 200.682 52.4462 200.735L51.3628 205.237H50.7167L51.8896 200.327ZM58.3539 200.645C58.1419 200.592 57.9365 200.566 57.7377 200.566C57.2805 200.566 56.8829 200.645 56.545 200.804C56.2136 200.963 55.9387 201.169 55.72 201.421C55.5013 201.666 55.339 201.941 55.233 202.246C55.1269 202.544 55.0739 202.832 55.0739 203.11C55.0739 203.289 55.0905 203.461 55.1236 203.627C55.1568 203.786 55.2131 203.925 55.2926 204.045C55.3721 204.164 55.4814 204.26 55.6206 204.333C55.7597 204.399 55.9387 204.432 56.1573 204.432C56.3826 204.432 56.6145 204.392 56.8531 204.313C57.0983 204.227 57.3302 204.114 57.5488 203.975L58.3539 200.645ZM53.9011 206.122C54.0402 206.235 54.239 206.327 54.4974 206.4C54.7625 206.473 55.0242 206.51 55.2827 206.51C55.8923 206.51 56.3594 206.37 56.6841 206.092C57.0154 205.814 57.2308 205.42 57.3302 204.909L57.3799 204.651C57.1811 204.777 56.969 204.873 56.7437 204.939C56.5185 204.999 56.2932 205.029 56.0679 205.029C55.7829 205.029 55.5345 204.982 55.3224 204.889C55.117 204.797 54.948 204.671 54.8155 204.512C54.683 204.346 54.5836 204.157 54.5173 203.945C54.4511 203.727 54.4179 203.495 54.4179 203.249C54.4179 202.872 54.4842 202.491 54.6167 202.106C54.7559 201.715 54.9679 201.364 55.2528 201.053C55.5378 200.735 55.8923 200.476 56.3164 200.278C56.7471 200.079 57.2573 199.979 57.847 199.979C58.0856 199.979 58.3109 200.006 58.5229 200.059C58.7349 200.105 58.9238 200.175 59.0894 200.268L57.9762 204.899C57.91 205.178 57.8238 205.449 57.7178 205.714C57.6118 205.979 57.4561 206.215 57.2507 206.42C57.0452 206.626 56.7703 206.791 56.4257 206.917C56.0877 207.043 55.6504 207.106 55.1137 207.106C55.0077 207.106 54.8884 207.096 54.7559 207.076C54.6233 207.063 54.4875 207.04 54.3484 207.007C54.2158 206.973 54.0866 206.934 53.9607 206.887C53.8348 206.847 53.7222 206.798 53.6228 206.738L53.9011 206.122ZM64.0434 201.301C64.0434 201.672 63.9506 201.974 63.7651 202.206C63.5862 202.438 63.3311 202.623 62.9997 202.762C62.6751 202.895 62.2808 202.991 61.817 203.051C61.3597 203.11 60.8495 203.153 60.2863 203.18V203.389C60.2863 203.581 60.3062 203.76 60.3459 203.925C60.3857 204.091 60.4586 204.237 60.5646 204.363C60.6706 204.482 60.8164 204.578 61.0019 204.651C61.1941 204.724 61.4393 204.76 61.7374 204.76C61.9694 204.76 62.2013 204.727 62.4332 204.661C62.6717 204.595 62.897 204.495 63.1091 204.363L63.1787 204.959C62.9534 205.085 62.7049 205.181 62.4332 205.247C62.1615 205.32 61.8865 205.357 61.6082 205.357C61.2438 205.357 60.9357 205.31 60.6839 205.217C60.4387 205.125 60.2366 204.995 60.0776 204.83C59.9252 204.664 59.8158 204.465 59.7496 204.233C59.6833 204.002 59.6502 203.746 59.6502 203.468C59.6502 203.044 59.7131 202.623 59.839 202.206C59.9715 201.788 60.1637 201.414 60.4155 201.083C60.6673 200.751 60.9754 200.486 61.3399 200.287C61.7109 200.082 62.1317 199.979 62.6022 199.979C63.066 199.979 63.4205 200.102 63.6657 200.347C63.9175 200.586 64.0434 200.904 64.0434 201.301ZM62.5425 200.566C62.2775 200.566 62.029 200.622 61.7971 200.735C61.5652 200.841 61.3564 200.987 61.1709 201.172C60.9854 201.358 60.823 201.573 60.6839 201.818C60.5513 202.063 60.4519 202.322 60.3857 202.593C60.9489 202.58 61.4227 202.544 61.807 202.484C62.1913 202.424 62.4995 202.342 62.7314 202.236C62.9699 202.13 63.1389 202.004 63.2383 201.858C63.3377 201.706 63.3874 201.533 63.3874 201.341C63.3874 201.083 63.3079 200.89 63.1488 200.765C62.9964 200.632 62.7943 200.566 62.5425 200.566ZM65.8949 198.588L66.5708 198.469L66.1831 200.099H67.9921L67.8629 200.655H66.044L65.4377 203.17C65.4046 203.289 65.3747 203.418 65.3482 203.558C65.3284 203.69 65.3184 203.823 65.3184 203.955C65.3184 204.253 65.3913 204.462 65.5371 204.581C65.6829 204.701 65.8651 204.76 66.0838 204.76C66.2958 204.76 66.478 204.737 66.6304 204.691C66.7894 204.644 66.9551 204.581 67.1274 204.502L67.187 205.088C67.0081 205.161 66.806 205.224 66.5807 205.277C66.3621 205.33 66.1434 205.357 65.9247 205.357C65.7524 205.357 65.5901 205.337 65.4377 205.297C65.2853 205.257 65.1494 205.191 65.0302 205.098C64.9175 205.005 64.8248 204.883 64.7519 204.73C64.6856 204.578 64.6525 204.386 64.6525 204.154C64.6525 203.869 64.6989 203.541 64.7916 203.17L65.8949 198.588Z" fill="#414652" fill-opacity="0.6"/>
<line x1="7" y1="189.181" x2="333.474" y2="189.181" stroke="black" stroke-width="0.765102" stroke-dasharray="6.12 6.12"/>
<rect x="143.17" y="14.3457" width="82.497" height="33.7939" rx="15.903" fill="#CC2E3D"/>
<path d="M175.66 35.1659V37.2969H168.297V26.2761H170.778V35.1659H175.66ZM184.923 33.0985C184.923 33.7558 184.827 34.3601 184.637 34.9114C184.446 35.4521 184.17 35.9186 183.81 36.3109C183.449 36.6926 183.015 36.9894 182.506 37.2015C182.007 37.4135 181.445 37.5195 180.82 37.5195C180.205 37.5195 179.643 37.4135 179.134 37.2015C178.636 36.9894 178.207 36.6926 177.846 36.3109C177.486 35.9186 177.205 35.4521 177.003 34.9114C176.802 34.3601 176.701 33.7558 176.701 33.0985C176.701 32.4411 176.802 31.8421 177.003 31.3014C177.215 30.7607 177.501 30.2995 177.862 29.9179C178.233 29.5362 178.668 29.2393 179.166 29.0273C179.675 28.8153 180.226 28.7092 180.82 28.7092C181.424 28.7092 181.976 28.8153 182.474 29.0273C182.983 29.2393 183.417 29.5362 183.778 29.9179C184.138 30.2995 184.419 30.7607 184.621 31.3014C184.822 31.8421 184.923 32.4411 184.923 33.0985ZM182.506 33.0985C182.506 32.3669 182.357 31.7944 182.06 31.3809C181.774 30.9569 181.361 30.7448 180.82 30.7448C180.279 30.7448 179.86 30.9569 179.564 31.3809C179.267 31.7944 179.118 32.3669 179.118 33.0985C179.118 33.83 179.267 34.4131 179.564 34.8478C179.86 35.2719 180.279 35.4839 180.82 35.4839C181.361 35.4839 181.774 35.2719 182.06 34.8478C182.357 34.4131 182.506 33.83 182.506 33.0985ZM189.16 35.5953C189.595 35.5953 189.902 35.5528 190.082 35.468C190.262 35.3832 190.353 35.2189 190.353 34.975C190.353 34.7842 190.236 34.6199 190.003 34.482C189.769 34.3336 189.414 34.1693 188.937 33.989C188.566 33.8512 188.227 33.7081 187.919 33.5597C187.623 33.4112 187.368 33.2363 187.156 33.0349C186.944 32.8228 186.78 32.5737 186.663 32.2874C186.546 32.0012 186.488 31.6566 186.488 31.2537C186.488 30.4692 186.78 29.849 187.363 29.3931C187.946 28.9372 188.746 28.7092 189.764 28.7092C190.273 28.7092 190.761 28.7569 191.227 28.8524C191.694 28.9372 192.065 29.0326 192.34 29.1386L191.927 30.9834C191.651 30.888 191.349 30.8031 191.02 30.7289C190.702 30.6547 190.342 30.6176 189.939 30.6176C189.197 30.6176 188.826 30.8243 188.826 31.2378C188.826 31.3332 188.842 31.4181 188.874 31.4923C188.905 31.5665 188.969 31.6407 189.064 31.7149C189.16 31.7785 189.287 31.8527 189.446 31.9376C189.616 32.0118 189.828 32.0966 190.082 32.192C190.602 32.3828 191.031 32.5737 191.37 32.7645C191.71 32.9447 191.975 33.1462 192.165 33.3688C192.367 33.5809 192.505 33.8194 192.579 34.0845C192.664 34.3495 192.706 34.657 192.706 35.0068C192.706 35.8338 192.393 36.4593 191.768 36.8834C191.153 37.3075 190.278 37.5195 189.144 37.5195C188.402 37.5195 187.782 37.4559 187.283 37.3287C186.796 37.2015 186.456 37.0954 186.265 37.0106L186.663 35.0864C187.066 35.2454 187.479 35.3726 187.903 35.468C188.328 35.5528 188.746 35.5953 189.16 35.5953ZM196.878 35.5953C197.313 35.5953 197.621 35.5528 197.801 35.468C197.981 35.3832 198.071 35.2189 198.071 34.975C198.071 34.7842 197.954 34.6199 197.721 34.482C197.488 34.3336 197.133 34.1693 196.656 33.989C196.285 33.8512 195.945 33.7081 195.638 33.5597C195.341 33.4112 195.087 33.2363 194.875 33.0349C194.663 32.8228 194.498 32.5737 194.382 32.2874C194.265 32.0012 194.207 31.6566 194.207 31.2537C194.207 30.4692 194.498 29.849 195.081 29.3931C195.664 28.9372 196.465 28.7092 197.483 28.7092C197.992 28.7092 198.479 28.7569 198.946 28.8524C199.412 28.9372 199.783 29.0326 200.059 29.1386L199.646 30.9834C199.37 30.888 199.068 30.8031 198.739 30.7289C198.421 30.6547 198.061 30.6176 197.658 30.6176C196.915 30.6176 196.544 30.8243 196.544 31.2378C196.544 31.3332 196.56 31.4181 196.592 31.4923C196.624 31.5665 196.688 31.6407 196.783 31.7149C196.878 31.7785 197.006 31.8527 197.165 31.9376C197.334 32.0118 197.546 32.0966 197.801 32.192C198.32 32.3828 198.75 32.5737 199.089 32.7645C199.428 32.9447 199.693 33.1462 199.884 33.3688C200.085 33.5809 200.223 33.8194 200.298 34.0845C200.382 34.3495 200.425 34.657 200.425 35.0068C200.425 35.8338 200.112 36.4593 199.486 36.8834C198.872 37.3075 197.997 37.5195 196.862 37.5195C196.12 37.5195 195.5 37.4559 195.002 37.3287C194.514 37.2015 194.175 37.0954 193.984 37.0106L194.382 35.0864C194.784 35.2454 195.198 35.3726 195.622 35.468C196.046 35.5528 196.465 35.5953 196.878 35.5953Z" fill="white"/>
<path d="M21.8733 142.802C23.0819 142.802 23.6862 142.389 23.6862 141.562C23.6862 141.307 23.6306 141.092 23.5192 140.918C23.4159 140.735 23.2727 140.58 23.0899 140.452C22.907 140.317 22.6963 140.202 22.4577 140.106C22.2271 140.011 21.9806 139.916 21.7182 139.82C21.4161 139.717 21.1298 139.602 20.8595 139.474C20.5891 139.339 20.3545 139.184 20.1558 139.009C19.957 138.826 19.7979 138.612 19.6787 138.365C19.5673 138.119 19.5117 137.82 19.5117 137.471C19.5117 136.747 19.7582 136.182 20.2512 135.777C20.7442 135.371 21.424 135.169 22.2907 135.169C22.7917 135.169 23.2449 135.224 23.6504 135.336C24.0639 135.439 24.3661 135.554 24.5569 135.681L24.1872 136.624C24.0202 136.52 23.7697 136.421 23.4358 136.326C23.1097 136.222 22.7281 136.17 22.2907 136.17C22.0681 136.17 21.8614 136.194 21.6705 136.242C21.4797 136.29 21.3127 136.361 21.1696 136.457C21.0264 136.552 20.9111 136.675 20.8237 136.826C20.7442 136.97 20.7044 137.141 20.7044 137.339C20.7044 137.562 20.7481 137.749 20.8356 137.9C20.9231 138.051 21.0463 138.186 21.2054 138.305C21.3644 138.417 21.5473 138.52 21.754 138.616C21.9687 138.711 22.2033 138.806 22.4577 138.902C22.8155 139.045 23.1415 139.188 23.4358 139.331C23.7379 139.474 23.9963 139.645 24.211 139.844C24.4337 140.043 24.6046 140.281 24.7239 140.56C24.8432 140.83 24.9028 141.16 24.9028 141.55C24.9028 142.273 24.6364 142.83 24.1037 143.219C23.5789 143.609 22.8354 143.804 21.8733 143.804C21.5473 143.804 21.2451 143.78 20.9668 143.732C20.6965 143.693 20.4539 143.645 20.2392 143.589C20.0246 143.526 19.8377 143.462 19.6787 143.398C19.5276 143.327 19.4083 143.267 19.3208 143.219L19.6667 142.265C19.8496 142.369 20.1279 142.484 20.5016 142.611C20.8754 142.738 21.3326 142.802 21.8733 142.802ZM27.2671 137.423H29.6168V138.353H27.2671V141.216C27.2671 141.526 27.291 141.784 27.3387 141.991C27.3864 142.19 27.4579 142.349 27.5534 142.468C27.6488 142.579 27.7681 142.659 27.9112 142.707C28.0543 142.754 28.2213 142.778 28.4121 142.778C28.7461 142.778 29.0125 142.742 29.2113 142.671C29.418 142.591 29.5611 142.536 29.6406 142.504L29.8553 143.422C29.744 143.478 29.5492 143.545 29.2709 143.625C28.9926 143.712 28.6745 143.756 28.3167 143.756C27.8953 143.756 27.5454 143.705 27.2671 143.601C26.9968 143.49 26.7781 143.327 26.6111 143.112C26.4441 142.897 26.3249 142.635 26.2533 142.325C26.1897 142.007 26.1579 141.641 26.1579 141.228V135.693L27.2671 135.503V137.423ZM33.1275 142.826C33.3899 142.826 33.6205 142.822 33.8193 142.814C34.026 142.798 34.197 142.774 34.3322 142.742V140.894C34.2526 140.854 34.1214 140.822 33.9386 140.798C33.7636 140.766 33.5489 140.751 33.2945 140.751C33.1275 140.751 32.9486 140.762 32.7578 140.786C32.5749 140.81 32.4039 140.862 32.2449 140.941C32.0938 141.013 31.9666 141.116 31.8632 141.251C31.7598 141.379 31.7082 141.55 31.7082 141.764C31.7082 142.162 31.8354 142.44 32.0898 142.599C32.3443 142.75 32.6902 142.826 33.1275 142.826ZM33.0321 137.268C33.4774 137.268 33.8511 137.327 34.1532 137.447C34.4634 137.558 34.7099 137.721 34.8927 137.936C35.0836 138.142 35.2188 138.393 35.2983 138.687C35.3778 138.973 35.4175 139.291 35.4175 139.641V143.518C35.3221 143.534 35.1869 143.557 35.012 143.589C34.845 143.613 34.6542 143.637 34.4395 143.661C34.2248 143.685 33.9902 143.705 33.7358 143.72C33.4893 143.744 33.2428 143.756 32.9963 143.756C32.6464 143.756 32.3244 143.72 32.0302 143.649C31.736 143.577 31.4815 143.466 31.2668 143.315C31.0522 143.156 30.8852 142.949 30.7659 142.695C30.6466 142.44 30.587 142.134 30.587 141.776C30.587 141.434 30.6546 141.14 30.7898 140.894C30.9329 140.647 31.1237 140.448 31.3623 140.297C31.6008 140.146 31.8791 140.035 32.1972 139.963C32.5152 139.892 32.8492 139.856 33.1991 139.856C33.3104 139.856 33.4257 139.864 33.545 139.88C33.6642 139.888 33.7756 139.904 33.8789 139.928C33.9902 139.943 34.0857 139.959 34.1652 139.975C34.2447 139.991 34.3004 140.003 34.3322 140.011V139.701C34.3322 139.518 34.3123 139.339 34.2725 139.164C34.2328 138.981 34.1612 138.822 34.0578 138.687C33.9545 138.544 33.8113 138.433 33.6284 138.353C33.4535 138.266 33.2229 138.222 32.9367 138.222C32.5709 138.222 32.2489 138.25 31.9706 138.305C31.7002 138.353 31.4974 138.405 31.3623 138.46L31.2311 137.542C31.3742 137.478 31.6127 137.419 31.9467 137.363C32.2807 137.3 32.6425 137.268 33.0321 137.268ZM39.5499 137.292C39.6453 137.292 39.7526 137.3 39.8719 137.315C39.9991 137.323 40.1224 137.339 40.2417 137.363C40.3609 137.379 40.4683 137.399 40.5637 137.423C40.6671 137.439 40.7426 137.455 40.7903 137.471L40.5995 138.437C40.512 138.405 40.3649 138.369 40.1582 138.329C39.9594 138.282 39.701 138.258 39.3829 138.258C39.1762 138.258 38.9694 138.282 38.7627 138.329C38.5639 138.369 38.4327 138.397 38.3691 138.413V143.625H37.2598V137.685C37.5222 137.59 37.8483 137.502 38.2379 137.423C38.6275 137.335 39.0648 137.292 39.5499 137.292ZM42.8984 137.423H45.248V138.353H42.8984V141.216C42.8984 141.526 42.9222 141.784 42.9699 141.991C43.0176 142.19 43.0892 142.349 43.1846 142.468C43.28 142.579 43.3993 142.659 43.5424 142.707C43.6856 142.754 43.8525 142.778 44.0434 142.778C44.3773 142.778 44.6437 142.742 44.8425 142.671C45.0492 142.591 45.1924 142.536 45.2719 142.504L45.4866 143.422C45.3753 143.478 45.1804 143.545 44.9021 143.625C44.6238 143.712 44.3058 143.756 43.948 143.756C43.5265 143.756 43.1767 143.705 42.8984 143.601C42.628 143.49 42.4093 143.327 42.2424 143.112C42.0754 142.897 41.9561 142.635 41.8845 142.325C41.8209 142.007 41.7891 141.641 41.7891 141.228V135.693L42.8984 135.503V137.423Z" fill="#414652"/>
<path d="M49.2424 158.467C49.2424 162.859 45.6824 166.419 41.2909 166.419C36.8994 166.419 33.3394 162.859 33.3394 158.467C33.3394 154.076 36.8994 150.516 41.2909 150.516C45.6824 150.516 49.2424 154.076 49.2424 158.467Z" fill="#FF444F"/>
<path d="M259.461 77.9584C259.461 82.3499 255.901 85.9099 251.509 85.9099C247.118 85.9099 243.558 82.3499 243.558 77.9584C243.558 73.5669 247.118 70.0068 251.509 70.0068C255.901 70.0068 259.461 73.5669 259.461 77.9584Z" fill="#FF444F"/>
<path d="M216.753 74.0488V65.7832H221.799V66.7732H217.91V69.2302H221.369V70.1963H217.91V73.0589H222.097V74.0488H216.753ZM223.496 68.0256C223.75 67.9619 224.088 67.8944 224.509 67.8228C224.931 67.7512 225.416 67.7154 225.965 67.7154C226.458 67.7154 226.867 67.787 227.193 67.9301C227.519 68.0653 227.778 68.2601 227.968 68.5146C228.167 68.7611 228.306 69.0593 228.386 69.4091C228.465 69.759 228.505 70.1446 228.505 70.5661V74.0488H227.396V70.8046C227.396 70.4229 227.368 70.0969 227.312 69.8266C227.265 69.5562 227.181 69.3376 227.062 69.1706C226.943 69.0036 226.784 68.8843 226.585 68.8128C226.386 68.7332 226.14 68.6935 225.845 68.6935C225.726 68.6935 225.603 68.6975 225.476 68.7054C225.348 68.7134 225.225 68.7253 225.106 68.7412C224.995 68.7491 224.891 68.7611 224.796 68.777C224.708 68.7929 224.645 68.8048 224.605 68.8128V74.0488H223.496V68.0256ZM234.352 69.1586C234.217 69.0473 234.022 68.94 233.768 68.8366C233.513 68.7332 233.235 68.6816 232.933 68.6816C232.615 68.6816 232.34 68.7412 232.11 68.8605C231.887 68.9718 231.704 69.1308 231.561 69.3376C231.418 69.5363 231.315 69.7749 231.251 70.0532C231.187 70.3315 231.156 70.6297 231.156 70.9477C231.156 71.6713 231.334 72.2319 231.692 72.6295C232.05 73.0191 232.527 73.2139 233.124 73.2139C233.426 73.2139 233.676 73.202 233.875 73.1781C234.082 73.1463 234.241 73.1145 234.352 73.0827V69.1586ZM234.352 64.9841L235.461 64.7933V73.8699C235.207 73.9415 234.881 74.013 234.483 74.0846C234.086 74.1562 233.628 74.192 233.112 74.192C232.635 74.192 232.205 74.1164 231.823 73.9653C231.442 73.8143 231.116 73.5996 230.845 73.3213C230.575 73.043 230.364 72.705 230.213 72.3074C230.07 71.9019 229.999 71.4487 229.999 70.9477C229.999 70.4706 230.058 70.0333 230.178 69.6357C230.305 69.2382 230.488 68.8962 230.726 68.61C230.965 68.3237 231.255 68.1011 231.597 67.9421C231.947 67.783 232.344 67.7035 232.79 67.7035C233.147 67.7035 233.461 67.7512 233.732 67.8466C234.01 67.9421 234.217 68.0335 234.352 68.121V64.9841Z" fill="#414652"/>
<defs>
<filter id="filter0_d_2591_27017" x="0.0977015" y="0.872692" width="341.805" height="227.502" filterUnits="userSpaceOnUse" color-interpolation-filters="sRGB">
<feFlood flood-opacity="0" result="BackgroundImageFix"/>
<feColorMatrix in="SourceAlpha" type="matrix" values="0 0 0 0 0 0 0 0 0 0 0 0 0 0 0 0 0 0 127 0" result="hardAlpha"/>
<feOffset dy="1.38046"/>
<feGaussianBlur stdDeviation="3.45115"/>
<feComposite in2="hardAlpha" operator="out"/>
<feColorMatrix type="matrix" values="0 0 0 0 0 0 0 0 0 0 0 0 0 0 0 0 0 0 0.1 0"/>
<feBlend mode="normal" in2="BackgroundImageFix" result="effect1_dropShadow_2591_27017"/>
<feBlend mode="normal" in="SourceGraphic" in2="effect1_dropShadow_2591_27017" result="shape"/>
</filter>
</defs>
</svg>
