<svg width="342" height="228" viewBox="0 0 342 228" fill="none" xmlns="http://www.w3.org/2000/svg">
<g filter="url(#filter0_d_2470_23482)">
<rect x="7" y="5.69727" width="328" height="213.697" rx="4.14138" fill="white"/>
</g>
<path d="M34.8104 36.251V26.6078H41.2671V28.4307H36.9812V30.4484H40.794V32.2712H36.9812V36.251H34.8104ZM45.1188 34.8038C45.3229 34.8038 45.5177 34.7992 45.7033 34.7899C45.8888 34.7806 46.0372 34.7667 46.1486 34.7481V33.1757C46.0651 33.1572 45.9398 33.1386 45.7729 33.1201C45.6059 33.1015 45.4528 33.0922 45.3137 33.0922C45.1188 33.0922 44.9333 33.1062 44.7571 33.134C44.5901 33.1525 44.4416 33.1943 44.3118 33.2592C44.1819 33.3242 44.0798 33.4123 44.0056 33.5236C43.9314 33.6349 43.8943 33.7741 43.8943 33.9411C43.8943 34.2657 44.001 34.493 44.2144 34.6229C44.437 34.7435 44.7385 34.8038 45.1188 34.8038ZM44.9519 28.7368C45.5641 28.7368 46.0744 28.8064 46.4825 28.9455C46.8907 29.0847 47.2154 29.2841 47.4566 29.5439C47.7071 29.8036 47.8833 30.119 47.9854 30.4901C48.0874 30.8612 48.1384 31.274 48.1384 31.7286V36.0422C47.8416 36.1072 47.4288 36.1814 46.9 36.2649C46.3712 36.3577 45.7311 36.404 44.9797 36.404C44.5066 36.404 44.0752 36.3623 43.6856 36.2788C43.3052 36.1953 42.9759 36.0608 42.6976 35.8753C42.4193 35.6805 42.2059 35.43 42.0575 35.1238C41.9091 34.8177 41.8349 34.442 41.8349 33.9967C41.8349 33.57 41.9184 33.2082 42.0853 32.9113C42.2616 32.6145 42.4935 32.3779 42.7811 32.2017C43.0687 32.0254 43.398 31.9002 43.7691 31.826C44.1401 31.7425 44.5251 31.7007 44.924 31.7007C45.1931 31.7007 45.4296 31.7146 45.6337 31.7425C45.8471 31.761 46.0187 31.7889 46.1486 31.826V31.6311C46.1486 31.2786 46.0419 30.9957 45.8285 30.7823C45.6152 30.569 45.2441 30.4623 44.7153 30.4623C44.3628 30.4623 44.0149 30.4901 43.6717 30.5458C43.3284 30.5921 43.0316 30.6617 42.7811 30.7545L42.5167 29.0847C42.6373 29.0476 42.7857 29.0105 42.962 28.9734C43.1475 28.927 43.347 28.8899 43.5603 28.862C43.7737 28.8249 43.9964 28.7971 44.2283 28.7785C44.4695 28.7507 44.7107 28.7368 44.9519 28.7368ZM52.9355 36.3901C52.3325 36.3809 51.8408 36.3159 51.4605 36.1953C51.0894 36.0747 50.7925 35.9077 50.5699 35.6944C50.3565 35.4717 50.2081 35.2073 50.1246 34.9012C50.0504 34.5858 50.0133 34.2333 50.0133 33.8437V25.7868L52.0866 25.4528V33.4262C52.0866 33.6117 52.1006 33.7787 52.1284 33.9271C52.1562 34.0756 52.2072 34.2008 52.2815 34.3029C52.3649 34.4049 52.4809 34.4884 52.6293 34.5533C52.7778 34.6183 52.9772 34.66 53.2277 34.6786L52.9355 36.3901ZM57.3383 36.3901C56.7353 36.3809 56.2436 36.3159 55.8633 36.1953C55.4922 36.0747 55.1954 35.9077 54.9727 35.6944C54.7594 35.4717 54.6109 35.2073 54.5274 34.9012C54.4532 34.5858 54.4161 34.2333 54.4161 33.8437V25.7868L56.4895 25.4528V33.4262C56.4895 33.6117 56.5034 33.7787 56.5312 33.9271C56.5591 34.0756 56.6101 34.2008 56.6843 34.3029C56.7678 34.4049 56.8837 34.4884 57.0322 34.5533C57.1806 34.6183 57.3801 34.66 57.6305 34.6786L57.3383 36.3901Z" fill="#414652"/>
<rect x="7.51245" y="56.5818" width="326.975" height="162.301" stroke="#ECECEC" stroke-width="1.0249"/>
<path d="M7 109.859H335" stroke="#ECECEC" stroke-width="1.0249"/>
<path d="M7 83.4531H335" stroke="#ECECEC" stroke-width="1.0249"/>
<path d="M7 136.265H335" stroke="#ECECEC" stroke-width="1.0249"/>
<path d="M7 162.671H335" stroke="#ECECEC" stroke-width="1.0249"/>
<path d="M7 189.077H335" stroke="#ECECEC" stroke-width="1.0249"/>
<path d="M62.1779 56.0693L62.1779 219.395" stroke="#ECECEC" stroke-width="1.0249"/>
<path d="M116.333 56.0693L116.333 219.395" stroke="#ECECEC" stroke-width="1.0249"/>
<path d="M170.489 56.0693L170.489 219.395" stroke="#ECECEC" stroke-width="1.0249"/>
<path d="M224.645 56.0693L224.645 219.395" stroke="#ECECEC" stroke-width="1.0249"/>
<path d="M278.801 56.0693L278.801 219.395" stroke="#ECECEC" stroke-width="1.0249"/>
<path d="M7 56.832H335" stroke="#ECECEC" stroke-width="1.5302"/>
<path d="M62.6604 136.897L92.4786 111.055L145.655 157.273L189.885 116.521L247.036 173.673L278.345 150.315" stroke="#A8A8A8" stroke-width="2.98182"/>
<line x1="7" y1="136.515" x2="333.474" y2="136.515" stroke="black" stroke-width="0.765102"/>
<path d="M297.051 143.571H294.944L295.073 142.985H299.974L299.834 143.571H297.727L296.216 149.873H295.541L297.051 143.571ZM302.647 145.291C302.528 145.264 302.419 145.245 302.319 145.231C302.22 145.218 302.117 145.211 302.011 145.211C301.6 145.211 301.236 145.291 300.918 145.45C300.6 145.609 300.331 145.818 300.113 146.076C299.894 146.335 299.725 146.629 299.606 146.961C299.493 147.292 299.437 147.63 299.437 147.975C299.437 148.246 299.463 148.475 299.516 148.66C299.569 148.839 299.642 148.985 299.735 149.098C299.828 149.204 299.934 149.283 300.053 149.336C300.179 149.383 300.312 149.406 300.451 149.406C300.722 149.406 300.978 149.343 301.216 149.217C301.455 149.085 301.68 148.899 301.892 148.66C301.892 148.482 301.918 148.276 301.971 148.044C302.024 147.812 302.074 147.604 302.121 147.418L302.647 145.291ZM302.071 149.933C302.031 149.853 301.995 149.764 301.962 149.664C301.935 149.558 301.915 149.452 301.902 149.346C301.67 149.572 301.425 149.737 301.166 149.843C300.915 149.949 300.653 150.002 300.381 150.002C300.169 150.002 299.967 149.966 299.775 149.893C299.583 149.82 299.414 149.707 299.268 149.555C299.122 149.403 299.003 149.207 298.91 148.969C298.824 148.723 298.781 148.435 298.781 148.104C298.781 147.574 298.867 147.093 299.039 146.663C299.212 146.232 299.45 145.867 299.755 145.569C300.066 145.264 300.431 145.029 300.848 144.864C301.272 144.698 301.733 144.615 302.23 144.615C302.641 144.615 303.035 144.685 303.413 144.824L302.647 147.915C302.608 148.081 302.574 148.236 302.548 148.382C302.521 148.528 302.508 148.667 302.508 148.8C302.508 148.979 302.525 149.147 302.558 149.307C302.591 149.466 302.651 149.641 302.737 149.833L302.071 149.933ZM304.998 144.963C305.249 144.864 305.524 144.781 305.823 144.715C306.127 144.648 306.426 144.615 306.717 144.615C306.87 144.615 307.015 144.625 307.154 144.645C307.294 144.665 307.426 144.698 307.552 144.744L307.383 145.331C307.125 145.251 306.86 145.211 306.588 145.211C306.416 145.211 306.243 145.225 306.071 145.251C305.899 145.278 305.727 145.317 305.554 145.371L304.471 149.873H303.825L304.998 144.963ZM311.462 145.281C311.25 145.228 311.045 145.202 310.846 145.202C310.389 145.202 309.991 145.281 309.653 145.44C309.322 145.599 309.047 145.805 308.828 146.056C308.609 146.301 308.447 146.576 308.341 146.881C308.235 147.179 308.182 147.468 308.182 147.746C308.182 147.925 308.199 148.097 308.232 148.263C308.265 148.422 308.321 148.561 308.401 148.68C308.48 148.8 308.589 148.896 308.729 148.969C308.868 149.035 309.047 149.068 309.265 149.068C309.491 149.068 309.723 149.028 309.961 148.949C310.206 148.863 310.438 148.75 310.657 148.611L311.462 145.281ZM307.009 150.758C307.148 150.87 307.347 150.963 307.605 151.036C307.871 151.109 308.132 151.145 308.391 151.145C309 151.145 309.467 151.006 309.792 150.728C310.123 150.45 310.339 150.055 310.438 149.545L310.488 149.287C310.289 149.413 310.077 149.509 309.852 149.575C309.626 149.635 309.401 149.664 309.176 149.664C308.891 149.664 308.642 149.618 308.43 149.525C308.225 149.432 308.056 149.307 307.924 149.147C307.791 148.982 307.692 148.793 307.625 148.581C307.559 148.362 307.526 148.13 307.526 147.885C307.526 147.507 307.592 147.126 307.725 146.742C307.864 146.351 308.076 146 308.361 145.689C308.646 145.371 309 145.112 309.424 144.913C309.855 144.715 310.365 144.615 310.955 144.615C311.194 144.615 311.419 144.642 311.631 144.695C311.843 144.741 312.032 144.811 312.197 144.903L311.084 149.535C311.018 149.813 310.932 150.085 310.826 150.35C310.72 150.615 310.564 150.85 310.359 151.056C310.153 151.261 309.878 151.427 309.534 151.553C309.196 151.679 308.758 151.742 308.222 151.742C308.116 151.742 307.996 151.732 307.864 151.712C307.731 151.699 307.596 151.675 307.456 151.642C307.324 151.609 307.195 151.569 307.069 151.523C306.943 151.483 306.83 151.434 306.731 151.374L307.009 150.758ZM317.151 145.937C317.151 146.308 317.059 146.61 316.873 146.842C316.694 147.073 316.439 147.259 316.108 147.398C315.783 147.531 315.389 147.627 314.925 147.686C314.468 147.746 313.958 147.789 313.394 147.816V148.024C313.394 148.216 313.414 148.395 313.454 148.561C313.494 148.727 313.567 148.872 313.673 148.998C313.779 149.118 313.924 149.214 314.11 149.287C314.302 149.36 314.547 149.396 314.845 149.396C315.077 149.396 315.309 149.363 315.541 149.297C315.78 149.23 316.005 149.131 316.217 148.998L316.287 149.595C316.061 149.721 315.813 149.817 315.541 149.883C315.27 149.956 314.995 149.992 314.716 149.992C314.352 149.992 314.044 149.946 313.792 149.853C313.547 149.76 313.345 149.631 313.186 149.466C313.033 149.3 312.924 149.101 312.858 148.869C312.791 148.637 312.758 148.382 312.758 148.104C312.758 147.68 312.821 147.259 312.947 146.842C313.08 146.424 313.272 146.05 313.524 145.718C313.775 145.387 314.083 145.122 314.448 144.923C314.819 144.718 315.24 144.615 315.71 144.615C316.174 144.615 316.529 144.738 316.774 144.983C317.026 145.221 317.151 145.539 317.151 145.937ZM315.651 145.202C315.386 145.202 315.137 145.258 314.905 145.371C314.673 145.477 314.464 145.622 314.279 145.808C314.093 145.993 313.931 146.209 313.792 146.454C313.659 146.699 313.56 146.957 313.494 147.229C314.057 147.216 314.531 147.179 314.915 147.12C315.299 147.06 315.607 146.977 315.839 146.871C316.078 146.765 316.247 146.639 316.346 146.494C316.446 146.341 316.495 146.169 316.495 145.977C316.495 145.718 316.416 145.526 316.257 145.4C316.104 145.268 315.902 145.202 315.651 145.202ZM319.003 143.224L319.679 143.104L319.291 144.734H321.1L320.971 145.291H319.152L318.546 147.806C318.513 147.925 318.483 148.054 318.456 148.193C318.436 148.326 318.426 148.458 318.426 148.591C318.426 148.889 318.499 149.098 318.645 149.217C318.791 149.336 318.973 149.396 319.192 149.396C319.404 149.396 319.586 149.373 319.738 149.326C319.897 149.28 320.063 149.217 320.235 149.138L320.295 149.724C320.116 149.797 319.914 149.86 319.689 149.913C319.47 149.966 319.251 149.992 319.033 149.992C318.86 149.992 318.698 149.972 318.546 149.933C318.393 149.893 318.257 149.827 318.138 149.734C318.026 149.641 317.933 149.519 317.86 149.366C317.794 149.214 317.761 149.022 317.761 148.79C317.761 148.505 317.807 148.177 317.9 147.806L319.003 143.224Z" fill="#414652" fill-opacity="0.6"/>
<path d="M289.776 153.794C289.776 158.186 286.216 161.746 281.824 161.746C277.433 161.746 273.873 158.186 273.873 153.794C273.873 149.403 277.433 145.843 281.824 145.843C286.216 145.843 289.776 149.403 289.776 153.794Z" fill="#FF444F"/>
<path d="M272.35 176.722V168.456H277.395V169.446H273.507V171.903H276.966V172.869H273.507V175.732H277.693V176.722H272.35ZM279.092 170.698C279.347 170.635 279.685 170.567 280.106 170.496C280.528 170.424 281.013 170.388 281.561 170.388C282.054 170.388 282.464 170.46 282.79 170.603C283.116 170.738 283.374 170.933 283.565 171.187C283.764 171.434 283.903 171.732 283.983 172.082C284.062 172.432 284.102 172.817 284.102 173.239V176.722H282.993V173.477C282.993 173.096 282.965 172.77 282.909 172.499C282.861 172.229 282.778 172.01 282.659 171.843C282.539 171.676 282.38 171.557 282.182 171.486C281.983 171.406 281.736 171.366 281.442 171.366C281.323 171.366 281.2 171.37 281.072 171.378C280.945 171.386 280.822 171.398 280.703 171.414C280.591 171.422 280.488 171.434 280.392 171.45C280.305 171.466 280.241 171.478 280.202 171.486V176.722H279.092V170.698ZM289.949 171.831C289.814 171.72 289.619 171.613 289.364 171.509C289.11 171.406 288.832 171.354 288.529 171.354C288.211 171.354 287.937 171.414 287.706 171.533C287.484 171.645 287.301 171.804 287.158 172.01C287.015 172.209 286.911 172.448 286.848 172.726C286.784 173.004 286.752 173.303 286.752 173.621C286.752 174.344 286.931 174.905 287.289 175.302C287.647 175.692 288.124 175.887 288.72 175.887C289.022 175.887 289.273 175.875 289.472 175.851C289.678 175.819 289.837 175.787 289.949 175.756V171.831ZM289.949 167.657L291.058 167.466V176.543C290.804 176.614 290.478 176.686 290.08 176.757C289.682 176.829 289.225 176.865 288.708 176.865C288.231 176.865 287.802 176.789 287.42 176.638C287.039 176.487 286.713 176.272 286.442 175.994C286.172 175.716 285.961 175.378 285.81 174.98C285.667 174.575 285.595 174.122 285.595 173.621C285.595 173.143 285.655 172.706 285.774 172.309C285.901 171.911 286.084 171.569 286.323 171.283C286.561 170.997 286.852 170.774 287.194 170.615C287.543 170.456 287.941 170.376 288.386 170.376C288.744 170.376 289.058 170.424 289.329 170.519C289.607 170.615 289.814 170.706 289.949 170.794V167.657Z" fill="#414652"/>
<path d="M69.1212 137.891C69.1212 142.282 65.5612 145.842 61.1697 145.842C56.7782 145.842 53.2182 142.282 53.2182 137.891C53.2182 133.499 56.7782 129.939 61.1697 129.939C65.5612 129.939 69.1212 133.499 69.1212 137.891Z" fill="#FF444F"/>
<path d="M50.6157 159.995C51.8244 159.995 52.4287 159.582 52.4287 158.755C52.4287 158.5 52.373 158.286 52.2617 158.111C52.1583 157.928 52.0152 157.773 51.8323 157.646C51.6494 157.511 51.4387 157.395 51.2002 157.3C50.9696 157.204 50.7231 157.109 50.4607 157.014C50.1585 156.91 49.8723 156.795 49.6019 156.668C49.3316 156.532 49.097 156.377 48.8982 156.203C48.6994 156.02 48.5404 155.805 48.4211 155.558C48.3098 155.312 48.2541 155.014 48.2541 154.664C48.2541 153.94 48.5006 153.376 48.9936 152.97C49.4866 152.565 50.1665 152.362 51.0332 152.362C51.5341 152.362 51.9874 152.418 52.3929 152.529C52.8064 152.632 53.1085 152.748 53.2994 152.875L52.9296 153.817C52.7626 153.714 52.5122 153.614 52.1782 153.519C51.8522 153.415 51.4705 153.364 51.0332 153.364C50.8105 153.364 50.6038 153.388 50.413 153.435C50.2221 153.483 50.0552 153.555 49.912 153.65C49.7689 153.745 49.6536 153.869 49.5661 154.02C49.4866 154.163 49.4469 154.334 49.4469 154.533C49.4469 154.755 49.4906 154.942 49.5781 155.093C49.6655 155.244 49.7888 155.38 49.9478 155.499C50.1068 155.61 50.2897 155.713 50.4965 155.809C50.7112 155.904 50.9457 156 51.2002 156.095C51.558 156.238 51.884 156.381 52.1782 156.525C52.4804 156.668 52.7388 156.839 52.9535 157.037C53.1761 157.236 53.3471 157.475 53.4664 157.753C53.5856 158.023 53.6453 158.353 53.6453 158.743C53.6453 159.467 53.3789 160.023 52.8461 160.413C52.3213 160.802 51.5779 160.997 50.6157 160.997C50.2897 160.997 49.9876 160.973 49.7093 160.926C49.4389 160.886 49.1964 160.838 48.9817 160.783C48.767 160.719 48.5801 160.655 48.4211 160.592C48.27 160.52 48.1508 160.461 48.0633 160.413L48.4092 159.459C48.5921 159.562 48.8704 159.677 49.2441 159.805C49.6178 159.932 50.075 159.995 50.6157 159.995ZM56.0096 154.616H58.3592V155.547H56.0096V158.409C56.0096 158.719 56.0334 158.978 56.0811 159.184C56.1288 159.383 56.2004 159.542 56.2958 159.661C56.3912 159.773 56.5105 159.852 56.6536 159.9C56.7968 159.948 56.9637 159.972 57.1546 159.972C57.4885 159.972 57.7549 159.936 57.9537 159.864C58.1604 159.785 58.3036 159.729 58.3831 159.697L58.5978 160.616C58.4865 160.671 58.2916 160.739 58.0133 160.818C57.735 160.906 57.417 160.95 57.0592 160.95C56.6377 160.95 56.2879 160.898 56.0096 160.795C55.7392 160.683 55.5205 160.52 55.3536 160.305C55.1866 160.091 55.0673 159.828 54.9957 159.518C54.9321 159.2 54.9003 158.834 54.9003 158.421V152.887L56.0096 152.696V154.616ZM61.87 160.019C62.1324 160.019 62.3629 160.015 62.5617 160.007C62.7685 159.991 62.9394 159.968 63.0746 159.936V158.087C62.9951 158.047 62.8639 158.015 62.681 157.992C62.5061 157.96 62.2914 157.944 62.0369 157.944C61.87 157.944 61.691 157.956 61.5002 157.98C61.3173 158.004 61.1464 158.055 60.9873 158.135C60.8363 158.206 60.709 158.31 60.6057 158.445C60.5023 158.572 60.4506 158.743 60.4506 158.958C60.4506 159.355 60.5778 159.634 60.8323 159.793C61.0867 159.944 61.4326 160.019 61.87 160.019ZM61.7745 154.461C62.2198 154.461 62.5935 154.521 62.8957 154.64C63.2058 154.751 63.4523 154.914 63.6352 155.129C63.826 155.336 63.9612 155.586 64.0407 155.88C64.1202 156.167 64.16 156.485 64.16 156.835V160.711C64.0646 160.727 63.9294 160.751 63.7545 160.783C63.5875 160.806 63.3966 160.83 63.182 160.854C62.9673 160.878 62.7327 160.898 62.4782 160.914C62.2317 160.938 61.9853 160.95 61.7388 160.95C61.3889 160.95 61.0669 160.914 60.7726 160.842C60.4784 160.771 60.224 160.659 60.0093 160.508C59.7946 160.349 59.6276 160.142 59.5084 159.888C59.3891 159.634 59.3294 159.327 59.3294 158.97C59.3294 158.628 59.397 158.334 59.5322 158.087C59.6753 157.841 59.8662 157.642 60.1047 157.491C60.3433 157.34 60.6216 157.228 60.9396 157.157C61.2577 157.085 61.5917 157.049 61.9415 157.049C62.0528 157.049 62.1681 157.057 62.2874 157.073C62.4067 157.081 62.518 157.097 62.6214 157.121C62.7327 157.137 62.8281 157.153 62.9076 157.169C62.9871 157.185 63.0428 157.196 63.0746 157.204V156.894C63.0746 156.711 63.0547 156.532 63.015 156.358C62.9752 156.175 62.9037 156.016 62.8003 155.88C62.6969 155.737 62.5538 155.626 62.3709 155.547C62.196 155.459 61.9654 155.415 61.6791 155.415C61.3133 155.415 60.9913 155.443 60.713 155.499C60.4427 155.547 60.2399 155.598 60.1047 155.654L59.9735 154.735C60.1166 154.672 60.3552 154.612 60.6892 154.557C61.0231 154.493 61.3849 154.461 61.7745 154.461ZM68.2923 154.485C68.3877 154.485 68.4951 154.493 68.6144 154.509C68.7416 154.517 68.8648 154.533 68.9841 154.557C69.1034 154.572 69.2107 154.592 69.3061 154.616C69.4095 154.632 69.4851 154.648 69.5328 154.664L69.3419 155.63C69.2545 155.598 69.1074 155.562 68.9006 155.523C68.7018 155.475 68.4434 155.451 68.1253 155.451C67.9186 155.451 67.7119 155.475 67.5051 155.523C67.3063 155.562 67.1751 155.59 67.1115 155.606V160.818H66.0023V154.879C66.2647 154.783 66.5907 154.696 66.9803 154.616C67.3699 154.529 67.8073 154.485 68.2923 154.485ZM71.6408 154.616H73.9905V155.547H71.6408V158.409C71.6408 158.719 71.6647 158.978 71.7124 159.184C71.7601 159.383 71.8316 159.542 71.9271 159.661C72.0225 159.773 72.1418 159.852 72.2849 159.9C72.428 159.948 72.595 159.972 72.7858 159.972C73.1198 159.972 73.3862 159.936 73.585 159.864C73.7917 159.785 73.9348 159.729 74.0143 159.697L74.229 160.616C74.1177 160.671 73.9229 160.739 73.6446 160.818C73.3663 160.906 73.0482 160.95 72.6904 160.95C72.269 160.95 71.9191 160.898 71.6408 160.795C71.3705 160.683 71.1518 160.52 70.9848 160.305C70.8178 160.091 70.6986 159.828 70.627 159.518C70.5634 159.2 70.5316 158.834 70.5316 158.421V152.887L71.6408 152.696V154.616Z" fill="#414652"/>
<rect x="127.267" y="13.6484" width="81.503" height="33.7939" rx="15.903" fill="#00A79E"/>
<path d="M159.788 26.7556C159.916 27.1903 160.053 27.6833 160.202 28.2346C160.361 28.7753 160.525 29.3372 160.695 29.9203C160.875 30.5034 161.055 31.0866 161.236 31.6697C161.416 32.2528 161.591 32.7935 161.76 33.2918C161.898 32.7511 162.036 32.1627 162.174 31.5265C162.322 30.8904 162.46 30.2331 162.587 29.5546C162.715 28.876 162.836 28.2028 162.953 27.5349C163.08 26.8564 163.197 26.2043 163.303 25.5788H165.879C165.508 27.4236 165.079 29.2948 164.591 31.1926C164.114 33.0903 163.594 34.8927 163.033 36.5996H160.758C160.387 35.5818 160.027 34.5163 159.677 33.4031C159.327 32.2793 158.983 31.1555 158.643 30.0317C158.304 31.1555 157.965 32.2793 157.626 33.4031C157.286 34.5163 156.931 35.5818 156.56 36.5996H154.286C153.724 34.8927 153.199 33.0903 152.712 31.1926C152.234 29.2948 151.81 27.4236 151.439 25.5788H154.127C154.233 26.2043 154.35 26.8564 154.477 27.5349C154.604 28.2028 154.737 28.876 154.874 29.5546C155.012 30.2331 155.15 30.8904 155.288 31.5265C155.436 32.1627 155.585 32.7511 155.733 33.2918C155.924 32.7723 156.109 32.221 156.29 31.6379C156.47 31.0548 156.645 30.4716 156.815 29.8885C156.984 29.3054 157.138 28.7435 157.276 28.2028C157.424 27.6621 157.557 27.1797 157.673 26.7556H159.788ZM169.684 36.5996H167.314V28.2346H169.684V36.5996ZM169.907 25.8174C169.907 26.252 169.763 26.5966 169.477 26.8511C169.202 27.0949 168.873 27.2168 168.491 27.2168C168.11 27.2168 167.776 27.0949 167.489 26.8511C167.214 26.5966 167.076 26.252 167.076 25.8174C167.076 25.3827 167.214 25.0434 167.489 24.7996C167.776 24.5451 168.11 24.4179 168.491 24.4179C168.873 24.4179 169.202 24.5451 169.477 24.7996C169.763 25.0434 169.907 25.3827 169.907 25.8174ZM171.911 28.5209C172.314 28.4042 172.834 28.2982 173.47 28.2028C174.106 28.0968 174.774 28.0438 175.474 28.0438C176.184 28.0438 176.772 28.1392 177.239 28.33C177.716 28.5103 178.092 28.77 178.368 29.1093C178.644 29.4485 178.84 29.8514 178.956 30.3179C179.073 30.7844 179.131 31.3039 179.131 31.8764V36.5996H176.762V32.1627C176.762 31.3993 176.661 30.8586 176.46 30.5406C176.258 30.2225 175.882 30.0635 175.33 30.0635C175.161 30.0635 174.981 30.0741 174.79 30.0953C174.599 30.1059 174.429 30.1218 174.281 30.143V36.5996H171.911V28.5209ZM183.709 28.4255C183.709 29.2842 183.677 30.0847 183.614 30.8268C183.55 31.569 183.465 32.3217 183.359 33.085H181.546C181.44 32.3217 181.35 31.569 181.276 30.8268C181.212 30.0847 181.181 29.2842 181.181 28.4255V25.5788H183.709V28.4255ZM183.916 35.3433C183.916 35.8098 183.762 36.1702 183.455 36.4247C183.158 36.6791 182.819 36.8063 182.437 36.8063C182.055 36.8063 181.711 36.6791 181.403 36.4247C181.106 36.1702 180.958 35.8098 180.958 35.3433C180.958 34.8768 181.106 34.5163 181.403 34.2619C181.711 34.0074 182.055 33.8802 182.437 33.8802C182.819 33.8802 183.158 34.0074 183.455 34.2619C183.762 34.5163 183.916 34.8768 183.916 35.3433Z" fill="white"/>
<defs>
<filter id="filter0_d_2470_23482" x="0.0977015" y="0.175427" width="341.805" height="227.502" filterUnits="userSpaceOnUse" color-interpolation-filters="sRGB">
<feFlood flood-opacity="0" result="BackgroundImageFix"/>
<feColorMatrix in="SourceAlpha" type="matrix" values="0 0 0 0 0 0 0 0 0 0 0 0 0 0 0 0 0 0 127 0" result="hardAlpha"/>
<feOffset dy="1.38046"/>
<feGaussianBlur stdDeviation="3.45115"/>
<feComposite in2="hardAlpha" operator="out"/>
<feColorMatrix type="matrix" values="0 0 0 0 0 0 0 0 0 0 0 0 0 0 0 0 0 0 0.1 0"/>
<feBlend mode="normal" in2="BackgroundImageFix" result="effect1_dropShadow_2470_23482"/>
<feBlend mode="normal" in="SourceGraphic" in2="effect1_dropShadow_2470_23482" result="shape"/>
</filter>
</defs>
</svg>
