<svg width="33" height="32" viewBox="0 0 33 32" fill="none" xmlns="http://www.w3.org/2000/svg">
<rect x="0.5" width="32" height="32" rx="16" fill="#F9F9F9"/>
<g clip-path="url(#clip0_2591_35715)">
<path d="M20.6992 13.0002V20.8002H19.4992V13.0002H20.6992ZM21.2992 11.2002V12.4002H11.6992V11.2002H21.2992Z" fill="#414652"/>
<path d="M14.6992 14.5474L17.0992 16.9516V16C17.0992 15.3396 17.6328 14.8033 18.2932 14.8L18.2992 17.8C18.2992 18.4627 17.762 19 17.0992 19H14.0992C14.1012 18.3381 14.6373 17.802 15.2992 17.8H16.2508L14.6992 16.2484V14.5474ZM11.6992 13L13.7536 13.6L14.3524 14.2H11.6992V13Z" fill="#FF444F"/>
</g>
<defs>
<clipPath id="clip0_2591_35715">
<rect width="9.6" height="9.6" fill="white" transform="translate(11.6992 11.2002)"/>
</clipPath>
</defs>
</svg>
