<svg width="342" height="228" viewBox="0 0 342 228" fill="none" xmlns="http://www.w3.org/2000/svg">
<g filter="url(#filter0_d_2599_38993)">
<rect x="7" y="5.69727" width="328" height="213.697" rx="4.14138" fill="white"/>
</g>
<path d="M41.2671 36.251C41.1651 35.917 41.0491 35.5738 40.9192 35.2213C40.7986 34.8687 40.678 34.5162 40.5574 34.1637H36.8003C36.6797 34.5162 36.5545 34.8687 36.4246 35.2213C36.304 35.5738 36.1927 35.917 36.0907 36.251H33.8364C34.1982 35.212 34.5415 34.2518 34.8661 33.3705C35.1908 32.4892 35.5062 31.659 35.8124 30.8797C36.1278 30.1005 36.4339 29.363 36.7308 28.6672C37.0369 27.9622 37.3523 27.2757 37.677 26.6078H39.7504C40.0658 27.2757 40.3765 27.9622 40.6827 28.6672C40.9888 29.363 41.2949 30.1005 41.6011 30.8797C41.9165 31.659 42.2365 32.4892 42.5612 33.3705C42.8859 34.2518 43.2291 35.212 43.5909 36.251H41.2671ZM38.665 28.7925C38.6186 28.9316 38.549 29.1218 38.4562 29.363C38.3635 29.6042 38.2568 29.8825 38.1362 30.1979C38.0156 30.5133 37.8811 30.8612 37.7327 31.2415C37.5935 31.6219 37.4497 32.0208 37.3013 32.4382H40.0426C39.8941 32.0208 39.7504 31.6219 39.6112 31.2415C39.4721 30.8612 39.3375 30.5133 39.2077 30.1979C39.0871 29.8825 38.9804 29.6042 38.8876 29.363C38.7948 29.1218 38.7206 28.9316 38.665 28.7925ZM46.9371 34.7621C47.3174 34.7621 47.5865 34.7249 47.7442 34.6507C47.9019 34.5765 47.9807 34.4327 47.9807 34.2194C47.9807 34.0524 47.8787 33.9086 47.6746 33.788C47.4705 33.6581 47.1597 33.5143 46.7423 33.3566C46.4176 33.236 46.1207 33.1108 45.8517 32.9809C45.592 32.851 45.3693 32.698 45.1838 32.5217C44.9983 32.3362 44.8545 32.1182 44.7524 31.8677C44.6504 31.6172 44.5994 31.3157 44.5994 30.9632C44.5994 30.2767 44.8545 29.734 45.3647 29.3351C45.8749 28.9362 46.5753 28.7368 47.4659 28.7368C47.9112 28.7368 48.3379 28.7785 48.7461 28.862C49.1542 28.9362 49.4789 29.0197 49.7201 29.1125L49.3583 30.7267C49.1171 30.6432 48.8528 30.569 48.5652 30.504C48.2869 30.4391 47.9715 30.4066 47.6189 30.4066C46.9696 30.4066 46.6449 30.5875 46.6449 30.9493C46.6449 31.0328 46.6588 31.107 46.6866 31.1719C46.7145 31.2369 46.7701 31.3018 46.8536 31.3668C46.9371 31.4224 47.0484 31.4874 47.1876 31.5616C47.336 31.6265 47.5215 31.7007 47.7442 31.7842C48.1987 31.9512 48.5744 32.1182 48.8713 32.2852C49.1682 32.4429 49.4001 32.6191 49.5671 32.8139C49.7433 32.9995 49.8639 33.2082 49.9289 33.4401C50.0031 33.672 50.0402 33.9411 50.0402 34.2472C50.0402 34.9708 49.7665 35.5181 49.2192 35.8892C48.6811 36.2603 47.9158 36.4458 46.9232 36.4458C46.2738 36.4458 45.7311 36.3901 45.2951 36.2788C44.8684 36.1675 44.5715 36.0747 44.4045 36.0005L44.7524 34.3168C45.1049 34.4559 45.4667 34.5672 45.8378 34.6507C46.2089 34.7249 46.5753 34.7621 46.9371 34.7621ZM53.663 36.251H51.5896V28.9316H53.663V36.251ZM53.8578 26.8165C53.8578 27.1969 53.7326 27.4983 53.4821 27.721C53.2409 27.9344 52.9533 28.041 52.6194 28.041C52.2854 28.041 51.9932 27.9344 51.7427 27.721C51.5015 27.4983 51.3809 27.1969 51.3809 26.8165C51.3809 26.4362 51.5015 26.1393 51.7427 25.9259C51.9932 25.7033 52.2854 25.592 52.6194 25.592C52.9533 25.592 53.2409 25.7033 53.4821 25.9259C53.7326 26.1393 53.8578 26.4362 53.8578 26.8165ZM58.4089 34.8038C58.613 34.8038 58.8078 34.7992 58.9934 34.7899C59.1789 34.7806 59.3273 34.7667 59.4387 34.7481V33.1757C59.3552 33.1572 59.2299 33.1386 59.063 33.1201C58.896 33.1015 58.7429 33.0922 58.6038 33.0922C58.4089 33.0922 58.2234 33.1062 58.0471 33.134C57.8802 33.1525 57.7317 33.1943 57.6019 33.2592C57.472 33.3242 57.3699 33.4123 57.2957 33.5236C57.2215 33.6349 57.1844 33.7741 57.1844 33.9411C57.1844 34.2657 57.2911 34.493 57.5045 34.6229C57.7271 34.7435 58.0286 34.8038 58.4089 34.8038ZM58.242 28.7368C58.8542 28.7368 59.3645 28.8064 59.7726 28.9455C60.1808 29.0847 60.5055 29.2841 60.7467 29.5439C60.9972 29.8036 61.1734 30.119 61.2755 30.4901C61.3775 30.8612 61.4285 31.274 61.4285 31.7286V36.0422C61.1317 36.1072 60.7189 36.1814 60.1901 36.2649C59.6613 36.3577 59.0212 36.404 58.2698 36.404C57.7967 36.404 57.3653 36.3623 56.9757 36.2788C56.5953 36.1953 56.266 36.0608 55.9877 35.8753C55.7094 35.6805 55.496 35.43 55.3476 35.1238C55.1992 34.8177 55.125 34.442 55.125 33.9967C55.125 33.57 55.2085 33.2082 55.3754 32.9113C55.5517 32.6145 55.7836 32.3779 56.0712 32.2017C56.3588 32.0254 56.6881 31.9002 57.0592 31.826C57.4302 31.7425 57.8152 31.7007 58.2141 31.7007C58.4832 31.7007 58.7197 31.7146 58.9238 31.7425C59.1372 31.761 59.3088 31.7889 59.4387 31.826V31.6311C59.4387 31.2786 59.332 30.9957 59.1186 30.7823C58.9053 30.569 58.5342 30.4623 58.0054 30.4623C57.6529 30.4623 57.305 30.4901 56.9618 30.5458C56.6185 30.5921 56.3217 30.6617 56.0712 30.7545L55.8068 29.0847C55.9274 29.0476 56.0758 29.0105 56.2521 28.9734C56.4376 28.927 56.6371 28.8899 56.8504 28.862C57.0638 28.8249 57.2865 28.7971 57.5184 28.7785C57.7596 28.7507 58.0008 28.7368 58.242 28.7368ZM63.3034 29.1821C63.6559 29.08 64.1105 28.9873 64.6671 28.9038C65.2237 28.811 65.8081 28.7646 66.4204 28.7646C67.0419 28.7646 67.5568 28.8481 67.965 29.0151C68.3824 29.1728 68.7117 29.4001 68.9529 29.6969C69.1941 29.9938 69.3657 30.3463 69.4678 30.7545C69.5698 31.1627 69.6209 31.6172 69.6209 32.1182V36.251H67.5475V32.3686C67.5475 31.7007 67.4594 31.2276 67.2831 30.9493C67.1069 30.671 66.7775 30.5318 66.2951 30.5318C66.1467 30.5318 65.989 30.5411 65.822 30.5597C65.655 30.569 65.5066 30.5829 65.3767 30.6014V36.251H63.3034V29.1821ZM77.1504 34.4838C77.2524 34.493 77.3684 34.5023 77.4982 34.5116C77.6374 34.5116 77.7997 34.5116 77.9853 34.5116C79.0707 34.5116 79.8731 34.2379 80.3926 33.6906C80.9214 33.1433 81.1858 32.3872 81.1858 31.4224C81.1858 30.4113 80.9353 29.6459 80.4343 29.1264C79.9334 28.6069 79.1402 28.3472 78.0549 28.3472C77.9064 28.3472 77.7534 28.3518 77.5957 28.3611C77.4379 28.3611 77.2895 28.3704 77.1504 28.3889V34.4838ZM83.4261 31.4224C83.4261 32.2573 83.2962 32.9856 83.0365 33.6071C82.7767 34.2286 82.4057 34.7435 81.9233 35.1517C81.4502 35.5599 80.8704 35.866 80.1839 36.0701C79.4974 36.2742 78.7274 36.3762 77.874 36.3762C77.4843 36.3762 77.0298 36.3577 76.5103 36.3206C75.9908 36.2927 75.4806 36.2278 74.9796 36.1257V26.733C75.4806 26.6402 76.0001 26.5799 76.5381 26.5521C77.0854 26.515 77.5539 26.4965 77.9435 26.4965C78.7692 26.4965 79.5159 26.5892 80.1839 26.7748C80.8611 26.9603 81.4409 27.2525 81.9233 27.6514C82.4057 28.0503 82.7767 28.5605 83.0365 29.1821C83.2962 29.8036 83.4261 30.5504 83.4261 31.4224ZM91.9464 32.5774C91.9464 33.1525 91.8629 33.6813 91.6959 34.1637C91.529 34.6368 91.2878 35.045 90.9724 35.3882C90.6569 35.7222 90.2766 35.982 89.8313 36.1675C89.3953 36.353 88.9036 36.4458 88.3563 36.4458C87.8183 36.4458 87.3266 36.353 86.8813 36.1675C86.4453 35.982 86.0696 35.7222 85.7542 35.3882C85.4388 35.045 85.1929 34.6368 85.0167 34.1637C84.8404 33.6813 84.7523 33.1525 84.7523 32.5774C84.7523 32.0022 84.8404 31.4781 85.0167 31.005C85.2022 30.5318 85.4527 30.1283 85.7681 29.7943C86.0928 29.4604 86.4731 29.2006 86.9091 29.0151C87.3544 28.8296 87.8368 28.7368 88.3563 28.7368C88.8851 28.7368 89.3675 28.8296 89.8035 29.0151C90.2488 29.2006 90.6291 29.4604 90.9445 29.7943C91.2599 30.1283 91.5058 30.5318 91.682 31.005C91.8583 31.4781 91.9464 32.0022 91.9464 32.5774ZM89.8313 32.5774C89.8313 31.9373 89.7014 31.4363 89.4417 31.0745C89.1912 30.7035 88.8294 30.5179 88.3563 30.5179C87.8832 30.5179 87.5168 30.7035 87.257 31.0745C86.9973 31.4363 86.8674 31.9373 86.8674 32.5774C86.8674 33.2175 86.9973 33.7277 87.257 34.108C87.5168 34.4791 87.8832 34.6646 88.3563 34.6646C88.8294 34.6646 89.1912 34.4791 89.4417 34.108C89.7014 33.7277 89.8313 33.2175 89.8313 32.5774ZM97.8423 32.0486C97.6568 32.7536 97.4573 33.454 97.244 34.1498C97.0399 34.8455 96.8219 35.5459 96.5899 36.251H94.9758C94.8088 35.8614 94.6279 35.3975 94.4331 34.8595C94.2383 34.3214 94.0342 33.737 93.8208 33.1062C93.6167 32.4661 93.4034 31.7935 93.1807 31.0885C92.9674 30.3741 92.7586 29.6552 92.5545 28.9316H94.7392C94.8134 29.2656 94.8923 29.632 94.9758 30.0309C95.0686 30.4205 95.1613 30.8241 95.2541 31.2415C95.3561 31.659 95.4582 32.0811 95.5602 32.5078C95.6715 32.9253 95.7829 33.3288 95.8942 33.7184C96.0148 33.3102 96.1307 32.8928 96.2421 32.4661C96.3627 32.0393 96.474 31.6219 96.576 31.2137C96.6873 30.7962 96.7894 30.3973 96.8822 30.017C96.9842 29.6274 97.0723 29.2656 97.1465 28.9316H98.6494C98.7236 29.2656 98.8071 29.6274 98.8999 30.017C98.9926 30.3973 99.09 30.7962 99.1921 31.2137C99.2941 31.6219 99.4008 32.0393 99.5121 32.4661C99.6234 32.8928 99.7394 33.3102 99.86 33.7184C99.9713 33.3288 100.083 32.9253 100.194 32.5078C100.305 32.0811 100.407 31.659 100.5 31.2415C100.602 30.8241 100.695 30.4205 100.778 30.0309C100.871 29.632 100.955 29.2656 101.029 28.9316H103.186C102.982 29.6552 102.768 30.3741 102.546 31.0885C102.332 31.7935 102.119 32.4661 101.906 33.1062C101.701 33.737 101.497 34.3214 101.293 34.8595C101.098 35.3975 100.918 35.8614 100.751 36.251H99.1364C98.9045 35.5459 98.6772 34.8455 98.4546 34.1498C98.2319 33.454 98.0278 32.7536 97.8423 32.0486ZM104.301 29.1821C104.654 29.08 105.109 28.9873 105.665 28.9038C106.222 28.811 106.806 28.7646 107.418 28.7646C108.04 28.7646 108.555 28.8481 108.963 29.0151C109.38 29.1728 109.71 29.4001 109.951 29.6969C110.192 29.9938 110.364 30.3463 110.466 30.7545C110.568 31.1627 110.619 31.6172 110.619 32.1182V36.251H108.546V32.3686C108.546 31.7007 108.457 31.2276 108.281 30.9493C108.105 30.671 107.776 30.5318 107.293 30.5318C107.145 30.5318 106.987 30.5411 106.82 30.5597C106.653 30.569 106.505 30.5829 106.375 30.6014V36.251H104.301V29.1821Z" fill="#414652"/>
<rect x="7.51245" y="56.5808" width="326.975" height="162.301" stroke="#ECECEC" stroke-width="1.0249"/>
<path d="M7 109.858H335" stroke="#ECECEC" stroke-width="1.0249"/>
<path d="M7 83.4521H335" stroke="#ECECEC" stroke-width="1.0249"/>
<path d="M7 136.264H335" stroke="#ECECEC" stroke-width="1.0249"/>
<path d="M7 162.67H335" stroke="#ECECEC" stroke-width="1.0249"/>
<path d="M7 189.076H335" stroke="#ECECEC" stroke-width="1.0249"/>
<path d="M62.1777 56.0684L62.1777 219.394" stroke="#ECECEC" stroke-width="1.0249"/>
<path d="M116.333 56.0684L116.333 219.394" stroke="#ECECEC" stroke-width="1.0249"/>
<path d="M170.489 56.0684L170.489 219.394" stroke="#ECECEC" stroke-width="1.0249"/>
<path d="M224.646 56.0684L224.645 219.394" stroke="#ECECEC" stroke-width="1.0249"/>
<path d="M278.801 56.0684L278.801 219.394" stroke="#ECECEC" stroke-width="1.0249"/>
<path d="M7 56.832H335" stroke="#ECECEC" stroke-width="1.5302"/>
<path d="M39.3027 178.642L72.1027 125.467L105.897 66.3271L147.642 133.915L180.939 78.2544L235.606 75.2726L267.909 109.067" stroke="#A8A8A8" stroke-width="2.98182"/>
<path d="M271.843 56.0684L271.843 219.394" stroke="#7D7D7D" stroke-width="2.98182"/>
<line x1="7" y1="97.6368" x2="334.006" y2="97.6368" stroke="#53B9FF" stroke-width="0.993939" stroke-dasharray="3.98 3.98"/>
<path d="M21.1149 89.2432C21.1017 88.9847 21.0851 88.7329 21.0652 88.4878C21.052 88.236 21.0354 87.9875 21.0155 87.7423H18.4313C18.2987 87.9875 18.1596 88.236 18.0138 88.4878C17.868 88.7329 17.7289 88.9847 17.5964 89.2432H15.9762C16.4069 88.501 16.8078 87.8152 17.1789 87.1857C17.5566 86.5562 17.9177 85.9632 18.2623 85.4066C18.6135 84.85 18.9547 84.3232 19.2861 83.8262C19.6174 83.3226 19.9553 82.8323 20.2999 82.3552H21.6815C21.7875 82.8323 21.8869 83.3624 21.9796 83.9455C22.079 84.522 22.1685 85.115 22.248 85.7246C22.3341 86.3276 22.4103 86.9339 22.4766 87.5435C22.5495 88.1465 22.6158 88.7131 22.6754 89.2432H21.1149ZM20.6577 83.866C20.3794 84.3099 20.1044 84.7506 19.8327 85.1879C19.5677 85.6252 19.3092 86.0725 19.0575 86.5297H20.9161C20.883 86.1255 20.8465 85.6948 20.8068 85.2376C20.7737 84.7804 20.724 84.3232 20.6577 83.866ZM24.4739 89.2432C24.3016 88.5805 24.1459 87.8086 24.0067 86.9273C23.8676 86.0394 23.7715 85.0686 23.7185 84.015H25.2492C25.2558 84.2735 25.2657 84.5584 25.279 84.8698C25.2922 85.1746 25.3088 85.4828 25.3287 85.7942C25.3485 86.1056 25.3717 86.4104 25.3982 86.7086C25.4247 87.0002 25.4546 87.2652 25.4877 87.5038C25.6335 87.305 25.7958 87.0598 25.9747 86.7683C26.1603 86.4767 26.3392 86.1719 26.5115 85.8538C26.6837 85.5358 26.8428 85.2177 26.9885 84.8996C27.1343 84.575 27.247 84.2801 27.3265 84.015H28.8969C28.7246 84.4855 28.5093 84.9692 28.2508 85.4662C27.999 85.9632 27.7274 86.4436 27.4358 86.9074C27.1443 87.3712 26.8461 87.8053 26.5413 88.2095C26.2431 88.6137 25.9648 88.9582 25.7064 89.2432H24.4739ZM28.8959 87.1956C28.8959 86.7716 28.9688 86.3607 29.1146 85.9632C29.267 85.5656 29.479 85.2144 29.7507 84.9096C30.0224 84.5982 30.3504 84.3497 30.7347 84.1641C31.1256 83.972 31.5563 83.8759 32.0268 83.8759C32.2587 83.8759 32.4741 83.909 32.6729 83.9753C32.8717 84.0415 33.0439 84.1376 33.1897 84.2635C33.3421 84.3894 33.4581 84.5451 33.5376 84.7307C33.6237 84.9096 33.6668 85.115 33.6668 85.3469C33.6668 85.718 33.584 86.0327 33.4183 86.2912C33.2527 86.5496 33.0207 86.7616 32.7226 86.9273C32.431 87.0863 32.0831 87.2023 31.6789 87.2752C31.2747 87.3481 30.8341 87.3845 30.357 87.3845C30.4034 87.6628 30.5028 87.8616 30.6552 87.9809C30.8142 88.0935 31.0627 88.1498 31.4006 88.1498C31.6127 88.1498 31.828 88.1333 32.0467 88.1001C32.2654 88.0604 32.4708 88.0041 32.6629 87.9312L32.7723 89.0941C32.5867 89.167 32.3482 89.2332 32.0566 89.2929C31.7717 89.3525 31.4603 89.3823 31.1223 89.3823C30.7115 89.3823 30.3636 89.326 30.0787 89.2133C29.8004 89.0941 29.5718 88.935 29.3929 88.7363C29.2206 88.5375 29.0947 88.3055 29.0152 88.0405C28.9357 87.7754 28.8959 87.4938 28.8959 87.1956ZM31.7883 85.0487C31.4503 85.0487 31.1521 85.1713 30.8937 85.4165C30.6419 85.655 30.4763 85.9731 30.3967 86.3707C30.8076 86.3574 31.1389 86.3243 31.3907 86.2713C31.6425 86.2116 31.838 86.1421 31.9771 86.0626C32.1163 85.983 32.209 85.8969 32.2554 85.8041C32.3018 85.7114 32.325 85.6186 32.325 85.5258C32.325 85.2078 32.1461 85.0487 31.7883 85.0487ZM37.864 85.2873C37.7314 85.2542 37.5989 85.2243 37.4664 85.1978C37.3405 85.1647 37.1516 85.1481 36.8998 85.1481C36.8071 85.1481 36.7044 85.1581 36.5917 85.178C36.4791 85.1912 36.3863 85.2078 36.3134 85.2276L35.3493 89.2432H33.8683L35.061 84.2933C35.346 84.2006 35.664 84.1144 36.0152 84.0349C36.373 83.9488 36.7739 83.9057 37.2179 83.9057C37.3835 83.9057 37.5658 83.9223 37.7646 83.9554C37.97 83.9819 38.1489 84.0283 38.3013 84.0946L37.864 85.2873ZM42.8451 86.9869C42.7524 87.3646 42.7259 87.7456 42.7656 88.13C42.8054 88.5076 42.8816 88.8456 42.9942 89.1438L41.6723 89.3326C41.6325 89.2531 41.5961 89.1769 41.563 89.104C41.5298 89.0311 41.4967 88.9483 41.4636 88.8555C41.278 89.0079 41.0726 89.1338 40.8473 89.2332C40.622 89.3326 40.3702 89.3823 40.0919 89.3823C39.7606 89.3823 39.4757 89.326 39.2371 89.2133C39.0052 89.0941 38.8131 88.9384 38.6607 88.7462C38.5149 88.5474 38.4089 88.3188 38.3426 88.0604C38.2763 87.7953 38.2432 87.5137 38.2432 87.2155C38.2432 86.7583 38.3227 86.3276 38.4817 85.9234C38.6474 85.5192 38.8727 85.168 39.1576 84.8698C39.4492 84.565 39.7904 84.3265 40.1814 84.1542C40.5723 83.9819 40.9964 83.8958 41.4536 83.8958C41.5133 83.8958 41.616 83.8991 41.7617 83.9057C41.9141 83.9123 42.0864 83.9289 42.2786 83.9554C42.4708 83.9753 42.6729 84.0117 42.8849 84.0647C43.0969 84.1177 43.299 84.1906 43.4912 84.2834L42.8451 86.9869ZM41.8114 85.1581C41.7253 85.1448 41.6458 85.1349 41.5729 85.1283C41.5066 85.1216 41.4238 85.1183 41.3244 85.1183C41.0991 85.1183 40.8871 85.1746 40.6883 85.2873C40.4961 85.3999 40.3272 85.549 40.1814 85.7346C40.0356 85.9135 39.9196 86.1222 39.8335 86.3607C39.754 86.5993 39.7142 86.8478 39.7142 87.1062C39.7142 87.4243 39.7672 87.6761 39.8733 87.8616C39.9793 88.0471 40.1748 88.1399 40.4597 88.1399C40.6121 88.1399 40.7479 88.1101 40.8672 88.0504C40.9931 87.9908 41.1256 87.8914 41.2648 87.7523C41.278 87.5866 41.2979 87.4143 41.3244 87.2354C41.3575 87.0499 41.3907 86.8809 41.4238 86.7285L41.8114 85.1581ZM48.3008 88.5872C48.2014 89.0179 48.0689 89.3889 47.9032 89.7004C47.7442 90.0184 47.5421 90.2802 47.2969 90.4856C47.0584 90.6976 46.7701 90.8533 46.4322 90.9527C46.0942 91.0588 45.7 91.1118 45.2494 91.1118C44.8319 91.1118 44.4807 91.072 44.1958 90.9925C43.9109 90.9196 43.6525 90.8268 43.4205 90.7142L43.9175 89.5413C44.1229 89.6341 44.335 89.7136 44.5536 89.7799C44.7789 89.8462 45.0539 89.8793 45.3786 89.8793C45.8027 89.8793 46.1207 89.7832 46.3328 89.591C46.5514 89.4055 46.6939 89.1636 46.7602 88.8655L46.7999 88.6766C46.6674 88.7429 46.5249 88.7959 46.3725 88.8356C46.2268 88.8754 46.071 88.8953 45.9054 88.8953C45.594 88.8953 45.3256 88.8489 45.1003 88.7561C44.875 88.6567 44.6895 88.5209 44.5437 88.3486C44.4045 88.1763 44.2985 87.9742 44.2256 87.7423C44.1594 87.5038 44.1262 87.2453 44.1262 86.967C44.1262 86.4634 44.219 86.0195 44.4045 85.6352C44.5901 85.2442 44.8352 84.9195 45.1401 84.6611C45.4515 84.4027 45.806 84.2072 46.2036 84.0747C46.6078 83.9422 47.0285 83.8759 47.4659 83.8759C47.7839 83.8759 48.0987 83.909 48.4101 83.9753C48.7215 84.0415 49.0264 84.1443 49.3245 84.2834L48.3008 88.5872ZM47.6448 85.1581C47.5321 85.1316 47.393 85.1183 47.2273 85.1183C46.9755 85.1183 46.7502 85.1647 46.5514 85.2575C46.3527 85.3436 46.1804 85.4629 46.0346 85.6153C45.8954 85.7677 45.7861 85.9532 45.7066 86.1719C45.6337 86.3839 45.5973 86.6125 45.5973 86.8577C45.5973 86.977 45.6072 87.0896 45.6271 87.1956C45.647 87.295 45.6834 87.3845 45.7364 87.464C45.7894 87.5369 45.8623 87.5965 45.9551 87.6429C46.0479 87.6893 46.1638 87.7125 46.303 87.7125C46.3957 87.7125 46.5183 87.6959 46.6707 87.6628C46.8297 87.6297 46.9722 87.5535 47.0981 87.4342L47.6448 85.1581ZM49.7259 87.1956C49.7259 86.7716 49.7988 86.3607 49.9446 85.9632C50.097 85.5656 50.309 85.2144 50.5807 84.9096C50.8524 84.5982 51.1804 84.3497 51.5647 84.1641C51.9557 83.972 52.3864 83.8759 52.8568 83.8759C53.0887 83.8759 53.3041 83.909 53.5029 83.9753C53.7017 84.0415 53.874 84.1376 54.0197 84.2635C54.1721 84.3894 54.2881 84.5451 54.3676 84.7307C54.4538 84.9096 54.4968 85.115 54.4968 85.3469C54.4968 85.718 54.414 86.0327 54.2483 86.2912C54.0827 86.5496 53.8508 86.7616 53.5526 86.9273C53.261 87.0863 52.9132 87.2023 52.5089 87.2752C52.1047 87.3481 51.6641 87.3845 51.187 87.3845C51.2334 87.6628 51.3328 87.8616 51.4852 87.9809C51.6442 88.0935 51.8927 88.1498 52.2306 88.1498C52.4427 88.1498 52.658 88.1333 52.8767 88.1001C53.0954 88.0604 53.3008 88.0041 53.4929 87.9312L53.6023 89.0941C53.4167 89.167 53.1782 89.2332 52.8866 89.2929C52.6017 89.3525 52.2903 89.3823 51.9523 89.3823C51.5415 89.3823 51.1936 89.326 50.9087 89.2133C50.6304 89.0941 50.4018 88.935 50.2229 88.7363C50.0506 88.5375 49.9247 88.3055 49.8452 88.0405C49.7657 87.7754 49.7259 87.4938 49.7259 87.1956ZM52.6183 85.0487C52.2803 85.0487 51.9822 85.1713 51.7237 85.4165C51.4719 85.655 51.3063 85.9731 51.2268 86.3707C51.6376 86.3574 51.9689 86.3243 52.2207 86.2713C52.4725 86.2116 52.668 86.1421 52.8071 86.0626C52.9463 85.983 53.0391 85.8969 53.0854 85.8041C53.1318 85.7114 53.155 85.6186 53.155 85.5258C53.155 85.2078 52.9761 85.0487 52.6183 85.0487Z" fill="#53B9FF"/>
<rect x="143.17" y="13.6484" width="81.503" height="33.7939" rx="15.903" fill="#00A79E"/>
<path d="M175.692 26.7556C175.819 27.1903 175.957 27.6833 176.105 28.2346C176.264 28.7753 176.428 29.3372 176.598 29.9203C176.778 30.5034 176.959 31.0866 177.139 31.6697C177.319 32.2528 177.494 32.7935 177.664 33.2918C177.801 32.7511 177.939 32.1627 178.077 31.5265C178.225 30.8904 178.363 30.2331 178.49 29.5546C178.618 28.876 178.74 28.2028 178.856 27.5349C178.983 26.8564 179.1 26.2043 179.206 25.5788H181.782C181.411 27.4236 180.982 29.2948 180.494 31.1926C180.017 33.0903 179.498 34.8927 178.936 36.5996H176.662C176.291 35.5818 175.93 34.5163 175.58 33.4031C175.23 32.2793 174.886 31.1555 174.547 30.0317C174.207 31.1555 173.868 32.2793 173.529 33.4031C173.189 34.5163 172.834 35.5818 172.463 36.5996H170.189C169.627 34.8927 169.102 33.0903 168.615 31.1926C168.138 29.2948 167.714 27.4236 167.342 25.5788H170.03C170.136 26.2043 170.253 26.8564 170.38 27.5349C170.507 28.2028 170.64 28.876 170.778 29.5546C170.915 30.2331 171.053 30.8904 171.191 31.5265C171.339 32.1627 171.488 32.7511 171.636 33.2918C171.827 32.7723 172.013 32.221 172.193 31.6379C172.373 31.0548 172.548 30.4716 172.718 29.8885C172.887 29.3054 173.041 28.7435 173.179 28.2028C173.327 27.6621 173.46 27.1797 173.576 26.7556H175.692ZM185.587 36.5996H183.218V28.2346H185.587V36.5996ZM185.81 25.8174C185.81 26.252 185.667 26.5966 185.38 26.8511C185.105 27.0949 184.776 27.2168 184.394 27.2168C184.013 27.2168 183.679 27.0949 183.392 26.8511C183.117 26.5966 182.979 26.252 182.979 25.8174C182.979 25.3827 183.117 25.0434 183.392 24.7996C183.679 24.5451 184.013 24.4179 184.394 24.4179C184.776 24.4179 185.105 24.5451 185.38 24.7996C185.667 25.0434 185.81 25.3827 185.81 25.8174ZM187.815 28.5209C188.217 28.4042 188.737 28.2982 189.373 28.2028C190.009 28.0968 190.677 28.0438 191.377 28.0438C192.087 28.0438 192.676 28.1392 193.142 28.33C193.619 28.5103 193.995 28.77 194.271 29.1093C194.547 29.4485 194.743 29.8514 194.86 30.3179C194.976 30.7844 195.034 31.3039 195.034 31.8764V36.5996H192.665V32.1627C192.665 31.3993 192.564 30.8586 192.363 30.5406C192.161 30.2225 191.785 30.0635 191.234 30.0635C191.064 30.0635 190.884 30.0741 190.693 30.0953C190.502 30.1059 190.333 30.1218 190.184 30.143V36.5996H187.815V28.5209ZM199.612 28.4255C199.612 29.2842 199.581 30.0847 199.517 30.8268C199.453 31.569 199.369 32.3217 199.263 33.085H197.45C197.344 32.3217 197.254 31.569 197.179 30.8268C197.116 30.0847 197.084 29.2842 197.084 28.4255V25.5788H199.612V28.4255ZM199.819 35.3433C199.819 35.8098 199.665 36.1702 199.358 36.4247C199.061 36.6791 198.722 36.8063 198.34 36.8063C197.959 36.8063 197.614 36.6791 197.307 36.4247C197.01 36.1702 196.861 35.8098 196.861 35.3433C196.861 34.8768 197.01 34.5163 197.307 34.2619C197.614 34.0074 197.959 33.8802 198.34 33.8802C198.722 33.8802 199.061 34.0074 199.358 34.2619C199.665 34.5163 199.819 34.8768 199.819 35.3433Z" fill="white"/>
<path d="M18.8913 159.001C20.1 159.001 20.7043 158.588 20.7043 157.761C20.7043 157.506 20.6486 157.292 20.5373 157.117C20.4339 156.934 20.2908 156.779 20.1079 156.652C19.925 156.516 19.7143 156.401 19.4758 156.306C19.2452 156.21 18.9987 156.115 18.7363 156.019C18.4341 155.916 18.1479 155.801 17.8775 155.674C17.6072 155.538 17.3726 155.383 17.1738 155.208C16.975 155.025 16.816 154.811 16.6967 154.564C16.5854 154.318 16.5297 154.02 16.5297 153.67C16.5297 152.946 16.7762 152.382 17.2692 151.976C17.7622 151.571 18.4421 151.368 19.3088 151.368C19.8097 151.368 20.263 151.423 20.6685 151.535C21.082 151.638 21.3841 151.753 21.575 151.881L21.2052 152.823C21.0383 152.72 20.7878 152.62 20.4538 152.525C20.1278 152.421 19.7461 152.37 19.3088 152.37C19.0862 152.37 18.8794 152.394 18.6886 152.441C18.4977 152.489 18.3308 152.561 18.1876 152.656C18.0445 152.751 17.9292 152.875 17.8417 153.026C17.7622 153.169 17.7225 153.34 17.7225 153.539C17.7225 153.761 17.7662 153.948 17.8537 154.099C17.9411 154.25 18.0644 154.385 18.2234 154.505C18.3825 154.616 18.5653 154.719 18.7721 154.815C18.9868 154.91 19.2213 155.006 19.4758 155.101C19.8336 155.244 20.1596 155.387 20.4538 155.53C20.756 155.674 21.0144 155.844 21.2291 156.043C21.4517 156.242 21.6227 156.481 21.742 156.759C21.8612 157.029 21.9209 157.359 21.9209 157.749C21.9209 158.472 21.6545 159.029 21.1217 159.419C20.5969 159.808 19.8535 160.003 18.8913 160.003C18.5653 160.003 18.2632 159.979 17.9849 159.932C17.7145 159.892 17.472 159.844 17.2573 159.788C17.0426 159.725 16.8558 159.661 16.6967 159.598C16.5457 159.526 16.4264 159.466 16.3389 159.419L16.6848 158.465C16.8677 158.568 17.146 158.683 17.5197 158.81C17.8934 158.938 18.3506 159.001 18.8913 159.001ZM24.2852 153.622H26.6349V154.552H24.2852V157.415C24.2852 157.725 24.309 157.983 24.3567 158.19C24.4045 158.389 24.476 158.548 24.5714 158.667C24.6669 158.779 24.7861 158.858 24.9293 158.906C25.0724 158.954 25.2394 158.977 25.4302 158.977C25.7642 158.977 26.0305 158.942 26.2293 158.87C26.4361 158.791 26.5792 158.735 26.6587 158.703L26.8734 159.621C26.7621 159.677 26.5673 159.745 26.289 159.824C26.0107 159.912 25.6926 159.955 25.3348 159.955C24.9133 159.955 24.5635 159.904 24.2852 159.8C24.0148 159.689 23.7962 159.526 23.6292 159.311C23.4622 159.097 23.3429 158.834 23.2714 158.524C23.2077 158.206 23.1759 157.84 23.1759 157.427V151.893L24.2852 151.702V153.622ZM30.1456 159.025C30.408 159.025 30.6386 159.021 30.8374 159.013C31.0441 158.997 31.215 158.973 31.3502 158.942V157.093C31.2707 157.053 31.1395 157.021 30.9566 156.997C30.7817 156.966 30.567 156.95 30.3126 156.95C30.1456 156.95 29.9667 156.962 29.7758 156.986C29.5929 157.009 29.422 157.061 29.263 157.141C29.1119 157.212 28.9846 157.316 28.8813 157.451C28.7779 157.578 28.7262 157.749 28.7262 157.964C28.7262 158.361 28.8534 158.639 29.1079 158.798C29.3623 158.95 29.7082 159.025 30.1456 159.025ZM30.0502 153.467C30.4954 153.467 30.8692 153.527 31.1713 153.646C31.4814 153.757 31.7279 153.92 31.9108 154.135C32.1016 154.342 32.2368 154.592 32.3163 154.886C32.3958 155.173 32.4356 155.491 32.4356 155.841V159.717C32.3402 159.733 32.205 159.757 32.0301 159.788C31.8631 159.812 31.6723 159.836 31.4576 159.86C31.2429 159.884 31.0083 159.904 30.7539 159.92C30.5074 159.943 30.2609 159.955 30.0144 159.955C29.6645 159.955 29.3425 159.92 29.0483 159.848C28.7541 159.777 28.4996 159.665 28.2849 159.514C28.0702 159.355 27.9032 159.148 27.784 158.894C27.6647 158.639 27.6051 158.333 27.6051 157.975C27.6051 157.634 27.6726 157.339 27.8078 157.093C27.951 156.846 28.1418 156.648 28.3803 156.497C28.6189 156.345 28.8972 156.234 29.2152 156.163C29.5333 156.091 29.8673 156.055 30.2171 156.055C30.3285 156.055 30.4438 156.063 30.563 156.079C30.6823 156.087 30.7936 156.103 30.897 156.127C31.0083 156.143 31.1037 156.159 31.1832 156.174C31.2628 156.19 31.3184 156.202 31.3502 156.21V155.9C31.3502 155.717 31.3303 155.538 31.2906 155.363C31.2508 155.181 31.1793 155.022 31.0759 154.886C30.9725 154.743 30.8294 154.632 30.6465 154.552C30.4716 154.465 30.241 154.421 29.9547 154.421C29.589 154.421 29.2669 154.449 28.9886 154.505C28.7183 154.552 28.5155 154.604 28.3803 154.66L28.2491 153.741C28.3923 153.678 28.6308 153.618 28.9648 153.562C29.2987 153.499 29.6605 153.467 30.0502 153.467ZM36.5679 153.491C36.6634 153.491 36.7707 153.499 36.89 153.515C37.0172 153.523 37.1405 153.539 37.2597 153.562C37.379 153.578 37.4863 153.598 37.5818 153.622C37.6851 153.638 37.7607 153.654 37.8084 153.67L37.6175 154.636C37.5301 154.604 37.383 154.568 37.1762 154.529C36.9774 154.481 36.719 154.457 36.401 154.457C36.1942 154.457 35.9875 154.481 35.7807 154.529C35.582 154.568 35.4508 154.596 35.3871 154.612V159.824H34.2779V153.884C34.5403 153.789 34.8663 153.702 35.2559 153.622C35.6456 153.535 36.0829 153.491 36.5679 153.491ZM39.9164 153.622H42.2661V154.552H39.9164V157.415C39.9164 157.725 39.9403 157.983 39.988 158.19C40.0357 158.389 40.1073 158.548 40.2027 158.667C40.2981 158.779 40.4174 158.858 40.5605 158.906C40.7036 158.954 40.8706 158.977 41.0614 158.977C41.3954 158.977 41.6618 158.942 41.8606 158.87C42.0673 158.791 42.2104 158.735 42.29 158.703L42.5046 159.621C42.3933 159.677 42.1985 159.745 41.9202 159.824C41.6419 159.912 41.3238 159.955 40.966 159.955C40.5446 159.955 40.1947 159.904 39.9164 159.8C39.6461 159.689 39.4274 159.526 39.2604 159.311C39.0934 159.097 38.9742 158.834 38.9026 158.524C38.839 158.206 38.8072 157.84 38.8072 157.427V151.893L39.9164 151.702V153.622Z" fill="#414652"/>
<path d="M46.2605 174.666C46.2605 179.058 42.7004 182.618 38.3089 182.618C33.9174 182.618 30.3574 179.058 30.3574 174.666C30.3574 170.275 33.9174 166.715 38.3089 166.715C42.7004 166.715 46.2605 170.275 46.2605 174.666Z" fill="#FF444F"/>
<path d="M240.576 75.2734C240.576 78.0181 238.351 80.2431 235.606 80.2431C232.862 80.2431 230.637 78.0181 230.637 75.2734C230.637 72.5287 232.862 70.3037 235.606 70.3037C238.351 70.3037 240.576 72.5287 240.576 75.2734Z" fill="#53B9FF"/>
<path d="M184.915 78.2549C184.915 80.9995 182.69 83.2246 179.945 83.2246C177.201 83.2246 174.976 80.9995 174.976 78.2549C174.976 75.5102 177.201 73.2852 179.945 73.2852C182.69 73.2852 184.915 75.5102 184.915 78.2549Z" fill="#53B9FF"/>
<path d="M153.109 132.922C153.109 135.667 150.884 137.892 148.14 137.892C145.395 137.892 143.17 135.667 143.17 132.922C143.17 130.177 145.395 127.952 148.14 127.952C150.884 127.952 153.109 130.177 153.109 132.922Z" fill="#53B9FF"/>
<path d="M280.334 110.061C280.334 114.452 276.774 118.012 272.382 118.012C267.991 118.012 264.431 114.452 264.431 110.061C264.431 105.669 267.991 102.109 272.382 102.109C276.774 102.109 280.334 105.669 280.334 110.061Z" fill="#FF444F"/>
<path d="M287.323 125.037V116.772H292.368V117.761H288.48V120.218H291.938V121.185H288.48V124.047H292.666V125.037H287.323ZM294.065 119.014C294.319 118.95 294.657 118.883 295.079 118.811C295.5 118.74 295.985 118.704 296.534 118.704C297.027 118.704 297.436 118.775 297.762 118.918C298.088 119.054 298.347 119.248 298.538 119.503C298.736 119.749 298.876 120.048 298.955 120.397C299.035 120.747 299.074 121.133 299.074 121.554V125.037H297.965V121.793C297.965 121.411 297.937 121.085 297.882 120.815C297.834 120.545 297.751 120.326 297.631 120.159C297.512 119.992 297.353 119.873 297.154 119.801C296.955 119.722 296.709 119.682 296.415 119.682C296.295 119.682 296.172 119.686 296.045 119.694C295.918 119.702 295.794 119.714 295.675 119.729C295.564 119.737 295.46 119.749 295.365 119.765C295.278 119.781 295.214 119.793 295.174 119.801V125.037H294.065V119.014ZM304.921 120.147C304.786 120.036 304.591 119.928 304.337 119.825C304.083 119.722 303.804 119.67 303.502 119.67C303.184 119.67 302.91 119.729 302.679 119.849C302.456 119.96 302.274 120.119 302.13 120.326C301.987 120.525 301.884 120.763 301.82 121.041C301.757 121.32 301.725 121.618 301.725 121.936C301.725 122.66 301.904 123.22 302.262 123.618C302.619 124.007 303.097 124.202 303.693 124.202C303.995 124.202 304.246 124.19 304.444 124.166C304.651 124.135 304.81 124.103 304.921 124.071V120.147ZM304.921 115.972L306.031 115.782V124.858C305.776 124.93 305.45 125.001 305.053 125.073C304.655 125.144 304.198 125.18 303.681 125.18C303.204 125.18 302.774 125.105 302.393 124.954C302.011 124.803 301.685 124.588 301.415 124.31C301.144 124.031 300.934 123.693 300.783 123.296C300.64 122.89 300.568 122.437 300.568 121.936C300.568 121.459 300.628 121.022 300.747 120.624C300.874 120.226 301.057 119.885 301.296 119.598C301.534 119.312 301.824 119.089 302.166 118.93C302.516 118.771 302.914 118.692 303.359 118.692C303.717 118.692 304.031 118.74 304.301 118.835C304.579 118.93 304.786 119.022 304.921 119.109V115.972Z" fill="#414652"/>
<path d="M110.37 65.334C110.37 68.0786 108.145 70.3037 105.4 70.3037C102.656 70.3037 100.431 68.0786 100.431 65.334C100.431 62.5893 102.656 60.3643 105.4 60.3643C108.145 60.3643 110.37 62.5893 110.37 65.334Z" fill="#53B9FF"/>
<defs>
<filter id="filter0_d_2599_38993" x="0.0977015" y="0.175427" width="341.805" height="227.502" filterUnits="userSpaceOnUse" color-interpolation-filters="sRGB">
<feFlood flood-opacity="0" result="BackgroundImageFix"/>
<feColorMatrix in="SourceAlpha" type="matrix" values="0 0 0 0 0 0 0 0 0 0 0 0 0 0 0 0 0 0 127 0" result="hardAlpha"/>
<feOffset dy="1.38046"/>
<feGaussianBlur stdDeviation="3.45115"/>
<feComposite in2="hardAlpha" operator="out"/>
<feColorMatrix type="matrix" values="0 0 0 0 0 0 0 0 0 0 0 0 0 0 0 0 0 0 0.1 0"/>
<feBlend mode="normal" in2="BackgroundImageFix" result="effect1_dropShadow_2599_38993"/>
<feBlend mode="normal" in="SourceGraphic" in2="effect1_dropShadow_2599_38993" result="shape"/>
</filter>
</defs>
</svg>
