<svg width="342" height="228" viewBox="0 0 342 228" fill="none" xmlns="http://www.w3.org/2000/svg">
<g filter="url(#filter0_d_2591_28586)">
<rect x="6.99951" y="6" width="328" height="213.697" rx="4.14138" fill="white"/>
</g>
<path d="M37.6348 26.7992C39.0819 26.7992 40.1905 27.0589 40.9605 27.5784C41.7305 28.0887 42.1154 28.8865 42.1154 29.9718C42.1154 30.649 41.9577 31.201 41.6423 31.6277C41.3362 32.0452 40.8909 32.3745 40.3065 32.6157C40.5013 32.8569 40.7054 33.1352 40.9187 33.4506C41.1321 33.7568 41.3408 34.0815 41.5449 34.4247C41.7583 34.7587 41.9624 35.1112 42.1572 35.4822C42.352 35.844 42.5329 36.2012 42.6999 36.5537H40.2647C40.0885 36.2383 39.9076 35.9183 39.722 35.5936C39.5458 35.2689 39.3602 34.9535 39.1654 34.6473C38.9799 34.3412 38.7944 34.0536 38.6088 33.7846C38.4233 33.5063 38.2378 33.2558 38.0522 33.0332H36.9808V36.5537H34.81V27.0497C35.2831 26.9569 35.7701 26.892 36.2711 26.8548C36.7813 26.8177 37.2359 26.7992 37.6348 26.7992ZM37.76 28.6499C37.6023 28.6499 37.4585 28.6545 37.3286 28.6638C37.208 28.6731 37.0921 28.6824 36.9808 28.6917V31.3077H37.593C38.4094 31.3077 38.9938 31.2057 39.3463 31.0016C39.6988 30.7975 39.8751 30.4496 39.8751 29.9579C39.8751 29.4848 39.6942 29.1508 39.3324 28.956C38.9799 28.7519 38.4558 28.6499 37.76 28.6499ZM43.2509 32.9497C43.2509 32.3003 43.3483 31.7344 43.5432 31.252C43.7472 30.7604 44.0116 30.3522 44.3363 30.0275C44.661 29.7028 45.0321 29.457 45.4495 29.29C45.8763 29.123 46.3123 29.0395 46.7576 29.0395C47.7966 29.0395 48.6176 29.3596 49.2205 29.9997C49.8235 30.6305 50.125 31.5628 50.125 32.7966C50.125 32.9172 50.1204 33.0517 50.1111 33.2002C50.1018 33.3393 50.0926 33.4645 50.0833 33.5759H45.38C45.4263 34.0026 45.6258 34.3412 45.9783 34.5917C46.3308 34.8421 46.8039 34.9674 47.3977 34.9674C47.778 34.9674 48.1491 34.9349 48.5109 34.87C48.8819 34.7958 49.1834 34.7076 49.4154 34.6056L49.6937 36.2893C49.5823 36.345 49.4339 36.4006 49.2484 36.4563C49.0628 36.512 48.8541 36.5583 48.6222 36.5955C48.3995 36.6418 48.1584 36.6789 47.8986 36.7068C47.6389 36.7346 47.3791 36.7485 47.1194 36.7485C46.4607 36.7485 45.8855 36.6511 45.3939 36.4563C44.9115 36.2615 44.5079 35.9971 44.1833 35.6631C43.8678 35.3199 43.6313 34.9164 43.4736 34.4525C43.3252 33.9887 43.2509 33.4877 43.2509 32.9497ZM48.1212 32.1565C48.112 31.9803 48.0795 31.8086 48.0238 31.6417C47.9775 31.4747 47.8986 31.3263 47.7873 31.1964C47.6852 31.0665 47.5507 30.9598 47.3837 30.8763C47.226 30.7928 47.0266 30.7511 46.7854 30.7511C46.5535 30.7511 46.354 30.7928 46.187 30.8763C46.0201 30.9505 45.8809 31.0526 45.7696 31.1825C45.6583 31.3123 45.5701 31.4654 45.5052 31.6417C45.4495 31.8086 45.4078 31.9803 45.38 32.1565H48.1212ZM53.8262 35.0648C54.2066 35.0648 54.4756 35.0277 54.6333 34.9535C54.791 34.8793 54.8699 34.7355 54.8699 34.5221C54.8699 34.3551 54.7678 34.2113 54.5637 34.0907C54.3597 33.9609 54.0489 33.8171 53.6314 33.6594C53.3067 33.5388 53.0099 33.4135 52.7409 33.2837C52.4811 33.1538 52.2585 33.0007 52.0729 32.8245C51.8874 32.6389 51.7436 32.4209 51.6416 32.1704C51.5395 31.92 51.4885 31.6185 51.4885 31.266C51.4885 30.5795 51.7436 30.0368 52.2538 29.6379C52.7641 29.239 53.4644 29.0395 54.355 29.0395C54.8003 29.0395 55.227 29.0813 55.6352 29.1648C56.0434 29.239 56.3681 29.3225 56.6093 29.4152L56.2475 31.0294C56.0063 30.9459 55.7419 30.8717 55.4543 30.8068C55.176 30.7418 54.8606 30.7093 54.5081 30.7093C53.8587 30.7093 53.534 30.8902 53.534 31.252C53.534 31.3355 53.5479 31.4097 53.5758 31.4747C53.6036 31.5396 53.6593 31.6046 53.7427 31.6695C53.8262 31.7252 53.9376 31.7901 54.0767 31.8643C54.2251 31.9292 54.4107 32.0035 54.6333 32.0869C55.0879 32.2539 55.4636 32.4209 55.7604 32.5879C56.0573 32.7456 56.2892 32.9219 56.4562 33.1167C56.6325 33.3022 56.7531 33.5109 56.818 33.7429C56.8922 33.9748 56.9293 34.2438 56.9293 34.5499C56.9293 35.2735 56.6557 35.8208 56.1083 36.1919C55.5703 36.563 54.8049 36.7485 53.8123 36.7485C53.163 36.7485 52.6203 36.6929 52.1843 36.5815C51.7575 36.4702 51.4607 36.3775 51.2937 36.3032L51.6416 34.6195C51.9941 34.7587 52.3559 34.87 52.7269 34.9535C53.098 35.0277 53.4644 35.0648 53.8262 35.0648ZM58.1309 32.9497C58.1309 32.3003 58.2283 31.7344 58.4231 31.252C58.6272 30.7604 58.8916 30.3522 59.2163 30.0275C59.541 29.7028 59.9121 29.457 60.3295 29.29C60.7562 29.123 61.1922 29.0395 61.6375 29.0395C62.6765 29.0395 63.4975 29.3596 64.1005 29.9997C64.7035 30.6305 65.005 31.5628 65.005 32.7966C65.005 32.9172 65.0004 33.0517 64.9911 33.2002C64.9818 33.3393 64.9725 33.4645 64.9633 33.5759H60.2599C60.3063 34.0026 60.5058 34.3412 60.8583 34.5917C61.2108 34.8421 61.6839 34.9674 62.2776 34.9674C62.658 34.9674 63.029 34.9349 63.3908 34.87C63.7619 34.7958 64.0634 34.7076 64.2953 34.6056L64.5736 36.2893C64.4623 36.345 64.3139 36.4006 64.1283 36.4563C63.9428 36.512 63.7341 36.5583 63.5022 36.5955C63.2795 36.6418 63.0383 36.6789 62.7786 36.7068C62.5188 36.7346 62.2591 36.7485 61.9993 36.7485C61.3407 36.7485 60.7655 36.6511 60.2738 36.4563C59.7915 36.2615 59.3879 35.9971 59.0632 35.6631C58.7478 35.3199 58.5113 34.9164 58.3536 34.4525C58.2051 33.9887 58.1309 33.4877 58.1309 32.9497ZM63.0012 32.1565C62.9919 31.9803 62.9595 31.8086 62.9038 31.6417C62.8574 31.4747 62.7786 31.3263 62.6673 31.1964C62.5652 31.0665 62.4307 30.9598 62.2637 30.8763C62.106 30.7928 61.9066 30.7511 61.6654 30.7511C61.4334 30.7511 61.234 30.7928 61.067 30.8763C60.9 30.9505 60.7609 31.0526 60.6496 31.1825C60.5382 31.3123 60.4501 31.4654 60.3852 31.6417C60.3295 31.8086 60.2878 31.9803 60.2599 32.1565H63.0012ZM66.5354 27.4115L68.6088 27.0775V29.2343H71.0996V30.9598H68.6088V33.5341C68.6088 33.9701 68.683 34.318 68.8314 34.5778C68.9892 34.8375 69.2999 34.9674 69.7638 34.9674C69.9864 34.9674 70.2137 34.9488 70.4456 34.9117C70.6868 34.8653 70.9048 34.805 71.0996 34.7308L71.3918 36.345C71.1414 36.447 70.8631 36.5352 70.5569 36.6094C70.2508 36.6836 69.8751 36.7207 69.4298 36.7207C68.8639 36.7207 68.3954 36.6465 68.0244 36.4981C67.6533 36.3403 67.3564 36.127 67.1338 35.858C66.9112 35.5797 66.7535 35.2457 66.6607 34.8561C66.5772 34.4664 66.5354 34.0351 66.5354 33.562V27.4115ZM80.6673 36.7485C79.0995 36.7485 77.9028 36.3125 77.0772 35.4405C76.2608 34.5685 75.8526 33.33 75.8526 31.7252C75.8526 30.9274 75.9779 30.2177 76.2283 29.5961C76.4788 28.9653 76.822 28.4365 77.2581 28.0098C77.6941 27.5738 78.2136 27.2445 78.8165 27.0218C79.4195 26.7992 80.0736 26.6879 80.7786 26.6879C81.1868 26.6879 81.5578 26.7203 81.8918 26.7853C82.2258 26.8409 82.518 26.9105 82.7685 26.994C83.0189 27.0682 83.2277 27.1471 83.3946 27.2306C83.5616 27.3141 83.6822 27.379 83.7564 27.4254L83.1302 29.1787C82.8334 29.021 82.4855 28.8865 82.0866 28.7751C81.697 28.6638 81.2517 28.6082 80.7508 28.6082C80.4168 28.6082 80.0875 28.6638 79.7628 28.7751C79.4474 28.8865 79.1644 29.0674 78.914 29.3178C78.6728 29.559 78.4779 29.8744 78.3295 30.2641C78.1811 30.6537 78.1069 31.1268 78.1069 31.6834C78.1069 32.1287 78.1533 32.5461 78.246 32.9358C78.3481 33.3161 78.5058 33.6454 78.7191 33.9237C78.9418 34.2021 79.2294 34.4247 79.5819 34.5917C79.9344 34.7494 80.3611 34.8282 80.8621 34.8282C81.1775 34.8282 81.4604 34.8097 81.7109 34.7726C81.9614 34.7355 82.184 34.6937 82.3788 34.6473C82.5736 34.5917 82.7453 34.5314 82.8937 34.4664C83.0421 34.4015 83.1766 34.3412 83.2972 34.2855L83.8956 36.0249C83.5894 36.2105 83.1581 36.3775 82.6015 36.5259C82.0449 36.6743 81.4001 36.7485 80.6673 36.7485ZM88.0869 35.1065C88.291 35.1065 88.4858 35.1019 88.6713 35.0926C88.8568 35.0833 89.0053 35.0694 89.1166 35.0509V33.4785C89.0331 33.4599 88.9079 33.4414 88.7409 33.4228C88.5739 33.4042 88.4208 33.395 88.2817 33.395C88.0869 33.395 87.9013 33.4089 87.7251 33.4367C87.5581 33.4553 87.4097 33.497 87.2798 33.562C87.1499 33.6269 87.0479 33.715 86.9737 33.8263C86.8994 33.9377 86.8623 34.0768 86.8623 34.2438C86.8623 34.5685 86.969 34.7958 87.1824 34.9256C87.405 35.0462 87.7065 35.1065 88.0869 35.1065ZM87.9199 29.0395C88.5322 29.0395 89.0424 29.1091 89.4506 29.2483C89.8587 29.3874 90.1834 29.5869 90.4246 29.8466C90.6751 30.1064 90.8513 30.4218 90.9534 30.7928C91.0554 31.1639 91.1065 31.5767 91.1065 32.0313V36.345C90.8096 36.4099 90.3968 36.4841 89.868 36.5676C89.3392 36.6604 88.6991 36.7068 87.9477 36.7068C87.4746 36.7068 87.0432 36.665 86.6536 36.5815C86.2733 36.4981 85.9439 36.3635 85.6656 36.178C85.3873 35.9832 85.174 35.7327 85.0255 35.4266C84.8771 35.1205 84.8029 34.7447 84.8029 34.2995C84.8029 33.8727 84.8864 33.5109 85.0534 33.2141C85.2296 32.9172 85.4615 32.6807 85.7491 32.5044C86.0367 32.3281 86.366 32.2029 86.7371 32.1287C87.1082 32.0452 87.4932 32.0035 87.8921 32.0035C88.1611 32.0035 88.3976 32.0174 88.6017 32.0452C88.8151 32.0638 88.9867 32.0916 89.1166 32.1287V31.9339C89.1166 31.5814 89.0099 31.2984 88.7965 31.0851C88.5832 30.8717 88.2121 30.765 87.6833 30.765C87.3308 30.765 86.9829 30.7928 86.6397 30.8485C86.2965 30.8949 85.9996 30.9645 85.7491 31.0572L85.4847 29.3874C85.6053 29.3503 85.7538 29.3132 85.93 29.2761C86.1156 29.2297 86.315 29.1926 86.5284 29.1648C86.7417 29.1277 86.9644 29.0998 87.1963 29.0813C87.4375 29.0534 87.6787 29.0395 87.9199 29.0395ZM95.9035 36.6929C95.3005 36.6836 94.8088 36.6186 94.4285 36.4981C94.0574 36.3775 93.7606 36.2105 93.5379 35.9971C93.3245 35.7745 93.1761 35.5101 93.0926 35.2039C93.0184 34.8885 92.9813 34.536 92.9813 34.1464V26.0895L95.0547 25.7556V33.7289C95.0547 33.9145 95.0686 34.0815 95.0964 34.2299C95.1242 34.3783 95.1753 34.5035 95.2495 34.6056C95.333 34.7076 95.4489 34.7911 95.5974 34.8561C95.7458 34.921 95.9452 34.9627 96.1957 34.9813L95.9035 36.6929ZM100.306 36.6929C99.7033 36.6836 99.2117 36.6186 98.8313 36.4981C98.4602 36.3775 98.1634 36.2105 97.9408 35.9971C97.7274 35.7745 97.579 35.5101 97.4955 35.2039C97.4213 34.8885 97.3841 34.536 97.3841 34.1464V26.0895L99.4575 25.7556V33.7289C99.4575 33.9145 99.4714 34.0815 99.4992 34.2299C99.5271 34.3783 99.5781 34.5035 99.6523 34.6056C99.7358 34.7076 99.8518 34.7911 100 34.8561C100.149 34.921 100.348 34.9627 100.599 34.9813L100.306 36.6929Z" fill="#414652"/>
<rect x="7.51245" y="56.8835" width="326.975" height="162.301" stroke="#ECECEC" stroke-width="1.0249"/>
<path d="M7 110.161H335" stroke="#ECECEC" stroke-width="1.0249"/>
<path d="M7 83.7549H335" stroke="#ECECEC" stroke-width="1.0249"/>
<path d="M7 136.566H335" stroke="#ECECEC" stroke-width="1.0249"/>
<path d="M7 162.973H335" stroke="#ECECEC" stroke-width="1.0249"/>
<path d="M7 189.379H335" stroke="#ECECEC" stroke-width="1.0249"/>
<path d="M62.1777 56.3711L62.1777 219.697" stroke="#ECECEC" stroke-width="1.0249"/>
<path d="M116.333 56.3711L116.333 219.697" stroke="#ECECEC" stroke-width="1.0249"/>
<path d="M170.489 56.3711L170.489 219.697" stroke="#ECECEC" stroke-width="1.0249"/>
<path d="M224.645 56.3711L224.645 219.697" stroke="#ECECEC" stroke-width="1.0249"/>
<path d="M278.801 56.3711L278.801 219.697" stroke="#ECECEC" stroke-width="1.0249"/>
<path d="M6.99951 57.1348H335" stroke="#ECECEC" stroke-width="1.5302"/>
<path d="M34.333 106.885L88.5029 157.576L115.339 135.212L169.509 187.891L210.757 151.612L232.127 170L269.897 139.188" stroke="#A8A8A8" stroke-width="2.98182"/>
<path d="M271.843 56.3711L271.843 219.697" stroke="#7D7D7D" stroke-width="2.98182"/>
<path d="M170.006 56.6904L170.006 220.016" stroke="#7D7D7D" stroke-width="1.98788" stroke-dasharray="5.96 5.96"/>
<line x1="7.99365" y1="109.981" x2="334.468" y2="109.981" stroke="black" stroke-width="0.765102" stroke-dasharray="6.12 6.12"/>
<path d="M287.322 145.218V136.952H292.367V137.942H288.479V140.399H291.938V141.365H288.479V144.228H292.666V145.218H287.322ZM294.064 139.195C294.319 139.131 294.657 139.063 295.078 138.992C295.5 138.92 295.985 138.884 296.533 138.884C297.026 138.884 297.436 138.956 297.762 139.099C298.088 139.234 298.346 139.429 298.537 139.684C298.736 139.93 298.875 140.228 298.955 140.578C299.034 140.928 299.074 141.314 299.074 141.735V145.218H297.965V141.974C297.965 141.592 297.937 141.266 297.881 140.996C297.834 140.725 297.75 140.507 297.631 140.34C297.511 140.173 297.352 140.053 297.154 139.982C296.955 139.902 296.708 139.862 296.414 139.862C296.295 139.862 296.172 139.866 296.044 139.874C295.917 139.882 295.794 139.894 295.675 139.91C295.563 139.918 295.46 139.93 295.365 139.946C295.277 139.962 295.213 139.974 295.174 139.982V145.218H294.064V139.195ZM304.921 140.328C304.786 140.216 304.591 140.109 304.336 140.006C304.082 139.902 303.804 139.851 303.502 139.851C303.184 139.851 302.909 139.91 302.679 140.029C302.456 140.141 302.273 140.3 302.13 140.507C301.987 140.705 301.883 140.944 301.82 141.222C301.756 141.5 301.724 141.799 301.724 142.117C301.724 142.84 301.903 143.401 302.261 143.798C302.619 144.188 303.096 144.383 303.692 144.383C303.995 144.383 304.245 144.371 304.444 144.347C304.651 144.315 304.81 144.283 304.921 144.252V140.328ZM304.921 136.153L306.03 135.962V145.039C305.776 145.11 305.45 145.182 305.052 145.254C304.655 145.325 304.197 145.361 303.68 145.361C303.203 145.361 302.774 145.285 302.392 145.134C302.011 144.983 301.685 144.769 301.414 144.49C301.144 144.212 300.933 143.874 300.782 143.476C300.639 143.071 300.567 142.618 300.567 142.117C300.567 141.64 300.627 141.202 300.746 140.805C300.874 140.407 301.056 140.065 301.295 139.779C301.534 139.493 301.824 139.27 302.166 139.111C302.516 138.952 302.913 138.872 303.358 138.872C303.716 138.872 304.03 138.92 304.301 139.016C304.579 139.111 304.786 139.202 304.921 139.29V136.153Z" fill="#414652"/>
<line x1="6.99951" y1="188.786" x2="333.474" y2="188.786" stroke="black" stroke-width="0.765102"/>
<rect x="143.169" y="13.9512" width="81.503" height="33.7939" rx="15.903" fill="#00A79E"/>
<path d="M175.691 27.0584C175.818 27.4931 175.956 27.986 176.105 28.5373C176.264 29.0781 176.428 29.64 176.598 30.2231C176.778 30.8062 176.958 31.3893 177.138 31.9724C177.318 32.5555 177.493 33.0962 177.663 33.5945C177.801 33.0538 177.939 32.4654 178.077 31.8293C178.225 31.1932 178.363 30.5358 178.49 29.8573C178.617 29.1788 178.739 28.5055 178.856 27.8376C178.983 27.1591 179.1 26.5071 179.206 25.8815H181.782C181.411 27.7263 180.981 29.5976 180.494 31.4953C180.017 33.3931 179.497 35.1954 178.935 36.9023H176.661C176.29 35.8845 175.93 34.819 175.58 33.7058C175.23 32.582 174.885 31.4582 174.546 30.3344C174.207 31.4582 173.868 32.582 173.528 33.7058C173.189 34.819 172.834 35.8845 172.463 36.9023H170.189C169.627 35.1954 169.102 33.3931 168.614 31.4953C168.137 29.5976 167.713 27.7263 167.342 25.8815H170.03C170.136 26.5071 170.252 27.1591 170.379 27.8376C170.507 28.5055 170.639 29.1788 170.777 29.8573C170.915 30.5358 171.053 31.1932 171.191 31.8293C171.339 32.4654 171.487 33.0538 171.636 33.5945C171.827 33.075 172.012 32.5237 172.192 31.9406C172.373 31.3575 172.548 30.7744 172.717 30.1913C172.887 29.6082 173.041 29.0462 173.178 28.5055C173.327 27.9648 173.459 27.4824 173.576 27.0584H175.691ZM185.587 36.9023H183.217V28.5373H185.587V36.9023ZM185.809 26.1201C185.809 26.5548 185.666 26.8993 185.38 27.1538C185.104 27.3976 184.776 27.5196 184.394 27.5196C184.012 27.5196 183.678 27.3976 183.392 27.1538C183.116 26.8993 182.979 26.5548 182.979 26.1201C182.979 25.6854 183.116 25.3461 183.392 25.1023C183.678 24.8478 184.012 24.7206 184.394 24.7206C184.776 24.7206 185.104 24.8478 185.38 25.1023C185.666 25.3461 185.809 25.6854 185.809 26.1201ZM187.814 28.8236C188.217 28.707 188.736 28.601 189.373 28.5055C190.009 28.3995 190.677 28.3465 191.376 28.3465C192.087 28.3465 192.675 28.4419 193.142 28.6328C193.619 28.813 193.995 29.0728 194.271 29.412C194.546 29.7513 194.742 30.1542 194.859 30.6206C194.976 31.0871 195.034 31.6066 195.034 32.1791V36.9023H192.664V32.4654C192.664 31.7021 192.564 31.1613 192.362 30.8433C192.161 30.5252 191.784 30.3662 191.233 30.3662C191.064 30.3662 190.883 30.3768 190.692 30.398C190.502 30.4086 190.332 30.4245 190.184 30.4457V36.9023H187.814V28.8236ZM199.612 28.7282C199.612 29.5869 199.58 30.3874 199.517 31.1295C199.453 31.8717 199.368 32.6244 199.262 33.3878H197.449C197.343 32.6244 197.253 31.8717 197.179 31.1295C197.115 30.3874 197.083 29.5869 197.083 28.7282V25.8815H199.612V28.7282ZM199.819 35.646C199.819 36.1125 199.665 36.473 199.358 36.7274C199.061 36.9819 198.721 37.1091 198.34 37.1091C197.958 37.1091 197.613 36.9819 197.306 36.7274C197.009 36.473 196.861 36.1125 196.861 35.646C196.861 35.1795 197.009 34.819 197.306 34.5646C197.613 34.3101 197.958 34.1829 198.34 34.1829C198.721 34.1829 199.061 34.3101 199.358 34.5646C199.665 34.819 199.819 35.1795 199.819 35.646Z" fill="white"/>
<path d="M110.469 200.401C110.596 200.56 110.755 200.771 110.946 201.034C111.144 201.288 111.347 201.574 111.554 201.892C111.761 202.202 111.963 202.528 112.162 202.87C112.369 203.212 112.544 203.542 112.687 203.86H111.423C111.264 203.558 111.089 203.252 110.898 202.942C110.715 202.632 110.528 202.338 110.337 202.059C110.146 201.773 109.956 201.507 109.765 201.26C109.582 201.014 109.415 200.799 109.264 200.616C109.16 200.624 109.053 200.628 108.942 200.628C108.838 200.628 108.731 200.628 108.62 200.628H107.582V203.86H106.425V195.714C106.751 195.635 107.113 195.583 107.511 195.559C107.916 195.527 108.286 195.511 108.62 195.511C109.781 195.511 110.663 195.73 111.268 196.167C111.88 196.605 112.186 197.257 112.186 198.123C112.186 198.672 112.039 199.141 111.745 199.531C111.458 199.92 111.033 200.211 110.469 200.401ZM108.715 196.525C108.222 196.525 107.845 196.537 107.582 196.561V199.674H108.405C108.803 199.674 109.16 199.654 109.479 199.614C109.797 199.574 110.063 199.499 110.278 199.388C110.5 199.276 110.671 199.121 110.791 198.922C110.91 198.716 110.969 198.445 110.969 198.111C110.969 197.801 110.91 197.543 110.791 197.336C110.671 197.129 110.508 196.966 110.302 196.847C110.103 196.728 109.864 196.644 109.586 196.597C109.316 196.549 109.025 196.525 108.715 196.525ZM113.509 200.771C113.509 200.223 113.588 199.745 113.747 199.34C113.906 198.926 114.117 198.585 114.38 198.314C114.642 198.044 114.944 197.841 115.286 197.706C115.628 197.571 115.978 197.503 116.336 197.503C117.171 197.503 117.811 197.766 118.256 198.29C118.701 198.807 118.924 199.598 118.924 200.664C118.924 200.712 118.924 200.775 118.924 200.855C118.924 200.926 118.92 200.994 118.912 201.057H114.666C114.713 201.702 114.9 202.191 115.226 202.524C115.552 202.858 116.061 203.025 116.753 203.025C117.143 203.025 117.469 202.994 117.731 202.93C118.001 202.858 118.204 202.791 118.339 202.727L118.494 203.658C118.359 203.729 118.121 203.805 117.779 203.884C117.445 203.964 117.063 204.003 116.634 204.003C116.093 204.003 115.624 203.924 115.226 203.765C114.837 203.598 114.515 203.371 114.26 203.085C114.006 202.799 113.815 202.461 113.688 202.071C113.568 201.674 113.509 201.24 113.509 200.771ZM117.767 200.163C117.775 199.662 117.648 199.252 117.385 198.934C117.131 198.608 116.777 198.445 116.324 198.445C116.069 198.445 115.843 198.497 115.644 198.6C115.453 198.696 115.29 198.823 115.155 198.982C115.02 199.141 114.912 199.324 114.833 199.531C114.761 199.737 114.713 199.948 114.69 200.163H117.767ZM121.96 203.061C122.414 203.061 122.748 203.002 122.962 202.882C123.185 202.763 123.296 202.572 123.296 202.31C123.296 202.039 123.189 201.825 122.974 201.666C122.76 201.507 122.406 201.328 121.913 201.129C121.674 201.034 121.444 200.938 121.221 200.843C121.006 200.739 120.819 200.62 120.66 200.485C120.501 200.35 120.374 200.187 120.279 199.996C120.183 199.805 120.136 199.571 120.136 199.292C120.136 198.744 120.338 198.31 120.744 197.992C121.149 197.666 121.702 197.503 122.402 197.503C122.577 197.503 122.752 197.515 122.927 197.539C123.101 197.555 123.264 197.579 123.416 197.61C123.567 197.634 123.698 197.662 123.809 197.694C123.928 197.726 124.02 197.754 124.083 197.777L123.881 198.732C123.761 198.668 123.575 198.604 123.32 198.541C123.066 198.469 122.76 198.433 122.402 198.433C122.092 198.433 121.821 198.497 121.591 198.624C121.36 198.744 121.245 198.934 121.245 199.197C121.245 199.332 121.269 199.451 121.316 199.555C121.372 199.658 121.452 199.753 121.555 199.841C121.666 199.92 121.801 199.996 121.96 200.067C122.119 200.139 122.31 200.215 122.533 200.294C122.827 200.405 123.09 200.517 123.32 200.628C123.551 200.731 123.746 200.855 123.905 200.998C124.072 201.141 124.199 201.316 124.286 201.523C124.374 201.721 124.417 201.968 124.417 202.262C124.417 202.835 124.203 203.268 123.773 203.562C123.352 203.856 122.748 204.003 121.96 204.003C121.412 204.003 120.982 203.956 120.672 203.86C120.362 203.773 120.151 203.705 120.04 203.658L120.243 202.703C120.37 202.751 120.573 202.823 120.851 202.918C121.129 203.014 121.499 203.061 121.96 203.061ZM125.494 200.771C125.494 200.223 125.574 199.745 125.733 199.34C125.892 198.926 126.103 198.585 126.365 198.314C126.627 198.044 126.93 197.841 127.272 197.706C127.613 197.571 127.963 197.503 128.321 197.503C129.156 197.503 129.796 197.766 130.241 198.29C130.687 198.807 130.909 199.598 130.909 200.664C130.909 200.712 130.909 200.775 130.909 200.855C130.909 200.926 130.905 200.994 130.897 201.057H126.651C126.699 201.702 126.886 202.191 127.212 202.524C127.538 202.858 128.047 203.025 128.739 203.025C129.128 203.025 129.454 202.994 129.717 202.93C129.987 202.858 130.19 202.791 130.325 202.727L130.48 203.658C130.345 203.729 130.106 203.805 129.764 203.884C129.43 203.964 129.049 204.003 128.619 204.003C128.079 204.003 127.609 203.924 127.212 203.765C126.822 203.598 126.5 203.371 126.246 203.085C125.991 202.799 125.8 202.461 125.673 202.071C125.554 201.674 125.494 201.24 125.494 200.771ZM129.752 200.163C129.76 199.662 129.633 199.252 129.371 198.934C129.116 198.608 128.762 198.445 128.309 198.445C128.055 198.445 127.828 198.497 127.629 198.6C127.438 198.696 127.275 198.823 127.14 198.982C127.005 199.141 126.898 199.324 126.818 199.531C126.747 199.737 126.699 199.948 126.675 200.163H129.752ZM133.54 197.658H135.89V198.588H133.54V201.451C133.54 201.761 133.564 202.02 133.612 202.226C133.66 202.425 133.731 202.584 133.827 202.703C133.922 202.815 134.041 202.894 134.184 202.942C134.328 202.99 134.495 203.014 134.685 203.014C135.019 203.014 135.286 202.978 135.485 202.906C135.691 202.827 135.834 202.771 135.914 202.739L136.129 203.658C136.017 203.713 135.823 203.781 135.544 203.86C135.266 203.948 134.948 203.992 134.59 203.992C134.169 203.992 133.819 203.94 133.54 203.836C133.27 203.725 133.051 203.562 132.884 203.347C132.717 203.133 132.598 202.87 132.527 202.56C132.463 202.242 132.431 201.876 132.431 201.463V195.929L133.54 195.738V197.658ZM136.192 199.769H139.138V200.807H136.192V199.769ZM141.438 197.658H143.787V198.588H141.438V201.451C141.438 201.761 141.461 202.02 141.509 202.226C141.557 202.425 141.628 202.584 141.724 202.703C141.819 202.815 141.939 202.894 142.082 202.942C142.225 202.99 142.392 203.014 142.583 203.014C142.917 203.014 143.183 202.978 143.382 202.906C143.588 202.827 143.732 202.771 143.811 202.739L144.026 203.658C143.914 203.713 143.72 203.781 143.441 203.86C143.163 203.948 142.845 203.992 142.487 203.992C142.066 203.992 141.716 203.94 141.438 203.836C141.167 203.725 140.949 203.562 140.782 203.347C140.615 203.133 140.495 202.87 140.424 202.56C140.36 202.242 140.328 201.876 140.328 201.463V195.929L141.438 195.738V197.658ZM146.308 203.86H145.199V197.658H146.308V203.86ZM145.747 196.537C145.549 196.537 145.378 196.473 145.235 196.346C145.099 196.211 145.032 196.032 145.032 195.809C145.032 195.587 145.099 195.412 145.235 195.285C145.378 195.149 145.549 195.082 145.747 195.082C145.946 195.082 146.113 195.149 146.248 195.285C146.391 195.412 146.463 195.587 146.463 195.809C146.463 196.032 146.391 196.211 146.248 196.346C146.113 196.473 145.946 196.537 145.747 196.537ZM148.216 197.837C148.47 197.773 148.804 197.706 149.217 197.634C149.639 197.563 150.124 197.527 150.673 197.527C151.07 197.527 151.404 197.583 151.674 197.694C151.945 197.797 152.171 197.952 152.354 198.159C152.41 198.119 152.497 198.064 152.617 197.992C152.736 197.921 152.883 197.853 153.058 197.789C153.233 197.718 153.428 197.658 153.642 197.61C153.857 197.555 154.088 197.527 154.334 197.527C154.811 197.527 155.201 197.599 155.503 197.742C155.805 197.877 156.04 198.072 156.207 198.326C156.382 198.581 156.497 198.883 156.553 199.233C156.616 199.582 156.648 199.964 156.648 200.378V203.86H155.539V200.616C155.539 200.25 155.519 199.936 155.479 199.674C155.447 199.411 155.38 199.193 155.276 199.018C155.181 198.843 155.046 198.716 154.871 198.636C154.704 198.549 154.485 198.505 154.215 198.505C153.841 198.505 153.531 198.557 153.285 198.66C153.046 198.755 152.883 198.843 152.796 198.922C152.859 199.129 152.907 199.356 152.939 199.602C152.971 199.849 152.986 200.107 152.986 200.378V203.86H151.877V200.616C151.877 200.25 151.857 199.936 151.818 199.674C151.778 199.411 151.706 199.193 151.603 199.018C151.507 198.843 151.372 198.716 151.197 198.636C151.03 198.549 150.816 198.505 150.553 198.505C150.442 198.505 150.323 198.509 150.195 198.517C150.068 198.525 149.945 198.537 149.826 198.553C149.714 198.561 149.611 198.573 149.516 198.588C149.42 198.604 149.357 198.616 149.325 198.624V203.86H148.216V197.837ZM158.143 200.771C158.143 200.223 158.222 199.745 158.381 199.34C158.541 198.926 158.751 198.585 159.014 198.314C159.276 198.044 159.578 197.841 159.92 197.706C160.262 197.571 160.612 197.503 160.97 197.503C161.805 197.503 162.445 197.766 162.89 198.29C163.335 198.807 163.558 199.598 163.558 200.664C163.558 200.712 163.558 200.775 163.558 200.855C163.558 200.926 163.554 200.994 163.546 201.057H159.3C159.348 201.702 159.534 202.191 159.86 202.524C160.186 202.858 160.695 203.025 161.387 203.025C161.777 203.025 162.103 202.994 162.365 202.93C162.636 202.858 162.838 202.791 162.973 202.727L163.129 203.658C162.993 203.729 162.755 203.805 162.413 203.884C162.079 203.964 161.697 204.003 161.268 204.003C160.727 204.003 160.258 203.924 159.86 203.765C159.471 203.598 159.149 203.371 158.894 203.085C158.64 202.799 158.449 202.461 158.322 202.071C158.203 201.674 158.143 201.24 158.143 200.771ZM162.401 200.163C162.409 199.662 162.282 199.252 162.019 198.934C161.765 198.608 161.411 198.445 160.958 198.445C160.703 198.445 160.477 198.497 160.278 198.6C160.087 198.696 159.924 198.823 159.789 198.982C159.654 199.141 159.546 199.324 159.467 199.531C159.395 199.737 159.348 199.948 159.324 200.163H162.401Z" fill="#414652"/>
<path d="M18.8913 91.7161C20.1 91.7161 20.7043 91.3026 20.7043 90.4756C20.7043 90.2212 20.6486 90.0065 20.5373 89.8316C20.4339 89.6487 20.2908 89.4936 20.1079 89.3664C19.925 89.2312 19.7143 89.1159 19.4758 89.0205C19.2452 88.9251 18.9987 88.8297 18.7363 88.7343C18.4341 88.6309 18.1479 88.5156 17.8775 88.3884C17.6072 88.2532 17.3726 88.0981 17.1738 87.9232C16.975 87.7403 16.816 87.5256 16.6967 87.2791C16.5854 87.0326 16.5297 86.7345 16.5297 86.3846C16.5297 85.661 16.7762 85.0964 17.2692 84.6909C17.7622 84.2854 18.4421 84.0826 19.3088 84.0826C19.8097 84.0826 20.263 84.1383 20.6685 84.2496C21.082 84.353 21.3841 84.4683 21.575 84.5955L21.2052 85.5378C21.0383 85.4344 20.7878 85.335 20.4538 85.2396C20.1278 85.1362 19.7461 85.0845 19.3088 85.0845C19.0862 85.0845 18.8794 85.1084 18.6886 85.1561C18.4977 85.2038 18.3308 85.2754 18.1876 85.3708C18.0445 85.4662 17.9292 85.5894 17.8417 85.7405C17.7622 85.8836 17.7225 86.0546 17.7225 86.2534C17.7225 86.476 17.7662 86.6629 17.8537 86.814C17.9411 86.9651 18.0644 87.1002 18.2234 87.2195C18.3825 87.3308 18.5653 87.4342 18.7721 87.5296C18.9868 87.625 19.2213 87.7204 19.4758 87.8159C19.8336 87.959 20.1596 88.1021 20.4538 88.2452C20.756 88.3884 21.0144 88.5593 21.2291 88.7581C21.4517 88.9569 21.6227 89.1955 21.742 89.4738C21.8612 89.7441 21.9209 90.0741 21.9209 90.4637C21.9209 91.1873 21.6545 91.7439 21.1217 92.1335C20.5969 92.5232 19.8535 92.718 18.8913 92.718C18.5653 92.718 18.2632 92.6941 17.9849 92.6464C17.7145 92.6067 17.472 92.5589 17.2573 92.5033C17.0426 92.4397 16.8558 92.3761 16.6967 92.3124C16.5457 92.2409 16.4264 92.1812 16.3389 92.1335L16.6848 91.1794C16.8677 91.2827 17.146 91.398 17.5197 91.5252C17.8934 91.6525 18.3506 91.7161 18.8913 91.7161ZM24.2852 86.3369H26.6349V87.2672H24.2852V90.1298C24.2852 90.4399 24.309 90.6983 24.3567 90.905C24.4045 91.1038 24.476 91.2628 24.5714 91.3821C24.6669 91.4934 24.7861 91.573 24.9293 91.6207C25.0724 91.6684 25.2394 91.6922 25.4302 91.6922C25.7642 91.6922 26.0305 91.6564 26.2293 91.5849C26.4361 91.5054 26.5792 91.4497 26.6587 91.4179L26.8734 92.3363C26.7621 92.392 26.5673 92.4595 26.289 92.5391C26.0107 92.6265 25.6926 92.6703 25.3348 92.6703C24.9133 92.6703 24.5635 92.6186 24.2852 92.5152C24.0148 92.4039 23.7962 92.2409 23.6292 92.0262C23.4622 91.8115 23.3429 91.5491 23.2714 91.239C23.2077 90.9209 23.1759 90.5552 23.1759 90.1417V84.6074L24.2852 84.4166V86.3369ZM30.1456 91.7399C30.408 91.7399 30.6386 91.736 30.8374 91.728C31.0441 91.7121 31.215 91.6883 31.3502 91.6564V89.8077C31.2707 89.768 31.1395 89.7362 30.9566 89.7123C30.7817 89.6805 30.567 89.6646 30.3126 89.6646C30.1456 89.6646 29.9667 89.6765 29.7758 89.7004C29.5929 89.7242 29.422 89.7759 29.263 89.8554C29.1119 89.927 28.9846 90.0304 28.8813 90.1655C28.7779 90.2928 28.7262 90.4637 28.7262 90.6784C28.7262 91.076 28.8534 91.3543 29.1079 91.5133C29.3623 91.6644 29.7082 91.7399 30.1456 91.7399ZM30.0502 86.1818C30.4954 86.1818 30.8692 86.2415 31.1713 86.3607C31.4814 86.4721 31.7279 86.6351 31.9108 86.8498C32.1016 87.0565 32.2368 87.307 32.3163 87.6012C32.3958 87.8874 32.4356 88.2055 32.4356 88.5554V92.4317C32.3402 92.4476 32.205 92.4715 32.0301 92.5033C31.8631 92.5271 31.6723 92.551 31.4576 92.5748C31.2429 92.5987 31.0083 92.6186 30.7539 92.6345C30.5074 92.6583 30.2609 92.6703 30.0144 92.6703C29.6645 92.6703 29.3425 92.6345 29.0483 92.5629C28.7541 92.4914 28.4996 92.38 28.2849 92.229C28.0702 92.0699 27.9032 91.8632 27.784 91.6087C27.6647 91.3543 27.6051 91.0482 27.6051 90.6903C27.6051 90.3484 27.6726 90.0542 27.8078 89.8077C27.951 89.5612 28.1418 89.3624 28.3803 89.2114C28.6189 89.0603 28.8972 88.949 29.2152 88.8774C29.5333 88.8058 29.8673 88.77 30.2171 88.77C30.3285 88.77 30.4438 88.778 30.563 88.7939C30.6823 88.8019 30.7936 88.8178 30.897 88.8416C31.0083 88.8575 31.1037 88.8734 31.1832 88.8893C31.2628 88.9052 31.3184 88.9171 31.3502 88.9251V88.615C31.3502 88.4321 31.3303 88.2532 31.2906 88.0783C31.2508 87.8954 31.1793 87.7363 31.0759 87.6012C30.9725 87.458 30.8294 87.3467 30.6465 87.2672C30.4716 87.1797 30.241 87.136 29.9547 87.136C29.589 87.136 29.2669 87.1638 28.9886 87.2195C28.7183 87.2672 28.5155 87.3189 28.3803 87.3746L28.2491 86.4562C28.3923 86.3925 28.6308 86.3329 28.9648 86.2772C29.2987 86.2136 29.6605 86.1818 30.0502 86.1818ZM36.5679 86.2057C36.6634 86.2057 36.7707 86.2136 36.89 86.2295C37.0172 86.2375 37.1405 86.2534 37.2597 86.2772C37.379 86.2931 37.4863 86.313 37.5818 86.3369C37.6851 86.3528 37.7607 86.3687 37.8084 86.3846L37.6175 87.3507C37.5301 87.3189 37.383 87.2831 37.1762 87.2434C36.9774 87.1956 36.719 87.1718 36.401 87.1718C36.1942 87.1718 35.9875 87.1956 35.7807 87.2434C35.582 87.2831 35.4508 87.3109 35.3871 87.3268V92.5391H34.2779V86.5993C34.5403 86.5039 34.8663 86.4164 35.2559 86.3369C35.6456 86.2494 36.0829 86.2057 36.5679 86.2057ZM39.9164 86.3369H42.2661V87.2672H39.9164V90.1298C39.9164 90.4399 39.9403 90.6983 39.988 90.905C40.0357 91.1038 40.1073 91.2628 40.2027 91.3821C40.2981 91.4934 40.4174 91.573 40.5605 91.6207C40.7036 91.6684 40.8706 91.6922 41.0614 91.6922C41.3954 91.6922 41.6618 91.6564 41.8606 91.5849C42.0673 91.5054 42.2104 91.4497 42.29 91.4179L42.5046 92.3363C42.3933 92.392 42.1985 92.4595 41.9202 92.5391C41.6419 92.6265 41.3238 92.6703 40.966 92.6703C40.5446 92.6703 40.1947 92.6186 39.9164 92.5152C39.6461 92.4039 39.4274 92.2409 39.2604 92.0262C39.0934 91.8115 38.9742 91.5491 38.9026 91.239C38.839 90.9209 38.8072 90.5552 38.8072 90.1417V84.6074L39.9164 84.4166V86.3369Z" fill="#414652"/>
<path d="M177.46 187.891C177.46 192.282 173.9 195.842 169.509 195.842C165.117 195.842 161.557 192.282 161.557 187.891C161.557 183.499 165.117 179.939 169.509 179.939C173.9 179.939 177.46 183.499 177.46 187.891Z" fill="#FF444F"/>
<path d="M46.2605 107.382C46.2605 111.774 42.7004 115.334 38.3089 115.334C33.9174 115.334 30.3574 111.774 30.3574 107.382C30.3574 102.991 33.9174 99.4307 38.3089 99.4307C42.7004 99.4307 46.2605 102.991 46.2605 107.382Z" fill="#FF444F"/>
<path d="M280.333 141.174C280.333 145.566 276.773 149.126 272.381 149.126C267.99 149.126 264.43 145.566 264.43 141.174C264.43 136.783 267.99 133.223 272.381 133.223C276.773 133.223 280.333 136.783 280.333 141.174Z" fill="#FF444F"/>
<path d="M286.118 171.704H284.01L284.14 171.118H289.04L288.901 171.704H286.794L285.283 178.006H284.607L286.118 171.704ZM291.714 173.424C291.594 173.397 291.485 173.377 291.386 173.364C291.286 173.351 291.184 173.344 291.077 173.344C290.667 173.344 290.302 173.424 289.984 173.583C289.666 173.742 289.398 173.951 289.179 174.209C288.96 174.467 288.791 174.762 288.672 175.094C288.56 175.425 288.503 175.763 288.503 176.107C288.503 176.379 288.53 176.608 288.583 176.793C288.636 176.972 288.709 177.118 288.801 177.231C288.894 177.337 289 177.416 289.119 177.469C289.245 177.516 289.378 177.539 289.517 177.539C289.789 177.539 290.044 177.476 290.282 177.35C290.521 177.217 290.746 177.032 290.958 176.793C290.958 176.614 290.985 176.409 291.038 176.177C291.091 175.945 291.14 175.736 291.187 175.551L291.714 173.424ZM291.137 178.065C291.097 177.986 291.061 177.897 291.028 177.797C291.001 177.691 290.981 177.585 290.968 177.479C290.736 177.704 290.491 177.87 290.233 177.976C289.981 178.082 289.719 178.135 289.447 178.135C289.235 178.135 289.033 178.099 288.841 178.026C288.649 177.953 288.48 177.84 288.334 177.688C288.188 177.535 288.069 177.34 287.976 177.101C287.89 176.856 287.847 176.568 287.847 176.237C287.847 175.707 287.933 175.226 288.106 174.795C288.278 174.365 288.516 174 288.821 173.702C289.133 173.397 289.497 173.162 289.915 172.996C290.339 172.831 290.799 172.748 291.296 172.748C291.707 172.748 292.101 172.817 292.479 172.957L291.714 176.048C291.674 176.213 291.641 176.369 291.614 176.515C291.588 176.661 291.574 176.8 291.574 176.932C291.574 177.111 291.591 177.28 291.624 177.439C291.657 177.598 291.717 177.774 291.803 177.966L291.137 178.065ZM294.064 173.096C294.316 172.996 294.591 172.914 294.889 172.847C295.194 172.781 295.492 172.748 295.783 172.748C295.936 172.748 296.082 172.758 296.221 172.778C296.36 172.798 296.492 172.831 296.618 172.877L296.449 173.464C296.191 173.384 295.926 173.344 295.654 173.344C295.482 173.344 295.31 173.358 295.137 173.384C294.965 173.411 294.793 173.45 294.62 173.503L293.537 178.006H292.891L294.064 173.096ZM300.528 173.414C300.316 173.361 300.111 173.334 299.912 173.334C299.455 173.334 299.057 173.414 298.719 173.573C298.388 173.732 298.113 173.937 297.894 174.189C297.676 174.434 297.513 174.709 297.407 175.014C297.301 175.312 297.248 175.601 297.248 175.879C297.248 176.058 297.265 176.23 297.298 176.396C297.331 176.555 297.387 176.694 297.467 176.813C297.546 176.932 297.656 177.028 297.795 177.101C297.934 177.168 298.113 177.201 298.332 177.201C298.557 177.201 298.789 177.161 299.027 177.081C299.273 176.995 299.504 176.883 299.723 176.744L300.528 173.414ZM296.075 178.89C296.215 179.003 296.413 179.096 296.672 179.169C296.937 179.242 297.199 179.278 297.457 179.278C298.067 179.278 298.534 179.139 298.858 178.861C299.19 178.582 299.405 178.188 299.504 177.678L299.554 177.419C299.355 177.545 299.143 177.641 298.918 177.708C298.693 177.767 298.467 177.797 298.242 177.797C297.957 177.797 297.709 177.751 297.497 177.658C297.291 177.565 297.122 177.439 296.99 177.28C296.857 177.115 296.758 176.926 296.692 176.714C296.625 176.495 296.592 176.263 296.592 176.018C296.592 175.64 296.658 175.259 296.791 174.875C296.93 174.484 297.142 174.133 297.427 173.821C297.712 173.503 298.067 173.245 298.491 173.046C298.921 172.847 299.432 172.748 300.021 172.748C300.26 172.748 300.485 172.774 300.697 172.827C300.909 172.874 301.098 172.943 301.264 173.036L300.151 177.668C300.084 177.946 299.998 178.218 299.892 178.483C299.786 178.748 299.63 178.983 299.425 179.189C299.22 179.394 298.945 179.56 298.6 179.686C298.262 179.812 297.825 179.874 297.288 179.874C297.182 179.874 297.063 179.865 296.93 179.845C296.798 179.831 296.662 179.808 296.523 179.775C296.39 179.742 296.261 179.702 296.135 179.656C296.009 179.616 295.896 179.566 295.797 179.507L296.075 178.89ZM306.218 174.07C306.218 174.441 306.125 174.742 305.939 174.974C305.76 175.206 305.505 175.392 305.174 175.531C304.849 175.663 304.455 175.76 303.991 175.819C303.534 175.879 303.024 175.922 302.461 175.948V176.157C302.461 176.349 302.48 176.528 302.52 176.694C302.56 176.86 302.633 177.005 302.739 177.131C302.845 177.25 302.991 177.347 303.176 177.419C303.368 177.492 303.614 177.529 303.912 177.529C304.144 177.529 304.376 177.496 304.607 177.429C304.846 177.363 305.071 177.264 305.283 177.131L305.353 177.728C305.128 177.853 304.879 177.95 304.607 178.016C304.336 178.089 304.061 178.125 303.783 178.125C303.418 178.125 303.11 178.079 302.858 177.986C302.613 177.893 302.411 177.764 302.252 177.598C302.099 177.433 301.99 177.234 301.924 177.002C301.858 176.77 301.824 176.515 301.824 176.237C301.824 175.813 301.887 175.392 302.013 174.974C302.146 174.557 302.338 174.183 302.59 173.851C302.842 173.52 303.15 173.255 303.514 173.056C303.885 172.851 304.306 172.748 304.776 172.748C305.24 172.748 305.595 172.871 305.84 173.116C306.092 173.354 306.218 173.672 306.218 174.07ZM304.717 173.334C304.452 173.334 304.203 173.391 303.971 173.503C303.739 173.609 303.531 173.755 303.345 173.941C303.16 174.126 302.997 174.342 302.858 174.587C302.726 174.832 302.626 175.09 302.56 175.362C303.123 175.349 303.597 175.312 303.981 175.253C304.366 175.193 304.674 175.11 304.906 175.004C305.144 174.898 305.313 174.772 305.413 174.626C305.512 174.474 305.562 174.302 305.562 174.11C305.562 173.851 305.482 173.659 305.323 173.533C305.171 173.401 304.969 173.334 304.717 173.334ZM308.069 171.356L308.745 171.237L308.357 172.867H310.166L310.037 173.424H308.218L307.612 175.938C307.579 176.058 307.549 176.187 307.523 176.326C307.503 176.459 307.493 176.591 307.493 176.724C307.493 177.022 307.566 177.231 307.711 177.35C307.857 177.469 308.039 177.529 308.258 177.529C308.47 177.529 308.652 177.506 308.805 177.459C308.964 177.413 309.129 177.35 309.302 177.27L309.361 177.857C309.182 177.93 308.98 177.993 308.755 178.046C308.536 178.099 308.318 178.125 308.099 178.125C307.927 178.125 307.764 178.105 307.612 178.065C307.46 178.026 307.324 177.959 307.204 177.867C307.092 177.774 306.999 177.651 306.926 177.499C306.86 177.347 306.827 177.154 306.827 176.922C306.827 176.638 306.873 176.31 306.966 175.938L308.069 171.356Z" fill="#414652" fill-opacity="0.6"/>
<defs>
<filter id="filter0_d_2591_28586" x="0.0972133" y="0.478161" width="341.805" height="227.502" filterUnits="userSpaceOnUse" color-interpolation-filters="sRGB">
<feFlood flood-opacity="0" result="BackgroundImageFix"/>
<feColorMatrix in="SourceAlpha" type="matrix" values="0 0 0 0 0 0 0 0 0 0 0 0 0 0 0 0 0 0 127 0" result="hardAlpha"/>
<feOffset dy="1.38046"/>
<feGaussianBlur stdDeviation="3.45115"/>
<feComposite in2="hardAlpha" operator="out"/>
<feColorMatrix type="matrix" values="0 0 0 0 0 0 0 0 0 0 0 0 0 0 0 0 0 0 0.1 0"/>
<feBlend mode="normal" in2="BackgroundImageFix" result="effect1_dropShadow_2591_28586"/>
<feBlend mode="normal" in="SourceGraphic" in2="effect1_dropShadow_2591_28586" result="shape"/>
</filter>
</defs>
</svg>
