<svg width="32" height="32" fill="none" xmlns="http://www.w3.org/2000/svg"><path d="M0 16C0 7.163 7.163 0 16 0s16 7.163 16 16-7.163 16-16 16S0 24.837 0 16Z" fill="#F2F3F4"/><g clip-path="url(#a)"><path d="M19.877 9.141a9.521 9.521 0 0 0-1.202-.39 11.253 11.253 0 0 0-2.541-.313h-.025a11.257 11.257 0 0 0-2.541.313c-.409.103-.81.234-1.202.39l-.024.01s.048 2.925.085 4.375c.01.427.087.85.23 1.252.165.458.385.894.655 1.298a5.205 5.205 0 0 0 1.497 1.465c.264.16.539.299.823.416.094.04.176.078.251.103.078.03.157.055.238.074.08-.02.16-.044.238-.074.074-.025.156-.063.25-.102a6.14 6.14 0 0 0 .824-.417c.168-.107.33-.225.482-.353.39-.32.732-.694 1.015-1.111.27-.405.49-.841.655-1.299.143-.402.22-.825.23-1.252.037-1.45.085-4.374.085-4.374a.262.262 0 0 0-.023-.01Z" fill="url(#b)"/><path d="M16.031 16.587h-2.145a5.185 5.185 0 0 0 .975.83c.253.154.518.289.791.403.091.04.17.076.242.1l.138.048v-1.38Zm0-1.601a1.574 1.574 0 0 1-.922-.404H12.74l.05.154c.09.253.199.5.324.738h2.917v-.489Zm3.666-2.453h-2.092v.915h2.071c.007-.268.014-.582.02-.915Zm.036-1.922H16.16v.887h3.558l.016-.887Z" fill="#B12B28"/><path d="M19.738 9.309a.254.254 0 0 1 .023.01v-.054a.244.244 0 0 0-.024-.01l-.006-.003a9.101 9.101 0 0 0-1.158-.38 10.753 10.753 0 0 0-2.446-.304h-.023a10.748 10.748 0 0 0-2.446.305c-.391.1-.775.227-1.149.379l-.023.01.001.055a.064.064 0 0 1 .017-.008l.005-.003a8.99 8.99 0 0 1 1.149-.378 10.75 10.75 0 0 1 2.446-.307h.024a10.747 10.747 0 0 1 2.446.305c.393.1.78.228 1.157.38l.007.003ZM19.694 14.42l.003-.012-.001.003-.002.009ZM19.694 14.42c-.03.135-.067.268-.112.398-.164.46-.384.898-.654 1.305a5.207 5.207 0 0 1-1.496 1.465 6.14 6.14 0 0 1-.824.417l-.07.03h-.001a2.452 2.452 0 0 1-.18.073c-.077.03-.156.055-.237.074a1.46 1.46 0 0 1-.238-.074 6.166 6.166 0 0 1-1.044-.52 4.637 4.637 0 0 1-.49-.352 5.274 5.274 0 0 1-.881-.94l-.01-.015a5.332 5.332 0 0 0 1.35 1.258 6.14 6.14 0 0 0 .896.447 2.442 2.442 0 0 0 .417.146 2.731 2.731 0 0 0 .43-.151l.002-.001.035-.015.021-.01c.285-.117.56-.257.824-.416.168-.107.33-.225.482-.353.39-.32.732-.694 1.014-1.111.27-.405.49-.841.656-1.299 0 0 .061-.174.11-.356ZM16.029 9.668a10.64 10.64 0 0 0-2.366.303 9.408 9.408 0 0 0-1.16.381V10.3l.006-.003c.376-.152.762-.279 1.156-.38a10.76 10.76 0 0 1 2.364-.302v.053Z" fill="#432918"/><path d="M18.7 15.19v-.02c-.001.005-.005.008-.012.009a.487.487 0 0 0-.226.116c-.015.014-.023.023-.022.036 0 .002 0 .007.002.008l.005.004a.488.488 0 0 1 .24-.132c.01-.004.012-.008.012-.021ZM18.106 15.057a.47.47 0 0 1 .18-.127.009.009 0 0 0 .006-.002.008.008 0 0 0 .002-.005l-.003.031a.016.016 0 0 1-.004.009.016.016 0 0 1-.007.005.46.46 0 0 0-.177.127.354.354 0 0 0-.072.108c-.006-.003-.004-.01-.003-.015v-.002a.304.304 0 0 1 .078-.13ZM18.294 14.922v.001-.001ZM17.627 15.066a.603.603 0 0 1 .222-.235.032.032 0 0 0 .013-.023.15.15 0 0 1-.01.066.505.505 0 0 0-.22.22.431.431 0 0 0-.036.152.01.01 0 0 1-.005-.001c-.005-.002-.005-.008-.005-.015 0-.057.015-.113.041-.164ZM17.184 15.058a.36.36 0 0 1 .088-.106.014.014 0 0 0 .007-.013.108.108 0 0 1-.01.055.52.52 0 0 0-.147.353.451.451 0 0 1 .062-.29ZM16.357 15.71l-.002.001a.137.137 0 0 0-.014.009.157.157 0 0 1-.05-.14.18.18 0 0 0 .068.123v.003a.006.006 0 0 1-.002.005ZM18.123 13.982a.37.37 0 0 1 .148-.118c.009-.004.014-.01.015-.016 0 .032-.002.048-.016.055a.357.357 0 0 0-.147.115.43.43 0 0 0-.084.134c-.005-.003-.003-.011-.002-.017a.358.358 0 0 1 .086-.153ZM18.644 14.046a.445.445 0 0 1 .199-.087c.004 0 .006-.003.006-.006v.027c0 .005-.004.014-.011.015a.45.45 0 0 0-.199.091.456.456 0 0 0-.113.12c-.014-.005-.008-.015-.006-.02a.416.416 0 0 1 .124-.14ZM18.85 13.95v.003-.004ZM19.262 14.249c.006 0 .008-.003.008-.01 0 .02-.004.042-.01.043a.399.399 0 0 0-.228.087.376.376 0 0 0-.035.027.132.132 0 0 1-.013-.01c0-.002-.003-.01.008-.017a.334.334 0 0 1 .047-.04.384.384 0 0 1 .223-.08ZM16.738 14.975v-.008c0 .016 0 .03-.002.046a.103.103 0 0 1-.07.088.15.15 0 0 1-.157-.029.133.133 0 0 1-.127.043.146.146 0 0 1-.085-.062.205.205 0 0 1-.012-.04 1.454 1.454 0 0 1-.129.009v-.038c.042-.001.085-.004.127-.009h.002l.004.012a.423.423 0 0 0 .01.029.135.135 0 0 0 .157.06.127.127 0 0 0 .055-.04.137.137 0 0 0 .15.029.1.1 0 0 0 .077-.09ZM16.755 16.084a.183.183 0 0 0 .091-.023.168.168 0 0 0 .085-.135.214.214 0 0 1-.092.169.178.178 0 0 1-.178-.001.31.31 0 0 1-.06-.062c-.003-.006-.009-.01-.01-.008a.196.196 0 0 1-.147.051.18.18 0 0 1-.13-.082.227.227 0 0 1-.04-.147l.001-.004a.195.195 0 0 0 .253.188.185.185 0 0 0 .067-.038c.001-.001.007.002.01.008a.226.226 0 0 0 .06.06.183.183 0 0 0 .09.024ZM18.045 16.389a.556.556 0 0 1 .119-.058c.004-.002.006-.003.007-.006 0 .012-.004.033-.008.035a.56.56 0 0 0-.119.058.365.365 0 0 0-.112.14l-.005-.004a.018.018 0 0 1-.003-.006.366.366 0 0 1 .121-.16ZM17.862 16.158l.001-.004c0 .016-.001.038-.007.039a.452.452 0 0 0-.268.209l-.01-.003v-.011a.421.421 0 0 1 .283-.23ZM17.21 16.277a.706.706 0 0 1 .13-.165v-.001a.016.016 0 0 0 .005-.009.162.162 0 0 1-.006.05.764.764 0 0 0-.123.16.244.244 0 0 0-.029.132.01.01 0 0 1-.004-.003.259.259 0 0 1 .026-.163ZM16.825 16.397a.245.245 0 0 1 .059-.103.015.015 0 0 0 .006-.009.174.174 0 0 1-.002.043.24.24 0 0 0-.066.188.246.246 0 0 1 .003-.119ZM16.66 16.727c.004.003.01.007.004.01l-.012.008a.524.524 0 0 1-.047-.22.466.466 0 0 0 .053.2l.002.002ZM16.818 17.216a.13.13 0 0 0 .061-.03.159.159 0 0 0 .056-.106.183.183 0 0 1-.05.139.132.132 0 0 1-.131.026.215.215 0 0 1-.107-.08c-.004-.005-.012 0-.012.002a.246.246 0 0 1-.144.126.16.16 0 0 1-.122-.035l-.002-.002c-.03-.02-.042-.03-.043-.127a.127.127 0 0 0 .044.095.148.148 0 0 0 .118.035.245.245 0 0 0 .144-.126c0-.001.009-.007.012-.002a.214.214 0 0 0 .107.08.13.13 0 0 0 .069.005ZM16.393 16.989ZM16.411 16.973l-.018.016a.172.172 0 0 1-.086-.154.153.153 0 0 0 .102.13c.002.001.007.005.002.008ZM12.708 11.057ZM12.712 11.053a.014.014 0 0 1-.004.004.4.4 0 0 1-.014-.083v-.002a.163.163 0 0 0 .02.072.013.013 0 0 1-.002.01ZM12.824 13.058l-.002.002a.174.174 0 0 1-.03-.044.317.317 0 0 1-.011-.08c0 .015.003.029.008.042a.35.35 0 0 0 .04.062c.004.005 0 .014-.005.018ZM13.352 13.227v-.003.01a.117.117 0 0 1-.066.135.166.166 0 0 1-.143.025.228.228 0 0 1-.093-.062c-.007-.008-.013-.003-.02.004a.658.658 0 0 1-.101.055.147.147 0 0 1-.183-.05.231.231 0 0 1-.031-.128.164.164 0 0 0 .032.093.143.143 0 0 0 .18.046.658.658 0 0 0 .092-.049l.006-.003c.009-.007.018-.013.026-.004a.206.206 0 0 0 .088.059.173.173 0 0 0 .143-.026.12.12 0 0 0 .07-.102ZM13.19 12.304a.141.141 0 0 0 .019-.068c.002.099-.019.131-.071.166a.157.157 0 0 1-.213-.064.017.017 0 0 0-.024-.004.266.266 0 0 1-.153.045.142.142 0 0 1-.119-.093.16.16 0 0 1-.01-.073c.001.016.005.031.012.046a.136.136 0 0 0 .12.085.253.253 0 0 0 .149-.044c.008-.007.027-.003.03.003a.15.15 0 0 0 .26 0ZM12.745 12.043a.07.07 0 0 0-.007.005l-.001-.004a.198.198 0 0 1-.03-.108c.001.033.015.065.038.089.004.007.006.015 0 .018ZM13.385 12.496a.446.446 0 0 1 .108-.199.015.015 0 0 0 .003-.008v.033c0 .01 0 .014-.002.017a.44.44 0 0 0-.105.196.462.462 0 0 0-.006.124.475.475 0 0 1 .002-.163ZM13.805 12.319a.407.407 0 0 1 .163-.178.013.013 0 0 0 .006-.01v.008c0 .018 0 .04-.005.044a.4.4 0 0 0-.197.374.406.406 0 0 1 .033-.238ZM14.222 12.441c-.005.001-.016-.007-.014-.012a.77.77 0 0 1 .3-.376.016.016 0 0 0 .002-.007v.029c0 .008 0 .022-.005.024a.773.773 0 0 0-.27.341l-.013.001ZM13.426 11.453a.267.267 0 0 1 .098-.097h.001l.002-.002v-.001V11.405l-.003.001a.234.234 0 0 0-.089.095.398.398 0 0 0-.065.24l-.003-.01v-.005a.376.376 0 0 1 .059-.273ZM13.527 11.351v.002-.002ZM13.89 11.341a.417.417 0 0 1 .14-.119c.007-.003.014-.008.015-.014v.027c0 .013-.002.024-.013.03a.395.395 0 0 0-.13.123.565.565 0 0 0-.093.189.028.028 0 0 1-.01-.01.028.028 0 0 1-.005-.015.526.526 0 0 1 .095-.21ZM14.045 11.206v.002-.002ZM14.418 11.28a.452.452 0 0 1 .212-.072h.001a.015.015 0 0 0 .008-.005.016.016 0 0 0 .003-.008v.032c0 .01 0 .021-.01.022a.432.432 0 0 0-.202.078c-.063.04-.11.1-.135.171a.024.024 0 0 1-.012-.009.023.023 0 0 1-.004-.014.297.297 0 0 1 .14-.195ZM14.642 11.193v.002-.002ZM14.89 11.48l-.019.013h-.035c-.015-.002-.008-.008.001-.017a.692.692 0 0 1 .294-.13c.004-.001.008-.003.008-.006v.022c0 .02-.004.024-.013.024a.645.645 0 0 0-.235.094ZM13.448 10.444a.97.97 0 0 1 .207-.19.025.025 0 0 0 .007-.016c.002.019 0 .039-.003.058-.074.057-.14.122-.199.195a.487.487 0 0 0-.07.223c-.005 0-.01-.002-.01-.005a.47.47 0 0 1 .068-.265ZM14.312 10.11a.008.008 0 0 0 .003-.006v.03c0 .006 0 .02-.005.025-.067.046-.13.099-.187.157a.49.49 0 0 0-.103.197l-.006.001c-.003 0-.008-.004-.008-.007a.41.41 0 0 1 .107-.241c.062-.058.128-.11.2-.157ZM14.716 10.218a.732.732 0 0 1 .275-.153.02.02 0 0 0 .008-.007.022.022 0 0 0 .005-.009v.041c0 .008-.003.018-.01.021a.803.803 0 0 0-.275.156.426.426 0 0 0-.097.169c-.005 0-.012-.002-.012-.006a.411.411 0 0 1 .106-.212ZM15.319 10.359a1.44 1.44 0 0 1 .243-.023v-.001c.005 0 .013-.002.014-.006v.044c0 .006-.008.012-.014.012-.082 0-.163.007-.244.02a.32.32 0 0 0-.107.064l-.024-.007h-.002l-.001-.002a.01.01 0 0 1-.002-.005.01.01 0 0 1 0-.004c0-.001 0-.003.002-.004a.342.342 0 0 1 .135-.088ZM13.156 11.324c.034-.024.05-.035.066-.087l.001-.01a.16.16 0 0 1-.012.086.144.144 0 0 1-.062.07.161.161 0 0 1-.232-.034.01.01 0 0 0-.006-.002.01.01 0 0 0-.006 0 .684.684 0 0 1-.096.055.168.168 0 0 1-.183-.059.23.23 0 0 1-.019-.107v-.011c0 .006 0 .012.002.018v.003l.002.015.002.005a.707.707 0 0 0 .004.012l.001.005.008.013a.144.144 0 0 0 .173.057.462.462 0 0 0 .1-.05.011.011 0 0 1 .006-.002.01.01 0 0 1 .005.003.18.18 0 0 0 .082.057.185.185 0 0 0 .147-.026l.017-.01ZM15.506 10.888a.04.04 0 0 0 .01-.013.197.197 0 0 0 .013-.061c.001.035 0 .07-.007.104-.002.008-.009.025-.018.027a.03.03 0 0 1-.025-.012.95.95 0 0 0-.584-.224 3.915 3.915 0 0 0-1.691.433.091.091 0 0 0-.02-.026c-.004-.005 0-.016.006-.019a3.915 3.915 0 0 1 1.695-.434.949.949 0 0 1 .594.231.022.022 0 0 0 .013.001.039.039 0 0 0 .014-.007ZM14.47 11.751c.063.006.125.02.184.042v-.001l.009.002v.048a.643.643 0 0 0-.184-.043c-.447.01-.883.132-1.27.355a.049.049 0 0 0-.01.01.342.342 0 0 0-.014-.035c-.002-.006.009-.019.015-.022a2.673 2.673 0 0 1 1.27-.356ZM14.665 12.69h-.02a2.035 2.035 0 0 0-.682.081c-.235.07-.46.17-.67.295-.007.004-.01.006-.01.009-.001.003.002.006.01.013a.104.104 0 0 1 .01.014c.21-.123.433-.22.665-.289a2.028 2.028 0 0 1 .697-.085v-.038Z" fill="#432918"/><path d="M16.71 14.865c.105-.044.206-.1.3-.165l.014-.006c.033-.008.088-.025.159-.047.246-.077.674-.21.963-.215.23-.003.456.053.657.163.103.06.196.135.276.223l.002.004c.002.005.005.01.012.012a.014.014 0 0 0 .014-.009.46.46 0 0 0 .033-.158.487.487 0 0 1-.033.196.015.015 0 0 1-.014.009c-.007-.002-.01-.006-.012-.01a1.325 1.325 0 0 0-.935-.387c-.291.004-.725.138-.972.214a3.76 3.76 0 0 1-.156.046l-.009.003a1.626 1.626 0 0 1-.283.158l-.001-.002-.001-.002-.015-.027ZM18.544 15.797c.017.003.034 0 .048-.01a.15.15 0 0 0 .02-.068.252.252 0 0 1-.023.104.067.067 0 0 1-.047.01 1.144 1.144 0 0 0-.164-.162.607.607 0 0 0-.254-.127 1.262 1.262 0 0 0-.435-.008 2.191 2.191 0 0 0-.79.267.216.216 0 0 0-.012-.016c-.005-.006 0-.01.01-.017l.003-.002c.244-.14.513-.233.792-.272.145-.021.292-.017.435.012a.614.614 0 0 1 .256.127c.059.048.113.103.161.162ZM17.97 16.838c.004.003.02.008.024.003a.145.145 0 0 0 .051-.099.152.152 0 0 1-.046.127.029.029 0 0 1-.012.004l-.013-.001a.621.621 0 0 0-.136-.108.728.728 0 0 0-.414-.067c-.207.033-.403.12-.567.25a.227.227 0 0 0-.01-.008l-.004-.003c-.005-.004 0-.016.01-.024.164-.13.359-.217.566-.248a.729.729 0 0 1 .414.066c.05.03.096.066.136.108Z" fill="#432918"/><path d="m17.412 14.29.033-.008.205-.045c.008 0 .014-.011.015-.015a.885.885 0 0 1 .123-.281.396.396 0 0 1 .492-.106.023.023 0 0 1 .005.03.022.022 0 0 1-.009.008.357.357 0 0 0-.146.115.368.368 0 0 0-.09.154c-.001.006-.003.015.003.018.01.006.109 0 .149.009.007.002.009-.005.014-.013a.565.565 0 0 1 .18-.272.34.34 0 0 1 .315-.056.223.223 0 0 1 .152.122c.002.004.002.015-.007.015a.455.455 0 0 0-.2.091.404.404 0 0 0-.122.137c0 .002-.01.015.008.02.05.01.1.025.149.043.005.006.02-.001.022-.006a.39.39 0 0 1 .248-.168c.152-.023.296.042.32.143.002.014.006.032-.006.03a.397.397 0 0 0-.227.086.27.27 0 0 0-.042.035c-.012.008-.01.015-.008.016.033.034.146.117.154.23a.46.46 0 0 1-.032.21.015.015 0 0 1-.005.006.014.014 0 0 1-.008.002c-.01-.002-.013-.01-.015-.013a1.127 1.127 0 0 0-.276-.226 1.324 1.324 0 0 0-.657-.158c-.371.005-.977.222-1.127.26l-.01.003s.084-.09.4-.416Zm.961.754a.37.37 0 0 0-.183.168c-.003.004-.01.02-.015.015-.036-.003-.098-.013-.134-.016-.017-.001-.01-.016-.01-.018a.301.301 0 0 1 .079-.128.476.476 0 0 1 .186-.133.007.007 0 0 0 0-.004v-.004a.254.254 0 0 0-.188-.092.325.325 0 0 0-.25.095.508.508 0 0 0-.136.3c-.003.01-.008.014-.015.014a.802.802 0 0 1-.112.01c-.006-.002-.006-.008-.006-.015.001-.057.015-.113.042-.164a.602.602 0 0 1 .221-.235c.015-.01.016-.03.011-.033a.369.369 0 0 0-.348.034.377.377 0 0 0-.159.166c-.038.1-.062.205-.07.313a.025.025 0 0 1-.015.014c-.045.009-.09.02-.135.035a.01.01 0 0 1-.006-.003.01.01 0 0 1-.003-.005.446.446 0 0 1 .148-.4.015.015 0 0 0 .006-.007.015.015 0 0 0 0-.01.016.016 0 0 0-.004-.007.396.396 0 0 0-.394.156.358.358 0 0 0-.059.156.642.642 0 0 0 .017.24c0 .002.002.01-.006.013-.031.014-.114.058-.144.072-.002.001-.007.002-.009-.002a.232.232 0 0 0-.108-.145.213.213 0 0 0-.18.009.221.221 0 0 0-.087.09.151.151 0 0 0 .051.185c.002.002.007.007 0 .01-.036.02-.037.024-.064.065a.172.172 0 0 0 .02.181.188.188 0 0 0 .283.033c.002 0 .007.003.01.009a.22.22 0 0 0 .058.06.188.188 0 0 0 .184 0 .168.168 0 0 0 .084-.167.153.153 0 0 0-.044-.106c-.005-.006 0-.01.014-.019.244-.14.513-.231.792-.269a1.26 1.26 0 0 1 .434.01c.094.02.18.064.254.125.06.049.115.103.164.163.017.002.034-.001.048-.01a.266.266 0 0 0 .005-.21.647.647 0 0 0-.155-.237l-.001-.008c-.002-.013.006-.019.02-.032a.489.489 0 0 1 .228-.12c.01-.001.015-.01.008-.022a.265.265 0 0 0-.326-.12Zm1.529-5.888s-.048 2.924-.085 4.374a4.01 4.01 0 0 1-.23 1.252 6.013 6.013 0 0 1-.655 1.298 5.204 5.204 0 0 1-1.497 1.465 6.14 6.14 0 0 1-.823.416c-.095.04-.177.078-.251.103-.078.03-.157.055-.238.074-.081-.02-.16-.044-.238-.074-.075-.025-.157-.063-.25-.103a6.151 6.151 0 0 1-.824-.416 5.207 5.207 0 0 1-1.497-1.464c-.27-.405-.49-.841-.655-1.299a4.013 4.013 0 0 1-.23-1.252c-.037-1.45-.085-4.376-.085-4.376l.024-.009a9.52 9.52 0 0 1 1.202-.39 11.257 11.257 0 0 1 2.541-.314h.025a11.254 11.254 0 0 1 2.541.313 9.521 9.521 0 0 1 1.225.402Zm-7.19 5.324h2.296a1.27 1.27 0 0 1-.338-.847v-.036h-2.097c.012.299.059.595.138.883Zm3.32 2.108h-2.145a5.207 5.207 0 0 0 .975.83 5.9 5.9 0 0 0 .791.404c.09.038.17.075.242.1l.138.047v-1.381Zm0-.999h-2.856c.076.137.158.273.246.408.11.167.231.326.363.477h2.247v-.885Zm0-.603a1.575 1.575 0 0 1-.922-.402H12.74l.05.153c.09.254.198.5.324.739h2.917v-.49Zm0-5.352a10.743 10.743 0 0 0-2.364.302 9.08 9.08 0 0 0-1.161.382c.016.94.041 2.304.063 3.165h2.1l-.002-.787h-.019a2.031 2.031 0 0 0-.682.084c-.235.07-.46.168-.671.292-.014.009-.014.008 0 .022.025.033.045.07.058.109a.124.124 0 0 1-.068.136.171.171 0 0 1-.143.026.22.22 0 0 1-.091-.062c-.01-.01-.017.003-.028.01a.664.664 0 0 1-.093.05.147.147 0 0 1-.183-.05.16.16 0 0 1 .005-.19c.019-.021.052-.036.075-.057.005-.005.01-.014.006-.019a.354.354 0 0 1-.04-.061.164.164 0 0 1 .047-.175.169.169 0 0 1 .173-.014c.035.016.063.066.086.097.004.007.01.011.017.007l.056-.033c.007-.005.003-.02 0-.028-.069-.17-.085-.286-.02-.406a.302.302 0 0 1 .192-.154.218.218 0 0 1 .152.01c.005.002.004.011 0 .015a.446.446 0 0 0-.108.2.42.42 0 0 0 .009.196c.005.011.01.015.019.013.023-.008.098-.037.13-.044.01-.003.004-.018.002-.028a.525.525 0 0 1 .013-.32.389.389 0 0 1 .368-.214c.027 0 .062.025.042.04a.406.406 0 0 0-.196.417c0 .006.009.013.015.011.052-.015.107-.029.157-.045.01-.003.007-.017.008-.026a.573.573 0 0 1 .126-.353.44.44 0 0 1 .362-.147c.025.007.048.02.067.038a.023.023 0 0 1-.003.027.755.755 0 0 0-.293.367c-.002.004.006.013.01.012.079-.006.162-.018.24-.025.011-.001.012-.003.014-.01a.406.406 0 0 1 .188-.232v-.38a.716.716 0 0 0-.194-.045c-.447.011-.883.133-1.27.356-.006.004-.017.016-.014.022.048.115.019.183-.046.226a.155.155 0 0 1-.215-.05.018.018 0 0 0-.011-.007c-.005-.001-.01 0-.013.003a.254.254 0 0 1-.15.043.136.136 0 0 1-.12-.084.17.17 0 0 1 .112-.216c.009-.003.007-.01.001-.017a.145.145 0 0 1-.012-.171.143.143 0 0 1 .043-.043.158.158 0 0 1 .195.028.157.157 0 0 1 .035.06c.003.01.003.006.012.004a.23.23 0 0 0 .074-.028c.01-.005.022-.04.023-.05.006-.195-.004-.317.126-.444.056-.054.24-.098.286-.037.003.004.004.008 0 .01a.376.376 0 0 0-.158.37c.001.007.002.02.007.018a2 2 0 0 0 .161-.06c.006-.003 0-.013 0-.02a.553.553 0 0 1 .111-.367c.084-.093.294-.187.396-.098.01.008 0 .02-.01.026a.407.407 0 0 0-.139.118.528.528 0 0 0-.098.21c-.002.009.01.027.018.026.045-.01.13-.02.175-.035.024-.009.018-.014.022-.038a.426.426 0 0 1 .383-.39.306.306 0 0 1 .203.031c.016.01.03.023.043.038a.016.016 0 0 1 .003.007v.008a.016.016 0 0 1-.011.01.444.444 0 0 0-.21.072.298.298 0 0 0-.139.196c0 .01.005.022.015.022.058 0 .131 0 .19-.005a.016.016 0 0 0 .01-.003.015.015 0 0 0 .006-.01.398.398 0 0 1 .452-.254.363.363 0 0 1 .176.096c.012.017.01.021 0 .022a.69.69 0 0 0-.288.127c-.012.011-.024.019-.006.02h1.19l.001-1.865Zm.98 5.071h.002a1.589 1.589 0 0 1-.303.167h.002l.014.026a.171.171 0 0 1 .014.084.095.095 0 0 1-.071.091.15.15 0 0 1-.157-.027.128.128 0 0 1-.124.044.135.135 0 0 1-.088-.067c-.006-.018-.01-.035-.013-.04a1.432 1.432 0 0 1-.127.008l-.001 2.948v.046c.046-.012.113-.036.19-.063.073-.024.151-.06.242-.1.274-.114.538-.249.792-.403.162-.104.317-.218.463-.343.376-.31.705-.673.976-1.078.26-.393.472-.816.63-1.26.133-.378.208-.775.22-1.176h-2.07v.07a1.33 1.33 0 0 1-.591 1.073Zm2.686-2.17h-2.092v.161l-.001.753h2.072c.007-.268.014-.582.02-.915Zm.017-.907h-2.107v.778H19.7l.014-.779Zm.02-1.015H16.16v.887h3.558l.016-.888Zm.004-.295a10.744 10.744 0 0 0-3.579-.684v.865h3.577l.002-.182Zm.018-1.038a9.108 9.108 0 0 0-1.18-.389 10.742 10.742 0 0 0-2.442-.304h-.024a10.74 10.74 0 0 0-2.443.304 9.1 9.1 0 0 0-1.156.379l-.023.009.016.921a10.752 10.752 0 0 1 2.813-.652c.273-.024.52-.04.794-.042h.024c.274.003.519.018.792.043a10.75 10.75 0 0 1 1.65.267 9.117 9.117 0 0 1 1.163.383l.016-.92v.001Zm-1.939 6.977a.44.44 0 0 0-.14.16c-.002.005-.005.016-.01.013l-.086-.026c-.002 0-.002-.01 0-.011a.452.452 0 0 1 .28-.228c.007-.003.005-.008.003-.011-.044-.109-.267-.1-.375-.03a.472.472 0 0 0-.2.288c0 .008.003.015-.002.016a.5.5 0 0 1-.093.022.01.01 0 0 1-.007-.002.01.01 0 0 1-.002-.007.259.259 0 0 1 .027-.158.807.807 0 0 1 .134-.171.02.02 0 0 0 .002-.007.017.017 0 0 0-.006-.012.2.2 0 0 0-.206 0 .397.397 0 0 0-.192.226.44.44 0 0 0 .005.23c.001.003.005.01 0 .012-.032.013-.056.027-.087.04-.002 0-.01.002-.011-.003a.255.255 0 0 1 .035-.297c.007-.006.011-.014-.003-.019a.238.238 0 0 0-.274.205.274.274 0 0 0 .012.14.376.376 0 0 0 .04.105c.001.002.013.008.006.01-.022.018-.04.03-.06.047-.002.001-.006.003-.008 0a.196.196 0 0 0-.117-.096.138.138 0 0 0-.167.1.146.146 0 0 0 .098.179c.002.001.007.005.002.008a.238.238 0 0 0-.077.086.152.152 0 0 0 .035.164.15.15 0 0 0 .117.035.245.245 0 0 0 .144-.126c0-.001.008-.007.012-.002a.214.214 0 0 0 .107.08.131.131 0 0 0 .13-.026.142.142 0 0 0 .045-.161.246.246 0 0 0-.081-.088c-.005-.004-.001-.014.01-.022.163-.131.358-.218.566-.25a.728.728 0 0 1 .414.067c.05.03.096.065.136.108.005.003.02.008.025.003a.16.16 0 0 0 .015-.222.265.265 0 0 0-.083-.066.017.017 0 0 1-.003-.006.366.366 0 0 1 .121-.159.557.557 0 0 1 .12-.058c.008-.002.007-.008.002-.018-.051-.119-.256-.123-.353-.062Zm-2.452-6.086a.245.245 0 0 1 .213.161c.002.005-.007.011-.013.012-.082 0-.163.006-.244.02a.39.39 0 0 0-.135.088c-.004.004-.001.014.004.016.094.02.18.069.247.139a.267.267 0 0 1 .082.273.04.04 0 0 1-.021.023.03.03 0 0 1-.026-.012.95.95 0 0 0-.584-.224c-.59.015-1.17.164-1.695.435-.005.002-.01.014-.005.018a.159.159 0 0 1 .037.122c-.018.06-.036.065-.083.098a.156.156 0 0 1-.121.034.159.159 0 0 1-.108-.066.01.01 0 0 0-.012-.002.485.485 0 0 1-.099.053.143.143 0 0 1-.173-.056.177.177 0 0 1 .026-.198.18.18 0 0 1 .057-.043.014.014 0 0 0 .006-.008v-.005a.146.146 0 0 1 .054-.202c.063-.036.204-.06.241.06l.002.004a.01.01 0 0 0 .012.004.718.718 0 0 0 .093-.036c.007-.003.011-.02.008-.034a.563.563 0 0 1 .08-.454c.132-.15.289-.218.454-.151.007.002 0 .015-.005.02-.065.066-.155.111-.203.19a.472.472 0 0 0-.071.265c0 .005.011.005.016.004.083-.028.187-.064.286-.096.007-.002.02-.002.019-.009a.829.829 0 0 1 .012-.166.456.456 0 0 1 .433-.385c.055 0 .11.01.161.03.007.002.01.016.005.02-.071.048-.138.101-.2.16a.397.397 0 0 0-.103.24c0 .002.002.007.004.006.09-.022.182-.039.274-.05a.018.018 0 0 0 .01-.005.018.018 0 0 0 .006-.01c.013-.085.082-.32.198-.397a.5.5 0 0 1 .42-.077c.032.016.06.04.081.069.005.006-.004.018-.012.02a.802.802 0 0 0-.274.156.38.38 0 0 0-.103.209c0 .006.008.006.014.006a4.916 4.916 0 0 1 .247 0 .014.014 0 0 0 .006-.006.452.452 0 0 1 .202-.223.535.535 0 0 1 .28-.04Z" fill="url(#c)"/><path fill-rule="evenodd" clip-rule="evenodd" d="M18.7 9.01c.296.08.589.175.876.286.007.003.008.011.008.02.004.062.002.067.002.13 0 .014-.01.017-.025.01a7.157 7.157 0 0 0-.652-.209c-.003 0-.009.001-.009.004v.078c0 .003.004.006.008.007a8.672 8.672 0 0 1 .667.216 2.026 2.026 0 0 1 .002.196c0 .003 0 .008-.003.007a8.825 8.825 0 0 0-.676-.22c-.003 0-.008 0-.008.004l-.003.073c0 .002 0 .004.002.006a.012.012 0 0 0 .005.004 6.705 6.705 0 0 1 .678.224.016.016 0 0 1 .003.008c.003.056 0 .113-.001.168 0 .004 0 .014-.013.01a8.985 8.985 0 0 0-.872-.284c-.005 0-.007-.008-.007-.013.003-.245.009-.472.014-.716 0-.003 0-.008.003-.008Zm-1.012.53c.062.012.131.02.182.03.006.002.014-.002.014-.008l-.001-.257c0-.005.003-.006.008-.005.15.027.296.057.445.089.003 0 .021.003.021.012 0 .088-.003.162-.005.25 0 .003 0 .006.003.01a.017.017 0 0 0 .008.006l.17.04c.014.003.017 0 .017-.005.01-.182.012-.474.015-.72 0-.004-.001-.008-.005-.01-.061-.013-.12-.028-.182-.042-.006-.001-.009.009-.01.014-.005.09-.003.174-.01.264 0 .003 0 .005-.004.004-.149-.03-.309-.064-.457-.092-.004 0-.002-.008-.002-.013l.001-.263a.013.013 0 0 0-.01-.012 9.433 9.433 0 0 0-.169-.028c-.004 0-.008.006-.008.01l-.022.716v.01Zm-.77-.831a.163.163 0 0 0-.167.134l-.004.482a.126.126 0 0 0 .096.117c.247.023.49.045.765.087.004 0 .012-.003.012-.007v-.168c0-.003-.008-.011-.01-.012-.184-.023-.426-.056-.642-.078a.03.03 0 0 1-.024-.028v-.328c0-.014.02-.021.034-.02.213.017.427.056.64.079.006 0 .015-.003.015-.009l.004-.154a.015.015 0 0 0-.004-.008.015.015 0 0 0-.008-.005 14.614 14.614 0 0 0-.707-.083Zm-.328-.023a9.146 9.146 0 0 0-.728-.008c-.049.002-.116.044-.117.093l-.003.262c-.001.053.07.095.123.096.187.004.352.001.533.013.013 0 .025.009.025.022l-.002.053v.007a.017.017 0 0 1-.017.011c-.211 0-.431-.01-.644.007-.011.001-.01-.002-.012.01l-.01.154v.013c.253-.015.507-.015.76 0a.13.13 0 0 0 .124-.106l.002-.254c0-.052-.064-.09-.106-.093-.178-.01-.381-.005-.563-.01a.019.019 0 0 1-.017-.02l.003-.058c0-.011.008-.015.019-.015.18-.007.448.002.631.007a.03.03 0 0 0 .024-.028v-.128c0-.007-.012-.027-.025-.027v-.001Zm-1.073.468a.128.128 0 0 0 .079-.126c.002-.076 0-.152-.009-.228a.13.13 0 0 0-.12-.1c-.171.004-.542.051-.753.078v.74l.19-.025h.001l.002-.002.001-.002v-.213l.383-.041c.034-.007.073.018.104.068.024.042.04.088.046.137l.188-.014c.004 0 .013 0 .012-.004a.399.399 0 0 0-.125-.269Zm-.133-.156a.07.07 0 0 1-.056.067l-.43.042-.003-.003v-.165l.003-.002.45-.043a.03.03 0 0 1 .023.006.03.03 0 0 1 .012.021l.001.077Zm-.67-.223v.003-.003Zm-.113.151a.113.113 0 0 0-.045-.08.122.122 0 0 0-.092-.032c-.22.034-.44.081-.662.13a.202.202 0 0 0-.093.057.13.13 0 0 0-.042.083l.002.451c.002.04.017.078.043.108a.096.096 0 0 0 .082.044c.22-.048.443-.092.66-.13a.2.2 0 0 0 .108-.067.146.146 0 0 0 .04-.094l-.001-.47Zm-.219.421a.051.051 0 0 1-.005.024.052.052 0 0 1-.015.018.118.118 0 0 1-.048.02c-.115.023-.284.054-.403.076a.043.043 0 0 1-.035-.007.054.054 0 0 1-.013-.04v-.294c0-.014.006-.028.016-.039a.098.098 0 0 1 .049-.024c.117-.022.27-.052.391-.07a.068.068 0 0 1 .045.008.048.048 0 0 1 .022.043l-.004.285Zm-.792-.204a.109.109 0 0 0-.048-.08.147.147 0 0 0-.116-.023c-.263.067-.527.167-.79.264a.025.025 0 0 0-.013.02v.592l.002.134s.19-.072.23-.085c.006-.002.006-.007.006-.013l-.004-.21c0-.006.001-.014.007-.016l.656-.203a.124.124 0 0 0 .056-.04.096.096 0 0 0 .021-.064l-.007-.276Zm-.212.22c0 .018-.026.04-.044.045l-.479.156c-.004.001-.012 0-.012-.005v-.145c0-.007.008-.012.015-.014.159-.064.321-.118.486-.163.015-.004.028.012.03.025a.76.76 0 0 1 .004.101Z" fill="url(#d)"/><path fill-rule="evenodd" clip-rule="evenodd" d="M12.86 9.437c-.007.002-.015.008-.015.015v-.037c0-.007.008-.013.014-.015.159-.063.32-.118.485-.162.015-.004.029.012.03.024l.003.037c0-.012-.017-.03-.031-.026-.165.046-.328.1-.487.165Zm.737-.015a.095.095 0 0 1-.021.062.125.125 0 0 1-.056.041l-.655.2c-.005.002-.007.01-.007.016l.001.037c0-.006 0-.015.006-.017l.655-.2a.123.123 0 0 0 .056-.04.095.095 0 0 0 .02-.063v-.035Zm-.735.53c0 .006 0 .011-.005.013-.041.013-.232.086-.232.086v.037s.191-.072.232-.085c.005-.002.005-.007.005-.013v-.038Zm1.502-.931a.068.068 0 0 0-.044-.008c-.12.017-.274.047-.39.07a.097.097 0 0 0-.049.023.057.057 0 0 0-.016.04v.04c0-.015.006-.029.016-.04a.098.098 0 0 1 .048-.023c.117-.023.27-.053.39-.07a.067.067 0 0 1 .045.008.047.047 0 0 1 .022.043v-.04c0-.008-.001-.017-.005-.025a.047.047 0 0 0-.017-.019Zm.09.535c-.216.038-.438.082-.658.13a.097.097 0 0 1-.082-.044.177.177 0 0 1-.042-.101v-.004.037a.189.189 0 0 0 .043.1c.026.031.057.053.082.048.22-.049.441-.089.658-.127a.201.201 0 0 0 .108-.067.146.146 0 0 0 .04-.093v-.04a.146.146 0 0 1-.04.093.2.2 0 0 1-.108.068Zm.895-.662-.449.043-.003.002v.04l.003-.002.45-.043a.03.03 0 0 1 .031.016.028.028 0 0 1 .004.012v-.04a.031.031 0 0 0-.011-.022.03.03 0 0 0-.024-.007Zm.248.176v-.045a.132.132 0 0 1-.08.128c.01.008.02.015.027.024a.124.124 0 0 0 .053-.107Zm.033.355-.189.014a.356.356 0 0 0-.046-.137c-.03-.05-.07-.074-.104-.068l-.382.041v.038l.382-.041c.034-.006.073.019.104.068.024.042.04.089.046.137l.188-.014c.005 0 .013 0 .012-.004v-.038c0 .004-.007.004-.011.004Zm-.726.068-.19.024v.038l.19-.024a.006.006 0 0 0 .004-.002l.001-.002v-.04.002l-.001.002-.002.001h-.002Zm1.688-.585a.03.03 0 0 0 .024-.028v-.038a.03.03 0 0 1-.024.028c-.184-.006-.452-.014-.631-.008-.012 0-.019.004-.02.016l-.002.036c0-.012.01-.014.022-.014.18-.006.448.002.631.008Zm-.726.26c.187.004.352 0 .533.012.012.001.024.008.024.021l.001-.036c0-.014-.012-.022-.025-.023-.18-.012-.346-.008-.533-.012-.053-.001-.124-.043-.123-.097v.038c0 .053.07.095.123.096Zm.633.25a6.596 6.596 0 0 0-.76 0v.038c.253-.014.507-.014.76 0a.129.129 0 0 0 .123-.106v-.038a.129.129 0 0 1-.122.106Zm1.12-.45c-.213-.023-.426-.062-.64-.08-.014 0-.034.007-.034.02v.038c0-.014.02-.02.034-.02.214.018.427.057.64.08.006 0 .015-.003.015-.01V8.96c0 .006-.009.01-.015.01v-.001Zm-.01.562c-.276-.042-.518-.064-.764-.087a.126.126 0 0 1-.097-.117v.037a.126.126 0 0 0 .097.117c.246.024.486.044.762.086.004 0 .012-.003.012-.007l.002-.037c0 .005-.008.008-.012.007Zm.749-.09v-.038c0-.01-.018-.012-.02-.012-.15-.033-.296-.062-.446-.089-.005 0-.008 0-.008.005v.038c0-.006.002-.006.008-.005.15.027.296.056.445.088.004 0 .02.003.02.013Zm-.487.131c-.05-.01-.12-.019-.182-.03v.032c.062.011.129.019.18.03.006 0 .014-.004.014-.01l.002-.028a.013.013 0 0 1-.014.006Zm.663.137-.17-.04a.016.016 0 0 1-.008-.007.016.016 0 0 1-.003-.01v.038c0 .004 0 .007.003.01a.016.016 0 0 0 .008.006c.058.014.112.028.168.04.014.004.017.001.017-.004l.002-.038c0 .006-.002.008-.017.005Zm1.028-.251a7.16 7.16 0 0 0-.652-.21c-.003 0-.009.001-.009.004v.037c0-.003.006-.005.01-.004.227.058.474.145.648.209.016.005.024.003.025-.011l.002-.033c-.001.011-.01.013-.023.008Zm.013.297a8.83 8.83 0 0 0-.675-.219c-.003 0-.009 0-.01.003l-.001.037c.003-.002.007-.002.01-.002.236.066.469.143.674.219.003.001.003-.004.003-.007l.002-.038c0 .004 0 .008-.003.007Zm-.013.277a8.98 8.98 0 0 0-.872-.283c-.005-.002-.007-.008-.007-.014v.038c0 .005.002.012.007.013.295.079.585.173.87.281.012.005.012-.005.012-.009l.003-.034c0 .005-.003.011-.012.007Z" fill="#432918"/><path d="M25.92 20.082v.392H29v.333h-3.08v.391H29v.333h-3.472V19.75H29v.332h-3.08Zm-1.247.389h-2.38v-.724H21.9v1.78h.392v-.665h2.38v.665h.391v-1.78h-.391v.724Zm-6.458-.328v.994a.393.393 0 0 0 .393.395l2.837-.003v-.39H18.66a.053.053 0 0 1-.051-.05v-.893a.063.063 0 0 1 .064-.055h2.77v-.391h-2.831a.396.396 0 0 0-.398.393Zm-.862.33h-2.5a.063.063 0 0 1-.045-.016.061.061 0 0 1-.02-.045v-.266a.063.063 0 0 1 .066-.064h2.836v-.332H14.78a.39.39 0 0 0-.386.395v.267a.396.396 0 0 0 .396.396l2.498-.001a.062.062 0 0 1 .046.017.062.062 0 0 1 .02.044v.269a.064.064 0 0 1-.02.044.062.062 0 0 1-.046.017h-2.84v.332h2.904a.395.395 0 0 0 .395-.393v-.268a.397.397 0 0 0-.395-.396Zm-3.411 1.048v.005h-.394v-.07a.395.395 0 0 0-.396-.396H10.97v.469h-.391v-1.78h2.966a.392.392 0 0 1 .393.392v.386a.393.393 0 0 1-.379.395.658.658 0 0 1 .383.6Zm-.397-1.312a.068.068 0 0 0-.066-.068h-2.51v.528h2.517a.064.064 0 0 0 .06-.066v-.394Zm-3.44-.067v.994a.392.392 0 0 1-.392.393H7.208a.395.395 0 0 1-.397-.392v-.994a.396.396 0 0 1 .397-.394H9.72a.391.391 0 0 1 .387.393Zm-.39.067a.07.07 0 0 0-.068-.068H7.269a.063.063 0 0 0-.064.055v.894a.052.052 0 0 0 .05.049h2.398a.067.067 0 0 0 .063-.066v-.864Zm-3.365-.067v.525a.394.394 0 0 1-.394.393H3.39v.47H3v-1.781h2.956a.393.393 0 0 1 .395.393Zm-.392.067a.068.068 0 0 0-.066-.068h-2.5v.528h2.507a.063.063 0 0 0 .06-.065v-.395ZM19.557 9.375c0 .016 0 .044-.002.06l-.047-.018-.032-.013-.004-.001a8.726 8.726 0 0 0-.435-.142h-.003l-.057-.016-.059-.016-.05-.014v.141l.032.008.022.006.037.011.038.01a8.387 8.387 0 0 1 .493.159l.019.006.044.015v.02l-.002.124h-.003l-.042-.013-.03-.01a8.51 8.51 0 0 0-.542-.171L18.86 9.5l-.001.069-.001.067v.001l.029.01.057.016.056.017.022.007.023.007c.08.024.158.049.232.074.074.025.152.049.219.074l.007.003.007.003.012.004.024.01c.002.044 0 .088-.003.131h-.001l-.043-.015-.008-.002-.008-.003c-.135-.05-.27-.09-.391-.13a8.776 8.776 0 0 0-.38-.114v-.004l.005-.279.007-.404a9.159 9.159 0 0 1 .76.243l.004.001.027.01.04.014v.065Zm-1.027-.372a1.475 1.475 0 0 0-.126-.03V9.078a1.367 1.367 0 0 1-.007.134v.045h-.002l-.034-.007-.025-.005-.02-.005-.022-.004-.158-.033-.164-.033-.008-.001-.008-.002-.04-.007-.04-.007-.01-.002v-.08l.002-.076V8.86l-.034-.005-.025-.004-.03-.005a2.39 2.39 0 0 0-.043-.006v.032l-.005.16-.006.203-.002.06-.002.055a17.058 17.058 0 0 0-.005.17l.035.007.02.004.035.006.053.008h.002l.001-.052v-.039l.002-.05.001-.086v-.048l.023.004h.005l.005.002a61.44 61.44 0 0 1 .414.082l.012.002.01.002.029.006.027.007h.002l-.001.049v.04l-.001.047-.001.044v.052l-.002.028v.002l.043.01.029.006.025.007.04.009.002-.041v-.02l.007-.27.004-.3v-.036h-.007Zm-1.358-.245-.245-.027a.137.137 0 0 0-.099.034.12.12 0 0 0-.05.08c-.003.03-.001.236-.001.236l-.002.247c0 .012.002.025.007.036.004.011.01.021.018.03.014.012.03.02.049.025.01.003.02.004.03.004h.007l.007.001.32.032c.11.011.215.022.328.038l.05.007.001-.068v-.058l-.059-.009-.044-.006h-.01c-.087-.012-.174-.022-.268-.033-.094-.012-.181-.023-.271-.032a.022.022 0 0 1-.02-.022v-.366c0-.006 0-.012.002-.018a.038.038 0 0 1 .011-.015.066.066 0 0 1 .038-.013c.058.005.56.072.64.083l.002-.062v-.071c-.108-.016-.293-.036-.441-.053Zm-1.583.52a.35.35 0 0 1 .035.128l-.159.01a.495.495 0 0 0-.049-.132.13.13 0 0 0-.124-.076l-.408.044v.216l-.073.01-.073.01v-.693s.652-.074.724-.07c.073.004.089.042.093.08.01.08.012.16.008.241a.16.16 0 0 1-.075.103c.042.036.076.08.101.13v-.001Zm-.174-.358c0-.007 0-.014-.003-.021a.045.045 0 0 0-.011-.017.088.088 0 0 0-.051-.014l-.47.047v.209l.225-.02.227-.02a.096.096 0 0 0 .06-.029.084.084 0 0 0 .024-.059l-.001-.076Zm-.848.004.003.467a.15.15 0 0 1-.11.129l-.644.126c-.048.01-.11-.052-.11-.103V9.08c0-.051.056-.093.103-.105.048-.011.61-.12.647-.127a.096.096 0 0 1 .11.077Zm-.15.124c0-.04-.016-.075-.077-.065-.077.013-.33.058-.414.075-.07.013-.096.04-.096.099v.296c0 .042.026.073.07.065l.457-.088a.08.08 0 0 0 .063-.083l-.002-.299Zm2.11-.056a3.685 3.685 0 0 0-.174-.006l-.178-.001h-.241a.022.022 0 0 1-.011-.006.037.037 0 0 1-.008-.023l.001-.026v-.026c0-.02 0-.04.004-.06.004-.008.012-.012.032-.013.015 0 .26 0 .425.002h.06c.047-.001.103.003.145.002v-.12a5.606 5.606 0 0 0-.195-.008h-.014a9.363 9.363 0 0 0-.129-.003c-.173-.003-.361 0-.381 0a.117.117 0 0 0-.055.022.058.058 0 0 0-.028.038l-.002.14-.001.14a.053.053 0 0 0 .028.038.113.113 0 0 0 .058.02h.092l.09.002a8.837 8.837 0 0 1 .379.01c.017.001.025.008.028.02a.157.157 0 0 1 .001.041v.017l-.001.016c.001.015 0 .03-.006.044-.005.009-.016.012-.04.012l-.086-.002h-.257l-.149.001c-.046.002-.1.004-.139.007l-.005.12a9.276 9.276 0 0 1 .348-.009 3.9 3.9 0 0 1 .23.006l.076.003.085.003a.097.097 0 0 0 .055-.023.067.067 0 0 0 .03-.046v-.133l.002-.132a.069.069 0 0 0-.025-.043.084.084 0 0 0-.045-.024Zm-2.965.154.007.275a.07.07 0 0 1-.003.02.076.076 0 0 1-.02.033.089.089 0 0 1-.035.024l-.68.213.004.234s-.171.062-.181.064V9.68c0-.12-.005-.341-.004-.347 0-.006.004-.008.013-.011.01-.004.218-.078.476-.167.077-.027.256-.081.293-.087a.12.12 0 0 1 .086.014.09.09 0 0 1 .044.063Zm-.155.21c0-.018-.003-.077-.005-.096a.059.059 0 0 0-.032-.045.049.049 0 0 0-.02-.004h-.007s-.153.043-.235.071c-.082.028-.29.107-.29.107l.004.205.522-.168a.103.103 0 0 0 .041-.025.067.067 0 0 0 .022-.044Zm2.27 2.455v.19a.107.107 0 0 1-.015.062.054.054 0 0 1-.022.018.055.055 0 0 1-.028.004.059.059 0 0 1-.052-.022.104.104 0 0 1-.015-.061v-.19a.025.025 0 0 0-.043-.018.026.026 0 0 0-.007.017v.175a.184.184 0 0 0 .025.106.105.105 0 0 0 .093.042.1.1 0 0 0 .092-.042.192.192 0 0 0 .023-.106v-.175a.025.025 0 0 0-.008-.018.025.025 0 0 0-.043.018Zm.256.021a.025.025 0 0 0 .017-.007.025.025 0 0 0 .007-.017.025.025 0 0 0-.007-.018.025.025 0 0 0-.017-.007h-.143a.024.024 0 0 0 0 .049h.046v.276l.002.01a.028.028 0 0 0 .006.008.024.024 0 0 0 .008.005.024.024 0 0 0 .02 0 .025.025 0 0 0 .015-.023v-.276h.046Zm.226 0a.025.025 0 0 0 .017-.007.025.025 0 0 0 .007-.017.025.025 0 0 0-.007-.018.025.025 0 0 0-.017-.007h-.143a.024.024 0 1 0 0 .049h.047v.276a.025.025 0 1 0 .05 0v-.276h.046Zm.274.097h-.078c-.02 0-.024.01-.024.02 0 .004 0 .007.002.01a.023.023 0 0 0 .013.014.024.024 0 0 0 .01.002h.054v.015a.095.095 0 0 1-.067.099.064.064 0 0 1-.063-.042.212.212 0 0 1 .004-.181.06.06 0 0 1 .054-.04.067.067 0 0 1 .053.035.022.022 0 0 0 .028.008.02.02 0 0 0 .014-.017l-.001-.007a.093.093 0 0 0-.095-.063.091.091 0 0 0-.09.05.234.234 0 0 0-.032.123.25.25 0 0 0 .03.126.104.104 0 0 0 .092.058.122.122 0 0 0 .06-.017.162.162 0 0 0 .06-.095.32.32 0 0 0 .006-.062c0-.017-.005-.035-.03-.035Zm.833-.097a.024.024 0 1 0 0-.049h-.143a.024.024 0 1 0 0 .049h.047v.276c0 .007.003.013.007.018a.025.025 0 0 0 .044-.018v-.276h.045Zm-.294.172.008-.002a.123.123 0 0 0 .047-.03.095.095 0 0 0 .029-.08.114.114 0 0 0-.044-.084.147.147 0 0 0-.084-.023h-.077c-.003 0-.007 0-.01.002a.025.025 0 0 0-.01.006.029.029 0 0 0-.006.02v.303a.025.025 0 0 0 .014.015.024.024 0 0 0 .01.002c.004 0 .008 0 .011-.002a.023.023 0 0 0 .009-.006.023.023 0 0 0 .005-.009.023.023 0 0 0 .001-.01v-.093h.047l.076.104a.026.026 0 0 0 .022.011c.015 0 .024-.007.025-.02a.035.035 0 0 0-.01-.022l-.063-.082Zm-.098-.04v-.132h.06a.071.071 0 0 1 .067.038.062.062 0 0 1 .006.024.074.074 0 0 1-.025.053.072.072 0 0 1-.056.017h-.052Zm-.202-.156a.045.045 0 0 0-.035-.029.041.041 0 0 0-.036.03l-.094.295a.023.023 0 0 0 .004.021.025.025 0 0 0 .018.011c.013 0 .024-.002.029-.018l.014-.051h.134l.015.05c.002.006.005.01.01.013.004.004.01.005.015.005.004 0 .009 0 .012-.002a.027.027 0 0 0 .01-.008.032.032 0 0 0 .004-.014c0-.005 0-.01-.002-.014l-.098-.289Zm.014.22h-.103l.055-.19.057.19h-.009Zm-1.482-.07a.246.246 0 0 0-.108-.033.046.046 0 0 1-.03-.019.046.046 0 0 1-.008-.035.058.058 0 0 1 .06-.04.082.082 0 0 1 .064.028c.013.017.038-.001.038-.015 0-.016-.024-.06-.098-.061a.129.129 0 0 0-.074.021.087.087 0 0 0-.041.066.1.1 0 0 0 .028.08.101.101 0 0 0 .07.027.088.088 0 0 1 .077.04.043.043 0 0 1-.01.047.09.09 0 0 1-.059.02.097.097 0 0 1-.063-.025.033.033 0 0 0-.033-.01c-.018.005-.015.027-.014.031a.12.12 0 0 0 .106.057.13.13 0 0 0 .1-.036.1.1 0 0 0 .027-.07.082.082 0 0 0-.033-.073h.001Zm.224-.123a.024.024 0 0 0 .025-.025.024.024 0 0 0-.025-.024h-.144a.024.024 0 1 0 0 .049h.047v.276c0 .006.003.013.007.018a.025.025 0 0 0 .043-.018v-.276h.047Zm-2.05-1.333a.507.507 0 0 1 .184-.212c.039-.024.04-.034.04-.036-.001-.003-.008-.007-.06-.008a.37.37 0 0 0-.209.089.477.477 0 0 0-.148.239.93.93 0 0 0 .006.322s-.132.062-.177.087a.277.277 0 0 0-.05-.097.131.131 0 0 0-.146-.016.104.104 0 0 0-.06.108.19.19 0 0 0 .04.093.235.235 0 0 0-.095.059.14.14 0 0 0-.036.131.097.097 0 0 0 .104.06.305.305 0 0 0 .147-.077.699.699 0 0 0 .06.062.125.125 0 0 0 .075.026.137.137 0 0 0 .062-.016.111.111 0 0 0 .056-.108c-.006-.062-.065-.086-.062-.109.297-.166.616-.29.948-.369.224-.058.454-.095.685-.108.148-.016.297 0 .438.044a.7.7 0 0 1 .31.173l.001.002a.29.29 0 0 0-.16-.254.583.583 0 0 0-.258-.085.516.516 0 0 1 .079-.103.349.349 0 0 1 .18-.093c.059-.008.119-.012.18-.01a.137.137 0 0 0-.123-.084.42.42 0 0 0-.207.02.493.493 0 0 0-.26.266 3.084 3.084 0 0 0-.366.002.609.609 0 0 1 .106-.274.511.511 0 0 1 .25-.16.143.143 0 0 0 .042-.021c-.02-.02-.048-.04-.151-.044a.402.402 0 0 0-.33.18.709.709 0 0 0-.103.323c-.195.035-.42.092-.42.092a.667.667 0 0 1 .05-.232.548.548 0 0 1 .206-.223l.042-.028a.173.173 0 0 0-.085-.013.43.43 0 0 0-.187.05.38.38 0 0 0-.195.333c-.003.03.006.147 0 .175-.15.039-.299.086-.444.14-.014-.1 0-.203.042-.296Zm1.633.839.069-.02a.145.145 0 0 0-.034-.024.357.357 0 0 0-.294-.002.42.42 0 0 0-.198.249s-.115.003-.16.006l-.166.011a.397.397 0 0 1 .093-.235.43.43 0 0 1 .248-.143l.023-.006a.192.192 0 0 0-.108-.032.415.415 0 0 0-.41.385l-.008.046-.12.025a1.375 1.375 0 0 0-.2.05.544.544 0 0 1 .247-.44.264.264 0 0 0-.062-.009.302.302 0 0 0-.28.194.813.813 0 0 0-.05.316c-.062.016-.203.07-.261.092a.528.528 0 0 1 .002-.234.368.368 0 0 1 .136-.214c-.004-.002-.016-.01-.073.004a.302.302 0 0 0-.215.207 1.285 1.285 0 0 0-.026.322c-.035.017-.15.069-.17.077a.266.266 0 0 0-.031-.081.106.106 0 0 0-.088-.048c-.02 0-.04.006-.059.015a.076.076 0 0 0-.038.046.1.1 0 0 0 .006.077.248.248 0 0 0 .03.04l.025.037a.3.3 0 0 0-.102.052.11.11 0 0 0-.036.142.092.092 0 0 0 .086.05.222.222 0 0 0 .152-.075l.046.07a.096.096 0 0 0 .083.043.11.11 0 0 0 .052-.013.117.117 0 0 0 .056-.102.158.158 0 0 0-.042-.096l-.009-.013.083-.043a2.69 2.69 0 0 1 .415-.19c.23-.081.467-.137.709-.165a.588.588 0 0 1 .331.032v-.252h.1a.46.46 0 0 1 .248-.151Zm-.347.928v.365a1.305 1.305 0 0 0-.118-.007c-.328.019-.65.098-.95.233-.136.059-.267.127-.393.204a.22.22 0 0 1 .1.11c.02.071-.026.138-.12.14-.085.004-.107-.072-.134-.1-.008.004-.08.072-.104.086a.142.142 0 0 1-.07.02.105.105 0 0 1-.104-.08.1.1 0 0 1-.001-.044.127.127 0 0 1 .067-.085.354.354 0 0 0 .07-.046c-.005-.024-.052-.063-.064-.096a.124.124 0 0 1 .039-.135.111.111 0 0 1 .126.003c.048.029.073.118.081.126.027-.018.107-.071.154-.105a.595.595 0 0 1-.078-.317c.025-.169.198-.284.283-.243a.397.397 0 0 0-.111.267.37.37 0 0 0 .036.22s.186-.075.254-.095a.553.553 0 0 1-.01-.37.343.343 0 0 1 .306-.185.447.447 0 0 0-.18.497c.038-.009.252-.08.278-.087a.523.523 0 0 1 .106-.355.392.392 0 0 1 .262-.16c.022 0 .044.003.065.009-.001.008-.001.008-.017.02l-.013.008c-.088.07-.164.154-.226.248a.401.401 0 0 0-.045.186l.001.008s.11-.02.196-.029c.085-.008.17-.01.17-.01a.524.524 0 0 1 .05-.104.461.461 0 0 1 .094-.098Zm3.55 1.581a.308.308 0 0 0-.17.132c-.067.103-.092.217-.052.22.027.002.072 0 .083 0 .047 0 .094.002.14.006a.044.044 0 0 0 .025-.013.219.219 0 0 0 .018-.028.571.571 0 0 1 .201-.284.218.218 0 0 1 .13-.045.222.222 0 0 1 .188.082c.017.024-.078-.022-.225.128a.518.518 0 0 0-.108.165c-.001.004.005.014.01.016.067.02.186.048.247.074a.03.03 0 0 0 .036-.012.447.447 0 0 1 .126-.128.33.33 0 0 1 .183-.05h.013c.137.018.146.085.153.096.008.011-.03.01-.047.014a.426.426 0 0 0-.241.15c-.01.017.027.045.027.045a.28.28 0 0 1 .14.29c-.002.021 0 .031-.018.031a.206.206 0 0 1-.055-.04 1.686 1.686 0 0 0-.192-.148.977.977 0 0 0-.36-.14 1.679 1.679 0 0 0-.297-.03 2.45 2.45 0 0 0-.658.097 9.04 9.04 0 0 0-.301.09l-.076.023.05-.043c.054-.051.104-.106.151-.163l.034-.044.058-.014.247-.055a.07.07 0 0 0 .05-.056.465.465 0 0 1 .119-.257.317.317 0 0 1 .233-.148c.11-.008.156.03.137.039Zm-1.78 1.864a.182.182 0 0 1-.071-.13.124.124 0 0 1 .075-.115.175.175 0 0 1 .152.014c.056.039.058.078.078.135a.022.022 0 0 0 .007.004c.048-.024.132-.063.19-.095l.03-.016s.012-.004.008-.022a.61.61 0 0 1-.03-.188.419.419 0 0 1 .069-.198c.088-.152.256-.138.24-.124a.5.5 0 0 0-.115.238.42.42 0 0 0 0 .148c.004.022.006.05.02.057.013.007.067-.02.1-.033.041-.016.099-.023.137-.034.023-.006.016-.018.016-.023a.677.677 0 0 1 .11-.386.353.353 0 0 1 .244-.138c.035-.003.086.013.07.023a.602.602 0 0 0-.195.196.459.459 0 0 0-.045.275c.077 0 .153-.01.226-.03a.038.038 0 0 0 .015-.01.039.039 0 0 0 .009-.016c.027-.087.056-.252.148-.313a.266.266 0 0 1 .16-.062c.042-.002.155.032.13.045a.468.468 0 0 0-.179.135.311.311 0 0 0-.065.16c-.007.033.03.042.03.042.061.004.123.012.184.023.018.003.032-.02.036-.028a.445.445 0 0 1 .103-.116c.04-.038.09-.061.145-.065.114 0 .171.083.155.088a.454.454 0 0 0-.247.163c-.003.004-.014.01.003.025a.533.533 0 0 1 .19.337c0 .01.007.057-.009.064a1.12 1.12 0 0 0-.253-.225.874.874 0 0 0-.423-.096 1.905 1.905 0 0 0-.529.08c-.191.057-.374.139-.546.242.028.019.049.046.06.078a.127.127 0 0 1-.039.154.11.11 0 0 1-.1.016c-.083-.011-.105-.095-.116-.122a.127.127 0 0 1-.057.066.122.122 0 0 1-.097.024.122.122 0 0 1-.084-.055.116.116 0 0 1 .02-.158l.04-.034Zm.287 1.022a.583.583 0 0 1-.037-.085.362.362 0 0 1-.022-.193.186.186 0 0 1 .169-.148.188.188 0 0 0-.049.16.392.392 0 0 0 .051.162c.007.01.012.006.015.004a1.395 1.395 0 0 1 .144-.07l.001-.005a.417.417 0 0 1 .037-.324.288.288 0 0 1 .206-.144c.003 0 .056.002.06.022a.411.411 0 0 0-.137.167.378.378 0 0 0-.014.212c0 .002.007.005.01.004.054-.014.106-.028.162-.04a.023.023 0 0 0 .01-.01.489.489 0 0 1 .149-.263.368.368 0 0 1 .202-.085c.097-.004.11.03.12.043.007.008-.02-.003-.066.016a.44.44 0 0 0-.144.114.285.285 0 0 0-.067.15c0 .004 0 .011.003.012a.943.943 0 0 1 .17.039.011.011 0 0 0 .003-.003.61.61 0 0 1 .12-.159.261.261 0 0 1 .166-.066.173.173 0 0 1 .105.033s.038.03.03.034a.347.347 0 0 0-.17.106c-.065.077-.067.096-.071.114-.004.018-.003.025.016.038.103.066.116.122.121.159.006.04-.019.096-.052.054a.354.354 0 0 0-.172-.121.848.848 0 0 0-.299-.06 1.14 1.14 0 0 0-.617.215l-.045.034a1.102 1.102 0 0 0-.091.075c-.013.013.009.02.019.026.118.052.121.131.09.167a.085.085 0 0 1-.102.015c-.09-.058-.073-.108-.112-.096-.027.009-.055.076-.076.1a.094.094 0 0 1-.129.018.104.104 0 0 1-.02-.143.826.826 0 0 1 .071-.06c-.005-.003-.064-.04-.088-.061a.098.098 0 0 1 .005-.145.106.106 0 0 1 .12-.005.108.108 0 0 1 .03.03s.043.058.047.061c.003.004.008.003.012 0a4.785 4.785 0 0 1 .117-.093v-.005Zm.55-3.342a.106.106 0 0 1-.041 0 .054.054 0 0 1-.034-.021.08.08 0 0 1-.018-.034c0-.008.008-.015.014-.02a.2.2 0 0 0 .052-.056.145.145 0 0 0 .017-.064c0-.004-.008-.006-.011-.004-.014.014-.023.034-.04.044a.083.083 0 0 1-.05.014.05.05 0 0 1-.032-.015.102.102 0 0 1-.017-.035c-.004-.01.013-.018.024-.02a.16.16 0 0 0 .067-.02.077.077 0 0 0 .03-.034.11.11 0 0 0 .006-.035c0-.005.003-.008-.002-.006-.013.004-.021.01-.032.014a.08.08 0 0 1-.061-.004.16.16 0 0 1-.046-.053c-.003-.004 0-.012.004-.012.02-.004.036-.026.05-.05a.099.099 0 0 0 .009-.017c.002-.007.011-.015.012-.018a.16.16 0 0 0 .004-.046.056.056 0 0 0-.018-.034c-.002-.003-.012-.004-.015 0-.008.016-.003.036-.012.052a.156.156 0 0 1-.04.041c-.008.006-.019.014-.028.01a.056.056 0 0 1-.03-.037.09.09 0 0 1 .012-.056.634.634 0 0 1 .063-.1c.018-.023.037-.038.053-.063.012-.017.02-.052.005-.057-.015-.006-.023.029-.037.037a.594.594 0 0 0-.145.079.252.252 0 0 0-.044.091c-.006.018-.002.045-.01.062-.002.007-.016.013-.021.009a.13.13 0 0 1-.036-.057.074.074 0 0 1 .003-.045c.002-.006-.002-.011-.007-.009a.096.096 0 0 0-.043.052.123.123 0 0 0 .007.09c.025.04.052.08.082.119.021.036.05.075.068.11a.14.14 0 0 1 .023.099.187.187 0 0 1-.053.094c-.004.002-.011.006-.014.003a1.052 1.052 0 0 0-.087-.073.355.355 0 0 0-.121-.049.782.782 0 0 0-.16-.001c-.057.002-.113.01-.169.008a.387.387 0 0 1-.135-.018.149.149 0 0 1-.076-.066.186.186 0 0 1-.017-.104.199.199 0 0 1 .025-.083.131.131 0 0 1 .052-.053.117.117 0 0 1 .082-.012.245.245 0 0 1 .07.055c0 .002.008 0 .009-.002a.228.228 0 0 0-.016-.11.483.483 0 0 0-.05-.078c-.001-.006.016-.005.023-.006.03-.002.06.007.084.025.017.012.031.027.042.044 0 .002.006 0 .006-.002a.174.174 0 0 0-.044-.126.144.144 0 0 0-.053-.046c-.013-.005.01-.015.02-.015a.15.15 0 0 1 .071.01c.008.004.016.01.022.016l.015.011c.004.003.008-.005.006-.01a.105.105 0 0 0-.015-.037 1.069 1.069 0 0 0-.127-.107.18.18 0 0 1-.025-.05c-.002-.008-.013-.014-.016-.024a.04.04 0 0 1 .003-.03c.011-.021.022-.025.046-.036a.273.273 0 0 1 .058-.012c.006 0 .012.006.018.004.003 0 .004-.01-.005-.016a.138.138 0 0 0-.079-.025.234.234 0 0 0-.111.008.204.204 0 0 1-.087.025.121.121 0 0 1-.057-.011.047.047 0 0 1-.025-.032c-.001-.023.004-.046.015-.066a.083.083 0 0 1 .038-.032c.01-.006.018-.01.017-.017 0-.008-.015-.004-.02-.002a.332.332 0 0 0-.096.037.396.396 0 0 0-.058.066.036.036 0 0 1-.013.01c-.007.003-.013 0-.02.004-.024.009-.048.02-.071.032-.024.01-.042.029-.066.037a.203.203 0 0 1-.057.01h-.002c-.037-.004-.088-.004-.097.042a.022.022 0 0 0 .01.024.108.108 0 0 0 .021.01l.024.008c.005.002.01.005.014.009l.001.002v.006a.018.018 0 0 1-.016.012.09.09 0 0 1-.06-.008l-.005-.002a.02.02 0 0 0-.026.004 1.521 1.521 0 0 1-.141.104.021.021 0 0 0-.005.01v.009c.002.01-.01.015-.018.017a.022.022 0 0 0-.017.02c0 .008 0 .015.002.023a.026.026 0 0 0 .014.019.026.026 0 0 0 .024 0 .399.399 0 0 1 .043-.013l.008.004.002.003.001.002v.002c0 .003 0 .007-.002.01a.167.167 0 0 1-.014.02c-.005.008-.01.019 0 .025a.04.04 0 0 0 .052-.002.09.09 0 0 0 .018-.025.042.042 0 0 1 .021-.022.156.156 0 0 1 .06-.013h.001c.015 0 .03.003.041.01a.02.02 0 0 1 .01.01V12.772a.14.14 0 0 1-.017.04c-.004.008-.006.02-.01.03-.004.012-.01.023-.014.032-.003.009-.005.01-.012.016-.018.015-.043.03-.06.046a.506.506 0 0 0-.082.1.132.132 0 0 0-.016.037c-.006.033-.012.071-.05.05a.964.964 0 0 1-.105-.066.146.146 0 0 1-.031-.034c-.033-.048-.074-.006-.096.03a1.556 1.556 0 0 1-.114.154.103.103 0 0 0-.015.027.123.123 0 0 1-.023.036.08.08 0 0 0-.017.053c.001.033-.009.065-.029.09a.084.084 0 0 0-.023.056l.001.054c.001.014.006.026.022.025a.307.307 0 0 0 .097-.055.025.025 0 0 0 .006-.014.025.025 0 0 0-.007-.021.058.058 0 0 0-.005-.005.034.034 0 0 1-.012-.016l-.001-.005.001-.018a.219.219 0 0 0 .005-.024c0-.005.001-.01.003-.014a.036.036 0 0 1 .01-.01l.037-.031a.054.054 0 0 0 .016-.063.055.055 0 0 1-.004-.012v-.007a.058.058 0 0 1 .013-.027l.025-.035a.088.088 0 0 1 .053-.04.096.096 0 0 1 .077.025.226.226 0 0 1 .044.097c.008.029.02.056.035.082a.04.04 0 0 0 .046.02.04.04 0 0 0 .016-.009l.003-.002.004-.002a.018.018 0 0 1 .021.009c.01.013.022.024.034.035.015.01.002.02-.01.02h-.03a.06.06 0 0 0-.024.004.615.615 0 0 1-.194.029.024.024 0 0 0-.017.013.076.076 0 0 0-.003.006l-.006.018a.06.06 0 0 0 0 .043.605.605 0 0 1 .018.26.108.108 0 0 0 .02.088.058.058 0 0 0 .03.018.037.037 0 0 1 .012.007c.008.009.012.02.011.032a.077.077 0 0 0 .02.046.18.18 0 0 0 .057.047l.007.003a.023.023 0 0 0 .026-.004.023.023 0 0 0 .005-.008.193.193 0 0 0 .019-.09.032.032 0 0 0-.025-.03.016.016 0 0 0-.005 0 .02.02 0 0 0-.014.004l-.002.001a.03.03 0 0 1-.007.003H15.45a.027.027 0 0 1-.004-.003.047.047 0 0 1-.017-.02.084.084 0 0 1-.003-.055.212.212 0 0 0 .004-.016.065.065 0 0 0 0-.025.079.079 0 0 0-.006-.026c-.006-.014-.008-.019-.02-.023l-.004-.002a.056.056 0 0 1-.015-.008.013.013 0 0 1-.004-.008v-.007a.497.497 0 0 0 .005-.123c0-.013-.003-.027.009-.038.028-.023.075-.004.105.007a.718.718 0 0 0 .119.03.272.272 0 0 0 .186-.05c.005-.004.006-.006.011-.002.022.012.035.027.057.04a.574.574 0 0 0 .157.073c.075.007.151.007.226-.002a.195.195 0 0 1 .055.012.01.01 0 0 1 .006.004.01.01 0 0 1 .001.006c-.002.027-.012.054-.012.081.002.015.007.03.015.042.007.013.011.03.02.042l.007.015a.15.15 0 0 1 .003.185.695.695 0 0 1-.092.075.206.206 0 0 1-.105.041.108.108 0 0 0-.069.03.32.32 0 0 1-.072.056.037.037 0 0 0-.023.024.44.44 0 0 0-.028.096c-.004.019.01.025.026.023a.357.357 0 0 0 .092-.028.027.027 0 0 0 .005-.033l-.009-.024a.026.026 0 0 1-.001-.007v-.006c0-.003.002-.005.004-.008a.066.066 0 0 1 .016-.014.038.038 0 0 1 .026-.007.257.257 0 0 1 .018.004.075.075 0 0 0 .09-.032.7.7 0 0 0 .007-.011.096.096 0 0 1 .026-.029 1.106 1.106 0 0 1 .237-.117.023.023 0 0 0 .006-.01.487.487 0 0 1-.003-.115c.001-.019.008-.054.034-.055.005.001.01.003.014.006a.035.035 0 0 1 .01.01c.027.033.06.058.1.071a.484.484 0 0 1 .035.014.1.1 0 0 1 .057.075.065.065 0 0 1-.011.052 1.333 1.333 0 0 0-.078.111.168.168 0 0 1-.048.05.935.935 0 0 0-.085.066.168.168 0 0 0-.054.056 1.242 1.242 0 0 0-.04.12c-.006.022.008.028.029.023.03-.008.06-.02.087-.035a.042.042 0 0 0 .011-.01.025.025 0 0 0 .006-.016.057.057 0 0 0-.013-.029.032.032 0 0 1-.003-.039.032.032 0 0 1 .018-.013l.066-.018a.135.135 0 0 0 .077-.039.042.042 0 0 0 .008-.017v-.002l.002-.005a.361.361 0 0 1 .169-.213.035.035 0 0 0 .017-.028.06.06 0 0 0-.003-.033l-.062-.096a.184.184 0 0 1-.034-.085.206.206 0 0 1 .038-.117c.011-.024.032-.033.049-.055a.533.533 0 0 0 .046-.066.576.576 0 0 0 .033-.095c.008-.024-.004-.052-.002-.077a.054.054 0 0 1 .012-.026.09.09 0 0 1 .043-.033.094.094 0 0 1 .054.003c.033.01.054.022.087.03a.102.102 0 0 0 .052-.004.101.101 0 0 0 .047-.027c.005-.003.005-.013 0-.012Zm-1.13-.523a.072.072 0 0 1-.034.06.074.074 0 0 1-.034.007c-.012 0-.017-.02-.018-.048v-.032c0-.014 0-.026.002-.04v-.061c0-.023 0-.047-.003-.07a.499.499 0 0 0-.039-.135c-.003-.007-.01-.016-.013-.024a.064.064 0 0 0-.014-.018c-.009-.008-.02-.012-.028-.02-.003-.004 0-.008.003-.01a.088.088 0 0 1 .101.012.208.208 0 0 1 .076.146.816.816 0 0 1 .001.233Zm-3.433 1.604h2.297a1.27 1.27 0 0 1-.338-.848v-.036h-2.098c.013.299.059.596.139.884Zm3.32 1.109h-2.855c.075.136.158.272.246.407.11.167.231.327.362.478h2.248v-.886Zm3.684-3.962h-2.108V12.4h2.094l.014-.778Zm.024-1.31a10.744 10.744 0 0 0-3.579-.684v.865h3.576c0-.062.002-.123.003-.181Zm-2.262 1.282h-2.693c-.005 0-.006.002-.006.007l.003 1.997a1.243 1.243 0 0 0 .447.934c.254.22.577.344.912.348a1.4 1.4 0 0 0 .704-.199c.269-.158.474-.404.582-.697a.952.952 0 0 0 .058-.309V11.6a.007.007 0 0 0-.002-.005.007.007 0 0 0-.005 0Zm-.056 2.065a.92.92 0 0 1-.055.297 1.327 1.327 0 0 1-1.226.861 1.347 1.347 0 0 1-1.18-.737 1.2 1.2 0 0 1-.116-.496l-.003-1.92c0-.005 0-.007.006-.007h2.57l.002.002.002.002v1.998Zm-.779 1.235c-.09.034-.184.059-.28.073a.24.24 0 0 0 .01.023.052.052 0 0 0 .05.035c.031.005.054-.017.077-.068.003-.004.016-.01.02-.005.024.04.08.076.117.056a.062.062 0 0 0 .029-.067.064.064 0 0 0-.01-.024l-.013-.023Zm4.812-5.766h.203c.061-.003.122.011.175.04a.162.162 0 0 1 .063.148.256.256 0 0 1-.01.072.123.123 0 0 1-.037.057.202.202 0 0 1-.078.038.531.531 0 0 1-.137.014h-.179v-.369Zm-.135-.12v1.104h.135v-.495h.216l.216.495h.148l-.227-.515a.31.31 0 0 0 .183-.102.27.27 0 0 0 .066-.177.392.392 0 0 0-.016-.106.254.254 0 0 0-.055-.101.286.286 0 0 0-.112-.074.507.507 0 0 0-.186-.029h-.368Zm.057 1.223a.725.725 0 0 1-.396-.396.78.78 0 0 1 0-.589.723.723 0 0 1 .396-.396.742.742 0 0 1 .985.396.78.78 0 0 1 0 .59.723.723 0 0 1-.396.395.78.78 0 0 1-.59 0h.001Zm.639.123a.881.881 0 0 0 .469-1.157.902.902 0 0 0-.47-.47.887.887 0 0 0-1.158.47.882.882 0 0 0 1.159 1.157Z" fill="#000"/></g><defs><linearGradient id="b" x1="12.343" y1="13.286" x2="19.901" y2="13.286" gradientUnits="userSpaceOnUse"><stop stop-color="#E1BE78"/><stop offset="1" stop-color="#E3AB36"/></linearGradient><linearGradient id="c" x1="11.78" y1="10.132" x2="19.73" y2="14.722" gradientUnits="userSpaceOnUse"><stop stop-color="#E1BE78"/><stop offset=".34" stop-color="#FFFAD1"/><stop offset=".75" stop-color="#C69632"/><stop offset=".995" stop-color="#FCDC99"/></linearGradient><linearGradient id="d" x1="12.622" y1="9.362" x2="19.586" y2="9.362" gradientUnits="userSpaceOnUse"><stop stop-color="#FFE3A8"/><stop offset="1" stop-color="#D2A249"/></linearGradient><clipPath id="a"><path fill="#fff" transform="translate(3 8.438)" d="M0 0h26v13.126H0z"/></clipPath></defs></svg>