<svg width="32" height="32" fill="none" xmlns="http://www.w3.org/2000/svg"><path d="M0 16C0 7.163 7.163 0 16 0s16 7.163 16 16-7.163 16-16 16S0 24.837 0 16Z" fill="#221F20"/><path d="M22.587 12.834H29v6.332L27.034 17.2v-2.547h-2.587l-1.86-1.819ZM22.653 16.49V19h2.437l1.7-1.798h-2.339v-2.354l-1.798 1.643Z" fill="#fff"/><path fill-rule="evenodd" clip-rule="evenodd" d="M7.694 18.647h1.452L6.743 13.24H5.181L3 18.646h1.428l.404-1.07H7.25l.443 1.07ZM5.188 16.63l.793-2.097.873 2.097H5.188Z" fill="#fff"/><path d="M14.354 13.24h1.173v5.407H14.18V15.27l-1.46 1.696h-.205l-1.458-1.696v3.377H9.708V13.24h1.173l1.736 2.005 1.737-2.005Z" fill="#fff"/><path fill-rule="evenodd" clip-rule="evenodd" d="M21.758 15.952c0-1.483-1.014-2.713-2.988-2.713h-2.388v5.408h2.237c2.16 0 3.14-1.141 3.14-2.695Zm-3.15 1.705h-.881V14.23h.866c1.275 0 1.775.784 1.775 1.713 0 .793-.405 1.713-1.76 1.713Z" fill="#fff"/></svg>