<svg width="32" height="32" fill="none" xmlns="http://www.w3.org/2000/svg"><path d="M0 16C0 7.163 7.163 0 16 0s16 7.163 16 16-7.163 16-16 16S0 24.837 0 16Z" fill="#80BC00"/><path d="M12.955 12.74v-1.433h.42c3.93-.127 6.503 3.368 6.503 3.368s-2.783 3.863-5.76 3.863a3.705 3.705 0 0 1-1.163-.18v-4.35c1.5.18 1.838.855 2.752 2.384l2.04-1.717a5.393 5.393 0 0 0-3.997-1.98 6.75 6.75 0 0 0-.787.045h-.008ZM12.963 8v2.145h.42c5.46-.188 9 4.5 9 4.5s-4.088 4.965-8.34 4.965c-.368 0-.734-.033-1.095-.098v1.328c.303.04.608.06.915.06 3.96 0 6.817-2.025 9.592-4.417.458.367 2.34 1.267 2.73 1.657-2.64 2.205-8.782 3.982-12.262 3.982-.338 0-.66 0-.976-.044v1.86H28V8H12.963Zm0 10.335v1.125c-3.66-.652-4.68-4.455-4.68-4.455a7.928 7.928 0 0 1 4.68-2.25V14c-1.5-.18-2.73 1.252-2.73 1.252s.675 2.408 2.737 3.106l-.008-.023Zm-6.51-3.495a9.06 9.06 0 0 1 6.502-3.533v-1.162C8.155 10.528 4 14.592 4 14.592s2.355 6.81 8.955 7.433v-1.237C8.11 20.18 6.452 14.84 6.452 14.84Z" fill="#000"/></svg>