<svg width="32" height="32" fill="none" xmlns="http://www.w3.org/2000/svg"><path d="M0 16C0 7.163 7.163 0 16 0s16 7.163 16 16-7.163 16-16 16S0 24.837 0 16Z" fill="#F2F3F4"/><g clip-path="url(#a)"><path fill-rule="evenodd" clip-rule="evenodd" d="M2.508 18.962c0-.096.078-.175.175-.175H4.13a.175.175 0 0 1 0 .35H2.683a.175.175 0 0 1-.175-.175Z" fill="#A6DFF9"/><path fill-rule="evenodd" clip-rule="evenodd" d="M4.793 18.962c0-.096.078-.175.175-.175h1.447a.175.175 0 0 1 0 .35H4.968a.175.175 0 0 1-.175-.175Z" fill="#93DAF8"/><path fill-rule="evenodd" clip-rule="evenodd" d="M7.076 18.962c0-.096.079-.175.175-.175h1.447a.175.175 0 0 1 0 .35H7.251a.175.175 0 0 1-.175-.175Z" fill="#7ED4F7"/><path fill-rule="evenodd" clip-rule="evenodd" d="M9.361 18.962c0-.096.079-.175.175-.175h1.447a.175.175 0 0 1 0 .35H9.536a.175.175 0 0 1-.175-.175Z" fill="#6BCFF6"/><path fill-rule="evenodd" clip-rule="evenodd" d="M11.646 18.962c0-.096.079-.175.176-.175h1.447a.175.175 0 0 1 0 .35h-1.447a.175.175 0 0 1-.175-.175Z" fill="#52CBF5"/><path fill-rule="evenodd" clip-rule="evenodd" d="M13.93 18.962c0-.096.078-.175.175-.175h1.447a.175.175 0 0 1 0 .35h-1.447a.175.175 0 0 1-.175-.175Z" fill="#39C6F4"/><path fill-rule="evenodd" clip-rule="evenodd" d="M16.215 18.962c0-.096.078-.175.175-.175h1.447a.175.175 0 1 1 0 .35H16.39a.175.175 0 0 1-.175-.175Z" fill="#20C2F3"/><path fill-rule="evenodd" clip-rule="evenodd" d="M18.5 18.962c0-.096.078-.175.175-.175h1.447a.175.175 0 0 1 0 .35h-1.447a.175.175 0 0 1-.175-.175Z" fill="#04BEF2"/><path fill-rule="evenodd" clip-rule="evenodd" d="M20.783 18.962c0-.096.079-.175.175-.175h1.447a.175.175 0 0 1 0 .35h-1.447a.175.175 0 0 1-.175-.175Z" fill="#00BAF2"/><path fill-rule="evenodd" clip-rule="evenodd" d="M23.068 18.962c0-.096.079-.175.175-.175h1.447a.175.175 0 1 1 0 .35h-1.447a.175.175 0 0 1-.175-.175Z" fill="#00B6F1"/><path fill-rule="evenodd" clip-rule="evenodd" d="M25.354 18.962c0-.096.078-.175.175-.175h1.447a.175.175 0 0 1 0 .35h-1.447a.175.175 0 0 1-.175-.175Z" fill="#00B3F0"/><path fill-rule="evenodd" clip-rule="evenodd" d="M27.637 18.962c0-.096.078-.175.175-.175h1.447a.175.175 0 0 1 0 .35h-1.447a.175.175 0 0 1-.175-.175Z" fill="#00AFEF"/><path d="M15.187 12.871v1.866a1.523 1.523 0 0 0-1.294-.686c-.472 0-.868.168-1.203.503a1.675 1.675 0 0 0-.488 1.21c0 .488.168.892.495 1.227.32.343.724.51 1.18.51.267 0 .51-.06.732-.16.213-.114.41-.274.586-.487v.563h.419v-4.546h-.427ZM4.146 14.013c-.229 0-.457.061-.67.19a1.6 1.6 0 0 0-.45.465v-.57h-.419v3.32h.42v-1.41c0-.418.045-.723.121-.929.075-.192.205-.359.373-.48a.952.952 0 0 1 .54-.175c.168 0 .313.046.443.13a.7.7 0 0 1 .258.343c.046.152.069.418.069.822v1.698h.419v-1.294c0-.48.038-.823.114-1.028.076-.198.206-.366.373-.488a.918.918 0 0 1 .556-.182.72.72 0 0 1 .426.121c.122.077.206.19.26.32.053.137.076.381.076.739v1.812h.426v-1.805c0-.41-.038-.73-.122-.936a1.028 1.028 0 0 0-.99-.663 1.28 1.28 0 0 0-.67.206 1.68 1.68 0 0 0-.525.594 1.45 1.45 0 0 0-.229-.45.915.915 0 0 0-.35-.25 1.028 1.028 0 0 0-.457-.1h.008Zm5.734 0c-.495 0-.906.183-1.219.556-.297.327-.46.754-.457 1.196 0 .457.153.868.473 1.218.304.343.708.518 1.195.518a1.524 1.524 0 0 0 1.196-.525c.304-.33.47-.763.464-1.211 0-.457-.145-.86-.441-1.203a1.562 1.562 0 0 0-1.219-.556l.008.007Zm8.186 0c-.533 0-.96.206-1.287.625-.252.327-.373.7-.373 1.127 0 .45.152.845.449 1.203a1.523 1.523 0 0 0 1.234.533c.423.006.833-.152 1.142-.442.152-.137.29-.327.396-.556l-.343-.19c-.13.22-.243.38-.358.472a1.34 1.34 0 0 1-.875.32c-.335 0-.625-.122-.853-.366-.236-.25-.358-.563-.366-.951h2.909c0-.457-.122-.838-.358-1.143a1.583 1.583 0 0 0-1.317-.632Zm3.564 0a.842.842 0 0 0-.457.137c-.17.115-.315.263-.427.434v-.495h-.441v3.32h.441v-1.111c0-.579.03-.967.084-1.15.076-.251.175-.434.305-.548a.624.624 0 0 1 .426-.175c.053 0 .13.015.229.06l.228-.365a.828.828 0 0 0-.388-.114v.007Zm2.512 0c-.243 0-.464.054-.67.168a1.75 1.75 0 0 0-.556.51v-.602h-.418v3.32h.418v-1.218c0-.434.023-.738.061-.906.061-.251.198-.457.396-.632.206-.175.434-.259.686-.259.228 0 .403.061.533.168a.838.838 0 0 1 .282.495c.038.129.053.38.053.769v1.584h.419V15.71c0-.456-.046-.792-.137-1.005a1.145 1.145 0 0 0-.42-.51 1.143 1.143 0 0 0-.647-.19v.007Zm3.58 0c-.45 0-.838.168-1.158.503a1.722 1.722 0 0 0-.487 1.226c-.01.46.162.907.48 1.241a1.568 1.568 0 0 0 2.436-.145v.58h.411v-3.329h-.403v.61a1.598 1.598 0 0 0-.564-.526 1.448 1.448 0 0 0-.7-.16h-.015Zm-9.656.404c.198 0 .38.046.548.13.183.075.32.19.427.327.099.137.182.312.243.54H16.87c.092-.304.213-.533.381-.685.228-.205.502-.304.815-.304v-.008Zm9.694 0c.357 0 .654.13.906.388.236.26.358.579.358.967 0 .252-.054.48-.153.678a1.273 1.273 0 0 1-1.104.655c-.228 0-.441-.06-.64-.175a1.409 1.409 0 0 1-.464-1.835 1.234 1.234 0 0 1 1.097-.67v-.008Zm-17.896.015c.343 0 .64.13.884.388a1.417 1.417 0 0 1 .205 1.622 1.203 1.203 0 0 1-1.08.655 1.203 1.203 0 0 1-1.082-.655 1.416 1.416 0 0 1-.168-.67c0-.373.122-.685.366-.952.243-.258.533-.388.883-.388h-.008Zm4.052.023a1.293 1.293 0 0 1 1.294 1.333c.004.236-.054.47-.167.677a1.347 1.347 0 0 1-1.135.648 1.295 1.295 0 0 1-1.12-.67 1.355 1.355 0 0 1 0-1.326 1.272 1.272 0 0 1 1.128-.662Zm16.105-.099h.061c.03 0 .053 0 .061-.015.015 0 .023-.015.023-.03l-.015-.024c0-.015 0-.015-.016-.022h-.114v.091Zm-.046.175v-.304h.183a.078.078 0 0 1 .046.038l.015.038c0 .03-.015.045-.023.06a.153.153 0 0 1-.076.031l.03.015.046.061.038.061h-.06l-.023-.053-.054-.076h-.068v.13h-.053Zm.122-.403a.172.172 0 0 0-.114.038.151.151 0 0 0-.084.083.228.228 0 0 0 0 .244.15.15 0 0 0 .084.084c.038.03.076.038.114.038a.179.179 0 0 0 .122-.038.164.164 0 0 0 .092-.084c.015-.038.03-.076.03-.122 0-.038-.015-.076-.03-.122a.23.23 0 0 0-.092-.083.18.18 0 0 0-.122-.038Zm0-.039a.31.31 0 0 1 .145.03.288.288 0 0 1 .107.108c.03.045.038.09.038.152a.235.235 0 0 1-.038.137.287.287 0 0 1-.252.145.286.286 0 0 1-.282-.29c0-.053.016-.099.039-.144a.357.357 0 0 1 .106-.107.321.321 0 0 1 .137-.03Z" fill="#E51937"/></g><defs><clipPath id="a"><path fill="#fff" transform="translate(2.5 12.813)" d="M0 0h28v6.375H0z"/></clipPath></defs></svg>