<svg xmlns="http://www.w3.org/2000/svg" width="32" height="32"><g fill="none" fill-rule="evenodd"><path d="M0 0h32v32H0z"/><path fill="#010101" d="M6.28 15.83h-.57l-.14-.09V18c-2 .89-3.8 2.43-2.43 3.78.14.115.304.197.48.24a1.054 1.054 0 0 1-.62-.88c0-1.17 2-2.38 3-2.77v-2a7.753 7.753 0 0 0 7.22-1.13c.095.227.133.474.11.72h.41a1.423 1.423 0 0 0-.315-1.093 1.44 1.44 0 0 0-1.015-.517c.2.147.38.322.53.52h-.06a6.98 6.98 0 0 1-2.92 1.202 6.982 6.982 0 0 1-3.15-.202l1.63-1.6L8 13.24a59.089 59.089 0 0 1 10.42-2.76l-1-.82.52-.32c2.69.75 4.45 1.3 4.35 2.71A1.748 1.748 0 0 0 22.2 11c-.51-1.17-2.54-1.42-4.37-2.07l-1.08.62.66.62A52.88 52.88 0 0 0 7.32 13l.51 1.33-1.55 1.5z"/><path fill="#F26722" d="M18.78 20c1.77-2.34 5.1-5.6 5.21-7.91.21-3-2.85-4-6-4a19.64 19.64 0 0 0-6 1.2 20.145 20.145 0 0 0-10.78 8.13C-1 20.7-.29 23.83 4.43 23.93a18.92 18.92 0 0 0 8.43-2.38s-6.79 1.92-9.28.5a1.208 1.208 0 0 1-.48-.24c-1.37-1.35.39-2.89 2.43-3.78v-2.56c.232.154.484.276.75.36l1.55-1.54L7.32 13a52.986 52.986 0 0 1 10.09-2.8l-.66-.62 1.08-.62c1.83.65 3.86.9 4.37 2.07.136.337.164.707.08 1.06a3.47 3.47 0 0 1-.28.81 34.456 34.456 0 0 1-4 5.1 20.247 20.247 0 0 0-1.66 2.07 3.626 3.626 0 0 0-.77 1.93c0 4.63 13.78-2.16 16.43-4a39.122 39.122 0 0 1-12.81 3.6c-1.29.03-1.19-.6-.41-1.6z"/></g></svg>