<svg width="32" height="32" viewBox="0 0 32 32" fill="none" xmlns="http://www.w3.org/2000/svg">
<path d="M0 16C0 7.16344 7.16344 0 16 0C24.8366 0 32 7.16344 32 16C32 24.8366 24.8366 32 16 32C7.16344 32 0 24.8366 0 16Z" fill="#F2F3F4"/>
<path d="M16.8781 9.75285C16.9293 9.65344 16.9707 9.57291 17.0129 9.5664V9.56643C17.0546 9.55964 17.1097 9.63096 17.1651 9.7026C17.2234 9.77794 17.2819 9.85363 17.3253 9.83919C17.3621 9.82665 17.4047 9.77513 17.4507 9.71961C17.5173 9.63914 17.5909 9.55026 17.6635 9.55947C17.7159 9.56643 17.924 9.98309 17.924 9.98309C19.3874 10.0555 21.15 11.6121 21.7524 12.1441C21.8403 12.2217 21.9035 12.2775 21.9374 12.3037C21.9568 12.3188 21.9858 12.3445 22.0244 12.3787C22.2405 12.5705 22.759 13.0309 23.6009 13.3999C24.009 13.579 24.4187 13.6559 24.799 13.6277C25.306 13.5913 25.8732 13.146 26.222 12.5396C26.3392 12.336 26.4384 12.092 26.5451 11.8294C26.8364 11.1129 27.1838 10.2581 28.1075 9.70992C28.2841 9.60526 28.6844 9.37095 28.9159 9.66619C29.1019 9.9054 28.9486 10.3 28.7544 10.4893C28.6317 10.6087 28.4092 10.7293 27.9868 10.9285C27.8433 10.9972 27.6094 11.1718 27.5182 11.243C27.0729 11.5825 26.7478 12.3467 26.3897 13.1887L26.3721 13.2302C26.3721 13.2302 26.2163 13.6522 25.5297 14.1057C25.4391 14.1646 25.4841 14.2168 25.5687 14.3149C25.5917 14.3416 25.6177 14.3717 25.6446 14.4063C25.8061 14.6201 26.13 15.4911 26.0883 16.8168C26.0826 17.008 26.1444 17.1114 26.2251 17.2466C26.2438 17.2779 26.2636 17.3109 26.2837 17.3471C26.3601 17.4835 26.4668 17.5515 26.5654 17.6143C26.7072 17.7045 26.8325 17.7842 26.8272 18.0415C26.8205 18.3503 26.9378 18.5309 27.0298 18.6724C27.112 18.799 27.174 18.8942 27.1085 19.022C27.0277 19.1788 27.0336 19.3319 27.0395 19.4849C27.0411 19.5239 27.0426 19.5628 27.0426 19.6019C27.0426 19.6183 27.0442 19.636 27.0457 19.654C27.0532 19.7427 27.0614 19.8389 26.8942 19.8305C26.0821 19.7812 26.1254 18.7052 26.1413 18.3125L26.1419 18.2974C26.1549 18.2472 26.1173 18.1572 26.1107 18.1531C26.0699 18.1233 25.5575 17.725 25.5236 17.691C24.9012 17.0581 24.4907 16.4893 24.2617 15.9045C24.11 15.5148 23.9538 15.1309 23.6867 14.8839C23.3874 14.6107 23.0206 14.457 22.6988 14.4554C20.8427 14.4457 20.1823 13.7836 19.6668 13.2667C19.5467 13.1463 19.4344 13.0337 19.3167 12.9391C19.2979 12.9252 19.2407 12.8929 19.208 12.8904C19.1824 12.8923 19.1609 12.915 19.1423 12.9346C19.1356 12.9417 19.1293 12.9483 19.1233 12.9534C18.8829 13.2053 18.6408 13.2875 18.3153 13.2875C17.8799 13.2875 17.426 13.0727 17.0862 12.9119C16.8226 12.7871 16.6277 12.6949 16.5635 12.7608C16.518 12.8087 16.5071 12.8771 16.4963 12.9441C16.4806 13.0422 16.4653 13.1375 16.3431 13.1616C16.0458 13.2213 15.7379 12.9277 15.7625 12.6786C15.807 12.2333 16.263 12.1029 16.6625 12.0575C16.926 12.0295 17.1504 12.0812 17.2624 12.1071C17.2912 12.1137 17.3126 12.1186 17.3253 12.1201C17.5098 12.1458 17.542 11.9226 17.5118 11.7786C17.4797 11.6325 17.3502 11.5945 17.2091 11.553C17.1994 11.5501 17.1896 11.5472 17.1798 11.5443C17.082 11.5152 16.9786 11.5442 16.8823 11.5713C16.7962 11.5955 16.7159 11.618 16.6506 11.5958C16.5442 11.5576 16.502 11.5089 16.4476 11.4458C16.4193 11.413 16.3877 11.3764 16.3419 11.3354C16.2911 11.2912 16.2379 11.2566 16.1883 11.2244C16.0707 11.1478 15.9729 11.0842 15.9735 10.9367C15.9735 10.8296 16.0453 10.7767 16.1209 10.721C16.1826 10.6756 16.2468 10.6282 16.2769 10.5482C16.2939 10.504 16.3001 10.4588 16.3057 10.4179C16.3114 10.3764 16.3164 10.3393 16.3317 10.3119C16.3773 10.2285 16.446 10.1953 16.519 10.16C16.5735 10.1337 16.6303 10.1062 16.6817 10.0559C16.7645 9.97375 16.8263 9.8536 16.8781 9.75285Z" fill="black"/>
<path d="M9.33852 21.3999C9.33852 21.5601 9.47263 21.6898 9.63048 21.6935C9.78912 21.6898 9.92325 21.5601 9.92325 21.3999L9.9249 16.1691H11.6472V21.9351C11.6472 22.2177 11.4211 22.4483 11.1381 22.4483H8.12485C7.84393 22.4483 7.61496 22.2177 7.61496 21.9351V16.1691H9.33893L9.33852 21.3999Z" fill="black"/>
<path d="M12.7934 16.1691H18.0123C18.321 16.1691 18.5729 16.4201 18.5729 16.7321V22.4483H16.8473V17.2048C16.8461 17.0442 16.7144 16.917 16.5549 16.917C16.3942 16.917 16.265 17.0413 16.2629 17.2003V22.4483H14.5443V17.2004C14.5406 17.0413 14.4114 16.917 14.2503 16.917C14.09 16.917 13.96 17.0442 13.9587 17.2049V22.4483H12.2332V16.7321C12.2332 16.4201 12.4847 16.1691 12.7934 16.1691Z" fill="black"/>
<path fill-rule="evenodd" clip-rule="evenodd" d="M4.72315 20.8703H6.46469C6.77752 20.8703 7.02979 20.618 7.02979 20.3048V16.7346C7.02979 16.4218 6.78691 16.1691 6.47576 16.1691H3V22.4483H4.72315V20.8703ZM5.01592 16.917C5.16682 16.917 5.30911 17.0413 5.30788 17.2159V19.7982C5.30914 19.9719 5.16805 20.093 5.01592 20.093H4.72315V16.917H5.01592Z" fill="black"/>
<path fill-rule="evenodd" clip-rule="evenodd" d="M24.653 22.1514H24.8587L24.572 21.7789L24.5843 21.7744C24.6894 21.7438 24.7646 21.6411 24.7646 21.5254C24.7646 21.352 24.6371 21.2612 24.397 21.2612H24.2204V22.1514H24.3884V21.7994L24.653 22.1514ZM24.6003 21.5275C24.6003 21.6125 24.5373 21.655 24.4175 21.655H24.3884V21.413H24.4228C24.5393 21.413 24.6003 21.4518 24.6003 21.5275Z" fill="black"/>
<path fill-rule="evenodd" clip-rule="evenodd" d="M24.4972 22.4773C24.9204 22.4773 25.2623 22.1306 25.2623 21.7041C25.2623 21.2727 24.9204 20.9316 24.4845 20.9316C24.0695 20.9316 23.726 21.2833 23.726 21.7041C23.726 22.133 24.0695 22.4773 24.4972 22.4773ZM23.8491 21.7061C23.8491 21.3434 24.1398 21.0441 24.4862 21.0441H24.4972C24.8517 21.0441 25.1388 21.3426 25.1388 21.7061C25.1388 22.0701 24.8517 22.3669 24.4972 22.3669C24.1398 22.3669 23.8491 22.0701 23.8491 21.7061Z" fill="black"/>
<path fill-rule="evenodd" clip-rule="evenodd" d="M21.466 20.872V22.4483L23.1891 22.4483V16.7322C23.1891 16.4201 22.9376 16.1691 22.6281 16.1691H19.7183C19.4095 16.1691 19.1581 16.4201 19.1581 16.7322V22.4483H20.8804V20.872H21.466ZM21.466 17.2028V20.0942H20.8804V17.2073C20.8816 17.0478 21.0133 16.9203 21.1724 16.9203C21.3331 16.9203 21.4619 17.0429 21.466 17.2028Z" fill="black"/>
</svg>
