<svg xmlns="http://www.w3.org/2000/svg" width="32" height="32" viewBox="0 0 32 32">
    <g fill="none" fill-rule="evenodd">
        <g>
            <g>
                <g>
                    <g>
                        <g>
                            <g>
                                <g>
                                    <path d="M0 0H32V32H0z" transform="translate(-911 -2883) translate(0 1273) translate(324 458) translate(0 728) translate(131 24) translate(440 384) translate(16 16)"/>
                                    <g fill="#ED1C24" fill-rule="nonzero">
                                        <path d="M30.074 4.838V2.705h-.714v-.7h.714V.762h.764v1.246h1v.7h-1V4.78c0 .457.191.664.548.664.12.006.239-.017.348-.066l.266.656c-.195.08-.404.116-.614.108-.177.021-.356.002-.524-.056-.168-.058-.321-.153-.447-.279-.126-.125-.223-.278-.282-.445-.059-.168-.079-.347-.059-.524zm-4.923-.8c-.016-.274.024-.549.116-.807.093-.259.236-.496.422-.698.186-.202.41-.365.66-.479.25-.113.52-.176.795-.183.279-.007.556.046.812.155.257.109.487.271.676.476.188.206.331.449.418.714.087.265.116.545.086.822 0 .058-.008.141-.008.141h-3.213c-.003.173.029.345.093.505.063.16.159.307.28.43.12.124.265.223.424.29.16.067.33.102.503.103.235.014.47-.046.669-.172.2-.125.355-.31.444-.528L29 5.1c-.148.344-.398.634-.715.833-.317.199-.687.296-1.061.28-.282.004-.561-.05-.821-.158-.26-.108-.495-.269-.69-.472-.195-.204-.346-.445-.443-.71-.097-.264-.139-.546-.122-.827l.003-.008zm1.976-1.47c-.277.004-.544.104-.756.283-.212.178-.355.425-.406.697h2.358c-.031-.287-.174-.55-.398-.733-.224-.183-.51-.27-.798-.243v-.004zm-5.719 2.94h-.033v.563h-.731V.132h.764v1.876l-.033.564h.033c.154-.223.362-.404.604-.526s.511-.182.782-.174c.544.031 1.053.277 1.416.683s.55.94.519 1.484c.03.544-.156 1.077-.52 1.484-.362.406-.871.651-1.415.682-.27.009-.539-.05-.78-.171-.243-.122-.45-.301-.606-.523v-.004zm2.557-1.47c.023-.184.006-.37-.048-.547-.055-.176-.146-.34-.269-.478-.122-.139-.273-.25-.442-.326-.168-.076-.351-.115-.536-.115-.185 0-.368.04-.537.115-.168.076-.319.187-.441.326-.123.139-.214.302-.269.478-.054.177-.07.363-.048.547-.023.184-.006.37.048.547.055.176.146.34.269.478.122.139.273.25.442.326.168.076.351.115.536.115.185 0 .368-.039.536-.115.17-.076.32-.187.442-.326.123-.138.214-.301.269-.478.054-.177.07-.363.048-.547zm-7.72.8c0-.922.83-1.42 1.785-1.42.381-.008.76.078 1.1.25V3.56c-.019-.234-.114-.455-.27-.63-.156-.175-.365-.294-.596-.34-.23-.045-.469-.014-.68.09-.21.102-.382.27-.488.48l-.7-.3c.14-.314.375-.577.67-.754.296-.177.639-.258.982-.234.237-.02.475.011.7.091.223.08.428.206.599.371.171.165.305.365.393.586.088.22.128.458.117.695v2.457h-.73v-.564H19.1c-.144.222-.342.403-.577.526-.234.123-.496.183-.76.174-.19.017-.383-.005-.564-.065-.182-.06-.349-.157-.491-.285-.143-.128-.257-.283-.337-.457-.08-.174-.122-.363-.126-.554v-.009zm2.889-.523c-.287-.191-.628-.284-.972-.266-.8 0-1.12.432-1.12.8 0 .432.448.648.847.648.317-.004.62-.127.85-.344.231-.217.372-.513.395-.829v-.009zM12.783 2l-.033.564h.033c.14-.214.33-.39.555-.512.225-.123.476-.187.732-.188.22-.01.44.029.644.113.204.085.386.214.534.377.149.163.26.357.324.568.065.211.082.434.051.652v2.49h-.764V3.7c0-.847-.424-1.129-1.005-1.129-.308.025-.594.17-.795.405-.2.236-.3.54-.276.85v2.248h-.763V.132h.763v1.876V2zM8.127 5.5h-.033l.033.564v1.793h-.764v-5.86h.731v.564h.033c.154-.223.362-.404.604-.526s.511-.182.782-.174c.544.031 1.053.277 1.415.683.363.407.55.94.519 1.484.03.544-.156 1.077-.519 1.483-.363.406-.872.652-1.415.683-.27.01-.537-.047-.779-.166-.242-.12-.45-.296-.607-.516V5.5zm2.557-1.469c.023-.184.006-.37-.048-.547-.055-.176-.146-.34-.269-.478-.122-.139-.273-.25-.442-.326-.168-.076-.351-.115-.536-.115-.185 0-.368.04-.537.115-.168.076-.319.187-.441.326-.123.139-.214.302-.269.478-.054.177-.07.363-.048.547-.023.184-.006.37.048.547.055.176.146.34.269.478.122.139.273.25.441.326.17.076.352.115.537.115.185 0 .368-.039.537-.115.168-.076.319-.187.441-.326.123-.138.214-.301.269-.478.054-.177.07-.363.048-.547zm-4.9 2.033h.766V.133h-.764l-.002 5.93zM2.241.133L0 6.074h.847l.581-1.61h2.5l.572 1.61h.847L3.105.132h-.864zm.415.937h.034l.971 2.681H1.685l.971-2.68z" transform="translate(-911 -2883) translate(0 1273) translate(324 458) translate(0 728) translate(131 24) translate(440 384) translate(16 16) translate(0 12)"/>
                                    </g>
                                </g>
                            </g>
                        </g>
                    </g>
                </g>
            </g>
        </g>
    </g>
</svg>
