<svg xmlns="http://www.w3.org/2000/svg" width="32" height="32" viewBox="0 0 32 32">
    <g fill="none" fill-rule="evenodd">
        <g>
            <g>
                <g>
                    <g>
                        <g>
                            <g>
                                <g>
                                    <path d="M0 0H32V32H0z" transform="translate(-471 -2947) translate(0 1273) translate(324 458) translate(0 728) translate(131 24) translate(0 448) translate(16 16)"/>
                                    <g fill="#6DA5D9">
                                        <path d="M11.19 0v5.168h-.65C9.98 2.63 8.778.72 7.12.63 6.63.61 6.146.74 5.732 1c-.413.261-.734.641-.92 1.088-.665 1.953-.945 4.013-.824 6.069-.056 1.94.066 3.88.366 5.798.072.437.293.837.628 1.134.335.296.764.471 1.214.495.257.026.518-.01.759-.104.24-.094.455-.243.624-.436.425-.713.62-1.535.56-2.359v-2.45c.043-.325-.004-.656-.134-.958-.13-.302-.34-.565-.609-.76-.391-.125-.793-.215-1.2-.27v-.64h5.168v12.996h-.651c-.194-.882-.501-1.735-.916-2.54-.236-.507-.611-.94-1.084-1.248-.473-.31-1.024-.483-1.591-.501-.32-.05-.645-.03-.956.057-.31.086-.599.238-.844.444-.246.206-.443.462-.578.75-.136.288-.206.601-.207.918 0 1.82 1.11 2.27 3.134 3.36 2.025 1.089 4.426 1.999 4.426 5.158C12.096 30.16 9.43 32 6.378 32H1.494v-6.258h.641c.835 4.709 2.86 5.518 4.243 5.518.354.031.711-.016 1.044-.138.334-.122.635-.316.883-.567.247-.25.435-.553.549-.884.113-.331.15-.683.108-1.03-.091-2-1.475-2.72-3.408-3.719-2.768-1.54-4.07-2.27-4.07-4.808.092-2.17 1.842-3.53 3.785-4.069-4.07-.46-5.26-4.079-5.168-7.998C.192 4.13 2.42 0 6.938 0h4.252z" transform="translate(-471 -2947) translate(0 1273) translate(324 458) translate(0 728) translate(131 24) translate(0 448) translate(16 16) translate(10)"/>
                                    </g>
                                </g>
                            </g>
                        </g>
                    </g>
                </g>
            </g>
        </g>
    </g>
</svg>
