<svg xmlns="http://www.w3.org/2000/svg" xmlns:xlink="http://www.w3.org/1999/xlink" width="32" height="32" viewBox="0 0 32 32">
    <defs>
        <path id="8rvsrs416a" d="M0 0H32V32H0z"/>
    </defs>
    <g fill="none" fill-rule="evenodd">
        <g>
            <g>
                <g>
                    <g>
                        <g>
                            <g>
                                <g transform="translate(-691 -3011) translate(0 1273) translate(324 458) translate(0 728) translate(131 24) translate(220 512) translate(16 16)">
                                    <mask id="tkw1zdoa0b" fill="#fff">
                                        <use xlink:href="#8rvsrs416a"/>
                                    </mask>
                                    <path fill="#EB1D25" fill-rule="nonzero" d="M.478 18.392c0 .261.163.294.294.23.213-.171.353-.417.39-.687.102-.495.102-1.005 0-1.5-.468.542-.713 1.242-.684 1.958zm.653-2.218c-.068-.322-.101-.65-.1-.979-.057-.425-.034-.857.069-1.273.095-.271.215-.534.359-.783-.23.114-.432.275-.595.471-.163.197-.282.426-.351.672-.086.372-.096.757-.03 1.132.067.376.209.734.417 1.054l.13-.13c.033-.066.066-.1.1-.164zm.456-.26c.098.62.054 1.257-.13 1.86-.12.443-.37.84-.718 1.14-.424.261-.685-.2-.587-.717.12-.573.354-1.117.685-1.6-.395-.285-.674-.701-.787-1.174-.114-.473-.055-.971.167-1.404.138-.273.342-.508.592-.684.25-.176.54-.288.844-.327.032 0 .065 0 .065.033-.2.473-.279.989-.23 1.5.001.395.045.79.132 1.175.1-.1.294-.26.489-.424.268-.18.566-.313.88-.392-.13.112-.233.253-.3.411-.068.159-.1.33-.09.502 0 .784.718.718.946.392.069-.153.103-.32.1-.489-.033 0-.49.065-.685-.229-.163-.228 0-.685.489-.522.294.066.359.555.359.555.1-.033.163-.065.26-.1.099-.035.164-.1.262-.13v-.979c.011-.225.073-.444.18-.641.107-.198.257-.369.44-.5.326-.2.619.13.456.717-.151.425-.372.821-.652 1.174v1.077s.489-.913.555-1.01c.26-.327.652-.262.652.162 0 .424-.1.653-.1 1.011 0 .131.1.131.13.1.262-.359.458-.783.75-1.24.262-.424.62-.293.589.1v.783c0 .065.064.033.064 0 .13-.228.391-.652.555-.946.196-.326.588-.2.588.228 0 .36-.034.588-.067.98 0 .1.066.1.1.032.27-.372.51-.765.719-1.175.065-.1.13-.228.162-.228.034-.066.1-.033.1 0 .02.056.041.11.066.163.056.192.133.378.228.555.034 0 .425-.294.718-.424.234-.159.502-.26.782-.294-.125.104-.228.233-.3.38-.074.145-.116.305-.123.468 0 .75.586.848.88.62.097-.097.169-.216.209-.346.04-.131.047-.27.02-.404 0 0-.522.2-.75-.2-.164-.26.1-.588.49-.49.227.066.39.424.39.424s.425-.26.62-.39c.36-.164.49 0 .49.325-.033.326-.066.816-.066.816s.393-.686.588-.946c.392-.523.62-.066.62.163-.044.346-.066.695-.066 1.044.003.014.008.028.017.04.008.011.02.02.032.027.013.006.027.01.041.01.015-.001.029-.005.042-.012.065-.026.122-.072.163-.13.032-.033.13-.033.1.032-.077.2-.214.371-.392.49-.044.033-.098.051-.153.054-.056.003-.11-.01-.16-.037-.047-.028-.087-.069-.112-.118-.026-.05-.037-.105-.032-.16 0-.1.034-.914.066-1.109 0-.066-.066-.13-.13-.066-.274.426-.514.874-.718 1.338-.1.163-.392.163-.392-.065 0-.49.034-.784.034-1.273.033-.13-.034-.163-.132-.13-.228.163-.39.261-.39.261.022.197.005.397-.051.588-.056.19-.15.367-.275.521-.095.085-.208.147-.33.182-.122.035-.25.042-.376.02-.125-.022-.244-.072-.347-.146-.103-.075-.187-.172-.248-.284-.073-.18-.102-.374-.085-.567.018-.193.081-.38.185-.543-.145.033-.28.102-.392.2-.15.068-.283.169-.39.294.032 0 .293.717-.066.98-.392.227-.685 0-.685-.262.015-.11.052-.214.108-.31.056-.095.13-.178.219-.244 0-.033-.066-.164-.1-.262l-.1-.2c0 .032-.588.946-.653 1.076-.326.457-.62.23-.62-.032-.033-.326.066-.816.032-1.077 0-.1-.033-.1-.1-.032-.293.456-.359.717-.718 1.272-.1.131-.39.228-.39-.1.031-.457.031-.718.031-1.174 0-.033-.032-.1-.064-.033-.327.391-.555 1.011-.816 1.273-.293.293-.554.13-.522-.13 0-.458 0-.718.033-1.143 0-.1-.066-.13-.13-.032-.263.422-.482.87-.653 1.337-.1.23-.424.163-.424-.13.032-.49.032-1.142.032-1.142-.08.057-.168.1-.261.13-.074.04-.15.073-.228.1 0 .033.065.816-.522 1.077-.112.059-.236.09-.362.09-.126.002-.25-.028-.363-.086-.112-.057-.208-.141-.281-.244-.073-.103-.12-.222-.136-.347-.066-.24-.042-.494.066-.718-.117.054-.226.121-.327.2-.131.1-.2.161-.327.26h-.008zm1.8-.817c-.043-.014-.089-.015-.132 0-.042.013-.08.04-.105.077-.026.037-.039.081-.037.126.001.045.017.088.046.123.13.163.456.131.456.131.033-.033 0-.392-.228-.457zm8.287 0c-.044-.006-.09.002-.128.024-.039.02-.07.054-.088.095-.018.04-.024.085-.014.128.01.044.032.083.065.112.073.046.156.072.242.078.085.005.17-.01.248-.046 0 0-.1-.326-.325-.39zM5.176 13.63c0-.229-.13-.49-.294-.163-.111.437-.155.887-.13 1.337.274-.33.424-.745.424-1.174zm4.175 2.9c-.032.262.2.23.261.066.066-.13-.065-.457-.065-.457-.06.045-.111.104-.146.172-.034.068-.053.143-.053.22h.003zM17.64 18.392c.032.261.162.294.293.23.214-.17.354-.416.391-.687.121-.493.121-1.007 0-1.5-.469.542-.714 1.242-.685 1.958zm.651-2.218c-.067-.322-.1-.65-.1-.979-.062-.426-.027-.861.1-1.273.067-.282.19-.548.36-.783-.235.112-.443.27-.611.467-.17.197-.295.427-.369.675-.077.374-.08.76-.007 1.136.073.375.22.732.431 1.05.025-.049.06-.093.1-.13.033-.065.066-.1.1-.163h-.004zm2.252-1.074c-.042-.014-.088-.014-.13 0-.043.014-.08.041-.106.078-.025.036-.039.08-.037.125 0 .045.016.088.044.123.13.163.457.131.457.131.033-.033 0-.392-.228-.457zm8.286 0c-.044-.006-.089.002-.128.023-.04.021-.07.055-.089.095-.018.04-.023.086-.013.13.01.043.033.082.067.111.073.046.155.072.241.078.086.006.171-.01.25-.046 0 0-.1-.326-.328-.39zm-6.492-1.468c0-.229-.13-.49-.294-.163-.11.437-.155.887-.13 1.337.274-.33.425-.745.424-1.174zm4.176 2.9c-.033.262.228.23.294.066.065-.13-.1-.457-.1-.457-.061.045-.111.104-.146.172-.035.068-.053.143-.054.22h.006zM16.4 16.206c-.122-.175-.292-.31-.489-.392-.26-.065-.392.23-.13.36.094.048.199.077.306.082.106.006.213-.011.313-.05zm2.251-1.664c.033.457.131 1.142.131 1.175.1-.1.293-.26.49-.424.268-.18.566-.313.88-.392-.13.113-.233.253-.301.411-.068.159-.098.33-.09.502.032.784.717.718.945.392.07-.154.103-.32.1-.489-.032 0-.489.065-.685-.229-.163-.228 0-.685.49-.522.294.066.391.555.391.555.074-.04.15-.073.23-.1.1-.033.162-.1.26-.13v-.979c.011-.224.073-.443.18-.64.108-.199.258-.37.44-.502.325-.2.652.131.456.718-.15.425-.37.822-.652 1.174v1.077s.49-.913.554-1.01c.262-.327.653-.262.653.162 0 .424-.1.653-.1 1.011 0 .131.1.131.13.1.261-.359.457-.783.751-1.24.261-.424.62-.293.587.1v.783c0 .065.065.033.065 0 .13-.228.391-.652.555-.946.2-.326.587-.2.587.228 0 .36-.033.588-.066.98 0 .1.066.1.1.032.27-.372.51-.765.717-1.175.065-.1.13-.228.163-.228.032-.066.1-.033.1 0 .019.056.04.11.065.163.057.193.134.379.23.555.032 0 .423-.294.716-.424.24-.148.506-.248.783-.294-.23.225-.37.527-.39.848-.034.75.553.848.847.62.103-.092.179-.21.22-.343.04-.132.043-.273.01-.407 0 0-.523.2-.752-.2-.13-.26.1-.588.49-.49.228.066.392.424.392.424s.424-.26.652-.39c.326-.164.457 0 .457.325-.032.326-.065.816-.065.816s.391-.686.587-.946c.391-.523.62-.066.62.163-.047.346-.072.695-.074 1.044 0 .065.1.1.163.065.08-.064.147-.14.2-.228.066-.065.163-.033.13.033-.112.233-.28.435-.489.587-.045.033-.098.052-.154.054-.055.003-.11-.01-.159-.037-.048-.028-.087-.069-.113-.118-.025-.049-.036-.105-.03-.16 0-.1.032-.914.065-1.109 0-.066-.066-.13-.13-.066-.276.426-.516.874-.719 1.338-.1.163-.39.163-.39-.065.032-.49.032-.784.064-1.273 0-.13-.065-.163-.163-.13-.228.163-.39.261-.39.261.022.197.005.397-.051.588-.056.19-.15.367-.276.521-.095.085-.207.147-.33.182-.122.035-.25.042-.375.02-.126-.022-.244-.072-.347-.146-.103-.075-.188-.172-.248-.284-.073-.18-.103-.374-.085-.567.017-.193.08-.38.185-.543-.145.033-.28.102-.39.2-.147.06-.272.162-.36.294 0 0 .261.717-.1.98-.392.227-.685 0-.685-.262.031-.22.148-.42.325-.554 0-.033-.065-.164-.1-.262l-.1-.2c0 .032-.556.946-.653 1.076-.326.457-.62.23-.62-.032.003-.36.025-.72.065-1.077 0-.1-.065-.1-.13-.032-.294.456-.359.717-.718 1.272-.1.131-.39.228-.39-.1.032-.457.032-.718.032-1.174 0-.033-.033-.1-.066-.033-.326.391-.554 1.011-.816 1.273-.293.293-.554.13-.522-.13 0-.458 0-.718.033-1.143 0-.1-.065-.13-.13-.032-.263.417-.472.867-.62 1.337-.024.051-.066.092-.118.116-.052.023-.11.027-.165.012-.055-.016-.102-.05-.134-.097-.032-.047-.046-.104-.04-.16.033-.49.033-1.143.033-1.143-.08.056-.168.1-.26.13-.074.04-.15.073-.23.1 0 .033.1.816-.522 1.077-.111.059-.235.09-.361.09-.126.001-.25-.029-.362-.086-.112-.058-.209-.142-.281-.245-.073-.102-.12-.221-.137-.346-.049-.24-.026-.49.065-.718-.116.055-.225.122-.326.2-.105.079-.203.166-.294.261.07.625.015 1.257-.163 1.86-.119.444-.369.841-.717 1.141-.424.261-.685-.2-.587-.717.121-.573.354-1.116.686-1.599-.072-.1-.164-.184-.271-.246-.107-.062-.226-.1-.349-.113-.237-.038-.48.008-.685.131-.018.123-.052.243-.1.358 0 .066-.1.131-.1 0 0-.13-.032-.326 0-.326 0 0-.815.163-1.14-.2-.229-.228 0-.554.456-.522.236.04.453.155.62.326 0-.032-.066-.228-.1-.39-.032-.084-.076-.16-.13-.23l.293-.162c.069.135.124.277.163.424.027.172.038.347.033.521.128-.035.26-.056.392-.065.152-.016.305-.016.456 0-.24-.289-.384-.644-.413-1.018-.029-.374.058-.748.25-1.07.147-.266.353-.495.602-.67.248-.176.533-.293.833-.342.032 0 .065 0 .032.033-.16.483-.228.992-.2 1.5l.01.003z" mask="url(#tkw1zdoa0b)"/>
                                </g>
                            </g>
                        </g>
                    </g>
                </g>
            </g>
        </g>
    </g>
</svg>
