<svg xmlns="http://www.w3.org/2000/svg" width="32" height="32" viewBox="0 0 32 32">
    <g fill="none" fill-rule="evenodd">
        <g>
            <g>
                <g>
                    <g>
                        <g>
                            <g>
                                <g>
                                    <path d="M0 0H32V32H0z" transform="translate(-471 -3011) translate(0 1273) translate(324 458) translate(0 728) translate(131 24) translate(0 512) translate(16 16)"/>
                                    <g fill-rule="nonzero">
                                        <path fill="#00AAE8" d="M2.519 0.189L0 0.189 0 2.715 2.519 2.715z" transform="translate(-471 -3011) translate(0 1273) translate(324 458) translate(0 728) translate(131 24) translate(0 512) translate(16 16) translate(0 9)"/>
                                        <path fill="#000" d="M2.456 13.35V4.252H.07v9.098h2.385zm15.847.09v-2.23c-.35 0-.645-.018-.86-.054-.251-.036-.44-.126-.565-.252-.125-.125-.206-.305-.251-.539-.036-.225-.054-.521-.054-.88V6.301h1.73v-2.05h-1.73V.702H14.18v8.8c0 .746.063 1.375.188 1.879.126.494.34.899.637 1.205.295.305.69.521 1.165.656.484.135 1.093.198 1.82.198h.313zM32 13.35V0h-2.394v13.35H32zM11.876 5.142c-.663-.72-1.595-1.079-2.778-1.079-.574 0-1.094.117-1.569.35-.466.235-.87.558-1.183.972l-.135.17V4.254H3.854v9.097h2.375V8.504v.171c.027-.854.233-1.483.628-1.888.421-.431.932-.647 1.515-.647.69 0 1.219.216 1.568.63.34.413.52.997.52 1.743V13.341h2.411V8.18c.01-1.295-.331-2.32-.995-3.039zm16.493 3.64c0-.655-.116-1.267-.34-1.842-.233-.566-.556-1.07-.96-1.501-.412-.432-.905-.764-1.478-1.007-.574-.243-1.21-.36-1.9-.36-.655 0-1.273.126-1.847.369-.574.252-1.076.584-1.497 1.007-.421.422-.762.926-1.004 1.501-.251.575-.367 1.196-.367 1.852 0 .656.116 1.276.35 1.852.232.575.564 1.079.976 1.501.412.423.923.764 1.515 1.007.591.252 1.246.378 1.945.378 2.026 0 3.28-.926 4.034-1.79l-1.721-1.312c-.359.431-1.22 1.016-2.295 1.016-.672 0-1.228-.153-1.65-.468-.42-.305-.707-.737-.86-1.267l-.027-.081h7.126v-.854zm-7.108-.835c0-.665.762-1.825 2.402-1.834 1.64 0 2.412 1.16 2.412 1.825l-4.814.009z" transform="translate(-471 -3011) translate(0 1273) translate(324 458) translate(0 728) translate(131 24) translate(0 512) translate(16 16) translate(0 9)"/>
                                    </g>
                                </g>
                            </g>
                        </g>
                    </g>
                </g>
            </g>
        </g>
    </g>
</svg>
