<svg xmlns="http://www.w3.org/2000/svg" width="32" height="32" viewBox="0 0 32 32">
    <g fill="none" fill-rule="evenodd">
        <g>
            <g>
                <g>
                    <g>
                        <g>
                            <g>
                                <g>
                                    <path d="M0 0H32V32H0z" transform="translate(-471 -2627) translate(0 1273) translate(324 458) translate(0 728) translate(131 24) translate(0 128) translate(16 16)"/>
                                    <g>
                                        <path fill="#010101" d="M6.28 7.83h-.57l-.14-.09V10c-2 .89-3.8 2.43-2.43 3.78.14.115.304.197.48.24-.173-.078-.321-.2-.43-.355-.11-.155-.175-.336-.19-.525 0-1.17 2-2.38 3-2.77v-2c1.204.42 2.492.537 3.752.34 1.259-.198 2.45-.703 3.468-1.47.095.227.133.474.11.72h.41c.025-.194.01-.391-.045-.58-.054-.188-.146-.363-.27-.513-.126-.152-.28-.275-.454-.364-.175-.089-.366-.141-.561-.153.2.147.38.322.53.52h-.06c-.869.618-1.867 1.03-2.92 1.202-1.051.174-2.129.105-3.15-.202l1.63-1.6L8 5.24c3.382-1.235 6.87-2.16 10.42-2.76l-1-.82.52-.32c2.69.75 4.45 1.3 4.35 2.71.079-.351.047-.718-.09-1.05-.51-1.17-2.54-1.42-4.37-2.07l-1.08.62.66.62C13.961 2.777 10.581 3.725 7.32 5l.51 1.33-1.55 1.5z" transform="translate(-471 -2627) translate(0 1273) translate(324 458) translate(0 728) translate(131 24) translate(0 128) translate(16 16) translate(0 8)"/>
                                        <path fill="#F26722" d="M18.78 12c1.77-2.34 5.1-5.6 5.21-7.91.21-3-2.85-4-6-4-2.05.084-4.075.489-6 1.2C7.568 2.68 3.76 5.551 1.21 9.42-1 12.7-.29 15.83 4.43 15.93c2.957-.123 5.845-.938 8.43-2.38 0 0-6.79 1.92-9.28.5-.176-.043-.34-.125-.48-.24-1.37-1.35.39-2.89 2.43-3.78V7.47c.232.154.484.276.75.36l1.55-1.54L7.32 5c3.262-1.264 6.642-2.202 10.09-2.8l-.66-.62 1.08-.62c1.83.65 3.86.9 4.37 2.07.136.337.164.707.08 1.06-.06.28-.153.553-.28.81-1.17 1.822-2.51 3.53-4 5.1-.598.653-1.153 1.345-1.66 2.07-.44.555-.707 1.226-.77 1.93 0 4.63 13.78-2.16 16.43-4-4.033 1.923-8.366 3.14-12.81 3.6-1.29.03-1.19-.6-.41-1.6z" transform="translate(-471 -2627) translate(0 1273) translate(324 458) translate(0 728) translate(131 24) translate(0 128) translate(16 16) translate(0 8)"/>
                                    </g>
                                </g>
                            </g>
                        </g>
                    </g>
                </g>
            </g>
        </g>
    </g>
</svg>
