<svg xmlns="http://www.w3.org/2000/svg" width="32" height="32" viewBox="0 0 32 32">
    <g fill="none" fill-rule="evenodd">
        <g>
            <g>
                <g>
                    <g>
                        <g>
                            <g>
                                <g>
                                    <path d="M0 0H32V32H0z" transform="translate(-911 -3331) translate(0 1273) translate(324 458) translate(0 728) translate(131 24) translate(440 832) translate(16 16)"/>
                                    <g fill="#2A2B6D" fill-rule="nonzero">
                                        <path d="M20.94.79c.793-.003 1.58.143 2.32.43L22.9 3.4l-.23-.12c-.612-.262-1.274-.388-1.94-.37-1 0-1.47.39-1.48.87-.01.48.55.78 1.45 1.25 1.5.72 2.18 1.59 2.18 2.74 0 2.09-1.78 3.45-4.5 3.45-.985.002-1.962-.181-2.88-.54l.37-2.26.33.16c.758.373 1.596.555 2.44.53.75 0 1.55-.31 1.55-1 0-.45-.36-.78-1.34-1.26-.98-.48-2.27-1.29-2.27-2.74-.01-1.95 1.8-3.32 4.36-3.32zm5.6 1c.107-.264.298-.485.544-.628.247-.143.534-.2.816-.162h2L32 11.06h-2.4l-.15-.69v-.14c-.06-.27-.11-.53-.14-.67H26c-.1.26-.54 1.5-.54 1.5H22.7l3.84-9.27zM15.48 1l-1.62 10.06h-2.58L12.9 1h2.58zM4.21 1c.267-.028.535.043.752.2.218.156.37.388.428.65l.91 4.63v.05l.27 1.4L9.1 1h2.75l-4.1 10.05H5L2.7 2.29C1.857 1.793.948 1.42 0 1.18V1h4.21zm23.87 2.7c-.07.21-.17.5-.25.7v.09l-.06.17-1 2.82h2.15c-.05-.22-.17-.82-.29-1.41v-.19l-.27-1.31-.28-.87z" transform="translate(-911 -3331) translate(0 1273) translate(324 458) translate(0 728) translate(131 24) translate(440 832) translate(16 16) translate(0 10)"/>
                                    </g>
                                </g>
                            </g>
                        </g>
                    </g>
                </g>
            </g>
        </g>
    </g>
</svg>
