<svg xmlns="http://www.w3.org/2000/svg" width="32" height="32" viewBox="0 0 32 32">
    <g fill="none" fill-rule="evenodd">
        <g>
            <g>
                <g>
                    <g>
                        <g>
                            <g>
                                <g>
                                    <path d="M0 0H32V32H0z" transform="translate(-691 -3075) translate(0 1273) translate(324 458) translate(0 728) translate(131 24) translate(220 576) translate(16 16)"/>
                                    <g fill-rule="nonzero">
                                        <path fill="#000" d="M5.766 24.922v-1.684c0-.632-.373-1.052-1.008-1.057-.374-.024-.73.16-.924.476-.176-.307-.51-.49-.867-.476-.314-.018-.615.131-.788.393v-.326h-.527v2.674h.544v-1.52c-.024-.185.037-.37.164-.508.128-.137.31-.21.499-.202.377 0 .592.253.592.705v1.538h.543v-1.533c-.021-.184.04-.37.167-.506s.309-.21.496-.204c.391 0 .598.253.598.705v1.538l.51-.013zm8.544-2.674h-.954v-.807h-.543v.807h-.543v.487h.543v1.264c0 .619.215.99.888.99.254 0 .502-.071.715-.207l-.166-.476c-.15.093-.324.145-.502.15-.272 0-.402-.177-.402-.446v-1.275h.953l.01-.487zm4.866-.067c-.288-.004-.556.146-.701.393v-.326h-.544v2.674h.544v-1.506c0-.442.206-.727.581-.727.122-.002.243.021.356.067l.177-.503c-.133-.048-.272-.073-.413-.072zm-7.355.269c-.322-.193-.694-.286-1.07-.27-.663 0-1.068.321-1.068.85 0 .437.296.7.883.784l.272.04c.315.043.483.156.483.307 0 .207-.23.341-.619.341-.313.014-.622-.08-.872-.269l-.272.42c.332.232.73.353 1.136.347.758 0 1.173-.358 1.173-.869 0-.468-.317-.71-.893-.807l-.272-.038c-.247-.035-.467-.113-.467-.29 0-.178.209-.331.521-.331.287.006.568.085.815.229l.25-.444zm7.952 1.124c-.025.373.11.739.373 1.006.263.268.628.413 1.005.398.344.016.68-.099.943-.32l-.272-.42c-.194.155-.436.24-.685.243-.467-.05-.82-.442-.82-.907s.353-.856.82-.906c.249.002.49.087.685.24l.272-.418c-.423-.345-1.008-.418-1.504-.188-.496.23-.814.722-.817 1.264v.008zM16.09 22.17c-.768 0-1.295.565-1.295 1.399 0 .834.543 1.41 1.334 1.41.397.015.786-.12 1.086-.377l-.271-.396c-.216.173-.484.267-.761.27-.416.021-.775-.285-.815-.695h1.959v-.223c-.009-.812-.503-1.377-1.237-1.377v-.01zm0 .498c.184-.004.36.066.49.194s.203.302.2.484h-1.426c.02-.38.341-.677.726-.668l.01-.01zm-7.099.906V22.23h-.537v.326c-.205-.252-.52-.39-.845-.374-.734 0-1.294.586-1.294 1.404s.56 1.404 1.294 1.404c.33.014.648-.133.85-.393v.326h.527l.005-1.348zm-2.121 0c-.022-.229.053-.457.208-.629.154-.172.374-.272.607-.277.48 0 .798.387.798.906 0 .52-.317.907-.798.907-.233-.003-.454-.1-.61-.27-.157-.17-.235-.397-.216-.626l.01-.01zm20.237-1.404c-.292-.008-.565.143-.712.393v-.326h-.521v2.674h.527v-1.506c0-.441.209-.727.581-.727.122-.002.243.021.356.068l.177-.503c-.135-.046-.277-.067-.419-.062l.011-.01zm-2.016 1.404V22.23h-.538v.326c-.203-.26-.52-.405-.85-.393-.736 0-1.296.586-1.296 1.404s.56 1.404 1.296 1.404c.33.013.647-.133.85-.392v.325h.527l.011-1.329zm-2.124 0c-.022-.229.053-.457.208-.629.154-.172.374-.272.607-.277.483 0 .815.387.815.906 0 .52-.318.907-.815.907-.233-.003-.453-.1-.61-.27-.157-.17-.235-.397-.216-.626l.01-.01zm7.416 0v-2.42h-.527v1.398c-.203-.259-.52-.405-.85-.393-.736 0-1.296.587-1.296 1.405 0 .817.56 1.404 1.296 1.404.33.012.648-.134.85-.393v.325h.527v-1.326zm-2.124 0c-.022-.229.053-.457.208-.629s.375-.272.607-.277c.484 0 .815.387.815.906 0 .52-.318.907-.815.907-.23-.005-.45-.104-.605-.273-.154-.17-.232-.395-.213-.623l.003-.01z" transform="translate(-691 -3075) translate(0 1273) translate(324 458) translate(0 728) translate(131 24) translate(220 576) translate(16 16) translate(0 3)"/>
                                        <path fill="#FF5F00" d="M20.763 2.094L11.242 2.094 11.242 17.49 20.763 17.49z" transform="translate(-691 -3075) translate(0 1273) translate(324 458) translate(0 728) translate(131 24) translate(220 576) translate(16 16) translate(0 3)"/>
                                        <path fill="#EB001B" d="M12.222 9.793C12.22 6.79 13.612 3.951 16 2.097 11.945-1.058 6.122-.6 2.624 3.152c-3.499 3.751-3.499 9.534 0 13.285 3.498 3.751 9.32 4.21 13.375 1.056-2.387-1.855-3.78-4.695-3.777-7.7z" transform="translate(-691 -3075) translate(0 1273) translate(324 458) translate(0 728) translate(131 24) translate(220 576) translate(16 16) translate(0 3)"/>
                                        <path fill="#F79E1B" d="M32 9.793c0 3.75-2.162 7.169-5.568 8.807-3.405 1.638-7.456 1.207-10.433-1.11 2.386-1.856 3.778-4.694 3.778-7.698 0-3.004-1.392-5.842-3.778-7.698C18.975-.223 23.027-.654 26.432.984 29.838 2.623 32 6.042 32 9.791v.002z" transform="translate(-691 -3075) translate(0 1273) translate(324 458) translate(0 728) translate(131 24) translate(220 576) translate(16 16) translate(0 3)"/>
                                    </g>
                                </g>
                            </g>
                        </g>
                    </g>
                </g>
            </g>
        </g>
    </g>
</svg>
