<svg width="32" height="32" fill="none" xmlns="http://www.w3.org/2000/svg"><path d="M0 16C0 7.163 7.163 0 16 0s16 7.163 16 16-7.163 16-16 16S0 24.837 0 16Z" fill="#F2F3F4"/><path d="m26.015 12.163-3.447 5.044c-.525.758-1.207 1.562-2.234 1.64v.12h2.707c1.175 0 2.017-1.346 2.598-2.19l3.214-4.636-2.838.022Z" fill="url(#a)"/><path fill-rule="evenodd" clip-rule="evenodd" d="M10.993 18.166c.303.49.838.788 1.413.788H14l-4.72-6.813H7.408l-4.554 6.813h1.882l1.014-1.611 4.733-.002.51.825Zm-1.33-1.99h-3.18l1.638-2.399 1.543 2.398Z" fill="#002157"/><path d="m14.508 18.954.004-6.813h7.172l-.003 1.178h-5.17v2.06h5.064v1.265h-5.063v2.31h-2.004Z" fill="#002157"/><defs><linearGradient id="a" x1="25.899" y1="11.521" x2="25.899" y2="19.024" gradientUnits="userSpaceOnUse"><stop offset=".335" stop-color="#FF1E27"/><stop offset=".547" stop-color="#E81B23"/><stop offset=".784" stop-color="#A61319"/><stop offset=".872" stop-color="#9D1225"/><stop offset=".955" stop-color="#931116"/><stop offset="1" stop-color="#800F14"/></linearGradient></defs></svg>