<svg width="32" height="32" fill="none" xmlns="http://www.w3.org/2000/svg"><path d="M0 16C0 7.163 7.163 0 16 0s16 7.163 16 16-7.163 16-16 16S0 24.837 0 16Z" fill="#F2F3F4"/><path d="M11.551 22.084c3.081-.984 7.55-2.873 8.36-5.031.718-1.915-2.05-6.004-4.606-9.114a8.466 8.466 0 0 0-3.754 14.145Z" fill="url(#a)"/><path d="M18.647 18.652c-1.752 1.47-4.807 2.7-7.096 3.432a8.436 8.436 0 0 0 5.987 2.482 8.455 8.455 0 0 0 7.06-3.796c-2.033.647-4.299-.599-5.951-2.118Z" fill="url(#b)"/><path d="M24.598 20.77c-2.034.647-4.299-.599-5.951-2.118.605-.508 1.055-1.045 1.263-1.6.162-.43.147-.97-.002-1.584.48-.196 1.006-.43 1.584-.709 1.811-.876 2.878-1.846 3.485-2.693A8.425 8.425 0 0 1 26 16.103a8.423 8.423 0 0 1-1.402 4.667Z" fill="url(#c)"/><path d="M19.908 15.468c.479-.196 1.006-.43 1.584-.709 1.786-.863 2.848-1.819 3.459-2.657a8.461 8.461 0 0 0-7.484-4.508c-.763 0-1.503.1-2.207.29 1.993 2.42 4.13 5.45 4.648 7.584Z" fill="url(#d)"/><path d="M14.722 13.177c-.522-1.455-1.328-2.831-2.024-3.828-.76-1.154-1.392-1.913-1.392-1.913s-3.828 1.74-4.983 5.567c-1.154 3.828 1.155 7.355 1.155 7.355s1.155-.348 2.61-.98a16.88 16.88 0 0 0 3.416-1.914s1.218-.807 1.503-1.85c.237-1.045-.285-2.437-.285-2.437Z" fill="url(#e)"/><defs><linearGradient id="b" x1="14.609" y1="25.08" x2="21.608" y2="18.023" gradientUnits="userSpaceOnUse"><stop stop-color="#C4CA80"/><stop offset=".505" stop-color="#DBE08C"/></linearGradient><linearGradient id="c" x1="25.546" y1="12.361" x2="21.14" y2="20.218" gradientUnits="userSpaceOnUse"><stop stop-color="#9FBC6E"/><stop offset=".403" stop-color="#AFCE79"/></linearGradient><linearGradient id="d" x1="23.28" y1="14.09" x2="15.533" y2="7.629" gradientUnits="userSpaceOnUse"><stop stop-color="#9EC382"/><stop offset=".164" stop-color="#83B06B"/><stop offset=".323" stop-color="#70A35A"/><stop offset=".432" stop-color="#699E54"/></linearGradient><radialGradient id="a" cx="0" cy="0" r="1" gradientUnits="userSpaceOnUse" gradientTransform="matrix(6.36513 0 0 6.32903 14.532 14.969)"><stop stop-color="#496F93"/><stop offset=".86" stop-color="#6799CB"/></radialGradient><radialGradient id="e" cx="0" cy="0" r="1" gradientUnits="userSpaceOnUse" gradientTransform="translate(10.497 13.925) scale(5.59363)"><stop stop-color="#E6F2F8"/><stop offset=".09" stop-color="#D1E3F1"/><stop offset=".279" stop-color="#ABC9E3"/><stop offset=".467" stop-color="#8DB4D9"/><stop offset=".652" stop-color="#78A5D1"/><stop offset=".832" stop-color="#6B9CCD"/><stop offset="1" stop-color="#6799CB"/></radialGradient></defs></svg>