<svg xmlns="http://www.w3.org/2000/svg" xmlns:xlink="http://www.w3.org/1999/xlink" width="32" height="32"><defs><path id="a" d="M0 0h32v32H0z"/></defs><g fill="none" fill-rule="evenodd"><mask id="b" fill="#fff"><use xlink:href="#a"/></mask><g mask="url(#b)"><path fill="#2AACE2" d="M29.418 18.831h-.469c-.112 0-.165.064-.165.192 0 .122.059.186.165.186h1.81c.112 0 .17-.064.17-.186 0-.123-.058-.192-.17-.192h-1.341z"/><path fill="#3FB4E5" d="M26.873 18.831h-.448c-.106 0-.165.064-.165.192 0 .122.059.186.165.186h1.725c.112 0 .165-.064.165-.186 0-.123-.053-.192-.165-.192h-1.277z"/><path fill="#4CB9E7" d="M24.253 18.831h-.447c-.112 0-.16.064-.16.192 0 .122.048.186.16.186h1.73c.112 0 .165-.064.165-.186 0-.123-.053-.192-.165-.192h-1.283z"/><path fill="#58BEE9" d="M21.548 18.831h-.447c-.112 0-.165.064-.165.192 0 .122.053.186.165.186h1.725c.112 0 .165-.064.165-.186 0-.123-.053-.192-.165-.192h-1.278z"/><path fill="#65C3EB" d="M18.934 18.831h-.447c-.112 0-.166.064-.166.192 0 .122.054.186.166.186h1.725c.111 0 .165-.064.165-.186 0-.123-.054-.192-.165-.192h-1.278z"/><path fill="#72C8EC" d="M16.346 18.831h-.468c-.112 0-.17.064-.17.192 0 .122.058.186.17.186h1.805c.111 0 .17-.064.17-.186 0-.123-.059-.192-.17-.192h-1.337z"/><path fill="#7FCDEE" d="M13.7 18.831h-.447c-.112 0-.165.064-.165.192 0 .122.053.186.165.186h1.725c.112 0 .165-.064.165-.186 0-.123-.048-.192-.165-.192H13.7z"/><path fill="#8CD2F0" d="M11.086 18.831h-.448c-.112 0-.165.064-.165.192 0 .122.053.186.165.186h1.731c.106 0 .16-.064.16-.186 0-.123-.054-.192-.16-.192h-1.283z"/><path fill="#98D7F1" d="M8.471 18.831h-.447c-.112 0-.165.064-.165.192 0 .122.053.186.165.186h1.725c.112 0 .165-.064.165-.186 0-.123-.053-.192-.165-.192H8.471z"/><path fill="#A5DCF3" d="M5.852 18.831H5.41c-.112 0-.165.064-.165.192 0 .122.053.186.165.186h1.725c.112 0 .165-.064.165-.186 0-.123-.053-.192-.165-.192H5.852z"/><path fill="#B2E1F5" d="M3.237 18.831H2.79c-.112 0-.165.064-.165.192 0 .122.053.186.165.186h1.725c.112 0 .165-.064.165-.186 0-.123-.053-.192-.165-.192H3.237z"/><path fill="#BFE6F6" d="M.618 18.831H.17c-.111 0-.16.064-.16.192 0 .122.049.186.16.186h1.731c.112 0 .165-.064.165-.186 0-.123-.053-.192-.165-.192H.618z"/><path fill="#E31837" d="M.01 13.422h.485v.665c.165-.245.34-.42.517-.538.245-.149.5-.229.766-.229.181 0 .352.038.522.107.16.07.298.17.4.293.1.117.191.293.266.516.16-.298.362-.527.601-.687.245-.154.5-.229.778-.229.26 0 .49.064.687.203.197.133.34.32.442.559.095.234.143.596.143 1.07v2.093h-.49v-2.093c0-.41-.031-.692-.085-.847a.752.752 0 0 0-.298-.372.888.888 0 0 0-.495-.139c-.234 0-.442.075-.639.213-.192.139-.335.33-.426.56-.085.239-.133.628-.133 1.176v1.497h-.485v-1.96c0-.462-.026-.777-.08-.942a.759.759 0 0 0-.298-.394.883.883 0 0 0-.5-.149c-.224 0-.431.07-.628.208-.192.133-.336.32-.432.554-.09.233-.138.583-.138 1.063v1.624H.005v-3.822h.006zm8.365-.102c.565 0 1.033.219 1.406.64.34.388.511.846.511 1.384 0 .532-.176 1-.538 1.395-.356.4-.814.601-1.373.601-.565 0-1.023-.202-1.38-.601a2 2 0 0 1-.537-1.395c0-.533.17-.99.511-1.38.362-.425.83-.644 1.4-.644zm0 .485c-.394 0-.73.15-1.011.453a1.54 1.54 0 0 0-.426 1.096c0 .272.064.528.191.772a1.402 1.402 0 0 0 1.96.549c.223-.128.394-.314.522-.549.127-.244.191-.5.191-.772 0-.43-.143-.798-.426-1.096a1.304 1.304 0 0 0-1-.453zm6.581-1.789v5.229h-.479v-.65c-.202.25-.431.431-.681.56a1.907 1.907 0 0 1-.83.185c-.533 0-.991-.191-1.364-.585a1.954 1.954 0 0 1-.57-1.417c0-.537.192-1.006.575-1.395.378-.388.836-.58 1.374-.58.309 0 .591.064.836.197.256.133.474.33.66.596v-2.145h.48v.005zm-1.932 1.816c-.277 0-.522.069-.751.197-.23.138-.405.32-.543.564a1.55 1.55 0 0 0-.203.756c0 .272.07.522.203.761.138.245.32.432.548.57a1.478 1.478 0 0 0 1.496 0c.235-.133.416-.314.549-.543a1.56 1.56 0 0 0 .186-.772c0-.437-.144-.804-.431-1.091a1.416 1.416 0 0 0-1.054-.442zm6.171 2.14.399.224c-.128.26-.288.479-.458.644a1.986 1.986 0 0 1-.586.378c-.213.08-.457.128-.734.128-.607 0-1.081-.208-1.422-.613a2.105 2.105 0 0 1-.511-1.384c0-.49.138-.921.431-1.294a1.768 1.768 0 0 1 1.475-.724c.628 0 1.134.245 1.517.74.272.352.405.783.41 1.305h-3.338c.01.442.144.809.415 1.091.267.282.597.426.985.426.192 0 .368-.037.549-.101.18-.07.33-.16.452-.266.139-.123.272-.304.416-.554zm0-1.033a1.774 1.774 0 0 0-.277-.628 1.272 1.272 0 0 0-.485-.373 1.443 1.443 0 0 0-.628-.144c-.367 0-.676.117-.942.362-.192.176-.336.437-.437.788h2.769v-.004zm1.182-1.517h.506v.559c.149-.219.314-.384.479-.495a.985.985 0 0 1 .527-.166c.144 0 .287.048.447.128l-.26.416a.661.661 0 0 0-.262-.07c-.165 0-.33.07-.479.203-.16.133-.271.346-.357.628-.064.218-.095.66-.095 1.32v1.295h-.506v-3.818zm2.518 0h.48v.686c.191-.26.41-.457.644-.585.234-.128.49-.197.761-.197.282 0 .532.074.75.218.22.15.379.346.48.586.106.245.154.628.154 1.155v1.965h-.479v-1.821c0-.442-.021-.735-.058-.884-.054-.25-.16-.442-.325-.57-.155-.122-.362-.191-.623-.191-.288 0-.554.096-.783.293a1.356 1.356 0 0 0-.452.729c-.048.192-.07.543-.07 1.038v1.406h-.479v-3.828zm7.939 0v3.823h-.463v-.655c-.197.25-.42.436-.666.564-.25.123-.522.192-.814.192-.522 0-.97-.197-1.332-.591a2.001 2.001 0 0 1-.553-1.427c0-.543.186-1.017.559-1.411.372-.389.82-.586 1.341-.586.304 0 .576.064.82.202.245.134.458.336.645.602v-.703h.463v-.01zm-1.885.372c-.26 0-.506.07-.735.203a1.517 1.517 0 0 0-.532.57 1.62 1.62 0 0 0-.197.766c0 .272.07.533.197.772.133.245.314.437.538.575.229.133.463.208.724.208.255 0 .506-.07.74-.208a1.48 1.48 0 0 0 .538-.548c.122-.23.18-.495.18-.783 0-.442-.138-.815-.415-1.107a1.386 1.386 0 0 0-1.038-.448zm2.678-.378c.054 0 .112.011.16.032a.269.269 0 0 1 .122.123.31.31 0 0 1 .043.17.35.35 0 0 1-.037.165.39.39 0 0 1-.123.123.377.377 0 0 1-.325 0 .398.398 0 0 1-.122-.123.337.337 0 0 1-.037-.165c0-.064.01-.117.037-.17a.39.39 0 0 1 .123-.123.451.451 0 0 1 .16-.032zm0 .043c-.048 0-.09.01-.133.037a.207.207 0 0 0-.101.101.272.272 0 0 0-.037.144c0 .048.01.09.037.133.021.043.053.08.101.101a.258.258 0 0 0 .272 0 .195.195 0 0 0 .1-.1.334.334 0 0 0 .038-.134.366.366 0 0 0-.037-.144.227.227 0 0 0-.101-.1.244.244 0 0 0-.139-.038zm-.138.463v-.357h.117c.048 0 .075 0 .096.006.016.01.032.021.042.037a.084.084 0 0 1 .016.048c0 .027-.01.053-.026.07a.192.192 0 0 1-.08.031c.016.005.021.01.032.016.01.016.026.037.048.075l.048.069h-.075l-.026-.053c-.027-.043-.043-.075-.059-.086a.105.105 0 0 0-.043-.01h-.032v.154h-.058zm.053-.202h.07c.031 0 .058 0 .069-.01a.04.04 0 0 0 .02-.038.04.04 0 0 0-.01-.027.04.04 0 0 0-.021-.021c-.01 0-.032-.005-.064-.005h-.059v.1h-.005z"/></g></g></svg>