<svg width="32" height="32" viewBox="0 0 32 32" fill="none" xmlns="http://www.w3.org/2000/svg">
<path d="M0 16C0 7.16344 7.16344 0 16 0C24.8366 0 32 7.16344 32 16C32 24.8366 24.8366 32 16 32C7.16344 32 0 24.8366 0 16Z" fill="#F2F3F4"/>
<path d="M26.0152 12.1629L22.5677 17.2067C22.0434 17.9651 21.3611 18.769 20.3344 18.8472L20.334 18.9665L23.0411 18.9661C24.2164 18.9661 25.0579 17.6207 25.6387 16.7778L28.853 12.1406L26.0152 12.1629Z" fill="url(#paint0_linear_13222_23518)"/>
<path fill-rule="evenodd" clip-rule="evenodd" d="M10.9931 18.1661C11.2959 18.6557 11.8306 18.9538 12.4063 18.9538L13.9998 18.954L9.27995 12.1406H7.4076L2.85352 18.9537H4.73561L5.7498 17.3426L10.4829 17.3411L10.9931 18.1661ZM9.66395 16.1754H6.48379L8.12143 13.7773L9.66395 16.1754Z" fill="#002157"/>
<path d="M14.5082 18.9538L14.5118 12.1407L21.6843 12.1406L21.6807 13.3186L16.5119 13.3186V15.3799L21.5747 15.3799V16.644L16.5119 16.644V18.9538H14.5082Z" fill="#002157"/>
<defs>
<linearGradient id="paint0_linear_13222_23518" x1="25.8991" y1="11.5214" x2="25.8991" y2="19.0241" gradientUnits="userSpaceOnUse">
<stop offset="0.3352" stop-color="#FF1E27"/>
<stop offset="0.546875" stop-color="#E81B23"/>
<stop offset="0.7841" stop-color="#A61319"/>
<stop offset="0.8719" stop-color="#9D1225"/>
<stop offset="0.9551" stop-color="#931116"/>
<stop offset="1" stop-color="#800F14"/>
</linearGradient>
</defs>
</svg>
