<svg xmlns="http://www.w3.org/2000/svg" width="32" height="32" viewBox="0 0 32 32">
    <g fill="none" fill-rule="evenodd">
        <g>
            <g>
                <g>
                    <g>
                        <g>
                            <g>
                                <g>
                                    <path d="M0 0H32V32H0z" transform="translate(-691 -2563) translate(0 1273) translate(324 458) translate(0 728) translate(131 24) translate(220 64) translate(16 16)"/>
                                    <g>
                                        <path fill="#FCAF1B" d="M18.31 6.366c.564-.068 1.82-.213 2.044.069.224.287-.248 1.467-.46 1.995-.064.16.073.224.218.103.365-.334.646-.75.818-1.215.172-.464.23-.962.17-1.453-.46-.182-.956-.253-1.448-.207-.492.047-.967.208-1.385.472-.154.107-.128.257.043.236zm-5.156 2.876c2.307.008 4.562-.681 6.472-1.976l-.005.003c.29-.214.041-.535-.254-.409-1.91.805-3.96 1.224-6.033 1.234-2.773.002-5.499-.722-7.906-2.099-.198-.114-.344.089-.18.236 2.168 1.954 4.987 3.028 7.906 3.011z" transform="translate(-691 -2563) translate(0 1273) translate(324 458) translate(0 728) translate(131 24) translate(220 64) translate(16 16) translate(0 11)"/>
                                        <path fill="#231F20" d="M3.513 4.133c.15-.307.21-.65.175-.989l.002-.205c-.675 0-1.387.148-1.387.941 0 .404.207.676.565.676.135-.006.267-.048.38-.122.114-.075.206-.179.265-.301zm1.01 1.33c.04-.003.077-.02.106-.046l.004.007c.186-.166.526-.46.715-.62.032-.032.05-.077.05-.123s-.018-.09-.05-.124c-.223-.233-.349-.542-.352-.864V2.241v-.15c.003-.558.006-1.065-.41-1.455C4.19.318 3.69.153 3.182.172c-.462-.06-.93.052-1.315.316-.385.263-.66.66-.77 1.112-.005.022-.006.046-.002.068.003.023.012.045.025.064.013.019.03.035.049.047.02.013.04.02.064.024l.903.094c.042-.007.08-.027.11-.058.029-.031.047-.07.052-.113.035-.17.13-.321.27-.425.138-.104.31-.154.483-.14.1-.004.2.015.292.057.09.043.17.106.231.186.104.21.143.444.114.676v.121c-.596.025-1.187.134-1.753.322-.302.121-.56.333-.738.605-.178.273-.267.594-.256.92-.019.19.005.382.068.562.063.181.164.346.297.484.133.137.294.244.472.314s.37.1.56.088c.292.016.583-.037.85-.155s.502-.297.687-.523c.139.237.32.447.534.62.034.02.074.03.114.026zm11.383-2.319c.035.34-.026.682-.175.989-.06.122-.151.226-.264.3-.114.075-.246.117-.381.123-.358 0-.565-.272-.565-.676 0-.793.713-.94 1.387-.94l-.002.204zm.94 2.273c-.03.027-.066.043-.106.047-.04.003-.08-.006-.113-.026-.214-.173-.395-.383-.534-.62-.185.226-.42.405-.687.523-.267.118-.559.17-.85.155-.19.01-.382-.02-.56-.089-.178-.07-.339-.177-.472-.314-.132-.138-.233-.303-.296-.483-.063-.18-.086-.373-.068-.563-.01-.325.079-.646.257-.919.178-.272.435-.484.737-.605.567-.188 1.157-.297 1.753-.322V2.08c.03-.232-.01-.467-.113-.676-.061-.08-.141-.143-.232-.186-.091-.042-.191-.061-.292-.057-.172-.014-.344.036-.483.14-.139.104-.235.255-.27.425-.004.042-.023.082-.052.113-.03.03-.068.051-.11.058l-.902-.094c-.022-.003-.044-.01-.063-.022-.02-.011-.036-.027-.05-.045-.012-.018-.021-.039-.026-.06-.005-.023-.005-.046 0-.068.11-.452.384-.849.768-1.112.385-.264.853-.376 1.315-.315.509-.02 1.008.145 1.405.464.417.39.414.899.41 1.456v1.601c.003.322.13.63.352.864.033.032.051.077.051.123 0 .047-.018.091-.051.124-.188.16-.529.454-.714.62l-.003-.016zM27.4 5.43h.93l-.003.002c.047 0 .092-.017.126-.05.034-.032.054-.076.056-.123V2.682c-.017-.309.033-.618.148-.905.043-.109.117-.203.213-.27.096-.069.209-.108.326-.113.594 0 .589.65.584 1.162V5.28c.005.04.025.078.055.105.03.028.07.044.11.046h.935c.043 0 .085-.014.118-.042.032-.028.054-.066.06-.109V2.268c.046-.508-.036-1.02-.24-1.489-.116-.181-.278-.329-.469-.428-.19-.1-.404-.146-.62-.136-.29-.01-.574.082-.806.258-.23.175-.395.425-.464.707h-.017V.45c-.01-.037-.03-.07-.06-.095-.03-.024-.067-.037-.106-.039h-.865c-.043 0-.086.015-.119.044-.033.028-.054.068-.06.112v4.786c.001.045.02.088.05.12.031.031.074.05.118.052zm-3-5.215c1.385 0 2.133 1.188 2.133 2.698 0 1.46-.827 2.618-2.132 2.618-1.358 0-2.096-1.188-2.096-2.668 0-1.48.748-2.648 2.096-2.648zm.01.977c-.687 0-.731.936-.731 1.52v.02c0 .59 0 1.812.722 1.812.73 0 .757-1.007.757-1.62.016-.428-.031-.855-.139-1.27-.029-.137-.106-.26-.218-.345-.112-.085-.25-.127-.39-.117zM6.242 5.429h.933c.023 0 .046-.004.068-.012.022-.008.041-.02.058-.037.017-.016.03-.035.04-.056.009-.022.014-.044.014-.068V2.681c0-.55 0-1.278.644-1.278.594 0 .584.634.576 1.15l-.002.168v2.536c0 .045.018.088.05.12.03.031.073.05.117.052h.932c.023 0 .046-.004.068-.012.021-.009.041-.021.058-.037.016-.016.03-.035.04-.057.008-.02.013-.043.014-.067V2.721c-.02-.308.009-.617.087-.916.044-.113.12-.21.219-.28.099-.07.216-.11.338-.113.127-.018.256.016.359.093.102.078.17.193.188.32.032.298.04.597.027.896v2.536c0 .045.018.088.05.12.03.031.073.05.117.052h.932c.023 0 .046-.004.068-.012.021-.009.04-.021.057-.037.017-.016.03-.035.04-.057.009-.02.014-.043.014-.067V2.238c.076-.512-.006-1.036-.235-1.5-.151-.191-.35-.339-.576-.428-.226-.09-.472-.117-.713-.08-.24.037-.467.137-.656.29-.19.152-.335.353-.421.58C9.663.843 9.5.62 9.28.46 9.062.3 8.8.214 8.528.214c-.27 0-.534.085-.753.244-.219.16-.382.384-.465.641h-.017V.476C7.289.433 7.27.393 7.239.363c-.032-.03-.073-.047-.116-.048h-.868c-.023 0-.046.004-.068.012-.022.008-.041.02-.058.037-.017.016-.03.035-.04.056-.009.022-.014.044-.014.068v4.784c.004.041.023.08.054.11.03.028.07.045.113.047zM18.352.476v.684l.002.003c0 .023.004.046.013.067.009.022.022.041.038.057.017.016.037.029.058.037.022.008.044.012.068.012h1.6L18.29 3.97c-.084.142-.124.306-.113.47v.693c0 .1.11.216.218.16.5-.26 1.055-.396 1.618-.397.563-.001 1.119.132 1.62.39.115.06.225-.055.225-.156v-.73c-.002-.054-.017-.107-.046-.154-.028-.047-.068-.086-.116-.112-.539-.28-1.142-.41-1.748-.377l1.587-2.266c.112-.121.192-.27.23-.43V.475c0-.023-.004-.046-.012-.067-.01-.022-.022-.04-.039-.057-.016-.016-.036-.029-.057-.037-.022-.009-.045-.013-.068-.012h-3.064c-.023 0-.046.004-.067.013-.021.008-.04.021-.057.037-.016.017-.029.036-.037.057-.009.021-.013.044-.012.067z" transform="translate(-691 -2563) translate(0 1273) translate(324 458) translate(0 728) translate(131 24) translate(220 64) translate(16 16) translate(0 11)"/>
                                    </g>
                                </g>
                            </g>
                        </g>
                    </g>
                </g>
            </g>
        </g>
    </g>
</svg>
