<svg xmlns="http://www.w3.org/2000/svg" width="32" height="32" viewBox="0 0 32 32">
    <g fill="none" fill-rule="evenodd">
        <g>
            <g>
                <g>
                    <g>
                        <g>
                            <g>
                                <g>
                                    <path d="M0 0H32V32H0z" transform="translate(-471 -3075) translate(0 1273) translate(324 458) translate(0 728) translate(131 24) translate(0 576) translate(16 16)"/>
                                    <g fill="#ED1A3B">
                                        <path d="M15.82 6.39C16.384 5.144 17.147 4 18.08 3c.856-.98 1.99-1.678 3.25-2 .173-.04.352-.041.525-.003.173.038.336.114.475.223.023.024.051.042.083.053.031.01.065.013.097.007.98-.405 2.08-.405 3.06 0 .524.27 1.032.57 1.52.9.041 0 .026.047.013.09-.007.019-.013.037-.013.05-.29.32-.53.64-.79 1h-.1l-1.33-.92c-.611-.471-1.383-.683-2.15-.59-.048 0-.044.046-.04.102.004.047.008.101-.02.138.002.786-.227 1.554-.66 2.21-.272.494-.706.88-1.23 1.09-.11.027-.227.021-.335-.016-.108-.037-.203-.104-.275-.194-.364-.56-.048-1.234.2-1.76v-.003l.001-.001.05-.106c.352-.603.821-1.13 1.38-1.55v-.07c0-.047-.068-.03-.134-.015-.032.008-.064.015-.087.015-.905.412-1.69 1.049-2.28 1.85-1.178 1.412-2.066 3.043-2.61 4.8-.16.65-.37 1.66.3 2.11.61.41 1.062.008 1.47-.354l.12-.106c.657-.645 1.109-1.47 1.3-2.37 0-.059.006-.123.012-.189.02-.225.042-.474-.152-.62-.204-.156-.342.003-.467.148-.028.032-.055.064-.083.091-.323.414-.514.916-.55 1.44-.083.067-.176.121-.271.177-.076.044-.153.09-.229.143-.31.225-.592.487-.84.78-.01-.932.292-1.84.86-2.58.175-.27.423-.484.715-.619.292-.134.617-.183.935-.14.14.05.264.14.357.255.093.117.153.256.173.404.04.88-.202 1.748-.69 2.48-.67 1-1.73 2.12-3.08 2-.259-.025-.507-.118-.72-.268-.212-.151-.38-.355-.49-.592-.367-1.079-.302-2.258.18-3.29l.29-.81zm4.57-1.75c0 .058.015.115.045.164.03.05.074.09.125.116.207.063.373-.067.527-.189l.053-.04c.599-.611.979-1.402 1.08-2.25v-.4c-.048-.02-.101-.02-.15 0-.42.306-.782.685-1.07 1.12-.34.424-.551.938-.61 1.48zM5.31 1.14C3.401 1.965 1.848 3.444.93 5.31c-.212.413-.402.837-.57 1.27-.48 1.23-.58 3.06.42 4.06.36.3.786.512 1.243.618.457.106.932.103 1.387-.008.688-.098 1.345-.29 2-.482 1.089-.319 2.173-.636 3.39-.518.312.053.61.168.874.34.265.172.492.397.666.66h.05c1.25-.404 2.599-.376 3.83.08-.553-.743-1.315-1.304-2.19-1.61-1.455-.475-3.024-.475-4.48 0l-1.46.43-.77.24c-.867.355-1.833.384-2.72.08-.358-.211-.645-.525-.824-.901-.178-.377-.24-.798-.176-1.209.166-1.144.553-2.244 1.14-3.24C3.398 3.934 4.266 2.877 5.3 2c.254-.251.593-.398.95-.41.07.024.128.074.16.14 0 .02.007.047.014.072.013.05.026.098-.014.098-.178.048-.34.144-.467.278-.127.135-.215.301-.253.482-.025.076-.03.158-.015.237.016.08.052.153.105.213.026.03.059.054.095.07.036.015.076.022.115.02.47-.07.75-.59.84-1 .061-.175.067-.365.017-.544-.05-.178-.154-.338-.297-.456-.19-.099-.4-.155-.613-.165-.214-.01-.428.025-.627.105zM3.63 5.92c.445-1.015 1.245-1.833 2.25-2.3.134-.04.275-.05.412-.025.138.024.267.08.378.165.44.44.27 1.2.12 1.72-.005.011-.008.023-.008.035 0 .012.003.024.008.035.38-.026.738-.193 1-.47.065-.072.13-.147.197-.223.556-.635 1.169-1.336 2.053-1.247.097.015.188.05.27.103.08.054.15.124.2.207.093.247.11.515.05.772-.062.256-.197.489-.39.668-.06.069-.136.12-.222.148-.087.028-.18.032-.268.012-.078-.036-.139-.1-.17-.18-.015-.176.024-.353.111-.506.088-.154.22-.277.38-.354.028-.028.077-.037.127-.045.09-.015.178-.03.132-.165-.03-.038-.07-.066-.117-.08-.047-.015-.096-.014-.143 0-.427.273-.773.657-1 1.11-.35.547-.627 1.14-.82 1.76-.089.232-.089.488 0 .72.048.064.113.112.188.14.074.026.155.03.232.01.471-.22.89-.537 1.23-.93.301-.362.552-.756.803-1.15.442-.693.883-1.387 1.597-1.91.171-.143.377-.238.598-.273.22-.035.445-.01.652.073.03 0 .056.02.083.04.037.028.075.057.127.04.036-.012.06-.047.086-.084.039-.056.08-.114.164-.096h1l-.09.22-1.74 3.53c-.01.046-.01.094 0 .14h.14c.246-.172.456-.39.62-.64.153-.208.286-.429.4-.66l.01-.013c.047-.067.096-.136.18-.127.063.007.144.004.214.002l.086-.002c-.13.291-.277.575-.44.85-.427.818-1.138 1.45-2 1.78-.073.02-.15.023-.224.01-.074-.014-.145-.045-.206-.09-.13-.092-.16-.238-.19-.383-.01-.043-.018-.086-.03-.127-.022-.008-.047-.008-.07 0-.151.19-.345.344-.565.448-.22.104-.461.156-.705.152-.139-.041-.257-.134-.33-.26-.097-.279-.131-.576-.1-.87h-.07c-.516.57-1.186.98-1.93 1.18-.163.029-.33.016-.488-.036C7.255 8.69 7.114 8.6 7 8.48c-.522-.703-.151-1.605.136-2.302l.044-.108c.007-.006.012-.013.015-.02.004-.008.006-.016.006-.025 0-.008-.002-.017-.006-.025-.003-.007-.008-.014-.015-.02l-.59.08-.07.07c-.417.908-1.024 1.716-1.78 2.37-.17.142-.375.235-.594.267-.22.031-.443.001-.646-.087-.177-.152-.307-.35-.376-.574-.07-.223-.074-.46-.014-.686.107-.52.282-1.025.52-1.5zm1.29 0c-.278.47-.446.996-.49 1.54.009.057.033.11.07.155.037.044.086.077.14.095.066.01.134.004.197-.02.063-.022.119-.06.163-.11.423-.411.762-.9 1-1.44 0 0 .08-.14.05-.14-.294-.118-.555-.307-.76-.55 0 0-.06 0-.09.08l-.28.39zm.73-1c.02.127.075.247.158.345.083.099.19.173.312.215.02 0 .043.006.066.013.048.013.097.027.124-.013.085-.16.146-.332.18-.51 0-.047.004-.098.007-.15.014-.204.028-.43-.147-.55-.042-.02-.088-.03-.135-.03-.046 0-.092.01-.135.03-.122.055-.228.143-.303.255-.076.11-.12.24-.127.375v.02zm5.72 2c-.094.21-.126.443-.09.67.01.022.026.042.045.058s.041.027.065.032c.184 0 .311-.149.428-.285l.012-.015c.542-.78 1.001-1.615 1.37-2.49.084-.173.138-.359.16-.55 0 0 0-.07-.08-.09-.08-.02-.16 0-.23.06-.679.592-1.204 1.34-1.53 2.18l-.15.43zm4.15-3.22c-.193.322-.367.656-.52 1 0 .04-.01.07-.01.07.333.02.667.02 1 0 .048-.011.093-.032.133-.061.04-.03.073-.066.097-.109.17-.33.32-.66.46-1h-.83c-.118-.01-.236.026-.33.1zm6.572 2.897c-.345.242-.635.553-.852.913-.613.786-1.007 1.722-1.14 2.71-.025.198.008.398.098.576.089.179.229.326.402.424.227.045.462.03.681-.044.22-.074.416-.203.57-.376.605-.612 1.102-1.322 1.47-2.1l.08-.1h.52c.08.01.08.08.08.08-.2.688-.21 1.417-.03 2.11.036.115.102.218.192.3.09.08.2.136.317.16.62.06 1.09-.498 1.459-.938l.001-.002v.05l.002.014c.03.327.063.698.388.846.528.15.936-.226 1.305-.565l.005-.005c.01 0 .013-.022.015-.042.003-.04.007-.075.065.042.031.062.05.13.067.197.034.129.069.258.193.343.12.047.248.064.375.05.127-.014.25-.059.355-.13.861-.54 1.53-1.338 1.91-2.28 0-.024.008-.054.014-.083.014-.055.026-.107-.014-.107-.1-.03-.209-.03-.31 0-.053.083-.104.167-.155.25-.102.167-.205.333-.325.5-.158.258-.374.477-.63.64-.06.01-.15.01-.15-.06.018-.145.066-.285.14-.41l1.39-2.89.23-.47v-.09h-1c-.06 0-.078.034-.1.072-.016.031-.035.066-.08.088-.059.03-.107-.007-.154-.042-.032-.024-.063-.048-.096-.048-.233-.076-.483-.085-.722-.027-.238.058-.456.182-.628.357-.658.56-1.072 1.241-1.487 1.925-.297.489-.595.979-.983 1.425l-.048.046c-.117.112-.244.234-.402.164-.032-.023-.059-.053-.078-.087-.019-.035-.03-.073-.032-.113.046-.475.154-.942.32-1.39.023-.05.039-.106.055-.161.035-.118.07-.237.165-.319l.65-.51c.91-.836 1.72-1.775 2.41-2.8.018-.03.04-.06.063-.09.053-.07.107-.143.107-.22-.146-.003-.292.02-.43.07-.611.898-1.319 1.726-2.11 2.47-.03.023-.071.055-.113.09-.108.087-.227.183-.227.14v-.06c.125-.342.285-.672.444-.999l.002-.002.134-.279c.601-1.251 1.35-2.426 2.23-3.5.23-.295.516-.543.84-.73.02 0 .047-.008.076-.017.06-.018.124-.037.124.017.02.072.02.148 0 .22-.044.147-.074.298-.09.45.035-.012.073-.022.11-.031.145-.037.295-.075.35-.289.07-.27.11-.64-.11-.81-.22-.17-.55-.07-.78 0-.976.507-1.814 1.245-2.44 2.15-1.047 1.455-1.892 3.047-2.51 4.73l-.02.1c-.159.073-.337.098-.51.07-.02-.005-.036-.017-.047-.033-.011-.017-.016-.037-.013-.057.023-.092.05-.187.078-.285.134-.469.284-.993.002-1.415-.059-.083-.137-.151-.227-.198-.09-.047-.19-.072-.293-.072-.412.08-.804.246-1.148.487zm-.648 3.418c-.041-.06-.063-.132-.064-.205.02-.375.116-.742.28-1.08.118-.273.262-.535.43-.78.015-.011.032-.018.05-.018.018 0 .036.007.05.018.2.223.437.409.7.55.05.04 0 .17 0 .17-.222.546-.563 1.034-1 1.43-.083.051-.183.07-.28.05-.067-.028-.125-.075-.166-.135zm1.307-2.222c-.08-.102-.133-.224-.15-.353-.005-.14.027-.279.092-.403s.16-.23.277-.307c.087-.035.184-.035.27 0 .046.017.088.046.12.082.034.037.058.08.07.128.046.372-.024.75-.2 1.08h-.17c-.121-.047-.228-.125-.309-.227zm4.57 2.267c-.06-.09-.06-.25-.06-.37l.16-.39c.297-.85.763-1.633 1.37-2.3.15-.11.52-.28.52-.23V7c-.338.853-.753 1.673-1.24 2.45-.135.246-.327.455-.56.61-.029.019-.062.03-.096.03s-.067-.011-.095-.03zm.93-6.67l.45-.58.07-.06C30.034 2.614 31.194 1.985 32 1c-.013.119-.047.234-.1.34-.3.74-.798 1.382-1.441 1.855-.643.474-1.404.76-2.2.825h-.37c-.046 0-.03-.035-.015-.071.008-.018.015-.036.015-.049l.36-.51zm1.66 7.342c-.015.038-.022.078-.02.118-.002.04.005.08.02.118.014.037.036.072.064.1.028.03.061.053.098.068.037.016.077.024.117.024.083 0 .161-.033.22-.09.058-.059.09-.138.09-.22 0-.082-.032-.161-.09-.22-.059-.057-.137-.09-.22-.09-.04 0-.08.008-.117.024-.037.015-.07.038-.098.068-.028.028-.05.063-.065.1zm.442.49c-.053.014-.108.017-.163.008-.054.009-.11.006-.163-.009-.053-.014-.102-.04-.144-.076-.042-.036-.076-.08-.099-.13-.023-.05-.035-.105-.035-.16 0-.055.012-.11.035-.16.023-.05.057-.094.099-.13.042-.035.091-.061.144-.076.053-.015.109-.018.163-.009.055-.009.11-.006.163.009.054.015.103.04.145.076.042.036.075.08.099.13.023.05.035.105.035.16 0 .055-.012.11-.035.16-.024.05-.057.094-.1.13-.041.035-.09.062-.143.076zm-.163-.342h-.08v.19h-.06v-.43h.16c.11 0 .16 0 .16.12s-.05.12-.12.12l.13.19h-.08l-.11-.19zm-.08-.19v.14h.08c.06 0 .11 0 .11-.07s-.05-.07-.1-.07h-.09z" transform="translate(-471 -3075) translate(0 1273) translate(324 458) translate(0 728) translate(131 24) translate(0 576) translate(16 16) translate(0 10)"/>
                                    </g>
                                </g>
                            </g>
                        </g>
                    </g>
                </g>
            </g>
        </g>
    </g>
</svg>
