<svg width="32" height="32" viewBox="0 0 32 32" fill="none" xmlns="http://www.w3.org/2000/svg">
<path d="M0 16C0 7.16344 7.16344 0 16 0C24.8366 0 32 7.16344 32 16C32 24.8366 24.8366 32 16 32C7.16344 32 0 24.8366 0 16Z" fill="#ED1A3B"/>
<path fill-rule="evenodd" clip-rule="evenodd" d="M15.8618 16.0667C16.2844 15.1322 16.8572 14.2731 17.5573 13.5235C18.1991 12.7878 19.0494 12.2646 19.9954 12.0231C20.1249 11.9931 20.2594 11.9923 20.3892 12.0209C20.519 12.0494 20.6407 12.1066 20.7456 12.1882C20.7626 12.2063 20.7839 12.2199 20.8074 12.2277C20.831 12.2356 20.8562 12.2375 20.8806 12.2332C21.6156 11.9289 22.4413 11.9289 23.1762 12.2332C23.5695 12.4353 23.9502 12.6608 24.3165 12.9084C24.3473 12.9084 24.336 12.9434 24.3258 12.9752C24.3211 12.9899 24.3165 13.0039 24.3165 13.0134C24.099 13.2535 23.9189 13.4935 23.7239 13.7636H23.6489L22.6511 13.0734C22.1924 12.7198 21.6131 12.5609 21.0382 12.6308C21.0019 12.6308 21.0046 12.6655 21.0079 12.707C21.0107 12.7426 21.014 12.7831 20.9932 12.8108C20.9945 13.4001 20.8223 13.9767 20.498 14.4688C20.2938 14.8395 19.9679 15.1283 19.5753 15.2865C19.4919 15.3066 19.4046 15.3024 19.3235 15.2745C19.2424 15.2466 19.171 15.1961 19.1177 15.129C18.8444 14.7086 19.0816 14.2031 19.2669 13.8082L19.2683 13.8051C19.2809 13.7783 19.2933 13.7519 19.3052 13.7261C19.57 13.2738 19.9219 12.8786 20.3405 12.5633V12.5108C20.3405 12.4755 20.2897 12.4876 20.2405 12.4994C20.2164 12.5051 20.1927 12.5108 20.1755 12.5108C19.4962 12.8199 18.9074 13.2977 18.465 13.8986C17.5807 14.9577 16.9152 16.1816 16.507 17.4996C16.387 17.9872 16.2294 18.7449 16.732 19.0825C17.1891 19.3895 17.5283 19.0885 17.8343 18.8171C17.8648 18.79 17.8949 18.7633 17.9249 18.7374C18.4174 18.2533 18.7566 17.635 18.9001 16.9594C18.9001 16.9152 18.9044 16.8671 18.9087 16.8176C18.9237 16.6485 18.9401 16.462 18.7951 16.3518C18.6416 16.2351 18.5384 16.3546 18.4442 16.4636C18.4234 16.4877 18.4029 16.5114 18.3825 16.5318C18.1401 16.8426 17.9964 17.2189 17.9699 17.6121C17.9072 17.6622 17.8376 17.703 17.7662 17.7449C17.7093 17.7783 17.6513 17.8123 17.5948 17.8522C17.362 18.0212 17.1504 18.2177 16.9646 18.4373C16.9562 17.738 17.1834 17.0562 17.6098 16.5018C17.7411 16.2994 17.927 16.1385 18.1462 16.0375C18.3653 15.9366 18.6085 15.8999 18.8476 15.9317C18.9526 15.9702 19.0452 16.0367 19.1152 16.124C19.1853 16.2112 19.2302 16.3159 19.2452 16.4268C19.2748 17.0862 19.0934 17.7379 18.7276 18.2873C18.2249 19.0375 17.4297 19.8777 16.417 19.7877C16.2225 19.7689 16.0363 19.6994 15.877 19.5862C15.7178 19.473 15.5909 19.32 15.5092 19.1425C15.2337 18.3333 15.2821 17.4487 15.6443 16.6744L15.8618 16.0667ZM19.2902 14.7539C19.2897 14.7973 19.3014 14.84 19.324 14.8771C19.3465 14.9142 19.379 14.9443 19.4178 14.9639C19.5725 15.011 19.697 14.9133 19.8131 14.8223C19.8264 14.8118 19.8397 14.8014 19.8529 14.7914C20.3019 14.3336 20.5868 13.7401 20.6631 13.1034V12.8033C20.6269 12.7895 20.5868 12.7895 20.5506 12.8033C20.2353 13.0336 19.9635 13.3181 19.7478 13.6436C19.4927 13.9626 19.334 14.3477 19.2902 14.7539Z" fill="white"/>
<path d="M7.97725 12.1282C6.54496 12.7473 5.38005 13.8563 4.69139 15.2565C4.53193 15.5662 4.38919 15.8843 4.26377 16.2092C3.90368 17.132 3.82866 18.5048 4.57886 19.255C4.84909 19.4802 5.16834 19.6389 5.51098 19.7183C5.85362 19.7978 6.21012 19.7959 6.55188 19.7127C7.06787 19.6394 7.56056 19.495 8.05223 19.351C8.8687 19.1119 9.68239 18.8735 10.5954 18.9625C10.8291 19.0019 11.0521 19.0888 11.2508 19.2178C11.4495 19.3469 11.6197 19.5153 11.7507 19.7127H11.7883C12.7256 19.4096 13.7376 19.4308 14.6615 19.7727C14.2467 19.2151 13.6745 18.7944 13.0186 18.5649C11.9266 18.2085 10.7496 18.2085 9.65769 18.5649L8.56241 18.8874L7.98475 19.0675C7.33427 19.3339 6.60923 19.3552 5.94422 19.1275C5.67513 18.969 5.45979 18.7335 5.32605 18.4513C5.1923 18.1691 5.14631 17.8532 5.19402 17.5446C5.31838 16.6865 5.60888 15.8609 6.04924 15.114C6.54281 14.2242 7.19349 13.4312 7.96975 12.7733C8.16017 12.5848 8.41465 12.475 8.68244 12.4658C8.7347 12.4836 8.77782 12.5214 8.80247 12.5708C8.80247 12.5861 8.80766 12.6057 8.81276 12.6249C8.82266 12.6623 8.83219 12.6983 8.80247 12.6983C8.66854 12.7342 8.54717 12.8064 8.45183 12.9071C8.35648 13.0077 8.29088 13.1328 8.26233 13.2685C8.24304 13.3257 8.23913 13.387 8.25098 13.4463C8.26283 13.5055 8.29002 13.5606 8.32984 13.6061C8.34923 13.6286 8.3735 13.6463 8.4008 13.658C8.4281 13.6698 8.45772 13.6751 8.48738 13.6736C8.83998 13.6211 9.05003 13.231 9.11755 12.9234C9.16323 12.7918 9.16759 12.6495 9.13004 12.5154C9.09249 12.3813 9.01484 12.2619 8.9075 12.1732C8.76479 12.0992 8.60782 12.0569 8.44728 12.0492C8.28675 12.0414 8.12643 12.0684 7.97725 12.1282Z" fill="white"/>
<path fill-rule="evenodd" clip-rule="evenodd" d="M6.71689 15.7141C7.05061 14.9526 7.65082 14.339 8.40483 13.9887C8.50487 13.9579 8.61078 13.9514 8.71383 13.9697C8.81687 13.988 8.9141 14.0305 8.99749 14.0937C9.32757 14.4238 9.20004 14.9939 9.08751 15.384C9.08353 15.3922 9.08146 15.4012 9.08146 15.4103C9.08146 15.4194 9.08353 15.4284 9.08751 15.4365C9.37295 15.4173 9.64073 15.2914 9.83771 15.0839C9.88642 15.0297 9.93546 14.9736 9.98512 14.9168C10.402 14.4401 10.862 13.9141 11.5257 13.9812C11.5978 13.992 11.6667 14.0184 11.7276 14.0586C11.7885 14.0988 11.8399 14.1517 11.8782 14.2137C11.9475 14.3988 11.9602 14.6003 11.9148 14.7926C11.8694 14.9849 11.7679 15.1594 11.6232 15.294C11.5786 15.3455 11.5208 15.3839 11.456 15.405C11.3913 15.4262 11.322 15.4293 11.2556 15.414C11.1972 15.3873 11.1514 15.3389 11.128 15.279C11.1165 15.1468 11.1455 15.0143 11.2112 14.899C11.2768 14.7838 11.3761 14.6913 11.4956 14.6338C11.5169 14.6126 11.5542 14.6064 11.5911 14.6002C11.6584 14.589 11.7246 14.578 11.6907 14.4763C11.6681 14.4477 11.6373 14.4267 11.6025 14.416C11.5677 14.4053 11.5304 14.4054 11.4956 14.4163C11.175 14.6211 10.9158 14.9088 10.7454 15.249C10.482 15.6594 10.275 16.1036 10.1303 16.5693C10.0632 16.7431 10.0632 16.9357 10.1303 17.1095C10.1657 17.1574 10.2146 17.1937 10.2707 17.2137C10.3268 17.2338 10.3876 17.2367 10.4454 17.222C10.7987 17.057 11.1131 16.8193 11.3681 16.5243C11.5938 16.2525 11.782 15.9569 11.9702 15.6613C12.3015 15.1413 12.6329 14.6209 13.1686 14.2287C13.2966 14.1211 13.4515 14.0502 13.6167 14.0238C13.7819 13.9974 13.9511 14.0163 14.1063 14.0787C14.1286 14.0787 14.1481 14.0935 14.1684 14.1088C14.196 14.1297 14.225 14.1517 14.2639 14.1387C14.2906 14.1298 14.3091 14.1032 14.3282 14.0758C14.3574 14.034 14.388 13.9901 14.4514 14.0037H15.2016L15.1341 14.1687L13.8288 16.8169C13.821 16.8515 13.821 16.8874 13.8288 16.9219H13.9338C14.1179 16.7929 14.2758 16.6299 14.3989 16.4418C14.5131 16.2857 14.6135 16.1201 14.699 15.9467L14.7062 15.9365C14.7414 15.8868 14.7783 15.8346 14.8415 15.8416C14.8882 15.8468 14.9491 15.8449 15.0021 15.8431C15.0258 15.8424 15.048 15.8416 15.0666 15.8416C14.9686 16.0602 14.8584 16.2731 14.7365 16.4793C14.416 17.0926 13.8824 17.5675 13.2361 17.8147C13.1813 17.8298 13.1238 17.8322 13.0679 17.8218C13.012 17.8114 12.9592 17.7884 12.9135 17.7546C12.8153 17.6853 12.7927 17.5759 12.7704 17.4675C12.7637 17.4352 12.7571 17.403 12.7485 17.372C12.7315 17.3657 12.7129 17.3657 12.696 17.372C12.5822 17.515 12.4372 17.63 12.272 17.708C12.1068 17.7861 11.9259 17.8251 11.7432 17.8222C11.6389 17.791 11.5503 17.7213 11.4956 17.6271C11.4227 17.4178 11.3971 17.1949 11.4206 16.9744H11.3681C10.9807 17.4027 10.478 17.7101 9.92023 17.8597C9.79785 17.881 9.6721 17.8716 9.55426 17.8323C9.43641 17.793 9.33016 17.7251 9.24505 17.6346C8.85296 17.1071 9.13154 16.4305 9.34691 15.9074L9.38009 15.8266C9.38488 15.8224 9.38871 15.8172 9.39134 15.8114C9.39397 15.8056 9.39533 15.7993 9.39533 15.7929C9.39533 15.7865 9.39397 15.7802 9.39134 15.7744C9.38871 15.7685 9.38488 15.7633 9.38009 15.7591L8.93747 15.8191L8.88496 15.8717C8.57186 16.5528 8.11653 17.1591 7.54961 17.6496C7.42245 17.7564 7.26803 17.8256 7.1037 17.8495C6.93936 17.8733 6.77164 17.8509 6.61936 17.7847C6.4866 17.6706 6.38872 17.5214 6.33697 17.3542C6.28521 17.187 6.28168 17.0085 6.32678 16.8394C6.40691 16.4488 6.53807 16.0705 6.71689 15.7141ZM7.68464 15.7141C7.47565 16.0662 7.34992 16.4613 7.31705 16.8694C7.32326 16.9122 7.34129 16.9525 7.36912 16.9856C7.39696 17.0187 7.43348 17.0435 7.47459 17.057C7.52417 17.0646 7.57486 17.0596 7.62204 17.0426C7.66922 17.0256 7.71138 16.997 7.74466 16.9594C8.06167 16.6508 8.31636 16.284 8.49486 15.8792C8.49486 15.8792 8.55487 15.7741 8.53237 15.7741C8.31127 15.6856 8.11544 15.5439 7.96222 15.3615C7.96222 15.3615 7.9172 15.3615 7.8947 15.4215L7.68464 15.7141ZM8.23229 14.9639C8.24743 15.0593 8.28824 15.1488 8.35035 15.2228C8.41246 15.2968 8.49353 15.3526 8.58488 15.384C8.59962 15.384 8.61676 15.3888 8.63422 15.3938C8.67008 15.4038 8.70723 15.4143 8.72742 15.384C8.79123 15.2639 8.83675 15.135 8.86245 15.0014C8.86245 14.9662 8.86495 14.9282 8.86753 14.889C8.87758 14.7362 8.88878 14.5658 8.75742 14.4763C8.7257 14.4615 8.69114 14.4539 8.65615 14.4539C8.62116 14.4539 8.58659 14.4615 8.55487 14.4763C8.46275 14.5177 8.38387 14.5837 8.32694 14.6671C8.27001 14.7505 8.23725 14.848 8.23229 14.9489V14.9639ZM12.5234 16.4643C12.4524 16.6217 12.4289 16.7964 12.4559 16.9669C12.4635 16.9838 12.4749 16.9987 12.4893 17.0104C12.5036 17.0221 12.5204 17.0303 12.5384 17.0345C12.676 17.0345 12.7716 16.9226 12.8591 16.8204L12.8685 16.8094C13.275 16.2241 13.6195 15.5981 13.8963 14.9414C13.9588 14.8114 13.9994 14.672 14.0163 14.5288C14.0163 14.5288 14.0163 14.4763 13.9563 14.4613C13.8963 14.4463 13.8363 14.4613 13.7837 14.5063C13.2743 14.9504 12.8804 15.5116 12.6359 16.1417L12.5234 16.4643Z" fill="white"/>
<path d="M15.6367 14.0487C15.4915 14.2905 15.3612 14.541 15.2466 14.7989C15.2466 14.8289 15.2391 14.8514 15.2391 14.8514C15.489 14.8658 15.7395 14.8658 15.9893 14.8514C16.0253 14.843 16.0591 14.8274 16.0888 14.8055C16.1185 14.7836 16.1434 14.7558 16.1619 14.7238C16.2894 14.4763 16.4019 14.2287 16.507 13.9737H15.8843C15.7953 13.9664 15.7068 13.9932 15.6367 14.0487Z" fill="white"/>
<path fill-rule="evenodd" clip-rule="evenodd" d="M20.5664 16.2223C20.3079 16.4032 20.0904 16.6365 19.9279 16.9069C19.4674 17.4967 19.1723 18.1984 19.0726 18.94C19.0533 19.0881 19.0787 19.2387 19.1456 19.3724C19.2124 19.506 19.3176 19.6167 19.4477 19.6902C19.618 19.7237 19.794 19.7123 19.9584 19.657C20.1229 19.6018 20.2701 19.5046 20.3855 19.3751C20.8396 18.9162 21.2125 18.3835 21.4883 17.7997L21.5483 17.7246H21.9384C21.9984 17.7321 21.9984 17.7847 21.9984 17.7847C21.8494 18.3008 21.8416 18.8474 21.9759 19.3676C22.0033 19.4539 22.0532 19.5313 22.1204 19.592C22.1877 19.6526 22.2698 19.6943 22.3585 19.7127C22.823 19.7576 23.1753 19.3387 23.4527 19.0088L23.4538 19.0075V19.045L23.4547 19.0554C23.477 19.3005 23.5023 19.5792 23.7464 19.6902C24.142 19.8021 24.4485 19.5205 24.7249 19.2664L24.7291 19.2625C24.7369 19.2625 24.7384 19.2463 24.7399 19.2307C24.7426 19.2014 24.745 19.1743 24.7892 19.2625C24.8123 19.3088 24.8257 19.3595 24.8391 19.41C24.8649 19.507 24.8905 19.6035 24.9842 19.6677C25.0735 19.7027 25.17 19.7156 25.2654 19.7051C25.3608 19.6947 25.4522 19.6612 25.5318 19.6076C26.1775 19.2024 26.6789 18.6039 26.9647 17.8972C26.9647 17.8791 26.9701 17.8566 26.9752 17.8348C26.9851 17.7934 26.9942 17.7546 26.9647 17.7546C26.8889 17.7319 26.808 17.7319 26.7322 17.7546C26.6922 17.8172 26.6538 17.8797 26.6155 17.9422C26.5388 18.0672 26.4621 18.1923 26.3721 18.3173C26.253 18.5111 26.0913 18.6753 25.8994 18.7974C25.8544 18.8049 25.7869 18.8049 25.7869 18.7524C25.8002 18.6437 25.8359 18.5389 25.8919 18.4448L26.9347 16.2768L27.1073 15.9242V15.8566H26.3571C26.3116 15.8566 26.298 15.8817 26.2824 15.9105C26.2697 15.9339 26.2557 15.9598 26.222 15.9767C26.1777 15.9988 26.1413 15.9713 26.1065 15.945C26.0824 15.9268 26.0591 15.9092 26.0345 15.9092C25.8593 15.8522 25.6718 15.8451 25.4929 15.8889C25.314 15.9326 25.1508 16.0254 25.0217 16.1567C24.5276 16.5765 24.217 17.088 23.9057 17.6006C23.6829 17.9675 23.4598 18.335 23.1687 18.6699C23.1567 18.6809 23.1447 18.6926 23.1324 18.7043C23.0449 18.7884 22.9496 18.8801 22.8311 18.8274C22.8069 18.8103 22.7868 18.788 22.7725 18.762C22.7582 18.736 22.7501 18.707 22.7486 18.6774C22.783 18.3209 22.8637 17.9703 22.9887 17.6346C23.0054 17.5964 23.0176 17.5551 23.0298 17.5137C23.0559 17.4251 23.0822 17.3359 23.1537 17.2745L23.6413 16.8919C24.3242 16.265 24.931 15.56 25.4493 14.7914C25.4628 14.769 25.4795 14.7466 25.4965 14.724C25.5362 14.6709 25.5769 14.6167 25.5769 14.5588C25.467 14.5567 25.3577 14.5744 25.2543 14.6113C24.7957 15.2848 24.2649 15.9061 23.6714 16.4643C23.6481 16.4812 23.6178 16.5058 23.5862 16.5314C23.5054 16.5969 23.4163 16.6692 23.4163 16.6369V16.5918C23.5096 16.3353 23.63 16.0879 23.7495 15.8424L23.7502 15.841C23.7842 15.7711 23.8182 15.7013 23.8514 15.6316C24.3022 14.6927 24.8639 13.8112 25.5243 13.0059C25.6972 12.7845 25.9112 12.5986 26.1545 12.4583C26.169 12.4583 26.1897 12.452 26.2111 12.4456C26.2562 12.4321 26.3046 12.4176 26.3046 12.4583C26.3196 12.5122 26.3196 12.5693 26.3046 12.6233C26.2711 12.7334 26.2485 12.8464 26.237 12.9609C26.2633 12.9516 26.2913 12.9445 26.3194 12.9374C26.4279 12.91 26.5404 12.8816 26.5821 12.7208C26.6346 12.5183 26.6646 12.2407 26.4996 12.1132C26.3346 11.9856 26.087 12.0606 25.9144 12.1132C25.1818 12.4933 24.5533 13.0471 24.084 13.7261C23.298 14.8178 22.6645 16.0116 22.201 17.2745L22.186 17.3495C22.0664 17.4044 21.9333 17.4226 21.8034 17.4021C21.7888 17.3985 21.7761 17.3896 21.7677 17.3771C21.7594 17.3646 21.756 17.3494 21.7584 17.3345C21.7752 17.2657 21.7957 17.194 21.8167 17.1204C21.917 16.7689 22.0293 16.3756 21.8184 16.0592C21.7742 15.9968 21.7157 15.9459 21.6479 15.9107C21.58 15.8754 21.5047 15.8569 21.4283 15.8566C21.1185 15.9168 20.8249 16.0413 20.5664 16.2223ZM20.0806 18.786C20.0499 18.7406 20.0333 18.6872 20.0329 18.6324C20.0479 18.351 20.1193 18.0754 20.243 17.8222C20.3311 17.617 20.4391 17.421 20.5655 17.237C20.5762 17.2285 20.5894 17.2238 20.6031 17.2238C20.6167 17.2238 20.6299 17.2285 20.6406 17.237C20.7903 17.404 20.968 17.5437 21.1657 17.6496C21.2032 17.6796 21.1657 17.7772 21.1657 17.7772C20.9992 18.1864 20.7428 18.5531 20.4155 18.8499C20.3527 18.8884 20.2777 18.9018 20.2054 18.8874C20.1547 18.8667 20.1113 18.8314 20.0806 18.786ZM21.0614 17.119C21.0008 17.0425 20.9616 16.9511 20.9481 16.8544C20.945 16.7493 20.9689 16.6452 21.0175 16.5519C21.0661 16.4587 21.1378 16.3794 21.2257 16.3218C21.2907 16.2955 21.3633 16.2955 21.4283 16.3218C21.4628 16.3348 21.4938 16.3559 21.5186 16.3833C21.5434 16.4107 21.5613 16.4436 21.5708 16.4793C21.6049 16.7584 21.5526 17.0412 21.4208 17.2895H21.2932C21.2021 17.2543 21.1221 17.1955 21.0614 17.119ZM24.4891 18.8199C24.4441 18.7524 24.4441 18.6324 24.4441 18.5424L24.5641 18.2498C24.7871 17.6113 25.1367 17.0245 25.5919 16.5243C25.7044 16.4418 25.982 16.3143 25.982 16.3518V16.5243C25.7291 17.1643 25.4177 17.7796 25.0517 18.3623C24.951 18.5468 24.8068 18.7039 24.6316 18.8199C24.6106 18.8341 24.5857 18.8417 24.5603 18.8417C24.5349 18.8417 24.5101 18.8341 24.4891 18.8199Z" fill="white"/>
<path d="M25.1868 13.8161L25.5243 13.381L25.5769 13.336C26.5257 13.2338 27.3962 12.7622 28 12.0231C27.9904 12.112 27.965 12.1983 27.925 12.2782C27.7006 12.8333 27.3265 13.3152 26.8443 13.6702C26.3622 14.0252 25.7909 14.2393 25.1943 14.2887H24.9167C24.8817 14.2887 24.8933 14.2621 24.905 14.2354C24.9109 14.2221 24.9167 14.2087 24.9167 14.1987L25.1868 13.8161Z" fill="white"/>
<path fill-rule="evenodd" clip-rule="evenodd" d="M26.6421 19.4351H26.5821V19.5776H26.5371V19.255H26.6571C26.7397 19.255 26.7772 19.255 26.7772 19.3451C26.7772 19.4351 26.7397 19.4351 26.6871 19.4351L26.7847 19.5776H26.7246L26.6421 19.4351ZM26.5821 19.2926V19.3976H26.6421C26.6871 19.3976 26.7246 19.3976 26.7246 19.3451C26.7246 19.2926 26.6871 19.2926 26.6496 19.2926H26.5821Z" fill="white"/>
<path fill-rule="evenodd" clip-rule="evenodd" d="M26.7645 19.691C26.7247 19.7021 26.6829 19.7043 26.6421 19.6977C26.6013 19.7043 26.5596 19.7021 26.5198 19.691C26.4799 19.68 26.443 19.6604 26.4115 19.6336C26.38 19.6068 26.3547 19.5735 26.3373 19.536C26.3199 19.4985 26.311 19.4577 26.311 19.4163C26.311 19.375 26.3199 19.3342 26.3373 19.2966C26.3547 19.2591 26.38 19.2258 26.4115 19.1991C26.443 19.1723 26.4799 19.1527 26.5198 19.1417C26.5596 19.1306 26.6013 19.1283 26.6421 19.135C26.6829 19.1283 26.7247 19.1306 26.7645 19.1417C26.8043 19.1527 26.8413 19.1723 26.8728 19.1991C26.9043 19.2258 26.9296 19.2591 26.947 19.2966C26.9643 19.3342 26.9733 19.375 26.9733 19.4163C26.9733 19.4577 26.9643 19.4985 26.947 19.536C26.9296 19.5735 26.9043 19.6068 26.8728 19.6336C26.8413 19.6604 26.8043 19.68 26.7645 19.691ZM26.432 19.3242C26.4211 19.3523 26.4161 19.3824 26.4171 19.4126C26.4161 19.4428 26.4211 19.4728 26.432 19.501C26.4429 19.5292 26.4593 19.5549 26.4803 19.5766C26.5013 19.5983 26.5264 19.6155 26.5542 19.6273C26.582 19.6391 26.6119 19.6452 26.6421 19.6451C26.7038 19.6451 26.763 19.6206 26.8066 19.577C26.8502 19.5334 26.8747 19.4743 26.8747 19.4126C26.8747 19.3509 26.8502 19.2918 26.8066 19.2481C26.763 19.2045 26.7038 19.18 26.6421 19.18C26.6119 19.18 26.582 19.1861 26.5542 19.1978C26.5264 19.2096 26.5013 19.2269 26.4803 19.2486C26.4593 19.2703 26.4429 19.296 26.432 19.3242Z" fill="white"/>
</svg>
