<svg width="32" height="32" viewBox="0 0 32 32" fill="none" xmlns="http://www.w3.org/2000/svg">
<path d="M0 16C0 7.16344 7.16344 0 16 0C24.8366 0 32 7.16344 32 16C32 24.8366 24.8366 32 16 32C7.16344 32 0 24.8366 0 16Z" fill="#F2F3F4"/>
<g clip-path="url(#clip0_8870_91683)">
<path fill-rule="evenodd" clip-rule="evenodd" d="M9.19972 16.9716H9.84733C10.1 16.9716 10.1961 17.0588 10.1961 17.2724C10.1961 17.478 10.1 17.5651 9.84733 17.5651H9.19972V16.9716ZM8.19643 19.1316H9.19976V18.2533H10.2744C10.986 18.2533 11.2421 17.8342 11.2421 17.2923C11.2421 16.6632 10.9787 16.3073 10.2672 16.3073H8.19643V19.1316ZM11.573 16.3073H14.2734V16.9954H12.5764V17.3752H14.1526V18.0636H12.5764V18.4433H14.2734V19.1316H11.573V16.3073ZM15.6967 16.9716H16.3442C16.5969 16.9716 16.693 17.0588 16.693 17.2724C16.693 17.478 16.5969 17.5651 16.3442 17.5651H15.6967V16.9716ZM14.6933 19.1316H15.6967V18.2533H16.7712C17.4829 18.2533 17.7391 17.8342 17.7391 17.2923C17.7391 16.6632 17.4757 16.3073 16.764 16.3073H14.6933V19.1316ZM18.7103 17.933C18.2193 17.8498 18.0167 17.5334 18.0167 17.1379C18.0167 16.406 18.6607 16.2084 19.4859 16.2084C20.6172 16.2084 21.0834 16.5366 21.119 17.134H19.952C19.952 17.0192 19.8915 16.9479 19.7991 16.9084C19.7101 16.865 19.5964 16.8492 19.4859 16.8492C19.1871 16.8492 19.084 16.9321 19.084 17.0509C19.084 17.1299 19.1159 17.1815 19.2155 17.1973L20.4145 17.395C20.9198 17.478 21.233 17.7391 21.233 18.2176C21.233 18.9062 20.7277 19.2305 19.5998 19.2305C18.8277 19.2305 17.9844 19.1119 17.9809 18.2812H19.1906C19.194 18.376 19.2262 18.4393 19.2975 18.4828C19.372 18.5224 19.4823 18.5423 19.6388 18.5423C19.9519 18.5423 20.0374 18.4472 20.0374 18.3127C20.0374 18.2296 19.9911 18.1466 19.8561 18.123L18.7103 17.933ZM21.5602 16.3073H22.5634V19.1316H21.5602V16.3073ZM26.2818 18.0319C26.2177 18.4038 26.1037 18.7044 25.8546 18.9101C25.6093 19.1158 25.2249 19.2305 24.6131 19.2305C24.0047 19.2305 22.8768 19.183 22.8768 17.7195C22.8768 16.2558 24.0047 16.2083 24.6131 16.2083C25.2178 16.2083 26.15 16.2953 26.2818 17.4149H25.1503C25.1219 17.213 25.0007 16.9203 24.6131 16.9203C24.2037 16.9203 23.944 17.1457 23.944 17.7195C23.944 18.2931 24.1967 18.5184 24.5631 18.5184C24.8799 18.5184 25.0685 18.3721 25.1503 18.0319L26.2818 18.0319ZM27.5946 17.7196C27.5946 17.1458 27.8544 16.9204 28.2636 16.9204C28.6727 16.9204 28.9326 17.1458 28.9326 17.7196C28.9326 18.2932 28.6727 18.5185 28.2636 18.5185C27.8544 18.5184 27.5946 18.2931 27.5946 17.7196ZM26.5271 17.7196C26.5271 19.183 27.655 19.2306 28.2636 19.2306C28.872 19.2306 29.9999 19.183 29.9999 17.7196C29.9999 16.2558 28.872 16.2084 28.2636 16.2084C27.655 16.2084 26.5271 16.2558 26.5271 17.7196ZM6.68036 16.3353C6.74514 14.9802 5.57657 13.4542 3.98346 13.2656L3.98618 13.2471C5.55674 13.2471 6.76075 14.701 6.76075 15.8481C6.75924 16.0869 6.74038 16.2348 6.70675 16.3422L6.68036 16.3353ZM6.5852 16.5075C6.4807 16.6352 6.34929 16.7637 6.19532 16.8858C5.91207 15.2567 4.71496 13.8322 3.86861 13.4164L3.85049 13.429C4.70164 14.1276 5.71683 15.4843 6.11162 16.9497C5.91025 17.0976 5.69273 17.2222 5.46323 17.321C4.66004 16.4051 3.91124 14.6386 3.66993 13.5176L3.64539 13.525C3.65083 14.6131 4.42335 16.4603 5.36544 17.3616C5.14937 17.4471 4.92474 17.5091 4.69542 17.5467C3.79236 17.1889 3.14955 16.0431 3.14955 14.8693C3.14955 14.1031 3.38318 13.6291 3.42838 13.5321L3.40914 13.5244C3.35446 13.6072 3.01221 14.0809 3.01221 14.9082C3.01221 16.2349 3.66653 17.2491 4.53523 17.5684C4.22458 17.6026 3.9105 17.5879 3.60442 17.5247L3.59795 17.545C3.69088 17.5792 4.00616 17.7115 4.48712 17.7115C5.57497 17.7115 6.31035 17.0356 6.60639 16.5218L6.5852 16.5075Z" fill="#28458E"/>
<path fill-rule="evenodd" clip-rule="evenodd" d="M4.37856 12.7686C3.55389 12.7686 2.58691 13.3637 2.58691 13.9078C2.58691 14.1182 2.77942 14.296 3.17786 14.296C4.10279 14.296 4.96212 13.6605 4.96212 13.1664C4.96212 12.9064 4.7124 12.7686 4.37856 12.7686ZM4.70779 13.1511C4.70779 13.5676 3.90795 14.0767 3.23934 14.0767C2.94394 14.0767 2.78433 13.9605 2.78433 13.7686C2.78433 13.3461 3.59326 12.8456 4.22041 12.8456C4.62929 12.8456 4.70779 13.0537 4.70779 13.1511Z" fill="#0096D6"/>
<path fill-rule="evenodd" clip-rule="evenodd" d="M2.2581 14.1593C2.23492 14.1994 2.14209 14.3812 2.14209 14.5675C2.14209 14.9129 2.4911 15.2335 3.13303 15.2335C4.36795 15.2335 5.7947 14.3245 5.7947 13.4808C5.7947 13.102 5.43616 12.8961 5.18723 12.8535L5.18256 12.8683C5.25998 12.8928 5.54362 13.0246 5.54362 13.362C5.54362 14.0343 4.28392 14.9504 3.02912 14.9504C2.54874 14.9504 2.2461 14.7133 2.2461 14.3678C2.2461 14.2586 2.26884 14.1866 2.27487 14.1658L2.2581 14.1593Z" fill="#EB7B30"/>
<path fill-rule="evenodd" clip-rule="evenodd" d="M6.30387 13.5439C6.33775 13.5697 6.54115 13.7392 6.54115 14.0597C6.54115 15.1528 4.82853 16.2276 3.31445 16.2276C2.41154 16.2276 1.99993 15.7818 2.01816 15.3859H2.03434C2.06972 15.5915 2.36289 15.9594 3.15315 15.9594C4.66912 15.9594 6.36176 14.8472 6.36176 13.8728C6.36176 13.7057 6.31637 13.6015 6.2907 13.5552L6.30387 13.5439Z" fill="#00984A"/>
<path fill-rule="evenodd" clip-rule="evenodd" d="M6.87614 14.5645C6.88323 14.5877 6.92012 14.6924 6.92012 14.8563C6.92012 16.0722 5.18695 17.1131 3.67959 17.1131C2.90376 17.1131 2.49862 16.7363 2.41309 16.5832L2.42689 16.573C2.64156 16.7608 3.06439 16.9034 3.55784 16.9034C4.88913 16.9034 6.8756 15.8905 6.85786 14.5689L6.87614 14.5645Z" fill="#DF002C"/>
</g>
<defs>
<clipPath id="clip0_8870_91683">
<rect width="28" height="7.7728" fill="white" transform="translate(2 12.1133)"/>
</clipPath>
</defs>
</svg>
