<svg xmlns="http://www.w3.org/2000/svg" width="32" height="32" viewBox="0 0 32 32">
    <g fill="none" fill-rule="evenodd">
        <g>
            <g>
                <g>
                    <g>
                        <g>
                            <g>
                                <g>
                                    <path d="M0 0H32V32H0z" transform="translate(-911 -3203) translate(0 1273) translate(324 458) translate(0 728) translate(131 24) translate(440 704) translate(16 16)"/>
                                    <g fill="#1226AA">
                                        <path d="M8.7 1.26c.65 0 2.45.09 1.29 3.5C8.77 8.33 6.07 7.6 6.07 7.6l2-6.34h.63zM13.53 5C15.05 1.25 12.2.23 10.35.23H4.21c.178.11.31.282.371.483.061.2.046.416-.041.607L1 12.75c-.091.225-.226.43-.398.602-.172.171-.377.307-.602.398h5c-.102-.028-.197-.077-.28-.144-.082-.066-.15-.149-.2-.242-.05-.094-.08-.196-.088-.302-.009-.105.004-.212.038-.312l1.3-4.13s6 .8 7.79-3.67" transform="translate(-911 -3203) translate(0 1273) translate(324 458) translate(0 728) translate(131 24) translate(440 704) translate(16 16) translate(0 9)"/>
                                        <path d="M15.54 12c-.521.308-1.1.509-1.7.59-.23.05-.47.046-.698-.012-.229-.058-.44-.169-.62-.323-.178-.154-.318-.348-.409-.566-.09-.218-.129-.454-.113-.689 0-1.16 1.26-2 1.94-2.29.32 1.188.863 2.305 1.6 3.29zm2-7.28c-.33.993-1.018 1.827-1.93 2.34-.102-.821.067-1.653.48-2.37.34-.52.79-.75 1.15-.63.36.12.33.37.3.66zm0 9h3.34c-1.227-.45-2.345-1.156-3.28-2.07.717-.703 1.149-1.647 1.21-2.65h-1.73c.1.065.184.154.241.258.058.105.088.223.09.342-.005.452-.148.892-.41 1.26-.647-.838-1.082-1.819-1.27-2.86.855-.35 1.662-.811 2.4-1.37.252-.194.46-.44.61-.721.15-.281.239-.591.26-.909-.002-.2-.042-.396-.119-.58-.077-.183-.19-.35-.332-.49-.283-.255-.623-.439-.992-.534-.37-.096-.756-.101-1.128-.016-.564.11-1.09.369-1.52.75-.79.877-1.203 2.03-1.15 3.21-.007.127-.007.254 0 .38l-.16.06c-.74.27-2.71.8-3.41 2.41-.13.359-.195.738-.19 1.12-.005.49.127.971.38 1.39.293.433.698.777 1.172.995.474.22 1 .304 1.518.245 1.146-.106 2.241-.52 3.17-1.2.381.376.8.71 1.25 1" transform="translate(-911 -3203) translate(0 1273) translate(324 458) translate(0 728) translate(131 24) translate(440 704) translate(16 16) translate(0 9)"/>
                                        <path d="M27.66 1.28c.677-.102 1.368-.048 2.02.156.654.205 1.252.555 1.75 1.024L32 .66c-.79-.24-6.49-2.17-10.51 2.43-2.48 2.83-3.09 8.63.05 10.18 3.37 1.66 7.08-.26 7.35-.39L30.43 8c.079-.29.23-.553.44-.767.21-.213.472-.37.76-.453h-5.34c.123.024.24.074.344.146.104.071.192.163.258.27.067.107.11.226.13.35.018.125.01.252-.022.374l-1.53 4.89c-.2 0-4.5 1.11-2.09-6.4.52-1.61 2-4.57 4.33-5.13" transform="translate(-911 -3203) translate(0 1273) translate(324 458) translate(0 728) translate(131 24) translate(440 704) translate(16 16) translate(0 9)"/>
                                    </g>
                                </g>
                            </g>
                        </g>
                    </g>
                </g>
            </g>
        </g>
    </g>
</svg>
