<svg xmlns="http://www.w3.org/2000/svg" xmlns:xlink="http://www.w3.org/1999/xlink" width="32" height="32"><defs><path id="a" d="M0 0h32v32H0z"/><path id="c" d="M0 0h32v12H0z"/></defs><g fill="none" fill-rule="evenodd"><mask id="b" fill="#fff"><use xlink:href="#a"/></mask><g mask="url(#b)"><g transform="translate(0 10)"><mask id="d" fill="#fff"><use xlink:href="#c"/></mask><g fill-rule="nonzero" mask="url(#d)"><path d="m18.49 7.341 2.074-2.33-2.074-2.33h2.188l1.027 1.132.989-1.132h2.112l-2.064 2.321 2.092 2.339h-2.197L21.619 6.2l-1.008 1.141zm0-5.705h-2.348v1.045h2.348v1.574h-2.348V5.7h2.348v1.641h-4.075V0h4.075z" fill="#F60"/><path fill="#652C8F" d="M12.697 0v3.004h-.02c-.38-.437-.855-.59-1.407-.59-1.13 0-1.981.77-2.28 1.785-.34-1.12-1.22-1.805-2.523-1.805-1.058 0-1.893.475-2.33 1.249v-.962H1.95V1.636h2.387V0H0v7.341h1.95V4.255h1.944c-.058.227-.09.47-.09.726 0 1.531 1.17 2.606 2.663 2.606 1.256 0 2.083-.59 2.52-1.664h-1.67c-.226.322-.398.418-.85.418-.524 0-.975-.457-.975-.999h3.402c.148 1.216 1.095 2.265 2.396 2.265.56 0 1.074-.275 1.388-.741h.019v.475h1.719V0h-1.72zM5.546 4.277c.108-.466.47-.77.921-.77.497 0 .84.295.93.77h-1.85zm6.108 1.946c-.634 0-1.028-.59-1.028-1.206 0-.66.343-1.293 1.028-1.293.71 0 .993.634.993 1.293 0 .624-.3 1.206-.993 1.206z"/></g><g mask="url(#d)"><path d="M15.362 10.858c.266 0 .552-.156.607-.436h.262c-.095.403-.444.632-.876.632-.8 0-1.123-.617-1.123-1.358 0-.742.324-1.359 1.123-1.359.432 0 .781.229.876.632h-.262c-.054-.28-.341-.435-.607-.435-.658 0-.879.599-.879 1.162s.222 1.162.88 1.162zm1.958.196c-.56 0-.86-.432-.86-.962s.3-.963.86-.963.861.432.861.963c0 .53-.301.962-.86.962zm0-.167c.44 0 .625-.4.625-.795 0-.396-.185-.796-.625-.796s-.625.4-.625.796.186.795.625.795zm2.016-1.544c-.366 0-.494.31-.494.628v1.04h-.22V9.714c0-.178-.004-.36-.011-.542h.218l.014.265c.11-.21.29-.308.534-.308a.86.86 0 0 1 .102.007v.222c-.05-.007-.09-.015-.142-.015zm.613 2.358h-.222v-1.98c0-.182 0-.367-.01-.548h.217l.008.276c.138-.219.32-.32.592-.32.566 0 .81.469.81.963s-.244.962-.81.962c-.254 0-.454-.097-.585-.308v.955zm1.159-1.61c0-.392-.164-.777-.6-.777-.41 0-.559.338-.559.777 0 .44.15.778.56.778.435 0 .599-.385.599-.778zm1.377.963c-.56 0-.861-.432-.861-.962s.301-.963.861-.963.861.432.861.963c0 .53-.302.962-.861.962zm0-.167c.44 0 .625-.4.625-.795 0-.396-.186-.796-.625-.796-.44 0-.625.4-.625.796s.185.795.625.795zm2.017-1.544c-.368 0-.495.31-.495.628v1.04h-.221V9.714c0-.178-.004-.36-.012-.542h.219l.014.265c.11-.21.29-.308.534-.308a.86.86 0 0 1 .102.007v.222c-.05-.007-.091-.015-.142-.015zm1.446 1.668a2.576 2.576 0 0 1-.029-.247c-.142.214-.327.29-.614.29-.334 0-.64-.17-.64-.54 0-.535.564-.615 1.014-.615.087 0 .16.004.214.007v-.138c0-.312-.127-.472-.45-.472-.236 0-.403.09-.432.352h-.222c.004-.396.349-.52.654-.52.454 0 .672.124.672.578v.625c0 .284.011.45.044.68h-.21zm-.054-.938c-.062-.003-.113-.007-.174-.007-.306 0-.818.018-.818.44 0 .254.21.38.444.38.37 0 .548-.217.548-.642v-.17zm1.181.981c-.266 0-.39-.156-.39-.421V9.34h-.297v-.167h.298v-.375l.221-.098v.474h.407v.167h-.407v1.193c0 .258.044.334.229.334.07 0 .156-.025.196-.047v.189c-.076.022-.141.043-.257.043zm.533-2.394v-.276h.265v.276h-.265zm.021 2.35V9.174h.222v1.838h-.222zm1.523.044c-.56 0-.861-.432-.861-.962s.301-.963.86-.963c.56 0 .862.432.862.963 0 .53-.302.962-.861.962zm0-.167c.44 0 .625-.4.625-.795 0-.396-.186-.796-.625-.796-.44 0-.625.4-.625.796s.185.795.625.795zm1.507-1.714.007.276c.128-.215.327-.32.596-.32.49 0 .654.269.654.73v1.152h-.222V9.946c0-.341-.08-.632-.468-.632-.414 0-.552.367-.552.73v.967h-.222v-1.29c0-.182-.004-.367-.01-.548h.217z" fill="#652C8F" fill-rule="nonzero"/></g></g></g></g></svg>