<svg xmlns="http://www.w3.org/2000/svg" width="32" height="32" viewBox="0 0 32 32">
    <g fill="none" fill-rule="evenodd">
        <g>
            <g>
                <g>
                    <g>
                        <g>
                            <g>
                                <g>
                                    <path d="M0 0H32V32H0z" transform="translate(-691 -2627) translate(0 1273) translate(324 458) translate(0 728) translate(131 24) translate(220 128) translate(16 16)"/>
                                    <g>
                                        <path fill="#0067B1" d="M0 7.43c2.82-1.534 5.78-2.796 8.84-3.77v.01c.82.24 1.61.53 2.4.82-2.983 1.05-5.857 2.39-8.58 4C1.79 8.12.9 7.77 0 7.43zm15.2-1.32c-.93-.45-1.83-.84-2.83-1.21-2.951 1.133-5.807 2.5-8.54 4.09.95.42 1.89.89 2.82 1.37 2.732-1.643 5.591-3.064 8.55-4.25z" transform="translate(-691 -2627) translate(0 1273) translate(324 458) translate(0 728) translate(131 24) translate(220 128) translate(16 16) translate(0 7)"/>
                                        <path fill="#EE2A24" d="M15.09.91c2.604.71 5.15 1.612 7.62 2.7-.84.21-1.71.47-2.56.73-2.432-1.158-4.953-2.118-7.54-2.87.82-.21 1.64-.4 2.48-.56zm-3.8.93c2.565.791 5.069 1.77 7.49 2.93v.02c-.84.29-1.66.58-2.48.89-2.486-1.195-5.06-2.198-7.7-3 .87-.29 1.77-.58 2.69-.84zm17.76 3.88c-6.151 2.067-11.967 5.026-17.26 8.78 1.32.82 2.59 1.66 3.83 2.59C20.611 13.126 26.123 9.866 32 7.4c-1-.6-1.95-1.16-2.95-1.68zM6.83 11.78c5.492-3.666 11.554-6.393 17.94-8.07 1.044.412 2.038.891 3.028 1.369l.272.13c-6.28 1.9-12.225 4.767-17.62 8.5-1.19-.69-2.4-1.32-3.62-1.93z" transform="translate(-691 -2627) translate(0 1273) translate(324 458) translate(0 728) translate(131 24) translate(220 128) translate(16 16) translate(0 7)"/>
                                    </g>
                                </g>
                            </g>
                        </g>
                    </g>
                </g>
            </g>
        </g>
    </g>
</svg>
