<svg xmlns="http://www.w3.org/2000/svg" width="32" height="32" viewBox="0 0 32 32">
    <g fill="none" fill-rule="evenodd">
        <g>
            <g>
                <g>
                    <g>
                        <g>
                            <g>
                                <g>
                                    <path d="M0 0H32V32H0z" transform="translate(-471 -3203) translate(0 1273) translate(324 458) translate(0 728) translate(131 24) translate(0 704) translate(16 16)"/>
                                    <g fill="#80BC00" fill-rule="nonzero">
                                        <path d="M11.94 6.73V4.82h.56c5.24-.17 8.67 4.49 8.67 4.49s-3.71 5.15-7.68 5.15c-.526.003-1.05-.078-1.55-.24v-5.8c2 .24 2.45 1.14 3.67 3.18l2.72-2.29c-.649-.795-1.46-1.442-2.38-1.897-.918-.455-1.925-.709-2.95-.743-.35 0-.701.02-1.05.06h-.01zm.01-6.32v2.86h.56c7.28-.25 12 6 12 6s-5.45 6.62-11.12 6.62c-.49 0-.978-.044-1.46-.13v1.77c.405.052.812.08 1.22.08 5.28 0 9.09-2.7 12.79-5.89.61.49 3.12 1.69 3.64 2.21-3.52 2.94-11.71 5.31-16.35 5.31-.45 0-.88 0-1.3-.06v2.48H32V.41H11.95zm0 13.78v1.5c-4.88-.87-6.24-5.94-6.24-5.94 1.684-1.672 3.882-2.729 6.24-3v1.66c-2-.24-3.64 1.67-3.64 1.67s.9 3.21 3.65 4.14l-.01-.03zM3.27 9.53C4.302 8.179 5.608 7.06 7.102 6.25c1.494-.812 3.143-1.3 4.838-1.43V3.27C5.54 3.78 0 9.2 0 9.2s3.14 9.08 11.94 9.91v-1.65c-6.46-.81-8.67-7.93-8.67-7.93z" transform="translate(-471 -3203) translate(0 1273) translate(324 458) translate(0 728) translate(131 24) translate(0 704) translate(16 16) translate(0 5)"/>
                                    </g>
                                </g>
                            </g>
                        </g>
                    </g>
                </g>
            </g>
        </g>
    </g>
</svg>
