<svg xmlns="http://www.w3.org/2000/svg" width="32" height="32" viewBox="0 0 32 32">
    <g fill="none" fill-rule="evenodd">
        <g>
            <g>
                <g>
                    <g>
                        <g>
                            <g>
                                <g>
                                    <path d="M0 0H32V32H0z" transform="translate(-911 -2755) translate(0 1273) translate(324 458) translate(0 728) translate(131 24) translate(440 256) translate(16 16)"/>
                                    <path d="M0 0H32V32H0z" transform="translate(-911 -2755) translate(0 1273) translate(324 458) translate(0 728) translate(131 24) translate(440 256) translate(16 16)"/>
                                    <g fill="#008" fill-rule="nonzero">
                                        <path d="M7.055 24.338L19.2 7.676h5.74L12.8 24.338H7.055zM.018 0h31.964v32H.018V0zM4.49 4.479v23.035h22.992V4.479H4.49z" transform="translate(-911 -2755) translate(0 1273) translate(324 458) translate(0 728) translate(131 24) translate(440 256) translate(16 16)"/>
                                    </g>
                                </g>
                            </g>
                        </g>
                    </g>
                </g>
            </g>
        </g>
    </g>
</svg>
