<svg width="32" height="32" fill="none" xmlns="http://www.w3.org/2000/svg"><path d="M0 16C0 7.163 7.163 0 16 0s16 7.163 16 16-7.163 16-16 16S0 24.837 0 16Z" fill="#0E0E0E"/><path d="m16.3 5.175.906-1.993.06-.181v.181l.121 2.657c.258 0 .516.044.811.094l.155.027-.12-3.865c-.212-.03-.438-.045-.665-.06-.226-.015-.452-.03-.664-.06l-.845 2.173-.06.181-.06-.18-.846-2.174c-.423 0-.906.06-1.328.12l-.121 3.865c.302-.06.664-.121.966-.121l.12-2.657v-.181l.061.181.906 1.993h.604ZM23.666 9.28c.242.242.544.604.725.846l3.26-2.053a4.223 4.223 0 0 1-.301-.363 4.262 4.262 0 0 0-.302-.362l-2.053 1.329-.12.12.12-.18.905-1.812-.664-.664-1.811.905-.181.121.12-.12 1.329-2.054c-.242-.18-.483-.362-.785-.603l-2.053 3.2c.121.09.272.211.423.332.15.12.302.241.423.332l1.932-1.027.12-.06-.12.12-.966 1.993Z" fill="#fff"/><path fill-rule="evenodd" clip-rule="evenodd" d="M9.478 6.563c.483.604.18 1.208-.302 1.751-.725.725-1.087 1.087-2.053 2.113L4.346 7.831c.15-.181.332-.392.513-.604.181-.21.362-.422.513-.603 1.027-1.148 1.389-1.45 1.872-1.51.241-.06.543 0 .724.181.423.302.363.785.302.966v.06h.06c.423-.12.846-.06 1.148.242Zm-2.536-.422c-.242.241-.845.845-1.389 1.509l.544.483s1.086-1.147 1.388-1.449c.121-.12.242-.302.181-.483-.06-.181-.241-.302-.422-.242-.12 0-.242.121-.302.182Zm1.087 1.086c-.363.363-1.389 1.45-1.389 1.45l.543.603c0-.03.333-.378.673-.734.325-.34.657-.687.716-.775.023-.045.053-.09.086-.138.056-.081.118-.171.156-.285.06-.181 0-.302-.121-.362a.385.385 0 0 0-.362 0c-.06 0-.182.12-.302.241Z" fill="#fff"/><path d="M16 16V6.522c-5.252 0-9.479 4.287-9.479 9.48h9.48Z" fill="#0166B1"/><path d="M16 25.48A9.457 9.457 0 0 0 25.48 16H16v9.48Z" fill="#0166B1"/><path d="M16 16h9.48c0-5.192-4.226-9.479-9.48-9.479v9.48Z" fill="#fff"/><path d="M6.521 16a9.457 9.457 0 0 0 9.48 9.48V16H6.52ZM16 31C7.716 31 1 24.284 1 16h-2c0 9.389 7.611 17 17 17v-2Zm15-15c0 8.284-6.716 15-15 15v2c9.389 0 17-7.611 17-17h-2ZM16 1c8.284 0 15 6.716 15 15h2c0-9.389-7.611-17-17-17v2Zm0-2C6.611-1-1 6.611-1 16h2C1 7.716 7.716 1 16 1v-2Z" fill="#fff"/></svg>