<svg xmlns="http://www.w3.org/2000/svg" width="32" height="32"><g fill="none" fill-rule="evenodd"><path d="M0 0h32v32H0z"/><path d="M1.722 5.706A34.748 34.748 0 0 1 16 2.882c4.905-.077 9.77.885 14.277 2.824.322-.567.605-1.155.847-1.76A41.395 41.395 0 0 0 16 1 41.426 41.426 0 0 0 .875 3.955c.236.605.52 1.19.847 1.75zm10.042 1.61L16 31.117l4.263-23.803c4.01 0 5.28.443 5.46 2.25a9.5 9.5 0 0 0 4.074-3.06 29.968 29.968 0 0 0-10.663-2.578l-3.125 3.765-3.125-3.765a29.923 29.923 0 0 0-10.673 2.58 9.505 9.505 0 0 0 4.066 3.059c.189-1.807 1.46-2.25 5.487-2.25z" fill="#E72629"/></g></svg>