<svg width="32" height="32" viewBox="0 0 32 32" fill="none" xmlns="http://www.w3.org/2000/svg">
<path d="M0 16C0 7.16344 7.16344 0 16 0C24.8366 0 32 7.16344 32 16C32 24.8366 24.8366 32 16 32C7.16344 32 0 24.8366 0 16Z" fill="#FAAF42"/>
<path d="M19.5129 15.5384C19.7187 15.5384 19.7934 15.7216 19.7934 15.9557V17.7412H20.9463V17.4959H20.6306V16.0491C20.6322 15.908 20.6201 15.767 20.5947 15.6282C20.52 15.32 20.2815 15.0858 19.8936 15.0858C19.7458 15.0838 19.6007 15.1252 19.4762 15.205C19.3517 15.2847 19.2535 15.3993 19.1936 15.5344H19.1806V15.1361H18.139V15.3735H18.3851V17.4959H18.139V17.7412H19.4648V17.4959H19.2237V15.9557C19.2237 15.7216 19.3071 15.5384 19.5129 15.5384Z" fill="#231F20"/>
<path d="M14.1598 15.5384C14.3663 15.5384 14.4417 15.7216 14.4417 15.9557L14.4399 17.7412H15.594V17.4959H15.2757V16.0491C15.2773 15.908 15.2653 15.767 15.2398 15.6282C15.1651 15.32 14.9255 15.0858 14.5369 15.0858C14.3894 15.0838 14.2447 15.1253 14.1206 15.2051C13.9966 15.2849 13.8988 15.3994 13.8394 15.5344H13.8265V15.1361H12.7849V15.3735H13.0313V17.4959H12.7849V17.7412H14.1127V17.4959H13.8724V15.9557C13.8724 15.7216 13.9533 15.5384 14.1598 15.5384Z" fill="#231F20"/>
<path d="M22.0749 17.3008V15.3735H22.4789V15.1361H22.0741V14.435H21.919C21.6853 14.6262 21.4034 14.8458 21.138 15.0525C21.0738 15.1025 21.0106 15.1518 20.9492 15.1997V15.3735H21.233V17.1525C21.233 17.5742 21.4743 17.7717 21.8881 17.7717C22.2415 17.7717 22.4006 17.6751 22.4006 17.6751V17.437C22.3505 17.4541 22.2981 17.4634 22.2451 17.4646C22.1618 17.4646 22.0749 17.4327 22.0749 17.3008Z" fill="#231F20"/>
<path d="M6.46272 14.7353C6.16712 14.4109 5.52887 13.7842 5.52887 13.7842V14.1347C5.21944 14.0288 4.8944 13.9758 4.56736 13.9778C3.163 13.9778 2 15.0589 2 16.4388C2 17.8188 3.04771 18.9031 4.56736 18.9031C5.41788 18.9031 6.10031 18.5755 6.47205 18.0716V17.8374C6.19837 18.1298 5.70666 18.4146 5.09104 18.4146C3.85692 18.4146 3.14684 17.5347 3.14684 16.4392C3.14684 15.3437 3.89571 14.458 5.09104 14.458C5.61866 14.458 6.18651 14.6961 6.46272 14.9806V14.7353Z" fill="#231F20"/>
<path fill-rule="evenodd" clip-rule="evenodd" d="M17.1711 17.2879C17.4498 17.2879 17.6351 17.1848 17.7529 17.048L17.893 17.1762C17.7027 17.5501 17.3769 17.7897 16.8611 17.7897C16.0587 17.7897 15.6507 17.1945 15.6507 16.4424C15.6507 15.6903 16.0634 15.0858 16.8611 15.0858C17.6588 15.0858 17.9648 15.6314 17.9648 16.3652C17.9648 16.4108 17.9609 16.5049 17.9562 16.5509H16.5397C16.5555 17.1564 16.9294 17.2879 17.1711 17.2879ZM16.8335 15.3545C16.595 15.3545 16.5397 15.6124 16.5397 16.2977H17.1316C17.1233 15.6059 17.0719 15.3545 16.8335 15.3545Z" fill="#231F20"/>
<path fill-rule="evenodd" clip-rule="evenodd" d="M5.18729 17.8662C4.34504 17.8662 3.85405 17.2265 3.85405 16.4392C3.85405 15.6508 4.34647 15.0118 5.18729 15.0118C6.02812 15.0118 6.52126 15.6519 6.52126 16.4392C6.52126 17.2265 6.02955 17.8662 5.18729 17.8662ZM5.18765 15.2848C4.91217 15.2848 4.83746 15.6354 4.83746 16.4306H4.8371C4.8371 17.2265 4.91504 17.577 5.18729 17.577C5.45955 17.577 5.53713 17.2265 5.53713 16.4306C5.53713 15.6346 5.46314 15.2848 5.18765 15.2848Z" fill="#231F20"/>
<path d="M8.11635 15.5384C8.32323 15.5384 8.39794 15.7216 8.39794 15.9557L8.3983 17.7412H9.55447V17.4959H9.2366V16.0491C9.23744 15.908 9.22542 15.7671 9.20069 15.6282C9.12562 15.32 8.88785 15.0858 8.49886 15.0858C8.35124 15.084 8.20633 15.1255 8.08208 15.2053C7.95784 15.285 7.85973 15.3995 7.79991 15.5344H7.78555V15.1361H6.74395V15.3735H6.9889V17.4959H6.74395V17.7412H8.06858V17.4959H7.82649V15.9557C7.82649 15.7216 7.90946 15.5384 8.11635 15.5384Z" fill="#231F20"/>
<path d="M11.9128 14.8287C11.6118 14.8287 11.4006 14.6778 11.4006 14.4454C11.4006 14.2166 11.6111 14.0643 11.9128 14.0643C12.2145 14.0643 12.4257 14.213 12.4257 14.4454C12.4257 14.6778 12.2138 14.8287 11.9128 14.8287Z" fill="#231F20"/>
<path d="M10.6772 17.3008V15.3735H11.0037V15.1361H10.6783V14.435H10.5235C10.302 14.6154 10.0385 14.821 9.78709 15.0173C9.70755 15.0794 9.6292 15.1405 9.55375 15.1997V15.3735H9.8357V17.1525C9.8357 17.5738 10.0774 17.7717 10.4901 17.7717C10.8432 17.7717 11.0027 17.6751 11.0027 17.6751V17.437C10.9528 17.454 10.9006 17.4633 10.8478 17.4646C10.7645 17.4646 10.6772 17.4327 10.6772 17.3008Z" fill="#231F20"/>
<path d="M26.4848 17.4959H26.1615L26.1619 14.1742H25.0341V14.4109H25.3243V17.7412H26.2035V17.8482H30V17.7268H26.4848V17.4959Z" fill="#231F20"/>
<path fill-rule="evenodd" clip-rule="evenodd" d="M23.9447 17.4287H23.9573L23.9591 17.7408H25.0323V17.4955H24.7611V16.0286C24.7611 15.4601 24.3797 15.0855 23.7375 15.0855C23.356 15.0855 22.9473 15.2686 22.6822 15.6741L22.8259 15.8501C22.8972 15.7566 22.989 15.6806 23.0942 15.6279C23.1994 15.5753 23.3152 15.5473 23.4329 15.5463C23.7224 15.5463 23.9199 15.7137 23.9199 16.0297V16.1931C23.9199 16.1931 23.7906 16.1389 23.5432 16.1389C22.9412 16.1389 22.5644 16.4704 22.5644 16.9923C22.5644 17.4247 22.8352 17.7897 23.2662 17.7897C23.5855 17.7897 23.7906 17.6442 23.9447 17.4287ZM23.74 16.3954C23.8467 16.3954 23.8987 16.4266 23.9214 16.4514V17.2541C23.8956 17.2801 23.8647 17.3003 23.8307 17.3137C23.7967 17.327 23.7603 17.3332 23.7238 17.3317C23.5101 17.3317 23.4343 17.1363 23.4343 16.8871C23.4343 16.6378 23.4886 16.3954 23.74 16.3954Z" fill="#231F20"/>
<path d="M11.248 17.4959V17.7412H12.5712V17.4959H12.3255V15.1361H11.248V15.3735H11.4904V17.4959H11.248Z" fill="#231F20"/>
<path d="M28.0993 17.1381L28.4584 16.8019L28.6061 16.9456L28.221 17.2667C28.1932 17.3104 28.1692 17.3565 28.1492 17.4043H27.8651C27.881 17.3014 28.0261 17.1748 28.0993 17.1381Z" fill="#231F20"/>
<path d="M26.9079 14.9935C26.8978 14.9974 26.6137 15.0732 26.6137 15.0732C26.548 15.0975 26.4842 15.1268 26.423 15.1609C26.3645 15.1997 26.2973 15.2643 26.2955 15.2992L26.5469 15.3559C26.5843 15.3138 26.6246 15.2745 26.6676 15.2381L26.7265 15.2115L26.9355 15.0014C26.9323 14.9975 26.9279 14.9946 26.9229 14.9932C26.918 14.9918 26.9128 14.9919 26.9079 14.9935Z" fill="#231F20"/>
<path d="M28.6258 15.6759C28.4684 15.5094 28.3243 15.3308 28.1948 15.1418C28.2799 14.982 28.3431 14.5578 28.3026 14.394C28.286 14.3438 28.147 14.1606 28.123 14.1344C28.1198 14.1312 28.116 14.1273 28.1117 14.1228C28.1094 14.1205 28.107 14.118 28.1045 14.1154C28.0578 14.0669 27.9679 13.9734 27.9204 13.9734C27.9106 13.9734 27.901 13.9761 27.8927 13.9814L27.9093 14.1229C27.7577 14.2177 27.5594 14.3484 27.3806 14.4774C27.3806 14.5277 27.3856 14.6042 27.3881 14.6311C27.4158 14.6541 27.4474 14.672 27.4815 14.6839C27.5021 14.6805 27.5345 14.6737 27.5717 14.6658C27.664 14.6464 27.7856 14.6208 27.8274 14.6264L27.6119 14.9436L27.3673 15.1149L27.0595 15.0194C27.0504 15.0173 27.0409 15.0177 27.032 15.0204C27.0231 15.0232 27.0151 15.0283 27.0088 15.0352L26.7872 15.2754C26.7804 15.2817 26.775 15.2894 26.7715 15.298C26.7681 15.3065 26.7665 15.3158 26.7671 15.325L26.7595 15.5965C26.7595 15.5965 26.7563 15.6379 26.7563 15.6842C26.7563 15.8785 26.8457 15.9694 26.8457 15.9694L26.993 15.76C26.9661 15.7119 26.945 15.6608 26.9302 15.6077C26.9302 15.5998 26.9341 15.3749 26.9341 15.3749L27.0778 15.2715L27.4589 15.5351C27.5183 15.6429 27.5873 15.745 27.665 15.8404C27.7304 15.9205 28.0601 16.1375 28.2199 16.2298C28.2395 16.3291 28.2656 16.427 28.2982 16.5229L28.7652 16.993L28.4882 17.3331C28.3909 17.3938 28.2979 17.5045 28.3054 17.6076H28.624L28.6599 17.428L29.0399 17.012C29.0597 16.9891 29.0597 16.9761 29.0493 16.9438L28.9397 16.5846C28.9936 16.5221 29.1107 16.3691 29.1107 16.1863C29.1107 15.937 28.9004 15.8277 28.7473 15.748C28.6972 15.722 28.6532 15.6991 28.6247 15.6756L28.6258 15.6759Z" fill="#231F20"/>
<path d="M29.2238 16.2291C29.2027 16.1476 29.1729 16.0688 29.1348 15.9938C29.1348 15.9938 29.1509 15.978 29.1818 15.9977C29.2127 16.0175 29.4117 16.1493 29.4117 16.1493C29.5126 16.2951 29.5744 16.891 29.579 17.1047C29.4664 17.055 29.3614 16.9894 29.2673 16.91L29.2238 16.2291Z" fill="#231F20"/>
<path d="M25.4586 19.231H25.3383V20.2008H25.5308V19.4699C25.612 19.4235 25.7104 19.3736 25.8182 19.3736C25.9119 19.3736 25.9669 19.407 25.9669 19.5266V20.1997H26.1604V19.4835C26.1604 19.2716 26.0444 19.2159 25.9069 19.2159C25.7699 19.22 25.6379 19.2682 25.5305 19.3531C25.5258 19.2511 25.5057 19.231 25.4586 19.231Z" fill="#231F20"/>
<path fill-rule="evenodd" clip-rule="evenodd" d="M24.6142 20.213C24.8825 20.213 25.0858 20.0269 25.0858 19.7191C25.0858 19.4113 24.8825 19.2163 24.6142 19.2163C24.3459 19.2163 24.1437 19.4088 24.1437 19.7191C24.1437 20.0294 24.3473 20.213 24.6142 20.213ZM24.6142 20.0693C24.4501 20.0693 24.3405 19.9522 24.3405 19.7177C24.3405 19.4831 24.4501 19.3585 24.6142 19.3585C24.7784 19.3585 24.8901 19.4849 24.8901 19.7177C24.8901 19.9504 24.7823 20.0693 24.6142 20.0693Z" fill="#231F20"/>
<path d="M23.7935 19.125C23.8225 19.1252 23.8505 19.1141 23.8714 19.094C23.8924 19.0738 23.9046 19.0463 23.9056 19.0173C23.9066 18.9947 23.9009 18.9723 23.8891 18.9529C23.8773 18.9336 23.86 18.9183 23.8393 18.9089C23.8187 18.8995 23.7958 18.8966 23.7734 18.9004C23.7511 18.9042 23.7305 18.9147 23.7141 18.9304C23.6978 18.9461 23.6866 18.9663 23.6819 18.9884C23.6772 19.0106 23.6792 19.0337 23.6878 19.0546C23.6963 19.0756 23.711 19.0935 23.7298 19.1061C23.7487 19.1186 23.7709 19.1252 23.7935 19.125Z" fill="#231F20"/>
<path d="M23.8862 20.2026V19.3757C23.8862 19.254 23.8768 19.2321 23.8018 19.2321H23.694V20.2018L23.8862 20.2026Z" fill="#231F20"/>
<path d="M22.8614 19.3675H22.98V19.9637C22.98 20.1433 23.0795 20.2151 23.2458 20.2151C23.299 20.2154 23.352 20.2087 23.4034 20.1954V20.0736H23.314C23.2167 20.0736 23.1732 20.0442 23.1732 19.9429V19.3682H23.3923V19.2346H23.1725V18.9717H22.9793V19.2346H22.8607L22.8614 19.3675Z" fill="#231F20"/>
<path fill-rule="evenodd" clip-rule="evenodd" d="M22.2426 20.2159C22.5098 20.2159 22.7138 20.0298 22.7138 19.722C22.7138 19.4142 22.5098 19.2192 22.2426 19.2192C21.9754 19.2192 21.7706 19.4117 21.7706 19.722C21.7706 20.0323 21.9739 20.2159 22.2426 20.2159ZM22.2426 20.0722C22.0759 20.0722 21.966 19.9551 21.966 19.7206C21.966 19.486 22.0759 19.3614 22.2426 19.3614C22.4092 19.3614 22.5181 19.4878 22.5181 19.7206C22.5181 19.9533 22.4103 20.0722 22.2426 20.0722Z" fill="#231F20"/>
<path d="M20.2513 20.204H20.4205V19.1423H20.4299L20.802 20.1997H20.9302L21.3087 19.1423H21.3134V20.1997H21.5167V18.9031H21.2376L20.8896 19.8869H20.886L20.5362 18.9031H20.2513V20.204Z" fill="#231F20"/>
<path d="M18.7493 19.2342H18.629V20.204H18.8211V19.4699C18.9026 19.4235 19.0043 19.3736 19.1106 19.3736C19.2044 19.3736 19.2589 19.407 19.2589 19.5266V20.1997H19.4522V19.4835C19.4522 19.2716 19.3376 19.2159 19.1982 19.2159C19.0611 19.2203 18.929 19.2684 18.8211 19.3531C18.8175 19.2511 18.7963 19.231 18.7493 19.231V19.2342Z" fill="#231F20"/>
<path d="M18.2105 19.1233C18.2397 19.1236 18.2678 19.1125 18.289 19.0923C18.3101 19.0722 18.3225 19.0447 18.3237 19.0155C18.322 18.9865 18.3094 18.9593 18.2883 18.9394C18.2672 18.9195 18.2393 18.9084 18.2103 18.9084C18.1813 18.9084 18.1535 18.9195 18.1324 18.9394C18.1113 18.9593 18.0987 18.9865 18.097 19.0155C18.0981 19.0447 18.1105 19.0724 18.1318 19.0926C18.153 19.1127 18.1813 19.1237 18.2105 19.1233Z" fill="#231F20"/>
<path d="M18.3036 20.2008V19.3757C18.3036 19.254 18.2956 19.2321 18.2199 19.2321H18.1121V20.2018L18.3036 20.2008Z" fill="#231F20"/>
<path fill-rule="evenodd" clip-rule="evenodd" d="M17.3834 19.7529V19.6861C17.3834 19.3675 17.2307 19.217 16.9696 19.217C16.7085 19.217 16.521 19.4095 16.521 19.7198C16.521 20.0302 16.6884 20.2137 16.9879 20.2137C17.1176 20.219 17.2457 20.1832 17.3539 20.1113V19.9806H17.2921C17.214 20.0411 17.1173 20.0727 17.0184 20.07C16.8338 20.07 16.7282 19.9813 16.7178 19.7525L17.3834 19.7529ZM16.9705 19.3467C17.1065 19.3467 17.1894 19.4186 17.1944 19.6279H16.7225C16.744 19.4218 16.8427 19.3467 16.9705 19.3467ZM16.9705 19.3467C16.9705 19.3467 16.9706 19.3467 16.9707 19.3467H16.9703C16.9704 19.3467 16.9704 19.3467 16.9705 19.3467Z" fill="#231F20"/>
<path d="M16.3331 19.3844C16.3392 19.3844 16.3748 19.3872 16.3748 19.3872V19.2303C16.358 19.2249 16.3404 19.2225 16.3227 19.2231C16.268 19.2253 16.2145 19.2392 16.1657 19.264C16.1169 19.2888 16.074 19.3239 16.04 19.3668C16.0361 19.2533 16.0153 19.2332 15.9682 19.2332H15.8486V20.2029H16.04V19.4928C16.1211 19.4219 16.2255 19.3836 16.3331 19.3851V19.3844Z" fill="#231F20"/>
<path d="M15.048 20.0675C14.9575 20.0675 14.8954 20.0381 14.8954 19.9138V19.231H14.7036V19.9529C14.7036 20.1498 14.8178 20.2133 14.9722 20.2133C15.1009 20.2087 15.2253 20.166 15.3296 20.0905C15.3339 20.1853 15.3533 20.1983 15.3982 20.1983H15.5221V19.2285H15.3296V19.9702C15.2455 20.0238 15.1493 20.0553 15.0498 20.0618L15.048 20.0675Z" fill="#231F20"/>
<path d="M13.9234 19.3621H14.042V19.9583C14.042 20.1379 14.1411 20.2097 14.3092 20.2097C14.3619 20.21 14.4144 20.2034 14.4654 20.19V20.0682H14.3774C14.2797 20.0682 14.2338 20.0388 14.2338 19.9375V19.3628H14.4539V19.2292H14.2338V18.9663H14.0409V19.2292H13.9224L13.9234 19.3621Z" fill="#231F20"/>
<path d="M13.2033 20.0618C13.1124 20.0618 13.0507 20.0323 13.0507 19.908V19.231H12.8585V19.9529C12.8585 20.1498 12.9738 20.2133 13.1282 20.2133C13.2564 20.2088 13.3802 20.1661 13.4838 20.0905C13.4896 20.1853 13.5097 20.1983 13.5535 20.1983H13.6742V19.2285H13.4824V19.9702C13.3986 20.0239 13.3026 20.0554 13.2033 20.0618Z" fill="#231F20"/>
<path d="M12.0899 20.1972V19.6419H12.5528V19.4928H12.0892V19.059H12.6979V18.9031H11.8859V20.1997L12.0899 20.1972Z" fill="#231F20"/>
<path fill-rule="evenodd" clip-rule="evenodd" d="M11.1402 19.7518C11.1402 19.749 11.1405 19.7431 11.1408 19.7355C11.1415 19.7215 11.1424 19.7019 11.1424 19.685C11.1424 19.3664 10.9886 19.2159 10.7293 19.2159C10.47 19.2159 10.2786 19.4084 10.2786 19.7188C10.2786 20.0291 10.4463 20.2126 10.7491 20.2126C10.8775 20.2178 11.0043 20.1828 11.1118 20.1124V19.9806H11.049C10.9707 20.0414 10.8737 20.0731 10.7746 20.07C10.5914 20.07 10.4854 19.9813 10.4757 19.7525L11.1402 19.7518ZM10.729 19.3431C10.8637 19.3431 10.9477 19.4149 10.9513 19.6243H10.4786C10.4984 19.4181 10.5997 19.3431 10.7282 19.3431H10.729Z" fill="#231F20"/>
<path d="M9.39967 19.0281C9.39967 18.9203 9.3853 18.9034 9.31203 18.9034H9.20679V20.1997H9.39967V19.4699C9.47977 19.4235 9.57926 19.3736 9.68701 19.3736C9.78039 19.3736 9.83714 19.407 9.83714 19.5266V20.1997H10.0268V19.4835C10.0268 19.2716 9.91293 19.2159 9.77536 19.2159C9.63843 19.2201 9.50647 19.2682 9.39895 19.3531L9.39967 19.0281Z" fill="#231F20"/>
<path d="M8.60159 20.1997V19.055H8.98159V18.9031H8.01757V19.0546H8.3965V20.1997H8.60159Z" fill="#231F20"/>
</svg>
