<svg xmlns="http://www.w3.org/2000/svg" width="32" height="32" viewBox="0 0 32 32">
    <g fill="none" fill-rule="evenodd">
        <g>
            <g>
                <g>
                    <g>
                        <g>
                            <g>
                                <g>
                                    <path d="M0 0H32V32H0z" transform="translate(-691 -3331) translate(0 1273) translate(324 458) translate(0 728) translate(131 24) translate(220 832) translate(16 16)"/>
                                    <g>
                                        <path fill="#000" fill-rule="nonzero" d="M0 4c0-2.21 1.79-4 4-4h24c2.21 0 4 1.79 4 4v24c0 2.21-1.79 4-4 4H4c-2.21 0-4-1.79-4-4V4z" transform="translate(-691 -3331) translate(0 1273) translate(324 458) translate(0 728) translate(131 24) translate(220 832) translate(16 16)"/>
                                        <path fill="#FFF" d="M12.6 14.83v-3l-1.18-.03V20h1.22v-.72c.274.273.596.494.95.65.372.16.774.243 1.18.24.423 0 .84-.085 1.23-.25.748-.315 1.346-.906 1.67-1.65.163-.382.244-.794.24-1.21.003-.415-.08-.827-.24-1.21-.154-.375-.382-.715-.67-1-.289-.283-.628-.51-1-.67-.39-.162-.808-.243-1.23-.24-.403-.003-.801.078-1.17.24-.372.151-.711.372-1 .65zm.57 3.66c-.184-.19-.33-.415-.43-.66-.213-.519-.213-1.101 0-1.62.107-.246.26-.47.45-.66.189-.193.414-.345.664-.448.249-.103.516-.155.786-.152.271-.003.54.051.79.16.244.102.464.252.65.44.187.19.336.414.44.66.213.519.213 1.101 0 1.62-.1.247-.247.471-.434.66-.187.189-.41.338-.656.44-.25.109-.518.163-.79.16-.278.004-.554-.05-.81-.16-.244-.107-.467-.256-.66-.44zm-7.37-.02c-.186-.199-.329-.434-.42-.69-.104-.285-.155-.587-.15-.89v-5.06H4V17c-.014.428.05.855.19 1.26.152.374.376.714.66 1 .282.287.623.509 1 .65.388.154.802.232 1.22.23.412.003.82-.078 1.2-.24.378-.149.719-.377 1-.67V20h1.18v-8.17H9.22v5.06c.004.303-.047.605-.15.89-.094.255-.24.486-.43.68-.182.19-.4.344-.64.45-.241.101-.499.155-.76.16-.275.004-.548-.05-.8-.16-.245-.094-.464-.245-.64-.44zm12.72-2.62c.147-.373.368-.713.65-1 .28-.294.621-.523 1-.67.38-.17.793-.255 1.21-.25.411-.002.819.076 1.2.23.358.155.681.38.95.661.27.282.48.615.62.98.132.385.196.791.19 1.2v.39h-4.86c.04.235.12.462.24.67.109.204.255.387.43.54.18.15.383.27.6.36.432.15.901.16 1.338.024.438-.135.82-.407 1.092-.775l.85.63c-.286.395-.663.714-1.1.93-.454.233-.96.35-1.47.34-.428.007-.853-.071-1.25-.23-.375-.15-.715-.375-1-.66-.288-.287-.52-.626-.68-1-.313-.78-.313-1.65 0-2.43l-.01.06zm1.65-.46c-.343.28-.58.668-.67 1.1h3.64c-.08-.432-.31-.822-.65-1.1-.326-.272-.736-.42-1.16-.42-.424 0-.835.148-1.16.42zm6 1.24c-.022-.405.114-.803.38-1.11.12-.135.268-.243.434-.315.165-.073.345-.109.526-.105H28V14h-.41c-.28-.013-.558.047-.808.175-.249.128-.46.32-.612.555V14H25v6h1.17v-3.37z" transform="translate(-691 -3331) translate(0 1273) translate(324 458) translate(0 728) translate(131 24) translate(220 832) translate(16 16)"/>
                                    </g>
                                </g>
                            </g>
                        </g>
                    </g>
                </g>
            </g>
        </g>
    </g>
</svg>
