<svg xmlns="http://www.w3.org/2000/svg" width="32" height="32" viewBox="0 0 32 32">
    <g fill="none" fill-rule="evenodd">
        <g>
            <g>
                <g>
                    <g>
                        <g>
                            <g>
                                <g>
                                    <path d="M0 0H32V32H0z" transform="translate(-911 -3267) translate(0 1273) translate(324 458) translate(0 728) translate(131 24) translate(440 768) translate(16 16)"/>
                                    <g fill="#E72629">
                                        <path d="M1.722 4.706C6.23 2.767 11.094 1.805 16 1.882c4.905-.077 9.77.885 14.277 2.824.322-.567.605-1.155.847-1.76C26.312 1.026 21.181.027 16 0 10.818.03 5.687 1.033.875 2.955c.236.605.52 1.19.847 1.75zm10.042 1.61L16 30.117l4.263-23.803c4.01 0 5.28.443 5.46 2.25 1.61-.63 3.02-1.687 4.074-3.06-3.365-1.508-6.98-2.382-10.663-2.578l-3.125 3.765-3.125-3.765C9.198 3.12 5.58 3.995 2.211 5.506c1.052 1.37 2.458 2.428 4.066 3.059.189-1.807 1.46-2.25 5.487-2.25z" transform="translate(-911 -3267) translate(0 1273) translate(324 458) translate(0 728) translate(131 24) translate(440 768) translate(16 16) translate(0 1)"/>
                                    </g>
                                </g>
                            </g>
                        </g>
                    </g>
                </g>
            </g>
        </g>
    </g>
</svg>
