<svg xmlns="http://www.w3.org/2000/svg" width="32" height="32" viewBox="0 0 32 32">
    <g fill="none" fill-rule="evenodd">
        <g>
            <g>
                <g>
                    <g>
                        <g>
                            <g>
                                <g>
                                    <path d="M0 0H32V32H0z" transform="translate(-691 -2819) translate(0 1273) translate(324 458) translate(0 728) translate(131 24) translate(220 320) translate(16 16)"/>
                                    <g fill-rule="nonzero">
                                        <path fill="#E53338" d="M4.14 3.39C1.88 3.39 0 4.34 0 7.23 0 9.52 1.26 11 4.2 11c3.45 0 3.67-2.27 3.67-2.27H6.2c-.168.407-.466.748-.848.968-.381.221-.825.31-1.262.252-.314.02-.629-.024-.925-.13-.296-.107-.567-.273-.796-.489-.229-.216-.41-.476-.535-.766-.123-.289-.186-.6-.184-.915H8v-.84c0-1.37-.8-3.42-3.86-3.42zm-.06 1.07c.288-.03.58.002.855.093.276.09.529.239.743.434.214.195.385.434.5.7.117.266.175.553.172.843H1.69c.019-.294.096-.58.227-.844.13-.264.313-.498.535-.691.222-.193.48-.34.76-.431.28-.092.575-.127.868-.104z" transform="translate(-691 -2819) translate(0 1273) translate(324 458) translate(0 728) translate(131 24) translate(220 320) translate(16 16) translate(0 9)"/>
                                        <path fill="#3466B1" d="M8 .59v10.14h1.6c.037-.332.057-.666.06-1 .347.435.796.779 1.307 1 .51.222 1.068.314 1.623.27.506.025 1.011-.057 1.484-.24.472-.184.9-.464 1.258-.823.357-.359.635-.789.815-1.262.18-.473.26-.98.233-1.485.023-.502-.06-1.004-.242-1.473-.183-.468-.462-.894-.819-1.248-.357-.354-.784-.63-1.254-.809-.47-.179-.973-.257-1.475-.23-2.23 0-2.92 1.2-2.92 1.2v-4L8 .59zm4.14 3.92c.344-.006.686.059 1.004.192.317.134.604.332.84.583.236.25.418.547.532.872.115.325.16.67.134 1.013.045.355.014.715-.091 1.057-.105.342-.282.658-.518.926-.237.268-.528.483-.854.63-.326.148-.68.224-1.037.224-.358 0-.711-.076-1.037-.223-.326-.148-.617-.363-.854-.63-.236-.27-.413-.585-.518-.927-.105-.342-.136-.702-.091-1.057-.025-.345.022-.69.139-1.016.116-.326.3-.623.537-.874.239-.25.527-.448.846-.58.319-.133.662-.198 1.008-.19h-.04z" transform="translate(-691 -2819) translate(0 1273) translate(324 458) translate(0 728) translate(131 24) translate(220 320) translate(16 16) translate(0 9)"/>
                                        <path fill="#F3AF1C" d="M20.34 3.39c-3.4 0-3.62 1.86-3.62 2.15h1.69s.09-1.08 1.81-1.08c1.12 0 2 .51 2 1.49v.35h-2c-2.63 0-4 .77-4 2.33s1.29 2.37 3 2.37c2.37 0 3.13-1.3 3.13-1.3v1h1.5s-.05-.64-.05-1V6.17c0-2.3-1.86-2.78-3.5-2.78h.04zm1.86 4v.47c0 .6-.37 2.12-2.58 2.12-1.21 0-1.73-.61-1.73-1.31 0-1.31 1.75-1.32 4.31-1.32v.04z" transform="translate(-691 -2819) translate(0 1273) translate(324 458) translate(0 728) translate(131 24) translate(220 320) translate(16 16) translate(0 9)"/>
                                        <path fill="#86B940" d="M22.92 3.68L24.83 3.68 27.56 9.14 30.28 3.68 32 3.68 27 13.41 25.23 13.41 26.67 10.7 22.92 3.7z" transform="translate(-691 -2819) translate(0 1273) translate(324 458) translate(0 728) translate(131 24) translate(220 320) translate(16 16) translate(0 9)"/>
                                    </g>
                                </g>
                            </g>
                        </g>
                    </g>
                </g>
            </g>
        </g>
    </g>
</svg>
