<svg xmlns="http://www.w3.org/2000/svg" xmlns:xlink="http://www.w3.org/1999/xlink" width="32" height="32" viewBox="0 0 32 32">
    <defs>
        <path id="3lt5u3bwia" d="M0 0H32V32H0z"/>
    </defs>
    <g fill="none" fill-rule="evenodd">
        <g>
            <g>
                <g>
                    <g>
                        <g>
                            <g>
                                <g transform="translate(-691 -2947) translate(0 1273) translate(324 458) translate(0 728) translate(131 24) translate(220 448) translate(16 16)">
                                    <mask id="3o9kaw92mb" fill="#fff">
                                        <use xlink:href="#3lt5u3bwia"/>
                                    </mask>
                                    <g fill="#00A1DD" mask="url(#3o9kaw92mb)">
                                        <path d="M26 11L23.496 11 20 21 22.494 21z"/>
                                        <path d="M16.042 32h-.48l3.262-9h4.489c.415-.02.816-.158 1.157-.396.34-.24.606-.57.768-.954l3.54-9.75c.165-.322.24-.682.216-1.042-.024-.36-.144-.708-.349-1.006-.204-.297-.485-.533-.813-.683-.328-.15-.69-.209-1.048-.169H20.52l-5.216 14.4-2.993 8.15c-3.451-.812-6.535-2.754-8.764-5.518C1.32 23.267.072 19.837.003 16.282c-.069-3.554 1.045-7.03 3.166-9.879C5.289 3.555 8.295 1.496 11.713.55L8.68 9 3.594 23h3.381l4.319-11.89h2.543L9.52 23h3.38l3.99-11.1c.165-.322.24-.682.216-1.042-.024-.36-.144-.708-.349-1.006-.204-.297-.485-.533-.813-.683-.328-.15-.69-.209-1.048-.169h-2.843l3.262-9h.728c4.232 0 8.291 1.686 11.284 4.686C30.319 7.686 32 11.756 32 16s-1.681 8.313-4.674 11.314c-2.993 3-7.052 4.686-11.284 4.686z"/>
                                    </g>
                                </g>
                            </g>
                        </g>
                    </g>
                </g>
            </g>
        </g>
    </g>
</svg>
