<svg xmlns="http://www.w3.org/2000/svg" xmlns:xlink="http://www.w3.org/1999/xlink" width="32" height="32" viewBox="0 0 32 32">
    <defs>
        <path id="t9f5l5lr7a" d="M0 0H32V32H0z"/>
    </defs>
    <g fill="none" fill-rule="evenodd">
        <g>
            <g>
                <g>
                    <g>
                        <g>
                            <g>
                                <g transform="translate(-911 -2691) translate(0 1273) translate(324 458) translate(0 728) translate(131 24) translate(440 192) translate(16 16)">
                                    <mask id="v6avxxs62b" fill="#fff">
                                        <use xlink:href="#t9f5l5lr7a"/>
                                    </mask>
                                    <path fill="#00A1E0" fill-rule="nonzero" d="M13.324 7.508c1.034-1.106 2.47-1.789 4.063-1.789 2.11 0 3.957 1.213 4.938 3.002.849-.396 1.794-.611 2.793-.611 3.808 0 6.899 3.2 6.899 7.145 0 3.946-3.091 7.146-6.9 7.146-.455 0-.91-.045-1.357-.135-.866 1.582-2.512 2.651-4.403 2.651-.788 0-1.541-.189-2.207-.521C16.275 26.508 14.235 28 11.854 28c-2.478 0-4.588-1.609-5.402-3.865-.35.081-.718.117-1.095.117-2.95 0-5.34-2.48-5.34-5.546 0-2.049 1.076-3.837 2.67-4.799-.333-.773-.508-1.636-.508-2.535C2.17 7.85 4.954 5 8.386 5c2.014 0 3.809.98 4.938 2.508z" mask="url(#v6avxxs62b)"/>
                                    <path fill="#FFF" d="M18.982 13.072c.035.008.068.016.103.026.01 0 .044.018.027.072l-.14.395c-.01.027-.018.045-.08.027-.017-.009-.034-.018-.096-.027-.035-.008-.096-.018-.148-.018-.08 0-.14.01-.202.027-.061.018-.114.054-.157.1-.007.007-.014.015-.02.024-.041.048-.09.105-.112.182-.07.207-.096.413-.096.431h.595c.053 0 .07.027.062.063l-.07.396c-.01.054-.062.054-.062.054h-.613l-.42 2.426c-.044.252-.105.468-.166.639-.07.17-.14.296-.245.422-.097.108-.21.198-.342.243-.131.045-.289.072-.455.072-.079 0-.166 0-.271-.027-.053-.014-.09-.027-.129-.04l-.038-.014c-.017-.01-.035-.036-.026-.072.011-.023.057-.153.094-.257l.046-.13c.026-.045.07-.027.07-.027.026.018.053.027.096.036.044.01.105.018.15.018.078 0 .157-.018.218-.036.07-.027.123-.072.166-.135.053-.062.088-.152.132-.27.044-.116.079-.278.114-.466l.411-2.382h-.411c-.053 0-.07-.027-.062-.063l.07-.396c.01-.054.062-.054.062-.054h.42l.026-.125c.07-.378.193-.675.377-.863.184-.189.455-.288.788-.288.096 0 .183.01.253.018l.081.02zm-8.24 4.197c.026 0 .052-.018.052-.054v-4.063c0-.027-.017-.054-.052-.054h-.49c-.036 0-.053.018-.053.054v4.063c0 .026.017.053.052.053h.49zm-6.082-.274c-.01-.009-.027-.022-.013-.068l.132-.369c.025-.06.066-.038.085-.028l.002.002c.035.026.062.044.105.071.386.252.736.252.85.252.289 0 .464-.162.464-.369v-.008c0-.225-.272-.315-.587-.414l-.07-.018c-.429-.126-.893-.305-.893-.872v-.009c0-.539.42-.907 1.024-.907h.062c.35 0 .691.107.937.26.026.01.043.036.035.072-.005.018-.035.101-.066.184-.03.084-.062.167-.066.185-.026.063-.087.018-.087.018-.21-.117-.552-.216-.832-.216-.254 0-.42.135-.42.323v.01c0 .22.272.311.59.417l.014.005.052.018c.43.144.893.341.893.872v.009c0 .575-.411.934-1.068.934-.324 0-.63-.053-.954-.233-.061-.036-.123-.072-.184-.117l-.005-.004zm9.604 0c-.01-.009-.027-.022-.012-.068l.122-.369c.018-.053.08-.035.088-.026.035.026.061.044.105.071.385.252.736.252.85.252.288 0 .463-.162.463-.369v-.008c0-.225-.271-.315-.586-.414l-.07-.018c-.43-.126-.893-.305-.893-.872v-.009c0-.539.42-.907 1.024-.907h.07c.35 0 .692.107.937.26.026.01.044.036.035.072-.005.018-.035.101-.066.184-.03.084-.061.167-.066.185-.026.063-.087.018-.087.018-.21-.117-.552-.216-.832-.216-.254 0-.42.135-.42.323v.01c0 .22.272.311.59.417l.014.005.053.018c.429.144.893.341.893.872v.009c0 .575-.412.934-1.068.934-.324 0-.63-.053-.955-.233-.061-.036-.122-.072-.184-.117 0-.002-.003-.003-.005-.004zm6.38-.437c.113-.18.174-.44.174-.764 0-.323-.061-.584-.175-.764-.114-.17-.289-.26-.534-.26-.245 0-.42.08-.534.26-.114.18-.175.44-.175.764s.061.585.175.764c.114.18.289.27.534.27.245 0 .42-.09.534-.27zm.472-1.851c.105.135.192.296.245.485.061.189.088.387.088.602 0 .216-.027.414-.08.603-.052.18-.13.35-.244.485-.114.135-.254.243-.42.324-.167.08-.368.116-.587.116-.22 0-.42-.035-.587-.116-.166-.072-.306-.19-.42-.324-.114-.135-.201-.297-.254-.485-.052-.18-.079-.387-.079-.602 0-.216.027-.414.08-.603.052-.18.13-.35.244-.485.114-.144.254-.252.42-.333.167-.072.368-.116.587-.116.219 0 .42.036.587.116.166.081.306.198.42.333zm4.675 1.995s.053-.018.07.036l.14.369c.018.045-.026.063-.026.063-.21.08-.5.143-.78.143-.48 0-.84-.143-1.085-.422s-.368-.656-.368-1.123c0-.216.027-.414.088-.603.053-.18.149-.35.263-.485.113-.144.262-.252.437-.333.175-.08.386-.116.613-.116.158 0 .29.009.412.027.131.027.297.072.367.098.018 0 .053.018.035.063-.026.092-.052.164-.078.236l-.053.15c-.017.055-.061.037-.061.037-.175-.054-.35-.081-.578-.081-.271 0-.473.099-.604.279-.131.18-.21.422-.21.737 0 .35.087.61.236.772.158.162.368.243.63.243.106 0 .21 0 .298-.018.072-.007.144-.033.211-.057l.043-.015zm1.182-1.672c-.07.117-.122.27-.149.45h1.322c-.009-.17-.044-.333-.122-.45-.114-.18-.272-.278-.517-.278s-.42.099-.534.278zm1.462-.395c.079.09.193.27.237.45.09.343.07.646.062.76-.002.03-.003.046-.001.048 0 .054-.053.054-.053.054h-1.856c.018.297.079.495.22.638.13.135.34.225.63.225.414 0 .61-.08.74-.135l.021-.009s.053-.018.07.036l.123.35c.026.055 0 .082-.018.09-.122.064-.402.19-.936.19-.263.008-.49-.037-.675-.108-.183-.072-.341-.18-.464-.315-.122-.135-.219-.297-.271-.485-.061-.19-.088-.396-.088-.611 0-.216.027-.423.08-.612.052-.189.14-.35.253-.494.114-.135.254-.252.43-.333.174-.09.384-.125.612-.125.201 0 .385.044.534.107.114.054.228.144.35.279zm-16.32.396c-.07.116-.122.27-.148.449h1.322c-.018-.17-.044-.333-.123-.45-.114-.18-.271-.278-.516-.278s-.42.099-.534.278zm1.463-.396c.079.09.192.27.236.45.09.343.07.646.063.76-.002.03-.003.046-.002.048 0 .054-.052.054-.052.054h-1.856c.017.297.079.495.219.638.131.135.341.225.63.225.415 0 .61-.08.74-.135l.022-.009s.052-.018.07.036l.122.35c.027.055 0 .082-.017.09-.123.064-.403.19-.937.19-.263.008-.49-.037-.674-.108-.184-.072-.342-.18-.464-.315-.123-.135-.219-.297-.272-.485-.06-.19-.087-.396-.087-.611 0-.216.026-.423.079-.612.052-.189.14-.35.254-.494.113-.135.254-.252.429-.333.175-.09.385-.125.613-.125.2 0 .385.044.533.107.114.054.228.144.35.279zm-5.726 1.977c.026.045.035.054.105.117 0 0 .166.135.543.108.262-.018.499-.072.499-.072v-.863s-.237-.045-.5-.045c-.376-.009-.533.135-.533.135-.114.081-.167.198-.167.369 0 .108.018.188.053.251zm.551-1.231c.114 0 .21 0 .29.009 0 0 .148.018.297.027v-.08c0-.253-.044-.37-.149-.45-.096-.081-.254-.126-.455-.126 0 0-.447 0-.805.198-.01.009-.027.018-.027.018s-.044.018-.061-.027l-.131-.36c-.018-.045.017-.072.017-.072.166-.135.57-.216.57-.216.14-.027.358-.044.498-.044.368 0 .657.09.85.26.2.18.297.468.297.845v1.744s0 .054-.044.063c-.043.018-.087.027-.131.036-.043.006-.161.03-.291.055l-.173.035c-.184.026-.368.044-.56.044-.184 0-.342-.018-.49-.053-.15-.037-.272-.09-.377-.171-.105-.072-.193-.18-.245-.297-.062-.117-.088-.26-.088-.431 0-.171.035-.315.096-.44.07-.127.158-.234.272-.315.114-.09.236-.153.385-.189.14-.045.298-.063.455-.063zm15.231-1.038c.013.01.036.03.02.067-.017.054-.104.315-.148.387-.018.036-.035.054-.07.054 0 0-.105-.027-.201-.027-.062 0-.158.009-.245.036-.08.027-.158.08-.228.144-.07.063-.123.161-.166.278-.044.126-.062.315-.062.504v1.42c0 .027-.017.053-.052.053h-.49c-.027 0-.053-.018-.053-.053v-2.84c0-.028.017-.054.052-.054h.473c.026 0 .053.018.053.053v.234c.07-.09.201-.18.315-.234.122-.053.245-.098.481-.08.123.008.28.044.316.053 0 .002.003.003.005.005z" mask="url(#v6avxxs62b)"/>
                                </g>
                            </g>
                        </g>
                    </g>
                </g>
            </g>
        </g>
    </g>
</svg>
