<svg xmlns="http://www.w3.org/2000/svg" width="32" height="32" viewBox="0 0 32 32">
    <g fill="none" fill-rule="evenodd">
        <g>
            <g>
                <g>
                    <g>
                        <g>
                            <g>
                                <g>
                                    <path d="M0 0H32V32H0z" transform="translate(-471 -2563) translate(0 1273) translate(324 458) translate(0 728) translate(131 24) translate(0 64) translate(16 16)"/>
                                    <g fill="#1BA3DD">
                                        <path d="M30.67 1.91H1.33v14.18h29.34V1.91zM32 17.38H0V.62h32v16.76zm-8.38-8.57h4v.31c.016.636-.069 1.27-.25 1.88-.18.523-.466 1.003-.84 1.41-.435.48-.969.859-1.564 1.113-.596.253-1.239.375-1.886.357-.647.011-1.29-.11-1.89-.353-.6-.244-1.144-.607-1.6-1.067-.463-.448-.831-.985-1.083-1.579-.251-.593-.38-1.231-.38-1.876 0-.645.129-1.283.38-1.876.252-.593.62-1.13 1.083-1.579.474-.468 1.037-.836 1.655-1.083.618-.247 1.28-.369 1.945-.357.731-.007 1.455.147 2.12.45.717.353 1.36.842 1.89 1.44l-1.05 1c-.325-.473-.759-.86-1.266-1.128-.506-.268-1.07-.41-1.644-.412-.475-.017-.95.062-1.393.234-.444.172-.848.433-1.187.766-.344.326-.616.72-.797 1.158-.18.438-.267.909-.253 1.382-.012.493.087.983.29 1.433.202.45.503.849.88 1.167.64.595 1.477.93 2.35.94.713.006 1.404-.242 1.95-.7.273-.203.502-.46.674-.753.171-.294.282-.62.326-.957h-2.46V8.81zM9.71 10.09l-1.44-3.2h-.05l-1.51 3.2h3zm-6.22 3.62L8 4.3h.57l4.35 9.41h-1.61l-1-2.29H6.15l-1.08 2.29H3.49zm10.97 0h1.47V4.3h-1.47v9.41z" transform="translate(-471 -2563) translate(0 1273) translate(324 458) translate(0 728) translate(131 24) translate(0 64) translate(16 16) translate(0 7)"/>
                                    </g>
                                </g>
                            </g>
                        </g>
                    </g>
                </g>
            </g>
        </g>
    </g>
</svg>
