<svg xmlns="http://www.w3.org/2000/svg" width="32" height="32" viewBox="0 0 32 32">
    <g fill="none" fill-rule="evenodd">
        <g>
            <g>
                <g>
                    <g>
                        <g>
                            <g>
                                <g>
                                    <path d="M0 0H32V32H0z" transform="translate(-471 -3331) translate(0 1273) translate(324 458) translate(0 728) translate(131 24) translate(0 832) translate(16 16)"/>
                                    <g fill="#60AADD" fill-rule="nonzero">
                                        <path d="M32 4.08c-1.2.518-2.47.855-3.77 1 1.37-.821 2.397-2.11 2.89-3.63-1.272.769-2.665 1.316-4.12 1.62-.898-.978-2.07-1.661-3.364-1.96-1.293-.298-2.647-.197-3.882.289-1.235.486-2.294 1.335-3.038 2.435-.743 1.1-1.136 2.398-1.126 3.726 0 .505.057 1.008.17 1.5-2.61-.132-5.163-.811-7.494-1.993C5.936 5.885 3.88 4.227 2.23 2.2c-.844 1.44-1.107 3.148-.735 4.776.371 1.628 1.35 3.052 2.735 3.984-1.052-.025-2.082-.307-3-.82v.09c0 1.514.524 2.982 1.482 4.154.96 1.172 2.294 1.976 3.778 2.276-.564.153-1.146.23-1.73.23-.412-.001-.824-.038-1.23-.11.42 1.303 1.236 2.442 2.335 3.258 1.1.816 2.426 1.268 3.795 1.292-2.323 1.827-5.195 2.817-8.15 2.81-.505-.002-1.009-.032-1.51-.09 3 1.93 6.493 2.955 10.06 2.95 12.08 0 18.68-10 18.68-18.68v-.85c1.28-.926 2.385-2.074 3.26-3.39" transform="translate(-471 -3331) translate(0 1273) translate(324 458) translate(0 728) translate(131 24) translate(0 832) translate(16 16) translate(0 2)"/>
                                    </g>
                                </g>
                            </g>
                        </g>
                    </g>
                </g>
            </g>
        </g>
    </g>
</svg>
