<svg width="32" height="32" fill="none" xmlns="http://www.w3.org/2000/svg"><path d="M0 16C0 7.163 7.163 0 16 0s16 7.163 16 16-7.163 16-16 16S0 24.837 0 16Z" fill="#1BA3DD"/><path d="M21.715 16.142h3v.233c.012.477-.051.953-.188 1.41-.134.392-.349.752-.63 1.058a3.369 3.369 0 0 1-2.587 1.102 3.6 3.6 0 0 1-2.617-1.065 3.605 3.605 0 0 1 0-5.182 3.75 3.75 0 0 1 2.7-1.08 3.75 3.75 0 0 1 1.59.337 4.63 4.63 0 0 1 1.417 1.08l-.787.75a2.662 2.662 0 0 0-2.183-1.155 2.624 2.624 0 0 0-1.935.75 2.52 2.52 0 0 0-.788 1.905 2.475 2.475 0 0 0 .878 1.95c.48.446 1.108.697 1.762.705a2.25 2.25 0 0 0 1.463-.525 1.906 1.906 0 0 0 .75-1.282h-1.845v-.99Z" fill="#fff"/><path fill-rule="evenodd" clip-rule="evenodd" d="M6.617 19.817 10 12.76h.428l3.262 7.057h-1.207l-.75-1.717h-3.12l-.81 1.717H6.616Zm4.666-2.715-1.08-2.4h-.038l-1.133 2.4h2.25Z" fill="#fff"/><path d="M14.845 19.817h1.102V12.76h-1.102v7.057Z" fill="#fff"/><path fill-rule="evenodd" clip-rule="evenodd" d="M28 22.57H4V10h24v12.57Zm-.997-11.603H4.997v10.635h22.006V10.967Z" fill="#fff"/></svg>