<svg xmlns="http://www.w3.org/2000/svg" width="32" height="32"><g fill="none" fill-rule="evenodd"><path d="M0 0h32v32H0z"/><g fill-rule="nonzero"><path fill="#EE2424" d="M0 4c0-2.21 1.79-4 4-4h24c2.21 0 4 1.79 4 4v24c0 2.21-1.79 4-4 4H4c-2.21 0-4-1.79-4-4V4z"/><path fill="#F9D641" d="M21.25 7C23.32 7 25 15.73 25 26.5h3c0-11.6-3-21-6.75-21-2.12 0-4 2.83-5.25 7.24-1.24-4.41-3.13-7.24-5.25-7.24C7 5.5 4 14.9 4 26.5h3C7 15.73 8.68 7 10.75 7c2.07 0 3.75 8.06 3.75 18h3c0-9.94 1.68-18 3.75-18z"/></g></g></svg>