<svg width="32" height="32" fill="none" xmlns="http://www.w3.org/2000/svg"><path d="M0 16C0 7.163 7.163 0 16 0s16 7.163 16 16-7.163 16-16 16S0 24.837 0 16Z" fill="#F2F3F4"/><path fill-rule="evenodd" clip-rule="evenodd" d="m21.123 6.25 6.461 7.113a1.934 1.934 0 0 1-.104 2.518 722.918 722.918 0 0 1-4.288 4.618s-6.09-4.24-2.07-14.249Z" fill="#246CB3"/><path fill-rule="evenodd" clip-rule="evenodd" d="m17.589 4.355 2.694 2.996-1.624 3.516c-1.943 4.844-.213 6.417-.213 6.417l3.795 5.385s-3.688 3.427-5.313 4.784c-1.343 1.194-2.208.052-2.208.052l-.706-.742s1.404-7.18 1.784-9.027a3.236 3.236 0 0 0-.486-2.826l-5.07-5.496s4.265-3.969 5.184-4.948c.918-.98 2.163-.111 2.163-.111Zm-1.237 6.038c.099.867-.22 1.58-.759 1.683-.486.06-1.024-.593-1.13-1.409-.107-.816.273-1.506.758-1.632.486-.126 1.032.49 1.131 1.358Z" fill="#010101"/><path fill-rule="evenodd" clip-rule="evenodd" d="m9.15 9.25-4.677 4.207a2.055 2.055 0 0 0 .051 2.686c1.155 1.492 7.009 8.855 7.009 8.855s4.551-7.93-2.383-15.748Z" fill="#CF4138"/></svg>