<svg xmlns="http://www.w3.org/2000/svg" width="32" height="32" viewBox="0 0 32 32">
    <g fill="none" fill-rule="evenodd">
        <g>
            <g>
                <g>
                    <g>
                        <g>
                            <g>
                                <g>
                                    <path d="M0 0H32V32H0z" transform="translate(-911 -2499) translate(0 1273) translate(324 458) translate(0 728) translate(131 24) translate(440) translate(16 16)"/>
                                    <g>
                                        <path fill="#246CB3" d="M22.83 3l8.617 9.485c.38.481.576 1.087.55 1.705-.025.618-.27 1.205-.689 1.652C29.82 17.48 25.59 22 25.59 22s-8.12-5.652-2.76-19z" transform="translate(-911 -2499) translate(0 1273) translate(324 458) translate(0 728) translate(131 24) translate(440) translate(16 16)"/>
                                        <path fill="#010101" d="M18.117.473l3.592 3.996-2.165 4.688c-2.591 6.46-.284 8.556-.284 8.556l5.06 7.181s-4.918 4.57-7.084 6.38c-1.791 1.592-2.945.07-2.945.07l-.941-.99s1.872-9.575 2.378-12.037c.188-.636.228-1.305.116-1.957-.112-.652-.373-1.271-.763-1.812l-6.76-7.33s5.687-5.291 6.911-6.597c1.225-1.305 2.885-.148 2.885-.148zm-1.65 8.051c.132 1.158-.293 2.107-1.011 2.246-.648.079-1.367-.792-1.508-1.88-.142-1.088.364-2.008 1.012-2.176.647-.168 1.376.653 1.508 1.81z" transform="translate(-911 -2499) translate(0 1273) translate(324 458) translate(0 728) translate(131 24) translate(440) translate(16 16)"/>
                                        <path fill="#CF4138" d="M6.864 7L.628 12.61c-.42.504-.643 1.145-.63 1.804.012.66.26 1.291.698 1.778C2.236 18.182 10.041 28 10.041 28s6.07-10.575-3.177-21z" transform="translate(-911 -2499) translate(0 1273) translate(324 458) translate(0 728) translate(131 24) translate(440) translate(16 16)"/>
                                    </g>
                                </g>
                            </g>
                        </g>
                    </g>
                </g>
            </g>
        </g>
    </g>
</svg>
