<svg width="100" height="100" viewBox="0 0 100 100" fill="none" xmlns="http://www.w3.org/2000/svg">
    <path fill-rule="evenodd" clip-rule="evenodd" d="M89.8438 17.9688V82.0312C89.8438 86.3453 86.3453 89.8438 82.0312 89.8438H17.9688C13.6539 89.8438 10.1562 86.3461 10.1562 82.0312V17.9688C10.1562 13.6539 13.6539 10.1562 17.9688 10.1562H82.0312C86.3461 10.1562 89.8438 13.6539 89.8438 17.9688Z" fill="#E0F0F0"/>
    <path fill-rule="evenodd" clip-rule="evenodd" d="M49.8633 17.8864C60.5836 17.8864 69.2742 26.584 69.2742 37.3129C69.2742 48.0418 60.5836 56.7387 49.8633 56.7387C39.143 56.7387 30.4531 48.0426 30.4531 37.3129C30.4531 26.5832 39.143 17.8856 49.8633 17.8856" fill="white"/>
    <path fill-rule="evenodd" clip-rule="evenodd" d="M49.932 22.8699C54 22.8699 57.2992 26.1714 57.2992 30.2433C57.2992 34.3152 54 37.6167 49.932 37.6167C45.8633 37.6167 42.5648 34.3152 42.5648 30.2433C42.5648 26.1714 45.8633 22.8699 49.932 22.8699ZM43.9969 37.9199C43.9969 37.9199 45.6187 40.0214 49.932 40.0214C54.2445 40.0214 55.6313 37.9199 55.6313 37.9199C55.6313 37.9199 62.2328 40.4613 62.2328 47.3949C62.2328 47.3949 58.8141 52.4316 50.1055 52.4316C41.3977 52.4316 37.4414 47.3949 37.4414 47.3949C37.4414 47.3949 37.6836 39.9222 43.9969 37.9199Z" fill="#84ABAE"/>
    <path fill-rule="evenodd" clip-rule="evenodd" d="M58.5938 76.9531H28.9062C27.6117 76.9531 26.5625 75.9039 26.5625 74.6094C26.5625 73.3148 27.6117 72.2656 28.9062 72.2656H58.5938C59.8883 72.2656 60.9375 73.3148 60.9375 74.6094C60.9375 75.9039 59.8883 76.9531 58.5938 76.9531ZM63.2812 67.1875H28.9062C27.6117 67.1875 26.5625 66.1383 26.5625 64.8438C26.5625 63.5492 27.6117 62.5 28.9062 62.5H63.2812C64.5758 62.5 65.625 63.5492 65.625 64.8438C65.625 66.1383 64.5758 67.1875 63.2812 67.1875Z" fill="#C6E4E4"/>
    <path d="M81.7699 100C91.8378 100 99.9993 91.8389 99.9993 81.7708C99.9993 71.7028 91.8378 63.5417 81.7699 63.5417C71.702 63.5417 63.541 71.7033 63.541 81.7708C63.541 91.8389 71.7025 100 81.7699 100Z" fill="#84ABAE"/>
    <path d="M79.6442 89.1013L72.9454 82.5531L75.7499 79.8119L79.6453 83.6189L88.8373 74.6337L91.6418 77.3749L79.6442 89.1013Z" fill="white"/>
</svg>
