<svg width="128" height="80" viewBox="0 0 128 80" fill="none" xmlns="http://www.w3.org/2000/svg">
<path d="M102.621 19.5808C102.749 19.755 102.867 19.9364 102.975 20.1241C102.69 18.9233 102.252 17.764 101.673 16.6745C96.8949 7.91539 83.6196 10.5371 70.376 20.4576C66.8861 23.0656 63.752 26.1185 61.0534 29.5387C62.7006 30.4327 64.1925 31.6947 65.6327 32.7698C66.5144 33.4133 67.4492 33.9807 68.4269 34.4659C69.2663 33.4943 70.1374 32.5341 71.0515 31.5912C82.8492 19.4342 97.8636 13.2479 102.621 19.5808Z" fill="url(#paint0_linear_1615_2328)"/>
<path d="M66.472 29.6307C65.2474 28.5987 64.0084 27.6184 62.8643 26.5088C60.5655 29.2223 58.0275 31.7238 55.2809 33.983C43.466 43.7569 30.7369 46.9794 26.8503 41.207C26.79 41.1179 26.7354 41.023 26.6807 40.9196C25.9437 39.8273 25.3893 38.6224 25.0393 37.3521C24.3932 34.9161 24.436 32.3485 25.1629 29.9354C23.3634 33.5834 22.8632 37.194 23.9987 40.2842C27.0228 48.4397 40.4159 49.8138 53.9212 43.3515C60.2138 40.3417 65.4199 36.1648 68.8695 31.7263C68.0703 31.0249 67.297 30.3149 66.472 29.6307Z" fill="url(#paint1_linear_1615_2328)"/>
<path d="M37.8432 17.4392C37.2108 17.4897 36.5866 17.6141 35.9832 17.81L36.0206 17.8991L35.9114 17.8474C33.304 19.7044 33.2178 19.7159 36.0177 17.8991C34.3737 18.9216 32.8332 20.102 31.4183 21.4235C29.1131 23.6547 27.1566 26.2198 25.6143 29.0328C25.4533 29.3202 25.2952 29.6307 25.1486 29.9325C24.4217 32.3457 24.3789 34.9132 25.025 37.3492C25.3765 38.6241 25.9338 39.833 26.675 40.9282C25.6669 39.1383 25.1251 37.1237 25.0997 35.0696C25.1486 29.9325 29.498 23.1397 32.4474 20.6013C34.1176 19.164 35.6871 18.6149 37.0756 18.4942C37.2691 18.1011 37.5287 17.7442 37.8432 17.4392Z" fill="url(#paint2_linear_1615_2328)"/>
<path d="M49.1118 38.5278C54.6456 35.0782 59.6303 30.3551 61.1855 28.3428L62.0824 27.3626C62.7838 26.7014 63.6548 25.3503 64.3447 24.715C66.1069 23.8009 69.3869 21.5069 72.8221 19.2244C74.2997 18.2441 75.7859 17.2811 76.6254 16.8269L80.6499 23.499C78.1346 25.1318 71.6924 30.5678 69.4185 32.5054C68.6999 33.1148 69.5565 31.7752 68.8838 32.4076L64.0659 36.7196C60.7532 39.5253 57.8667 41.5409 53.9212 43.3515L49.1118 38.5278Z" fill="url(#paint3_linear_1615_2328)" fill-opacity="0.49" style="mix-blend-mode:multiply"/>
<path d="M100.77 15.3493C110.601 33.9485 88.2305 42.6846 76.4932 29.8463C71.5487 23.6341 71.0026 20.5323 67.9152 17.3673C54.729 4.54914 35.7188 12.5149 25.8385 28.5786C27.1494 27.0061 35.5032 17.4794 47.6458 18.9973C57.0316 20.1701 58.5696 32.1863 72.4543 39.2781C88.2104 47.3272 116.54 36.4322 100.77 15.3493Z" fill="url(#paint4_linear_1615_2328)"/>
<path d="M72.8738 38.8009C58.9863 31.7091 57.4512 19.6901 48.0654 18.5172C36.4804 17.0568 28.348 25.6809 26.4766 27.8283V27.8628C28.9402 25.1519 36.7708 17.6605 47.6399 19.0203C57.0258 20.1931 58.5637 32.2122 72.4484 39.304C82.2051 44.2858 96.7797 42.0004 102.722 34.5349C96.5439 41.6008 82.4091 43.6677 72.8738 38.8009Z" fill="#0199CC"/>
<path d="M101.253 15.9587C101.092 15.7374 100.937 15.516 100.77 15.2918C110.397 33.5086 89.1388 42.2563 77.2319 30.5506C88.998 42.6127 110.469 34.0663 101.253 15.9587Z" fill="#0291B1"/>
<path d="M35.3881 54.1402C35.3091 54.1079 35.2274 54.0829 35.1438 54.0654C34.4826 53.8958 32.8441 53.8412 32.3151 54.2724L32.2864 54.2983C32.1981 54.3793 32.1268 54.477 32.0765 54.5858C30.5402 56.6249 29.1198 58.7488 27.822 60.9474L23.8636 54.6001L23.8492 54.5685C23.7966 54.4589 23.7223 54.3611 23.6307 54.281L23.6048 54.2581C23.1449 53.8757 21.7679 53.8872 21.0176 54.0166C20.8396 54.0353 20.6647 54.0768 20.4973 54.1402C20.3516 54.2017 20.2269 54.3043 20.1386 54.4355C20.0503 54.5667 20.0021 54.7208 20 54.879V68.2779C20 68.5452 20.1236 69.0138 20.9515 69.1403C21.2268 69.1774 21.5045 69.1947 21.7823 69.192C22.3572 69.192 23.5675 69.192 23.5675 68.2779V60.5593C23.8262 60.9675 24.3178 61.7667 24.8611 62.77C25.6162 64.1671 26.1231 65.0802 26.3818 65.5095L26.5341 65.797C26.6699 66.003 26.8424 66.1823 27.043 66.326C27.4757 66.582 27.9901 66.6622 28.4803 66.5502C28.6015 66.5176 28.7149 66.4609 28.8138 66.3834C29.0336 66.2336 29.2278 66.0492 29.3887 65.8372L29.7337 65.2307C29.9004 64.9413 30.2913 64.2169 30.9065 63.0574C31.5217 61.898 31.9893 61.0538 32.3094 60.5248V68.2951C32.3094 69.2092 33.5139 69.2093 34.0917 69.2093C34.6695 69.2093 35.874 69.2092 35.874 68.2951V54.8905C35.8751 54.7316 35.8297 54.576 35.7433 54.4426C35.657 54.3093 35.5335 54.2042 35.3881 54.1402Z" fill="#2D9DD3"/>
<path d="M39.723 69.376C39.1481 69.376 37.9407 69.376 37.9407 68.4618V59.8895C37.9407 58.9754 39.1452 58.9754 39.723 58.9754C40.3008 58.9754 41.5082 58.9754 41.5082 59.8895V68.4446C41.5082 69.376 40.3037 69.376 39.723 69.376Z" fill="#2D9DD3"/>
<path d="M45.4151 69.376C44.8402 69.376 43.6386 69.376 43.6386 68.4618V55.0486C43.6386 54.1862 44.6361 54.1603 45.2944 54.1402H52.7685C53.3061 54.1402 53.9357 54.58 53.9357 55.8219C53.9357 57.0637 53.3061 57.5007 52.7685 57.5007H47.1888V60.0476H52.0269C52.5644 60.0476 53.194 60.4875 53.194 61.7293C53.194 62.9712 52.5644 63.4081 52.0269 63.4081H47.1888V68.4532C47.1888 69.376 45.9901 69.376 45.4151 69.376Z" fill="#2D9DD3"/>
<path d="M72.2041 69.376C71.0858 69.376 70.7667 69.1058 70.6172 68.9045L65.4026 61.2004V68.4446C65.4026 69.3702 64.2038 69.3702 63.626 69.3702C63.0482 69.3702 61.8524 69.3702 61.8524 68.4446V55.0773C61.8539 54.91 61.9069 54.7472 62.0041 54.6109C62.1012 54.4746 62.2379 54.3715 62.3957 54.3155C62.7636 54.1632 64.635 53.9763 65.1697 54.5081L65.2588 54.6174L70.4591 62.3043V55.0658C70.4591 54.1373 71.7039 54.1373 72.2357 54.1373C72.7675 54.1373 74.0094 54.1373 74.0094 55.0658V68.4331C74.0031 68.6203 73.936 68.8005 73.8183 68.9462C73.7006 69.0919 73.5386 69.1954 73.3568 69.2409C72.9798 69.3342 72.5925 69.3796 72.2041 69.376Z" fill="#2D9DD3"/>
<path d="M78.2207 69.376C77.6458 69.376 76.4384 69.376 76.4384 68.4618V55.0486C76.4384 54.1344 77.6429 54.1344 78.2207 54.1344C78.7985 54.1344 80.003 54.1344 80.003 55.0486V68.4503C80.0001 69.376 78.7957 69.376 78.2207 69.376Z" fill="#2D9DD3"/>
<path d="M57.595 69.376C57.0201 69.376 55.8127 69.376 55.8127 68.4618V55.0486C55.8127 54.1344 57.0172 54.1344 57.595 54.1344C58.1728 54.1344 59.3773 54.1344 59.3773 55.0486V68.4503C59.3773 69.376 58.1728 69.376 57.595 69.376Z" fill="#2D9DD3"/>
<path d="M88.0695 69.376C87.4946 69.376 86.293 69.376 86.293 68.4618V57.6875H82.8434C81.9292 57.6875 81.9292 56.4888 81.9292 55.9139C81.9292 55.3389 81.9292 54.1373 82.8434 54.1373H93.2813C94.1983 54.1373 94.1983 55.3389 94.1983 55.9139C94.1983 56.4888 94.1983 57.6875 93.2813 57.6875H89.8317V68.4503C89.8432 69.376 88.6445 69.376 88.0695 69.376Z" fill="#2D9DD3"/>
<path d="M102.325 69.376C101.882 69.376 100.54 69.376 100.54 68.4015V62.9396L95.6528 55.3188V55.1061C95.6565 54.9152 95.7234 54.7309 95.843 54.5821C95.9627 54.4333 96.1283 54.3284 96.314 54.2839C96.7854 54.1258 98.9156 53.9591 99.456 54.6806L99.4761 54.7094L102.325 59.1249L105.2 54.6634C105.775 53.9533 107.919 54.1344 108.362 54.2925C108.542 54.341 108.701 54.4464 108.816 54.5931C108.931 54.7397 108.996 54.9197 109 55.1061V55.3217L104.113 62.9425V68.4043C104.107 69.376 102.765 69.376 102.325 69.376Z" fill="#2D9DD3"/>
<path d="M40.1429 54.2609H39.1856C38.4125 54.2609 37.7857 54.8877 37.7857 55.6609V56.644C37.7857 57.4172 38.4125 58.044 39.1856 58.044H40.1429C40.9161 58.044 41.5429 57.4172 41.5429 56.644V55.6609C41.5429 54.8877 40.9161 54.2609 40.1429 54.2609Z" fill="#2D9DD3"/>
<defs>
<linearGradient id="paint0_linear_1615_2328" x1="14.109" y1="39.6322" x2="111.047" y2="40.4854" gradientUnits="userSpaceOnUse">
<stop offset="0.01" stop-color="#FFA220"/>
<stop offset="0.04" stop-color="#FFA61C"/>
<stop offset="0.34" stop-color="#FFC000"/>
<stop offset="0.61" stop-color="#FDC200"/>
<stop offset="0.74" stop-color="#F6C900"/>
<stop offset="0.75" stop-color="#F5CB00"/>
<stop offset="0.78" stop-color="#F3C200"/>
<stop offset="0.84" stop-color="#F0B100"/>
<stop offset="0.89" stop-color="#EFAB00"/>
<stop offset="1" stop-color="#B74600"/>
</linearGradient>
<linearGradient id="paint1_linear_1615_2328" x1="23.3202" y1="25.1061" x2="108.933" y2="38.9142" gradientUnits="userSpaceOnUse">
<stop offset="0.01" stop-color="#C59252"/>
<stop offset="0.22" stop-color="#EBA31C"/>
<stop offset="0.34" stop-color="#FFAC00"/>
<stop offset="0.51" stop-color="#FDAC03"/>
<stop offset="0.63" stop-color="#F6AB0D"/>
<stop offset="0.75" stop-color="#E9AA1E"/>
<stop offset="0.78" stop-color="#E4A925"/>
<stop offset="0.8" stop-color="#E7AC21"/>
<stop offset="0.86" stop-color="#F4B70F"/>
<stop offset="0.93" stop-color="#FCBE04"/>
<stop offset="1" stop-color="#FFC000"/>
</linearGradient>
<linearGradient id="paint2_linear_1615_2328" x1="83.1201" y1="17.3043" x2="72.8968" y2="78.9873" gradientUnits="userSpaceOnUse">
<stop offset="0.01" stop-color="#C59252"/>
<stop offset="0.22" stop-color="#EBA31C"/>
<stop offset="0.34" stop-color="#FFAC00"/>
<stop offset="0.51" stop-color="#FDAC03"/>
<stop offset="0.63" stop-color="#F6AB0D"/>
<stop offset="0.75" stop-color="#E9AA1E"/>
<stop offset="0.78" stop-color="#E4A925"/>
<stop offset="0.8" stop-color="#E7AC21"/>
<stop offset="0.86" stop-color="#F4B70F"/>
<stop offset="0.93" stop-color="#FCBE04"/>
<stop offset="1" stop-color="#FFC000"/>
</linearGradient>
<linearGradient id="paint3_linear_1615_2328" x1="74.1127" y1="14.9683" x2="35.806" y2="30.2494" gradientUnits="userSpaceOnUse">
<stop stop-color="white" stop-opacity="0"/>
<stop offset="0.401042" stop-color="#504E4E"/>
<stop offset="1" stop-color="white" stop-opacity="0"/>
</linearGradient>
<linearGradient id="paint4_linear_1615_2328" x1="117.481" y1="75.0081" x2="14.6963" y2="46.8557" gradientUnits="userSpaceOnUse">
<stop offset="0.01" stop-color="#001F2A"/>
<stop offset="0.16" stop-color="#004B5D"/>
<stop offset="0.2" stop-color="#00576E"/>
<stop offset="0.31" stop-color="#00799F"/>
<stop offset="0.42" stop-color="#0094C7"/>
<stop offset="0.52" stop-color="#00A8E3"/>
<stop offset="0.61" stop-color="#00B4F4"/>
<stop offset="0.67" stop-color="#00B8FA"/>
<stop offset="0.76" stop-color="#00B6F7"/>
<stop offset="0.83" stop-color="#01AEEC"/>
<stop offset="0.9" stop-color="#03A2DA"/>
<stop offset="0.97" stop-color="#0691C1"/>
<stop offset="1" stop-color="#0788B3"/>
</linearGradient>
</defs>
</svg>
