<svg width="118" height="40" viewBox="0 0 118 40" fill="none" xmlns="http://www.w3.org/2000/svg">
<path fill-rule="evenodd" clip-rule="evenodd" d="M94.0223 24.1618H91.3472C91.3472 24.1618 91.6225 21.8998 92.1143 20.818C92.547 19.7164 93.2158 18.9296 94.396 18.4969C95.5565 18.0642 96.7171 17.9658 99.0184 17.9265C101.339 17.8871 102.126 18.1035 102.893 18.4379C103.641 18.792 104.27 19.5788 104.447 20.2475C104.605 20.9163 104.388 23.0407 104.388 23.0407C104.388 23.0407 104.074 25.224 103.247 26.3649C102.421 27.5254 100.336 28.0565 100.336 28.0565L96.5007 29.099C96.5007 29.099 94.8484 29.5317 94.3567 29.7088C93.6474 29.9621 93.5036 30.0994 93.39 30.2079C93.3712 30.2257 93.3533 30.2428 93.3338 30.2595C92.9011 30.6136 92.7831 31.6954 92.7831 31.6954L92.606 32.7379L102.756 32.7183L102.323 35.2754H89.4785C89.4785 35.2754 90.108 31.5578 90.226 31.0267C90.344 30.4759 90.6587 29.4531 91.4849 28.5483C92.311 27.6631 93.7666 27.2304 93.7666 27.2304L96.1466 26.5419C96.1466 26.5419 99.1758 25.7748 100.061 25.4797C100.435 25.3617 101.064 25.0863 101.3 24.6733C101.556 24.2209 101.654 23.4931 101.654 23.4931L101.871 21.8605C101.871 21.8605 102.166 20.7786 101.025 20.6409C99.8839 20.5229 99.4709 20.5032 98.3497 20.4639C97.6219 20.4442 96.7367 20.4639 96.0286 20.5819C95.6352 20.6606 95.3008 20.759 95.1041 20.877C94.4747 21.231 94.1796 23.1193 94.1796 23.1193L94.0223 24.1618ZM117.331 18.1625L115.522 28.9417H118L117.567 31.5184H115.109L114.479 35.3147H111.804L112.433 31.5184H103.759L104.211 28.8236L114.145 18.1625H117.331ZM107.28 28.9417H112.886L114.105 21.6638L107.28 28.9417Z" fill="#B3B2B1"/>
<path fill-rule="evenodd" clip-rule="evenodd" d="M71.4217 6.36065L74.5885 0.00725266C74.5885 0.00725266 81.5123 -0.130437 87.492 0.794051C93.4717 1.71854 98.9399 3.13477 98.8219 3.19378L83.6564 11.1208C83.6564 11.1208 80.1158 8.8784 75.7097 7.5015C73.2313 6.77372 71.4217 6.36065 71.4217 6.36065ZM51.378 3.3708L52.0467 7.06875C52.0467 7.06875 55.0956 6.26229 58.7345 5.82955C63.4356 5.18044 68.4318 5.86889 68.4318 5.86889L70.3201 0.144931C70.3201 0.144931 64.6355 0.51866 60.3475 1.32513C56.0594 2.1316 51.378 3.3708 51.378 3.3708ZM37.255 13.1468L33.4587 10.5897C33.4587 10.5897 36.8812 8.64236 41.4643 6.81306C46.0278 5.00342 48.4668 4.23629 48.4668 4.23629L49.234 7.85556C49.234 7.85556 44.8476 9.33081 42.3298 10.511C39.7334 11.6322 37.255 13.1468 37.255 13.1468ZM19.6897 19.5592H27.8724C27.8724 19.5592 29.7017 18.0839 30.9999 17.1201C32.2981 16.1759 34.6782 14.6614 34.6782 14.6614L30.0558 12.4977C30.0558 12.4977 26.1414 14.9171 24.4892 16.0579C22.8762 17.1201 19.6897 19.5592 19.6897 19.5592ZM89.7147 15.3891L86.3905 12.8517L105.372 5.55417C107.87 6.67535 109.227 7.28512 111.647 8.85872C112.591 9.46849 113.85 10.452 114.164 10.7667C115.03 11.6322 115.856 12.4583 116.308 13.2451C117.036 14.504 117.095 15.3891 117.095 15.3891H89.7147Z" fill="#B3B2B1"/>
<path fill-rule="evenodd" clip-rule="evenodd" d="M47.6603 18.1428H50.2174L47.3652 35.295H44.8082L47.6603 18.1428ZM13.2182 18.6149C13.5526 18.7526 13.8476 18.9296 14.064 19.146C14.1794 19.2614 14.2736 19.3873 14.37 19.5161L14.37 19.5161L14.37 19.5161L14.37 19.5161L14.37 19.5161C14.405 19.563 14.4404 19.6102 14.4771 19.6574C14.7721 20.2082 14.8311 20.7786 14.8311 21.1523C14.8311 21.4277 14.7918 21.6047 14.7918 21.6047C14.7918 21.6047 14.7721 21.7621 14.7328 21.9981C14.6738 22.5489 14.5164 23.5717 14.3787 24.4175C14.241 25.2043 14.0837 25.8338 14.0837 25.8338C14.0837 25.8338 13.6903 27.5451 12.274 28.2925C10.8578 29.04 8.85148 28.9613 8.85148 28.9613L3.69795 28.9416L2.65544 35.295H0L2.83247 18.1428H5.99933H10.2677C10.2677 18.1428 10.4644 18.1428 10.7791 18.1625C11.1135 18.1822 11.5856 18.2215 12.0773 18.3002C12.4707 18.3789 12.8641 18.4772 13.2182 18.6149ZM11.4676 25.224C11.7823 23.5914 12.0183 22.2145 12.0183 22.1752C12.0183 22.1717 12.0196 22.1613 12.0215 22.1452C12.0305 22.0708 12.0542 21.8739 12.038 21.6638C12.0183 21.4671 11.979 21.2507 11.8413 21.0933C11.743 20.9753 11.4282 20.8966 11.0348 20.8376C10.5628 20.7786 10.012 20.7589 9.59893 20.7589H8.96949L5.07485 20.7393L4.13069 26.4435L8.43841 26.4632C8.43841 26.4632 9.4219 26.5026 10.3267 26.3059C10.8775 26.1878 11.3496 25.8535 11.4676 25.224ZM34.4618 22.9226L24.7055 22.9423L24.3121 25.342H30.5474L22.7385 32.8363L22.3254 35.295H32.3964L32.7898 32.915H25.9447L34.1077 25.1453L34.4618 22.9226ZM63.7503 22.9226L61.2916 22.9423L62.5505 35.295H65.5009L69.3169 26.6402L70.1824 35.295H73.1919L78.6011 22.9226H76.044L72.2871 31.6758L71.4019 22.9226H68.3728L64.6158 31.6364L63.7503 22.9226ZM42.9592 23.0406C42.2511 22.8046 41.0118 22.7653 39.9497 22.7653C38.9268 22.7849 38.4744 22.8243 38.081 22.9029C38.081 22.9029 36.2714 23.1587 35.2486 24.4372C34.2257 25.7158 33.911 28.4892 33.911 28.4892C33.911 28.4892 33.3012 31.5577 33.4783 32.5806C33.6553 33.6034 33.97 34.5476 35.1305 35C36.2911 35.4524 37.2746 35.4327 37.2746 35.4327C37.2746 35.4327 39.3399 35.5901 40.8938 35.236C42.4478 34.8819 43.2739 33.7804 43.2739 33.7804C43.2739 33.7804 43.6476 33.3083 43.9033 32.7379C44.1171 32.261 44.2071 31.9216 44.2424 31.7887L44.2504 31.759L44.2531 31.749L44.2554 31.7411L44.2574 31.7348L44.4147 31.066H41.7593C41.7593 31.066 41.6216 32.8166 40.1857 32.974C38.7961 33.1263 38.0512 33.0759 37.7372 33.0547L37.7073 33.0526C37.6832 33.0509 37.6495 33.05 37.6082 33.0488C37.1764 33.0364 35.908 32.9999 36.0157 31.8331V31.7544C36.0747 30.2988 36.2517 29.9251 36.2517 29.9251L44.5721 29.9054L44.9262 27.8401C45.3786 25.4994 45.0835 23.7291 42.9592 23.0406ZM42.3887 27.5451H36.6845L36.9008 26.6402C36.9008 26.6402 37.0975 25.9321 37.4909 25.6371C37.8843 25.342 38.3957 25.283 38.8678 25.2437C39.3399 25.2043 40.5988 25.106 41.6413 25.3224C41.9757 25.3814 42.3101 25.5781 42.3887 25.8731C42.6051 26.5222 42.3887 27.5451 42.3887 27.5451ZM55.6266 22.7653C56.6888 22.7653 57.928 22.8046 58.6361 23.0406C60.7801 23.7291 61.0555 25.5191 60.6031 27.8598L60.249 29.9251L51.9287 29.9448C51.9287 29.9448 51.7516 30.3185 51.6926 31.7741V31.8528C51.5849 33.0196 52.8533 33.056 53.2851 33.0684C53.3265 33.0696 53.3602 33.0706 53.3842 33.0723C53.4335 33.0723 53.4953 33.074 53.5708 33.076C53.9479 33.086 54.6663 33.1051 55.8627 32.974C57.2986 32.8166 57.4362 31.066 57.4362 31.066H60.0917L59.9343 31.7348C59.9311 31.7444 59.9263 31.7626 59.9194 31.7887C59.8841 31.9216 59.794 32.261 59.5803 32.7379C59.3246 33.3083 58.9508 33.7804 58.9508 33.7804C58.9508 33.7804 58.1247 34.8623 56.5708 35.236C55.0168 35.5901 52.9515 35.4327 52.9515 35.4327C52.9515 35.4327 51.968 35.4524 50.8075 35C49.6469 34.5476 49.3322 33.6034 49.1552 32.5806C48.9782 31.5577 49.5879 28.4892 49.5879 28.4892C49.5879 28.4892 49.9027 25.7158 50.9255 24.4372C51.9483 23.1587 53.758 22.9029 53.758 22.9029C54.1514 22.8243 54.6038 22.7849 55.6266 22.7653ZM52.3614 27.5451H58.0657C58.0657 27.5451 58.2821 26.5222 58.0657 25.8731C57.987 25.5781 57.6526 25.3814 57.3182 25.3224C56.2757 25.106 55.0168 25.2043 54.5448 25.2437C54.0727 25.283 53.5613 25.342 53.1679 25.6371C52.7745 25.9321 52.5778 26.6402 52.5778 26.6402L52.3614 27.5451ZM81.5319 22.9423L83.1645 31.9905L87.787 22.9423L90.3834 22.962L83.7153 35.8851C83.7153 35.8851 82.5154 38.2259 81.768 38.8159C81.0205 39.406 80.5681 39.6814 79.9583 39.7404L79.813 39.7547C79.3038 39.805 79.0453 39.8306 78.5224 39.7404L77.893 39.6224L78.2864 37.321C78.2864 37.321 79.3289 37.5177 79.9387 37.262C80.5484 37.026 81.0402 35.9638 81.0402 35.9638L81.3549 35.4327L78.9355 22.903L81.5319 22.9423ZM18.6274 23.7881C19.4536 23.3357 20.4371 22.9226 21.4599 22.9226H22.9548L22.5221 25.3224H21.1059C19.0798 25.3224 18.057 27.0336 17.8013 28.4105L16.6014 35.236H13.8673L16.0507 22.9226H18.7651L18.6274 23.7881Z" fill="#D13239"/>
</svg>
