<svg xmlns="http://www.w3.org/2000/svg" width="72" height="73"><g fill="none" fill-rule="evenodd"><path d="M0 1h72v72H0z"/><g fill-rule="nonzero"><path fill="red" d="M34.5 43.726c-.252.178-.769.331-1.33.331-1.03 0-1.494-.791-1.474-1.711.016-.763.491-1.627 1.778-1.627H34.5v3.007zm-1.06-8.458c-1.222 0-2.322.346-3.453.907l-.288.15.688 1.535.388-.183c.8-.359 1.654-.599 2.42-.567.93.039 1.31.464 1.31 1.353v.52h-1.519c-2.44 0-3.959 1.294-4.002 3.303 0 1.908 1.59 3.551 3.803 3.551 1.785 0 3.298-.579 4.317-1.6v-5.446c0-2.652-1.893-3.523-3.663-3.523zm36.243 8.782v1.61s-.541.104-.98.104c-2.045 0-3.266-.963-3.266-3.213v-9.49l2.569-.438v10.095c0 .78.224 1.246 1.29 1.33.146.01.387.003.387.003zm-11.266-4.791c.044-.989.455-2.005 1.467-2.005 1.138 0 1.306 1.235 1.306 2.005h-2.773zm2.02 4.78c-.702 0-1.176-.23-1.486-.566-.461-.498-.666-1.521-.61-2.61h5.524v-.254c-.05-3.615-1.282-5.263-3.981-5.263-3.012 0-4.185 2.771-4.207 5.375-.019 1.647.602 3.305 1.738 4.25.692.574 1.651.893 2.763.893.605 0 1.239-.09 1.816-.27 1.108-.343 1.926-.936 1.926-.936l-.723-1.486c-.13.098-1.236.867-2.76.867zm-5.661.02v1.588s-.474.094-.977.094c-2.092 0-3.34-1.01-3.34-3.146v-9.536l2.626-.422v2.818h1.69v1.883h-1.69v5.366c0 .702.217 1.31 1.319 1.348.149.005.344.005.372.008zm-15.754-8.191l2.562-.418v10.204h-2.562v-9.787zm.916-2.242a1.687 1.687 0 100-3.375 1.687 1.687 0 000 3.375zm9.83 1.98l-.722 1.62s-.413-.132-1.049-.106c-.688.027-1.41.318-1.751.65v7.89H43.63l.002-8.381c1.557-1.655 3.284-1.984 4.409-1.984.777 0 1.446.172 1.727.31zm-32.689-8.168v.028h-.226v.029h-.256v.028h-.227v.028h-.198v.029h-.142v.028h-.142v.028h-.141v.029h-.142v.028h-.142v.029h-.142v.028h-.085v.028h-.113v.03h-.114v.028h-.113v.028h-.085v.029h-.113v.028h-.114v.027h-.113v.03h-.085v.028h-.085v.028h-.085v.029h-.085v.028h-.085v.029h-.086v.028h-.085v.028h-.085v.028h-.085v.029h-.085v.028h-.085v.029h-.085v.028h-.085v.028h-.085v.029h-.057v.028h-.085v.028h-.056v.029h-.085v.028h-.057v.028h-.085v.029h-.085v.028h-.057v.028h-.085v.029h-.057v.028h-.085v.029h-.056v.028h-.085v.028h-.057v.029h-.058v.028h-.057v.028h-.085v.029h-.056v.028h-.057v.028h-.057v.029h-.056v.028h-.086v.028h-.056v.029h-.057v.028h-.057v.028h-.056v.029h-.085v.026h-.057v.029h-.058v.028h-.056v.028h-.057v.029h-.057v.028h-.057v.028h-.056v.03h-.057v.028h-.057v.028h-.056v.029h-.057v.028h-.057v.028h-.057v.029h-.056v.028h-.057v.028h-.057v.029h-.026v.028h-.057v.028h-.056v.029h-.057v.028h-.057v.029h-.057v.028h-.056v.028h-.03v.029h-.056v.028h-.057v.028H9.99v.029h-.028v.028h-.057v.028H9.85v.029h-.057v.028h-.029v.028h-.056v.029H9.65v.028h-.057v.028h-.056v.029h-.029v.028h-.056v.029h-.057v.028h-.057v.028H9.31v.029h-.057v.028h-.028v.028h-.057v.029H9.14v.028h-.057v.028h-.057v.029h-.028v.028H8.94v.028h-.028v.029h-.057v.028H8.8v.029h-.03v.028h-.057v.028h-.028v.028h-.057v.029H8.6v.028h-.057v.029h-.056v.028h-.029v.028h-.056v.029h-.029v.028h-.057v.028H8.29v.029h-.057v.028h-.028v.028h-.028v.029H8.12v.028h-.028v.028h-.057v.029h-.029v.028H7.95v.029h-.03v.028h-.029v.028h-.057v.029h-.028v.028H7.75v.028h-.028v.029h-.057v.028h-.028v.028h-.028v.029h-.057v.028h-.028v.029h-.057v.028h-.029v.028H7.41v.028h-.056v.029h-.029v.028h-.028v.029H7.24v.028h-.028v.028h-.029v.029h-.028v.028h-.057v.028H7.07v.029h-.028v.028h-.057v.028h-.029v.029h-.028v.028H6.9v.028h-.057v.029h-.028v.028h-.029v.028H6.73v.029H6.7v.028h-.028v.028h-.057v.029h-.028v.028H6.56v.029h-.03v.028h-.028v.028h-.028v.029h-.057v.028h-.029v.028H6.36v.029h-.028v.028h-.028v.028h-.029v.029H6.22v.028h-.028v.029h-.028v.028h-.029v.028h-.028v.028h-.028v.029H6.02v.028h-.028v.029h-.029v.028h-.028v.028h-.029v.029H5.88v.028h-.057v.028h-.028v.029h-.028v.028h-.029v.028H5.71v.029h-.028v.028h-.029v.028h-.028v.029h-.028v.028h-.029v.029H5.54v.028h-.03v.028h-.028v.028h-.028v.029h-.028v.028h-.029v.029H5.37v.028h-.03v.028h-.028v.029h-.028v.028h-.029v.028H5.2v.029h-.03v.028h-.028v.028h-.028v.029h-.029v.028h-.028v.029h-.028v.028H5v.028h-.028v.029h-.029v.028h-.028v.057h-.028v.028h-.029v.028H4.83v.029h-.028v.028h-.029v.028h-.028v.029h-.028v.028h-.029v.029H4.66v.028h-.028v.056h-.029v.029h-.028v.028h-.028v.029h-.029v.028H4.49v.028h-.03v.029h-.028v.028h-.028v.028h-.029v.057h-.028v.028H4.32v.029h-.03v.028h-.028v.028h-.028v.029h-.029v.057h-.028v.028H4.15v.028h-.03v.057h-.028v.028h-.028v.029h-.029v.028h-.028v.057H3.98v.028h-.03v.028h-.028v.057h-.029v.028h-.028v.029h-.028v.028h-.029v.057H3.78v.028h-.028v.029h-.029v.056h-.028v.029h-.029v.028H3.64v.057h-.028v.028h-.028v.057h-.029v.028h-.028v.028h-.028v.057H3.47v.028h-.028v.057h-.029v.029h-.028v.056h-.028v.057h-.029v.028H3.3v.057h-.028v.028h-.03v.057h-.028v.057h-.028v.028h-.029v.057H3.13v.028H3.1v.057h-.028v.057h-.028v.056h-.029v.057h-.028v.028H2.96v.057h-.03v.057h-.028v.057h-.028v.055h-.029v.057h-.028v.057H2.79v.056h-.03v.057h-.028v.057h-.028v.085h-.029v.056h-.028v.057h-.028v.085H2.59v.057h-.028v.085h-.029v.085h-.028v.057h-.028v.113h-.029v.085H2.42v.085h-.028v.114h-.029v.142h-.028v.113h-.028v.198h-.029v.34H2.25v.312h.028v.284h.029v.142h.028v.113h.028v.114h.029v.085h.028v.085h.028v.085h.029v.057h.028v.056h.029v.057h.028v.057h.028v.056h.03v.057h.028v.057h.028v.028h.029v.057h.028v.028h.027v.057h.03v.028h.028v.057h.028v.028h.029v.028h.028v.029h.029v.028h.028v.029h.028v.028h.028v.028h.029v.029h.028v.028h.029v.028h.028v.029h.028v.028h.029v.028h.028v.029h.028v.028h.029v.029H3.3v.028h.028v.028h.029v.029h.056v.028h.029v.028h.057v.029h.028v.028h.057v.028h.028v.029h.057v.028h.028v.028h.057v.029h.028v.028h.057v.028h.028v.029h.057v.028h.057v.028h.085v.029h.056v.028h.057v.029h.085v.028h.057v.028h.056v.029h.114v.028h.142v.028h.141v.029h.142v.028h.709v-.028h.198v-.029h.17v-.028h.114v-.028h.113v-.029h.086V41.5h.084v-.028h.114v-.029h.085v-.028h.057v-.029h.085v-.028h.056v-.028h.057v-.029h.085v-.028h.057v-.028h.057v-.029h.056v-.028h.057v-.028h.057v-.029h.056v-.028h.057v-.028h.057v-.029h.056v-.028h.057v-.028h.057v-.029h.057v-.028h.028v-.028h.057v-.029h.028v-.028h.057v-.029h.056v-.028h.029v-.028h.057v-.029h.056v-.028h.028v-.028h.057v-.029h.029v-.028h.056v-.028h.029v-.029h.056v-.026h.029v-.029h.056v-.028h.029v-.028h.057v-.028h.028v-.029h.057v-.028h.028v-.03h.057v-.028h.028v-.028h.028v-.029h.057v-.028h.028v-.028h.029v-.029h.057v-.028h.028v-.028h.056v-.029h.029v-.028h.028v-.028h.057v-.029h.028v-.028h.029v-.029h.056v-.028h.029v-.028h.028v-.028h.057v-.029h.028V39.8h.028v-.029h.057v-.028h.029v-.028h.028v-.029h.057v-.028h.028v-.028h.028v-.029h.029v-.028h.056v-.028h.029v-.029h.027v-.028h.057v-.029h.028v-.028h.028v-.028h.057v-.029h.03v-.028h.028v-.028h.028v-.029h.057v-.028h.028v-.028h.029v-.029h.056v-.028h.029v-.028h.028v-.029h.057v-.028h.028v-.029h.028v-.028h.057v-.028h.028v-.028h.029v-.029h.057v-.028h.028v-.029h.028v-.028h.057v-.028h.028v-.029h.057v-.028h.028v-.028h.029v-.029h.056v-.028h.029v-.028h.056v-.029h.029v-.028h.057v-.028h.028v-.029h.057v-.028h.028v-.028h.057v-.029h.028v-.028h.028v-.029h.057v-.028h.028v-.028h.057v-.029h.029v-.028h.054v-.028h.028v-.029h.057v-.028h.029v-.028h.056v-.029h.03v-.028h.056v-.028h.029v-.029h.056v-.028h.029v-.029h.056v-.028h.029v-.028h.057v-.028h.028V37.9h.028v-.028h.057v-.029h.028v-.028h.057v-.028h.028v-.029h.057v-.028h.028v-.028h.057v-.029h.028v-.028h.057v-.028h.029v-.029h.056v-.028h.029v-.028h.056v-.029h.029v-.028h.056v-.029h.029v-.028h.056v-.028h.029v-.029h.057v-.028h.028v-.028h.056v-.029h.029v-.028h.057v-.028h.028v-.029h.057v-.028h.028v-.028h.057v-.029h.028v-.028h.057v-.028h.028v-.029h.057v-.028h.028v-.029h.057v-.028h.028v-.028h.057v-.03h.028v-.028h.057v-.028h.057v-.029h.028v-.028h.057v-.027h.028v-.03h.057v-.028h.028v-.028h.057v-.029h.028v-.028h.057v-.029h.028v-.028h.057v-.028h.057v-.028h.028v-.029h.057v-.028h.028v-.029h.057v-.028h.056v-.028h.029v-.029h.057v-.028h.028v-.028h.057v-.029h.028v-.028h.057v-.028h.056v-.029h.029v-.028h.057v-.028h.056v-.029h.028v-.028h.057v-.029h.057v-.028h.028v-.028h.057v-.029h.057v-.026h.028v-.028h.057v-.029h.056v-.028h.029v-.028h.057v-.029h.056v-.028h.028v-.03h.057v-.029h.057v-.028h.057v-.028h.028v-.029h.057v-.026h.056v-.03h.057v-.028h.029v-.028h.056v-.029h.057v-.028h.057v-.027h.056v-.03h.029v-.028h.056v-.028h.057v-.029h.057v-.028h.056v-.028h.057v-.029h.057v-.028h.057v-.028h.056v-.029h.057v-.028h.057v-.028h.056v-.029h.057v-.028h.028v-.029h.086v-.028h.056v-.028h.057v-.029h.057v-.028h.056v-.028h.085v-.029h.057v-.028h.057v-.028h.056v-.029h.057v-.028h.085v-.028h.057v-.029h.085v-.028h.057v-.028h.085v-.029h.085v-.028h.057v-.03h.085v-.028h.056v-.028h.085v-.029h.114v-.028h.085v-.027h.113v-.03h.085v-.028h.114v-.028h.113v-.029h.142v-.028h.17v-.027h.142v-.03h.482V34.1h.057v.028h.255v.029h.226v.028h.086v.028h.085v.029h.085v.028h.056v.028h.085v.029h.057v.028h.057v.028h.028v.029h.057v.028h.057v.028h.028v.029h.057v.028h.028v.029h.057v.028h.028v.028h.028v.029h.029v.028h.028v.028h.029v.029h.028v.028h.028v.028h.028v.029h.029v.029h.028v.028h.029v.057h.028v.028h.028v.029h.029v.057h.028v.028h.028v.057h.029v.028h.028v.057h.028v.056h.029v.029h.028v.056h.028v.057h.029v.057h.028v.056h.029v.086h.028v.056h.028v.085h.029v.057h.028v.085h.028v.085h.029v.114h.028v.085h.028v.113h.029v.17h.028v.142h.029v.312h.028v.709h-.028v.226h-.029v.256h-.028v.141h-.029v.142h-.028v.114h-.028v.141h-.029v.114h-.028v.113h-.028v.085h-.029v.085H21.7v.085h-.028v.114h-.029v.085h-.028v.085h-.029v.085h-.028v.057h-.028v.085h-.029v.056h-.028v.085h-.028v.057h-.029v.085h-.028v.057h-.028v.085h-.029v.057h-.028v.056h-.028v.057h-.029v.057h-.028v.085h-.029v.057h-.028v.056h-.028v.057h-.028v.057h-.029v.028h-.028v.057h-.029v.056h-.028v.057h-.028v.057h-.029v.028h-.028v.057h-.028v.057h-.029v.028h-.028v.057h-.028v.056h-.029v.029h-.028v.056h-.028v.057h-.029v.028h-.028v.057h-.029v.028h-.028v.057h-.028v.029h-.029v.056h-.028v.029h-.028v.056h-.029v.029h-.028v.056h-.028v.029h-.029v.056h-.028v.029h-.028v.028h-.029v.057h-.028v.028h-.028v.029h-.029v.056h-.028v.029h-.029v.028h-.028v.057h-.028v.028h-.029v.057h-.028v.028h-.028v.028h-.029v.029h-.028v.057h-.028v.028h-.029v.028h-.028v.028h-.028v.057H19.8v.029h-.028v.028h-.028v.028h-.029v.057h-.028v.028h-.028v.029h-.029v.028h-.028v.028h-.029v.057h-.028v.028h-.028v.029h-.029v.028h-.028v.029h-.028v.056h-.029v.029h-.028v.028h-.028v.028h-.029v.029h-.028v.028h-.028v.028h-.029v.029h-.028v.056h-.028v.029h-.029v.028h-.028v.028h-.029v.029h-.028v.028h-.028v.029h-.029v.028h-.028v.028h-.028v.057h-.029v.028h-.028v.029h-.028v.028h-.029v.028h-.028v.029h-.028v.028h-.03v.028h-.028v.029h-.029v.028h-.028v.029h-.028v.028h-.028v.028h-.029v.028h-.028v.029h-.029v.028h-.028v.029h-.028v.028h-.029v.028h-.028v.029h-.028v.028h-.029v.028h-.028v.029h-.028v.028h-.029v.028h-.028v.029h-.028v.028h-.029v.028h-.028v.029h-.029v.028h-.028v.029h-.028v.028h-.029v.028h-.028v.029h-.028v.028h-.029v.028h-.028v.029H17.9v.028h-.029v.028h-.028v.029h-.028v.028h-.029v.028h-.028v.029h-.057v.028h-.028v.028h-.029v.029h-.028v.028h-.028v.029h-.029v.028h-.028v.028h-.028v.029h-.029v.028h-.028v.028h-.057v.029h-.028v.028h-.028v.028h-.029v.029h-.028v.028h-.029v.028h-.028v.029h-.028v.028h-.057v.028h-.028v.029h-.029v.028h-.027v.028h-.028v.029h-.029v.028h-.028v.029h-.057v.028h-.028v.028h-.028v.029h-.029v.028h-.028v.028h-.057v.029h-.028v.028h-.029v.028h-.028v.029h-.028v.028h-.057v.028h-.028v.029h-.029v.028h-.028v.028h-.028v.029h-.057v.028h-.028v.029h-.029v.028h-.028v.028h-.057v.029h-.028v.028h-.029v.028h-.028v.029h-.057v.028h-.028v.028h-.028v.029h-.029v.028h-.056v.028h-.029v.029h-.028v.028h-.028v.029h-.057v.028h-.028v.028h-.029v.028h-.056v.029h-.029v.028h-.028v.029h-.057v.028h-.028v.028h-.029v.029h-.056v.028h-.029v.028h-.028v.029h-.057v.028h-.027v.028h-.029v.029h-.056v.028h-.028v.028h-.029v.029h-.058v.028h-.028v.029h-.057v.028h-.028v.028h-.028v.029h-.057v.028h-.028v.028h-.057v.029h-.028v.028h-.057v.028h-.029v.029h-.028v.028h-.056v.029h-.029v.028h-.057v.028h-.028v.028h-.057v.029h-.028v.028h-.057v.029h-.028v.028h-.057v.028H14.3v.029h-.057v.028h-.028v.028h-.057v.029h-.028v.028h-.057v.028h-.057v.029h-.028v.028h-.057v.028h-.028v.029h-.057v.028h-.056v.028h-.029v.029h-.057v.028h-.028v.028h-.057v.029h-.056v.028h-.057v.029h-.028v.028h-.057v.028h-.057v.029h-.028v.028h-.057v.028h-.057v.029h-.056v.028h-.029v.028h-.056v.029h-.057v.028h-.057v.029h-.056v.028h-.057v.028h-.029v.028h-.056v.029h-.057v.028h-.057v.029h-.056v.028h-.057v.028h-.057v.029h-.056v.028h-.057v.028h-.085v.029h-.057v.028h-.057v.028h-.056v.029h-.057v.028h-.085v.028h-.057v.029h-.085v.028h-.057v.029h-.085v.028h-.085v.028h-.056v.028h-.114v.029h-.085v.028h-.085v.029h-.113v.028h-.143v.028h-.199v.029h-.281v-.029h-.113v-.028h-.087v-.028h-.056v-.029h-.057v-.028h-.027v-.029h-.03v-.028h-.028v-.028h-.028v-.057h-.029v-.057h-.028v-.056h-.028v-.085H9.99v-.284h.029v-.142h.028v-.085h.028v-.085h.029v-.056h.028v-.057h.028v-.057h.029v-.057h.028v-.056h.028v-.057h.029v-.028h.028v-.057h.028v-.057h.029v-.028h.028v-.057h.029v-.028h.028v-.057h.028v-.028h.029v-.057h.028V47.2h.028v-.028h.029v-.057h.028v-.029h.028v-.028h.029v-.057h.028v-.028h.028v-.028h.029v-.057h.028v-.028h.028v-.029h.029v-.028h.028v-.029h.029v-.056h.028v-.029h.028v-.028h.029v-.028h.028v-.029h.028v-.028h.029v-.057h.028v-.028h.028v-.028h.029v-.029h.028v-.028h.028v-.029h.029v-.028h.028v-.028h.029v-.028h.028v-.029h.027v-.057h.028v-.028h.029v-.028h.028v-.029h.029v-.028h.028v-.028h.028v-.029h.03v-.028h.028v-.028h.028v-.029h.029v-.028h.028v-.028h.028v-.029h.029v-.028h.028v-.029h.028v-.028h.029v-.028h.028v-.029h.029v-.028h.028v-.028h.028v-.029h.029v-.028h.028v-.028h.028v-.029h.029v-.028h.028v-.028h.028v-.029h.029v-.028h.028v-.028h.028v-.029h.029v-.028h.028v-.029h.028V45.3h.029v-.028h.028v-.029h.029v-.028h.028v-.028h.028v-.029h.029v-.028h.028v-.028h.028v-.029h.029v-.028h.028v-.028h.028v-.029h.029v-.028h.028v-.028h.028v-.029h.029v-.028h.028v-.028h.029v-.029h.028v-.028h.028v-.029h.028v-.028h.029v-.028h.057v-.029h.028v-.056h.028v-.029h.029v-.028h.028v-.028h.028v-.029h.029v-.028h.028v-.028h.028v-.029h.029v-.028h.028v-.028h.028v-.029h.029v-.057h.028v-.028h.029v-.028h.028v-.029h.028v-.028h.029v-.028h.028v-.057h.028v-.028h.029v-.029h.028v-.056h.028v-.03h.029v-.028h.028v-.029h.028v-.056h.029v-.028h.028v-.057h.028v-.029h.029v-.056h.028v-.057h.029v-.028h.028v-.057h.028v-.057h.028v-.028h.029v-.085h.028v-.085h.029v-.085h.028v-.057h.028v-.425h-.028v-.114h-.028v-.085h-.029v-.028h-.028v-.057h-.029v-.028h-.028v-.057h-.028v-.028h-.028v-.029h-.029v-.027h-.028v-.028h-.029v-.029h-.028v-.028h-.028v-.028h-.029v-.029h-.056v-.028h-.029v-.028h-.056v-.029h-.029v-.028h-.056v-.028h-.057v-.029h-.057v-.028h-.057v-.029h-.085v-.028h-.085v-.028h-.056v-.029h-.085v-.028h-.142v-.028h-.114v-.029h-.17v-.028h-.255v-.028h-.028v.028h-.51v.028h-.17v.029h-.143v.028h-.084v.028h-.086v.029h-.113v.028h-.086v.028h-.057v.029h-.056v.028h-.057v.029h-.085v.028h-.057v.028h-.057v.029h-.056v.028h-.057v.028H10.5v.029h-.057v.028h-.028v.028h-.057v.029h-.028v.028h-.056v.028h-.029v.029h-.028v.028h-.057v.029h-.028v.028h-.057v.028h-.028v.028h-.028v.029H9.99v.028h-.028v.029h-.028v.028h-.057v.028h-.028v.029H9.82v.028h-.028v.028h-.029v.029h-.028v.028h-.028v.028h-.029v.029H9.65v.028h-.028v.028h-.029v.029h-.028v.028h-.028v.029h-.029v.028H9.48v.028h-.028v.057h-.029v.028h-.028v.029h-.028v.028h-.029v.028H9.31v.057h-.03v.028h-.028v.029h-.028v.028h-.029v.028h-.028v.029H9.14v.057h-.03v.028h-.028v.057h-.028v.028h-.029v.057h-.028v.028H8.97v.057h-.03v.028h-.028v.057h-.029v.028h-.028v.057h-.028v.028H8.8v.057h-.03v.028h-.028v.057h-.029v.028h-.028v.057h-.028v.057h-.029v.056H8.6v.057h-.028v.057h-.029v.057h-.028v.056h-.028v.029h-.029v.056H8.43v.057h-.028v.057h-.029v.056h-.028v.057h-.029v.057H8.29v.057h-.028v.056h-.029v.057h-.028v.085h-.028v.057h-.029v.056H8.12v.085h-.028v.057h-.029v.057h-.028v.085h-.029v.057h-.028v.056H7.95v.085h-.03v.057h-.029v.085h-.028v.085h-.029v.085h-.028v.085H7.78v.114h-.03v.085h-.028v.085h-.028v.113h-.029v.199h-.028v.198h-.028v.227H7.58v.028h.029v.567h.028v.114h.028v.113h.029v.142h.028v.113h.028v.057h.029v.057h.028v.085h.028v.057h.029v.056h.028v.057h.029v.057h.028v.056h.028v.029h.028v.056h.029v.029h.028v.057h.029v.028h.028v.028h.028v.057h.029v.028h.028v.029h.028v.056h.057v.029h.028v.028h.029v.028h.028v.029h.029v.028h.028v.028h.028v.029h.029v.028h.028v.029h.028v.028h.029v.028h.056v.029h.029v.028h.056v.028h.029v.029H8.8v.028h.028v.028h.056v.029h.029v.028h.057v.028h.056v.029h.057v.028h.057v.029h.085v.028h.085v.028h.085v.028h.142v.029h.17v.028h.283v.029h.454v-.029h.34v-.028h.199v-.029h.17v-.028h.142v-.028h.141v-.028h.114v-.029h.113v-.028h.113v-.029h.086v-.028h.085v-.028h.113v-.029h.085v-.028h.085v-.028h.085v-.029h.085v-.028h.057v-.028h.085v-.029h.085v-.028h.057v-.028h.085v-.029h.056v-.028h.086v-.029h.056v-.028h.085v-.028h.057v-.029h.057v-.028h.056v-.028h.086v-.029h.056v-.028h.057v-.028h.057v-.029h.056v-.028h.057v-.029h.057v-.028h.085v-.028h.057v-.028h.056v-.029h.057v-.028h.057v-.029h.028v-.028h.057v-.028h.056v-.029h.057v-.028h.057v-.028h.056v-.029h.057v-.028h.057v-.028h.028v-.029h.057v-.028h.057v-.028h.056v-.029h.057v-.028h.029v-.029h.056v-.028h.057v-.028h.057v-.028h.028v-.029h.057v-.028h.056v-.029h.029v-.028h.056v-.028h.057v-.029h.028v-.028h.057v-.028h.057v-.029h.028v-.027h.057v-.028h.028v-.029h.057v-.028h.057v-.029h.028v-.028h.057v-.028h.028v-.03h.057v-.028h.057v-.028h.028v-.029h.057v-.028h.028v-.028h.057v-.029h.028v-.028h.057v-.028h.028v-.029h.057v-.028h.028v-.028h.057v-.029h.028v-.028h.057v-.028h.028v-.029h.057v-.028h.028v-.029h.029v-.028h.056V47.2h.029v-.028h.056v-.029h.029v-.028h.056v-.029h.029v-.028h.056v-.028h.029v-.029h.028v-.028h.057v-.028h.028v-.029h.029v-.028h.056v-.028h.029v-.029h.056v-.028h.029v-.029h.028v-.028h.057v-.028h.028v-.029h.029v-.028h.056v-.028h.028v-.029h.057v-.028h.029v-.028h.028v-.029h.057v-.028h.028v-.028h.028v-.029h.057v-.028h.028v-.029h.029v-.028h.028v-.028h.057v-.028h.028v-.029h.029v-.028h.056v-.029h.029v-.028h.028v-.028h.057v-.029h.028v-.028h.028v-.028h.029v-.029h.056v-.028h.029v-.028h.028v-.029h.057v-.028h.028v-.028h.029v-.029h.028v-.028h.057v-.029h.028v-.028h.028v-.028h.029v-.029h.056v-.028h.029v-.028h.028v-.029h.028v-.028h.057v-.028h.029v-.029h.028v-.028h.028v-.028h.028v-.029h.057v-.028h.029v-.028h.028v-.029h.028v-.028h.057v-.029h.028V45.3h.029v-.028h.028v-.029h.028v-.028h.057v-.028h.028v-.029h.029v-.028h.028v-.028h.029v-.029h.056v-.028h.029v-.028h.028v-.029h.028v-.028h.029v-.028h.028v-.029h.057v-.028h.028v-.028h.028v-.029h.029v-.028h.028v-.029h.028v-.028h.057v-.028h.029v-.029h.028v-.028h.028v-.028h.029v-.029h.028v-.028h.028v-.028h.057v-.029h.028v-.028h.029v-.028h.028v-.029h.028v-.028h.029v-.028h.028v-.029h.028v-.028h.029v-.029h.056v-.028h.029v-.028h.028v-.029h.029v-.028h.028v-.028h.028v-.029h.029v-.028h.028v-.028h.028v-.029h.029v-.028h.028v-.028h.028v-.03h.029v-.028h.028v-.029h.028v-.028h.029v-.028h.028v-.028h.028v-.029h.029v-.028h.028v-.029h.029v-.028h.028v-.028h.028v-.029h.029v-.028h.028v-.028h.028v-.029h.029v-.028h.028v-.028h.028v-.029h.029v-.028h.028V43.4h.028v-.029h.029v-.028h.028v-.029h.029v-.028h.028v-.028h.028v-.057h.028v-.028h.029v-.029h.028v-.028h.029v-.028h.028v-.029h.028v-.028h.029v-.028h.028v-.029h.028v-.028h.029v-.057h.028v-.028h.028v-.029h.029v-.028h.028v-.028h.028v-.029h.029v-.056h.028v-.029h.029v-.028h.028v-.028h.028v-.029h.029v-.028h.028v-.057h.028v-.028h.029v-.029h.028v-.028h.028v-.028h.029v-.057h.028v-.028h.029v-.029h.028v-.056h.028v-.029h.028v-.028h.029v-.028h.028v-.057h.029v-.028h.028v-.029h.028v-.028h.029v-.057h.028v-.028h.028v-.029h.029v-.056h.028v-.029h.028v-.028h.029v-.057h.028v-.028h.028v-.028h.029v-.057h.028v-.028h.028V41.5h.029v-.028h.028v-.029h.028v-.057h.029v-.028h.028v-.057h.029v-.028h.028v-.028h.028v-.057h.029v-.028h.028v-.057h.028v-.028h.029v-.057h.028v-.028h.028v-.057h.029v-.028h.028v-.057h.029v-.029h.028v-.056h.028v-.029h.028v-.056h.029v-.057h.028v-.028h.029v-.057h.028v-.029h.028v-.056h.029v-.057h.028v-.028h.028v-.057h.029v-.057h.028v-.028h.028v-.057h.029v-.056h.028v-.029h.028v-.056h.029v-.057h.028v-.057h.029v-.028h.028v-.057h.028v-.057h.028v-.056h.029v-.057h.028V39.6h.029v-.056h.028v-.029h.028v-.057h.029v-.056h.028v-.057h.028v-.057h.029v-.056h.028v-.057h.028v-.057h.029v-.057h.028v-.056h.029v-.085h.028v-.057h.028v-.057h.029v-.056h.028v-.057h.028v-.057h.029v-.056h.028v-.085h.028v-.057h.029v-.085h.028v-.057h.028v-.085h.029v-.057h.028v-.085h.029v-.057h.028v-.084h.028v-.057h.028v-.085h.029v-.085h.028v-.085h.029v-.085h.028v-.086h.028v-.085h.029v-.085h.028v-.085h.028v-.085h.029v-.113h.028v-.114h.028v-.085h.029v-.113h.028v-.114h.028v-.113h.029v-.142h.028v-.142h.029v-.141h.028v-.142h.028v-.17h.029v-.227h.028v-.227h.028v-.368h.029v-.88h-.029v-.536h-.028v-.227h-.028v-.17h-.029v-.17h-.028v-.17h-.028v-.17h-.029v-.143h-.028v-.085h-.029v-.085h-.028v-.113h-.028v-.085h-.029v-.085h-.028v-.114h-.028v-.085h-.029v-.085h-.028v-.085h-.028v-.057h-.029v-.056h-.028v-.085h-.028v-.057h-.029v-.057h-.028v-.056h-.029v-.085h-.028v-.056h-.028v-.059h-.028v-.057h-.029v-.056h-.028v-.057h-.029v-.057h-.028v-.028h-.028v-.057h-.029v-.028h-.028v-.057h-.028v-.057h-.029v-.026h-.028v-.057h-.028v-.056h-.029v-.029h-.028v-.056h-.028v-.029h-.029v-.057h-.028v-.028h-.029v-.028h-.028v-.057h-.028v-.028h-.029v-.029h-.028v-.028h-.028v-.058h-.029v-.028h-.028v-.028h-.028v-.029h-.029v-.057h-.028v-.028h-.029v-.028h-.028v-.028h-.028v-.029H23.6v-.057h-.029v-.028h-.028v-.03h-.029v-.028h-.028v-.028h-.028v-.029h-.029v-.028h-.056v-.027h-.029v-.03h-.028v-.028h-.028v-.028h-.029v-.029h-.028v-.028h-.028v-.027h-.029v-.03h-.028v-.028h-.029v-.028h-.028v-.029h-.028v-.028h-.028v-.027h-.057v-.03h-.029v-.028h-.028v-.029h-.057v-.028h-.028v-.028h-.028v-.029h-.057v-.028h-.028v-.028h-.029v-.029h-.057v-.028h-.028v-.029h-.028v-.026h-.029V28.8h-.056v-.028h-.057v-.029h-.028v-.028h-.057v-.028h-.057v-.029h-.028v-.028h-.057v-.029h-.028v-.028h-.057v-.028h-.057v-.029h-.028v-.028h-.056v-.028h-.057v-.03h-.057v-.028h-.057v-.028h-.056v-.029H21.7v-.027h-.057v-.03h-.057v-.028h-.056v-.028h-.057v-.029h-.057v-.028h-.056v-.027h-.085v-.03h-.057v-.028h-.085v-.028h-.057v-.029h-.085v-.028h-.085v-.027h-.057v-.03h-.085v-.028h-.085v-.028h-.085v-.029h-.085v-.028h-.113v-.028h-.085v-.029h-.085v-.028h-.114v-.029h-.113v-.028h-.114v-.028h-.142v-.029h-.113v-.028h-.142v-.028h-.17v-.029h-.17v-.028h-.17v-.028h-.255v-.029h-.255v-.028h-1.39z"/><path fill="#D10010" d="M10.132 47.795v.057h.028v-.057h-.028zm-.028.057v.057h.028v-.057h-.028zm-.029.057v.056h.029v-.056h-.029zm-.028.085v.056h.028v-.056h-.028zm-.028.085v.056h.028v-.056h-.028zm-.029.142v.056h.029v-.056H9.99zm.17-.482v.056h.029v-.057h-.029zm.199-.37v.058h.028v-.057h-.027z"/><path fill="#D10010" d="M10.359 47.398v.029h-.029v.028h-.028v.057h-.028v.056h-.029v.029h-.028v.056h-.027v.057h-.03v.057h.029v-.029h.028v-.056h.028v-.057h.029v-.028h.028v-.057h.028v-.057h.029v-.028h.028v-.057h-.027zm-.227.369v.056h.028v-.028h.029v-.028h-.057z"/></g></g></svg>