<svg width="96" height="60" viewBox="0 0 96 60" fill="none" xmlns="http://www.w3.org/2000/svg">
<path d="M58.7472 21.36H39.6555C39.5312 21.36 39.4277 21.32 39.3242 21.36C39.1999 21.42 38.9929 21.5 38.9722 21.6C38.6823 22.62 38.4131 23.64 38.1232 24.72H56.0553C55.7654 25.74 55.4962 26.68 55.227 27.64C55.0407 28.34 54.875 28.46 54.1296 28.46C52.1624 28.44 50.1953 28.4 48.2281 28.4C44.7287 28.38 41.2085 28.4 37.709 28.38C37.15 28.38 36.8808 28.58 36.7358 29.08C36.3631 30.44 35.9697 31.78 35.5762 33.14C35.0586 34.94 34.5409 36.74 34.0025 38.64C35.0586 38.64 36.0111 38.62 36.9429 38.68C37.3777 38.68 37.5641 38.54 37.6676 38.16C38.1853 36.32 38.7237 34.5 39.2414 32.68C39.5105 31.76 39.6141 31.68 40.5873 31.68H55.5583C56.7593 31.68 57.629 31.14 57.9603 30.08C58.6851 27.72 59.3684 25.36 60.031 23C60.3002 22 59.8239 21.44 58.7472 21.36Z" fill="#414042"/>
<path d="M36.4873 21.38H34.0647C33.05 21.38 33.0086 21.4 32.7394 22.34C31.5591 26.48 30.3581 30.6 29.1778 34.74C29.0536 35.24 28.8051 35.48 28.246 35.48C23.8769 35.46 19.5285 35.46 15.1593 35.46C14.9315 35.46 14.7038 35.42 14.4139 35.38C15.7598 30.68 17.1058 26.06 18.431 21.44C17.4992 21.44 16.6709 21.46 15.8426 21.42C15.2007 21.38 14.973 21.7 14.828 22.24C14.3932 23.84 13.9169 25.44 13.4614 27.02C12.5088 30.26 11.577 33.52 10.6452 36.76C10.2311 38.2 10.6866 38.78 12.2189 38.78H29.9026C31.2071 38.78 31.6212 38.46 31.9526 37.28L35.0586 26.48C35.5348 24.8 36.0111 23.1 36.4873 21.38Z" fill="#414042"/>
<path d="M63.6754 21.3C63.1992 21.3 63.0749 21.64 62.9714 22.02C61.4391 27.28 59.8861 32.52 58.3538 37.76C58.2709 38 58.2295 38.26 58.1674 38.56C59.1199 38.56 60.0103 38.54 60.8593 38.56C61.4598 38.6 61.7083 38.38 61.8739 37.82C63.0542 33.68 64.2552 29.56 65.4355 25.42C65.8289 24.06 66.2224 22.7 66.6365 21.3C65.6219 21.3 64.6486 21.28 63.6754 21.3Z" fill="#414042"/>
<path d="M80.4686 25.86H77.2384V28.98H80.4686V25.86ZM80.0131 28.22C80.0131 28.4 79.8681 28.56 79.6611 28.56H78.046C77.8596 28.56 77.6939 28.42 77.6939 28.22V26.66C77.6939 26.48 77.8389 26.32 78.046 26.32H79.6611C79.8474 26.32 80.0131 26.48 80.0131 26.66V28.22Z" fill="#414042"/>
<path d="M79.3298 26.98H78.398V27.88H79.3298V26.98Z" fill="#414042"/>
<path d="M85.2726 25.4C85.107 23.16 83.2641 21.4 80.9449 21.22C79.3712 21.1 77.6111 21 76.1823 21C74.7536 21 72.9935 21.1 71.4198 21.22C69.1006 21.38 67.2784 23.16 67.092 25.4C66.9678 26.92 66.885 28.62 66.8643 30C66.8643 31.38 66.9678 33.08 67.092 34.6C67.2577 36.84 69.1006 38.6 71.4198 38.78C72.9935 38.9 74.7536 39 76.1823 39C77.6111 39 79.3712 38.9 80.9449 38.78C83.2641 38.62 85.0863 36.84 85.2726 34.6C85.3969 33.08 85.5004 31.38 85.5004 30C85.5004 28.62 85.3969 26.92 85.2726 25.4ZM75.8717 34.46C75.8717 34.64 75.7268 34.8 75.5197 34.8H71.5854C71.3991 34.8 71.2334 34.66 71.2334 34.46V30.66C71.2334 30.48 71.3784 30.32 71.5854 30.32H75.5197C75.7061 30.32 75.8717 30.46 75.8717 30.66V34.46ZM75.8717 29.34C75.8717 29.52 75.7268 29.68 75.5197 29.68H71.5854C71.3991 29.68 71.2334 29.54 71.2334 29.34V28.68C71.2334 28.5 71.3784 28.34 71.5854 28.34C71.7925 28.34 71.9374 28.48 71.9374 28.68V29.02H75.1677V25.9H71.9167V26.9C71.9167 27.08 71.7718 27.24 71.5647 27.24C71.3576 27.24 71.2127 27.1 71.2127 26.9V25.54H71.2334C71.2334 25.36 71.3784 25.2 71.5854 25.2H75.5197C75.7061 25.2 75.8717 25.34 75.8717 25.54V29.34ZM72.3723 28.22V26.66C72.3723 26.48 72.5172 26.32 72.7243 26.32H74.3394C74.5258 26.32 74.6915 26.48 74.6915 26.66V28.22C74.6915 28.4 74.5465 28.56 74.3394 28.56H72.7243C72.5379 28.56 72.3723 28.42 72.3723 28.22ZM76.5344 25.54C76.5344 25.36 76.6793 25.2 76.8864 25.2H80.8207C81.007 25.2 81.1727 25.34 81.1727 25.54V29.34C81.1727 29.52 81.0277 29.68 80.8207 29.68H76.8864C76.7 29.68 76.5344 29.54 76.5344 29.34V25.54ZM76.6586 30.32H80.8207C81.007 30.32 81.1727 30.46 81.1727 30.66C81.1727 30.84 81.0277 31 80.8207 31H76.6586C76.4722 31 76.3066 30.86 76.3066 30.66C76.3066 30.48 76.4515 30.32 76.6586 30.32ZM79.7853 32.24C79.7853 32.42 79.6404 32.58 79.4333 32.58H78.046C77.8596 32.56 77.6939 32.42 77.6939 32.24C77.6939 32.06 77.8389 31.9 78.046 31.9H79.4333C79.6197 31.9 79.7853 32.04 79.7853 32.24ZM78.046 34.36H76.6586C76.4722 34.36 76.3066 34.2 76.3066 34.02C76.3066 33.84 76.4515 33.68 76.6586 33.68H78.046C78.2323 33.68 78.398 33.82 78.398 34.02C78.398 34.2 78.253 34.36 78.046 34.36ZM80.8207 34.36H79.4333C79.2469 34.36 79.0813 34.2 79.0813 34.02C79.0813 33.84 79.2262 33.68 79.4333 33.68H80.8207C81.007 33.68 81.1727 33.82 81.1727 34.02C81.1727 34.2 81.0277 34.36 80.8207 34.36Z" fill="#414042"/>
<path d="M71.9167 34.12H75.147V31H71.9167V34.12ZM72.3723 31.78C72.3723 31.6 72.5172 31.44 72.7243 31.44H74.3394C74.5258 31.44 74.6915 31.58 74.6915 31.78V33.34C74.6915 33.52 74.5465 33.68 74.3394 33.68H72.7243C72.5379 33.68 72.3723 33.54 72.3723 33.34V31.78Z" fill="#414042"/>
<path d="M74.0081 26.98H73.0763V27.88H74.0081V26.98Z" fill="#414042"/>
<path d="M74.0081 32.12H73.0763V33.02H74.0081V32.12Z" fill="#414042"/>
</svg>
