<svg width="128" height="80" viewBox="0 0 128 80" fill="none" xmlns="http://www.w3.org/2000/svg">
<path d="M20.3504 27C13.5314 27 8 32.3959 8 39.0455C8 45.695 13.5314 51.0909 20.3504 51.0909C27.1694 51.0909 32.7008 45.7035 32.7008 39.0455C32.7008 32.3874 27.1694 27 20.3504 27ZM21.4516 46.9656C21.4398 46.9678 21.4276 46.9674 21.4159 46.9645C21.4042 46.9616 21.3933 46.9562 21.3838 46.9487C21.3749 46.94 21.3679 46.9294 21.3635 46.9177C21.3591 46.906 21.3574 46.8934 21.3584 46.8809V43.535C21.358 43.5152 21.3646 43.4958 21.377 43.4804C21.3894 43.4649 21.4068 43.4542 21.4262 43.4503C22.2489 43.2636 23.004 42.8531 23.6079 42.2641C24.2119 41.6751 24.6412 40.9306 24.8484 40.1128C24.8524 40.0934 24.863 40.0759 24.8785 40.0636C24.894 40.0512 24.9133 40.0446 24.9331 40.045H28.3638C28.3892 40.045 28.4146 40.062 28.4315 40.0789C28.4485 40.0958 28.457 40.1213 28.4485 40.1467C28.1908 41.8916 27.3676 43.5037 26.1051 44.7356C24.8427 45.9674 23.2108 46.7509 21.4601 46.9656H21.4516ZM28.3722 38.1221H24.9331C24.9133 38.1225 24.894 38.116 24.8785 38.1036C24.863 38.0912 24.8524 38.0738 24.8484 38.0544C24.6005 37.0545 24.0223 36.1676 23.2075 35.5373C22.3927 34.907 21.389 34.5702 20.3589 34.5814C17.8176 34.5814 15.7508 36.5974 15.7508 39.0878C15.7555 40.1131 16.1111 41.1059 16.7583 41.9011C17.4056 42.6963 18.3055 43.246 19.3085 43.4587C19.3279 43.4627 19.3453 43.4733 19.3577 43.4888C19.3701 43.5043 19.3767 43.5236 19.3763 43.5435V46.8894C19.3763 46.9119 19.3673 46.9334 19.3515 46.9493C19.3356 46.9652 19.314 46.9741 19.2916 46.9741H19.2746C17.3408 46.7384 15.5581 45.8093 14.2574 44.359C12.9566 42.9087 12.2262 41.0358 12.2015 39.0878C12.2015 34.6999 15.8694 31.1253 20.3674 31.1253C22.3222 31.1098 24.2169 31.8005 25.7031 33.0705C27.1894 34.3404 28.1672 36.1041 28.457 38.0374C28.457 38.0486 28.4548 38.0596 28.4505 38.0699C28.4462 38.0801 28.44 38.0895 28.4321 38.0973C28.4243 38.1052 28.4149 38.1114 28.4047 38.1157C28.3944 38.12 28.3834 38.1221 28.3722 38.1221ZM39.8163 39.0624C39.8163 37.9443 40.0365 36.8854 40.4685 35.8689C40.8832 34.8852 41.4877 33.9929 42.2474 33.243C43.0282 32.4856 43.9489 31.8872 44.958 31.481C46.025 31.0438 47.1679 30.8221 48.3209 30.8288C49.4533 30.8197 50.576 31.0367 51.6233 31.4673C52.6707 31.8979 53.6214 32.5332 54.4199 33.3361L52.6072 35.3183C52.0803 34.7003 51.4221 34.2077 50.6805 33.8765C49.939 33.5453 49.1328 33.3838 48.3209 33.4039C47.2875 33.4039 46.3303 33.658 45.4663 34.1832C44.6162 34.6858 43.9147 35.4048 43.4333 36.267C42.9451 37.1266 42.691 38.0993 42.6963 39.0878C42.6963 40.1043 42.9505 41.0446 43.4587 41.9086C43.949 42.7537 44.653 43.4549 45.5002 43.9416C46.2666 44.3837 47.1271 44.6373 48.0108 44.6815C48.8944 44.7257 49.776 44.5592 50.5827 44.1957C51.2862 43.8939 51.9269 43.463 52.4716 42.9251L54.1658 44.8988C53.3876 45.635 52.4839 46.2259 51.4975 46.6438C50.4973 47.0635 49.4226 47.2767 48.3379 47.2706C46.7962 47.2706 45.3731 46.9148 44.0686 46.1948C42.7871 45.5007 41.7139 44.4773 40.9598 43.23C40.1938 41.9758 39.7947 40.532 39.8078 39.0624H39.8163ZM56.0548 46.9911V31.1083H58.7654V37.5546C59.206 37.1844 59.7242 36.9181 60.2817 36.7753C60.6813 36.662 61.0947 36.6049 61.51 36.6059C62.1029 36.6059 62.6451 36.6906 63.1448 36.8769C63.6425 37.0472 64.1027 37.3118 64.5002 37.6563C64.8983 38.012 65.2117 38.4779 65.4319 39.0709C65.6522 39.6638 65.7708 40.3415 65.7708 41.1208V46.9911H63.0686V41.5528C63.0686 39.9434 62.3486 39.1471 60.9085 39.1471C59.477 39.1471 58.7654 39.9349 58.7654 41.5105V46.9911H56.0548ZM68.1426 34.6237C67.9809 34.472 67.8529 34.2881 67.7668 34.0838C67.6808 33.8795 67.6385 33.6594 67.6428 33.4378C67.6428 32.9719 67.8122 32.5738 68.1341 32.2519C68.2968 32.0948 68.4893 31.972 68.7003 31.8905C68.9112 31.809 69.1364 31.7706 69.3624 31.7775C69.8452 31.7775 70.2433 31.9385 70.5652 32.2519C70.8871 32.5653 71.0481 32.9634 71.0481 33.4378C71.0516 33.6593 71.0102 33.8793 70.9265 34.0845C70.8429 34.2896 70.7185 34.4757 70.5611 34.6316C70.4036 34.7875 70.2163 34.9099 70.0103 34.9916C69.8043 35.0732 69.5839 35.1123 69.3624 35.1065C69.1372 35.1112 68.9133 35.0709 68.7039 34.988C68.4944 34.9051 68.3036 34.7812 68.1426 34.6237ZM67.9986 46.9911V36.7922H70.7092V46.9826H67.9986V46.9911ZM73.1319 52.4124V36.7922H75.8425V37.5546C76.6693 36.9127 77.6932 36.5774 78.7396 36.6059C80.2728 36.6059 81.5857 37.1141 82.6615 38.156C83.1789 38.6366 83.5895 39.2204 83.8667 39.8698C84.144 40.5192 84.2817 41.2195 84.271 41.9255C84.2767 42.8687 84.0217 43.795 83.534 44.6023C83.049 45.4179 82.3562 46.0902 81.5264 46.5506C80.6762 47.0297 79.7154 47.2779 78.7396 47.2706C77.6952 47.294 76.6748 46.9558 75.851 46.3134V52.4124H73.1319ZM75.8425 42.0526C75.8764 42.7895 76.1814 43.4164 76.7404 43.9416C77.2773 44.4568 77.9955 44.7399 78.7396 44.7294C79.1169 44.7354 79.4916 44.665 79.841 44.5223C80.1904 44.3796 80.5073 44.1677 80.7725 43.8992C81.3401 43.3486 81.6196 42.6879 81.6196 41.934C81.6196 41.1716 81.3401 40.5278 80.7725 39.9688C80.5073 39.7003 80.1904 39.4884 79.841 39.3457C79.4916 39.203 79.1169 39.1326 78.7396 39.1386C77.9687 39.1386 77.2995 39.4012 76.7404 39.9349C76.4734 40.173 76.2564 40.4619 76.1023 40.7848C75.9481 41.1077 75.8598 41.458 75.8425 41.8154V42.0526ZM85.8211 52.4124V36.7922H88.5318V37.5546C89.3586 36.9127 90.3824 36.5774 91.4288 36.6059C92.962 36.6059 94.2665 37.1141 95.3423 38.156C95.8596 38.6366 96.2702 39.2204 96.5475 39.8698C96.8248 40.5192 96.9625 41.2195 96.9517 41.9255C96.9618 42.8681 96.7096 43.7949 96.2233 44.6023C95.7386 45.4182 95.0457 46.0906 94.2157 46.5506C93.363 47.0311 92.3991 47.2794 91.4203 47.2706C90.3741 47.2984 89.3505 46.9632 88.5233 46.3219V52.4124H85.8211ZM88.5318 42.0526C88.5657 42.7895 88.8621 43.4164 89.4212 43.9416C89.9602 44.4589 90.6818 44.7421 91.4288 44.7294C91.8061 44.7354 92.1808 44.665 92.5302 44.5223C92.8796 44.3796 93.1965 44.1677 93.4618 43.8992C94.0209 43.3486 94.3089 42.6879 94.3089 41.934C94.3089 41.1716 94.0209 40.5278 93.4618 39.9688C93.1965 39.7003 92.8796 39.4884 92.5302 39.3457C92.1808 39.203 91.8061 39.1326 91.4288 39.1386C90.6579 39.1386 89.9888 39.4012 89.4212 39.9349C89.1557 40.1737 88.9403 40.463 88.7876 40.7858C88.6349 41.1087 88.548 41.4586 88.5318 41.8154V42.0526ZM98.0021 41.9848C97.998 40.5891 98.5145 39.242 99.4506 38.2069C99.9319 37.7006 100.515 37.3021 101.162 37.0379C101.873 36.7436 102.637 36.5966 103.406 36.6059C104.406 36.6059 105.312 36.8431 106.117 37.3344C106.907 37.8041 107.556 38.4769 107.998 39.2826C108.447 40.0874 108.667 40.9768 108.667 41.9255C108.667 42.2065 108.645 42.487 108.599 42.7641H100.637C100.789 43.3994 101.128 43.9162 101.636 44.2889C102.144 44.6785 102.78 44.8649 103.542 44.8649C104.05 44.8649 104.525 44.7802 104.982 44.5854C105.426 44.4076 105.815 44.1153 106.109 43.7383L107.955 45.1783C107.468 45.8375 106.821 46.3621 106.075 46.7031C105.29 47.0794 104.43 47.2734 103.559 47.2706C102.575 47.2801 101.605 47.0412 100.738 46.576C99.9081 46.1351 99.214 45.4761 98.7306 44.6701C98.2452 43.8591 97.9931 42.9299 98.0021 41.9848ZM100.73 40.8243H105.939C105.896 40.5614 105.798 40.3104 105.652 40.0873C105.506 39.8642 105.315 39.6738 105.092 39.5283C104.593 39.1743 103.993 38.9902 103.381 39.0031C102.763 39.0031 102.212 39.1725 101.738 39.5029C101.271 39.8261 100.918 40.2886 100.73 40.8243ZM110.353 46.9826V36.7922H113.063V37.5546C113.543 37.1968 114.091 36.9403 114.673 36.8007C115.249 36.6736 116.045 36.6059 117.07 36.6059V39.1386C116.392 39.1386 115.808 39.1725 115.325 39.2572C114.842 39.3335 114.452 39.4351 114.164 39.5707C113.89 39.6919 113.652 39.885 113.478 40.1297C113.309 40.3669 113.199 40.621 113.139 40.8836C113.077 41.1987 113.049 41.5196 113.055 41.8408V46.9826H110.344H110.353ZM117.07 32.5484C117.075 32.2658 117.163 31.9909 117.322 31.7576C117.482 31.5243 117.706 31.3428 117.968 31.2354C118.236 31.1224 118.532 31.0911 118.818 31.1454C119.105 31.1996 119.369 31.337 119.577 31.5403C119.704 31.6674 119.814 31.8199 119.891 31.9978C119.968 32.1711 120.008 32.3587 120.008 32.5484C120.008 32.7381 119.968 32.9256 119.891 33.099C119.806 33.2684 119.704 33.4293 119.577 33.5564C119.345 33.7811 119.046 33.9248 118.726 33.9661C118.405 34.0073 118.08 33.9438 117.798 33.7851C117.578 33.6625 117.394 33.4843 117.265 33.2684C117.135 33.0506 117.068 32.8016 117.07 32.5484ZM117.349 32.5484C117.349 32.7008 117.383 32.8533 117.434 32.9888C117.556 33.2709 117.784 33.4933 118.069 33.6072C118.336 33.7169 118.633 33.7286 118.907 33.6403C119.182 33.5519 119.416 33.3691 119.569 33.1244C119.679 32.9465 119.73 32.7517 119.73 32.5484C119.73 32.3415 119.676 32.1381 119.572 31.9594C119.467 31.7807 119.317 31.6331 119.137 31.5319C118.954 31.4256 118.747 31.3701 118.535 31.3709C118.315 31.3709 118.112 31.4302 117.942 31.5403C117.763 31.6408 117.614 31.787 117.51 31.9639C117.405 32.1407 117.349 32.3426 117.349 32.5484ZM117.968 33.3616V31.7267H118.637C118.737 31.736 118.836 31.753 118.933 31.7775C118.972 31.7905 119.009 31.8075 119.044 31.8283C119.083 31.8496 119.117 31.8784 119.145 31.9131C119.172 31.9489 119.192 31.989 119.205 32.0316L119.221 32.1926C119.221 32.4467 119.086 32.6161 118.815 32.6754L119.221 33.3616H118.891L118.493 32.7008H118.239V33.3616H117.968ZM118.239 32.4552H118.544L118.696 32.4467C118.74 32.4418 118.783 32.4304 118.823 32.4128C118.86 32.398 118.889 32.371 118.908 32.3366C118.931 32.2981 118.942 32.2542 118.942 32.2095C118.942 32.1248 118.908 32.0571 118.84 32.0232C118.746 31.9853 118.645 31.968 118.544 31.9724H118.239V32.4552Z" fill="#1B0A2D"/>
</svg>
