<svg width="128" height="80" viewBox="0 0 128 80" fill="none" xmlns="http://www.w3.org/2000/svg">
<path d="M55.031 35.2308C54.163 34.7665 53.1739 34.531 52.0771 34.531C50.9804 34.531 49.9913 34.7665 49.1098 35.2308C48.2601 35.677 47.5465 36.3441 47.0441 37.1619C46.5462 37.9828 46.304 38.9114 46.304 39.9408C46.304 40.9703 46.5529 41.8989 47.0441 42.7198C47.5446 43.539 48.2587 44.2066 49.1098 44.6509C49.9913 45.1152 50.9804 45.3507 52.0771 45.3507C53.1739 45.3507 54.163 45.1152 55.031 44.6509C55.8946 44.2077 56.6171 43.5317 57.1165 42.6993C57.6159 41.867 57.8724 40.9114 57.857 39.9408C57.8716 38.9704 57.6148 38.0152 57.1155 37.183C56.6161 36.3507 55.8941 35.6746 55.031 35.2308ZM54.5128 41.4951C54.2778 41.9329 53.9254 42.2964 53.4951 42.5448C53.0648 42.7932 52.5737 42.9167 52.0771 42.9014C51.5814 42.9114 51.0926 42.7857 50.6632 42.5378C50.2339 42.2899 49.8805 41.9294 49.6413 41.4951C49.3924 41.0376 49.2712 40.5195 49.2712 39.9341C49.2712 39.3487 49.3924 38.8373 49.6413 38.3932C49.8742 37.9522 50.2257 37.5851 50.6561 37.333C51.0864 37.081 51.5785 36.9542 52.0771 36.9668C52.5756 36.9542 53.0679 37.081 53.4982 37.333C53.9286 37.5851 54.2799 37.9522 54.5128 38.3932C54.7618 38.8373 54.8829 39.3554 54.8829 39.9341C54.8829 40.5128 54.7618 41.0443 54.5128 41.4951ZM64.7943 36.9668C65.7766 36.9668 66.6177 37.3503 67.3175 38.1241L69.1881 36.4285C68.6767 35.8162 68.0307 35.3452 67.2569 35.0155C66.4831 34.6858 65.6152 34.5243 64.6462 34.5243C63.608 34.5082 62.5818 34.7486 61.6587 35.2241C60.7927 35.6625 60.0691 36.338 59.5723 37.1719C59.0755 38.0059 58.826 38.9638 58.8529 39.9341C58.8326 40.9033 59.0832 41.8589 59.5765 42.6934C60.0699 43.5279 60.7863 44.2082 61.6453 44.6576C62.5541 45.1245 63.564 45.3603 64.5857 45.3439C65.3595 45.3439 66.1265 45.2295 66.9003 45.0008C67.6741 44.772 68.3537 44.449 68.9526 44.0184V39.7121H66.3553V42.565C65.8575 42.7943 65.3154 42.9115 64.7673 42.9082C64.1954 42.9082 63.684 42.787 63.2399 42.5381C62.7959 42.2824 62.446 41.9325 62.2037 41.4817C61.9516 41.0078 61.8242 40.4775 61.8337 39.9408C61.8337 39.0392 62.1028 38.3192 62.6478 37.7877C62.9306 37.5115 63.2669 37.2962 63.636 37.155C64.0052 37.0138 64.3994 36.9497 64.7943 36.9668ZM42.5157 35.3788C41.5678 34.9394 40.5325 34.7208 39.4879 34.7396H34.5759V45.1353H39.4879C40.625 45.1353 41.6343 44.92 42.5157 44.4961C43.3595 44.1025 44.072 43.4741 44.568 42.6861C45.0524 41.9056 45.2947 40.9905 45.2947 39.9408C45.2947 38.8912 45.0524 37.9761 44.568 37.1955C44.0724 36.4056 43.36 35.7749 42.5157 35.3788ZM41.5064 42.0334C40.9215 42.5593 40.1524 42.8326 39.3667 42.7938H37.5096V37.0946H39.3667C40.2549 37.0946 40.9682 37.3503 41.5064 37.855C42.0515 38.3596 42.3206 39.0594 42.3206 39.9476C42.3206 40.8357 42.0447 41.5288 41.5064 42.0334ZM104.083 34.7396H107.023V45.1353H104.083V34.7396ZM99.7226 35.2308C98.8115 34.7554 97.7962 34.5149 96.7687 34.531C95.672 34.531 94.6829 34.7665 93.8014 35.2308C92.9517 35.677 92.2381 36.3441 91.7357 37.1619C91.2378 37.9828 90.9956 38.9114 90.9956 39.9408C90.9956 40.9703 91.2445 41.8989 91.7357 42.7198C92.2362 43.539 92.9503 44.2066 93.8014 44.6509C94.7179 45.1247 95.7371 45.365 96.7687 45.3507C97.8655 45.3507 98.8546 45.1152 99.7226 44.6509C100.586 44.2077 101.309 43.5317 101.808 42.6993C102.308 41.867 102.564 40.9114 102.549 39.9408C102.563 38.9704 102.306 38.0152 101.807 37.183C101.308 36.3507 100.586 35.6746 99.7226 35.2308ZM99.1977 41.4951C98.9627 41.9329 98.6103 42.2964 98.18 42.5448C97.7497 42.7932 97.2586 42.9167 96.762 42.9014C96.2663 42.9114 95.7774 42.7857 95.3481 42.5378C94.9188 42.2899 94.5654 41.9294 94.3262 41.4951C94.0772 41.0376 93.9561 40.5195 93.9561 39.9341C93.9561 39.3487 94.0772 38.8373 94.3262 38.3932C94.5591 37.9522 94.9106 37.5851 95.3409 37.333C95.7713 37.081 96.2634 36.9542 96.762 36.9668C97.2605 36.9542 97.7527 37.081 98.1831 37.333C98.6134 37.5851 98.9648 37.9522 99.1977 38.3932C99.4467 38.8373 99.5678 39.3554 99.5678 39.9341C99.5678 40.5128 99.4467 41.0443 99.1977 41.4951ZM73.7299 40.9636H78.3457V38.7633H73.7299V37.0139H78.9715V34.7396H70.8164V45.1353H79.1599V42.8611H73.7299V40.9636ZM116.12 34.7396V40.2773L111.531 34.7396H109.116V45.1353H111.996V39.5977L116.578 45.1353H119V34.7396H116.12ZM84.5966 37.3369C85.0606 37.0841 85.5824 36.9565 86.1106 36.9668C87.0728 36.9668 87.8869 37.3705 88.5598 38.1847L90.4304 36.489C89.926 35.8569 89.2746 35.3579 88.5329 35.0357C87.7209 34.6894 86.8452 34.5174 85.9625 34.531C84.9395 34.5166 83.929 34.7571 83.0221 35.2308C82.1799 35.669 81.4763 36.333 80.9901 37.1484C80.4922 37.9693 80.2499 38.8979 80.2499 39.9408C80.2499 40.9838 80.4989 41.9123 80.9901 42.7332C81.4798 43.5493 82.1822 44.2168 83.0221 44.6643C83.931 45.1313 84.9409 45.367 85.9625 45.3507C86.8452 45.3636 87.7207 45.1917 88.5329 44.846C89.2746 44.5237 89.926 44.0247 90.4304 43.3926L88.5598 41.697C88.2736 42.0756 87.9034 42.3827 87.4784 42.594C87.0534 42.8053 86.5852 42.9152 86.1106 42.9149C85.5454 42.9149 85.0407 42.7938 84.5966 42.5448C84.1659 42.3013 83.8117 41.9425 83.5739 41.5086C83.3384 41.0511 83.2173 40.533 83.2173 39.9476C83.2173 39.3622 83.3384 38.8508 83.5739 38.4067C83.8161 37.9357 84.1593 37.5858 84.5966 37.3369Z" fill="#1E4151"/>
<path d="M19.9397 36.0175H18.4274V38.9989H20.8066V40.2472H18.4274V43.2285H20.0137C20.4213 43.2285 23.36 43.2745 23.3555 39.7598C23.3509 36.2451 20.5053 36.0175 19.9397 36.0175Z" fill="#C2A633"/>
<path d="M19.6857 29.0425C13.8402 29.0425 9.10156 33.7811 9.10156 39.6266C9.10156 45.4721 13.8402 50.2108 19.6857 50.2108C25.5312 50.2108 30.2699 45.4721 30.2699 39.6266C30.2699 33.7811 25.5312 29.0425 19.6857 29.0425ZM20.1016 45.3431H16.2685V40.2473H14.9173V38.999H16.2684V33.9028H19.5582C20.3364 33.9028 25.4912 33.7412 25.4912 39.7186C25.4912 45.7949 20.1016 45.3431 20.1016 45.3431Z" fill="#C2A633"/>
</svg>
