<svg xmlns="http://www.w3.org/2000/svg" width="73" height="72" viewBox="0 0 73 72">
    <g fill="#F4B731" fill-rule="evenodd">
        <path d="M10.08 0H2.6v6.005H0v2.151h2.6v2.258H0v2.151h2.6v5.932h7.48c4.5 0 7.922-2.422 9.24-5.932h2.374v-2.151H19.84c.046-.381.069-.77.069-1.167v-.053c0-.352-.018-.698-.054-1.038h1.84V6.005h-2.331C18.08 2.445 14.63 0 10.08 0zM4.692 16.567v-4.002h12.337c-1.15 2.4-3.621 4.002-6.947 4.002H4.69zm0-6.153h12.978c.05-.362.076-.734.076-1.114v-.053c0-.371-.025-.736-.073-1.09H4.691v2.257zm12.353-4.41C15.9 3.573 13.422 1.928 10.08 1.928H4.69v4.078h12.353zM34.917 5.187c-.513-.095-1.073-.143-1.682-.143h-1.882c-.856 0-1.55.694-1.55 1.55v6.577c0 .856.694 1.55 1.55 1.55h.956c.404 0 .717-.002.94-.007.227-.004.515-.022.865-.054.35-.037.667-.086.953-.15.558-.123 1.053-.311 1.485-.565.435-.259.787-.547 1.055-.865.272-.322.495-.683.667-1.083.173-.404.293-.799.361-1.185.069-.39.102-.794.102-1.212 0-.318-.024-.624-.074-.92-.046-.299-.13-.603-.252-.912-.118-.308-.27-.594-.457-.858-.186-.263-.424-.51-.715-.742-.29-.231-.621-.429-.994-.592-.372-.164-.815-.293-1.328-.389zM31.52 6.624h1.764c.4 0 .713.016.94.048.268.036.529.102.783.197.254.096.504.23.749.402.25.173.465.375.647.606.186.227.333.509.443.845.113.336.17.703.17 1.103 0 .694-.155 1.3-.463 1.818-.168.282-.38.522-.634.722-.25.195-.492.343-.728.443-.232.095-.513.17-.845.224-.331.055-.599.087-.803.096-.205.009-.463.013-.777.013H31.52V6.624zM45.517 5.044c-.567 0-1.077.347-1.286.874l-3.488 8.803h1.662l1.083-2.533h3.95l1.082 2.533h1.764L46.802 5.92c-.208-.528-.718-.875-1.285-.875zm-.054 1.982l1.375 3.589H44.08l1.383-3.589z" transform="translate(7.875 27)"/>
        <path fill-rule="nonzero" d="M54.39 5.902c0-.473.385-.858.859-.858.473 0 .858.385.858.859v8.818H54.39V5.902z" transform="translate(7.875 27)"/>
    </g>
</svg>
