<svg width="96" height="60" viewBox="0 0 96 60" fill="none" xmlns="http://www.w3.org/2000/svg">
<g clip-path="url(#clip0_9008_2433)">
<path d="M31.3054 38.332V26.1509H33.1249L33.2842 27.1386H33.3798C33.8896 26.4695 34.7816 25.9916 35.9959 25.9916C38.2296 25.9916 40.0456 27.8112 40.0456 30.5193C40.0456 33.2274 38.2579 35.0469 35.9923 35.0469C34.7816 35.0469 33.9497 34.5372 33.5037 33.9637H33.4081V38.3002H31.3018V38.332H31.3054ZM37.9393 30.5193C37.9393 28.9263 36.9198 27.9351 35.6737 27.9351C34.4276 27.9351 33.4081 28.9227 33.4081 30.5193C33.4081 32.1158 34.4276 33.1035 35.6737 33.1035C36.9198 33.1035 37.9393 32.1158 37.9393 30.5193Z" fill="#22143D"/>
<path d="M41.097 30.5193C41.097 27.8713 43.0121 25.9916 45.5291 25.9916C48.0814 25.9916 49.9612 27.9067 49.9612 30.5193C49.9612 33.1672 48.046 35.0469 45.5291 35.0469C42.9767 35.0469 41.097 33.1353 41.097 30.5193ZM47.8549 30.5193C47.8549 28.9581 46.8353 27.9351 45.5255 27.9351C44.2511 27.9351 43.1962 28.9546 43.1962 30.5193C43.1962 32.0839 44.2476 33.1035 45.5255 33.1035C46.8035 33.1035 47.8549 32.0839 47.8549 30.5193Z" fill="#22143D"/>
<path d="M51.4904 34.8876V22.8021H53.5967V34.8876H51.4904Z" fill="#22143D"/>
<path d="M61.4414 26.1509H63.6751L59.8802 36.7709C59.4979 37.8223 58.9882 38.332 57.6146 38.332H55.5756V36.385H57.296C57.6146 36.385 57.7739 36.2257 57.8695 35.9709L58.0607 35.3974L54.4888 26.1474H56.7226L58.9882 32.2078H59.3386L61.3812 26.1474H61.4414V26.1509Z" fill="#22143D"/>
<path d="M64.0893 35.3372H66.2275C66.323 35.9107 66.8965 36.6753 68.2382 36.6753C69.5126 36.6753 70.3445 35.8788 70.3445 34.6646V33.4539H70.2489C69.771 33.9637 68.9108 34.4097 67.824 34.4097C65.5903 34.4097 63.838 32.6893 63.838 30.2007C63.838 27.712 65.5584 25.9916 67.824 25.9916C68.971 25.9916 69.8347 26.4695 70.3763 27.1067H70.4719L70.6312 26.1509H72.4508V34.6646C72.4508 36.9939 70.8896 38.5232 68.2417 38.5232C65.2681 38.5232 64.153 36.5797 64.0893 35.3372ZM70.3091 30.2007C70.3091 28.8307 69.3533 27.8713 68.1072 27.8713C66.8965 27.8713 65.9372 28.8271 65.9372 30.2007C65.9372 31.5742 66.893 32.53 68.1072 32.53C69.3214 32.53 70.3091 31.5706 70.3091 30.2007Z" fill="#22143D"/>
<path d="M73.8809 30.5193C73.8809 27.8713 75.7961 25.9916 78.313 25.9916C80.8654 25.9916 82.7451 27.9067 82.7451 30.5193C82.7451 33.1672 80.83 35.0469 78.313 35.0469C75.7607 35.0469 73.8809 33.1353 73.8809 30.5193ZM80.6423 30.5193C80.6423 28.9581 79.591 27.9351 78.313 27.9351C77.0386 27.9351 75.9837 28.9546 75.9837 30.5193C75.9837 32.0839 77.0351 33.1035 78.313 33.1035C79.5874 33.1035 80.6423 32.0839 80.6423 30.5193Z" fill="#22143D"/>
<path d="M84.2142 26.1509H86.0338L86.1931 26.9793H86.2886C86.6391 26.5969 87.4993 25.9916 88.8091 25.9916C90.8198 25.9916 92.2535 27.4253 92.2535 29.659V34.9195H90.1472V29.9458C90.1472 28.8307 89.3507 27.9988 88.264 27.9988C87.1772 27.9988 86.317 28.859 86.317 29.9458V34.9195H84.2142V26.1509Z" fill="#22143D"/>
<path d="M19.9526 33.8681L25.1174 30.8697C25.4042 30.7104 25.5635 30.4237 25.5635 30.1051V24.1083C25.5635 23.7897 25.4042 23.503 25.1174 23.3437L19.9526 20.3453C19.6658 20.186 19.3472 20.186 19.0605 20.3453L13.8921 23.3437C13.6054 23.503 13.4461 23.7897 13.4461 24.1083V34.792L9.81048 36.8983L6.1749 34.792V30.6148L9.81048 28.5085L12.2035 29.8785V27.0713L10.2565 25.9562C10.1291 25.8925 9.96978 25.8288 9.81048 25.8288C9.65118 25.8288 9.49188 25.8606 9.36444 25.9562L4.19604 28.9581C3.9093 29.1174 3.75 29.4042 3.75 29.7228V35.7195C3.75 36.0381 3.9093 36.3249 4.19604 36.4842L9.3609 39.4825C9.64764 39.6418 9.96624 39.6418 10.253 39.4825L15.4178 36.4842C15.7046 36.3249 15.8639 36.0381 15.8639 35.7195V25.0358L15.9276 25.0039L19.503 22.9295L23.1386 25.0358V29.213L19.503 31.3158L17.11 29.9458V32.753L19.057 33.8681C19.3437 34.0274 19.6623 34.0274 19.9526 33.8681Z" fill="url(#paint0_linear_9008_2433)"/>
</g>
<defs>
<linearGradient id="paint0_linear_9008_2433" x1="3.71426" y1="36.3084" x2="24.5078" y2="24.1576" gradientUnits="userSpaceOnUse">
<stop stop-color="#A726C1"/>
<stop offset="0.8784" stop-color="#803BDF"/>
<stop offset="1" stop-color="#7B3FE4"/>
</linearGradient>
<clipPath id="clip0_9008_2433">
<rect width="88.5" height="19.3284" fill="white" transform="translate(3.75 20.25)"/>
</clipPath>
</defs>
</svg>
