<svg width="118" height="36" viewBox="0 0 118 36" fill="none" xmlns="http://www.w3.org/2000/svg">
<rect width="118" height="34.4719" fill="#F7E224"/>
<path fill-rule="evenodd" clip-rule="evenodd" d="M51.8074 21.4456C51.2107 21.4456 50.813 21.3793 50.5478 21.1804C50.2826 21.0478 50.1501 20.7827 50.1501 20.3849C50.0923 20.2695 50.1352 20.1037 50.191 19.8877C50.1992 19.8557 50.2078 19.8225 50.2164 19.7883C50.2164 19.5231 50.2826 19.1917 50.4815 18.6613L51.94 11.8995H54.7242L55.122 10.2422H52.3377L53.1332 6.66245L50.6141 7.25907L49.9512 10.2422H47.4984L47.1006 11.8995H49.4871L48.0287 18.3961C48.0022 18.6348 47.9545 18.8734 47.9067 19.1121C47.8351 19.4701 47.7635 19.8281 47.7635 20.186C47.6973 20.7164 47.6972 21.1141 47.6972 21.3793C47.7635 22.1085 47.9624 22.6389 48.4928 22.904C48.8905 23.2355 49.6197 23.3681 50.6141 23.3681C50.7723 23.3681 50.9455 23.353 51.1267 23.3372L51.1267 23.3372C51.3252 23.3199 51.5331 23.3018 51.7411 23.3018C51.9482 23.2673 52.1554 23.2507 52.3719 23.2334C52.5711 23.2175 52.7782 23.201 53.0006 23.1692L53.3984 21.2467C53.1332 21.313 52.868 21.3793 52.6029 21.3793C52.4161 21.3793 52.2504 21.4003 52.1057 21.4187C51.9936 21.433 51.8942 21.4456 51.8074 21.4456ZM78.258 9.71179C79.5175 9.71179 80.5119 10.1095 81.2411 10.8387C81.9703 11.568 82.4344 12.6286 82.4344 13.8882C82.6996 16.4736 82.2355 18.6612 80.976 20.4511C79.7827 22.241 78.1254 23.1691 76.1367 23.1691C76.0704 23.1691 75.9875 23.1525 75.9046 23.1359C75.8218 23.1194 75.7389 23.1028 75.6726 23.1028C74.9434 23.0365 74.3468 22.8376 73.8164 22.5725C73.1535 22.241 72.6232 21.7107 72.2254 20.9814L70.7007 27.8095H66.7232L69.7726 13.9545C70.1703 12.1646 70.4355 10.8387 70.5018 9.97695H74.0816L74.0153 11.568C74.5456 11.1039 75.076 10.6399 75.6726 10.3084C75.7307 10.2793 75.7889 10.263 75.8414 10.2483C75.9087 10.2294 75.9668 10.213 76.0041 10.1758C76.667 9.84436 77.4625 9.71179 78.258 9.71179ZM77.6614 18.8601C77.9928 18.1309 78.258 17.3354 78.4569 16.4736C78.6558 15.6118 78.6557 14.8826 78.5894 14.2859C78.5894 13.5567 78.3243 13.0264 77.9928 12.6949C77.6614 12.2972 77.131 12.0983 76.5344 12.0983C76.2692 12.0983 76.0041 12.0983 75.7389 12.1646C74.9434 12.4298 74.2805 13.0264 73.7501 13.9545C72.9546 15.2803 72.6895 16.6725 72.822 18.2635C72.9546 19.059 73.1535 19.7219 73.5512 20.1196C73.949 20.5174 74.4793 20.7826 75.1423 20.7826C75.3411 20.7826 75.54 20.7826 75.7389 20.7163C76.0041 20.65 76.2692 20.5174 76.5344 20.3185C76.9984 19.9871 77.3299 19.523 77.6614 18.8601ZM17.1366 9.91086C18.3962 9.91086 19.3905 10.2423 20.1861 11.0378C21.0478 11.767 21.4456 12.894 21.5782 14.1535C21.7108 15.1479 21.5782 16.1423 21.313 17.2693C21.1141 18.33 20.7164 19.3243 20.1861 20.1198C19.5894 21.1805 18.7939 21.9097 17.8658 22.4401C17.0703 22.9041 16.2085 23.1693 15.2804 23.2356H14.8827C13.9546 23.2356 13.2254 23.0367 12.5625 22.7052C11.9658 22.3738 11.3692 21.8434 10.9052 21.1805L9.38043 27.8097H6.86133L10.1759 13.3581C10.2063 13.115 10.2506 12.872 10.2961 12.6226C10.3498 12.3278 10.4052 12.024 10.4411 11.7008C10.4753 11.4273 10.4918 11.1539 10.509 10.8713V10.8713C10.525 10.6059 10.5416 10.3325 10.5737 10.0434H12.8939L12.695 12.0322C13.358 11.3693 14.0872 10.7726 14.8164 10.4412C14.9014 10.3562 15.0136 10.3257 15.1182 10.2973C15.1767 10.2814 15.2328 10.2661 15.2804 10.2423C15.8771 9.97715 16.54 9.91086 17.1366 9.91086ZM17.8658 19.2581C18.2636 18.5288 18.595 17.7333 18.8602 16.8052C19.0591 15.8771 19.1254 15.0154 19.1254 14.3524C19.0591 13.4906 18.7276 12.8277 18.2636 12.2974C17.7332 11.767 17.0703 11.5019 16.2748 11.5019C15.9433 11.5019 15.6119 11.5682 15.3467 11.6345C15.0153 11.7007 14.6838 11.8996 14.3523 12.0985C13.7557 12.4962 13.2254 13.0929 12.8276 13.8884C12.4299 14.6176 12.0984 15.5457 11.8332 16.5401C11.5681 17.6007 11.5018 18.3962 11.5681 19.0592C11.5681 19.7884 11.8995 20.385 12.3636 20.8491C12.8276 21.2468 13.4243 21.512 14.2198 21.512C14.6175 21.512 15.0153 21.4457 15.3467 21.3794L15.3473 21.3792L15.3473 21.3792L15.3473 21.3791L15.3474 21.3791L15.3474 21.3791L15.3474 21.3791L15.3474 21.3791C15.6786 21.2466 16.0098 21.1141 16.2748 20.9817C16.9377 20.5839 17.4681 20.0536 17.8658 19.2581ZM94.367 10.7064C93.4389 10.1097 92.2457 9.91086 90.5221 9.91086C89.9917 9.91086 89.4614 9.91086 88.9974 9.97715C88.003 10.1097 87.2075 10.3749 86.4782 10.8389C85.5502 11.5019 84.9535 12.43 84.8872 13.6232H88.6659C88.7322 13.2255 88.8648 12.894 89.0637 12.6951C89.1299 12.5625 89.1962 12.4962 89.3288 12.4299C89.594 12.1648 90.058 12.0322 90.5884 12.0322C91.0524 12.0322 91.4502 12.0985 91.7153 12.2974C91.9805 12.4963 92.1131 12.7614 92.1794 13.1592C92.1794 13.358 92.1794 13.5569 92.1131 13.7558C92.1131 14.021 92.0468 14.3524 91.9142 14.8828H91.5164H90.8535C90.2569 14.8828 89.594 14.8828 89.0637 14.9491C87.2075 15.0816 85.749 15.5457 84.6884 16.2086C83.3625 17.0704 82.6996 18.33 82.8985 19.921C82.9648 20.9816 83.3625 21.7771 84.0917 22.3738C84.821 22.9704 85.6827 23.3019 86.876 23.3019C87.6715 23.3019 88.3344 23.103 88.9974 22.7715L89.0637 22.7052C89.6603 22.4401 90.1906 21.9097 90.6547 21.2468C90.6547 21.4125 90.6381 21.5617 90.6215 21.7109C90.6049 21.86 90.5884 22.0092 90.5884 22.1749V23.103H94.2344C94.2344 22.5064 94.2344 21.976 94.3007 21.4457C94.367 20.8491 94.4333 20.3187 94.5659 19.8547L95.5603 15.4794C95.5997 15.243 95.6625 14.9832 95.7209 14.7417L95.7209 14.7416L95.7209 14.7415L95.721 14.7413L95.721 14.7412L95.721 14.741C95.7608 14.5765 95.7986 14.4204 95.8254 14.2861C95.8917 13.8884 95.8917 13.5569 95.8254 13.2255C95.6929 12.0985 95.2288 11.2367 94.367 10.7064ZM90.1906 19.7884C89.7929 20.1861 89.3951 20.5176 89.0637 20.7165C88.7985 20.8491 88.467 20.9154 88.1355 20.9154C87.7378 20.9154 87.34 20.8491 87.1412 20.5839C86.876 20.3187 86.7434 19.9873 86.7434 19.5895C86.6771 18.794 87.0086 18.1311 87.8041 17.6007C88.2018 17.3356 88.5996 17.1367 89.1299 17.0041C89.594 16.8715 90.1906 16.8052 90.7872 16.8052H91.185C91.2513 16.8052 91.3839 16.8052 91.4501 16.8715C91.2513 18.0648 90.7872 19.0592 90.1906 19.7884ZM102.388 18.9265L107.426 9.97705H111.139L103.051 23.5669L100.665 27.8096H96.4883L99.604 23.0366L97.3501 9.97705H101.261L102.388 18.9265ZM34.5715 14.0208C34.4389 12.6949 33.9749 11.6342 32.9805 10.8387C32.0524 10.1095 30.8591 9.71179 29.3344 9.71179H29.3341C28.9364 9.71179 28.4725 9.71179 28.0749 9.77806C27.2794 9.84435 26.5502 10.0432 25.9535 10.3084C25.0254 10.7062 24.2299 11.3028 23.6333 12.0983C22.9704 13.0264 22.5063 14.0871 22.1749 15.2803C21.7771 16.5399 21.7108 17.6668 21.7771 18.7938C21.8434 20.1859 22.3738 21.2466 23.3681 22.0421C24.2962 22.8376 25.4895 23.2354 27.0142 23.2354C27.2221 23.2354 27.43 23.2173 27.6285 23.2L27.6285 23.2H27.6285C27.8097 23.1842 27.983 23.1691 28.1412 23.1691C29.0692 23.1028 29.9311 22.9039 30.594 22.5725C31.5221 22.1747 32.3176 21.4455 32.9805 20.4511C33.5771 19.5893 33.9749 18.5286 34.24 17.3354C34.5715 16.2084 34.7041 15.0152 34.5715 14.0208ZM31.7209 16.8713C31.4558 17.8657 31.1243 18.7938 30.6603 19.5893C30.2625 20.3185 29.7322 20.8489 29.2018 21.1803C28.9367 21.3792 28.5389 21.5118 28.1412 21.5781C27.876 21.6444 27.5445 21.6444 27.2131 21.6444C26.3513 21.6444 25.6883 21.3792 25.158 20.9152C24.694 20.4511 24.3625 19.7882 24.2962 18.9264C24.2299 18.1309 24.2962 17.2691 24.5614 16.2084C24.8266 15.1477 25.158 14.2859 25.5558 13.5567C25.9535 12.7612 26.4839 12.2309 27.0805 11.7668C27.412 11.5679 27.8097 11.4354 28.1412 11.3691C28.1895 11.3594 28.2365 11.3497 28.2824 11.3403L28.2825 11.3403C28.5514 11.2849 28.7862 11.2365 29.0693 11.2365C29.9974 11.2365 30.6603 11.5017 31.1243 11.9657C31.5883 12.3635 31.9198 13.0927 31.9861 14.0871C32.0524 14.9488 31.9861 15.8107 31.7209 16.8713ZM41.267 9.77814C42.7917 9.77814 43.8523 10.0433 44.5816 10.4411C45.3108 10.8388 45.7085 11.4355 45.7085 12.5624V13.0265V13.0266C45.7085 13.1592 45.7085 13.4243 45.6422 13.7557H43.322V13.3579V13.0265C43.322 12.4961 43.1231 12.1647 42.7254 11.8995C42.3939 11.6343 41.8636 11.5017 41.1344 11.5017C40.3389 11.5017 39.6759 11.7006 39.2782 12.0321C38.8141 12.3636 38.6153 12.8276 38.6816 13.4242C38.7479 13.7557 38.8804 14.0871 39.2119 14.3523C39.5434 14.6175 40.2063 15.0152 41.3332 15.5456C42.858 16.2085 43.9186 16.8714 44.3164 17.3355C44.7804 17.7995 45.0456 18.3961 45.1119 19.1253C45.1782 20.3186 44.7141 21.3793 43.5872 22.1748C42.5265 23.0366 41.0018 23.4343 39.2119 23.4343C37.8198 23.4343 36.6928 23.1029 35.831 22.6388C35.0355 22.1085 34.5714 21.3793 34.5051 20.4512C34.4389 20.2523 34.4389 19.9871 34.5051 19.722C34.5399 19.6176 34.5565 19.4766 34.5739 19.3279C34.5897 19.1934 34.6062 19.0524 34.6377 18.9265H37.2231L37.2231 18.9266C37.1568 19.1254 37.0905 19.3242 37.0905 19.5231C37.0242 19.722 37.0242 19.8546 37.0905 19.9871C37.0905 20.5175 37.2894 20.8489 37.6872 21.1141C38.0849 21.4456 38.549 21.5119 39.3445 21.5119C40.3389 21.5119 41.0681 21.313 41.6647 20.9152C42.2613 20.4512 42.5265 19.9209 42.4602 19.3242C42.4602 18.9265 42.2613 18.595 41.9299 18.3298C41.5984 18.0647 40.9355 17.6669 39.8748 17.2029C38.549 16.6062 37.6209 16.0096 37.0905 15.4793C36.4939 14.9489 36.2287 14.3523 36.1625 13.6894C36.0962 12.5624 36.4939 11.7006 37.422 10.9051C38.3501 10.1759 39.6759 9.77814 41.267 9.77814ZM61.1546 16.8714H57.376C57.2434 17.2029 57.1771 17.6006 57.1108 18.1973C57.0445 18.5287 57.0445 18.8602 57.0445 19.1253C57.1108 19.9208 57.4423 20.5838 57.9063 20.9815C58.4366 21.3793 59.0996 21.6445 60.0276 21.6445C60.4254 21.6445 60.8232 21.5781 61.1546 21.4456L61.9501 21.0478C62.5467 20.6501 62.9445 20.1197 63.2097 19.3905H65.9939C65.6625 20.6501 64.9996 21.6444 63.8726 22.3736C63.1434 22.904 62.2153 23.2354 61.1546 23.368C60.9226 23.368 60.6906 23.3846 60.4586 23.4012C60.2265 23.4178 59.9945 23.4343 59.7625 23.4343C58.2378 23.4343 57.0445 23.0366 56.1164 22.3074C55.2546 21.5782 54.7243 20.5175 54.658 19.1916C54.5917 18.1973 54.658 17.004 54.9894 15.7444C55.2546 14.4849 55.7187 13.4242 56.249 12.4961C56.8456 11.6343 57.5748 10.9051 58.5029 10.5074C59.2984 10.0433 60.1602 9.84444 61.1546 9.77814H61.6849C63.4085 9.77814 64.6681 10.1096 65.5299 10.7062C66.3917 11.3029 66.922 12.2973 66.9883 13.6894C67.0546 14.1534 67.0546 14.6838 66.9883 15.2141C66.9883 15.6909 66.8812 16.1676 66.7632 16.6926C66.7499 16.7515 66.7365 16.8111 66.7232 16.8714H61.1546ZM61.2209 11.3029C60.4254 11.3692 59.7625 11.6343 59.2322 12.231C58.5692 12.8276 58.0389 13.822 57.9063 15.0152H61.2209H64.4692C64.4692 14.7963 64.4893 14.5974 64.5074 14.4186C64.5221 14.2726 64.5355 14.14 64.5355 14.0209C64.6018 13.822 64.6018 13.6231 64.5355 13.4242C64.5355 12.7613 64.2041 12.231 63.74 11.8332C63.2097 11.5017 62.5467 11.2366 61.6849 11.2366C61.6187 11.2366 61.5358 11.2532 61.4529 11.2697C61.3701 11.2863 61.2872 11.3029 61.2209 11.3029Z" fill="#0054A4"/>
</svg>
