<svg xmlns="http://www.w3.org/2000/svg" width="72" height="72" viewBox="0 0 72 72">
    <g fill="none">
        <path fill="#F7931B" d="M11.417 29.46c3.713.94 5.972 4.755 5.046 8.522-.925 3.767-4.685 6.06-8.398 5.12-3.712-.94-5.97-4.754-5.045-8.52.925-3.768 4.685-6.06 8.397-5.122zM9.456 31.7l-.312 1.267c-.165-.038-.328-.076-.485-.116v-.004l-1.048-.265-.202.824s.564.13.552.139c.308.078.364.285.354.449l-.354 1.443c.02.006.048.014.079.026l-.08-.02-.498 2.022c-.038.095-.133.238-.348.184.007.01-.553-.14-.553-.14l-.377.883.989.25c.184.047.364.096.542.142L7.4 40.066l.76.192.311-1.268c.208.057.41.11.606.16l-.31 1.262.76.192.315-1.28c1.296.25 2.271.149 2.682-1.04.33-.959-.017-1.511-.699-1.872.497-.116.871-.448.97-1.132.139-.936-.563-1.439-1.523-1.774l.311-1.268-.76-.192-.303 1.234c-.2-.05-.405-.098-.61-.146l.306-1.242-.76-.192zm-.32 4.663c.516.13 2.168.39 1.923 1.388-.235.958-1.825.44-2.34.31l.417-1.698zm.57-2.317c.429.108 1.811.31 1.588 1.22-.215.871-1.538.428-1.967.32l.379-1.54z"/>
        <path fill="#4D4D4D" d="M44.06 33.452c.526 0 .997.05 1.41.152.416.102.793.234 1.133.4l-.895 2.065c-.234-.096-.477-.18-.728-.258-.251-.078-.558-.116-.92-.116-.867 0-1.552.303-2.062.907-.508.605-.763 1.418-.763 2.439 0 .605.128 1.094.386 1.468.257.374.732.56 1.42.56.34 0 .669-.036.983-.106.316-.071.596-.16.842-.267l.194 2.117c-.328.13-.69.246-1.087.349-.398.098-.872.15-1.422.15-.725 0-1.339-.108-1.841-.32-.503-.216-.918-.502-1.245-.864-.328-.363-.564-.786-.71-1.273-.146-.486-.22-.997-.22-1.53 0-.806.128-1.566.385-2.278.256-.712.626-1.335 1.106-1.87.478-.531 1.06-.953 1.745-1.262.683-.308 1.446-.463 2.288-.463zM22.75 29.253l-1.086 4.59c.232-.106.467-.188.7-.248.235-.06.486-.09.754-.09.562 0 1.048.102 1.456.303.41.202.748.475 1.02.819.267.345.466.748.595 1.21.128.463.192.961.192 1.495 0 .819-.148 1.593-.447 2.322-.298.73-.703 1.364-1.219 1.905-.515.54-1.123.965-1.824 1.28-.7.314-1.461.472-2.279.472-.105 0-.291-.003-.554-.009-.262-.005-.564-.033-.902-.08-.34-.047-.7-.118-1.079-.214-.38-.093-.74-.225-1.079-.391l3.035-12.937 2.717-.427zm28.857 4.199c.608 0 1.143.096 1.606.285.46.19.84.458 1.14.801.297.345.522.75.674 1.22.153.467.228.987.228 1.556 0 .71-.111 1.423-.332 2.136-.221.71-.55 1.351-.983 1.922-.432.569-.972 1.034-1.622 1.396-.648.361-1.4.543-2.254.543-.62 0-1.157-.096-1.614-.285-.455-.19-.832-.456-1.13-.801-.299-.343-.522-.75-.675-1.219-.154-.468-.227-.987-.227-1.555 0-.713.113-1.426.34-2.137.228-.712.564-1.352 1.01-1.921.442-.57.988-1.036 1.63-1.399.642-.36 1.38-.542 2.209-.542zm-15.204-2.508l-.667 2.758h2.912l-.526 2.17h-2.894l-.771 3.275c-.071.273-.112.528-.123.764-.013.238.017.443.087.615.07.172.195.305.377.4.181.095.44.143.78.143.28 0 .553-.027.817-.08.262-.053.528-.127.797-.223l.194 2.03c-.351.13-.731.242-1.14.337-.41.096-.896.142-1.457.142-.806 0-1.431-.122-1.877-.364-.444-.243-.759-.576-.947-.998-.186-.42-.269-.904-.245-1.449.024-.547.105-1.121.245-1.726l1.72-7.367 2.718-.427zm-4.993 2.758l-2.21 9.36h-2.596l2.192-9.36h2.614zm28.884 0l-2.21 9.36h-2.598l2.193-9.36h2.615zm5.586-.214c1.369 0 2.313.404 2.834 1.21.52.807.61 1.911.273 3.31l-1.194 5.054H65.18l1.157-4.947c.07-.31.126-.608.167-.9.041-.289.039-.544-.01-.764-.046-.218-.154-.397-.323-.535-.171-.136-.43-.204-.781-.204-.339 0-.683.037-1.034.108l-1.702 7.242h-2.614l2.123-8.933c.197-.059.417-.129.657-.205.24-.077.508-.148.808-.212.296-.066.63-.12.999-.161.368-.043.787-.063 1.253-.063zm-43.41 2.224c-.164 0-.376.032-.639.089-.264.06-.5.185-.711.374l-1.157 4.875.184.036c.051.012.108.02.165.027.06.006.129.01.212.01h.315c.41 0 .795-.102 1.157-.303.363-.2.677-.472.94-.81.262-.339.47-.72.622-1.148.151-.427.228-.872.228-1.335 0-.57-.094-1.014-.28-1.335-.187-.32-.533-.48-1.035-.48zm28.892-.017c-.385 0-.725.113-1.016.337-.293.227-.538.511-.736.855-.2.345-.349.721-.45 1.13-.098.41-.147.797-.147 1.165 0 .594.094 1.057.28 1.39.188.33.526.497 1.017.497.387 0 .725-.112 1.018-.339.29-.224.536-.51.736-.854.199-.343.348-.72.449-1.13.098-.408.148-.798.148-1.165 0-.592-.094-1.056-.282-1.388-.187-.332-.526-.498-1.017-.498zM30.85 29.43c.362 0 .689.11.981.329.292.22.439.556.439 1.005 0 .25-.05.484-.15.704-.099.22-.23.409-.394.57-.162.16-.354.286-.57.382-.217.096-.447.141-.692.141-.362 0-.69-.11-.982-.329-.294-.218-.44-.553-.44-1.005 0-.25.05-.482.15-.703.1-.22.23-.408.395-.57.164-.159.353-.286.57-.382.216-.095.447-.142.693-.142zm28.882 0c.363 0 .691.11.983.329.292.22.44.556.44 1.005 0 .25-.053.484-.151.704-.098.22-.23.409-.393.57-.165.16-.354.286-.57.382-.217.096-.448.141-.694.141-.362 0-.69-.11-.982-.329-.292-.218-.439-.553-.439-1.005 0-.25.05-.482.15-.703.098-.22.23-.408.394-.57.164-.159.355-.286.57-.382.216-.095.447-.142.692-.142z"/>
    </g>
</svg>
