<svg width="118" height="34" fill="none" xmlns="http://www.w3.org/2000/svg"><path d="m7.662 1.426 11.926 15.576L.472 32.578h19.32c2.739 0 5.397-.934 7.54-2.639a12.108 12.108 0 0 0 4.261-6.752l1.6-6.93a12.108 12.108 0 0 0-11.8-14.831H7.662z" fill="url(#a)"/><path d="m19.588 17.002-8.496 15.576H.472l19.116-15.576z" fill="#CC2F3E"/><path d="m82.107 19.298-9.939 6.476h14.767l-1.198 6.804H63.536l1.738-9.862L78.95 13.78a3.9 3.9 0 0 0 1.734-2.535 2.581 2.581 0 0 0-.513-2.157 2.507 2.507 0 0 0-1.964-.86H66.832l1.198-6.8h11.258a8.263 8.263 0 0 1 6.476 2.868 8.503 8.503 0 0 1 1.747 7.093 12.221 12.221 0 0 1-5.404 7.908zM60.906 3.397a8.664 8.664 0 0 0-3.495-1.518 21.71 21.71 0 0 0-4.503-.45H41.357L40.33 7.234h10.358c.67 0 1.338.037 2.004.108.625.06 1.235.231 1.801.504.53.24.975.636 1.274 1.135.295.593.37 1.27.212 1.914a4.188 4.188 0 0 1-.743 1.824c-.344.47-.787.86-1.297 1.143a5.64 5.64 0 0 1-1.644.595 9.357 9.357 0 0 1-1.8.175h-11.47l-3.153 17.946h6.836l2.139-12.159h5.017c1.562.011 3.12-.14 4.652-.45 1.4-.276 2.74-.802 3.953-1.554a9.741 9.741 0 0 0 2.937-2.945 12.114 12.114 0 0 0 1.688-4.575c.325-1.847.28-3.378-.135-4.594a6.026 6.026 0 0 0-2.053-2.904zM116.949 6.301a5.969 5.969 0 0 0-2.04-2.904 8.649 8.649 0 0 0-3.49-1.518 21.793 21.793 0 0 0-4.503-.45h-11.56l-1.023 5.805h10.38c.668 0 1.336.037 2 .108.626.059 1.236.23 1.801.504.505.247.927.637 1.212 1.121.294.593.369 1.271.211 1.914a4.196 4.196 0 0 1-.738 1.824c-.347.47-.791.86-1.302 1.144a5.594 5.594 0 0 1-1.643.594 9.352 9.352 0 0 1-1.802.176h-11.42L89.88 32.565h6.867l2.14-12.16h5.011c1.564.011 3.124-.14 4.657-.45 1.39-.281 2.719-.81 3.922-1.562a9.752 9.752 0 0 0 2.941-2.945 12.194 12.194 0 0 0 1.684-4.576c.311-1.824.261-3.355-.153-4.57z" fill="#1A1A1A"/><defs><linearGradient id="a" x1="21.342" y1="-3.942" x2="15.137" y2="35.198" gradientUnits="userSpaceOnUse"><stop stop-color="#F26447"/><stop offset="1" stop-color="#EF4852"/></linearGradient></defs></svg>