<svg width="128" height="80" viewBox="0 0 128 80" fill="none" xmlns="http://www.w3.org/2000/svg">
<path fill-rule="evenodd" clip-rule="evenodd" d="M18.245 47.0389C19.0631 47.0483 19.8601 47.0574 19.8601 48.6925V58.1509C19.8043 59.4563 19.2533 59.5122 18.1196 59.6272L18.0676 59.6325V60.1391C18.9438 60.119 19.8034 60.1007 20.6805 60.1007C21.1285 60.1007 21.5772 60.11 22.0351 60.1194H22.0361C22.5134 60.1292 23.0007 60.1391 23.5074 60.1391C30.4105 60.1391 31.5418 55.2856 31.5418 53.3531C31.5418 49.9007 28.7908 46.5296 23.7424 46.5296C22.9186 46.5296 22.2031 46.5415 21.5885 46.5517C21.1258 46.5594 20.7202 46.5662 20.3686 46.5662C19.6068 46.5662 18.8276 46.5662 18.0676 46.5296V47.0362C18.1265 47.0375 18.186 47.0382 18.245 47.0389ZM23.7992 59.5145C22.8444 59.5145 21.7716 59.3398 21.7716 57.8381L21.7707 57.8372V47.232C21.8648 47.2263 21.9602 47.2182 22.0647 47.2092C22.3509 47.1846 22.7057 47.1542 23.2925 47.1542C27.0559 47.1542 29.3944 49.7854 29.3944 53.4327C29.3944 56.3364 28.0125 59.5145 23.7992 59.5145Z" fill="#1A1919"/>
<path d="M32.5945 59.6325H32.225V60.1391C32.9457 60.119 33.648 60.1007 34.3495 60.1007C34.7042 60.1007 35.0548 60.1106 35.4006 60.1203C35.7369 60.1298 36.069 60.1391 36.3954 60.1391V59.6325H36.0661C35.5192 59.6325 35.0894 59.6325 35.0894 58.9877V51.502C35.0894 51.3447 35.0492 51.2277 34.954 51.2277C34.8544 51.2277 34.7391 51.2487 34.6019 51.3264C34.5251 51.385 33.4322 51.7535 32.5149 52.0288V52.3407L32.6036 52.3882C33.2615 52.7398 33.5301 52.8833 33.5301 53.7034V58.9877C33.5301 59.6325 33.1396 59.6325 32.5945 59.6325Z" fill="#1A1919"/>
<path d="M33.3554 47.2512C33.3554 47.7578 33.8026 48.2261 34.3102 48.2261C34.837 48.2261 35.2668 47.778 35.2668 47.2512C35.2668 46.7244 34.8169 46.3128 34.3102 46.3128C33.8236 46.3128 33.3554 46.7628 33.3554 47.2512Z" fill="#1A1919"/>
<path d="M37.1188 52.5346C38.0343 52.9068 38.2492 53.1007 38.2492 53.8214V58.9868C38.2492 59.6316 37.8596 59.6316 37.3145 59.6316H36.9624V60.1382C37.6639 60.1181 38.3663 60.0998 39.0668 60.0998C39.4211 60.0998 39.77 60.1096 40.1162 60.1192C40.4573 60.1288 40.7961 60.1382 41.1346 60.1382V59.6316H40.7844C40.2384 59.6316 39.8076 59.6316 39.8076 58.9868V53.2168C40.4524 52.7861 41.4474 52.2803 42.0711 52.2803C43.1842 52.2803 43.8637 52.8254 43.8637 53.9384V58.9877C43.8637 59.6325 43.475 59.6325 42.929 59.6325H42.5769V60.1391C43.2793 60.119 43.9817 60.1007 44.685 60.1007C45.0372 60.1007 45.3846 60.1104 45.73 60.1201C46.0716 60.1297 46.4113 60.1391 46.7519 60.1391V59.6325H46.3998C45.8547 59.6325 45.4248 59.6325 45.4248 58.9877V53.9576C45.4248 52.4367 44.8395 51.2268 43.1842 51.2268C41.8764 51.2268 40.9206 51.8916 39.8076 52.6901V51.4225C39.8076 51.2661 39.7509 51.2277 39.6915 51.2277C38.8104 51.6131 38.0508 51.861 37.2671 52.1167L37.1188 52.1651V52.5346Z" fill="#1A1919"/>
<path fill-rule="evenodd" clip-rule="evenodd" d="M48.2335 55.8892C48.1941 55.2252 48.1941 54.9335 48.2335 54.7588H53.7126L53.8882 54.6408C53.9065 54.5238 53.9065 54.4085 53.9065 54.2896C53.8891 52.2218 52.1908 51.2277 50.6104 51.2277C49.2468 51.2277 46.6732 52.359 46.6732 56.1809C46.6732 57.4284 47.2979 60.4327 50.3982 60.4327C51.996 60.4327 53.1071 59.4176 54.0043 58.2286L53.7318 57.9561C53.012 58.6758 52.1725 59.2612 51.0988 59.2612C49.5413 59.2612 48.3487 57.7412 48.2335 55.8892ZM52.2301 53.6449C52.2301 53.8799 52.1725 54.1341 51.6859 54.1341H48.292C48.5252 52.7285 49.3446 51.8523 50.5336 51.8523C51.6265 51.8523 52.2301 52.6526 52.2301 53.6449Z" fill="#1A1919"/>
<path d="M54.8832 59.6325H54.3564V60.1382C55.0579 60.1181 55.8773 60.0998 56.6767 60.0998C57.3972 60.0998 58.1002 60.1133 58.9632 60.1298L59.4048 60.1382V59.6316H58.3137C57.7677 59.6316 57.3781 59.6316 57.3781 58.9868V54.4067C57.3781 53.236 58.4701 52.7861 58.8012 52.7861C59.153 52.7861 59.3236 52.911 59.4892 53.0321C59.6451 53.1463 59.7966 53.2571 60.0907 53.2571C60.6358 53.2571 61.0053 52.7861 61.0053 52.2602C61.0053 51.5578 60.3816 51.2268 59.8941 51.2268C58.7061 51.2268 57.8848 52.4761 57.3992 53.237H57.3589V51.481C57.3589 51.2853 57.2995 51.2268 57.1852 51.2268C57.1036 51.2268 56.8944 51.3341 56.5539 51.5087C56.1539 51.714 55.5722 52.0124 54.8037 52.3389V52.6306C54.8649 52.6632 54.9449 52.6941 55.0332 52.7282C55.3664 52.8571 55.817 53.0313 55.817 53.5086V58.9877C55.817 59.6325 55.4265 59.6325 54.8832 59.6325Z" fill="#1A1919"/>
<path d="M64.3206 59.809C62.8957 59.809 62.1165 58.7152 61.8622 57.4284L61.511 57.5262L61.7269 59.7697C62.4073 60.1584 63.3255 60.4327 64.1047 60.4327C66.4259 60.4327 67.4575 59.0664 67.4575 57.7805C67.4575 56.1373 66.1551 55.5785 64.9481 55.0606C63.906 54.6135 62.935 54.1968 62.935 53.1391C62.935 52.3005 63.6758 51.8523 64.4559 51.8523C65.7052 51.8523 66.3866 52.5547 66.5814 53.782H67.0295L66.8923 51.7947C66.1323 51.4042 65.2937 51.2277 64.6718 51.2277C62.5262 51.2277 61.6482 52.6315 61.6482 53.7244C61.6482 55.4152 62.8815 55.98 64.0193 56.5011C64.9937 56.9473 65.8982 57.3615 65.8982 58.4234C65.8982 59.1057 65.4693 59.809 64.3206 59.809Z" fill="#1A1919"/>
<path d="M84.5799 50.057H85.0646L84.8716 47.2704C83.3708 46.7436 81.8499 46.2351 80.2705 46.2351C76.4495 46.2351 72.8808 49.1022 72.8808 53.1007C72.8808 57.4878 75.7663 60.4327 80.3272 60.4327C81.6158 60.4327 83.8199 59.905 84.6384 59.3974L85.0866 56.5495L84.6384 56.4333C84.2488 58.482 82.6474 59.8081 80.7186 59.8081C77.7161 59.8081 74.9075 56.9812 74.9075 53.0403C74.9075 48.3605 78.1624 46.8607 80.4077 46.8607C82.5898 46.8607 84.2086 47.778 84.5799 50.057Z" fill="#1A1919"/>
<path d="M86.1383 59.6325H85.7688V60.1391C86.4913 60.119 87.1928 60.1007 87.8943 60.1007C88.2508 60.1007 88.6021 60.1106 88.9481 60.1204C89.2838 60.1298 89.6145 60.1391 89.9401 60.1391V59.6325H89.61C89.0649 59.6325 88.6351 59.6325 88.6351 58.9868V45.5153C88.6351 45.3599 88.5966 45.241 88.4778 45.241C88.4356 45.241 88.3372 45.2961 88.2023 45.3718C88.1558 45.3979 88.105 45.4264 88.0507 45.4559C87.6409 45.6909 86.8206 46.0421 86.0414 46.2945V46.6073L86.1148 46.6284C86.8024 46.8254 87.0748 46.9034 87.0748 48.1291V58.9877C87.0748 59.6325 86.6861 59.6325 86.1383 59.6325Z" fill="#1A1919"/>
<path d="M98.8324 59.4368C98.5013 59.4368 98.2892 59.4185 98.2892 59.0664L98.2882 51.8724C98.2882 51.6575 98.2882 51.5212 98.1309 51.5212C98.0619 51.5212 97.88 51.5408 97.5959 51.5713C97.0784 51.6269 96.2218 51.7189 95.09 51.7956V52.1459C95.156 52.1642 95.224 52.1827 95.2931 52.2015C95.9584 52.3825 96.7262 52.5914 96.7262 52.9443V58.1902C95.9076 58.8725 95.0306 59.3773 94.3684 59.3773C92.6719 59.3773 92.6719 57.7018 92.6719 57.1165V52.0864C92.6719 51.6575 92.6719 51.5212 92.4561 51.5212C92.3416 51.5212 91.9631 51.5448 91.5174 51.5725C90.9733 51.6064 90.3289 51.6465 89.9429 51.6575V52.0288C91.033 52.1249 91.1108 52.6123 91.1108 53.1199V58.1134C91.1108 59.7486 92.2018 60.4327 93.2545 60.4327C94.6401 60.4327 95.5382 59.7486 96.707 58.7938V60.3733L96.8048 60.4327C97.1752 60.3157 98.7748 59.9059 99.6143 59.8291V59.4185C99.4836 59.4185 99.3437 59.4232 99.2069 59.4279C99.0758 59.4324 98.9474 59.4368 98.8324 59.4368Z" fill="#1A1919"/>
<path fill-rule="evenodd" clip-rule="evenodd" d="M105.072 51.2277C104.001 51.2277 102.948 51.9697 102.168 52.6298V45.5153C102.168 45.3599 102.128 45.241 102.012 45.241C101.969 45.241 101.876 45.293 101.747 45.3653C101.719 45.3811 101.689 45.3978 101.657 45.4151C101.633 45.4284 101.608 45.442 101.582 45.4559C101.173 45.6909 100.355 46.0421 99.5741 46.2945V46.6073L99.648 46.6285C100.335 46.8254 100.608 46.9036 100.608 48.1291V56.5129C100.608 57.7028 100.51 58.8332 100.336 59.9837L100.745 60.1968L101.328 59.7486C101.404 59.7805 101.485 59.8181 101.573 59.8588C102.077 60.0926 102.811 60.4327 104.038 60.4327C106.827 60.4327 108.701 57.8774 108.701 55.324C108.701 53.1986 107.335 51.2277 105.072 51.2277ZM104.176 59.9251C102.87 59.9251 102.167 58.6758 102.167 57.9351L102.168 57.936V53.1986C102.694 52.7495 103.297 52.2812 104.021 52.2812C105.542 52.2812 107.139 54.0363 107.139 56.1407C107.139 57.8765 106.261 59.9251 104.176 59.9251Z" fill="#1A1919"/>
<path d="M20.4566 71.8201H20.4576C20.7439 71.8306 21.0281 71.8409 21.2824 71.8409H21.3299V71.4312H21.1342C20.7492 71.4212 20.3971 71.391 20.3952 70.8724V65.3146C20.3971 64.7952 20.7492 64.7613 21.1342 64.7549H21.3299V64.3434H21.2824C21.035 64.3434 20.7549 64.3534 20.4712 64.3636L20.4701 64.3636C20.1796 64.374 19.8845 64.3845 19.6179 64.3845C19.344 64.3845 19.0379 64.3731 18.7485 64.3623L18.7472 64.3622H18.7461C18.4875 64.3526 18.2423 64.3434 18.0457 64.3434H18V64.754H18.1948C18.5798 64.7613 18.9301 64.7952 18.9329 65.3146V70.8733C18.9301 71.391 18.5789 71.4221 18.1948 71.4312H18V71.8409H18.0457C18.2427 71.8409 18.4858 71.8316 18.7422 71.8217L18.7433 71.8216L18.7444 71.8216C19.0303 71.8105 19.3326 71.7989 19.606 71.7989C19.8722 71.7989 20.1655 71.8095 20.4566 71.8201Z" fill="#1A1919"/>
<path d="M29.1842 72.0001L28.7479 71.9854L23.3639 65.9841V70.2368C23.3767 71.1587 23.5166 71.4212 24.315 71.4312H24.5428V71.8409H24.4952C24.2655 71.8409 24.0363 71.8304 23.8077 71.8198H23.8055C23.5788 71.8093 23.3525 71.7989 23.127 71.7989C22.8899 71.7989 22.6501 71.8093 22.4096 71.8198C22.1677 71.8304 21.9251 71.8409 21.6838 71.8409H21.6381V71.4312H21.8329C22.5344 71.4276 22.7347 70.9767 22.7429 70.1316V65.6631C22.7402 65.0979 22.2765 64.754 21.8238 64.754H21.6372V64.3434H21.6838C21.8879 64.3434 22.0943 64.3538 22.2996 64.3641C22.5029 64.3743 22.7051 64.3845 22.903 64.3845C23.0321 64.3845 23.1596 64.3777 23.2896 64.3707C23.478 64.3605 23.6718 64.3501 23.8834 64.3598L28.5467 69.6094V65.7061C28.5412 64.8638 27.9779 64.7613 27.6687 64.7549H27.3889V64.3434H27.4346C27.6865 64.3434 27.9349 64.3537 28.1825 64.3641H28.1836C28.429 64.3743 28.6743 64.3845 28.9208 64.3845C29.1357 64.3845 29.3513 64.3743 29.5678 64.3641H29.5689C29.7867 64.3538 30.0059 64.3434 30.2258 64.3434H30.2716V64.7549H30.0676C29.6295 64.7659 29.1805 64.8043 29.1677 66.0554V70.8834C29.1677 71.2547 29.1796 71.6242 29.2299 71.947L29.239 72.0001H29.1842Z" fill="#1A1919"/>
<path d="M35.2601 71.8223C35.5427 71.832 35.8052 71.8409 35.9986 71.8409H36.0425V71.4312H35.7946C35.2889 71.4212 34.9715 71.3654 34.9606 70.5651V64.9653H36.6543C37.3235 64.9653 37.3656 65.5396 37.3948 65.9382L37.3951 65.942L37.3979 66.0033L37.7738 65.8661L37.8039 65.8542V65.8222C37.8039 65.535 37.8039 65.2497 37.8241 64.9653C37.8561 64.6818 37.8972 64.3955 37.9393 64.1111L37.9475 64.0644L37.6475 64.016L37.5991 64.0068L37.5954 64.0571C37.5771 64.3342 37.3622 64.3388 37.0668 64.3434H31.5392L31.5347 64.3433C31.2663 64.3388 31.0715 64.3355 31.0014 64.069L30.9923 64.0361H30.6557V64.0827C30.6557 64.3873 30.6356 64.6818 30.5917 64.9753C30.5701 65.1898 30.5374 65.3993 30.505 65.6068C30.4909 65.6975 30.4768 65.7878 30.4637 65.878L30.4573 65.9329H30.8661L30.8743 65.8963L30.9014 65.7723C31.0477 65.0984 31.0732 64.9808 31.8163 64.9653H33.5082V70.5871C33.4954 71.4102 33.2613 71.4175 32.676 71.4312H32.4272V71.8409H32.473C32.659 71.8409 32.9103 71.8325 33.1882 71.8232C33.5318 71.8117 33.9164 71.7989 34.2682 71.7989C34.5744 71.7989 34.9309 71.8111 35.2601 71.8223Z" fill="#1A1919"/>
<path d="M43.9095 71.8409C43.5977 71.8409 43.1723 71.8317 42.7112 71.8217L42.7091 71.8217C42.1646 71.8099 41.5707 71.7971 41.0561 71.7971C40.5241 71.7971 39.8975 71.8106 39.3419 71.8227H39.3394C38.898 71.8323 38.5011 71.8409 38.2329 71.8409H38.189V71.4312H38.3829C38.767 71.4248 39.1163 71.391 39.1209 70.8733V65.3146C39.1163 64.7961 38.767 64.7613 38.3829 64.754H38.189V64.3434H38.2329C38.5318 64.3434 38.927 64.3521 39.3531 64.3615L39.3542 64.3615H39.3556C39.8543 64.3726 40.3953 64.3845 40.8741 64.3845C41.3434 64.3845 41.8709 64.3731 42.3707 64.3623C42.8206 64.3526 43.2481 64.3434 43.5904 64.3434H43.637L43.6361 64.3928C43.6288 64.551 43.6242 64.7403 43.6242 64.9397C43.6242 65.3055 43.6361 65.7079 43.6562 66.0097L43.6589 66.0481L43.6224 66.0591L43.2501 66.156L43.2483 66.1012C43.1852 65.4134 43.0928 64.9122 42.0009 64.9031H40.5705V67.5892H41.7868C42.3996 67.5828 42.5084 67.2709 42.5807 66.6984L42.5834 66.6554H42.9913L42.9904 66.7039C42.9694 67.1191 42.9575 67.5315 42.9575 67.944C42.9575 68.3464 42.9694 68.7488 42.9904 69.1512V69.1906L42.9529 69.1997L42.5834 69.2729L42.5807 69.2226L42.571 69.1354C42.5056 68.5433 42.4698 68.2198 41.7987 68.212H40.5705V70.6383C40.5723 71.2766 41.1172 71.2794 41.7989 71.283L41.8198 71.2831C43.0974 71.2757 43.6086 71.2136 43.9287 70.0228L43.9397 69.9798L43.9836 69.9871L44.3238 70.0758L44.3147 70.1197C44.1775 70.6813 44.0495 71.2419 43.9543 71.8035L43.9461 71.8409H43.9095Z" fill="#1A1919"/>
<path fill-rule="evenodd" clip-rule="evenodd" d="M51.4785 71.8198C51.6516 71.8303 51.8253 71.8409 52.0035 71.8409H52.0483V71.4376L52.0099 71.4312C51.494 71.3654 51.3093 71.2547 51.013 70.8148L49.2314 68.1452C50.049 67.8123 50.6819 67.2133 50.6819 66.2557C50.6792 64.7147 49.4482 64.3461 48.1102 64.3434C47.8356 64.3434 47.5741 64.3531 47.3053 64.3631C47.0208 64.3737 46.7281 64.3845 46.4027 64.3845C46.0284 64.3845 45.6517 64.3708 45.3342 64.3592L45.3331 64.3591C45.1018 64.3507 44.9019 64.3434 44.7574 64.3434H44.7117V64.754H44.9495L44.9695 64.7547C45.2935 64.7652 45.6465 64.7766 45.6537 65.5131V70.9053C45.6528 71.262 45.3299 71.4285 44.9495 71.4312H44.7117V71.8409H44.7574C45.0267 71.8409 45.2874 71.8302 45.5448 71.8195C45.7959 71.8092 46.0447 71.7989 46.2948 71.7989C46.5951 71.7989 46.8991 71.8093 47.2036 71.8198H47.2056C47.5106 71.8304 47.8162 71.8409 48.1193 71.8409H48.166V71.4312H47.9282L47.9056 71.4307C47.4282 71.4202 47.1177 71.4134 47.106 70.6273V68.4049H47.7334C48.4184 69.6167 49.1162 70.7554 49.9301 71.8236C50.1506 71.8339 50.3604 71.8231 50.5623 71.8127C50.6986 71.8057 50.8317 71.7989 50.9618 71.7989C51.1354 71.7989 51.3062 71.8093 51.4775 71.8198H51.4785ZM49.1692 66.3225C49.1583 67.5553 48.6296 67.9193 47.5788 67.9303L47.106 67.9294V64.8565C47.1385 64.8534 47.1709 64.8496 47.2053 64.8455C47.315 64.8325 47.445 64.8171 47.663 64.8171C48.5876 64.8208 49.1628 65.396 49.1692 66.3225Z" fill="#1A1919"/>
<path d="M59.8211 72.0001L59.3857 71.9854L54.0008 65.985V70.2359C54.0127 71.1596 54.1526 71.4212 54.9519 71.4312H55.1778V71.8409H55.1321C54.9024 71.8409 54.6736 71.8299 54.4454 71.8189H54.4443C54.2168 71.808 53.9897 71.797 53.763 71.797C53.5272 71.797 53.2873 71.808 53.0468 71.8189H53.0458C52.8036 71.8299 52.5605 71.8409 52.3208 71.8409H52.2732V71.4312H52.4689C53.1695 71.4285 53.3707 70.9767 53.3771 70.1289V65.6613C53.3762 65.0961 52.9134 64.754 52.4598 64.754H52.2732V64.3434H52.3208C52.5237 64.3434 52.7293 64.3537 52.9342 64.364C53.1381 64.3743 53.342 64.3845 53.5417 64.3845C53.6715 64.3845 53.8008 64.3773 53.9333 64.37C54.118 64.3597 54.3096 64.3491 54.5166 64.3571L59.1809 69.6085V65.7061C59.1781 64.8638 58.6138 64.7595 58.3047 64.7549H58.0249V64.3434H58.0706C58.3215 64.3434 58.5695 64.3537 58.8167 64.364H58.8178C59.064 64.3743 59.3096 64.3845 59.5568 64.3845C59.7725 64.3845 59.9887 64.3743 60.2054 64.364H60.2064C60.4238 64.3537 60.6422 64.3434 60.8609 64.3434H60.9085V64.7549H60.7036C60.2655 64.7641 59.8147 64.8043 59.8046 66.0554V70.8834C59.8046 71.2547 59.8137 71.6224 59.8677 71.9479L59.8732 72.0001H59.8211Z" fill="#1A1919"/>
<path fill-rule="evenodd" clip-rule="evenodd" d="M68.0417 71.8332L68.2212 71.8409L68.2679 71.8437V71.4294H68.1609C67.8198 71.4276 67.625 71.3169 67.5024 71.0343C67.3775 70.7517 67.2623 70.4064 67.1499 70.0699L67.1119 69.956L65.1584 64.4074C65.1264 64.3223 65.0925 64.2263 65.0624 64.1394C65.0267 64.0836 64.9709 64.0772 64.9444 64.0782C64.9068 64.0782 64.8797 64.0886 64.854 64.0986L64.8429 64.1028C64.6389 64.2309 64.2118 64.4449 63.8789 64.5583C63.7973 64.9363 63.6355 65.3974 63.5041 65.7718L63.4582 65.9027L61.759 70.7718C61.6053 71.2035 61.2761 71.4285 60.881 71.4294H60.7712V71.8437L60.8206 71.8409L60.969 71.833L60.9701 71.8329C61.3012 71.815 61.6339 71.797 61.9629 71.797C62.3357 71.797 62.7156 71.8154 63.0901 71.8335L63.2451 71.8409L63.2927 71.8437V71.4294H63.1299C62.7778 71.4294 62.3818 71.3654 62.3781 71.1066C62.3769 70.9928 62.4318 70.8335 62.4998 70.636C62.5357 70.5319 62.5753 70.417 62.6123 70.2926L62.9415 69.2207H65.2819L65.6861 70.4206C65.8032 70.7581 65.8983 71.0489 65.8955 71.1697C65.8946 71.3745 65.5306 71.4294 65.2846 71.4294H65.1209V71.8437L65.1694 71.8409L65.4148 71.8316C65.8715 71.8142 66.3192 71.797 66.7607 71.797C67.2025 71.797 67.6235 71.8152 68.0405 71.8332L68.0417 71.8332ZM65.0294 68.5348H63.1729L64.1057 65.6914L65.0294 68.5348Z" fill="#1A1919"/>
<path d="M72.871 71.8409C72.6788 71.8409 72.4172 71.832 72.1352 71.8224C71.8054 71.8111 71.4473 71.7989 71.1397 71.7989C70.7898 71.7989 70.4066 71.8117 70.0636 71.8232L70.0624 71.8232C69.7847 71.8325 69.5333 71.8409 69.3472 71.8409H69.3014V71.4312H69.5493C70.1346 71.4175 70.3687 71.4102 70.3834 70.5871L70.3825 64.9653H68.6905C67.9479 64.9782 67.9219 65.098 67.7759 65.7709L67.7485 65.8963L67.7403 65.9329H67.3306L67.337 65.8798C67.3481 65.8059 67.3596 65.732 67.3712 65.6579C67.4063 65.4334 67.4416 65.2078 67.465 64.9781C67.508 64.6818 67.5281 64.3873 67.5281 64.0827V64.0361H67.8647L67.8738 64.069C67.9475 64.3356 68.1389 64.3388 68.4091 64.3433L68.4134 64.3434H73.9428C74.2355 64.3388 74.4504 64.3342 74.4687 64.058L74.4705 64.0068L74.5199 64.016L74.8217 64.0644L74.8144 64.1111C74.7705 64.3955 74.7303 64.6818 74.6983 64.9653C74.6763 65.2496 74.6763 65.5358 74.6763 65.8219V65.8542L74.6452 65.8661L74.2702 66.0033L74.2684 65.942C74.241 65.5433 74.198 64.9653 73.5276 64.9653H71.8339V70.5651C71.8448 71.3654 72.1622 71.4212 72.6679 71.4312H72.9149V71.8409H72.871Z" fill="#1A1919"/>
<path d="M77.572 71.8192C77.8586 71.8301 78.1431 71.8409 78.3975 71.8409H78.4405V71.4312H78.2485C77.8598 71.4248 77.5113 71.391 77.5077 70.8724V65.3146C77.5113 64.7961 77.8598 64.7613 78.2485 64.7549H78.4414V64.3434H78.3975C78.1493 64.3434 77.8684 64.3534 77.584 64.3635C77.2925 64.374 76.9964 64.3845 76.7285 64.3845C76.4564 64.3845 76.1503 64.3731 75.861 64.3623C75.6017 64.3526 75.3558 64.3434 75.16 64.3434H75.1143V64.754H75.3091C75.6913 64.7613 76.0444 64.7961 76.0462 65.3146V70.8733C76.0444 71.391 75.6913 71.4248 75.3091 71.4312H75.1143V71.8409H75.16C75.3554 71.8409 75.5981 71.8312 75.8545 71.8208C76.1413 71.8093 76.4461 71.797 76.7202 71.797C76.9871 71.797 77.2808 71.8082 77.572 71.8192Z" fill="#1A1919"/>
<path fill-rule="evenodd" clip-rule="evenodd" d="M82.6265 64.1852V64.2309L82.6275 64.1842C84.9047 64.187 86.7338 65.6018 86.7375 67.891C86.7357 70.3566 84.9632 71.9955 82.6823 72.0001C80.4133 71.9955 78.6711 70.4526 78.6674 68.1452C78.672 65.9137 80.3987 64.1879 82.6265 64.1852ZM82.7884 71.4413C84.8059 71.4404 85.1571 69.6725 85.1599 68.126C85.1599 66.5886 84.3322 64.7467 82.6073 64.744C80.7874 64.7458 80.2496 66.3609 80.245 67.7739C80.245 69.6634 81.1084 71.4385 82.7884 71.4413Z" fill="#1A1919"/>
<path d="M94.02 71.9854L94.459 72.0001H94.5093L94.5002 71.9479C94.4499 71.6242 94.4407 71.2547 94.4407 70.8834V66.0554C94.4499 64.8061 94.9007 64.7659 95.3379 64.7549H95.5437V64.3434H95.4979C95.2767 64.3434 95.0576 64.3537 94.8392 64.3641C94.6225 64.3743 94.4065 64.3845 94.1901 64.3845C93.9434 64.3845 93.698 64.3743 93.4521 64.364C93.2052 64.3537 92.9573 64.3434 92.7076 64.3434H92.6591V64.7549H92.939C93.249 64.7613 93.8133 64.8638 93.817 65.7061V69.6094L89.1545 64.3598C88.9418 64.3501 88.7482 64.3605 88.5604 64.3707C88.4311 64.3777 88.3042 64.3845 88.176 64.3845C87.9765 64.3845 87.7737 64.3743 87.57 64.3641C87.3647 64.3537 87.1584 64.3434 86.9541 64.3434H86.9111V64.754H87.0931C87.5495 64.754 88.0132 65.0961 88.0132 65.6613V70.1316C88.005 70.9767 87.8037 71.4276 87.1041 71.4294H86.9111V71.8409H86.9541C87.1958 71.8409 87.4388 71.8303 87.6811 71.8198C87.9218 71.8093 88.1621 71.7989 88.3991 71.7989C88.6257 71.7989 88.8525 71.8093 89.0798 71.8198C89.3085 71.8304 89.5381 71.8409 89.7682 71.8409H89.813V71.4294H89.5844C88.7878 71.4202 88.6479 71.1605 88.6351 70.2368V65.985L94.02 71.9854Z" fill="#1A1919"/>
<path fill-rule="evenodd" clip-rule="evenodd" d="M102.856 71.8409C102.768 71.8376 102.681 71.8341 102.594 71.8306C102.203 71.8148 101.808 71.7989 101.395 71.7989C100.981 71.7989 100.557 71.8141 100.127 71.8296C100.02 71.8334 99.9123 71.8373 99.8046 71.8409L99.7579 71.8437V71.4312H99.9198C100.167 71.4312 100.532 71.3745 100.533 71.1696C100.534 71.0489 100.438 70.759 100.319 70.4206L99.917 69.2207H97.5749L97.2474 70.2926C97.2107 70.4173 97.1718 70.5318 97.1366 70.6355C97.0693 70.8337 97.0155 70.9921 97.0161 71.1056C97.0161 71.3654 97.4139 71.4312 97.7651 71.4312H97.927V71.8437L97.8794 71.8409C97.8037 71.8377 97.7277 71.8342 97.6515 71.8308C97.3005 71.8149 96.9454 71.7989 96.599 71.7989C96.2901 71.7989 95.9817 71.8145 95.6725 71.8301C95.6 71.8338 95.5275 71.8375 95.4549 71.8409L95.4092 71.8437V71.4312H95.5153C95.9104 71.4294 96.2414 71.2026 96.3969 70.7727L98.0934 65.9027L98.1358 65.7817C98.2676 65.4056 98.4309 64.9397 98.5141 64.5592C98.8479 64.444 99.2732 64.23 99.4808 64.1019L99.4951 64.0969C99.5187 64.0885 99.545 64.0791 99.5814 64.0791C99.6088 64.0772 99.6637 64.0836 99.6966 64.1413C99.7102 64.1768 99.7237 64.2145 99.7374 64.2526C99.756 64.3044 99.7751 64.3576 99.7945 64.4065L101.745 69.956C101.77 70.027 101.794 70.0987 101.819 70.1705C101.922 70.4745 102.026 70.78 102.138 71.0352C102.262 71.3169 102.454 71.4285 102.793 71.4312H102.903V71.8437L102.856 71.8409ZM97.8081 68.5348H99.6646L98.7409 65.6933L97.8081 68.5348Z" fill="#1A1919"/>
<path d="M107.427 71.8199C107.895 71.8304 108.363 71.8409 108.831 71.8409L108.866 71.8419L108.875 71.8053C108.927 71.5639 108.981 71.3246 109.035 71.0855C109.116 70.7258 109.197 70.3666 109.269 70.0018L109.279 69.9469H108.879L108.87 69.9816C108.806 70.2121 108.714 70.5029 108.55 70.7297C108.367 70.9822 107.995 71.2327 107.562 71.284C107.288 71.3132 107.019 71.3251 106.759 71.3251C106.554 71.3251 106.357 71.3187 106.17 71.3059C105.839 71.2584 105.579 71.1523 105.576 70.7554V65.2817C105.584 64.7682 105.82 64.7635 106.202 64.756C106.218 64.7556 106.235 64.7553 106.252 64.7549H106.561V64.3434H106.519C106.246 64.3434 105.976 64.3537 105.707 64.364C105.44 64.3743 105.173 64.3845 104.904 64.3845C104.625 64.3845 104.347 64.3743 104.069 64.364C103.79 64.3537 103.511 64.3434 103.228 64.3434H103.183V64.754H103.377C103.762 64.7613 104.124 64.7961 104.129 65.3119V70.7672C104.124 71.3946 103.76 71.4221 103.377 71.4312H103.182V71.8409H103.228C103.696 71.8409 104.164 71.8304 104.631 71.8199C105.098 71.8094 105.564 71.7989 106.03 71.7989C106.495 71.7989 106.961 71.8094 107.427 71.8199Z" fill="#1A1919"/>
<path fill-rule="evenodd" clip-rule="evenodd" d="M108.539 65.7436V65.7975L109.078 65.7984V65.7436C109.066 65.7419 109.055 65.7403 109.044 65.7389C108.937 65.7244 108.915 65.7215 108.915 65.6549V65.2845H109.038C109.101 65.3746 109.154 65.4577 109.199 65.5297C109.302 65.6921 109.368 65.7975 109.44 65.7975H109.658V65.7628C109.595 65.7244 109.497 65.6146 109.412 65.4985L109.227 65.2424C109.383 65.1948 109.493 65.0714 109.493 64.9058C109.493 64.7028 109.312 64.6086 109.115 64.6086H108.543V64.6653C108.689 64.6589 108.701 64.6991 108.701 64.8162V65.6439C108.701 65.7213 108.678 65.7243 108.566 65.7398C108.557 65.741 108.548 65.7422 108.539 65.7436ZM109.047 65.2085H108.915V64.6827H109.04C109.155 64.6827 109.258 64.7458 109.258 64.9232C109.258 65.0997 109.191 65.2085 109.047 65.2085Z" fill="#1A1919"/>
<path fill-rule="evenodd" clip-rule="evenodd" d="M110.211 65.2085C110.211 64.5802 109.734 64.0891 109.094 64.0891C108.455 64.0891 107.977 64.5802 107.977 65.2085C107.977 65.8359 108.455 66.3225 109.094 66.3225C109.734 66.3225 110.211 65.8359 110.211 65.2085ZM109.978 65.2095C109.978 65.6887 109.595 66.1149 109.094 66.1149C108.591 66.1149 108.209 65.6887 108.209 65.2085C108.209 64.7275 108.591 64.2986 109.094 64.2986C109.6 64.2986 109.978 64.7275 109.978 65.2095Z" fill="#1A1919"/>
<path fill-rule="evenodd" clip-rule="evenodd" d="M42.8252 26.9331C42.8252 17.0083 50.8715 8.96387 60.7945 8.96387C70.7184 8.96387 78.7637 17.0093 78.7637 26.9331C78.7637 36.857 70.7184 44.9024 60.7945 44.9024C50.8706 44.9024 42.8252 36.857 42.8252 26.9331Z" fill="#FFFFFE"/>
<path fill-rule="evenodd" clip-rule="evenodd" d="M71.6612 26.5793C71.6539 21.9772 68.7776 18.0528 64.7252 16.499V36.6587C68.7776 35.103 71.6539 31.1814 71.6612 26.5802V26.5793ZM56.9935 36.655V16.5008C52.9438 18.0602 50.0721 21.9791 50.0611 26.5793C50.0721 31.1786 52.9438 35.0975 56.9935 36.655ZM60.8611 9.5392C51.4503 9.54286 43.8265 17.1685 43.8247 26.5793C43.8265 35.9883 51.4503 43.613 60.8611 43.6148C70.272 43.613 77.8976 35.9883 77.8994 26.5793C77.8976 17.1685 70.272 9.54286 60.8611 9.5392ZM60.8191 45.2235C50.5211 45.272 42.0459 36.9275 42.0459 26.7741C42.0459 15.675 50.5211 7.99817 60.8191 8H65.6452C75.8206 7.99817 85.108 15.6713 85.108 26.7741C85.108 36.9257 75.8206 45.2235 65.6452 45.2235H60.8191Z" fill="#184977"/>
</svg>
