<svg width="128" height="80" fill="none" xmlns="http://www.w3.org/2000/svg"><g opacity=".997" fill="#0C0E0F"><path d="m14.31 46.593-.193-.086c-3.21-2.462-5.041-4.838-5.084-9.044a10.987 10.987 0 0 1 .31-3.083 8.616 8.616 0 0 0-4.334 7.867 9.129 9.129 0 0 0 9.13 9.14 9.569 9.569 0 0 0 8.263-4.794H14.31zM23.975 32.87a9.776 9.776 0 0 0-8.38 5.053h3.328c1.959-.075 4.046 0 4.656 0h.193a10.286 10.286 0 0 1 5.352 9.151 8.115 8.115 0 0 1-.696 3.211 9.216 9.216 0 0 0 4.763-8.07 9.355 9.355 0 0 0-9.216-9.344z"/></g><g opacity=".997" fill="#E87700"><path d="M23.354 38.875v3.446c.054 1.724 0 3.511 0 4.282v.364a10.189 10.189 0 0 1-9.055 5.351 8.249 8.249 0 0 1-3.211-.685 9.13 9.13 0 0 0 17.125-4.42 9.536 9.536 0 0 0-4.859-8.338zM19.04 28a9.227 9.227 0 0 0-9.226 9.226 9.698 9.698 0 0 0 4.902 8.392V42.15c-.053-1.788 0-3.65 0-4.389v-.331a10.296 10.296 0 0 1 9.152-5.352 8.233 8.233 0 0 1 3.21.696A9.238 9.238 0 0 0 19.042 28z"/></g><path opacity=".997" d="M53.834 41.29c.707 0 1.323.174 1.85.522.285.196.578.482.874.856v-1.134h1.396v8.19l-.004.336c-.031.986-.197 1.777-.5 2.372-.629 1.222-1.813 1.834-3.557 1.834-.97 0-1.785-.218-2.447-.652-.661-.435-1.032-1.113-1.11-2.04h1.538l.043.194c.082.31.213.557.395.74.343.336.88.504 1.614.504 1.16 0 1.92-.409 2.28-1.227.212-.482.31-1.343.293-2.582-.303.46-.666.803-1.093 1.026-.425.225-.989.336-1.69.336-.975 0-1.829-.345-2.56-1.038-.732-.692-1.098-1.838-1.098-3.436 0-1.507.37-2.684 1.106-3.532.738-.845 1.627-1.27 2.67-1.27zm67.046 0c.707 0 1.322.174 1.85.522.286.196.578.482.874.856v-1.134H125v8.19l-.005.336c-.03.986-.197 1.777-.5 2.372-.627 1.222-1.813 1.834-3.557 1.834-.97 0-1.785-.218-2.447-.652-.661-.435-1.032-1.113-1.11-2.04h1.539l.043.194c.081.31.212.557.394.74.343.336.881.504 1.615.504 1.161 0 1.92-.409 2.279-1.227.213-.482.31-1.343.294-2.582-.303.46-.668.803-1.094 1.026-.426.225-.989.336-1.69.336-.975 0-1.829-.345-2.56-1.038-.732-.692-1.097-1.838-1.097-3.436 0-1.507.368-2.684 1.106-3.532.737-.845 1.627-1.27 2.669-1.27h.001zm-18.703-.1c1.161 0 2.142.387 2.944 1.16.802.773 1.203 1.911 1.203 3.414 0 1.452-.354 2.652-1.06 3.6-.706.947-1.802 1.42-3.288 1.42-1.24 0-2.223-.419-2.952-1.257-.728-.838-1.093-1.964-1.093-3.376 0-1.514.384-2.718 1.152-3.616.768-.897 1.8-1.346 3.094-1.346zm-38.412.042c1.06 0 1.92.201 2.582.605.656.403.984 1.031.984 1.883v5.188c0 .158.032.284.096.38.065.095.2.143.407.143.069 0 .144-.005.228-.013.084-.009.174-.021.269-.039v1.12c-.236.067-.414.11-.538.126a3.851 3.851 0 0 1-.504.026c-.522 0-.9-.185-1.136-.556-.123-.195-.21-.473-.26-.832-.309.403-.752.754-1.329 1.05a4.107 4.107 0 0 1-1.91.447c-.834 0-1.517-.253-2.047-.76-.53-.508-.794-1.143-.794-1.906 0-.835.26-1.483.781-1.943.522-.459 1.206-.742 2.052-.849L65.06 45c.348-.045.58-.19.698-.437.067-.135.102-.329.102-.58 0-.516-.185-.89-.552-1.124-.367-.232-.892-.348-1.576-.348-.791 0-1.351.213-1.682.639-.185.236-.306.586-.362 1.051h-1.413c.028-1.11.389-1.883 1.082-2.317.691-.435 1.495-.652 2.408-.652zm26.716.218v5.98l.006.222c.02.36.09.66.212.903.27.539.77.808 1.506.808 1.053 0 1.771-.47 2.152-1.413.208-.505.31-1.196.31-2.076V41.45h1.515v9.006h-1.43l.017-1.328-.123.198c-.172.257-.374.48-.609.668-.577.47-1.278.706-2.102.706-1.284 0-2.158-.428-2.622-1.286-.254-.46-.38-1.074-.38-1.841V41.45h1.547zm-50.406-3.347 6.24 10.008V38.103h1.589v12.353h-1.876l-6.332-9.998v9.998H38.1V38.103h1.976zm34.117 3.145c1.278 0 2.142.446 2.59 1.338.246.487.37 1.185.37 2.094v5.776h-1.538V44.78l-.006-.229c-.02-.445-.1-.811-.239-1.1-.268-.56-.756-.84-1.463-.84-.358 0-.653.036-.883.109-.414.123-.779.37-1.093.74a2.236 2.236 0 0 0-.492.92c-.075.318-.113.77-.113 1.36v4.716H69.81V41.45h1.438v1.278l.185-.217c.37-.415.76-.721 1.169-.918a3.623 3.623 0 0 1 1.589-.345zm7.073-3.145v10.881h6.256v1.472H79.59V38.103h1.674zm31.239 3.145c1.278 0 2.141.446 2.59 1.338.246.487.37 1.185.37 2.094v5.776h-1.539V44.78l-.005-.229c-.019-.445-.1-.811-.239-1.1-.269-.56-.757-.84-1.463-.84-.359 0-.653.036-.883.109-.414.123-.779.37-1.093.74a2.23 2.23 0 0 0-.492.92c-.075.318-.114.77-.114 1.36v4.716h-1.513V41.45h1.437v1.278l.184-.217c.372-.415.762-.721 1.17-.918a3.625 3.625 0 0 1 1.59-.345zm-10.369 1.262c-.924 0-1.598.353-2.017 1.06-.42.706-.632 1.558-.632 2.556 0 .959.211 1.757.632 2.396.419.64 1.087.96 2.001.96 1.003 0 1.691-.38 2.064-1.14.373-.76.56-1.606.56-2.536 0-.84-.135-1.525-.404-2.052-.426-.83-1.161-1.244-2.204-1.244zm-36.318 3.363-.15.086c-.157.08-.346.15-.565.208-.291.08-.578.135-.857.168l-.917.118-.227.034c-.438.073-.774.177-1.01.31-.465.265-.697.686-.697 1.263 0 .436.16.781.48 1.034.319.252.697.378 1.134.378.533 0 1.049-.123 1.548-.37.84-.409 1.26-1.079 1.26-2.01v-1.219zM54.11 42.628c-1.065 0-1.793.498-2.186 1.496-.207.533-.31 1.23-.31 2.094 0 1.014.205 1.787.617 2.317.412.53.965.794 1.661.794 1.087 0 1.852-.49 2.296-1.472.246-.554.37-1.202.37-1.941 0-1.117-.23-1.943-.69-2.481a2.21 2.21 0 0 0-1.758-.807zm67.046 0c-1.066 0-1.795.498-2.186 1.496-.208.533-.311 1.23-.311 2.094 0 1.014.206 1.787.618 2.317.412.53.965.794 1.66.794 1.087 0 1.853-.49 2.296-1.472.246-.554.37-1.202.37-1.941 0-1.117-.23-1.943-.69-2.481-.459-.539-1.045-.807-1.758-.807h.001z" fill="#000"/></svg>