<svg width="128" height="80" viewBox="0 0 128 80" fill="none" xmlns="http://www.w3.org/2000/svg">
<path fill-rule="evenodd" clip-rule="evenodd" d="M8.94327 10.6452C7.13808 10.6452 5.66274 12.0814 5.66274 13.8387V66.1613C5.66274 67.9186 7.13808 69.3548 8.94327 69.3548H119.057C120.866 69.3548 122.337 67.947 122.337 66.1935V13.8387C122.337 12.0814 120.862 10.6452 119.057 10.6452H8.94327ZM5 13.8387C5 11.7251 6.77206 10 8.94327 10H119.057C121.228 10 123 11.7251 123 13.8387V66.1935C123 68.311 121.224 70 119.057 70H8.94327C6.77206 70 5 68.2749 5 66.1613V13.8387Z" fill="#F9C32F"/>
<path d="M50.9938 35.6452V38.8387H48.8399V29.0323H53.0151C54.208 29.0323 55.169 29.3226 55.8649 29.9355C56.5607 30.5484 56.9252 31.3226 56.9252 32.3548C56.9252 33.3548 56.5607 34.1613 55.898 34.7742C55.2021 35.3871 54.2412 35.6774 53.0482 35.6774H50.9938V35.6452ZM50.9938 30.6774V34H52.75C54.0423 34 54.7051 33.2903 54.7051 32.3548C54.7051 31.4194 54.0755 30.7097 52.7831 30.7097H50.9938V30.6774Z" fill="#001BA9"/>
<path d="M62.8567 38.8388V37.7098C62.2934 38.5808 61.4649 39.0324 60.4377 39.0324C59.5099 39.0324 58.7146 38.6775 58.0519 38.0001C57.4223 37.3227 57.0909 36.484 57.0909 35.4517C57.0909 34.4517 57.4223 33.613 58.0519 32.9356C58.6815 32.2582 59.4767 31.9034 60.4377 31.9034C61.4649 31.9034 62.2934 32.3227 62.8567 33.2259V32.0969H64.8118V38.8066H62.8567V38.8388ZM59.6093 36.8388C59.9738 37.1937 60.4046 37.355 60.9348 37.355C61.7632 37.355 62.5253 36.8711 62.8567 36.2582V34.7421C62.4922 34.0969 61.7632 33.6453 60.9348 33.6453C60.4046 33.6453 59.9738 33.8388 59.6093 34.1937C59.2448 34.5485 59.0791 34.9679 59.0791 35.5163C59.0791 36.0001 59.2448 36.484 59.6093 36.8388Z" fill="#001BA9"/>
<path d="M70.5445 39.742C70.2794 40.9033 69.5504 41.4516 68.2581 41.4516H66.8995L66.535 40H68.0593C68.5232 40 68.7883 39.8065 68.8877 39.4516L69.0865 38.7742H67.1977L65.5078 32.1291H67.5291L68.6226 37.3226H69.3516L70.4451 32.1291H72.4996L70.5445 39.742Z" fill="#001BA9"/>
<path d="M54.7382 50.9034L53.2139 47.4195H50.9938V50.9034H48.8399V41.0969H53.3133C54.4731 41.0969 55.401 41.3872 56.0637 42.0001C56.7264 42.5808 57.0578 43.355 57.0578 44.3227C57.0578 45.5808 56.4282 46.5485 55.2684 47.0646L57.0247 50.9356H54.7382V50.9034ZM50.9938 42.7421V45.9356H52.9157C54.208 45.9356 54.8045 45.2582 54.8045 44.355C54.8045 43.4517 54.208 42.7743 52.9488 42.7743H50.9938V42.7421Z" fill="#001BA9"/>
<path d="M64.9112 48.5485C64.7124 49.3227 64.2816 49.9356 63.6189 50.4194C62.9562 50.8711 62.194 51.0969 61.2993 51.0969C60.2058 51.0969 59.278 50.742 58.5821 50.0646C57.8531 49.3872 57.4886 48.5162 57.4886 47.484C57.4886 46.5162 57.8531 45.6775 58.5821 45.0001C59.3111 44.3227 60.2058 43.9678 61.2662 43.9678C62.426 43.9678 63.3207 44.3549 63.9834 45.0969C64.6461 45.8388 64.9775 46.742 64.9775 47.7743H59.2448C59.3774 48.8711 60.1727 49.5162 61.2993 49.5162C62.0946 49.5162 62.8236 49.1614 63.1218 48.5485H64.9112ZM59.4105 46.742H63.0887C62.8568 45.9678 62.2272 45.484 61.2993 45.484C60.3715 45.484 59.6756 45.9678 59.4105 46.742Z" fill="#001BA9"/>
<path d="M69.7823 45.6452H68.5231V50.9033H66.5018V45.6452H65.2426V44.1613H66.5018V42.2904H68.5231V44.1613H69.7823V45.6452Z" fill="#001BA9"/>
<path d="M75.8132 50.9033V49.7743C75.2499 50.6453 74.4215 51.0969 73.3942 51.0969C72.4664 51.0969 71.6711 50.742 71.0084 50.0646C70.3788 49.3872 70.0474 48.5485 70.0474 47.5162C70.0474 46.5162 70.3788 45.6775 71.0084 45.0001C71.638 44.3227 72.4332 43.9678 73.3942 43.9678C74.4215 43.9678 75.2499 44.3872 75.8132 45.2904V44.1614H77.7683V50.8711H75.8132V50.9033ZM72.5658 48.8711C72.9303 49.2259 73.3611 49.3872 73.8913 49.3872C74.7197 49.3872 75.4818 48.9033 75.8132 48.2904V46.7743C75.4487 46.1291 74.7197 45.6775 73.8913 45.6775C73.3611 45.6775 72.9303 45.8711 72.5658 46.2259C72.2013 46.5807 72.0356 47.0001 72.0356 47.5485C72.0025 48.0646 72.2013 48.5162 72.5658 48.8711Z" fill="#001BA9"/>
<path d="M81.1152 43.0001H79.0938V41.0646H81.1152V43.0001ZM81.1152 50.9033H79.0938V44.1936H81.1152V50.9033Z" fill="#001BA9"/>
<path d="M84.4288 41.0969H82.4075V50.9034H84.4288V41.0969Z" fill="#001BA9"/>
<path d="M92.8455 48.5485C92.6466 49.3227 92.2159 49.9356 91.5531 50.4194C90.8904 50.8711 90.1282 51.0969 89.2336 51.0969C88.14 51.0969 87.2122 50.742 86.5163 50.0646C85.7873 49.3872 85.4228 48.5162 85.4228 47.484C85.4228 46.5162 85.7873 45.6775 86.5163 45.0001C87.2453 44.3227 88.14 43.9678 89.2004 43.9678C90.3602 43.9678 91.2549 44.3549 91.9176 45.0969C92.5804 45.8388 92.9117 46.742 92.9117 47.7743H87.1791C87.3116 48.8711 88.1069 49.5162 89.2336 49.5162C90.0288 49.5162 90.7578 49.1614 91.0561 48.5485H92.8455ZM87.3116 46.742H91.0229C90.791 45.9678 90.1614 45.484 89.2336 45.484C88.3057 45.484 87.5767 45.9678 87.3116 46.742Z" fill="#001BA9"/>
<path d="M98.2799 46.0645C97.3521 46.0645 96.3911 46.3871 95.9272 46.7419V50.9032H93.9059V44.1935H95.9272V45.2903C96.5237 44.4516 97.319 44.0323 98.2799 44.0323V46.0645Z" fill="#001BA9"/>
<path d="M98.8764 50.9034V49.3872H101.925C102.621 49.3872 102.952 49.1614 102.952 48.6775C102.952 48.2259 102.621 48.0001 101.925 48.0001H101.03C99.6386 48.0001 98.7439 47.2259 98.7439 46.0646C98.7439 45.5163 98.9758 45.0646 99.4066 44.7098C99.8374 44.355 100.401 44.1614 101.063 44.1614H104.41V45.6775H101.295C100.898 45.6775 100.666 45.8711 100.666 46.1614C100.666 46.484 100.865 46.6453 101.295 46.6453H102.256C103.913 46.6453 104.775 47.5163 104.775 48.7098C104.775 49.9679 103.814 50.9034 102.19 50.9034H98.8764Z" fill="#001BA9"/>
<path d="M32.2052 28.9355H23.192V50.8065H26.7708V32.1614H32.1721C38.0705 32.1614 38.1036 40.9033 32.1721 40.9033L31.1118 40.871L34.1721 43.9195C43.1073 43.2258 42.8753 28.9355 32.2052 28.9355Z" fill="#001BA9"/>
<path d="M41.0859 50.8065L31.1118 40.871L28.1957 43.742L35.4195 50.8065H41.0859Z" fill="#F9C32F"/>
</svg>
