<svg width="128" height="80" viewBox="0 0 128 80" fill="none" xmlns="http://www.w3.org/2000/svg">
<path d="M90.5805 32.5994V49.1205L101 45.1404L86.5441 8.86914L27.5 32.5806" fill="#6F9935"/>
<path d="M93.584 47.9752V29.5768H34.9718L30.5036 31.3791V32.5806H90.5802V49.1017L93.584 47.9752Z" fill="#658B30"/>
<path d="M89.5478 32.5993L85.9807 23.4188L85.8117 23.0246C84.0717 23.182 82.3198 22.9041 80.7139 22.2158C79.108 21.5276 77.6985 20.4506 76.6125 19.082L76.237 19.2322L44.0209 32.5805H89.5478V32.5993Z" fill="#AAC16B"/>
<path d="M51.2677 29.5954L44.0209 32.5992L89.5478 32.5993L88.365 29.5954H51.2677Z" fill="#89B140"/>
<path d="M27.5 32.5994L90.5805 32.5994V71.6492H27.5V32.5994Z" fill="#79A73A"/>
<path d="M33.5077 45.6658C35.1799 45.1675 36.702 44.2616 37.9374 43.0295C39.1728 41.7974 40.0828 40.2776 40.5855 38.6068H77.4951C77.9951 40.2811 78.9039 41.8047 80.1394 43.0402C81.375 44.2758 82.8986 45.1846 84.5728 45.6846V58.5823C82.9007 59.0806 81.3785 59.9865 80.1431 61.2186C78.9077 62.4507 77.9978 63.9705 77.4951 65.6413H40.5855C40.0855 63.967 39.1767 62.4435 37.9411 61.2079C36.7056 59.9723 35.182 59.0636 33.5077 58.5635V45.6658Z" fill="#AAC16B"/>
<path d="M59.0401 59.6149C63.1876 59.6149 66.5497 56.2528 66.5497 52.1054C66.5497 47.9579 63.1876 44.5958 59.0401 44.5958C54.8927 44.5958 51.5306 47.9579 51.5306 52.1054C51.5306 56.2528 54.8927 59.6149 59.0401 59.6149Z" fill="#79A73A"/>
<path d="M42.519 53.6075C43.3485 53.6075 44.0209 52.935 44.0209 52.1055C44.0209 51.276 43.3485 50.6036 42.519 50.6036C41.6895 50.6036 41.0171 51.276 41.0171 52.1055C41.0171 52.935 41.6895 53.6075 42.519 53.6075Z" fill="#79A73A"/>
<path d="M75.5611 53.6075C76.3906 53.6075 77.063 52.935 77.063 52.1055C77.063 51.276 76.3906 50.6036 75.5611 50.6036C74.7316 50.6036 74.0592 51.276 74.0592 52.1055C74.0592 52.935 74.7316 53.6075 75.5611 53.6075Z" fill="#79A73A"/>
</svg>
