<svg width="128" height="80" viewBox="0 0 128 80" fill="none" xmlns="http://www.w3.org/2000/svg">
<rect width="128" height="80" fill="white"/>
<path fill-rule="evenodd" clip-rule="evenodd" d="M82.2507 28.5996C81.955 28.4746 81.6371 28.4102 81.316 28.4104H78.4008C78.0113 28.4104 77.6956 28.0947 77.6956 27.7052C77.6956 27.3157 78.0113 27 78.4008 27H81.3157C81.8255 26.9998 82.3303 27.102 82.7999 27.3005C83.2696 27.499 83.6946 27.7899 84.0498 28.1558C84.405 28.5218 84.683 28.9553 84.8675 29.4307C85.0506 29.9027 85.1377 30.4063 85.1239 30.9123V47.8273C85.1239 48.2168 84.8081 48.5325 84.4187 48.5325C84.0292 48.5325 83.7134 48.2168 83.7134 47.8273V30.9021C83.7134 30.895 83.7136 30.8879 83.7138 30.8808C83.7235 30.5598 83.6687 30.2402 83.5525 29.9409C83.4364 29.6415 83.2613 29.3686 83.0377 29.1382C82.8141 28.9078 82.5465 28.7246 82.2507 28.5996ZM62.2749 28.4574C58.4773 28.4574 55.4108 31.4825 55.4108 35.3215V58.0294C55.4108 58.4189 55.0951 58.7346 54.7056 58.7346C54.3161 58.7346 54.0004 58.4189 54.0004 58.0294V35.3215C54.0004 30.6979 57.704 27.047 62.2749 27.047H68.998C71.18 27.047 73.2727 27.9138 74.8157 29.4568C76.3586 30.9997 77.2255 33.0924 77.2255 35.2745V40.1169C77.2255 44.7377 73.5247 48.3915 68.998 48.3915H59.5011C59.1116 48.3915 58.7959 48.0757 58.7959 47.6863C58.7959 47.2968 59.1116 46.981 59.5011 46.981H68.998C72.7458 46.981 75.815 43.9588 75.815 40.1169V35.2745C75.815 33.4665 75.0968 31.7325 73.8184 30.4541C72.5399 29.1756 70.806 28.4574 68.998 28.4574H62.2749Z" fill="#939598"/>
<path d="M83.2823 24.7431L81.9659 23.4267C81.8834 23.3477 81.8178 23.2529 81.7729 23.1478C81.7281 23.0428 81.705 22.9298 81.705 22.8156C81.705 22.7013 81.7281 22.5883 81.7729 22.4833C81.8178 22.3782 81.8834 22.2834 81.9659 22.2044L83.2823 20.888C83.44 20.7357 83.6507 20.6506 83.87 20.6506C84.0892 20.6506 84.2999 20.7357 84.4576 20.888L85.774 22.2044C85.9263 22.3621 86.0114 22.5728 86.0114 22.7921C86.0114 23.0113 85.9263 23.222 85.774 23.3797L84.4576 24.7431C84.2999 24.8954 84.0892 24.9805 83.87 24.9805C83.6507 24.9805 83.44 24.8954 83.2823 24.7431Z" fill="#32BCAD"/>
<path d="M36.9731 51.5883C35.5627 51.5883 34.1522 51.0241 33.1649 49.9898L27.6172 44.4891C27.2411 44.066 26.5359 44.066 26.2068 44.4891L20.5651 50.0368C19.5688 51.0412 18.2185 51.615 16.8039 51.6353H15.6756L22.7277 58.6404C23.7823 59.6741 25.2002 60.2531 26.6769 60.2531C28.1537 60.2531 29.5715 59.6741 30.6261 58.6404L37.6783 51.5883H36.9731ZM16.7569 32.0303C18.2144 32.0303 19.5778 32.5945 20.6121 33.5818L26.1598 39.1765C26.3535 39.3689 26.6155 39.4768 26.8885 39.4768C27.1615 39.4768 27.4235 39.3689 27.6172 39.1765L33.1649 33.6288C34.1728 32.613 35.5422 32.0382 36.9731 32.0303H37.6783L30.6261 24.9782C29.5695 23.9303 28.1416 23.3423 26.6534 23.3423C25.1653 23.3423 23.7374 23.9303 22.6807 24.9782L15.7226 32.0303H16.7569Z" fill="#32BCAD"/>
<path d="M43.4611 37.8601L39.2298 33.6288H37.0201C36.5134 33.626 36.0112 33.7244 35.543 33.9181C35.0748 34.1119 34.6499 34.3971 34.2933 34.7572L28.7926 40.3048C28.5483 40.5567 28.256 40.7571 27.9331 40.8944C27.6101 41.0316 27.263 41.1029 26.9121 41.1041C26.5612 41.1029 26.214 41.0316 25.8911 40.8944C25.5681 40.7571 25.2759 40.5567 25.0315 40.3048L19.4368 34.7572C18.7279 34.0414 17.7643 33.6357 16.757 33.6288H14.4063L14.1242 33.5818L9.84588 37.8131C9.31992 38.3372 8.9026 38.96 8.61785 39.6458C8.3331 40.3315 8.18652 41.0668 8.18652 41.8093C8.18652 42.5518 8.3331 43.2871 8.61785 43.9728C8.9026 44.6586 9.31992 45.2814 9.84588 45.8055L14.0772 50.0368L14.4063 49.9898H16.757C17.2637 49.9926 17.7659 49.8942 18.2341 49.7005C18.7024 49.5067 19.1272 49.2215 19.4838 48.8614L25.0785 43.3138C25.5855 42.8309 26.2589 42.5615 26.9591 42.5615C27.6593 42.5615 28.3326 42.8309 28.8397 43.3138L34.2933 48.8614C35.0098 49.56 35.9725 49.9484 36.9731 49.9428H38.9007L39.2298 50.0368L43.4611 45.8055C43.9871 45.2814 44.4044 44.6586 44.6891 43.9728C44.9739 43.2871 45.1205 42.5518 45.1205 41.8093C45.1205 41.0668 44.9739 40.3315 44.6891 39.6458C44.4044 38.96 43.9871 38.3372 43.4611 37.8131" fill="#32BCAD"/>
<path d="M59.963 55.7255L58.9287 55.8666V57.277L59.728 57.371C60.4332 57.371 60.7623 57.136 60.7623 56.5248C60.7623 55.9606 60.4802 55.7255 59.963 55.7255ZM58.6937 58.2643V55.5375H58.8817V55.6785C59.2108 55.5845 59.681 55.4905 59.963 55.4905C60.2451 55.4905 60.4802 55.4905 60.6683 55.6785C60.9503 55.9136 60.9974 56.1957 60.9974 56.5248C60.9974 56.9009 60.9033 57.23 60.5272 57.4651C60.3392 57.5591 60.0571 57.6061 59.775 57.6061L58.9287 57.4651V58.2643H58.6937ZM62.7369 55.7255C62.0317 55.7255 61.7496 55.9136 61.7496 56.5248C61.7496 57.136 62.0317 57.371 62.7369 57.371C63.4421 57.371 63.7712 57.183 63.7712 56.5718C63.7712 55.9606 63.4421 55.7255 62.7369 55.7255ZM63.6772 57.371C63.3951 57.5591 63.113 57.6061 62.7369 57.6061C62.4078 57.6061 62.0787 57.5591 61.8436 57.371C61.6085 57.23 61.5145 56.9009 61.5145 56.5718C61.5145 56.1957 61.6085 55.8666 61.8436 55.7255C62.0787 55.5375 62.4078 55.4905 62.7839 55.4905C63.113 55.4905 63.3951 55.5375 63.6302 55.7255C63.9122 55.8666 64.0063 56.1957 64.0063 56.5248C64.0063 56.9009 63.9122 57.23 63.6302 57.371M66.9212 57.5591L66.1689 55.8666L65.3697 57.5591H65.1816L64.3354 55.5375H64.6175L65.2757 57.23L66.0279 55.5375H66.263L67.0152 57.23L67.7204 55.5375H67.9555L67.1562 57.5591H66.9212ZM69.4599 55.6785C68.8017 55.6785 68.6137 56.0076 68.5196 56.3837H70.4002C70.3532 55.9136 70.1181 55.6785 69.4599 55.6785ZM69.4599 57.6061C69.0838 57.6061 68.8017 57.5591 68.6137 57.371C68.3786 57.183 68.2846 56.9009 68.2846 56.5718C68.2846 56.2427 68.4256 55.8666 68.6607 55.6785C68.8958 55.5375 69.1308 55.4905 69.4599 55.4905C69.7391 55.4725 70.0173 55.538 70.2592 55.6785C70.5413 55.8666 70.5883 56.2427 70.5883 56.6188H68.5667C68.5667 57.0419 68.7077 57.371 69.5069 57.371C69.836 57.371 70.1651 57.371 70.4942 57.277V57.4651C70.1651 57.5591 69.789 57.6061 69.4599 57.6061ZM71.2935 57.5591V55.5375H71.4815V55.6785C71.9517 55.5375 72.0927 55.4905 72.4688 55.4905V55.7255C72.1397 55.7255 71.9517 55.7255 71.5286 55.8666V57.5591H71.2935ZM73.8793 55.6785C73.2211 55.6785 73.033 56.0076 72.939 56.3837H74.7726C74.7726 55.9136 74.5375 55.6785 73.8323 55.6785M73.8323 57.6061C73.4562 57.6061 73.2211 57.5591 73.033 57.371C72.7979 57.183 72.7039 56.9009 72.7039 56.5718C72.7039 56.2427 72.845 55.8666 73.08 55.6785C73.3151 55.5375 73.5502 55.4905 73.8793 55.4905C74.1584 55.4725 74.4367 55.538 74.6785 55.6785C74.9606 55.8666 75.0076 56.2427 75.0076 56.6188H72.986C72.986 57.0419 73.1271 57.371 73.9263 57.371C74.2554 57.371 74.5845 57.371 74.9136 57.277V57.4651C74.5845 57.5591 74.2084 57.6061 73.8793 57.6061M77.5934 55.8196C77.3342 55.7434 77.064 55.7116 76.7942 55.7255C76.0889 55.7255 75.7598 55.9606 75.7598 56.5718C75.7598 57.136 76.0419 57.371 76.5591 57.371L77.5934 57.23V55.8196ZM77.5934 57.5591V57.4181C77.2643 57.5121 76.8412 57.6061 76.5121 57.6061C76.277 57.6061 76.0419 57.6061 75.8069 57.4181C75.5718 57.183 75.4778 56.9009 75.4778 56.5718C75.4778 56.1957 75.6188 55.8666 75.9479 55.6315C76.183 55.5375 76.4651 55.4905 76.7471 55.4905L77.5934 55.6315V54.6912H77.8285V57.5121L77.5934 57.5591ZM81.2605 55.6785C80.9314 55.6785 80.5553 55.7726 80.2262 55.8666V57.277C80.4852 57.3541 80.7556 57.3859 81.0254 57.371C81.7307 57.371 82.0598 57.136 82.0598 56.5248C82.0598 55.9606 81.7777 55.7255 81.2605 55.7255M81.8717 57.4181C81.6366 57.5591 81.3075 57.6061 81.0254 57.6061C80.722 57.6074 80.4204 57.5598 80.1322 57.4651V57.5591H79.9911V54.7382H80.2262V55.6785C80.5644 55.5838 80.9106 55.5208 81.2605 55.4905C81.5426 55.4905 81.7307 55.4905 81.9657 55.6785C82.2008 55.9136 82.2948 56.1957 82.2948 56.5248C82.2948 56.9009 82.1538 57.23 81.8247 57.4651M82.6239 58.3113V58.1233H82.906C83.1881 58.1233 83.3762 58.0292 83.5172 57.7001L83.6112 57.5591L82.5769 55.5375H82.812L83.7523 57.277L84.5985 55.5375H84.8806L83.7523 57.7942C83.5172 58.2173 83.2821 58.3583 82.906 58.3583H82.6239M88.0776 56.3837H87.3254V57.089H88.0776C88.6418 57.089 88.8298 57.089 88.8298 56.7599C88.8298 56.4308 88.5477 56.3837 88.0776 56.3837ZM87.9366 55.2554H87.3254V55.9606H87.9366C88.4537 55.9606 88.6888 55.9606 88.6888 55.6315C88.6888 55.3024 88.4067 55.2554 87.9366 55.2554ZM89.1589 57.371C88.8768 57.5591 88.5007 57.5591 87.8895 57.5591H86.7142V54.8323H87.8425C88.4067 54.8323 88.7358 54.8323 89.0179 55.0203C89.2059 55.1144 89.3 55.3024 89.3 55.5375C89.3 55.8196 89.1589 56.0076 88.8298 56.1487C89.2059 56.2427 89.441 56.4308 89.441 56.8069C89.441 57.089 89.347 57.277 89.1589 57.371ZM91.7917 56.7128C91.5568 56.703 91.3215 56.703 91.0865 56.7128C90.6634 56.7128 90.5223 56.7599 90.5223 56.9479C90.5223 57.136 90.6634 57.23 90.9925 57.23L91.7917 57.089V56.7128ZM91.9328 57.5591V57.4181C91.5567 57.5121 91.1805 57.6061 90.8044 57.6061C90.6164 57.6061 90.3813 57.6061 90.2402 57.4651C90.0522 57.371 90.0052 57.183 90.0052 56.9949C90.0052 56.7599 90.0992 56.5248 90.3343 56.4308C90.576 56.3487 90.832 56.3167 91.0865 56.3367H91.7917C91.7917 56.0076 91.6037 55.8666 91.0395 55.8666L90.2873 55.9136V55.5375L91.1805 55.4905C91.5096 55.4905 91.8858 55.4905 92.1208 55.6785C92.3089 55.8196 92.3559 56.0546 92.3559 56.3837V57.5591H91.9328ZM94.9887 57.5591V56.3837C94.9887 56.0076 94.8006 55.9136 94.4715 55.9136C94.2025 55.9163 93.9346 55.9478 93.6723 56.0076V57.5121H93.1081V55.4905H93.5783V55.6315C93.9074 55.5375 94.3305 55.4435 94.6596 55.4435C94.8947 55.4435 95.1297 55.4435 95.3178 55.6315C95.5059 55.7726 95.5529 56.0076 95.5529 56.2897V57.5121L94.9887 57.5591ZM97.1043 57.6061C96.8693 57.6061 96.5872 57.6061 96.3991 57.4181C96.117 57.183 96.07 56.9009 96.07 56.5248C96.07 56.2427 96.164 55.8666 96.4461 55.6785C96.7282 55.5375 97.0103 55.4905 97.3864 55.4905H98.0446V55.9606H97.4334C96.8693 55.9606 96.6342 56.1017 96.6342 56.5718C96.6342 56.9949 96.8223 57.183 97.2454 57.183L98.0916 57.0419V57.5121L97.1514 57.6061M99.7371 55.9136C99.22 55.9136 98.9849 56.0546 98.9849 56.5248C98.9849 56.9949 99.22 57.183 99.7371 57.183C100.301 57.183 100.489 57.0419 100.489 56.5718C100.489 56.1017 100.301 55.9136 99.7371 55.9136ZM100.677 57.4181C100.489 57.5591 100.16 57.6061 99.7371 57.6061C99.361 57.6061 99.0319 57.5591 98.7969 57.4181C98.5148 57.23 98.4207 56.9479 98.4207 56.5718C98.4207 56.1957 98.5148 55.8666 98.7969 55.6785C99.0319 55.5375 99.361 55.4905 99.7371 55.4905C100.16 55.4905 100.489 55.5375 100.677 55.6785C101.007 55.8666 101.101 56.1487 101.101 56.5248C101.101 56.9009 101.007 57.23 100.724 57.4181M104.298 57.6061C103.968 57.6061 103.592 57.5591 103.357 57.324C103.028 57.0419 102.887 56.6188 102.887 56.1957C102.887 55.7726 103.028 55.3024 103.451 55.0203C103.78 54.8323 104.204 54.7853 104.627 54.7853H105.567V55.3024C105.254 55.2904 104.94 55.2904 104.627 55.3024C103.874 55.3024 103.545 55.5845 103.545 56.1957C103.545 56.8069 103.827 57.136 104.392 57.136C104.768 57.136 105.191 57.0419 105.614 56.9479V57.4181C105.191 57.5121 104.768 57.6061 104.298 57.6061ZM107.259 55.8666C106.789 55.8666 106.648 56.0076 106.601 56.3367H107.918C107.918 56.0076 107.73 55.8666 107.259 55.8666ZM107.165 57.6061C106.836 57.6061 106.554 57.6061 106.319 57.371C106.084 57.183 106.037 56.9009 106.037 56.5248C106.037 56.2427 106.131 55.9136 106.413 55.6785C106.648 55.5375 106.93 55.4905 107.259 55.4905C107.542 55.4905 107.871 55.4905 108.153 55.6785C108.482 55.9136 108.482 56.2897 108.482 56.6658H106.601C106.601 56.9949 106.742 57.183 107.306 57.183L108.388 57.089V57.4651C108.012 57.5591 107.589 57.6061 107.165 57.6061ZM110.974 57.5591V56.3837C110.974 56.0076 110.786 55.9136 110.503 55.9136C110.219 55.9128 109.935 55.9444 109.657 56.0076V57.5121H109.093V55.4905H109.563V55.6315C109.892 55.5375 110.315 55.4435 110.644 55.4435C110.88 55.4435 111.115 55.4435 111.303 55.6315C111.491 55.7726 111.538 56.0076 111.538 56.2897V57.5121L110.974 57.5591ZM113.136 57.6061C112.854 57.6061 112.619 57.5121 112.478 57.324C112.384 57.183 112.337 56.9949 112.337 56.7128V55.9606H111.914V55.5375H112.337L112.384 54.9263H112.854V55.5375H113.653V55.9606H112.901V56.9949C112.995 57.136 113.136 57.183 113.324 57.183L113.7 57.136V57.5121L113.136 57.6061ZM114.218 57.5591V55.5375H114.688V55.6785C115.064 55.5845 115.346 55.4905 115.675 55.4905H115.769V55.9606H115.581C115.299 55.9606 115.111 55.9606 114.782 56.0546V57.5591H114.218ZM117.791 56.7128C117.556 56.703 117.32 56.703 117.085 56.7128C116.662 56.7128 116.521 56.7599 116.521 56.9479C116.521 57.136 116.662 57.23 116.991 57.23L117.791 57.089V56.7128ZM117.932 57.5591V57.4181C117.556 57.5121 117.179 57.6061 116.803 57.6061C116.615 57.6061 116.333 57.6061 116.192 57.4651C116.051 57.371 116.004 57.183 116.004 56.9949C116.004 56.7599 116.098 56.5248 116.333 56.4308C116.575 56.3487 116.831 56.3167 117.085 56.3367H117.791C117.791 56.0076 117.603 55.8666 117.038 55.8666L116.286 55.9136V55.5375L117.132 55.4905C117.509 55.4905 117.838 55.4905 118.073 55.6785C118.308 55.8196 118.355 56.0546 118.355 56.3837V57.5591H117.932ZM119.06 54.7382H119.624V57.5591H119.06V54.7382Z" fill="#939598"/>
<path fill-rule="evenodd" clip-rule="evenodd" d="M88.0004 27.705C88.0004 27.3156 88.316 27 88.7054 27H91.1343C92.6474 27 94.0985 27.601 95.1684 28.6709L102.79 36.2922C103.295 36.798 104.115 36.798 104.621 36.2922L111.742 29.1709C112.812 28.101 114.263 27.5 115.776 27.5H118.705C119.095 27.5 119.41 27.8156 119.41 28.205C119.41 28.5943 119.095 28.91 118.705 28.91H115.776C114.637 28.91 113.545 29.3625 112.739 30.1679L105.618 37.2893C104.562 38.3456 102.849 38.3456 101.793 37.2893L94.1714 29.6679C93.3659 28.8625 92.2734 28.41 91.1343 28.41H88.7054C88.316 28.41 88.0004 28.0943 88.0004 27.705Z" fill="#939598"/>
<path fill-rule="evenodd" clip-rule="evenodd" d="M120 48.3638C120 48.7151 119.679 49 119.282 49H116.808C115.266 49 113.788 48.4576 112.698 47.4921L104.933 40.6146C104.418 40.1583 103.583 40.1583 103.068 40.6146L95.8124 47.0409C94.7224 48.0064 93.2441 48.5488 91.7026 48.5488H88.7187C88.322 48.5488 88.0004 48.2639 88.0004 47.9126C88.0004 47.5612 88.322 47.2764 88.7187 47.2764H91.7026C92.8631 47.2764 93.9761 46.868 94.7967 46.1412L102.052 39.7149C103.128 38.7616 104.873 38.7616 105.949 39.7149L113.714 46.5924C114.534 47.3192 115.647 47.7276 116.808 47.7276H119.282C119.679 47.7276 120 48.0124 120 48.3638Z" fill="#939598"/>
</svg>
