<svg xmlns="http://www.w3.org/2000/svg" width="72" height="73" viewBox="0 0 72 73">
    <g fill="none" fill-rule="evenodd">
        <g>
            <g>
                <g>
                    <g>
                        <g>
                            <g>
                                <path d="M0 0H72V72H0z" transform="translate(-184 -3405) translate(-238 528) translate(0 1650) translate(0 80) translate(406 1136) translate(16 12)"/>
                                <g fill="#030" fill-rule="nonzero">
                                    <path d="M4.441.007c.944 0 1.756.192 2.434.576.68.383 1.195.93 1.542 1.637.347.709.524 1.542.524 2.494 0 .708-.096 1.35-.288 1.925-.192.576-.48 1.077-.855 1.498-.384.42-.849.745-1.41.974-.553.221-1.195.339-1.91.339-.716 0-1.35-.118-1.918-.347C2 8.875 1.527 8.55 1.143 8.13.767 7.709.48 7.207.288 6.617.096 6.027 0 5.393 0 4.707c0-.701.103-1.343.302-1.933.2-.583.495-1.085.878-1.49C1.564.87 2.03.56 2.575.339 3.12.111 3.74.007 4.44.007zM7.067 4.7c0-.671-.11-1.247-.324-1.733-.214-.487-.524-.864-.923-1.114-.398-.251-.863-.377-1.379-.377-.369 0-.708.067-1.025.207-.31.14-.583.34-.812.605-.229.265-.406.605-.538 1.018-.133.413-.2.878-.2 1.394 0 .517.067.989.2 1.41.132.42.317.766.553 1.04.236.272.509.479.819.619.31.14.649.207 1.018.207.472 0 .907-.118 1.305-.355.399-.236.709-.604.945-1.091.243-.502.361-1.114.361-1.83zm4.441-1.232v.207c.295-.391.627-.686.981-.87.354-.185.76-.281 1.225-.281.45 0 .848.096 1.202.295.354.192.62.472.79.826.11.207.184.436.221.672.03.243.052.545.052.922v3.164c0 .34-.081.598-.236.775-.155.177-.362.258-.605.258-.251 0-.458-.088-.62-.265-.155-.177-.236-.436-.236-.768V5.57c0-.561-.081-.989-.236-1.284-.155-.295-.465-.443-.93-.443-.302 0-.575.089-.826.273-.25.185-.435.428-.546.745-.08.251-.125.723-.125 1.417V8.41c0 .347-.081.605-.236.774-.163.17-.37.259-.62.259-.243 0-.443-.089-.605-.266-.155-.177-.236-.435-.236-.767V3.497c0-.325.074-.568.214-.723.14-.163.332-.236.575-.236.148 0 .288.037.406.103.118.074.214.177.288.317.066.14.103.31.103.51zm5.614 4.935v-7.37c0-.339.074-.597.229-.774.155-.177.354-.258.612-.258s.465.089.62.258c.155.17.236.428.236.775v7.37c0 .346-.081.604-.236.774-.163.17-.37.258-.62.258s-.45-.088-.605-.265c-.155-.177-.236-.436-.236-.768zm3.762-6.661c-.236 0-.435-.074-.604-.221-.17-.148-.251-.354-.251-.62 0-.243.088-.435.258-.598.17-.154.369-.236.597-.236.222 0 .414.074.583.214.17.14.258.347.258.62 0 .258-.08.465-.25.612-.163.155-.362.229-.59.229zm.841 1.756V8.41c0 .34-.08.597-.243.774-.162.177-.369.259-.62.259-.25 0-.45-.089-.605-.266-.155-.177-.236-.435-.236-.767V3.548c0-.339.081-.59.236-.76.155-.17.362-.258.605-.258.244 0 .458.089.62.259.162.17.243.405.243.708zm2.774-.03v.207c.295-.391.627-.686.981-.87.354-.185.76-.281 1.225-.281.45 0 .848.096 1.202.295.354.192.62.472.79.826.11.207.184.436.221.672.03.243.052.545.052.922v3.164c0 .34-.081.598-.236.775-.155.177-.362.258-.605.258-.251 0-.458-.088-.62-.265-.155-.177-.236-.436-.236-.768V5.57c0-.561-.081-.989-.236-1.284-.155-.295-.465-.443-.93-.443-.302 0-.575.089-.826.273-.25.185-.435.428-.546.745-.08.251-.125.723-.125 1.417V8.41c0 .347-.081.605-.236.774-.163.17-.37.259-.62.259-.243 0-.443-.089-.605-.266-.155-.177-.236-.435-.236-.767V3.497c0-.325.074-.568.214-.723.14-.163.332-.236.575-.236.148 0 .288.037.406.103.118.074.214.177.288.317.066.14.103.31.103.51zm10.335 2.936h-3.32c.008.384.082.723.237 1.018.155.295.354.517.605.664.25.148.53.222.833.222.207 0 .391-.023.561-.074.17-.044.332-.126.487-.222.155-.103.302-.213.435-.324.133-.118.303-.273.517-.472.088-.074.213-.11.376-.11.177 0 .317.043.42.14.11.095.163.228.163.405 0 .155-.06.332-.178.539-.118.206-.302.405-.545.59-.244.191-.546.346-.915.472-.369.125-.79.184-1.269.184-1.092 0-1.94-.31-2.545-.937-.605-.62-.907-1.468-.907-2.53 0-.502.073-.966.22-1.394.148-.428.37-.797.657-1.107.288-.31.642-.546 1.055-.708.42-.162.886-.243 1.395-.243.664 0 1.232.14 1.711.42.472.28.834.642 1.07 1.084.236.443.354.893.354 1.358 0 .428-.126.7-.369.833-.258.126-.605.192-1.048.192zm-3.327-.966h3.084c-.044-.583-.2-1.018-.472-1.306-.273-.288-.627-.435-1.077-.435-.42 0-.767.147-1.04.435-.266.303-.436.73-.495 1.306zm8.145-4.323l3.555 5.378v-5.43c0-.354.074-.62.23-.796.154-.177.353-.266.611-.266.266 0 .472.089.627.266.155.177.23.442.23.796V8.24c0 .804-.333 1.203-.997 1.203-.17 0-.317-.023-.45-.074-.133-.044-.258-.126-.376-.229-.118-.103-.221-.221-.325-.361-.096-.14-.199-.28-.295-.428l-3.467-5.312v5.349c0 .346-.081.612-.243.789-.163.177-.37.266-.62.266-.258 0-.472-.089-.627-.273-.155-.177-.236-.443-.236-.79V1.343c0-.295.03-.532.096-.701.08-.185.206-.34.39-.458.185-.118.377-.177.59-.177.163 0 .31.03.429.082.118.051.221.125.31.22.088.09.177.207.273.355.095.14.191.288.295.45zm10.91 7.37c-.413.317-.811.56-1.195.715-.383.162-.811.236-1.29.236-.436 0-.82-.088-1.152-.258-.332-.17-.582-.406-.76-.7-.176-.296-.265-.613-.265-.96 0-.465.148-.863.443-1.187.295-.325.7-.546 1.217-.657.11-.022.376-.081.804-.17.428-.088.797-.17 1.1-.236.302-.074.634-.162.995-.265-.022-.45-.11-.775-.273-.989-.162-.206-.494-.317-.996-.317-.428 0-.76.059-.974.177-.22.118-.405.302-.56.538-.155.244-.266.399-.332.48-.067.074-.2.118-.413.118-.192 0-.354-.059-.495-.184-.14-.126-.206-.28-.206-.473 0-.295.103-.59.317-.87.214-.28.539-.516.989-.693.45-.185 1.003-.273 1.674-.273.745 0 1.335.088 1.763.265.428.177.73.458.908.834.177.383.265.885.265 1.52v1.017c0 .28-.007.59-.007.93 0 .317.051.65.162.996.103.347.162.568.162.671 0 .177-.08.332-.243.48-.162.14-.347.214-.56.214-.178 0-.347-.082-.517-.244-.192-.17-.369-.406-.56-.715zm-.11-2.464c-.251.088-.613.184-1.085.287-.472.104-.804.177-.988.222-.185.044-.354.14-.524.28-.17.14-.25.332-.25.583 0 .258.095.48.294.656.192.177.45.273.767.273.34 0 .65-.073.93-.221.288-.148.494-.34.627-.568.155-.258.229-.679.229-1.269V6.02zm3.703-4.279c-.236 0-.435-.074-.605-.221-.17-.148-.25-.354-.25-.62 0-.243.088-.435.257-.598.17-.154.37-.236.598-.236.221 0 .413.074.583.214.17.14.258.347.258.62 0 .258-.081.465-.25.612-.163.155-.362.229-.591.229zm.84 1.756V8.41c0 .34-.08.597-.243.774-.162.177-.368.259-.62.259-.25 0-.45-.089-.604-.266-.155-.177-.236-.435-.236-.767V3.548c0-.339.081-.59.236-.76.155-.17.361-.258.605-.258.243 0 .457.089.62.259.162.17.243.405.243.708zm2.9 3.49v1.415c0 .347-.081.605-.243.775-.163.17-.37.258-.62.258-.243 0-.443-.088-.605-.258-.155-.177-.236-.428-.236-.775V3.674c0-.76.273-1.144.826-1.144.28 0 .487.089.613.266.125.177.191.443.206.79.207-.347.413-.613.627-.79.214-.177.502-.266.856-.266s.7.089 1.04.266c.34.177.502.413.502.708 0 .207-.074.376-.214.516-.14.133-.295.2-.465.2-.059 0-.214-.037-.45-.118-.236-.074-.45-.118-.634-.118-.251 0-.45.066-.613.199-.155.133-.28.324-.369.583-.088.258-.147.56-.177.914-.03.362-.044.797-.044 1.306zm7.702 1.497c-.413.317-.812.56-1.195.715-.384.162-.812.236-1.291.236-.436 0-.82-.088-1.151-.258-.332-.17-.583-.406-.76-.7-.177-.296-.266-.613-.266-.96 0-.465.148-.863.443-1.187.295-.325.7-.546 1.217-.657.11-.022.376-.081.804-.17.428-.088.797-.17 1.1-.236.302-.074.634-.162.995-.265-.022-.45-.11-.775-.273-.989-.162-.206-.494-.317-.995-.317-.428 0-.76.059-.974.177-.221.118-.406.302-.56.538-.156.244-.266.399-.333.48-.066.074-.199.118-.413.118-.192 0-.354-.059-.494-.184-.14-.126-.207-.28-.207-.473 0-.295.104-.59.317-.87.214-.28.539-.516.989-.693.45-.185 1.003-.273 1.675-.273.745 0 1.335.088 1.763.265.428.177.73.458.907.834.177.383.266.885.266 1.52v1.017c0 .28-.008.59-.008.93 0 .317.052.65.163.996.103.347.162.568.162.671 0 .177-.081.332-.244.48-.162.14-.346.214-.56.214-.177 0-.347-.082-.517-.244-.184-.17-.368-.406-.56-.715zm-.11-2.464c-.252.088-.613.184-1.085.287-.472.104-.804.177-.989.222-.184.044-.354.14-.524.28-.17.14-.25.332-.25.583 0 .258.095.48.295.656.191.177.45.273.767.273.34 0 .649-.073.93-.221.287-.148.494-.34.626-.568.155-.258.23-.679.23-1.269V6.02z" transform="translate(-184 -3405) translate(-238 528) translate(0 1650) translate(0 80) translate(406 1136) translate(16 12) translate(2.25 30.938)"/>
                                </g>
                            </g>
                        </g>
                    </g>
                </g>
            </g>
        </g>
    </g>
</svg>
