<svg width="128" height="80" fill="none" xmlns="http://www.w3.org/2000/svg"><path fill-rule="evenodd" clip-rule="evenodd" d="M18.245 47.039c.818.01 1.615.018 1.615 1.653v9.459c-.056 1.305-.607 1.361-1.74 1.476l-.052.005v.507c.876-.02 1.735-.038 2.612-.038.448 0 .897.009 1.355.018h.001c.477.01.965.02 1.471.02 6.903 0 8.035-4.854 8.035-6.786 0-3.452-2.751-6.824-7.8-6.824-.823 0-1.539.012-2.154.023-.462.007-.868.014-1.22.014-.761 0-1.54 0-2.3-.037v.507c.058.002.118.002.177.003zm5.554 12.475c-.955 0-2.027-.174-2.027-1.676h-.001V47.231c.094-.006.19-.014.294-.023.286-.024.64-.055 1.227-.055 3.764 0 6.102 2.631 6.102 6.279 0 2.903-1.381 6.081-5.595 6.081z" fill="#1A1919"/><path d="M32.594 59.632h-.369v.507a75.82 75.82 0 0 1 2.124-.038c.355 0 .706.01 1.052.02.336.009.668.018.994.018v-.507h-.329c-.547 0-.977 0-.977-.644v-7.486c0-.157-.04-.274-.135-.274-.1 0-.215.02-.352.098-.077.059-1.17.428-2.087.703v.312l.089.047c.657.352.926.495.926 1.315v5.285c0 .644-.39.644-.936.644zM33.355 47.251c0 .507.448.975.955.975.527 0 .957-.448.957-.975 0-.527-.45-.938-.957-.938-.486 0-.955.45-.955.938zM37.119 52.535c.915.372 1.13.566 1.13 1.286v5.166c0 .645-.39.645-.934.645h-.353v.506c.702-.02 1.404-.038 2.105-.038.354 0 .703.01 1.05.02.34.009.68.018 1.018.018v-.506h-.35c-.547 0-.977 0-.977-.645v-5.77c.644-.431 1.64-.937 2.263-.937 1.113 0 1.793.545 1.793 1.658v5.05c0 .644-.389.644-.935.644h-.352v.507c.702-.02 1.405-.038 2.108-.038.352 0 .7.01 1.045.019.342.01.681.02 1.022.02v-.508H46.4c-.545 0-.975 0-.975-.644v-5.03c0-1.521-.585-2.731-2.24-2.731-1.309 0-2.264.665-3.377 1.463v-1.268c0-.156-.057-.194-.117-.194-.88.385-1.64.633-2.424.889l-.148.048v.37z" fill="#1A1919"/><path fill-rule="evenodd" clip-rule="evenodd" d="M48.233 55.89c-.039-.665-.039-.957 0-1.131h5.48l.175-.118c.019-.117.019-.233.019-.352-.018-2.067-1.716-3.061-3.297-3.061-1.363 0-3.937 1.13-3.937 4.953 0 1.247.625 4.252 3.725 4.252 1.598 0 2.71-1.016 3.606-2.204l-.272-.273c-.72.72-1.56 1.305-2.633 1.305-1.558 0-2.75-1.52-2.865-3.372zm3.997-2.245c0 .235-.057.49-.544.49h-3.394c.233-1.407 1.053-2.283 2.242-2.283 1.093 0 1.696.8 1.696 1.793z" fill="#1A1919"/><path d="M54.883 59.632h-.527v.506c.702-.02 1.521-.038 2.32-.038.721 0 1.424.013 2.287.03l.442.008v-.506h-1.091c-.546 0-.936 0-.936-.645v-4.58c0-1.171 1.092-1.621 1.423-1.621.352 0 .523.125.688.246.156.114.308.225.602.225.545 0 .914-.471.914-.997 0-.702-.623-1.033-1.11-1.033-1.189 0-2.01 1.249-2.496 2.01h-.04V51.48c0-.196-.06-.254-.174-.254-.081 0-.29.107-.631.282-.4.205-.982.503-1.75.83v.291c.06.033.14.064.23.098.332.129.783.303.783.78v5.48c0 .644-.39.644-.934.644zM64.32 59.809c-1.424 0-2.203-1.094-2.458-2.38l-.351.097.216 2.244c.68.388 1.599.663 2.378.663 2.32 0 3.352-1.367 3.352-2.653 0-1.643-1.302-2.202-2.509-2.72-1.042-.447-2.013-.863-2.013-1.921 0-.839.74-1.287 1.52-1.287 1.25 0 1.932.703 2.126 1.93h.448l-.137-1.987c-.76-.39-1.598-.567-2.22-.567-2.146 0-3.024 1.404-3.024 2.496 0 1.691 1.233 2.256 2.371 2.777.975.446 1.88.86 1.88 1.922 0 .683-.43 1.386-1.578 1.386zM84.58 50.057h.485l-.193-2.787c-1.501-.527-3.022-1.035-4.602-1.035-3.82 0-7.39 2.867-7.39 6.866 0 4.387 2.886 7.332 7.447 7.332 1.289 0 3.493-.528 4.311-1.036l.449-2.848-.449-.116c-.39 2.049-1.99 3.375-3.92 3.375-3.002 0-5.81-2.827-5.81-6.768 0-4.68 3.254-6.18 5.5-6.18 2.182 0 3.8.918 4.172 3.197zM86.138 59.632h-.37v.507c.723-.02 1.425-.038 2.126-.038.357 0 .708.01 1.054.02.336.009.667.018.992.018v-.507h-.33c-.545 0-.975 0-.975-.645V45.515c0-.155-.038-.274-.157-.274-.042 0-.14.055-.276.13l-.151.085c-.41.235-1.23.586-2.01.838v.313l.074.021c.687.197.96.275.96 1.501v10.859c0 .644-.389.644-.937.644zM98.832 59.437c-.33 0-.543-.019-.543-.37v-7.195c0-.215 0-.35-.158-.35-.07 0-.251.019-.535.05a60.43 60.43 0 0 1-2.506.223v.35c.066.02.134.038.203.056.665.181 1.433.39 1.433.743v5.246c-.818.682-1.695 1.187-2.358 1.187-1.696 0-1.696-1.675-1.696-2.26v-5.03c0-.43 0-.566-.216-.566-.114 0-.493.024-.939.051a57.45 57.45 0 0 1-1.574.085v.372c1.09.096 1.168.583 1.168 1.09v4.994c0 1.636 1.09 2.32 2.143 2.32 1.386 0 2.284-.684 3.453-1.64v1.58l.098.06c.37-.117 1.97-.527 2.81-.604v-.41c-.131 0-.271.004-.408.009-.131.004-.26.009-.375.009z" fill="#1A1919"/><path fill-rule="evenodd" clip-rule="evenodd" d="M105.072 51.228c-1.071 0-2.124.742-2.904 1.402v-7.115c0-.155-.04-.274-.156-.274-.043 0-.136.052-.265.124a6.527 6.527 0 0 1-.165.09c-.409.236-1.227.587-2.008.84v.312l.074.022c.687.196.96.275.96 1.5v8.384c0 1.19-.098 2.32-.272 3.47l.409.214.583-.448c.076.032.157.069.245.11.504.233 1.238.574 2.465.574 2.789 0 4.663-2.556 4.663-5.11 0-2.124-1.366-4.095-3.629-4.095zm-.896 8.697c-1.306 0-2.009-1.25-2.009-1.99h.001V53.2c.526-.45 1.129-.918 1.853-.918 1.521 0 3.118 1.755 3.118 3.86 0 1.735-.878 3.784-2.963 3.784z" fill="#1A1919"/><path d="M20.457 71.82c.287.01.571.02.825.02h.048v-.409h-.196c-.385-.01-.737-.04-.739-.559v-5.557c.002-.52.354-.554.74-.56h.195v-.412h-.048c-.247 0-.527.01-.81.02h-.002c-.29.01-.585.022-.852.022-.274 0-.58-.012-.87-.023h-.002c-.258-.01-.504-.019-.7-.019H18v.41h.195c.385.008.735.042.738.562v5.558c-.003.518-.354.549-.738.558H18v.41h.046c.197 0 .44-.01.696-.02h.002c.286-.01.589-.022.862-.022.266 0 .56.01.85.021zM29.184 72l-.436-.015-5.384-6.001v4.253c.013.922.153 1.184.951 1.194h.228v.41h-.048c-.23 0-.459-.01-.687-.021h-.003c-.226-.01-.453-.021-.678-.021-.237 0-.477.01-.717.02-.242.011-.485.022-.726.022h-.046v-.41h.195c.701-.004.902-.454.91-1.3v-4.468c-.003-.565-.466-.91-.92-.91h-.186v-.41h.047c.204 0 .41.01.616.021.203.01.405.02.603.02.13 0 .257-.006.387-.013.188-.01.382-.021.593-.011l4.664 5.25v-3.904c-.006-.842-.57-.945-.878-.951h-.28v-.412h.046c.252 0 .5.01.748.021.246.01.491.02.738.02.215 0 .43-.01.647-.02.219-.01.438-.02.658-.02h.046v.41h-.204c-.439.012-.888.05-.9 1.301v4.828c0 .372.012.741.062 1.064l.009.053h-.055zM35.26 71.822c.283.01.545.019.739.019h.043v-.41h-.247c-.506-.01-.824-.066-.834-.866v-5.6h1.693c.67 0 .712.575.74.973l.001.004.003.061.376-.137.03-.012v-.032c0-.287 0-.572.02-.857.032-.283.073-.57.115-.854l.008-.047-.3-.048-.048-.01-.004.051c-.018.277-.233.282-.528.286H31.535c-.269-.004-.463-.008-.534-.274l-.009-.033h-.336v.047c0 .304-.02.599-.064.892-.022.215-.055.424-.087.632l-.041.27-.007.056h.41l.007-.037.027-.124c.147-.674.172-.791.915-.807h1.692v5.622c-.013.823-.247.83-.832.844h-.249v.41h.046c.186 0 .437-.008.715-.018.344-.011.728-.024 1.08-.024.306 0 .663.012.992.023zM43.91 71.84c-.312 0-.738-.008-1.199-.018h-.002a80.225 80.225 0 0 0-1.653-.025c-.532 0-1.158.014-1.714.026h-.003c-.441.01-.838.018-1.106.018h-.044v-.41h.194c.384-.006.733-.04.738-.558v-5.558c-.005-.519-.354-.554-.738-.561h-.194v-.41h.044c.299 0 .694.008 1.12.018h.003c.498.01 1.04.023 1.518.023.47 0 .997-.012 1.497-.023.45-.01.877-.019 1.22-.019h.046v.05c-.008.158-.013.347-.013.547 0 .365.012.768.032 1.07l.003.038-.037.011-.372.097-.002-.055c-.063-.688-.155-1.189-1.247-1.198h-1.43v2.686h1.216c.613-.006.721-.318.794-.89l.002-.044h.408v.049a23.162 23.162 0 0 0 0 2.447v.04l-.038.009-.37.073-.002-.05-.01-.088c-.065-.592-.101-.915-.772-.923H40.57v2.426c.001.638.546.641 1.228.645h.02c1.278-.007 1.79-.07 2.11-1.26l.01-.043.045.007.34.089-.01.044a24.058 24.058 0 0 0-.36 1.683l-.008.038h-.036z" fill="#1A1919"/><path fill-rule="evenodd" clip-rule="evenodd" d="M51.478 71.82c.174.01.347.02.526.02h.044v-.403l-.038-.006c-.516-.066-.7-.176-.997-.616l-1.782-2.67c.818-.333 1.45-.932 1.45-1.89-.002-1.54-1.233-1.909-2.57-1.912-.275 0-.537.01-.806.02-.284.01-.577.022-.902.022-.375 0-.751-.014-1.069-.026a17.848 17.848 0 0 0-.577-.016h-.045v.41h.237l.02.002c.325.01.678.022.685.758v5.392c-.001.357-.324.523-.705.526h-.237v.41h.045c.27 0 .53-.01.788-.021.25-.01.5-.021.75-.021.3 0 .604.01.909.02h.002c.305.011.61.022.913.022h.047v-.41h-.26c-.478-.01-.788-.018-.8-.804v-2.222h.627c.685 1.212 1.383 2.35 2.197 3.418.22.01.43 0 .632-.01.137-.007.27-.014.4-.014.173 0 .344.01.515.02h.002zm-2.309-5.498c-.01 1.233-.54 1.597-1.59 1.608h-.473v-3.074a4.24 4.24 0 0 0 .1-.01c.109-.014.239-.029.457-.029.925.004 1.5.579 1.506 1.505z" fill="#1A1919"/><path d="m59.821 72-.435-.015-5.385-6v4.25c.012.924.152 1.186.95 1.196h.227v.41h-.046c-.23 0-.458-.011-.687-.022-.228-.011-.455-.022-.682-.022-.236 0-.476.01-.716.022h-.001c-.242.01-.486.022-.725.022h-.048v-.41h.196c.7-.003.902-.454.908-1.302V65.66c0-.565-.464-.907-.917-.907h-.187v-.41h.048c.203 0 .408.01.613.02.204.01.408.02.608.02.13 0 .259-.007.391-.014.185-.01.377-.021.584-.013l4.664 5.251v-3.902c-.003-.842-.567-.947-.876-.951h-.28v-.412h.046c.25 0 .498.01.746.021.247.01.493.02.74.02.215 0 .432-.01.648-.02h.001c.218-.01.436-.02.655-.02h.047v.41h-.204c-.438.01-.89.05-.9 1.301v4.828c0 .372.01.74.064 1.065l.005.052h-.052z" fill="#1A1919"/><path fill-rule="evenodd" clip-rule="evenodd" d="m68.042 71.833.18.008.046.003v-.415h-.107c-.341-.002-.536-.112-.659-.395-.124-.282-.24-.628-.352-.964l-.038-.114-1.954-5.549a11.268 11.268 0 0 1-.096-.268.132.132 0 0 0-.118-.06c-.037 0-.064.01-.09.02l-.011.004a5.53 5.53 0 0 1-.964.455c-.082.378-.243.84-.375 1.214l-.046.13-1.699 4.87c-.154.431-.483.656-.878.657h-.11v.415l.05-.003.148-.008h.001c.331-.018.664-.036.993-.036.373 0 .753.018 1.127.036l.155.008.048.003v-.415h-.163c-.352 0-.748-.064-.752-.323-.001-.113.054-.272.122-.47a8.24 8.24 0 0 0 .112-.343l.33-1.072h2.34l.404 1.2c.117.337.212.628.21.749-.001.204-.365.26-.611.26h-.164v.414l.048-.003.246-.01c.456-.017.904-.034 1.346-.034.442 0 .863.018 1.28.036zm-3.013-3.298h-1.856l.933-2.844.923 2.844z" fill="#1A1919"/><path d="M72.871 71.84c-.192 0-.454-.008-.736-.018-.33-.011-.688-.023-.995-.023-.35 0-.733.013-1.076.024h-.002c-.277.01-.529.018-.715.018h-.046v-.41h.248c.586-.014.82-.02.834-.844v-5.622H68.69c-.743.013-.77.133-.915.806l-.027.125-.009.037h-.41l.007-.053.034-.222c.035-.225.07-.45.094-.68.043-.296.063-.59.063-.895v-.047h.337l.009.033c.074.266.265.27.535.274h5.534c.293-.004.507-.009.526-.285l.002-.051.049.009.302.048-.008.047c-.043.284-.084.57-.116.854-.022.284-.022.57-.022.857v.032l-.03.012-.376.137-.002-.061c-.027-.399-.07-.977-.74-.977h-1.694v5.6c.01.8.328.856.834.866h.247v.41h-.044zM77.572 71.82c.287.01.571.02.825.02h.043v-.409h-.191c-.39-.006-.738-.04-.741-.559v-5.557c.003-.519.352-.554.74-.56h.193v-.412h-.044c-.248 0-.529.01-.813.02-.291.01-.588.022-.856.022-.272 0-.578-.012-.867-.023-.26-.01-.505-.019-.701-.019h-.046v.41h.195c.382.008.735.043.737.562v5.558c-.002.518-.355.552-.737.558h-.195v.41h.046c.195 0 .438-.01.695-.02.286-.012.591-.024.865-.024.267 0 .56.011.852.022z" fill="#1A1919"/><path fill-rule="evenodd" clip-rule="evenodd" d="M82.626 64.185v.046l.001-.047c2.278.003 4.107 1.418 4.11 3.707-.001 2.465-1.774 4.104-4.055 4.109-2.269-.005-4.01-1.547-4.015-3.855.005-2.231 1.732-3.957 3.96-3.96zm.162 7.256c2.018 0 2.37-1.769 2.372-3.315 0-1.538-.828-3.38-2.553-3.382-1.82.002-2.357 1.617-2.362 3.03 0 1.89.863 3.665 2.543 3.667z" fill="#1A1919"/><path d="m94.02 71.985.439.015h.05l-.009-.052a7.17 7.17 0 0 1-.06-1.065v-4.828c.01-1.249.46-1.29.898-1.3h.206v-.412h-.046c-.221 0-.44.01-.659.021-.216.01-.433.02-.649.02-.247 0-.492-.01-.738-.02-.247-.01-.495-.02-.744-.02h-.049v.41h.28c.31.007.874.11.878.952v3.903l-4.662-5.25c-.213-.009-.407.002-.595.012-.129.007-.256.014-.384.014-.2 0-.402-.01-.606-.021-.205-.01-.412-.02-.616-.02h-.043v.41h.182c.456 0 .92.342.92.907v4.47c-.008.846-.21 1.296-.909 1.298h-.193v.412h.043c.242 0 .485-.01.727-.021.24-.01.481-.021.718-.021.227 0 .454.01.68.02.23.011.46.022.69.022h.044v-.412h-.229c-.796-.009-.936-.269-.949-1.192v-4.252l5.385 6z" fill="#1A1919"/><path fill-rule="evenodd" clip-rule="evenodd" d="M102.856 71.84c-.088-.002-.175-.006-.262-.01a29.28 29.28 0 0 0-1.199-.031c-.414 0-.838.015-1.268.03l-.322.012-.047.003v-.413h.162c.247 0 .612-.057.613-.261.001-.121-.095-.411-.214-.75l-.402-1.2h-2.342l-.328 1.073c-.036.124-.075.239-.11.342-.068.199-.121.357-.12.47 0 .26.397.326.748.326h.162v.413l-.048-.003a97.763 97.763 0 0 1-.228-.01 23.464 23.464 0 0 0-1.052-.032c-.309 0-.617.015-.927.031l-.217.01-.046.004v-.413h.106c.395-.002.726-.228.882-.658l1.696-4.87.043-.121c.132-.376.295-.842.378-1.223.334-.115.76-.33.967-.457l.014-.005c.024-.009.05-.018.086-.018a.12.12 0 0 1 .116.062l.04.111c.019.052.038.106.058.154l1.95 5.55.074.214c.103.304.207.61.319.865.124.282.316.393.655.396h.11v.413l-.047-.003zm-5.048-3.305h1.857l-.924-2.842-.933 2.842z" fill="#1A1919"/><path d="M107.427 71.82c.468.01.936.02 1.404.02l.035.002.009-.037c.052-.241.106-.48.16-.72.081-.36.162-.718.234-1.083l.01-.055h-.4l-.009.035c-.064.23-.156.52-.32.748-.183.252-.555.503-.988.554-.274.03-.543.041-.803.041-.205 0-.402-.006-.589-.02-.331-.047-.591-.153-.594-.55v-5.473c.008-.514.244-.519.626-.526l.05-.001h.309v-.412h-.042c-.273 0-.543.01-.812.021-.267.01-.534.02-.803.02-.279 0-.557-.01-.835-.02-.279-.01-.558-.02-.841-.02h-.045v.41h.194c.385.007.747.042.752.558v5.455c-.005.628-.369.655-.752.664h-.195v.41h.046c.468 0 .936-.01 1.403-.021.467-.01.933-.021 1.399-.021.465 0 .931.01 1.397.02z" fill="#1A1919"/><path fill-rule="evenodd" clip-rule="evenodd" d="M108.539 65.743v.054l.539.001v-.055a2.403 2.403 0 0 0-.034-.004c-.107-.015-.129-.017-.129-.084v-.37h.123c.063.09.116.173.161.245.103.162.169.267.241.267h.218v-.034a1.16 1.16 0 0 1-.246-.265l-.185-.256c.156-.047.266-.17.266-.336 0-.203-.181-.297-.378-.297h-.572v.056c.146-.006.158.034.158.151v.828c0 .077-.023.08-.135.096-.009 0-.018.002-.027.004zm.508-.534h-.132v-.526h.125c.115 0 .218.063.218.24s-.067.285-.211.285z" fill="#1A1919"/><path fill-rule="evenodd" clip-rule="evenodd" d="M110.211 65.209c0-.629-.477-1.12-1.117-1.12-.639 0-1.117.491-1.117 1.12 0 .627.478 1.113 1.117 1.113.64 0 1.117-.486 1.117-1.114zm-.233 0c0 .48-.383.906-.884.906-.503 0-.885-.426-.885-.906 0-.482.382-.91.885-.91.506 0 .884.428.884.91z" fill="#1A1919"/><path fill-rule="evenodd" clip-rule="evenodd" d="M42.825 26.933c0-9.925 8.046-17.97 17.969-17.97 9.924 0 17.97 8.046 17.97 17.97s-8.046 17.97-17.97 17.97-17.97-8.046-17.97-17.97z" fill="#FFFFFE"/><path fill-rule="evenodd" clip-rule="evenodd" d="M71.66 26.58a10.81 10.81 0 0 0-6.935-10.081v20.16A10.81 10.81 0 0 0 71.66 26.58zM56.994 36.654V16.501a10.82 10.82 0 0 0-6.932 10.078c.01 4.6 2.883 8.518 6.932 10.076zm3.868-27.116c-9.41.004-17.035 7.63-17.036 17.04.001 9.41 7.625 17.034 17.036 17.036 9.41-.002 17.036-7.627 17.038-17.036-.002-9.41-7.627-17.036-17.038-17.04zm-.042 35.684c-10.298.049-18.773-8.295-18.773-18.449C42.046 15.675 50.52 7.998 60.819 8h4.826c10.175-.002 19.463 7.671 19.463 18.774 0 10.152-9.288 18.45-19.463 18.45h-4.826z" fill="#184977"/></svg>