<svg width="128" height="80" fill="none" xmlns="http://www.w3.org/2000/svg"><path d="M76.8 24a8 8 0 0 1 8-8H96v40a8 8 0 0 1-8 8H76.8V24z" fill="#C4C4C4"/><path d="M76.8 24a8 8 0 0 1 8-8H96v40a8 8 0 0 1-8 8H76.8V24z" fill="url(#a)"/><path d="M54.4 24a8 8 0 0 1 8-8h11.2v40a8 8 0 0 1-8 8H54.4V24z" fill="url(#b)"/><path d="M32 24a8 8 0 0 1 8-8h11.2v40a8 8 0 0 1-8 8H32V24z" fill="#C4C4C4"/><path d="M32 24a8 8 0 0 1 8-8h11.2v40a8 8 0 0 1-8 8H32V24z" fill="url(#c)"/><path d="M54.4 35.39c2.023-1.715 5.542-2.815 11.216-2.551 3.035.132 6.29.968 6.29.968v3.387c-1.628-.836-3.563-1.584-6.07-1.76-4.31-.308-6.906 1.804-6.906 5.498 0 3.74 2.595 5.85 6.906 5.499 2.507-.176 4.442-.968 6.07-1.76v3.387s-3.211.836-6.29.968c-5.674.264-9.193-.836-11.216-2.55V35.39z" fill="#fff"/><path fill-rule="evenodd" clip-rule="evenodd" d="M76.8 33.118v15.395h12.41c2.904 0 5.103-1.583 5.103-4.002 0-2.244-1.98-3.695-4.575-3.871v-.088c2.376-.308 3.651-1.848 3.651-3.651 0-2.287-1.891-3.607-4.442-3.739a3.657 3.657 0 0 0-.64-.044H76.8zm3.965 12.844h4.619c.066 0 .176-.01.286-.022h.002c.11-.011.218-.022.284-.022.88-.176 1.627-.968 1.627-2.067 0-1.056-.748-1.848-1.627-2.068-.132-.044-.396-.044-.572-.044h-4.619v4.223zm6.246-8.533c0-1.056-.748-1.76-1.627-1.892-.04 0-.106-.008-.179-.018a2.217 2.217 0 0 0-.261-.026h-4.179v3.871h4.179c.132 0 .396 0 .44-.044.88-.132 1.627-.836 1.627-1.891z" fill="#fff"/><path d="M38.903 46.084c-2.33 0-4.66-.703-6.903-1.802v3.354c.434.117 3.865 1 8.179 1 7.61 0 9.853-2.948 9.853-6.555V32.8H43.17v9.325c0 2.287-1.495 3.959-4.267 3.959z" fill="#fff"/><defs><linearGradient id="a" x1="76.834" y1="36.628" x2="96.051" y2="36.628" gradientUnits="userSpaceOnUse"><stop stop-color="#007940"/><stop offset=".229" stop-color="#00873F"/><stop offset=".743" stop-color="#40A737"/><stop offset="1" stop-color="#5CB531"/></linearGradient><linearGradient id="b" x1="54.289" y1="39.958" x2="73.241" y2="39.958" gradientUnits="userSpaceOnUse"><stop stop-color="#6C2C2F"/><stop offset=".173" stop-color="#882730"/><stop offset=".573" stop-color="#BE1833"/><stop offset=".859" stop-color="#DC0436"/><stop offset="1" stop-color="#E60039"/></linearGradient><linearGradient id="c" x1="32.033" y1="40.002" x2="51.547" y2="40.002" gradientUnits="userSpaceOnUse"><stop stop-color="#1F286F"/><stop offset=".475" stop-color="#004E94"/><stop offset=".826" stop-color="#0066B1"/><stop offset="1" stop-color="#006FBC"/></linearGradient></defs></svg>