<svg width="128" height="80" viewBox="0 0 128 80" fill="none" xmlns="http://www.w3.org/2000/svg">
<path fill-rule="evenodd" clip-rule="evenodd" d="M15 14H113V66H15V14Z" fill="#FFCE00"/>
<path fill-rule="evenodd" clip-rule="evenodd" d="M49.2406 43.4475C47.5474 44.9495 45.7372 46.3135 43.8272 47.5265C39.8849 50.0624 35.4865 52.21 31.1224 53.9104C29.6759 54.4756 27.9646 54.7999 26.523 54.048C25.6037 53.5457 24.9199 52.6996 24.6205 51.694C24.3753 50.9519 24.2724 50.0771 24.1302 49.3056C23.0171 43.0494 23.4976 35.7514 24.7529 29.5101C25.0667 27.962 25.8022 25.8685 27.4449 25.3131C28.2294 25.0477 29.1218 25.0625 29.9309 25.2345C30.1865 25.2921 30.4373 25.3693 30.6811 25.4655C36.0553 27.4657 40.8607 29.972 45.3816 33.5252C46.6614 34.5277 48.0638 35.5745 49.2406 36.695C50.0056 37.4273 50.7166 38.2578 50.9078 39.3341C50.958 39.6278 50.9712 39.9266 50.947 40.2236C50.8982 40.8495 50.7216 41.4587 50.428 42.0132C50.1345 42.5678 49.7303 43.056 49.2406 43.4475Z" fill="#FEFEFE"/>
<path fill-rule="evenodd" clip-rule="evenodd" d="M25.665 51.3451C26.0572 52.5294 27.2292 54.2397 30.7204 52.8833C35.7611 50.9175 43.2977 47.3201 48.5444 42.5826C48.5444 42.5826 49.7163 41.7668 49.8438 40.1401C49.9664 38.5183 48.7062 37.5403 44.7001 34.395C40.7577 31.294 36.3397 28.7532 30.2938 26.5024C29.4996 26.175 28.6183 26.1265 27.7931 26.3648C26.7682 26.7088 26.1357 28.2274 25.8317 29.7263C25.5424 31.1564 23.6742 40.4792 25.2139 49.109C25.3217 49.7184 25.4786 50.7848 25.665 51.3451Z" fill="#FFB700"/>
<path fill-rule="evenodd" clip-rule="evenodd" d="M26.3416 28.0308C26.1651 28.6353 26.018 29.4167 25.9346 30.4291L25.9395 30.4045C26.9643 30.0556 28.4207 29.918 30.4899 30.1736C37.0899 30.9894 43.8665 34.7194 47.5391 36.9604L48.5345 37.5551C48.2379 37.2716 47.9321 36.9979 47.6176 36.7344L47.549 36.6705L47.5097 36.641C47.4364 36.5801 47.3628 36.5195 47.2891 36.4592L47.2498 36.4248L47.1763 36.3609L47.1371 36.3314L47.0978 36.297L47.0145 36.2331L46.9753 36.1987L46.8968 36.1348L46.8527 36.1004L46.7693 36.0316L46.7301 35.9972L46.4212 35.7564L46.3329 35.6827L46.2888 35.6483L46.2397 35.609L46.1956 35.5746L46.1466 35.5352L46.0534 35.4615L45.9553 35.3829L45.9161 35.3534L45.9112 35.3485L45.7641 35.2305L45.7543 35.2256L45.7102 35.1912L45.5631 35.0733L45.5091 35.0291L45.4601 34.9897L45.416 34.9602L45.4062 34.9504L45.3522 34.9062L45.3032 34.8669L45.2492 34.8276L45.2443 34.8226L45.1953 34.7833L45.1414 34.7391L45.0874 34.6998L45.0678 34.6801L45.0335 34.6556L44.9796 34.6113L44.9207 34.572L44.8864 34.5376L44.8668 34.5278L44.8128 34.4835L44.754 34.4393L44.7001 34.395C40.7577 31.294 36.3397 28.7532 30.2938 26.5024C29.4999 26.1739 28.6181 26.1254 27.7931 26.3648L27.7538 26.3796H27.744L27.6999 26.3992H27.695L27.6557 26.4189H27.6508C27.6377 26.4253 27.6246 26.4318 27.6116 26.4386L27.6018 26.4435C27.5886 26.4498 27.5755 26.4564 27.5626 26.4631L27.5577 26.468L27.5233 26.4877L27.5135 26.4926L27.4792 26.5123L27.4694 26.5221L27.4302 26.5418L27.4253 26.5467L27.3909 26.5712L27.3811 26.5762L27.3468 26.6007L27.337 26.6106L27.3027 26.6401H27.2978L27.2635 26.6695L27.2585 26.6745L27.2193 26.7039L27.2144 26.7138L27.1801 26.7433L27.1752 26.7482L27.1409 26.7777L27.136 26.7875C27.1244 26.7988 27.113 26.8103 27.1016 26.8219L27.0232 26.9005L27.0183 26.9103L26.984 26.9497L26.9791 26.9546L26.9496 26.989L26.9447 26.9988L26.9153 27.0332L26.9055 27.043C26.8956 27.0561 26.8858 27.0692 26.8761 27.0824V27.0873L26.8712 27.0922L26.8418 27.1266L26.8369 27.1413L26.8074 27.1806L26.7976 27.1905L26.7682 27.2347L26.3416 28.0308ZM26.4054 27.9719L26.4004 27.9768L26.371 28.0259L26.3661 28.0308L26.3367 28.0751V28.08L26.3073 28.1291L26.3024 28.139L26.273 28.1881L26.2681 28.193L26.2484 28.2373L26.2386 28.2471L26.1847 28.3552L26.1798 28.3601V28.365L26.1553 28.4093L26.1259 28.4682L26.121 28.483L26.0964 28.5321L26.0915 28.537L26.067 28.5911L26.0621 28.6009L26.0376 28.655L26.0327 28.6648L26.4054 27.9719Z" fill="#FFDF77"/>
<path fill-rule="evenodd" clip-rule="evenodd" d="M25.9395 30.4045C26.9643 30.0556 28.4207 29.918 30.4899 30.1736C37.0899 30.9894 43.8665 34.7194 47.5391 36.9604C44.4647 45.8704 30.9753 52.2444 30.9753 52.2444C29.3621 50.6276 27.8077 49.1237 26.3073 37.9728C25.8513 34.5818 25.7973 32.1492 25.9395 30.4045Z" fill="#FFCE00"/>
<path d="M57.3412 26.9693C58.7926 26.7826 60.2587 26.7875 61.7199 26.8022C62.6957 26.8268 63.7009 27.0725 64.4904 27.6573C65.1572 28.1684 65.1866 29.0924 65.1474 29.859C65.0837 31.1564 64.8287 32.5521 63.8676 33.5056C63.0467 34.3133 61.9653 34.8012 60.8177 34.8816C59.7389 35.029 58.6406 35.0684 57.5569 34.916C57.2921 35.9677 57.0175 37.0145 56.8116 38.0809C56.7576 38.3905 56.6302 38.7591 56.282 38.8378C55.875 38.9115 55.4533 38.823 55.0414 38.8525C54.7914 38.8525 54.5266 38.9066 54.2912 38.7984C54.0706 38.6707 54.2079 38.3807 54.2128 38.1792L55.1297 33.7218C55.2131 33.2893 55.2866 32.8519 55.4386 32.4391C56.6154 32.4195 57.7923 32.4293 58.9642 32.4293C59.1554 32.4096 59.3172 32.503 59.479 32.5816C59.4055 32.9179 59.3612 33.2599 59.3467 33.6038C59.9498 33.2697 60.4646 32.8028 60.9991 32.3752C61.6022 31.8592 62.2103 31.3481 62.7496 30.7682C61.9602 29.7755 61.1511 28.8024 60.347 27.8195C60.1165 28.1488 60.2489 28.6943 59.8566 28.8958C59.2976 29.0186 58.7141 28.9302 58.1453 28.9351C57.4686 28.8958 56.7871 29.0334 56.1202 28.8663C56.1447 28.3404 56.1741 27.7802 56.4487 27.3232C56.6351 27.0283 57.0322 27.0234 57.3412 26.9693ZM66.8342 30.4488C67.962 30.1686 69.1977 30.0556 70.3058 30.493C70.5908 30.5998 70.8451 30.7754 71.0461 31.0043C71.2471 31.2332 71.3886 31.5083 71.4581 31.8051C71.7229 32.847 71.3405 33.8938 71.1934 34.9307C71.0364 36.0021 70.8354 37.0636 70.654 38.135C70.6 38.4987 70.4333 38.9164 70.0312 39.0098C68.9231 39.2997 67.7609 39.3833 66.6234 39.3095C65.8192 39.2309 64.9072 39.0589 64.4119 38.3561C63.9118 37.6632 64.0343 36.7491 64.2207 35.9677C64.2964 35.5831 64.4671 35.2237 64.7173 34.9224C64.9674 34.621 65.2889 34.3873 65.6525 34.2427C66.5743 33.9135 67.5697 33.9479 68.5308 33.8889C68.7711 33.8545 69.0604 33.9085 69.2663 33.7365C69.4232 33.3434 69.4771 32.8863 69.3497 32.4784C69.1682 32.0214 68.6043 31.9624 68.1777 31.987C67.2853 31.9821 66.4321 32.2524 65.5936 32.5276C65.4956 32.0705 65.3534 31.5447 65.628 31.1171C65.8878 30.6994 66.3929 30.5716 66.8342 30.4488ZM66.2654 36.1348C66.1771 36.4886 66.0497 36.8916 66.2213 37.2406C66.6283 37.7467 67.3491 37.8401 67.9522 37.7369C68.2513 37.6927 68.6975 37.6239 68.7171 37.2406C68.7612 36.6115 69.0211 35.9972 68.9084 35.3632C68.2464 35.3288 67.5697 35.3042 66.9176 35.4468C66.589 35.5205 66.3586 35.8203 66.2654 36.1348ZM74.8758 30.5274C76.3174 29.9966 77.8963 30.2129 79.3674 30.4832C79.642 30.5569 79.9705 30.5569 80.1862 30.7682C80.3383 30.9697 80.2647 31.2351 80.2304 31.4611C79.7253 34.2329 79.2791 37.0194 78.7299 39.7813C78.5583 40.5971 78.1758 41.4621 77.4109 41.8749C76.4989 42.3811 75.4201 42.3172 74.4149 42.3369C73.4882 42.3516 72.483 42.1452 71.8112 41.4719C71.6347 41.0542 71.9093 40.6364 72.0515 40.258C72.2672 40.2679 72.4879 40.2826 72.6987 40.3416C73.7614 40.6374 74.875 40.7011 75.9644 40.5283C76.543 40.3858 76.6558 39.7224 76.7048 39.2162C75.68 39.3587 74.5816 39.4275 73.6255 38.9557C73.2367 38.7661 72.9039 38.4784 72.6597 38.1208C72.4155 37.7632 72.2684 37.348 72.2329 36.9162C72.1201 35.3681 72.429 33.8053 72.9929 32.3654C73.158 31.9423 73.4115 31.5594 73.7362 31.2425C74.0609 30.9255 74.4495 30.6817 74.8758 30.5274ZM76.4253 31.8985C76.1355 31.956 75.8598 32.0703 75.6141 32.2347C75.3685 32.3991 75.1575 32.6106 74.9935 32.8568C74.7238 33.2795 74.6454 33.7857 74.5326 34.2673C74.3659 35.1273 74.1894 36.0168 74.3463 36.8965C74.4002 37.275 74.7729 37.4715 75.1112 37.5502C75.7094 37.6829 76.3371 37.6042 76.9255 37.4519C77.1216 37.4126 77.1265 37.1816 77.1706 37.0243C77.4305 35.5844 77.661 34.1346 77.9209 32.6947C77.9405 32.503 78.0042 32.2917 77.9062 32.1098C77.4648 31.8543 76.9206 31.8051 76.4253 31.8985ZM84.364 30.2374C85.2564 30.09 86.2175 30.1785 87.0216 30.6208C87.4141 30.8542 87.7427 31.1816 87.9781 31.5735C88.2134 31.9655 88.3481 32.4098 88.3701 32.8667C88.424 33.9135 88.2132 34.9553 87.9582 35.9677C87.7326 36.813 87.3747 37.6632 86.7176 38.2677C85.5898 39.3636 83.8197 39.5946 82.3634 39.108C81.971 38.9617 81.6213 38.7198 81.3456 38.404C81.0699 38.0883 80.8771 37.7087 80.7845 37.2995C80.402 35.8989 80.7207 34.4196 81.1571 33.0731C81.3858 32.3539 81.8048 31.7104 82.3695 31.211C82.9342 30.7116 83.6235 30.3752 84.364 30.2374ZM84.3836 32.1442C84.1017 32.2337 83.8454 32.3898 83.6363 32.5993C83.4272 32.8089 83.2715 33.0658 83.1822 33.3483C82.8733 34.2624 82.6919 35.2305 82.687 36.1938C82.7017 36.5624 82.7606 36.9899 83.0744 37.2307C83.4863 37.5551 84.0551 37.5158 84.5454 37.4273C85.021 37.3487 85.3888 36.9801 85.5898 36.5574C86.0704 35.5893 86.2322 34.4983 86.2665 33.4318C86.291 33.0092 86.1832 32.5276 85.8105 32.2819C85.3986 31.987 84.8494 32.0116 84.3836 32.1442ZM30.2987 35.4075L31.1176 32.9207H37.6245C38.7179 32.9207 39.8604 33.2058 40.7136 33.9184C41.3636 34.465 41.7967 35.2269 41.9346 36.066C42.2729 37.8303 41.7679 39.7617 40.5175 41.0689C39.3897 42.2828 37.7618 42.9217 36.1338 43.0888C34.7461 43.2165 33.3536 43.1133 31.9659 43.0544C31.5638 44.6761 31.2402 46.3176 30.8675 47.9443C29.8182 47.8951 28.7689 47.8361 27.7195 47.8165C28.2295 45.2561 28.8228 42.7104 29.3377 40.1499C31.0686 40.1303 32.8044 40.145 34.5353 40.1401L34.5402 41.7471C35.9965 40.5087 37.4136 39.226 38.8552 37.9777C37.7814 36.6213 36.6928 35.2846 35.6288 33.9184C35.4831 34.4061 35.3507 34.8978 35.2316 35.3927C33.5889 35.4173 31.9414 35.3927 30.2987 35.4075ZM63.3675 40.5038C64.304 40.0271 65.422 40.0369 66.4174 40.3121C66.4419 40.7495 66.491 41.2655 66.1919 41.6193C65.6966 41.8651 65.0739 41.6783 64.5884 41.9683C64.2109 42.3025 64.2893 42.8774 64.2207 43.3296C64.7453 43.3935 65.2798 43.3345 65.8045 43.4524C65.8878 43.9095 65.9124 44.4648 65.5887 44.8334C65.1278 45.1234 64.5443 44.9808 64.0294 45.0398C63.897 45.2364 63.7843 45.4477 63.7598 45.6885C63.3626 47.8853 62.9948 50.0821 62.6025 52.2788C62.4358 53.0307 62.2544 53.8711 61.6169 54.3675C60.9648 54.8786 60.0822 54.9081 59.2878 54.8835C58.9642 54.8442 58.5523 54.8786 58.3464 54.569C58.263 54.1562 58.4052 53.7433 58.5474 53.36C58.9936 53.2715 59.4643 53.36 59.9007 53.2224C60.3666 53.0651 60.4597 52.5196 60.5431 52.1019C60.8471 50.2148 61.1854 48.3276 61.5189 46.4454C61.5875 46.008 61.715 45.5706 61.6905 45.1283C61.259 44.9661 60.7098 45.1037 60.3764 44.7253C60.1067 44.4009 60.2293 43.9095 60.4156 43.5704C60.7883 43.1821 61.3767 43.5163 61.8327 43.3689C62.1563 43.1821 62.1661 42.7595 62.2348 42.4351C62.3525 41.6881 62.6663 40.8773 63.3675 40.5038ZM87.1884 41.295C87.2766 40.9313 87.2815 40.43 87.6738 40.2531C88.2377 40.1941 88.8114 40.2236 89.3802 40.2187C89.6155 40.8723 89.3508 41.5456 89.1889 42.1796C88.6157 42.3097 88.0224 42.3247 87.4433 42.2238C87.0314 42.1206 87.1442 41.6046 87.1884 41.295ZM55.3847 40.6217C56.7969 40.3711 58.2434 40.4497 59.6605 40.6119C59.837 40.6364 60.0135 40.6905 60.1851 40.7397C60.2685 41.177 60.2636 41.6488 60.0626 42.0567C59.9253 42.3418 59.5771 42.3762 59.2976 42.386C58.3562 42.4057 57.4098 42.3663 56.4683 42.4007C56.0417 42.4204 55.5269 42.5433 55.3553 42.9905C55.0365 43.7424 55.0022 44.5729 54.8747 45.374L58.7288 45.3691C58.9397 45.3593 59.2927 45.4084 59.2633 45.6934C59.2633 46.062 59.1898 46.4257 59.0819 46.7746C58.9838 47.0597 58.6651 47.1727 58.3856 47.158C57.2676 47.1629 56.1496 47.1481 55.0267 47.1629C54.7325 47.1285 54.4579 47.3447 54.4432 47.6494C54.355 48.4161 54.1196 49.1827 54.1981 49.9592C54.2324 50.372 54.6786 50.4949 55.0218 50.5096C56.1104 50.5342 57.199 50.49 58.2826 50.5342C58.5278 50.5391 58.4886 50.8389 58.5327 51.0109C58.5915 51.4778 58.4689 52.1412 57.91 52.2149C56.3212 52.3869 54.6296 52.6572 53.0997 52.0331C52.3691 51.7431 52.0405 50.9372 51.9523 50.2049C51.8493 49.5857 52.016 48.9714 52.119 48.3669C52.3936 46.7746 52.6731 45.1872 52.9673 43.6048C53.1046 42.8824 53.3252 42.1452 53.8058 41.5653C54.2128 41.0984 54.7669 40.7397 55.3847 40.6217ZM82.5791 41.9732C83.1871 41.6144 83.9227 41.5751 84.6141 41.6046C84.6337 42.1845 84.4228 42.7398 84.4522 43.3148C84.9034 43.3787 85.3741 43.3394 85.8056 43.5016C86.0802 43.6244 86.0311 43.9783 85.9821 44.2191C85.8988 44.5435 85.7762 45.0103 85.3545 45.0005C84.923 45.0988 84.1825 44.8383 84.0452 45.433C83.7854 46.7058 83.5892 47.9983 83.3637 49.281C83.2852 49.7282 83.2068 50.1804 83.2019 50.6325C83.6628 50.7897 84.1482 50.7455 84.6189 50.7111C85.0259 51.3303 84.6435 52.3181 83.8638 52.3476C83.1038 52.3427 82.2506 52.4902 81.5984 52.0085C81.1081 51.6498 81.01 50.9814 81.0934 50.4162C81.3189 48.647 81.7259 46.9024 81.9368 45.1283C81.4464 45.0005 80.8384 45.1135 80.4608 44.7105C80.2696 44.3567 80.2941 43.8456 80.5736 43.5409C81.0493 43.2264 81.6622 43.4918 82.1672 43.2952C82.5007 42.9364 82.2898 42.3565 82.5791 41.9732ZM68.8446 43.364C69.6929 43.2657 70.6344 43.1674 71.3895 43.6539C72.38 44.2633 72.7821 45.5018 72.7575 46.6174C72.7281 47.2415 72.787 47.8902 72.5908 48.4996C71.7082 48.6765 70.8011 48.5684 69.9038 48.5979C69.0457 48.6175 68.1826 48.5635 67.3245 48.6175C67.0794 49.2171 67.1872 50.0231 67.7708 50.3917C68.217 50.6079 68.7318 50.5735 69.2173 50.5735C70.1195 50.5637 70.9776 50.259 71.8553 50.0919C71.8504 50.6472 72.0024 51.3893 71.4532 51.7431C70.8648 52.0675 70.2029 52.2297 69.5556 52.4017C68.5845 52.6627 67.5505 52.5395 66.6675 52.0577C66.2783 51.8643 65.9419 51.5789 65.6873 51.2262C65.4328 50.8734 65.2677 50.4639 65.2063 50.0329C65.0235 48.3145 65.3582 46.5806 66.1673 45.0546C66.6969 44.0717 67.7659 43.4967 68.8446 43.364ZM68.3347 45.4919C67.8737 45.8802 67.6874 46.4798 67.604 47.0597C68.6534 47.0695 69.7125 47.1137 70.7619 47.0302C70.9237 46.5584 70.8648 46.0227 70.5559 45.6295C70.0459 44.9366 68.9427 44.9366 68.3347 45.4919ZM74.6307 44.7449C75.3466 43.7129 76.646 43.2411 77.8669 43.2903C78.5534 43.3197 79.2595 43.4524 79.8626 43.8014C80.3235 44.0913 79.995 44.6909 79.9313 45.1086C79.9019 45.5067 79.4066 45.3789 79.1369 45.3789C78.5044 45.4084 77.9307 44.8973 77.2981 45.1086C77.0351 45.1727 76.7908 45.2983 76.5855 45.4751C76.3801 45.6519 76.2193 45.8749 76.1164 46.1259C75.6604 47.2218 75.4642 48.4259 75.4986 49.6103C75.4937 49.9789 75.6898 50.3671 76.0674 50.4752C77.0088 50.7799 77.9699 50.3917 78.8966 50.2147C78.931 50.7259 78.9947 51.2812 78.7103 51.7382C78.4602 52.0675 78.0238 52.1609 77.6365 52.21C77.1363 52.2543 76.6362 52.328 76.136 52.3771C75.5422 52.3836 74.9627 52.1942 74.4869 51.8381C74.0111 51.482 73.6653 50.9789 73.5029 50.4064C73.3312 49.4776 73.4244 48.5193 73.5666 47.5953C73.7628 46.5977 74.0521 45.5902 74.6307 44.7449ZM100.413 43.3591C101.237 43.246 102.114 43.246 102.899 43.5655C103.346 43.7805 103.727 44.1111 104.004 44.5232C104.28 44.9353 104.442 45.4139 104.473 45.9097C104.576 47.1334 104.257 48.3325 103.924 49.4923C103.71 50.2948 103.25 51.0098 102.61 51.5367C102.05 51.9541 101.401 52.235 100.714 52.357C100.027 52.479 99.3213 52.4388 98.6526 52.2395C97.8778 52.0478 97.3041 51.3942 96.956 50.7013C96.4706 49.6594 96.7451 48.4898 96.9364 47.4135C97.1423 46.2291 97.5885 45.0152 98.5202 44.2093C99.0572 43.7536 99.7115 43.4589 100.408 43.3591H100.413ZM100.629 45.1676C100.324 45.2419 100.043 45.3915 99.8108 45.6027C99.5787 45.8139 99.4031 46.0799 99.2998 46.3765C98.9762 47.2661 98.8242 48.2096 98.7605 49.1483C98.7408 49.5169 98.7948 49.9346 99.089 50.1853C99.6333 50.6374 100.437 50.6128 101.041 50.3081C101.506 50.0673 101.781 49.5808 101.894 49.0844C102.105 48.1605 102.443 47.2366 102.355 46.2684C102.34 45.9293 102.208 45.5755 101.918 45.374C101.541 45.1283 101.06 45.0791 100.624 45.1676H100.629ZM86.9138 43.5016C87.4777 43.3148 88.1004 43.3099 88.6839 43.4131C89.0075 43.4623 88.88 43.8603 88.8751 44.0864C88.4878 46.4798 88.0268 48.8584 87.6248 51.2468C87.5659 51.6203 87.5512 52.1904 87.0707 52.2592C86.5697 52.3483 86.0552 52.3232 85.5653 52.1855C85.4329 51.9594 85.4869 51.6842 85.5163 51.4434C85.8693 49.3645 86.2224 47.2857 86.5656 45.202C86.6637 44.6319 86.7372 44.0569 86.9138 43.5016ZM89.7823 43.5262C89.9196 43.3836 90.1304 43.3935 90.3118 43.3738C90.7335 43.364 91.1601 43.3345 91.572 43.4426C91.7927 43.4819 91.7485 43.7768 91.7927 43.9439C91.8809 45.374 91.93 46.809 91.9986 48.244C92.0427 49.0697 92.0477 49.9101 92.2438 50.716C92.8175 50.1656 93.0038 49.3645 93.3078 48.6569C94.0041 46.9319 94.6612 45.1872 95.4163 43.4868C96.0243 43.3296 96.6765 43.3296 97.2943 43.423C97.6081 43.5016 97.4463 43.8702 97.363 44.0766C96.2744 46.4601 95.23 48.8633 94.1267 51.2419C93.656 52.3132 92.2683 52.6228 91.2386 52.269C90.709 52.097 90.4835 51.5171 90.4344 51.006C90.1843 48.7748 89.9686 46.5387 89.7528 44.3026C89.7381 44.0471 89.7087 43.7768 89.7823 43.5262Z" fill="black"/>
</svg>
