<svg width="128" height="80" viewBox="0 0 128 80" fill="none" xmlns="http://www.w3.org/2000/svg">
<path d="M69.1668 39.4034C69.1668 34.1875 72.2177 31.0966 76.8432 31.0966C79.8941 31.0966 82.2561 32.4489 83.437 34.767C83.6339 35.1534 83.7323 35.6364 83.7323 36.0227C83.7323 36.892 83.1418 37.4716 82.256 37.4716C81.4687 37.4716 80.9766 37.1818 80.583 36.3125C79.8941 34.6705 78.5163 33.8977 76.8432 33.8977C74.2844 33.8977 72.6113 36.0227 72.6113 39.4034C72.6113 42.8807 74.2844 44.9091 76.8432 44.9091C78.6147 44.9091 79.8941 44.1364 80.583 42.4943C80.9766 41.7216 81.3703 41.4318 82.0592 41.4318C83.0434 41.4318 83.6339 42.0114 83.6339 42.8807C83.6339 43.267 83.5354 43.6534 83.3386 44.0398C82.3545 46.2614 79.8941 47.6136 76.7448 47.6136C72.1193 47.7102 69.1668 44.6193 69.1668 39.4034Z" fill="#B3BBC8"/>
<path d="M85.7006 44.0398C85.7006 41.9148 87.3736 40.5625 90.4245 40.4659L93.4754 40.1761V39.4034C93.4754 38.2443 92.6881 37.6648 91.4087 37.6648C90.4245 37.6648 89.834 37.9545 89.0467 38.9205C88.653 39.3068 88.2594 39.5 87.7673 39.5C86.98 39.5 86.3895 39.017 86.3895 38.2443C86.3895 37.9545 86.4879 37.7614 86.5863 37.4716C87.1768 36.0227 89.1451 35.1534 91.6055 35.1534C94.7548 35.1534 96.7231 36.6989 96.7231 39.1136V45.875C96.7231 46.9375 96.0342 47.517 95.1485 47.517C94.2627 47.517 93.6722 47.0341 93.5738 46.0682V45.4886H93.4754C92.7865 46.7443 91.3103 47.517 89.7356 47.517C87.4721 47.6136 85.7006 46.1648 85.7006 44.0398ZM93.4754 43.0739V42.2045L90.9166 42.3977C89.6372 42.4943 88.9483 43.0739 88.9483 43.8466C88.9483 44.7159 89.7356 45.2955 90.8182 45.2955C92.2944 45.2955 93.4754 44.3295 93.4754 43.0739Z" fill="#B3BBC8"/>
<path d="M98.8882 45.2955C98.7898 45.1023 98.7898 44.9091 98.7898 44.7159C98.7898 43.9432 99.3803 43.4602 100.168 43.4602C100.66 43.4602 101.152 43.6534 101.644 44.233C102.333 45.1023 103.022 45.4886 104.301 45.4886C105.482 45.4886 106.269 45.0057 106.269 44.233C106.269 43.5568 105.876 43.267 104.695 42.9773L102.628 42.5909C100.266 42.108 99.0851 40.8523 99.0851 39.1136C99.0851 36.7955 101.053 35.3466 104.203 35.3466C106.761 35.3466 108.533 36.5057 108.927 37.858C108.927 38.0511 109.025 38.1477 109.025 38.3409C109.025 39.017 108.631 39.5 107.746 39.5C107.352 39.5 106.86 39.3068 106.565 39.017C105.974 38.2443 105.285 37.7614 104.104 37.7614C103.022 37.7614 102.234 38.2443 102.234 39.017C102.234 39.5966 102.726 40.0795 103.907 40.2727L105.876 40.6591C108.435 41.2386 109.517 42.108 109.517 43.9432C109.517 46.358 107.352 47.8068 104.104 47.8068C101.349 47.7102 99.4787 46.7443 98.8882 45.2955Z" fill="#B3BBC8"/>
<path d="M111.584 45.9716V32.7386C111.584 31.6761 112.174 31.0966 113.257 31.0966C114.339 31.0966 114.832 31.6761 114.832 32.7386V37.5682H114.93C115.619 36.0227 116.898 35.25 118.768 35.25C121.425 35.25 123 36.9886 123 39.6932V45.875C123 47.0341 122.311 47.6136 121.327 47.6136C120.343 47.6136 119.654 47.0341 119.654 45.875V40.4659C119.654 38.9205 118.867 37.9545 117.39 37.9545C115.816 37.9545 114.93 39.017 114.93 40.5625V45.875C114.93 47.0341 114.241 47.6136 113.257 47.6136C112.273 47.7102 111.584 47.1307 111.584 45.9716Z" fill="#B3BBC8"/>
<path d="M16.1209 31H12.8732C12.7748 31 12.7748 31.0966 12.7748 31.0966V42.3011C12.7748 43.0739 12.3812 43.8466 11.5938 44.233C11.2986 44.4261 11.0033 44.4261 10.6097 44.4261C9.92077 44.4261 9.23186 44.0398 8.8382 43.4602C8.64137 43.1705 8.54295 42.7841 8.54295 42.3977C8.54295 42.3011 8.44454 42.3011 8.44454 42.3011H5.09842C5.09842 42.3011 5 42.3011 5 42.3977C5 42.3977 5 42.3977 5 42.4943C5.09842 45.4886 7.5588 47.9034 10.6097 47.9034H10.7081C13.759 47.9034 16.3178 45.392 16.3178 42.3011V31.0966C16.2193 31.0966 16.2193 31 16.1209 31Z" fill="#FF6300"/>
<path d="M50.6647 39.3068C50.0742 37.858 48.8932 36.6989 47.417 36.1193C45.8424 35.5398 44.0709 35.5398 42.5947 36.1193C41.8073 36.4091 41.2168 36.892 40.6264 37.375C40.0359 37.9545 39.6422 38.5341 39.347 39.3068C39.0517 40.0795 38.8549 40.8523 38.8549 41.7216C38.8549 42.5909 39.0517 43.3636 39.347 44.1364C39.6422 44.8125 40.0359 45.4886 40.6264 46.0682C41.2168 46.6477 41.8073 47.0341 42.5947 47.3239C44.1693 47.9034 45.8424 47.9034 47.417 47.3239C48.1059 47.0341 48.7948 46.5511 49.3853 46.0682C49.9758 45.4886 50.3695 44.9091 50.6647 44.1364C50.96 43.3636 51.1568 42.5909 51.1568 41.7216C51.1568 40.9489 50.96 40.0795 50.6647 39.3068ZM43.2836 39.5966C43.4804 39.4034 43.7756 39.2102 44.0709 39.1136C44.6614 38.9205 45.4487 38.9205 46.0392 39.1136C46.3344 39.2102 46.6297 39.4034 46.8265 39.5966C47.0234 39.8864 47.2202 40.1761 47.417 40.4659C47.7123 41.3352 47.7123 42.2045 47.417 43.0739C47.3186 43.4602 47.1218 43.75 46.8265 43.9432C46.6297 44.1364 46.3344 44.3295 46.0392 44.5227C45.4487 44.7159 44.6614 44.7159 44.0709 44.5227C43.7756 44.4261 43.4804 44.233 43.2836 43.9432C43.0867 43.6534 42.8899 43.3636 42.6931 43.0739C42.3978 42.3011 42.3978 41.3352 42.6931 40.5625C42.7915 40.1761 42.9883 39.7898 43.2836 39.5966Z" fill="#FF6300"/>
<path d="M63.3603 40.5625V47.8068C63.3603 47.9034 63.2619 47.9034 63.2619 47.9034H63.3603H60.0142C59.9158 47.9034 59.9158 47.8068 59.9158 47.8068V41.142C59.9158 40.8523 59.9158 40.5625 59.8173 40.2727C59.7189 39.983 59.6205 39.7898 59.4237 39.5966C59.3253 39.5 59.2269 39.4034 59.2269 39.4034C58.9316 39.2102 58.4395 39.1136 58.0459 39.1136C57.4554 39.1136 56.8649 39.4034 56.5696 39.8864C56.4712 40.0795 56.3728 40.2727 56.3728 40.5625C56.3728 40.7557 56.3728 40.9489 56.3728 41.142V47.9034C56.3728 48 56.2744 48 56.2744 48H53.0267C52.9283 48 52.9283 47.9034 52.9283 47.9034V36.0227C52.9283 35.9261 53.0267 35.9261 53.0267 35.9261H56.0776C56.176 35.9261 56.176 36.0227 56.176 36.0227V36.6023C56.176 36.6023 56.176 36.6023 56.176 36.6989C56.176 36.6989 56.176 36.6989 56.2744 36.6989C56.4712 36.5057 56.6681 36.4091 56.8649 36.3125C58.1443 35.733 59.5221 35.733 60.8999 36.2159C61.4904 36.4091 61.8841 36.7955 62.2777 37.2784C62.6714 37.7614 62.9666 38.2443 63.0651 38.7273C63.2619 39.3068 63.3603 39.8864 63.3603 40.5625Z" fill="#FF6300"/>
<path d="M37.2802 35.9261H35.4103C35.3119 35.9261 35.3119 35.8295 35.3119 35.8295V31.0966C35.3119 31 35.2135 31 35.2135 31H31.9658C31.8674 31 31.8674 31.0966 31.8674 31.0966V35.5398C31.8674 35.6364 31.769 35.6364 31.769 35.6364H30.6864C30.588 35.6364 30.588 35.733 30.588 35.733V38.7273C30.588 38.8239 30.6864 38.8239 30.6864 38.8239H31.769C31.8674 38.8239 31.8674 38.9205 31.8674 38.9205V42.8807C31.8674 45.4886 34.0325 47.7102 36.6897 47.7102C36.8866 47.7102 37.1818 47.7102 37.3787 47.7102C37.4771 47.7102 37.4771 47.6136 37.4771 47.6136V44.3295C37.4771 44.233 37.3787 44.233 37.3787 44.233H36.5913C36.0008 44.233 35.4103 43.75 35.3119 43.1705C35.3119 43.1705 35.3119 43.0739 35.3119 42.9773V39.3068C35.3119 39.2102 35.4103 39.2102 35.4103 39.2102H37.2802C37.3787 39.1136 37.3787 39.1136 37.3787 39.017V36.1193C37.3787 36.0227 37.3787 35.9261 37.2802 35.9261Z" fill="#FF6300"/>
<path d="M27.6355 37.0852C27.6355 37.0852 27.5371 36.9886 27.4387 36.9886C26.1593 36.1193 24.5847 35.733 23.01 35.9261H22.9116C22.4195 36.0227 21.829 36.1193 21.3369 36.3125C20.648 36.6023 19.9591 37.0852 19.4671 37.5682C18.975 38.0511 18.4829 38.7273 18.1877 39.5C17.8924 40.2727 17.6956 41.0455 17.6956 41.9148C17.6956 42.6875 17.8924 43.5568 18.1877 44.3295C18.4829 45.0057 18.8766 45.6818 19.4671 46.2614C20.0575 46.8409 20.648 47.2273 21.4354 47.517C22.1243 47.8068 22.8132 47.9034 23.6005 48C23.7973 48 23.9942 48 24.191 48H24.5847C26.4545 47.9034 28.1276 46.8409 29.1118 45.392V45.1989L26.2577 44.4261C26.1593 44.4261 26.0609 44.4261 26.0609 44.4261C25.9625 44.4261 25.8641 44.5227 25.7656 44.5227C25.0767 45.0057 24.191 45.1023 23.4037 44.8125C22.7148 44.5227 22.1243 43.9432 21.829 43.267V43.1705H29.407C29.407 43.1705 29.5054 43.1705 29.5054 43.0739C29.8991 41.9148 29.8007 40.6591 29.3086 39.5C28.9149 38.4375 28.3244 37.6648 27.6355 37.0852ZM26.0609 40.1761H21.7306C21.7306 40.0795 21.7306 40.0795 21.829 39.983C21.9274 39.8864 22.0259 39.7898 22.1243 39.6932C22.3211 39.5 22.6163 39.3068 22.9116 39.2102C23.5021 39.017 24.2894 39.017 24.8799 39.2102C25.372 39.4034 25.7656 39.6932 26.0609 40.1761C25.9625 40.1761 25.9625 40.0795 26.0609 40.1761Z" fill="#FF6300"/>
</svg>
