<svg xmlns="http://www.w3.org/2000/svg" width="73" height="72"><g fill="none"><path fill="#B3D234" d="M8.104 28.483c.403-.46.77-.851 1.121-1.18-5.928-.191-4.202 4.127-6.134 8.516-2.224 5.054.262 6.98 3.967 7.58a8.103 8.103 0 0 1-1.252-2.063c-2.402-3.048-1.435-8.6 2.298-12.852"/><path fill="#0095D9" d="M22.369 33.866c-.552 1.566-1.564 3.322-2.995 5.051-1.116 1.348-2.356 2.408-3.636 3.177-1.48.966-3.315 1.536-5.368 1.536-1.148 0-2.278-.065-3.313-.232a6.791 6.791 0 0 0 2.219 1.75c5.36 2.612 5.698-2.24 11.368-4.702 3.184-1.382 3.196-4.085 1.725-6.58"/><path fill="#EEE809" d="M15.736 28.817a7.02 7.02 0 0 1 2.212.79c1.8 1.026 3.44 2.596 4.42 4.26.966-2.741.516-4.896-1.596-5.286-2.322-.428-4.137-.565-5.881-1.792-2.149-1.512-4.032-1.014-5.666.515.115.003.233.009.354.016 2.267.134 4.431.58 6.157 1.497"/><path fill="#51B849" d="M8.104 28.483c-3.733 4.253-4.7 9.804-2.298 12.852-1.079-2.551-1.004-5.733.516-8.273 2.024-3.383 6.083-4.857 9.414-4.244-1.726-.92-3.89-1.363-6.156-1.499-.122-.007-.24-.011-.355-.015-.35.328-.718.72-1.12 1.179"/><path fill="#00845D" d="M17.948 29.607a7.026 7.026 0 0 0-2.212-.79c2.273 1.21 3.786 3.241 3.769 6.477-.016 2.808-1.455 5.29-3.767 6.8 1.28-.768 2.52-1.83 3.635-3.177 1.432-1.728 2.444-3.485 2.995-5.05-.98-1.664-2.62-3.234-4.42-4.26"/><path fill="#005121" d="M15.362 40.555A5.516 5.516 0 0 1 7.719 38.9c-1.656-2.577-.837-5.894 1.648-7.675 2.78-1.991 6.345-1.206 7.644 1.656 1.267 2.79.917 6.013-1.649 7.674m.374-11.738c-3.331-.612-7.39.862-9.414 4.244-1.52 2.54-1.595 5.723-.516 8.273a8.063 8.063 0 0 0 1.252 2.064c1.034.168 2.164.232 3.312.232 2.053 0 3.888-.57 5.368-1.536 2.312-1.51 3.752-3.992 3.766-6.8.018-3.236-1.495-5.268-3.768-6.477"/><path fill="#778F9B" d="M58.172 33.172c-.58 0-1.137.155-1.657.46-.52.305-.932.72-1.224 1.237a3.48 3.48 0 0 0-.44 1.738c0 .954.319 1.735.973 2.392.655.655 1.424.974 2.348.974.61 0 1.182-.15 1.7-.449a3.198 3.198 0 0 0 1.217-1.223c.29-.517.437-1.1.437-1.734 0-.63-.147-1.205-.437-1.712a3.292 3.292 0 0 0-1.231-1.223 3.333 3.333 0 0 0-1.686-.46m.03 8.022c-1.286 0-2.389-.451-3.276-1.34-.887-.89-1.337-1.981-1.337-3.244 0-.84.205-1.63.609-2.348a4.466 4.466 0 0 1 1.66-1.697 4.467 4.467 0 0 1 2.277-.613c1.313 0 2.43.448 3.316 1.334.887.886 1.338 1.99 1.338 3.284 0 1.281-.45 2.384-1.334 3.278-.886.893-1.98 1.346-3.252 1.346zm8.908 0a2.657 2.657 0 0 1-1.489-.442c-.438-.29-.844-.775-1.207-1.442a.204.204 0 0 1 .072-.27l.71-.428a.197.197 0 0 1 .278.076c.46.853.984 1.286 1.557 1.286.245 0 .48-.06.695-.175a1.187 1.187 0 0 0 .649-1.055c0-.242-.08-.475-.247-.714-.248-.355-.715-.794-1.388-1.305-.719-.547-1.158-.938-1.341-1.193a2.317 2.317 0 0 1-.482-1.406c0-.4.098-.77.289-1.102.191-.332.465-.597.812-.788a2.323 2.323 0 0 1 1.126-.285c.427 0 .832.108 1.203.321.371.213.747.586 1.15 1.141a.202.202 0 0 1-.04.278l-.682.522a.198.198 0 0 1-.28-.04c-.297-.397-.548-.658-.747-.778a1.17 1.17 0 0 0-.62-.171c-.287 0-.512.082-.689.253a.817.817 0 0 0-.26.615c0 .154.034.306.097.45.065.15.191.317.373.5.069.067.31.266 1.057.823.75.557 1.252 1.044 1.536 1.488.289.451.435.913.435 1.374 0 .664-.252 1.248-.75 1.735a2.51 2.51 0 0 1-1.817.732zm-15.49-.212h-1.023a.137.137 0 0 1-.127-.086l-1.297-3.14a.096.096 0 0 0-.178 0l-1.301 3.14a.14.14 0 0 1-.128.086h-1.024a.137.137 0 0 1-.123-.195l1.867-4.177a.42.42 0 0 0 0-.347l-1.682-3.799a.211.211 0 0 1 .192-.3h.861c.083 0 .158.05.189.128l1.15 2.803a.1.1 0 0 0 .188 0l1.157-2.805a.198.198 0 0 1 .185-.127h.871c.146 0 .243.153.182.286l-1.693 3.808a.425.425 0 0 0 0 .349l1.858 4.181a.137.137 0 0 1-.124.195zm-22.017-8.58c0-.131.106-.239.237-.239h3.013c1.483 0 2.684 1.212 2.684 2.706v.073a2.726 2.726 0 0 1-2.716 2.737h-1.834a.16.16 0 0 0-.158.16v2.904c0 .132-.106.24-.237.24h-.752a.239.239 0 0 1-.237-.24v-8.34zm1.226 3.882c0 .088.07.16.158.16h1.996c.734 0 1.329-.6 1.329-1.339v-.343c0-.753-.606-1.363-1.354-1.363h-1.971a.159.159 0 0 0-.158.16v2.725zm12.725 4.698a.22.22 0 0 1-.198-.126l-.66-1.413a.22.22 0 0 0-.199-.126h-4.121a.218.218 0 0 0-.198.126l-.664 1.413a.22.22 0 0 1-.198.126h-.888a.22.22 0 0 1-.198-.315l3.927-8.378a.221.221 0 0 1 .198-.126h.18c.086 0 .163.05.199.128l3.876 8.378a.22.22 0 0 1-.198.313h-.858zm-4.67-3.04c-.04.082.02.177.111.177h2.872a.133.133 0 0 0 .12-.19l-1.42-3.035a.138.138 0 0 0-.252 0l-1.432 3.047z"/></g></svg>