<svg xmlns="http://www.w3.org/2000/svg" width="72" height="72"><g fill="none" fill-rule="evenodd"><path fill="#333" d="M20.813 53.483v-4.394h1.541c.427-.029.852.078 1.215.304.278.214.431.55.41.9.003.2-.054.395-.162.563a.942.942 0 0 1-.467.36.93.93 0 0 1 .534.343c.134.182.204.404.197.63.03.365-.122.722-.405.956a1.787 1.787 0 0 1-1.125.332l-1.738.006zm.906-1.913v1.187h.782a.748.748 0 0 0 .5-.152.53.53 0 0 0 .18-.422.56.56 0 0 0-.624-.613h-.838zm0-.641h.669c.456 0 .686-.186.686-.563a.494.494 0 0 0-.174-.427.88.88 0 0 0-.563-.135h-.63l.012 1.125zm5.523 1.648h-1.603l-.298.905h-.962l1.632-4.393h.843l1.643 4.394h-.934l-.32-.906zm-1.366-.731h1.125l-.563-1.648-.563 1.648zm6.592 1.637h-.894l-1.761-2.893v2.892h-.906v-4.394h.906l1.766 2.897V49.09h.9l-.011 4.394zm2.182-1.733-.472.506v1.255h-.906v-4.422h.906v1.992l.4-.563 1.124-1.445h1.125l-1.558 1.951 1.603 2.442h-1.096l-1.127-1.716zm7.212-1.901h-1.361v3.662h-.89v-3.69h-1.327v-.732h3.578v.76zm2.143 2.053h-.692v1.609h-.934v-4.422h1.631c.43-.027.856.096 1.204.35.287.24.443.603.422.978a1.232 1.232 0 0 1-.782 1.232l.95 1.788v.04h-.972l-.827-1.575zm-.692-.76h.731a.744.744 0 0 0 .529-.174.628.628 0 0 0 .186-.478.662.662 0 0 0-.175-.49.743.743 0 0 0-.562-.18h-.709v1.322zm5.524 1.435h-1.62l-.298.905h-.962l1.631-4.393h.844l1.631 4.394h-.95l-.276-.906zm-1.345-.731h1.125l-.562-1.648-.563 1.648zm6.565 1.637h-.906l-1.76-2.892v2.892h-.906v-4.394h.906l1.766 2.897V49.09h.9v4.394zm3.071-1.125a.457.457 0 0 0-.18-.394 2.373 2.373 0 0 0-.652-.287 4.141 4.141 0 0 1-.743-.304 1.216 1.216 0 0 1-.754-1.085 1.05 1.05 0 0 1 .203-.636c.144-.195.338-.346.562-.439.269-.107.555-.16.844-.157.289-.006.575.054.838.174.229.104.424.27.563.478.136.211.206.458.202.709h-.906a.595.595 0 0 0-.19-.473.788.788 0 0 0-.563-.163.875.875 0 0 0-.518.135.45.45 0 0 0-.185.372c.002.15.086.288.219.36.198.12.412.21.636.27.412.1.797.292 1.125.562.235.221.364.532.354.855a1.05 1.05 0 0 1-.433.894c-.342.235-.751.35-1.165.327a2.266 2.266 0 0 1-.922-.186 1.488 1.488 0 0 1-.636-.506 1.32 1.32 0 0 1-.219-.748h.968c0 .483.286.725.866.725a.86.86 0 0 0 .506-.13.425.425 0 0 0 .18-.398v.045zm4.185-.67h-1.738v1.795h-.906v-4.394h2.858v.732h-1.952v1.125h1.738v.742zm3.375-.107h-1.744v1.176h2.042v.726h-2.947v-4.394h2.941v.732h-2.036v1.051h1.744v.71zm2.458.293h-.72v1.609h-.905v-4.394h1.63a1.85 1.85 0 0 1 1.205.35c.286.24.442.603.421.978.011.263-.055.523-.19.748a1.433 1.433 0 0 1-.563.484l.916 1.788v.04h-.973l-.82-1.603zm-.72-.732h.731a.746.746 0 0 0 .53-.174.627.627 0 0 0 .185-.478.662.662 0 0 0-.175-.49.743.743 0 0 0-.562-.18h-.726l.017 1.322z"/><path fill="#A8E900" d="m57.033 25.009 11.593 10.057a.875.875 0 0 1 0 1.328l-11.6 9.855a.882.882 0 0 1-1.445-.686V25.666a.876.876 0 0 1 1.451-.658z"/><path fill="#0C8A31" d="M48.313 32.26v-5.93a.873.873 0 0 1 .501-.787.884.884 0 0 1 .934.113l11.565 9.494a.89.89 0 0 1 .315.68.87.87 0 0 1-.326.68l-11.565 9.305a.88.88 0 0 1-1.423-.681v-5.198L3.061 41.541V29.812l45.252 2.43v.017z"/><path fill="#FFF" fill-rule="nonzero" d="m19.919 40.162.033-.073a4.87 4.87 0 0 0 .332-2.492h2.149v-2.649h-3.156c-.703-1.305-.562-2.25-.19-2.616.483-.562 1.687-.725 3.627.405l.422.242v-2.986l-.163-.074a7.08 7.08 0 0 0-2.813-.646 3.857 3.857 0 0 0-2.89 1.237c-.985 1.091-1.25 2.728-.738 4.438h-1.276v2.65h2.486c.12.467.09.961-.085 1.411-.23.563-.68 1.153-2.12 1.153h-.281v2.65h8.876v-2.65h-4.213z"/><path fill="#0C8A31" fill-rule="nonzero" d="M24.571 43.25h-9.754v-3.52h.72c1.175 0 1.518-.434 1.715-.895.101-.254.142-.527.118-.799h-2.547V34.51h1.125a4.813 4.813 0 0 1 .973-4.292 4.318 4.318 0 0 1 3.212-1.383 7.508 7.508 0 0 1 3.01.686l.422.191v4.038l-1.064-.636c-1.688-.994-2.734-.888-3.088-.489-.23.259-.326.906.141 1.884h3.324v3.527h-2.12a5.27 5.27 0 0 1-.214 1.688h4.027v3.526zm-9.192-.562h8.629v-2.396h-4.264l.146-.383a4.711 4.711 0 0 0 .287-2.126v-.31h2.16v-2.401h-3.138l-.073-.152c-.563-1.125-.625-2.12-.13-2.672.692-.748 2.087-.607 3.786.377l.23.14v-2.687l-.09-.045a6.673 6.673 0 0 0-2.767-.636 3.779 3.779 0 0 0-2.813 1.193 4.389 4.389 0 0 0-.765 4.134l.096.349h-1.294v2.402h2.464l.045.23a2.36 2.36 0 0 1-.124 1.35c-.365.855-1.052 1.238-2.25 1.238h-.157l.022 2.396z"/><path fill="#FFF" d="M10.17 29.29h-1.8v1.58c-1.81.383-2.851 1.17-3.11 2.374a2.745 2.745 0 0 0 1.39 2.869 15.87 15.87 0 0 0 2.874 1.125c1.125.354 1.636.838 1.558 1.44-.085.714-.743 1.068-1.969 1.057a6.033 6.033 0 0 1-2.92-1.125l-1.237 1.328c.337.456.8.802 1.333.995a7.446 7.446 0 0 0 2.082.563v1.558h1.861v-1.57c1.446-.27 2.402-.9 2.875-1.873.461-1.072.388-1.937-.22-2.593a5.168 5.168 0 0 0-2.373-1.417l-1.452-.422a3.952 3.952 0 0 1-1.125-.602c-.686-.703-.562-1.305.36-1.794 1.17-.456 2.442-.242 3.803.64l1.03-1.36c-.603-.681-1.593-1.07-2.96-1.16V29.29z"/><path fill="#FFF" fill-rule="nonzero" d="M10.536 43.313H8.113v-1.598a7.422 7.422 0 0 1-1.924-.563 3.05 3.05 0 0 1-1.451-1.125l-.118-.19 1.546-1.598.197.123a5.812 5.812 0 0 0 2.773 1.052h.057c1.53 0 1.603-.613 1.631-.81.056-.45-.405-.832-1.367-1.125a15.444 15.444 0 0 1-2.947-1.164 2.999 2.999 0 0 1-1.525-3.127c.276-1.283 1.322-2.138 3.105-2.56v-1.62h2.363v1.62a4.232 4.232 0 0 1 2.885 1.232l.152.169-1.26 1.755-.225-.147c-1.317-.837-2.442-1.012-3.567-.613-.242.13-.563.355-.613.625a.9.9 0 0 0 .349.709c.305.24.647.43 1.012.562l1.423.41a5.48 5.48 0 0 1 2.498 1.491c.692.748.782 1.722.275 2.903-.489 1.012-1.445 1.687-2.852 1.991l.006 1.598zm-1.867-.563h1.304v-1.519l.225-.045c1.35-.253 2.25-.832 2.677-1.687.428-.855.354-1.688-.174-2.284a4.906 4.906 0 0 0-2.25-1.339l-1.452-.438a4.2 4.2 0 0 1-1.22-.67 1.416 1.416 0 0 1-.467-1.204c.125-.48.472-.87.934-1.051a4.246 4.246 0 0 1 3.864.511l.653-.961a4.124 4.124 0 0 0-2.61-.906h-.265V29.57H8.653v1.53l-.225.045c-1.688.36-2.655 1.063-2.891 2.16a2.45 2.45 0 0 0 1.265 2.57c.9.463 1.842.84 2.813 1.125 1.26.4 1.85.985 1.755 1.738-.107.867-.844 1.305-2.194 1.305H9.12a6.071 6.071 0 0 1-2.875-1.018l-.922.912c.304.313.672.557 1.08.714a6.97 6.97 0 0 0 2.002.562l.248.034.016 1.503z"/><path fill="#0C8A31" fill-rule="nonzero" d="M10.969 43.746h-3.29v-1.688a8.048 8.048 0 0 1-1.66-.517 3.487 3.487 0 0 1-1.653-1.272l-.304-.472 2.036-2.11.495.316a5.34 5.34 0 0 0 2.548.984h.05c.76 0 1.16-.146 1.193-.428 0-.146-.247-.405-1.068-.663a15.728 15.728 0 0 1-3.044-1.21 3.47 3.47 0 0 1-1.687-3.605c.292-1.373 1.333-2.312 3.094-2.813V28.57h3.24v1.688a4.45 4.45 0 0 1 2.778 1.327l.377.434-1.687 2.379-.563-.371c-1.153-.748-2.2-.951-3.11-.602-.35.191-.383.292-.388.31-.006.016 0 .09.224.325.26.178.54.325.833.44l1.423.41a5.899 5.899 0 0 1 2.694 1.608c.81.872.929 2.042.35 3.376a4.128 4.128 0 0 1-2.813 2.143l-.068 1.71zm-2.734-.563h2.178v-1.586l.214-.05a3.7 3.7 0 0 0 2.644-1.89c.484-1.126.405-2.065-.248-2.768a5.291 5.291 0 0 0-2.43-1.451l-1.457-.422a4.174 4.174 0 0 1-1.035-.563 1.019 1.019 0 0 1-.382-.816c.05-.337.388-.562.709-.725 1.125-.433 2.334-.214 3.645.635l.13.08 1.124-1.581-.079-.096a4.071 4.071 0 0 0-2.671-1.176h-.248v-1.642H8.213v1.608l-.208.05c-1.688.423-2.644 1.24-2.897 2.42a2.91 2.91 0 0 0 1.457 3.032c.93.471 1.904.848 2.908 1.125.383.118 1.553.49 1.457 1.265-.118.94-1.4.923-1.817.923A5.885 5.885 0 0 1 6.3 38.481l-.112-.045-1.412 1.462.062.101c.35.483.832.852 1.39 1.063a7.4 7.4 0 0 0 1.754.524l.237.039.017 1.558z"/><path fill="#FFF" fill-rule="nonzero" d="m34.842 42.244-.304-1.451a.563.563 0 0 0-.259-.383.523.523 0 0 0-.483-.034l-.113.034-.343.079c-.175 0-.343.05-.523.067a2.847 2.847 0 0 1-.32 0 3.074 3.074 0 0 1-1.778-.562 3.257 3.257 0 0 1-1.018-1.181h2.924a.558.558 0 0 0 .54-.462l.209-1.03a.561.561 0 0 0-.546-.691h-3.707v-.4h3.938c.282.02.53-.185.562-.466l.208-1.04a.567.567 0 0 0-.107-.457.51.51 0 0 0-.444-.23h-3.6a3.257 3.257 0 0 1 1.007-1.125 3.15 3.15 0 0 1 1.789-.563l.478.034.641.107c.152.054.32.035.456-.05a.566.566 0 0 0 .247-.344l.371-1.468a.6.6 0 0 0-.061-.433.68.68 0 0 0-.338-.259 6.887 6.887 0 0 0-1.75-.22 5.87 5.87 0 0 0-3.639 1.233 6.19 6.19 0 0 0-2.137 3.037h-.636a.56.56 0 0 0-.41.175.56.56 0 0 0-.158.399v1.035c0 .31.252.563.563.563h.28v.399h-.28a.56.56 0 0 0-.4.169.56.56 0 0 0-.163.405v1.119a.57.57 0 0 0 .157.394.564.564 0 0 0 .405.18h.608a6.153 6.153 0 0 0 2.098 3.155 5.8 5.8 0 0 0 3.713 1.26c.225 0 .45 0 .68-.039l.298-.045c.17 0 .332-.056.495-.096.075-.013.148-.032.22-.056l.107-.034.118-.039h.056a.563.563 0 0 0 .349-.658v-.028z"/><path fill="#0C8A31" fill-rule="nonzero" d="M32.519 43.661a6.278 6.278 0 0 1-3.988-1.35 6.603 6.603 0 0 1-2.144-3.065h-.292a.985.985 0 0 1-.715-.315 1.009 1.009 0 0 1-.28-.698v-1.035c0-.262.1-.514.28-.703l.074-.067-.08-.074a1.032 1.032 0 0 1-.275-.708v-1.041a1.005 1.005 0 0 1 .276-.703.985.985 0 0 1 .714-.31h.349a6.594 6.594 0 0 1 2.183-2.947 6.223 6.223 0 0 1 3.903-1.316 7.052 7.052 0 0 1 1.868.236 1 1 0 0 1 .703 1.22l-.366 1.446a.965.965 0 0 1-.444.625.924.924 0 0 1-.782.107l-.563-.102-.438-.028h-.045c-.534 0-1.055.16-1.496.461a2.824 2.824 0 0 0-.372.298h2.717a1.02 1.02 0 0 1 .979 1.21l-.203 1.035a.976.976 0 0 1-.511.726l.044.056c.168.236.23.531.175.815l-.203 1.013a1.006 1.006 0 0 1-.962.799h-2.098c.137.145.288.277.45.393.45.329.995.503 1.553.495h.253c.158 0 .315-.022.473-.067l.163-.034.202-.045a.98.98 0 0 1 .889.062 1 1 0 0 1 .456.658l.303 1.446a.994.994 0 0 1-.095.703 1.058 1.058 0 0 1-.563.484l-.163.05h-.068l-.27.068c-.174.04-.343.073-.517.101l-.315.045c-.27.04-.517.05-.76.056zm-5.93-4.978h.209l.062.197a6.037 6.037 0 0 0 2.02 2.987 5.727 5.727 0 0 0 3.633 1.232c.225 0 .45 0 .675-.04l.293-.045c.163 0 .326-.056.489-.09l.202-.056.118-.034.096-.033c.124-.03.23-.11.293-.22a.437.437 0 0 0 .039-.315l-.304-1.457a.428.428 0 0 0-.197-.292.393.393 0 0 0-.365 0l-.287.079-.208.045c-.175 0-.349.056-.523.067-.175.011-.225 0-.338 0a3.167 3.167 0 0 1-1.85-.602 3.389 3.389 0 0 1-.917-.984l-.265-.428h3.162a.437.437 0 0 0 .421-.365l.208-1.024a.473.473 0 0 0-.073-.371.444.444 0 0 0-.348-.175h-3.825v-.658h4.078c.22.01.41-.152.433-.371l.202-1.04a.43.43 0 0 0-.084-.36.417.417 0 0 0-.343-.175h-3.864l.298-.439c.236-.349.535-.65.883-.888a3.311 3.311 0 0 1 1.873-.563l1.125.14c.116.053.25.053.366 0 .1-.06.168-.16.19-.275l.372-1.457a.442.442 0 0 0-.309-.562 6.708 6.708 0 0 0-1.772-.214c-1.269 0-2.502.42-3.505 1.198a6.108 6.108 0 0 0-2.064 2.88l-.067.186h-.72a.38.38 0 0 0-.316.135.446.446 0 0 0-.123.315v1.046c0 .117.044.23.123.315a.453.453 0 0 0 .31.135h.41v.647h-.41a.419.419 0 0 0-.304.135.447.447 0 0 0-.13.315v1.046a.45.45 0 0 0 .125.31c.079.087.19.138.309.14h.495v-.017z"/><path fill="#FFF" fill-rule="nonzero" d="M46.126 30.054a.562.562 0 0 0-.473-.292h-1.62a.53.53 0 0 0-.506.354l-1.626 3.938-.225.562a8.8 8.8 0 0 0-.225-.528l-1.834-3.972a.562.562 0 0 0-.495-.326h-1.648a.563.563 0 0 0-.495.31.619.619 0 0 0 0 .562l2.52 4.984h-1.355a.52.52 0 0 0-.4.18.57.57 0 0 0-.152.399v.973a.569.569 0 0 0 .152.4c.109.104.25.167.4.18h2.165v.224h-2.165a.569.569 0 0 0-.552.585v.957c-.005.15.05.295.152.405.103.108.245.17.394.174h2.171v2.813a.563.563 0 0 0 .158.405.53.53 0 0 0 .393.18h1.469a.529.529 0 0 0 .399-.186.61.61 0 0 0 .152-.4v-2.812h2.182c.15.002.293-.06.394-.169a.565.565 0 0 0 .158-.41v-.957a.56.56 0 0 0-.147-.393.525.525 0 0 0-.405-.186H42.88v-.23h2.182a.564.564 0 0 0 .394-.175.564.564 0 0 0 .158-.405v-1.012a.563.563 0 0 0-.147-.4.527.527 0 0 0-.405-.185H43.69l2.435-4.995a.598.598 0 0 0 0-.552z"/><path fill="#0C8A31" fill-rule="nonzero" d="M42.329 43.875h-1.463a.995.995 0 0 1-.714-.304 1.018 1.018 0 0 1-.276-.714V40.5h-1.732a.984.984 0 0 1-.71-.304.992.992 0 0 1-.28-.714v-.956a1.01 1.01 0 0 1 .27-.698.983.983 0 0 1-.27-.703v-.945a.984.984 0 0 1 .27-.692.948.948 0 0 1 .72-.326h.669l-2.25-4.36a1.081 1.081 0 0 1 0-.939.982.982 0 0 1 .872-.562h1.654a.984.984 0 0 1 .894.562l1.648 3.566 1.457-3.51a.952.952 0 0 1 .917-.63h1.62a.97.97 0 0 1 .855.512c.163.291.175.643.034.945l-2.155 4.377h.67a.98.98 0 0 1 .725.326 1 1 0 0 1 .265.692v.973c.003.256-.091.503-.265.692.173.19.268.44.265.697v.956a.996.996 0 0 1-.282.715.97.97 0 0 1-.703.303h-1.721v2.357c0 .258-.096.507-.27.698a.967.967 0 0 1-.714.343zm-4.185-3.938h2.295v2.92a.43.43 0 0 0 .427.456h1.463a.418.418 0 0 0 .303-.136.48.48 0 0 0 .124-.314v-2.925h2.306a.438.438 0 0 0 .428-.45v-.945a.451.451 0 0 0-.293-.434l-.686-.264.692-.264a.445.445 0 0 0 .287-.428v-.973a.469.469 0 0 0-.118-.315.419.419 0 0 0-.31-.14h-1.575l2.548-5.17a.462.462 0 0 0 0-.439.415.415 0 0 0-.365-.225h-1.637a.406.406 0 0 0-.388.265l-1.958 4.77-.348-.81-1.829-3.972a.427.427 0 0 0-.388-.253h-1.653a.416.416 0 0 0-.366.22.508.508 0 0 0 0 .45l2.616 5.163h-1.576a.4.4 0 0 0-.304.141.446.446 0 0 0-.124.315v.973a.446.446 0 0 0 .293.428l.686.264-.686.264a.469.469 0 0 0-.293.428v.962a.46.46 0 0 0 .124.326.42.42 0 0 0 .304.13v-.018z"/></g></svg>