<svg xmlns="http://www.w3.org/2000/svg" width="73" height="72" viewBox="0 0 73 72">
    <g fill="none">
        <path fill="#000" d="M56.98 14.748V3.402c.036-.023.06-.05.085-.05 1.812.023 3.633-.067 5.43.1 2.905.268 4.969 2.64 4.993 5.527.028 2.9-2.01 5.31-4.913 5.653-1.31.156-2.648.086-3.974.113-.529.012-1.055.003-1.622.003zm2.535-2.317c.825 0 1.61.051 2.386-.01 1.648-.13 2.793-1.349 2.929-3.039.14-1.739-.79-3.255-2.37-3.593-.942-.201-1.942-.144-2.945-.205v6.847zM41.959 3.357h2.513v.45c0 2.026.016 4.053-.01 6.082-.002.598-.077 1.194-.221 1.774-.505 1.924-1.97 3.097-4.045 3.224-.725.054-1.453.015-2.168-.117-1.97-.392-3.23-1.834-3.411-3.869-.086-.935-.072-1.884-.079-2.82-.011-1.555 0-3.11 0-4.7h2.54v.437c0 1.984-.004 3.967.006 5.95-.002.357.035.712.108 1.06.222.997.912 1.61 1.919 1.749 1.083.149 2.062-.224 2.457-1.07.235-.517.363-1.075.376-1.642.044-1.998.017-3.996.017-5.997l-.002-.511zM47.456 11.29c.856.695 1.75 1.241 2.826 1.337.508.034 1.018-.006 1.513-.12.417-.086.672-.42.697-.872.026-.451-.212-.751-.595-.902-.594-.233-1.21-.414-1.816-.617-.606-.202-1.228-.367-1.819-.61-1.113-.456-1.75-1.284-1.828-2.51-.086-1.327.342-2.427 1.501-3.144 1.427-.885 2.962-.797 4.505-.38.818.223 1.576.625 2.218 1.18l-1.285 1.867c-.408-.225-.79-.463-1.2-.652-.732-.343-1.492-.568-2.316-.389-.544.117-.88.437-.926.875-.047.437.162.796.704 1.002.623.237 1.274.402 1.91.608.514.167 1.036.317 1.53.534 1.27.556 1.964 1.498 1.924 2.936-.041 1.422-.659 2.473-1.966 3.04-1.605.695-3.232.535-4.836-.038-.827-.298-1.585-.76-2.228-1.36.497-.6.98-1.176 1.487-1.785zM23.343 3.426c1.958 0 3.885-.075 5.803.028 1.21.064 2.218.673 2.629 1.926.41 1.254-.08 2.53-1.2 3.232l-.368.232c.336.157.647.287.942.444 1.9 1.005 1.728 3.612.227 4.658-.65.453-1.381.733-2.154.749-1.95.044-3.904.015-5.885.015l.006-11.284zm1.327 6.11v3.998c1.496 0 2.952.04 4.404-.024.47-.02.982-.234 1.38-.502 1.114-.742.998-2.384-.183-3.008-.296-.157-.64-.295-.967-.311-1.535-.078-3.072-.107-4.634-.153zm-.01-4.925v3.77c1.339 0 2.646 0 3.952-.007.17-.014.338-.052.498-.114.992-.308 1.524-1.032 1.469-1.989-.049-.848-.627-1.555-1.634-1.627-1.41-.112-2.835-.033-4.285-.033z" transform="translate(2.25 27)"/>
        <path fill="#F0B90B" stroke="#F0B90B" stroke-width=".5" d="M9.064.038L11.3 2.328 5.669 7.96 3.433 5.723zM12.459 3.433L14.695 5.723 5.669 14.749 3.433 12.513zM2.274 6.828L4.51 9.118 2.274 11.355.038 9.118zM15.854 6.828L18.09 9.118 9.064 18.144 6.827 15.908z" transform="translate(2.25 27)"/>
    </g>
</svg>
