<svg width="96" height="60" viewBox="0 0 96 60" fill="none" xmlns="http://www.w3.org/2000/svg">
<path fill-rule="evenodd" clip-rule="evenodd" d="M6.70746 7.98387C5.35356 7.98387 4.24705 9.06104 4.24705 10.379V49.621C4.24705 50.939 5.35356 52.0161 6.70746 52.0161H89.2925C90.6494 52.0161 91.7529 50.9603 91.7529 49.6452V10.379C91.7529 9.06104 90.6464 7.98387 89.2925 7.98387H6.70746ZM3.75 10.379C3.75 8.7938 5.07904 7.5 6.70746 7.5H89.2925C90.921 7.5 92.25 8.7938 92.25 10.379V49.6452C92.25 51.2333 90.918 52.5 89.2925 52.5H6.70746C5.07905 52.5 3.75 51.2062 3.75 49.621V10.379Z" fill="#F9C32F"/>
<path d="M38.2453 26.7339V29.129H36.6299V21.7742H39.7613C40.656 21.7742 41.3767 21.9919 41.8986 22.4516C42.4206 22.9113 42.6939 23.4919 42.6939 24.2661C42.6939 25.0161 42.4206 25.621 41.9235 26.0806C41.4016 26.5403 40.6809 26.7581 39.7862 26.7581H38.2453V26.7339ZM38.2453 23.0081V25.5H39.5625C40.5318 25.5 41.0288 24.9677 41.0288 24.2661C41.0288 23.5645 40.5566 23.0323 39.5874 23.0323H38.2453V23.0081Z" fill="#001BA9"/>
<path d="M47.1425 29.1291V28.2824C46.72 28.9356 46.0987 29.2743 45.3283 29.2743C44.6324 29.2743 44.0359 29.0082 43.5389 28.5001C43.0667 27.992 42.8182 27.363 42.8182 26.5888C42.8182 25.8388 43.0667 25.2098 43.5389 24.7017C44.0111 24.1936 44.6076 23.9275 45.3283 23.9275C46.0987 23.9275 46.72 24.242 47.1425 24.9194V24.0727H48.6088V29.1049H47.1425V29.1291ZM44.707 27.6291C44.9803 27.8953 45.3034 28.0162 45.7011 28.0162C46.3224 28.0162 46.894 27.6533 47.1425 27.1936V26.0565C46.8691 25.5727 46.3224 25.234 45.7011 25.234C45.3034 25.234 44.9803 25.3791 44.707 25.6453C44.4336 25.9114 44.3093 26.2259 44.3093 26.6372C44.3093 27.0001 44.4336 27.363 44.707 27.6291Z" fill="#001BA9"/>
<path d="M52.9084 29.8065C52.7096 30.6774 52.1628 31.0887 51.1936 31.0887H50.1746L49.9012 30H51.0445C51.3924 30 51.5912 29.8549 51.6658 29.5887L51.8149 29.0807H50.3983L49.1308 24.0968H50.6468L51.467 27.992H52.0137L52.8339 24.0968H54.3747L52.9084 29.8065Z" fill="#001BA9"/>
<path d="M41.0537 38.1775L39.9104 35.5646H38.2453V38.1775H36.6299V30.8227H39.985C40.8548 30.8227 41.5507 31.0404 42.0478 31.5001C42.5448 31.9356 42.7933 32.5162 42.7933 33.242C42.7933 34.1856 42.3211 34.9114 41.4513 35.2985L42.7685 38.2017H41.0537V38.1775ZM38.2453 32.0565V34.4517H39.6868C40.656 34.4517 41.1034 33.9436 41.1034 33.2662C41.1034 32.5888 40.656 32.0807 39.7116 32.0807H38.2453V32.0565Z" fill="#001BA9"/>
<path d="M48.6834 36.4114C48.5343 36.992 48.2112 37.4517 47.7142 37.8146C47.2171 38.1533 46.6455 38.3226 45.9745 38.3226C45.1544 38.3226 44.4585 38.0565 43.9366 37.5485C43.3898 37.0404 43.1164 36.3872 43.1164 35.613C43.1164 34.8872 43.3898 34.2581 43.9366 33.7501C44.4833 33.242 45.1544 32.9759 45.9496 32.9759C46.8195 32.9759 47.4905 33.2662 47.9875 33.8227C48.4846 34.3791 48.7331 35.0565 48.7331 35.8307H44.4336C44.533 36.6533 45.1295 37.1372 45.9745 37.1372C46.571 37.1372 47.1177 36.871 47.3414 36.4114H48.6834ZM44.5579 35.0565H47.3165C47.1426 34.4759 46.6704 34.113 45.9745 34.113C45.2786 34.113 44.7567 34.4759 44.5579 35.0565Z" fill="#001BA9"/>
<path d="M52.3367 34.2339H51.3923V38.1774H49.8763V34.2339H48.9319V33.121H49.8763V31.7178H51.3923V33.121H52.3367V34.2339Z" fill="#001BA9"/>
<path d="M56.8599 38.1775V37.3307C56.4374 37.9839 55.8161 38.3226 55.0457 38.3226C54.3498 38.3226 53.7533 38.0565 53.2563 37.5485C52.7841 37.0404 52.5355 36.4114 52.5355 35.6372C52.5355 34.8872 52.7841 34.2581 53.2563 33.7501C53.7285 33.242 54.3249 32.9759 55.0457 32.9759C55.8161 32.9759 56.4374 33.2904 56.8599 33.9678V33.121H58.3262V38.1533H56.8599V38.1775ZM54.4243 36.6533C54.6977 36.9194 55.0208 37.0404 55.4184 37.0404C56.0398 37.0404 56.6114 36.6775 56.8599 36.2178V35.0807C56.5865 34.5968 56.0398 34.2581 55.4184 34.2581C55.0208 34.2581 54.6977 34.4033 54.4243 34.6694C54.151 34.9356 54.0267 35.2501 54.0267 35.6614C54.0019 36.0485 54.151 36.3872 54.4243 36.6533Z" fill="#001BA9"/>
<path d="M60.8364 32.2501H59.3204V30.7985H60.8364V32.2501ZM60.8364 38.1775H59.3204V33.1452H60.8364V38.1775Z" fill="#001BA9"/>
<path d="M63.3216 30.8227H61.8056V38.1775H63.3216V30.8227Z" fill="#001BA9"/>
<path d="M69.6341 36.4114C69.485 36.992 69.1619 37.4517 68.6648 37.8146C68.1678 38.1533 67.5962 38.3226 66.9252 38.3226C66.105 38.3226 65.4092 38.0565 64.8873 37.5485C64.3405 37.0404 64.0671 36.3872 64.0671 35.613C64.0671 34.8872 64.3405 34.2581 64.8873 33.7501C65.434 33.242 66.105 32.9759 66.9003 32.9759C67.7701 32.9759 68.4412 33.2662 68.9382 33.8227C69.4353 34.3791 69.6838 35.0565 69.6838 35.8307H65.3843C65.4837 36.6533 66.0802 37.1372 66.9252 37.1372C67.5216 37.1372 68.0684 36.871 68.2921 36.4114H69.6341ZM65.4837 35.0565H68.2672C68.0932 34.4759 67.621 34.113 66.9252 34.113C66.2293 34.113 65.6825 34.4759 65.4837 35.0565Z" fill="#001BA9"/>
<path d="M73.7099 34.5484C73.0141 34.5484 72.2933 34.7903 71.9454 35.0565V38.1774H70.4294V33.1452H71.9454V33.9677C72.3928 33.3387 72.9892 33.0242 73.7099 33.0242V34.5484Z" fill="#001BA9"/>
<path d="M74.1573 38.1775V37.0404H76.4437C76.9657 37.0404 77.2142 36.8711 77.2142 36.5082C77.2142 36.1694 76.9657 36.0001 76.4437 36.0001H75.7727C74.7289 36.0001 74.0579 35.4194 74.0579 34.5485C74.0579 34.1372 74.2319 33.7985 74.5549 33.5324C74.878 33.2662 75.3005 33.1211 75.7976 33.1211H78.3077V34.2582H75.9715C75.6733 34.2582 75.4993 34.4033 75.4993 34.6211C75.4993 34.863 75.6485 34.984 75.9715 34.984H76.6923C77.9349 34.984 78.5811 35.6372 78.5811 36.5324C78.5811 37.4759 77.8603 38.1775 76.6426 38.1775H74.1573Z" fill="#001BA9"/>
<path d="M24.1539 21.7017H17.394V38.1049H20.0781V24.121H24.1291C28.5528 24.121 28.5777 30.6775 24.1291 30.6775L23.3338 30.6533L25.629 32.9396C32.3305 32.4194 32.1565 21.7017 24.1539 21.7017Z" fill="#001BA9"/>
<path d="M30.8144 38.1049L23.3338 30.6533L21.1468 32.8065L26.5647 38.1049H30.8144Z" fill="#F9C32F"/>
</svg>
