<svg xmlns="http://www.w3.org/2000/svg" width="72" height="72" viewBox="0 0 72 72">
    <g fill="none" fill-rule="evenodd">
        <g fill="#5B69F2" fill-rule="nonzero">
            <g>
                <g>
                    <g>
                        <g>
                            <g>
                                <path
                                    d="M23.223 10.848h-1.772l-.71-1.831h-3.19l-.65 1.831h-1.713l3.131-8.036h1.714l3.19 8.036zm-3.013-3.25l-1.064-3.013-1.063 3.013h2.127zM25.275 10.848L25.275 2.813 27.18 2.813 30.573 8.091 30.573 2.813 32.239 2.813 32.239 10.79 30.454 10.79 26.942 5.217 26.942 10.79 25.275 10.79zM61.875 10.848L61.875 2.813 63.641 2.813 63.641 9.253 67.5 9.253 67.5 10.789 61.875 10.789zM35.7 6.443h.734c.564 0 .902-.06 1.071-.119.17-.06.339-.238.451-.416.113-.179.17-.417.17-.655 0-.298-.057-.536-.226-.714-.17-.179-.338-.298-.564-.357-.169-.06-.507-.06-.958-.06H35.7v2.321zm0 1.31v3.095h-1.409V2.812h3.045c1.297 0 2.312 1.072 2.312 2.441 0 1.369-1.015 2.44-2.312 2.44l-1.635.06zM43.2 6.83c0-1.377 1.139-2.525 2.518-2.525 1.38 0 2.519 1.148 2.519 2.525 0 1.378-1.14 2.526-2.52 2.526-1.378 0-2.518-1.148-2.518-2.526zm2.518 4.018c2.219 0 4.018-1.78 4.018-4.018 0-2.238-1.8-4.018-4.018-4.018-2.219 0-4.018 1.78-4.018 4.018 0 2.239 1.799 4.018 4.018 4.018zM53.287 6.83c0-1.377 1.14-2.525 2.518-2.525 1.38 0 2.519 1.148 2.519 2.525 0 1.378-1.14 2.526-2.519 2.526-1.379 0-2.518-1.148-2.518-2.526zm2.518 4.018c2.22 0 4.018-1.78 4.018-4.018 0-2.238-1.799-4.018-4.018-4.018-2.218 0-4.017 1.78-4.017 4.018 0 2.239 1.799 4.018 4.017 4.018z"
                                    transform="translate(-184 -1230) translate(120 864) translate(48 82) translate(0 272) translate(16 12) translate(2.25 29.25)" />
                                <g>
                                    <path
                                        d="M12.288 14.063h-3.36c-.341 0-.683-.175-.854-.465L.104.988C-.182.523.16 0 .672 0h3.53c.284 0 .512.116.626.349L12.8 13.017c.342.464 0 1.046-.512 1.046z"
                                        transform="translate(-184 -1230) translate(120 864) translate(48 82) translate(0 272) translate(16 12) translate(2.25 29.25)" />
                                    <path
                                        d="M.65 14.063h3.36c.34 0 .682-.175.853-.465L12.834.988C13.12.523 12.777 0 12.264 0h-3.53c-.284 0-.512.116-.625.349L.138 13.017c-.342.464 0 1.046.512 1.046z"
                                        transform="translate(-184 -1230) translate(120 864) translate(48 82) translate(0 272) translate(16 12) translate(2.25 29.25)" />
                                </g>
                            </g>
                        </g>
                    </g>
                </g>
            </g>
        </g>
    </g>
</svg>