<svg width="119" height="51" viewBox="0 0 119 51" fill="none" xmlns="http://www.w3.org/2000/svg">
<rect width="118.011" height="50.7267" rx="10" fill="white"/>
<path fill-rule="evenodd" clip-rule="evenodd" d="M0 9.0983C0 4.07625 4.10289 0 9.15158 0H108.86C113.909 0 118.011 4.07625 118.011 9.0983V41.6284C118.011 46.6504 113.922 50.7267 108.86 50.7267H9.15158C4.10289 50.74 0 46.6637 0 41.6417V9.0983ZM3.75635 9.41796V41.3353C3.75635 44.479 6.314 47.0234 9.47109 47.0234H61.7031V3.72986H9.47109C6.314 3.72986 3.75635 6.27418 3.75635 9.41796ZM72.5457 28.3642C74.2109 28.3642 75.2099 26.9788 75.2099 24.9407C75.2099 23.2489 74.2508 21.7836 72.5457 21.7703C70.9339 21.7703 69.8549 23.1956 69.8549 25.1005C69.8549 26.9655 71.0804 28.3642 72.5457 28.3642ZM69.8415 36.5966H65.4323H65.4189V18.7064H69.4819V21.011H69.5352C70.4277 19.2259 72.2793 18.4133 74.2908 18.4133C77.8209 18.4133 79.7524 21.7569 79.7524 24.8474C79.7524 28.6173 77.7276 31.7477 73.9311 31.7477C72.3992 31.7477 70.7341 31.1883 69.8948 29.6697H69.8415V36.5966ZM88.4378 25.7133C86.9458 25.7133 85.7736 26.1795 85.7736 27.4051C85.7736 28.2976 86.5595 28.8038 87.5852 28.7905C89.2504 28.7905 90.3027 27.2719 90.3027 25.7799C90.1869 25.7745 90.0688 25.7686 89.9487 25.7625C89.475 25.7387 88.9691 25.7133 88.4378 25.7133ZM94.6694 31.4414C94.6703 31.4458 94.6712 31.4502 94.672 31.4547V31.4414H94.6694ZM94.4323 28.4441C94.4323 29.4388 94.4719 30.4466 94.6694 31.4414H90.6491C90.6388 31.1738 90.6225 30.9122 90.6065 30.6535C90.5809 30.2425 90.5558 29.8387 90.5558 29.4299H90.5025C89.5035 31.0284 88.2779 31.7344 86.4662 31.7344C83.9486 31.7344 81.6973 30.4956 81.6973 27.7248C81.6973 23.835 85.9334 23.3688 88.2779 23.3688C88.9839 23.3688 89.7699 23.4487 90.3294 23.542C90.3027 21.7969 88.9973 21.3307 87.412 21.3307C85.9867 21.3307 84.5747 21.5971 83.3491 22.2898L83.2692 19.3059C84.8278 18.6664 86.4796 18.4 88.3578 18.4C91.6215 18.4 94.4323 19.7987 94.4323 23.6885V28.4441ZM99.3877 36.8897C98.4552 36.8897 97.5494 36.7964 96.6436 36.5966L96.95 33.253C97.5494 33.4395 98.0822 33.5195 98.695 33.5195C99.774 33.5195 100.6 32.8934 100.92 31.7611L95.7511 18.7064H100.493L103.238 27.0321H103.277L105.902 18.7064H110.311L105.635 30.5755C105.563 30.7599 105.492 30.944 105.421 31.1272C104.262 34.1217 103.191 36.8897 99.3877 36.8897Z" fill="#000268"/>
<path d="M14.5215 25.1894C14.5215 23.4444 15.374 22.0057 17.0259 22.0057C19.0107 22.0057 19.8366 23.5909 19.8366 25.0163C19.8366 26.9745 18.5844 28.2933 17.0259 28.2933C15.6937 28.2933 14.5215 27.1743 14.5215 25.1894ZM24.0993 18.9152H20.103V21.2198H20.0631C19.1306 19.6479 17.612 18.6221 15.7337 18.6221C11.764 18.6221 9.979 21.4595 9.979 25.256C9.979 29.0259 12.1637 31.6768 15.6538 31.6768C17.4255 31.6768 18.8908 30.9841 19.9432 29.4921H19.9965V30.1848C19.9965 32.6759 18.6244 33.8748 16.0801 33.8748C14.2417 33.8748 13.1095 33.4885 11.764 32.8224L11.5376 36.2992C12.5633 36.6722 14.3084 37.1118 16.4131 37.1118C21.555 37.1118 24.0993 35.42 24.0993 30.1848V18.9152ZM31.5458 13.6001H27.1366V16.8371H31.5458V13.6001ZM27.1366 31.6768H31.5458V18.9152H27.1366V31.6768ZM43.8145 18.7687C43.375 18.7021 42.8288 18.6221 42.3226 18.6221C40.4177 18.6221 39.312 19.6479 38.5527 21.273H38.4994V18.9285H34.4898V31.6901H38.8991V26.3084C38.8991 23.804 40.058 22.3121 42.1095 22.3121C42.629 22.3121 43.1085 22.3121 43.6014 22.4586L43.8145 18.7687ZM51.4076 28.8794C49.3694 28.8794 48.5435 27.1876 48.5435 25.3093C48.5435 23.4044 49.3694 21.7126 51.4076 21.7126C53.4457 21.7126 54.2716 23.4044 54.2716 25.3093C54.2716 27.1876 53.4324 28.8794 51.4076 28.8794ZM51.4076 31.9699C55.617 31.9699 58.8274 29.5188 58.8274 25.3093C58.8274 21.0732 55.617 18.6221 51.4076 18.6221C47.1981 18.6221 43.9877 21.0732 43.9877 25.3093C43.9877 29.5188 47.1848 31.9699 51.4076 31.9699Z" fill="#FF0007"/>
</svg>
