<svg xmlns="http://www.w3.org/2000/svg" width="72" height="73" viewBox="0 0 72 73">
    <g fill="none" fill-rule="evenodd">
        <g>
            <g>
                <g>
                    <g>
                        <g>
                            <g>
                                <path d="M0 0H72V72H0z" transform="translate(-184 -1979) translate(-238 528) translate(358 896) translate(48 80) translate(0 464) translate(16 12)"/>
                                <g>
                                    <path fill="#000" d="M3.047.332H0v10.604h3.007c1.623 0 2.77-.356 3.8-1.226 1.186-.99 1.938-2.493 1.938-4.076C8.745 2.508 6.41.332 3.047.332zM5.46 8.325c-.673.554-1.504.83-2.85.83h-.553V2.153h.554c1.345 0 2.136.237 2.849.83.712.634 1.147 1.623 1.147 2.652 0 1.029-.435 2.058-1.147 2.69zm4.234 2.612h2.057V.332H9.695v10.605zm7.122-6.53c-1.266-.474-1.622-.751-1.622-1.345 0-.672.672-1.147 1.543-1.147.633 0 1.147.237 1.662.83l1.108-1.384C18.598.569 17.529.174 16.382.174c-1.9 0-3.324 1.306-3.324 3.047 0 1.464.673 2.176 2.612 2.888.831.277 1.227.475 1.424.594.435.277.633.672.633 1.108 0 .87-.672 1.503-1.622 1.503-.95 0-1.78-.514-2.256-1.424l-1.305 1.306c.95 1.384 2.097 2.018 3.68 2.018 2.136 0 3.64-1.425 3.64-3.482 0-1.702-.712-2.454-3.047-3.325zm3.68 1.227c0 3.126 2.454 5.54 5.619 5.54.87 0 1.662-.159 2.572-.594V8.126c-.831.831-1.543 1.188-2.493 1.188-2.058 0-3.561-1.544-3.561-3.68 0-2.018 1.543-3.64 3.482-3.64.99 0 1.74.355 2.572 1.186V.766c-.87-.475-1.622-.672-2.533-.672-3.126 0-5.658 2.493-5.658 5.54z" transform="translate(-184 -1979) translate(-238 528) translate(358 896) translate(48 80) translate(0 464) translate(16 12) translate(2.25 30.375)"/>
                                    <path fill="#DB8135" d="M35.138.094c-3.126 0-5.659 2.454-5.659 5.46 0 3.246 2.414 5.62 5.659 5.62 3.165 0 5.658-2.414 5.658-5.54 0-3.086-2.453-5.54-5.658-5.54z" transform="translate(-184 -1979) translate(-238 528) translate(358 896) translate(48 80) translate(0 464) translate(16 12) translate(2.25 30.375)"/>
                                    <path fill="#000" d="M45.465 7.454L42.655.332h-2.294l4.51 10.881h1.109L50.57.332h-2.256l-2.849 7.122zm6.055 3.483h5.856V9.156h-3.799v-2.85h3.64v-1.82h-3.64V2.153h3.8V.332H51.52v10.605zm14.047-7.48c0-1.978-1.346-3.125-3.759-3.125h-3.047v10.604h2.057V6.702h.277l2.85 4.234h2.532l-3.324-4.471c1.543-.316 2.414-1.385 2.414-3.007zM61.412 5.24h-.594V1.994h.633c1.306 0 1.978.554 1.978 1.583 0 1.068-.671 1.662-2.017 1.662zm5.364-3.967c0 .082-.056.125-.169.125h-.038v-.243h.041c.112 0 .166.038.166.118zm.331.643l-.308-.387c.132-.033.208-.13.208-.261 0-.183-.129-.287-.357-.287h-.298v.935h.22v-.362l.263.362h.272zm.393-.47c0-.445-.363-.813-.804-.813h-.005c-.445 0-.81.366-.81.81v.004c0 .454.364.815.815.815.441 0 .804-.368.804-.815zm-.164.003c0 .367-.288.667-.643.667-.358 0-.651-.299-.651-.667 0-.372.29-.668.65-.668.356 0 .644.3.644.668z" transform="translate(-184 -1979) translate(-238 528) translate(358 896) translate(48 80) translate(0 464) translate(16 12) translate(2.25 30.375)"/>
                                </g>
                            </g>
                        </g>
                    </g>
                </g>
            </g>
        </g>
    </g>
</svg>
