<svg xmlns="http://www.w3.org/2000/svg" width="73" height="72" viewBox="0 0 73 72">
    <defs>
        <linearGradient id="8kmmsu2tba" x1="35.905%" x2="84.416%" y1="62.716%" y2="18.901%">
            <stop offset="0%" stop-color="#15BCFF"/>
            <stop offset="49%" stop-color="#3073EC"/>
            <stop offset="100%" stop-color="#B030EC"/>
        </linearGradient>
    </defs>
    <g fill="none" fill-rule="evenodd">
        <path fill="url(#8kmmsu2tba)" d="M0 10.083c0 5.57 4.509 10.083 10.07 10.083 1.375.002 2.736-.279 3.998-.825-.486-.05-.97-.125-1.448-.225-1.068-.23-2.046-.581-2.936-1.052-1.852-.984-3.155-2.422-3.908-4.316h-3.36l1.021-2.417H5.18c-.061-.473-.093-.95-.095-1.428 0-.46.016-.873.047-1.24H2.417l1.02-2.402H5.62c.69-2.029 1.972-3.593 3.846-4.692.978-.576 2.041-.996 3.15-1.244C11.783.108 10.928-.001 10.07 0 4.51 0 0 4.515 0 10.083zm16.012-8.142c-3.095.398-6.175 1.682-7.32 4.321h9.327l-1.036 2.402H8.1c-.042.356-.063.79-.063 1.303 0 .512.042.967.126 1.364h7.597l-1.036 2.417H9.119c1.272 2.1 4.517 3.464 7.913 3.621 1.989-1.9 3.113-4.534 3.109-7.286 0-3.344-1.626-6.307-4.13-8.142z" transform="translate(7.875 25.875)"/>
        <path fill="#00233A" fill-rule="nonzero" d="M52.594 5.883c1.23-.024 2.636.14 3.316.34v1.289c-.75-.07-2.45-.117-2.87-.117-.716-.012-1.126.035-1.126.832v.421c0 .68.258.82.914.82h1.36c1.687 0 2.027 1.325 2.027 2.274v.574c0 1.946-1.207 2.309-2.367 2.309-1.465 0-2.426-.094-3.317-.352v-1.289c.469.047 1.899.13 2.989.13l.059-.001c.477-.007.995-.108.995-.738v-.457c0-.492-.14-.809-.773-.809h-1.313c-2.074 0-2.215-1.523-2.215-2.273v-.738c0-1.7 1.008-2.192 2.32-2.215zm-17.895.07v4.828c0 1.957.434 2.297 1.664 2.297 1.09 0 1.594-.398 1.594-2.297V5.953h1.652v4.828c0 3.672-1.72 3.804-3.118 3.809h-.455c-1.492-.006-2.977-.172-2.977-3.809V5.953h1.64zm-7.768 0c.216.006 3.04.086 3.76.188V7.5h-3.386c-.557 0-.605.283-.61.573v1.42l3.47.116v1.36l-3.47.105v1.336c0 .538.29.601.59.609h3.406v1.348c-.668.094-3.656.2-3.656.2-.762.035-1.98-.141-1.98-1.723v-5.11c0-1.488 1.054-1.793 1.863-1.78zm18.667 0c1.347 0 2.343.621 2.343 2.672 0 2.121-.89 2.379-1.37 2.531l1.628 3.375h-1.851l-1.418-3.246-1.442-.164v3.41h-1.64V5.953zm-.153 1.453H43.5v2.426h1.945c.563 0 .844-.164.844-1.207 0-.973-.328-1.219-.844-1.219z" transform="translate(7.875 25.875)"/>
    </g>
</svg>
