<svg width="128" height="80" viewBox="0 0 128 80" fill="none" xmlns="http://www.w3.org/2000/svg">
<path d="M39.7721 51.305H43.9344V29.7426H39.7737L39.7721 51.305Z" fill="#050505"/>
<path d="M65.4446 36.2422C65.4446 32.9017 63.5484 29.742 57.6116 29.742H46.4727V51.3054H50.6335V42.8329H56.264L61.4681 51.3054H66.1794L60.58 42.2864C64.1301 41.3742 65.4446 38.763 65.4446 36.2422ZM56.8167 39.8252H50.6356V32.8401H56.8457C59.9983 32.8401 61.0685 34.3891 61.0685 36.271C61.0685 38.1857 59.9983 39.8252 56.8167 39.8252ZM66.699 33.0846H74.6252V51.3074H78.786V33.0846H86.7142V29.742H66.699V33.0846ZM37.8717 51.3054L33.6489 42.6603L37.762 40.2073L35.6527 36.8483L31.9017 39.0856L27.7927 30.6685C27.5479 30.1606 27.1632 29.7318 26.6832 29.4318C26.2078 29.1365 25.6553 28.9867 25.0947 29.0009C24.5341 29.0152 23.9901 29.1929 23.5305 29.5119C23.0827 29.8242 22.7291 30.2518 22.5079 30.7487L14.2713 47.6341L14.2526 47.6793C13.9849 48.2972 13.9281 48.985 14.0911 49.6379C14.2541 50.2907 14.6278 50.8727 15.1552 51.2951C15.6676 51.7144 16.3022 51.9595 16.9654 51.9943C17.6287 52.029 18.2857 51.8516 18.8398 51.4882L30.2188 44.7065L33.4398 51.3054H37.8717ZM19.169 46.6788L25.1721 34.3747L28.4696 41.1318L19.169 46.6788ZM88.6 29.742H94.7521L100.627 44.7764C100.933 45.7173 101.118 46.235 101.24 46.9623H101.302C101.422 46.233 101.606 45.6885 101.943 44.7764L107.787 29.742H113.999V51.3054H110.114V35.6958C110.114 34.8144 110.176 33.8735 110.267 33.0825H110.143C109.943 33.9415 109.677 34.7842 109.348 35.6033L103.167 51.3054H99.2503L93.0692 35.6054C92.7717 34.7811 92.5263 33.9392 92.3343 33.0846H92.2101C92.3033 33.8447 92.3654 34.7261 92.3654 35.6978V51.3054H88.6V29.742Z" fill="#050505"/>
</svg>
