<svg xmlns="http://www.w3.org/2000/svg" width="128" height="128"><defs><linearGradient id="a" x1="49.841%" x2="50.114%" y1="99.565%" y2="-6.853%"><stop offset="0%" stop-color="#FCF7A1"/><stop offset="20%" stop-color="#FFCA00"/><stop offset="58%" stop-color="#D21824"/><stop offset="100%" stop-color="#B31A1E"/></linearGradient><linearGradient id="b" x1="49.943%" x2="49.943%" y1="99.903%" y2="0%"><stop offset="0%" stop-color="#FCF7A1"/><stop offset="42%" stop-color="#FFCA00"/><stop offset="100%" stop-color="#F43221"/></linearGradient></defs><g fill="none" opacity=".997"><path fill="#7C0000" d="M64.24 71.08a6.705 6.705 0 0 1 1.78.56c.16.09.24.09.24-.16a.21.21 0 0 1 .24-.24h1.38c.137 0 .157.059.16.176v9.934A6.265 6.265 0 0 1 67.4 84a3.9 3.9 0 0 1-2.67 2.1 7.321 7.321 0 0 1-2.67.17c-.64 0-1.29-.25-2-.33-.16 0-.16-.16-.16-.32v-1.44c0-.24.08-.32.32-.24.828.338 1.7.557 2.59.65.598.07 1.204.015 1.78-.16A2 2 0 0 0 66 82.81c.08-.643.117-1.292.11-1.94-.25.16-.41.32-.57.4a4.311 4.311 0 0 1-4 .57 4.002 4.002 0 0 1-2-1.78 5.483 5.483 0 0 1-.56-1.94 8.795 8.795 0 0 1 0-2.51 5.08 5.08 0 0 1 1.53-3.32 4.259 4.259 0 0 1 3.73-1.21zm-10.75.08c.857.028 1.691.28 2.42.73A3 3 0 0 1 57 73.75c.067.564.094 1.132.08 1.7V82c0 .24 0 .32-.25.24h-1.4a.21.21 0 0 1-.24-.24 2.283 2.283 0 0 1-.08-.81c-.25.08-.41.32-.65.48a4.724 4.724 0 0 1-2.75 1 3 3 0 0 1-2-.57 3.284 3.284 0 0 1-1.3-1.86 3.829 3.829 0 0 1 .47-3.24 3.508 3.508 0 0 1 1.7-1.13 10.417 10.417 0 0 1 2.66-.48c.57-.09 1.14-.09 1.7-.17.08 0 .17 0 .17-.08a2.135 2.135 0 0 0-.49-1.7 1.814 1.814 0 0 0-1-.48 5.419 5.419 0 0 0-1.13-.08 8.544 8.544 0 0 0-2.84.56c-.4.17-.4.17-.4-.32v-1.31c0-.17.08-.25.24-.25a13.15 13.15 0 0 1 4-.4zm23.29.32a4.58 4.58 0 0 1 2 1.86 7.26 7.26 0 0 1 .81 4 6.695 6.695 0 0 1-.59 2.72 4.402 4.402 0 0 1-3.32 2.5 4.827 4.827 0 0 1-3.8-.8 4.76 4.76 0 0 1-1.54-2 5.585 5.585 0 0 1-.51-2.53 8.357 8.357 0 0 1 .24-2.43 5.516 5.516 0 0 1 1.21-2.35 4.451 4.451 0 0 1 2.59-1.29 5.24 5.24 0 0 1 2.91.32zm-37.45-4.45c.24 0 .33.08.24.25v14.64c0 .24-.08.32-.32.32H38c-.25 0-.25-.08-.25-.24v-.81c-.32.24-.56.48-.81.65a4.364 4.364 0 0 1-2.83.72 3.804 3.804 0 0 1-2.18-1 4.779 4.779 0 0 1-1.29-2.75 14.125 14.125 0 0 1-.17-2.67 5.584 5.584 0 0 1 1.22-3.39 4.152 4.152 0 0 1 4-1.62c.71.098 1.395.328 2.02.68v-4.45c0-.25.08-.33.33-.33h1.29zm48.62 4.29a3.089 3.089 0 0 1 1.86 2.35c.142.497.206 1.013.19 1.53v6.72c0 .24-.08.32-.32.32h-1.3c-.24 0-.24-.08-.24-.24v-5.66a10.378 10.378 0 0 0-.24-2.27 1.77 1.77 0 0 0-1.3-1.21 3.88 3.88 0 0 0-3.15 1c-.24.16-.24.32-.24.57V82c0 .24-.09.32-.33.32h-1.24c-.24 0-.33-.08-.33-.32V71.64c0-.24.09-.32.33-.32h1.21c.24 0 .33.08.33.32.062.292.09.591.08.89a5.736 5.736 0 0 1 2.58-1.37 3.76 3.76 0 0 1 2.11.16zm-44.17 0c.16 0 .24.08.16.16.058.484.078.973.06 1.46a6.652 6.652 0 0 1 2.27-1.38 3.29 3.29 0 0 1 1.54-.08c.137 0 .157.059.16.126v1.574c0 .24-.16.24-.25.24a4.12 4.12 0 0 0-3.55 1.06c-.17.08-.17.24-.17.4V82c0 .24-.08.32-.32.32h-1.27c-.17 0-.25-.08-.25-.24V71.56c0-.16 0-.24.16-.24h1.46zm28.39 2.99a6.8 6.8 0 0 0 0 5A2.55 2.55 0 0 0 74.92 81a2.68 2.68 0 0 0 2.43-1.78 6.303 6.303 0 0 0 .24-2.4 8.457 8.457 0 0 0-.32-2.43 2.68 2.68 0 0 0-2.35-1.77 2.55 2.55 0 0 0-2.75 1.69zm-17.31 2.35c-.65.041-1.299.121-1.94.24a4.871 4.871 0 0 0-1.86.57 1.84 1.84 0 0 0-.81 2.26A1.81 1.81 0 0 0 52 81a4.153 4.153 0 0 0 3-1.22c.09-.08.09-.16.09-.32l.02-1.34V76.9c0-.24 0-.32-.25-.24zm-22.08-2.27a6.919 6.919 0 0 0-.08 5.1 2 2 0 0 0 1.86 1.38 4.002 4.002 0 0 0 3-1.14c.08-.08.08-.16.08-.32.07-.97.07-1.94.07-2.91v-2.91c0-.17-.08-.25-.24-.33a5.41 5.41 0 0 0-2.18-.48 2.55 2.55 0 0 0-2.51 1.61zm28.22.09a5.998 5.998 0 0 0 0 4.44 1.92 1.92 0 0 0 2 1.38 5.071 5.071 0 0 0 2.83-.89c.17-.08.17-.24.17-.4.092-.675.107-1.406.11-2.192V73.59a.44.44 0 0 0-.25-.41A6.99 6.99 0 0 0 64 72.7a2.68 2.68 0 0 0-3 1.78z"/><path fill="#212121" d="M99.76 71.7a4 4 0 0 1 1.62 2.58 8.804 8.804 0 0 1 .24 3.24 6.425 6.425 0 0 1-1.05 3.15 4.399 4.399 0 0 1-2.92 1.86 5.713 5.713 0 0 1-3.23-.69v4.28c0 .17-.08.25-.24.25h-1.3c-.24 0-.32-.08-.32-.33V71.73c0-.25.08-.33.32-.33h1.3c.16 0 .24.08.16.16v.89c.462-.406.98-.743 1.54-1a3.74 3.74 0 0 1 3.88.25zm21.38-.4c.473.07.951.103 1.43.1-.32.73-.57 1.46-.89 2.19-1.05 2.58-2 5.25-3.07 7.84-.65 1.54-1.22 3.16-1.86 4.69-.09.08-.09.17-.25.17h-1.62c-.24 0-.24-.09-.16-.25.41-.89.81-1.86 1.22-2.75.16-.48.4-.89.56-1.37a.672.672 0 0 0-.08-.57c-.4-1-.73-2-1.13-3-.49-1.13-.89-2.35-1.29-3.48-.41-1-.81-2-1.14-3-.08-.16-.08-.33-.16-.49h1.78c.16 0 .16.08.24.24.41 1.06.73 2 1.14 3.08.56 1.45 1 2.91 1.61 4.37 0 .08.08.16.17.32l.48-1.46c.41-1 .81-2.18 1.21-3.23l1-2.67c0-.08.09-.16.09-.24 0-.08.08-.41.16-.49.08-.08.4 0 .56 0zm-13.16-.14c.86.03 1.696.282 2.43.73a2.995 2.995 0 0 1 1.13 1.94 24.12 24.12 0 0 1 .08 3.4V82c0 .24-.08.32-.32.32H110c-.16 0-.24-.08-.16-.16a2.069 2.069 0 0 1-.13-.97 8.814 8.814 0 0 1-1.54 1 4.397 4.397 0 0 1-3.23.24 2.7 2.7 0 0 1-1.54-1.29 3.621 3.621 0 0 1-.57-2.43 3.19 3.19 0 0 1 2.43-2.91 9.854 9.854 0 0 1 2.59-.48c.56-.09 1.13-.09 1.7-.17.08 0 .16 0 .16-.08a2.369 2.369 0 0 0-.57-1.78 2.097 2.097 0 0 0-1-.4 9.783 9.783 0 0 0-1.54-.08 7.705 7.705 0 0 0-2.34.56.08.08 0 0 0-.08.08c-.33.17-.33.17-.33-.24v-1.32c0-.16.08-.25.25-.33a12.813 12.813 0 0 1 3.88-.4zm1.49 5.42c-.671.038-1.339.119-2 .24a4.912 4.912 0 0 0-1.86.57 1.91 1.91 0 0 0-.81 2.26 1.59 1.59 0 0 0 1.78 1.22 4.161 4.161 0 0 0 3-1.22c.08-.08.08-.16.08-.32l.05-1.21v-1.3c0-.24-.08-.24-.24-.24zm-12.06-3.8a4.24 4.24 0 0 0-2.83 1 .44.44 0 0 0-.24.4c.08 1.1.08 2.08.08 2.96V80c0 .16.08.24.24.32a6.878 6.878 0 0 0 1.78.49 2.69 2.69 0 0 0 3.16-2.21c.252-.949.307-1.94.16-2.91a6.22 6.22 0 0 0-.41-1.7 2 2 0 0 0-1.94-1.21z"/><path fill="#FFF" d="M19 75.69v-2.51c0-.16-.08-.24-.25-.32a6.897 6.897 0 0 0-1.21-.41 2.42 2.42 0 0 0-3.07 1.78 5.996 5.996 0 0 0 0 3.8 2.06 2.06 0 0 0 2.5 1.54 3.706 3.706 0 0 0 1.62-.81A.701.701 0 0 0 19 78c-.039-.77-.039-1.54 0-2.31z"/><path fill="#85ACB0" d="M28.09 73.18c-.212-1.36-.547-2.7-1-4a18.72 18.72 0 0 1-1.22-4.53 8.576 8.576 0 0 1 0-2c.08-1 .25-1.94.41-2.91.069-.412.176-.817.32-1.21 0-.08.08-.16 0-.24-.08-.08-.16 0-.24 0a3 3 0 0 0-1.54 1.45 12.14 12.14 0 0 0-.81 1.7 4.33 4.33 0 0 1-1.13 1.86.92.92 0 0 1-.89.16.77.77 0 0 1-.48-.72 2.242 2.242 0 0 1 .32-1.46c.267-.504.564-.992.89-1.46a10.345 10.345 0 0 0 1.62-4.28 5.912 5.912 0 0 0-1.14-4.53 4.858 4.858 0 0 0-1.37-1.22c-.08.16.08.25.08.41-.08.32.08.56.08.89 0 .33.16 1 .16 1.53.06.793.043 1.59-.05 2.38a2.999 2.999 0 0 1-1 1.94 1.45 1.45 0 0 1-1.62.16 1.35 1.35 0 0 1-.64-1.37 5.624 5.624 0 0 1 .72-1.94c.416-.8.638-1.688.65-2.59a15.743 15.743 0 0 0-.16-1.94 6.32 6.32 0 0 0-1.38-3.32c-.42-.48-.798-.995-1.13-1.54a10.014 10.014 0 0 1-.73-3.47 21.56 21.56 0 0 1 .19-3.34.323.323 0 0 1-.25.08 5.58 5.58 0 0 0-2.1 1.78 10.87 10.87 0 0 0-1.94 3.07 9.587 9.587 0 0 0-.89 4.21 3.37 3.37 0 0 0 .08.89c.122.63.283 1.25.48 1.86.204.527.368 1.068.49 1.62.08.4.08.81.16 1.29a3.168 3.168 0 0 1-.24 1.7.83.83 0 0 1-1.05.41 1.479 1.479 0 0 1-.89-1.06 10.475 10.475 0 0 1-.33-5c.097-.325.154-.661.17-1a1.85 1.85 0 0 0-.73.64 6.401 6.401 0 0 0-1.3 1.95 6.647 6.647 0 0 0-.56 2.42c-.013.784.013 1.569.08 2.35.169 1.034.468 2.042.89 3 .326.726.704 1.428 1.13 2.1 0 .09.08.17.16.25a6.753 6.753 0 0 1 1.3 2.34 1.2 1.2 0 0 1-.49 1.14.91.91 0 0 1-1-.33 5.053 5.053 0 0 1-.89-1.78 2.417 2.417 0 0 0-.49-1.05 4.598 4.598 0 0 0-.64-1 2.09 2.09 0 0 0-2.51-.81c-.16.08-.24.08-.08.32.302.524.572 1.065.81 1.62a.997.997 0 0 1 .16.41c.24.72.48 1.37.73 2.1.18.582.314 1.177.4 1.78.053.568.026 1.14-.08 1.7-.187.815-.417 1.62-.69 2.41a27.441 27.441 0 0 0-1 3.65 13.376 13.376 0 0 0-.32 3.07c-.029.866.025 1.734.16 2.59.174 1.032.473 2.04.89 3 .295.741.674 1.446 1.13 2.1.41.57.81 1.06 1.22 1.54.335.378.714.713 1.13 1 .48.33.89.65 1.45 1-.08 0-.24-.08-.32 0-.25.148-.47.342-.65.57-.23.28-.292.662-.16 1 .21.353.52.635.89.81a9.511 9.511 0 0 0 4 1c.89.08 1.78.08 2.67.08.54-.014 1.078-.067 1.61-.16.82-.147 1.63-.337 2.43-.57a3.777 3.777 0 0 0 1.54-1 .831.831 0 0 0 .16-.73 1.63 1.63 0 0 0-.73-.89c-.08 0-.16 0-.16-.08s.08-.08.16-.16a6.992 6.992 0 0 0 2.35-1.7c.4-.48.89-.89 1.21-1.37.4-.65.73-1.3 1.05-1.94a12.17 12.17 0 0 0 .89-4.78c-.16-1.58-.24-2.72-.4-3.85zM24 80.7a.71.71 0 0 1-.65.41h-3.8c-.16 0-.32 0-.32-.24A3.408 3.408 0 0 0 19 80c-.18.078-.346.186-.49.32a3.777 3.777 0 0 1-3.31.89 3.34 3.34 0 0 1-2.43-2.1 7.294 7.294 0 0 1 .08-5.83 4.002 4.002 0 0 1 5.58-1.86c.16.08.24.16.41.16a.08.08 0 0 0 .08-.08c0-.4 0-.4.48-.4h1c.25 0 .25.08.25.24v8.33c0 .25.08.25.24.25h1.86a.38.38 0 0 0 .4-.25c.27-.731.46-1.489.57-2.26.2-1.512.119-3.048-.24-4.53A6.503 6.503 0 0 0 20.73 69a7.116 7.116 0 0 0-4.29-.88 7.3 7.3 0 0 0-6.55 6.55 9.702 9.702 0 0 0 .64 5 6.574 6.574 0 0 0 2.35 2.83 6.373 6.373 0 0 0 3.4 1.22 14.083 14.083 0 0 0 4.12-.41c.25-.08.25 0 .25.16v1.06c0 .24-.09.32-.33.4-1 .16-1.94.24-3 .32a8.311 8.311 0 0 1-7.2-3.31A7.452 7.452 0 0 1 9 79.81 6.083 6.083 0 0 1 8.51 78a11.441 11.441 0 0 1-.08-3.31 9.285 9.285 0 0 1 1.29-3.8 9.006 9.006 0 0 1 2.76-2.83A7.827 7.827 0 0 1 16 66.79a8.875 8.875 0 0 1 5.18.89A7.066 7.066 0 0 1 24 70.43a9.614 9.614 0 0 1 1.3 4.94A11.333 11.333 0 0 1 24 80.7z"/><path fill="url(#a)" d="M23.09 36.18c-.212-1.36-.547-2.7-1-4a18.72 18.72 0 0 1-1.22-4.53 8.576 8.576 0 0 1 0-2c.08-1 .25-1.94.41-2.91.069-.412.176-.817.32-1.21 0-.08.08-.16 0-.24-.08-.08-.16 0-.24 0a3 3 0 0 0-1.54 1.45 12.14 12.14 0 0 0-.81 1.7 4.33 4.33 0 0 1-1.13 1.86.92.92 0 0 1-.89.16.77.77 0 0 1-.48-.72 2.242 2.242 0 0 1 .32-1.46c.267-.504.564-.992.89-1.46a10.345 10.345 0 0 0 1.62-4.28 5.912 5.912 0 0 0-1.14-4.53 4.858 4.858 0 0 0-1.37-1.22c-.08.16.08.25.08.41-.08.32.08.56.08.89 0 .33.16 1 .16 1.53.06.793.043 1.59-.05 2.38a2.999 2.999 0 0 1-1 1.94 1.45 1.45 0 0 1-1.62.16 1.35 1.35 0 0 1-.64-1.37 5.624 5.624 0 0 1 .72-1.94c.416-.8.638-1.688.65-2.59a15.743 15.743 0 0 0-.16-1.94 6.32 6.32 0 0 0-1.38-3.32c-.42-.48-.798-.995-1.13-1.54a10.014 10.014 0 0 1-.73-3.47A21.56 21.56 0 0 1 12 .59a.323.323 0 0 1-.25.08 5.58 5.58 0 0 0-2.1 1.78 10.87 10.87 0 0 0-1.94 3.07 9.587 9.587 0 0 0-.89 4.21 3.37 3.37 0 0 0 .08.89c.122.63.283 1.25.48 1.86.204.527.368 1.068.49 1.62.08.4.08.81.16 1.29a3.168 3.168 0 0 1-.24 1.7.83.83 0 0 1-1.05.41 1.479 1.479 0 0 1-.89-1.06 10.475 10.475 0 0 1-.33-5c.097-.325.154-.661.17-1a1.85 1.85 0 0 0-.73.64 6.401 6.401 0 0 0-1.3 1.95 6.647 6.647 0 0 0-.56 2.42c-.013.784.013 1.569.08 2.35.169 1.034.468 2.042.89 3 .326.726.704 1.428 1.13 2.1 0 .09.08.17.16.25a6.753 6.753 0 0 1 1.3 2.34 1.2 1.2 0 0 1-.49 1.14.91.91 0 0 1-1-.33 5.053 5.053 0 0 1-.89-1.78 2.417 2.417 0 0 0-.49-1.05 4.598 4.598 0 0 0-.64-1 2.09 2.09 0 0 0-2.51-.81c-.16.08-.24.08-.08.32.302.524.572 1.065.81 1.62a.997.997 0 0 1 .16.41c.24.72.48 1.37.73 2.1.18.582.314 1.177.4 1.78.053.568.026 1.14-.08 1.7-.187.815-.417 1.62-.69 2.41a27.441 27.441 0 0 0-1 3.65 13.376 13.376 0 0 0-.32 3.07c-.029.866.025 1.734.16 2.59.174 1.032.473 2.04.89 3 .295.741.674 1.446 1.13 2.1.41.57.81 1.06 1.22 1.54.335.378.714.713 1.13 1 .48.33.89.65 1.45 1-.08 0-.24-.08-.32 0-.25.148-.47.342-.65.57-.23.28-.292.662-.16 1 .21.353.52.635.89.81a9.511 9.511 0 0 0 4 1c.89.08 1.78.08 2.67.08.54-.014 1.078-.067 1.61-.16.82-.147 1.63-.337 2.43-.57a3.777 3.777 0 0 0 1.54-1 .831.831 0 0 0 .16-.73 1.63 1.63 0 0 0-.73-.89c-.08 0-.16 0-.16-.08s.08-.08.16-.16a6.992 6.992 0 0 0 2.35-1.7c.4-.48.89-.89 1.21-1.37.4-.65.73-1.3 1.05-1.94a12.17 12.17 0 0 0 .89-4.78c-.16-1.58-.24-2.72-.4-3.85z" transform="translate(5 37)"/><path fill="url(#b)" d="M4 27.75A7.334 7.334 0 0 1 3.71 32a30.728 30.728 0 0 0-1.63 6.38 12.778 12.778 0 0 0 .66 5.28 9.494 9.494 0 0 0 3 4.36 10.39 10.39 0 0 0 9.75 1.59 8.87 8.87 0 0 0 6.06-6.86c.388-2.07.371-4.196-.05-6.26a46.956 46.956 0 0 0-1.62-5.33 2.374 2.374 0 0 1-.11-.36 16.375 16.375 0 0 1-.38-3c0 .19-.3.48-.42.61a2.22 2.22 0 0 1-3.22 0c-1.06-1.09-.38-3.06 0-3.52.38-.46 2-2.93 2-3.73a7.5 7.5 0 0 1-1.17 1.32 2.24 2.24 0 0 1-2.17.29c-1-.35-1.93-1.41-1.82-2.07a3.992 3.992 0 0 1 .41-2.35 7.566 7.566 0 0 0 1-3.56 6.135 6.135 0 0 0-1.24-3.51 7.73 7.73 0 0 1-1-1.32c-.416-.858-.71-1.77-.87-2.71-.05-.32-.09-.64-.11-1-.02-.36-.13-.87 0-1 0 0-1.08 1.52-1.33 2a7.755 7.755 0 0 0-.94 4.63c.104.765.268 1.52.49 2.26a9.88 9.88 0 0 1 .54 2.71c.14.996-.189 2-.89 2.72a2.13 2.13 0 0 1-2.7.07 4.798 4.798 0 0 1-1.36-2.27c.08.43.08.89.13 1.32a10.009 10.009 0 0 0 1.4 4c.46.71 2 2.78 1.95 4.18a2.27 2.27 0 0 1-1.72 2.25A2.641 2.641 0 0 1 4 27.75z" transform="translate(5 37)"/><path fill="#7C0000" d="M24 71.05a7.105 7.105 0 0 0-2.77-2.69 8.667 8.667 0 0 0-5.07-.87 7.787 7.787 0 0 0-3.48 1.27 8.849 8.849 0 0 0-4 6.48 11.032 11.032 0 0 0 .08 3.25c.066.6.225 1.188.47 1.74.26.74.635 1.436 1.11 2.06a8.14 8.14 0 0 0 7 3.24c1-.08 2-.16 2.93-.32.23-.08.31-.16.31-.39v-1c0-.16 0-.24-.23-.16a13.887 13.887 0 0 1-4 .4 6.272 6.272 0 0 1-3.32-1.19 6.485 6.485 0 0 1-2.3-2.77 9.472 9.472 0 0 1-.63-4.9 7.16 7.16 0 0 1 6.41-6.41 7.007 7.007 0 0 1 4.19.87 6.249 6.249 0 0 1 2.69 3.8c.359 1.448.44 2.951.24 4.43a11.226 11.226 0 0 1-.56 2.21.35.35 0 0 1-.39.24h-1.8c-.16 0-.24 0-.24-.24v-8.18c0-.16 0-.24-.23-.24h-.95c-.48 0-.48 0-.48.4a.08.08 0 0 1-.08.08c-.16 0-.24-.08-.39-.16a3.908 3.908 0 0 0-5.46 1.82 7.147 7.147 0 0 0-.08 5.7 3.259 3.259 0 0 0 2.37 2 3.7 3.7 0 0 0 3.25-.87c.138-.13.297-.234.47-.31.093.281.146.574.16.87 0 .23.16.23.31.23h3.72a.7.7 0 0 0 .64-.39 11.146 11.146 0 0 0 1.34-5.22A9.406 9.406 0 0 0 24 71.05zm-5 5.14v2.22a.69.69 0 0 1-.39.71 5.907 5.907 0 0 1-1.59.79 2 2 0 0 1-2.45-1.5 6.06 6.06 0 0 1 0-3.72 2.49 2.49 0 0 1 3-1.74c.405.097.8.231 1.18.4.16.08.24.15.24.31-.09.87.01 1.74.01 2.53z"/></g></svg>