<svg width="128" height="80" fill="none" xmlns="http://www.w3.org/2000/svg"><path d="M25.734 35.743c1.645 0 2.485.92 2.516 2.709v5.514a2.314 2.314 0 0 1-.747 1.645 2.427 2.427 0 0 1-1.71.745h-3.537v3.97h-2.618v-11.77c-.031-.731.185-1.453.614-2.046.23-.229.5-.413.796-.542.299-.145.622-.222.953-.225h3.733zm17.957 0v7.077c0 .571.225.848.696.848h1.85a.813.813 0 0 0 .564-.215.564.564 0 0 0 .235-.449v-7.261h2.587v11.69a3.24 3.24 0 0 1-.665 2.043 2.198 2.198 0 0 1-1.78.81h-6.134v-2.64h5.227a.858.858 0 0 0 .53-.224.549.549 0 0 0 .215-.43v-.636h-3.344a2.593 2.593 0 0 1-1.023-.172 2.291 2.291 0 0 1-.827-.553 2.58 2.58 0 0 1-.564-.889 2.665 2.665 0 0 1-.182-1.023v-7.974h2.618l-.003-.002zm52.35.01v.624h-3.948a2.754 2.754 0 0 0-1.636.43 1.895 1.895 0 0 0-.602 1.594v5.012c0 .346.05.69.153 1.022.12.325.32.612.581.84.242.203.531.345.84.407.306.064.618.094.931.093h3.733v.634h-3.795v-.05c-.363 0-.727-.037-1.083-.104a2.256 2.256 0 0 1-1.024-.491 2.48 2.48 0 0 1-.745-1.022 3.722 3.722 0 0 1-.216-1.298v-5.012c-.01-.346.03-.691.123-1.022.11-.344.298-.654.553-.91a2.33 2.33 0 0 1 1.022-.624c.365-.086.74-.128 1.114-.122h4zm-59.744-.01c1.732 0 2.612.838 2.64 2.516v5.614a2.667 2.667 0 0 1-.655 1.758c-.436.48-1.06.745-1.71.727h-3.577c-1.749 0-2.629-.818-2.66-2.394v-2.165a2.268 2.268 0 0 1 2.536-2.525h3.518v-.257l-.05.031c0-.41-.215-.593-.697-.582h-5.265v-2.725h5.92v.002zm23.38-.02v2.69H55.06c-.542 0-.807.164-.807.491v.233c0 .35.276.513.827.513h2.301a2.2 2.2 0 0 1 1.575.714c.433.44.676 1.031.676 1.647v1.955a2.567 2.567 0 0 1-.747 1.687c-.2.236-.447.427-.727.562a3.08 3.08 0 0 1-1.022.143h-5.481v-2.69h4.654c.429 0 .643-.182.663-.51v-.236a.537.537 0 0 0-.061-.236c-.113-.204-.235-.306-.388-.306h-2.312a2.537 2.537 0 0 1-1.758-.707 2.044 2.044 0 0 1-.727-1.512v-2.046c0-1.567.849-2.365 2.547-2.392H59.677zm7.781.02c1.727 0 2.607.869 2.627 2.516v5.614a2.593 2.593 0 0 1-.643 1.758c-.437.48-1.06.745-1.71.727h-3.588c-1.738 0-2.627-.818-2.65-2.394v-2.165a2.27 2.27 0 0 1 2.508-2.526h3.476v-.256l.02.031c0-.41-.214-.593-.705-.582h-5.256v-2.725h5.921v.002zm9.225-3.947v2.598h-1.024c-.552 0-.829.274-.838.787v.562h1.86v2.69h-1.85v7.925h-2.648v-12.13a2.257 2.257 0 0 1 .808-1.747 3.062 3.062 0 0 1 2.045-.685h1.647zm4.109 3.947h3.52a2.276 2.276 0 0 1 2.474 2.576v2.118l-5.91 2.322v.163c-.015.188.049.371.172.511.055.14.19.233.338.236h5.37v2.69h-5.708a3.773 3.773 0 0 1-1.216-.155c-.315-.1-.6-.271-.838-.5a2.197 2.197 0 0 1-.582-.87c-.124-.4-.18-.817-.164-1.237v-5.369a2.27 2.27 0 0 1 2.545-2.485h-.001zm23-.062c.449-.005.898.03 1.34.102.206.04.4.12.573.236.202.127.376.295.513.491.476.61.727 1.37.705 2.147v4.807c0 .342-.029.684-.082 1.022-.085.38-.265.73-.522 1.023a2.624 2.624 0 0 1-2.045.85h-3.071a2.773 2.773 0 0 1-1.983-.728 2.554 2.554 0 0 1-.778-1.714V42.03a2.497 2.497 0 0 1 2.721-2.802h5.194v-.705a2.435 2.435 0 0 0-.499-1.534 1.59 1.59 0 0 0-.748-.573 4.113 4.113 0 0 0-1.023-.112h-5.674v-.624h5.379zm9.8 0v.624h-.8c-1.451 0-2.168.818-2.137 2.383v7.67h-.634v-7.67c0-2.045.931-3.007 2.872-3.007h.699zm10.379-3.467v11.18H124c-.06 2.044-1.124 3.004-3.211 2.962h-2.321a6.417 6.417 0 0 1-1.318-.121 2.47 2.47 0 0 1-1.146-.728 2.386 2.386 0 0 1-.522-1.021 3.666 3.666 0 0 1-.123-1.175v-4.574c0-2.045 1.023-3.067 3.069-3.067h4.917v-3.456h.626zm-.595 4.09h-4.948a3.664 3.664 0 0 0-1.024.124 1.67 1.67 0 0 0-.858.542c-.235.22-.404.5-.491.807a2.84 2.84 0 0 0-.124 1.024v4.888a1.79 1.79 0 0 0 .717 1.655c.24.145.502.25.776.309.318.085.644.127.973.122h2.158c.703.027 1.4-.17 1.983-.564.546-.444.84-1.127.787-1.829l.051-7.077zm-17.078 3.55h-5.246c-.549-.011-1.08.2-1.472.581-.331.367-.526.833-.553 1.322v1.849c-.004.285.031.57.102.847.076.287.249.536.49.707a2.28 2.28 0 0 0 1.504.562h3.182c1.327 0 2.045-.716 2.045-2.107l-.052-3.763v.001zm-81.27-1.422h-2.045a.72.72 0 0 0-.736.634v3.814a.726.726 0 0 0 .818.788h1.87a.641.641 0 0 0 .491-.215.535.535 0 0 0 .195-.429v-3.947c0-.418-.215-.634-.593-.645zm8.036 3.467a.872.872 0 0 0-.13.572l.02.666c0 .149.075.29.205.367a.652.652 0 0 0 .469.164h2.045c.45 0 .685-.173.696-.531v-.746c0-.41-.236-.614-.716-.614h-2.045a.898.898 0 0 0-.542.122h-.002zm31.162 0a.863.863 0 0 0-.142.572l.018.666c0 .152.084.292.216.367.13.114.299.173.471.164h2.046c.449 0 .685-.173.694-.531v-.746c0-.41-.236-.614-.716-.614h-2.044a.898.898 0 0 0-.541.122h-.002zm19.27-3.467h-1.822a.794.794 0 0 0-.562.194.568.568 0 0 0-.276.491v1.044l3.272-1.197v-.061a.413.413 0 0 0-.164-.348.802.802 0 0 0-.449-.123z" fill="#008AC9"/><path d="M12.736 35.741c1.645.02 2.514.92 2.514 2.709v5.114c-.03 1.789-.869 2.709-2.516 2.709h-6.38a2.36 2.36 0 0 1-.95-.213 2.757 2.757 0 0 1-.787-.513 3.316 3.316 0 0 1-.615-2.045v-4.989a3.372 3.372 0 0 1 .613-2.045c.232-.21.498-.38.787-.5.296-.145.622-.222.95-.225l6.384-.002zm-3.2-5.74a5.332 5.332 0 0 1 5.43 4.818 6.43 6.43 0 0 1 0 1.024 2.87 2.87 0 0 0-1.454-.706 3.966 3.966 0 0 0-7.77 0c-.211.046-.418.115-.615.206l.051-.031c-.301.133-.585.309-.836.522v-.768c.133-2.79 2.402-5 5.194-5.065z" fill="#E3001B"/></svg>