<svg width="128" height="80" viewBox="0 0 128 80" fill="none" xmlns="http://www.w3.org/2000/svg">
<path d="M23.3166 20.6919C24.2276 20.2202 25.3337 21.31 24.8457 22.221C24.5692 22.953 23.5118 23.1644 22.9588 22.5951C22.3894 22.0583 22.5684 20.9847 23.3166 20.6919ZM13.5404 21.7492C14.0934 21.5215 14.7929 22.0258 14.7278 22.6276C14.7929 23.2783 13.9958 23.7663 13.4265 23.4572C12.6945 23.1644 12.7758 21.9607 13.5404 21.7492ZM33.5484 23.4735C32.6862 23.3759 32.5561 22.0095 33.3857 21.7492C34.0364 21.4402 34.622 22.0258 34.7196 22.6276C34.5732 23.1482 34.134 23.6199 33.5484 23.4735ZM15.7689 25.8973C16.6961 25.3116 18.0137 26.19 17.8673 27.2474C17.8185 28.321 16.387 28.9554 15.5737 28.2234C14.7929 27.654 14.9068 26.3527 15.7689 25.8973ZM29.8396 26.5154C30.2462 25.458 31.9217 25.4255 32.3772 26.4503C32.8326 27.2474 32.2633 28.2396 31.45 28.5162C30.3601 28.7439 29.319 27.5564 29.8396 26.5154ZM22.1292 28.4674C22.1129 27.5564 22.9425 26.8732 23.8209 26.8082C24.3902 26.922 25.0246 27.166 25.2686 27.7516C25.7241 28.5487 25.3174 29.6548 24.4878 30.0127C24.1137 30.2242 23.6582 30.1428 23.2516 30.1266C22.6172 29.8175 22.0804 29.2156 22.1292 28.4674ZM7.61929 29.8012C8.46516 29.2807 9.60383 30.2242 9.27849 31.1351C9.09956 31.9322 8.04223 32.2413 7.42409 31.737C6.77343 31.2815 6.88729 30.1428 7.61929 29.8012ZM38.7862 29.8012C39.502 29.2482 40.6732 29.8826 40.5918 30.7773C40.6406 31.6068 39.6158 32.225 38.9164 31.802C38.1356 31.4442 38.0542 30.2404 38.7862 29.8012ZM26.2121 31.4279C27.3833 31.005 28.7985 31.5092 29.4654 32.5666C30.3438 33.8517 29.8721 35.8036 28.5057 36.5519C27.0742 37.4303 24.9921 36.6821 24.4716 35.0879C23.8697 33.6727 24.7481 31.8834 26.2121 31.4279ZM19.2988 31.5743C20.6001 30.9562 22.3569 31.4767 22.9913 32.8106C23.7396 34.1119 23.154 35.9175 21.8364 36.6007C20.5025 37.349 18.6318 36.7796 17.9812 35.3807C17.2654 34.0306 17.8998 32.1925 19.2988 31.5743ZM12.3692 33.9493C12.4668 33.1034 13.2638 32.5666 14.0609 32.5015C14.923 32.5991 15.6062 33.2823 15.7038 34.1444C15.655 35.0066 14.9718 35.8524 14.0609 35.8524C13.0686 35.9338 12.174 34.9415 12.3692 33.9493ZM32.8326 32.6804C33.8737 32.0786 35.3052 32.957 35.2564 34.1444C35.3214 35.397 33.7436 36.2916 32.7025 35.5597C31.6289 34.9415 31.7265 33.201 32.8326 32.6804ZM16.4846 37.1213C17.6884 36.7959 19.0873 37.3652 19.6729 38.4714C20.3236 39.5938 20.0633 41.1554 19.0548 41.9687C17.7534 43.1725 15.3622 42.6845 14.679 41.0415C13.882 39.545 14.8417 37.5117 16.4846 37.1213ZM29.6118 37.1213C30.783 36.7796 32.1657 37.2351 32.8001 38.3087C33.6297 39.5287 33.2393 41.3669 31.9868 42.1477C30.6854 43.0586 28.6684 42.5868 27.9364 41.1554C27.0742 39.6588 27.9526 37.5604 29.6118 37.1213ZM8.69289 38.5202C9.73396 38.1298 10.9052 39.2847 10.4822 40.3095C10.222 41.253 8.88809 41.6108 8.20489 40.9114C7.39156 40.2607 7.70063 38.7967 8.69289 38.5202ZM37.0457 40.0167C37.0132 39.1546 37.6476 38.39 38.5422 38.3412C39.258 38.4551 39.9574 39.0245 39.8924 39.8053C39.9574 40.83 38.7212 41.5295 37.8428 41.0578C37.4361 40.8463 37.2246 40.4234 37.0457 40.0167ZM3.55263 39.0244C4.18703 38.7479 4.96783 39.301 4.82143 40.0005C4.78889 40.7975 3.61769 41.0903 3.19476 40.4396C2.80436 39.9679 3.03209 39.2522 3.55263 39.0244ZM43.227 39.0082C43.6662 38.6991 44.382 38.9268 44.5609 39.4311C44.8537 40.0004 44.3169 40.765 43.6825 40.6674C42.7878 40.765 42.495 39.3986 43.227 39.0082ZM19.9006 42.7983C21.5598 42.3754 23.3329 43.7418 23.3492 45.4498C23.463 47.1741 21.7062 48.7031 20.0145 48.2965C18.6969 48.085 17.6721 46.8162 17.7209 45.4986C17.7046 44.246 18.6644 43.0749 19.9006 42.7983ZM26.4561 42.7983C28.1316 42.3266 29.9697 43.7418 29.9372 45.4823C30.0185 47.1741 28.3268 48.6543 26.6676 48.3127C25.106 48.1175 23.951 46.3933 24.3902 44.8805C24.618 43.8719 25.4638 43.0423 26.4561 42.7983ZM13.8169 43.8557C14.9718 43.6605 16.078 44.9618 15.6062 46.0517C15.2646 47.2229 13.5566 47.5482 12.7921 46.5885C11.8974 45.6613 12.5644 43.9858 13.8169 43.8557ZM33.0441 43.9045C34.0852 43.4653 35.354 44.3599 35.2726 45.4986C35.3214 46.7348 33.7436 47.597 32.735 46.865C31.5801 46.2143 31.7916 44.2949 33.0441 43.9045ZM38.4284 49.2887C38.0217 48.5242 38.7537 47.5319 39.5996 47.6621C40.0225 47.6621 40.3153 47.9874 40.5756 48.2639C40.6244 48.7194 40.722 49.2399 40.3478 49.5978C39.8436 50.2485 38.6886 50.0532 38.4284 49.2887ZM7.61929 47.8898C8.40009 47.3693 9.53876 48.1501 9.35983 49.061C9.26223 49.8743 8.23743 50.3298 7.57049 49.8743C6.83849 49.4514 6.87103 48.2639 7.61929 47.8898ZM23.1214 49.5815C24.1462 49.1261 25.4638 50.0207 25.3662 51.1594C25.4476 52.4119 23.8209 53.2741 22.8124 52.5258C21.7062 51.8751 21.8852 49.9882 23.1214 49.5815ZM15.9478 51.257C16.8262 50.8015 17.9974 51.5986 17.9161 52.5746C17.9486 53.3717 17.1516 54.0711 16.3708 53.941C15.7201 53.9247 15.2809 53.3391 15.0694 52.7698C15.0694 52.1679 15.3297 51.4847 15.9478 51.257ZM30.5065 51.2732C31.4012 50.7202 32.6862 51.5173 32.6049 52.5583C32.6212 53.6482 31.1734 54.3476 30.3438 53.6319C29.5142 53.0788 29.6281 51.7287 30.5065 51.2732ZM33.0278 57.5359C32.6212 56.934 33.0929 56.202 33.7436 56.0557C34.2641 56.1695 34.8172 56.5599 34.7033 57.1618C34.6382 57.9914 33.4345 58.2354 33.0278 57.5359ZM12.9385 56.9991C13.1012 56.5111 13.4916 56.0394 14.0446 56.1695C14.8742 56.2346 15.1182 57.4708 14.3862 57.8612C13.7518 58.3004 12.9873 57.6986 12.9385 56.9991ZM22.6334 57.5522C22.7961 56.8364 23.707 56.4949 24.3252 56.869C24.7318 57.0479 24.8457 57.4871 24.9433 57.8775C24.8945 58.0727 24.8457 58.2679 24.7969 58.4794C24.5529 58.7722 24.2276 59.065 23.8209 59.065C23.0401 59.1463 22.3406 58.2842 22.6334 57.5522Z" fill="#0033AD"/>
<path fill-rule="evenodd" clip-rule="evenodd" d="M57.4604 36.6332L56.029 38.4713C55.5084 37.6092 54.6463 37.2025 53.7842 37.2025C51.4255 37.1375 50.7423 40.3095 52.1738 41.5783C53.3775 42.6681 54.8252 42.5543 56.0778 41.1228L57.5092 42.7983C56.5332 44.2297 53.7679 44.6364 52.2714 44.2948C50.0266 43.7743 48.9367 42.1151 48.9367 39.9841C48.9367 37.6255 50.6122 35.3319 53.3124 35.2668C54.809 35.2668 56.3543 35.6084 57.5092 36.6983L57.4604 36.6332ZM71.6124 37.2025V39.9028C72.7023 39.9028 74.6055 40.1956 74.6543 38.5852C74.6706 36.8609 72.7673 37.2676 71.6124 37.2025ZM69.3188 35.2505H73.2228C75.9231 35.3156 76.9642 36.8609 77.013 38.4713C77.078 39.5124 76.6063 40.6023 75.5164 41.3505L77.4196 44.3436H74.6543C74.4266 43.9369 73.4994 41.9199 73.109 41.7572C72.6535 41.5783 72.133 41.6433 71.6775 41.6433V44.3436H69.3188V35.2505ZM78.9812 35.3644C80.5916 35.3644 82.202 35.2993 83.8124 35.4783C84.7884 35.5921 85.7644 35.9337 86.5127 36.5681C87.261 37.2025 87.7164 38.1135 87.8303 39.0407C87.9442 40.1305 87.8303 41.2855 87.1959 42.2615C86.5127 43.3025 85.2927 43.9857 84.0402 44.0996C82.3647 44.3273 80.7055 44.2135 78.9812 44.2135V35.2993V35.3644ZM81.4538 37.1537V42.4404C82.137 42.4404 82.8364 42.5543 83.5196 42.3265C84.3818 42.0988 85.0162 41.5295 85.1951 40.7161C85.4228 39.6751 85.309 38.3575 84.3818 37.6743C83.5196 37.0236 82.4298 37.1537 81.4538 37.1537ZM92.206 35.2505H94.6298L98.4199 44.3436H95.6546L95.1991 42.6193H91.3439L90.7746 44.2948L88.1231 44.3599L92.0922 35.2668H92.206V35.2505ZM92.0434 40.8788H94.6298L93.3122 37.8369L92.0434 40.8788ZM99.9164 35.2505H101.82L105.61 40.2607L105.675 35.2505H107.92L107.985 44.3436H106.081L102.177 39.3985L102.243 44.3436H99.949L100.014 35.2017L99.9164 35.2505ZM114.589 35.2505C117.175 35.2505 119.306 37.3164 119.306 39.854C119.306 42.3916 117.175 44.4575 114.589 44.4575C112.003 44.4575 109.872 42.3916 109.872 39.854C109.872 37.3164 112.003 35.2505 114.589 35.2505ZM114.589 37.3815C115.972 37.3815 117.062 38.4713 117.062 39.8052C117.062 41.1228 115.972 42.2289 114.589 42.2289C113.206 42.2289 112.116 41.1391 112.116 39.8052C112.116 38.4713 113.206 37.3815 114.589 37.3815ZM61.7711 35.2505H64.1948L67.985 44.3436H65.2196L64.7642 42.6193H60.909L60.3396 44.2948L57.6882 44.3599L61.6572 35.2668H61.7711V35.2505ZM61.6084 40.8788H64.1948L62.8772 37.8369L61.6084 40.8788Z" fill="#0033AD"/>
</svg>
