<svg width="81" height="56" viewBox="0 0 81 56" fill="none" xmlns="http://www.w3.org/2000/svg">
<path fill-rule="evenodd" clip-rule="evenodd" d="M33.5398 31.8611C33.5398 25.4703 38.7149 20.2605 45.0709 20.2605C51.4269 20.2605 56.5789 25.4472 56.5673 31.8495C56.5673 38.2402 51.4153 43.5195 45.0593 43.5195H39.2938V56H33.5398V32.1042V31.8611ZM39.2938 37.6382H45.0709C48.2663 37.6382 50.8712 35.0796 50.8712 31.8379C50.8712 28.5962 48.2663 25.9566 45.0709 25.9566C41.8755 25.9566 39.2938 28.5962 39.2938 31.8379V37.6382ZM66.3154 28.9436H73.8176C77.7308 29.0015 80.9377 32.2663 80.9377 36.2142C80.9377 40.1505 77.7308 43.4617 73.8176 43.5196H52.5383C55.2011 42.4197 56.5093 40.22 57.8523 37.6498H73.7134C74.547 37.6498 75.2185 37.0362 75.2185 36.2026C75.2185 35.3691 74.547 34.7091 73.7134 34.7091H66.3154C62.3328 34.7091 59.0911 31.4559 59.0911 27.4848C59.0911 23.5138 62.3328 20.2605 66.3154 20.2605H77.7308V25.8872H66.3154C65.4818 25.8872 64.8103 26.6165 64.8103 27.4501C64.8103 28.2837 65.4818 28.9436 66.3154 28.9436Z" fill="#71706F"/>
<path fill-rule="evenodd" clip-rule="evenodd" d="M15.3054 0C20.7121 0 25.0999 4.27207 25.0999 9.55137H25.1115V12.2258C25.1115 12.5731 24.7989 12.9088 24.4516 12.9088H20.851C20.4921 12.9088 20.2142 12.5731 20.2142 12.2258V9.55137C20.2142 6.91172 18.0261 4.7699 15.317 4.7699C12.6079 4.7699 10.4197 6.91172 10.4197 9.55137V12.2258C10.4197 12.5731 10.1072 12.9088 9.75984 12.9088H6.15926C5.80036 12.9088 5.5225 12.5731 5.5225 12.2258V9.36614V9.29667C5.66143 4.14472 9.99138 0 15.3054 0ZM15.3285 43.5196C9.88712 43.5196 5.31404 39.6411 4.07525 34.5818C4.07525 34.5818 3.71635 32.9031 3.71635 31.8032C3.71635 30.7034 4.0521 29.0131 4.0521 29.0131C5.30246 23.9653 9.86397 20.2026 15.2938 20.2026C21.6845 20.2026 26.9291 25.3893 26.9291 31.7801V34.5934H9.95658C10.9638 36.55 12.9899 37.6498 15.3285 37.6498H30.5876L30.6107 21.0825C30.6107 18.6165 28.5962 16.5905 26.1187 16.5905H4.49204C2.02605 16.5905 0 18.5471 0 21.0246V42.6513C0 45.1173 2.02605 47.2012 4.49204 47.2012H26.1187C28.33 47.2012 30.1823 45.6151 30.5412 43.5311H15.3285V43.5196ZM15.3054 25.6903C12.9784 25.6903 10.9523 27.1143 9.94509 28.9551H20.6658C19.6586 27.1143 17.6325 25.6903 15.3054 25.6903Z" fill="#B90466"/>
</svg>
