<svg xmlns="http://www.w3.org/2000/svg" width="72" height="72" viewBox="0 0 72 72">
    <path fill="#FF671F" d="M19.254 26.843v17.032h-.585V26.843h.585zm7.977 11.649c.494 0 .894-.4.894-.894v-9h3.566v9c.058 1.632-.78 3.166-2.184 4-.633.374-1.334.58-2.043.618l-.236.006c-.788 0-1.576-.208-2.279-.625-1.405-.833-2.243-2.367-2.185-4h3.572c0 .494.4.895.895.895zm29.306-6.024c.574.244 1.094.6 1.53 1.046l.011.005c.445.455.793.994 1.024 1.587.487 1.284.487 2.703 0 3.988-.46 1.195-1.386 2.151-2.565 2.65-.497.2-1.018.32-1.543.361l-.263.013h-.264c-.614-.015-1.226-.14-1.806-.375-.58-.244-1.106-.601-1.547-1.052-.437-.462-.78-1.004-1.012-1.597-.247-.637-.371-1.314-.366-1.997-.007-.681.118-1.357.366-1.991.231-.59.575-1.129 1.012-1.587.44-.45.967-.808 1.547-1.052 1.242-.51 2.634-.51 3.876 0zm-18.917-.406c.66-.01 1.316.111 1.93.355.56.227 1.061.577 1.468 1.024v-.006c.404.452.713.982.905 1.558.21.646.313 1.323.304 2.003v.472c-.005.121-.03.241-.073.354l-.102.197h-6.187c.08.39.276.744.563 1.018.181.175.395.312.63.405.243.098.502.148.764.147l.164.004.163-.01c.324-.034.635-.153.9-.349l.14-.123 2.622.73-.282.417c-.25.373-.562.7-.922.968-.372.285-.788.507-1.232.658-.425.132-.862.207-1.301.227l-.264.005c-.614-.004-1.228-.117-1.81-.34-.576-.222-1.1-.563-1.536-1-.45-.457-.805-.998-1.046-1.592-.275-.677-.41-1.402-.4-2.132-.006-.695.122-1.385.378-2.03.234-.582.578-1.113 1.012-1.565.419-.432.92-.776 1.474-1.012.546-.248 1.138-.378 1.738-.383zM15.649 38.29c-.847 1.76-2.414 3.067-4.297 3.584-1.884.517-3.898.192-5.524-.89zm31.218-8.623v2.683h1.806v2.577h-1.806v3.712c-.017.201.041.402.164.563.162.12.361.177.562.163l.205.012.206-.001.242-.034.444-.112v2.396l-.225.09c-.05 0-.146.05-.433.13-.317.071-.642.103-.968.095-.796.036-1.574-.247-2.16-.788-.553-.583-.844-1.367-.804-2.17v-4.056h-1.069v-2.577H44.1v-2.683h2.767zm18.744 2.436l.23.002c.457.017.912.116 1.344.296.436.192.821.482 1.125.85.29.364.507.78.641 1.226l.034.005c.144.474.216.967.214 1.463v5.906h-2.813v-5.552c.014-.416-.104-.825-.337-1.17-.268-.25-.601-.388-.94-.413l-.147-.003-.145.01c-.339.039-.666.19-.923.451-.264.362-.399.801-.382 1.249v5.422h-2.813V32.35h2.728v.523c.19-.162.4-.298.625-.405.494-.231 1.025-.353 1.56-.365zm-9.12 6.075c.122-.347.18-.713.175-1.08.007-.364-.052-.726-.174-1.069-.1-.276-.254-.529-.456-.742-.183-.192-.406-.341-.652-.44-.251-.096-.518-.146-.788-.145-.27 0-.54.049-.793.146-.241.095-.458.243-.636.433-.202.22-.36.475-.466.754-.127.34-.188.7-.18 1.063-.007.366.054.73.18 1.074.107.28.265.538.466.76.18.191.4.342.642.444.503.202 1.066.202 1.57 0 .247-.103.471-.256.657-.45.198-.218.35-.475.445-.754l.01.006zm-41.303-6.604c.744 1.122 1.135 2.44 1.124 3.786v.337L3.937 39.088c-.735-1.105-1.126-2.402-1.125-3.73v-.404zm22.438 2.97c-.247-.003-.493.045-.72.14-.21.085-.402.212-.563.372-.15.166-.272.356-.36.563-.015.051-.029.104-.04.157l.012-.006h3.42c-.018-.082-.043-.163-.073-.241-.073-.185-.182-.353-.32-.495-.162-.156-.353-.276-.563-.355-.203-.077-.416-.122-.631-.133l-.162-.002zM7.78 28.853c1.851-.508 3.83-.204 5.443.836l-9.697 2.66c.856-1.717 2.404-2.989 4.254-3.496z"/>
</svg>
