<svg width="128" height="80" fill="none" xmlns="http://www.w3.org/2000/svg"><path d="M40.74 32.64v8c-.02.462.048.923.2 1.36.13.373.338.714.61 1 .253.256.56.45.9.57.356.13.732.194 1.11.19.382 0 .758-.09 1.1-.26.339-.174.644-.408.9-.69a3.27 3.27 0 0 0 .6-1 2.9 2.9 0 0 0 .22-1.12v-8h3.79v12.58a7 7 0 0 1-.61 2.84 7.18 7.18 0 0 1-1.62 2.33A7.59 7.59 0 0 1 45.56 52a7.32 7.32 0 0 1-2.92.58l-1.93-.02v-3.69h2.1c.34-.001.678-.058 1-.17a4 4 0 0 0 1-.48c.289-.207.545-.457.76-.74.22-.281.402-.59.54-.92l-1.26.51a3.49 3.49 0 0 1-1.29.26 6.998 6.998 0 0 1-2.56-.45 6.438 6.438 0 0 1-2.1-1.34 6.109 6.109 0 0 1-1.41-2.11 7.11 7.11 0 0 1-.49-2.79v-8h3.74zm-12.11-.47c.465.002.928.06 1.38.17a7.21 7.21 0 0 1 1.32.48c.43.201.84.439 1.23.71.383.269.747.563 1.09.88l1.42-1.67H36v14.07h-.88l-1.42-1.94c-.35.3-.72.59-1.1.86-.39.268-.8.502-1.23.7-.442.198-.9.355-1.37.47a5.783 5.783 0 0 1-1.37.17 8.13 8.13 0 0 1-2.85-.5 6.68 6.68 0 0 1-3.9-3.8 8 8 0 0 1-.58-3.15 7.68 7.68 0 0 1 .58-3 7.21 7.21 0 0 1 1.57-2.37 7 7 0 0 1 2.33-1.53 7.352 7.352 0 0 1 2.85-.55zm-15.69-4.28a7.692 7.692 0 0 1 3.84 1.04 7.93 7.93 0 0 1 2.76 2.72c.34.565.603 1.174.78 1.81.185.65.279 1.324.28 2a7.14 7.14 0 0 1-.6 2.94 7.6 7.6 0 0 1-1.65 2.41 7.93 7.93 0 0 1-2.45 1.62 7.67 7.67 0 0 1-3 .59H9.09v3.79H5.24V27.89h7.7zm64.44 0-7.92 3.79H57.78v15.13H54V31.68h-7.62v-3.79h31zm-48.71 7.93a3.88 3.88 0 0 0-1.41.25 3.2 3.2 0 0 0-1.16.74 3.64 3.64 0 0 0-.77 1.19 4.94 4.94 0 0 0 0 3.28c.174.45.436.862.77 1.21a3.34 3.34 0 0 0 1.16.74 4.1 4.1 0 0 0 1.41.25c.49.003.972-.11 1.41-.33a3.91 3.91 0 0 0 1.16-.85 4.15 4.15 0 0 0 .76-1.25 3.73 3.73 0 0 0 .31-1.43h.01a3.73 3.73 0 0 0-.32-1.43 4.151 4.151 0 0 0-.76-1.19 3.941 3.941 0 0 0-1.16-.86 3.24 3.24 0 0 0-1.41-.32zM9.09 31.68v7.57h3.85a3.71 3.71 0 0 0 1.49-.3 3.999 3.999 0 0 0 1.23-.81 3.81 3.81 0 0 0 .82-1.21c.4-.94.4-2 0-2.94a3.88 3.88 0 0 0-.82-1.2 3.66 3.66 0 0 0-1.23-.79 3.711 3.711 0 0 0-1.49-.3l-3.85-.02zM101.65 27v5.71h6.28s-.34 2.58 1.29 3.58h-7.62v4.23c-.002.364.07.724.21 1.06a2.83 2.83 0 0 0 2.58 1.67h2.78v3.54h-2.78a6.38 6.38 0 0 1-2.51-.49 6.501 6.501 0 0 1-2.05-1.36 6.402 6.402 0 0 1-1.39-2 6.131 6.131 0 0 1-.5-2.45v-4.23h-9a.85.85 0 0 0-.63.27.82.82 0 0 0-.26.63.87.87 0 0 0 .26.65.81.81 0 0 0 .63.27h3.73c.594 0 1.183.105 1.74.31a4.45 4.45 0 0 1 1.42.87 4 4 0 0 1 1 1.33 4.17 4.17 0 0 1 .35 1.7 4.409 4.409 0 0 1-.35 1.75 4.648 4.648 0 0 1-1 1.42 4.528 4.528 0 0 1-1.42 1 4.47 4.47 0 0 1-1.74.35H82.8l-1.22-1.65a8.89 8.89 0 0 1-.95.74c-.336.232-.69.436-1.06.61-.37.172-.755.31-1.15.41-.389.1-.789.15-1.19.15a6.76 6.76 0 0 1-2.52-.46 6.45 6.45 0 0 1-2.07-1.31 6.081 6.081 0 0 1-1.39-2.08 7.001 7.001 0 0 1-.51-2.73v-1.65c.24-1.12 3.68-3.6 3.68-3.6v5.29a3.38 3.38 0 0 0 .23 1.27c.133.352.337.672.6.94.252.257.555.458.89.59a3 3 0 0 0 1.09.19 2.25 2.25 0 0 0 1.07-.26 3.07 3.07 0 0 0 .89-.67c.257-.294.457-.633.59-1 .147-.348.221-.722.22-1.1v-7.81h3.74V43.3h9a.85.85 0 0 0 .63-.27.82.82 0 0 0 .26-.63.49.49 0 0 0-.26-.5 1.51 1.51 0 0 0-.63-.12h-3.75a4.45 4.45 0 0 1-1.75-.35 4.76 4.76 0 0 1-1.43-1c-.42-.41-.76-.894-1-1.43a4.322 4.322 0 0 1-.29-1.82 4.28 4.28 0 0 1 .35-1.75 4.34 4.34 0 0 1 2.38-2.38A4.28 4.28 0 0 1 89 32.7h9V27h3.65zm11.34.2c.363.124.701.31 1 .55.26.231.473.51.63.82.16.309.239.653.23 1-.001.175-.021.35-.06.52-.04.174-.093.345-.16.51-.073.164-.16.321-.26.47a2.113 2.113 0 0 1-.34.39c.2.117.384.258.55.42.166.162.307.348.42.55.118.197.209.409.27.63.043.224.057.453.04.68.004.393-.088.781-.27 1.13-.184.346-.44.65-.75.89-.328.26-.701.46-1.1.59a4.41 4.41 0 0 1-2.69 0 3.516 3.516 0 0 1-1.1-.59 2.771 2.771 0 0 1-.75-.89 2.389 2.389 0 0 1-.27-1.13c0-.233.031-.465.09-.69.065-.22.156-.431.27-.63a2.765 2.765 0 0 1 .98-.97 1.828 1.828 0 0 1-.34-.39 2.712 2.712 0 0 1-.26-.47 2.25 2.25 0 0 1-.16-.5 2.395 2.395 0 0 1-.06-.52c-.004-.347.075-.69.23-1 .161-.308.374-.585.63-.82.28-.235.598-.421.94-.55a3.38 3.38 0 0 1 2.29 0zm7.41 0c.342.129.66.315.94.55.263.231.48.51.64.82.155.31.234.653.23 1-.001.175-.021.35-.06.52-.04.174-.093.345-.16.51-.073.164-.16.321-.26.47a2.113 2.113 0 0 1-.34.39c.419.235.766.58 1 1 .115.197.202.41.26.63.038.214.045.433.02.65.004.393-.088.781-.27 1.13a2.89 2.89 0 0 1-.75.89c-.328.26-.701.46-1.1.59a4.41 4.41 0 0 1-2.69 0 3.675 3.675 0 0 1-1.11-.59 2.85 2.85 0 0 1-.74-.89 2.389 2.389 0 0 1-.27-1.13 2.53 2.53 0 0 1 .36-1.32 2.765 2.765 0 0 1 .98-.97 1.828 1.828 0 0 1-.34-.39 2.163 2.163 0 0 1-.26-.47 2.266 2.266 0 0 1-.17-.5 3.224 3.224 0 0 1 0-.52c-.009-.347.07-.691.23-1 .153-.313.367-.591.63-.82.28-.235.598-.421.94-.55a3.38 3.38 0 0 1 2.29 0zm-9.22 5.16c-.195.075-.377.18-.54.31-.15.128-.272.284-.36.46a1.273 1.273 0 0 0 0 1.12c.092.165.214.31.36.43.164.124.346.222.54.29a2.26 2.26 0 0 0 1.33 0c.196-.064.379-.162.54-.29a1.37 1.37 0 0 0 .37-.43c.084-.175.128-.366.13-.56a1.324 1.324 0 0 0-.13-.56 1.368 1.368 0 0 0-.37-.46 1.772 1.772 0 0 0-.54-.31 2.07 2.07 0 0 0-1.33 0zm7.36 0c-.195.075-.377.18-.54.31-.15.128-.272.284-.36.46-.187.35-.187.77 0 1.12.092.165.214.31.36.43.164.124.346.222.54.29a2.26 2.26 0 0 0 1.33 0 1.86 1.86 0 0 0 .54-.29c.149-.116.272-.263.36-.43a1.189 1.189 0 0 0 0-1.12 1.348 1.348 0 0 0-.36-.46 1.908 1.908 0 0 0-.54-.31 2.07 2.07 0 0 0-1.33 0zm.68-3.66a1.282 1.282 0 0 0-.48.09 1.09 1.09 0 0 0-.65.56 1 1 0 0 0-.09.41.922.922 0 0 0 .09.41c.064.126.152.238.26.33.116.096.248.17.39.22.155.052.317.08.48.08.157 0 .312-.028.46-.08.142-.05.274-.124.39-.22a.922.922 0 0 0 .26-.33.914.914 0 0 0 .1-.41 1.005 1.005 0 0 0-.1-.41 1.064 1.064 0 0 0-.26-.34 1.248 1.248 0 0 0-.39-.22 1.179 1.179 0 0 0-.46-.09zm-7.36 0a1.282 1.282 0 0 0-.48.09 1.064 1.064 0 0 0-.64.55.861.861 0 0 0-.1.41.804.804 0 0 0 .1.41c.06.128.149.241.26.33.11.098.24.173.38.22a1.45 1.45 0 0 0 1 0c.138-.051.267-.126.38-.22a.922.922 0 0 0 .26-.33.792.792 0 0 0 .05-.4.861.861 0 0 0-.1-.41 1.064 1.064 0 0 0-.26-.34 1.301 1.301 0 0 0-.38-.22 1.27 1.27 0 0 0-.47-.09z" fill="#555"/><path d="M58.24 34c.91 1 5.19 6.22 6.55 12.49 0 .1.17.12.2 0 .85-2.28 6.22-15.13 20.4-17.81.12 0 .13-.2 0-.21-2.65-.25-12.43-.39-20.5 9.47-.08.1-.19.1-.25 0a7.83 7.83 0 0 0-6.31-4.14.12.12 0 0 0-.09.2z" fill="#F3BA0C"/></svg>