<svg width="128" height="80" viewBox="0 0 128 80" fill="none" xmlns="http://www.w3.org/2000/svg">
<path d="M64 38.2221C63.6947 38.6212 63.298 38.9411 62.8432 39.1548C62.3885 39.3686 61.889 39.4699 61.3869 39.4503C59.4794 39.4503 58.3035 38.3005 58.3035 36.4452C58.3035 34.59 59.4533 33.4925 61.3608 33.4925C62.406 33.4663 63.3729 33.9367 64 34.7467L64.1829 35.008L67.005 32.7869L66.796 32.5256C66.0949 31.7631 65.2362 31.1625 64.2795 30.7654C63.3229 30.3683 62.2912 30.1843 61.2563 30.2261C57.206 30.2261 54.593 32.6824 54.593 36.4452C54.593 40.208 57.206 42.7166 61.2563 42.7166C63.608 42.7166 65.4633 41.9327 66.796 40.4432L67.005 40.1819L64.1829 37.9608L64 38.2221ZM75.001 30.2261C71.003 30.2261 68.207 32.7869 68.207 36.4714C68.207 40.1297 71.003 42.7166 75.001 42.7166C78.999 42.7166 81.795 40.1558 81.795 36.4714C81.795 32.8131 79.0251 30.2 75.001 30.2V30.2261ZM75.001 39.4764C73.1196 39.4764 71.9176 38.3005 71.9176 36.4714C71.9176 34.6422 73.1719 33.4663 75.001 33.4663C76.8824 33.4663 78.1105 34.6422 78.1105 36.4714C78.1105 38.3005 76.8824 39.4764 75.001 39.4764ZM84.5126 30.4613H88.1709V42.4814H84.5126V30.4613ZM99.4332 36.3407L93.2402 30.4352H91.3065V42.4553H94.8603V36.602L101.027 42.5075H102.961V30.4613H99.4332V36.3407ZM111.819 34.9297C110.173 34.59 109.389 34.407 109.389 33.9367C109.389 33.4141 110.304 33.3618 110.695 33.3618C111.793 33.3618 112.89 33.6231 113.936 34.0151L114.197 34.1196L115.686 31.2714L115.399 31.1407C113.913 30.5102 112.309 30.2071 110.695 30.2523C107.508 30.2523 105.705 31.6633 105.705 34.1719C105.705 36.9417 108.161 37.6211 110.46 38.0653C112.002 38.3266 112.289 38.5879 112.289 38.9538C112.289 39.1367 112.289 39.6593 110.878 39.6593C109.572 39.607 108.265 39.2935 107.063 38.7186L106.802 38.5879L105.417 41.4885L105.678 41.6191C107.351 42.403 109.154 42.7688 110.983 42.7166C115.138 42.7166 116 40.5477 116 38.7186C116 36.1055 113.988 35.3477 111.819 34.9297ZM22.4784 45.5387C23.7614 48.778 26.1338 51.4684 29.1871 53.1466C32.2404 54.8248 35.7833 55.3857 39.2057 54.7326C42.628 54.0796 45.7155 52.2534 47.9362 49.5688C50.157 46.8842 51.372 43.5092 51.372 40.0251C51.372 36.541 50.157 33.166 47.9362 30.4814C45.7155 27.7968 42.628 25.9707 39.2057 25.3177C35.7833 24.6646 32.2404 25.2255 29.1871 26.9037C26.1338 28.5819 23.7614 31.2723 22.4784 34.5116V25.7317H12V54.2925H22.5045V45.5387H22.4784ZM32.7477 30.4874H34.9166V32.3166C35.4653 32.2382 36.0402 32.1859 36.5889 32.2121H37.0854V30.4874H39.2543V32.5256C40.863 32.9175 42.3131 33.793 43.409 35.0342L40.4301 37.3859C40.0033 36.8162 39.4458 36.3574 38.8046 36.0482C38.1634 35.7389 37.4573 35.5883 36.7457 35.6091C34.0804 35.6091 32.408 37.1769 32.408 39.79C32.408 42.403 34.0804 44.0493 36.7196 44.0493C37.4333 44.0772 38.1432 43.9327 38.7891 43.6279C39.435 43.3232 39.998 42.8671 40.4301 42.2985L43.409 44.6503C42.3175 45.9096 40.853 46.7883 39.2281 47.1588V49.0925H37.0854V47.4462H36.6151C36.0402 47.4462 35.4915 47.4201 34.9427 47.3417V49.0925H32.7477V46.7407C30.0302 45.591 28.41 43.1608 28.41 39.79C28.41 36.4191 30.0302 34.0412 32.7477 32.8915V30.4874ZM60.5508 49.6412C60.5508 47.9688 61.8573 46.7668 63.5558 46.7668C63.9848 46.7521 64.4117 46.8336 64.8051 47.0054C65.1985 47.1773 65.5484 47.435 65.8291 47.7598L65.0191 48.5176C64.7881 48.2302 64.4734 48.0218 64.1186 47.9212C63.7638 47.8207 63.3866 47.833 63.0391 47.9565C62.6917 48.08 62.3913 48.3085 62.1795 48.6103C61.9677 48.9122 61.8551 49.2725 61.8573 49.6412C61.8551 50.0099 61.9677 50.3702 62.1795 50.6721C62.3913 50.9739 62.6917 51.2025 63.0391 51.3259C63.3866 51.4494 63.7638 51.4617 64.1186 51.3612C64.4734 51.2607 64.7881 51.0522 65.0191 50.7648L65.8291 51.5226C65.2543 52.1759 64.4181 52.5417 63.5558 52.4895C61.8312 52.4895 60.5508 51.3136 60.5508 49.6151V49.6412ZM73.407 52.4111L72.3095 50.8432H71.1337V52.4111H69.8533V46.8714H72.2573C73.7206 46.8714 74.6613 47.6553 74.6613 48.8834C74.6874 49.6673 74.2432 50.3467 73.5116 50.6342L74.7658 52.4111H73.407ZM72.1789 47.9166H71.1337V49.8503H72.1789C72.9628 49.8503 73.3548 49.4844 73.3548 48.8834C73.3548 48.2824 72.9628 47.9166 72.1789 47.9166ZM81.403 50.4513V52.4111H80.1226V50.4251L77.9799 46.8714H79.3387L80.8281 49.3276L82.2915 46.8714H83.5719L81.403 50.4513ZM92.0121 48.8834C92.0121 50.1116 91.0714 50.8694 89.608 50.8694H88.4844V52.4111H87.204V46.8714H89.608C91.0714 46.8714 92.0121 47.6553 92.0121 48.8834ZM90.7055 48.8834C90.7055 48.2563 90.3136 47.9166 89.5296 47.9166H88.4844V49.8241H89.5296C90.3136 49.8241 90.7055 49.4844 90.7055 48.8834ZM97.0814 47.9166H95.3045V46.8714H100.139V47.9166H98.3618V52.4111H97.0553L97.0814 47.9166ZM103.536 49.6412C103.536 47.995 104.842 46.7668 106.567 46.7668C108.318 46.7668 109.598 47.9688 109.598 49.6412C109.598 51.3136 108.291 52.5156 106.567 52.5156C104.842 52.5156 103.536 51.2874 103.536 49.6412ZM108.318 49.6412C108.307 49.3036 108.198 48.9765 108.004 48.7004C107.809 48.4244 107.538 48.2115 107.223 48.0881C106.909 47.9648 106.565 47.9365 106.235 48.0068C105.905 48.077 105.602 48.2427 105.365 48.4833C105.128 48.7238 104.967 49.0287 104.902 49.36C104.836 49.6914 104.87 50.0346 104.998 50.3471C105.126 50.6597 105.343 50.9278 105.622 51.1181C105.9 51.3085 106.229 51.4128 106.567 51.4181C106.801 51.4256 107.034 51.3845 107.252 51.2975C107.469 51.2105 107.666 51.0794 107.831 50.9126C107.995 50.7457 108.123 50.5466 108.207 50.3278C108.291 50.109 108.329 49.8752 108.318 49.6412Z" fill="black"/>
</svg>
