<svg width="96" height="60" viewBox="0 0 96 60" fill="none" xmlns="http://www.w3.org/2000/svg">
<path d="M51.8751 29.5526C51.8751 25.6406 54.1633 23.3224 57.6324 23.3224C59.9206 23.3224 61.692 24.3366 62.5778 26.0753C62.7254 26.3651 62.7992 26.7273 62.7992 27.017C62.7992 27.669 62.3563 28.1037 61.692 28.1037C61.1015 28.1037 60.7325 27.8864 60.4372 27.2344C59.9206 26.0028 58.8872 25.4233 57.6324 25.4233C55.7133 25.4233 54.4585 27.017 54.4585 29.5526C54.4585 32.1605 55.7133 33.6818 57.6324 33.6818C58.961 33.6818 59.9206 33.1023 60.4372 31.8707C60.7325 31.2912 61.0277 31.0739 61.5444 31.0739C62.2825 31.0739 62.7254 31.5085 62.7254 32.1605C62.7254 32.4503 62.6516 32.7401 62.504 33.0298C61.7658 34.696 59.9206 35.7102 57.5586 35.7102C54.0895 35.7827 51.8751 33.4645 51.8751 29.5526Z" fill="#B3BBC8"/>
<path d="M64.2754 33.0298C64.2754 31.4361 65.5302 30.4219 67.8184 30.3494L70.1065 30.1321V29.5526C70.1065 28.6832 69.5161 28.2486 68.5565 28.2486C67.8184 28.2486 67.3755 28.4659 66.785 29.1903C66.4898 29.4801 66.1945 29.625 65.8255 29.625C65.235 29.625 64.7921 29.2628 64.7921 28.6832C64.7921 28.4659 64.8659 28.321 64.9397 28.1037C65.3826 27.017 66.8588 26.3651 68.7041 26.3651C71.0661 26.3651 72.5423 27.5241 72.5423 29.3352V34.4062C72.5423 35.2031 72.0256 35.6378 71.3613 35.6378C70.697 35.6378 70.2542 35.2756 70.1804 34.5511V34.1165H70.1065C69.5899 35.0582 68.4827 35.6378 67.3017 35.6378C65.604 35.7102 64.2754 34.6236 64.2754 33.0298ZM70.1065 32.3054V31.6534L68.1874 31.7983C67.2279 31.8707 66.7112 32.3054 66.7112 32.8849C66.7112 33.5369 67.3017 33.9716 68.1136 33.9716C69.2208 33.9716 70.1065 33.2472 70.1065 32.3054Z" fill="#B3BBC8"/>
<path d="M74.1662 33.9716C74.0924 33.8267 74.0924 33.6818 74.0924 33.5369C74.0924 32.9574 74.5352 32.5952 75.1257 32.5952C75.4948 32.5952 75.8638 32.7401 76.2329 33.1747C76.7496 33.8267 77.2663 34.1165 78.2258 34.1165C79.1115 34.1165 79.702 33.7543 79.702 33.1747C79.702 32.6676 79.4068 32.4503 78.5211 32.233L76.971 31.9432C75.1995 31.581 74.3138 30.6392 74.3138 29.3352C74.3138 27.5966 75.79 26.5099 78.152 26.5099C80.0711 26.5099 81.3997 27.3793 81.695 28.3935C81.695 28.5384 81.7688 28.6108 81.7688 28.7557C81.7688 29.2628 81.4735 29.625 80.8092 29.625C80.514 29.625 80.1449 29.4801 79.9235 29.2628C79.4806 28.6832 78.9639 28.321 78.0782 28.321C77.2663 28.321 76.6758 28.6832 76.6758 29.2628C76.6758 29.6974 77.0448 30.0597 77.9306 30.2045L79.4068 30.4943C81.3259 30.929 82.1378 31.581 82.1378 32.9574C82.1378 34.7685 80.514 35.8551 78.0782 35.8551C76.0115 35.7827 74.609 35.0582 74.1662 33.9716Z" fill="#B3BBC8"/>
<path d="M83.6879 34.4787V24.554C83.6879 23.7571 84.1307 23.3224 84.9427 23.3224C85.7546 23.3224 86.1236 23.7571 86.1236 24.554V28.1761H86.1975C86.7141 27.017 87.6737 26.4375 89.0761 26.4375C91.069 26.4375 92.25 27.7415 92.25 29.7699V34.4062C92.25 35.2756 91.7333 35.7102 90.9952 35.7102C90.2571 35.7102 89.7404 35.2756 89.7404 34.4062V30.3494C89.7404 29.1903 89.1499 28.4659 88.0427 28.4659C86.8618 28.4659 86.1975 29.2628 86.1975 30.4219V34.4062C86.1975 35.2756 85.6808 35.7102 84.9427 35.7102C84.2045 35.7827 83.6879 35.348 83.6879 34.4787Z" fill="#B3BBC8"/>
<path d="M12.0907 23.25H9.65492C9.58111 23.25 9.58111 23.3224 9.58111 23.3224V31.7259C9.58111 32.3054 9.28586 32.8849 8.69537 33.1747C8.47394 33.3196 8.2525 33.3196 7.95726 33.3196C7.44058 33.3196 6.92389 33.0298 6.62865 32.5952C6.48103 32.3778 6.40721 32.0881 6.40721 31.7983C6.40721 31.7259 6.3334 31.7259 6.3334 31.7259H3.82381C3.82381 31.7259 3.75 31.7259 3.75 31.7983C3.75 31.7983 3.75 31.7983 3.75 31.8707C3.82381 34.1165 5.6691 35.9276 7.95726 35.9276H8.03107C10.3192 35.9276 12.2383 34.044 12.2383 31.7259V23.3224C12.1645 23.3224 12.1645 23.25 12.0907 23.25Z" fill="#FF6300"/>
<path d="M37.9985 29.4801C37.5557 28.3935 36.6699 27.5241 35.5628 27.0895C34.3818 26.6548 33.0532 26.6548 31.946 27.0895C31.3555 27.3068 30.9126 27.669 30.4698 28.0313C30.0269 28.4659 29.7317 28.9006 29.5102 29.4801C29.2888 30.0597 29.1412 30.6392 29.1412 31.2912C29.1412 31.9432 29.2888 32.5227 29.5102 33.1023C29.7317 33.6094 30.0269 34.1165 30.4698 34.5511C30.9126 34.9858 31.3555 35.2756 31.946 35.4929C33.127 35.9276 34.3818 35.9276 35.5628 35.4929C36.0794 35.2756 36.5961 34.9134 37.039 34.5511C37.4819 34.1165 37.7771 33.6818 37.9985 33.1023C38.22 32.5227 38.3676 31.9432 38.3676 31.2912C38.3676 30.7116 38.22 30.0597 37.9985 29.4801ZM32.4627 29.6974C32.6103 29.5526 32.8317 29.4077 33.0532 29.3352C33.496 29.1903 34.0865 29.1903 34.5294 29.3352C34.7508 29.4077 34.9723 29.5526 35.1199 29.6974C35.2675 29.9148 35.4151 30.1321 35.5628 30.3494C35.7842 31.0014 35.7842 31.6534 35.5628 32.3054C35.489 32.5952 35.3413 32.8125 35.1199 32.9574C34.9723 33.1023 34.7508 33.2472 34.5294 33.392C34.0865 33.5369 33.496 33.5369 33.0532 33.392C32.8317 33.3196 32.6103 33.1747 32.4627 32.9574C32.3151 32.7401 32.1674 32.5227 32.0198 32.3054C31.7984 31.7259 31.7984 31.0014 32.0198 30.4219C32.0936 30.1321 32.2412 29.8423 32.4627 29.6974Z" fill="#FF6300"/>
<path d="M47.5202 30.4219V35.8551C47.5202 35.9276 47.4464 35.9276 47.4464 35.9276H47.5202H45.0106C44.9368 35.9276 44.9368 35.8551 44.9368 35.8551V30.8565C44.9368 30.6392 44.9368 30.4219 44.863 30.2045C44.7892 29.9872 44.7154 29.8423 44.5678 29.6974C44.494 29.625 44.4201 29.5526 44.4201 29.5526C44.1987 29.4077 43.8297 29.3352 43.5344 29.3352C43.0915 29.3352 42.6487 29.5526 42.4272 29.9148C42.3534 30.0597 42.2796 30.2045 42.2796 30.4219C42.2796 30.5668 42.2796 30.7116 42.2796 30.8565V35.9276C42.2796 36 42.2058 36 42.2058 36H39.77C39.6962 36 39.6962 35.9276 39.6962 35.9276V27.017C39.6962 26.9446 39.77 26.9446 39.77 26.9446H42.0582C42.132 26.9446 42.132 27.017 42.132 27.017V27.4517C42.132 27.4517 42.132 27.4517 42.132 27.5241C42.132 27.5241 42.132 27.5241 42.2058 27.5241C42.3534 27.3793 42.501 27.3068 42.6487 27.2344C43.6082 26.7997 44.6416 26.7997 45.6749 27.1619C46.1178 27.3068 46.4131 27.5966 46.7083 27.9588C47.0035 28.321 47.225 28.6832 47.2988 29.0455C47.4464 29.4801 47.5202 29.9148 47.5202 30.4219Z" fill="#FF6300"/>
<path d="M27.9602 26.9446H26.5578C26.4839 26.9446 26.4839 26.8722 26.4839 26.8722V23.3224C26.4839 23.25 26.4101 23.25 26.4101 23.25H23.9744C23.9005 23.25 23.9005 23.3224 23.9005 23.3224V26.6548C23.9005 26.7273 23.8267 26.7273 23.8267 26.7273H23.0148C22.941 26.7273 22.941 26.7997 22.941 26.7997V29.0455C22.941 29.1179 23.0148 29.1179 23.0148 29.1179H23.8267C23.9005 29.1179 23.9005 29.1903 23.9005 29.1903V32.1605C23.9005 34.1165 25.5244 35.7827 27.5173 35.7827C27.6649 35.7827 27.8864 35.7827 28.034 35.7827C28.1078 35.7827 28.1078 35.7102 28.1078 35.7102V33.2472C28.1078 33.1747 28.034 33.1747 28.034 33.1747H27.4435C27.0006 33.1747 26.5578 32.8125 26.4839 32.3778C26.4839 32.3778 26.4839 32.3054 26.4839 32.233V29.4801C26.4839 29.4077 26.5578 29.4077 26.5578 29.4077H27.9602C28.034 29.3352 28.034 29.3352 28.034 29.2628V27.0895C28.034 27.017 28.034 26.9446 27.9602 26.9446Z" fill="#FF6300"/>
<path d="M20.7266 27.8139C20.7266 27.8139 20.6528 27.7415 20.579 27.7415C19.6195 27.0895 18.4385 26.7997 17.2575 26.9446H17.1837C16.8146 27.017 16.3718 27.0895 16.0027 27.2344C15.486 27.4517 14.9693 27.8139 14.6003 28.1761C14.2312 28.5384 13.8622 29.0455 13.6407 29.625C13.4193 30.2045 13.2717 30.7841 13.2717 31.4361C13.2717 32.0156 13.4193 32.6676 13.6407 33.2472C13.8622 33.7543 14.1574 34.2614 14.6003 34.696C15.0432 35.1307 15.486 35.4205 16.0765 35.6378C16.5932 35.8551 17.1099 35.9276 17.7004 36C17.848 36 17.9956 36 18.1432 36H18.4385C19.8409 35.9276 21.0957 35.1307 21.8338 34.044V33.8991L19.6933 33.3196C19.6195 33.3196 19.5457 33.3196 19.5457 33.3196C19.4719 33.3196 19.398 33.392 19.3242 33.392C18.8075 33.7543 18.1432 33.8267 17.5528 33.6094C17.0361 33.392 16.5932 32.9574 16.3718 32.4503V32.3778H22.0553C22.0553 32.3778 22.1291 32.3778 22.1291 32.3054C22.4243 31.4361 22.3505 30.4943 21.9814 29.625C21.6862 28.8281 21.2433 28.2486 20.7266 27.8139ZM19.5457 30.1321H16.298C16.298 30.0597 16.298 30.0597 16.3718 29.9872C16.4456 29.9148 16.5194 29.8423 16.5932 29.7699C16.7408 29.625 16.9623 29.4801 17.1837 29.4077C17.6266 29.2628 18.2171 29.2628 18.6599 29.4077C19.029 29.5526 19.3242 29.7699 19.5457 30.1321C19.4719 30.1321 19.4719 30.0597 19.5457 30.1321Z" fill="#FF6300"/>
</svg>
