<svg width="128" height="80" fill="none" xmlns="http://www.w3.org/2000/svg"><path d="m111.65 33 3 8.56 2.89-8.56H123l-3.03 7.39a424.26 424.26 0 0 0-.824 2.035l-.183.454c-.793 1.975-1.603 4.011-1.603 4.011s-1.11 3.66-2.59 4.81a6.15 6.15 0 0 1-3.57 1c-.8.034-3.432.049-6.845.052l-.869.001h-2.767l-2.433-.003-.992-.002-2.495-.005c-5.815-.014-11.431-.036-13.593-.042h-.478L80.5 52.7l.76-3.53h28.78a2.4 2.4 0 0 0 1.62-.61 1.51 1.51 0 0 0 .5-1.33 3.409 3.409 0 0 0-.35-1.46c-.61-1.36-5.45-12.77-5.45-12.77h5.29zm-26.33-.56a5.29 5.29 0 0 1 4.41 2.16 8.61 8.61 0 0 1 1.66 5.4 8.35 8.35 0 0 1-1.73 5.39 5.36 5.36 0 0 1-4.34 2.14 4.35 4.35 0 0 1-4-2.32l-1.51 7.43h-6.2l4-19.95h3.69v2.1a4.35 4.35 0 0 1 4.02-2.35zm14.45.19c4.693 0 7.073 1.44 7.14 4.32v7.79a2.58 2.58 0 0 0 1 2v.44H103a2.573 2.573 0 0 1-.52-1.67 8.07 8.07 0 0 1-5.26 1.97 6 6 0 0 1-3.84-1.16 3.69 3.69 0 0 1-1.45-3c0-3.18 3-4.11 5.65-4.49.81-.11 1.62-.21 2.44-.3a3.79 3.79 0 0 0 2.12-.71.999.999 0 0 0 .35-.84c-.09-1.88-3.23-1.64-4.34-1a2.17 2.17 0 0 0-.84 1.51h-5c.28-3.24 2.767-4.86 7.46-4.86zm2.72 7.84a10.09 10.09 0 0 1-1.72.4l-1.41.21c-1 .16-2.33.48-2.33 1.73s1.1 1.54 2.07 1.55c1.9 0 3.39-1.02 3.39-3v-.89zm-18.025-3.835a2 2 0 0 0-1.705.955 4.77 4.77 0 0 0 0 4.81 2 2 0 0 0 1.7.91 2 2 0 0 0 1.7-.92 3.93 3.93 0 0 0 .66-2.39 4.12 4.12 0 0 0-.65-2.41 2 2 0 0 0-1.705-.955z" fill="#4873AC"/><path d="M41.86 31.89a6.35 6.35 0 0 1 4.9 1.79c1.42 1.54.62 3.43-.05 4.95l-.28.67-2.29 5.85a1.587 1.587 0 0 0-.14.45c-.006.328.138.64.39.85a.47.47 0 0 1 .09.48l-.19.44a.55.55 0 0 1-.51.32h-4.74a.53.53 0 0 1-.5-.32 2.056 2.056 0 0 1-.15-.55 10.47 10.47 0 0 1-4.82 1.34A5.26 5.26 0 0 1 30.09 47 3.13 3.13 0 0 1 29 43.39a6.82 6.82 0 0 1 2.92-3.15 12.24 12.24 0 0 1 4.18-1.63c.716-.14 1.441-.227 2.17-.26h.58c1.7-.11 2.72-.5 3.15-1.11a.46.46 0 0 0 0-.51 1.12 1.12 0 0 0-.79-.53 4.34 4.34 0 0 0-2.68.33 2.68 2.68 0 0 0-1 .92.58.58 0 0 1-.6.22l-3.71-.79a.55.55 0 0 1-.36-.26.43.43 0 0 1 0-.44 7.129 7.129 0 0 1 2.75-2.7 13.88 13.88 0 0 1 6-1.59h.25zm11.31.69c2.9-.97 6.9-1.11 8.9.89a3.44 3.44 0 0 1 1 2.43v.1l-5.15 1.24v-.19a1 1 0 0 0-.36-.87 3 3 0 0 0-2.38-.31c-.55.13-1.46.33-1.39.88.01.28.47.46.74.57.706.246 1.432.426 2.17.54 1.93.36 4.11.76 4.65 2.88.63 2.47-1.62 4.84-4.17 5.9a13.2 13.2 0 0 1-5.07 1c-.967 0-1.932-.097-2.88-.29a4.64 4.64 0 0 1-3.63-2.69 2.76 2.76 0 0 1-.16-1.42c.05-.4.07-.53 4.7-1.18a.57.57 0 0 1 .42.12.44.44 0 0 1 .18.38.89.89 0 0 0 .25.75 3.27 3.27 0 0 0 2.1.48 5.24 5.24 0 0 0 2.05-.35c.38-.16.59-.38.6-.62.01-.24-.22-.49-.61-.66a6.281 6.281 0 0 0-1.47-.4l-.61-.13c-.4-.09-.82-.18-1.14-.28a7.763 7.763 0 0 1-1.66-.71 4.1 4.1 0 0 1-2.05-2.52 3.13 3.13 0 0 1 .49-2.49 8.83 8.83 0 0 1 4.48-3.05zm20.413-.263.427.013a13.853 13.853 0 0 1 3.2.31 4 4 0 0 1 1.86.82c.32.272.573.614.74 1a2 2 0 0 1 .08 1.02c-.08.41-.207.81-.38 1.19l-3.33 8s-.18.44-.18.56c0 .214-.184.948-.34 1.528l-.08.297c-.075.273-.13.465-.13.465h-10a5.51 5.51 0 0 1-3.45-1A2.52 2.52 0 0 1 61 44c.06-.308.157-.607.29-.89.204-.44.462-.854.77-1.23.391-.5.845-.946 1.35-1.33a9.307 9.307 0 0 1 2.14-1.15c.965-.375 1.973-.63 3-.76l2-.23.57-.07.64-.07.64-.09c.213-.03.423-.072.63-.13.14-.05.33-.1.56-.16.194-.047.38-.125.55-.23.148-.096.288-.203.42-.32a1.42 1.42 0 0 0 .33-.41c.076-.155.13-.32.16-.49.11-.76-.64-1.14-2.26-1.14a5.8 5.8 0 0 0-2.52.45 3.59 3.59 0 0 0-1.52 1.54h-4.36a7.31 7.31 0 0 1 3.4-3.78 13.67 13.67 0 0 1 6.22-1.18l-.427-.013zM38.47 27.24l-2.55 3.65h-.09a12.29 12.29 0 0 0-1.28-.05h-.26c-.49-.04-1.09.33-1.66 1.07l-.28.57h2l-2.39 4.18h-1.84l-5 10.07h-.11L10.33 46v-.28c.045-.006 2.756-.192 5.564-.323l.816-.036.54-.022c1.074-.041 2.1-.069 2.93-.069l2.8-5.24-17.91-2v-.32h.044c.537-.013 5.822-.15 11.018-.25l.724-.014c2.89-.055 5.682-.096 7.534-.096l.21-.4c-1.29-.23-3.086-.532-4.863-.826l-.56-.093c-2.974-.49-5.739-.931-5.787-.931v-.32c.041 0 2.56-.144 5.23-.26l.83-.036c1.57-.065 3.11-.114 4.15-.114a1.79 1.79 0 0 0 .76-.84c.111-.246.271-.467.47-.65a2.57 2.57 0 0 1 1.31-.18H27L8.98 30.5v-.32h.043c.826-.018 13.107-.32 18.447-.32.103-.01.207-.01.31 0h.71c-1.574-.214-3.502-.483-5.424-.754l-.64-.09-.32-.046-.633-.09c-3.782-.536-7.142-1.02-7.203-1.02v-.32h.044c.51-.007 5.284-.081 10.351-.147l1.115-.014c3.848-.049 7.696-.089 9.83-.089h2.57l.29-.05zM71 39.52a2.71 2.71 0 0 0-2.26 1.85 1.4 1.4 0 0 0 .26 1.51l-2.29 3.35h4.13v-3.35a2.88 2.88 0 0 0 1.26-1.51c.34-1.02-.1-1.85-1.1-1.85zm-30.68 1.69-.54.1-.9.13-.09.06c-.83.094-1.65.261-2.45.5a2.46 2.46 0 0 0-1.67 1.31c-.13.41.02.58.16.69a3.32 3.32 0 0 0 2.49.16 4.94 4.94 0 0 0 3-2.87v-.08z" fill="#F6931C"/></svg>