<svg width="128" height="80" fill="none" xmlns="http://www.w3.org/2000/svg"><path d="m31.734 23 6.29 27.242L10.438 56.6 4 29.21 31.734 23z" fill="#004361"/><path d="M108.646 47.894h-4.457V31.853h4.457v16.041zM106.368 29.7c1.585 0 2.873-1.173 2.873-2.64 0-1.468-1.288-2.641-2.873-2.641-1.584 0-2.872 1.173-2.872 2.64 0 1.468 1.288 2.642 2.872 2.642z" fill="#B6CDED"/><path fill-rule="evenodd" clip-rule="evenodd" d="M19.75 24.565v9.293c2.475-3.424 8.914-3.424 10.4 1.956 1.337 4.793-.595 11.689-6.439 12.227-5.448.489-8.42-.49-8.42-.49V24.566h4.458zm0 20.052s4.952 1.468 5.942-3.423c0 0 .99-5.38-2.476-5.87-3.467-.488-3.467 5.38-3.467 5.38v3.913zM38.816 44.373c3.467 1.467 7.429-.49 7.429-.49l.495 3.424c-2.476 1.467-6.933.978-6.933.978-5.448-.489-6.439-3.423-6.934-5.869-.495-2.445 0-5.38 0-5.38.99-4.401 5.943-5.38 5.943-5.38 4.953-.489 6.934 1.468 7.924 3.913.99 2.445.248 5.135.248 5.135h-9.905c-.248 2.201 1.733 3.669 1.733 3.669zm-1.486-6.358h5.448s.495-3.424-2.971-3.424c-2.972.978-2.477 3.423-2.477 3.423z" fill="#B6CDED"/><path d="M53.773 31.852H48.82l5.596 16.336c-1.089 5.33-5.398 3.814-5.398 3.814l-.594 3.62c7.924 1.956 10.202-7.337 10.202-7.337l6.538-16.433H60.21l-3.318 9.733-3.12-9.733z" fill="#B6CDED"/><path fill-rule="evenodd" clip-rule="evenodd" d="M70.364 32.537s2.08-1.125 4.803-.978c6.637.342 8.123 5.967 6.538 11.151-1.337 4.353-5.597 5.233-5.597 5.233s-4.952 1.468-8.22-2.005c-3.27-3.424-1.239-9.293-.645-10.32.595-1.027 1.338-2.005 3.12-3.08zm3.862 2.788c-2.03 0-3.417 1.956-3.417 4.548 0 2.593.793 4.647 3.418 4.647 2.03 0 3.417-2.103 3.417-4.647 0-2.543-.941-4.5-3.418-4.548z" fill="#B6CDED"/><path d="M89.43 31.852h-4.11c0-.195.099 16.091-.05 16.091h4.557v-8.51c.346-3.472 2.575-4.01 2.575-4.01 3.368-.88 2.674 3.032 2.674 3.032v9.341h4.557v-11.64c-.198-2.347-1.04-3.766-2.427-4.255-1.387-.489-2.575-.538-4.309-.195-1.733.342-3.467 2.64-3.467 2.64v-2.494zM111.865 39.629c-.148-6.407 6.538-9.635 12.085-7.385l-.892 3.57c-2.971-1.32-6.092.049-6.537 3.277-.198 1.418-.099 3.326 1.089 4.402 1.486 1.271 4.012.782 5.597.097l.792 3.424c.043.17-1.4.596-1.884.739-.075.022-.127.037-.146.044-2.774.684-6.587.342-8.519-1.957-1.436-1.712-1.535-4.06-1.585-6.211z" fill="#B6CDED"/></svg>