<svg width="128" height="80" viewBox="0 0 128 80" fill="none" xmlns="http://www.w3.org/2000/svg">
<path d="M47.6911 71.2084V66.9581C47.8306 65.5623 46.7837 64.3793 45.3896 64.2397H45.0407C44.0636 64.17 43.226 64.6585 42.6677 65.4245C42.1791 64.6585 41.3434 64.1717 40.4361 64.2397C39.6665 64.17 38.9006 64.5887 38.4818 65.2151V64.3793H37.0859V71.2066H38.5534V67.4449C38.5534 66.2602 39.1798 65.6338 40.1569 65.6338C41.134 65.6338 41.6208 66.2602 41.6208 67.4449V71.2066H43.0882V67.4449C42.9468 66.6092 43.575 65.7734 44.4125 65.6338H44.6917C45.667 65.6338 46.1556 66.2602 46.1556 67.4449V71.2066H47.6911V71.2084ZM55.8534 67.7939V71.2066H54.3877V70.3709C53.8991 70.9972 53.1332 71.416 52.2939 71.3462C50.3432 71.2066 48.8078 69.5351 48.9473 67.5845C49.0869 65.7734 50.481 64.3793 52.2939 64.2397C53.1332 64.2397 53.8991 64.5887 54.3877 65.2151V64.3793H55.8534V67.7939ZM50.413 67.7939C50.481 68.9088 51.4581 69.7445 52.5748 69.6729C53.6915 69.6049 54.5273 68.6296 54.4575 67.5147C54.3877 66.4696 53.4822 65.6338 52.4353 65.6338C51.3186 65.6338 50.413 66.5394 50.413 67.6543V67.7939ZM86.8992 64.2397C87.386 64.2397 87.8745 64.3113 88.2951 64.5189C88.712 64.6585 89.1308 64.9359 89.41 65.2849C89.759 65.6338 89.9683 65.9828 90.1777 66.3998C90.5267 67.3053 90.5267 68.3504 90.1777 69.256C90.0381 69.6747 89.759 70.0917 89.41 70.3709C88.3631 71.3462 86.7596 71.6952 85.4335 71.1368C85.0147 70.9292 84.596 70.7199 84.3168 70.3709C84.0376 70.0237 83.7585 69.6729 83.6189 69.1862C83.2699 68.2806 83.2699 67.2355 83.6189 66.33C83.7585 65.913 84.0376 65.4943 84.3884 65.2151C84.7356 64.8679 85.0845 64.6585 85.5033 64.4491C85.9221 64.3095 86.4106 64.2397 86.8992 64.2397ZM86.8992 65.6338C86.62 65.6338 86.3408 65.7036 86.0617 65.7734C85.5731 65.981 85.1543 66.3998 84.945 66.8883C84.8054 67.1657 84.8054 67.4449 84.8054 67.7939C84.8054 68.0713 84.877 68.4202 84.945 68.6994C85.0148 68.9786 85.2241 69.1862 85.3637 69.3973C85.5731 69.6049 85.7825 69.7445 86.0617 69.8143C86.62 70.0237 87.1784 70.0237 87.7349 69.8143C88.0141 69.7427 88.2235 69.5351 88.4329 69.3956C88.6423 69.1862 88.7818 68.9786 88.8516 68.6976C88.9912 68.4202 88.9912 68.1428 88.9912 67.7939C88.9912 67.5147 88.9214 67.1675 88.8516 66.8883C88.7818 66.6092 88.5725 66.3998 88.4329 66.1904C88.0141 65.8432 87.5255 65.6338 86.8992 65.6338ZM63.7365 67.7939V68.3504H58.7829C58.8545 69.3258 59.76 70.0917 60.7372 70.0237C61.4351 70.0237 62.133 69.7445 62.6896 69.3258L63.3876 70.4407C62.6198 71.067 61.6445 71.416 60.6674 71.416C58.8527 71.4876 57.319 70.0237 57.2493 68.2126V67.8637C57.2493 65.7734 58.6451 64.3095 60.5958 64.3095C62.55 64.3095 63.7365 65.7036 63.7365 67.7939ZM58.7829 67.1675H62.2726C62.2726 66.2602 61.5031 65.4942 60.5976 65.4942C59.6205 65.4942 58.7829 66.2602 58.7829 67.1657V67.1675ZM69.8766 66.1206C69.2485 65.7734 68.5505 65.564 67.7828 65.564C67.015 65.564 66.5265 65.8432 66.5265 66.33C66.5265 66.8186 67.015 66.8883 67.6432 67.0279L68.3411 67.0959C69.8068 67.3053 70.6425 67.9335 70.6425 69.1182C70.6425 70.3011 69.5276 71.3462 67.5734 71.3462C66.5265 71.3462 65.5512 71.0688 64.7136 70.4407L65.4116 69.256C66.0379 69.7445 66.8075 69.9539 67.6432 69.9539C68.6203 69.9539 69.1787 69.6747 69.1787 69.1164C69.1787 68.6994 68.8297 68.49 67.9922 68.4202L67.2942 68.3504C65.8303 68.1411 64.9928 67.4449 64.9928 66.33C64.9928 65.0057 66.1095 64.17 67.7846 64.17C68.7599 64.1002 69.6672 64.3793 70.5047 64.8679L69.8766 66.1206ZM76.8524 65.7734H74.4812V68.839C74.4812 69.5351 74.6906 69.9539 75.4565 69.9539C75.8753 69.9539 76.3639 69.8143 76.7128 69.5351L77.1316 70.7879C76.5732 71.1368 75.9451 71.3462 75.317 71.3462C73.5739 71.3462 73.0155 70.4407 73.0155 68.839V65.7734H71.6197V64.4491H72.944V62.3589H74.4114V64.4491H76.7826L76.8524 65.7734ZM81.8758 64.2397C82.2248 64.2397 82.5737 64.3113 82.9227 64.4491L82.504 65.8432C82.2248 65.7036 81.8758 65.7036 81.5966 65.7036C80.6195 65.7036 80.2007 66.33 80.2007 67.4449V71.2764H78.6671V64.4491H80.131V65.2849C80.4101 64.5869 81.1081 64.2397 81.8758 64.2397Z" fill="black"/>
<circle cx="49" cy="33" r="25" fill="#EB001B"/>
<circle cx="79" cy="33" r="25" fill="#00A1DF"/>
<path fill-rule="evenodd" clip-rule="evenodd" d="M64 53.0017C70.0722 48.4407 74 41.179 74 32.9999C74 24.8208 70.0722 17.5591 64 12.998C57.9278 17.5591 54 24.8208 54 32.9999C54 41.179 57.9278 48.4407 64 53.0017Z" fill="#7673C0"/>
</svg>
