<svg xmlns="http://www.w3.org/2000/svg" width="72" height="72"><g fill="none" transform="translate(7.875 27)"><circle cx="9.087" cy="9.414" r="8.902" fill="#0D74F6"/><path fill="#FFF" d="M5.5 4.512c1.053-.007 2.106-.001 3.16-.003.053 1.25.003 2.502.023 3.752.887-.533 1.647-1.26 2.29-2.066.079-.117.194-.219.223-.361-.227-.454-.515-.874-.748-1.324 1.315.002 2.631-.008 3.946.006-.705 1.95-2.153 3.605-3.939 4.647a9.169 9.169 0 0 1-6.532 1.03c-.57-.143-1.157-.274-1.67-.57 1.073.112 2.163.143 3.227-.066.026-1.681-.017-3.364.02-5.045"/><path fill="#FFF" d="M10.014 10.074c.521-.234.998-.55 1.484-.847.974 1.693 1.958 3.383 2.9 5.095-1.05.013-2.101.004-3.152.005-.604-1.012-1.109-2.082-1.699-3.103-.294.076-.582.17-.864.282-.014.94.018 1.881-.014 2.821-1.058 0-2.116.006-3.174-.004a140.633 140.633 0 0 1-.003-3.312c1.552.02 3.118-.262 4.522-.937"/><path fill="#000" d="M25.14 15.296c.541 0 1.044-.064 1.51-.192a3.744 3.744 0 0 0 1.21-.565c.34-.248.606-.559.797-.93.19-.373.286-.798.286-1.277V5.645h-1.941v6.448c0 .283-.049.531-.146.744a1.355 1.355 0 0 1-.406.519c-.173.133-.37.23-.591.292a2.716 2.716 0 0 1-.732.093c-.531.009-.966-.117-1.302-.379-.337-.261-.51-.684-.519-1.27V5.646h-1.94v6.687c0 .479.095.904.285 1.276.19.372.454.683.791.93a3.65 3.65 0 0 0 1.196.566c.461.128.962.192 1.503.192zm8.216 0c.46 0 .902-.055 1.323-.166a3.47 3.47 0 0 0 1.123-.511c.328-.23.587-.523.778-.878.19-.354.286-.766.286-1.236 0-.417-.063-.773-.187-1.07a2.267 2.267 0 0 0-.545-.785 3.95 3.95 0 0 0-.837-.598c-.32-.173-.674-.339-1.064-.498a11.7 11.7 0 0 1-.804-.353 3.037 3.037 0 0 1-.558-.339 1.243 1.243 0 0 1-.326-.365.918.918 0 0 1-.106-.445c0-.195.042-.357.126-.486a.962.962 0 0 1 .339-.312c.142-.08.304-.135.485-.166.182-.031.37-.047.565-.047.328 0 .665.027 1.01.08a5.27 5.27 0 0 1 1.024.266l.332-1.555a6.296 6.296 0 0 0-1.156-.26 10.009 10.009 0 0 0-1.33-.086c-.398 0-.795.05-1.19.153a3.386 3.386 0 0 0-1.076.485 2.504 2.504 0 0 0-.778.857c-.195.35-.292.77-.292 1.257 0 .363.062.686.186.97.124.284.301.538.532.764.23.226.5.428.81.605.31.178.656.341 1.038.492.319.124.596.244.83.36.235.114.43.232.585.351.155.12.268.248.34.386.07.137.106.295.106.472-.01.372-.151.649-.426.83-.274.182-.678.273-1.21.273a6.956 6.956 0 0 1-2.472-.505l-.346 1.582c.488.168.982.29 1.483.365.5.076.968.113 1.402.113zm8.335-.159c.78 0 1.467-.11 2.06-.332a4.043 4.043 0 0 0 1.496-.95 4.05 4.05 0 0 0 .917-1.503c.209-.59.313-1.256.313-2 0-.727-.102-1.381-.306-1.961a3.927 3.927 0 0 0-.91-1.483 4.01 4.01 0 0 0-1.503-.937c-.598-.217-1.287-.326-2.067-.326h-3.23v9.492h3.23zm-.28-1.555h-1.01V7.2h1.01c.533 0 .998.075 1.397.226.398.15.724.365.977.644.252.28.44.614.565 1.004.124.39.186.824.186 1.303 0 .487-.062.926-.186 1.316s-.313.727-.565 1.01a2.44 2.44 0 0 1-.977.652c-.4.15-.864.226-1.396.226zm8.735 1.555v-4.72h.026l3.217 4.72h2.393l-3.55-4.905 3.377-4.587h-2.313L50.172 10.1h-.026V5.645h-1.941v9.492h1.94z"/></g></svg>