<svg width="118" height="36" viewBox="0 0 118 36" fill="none" xmlns="http://www.w3.org/2000/svg">
<path fill-rule="evenodd" clip-rule="evenodd" d="M65.5464 0.0137818C66.1433 0.020065 66.5454 0.169576 66.7005 0.227241L66.7006 0.227276C66.7155 0.232838 66.7282 0.237543 66.7385 0.241182C67.6894 0.551273 68.4681 1.62626 68.4612 2.73569C68.4612 3.49369 68.2545 4.18278 68.0064 4.87187L66.9935 7.64202L66.0218 10.2881C65.8668 10.7085 65.7135 11.1271 65.5601 11.5458C65.4068 11.9644 65.2535 12.383 65.0985 12.8033C64.6712 13.961 64.244 15.1256 63.8236 16.2832C63.4998 17.1651 63.1829 18.0469 62.866 18.9288L62.8659 18.9291L62.8658 18.9293L62.8363 19.0123C62.4537 20.087 62.0731 21.1564 61.2602 22.0096C60.5229 22.7882 59.6684 23.3809 58.6692 23.7736C57.9388 24.0631 57.1808 24.1251 56.409 24.1251C56.094 24.1251 55.7785 24.1255 55.4628 24.1259H55.4625C54.5147 24.1272 53.5649 24.1285 52.619 24.1182C52.3227 24.1182 52.1435 24.2216 52.0471 24.4903C51.7025 25.4344 51.3511 26.3784 50.9996 27.3225L50.745 28.0125L50.7444 28.0141C50.4295 28.8675 50.1138 29.7234 49.7937 30.575L49.793 30.5769C49.4694 31.4583 49.1458 32.3397 48.8152 33.2142C48.6636 33.607 48.512 33.9998 48.3673 34.4063C48.3138 34.5174 48.2751 34.6162 48.2291 34.7336C48.198 34.8127 48.1637 34.9003 48.1192 35.0058H43.3507C43.3746 34.9325 43.3982 34.8592 43.4217 34.7859L43.4218 34.7857C43.4999 34.5424 43.5777 34.3001 43.6677 34.0618C43.8297 33.6207 43.9933 33.1814 44.157 32.7421L44.1572 32.7417C44.3208 32.3025 44.4844 31.8634 44.6462 31.4226C44.7803 31.0583 44.9131 30.694 45.0457 30.3302L45.0459 30.3298C45.2268 29.8336 45.4074 29.3383 45.5903 28.8454C45.6983 28.5559 45.807 28.2665 45.9157 27.977C46.1332 27.3982 46.3506 26.8194 46.5619 26.2406C46.6959 25.8763 46.8288 25.5121 46.9614 25.1483C47.1424 24.6519 47.323 24.1565 47.506 23.6634C47.6713 23.2122 47.8383 22.7627 48.0054 22.3132L48.0055 22.3128C48.1726 21.8632 48.3398 21.4135 48.5051 20.9622L48.5052 20.9619L48.5053 20.9616C48.8154 20.1142 49.1254 19.2668 49.4423 18.4194L49.7152 17.6849L49.7155 17.684C50.0514 16.7805 50.3864 15.8793 50.7171 14.974C50.8722 14.5571 51.0272 14.1384 51.1823 13.7198C51.3373 13.3012 51.4923 12.8826 51.6474 12.4657C51.8093 12.0246 51.9713 11.5853 52.1332 11.146C52.2952 10.7067 52.4571 10.2674 52.619 9.82644C52.7766 9.39828 52.9341 8.97182 53.0917 8.54537L53.0945 8.53775C53.253 8.10882 53.4115 7.67989 53.57 7.24924C53.7319 6.80822 53.8956 6.36893 54.0592 5.92963C54.2229 5.49033 54.3865 5.05104 54.5485 4.61002C54.8792 3.72109 55.21 2.83216 55.5408 1.93635C55.7751 1.29549 56.0025 0.647746 56.2299 0C59.6615 0.0137818 62.1285 0.0137818 65.5464 0.0137818ZM61.4945 4.05186V4.06564C61.3542 4.06564 61.2132 4.06935 61.072 4.07306C60.7418 4.08175 60.4101 4.09047 60.0819 4.05186C59.7029 4.01051 59.5168 4.14833 59.3997 4.46531C59.1792 5.05793 58.9655 5.64366 58.7519 6.23628C58.5865 6.68764 58.4229 7.139 58.2592 7.59036L58.2581 7.59335C58.0948 8.0437 57.9315 8.49405 57.7665 8.9444C57.6115 9.3613 57.4547 9.77993 57.2979 10.1985C57.1412 10.6172 56.9844 11.0358 56.8294 11.4527L55.8164 14.2228C55.6935 14.5588 55.5712 14.8947 55.449 15.2305C55.16 16.0242 54.8714 16.817 54.576 17.6063C54.3486 18.2265 54.1143 18.8535 53.8663 19.4668C53.7147 19.8458 53.7974 19.9905 54.2246 19.9905H57.1532C57.6011 19.9905 57.7183 19.8872 57.8699 19.453C58.0766 18.8605 58.2894 18.2741 58.5022 17.6877C58.6087 17.3944 58.7151 17.101 58.8208 16.8069C59.0321 16.2282 59.2495 15.6495 59.4669 15.0708C59.5757 14.7812 59.6845 14.4917 59.7925 14.2022C60.1301 13.2926 60.4609 12.3761 60.7916 11.4596C60.9501 11.0255 61.1086 10.5896 61.2671 10.1538C61.4256 9.71791 61.5841 9.28206 61.7426 8.84793C62.0733 7.959 62.4041 7.07008 62.7349 6.17426L62.8451 5.88334C63.0234 5.41328 63.2032 4.93929 63.3688 4.46531C63.4722 4.169 63.3482 4.03118 63.045 4.03807C62.5213 4.05186 62.0044 4.05186 61.4945 4.05186ZM35.7018 35.0196H30.8093C30.8093 34.8198 30.8782 34.6406 30.954 34.4546L31.1233 34.0143C31.399 33.2977 31.6763 32.5772 31.9394 31.8567C32.1578 31.2743 32.3704 30.6901 32.5833 30.1049L32.5835 30.1045L32.5836 30.1041L32.5838 30.1037C32.7738 29.5814 32.9641 29.0583 33.1591 28.5353C33.336 28.0644 33.5169 27.5948 33.6977 27.1253L33.6982 27.1241L33.6984 27.1237L33.6985 27.1233L33.6986 27.123C33.9329 26.5147 34.1671 25.9067 34.3925 25.2965C34.4717 25.0802 34.5503 24.8639 34.629 24.6476L34.6302 24.6441C34.9895 23.6563 35.3478 22.6709 35.7432 21.6995C35.881 21.3618 35.8121 21.2654 35.4469 21.2722C34.241 21.2998 33.035 21.3067 31.836 21.2654C31.4708 21.2516 31.3192 21.3549 31.2021 21.7064C31.078 22.0785 30.954 22.4437 30.8162 22.8089C30.6508 23.2444 30.4832 23.68 30.3156 24.1155C30.0642 24.7687 29.8128 25.422 29.5689 26.0752C29.2876 26.8227 29.015 27.5746 28.7425 28.3259C28.5277 28.9182 28.313 29.5102 28.0943 30.0995C27.8965 30.625 27.6945 31.1495 27.4924 31.6741C27.1805 32.4841 26.8683 33.2945 26.5714 34.11C26.5402 34.1937 26.5036 34.2763 26.4669 34.359C26.3736 34.5692 26.28 34.7803 26.2751 35.0127H21.4514C21.5438 34.5184 21.7322 34.0582 21.9211 33.5968C22.014 33.3699 22.107 33.1427 22.1887 32.911C22.379 32.3712 22.5863 31.8371 22.7942 31.3014L22.7942 31.3013L22.7942 31.3013L22.7943 31.3012L22.7946 31.3005L22.7948 31.2998L22.7952 31.2989C22.9108 31.0011 23.0265 30.7028 23.1397 30.4027L24.1113 27.7979C24.2698 27.3741 24.43 26.9521 24.5902 26.53C24.7504 26.1079 24.9107 25.6859 25.0691 25.2621C25.1748 24.9796 25.2797 24.697 25.3846 24.4145C25.5944 23.8494 25.8042 23.2844 26.0201 22.7193C26.2233 22.1787 26.4299 21.6398 26.6365 21.1008L26.6368 21.1001C26.8435 20.5608 27.0503 20.0216 27.2536 19.4806C27.4777 18.883 27.6977 18.2834 27.9181 17.6828L27.9182 17.6825L27.9184 17.6821L27.9185 17.6818C28.1046 17.1747 28.2909 16.6669 28.4801 16.1592C28.7317 15.4908 28.9883 14.8224 29.245 14.1539C29.5017 13.4855 29.7584 12.8171 30.0099 12.1487C30.2317 11.5592 30.4495 10.967 30.6674 10.3746L30.6675 10.3745C30.9437 9.62335 31.2202 8.87171 31.5053 8.12439C31.8406 7.23324 32.182 6.34208 32.5235 5.45093C32.6943 5.00525 32.865 4.55956 33.035 4.11387C33.7861 2.14996 35.1988 0.888928 37.1765 0.234291C37.1943 0.228354 37.2175 0.219435 37.2459 0.208511C37.4154 0.143353 37.7705 0.00689072 38.2721 0.00689072H43.9227C44.6738 0 45.5007 0.186054 45.611 0.2274C46.7548 0.668418 47.3061 1.61247 47.3681 2.74947C47.4026 3.41789 47.1821 4.03118 46.9409 4.64447C46.7427 5.16728 46.5523 5.69524 46.3618 6.22362L46.3617 6.22384L46.3616 6.22392C46.2408 6.55904 46.1198 6.89432 45.9968 7.22857C45.783 7.81329 45.5637 8.39525 45.3441 8.97794C45.2169 9.31543 45.0896 9.65316 44.9632 9.99182C44.6531 10.8256 44.343 11.6663 44.0329 12.507C43.7786 13.1997 43.52 13.888 43.2605 14.5789L43.2605 14.579L43.2603 14.5794L43.2602 14.5799L43.0475 15.1462C42.8822 15.5907 42.7151 16.0351 42.548 16.4795C42.3809 16.924 42.2137 17.3685 42.0484 17.813L41.9083 18.1944C41.7342 18.6689 41.5592 19.1458 41.3799 19.6184C41.0698 20.466 40.7598 21.3136 40.4428 22.1612C40.2809 22.5952 40.1172 23.0292 39.9536 23.4633C39.7899 23.8975 39.6262 24.3317 39.4643 24.7659C39.3302 25.1303 39.1973 25.4946 39.0647 25.8584L39.0645 25.8588L39.0644 25.8592L39.0643 25.8596C38.8834 26.3555 38.703 26.8505 38.5202 27.3431L37.2798 30.6508C37.174 30.936 37.0667 31.2213 36.9594 31.5068C36.7245 32.1316 36.4892 32.7574 36.2669 33.3865C36.2102 33.5376 36.1493 33.6857 36.0889 33.8328C35.929 34.2221 35.7718 34.6045 35.7018 35.0196ZM32.9799 17.2342C33.0056 17.2435 33.0282 17.2537 33.0489 17.263C33.0893 17.2812 33.1227 17.2962 33.1591 17.2962C34.4683 17.3031 35.7776 17.3031 37.0869 17.3031C37.2661 17.3031 37.3901 17.2135 37.4521 17.0412C37.8242 16.0352 38.2032 15.0222 38.5822 14.0161L39.5332 11.4734C39.8639 10.5844 40.1947 9.69551 40.5255 8.7997C40.746 8.20019 40.9734 7.59379 41.2008 6.99428C41.3318 6.64401 41.4651 6.29491 41.5984 5.94602L41.5984 5.94588L41.5985 5.94576L41.5985 5.94569C41.7877 5.45045 41.9767 4.95562 42.1586 4.45842C42.3033 4.06564 42.2068 3.95538 41.7934 3.95538C41.5044 3.95538 41.2149 3.95581 40.9252 3.95624H40.9251H40.9249H40.9247H40.9247C40.0543 3.95754 39.1819 3.95883 38.3135 3.94849C38.0034 3.9416 37.8311 4.05875 37.7209 4.34817C37.1904 5.80181 36.6461 7.24857 36.1019 8.69532L36.1015 8.69633C35.8466 9.37151 35.5899 10.045 35.3333 10.7184L35.3332 10.7187L35.3331 10.719L35.333 10.7193C35.0763 11.3927 34.8197 12.0662 34.5648 12.7413C34.0893 13.9954 33.6208 15.2496 33.1591 16.5106C33.1466 16.5412 33.1337 16.5718 33.1206 16.6026C33.0398 16.7936 32.9562 16.9909 32.9799 17.2342ZM13.3064 0.0137785H22.864C23.3326 0.0137785 23.9252 0.186051 24.0424 0.227397C25.3517 0.689088 25.9443 2.01214 25.7376 3.29385C25.5951 4.18048 25.2629 4.99973 24.9306 5.81899C24.7644 6.22861 24.5983 6.63824 24.4558 7.05629C24.2212 7.74726 23.9536 8.42453 23.686 9.10192L23.686 9.10196C23.5293 9.49868 23.3725 9.89544 23.2224 10.295C23.0157 10.8463 22.8124 11.3992 22.6091 11.9522C22.4058 12.5052 22.2025 13.0582 21.9958 13.6095C21.5617 14.7672 21.1206 15.9249 20.6727 17.0688C20.4178 17.7096 20.1077 18.316 19.6529 18.8535C19.0327 19.5978 18.2747 20.1628 17.4478 20.6452C17.2824 20.7416 17.179 20.8657 17.1515 21.0724C17.0412 21.858 16.9103 22.6366 16.7794 23.4153C16.6174 24.3353 16.4538 25.2553 16.2901 26.1753C16.1264 27.0951 15.9628 28.015 15.8009 28.9349C15.5114 30.5956 15.2289 32.2564 14.9533 33.9171C14.9097 34.1688 14.8832 34.4272 14.8569 34.683C14.8457 34.7913 14.8347 34.8992 14.8224 35.0058H9.8609C9.86641 34.9507 9.86972 34.8956 9.87302 34.8405C9.87799 34.7578 9.88295 34.6751 9.89535 34.5924C9.9615 34.2368 10.0299 33.8813 10.0982 33.5257C10.2007 32.9923 10.3033 32.459 10.3984 31.9256C10.504 31.3468 10.6066 30.7672 10.7092 30.1876C10.9144 29.0284 11.1196 27.8692 11.3493 26.7161C11.4043 26.4383 11.4552 26.1592 11.5062 25.8793L11.5062 25.8792L11.5062 25.8792L11.5062 25.8791C11.5704 25.5272 11.6347 25.1741 11.7077 24.8211C11.8755 24.0026 12.0314 23.1802 12.1875 22.3569C12.2364 22.0988 12.2854 21.8405 12.3347 21.5823C12.3761 21.3618 12.2865 21.2516 12.0591 21.2516C11.7593 21.255 11.4612 21.2602 11.1632 21.2654L11.1622 21.2654C10.8645 21.2705 10.5669 21.2757 10.2675 21.2791C10.0745 21.2791 9.98493 21.3756 9.92291 21.5548C9.85105 21.7661 9.76622 21.9749 9.68114 22.1843C9.62754 22.3162 9.57385 22.4483 9.52324 22.5815C9.35786 23.0156 9.1942 23.4498 9.03054 23.8839C8.86688 24.318 8.70322 24.7522 8.53784 25.1863L7.58689 27.6877C7.49996 27.9145 7.41303 28.1407 7.32624 28.3666L7.32515 28.3695L7.3241 28.3722L7.32311 28.3748C7.09449 28.9698 6.86686 29.5622 6.64284 30.1546C6.52811 30.4606 6.41621 30.7675 6.30435 31.0742C6.11387 31.5966 5.9235 32.1187 5.71946 32.6354C5.66866 32.764 5.61749 32.8927 5.56629 33.0215L5.56622 33.0217L5.56615 33.0218L5.56608 33.022C5.30478 33.6792 5.04254 34.3387 4.82364 35.0127H0V34.5993C0.0964728 34.5786 0.172273 34.5304 0.199836 34.427C0.299795 34.0706 0.438127 33.7307 0.576801 33.3899C0.658004 33.1904 0.739326 32.9906 0.813128 32.787C1.01986 32.215 1.23347 31.65 1.45398 31.0849C1.57562 30.7707 1.69819 30.4574 1.82066 30.1443L1.82068 30.1443L1.82073 30.1442L1.82076 30.1441L1.82081 30.1439L1.82087 30.1438C2.03136 29.6058 2.24157 29.0684 2.44627 28.5284C2.77015 27.6877 3.08713 26.8401 3.40411 25.9925C3.556 25.5951 3.70881 25.1986 3.86153 24.8023L3.86155 24.8023L3.86158 24.8022L3.8616 24.8022L3.86163 24.8021L3.86174 24.8018L3.86179 24.8016C4.12471 24.1195 4.38735 23.438 4.64447 22.7538C4.80297 22.3369 4.95973 21.9183 5.1165 21.4996L5.1166 21.4994C5.27333 21.0809 5.43007 20.6623 5.58853 20.2455C6.01577 19.1361 6.443 18.0266 6.87024 16.9103C7.02528 16.5037 7.17861 16.0972 7.33193 15.6906L7.33206 15.6903C7.48534 15.2838 7.63862 14.8774 7.79362 14.4709C8.01067 13.9059 8.22771 13.3392 8.44475 12.7725C8.66184 12.2056 8.87892 11.6388 9.096 11.0737C9.2958 10.5501 9.49388 10.0248 9.69195 9.49944L9.69204 9.4992L9.69228 9.49857C9.89032 8.97332 10.0884 8.44807 10.2881 7.92455L11.5698 4.59624C11.6666 4.34636 11.7645 4.09708 11.8623 3.84787L11.8624 3.84774L11.8624 3.84762L11.8625 3.84749L11.8625 3.84745C12.0993 3.24459 12.3359 2.64215 12.5552 2.03282C12.6285 1.84287 12.7062 1.65349 12.7843 1.46337L12.7843 1.46334L12.7843 1.4633L12.7843 1.46323C12.9781 0.991277 13.1737 0.514781 13.3064 0.0137785ZM13.6509 17.4409C13.8042 17.4409 13.9581 17.4398 14.1123 17.4387H14.1124H14.1124H14.1125C14.4986 17.4358 14.8862 17.433 15.2703 17.4478C15.5804 17.4547 15.7802 17.3306 15.8836 17.055C16.133 16.3988 16.3782 15.7384 16.6225 15.0804L16.8207 14.5467C16.9758 14.1333 17.1308 13.7215 17.2859 13.3098C17.4409 12.8981 17.5959 12.4863 17.751 12.0729L17.9615 11.5225C18.215 10.8605 18.4675 10.2009 18.7157 9.53702C19.0327 8.68944 19.3497 7.84186 19.6736 6.99427C19.767 6.75261 19.861 6.51094 19.9551 6.2691L19.9552 6.26868L19.9553 6.26849L19.9554 6.2683L19.9555 6.26789C20.1805 5.68952 20.4059 5.11013 20.6245 4.52733C20.7554 4.18967 20.6383 4.05874 20.2868 4.05874C19.1705 4.06564 18.0611 4.06563 16.9448 4.05185C16.7242 4.05185 16.6071 4.12765 16.5037 4.30682C16.4018 4.49211 16.3342 4.68986 16.2673 4.88542L16.2672 4.88552L16.2672 4.88554L16.2672 4.88558L16.2672 4.88564L16.2672 4.88569C16.2346 4.98094 16.2022 5.07567 16.1661 5.16818L15.9535 5.71478C15.7008 6.36426 15.449 7.01137 15.2014 7.66269C15.0394 8.08649 14.8826 8.51028 14.7259 8.93408L14.7258 8.93416C14.5691 9.35792 14.4123 9.78168 14.2504 10.2054C14.0749 10.6664 13.8943 11.1261 13.7136 11.5861C13.4755 12.1921 13.2372 12.7987 13.01 13.4097C12.919 13.653 12.8285 13.8966 12.738 14.1403L12.738 14.1403L12.738 14.1403L12.738 14.1403C12.3902 15.0766 12.0422 16.0138 11.6594 16.9379C11.5147 17.2893 11.5974 17.434 11.9833 17.434C12.5484 17.4409 13.0996 17.4409 13.6509 17.4409ZM100.772 0.21432C100.623 0.158211 100.241 0.0137785 99.4083 0.0137785H89.9402C89.8957 0.338757 89.7764 0.640728 89.6566 0.943844L89.6566 0.943876L89.6566 0.943926L89.6566 0.943973C89.591 1.11001 89.5253 1.27639 89.4716 1.44709C89.3357 1.87747 89.176 2.29892 89.0159 2.72122L89.0158 2.72144C88.9324 2.94141 88.849 3.16161 88.7687 3.38343C88.6382 3.74306 88.5067 4.10372 88.3749 4.46501L88.3731 4.46977L88.372 4.47271C88.1639 5.04344 87.9551 5.61574 87.7489 6.18804C87.5424 6.7479 87.342 7.30776 87.1416 7.86762L87.1408 7.86971L87.1408 7.86989C87.0405 8.14997 86.9403 8.43004 86.8393 8.71011C86.737 8.99027 86.6342 9.27042 86.5313 9.55076C86.2874 10.2151 86.0431 10.8804 85.8056 11.5492C85.6437 11.9971 85.4869 12.445 85.3302 12.8929C85.1734 13.3408 85.0166 13.7887 84.8547 14.2366C84.6514 14.7982 84.4464 15.3564 84.2414 15.9146C84.0364 16.4727 83.8314 17.0309 83.6281 17.5925C83.4662 18.0404 83.3077 18.4883 83.1492 18.9362C82.9907 19.3841 82.8322 19.832 82.6703 20.2799C82.5083 20.7279 82.3447 21.174 82.181 21.6202C82.0174 22.0664 81.8537 22.5126 81.6918 22.9605C81.3759 23.8465 81.0599 24.7256 80.744 25.6047L80.7408 25.6135C80.5985 26.0038 80.4554 26.3941 80.3123 26.7845C80.0258 27.5656 79.7394 28.3467 79.4591 29.1279C79.3005 29.576 79.1437 30.0242 78.9868 30.4723C78.8302 30.92 78.6735 31.3677 78.5151 31.8153L78.515 31.8157L78.5148 31.816L78.5147 31.8163C78.2116 32.6567 77.9086 33.497 77.5917 34.3305L77.5619 34.4117C77.4885 34.6108 77.4161 34.8072 77.3918 35.0196H86.7497C87.9349 35.0196 88.5827 34.8404 88.7067 34.806C90.333 34.3236 91.5458 33.3176 92.414 31.8705C92.6599 31.4606 92.8135 31.0219 92.9699 30.5755L93.0135 30.4509C93.2686 29.7071 93.5359 28.9673 93.8029 28.2285C93.8822 28.0091 93.9614 27.7898 94.0403 27.5705L94.1843 27.1739C94.3635 26.6811 94.5417 26.1908 94.7156 25.6962C94.8775 25.2414 95.0378 24.7883 95.198 24.3353C95.3582 23.8822 95.5184 23.4291 95.6803 22.9743C95.9074 22.3549 96.1276 21.7287 96.3479 21.1025L96.3482 21.1014L96.3487 21.1C96.4659 20.7658 96.5865 20.4315 96.7071 20.0973C96.8277 19.7631 96.9483 19.4289 97.0654 19.0947C97.2204 18.6572 97.3738 18.2196 97.5271 17.7821C97.6804 17.3445 97.8337 16.9069 97.9888 16.4693C98.1955 15.8939 98.404 15.3184 98.6124 14.743C98.8209 14.1677 99.0293 13.5923 99.236 13.0169C99.4304 12.4795 99.6172 11.942 99.8041 11.4046C99.9287 11.0462 100.053 10.6878 100.18 10.3295C100.525 9.36475 100.869 8.40691 101.214 7.44907C101.313 7.17241 101.414 6.89574 101.515 6.61886L101.515 6.61825L101.515 6.61732L101.516 6.61694L101.516 6.61651C101.736 6.01145 101.957 5.40538 102.165 4.79607L102.204 4.6866C102.385 4.17847 102.567 3.66713 102.599 3.1078C102.675 1.84676 102.027 0.675306 100.807 0.227397C100.797 0.223909 100.786 0.219489 100.772 0.21432ZM86.3264 31.0758C86.1689 31.0769 86.0114 31.078 85.8539 31.078C85.6598 31.078 85.4665 31.0788 85.2744 31.0796H85.274H85.2738C84.8934 31.0811 84.518 31.0826 84.1518 31.078C83.7659 31.0711 83.6833 30.9746 83.8073 30.6094C84.0226 29.9636 84.2545 29.3211 84.4868 28.6772L84.487 28.6769C84.5892 28.3934 84.6916 28.1098 84.7927 27.8255C85.0201 27.1846 85.2475 26.5507 85.4749 25.9167C85.8056 25.0074 86.1362 24.0911 86.4669 23.1749L86.4672 23.1741C86.59 22.8391 86.7088 22.5022 86.8279 22.1642L86.8281 22.1638C86.9295 21.8763 87.0311 21.588 87.1356 21.2998C87.301 20.8415 87.4664 20.3849 87.6318 19.9283L87.6324 19.9268C87.7975 19.4708 87.9627 19.0149 88.1279 18.5572L88.1286 18.5553L88.1291 18.554L88.1294 18.553C88.4321 17.6999 88.7348 16.8469 89.0444 16.0007C89.2615 15.3977 89.4802 14.7947 89.699 14.1917C89.9178 13.5888 90.1366 12.9859 90.3537 12.383C90.4869 12.006 90.6178 11.6278 90.7487 11.2495L90.7495 11.2473L90.7495 11.2472L90.7495 11.2472C90.9367 10.7065 91.1239 10.1653 91.3184 9.6266C91.5531 8.96631 91.7946 8.31061 92.0365 7.6542L92.0372 7.65217C92.2141 7.17209 92.3911 6.69163 92.5656 6.20871L92.6129 6.07875C92.8175 5.51652 93.0204 4.95895 93.1996 4.38951C93.2892 4.0932 93.4683 3.95538 93.7716 3.95538C94.1553 3.95538 94.5383 3.95461 94.921 3.95385L94.9213 3.95385C95.6862 3.95232 96.4501 3.95079 97.217 3.95538C97.5409 3.95538 97.6442 4.11387 97.5271 4.43085C97.3442 4.93208 97.1603 5.43239 96.9765 5.93246L96.9762 5.93318L96.9727 5.94291L96.9719 5.94495C96.6519 6.81571 96.3322 7.68573 96.018 8.55851C95.8113 9.14055 95.6064 9.72432 95.4015 10.3081L95.3994 10.314C95.195 10.8963 94.9906 11.4785 94.7845 12.0591C94.5777 12.6346 94.3675 13.2102 94.1573 13.7857L94.1559 13.7895C93.9462 14.3635 93.7366 14.9375 93.5304 15.5114C93.3684 15.9628 93.21 16.4175 93.0515 16.8723L93.0514 16.8724L93.0507 16.8746C92.8924 17.3287 92.7342 17.7827 92.5725 18.2333C92.3865 18.7625 92.1931 19.2916 91.9996 19.8207C91.8706 20.1736 91.7415 20.5265 91.6147 20.8795C91.3987 21.4769 91.1888 22.0743 90.979 22.6718C90.8741 22.9701 90.7693 23.2685 90.6637 23.5669C90.5422 23.9073 90.4217 24.2465 90.3014 24.5852L90.2999 24.5895L90.2992 24.5915C90.1134 25.1147 89.9281 25.6363 89.7404 26.1579C89.5785 26.6055 89.4167 27.0514 89.2549 27.4973L89.2538 27.5002L89.2486 27.5147L89.248 27.5163C89.0882 27.9564 88.9285 28.3966 88.7687 28.8385C88.6619 29.1417 88.5568 29.4449 88.4517 29.7481C88.3467 30.0513 88.2416 30.3545 88.1348 30.6577C88.0314 30.9471 87.8385 31.0918 87.5077 31.0849C87.1139 31.0701 86.7202 31.0729 86.3264 31.0758ZM81.7397 0.391079C81.7835 0.265103 81.8272 0.139297 81.8709 0.0137801C80.2654 0.0137801 78.6598 0.0137801 77.0542 0.00688923C77.0107 0.339973 76.8895 0.646003 76.7687 0.951039C76.717 1.08144 76.6655 1.21165 76.6201 1.34373C76.3169 2.20509 76.0068 3.06645 75.6967 3.92782C75.5313 4.37917 75.3642 4.83052 75.1971 5.28187C75.03 5.73323 74.8629 6.18459 74.6975 6.63595C74.4862 7.21019 74.281 7.78443 74.0758 8.35867C73.9732 8.64579 73.8706 8.93291 73.7672 9.22004C73.5299 9.88843 73.2858 10.5534 73.042 11.2174C72.9389 11.4981 72.836 11.7786 72.7336 12.0591C72.6155 12.384 72.4984 12.7078 72.3815 13.031C72.1984 13.5373 72.0159 14.042 71.8309 14.5467C71.6681 14.9897 71.5043 15.4338 71.3402 15.8785C71.0806 16.582 70.8205 17.2871 70.563 17.9922C70.401 18.4332 70.2408 18.8742 70.0806 19.3153C69.9203 19.7563 69.7601 20.1973 69.5982 20.6383C69.482 20.954 69.3649 21.2688 69.2479 21.5833C69.0457 22.1269 68.8437 22.6698 68.6473 23.2155C68.4337 23.8012 68.2218 24.3886 68.0099 24.976C67.798 25.5635 67.5861 26.151 67.3725 26.7367C67.1726 27.2846 66.9711 27.8324 66.7695 28.3802C66.5679 28.928 66.3664 29.4759 66.1665 30.0237C66.037 30.3831 65.9055 30.742 65.7741 31.1007C65.4721 31.9249 65.1702 32.7488 64.8917 33.5794C64.8419 33.729 64.7804 33.8751 64.719 34.0213C64.5851 34.3398 64.4511 34.6585 64.4369 35.0127H69.2606C69.2468 34.8956 69.2675 34.7853 69.3088 34.6751C69.3617 34.5325 69.4146 34.3902 69.4675 34.2481C69.6624 33.7241 69.8564 33.2025 70.0461 32.6767C70.1279 32.4486 70.2097 32.2202 70.2915 31.9916C70.6028 31.1222 70.9149 30.2504 71.2314 29.3828C71.4036 28.9109 71.5759 28.4372 71.7481 27.9635C71.9204 27.4897 72.0927 27.0159 72.265 26.5438C72.427 26.1026 72.5873 25.6613 72.7476 25.2201C72.9077 24.7793 73.0679 24.3385 73.2297 23.8977C73.5536 23.0294 73.8706 22.1612 74.1807 21.286C74.3086 20.9285 74.434 20.5686 74.5595 20.2083C74.7317 19.7143 74.9041 19.2196 75.0834 18.7295C75.2122 18.3799 75.3416 18.0303 75.4711 17.6805C75.778 16.8513 76.0853 16.0211 76.3858 15.1876C76.5281 14.7953 76.6676 14.403 76.8068 14.0115C76.9708 13.55 77.1345 13.0895 77.3023 12.631C77.3752 12.4326 77.4481 12.2346 77.521 12.0367C77.7924 11.2997 78.0628 10.5652 78.329 9.82644C78.6322 8.99264 78.9354 8.15195 79.2386 7.31126C79.3754 6.93588 79.5134 6.5605 79.6516 6.18461C79.8406 5.67035 80.03 5.15511 80.2171 4.63758C80.5548 3.7142 80.8924 2.78393 81.2232 1.86054C81.3986 1.37277 81.5696 0.880637 81.7397 0.391079Z" fill="black"/>
<path d="M95.9973 35.0197C96.0042 34.7096 96.1558 34.4477 96.2523 34.1721C96.7829 32.7181 97.3342 31.2779 97.8785 29.8308C98.4298 28.363 98.9811 26.8953 99.5324 25.4275C100.091 23.9529 100.642 22.4713 101.207 20.9967C101.806 19.4117 102.42 17.8337 103.012 16.2488C103.329 15.415 103.619 14.5743 103.922 13.7336C103.943 13.6647 103.97 13.6027 104.053 13.582C104.239 13.644 104.198 13.8163 104.198 13.9541C104.204 14.3469 104.191 14.7328 104.191 15.1256C104.191 21.7615 104.191 28.3906 104.191 35.0265C101.469 35.0197 98.733 35.0197 95.9973 35.0197Z" fill="#65C18E"/>
<path fill-rule="evenodd" clip-rule="evenodd" d="M117.38 3.03189C117.366 3.63829 117.394 3.65896 117.979 3.66586V3.66485C117.979 2.45238 117.979 1.23303 117.986 0.0136719H117.366C117.368 0.121094 117.37 0.227758 117.371 0.334166C117.374 0.548575 117.377 0.761949 117.387 0.9784C117.4 1.48833 117.359 1.52967 116.849 1.52967H109.062H109.062C108.945 1.52967 108.828 1.52967 108.718 1.55035C108.566 1.57791 108.477 1.68127 108.477 1.83976C108.477 1.98447 108.566 2.08784 108.697 2.1154C108.828 2.14296 108.966 2.14985 109.104 2.14985H116.477C117.008 2.14985 117.237 2.12887 117.331 2.23139C117.424 2.33238 117.387 2.55318 117.38 3.03189ZM117.809 7.05299C117.865 6.93501 117.968 6.71979 117.979 6.42223V6.42156C117.979 5.6227 117.979 5.29878 117.986 4.46521C117.853 4.46062 117.717 4.46214 117.58 4.46367C117.511 4.46444 117.442 4.46521 117.373 4.46521H108.973C108.732 4.46521 108.497 4.51344 108.497 4.79597C108.497 5.08539 108.732 5.13363 108.966 5.13363C110.096 5.13363 111.233 5.13363 112.37 5.11295C112.611 5.10606 112.721 5.20254 112.735 5.41615C112.746 5.58131 112.744 5.7426 112.743 5.90582V5.90589V5.90597V5.90604V5.90611V5.90618V5.90625C112.743 5.96081 112.742 6.01559 112.742 6.07079C112.735 6.94594 112.391 7.29048 111.502 7.29048C111.221 7.29048 110.942 7.28972 110.662 7.28895H110.662C110.104 7.28742 109.547 7.28589 108.987 7.29048L108.96 7.29044C108.738 7.28993 108.477 7.28933 108.484 7.60746C108.484 7.91066 108.745 7.91066 108.966 7.91066C109.19 7.91066 109.414 7.9111 109.638 7.91153C110.31 7.91282 110.982 7.91411 111.653 7.90377C112.115 7.89688 112.542 7.79352 112.846 7.40074C112.914 7.31116 113.004 7.22846 113.176 7.24914C113.459 7.69016 113.92 7.8831 114.444 7.89688C115.126 7.92445 115.802 7.93134 116.477 7.89688C117.028 7.86932 117.545 7.71083 117.779 7.11821C117.786 7.10161 117.796 7.07982 117.809 7.05299ZM116.381 7.30426H115.278C115.18 7.29786 115.068 7.30072 114.947 7.30382C114.678 7.31072 114.363 7.31881 114.045 7.22846C113.652 7.1251 113.445 6.85635 113.355 6.49114C113.282 6.18506 113.296 5.86811 113.309 5.54994V5.54994C113.311 5.50995 113.313 5.46994 113.314 5.42994C113.321 5.21632 113.431 5.11984 113.672 5.12674C114.554 5.14327 115.437 5.14217 116.319 5.14107C116.539 5.14079 116.76 5.14052 116.98 5.14052C117.325 5.14052 117.4 5.20943 117.394 5.56086L117.373 6.35332C117.345 6.92526 117.056 7.23535 116.484 7.29737C116.449 7.30426 116.415 7.30426 116.381 7.30426ZM117.159 17.7922C117.435 17.7922 117.71 17.7785 117.979 17.7233V17.7232C117.979 17.5647 117.979 17.4063 117.972 17.241C116.654 17.1402 115.336 17.175 114.018 17.2098C113.172 17.2321 112.327 17.2544 111.481 17.241C111.289 17.2365 111.096 17.2378 110.883 17.2393H110.883H110.883H110.883H110.883H110.883H110.882C110.768 17.2401 110.647 17.241 110.516 17.241C110.716 17.0549 110.888 16.9584 111.075 16.8964C111.598 16.7322 112.124 16.5702 112.649 16.4083C113.402 16.1761 114.155 15.9438 114.906 15.7043C115.586 15.4884 116.265 15.2603 116.945 15.0322L116.945 15.0322L116.945 15.0322L116.945 15.0321L116.945 15.0321L116.946 15.0321L116.946 15.032L116.946 15.032L116.946 15.0319L116.946 15.0318L116.947 15.0317L116.947 15.0317L116.947 15.0316C117.286 14.9177 117.626 14.8037 117.965 14.6913V14.14C117.901 14.1344 117.836 14.1276 117.771 14.1209C117.599 14.103 117.424 14.0849 117.249 14.0849H109.021C108.911 14.0849 108.794 14.0918 108.683 14.1194C108.552 14.1538 108.47 14.2503 108.47 14.395C108.47 14.5466 108.566 14.6293 108.697 14.6569C108.835 14.6844 108.973 14.6844 109.111 14.6844C111.199 14.6982 113.287 14.6775 115.374 14.6362C115.402 14.6352 115.431 14.6333 115.459 14.6315C115.62 14.6212 115.783 14.6107 115.912 14.7396C115.878 14.8543 115.8 14.8687 115.727 14.8823C115.713 14.885 115.698 14.8877 115.685 14.8912C115.596 14.9152 115.507 14.939 115.417 14.9628L115.417 14.9628C115.098 15.0479 114.777 15.1334 114.465 15.2357C113.552 15.5319 112.638 15.8316 111.723 16.1313L111.722 16.1316L111.722 16.1316L111.722 16.1316L111.722 16.1317L111.722 16.1317L111.722 16.1317L111.721 16.1318C110.807 16.4314 109.892 16.7311 108.98 17.0273C108.945 17.039 108.908 17.0496 108.872 17.0602C108.65 17.1247 108.424 17.1902 108.484 17.5097C108.543 17.8057 108.78 17.7966 108.999 17.7881H108.999H108.999H108.999H108.999H108.999H108.999C109.035 17.7867 109.07 17.7853 109.104 17.7853C111.791 17.7922 114.472 17.7922 117.159 17.7922ZM117.979 33.5655C117.968 33.8631 117.865 34.0783 117.809 34.1963C117.796 34.2231 117.786 34.2449 117.779 34.2615C117.545 34.8541 117.028 35.0126 116.477 35.0402C115.802 35.0746 115.126 35.0677 114.444 35.0402C113.92 35.0264 113.459 34.8335 113.176 34.3924C113.004 34.3718 112.914 34.4544 112.846 34.544C112.542 34.9368 112.115 35.0402 111.653 35.0471C110.982 35.0574 110.31 35.0561 109.638 35.0548H109.638C109.414 35.0544 109.19 35.054 108.966 35.054C108.745 35.054 108.484 35.054 108.484 34.7508C108.477 34.4326 108.738 34.4332 108.96 34.4337L108.987 34.4338C109.547 34.4292 110.104 34.4307 110.662 34.4322C110.942 34.433 111.221 34.4338 111.502 34.4338C112.391 34.4338 112.735 34.0892 112.742 33.2141C112.742 33.1588 112.743 33.104 112.743 33.0494V33.0494V33.0493V33.0492V33.0491C112.744 32.8859 112.746 32.7246 112.735 32.5594C112.721 32.3458 112.611 32.2494 112.37 32.2562C111.233 32.2769 110.096 32.2769 108.967 32.2769H108.966C108.732 32.2769 108.497 32.2287 108.497 31.9393C108.497 31.6567 108.732 31.6085 108.973 31.6085H117.373C117.442 31.6085 117.511 31.6077 117.579 31.607H117.579H117.58H117.58H117.58C117.717 31.6054 117.853 31.6039 117.986 31.6085C117.979 32.4352 117.979 32.766 117.979 33.5649V33.5655ZM115.278 34.4407H116.381H116.381C116.415 34.4407 116.449 34.4407 116.484 34.4338C117.056 34.3718 117.345 34.0617 117.373 33.4897L117.394 32.6973C117.4 32.3458 117.325 32.2769 116.98 32.2769C116.76 32.2769 116.539 32.2772 116.318 32.2775H116.318C115.436 32.2786 114.554 32.2797 113.672 32.2631C113.431 32.2563 113.321 32.3527 113.314 32.5663C113.313 32.6063 113.311 32.6464 113.309 32.6863C113.296 33.0045 113.282 33.3215 113.355 33.6275C113.445 33.9928 113.652 34.2615 114.045 34.3649C114.363 34.4552 114.678 34.4471 114.947 34.4402C115.068 34.4371 115.18 34.4343 115.278 34.4407ZM117.775 21.8622C117.832 21.766 117.973 21.5271 117.979 21.3066C117.985 21.0907 117.99 20.9593 117.993 20.8664C118 20.6419 118 20.6418 118 20.2178C117.976 19.9882 117.872 19.824 117.812 19.7295L117.812 19.7294C117.802 19.7133 117.793 19.6993 117.786 19.6872C117.504 19.2049 117.035 19.0739 116.525 19.0464C116.134 19.0258 115.75 19.0325 115.359 19.0394H115.359H115.359H115.359H115.359L115.354 19.0395C114.658 19.0464 114.086 19.3013 113.659 19.8733C113.438 20.1658 113.213 20.4536 112.988 20.7422L112.988 20.7423L112.988 20.7423L112.987 20.7424L112.987 20.7424L112.987 20.7426L112.987 20.7427L112.987 20.7427L112.987 20.7428C112.825 20.9503 112.662 21.1583 112.501 21.3686C112.274 21.6649 111.998 21.8579 111.619 21.913C110.999 22.0026 110.379 22.0095 109.765 21.9199C109.297 21.851 109.028 21.5685 108.98 21.093C108.959 20.9207 108.959 20.7484 108.973 20.5762C109.007 19.9973 109.372 19.6528 109.951 19.6459C110.119 19.6459 110.287 19.6467 110.455 19.6474H110.456H110.456H110.456H110.456C110.794 19.6489 111.132 19.6505 111.467 19.6459C111.667 19.6459 111.881 19.6114 111.888 19.3496C111.895 19.0877 111.688 19.0395 111.481 19.0395C111.318 19.0395 111.154 19.0372 110.99 19.035C110.579 19.0294 110.167 19.0237 109.758 19.0533C109.152 19.1015 108.704 19.3909 108.504 20.0111C108.38 20.3832 108.387 20.7553 108.408 21.1343C108.456 22.0095 108.994 22.5332 109.869 22.547C110.406 22.5607 110.951 22.5607 111.488 22.547C111.998 22.5401 112.446 22.3747 112.811 21.9888C113.107 21.6649 113.376 21.3204 113.631 20.9689C114.596 19.6528 114.61 19.6459 116.25 19.6528C117.159 19.6597 117.442 19.9422 117.435 20.8518C117.428 21.6029 117.132 21.9061 116.367 21.9199C116.184 21.9233 116 21.9216 115.816 21.9199H115.816H115.815C115.631 21.9182 115.447 21.9164 115.264 21.9199C115.064 21.9268 114.878 21.9681 114.878 22.2162C114.878 22.4712 115.051 22.547 115.271 22.547C115.419 22.5445 115.566 22.5464 115.714 22.5484H115.714C115.98 22.5518 116.246 22.5553 116.511 22.5332C117.015 22.4918 117.497 22.3747 117.766 21.8785L117.775 21.8622ZM117.979 11.3148L117.979 11.3149L117.979 11.3149L117.978 11.3149L117.978 11.3149C116.628 11.5698 115.278 11.8248 113.927 12.0728C113.583 12.1348 113.239 12.195 112.894 12.2553L112.894 12.2554L112.893 12.2555C112.549 12.3157 112.204 12.376 111.86 12.438C111.485 12.5073 111.111 12.5779 110.736 12.6488L110.735 12.6488L110.735 12.6488L110.735 12.6488L110.735 12.6488L110.735 12.6489C110.289 12.733 109.842 12.8174 109.393 12.8997C109.221 12.9341 109.056 12.9617 108.883 12.9755C108.711 12.9893 108.511 12.9962 108.484 12.7619C108.456 12.5207 108.635 12.4518 108.828 12.4173C109.021 12.3794 109.212 12.345 109.404 12.3105C109.595 12.2761 109.786 12.2416 109.979 12.2037C110.482 12.1072 110.482 12.1072 110.482 11.6111C110.482 11.5027 110.482 11.394 110.481 11.285V11.285C110.48 10.9573 110.478 10.6276 110.489 10.3018C110.496 10.0331 110.379 9.90902 110.117 9.86768C109.84 9.83144 109.567 9.78328 109.293 9.73496L109.292 9.73492C109.15 9.70975 109.006 9.68454 108.863 9.66095C108.649 9.6265 108.463 9.53691 108.497 9.29573C108.532 9.02699 108.752 9.04077 108.952 9.08211C110.253 9.31476 111.548 9.55256 112.847 9.79105L112.848 9.7912L113.452 9.90213C113.861 9.97667 114.27 10.0483 114.68 10.1198L114.68 10.1199L114.68 10.1199C115.671 10.2931 116.661 10.4663 117.642 10.6808C117.715 10.6946 117.792 10.6961 117.87 10.6977H117.87C117.908 10.6984 117.947 10.6992 117.986 10.7015C117.979 10.9013 117.979 11.1079 117.979 11.3146V11.3148ZM116.126 11.0185C116.065 10.8781 115.955 10.8621 115.845 10.8459C115.83 10.8438 115.816 10.8417 115.802 10.8393L115.259 10.7493C113.984 10.538 112.706 10.3261 111.433 10.1089C111.192 10.0675 111.061 10.1571 111.054 10.3776C111.033 10.8255 111.033 11.2734 111.054 11.7213C111.061 11.9212 111.192 12.0108 111.412 11.9694C112.047 11.8584 112.681 11.7489 113.314 11.6394C114.058 11.5111 114.8 11.3829 115.54 11.2528C115.583 11.2428 115.626 11.2349 115.67 11.227C115.837 11.1966 116.005 11.1661 116.126 11.0185ZM117.373 29.7617C117.373 30.3681 117.387 30.375 117.979 30.4026V30.4018C117.979 29.4856 117.979 28.5694 117.972 27.6324C117.918 27.6268 117.863 27.6201 117.807 27.6134L117.807 27.6134L117.807 27.6134C117.66 27.5955 117.509 27.5773 117.359 27.5773H108.959C108.559 27.5773 108.47 27.6669 108.463 28.0597C108.458 28.4821 108.46 28.9014 108.461 29.3217C108.462 29.5323 108.463 29.7431 108.463 29.9547L108.463 29.9712C108.47 30.1669 108.477 30.3821 108.739 30.3888C109.028 30.3955 109.028 30.1585 109.028 29.9547L109.028 29.9409V28.7005C109.035 28.2802 109.111 28.1975 109.538 28.1975C109.975 28.1945 110.412 28.1954 110.849 28.1962C111.432 28.1974 112.015 28.1985 112.597 28.1906C112.901 28.1906 113.011 28.3146 113.011 28.5972V29.9409C113.011 30.1338 113.025 30.3268 113.28 30.3337C113.555 30.3406 113.576 30.1407 113.576 29.934V28.5903C113.576 28.3284 113.672 28.1975 113.962 28.1975C114.954 28.2113 115.953 28.2044 116.952 28.1975C117.242 28.1906 117.38 28.2871 117.373 28.5903C117.368 28.8519 117.37 29.1104 117.371 29.3699V29.37V29.37C117.372 29.5001 117.373 29.6306 117.373 29.7617ZM117.979 26.5437C117.387 26.5161 117.373 26.5092 117.373 25.9028C117.373 25.813 117.372 25.7236 117.372 25.6345C117.371 25.3679 117.369 25.1033 117.38 24.8347C117.393 24.5315 117.29 24.3937 116.966 24.3937C115.967 24.4075 114.968 24.4075 113.969 24.3937C113.672 24.3868 113.576 24.5315 113.576 24.7865C113.571 25.0711 113.573 25.3526 113.574 25.6351V25.6351C113.575 25.7768 113.576 25.9187 113.576 26.0613C113.576 26.268 113.569 26.4748 113.287 26.4748C113.004 26.4748 113.004 26.2612 113.004 26.0544V24.8141C113.004 24.5178 112.88 24.3868 112.563 24.3937C111.684 24.4041 110.806 24.4028 109.927 24.4015C109.634 24.401 109.341 24.4006 109.049 24.4006C109.023 24.4006 108.997 24.4012 108.97 24.4018H108.969C108.749 24.4065 108.496 24.412 108.484 24.1112C108.477 23.7834 108.743 23.7887 108.972 23.7932C108.998 23.7937 109.024 23.7942 109.049 23.7942H117.283C117.518 23.7942 117.738 23.8218 117.965 23.8631C117.979 24.7519 117.979 25.6475 117.979 26.5431V26.5437Z" fill="black"/>
</svg>
