<svg xmlns="http://www.w3.org/2000/svg" width="72" height="72" viewBox="0 0 72 72">
    <g fill="none" fill-rule="evenodd">
        <g fill-rule="nonzero">
            <g>
                <g>
                    <g>
                        <g>
                            <g>
                                <path fill="#000"
                                    d="M31.361 14.139l2.614-5.614h2.702l.348 5.614h.088l2.527-5.79h2.44l-4.096 9.21h-2.876l-.435-5.964h-.088l-.61 1.14-2.004 4.474c0 .263-.087.35-.349.35h-2.527l-.523-9.21h2.615l.174 5.79zm11.329-5.79h2.701l.872 5.44 2.614-5.44h2.615l-.61 1.141-4.445 8.333c-.348.702-.784 1.316-1.307 1.93-.871.877-1.917 1.227-3.137 1.14-.436 0-.872-.088-1.307-.176l.958-1.93c2.527.44 2.615-1.929 2.527-2.543l-1.394-7.719c-.174-.087-.174-.087-.087-.175zM60.903 13.7c-.174.877.349 1.667 1.22 1.93.698.175 1.395.088 2.092 0l.871-.263v.263l-.348 1.667-.349.087c-.784.176-1.656.263-2.44.176-.61-.088-1.22-.176-1.743-.439-1.133-.614-1.743-1.579-1.917-2.807-.174-1.666.261-3.245 1.307-4.56 1.046-1.316 2.353-1.755 3.922-1.667.697.088 1.307.263 1.83.614 1.307.877 1.481 3.245-.174 4.298-.61.35-1.22.526-1.918.614-.697.087-1.481.087-2.178 0-.087.087-.087.087-.175.087zm.175-1.754c.697.088 1.394.088 2.004-.088.262-.087.436-.175.61-.35.436-.527.262-1.228-.348-1.404-.61-.175-1.22 0-1.656.526-.262.351-.436.79-.61 1.316zm-7.32 5.614h-2.702l1.743-9.21h1.917l.174 1.666c.262-.701.61-1.228 1.22-1.578.61-.263 1.656-.263 2.615.087l-1.133 2.28-1.046-.175c-.784-.087-1.307.264-1.568.965-.175.527-.262 1.14-.436 1.667l-.785 4.298z"
                                    transform="translate(-184 -1134) translate(120 864) translate(48 82) translate(0 176) translate(16 12) translate(2.813 21.375)" />
                                <path fill="#A9CAFF"
                                    d="M14.629 14.49h8.54l-4.618 11.578c-.698 1.666-2.266 2.719-4.01 2.719h-8.54l4.706-11.578c.61-1.579 2.18-2.72 3.922-2.72"
                                    transform="translate(-184 -1134) translate(120 864) translate(48 82) translate(0 176) translate(16 12) translate(2.813 21.375)" />
                                <path fill="#0408E0"
                                    d="M8.529 22.384h4.793c1.743 0 2.266-.088 3.747-1.404l6.1-6.666h-8.54c-1.743 0-3.311 1.14-4.009 2.72l-2.091 5.35z"
                                    transform="translate(-184 -1134) translate(120 864) translate(48 82) translate(0 176) translate(16 12) translate(2.813 21.375)" />
                                <path fill="#0384FF"
                                    d="M11.753 7.473h8.54l-4.618 11.49c-.697 1.667-2.266 2.631-4.009 2.631h-8.54l4.619-11.402c.697-1.667 2.265-2.72 4.008-2.72"
                                    transform="translate(-184 -1134) translate(120 864) translate(48 82) translate(0 176) translate(16 12) translate(2.813 21.375)" />
                                <path fill="#0408E0"
                                    d="M5.653 15.367h4.793c1.743 0 2.266-.263 3.747-1.491l6.1-6.49h-8.54c-1.743 0-3.311 1.052-4.008 2.718l-2.092 5.263z"
                                    transform="translate(-184 -1134) translate(120 864) translate(48 82) translate(0 176) translate(16 12) translate(2.813 21.375)" />
                                <path fill="#004EFF"
                                    d="M8.877.193h8.54L12.8 11.77c-.61 1.666-2.179 2.719-3.922 2.719H.337L4.956 3C5.566 1.333 7.135.193 8.877.193"
                                    transform="translate(-184 -1134) translate(120 864) translate(48 82) translate(0 176) translate(16 12) translate(2.813 21.375)" />
                            </g>
                        </g>
                    </g>
                </g>
            </g>
        </g>
    </g>
</svg>