<svg xmlns="http://www.w3.org/2000/svg" width="72" height="73" viewBox="0 0 72 73">
    <g fill="none" fill-rule="evenodd">
        <g>
            <g>
                <g>
                    <g>
                        <g>
                            <g>
                                <path d="M0 0H72V72H0z" transform="translate(-184 -3597) translate(-238 528) translate(0 1650) translate(0 80) translate(406 1328) translate(16 12)"/>
                                <g>
                                    <path d="M0 63L63 63 63 0 0 0z" transform="translate(-184 -3597) translate(-238 528) translate(0 1650) translate(0 80) translate(406 1328) translate(16 12) translate(4.5 4.5)"/>
                                    <g fill="#00377B" fill-rule="nonzero">
                                        <g transform="translate(-184 -3597) translate(-238 528) translate(0 1650) translate(0 80) translate(406 1328) translate(16 12) translate(4.5 4.5) translate(9 15.188)">
                                            <path d="M30.582 28.895c-3.68 0-6.988-1.924-9.268-4.981v1.81c.328 3.826 4.552 6.9 9.269 6.9 4.715 0 8.977-2.997 9.268-6.9v-1.81c-2.28 3.057-5.588 4.98-9.269 4.98zM38.596 2.543c-2.438 0-4.628 1.259-6.138 3.259V4.618c.217-2.503 3.014-4.514 6.138-4.514 3.122 0 5.944 1.96 6.137 4.513v1.185c-1.51-2-3.7-3.259-6.137-3.259z"/>
                                            <circle cx="12.383" cy="4.511" r="1.991"/>
                                            <path d="M38.432 21.586c-1.813.001-3.46-.78-4.623-1.998-1.167-1.218-1.884-2.893-1.884-4.721V13.79c0-1.828.717-3.503 1.884-4.72 1.164-1.22 2.81-2 4.623-1.999 1.813 0 3.46.78 4.623 1.998 1.167 1.218 1.884 2.893 1.884 4.721v1.076c0 1.828-.717 3.503-1.884 4.72-1.163 1.218-2.808 2-4.619 2h-.004zm-2.186-10.182c-.58.606-.948 1.447-.948 2.387v1.076c0 .94.368 1.78.948 2.387.584.606 1.348.958 2.186.959.839-.001 1.602-.353 2.187-.959.58-.606.947-1.447.947-2.387V13.79c0-.94-.367-1.78-.947-2.387-.585-.606-1.348-.958-2.187-.959-.838.001-1.602.353-2.186.959zM8.03 18.242c-.562.355-1.346.45-1.947.503 0 0-1.81.148-2.322-.692-.226-.279-.363-.808-.364-1.173v-6.095c3.92.007 4.767.14 4.758-2.996H3.417V4.681c-.036 0-.071-.004-.108-.004-1.814 0-3.285 1.466-3.285 3.056v9.146c.007 2.6 2.107 4.7 4.707 4.707h.415c2.711-.035 2.884-1.57 2.884-3.344zM16.718 18.846s-1.926.322-2.438-.518c-.225-.279-.363-.986-.363-1.351V9.735c-.146-.998-1.122-1.575-3.266-1.556-.036 0-.07.003-.107.003v9.504c.006 2.6 1.805 3.802 3.601 3.9l.715-.001c1.594-.074 1.868-1.067 1.858-2.739zM29.405 14.574c-.528-.246-1.285-.376-2.314-.367-.036 0-.071.003-.107.004V18.332c-.248.368-1.057.31-1.64.31-1.284 0-2.43-.535-3.178-1.371-.566-.632-.906-1.437-.906-2.313l.002-.057-.002-.035v-1.075c0-.38.067-.742.185-1.082.167-.483.44-.92.8-1.28.194-.193.41-.399.643-.589.316-.256.663-.484 1.033-.62.072-.026.144-.05.218-.07h.006c.588-.172 1.241-.267 1.93-.267 1.335 0 2.538.358 3.389.932.23.15.445.314.638.495v-1.063c-.088-1.599-1.136-2.662-2.465-3.03-.341-.094-1.41-.145-1.776-.145h-.9c-3.707.006-7.068 3.012-7.074 6.72v1.074c.006 3.707 3.012 6.714 6.719 6.72h1.268c.258 0 .51-.022.755-.062.552-.091 1.421-.28 1.873-.544 1.117-.657 1.884-1.6 1.855-3.418v-1.798c-.076-.52-.38-.924-.952-1.19z"/>
                                        </g>
                                    </g>
                                </g>
                            </g>
                        </g>
                    </g>
                </g>
            </g>
        </g>
    </g>
</svg>
