<svg xmlns="http://www.w3.org/2000/svg" width="90" height="90"><g fill="none" fill-rule="evenodd"><path fill="#FFF" fill-rule="nonzero" stroke="#979797" d="M1 1h88v88H1z" opacity=".01"/><path fill="#85ACAF" d="M36.556 63.115l-6.002 6.239h14.225l-5.594-6.199a1.687 1.687 0 00-2.629-.04z"/><path fill="#85ACAF" d="M46.566 57.015a3.409 3.409 0 011.546 2.856v9.372h1.664a1.971 1.971 0 110 3.944h-24.22a1.972 1.972 0 110-3.943h1.665V59.87c0-1.153.581-2.225 1.545-2.856l7.176-4.682-7.176-4.68a3.416 3.416 0 01-1.545-2.857v-9.372h-1.665a1.973 1.973 0 010-3.945h24.22a1.972 1.972 0 110 3.945h-1.664v9.372a3.411 3.411 0 01-1.546 2.856l-7.175 4.68 7.175 4.683zm-8.899-41.349c-20.25 0-36.666 16.416-36.666 36.667 0 20.25 16.415 36.666 36.666 36.666 20.25 0 36.667-16.415 36.667-36.666 0-20.251-16.418-36.667-36.667-36.667z"/><path fill="#FF444F" d="M89 23c0 12.15-9.85 22-22 22s-22-9.85-22-22S54.85 1 67 1s22 9.85 22 22z" style="mix-blend-mode:multiply"/><path fill="#FFF" d="M78 20.25h-8.25V12h-5.5v8.25H56v5.5h8.25V34h5.5v-8.25H78z"/></g></svg>