<svg xmlns="http://www.w3.org/2000/svg" width="88" height="88"><g fill-rule="nonzero" fill="none"><path fill="#85ACB0" d="M58.667 36.667a7.337 7.337 0 00-7.334-7.334h-44A7.333 7.333 0 000 36.667v44A7.333 7.333 0 007.333 88h18.829a32.688 32.688 0 012.456-12.448H11.44V71.06h19.488a33.065 33.065 0 014.18-5.5V46.09a2.015 2.015 0 013.364-1.3c.371.337.604.8.651 1.3v15.877a30.975 30.975 0 014.089-2.695v-2.439a2.016 2.016 0 114.015 0v.679a32.457 32.457 0 0111.44-2.255v-18.59zM15.455 66.862H11.44V45.155a2.015 2.015 0 013.364-1.3c.371.337.603.8.651 1.3v21.707zm7.883 0h-3.996V39.985a1.997 1.997 0 113.996 0v26.877zm7.884 0h-3.997V50.16a1.997 1.997 0 113.997 0v16.702z"/><path fill="#85ACB0" d="M58.905 58.905A29.092 29.092 0 0029.828 88H88a29.094 29.094 0 00-29.095-29.095zm0 3.08a1.505 1.505 0 011.503 1.484 1.503 1.503 0 01-1.503 1.504 1.502 1.502 0 01-1.485-1.503 1.482 1.482 0 011.485-1.485zM37.437 79.2a1.505 1.505 0 01-1.504-1.485 1.507 1.507 0 011.504-1.503 1.506 1.506 0 011.503 1.503 1.502 1.502 0 01-1.503 1.485zm9.166-8.855a1.504 1.504 0 11.002-3.004 1.504 1.504 0 01-.002 3.003zM60.5 85.452a3.67 3.67 0 01-1.833.825 3.665 3.665 0 01-3.759-2.2l-5.06-11a.354.354 0 01-.047-.24.347.347 0 01.579-.2l9.937 7.04a3.666 3.666 0 011.558 2.823 3.79 3.79 0 01-1.375 2.952zm10.707-15.107a1.5 1.5 0 01-1.389-.928 1.503 1.503 0 111.425.928h-.036zm9.166 8.855a1.502 1.502 0 01-1.503-1.485 1.502 1.502 0 113.006 0 1.496 1.496 0 01-.44 1.044 1.496 1.496 0 01-1.044.44h-.019z"/><path fill="#85ACB0" d="M57.475 81.785a1.5 1.5 0 00-.184 2.09 1.486 1.486 0 10.184-2.09z"/><path fill="#FF444F" d="M80.667 0H51.333A7.333 7.333 0 0044 7.333v29.334A7.333 7.333 0 0051.333 44h29.334A7.333 7.333 0 0088 36.667V7.333A7.333 7.333 0 0080.667 0z" style="mix-blend-mode:multiply"/><path fill="#FFF" d="M63.52 31v-3.216h2.112V25H63.52V14.248h-4.272L52.72 24.712v3.072h7.368V31h3.432zm-3.432-6H55.6l4.248-7.032h.24V25zM73.6 31.288c2.192 0 3.816-.76 4.872-2.28 1.056-1.52 1.584-3.648 1.584-6.384s-.528-4.864-1.584-6.384c-1.056-1.52-2.68-2.28-4.872-2.28-2.192 0-3.816.76-4.872 2.28-1.056 1.52-1.584 3.648-1.584 6.384s.528 4.864 1.584 6.384c1.056 1.52 2.68 2.28 4.872 2.28zm0-3.048c-.96 0-1.624-.352-1.992-1.056-.368-.704-.552-1.696-.552-2.976V21.04c0-1.28.184-2.272.552-2.976.368-.704 1.032-1.056 1.992-1.056s1.624.352 1.992 1.056c.368.704.552 1.696.552 2.976v3.168c0 1.28-.184 2.272-.552 2.976-.368.704-1.032 1.056-1.992 1.056z"/></g></svg>