<svg width="328" height="162" viewBox="0 0 328 162" fill="none" xmlns="http://www.w3.org/2000/svg">
<rect x="85.2563" y="0.256329" width="157.487" height="161.487" rx="12.0475" fill="url(#paint0_linear_7_2835)"/>
<path d="M109.767 19.3952C110.733 19.3952 112.57 18.0606 114.465 18.2598C116.266 18.3162 117.935 19.2198 118.969 20.698C117.338 21.7021 116.334 23.4729 116.31 25.39C116.312 27.5589 117.609 29.5163 119.604 30.3612C119.22 31.6092 118.642 32.7887 117.89 33.8558C117.868 33.8902 117.845 33.9245 117.822 33.9588L117.683 34.1641C116.734 35.5624 115.708 36.8466 114.143 36.8721C112.511 36.9098 111.963 35.9103 110.091 35.9103C108.201 35.9103 107.616 36.8448 106.051 36.9098C104.451 36.9691 103.229 35.2961 102.183 33.7984C100.092 30.7399 98.4642 25.1789 100.647 21.3951C101.672 19.5509 103.588 18.3807 105.695 18.3125C107.296 18.2795 108.783 19.3952 109.767 19.3952ZM114.485 12.3037C114.594 13.7323 114.143 15.1473 113.227 16.2482C112.338 17.3548 110.992 17.9922 109.574 17.9776C109.484 16.5901 109.948 15.2236 110.865 14.1791C111.793 13.1205 113.085 12.4509 114.485 12.3037Z" fill="white"/>
<path d="M101.108 133.646L100.605 132.167H98.5813L98.0789 133.646H97.4688L99.22 128.636H99.988L101.739 133.646H101.108ZM99.6076 129.196H99.5717L98.7248 131.636H100.455L99.6076 129.196ZM105.811 133.646L105.308 132.167H103.284L102.782 133.646H102.172L103.923 128.636H104.691L106.442 133.646H105.811ZM104.311 129.196H104.275L103.428 131.636H105.158L104.311 129.196ZM107.272 133.646V128.636H109.267C109.717 128.636 110.062 128.765 110.301 129.023C110.545 129.277 110.667 129.626 110.667 130.071C110.667 130.516 110.545 130.868 110.301 131.126C110.062 131.38 109.717 131.507 109.267 131.507H107.875V133.646H107.272ZM107.875 130.976H109.267C109.507 130.976 109.691 130.913 109.82 130.789C109.954 130.665 110.021 130.488 110.021 130.258V129.885C110.021 129.655 109.954 129.478 109.82 129.354C109.691 129.229 109.507 129.167 109.267 129.167H107.875V130.976ZM111.625 133.646V128.636H112.228V133.114H114.359V133.646H111.625Z" fill="white"/>
<path d="M99.2416 147.285V146.696C98.8779 146.672 98.5693 146.584 98.3157 146.43C98.0669 146.273 97.854 146.076 97.6769 145.842L98.1004 145.462C98.2535 145.667 98.421 145.832 98.6028 145.957C98.7894 146.076 99.0047 146.153 99.2487 146.186V144.342C98.7559 144.232 98.3946 144.072 98.165 143.861C97.9401 143.646 97.8276 143.351 97.8276 142.978C97.8276 142.787 97.8611 142.617 97.9281 142.469C97.9999 142.316 98.098 142.184 98.2224 142.074C98.3468 141.964 98.4951 141.878 98.6674 141.816C98.8396 141.749 99.031 141.705 99.2416 141.686V141.098H99.6865V141.679C100.012 141.708 100.292 141.792 100.526 141.93C100.766 142.064 100.971 142.251 101.144 142.49L100.706 142.82C100.586 142.653 100.443 142.517 100.275 142.411C100.108 142.301 99.909 142.229 99.6794 142.196V143.875L99.744 143.89C100.242 144 100.603 144.162 100.828 144.378C101.057 144.588 101.172 144.883 101.172 145.261C101.172 145.672 101.038 146.005 100.77 146.258C100.507 146.507 100.146 146.653 99.6865 146.696V147.285H99.2416ZM100.605 145.296C100.605 145.052 100.533 144.866 100.39 144.737C100.251 144.607 100.014 144.502 99.6794 144.421V146.186C99.9665 146.148 100.191 146.052 100.354 145.899C100.521 145.741 100.605 145.541 100.605 145.296ZM98.3946 142.935C98.3946 143.179 98.464 143.363 98.6028 143.488C98.7463 143.607 98.9616 143.706 99.2487 143.782V142.196C98.9904 142.229 98.7822 142.308 98.6243 142.433C98.4712 142.557 98.3946 142.725 98.3946 142.935ZM103.921 146.696V146.165H105.321V142.131H105.27L104.007 143.308L103.655 142.928L104.983 141.686H105.923V146.165H107.215V146.696H103.921ZM109.466 143.811C109.806 143.811 110.059 143.734 110.227 143.581C110.399 143.423 110.485 143.222 110.485 142.978V142.928C110.485 142.665 110.402 142.469 110.234 142.339C110.071 142.206 109.856 142.139 109.588 142.139C109.33 142.139 109.119 142.196 108.957 142.311C108.794 142.421 108.66 142.572 108.555 142.763L108.11 142.418C108.172 142.318 108.246 142.22 108.332 142.124C108.423 142.024 108.528 141.935 108.648 141.859C108.768 141.782 108.906 141.72 109.064 141.672C109.222 141.624 109.402 141.6 109.603 141.6C109.813 141.6 110.012 141.629 110.198 141.686C110.385 141.739 110.545 141.82 110.679 141.93C110.818 142.036 110.926 142.167 111.002 142.325C111.083 142.483 111.124 142.662 111.124 142.863C111.124 143.026 111.098 143.172 111.045 143.301C110.997 143.43 110.93 143.543 110.844 143.639C110.758 143.734 110.655 143.816 110.536 143.883C110.421 143.95 110.296 144 110.162 144.033V144.062C110.296 144.091 110.426 144.139 110.55 144.206C110.679 144.268 110.792 144.351 110.887 144.457C110.988 144.557 111.067 144.682 111.124 144.83C111.186 144.974 111.217 145.139 111.217 145.325C111.217 145.541 111.177 145.739 111.095 145.921C111.014 146.098 110.899 146.251 110.751 146.38C110.603 146.505 110.423 146.603 110.213 146.675C110.002 146.746 109.77 146.782 109.516 146.782C109.301 146.782 109.11 146.758 108.942 146.71C108.775 146.663 108.626 146.598 108.497 146.517C108.368 146.435 108.253 146.344 108.153 146.244C108.057 146.143 107.971 146.038 107.894 145.928L108.347 145.584C108.409 145.684 108.476 145.775 108.547 145.856C108.624 145.938 108.708 146.007 108.799 146.064C108.89 146.122 108.992 146.167 109.107 146.201C109.222 146.23 109.356 146.244 109.509 146.244C109.863 146.244 110.131 146.165 110.313 146.007C110.495 145.844 110.586 145.615 110.586 145.318V145.261C110.586 144.964 110.495 144.737 110.313 144.579C110.131 144.416 109.863 144.335 109.509 144.335H108.921V143.811H109.466ZM113.77 143.811C114.109 143.811 114.363 143.734 114.53 143.581C114.703 143.423 114.789 143.222 114.789 142.978V142.928C114.789 142.665 114.705 142.469 114.538 142.339C114.375 142.206 114.16 142.139 113.892 142.139C113.633 142.139 113.423 142.196 113.26 142.311C113.097 142.421 112.963 142.572 112.858 142.763L112.413 142.418C112.475 142.318 112.55 142.22 112.636 142.124C112.727 142.024 112.832 141.935 112.951 141.859C113.071 141.782 113.21 141.72 113.368 141.672C113.526 141.624 113.705 141.6 113.906 141.6C114.117 141.6 114.315 141.629 114.502 141.686C114.688 141.739 114.849 141.82 114.983 141.93C115.121 142.036 115.229 142.167 115.306 142.325C115.387 142.483 115.428 142.662 115.428 142.863C115.428 143.026 115.401 143.172 115.349 143.301C115.301 143.43 115.234 143.543 115.148 143.639C115.062 143.734 114.959 143.816 114.839 143.883C114.724 143.95 114.6 144 114.466 144.033V144.062C114.6 144.091 114.729 144.139 114.853 144.206C114.983 144.268 115.095 144.351 115.191 144.457C115.291 144.557 115.37 144.682 115.428 144.83C115.49 144.974 115.521 145.139 115.521 145.325C115.521 145.541 115.48 145.739 115.399 145.921C115.318 146.098 115.203 146.251 115.054 146.38C114.906 146.505 114.727 146.603 114.516 146.675C114.306 146.746 114.074 146.782 113.82 146.782C113.605 146.782 113.413 146.758 113.246 146.71C113.078 146.663 112.93 146.598 112.801 146.517C112.672 146.435 112.557 146.344 112.456 146.244C112.361 146.143 112.274 146.038 112.198 145.928L112.65 145.584C112.712 145.684 112.779 145.775 112.851 145.856C112.928 145.938 113.011 146.007 113.102 146.064C113.193 146.122 113.296 146.167 113.411 146.201C113.526 146.23 113.66 146.244 113.813 146.244C114.167 146.244 114.435 146.165 114.617 146.007C114.798 145.844 114.889 145.615 114.889 145.318V145.261C114.889 144.964 114.798 144.737 114.617 144.579C114.435 144.416 114.167 144.335 113.813 144.335H113.224V143.811H113.77ZM117.176 146.782C117.023 146.782 116.911 146.744 116.839 146.667C116.772 146.591 116.738 146.49 116.738 146.366V146.273C116.738 146.148 116.772 146.048 116.839 145.971C116.911 145.895 117.023 145.856 117.176 145.856C117.329 145.856 117.439 145.895 117.506 145.971C117.578 146.048 117.614 146.148 117.614 146.273V146.366C117.614 146.49 117.578 146.591 117.506 146.667C117.439 146.744 117.329 146.782 117.176 146.782ZM121.981 143.524C121.981 143.897 121.926 144.249 121.816 144.579C121.706 144.904 121.562 145.203 121.385 145.476C121.213 145.744 121.022 145.983 120.811 146.194C120.601 146.399 120.395 146.567 120.194 146.696H119.419C119.687 146.5 119.926 146.308 120.136 146.122C120.347 145.935 120.531 145.741 120.689 145.541C120.847 145.335 120.981 145.117 121.091 144.887C121.201 144.653 121.29 144.39 121.357 144.098L121.321 144.084C121.201 144.289 121.046 144.462 120.854 144.6C120.668 144.734 120.421 144.801 120.115 144.801C119.9 144.801 119.701 144.765 119.519 144.694C119.337 144.622 119.182 144.519 119.053 144.385C118.923 144.251 118.821 144.091 118.744 143.904C118.672 143.713 118.636 143.497 118.636 143.258C118.636 143.014 118.675 142.792 118.751 142.591C118.833 142.385 118.945 142.21 119.089 142.067C119.237 141.918 119.411 141.804 119.612 141.722C119.818 141.641 120.048 141.6 120.301 141.6C120.56 141.6 120.792 141.646 120.998 141.737C121.208 141.823 121.385 141.95 121.529 142.117C121.677 142.28 121.79 142.481 121.866 142.72C121.943 142.959 121.981 143.227 121.981 143.524ZM120.309 144.292C120.639 144.292 120.895 144.201 121.077 144.019C121.263 143.837 121.357 143.576 121.357 143.237V143.179C121.357 142.839 121.263 142.579 121.077 142.397C120.895 142.215 120.639 142.124 120.309 142.124C119.978 142.124 119.72 142.215 119.534 142.397C119.352 142.579 119.261 142.839 119.261 143.179V143.237C119.261 143.576 119.352 143.837 119.534 144.019C119.72 144.201 119.978 144.292 120.309 144.292ZM125.15 146.696V145.713H122.732V145.182L124.827 141.686H125.725V145.21H126.45V145.713H125.725V146.696H125.15ZM123.299 145.21H125.15V142.153H125.115L123.299 145.21Z" fill="white"/>
<rect x="85.2563" y="0.256329" width="157.487" height="161.487" rx="12.0475" stroke="url(#paint1_linear_7_2835)" stroke-width="0.512658"/>
<rect x="255.25" y="0.25" width="71.5" height="77.5" rx="11.75" fill="url(#paint2_linear_7_2835)"/>
<rect x="255.25" y="0.25" width="71.5" height="77.5" rx="11.75" fill="url(#paint3_linear_7_2835)"/>
<path fill-rule="evenodd" clip-rule="evenodd" d="M273.175 13.0614H277.086C277.63 12.9519 278.034 12.4685 278.148 12H272.113C272.225 12.4685 272.636 12.9519 273.175 13.0614ZM302.288 13.0656H298.376C297.837 12.9566 297.427 12.4729 297.314 12.0046H303.35C303.236 12.4727 302.831 12.9566 302.288 13.0656ZM297.472 17.3023V14.1011L303.209 14.1066V17.3023H302.192V15.1709H298.489V17.3023H297.472ZM294.39 17.3044C294.903 17.0849 295.179 16.7054 295.285 16.2613H290.721L290.724 12.0073L289.701 12.0102V17.3044H294.39ZM285.707 13.0513H282.094V14.0972H286.789V17.3031H281.082L280.783 17.3086C281.027 16.7919 281.517 16.4006 282.094 16.2382L285.779 16.2353V15.1374H281.082V12.0088H286.821C286.71 12.4729 286.252 12.8916 285.707 13.0513ZM277.086 15.1537H273.175C272.636 15.0454 272.225 14.5617 272.113 14.0928H278.148C278.034 14.5616 277.63 15.0454 277.086 15.1537ZM273.175 17.3038H277.086C277.63 17.1946 278.034 16.7109 278.148 16.2427H272.113C272.225 16.7111 272.636 17.1946 273.175 17.3038ZM264.059 13.067C263.515 12.9485 263.118 12.4756 263 12.0129V12.0027H269.614V12.0129C269.498 12.4756 269.11 12.9238 268.559 13.067H266.911L266.818 13.1004V17.292H265.79V13.1004L265.706 13.067H264.059Z" fill="black"/>
<path d="M265.296 47.632V52H264.708V47.632H263.154V47.114H266.85V47.632H265.296ZM268.954 52.084C268.557 52.084 268.219 52.0093 267.939 51.86C267.659 51.706 267.421 51.496 267.225 51.23L267.659 50.866C267.831 51.0947 268.023 51.2697 268.233 51.391C268.443 51.5077 268.69 51.566 268.975 51.566C269.325 51.566 269.591 51.482 269.773 51.314C269.959 51.146 270.053 50.922 270.053 50.642C270.053 50.4087 269.983 50.229 269.843 50.103C269.703 49.977 269.472 49.8767 269.15 49.802L268.751 49.711C268.303 49.6083 267.96 49.4543 267.722 49.249C267.488 49.039 267.372 48.745 267.372 48.367C267.372 48.1523 267.411 47.961 267.491 47.793C267.57 47.625 267.68 47.485 267.82 47.373C267.964 47.261 268.135 47.177 268.331 47.121C268.531 47.0603 268.751 47.03 268.989 47.03C269.357 47.03 269.672 47.0977 269.934 47.233C270.2 47.3683 270.424 47.5667 270.606 47.828L270.165 48.15C270.029 47.9633 269.866 47.8163 269.675 47.709C269.483 47.6017 269.245 47.548 268.961 47.548C268.648 47.548 268.401 47.6157 268.219 47.751C268.041 47.8817 267.953 48.08 267.953 48.346C267.953 48.5793 268.027 48.7567 268.177 48.878C268.331 48.9947 268.562 49.088 268.87 49.158L269.269 49.249C269.749 49.3563 270.097 49.5197 270.312 49.739C270.526 49.9583 270.634 50.25 270.634 50.614C270.634 50.838 270.594 51.041 270.515 51.223C270.44 51.405 270.33 51.559 270.186 51.685C270.041 51.811 269.864 51.909 269.654 51.979C269.448 52.049 269.215 52.084 268.954 52.084ZM271.649 52V47.114H272.237V51.482H274.316V52H271.649ZM278.345 52L277.855 50.558H275.881L275.391 52H274.796L276.504 47.114H277.253L278.961 52H278.345ZM276.882 47.66H276.847L276.021 50.04H277.708L276.882 47.66Z" fill="#6E6E6E"/>
<path d="M264.89 64.574V64C264.535 63.9767 264.234 63.8903 263.987 63.741C263.744 63.587 263.537 63.3957 263.364 63.167L263.777 62.796C263.926 62.9967 264.09 63.1577 264.267 63.279C264.449 63.3957 264.659 63.4703 264.897 63.503V61.704C264.416 61.5967 264.064 61.4403 263.84 61.235C263.621 61.025 263.511 60.738 263.511 60.374C263.511 60.1873 263.544 60.0217 263.609 59.877C263.679 59.7277 263.775 59.5993 263.896 59.492C264.017 59.3847 264.162 59.3007 264.33 59.24C264.498 59.1747 264.685 59.1327 264.89 59.114V58.54H265.324V59.107C265.641 59.135 265.914 59.2167 266.143 59.352C266.376 59.4827 266.577 59.6647 266.745 59.898L266.318 60.22C266.201 60.0567 266.061 59.9237 265.898 59.821C265.735 59.7137 265.541 59.6437 265.317 59.611V61.249L265.38 61.263C265.865 61.3703 266.218 61.529 266.437 61.739C266.661 61.9443 266.773 62.2313 266.773 62.6C266.773 63.0013 266.642 63.3257 266.381 63.573C266.124 63.8157 265.772 63.958 265.324 64V64.574H264.89ZM266.22 62.635C266.22 62.397 266.15 62.215 266.01 62.089C265.875 61.963 265.644 61.8603 265.317 61.781V63.503C265.597 63.4657 265.816 63.3723 265.975 63.223C266.138 63.069 266.22 62.873 266.22 62.635ZM264.064 60.332C264.064 60.57 264.132 60.7497 264.267 60.871C264.407 60.9877 264.617 61.0833 264.897 61.158V59.611C264.645 59.6437 264.442 59.7207 264.288 59.842C264.139 59.9633 264.064 60.1267 264.064 60.332ZM270.938 64.084C270.658 64.084 270.413 64.049 270.203 63.979C269.993 63.9043 269.816 63.804 269.671 63.678C269.531 63.552 269.424 63.4027 269.349 63.23C269.279 63.0573 269.244 62.8707 269.244 62.67C269.244 62.334 269.335 62.068 269.517 61.872C269.699 61.676 269.937 61.5383 270.231 61.459V61.403C269.974 61.3143 269.769 61.172 269.615 60.976C269.466 60.7753 269.391 60.535 269.391 60.255C269.391 59.8817 269.526 59.5853 269.797 59.366C270.068 59.142 270.448 59.03 270.938 59.03C271.428 59.03 271.808 59.142 272.079 59.366C272.35 59.5853 272.485 59.8817 272.485 60.255C272.485 60.535 272.408 60.7753 272.254 60.976C272.105 61.172 271.902 61.3143 271.645 61.403V61.459C271.939 61.5383 272.177 61.676 272.359 61.872C272.541 62.068 272.632 62.334 272.632 62.67C272.632 62.8707 272.595 63.0573 272.52 63.23C272.45 63.4027 272.343 63.552 272.198 63.678C272.058 63.804 271.883 63.9043 271.673 63.979C271.463 64.049 271.218 64.084 270.938 64.084ZM270.938 63.573C271.279 63.573 271.542 63.4983 271.729 63.349C271.916 63.195 272.009 62.978 272.009 62.698V62.551C272.009 62.271 271.916 62.0563 271.729 61.907C271.542 61.753 271.279 61.676 270.938 61.676C270.597 61.676 270.334 61.753 270.147 61.907C269.96 62.0563 269.867 62.271 269.867 62.551V62.698C269.867 62.978 269.96 63.195 270.147 63.349C270.334 63.4983 270.597 63.573 270.938 63.573ZM270.938 61.186C271.246 61.186 271.479 61.1207 271.638 60.99C271.797 60.8593 271.876 60.668 271.876 60.416V60.311C271.876 60.059 271.797 59.8677 271.638 59.737C271.479 59.6063 271.246 59.541 270.938 59.541C270.63 59.541 270.397 59.6063 270.238 59.737C270.079 59.8677 270 60.059 270 60.311V60.416C270 60.668 270.079 60.8593 270.238 60.99C270.397 61.1207 270.63 61.186 270.938 61.186ZM276.521 59.632H274.379L274.239 61.494H274.288C274.405 61.3307 274.535 61.2 274.68 61.102C274.829 61.004 275.032 60.955 275.289 60.955C275.499 60.955 275.693 60.99 275.87 61.06C276.047 61.13 276.201 61.2303 276.332 61.361C276.463 61.487 276.563 61.6433 276.633 61.83C276.708 62.0167 276.745 62.229 276.745 62.467C276.745 62.705 276.708 62.9243 276.633 63.125C276.558 63.321 276.449 63.4913 276.304 63.636C276.164 63.776 275.991 63.8857 275.786 63.965C275.585 64.0443 275.357 64.084 275.1 64.084C274.895 64.084 274.713 64.0607 274.554 64.014C274.4 63.9673 274.262 63.9043 274.141 63.825C274.02 63.7457 273.912 63.657 273.819 63.559C273.73 63.461 273.649 63.3583 273.574 63.251L274.015 62.915C274.076 63.013 274.139 63.1017 274.204 63.181C274.274 63.2603 274.349 63.328 274.428 63.384C274.512 63.44 274.608 63.4843 274.715 63.517C274.822 63.545 274.951 63.559 275.1 63.559C275.436 63.559 275.69 63.4703 275.863 63.293C276.036 63.1157 276.122 62.866 276.122 62.544V62.474C276.122 62.152 276.036 61.9023 275.863 61.725C275.69 61.5477 275.436 61.459 275.1 61.459C274.876 61.459 274.699 61.501 274.568 61.585C274.442 61.6643 274.328 61.76 274.225 61.872L273.728 61.802L273.903 59.114H276.521V59.632ZM279.857 64V63.041H277.498V62.523L279.542 59.114H280.417V62.551H281.124V63.041H280.417V64H279.857ZM278.051 62.551H279.857V59.569H279.822L278.051 62.551ZM282.382 64.084C282.232 64.084 282.123 64.0467 282.053 63.972C281.987 63.8973 281.955 63.7993 281.955 63.678V63.587C281.955 63.4657 281.987 63.3677 282.053 63.293C282.123 63.2183 282.232 63.181 282.382 63.181C282.531 63.181 282.638 63.2183 282.704 63.293C282.774 63.3677 282.809 63.4657 282.809 63.587V63.678C282.809 63.7993 282.774 63.8973 282.704 63.972C282.638 64.0467 282.531 64.084 282.382 64.084ZM285.444 64.084C285.192 64.084 284.963 64.042 284.758 63.958C284.557 63.8693 284.385 63.7457 284.24 63.587C284.1 63.4237 283.993 63.2253 283.918 62.992C283.843 62.7587 283.806 62.4973 283.806 62.208C283.806 61.844 283.86 61.5033 283.967 61.186C284.074 60.864 284.212 60.5723 284.38 60.311C284.553 60.045 284.742 59.8117 284.947 59.611C285.152 59.4057 285.353 59.24 285.549 59.114H286.305C286.044 59.3053 285.81 59.492 285.605 59.674C285.4 59.856 285.22 60.0473 285.066 60.248C284.912 60.444 284.781 60.6563 284.674 60.885C284.567 61.109 284.48 61.3633 284.415 61.648L284.45 61.662C284.567 61.4613 284.716 61.2957 284.898 61.165C285.085 61.0297 285.327 60.962 285.626 60.962C285.836 60.962 286.03 60.997 286.207 61.067C286.384 61.137 286.536 61.2373 286.662 61.368C286.788 61.4987 286.886 61.6573 286.956 61.844C287.031 62.0307 287.068 62.2383 287.068 62.467C287.068 62.705 287.028 62.9243 286.949 63.125C286.874 63.321 286.765 63.4913 286.62 63.636C286.48 63.776 286.31 63.8857 286.109 63.965C285.908 64.0443 285.687 64.084 285.444 64.084ZM285.437 63.573C285.759 63.573 286.009 63.4843 286.186 63.307C286.368 63.1297 286.459 62.8753 286.459 62.544V62.488C286.459 62.1567 286.368 61.9023 286.186 61.725C286.009 61.5477 285.759 61.459 285.437 61.459C285.115 61.459 284.863 61.5477 284.681 61.725C284.504 61.9023 284.415 62.1567 284.415 62.488V62.544C284.415 62.8753 284.504 63.1297 284.681 63.307C284.863 63.4843 285.115 63.573 285.437 63.573ZM291.265 60.906C291.265 61.27 291.212 61.613 291.104 61.935C290.997 62.2523 290.857 62.544 290.684 62.81C290.516 63.0713 290.33 63.3047 290.124 63.51C289.919 63.7107 289.718 63.874 289.522 64H288.766C289.028 63.8087 289.261 63.622 289.466 63.44C289.672 63.258 289.851 63.069 290.005 62.873C290.159 62.6723 290.29 62.46 290.397 62.236C290.505 62.0073 290.591 61.7507 290.656 61.466L290.621 61.452C290.505 61.6527 290.353 61.8207 290.166 61.956C289.984 62.0867 289.744 62.152 289.445 62.152C289.235 62.152 289.042 62.117 288.864 62.047C288.687 61.977 288.535 61.8767 288.409 61.746C288.283 61.6153 288.183 61.459 288.108 61.277C288.038 61.0903 288.003 60.8803 288.003 60.647C288.003 60.409 288.041 60.192 288.115 59.996C288.195 59.7953 288.304 59.625 288.444 59.485C288.589 59.3403 288.759 59.2283 288.955 59.149C289.156 59.0697 289.38 59.03 289.627 59.03C289.879 59.03 290.106 59.0743 290.306 59.163C290.512 59.247 290.684 59.3707 290.824 59.534C290.969 59.6927 291.079 59.8887 291.153 60.122C291.228 60.3553 291.265 60.6167 291.265 60.906ZM289.634 61.655C289.956 61.655 290.206 61.5663 290.383 61.389C290.565 61.2117 290.656 60.9573 290.656 60.626V60.57C290.656 60.2387 290.565 59.9843 290.383 59.807C290.206 59.6297 289.956 59.541 289.634 59.541C289.312 59.541 289.06 59.6297 288.878 59.807C288.701 59.9843 288.612 60.2387 288.612 60.57V60.626C288.612 60.9573 288.701 61.2117 288.878 61.389C289.06 61.5663 289.312 61.655 289.634 61.655Z" fill="#6E6E6E"/>
<rect x="255.25" y="0.25" width="71.5" height="77.5" rx="11.75" stroke="url(#paint4_linear_7_2835)" stroke-width="0.5"/>
<rect x="255.25" y="0.25" width="71.5" height="77.5" rx="11.75" stroke="url(#paint5_linear_7_2835)" stroke-width="0.5"/>
<rect x="255.25" y="90.25" width="71.5" height="71.5" rx="11.75" fill="url(#paint6_linear_7_2835)"/>
<rect x="255.25" y="90.25" width="71.5" height="71.5" rx="11.75" fill="url(#paint7_linear_7_2835)"/>
<path d="M280.952 102.046C280.965 102.222 280.965 102.398 280.965 102.576C280.965 107.998 276.837 114.251 269.29 114.251V114.248C267.06 114.251 264.877 113.613 263 112.409C263.324 112.448 263.65 112.467 263.977 112.468C265.824 112.469 267.619 111.849 269.073 110.708C267.317 110.675 265.777 109.53 265.239 107.858C265.854 107.977 266.488 107.953 267.092 107.788C265.178 107.401 263.8 105.719 263.8 103.766C263.8 103.748 263.8 103.731 263.8 103.714C264.371 104.031 265.009 104.208 265.663 104.227C263.86 103.022 263.304 100.624 264.393 98.7485C266.476 101.312 269.55 102.87 272.849 103.035C272.519 101.61 272.97 100.117 274.036 99.115C275.689 97.5615 278.288 97.6411 279.842 99.2929C280.761 99.1117 281.641 98.7745 282.447 98.2968C282.141 99.2466 281.5 100.053 280.644 100.566C281.457 100.47 282.252 100.252 283 99.9202C282.449 100.746 281.755 101.465 280.952 102.046Z" fill="white"/>
<path d="M265.296 135.632V140H264.708V135.632H263.154V135.114H266.85V135.632H265.296ZM268.438 140L267.248 135.114H267.871L268.396 137.466L268.802 139.293H268.816L269.271 137.466L269.887 135.114H270.559L271.154 137.466L271.609 139.286H271.63L272.05 137.466L272.603 135.114H273.205L271.952 140H271.301L270.664 137.564L270.216 135.772H270.202L269.74 137.564L269.089 140H268.438ZM275.741 135.632V140H275.153V135.632H273.599V135.114H277.295V135.632H275.741ZM278.69 140H278.102V135.114H280.048C280.478 135.114 280.811 135.233 281.049 135.471C281.292 135.709 281.413 136.052 281.413 136.5C281.413 136.859 281.329 137.156 281.161 137.389C280.998 137.618 280.755 137.769 280.433 137.844L281.553 140H280.888L279.831 137.9H278.69V140ZM280.048 137.396C280.282 137.396 280.461 137.335 280.587 137.214C280.718 137.093 280.783 136.92 280.783 136.696V136.332C280.783 136.108 280.718 135.935 280.587 135.814C280.461 135.693 280.282 135.632 280.048 135.632H278.69V137.396H280.048Z" fill="white"/>
<path d="M264.89 152.574V152C264.535 151.977 264.234 151.89 263.987 151.741C263.744 151.587 263.537 151.396 263.364 151.167L263.777 150.796C263.926 150.997 264.09 151.158 264.267 151.279C264.449 151.396 264.659 151.47 264.897 151.503V149.704C264.416 149.597 264.064 149.44 263.84 149.235C263.621 149.025 263.511 148.738 263.511 148.374C263.511 148.187 263.544 148.022 263.609 147.877C263.679 147.728 263.775 147.599 263.896 147.492C264.017 147.385 264.162 147.301 264.33 147.24C264.498 147.175 264.685 147.133 264.89 147.114V146.54H265.324V147.107C265.641 147.135 265.914 147.217 266.143 147.352C266.376 147.483 266.577 147.665 266.745 147.898L266.318 148.22C266.201 148.057 266.061 147.924 265.898 147.821C265.735 147.714 265.541 147.644 265.317 147.611V149.249L265.38 149.263C265.865 149.37 266.218 149.529 266.437 149.739C266.661 149.944 266.773 150.231 266.773 150.6C266.773 151.001 266.642 151.326 266.381 151.573C266.124 151.816 265.772 151.958 265.324 152V152.574H264.89ZM266.22 150.635C266.22 150.397 266.15 150.215 266.01 150.089C265.875 149.963 265.644 149.86 265.317 149.781V151.503C265.597 151.466 265.816 151.372 265.975 151.223C266.138 151.069 266.22 150.873 266.22 150.635ZM264.064 148.332C264.064 148.57 264.132 148.75 264.267 148.871C264.407 148.988 264.617 149.083 264.897 149.158V147.611C264.645 147.644 264.442 147.721 264.288 147.842C264.139 147.963 264.064 148.127 264.064 148.332ZM270.063 152L271.932 147.618H269.846V148.528H269.321V147.114H272.527V147.632L270.693 152H270.063ZM273.987 152.084C273.838 152.084 273.728 152.047 273.658 151.972C273.593 151.897 273.56 151.799 273.56 151.678V151.587C273.56 151.466 273.593 151.368 273.658 151.293C273.728 151.218 273.838 151.181 273.987 151.181C274.136 151.181 274.244 151.218 274.309 151.293C274.379 151.368 274.414 151.466 274.414 151.587V151.678C274.414 151.799 274.379 151.897 274.309 151.972C274.244 152.047 274.136 152.084 273.987 152.084ZM277.567 152V151.041H275.208V150.523L277.252 147.114H278.127V150.551H278.834V151.041H278.127V152H277.567ZM275.761 150.551H277.567V147.569H277.532L275.761 150.551ZM281.24 152.084C280.656 152.084 280.229 151.862 279.959 151.419C279.693 150.976 279.56 150.355 279.56 149.557C279.56 148.759 279.693 148.138 279.959 147.695C280.229 147.252 280.656 147.03 281.24 147.03C281.823 147.03 282.248 147.252 282.514 147.695C282.784 148.138 282.92 148.759 282.92 149.557C282.92 150.355 282.784 150.976 282.514 151.419C282.248 151.862 281.823 152.084 281.24 152.084ZM281.24 151.573C281.431 151.573 281.594 151.533 281.73 151.454C281.865 151.375 281.975 151.263 282.059 151.118C282.143 150.973 282.203 150.803 282.241 150.607C282.283 150.411 282.304 150.194 282.304 149.956V149.158C282.304 148.92 282.283 148.703 282.241 148.507C282.203 148.311 282.143 148.141 282.059 147.996C281.975 147.851 281.865 147.739 281.73 147.66C281.594 147.581 281.431 147.541 281.24 147.541C281.048 147.541 280.885 147.581 280.75 147.66C280.614 147.739 280.505 147.851 280.421 147.996C280.337 148.141 280.274 148.311 280.232 148.507C280.194 148.703 280.176 148.92 280.176 149.158V149.956C280.176 150.194 280.194 150.411 280.232 150.607C280.274 150.803 280.337 150.973 280.421 151.118C280.505 151.263 280.614 151.375 280.75 151.454C280.885 151.533 281.048 151.573 281.24 151.573Z" fill="white"/>
<rect x="255.25" y="90.25" width="71.5" height="71.5" rx="11.75" stroke="url(#paint8_linear_7_2835)" stroke-width="0.5"/>
<rect x="255.25" y="90.25" width="71.5" height="71.5" rx="11.75" stroke="url(#paint9_linear_7_2835)" stroke-width="0.5"/>
<rect x="1.25" y="0.25" width="71.5" height="71.5" rx="11.75" fill="url(#paint10_linear_7_2835)"/>
<rect x="1.25" y="0.25" width="71.5" height="71.5" rx="11.75" fill="url(#paint11_linear_7_2835)"/>
<g clip-path="url(#clip0_7_2835)">
<path d="M23.375 9.25C25.1 9.25 26.5 16.525 26.5 25.5H29C29 15.8333 26.5 8 23.375 8C21.6083 8 20.0417 10.3583 19 14.0333C17.9667 10.3583 16.3917 8 14.625 8C11.5 8 9 15.8333 9 25.5H11.5C11.5 16.525 12.9 9.25 14.625 9.25C16.35 9.25 17.75 15.9667 17.75 24.25H20.25C20.25 15.9667 21.65 9.25 23.375 9.25Z" fill="white"/>
</g>
<path d="M13.459 47.884H13.424L13.011 48.703L11.842 50.831L10.673 48.703L10.26 47.884H10.225V52H9.651V47.114H10.435L11.835 49.746H11.87L13.277 47.114H14.033V52H13.459V47.884ZM17.0537 52.084C16.433 52.084 15.95 51.874 15.6047 51.454C15.2593 51.0293 15.0867 50.4063 15.0867 49.585C15.0867 48.7637 15.2593 48.1337 15.6047 47.695C15.95 47.2517 16.433 47.03 17.0537 47.03C17.4643 47.03 17.8073 47.1233 18.0827 47.31C18.3627 47.4967 18.5797 47.7603 18.7337 48.101L18.2577 48.388C18.1597 48.136 18.0103 47.9353 17.8097 47.786C17.609 47.632 17.357 47.555 17.0537 47.555C16.8437 47.555 16.6547 47.5947 16.4867 47.674C16.3233 47.7533 16.1833 47.8677 16.0667 48.017C15.9547 48.1617 15.8683 48.3367 15.8077 48.542C15.747 48.7427 15.7167 48.969 15.7167 49.221V49.949C15.7167 50.453 15.8333 50.8473 16.0667 51.132C16.3 51.4167 16.629 51.559 17.0537 51.559C17.3663 51.559 17.6277 51.4797 17.8377 51.321C18.0477 51.1577 18.2017 50.943 18.2997 50.677L18.7687 50.971C18.6147 51.3163 18.393 51.5893 18.1037 51.79C17.8143 51.986 17.4643 52.084 17.0537 52.084ZM19.6793 47.114H21.3173C21.6207 47.114 21.896 47.1653 22.1433 47.268C22.3907 47.3707 22.6007 47.5247 22.7733 47.73C22.9507 47.9307 23.086 48.185 23.1793 48.493C23.2727 48.7963 23.3193 49.151 23.3193 49.557C23.3193 49.963 23.2727 50.32 23.1793 50.628C23.086 50.9313 22.9507 51.1857 22.7733 51.391C22.6007 51.5917 22.3907 51.7433 22.1433 51.846C21.896 51.9487 21.6207 52 21.3173 52H19.6793V47.114ZM21.3173 51.482C21.518 51.482 21.7023 51.4493 21.8703 51.384C22.0383 51.314 22.183 51.2137 22.3043 51.083C22.4257 50.9523 22.519 50.7937 22.5843 50.607C22.6543 50.4157 22.6893 50.1987 22.6893 49.956V49.158C22.6893 48.9153 22.6543 48.7007 22.5843 48.514C22.519 48.3227 22.4257 48.1617 22.3043 48.031C22.183 47.9003 22.0383 47.8023 21.8703 47.737C21.7023 47.667 21.518 47.632 21.3173 47.632H20.2673V51.482H21.3173Z" fill="white"/>
<path d="M10.89 62.574V62C10.5353 61.9767 10.2343 61.8903 9.987 61.741C9.74433 61.587 9.53667 61.3957 9.364 61.167L9.777 60.796C9.92633 60.9967 10.0897 61.1577 10.267 61.279C10.449 61.3957 10.659 61.4703 10.897 61.503V59.704C10.4163 59.5967 10.064 59.4403 9.84 59.235C9.62067 59.025 9.511 58.738 9.511 58.374C9.511 58.1873 9.54367 58.0217 9.609 57.877C9.679 57.7277 9.77467 57.5993 9.896 57.492C10.0173 57.3847 10.162 57.3007 10.33 57.24C10.498 57.1747 10.6847 57.1327 10.89 57.114V56.54H11.324V57.107C11.6413 57.135 11.9143 57.2167 12.143 57.352C12.3763 57.4827 12.577 57.6647 12.745 57.898L12.318 58.22C12.2013 58.0567 12.0613 57.9237 11.898 57.821C11.7347 57.7137 11.541 57.6437 11.317 57.611V59.249L11.38 59.263C11.8653 59.3703 12.2177 59.529 12.437 59.739C12.661 59.9443 12.773 60.2313 12.773 60.6C12.773 61.0013 12.6423 61.3257 12.381 61.573C12.1243 61.8157 11.772 61.958 11.324 62V62.574H10.89ZM12.22 60.635C12.22 60.397 12.15 60.215 12.01 60.089C11.8747 59.963 11.6437 59.8603 11.317 59.781V61.503C11.597 61.4657 11.8163 61.3723 11.975 61.223C12.1383 61.069 12.22 60.873 12.22 60.635ZM10.064 58.332C10.064 58.57 10.1317 58.7497 10.267 58.871C10.407 58.9877 10.617 59.0833 10.897 59.158V57.611C10.645 57.6437 10.442 57.7207 10.288 57.842C10.1387 57.9633 10.064 58.1267 10.064 58.332ZM18.5689 62H15.3629V61.398L16.9589 59.928C17.1876 59.718 17.3789 59.4963 17.5329 59.263C17.6869 59.025 17.7639 58.787 17.7639 58.549V58.465C17.7639 58.1943 17.6892 57.975 17.5399 57.807C17.3906 57.639 17.1642 57.555 16.8609 57.555C16.7116 57.555 16.5809 57.576 16.4689 57.618C16.3569 57.66 16.2589 57.7183 16.1749 57.793C16.0956 57.8677 16.0279 57.9563 15.9719 58.059C15.9206 58.157 15.8786 58.2643 15.8459 58.381L15.3209 58.178C15.3676 58.0333 15.4306 57.8933 15.5099 57.758C15.5939 57.618 15.6966 57.4943 15.8179 57.387C15.9439 57.2797 16.0932 57.1933 16.2659 57.128C16.4432 57.0627 16.6509 57.03 16.8889 57.03C17.1269 57.03 17.3392 57.065 17.5259 57.135C17.7126 57.205 17.8689 57.303 17.9949 57.429C18.1209 57.555 18.2166 57.7043 18.2819 57.877C18.3519 58.0497 18.3869 58.241 18.3869 58.451C18.3869 58.6423 18.3589 58.8197 18.3029 58.983C18.2516 59.1463 18.1792 59.3027 18.0859 59.452C17.9926 59.5967 17.8782 59.739 17.7429 59.879C17.6122 60.019 17.4699 60.159 17.3159 60.299L15.9999 61.482H18.5689V62ZM21.1352 62.084C20.5518 62.084 20.1248 61.8623 19.8542 61.419C19.5882 60.9757 19.4552 60.355 19.4552 59.557C19.4552 58.759 19.5882 58.1383 19.8542 57.695C20.1248 57.2517 20.5518 57.03 21.1352 57.03C21.7185 57.03 22.1432 57.2517 22.4092 57.695C22.6798 58.1383 22.8152 58.759 22.8152 59.557C22.8152 60.355 22.6798 60.9757 22.4092 61.419C22.1432 61.8623 21.7185 62.084 21.1352 62.084ZM21.1352 61.573C21.3265 61.573 21.4898 61.5333 21.6252 61.454C21.7605 61.3747 21.8702 61.2627 21.9542 61.118C22.0382 60.9733 22.0988 60.803 22.1362 60.607C22.1782 60.411 22.1992 60.194 22.1992 59.956V59.158C22.1992 58.92 22.1782 58.703 22.1362 58.507C22.0988 58.311 22.0382 58.1407 21.9542 57.996C21.8702 57.8513 21.7605 57.7393 21.6252 57.66C21.4898 57.5807 21.3265 57.541 21.1352 57.541C20.9438 57.541 20.7805 57.5807 20.6452 57.66C20.5098 57.7393 20.4002 57.8513 20.3162 57.996C20.2322 58.1407 20.1692 58.311 20.1272 58.507C20.0898 58.703 20.0712 58.92 20.0712 59.158V59.956C20.0712 60.194 20.0898 60.411 20.1272 60.607C20.1692 60.803 20.2322 60.9733 20.3162 61.118C20.4002 61.2627 20.5098 61.3747 20.6452 61.454C20.7805 61.5333 20.9438 61.573 21.1352 61.573ZM25.3324 62.084C25.0524 62.084 24.8074 62.049 24.5974 61.979C24.3874 61.9043 24.2101 61.804 24.0654 61.678C23.9254 61.552 23.8181 61.4027 23.7434 61.23C23.6734 61.0573 23.6384 60.8707 23.6384 60.67C23.6384 60.334 23.7294 60.068 23.9114 59.872C24.0934 59.676 24.3314 59.5383 24.6254 59.459V59.403C24.3688 59.3143 24.1634 59.172 24.0094 58.976C23.8601 58.7753 23.7854 58.535 23.7854 58.255C23.7854 57.8817 23.9208 57.5853 24.1914 57.366C24.4621 57.142 24.8424 57.03 25.3324 57.03C25.8224 57.03 26.2028 57.142 26.4734 57.366C26.7441 57.5853 26.8794 57.8817 26.8794 58.255C26.8794 58.535 26.8024 58.7753 26.6484 58.976C26.4991 59.172 26.2961 59.3143 26.0394 59.403V59.459C26.3334 59.5383 26.5714 59.676 26.7534 59.872C26.9354 60.068 27.0264 60.334 27.0264 60.67C27.0264 60.8707 26.9891 61.0573 26.9144 61.23C26.8444 61.4027 26.7371 61.552 26.5924 61.678C26.4524 61.804 26.2774 61.9043 26.0674 61.979C25.8574 62.049 25.6124 62.084 25.3324 62.084ZM25.3324 61.573C25.6731 61.573 25.9368 61.4983 26.1234 61.349C26.3101 61.195 26.4034 60.978 26.4034 60.698V60.551C26.4034 60.271 26.3101 60.0563 26.1234 59.907C25.9368 59.753 25.6731 59.676 25.3324 59.676C24.9918 59.676 24.7281 59.753 24.5414 59.907C24.3548 60.0563 24.2614 60.271 24.2614 60.551V60.698C24.2614 60.978 24.3548 61.195 24.5414 61.349C24.7281 61.4983 24.9918 61.573 25.3324 61.573ZM25.3324 59.186C25.6404 59.186 25.8738 59.1207 26.0324 58.99C26.1911 58.8593 26.2704 58.668 26.2704 58.416V58.311C26.2704 58.059 26.1911 57.8677 26.0324 57.737C25.8738 57.6063 25.6404 57.541 25.3324 57.541C25.0244 57.541 24.7911 57.6063 24.6324 57.737C24.4738 57.8677 24.3944 58.059 24.3944 58.311V58.416C24.3944 58.668 24.4738 58.8593 24.6324 58.99C24.7911 59.1207 25.0244 59.186 25.3324 59.186ZM28.3817 62.084C28.2324 62.084 28.1227 62.0467 28.0527 61.972C27.9874 61.8973 27.9547 61.7993 27.9547 61.678V61.587C27.9547 61.4657 27.9874 61.3677 28.0527 61.293C28.1227 61.2183 28.2324 61.181 28.3817 61.181C28.531 61.181 28.6384 61.2183 28.7037 61.293C28.7737 61.3677 28.8087 61.4657 28.8087 61.587V61.678C28.8087 61.7993 28.7737 61.8973 28.7037 61.972C28.6384 62.0467 28.531 62.084 28.3817 62.084ZM30.5619 62L32.4309 57.618H30.3449V58.528H29.8199V57.114H33.0259V57.632L31.1919 62H30.5619ZM34.1502 62V61.482H35.5152V57.548H35.4662L34.2342 58.696L33.8912 58.325L35.1862 57.114H36.1032V61.482H37.3632V62H34.1502Z" fill="white"/>
<rect x="1.25" y="0.25" width="71.5" height="71.5" rx="11.75" stroke="url(#paint12_linear_7_2835)" stroke-width="0.5"/>
<rect x="1.25" y="0.25" width="71.5" height="71.5" rx="11.75" stroke="url(#paint13_linear_7_2835)" stroke-width="0.5"/>
<defs>
<linearGradient id="paint0_linear_7_2835" x1="103.298" y1="1.56361e-06" x2="166.694" y2="160.939" gradientUnits="userSpaceOnUse">
<stop stop-color="#171717"/>
<stop offset="1" stop-color="#343333"/>
</linearGradient>
<linearGradient id="paint1_linear_7_2835" x1="126.079" y1="-3.51754e-07" x2="162.397" y2="111.618" gradientUnits="userSpaceOnUse">
<stop stop-color="#484848"/>
<stop offset="0.222593" stop-color="#2E2E2E"/>
<stop offset="1" stop-color="#151515"/>
</linearGradient>
<linearGradient id="paint2_linear_7_2835" x1="263.339" y1="7.52851e-07" x2="295.093" y2="76.2964" gradientUnits="userSpaceOnUse">
<stop stop-color="#171717"/>
<stop offset="1" stop-color="#343333"/>
</linearGradient>
<linearGradient id="paint3_linear_7_2835" x1="291" y1="0" x2="291" y2="78" gradientUnits="userSpaceOnUse">
<stop stop-color="#A0A0A0"/>
<stop offset="1" stop-color="#E3E3E3"/>
</linearGradient>
<linearGradient id="paint4_linear_7_2835" x1="273.719" y1="-1.69363e-07" x2="291.992" y2="53.1499" gradientUnits="userSpaceOnUse">
<stop stop-color="#484848"/>
<stop offset="0.222593" stop-color="#2E2E2E"/>
<stop offset="1" stop-color="#151515"/>
</linearGradient>
<linearGradient id="paint5_linear_7_2835" x1="291" y1="0" x2="291" y2="78" gradientUnits="userSpaceOnUse">
<stop offset="0.000302188" stop-color="#D1D1D1"/>
<stop offset="0.237736" stop-color="#A0A0A0"/>
<stop offset="1" stop-color="#E3E3E3"/>
</linearGradient>
<linearGradient id="paint6_linear_7_2835" x1="263.339" y1="90" x2="291" y2="162" gradientUnits="userSpaceOnUse">
<stop stop-color="#171717"/>
<stop offset="1" stop-color="#343333"/>
</linearGradient>
<linearGradient id="paint7_linear_7_2835" x1="291" y1="90" x2="298.198" y2="162" gradientUnits="userSpaceOnUse">
<stop stop-color="#387ACD"/>
<stop offset="1" stop-color="#69CEE8"/>
</linearGradient>
<linearGradient id="paint8_linear_7_2835" x1="273.719" y1="90" x2="289.536" y2="139.841" gradientUnits="userSpaceOnUse">
<stop stop-color="#484848"/>
<stop offset="0.222593" stop-color="#2E2E2E"/>
<stop offset="1" stop-color="#151515"/>
</linearGradient>
<linearGradient id="paint9_linear_7_2835" x1="281.078" y1="90" x2="298.198" y2="162" gradientUnits="userSpaceOnUse">
<stop stop-color="#ACD1FF"/>
<stop offset="0.150144" stop-color="#387ACD"/>
<stop offset="1" stop-color="#69CEE8"/>
</linearGradient>
<linearGradient id="paint10_linear_7_2835" x1="9.33853" y1="6.94939e-07" x2="37" y2="72" gradientUnits="userSpaceOnUse">
<stop stop-color="#171717"/>
<stop offset="1" stop-color="#343333"/>
</linearGradient>
<linearGradient id="paint11_linear_7_2835" x1="37" y1="4.35131e-07" x2="51.6006" y2="72" gradientUnits="userSpaceOnUse">
<stop stop-color="#E16A11"/>
<stop offset="1" stop-color="#F6BF35"/>
</linearGradient>
<linearGradient id="paint12_linear_7_2835" x1="19.7195" y1="-1.56335e-07" x2="35.5361" y2="49.8407" gradientUnits="userSpaceOnUse">
<stop stop-color="#484848"/>
<stop offset="0.222593" stop-color="#2E2E2E"/>
<stop offset="1" stop-color="#151515"/>
</linearGradient>
<linearGradient id="paint13_linear_7_2835" x1="37" y1="4.35131e-07" x2="51.6006" y2="72" gradientUnits="userSpaceOnUse">
<stop offset="0.00012015" stop-color="#FFA460"/>
<stop offset="0.245152" stop-color="#E16A11"/>
<stop offset="1" stop-color="#F6BF35"/>
</linearGradient>
<clipPath id="clip0_7_2835">
<rect width="20" height="17.6667" fill="white" transform="translate(9 8)"/>
</clipPath>
</defs>
</svg>
