<svg width="140" height="21" fill="none" xmlns="http://www.w3.org/2000/svg"><path d="M10.902.511h3.472L20 20.49h-4.738l-1.076-4.233H6.783L4.63 20.49H0L10.902.51zm.835 5.813l-3.15 6.208h4.657l-1.508-6.208zM36.367 5.92a3.599 3.599 0 00-1.383-1.155 4.675 4.675 0 00-2.034-.403 5.815 5.815 0 00-2.278.456 6.34 6.34 0 00-1.937 1.276A7.339 7.339 0 0027.3 8.041a7.646 7.646 0 00-.773 2.443c-.13.817-.107 1.65.068 2.459.15.697.446 1.355.867 1.933.403.543.934.981 1.546 1.276.646.31 1.356.465 2.074.456a5.294 5.294 0 002.384-.537 5.586 5.586 0 001.871-1.504l3.146 2.607a8.996 8.996 0 01-3.444 2.497 10.433 10.433 0 01-3.959.805 11.164 11.164 0 01-4.054-.698 7.807 7.807 0 01-2.996-2 7.586 7.586 0 01-1.708-3.155 10.051 10.051 0 01-.19-4.135c.193-1.45.658-2.852 1.369-4.134a11.125 11.125 0 016.17-5.156A12.866 12.866 0 0133.925.5c.56.002 1.117.051 1.668.148a8.42 8.42 0 011.667.47 6.662 6.662 0 011.532.859c.481.36.89.807 1.207 1.316l-3.633 2.626zM48.902.5h3.472L58 20.477h-4.737l-1.077-4.232h-7.402l-2.154 4.232H38L48.902.5zm.835 5.813l-3.15 6.208h4.657l-1.507-6.208zM62.52.523h5.957c1.36-.011 2.716.169 4.035.536a7.826 7.826 0 013.182 1.735 6.918 6.918 0 011.91 3.119c.413 1.507.505 3.101.267 4.655a11.41 11.41 0 01-1.362 4.275 10.888 10.888 0 01-2.611 3.104 11.156 11.156 0 01-3.475 1.904c-1.275.432-2.6.65-3.933.649H60L62.52.523zm1.96 15.914h2.062c.873.006 1.744-.099 2.596-.31a6.032 6.032 0 002.176-1.03 5.778 5.778 0 001.591-1.89c.456-.883.75-1.856.866-2.865a6.064 6.064 0 00-.166-2.553 4.049 4.049 0 00-1.107-1.792 4.927 4.927 0 00-1.843-1.058 7.47 7.47 0 00-2.33-.353h-2.343L64.48 16.437zM82.731.523H96l-.552 4.063h-8.965l-.524 3.724h8.468l-.552 4.064h-8.468l-.552 4.063h9.462l-.551 4.063H80L82.731.523zM99.643.523h6.301l2.616 13.035h.053L114.726.523H121l-2.644 19.976h-4.164l2.029-15.32h-.053l-6.993 15.32h-3.179l-2.749-15.32h-.053l-2.03 15.321H97L99.643.523zM127.467 11.979L122 .523h5.076L130.032 8 135.16.523H140l-8.451 11.456-1.099 8.521h-4.081l1.098-8.521z" fill="#fff"/></svg>