<svg width="65" height="64" viewBox="0 0 65 64" fill="none" xmlns="http://www.w3.org/2000/svg">
<path d="M35.9 11.2104L27.47 19.6404C26.44 20.6704 26.44 22.3404 27.47 23.3704L28.38 24.2804C29.41 25.3104 31.08 25.3104 32.11 24.2804L33.8 22.5904C34.35 22.0404 35.3 22.4304 35.3 23.2104V34.0804H31.08H29.9C27.14 34.0804 24.9 36.3204 24.9 39.0804V40.2603V44.2904H19.91C17.15 44.2904 14.91 46.5304 14.91 49.2904V52.1804C14.91 53.8904 16.29 55.2704 18 55.2704C19.71 55.2704 21.09 53.8904 21.09 52.1804V50.4704H24.9H26.08C28.84 50.4704 31.08 48.2304 31.08 45.4704V40.2603H35.3H36.48C39.24 40.2603 41.48 38.0203 41.48 35.2603V34.0804V23.2104C41.48 22.4304 42.43 22.0304 42.98 22.5904L44.66 24.2704C45.69 25.3004 47.36 25.3004 48.39 24.2704L49.3 23.3604C50.33 22.3304 50.33 20.6604 49.3 19.6304L40.87 11.2004C39.5 9.83035 37.27 9.83035 35.9 11.2004V11.2104Z" stroke="#414652" stroke-width="2.6" stroke-linecap="round" stroke-linejoin="round"/>
</svg>
