<svg width="343" height="228" viewBox="0 0 343 228" fill="none" xmlns="http://www.w3.org/2000/svg">
<g filter="url(#filter0_d_1833_16474)">
<rect x="7.5" y="6" width="328" height="213.697" rx="4.14138" fill="white"/>
</g>
<path d="M221.026 180V171.734H226.071V172.724H222.183V175.181H225.642V176.147H222.183V179.01H226.369V180H221.026ZM227.768 173.977C228.023 173.913 228.36 173.846 228.782 173.774C229.203 173.702 229.688 173.667 230.237 173.667C230.73 173.667 231.14 173.738 231.466 173.881C231.792 174.016 232.05 174.211 232.241 174.466C232.44 174.712 232.579 175.01 232.658 175.36C232.738 175.71 232.778 176.096 232.778 176.517V180H231.668V176.756C231.668 176.374 231.64 176.048 231.585 175.778C231.537 175.507 231.454 175.289 231.334 175.122C231.215 174.955 231.056 174.835 230.857 174.764C230.658 174.684 230.412 174.645 230.118 174.645C229.999 174.645 229.875 174.649 229.748 174.657C229.621 174.665 229.498 174.676 229.378 174.692C229.267 174.7 229.164 174.712 229.068 174.728C228.981 174.744 228.917 174.756 228.877 174.764V180H227.768V173.977ZM238.625 175.11C238.489 174.998 238.295 174.891 238.04 174.788C237.786 174.684 237.507 174.633 237.205 174.633C236.887 174.633 236.613 174.692 236.382 174.812C236.16 174.923 235.977 175.082 235.834 175.289C235.69 175.488 235.587 175.726 235.523 176.004C235.46 176.283 235.428 176.581 235.428 176.899C235.428 177.622 235.607 178.183 235.965 178.581C236.323 178.97 236.8 179.165 237.396 179.165C237.698 179.165 237.949 179.153 238.147 179.129C238.354 179.098 238.513 179.066 238.625 179.034V175.11ZM238.625 170.935L239.734 170.744V179.821C239.479 179.893 239.153 179.964 238.756 180.036C238.358 180.107 237.901 180.143 237.384 180.143C236.907 180.143 236.478 180.068 236.096 179.917C235.714 179.765 235.388 179.551 235.118 179.272C234.848 178.994 234.637 178.656 234.486 178.259C234.343 177.853 234.271 177.4 234.271 176.899C234.271 176.422 234.331 175.984 234.45 175.587C234.577 175.189 234.76 174.847 234.999 174.561C235.237 174.275 235.527 174.052 235.869 173.893C236.219 173.734 236.617 173.655 237.062 173.655C237.42 173.655 237.734 173.702 238.004 173.798C238.283 173.893 238.489 173.985 238.625 174.072V170.935Z" fill="#414652"/>
<path d="M39.0815 36.7495C38.4043 36.7495 37.8198 36.6567 37.3282 36.4712C36.8365 36.2764 36.4283 36.012 36.1036 35.678C35.7882 35.3348 35.5517 34.9313 35.394 34.4674C35.2455 33.9943 35.1713 33.4748 35.1713 32.9089V26.9115H37.3421V32.728C37.3421 33.1176 37.3838 33.4516 37.4673 33.7299C37.5601 33.9989 37.6807 34.2216 37.8291 34.3978C37.9868 34.5648 38.1724 34.6854 38.3857 34.7596C38.6084 34.8338 38.8496 34.871 39.1093 34.871C39.6381 34.871 40.0648 34.7086 40.3895 34.3839C40.7235 34.0592 40.8905 33.5073 40.8905 32.728V26.9115H43.0612V32.9089C43.0612 33.4748 42.9824 33.9943 42.8247 34.4674C42.667 34.9405 42.4258 35.3487 42.1011 35.6919C41.7764 36.0259 41.3636 36.2857 40.8626 36.4712C40.3617 36.6567 39.768 36.7495 39.0815 36.7495ZM49.6992 32.9507C49.6992 32.3106 49.5554 31.8003 49.2678 31.42C48.9802 31.0304 48.5535 30.8356 47.9876 30.8356C47.8021 30.8356 47.6305 30.8448 47.4728 30.8634C47.315 30.8727 47.1852 30.8866 47.0831 30.9051V34.6483C47.213 34.7318 47.38 34.8014 47.5841 34.857C47.7974 34.9127 48.0108 34.9405 48.2242 34.9405C49.2075 34.9405 49.6992 34.2772 49.6992 32.9507ZM51.8143 32.895C51.8143 33.4609 51.7447 33.9757 51.6056 34.4396C51.4664 34.9034 51.2623 35.3023 50.9933 35.6363C50.7243 35.9703 50.3903 36.23 49.9914 36.4155C49.5925 36.6011 49.1333 36.6938 48.6138 36.6938C48.3262 36.6938 48.0572 36.666 47.8067 36.6103C47.5562 36.5547 47.315 36.4758 47.0831 36.3738V39.129H45.0098V29.4858C45.1953 29.4301 45.4087 29.3791 45.6499 29.3327C45.8911 29.2771 46.1415 29.2307 46.4013 29.1936C46.6703 29.1565 46.9393 29.1286 47.2084 29.1101C47.4867 29.0823 47.7511 29.0683 48.0015 29.0683C48.6045 29.0683 49.1426 29.1611 49.6157 29.3466C50.0888 29.5229 50.4877 29.778 50.8124 30.112C51.1371 30.4367 51.3829 30.8356 51.5499 31.3087C51.7262 31.7818 51.8143 32.3106 51.8143 32.895Z" fill="#414652"/>
<rect x="8.01245" y="56.8835" width="326.975" height="162.301" stroke="#ECECEC" stroke-width="1.0249"/>
<path d="M7.5 110.16H335.5" stroke="#ECECEC" stroke-width="1.0249"/>
<path d="M7.5 83.7578H335.5" stroke="#ECECEC" stroke-width="1.0249"/>
<path d="M7.5 136.57H335.5" stroke="#ECECEC" stroke-width="1.0249"/>
<path d="M7.5 162.973H335.5" stroke="#ECECEC" stroke-width="1.0249"/>
<path d="M7.5 189.379H335.5" stroke="#ECECEC" stroke-width="1.0249"/>
<path d="M62.6777 56.3711L62.6777 219.697" stroke="#ECECEC" stroke-width="1.0249"/>
<path d="M116.833 56.3711L116.833 219.697" stroke="#ECECEC" stroke-width="1.0249"/>
<path d="M170.989 56.3711L170.989 219.697" stroke="#ECECEC" stroke-width="1.0249"/>
<path d="M225.145 56.3711L225.145 219.697" stroke="#ECECEC" stroke-width="1.0249"/>
<path d="M279.301 56.3711L279.301 219.697" stroke="#ECECEC" stroke-width="1.0249"/>
<path d="M7.5 57.1328H335.5" stroke="#ECECEC" stroke-width="1.5302"/>
<path d="M69.5 124.5L100 99L120 115.5L150 91L202.5 127L233.5 113L255.5 171" stroke="#A8A8A8" stroke-width="3.97576"/>
<line x1="8" y1="136.617" x2="334.474" y2="136.617" stroke="black" stroke-width="0.765102"/>
<path d="M289.415 143.241C289.627 143.188 289.879 143.142 290.171 143.102C290.462 143.062 290.764 143.042 291.075 143.042C291.36 143.042 291.638 143.066 291.91 143.112C292.182 143.158 292.424 143.241 292.636 143.36C292.854 143.48 293.027 143.642 293.152 143.848C293.285 144.046 293.351 144.298 293.351 144.603C293.351 144.828 293.312 145.037 293.232 145.229C293.152 145.421 293.046 145.594 292.914 145.746C292.788 145.892 292.639 146.021 292.467 146.134C292.294 146.24 292.115 146.322 291.93 146.382C292.082 146.422 292.218 146.485 292.337 146.571C292.463 146.657 292.566 146.76 292.646 146.879C292.732 146.992 292.798 147.121 292.844 147.267C292.891 147.406 292.914 147.548 292.914 147.694C292.914 148.165 292.818 148.552 292.626 148.857C292.434 149.162 292.182 149.404 291.87 149.583C291.559 149.761 291.201 149.887 290.797 149.96C290.399 150.027 289.988 150.06 289.564 150.06C289.246 150.06 288.938 150.04 288.64 150C288.348 149.967 288.077 149.924 287.825 149.871L289.415 143.241ZM288.6 149.414C288.739 149.44 288.892 149.46 289.057 149.473C289.223 149.48 289.399 149.483 289.584 149.483C289.909 149.483 290.227 149.46 290.538 149.414C290.856 149.367 291.138 149.281 291.383 149.155C291.628 149.023 291.824 148.844 291.97 148.618C292.122 148.393 292.198 148.098 292.198 147.734C292.198 147.343 292.066 147.075 291.801 146.929C291.536 146.776 291.102 146.7 290.499 146.7H289.236L288.6 149.414ZM290.31 146.124C291.145 146.124 291.741 145.998 292.099 145.746C292.463 145.488 292.646 145.146 292.646 144.722C292.646 144.325 292.503 144.043 292.218 143.877C291.94 143.712 291.512 143.629 290.936 143.629C290.757 143.629 290.585 143.635 290.419 143.649C290.253 143.662 290.108 143.679 289.982 143.698L289.385 146.124H290.31ZM297.771 145.418C297.652 145.391 297.543 145.372 297.443 145.358C297.344 145.345 297.241 145.338 297.135 145.338C296.724 145.338 296.36 145.418 296.042 145.577C295.724 145.736 295.455 145.945 295.237 146.203C295.018 146.462 294.849 146.756 294.73 147.088C294.617 147.419 294.561 147.757 294.561 148.102C294.561 148.373 294.587 148.602 294.64 148.787C294.693 148.966 294.766 149.112 294.859 149.225C294.952 149.331 295.058 149.41 295.177 149.463C295.303 149.51 295.435 149.533 295.575 149.533C295.846 149.533 296.101 149.47 296.34 149.344C296.578 149.211 296.804 149.026 297.016 148.787C297.016 148.608 297.042 148.403 297.095 148.171C297.148 147.939 297.198 147.731 297.244 147.545L297.771 145.418ZM297.195 150.06C297.155 149.98 297.118 149.891 297.085 149.791C297.059 149.685 297.039 149.579 297.026 149.473C296.794 149.699 296.549 149.864 296.29 149.97C296.038 150.076 295.777 150.129 295.505 150.129C295.293 150.129 295.091 150.093 294.899 150.02C294.706 149.947 294.538 149.834 294.392 149.682C294.246 149.53 294.127 149.334 294.034 149.096C293.948 148.85 293.905 148.562 293.905 148.231C293.905 147.701 293.991 147.22 294.163 146.79C294.335 146.359 294.574 145.994 294.879 145.696C295.19 145.391 295.555 145.156 295.972 144.991C296.396 144.825 296.857 144.742 297.354 144.742C297.764 144.742 298.159 144.812 298.536 144.951L297.771 148.042C297.731 148.208 297.698 148.363 297.672 148.509C297.645 148.655 297.632 148.794 297.632 148.927C297.632 149.105 297.649 149.274 297.682 149.433C297.715 149.592 297.774 149.768 297.861 149.96L297.195 150.06ZM300.121 145.09C300.373 144.991 300.648 144.908 300.946 144.841C301.251 144.775 301.549 144.742 301.841 144.742C301.993 144.742 302.139 144.752 302.278 144.772C302.417 144.792 302.55 144.825 302.676 144.871L302.507 145.458C302.248 145.378 301.983 145.338 301.712 145.338C301.539 145.338 301.367 145.352 301.195 145.378C301.023 145.405 300.85 145.444 300.678 145.497L299.595 150H298.949L300.121 145.09ZM303.761 145.09C304.013 144.991 304.288 144.908 304.586 144.841C304.891 144.775 305.189 144.742 305.481 144.742C305.633 144.742 305.779 144.752 305.918 144.772C306.057 144.792 306.19 144.825 306.316 144.871L306.147 145.458C305.888 145.378 305.623 145.338 305.352 145.338C305.179 145.338 305.007 145.352 304.835 145.378C304.662 145.405 304.49 145.444 304.318 145.497L303.235 150H302.588L303.761 145.09ZM307.471 144.861H308.117L306.874 150H306.228L307.471 144.861ZM307.729 143.36C307.729 143.188 307.776 143.059 307.868 142.973C307.968 142.88 308.074 142.834 308.186 142.834C308.319 142.834 308.422 142.877 308.495 142.963C308.567 143.042 308.604 143.148 308.604 143.281C308.604 143.44 308.551 143.563 308.445 143.649C308.339 143.735 308.233 143.778 308.127 143.778C307.994 143.778 307.895 143.741 307.829 143.669C307.762 143.589 307.729 143.486 307.729 143.36ZM313.11 146.064C313.11 146.435 313.017 146.737 312.832 146.968C312.653 147.2 312.398 147.386 312.066 147.525C311.742 147.658 311.347 147.754 310.884 147.813C310.426 147.873 309.916 147.916 309.353 147.943V148.151C309.353 148.343 309.373 148.522 309.412 148.688C309.452 148.854 309.525 148.999 309.631 149.125C309.737 149.245 309.883 149.341 310.068 149.414C310.261 149.486 310.506 149.523 310.804 149.523C311.036 149.523 311.268 149.49 311.5 149.424C311.738 149.357 311.964 149.258 312.176 149.125L312.245 149.722C312.02 149.848 311.771 149.944 311.5 150.01C311.228 150.083 310.953 150.119 310.675 150.119C310.31 150.119 310.002 150.073 309.75 149.98C309.505 149.887 309.303 149.758 309.144 149.592C308.992 149.427 308.882 149.228 308.816 148.996C308.75 148.764 308.717 148.509 308.717 148.231C308.717 147.807 308.78 147.386 308.906 146.968C309.038 146.551 309.23 146.177 309.482 145.845C309.734 145.514 310.042 145.249 310.406 145.05C310.777 144.845 311.198 144.742 311.669 144.742C312.133 144.742 312.487 144.865 312.732 145.11C312.984 145.348 313.11 145.666 313.11 146.064ZM311.609 145.328C311.344 145.328 311.096 145.385 310.864 145.497C310.632 145.603 310.423 145.749 310.237 145.935C310.052 146.12 309.89 146.336 309.75 146.581C309.618 146.826 309.518 147.084 309.452 147.356C310.015 147.343 310.489 147.306 310.874 147.247C311.258 147.187 311.566 147.104 311.798 146.998C312.036 146.892 312.205 146.766 312.305 146.621C312.404 146.468 312.454 146.296 312.454 146.104C312.454 145.845 312.374 145.653 312.215 145.527C312.063 145.395 311.861 145.328 311.609 145.328ZM314.594 145.09C314.845 144.991 315.12 144.908 315.419 144.841C315.723 144.775 316.022 144.742 316.313 144.742C316.466 144.742 316.611 144.752 316.751 144.772C316.89 144.792 317.022 144.825 317.148 144.871L316.979 145.458C316.721 145.378 316.456 145.338 316.184 145.338C316.012 145.338 315.839 145.352 315.667 145.378C315.495 145.405 315.323 145.444 315.15 145.497L314.067 150H313.421L314.594 145.09Z" fill="#414652" fill-opacity="0.6"/>
<path d="M77.903 122.452C77.903 126.843 74.343 130.403 69.9515 130.403C65.56 130.403 62 126.843 62 122.452C62 118.06 65.56 114.5 69.9515 114.5C74.343 114.5 77.903 118.06 77.903 122.452Z" fill="#FF444F"/>
<path d="M58.946 149.677C60.1547 149.677 60.759 149.264 60.759 148.437C60.759 148.182 60.7033 147.967 60.592 147.793C60.4886 147.61 60.3455 147.455 60.1626 147.327C59.9797 147.192 59.769 147.077 59.5305 146.981C59.2999 146.886 59.0534 146.791 58.791 146.695C58.4888 146.592 58.2026 146.477 57.9322 146.349C57.6619 146.214 57.4273 146.059 57.2285 145.884C57.0297 145.701 56.8707 145.487 56.7514 145.24C56.6401 144.994 56.5844 144.695 56.5844 144.346C56.5844 143.622 56.8309 143.057 57.3239 142.652C57.8169 142.246 58.4968 142.044 59.3635 142.044C59.8644 142.044 60.3177 142.099 60.7232 142.211C61.1367 142.314 61.4388 142.429 61.6297 142.556L61.2599 143.499C61.0929 143.395 60.8425 143.296 60.5085 143.201C60.1825 143.097 59.8008 143.045 59.3635 143.045C59.1408 143.045 58.9341 143.069 58.7433 143.117C58.5524 143.165 58.3855 143.236 58.2423 143.332C58.0992 143.427 57.9839 143.55 57.8964 143.701C57.8169 143.845 57.7772 144.016 57.7772 144.214C57.7772 144.437 57.8209 144.624 57.9084 144.775C57.9958 144.926 58.1191 145.061 58.2781 145.18C58.4371 145.292 58.62 145.395 58.8268 145.491C59.0415 145.586 59.276 145.681 59.5305 145.777C59.8883 145.92 60.2143 146.063 60.5085 146.206C60.8107 146.349 61.0691 146.52 61.2838 146.719C61.5064 146.918 61.6774 147.156 61.7967 147.435C61.9159 147.705 61.9756 148.035 61.9756 148.425C61.9756 149.148 61.7092 149.705 61.1764 150.094C60.6516 150.484 59.9082 150.679 58.946 150.679C58.62 150.679 58.3179 150.655 58.0396 150.607C57.7692 150.568 57.5267 150.52 57.312 150.464C57.0973 150.401 56.9104 150.337 56.7514 150.273C56.6003 150.202 56.4811 150.142 56.3936 150.094L56.7395 149.14C56.9224 149.244 57.2007 149.359 57.5744 149.486C57.9481 149.613 58.4053 149.677 58.946 149.677ZM64.3399 144.298H66.6895V145.228H64.3399V148.091C64.3399 148.401 64.3637 148.659 64.4114 148.866C64.4591 149.065 64.5307 149.224 64.6261 149.343C64.7215 149.454 64.8408 149.534 64.9839 149.582C65.1271 149.629 65.294 149.653 65.4849 149.653C65.8188 149.653 66.0852 149.617 66.284 149.546C66.4908 149.466 66.6339 149.411 66.7134 149.379L66.9281 150.297C66.8168 150.353 66.622 150.42 66.3436 150.5C66.0653 150.587 65.7473 150.631 65.3895 150.631C64.968 150.631 64.6182 150.58 64.3399 150.476C64.0695 150.365 63.8508 150.202 63.6839 149.987C63.5169 149.772 63.3976 149.51 63.326 149.2C63.2624 148.882 63.2306 148.516 63.2306 148.103V142.568L64.3399 142.378V144.298ZM70.2003 149.701C70.4627 149.701 70.6933 149.697 70.892 149.689C71.0988 149.673 71.2697 149.649 71.4049 149.617V147.769C71.3254 147.729 71.1942 147.697 71.0113 147.673C70.8364 147.641 70.6217 147.626 70.3672 147.626C70.2003 147.626 70.0213 147.637 69.8305 147.661C69.6476 147.685 69.4767 147.737 69.3176 147.816C69.1666 147.888 69.0393 147.991 68.936 148.126C68.8326 148.254 68.7809 148.425 68.7809 148.639C68.7809 149.037 68.9081 149.315 69.1626 149.474C69.417 149.625 69.7629 149.701 70.2003 149.701ZM70.1048 144.143C70.5501 144.143 70.9238 144.202 71.226 144.322C71.5361 144.433 71.7826 144.596 71.9655 144.811C72.1563 145.017 72.2915 145.268 72.371 145.562C72.4505 145.848 72.4903 146.166 72.4903 146.516V150.393C72.3949 150.409 72.2597 150.432 72.0848 150.464C71.9178 150.488 71.7269 150.512 71.5123 150.536C71.2976 150.56 71.063 150.58 70.8085 150.595C70.5621 150.619 70.3156 150.631 70.0691 150.631C69.7192 150.631 69.3972 150.595 69.1029 150.524C68.8087 150.452 68.5543 150.341 68.3396 150.19C68.1249 150.031 67.9579 149.824 67.8387 149.57C67.7194 149.315 67.6597 149.009 67.6597 148.651C67.6597 148.309 67.7273 148.015 67.8625 147.769C68.0056 147.522 68.1965 147.323 68.435 147.172C68.6736 147.021 68.9519 146.91 69.2699 146.838C69.588 146.767 69.922 146.731 70.2718 146.731C70.3831 146.731 70.4984 146.739 70.6177 146.755C70.737 146.763 70.8483 146.779 70.9517 146.803C71.063 146.818 71.1584 146.834 71.2379 146.85C71.3174 146.866 71.3731 146.878 71.4049 146.886V146.576C71.4049 146.393 71.385 146.214 71.3453 146.039C71.3055 145.856 71.234 145.697 71.1306 145.562C71.0272 145.419 70.8841 145.308 70.7012 145.228C70.5263 145.141 70.2957 145.097 70.0094 145.097C69.6437 145.097 69.3216 145.125 69.0433 145.18C68.773 145.228 68.5702 145.28 68.435 145.335L68.3038 144.417C68.4469 144.353 68.6855 144.294 69.0195 144.238C69.3534 144.175 69.7152 144.143 70.1048 144.143ZM76.6226 144.167C76.718 144.167 76.8254 144.175 76.9447 144.19C77.0719 144.198 77.1951 144.214 77.3144 144.238C77.4337 144.254 77.541 144.274 77.6364 144.298C77.7398 144.314 77.8154 144.33 77.8631 144.346L77.6722 145.312C77.5848 145.28 77.4377 145.244 77.2309 145.204C77.0321 145.157 76.7737 145.133 76.4556 145.133C76.2489 145.133 76.0422 145.157 75.8354 145.204C75.6366 145.244 75.5054 145.272 75.4418 145.288V150.5H74.3326V144.56C74.595 144.465 74.921 144.377 75.3106 144.298C75.7003 144.21 76.1376 144.167 76.6226 144.167ZM79.9711 144.298H82.3208V145.228H79.9711V148.091C79.9711 148.401 79.995 148.659 80.0427 148.866C80.0904 149.065 80.162 149.224 80.2574 149.343C80.3528 149.454 80.4721 149.534 80.6152 149.582C80.7583 149.629 80.9253 149.653 81.1161 149.653C81.4501 149.653 81.7165 149.617 81.9153 149.546C82.122 149.466 82.2651 149.411 82.3446 149.379L82.5593 150.297C82.448 150.353 82.2532 150.42 81.9749 150.5C81.6966 150.587 81.3785 150.631 81.0207 150.631C80.5993 150.631 80.2494 150.58 79.9711 150.476C79.7008 150.365 79.4821 150.202 79.3151 149.987C79.1481 149.772 79.0289 149.51 78.9573 149.2C78.8937 148.882 78.8619 148.516 78.8619 148.103V142.568L79.9711 142.378V144.298Z" fill="#414652"/>
<rect x="127.767" y="13.6328" width="153.067" height="33.7939" rx="15.903" fill="#CC2E3D"/>
<path d="M159.398 36.5859C159.176 36.2255 158.91 35.8385 158.603 35.425C158.306 35.0009 157.977 34.5822 157.617 34.1687C157.267 33.7446 156.901 33.3417 156.52 32.96C156.138 32.5678 155.756 32.2232 155.375 31.9263V36.5859H152.894V25.5651H155.375V29.7317C156.021 29.0532 156.668 28.3482 157.315 27.6166C157.972 26.8745 158.582 26.1907 159.144 25.5651H162.086C161.333 26.4557 160.575 27.3145 159.812 28.1414C159.059 28.9684 158.264 29.8006 157.426 30.6382C158.306 31.3697 159.154 32.2391 159.971 33.2463C160.798 34.2535 161.587 35.3667 162.34 36.5859H159.398ZM163.606 28.5072C164.009 28.3906 164.528 28.2846 165.165 28.1891C165.801 28.0831 166.469 28.0301 167.168 28.0301C167.879 28.0301 168.467 28.1255 168.934 28.3164C169.411 28.4966 169.787 28.7563 170.063 29.0956C170.338 29.4349 170.534 29.8378 170.651 30.3042C170.768 30.7707 170.826 31.2902 170.826 31.8627V36.5859H168.456V32.149C168.456 31.3856 168.356 30.8449 168.154 30.5269C167.953 30.2088 167.576 30.0498 167.025 30.0498C166.856 30.0498 166.675 30.0604 166.484 30.0816C166.294 30.0922 166.124 30.1081 165.976 30.1293V36.5859H163.606V28.5072ZM180.795 32.3875C180.795 33.0449 180.7 33.6492 180.509 34.2005C180.318 34.7412 180.042 35.2077 179.682 35.5999C179.321 35.9816 178.887 36.2785 178.378 36.4905C177.88 36.7026 177.318 36.8086 176.692 36.8086C176.077 36.8086 175.515 36.7026 175.006 36.4905C174.508 36.2785 174.079 35.9816 173.718 35.5999C173.358 35.2077 173.077 34.7412 172.875 34.2005C172.674 33.6492 172.573 33.0449 172.573 32.3875C172.573 31.7302 172.674 31.1312 172.875 30.5905C173.087 30.0498 173.374 29.5886 173.734 29.2069C174.105 28.8253 174.54 28.5284 175.038 28.3164C175.547 28.1043 176.098 27.9983 176.692 27.9983C177.296 27.9983 177.848 28.1043 178.346 28.3164C178.855 28.5284 179.29 28.8253 179.65 29.2069C180.011 29.5886 180.291 30.0498 180.493 30.5905C180.694 31.1312 180.795 31.7302 180.795 32.3875ZM178.378 32.3875C178.378 31.656 178.229 31.0835 177.933 30.67C177.646 30.2459 177.233 30.0339 176.692 30.0339C176.151 30.0339 175.733 30.2459 175.436 30.67C175.139 31.0835 174.99 31.656 174.99 32.3875C174.99 33.1191 175.139 33.7022 175.436 34.1369C175.733 34.561 176.151 34.773 176.692 34.773C177.233 34.773 177.646 34.561 177.933 34.1369C178.229 33.7022 178.378 33.1191 178.378 32.3875ZM182.233 32.4034C182.233 31.7991 182.328 31.2319 182.519 30.7018C182.721 30.1611 183.007 29.6946 183.378 29.3023C183.749 28.8995 184.2 28.5814 184.73 28.3482C185.26 28.1149 185.864 27.9983 186.543 27.9983C186.988 27.9983 187.396 28.0407 187.767 28.1255C188.138 28.1997 188.499 28.3111 188.849 28.4595L188.356 30.3519C188.133 30.2671 187.889 30.1929 187.624 30.1293C187.359 30.0657 187.062 30.0339 186.734 30.0339C186.034 30.0339 185.509 30.2512 185.159 30.6859C184.82 31.1206 184.65 31.6931 184.65 32.4034C184.65 33.1562 184.809 33.7393 185.127 34.1528C185.456 34.5663 186.023 34.773 186.829 34.773C187.115 34.773 187.423 34.7465 187.751 34.6935C188.08 34.6405 188.382 34.5557 188.658 34.439L188.992 36.3792C188.716 36.4958 188.372 36.5965 187.958 36.6814C187.545 36.7662 187.089 36.8086 186.59 36.8086C185.827 36.8086 185.17 36.6973 184.619 36.4746C184.067 36.2414 183.611 35.9286 183.251 35.5363C182.901 35.1441 182.641 34.6829 182.472 34.1528C182.313 33.6121 182.233 33.029 182.233 32.4034ZM192.952 31.2425C193.185 30.9881 193.423 30.723 193.667 30.4474C193.922 30.1717 194.166 29.9014 194.399 29.6363C194.632 29.3607 194.849 29.1009 195.051 28.8571C195.263 28.6132 195.443 28.4012 195.592 28.2209H198.406C197.845 28.8677 197.293 29.4879 196.753 30.0816C196.222 30.6647 195.639 31.269 195.003 31.8945C195.321 32.1808 195.65 32.5254 195.989 32.9282C196.328 33.3205 196.657 33.7287 196.975 34.1528C197.293 34.5769 197.585 35.0009 197.85 35.425C198.115 35.8491 198.338 36.2361 198.518 36.5859H195.798C195.629 36.3103 195.433 36.0081 195.21 35.6795C194.998 35.3402 194.77 35.0062 194.526 34.6776C194.282 34.3383 194.022 34.0149 193.747 33.7075C193.482 33.4 193.217 33.1403 192.952 32.9282V36.5859H190.582V24.6269L192.952 24.2452V31.2425ZM198.819 32.4671C198.819 31.7249 198.931 31.0782 199.153 30.5269C199.387 29.965 199.689 29.4985 200.06 29.1274C200.431 28.7563 200.855 28.4754 201.332 28.2846C201.82 28.0937 202.318 27.9983 202.827 27.9983C204.014 27.9983 204.953 28.3641 205.642 29.0956C206.331 29.8165 206.676 30.8821 206.676 32.2921C206.676 32.4299 206.67 32.5837 206.66 32.7533C206.649 32.9123 206.638 33.0555 206.628 33.1827H201.253C201.306 33.6704 201.534 34.0574 201.936 34.3436C202.339 34.6299 202.88 34.773 203.559 34.773C203.993 34.773 204.417 34.7359 204.831 34.6617C205.255 34.5769 205.599 34.4761 205.864 34.3595L206.183 36.2838C206.055 36.3474 205.886 36.411 205.674 36.4746C205.462 36.5382 205.223 36.5912 204.958 36.6336C204.704 36.6867 204.428 36.7291 204.131 36.7609C203.834 36.7927 203.537 36.8086 203.24 36.8086C202.488 36.8086 201.83 36.6973 201.268 36.4746C200.717 36.252 200.256 35.9498 199.885 35.5681C199.524 35.1759 199.254 34.7147 199.074 34.1846C198.904 33.6545 198.819 33.082 198.819 32.4671ZM204.385 31.5606C204.375 31.3591 204.338 31.163 204.274 30.9722C204.221 30.7813 204.131 30.6117 204.004 30.4633C203.887 30.3148 203.733 30.1929 203.543 30.0975C203.362 30.0021 203.134 29.9544 202.859 29.9544C202.594 29.9544 202.366 30.0021 202.175 30.0975C201.984 30.1823 201.825 30.2989 201.698 30.4474C201.571 30.5958 201.47 30.7707 201.396 30.9722C201.332 31.163 201.284 31.3591 201.253 31.5606H204.385ZM210.524 32.3398C210.524 33.0714 210.688 33.6598 211.017 34.1051C211.345 34.5503 211.833 34.773 212.48 34.773C212.692 34.773 212.888 34.7677 213.068 34.7571C213.249 34.7359 213.397 34.7147 213.514 34.6935V30.3838C213.365 30.2883 213.169 30.2088 212.925 30.1452C212.692 30.0816 212.453 30.0498 212.21 30.0498C211.086 30.0498 210.524 30.8131 210.524 32.3398ZM215.883 36.3156C215.671 36.3792 215.427 36.4428 215.152 36.5064C214.876 36.5594 214.584 36.6071 214.277 36.6495C213.98 36.692 213.673 36.7238 213.355 36.745C213.047 36.7768 212.75 36.7927 212.464 36.7927C211.775 36.7927 211.16 36.692 210.619 36.4905C210.079 36.2891 209.623 36.0028 209.252 35.6318C208.88 35.2501 208.594 34.7942 208.393 34.2641C208.202 33.7234 208.107 33.1191 208.107 32.4511C208.107 31.7726 208.191 31.163 208.361 30.6223C208.531 30.071 208.774 29.6045 209.093 29.2228C209.411 28.8412 209.798 28.5496 210.253 28.3482C210.72 28.1467 211.25 28.046 211.844 28.046C212.172 28.046 212.464 28.0778 212.718 28.1414C212.983 28.205 213.249 28.2952 213.514 28.4118V24.6269L215.883 24.2452V36.3156ZM217.743 30.7654H222.355V32.9123H217.743V30.7654ZM226.417 31.0676C226.417 31.6083 226.48 32.096 226.607 32.5307C226.745 32.9653 226.936 33.3417 227.18 33.6598C227.434 33.9672 227.742 34.2058 228.102 34.3754C228.463 34.545 228.876 34.6299 229.343 34.6299C229.799 34.6299 230.207 34.545 230.567 34.3754C230.938 34.2058 231.246 33.9672 231.49 33.6598C231.744 33.3417 231.935 32.9653 232.062 32.5307C232.2 32.096 232.269 31.6083 232.269 31.0676C232.269 30.5269 232.2 30.0392 232.062 29.6045C231.935 29.1592 231.744 28.7828 231.49 28.4754C231.246 28.1573 230.938 27.9135 230.567 27.7439C230.207 27.5742 229.799 27.4894 229.343 27.4894C228.876 27.4894 228.463 27.5795 228.102 27.7598C227.742 27.9294 227.434 28.1732 227.18 28.4913C226.936 28.7988 226.745 29.1751 226.607 29.6204C226.48 30.0551 226.417 30.5375 226.417 31.0676ZM234.829 31.0676C234.829 32.0112 234.686 32.8434 234.4 33.5644C234.124 34.2747 233.743 34.8737 233.255 35.3614C232.767 35.8385 232.184 36.199 231.505 36.4428C230.838 36.6867 230.117 36.8086 229.343 36.8086C228.59 36.8086 227.88 36.6867 227.212 36.4428C226.544 36.199 225.961 35.8385 225.462 35.3614C224.964 34.8737 224.572 34.2747 224.286 33.5644C223.999 32.8434 223.856 32.0112 223.856 31.0676C223.856 30.124 224.005 29.297 224.301 28.5867C224.598 27.8658 224.996 27.2615 225.494 26.7738C226.003 26.2861 226.586 25.9203 227.243 25.6765C227.911 25.4326 228.611 25.3107 229.343 25.3107C230.095 25.3107 230.806 25.4326 231.474 25.6765C232.142 25.9203 232.725 26.2861 233.223 26.7738C233.721 27.2615 234.114 27.8658 234.4 28.5867C234.686 29.297 234.829 30.124 234.829 31.0676ZM243.879 36.2997C243.476 36.4163 242.956 36.5223 242.32 36.6177C241.684 36.7238 241.016 36.7768 240.316 36.7768C239.606 36.7768 239.012 36.6814 238.535 36.4905C238.069 36.2997 237.698 36.0346 237.422 35.6954C237.146 35.3455 236.95 34.932 236.834 34.4549C236.717 33.9778 236.659 33.453 236.659 32.8805V28.2209H239.028V32.5943C239.028 33.3576 239.129 33.9089 239.33 34.2482C239.532 34.5875 239.908 34.7571 240.46 34.7571C240.629 34.7571 240.809 34.7518 241 34.7412C241.191 34.72 241.361 34.6988 241.509 34.6776V28.2209H243.879V36.2997ZM246.023 26.1376L248.393 25.756V28.2209H251.24V30.1929H248.393V33.135C248.393 33.6333 248.478 34.0309 248.647 34.3277C248.828 34.6246 249.183 34.773 249.713 34.773C249.967 34.773 250.227 34.7518 250.492 34.7094C250.768 34.6564 251.017 34.5875 251.24 34.5026L251.574 36.3474C251.287 36.464 250.969 36.5647 250.619 36.6495C250.27 36.7344 249.84 36.7768 249.331 36.7768C248.685 36.7768 248.149 36.692 247.725 36.5223C247.301 36.3421 246.962 36.0982 246.707 35.7908C246.453 35.4727 246.273 35.0911 246.167 34.6458C246.071 34.2005 246.023 33.7075 246.023 33.1668V26.1376ZM255.602 28.4118C255.602 29.2705 255.571 30.071 255.507 30.8131C255.443 31.5553 255.359 32.308 255.253 33.0714H253.44C253.334 32.308 253.243 31.5553 253.169 30.8131C253.106 30.071 253.074 29.2705 253.074 28.4118V25.5651H255.602V28.4118ZM255.809 35.3296C255.809 35.7961 255.655 36.1566 255.348 36.411C255.051 36.6655 254.712 36.7927 254.33 36.7927C253.949 36.7927 253.604 36.6655 253.296 36.411C253 36.1566 252.851 35.7961 252.851 35.3296C252.851 34.8631 253 34.5026 253.296 34.2482C253.604 33.9937 253.949 33.8665 254.33 33.8665C254.712 33.8665 255.051 33.9937 255.348 34.2482C255.655 34.5026 255.809 34.8631 255.809 35.3296Z" fill="white"/>
<path d="M279 58L279 220.018" stroke="#7D7D7D" stroke-width="2.98182"/>
<path d="M287.475 64.112H291.321L291.192 64.6984H288.002L287.415 67.0938H290.258L290.129 67.6703H287.306L286.62 70.4136H290.039L289.92 71H285.825L287.475 64.112ZM292.737 68.3064L291.465 65.8613H292.22L293.224 67.9387C293.529 67.5676 293.824 67.1998 294.109 66.8354C294.4 66.4643 294.632 66.1396 294.804 65.8613H295.52C295.228 66.2987 294.904 66.736 294.546 67.1733C294.195 67.6107 293.853 68.0215 293.522 68.4058C293.608 68.5715 293.704 68.757 293.81 68.9624C293.916 69.1678 294.022 69.3865 294.128 69.6184C294.241 69.8437 294.344 70.0756 294.437 70.3142C294.536 70.5461 294.622 70.7747 294.695 71H294.019C293.973 70.8476 293.913 70.6786 293.84 70.4931C293.767 70.3009 293.685 70.1055 293.592 69.9067C293.506 69.7079 293.416 69.5124 293.323 69.3202C293.231 69.1215 293.144 68.9425 293.065 68.7835L291.117 71H290.332L292.737 68.3064ZM296.337 70.4036C296.542 70.4633 296.751 70.4931 296.963 70.4931C297.374 70.4931 297.738 70.4136 298.056 70.2545C298.374 70.0889 298.642 69.8768 298.861 69.6184C299.08 69.3534 299.245 69.0585 299.358 68.7338C299.471 68.4025 299.527 68.0679 299.527 67.7299C299.527 67.233 299.418 66.8718 299.199 66.6465C298.98 66.4146 298.652 66.2987 298.215 66.2987C298.063 66.2987 297.907 66.3119 297.748 66.3384C297.595 66.3649 297.436 66.4014 297.271 66.4478L296.337 70.4036ZM296.714 66.0701C296.993 65.9707 297.271 65.8912 297.549 65.8315C297.827 65.7719 298.102 65.7421 298.374 65.7421C299.58 65.7421 300.183 66.3716 300.183 67.6305C300.183 68.0745 300.11 68.5052 299.964 68.9227C299.819 69.3401 299.603 69.7112 299.318 70.0359C299.04 70.3539 298.695 70.6091 298.285 70.8012C297.88 70.9934 297.417 71.0895 296.893 71.0895C296.635 71.0895 296.396 71.0596 296.177 71L295.74 72.8388H295.084L296.714 66.0701ZM301.928 65.8613H302.574L301.332 71H300.686L301.928 65.8613ZM302.186 64.3605C302.186 64.1882 302.233 64.059 302.326 63.9728C302.425 63.8801 302.531 63.8337 302.644 63.8337C302.776 63.8337 302.879 63.8768 302.952 63.9629C303.025 64.0424 303.061 64.1484 303.061 64.281C303.061 64.44 303.008 64.5626 302.902 64.6487C302.796 64.7349 302.69 64.7779 302.584 64.7779C302.451 64.7779 302.352 64.7415 302.286 64.6686C302.22 64.5891 302.186 64.4864 302.186 64.3605ZM304.198 66.0899C304.449 65.9905 304.724 65.9077 305.023 65.8415C305.327 65.7752 305.626 65.7421 305.917 65.7421C306.07 65.7421 306.215 65.752 306.354 65.7719C306.494 65.7918 306.626 65.8249 306.752 65.8713L306.583 66.4577C306.325 66.3782 306.06 66.3384 305.788 66.3384C305.616 66.3384 305.443 66.3517 305.271 66.3782C305.099 66.4047 304.927 66.4444 304.754 66.4975L303.671 71H303.025L304.198 66.0899ZM305.482 72.153C305.661 72.2524 305.863 72.3021 306.088 72.3021C306.426 72.3021 306.757 72.2093 307.082 72.0238C307.407 71.8382 307.708 71.5566 307.987 71.1789C307.708 70.2976 307.49 69.4031 307.331 68.4953C307.172 67.5875 307.079 66.7095 307.052 65.8613H307.728C307.741 66.1794 307.761 66.5273 307.788 66.905C307.821 67.2827 307.867 67.6769 307.927 68.0878C307.987 68.4986 308.06 68.9194 308.146 69.3501C308.232 69.7741 308.338 70.1883 308.464 70.5925C308.762 70.122 309.03 69.6482 309.269 69.1712C309.507 68.6874 309.716 68.2335 309.895 67.8095C310.074 67.3854 310.22 67.0044 310.332 66.6664C310.452 66.3219 310.538 66.0535 310.591 65.8613H311.227C311.187 66.0005 311.114 66.239 311.008 66.577C310.902 66.9083 310.76 67.2959 310.581 67.7399C310.402 68.1838 310.183 68.6642 309.925 69.1811C309.673 69.6913 309.381 70.1916 309.05 70.6819C308.54 71.444 308.046 71.9973 307.569 72.3418C307.092 72.693 306.595 72.8686 306.078 72.8686C305.959 72.8686 305.83 72.8587 305.691 72.8388C305.551 72.8189 305.406 72.7692 305.253 72.6897L305.482 72.153Z" fill="#414652" fill-opacity="0.6"/>
<path d="M263.903 170.952C263.903 175.343 260.343 178.903 255.952 178.903C251.56 178.903 248 175.343 248 170.952C248 166.56 251.56 163 255.952 163C260.343 163 263.903 166.56 263.903 170.952Z" fill="#FF444F"/>
<defs>
<filter id="filter0_d_1833_16474" x="0.597702" y="0.478161" width="341.805" height="227.5" filterUnits="userSpaceOnUse" color-interpolation-filters="sRGB">
<feFlood flood-opacity="0" result="BackgroundImageFix"/>
<feColorMatrix in="SourceAlpha" type="matrix" values="0 0 0 0 0 0 0 0 0 0 0 0 0 0 0 0 0 0 127 0" result="hardAlpha"/>
<feOffset dy="1.38046"/>
<feGaussianBlur stdDeviation="3.45115"/>
<feComposite in2="hardAlpha" operator="out"/>
<feColorMatrix type="matrix" values="0 0 0 0 0 0 0 0 0 0 0 0 0 0 0 0 0 0 0.1 0"/>
<feBlend mode="normal" in2="BackgroundImageFix" result="effect1_dropShadow_1833_16474"/>
<feBlend mode="normal" in="SourceGraphic" in2="effect1_dropShadow_1833_16474" result="shape"/>
</filter>
</defs>
</svg>
