<svg xmlns="http://www.w3.org/2000/svg" width="24" height="24"><defs><linearGradient id="a" x1="0%" x2="100%" y1="100%" y2="0%"><stop offset="0%" stop-color="#FF444F"/><stop offset="100%" stop-color="#FF6444"/></linearGradient></defs><g fill="none" fill-rule="evenodd"><path d="M3 3h18v18H3z"/><path fill="url(#a)" fill-rule="nonzero" d="M14.647 0c.203 0 .368.161.368.36l-.001 10.89h2.45a.34.34 0 0 1 .315.22l.018.07.08.587.022.203c.082.776.12 1.566.091 2.306-.076 1.942-.595 3.208-1.724 3.342a.382.382 0 0 1-.135.022l-13.842-.05C1.132 17.933.174 17.087.02 15.972l-.014-.13-.006-.14V.36C0 .161.165 0 .368 0zm2.524 11.944-2.157-.001v1.689a7.106 7.106 0 0 0 .274 2.36l.103.32.142.324c.222.475.378.635.613.644l.032.004c.7-.137 1.074-1.085 1.136-2.675.028-.702-.01-1.46-.088-2.204l-.022-.196-.033-.265zM14.28.72H.735v14.965l.005.112c.064.798.739 1.42 1.555 1.432l12.633.046a2.876 2.876 0 0 1-.087-.158c-.46-.911-.674-2.51-.562-4.967V.72zm-5.6 12.04a.32.32 0 0 1 .32.32v.088a.32.32 0 0 1-.32.32H4.07a.32.32 0 0 1-.32-.32v-.088a.32.32 0 0 1 .32-.32h4.61zm1.5-3a.32.32 0 0 1 .32.32v.088a.32.32 0 0 1-.32.32H4.07a.32.32 0 0 1-.32-.32v-.088a.32.32 0 0 1 .32-.32h6.11zm0-3.75a.32.32 0 0 1 .32.32v.088a.32.32 0 0 1-.32.32H4.07a.32.32 0 0 1-.32-.32V6.33a.32.32 0 0 1 .32-.32h6.11zM6.055 3.386a.32.32 0 0 1 .32.32v.088a.32.32 0 0 1-.32.32h-2.36a.32.32 0 0 1-.32-.32v-.088a.32.32 0 0 1 .32-.32h2.36z" transform="translate(3 3)"/></g></svg>