<svg xmlns="http://www.w3.org/2000/svg" width="24" height="24"><path d="M17.294 12.473c0-2.46 2.063-3.65 2.142-3.73-1.19-1.665-2.935-1.903-3.57-1.983-1.508-.158-3.015.873-3.73.873-.793 0-1.983-.873-3.252-.873-1.666 0-3.174.952-4.046 2.46-1.746 3.015-.476 7.458 1.19 9.917.873 1.19 1.825 2.539 3.094 2.46s1.745-.794 3.253-.794 1.904.794 3.253.794 2.221-1.19 3.015-2.38c.952-1.35 1.348-2.698 1.348-2.777-.079-.08-2.697-1.032-2.697-3.967zm-2.46-7.299C15.47 4.3 15.945 3.19 15.866 2c-.952.08-2.222.635-2.856 1.507-.635.714-1.19 1.905-1.032 3.015 1.032.08 2.142-.555 2.856-1.348z"/></svg>