<svg xmlns="http://www.w3.org/2000/svg" width="24" height="24"><defs><linearGradient id="a" x1="7.986%" x2="92.014%" y1="100%" y2="0%"><stop offset="0%" stop-color="#FF444F"/><stop offset="100%" stop-color="#FF6444"/></linearGradient></defs><path d="M18.75 3a1.5 1.5 0 0 1 1.5 1.5v15a1.5 1.5 0 0 1-1.5 1.5H5.25a1.5 1.5 0 0 1-1.5-1.5v-15A1.5 1.5 0 0 1 5.25 3h13.5zm0 .75H5.25a.75.75 0 0 0-.745.663L4.5 4.5v15c0 .385.29.702.663.745l.087.005h13.5a.75.75 0 0 0 .745-.663l.005-.087v-15a.75.75 0 0 0-.663-.745l-.087-.005zm-10.5 13.5A.75.75 0 0 1 9 18v.75a.75.75 0 0 1-.75.75H6a.75.75 0 0 1-.75-.75V18a.75.75 0 0 1 .75-.75h2.25zm5.25 0a.75.75 0 0 1 .75.75v.75a.75.75 0 0 1-.75.75h-2.25a.75.75 0 0 1-.75-.75V18a.75.75 0 0 1 .75-.75h2.25zm4.5-3a.75.75 0 0 1 .75.75v3.75a.75.75 0 0 1-.75.75h-1.5a.75.75 0 0 1-.75-.75V15a.75.75 0 0 1 .75-.75H18zM8.25 18H6v.75h2.25V18zm5.25 0h-2.25v.75h2.25V18zm4.5-3h-1.5v3.75H18V15zm-9.75-.75A.75.75 0 0 1 9 15v.75a.75.75 0 0 1-.75.75H6a.75.75 0 0 1-.75-.75V15a.75.75 0 0 1 .75-.75h2.25zm5.25 0a.75.75 0 0 1 .75.75v.75a.75.75 0 0 1-.75.75h-2.25a.75.75 0 0 1-.75-.75V15a.75.75 0 0 1 .75-.75h2.25zM8.25 15H6v.75h2.25V15zm5.25 0h-2.25v.75h2.25V15zM18 4.5a.75.75 0 0 1 .75.75v7.5a.75.75 0 0 1-.75.75H6a.75.75 0 0 1-.75-.75v-7.5A.75.75 0 0 1 6 4.5h12zm0 .75H6v7.5h12v-7.5zm-7.125 1.5c.207 0 .375.224.375.5s-.168.5-.375.5H9.25v.5h1.625c.207 0 .375.224.375.5s-.168.5-.375.5H9.25v1.625c0 .207-.224.375-.5.375s-.5-.168-.5-.375v-3.75a.33.33 0 0 1 .126-.249.33.33 0 0 1 .249-.126h2.25zm4.254.092a.374.374 0 0 1 .539.517L14.355 9l1.313 1.64a.375.375 0 0 1-.539.518l-.047-.049L13.875 9.6l-1.207 1.51-.047.048a.374.374 0 0 1-.539-.517L13.394 9l-1.312-1.64a.375.375 0 0 1 .539-.518l.047.049 1.207 1.508 1.207-1.508z" fill="url(#a)"/></svg>