<svg width="32" height="32" viewBox="0 0 32 32" fill="none" xmlns="http://www.w3.org/2000/svg">
<path d="M21.833 8.12667V5.33333C21.833 4.6 21.233 4 20.4997 4H6.66634C5.93301 4 5.33301 4.6 5.33301 5.33333V22.6067C5.33301 23.34 5.93301 23.94 6.66634 23.94H10.833M14.9597 20.5H20.4597M14.9597 15H20.4597M14.9597 23.2533C18.033 23.2533 14.9263 23.2533 17.9997 23.2533M25.9997 28.7533H12.1663C11.433 28.7533 10.833 28.1533 10.833 27.42V9.46C10.833 8.72667 11.433 8.12667 12.1663 8.12667H25.9997C26.733 8.12667 27.333 8.72667 27.333 9.46V27.42C27.333 28.1533 26.733 28.7533 25.9997 28.7533Z" stroke="#414652" stroke-width="2" stroke-linecap="round" stroke-linejoin="round"/>
</svg>
