<svg width="30" height="30" viewBox="0 0 30 30" fill="none" xmlns="http://www.w3.org/2000/svg">
<path d="M14.9995 29C22.7315 29 28.9995 22.732 28.9995 15C28.9995 7.26801 22.7315 1 14.9995 1C7.26753 1 0.999512 7.26801 0.999512 15C0.999512 22.732 7.26753 29 14.9995 29Z" stroke="#414652" stroke-width="1.33333" stroke-miterlimit="10"/>
<path d="M26.1998 23.4007C23.6465 22.0807 19.5798 21.2207 14.9998 21.2207C10.4198 21.2207 6.35314 22.074 3.7998 23.4007" stroke="#414652" stroke-width="1.33333" stroke-miterlimit="10"/>
<path d="M3.7998 6.59961C6.35314 7.91961 10.4198 8.77961 14.9998 8.77961C19.5798 8.77961 23.6465 7.92628 26.1998 6.59961" stroke="#414652" stroke-width="1.33333" stroke-miterlimit="10"/>
<path d="M14.9997 29C17.577 29 19.6663 22.732 19.6663 15C19.6663 7.26801 17.577 1 14.9997 1C12.4223 1 10.333 7.26801 10.333 15C10.333 22.732 12.4223 29 14.9997 29Z" stroke="#414652" stroke-width="1.33333" stroke-miterlimit="10"/>
<path d="M28.9995 15H0.999512" stroke="#414652" stroke-width="1.33333" stroke-miterlimit="10"/>
</svg>
