<svg width="160" height="80" viewBox="0 0 160 80" fill="none" xmlns="http://www.w3.org/2000/svg">
<g clip-path="url(#clip0_1743_20113)">
<path d="M51.3161 25.0096L49.6652 34.3716H43.9348C38.5887 34.3716 33.493 38.7029 32.5483 44.049L32.1482 46.3239C31.2088 51.6701 34.7755 56.0013 40.1203 56.0013H44.8994C48.7961 56.0013 52.5072 52.8466 53.1922 48.9513L57.5977 24L51.3174 25.0096H51.3161ZM47.2499 48.0676C47.0392 49.2706 45.9554 50.2511 44.7523 50.2511H41.8494C39.4459 50.2511 37.8388 48.3008 38.2601 45.8933L38.5105 44.4743C38.9372 42.0709 41.2293 40.1166 43.6328 40.1166H48.653L47.2512 48.0676H47.2499Z" fill="#414652"/>
<path d="M95.4434 55.9995H101.395L105.155 34.668H99.2075L95.4473 55.9995H95.4434Z" fill="#414652"/>
<path d="M96.0912 34.9152C95.7931 36.6071 95.4937 38.2991 95.1955 39.991C92.3774 39.1152 89.4705 39.3948 88.5775 39.5723C87.6129 45.0496 86.647 50.5283 85.6811 56.0056H79.7295C80.5377 51.4226 83.2989 35.7711 83.2989 35.7711C85.2346 34.9695 89.9885 33.3424 96.0912 34.9152Z" fill="#414652"/>
<path d="M71.976 34.3675H67.3467C62.8353 34.3675 58.5345 38.0217 57.7395 42.5332L56.8041 47.8356C56.0092 52.347 59.0181 56.0012 63.5295 56.0012H73.3778L74.3887 50.2682H65.1327C63.6302 50.2682 62.6246 49.0519 62.8922 47.5441L62.9227 47.3639H77.8442L78.6961 42.5318C79.4911 38.0204 76.4822 34.3662 71.9707 34.3662H71.9747L71.976 34.3675ZM72.7273 42.0774L72.6928 42.3848H63.8197L63.8674 42.1118C64.135 40.6093 65.5063 39.287 67.0128 39.287H70.4788C71.9681 39.287 72.9737 40.5868 72.7273 42.076V42.0774Z" fill="#414652"/>
<path d="M122.405 34.6699C121.165 37.5066 118.188 43.8809 115.486 48.7395C114.502 43.7458 113.639 36.5964 113.532 34.6699H107.58C107.834 40.5778 109.169 49.557 111.234 56.0015H117.186C121.687 49.231 126.333 40.0611 128.36 34.6699H122.404H122.405Z" fill="#414652"/>
</g>
<defs>
<clipPath id="clip0_1743_20113">
<rect width="96.3617" height="32" fill="white" transform="translate(32 24)"/>
</clipPath>
</defs>
</svg>
