<svg width="160" height="39" viewBox="0 0 160 39" fill="none" xmlns="http://www.w3.org/2000/svg">
<g clip-path="url(#clip0_1743_20083)">
<path d="M103.494 12.6942V14.6378H106.29V15.3228H103.494V17.5761H102.697V11.9996H106.632V12.6923H103.494V12.6942ZM108.003 12.0015H108.799V17.5781H108.003V12.0015ZM115.515 12.0015V17.5781H114.863L111.516 13.4197V17.5781H110.72V12.0015H111.372L114.716 16.1599V12.0015H115.513H115.515ZM118.544 12.6942H116.633V12.0015H121.245V12.6942H119.335V17.5761H118.546V12.6942H118.544ZM126.406 16.8834V17.5761H122.36V11.9996H126.295V12.6923H123.156V14.4049H125.952V15.0823H123.156V16.8815H126.406V16.8834ZM127.467 14.7898C127.467 13.1407 128.725 11.938 130.422 11.938C131.282 11.938 132.031 12.2324 132.541 12.8058L132.023 13.3081C131.592 12.8539 131.067 12.6461 130.455 12.6461C129.197 12.6461 128.265 13.5544 128.265 14.7898C128.265 16.0252 129.197 16.9315 130.455 16.9315C131.069 16.9315 131.594 16.716 132.023 16.2618L132.541 16.7641C132.031 17.3375 131.282 17.6396 130.415 17.6396C128.725 17.6396 127.469 16.437 127.469 14.7878L127.467 14.7898ZM138.722 12.0015V17.5781H137.925V15.0919H134.723V17.5781H133.926V12.0015H134.723V14.3991H137.925V12.0015H138.722ZM106.25 25.1886H103.286L102.672 26.5818H101.853L104.377 21.0052H105.166L107.699 26.5818H106.861L106.248 25.1886H106.25ZM105.971 24.5516L104.768 21.8192L103.565 24.5516H105.971ZM108.266 25.9448L108.561 25.3233C108.974 25.6966 109.684 25.9679 110.4 25.9679C111.364 25.9679 111.778 25.5927 111.778 25.1078C111.778 23.7454 108.401 24.6055 108.401 22.535C108.401 21.6748 109.071 20.9417 110.535 20.9417C111.187 20.9417 111.865 21.1168 112.326 21.4362L112.063 22.0732C111.576 21.7634 111.028 21.619 110.533 21.619C109.584 21.619 109.178 22.0174 109.178 22.5042C109.178 23.8666 112.555 23.0141 112.555 25.0616C112.555 25.914 111.87 26.6472 110.396 26.6472C109.544 26.6472 108.707 26.3605 108.262 25.9467L108.266 25.9448ZM113.46 25.9448L113.754 25.3233C114.168 25.6966 114.878 25.9679 115.594 25.9679C116.558 25.9679 116.972 25.5927 116.972 25.1078C116.972 23.7454 113.594 24.6055 113.594 22.535C113.594 21.6748 114.264 20.9417 115.729 20.9417C116.381 20.9417 117.058 21.1168 117.52 21.4362L117.256 22.0732C116.77 21.7634 116.221 21.619 115.727 21.619C114.778 21.619 114.372 22.0174 114.372 22.5042C114.372 23.8666 117.749 23.0141 117.749 25.0616C117.749 25.914 117.064 26.6472 115.59 26.6472C114.738 26.6472 113.9 26.3605 113.456 25.9467L113.46 25.9448ZM118.709 23.7954C118.709 22.1617 119.968 20.9436 121.68 20.9436C123.393 20.9436 124.636 22.154 124.636 23.7954C124.636 25.4368 123.378 26.6472 121.68 26.6472C119.983 26.6472 118.709 25.4291 118.709 23.7954ZM123.839 23.7954C123.839 22.56 122.916 21.6518 121.68 21.6518C120.445 21.6518 119.506 22.56 119.506 23.7954C119.506 25.0308 120.43 25.9371 121.68 25.9371C122.931 25.9371 123.839 25.0289 123.839 23.7954ZM125.648 23.7954C125.648 22.1463 126.907 20.9436 128.604 20.9436C129.464 20.9436 130.213 21.238 130.723 21.8115L130.205 22.3137C129.774 21.8596 129.249 21.6518 128.637 21.6518C127.378 21.6518 126.447 22.56 126.447 23.7954C126.447 25.0308 127.378 25.9371 128.637 25.9371C129.25 25.9371 129.776 25.7216 130.205 25.2675L130.723 25.7697C130.213 26.3431 129.464 26.6453 128.596 26.6453C126.907 26.6453 125.648 25.4426 125.648 23.7935V23.7954ZM132.11 21.0071H132.907V26.5837H132.11V21.0071ZM138.379 25.1886H135.416L134.802 26.5818H133.982L136.507 21.0052H137.296L139.828 26.5818H138.991L138.377 25.1886H138.379ZM138.1 24.5516L136.898 21.8192L135.695 24.5516H138.1ZM141.733 21.6999H139.822V21.0071H144.435V21.6999H142.524V26.5818H141.735V21.6999H141.733ZM145.549 21.0071H146.346V26.5837H145.549V21.0071ZM147.812 23.7954C147.812 22.1617 149.071 20.9436 150.783 20.9436C152.496 20.9436 153.739 22.154 153.739 23.7954C153.739 25.4368 152.48 26.6472 150.783 26.6472C149.086 26.6472 147.812 25.4291 147.812 23.7954ZM152.942 23.7954C152.942 22.56 152.019 21.6518 150.783 21.6518C149.548 21.6518 148.609 22.56 148.609 23.7954C148.609 25.0308 149.532 25.9371 150.783 25.9371C152.034 25.9371 152.942 25.0289 152.942 23.7954ZM160 21.0071V26.5837H159.348L156.002 22.4253V26.5837H155.205V21.0071H155.857L159.202 25.1655V21.0071H159.998H160Z" fill="#414652"/>
<path d="M97.2279 0H96.5352V38.7954H97.2279V0Z" fill="#414652"/>
<path d="M90.0063 11.894V26.686H87.7452L79.5882 16.6701V26.686H76.8615V11.894H79.1225L87.2796 21.9099V11.894H90.0063ZM42.2456 22.67C42.2456 25.2062 40.2598 26.6841 36.4555 26.6841H29.1028V11.894H36.0341C39.5844 11.894 41.4855 13.395 41.4855 15.7407C41.4855 17.2628 40.7255 18.3827 39.5844 18.9946C41.17 19.5026 42.2476 20.7477 42.2476 22.6719L42.2456 22.67ZM31.8488 18.1268H35.7377C37.6389 18.1268 38.7165 17.4514 38.7165 16.0986C38.7165 14.7458 37.6389 14.0492 35.7377 14.0492H31.8488V18.1268ZM39.4766 22.3948C39.4766 20.9151 38.3567 20.2608 36.2861 20.2608H31.8488V24.5289H36.2861C38.3567 24.5289 39.4766 23.8746 39.4766 22.3948ZM2.74787 11.894H0V26.686H10.4816V24.3614H2.74787V11.894ZM54.5476 20.1357C54.5476 23.178 53.1948 24.4885 50.8068 24.4885C48.4187 24.4885 47.0448 23.178 47.0448 20.1357V11.894H44.2969V20.2416C44.2969 24.552 46.7273 26.8977 50.7837 26.8977C54.84 26.8977 57.2492 24.552 57.2492 20.2416V11.894H54.5437V20.1357H54.5476ZM65.2658 11.894L58.6097 26.686H61.4422L66.5974 14.6419L71.7737 26.686H74.6467L67.9694 11.894H65.2639H65.2658ZM20.7611 11.894H18.0555L11.3994 26.686H14.232L19.3871 14.6419L24.5634 26.686H27.4364L20.7611 11.894Z" fill="#414652"/>
</g>
<defs>
<clipPath id="clip0_1743_20083">
<rect width="160" height="38.7954" fill="white"/>
</clipPath>
</defs>
</svg>
