<svg width="84" height="84" fill="none" xmlns="http://www.w3.org/2000/svg"><path opacity=".01" fill="#fff" stroke="#979797" stroke-width="2.5" d="M2 2h80v80H2z"/><path fill-rule="evenodd" clip-rule="evenodd" d="M28.178 16.693 2 28.146v21.461c0 11.541 6.664 22.168 17.391 27.73l8.787 4.554 8.787-4.555c10.725-5.56 17.39-16.188 17.39-27.729V28.146L28.177 16.693z" fill="#85ACAF"/><path fill-rule="evenodd" clip-rule="evenodd" d="M43.907 55.093h-2.63v3.778h-3.499v-3.778h-9.04V51.96l7.976-12.622h4.563v10.234h-3.499V42.92h-.07l-5.82 9.318h12.019v2.855zM26.554 58.87H12.786v-3.413l6.267-5.345c1.047-.897 1.82-1.711 2.324-2.45.504-.736.757-1.524.757-2.363v-.281c0-.932-.263-1.641-.784-2.128-.524-.484-1.25-.726-2.184-.726-1.025 0-1.809.28-2.351.84-.542.56-.934 1.248-1.174 2.07L12.45 43.87c.204-.633.5-1.244.882-1.832a6.43 6.43 0 0 1 1.427-1.552c.57-.45 1.247-.809 2.03-1.08.785-.269 1.677-.404 2.688-.404 1.043 0 1.972.143 2.782.434.813.289 1.499.689 2.057 1.203.56.513.985 1.123 1.274 1.832.289.71.434 1.484.434 2.323 0 .803-.124 1.54-.379 2.21a7.785 7.785 0 0 1-1.05 1.918c-.445.607-.973 1.19-1.578 1.75a33.42 33.42 0 0 1-1.972 1.678l-4.255 3.443h9.765v3.078z" fill="#fff"/><path fill-rule="evenodd" clip-rule="evenodd" d="M80.368 42.84h-6.03c0-18.294-14.884-33.175-33.178-33.175V3.632c21.62 0 39.208 17.589 39.208 39.208z" fill="#FF444F"/><path fill-rule="evenodd" clip-rule="evenodd" d="M69.046 42.84h-6.031c0-12.05-9.806-21.856-21.855-21.856v-6.031c15.378 0 27.886 12.51 27.886 27.887z" fill="#FF444F"/><path fill-rule="evenodd" clip-rule="evenodd" d="M57.132 42.84h-6.03c0-5.482-4.461-9.941-9.942-9.941v-6.033c8.805 0 15.972 7.166 15.972 15.974z" fill="#FF444F"/></svg>