<svg width="598" height="518" viewBox="0 0 598 518" fill="none" xmlns="http://www.w3.org/2000/svg">
<rect x="2" y="222.857" width="20" height="30.2857" fill="#9BC1B4" stroke="#579774" stroke-width="4"/>
<rect x="10" y="214" width="4" height="6.85714" fill="#579774"/>
<rect x="10" y="255.143" width="4" height="6.85714" fill="#579774"/>
<rect x="50" y="176.857" width="20" height="30.2857" fill="#9BC1B4" stroke="#579774" stroke-width="4"/>
<rect x="58" y="168" width="4" height="6.85714" fill="#579774"/>
<rect x="58" y="209.143" width="4" height="6.85714" fill="#579774"/>
<rect x="98" y="156.857" width="20" height="15.2857" fill="#9BC1B4" stroke="#579774" stroke-width="4"/>
<rect x="106" y="151" width="4" height="3.85714" fill="#579774"/>
<rect x="106" y="174.143" width="4" height="3.85714" fill="#579774"/>
<rect x="146" y="173" width="20" height="26" fill="#E69B98" stroke="#EC5243" stroke-width="4"/>
<rect x="194" y="146" width="20" height="36" fill="#9BC1B4" stroke="#579774" stroke-width="4"/>
<rect x="202" y="136" width="4" height="8" fill="#579774"/>
<rect x="202" y="184" width="4" height="8" fill="#579774"/>
<rect x="289" y="398" width="20" height="36" fill="#9BC1B4" stroke="#579774" stroke-width="4"/>
<rect x="297" y="388" width="4" height="8" fill="#579774"/>
<rect x="297" y="436" width="4" height="8" fill="#579774"/>
<rect x="480" y="44" width="20" height="36" fill="#9BC1B4" stroke="#579774" stroke-width="4"/>
<rect x="488" y="34" width="4" height="8" fill="#579774"/>
<rect x="488" y="82" width="4" height="8" fill="#579774"/>
<rect x="528" y="91" width="20" height="21" fill="#9BC1B4" stroke="#579774" stroke-width="4"/>
<rect x="536" y="84" width="4" height="5" fill="#579774"/>
<rect x="536" y="114" width="4" height="5" fill="#579774"/>
<rect x="384" y="394.857" width="20" height="20.2857" fill="#E69B98" stroke="#EC5243" stroke-width="4"/>
<rect x="392" y="388" width="4" height="4.85714" fill="#EC5243"/>
<rect x="392" y="417.143" width="4" height="4.85714" fill="#EC5243"/>
<rect x="336" y="346.572" width="20" height="58.8571" fill="#9BC1B4" stroke="#579774" stroke-width="4"/>
<rect x="344" y="332" width="4" height="12.5714" fill="#579774"/>
<rect x="344" y="407.428" width="4" height="12.5714" fill="#579774"/>
<rect x="432" y="60.5718" width="20" height="288.857" fill="#9BC1B4" stroke="#579774" stroke-width="4"/>
<rect x="440" width="4" height="58.5714" fill="#579774"/>
<rect x="440" y="351.428" width="4" height="58.5714" fill="#579774"/>
<rect x="576" y="148" width="20" height="306" fill="#E69B98" stroke="#EC5243" stroke-width="4"/>
<rect x="584" y="84" width="4" height="62" fill="#EC5243"/>
<rect x="584" y="456" width="4" height="62" fill="#EC5243"/>
<rect x="242" y="195.429" width="20" height="253.143" fill="#E69B98" stroke="#EC5243" stroke-width="4"/>
<rect x="250" y="142" width="4" height="51.4286" fill="#EC5243"/>
<rect x="250" y="450.571" width="4" height="51.4286" fill="#EC5243"/>
</svg>
