<svg width="1008" height="744" fill="none" xmlns="http://www.w3.org/2000/svg"><path fill-rule="evenodd" clip-rule="evenodd" d="M2 0H0V744h1008V0H2zm1004 369.362v-90.758H882v90.758h124zm-126 0v-90.758H756v90.758h124zm-124 2.11h124v90.758H756v-90.758zm-2-2.11v-90.758H630v90.758h124zm-124 2.11h124v90.758H630v-90.758zm-2-2.11v-90.758H505v90.758h123zm-123 2.11h123v90.758H505v-90.758zm-2-2.11v-90.758H379v90.758h124zm-124 2.11h124v90.758H379v-90.758zm-2-2.11v-90.758H253v90.758h124zm-124 2.11h124v90.758H253v-90.758zm-2-2.11v-90.758H127v90.758h124zm-124 2.11h124v90.758H127v-90.758zm-2-2.11v-90.758H2v90.758h123zm-123 2.11h123v90.758H2v-90.758zm880 0h124v90.758H882v-90.758zM125 741.889H2v-91.812h123v91.812zm126 0H127v-91.812h124v91.812zm126 0H253v-91.812h124v91.812zm126 0H379v-91.812h124v91.812zm125 0H505v-91.812h123v91.812zm126 0H630v-91.812h124v91.812zm126 0H756v-91.812h124v91.812zm126 0H882v-91.812h124v91.812zm0-650.076V2.11H882v89.702h124zm-126 0V2.11H756v89.702h124zm-124 2.11h124v90.758H756V93.923zm-2-2.11V2.11H630v89.702h124zm-124 2.11h124v90.758H630V93.923zm-2-2.11V2.11H505v89.702h123zm-123 2.11h123v90.758H505V93.923zm-2-2.11V2.11H379v89.702h124zm-124 2.11h124v90.758H379V93.923zm-2-2.11V2.11H253v89.702h124zm-124 2.11h124v90.758H253V93.923zm-2-2.11V2.11H127v89.702h124zm-124 2.11h124v90.758H127V93.923zm-2-2.11V2.11H2v89.702h123zM2 93.923h123v90.758H2V93.923zm880 0h124v90.758H882V93.923zM2 276.494h123v-89.703H2v89.703zm125 0h124v-89.703H127v89.703zm126 0h124v-89.703H253v89.703zm126 0h124v-89.703H379v89.703zm126 0h123v-89.703H505v89.703zm125 0h124v-89.703H630v89.703zm126 0h124v-89.703H756v89.703zm126 0h124v-89.703H882v89.703zM756 464.34h124v90.758H756V464.34zm-126 0h124v90.758H630V464.34zm-125 0h123v90.758H505V464.34zm-126 0h124v90.758H379V464.34zm-126 0h124v90.758H253V464.34zm-126 0h124v90.758H127V464.34zm-125 0h123v90.758H2V464.34zm880 0h124v90.758H882V464.34zM125 647.966H2v-90.757h123v90.757zm126 0H127v-90.757h124v90.757zm126 0H253v-90.757h124v90.757zm126 0H379v-90.757h124v90.757zm125 0H505v-90.757h123v90.757zm126 0H630v-90.757h124v90.757zm126 0H756v-90.757h124v90.757zm126 0H882v-90.757h124v90.757z" fill="url(#a)" fill-opacity=".2"/><defs><linearGradient id="a" x1="1008" y1="371.472" x2="12.5" y2="371.472" gradientUnits="userSpaceOnUse"><stop stop-color="#C4C4C4"/><stop offset="1" stop-color="#C4C4C4" stop-opacity="0"/></linearGradient></defs></svg>