<svg width="598" height="518" fill="none" xmlns="http://www.w3.org/2000/svg"><path fill="#9BC1B4" stroke="#579774" stroke-width="4" d="M2 222.857h20v30.286H2z"/><path fill="#579774" d="M10 214h4v6.857h-4zM10 255.143h4V262h-4z"/><path fill="#9BC1B4" stroke="#579774" stroke-width="4" d="M50 176.857h20v30.286H50z"/><path fill="#579774" d="M58 168h4v6.857h-4zM58 209.143h4V216h-4z"/><path fill="#9BC1B4" stroke="#579774" stroke-width="4" d="M98 156.857h20v15.286H98z"/><path fill="#579774" d="M106 151h4v3.857h-4zM106 174.143h4V178h-4z"/><path fill="#E69B98" stroke="#EC5243" stroke-width="4" d="M146 173h20v26h-20z"/><path fill="#9BC1B4" stroke="#579774" stroke-width="4" d="M194 146h20v36h-20z"/><path fill="#579774" d="M202 136h4v8h-4zM202 184h4v8h-4z"/><path fill="#9BC1B4" stroke="#579774" stroke-width="4" d="M289 398h20v36h-20z"/><path fill="#579774" d="M297 388h4v8h-4zM297 436h4v8h-4z"/><path fill="#9BC1B4" stroke="#579774" stroke-width="4" d="M480 44h20v36h-20z"/><path fill="#579774" d="M488 34h4v8h-4zM488 82h4v8h-4z"/><path fill="#9BC1B4" stroke="#579774" stroke-width="4" d="M528 91h20v21h-20z"/><path fill="#579774" d="M536 84h4v5h-4zM536 114h4v5h-4z"/><path fill="#E69B98" stroke="#EC5243" stroke-width="4" d="M384 394.857h20v20.286h-20z"/><path fill="#EC5243" d="M392 388h4v4.857h-4zM392 417.143h4V422h-4z"/><path fill="#9BC1B4" stroke="#579774" stroke-width="4" d="M336 346.572h20v58.857h-20z"/><path fill="#579774" d="M344 332h4v12.571h-4zM344 407.428h4v12.571h-4z"/><path fill="#9BC1B4" stroke="#579774" stroke-width="4" d="M432 60.572h20v288.857h-20z"/><path fill="#579774" d="M440 0h4v58.571h-4zM440 351.428h4v58.571h-4z"/><path fill="#E69B98" stroke="#EC5243" stroke-width="4" d="M576 148h20v306h-20z"/><path fill="#EC5243" d="M584 84h4v62h-4zM584 456h4v62h-4z"/><path fill="#E69B98" stroke="#EC5243" stroke-width="4" d="M242 195.429h20v253.143h-20z"/><path fill="#EC5243" d="M250 142h4v51.429h-4zM250 450.571h4V502h-4z"/></svg>