<svg width="65" height="64" viewBox="0 0 65 64" fill="none" xmlns="http://www.w3.org/2000/svg">
<path fill-rule="evenodd" clip-rule="evenodd" d="M51.7681 9.73683C52.3263 10.2172 52.3893 11.0591 51.909 11.6172C50.5851 13.1553 44.1199 21.2839 37.4854 29.6254C37.2155 29.9648 36.9453 30.3045 36.6752 30.6441C29.809 39.2767 22.9521 47.8927 21.8361 49.1327C21.5914 49.4046 21.2458 49.564 20.8801 49.5736C20.5144 49.5832 20.1609 49.4422 19.9022 49.1836L13.4645 42.7459L13.4538 42.7351L13.4513 42.7326L13.4493 42.7307L14.3917 41.7874L15.3346 40.8447L15.3369 40.847L20.7608 46.2709C23.0496 43.4859 28.7656 36.3046 34.5882 28.9841C34.8938 28.5999 35.1996 28.2155 35.5051 27.8313C42.0758 19.57 48.5287 11.4568 49.8878 9.87765C50.3681 9.31952 51.21 9.25647 51.7681 9.73683ZM13.4489 40.8446C13.9696 40.3239 14.8139 40.324 15.3346 40.8447L14.3917 41.7874L13.4493 42.7307C12.9286 42.21 12.9282 41.3653 13.4489 40.8446Z" fill="#FF444F"/>
<path fill-rule="evenodd" clip-rule="evenodd" d="M25.3789 9.38578C25.3789 8.64848 25.9766 8.05078 26.7139 8.05078H37.3806C38.1179 8.05078 38.7156 8.64848 38.7156 9.38578C38.7156 10.1231 38.1179 10.7208 37.3806 10.7208H26.7139C25.9766 10.7208 25.3789 10.1231 25.3789 9.38578Z" fill="#FF444F"/>
<path fill-rule="evenodd" clip-rule="evenodd" d="M26.5 54.6673C26.5 53.9309 27.097 53.334 27.8333 53.334H33.1667C33.903 53.334 34.5 53.9309 34.5 54.6673C34.5 55.4037 33.903 56.0007 33.1667 56.0007H27.8333C27.097 56.0007 26.5 55.4037 26.5 54.6673Z" fill="#FF444F"/>
<path fill-rule="evenodd" clip-rule="evenodd" d="M44.6328 31.013C44.6328 30.2766 45.2298 29.6797 45.9661 29.6797H51.2995C52.0359 29.6797 52.6328 30.2766 52.6328 31.013C52.6328 31.7494 52.0359 32.3464 51.2995 32.3464H45.9661C45.2298 32.3464 44.6328 31.7494 44.6328 31.013Z" fill="#FF444F"/>
<path fill-rule="evenodd" clip-rule="evenodd" d="M26.5781 31.013C26.5781 30.2766 27.1751 29.6797 27.9115 29.6797H33.2448C33.9812 29.6797 34.5781 30.2766 34.5781 31.013C34.5781 31.7494 33.9812 32.3464 33.2448 32.3464H27.9115C27.1751 32.3464 26.5781 31.7494 26.5781 31.013Z" fill="#FF444F"/>
<path fill-rule="evenodd" clip-rule="evenodd" d="M8.39453 54.6673C8.39453 53.9309 8.99148 53.334 9.72786 53.334H20.3945C21.1309 53.334 21.7279 53.9309 21.7279 54.6673C21.7279 55.4037 21.1309 56.0007 20.3945 56.0007H9.72786C8.99148 56.0007 8.39453 55.4037 8.39453 54.6673Z" fill="#FF444F"/>
<path fill-rule="evenodd" clip-rule="evenodd" d="M9.8599 11.6527C9.8599 9.7377 11.3443 8.05273 13.3266 8.05273H19.7266C20.4629 8.05273 21.0599 8.64969 21.0599 9.38607C21.0599 10.1224 20.4629 10.7194 19.7266 10.7194H13.3266C12.9621 10.7194 12.5266 11.0611 12.5266 11.6527V17.3594C12.5266 17.699 12.3969 18.0259 12.1642 18.2732L10.8909 19.6261L12.1642 20.9789C12.3969 21.2262 12.5266 21.5531 12.5266 21.8927V28.7194C12.5266 29.311 12.9621 29.6527 13.3266 29.6527H19.7266C20.4629 29.6527 21.0599 30.2497 21.0599 30.9861C21.0599 31.7224 20.4629 32.3194 19.7266 32.3194H13.3266C11.3443 32.3194 9.8599 30.6344 9.8599 28.7194V22.4215L8.08896 20.5399C7.60576 20.0265 7.60576 19.2256 8.08896 18.7122L9.8599 16.8306V11.6527Z" fill="#FF444F"/>
<path fill-rule="evenodd" clip-rule="evenodd" d="M42.4219 37.2707C42.4216 37.2713 42.4206 37.2735 42.4206 37.2805V41.3072C42.4206 41.7557 42.6381 42.1746 43.0012 42.4301L43.0182 42.4421L45.0715 43.9356L45.0757 43.9387C46.1635 44.7364 46.2542 46.417 45.0353 47.2376L43.0892 48.5705C42.7023 48.8331 42.4739 49.2763 42.4739 49.7072V53.0672C42.4739 53.0743 42.4749 53.0765 42.4752 53.0771C42.4758 53.0785 42.4782 53.0831 42.4847 53.0894C42.4971 53.1013 42.5261 53.1205 42.5806 53.1205H50.4739C50.5283 53.1205 50.5574 53.1013 50.5698 53.0894C50.5763 53.0831 50.5786 53.0785 50.5792 53.0772C50.5795 53.0766 50.5806 53.0743 50.5806 53.0672V49.7339C50.5806 49.3029 50.3521 48.8597 49.9652 48.5972L49.9573 48.5918L47.9655 47.219C46.8772 46.4417 46.7965 44.7861 47.9521 43.9387L47.9563 43.9356L50.0043 42.4462C50.4058 42.147 50.6072 41.7348 50.6072 41.3072V37.2805C50.6072 37.2731 50.6061 37.271 50.6059 37.2706C50.6053 37.2692 50.603 37.2646 50.5964 37.2583C50.5841 37.2465 50.555 37.2272 50.5006 37.2272H42.5272C42.4728 37.2272 42.4437 37.2465 42.4314 37.2583C42.4248 37.2646 42.4225 37.2693 42.4219 37.2707C42.4219 37.2707 42.4219 37.2707 42.4219 37.2707ZM39.7539 37.2805C39.7539 35.722 41.0406 34.5605 42.5272 34.5605H50.5006C51.9872 34.5605 53.2739 35.722 53.2739 37.2805V41.3072C53.2739 42.6383 52.6234 43.8247 51.5875 44.592L51.5782 44.5989L50.257 45.5597L51.467 46.3936C52.5708 47.1447 53.2472 48.4066 53.2472 49.7339V53.0672C53.2472 54.6257 51.9605 55.7872 50.4739 55.7872H42.5806C41.094 55.7872 39.8072 54.6257 39.8072 53.0672V49.7072C39.8072 48.3793 40.4844 47.1168 41.5892 46.3658L42.7685 45.558L41.4572 44.6044C40.3861 43.846 39.7539 42.6149 39.7539 41.3072V37.2805Z" fill="#FF444F"/>
<path fill-rule="evenodd" clip-rule="evenodd" d="M46.4916 50.8807L42.939 54.566C42.3904 55.1351 41.4902 55.1459 40.9284 54.5901C40.3666 54.0344 40.356 53.1225 40.9046 52.5534L44.4534 48.872C45.569 47.6919 47.4224 47.7329 48.5291 48.854L48.541 48.866L48.5409 48.8661L52.0954 52.5534C52.644 53.1225 52.6334 54.0344 52.0716 54.5901C51.5098 55.1459 50.6096 55.1351 50.061 54.566L46.5167 50.8893C46.5143 50.8872 46.5118 50.8857 46.5084 50.8843C46.5037 50.8824 46.4977 50.881 46.4916 50.8807Z" fill="#FF444F"/>
<path fill-rule="evenodd" clip-rule="evenodd" d="M43.6719 9.38607C43.6719 8.64969 44.2688 8.05273 45.0052 8.05273H52.2852C53.0216 8.05273 53.6185 8.64969 53.6185 9.38607V16.3194C53.6185 17.0558 53.0216 17.6527 52.2852 17.6527C51.5488 17.6527 50.9519 17.0558 50.9519 16.3194V10.7194H45.0052C44.2688 10.7194 43.6719 10.1224 43.6719 9.38607Z" fill="#FF444F"/>
<path fill-rule="evenodd" clip-rule="evenodd" d="M8.39453 40.1602C8.39453 37.9571 10.1915 36.1602 12.3945 36.1602C14.5976 36.1602 16.3945 37.9571 16.3945 40.1602C16.3945 42.3632 14.5976 44.1602 12.3945 44.1602C10.1915 44.1602 8.39453 42.3632 8.39453 40.1602ZM12.3945 38.8268C11.6642 38.8268 11.0612 39.4299 11.0612 40.1602C11.0612 40.8904 11.6642 41.4935 12.3945 41.4935C13.1248 41.4935 13.7279 40.8904 13.7279 40.1602C13.7279 39.4299 13.1248 38.8268 12.3945 38.8268Z" fill="#FF444F"/>
</svg>
