<svg width="65" height="64" viewBox="0 0 65 64" fill="none" xmlns="http://www.w3.org/2000/svg">
<path d="M51.6199 50.9406C51.6199 51.6606 51.0399 52.2406 50.3199 52.2406H24.9099C24.1899 52.2406 23.6099 51.6606 23.6099 50.9406C23.6099 50.2206 24.1899 49.6406 24.9099 49.6406H50.3199C51.0399 49.6406 51.6199 50.2206 51.6199 50.9406ZM50.3199 34.5306C49.5999 34.5306 49.0199 35.1106 49.0199 35.8306V36.3306C49.0199 37.0506 49.5999 37.6306 50.3199 37.6306C51.0399 37.6306 51.6199 37.0506 51.6199 36.3306V35.8306C51.6199 35.1106 51.0399 34.5306 50.3199 34.5306ZM50.3199 39.3406C49.5999 39.3406 49.0199 39.9206 49.0199 40.6406V41.5006C49.0199 42.2206 49.5999 42.8006 50.3199 42.8006C51.0399 42.8006 51.6199 42.2206 51.6199 41.5006V40.6406C51.6199 39.9206 51.0399 39.3406 50.3199 39.3406ZM50.3199 44.5306C49.5999 44.5306 49.0199 45.1106 49.0199 45.8306V46.3306C49.0199 47.0506 49.5999 47.6306 50.3199 47.6306C51.0399 47.6306 51.6199 47.0506 51.6199 46.3306V45.8306C51.6199 45.1106 51.0399 44.5306 50.3199 44.5306ZM42.4599 27.2206L19.6499 50.0306C18.8399 50.8406 17.7599 51.2906 16.6099 51.2906C15.4599 51.2906 14.3799 50.8406 13.5699 50.0306L13.4499 49.9106C11.7699 48.2306 11.7699 45.5106 13.4499 43.8306L36.2299 21.0506H34.8699C32.6999 21.0506 30.9299 19.2806 30.9299 17.1106V15.8306C30.9299 13.6606 32.6999 11.8906 34.8699 11.8906H46.7899C49.4399 11.8906 51.6099 14.0506 51.6099 16.7006V28.6206C51.6099 30.7906 49.8499 32.5606 47.6799 32.5606H46.3999C44.2299 32.5606 42.4599 30.7906 42.4599 28.6206V27.2206ZM43.7099 24.2106C44.5299 24.5506 45.0599 25.3406 45.0599 26.2306V28.6206C45.0599 29.3606 45.6599 29.9606 46.3999 29.9606H47.6799C48.4199 29.9606 49.0199 29.3606 49.0199 28.6206V16.7006C49.0199 16.1106 48.7799 15.5506 48.3699 15.1306C47.9499 14.7106 47.3999 14.4806 46.7999 14.4806H34.8799C34.1399 14.4806 33.5399 15.0806 33.5399 15.8206V17.1006C33.5399 17.8406 34.1399 18.4406 34.8799 18.4406H37.2699C38.1499 18.4406 38.9399 18.9706 39.2799 19.7806C39.6199 20.5906 39.4299 21.5306 38.8099 22.1506L15.2999 45.6606C14.6399 46.3206 14.6399 47.4006 15.2999 48.0706L15.4199 48.1906C16.0599 48.8306 17.1799 48.8306 17.8199 48.1906L41.3299 24.6806C41.9599 24.0506 42.8899 23.8606 43.7199 24.2106H43.7099Z" fill="#FF444F"/>
</svg>
