<svg width="25" height="24" viewBox="0 0 25 24" fill="none" xmlns="http://www.w3.org/2000/svg">
<g clip-path="url(#clip0_2165_53877)">
<rect x="0.5" width="24" height="24" fill="#0364B9"/>
<g filter="url(#filter0_d_2165_53877)">
<path d="M6.00959 8.763C6.11759 8.961 6.24059 9.207 6.37859 9.501C6.52259 9.789 6.66959 10.104 6.81959 10.446C6.97559 10.782 7.12859 11.127 7.27859 11.481C7.42859 11.835 7.56959 12.168 7.70159 12.48C7.83359 12.168 7.97459 11.835 8.12459 11.481C8.27459 11.127 8.42459 10.782 8.57459 10.446C8.73059 10.104 8.87759 9.789 9.01559 9.501C9.15959 9.207 9.28559 8.961 9.39359 8.763H10.6716C10.7316 9.177 10.7856 9.642 10.8336 10.158C10.8876 10.668 10.9326 11.202 10.9686 11.76C11.0106 12.312 11.0466 12.867 11.0766 13.425C11.1126 13.983 11.1426 14.508 11.1666 15H9.79859C9.78059 14.394 9.75659 13.734 9.72659 13.02C9.69659 12.306 9.65159 11.586 9.59159 10.86C9.48359 11.112 9.36359 11.391 9.23159 11.697C9.09959 12.003 8.96759 12.309 8.83559 12.615C8.70959 12.921 8.58659 13.215 8.46659 13.497C8.34659 13.773 8.24459 14.01 8.16059 14.208H7.17959C7.09559 14.01 6.99359 13.773 6.87359 13.497C6.75359 13.215 6.62759 12.921 6.49559 12.615C6.36959 12.309 6.24059 12.003 6.10859 11.697C5.97659 11.391 5.85659 11.112 5.74859 10.86C5.68859 11.586 5.64359 12.306 5.61359 13.02C5.58359 13.734 5.55959 14.394 5.54159 15H4.17359C4.19759 14.508 4.22459 13.983 4.25459 13.425C4.29059 12.867 4.32659 12.312 4.36259 11.76C4.40459 11.202 4.44959 10.668 4.49759 10.158C4.55159 9.642 4.60859 9.177 4.66859 8.763H6.00959ZM16.5189 8.763V9.96H14.6379V15H13.2339V9.96H11.3529V8.763H16.5189ZM19.4912 13.164C19.4912 12.99 19.4522 12.837 19.3742 12.705C19.2962 12.567 19.1612 12.453 18.9692 12.363C18.7772 12.273 18.5192 12.204 18.1952 12.156C17.8712 12.108 17.4632 12.084 16.9712 12.084C17.0372 11.526 17.0912 10.959 17.1332 10.383C17.1752 9.807 17.2082 9.267 17.2322 8.763H20.6072V9.888H18.3572C18.3452 10.104 18.3302 10.314 18.3122 10.518C18.3002 10.716 18.2852 10.89 18.2672 11.04C19.1432 11.1 19.7882 11.307 20.2022 11.661C20.6222 12.009 20.8322 12.495 20.8322 13.119C20.8322 13.407 20.7812 13.674 20.6792 13.92C20.5772 14.166 20.4242 14.379 20.2202 14.559C20.0162 14.739 19.7582 14.88 19.4462 14.982C19.1402 15.084 18.7802 15.135 18.3662 15.135C18.2042 15.135 18.0332 15.123 17.8532 15.099C17.6792 15.081 17.5082 15.054 17.3402 15.018C17.1782 14.988 17.0312 14.955 16.8992 14.919C16.7672 14.883 16.6652 14.847 16.5932 14.811L16.8362 13.704C16.9862 13.77 17.1842 13.836 17.4302 13.902C17.6762 13.962 17.9702 13.992 18.3122 13.992C18.7262 13.992 19.0262 13.911 19.2122 13.749C19.3982 13.581 19.4912 13.386 19.4912 13.164Z" fill="white"/>
</g>
</g>
<defs>
<filter id="filter0_d_2165_53877" x="2.17188" y="7.76172" width="20.6602" height="10.375" filterUnits="userSpaceOnUse" color-interpolation-filters="sRGB">
<feFlood flood-opacity="0" result="BackgroundImageFix"/>
<feColorMatrix in="SourceAlpha" type="matrix" values="0 0 0 0 0 0 0 0 0 0 0 0 0 0 0 0 0 0 127 0" result="hardAlpha"/>
<feOffset dy="1"/>
<feGaussianBlur stdDeviation="1"/>
<feColorMatrix type="matrix" values="0 0 0 0 0.054902 0 0 0 0 0.054902 0 0 0 0 0.054902 0 0 0 0.05 0"/>
<feBlend mode="normal" in2="BackgroundImageFix" result="effect1_dropShadow_2165_53877"/>
<feBlend mode="normal" in="SourceGraphic" in2="effect1_dropShadow_2165_53877" result="shape"/>
</filter>
<clipPath id="clip0_2165_53877">
<rect x="0.5" width="24" height="24" rx="4.5" fill="white"/>
</clipPath>
</defs>
</svg>
