<svg width="411" height="115" viewBox="0 0 411 115" fill="none" xmlns="http://www.w3.org/2000/svg">
<rect x="1" y="1" width="409" height="113" rx="8" fill="white" stroke="#E5E5E5"/>
<path d="M27.232 40V38.964H29.962V31.096H29.864L27.4 33.392L26.714 32.65L29.304 30.228H31.138V38.964H33.658V40H27.232ZM38.5945 40.168C37.4279 40.168 36.5739 39.7247 36.0325 38.838C35.5005 37.9513 35.2345 36.71 35.2345 35.114C35.2345 33.518 35.5005 32.2767 36.0325 31.39C36.5739 30.5033 37.4279 30.06 38.5945 30.06C39.7612 30.06 40.6105 30.5033 41.1425 31.39C41.6839 32.2767 41.9545 33.518 41.9545 35.114C41.9545 36.71 41.6839 37.9513 41.1425 38.838C40.6105 39.7247 39.7612 40.168 38.5945 40.168ZM38.5945 39.146C38.9772 39.146 39.3039 39.0667 39.5745 38.908C39.8452 38.7493 40.0645 38.5253 40.2325 38.236C40.4005 37.9467 40.5219 37.606 40.5965 37.214C40.6805 36.822 40.7225 36.388 40.7225 35.912V34.316C40.7225 33.84 40.6805 33.406 40.5965 33.014C40.5219 32.622 40.4005 32.2813 40.2325 31.992C40.0645 31.7027 39.8452 31.4787 39.5745 31.32C39.3039 31.1613 38.9772 31.082 38.5945 31.082C38.2119 31.082 37.8852 31.1613 37.6145 31.32C37.3439 31.4787 37.1245 31.7027 36.9565 31.992C36.7885 32.2813 36.6625 32.622 36.5785 33.014C36.5039 33.406 36.4665 33.84 36.4665 34.316V35.912C36.4665 36.388 36.5039 36.822 36.5785 37.214C36.6625 37.606 36.7885 37.9467 36.9565 38.236C37.1245 38.5253 37.3439 38.7493 37.6145 38.908C37.8852 39.0667 38.2119 39.146 38.5945 39.146ZM46.9891 40.168C45.8224 40.168 44.9684 39.7247 44.4271 38.838C43.8951 37.9513 43.6291 36.71 43.6291 35.114C43.6291 33.518 43.8951 32.2767 44.4271 31.39C44.9684 30.5033 45.8224 30.06 46.9891 30.06C48.1557 30.06 49.0051 30.5033 49.5371 31.39C50.0784 32.2767 50.3491 33.518 50.3491 35.114C50.3491 36.71 50.0784 37.9513 49.5371 38.838C49.0051 39.7247 48.1557 40.168 46.9891 40.168ZM46.9891 39.146C47.3717 39.146 47.6984 39.0667 47.9691 38.908C48.2397 38.7493 48.4591 38.5253 48.6271 38.236C48.7951 37.9467 48.9164 37.606 48.9911 37.214C49.0751 36.822 49.1171 36.388 49.1171 35.912V34.316C49.1171 33.84 49.0751 33.406 48.9911 33.014C48.9164 32.622 48.7951 32.2813 48.6271 31.992C48.4591 31.7027 48.2397 31.4787 47.9691 31.32C47.6984 31.1613 47.3717 31.082 46.9891 31.082C46.6064 31.082 46.2797 31.1613 46.0091 31.32C45.7384 31.4787 45.5191 31.7027 45.3511 31.992C45.1831 32.2813 45.0571 32.622 44.9731 33.014C44.8984 33.406 44.8611 33.84 44.8611 34.316V35.912C44.8611 36.388 44.8984 36.822 44.9731 37.214C45.0571 37.606 45.1831 37.9467 45.3511 38.236C45.5191 38.5253 45.7384 38.7493 46.0091 38.908C46.2797 39.0667 46.6064 39.146 46.9891 39.146ZM53.0876 38.362C53.3863 38.362 53.6009 38.4413 53.7316 38.6C53.8716 38.7493 53.9416 38.9453 53.9416 39.188V39.384C53.9416 39.7667 53.8296 40.1867 53.6056 40.644C53.3816 41.1107 53.0689 41.5167 52.6676 41.862H51.7296C52.0096 41.5633 52.2336 41.2787 52.4016 41.008C52.5789 40.7467 52.7049 40.4527 52.7796 40.126C52.5929 40.0793 52.4529 39.9907 52.3596 39.86C52.2756 39.7293 52.2336 39.5707 52.2336 39.384V39.188C52.2336 38.9453 52.2989 38.7493 52.4296 38.6C52.5696 38.4413 52.7889 38.362 53.0876 38.362ZM59.198 40.168C58.0314 40.168 57.1774 39.7247 56.636 38.838C56.104 37.9513 55.838 36.71 55.838 35.114C55.838 33.518 56.104 32.2767 56.636 31.39C57.1774 30.5033 58.0314 30.06 59.198 30.06C60.3647 30.06 61.214 30.5033 61.746 31.39C62.2874 32.2767 62.558 33.518 62.558 35.114C62.558 36.71 62.2874 37.9513 61.746 38.838C61.214 39.7247 60.3647 40.168 59.198 40.168ZM59.198 39.146C59.5807 39.146 59.9074 39.0667 60.178 38.908C60.4487 38.7493 60.668 38.5253 60.836 38.236C61.004 37.9467 61.1254 37.606 61.2 37.214C61.284 36.822 61.326 36.388 61.326 35.912V34.316C61.326 33.84 61.284 33.406 61.2 33.014C61.1254 32.622 61.004 32.2813 60.836 31.992C60.668 31.7027 60.4487 31.4787 60.178 31.32C59.9074 31.1613 59.5807 31.082 59.198 31.082C58.8154 31.082 58.4887 31.1613 58.218 31.32C57.9474 31.4787 57.728 31.7027 57.56 31.992C57.392 32.2813 57.266 32.622 57.182 33.014C57.1074 33.406 57.07 33.84 57.07 34.316V35.912C57.07 36.388 57.1074 36.822 57.182 37.214C57.266 37.606 57.392 37.9467 57.56 38.236C57.728 38.5253 57.9474 38.7493 58.218 38.908C58.4887 39.0667 58.8154 39.146 59.198 39.146ZM67.5926 40.168C66.4259 40.168 65.5719 39.7247 65.0306 38.838C64.4986 37.9513 64.2326 36.71 64.2326 35.114C64.2326 33.518 64.4986 32.2767 65.0306 31.39C65.5719 30.5033 66.4259 30.06 67.5926 30.06C68.7592 30.06 69.6086 30.5033 70.1406 31.39C70.6819 32.2767 70.9526 33.518 70.9526 35.114C70.9526 36.71 70.6819 37.9513 70.1406 38.838C69.6086 39.7247 68.7592 40.168 67.5926 40.168ZM67.5926 39.146C67.9752 39.146 68.3019 39.0667 68.5726 38.908C68.8432 38.7493 69.0626 38.5253 69.2306 38.236C69.3986 37.9467 69.5199 37.606 69.5946 37.214C69.6786 36.822 69.7206 36.388 69.7206 35.912V34.316C69.7206 33.84 69.6786 33.406 69.5946 33.014C69.5199 32.622 69.3986 32.2813 69.2306 31.992C69.0626 31.7027 68.8432 31.4787 68.5726 31.32C68.3019 31.1613 67.9752 31.082 67.5926 31.082C67.2099 31.082 66.8832 31.1613 66.6126 31.32C66.3419 31.4787 66.1226 31.7027 65.9546 31.992C65.7866 32.2813 65.6606 32.622 65.5766 33.014C65.5019 33.406 65.4646 33.84 65.4646 34.316V35.912C65.4646 36.388 65.5019 36.822 65.5766 37.214C65.6606 37.606 65.7866 37.9467 65.9546 38.236C66.1226 38.5253 66.3419 38.7493 66.6126 38.908C66.8832 39.0667 67.2099 39.146 67.5926 39.146ZM75.9871 40.168C74.8204 40.168 73.9664 39.7247 73.4251 38.838C72.8931 37.9513 72.6271 36.71 72.6271 35.114C72.6271 33.518 72.8931 32.2767 73.4251 31.39C73.9664 30.5033 74.8204 30.06 75.9871 30.06C77.1538 30.06 78.0031 30.5033 78.5351 31.39C79.0764 32.2767 79.3471 33.518 79.3471 35.114C79.3471 36.71 79.0764 37.9513 78.5351 38.838C78.0031 39.7247 77.1538 40.168 75.9871 40.168ZM75.9871 39.146C76.3698 39.146 76.6964 39.0667 76.9671 38.908C77.2378 38.7493 77.4571 38.5253 77.6251 38.236C77.7931 37.9467 77.9144 37.606 77.9891 37.214C78.0731 36.822 78.1151 36.388 78.1151 35.912V34.316C78.1151 33.84 78.0731 33.406 77.9891 33.014C77.9144 32.622 77.7931 32.2813 77.6251 31.992C77.4571 31.7027 77.2378 31.4787 76.9671 31.32C76.6964 31.1613 76.3698 31.082 75.9871 31.082C75.6044 31.082 75.2778 31.1613 75.0071 31.32C74.7364 31.4787 74.5171 31.7027 74.3491 31.992C74.1811 32.2813 74.0551 32.622 73.9711 33.014C73.8964 33.406 73.8591 33.84 73.8591 34.316V35.912C73.8591 36.388 73.8964 36.822 73.9711 37.214C74.0551 37.606 74.1811 37.9467 74.3491 38.236C74.5171 38.5253 74.7364 38.7493 75.0071 38.908C75.2778 39.0667 75.6044 39.146 75.9871 39.146Z" fill="#414652"/>
<path d="M109.2 36.416L106.974 38.698L106.288 38.012L108.514 35.73L106.288 33.448L106.974 32.762L109.2 35.044L111.426 32.762L112.112 33.448L109.886 35.73L112.112 38.012L111.426 38.698L109.2 36.416Z" fill="#414652"/>
<path d="M144.972 31.264H140.688L140.408 34.988H140.506C140.739 34.6613 141.001 34.4 141.29 34.204C141.589 34.008 141.995 33.91 142.508 33.91C142.928 33.91 143.315 33.98 143.67 34.12C144.025 34.26 144.333 34.4607 144.594 34.722C144.855 34.974 145.056 35.2867 145.196 35.66C145.345 36.0333 145.42 36.458 145.42 36.934C145.42 37.41 145.345 37.8487 145.196 38.25C145.047 38.642 144.827 38.9827 144.538 39.272C144.258 39.552 143.913 39.7713 143.502 39.93C143.101 40.0887 142.643 40.168 142.13 40.168C141.719 40.168 141.355 40.1213 141.038 40.028C140.73 39.9347 140.455 39.8087 140.212 39.65C139.969 39.4913 139.755 39.314 139.568 39.118C139.391 38.922 139.227 38.7167 139.078 38.502L139.96 37.83C140.081 38.026 140.207 38.2033 140.338 38.362C140.478 38.5207 140.627 38.656 140.786 38.768C140.954 38.88 141.145 38.9687 141.36 39.034C141.575 39.09 141.831 39.118 142.13 39.118C142.802 39.118 143.311 38.9407 143.656 38.586C144.001 38.2313 144.174 37.732 144.174 37.088V36.948C144.174 36.304 144.001 35.8047 143.656 35.45C143.311 35.0953 142.802 34.918 142.13 34.918C141.682 34.918 141.327 35.002 141.066 35.17C140.814 35.3287 140.585 35.52 140.38 35.744L139.386 35.604L139.736 30.228H144.972V31.264ZM148.299 40.168C148 40.168 147.781 40.0933 147.641 39.944C147.51 39.7947 147.445 39.5987 147.445 39.356V39.174C147.445 38.9313 147.51 38.7353 147.641 38.586C147.781 38.4367 148 38.362 148.299 38.362C148.597 38.362 148.812 38.4367 148.943 38.586C149.083 38.7353 149.153 38.9313 149.153 39.174V39.356C149.153 39.5987 149.083 39.7947 148.943 39.944C148.812 40.0933 148.597 40.168 148.299 40.168ZM154.409 40.168C153.242 40.168 152.388 39.7247 151.847 38.838C151.315 37.9513 151.049 36.71 151.049 35.114C151.049 33.518 151.315 32.2767 151.847 31.39C152.388 30.5033 153.242 30.06 154.409 30.06C155.576 30.06 156.425 30.5033 156.957 31.39C157.498 32.2767 157.769 33.518 157.769 35.114C157.769 36.71 157.498 37.9513 156.957 38.838C156.425 39.7247 155.576 40.168 154.409 40.168ZM154.409 39.146C154.792 39.146 155.118 39.0667 155.389 38.908C155.66 38.7493 155.879 38.5253 156.047 38.236C156.215 37.9467 156.336 37.606 156.411 37.214C156.495 36.822 156.537 36.388 156.537 35.912V34.316C156.537 33.84 156.495 33.406 156.411 33.014C156.336 32.622 156.215 32.2813 156.047 31.992C155.879 31.7027 155.66 31.4787 155.389 31.32C155.118 31.1613 154.792 31.082 154.409 31.082C154.026 31.082 153.7 31.1613 153.429 31.32C153.158 31.4787 152.939 31.7027 152.771 31.992C152.603 32.2813 152.477 32.622 152.393 33.014C152.318 33.406 152.281 33.84 152.281 34.316V35.912C152.281 36.388 152.318 36.822 152.393 37.214C152.477 37.606 152.603 37.9467 152.771 38.236C152.939 38.5253 153.158 38.7493 153.429 38.908C153.7 39.0667 154.026 39.146 154.409 39.146ZM162.804 40.168C161.637 40.168 160.783 39.7247 160.242 38.838C159.71 37.9513 159.444 36.71 159.444 35.114C159.444 33.518 159.71 32.2767 160.242 31.39C160.783 30.5033 161.637 30.06 162.804 30.06C163.97 30.06 164.82 30.5033 165.352 31.39C165.893 32.2767 166.164 33.518 166.164 35.114C166.164 36.71 165.893 37.9513 165.352 38.838C164.82 39.7247 163.97 40.168 162.804 40.168ZM162.804 39.146C163.186 39.146 163.513 39.0667 163.784 38.908C164.054 38.7493 164.274 38.5253 164.442 38.236C164.61 37.9467 164.731 37.606 164.806 37.214C164.89 36.822 164.932 36.388 164.932 35.912V34.316C164.932 33.84 164.89 33.406 164.806 33.014C164.731 32.622 164.61 32.2813 164.442 31.992C164.274 31.7027 164.054 31.4787 163.784 31.32C163.513 31.1613 163.186 31.082 162.804 31.082C162.421 31.082 162.094 31.1613 161.824 31.32C161.553 31.4787 161.334 31.7027 161.166 31.992C160.998 32.2813 160.872 32.622 160.788 33.014C160.713 33.406 160.676 33.84 160.676 34.316V35.912C160.676 36.388 160.713 36.822 160.788 37.214C160.872 37.606 160.998 37.9467 161.166 38.236C161.334 38.5253 161.553 38.7493 161.824 38.908C162.094 39.0667 162.421 39.146 162.804 39.146Z" fill="#414652"/>
<path d="M192.446 42.114L196.1 29.64H197.108L193.454 42.114H192.446Z" fill="#414652"/>
<path d="M240.88 31.264H236.596L236.316 34.988H236.414C236.648 34.6613 236.909 34.4 237.198 34.204C237.497 34.008 237.903 33.91 238.416 33.91C238.836 33.91 239.224 33.98 239.578 34.12C239.933 34.26 240.241 34.4607 240.502 34.722C240.764 34.974 240.964 35.2867 241.104 35.66C241.254 36.0333 241.328 36.458 241.328 36.934C241.328 37.41 241.254 37.8487 241.104 38.25C240.955 38.642 240.736 38.9827 240.446 39.272C240.166 39.552 239.821 39.7713 239.41 39.93C239.009 40.0887 238.552 40.168 238.038 40.168C237.628 40.168 237.264 40.1213 236.946 40.028C236.638 39.9347 236.363 39.8087 236.12 39.65C235.878 39.4913 235.663 39.314 235.476 39.118C235.299 38.922 235.136 38.7167 234.986 38.502L235.868 37.83C235.99 38.026 236.116 38.2033 236.246 38.362C236.386 38.5207 236.536 38.656 236.694 38.768C236.862 38.88 237.054 38.9687 237.268 39.034C237.483 39.09 237.74 39.118 238.038 39.118C238.71 39.118 239.219 38.9407 239.564 38.586C239.91 38.2313 240.082 37.732 240.082 37.088V36.948C240.082 36.304 239.91 35.8047 239.564 35.45C239.219 35.0953 238.71 34.918 238.038 34.918C237.59 34.918 237.236 35.002 236.974 35.17C236.722 35.3287 236.494 35.52 236.288 35.744L235.294 35.604L235.644 30.228H240.88V31.264ZM246.503 40.168C245.336 40.168 244.482 39.7247 243.941 38.838C243.409 37.9513 243.143 36.71 243.143 35.114C243.143 33.518 243.409 32.2767 243.941 31.39C244.482 30.5033 245.336 30.06 246.503 30.06C247.669 30.06 248.519 30.5033 249.051 31.39C249.592 32.2767 249.863 33.518 249.863 35.114C249.863 36.71 249.592 37.9513 249.051 38.838C248.519 39.7247 247.669 40.168 246.503 40.168ZM246.503 39.146C246.885 39.146 247.212 39.0667 247.483 38.908C247.753 38.7493 247.973 38.5253 248.141 38.236C248.309 37.9467 248.43 37.606 248.505 37.214C248.589 36.822 248.631 36.388 248.631 35.912V34.316C248.631 33.84 248.589 33.406 248.505 33.014C248.43 32.622 248.309 32.2813 248.141 31.992C247.973 31.7027 247.753 31.4787 247.483 31.32C247.212 31.1613 246.885 31.082 246.503 31.082C246.12 31.082 245.793 31.1613 245.523 31.32C245.252 31.4787 245.033 31.7027 244.865 31.992C244.697 32.2813 244.571 32.622 244.487 33.014C244.412 33.406 244.375 33.84 244.375 34.316V35.912C244.375 36.388 244.412 36.822 244.487 37.214C244.571 37.606 244.697 37.9467 244.865 38.236C245.033 38.5253 245.252 38.7493 245.523 38.908C245.793 39.0667 246.12 39.146 246.503 39.146ZM254.897 40.168C253.731 40.168 252.877 39.7247 252.335 38.838C251.803 37.9513 251.537 36.71 251.537 35.114C251.537 33.518 251.803 32.2767 252.335 31.39C252.877 30.5033 253.731 30.06 254.897 30.06C256.064 30.06 256.913 30.5033 257.445 31.39C257.987 32.2767 258.257 33.518 258.257 35.114C258.257 36.71 257.987 37.9513 257.445 38.838C256.913 39.7247 256.064 40.168 254.897 40.168ZM254.897 39.146C255.28 39.146 255.607 39.0667 255.877 38.908C256.148 38.7493 256.367 38.5253 256.535 38.236C256.703 37.9467 256.825 37.606 256.899 37.214C256.983 36.822 257.025 36.388 257.025 35.912V34.316C257.025 33.84 256.983 33.406 256.899 33.014C256.825 32.622 256.703 32.2813 256.535 31.992C256.367 31.7027 256.148 31.4787 255.877 31.32C255.607 31.1613 255.28 31.082 254.897 31.082C254.515 31.082 254.188 31.1613 253.917 31.32C253.647 31.4787 253.427 31.7027 253.259 31.992C253.091 32.2813 252.965 32.622 252.881 33.014C252.807 33.406 252.769 33.84 252.769 34.316V35.912C252.769 36.388 252.807 36.822 252.881 37.214C252.965 37.606 253.091 37.9467 253.259 38.236C253.427 38.5253 253.647 38.7493 253.917 38.908C254.188 39.0667 254.515 39.146 254.897 39.146Z" fill="#414652"/>
<path d="M296.241 34.792V33.84H302.765V34.792H296.241ZM296.241 37.592V36.64H302.765V37.592H296.241Z" fill="#414652"/>
<path d="M333.4 41.148V40C332.691 39.9533 332.089 39.7807 331.594 39.482C331.109 39.174 330.693 38.7913 330.348 38.334L331.174 37.592C331.473 37.9933 331.799 38.3153 332.154 38.558C332.518 38.7913 332.938 38.9407 333.414 39.006V35.408C332.453 35.1933 331.748 34.8807 331.3 34.47C330.861 34.05 330.642 33.476 330.642 32.748C330.642 32.3747 330.707 32.0433 330.838 31.754C330.978 31.4553 331.169 31.1987 331.412 30.984C331.655 30.7693 331.944 30.6013 332.28 30.48C332.616 30.3493 332.989 30.2653 333.4 30.228V29.08H334.268V30.214C334.903 30.27 335.449 30.4333 335.906 30.704C336.373 30.9653 336.774 31.3293 337.11 31.796L336.256 32.44C336.023 32.1133 335.743 31.8473 335.416 31.642C335.089 31.4273 334.702 31.2873 334.254 31.222V34.498L334.38 34.526C335.351 34.7407 336.055 35.058 336.494 35.478C336.942 35.8887 337.166 36.4627 337.166 37.2C337.166 38.0027 336.905 38.6513 336.382 39.146C335.869 39.6313 335.164 39.916 334.268 40V41.148H333.4ZM336.06 37.27C336.06 36.794 335.92 36.43 335.64 36.178C335.369 35.926 334.907 35.7207 334.254 35.562V39.006C334.814 38.9313 335.253 38.7447 335.57 38.446C335.897 38.138 336.06 37.746 336.06 37.27ZM331.748 32.664C331.748 33.14 331.883 33.4993 332.154 33.742C332.434 33.9753 332.854 34.1667 333.414 34.316V31.222C332.91 31.2873 332.504 31.4413 332.196 31.684C331.897 31.9267 331.748 32.2533 331.748 32.664ZM339.219 40V38.964H341.949V31.096H341.851L339.387 33.392L338.701 32.65L341.291 30.228H343.125V38.964H345.645V40H339.219ZM348.286 38.362C348.585 38.362 348.799 38.4413 348.93 38.6C349.07 38.7493 349.14 38.9453 349.14 39.188V39.384C349.14 39.7667 349.028 40.1867 348.804 40.644C348.58 41.1107 348.267 41.5167 347.866 41.862H346.928C347.208 41.5633 347.432 41.2787 347.6 41.008C347.777 40.7467 347.903 40.4527 347.978 40.126C347.791 40.0793 347.651 39.9907 347.558 39.86C347.474 39.7293 347.432 39.5707 347.432 39.384V39.188C347.432 38.9453 347.497 38.7493 347.628 38.6C347.768 38.4413 347.987 38.362 348.286 38.362ZM354.396 40.168C353.23 40.168 352.376 39.7247 351.834 38.838C351.302 37.9513 351.036 36.71 351.036 35.114C351.036 33.518 351.302 32.2767 351.834 31.39C352.376 30.5033 353.23 30.06 354.396 30.06C355.563 30.06 356.412 30.5033 356.944 31.39C357.486 32.2767 357.756 33.518 357.756 35.114C357.756 36.71 357.486 37.9513 356.944 38.838C356.412 39.7247 355.563 40.168 354.396 40.168ZM354.396 39.146C354.779 39.146 355.106 39.0667 355.376 38.908C355.647 38.7493 355.866 38.5253 356.034 38.236C356.202 37.9467 356.324 37.606 356.398 37.214C356.482 36.822 356.524 36.388 356.524 35.912V34.316C356.524 33.84 356.482 33.406 356.398 33.014C356.324 32.622 356.202 32.2813 356.034 31.992C355.866 31.7027 355.647 31.4787 355.376 31.32C355.106 31.1613 354.779 31.082 354.396 31.082C354.014 31.082 353.687 31.1613 353.416 31.32C353.146 31.4787 352.926 31.7027 352.758 31.992C352.59 32.2813 352.464 32.622 352.38 33.014C352.306 33.406 352.268 33.84 352.268 34.316V35.912C352.268 36.388 352.306 36.822 352.38 37.214C352.464 37.606 352.59 37.9467 352.758 38.236C352.926 38.5253 353.146 38.7493 353.416 38.908C353.687 39.0667 354.014 39.146 354.396 39.146ZM362.791 40.168C361.624 40.168 360.77 39.7247 360.229 38.838C359.697 37.9513 359.431 36.71 359.431 35.114C359.431 33.518 359.697 32.2767 360.229 31.39C360.77 30.5033 361.624 30.06 362.791 30.06C363.957 30.06 364.807 30.5033 365.339 31.39C365.88 32.2767 366.151 33.518 366.151 35.114C366.151 36.71 365.88 37.9513 365.339 38.838C364.807 39.7247 363.957 40.168 362.791 40.168ZM362.791 39.146C363.173 39.146 363.5 39.0667 363.771 38.908C364.041 38.7493 364.261 38.5253 364.429 38.236C364.597 37.9467 364.718 37.606 364.793 37.214C364.877 36.822 364.919 36.388 364.919 35.912V34.316C364.919 33.84 364.877 33.406 364.793 33.014C364.718 32.622 364.597 32.2813 364.429 31.992C364.261 31.7027 364.041 31.4787 363.771 31.32C363.5 31.1613 363.173 31.082 362.791 31.082C362.408 31.082 362.081 31.1613 361.811 31.32C361.54 31.4787 361.321 31.7027 361.153 31.992C360.985 32.2813 360.859 32.622 360.775 33.014C360.7 33.406 360.663 33.84 360.663 34.316V35.912C360.663 36.388 360.7 36.822 360.775 37.214C360.859 37.606 360.985 37.9467 361.153 38.236C361.321 38.5253 361.54 38.7493 361.811 38.908C362.081 39.0667 362.408 39.146 362.791 39.146ZM371.185 40.168C370.019 40.168 369.165 39.7247 368.623 38.838C368.091 37.9513 367.825 36.71 367.825 35.114C367.825 33.518 368.091 32.2767 368.623 31.39C369.165 30.5033 370.019 30.06 371.185 30.06C372.352 30.06 373.201 30.5033 373.733 31.39C374.275 32.2767 374.545 33.518 374.545 35.114C374.545 36.71 374.275 37.9513 373.733 38.838C373.201 39.7247 372.352 40.168 371.185 40.168ZM371.185 39.146C371.568 39.146 371.895 39.0667 372.165 38.908C372.436 38.7493 372.655 38.5253 372.823 38.236C372.991 37.9467 373.113 37.606 373.187 37.214C373.271 36.822 373.313 36.388 373.313 35.912V34.316C373.313 33.84 373.271 33.406 373.187 33.014C373.113 32.622 372.991 32.2813 372.823 31.992C372.655 31.7027 372.436 31.4787 372.165 31.32C371.895 31.1613 371.568 31.082 371.185 31.082C370.803 31.082 370.476 31.1613 370.205 31.32C369.935 31.4787 369.715 31.7027 369.547 31.992C369.379 32.2813 369.253 32.622 369.169 33.014C369.095 33.406 369.057 33.84 369.057 34.316V35.912C369.057 36.388 369.095 36.822 369.169 37.214C369.253 37.606 369.379 37.9467 369.547 38.236C369.715 38.5253 369.935 38.7493 370.205 38.908C370.476 39.0667 370.803 39.146 371.185 39.146Z" fill="#414652"/>
<path d="M218.302 90V80.228H219.478V88.964H223.636V90H218.302ZM227.783 90.168C227.288 90.168 226.84 90.0793 226.439 89.902C226.047 89.7247 225.706 89.4727 225.417 89.146C225.137 88.81 224.918 88.4133 224.759 87.956C224.61 87.4893 224.535 86.9667 224.535 86.388C224.535 85.8187 224.61 85.3007 224.759 84.834C224.918 84.3673 225.137 83.9707 225.417 83.644C225.706 83.308 226.047 83.0513 226.439 82.874C226.84 82.6967 227.288 82.608 227.783 82.608C228.268 82.608 228.702 82.6967 229.085 82.874C229.468 83.0513 229.794 83.2987 230.065 83.616C230.336 83.924 230.541 84.2927 230.681 84.722C230.83 85.1513 230.905 85.6227 230.905 86.136V86.668H225.711V87.004C225.711 87.312 225.758 87.6013 225.851 87.872C225.954 88.1333 226.094 88.362 226.271 88.558C226.458 88.754 226.682 88.908 226.943 89.02C227.214 89.132 227.517 89.188 227.853 89.188C228.31 89.188 228.707 89.0807 229.043 88.866C229.388 88.6513 229.654 88.3433 229.841 87.942L230.639 88.516C230.406 89.0107 230.042 89.412 229.547 89.72C229.052 90.0187 228.464 90.168 227.783 90.168ZM227.783 83.546C227.475 83.546 227.195 83.602 226.943 83.714C226.691 83.8167 226.472 83.966 226.285 84.162C226.108 84.358 225.968 84.5913 225.865 84.862C225.762 85.1233 225.711 85.4127 225.711 85.73V85.828H229.701V85.674C229.701 85.03 229.524 84.5167 229.169 84.134C228.824 83.742 228.362 83.546 227.783 83.546ZM234.237 90L231.703 82.776H232.823L234.083 86.36L234.867 88.824H234.937L235.721 86.36L237.009 82.776H238.087L235.539 90H234.237ZM242.138 90.168C241.644 90.168 241.196 90.0793 240.794 89.902C240.402 89.7247 240.062 89.4727 239.772 89.146C239.492 88.81 239.273 88.4133 239.114 87.956C238.965 87.4893 238.89 86.9667 238.89 86.388C238.89 85.8187 238.965 85.3007 239.114 84.834C239.273 84.3673 239.492 83.9707 239.772 83.644C240.062 83.308 240.402 83.0513 240.794 82.874C241.196 82.6967 241.644 82.608 242.138 82.608C242.624 82.608 243.058 82.6967 243.44 82.874C243.823 83.0513 244.15 83.2987 244.42 83.616C244.691 83.924 244.896 84.2927 245.036 84.722C245.186 85.1513 245.26 85.6227 245.26 86.136V86.668H240.066V87.004C240.066 87.312 240.113 87.6013 240.206 87.872C240.309 88.1333 240.449 88.362 240.626 88.558C240.813 88.754 241.037 88.908 241.298 89.02C241.569 89.132 241.872 89.188 242.208 89.188C242.666 89.188 243.062 89.0807 243.398 88.866C243.744 88.6513 244.01 88.3433 244.196 87.942L244.994 88.516C244.761 89.0107 244.397 89.412 243.902 89.72C243.408 90.0187 242.82 90.168 242.138 90.168ZM242.138 83.546C241.83 83.546 241.55 83.602 241.298 83.714C241.046 83.8167 240.827 83.966 240.64 84.162C240.463 84.358 240.323 84.5913 240.22 84.862C240.118 85.1233 240.066 85.4127 240.066 85.73V85.828H244.056V85.674C244.056 85.03 243.879 84.5167 243.524 84.134C243.179 83.742 242.717 83.546 242.138 83.546ZM247.106 90V82.776H248.226V84.106H248.296C248.427 83.7607 248.66 83.4527 248.996 83.182C249.332 82.9113 249.794 82.776 250.382 82.776H250.816V83.896H250.158C249.551 83.896 249.075 84.0127 248.73 84.246C248.394 84.47 248.226 84.7547 248.226 85.1V90H247.106ZM257.442 90C257.022 90 256.719 89.888 256.532 89.664C256.355 89.44 256.243 89.16 256.196 88.824H256.126C255.967 89.272 255.706 89.608 255.342 89.832C254.978 90.056 254.544 90.168 254.04 90.168C253.275 90.168 252.677 89.972 252.248 89.58C251.828 89.188 251.618 88.656 251.618 87.984C251.618 87.3027 251.865 86.78 252.36 86.416C252.864 86.052 253.643 85.87 254.698 85.87H256.126V85.156C256.126 84.6427 255.986 84.2507 255.706 83.98C255.426 83.7093 254.997 83.574 254.418 83.574C253.979 83.574 253.611 83.672 253.312 83.868C253.023 84.064 252.78 84.3253 252.584 84.652L251.912 84.022C252.108 83.63 252.421 83.2987 252.85 83.028C253.279 82.748 253.821 82.608 254.474 82.608C255.351 82.608 256.033 82.8227 256.518 83.252C257.003 83.6813 257.246 84.2787 257.246 85.044V89.02H258.072V90H257.442ZM254.222 89.216C254.502 89.216 254.759 89.1833 254.992 89.118C255.225 89.0527 255.426 88.9593 255.594 88.838C255.762 88.7167 255.893 88.5767 255.986 88.418C256.079 88.2593 256.126 88.0867 256.126 87.9V86.71H254.642C253.998 86.71 253.527 86.8033 253.228 86.99C252.939 87.1767 252.794 87.4473 252.794 87.802V88.096C252.794 88.4507 252.92 88.726 253.172 88.922C253.433 89.118 253.783 89.216 254.222 89.216ZM265.76 90.798C265.76 91.5447 265.466 92.0907 264.878 92.436C264.3 92.7907 263.427 92.968 262.26 92.968C261.131 92.968 260.319 92.814 259.824 92.506C259.33 92.198 259.082 91.7593 259.082 91.19C259.082 90.798 259.185 90.49 259.39 90.266C259.596 90.0513 259.876 89.8927 260.23 89.79V89.636C259.801 89.4307 259.586 89.0947 259.586 88.628C259.586 88.264 259.703 87.9887 259.936 87.802C260.17 87.606 260.468 87.4613 260.832 87.368V87.312C260.403 87.1067 260.067 86.8127 259.824 86.43C259.591 86.0473 259.474 85.604 259.474 85.1C259.474 84.736 259.54 84.4 259.67 84.092C259.801 83.784 259.983 83.5227 260.216 83.308C260.459 83.084 260.744 82.9113 261.07 82.79C261.406 82.6687 261.78 82.608 262.19 82.608C262.704 82.608 263.161 82.7013 263.562 82.888V82.762C263.562 82.482 263.628 82.2533 263.758 82.076C263.889 81.8893 264.104 81.796 264.402 81.796H265.48V82.776H264.108V83.238C264.37 83.462 264.57 83.7327 264.71 84.05C264.86 84.358 264.934 84.708 264.934 85.1C264.934 85.464 264.869 85.8 264.738 86.108C264.608 86.416 264.421 86.682 264.178 86.906C263.945 87.1207 263.66 87.2887 263.324 87.41C262.988 87.5313 262.615 87.592 262.204 87.592C261.971 87.592 261.738 87.5687 261.504 87.522C261.262 87.5873 261.042 87.6853 260.846 87.816C260.65 87.9373 260.552 88.11 260.552 88.334C260.552 88.5487 260.655 88.6933 260.86 88.768C261.066 88.8427 261.332 88.88 261.658 88.88H263.198C264.094 88.88 264.743 89.0527 265.144 89.398C265.555 89.734 265.76 90.2007 265.76 90.798ZM264.71 90.882C264.71 90.5927 264.598 90.3593 264.374 90.182C264.16 90.014 263.772 89.93 263.212 89.93H260.804C260.356 90.1353 260.132 90.462 260.132 90.91C260.132 91.2273 260.249 91.498 260.482 91.722C260.725 91.946 261.131 92.058 261.7 92.058H262.736C263.362 92.058 263.847 91.96 264.192 91.764C264.538 91.568 264.71 91.274 264.71 90.882ZM262.204 86.696C262.68 86.696 263.058 86.584 263.338 86.36C263.618 86.1267 263.758 85.772 263.758 85.296V84.904C263.758 84.428 263.618 84.078 263.338 83.854C263.058 83.6207 262.68 83.504 262.204 83.504C261.728 83.504 261.35 83.6207 261.07 83.854C260.79 84.078 260.65 84.428 260.65 84.904V85.296C260.65 85.772 260.79 86.1267 261.07 86.36C261.35 86.584 261.728 86.696 262.204 86.696ZM269.701 90.168C269.206 90.168 268.758 90.0793 268.357 89.902C267.965 89.7247 267.624 89.4727 267.335 89.146C267.055 88.81 266.836 88.4133 266.677 87.956C266.528 87.4893 266.453 86.9667 266.453 86.388C266.453 85.8187 266.528 85.3007 266.677 84.834C266.836 84.3673 267.055 83.9707 267.335 83.644C267.624 83.308 267.965 83.0513 268.357 82.874C268.758 82.6967 269.206 82.608 269.701 82.608C270.186 82.608 270.62 82.6967 271.003 82.874C271.386 83.0513 271.712 83.2987 271.983 83.616C272.254 83.924 272.459 84.2927 272.599 84.722C272.748 85.1513 272.823 85.6227 272.823 86.136V86.668H267.629V87.004C267.629 87.312 267.676 87.6013 267.769 87.872C267.872 88.1333 268.012 88.362 268.189 88.558C268.376 88.754 268.6 88.908 268.861 89.02C269.132 89.132 269.435 89.188 269.771 89.188C270.228 89.188 270.625 89.0807 270.961 88.866C271.306 88.6513 271.572 88.3433 271.759 87.942L272.557 88.516C272.324 89.0107 271.96 89.412 271.465 89.72C270.97 90.0187 270.382 90.168 269.701 90.168ZM269.701 83.546C269.393 83.546 269.113 83.602 268.861 83.714C268.609 83.8167 268.39 83.966 268.203 84.162C268.026 84.358 267.886 84.5913 267.783 84.862C267.68 85.1233 267.629 85.4127 267.629 85.73V85.828H271.619V85.674C271.619 85.03 271.442 84.5167 271.087 84.134C270.742 83.742 270.28 83.546 269.701 83.546Z" fill="#999999"/>
<path d="M244 59V75H243V59H244Z" fill="#E5E5E5"/>
<circle cx="243.5" cy="57.5" r="2" fill="#577A92" fill-opacity="0.04" stroke="#E5E5E5"/>
<path d="M337.918 81.768H337.848L337.022 83.406L334.684 87.662L332.346 83.406L331.52 81.768H331.45V90H330.302V80.228H331.87L334.67 85.492H334.74L337.554 80.228H339.066V90H337.918V81.768ZM346.801 90C346.381 90 346.078 89.888 345.891 89.664C345.714 89.44 345.602 89.16 345.555 88.824H345.485C345.327 89.272 345.065 89.608 344.701 89.832C344.337 90.056 343.903 90.168 343.399 90.168C342.634 90.168 342.037 89.972 341.607 89.58C341.187 89.188 340.977 88.656 340.977 87.984C340.977 87.3027 341.225 86.78 341.719 86.416C342.223 86.052 343.003 85.87 344.057 85.87H345.485V85.156C345.485 84.6427 345.345 84.2507 345.065 83.98C344.785 83.7093 344.356 83.574 343.777 83.574C343.339 83.574 342.97 83.672 342.671 83.868C342.382 84.064 342.139 84.3253 341.943 84.652L341.271 84.022C341.467 83.63 341.78 83.2987 342.209 83.028C342.639 82.748 343.18 82.608 343.833 82.608C344.711 82.608 345.392 82.8227 345.877 83.252C346.363 83.6813 346.605 84.2787 346.605 85.044V89.02H347.431V90H346.801ZM343.581 89.216C343.861 89.216 344.118 89.1833 344.351 89.118C344.585 89.0527 344.785 88.9593 344.953 88.838C345.121 88.7167 345.252 88.5767 345.345 88.418C345.439 88.2593 345.485 88.0867 345.485 87.9V86.71H344.001C343.357 86.71 342.886 86.8033 342.587 86.99C342.298 87.1767 342.153 87.4473 342.153 87.802V88.096C342.153 88.4507 342.279 88.726 342.531 88.922C342.793 89.118 343.143 89.216 343.581 89.216ZM349.03 90V82.776H350.15V84.106H350.22C350.351 83.7607 350.584 83.4527 350.92 83.182C351.256 82.9113 351.718 82.776 352.306 82.776H352.74V83.896H352.082C351.475 83.896 350.999 84.0127 350.654 84.246C350.318 84.47 350.15 84.7547 350.15 85.1V90H349.03ZM359.932 90.798C359.932 91.5447 359.638 92.0907 359.05 92.436C358.472 92.7907 357.599 92.968 356.432 92.968C355.303 92.968 354.491 92.814 353.996 92.506C353.502 92.198 353.254 91.7593 353.254 91.19C353.254 90.798 353.357 90.49 353.562 90.266C353.768 90.0513 354.048 89.8927 354.402 89.79V89.636C353.973 89.4307 353.758 89.0947 353.758 88.628C353.758 88.264 353.875 87.9887 354.108 87.802C354.342 87.606 354.64 87.4613 355.004 87.368V87.312C354.575 87.1067 354.239 86.8127 353.996 86.43C353.763 86.0473 353.646 85.604 353.646 85.1C353.646 84.736 353.712 84.4 353.842 84.092C353.973 83.784 354.155 83.5227 354.388 83.308C354.631 83.084 354.916 82.9113 355.242 82.79C355.578 82.6687 355.952 82.608 356.362 82.608C356.876 82.608 357.333 82.7013 357.734 82.888V82.762C357.734 82.482 357.8 82.2533 357.93 82.076C358.061 81.8893 358.276 81.796 358.574 81.796H359.652V82.776H358.28V83.238C358.542 83.462 358.742 83.7327 358.882 84.05C359.032 84.358 359.106 84.708 359.106 85.1C359.106 85.464 359.041 85.8 358.91 86.108C358.78 86.416 358.593 86.682 358.35 86.906C358.117 87.1207 357.832 87.2887 357.496 87.41C357.16 87.5313 356.787 87.592 356.376 87.592C356.143 87.592 355.91 87.5687 355.676 87.522C355.434 87.5873 355.214 87.6853 355.018 87.816C354.822 87.9373 354.724 88.11 354.724 88.334C354.724 88.5487 354.827 88.6933 355.032 88.768C355.238 88.8427 355.504 88.88 355.83 88.88H357.37C358.266 88.88 358.915 89.0527 359.316 89.398C359.727 89.734 359.932 90.2007 359.932 90.798ZM358.882 90.882C358.882 90.5927 358.77 90.3593 358.546 90.182C358.332 90.014 357.944 89.93 357.384 89.93H354.976C354.528 90.1353 354.304 90.462 354.304 90.91C354.304 91.2273 354.421 91.498 354.654 91.722C354.897 91.946 355.303 92.058 355.872 92.058H356.908C357.534 92.058 358.019 91.96 358.364 91.764C358.71 91.568 358.882 91.274 358.882 90.882ZM356.376 86.696C356.852 86.696 357.23 86.584 357.51 86.36C357.79 86.1267 357.93 85.772 357.93 85.296V84.904C357.93 84.428 357.79 84.078 357.51 83.854C357.23 83.6207 356.852 83.504 356.376 83.504C355.9 83.504 355.522 83.6207 355.242 83.854C354.962 84.078 354.822 84.428 354.822 84.904V85.296C354.822 85.772 354.962 86.1267 355.242 86.36C355.522 86.584 355.9 86.696 356.376 86.696ZM361.799 81.082C361.556 81.082 361.379 81.026 361.267 80.914C361.164 80.7927 361.113 80.6387 361.113 80.452V80.27C361.113 80.0833 361.164 79.934 361.267 79.822C361.379 79.7007 361.556 79.64 361.799 79.64C362.041 79.64 362.214 79.7007 362.317 79.822C362.429 79.934 362.485 80.0833 362.485 80.27V80.452C362.485 80.6387 362.429 80.7927 362.317 80.914C362.214 81.026 362.041 81.082 361.799 81.082ZM361.239 82.776H362.359V90H361.239V82.776ZM364.739 90V82.776H365.859V83.952H365.915C366.092 83.5413 366.339 83.2147 366.657 82.972C366.983 82.7293 367.417 82.608 367.959 82.608C368.705 82.608 369.293 82.8507 369.723 83.336C370.161 83.812 370.381 84.4887 370.381 85.366V90H369.261V85.562C369.261 84.2647 368.715 83.616 367.623 83.616C367.399 83.616 367.179 83.644 366.965 83.7C366.759 83.756 366.573 83.84 366.405 83.952C366.237 84.064 366.101 84.2087 365.999 84.386C365.905 84.554 365.859 84.7547 365.859 84.988V90H364.739Z" fill="#999999"/>
<path d="M351 59V75H350V59H351Z" fill="#E5E5E5"/>
<circle cx="350.5" cy="57.5" r="2" fill="#577A92" fill-opacity="0.04" stroke="#E5E5E5"/>
<path d="M24.746 90.168C23.5047 90.168 22.5387 89.748 21.848 88.908C21.1573 88.0587 20.812 86.8127 20.812 85.17C20.812 83.5273 21.1573 82.2673 21.848 81.39C22.5387 80.5033 23.5047 80.06 24.746 80.06C25.5673 80.06 26.2533 80.2467 26.804 80.62C27.364 80.9933 27.798 81.5207 28.106 82.202L27.154 82.776C26.958 82.272 26.6593 81.8707 26.258 81.572C25.8567 81.264 25.3527 81.11 24.746 81.11C24.326 81.11 23.948 81.1893 23.612 81.348C23.2853 81.5067 23.0053 81.7353 22.772 82.034C22.548 82.3233 22.3753 82.6733 22.254 83.084C22.1327 83.4853 22.072 83.938 22.072 84.442V85.898C22.072 86.906 22.3053 87.6947 22.772 88.264C23.2387 88.8333 23.8967 89.118 24.746 89.118C25.3713 89.118 25.894 88.9593 26.314 88.642C26.734 88.3153 27.042 87.886 27.238 87.354L28.176 87.942C27.868 88.6327 27.4247 89.1787 26.846 89.58C26.2673 89.972 25.5673 90.168 24.746 90.168ZM32.6153 90.168C32.13 90.168 31.6866 90.0793 31.2853 89.902C30.884 89.7247 30.5386 89.4727 30.2493 89.146C29.9693 88.81 29.75 88.4133 29.5913 87.956C29.4326 87.4893 29.3533 86.9667 29.3533 86.388C29.3533 85.8187 29.4326 85.3007 29.5913 84.834C29.75 84.3673 29.9693 83.9707 30.2493 83.644C30.5386 83.308 30.884 83.0513 31.2853 82.874C31.6866 82.6967 32.13 82.608 32.6153 82.608C33.1006 82.608 33.5393 82.6967 33.9313 82.874C34.3326 83.0513 34.678 83.308 34.9673 83.644C35.2566 83.9707 35.4806 84.3673 35.6393 84.834C35.798 85.3007 35.8773 85.8187 35.8773 86.388C35.8773 86.9667 35.798 87.4893 35.6393 87.956C35.4806 88.4133 35.2566 88.81 34.9673 89.146C34.678 89.4727 34.3326 89.7247 33.9313 89.902C33.5393 90.0793 33.1006 90.168 32.6153 90.168ZM32.6153 89.174C33.222 89.174 33.7166 88.9873 34.0993 88.614C34.482 88.2407 34.6733 87.6713 34.6733 86.906V85.87C34.6733 85.1047 34.482 84.5353 34.0993 84.162C33.7166 83.7887 33.222 83.602 32.6153 83.602C32.0086 83.602 31.514 83.7887 31.1313 84.162C30.7486 84.5353 30.5573 85.1047 30.5573 85.87V86.906C30.5573 87.6713 30.7486 88.2407 31.1313 88.614C31.514 88.9873 32.0086 89.174 32.6153 89.174ZM37.7193 90V82.776H38.8393V83.952H38.8953C39.0726 83.5413 39.32 83.2147 39.6373 82.972C39.964 82.7293 40.398 82.608 40.9393 82.608C41.686 82.608 42.274 82.8507 42.7033 83.336C43.142 83.812 43.3613 84.4887 43.3613 85.366V90H42.2413V85.562C42.2413 84.2647 41.6953 83.616 40.6033 83.616C40.3793 83.616 40.16 83.644 39.9453 83.7C39.74 83.756 39.5533 83.84 39.3853 83.952C39.2173 84.064 39.082 84.2087 38.9793 84.386C38.886 84.554 38.8393 84.7547 38.8393 84.988V90H37.7193ZM47.2723 90C46.8803 90 46.5817 89.8927 46.3763 89.678C46.1803 89.454 46.0823 89.1647 46.0823 88.81V83.756H44.8923V82.776H45.5643C45.807 82.776 45.9703 82.7293 46.0543 82.636C46.1477 82.5333 46.1943 82.3607 46.1943 82.118V80.774H47.2023V82.776H48.7843V83.756H47.2023V89.02H48.6723V90H47.2723ZM50.5845 90V82.776H51.7045V84.106H51.7745C51.9052 83.7607 52.1385 83.4527 52.4745 83.182C52.8105 82.9113 53.2725 82.776 53.8605 82.776H54.2945V83.896H53.6365C53.0299 83.896 52.5539 84.0127 52.2085 84.246C51.8725 84.47 51.7045 84.7547 51.7045 85.1V90H50.5845ZM60.9205 90C60.5005 90 60.1971 89.888 60.0105 89.664C59.8331 89.44 59.7211 89.16 59.6745 88.824H59.6045C59.4458 89.272 59.1845 89.608 58.8205 89.832C58.4565 90.056 58.0225 90.168 57.5185 90.168C56.7531 90.168 56.1558 89.972 55.7265 89.58C55.3065 89.188 55.0965 88.656 55.0965 87.984C55.0965 87.3027 55.3438 86.78 55.8385 86.416C56.3425 86.052 57.1218 85.87 58.1765 85.87H59.6045V85.156C59.6045 84.6427 59.4645 84.2507 59.1845 83.98C58.9045 83.7093 58.4751 83.574 57.8965 83.574C57.4578 83.574 57.0891 83.672 56.7905 83.868C56.5011 84.064 56.2585 84.3253 56.0625 84.652L55.3905 84.022C55.5865 83.63 55.8991 83.2987 56.3285 83.028C56.7578 82.748 57.2991 82.608 57.9525 82.608C58.8298 82.608 59.5111 82.8227 59.9965 83.252C60.4818 83.6813 60.7245 84.2787 60.7245 85.044V89.02H61.5505V90H60.9205ZM57.7005 89.216C57.9805 89.216 58.2371 89.1833 58.4705 89.118C58.7038 89.0527 58.9045 88.9593 59.0725 88.838C59.2405 88.7167 59.3711 88.5767 59.4645 88.418C59.5578 88.2593 59.6045 88.0867 59.6045 87.9V86.71H58.1205C57.4765 86.71 57.0051 86.8033 56.7065 86.99C56.4171 87.1767 56.2725 87.4473 56.2725 87.802V88.096C56.2725 88.4507 56.3985 88.726 56.6505 88.922C56.9118 89.118 57.2618 89.216 57.7005 89.216ZM65.837 90.168C65.333 90.168 64.8803 90.0793 64.479 89.902C64.0777 89.7247 63.737 89.4727 63.457 89.146C63.1863 88.8193 62.9763 88.4227 62.827 87.956C62.687 87.4893 62.617 86.9667 62.617 86.388C62.617 85.8093 62.687 85.2867 62.827 84.82C62.9763 84.3533 63.1863 83.9567 63.457 83.63C63.737 83.3033 64.0777 83.0513 64.479 82.874C64.8803 82.6967 65.333 82.608 65.837 82.608C66.5557 82.608 67.1297 82.7667 67.559 83.084C67.9977 83.392 68.3243 83.798 68.539 84.302L67.601 84.778C67.4703 84.4047 67.2557 84.1153 66.957 83.91C66.6583 83.7047 66.285 83.602 65.837 83.602C65.501 83.602 65.207 83.658 64.955 83.77C64.703 83.8727 64.493 84.022 64.325 84.218C64.157 84.4047 64.031 84.6333 63.947 84.904C63.863 85.1653 63.821 85.4547 63.821 85.772V87.004C63.821 87.6387 63.989 88.1613 64.325 88.572C64.6703 88.9733 65.1743 89.174 65.837 89.174C66.7423 89.174 67.3957 88.754 67.797 87.914L68.609 88.46C68.3757 88.9827 68.0257 89.398 67.559 89.706C67.1017 90.014 66.5277 90.168 65.837 90.168ZM71.786 90C71.394 90 71.0953 89.8927 70.89 89.678C70.694 89.454 70.596 89.1647 70.596 88.81V83.756H69.406V82.776H70.078C70.3207 82.776 70.484 82.7293 70.568 82.636C70.6613 82.5333 70.708 82.3607 70.708 82.118V80.774H71.716V82.776H73.298V83.756H71.716V89.02H73.186V90H71.786ZM80.5768 90.168C79.9048 90.168 79.3401 90.042 78.8828 89.79C78.4348 89.5287 78.0475 89.1833 77.7208 88.754L78.5188 88.11C78.7988 88.4647 79.1115 88.74 79.4568 88.936C79.8021 89.1227 80.2035 89.216 80.6608 89.216C81.1368 89.216 81.5055 89.1133 81.7668 88.908C82.0375 88.7027 82.1728 88.4133 82.1728 88.04C82.1728 87.76 82.0795 87.522 81.8928 87.326C81.7155 87.1207 81.3888 86.9807 80.9128 86.906L80.3388 86.822C80.0028 86.7753 79.6948 86.7053 79.4148 86.612C79.1348 86.5093 78.8875 86.3787 78.6728 86.22C78.4675 86.052 78.3041 85.8467 78.1828 85.604C78.0708 85.3613 78.0148 85.072 78.0148 84.736C78.0148 84.3813 78.0801 84.0733 78.2108 83.812C78.3415 83.5413 78.5188 83.3173 78.7428 83.14C78.9761 82.9627 79.2515 82.832 79.5688 82.748C79.8861 82.6547 80.2268 82.608 80.5908 82.608C81.1788 82.608 81.6688 82.7107 82.0608 82.916C82.4621 83.1213 82.8121 83.406 83.1108 83.77L82.3688 84.442C82.2101 84.218 81.9768 84.0173 81.6688 83.84C81.3608 83.6533 80.9735 83.56 80.5068 83.56C80.0401 83.56 79.6855 83.6627 79.4428 83.868C79.2095 84.064 79.0928 84.3347 79.0928 84.68C79.0928 85.0347 79.2095 85.2913 79.4428 85.45C79.6855 85.6087 80.0308 85.7253 80.4788 85.8L81.0388 85.884C81.8415 86.0053 82.4108 86.2387 82.7468 86.584C83.0828 86.92 83.2508 87.3633 83.2508 87.914C83.2508 88.614 83.0128 89.1647 82.5368 89.566C82.0608 89.9673 81.4075 90.168 80.5768 90.168ZM85.7891 81.082C85.5464 81.082 85.3691 81.026 85.2571 80.914C85.1544 80.7927 85.1031 80.6387 85.1031 80.452V80.27C85.1031 80.0833 85.1544 79.934 85.2571 79.822C85.3691 79.7007 85.5464 79.64 85.7891 79.64C86.0317 79.64 86.2044 79.7007 86.3071 79.822C86.4191 79.934 86.4751 80.0833 86.4751 80.27V80.452C86.4751 80.6387 86.4191 80.7927 86.3071 80.914C86.2044 81.026 86.0317 81.082 85.7891 81.082ZM85.2291 82.776H86.3491V90H85.2291V82.776ZM88.0011 90V89.062L92.1031 83.756H88.1271V82.776H93.4611V83.616L89.2751 89.02H93.5731V90H88.0011ZM97.8025 90.168C97.3078 90.168 96.8598 90.0793 96.4585 89.902C96.0665 89.7247 95.7258 89.4727 95.4365 89.146C95.1565 88.81 94.9372 88.4133 94.7785 87.956C94.6292 87.4893 94.5545 86.9667 94.5545 86.388C94.5545 85.8187 94.6292 85.3007 94.7785 84.834C94.9372 84.3673 95.1565 83.9707 95.4365 83.644C95.7258 83.308 96.0665 83.0513 96.4585 82.874C96.8598 82.6967 97.3078 82.608 97.8025 82.608C98.2878 82.608 98.7218 82.6967 99.1045 82.874C99.4872 83.0513 99.8138 83.2987 100.084 83.616C100.355 83.924 100.56 84.2927 100.7 84.722C100.85 85.1513 100.924 85.6227 100.924 86.136V86.668H95.7305V87.004C95.7305 87.312 95.7772 87.6013 95.8705 87.872C95.9732 88.1333 96.1132 88.362 96.2905 88.558C96.4772 88.754 96.7012 88.908 96.9625 89.02C97.2332 89.132 97.5365 89.188 97.8725 89.188C98.3298 89.188 98.7265 89.0807 99.0625 88.866C99.4078 88.6513 99.6738 88.3433 99.8605 87.942L100.658 88.516C100.425 89.0107 100.061 89.412 99.5665 89.72C99.0718 90.0187 98.4838 90.168 97.8025 90.168ZM97.8025 83.546C97.4945 83.546 97.2145 83.602 96.9625 83.714C96.7105 83.8167 96.4912 83.966 96.3045 84.162C96.1272 84.358 95.9872 84.5913 95.8845 84.862C95.7818 85.1233 95.7305 85.4127 95.7305 85.73V85.828H99.7205V85.674C99.7205 85.03 99.5432 84.5167 99.1885 84.134C98.8432 83.742 98.3812 83.546 97.8025 83.546Z" fill="#999999"/>
<path d="M58 59V75H57V59H58Z" fill="#E5E5E5"/>
<circle cx="57.5" cy="57.5" r="2" fill="#577A92" fill-opacity="0.04" stroke="#E5E5E5"/>
<path d="M133.528 90L130.28 80.228H131.54L133.15 85.156L134.228 88.824H134.298L135.404 85.156L137.028 80.228H138.246L134.956 90H133.528ZM142.027 90.168C141.542 90.168 141.099 90.0793 140.697 89.902C140.296 89.7247 139.951 89.4727 139.661 89.146C139.381 88.81 139.162 88.4133 139.003 87.956C138.845 87.4893 138.765 86.9667 138.765 86.388C138.765 85.8187 138.845 85.3007 139.003 84.834C139.162 84.3673 139.381 83.9707 139.661 83.644C139.951 83.308 140.296 83.0513 140.697 82.874C141.099 82.6967 141.542 82.608 142.027 82.608C142.513 82.608 142.951 82.6967 143.343 82.874C143.745 83.0513 144.09 83.308 144.379 83.644C144.669 83.9707 144.893 84.3673 145.051 84.834C145.21 85.3007 145.289 85.8187 145.289 86.388C145.289 86.9667 145.21 87.4893 145.051 87.956C144.893 88.4133 144.669 88.81 144.379 89.146C144.09 89.4727 143.745 89.7247 143.343 89.902C142.951 90.0793 142.513 90.168 142.027 90.168ZM142.027 89.174C142.634 89.174 143.129 88.9873 143.511 88.614C143.894 88.2407 144.085 87.6713 144.085 86.906V85.87C144.085 85.1047 143.894 84.5353 143.511 84.162C143.129 83.7887 142.634 83.602 142.027 83.602C141.421 83.602 140.926 83.7887 140.543 84.162C140.161 84.5353 139.969 85.1047 139.969 85.87V86.906C139.969 87.6713 140.161 88.2407 140.543 88.614C140.926 88.9873 141.421 89.174 142.027 89.174ZM148.321 90C147.929 90 147.631 89.8927 147.425 89.678C147.229 89.454 147.131 89.174 147.131 88.838V79.64H148.251V89.02H149.315V90H148.321ZM155.398 88.824H155.342C155.267 88.992 155.174 89.16 155.062 89.328C154.959 89.4867 154.829 89.6313 154.67 89.762C154.511 89.8833 154.32 89.9813 154.096 90.056C153.872 90.1307 153.611 90.168 153.312 90.168C152.565 90.168 151.973 89.93 151.534 89.454C151.095 88.9687 150.876 88.2873 150.876 87.41V82.776H151.996V87.214C151.996 88.5113 152.547 89.16 153.648 89.16C153.872 89.16 154.087 89.132 154.292 89.076C154.507 89.02 154.693 88.936 154.852 88.824C155.02 88.712 155.151 88.572 155.244 88.404C155.347 88.2267 155.398 88.0167 155.398 87.774V82.776H156.518V90H155.398V88.824ZM158.903 90V82.776H160.023V83.952H160.079C160.163 83.7653 160.256 83.5927 160.359 83.434C160.471 83.266 160.602 83.1213 160.751 83C160.91 82.8787 161.092 82.7853 161.297 82.72C161.502 82.6453 161.745 82.608 162.025 82.608C162.501 82.608 162.94 82.7247 163.341 82.958C163.742 83.182 164.041 83.5553 164.237 84.078H164.265C164.396 83.686 164.638 83.3453 164.993 83.056C165.357 82.7573 165.847 82.608 166.463 82.608C167.2 82.608 167.774 82.8507 168.185 83.336C168.605 83.812 168.815 84.4887 168.815 85.366V90H167.695V85.562C167.695 84.918 167.569 84.4327 167.317 84.106C167.065 83.7793 166.664 83.616 166.113 83.616C165.889 83.616 165.674 83.644 165.469 83.7C165.273 83.756 165.096 83.84 164.937 83.952C164.778 84.064 164.652 84.2087 164.559 84.386C164.466 84.554 164.419 84.7547 164.419 84.988V90H163.299V85.562C163.299 84.918 163.173 84.4327 162.921 84.106C162.669 83.7793 162.277 83.616 161.745 83.616C161.521 83.616 161.306 83.644 161.101 83.7C160.896 83.756 160.714 83.84 160.555 83.952C160.396 84.064 160.266 84.2087 160.163 84.386C160.07 84.554 160.023 84.7547 160.023 84.988V90H158.903ZM173.842 90.168C173.347 90.168 172.899 90.0793 172.498 89.902C172.106 89.7247 171.765 89.4727 171.476 89.146C171.196 88.81 170.976 88.4133 170.818 87.956C170.668 87.4893 170.594 86.9667 170.594 86.388C170.594 85.8187 170.668 85.3007 170.818 84.834C170.976 84.3673 171.196 83.9707 171.476 83.644C171.765 83.308 172.106 83.0513 172.498 82.874C172.899 82.6967 173.347 82.608 173.842 82.608C174.327 82.608 174.761 82.6967 175.144 82.874C175.526 83.0513 175.853 83.2987 176.124 83.616C176.394 83.924 176.6 84.2927 176.74 84.722C176.889 85.1513 176.964 85.6227 176.964 86.136V86.668H171.77V87.004C171.77 87.312 171.816 87.6013 171.91 87.872C172.012 88.1333 172.152 88.362 172.33 88.558C172.516 88.754 172.74 88.908 173.002 89.02C173.272 89.132 173.576 89.188 173.912 89.188C174.369 89.188 174.766 89.0807 175.102 88.866C175.447 88.6513 175.713 88.3433 175.9 87.942L176.698 88.516C176.464 89.0107 176.1 89.412 175.606 89.72C175.111 90.0187 174.523 90.168 173.842 90.168ZM173.842 83.546C173.534 83.546 173.254 83.602 173.002 83.714C172.75 83.8167 172.53 83.966 172.344 84.162C172.166 84.358 172.026 84.5913 171.924 84.862C171.821 85.1233 171.77 85.4127 171.77 85.73V85.828H175.76V85.674C175.76 85.03 175.582 84.5167 175.228 84.134C174.882 83.742 174.42 83.546 173.842 83.546Z" fill="#999999"/>
<path d="M156 59V75H155V59H156Z" fill="#E5E5E5"/>
<circle cx="155.5" cy="57.5" r="2" fill="#577A92" fill-opacity="0.04" stroke="#E5E5E5"/>
</svg>
