<svg width="8" height="8" viewBox="0 0 8 8" fill="none" xmlns="http://www.w3.org/2000/svg">
<path d="M4 0C6.20914 0 8 1.79086 8 4C8 6.20914 6.20914 8 4 8C1.79086 8 0 6.20914 0 4C0 1.79086 1.79086 0 4 0ZM4 0.5C2.067 0.5 0.5 2.067 0.5 4C0.5 5.933 2.067 7.5 4 7.5C5.933 7.5 7.5 5.933 7.5 4C7.5 2.067 5.933 0.5 4 0.5ZM4 3.5C4.13807 3.5 4.25 3.61193 4.25 3.75V5.75C4.25 5.88807 4.13807 6 4 6C3.86193 6 3.75 5.88807 3.75 5.75V3.75C3.75 3.61193 3.86193 3.5 4 3.5ZM4 2.25C4.20711 2.25 4.375 2.41789 4.375 2.625C4.375 2.83211 4.20711 3 4 3C3.79289 3 3.625 2.83211 3.625 2.625C3.625 2.41789 3.79289 2.25 4 2.25Z" fill="#333333"/>
</svg>
