<svg width="411" height="115" viewBox="0 0 411 115" fill="none" xmlns="http://www.w3.org/2000/svg">
<rect x="1" y="0.87793" width="409" height="113" rx="8" fill="white" stroke="#E5E5E5"/>
<path d="M12.232 39.8779V38.8419H14.962V30.9739H14.864L12.4 33.2699L11.714 32.5279L14.304 30.1059H16.138V38.8419H18.658V39.8779H12.232ZM26.8565 33.6899C26.8565 34.4179 26.7492 35.1039 26.5345 35.7479C26.3199 36.3826 26.0399 36.9659 25.6945 37.4979C25.3585 38.0206 24.9852 38.4873 24.5745 38.8979C24.1639 39.2993 23.7625 39.6259 23.3705 39.8779H21.8585C22.3812 39.4953 22.8479 39.1219 23.2585 38.7579C23.6692 38.3939 24.0285 38.0159 24.3365 37.6239C24.6445 37.2226 24.9059 36.7979 25.1205 36.3499C25.3352 35.8926 25.5079 35.3793 25.6385 34.8099L25.5685 34.7819C25.3352 35.1833 25.0319 35.5193 24.6585 35.7899C24.2945 36.0513 23.8139 36.1819 23.2165 36.1819C22.7965 36.1819 22.4092 36.1119 22.0545 35.9719C21.6999 35.8319 21.3965 35.6313 21.1445 35.3699C20.8925 35.1086 20.6919 34.7959 20.5425 34.4319C20.4025 34.0586 20.3325 33.6386 20.3325 33.1719C20.3325 32.6959 20.4072 32.2619 20.5565 31.8699C20.7152 31.4686 20.9345 31.1279 21.2145 30.8479C21.5039 30.5586 21.8445 30.3346 22.2365 30.1759C22.6379 30.0173 23.0859 29.9379 23.5805 29.9379C24.0845 29.9379 24.5372 30.0266 24.9385 30.2039C25.3492 30.3719 25.6945 30.6193 25.9745 30.9459C26.2639 31.2633 26.4832 31.6553 26.6325 32.1219C26.7819 32.5886 26.8565 33.1113 26.8565 33.6899ZM23.5945 35.1879C24.2385 35.1879 24.7379 35.0106 25.0925 34.6559C25.4565 34.3013 25.6385 33.7926 25.6385 33.1299V33.0179C25.6385 32.3553 25.4565 31.8466 25.0925 31.4919C24.7379 31.1373 24.2385 30.9599 23.5945 30.9599C22.9505 30.9599 22.4465 31.1373 22.0825 31.4919C21.7279 31.8466 21.5505 32.3553 21.5505 33.0179V33.1299C21.5505 33.7926 21.7279 34.3013 22.0825 34.6559C22.4465 35.0106 22.9505 35.1879 23.5945 35.1879ZM29.0211 39.8779V38.8419H31.7511V30.9739H31.6531L29.1891 33.2699L28.5031 32.5279L31.0931 30.1059H32.9271V38.8419H35.4471V39.8779H29.0211ZM38.0876 40.0459C37.7889 40.0459 37.5696 39.9713 37.4296 39.8219C37.2989 39.6726 37.2336 39.4766 37.2336 39.2339V39.0519C37.2336 38.8093 37.2989 38.6133 37.4296 38.4639C37.5696 38.3146 37.7889 38.2399 38.0876 38.2399C38.3863 38.2399 38.6009 38.3146 38.7316 38.4639C38.8716 38.6133 38.9416 38.8093 38.9416 39.0519V39.2339C38.9416 39.4766 38.8716 39.6726 38.7316 39.8219C38.6009 39.9713 38.3863 40.0459 38.0876 40.0459ZM44.212 40.0459C43.708 40.0459 43.2507 39.9619 42.84 39.7939C42.4387 39.6166 42.0934 39.3693 41.804 39.0519C41.524 38.7253 41.3094 38.3286 41.16 37.8619C41.0107 37.3953 40.936 36.8726 40.936 36.2939C40.936 35.5659 41.0434 34.8846 41.258 34.2499C41.4727 33.6059 41.748 33.0226 42.084 32.4999C42.4294 31.9679 42.8074 31.5013 43.218 31.0999C43.6287 30.6893 44.03 30.3579 44.422 30.1059H45.934C45.4114 30.4886 44.9447 30.8619 44.534 31.2259C44.1234 31.5899 43.764 31.9726 43.456 32.3739C43.148 32.7659 42.8867 33.1906 42.672 33.6479C42.4574 34.0959 42.2847 34.6046 42.154 35.1739L42.224 35.2019C42.4574 34.8006 42.756 34.4693 43.12 34.2079C43.4934 33.9373 43.9787 33.8019 44.576 33.8019C44.996 33.8019 45.3834 33.8719 45.738 34.0119C46.0927 34.1519 46.396 34.3526 46.648 34.6139C46.9 34.8753 47.096 35.1926 47.236 35.5659C47.3854 35.9393 47.46 36.3546 47.46 36.8119C47.46 37.2879 47.3807 37.7266 47.222 38.1279C47.0727 38.5199 46.8534 38.8606 46.564 39.1499C46.284 39.4299 45.9434 39.6493 45.542 39.8079C45.1407 39.9666 44.6974 40.0459 44.212 40.0459ZM44.198 39.0239C44.842 39.0239 45.3414 38.8466 45.696 38.4919C46.06 38.1373 46.242 37.6286 46.242 36.9659V36.8539C46.242 36.1913 46.06 35.6826 45.696 35.3279C45.3414 34.9733 44.842 34.7959 44.198 34.7959C43.554 34.7959 43.05 34.9733 42.686 35.3279C42.3314 35.6826 42.154 36.1913 42.154 36.8539V36.9659C42.154 37.6286 42.3314 38.1373 42.686 38.4919C43.05 38.8466 43.554 39.0239 44.198 39.0239ZM50.8426 39.8779L54.5806 31.1139H50.4086V32.9339H49.3586V30.1059H55.7706V31.1419L52.1026 39.8779H50.8426Z" fill="#414652"/>
<path d="M84.668 39.0099V36.0839H81.938V35.1319H84.668V32.2059H85.732V35.1319H88.462V36.0839H85.732V39.0099H84.668Z" fill="#414652"/>
<path d="M121.462 39.8779H115.05V38.6739L118.242 35.7339C118.699 35.3139 119.082 34.8706 119.39 34.4039C119.698 33.9279 119.852 33.4519 119.852 32.9759V32.8079C119.852 32.2666 119.703 31.8279 119.404 31.4919C119.105 31.1559 118.653 30.9879 118.046 30.9879C117.747 30.9879 117.486 31.0299 117.262 31.1139C117.038 31.1979 116.842 31.3146 116.674 31.4639C116.515 31.6133 116.38 31.7906 116.268 31.9959C116.165 32.1919 116.081 32.4066 116.016 32.6399L114.966 32.2339C115.059 31.9446 115.185 31.6646 115.344 31.3939C115.512 31.1139 115.717 30.8666 115.96 30.6519C116.212 30.4373 116.511 30.2646 116.856 30.1339C117.211 30.0033 117.626 29.9379 118.102 29.9379C118.578 29.9379 119.003 30.0079 119.376 30.1479C119.749 30.2879 120.062 30.4839 120.314 30.7359C120.566 30.9879 120.757 31.2866 120.888 31.6319C121.028 31.9773 121.098 32.3599 121.098 32.7799C121.098 33.1626 121.042 33.5173 120.93 33.8439C120.827 34.1706 120.683 34.4833 120.496 34.7819C120.309 35.0713 120.081 35.3559 119.81 35.6359C119.549 35.9159 119.264 36.1959 118.956 36.4759L116.324 38.8419H121.462V39.8779ZM124.299 38.2399C124.597 38.2399 124.812 38.3193 124.943 38.4779C125.083 38.6273 125.153 38.8233 125.153 39.0659V39.2619C125.153 39.6446 125.041 40.0646 124.817 40.5219C124.593 40.9886 124.28 41.3946 123.879 41.7399H122.941C123.221 41.4413 123.445 41.1566 123.613 40.8859C123.79 40.6246 123.916 40.3306 123.991 40.0039C123.804 39.9573 123.664 39.8686 123.571 39.7379C123.487 39.6073 123.445 39.4486 123.445 39.2619V39.0659C123.445 38.8233 123.51 38.6273 123.641 38.4779C123.781 38.3193 124 38.2399 124.299 38.2399ZM133.181 31.1419H128.897L128.617 34.8659H128.715C128.948 34.5393 129.21 34.2779 129.499 34.0819C129.798 33.8859 130.204 33.7879 130.717 33.7879C131.137 33.7879 131.524 33.8579 131.879 33.9979C132.234 34.1379 132.542 34.3386 132.803 34.5999C133.064 34.8519 133.265 35.1646 133.405 35.5379C133.554 35.9113 133.629 36.3359 133.629 36.8119C133.629 37.2879 133.554 37.7266 133.405 38.1279C133.256 38.5199 133.036 38.8606 132.747 39.1499C132.467 39.4299 132.122 39.6493 131.711 39.8079C131.31 39.9666 130.852 40.0459 130.339 40.0459C129.928 40.0459 129.564 39.9993 129.247 39.9059C128.939 39.8126 128.664 39.6866 128.421 39.5279C128.178 39.3693 127.964 39.1919 127.777 38.9959C127.6 38.7999 127.436 38.5946 127.287 38.3799L128.169 37.7079C128.29 37.9039 128.416 38.0813 128.547 38.2399C128.687 38.3986 128.836 38.5339 128.995 38.6459C129.163 38.7579 129.354 38.8466 129.569 38.9119C129.784 38.9679 130.04 38.9959 130.339 38.9959C131.011 38.9959 131.52 38.8186 131.865 38.4639C132.21 38.1093 132.383 37.6099 132.383 36.9659V36.8259C132.383 36.1819 132.21 35.6826 131.865 35.3279C131.52 34.9733 131.011 34.7959 130.339 34.7959C129.891 34.7959 129.536 34.8799 129.275 35.0479C129.023 35.2066 128.794 35.3979 128.589 35.6219L127.595 35.4819L127.945 30.1059H133.181V31.1419ZM138.804 40.0459C138.244 40.0459 137.754 39.9759 137.334 39.8359C136.914 39.6866 136.559 39.4859 136.27 39.2339C135.99 38.9819 135.775 38.6833 135.626 38.3379C135.486 37.9926 135.416 37.6193 135.416 37.2179C135.416 36.5459 135.598 36.0139 135.962 35.6219C136.326 35.2299 136.802 34.9546 137.39 34.7959V34.6839C136.876 34.5066 136.466 34.2219 136.158 33.8299C135.859 33.4286 135.71 32.9479 135.71 32.3879C135.71 31.6413 135.98 31.0486 136.522 30.6099C137.063 30.1619 137.824 29.9379 138.804 29.9379C139.784 29.9379 140.544 30.1619 141.086 30.6099C141.627 31.0486 141.898 31.6413 141.898 32.3879C141.898 32.9479 141.744 33.4286 141.436 33.8299C141.137 34.2219 140.731 34.5066 140.218 34.6839V34.7959C140.806 34.9546 141.282 35.2299 141.646 35.6219C142.01 36.0139 142.192 36.5459 142.192 37.2179C142.192 37.6193 142.117 37.9926 141.968 38.3379C141.828 38.6833 141.613 38.9819 141.324 39.2339C141.044 39.4859 140.694 39.6866 140.274 39.8359C139.854 39.9759 139.364 40.0459 138.804 40.0459ZM138.804 39.0239C139.485 39.0239 140.012 38.8746 140.386 38.5759C140.759 38.2679 140.946 37.8339 140.946 37.2739V36.9799C140.946 36.4199 140.759 35.9906 140.386 35.6919C140.012 35.3839 139.485 35.2299 138.804 35.2299C138.122 35.2299 137.595 35.3839 137.222 35.6919C136.848 35.9906 136.662 36.4199 136.662 36.9799V37.2739C136.662 37.8339 136.848 38.2679 137.222 38.5759C137.595 38.8746 138.122 39.0239 138.804 39.0239ZM138.804 34.2499C139.42 34.2499 139.886 34.1193 140.204 33.8579C140.521 33.5966 140.68 33.2139 140.68 32.7099V32.4999C140.68 31.9959 140.521 31.6133 140.204 31.3519C139.886 31.0906 139.42 30.9599 138.804 30.9599C138.188 30.9599 137.721 31.0906 137.404 31.3519C137.086 31.6133 136.928 31.9959 136.928 32.4999V32.7099C136.928 33.2139 137.086 33.5966 137.404 33.8579C137.721 34.1193 138.188 34.2499 138.804 34.2499ZM145.448 39.8779L149.186 31.1139H145.014V32.9339H143.964V30.1059H150.376V31.1419L146.708 39.8779H145.448ZM153.297 40.0459C152.998 40.0459 152.779 39.9713 152.639 39.8219C152.508 39.6726 152.443 39.4766 152.443 39.2339V39.0519C152.443 38.8093 152.508 38.6133 152.639 38.4639C152.779 38.3146 152.998 38.2399 153.297 38.2399C153.595 38.2399 153.81 38.3146 153.941 38.4639C154.081 38.6133 154.151 38.8093 154.151 39.0519V39.2339C154.151 39.4766 154.081 39.6726 153.941 39.8219C153.81 39.9713 153.595 40.0459 153.297 40.0459ZM162.179 31.1419H157.895L157.615 34.8659H157.713C157.946 34.5393 158.208 34.2779 158.497 34.0819C158.796 33.8859 159.202 33.7879 159.715 33.7879C160.135 33.7879 160.522 33.8579 160.877 33.9979C161.232 34.1379 161.54 34.3386 161.801 34.5999C162.062 34.8519 162.263 35.1646 162.403 35.5379C162.552 35.9113 162.627 36.3359 162.627 36.8119C162.627 37.2879 162.552 37.7266 162.403 38.1279C162.254 38.5199 162.034 38.8606 161.745 39.1499C161.465 39.4299 161.12 39.6493 160.709 39.8079C160.308 39.9666 159.85 40.0459 159.337 40.0459C158.926 40.0459 158.562 39.9993 158.245 39.9059C157.937 39.8126 157.662 39.6866 157.419 39.5279C157.176 39.3693 156.962 39.1919 156.775 38.9959C156.598 38.7999 156.434 38.5946 156.285 38.3799L157.167 37.7079C157.288 37.9039 157.414 38.0813 157.545 38.2399C157.685 38.3986 157.834 38.5339 157.993 38.6459C158.161 38.7579 158.352 38.8466 158.567 38.9119C158.782 38.9679 159.038 38.9959 159.337 38.9959C160.009 38.9959 160.518 38.8186 160.863 38.4639C161.208 38.1093 161.381 37.6099 161.381 36.9659V36.8259C161.381 36.1819 161.208 35.6826 160.863 35.3279C160.518 34.9733 160.009 34.7959 159.337 34.7959C158.889 34.7959 158.534 34.8799 158.273 35.0479C158.021 35.2066 157.792 35.3979 157.587 35.6219L156.593 35.4819L156.943 30.1059H162.179V31.1419ZM167.802 40.0459C166.635 40.0459 165.781 39.6026 165.24 38.7159C164.708 37.8293 164.442 36.5879 164.442 34.9919C164.442 33.3959 164.708 32.1546 165.24 31.2679C165.781 30.3813 166.635 29.9379 167.802 29.9379C168.968 29.9379 169.818 30.3813 170.35 31.2679C170.891 32.1546 171.162 33.3959 171.162 34.9919C171.162 36.5879 170.891 37.8293 170.35 38.7159C169.818 39.6026 168.968 40.0459 167.802 40.0459ZM167.802 39.0239C168.184 39.0239 168.511 38.9446 168.782 38.7859C169.052 38.6273 169.272 38.4033 169.44 38.1139C169.608 37.8246 169.729 37.4839 169.804 37.0919C169.888 36.6999 169.93 36.2659 169.93 35.7899V34.1939C169.93 33.7179 169.888 33.2839 169.804 32.8919C169.729 32.4999 169.608 32.1593 169.44 31.8699C169.272 31.5806 169.052 31.3566 168.782 31.1979C168.511 31.0393 168.184 30.9599 167.802 30.9599C167.419 30.9599 167.092 31.0393 166.822 31.1979C166.551 31.3566 166.332 31.5806 166.164 31.8699C165.996 32.1593 165.87 32.4999 165.786 32.8919C165.711 33.2839 165.674 33.7179 165.674 34.1939V35.7899C165.674 36.2659 165.711 36.6999 165.786 37.0919C165.87 37.4839 165.996 37.8246 166.164 38.1139C166.332 38.4033 166.551 38.6273 166.822 38.7859C167.092 38.9446 167.419 39.0239 167.802 39.0239Z" fill="#414652"/>
<path d="M199.971 39.0099V36.0839H197.241V35.1319H199.971V32.2059H201.035V35.1319H203.765V36.0839H201.035V39.0099H199.971Z" fill="#414652"/>
<path d="M241.776 31.1419H237.492L237.212 34.8659H237.31C237.543 34.5393 237.804 34.2779 238.094 34.0819C238.392 33.8859 238.798 33.7879 239.312 33.7879C239.732 33.7879 240.119 33.8579 240.474 33.9979C240.828 34.1379 241.136 34.3386 241.398 34.5999C241.659 34.8519 241.86 35.1646 242 35.5379C242.149 35.9113 242.224 36.3359 242.224 36.8119C242.224 37.2879 242.149 37.7266 242 38.1279C241.85 38.5199 241.631 38.8606 241.342 39.1499C241.062 39.4299 240.716 39.6493 240.306 39.8079C239.904 39.9666 239.447 40.0459 238.934 40.0459C238.523 40.0459 238.159 39.9993 237.842 39.9059C237.534 39.8126 237.258 39.6866 237.016 39.5279C236.773 39.3693 236.558 39.1919 236.372 38.9959C236.194 38.7999 236.031 38.5946 235.882 38.3799L236.764 37.7079C236.885 37.9039 237.011 38.0813 237.142 38.2399C237.282 38.3986 237.431 38.5339 237.59 38.6459C237.758 38.7579 237.949 38.8466 238.164 38.9119C238.378 38.9679 238.635 38.9959 238.934 38.9959C239.606 38.9959 240.114 38.8186 240.46 38.4639C240.805 38.1093 240.978 37.6099 240.978 36.9659V36.8259C240.978 36.1819 240.805 35.6826 240.46 35.3279C240.114 34.9733 239.606 34.7959 238.934 34.7959C238.486 34.7959 238.131 34.8799 237.87 35.0479C237.618 35.2066 237.389 35.3979 237.184 35.6219L236.19 35.4819L236.54 30.1059H241.776V31.1419ZM245.102 38.2399C245.401 38.2399 245.616 38.3193 245.746 38.4779C245.886 38.6273 245.956 38.8233 245.956 39.0659V39.2619C245.956 39.6446 245.844 40.0646 245.62 40.5219C245.396 40.9886 245.084 41.3946 244.682 41.7399H243.744C244.024 41.4413 244.248 41.1566 244.416 40.8859C244.594 40.6246 244.72 40.3306 244.794 40.0039C244.608 39.9573 244.468 39.8686 244.374 39.7379C244.29 39.6073 244.248 39.4486 244.248 39.2619V39.0659C244.248 38.8233 244.314 38.6273 244.444 38.4779C244.584 38.3193 244.804 38.2399 245.102 38.2399ZM249.463 39.8779L253.201 31.1139H249.029V32.9339H247.979V30.1059H254.391V31.1419L250.723 39.8779H249.463ZM262.379 31.1419H258.095L257.815 34.8659H257.913C258.147 34.5393 258.408 34.2779 258.697 34.0819C258.996 33.8859 259.402 33.7879 259.915 33.7879C260.335 33.7879 260.723 33.8579 261.077 33.9979C261.432 34.1379 261.74 34.3386 262.001 34.5999C262.263 34.8519 262.463 35.1646 262.603 35.5379C262.753 35.9113 262.827 36.3359 262.827 36.8119C262.827 37.2879 262.753 37.7266 262.603 38.1279C262.454 38.5199 262.235 38.8606 261.945 39.1499C261.665 39.4299 261.32 39.6493 260.909 39.8079C260.508 39.9666 260.051 40.0459 259.537 40.0459C259.127 40.0459 258.763 39.9993 258.445 39.9059C258.137 39.8126 257.862 39.6866 257.619 39.5279C257.377 39.3693 257.162 39.1919 256.975 38.9959C256.798 38.7999 256.635 38.5946 256.485 38.3799L257.367 37.7079C257.489 37.9039 257.615 38.0813 257.745 38.2399C257.885 38.3986 258.035 38.5339 258.193 38.6459C258.361 38.7579 258.553 38.8466 258.767 38.9119C258.982 38.9679 259.239 38.9959 259.537 38.9959C260.209 38.9959 260.718 38.8186 261.063 38.4639C261.409 38.1093 261.581 37.6099 261.581 36.9659V36.8259C261.581 36.1819 261.409 35.6826 261.063 35.3279C260.718 34.9733 260.209 34.7959 259.537 34.7959C259.089 34.7959 258.735 34.8799 258.473 35.0479C258.221 35.2066 257.993 35.3979 257.787 35.6219L256.793 35.4819L257.143 30.1059H262.379V31.1419ZM268.002 40.0459C266.835 40.0459 265.981 39.6026 265.44 38.7159C264.908 37.8293 264.642 36.5879 264.642 34.9919C264.642 33.3959 264.908 32.1546 265.44 31.2679C265.981 30.3813 266.835 29.9379 268.002 29.9379C269.168 29.9379 270.018 30.3813 270.55 31.2679C271.091 32.1546 271.362 33.3959 271.362 34.9919C271.362 36.5879 271.091 37.8293 270.55 38.7159C270.018 39.6026 269.168 40.0459 268.002 40.0459ZM268.002 39.0239C268.384 39.0239 268.711 38.9446 268.982 38.7859C269.252 38.6273 269.472 38.4033 269.64 38.1139C269.808 37.8246 269.929 37.4839 270.004 37.0919C270.088 36.6999 270.13 36.2659 270.13 35.7899V34.1939C270.13 33.7179 270.088 33.2839 270.004 32.8919C269.929 32.4999 269.808 32.1593 269.64 31.8699C269.472 31.5806 269.252 31.3566 268.982 31.1979C268.711 31.0393 268.384 30.9599 268.002 30.9599C267.619 30.9599 267.292 31.0393 267.022 31.1979C266.751 31.3566 266.532 31.5806 266.364 31.8699C266.196 32.1593 266.07 32.4999 265.986 32.8919C265.911 33.2839 265.874 33.7179 265.874 34.1939V35.7899C265.874 36.2659 265.911 36.6999 265.986 37.0919C266.07 37.4839 266.196 37.8246 266.364 38.1139C266.532 38.4033 266.751 38.6273 267.022 38.7859C267.292 38.9446 267.619 39.0239 268.002 39.0239Z" fill="#414652"/>
<path d="M303.241 34.6699V33.7179H309.765V34.6699H303.241ZM303.241 37.4699V36.5179H309.765V37.4699H303.241Z" fill="#414652"/>
<path d="M339.098 41.0259V39.8779C338.389 39.8313 337.787 39.6586 337.292 39.3599C336.807 39.0519 336.392 38.6693 336.046 38.2119L336.872 37.4699C337.171 37.8713 337.498 38.1933 337.852 38.4359C338.216 38.6693 338.636 38.8186 339.112 38.8839V35.2859C338.151 35.0713 337.446 34.7586 336.998 34.3479C336.56 33.9279 336.34 33.3539 336.34 32.6259C336.34 32.2526 336.406 31.9213 336.536 31.6319C336.676 31.3333 336.868 31.0766 337.11 30.8619C337.353 30.6473 337.642 30.4793 337.978 30.3579C338.314 30.2273 338.688 30.1433 339.098 30.1059V28.9579H339.966V30.0919C340.601 30.1479 341.147 30.3113 341.604 30.5819C342.071 30.8433 342.472 31.2073 342.808 31.6739L341.954 32.3179C341.721 31.9913 341.441 31.7253 341.114 31.5199C340.788 31.3053 340.4 31.1653 339.952 31.0999V34.3759L340.078 34.4039C341.049 34.6186 341.754 34.9359 342.192 35.3559C342.64 35.7666 342.864 36.3406 342.864 37.0779C342.864 37.8806 342.603 38.5293 342.08 39.0239C341.567 39.5093 340.862 39.7939 339.966 39.8779V41.0259H339.098ZM341.758 37.1479C341.758 36.6719 341.618 36.3079 341.338 36.0559C341.068 35.8039 340.606 35.5986 339.952 35.4399V38.8839C340.512 38.8093 340.951 38.6226 341.268 38.3239C341.595 38.0159 341.758 37.6239 341.758 37.1479ZM337.446 32.5419C337.446 33.0179 337.582 33.3773 337.852 33.6199C338.132 33.8533 338.552 34.0446 339.112 34.1939V31.0999C338.608 31.1653 338.202 31.3193 337.894 31.5619C337.596 31.8046 337.446 32.1313 337.446 32.5419ZM347.886 40.0459C347.326 40.0459 346.836 39.9759 346.416 39.8359C345.996 39.6866 345.641 39.4859 345.352 39.2339C345.072 38.9819 344.857 38.6833 344.708 38.3379C344.568 37.9926 344.498 37.6193 344.498 37.2179C344.498 36.5459 344.68 36.0139 345.044 35.6219C345.408 35.2299 345.884 34.9546 346.472 34.7959V34.6839C345.958 34.5066 345.548 34.2219 345.24 33.8299C344.941 33.4286 344.792 32.9479 344.792 32.3879C344.792 31.6413 345.062 31.0486 345.604 30.6099C346.145 30.1619 346.906 29.9379 347.886 29.9379C348.866 29.9379 349.626 30.1619 350.168 30.6099C350.709 31.0486 350.98 31.6413 350.98 32.3879C350.98 32.9479 350.826 33.4286 350.518 33.8299C350.219 34.2219 349.813 34.5066 349.3 34.6839V34.7959C349.888 34.9546 350.364 35.2299 350.728 35.6219C351.092 36.0139 351.274 36.5459 351.274 37.2179C351.274 37.6193 351.199 37.9926 351.05 38.3379C350.91 38.6833 350.695 38.9819 350.406 39.2339C350.126 39.4859 349.776 39.6866 349.356 39.8359C348.936 39.9759 348.446 40.0459 347.886 40.0459ZM347.886 39.0239C348.567 39.0239 349.094 38.8746 349.468 38.5759C349.841 38.2679 350.028 37.8339 350.028 37.2739V36.9799C350.028 36.4199 349.841 35.9906 349.468 35.6919C349.094 35.3839 348.567 35.2299 347.886 35.2299C347.204 35.2299 346.677 35.3839 346.304 35.6919C345.93 35.9906 345.744 36.4199 345.744 36.9799V37.2739C345.744 37.8339 345.93 38.2679 346.304 38.5759C346.677 38.8746 347.204 39.0239 347.886 39.0239ZM347.886 34.2499C348.502 34.2499 348.968 34.1193 349.286 33.8579C349.603 33.5966 349.762 33.2139 349.762 32.7099V32.4999C349.762 31.9959 349.603 31.6133 349.286 31.3519C348.968 31.0906 348.502 30.9599 347.886 30.9599C347.27 30.9599 346.803 31.0906 346.486 31.3519C346.168 31.6133 346.01 31.9959 346.01 32.4999V32.7099C346.01 33.2139 346.168 33.5966 346.486 33.8579C346.803 34.1193 347.27 34.2499 347.886 34.2499ZM353.984 38.2399C354.283 38.2399 354.497 38.3193 354.628 38.4779C354.768 38.6273 354.838 38.8233 354.838 39.0659V39.2619C354.838 39.6446 354.726 40.0646 354.502 40.5219C354.278 40.9886 353.965 41.3946 353.564 41.7399H352.626C352.906 41.4413 353.13 41.1566 353.298 40.8859C353.475 40.6246 353.601 40.3306 353.676 40.0039C353.489 39.9573 353.349 39.8686 353.256 39.7379C353.172 39.6073 353.13 39.4486 353.13 39.2619V39.0659C353.13 38.8233 353.195 38.6273 353.326 38.4779C353.466 38.3193 353.685 38.2399 353.984 38.2399ZM362.867 31.1419H358.583L358.303 34.8659H358.401C358.634 34.5393 358.895 34.2779 359.185 34.0819C359.483 33.8859 359.889 33.7879 360.403 33.7879C360.823 33.7879 361.21 33.8579 361.565 33.9979C361.919 34.1379 362.227 34.3386 362.489 34.5999C362.75 34.8519 362.951 35.1646 363.091 35.5379C363.24 35.9113 363.315 36.3359 363.315 36.8119C363.315 37.2879 363.24 37.7266 363.091 38.1279C362.941 38.5199 362.722 38.8606 362.433 39.1499C362.153 39.4299 361.807 39.6493 361.397 39.8079C360.995 39.9666 360.538 40.0459 360.025 40.0459C359.614 40.0459 359.25 39.9993 358.933 39.9059C358.625 39.8126 358.349 39.6866 358.107 39.5279C357.864 39.3693 357.649 39.1919 357.463 38.9959C357.285 38.7999 357.122 38.5946 356.973 38.3799L357.855 37.7079C357.976 37.9039 358.102 38.0813 358.233 38.2399C358.373 38.3986 358.522 38.5339 358.681 38.6459C358.849 38.7579 359.04 38.8466 359.255 38.9119C359.469 38.9679 359.726 38.9959 360.025 38.9959C360.697 38.9959 361.205 38.8186 361.551 38.4639C361.896 38.1093 362.069 37.6099 362.069 36.9659V36.8259C362.069 36.1819 361.896 35.6826 361.551 35.3279C361.205 34.9733 360.697 34.7959 360.025 34.7959C359.577 34.7959 359.222 34.8799 358.961 35.0479C358.709 35.2066 358.48 35.3979 358.275 35.6219L357.281 35.4819L357.631 30.1059H362.867V31.1419ZM371.751 39.8779H365.339V38.6739L368.531 35.7339C368.988 35.3139 369.371 34.8706 369.679 34.4039C369.987 33.9279 370.141 33.4519 370.141 32.9759V32.8079C370.141 32.2666 369.992 31.8279 369.693 31.4919C369.394 31.1559 368.942 30.9879 368.335 30.9879C368.036 30.9879 367.775 31.0299 367.551 31.1139C367.327 31.1979 367.131 31.3146 366.963 31.4639C366.804 31.6133 366.669 31.7906 366.557 31.9959C366.454 32.1919 366.37 32.4066 366.305 32.6399L365.255 32.2339C365.348 31.9446 365.474 31.6646 365.633 31.3939C365.801 31.1139 366.006 30.8666 366.249 30.6519C366.501 30.4373 366.8 30.2646 367.145 30.1339C367.5 30.0033 367.915 29.9379 368.391 29.9379C368.867 29.9379 369.292 30.0079 369.665 30.1479C370.038 30.2879 370.351 30.4839 370.603 30.7359C370.855 30.9879 371.046 31.2866 371.177 31.6319C371.317 31.9773 371.387 32.3599 371.387 32.7799C371.387 33.1626 371.331 33.5173 371.219 33.8439C371.116 34.1706 370.972 34.4833 370.785 34.7819C370.598 35.0713 370.37 35.3559 370.099 35.6359C369.838 35.9159 369.553 36.1959 369.245 36.4759L366.613 38.8419H371.751V39.8779ZM380.146 33.6899C380.146 34.4179 380.038 35.1039 379.824 35.7479C379.609 36.3826 379.329 36.9659 378.984 37.4979C378.648 38.0206 378.274 38.4873 377.864 38.8979C377.453 39.2993 377.052 39.6259 376.66 39.8779H375.148C375.67 39.4953 376.137 39.1219 376.548 38.7579C376.958 38.3939 377.318 38.0159 377.626 37.6239C377.934 37.2226 378.195 36.7979 378.41 36.3499C378.624 35.8926 378.797 35.3793 378.928 34.8099L378.858 34.7819C378.624 35.1833 378.321 35.5193 377.948 35.7899C377.584 36.0513 377.103 36.1819 376.506 36.1819C376.086 36.1819 375.698 36.1119 375.344 35.9719C374.989 35.8319 374.686 35.6313 374.434 35.3699C374.182 35.1086 373.981 34.7959 373.832 34.4319C373.692 34.0586 373.622 33.6386 373.622 33.1719C373.622 32.6959 373.696 32.2619 373.846 31.8699C374.004 31.4686 374.224 31.1279 374.504 30.8479C374.793 30.5586 375.134 30.3346 375.526 30.1759C375.927 30.0173 376.375 29.9379 376.87 29.9379C377.374 29.9379 377.826 30.0266 378.228 30.2039C378.638 30.3719 378.984 30.6193 379.264 30.9459C379.553 31.2633 379.772 31.6553 379.922 32.1219C380.071 32.5886 380.146 33.1113 380.146 33.6899ZM376.884 35.1879C377.528 35.1879 378.027 35.0106 378.382 34.6559C378.746 34.3013 378.928 33.7926 378.928 33.1299V33.0179C378.928 32.3553 378.746 31.8466 378.382 31.4919C378.027 31.1373 377.528 30.9599 376.884 30.9599C376.24 30.9599 375.736 31.1373 375.372 31.4919C375.017 31.8466 374.84 32.3553 374.84 33.0179V33.1299C374.84 33.7926 375.017 34.3013 375.372 34.6559C375.736 35.0106 376.24 35.1879 376.884 35.1879ZM382.982 40.0459C382.683 40.0459 382.464 39.9713 382.324 39.8219C382.193 39.6726 382.128 39.4766 382.128 39.2339V39.0519C382.128 38.8093 382.193 38.6133 382.324 38.4639C382.464 38.3146 382.683 38.2399 382.982 38.2399C383.281 38.2399 383.495 38.3146 383.626 38.4639C383.766 38.6133 383.836 38.8093 383.836 39.0519V39.2339C383.836 39.4766 383.766 39.6726 383.626 39.8219C383.495 39.9713 383.281 40.0459 382.982 40.0459ZM386.125 39.8779V38.8419H388.855V30.9739H388.757L386.293 33.2699L385.607 32.5279L388.197 30.1059H390.031V38.8419H392.551V39.8779H386.125ZM395.737 39.8779L399.475 31.1139H395.303V32.9339H394.253V30.1059H400.665V31.1419L396.997 39.8779H395.737Z" fill="#414652"/>
<path d="M216.972 81.1419H212.688L212.408 84.8659H212.506C212.739 84.5393 213.001 84.2779 213.29 84.0819C213.589 83.8859 213.995 83.7879 214.508 83.7879C214.928 83.7879 215.315 83.8579 215.67 83.9979C216.025 84.1379 216.333 84.3386 216.594 84.5999C216.855 84.8519 217.056 85.1646 217.196 85.5379C217.345 85.9113 217.42 86.3359 217.42 86.8119C217.42 87.2879 217.345 87.7266 217.196 88.1279C217.047 88.5199 216.827 88.8606 216.538 89.1499C216.258 89.4299 215.913 89.6493 215.502 89.8079C215.101 89.9666 214.643 90.0459 214.13 90.0459C213.719 90.0459 213.355 89.9993 213.038 89.9059C212.73 89.8126 212.455 89.6866 212.212 89.5279C211.969 89.3693 211.755 89.1919 211.568 88.9959C211.391 88.7999 211.227 88.5946 211.078 88.3799L211.96 87.7079C212.081 87.9039 212.207 88.0813 212.338 88.2399C212.478 88.3986 212.627 88.5339 212.786 88.6459C212.954 88.7579 213.145 88.8466 213.36 88.9119C213.575 88.9679 213.831 88.9959 214.13 88.9959C214.802 88.9959 215.311 88.8186 215.656 88.4639C216.001 88.1093 216.174 87.6099 216.174 86.9659V86.8259C216.174 86.1819 216.001 85.6826 215.656 85.3279C215.311 84.9733 214.802 84.7959 214.13 84.7959C213.682 84.7959 213.327 84.8799 213.066 85.0479C212.814 85.2066 212.585 85.3979 212.38 85.6219L211.386 85.4819L211.736 80.1059H216.972V81.1419ZM222.595 90.0459C221.428 90.0459 220.574 89.6026 220.033 88.7159C219.501 87.8293 219.235 86.5879 219.235 84.9919C219.235 83.3959 219.501 82.1546 220.033 81.2679C220.574 80.3813 221.428 79.9379 222.595 79.9379C223.761 79.9379 224.611 80.3813 225.143 81.2679C225.684 82.1546 225.955 83.3959 225.955 84.9919C225.955 86.5879 225.684 87.8293 225.143 88.7159C224.611 89.6026 223.761 90.0459 222.595 90.0459ZM222.595 89.0239C222.977 89.0239 223.304 88.9446 223.575 88.7859C223.845 88.6273 224.065 88.4033 224.233 88.1139C224.401 87.8246 224.522 87.4839 224.597 87.0919C224.681 86.6999 224.723 86.2659 224.723 85.7899V84.1939C224.723 83.7179 224.681 83.2839 224.597 82.8919C224.522 82.4999 224.401 82.1593 224.233 81.8699C224.065 81.5806 223.845 81.3566 223.575 81.1979C223.304 81.0393 222.977 80.9599 222.595 80.9599C222.212 80.9599 221.885 81.0393 221.615 81.1979C221.344 81.3566 221.125 81.5806 220.957 81.8699C220.789 82.1593 220.663 82.4999 220.579 82.8919C220.504 83.2839 220.467 83.7179 220.467 84.1939V85.7899C220.467 86.2659 220.504 86.6999 220.579 87.0919C220.663 87.4839 220.789 87.8246 220.957 88.1139C221.125 88.4033 221.344 88.6273 221.615 88.7859C221.885 88.9446 222.212 89.0239 222.595 89.0239ZM232.478 89.8779C232.086 89.8779 231.787 89.7706 231.582 89.5559C231.386 89.3319 231.288 89.0519 231.288 88.7159V79.5179H232.408V88.8979H233.472V89.8779H232.478ZM237.832 90.0459C237.347 90.0459 236.903 89.9573 236.502 89.7799C236.101 89.6026 235.755 89.3506 235.466 89.0239C235.186 88.6879 234.967 88.2913 234.808 87.8339C234.649 87.3673 234.57 86.8446 234.57 86.2659C234.57 85.6966 234.649 85.1786 234.808 84.7119C234.967 84.2453 235.186 83.8486 235.466 83.5219C235.755 83.1859 236.101 82.9293 236.502 82.7519C236.903 82.5746 237.347 82.4859 237.832 82.4859C238.317 82.4859 238.756 82.5746 239.148 82.7519C239.549 82.9293 239.895 83.1859 240.184 83.5219C240.473 83.8486 240.697 84.2453 240.856 84.7119C241.015 85.1786 241.094 85.6966 241.094 86.2659C241.094 86.8446 241.015 87.3673 240.856 87.8339C240.697 88.2913 240.473 88.6879 240.184 89.0239C239.895 89.3506 239.549 89.6026 239.148 89.7799C238.756 89.9573 238.317 90.0459 237.832 90.0459ZM237.832 89.0519C238.439 89.0519 238.933 88.8653 239.316 88.4919C239.699 88.1186 239.89 87.5493 239.89 86.7839V85.7479C239.89 84.9826 239.699 84.4133 239.316 84.0399C238.933 83.6666 238.439 83.4799 237.832 83.4799C237.225 83.4799 236.731 83.6666 236.348 84.0399C235.965 84.4133 235.774 84.9826 235.774 85.7479V86.7839C235.774 87.5493 235.965 88.1186 236.348 88.4919C236.731 88.8653 237.225 89.0519 237.832 89.0519ZM244.532 89.8779C244.14 89.8779 243.841 89.7706 243.636 89.5559C243.44 89.3319 243.342 89.0426 243.342 88.6879V83.6339H242.152V82.6539H242.824C243.067 82.6539 243.23 82.6073 243.314 82.5139C243.407 82.4113 243.454 82.2386 243.454 81.9959V80.6519H244.462V82.6539H246.044V83.6339H244.462V88.8979H245.932V89.8779H244.532ZM250.014 90.0459C249.342 90.0459 248.778 89.9199 248.32 89.6679C247.872 89.4066 247.485 89.0613 247.158 88.6319L247.956 87.9879C248.236 88.3426 248.549 88.6179 248.894 88.8139C249.24 89.0006 249.641 89.0939 250.098 89.0939C250.574 89.0939 250.943 88.9913 251.204 88.7859C251.475 88.5806 251.61 88.2913 251.61 87.9179C251.61 87.6379 251.517 87.3999 251.33 87.2039C251.153 86.9986 250.826 86.8586 250.35 86.7839L249.776 86.6999C249.44 86.6533 249.132 86.5833 248.852 86.4899C248.572 86.3873 248.325 86.2566 248.11 86.0979C247.905 85.9299 247.742 85.7246 247.62 85.4819C247.508 85.2393 247.452 84.9499 247.452 84.6139C247.452 84.2593 247.518 83.9513 247.648 83.6899C247.779 83.4193 247.956 83.1953 248.18 83.0179C248.414 82.8406 248.689 82.7099 249.006 82.6259C249.324 82.5326 249.664 82.4859 250.028 82.4859C250.616 82.4859 251.106 82.5886 251.498 82.7939C251.9 82.9993 252.25 83.2839 252.548 83.6479L251.806 84.3199C251.648 84.0959 251.414 83.8953 251.106 83.7179C250.798 83.5313 250.411 83.4379 249.944 83.4379C249.478 83.4379 249.123 83.5406 248.88 83.7459C248.647 83.9419 248.53 84.2126 248.53 84.5579C248.53 84.9126 248.647 85.1693 248.88 85.3279C249.123 85.4866 249.468 85.6033 249.916 85.6779L250.476 85.7619C251.279 85.8833 251.848 86.1166 252.184 86.4619C252.52 86.7979 252.688 87.2413 252.688 87.7919C252.688 88.4919 252.45 89.0426 251.974 89.4439C251.498 89.8453 250.845 90.0459 250.014 90.0459Z" fill="#999999"/>
<path d="M237 58.8779V74.8779H236V58.8779H237Z" fill="#E5E5E5"/>
<circle cx="236.5" cy="57.3779" r="2" fill="#577A92" fill-opacity="0.04" stroke="#E5E5E5"/>
<path d="M313.592 81.264V90H312.416V81.264H309.308V80.228H316.7V81.264H313.592ZM320.016 90.168C319.53 90.168 319.087 90.0793 318.686 89.902C318.284 89.7247 317.939 89.4727 317.65 89.146C317.37 88.81 317.15 88.4133 316.992 87.956C316.833 87.4893 316.754 86.9667 316.754 86.388C316.754 85.8187 316.833 85.3007 316.992 84.834C317.15 84.3673 317.37 83.9707 317.65 83.644C317.939 83.308 318.284 83.0513 318.686 82.874C319.087 82.6967 319.53 82.608 320.016 82.608C320.501 82.608 320.94 82.6967 321.332 82.874C321.733 83.0513 322.078 83.308 322.368 83.644C322.657 83.9707 322.881 84.3673 323.04 84.834C323.198 85.3007 323.278 85.8187 323.278 86.388C323.278 86.9667 323.198 87.4893 323.04 87.956C322.881 88.4133 322.657 88.81 322.368 89.146C322.078 89.4727 321.733 89.7247 321.332 89.902C320.94 90.0793 320.501 90.168 320.016 90.168ZM320.016 89.174C320.622 89.174 321.117 88.9873 321.5 88.614C321.882 88.2407 322.074 87.6713 322.074 86.906V85.87C322.074 85.1047 321.882 84.5353 321.5 84.162C321.117 83.7887 320.622 83.602 320.016 83.602C319.409 83.602 318.914 83.7887 318.532 84.162C318.149 84.5353 317.958 85.1047 317.958 85.87V86.906C317.958 87.6713 318.149 88.2407 318.532 88.614C318.914 88.9873 319.409 89.174 320.016 89.174ZM326.716 90C326.324 90 326.025 89.8927 325.82 89.678C325.624 89.454 325.526 89.1647 325.526 88.81V83.756H324.336V82.776H325.008C325.25 82.776 325.414 82.7293 325.498 82.636C325.591 82.5333 325.638 82.3607 325.638 82.118V80.774H326.646V82.776H328.228V83.756H326.646V89.02H328.116V90H326.716ZM335.278 90C334.858 90 334.555 89.888 334.368 89.664C334.191 89.44 334.079 89.16 334.032 88.824H333.962C333.803 89.272 333.542 89.608 333.178 89.832C332.814 90.056 332.38 90.168 331.876 90.168C331.111 90.168 330.513 89.972 330.084 89.58C329.664 89.188 329.454 88.656 329.454 87.984C329.454 87.3027 329.701 86.78 330.196 86.416C330.7 86.052 331.479 85.87 332.534 85.87H333.962V85.156C333.962 84.6427 333.822 84.2507 333.542 83.98C333.262 83.7093 332.833 83.574 332.254 83.574C331.815 83.574 331.447 83.672 331.148 83.868C330.859 84.064 330.616 84.3253 330.42 84.652L329.748 84.022C329.944 83.63 330.257 83.2987 330.686 83.028C331.115 82.748 331.657 82.608 332.31 82.608C333.187 82.608 333.869 82.8227 334.354 83.252C334.839 83.6813 335.082 84.2787 335.082 85.044V89.02H335.908V90H335.278ZM332.058 89.216C332.338 89.216 332.595 89.1833 332.828 89.118C333.061 89.0527 333.262 88.9593 333.43 88.838C333.598 88.7167 333.729 88.5767 333.822 88.418C333.915 88.2593 333.962 88.0867 333.962 87.9V86.71H332.478C331.834 86.71 331.363 86.8033 331.064 86.99C330.775 87.1767 330.63 87.4473 330.63 87.802V88.096C330.63 88.4507 330.756 88.726 331.008 88.922C331.269 89.118 331.619 89.216 332.058 89.216ZM338.696 90C338.304 90 338.006 89.8927 337.8 89.678C337.604 89.454 337.506 89.174 337.506 88.838V79.64H338.626V89.02H339.69V90H338.696ZM344.629 90V82.776H345.749V83.952H345.805C345.889 83.7653 345.983 83.5927 346.085 83.434C346.197 83.266 346.328 83.1213 346.477 83C346.636 82.8787 346.818 82.7853 347.023 82.72C347.229 82.6453 347.471 82.608 347.751 82.608C348.227 82.608 348.666 82.7247 349.067 82.958C349.469 83.182 349.767 83.5553 349.963 84.078H349.991C350.122 83.686 350.365 83.3453 350.719 83.056C351.083 82.7573 351.573 82.608 352.189 82.608C352.927 82.608 353.501 82.8507 353.911 83.336C354.331 83.812 354.541 84.4887 354.541 85.366V90H353.421V85.562C353.421 84.918 353.295 84.4327 353.043 84.106C352.791 83.7793 352.39 83.616 351.839 83.616C351.615 83.616 351.401 83.644 351.195 83.7C350.999 83.756 350.822 83.84 350.663 83.952C350.505 84.064 350.379 84.2087 350.285 84.386C350.192 84.554 350.145 84.7547 350.145 84.988V90H349.025V85.562C349.025 84.918 348.899 84.4327 348.647 84.106C348.395 83.7793 348.003 83.616 347.471 83.616C347.247 83.616 347.033 83.644 346.827 83.7C346.622 83.756 346.44 83.84 346.281 83.952C346.123 84.064 345.992 84.2087 345.889 84.386C345.796 84.554 345.749 84.7547 345.749 84.988V90H344.629ZM362.102 90C361.682 90 361.379 89.888 361.192 89.664C361.015 89.44 360.903 89.16 360.856 88.824H360.786C360.627 89.272 360.366 89.608 360.002 89.832C359.638 90.056 359.204 90.168 358.7 90.168C357.935 90.168 357.337 89.972 356.908 89.58C356.488 89.188 356.278 88.656 356.278 87.984C356.278 87.3027 356.525 86.78 357.02 86.416C357.524 86.052 358.303 85.87 359.358 85.87H360.786V85.156C360.786 84.6427 360.646 84.2507 360.366 83.98C360.086 83.7093 359.657 83.574 359.078 83.574C358.639 83.574 358.271 83.672 357.972 83.868C357.683 84.064 357.44 84.3253 357.244 84.652L356.572 84.022C356.768 83.63 357.081 83.2987 357.51 83.028C357.939 82.748 358.481 82.608 359.134 82.608C360.011 82.608 360.693 82.8227 361.178 83.252C361.663 83.6813 361.906 84.2787 361.906 85.044V89.02H362.732V90H362.102ZM358.882 89.216C359.162 89.216 359.419 89.1833 359.652 89.118C359.885 89.0527 360.086 88.9593 360.254 88.838C360.422 88.7167 360.553 88.5767 360.646 88.418C360.739 88.2593 360.786 88.0867 360.786 87.9V86.71H359.302C358.658 86.71 358.187 86.8033 357.888 86.99C357.599 87.1767 357.454 87.4473 357.454 87.802V88.096C357.454 88.4507 357.58 88.726 357.832 88.922C358.093 89.118 358.443 89.216 358.882 89.216ZM364.331 90V82.776H365.451V84.106H365.521C365.651 83.7607 365.885 83.4527 366.221 83.182C366.557 82.9113 367.019 82.776 367.607 82.776H368.041V83.896H367.383C366.776 83.896 366.3 84.0127 365.955 84.246C365.619 84.47 365.451 84.7547 365.451 85.1V90H364.331ZM375.233 90.798C375.233 91.5447 374.939 92.0907 374.351 92.436C373.772 92.7907 372.9 92.968 371.733 92.968C370.604 92.968 369.792 92.814 369.297 92.506C368.802 92.198 368.555 91.7593 368.555 91.19C368.555 90.798 368.658 90.49 368.863 90.266C369.068 90.0513 369.348 89.8927 369.703 89.79V89.636C369.274 89.4307 369.059 89.0947 369.059 88.628C369.059 88.264 369.176 87.9887 369.409 87.802C369.642 87.606 369.941 87.4613 370.305 87.368V87.312C369.876 87.1067 369.54 86.8127 369.297 86.43C369.064 86.0473 368.947 85.604 368.947 85.1C368.947 84.736 369.012 84.4 369.143 84.092C369.274 83.784 369.456 83.5227 369.689 83.308C369.932 83.084 370.216 82.9113 370.543 82.79C370.879 82.6687 371.252 82.608 371.663 82.608C372.176 82.608 372.634 82.7013 373.035 82.888V82.762C373.035 82.482 373.1 82.2533 373.231 82.076C373.362 81.8893 373.576 81.796 373.875 81.796H374.953V82.776H373.581V83.238C373.842 83.462 374.043 83.7327 374.183 84.05C374.332 84.358 374.407 84.708 374.407 85.1C374.407 85.464 374.342 85.8 374.211 86.108C374.08 86.416 373.894 86.682 373.651 86.906C373.418 87.1207 373.133 87.2887 372.797 87.41C372.461 87.5313 372.088 87.592 371.677 87.592C371.444 87.592 371.21 87.5687 370.977 87.522C370.734 87.5873 370.515 87.6853 370.319 87.816C370.123 87.9373 370.025 88.11 370.025 88.334C370.025 88.5487 370.128 88.6933 370.333 88.768C370.538 88.8427 370.804 88.88 371.131 88.88H372.671C373.567 88.88 374.216 89.0527 374.617 89.398C375.028 89.734 375.233 90.2007 375.233 90.798ZM374.183 90.882C374.183 90.5927 374.071 90.3593 373.847 90.182C373.632 90.014 373.245 89.93 372.685 89.93H370.277C369.829 90.1353 369.605 90.462 369.605 90.91C369.605 91.2273 369.722 91.498 369.955 91.722C370.198 91.946 370.604 92.058 371.173 92.058H372.209C372.834 92.058 373.32 91.96 373.665 91.764C374.01 91.568 374.183 91.274 374.183 90.882ZM371.677 86.696C372.153 86.696 372.531 86.584 372.811 86.36C373.091 86.1267 373.231 85.772 373.231 85.296V84.904C373.231 84.428 373.091 84.078 372.811 83.854C372.531 83.6207 372.153 83.504 371.677 83.504C371.201 83.504 370.823 83.6207 370.543 83.854C370.263 84.078 370.123 84.428 370.123 84.904V85.296C370.123 85.772 370.263 86.1267 370.543 86.36C370.823 86.584 371.201 86.696 371.677 86.696ZM377.1 81.082C376.857 81.082 376.68 81.026 376.568 80.914C376.465 80.7927 376.414 80.6387 376.414 80.452V80.27C376.414 80.0833 376.465 79.934 376.568 79.822C376.68 79.7007 376.857 79.64 377.1 79.64C377.342 79.64 377.515 79.7007 377.618 79.822C377.73 79.934 377.786 80.0833 377.786 80.27V80.452C377.786 80.6387 377.73 80.7927 377.618 80.914C377.515 81.026 377.342 81.082 377.1 81.082ZM376.54 82.776H377.66V90H376.54V82.776ZM380.04 90V82.776H381.16V83.952H381.216C381.393 83.5413 381.64 83.2147 381.958 82.972C382.284 82.7293 382.718 82.608 383.26 82.608C384.006 82.608 384.594 82.8507 385.024 83.336C385.462 83.812 385.682 84.4887 385.682 85.366V90H384.562V85.562C384.562 84.2647 384.016 83.616 382.924 83.616C382.7 83.616 382.48 83.644 382.266 83.7C382.06 83.756 381.874 83.84 381.706 83.952C381.538 84.064 381.402 84.2087 381.3 84.386C381.206 84.554 381.16 84.7547 381.16 84.988V90H380.04Z" fill="#999999"/>
<path d="M349 58.8779V74.8779H348V58.8779H349Z" fill="#E5E5E5"/>
<circle cx="348.5" cy="57.3779" r="2" fill="#577A92" fill-opacity="0.04" stroke="#E5E5E5"/>
<g clip-path="url(#clip0_3023_206145)">
<path d="M27.972 81.1419H23.688L23.408 84.8659H23.506C23.7393 84.5393 24.0007 84.2779 24.29 84.0819C24.5887 83.8859 24.9947 83.7879 25.508 83.7879C25.928 83.7879 26.3153 83.8579 26.67 83.9979C27.0247 84.1379 27.3327 84.3386 27.594 84.5999C27.8553 84.8519 28.056 85.1646 28.196 85.5379C28.3453 85.9113 28.42 86.3359 28.42 86.8119C28.42 87.2879 28.3453 87.7266 28.196 88.1279C28.0467 88.5199 27.8273 88.8606 27.538 89.1499C27.258 89.4299 26.9127 89.6493 26.502 89.8079C26.1007 89.9666 25.6433 90.0459 25.13 90.0459C24.7193 90.0459 24.3553 89.9993 24.038 89.9059C23.73 89.8126 23.4547 89.6866 23.212 89.5279C22.9693 89.3693 22.7547 89.1919 22.568 88.9959C22.3907 88.7999 22.2273 88.5946 22.078 88.3799L22.96 87.7079C23.0813 87.9039 23.2073 88.0813 23.338 88.2399C23.478 88.3986 23.6273 88.5339 23.786 88.6459C23.954 88.7579 24.1453 88.8466 24.36 88.9119C24.5747 88.9679 24.8313 88.9959 25.13 88.9959C25.802 88.9959 26.3107 88.8186 26.656 88.4639C27.0013 88.1093 27.174 87.6099 27.174 86.9659V86.8259C27.174 86.1819 27.0013 85.6826 26.656 85.3279C26.3107 84.9733 25.802 84.7959 25.13 84.7959C24.682 84.7959 24.3273 84.8799 24.066 85.0479C23.814 85.2066 23.5853 85.3979 23.38 85.6219L22.386 85.4819L22.736 80.1059H27.972V81.1419ZM35.0831 89.8779C34.6911 89.8779 34.3925 89.7706 34.1871 89.5559C33.9911 89.3319 33.8931 89.0519 33.8931 88.7159V79.5179H35.0131V88.8979H36.0771V89.8779H35.0831ZM40.4376 90.0459C39.9522 90.0459 39.5089 89.9573 39.1076 89.7799C38.7062 89.6026 38.3609 89.3506 38.0716 89.0239C37.7916 88.6879 37.5722 88.2913 37.4136 87.8339C37.2549 87.3673 37.1756 86.8446 37.1756 86.2659C37.1756 85.6966 37.2549 85.1786 37.4136 84.7119C37.5722 84.2453 37.7916 83.8486 38.0716 83.5219C38.3609 83.1859 38.7062 82.9293 39.1076 82.7519C39.5089 82.5746 39.9522 82.4859 40.4376 82.4859C40.9229 82.4859 41.3616 82.5746 41.7536 82.7519C42.1549 82.9293 42.5002 83.1859 42.7896 83.5219C43.0789 83.8486 43.3029 84.2453 43.4616 84.7119C43.6202 85.1786 43.6996 85.6966 43.6996 86.2659C43.6996 86.8446 43.6202 87.3673 43.4616 87.8339C43.3029 88.2913 43.0789 88.6879 42.7896 89.0239C42.5002 89.3506 42.1549 89.6026 41.7536 89.7799C41.3616 89.9573 40.9229 90.0459 40.4376 90.0459ZM40.4376 89.0519C41.0442 89.0519 41.5389 88.8653 41.9216 88.4919C42.3042 88.1186 42.4956 87.5493 42.4956 86.7839V85.7479C42.4956 84.9826 42.3042 84.4133 41.9216 84.0399C41.5389 83.6666 41.0442 83.4799 40.4376 83.4799C39.8309 83.4799 39.3362 83.6666 38.9536 84.0399C38.5709 84.4133 38.3796 84.9826 38.3796 85.7479V86.7839C38.3796 87.5493 38.5709 88.1186 38.9536 88.4919C39.3362 88.8653 39.8309 89.0519 40.4376 89.0519ZM47.1376 89.8779C46.7456 89.8779 46.4469 89.7706 46.2416 89.5559C46.0456 89.3319 45.9476 89.0426 45.9476 88.6879V83.6339H44.7576V82.6539H45.4296C45.6722 82.6539 45.8356 82.6073 45.9196 82.5139C46.0129 82.4113 46.0596 82.2386 46.0596 81.9959V80.6519H47.0676V82.6539H48.6496V83.6339H47.0676V88.8979H48.5376V89.8779H47.1376ZM52.6198 90.0459C51.9478 90.0459 51.3831 89.9199 50.9258 89.6679C50.4778 89.4066 50.0904 89.0613 49.7638 88.6319L50.5618 87.9879C50.8418 88.3426 51.1544 88.6179 51.4998 88.8139C51.8451 89.0006 52.2464 89.0939 52.7038 89.0939C53.1798 89.0939 53.5484 88.9913 53.8098 88.7859C54.0804 88.5806 54.2158 88.2913 54.2158 87.9179C54.2158 87.6379 54.1224 87.3999 53.9358 87.2039C53.7584 86.9986 53.4318 86.8586 52.9558 86.7839L52.3818 86.6999C52.0458 86.6533 51.7378 86.5833 51.4578 86.4899C51.1778 86.3873 50.9304 86.2566 50.7158 86.0979C50.5104 85.9299 50.3471 85.7246 50.2258 85.4819C50.1138 85.2393 50.0578 84.9499 50.0578 84.6139C50.0578 84.2593 50.1231 83.9513 50.2538 83.6899C50.3844 83.4193 50.5618 83.1953 50.7858 83.0179C51.0191 82.8406 51.2944 82.7099 51.6118 82.6259C51.9291 82.5326 52.2698 82.4859 52.6338 82.4859C53.2218 82.4859 53.7118 82.5886 54.1038 82.7939C54.5051 82.9993 54.8551 83.2839 55.1538 83.6479L54.4118 84.3199C54.2531 84.0959 54.0198 83.8953 53.7118 83.7179C53.4038 83.5313 53.0164 83.4379 52.5498 83.4379C52.0831 83.4379 51.7284 83.5406 51.4858 83.7459C51.2524 83.9419 51.1358 84.2126 51.1358 84.5579C51.1358 84.9126 51.2524 85.1693 51.4858 85.3279C51.7284 85.4866 52.0738 85.6033 52.5218 85.6779L53.0818 85.7619C53.8844 85.8833 54.4538 86.1166 54.7898 86.4619C55.1258 86.7979 55.2938 87.2413 55.2938 87.7919C55.2938 88.4919 55.0558 89.0426 54.5798 89.4439C54.1038 89.8453 53.4504 90.0459 52.6198 90.0459Z" fill="#999999"/>
<path d="M35 57.8779V73.8779H34V57.8779H35Z" fill="#E5E5E5"/>
<circle cx="34.5" cy="56.3779" r="2" fill="#577A92" fill-opacity="0.04" stroke="#E5E5E5"/>
</g>
<path d="M114.25 89.8779V87.9599H109.532V86.9239L113.62 80.1059H115.37V86.9799H116.784V87.9599H115.37V89.8779H114.25ZM110.638 86.9799H114.25V81.0159H114.18L110.638 86.9799ZM124.367 81.1419H120.083L119.803 84.8659H119.901C120.134 84.5393 120.395 84.2779 120.685 84.0819C120.983 83.8859 121.389 83.7879 121.903 83.7879C122.323 83.7879 122.71 83.8579 123.065 83.9979C123.419 84.1379 123.727 84.3386 123.989 84.5999C124.25 84.8519 124.451 85.1646 124.591 85.5379C124.74 85.9113 124.815 86.3359 124.815 86.8119C124.815 87.2879 124.74 87.7266 124.591 88.1279C124.441 88.5199 124.222 88.8606 123.933 89.1499C123.653 89.4299 123.307 89.6493 122.897 89.8079C122.495 89.9666 122.038 90.0459 121.525 90.0459C121.114 90.0459 120.75 89.9993 120.433 89.9059C120.125 89.8126 119.849 89.6866 119.607 89.5279C119.364 89.3693 119.149 89.1919 118.963 88.9959C118.785 88.7999 118.622 88.5946 118.473 88.3799L119.355 87.7079C119.476 87.9039 119.602 88.0813 119.733 88.2399C119.873 88.3986 120.022 88.5339 120.181 88.6459C120.349 88.7579 120.54 88.8466 120.755 88.9119C120.969 88.9679 121.226 88.9959 121.525 88.9959C122.197 88.9959 122.705 88.8186 123.051 88.4639C123.396 88.1093 123.569 87.6099 123.569 86.9659V86.8259C123.569 86.1819 123.396 85.6826 123.051 85.3279C122.705 84.9733 122.197 84.7959 121.525 84.7959C121.077 84.7959 120.722 84.8799 120.461 85.0479C120.209 85.2066 119.98 85.3979 119.775 85.6219L118.781 85.4819L119.131 80.1059H124.367V81.1419ZM131.478 89.8779C131.086 89.8779 130.787 89.7706 130.582 89.5559C130.386 89.3319 130.288 89.0519 130.288 88.7159V79.5179H131.408V88.8979H132.472V89.8779H131.478ZM136.832 90.0459C136.347 90.0459 135.903 89.9573 135.502 89.7799C135.101 89.6026 134.755 89.3506 134.466 89.0239C134.186 88.6879 133.967 88.2913 133.808 87.8339C133.649 87.3673 133.57 86.8446 133.57 86.2659C133.57 85.6966 133.649 85.1786 133.808 84.7119C133.967 84.2453 134.186 83.8486 134.466 83.5219C134.755 83.1859 135.101 82.9293 135.502 82.7519C135.903 82.5746 136.347 82.4859 136.832 82.4859C137.317 82.4859 137.756 82.5746 138.148 82.7519C138.549 82.9293 138.895 83.1859 139.184 83.5219C139.473 83.8486 139.697 84.2453 139.856 84.7119C140.015 85.1786 140.094 85.6966 140.094 86.2659C140.094 86.8446 140.015 87.3673 139.856 87.8339C139.697 88.2913 139.473 88.6879 139.184 89.0239C138.895 89.3506 138.549 89.6026 138.148 89.7799C137.756 89.9573 137.317 90.0459 136.832 90.0459ZM136.832 89.0519C137.439 89.0519 137.933 88.8653 138.316 88.4919C138.699 88.1186 138.89 87.5493 138.89 86.7839V85.7479C138.89 84.9826 138.699 84.4133 138.316 84.0399C137.933 83.6666 137.439 83.4799 136.832 83.4799C136.225 83.4799 135.731 83.6666 135.348 84.0399C134.965 84.4133 134.774 84.9826 134.774 85.7479V86.7839C134.774 87.5493 134.965 88.1186 135.348 88.4919C135.731 88.8653 136.225 89.0519 136.832 89.0519ZM143.532 89.8779C143.14 89.8779 142.841 89.7706 142.636 89.5559C142.44 89.3319 142.342 89.0426 142.342 88.6879V83.6339H141.152V82.6539H141.824C142.067 82.6539 142.23 82.6073 142.314 82.5139C142.407 82.4113 142.454 82.2386 142.454 81.9959V80.6519H143.462V82.6539H145.044V83.6339H143.462V88.8979H144.932V89.8779H143.532ZM149.014 90.0459C148.342 90.0459 147.778 89.9199 147.32 89.6679C146.872 89.4066 146.485 89.0613 146.158 88.6319L146.956 87.9879C147.236 88.3426 147.549 88.6179 147.894 88.8139C148.24 89.0006 148.641 89.0939 149.098 89.0939C149.574 89.0939 149.943 88.9913 150.204 88.7859C150.475 88.5806 150.61 88.2913 150.61 87.9179C150.61 87.6379 150.517 87.3999 150.33 87.2039C150.153 86.9986 149.826 86.8586 149.35 86.7839L148.776 86.6999C148.44 86.6533 148.132 86.5833 147.852 86.4899C147.572 86.3873 147.325 86.2566 147.11 86.0979C146.905 85.9299 146.742 85.7246 146.62 85.4819C146.508 85.2393 146.452 84.9499 146.452 84.6139C146.452 84.2593 146.518 83.9513 146.648 83.6899C146.779 83.4193 146.956 83.1953 147.18 83.0179C147.414 82.8406 147.689 82.7099 148.006 82.6259C148.324 82.5326 148.664 82.4859 149.028 82.4859C149.616 82.4859 150.106 82.5886 150.498 82.7939C150.9 82.9993 151.25 83.2839 151.548 83.6479L150.806 84.3199C150.648 84.0959 150.414 83.8953 150.106 83.7179C149.798 83.5313 149.411 83.4379 148.944 83.4379C148.478 83.4379 148.123 83.5406 147.88 83.7459C147.647 83.9419 147.53 84.2126 147.53 84.5579C147.53 84.9126 147.647 85.1693 147.88 85.3279C148.123 85.4866 148.468 85.6033 148.916 85.6779L149.476 85.7619C150.279 85.8833 150.848 86.1166 151.184 86.4619C151.52 86.7979 151.688 87.2413 151.688 87.7919C151.688 88.4919 151.45 89.0426 150.974 89.4439C150.498 89.8453 149.845 90.0459 149.014 90.0459Z" fill="#999999"/>
<path d="M136 58.8779V74.8779H135V58.8779H136Z" fill="#E5E5E5"/>
<circle cx="135.5" cy="57.3779" r="2" fill="#577A92" fill-opacity="0.04" stroke="#E5E5E5"/>
<defs>
<clipPath id="clip0_3023_206145">
<rect width="106" height="41" fill="white" transform="translate(18 53.8779)"/>
</clipPath>
</defs>
</svg>
