<svg width="411" height="97" viewBox="0 0 411 97" fill="none" xmlns="http://www.w3.org/2000/svg">
<rect x="1" y="0.585938" width="409" height="95.2928" rx="6.74639" fill="white" stroke="#E5E5E5" stroke-width="0.843299"/>
<path d="M39.0389 32.5859V31.7123H41.3412V25.0772H41.2585L39.1806 27.0134L38.6021 26.3877L40.7863 24.3452H42.3329V31.7123H44.458V32.5859H39.0389Z" fill="#414652"/>
<path d="M69.7811 29.5636L67.9039 31.488L67.3254 30.9095L69.2026 28.9851L67.3254 27.0606L67.9039 26.4821L69.7811 28.4065L71.6583 26.4821L72.2368 27.0606L70.3596 28.9851L72.2368 30.9095L71.6583 31.488L69.7811 29.5636Z" fill="#414652"/>
<path d="M100.771 32.5859H95.364V31.5706L98.0558 29.0913C98.4415 28.7371 98.7642 28.3633 99.0239 27.9697C99.2836 27.5683 99.4135 27.1669 99.4135 26.7655V26.6238C99.4135 26.1673 99.2876 25.7974 99.0357 25.514C98.7838 25.2307 98.4021 25.089 97.8905 25.089C97.6386 25.089 97.4183 25.1244 97.2294 25.1953C97.0405 25.2661 96.8752 25.3645 96.7335 25.4904C96.5997 25.6164 96.4856 25.7659 96.3911 25.9391C96.3045 26.1043 96.2337 26.2854 96.1786 26.4821L95.2931 26.1398C95.3719 25.8958 95.4781 25.6596 95.6119 25.4314C95.7536 25.1953 95.9267 24.9867 96.1314 24.8057C96.3439 24.6246 96.5958 24.479 96.887 24.3688C97.1861 24.2586 97.5363 24.2035 97.9377 24.2035C98.3391 24.2035 98.6973 24.2626 99.0121 24.3806C99.3269 24.4987 99.5906 24.664 99.8031 24.8765C100.016 25.089 100.177 25.3409 100.287 25.6321C100.405 25.9233 100.464 26.246 100.464 26.6002C100.464 26.9229 100.417 27.222 100.323 27.4975C100.236 27.7729 100.114 28.0366 99.9566 28.2885C99.7992 28.5325 99.6063 28.7725 99.3781 29.0087C99.1577 29.2448 98.9176 29.4809 98.6579 29.717L96.4383 31.7123H100.771V32.5859ZM103.163 32.7276C102.911 32.7276 102.726 32.6646 102.608 32.5387C102.498 32.4128 102.443 32.2475 102.443 32.0429V31.8894C102.443 31.6847 102.498 31.5194 102.608 31.3935C102.726 31.2676 102.911 31.2046 103.163 31.2046C103.415 31.2046 103.596 31.2676 103.706 31.3935C103.824 31.5194 103.883 31.6847 103.883 31.8894V32.0429C103.883 32.2475 103.824 32.4128 103.706 32.5387C103.596 32.6646 103.415 32.7276 103.163 32.7276ZM108.316 32.7276C107.332 32.7276 106.612 32.3537 106.156 31.606C105.707 30.8583 105.483 29.8115 105.483 28.4656C105.483 27.1197 105.707 26.0729 106.156 25.3251C106.612 24.5774 107.332 24.2035 108.316 24.2035C109.3 24.2035 110.016 24.5774 110.465 25.3251C110.921 26.0729 111.15 27.1197 111.15 28.4656C111.15 29.8115 110.921 30.8583 110.465 31.606C110.016 32.3537 109.3 32.7276 108.316 32.7276ZM108.316 31.8658C108.639 31.8658 108.914 31.7989 109.143 31.6651C109.371 31.5313 109.556 31.3424 109.698 31.0984C109.839 30.8544 109.942 30.5671 110.004 30.2365C110.075 29.9059 110.111 29.5399 110.111 29.1385V27.7926C110.111 27.3912 110.075 27.0252 110.004 26.6947C109.942 26.3641 109.839 26.0768 109.698 25.8328C109.556 25.5888 109.371 25.3999 109.143 25.2661C108.914 25.1323 108.639 25.0654 108.316 25.0654C107.993 25.0654 107.718 25.1323 107.49 25.2661C107.262 25.3999 107.077 25.5888 106.935 25.8328C106.793 26.0768 106.687 26.3641 106.616 26.6947C106.553 27.0252 106.522 27.3912 106.522 27.7926V29.1385C106.522 29.5399 106.553 29.9059 106.616 30.2365C106.687 30.5671 106.793 30.8544 106.935 31.0984C107.077 31.3424 107.262 31.5313 107.49 31.6651C107.718 31.7989 107.993 31.8658 108.316 31.8658ZM115.395 32.7276C114.411 32.7276 113.691 32.3537 113.235 31.606C112.786 30.8583 112.562 29.8115 112.562 28.4656C112.562 27.1197 112.786 26.0729 113.235 25.3251C113.691 24.5774 114.411 24.2035 115.395 24.2035C116.379 24.2035 117.095 24.5774 117.544 25.3251C118.001 26.0729 118.229 27.1197 118.229 28.4656C118.229 29.8115 118.001 30.8583 117.544 31.606C117.095 32.3537 116.379 32.7276 115.395 32.7276ZM115.395 31.8658C115.718 31.8658 115.993 31.7989 116.222 31.6651C116.45 31.5313 116.635 31.3424 116.777 31.0984C116.918 30.8544 117.021 30.5671 117.084 30.2365C117.154 29.9059 117.19 29.5399 117.19 29.1385V27.7926C117.19 27.3912 117.154 27.0252 117.084 26.6947C117.021 26.3641 116.918 26.0768 116.777 25.8328C116.635 25.5888 116.45 25.3999 116.222 25.2661C115.993 25.1323 115.718 25.0654 115.395 25.0654C115.073 25.0654 114.797 25.1323 114.569 25.2661C114.341 25.3999 114.156 25.5888 114.014 25.8328C113.872 26.0768 113.766 26.3641 113.695 26.6947C113.632 27.0252 113.601 27.3912 113.601 27.7926V29.1385C113.601 29.5399 113.632 29.9059 113.695 30.2365C113.766 30.5671 113.872 30.8544 114.014 31.0984C114.156 31.3424 114.341 31.5313 114.569 31.6651C114.797 31.7989 115.073 31.8658 115.395 31.8658Z" fill="#414652"/>
<path d="M143.558 29.5636L141.681 31.488L141.103 30.9095L142.98 28.9851L141.103 27.0606L141.681 26.4821L143.558 28.4065L145.436 26.4821L146.014 27.0606L144.137 28.9851L146.014 30.9095L145.436 31.488L143.558 29.5636Z" fill="#414652"/>
<path d="M174.549 32.5859H169.141V31.5706L171.833 29.0913C172.219 28.7371 172.542 28.3633 172.801 27.9697C173.061 27.5683 173.191 27.1669 173.191 26.7655V26.6238C173.191 26.1673 173.065 25.7974 172.813 25.514C172.561 25.2307 172.179 25.089 171.668 25.089C171.416 25.089 171.196 25.1244 171.007 25.1953C170.818 25.2661 170.653 25.3645 170.511 25.4904C170.377 25.6164 170.263 25.7659 170.168 25.9391C170.082 26.1043 170.011 26.2854 169.956 26.4821L169.07 26.1398C169.149 25.8958 169.255 25.6596 169.389 25.4314C169.531 25.1953 169.704 24.9867 169.909 24.8057C170.121 24.6246 170.373 24.479 170.664 24.3688C170.963 24.2586 171.314 24.2035 171.715 24.2035C172.116 24.2035 172.475 24.2626 172.789 24.3806C173.104 24.4987 173.368 24.664 173.58 24.8765C173.793 25.089 173.954 25.3409 174.065 25.6321C174.183 25.9233 174.242 26.246 174.242 26.6002C174.242 26.9229 174.194 27.222 174.1 27.4975C174.013 27.7729 173.891 28.0366 173.734 28.2885C173.577 28.5325 173.384 28.7725 173.155 29.0087C172.935 29.2448 172.695 29.4809 172.435 29.717L170.216 31.7123H174.549V32.5859ZM176.374 32.5859V31.7123H178.676V25.0772H178.593L176.516 27.0134L175.937 26.3877L178.121 24.3452H179.668V31.7123H181.793V32.5859H176.374ZM184.02 31.2046C184.272 31.2046 184.453 31.2715 184.563 31.4053C184.681 31.5313 184.74 31.6965 184.74 31.9012V32.0665C184.74 32.3892 184.645 32.7434 184.457 33.129C184.268 33.5226 184.004 33.8649 183.666 34.1562H182.874C183.111 33.9043 183.3 33.6642 183.441 33.436C183.591 33.2156 183.697 32.9677 183.76 32.6922C183.603 32.6528 183.484 32.5781 183.406 32.4679C183.335 32.3577 183.3 32.2239 183.3 32.0665V31.9012C183.3 31.6965 183.355 31.5313 183.465 31.4053C183.583 31.2715 183.768 31.2046 184.02 31.2046ZM189.173 32.7276C188.189 32.7276 187.469 32.3537 187.012 31.606C186.563 30.8583 186.339 29.8115 186.339 28.4656C186.339 27.1197 186.563 26.0729 187.012 25.3251C187.469 24.5774 188.189 24.2035 189.173 24.2035C190.156 24.2035 190.873 24.5774 191.321 25.3251C191.778 26.0729 192.006 27.1197 192.006 28.4656C192.006 29.8115 191.778 30.8583 191.321 31.606C190.873 32.3537 190.156 32.7276 189.173 32.7276ZM189.173 31.8658C189.495 31.8658 189.771 31.7989 189.999 31.6651C190.227 31.5313 190.412 31.3424 190.554 31.0984C190.696 30.8544 190.798 30.5671 190.861 30.2365C190.932 29.9059 190.967 29.5399 190.967 29.1385V27.7926C190.967 27.3912 190.932 27.0252 190.861 26.6947C190.798 26.3641 190.696 26.0768 190.554 25.8328C190.412 25.5888 190.227 25.3999 189.999 25.2661C189.771 25.1323 189.495 25.0654 189.173 25.0654C188.85 25.0654 188.574 25.1323 188.346 25.2661C188.118 25.3999 187.933 25.5888 187.791 25.8328C187.65 26.0768 187.543 26.3641 187.473 26.6947C187.41 27.0252 187.378 27.3912 187.378 27.7926V29.1385C187.378 29.5399 187.41 29.9059 187.473 30.2365C187.543 30.5671 187.65 30.8544 187.791 31.0984C187.933 31.3424 188.118 31.5313 188.346 31.6651C188.574 31.7989 188.85 31.8658 189.173 31.8658ZM196.252 32.7276C195.268 32.7276 194.548 32.3537 194.091 31.606C193.643 30.8583 193.418 29.8115 193.418 28.4656C193.418 27.1197 193.643 26.0729 194.091 25.3251C194.548 24.5774 195.268 24.2035 196.252 24.2035C197.236 24.2035 197.952 24.5774 198.4 25.3251C198.857 26.0729 199.085 27.1197 199.085 28.4656C199.085 29.8115 198.857 30.8583 198.4 31.606C197.952 32.3537 197.236 32.7276 196.252 32.7276ZM196.252 31.8658C196.574 31.8658 196.85 31.7989 197.078 31.6651C197.306 31.5313 197.491 31.3424 197.633 31.0984C197.775 30.8544 197.877 30.5671 197.94 30.2365C198.011 29.9059 198.046 29.5399 198.046 29.1385V27.7926C198.046 27.3912 198.011 27.0252 197.94 26.6947C197.877 26.3641 197.775 26.0768 197.633 25.8328C197.491 25.5888 197.306 25.3999 197.078 25.2661C196.85 25.1323 196.574 25.0654 196.252 25.0654C195.929 25.0654 195.654 25.1323 195.425 25.2661C195.197 25.3999 195.012 25.5888 194.87 25.8328C194.729 26.0768 194.622 26.3641 194.552 26.6947C194.489 27.0252 194.457 27.3912 194.457 27.7926V29.1385C194.457 29.5399 194.489 29.9059 194.552 30.2365C194.622 30.5671 194.729 30.8544 194.87 31.0984C195.012 31.3424 195.197 31.5313 195.425 31.6651C195.654 31.7989 195.929 31.8658 196.252 31.8658ZM203.331 32.7276C202.347 32.7276 201.627 32.3537 201.17 31.606C200.722 30.8583 200.497 29.8115 200.497 28.4656C200.497 27.1197 200.722 26.0729 201.17 25.3251C201.627 24.5774 202.347 24.2035 203.331 24.2035C204.315 24.2035 205.031 24.5774 205.48 25.3251C205.936 26.0729 206.164 27.1197 206.164 28.4656C206.164 29.8115 205.936 30.8583 205.48 31.606C205.031 32.3537 204.315 32.7276 203.331 32.7276ZM203.331 31.8658C203.654 31.8658 203.929 31.7989 204.157 31.6651C204.386 31.5313 204.57 31.3424 204.712 31.0984C204.854 30.8544 204.956 30.5671 205.019 30.2365C205.09 29.9059 205.125 29.5399 205.125 29.1385V27.7926C205.125 27.3912 205.09 27.0252 205.019 26.6947C204.956 26.3641 204.854 26.0768 204.712 25.8328C204.57 25.5888 204.386 25.3999 204.157 25.2661C203.929 25.1323 203.654 25.0654 203.331 25.0654C203.008 25.0654 202.733 25.1323 202.504 25.2661C202.276 25.3999 202.091 25.5888 201.95 25.8328C201.808 26.0768 201.702 26.3641 201.631 26.6947C201.568 27.0252 201.536 27.3912 201.536 27.7926V29.1385C201.536 29.5399 201.568 29.9059 201.631 30.2365C201.702 30.5671 201.808 30.8544 201.95 31.0984C202.091 31.3424 202.276 31.5313 202.504 31.6651C202.733 31.7989 203.008 31.8658 203.331 31.8658Z" fill="#414652"/>
<path d="M227.841 34.3687L230.923 23.8494H231.773L228.691 34.3687H227.841Z" fill="#414652"/>
<path d="M263.815 32.5859V31.7123H266.117V25.0772H266.035L263.957 27.0134L263.378 26.3877L265.562 24.3452H267.109V31.7123H269.234V32.5859H263.815ZM273.397 32.7276C272.413 32.7276 271.693 32.3537 271.236 31.606C270.788 30.8583 270.564 29.8115 270.564 28.4656C270.564 27.1197 270.788 26.0729 271.236 25.3251C271.693 24.5774 272.413 24.2035 273.397 24.2035C274.381 24.2035 275.097 24.5774 275.546 25.3251C276.002 26.0729 276.231 27.1197 276.231 28.4656C276.231 29.8115 276.002 30.8583 275.546 31.606C275.097 32.3537 274.381 32.7276 273.397 32.7276ZM273.397 31.8658C273.72 31.8658 273.995 31.7989 274.223 31.6651C274.452 31.5313 274.637 31.3424 274.778 31.0984C274.92 30.8544 275.022 30.5671 275.085 30.2365C275.156 29.9059 275.192 29.5399 275.192 29.1385V27.7926C275.192 27.3912 275.156 27.0252 275.085 26.6947C275.022 26.3641 274.92 26.0768 274.778 25.8328C274.637 25.5888 274.452 25.3999 274.223 25.2661C273.995 25.1323 273.72 25.0654 273.397 25.0654C273.074 25.0654 272.799 25.1323 272.571 25.2661C272.342 25.3999 272.157 25.5888 272.016 25.8328C271.874 26.0768 271.768 26.3641 271.697 26.6947C271.634 27.0252 271.602 27.3912 271.602 27.7926V29.1385C271.602 29.5399 271.634 29.9059 271.697 30.2365C271.768 30.5671 271.874 30.8544 272.016 31.0984C272.157 31.3424 272.342 31.5313 272.571 31.6651C272.799 31.7989 273.074 31.8658 273.397 31.8658ZM280.476 32.7276C279.492 32.7276 278.772 32.3537 278.316 31.606C277.867 30.8583 277.643 29.8115 277.643 28.4656C277.643 27.1197 277.867 26.0729 278.316 25.3251C278.772 24.5774 279.492 24.2035 280.476 24.2035C281.46 24.2035 282.176 24.5774 282.625 25.3251C283.081 26.0729 283.31 27.1197 283.31 28.4656C283.31 29.8115 283.081 30.8583 282.625 31.606C282.176 32.3537 281.46 32.7276 280.476 32.7276ZM280.476 31.8658C280.799 31.8658 281.074 31.7989 281.303 31.6651C281.531 31.5313 281.716 31.3424 281.857 31.0984C281.999 30.8544 282.101 30.5671 282.164 30.2365C282.235 29.9059 282.271 29.5399 282.271 29.1385V27.7926C282.271 27.3912 282.235 27.0252 282.164 26.6947C282.101 26.3641 281.999 26.0768 281.857 25.8328C281.716 25.5888 281.531 25.3999 281.303 25.2661C281.074 25.1323 280.799 25.0654 280.476 25.0654C280.153 25.0654 279.878 25.1323 279.65 25.2661C279.421 25.3999 279.236 25.5888 279.095 25.8328C278.953 26.0768 278.847 26.3641 278.776 26.6947C278.713 27.0252 278.682 27.3912 278.682 27.7926V29.1385C278.682 29.5399 278.713 29.9059 278.776 30.2365C278.847 30.5671 278.953 30.8544 279.095 31.0984C279.236 31.3424 279.421 31.5313 279.65 31.6651C279.878 31.7989 280.153 31.8658 280.476 31.8658Z" fill="#414652"/>
<path d="M315.546 28.194V27.3912H321.048V28.194H315.546ZM315.546 30.5553V29.7525H321.048V30.5553H315.546Z" fill="#414652"/>
<path d="M352.236 33.554V32.5859C351.638 32.5466 351.13 32.401 350.713 32.1491C350.304 31.8894 349.953 31.5667 349.662 31.181L350.359 30.5553C350.611 30.8937 350.886 31.1653 351.185 31.3699C351.492 31.5667 351.846 31.6926 352.248 31.7477V28.7135C351.437 28.5325 350.843 28.2688 350.465 27.9225C350.095 27.5683 349.91 27.0843 349.91 26.4703C349.91 26.1555 349.965 25.8761 350.075 25.6321C350.194 25.3802 350.355 25.1638 350.56 24.9828C350.764 24.8017 351.008 24.6601 351.292 24.5577C351.575 24.4475 351.89 24.3767 352.236 24.3452V23.3771H352.968V24.3334C353.503 24.3806 353.964 24.5184 354.349 24.7466C354.743 24.967 355.081 25.274 355.365 25.6675L354.644 26.2106C354.448 25.9351 354.212 25.7108 353.936 25.5376C353.661 25.3566 353.334 25.2386 352.956 25.1835V27.9461L353.062 27.9697C353.881 28.1507 354.475 28.4184 354.845 28.7725C355.223 29.1189 355.412 29.6029 355.412 30.2247C355.412 30.9016 355.191 31.4486 354.751 31.8658C354.318 32.275 353.724 32.5151 352.968 32.5859V33.554H352.236ZM354.479 30.2837C354.479 29.8823 354.361 29.5754 354.125 29.3628C353.897 29.1503 353.507 28.9772 352.956 28.8434V31.7477C353.428 31.6847 353.798 31.5273 354.066 31.2755C354.341 31.0157 354.479 30.6851 354.479 30.2837ZM350.843 26.3995C350.843 26.8009 350.957 27.1039 351.185 27.3086C351.421 27.5053 351.776 27.6667 352.248 27.7926V25.1835C351.823 25.2386 351.48 25.3684 351.221 25.5731C350.969 25.7777 350.843 26.0532 350.843 26.3995ZM360.532 32.5859V30.9685H356.553V30.0948L360 24.3452H361.476V30.1421H362.669V30.9685H361.476V32.5859H360.532ZM357.486 30.1421H360.532V25.1126H360.473L357.486 30.1421ZM369.476 32.5859H364.069V31.5706L366.761 29.0913C367.146 28.7371 367.469 28.3633 367.729 27.9697C367.989 27.5683 368.118 27.1669 368.118 26.7655V26.6238C368.118 26.1673 367.993 25.7974 367.741 25.514C367.489 25.2307 367.107 25.089 366.595 25.089C366.344 25.089 366.123 25.1244 365.934 25.1953C365.745 25.2661 365.58 25.3645 365.438 25.4904C365.305 25.6164 365.191 25.7659 365.096 25.9391C365.009 26.1043 364.939 26.2854 364.884 26.4821L363.998 26.1398C364.077 25.8958 364.183 25.6596 364.317 25.4314C364.459 25.1953 364.632 24.9867 364.836 24.8057C365.049 24.6246 365.301 24.479 365.592 24.3688C365.891 24.2586 366.241 24.2035 366.643 24.2035C367.044 24.2035 367.402 24.2626 367.717 24.3806C368.032 24.4987 368.296 24.664 368.508 24.8765C368.721 25.089 368.882 25.3409 368.992 25.6321C369.11 25.9233 369.169 26.246 369.169 26.6002C369.169 26.9229 369.122 27.222 369.028 27.4975C368.941 27.7729 368.819 28.0366 368.662 28.2885C368.504 28.5325 368.311 28.7725 368.083 29.0087C367.863 29.2448 367.623 29.4809 367.363 29.717L365.143 31.7123H369.476V32.5859ZM373.804 32.7276C372.821 32.7276 372.1 32.3537 371.644 31.606C371.195 30.8583 370.971 29.8115 370.971 28.4656C370.971 27.1197 371.195 26.0729 371.644 25.3251C372.1 24.5774 372.821 24.2035 373.804 24.2035C374.788 24.2035 375.505 24.5774 375.953 25.3251C376.41 26.0729 376.638 27.1197 376.638 28.4656C376.638 29.8115 376.41 30.8583 375.953 31.606C375.505 32.3537 374.788 32.7276 373.804 32.7276ZM373.804 31.8658C374.127 31.8658 374.403 31.7989 374.631 31.6651C374.859 31.5313 375.044 31.3424 375.186 31.0984C375.327 30.8544 375.43 30.5671 375.493 30.2365C375.564 29.9059 375.599 29.5399 375.599 29.1385V27.7926C375.599 27.3912 375.564 27.0252 375.493 26.6947C375.43 26.3641 375.327 26.0768 375.186 25.8328C375.044 25.5888 374.859 25.3999 374.631 25.2661C374.403 25.1323 374.127 25.0654 373.804 25.0654C373.482 25.0654 373.206 25.1323 372.978 25.2661C372.75 25.3999 372.565 25.5888 372.423 25.8328C372.281 26.0768 372.175 26.3641 372.104 26.6947C372.041 27.0252 372.01 27.3912 372.01 27.7926V29.1385C372.01 29.5399 372.041 29.9059 372.104 30.2365C372.175 30.5671 372.281 30.8544 372.423 31.0984C372.565 31.3424 372.75 31.5313 372.978 31.6651C373.206 31.7989 373.482 31.8658 373.804 31.8658Z" fill="#414652"/>
<path d="M177.661 76.8662V68.6255H180.943C181.683 68.6255 182.25 68.838 182.643 69.263C183.045 69.6802 183.245 70.2547 183.245 70.9867C183.245 71.7187 183.045 72.2972 182.643 72.7222C182.25 73.1394 181.683 73.348 180.943 73.348H178.653V76.8662H177.661ZM178.653 72.4743H180.943C181.337 72.4743 181.64 72.372 181.852 72.1673C182.073 71.9627 182.183 71.6715 182.183 71.2937V70.6798C182.183 70.302 182.073 70.0108 181.852 69.8061C181.64 69.6015 181.337 69.4992 180.943 69.4992H178.653V72.4743ZM184.611 76.8662V70.7742H185.556V71.8958H185.615C185.725 71.6046 185.922 71.3449 186.205 71.1166C186.488 70.8883 186.878 70.7742 187.374 70.7742H187.74V71.7187H187.185C186.673 71.7187 186.272 71.8171 185.981 72.0139C185.697 72.2028 185.556 72.4428 185.556 72.734V76.8662H184.611ZM189.418 69.3457C189.214 69.3457 189.064 69.2984 188.97 69.204C188.883 69.1017 188.84 68.9718 188.84 68.8144V68.6609C188.84 68.5035 188.883 68.3776 188.97 68.2831C189.064 68.1808 189.214 68.1296 189.418 68.1296C189.623 68.1296 189.769 68.1808 189.855 68.2831C189.95 68.3776 189.997 68.5035 189.997 68.6609V68.8144C189.997 68.9718 189.95 69.1017 189.855 69.204C189.769 69.2984 189.623 69.3457 189.418 69.3457ZM188.946 70.7742H189.891V76.8662H188.946V70.7742ZM194.164 77.0079C193.739 77.0079 193.358 76.9331 193.019 76.7836C192.681 76.634 192.394 76.4215 192.157 76.146C191.929 75.8706 191.752 75.536 191.626 75.1425C191.508 74.749 191.449 74.3082 191.449 73.8202C191.449 73.3322 191.508 72.8915 191.626 72.4979C191.752 72.1044 191.929 71.7699 192.157 71.4944C192.394 71.2189 192.681 71.0064 193.019 70.8569C193.358 70.7073 193.739 70.6325 194.164 70.6325C194.77 70.6325 195.255 70.7663 195.617 71.034C195.987 71.2937 196.262 71.6361 196.443 72.0611L195.652 72.4625C195.542 72.1477 195.361 71.9037 195.109 71.7305C194.857 71.5574 194.542 71.4708 194.164 71.4708C193.881 71.4708 193.633 71.518 193.421 71.6125C193.208 71.699 193.031 71.825 192.889 71.9903C192.748 72.1477 192.641 72.3405 192.571 72.5688C192.5 72.7891 192.464 73.0331 192.464 73.3007V74.3397C192.464 74.8749 192.606 75.3157 192.889 75.662C193.181 76.0004 193.606 76.1696 194.164 76.1696C194.928 76.1696 195.479 75.8155 195.817 75.1071L196.502 75.5675C196.305 76.0083 196.01 76.3585 195.617 76.6183C195.231 76.878 194.747 77.0079 194.164 77.0079ZM200.057 77.0079C199.639 77.0079 199.262 76.9331 198.923 76.7836C198.593 76.634 198.305 76.4215 198.061 76.146C197.825 75.8627 197.64 75.5282 197.506 75.1425C197.38 74.749 197.318 74.3082 197.318 73.8202C197.318 73.3401 197.38 72.9033 197.506 72.5097C197.64 72.1162 197.825 71.7817 198.061 71.5062C198.305 71.2229 198.593 71.0064 198.923 70.8569C199.262 70.7073 199.639 70.6325 200.057 70.6325C200.466 70.6325 200.832 70.7073 201.155 70.8569C201.477 71.0064 201.753 71.215 201.981 71.4826C202.209 71.7423 202.382 72.0532 202.5 72.4153C202.626 72.7773 202.689 73.1748 202.689 73.6077V74.0563H198.309V74.3397C198.309 74.5994 198.349 74.8434 198.427 75.0717C198.514 75.2921 198.632 75.4849 198.781 75.6502C198.939 75.8155 199.128 75.9453 199.348 76.0398C199.576 76.1342 199.832 76.1815 200.116 76.1815C200.501 76.1815 200.836 76.0909 201.119 75.9099C201.41 75.7289 201.635 75.4691 201.792 75.1307L202.465 75.6148C202.268 76.0319 201.961 76.3704 201.544 76.6301C201.127 76.882 200.631 77.0079 200.057 77.0079ZM200.057 71.4236C199.797 71.4236 199.561 71.4708 199.348 71.5652C199.136 71.6518 198.951 71.7777 198.793 71.943C198.644 72.1083 198.526 72.3051 198.439 72.5333C198.353 72.7537 198.309 72.9977 198.309 73.2653V73.348H201.674V73.2181C201.674 72.675 201.524 72.2421 201.225 71.9194C200.934 71.5888 200.545 71.4236 200.057 71.4236Z" fill="#999999"/>
<path d="M190.53 50.373V63.8658H189.687V50.373H190.53Z" fill="#E5E5E5"/>
<circle cx="190.108" cy="49.1082" r="1.6866" fill="#577A92" fill-opacity="0.04" stroke="#E5E5E5" stroke-width="0.843299"/>
<path d="M251.028 76.4043V68.1636H252.019V75.5306H255.526V76.4043H251.028ZM259.023 76.546C258.606 76.546 258.228 76.4712 257.89 76.3217C257.559 76.1721 257.272 75.9596 257.028 75.6841C256.792 75.4008 256.607 75.0663 256.473 74.6806C256.347 74.2871 256.284 73.8463 256.284 73.3583C256.284 72.8782 256.347 72.4414 256.473 72.0478C256.607 71.6543 256.792 71.3198 257.028 71.0443C257.272 70.7609 257.559 70.5445 257.89 70.3949C258.228 70.2454 258.606 70.1706 259.023 70.1706C259.432 70.1706 259.798 70.2454 260.121 70.3949C260.444 70.5445 260.719 70.7531 260.947 71.0207C261.176 71.2804 261.349 71.5913 261.467 71.9534C261.593 72.3154 261.656 72.7129 261.656 73.1458V73.5944H257.276V73.8778C257.276 74.1375 257.315 74.3815 257.394 74.6098C257.48 74.8301 257.598 75.023 257.748 75.1883C257.905 75.3535 258.094 75.4834 258.315 75.5779C258.543 75.6723 258.799 75.7195 259.082 75.7195C259.468 75.7195 259.802 75.629 260.085 75.448C260.377 75.267 260.601 75.0072 260.758 74.6688L261.431 75.1528C261.235 75.57 260.928 75.9084 260.511 76.1682C260.093 76.42 259.598 76.546 259.023 76.546ZM259.023 70.9616C258.763 70.9616 258.527 71.0089 258.315 71.1033C258.102 71.1899 257.917 71.3158 257.76 71.4811C257.61 71.6464 257.492 71.8432 257.405 72.0714C257.319 72.2918 257.276 72.5358 257.276 72.8034V72.8861H260.64V72.7562C260.64 72.2131 260.491 71.7802 260.192 71.4575C259.901 71.1269 259.511 70.9616 259.023 70.9616ZM264.466 76.4043L262.329 70.3123H263.273L264.336 73.3347L264.997 75.4126H265.056L265.717 73.3347L266.803 70.3123H267.712L265.564 76.4043H264.466ZM271.129 76.546C270.712 76.546 270.334 76.4712 269.995 76.3217C269.665 76.1721 269.378 75.9596 269.134 75.6841C268.898 75.4008 268.713 75.0663 268.579 74.6806C268.453 74.2871 268.39 73.8463 268.39 73.3583C268.39 72.8782 268.453 72.4414 268.579 72.0478C268.713 71.6543 268.898 71.3198 269.134 71.0443C269.378 70.7609 269.665 70.5445 269.995 70.3949C270.334 70.2454 270.712 70.1706 271.129 70.1706C271.538 70.1706 271.904 70.2454 272.227 70.3949C272.55 70.5445 272.825 70.7531 273.053 71.0207C273.282 71.2804 273.455 71.5913 273.573 71.9534C273.699 72.3154 273.762 72.7129 273.762 73.1458V73.5944H269.382V73.8778C269.382 74.1375 269.421 74.3815 269.5 74.6098C269.586 74.8301 269.704 75.023 269.854 75.1883C270.011 75.3535 270.2 75.4834 270.421 75.5779C270.649 75.6723 270.905 75.7195 271.188 75.7195C271.574 75.7195 271.908 75.629 272.191 75.448C272.483 75.267 272.707 75.0072 272.864 74.6688L273.537 75.1528C273.341 75.57 273.034 75.9084 272.616 76.1682C272.199 76.42 271.703 76.546 271.129 76.546ZM271.129 70.9616C270.869 70.9616 270.633 71.0089 270.421 71.1033C270.208 71.1899 270.023 71.3158 269.866 71.4811C269.716 71.6464 269.598 71.8432 269.511 72.0714C269.425 72.2918 269.382 72.5358 269.382 72.8034V72.8861H272.746V72.7562C272.746 72.2131 272.597 71.7802 272.298 71.4575C272.006 71.1269 271.617 70.9616 271.129 70.9616ZM275.318 76.4043V70.3123H276.263V71.4339H276.322C276.432 71.1427 276.629 70.8829 276.912 70.6547C277.195 70.4264 277.585 70.3123 278.081 70.3123H278.447V71.2568H277.892C277.38 71.2568 276.979 71.3552 276.688 71.552C276.404 71.7409 276.263 71.9809 276.263 72.2721V76.4043H275.318ZM284.034 76.4043C283.68 76.4043 283.424 76.3098 283.267 76.1209C283.117 75.932 283.023 75.6959 282.984 75.4126H282.925C282.791 75.7904 282.57 76.0737 282.263 76.2626C281.956 76.4515 281.59 76.546 281.165 76.546C280.52 76.546 280.016 76.3807 279.654 76.0501C279.3 75.7195 279.123 75.2709 279.123 74.7042C279.123 74.1296 279.332 73.6889 279.749 73.3819C280.174 73.075 280.831 72.9215 281.72 72.9215H282.925V72.3194C282.925 71.8865 282.807 71.5559 282.57 71.3276C282.334 71.0994 281.972 70.9853 281.484 70.9853C281.114 70.9853 280.803 71.0679 280.552 71.2332C280.308 71.3985 280.103 71.6189 279.938 71.8943L279.371 71.3631C279.536 71.0325 279.8 70.7531 280.162 70.5248C280.524 70.2887 280.98 70.1706 281.531 70.1706C282.271 70.1706 282.846 70.3517 283.255 70.7137C283.664 71.0758 283.869 71.5795 283.869 72.2249V75.5779H284.566V76.4043H284.034ZM281.319 75.7432C281.555 75.7432 281.771 75.7156 281.968 75.6605C282.165 75.6054 282.334 75.5267 282.476 75.4244C282.618 75.3221 282.728 75.204 282.807 75.0702C282.885 74.9364 282.925 74.7908 282.925 74.6334V73.6298H281.673C281.13 73.6298 280.733 73.7086 280.481 73.866C280.237 74.0234 280.115 74.2516 280.115 74.5507V74.7987C280.115 75.0977 280.221 75.3299 280.433 75.4952C280.654 75.6605 280.949 75.7432 281.319 75.7432ZM291.049 77.0772C291.049 77.7069 290.801 78.1674 290.306 78.4586C289.818 78.7577 289.082 78.9072 288.098 78.9072C287.145 78.9072 286.461 78.7773 286.044 78.5176C285.626 78.2579 285.418 77.8879 285.418 77.4078C285.418 77.0772 285.504 76.8175 285.678 76.6286C285.851 76.4476 286.087 76.3138 286.386 76.2272V76.0973C286.024 75.9242 285.843 75.6408 285.843 75.2473C285.843 74.9403 285.941 74.7081 286.138 74.5507C286.335 74.3854 286.587 74.2634 286.894 74.1847V74.1375C286.532 73.9644 286.248 73.7164 286.044 73.3937C285.847 73.071 285.748 72.6972 285.748 72.2721C285.748 71.9652 285.803 71.6818 285.914 71.4221C286.024 71.1624 286.177 70.942 286.374 70.7609C286.579 70.572 286.819 70.4264 287.094 70.3241C287.378 70.2218 287.692 70.1706 288.039 70.1706C288.472 70.1706 288.857 70.2493 289.196 70.4068V70.3005C289.196 70.0644 289.251 69.8715 289.361 69.722C289.471 69.5646 289.652 69.4859 289.904 69.4859H290.813V70.3123H289.656V70.7019C289.877 70.8908 290.046 71.1191 290.164 71.3867C290.29 71.6464 290.353 71.9416 290.353 72.2721C290.353 72.5791 290.298 72.8624 290.187 73.1222C290.077 73.3819 289.92 73.6062 289.715 73.7951C289.518 73.9762 289.278 74.1178 288.995 74.2202C288.712 74.3225 288.397 74.3736 288.051 74.3736C287.854 74.3736 287.657 74.354 287.46 74.3146C287.256 74.3697 287.071 74.4523 286.905 74.5625C286.74 74.6649 286.657 74.8105 286.657 74.9994C286.657 75.1804 286.744 75.3024 286.917 75.3654C287.09 75.4283 287.315 75.4598 287.59 75.4598H288.889C289.644 75.4598 290.191 75.6054 290.53 75.8966C290.876 76.18 291.049 76.5735 291.049 77.0772ZM290.164 77.1481C290.164 76.9041 290.069 76.7073 289.881 76.5578C289.7 76.4161 289.373 76.3453 288.901 76.3453H286.87C286.492 76.5184 286.303 76.7939 286.303 77.1717C286.303 77.4393 286.402 77.6676 286.598 77.8565C286.803 78.0454 287.145 78.1398 287.626 78.1398H288.499C289.027 78.1398 289.436 78.0572 289.727 77.8919C290.018 77.7266 290.164 77.4787 290.164 77.1481ZM288.051 73.618C288.452 73.618 288.771 73.5236 289.007 73.3347C289.243 73.1379 289.361 72.8388 289.361 72.4374V72.1068C289.361 71.7054 289.243 71.4103 289.007 71.2214C288.771 71.0246 288.452 70.9262 288.051 70.9262C287.649 70.9262 287.33 71.0246 287.094 71.2214C286.858 71.4103 286.74 71.7054 286.74 72.1068V72.4374C286.74 72.8388 286.858 73.1379 287.094 73.3347C287.33 73.5236 287.649 73.618 288.051 73.618ZM294.372 76.546C293.955 76.546 293.577 76.4712 293.239 76.3217C292.908 76.1721 292.621 75.9596 292.377 75.6841C292.141 75.4008 291.956 75.0663 291.822 74.6806C291.696 74.2871 291.633 73.8463 291.633 73.3583C291.633 72.8782 291.696 72.4414 291.822 72.0478C291.956 71.6543 292.141 71.3198 292.377 71.0443C292.621 70.7609 292.908 70.5445 293.239 70.3949C293.577 70.2454 293.955 70.1706 294.372 70.1706C294.782 70.1706 295.148 70.2454 295.47 70.3949C295.793 70.5445 296.068 70.7531 296.297 71.0207C296.525 71.2804 296.698 71.5913 296.816 71.9534C296.942 72.3154 297.005 72.7129 297.005 73.1458V73.5944H292.625V73.8778C292.625 74.1375 292.664 74.3815 292.743 74.6098C292.83 74.8301 292.948 75.023 293.097 75.1883C293.255 75.3535 293.444 75.4834 293.664 75.5779C293.892 75.6723 294.148 75.7195 294.431 75.7195C294.817 75.7195 295.152 75.629 295.435 75.448C295.726 75.267 295.95 75.0072 296.108 74.6688L296.781 75.1528C296.584 75.57 296.277 75.9084 295.86 76.1682C295.443 76.42 294.947 76.546 294.372 76.546ZM294.372 70.9616C294.113 70.9616 293.876 71.0089 293.664 71.1033C293.451 71.1899 293.266 71.3158 293.109 71.4811C292.96 71.6464 292.841 71.8432 292.755 72.0714C292.668 72.2918 292.625 72.5358 292.625 72.8034V72.8861H295.99V72.7562C295.99 72.2131 295.84 71.7802 295.541 71.4575C295.25 71.1269 294.86 70.9616 294.372 70.9616Z" fill="#999999"/>
<path d="M272.699 49.9111V63.4039H271.855V49.9111H272.699Z" fill="#E5E5E5"/>
<circle cx="272.277" cy="48.6463" r="1.6866" fill="#577A92" fill-opacity="0.04" stroke="#E5E5E5" stroke-width="0.843299"/>
<path d="M350.213 69.4623H350.154L349.458 70.8436L347.486 74.4327L345.515 70.8436L344.818 69.4623H344.759V76.4043H343.791V68.1636H345.113L347.474 72.6027H347.533L349.906 68.1636H351.182V76.4043H350.213V69.4623ZM357.705 76.4043C357.351 76.4043 357.095 76.3098 356.937 76.1209C356.788 75.932 356.693 75.6959 356.654 75.4126H356.595C356.461 75.7904 356.241 76.0737 355.934 76.2626C355.627 76.4515 355.261 76.546 354.836 76.546C354.19 76.546 353.687 76.3807 353.325 76.0501C352.97 75.7195 352.793 75.2709 352.793 74.7042C352.793 74.1296 353.002 73.6889 353.419 73.3819C353.844 73.075 354.501 72.9215 355.391 72.9215H356.595V72.3194C356.595 71.8865 356.477 71.5559 356.241 71.3276C356.005 71.0994 355.643 70.9853 355.155 70.9853C354.785 70.9853 354.474 71.0679 354.222 71.2332C353.978 71.3985 353.773 71.6189 353.608 71.8943L353.041 71.3631C353.207 71.0325 353.47 70.7531 353.832 70.5248C354.194 70.2887 354.651 70.1706 355.202 70.1706C355.942 70.1706 356.516 70.3517 356.926 70.7137C357.335 71.0758 357.539 71.5795 357.539 72.2249V75.5779H358.236V76.4043H357.705ZM354.989 75.7432C355.225 75.7432 355.442 75.7156 355.639 75.6605C355.835 75.6054 356.005 75.5267 356.146 75.4244C356.288 75.3221 356.398 75.204 356.477 75.0702C356.556 74.9364 356.595 74.7908 356.595 74.6334V73.6298H355.343C354.8 73.6298 354.403 73.7086 354.151 73.866C353.907 74.0234 353.785 74.2516 353.785 74.5507V74.7987C353.785 75.0977 353.891 75.3299 354.104 75.4952C354.324 75.6605 354.619 75.7432 354.989 75.7432ZM359.584 76.4043V70.3123H360.529V71.4339H360.588C360.698 71.1427 360.895 70.8829 361.178 70.6547C361.461 70.4264 361.851 70.3123 362.347 70.3123H362.713V71.2568H362.158C361.646 71.2568 361.245 71.3552 360.954 71.552C360.67 71.7409 360.529 71.9809 360.529 72.2721V76.4043H359.584ZM368.778 77.0772C368.778 77.7069 368.53 78.1674 368.034 78.4586C367.546 78.7577 366.81 78.9072 365.827 78.9072C364.874 78.9072 364.189 78.7773 363.772 78.5176C363.355 78.2579 363.147 77.8879 363.147 77.4078C363.147 77.0772 363.233 76.8175 363.406 76.6286C363.579 76.4476 363.816 76.3138 364.115 76.2272V76.0973C363.753 75.9242 363.572 75.6408 363.572 75.2473C363.572 74.9403 363.67 74.7081 363.867 74.5507C364.063 74.3854 364.315 74.2634 364.622 74.1847V74.1375C364.26 73.9644 363.977 73.7164 363.772 73.3937C363.575 73.071 363.477 72.6972 363.477 72.2721C363.477 71.9652 363.532 71.6818 363.642 71.4221C363.753 71.1624 363.906 70.942 364.103 70.7609C364.307 70.572 364.548 70.4264 364.823 70.3241C365.106 70.2218 365.421 70.1706 365.768 70.1706C366.2 70.1706 366.586 70.2493 366.925 70.4068V70.3005C366.925 70.0644 366.98 69.8715 367.09 69.722C367.2 69.5646 367.381 69.4859 367.633 69.4859H368.542V70.3123H367.385V70.7019C367.605 70.8908 367.775 71.1191 367.893 71.3867C368.019 71.6464 368.082 71.9416 368.082 72.2721C368.082 72.5791 368.026 72.8624 367.916 73.1222C367.806 73.3819 367.649 73.6062 367.444 73.7951C367.247 73.9762 367.007 74.1178 366.724 74.2202C366.44 74.3225 366.126 74.3736 365.779 74.3736C365.583 74.3736 365.386 74.354 365.189 74.3146C364.984 74.3697 364.799 74.4523 364.634 74.5625C364.469 74.6649 364.386 74.8105 364.386 74.9994C364.386 75.1804 364.473 75.3024 364.646 75.3654C364.819 75.4283 365.043 75.4598 365.319 75.4598H366.618C367.373 75.4598 367.92 75.6054 368.259 75.8966C368.605 76.18 368.778 76.5735 368.778 77.0772ZM367.893 77.1481C367.893 76.9041 367.798 76.7073 367.609 76.5578C367.428 76.4161 367.102 76.3453 366.629 76.3453H364.599C364.221 76.5184 364.032 76.7939 364.032 77.1717C364.032 77.4393 364.13 77.6676 364.327 77.8565C364.532 78.0454 364.874 78.1398 365.354 78.1398H366.228C366.755 78.1398 367.165 78.0572 367.456 77.8919C367.747 77.7266 367.893 77.4787 367.893 77.1481ZM365.779 73.618C366.181 73.618 366.499 73.5236 366.736 73.3347C366.972 73.1379 367.09 72.8388 367.09 72.4374V72.1068C367.09 71.7054 366.972 71.4103 366.736 71.2214C366.499 71.0246 366.181 70.9262 365.779 70.9262C365.378 70.9262 365.059 71.0246 364.823 71.2214C364.587 71.4103 364.469 71.7054 364.469 72.1068V72.4374C364.469 72.8388 364.587 73.1379 364.823 73.3347C365.059 73.5236 365.378 73.618 365.779 73.618ZM370.352 68.8838C370.147 68.8838 369.998 68.8365 369.903 68.7421C369.817 68.6398 369.774 68.5099 369.774 68.3525V68.199C369.774 68.0416 369.817 67.9156 369.903 67.8212C369.998 67.7189 370.147 67.6677 370.352 67.6677C370.557 67.6677 370.702 67.7189 370.789 67.8212C370.883 67.9156 370.931 68.0416 370.931 68.199V68.3525C370.931 68.5099 370.883 68.6398 370.789 68.7421C370.702 68.8365 370.557 68.8838 370.352 68.8838ZM369.88 70.3123H370.824V76.4043H369.88V70.3123ZM372.831 76.4043V70.3123H373.776V71.304H373.823C373.973 70.9577 374.181 70.6822 374.449 70.4776C374.724 70.273 375.09 70.1706 375.547 70.1706C376.176 70.1706 376.672 70.3753 377.034 70.7846C377.404 71.186 377.589 71.7566 377.589 72.4964V76.4043H376.645V72.6617C376.645 71.5677 376.184 71.0207 375.263 71.0207C375.075 71.0207 374.89 71.0443 374.709 71.0915C374.535 71.1387 374.378 71.2096 374.236 71.304C374.095 71.3985 373.981 71.5205 373.894 71.67C373.815 71.8117 373.776 71.9809 373.776 72.1777V76.4043H372.831Z" fill="#999999"/>
<path d="M361.245 49.9111V63.4039H360.402V49.9111H361.245Z" fill="#E5E5E5"/>
<circle cx="360.824" cy="48.6463" r="1.6866" fill="#577A92" fill-opacity="0.04" stroke="#E5E5E5" stroke-width="0.843299"/>
<g clip-path="url(#clip0_3023_205930)">
<path d="M14.4354 76.546C13.3886 76.546 12.574 76.1918 11.9915 75.4834C11.4091 74.7672 11.1179 73.7164 11.1179 72.3312C11.1179 70.9459 11.4091 69.8833 11.9915 69.1435C12.574 68.3958 13.3886 68.0219 14.4354 68.0219C15.128 68.0219 15.7065 68.1793 16.1709 68.4942C16.6432 68.809 17.0092 69.2537 17.2689 69.8283L16.4661 70.3123C16.3008 69.8873 16.0489 69.5488 15.7105 69.297C15.372 69.0372 14.947 68.9074 14.4354 68.9074C14.0812 68.9074 13.7624 68.9743 13.4791 69.1081C13.2036 69.2419 12.9675 69.4347 12.7707 69.6866C12.5818 69.9306 12.4362 70.2257 12.3339 70.572C12.2316 70.9105 12.1804 71.2922 12.1804 71.7172V72.9451C12.1804 73.7951 12.3772 74.4602 12.7707 74.9403C13.1643 75.4204 13.7192 75.6605 14.4354 75.6605C14.9627 75.6605 15.4035 75.5267 15.7577 75.2591C16.1119 74.9836 16.3716 74.6216 16.5369 74.1729L17.3279 74.6688C17.0682 75.2512 16.6943 75.7117 16.2063 76.0501C15.7183 76.3807 15.128 76.546 14.4354 76.546ZM21.0716 76.546C20.6623 76.546 20.2884 76.4712 19.95 76.3217C19.6116 76.1721 19.3203 75.9596 19.0763 75.6841C18.8402 75.4008 18.6553 75.0663 18.5214 74.6806C18.3876 74.2871 18.3207 73.8463 18.3207 73.3583C18.3207 72.8782 18.3876 72.4414 18.5214 72.0478C18.6553 71.6543 18.8402 71.3198 19.0763 71.0443C19.3203 70.7609 19.6116 70.5445 19.95 70.3949C20.2884 70.2454 20.6623 70.1706 21.0716 70.1706C21.4809 70.1706 21.8508 70.2454 22.1814 70.3949C22.5198 70.5445 22.811 70.7609 23.055 71.0443C23.299 71.3198 23.4879 71.6543 23.6217 72.0478C23.7555 72.4414 23.8224 72.8782 23.8224 73.3583C23.8224 73.8463 23.7555 74.2871 23.6217 74.6806C23.4879 75.0663 23.299 75.4008 23.055 75.6841C22.811 75.9596 22.5198 76.1721 22.1814 76.3217C21.8508 76.4712 21.4809 76.546 21.0716 76.546ZM21.0716 75.7077C21.5832 75.7077 22.0003 75.5503 22.323 75.2355C22.6457 74.9207 22.8071 74.4405 22.8071 73.7951V72.9215C22.8071 72.2761 22.6457 71.7959 22.323 71.4811C22.0003 71.1663 21.5832 71.0089 21.0716 71.0089C20.56 71.0089 20.1428 71.1663 19.8201 71.4811C19.4974 71.7959 19.3361 72.2761 19.3361 72.9215V73.7951C19.3361 74.4405 19.4974 74.9207 19.8201 75.2355C20.1428 75.5503 20.56 75.7077 21.0716 75.7077ZM25.3758 76.4043V70.3123H26.3203V71.304H26.3675C26.517 70.9577 26.7256 70.6822 26.9932 70.4776C27.2687 70.273 27.6347 70.1706 28.0912 70.1706C28.7209 70.1706 29.2167 70.3753 29.5788 70.7846C29.9487 71.186 30.1337 71.7566 30.1337 72.4964V76.4043H29.1892V72.6617C29.1892 71.5677 28.7287 71.0207 27.8078 71.0207C27.6189 71.0207 27.434 71.0443 27.253 71.0915C27.0798 71.1387 26.9224 71.2096 26.7807 71.304C26.639 71.3985 26.5249 71.5205 26.4383 71.67C26.3596 71.8117 26.3203 71.9809 26.3203 72.1777V76.4043H25.3758ZM33.4318 76.4043C33.1013 76.4043 32.8494 76.3138 32.6762 76.1328C32.5109 75.9439 32.4283 75.6999 32.4283 75.4008V71.1387H31.4248V70.3123H31.9915C32.1961 70.3123 32.3339 70.273 32.4047 70.1942C32.4834 70.1077 32.5228 69.9621 32.5228 69.7574V68.624H33.3728V70.3123H34.7069V71.1387H33.3728V75.5779H34.6125V76.4043H33.4318ZM36.225 76.4043V70.3123H37.1695V71.4339H37.2285C37.3387 71.1427 37.5355 70.8829 37.8188 70.6547C38.1022 70.4264 38.4918 70.3123 38.9877 70.3123H39.3536V71.2568H38.7988C38.2872 71.2568 37.8857 71.3552 37.5945 71.552C37.3112 71.7409 37.1695 71.9809 37.1695 72.2721V76.4043H36.225ZM44.9413 76.4043C44.5871 76.4043 44.3313 76.3098 44.1739 76.1209C44.0243 75.932 43.9299 75.6959 43.8905 75.4126H43.8315C43.6977 75.7904 43.4773 76.0737 43.1704 76.2626C42.8634 76.4515 42.4974 76.546 42.0724 76.546C41.427 76.546 40.9233 76.3807 40.5612 76.0501C40.207 75.7195 40.0299 75.2709 40.0299 74.7042C40.0299 74.1296 40.2385 73.6889 40.6556 73.3819C41.0807 73.075 41.7379 72.9215 42.6273 72.9215H43.8315V72.3194C43.8315 71.8865 43.7135 71.5559 43.4773 71.3276C43.2412 71.0994 42.8791 70.9853 42.3912 70.9853C42.0212 70.9853 41.7103 71.0679 41.4585 71.2332C41.2145 71.3985 41.0098 71.6189 40.8445 71.8943L40.2779 71.3631C40.4431 71.0325 40.7068 70.7531 41.0689 70.5248C41.4309 70.2887 41.8874 70.1706 42.4384 70.1706C43.1782 70.1706 43.7528 70.3517 44.1621 70.7137C44.5714 71.0758 44.776 71.5795 44.776 72.2249V75.5779H45.4726V76.4043H44.9413ZM42.2259 75.7432C42.462 75.7432 42.6784 75.7156 42.8752 75.6605C43.072 75.6054 43.2412 75.5267 43.3829 75.4244C43.5246 75.3221 43.6347 75.204 43.7135 75.0702C43.7922 74.9364 43.8315 74.7908 43.8315 74.6334V73.6298H42.5801C42.037 73.6298 41.6395 73.7086 41.3876 73.866C41.1436 74.0234 41.0216 74.2516 41.0216 74.5507V74.7987C41.0216 75.0977 41.1279 75.3299 41.3404 75.4952C41.5608 75.6605 41.8559 75.7432 42.2259 75.7432ZM49.0874 76.546C48.6624 76.546 48.2806 76.4712 47.9422 76.3217C47.6037 76.1721 47.3165 75.9596 47.0803 75.6841C46.8521 75.4086 46.675 75.0741 46.5491 74.6806C46.431 74.2871 46.372 73.8463 46.372 73.3583C46.372 72.8703 46.431 72.4295 46.5491 72.036C46.675 71.6425 46.8521 71.308 47.0803 71.0325C47.3165 70.757 47.6037 70.5445 47.9422 70.3949C48.2806 70.2454 48.6624 70.1706 49.0874 70.1706C49.6934 70.1706 50.1775 70.3044 50.5395 70.572C50.9095 70.8318 51.185 71.1742 51.366 71.5992L50.575 72.0006C50.4648 71.6858 50.2837 71.4418 50.0319 71.2686C49.78 71.0954 49.4652 71.0089 49.0874 71.0089C48.804 71.0089 48.5561 71.0561 48.3436 71.1505C48.1311 71.2371 47.954 71.3631 47.8123 71.5283C47.6706 71.6858 47.5644 71.8786 47.4936 72.1068C47.4227 72.3272 47.3873 72.5712 47.3873 72.8388V73.8778C47.3873 74.413 47.529 74.8538 47.8123 75.2001C48.1035 75.5385 48.5286 75.7077 49.0874 75.7077C49.8509 75.7077 50.4018 75.3535 50.7403 74.6452L51.425 75.1056C51.2282 75.5464 50.9331 75.8966 50.5395 76.1564C50.1539 76.4161 49.6698 76.546 49.0874 76.546ZM54.1042 76.4043C53.7736 76.4043 53.5217 76.3138 53.3486 76.1328C53.1833 75.9439 53.1007 75.6999 53.1007 75.4008V71.1387H52.0971V70.3123H52.6638C52.8685 70.3123 53.0062 70.273 53.077 70.1942C53.1558 70.1077 53.1951 69.9621 53.1951 69.7574V68.624H54.0452V70.3123H55.3793V71.1387H54.0452V75.5779H55.2848V76.4043H54.1042ZM61.5175 76.546C60.9508 76.546 60.4746 76.4397 60.0889 76.2272C59.7111 76.0068 59.3845 75.7156 59.109 75.3535L59.7819 74.8105C60.0181 75.1096 60.2817 75.3417 60.573 75.507C60.8642 75.6644 61.2026 75.7432 61.5883 75.7432C61.9897 75.7432 62.3006 75.6566 62.521 75.4834C62.7492 75.3103 62.8634 75.0663 62.8634 74.7514C62.8634 74.5153 62.7847 74.3146 62.6272 74.1493C62.4777 73.9762 62.2022 73.8581 61.8008 73.7951L61.3168 73.7243C61.0334 73.6849 60.7737 73.6259 60.5375 73.5472C60.3014 73.4606 60.0928 73.3504 59.9118 73.2166C59.7387 73.075 59.6009 72.9018 59.4986 72.6972C59.4041 72.4925 59.3569 72.2485 59.3569 71.9652C59.3569 71.6661 59.412 71.4063 59.5222 71.186C59.6324 70.9577 59.7819 70.7688 59.9708 70.6193C60.1676 70.4697 60.3998 70.3595 60.6674 70.2887C60.935 70.21 61.2223 70.1706 61.5293 70.1706C62.0251 70.1706 62.4383 70.2572 62.7689 70.4304C63.1074 70.6035 63.4025 70.8436 63.6544 71.1505L63.0286 71.7172C62.8948 71.5283 62.6981 71.3591 62.4383 71.2096C62.1786 71.0522 61.852 70.9735 61.4584 70.9735C61.0649 70.9735 60.7658 71.06 60.5612 71.2332C60.3644 71.3985 60.266 71.6267 60.266 71.9179C60.266 72.217 60.3644 72.4335 60.5612 72.5673C60.7658 72.7011 61.057 72.7995 61.4348 72.8624L61.9071 72.9333C62.5839 73.0356 63.0641 73.2324 63.3474 73.5236C63.6308 73.8069 63.7724 74.1808 63.7724 74.6452C63.7724 75.2355 63.5717 75.6999 63.1703 76.0383C62.7689 76.3767 62.218 76.546 61.5175 76.546ZM65.913 68.8838C65.7083 68.8838 65.5588 68.8365 65.4643 68.7421C65.3777 68.6398 65.3344 68.5099 65.3344 68.3525V68.199C65.3344 68.0416 65.3777 67.9156 65.4643 67.8212C65.5588 67.7189 65.7083 67.6677 65.913 67.6677C66.1176 67.6677 66.2632 67.7189 66.3498 67.8212C66.4442 67.9156 66.4915 68.0416 66.4915 68.199V68.3525C66.4915 68.5099 66.4442 68.6398 66.3498 68.7421C66.2632 68.8365 66.1176 68.8838 65.913 68.8838ZM65.4407 70.3123H66.3852V76.4043H65.4407V70.3123ZM67.7783 76.4043V75.6133L71.2375 71.1387H67.8846V70.3123H72.3827V71.0207L68.8527 75.5779H72.4772V76.4043H67.7783ZM76.0439 76.546C75.6267 76.546 75.2489 76.4712 74.9105 76.3217C74.5799 76.1721 74.2926 75.9596 74.0486 75.6841C73.8125 75.4008 73.6275 75.0663 73.4937 74.6806C73.3678 74.2871 73.3048 73.8463 73.3048 73.3583C73.3048 72.8782 73.3678 72.4414 73.4937 72.0478C73.6275 71.6543 73.8125 71.3198 74.0486 71.0443C74.2926 70.7609 74.5799 70.5445 74.9105 70.3949C75.2489 70.2454 75.6267 70.1706 76.0439 70.1706C76.4531 70.1706 76.8191 70.2454 77.1418 70.3949C77.4645 70.5445 77.74 70.7531 77.9683 71.0207C78.1965 71.2804 78.3697 71.5913 78.4877 71.9534C78.6137 72.3154 78.6766 72.7129 78.6766 73.1458V73.5944H74.2965V73.8778C74.2965 74.1375 74.3359 74.3815 74.4146 74.6098C74.5012 74.8301 74.6192 75.023 74.7688 75.1883C74.9262 75.3535 75.1151 75.4834 75.3355 75.5779C75.5637 75.6723 75.8195 75.7195 76.1029 75.7195C76.4886 75.7195 76.8231 75.629 77.1064 75.448C77.3976 75.267 77.622 75.0072 77.7794 74.6688L78.4523 75.1528C78.2556 75.57 77.9486 75.9084 77.5314 76.1682C77.1143 76.42 76.6184 76.546 76.0439 76.546ZM76.0439 70.9616C75.7841 70.9616 75.548 71.0089 75.3355 71.1033C75.123 71.1899 74.938 71.3158 74.7806 71.4811C74.6311 71.6464 74.513 71.8432 74.4264 72.0714C74.3398 72.2918 74.2965 72.5358 74.2965 72.8034V72.8861H77.6613V72.7562C77.6613 72.2131 77.5118 71.7802 77.2127 71.4575C76.9215 71.1269 76.5319 70.9616 76.0439 70.9616Z" fill="#999999"/>
<path d="M42.4781 49.9111V63.4039H41.6348V49.9111H42.4781Z" fill="#E5E5E5"/>
<circle cx="42.0565" cy="48.6463" r="1.6866" fill="#577A92" fill-opacity="0.04" stroke="#E5E5E5" stroke-width="0.843299"/>
</g>
<g clip-path="url(#clip1_3023_205930)">
<path d="M106.171 76.4043L103.432 68.1636H104.494L105.852 72.3194L106.761 75.4126H106.82L107.753 72.3194L109.123 68.1636H110.15L107.375 76.4043H106.171ZM113.339 76.546C112.929 76.546 112.555 76.4712 112.217 76.3217C111.878 76.1721 111.587 75.9596 111.343 75.6841C111.107 75.4008 110.922 75.0663 110.788 74.6806C110.655 74.2871 110.588 73.8463 110.588 73.3583C110.588 72.8782 110.655 72.4414 110.788 72.0478C110.922 71.6543 111.107 71.3198 111.343 71.0443C111.587 70.7609 111.878 70.5445 112.217 70.3949C112.555 70.2454 112.929 70.1706 113.339 70.1706C113.748 70.1706 114.118 70.2454 114.448 70.3949C114.787 70.5445 115.078 70.7609 115.322 71.0443C115.566 71.3198 115.755 71.6543 115.889 72.0478C116.022 72.4414 116.089 72.8782 116.089 73.3583C116.089 73.8463 116.022 74.2871 115.889 74.6806C115.755 75.0663 115.566 75.4008 115.322 75.6841C115.078 75.9596 114.787 76.1721 114.448 76.3217C114.118 76.4712 113.748 76.546 113.339 76.546ZM113.339 75.7077C113.85 75.7077 114.267 75.5503 114.59 75.2355C114.913 74.9207 115.074 74.4405 115.074 73.7951V72.9215C115.074 72.2761 114.913 71.7959 114.59 71.4811C114.267 71.1663 113.85 71.0089 113.339 71.0089C112.827 71.0089 112.41 71.1663 112.087 71.4811C111.764 71.7959 111.603 72.2761 111.603 72.9215V73.7951C111.603 74.4405 111.764 74.9207 112.087 75.2355C112.41 75.5503 112.827 75.7077 113.339 75.7077ZM118.646 76.4043C118.316 76.4043 118.064 76.3138 117.891 76.1328C117.725 75.9439 117.643 75.7077 117.643 75.4244V67.6677H118.587V75.5779H119.484V76.4043H118.646ZM124.614 75.4126H124.567C124.504 75.5543 124.425 75.6959 124.33 75.8376C124.244 75.9714 124.134 76.0934 124 76.2036C123.866 76.3059 123.705 76.3886 123.516 76.4515C123.327 76.5145 123.107 76.546 122.855 76.546C122.225 76.546 121.725 76.3453 121.355 75.9439C120.985 75.5346 120.8 74.96 120.8 74.2202V70.3123H121.745V74.0549C121.745 75.1489 122.209 75.6959 123.138 75.6959C123.327 75.6959 123.508 75.6723 123.681 75.6251C123.862 75.5779 124.02 75.507 124.153 75.4126C124.295 75.3181 124.405 75.2001 124.484 75.0584C124.57 74.9088 124.614 74.7318 124.614 74.5271V70.3123H125.558V76.4043H124.614V75.4126ZM127.57 76.4043V70.3123H128.514V71.304H128.561C128.632 71.1466 128.711 71.001 128.797 70.8672C128.892 70.7255 129.002 70.6035 129.128 70.5012C129.262 70.3989 129.415 70.3202 129.588 70.2651C129.762 70.2021 129.966 70.1706 130.202 70.1706C130.604 70.1706 130.974 70.269 131.312 70.4658C131.651 70.6547 131.902 70.9695 132.068 71.4103H132.091C132.202 71.0797 132.406 70.7924 132.705 70.5484C133.012 70.2966 133.425 70.1706 133.945 70.1706C134.567 70.1706 135.051 70.3753 135.397 70.7846C135.751 71.186 135.928 71.7566 135.928 72.4964V76.4043H134.984V72.6617C134.984 72.1187 134.878 71.7094 134.665 71.4339C134.453 71.1584 134.114 71.0207 133.65 71.0207C133.461 71.0207 133.28 71.0443 133.107 71.0915C132.941 71.1387 132.792 71.2096 132.658 71.304C132.524 71.3985 132.418 71.5205 132.339 71.67C132.261 71.8117 132.221 71.9809 132.221 72.1777V76.4043H131.277V72.6617C131.277 72.1187 131.17 71.7094 130.958 71.4339C130.745 71.1584 130.415 71.0207 129.966 71.0207C129.777 71.0207 129.596 71.0443 129.423 71.0915C129.25 71.1387 129.097 71.2096 128.963 71.304C128.829 71.3985 128.719 71.5205 128.632 71.67C128.553 71.8117 128.514 71.9809 128.514 72.1777V76.4043H127.57ZM140.167 76.546C139.75 76.546 139.372 76.4712 139.034 76.3217C138.703 76.1721 138.416 75.9596 138.172 75.6841C137.936 75.4008 137.751 75.0663 137.617 74.6806C137.491 74.2871 137.428 73.8463 137.428 73.3583C137.428 72.8782 137.491 72.4414 137.617 72.0478C137.751 71.6543 137.936 71.3198 138.172 71.0443C138.416 70.7609 138.703 70.5445 139.034 70.3949C139.372 70.2454 139.75 70.1706 140.167 70.1706C140.577 70.1706 140.943 70.2454 141.265 70.3949C141.588 70.5445 141.863 70.7531 142.092 71.0207C142.32 71.2804 142.493 71.5913 142.611 71.9534C142.737 72.3154 142.8 72.7129 142.8 73.1458V73.5944H138.42V73.8778C138.42 74.1375 138.459 74.3815 138.538 74.6098C138.625 74.8301 138.743 75.023 138.892 75.1883C139.05 75.3535 139.239 75.4834 139.459 75.5779C139.687 75.6723 139.943 75.7195 140.226 75.7195C140.612 75.7195 140.947 75.629 141.23 75.448C141.521 75.267 141.745 75.0072 141.903 74.6688L142.576 75.1528C142.379 75.57 142.072 75.9084 141.655 76.1682C141.238 76.42 140.742 76.546 140.167 76.546ZM140.167 70.9616C139.908 70.9616 139.671 71.0089 139.459 71.1033C139.246 71.1899 139.061 71.3158 138.904 71.4811C138.755 71.6464 138.636 71.8432 138.55 72.0714C138.463 72.2918 138.42 72.5358 138.42 72.8034V72.8861H141.785V72.7562C141.785 72.2131 141.635 71.7802 141.336 71.4575C141.045 71.1269 140.655 70.9616 140.167 70.9616Z" fill="#999999"/>
<path d="M115.845 49.9111V63.4039H115.002V49.9111H115.845Z" fill="#E5E5E5"/>
<circle cx="115.424" cy="48.6463" r="1.6866" fill="#577A92" fill-opacity="0.04" stroke="#E5E5E5" stroke-width="0.843299"/>
</g>
<defs>
<clipPath id="clip0_3023_205930">
<rect width="89.3897" height="34.5753" fill="white" transform="translate(10.4331 46.5381)"/>
</clipPath>
<clipPath id="clip1_3023_205930">
<rect width="43.0082" height="34.5753" fill="white" transform="translate(103.196 46.5381)"/>
</clipPath>
</defs>
</svg>
