<svg width="20" height="12" viewBox="0 0 20 12" fill="none" xmlns="http://www.w3.org/2000/svg">
<g opacity="0.5">
<rect width="19.2018" height="12" rx="5" fill="#FF444F"/>
<path d="M6.936 7.31412C6.98 7.31812 7.03 7.32212 7.086 7.32612C7.146 7.32612 7.216 7.32612 7.296 7.32612C7.764 7.32612 8.11 7.20812 8.334 6.97212C8.562 6.73612 8.676 6.41012 8.676 5.99412C8.676 5.55812 8.568 5.22812 8.352 5.00412C8.136 4.78012 7.794 4.66812 7.326 4.66812C7.262 4.66812 7.196 4.67012 7.128 4.67412C7.06 4.67412 6.996 4.67812 6.936 4.68612V7.31412ZM9.642 5.99412C9.642 6.35412 9.586 6.66812 9.474 6.93612C9.362 7.20412 9.202 7.42612 8.994 7.60212C8.79 7.77812 8.54 7.91012 8.244 7.99812C7.948 8.08612 7.616 8.13012 7.248 8.13012C7.08 8.13012 6.884 8.12212 6.66 8.10612C6.436 8.09412 6.216 8.06612 6 8.02212V3.97212C6.216 3.93212 6.44 3.90612 6.672 3.89412C6.908 3.87812 7.11 3.87012 7.278 3.87012C7.634 3.87012 7.956 3.91012 8.244 3.99012C8.536 4.07012 8.786 4.19612 8.994 4.36812C9.202 4.54012 9.362 4.76012 9.474 5.02812C9.586 5.29612 9.642 5.61812 9.642 5.99412Z" fill="white"/>
<path d="M13.2018 7.27212V8.07612H10.4238V3.91812H11.3598V7.27212H13.2018Z" fill="white"/>
</g>
</svg>
