<svg width="72" height="96" viewBox="0 0 72 96" fill="none" xmlns="http://www.w3.org/2000/svg">
<path d="M68.4937 23.4938L48.525 3.525C46.2562 1.26412 43.2188 0 40.0312 0H12C5.37188 0 0 5.37375 0 12L0.00121875 84C0.00121875 90.6263 5.37309 96 12.0012 96H60C66.6281 96 72 90.6263 72 84V31.9688C72 28.7812 70.7437 25.7438 68.4937 23.4938ZM42 6.39C42.8394 6.68288 43.6249 7.11075 44.2725 7.75819L64.2412 27.7269C64.8937 28.3687 65.325 29.1562 65.6062 30H45C43.35 30 42 28.65 42 27V6.39ZM66 84C66 87.3075 63.3075 90 60 90H12C8.6925 90 6 87.3075 6 84V12C6 8.6925 8.6925 6 12 6H36V27C36 31.9688 40.0312 36 45 36H66V84ZM15 57C15 66.9262 23.0737 75 33 75C36.8812 75 40.455 73.7374 43.3988 71.64L54.8794 83.1206C55.4625 83.7 56.2313 84 57 84C57.7687 84 58.5352 83.7071 59.1206 83.121C60.2925 81.9491 60.2925 80.0497 59.1206 78.8797L47.64 67.3991C49.7438 64.4625 51 60.8812 51 57C51 47.0737 42.9263 39 33 39C23.0737 39 15 47.0812 15 57ZM45 57C45 63.615 39.615 69 33 69C26.385 69 21 63.615 21 57C21 50.385 26.385 45 33 45C39.615 45 45 50.3812 45 57Z" fill="#414652" fill-opacity="0.5"/>
</svg>
