<svg xmlns="http://www.w3.org/2000/svg" width="250" viewBox="0 0 858.732 108.884"><g fill="#040606"><path d="M21.652 62.781v20.88h16.243c6.187.386 11.597-3.868 11.988-10.056v-.382c0-6.575-5.414-10.828-13.535-10.828zm0-30.547v18.559h15.082c5.414.387 10.442-3.48 10.828-8.895v-.77c0-5.026-5.027-8.894-11.988-8.894zM0 19.86h29.387c13.148 0 17.789.387 21.652 1.934 7.348 3.48 11.602 10.441 11.602 18.562 0 7.73-2.32 11.598-10.055 15.465 8.121 2.707 13.535 10.442 12.762 18.946 0 12.761-10.055 21.27-24.746 21.27H0V83.66h5.8V32.234H0V19.86M114.84 60.074c0-6.574-5.41-11.601-11.598-11.601h-.387c-6.574 0-11.988 5.027-13.148 11.215zm14.695 17.012c-2.707 12.762-13.148 20.496-27.066 20.496-16.242 0-28.227-12.762-28.227-30.547 0-17.789 11.985-30.547 28.227-30.547 8.89 0 17.398 4.25 22.426 11.985 3.867 6.574 6.187 13.922 5.8 21.656H88.934c1.546 15.078 11.214 15.851 13.921 15.851 5.415.387 10.442-3.48 11.989-8.507l14.691-.387M177.867 58.14h26.684v37.895h-8.508V84.047c-1.547 2.707-3.48 5.027-5.8 7.348-5.028 4.253-11.216 6.574-17.4 6.574-17.788 0-31.706-17.403-31.706-39.828 0-22.426 13.918-40.215 31.32-40.215 9.664-.387 18.172 5.027 22.813 13.148V19.086h8.12v24.36h-8.507c-.774-3.477-2.32-6.571-4.254-9.278-3.867-5.027-10.055-8.121-16.238-8.508-9.282 0-23.203 8.121-23.203 31.707 0 18.563 10.054 32.094 23.203 32.094 10.437-.387 18.945-8.121 20.879-18.176.386-1.93.386-4.25.386-6.183H177.48l.387-6.961M252.883 66.262l-5.414.773c-17.785 2.32-23.586 5.41-23.586 12.758.387 6.574 5.8 11.215 11.988 11.215 8.504-.387 15.852-6.574 17.012-15.082zm16.629 30.16h-16.63V85.98c-3.866 7.348-11.6 11.602-19.718 11.602-9.668.773-18.176-6.96-18.95-16.629v-1.16c0-11.211 9.669-16.625 32.868-18.945l5.414-.387v-5.8c0-6.575-5.027-10.825-13.144-10.825-8.122 0-12.375 2.703-13.922 10.437h-8.895c.774-4.64 3.094-8.894 6.574-11.988 4.254-3.476 10.055-5.023 15.465-5.023 11.988 0 22.043 5.414 22.043 20.105v32.094h8.121l.774 6.96M293.871 48.86c2.707-3.868 7.734-11.985 18.559-11.985 7.734 0 11.988 3.863 13.535 11.984 1.547-2.707 3.094-5.023 5.414-7.343 3.48-3.094 7.73-5.028 12.371-5.028 8.895 0 13.922 5.797 13.922 15.852v36.734h8.117v6.961h-16.238V55.434c0-8.121-2.707-11.989-8.508-11.989-10.05 0-15.465 11.989-15.465 16.242v29.387h8.508v6.961H317.07V54.273c0-7.347-2.707-10.437-8.507-10.437-8.891 0-15.465 11.21-15.465 16.625v29h8.507v6.96H276.47v-6.96h8.508V44.605h-8.508v-6.957h17.015l.387 11.211M390.926 71.676c0 9.664 7.347 17.398 16.625 18.172 10.054 0 16.242-8.895 16.242-23.2 0-14.308-6.574-22.812-16.242-22.812-8.504 0-17.012 9.277-17.012 17.785zm-16.242-55.297h16.242v33.64c2.32-4.253 8.89-12.757 18.945-12.757 13.149 0 23.2 13.531 23.2 30.547 0 15.851-10.825 29.386-23.2 29.386-10.437 0-15.465-6.96-18.945-11.601v10.828h-16.63V89.46h8.122V23.34h-7.734v-6.961M438.031 16.379h16.63V89.46h7.734v6.96h-24.75v-6.96h8.507V22.953h-8.12V16.38M510.727 62.395c0-5.415-1.934-10.442-5.801-14.696-2.703-2.32-6.188-3.863-9.664-3.48-7.348.386-13.535 5.414-15.469 12.375-.387 1.933-1.16 3.867-1.16 5.8zm8.507 17.785c-.773 3.48-2.32 6.187-4.64 8.894-4.64 5.414-11.211 8.508-18.559 8.508-15.855 0-27.066-12.375-27.066-30.16 0-17.016 11.21-30.16 25.52-30.16 14.304 0 25.906 11.21 25.906 31.707h-42.149c.774 8.504 2.707 13.531 6.574 17.398 3.094 2.707 6.961 4.254 10.828 4.254 6.575 0 10.825-3.094 13.918-10.055l9.668-.386M565.246 34.168l-10.05 34.027H575.3zm-9.277-14.309h18.558l21.27 64.188h5.797v12.375h-17.399l-5.027-16.629h-27.066l-5.028 16.629h-17.789V84.047h5.805l20.879-64.188M600.82 38.035h23.203v11.211h-5.8l8.12 34.414 9.665-45.625h15.082l9.668 44.852 7.73-33.64h-5.8V38.034h23.203v11.211h-5.028l-12.375 46.79h-15.465l-9.668-40.216-9.28 40.215h-15.466l-12.761-46.789h-5.028v-11.21M726.879 68.969c-13.535 1.16-22.43 2.316-22.43 10.437 0 4.64 3.867 7.735 9.668 7.735 6.961 0 12.762-5.414 13.145-12.375v-5.797zm13.918 16.238h5.027v11.215h-18.176V89.46c-4.253 5.414-10.824 8.121-17.785 8.121-11.601 0-20.496-7.734-20.496-18.176 0-17.011 19.336-18.945 37.895-20.492 0-8.894-3.09-11.602-10.438-11.602-7.347 0-10.054 3.481-10.441 8.895v.387l-13.918-.387c.77-11.602 10.05-18.945 23.972-18.945 16.239 0 24.747 7.343 24.747 20.492l-.387 27.453M773.238 47.313c3.867-7.344 8.121-10.438 14.696-10.438 2.32 0 4.254.387 6.574.773V51.18c-2.32-.387-4.64-.774-6.961-.774-7.348-.386-13.535 5.028-13.918 11.989V84.82h6.957v11.215H753.52V84.82h5.8V49.246h-5.8v-11.21h19.718v9.276M837.813 60.074c0-6.574-5.41-11.601-11.598-11.601h-.387c-6.574 0-11.988 5.027-13.148 11.215zm15.082 17.012c-2.707 12.762-13.149 20.496-27.067 20.496-16.242 0-28.226-12.762-28.226-30.547 0-17.789 11.984-30.547 28.226-30.547 8.895 0 17.399 4.25 22.426 11.985 3.867 6.574 6.187 13.922 5.8 21.656h-41.761c1.547 15.078 11.215 15.851 13.922 15.851 5.414.387 10.437-3.48 11.984-8.507l14.696-.387"/></g></svg>