<svg xmlns="http://www.w3.org/2000/svg" width="32" height="32"><g fill="none" fill-rule="evenodd"><path d="M0 0h32v32H0z"/><path fill="#333" d="M29.714 3A2.285 2.285 0 0132 5.286v21.428A2.285 2.285 0 0129.714 29H2.286A2.285 2.285 0 010 26.714V5.286A2.285 2.285 0 012.286 3h27.428zm-.571 4.622H2.857a.571.571 0 00-.564.479l-.007.093v17.923c0 .284.207.52.478.564l.093.008h26.286c.284 0 .52-.207.564-.479l.007-.093V8.194a.572.572 0 00-.571-.572zM22.71 11.09a.57.57 0 01.485.873l-.062.082-5.272 5.815a.566.566 0 00-.141.3l-.007.084v5.206a.573.573 0 01-.743.545l-.086-.035-2.286-1.156a.57.57 0 01-.306-.419l-.007-.091v-4.05a.571.571 0 00-.096-.317l-.052-.067-5.272-5.815a.573.573 0 01.331-.948l.092-.007H22.71zm.146-6.933c-.631 0-1.143.517-1.143 1.155s.512 1.156 1.143 1.156S24 5.949 24 5.31a1.15 1.15 0 00-1.143-1.155zm4.572 0c-.632 0-1.143.517-1.143 1.155s.511 1.156 1.143 1.156a1.15 1.15 0 001.142-1.156c0-.638-.511-1.155-1.142-1.155zm-9.143 0c-.631 0-1.143.517-1.143 1.155s.512 1.156 1.143 1.156a1.15 1.15 0 001.143-1.156 1.15 1.15 0 00-1.143-1.155z"/></g></svg>