<svg xmlns="http://www.w3.org/2000/svg" width="64" height="64"><defs><linearGradient id="a" x1="0%" x2="100%" y1="100%" y2="0%"><stop offset="0%" stop-color="#FF444F"/><stop offset="100%" stop-color="#FF6444"/></linearGradient></defs><g fill="none" fill-rule="evenodd"><path d="M0 0h64v64H0z"/><path fill="url(#a)" d="M13 14a1 1 0 01.117 1.993L13 16H4v38.999h2V20c0-1.054.816-1.918 1.85-1.995L8 18h5a1 1 0 01.117 1.993L13 20H8v34.999L26 55a1 1 0 01.832.445l1.704 2.556 6.928.01 1.703-2.564A.997.997 0 0138 55l18-.001V20h-5a1 1 0 010-2h5a2 2 0 012 2v34.999h2V16h-9a1 1 0 010-2h9c1.16 0 2 .816 2 2v39c1.153 0 2 .818 2 2v5c0 1.182-.847 2-2 2H2c-1.153 0-2-.818-2-2v-5c0-1.182.847-2 2-2V16c0-1.13.765-1.925 1.844-1.995L4 14h9zM3.974 57H2v5h60v-5h-2l-.017-.001L38.536 57l-1.703 2.566a1 1 0 01-.835.447l-8-.013a1 1 0 01-.83-.445L25.465 57l-21.448-.001L4 57h-.026zm31.49 1.012l-.297.448.835-.447-.538-.001zM32 0c8.18 0 14.83 6.547 14.997 14.686L47 15a1 1 0 011 1v20a1 1 0 01-1 1H17a1 1 0 01-1-1V16a1 1 0 011-1l.003-.314C17.17 6.546 23.821 0 32 0zm14 17H18v18h28V17zm-14 3c2.21 0 4 1.79 4 4a4.002 4.002 0 01-3.007 3.876l.005.061L33 28v4a1 1 0 01-1.993.117L31 32v-4c0-.042.003-.084.008-.125A4 4 0 0132 20zm0 2a2 2 0 10-.001 3.999A2 2 0 0032 22zm0-20c-7.077 0-12.833 5.655-12.996 12.693L19 15h2c0-6.075 4.925-11 11-11 5.979 0 10.843 4.77 10.996 10.712L43 15h2c0-7.18-5.82-13-13-13zm0 4a9 9 0 00-8.996 8.735L23 15h18a9 9 0 00-9-9z"/></g></svg>