<svg xmlns="http://www.w3.org/2000/svg" width="231" height="145"><defs><linearGradient id="a" x1="50%" x2="50%" y1="0%" y2="100%"><stop offset="0%" stop-color="#FF6444"/><stop offset="100%" stop-color="#FF444F"/></linearGradient></defs><g fill="none"><path fill="#E5E5E5" d="M54.5 144.4c-18.267 0-31.8-6.333-40.6-19S.7 95 .7 72.2C.7 49.4 5.1 31.667 13.9 19 22.7 6.333 36.233 0 54.5 0c18.267 0 31.8 6.333 40.6 19s13.2 30.4 13.2 53.2c0 22.8-4.4 40.533-13.2 53.2-8.8 12.667-22.333 19-40.6 19zm0-25.4c8 0 13.533-2.933 16.6-8.8 3.067-5.867 4.6-14.133 4.6-24.8V59c0-10.667-1.533-18.933-4.6-24.8-3.067-5.867-8.6-8.8-16.6-8.8-8 0-13.533 2.933-16.6 8.8-3.067 5.867-4.6 14.133-4.6 24.8v26.4c0 10.667 1.533 18.933 4.6 24.8 3.067 5.867 8.6 8.8 16.6 8.8zm78.8 23v-24.2h37.6V24.2h-1.8l-28.4 37.2-19.2-15 33.4-44h46v115.4h29.6V142h-97.2z" opacity=".295"/><path fill="url(#a)" d="M48.705 40a2.457 2.457 0 012.45 2.299l.005.162-.013 1.887 3.593.001c.69-.058 1.369.19 1.857.679.445.444.69 1.046.69 1.606l-.007.166v9.09l-.003 4.66a2.364 2.364 0 01-.687 1.834 2.346 2.346 0 01-1.597.694l-.168-.005-20.342-.001-.11.007A2.33 2.33 0 0132 60.707l.007-.104V46.764c0-1.377.856-2.34 2.274-2.414l.18-.005 4.516.001v-1.922a2.457 2.457 0 012.295-2.419l.16-.005h7.273zM48 4c1.083 0 2 .876 2 2v30c0 .562-.51 1-1 1s-.96-.438-.96-1L48 6H2v55h26a1.001 1.001 0 010 2H2c-1.083 0-2-.876-2-2V6c0-1.124.917-2 2-2zM37.643 56.89h-3.637v3.728l-.004.101a.327.327 0 00.286.358h.072l.101-.004 20.433.002a.362.362 0 00.282-.106.37.37 0 00.104-.255l-.001-3.824h-3.636v1.274a1 1 0 01-1.993.116l-.007-.116V56.89h-10v1.274a1 1 0 01-1.993.116l-.007-.116V56.89zm17.284-10.546l-20.466.001c-.358 0-.44.053-.453.329l-.001.09-.001 8.126h3.637v-1.545a1 1 0 011.993-.116l.007.116v1.545h10v-1.545a1 1 0 011.993-.116l.007.116v1.545h3.636l.004-8.175a.344.344 0 00-.1-.273c-.057-.058-.133-.093-.256-.098zM48.705 42h-7.273a.455.455 0 00-.446.36l-.008.076-.001 1.91 8.17.002.013-1.893a.455.455 0 00-.373-.448L48.705 42zm-16.728-3c.565 0 1.023.448 1.023 1s-.458 1-1.023 1H12.023C11.458 41 11 40.552 11 40s.458-1 1.023-1zM52.96 0C54.087 0 55 .8 55 1.788v38.23c0 .494-.437.982-1 .982s-1-.488-1-.981V1.963l-47.96.016v.591c0 .494-.457.894-1.02.894-.564 0-1.02-.4-1.02-.894v-.782C3 .8 3.913 0 5.04 0zM31 31a1 1 0 010 2H12a1 1 0 010-2zm4.98-10c.564 0 1.02.448 1.02 1s-.456 1-1.02 1H12.02c-.564 0-1.02-.448-1.02-1s.456-1 1.02-1z" transform="translate(24 55)"/></g></svg>