<svg width="48" height="48" fill="none" xmlns="http://www.w3.org/2000/svg"><path d="M40 39H8a2 2 0 1 0 0 4h32a2 2 0 1 0 0-4ZM17 12H8a2 2 0 1 0 0 4h9a2 2 0 1 0 0-4Zm20.95 4.29-3.54-3.54a.996.996 0 0 0-1.41 0l-1.41 1.41a.996.996 0 0 0 0 1.41l2.83 2.83c.39.39.39 1.02 0 1.41l-1.41 1.41a.996.996 0 0 1-1.41 0l-3.54-3.54m7.77-3.51 1.41-1.41m-7.07 7.07-1.41 1.41" stroke="#fff" stroke-width="2" stroke-linecap="round" stroke-linejoin="round"/><path d="M33 27c5.523 0 10-4.477 10-10S38.523 7 33 7s-10 4.477-10 10 4.477 10 10 10Zm-7 3-3 3m-1.5-4.5-3.96 3.96a5.003 5.003 0 0 1-7.07 0L7.01 29M20 24l-3 3" stroke="#fff" stroke-width="2" stroke-linecap="round" stroke-linejoin="round"/></svg>