<svg width="48" height="48" fill="none" xmlns="http://www.w3.org/2000/svg"><path d="M31 16H9a4 4 0 0 0-4 4v19a4 4 0 0 0 4 4h22a4 4 0 0 0 4-4V20a4 4 0 0 0-4-4Zm-19-2v4m16 0v-4m-8 0v4" stroke="#414652" stroke-width="2" stroke-linecap="round" stroke-linejoin="round"/><path d="M11 24c-.55 0-1 .45-1 1s.45 1 1 1 1-.45 1-1-.45-1-1-1Zm6 0c-.55 0-1 .45-1 1s.45 1 1 1 1-.45 1-1-.45-1-1-1Zm6 0c-.55 0-1 .45-1 1s.45 1 1 1 1-.45 1-1-.45-1-1-1Zm6 0c-.55 0-1 .45-1 1s.45 1 1 1 1-.45 1-1-.45-1-1-1Zm-18 6c-.55 0-1 .45-1 1s.45 1 1 1 1-.45 1-1-.45-1-1-1Zm6 0c-.55 0-1 .45-1 1s.45 1 1 1 1-.45 1-1-.45-1-1-1Zm6 0c-.55 0-1 .45-1 1s.45 1 1 1 1-.45 1-1-.45-1-1-1Zm6 0c-.55 0-1 .45-1 1s.45 1 1 1 1-.45 1-1-.45-1-1-1Zm-18 6c-.55 0-1 .45-1 1s.45 1 1 1 1-.45 1-1-.45-1-1-1Zm6 0c-.55 0-1 .45-1 1s.45 1 1 1 1-.45 1-1-.45-1-1-1Zm6 0c-.55 0-1 .45-1 1s.45 1 1 1 1-.45 1-1-.45-1-1-1Zm6 0c-.55 0-1 .45-1 1s.45 1 1 1 1-.45 1-1-.45-1-1-1Z" fill="#414652"/><path d="M39 10c.17-.5.33-1 .5-1.5.83-.17 1.67-.33 2.5-.5" stroke="#414652" stroke-width="2" stroke-linecap="round" stroke-linejoin="round"/><path d="M39.5 14a5.5 5.5 0 1 0 0-11 5.5 5.5 0 0 0 0 11Z" stroke="#414652" stroke-width="2" stroke-linecap="round" stroke-linejoin="round"/></svg>