<svg xmlns="http://www.w3.org/2000/svg" width="32" height="32"><g fill="none" fill-rule="evenodd"><path d="M0 0h32v32H0z"/><path d="M28.664 25.917a4.761 4.761 0 0 1-2.915 3.748c-.77.32-1.602.416-2.436.32-.8-.096-1.602-.353-2.434-.833-1.152-.642-2.307-1.633-3.652-3.107 2.114-2.595 3.396-4.965 3.876-7.08.224-.992.257-1.89.16-2.723a5.21 5.21 0 0 0-.864-2.179c-.993-1.44-2.66-2.274-4.517-2.274-1.858 0-3.524.865-4.517 2.274a5.206 5.206 0 0 0-.865 2.179 6.664 6.664 0 0 0 .16 2.724c.48 2.114 1.793 4.517 3.876 7.11-1.314 1.474-2.498 2.467-3.652 3.108-.834.48-1.634.737-2.434.833a5.117 5.117 0 0 1-2.434-.32 4.76 4.76 0 0 1-2.915-3.748c-.096-.8-.031-1.6.288-2.498.096-.32.257-.64.417-1.024.224-.512.48-1.057.736-1.602l.033-.065a349.313 349.313 0 0 1 7.048-14.384l.095-.193c.257-.479.513-.993.77-1.473.256-.513.544-.993.897-1.41.673-.769 1.57-1.186 2.562-1.186.993 0 1.89.417 2.563 1.186.352.417.64.897.897 1.41.257.48.512.993.77 1.472l.096.193a423.515 423.515 0 0 1 7.015 14.415v.032c.257.512.481 1.09.737 1.602.16.385.32.705.416 1.024.256.835.351 1.635.223 2.469zM15.882 24.41c-1.73-2.179-2.851-4.229-3.236-5.958-.16-.738-.193-1.378-.096-1.955.064-.512.257-.961.512-1.345.61-.865 1.634-1.41 2.82-1.41 1.185 0 2.242.514 2.819 1.41.257.385.448.833.512 1.345.096.577.064 1.25-.096 1.955-.383 1.698-1.505 3.748-3.235 5.958zm14.448-1.665c-.16-.384-.32-.8-.48-1.153-.258-.576-.513-1.121-.738-1.633l-.032-.032A333 333 0 0 0 22 5.447l-.095-.192c-.257-.481-.512-.993-.769-1.505-.32-.577-.64-1.186-1.153-1.763C18.958.705 17.483 0 15.914 0c-1.602 0-3.043.705-4.101 1.922-.481.576-.834 1.185-1.153 1.762-.257.512-.512 1.024-.77 1.505l-.095.191c-2.467 4.805-4.87 9.675-7.08 14.48l-.03.064c-.225.512-.481 1.057-.738 1.634-.172.38-.332.764-.481 1.153-.417 1.185-.545 2.307-.385 3.46a6.807 6.807 0 0 0 4.164 5.317A6.587 6.587 0 0 0 7.841 32a8.47 8.47 0 0 0 4.036-1.153c1.314-.736 2.562-1.793 3.972-3.331 1.41 1.538 2.69 2.595 3.972 3.331 1.057.61 2.145.96 3.203 1.089.257.033.576.064.833.064.897 0 1.793-.16 2.595-.512 2.243-.898 3.812-2.948 4.165-5.318.257-1.12.128-2.24-.287-3.425z" fill="#FF5A60" fill-rule="nonzero"/></g></svg>