<svg width="48" height="48" fill="none" xmlns="http://www.w3.org/2000/svg"><path d="M11 33h-1a2 2 0 0 0-2 2v6a2 2 0 0 0 2 2h1a2 2 0 0 0 2-2v-6a2 2 0 0 0-2-2Zm9-8h-1a2 2 0 0 0-2 2v14a2 2 0 0 0 2 2h1a2 2 0 0 0 2-2V27a2 2 0 0 0-2-2Zm9 7h-1a2 2 0 0 0-2 2v7a2 2 0 0 0 2 2h1a2 2 0 0 0 2-2v-7a2 2 0 0 0-2-2Zm9-9h-1a2 2 0 0 0-2 2v16a2 2 0 0 0 2 2h1a2 2 0 0 0 2-2V25a2 2 0 0 0-2-2Zm-25.57 5.46C7.55 26.94 4 22.38 4 17 4 10.37 9.37 5 16 5m12 12c0 2.32-.66 4.48-1.79 6.31M16 5v12h12" stroke="#fff" stroke-width="2" stroke-linecap="round" stroke-linejoin="round"/><path d="M28 13c0-4.42-3.58-8-8-8v8h8Zm16-5H33m11 4h-8m8 4h-4" stroke="#fff" stroke-width="2" stroke-linecap="round" stroke-linejoin="round"/></svg>