<svg width="48" height="48" fill="none" xmlns="http://www.w3.org/2000/svg"><path d="M25.5 16.5a1.5 1.5 0 0 1 3 0V39a1.5 1.5 0 0 1-3 0V16.5Zm-15 6V33L24 37.5V18l-13.5 4.5Zm-9 0A1.5 1.5 0 0 0 0 24v7.5A1.5 1.5 0 0 0 1.5 33H9V22.5H1.5Zm36.671-.158a1.5 1.5 0 0 0-1.341-2.683l-4.5 2.25a1.5 1.5 0 1 0 1.341 2.683l4.5-2.25ZM31.658 33.83a1.5 1.5 0 0 0 .67 2.012l4.5 2.25a1.5 1.5 0 0 0 1.342-2.683l-4.5-2.25a1.5 1.5 0 0 0-2.012.67ZM33 27a1.5 1.5 0 0 0 0 3h6a1.5 1.5 0 0 0 0-3h-6ZM6 34.5h3l2.604 11.718a1.464 1.464 0 0 1-2.859.635L6 34.5Z" fill="#85ACB0"/><path fill-rule="evenodd" clip-rule="evenodd" d="M48 10.5C48 16.299 42.628 21 36 21H24.391c-1.302 0-1.986-1.546-1.11-2.509l2.396-2.635C24.612 14.288 24 12.456 24 10.5 24 4.701 29.373 0 36 0c6.628 0 12 4.701 12 10.5ZM30 12a1.5 1.5 0 1 0 0-3 1.5 1.5 0 0 0 0 3Zm7.5-1.5a1.5 1.5 0 1 1-3 0 1.5 1.5 0 0 1 3 0ZM42 12a1.5 1.5 0 1 0 0-3 1.5 1.5 0 0 0 0 3Z" fill="#FF444F" style="mix-blend-mode:multiply"/><circle cx="30" cy="10.5" r="1.5" fill="#fff"/><circle cx="36" cy="10.5" r="1.5" fill="#fff"/><circle cx="42" cy="10.5" r="1.5" fill="#fff"/></svg>