<svg width="230" height="160" fill="none" xmlns="http://www.w3.org/2000/svg"><path opacity=".295" fill-rule="evenodd" clip-rule="evenodd" d="M54.656 160c-18.558 0-32.306-7.017-41.246-21.053C4.47 124.912 0 105.263 0 80c0-25.263 4.47-44.912 13.41-58.947C22.35 7.017 36.098 0 54.656 0 73.213 0 86.96 7.017 95.9 21.053c8.94 14.035 13.41 33.684 13.41 58.947 0 25.263-4.47 44.912-13.41 58.947C86.961 152.983 73.213 160 54.656 160Zm0-28.144c8.127 0 13.748-3.25 16.863-9.751 3.116-6.5 4.674-15.66 4.674-27.479V65.374c0-11.82-1.558-20.979-4.674-27.48-3.115-6.5-8.736-9.75-16.864-9.75-8.127 0-13.748 3.25-16.864 9.75-3.115 6.501-4.673 15.66-4.673 27.48v29.252c0 11.819 1.558 20.979 4.673 27.479 3.116 6.501 8.737 9.751 16.865 9.751ZM157.26 31.69h64.409V2.66h-86.758l-5.283 87.534 24.991 3.767c1.896-2.364 4.639-4.764 8.229-7.202 3.589-2.438 8.161-3.656 13.715-3.656 6.637 0 11.852 2.068 15.644 6.205 3.793 4.136 5.69 9.75 5.69 16.842v1.772c0 7.535-1.863 13.592-5.588 18.172s-9.245 6.87-16.559 6.87c-7.315 0-13.139-2.105-17.474-6.316-4.334-4.21-8.059-9.344-11.175-15.401l-22.146 19.058a67.963 67.963 0 0 0 7.721 11.302c2.98 3.545 6.501 6.685 10.565 9.418 4.064 2.733 8.737 4.912 14.019 6.537 5.283 1.625 11.379 2.438 18.287 2.438 8.669 0 16.39-1.367 23.162-4.1 6.773-2.733 12.496-6.537 17.169-11.412 4.673-4.876 8.195-10.674 10.565-17.397 2.371-6.722 3.556-13.998 3.556-21.828 0-7.682-1.151-14.589-3.454-20.72-2.303-6.131-5.418-11.302-9.346-15.513-3.929-4.21-8.534-7.423-13.817-9.64-5.282-2.215-10.971-3.324-17.067-3.324-4.47 0-8.33.591-11.581 1.773-3.251 1.182-6.028 2.844-8.33 4.986-2.303 2.143-4.301 4.728-5.994 7.757-1.693 3.028-3.217 6.39-4.572 10.083h-1.625l3.047-48.975Z" fill="#E5E5E5"/><path fill-rule="evenodd" clip-rule="evenodd" d="M50.19 48.61c7.644-.82 15.034 2.979 19 9.696l.071.123c.417-.032.836-.047 1.257-.043.057 0 .114.006.169.016 7.424.13 13.604 6.012 14.257 13.68.658 7.74-4.537 14.695-11.975 16.067l-.32.055-2.486.29a.997.997 0 0 1-1.095-.898 1.016 1.016 0 0 1 .759-1.106l.114-.02 2.443-.284c6.538-1.057 11.165-7.142 10.588-13.926-.569-6.679-5.99-11.79-12.492-11.823l-.305.003c-.267 0-.544.009-.83.026a12.592 12.592 0 0 0-7.892 3.715c-2.413 2.438-3.785 5.761-3.815 9.24-.005.562-.452 1.014-.998 1.01a1.006 1.006 0 0 1-.981-1.028c.035-4.019 1.62-7.859 4.406-10.675a14.612 14.612 0 0 1 7.062-3.967c-3.648-5.67-10.083-8.838-16.731-8.125-7.115.763-13.1 5.822-15.208 12.854a.992.992 0 0 1-.987.717c-3.982-.171-7.73 1.934-9.745 5.472a11.357 11.357 0 0 0 .13 11.422c2.036 3.395 5.684 5.394 9.542 5.254l.322-.016.104-.002 1.994.082c.546.022.971.496.95 1.058-.02.522-.419.936-.913.975l-.116.002-1.947-.08-.271.015c-4.479.181-8.723-2.072-11.174-5.933l-.177-.285a13.445 13.445 0 0 1-.152-13.521c2.218-3.897 6.213-6.325 10.554-6.482l.226-.005.009-.023c2.49-7.297 8.79-12.533 16.272-13.485l.381-.045Zm3.503 31.837a1 1 0 0 1 1.953.419l-2 13-.025.114a1 1 0 0 1-1.952-.418l2-13 .024-.115Zm-6.148-.024a1 1 0 0 1 1.32 1.498l-5.293 5.293 5.792 5.793a1 1 0 0 1-1.32 1.497l-.094-.083-6-6a.997.997 0 0 1-.204-.296 1 1 0 0 1-.296-1.619l6-6 .094-.083Zm18.32 7.498a1 1 0 0 1-.296.204.997.997 0 0 1-.204.296l-6 6-.095.083a1 1 0 0 1-1.32-1.497l5.793-5.793-5.293-5.293a1 1 0 0 1 1.32-1.498l.094.084 6 6a1 1 0 0 1 0 1.414Z" fill="url(#a)"/><defs><linearGradient id="a" x1="21" y1="48.5" x2="21" y2="94.714" gradientUnits="userSpaceOnUse"><stop stop-color="#FF6444"/><stop offset="1" stop-color="#FF444F"/></linearGradient></defs></svg>