<svg xmlns="http://www.w3.org/2000/svg" width="138" height="41"><g fill="none" fill-rule="evenodd"><path fill="#0E0E0E" fill-rule="nonzero" stroke="#999" d="M134 .5H4c-.966 0-1.841.392-2.475 1.025A3.495 3.495 0 0 0 .5 4v32c0 .966.392 1.841 1.025 2.475A3.495 3.495 0 0 0 4 39.5h130c.966 0 1.841-.392 2.475-1.025A3.493 3.493 0 0 0 137.5 36V4c0-.966-.392-1.841-1.025-2.475A3.495 3.495 0 0 0 134 .5z"/><path fill="#FFFFFE" d="M32.797 18.864c-.025-2.751 2.252-4.09 2.357-4.153-1.29-1.88-3.29-2.137-3.992-2.157-1.679-.177-3.307 1.005-4.163 1.005-.872 0-2.189-.988-3.608-.958-1.826.028-3.536 1.086-4.473 2.728-1.934 3.348-.49 8.269 1.361 10.975.927 1.326 2.01 2.807 3.428 2.754 1.387-.057 1.905-.885 3.58-.885 1.658 0 2.144.885 3.59.852 1.488-.024 2.426-1.332 3.321-2.67 1.071-1.519 1.501-3.016 1.518-3.092-.035-.012-2.89-1.101-2.919-4.399m-2.732-8.09c.746-.933 1.256-2.202 1.115-3.491-1.08.048-2.43.747-3.208 1.66-.688.804-1.302 2.122-1.144 3.361 1.213.091 2.46-.612 3.237-1.53m16.022 13.38h3.752l-1.85-5.447h-.05l-1.852 5.447zm4.243 1.549h-4.733l-1.137 3.356h-2.005l4.484-12.418h2.083l4.483 12.418h-2.039l-1.136-3.356zm10.948-1.17c0-1.833-.948-3.038-2.393-3.038-1.42 0-2.375 1.23-2.375 3.038 0 1.824.955 3.046 2.375 3.046 1.445 0 2.393-1.197 2.393-3.046zm1.91 0c0 2.813-1.506 4.621-3.779 4.621-1.29 0-2.314-.577-2.848-1.584h-.043v4.484H54.66V20.005h1.8v1.506h.033c.517-.971 1.62-1.6 2.883-1.6 2.298 0 3.813 1.816 3.813 4.622zm8.054 0c0-1.833-.947-3.038-2.392-3.038-1.42 0-2.375 1.23-2.375 3.038 0 1.824.955 3.046 2.375 3.046 1.445 0 2.392-1.197 2.392-3.046zm1.91 0c0 2.813-1.505 4.621-3.778 4.621-1.29 0-2.314-.577-2.848-1.584h-.043v4.484h-1.859V20.005h1.8v1.506h.033c.517-.971 1.618-1.6 2.883-1.6 2.298 0 3.812 1.816 3.812 4.622zm6.588 1.066c.136 1.232 1.333 2.04 2.967 2.04 1.567 0 2.694-.808 2.694-1.919 0-.964-.68-1.541-2.289-1.936l-1.61-.388c-2.28-.551-3.339-1.617-3.339-3.348 0-2.142 1.868-3.614 4.52-3.614 2.623 0 4.422 1.472 4.482 3.614H85.29c-.112-1.239-1.137-1.987-2.633-1.987-1.498 0-2.522.757-2.522 1.858 0 .878.654 1.395 2.255 1.791l1.368.335c2.548.603 3.607 1.626 3.607 3.443 0 2.323-1.85 3.778-4.794 3.778-2.754 0-4.614-1.421-4.734-3.667h1.903m11.634-7.736v2.142h1.722v1.472h-1.722v4.991c0 .776.345 1.137 1.102 1.137.19 0 .491-.026.611-.043v1.463c-.206.052-.619.086-1.032.086-1.833 0-2.548-.689-2.548-2.444v-5.19h-1.316v-1.472h1.316v-2.142h1.867m9.414 6.67c0-1.954-.895-3.108-2.4-3.108-1.507 0-2.4 1.162-2.4 3.108 0 1.962.893 3.106 2.4 3.106 1.505 0 2.4-1.144 2.4-3.106zm-6.695 0c0-2.849 1.678-4.639 4.294-4.639 2.625 0 4.295 1.79 4.295 4.639 0 2.856-1.66 4.638-4.295 4.638-2.633 0-4.294-1.782-4.294-4.638zm10.121-4.528h1.773v1.541h.043c.284-1.024 1.11-1.635 2.177-1.635.267 0 .49.035.637.069v1.738c-.147-.06-.474-.112-.835-.112-1.196 0-1.936.81-1.936 2.083v5.37h-1.859v-9.054m6.916 3.693h4.526c-.043-1.386-.929-2.298-2.22-2.298-1.282 0-2.21.93-2.306 2.298zm6.282 2.702c-.25 1.644-1.85 2.771-3.898 2.771-2.634 0-4.269-1.764-4.269-4.595 0-2.84 1.644-4.682 4.191-4.682 2.505 0 4.08 1.721 4.08 4.466v.637h-6.395v.112c0 1.549.973 2.564 2.436 2.564 1.032 0 1.842-.49 2.091-1.273h1.764zM44.626 12.417h1.125c1.248 0 1.967-.777 1.967-2.146 0-1.348-.73-2.134-1.967-2.134h-1.125v4.28zm1.228-5.123c1.77 0 2.808 1.087 2.808 2.965 0 1.906-1.03 3.002-2.808 3.002H43.7V7.294h2.155zm7.188 3.713c0-.976-.439-1.546-1.208-1.546-.773 0-1.207.57-1.207 1.546 0 .984.434 1.551 1.207 1.551.77 0 1.208-.571 1.208-1.551zm-3.333 0c0-1.451.81-2.336 2.125-2.336 1.311 0 2.122.885 2.122 2.336 0 1.46-.807 2.341-2.122 2.341-1.319 0-2.125-.881-2.125-2.341zm9.892 2.254h-.922l-.93-3.317h-.071l-.926 3.317h-.913l-1.242-4.503h.902l.806 3.436h.067l.926-3.436h.852l.926 3.436h.07l.803-3.436h.889l-1.237 4.503m2.281-4.503h.855v.715h.066c.22-.5.666-.802 1.344-.802 1.005 0 1.56.603 1.56 1.675v2.915h-.89v-2.692c0-.724-.314-1.084-.972-1.084-.657 0-1.075.439-1.075 1.141v2.635h-.888V8.758m5.24 4.503h.889V7h-.889zm5.458-2.254c0-.976-.44-1.546-1.209-1.546-.773 0-1.207.57-1.207 1.546 0 .984.434 1.551 1.207 1.551.77 0 1.208-.571 1.208-1.551zm-3.334 0c0-1.451.81-2.336 2.125-2.336 1.311 0 2.122.885 2.122 2.336 0 1.46-.807 2.341-2.122 2.341-1.319 0-2.125-.881-2.125-2.341zm8.077.596v-.377l-1.099.07c-.62.042-.9.253-.9.65 0 .405.35.641.833.641.67 0 1.166-.426 1.166-.984zm-2.894.384c0-.81.603-1.278 1.675-1.344l1.22-.07v-.389c0-.475-.315-.744-.922-.744-.496 0-.84.182-.939.5h-.86c.091-.773.818-1.269 1.84-1.269 1.13 0 1.765.562 1.765 1.513v3.077h-.855v-.633h-.07c-.269.451-.76.707-1.353.707-.868 0-1.5-.525-1.5-1.348zm5.865-.98c0 .955.45 1.53 1.203 1.53.75 0 1.212-.583 1.212-1.526 0-.938-.468-1.53-1.212-1.53-.748 0-1.203.579-1.203 1.526zm-.918 0c0-1.423.732-2.324 1.87-2.324.616 0 1.136.294 1.38.79h.067V7h.888v6.261h-.85v-.712h-.072c-.268.493-.794.786-1.414.786-1.145 0-1.869-.901-1.869-2.328zm11.215 0c0-.976-.439-1.546-1.208-1.546-.773 0-1.207.57-1.207 1.546 0 .984.434 1.551 1.207 1.551.77 0 1.208-.571 1.208-1.551zm-3.333 0c0-1.451.811-2.336 2.125-2.336 1.311 0 2.122.885 2.122 2.336 0 1.46-.807 2.341-2.122 2.341-1.318 0-2.125-.881-2.125-2.341zm5.44-2.249h.855v.715h.066c.22-.5.666-.802 1.344-.802 1.005 0 1.56.603 1.56 1.675v2.915h-.89v-2.692c0-.724-.314-1.084-.972-1.084-.657 0-1.075.439-1.075 1.141v2.635h-.888V8.758m8.845-1.121v1.141h.976v.749h-.976v2.315c0 .472.195.679.637.679.137 0 .215-.009.34-.021v.74a2.884 2.884 0 0 1-.485.046c-.988 0-1.38-.348-1.38-1.216V9.527h-.716v-.749h.715V7.637h.89M103.733 7h.881v2.481h.07c.218-.504.694-.806 1.373-.806.96 0 1.551.608 1.551 1.679v2.907h-.89v-2.688c0-.719-.335-1.084-.963-1.084-.728 0-1.134.46-1.134 1.142v2.63h-.888V7m5.93 3.594h2.275c-.02-.707-.45-1.167-1.109-1.167-.657 0-1.116.464-1.166 1.167zm3.126 1.451c-.202.807-.922 1.303-1.95 1.303-1.29 0-2.08-.885-2.08-2.325 0-1.439.806-2.352 2.075-2.352 1.253 0 2.01.856 2.01 2.27v.31h-3.18v.05c.03.789.488 1.29 1.198 1.29.54 0 .907-.195 1.072-.546h.855z"/></g></svg>192-.222.336-.48.432-.774.096-.294.144-.612.144-.954 0-.342-.048-.66-.144-.954-.096-.3-.24-.558-.432-.774a2.01 2.01 0 0 0-.71-.522 2.322 2.322 0 0 0-.973-.189c-.366 0-.69.063-.972.189a2.01 2.01 0 0 0-.71.522 2.121 2.121 0 0 0-.433.774 3.057 3.057 0 0 0-.144.954Zm5.69-2.331V14h.765v-2.628c0-.21.027-.402.081-.576.06-.18.147-.336.261-.468.114-.132.255-.234.423-.306.174-.072.378-.108.612-.108.294 0 .525.084.693.252.168.168.252.396.252.684V14h.765v-3.06c0-.252-.027-.48-.081-.684a1.262 1.262 0 0 0-.261-.54 1.258 1.258 0 0 0-.495-.351 2.02 2.02 0 0 0-.765-.126c-.69 0-1.194.282-1.512.846h-.018v-.738h-.72Zm9.108 0V7.952h-.765v1.395h-.792v.675h.792v2.961c0 .216.02.39.063.522a.651.651 0 0 0 .189.306c.09.072.204.123.342.153.144.024.315.036.513.036h.585v-.675h-.351c-.12 0-.219-.003-.297-.009a.408.408 0 0 1-.171-.063.245.245 0 0 1-.09-.126 1.035 1.035 0 0 1-.018-.216v-2.889h.927v-.675h-.927Zm2.047-1.773V14h.765v-2.628c0-.21.027-.402.081-.576.06-.18.147-.336.261-.468.114-.132.255-.234.423-.306.174-.072.378-.108.612-.108.294 0 .525.084.693.252.168.168.252.396.252.684V14h.765v-3.06c0-.252-.027-.48-.081-.684a1.262 1.262 0 0 0-.261-.54 1.258 1.258 0 0 0-.495-.351 2.02 2.02 0 0 0-.765-.126c-.138 0-.282.015-.432.045-.144.03-.285.078-.423.144-.132.06-.252.141-.36.243a.975.975 0 0 0-.252.36h-.018V7.574h-.765Zm8.502 3.654h-2.673c.012-.18.051-.348.117-.504.066-.162.156-.303.27-.423.114-.12.249-.213.405-.279.162-.072.342-.108.54-.108.192 0 .366.036.522.108.162.066.3.159.414.279.12.114.213.252.279.414.072.162.114.333.126.513Zm.738 1.296h-.756c-.066.306-.204.534-.414.684-.204.15-.468.225-.792.225-.252 0-.471-.042-.657-.126a1.314 1.314 0 0 1-.459-.333 1.363 1.363 0 0 1-.261-.486 1.887 1.887 0 0 1-.072-.585h3.483a3.57 3.57 0 0 0-.081-.891 2.46 2.46 0 0 0-.342-.864 1.94 1.94 0 0 0-.657-.648c-.27-.174-.612-.261-1.026-.261-.318 0-.612.06-.882.18-.264.12-.495.288-.693.504a2.365 2.365 0 0 0-.45.765 2.8 2.8 0 0 0-.162.972c.012.354.063.681.153.981.096.3.237.558.423.774.186.216.414.384.684.504.276.12.6.18.972.18.528 0 .966-.132 1.314-.396.348-.264.573-.657.675-1.179ZM44.54 18.862h2.261L51.476 31h-2.278l-1.139-3.213h-4.845L42.075 31h-2.193l4.658-12.138Zm-.748 7.31h3.706l-1.819-5.219h-.051l-1.836 5.219Zm8.619-3.961h1.836v1.19h.034c.272-.51.651-.873 1.139-1.088a3.702 3.702 0 0 1 1.58-.34c.692 0 1.293.125 1.803.374.521.238.952.572 1.292 1.003.34.42.595.912.765 1.479a6.3 6.3 0 0 1 .255 1.819c0 .59-.08 1.162-.238 1.717a4.342 4.342 0 0 1-.697 1.479 3.51 3.51 0 0 1-1.173 1.02c-.476.25-1.037.374-1.683.374a4.3 4.3 0 0 1-.85-.085 3.377 3.377 0 0 1-.816-.238 3.62 3.62 0 0 1-.731-.425 2.623 2.623 0 0 1-.544-.629h-.034v4.386H52.41V22.211Zm6.766 4.403c0-.397-.051-.782-.153-1.156a3.038 3.038 0 0 0-.46-.986 2.25 2.25 0 0 0-.764-.697 2.028 2.028 0 0 0-1.054-.272c-.816 0-1.434.283-1.853.85-.408.567-.612 1.32-.612 2.261 0 .442.05.856.153 1.241.113.374.278.697.493.969.215.272.47.487.765.646.306.159.657.238 1.054.238.442 0 .816-.09 1.122-.272.306-.181.555-.414.748-.697.204-.295.346-.623.425-.986.09-.374.136-.754.136-1.139Zm3.626-4.403h1.836v1.19h.034c.272-.51.652-.873 1.14-1.088a3.702 3.702 0 0 1 1.58-.34c.692 0 1.292.125 1.802.374.522.238.952.572 1.292 1.003.34.42.595.912.765 1.479a6.3 6.3 0 0 1 .255 1.819c0 .59-.079 1.162-.238 1.717a4.342 4.342 0 0 1-.697 1.479 3.51 3.51 0 0 1-1.173 1.02c-.476.25-1.037.374-1.683.374-.283 0-.566-.028-.85-.085a3.377 3.377 0 0 1-.816-.238 3.62 3.62 0 0 1-.73-.425 2.623 2.623 0 0 1-.545-.629h-.034v4.386h-1.938V22.211Zm6.766 4.403c0-.397-.05-.782-.153-1.156a3.038 3.038 0 0 0-.459-.986 2.25 2.25 0 0 0-.765-.697 2.028 2.028 0 0 0-1.054-.272c-.816 0-1.433.283-1.853.85-.408.567-.612 1.32-.612 2.261 0 .442.051.856.153 1.241.114.374.278.697.493.969.216.272.47.487.765.646.306.159.658.238 1.054.238.442 0 .816-.09 1.122-.272.306-.181.556-.414.748-.697.204-.295.346-.623.425-.986.091-.374.136-.754.136-1.139Zm9.973.34c0 .465.08.861.238 1.19.16.329.38.6.663.816.284.204.607.357.97.459.373.09.776.136 1.206.136.465 0 .862-.051 1.19-.153.33-.113.595-.255.8-.425.203-.17.35-.363.441-.578.091-.227.136-.453.136-.68 0-.465-.107-.805-.323-1.02a1.694 1.694 0 0 0-.68-.476c-.43-.159-.935-.306-1.513-.442-.566-.147-1.269-.334-2.108-.561-.52-.136-.957-.312-1.309-.527a3.276 3.276 0 0 1-.816-.748 2.734 2.734 0 0 1-.442-.867 3.712 3.712 0 0 1-.119-.935c0-.612.125-1.139.374-1.581a3.476 3.476 0 0 1 1.02-1.122c.42-.295.896-.51 1.428-.646a6.033 6.033 0 0 1 1.615-.221c.635 0 1.23.085 1.785.255.567.159 1.06.402 1.48.731.43.329.77.737 1.02 1.224.249.476.373 1.031.373 1.666h-2.125c-.056-.782-.323-1.332-.799-1.649-.476-.329-1.082-.493-1.819-.493-.249 0-.504.028-.765.085-.26.045-.498.13-.714.255a1.563 1.563 0 0 0-.544.476c-.136.204-.204.459-.204.765 0 .43.13.77.391 1.02.272.238.624.42 1.054.544.046.011.221.062.527.153a78.596 78.596 0 0 1 2.176.578c.374.09.64.159.8.204.396.125.742.295 1.036.51.295.215.539.465.731.748.204.272.352.567.442.884.102.317.153.635.153.952 0 .68-.141 1.264-.425 1.751a3.479 3.479 0 0 1-1.088 1.173 4.634 4.634 0 0 1-1.547.663 7.131 7.131 0 0 1-1.768.221 7.276 7.276 0 0 1-1.955-.255 4.577 4.577 0 0 1-1.598-.782 3.847 3.847 0 0 1-1.088-1.343c-.272-.555-.413-1.207-.425-1.955h2.125Zm8.474-4.743h1.462v-2.635h1.938v2.635h1.75v1.445h-1.75v4.692c0 .204.005.38.017.527.022.147.062.272.119.374a.67.67 0 0 0 .289.238c.125.045.294.068.51.068h.408c.136-.011.272-.034.408-.068v1.496l-.63.068a5.686 5.686 0 0 1-.628.034c-.51 0-.924-.045-1.241-.136a1.834 1.834 0 0 1-.731-.425 1.635 1.635 0 0 1-.357-.714 5.91 5.91 0 0 1-.102-.969v-5.185h-1.462v-1.445Zm10.574 9.027c-.703 0-1.332-.113-1.887-.34a4.216 4.216 0 0 1-1.394-.969 4.28 4.28 0 0 1-.867-1.462 5.778 5.778 0 0 1-.289-1.87c0-.669.096-1.286.289-1.853a4.28 4.28 0 0 1 .867-1.462c.385-.408.85-.725 1.394-.952.555-.238 1.184-.357 1.887-.357.703 0 1.326.119 1.87.357.555.227 1.02.544 1.394.952.385.408.674.895.867 1.462.204.567.306 1.184.306 1.853 0 .68-.102 1.303-.306 1.87a3.999 3.999 0 0 1-2.261 2.431c-.544.227-1.167.34-1.87.34Zm0-1.53c.43 0 .805-.09 1.122-.272.317-.181.578-.42.782-.714.204-.295.351-.623.442-.986a4.248 4.248 0 0 0 0-2.261 2.8 2.8 0 0 0-.442-.986 2.367 2.367 0 0 0-.782-.714c-.317-.181-.691-.272-1.122-.272-.43 0-.805.09-1.122.272-.317.181-.578.42-.782.714a3.038 3.038 0 0 0-.459.986 4.746 4.746 0 0 0 0 2.261c.102.363.255.691.459.986.204.295.465.533.782.714.317.181.691.272 1.122.272Zm6.048-7.497h1.819v1.7h.034a2.04 2.04 0 0 1 .323-.697c.17-.227.368-.43.595-.612a3.02 3.02 0 0 1 .782-.459 2.32 2.32 0 0 1 .867-.17c.227 0 .38.006.459.017l.272.034v1.87a4.837 4.837 0 0 0-.425-.051 2.474 2.474 0 0 0-.408-.034c-.329 0-.64.068-.935.204a2.023 2.023 0 0 0-.748.578c-.215.25-.385.561-.51.935a4.074 4.074 0 0 0-.187 1.292V31h-1.938v-8.789Zm11.713 3.621a2.974 2.974 0 0 0-.204-.884 2.067 2.067 0 0 0-.442-.731 1.918 1.918 0 0 0-.68-.51 1.882 1.882 0 0 0-.884-.204c-.34 0-.652.062-.935.187a2.07 2.07 0 0 0-.714.493 2.547 2.547 0 0 0-.476.731c-.113.283-.176.59-.187.918h4.522Zm-4.522 1.275c0 .34.045.669.136.986.102.317.249.595.442.833s.436.43.731.578c.295.136.646.204 1.054.204.567 0 1.02-.119 1.36-.357.351-.25.612-.618.782-1.105h1.836a3.66 3.66 0 0 1-.527 1.275c-.249.374-.55.691-.901.952-.351.25-.748.436-1.19.561a4.491 4.491 0 0 1-1.36.204c-.691 0-1.303-.113-1.836-.34a3.877 3.877 0 0 1-1.36-.952 4.211 4.211 0 0 1-.833-1.462 6.12 6.12 0 0 1-.272-1.87c0-.623.096-1.213.289-1.768.204-.567.487-1.06.85-1.479.374-.43.822-.77 1.343-1.02s1.111-.374 1.768-.374c.691 0 1.309.147 1.853.442a3.98 3.98 0 0 1 1.377 1.139c.363.476.623 1.026.782 1.649.17.612.215 1.247.136 1.904h-6.46Z" fill="#fff"/></svg>