<svg width="20" height="25" fill="none" xmlns="http://www.w3.org/2000/svg"><path d="M10.156 7.07c.942 0 2.734-1.303 4.582-1.108a5.574 5.574 0 0 1 4.393 2.378 5.457 5.457 0 0 0-2.594 4.577 5.272 5.272 0 0 0 3.213 4.85 12.093 12.093 0 0 1-1.671 3.409l-.067.1-.135.2c-.926 1.365-1.926 2.617-3.453 2.642-1.592.037-2.127-.938-3.952-.938-1.843 0-2.413.912-3.94.975-1.56.058-2.753-1.574-3.773-3.035C.72 18.136-.868 12.71 1.261 9.02a5.85 5.85 0 0 1 4.923-3.007c1.562-.032 3.012 1.056 3.972 1.056ZM14.757.15A5.377 5.377 0 0 1 13.531 4a4.51 4.51 0 0 1-3.563 1.687 5.116 5.116 0 0 1 1.259-3.705 5.454 5.454 0 0 1 3.53-1.83Z" fill="#fff"/></svg>