<svg width="32" height="32" fill="none" xmlns="http://www.w3.org/2000/svg"><rect width="32" height="32" rx="16" fill="#fff"/><g clip-path="url(#a)"><path d="M16.707 8.293a1 1 0 0 1 0 1.414L11.414 15H23a1 1 0 1 1 0 2l-11.586-.001 5.293 5.294a1 1 0 0 1-1.414 1.414l-7-7-.073-.082a.264.264 0 0 1-.007-.008l.08.09a1.011 1.011 0 0 1-.282-.559A.943.943 0 0 1 8 16v-.02c0-.023.002-.046.004-.07L8 16a1.009 1.009 0 0 1 .213-.617.97.97 0 0 1 .08-.09l7-7a1 1 0 0 1 1.414 0Z" fill="#D6D6D6"/></g><defs><clipPath id="a"><path fill="#fff" transform="translate(8 8)" d="M0 0h16v16H0z"/></clipPath></defs></svg>