<svg width="41" height="41" fill="none" xmlns="http://www.w3.org/2000/svg"><path d="M19 19h-5c-.55 0-1 .45-1 1v2c0 .55.45 1 1 1h4c.55 0 1 .45 1 1v2c0 .55-.45 1-1 1h-5m3-8v-2m0 10v2" stroke="#fff" stroke-width="2" stroke-linecap="round" stroke-linejoin="round"/><path d="M2 15v-2.58a2 2 0 0 1 1.52-1.94c3.04-.74 9.8-2.52 12.48-4.31 2.67 1.78 9.44 3.57 12.48 4.31.9.22 1.52 1.02 1.52 1.94V26c0 11.67-14 14-14 14s-9.8-1.63-13-9M32 6l5-5h-3m6 3-5 5h3M8 23H1m8-4H4m5 8H4" stroke="#fff" stroke-width="2" stroke-linecap="round" stroke-linejoin="round"/></svg>