<svg width="80" height="80" fill="none" xmlns="http://www.w3.org/2000/svg"><rect width="80" height="80" rx="40" fill="#F9F9F9"/><g clip-path="url(#a)"><path d="M36 49v3H12v-3h24Zm0-9v3H12v-3h24Zm-12-9v3H12v-3h12Z" fill="#414652"/><path d="m21.62 44.5-4.5 4.5h-4.24l4.5-4.5h4.242ZM33 28a3 3 0 0 1 3 3v7.5h-.015A2.985 2.985 0 0 1 33 35.521v-2.4L26.12 40h-4.235l9-9h-2.4a2.985 2.985 0 0 1-2.985-2.985V28H33Z" fill="#FF444F"/></g><g clip-path="url(#b)"><path d="M56 46v3H44v-3h12Zm12-9v3H44v-3h24Zm0-9v3H44v-3h24Z" fill="#414652"/><path d="M58.12 40 65 46.885v-2.4a2.985 2.985 0 0 1 2.985-2.985H68V49a3 3 0 0 1-3 3h-7.5v-.015A2.985 2.985 0 0 1 60.479 49h2.4l-9-9h4.242Zm-9-9 4.5 4.5h-4.24l-4.5-4.5h4.242Z" fill="#FF444F"/></g><defs><clipPath id="a"><path fill="#fff" transform="translate(12 28)" d="M0 0h24v24H0z"/></clipPath><clipPath id="b"><path fill="#fff" transform="translate(44 28)" d="M0 0h24v24H0z"/></clipPath></defs></svg>