<svg width="32" height="32" fill="none" xmlns="http://www.w3.org/2000/svg"><path d="M22 6H2a2 2 0 0 0-2 2v12a2 2 0 0 0 2 2h20a2 2 0 0 0 2-2V8a2 2 0 0 0-2-2Z" fill="#0D47A1"/><path d="M.414 13.987h.719l3.833-2.551v2.55h2.069v-2.55l3.832 2.55h.72a.417.417 0 0 0 .413-.42v-.333l-3.288-2.189H12V8.943H8.711L12 6.753V6.42a.417.417 0 0 0-.414-.42h-.719L7.034 8.551V6H4.965v2.551L1.258 6.084a1.808 1.808 0 0 0-1.017.83l3.048 2.029H0v2.101h3.289L0 13.233v.333c0 .233.185.42.414.42Zm5.712 2.292.312 1.047 1.001-.405c.085-.034.163.065.11.142l-.61.9.935.543c.08.046.052.17-.04.176l-1.074.077.166 1.08c.014.093-.098.148-.16.08l-.73-.807-.728.806c-.062.069-.174.014-.16-.078l.166-1.081-1.075-.077c-.092-.006-.12-.13-.04-.176l.936-.542-.611-.901c-.053-.077.025-.176.11-.142l1.001.405.313-1.047a.093.093 0 0 1 .178 0Zm12.31 1.524.152.511.489-.197c.042-.017.08.031.054.069l-.299.44.457.265c.04.023.026.083-.019.086l-.525.037.081.528c.007.045-.048.072-.078.039l-.356-.394-.356.394c-.03.033-.085.006-.078-.039l.08-.528-.524-.037c-.045-.003-.059-.064-.02-.086l.457-.265-.298-.44c-.026-.038.012-.086.054-.07l.489.198.152-.511a.045.045 0 0 1 .088 0Zm1.18-4.125a.052.052 0 0 1 .099 0l.122.373.387.003c.05 0 .072.066.031.096l-.311.233.116.375c.016.049-.039.09-.08.06l-.315-.23-.315.23c-.04.03-.095-.011-.08-.06l.117-.375-.311-.233c-.04-.03-.02-.095.03-.096l.387-.003.123-.373Zm-4.583-.92.153.512.489-.198c.042-.016.08.032.054.07l-.299.44.457.265c.04.022.026.083-.019.086l-.525.037.081.528c.007.045-.048.072-.078.038l-.356-.393-.356.393c-.03.034-.085.007-.078-.038l.08-.528-.524-.037c-.045-.004-.059-.064-.02-.086l.457-.265-.298-.44c-.026-.038.012-.086.054-.07l.489.198.152-.511a.045.045 0 0 1 .087 0Zm6.621-1.681.153.512.489-.198c.041-.017.08.031.054.069l-.299.44.457.265a.046.046 0 0 1-.02.086l-.524.037.08.529c.008.045-.047.072-.077.038l-.356-.394-.356.394c-.03.034-.086.007-.079-.038l.082-.529-.525-.037c-.045-.003-.059-.063-.02-.086l.457-.265-.298-.44c-.026-.038.012-.086.054-.07l.489.199.152-.512a.045.045 0 0 1 .087 0Zm-3.218-2.246.152.512.489-.198c.042-.017.08.031.054.069l-.299.44.457.265c.04.023.026.083-.019.086l-.525.037.081.529c.007.045-.048.072-.078.038l-.356-.394-.356.394c-.03.034-.085.007-.078-.038l.08-.528-.524-.038c-.045-.003-.059-.063-.02-.086l.457-.265-.298-.44c-.026-.038.012-.086.054-.069l.489.198.152-.512a.045.045 0 0 1 .088 0Z" fill="#fff"/><path d="M6.62 6v3.363H12v1.261H6.62v3.363H5.38v-3.363H0V9.363h5.38V6h1.24Zm-1.666 5.044L.492 13.987H.414a.398.398 0 0 1-.305-.145l-.05-.071 4.135-2.727h.76Zm3.164 0 3.875 2.556a.416.416 0 0 1-.234.346l-4.4-2.902h.76ZM.685 6.393l3.867 2.55h-.76L.386 6.696c.087-.112.188-.214.299-.303ZM11.586 6c.122 0 .227.056.301.141l.05.07-4.142 2.732h-.76L11.496 6h.09Z" fill="#F44336"/><path fill-rule="evenodd" clip-rule="evenodd" d="M22 7H2a1 1 0 0 0-1 1v12a1 1 0 0 0 1 1h20a1 1 0 0 0 1-1V8a1 1 0 0 0-1-1ZM2 6a2 2 0 0 0-2 2v12a2 2 0 0 0 2 2h20a2 2 0 0 0 2-2V8a2 2 0 0 0-2-2H2Z" fill="#000" fill-opacity=".04"/><mask id="a" style="mask-type:alpha" maskUnits="userSpaceOnUse" x="8" y="14" width="24" height="16"><path d="M30 14H10a2 2 0 0 0-2 2v12a2 2 0 0 0 2 2h20a2 2 0 0 0 2-2V16a2 2 0 0 0-2-2Z" fill="#fff"/></mask><g mask="url(#a)"><path d="M30 14H10a2 2 0 0 0-2 2v12a2 2 0 0 0 2 2h20a2 2 0 0 0 2-2V16a2 2 0 0 0-2-2Z" fill="#fff"/><path d="M32 28.688c0 .725-.587 1.312-1.312 1.312H9.312A1.312 1.312 0 0 1 8 28.688h24Zm0-2.448v1.224H8V26.24h24Zm0-2.448v1.224H8v-1.224h24Zm0-2.448v1.224H8v-1.224h24Zm0-2.448v1.224H8v-1.224h24Zm0-2.448v1.224H8v-1.224h24ZM30.776 14c.634 0 1.155.482 1.218 1.099l.006.125H8.688c0-.676.548-1.224 1.224-1.224h20.864Z" fill="#F44336"/><path d="M10 14h9.5v8.568H8V16a2 2 0 0 1 2-2Z" fill="#0D47A1"/><path d="m9.093 20.817.095.281h.295a.04.04 0 0 1 .024.072l-.24.176.09.282a.04.04 0 0 1-.061.043l-.24-.172-.24.172a.04.04 0 0 1-.062-.043l.099-.28-.24-.177a.04.04 0 0 1 .024-.071h.296l.095-.282c.006-.04.054-.04.065-.001Zm9.035-.026c.016 0 .03.01.034.026l.095.281h.295a.04.04 0 0 1 .024.072l-.24.176.09.282a.04.04 0 0 1-.061.043l-.24-.172-.24.172a.04.04 0 0 1-.062-.043l.099-.28-.24-.177a.04.04 0 0 1 .024-.071H18l.095-.282a.034.034 0 0 1 .032-.027Zm-2.269 0c.016 0 .03.01.034.026l.095.281h.295a.04.04 0 0 1 .024.072l-.24.176.09.282a.04.04 0 0 1-.061.043l-.24-.172-.24.172a.04.04 0 0 1-.062-.043l.099-.28-.24-.177a.04.04 0 0 1 .024-.071h.295l.095-.282a.034.034 0 0 1 .032-.027Zm-4.498.026.095.281h.295a.04.04 0 0 1 .024.072l-.24.176.09.282a.04.04 0 0 1-.061.043l-.24-.172-.24.172a.04.04 0 0 1-.062-.043l.099-.28-.24-.177a.04.04 0 0 1 .024-.071h.296l.095-.282c0-.04.054-.04.065-.001Zm2.269 0 .095.281h.295a.04.04 0 0 1 .024.072l-.24.176.09.282a.04.04 0 0 1-.061.043l-.24-.172-.24.172a.04.04 0 0 1-.062-.043l.099-.28-.24-.177a.04.04 0 0 1 .024-.071h.296l.095-.282c0-.04.053-.04.065-.001Zm-3.403-.744.095.281h.296a.04.04 0 0 1 .024.072l-.24.176.09.282a.04.04 0 0 1-.062.043l-.24-.172-.24.172a.04.04 0 0 1-.061-.043l.09-.282-.24-.176a.04.04 0 0 1 .024-.072h.304l.095-.281c.006-.039.054-.039.065 0Zm6.782-.032a.037.037 0 0 1 .018.032l.095.281h.296a.04.04 0 0 1 .024.072l-.24.176.09.282a.04.04 0 0 1-.062.043l-.24-.172-.24.172a.04.04 0 0 1-.062-.043l.091-.282-.24-.176a.04.04 0 0 1 .024-.072h.295l.096-.281a.037.037 0 0 1 .055-.032Zm-2.245.032.095.281h.295a.04.04 0 0 1 .024.072l-.24.176.09.282a.04.04 0 0 1-.06.043l-.24-.172-.24.172a.04.04 0 0 1-.062-.043l.09-.282-.24-.176a.04.04 0 0 1 .024-.072h.295l.095-.281c.01-.039.063-.039.074 0Zm-2.269 0 .095.281h.296a.04.04 0 0 1 .024.072l-.24.176.09.282a.04.04 0 0 1-.062.043l-.24-.172-.24.172a.04.04 0 0 1-.062-.043l.091-.282-.24-.176a.04.04 0 0 1 .024-.072h.304l.095-.281c.001-.039.054-.039.065 0Zm-1.134-.721.095.282h.295a.04.04 0 0 1 .024.07l-.24.178.09.281a.04.04 0 0 1-.061.043l-.24-.172-.24.172a.04.04 0 0 1-.062-.043l.09-.281-.24-.177a.04.04 0 0 1 .025-.071h.304l.095-.282c0-.033.054-.033.065 0Zm6.8 0 .096.282h.295a.04.04 0 0 1 .024.07l-.24.178.09.281a.04.04 0 0 1-.061.043l-.24-.172-.24.172a.04.04 0 0 1-.062-.043l.09-.281-.24-.177a.04.04 0 0 1 .025-.071h.295l.095-.282c.014-.033.067-.033.074 0Zm-9.068 0 .095.282h.295a.04.04 0 0 1 .024.07l-.24.178.09.281a.04.04 0 0 1-.061.043l-.24-.172-.24.172a.04.04 0 0 1-.062-.043l.09-.281-.24-.177a.04.04 0 0 1 .025-.071h.304l.095-.282c.006-.033.054-.033.065 0Zm6.8 0 .095.282h.295a.04.04 0 0 1 .024.07l-.24.178.09.281a.04.04 0 0 1-.061.043l-.24-.172-.24.172a.04.04 0 0 1-.062-.043l.09-.281-.24-.177a.04.04 0 0 1 .025-.071h.295l.095-.282c.015-.033.067-.033.074 0Zm-2.263 0 .095.282h.295a.04.04 0 0 1 .024.07l-.24.178.09.281a.04.04 0 0 1-.061.043l-.24-.172-.24.172a.04.04 0 0 1-.062-.043l.09-.281-.24-.177a.04.04 0 0 1 .025-.071h.304l.095-.282c0-.033.053-.033.065 0Zm-3.403-.743.095.281h.296a.04.04 0 0 1 .024.072l-.24.176.09.282a.04.04 0 0 1-.062.043l-.24-.172-.24.172a.04.04 0 0 1-.061-.043l.098-.28-.24-.177a.04.04 0 0 1 .024-.071h.296l.095-.282c.006-.04.054-.04.065-.001Zm6.763-.037c.02 0 .037.017.037.037l.095.281h.296a.04.04 0 0 1 .024.072l-.24.176.09.282a.04.04 0 0 1-.062.043l-.24-.172-.24.172a.04.04 0 0 1-.062-.043l.091-.282-.24-.176a.04.04 0 0 1 .024-.072h.295l.096-.281c0-.02.016-.037.036-.037Zm-2.226.037.095.281h.295a.04.04 0 0 1 .024.072l-.24.176.09.282a.04.04 0 0 1-.06.043l-.24-.172-.24.172a.04.04 0 0 1-.062-.043l.09-.282-.24-.176a.04.04 0 0 1 .024-.072h.295l.095-.281c.01-.039.063-.039.074 0Zm-2.269 0 .095.281h.296a.04.04 0 0 1 .024.072l-.24.176.09.282a.04.04 0 0 1-.062.043l-.24-.172-.24.172a.04.04 0 0 1-.062-.043l.1-.28-.24-.177a.04.04 0 0 1 .023-.071h.296l.095-.282c.001-.04.054-.04.065-.001Zm-1.134-.716.095.281h.295a.04.04 0 0 1 .024.072l-.24.176.09.282a.04.04 0 0 1-.061.043l-.24-.172-.24.172a.04.04 0 0 1-.062-.043l.099-.28-.24-.177a.04.04 0 0 1 .024-.071h.296l.095-.282c0-.04.054-.04.065-.001Zm6.767-.026c.016 0 .03.01.034.026l.095.281h.295a.04.04 0 0 1 .024.072l-.24.176.09.282a.04.04 0 0 1-.061.043l-.24-.172-.24.172a.04.04 0 0 1-.062-.043l.099-.28-.24-.177a.04.04 0 0 1 .024-.071H18l.095-.282a.034.034 0 0 1 .032-.027Zm-2.272-.011c.02 0 .037.016.037.037l.095.281h.295a.04.04 0 0 1 .024.072l-.24.176.09.282a.04.04 0 0 1-.061.043l-.24-.172-.24.172a.04.04 0 0 1-.062-.043l.09-.282-.24-.176a.04.04 0 0 1 .025-.072h.295l.095-.281c0-.02.017-.037.037-.037Zm-6.763.037.095.281h.295a.04.04 0 0 1 .024.072l-.24.176.09.282a.04.04 0 0 1-.061.043l-.24-.172-.24.172a.04.04 0 0 1-.062-.043l.099-.28-.24-.177a.04.04 0 0 1 .024-.071h.296l.095-.282c.006-.04.054-.04.065-.001Zm4.537 0 .095.281h.295a.04.04 0 0 1 .024.072l-.24.176.09.282a.04.04 0 0 1-.061.043l-.24-.172-.24.172a.04.04 0 0 1-.062-.043l.09-.282-.24-.176a.04.04 0 0 1 .025-.072h.304l.095-.281c0-.039.053-.039.065 0Zm-3.403-.75.095.282h.296a.04.04 0 0 1 .024.071l-.24.177.09.281a.04.04 0 0 1-.062.044l-.24-.172-.24.172a.04.04 0 0 1-.061-.044l.09-.281-.24-.177a.04.04 0 0 1 .024-.071h.304l.095-.282c.006-.033.054-.033.065 0Zm4.537 0 .095.282h.295a.04.04 0 0 1 .024.071l-.24.177.09.281a.04.04 0 0 1-.06.044l-.24-.172-.24.172a.04.04 0 0 1-.062-.043l.09-.282-.24-.177a.04.04 0 0 1 .024-.071h.295l.095-.282c.01-.033.063-.033.074 0Zm-2.269 0 .095.282h.296a.04.04 0 0 1 .024.071l-.24.177.09.281a.04.04 0 0 1-.062.044l-.24-.172-.24.172a.04.04 0 0 1-.062-.043l.091-.282-.24-.177a.04.04 0 0 1 .024-.071h.304l.095-.282c.001-.033.054-.033.065 0Zm4.532 0 .095.282h.296a.04.04 0 0 1 .024.071l-.24.177.09.281a.04.04 0 0 1-.062.044l-.24-.172-.24.172a.04.04 0 0 1-.062-.043l.091-.282-.24-.177a.04.04 0 0 1 .024-.071h.295l.096-.282c.014-.033.067-.033.073 0Zm-3.397-.715.095.282h.295a.04.04 0 0 1 .024.07l-.24.178.09.281a.04.04 0 0 1-.061.043l-.24-.172-.24.172a.04.04 0 0 1-.062-.043l.09-.281-.24-.177a.04.04 0 0 1 .025-.071h.304l.095-.282c0-.033.053-.033.065 0Zm-4.537 0 .095.282h.295a.04.04 0 0 1 .024.07l-.24.178.09.281a.04.04 0 0 1-.061.043l-.24-.172-.24.172a.04.04 0 0 1-.062-.043l.09-.281-.24-.177a.04.04 0 0 1 .025-.071h.304l.095-.282c.006-.033.054-.033.065 0Zm2.271 0 .095.282h.297a.04.04 0 0 1 .024.07l-.24.178.09.281a.04.04 0 0 1-.061.043l-.24-.172-.24.172a.04.04 0 0 1-.062-.043l.09-.281-.24-.177a.04.04 0 0 1 .025-.071h.294l.095-.282c.006-.033.059-.033.073 0Zm4.529 0 .095.282h.295a.04.04 0 0 1 .024.07l-.24.178.09.281a.04.04 0 0 1-.061.043l-.24-.172-.24.172a.04.04 0 0 1-.062-.043l.09-.281-.24-.177a.04.04 0 0 1 .025-.071h.295l.095-.282c.015-.033.067-.033.074 0Zm2.269 0 .095.282h.295a.04.04 0 0 1 .024.07l-.24.178.09.281a.04.04 0 0 1-.061.043l-.24-.172-.24.172a.04.04 0 0 1-.062-.043l.09-.281-.24-.177a.04.04 0 0 1 .025-.071h.295l.095-.282c.014-.033.067-.033.074 0Zm-3.398-.744.095.282h.295a.04.04 0 0 1 .024.07l-.24.178.09.281a.04.04 0 0 1-.06.043l-.24-.172-.24.172a.04.04 0 0 1-.062-.043l.09-.281-.24-.177a.04.04 0 0 1 .024-.071h.295l.095-.282c.01-.038.063-.038.074 0Zm-2.269 0 .095.282h.296a.04.04 0 0 1 .024.07l-.24.178.09.281a.04.04 0 0 1-.062.043l-.24-.172-.24.172a.04.04 0 0 1-.062-.043l.1-.28-.24-.177a.04.04 0 0 1 .023-.07h.296l.095-.282c.001-.04.054-.04.065-.002Zm-2.268 0 .095.282h.296a.04.04 0 0 1 .024.07l-.24.178.09.281a.04.04 0 0 1-.062.043l-.24-.172-.24.172a.04.04 0 0 1-.061-.043l.098-.28-.24-.177a.04.04 0 0 1 .024-.07h.296l.095-.282c.006-.04.054-.04.065-.002Zm6.782-.032a.037.037 0 0 1 .018.032l.095.282h.296a.04.04 0 0 1 .024.07l-.24.178.09.281a.04.04 0 0 1-.062.043l-.24-.172-.24.172a.04.04 0 0 1-.062-.043l.091-.281-.24-.177a.04.04 0 0 1 .024-.071h.295l.096-.282a.037.037 0 0 1 .055-.032Zm-7.916-.683.095.281h.295a.04.04 0 0 1 .024.072l-.24.176.09.282a.04.04 0 0 1-.061.043l-.24-.172-.24.172a.04.04 0 0 1-.062-.043l.099-.28-.24-.177a.04.04 0 0 1 .024-.071h.296l.095-.282c.006-.04.054-.04.065-.001Zm2.268 0 .095.281h.295a.04.04 0 0 1 .024.072l-.24.176.09.282a.04.04 0 0 1-.061.043l-.24-.172-.24.172a.04.04 0 0 1-.062-.043l.099-.28-.24-.177a.04.04 0 0 1 .024-.071h.296l.095-.282c0-.04.054-.04.065-.001Zm2.269 0 .095.281h.295a.04.04 0 0 1 .024.072l-.24.176.09.282a.04.04 0 0 1-.061.043l-.24-.172-.24.172a.04.04 0 0 1-.062-.043l.09-.282-.24-.176a.04.04 0 0 1 .025-.072h.304l.095-.281c0-.039.053-.039.065 0Zm2.244-.032a.037.037 0 0 1 .019.032l.095.281h.295a.04.04 0 0 1 .024.072l-.24.176.09.282a.04.04 0 0 1-.061.043l-.24-.172-.24.172a.04.04 0 0 1-.062-.043l.09-.282-.24-.176a.04.04 0 0 1 .025-.072h.295l.095-.281a.037.037 0 0 1 .055-.032Zm2.254.006c.016 0 .03.01.034.026l.095.281h.295a.04.04 0 0 1 .024.072l-.24.176.09.282a.04.04 0 0 1-.061.043l-.24-.172-.24.172a.04.04 0 0 1-.062-.043l.099-.28-.24-.177a.04.04 0 0 1 .024-.071H18l.095-.282a.034.034 0 0 1 .032-.027Z" fill="#F5F5F5"/><path fill-rule="evenodd" clip-rule="evenodd" d="M30 15H10a1 1 0 0 0-1 1v12a1 1 0 0 0 1 1h20a1 1 0 0 0 1-1V16a1 1 0 0 0-1-1Zm-20-1a2 2 0 0 0-2 2v12a2 2 0 0 0 2 2h20a2 2 0 0 0 2-2V16a2 2 0 0 0-2-2H10Z" fill="#000" fill-opacity=".04"/></g><path d="M24.5.75c0-.414.24-.75.536-.75h6.428c.296 0 .536.336.536.75v4.5c0 .414-.24.75-.536.75h-6.428c-.296 0-.536-.336-.536-.75V.75Z" fill="#0E0E0E"/><path d="M28.178 4.695h-2.133v-.486l1.003-.895a2.14 2.14 0 0 0 .365-.41.741.741 0 0 0 .13-.414v-.058a.469.469 0 0 0-.139-.36.509.509 0 0 0-.369-.131.603.603 0 0 0-.23.04.502.502 0 0 0-.166.104.63.63 0 0 0-.122.158.99.99 0 0 0-.072.193L26 2.265c.033-.099.078-.194.135-.284a.995.995 0 0 1 .522-.418c.12-.042.26-.063.419-.063.159 0 .301.024.427.072.126.045.231.11.315.194a.79.79 0 0 1 .198.292c.045.114.068.239.068.374 0 .126-.02.243-.059.35a1.25 1.25 0 0 1-.162.306c-.069.096-.15.188-.243.275-.09.087-.186.175-.288.265l-.738.635h1.584v.432Zm1.614.054c-.195 0-.365-.036-.509-.108a.956.956 0 0 1-.355-.32 1.481 1.481 0 0 1-.207-.508 3.168 3.168 0 0 1-.068-.689c0-.255.023-.482.068-.683.045-.204.114-.375.207-.513a.92.92 0 0 1 .355-.315c.144-.075.314-.113.509-.113.39 0 .676.143.86.427.185.285.278.684.278 1.197 0 .514-.093.913-.279 1.198-.183.284-.47.427-.86.427Zm0-.432a.55.55 0 0 0 .274-.063.519.519 0 0 0 .19-.189.883.883 0 0 0 .103-.288c.02-.114.031-.24.031-.378V2.85c0-.138-.01-.263-.031-.373a.884.884 0 0 0-.104-.293.524.524 0 0 0-.463-.252.549.549 0 0 0-.28.067.495.495 0 0 0-.184.185.884.884 0 0 0-.103.292 2.018 2.018 0 0 0-.032.374v.549c0 .138.01.264.032.378a.883.883 0 0 0 .103.288c.048.081.11.144.185.189a.58.58 0 0 0 .279.063Z" fill="#fff"/></svg>