<svg width="48" height="48" fill="none" xmlns="http://www.w3.org/2000/svg"><path d="M22.03 44H10.92c-.93 0-1.73-.64-1.95-1.54l-1.92-8.14A2 2 0 0 1 9 31.86h14.95c1.29 0 2.24 1.2 1.95 2.46l-1.92 8.14c-.21.9-1.02 1.54-1.95 1.54v0Zm-5.55-7.86v3.57" stroke="#fff" stroke-width="2" stroke-linecap="round" stroke-linejoin="round"/><path d="M20.76 36.14c-.24 1.19-.48 2.38-.71 3.57m-7.86-3.57c.24 1.19.48 2.38.71 3.57m9.43-8.85c0-3.23-2.62-5.86-5.86-5.86s-5.86 2.62-5.86 5.86" stroke="#fff" stroke-width="2" stroke-linecap="round" stroke-linejoin="round"/><path clip-rule="evenodd" d="M25 20v4l4-4h10c1.1 0 2-.9 2-2V7c0-1.1-.9-2-2-2H14c-1.1 0-2 .9-2 2v11c0 1.1.9 2 2 2h11Z" stroke="#fff" stroke-width="2" stroke-linecap="round" stroke-linejoin="round"/><path d="m35.82 10.1-4.72 4.72" stroke="#fff" stroke-width="2" stroke-linecap="round" stroke-linejoin="round"/><path d="M31.1 11.28a1.18 1.18 0 1 0 0-2.36 1.18 1.18 0 0 0 0 2.36ZM35.82 16a1.18 1.18 0 1 0 0-2.36 1.18 1.18 0 0 0 0 2.36Z" fill="#fff"/><path d="M17 10h1.23c.78 0 1.26.85.86 1.51L17 15h3" stroke="#fff" stroke-width="2" stroke-linecap="round" stroke-linejoin="round"/><path clip-rule="evenodd" d="M27 12c0-1.1-.9-2-2-2s-2 .9-2 2v1c0 1.1.9 2 2 2s2-.9 2-2v-1Z" stroke="#fff" stroke-width="2" stroke-linecap="round" stroke-linejoin="round"/></svg>