<svg width="33" height="32" fill="none" xmlns="http://www.w3.org/2000/svg"><path d="M2.613 11a9 9 0 1 1 18 0 9 9 0 0 1-18 0Z" fill="#F3BA2F"/><path d="M13.375 10.267c-.044-.007-.068-.034-.09-.06l-.02-.02-.219-.219c-.443-.442-.886-.885-1.325-1.331-.085-.087-.13-.087-.215 0-.286.29-.573.578-.86.866-.229.228-.456.457-.683.686-.074.074-.116.084-.195 0a33.74 33.74 0 0 0-.84-.836c-.072-.07-.068-.113 0-.18a905.44 905.44 0 0 0 2.619-2.62c.055-.056.085-.05.137.002.868.871 1.738 1.742 2.61 2.61.07.07.083.114.004.19-.197.192-.39.386-.584.581l-.255.256-.06.053-.024.022Zm.979 2.493-.041.045-.603.605-2.03 2.038c-.056.057-.084.047-.134-.004-.875-.88-1.75-1.759-2.629-2.636-.062-.062-.06-.1.002-.159.296-.288.59-.578.88-.874.068-.07.103-.034.143.008l.013.013.354.354c.402.402.804.803 1.2 1.21.091.093.131.077.213-.006.26-.266.524-.53.786-.793.25-.25.5-.5.748-.753.085-.086.133-.085.217.002.192.199.388.394.585.59l.253.252.016.015c.021.018.043.037.044.074l-.009.01-.008.009Z" fill="#fff"/><path d="m11.584 12 .014.01c.04.004.058-.016.077-.035l.005-.006.003-.003.237-.237c.219-.219.437-.438.659-.653.062-.06.065-.095.002-.156a92.3 92.3 0 0 1-.91-.914c-.038-.04-.063-.05-.106-.006-.31.315-.622.63-.936.941-.051.05-.033.072.008.113.21.209.418.418.626.628l.282.284a.402.402 0 0 0 .04.034Zm3.529-2.007.019.018.051.047.254.252c.214.213.429.426.645.638.037.037.044.05.004.09-.31.304-.617.61-.923.918-.047.046-.074.056-.126.003a60.604 60.604 0 0 0-.885-.886c-.063-.062-.063-.095 0-.156.213-.208.424-.42.634-.63l.244-.244a.216.216 0 0 0 .012-.013c.016-.019.033-.038.07-.037Zm-7.008 1.998a.714.714 0 0 1 .011.01c.03.002.044-.012.057-.026l.006-.006.234-.232.701-.696c.032-.032.036-.06-.004-.098a71.718 71.718 0 0 1-.908-.9c-.058-.059-.09-.056-.146.002-.303.305-.61.607-.916.908-.034.033-.037.048-.002.082l.699.691.237.236.031.029ZM12.613 21a9 9 0 1 1 18 0 9 9 0 0 1-18 0Z" fill="#fff"/><path fill-rule="evenodd" clip-rule="evenodd" d="M21.233 12c-1.734.1-3.334.69-4.667 1.633h10.386A8.956 8.956 0 0 0 22.284 12h-1.051Zm-6.427 3.266a8.985 8.985 0 0 0-1.068 1.633H29.78a8.978 8.978 0 0 0-1.068-1.633H14.806ZM12.65 20.18c.05-.56.15-1.106.299-1.633h17.317c.148.527.249 1.072.298 1.633H12.65Zm.004 1.633a8.89 8.89 0 0 0 .308 1.633h17.29a8.897 8.897 0 0 0 .309-1.633H12.654Zm2.039 4.899a8.99 8.99 0 0 1-1.083-1.633h15.994a8.987 8.987 0 0 1-1.082 1.633H14.693Zm6.534 3.256.027.001.027.001a8.86 8.86 0 0 0 5.455-1.625H16.479a8.859 8.859 0 0 0 4.748 1.623Z" fill="#F44336"/><path d="M21.422 12.005a8.991 8.991 0 0 0-8.77 8.178h8.77v-8.178Z" fill="#283991"/><path d="m14.413 17.085.137.421h.444l-.36.26.138.422-.36-.26-.358.26.137-.422-.359-.26h.444l.137-.421Zm0 1.487.137.422h.444l-.36.26.138.421-.36-.26-.358.26.137-.421-.359-.26h.444l.137-.422Zm1.491-3.719.137.421h.444l-.36.261.138.421-.36-.26-.358.26.137-.421-.36-.26h.445l.137-.422Zm0 1.488.137.421h.444l-.36.26.138.422-.36-.26-.358.26.137-.422-.36-.26h.445l.137-.421Zm0 1.488.137.421h.444l-.36.26.138.421-.36-.26-.358.26.137-.421-.36-.26h.445l.137-.421Zm-2.623 1.102-.137-.421.359-.26h-.444l-.01-.03a8.58 8.58 0 0 0-.133.456l.006-.005.36.26Zm.773-2.231.359-.26.359.26-.137-.421.359-.26h-.444l-.137-.422-.137.421h-.164l-.09.139.169.122-.137.421Zm1.85-2.492.359.26-.137-.42.358-.261h-.256a8.944 8.944 0 0 0-.63.515l-.054.166.36-.26Zm1.131-.483.36-.26.358.26-.137-.422.36-.26h-.444l-.02-.057c-.15.077-.298.157-.444.242l.104.075-.137.422Zm.36.385.137.42h.443l-.359.261.137.421-.358-.26-.36.26.138-.421-.36-.26h.444l.137-.421Zm0 1.487.137.421h.443l-.359.26.137.422-.358-.26-.36.26.138-.421-.36-.26h.444l.137-.422Zm0 1.488.137.421h.443l-.359.26.137.422-.358-.26-.36.26.138-.422-.36-.26h.444l.137-.421Zm0 1.487.137.422h.443l-.359.26.137.421-.358-.26-.36.26.138-.421-.36-.26h.444l.137-.422Zm1.49-5.206.137.42h.444l-.359.261.137.421-.359-.26-.359.26.137-.42-.359-.261h.444l.137-.421Zm0 1.487.137.421h.444l-.359.261.137.421-.359-.26-.359.26.137-.421-.359-.26h.444l.137-.422Zm0 1.488.137.421h.444l-.359.26.137.422-.359-.26-.359.26.137-.422-.359-.26h.444l.137-.421Zm0 1.488.137.421h.444l-.359.26.137.421-.359-.26-.359.26.137-.421-.359-.26h.444l.137-.421Zm1.491-5.207.137.421h.444l-.359.26.137.422-.359-.26-.359.26.137-.422-.359-.26h.444l.137-.421Zm0 1.488.137.42h.444l-.359.261.137.421-.359-.26-.359.26.137-.421-.359-.26h.444l.137-.421Zm0 1.487.137.421h.444l-.359.26.137.422-.359-.26-.359.26.137-.421-.359-.26h.444l.137-.422Zm0 1.488.137.421h.444l-.359.26.137.422-.359-.26-.359.26.137-.422-.359-.26h.444l.137-.421Zm0 1.487.137.422h.444l-.359.26.137.421-.359-.26-.359.26.137-.421-.359-.26h.444l.137-.422Z" fill="#EFEFEF"/></svg>