<svg width="33" height="32" fill="none" xmlns="http://www.w3.org/2000/svg"><g clip-path="url(#a)" fill="#fff"><path fill-rule="evenodd" clip-rule="evenodd" d="M16.9 32a15.97 15.97 0 0 0 5.444-.95l-.545-4.04c-1.155 1.584-2.505 2.56-3.9 2.877v-5.878a51.45 51.45 0 0 1 3.52.18l-.274-2.03a54.618 54.618 0 0 0-3.246-.15V17h6.98c-.021.53-.06 1.052-.115 1.563l1.829 1.417c.151-.963.25-1.96.288-2.98h3.984a13.916 13.916 0 0 1-1.408 5.198l1.61 1.247A15.93 15.93 0 0 0 32.9 16c0-8.837-7.163-16-16-16C8.064 0 .9 7.163.9 16s7.164 16 16 16Zm-1-29.886c-1.647.374-3.23 1.668-4.506 3.794a14.661 14.661 0 0 0-.872 1.705c1.632.21 3.447.344 5.377.378V2.114Zm2 0V7.99a49.441 49.441 0 0 0 5.379-.378 14.78 14.78 0 0 0-.872-1.705c-1.276-2.127-2.861-3.421-4.508-3.795Zm-2 7.877a50.775 50.775 0 0 1-6.081-.454c-.5 1.65-.817 3.496-.898 5.463h6.978V9.991Zm2 5.009V9.991a50.777 50.777 0 0 0 6.082-.454c.5 1.65.817 3.496.898 5.463H17.9Zm-2 2H8.92c.082 1.967.399 3.814.899 5.463a50.786 50.786 0 0 1 6.08-.454V17Zm0 7.009a49.419 49.419 0 0 0-5.378.378c.264.609.556 1.18.872 1.705 1.275 2.126 2.86 3.42 4.505 3.795v-5.878ZM7.83 9.206A24.197 24.197 0 0 0 6.92 15H2.935a13.918 13.918 0 0 1 2.133-6.488 24.8 24.8 0 0 0 2.762.694ZM6.92 17H2.935a13.919 13.919 0 0 0 2.133 6.488 24.821 24.821 0 0 1 2.762-.694A24.197 24.197 0 0 1 6.919 17Zm21.81-8.488A13.92 13.92 0 0 1 30.865 15H26.88a24.2 24.2 0 0 0-.912-5.794 24.91 24.91 0 0 0 2.762-.694Zm-5.573-5.039a14.052 14.052 0 0 1 4.3 3.332c-.648.18-1.366.345-2.145.49a17.034 17.034 0 0 0-1.191-2.416c-.298-.497-.62-.967-.964-1.406ZM10.642 28.527a13.81 13.81 0 0 1-.963-1.406 17.034 17.034 0 0 1-1.192-2.416c-.778.145-1.496.31-2.144.49a14.052 14.052 0 0 0 4.299 3.332ZM8.487 7.295A17.04 17.04 0 0 1 9.68 4.88c.298-.497.62-.967.963-1.406a14.052 14.052 0 0 0-4.3 3.332c.648.18 1.366.345 2.145.49Z"/><path d="m24.144 29.428-1.327-9.843 8.14 6.305-2.397 1.245 2.238 3.817L28.78 32l-2.238-3.817-2.397 1.245Z"/></g><defs><clipPath id="a"><path fill="#fff" transform="translate(.9)" d="M0 0h32v32H0z"/></clipPath></defs></svg>