<svg width="187" height="34" fill="none" xmlns="http://www.w3.org/2000/svg"><g clip-path="url(#a)"><path d="m15.698 1.682-1.34 7.6H9.705c-4.34 0-8.477 3.517-9.244 7.857l-.324 1.848c-.764 4.34 2.132 7.857 6.473 7.857h3.88c3.163 0 6.177-2.561 6.733-5.725L20.797.862l-5.099.82Zm-3.301 18.72c-.171.978-1.051 1.773-2.028 1.773H8.01c-1.95 0-3.256-1.583-2.913-3.538l.203-1.152c.346-1.95 2.207-3.538 4.158-3.538h4.076l-1.138 6.456Zm39.13 6.441L54.58 9.525h4.83l-3.053 17.318h-4.833.004Zm.523-17.119-.727 4.121c-2.288-.71-4.648-.484-5.373-.34l-2.352 13.343h-4.832l2.898-16.429c1.571-.65 5.43-1.971 10.386-.695ZM32.47 9.28h-3.758c-3.663 0-7.154 2.968-7.8 6.63l-.76 4.305c-.645 3.663 1.798 6.63 5.46 6.63h7.997l.82-4.654h-7.515c-1.22 0-2.036-.988-1.819-2.211l.025-.146h12.116l.692-3.923c.645-3.663-1.798-6.63-5.46-6.63h.003Zm.61 6.26-.028.25h-7.204l.04-.222c.217-1.22 1.33-2.293 2.553-2.293h2.814c1.209 0 2.026 1.056 1.826 2.265Zm45.17-6.014c-1.645 4.376-5.418 11.821-9.072 17.318h-4.833c-1.677-5.232-2.76-12.521-2.967-17.318h4.832c.088 1.564.788 7.368 1.588 11.423 2.192-3.945 4.61-9.12 5.617-11.423h4.836Z" fill="#FF444F"/><path d="M83.764 24.683c.466 0 .935-.044 1.407-.133a4.008 4.008 0 0 0 1.24-.433c.353-.2.636-.472.848-.816.212-.344.303-.771.271-1.282a2.285 2.285 0 0 0-.22-.883 2.326 2.326 0 0 0-.578-.716 5.783 5.783 0 0 0-.955-.65c-.38-.21-.833-.449-1.36-.715a21.299 21.299 0 0 1-1.444-.733 5.529 5.529 0 0 1-1.169-.866 3.821 3.821 0 0 1-.822-1.182c-.206-.455-.328-1.005-.368-1.649-.102-1.665.415-3.003 1.552-4.013 1.137-1.01 2.848-1.516 5.136-1.516 1.065 0 2.01.106 2.833.317.823.211 1.396.405 1.718.582l-1.01 2.532c-.322-.178-.833-.367-1.534-.566-.7-.2-1.472-.3-2.316-.3-.422 0-.841.045-1.257.133-.417.089-.79.239-1.122.45a2.272 2.272 0 0 0-.781.832c-.19.345-.27.761-.24 1.25.037.599.3 1.093.79 1.481.49.39 1.215.794 2.174 1.216.593.266 1.126.539 1.599.816.472.278.88.588 1.223.933.343.344.612.749.807 1.215.195.466.313 1.022.352 1.666.058.932-.07 1.754-.38 2.464a4.45 4.45 0 0 1-1.374 1.765c-.604.466-1.332.816-2.184 1.05-.851.233-1.788.349-2.81.349-.755 0-1.44-.05-2.057-.15-.617-.1-1.157-.216-1.62-.35a7.948 7.948 0 0 1-1.158-.416 12.36 12.36 0 0 1-.704-.35l1.043-2.53c.16.088.384.199.67.332a9.94 9.94 0 0 0 2.326.733c.472.089.963.133 1.474.133Zm15.98 2.598c-1.133 0-2.12-.161-2.961-.483-.842-.322-1.557-.766-2.147-1.332a5.79 5.79 0 0 1-1.354-1.982 7.402 7.402 0 0 1-.547-2.398 14.212 14.212 0 0 1 .422-4.496c.378-1.443.966-2.72 1.763-3.83a8.874 8.874 0 0 1 3.001-2.648c1.203-.655 2.593-.982 4.17-.982.91 0 1.7.116 2.369.35.669.232 1.222.549 1.657.948.435.4.769.861 1.001 1.383a4.65 4.65 0 0 1 .399 1.615c.064 1.044-.07 1.926-.403 2.648a5.079 5.079 0 0 1-1.387 1.815c-.592.489-1.296.866-2.112 1.132a18.39 18.39 0 0 1-2.559.633c-.89.156-1.794.261-2.711.317a535.6 535.6 0 0 1-2.606.15 3.595 3.595 0 0 0-.006.432l.016.267c.032.51.122.994.272 1.449.15.455.403.855.757 1.199.354.344.831.616 1.432.816.6.2 1.378.3 2.333.3.422 0 .858-.04 1.309-.117.45-.078.877-.178 1.28-.3s.762-.244 1.077-.367c.314-.121.535-.238.661-.35l.428 2.632c-.429.245-1.129.505-2.1.783-.971.277-2.122.416-3.455.416Zm-3.75-9.525a43.971 43.971 0 0 0 3.514-.25c1.059-.122 1.967-.333 2.726-.633.758-.3 1.339-.704 1.74-1.216.402-.51.577-1.176.527-1.998-.013-.2-.064-.41-.156-.633a1.78 1.78 0 0 0-.437-.616c-.201-.188-.471-.344-.812-.466-.34-.122-.755-.183-1.243-.183-.778 0-1.494.166-2.151.5a6.05 6.05 0 0 0-1.734 1.315 7.328 7.328 0 0 0-1.249 1.898 9.698 9.698 0 0 0-.725 2.282Zm12.967 2.897c-.093-1.51.045-2.964.414-4.363.369-1.399.965-2.63 1.788-3.697a9 9 0 0 1 3.107-2.547c1.248-.633 2.706-.95 4.371-.95.733 0 1.435.05 2.108.15a6.98 6.98 0 0 1 1.934.583l-1.006 2.598a5.037 5.037 0 0 0-1.278-.466c-.484-.111-1.104-.167-1.858-.167-1.089 0-2.051.239-2.887.716a6.516 6.516 0 0 0-2.098 1.899c-.563.788-.973 1.698-1.231 2.73a10.464 10.464 0 0 0-.285 3.215c.035.577.13 1.121.283 1.631.153.511.398.961.733 1.35.334.388.769.694 1.305.915.535.222 1.203.333 2.002.333.4 0 .819-.038 1.259-.116a10.685 10.685 0 0 0 2.209-.633c.292-.122.501-.238.628-.35l.428 2.631c-.406.267-1.045.528-1.917.783-.873.255-1.875.383-3.007.383-1.066 0-2.02-.161-2.861-.483a6.08 6.08 0 0 1-2.149-1.365 6.394 6.394 0 0 1-1.394-2.099c-.339-.81-.538-1.703-.598-2.68Zm19.957 6.628c-.977 0-1.802-.145-2.474-.433-.673-.288-1.23-.677-1.671-1.166a4.768 4.768 0 0 1-.989-1.732 8.44 8.44 0 0 1-.397-2.131 9.71 9.71 0 0 1 .044-1.715c.065-.566.146-1.138.244-1.715l1.587-8.86h3.097l-1.461 8.194c-.08.51-.187 1.11-.322 1.798a8.074 8.074 0 0 0-.14 2.065c.025.4.087.782.188 1.149.1.366.264.688.492.966.228.278.525.5.89.666.365.166.815.25 1.348.25.954 0 1.78-.205 2.476-.617a6.383 6.383 0 0 0 1.726-1.448c.001-.355.011-.722.033-1.1a9.53 9.53 0 0 1 .157-1.232l1.907-10.69h3.097l-1.957 10.957c-.08.51-.143 1.005-.192 1.482a9.22 9.22 0 0 0 .202 3.014c.12.51.31 1.066.569 1.665l-2.706.4a11.002 11.002 0 0 1-.385-.833 6.853 6.853 0 0 1-.327-.999 9.765 9.765 0 0 1-.823.7 6.135 6.135 0 0 1-1.108.666c-.421.2-.889.366-1.402.5a6.838 6.838 0 0 1-1.703.199Zm19.801-18.118c.266 0 .567.011.901.033.335.023.664.062.99.117.325.055.623.111.893.166.27.056.473.117.611.184l-.734 2.697a7.357 7.357 0 0 0-1.556-.4 11.178 11.178 0 0 0-1.674-.133c-.466 0-.925.034-1.376.1-.451.067-.84.156-1.166.267l-2.629 14.654h-3.097l2.972-16.653c.869-.31 1.808-.56 2.818-.75a16.59 16.59 0 0 1 3.047-.282Zm5.65 17.685h-3.097l3.098-17.319h3.097l-3.098 17.319Zm2.34-20.45c-.511 0-.948-.155-1.311-.466-.364-.31-.562-.743-.596-1.299-.044-.71.143-1.27.562-1.682.419-.41.906-.616 1.461-.616.51 0 .953.162 1.329.483.374.322.58.772.615 1.35.041.665-.159 1.204-.6 1.614-.441.411-.928.617-1.46.617Zm7.814 20.916c-1.666 0-2.909-.366-3.731-1.099-.823-.732-1.277-1.798-1.363-3.197-.056-.91.028-2.076.251-3.497L162.332 4.7l3.198-.533-.969 5.362h5.895l-.473 2.598h-5.895l-1.36 7.66c-.203 1.044-.28 1.954-.232 2.731.045.733.277 1.26.697 1.582.419.322 1.095.483 2.028.483.643 0 1.27-.105 1.879-.316.608-.21 1.074-.405 1.396-.583l.395 2.631c-.321.2-.874.416-1.659.65-.785.233-1.688.35-2.709.35Zm12.655-3.264a37.985 37.985 0 0 0 2.043-4.146 62.293 62.293 0 0 0 1.562-4.113c.441-1.31.805-2.515 1.093-3.614.287-1.099.488-1.982.603-2.648h3.231a56.04 56.04 0 0 1-.839 3.148 58.715 58.715 0 0 1-1.366 4.063 67.778 67.778 0 0 1-1.857 4.463 42.73 42.73 0 0 1-2.311 4.38 57.471 57.471 0 0 1-1.95 2.947 13.984 13.984 0 0 1-2.134 2.398 9.074 9.074 0 0 1-2.583 1.599c-.954.388-2.041.582-3.261.582a6.341 6.341 0 0 1-1.747-.233c-.542-.155-.941-.322-1.196-.5l.91-2.53c.233.177.542.327.927.45.385.12.81.182 1.277.182 1.287 0 2.362-.31 3.223-.932.861-.622 1.66-1.444 2.396-2.465a74.03 74.03 0 0 1-2.537-8.493 67.965 67.965 0 0 1-1.507-9.059h3.164a68.292 68.292 0 0 0 .979 6.977 81.6 81.6 0 0 0 .836 3.848c.312 1.288.66 2.52 1.044 3.696Z" fill="#414652"/></g><defs><clipPath id="a"><path fill="#fff" transform="translate(0 .862)" d="M0 0h186.034v32.276H0z"/></clipPath></defs></svg>