<svg width="230" height="160" fill="none" xmlns="http://www.w3.org/2000/svg"><path opacity=".295" fill-rule="evenodd" clip-rule="evenodd" d="M13.374 138.947C22.291 152.983 36.003 160 54.511 160s32.22-7.017 41.137-21.053c8.916-14.035 13.374-33.684 13.374-58.947 0-25.263-4.458-44.912-13.374-58.947C86.73 7.017 73.019 0 54.51 0S22.29 7.017 13.373 21.053C4.458 35.088 0 54.737 0 80c0 25.263 4.458 44.912 13.374 58.947Zm57.956-16.842c-3.107 6.501-8.713 9.751-16.819 9.751s-13.712-3.25-16.82-9.751c-3.107-6.5-4.66-15.66-4.66-27.479V65.374c0-11.82 1.553-20.979 4.66-27.48 3.108-6.5 8.714-9.75 16.82-9.75s13.712 3.25 16.82 9.75c3.107 6.501 4.66 15.66 4.66 27.48v29.252c0 11.819-1.553 20.979-4.66 27.479ZM176.907 160c-8.375 0-15.873-1.44-22.493-4.321-6.62-2.881-12.192-7.018-16.718-12.41-4.526-5.393-7.971-11.856-10.335-19.391-2.364-7.535-3.546-15.956-3.546-25.263 0-10.785 1.52-21.016 4.559-30.693 3.04-9.676 6.958-18.614 11.754-26.814 4.796-8.2 10.199-15.55 16.211-22.05 6.012-6.5 12.057-11.967 18.137-16.399h41.947c-8.646 6.796-16.414 13.26-23.304 19.39-6.89 6.132-12.868 12.3-17.934 18.505-5.066 6.205-9.254 12.52-12.564 18.947-3.31 6.427-5.64 13.334-6.991 20.72l1.824.665a63.965 63.965 0 0 1 4.357-8.642 30.242 30.242 0 0 1 6.282-7.424c2.499-2.142 5.437-3.878 8.814-5.208 3.378-1.33 7.296-1.994 11.754-1.994 5.809 0 11.246 1.145 16.313 3.435a39.239 39.239 0 0 1 13.171 9.64c3.716 4.136 6.62 9.196 8.714 15.18 2.094 5.983 3.141 12.594 3.141 19.833 0 7.978-1.25 15.291-3.749 21.939-2.499 6.649-6.079 12.373-10.74 17.175-4.661 4.801-10.233 8.532-16.718 11.191-6.485 2.659-13.78 3.989-21.886 3.989Zm-15.806-32.022c3.783 4.063 9.052 6.094 15.806 6.094 6.755 0 12.024-2.031 15.807-6.094 3.782-4.063 5.674-9.862 5.674-17.396v-3.989c0-7.535-1.892-13.334-5.674-17.396-3.783-4.063-9.052-6.094-15.807-6.094-6.754 0-12.023 2.03-15.806 6.094-3.782 4.063-5.674 9.861-5.674 17.396v3.989c0 7.534 1.892 13.333 5.674 17.396Z" fill="#E5E5E5"/><path fill-rule="evenodd" clip-rule="evenodd" d="M53 40.5c17.673 0 32 14.327 32 32a31.88 31.88 0 0 1-8.198 21.388l6.905 6.905a1 1 0 0 1-1.32 1.497l-.094-.083-6.874-6.873C69.646 101.003 61.731 104.5 53 104.5c-17.673 0-32-14.327-32-32 0-17.673 14.327-32 32-32Zm0 2c-16.569 0-30 13.431-30 30 0 16.569 13.431 30 30 30 16.569 0 30-13.431 30-30 0-16.569-13.431-30-30-30Zm6.734 15.68A7.963 7.963 0 0 1 61 62.5v4h4a1 1 0 0 1 .994.883L66 67.5v1h7a1 1 0 1 1 0 2h-7v5h7a1 1 0 1 1 0 2h-7v5h7a1 1 0 1 1 0 2h-7.153c-.896 5.807-5.636 10.345-11.538 10.935l-.309.027V68.5h-2v26.962l-.308-.027c-5.903-.59-10.642-5.128-11.54-10.935H33a1 1 0 1 1 0-2h7v-5h-7a1 1 0 1 1 0-2h7v-5h-7a1 1 0 1 1 0-2h7v-1l.007-.117A1 1 0 0 1 41 66.5h4v-4c0-1.591.465-3.074 1.266-4.32l-3.973-3.973a1 1 0 0 1 1.32-1.497l.094.083 3.847 3.847A7.972 7.972 0 0 1 53 54.5a7.97 7.97 0 0 1 5.446 2.14l3.847-3.847.094-.083a1 1 0 0 1 1.32 1.497l-3.973 3.973ZM54 66.5h-7v-4l.004-.225A6 6 0 0 1 53 56.5l.225.004A6 6 0 0 1 59 62.5v4h-5Zm-4 2h-8v14l.004.292a11.01 11.01 0 0 0 7.904 10.268l.093.026V68.5Zm6 24.586V68.5h8v14l-.003.292a11.01 11.01 0 0 1-7.904 10.268l-.094.026Z" fill="url(#a)"/><defs><linearGradient id="a" x1="53" y1="136.5" x2="117" y2="72.5" gradientUnits="userSpaceOnUse"><stop stop-color="#FF444F"/><stop offset="1" stop-color="#FF6444"/></linearGradient></defs></svg>