<svg width="32" height="32" fill="none" xmlns="http://www.w3.org/2000/svg"><path d="M0 16C0 7.163 7.163 0 16 0s16 7.163 16 16-7.163 16-16 16S0 24.837 0 16Z" fill="#0033AD"/><path d="M11.932 16.252a1.215 1.215 0 0 0 1.142 1.282h.066a1.212 1.212 0 1 0-1.211-1.281l.003-.001Zm-4.519-.307a.392.392 0 1 0-.043.782.392.392 0 0 0 .043-.782Zm4.442-6.725a.392.392 0 1 0-.358-.698.392.392 0 0 0 .358.697Zm1.23 2.143a.606.606 0 1 0-.546-1.081.606.606 0 0 0 .546 1.081Zm-4.138 1.475a.498.498 0 1 0 .548-.832.498.498 0 0 0-.548.832Zm.737 2.887a.605.605 0 1 0-.068 1.208.605.605 0 0 0 .068-1.208Zm-.671 4.068a.498.498 0 1 0 .449.889.498.498 0 0 0-.449-.89Zm2.353-5.32a.712.712 0 1 0 .781-1.191.712.712 0 0 0-.78 1.191Zm7.464-3.157a.606.606 0 1 0 .662-1.015.606.606 0 0 0-.662 1.015Zm1.243-2.138a.392.392 0 1 0 .43-.656.392.392 0 0 0-.43.656Zm-1.147 5.921a1.211 1.211 0 1 0-.14 2.42h.07a1.212 1.212 0 0 0 .07-2.42Zm-5.443-.709a1.207 1.207 0 0 0 1.083.666 1.213 1.213 0 0 0 .635-2.245 1.214 1.214 0 0 0-1.718 1.578Zm9.502-1.554a.498.498 0 1 0-.448-.89.498.498 0 0 0 .448.89Zm-3.072.387a.712.712 0 1 0 .64 1.271.712.712 0 0 0-.64-1.271Zm-3.959-4.228A.499.499 0 1 0 16.01 8a.499.499 0 0 0-.056.995Zm-.006 3.139a.712.712 0 1 0 .08-1.422.712.712 0 0 0-.08 1.422Zm-3.86 7.272a.711.711 0 1 0-.64-1.27.711.711 0 0 0 .64 1.27Zm4.321-6.233a1.212 1.212 0 1 0 2.027 1.328 1.212 1.212 0 0 0-2.027-1.328Zm2.106 5.067a1.21 1.21 0 1 0-2.162 1.09 1.21 1.21 0 0 0 2.162-1.09Zm2.118-.084a.712.712 0 1 0-.781 1.19.712.712 0 0 0 .781-1.19Zm2.321-1.82a.606.606 0 1 0-1.21-.068.606.606 0 0 0 1.21.068Zm1.676-.432a.392.392 0 1 0-.045.783.392.392 0 0 0 .045-.783Zm-1.578 3.887a.498.498 0 1 0-.546.833.498.498 0 0 0 .546-.832Zm-11.125 3.66a.392.392 0 1 0-.43.655.392.392 0 0 0 .43-.655Zm8.216-.041a.392.392 0 1 0 .353.7.392.392 0 0 0-.353-.7Zm-4.553-3.956a1.212 1.212 0 1 0-2.027-1.328 1.212 1.212 0 0 0 2.027 1.328Zm-2.422 1.861a.605.605 0 1 0-.663 1.013.605.605 0 0 0 .663-1.013Zm2.826 2.319a.498.498 0 1 0-.056.994.498.498 0 0 0 .056-.994ZM16 20.496a.713.713 0 1 0-.087 1.423.713.713 0 0 0 .086-1.423Zm2.914.77a.606.606 0 1 0 .548 1.08.606.606 0 0 0-.548-1.08Z" fill="#fff"/></svg>