<svg xmlns="http://www.w3.org/2000/svg" width="48" height="49"><defs><linearGradient id="a" x1=".325%" x2="99.675%" y1="100%" y2="0%"><stop offset="0%" stop-color="#FF444F"/><stop offset="100%" stop-color="#FF6444"/></linearGradient></defs><path fill="url(#a)" d="M158 64.21c3.314 0 6 2.694 6 6.019v36.117c0 3.325-2.686 6.02-6 6.02h-36c-3.314 0-6-2.695-6-6.02V70.23c0-3.325 2.686-6.02 6-6.02h36zm0 3.009h-36a3.005 3.005 0 0 0-2.992 2.785l-.008.225v36.117a3.006 3.006 0 0 0 2.776 3.002l.224.008h36a3.005 3.005 0 0 0 2.992-2.785l.008-.225V70.23a3.006 3.006 0 0 0-2.776-3.002L158 67.22zm-9 22.573c4.142 0 7.5 3.37 7.5 7.525 0 4.156-3.358 7.525-7.5 7.525-4.142 0-7.5-3.37-7.5-7.525 0-4.156 3.358-7.525 7.5-7.525zm0 3.01c-2.485 0-4.5 2.022-4.5 4.515s2.015 4.515 4.5 4.515 4.5-2.022 4.5-4.515-2.015-4.515-4.5-4.515zm2.705-16.22a1.502 1.502 0 0 1-.003 2.125L130.419 99.99a1.502 1.502 0 0 1-2.124.003 1.502 1.502 0 0 1 .003-2.125l21.283-21.282a1.501 1.501 0 0 1 2.124-.004zM131 71.734c4.142 0 7.5 3.368 7.5 7.524 0 4.156-3.358 7.525-7.5 7.525-4.142 0-7.5-3.37-7.5-7.525 0-4.156 3.358-7.524 7.5-7.524zm0 3.01c-2.485 0-4.5 2.02-4.5 4.514s2.015 4.515 4.5 4.515 4.5-2.021 4.5-4.515a4.508 4.508 0 0 0-4.5-4.515z" transform="translate(-116 -64)"/></svg>802a1.77 1.77 0 0 0-.234-.918c-.156-.276-.426-.504-.81-.684-.384-.18-.9-.318-1.548-.414-.648-.096-1.464-.144-2.448-.144.132-1.116.24-2.25.324-3.402.084-1.152.15-2.232.198-3.24h6.75v2.25h-4.5c-.024.432-.054.852-.09 1.26a18.04 18.04 0 0 1-.09 1.044c1.752.12 3.042.534 3.87 1.242.84.696 1.26 1.668 1.26 2.916 0 .576-.102 1.11-.306 1.602-.204.492-.51.918-.918 1.278-.408.36-.924.642-1.548.846-.612.204-1.332.306-2.16.306-.324 0-.666-.024-1.026-.072a9.615 9.615 0 0 1-1.026-.162c-.324-.06-.618-.126-.882-.198a3.463 3.463 0 0 1-.612-.216l.486-2.214c.3.132.696.264 1.188.396.492.12 1.08.18 1.764.18.828 0 1.428-.162 1.8-.486.372-.336.558-.726.558-1.17ZM16.521 44.503c-1.014 0-1.788-.282-2.322-.846-.528-.564-.792-1.365-.792-2.403 0-.516.081-.975.243-1.377.162-.408.384-.75.666-1.026a2.755 2.755 0 0 1 1.008-.639c.39-.144.813-.216 1.27-.216.263 0 .503.021.72.063.215.036.404.081.566.135a2.517 2.517 0 0 1 .64.28l-.406 1.133a3.372 3.372 0 0 0-.675-.26 3.15 3.15 0 0 0-.864-.109c-.216 0-.429.036-.639.108a1.456 1.456 0 0 0-.549.351c-.156.156-.282.36-.378.612a2.587 2.587 0 0 0-.144.918c0 .288.03.558.09.81.066.246.168.46.306.64.144.18.33.323.558.431.228.102.504.153.828.153.204 0 .387-.012.55-.036.161-.024.305-.05.431-.08.126-.037.237-.076.333-.118.096-.042.183-.08.261-.117l.387 1.125c-.198.12-.477.228-.837.324s-.777.144-1.25.144Zm2.992-.126V38.14h4.176v1.18h-2.772v1.304h2.466v1.18h-2.466v2.573h-1.404Zm6.572-1.143.225.018h.315c.702 0 1.221-.177 1.557-.53.342-.355.513-.844.513-1.468 0-.654-.162-1.149-.486-1.485-.324-.336-.837-.504-1.539-.504a5.06 5.06 0 0 0-.297.01c-.102 0-.198.005-.288.017v3.942Zm4.059-1.98c0 .54-.084 1.011-.252 1.413a2.596 2.596 0 0 1-.72 1 3.008 3.008 0 0 1-1.125.593 5.237 5.237 0 0 1-1.494.198c-.252 0-.546-.012-.882-.036a6.766 6.766 0 0 1-.99-.126v-6.075c.324-.06.66-.099 1.008-.117.354-.024.657-.036.909-.036.534 0 1.017.06 1.449.18.438.12.813.31 1.125.567.312.258.552.588.72.99.168.402.252.885.252 1.45Zm2.442 2.16c.246 0 .42-.024.522-.072.102-.048.153-.14.153-.279 0-.108-.066-.2-.198-.279a3.465 3.465 0 0 0-.603-.279 6.668 6.668 0 0 1-.576-.243 1.773 1.773 0 0 1-.432-.297 1.268 1.268 0 0 1-.28-.423 1.55 1.55 0 0 1-.098-.585c0-.444.165-.795.495-1.053.33-.258.783-.387 1.359-.387.288 0 .564.027.828.081.264.048.474.102.63.162l-.234 1.044a4.81 4.81 0 0 0-.513-.144 2.703 2.703 0 0 0-.612-.063c-.42 0-.63.117-.63.351 0 .054.009.102.027.144a.337.337 0 0 0 .108.126c.054.036.126.078.216.126.096.042.216.09.36.144.294.108.537.216.729.324.192.102.342.216.45.342.114.12.192.255.234.405.048.15.072.324.072.522 0 .468-.177.822-.531 1.062-.348.24-.843.36-1.485.36-.42 0-.771-.036-1.053-.108a4.275 4.275 0 0 1-.576-.18l.225-1.089c.228.09.462.162.702.216.24.048.477.072.71.072Z" fill="#fff"/></g><defs><clipPath id="a"><path fill="#fff" d="M0 0h48v48H0z"/></clipPath></defs></svg>