<svg width="32" height="32" fill="none" xmlns="http://www.w3.org/2000/svg"><path fill="#fff" d="M0 0h32v32H0z"/><g clip-path="url(#a)" fill="#414652" fill-opacity=".72"><path d="M28.8 9.4h-6.4V11h6.4c.882 0 1.6.718 1.6 1.6v9.6c0 .882-.718 1.6-1.6 1.6h-3.2v2.479L21.22 23.8H16c-.882 0-1.6-.718-1.6-1.6v-1.6h-1.6v1.599a3.158 3.158 0 0 0 3.155 3.155l4.845.046 5.445 3.082A.595.595 0 0 0 27.2 28v-2.602h1.6c1.762 0 3.2-1.437 3.2-3.154v-9.689c0-1.72-1.435-3.155-3.2-3.155Zm-8 6.4V6.155C20.8 4.437 19.365 3 17.6 3H3.2C1.437 3 0 4.438 0 6.155v9.6C0 17.565 1.438 19 3.2 19h1.6v2.6a.598.598 0 0 0 .956.481L11.2 19l6.4-.004a3.2 3.2 0 0 0 3.2-3.196Zm-10.02 1.6L6.4 19.88V17.4H3.2c-.882 0-1.6-.72-1.6-1.6V6.2c0-.882.718-1.6 1.6-1.6h14.4c.882 0 1.6.718 1.6 1.6v9.6c0 .882-.718 1.6-1.6 1.6h-6.82Z"/><path d="M15.274 8.831H4.268a.629.629 0 0 0 0 1.256h11.006a.63.63 0 0 0 .628-.628.63.63 0 0 0-.628-.628Zm-5.353 3.141a.63.63 0 0 0-.628-.628H4.268a.629.629 0 0 0 0 1.256h5.025a.63.63 0 0 0 .628-.628Z"/></g><defs><clipPath id="a"><path fill="#fff" transform="translate(0 3)" d="M0 0h32v25.6H0z"/></clipPath></defs></svg>