<svg width="80" height="80" fill="none" xmlns="http://www.w3.org/2000/svg"><rect width="80" height="80" rx="40" fill="#F9F9F9"/><g clip-path="url(#a)"><path d="M52 49v3H28v-3h24Zm-1.5-21v19.5h-3V28h3Z" fill="#414652"/><path d="M34.633 44.5 33.136 46 28 47.5v-3h6.633Zm6.867-12a3 3 0 0 1 3 3l-.015 7.5a3 3 0 0 1-2.985-3v-2.379l-6 6.01V39.38l3.879-3.879H37a3.009 3.009 0 0 1-3-3h7.5Z" fill="#FF444F"/></g><defs><clipPath id="a"><path fill="#fff" transform="translate(28 28)" d="M0 0h24v24H0z"/></clipPath></defs></svg>