<svg width="411" height="98" fill="none" xmlns="http://www.w3.org/2000/svg"><rect x="1" y="1.293" width="409" height="95.293" rx="6.746" fill="#fff" stroke="#E5E5E5" stroke-width=".843"/><path d="M32.398 33.688v-.873H34.7V26.18h-.083l-2.078 1.936-.578-.626 2.184-2.042h1.546v7.367h2.126v.873h-5.42Zm9.582.142c-.984 0-1.704-.374-2.16-1.121-.45-.748-.674-1.795-.674-3.14 0-1.347.224-2.394.673-3.141.457-.748 1.177-1.122 2.16-1.122.984 0 1.7.374 2.15 1.122.456.747.684 1.794.684 3.14s-.228 2.393-.685 3.14c-.448.748-1.165 1.122-2.148 1.122Zm0-.862c.322 0 .598-.067.826-.2.228-.134.413-.323.555-.567.142-.244.244-.531.307-.862.07-.33.106-.697.106-1.098v-1.346c0-.401-.035-.767-.106-1.098a2.718 2.718 0 0 0-.307-.862 1.534 1.534 0 0 0-.555-.566 1.607 1.607 0 0 0-.826-.201c-.323 0-.599.067-.827.2a1.534 1.534 0 0 0-.555.567 2.928 2.928 0 0 0-.319.862c-.063.33-.094.697-.094 1.098v1.346c0 .401.032.768.094 1.098.071.33.178.618.32.862.14.244.326.433.554.567.228.133.504.2.827.2Zm7.079.862c-.984 0-1.704-.374-2.16-1.121-.45-.748-.674-1.795-.674-3.14 0-1.347.224-2.394.673-3.141.457-.748 1.177-1.122 2.16-1.122.984 0 1.7.374 2.15 1.122.456.747.684 1.794.684 3.14s-.228 2.393-.685 3.14c-.448.748-1.165 1.122-2.148 1.122Zm0-.862c.322 0 .598-.067.826-.2.228-.134.413-.323.555-.567.142-.244.244-.531.307-.862.07-.33.106-.697.106-1.098v-1.346c0-.401-.035-.767-.106-1.098a2.718 2.718 0 0 0-.307-.862 1.534 1.534 0 0 0-.555-.566 1.607 1.607 0 0 0-.826-.201c-.323 0-.598.067-.827.2a1.534 1.534 0 0 0-.555.567 2.928 2.928 0 0 0-.318.862c-.063.33-.095.697-.095 1.098v1.346c0 .401.032.768.095 1.098.07.33.177.618.318.862.142.244.327.433.555.567.229.133.504.2.827.2Zm28.081-2.302-1.877 1.924-.579-.578 1.877-1.924-1.877-1.925.579-.578 1.877 1.924 1.877-1.924.578.578-1.877 1.925 1.877 1.924-.578.578-1.877-1.924Zm29.124 3.022v-1.617h-3.978v-.874l3.447-5.75h1.476v5.798h1.192v.826h-1.192v1.617h-.945Zm-3.046-2.443h3.046v-5.03h-.059l-2.987 5.03Zm7.304 2.585c-.252 0-.437-.063-.555-.189a.727.727 0 0 1-.166-.496v-.153c0-.205.056-.37.166-.496.118-.126.303-.189.555-.189.252 0 .433.063.543.19a.696.696 0 0 1 .177.495v.153c0 .205-.059.37-.177.496-.11.126-.291.19-.543.19Zm5.153 0c-.984 0-1.704-.374-2.161-1.121-.449-.748-.673-1.795-.673-3.14 0-1.347.224-2.394.673-3.141.457-.748 1.177-1.122 2.161-1.122.983 0 1.7.374 2.148 1.122.457.747.685 1.794.685 3.14s-.228 2.393-.685 3.14c-.448.748-1.165 1.122-2.148 1.122Zm0-.862c.322 0 .598-.067.826-.2a1.54 1.54 0 0 0 .555-.567 2.71 2.71 0 0 0 .307-.862c.071-.33.106-.697.106-1.098v-1.346a5.24 5.24 0 0 0-.106-1.098 2.71 2.71 0 0 0-.307-.862 1.54 1.54 0 0 0-.555-.566 1.607 1.607 0 0 0-.826-.201c-.323 0-.599.067-.827.2a1.54 1.54 0 0 0-.555.567 2.925 2.925 0 0 0-.318.862 5.88 5.88 0 0 0-.095 1.098v1.346c0 .401.032.768.095 1.098.07.33.177.618.318.862.142.244.327.433.555.567.228.133.504.2.827.2Zm7.079.862c-.984 0-1.704-.374-2.161-1.121-.448-.748-.673-1.795-.673-3.14 0-1.347.225-2.394.673-3.141.457-.748 1.177-1.122 2.161-1.122s1.7.374 2.148 1.122c.457.747.685 1.794.685 3.14s-.228 2.393-.685 3.14c-.448.748-1.164 1.122-2.148 1.122Zm0-.862c.322 0 .598-.067.826-.2a1.54 1.54 0 0 0 .555-.567 2.71 2.71 0 0 0 .307-.862c.071-.33.106-.697.106-1.098v-1.346a5.24 5.24 0 0 0-.106-1.098 2.71 2.71 0 0 0-.307-.862 1.54 1.54 0 0 0-.555-.566 1.607 1.607 0 0 0-.826-.201 1.61 1.61 0 0 0-.827.2 1.54 1.54 0 0 0-.555.567 2.925 2.925 0 0 0-.318.862 5.88 5.88 0 0 0-.095 1.098v1.346c0 .401.032.768.095 1.098.07.33.177.618.318.862.142.244.327.433.555.567.229.133.504.2.827.2Zm28.163-2.302-1.877 1.924-.579-.578 1.878-1.924-1.878-1.925.579-.578 1.877 1.924 1.877-1.924.579.578-1.877 1.925 1.877 1.924-.579.578-1.877-1.924Zm25.736 3.022v-.873h2.302V26.18h-.082l-2.078 1.936-.579-.626 2.185-2.042h1.546v7.367h2.125v.873h-5.419Zm7.646-1.38c.252 0 .433.066.543.2a.696.696 0 0 1 .177.496v.165c0 .323-.094.677-.283 1.063a3.138 3.138 0 0 1-.791 1.027h-.791c.236-.252.425-.492.566-.72.15-.22.256-.469.319-.744a.594.594 0 0 1-.354-.225.725.725 0 0 1-.106-.401v-.165c0-.205.055-.37.165-.496.118-.134.303-.2.555-.2Zm7.904-3.838c0 .614-.091 1.193-.272 1.736a6.56 6.56 0 0 1-.708 1.475 7.01 7.01 0 0 1-.945 1.181 6.472 6.472 0 0 1-1.015.826h-1.275a16.42 16.42 0 0 0 1.181-.944 7.43 7.43 0 0 0 .909-.956c.259-.339.48-.697.661-1.075.181-.385.326-.818.437-1.298l-.059-.024a2.74 2.74 0 0 1-.768.85c-.307.22-.712.33-1.216.33-.354 0-.681-.058-.98-.176a2.14 2.14 0 0 1-.767-.508 2.477 2.477 0 0 1-.508-.791 3.01 3.01 0 0 1-.177-1.063c0-.401.063-.767.189-1.098.134-.338.319-.625.555-.861a2.55 2.55 0 0 1 .862-.567c.338-.134.716-.2 1.133-.2.425 0 .807.074 1.145.223.347.142.638.35.874.626.244.268.429.598.555.992.126.393.189.834.189 1.322Zm-2.751 1.263c.543 0 .964-.15 1.263-.448.307-.3.461-.728.461-1.287v-.095c0-.558-.154-.987-.461-1.286-.299-.3-.72-.45-1.263-.45-.543 0-.968.15-1.275.45-.299.299-.449.728-.449 1.286v.095c0 .559.15.988.449 1.287.307.299.732.448 1.275.448Zm7.079 4.097c-.984 0-1.704-.374-2.16-1.121-.449-.748-.673-1.795-.673-3.14 0-1.347.224-2.394.673-3.141.456-.748 1.176-1.122 2.16-1.122.984 0 1.7.374 2.149 1.122.456.747.685 1.794.685 3.14s-.229 2.393-.685 3.14c-.449.748-1.165 1.122-2.149 1.122Zm0-.862c.323 0 .598-.067.826-.2.229-.134.414-.323.555-.567a2.71 2.71 0 0 0 .307-.862c.071-.33.107-.697.107-1.098v-1.346c0-.401-.036-.767-.107-1.098a2.71 2.71 0 0 0-.307-.862 1.524 1.524 0 0 0-.555-.566 1.604 1.604 0 0 0-.826-.201c-.323 0-.598.067-.826.2a1.524 1.524 0 0 0-.555.567 2.925 2.925 0 0 0-.319.862 5.88 5.88 0 0 0-.095 1.098v1.346c0 .401.032.768.095 1.098.071.33.177.618.319.862.141.244.326.433.555.567.228.133.503.2.826.2Zm7.079.862c-.984 0-1.704-.374-2.16-1.121-.449-.748-.673-1.795-.673-3.14 0-1.347.224-2.394.673-3.141.456-.748 1.176-1.122 2.16-1.122.984 0 1.7.374 2.149 1.122.456.747.685 1.794.685 3.14s-.229 2.393-.685 3.14c-.449.748-1.165 1.122-2.149 1.122Zm0-.862c.323 0 .598-.067.827-.2a1.53 1.53 0 0 0 .554-.567 2.71 2.71 0 0 0 .307-.862c.071-.33.107-.697.107-1.098v-1.346c0-.401-.036-.767-.107-1.098a2.71 2.71 0 0 0-.307-.862 1.53 1.53 0 0 0-.554-.566 1.61 1.61 0 0 0-.827-.201c-.323 0-.598.067-.826.2a1.524 1.524 0 0 0-.555.567 2.925 2.925 0 0 0-.319.862c-.063.33-.094.697-.094 1.098v1.346c0 .401.031.768.094 1.098.071.33.177.618.319.862.141.244.326.433.555.567.228.133.503.2.826.2Zm24.59 2.503 3.081-10.52h.85l-3.081 10.52h-.85Zm40.814-9.15h-3.612l-.236 3.14h.082c.197-.275.417-.495.661-.66.252-.166.595-.248 1.028-.248.354 0 .68.059.979.177.3.118.559.287.78.508.22.212.389.476.507.79.126.315.189.674.189 1.075 0 .401-.063.771-.189 1.11a2.43 2.43 0 0 1-.555.862 2.48 2.48 0 0 1-.873.554 3.13 3.13 0 0 1-1.157.201 3.29 3.29 0 0 1-.921-.118 2.695 2.695 0 0 1-.697-.319 3.095 3.095 0 0 1-.543-.448 5.291 5.291 0 0 1-.413-.52l.744-.566c.102.165.208.314.319.448.118.134.244.248.377.343.142.094.303.169.484.224a2.6 2.6 0 0 0 .65.07c.566 0 .995-.149 1.287-.448.291-.299.436-.72.436-1.263v-.118c0-.543-.145-.964-.436-1.263-.292-.3-.721-.45-1.287-.45-.378 0-.677.072-.897.213a2.808 2.808 0 0 0-.579.484l-.838-.118.295-4.533h4.415v.873Zm4.742 7.51c-.984 0-1.704-.375-2.161-1.122-.448-.748-.673-1.795-.673-3.14 0-1.347.225-2.394.673-3.141.457-.748 1.177-1.122 2.161-1.122s1.7.374 2.149 1.122c.456.747.684 1.794.684 3.14s-.228 2.393-.684 3.14c-.449.748-1.165 1.122-2.149 1.122Zm0-.863c.323 0 .598-.067.826-.2.229-.134.414-.323.555-.567a2.71 2.71 0 0 0 .307-.862c.071-.33.106-.697.106-1.098v-1.346a5.24 5.24 0 0 0-.106-1.098 2.71 2.71 0 0 0-.307-.862 1.524 1.524 0 0 0-.555-.566 1.604 1.604 0 0 0-.826-.201 1.61 1.61 0 0 0-.827.2 1.53 1.53 0 0 0-.554.567 2.925 2.925 0 0 0-.319.862 5.88 5.88 0 0 0-.095 1.098v1.346c0 .401.032.768.095 1.098.071.33.177.618.319.862.141.244.326.433.554.567.229.133.504.2.827.2Zm7.079.862c-.984 0-1.704-.374-2.161-1.121-.448-.748-.672-1.795-.672-3.14 0-1.347.224-2.394.672-3.141.457-.748 1.177-1.122 2.161-1.122s1.7.374 2.149 1.122c.456.747.684 1.794.684 3.14s-.228 2.393-.684 3.14c-.449.748-1.165 1.122-2.149 1.122Zm0-.862c.323 0 .598-.067.826-.2.229-.134.414-.323.555-.567a2.71 2.71 0 0 0 .307-.862c.071-.33.107-.697.107-1.098v-1.346c0-.401-.036-.767-.107-1.098a2.71 2.71 0 0 0-.307-.862 1.524 1.524 0 0 0-.555-.566 1.604 1.604 0 0 0-.826-.201c-.323 0-.598.067-.826.2a1.524 1.524 0 0 0-.555.567 2.925 2.925 0 0 0-.319.862 5.88 5.88 0 0 0-.095 1.098v1.346c0 .401.032.768.095 1.098.071.33.177.618.319.862.141.244.326.433.555.567.228.133.503.2.826.2Zm35.07-3.671v-.803h5.501v.803h-5.501Zm0 2.36v-.802h5.501v.803h-5.501Zm31.541 3v-.968c-.598-.04-1.105-.185-1.523-.437a3.971 3.971 0 0 1-1.05-.969l.696-.625c.252.338.528.61.827.814.307.197.661.323 1.062.378v-3.034c-.81-.181-1.405-.445-1.782-.791-.37-.354-.555-.838-.555-1.452 0-.315.055-.594.165-.838.118-.252.279-.469.484-.65.205-.18.449-.322.732-.425.283-.11.598-.18.944-.212v-.968h.732v.956c.536.047.996.185 1.382.413.393.22.732.527 1.015.921l-.72.543a2.51 2.51 0 0 0-.708-.673 2.395 2.395 0 0 0-.98-.354v2.763l.106.023c.818.181 1.413.449 1.783.803.377.346.566.83.566 1.452 0 .677-.22 1.224-.661 1.641-.433.41-1.027.65-1.783.72v.969h-.732Zm2.244-3.27c0-.402-.118-.71-.355-.922-.228-.212-.617-.385-1.168-.52v2.905c.472-.063.842-.22 1.109-.472.276-.26.414-.59.414-.992Zm-3.637-3.885c0 .401.114.704.343.91.236.196.59.357 1.062.483v-2.609c-.425.055-.767.185-1.027.39-.252.204-.378.48-.378.826Zm6.301 6.186v-.873h2.302V26.18h-.083l-2.078 1.936-.578-.626 2.184-2.042h1.547v7.367h2.125v.873h-5.419Zm7.646-1.38c.251 0 .432.066.543.2a.696.696 0 0 1 .177.496v.165c0 .323-.095.677-.284 1.063a3.111 3.111 0 0 1-.791 1.027h-.791c.237-.252.425-.492.567-.72.15-.22.256-.469.319-.744a.588.588 0 0 1-.354-.225.726.726 0 0 1-.107-.401v-.165c0-.205.056-.37.166-.496.118-.134.303-.2.555-.2Zm7.49-5.987h-3.613l-.236 3.14h.083c.197-.275.417-.495.661-.66.252-.166.594-.248 1.027-.248.354 0 .681.059.98.177.299.118.559.287.779.508a2.1 2.1 0 0 1 .508.79c.126.315.189.674.189 1.075 0 .401-.063.771-.189 1.11a2.43 2.43 0 0 1-.555.862 2.48 2.48 0 0 1-.873.554 3.13 3.13 0 0 1-1.157.201 3.29 3.29 0 0 1-.921-.118 2.695 2.695 0 0 1-.697-.319 3.024 3.024 0 0 1-.543-.448 5.147 5.147 0 0 1-.413-.52l.744-.566c.102.165.208.314.318.448.118.134.244.248.378.343.142.094.303.169.484.224a2.6 2.6 0 0 0 .65.07c.566 0 .995-.149 1.286-.448.292-.299.437-.72.437-1.263v-.118c0-.543-.145-.964-.437-1.263-.291-.3-.72-.45-1.286-.45-.378 0-.677.072-.898.213a2.829 2.829 0 0 0-.578.484l-.839-.118.296-4.533h4.415v.873Zm7.492 7.367h-5.407v-1.015l2.692-2.48c.386-.353.708-.727.968-1.12.26-.402.39-.804.39-1.205v-.142c0-.456-.126-.826-.378-1.11-.252-.283-.634-.424-1.145-.424-.252 0-.472.035-.661.106a1.54 1.54 0 0 0-.496.295 1.79 1.79 0 0 0-.343.449 2.815 2.815 0 0 0-.212.543l-.886-.343c.079-.244.185-.48.319-.708.142-.236.315-.445.52-.626.212-.18.464-.326.755-.437.299-.11.65-.165 1.051-.165.401 0 .76.06 1.074.177.315.118.579.284.791.496a2.1 2.1 0 0 1 .484.756c.118.29.178.614.178.968 0 .322-.048.622-.142.897a3.46 3.46 0 0 1-.366.791c-.158.244-.35.484-.579.72-.22.236-.46.472-.72.709l-2.219 1.995h4.332v.873Zm4.329.142c-.984 0-1.704-.374-2.161-1.121-.448-.748-.673-1.795-.673-3.14 0-1.347.225-2.394.673-3.141.457-.748 1.177-1.122 2.161-1.122s1.7.374 2.148 1.122c.457.747.685 1.794.685 3.14s-.228 2.393-.685 3.14c-.448.748-1.164 1.122-2.148 1.122Zm0-.862c.322 0 .598-.067.826-.2a1.54 1.54 0 0 0 .555-.567 2.71 2.71 0 0 0 .307-.862c.071-.33.106-.697.106-1.098v-1.346a5.24 5.24 0 0 0-.106-1.098 2.71 2.71 0 0 0-.307-.862 1.54 1.54 0 0 0-.555-.566 1.607 1.607 0 0 0-.826-.201 1.61 1.61 0 0 0-.827.2 1.54 1.54 0 0 0-.555.567 2.925 2.925 0 0 0-.318.862 5.88 5.88 0 0 0-.095 1.098v1.346c0 .401.032.768.095 1.098.07.33.177.618.318.862.142.244.327.433.555.567.229.133.504.2.827.2Z" fill="#414652"/><path d="M176.661 76.866v-8.24h3.282c.74 0 1.307.212 1.7.637.402.417.602.992.602 1.724s-.2 1.31-.602 1.735c-.393.417-.96.626-1.7.626h-2.29v3.518h-.992Zm.992-4.392h2.29c.394 0 .697-.102.909-.307.221-.204.331-.496.331-.873v-.614c0-.378-.11-.67-.331-.874-.212-.204-.515-.307-.909-.307h-2.29v2.975Zm5.958 4.392v-6.092h.945v1.122h.059c.11-.291.307-.551.59-.78.283-.228.673-.342 1.169-.342h.366v.945h-.555c-.512 0-.913.098-1.204.295-.284.189-.425.429-.425.72v4.132h-.945Zm4.807-7.52c-.204 0-.354-.048-.448-.142a.58.58 0 0 1-.13-.39v-.153c0-.157.043-.283.13-.378.094-.102.244-.153.448-.153.205 0 .351.05.437.153a.51.51 0 0 1 .142.378v.153a.55.55 0 0 1-.142.39c-.086.094-.232.142-.437.142Zm-.472 1.428h.945v6.092h-.945v-6.092Zm5.218 6.234c-.425 0-.806-.075-1.145-.224a2.406 2.406 0 0 1-.862-.638 2.978 2.978 0 0 1-.531-1.004 4.597 4.597 0 0 1-.177-1.322c0-.488.059-.928.177-1.322a2.98 2.98 0 0 1 .531-1.004c.237-.275.524-.488.862-.637.339-.15.72-.225 1.145-.225.606 0 1.091.134 1.453.402.37.26.645.602.826 1.027l-.791.401a1.432 1.432 0 0 0-.543-.731c-.252-.174-.567-.26-.945-.26a1.82 1.82 0 0 0-.743.141c-.213.087-.39.213-.532.378-.141.158-.248.35-.318.579-.071.22-.107.464-.107.732v1.039c0 .535.142.976.425 1.322.292.338.717.508 1.275.508.764 0 1.315-.355 1.653-1.063l.685.46a2.41 2.41 0 0 1-.885 1.051c-.386.26-.87.39-1.453.39Zm5.893 0c-.418 0-.795-.075-1.134-.224a2.544 2.544 0 0 1-.862-.638 3.182 3.182 0 0 1-.555-1.004 4.325 4.325 0 0 1-.188-1.322c0-.48.062-.917.188-1.31.134-.394.319-.728.555-1.004.244-.283.532-.5.862-.65a2.786 2.786 0 0 1 1.134-.224c.409 0 .775.075 1.098.225a2.4 2.4 0 0 1 .826.626c.228.26.401.57.519.932.126.362.189.76.189 1.193v.448h-4.38v.284c0 .26.04.503.118.732.087.22.205.413.354.578.158.165.347.295.567.39.228.094.484.141.768.141.385 0 .72-.09 1.003-.271a1.76 1.76 0 0 0 .673-.78l.673.485a2.38 2.38 0 0 1-.921 1.015c-.417.252-.913.378-1.487.378Zm0-5.584c-.26 0-.496.047-.709.141a1.592 1.592 0 0 0-.555.378 1.862 1.862 0 0 0-.354.59c-.086.22-.13.465-.13.732v.083h3.365v-.13c0-.543-.15-.976-.449-1.299-.291-.33-.68-.495-1.168-.495Z" fill="#999"/><path d="M189.53 50.373v13.493h-.843V50.373h.843Z" fill="#E5E5E5"/><circle cx="189.108" cy="49.108" r="1.687" fill="#577A92" fill-opacity=".04" stroke="#E5E5E5" stroke-width=".843"/><path d="M250.028 76.697v-8.24h.991v7.367h3.507v.873h-4.498Zm7.995.142a2.78 2.78 0 0 1-1.133-.224 2.532 2.532 0 0 1-.862-.638 3.184 3.184 0 0 1-.555-1.003 4.325 4.325 0 0 1-.189-1.323c0-.48.063-.917.189-1.31.134-.394.319-.728.555-1.004.244-.283.531-.5.862-.65a2.78 2.78 0 0 1 1.133-.223c.409 0 .775.074 1.098.224.323.15.598.358.826.626.229.26.402.57.52.932.126.362.189.76.189 1.193v.448h-4.38v.284c0 .26.039.503.118.732.086.22.204.413.354.578.157.166.346.295.567.39.228.094.484.142.767.142.386 0 .72-.091 1.003-.272.292-.181.516-.44.673-.78l.673.485a2.372 2.372 0 0 1-.92 1.015c-.418.252-.913.378-1.488.378Zm0-5.584c-.26 0-.496.047-.708.141a1.574 1.574 0 0 0-.555.378c-.15.165-.268.362-.355.59-.086.22-.129.465-.129.732v.083h3.364v-.13c0-.543-.149-.976-.448-1.299-.291-.33-.681-.495-1.169-.495Zm5.443 5.442-2.137-6.092h.944l1.063 3.023.661 2.078h.059l.661-2.078 1.086-3.023h.909l-2.148 6.092h-1.098Zm6.663.142a2.78 2.78 0 0 1-1.134-.224 2.538 2.538 0 0 1-.861-.638 3.184 3.184 0 0 1-.555-1.003 4.325 4.325 0 0 1-.189-1.323c0-.48.063-.917.189-1.31.134-.394.319-.728.555-1.004.244-.283.531-.5.861-.65a2.78 2.78 0 0 1 1.134-.223c.409 0 .775.074 1.098.224.323.15.598.358.826.626.229.26.402.57.52.932.126.362.189.76.189 1.193v.448h-4.38v.284c0 .26.039.503.118.732.086.22.204.413.354.578.157.166.346.295.567.39.228.094.484.142.767.142.386 0 .72-.091 1.003-.272.292-.181.516-.44.673-.78l.673.485a2.368 2.368 0 0 1-.921 1.015c-.417.252-.913.378-1.487.378Zm0-5.584c-.26 0-.496.047-.708.141a1.574 1.574 0 0 0-.555.378c-.15.165-.268.362-.355.59-.086.22-.129.465-.129.732v.083h3.364v-.13c0-.543-.149-.976-.448-1.299-.292-.33-.681-.495-1.169-.495Zm4.189 5.442v-6.092h.945v1.122h.059c.11-.291.307-.551.59-.78.283-.228.673-.342 1.169-.342h.366v.945h-.555c-.512 0-.913.098-1.204.295-.284.189-.425.429-.425.72v4.132h-.945Zm8.716 0c-.354 0-.61-.094-.767-.283a1.427 1.427 0 0 1-.283-.709h-.059c-.134.378-.355.662-.662.85-.307.19-.673.284-1.098.284-.645 0-1.149-.165-1.511-.496-.354-.33-.531-.78-.531-1.346 0-.574.209-1.015.626-1.322.425-.307 1.082-.46 1.971-.46h1.205v-.603c0-.433-.118-.763-.355-.991-.236-.229-.598-.343-1.086-.343-.37 0-.681.083-.932.248a2.065 2.065 0 0 0-.614.661l-.567-.531c.165-.33.429-.61.791-.838.362-.236.818-.354 1.369-.354.74 0 1.315.18 1.724.543.409.362.614.865.614 1.51v3.354h.697v.826h-.532Zm-2.715-.66c.236 0 .452-.028.649-.084.197-.055.366-.133.508-.236.142-.102.252-.22.331-.354a.853.853 0 0 0 .118-.437v-1.003h-1.252c-.543 0-.94.078-1.192.236a.766.766 0 0 0-.366.685v.248c0 .299.106.53.318.696.221.166.516.248.886.248Zm9.73 1.333c0 .63-.248 1.09-.743 1.381-.488.3-1.224.45-2.208.45-.953 0-1.637-.13-2.054-.39-.418-.26-.626-.63-.626-1.11 0-.33.086-.59.26-.78.173-.18.409-.314.708-.4v-.13c-.362-.174-.543-.457-.543-.85 0-.308.098-.54.295-.697.197-.166.449-.288.756-.366v-.047a2.004 2.004 0 0 1-.85-.744 2.11 2.11 0 0 1-.296-1.122c0-.307.055-.59.166-.85.11-.26.263-.48.46-.661.205-.189.445-.335.72-.437.284-.102.598-.153.945-.153.433 0 .818.078 1.157.236v-.106c0-.237.055-.43.165-.579.11-.157.291-.236.543-.236h.909v.826h-1.157v.39c.221.189.39.417.508.685a2 2 0 0 1 .189.885c0 .307-.055.59-.166.85-.11.26-.267.484-.472.673a2.109 2.109 0 0 1-.72.425 2.762 2.762 0 0 1-.944.154c-.197 0-.394-.02-.591-.06a1.883 1.883 0 0 0-.555.249.486.486 0 0 0-.248.436c0 .181.087.303.26.366.173.063.398.095.673.095h1.299c.755 0 1.302.145 1.641.437.346.283.519.677.519 1.18Zm-.885.071a.719.719 0 0 0-.283-.59c-.181-.142-.508-.213-.98-.213h-2.031c-.378.173-.567.449-.567.827 0 .267.099.495.295.684.205.19.547.284 1.028.284h.873c.528 0 .937-.083 1.228-.248a.804.804 0 0 0 .437-.744Zm-2.113-3.53c.401 0 .72-.094.956-.283.236-.197.354-.496.354-.898v-.33c0-.402-.118-.697-.354-.886-.236-.196-.555-.295-.956-.295-.402 0-.721.099-.957.295-.236.19-.354.484-.354.886v.33c0 .402.118.7.354.898.236.189.555.283.957.283Zm6.321 2.928a2.78 2.78 0 0 1-1.133-.224 2.532 2.532 0 0 1-.862-.638 3.184 3.184 0 0 1-.555-1.003 4.325 4.325 0 0 1-.189-1.323c0-.48.063-.917.189-1.31.134-.394.319-.728.555-1.004.244-.283.531-.5.862-.65a2.78 2.78 0 0 1 1.133-.223c.41 0 .776.074 1.098.224.323.15.598.358.827.626.228.26.401.57.519.932.126.362.189.76.189 1.193v.448h-4.38v.284c0 .26.039.503.118.732.087.22.205.413.354.578.158.166.347.295.567.39.228.094.484.142.767.142.386 0 .721-.091 1.004-.272.291-.181.515-.44.673-.78l.673.485a2.38 2.38 0 0 1-.921 1.015c-.417.252-.913.378-1.488.378Zm0-5.584c-.259 0-.496.047-.708.141a1.574 1.574 0 0 0-.555.378 1.978 1.978 0 0 0-.484 1.322v.083h3.365v-.13c0-.543-.15-.976-.449-1.299-.291-.33-.681-.495-1.169-.495Z" fill="#999"/><path d="M271.699 50.204v13.493h-.844V50.204h.844Z" fill="#E5E5E5"/><circle cx="271.277" cy="48.939" r="1.687" fill="#577A92" fill-opacity=".04" stroke="#E5E5E5" stroke-width=".843"/><path d="M349.213 69.755h-.059l-.696 1.382-1.972 3.589-1.971-3.59-.697-1.38h-.059v6.941h-.968v-8.24h1.322l2.361 4.439h.059l2.373-4.44h1.276v8.241h-.969v-6.942Zm7.492 6.942c-.354 0-.61-.094-.768-.283a1.437 1.437 0 0 1-.283-.709h-.059c-.134.378-.354.662-.661.85-.307.19-.673.284-1.098.284-.646 0-1.149-.165-1.511-.496-.355-.33-.532-.78-.532-1.346 0-.574.209-1.015.626-1.322.425-.307 1.082-.46 1.972-.46h1.204v-.603c0-.433-.118-.763-.354-.991-.236-.229-.598-.343-1.086-.343-.37 0-.681.083-.933.248a2.065 2.065 0 0 0-.614.661l-.567-.531c.166-.33.429-.61.791-.838.362-.236.819-.354 1.37-.354.74 0 1.314.18 1.724.543.409.362.613.865.613 1.51v3.354h.697v.826h-.531Zm-2.716-.66c.236 0 .453-.028.65-.084a1.59 1.59 0 0 0 .507-.236c.142-.102.252-.22.331-.354a.843.843 0 0 0 .118-.437v-1.003h-1.252c-.543 0-.94.078-1.192.236a.766.766 0 0 0-.366.685v.248c0 .299.106.53.319.696.22.166.515.248.885.248Zm4.595.66v-6.092h.945v1.122h.059c.11-.291.307-.551.59-.78.283-.228.673-.342 1.169-.342h.366v.945h-.555c-.512 0-.913.098-1.204.295-.284.189-.425.429-.425.72v4.132h-.945Zm9.194.673c0 .63-.248 1.09-.744 1.381-.488.3-1.224.45-2.207.45-.953 0-1.638-.13-2.055-.39-.417-.26-.625-.63-.625-1.11 0-.33.086-.59.259-.78.173-.18.41-.314.709-.4v-.13c-.362-.174-.543-.457-.543-.85 0-.308.098-.54.295-.697.196-.166.448-.288.755-.366v-.047a2.01 2.01 0 0 1-.85-.744 2.11 2.11 0 0 1-.295-1.122c0-.307.055-.59.165-.85.111-.26.264-.48.461-.661.204-.189.445-.335.72-.437.283-.102.598-.153.945-.153.432 0 .818.078 1.157.236v-.106c0-.237.055-.43.165-.579.11-.157.291-.236.543-.236h.909v.826h-1.157v.39c.22.189.39.417.508.685a2 2 0 0 1 .189.885c0 .307-.056.59-.166.85-.11.26-.267.484-.472.673a2.109 2.109 0 0 1-.72.425 3.012 3.012 0 0 1-1.535.095 1.86 1.86 0 0 0-.555.248.486.486 0 0 0-.248.436c0 .181.087.303.26.366a2 2 0 0 0 .673.095h1.299c.755 0 1.302.145 1.641.437.346.283.519.677.519 1.18Zm-.885.071a.717.717 0 0 0-.284-.59c-.181-.142-.507-.213-.98-.213h-2.03c-.378.173-.567.449-.567.827 0 .267.098.495.295.684.205.19.547.284 1.027.284h.874c.527 0 .937-.083 1.228-.248a.804.804 0 0 0 .437-.744Zm-2.114-3.53c.402 0 .72-.094.957-.283.236-.197.354-.496.354-.898v-.33c0-.402-.118-.697-.354-.886-.237-.196-.555-.295-.957-.295-.401 0-.72.099-.956.295-.236.19-.354.484-.354.886v.33c0 .402.118.7.354.898.236.189.555.283.956.283Zm4.573-4.734c-.205 0-.354-.048-.449-.142a.585.585 0 0 1-.129-.39v-.153a.54.54 0 0 1 .129-.378c.095-.102.244-.153.449-.153.205 0 .35.05.437.153.094.095.142.22.142.378v.153a.554.554 0 0 1-.142.39c-.087.094-.232.142-.437.142Zm-.472 1.428h.944v6.092h-.944v-6.092Zm2.951 6.092v-6.092h.945v.992h.047c.15-.346.358-.622.626-.826.275-.205.641-.307 1.098-.307.629 0 1.125.204 1.487.614.37.4.555.972.555 1.711v3.908h-.944v-3.742c0-1.094-.461-1.641-1.382-1.641-.188 0-.373.023-.554.07a1.603 1.603 0 0 0-.473.213 1.099 1.099 0 0 0-.342.366c-.079.142-.118.31-.118.508v4.226h-.945Z" fill="#999"/><path d="M360.245 50.204v13.493h-.843V50.204h.843Z" fill="#E5E5E5"/><circle cx="359.824" cy="48.939" r="1.687" fill="#577A92" fill-opacity=".04" stroke="#E5E5E5" stroke-width=".843"/><g clip-path="url(#a)"><path d="M13.435 76.839c-1.046 0-1.861-.354-2.444-1.063-.582-.716-.873-1.767-.873-3.152 0-1.385.291-2.448.873-3.188.583-.747 1.398-1.121 2.444-1.121.693 0 1.271.157 1.736.472.472.315.838.76 1.098 1.334l-.803.484a2.25 2.25 0 0 0-.755-1.015c-.339-.26-.764-.39-1.276-.39-.354 0-.673.067-.956.201a2.001 2.001 0 0 0-.708.579c-.19.243-.335.539-.437.885-.102.339-.154.72-.154 1.145v1.228c0 .85.197 1.515.59 1.995.394.48.95.72 1.665.72.528 0 .968-.133 1.323-.4a2.39 2.39 0 0 0 .779-1.087l.79.496a3.25 3.25 0 0 1-1.12 1.381c-.489.33-1.079.496-1.772.496Zm6.637 0c-.41 0-.784-.075-1.122-.224a2.506 2.506 0 0 1-.874-.638 3.18 3.18 0 0 1-.555-1.003 4.092 4.092 0 0 1-.2-1.323c0-.48.067-.917.2-1.31.134-.394.32-.728.555-1.004.244-.283.536-.5.874-.65a2.751 2.751 0 0 1 1.122-.223c.409 0 .779.074 1.11.224.338.15.629.366.873.65a2.9 2.9 0 0 1 .567 1.003c.134.393.2.83.2 1.31 0 .488-.066.929-.2 1.323-.134.385-.323.72-.567 1.003a2.506 2.506 0 0 1-.874.638c-.33.15-.7.224-1.11.224Zm0-.838c.511 0 .928-.158 1.251-.473.323-.314.484-.794.484-1.44v-.874c0-.645-.161-1.125-.484-1.44-.323-.315-.74-.472-1.251-.472-.512 0-.93.157-1.252.472-.323.315-.484.795-.484 1.44v.874c0 .646.161 1.126.484 1.44.323.315.74.473 1.252.473Zm4.304.696v-6.092h.944v.992h.047c.15-.346.359-.622.626-.826.276-.205.642-.307 1.098-.307.63 0 1.126.204 1.488.614.37.4.555.972.555 1.711v3.908h-.945v-3.742c0-1.094-.46-1.641-1.381-1.641a2.19 2.19 0 0 0-.555.07c-.173.048-.33.118-.472.213a1.089 1.089 0 0 0-.343.366 1.03 1.03 0 0 0-.118.508v4.226h-.944Zm8.056 0c-.33 0-.583-.09-.756-.271-.165-.19-.248-.433-.248-.732v-4.262h-1.003v-.827h.566c.205 0 .343-.04.414-.118.078-.086.118-.232.118-.437v-1.133h.85v1.688h1.334v.827h-1.334v4.439h1.24v.826h-1.181Zm2.793 0v-6.092h.944v1.122h.06a1.84 1.84 0 0 1 .59-.78c.283-.228.673-.342 1.169-.342h.366v.945h-.555c-.512 0-.913.098-1.205.295-.283.189-.425.429-.425.72v4.132h-.944Zm8.716 0c-.354 0-.61-.094-.767-.283a1.435 1.435 0 0 1-.283-.709h-.06c-.133.378-.354.662-.66.85-.308.19-.674.284-1.099.284-.645 0-1.149-.165-1.51-.496-.355-.33-.532-.78-.532-1.346 0-.574.209-1.015.626-1.322.425-.307 1.082-.46 1.971-.46h1.204v-.603c0-.433-.117-.763-.354-.991-.236-.229-.598-.343-1.086-.343-.37 0-.68.083-.932.248a2.068 2.068 0 0 0-.615.661l-.566-.531c.165-.33.429-.61.79-.838.363-.236.82-.354 1.37-.354.74 0 1.315.18 1.724.543.41.362.614.865.614 1.51v3.354h.697v.826h-.532Zm-2.715-.66c.236 0 .452-.028.65-.084.196-.055.365-.133.507-.236a1.15 1.15 0 0 0 .33-.354.846.846 0 0 0 .118-.437v-1.003h-1.25c-.544 0-.942.078-1.193.236a.766.766 0 0 0-.366.685v.248c0 .299.106.53.318.696.22.166.516.248.886.248Zm6.861.802c-.425 0-.806-.075-1.145-.224a2.393 2.393 0 0 1-.862-.638 2.974 2.974 0 0 1-.53-1.003 4.594 4.594 0 0 1-.178-1.323c0-.488.059-.928.177-1.322.126-.394.303-.728.531-1.003.236-.276.524-.488.862-.638.339-.15.72-.224 1.145-.224.606 0 1.09.133 1.452.401.37.26.646.602.827 1.027l-.791.402a1.434 1.434 0 0 0-.543-.732c-.252-.174-.567-.26-.945-.26-.283 0-.53.047-.743.141-.213.087-.39.213-.532.378-.141.158-.248.35-.318.579-.071.22-.107.464-.107.732v1.039c0 .535.142.976.425 1.322.291.339.717.508 1.275.508.764 0 1.315-.355 1.653-1.063l.685.46a2.401 2.401 0 0 1-.886 1.051c-.385.26-.87.39-1.452.39Zm5.017-.142c-.33 0-.582-.09-.755-.271-.166-.19-.248-.433-.248-.732v-4.262h-1.004v-.827h.567c.204 0 .342-.04.413-.118.079-.086.118-.232.118-.437v-1.133h.85v1.688h1.334v.827h-1.334v4.439h1.24v.826h-1.18Zm7.413.142c-.566 0-1.042-.106-1.428-.319a3.337 3.337 0 0 1-.98-.873l.673-.544c.236.3.5.532.791.697.291.157.63.236 1.015.236.402 0 .713-.087.933-.26.228-.173.342-.417.342-.732a.84.84 0 0 0-.236-.602c-.15-.173-.425-.29-.826-.354l-.484-.07a4.368 4.368 0 0 1-.78-.178 2.485 2.485 0 0 1-.625-.33 1.57 1.57 0 0 1-.413-.52 1.734 1.734 0 0 1-.142-.732c0-.299.055-.559.165-.78.11-.227.26-.416.449-.566.197-.15.429-.26.696-.33.268-.079.555-.118.862-.118.496 0 .91.086 1.24.26.338.172.634.413.885.72l-.625.566a1.818 1.818 0 0 0-.59-.508c-.26-.157-.587-.236-.98-.236-.394 0-.693.087-.898.26-.197.165-.295.394-.295.685 0 .299.098.516.295.65.205.133.496.231.874.294l.472.071c.677.103 1.157.3 1.44.59.284.284.425.658.425 1.122 0 .59-.2 1.055-.602 1.393-.401.339-.952.508-1.653.508Zm4.396-7.662c-.205 0-.354-.048-.449-.142a.582.582 0 0 1-.13-.39v-.153c0-.157.044-.283.13-.378.095-.102.244-.153.449-.153.205 0 .35.05.437.153a.51.51 0 0 1 .142.378v.153a.552.552 0 0 1-.142.39c-.087.094-.232.142-.437.142Zm-.472 1.428h.944v6.092h-.944v-6.092Zm2.337 6.092v-.79l3.46-4.475h-3.353v-.827h4.498v.709l-3.53 4.557h3.624v.826h-4.699Zm8.266.142a2.78 2.78 0 0 1-1.133-.224 2.536 2.536 0 0 1-.862-.638 3.178 3.178 0 0 1-.555-1.003 4.328 4.328 0 0 1-.19-1.323c0-.48.064-.917.19-1.31.133-.394.319-.728.555-1.004.244-.283.53-.5.861-.65a2.789 2.789 0 0 1 1.134-.223c.41 0 .775.074 1.098.224a2.4 2.4 0 0 1 .826.626c.228.26.402.57.52.932.126.362.189.76.189 1.193v.448h-4.38v.284c0 .26.039.503.118.732.086.22.204.413.354.578.157.166.346.295.566.39.229.094.485.142.768.142.386 0 .72-.091 1.003-.272.292-.181.516-.44.673-.78l.673.485a2.377 2.377 0 0 1-.92 1.015c-.418.252-.914.378-1.488.378Zm0-5.584c-.26 0-.496.047-.709.141a1.582 1.582 0 0 0-.554.378 1.986 1.986 0 0 0-.484 1.322v.083h3.364v-.13c0-.543-.15-.976-.448-1.299-.291-.33-.681-.495-1.17-.495Z" fill="#999"/><path d="M41.478 50.204v13.493h-.843V50.204h.843Z" fill="#E5E5E5"/><circle cx="41.056" cy="48.939" r="1.687" fill="#577A92" fill-opacity=".04" stroke="#E5E5E5" stroke-width=".843"/></g><g clip-path="url(#b)"><path d="m105.171 76.697-2.739-8.24h1.063l1.357 4.155.91 3.094h.059l.932-3.094 1.37-4.155h1.027l-2.775 8.24h-1.204Zm7.168.142c-.41 0-.783-.075-1.122-.224a2.507 2.507 0 0 1-.873-.638 3.145 3.145 0 0 1-.555-1.003 4.086 4.086 0 0 1-.201-1.323c0-.48.067-.917.201-1.31.133-.394.318-.728.555-1.004.244-.283.535-.5.873-.65a2.755 2.755 0 0 1 1.122-.223c.409 0 .779.074 1.11.224.338.15.629.366.873.65.244.275.433.61.567 1.003.134.393.201.83.201 1.31 0 .488-.067.929-.201 1.323-.134.385-.323.72-.567 1.003a2.507 2.507 0 0 1-.873.638c-.331.15-.701.224-1.11.224Zm0-.838c.511 0 .929-.158 1.251-.473.323-.314.484-.794.484-1.44v-.874c0-.645-.161-1.125-.484-1.44-.322-.315-.74-.472-1.251-.472-.512 0-.929.157-1.252.472-.322.315-.484.795-.484 1.44v.874c0 .646.162 1.126.484 1.44.323.315.74.473 1.252.473Zm5.307.696c-.33 0-.582-.09-.755-.271a1.038 1.038 0 0 1-.248-.709v-7.756h.944v7.91h.898v.826h-.839Zm5.968-.992h-.047a2.911 2.911 0 0 1-.236.426 1.61 1.61 0 0 1-.331.366 1.65 1.65 0 0 1-.484.248 2.091 2.091 0 0 1-.661.094c-.63 0-1.13-.2-1.499-.602-.37-.41-.555-.984-.555-1.724v-3.908h.944v3.743c0 1.094.465 1.64 1.393 1.64.189 0 .37-.023.543-.07.181-.047.339-.118.473-.213a1.022 1.022 0 0 0 .46-.885v-4.215h.945v6.092h-.945v-.992Zm2.956.992v-6.092h.944v.992h.048a3.18 3.18 0 0 1 .236-.437c.094-.141.204-.263.33-.366.134-.102.288-.18.461-.236.173-.063.377-.094.614-.094.401 0 .771.098 1.109.295.339.189.591.504.756.944h.024c.11-.33.314-.618.614-.862.306-.251.72-.377 1.239-.377.622 0 1.106.204 1.452.614.355.4.532.972.532 1.711v3.908h-.945v-3.742c0-.543-.106-.953-.319-1.228-.212-.276-.551-.413-1.015-.413-.189 0-.37.023-.543.07a1.479 1.479 0 0 0-.449.213c-.134.094-.24.216-.318.366-.079.142-.119.31-.119.508v4.226h-.944v-3.742c0-.543-.106-.953-.319-1.228-.212-.276-.543-.413-.992-.413-.188 0-.369.023-.543.07a1.454 1.454 0 0 0-.46.213 1.142 1.142 0 0 0-.331.366c-.078.142-.118.31-.118.508v4.226h-.944Zm12.598.142c-.418 0-.795-.075-1.134-.224a2.542 2.542 0 0 1-.862-.638 3.184 3.184 0 0 1-.555-1.003 4.357 4.357 0 0 1-.188-1.323c0-.48.063-.917.188-1.31.134-.394.319-.728.555-1.004.244-.283.532-.5.862-.65a2.785 2.785 0 0 1 1.134-.223c.409 0 .775.074 1.098.224.322.15.598.358.826.626.228.26.401.57.519.932.126.362.189.76.189 1.193v.448h-4.38v.284c0 .26.04.503.118.732.087.22.205.413.355.578.157.166.346.295.566.39.228.094.484.142.768.142.385 0 .72-.091 1.003-.272a1.76 1.76 0 0 0 .673-.78l.673.485a2.38 2.38 0 0 1-.921 1.015c-.417.252-.913.378-1.487.378Zm0-5.584c-.26 0-.496.047-.709.141a1.592 1.592 0 0 0-.555.378 1.86 1.86 0 0 0-.354.59c-.086.22-.13.465-.13.732v.083h3.365v-.13c0-.543-.15-.976-.449-1.299-.291-.33-.68-.495-1.168-.495Z" fill="#999"/><path d="M114.845 50.204v13.493h-.843V50.204h.843Z" fill="#E5E5E5"/><circle cx="114.424" cy="48.939" r="1.687" fill="#577A92" fill-opacity=".04" stroke="#E5E5E5" stroke-width=".843"/></g><defs><clipPath id="a"><path fill="#fff" transform="translate(9.433 46.831)" d="M0 0h89.39v34.575H0z"/></clipPath><clipPath id="b"><path fill="#fff" transform="translate(102.196 46.831)" d="M0 0h43.008v34.575H0z"/></clipPath></defs></svg>