<svg width="32" height="32" fill="none" xmlns="http://www.w3.org/2000/svg"><g clip-path="url(#a)" stroke="#414652" stroke-width="1.453" stroke-linecap="round" stroke-linejoin="round"><path d="M22.193 15.488H8.46a.726.726 0 0 1-.676-.995l2.768-6.911a1.453 1.453 0 0 1 1.352-.916h6.86a1.46 1.46 0 0 1 1.35.916l2.77 6.91a.726.726 0 0 1-.677.996h-.014Z"/><path d="M14.46 24.309H.729a.726.726 0 0 1-.676-.996l2.768-6.91a1.453 1.453 0 0 1 1.352-.916h6.86a1.46 1.46 0 0 1 1.35.916l2.77 6.91a.726.726 0 0 1-.676.996h-.015Zm15.464 0H16.191a.726.726 0 0 1-.676-.995l2.769-6.911a1.453 1.453 0 0 1 1.351-.916h6.86a1.46 1.46 0 0 1 1.351.916l2.769 6.91a.726.726 0 0 1-.676.996h-.015Z"/></g><defs><clipPath id="a"><path fill="#fff" d="M0 0h32v32H0z"/></clipPath></defs></svg>