<svg width="46" height="27" fill="none" xmlns="http://www.w3.org/2000/svg"><path fill-rule="evenodd" clip-rule="evenodd" d="M18.3 2.72a1 1 0 0 0-.93.627l-.002.005-3.808 9.506v.002h18.92v-.003l-3.806-9.5v-.002a1.01 1.01 0 0 0-.934-.635H18.3Zm-2.789-.11a3 3 0 0 1 2.79-1.89h9.44a3.01 3.01 0 0 1 2.785 1.883l.003.005 3.812 9.516a1.999 1.999 0 0 1-1.86 2.736H13.56a1.999 1.999 0 0 1-1.861-2.736l.002-.006 3.808-9.505.001-.003Z" fill="#414652"/><path fill-rule="evenodd" clip-rule="evenodd" d="M7.66 14.86a1 1 0 0 0-.93.627l-.001.005-3.809 9.506V25h18.92v-.003l-3.806-9.5v-.002a1.01 1.01 0 0 0-.934-.635H7.66Zm-2.789-.11a3 3 0 0 1 2.79-1.89h9.44a3.01 3.01 0 0 1 2.785 1.883l.003.005 3.812 9.516A1.999 1.999 0 0 1 21.84 27H2.92a1.999 1.999 0 0 1-1.861-2.736l.002-.006 3.808-9.505.001-.002Z" fill="#414652"/><path fill-rule="evenodd" clip-rule="evenodd" d="M28.94 14.86a1 1 0 0 0-.93.627l-.002.005-3.808 9.506V25h18.92v-.003l-3.806-9.5v-.002a1.01 1.01 0 0 0-.934-.635h-9.44Zm-2.789-.11a3 3 0 0 1 2.79-1.89h9.44a3.01 3.01 0 0 1 2.785 1.883l.003.005 3.812 9.516A1.999 1.999 0 0 1 43.12 27H24.2a1.999 1.999 0 0 1-1.861-2.736l.002-.006 3.808-9.505.001-.002Z" fill="#414652"/></svg>