<svg width="67" height="66" fill="none" xmlns="http://www.w3.org/2000/svg"><path opacity=".01" fill="#fff" stroke="#979797" stroke-width="2" d="M1.66 1h64v64h-64z"/><path fill-rule="evenodd" clip-rule="evenodd" d="M1.66 25v9.32l6.928 8.606h6.983l7.108 9.123 11.235-19.084 9.49 11.657h7.732a3.993 3.993 0 0 1 4.279-2.295c1.641.257 3.002 1.586 3.29 3.22a4.003 4.003 0 0 1-3.935 4.729 3.992 3.992 0 0 1-3.62-2.32h-9.332l-7.463-9.17-11.292 19.18-9.121-11.706h-6.95L1.66 39.637v20.03A5.334 5.334 0 0 0 6.993 65h53.334a5.334 5.334 0 0 0 5.333-5.334V25a5.334 5.334 0 0 0-5.333-5.334H6.993A5.334 5.334 0 0 0 1.66 25Z" fill="#85ACAF"/><path fill-rule="evenodd" clip-rule="evenodd" d="M49.66 17c0 8.836-7.164 16-16 16s-16-7.164-16-16 7.164-16 16-16 16 7.164 16 16Z" fill="#FF444F" style="mix-blend-mode:multiply"/><path fill-rule="evenodd" clip-rule="evenodd" d="m31.395 23.335-5.735-5.734 2.403-2.404 3.332 3.332 7.861-7.864 2.404 2.404-10.265 10.266Z" fill="#fff"/></svg> 0 0 1-.306.102v.036c.124.024.238.064.342.12.108.052.2.12.276.204.08.084.142.184.186.3.044.112.066.24.066.384 0 .188-.038.358-.114.51a1.122 1.122 0 0 1-.324.39c-.14.108-.308.192-.504.252a2.354 2.354 0 0 1-.648.084c-.212 0-.4-.022-.564-.066a1.771 1.771 0 0 1-.432-.174 1.69 1.69 0 0 1-.552-.564l.666-.516c.092.172.204.314.336.426.136.108.318.162.546.162.204 0 .362-.05.474-.15a.536.536 0 0 0 .174-.42v-.036c0-.172-.066-.3-.198-.384-.128-.088-.306-.132-.534-.132h-.378v-.75h.39Zm3.826 2.604c-.548 0-.954-.19-1.218-.57-.264-.38-.396-.912-.396-1.596s.132-1.216.396-1.596c.264-.38.67-.57 1.218-.57.548 0 .954.19 1.218.57.264.38.396.912.396 1.596s-.132 1.216-.396 1.596c-.264.38-.67.57-1.218.57Zm0-.762c.24 0 .406-.088.498-.264.092-.176.138-.424.138-.744v-.792c0-.32-.046-.568-.138-.744-.092-.176-.258-.264-.498-.264s-.406.088-.498.264c-.092.176-.138.424-.138.744v.792c0 .32.046.568.138.744.092.176.258.264.498.264Zm3.598.762c-.549 0-.954-.19-1.218-.57-.265-.38-.396-.912-.396-1.596s.131-1.216.396-1.596c.264-.38.67-.57 1.218-.57.547 0 .953.19 1.218.57.264.38.395.912.395 1.596s-.131 1.216-.395 1.596c-.265.38-.67.57-1.218.57Zm0-.762c.24 0 .405-.088.497-.264.093-.176.139-.424.139-.744v-.792c0-.32-.046-.568-.139-.744-.091-.176-.258-.264-.497-.264-.24 0-.407.088-.498.264-.092.176-.139.424-.139.744v.792c0 .32.047.568.139.744.091.176.258.264.498.264Z" fill="#fff"/><path d="M44 29.5a1.5 1.5 0 0 1 1.5-1.5h11.25a1.5 1.5 0 0 1 1.5 1.5V34a1.5 1.5 0 0 1-1.5 1.5H45.5A1.5 1.5 0 0 1 44 34v-4.5Z" fill="#0E0E0E"/><path d="M47.3 31.468c.224 0 .386-.042.486-.126a.409.409 0 0 0 .156-.324v-.042a.474.474 0 0 0-.15-.366c-.096-.092-.234-.138-.414-.138a.912.912 0 0 0-.474.132 1.098 1.098 0 0 0-.378.366l-.564-.528c.08-.104.166-.198.258-.282.092-.088.196-.162.312-.222.116-.064.246-.112.39-.144.144-.036.306-.054.486-.054.224 0 .426.026.606.078.184.052.34.128.468.228a.957.957 0 0 1 .3.348.96.96 0 0 1 .108.456.946.946 0 0 1-.492.84 1.148 1.148 0 0 1-.306.102v.036c.124.024.238.064.342.12.108.052.2.12.276.204.08.084.142.184.186.3.044.112.066.24.066.384 0 .188-.038.358-.114.51a1.122 1.122 0 0 1-.324.39c-.14.108-.308.192-.504.252a2.354 2.354 0 0 1-.648.084c-.212 0-.4-.022-.564-.066a1.771 1.771 0 0 1-.432-.174 1.69 1.69 0 0 1-.552-.564l.666-.516c.092.172.204.314.336.426.136.108.318.162.546.162.204 0 .362-.05.474-.15a.536.536 0 0 0 .174-.42v-.036c0-.172-.066-.3-.198-.384-.128-.088-.306-.132-.534-.132h-.378v-.75h.39Zm3.826 2.604c-.548 0-.954-.19-1.218-.57-.264-.38-.396-.912-.396-1.596s.132-1.216.396-1.596c.264-.38.67-.57 1.218-.57.548 0 .954.19 1.218.57.264.38.396.912.396 1.596s-.132 1.216-.396 1.596c-.264.38-.67.57-1.218.57Zm0-.762c.24 0 .406-.088.498-.264.092-.176.138-.424.138-.744v-.792c0-.32-.046-.568-.138-.744-.092-.176-.258-.264-.498-.264s-.406.088-.498.264c-.092.176-.138.424-.138.744v.792c0 .32.046.568.138.744.092.176.258.264.498.264Zm3.598.762c-.548 0-.954-.19-1.218-.57-.264-.38-.397-.912-.397-1.596s.133-1.216.396-1.596c.264-.38.67-.57 1.218-.57.549 0 .955.19 1.218.57.264.38.396.912.396 1.596s-.132 1.216-.396 1.596c-.264.38-.67.57-1.218.57Zm0-.762c.24 0 .406-.088.498-.264.091-.176.137-.424.137-.744v-.792c0-.32-.046-.568-.138-.744-.091-.176-.257-.264-.497-.264s-.406.088-.498.264c-.093.176-.139.424-.139.744v.792c0 .32.046.568.138.744.093.176.258.264.498.264Z" fill="#fff"/><path d="m44 41.06 5.25 5.25 2.25-2.25 5.25 5.25L59 47.06l4.5 4.5v-2.12l-4.5-4.5-2.25 2.25-5.25-5.25-2.25 2.25L44 38.94v2.12Z" fill="#FF444F"/><path d="m64.25 35.5 3.53 3.53-1.061 1.061-1.72-1.72V52h-1.06l-.44-.44V38.372l-1.72 1.72-1.06-1.06 3.53-3.531Z" fill="#414652"/></svg>