<svg width="49" height="48" fill="none" xmlns="http://www.w3.org/2000/svg"><path d="M11.324 32h-1a2 2 0 0 0-2 2v6a2 2 0 0 0 2 2h1a2 2 0 0 0 2-2v-6a2 2 0 0 0-2-2Zm9-6h-1a2 2 0 0 0-2 2v12a2 2 0 0 0 2 2h1a2 2 0 0 0 2-2V28a2 2 0 0 0-2-2Z" stroke="#fff" stroke-width="2" stroke-linecap="round" stroke-linejoin="round"/><path d="M29.344 43h-1.02c-.55 0-1.01-.45-1.01-1s.44-1 .99-1h1.02c.55 0 1.01.45 1.01 1s-.44 1-.99 1Zm-3.02-2.95c-.55 0-1-.45-1-1v-1.02c0-.55.45-1 1-1s1 .45 1 1v1.02c0 .55-.45 1-1 1Zm5 0c-.55 0-1-.45-1-1v-1.02c0-.55.45-1 1-1s1 .45 1 1v1.02c0 .55-.45 1-1 1Zm-5-5.09c-.55 0-1-.45-1-1v-1.02c0-.55.45-1 1-1s1 .45 1 1v1.02c0 .55-.45 1-1 1Zm5 0c-.55 0-1-.45-1-1v-1.02c0-.55.45-1 1-1s1 .45 1 1v1.02c0 .55-.45 1-1 1ZM29.334 31h-1.01c-.55 0-1.01-.45-1.01-1s.44-1 .99-1h1.01c.55 0 1 .45 1 1s-.44 1-1 1h.02Zm9.01 12h-1.02c-.55 0-1.01-.45-1.01-1s.44-1 .99-1h1.01c.55 0 1.01.45 1.01 1s-.44 1-.99 1h.01Zm-3.02-2.93c-.55 0-1-.45-1-1v-1.01c0-.55.45-1 1-1s1 .45 1 1v1.01c0 .55-.45 1-1 1Zm5 0c-.55 0-1-.45-1-1v-1.01c0-.55.45-1 1-1s1 .45 1 1v1.01c0 .55-.45 1-1 1Zm-5-5.06c-.55 0-1-.45-1-1V33c0-.55.45-1 1-1s1 .45 1 1v1.01c0 .55-.45 1-1 1Zm5 0c-.55 0-1-.45-1-1V33c0-.55.45-1 1-1s1 .45 1 1v1.01c0 .55-.45 1-1 1Zm-5-5.06c-.55 0-1-.45-1-1v-1.01c0-.55.45-1 1-1s1 .45 1 1v1.01c0 .55-.45 1-1 1Zm5 0c-.55 0-1-.45-1-1v-1.01c0-.55.45-1 1-1s1 .45 1 1v1.01c0 .55-.45 1-1 1Zm-2-3.93h-1c-.55 0-1.01-.45-1.01-1s.44-1 .99-1h1.01c.55 0 1 .45 1 1s-.45 1-1 1h.01Z" fill="#fff"/><path d="m7.324 24 10.59-10.59c.78-.78 2.05-.78 2.83 0l6.17 6.17c.78.78 2.05.78 2.83 0l10.59-10.59h-3m2.99.01v3" stroke="#fff" stroke-width="2" stroke-linecap="round" stroke-linejoin="round"/></svg>