<svg width="49" height="48" fill="none" xmlns="http://www.w3.org/2000/svg"><path d="M22.89 22.13a2.68 2.68 0 0 1 0 5.36m.89.01a2.68 2.68 0 0 1 0 5.36" stroke="#fff" stroke-width="2" stroke-miterlimit="10" stroke-linecap="round"/><path d="M22.89 22.13h-4.47c-.99 0-1.79.8-1.79 1.79v7.16c0 .99.8 1.79 1.79 1.79h5.37m-.01-5.37h-7.16m2.69-5.37v-1.79m3.58 1.79v-1.79m-3.58 14.32v-1.79m3.58 1.79v-1.79" stroke="#fff" stroke-width="2" stroke-miterlimit="10" stroke-linecap="round"/><path d="M21 45c9.665 0 17.5-7.835 17.5-17.5S30.665 10 21 10 3.5 17.835 3.5 27.5 11.335 45 21 45Z" stroke="#fff" stroke-width="2" stroke-miterlimit="10" stroke-linecap="round"/><path d="M21 40.62c7.246 0 13.12-5.874 13.12-13.12 0-7.246-5.874-13.12-13.12-13.12-7.246 0-13.12 5.874-13.12 13.12 0 7.246 5.874 13.12 13.12 13.12ZM34.12 27.5h4.38" stroke="#fff" stroke-width="2" stroke-miterlimit="10" stroke-linecap="round"/><path d="M27.56 16.13c.73-1.26 1.46-2.53 2.19-3.79m-15.31 3.79c-.73-1.26-1.46-2.53-2.19-3.79M7.87 27.5H3.5m10.94 11.37c-.73 1.26-1.46 2.53-2.19 3.79m15.31-3.79c.73 1.26 1.46 2.53 2.19 3.79" stroke="#fff" stroke-width="2" stroke-miterlimit="10" stroke-linecap="round"/><path d="M40 4c2.48 0 4.5 2.02 4.5 4.5S42.48 13 40 13s-4.5-2.02-4.5-4.5S37.52 4 40 4Zm0-2a6.5 6.5 0 1 0 0 13 6.5 6.5 0 0 0 0-13Z" fill="#fff"/><path d="M40 10V7m1.5 1.5h-3" stroke="#fff" stroke-width="2" stroke-miterlimit="10" stroke-linecap="round"/></svg>