<svg width="411" height="115" fill="none" xmlns="http://www.w3.org/2000/svg"><rect x="1" y=".878" width="409" height="113" rx="8" fill="#fff" stroke="#E5E5E5"/><path d="m46.45 39.878 3.738-8.764h-4.172v1.82h-1.05v-2.828h6.412v1.036l-3.668 8.736h-1.26Zm10.144.168c-1.166 0-2.02-.443-2.562-1.33-.531-.887-.797-2.128-.797-3.724s.266-2.837.797-3.724c.542-.887 1.396-1.33 2.563-1.33 1.166 0 2.016.443 2.547 1.33.542.887.813 2.128.813 3.724s-.271 2.837-.813 3.724c-.532.887-1.38 1.33-2.548 1.33Zm0-1.022c.383 0 .71-.08.98-.238.271-.159.49-.383.659-.672.168-.29.289-.63.364-1.022.084-.392.125-.826.125-1.302v-1.596c0-.476-.041-.91-.126-1.302a3.222 3.222 0 0 0-.363-1.022 1.82 1.82 0 0 0-.658-.672c-.271-.159-.598-.238-.98-.238-.383 0-.71.08-.98.238a1.82 1.82 0 0 0-.659.672c-.168.29-.294.63-.378 1.022a6.984 6.984 0 0 0-.111 1.302v1.596c0 .476.037.91.111 1.302.084.392.21.733.378 1.022.168.29.388.513.658.672.271.159.598.238.98.238Zm32.074-.014v-2.926h-2.73v-.952h2.73v-2.926h1.064v2.926h2.73v.952h-2.73v2.926h-1.064Zm36.794.868h-6.412v-1.204l3.192-2.94c.457-.42.84-.863 1.148-1.33.308-.476.462-.952.462-1.428v-.168c0-.541-.149-.98-.448-1.316-.299-.336-.751-.504-1.358-.504-.299 0-.56.042-.784.126-.224.084-.42.2-.588.35-.159.15-.294.327-.406.532-.103.196-.187.41-.252.644l-1.05-.406c.093-.29.219-.57.378-.84.168-.28.373-.527.616-.742.252-.215.551-.387.896-.518.355-.13.77-.196 1.246-.196s.901.07 1.274.21c.373.14.686.336.938.588.252.252.443.55.574.896.14.345.21.728.21 1.148 0 .383-.056.737-.168 1.064a4.06 4.06 0 0 1-.434.938c-.187.29-.415.574-.686.854-.261.28-.546.56-.854.84l-2.632 2.366h5.138v1.036Zm2.165 0v-1.036h2.73v-7.868h-.098l-2.464 2.296-.686-.742 2.59-2.422h1.834v8.736h2.52v1.036h-6.426Zm11.362.168c-1.167 0-2.021-.443-2.562-1.33-.532-.887-.798-2.128-.798-3.724s.266-2.837.798-3.724c.541-.887 1.395-1.33 2.562-1.33 1.167 0 2.016.443 2.548 1.33.541.887.812 2.128.812 3.724s-.271 2.837-.812 3.724c-.532.887-1.381 1.33-2.548 1.33Zm0-1.022c.383 0 .709-.08.98-.238.271-.159.49-.383.658-.672.168-.29.289-.63.364-1.022.084-.392.126-.826.126-1.302v-1.596c0-.476-.042-.91-.126-1.302a3.231 3.231 0 0 0-.364-1.022 1.818 1.818 0 0 0-.658-.672c-.271-.159-.597-.238-.98-.238s-.709.08-.98.238c-.271.159-.49.383-.658.672-.168.29-.294.63-.378 1.022a6.95 6.95 0 0 0-.112 1.302v1.596c0 .476.037.91.112 1.302.084.392.21.733.378 1.022.168.29.387.513.658.672.271.159.597.238.98.238Zm32.982-.014v-2.926h-2.73v-.952h2.73v-2.926h1.064v2.926h2.73v.952h-2.73v2.926h-1.064Zm46.187.868V37.96h-4.718v-1.036l4.088-6.818h1.75v6.874h1.414v.98h-1.414v1.918h-1.12Zm-3.612-2.898h3.612v-5.964h-.07l-3.542 5.964Zm14.219 2.898h-6.412v-1.204l3.192-2.94c.457-.42.84-.863 1.148-1.33.308-.476.462-.952.462-1.428v-.168c0-.541-.15-.98-.448-1.316-.299-.336-.752-.504-1.358-.504-.299 0-.56.042-.784.126-.224.084-.42.2-.588.35-.159.15-.294.327-.406.532-.103.196-.187.41-.252.644l-1.05-.406c.093-.29.219-.57.378-.84.168-.28.373-.527.616-.742.252-.215.55-.387.896-.518.354-.13.77-.196 1.246-.196s.9.07 1.274.21c.373.14.686.336.938.588.252.252.443.55.574.896.14.345.21.728.21 1.148 0 .383-.056.737-.168 1.064-.103.327-.248.64-.434.938-.187.29-.416.574-.686.854-.262.28-.546.56-.854.84l-2.632 2.366h5.138v1.036Zm5.132.168c-1.166 0-2.02-.443-2.562-1.33-.532-.887-.798-2.128-.798-3.724s.266-2.837.798-3.724c.542-.887 1.396-1.33 2.562-1.33 1.167 0 2.016.443 2.548 1.33.542.887.812 2.128.812 3.724s-.27 2.837-.812 3.724c-.532.887-1.381 1.33-2.548 1.33Zm0-1.022c.383 0 .71-.08.98-.238.271-.159.49-.383.658-.672.168-.29.29-.63.364-1.022.084-.392.126-.826.126-1.302v-1.596c0-.476-.042-.91-.126-1.302a3.207 3.207 0 0 0-.364-1.022 1.818 1.818 0 0 0-.658-.672c-.27-.159-.597-.238-.98-.238-.382 0-.709.08-.98.238a1.83 1.83 0 0 0-.658.672c-.168.29-.294.63-.378 1.022a7.035 7.035 0 0 0-.112 1.302v1.596c0 .476.038.91.112 1.302.084.392.21.733.378 1.022.168.29.388.513.658.672.271.159.598.238.98.238Zm41.344-4.354v-.952h6.524v.952h-6.524Zm0 2.8v-.952h6.524v.952h-6.524Zm35.764 3.556v-1.148c-.71-.047-1.312-.22-1.806-.518a4.696 4.696 0 0 1-1.246-1.148l.826-.742c.298.401.625.723.98.966.364.233.784.383 1.26.448v-3.598c-.962-.215-1.666-.527-2.114-.938-.439-.42-.658-.994-.658-1.722 0-.373.065-.705.196-.994a2.34 2.34 0 0 1 .574-.77 2.65 2.65 0 0 1 .868-.504c.336-.13.709-.215 1.12-.252v-1.148h.868v1.134c.634.056 1.18.22 1.638.49.466.261.868.625 1.204 1.092l-.854.644a2.987 2.987 0 0 0-.84-.798 2.835 2.835 0 0 0-1.162-.42v3.276l.126.028c.97.215 1.675.532 2.114.952.448.41.672.985.672 1.722 0 .803-.262 1.451-.784 1.946-.514.485-1.218.77-2.114.854v1.148h-.868Zm2.66-3.878c0-.476-.14-.84-.42-1.092-.271-.252-.733-.457-1.386-.616v3.444c.56-.075.998-.261 1.316-.56.326-.308.49-.7.49-1.176Zm-4.312-4.606c0 .476.135.835.406 1.078.28.233.7.425 1.26.574V31.1c-.504.065-.91.22-1.218.462-.299.243-.448.57-.448.98Zm8.689 7.336 3.738-8.764h-4.172v1.82h-1.05v-2.828h6.412v1.036l-3.668 8.736h-1.26Zm10.144.168c-1.166 0-2.02-.443-2.562-1.33-.532-.887-.798-2.128-.798-3.724s.266-2.837.798-3.724c.542-.887 1.396-1.33 2.562-1.33 1.167 0 2.016.443 2.548 1.33.542.887.812 2.128.812 3.724s-.27 2.837-.812 3.724c-.532.887-1.381 1.33-2.548 1.33Zm0-1.022c.383 0 .71-.08.98-.238.271-.159.49-.383.658-.672.168-.29.29-.63.364-1.022.084-.392.126-.826.126-1.302v-1.596c0-.476-.042-.91-.126-1.302a3.207 3.207 0 0 0-.364-1.022 1.818 1.818 0 0 0-.658-.672c-.27-.159-.597-.238-.98-.238-.382 0-.709.08-.98.238a1.83 1.83 0 0 0-.658.672c-.168.29-.294.63-.378 1.022a7.035 7.035 0 0 0-.112 1.302v1.596c0 .476.038.91.112 1.302.084.392.21.733.378 1.022.168.29.388.513.658.672.271.159.598.238.98.238Zm8.395 1.022c-1.167 0-2.021-.443-2.562-1.33-.532-.887-.798-2.128-.798-3.724s.266-2.837.798-3.724c.541-.887 1.395-1.33 2.562-1.33 1.167 0 2.016.443 2.548 1.33.541.887.812 2.128.812 3.724s-.271 2.837-.812 3.724c-.532.887-1.381 1.33-2.548 1.33Zm0-1.022c.383 0 .709-.08.98-.238.271-.159.49-.383.658-.672.168-.29.289-.63.364-1.022.084-.392.126-.826.126-1.302v-1.596c0-.476-.042-.91-.126-1.302a3.231 3.231 0 0 0-.364-1.022 1.818 1.818 0 0 0-.658-.672c-.271-.159-.597-.238-.98-.238s-.709.08-.98.238c-.271.159-.49.383-.658.672-.168.29-.294.63-.378 1.022a6.95 6.95 0 0 0-.112 1.302v1.596c0 .476.037.91.112 1.302.084.392.21.733.378 1.022.168.29.387.513.658.672.271.159.597.238.98.238Z" fill="#414652"/><path d="M213.462 90h-6.412v-1.204l3.192-2.94c.457-.42.84-.863 1.148-1.33.308-.476.462-.952.462-1.428v-.168c0-.541-.149-.98-.448-1.316-.299-.336-.751-.504-1.358-.504-.299 0-.56.042-.784.126-.224.084-.42.2-.588.35-.159.15-.294.327-.406.532-.103.196-.187.41-.252.644l-1.05-.406c.093-.29.219-.57.378-.84.168-.28.373-.527.616-.742.252-.215.551-.387.896-.518.355-.13.77-.196 1.246-.196s.901.07 1.274.21c.373.14.686.336.938.588.252.252.443.55.574.896.14.345.21.728.21 1.148 0 .383-.056.737-.168 1.064-.103.327-.247.64-.434.938-.187.29-.415.574-.686.854-.261.28-.546.56-.854.84l-2.632 2.366h5.138V90Zm6.621 0c-.392 0-.691-.107-.896-.322-.196-.224-.294-.504-.294-.84V79.64h1.12v9.38h1.064V90h-.994Zm5.355.168c-.486 0-.929-.089-1.33-.266a2.962 2.962 0 0 1-1.036-.756c-.28-.336-.5-.733-.658-1.19a4.843 4.843 0 0 1-.238-1.568c0-.57.079-1.087.238-1.554a3.56 3.56 0 0 1 .658-1.19 2.888 2.888 0 0 1 1.036-.77 3.252 3.252 0 0 1 1.33-.266c.485 0 .924.089 1.316.266.401.177.746.434 1.036.77.289.327.513.723.672 1.19.158.467.238.985.238 1.554a4.87 4.87 0 0 1-.238 1.568 3.632 3.632 0 0 1-.672 1.19 2.98 2.98 0 0 1-1.036.756 3.16 3.16 0 0 1-1.316.266Zm0-.994c.606 0 1.101-.187 1.484-.56.382-.373.574-.943.574-1.708V85.87c0-.765-.192-1.335-.574-1.708-.383-.373-.878-.56-1.484-.56-.607 0-1.102.187-1.484.56-.383.373-.574.943-.574 1.708v1.036c0 .765.191 1.335.574 1.708.382.373.877.56 1.484.56Zm6.7.826c-.392 0-.691-.107-.896-.322-.196-.224-.294-.513-.294-.868v-5.054h-1.19v-.98h.672c.242 0 .406-.047.49-.14.093-.103.14-.275.14-.518v-1.344h1.008v2.002h1.582v.98h-1.582v5.264h1.47V90h-1.4Zm5.482.168c-.672 0-1.237-.126-1.694-.378a3.949 3.949 0 0 1-1.162-1.036l.798-.644c.28.355.592.63.938.826.345.187.746.28 1.204.28.476 0 .844-.103 1.106-.308.27-.205.406-.495.406-.868a1 1 0 0 0-.28-.714c-.178-.205-.504-.345-.98-.42l-.574-.084a5.178 5.178 0 0 1-.924-.21 2.934 2.934 0 0 1-.742-.392 1.848 1.848 0 0 1-.49-.616 2.057 2.057 0 0 1-.168-.868c0-.355.065-.663.196-.924.13-.27.308-.495.532-.672.233-.177.508-.308.826-.392.317-.093.658-.14 1.022-.14.588 0 1.078.103 1.47.308.401.205.751.49 1.05.854l-.742.672c-.159-.224-.392-.425-.7-.602-.308-.187-.696-.28-1.162-.28-.467 0-.822.103-1.064.308-.234.196-.35.467-.35.812 0 .355.116.611.35.77.242.159.588.275 1.036.35l.56.084c.802.121 1.372.355 1.708.7.336.336.504.78.504 1.33 0 .7-.238 1.25-.714 1.652-.476.401-1.13.602-1.96.602Z" fill="#999"/><path d="M228 58.878v16h-1v-16h1Z" fill="#E5E5E5"/><circle cx="227.5" cy="57.378" r="2" fill="#577A92" fill-opacity=".04" stroke="#E5E5E5"/><path d="M292.592 81.264V90h-1.176v-8.736h-3.108v-1.036h7.392v1.036h-3.108Zm6.424 8.904c-.486 0-.929-.089-1.33-.266a2.962 2.962 0 0 1-1.036-.756c-.28-.336-.5-.733-.658-1.19a4.843 4.843 0 0 1-.238-1.568c0-.57.079-1.087.238-1.554a3.56 3.56 0 0 1 .658-1.19 2.888 2.888 0 0 1 1.036-.77 3.252 3.252 0 0 1 1.33-.266c.485 0 .924.089 1.316.266.401.177.746.434 1.036.77.289.327.513.723.672 1.19.158.467.238.985.238 1.554a4.87 4.87 0 0 1-.238 1.568 3.632 3.632 0 0 1-.672 1.19 2.98 2.98 0 0 1-1.036.756 3.16 3.16 0 0 1-1.316.266Zm0-.994c.606 0 1.101-.187 1.484-.56.382-.373.574-.943.574-1.708V85.87c0-.765-.192-1.335-.574-1.708-.383-.373-.878-.56-1.484-.56-.607 0-1.102.187-1.484.56-.383.373-.574.943-.574 1.708v1.036c0 .765.191 1.335.574 1.708.382.373.877.56 1.484.56Zm6.7.826c-.392 0-.691-.107-.896-.322-.196-.224-.294-.513-.294-.868v-5.054h-1.19v-.98h.672c.242 0 .406-.047.49-.14.093-.103.14-.275.14-.518v-1.344h1.008v2.002h1.582v.98h-1.582v5.264h1.47V90h-1.4Zm8.562 0c-.42 0-.723-.112-.91-.336a1.708 1.708 0 0 1-.336-.84h-.07c-.159.448-.42.784-.784 1.008-.364.224-.798.336-1.302.336-.765 0-1.363-.196-1.792-.588-.42-.392-.63-.924-.63-1.596 0-.681.247-1.204.742-1.568.504-.364 1.283-.546 2.338-.546h1.428v-.714c0-.513-.14-.905-.42-1.176-.28-.27-.709-.406-1.288-.406-.439 0-.807.098-1.106.294a2.457 2.457 0 0 0-.728.784l-.672-.63c.196-.392.509-.723.938-.994.429-.28.971-.42 1.624-.42.877 0 1.559.215 2.044.644.485.43.728 1.027.728 1.792v3.976h.826V90h-.63Zm-3.22-.784c.28 0 .537-.033.77-.098a1.89 1.89 0 0 0 .602-.28c.168-.121.299-.261.392-.42.093-.159.14-.331.14-.518v-1.19h-1.484c-.644 0-1.115.093-1.414.28a.908.908 0 0 0-.434.812v.294c0 .355.126.63.378.826.261.196.611.294 1.05.294Zm6.638.784c-.392 0-.69-.107-.896-.322-.196-.224-.294-.504-.294-.84V79.64h1.12v9.38h1.064V90h-.994Zm5.933 0v-7.224h1.12v1.176h.056c.084-.187.178-.36.28-.518a1.95 1.95 0 0 1 .392-.434c.159-.121.341-.215.546-.28.206-.075.448-.112.728-.112.476 0 .915.117 1.316.35.402.224.7.597.896 1.12h.028a2.22 2.22 0 0 1 .728-1.022c.364-.299.854-.448 1.47-.448.738 0 1.312.243 1.722.728.42.476.63 1.153.63 2.03V90h-1.12v-4.438c0-.644-.126-1.13-.378-1.456-.252-.327-.653-.49-1.204-.49a2.44 2.44 0 0 0-.644.084 1.75 1.75 0 0 0-.532.252 1.228 1.228 0 0 0-.518 1.036V90h-1.12v-4.438c0-.644-.126-1.13-.378-1.456-.252-.327-.644-.49-1.176-.49a2.44 2.44 0 0 0-.644.084c-.205.056-.387.14-.546.252a1.363 1.363 0 0 0-.392.434c-.093.168-.14.369-.14.602V90h-1.12Zm17.473 0c-.42 0-.723-.112-.91-.336a1.708 1.708 0 0 1-.336-.84h-.07c-.159.448-.42.784-.784 1.008-.364.224-.798.336-1.302.336-.765 0-1.363-.196-1.792-.588-.42-.392-.63-.924-.63-1.596 0-.681.247-1.204.742-1.568.504-.364 1.283-.546 2.338-.546h1.428v-.714c0-.513-.14-.905-.42-1.176-.28-.27-.709-.406-1.288-.406-.439 0-.807.098-1.106.294a2.457 2.457 0 0 0-.728.784l-.672-.63c.196-.392.509-.723.938-.994.429-.28.971-.42 1.624-.42.877 0 1.559.215 2.044.644.485.43.728 1.027.728 1.792v3.976h.826V90h-.63Zm-3.22-.784c.28 0 .537-.033.77-.098a1.89 1.89 0 0 0 .602-.28c.168-.121.299-.261.392-.42.093-.159.14-.331.14-.518v-1.19h-1.484c-.644 0-1.115.093-1.414.28a.908.908 0 0 0-.434.812v.294c0 .355.126.63.378.826.261.196.611.294 1.05.294Zm5.449.784v-7.224h1.12v1.33h.07c.13-.345.364-.653.7-.924.336-.27.798-.406 1.386-.406h.434v1.12h-.658c-.607 0-1.083.117-1.428.35-.336.224-.504.509-.504.854V90h-1.12Zm10.902.798c0 .747-.294 1.293-.882 1.638-.579.355-1.451.532-2.618.532-1.129 0-1.941-.154-2.436-.462-.495-.308-.742-.747-.742-1.316 0-.392.103-.7.308-.924.205-.215.485-.373.84-.476v-.154c-.429-.205-.644-.541-.644-1.008 0-.364.117-.64.35-.826.233-.196.532-.34.896-.434v-.056a2.384 2.384 0 0 1-1.008-.882c-.233-.383-.35-.826-.35-1.33 0-.364.065-.7.196-1.008a2.24 2.24 0 0 1 .546-.784 2.55 2.55 0 0 1 .854-.518 3.278 3.278 0 0 1 1.12-.182c.513 0 .971.093 1.372.28v-.126c0-.28.065-.509.196-.686.131-.187.345-.28.644-.28h1.078v.98h-1.372v.462c.261.224.462.495.602.812.149.308.224.658.224 1.05 0 .364-.065.7-.196 1.008a2.29 2.29 0 0 1-.56.798 2.491 2.491 0 0 1-.854.504 3.278 3.278 0 0 1-1.12.182c-.233 0-.467-.023-.7-.07a2.209 2.209 0 0 0-.658.294.576.576 0 0 0-.294.518c0 .215.103.36.308.434.205.075.471.112.798.112h1.54c.896 0 1.545.173 1.946.518.411.336.616.803.616 1.4Zm-1.05.084a.85.85 0 0 0-.336-.7c-.215-.168-.602-.252-1.162-.252h-2.408c-.448.205-.672.532-.672.98 0 .317.117.588.35.812.243.224.649.336 1.218.336h1.036c.625 0 1.111-.098 1.456-.294.345-.196.518-.49.518-.882Zm-2.506-4.186c.476 0 .854-.112 1.134-.336.28-.233.42-.588.42-1.064v-.392c0-.476-.14-.826-.42-1.05-.28-.233-.658-.35-1.134-.35-.476 0-.854.117-1.134.35-.28.224-.42.574-.42 1.05v.392c0 .476.14.83.42 1.064.28.224.658.336 1.134.336Zm5.423-5.614c-.243 0-.42-.056-.532-.168a.689.689 0 0 1-.154-.462v-.182c0-.187.051-.336.154-.448.112-.121.289-.182.532-.182.242 0 .415.06.518.182a.605.605 0 0 1 .168.448v.182c0 .187-.056.34-.168.462-.103.112-.276.168-.518.168Zm-.56 1.694h1.12V90h-1.12v-7.224Zm3.5 7.224v-7.224h1.12v1.176h.056a2.4 2.4 0 0 1 .742-.98c.326-.243.76-.364 1.302-.364.746 0 1.334.243 1.764.728.438.476.658 1.153.658 2.03V90h-1.12v-4.438c0-1.297-.546-1.946-1.638-1.946-.224 0-.444.028-.658.084-.206.056-.392.14-.56.252a1.286 1.286 0 0 0-.406.434c-.094.168-.14.369-.14.602V90h-1.12Z" fill="#999"/><path d="M327 58.878v16h-1v-16h1Z" fill="#E5E5E5"/><circle cx="326.5" cy="57.378" r="2" fill="#577A92" fill-opacity=".04" stroke="#E5E5E5"/><g clip-path="url(#a)"><path d="M35.232 89v-1.036h2.73v-7.868h-.098L35.4 82.392l-.686-.742 2.59-2.422h1.834v8.736h2.52V89h-6.426Zm12.851 0c-.392 0-.69-.107-.896-.322-.196-.224-.294-.504-.294-.84V78.64h1.12v9.38h1.064V89h-.994Zm5.355.168c-.486 0-.93-.089-1.33-.266a2.97 2.97 0 0 1-1.036-.756c-.28-.336-.5-.733-.658-1.19a4.851 4.851 0 0 1-.238-1.568c0-.57.079-1.087.238-1.554a3.57 3.57 0 0 1 .658-1.19 2.884 2.884 0 0 1 1.036-.77 3.255 3.255 0 0 1 1.33-.266c.485 0 .924.089 1.316.266.4.177.746.434 1.036.77.289.327.513.723.672 1.19.158.467.238.985.238 1.554a4.87 4.87 0 0 1-.238 1.568 3.622 3.622 0 0 1-.672 1.19c-.29.327-.635.579-1.036.756a3.164 3.164 0 0 1-1.316.266Zm0-.994c.606 0 1.1-.187 1.484-.56.382-.373.574-.943.574-1.708V84.87c0-.765-.192-1.335-.574-1.708-.383-.373-.878-.56-1.484-.56-.607 0-1.102.187-1.484.56-.383.373-.574.943-.574 1.708v1.036c0 .765.19 1.335.574 1.708.382.373.877.56 1.484.56Zm6.7.826c-.392 0-.691-.107-.896-.322-.196-.224-.294-.513-.294-.868v-5.054h-1.19v-.98h.672c.242 0 .406-.047.49-.14.093-.103.14-.275.14-.518v-1.344h1.008v2.002h1.582v.98h-1.582v5.264h1.47V89h-1.4Z" fill="#999"/><path d="M52 57.878v16h-1v-16h1Z" fill="#E5E5E5"/><circle cx="51.5" cy="56.378" r="2" fill="#577A92" fill-opacity=".04" stroke="#E5E5E5"/></g><path d="M120.462 90h-6.412v-1.204l3.192-2.94c.457-.42.84-.863 1.148-1.33.308-.476.462-.952.462-1.428v-.168c0-.541-.149-.98-.448-1.316-.299-.336-.751-.504-1.358-.504-.299 0-.56.042-.784.126-.224.084-.42.2-.588.35-.159.15-.294.327-.406.532-.103.196-.187.41-.252.644l-1.05-.406c.093-.29.219-.57.378-.84.168-.28.373-.527.616-.742.252-.215.551-.387.896-.518.355-.13.77-.196 1.246-.196s.901.07 1.274.21c.373.14.686.336.938.588.252.252.443.55.574.896.14.345.21.728.21 1.148 0 .383-.056.737-.168 1.064-.103.327-.247.64-.434.938-.187.29-.415.574-.686.854-.261.28-.546.56-.854.84l-2.632 2.366h5.138V90Zm6.621 0c-.392 0-.691-.107-.896-.322-.196-.224-.294-.504-.294-.84V79.64h1.12v9.38h1.064V90h-.994Zm5.355.168c-.486 0-.929-.089-1.33-.266a2.962 2.962 0 0 1-1.036-.756c-.28-.336-.5-.733-.658-1.19a4.843 4.843 0 0 1-.238-1.568c0-.57.079-1.087.238-1.554a3.56 3.56 0 0 1 .658-1.19 2.888 2.888 0 0 1 1.036-.77 3.252 3.252 0 0 1 1.33-.266c.485 0 .924.089 1.316.266.401.177.746.434 1.036.77.289.327.513.723.672 1.19.158.467.238.985.238 1.554a4.87 4.87 0 0 1-.238 1.568 3.632 3.632 0 0 1-.672 1.19 2.98 2.98 0 0 1-1.036.756 3.16 3.16 0 0 1-1.316.266Zm0-.994c.606 0 1.101-.187 1.484-.56.382-.373.574-.943.574-1.708V85.87c0-.765-.192-1.335-.574-1.708-.383-.373-.878-.56-1.484-.56-.607 0-1.102.187-1.484.56-.383.373-.574.943-.574 1.708v1.036c0 .765.191 1.335.574 1.708.382.373.877.56 1.484.56Zm6.7.826c-.392 0-.691-.107-.896-.322-.196-.224-.294-.513-.294-.868v-5.054h-1.19v-.98h.672c.242 0 .406-.047.49-.14.093-.103.14-.275.14-.518v-1.344h1.008v2.002h1.582v.98h-1.582v5.264h1.47V90h-1.4Zm5.482.168c-.672 0-1.237-.126-1.694-.378a3.949 3.949 0 0 1-1.162-1.036l.798-.644c.28.355.592.63.938.826.345.187.746.28 1.204.28.476 0 .844-.103 1.106-.308.27-.205.406-.495.406-.868a1 1 0 0 0-.28-.714c-.178-.205-.504-.345-.98-.42l-.574-.084a5.178 5.178 0 0 1-.924-.21 2.934 2.934 0 0 1-.742-.392 1.848 1.848 0 0 1-.49-.616 2.057 2.057 0 0 1-.168-.868c0-.355.065-.663.196-.924.13-.27.308-.495.532-.672.233-.177.508-.308.826-.392.317-.093.658-.14 1.022-.14.588 0 1.078.103 1.47.308.401.205.751.49 1.05.854l-.742.672c-.159-.224-.392-.425-.7-.602-.308-.187-.696-.28-1.162-.28-.467 0-.822.103-1.064.308-.234.196-.35.467-.35.812 0 .355.116.611.35.77.242.159.588.275 1.036.35l.56.084c.802.121 1.372.355 1.708.7.336.336.504.78.504 1.33 0 .7-.238 1.25-.714 1.652-.476.401-1.13.602-1.96.602Z" fill="#999"/><path d="M135 58.878v16h-1v-16h1Z" fill="#E5E5E5"/><circle cx="134.5" cy="57.378" r="2" fill="#577A92" fill-opacity=".04" stroke="#E5E5E5"/><defs><clipPath id="a"><path fill="#fff" transform="translate(18 53.878)" d="M0 0h106v41H0z"/></clipPath></defs></svg>