<svg width="44" height="44" fill="none" xmlns="http://www.w3.org/2000/svg"><path fill-rule="evenodd" clip-rule="evenodd" d="M24.19 14.12a1 1 0 0 1 1-1c2.72 0 4.94 2.206 4.94 4.94A4.935 4.935 0 0 1 25.19 23a1 1 0 1 1 0-2 2.941 2.941 0 0 0 0-5.88 1 1 0 0 1-1-1Z" fill="#414652"/><path fill-rule="evenodd" clip-rule="evenodd" d="M25.5 22a1 1 0 0 1 1-1c2.72 0 4.94 2.206 4.94 4.94a4.935 4.935 0 0 1-4.94 4.94 1 1 0 1 1 0-2 2.941 2.941 0 0 0 0-5.88 1 1 0 0 1-1-1Z" fill="#414652"/><path fill-rule="evenodd" clip-rule="evenodd" d="M15 16.12c0-1.652 1.348-3 3-3h7.19a1 1 0 1 1 0 2H18c-.548 0-1 .452-1 1v11.75c0 .548.452 1 1 1h8.5a1 1 0 1 1 0 2H18c-1.652 0-3-1.348-3-3V16.12Z" fill="#414652"/><path fill-rule="evenodd" clip-rule="evenodd" d="M15 22a1 1 0 0 1 1-1h10.5a1 1 0 1 1 0 2H16a1 1 0 0 1-1-1Zm4.94-13a1 1 0 0 1 1 1v4.12a1 1 0 1 1-2 0V10a1 1 0 0 1 1-1Zm5.25 0a1 1 0 0 1 1 1v4.12a1 1 0 1 1-2 0V10a1 1 0 0 1 1-1Zm-5.25 19.88a1 1 0 0 1 1 1V34a1 1 0 1 1-2 0v-4.12a1 1 0 0 1 1-1Zm5.25 0a1 1 0 0 1 1 1V34a1 1 0 1 1-2 0v-4.12a1 1 0 0 1 1-1Z" fill="#414652"/><path fill-rule="evenodd" clip-rule="evenodd" d="M22 2C10.954 2 2 10.954 2 22s8.954 20 20 20 20-8.954 20-20S33.046 2 22 2ZM0 22C0 9.85 9.85 0 22 0s22 9.85 22 22-9.85 22-22 22S0 34.15 0 22Z" fill="#414652"/></svg>