<svg width="48" height="48" fill="none" xmlns="http://www.w3.org/2000/svg"><g clip-path="url(#a)"><mask id="b" fill="#fff"><path fill-rule="evenodd" clip-rule="evenodd" d="M39.72 10.885 26.253-.15a.46.46 0 0 0-.752.356v5.03h-11c-5.523 0-10 4.478-10 10v7.007a8 8 0 0 1 8-8h13v8.033a.46.46 0 0 0 .752.356L39.72 11.597a.46.46 0 0 0 0-.712Z"/></mask><path d="m26.252-.15-1.268 1.547L26.251-.15ZM39.72 10.885l1.267-1.547-1.267 1.547ZM25.5 5.237v2h2v-2h-2Zm0 9.006h2v-2h-2v2Zm.752 8.39 1.267 1.546-1.267-1.547ZM39.72 11.596l1.267 1.547-1.267-1.547Zm-14.737-10.2 13.47 11.035 2.534-3.094L27.52-1.697l-2.535 3.094ZM27.5.206c0 1.3-1.51 2.014-2.516 1.19l2.535-3.093C25.913-3.013 23.5-1.871 23.5.206h4Zm0 5.03V.207h-4v5.03h4Zm-2-2h-11v4h11v-4Zm-11 0c-6.627 0-12 5.373-12 12h4a8 8 0 0 1 8-8v-4Zm-12 12v7.007h4v-7.006h-4Zm4 7.007a6 6 0 0 1 6-6v-4c-5.523 0-10 4.477-10 10h4Zm6-6h13v-4h-13v4Zm15 6.034v-8.034h-4v8.033h4Zm-2.516-1.192c1.005-.823 2.516-.108 2.516 1.191h-4c0 2.077 2.413 3.22 4.02 1.903l-2.536-3.094Zm13.47-11.035-13.47 11.035 2.535 3.094 13.47-11.035-2.536-3.094Zm0 2.382a1.54 1.54 0 0 1 0-2.382l2.534 3.094a2.46 2.46 0 0 0 0-3.806l-2.535 3.094Z" fill="#85ACB0" mask="url(#b)"/><path fill-rule="evenodd" clip-rule="evenodd" d="M5.28 37.115 18.747 48.15a.46.46 0 0 0 .752-.355v-5.032h11c5.523 0 10-4.477 10-10v-7.006a8 8 0 0 1-8 8h-13v-8.033a.46.46 0 0 0-.752-.356L5.28 36.403a.46.46 0 0 0 0 .712Z" fill="#85ACB0"/><path fill-rule="evenodd" clip-rule="evenodd" d="M12 24c0 6.627 5.372 12 12 12 6.627 0 12-5.373 12-12s-5.373-12-12-12c-6.628 0-12 5.373-12 12Z" fill="#FF444F" style="mix-blend-mode:multiply"/><path fill-rule="evenodd" clip-rule="evenodd" d="M25.257 29.499V31.5h-2.498v-1.994c-1.84-.343-2.997-1.479-3.079-3.128h2.166c.105.866.979 1.423 2.241 1.423 1.164 0 1.988-.564 1.988-1.368 0-.684-.534-1.074-1.848-1.369l-1.392-.297c-1.95-.408-2.909-1.424-2.909-3.056 0-1.632 1.088-2.809 2.82-3.195V16.5h2.498v2.019c1.69.376 2.816 1.529 2.87 3.08h-2.09c-.106-.846-.893-1.41-1.975-1.41-1.08 0-1.86.52-1.86 1.334 0 .66.509 1.027 1.765 1.307l1.29.274c2.152.451 3.079 1.368 3.079 3.041 0 1.79-1.15 2.987-3.066 3.354Z" fill="#fff"/></g><defs><clipPath id="a"><path fill="#fff" d="M0 0h48v48H0z"/></clipPath></defs></svg>