<svg width="72" height="73" fill="none" xmlns="http://www.w3.org/2000/svg"><g clip-path="url(#a)"><path fill="#E03640" d="M0 .089h72v72H0z"/><path d="M69 3.09-3 14.453l-13.2 60.635h72l13.2-72Z" fill="#FF444F"/><g filter="url(#b)"><path d="M22.027 44.088c.23.021.493.042.787.063h1.103c2.457 0 4.273-.62 5.45-1.858 1.196-1.24 1.795-2.95 1.795-5.135 0-2.289-.567-4.021-1.701-5.197-1.134-1.176-2.93-1.764-5.387-1.764-.336 0-.682.01-1.04.031-.356 0-.692.021-1.007.063v13.797Zm14.206-6.93c0 1.89-.294 3.539-.882 4.946-.588 1.407-1.428 2.572-2.52 3.496-1.07.924-2.383 1.617-3.937 2.08-1.554.461-3.297.692-5.23.692-.881 0-1.91-.042-3.086-.126a23.682 23.682 0 0 1-3.465-.44V26.542c1.134-.21 2.31-.347 3.528-.41 1.239-.084 2.3-.126 3.181-.126 1.87 0 3.56.21 5.072.63 1.533.42 2.845 1.082 3.937 1.985 1.092.903 1.932 2.058 2.52 3.465.588 1.407.882 3.097.882 5.071Zm9.806 11.214c-1.197 0-2.394-.042-3.59-.126a23.814 23.814 0 0 1-3.686-.504V26.574a29.034 29.034 0 0 1 3.308-.41 38.371 38.371 0 0 1 3.339-.157c1.386 0 2.656.105 3.811.315 1.176.19 2.184.525 3.024 1.008a5.201 5.201 0 0 1 1.953 1.922c.483.777.724 1.743.724 2.898 0 1.743-.84 3.118-2.52 4.126 1.386.525 2.331 1.24 2.835 2.142.505.903.756 1.922.756 3.056 0 2.289-.84 4.01-2.52 5.166-1.658 1.155-4.136 1.732-7.434 1.732Zm-2.488-9.796v5.638c.357.042.745.074 1.166.095.42.02.882.031 1.386.031 1.47 0 2.656-.21 3.559-.63.903-.42 1.355-1.197 1.355-2.33 0-1.009-.379-1.723-1.135-2.143-.755-.44-1.837-.661-3.244-.661h-3.087Zm0-3.749h2.394c1.512 0 2.593-.189 3.245-.567.65-.399.976-1.029.976-1.89 0-.882-.336-1.501-1.008-1.858-.672-.357-1.659-.536-2.961-.536-.42 0-.872.01-1.355.032-.483 0-.913.02-1.291.063v4.756Z" fill="#fff"/></g></g><defs><clipPath id="a"><rect y=".089" width="72" height="72" rx="13.5" fill="#fff"/></clipPath><filter id="b" x="15.113" y="25.007" width="42.88" height="26.365" filterUnits="userSpaceOnUse" color-interpolation-filters="sRGB"><feFlood flood-opacity="0" result="BackgroundImageFix"/><feColorMatrix in="SourceAlpha" values="0 0 0 0 0 0 0 0 0 0 0 0 0 0 0 0 0 0 127 0" result="hardAlpha"/><feOffset dy="1"/><feGaussianBlur stdDeviation="1"/><feColorMatrix values="0 0 0 0 0.054902 0 0 0 0 0.054902 0 0 0 0 0.054902 0 0 0 0.05 0"/><feBlend in2="BackgroundImageFix" result="effect1_dropShadow_460_4738"/><feBlend in="SourceGraphic" in2="effect1_dropShadow_460_4738" result="shape"/></filter></defs></svg>