<svg xmlns="http://www.w3.org/2000/svg" viewBox="0 0 32 32"><g fill="none" fill-rule="evenodd"><rect width="32" height="32" fill="#FF6444" fill-rule="nonzero" rx="6"/><path d="M13.72 13.26a.845.845 0 1 0 0-1.69.845.845 0 0 0 0 1.69z"/><path fill="#FFF" fill-rule="nonzero" d="M25.26 15.43v-4.6A4.84 4.84 0 0 0 20.43 6h-3.86v9.43h8.69zM16.57 26h3.86a4.84 4.84 0 0 0 4.83-4.83v-4.6h-8.69V26zm-4.775-12.1a2.825 2.825 0 1 1 2.77-3.36h.865V6h-3.86a4.84 4.84 0 0 0-4.83 4.83v10.34A4.84 4.84 0 0 0 11.57 26h3.86V11.605h-.865a2.825 2.825 0 0 1-2.77 2.295z"/><path d="M0 0h32v32H0z"/></g></svg>.01-.12 0-.231.008-.336.022V14.3Zm4.735-2.31c0 .63-.098 1.18-.294 1.648a3.028 3.028 0 0 1-.84 1.166 3.51 3.51 0 0 1-1.312.693 6.11 6.11 0 0 1-1.743.23c-.294 0-.637-.013-1.03-.041a7.894 7.894 0 0 1-1.154-.147V8.45a9.01 9.01 0 0 1 1.176-.136c.413-.028.766-.042 1.06-.042.623 0 1.187.07 1.69.21.512.14.95.36 1.313.661.364.301.644.686.84 1.155.196.47.294 1.033.294 1.69Zm3.269 3.738c-.399 0-.798-.014-1.197-.042a7.938 7.938 0 0 1-1.228-.168V8.462a9.678 9.678 0 0 1 1.102-.137c.4-.035.77-.052 1.113-.052.462 0 .886.035 1.27.105.393.063.729.175 1.009.336.28.16.497.374.65.64.162.26.242.581.242.966 0 .581-.28 1.04-.84 1.376.462.175.777.413.945.714.168.3.252.64.252 1.018 0 .763-.28 1.337-.84 1.722-.553.385-1.379.578-2.478.578Zm-.83-3.266v1.88c.12.014.25.024.39.031.14.007.293.01.461.01.49 0 .886-.07 1.187-.21.3-.14.451-.398.451-.776 0-.336-.126-.574-.378-.714-.252-.147-.612-.22-1.081-.22h-1.03Zm0-1.25h.799c.504 0 .864-.062 1.081-.188.217-.133.326-.343.326-.63 0-.294-.112-.5-.336-.62-.224-.119-.553-.178-.987-.178-.14 0-.29.003-.452.01-.16 0-.304.007-.43.021v1.586Z" fill="#fff"/></svg>