<svg width="48" height="48" fill="none" xmlns="http://www.w3.org/2000/svg"><path d="M23 23h-5c-.55 0-1 .45-1 1v2c0 .55.45 1 1 1h4c.55 0 1 .45 1 1v2c0 .55-.45 1-1 1h-5m3-8v-2m0 10v2" stroke="#fff" stroke-width="2" stroke-linecap="round" stroke-linejoin="round"/><path d="M6 19v-2.58a2 2 0 0 1 1.52-1.94c3.04-.74 9.8-2.52 12.48-4.31 2.67 1.78 9.44 3.57 12.48 4.31.9.22 1.52 1.02 1.52 1.94V30c0 11.67-14 14-14 14s-9.8-1.63-13-9m29-25 5-5h-3m6 3-5 5h3M12 27H5m8-4H8m5 8H8" stroke="#fff" stroke-width="2" stroke-linecap="round" stroke-linejoin="round"/></svg>.18 1.71.71 1.71h8.9v-8.9c0-.89-1.08-1.34-1.71-.71L21.94 36l-4.95-4.95c-3.46-3.46-3.85-8.81-1.19-12.71m-1.16-9.71c-.89.54-1.73 1.17-2.53 1.88M19 6.7c-.3.09-.59.18-.88.28" stroke="#fff" stroke-width="2" stroke-linecap="round" stroke-linejoin="round"/></svg>