<svg width="72" height="72" fill="none" xmlns="http://www.w3.org/2000/svg"><path d="M0 13.5C0 6.044 6.044 0 13.5 0h45C65.956 0 72 6.044 72 13.5v45C72 65.956 65.956 72 58.5 72h-45C6.044 72 0 65.956 0 58.5v-45Z" fill="#FF444F"/><path d="M13.5 0C6.044 0 0 6.044 0 13.5v.392L67.308 3.268A13.447 13.447 0 0 0 58.5 0h-45Zm55.197 4.652L56.35 72h2.15C65.956 72 72 65.956 72 58.5v-45c0-3.384-1.246-6.478-3.303-8.848Z" fill="#E12E3A"/><path d="M21.474 42.898c.232.021.494.042.788.063h1.102c2.457 0 4.274-.62 5.45-1.858 1.197-1.24 1.796-2.95 1.796-5.135 0-2.289-.567-4.021-1.701-5.197-1.134-1.176-2.93-1.764-5.387-1.764-.336 0-.682.01-1.04.031-.357 0-.692.021-1.008.063v13.797Zm14.207-6.93c0 1.89-.294 3.539-.882 4.946-.588 1.407-1.428 2.572-2.52 3.496-1.071.924-2.384 1.617-3.938 2.08-1.553.461-3.297.692-5.229.692-.881 0-1.91-.042-3.086-.126a23.682 23.682 0 0 1-3.465-.44V25.352c1.134-.21 2.31-.347 3.527-.41 1.24-.084 2.3-.126 3.182-.126 1.869 0 3.56.21 5.072.63 1.533.42 2.845 1.082 3.937 1.985 1.092.903 1.932 2.058 2.52 3.465.588 1.407.882 3.097.882 5.071Z" fill="#fff"/><path d="M49.548 46.899a58.56 58.56 0 0 0-2.016-3.686 40.847 40.847 0 0 0-2.489-3.843c-.294.378-.672.903-1.134 1.575a78.827 78.827 0 0 0-1.354 2.142c-.441.756-.861 1.48-1.26 2.174a24.827 24.827 0 0 0-.882 1.638h-5.607a78.402 78.402 0 0 1 3.213-5.355 188.293 188.293 0 0 1 4.126-5.954l-7.024-10.52h5.953l4.253 6.803 4.158-6.804h5.607l-6.93 10.584c1.764 2.29 3.244 4.41 4.441 6.363 1.197 1.932 2.142 3.56 2.835 4.883h-5.89Z" fill="#fff"/></svg>pacity="0" result="BackgroundImageFix"/><feColorMatrix in="SourceAlpha" values="0 0 0 0 0 0 0 0 0 0 0 0 0 0 0 0 0 0 127 0" result="hardAlpha"/><feOffset dy="1"/><feGaussianBlur stdDeviation="1"/><feColorMatrix values="0 0 0 0 0.054902 0 0 0 0 0.054902 0 0 0 0 0.054902 0 0 0 0.05 0"/><feBlend in2="BackgroundImageFix" result="effect1_dropShadow_1218_14117"/><feBlend in="SourceGraphic" in2="effect1_dropShadow_1218_14117" result="shape"/></filter></defs></svg>