<svg width="148" height="64" fill="none" xmlns="http://www.w3.org/2000/svg"><path d="M0 12.001c0-6.627 5.373-12 12-12h40c6.627 0 12 5.373 12 12v40c0 6.627-5.373 12-12 12H12C5.373 64 0 58.628 0 52V12Z" fill="#FF444F"/><path d="M12 .001c-6.627 0-12 5.373-12 12v.349l59.829-9.444A11.953 11.953 0 0 0 52 .001H12Zm49.064 4.135L50.089 64.001H52c6.627 0 12-5.373 12-12V12c0-3.008-1.107-5.758-2.936-7.865Z" fill="#E12E3A"/><path d="M16.076 22.992c2.687 0 4.75.477 6.188 1.43 1.44.936 2.158 2.479 2.158 4.628 0 2.167-.728 3.735-2.184 4.706-1.456.953-3.536 1.43-6.24 1.43h-1.274v6.032h-4.056V23.46c.884-.173 1.82-.295 2.808-.364.988-.07 1.855-.104 2.6-.104Zm.26 3.458c-.294 0-.589.009-.884.026-.277.017-.52.035-.728.052v5.2h1.274c1.404 0 2.462-.19 3.172-.572.711-.381 1.066-1.092 1.066-2.132 0-.503-.095-.919-.286-1.248a1.88 1.88 0 0 0-.78-.78c-.329-.208-.736-.347-1.222-.416a9.207 9.207 0 0 0-1.612-.13Zm20.581 1.482a4.77 4.77 0 0 1-.39 1.898 9.1 9.1 0 0 1-1.014 1.768 15.065 15.065 0 0 1-1.404 1.612c-.52.52-1.032 1.014-1.534 1.482-.26.243-.546.52-.858.832-.295.295-.58.598-.858.91-.278.312-.529.607-.754.884-.208.26-.338.477-.39.65h7.748v3.25H25.45a4.187 4.187 0 0 1-.052-.728v-.624c0-.832.13-1.595.39-2.288a8.668 8.668 0 0 1 1.066-1.924c.433-.607.918-1.17 1.456-1.69.555-.52 1.1-1.04 1.638-1.56.416-.399.806-.771 1.17-1.118.364-.364.684-.71.962-1.04.277-.347.494-.685.65-1.014.156-.347.234-.693.234-1.04 0-.763-.217-1.3-.65-1.612-.433-.312-.97-.468-1.612-.468-.468 0-.91.078-1.326.234a5.994 5.994 0 0 0-1.118.52c-.33.19-.616.39-.858.598-.243.19-.425.347-.546.468l-1.924-2.704a9.64 9.64 0 0 1 2.652-1.742 7.78 7.78 0 0 1 3.276-.702c1.057 0 1.967.121 2.73.364.763.243 1.386.59 1.872 1.04.503.433.867.97 1.092 1.612.242.624.364 1.335.364 2.132Zm8.069-4.94c2.687 0 4.75.477 6.188 1.43 1.439.936 2.158 2.479 2.158 4.628 0 2.167-.728 3.735-2.184 4.706-1.456.953-3.536 1.43-6.24 1.43h-1.274v6.032h-4.056V23.46c.884-.173 1.82-.295 2.808-.364.988-.07 1.855-.104 2.6-.104Zm.26 3.458c-.294 0-.59.009-.884.026-.277.017-.52.035-.728.052v5.2h1.274c1.404 0 2.462-.19 3.172-.572.71-.381 1.066-1.092 1.066-2.132 0-.503-.095-.919-.286-1.248a1.88 1.88 0 0 0-.78-.78c-.33-.208-.736-.347-1.222-.416a9.207 9.207 0 0 0-1.612-.13Z" fill="#fff"/><path fill-rule="evenodd" clip-rule="evenodd" d="m88.443 6.664-.787 4.467H84.92c-2.55 0-4.982 2.067-5.432 4.618l-.191 1.086c-.449 2.55 1.253 4.617 3.804 4.617h2.28c1.86 0 3.63-1.505 3.958-3.364l2.1-11.905-2.997.481Zm-1.94 11.003c-.1.574-.617 1.042-1.192 1.042h-1.385c-1.147 0-1.914-.931-1.713-2.08l.12-.677c.203-1.146 1.297-2.079 2.444-2.079h2.395l-.669 3.794Z" fill="#414652"/><path d="M109.501 21.453h2.838l1.794-10.178h-2.837l-1.795 10.178Zm.094-8.852V12.6l.213-1.207a9.6 9.6 0 0 0-6.104.408l-1.703 9.655h2.84l1.382-7.841c.426-.085 1.813-.218 3.158.2l.214-1.213Z" fill="#414652"/><path fill-rule="evenodd" clip-rule="evenodd" d="M98.298 11.13H96.09c-2.153 0-4.205 1.744-4.584 3.897l-.447 2.53c-.38 2.152 1.057 3.896 3.21 3.896h4.699l.482-2.735h-4.417c-.717 0-1.197-.58-1.069-1.3l.015-.085h7.12l.407-2.306c.379-2.153-1.057-3.897-3.21-3.897Zm.36 3.679-.017.147h-4.233l.023-.13c.127-.717.782-1.348 1.5-1.348h1.654c.71 0 1.19.62 1.073 1.331Z" fill="#414652"/><path d="M119.065 17.988c1.289-2.318 2.709-5.36 3.301-6.713h2.842c-.967 2.572-3.184 6.948-5.332 10.178h-2.84c-.986-3.075-1.622-7.359-1.744-10.178h2.84c.051.92.463 4.33.933 6.713ZM86.959 28.377c4.34 0 7.672.77 9.996 2.31 2.324 1.512 3.486 4.004 3.486 7.476 0 3.5-1.176 6.034-3.528 7.602-2.352 1.54-5.712 2.31-10.08 2.31h-2.058v9.744h-6.552V29.133c1.428-.28 2.94-.476 4.536-.588a60.906 60.906 0 0 1 4.2-.168Zm.42 5.586c-.476 0-.952.014-1.428.042-.448.028-.84.056-1.176.084v8.4h2.058c2.268 0 3.976-.308 5.124-.924 1.148-.616 1.722-1.764 1.722-3.444 0-.812-.154-1.484-.462-2.016-.28-.532-.7-.952-1.26-1.26-.532-.336-1.19-.56-1.974-.672-.784-.14-1.652-.21-2.604-.21Zm33.245 2.394c0 1.064-.21 2.086-.63 3.066-.42.98-.966 1.932-1.638 2.856a24.342 24.342 0 0 1-2.268 2.604c-.84.84-1.666 1.638-2.478 2.394a56.5 56.5 0 0 0-1.386 1.344c-.476.476-.938.966-1.386 1.47-.448.504-.854.98-1.218 1.428-.336.42-.546.77-.63 1.05h12.516v5.25h-19.404a6.77 6.77 0 0 1-.084-1.176v-1.008c0-1.344.21-2.576.63-3.696a13.998 13.998 0 0 1 1.722-3.108c.7-.98 1.484-1.89 2.352-2.73.896-.84 1.778-1.68 2.646-2.52.672-.644 1.302-1.246 1.89-1.806a26.921 26.921 0 0 0 1.554-1.68 8.425 8.425 0 0 0 1.05-1.638c.252-.56.378-1.12.378-1.68 0-1.232-.35-2.1-1.05-2.604-.7-.504-1.568-.756-2.604-.756a6.05 6.05 0 0 0-2.142.378 9.679 9.679 0 0 0-1.806.84c-.532.308-.994.63-1.386.966-.392.308-.686.56-.882.756l-3.108-4.368c1.232-1.148 2.66-2.086 4.284-2.814a12.566 12.566 0 0 1 5.292-1.134c1.708 0 3.178.196 4.41.588 1.232.392 2.24.952 3.024 1.68a6 6 0 0 1 1.764 2.604c.392 1.008.588 2.156.588 3.444Zm13.035-7.98c4.34 0 7.672.77 9.996 2.31 2.324 1.512 3.486 4.004 3.486 7.476 0 3.5-1.176 6.034-3.528 7.602-2.352 1.54-5.712 2.31-10.08 2.31h-2.058v9.744h-6.552V29.133c1.428-.28 2.94-.476 4.536-.588a60.906 60.906 0 0 1 4.2-.168Zm.42 5.586c-.476 0-.952.014-1.428.042-.448.028-.84.056-1.176.084v8.4h2.058c2.268 0 3.976-.308 5.124-.924 1.148-.616 1.722-1.764 1.722-3.444 0-.812-.154-1.484-.462-2.016-.28-.532-.7-.952-1.26-1.26-.532-.336-1.19-.56-1.974-.672-.784-.14-1.652-.21-2.604-.21Z" fill="#414652"/></svg>