<svg width="32" height="32" fill="none" xmlns="http://www.w3.org/2000/svg"><g clip-path="url(#a)"><path d="M0 6c0-3.31 2.69-6 6-6h20c3.31 0 6 2.69 6 6v20c0 3.31-2.69 6-6 6H6c-3.31 0-6-2.69-6-6V6Z" fill="url(#b)"/><path d="M6.094 11.742 9.354 16 4.13 20.258h5.28a3.313 3.313 0 0 0 3.226-2.567l.437-1.894a3.31 3.31 0 0 0-3.226-4.055H6.094Z" fill="url(#c)"/><path d="m9.355 16-2.323 4.258H4.13L9.355 16Z" fill="#CC2E3D"/><path d="m20.033 20.258.399-1.96 4.357-4.596h-3.423l.399-1.96h6.159l-.399 1.96-4.357 4.597h3.478l-.4 1.96h-6.213Zm-.313-3.324.4-1.96h-5.255l-1.059 5.284h5.777l.399-1.96h-3.614l.272-1.364h3.082-.002Zm-4.207-5.192-.393 1.96h5.794l.399-1.96h-5.8Z" fill="#fff"/></g><defs><linearGradient id="b" x1="16" y1="32" x2="16" y2="0" gradientUnits="userSpaceOnUse"><stop/><stop offset="1" stop-color="#58595B"/></linearGradient><linearGradient id="c" x1="19.163" y1="10.275" x2="18.506" y2="21.204" gradientUnits="userSpaceOnUse"><stop stop-color="#FF6444"/><stop offset="1" stop-color="#FF444F"/></linearGradient><clipPath id="a"><path fill="#fff" d="M0 0h32v32H0z"/></clipPath></defs></svg>