<svg width="30" height="30" fill="none" xmlns="http://www.w3.org/2000/svg"><path d="M15 29c7.732 0 14-6.268 14-14S22.732 1 15 1 1 7.268 1 15s6.268 14 14 14Z" stroke="#414652" stroke-width="1.333" stroke-miterlimit="10"/><path d="M26.2 23.4c-2.553-1.32-6.62-2.18-11.2-2.18-4.58 0-8.647.854-11.2 2.18m0-16.8C6.353 7.92 10.42 8.78 15 8.78c4.58 0 8.646-.854 11.2-2.18" stroke="#414652" stroke-width="1.333" stroke-miterlimit="10"/><path d="M15 29c2.577 0 4.666-6.268 4.666-14S17.577 1 15 1c-2.578 0-4.667 6.268-4.667 14S12.423 29 15 29Zm14-14H1" stroke="#414652" stroke-width="1.333" stroke-miterlimit="10"/></svg>