<svg width="65" height="64" fill="none" xmlns="http://www.w3.org/2000/svg"><g clip-path="url(#a)"><path fill="#E03640" d="M.25 0h64v64h-64z"/><path d="m61.583 2.666-64 10.102-11.733 53.898h64l11.733-64Z" fill="#FF444F"/><g filter="url(#b)"><path d="M20.322 38.444c.205.019.438.037.7.056h.98c2.184 0 3.798-.55 4.844-1.652 1.064-1.101 1.596-2.623 1.596-4.564 0-2.035-.504-3.575-1.512-4.62s-2.604-1.568-4.788-1.568c-.299 0-.607.01-.924.028-.318 0-.616.019-.896.056v12.264Zm12.628-6.16c0 1.68-.262 3.145-.784 4.396-.523 1.25-1.27 2.287-2.24 3.108-.952.821-2.119 1.437-3.5 1.848-1.382.41-2.931.616-4.648.616a39.1 39.1 0 0 1-2.744-.112 21.054 21.054 0 0 1-3.08-.392v-18.9a24.02 24.02 0 0 1 3.136-.364 42.709 42.709 0 0 1 2.828-.112c1.661 0 3.164.187 4.508.56 1.362.373 2.529.961 3.5 1.764.97.803 1.717 1.83 2.24 3.08.522 1.25.784 2.753.784 4.508ZM45.276 42a52.034 52.034 0 0 0-1.792-3.276 36.311 36.311 0 0 0-2.212-3.416c-.261.336-.597.803-1.008 1.4a70.099 70.099 0 0 0-1.204 1.904c-.392.672-.766 1.316-1.12 1.932A22.044 22.044 0 0 0 37.156 42h-4.984a69.655 69.655 0 0 1 2.856-4.76 167.393 167.393 0 0 1 3.668-5.292l-6.244-9.352h5.292l3.78 6.048 3.696-6.048h4.984l-6.16 9.408c1.568 2.035 2.884 3.92 3.948 5.656 1.064 1.717 1.904 3.164 2.52 4.34h-5.236Z" fill="#fff"/></g></g><defs><clipPath id="a"><rect x=".25" width="64" height="64" rx="12" fill="#fff"/></clipPath><filter id="b" x="13.954" y="21.372" width="38.558" height="23.88" filterUnits="userSpaceOnUse" color-interpolation-filters="sRGB"><feFlood flood-opacity="0" result="BackgroundImageFix"/><feColorMatrix in="SourceAlpha" values="0 0 0 0 0 0 0 0 0 0 0 0 0 0 0 0 0 0 127 0" result="hardAlpha"/><feOffset dy="1"/><feGaussianBlur stdDeviation="1"/><feColorMatrix values="0 0 0 0 0.054902 0 0 0 0 0.054902 0 0 0 0 0.054902 0 0 0 0.05 0"/><feBlend in2="BackgroundImageFix" result="effect1_dropShadow_1218_14314"/><feBlend in="SourceGraphic" in2="effect1_dropShadow_1218_14314" result="shape"/></filter></defs></svg>