<svg width="64" height="65" fill="none" xmlns="http://www.w3.org/2000/svg"><g clip-path="url(#a)"><path d="M12 .154c-6.627 0-12 5.373-12 12v.349L59.828 3.06A11.953 11.953 0 0 0 52 .154H12ZM61.063 4.29 50.088 64.153h1.911c6.628 0 12-5.372 12-12V12.155c0-3.008-1.107-5.758-2.936-7.864Z" fill="#E12E3A"/><path fill-rule="evenodd" clip-rule="evenodd" d="M50.088 64.153 12 64.154c-6.627 0-12-5.372-12-12V12.503L59.828 3.06c.44.38.854.79 1.235 1.23L50.088 64.153Z" fill="#FF444F"/><path d="M23.513 25.84c-2.034 0-3.509.57-4.424 1.708-.896 1.12-1.344 2.66-1.344 4.62 0 .952.112 1.82.336 2.604a5.71 5.71 0 0 0 1.008 1.988 4.67 4.67 0 0 0 1.68 1.316c.672.299 1.456.448 2.352.448.486 0 .896-.009 1.232-.028a5.95 5.95 0 0 0 .924-.112v-6.748h4.368v9.604c-.522.206-1.362.42-2.52.644-1.157.243-2.585.364-4.284.364-1.456 0-2.78-.224-3.976-.672a8.306 8.306 0 0 1-3.024-1.96c-.84-.858-1.493-1.913-1.96-3.164-.448-1.25-.672-2.678-.672-4.284 0-1.624.252-3.061.756-4.312.504-1.25 1.195-2.305 2.072-3.164a8.67 8.67 0 0 1 3.08-1.988 10.755 10.755 0 0 1 3.808-.672c.915 0 1.736.066 2.464.196a12.25 12.25 0 0 1 1.904.42c.542.15.98.308 1.316.476.355.168.607.299.756.392l-1.26 3.5a10.657 10.657 0 0 0-2.072-.812 8.32 8.32 0 0 0-2.52-.364Zm12.465 6.328c0 .952.112 1.811.336 2.576.242.766.578 1.428 1.008 1.988.448.542.989.962 1.624 1.26.634.299 1.362.448 2.184.448.802 0 1.52-.149 2.156-.448a4.34 4.34 0 0 0 1.624-1.26 5.71 5.71 0 0 0 1.008-1.988c.242-.765.364-1.624.364-2.576s-.122-1.81-.364-2.576c-.224-.784-.56-1.446-1.008-1.988a4.239 4.239 0 0 0-1.624-1.288c-.635-.298-1.354-.448-2.156-.448-.822 0-1.55.159-2.184.476a4.525 4.525 0 0 0-1.624 1.288c-.43.542-.766 1.204-1.008 1.988-.224.766-.336 1.615-.336 2.548Zm14.812 0c0 1.662-.252 3.127-.756 4.396-.486 1.251-1.158 2.306-2.016 3.164a8.418 8.418 0 0 1-3.08 1.904c-1.176.43-2.446.644-3.808.644-1.326 0-2.576-.214-3.752-.644a8.725 8.725 0 0 1-3.08-1.904c-.878-.858-1.568-1.913-2.072-3.164-.504-1.269-.756-2.734-.756-4.396 0-1.661.26-3.117.784-4.368.522-1.269 1.222-2.333 2.1-3.192a8.864 8.864 0 0 1 3.08-1.932 10.693 10.693 0 0 1 3.696-.644c1.325 0 2.576.215 3.752.644a8.534 8.534 0 0 1 3.08 1.932c.877.859 1.568 1.923 2.072 3.192.504 1.251.756 2.707.756 4.368Z" fill="#fff"/></g><defs><clipPath id="a"><path fill="#fff" transform="translate(0 .154)" d="M0 0h64v64H0z"/></clipPath></defs></svg>