<svg width="246" height="65" fill="none" xmlns="http://www.w3.org/2000/svg"><path fill-rule="evenodd" clip-rule="evenodd" d="m99.162 17.78-1.575 8.934h-5.469c-5.101 0-9.964 4.134-10.865 9.236l-.382 2.171c-.897 5.102 2.507 9.235 7.609 9.235h4.56c3.719 0 7.261-3.01 7.915-6.728l4.201-23.811-5.994.963Zm-3.88 22.005c-.201 1.149-1.235 2.084-2.384 2.084h-2.77c-2.294 0-3.828-1.861-3.426-4.159l.24-1.354c.406-2.293 2.594-4.158 4.887-4.158h4.791l-1.338 7.587Zm45.995 7.574h5.676L150.541 27h-5.676l-3.588 20.358Zm.188-17.7.001-.003v-.003l.427-2.418c-5.824-1.5-10.361.052-12.208.817l-3.407 19.31h5.68c.922-5.227 1.844-10.455 2.764-15.682.853-.17 3.627-.436 6.316.4l.427-2.422Zm-22.592-2.947h-4.414c-4.305 0-8.409 3.488-9.168 7.793l-.893 5.06c-.759 4.306 2.113 7.793 6.418 7.793h9.399l.964-5.47h-8.833c-1.434 0-2.394-1.162-2.138-2.6l.03-.171h14.24l.813-4.612c.759-4.305-2.113-7.793-6.418-7.793Zm.721 7.357-.033.294h-8.468l.046-.26c.255-1.434 1.564-2.696 3.001-2.696h3.308c1.421 0 2.381 1.241 2.146 2.662Zm40.812 6.36c2.577-4.637 5.419-10.72 6.603-13.428h5.684c-1.935 5.145-6.369 13.896-10.665 20.358h-5.68c-1.972-6.15-3.245-14.719-3.488-20.358h5.681c.102 1.84.925 8.662 1.865 13.428Z" fill="#414652"/><path d="M189.789 48.467c-1.596 0-3.192-.056-4.788-.168a31.752 31.752 0 0 1-4.914-.672V19.403a38.712 38.712 0 0 1 4.41-.546c1.596-.14 3.08-.21 4.452-.21 1.848 0 3.542.14 5.082.42 1.568.252 2.912.7 4.032 1.344 1.12.644 1.988 1.498 2.604 2.562.644 1.036.966 2.324.966 3.864 0 2.324-1.12 4.158-3.36 5.502 1.848.7 3.108 1.652 3.78 2.856.672 1.204 1.008 2.562 1.008 4.074 0 3.052-1.12 5.348-3.36 6.888-2.212 1.54-5.516 2.31-9.912 2.31Zm-3.318-13.062v7.518c.476.056.994.098 1.554.126.56.028 1.176.042 1.848.042 1.96 0 3.542-.28 4.746-.84 1.204-.56 1.806-1.596 1.806-3.108 0-1.344-.504-2.296-1.512-2.856-1.008-.588-2.45-.882-4.326-.882h-4.116Zm0-4.998h3.192c2.016 0 3.458-.252 4.326-.756.868-.532 1.302-1.372 1.302-2.52 0-1.176-.448-2.002-1.344-2.478-.896-.476-2.212-.714-3.948-.714-.56 0-1.162.014-1.806.042-.644 0-1.218.028-1.722.084v6.342Zm39.978 6.594c0 1.736-.252 3.332-.756 4.788-.504 1.428-1.232 2.66-2.184 3.696-.952 1.008-2.1 1.792-3.444 2.352-1.316.56-2.8.84-4.452.84-1.624 0-3.108-.28-4.452-.84a10.015 10.015 0 0 1-3.402-2.352c-.952-1.036-1.694-2.268-2.226-3.696-.532-1.456-.798-3.052-.798-4.788 0-1.736.266-3.318.798-4.746.56-1.428 1.316-2.646 2.268-3.654a10.468 10.468 0 0 1 3.444-2.352c1.344-.56 2.8-.84 4.368-.84 1.596 0 3.052.28 4.368.84 1.344.56 2.492 1.344 3.444 2.352.952 1.008 1.694 2.226 2.226 3.654s.798 3.01.798 4.746Zm-6.384 0c0-1.932-.392-3.444-1.176-4.536-.756-1.12-1.848-1.68-3.276-1.68-1.428 0-2.534.56-3.318 1.68-.784 1.092-1.176 2.604-1.176 4.536 0 1.932.392 3.472 1.176 4.62.784 1.12 1.89 1.68 3.318 1.68 1.428 0 2.52-.56 3.276-1.68.784-1.148 1.176-2.688 1.176-4.62Zm8.922-16.506 6.258-1.008v6.51h7.518v5.208h-7.518v7.77c0 1.316.224 2.366.672 3.15.476.784 1.414 1.176 2.814 1.176.672 0 1.358-.056 2.058-.168.728-.14 1.386-.322 1.974-.546l.882 4.872c-.756.308-1.596.574-2.52.798-.924.224-2.058.336-3.402.336-1.708 0-3.122-.224-4.242-.672-1.12-.476-2.016-1.12-2.688-1.932-.672-.84-1.148-1.848-1.428-3.024-.252-1.176-.378-2.478-.378-3.906V20.495Z" fill="#414652"/><g clip-path="url(#a)"><path fill="#E03640" d="M0 .089h64v64H0z"/><path d="m61.333 2.756-64 10.101-11.733 53.9h64l11.733-64Z" fill="#FF444F"/><g filter="url(#b)"><path d="M19.58 38.533c.205.019.438.038.7.056h.98c2.183 0 3.798-.55 4.843-1.652 1.064-1.101 1.596-2.622 1.596-4.564 0-2.034-.504-3.574-1.512-4.62-1.008-1.045-2.604-1.568-4.788-1.568-.298 0-.606.01-.924.028-.317 0-.616.019-.896.056v12.264Zm12.628-6.16c0 1.68-.262 3.146-.784 4.396-.523 1.251-1.27 2.287-2.24 3.108-.953.822-2.12 1.438-3.5 1.848-1.382.411-2.931.616-4.649.616-.784 0-1.698-.037-2.744-.112a21.056 21.056 0 0 1-3.08-.392v-18.9a24.02 24.02 0 0 1 3.136-.364 42.709 42.709 0 0 1 2.828-.112c1.662 0 3.165.187 4.508.56 1.363.374 2.53.962 3.5 1.764.971.803 1.718 1.83 2.24 3.08.523 1.251.785 2.754.785 4.508Zm8.716 9.968c-1.064 0-2.128-.037-3.192-.112a21.177 21.177 0 0 1-3.276-.448V22.965a25.884 25.884 0 0 1 2.94-.364 34.082 34.082 0 0 1 2.968-.14c1.232 0 2.361.094 3.388.28 1.045.168 1.941.467 2.688.896a4.63 4.63 0 0 1 1.736 1.708c.43.691.644 1.55.644 2.576 0 1.55-.747 2.772-2.24 3.668 1.232.467 2.072 1.102 2.52 1.904.448.803.672 1.708.672 2.716 0 2.035-.747 3.566-2.24 4.592-1.475 1.027-3.677 1.54-6.608 1.54Zm-2.212-8.708v5.012a15.6 15.6 0 0 0 1.036.084c.373.019.784.028 1.232.028 1.307 0 2.361-.186 3.164-.56.803-.373 1.204-1.064 1.204-2.072 0-.896-.336-1.53-1.008-1.904-.672-.392-1.633-.588-2.884-.588h-2.744Zm0-3.332h2.128c1.344 0 2.305-.168 2.884-.504.579-.354.868-.914.868-1.68 0-.784-.299-1.334-.896-1.652-.597-.317-1.475-.476-2.632-.476-.373 0-.775.01-1.204.028-.43 0-.812.019-1.148.056v4.228Z" fill="#fff"/></g></g><defs><clipPath id="a"><rect y=".089" width="64" height="64" rx="12" fill="#fff"/></clipPath><filter id="b" x="13.212" y="21.461" width="38.56" height="23.88" filterUnits="userSpaceOnUse" color-interpolation-filters="sRGB"><feFlood flood-opacity="0" result="BackgroundImageFix"/><feColorMatrix in="SourceAlpha" values="0 0 0 0 0 0 0 0 0 0 0 0 0 0 0 0 0 0 127 0" result="hardAlpha"/><feOffset dy="1"/><feGaussianBlur stdDeviation="1"/><feColorMatrix values="0 0 0 0 0.054902 0 0 0 0 0.054902 0 0 0 0 0.054902 0 0 0 0.05 0"/><feBlend in2="BackgroundImageFix" result="effect1_dropShadow_460_4648"/><feBlend in="SourceGraphic" in2="effect1_dropShadow_460_4648" result="shape"/></filter></defs></svg>