<svg width="154" height="40" fill="none" xmlns="http://www.w3.org/2000/svg"><path d="M40.081 27.049c-.55-.446-.336-1.431-.907-1.917.553-3.365-.997-6.331-2.845-8.232-1.551-1.595-1.051-3.147-1.051-4.49 0-2.146-.881-4.41-3.55-4.41-2.853 0-3.635 2.38-3.663 3.738-.068 3.262.659 4.11-1.25 6.484-2.246 2.793-2.577 5.579-2.07 7.057a2.924 2.924 0 0 1-1.155.835c-1.652.72-.441 1.925-.898 2.78a1.57 1.57 0 0 0-.192.74c0 .75.596 1.399 1.679 1.302 1.461-.13 2.809.905 3.681.905.77 0 1.402-.438 1.696-1.041 1.377-.339 3.077-.296 4.453.059.247.691.917 1.141 1.662 1.141 1.631 0 1.945-1.849 3.816-2.475.674-.225 1.013-.879 1.013-1.488 0-.39-.139-.761-.419-.988Zm-9.147-10.465c-.319 0-.583-.258-1-.568-.528-.392-1.065-.618-1.059-1.03 0-.283.379-.37.869-.681.526-.333.731-.671 1.249-.671.53 0 .69.268 1.41.579.708.307 1.201.427 1.201.773 0 .355-.741.609-1.158.868-.613.378-.928.73-1.512.73Zm1.665-5.215c.882.141.981 1.691.559 2.454l-.355-.145c.184-.543.181-1.437-.435-1.494-.391-.036-.643.48-.697.922a1.686 1.686 0 0 0-.523-.127c.062-.923.658-1.737 1.451-1.61Zm-3.403.331c.676-.168 1.075.618 1.078 1.435l-.31.19c-.042-.343-.195-.897-.579-.779-.411.128-.344 1.083-.115 1.279l-.306.17c-.42-.707-.419-2.133.232-2.295Zm-2.115 19.243c-1.963-.893-2.63-.69-3.005-.69-.777 0-1.031-.579-.739-1.127.248-.465.171-.952.11-1.343-.094-.599-.111-.794.478-1.052.815-.346 1.177-.791 1.447-1.124.758-.937 1.523.537 2.15 1.85.407.851 1.208 1.282 1.455 2.225.227.871-.71 1.801-1.896 1.261Zm6.987-1.874c-1.384.673-3.147.982-4.466.299-.195-.563-.507-.927-.843-1.293.539-.142.939-.814.46-1.489-.511-.721-1.555-1.224-2.61-2.04-.987-.763-1.299-2.644.045-4.746-.655 1.862-.272 3.578.057 4.069.068-.988.146-2.638 1.496-4.615.681-.998.691-2.316.706-3.14l.62.424c.456.337.838.708 1.386.708.81 0 1.258-.466 1.882-.853.244-.15.613-.302.923-.513.52 2.476 2.674 5.454 2.795 7.15.501-1.032-.142-3.514-.142-3.514.842 1.285.909 2.356.946 3.67.589.241 1.221.869 1.279 1.696l-.245-.028c-.126-.919-2.607-2.269-2.83-.539-1.19.181-.757 2.066-.997 3.288-.11.559-.314 1.001-.462 1.466Zm4.846-.041c-.985.38-1.65 1.187-2.107 1.688-.88.966-2.044.503-2.168-.401-.131-.966.36-1.493.572-2.574.193-.987-.023-2.506.431-2.668.295 1.753 2.066 1.016 2.47.538.657 0 .712.222.859.837.092.385.219.709.578 1.09.418.447.29 1.133-.635 1.49Zm-8-13.006c-.651 0-1.138-.433-1.534-.769-.203-.171.05-.487.253-.315.387.328.777.675 1.281.675.607 0 1.142-.519 1.867-.805.247-.097.388.285.143.382-.704.277-1.269.832-2.01.832Zm21.36-8.259h.873V14h-.873V7.763Zm2.363 1.692c.192-.048.447-.099.765-.153a6.619 6.619 0 0 1 1.098-.081c.372 0 .681.054.927.162.246.102.441.249.585.441.15.186.255.411.315.675.06.264.09.555.09.873V14h-.837v-2.448c0-.288-.021-.534-.063-.738a1.204 1.204 0 0 0-.189-.495.739.739 0 0 0-.36-.27 1.51 1.51 0 0 0-.558-.09 4.475 4.475 0 0 0-.558.036 2.52 2.52 0 0 0-.378.054V14h-.837V9.455Zm6.257 3.942c.342 0 .594-.045.756-.135a.455.455 0 0 0 .252-.432.574.574 0 0 0-.243-.486c-.162-.12-.429-.255-.801-.405-.18-.072-.354-.144-.522-.216a1.966 1.966 0 0 1-.423-.27 1.159 1.159 0 0 1-.288-.369 1.18 1.18 0 0 1-.108-.531c0-.414.153-.741.459-.981.306-.246.723-.369 1.251-.369.132 0 .264.009.396.027.132.012.255.03.369.054.114.018.213.039.297.063.09.024.159.045.207.063l-.153.72a1.978 1.978 0 0 0-.423-.144 2.585 2.585 0 0 0-.693-.081c-.234 0-.438.048-.612.144a.453.453 0 0 0-.261.432c0 .102.018.192.054.27.042.078.102.15.18.216.084.06.186.117.306.171.12.054.264.111.432.171.222.084.42.168.594.252.174.078.321.171.441.279.126.108.222.24.288.396.066.15.099.336.099.558 0 .432-.162.759-.486.981-.318.222-.774.333-1.368.333-.414 0-.738-.036-.972-.108a4.602 4.602 0 0 1-.477-.153l.153-.72c.096.036.249.09.459.162.21.072.489.108.837.108Zm3.71-4.077h1.774v.702h-1.773v2.16c0 .234.018.429.054.585.036.15.09.27.162.36a.597.597 0 0 0 .27.18c.108.036.234.054.378.054.252 0 .453-.027.603-.081l.324-.126.162.693a2.874 2.874 0 0 1-.441.153c-.21.066-.45.099-.72.099-.318 0-.582-.039-.792-.117a1.184 1.184 0 0 1-.495-.369 1.504 1.504 0 0 1-.27-.594 4.254 4.254 0 0 1-.072-.828V8.015l.837-.144V9.32Zm4.423 4.077c.198 0 .372-.003.522-.009.156-.012.285-.03.387-.054v-1.395a1.01 1.01 0 0 0-.297-.072 3.275 3.275 0 0 0-.891-.009 1.208 1.208 0 0 0-.387.117.777.777 0 0 0-.288.234.596.596 0 0 0-.117.387c0 .3.096.51.288.63.192.114.453.171.783.171Zm-.072-4.194c.336 0 .618.045.846.135.234.084.42.207.558.369.144.156.246.345.306.567.06.216.09.456.09.72v2.925l-.306.054a11.104 11.104 0 0 1-.963.099 5.79 5.79 0 0 1-.558.027c-.264 0-.507-.027-.73-.081a1.68 1.68 0 0 1-.575-.252 1.21 1.21 0 0 1-.378-.468 1.622 1.622 0 0 1-.135-.693c0-.258.05-.48.153-.666.108-.186.252-.336.432-.45.18-.114.39-.198.63-.252.24-.054.492-.081.756-.081.084 0 .17.006.26.018.09.006.175.018.253.036a4.025 4.025 0 0 1 .342.063v-.234c0-.138-.015-.273-.045-.405a.898.898 0 0 0-.162-.36.765.765 0 0 0-.324-.252 1.173 1.173 0 0 0-.522-.099c-.276 0-.52.021-.73.063a2.36 2.36 0 0 0-.458.117l-.1-.693c.109-.048.289-.093.54-.135a4.38 4.38 0 0 1 .82-.072Zm4.594 4.887c-.516-.012-.882-.123-1.098-.333-.216-.21-.324-.537-.324-.981V7.16l.837-.144v5.625c0 .138.012.252.036.342a.47.47 0 0 0 .117.216.542.542 0 0 0 .216.126c.09.024.2.045.333.063l-.117.702Zm2.46 0c-.515-.012-.881-.123-1.097-.333-.216-.21-.324-.537-.324-.981V7.16l.837-.144v5.625c0 .138.012.252.036.342a.47.47 0 0 0 .117.216.542.542 0 0 0 .216.126c.09.024.2.045.333.063l-.117.702Zm2.642-.693c.198 0 .372-.003.522-.009.156-.012.285-.03.387-.054v-1.395a1.01 1.01 0 0 0-.297-.072 3.275 3.275 0 0 0-.891-.009 1.208 1.208 0 0 0-.387.117.777.777 0 0 0-.288.234.596.596 0 0 0-.117.387c0 .3.096.51.288.63.192.114.453.171.783.171Zm-.072-4.194c.336 0 .618.045.846.135.234.084.42.207.558.369.144.156.246.345.306.567.06.216.09.456.09.72v2.925l-.306.054a11.104 11.104 0 0 1-.963.099 5.79 5.79 0 0 1-.558.027c-.264 0-.507-.027-.73-.081a1.68 1.68 0 0 1-.575-.252 1.21 1.21 0 0 1-.378-.468 1.622 1.622 0 0 1-.135-.693c0-.258.05-.48.153-.666.108-.186.252-.336.432-.45.18-.114.39-.198.63-.252.24-.054.492-.081.756-.081.084 0 .17.006.26.018.09.006.175.018.253.036a4.025 4.025 0 0 1 .342.063v-.234c0-.138-.015-.273-.045-.405a.898.898 0 0 0-.162-.36.765.765 0 0 0-.324-.252 1.173 1.173 0 0 0-.522-.099c-.276 0-.52.021-.73.063a2.36 2.36 0 0 0-.458.117l-.1-.693c.109-.048.289-.093.54-.135a4.38 4.38 0 0 1 .82-.072Zm3.973.117h1.773v.702h-1.773v2.16c0 .234.018.429.054.585.036.15.09.27.162.36a.597.597 0 0 0 .27.18c.108.036.234.054.378.054.252 0 .453-.027.603-.081l.324-.126.162.693a2.874 2.874 0 0 1-.441.153c-.21.066-.45.099-.72.099-.318 0-.582-.039-.792-.117a1.184 1.184 0 0 1-.495-.369 1.504 1.504 0 0 1-.27-.594 4.254 4.254 0 0 1-.072-.828V8.015l.837-.144V9.32ZM86.227 14h-.837V9.32h.837V14Zm-.423-5.526a.563.563 0 0 1-.387-.144.547.547 0 0 1-.153-.405c0-.168.05-.3.153-.396a.544.544 0 0 1 .387-.153c.15 0 .276.051.378.153a.503.503 0 0 1 .162.396.531.531 0 0 1-.162.405.53.53 0 0 1-.378.144Zm5.993 3.186c0 .372-.054.708-.162 1.008-.108.3-.26.558-.459.774a2.005 2.005 0 0 1-.693.504c-.27.114-.564.171-.882.171-.318 0-.612-.057-.882-.171a2.097 2.097 0 0 1-.702-.504 2.347 2.347 0 0 1-.45-.774 2.96 2.96 0 0 1-.162-1.008c0-.366.054-.699.162-.999a2.33 2.33 0 0 1 .45-.783c.198-.216.432-.381.702-.495.27-.12.564-.18.882-.18.318 0 .612.06.882.18.27.114.501.279.693.495.198.216.351.477.46.783.107.3.161.633.161.999Zm-.873 0c0-.528-.12-.945-.36-1.251-.234-.312-.555-.468-.963-.468-.408 0-.732.156-.972.468-.234.306-.35.723-.35 1.251 0 .528.116.948.35 1.26.24.306.564.459.972.459.408 0 .73-.153.963-.459.24-.312.36-.732.36-1.26Zm2.05-2.205c.193-.048.448-.099.766-.153a6.619 6.619 0 0 1 1.098-.081c.372 0 .68.054.927.162.246.102.44.249.585.441.15.186.255.411.315.675.06.264.09.555.09.873V14h-.837v-2.448c0-.288-.021-.534-.063-.738a1.204 1.204 0 0 0-.19-.495.739.739 0 0 0-.36-.27 1.51 1.51 0 0 0-.557-.09 4.475 4.475 0 0 0-.558.036 2.52 2.52 0 0 0-.378.054V14h-.837V9.455Zm11.383 2.205c0 .372-.054.708-.162 1.008-.108.3-.261.558-.459.774a2.005 2.005 0 0 1-.693.504c-.27.114-.564.171-.882.171-.318 0-.612-.057-.882-.171a2.097 2.097 0 0 1-.702-.504 2.347 2.347 0 0 1-.45-.774 2.96 2.96 0 0 1-.162-1.008c0-.366.054-.699.162-.999a2.33 2.33 0 0 1 .45-.783c.198-.216.432-.381.702-.495.27-.12.564-.18.882-.18.318 0 .612.06.882.18.27.114.501.279.693.495.198.216.351.477.459.783.108.3.162.633.162.999Zm-.873 0c0-.528-.12-.945-.36-1.251-.234-.312-.555-.468-.963-.468-.408 0-.732.156-.972.468-.234.306-.351.723-.351 1.251 0 .528.117.948.351 1.26.24.306.564.459.972.459.408 0 .729-.153.963-.459.24-.312.36-.732.36-1.26Zm2.05-2.205c.192-.048.447-.099.765-.153a6.619 6.619 0 0 1 1.098-.081c.372 0 .681.054.927.162.246.102.441.249.585.441.15.186.255.411.315.675.06.264.09.555.09.873V14h-.837v-2.448c0-.288-.021-.534-.063-.738a1.204 1.204 0 0 0-.189-.495.739.739 0 0 0-.36-.27 1.51 1.51 0 0 0-.558-.09 4.475 4.475 0 0 0-.558.036 2.52 2.52 0 0 0-.378.054V14h-.837V9.455Zm11.058 3.789V14h-3.753V7.763h.873v5.481h2.88Zm1.697.756h-.837V9.32h.837V14Zm-.423-5.526a.563.563 0 0 1-.387-.144.547.547 0 0 1-.153-.405c0-.168.051-.3.153-.396a.544.544 0 0 1 .387-.153c.15 0 .276.051.378.153a.503.503 0 0 1 .162.396.531.531 0 0 1-.162.405.53.53 0 0 1-.378.144Zm1.863.981c.192-.048.447-.099.765-.153a6.619 6.619 0 0 1 1.098-.081c.372 0 .681.054.927.162.246.102.441.249.585.441.15.186.255.411.315.675.06.264.09.555.09.873V14h-.837v-2.448c0-.288-.021-.534-.063-.738a1.204 1.204 0 0 0-.189-.495.739.739 0 0 0-.36-.27 1.51 1.51 0 0 0-.558-.09 4.475 4.475 0 0 0-.558.036 2.52 2.52 0 0 0-.378.054V14h-.837V9.455Zm8.894 4.41c-.192.048-.447.099-.765.153a6.455 6.455 0 0 1-1.089.081c-.36 0-.663-.051-.909-.153a1.504 1.504 0 0 1-.594-.45 1.81 1.81 0 0 1-.324-.675 3.598 3.598 0 0 1-.099-.873V9.32h.837v2.448c0 .57.09.978.27 1.224.18.246.483.369.909.369.09 0 .183-.003.279-.009l.27-.018c.084-.012.159-.021.225-.027a.825.825 0 0 0 .153-.036V9.32h.837v4.545Zm4.241.135a7.14 7.14 0 0 0-.243-.441 9.59 9.59 0 0 0-.315-.495 15.444 15.444 0 0 0-.351-.513c-.12-.168-.237-.327-.351-.477-.114.15-.231.312-.351.486-.12.168-.237.339-.351.513-.108.168-.21.333-.306.495a9.591 9.591 0 0 0-.243.432h-.864c.21-.408.459-.822.747-1.242.294-.426.585-.831.873-1.215l-1.548-2.223h.945l1.116 1.638 1.125-1.638h.891l-1.512 2.169c.288.39.582.804.882 1.242.306.432.564.855.774 1.269h-.918ZM55.053 29.232c.125.011.289.023.493.034h.833c1.44 0 2.51-.363 3.213-1.088.714-.737 1.071-1.762 1.071-3.077 0-1.337-.346-2.363-1.037-3.077s-1.762-1.071-3.213-1.071c-.635 0-1.088.017-1.36.051v8.228Zm7.854-4.131c0 1.02-.159 1.91-.476 2.669a5.079 5.079 0 0 1-1.36 1.887c-.578.499-1.28.873-2.108 1.122-.816.238-1.723.357-2.72.357-.476 0-1.014-.023-1.615-.068-.6-.034-1.173-.113-1.717-.238V19.389a10.317 10.317 0 0 1 1.734-.238 29.773 29.773 0 0 1 1.632-.051c.986 0 1.887.119 2.703.357.816.227 1.513.59 2.091 1.088a4.76 4.76 0 0 1 1.36 1.87c.317.748.476 1.643.476 2.686Zm10.278 1.445a5.74 5.74 0 0 1-.306 1.921 4.252 4.252 0 0 1-.867 1.479 3.88 3.88 0 0 1-1.36.952 4.3 4.3 0 0 1-1.734.34 4.303 4.303 0 0 1-1.734-.34 3.918 3.918 0 0 1-1.343-.952 4.468 4.468 0 0 1-.884-1.479 5.74 5.74 0 0 1-.306-1.921c0-.703.102-1.337.306-1.904.215-.578.51-1.071.884-1.479a3.89 3.89 0 0 1 1.36-.935 4.26 4.26 0 0 1 1.717-.34 4.26 4.26 0 0 1 1.717.34c.533.215.986.527 1.36.935.374.408.663.901.867 1.479.215.567.323 1.201.323 1.904Zm-2.108 0c0-.884-.193-1.581-.578-2.091-.374-.521-.901-.782-1.581-.782-.68 0-1.213.26-1.598.782-.374.51-.561 1.207-.561 2.091 0 .895.187 1.604.561 2.125.385.521.918.782 1.598.782s1.207-.26 1.581-.782c.385-.521.578-1.23.578-2.125Zm9.349-1.139a55.424 55.424 0 0 1-.85 2.924c-.295.94-.59 1.83-.884 2.669h-1.683a36.383 36.383 0 0 1-.715-1.785 57.406 57.406 0 0 1-.748-2.142 93.04 93.04 0 0 1-.748-2.397c-.249-.839-.493-1.694-.73-2.567h2.175c.103.476.222.992.358 1.547.136.544.277 1.105.424 1.683.148.567.3 1.122.46 1.666.158.544.317 1.043.475 1.496.17-.521.335-1.06.494-1.615.17-.555.328-1.11.476-1.666a68.07 68.07 0 0 0 .407-1.615c.136-.533.255-1.031.358-1.496h1.58a110.908 110.908 0 0 0 .731 3.111c.148.555.3 1.11.46 1.666.17.555.34 1.094.51 1.615a58.484 58.484 0 0 0 .918-3.162 54.838 54.838 0 0 0 .799-3.23h2.124c-.237.873-.481 1.728-.73 2.567-.25.839-.5 1.638-.749 2.397-.249.76-.498 1.473-.747 2.142-.25.669-.493 1.264-.731 1.785h-1.666c-.295-.839-.601-1.728-.919-2.669a55.057 55.057 0 0 1-.85-2.924Zm7.96-3.009c.397-.113.913-.221 1.547-.323a13.34 13.34 0 0 1 2.108-.153c.725 0 1.332.102 1.82.306.486.193.872.47 1.155.833.295.351.499.782.612 1.292a6.78 6.78 0 0 1 .187 1.649V31h-2.057v-4.675a6.07 6.07 0 0 0-.102-1.207c-.056-.34-.159-.612-.306-.816a1.112 1.112 0 0 0-.578-.459c-.238-.102-.532-.153-.884-.153-.26 0-.532.017-.816.051a15.27 15.27 0 0 0-.629.085V31h-2.057v-8.602Zm13.038 8.772c-.612-.011-1.122-.08-1.53-.204-.396-.125-.714-.3-.952-.527a2.028 2.028 0 0 1-.51-.867 4.77 4.77 0 0 1-.136-1.19V18.148l2.057-.34v10.183c0 .25.017.459.051.629.046.17.119.317.221.442.102.113.238.204.408.272.182.057.408.102.68.136l-.289 1.7Zm9.994-4.624a5.74 5.74 0 0 1-.306 1.921 4.252 4.252 0 0 1-.867 1.479 3.877 3.877 0 0 1-1.36.952 4.3 4.3 0 0 1-1.734.34 4.308 4.308 0 0 1-1.734-.34 3.922 3.922 0 0 1-1.343-.952 4.48 4.48 0 0 1-.884-1.479 5.74 5.74 0 0 1-.306-1.921c0-.703.102-1.337.306-1.904a4.48 4.48 0 0 1 .884-1.479 3.9 3.9 0 0 1 1.36-.935 4.263 4.263 0 0 1 1.717-.34c.624 0 1.196.113 1.717.34.533.215.986.527 1.36.935.374.408.663.901.867 1.479.216.567.323 1.201.323 1.904Zm-2.108 0c0-.884-.192-1.581-.578-2.091-.374-.521-.901-.782-1.581-.782-.68 0-1.212.26-1.598.782-.374.51-.561 1.207-.561 2.091 0 .895.187 1.604.561 2.125.386.521.918.782 1.598.782s1.207-.26 1.581-.782c.386-.521.578-1.23.578-2.125Zm7.356 3.009c.634 0 1.116-.034 1.445-.102v-2.278a4.608 4.608 0 0 0-1.207-.153c-.227 0-.459.017-.697.051a2.243 2.243 0 0 0-.629.187c-.182.09-.329.221-.442.391-.114.159-.17.363-.17.612 0 .487.153.827.459 1.02.306.181.719.272 1.241.272Zm-.17-7.667c.68 0 1.252.085 1.717.255.464.17.833.408 1.105.714.283.306.481.68.595 1.122.124.43.187.907.187 1.428v5.389c-.318.068-.799.147-1.445.238-.635.102-1.355.153-2.159.153-.533 0-1.02-.051-1.462-.153a3.155 3.155 0 0 1-1.139-.493 2.43 2.43 0 0 1-.731-.884c-.17-.363-.255-.81-.255-1.343 0-.51.096-.94.289-1.292.204-.351.476-.635.816-.85.34-.227.731-.385 1.173-.476a6.403 6.403 0 0 1 1.411-.153c.226 0 .464.017.714.051.249.023.515.068.799.136v-.34a2.69 2.69 0 0 0-.085-.68 1.303 1.303 0 0 0-.306-.561c-.136-.17-.323-.3-.561-.391-.227-.09-.516-.136-.867-.136-.476 0-.913.034-1.309.102-.397.068-.72.147-.969.238l-.255-1.666c.26-.09.64-.181 1.139-.272a8.92 8.92 0 0 1 1.598-.136Zm7.738 4.641c0 .907.215 1.62.646 2.142.43.51 1.025.765 1.785.765.328 0 .606-.011.833-.034a7.25 7.25 0 0 0 .578-.102v-5.1a2.96 2.96 0 0 0-.731-.34 2.631 2.631 0 0 0-.952-.17c-.748 0-1.298.255-1.649.765-.34.51-.51 1.201-.51 2.074Zm5.899 4.199c-.408.125-.924.238-1.547.34-.612.102-1.258.153-1.938.153-.703 0-1.332-.108-1.887-.323a4.061 4.061 0 0 1-1.428-.918 4.337 4.337 0 0 1-.901-1.462c-.204-.578-.306-1.224-.306-1.938 0-.703.085-1.337.255-1.904a4.277 4.277 0 0 1 .782-1.479c.34-.408.753-.72 1.241-.935.487-.227 1.048-.34 1.683-.34.43 0 .81.051 1.139.153.328.102.612.215.85.34v-4.267l2.057-.34v12.92Z" fill="#333"/><rect x=".5" y=".5" width="153" height="39" rx="3.5" stroke="#999"/></svg>