<svg width="166" height="40" fill="none" xmlns="http://www.w3.org/2000/svg"><g clip-path="url(#a)" fill="#333"><path fill-rule="evenodd" clip-rule="evenodd" d="M28.5 32c1.433 0 2.808-.252 4.083-.713l-.409-3.03c-.866 1.188-1.879 1.92-2.925 2.158v-4.408c.919.016 1.803.062 2.64.134l-.205-1.521a41.052 41.052 0 0 0-2.435-.114V20.75h5.235a17.03 17.03 0 0 1-.087 1.172l1.372 1.063c.114-.722.187-1.47.217-2.235h2.987a10.436 10.436 0 0 1-1.056 3.898l1.207.935A11.947 11.947 0 0 0 40.5 20c0-6.627-5.373-12-12-12-6.628 0-12 5.373-12 12s5.372 12 12 12Zm-.75-22.415c-1.235.281-2.423 1.252-3.38 2.846-.237.395-.456.822-.654 1.28 1.224.156 2.585.257 4.033.282V9.585Zm1.5 0v4.408a37.08 37.08 0 0 0 4.034-.283 11.019 11.019 0 0 0-.654-1.279c-.957-1.595-2.146-2.566-3.38-2.846Zm-1.5 5.909a38.08 38.08 0 0 1-4.561-.341 16.524 16.524 0 0 0-.674 4.097h5.234v-3.756Zm1.5 3.756v-3.756a38.112 38.112 0 0 0 4.56-.341c.376 1.237.614 2.622.674 4.097H29.25Zm-1.5 1.5h-5.235c.06 1.475.299 2.86.674 4.097a38.064 38.064 0 0 1 4.56-.34V20.75Zm0 5.257a37.057 37.057 0 0 0-4.034.283c.198.457.417.885.654 1.279.957 1.594 2.145 2.565 3.38 2.846v-4.408Zm-6.052-11.102a18.149 18.149 0 0 0-.684 4.345h-2.988a10.44 10.44 0 0 1 1.6-4.866c.615.197 1.31.371 2.072.52Zm-.684 5.845h-2.988c.126 1.781.696 3.44 1.6 4.866.614-.196 1.31-.371 2.072-.52a18.149 18.149 0 0 1-.684-4.346Zm16.36-6.366a10.438 10.438 0 0 1 1.6 4.866h-2.988a18.144 18.144 0 0 0-.684-4.345 18.63 18.63 0 0 0 2.071-.52Zm-4.18-3.779a10.54 10.54 0 0 1 3.224 2.5c-.486.134-1.025.258-1.608.367a12.74 12.74 0 0 0-.894-1.813 10.3 10.3 0 0 0-.723-1.054Zm-9.388 18.79a10.325 10.325 0 0 1-.722-1.054 12.784 12.784 0 0 1-.894-1.813 19.19 19.19 0 0 0-1.608.368 10.54 10.54 0 0 0 3.224 2.499ZM22.19 13.472c.261-.65.56-1.257.894-1.813.223-.372.465-.725.722-1.054a10.54 10.54 0 0 0-3.224 2.5c.485.134 1.024.258 1.608.367Z"/><path d="m33.932 30.07-.995-7.381 6.106 4.728-1.798.934 1.678 2.863L37.41 32l-1.679-2.863-1.797.934Z"/></g><path d="M52.903 7.602h.844v4.328c0 .48-.107.88-.32 1.2a2 2 0 0 1-.853.72 2.762 2.762 0 0 1-1.147.238c-.434 0-.826-.08-1.178-.237a1.927 1.927 0 0 1-.83-.721c-.203-.32-.304-.72-.304-1.2V7.602h.84v4.328c0 .334.061.61.184.826.123.217.295.378.514.484.223.105.48.158.774.158.296 0 .553-.053.773-.158a1.15 1.15 0 0 0 .519-.484c.123-.216.184-.492.184-.826V7.602Zm5.091 5.137a.684.684 0 0 0-.079-.325c-.05-.103-.154-.195-.312-.277-.155-.085-.39-.159-.703-.22a5.567 5.567 0 0 1-.716-.198 2.17 2.17 0 0 1-.541-.277 1.163 1.163 0 0 1-.338-.382 1.066 1.066 0 0 1-.119-.514c0-.188.041-.365.123-.532.085-.167.204-.315.356-.444.155-.129.341-.23.558-.303.217-.073.459-.11.725-.11.381 0 .706.068.976.202.27.135.476.315.62.54.143.224.215.471.215.744h-.813a.7.7 0 0 0-.119-.383.875.875 0 0 0-.338-.312 1.092 1.092 0 0 0-.54-.123c-.226 0-.41.035-.55.106a.705.705 0 0 0-.303.259.653.653 0 0 0-.049.571.54.54 0 0 0 .167.19c.08.055.19.108.334.157.144.05.327.1.55.15.39.088.71.193.962.316s.44.274.563.453c.123.179.184.395.184.65a1.267 1.267 0 0 1-.505 1.02c-.161.123-.355.22-.58.29a2.591 2.591 0 0 1-.752.1c-.419 0-.773-.074-1.063-.223-.29-.15-.51-.343-.66-.58a1.388 1.388 0 0 1-.224-.752h.818c.011.223.076.4.193.532.117.129.26.221.43.277.17.053.34.079.506.079.223 0 .409-.03.558-.088a.777.777 0 0 0 .348-.242.56.56 0 0 0 .118-.351Zm4.124 1.349a2.34 2.34 0 0 1-.9-.167 2.043 2.043 0 0 1-.69-.48 2.13 2.13 0 0 1-.44-.729 2.674 2.674 0 0 1-.154-.922v-.185c0-.387.057-.731.171-1.033.115-.304.27-.562.466-.773.197-.211.42-.37.668-.48a1.93 1.93 0 0 1 .774-.162c.34 0 .633.059.879.176.249.117.452.281.61.492.159.208.276.454.352.739.076.28.114.588.114.922v.365h-3.55v-.664h2.737v-.061a2.027 2.027 0 0 0-.132-.615 1.1 1.1 0 0 0-.351-.492c-.161-.13-.381-.194-.66-.194a1.107 1.107 0 0 0-.909.462 1.727 1.727 0 0 0-.26.558 2.83 2.83 0 0 0-.092.76v.185c0 .225.031.438.093.637.064.196.156.369.277.518.123.15.27.267.443.352.176.085.375.127.598.127.287 0 .53-.058.73-.175.199-.118.373-.274.522-.47l.493.39a2.272 2.272 0 0 1-.391.444c-.159.14-.353.255-.585.343a2.26 2.26 0 0 1-.813.132Zm6.455-4.843V14h-.817V9.245h.817Zm-.879-1.261a.49.49 0 0 1 .119-.334c.082-.09.202-.136.36-.136.156 0 .274.045.356.136a.47.47 0 0 1 .128.334.46.46 0 0 1-.128.325c-.082.088-.2.132-.356.132-.158 0-.278-.044-.36-.132a.479.479 0 0 1-.119-.325Zm4.445 1.261v.624h-2.57v-.624h2.57Zm-1.7-1.156h.812v4.733c0 .161.025.283.075.365.05.082.114.136.193.163a.8.8 0 0 0 .255.04c.068 0 .138-.007.211-.018.076-.015.134-.027.172-.036l.004.664c-.064.02-.15.04-.255.057a1.94 1.94 0 0 1-.373.03c-.2 0-.383-.039-.55-.118a.883.883 0 0 1-.4-.395c-.096-.188-.145-.44-.145-.756V8.089Zm5.21 3.586v-.1c0-.344.05-.661.15-.954.1-.296.243-.553.43-.77.188-.22.415-.39.682-.51a2.13 2.13 0 0 1 .897-.184c.333 0 .634.062.9.185.27.12.498.29.686.51.19.216.335.473.435.769.1.293.15.61.15.953v.101c0 .343-.05.66-.15.954-.1.293-.245.55-.435.769a1.993 1.993 0 0 1-.681.51 2.14 2.14 0 0 1-.897.18 2.17 2.17 0 0 1-.9-.18 2.039 2.039 0 0 1-.686-.51 2.322 2.322 0 0 1-.43-.77c-.1-.292-.15-.61-.15-.953Zm.814-.1v.1c0 .238.028.462.083.673.056.208.14.392.25.553.115.162.257.289.427.383.17.09.368.136.593.136.223 0 .418-.046.585-.136.17-.094.31-.222.422-.383.11-.16.194-.345.25-.553.059-.211.088-.435.088-.673v-.1c0-.235-.03-.456-.088-.664a1.71 1.71 0 0 0-.255-.559 1.211 1.211 0 0 0-.422-.386 1.183 1.183 0 0 0-.588-.14 1.2 1.2 0 0 0-.59.14 1.266 1.266 0 0 0-.421.386 1.767 1.767 0 0 0-.25.559 2.54 2.54 0 0 0-.084.663Zm5.618-1.315V14h-.813V9.245h.769l.044 1.015Zm-.194 1.182-.338-.013c.003-.325.051-.625.145-.9a2.26 2.26 0 0 1 .396-.726 1.762 1.762 0 0 1 1.393-.646c.234 0 .445.032.633.097.187.061.347.161.479.299.134.137.237.316.307.536.07.217.106.482.106.795V14h-.818v-3.124c0-.25-.036-.449-.11-.598a.675.675 0 0 0-.32-.33 1.152 1.152 0 0 0-.519-.105c-.202 0-.387.042-.554.127a1.325 1.325 0 0 0-.426.352c-.117.15-.21.32-.277.514a1.88 1.88 0 0 0-.096.606Zm8.464 2.066 1.323-4.263h.87l-1.907 5.489a3 3 0 0 1-.176.378c-.07.137-.161.268-.273.39a1.297 1.297 0 0 1-.404.3 1.216 1.216 0 0 1-.558.118 2.38 2.38 0 0 1-.457-.07l-.005-.66c.024.004.06.007.11.01a1.308 1.308 0 0 0 .58-.066.712.712 0 0 0 .326-.242 1.44 1.44 0 0 0 .233-.461l.338-.923Zm-.971-4.263 1.235 3.692.21.857-.584.298-1.749-4.847h.888Zm3.882 2.43v-.1c0-.344.05-.661.15-.954.099-.296.243-.553.43-.77.188-.22.415-.39.681-.51.267-.122.566-.184.897-.184.334 0 .634.062.9.185.27.12.499.29.686.51.19.216.336.473.435.769.1.293.15.61.15.953v.101c0 .343-.05.66-.15.954-.1.293-.244.55-.435.769a1.993 1.993 0 0 1-.681.51 2.14 2.14 0 0 1-.897.18 2.17 2.17 0 0 1-.9-.18 2.037 2.037 0 0 1-.686-.51 2.322 2.322 0 0 1-.43-.77c-.1-.292-.15-.61-.15-.953Zm.813-.1v.1c0 .238.028.462.084.673.055.208.139.392.25.553.114.162.256.289.426.383.17.09.368.136.594.136.222 0 .417-.046.584-.136.17-.094.31-.222.422-.383.111-.16.195-.345.25-.553.059-.211.088-.435.088-.673v-.1c0-.235-.03-.456-.088-.664a1.71 1.71 0 0 0-.255-.559 1.213 1.213 0 0 0-.421-.386 1.183 1.183 0 0 0-.59-.14 1.2 1.2 0 0 0-.588.14 1.264 1.264 0 0 0-.422.386 1.763 1.763 0 0 0-.25.559 2.54 2.54 0 0 0-.084.663Zm7.714 1.326V9.245h.818V14h-.778l-.04-1.099Zm.154-1.002.339-.008c0 .316-.034.609-.102.879a1.872 1.872 0 0 1-.316.694c-.146.196-.338.35-.576.461-.237.109-.526.163-.865.163a1.94 1.94 0 0 1-.638-.101 1.274 1.274 0 0 1-.492-.312 1.42 1.42 0 0 1-.32-.55 2.65 2.65 0 0 1-.11-.813V9.245h.813v3.076c0 .214.023.391.07.532.05.138.116.248.198.33a.74.74 0 0 0 .281.167c.105.032.214.048.325.048.346 0 .62-.066.822-.198a1.13 1.13 0 0 0 .435-.54 2.04 2.04 0 0 0 .136-.76Zm2.986-1.907V14h-.813V9.245h.791l.022.747Zm1.485-.773-.004.756a2.067 2.067 0 0 0-.396-.035c-.187 0-.353.029-.496.087a1.03 1.03 0 0 0-.365.246c-.1.106-.179.232-.237.378a1.78 1.78 0 0 0-.11.475l-.229.132c0-.287.028-.557.084-.809.058-.252.148-.474.268-.668.12-.196.272-.348.457-.457a1.283 1.283 0 0 1 .87-.145.597.597 0 0 1 .158.04ZM52.758 28.286l2.407-9.372h1.262l-.14 2.416L53.712 31H52.4l.357-2.714Zm-1.801-9.372 1.95 9.297.175 2.789h-1.395L48.89 18.914h2.067Zm8.201 9.272 1.926-9.272h2.075L60.362 31h-1.395l.191-2.814Zm-2.241-9.272 2.382 9.396.349 2.69h-1.312l-2.531-9.67-.133-2.416h1.245Zm11.28 12.252c-.663 0-1.264-.108-1.8-.324a3.977 3.977 0 0 1-1.362-.921 4.084 4.084 0 0 1-.855-1.386 4.855 4.855 0 0 1-.299-1.719v-.332c0-.702.103-1.339.308-1.909a4.33 4.33 0 0 1 .855-1.46c.365-.41.796-.723 1.294-.939a4.025 4.025 0 0 1 1.619-.323c.642 0 1.204.107 1.685.323.482.216.88.52 1.195.913.321.388.56.85.714 1.387.16.536.241 1.129.241 1.776v.855h-6.94V25.67h4.964v-.158a2.81 2.81 0 0 0-.215-1.013 1.721 1.721 0 0 0-.59-.763c-.265-.194-.62-.29-1.062-.29-.332 0-.628.071-.888.215-.255.139-.468.34-.64.606a3.19 3.19 0 0 0-.398.963c-.089.37-.133.788-.133 1.253v.332c0 .393.053.759.158 1.096.11.332.271.623.481.872.21.249.465.445.764.589.299.138.64.208 1.021.208.481 0 .91-.097 1.287-.291.376-.194.702-.468.98-.822l1.053 1.021a4.111 4.111 0 0 1-.755.814c-.31.254-.69.462-1.137.622-.443.16-.958.241-1.544.241Zm5.164-12.916h2v10.832L75.171 31h-1.81V18.25Zm7.86 8.176v.175c0 .664-.074 1.275-.223 1.834a4.228 4.228 0 0 1-.665 1.444 3.07 3.07 0 0 1-1.095.955c-.432.221-.933.332-1.503.332-.559 0-1.046-.105-1.46-.315a2.905 2.905 0 0 1-1.047-.897 4.97 4.97 0 0 1-.672-1.386 9.157 9.157 0 0 1-.365-1.777v-.556a8.988 8.988 0 0 1 .365-1.776c.172-.537.396-.999.672-1.386a2.896 2.896 0 0 1 1.038-.905c.415-.21.9-.316 1.453-.316.575 0 1.082.111 1.519.333.442.22.81.536 1.104.946.293.404.512.885.656 1.444a7.16 7.16 0 0 1 .224 1.851Zm-2 .175v-.175a6.17 6.17 0 0 0-.1-1.137 2.987 2.987 0 0 0-.331-.946 1.665 1.665 0 0 0-.615-.64c-.254-.16-.572-.24-.954-.24a2.1 2.1 0 0 0-.913.182 1.834 1.834 0 0 0-.64.499c-.171.21-.307.453-.406.73a4.081 4.081 0 0 0-.191.896v1.503c.05.415.155.797.315 1.146.166.343.399.62.698.83.298.204.683.307 1.153.307.371 0 .684-.075.938-.225.255-.149.457-.356.606-.622.155-.271.266-.587.332-.946.072-.36.108-.747.108-1.162Zm12.659-1.063H88.8l-.016-1.519h2.69c.453 0 .837-.066 1.153-.2.32-.137.564-.334.73-.588.166-.26.25-.573.25-.939 0-.404-.078-.733-.233-.987-.155-.255-.393-.44-.714-.556-.315-.117-.72-.175-1.212-.175h-2.017V31h-2.083V18.914h4.1a7.5 7.5 0 0 1 1.777.191c.525.127.97.326 1.336.598.37.265.65.603.838 1.012.194.41.29.897.29 1.461 0 .498-.118.955-.356 1.37-.238.41-.59.744-1.054 1.004-.465.26-1.043.415-1.735.465l-.664.523ZM91.789 31h-3.645l.938-1.652h2.707c.47 0 .863-.077 1.178-.232.316-.16.55-.38.706-.656.16-.282.24-.611.24-.988 0-.393-.069-.733-.207-1.02a1.43 1.43 0 0 0-.656-.673c-.299-.16-.689-.24-1.17-.24h-2.34l.016-1.52h3.046l.473.573c.664.022 1.21.169 1.635.44.432.27.753.622.963 1.054.21.432.316.896.316 1.395 0 .769-.169 1.413-.507 1.934-.332.52-.81.915-1.436 1.187-.625.265-1.378.398-2.257.398Zm8.11-7.271V31h-2.001v-8.981h1.91l.09 1.71Zm2.747-1.769-.017 1.86a3.89 3.89 0 0 0-.398-.05 5.234 5.234 0 0 0-.415-.017c-.343 0-.645.05-.905.15-.26.094-.479.232-.656.415a1.834 1.834 0 0 0-.398.647 2.9 2.9 0 0 0-.166.855l-.457.034c0-.565.056-1.088.166-1.57.111-.48.277-.904.498-1.27.227-.365.51-.65.847-.854a2.271 2.271 0 0 1 1.187-.308c.122 0 .252.012.39.034.144.022.252.047.324.074Zm.656 4.649v-.191c0-.648.094-1.248.282-1.801a4.28 4.28 0 0 1 .813-1.453c.36-.415.797-.736 1.312-.963.52-.232 1.107-.349 1.76-.349.658 0 1.245.117 1.76.35.52.226.96.547 1.319.962.36.41.634.894.822 1.453a5.56 5.56 0 0 1 .282 1.801v.19c0 .648-.094 1.249-.282 1.802a4.303 4.303 0 0 1-.822 1.453c-.359.41-.797.73-1.311.963-.515.227-1.099.34-1.752.34-.658 0-1.248-.113-1.768-.34a3.805 3.805 0 0 1-1.311-.963c-.36-.415-.634-.9-.822-1.453a5.566 5.566 0 0 1-.282-1.801Zm2-.191v.19c0 .405.042.787.125 1.146.083.36.213.675.39.947.177.27.404.484.681.639.276.155.606.232.987.232.371 0 .692-.077.963-.232.277-.155.504-.368.681-.64.177-.27.307-.586.39-.946.089-.36.133-.741.133-1.145v-.191a4.62 4.62 0 0 0-.133-1.129 2.912 2.912 0 0 0-.398-.955 1.903 1.903 0 0 0-.681-.647c-.271-.16-.595-.24-.971-.24-.377 0-.703.08-.98.24-.271.155-.495.37-.672.647a3.013 3.013 0 0 0-.39.955c-.083.354-.125.73-.125 1.129Zm10.468 2.59 2.075-6.99h1.278l-.349 2.092-2.091 6.89h-1.146l.233-1.992Zm-1.221-6.99 1.619 7.023.133 1.959h-1.279l-2.432-8.981h1.959Zm6.516 6.94 1.569-6.94h1.951L122.161 31h-1.278l.182-2.042Zm-1.726-6.94 2.05 6.907.257 2.075h-1.145l-2.117-6.898-.348-2.083h1.303Zm11.646 6.55a1 1 0 0 0-.15-.54c-.099-.166-.29-.315-.572-.448-.277-.133-.687-.254-1.229-.365-.476-.105-.913-.23-1.311-.374a4.16 4.16 0 0 1-1.013-.54 2.276 2.276 0 0 1-.656-.746 2.068 2.068 0 0 1-.232-.996c0-.366.08-.712.24-1.038a2.65 2.65 0 0 1 .689-.863 3.36 3.36 0 0 1 1.088-.59 4.55 4.55 0 0 1 1.444-.216c.753 0 1.398.128 1.934.382.543.25.958.59 1.245 1.021.288.427.432.908.432 1.445h-2c0-.238-.061-.46-.183-.664a1.27 1.27 0 0 0-.531-.507c-.238-.133-.537-.199-.897-.199-.343 0-.628.055-.855.166a1.174 1.174 0 0 0-.498.415 1.061 1.061 0 0 0-.075.971.964.964 0 0 0 .299.324c.139.094.327.183.565.266.243.083.548.163.913.24.686.144 1.275.33 1.768.557.498.22.88.509 1.145.863.266.348.399.791.399 1.328 0 .398-.086.764-.257 1.096-.166.326-.41.611-.731.855a3.671 3.671 0 0 1-1.154.556 5.186 5.186 0 0 1-1.494.199c-.813 0-1.502-.144-2.067-.432-.564-.293-.993-.667-1.286-1.12a2.652 2.652 0 0 1-.432-1.428h1.934c.022.37.125.667.307.888.188.216.421.374.697.473.283.094.573.142.872.142.36 0 .661-.048.905-.142.243-.1.429-.232.556-.398a.952.952 0 0 0 .191-.581Zm7.67 2.598c-.664 0-1.265-.108-1.801-.324a3.97 3.97 0 0 1-1.362-.921 4.078 4.078 0 0 1-.855-1.386 4.86 4.86 0 0 1-.299-1.719v-.332c0-.702.103-1.339.308-1.909a4.31 4.31 0 0 1 .854-1.46 3.68 3.68 0 0 1 1.295-.939 4.027 4.027 0 0 1 1.619-.323c.642 0 1.204.107 1.685.323.482.216.88.52 1.195.913.321.388.559.85.714 1.387.161.536.241 1.129.241 1.776v.855h-6.939V25.67h4.963v-.158a2.824 2.824 0 0 0-.215-1.013 1.725 1.725 0 0 0-.59-.763c-.265-.194-.62-.29-1.062-.29-.332 0-.628.071-.888.215a1.76 1.76 0 0 0-.64.606 3.202 3.202 0 0 0-.398.963c-.089.37-.133.788-.133 1.253v.332c0 .393.053.759.158 1.096.111.332.271.623.481.872.211.249.465.445.764.589a2.41 2.41 0 0 0 1.021.208c.481 0 .91-.097 1.287-.291a2.96 2.96 0 0 0 .979-.822l1.054 1.021a4.085 4.085 0 0 1-.755.814c-.31.254-.689.462-1.137.622-.443.16-.958.241-1.544.241Zm7.163-7.438V31h-2v-8.981h1.909l.091 1.71Zm2.748-1.768-.017 1.86a3.89 3.89 0 0 0-.398-.05 5.234 5.234 0 0 0-.415-.017c-.343 0-.645.05-.905.15-.26.094-.479.232-.656.415a1.833 1.833 0 0 0-.398.647 2.88 2.88 0 0 0-.166.855l-.457.034c0-.565.056-1.088.166-1.57.111-.48.277-.904.498-1.27.227-.365.509-.65.847-.854a2.271 2.271 0 0 1 1.187-.308c.122 0 .252.012.39.034.144.022.252.047.324.074Z" fill="#333"/><rect x=".5" y=".5" width="165" height="39" rx="3.5" stroke="#999"/><defs><clipPath id="a"><path fill="#fff" transform="translate(16.5 8)" d="M0 0h24v24H0z"/></clipPath></defs></svg>