<svg width="154" height="40" fill="none" xmlns="http://www.w3.org/2000/svg"><path d="M32 19.463H18.642V9.919L32 7.997v11.466Zm-14.3-9.415v9.409H8v-8.014l9.7-1.395Zm0 10.348H8v8.116l9.7 1.41v-9.526Zm.942 9.664v-9.664H32v11.606L18.642 30.06ZM40.721 6.558h2.044c2.188 0 3.282 1.062 3.282 3.186 0 2.17-1.094 3.256-3.282 3.256H40.72V6.558Zm.853 5.677h1.173c.935 0 1.572-.216 1.912-.65.34-.437.51-1.05.51-1.841 0-.77-.17-1.367-.51-1.789-.337-.422-.974-.633-1.912-.633h-1.173v4.913Zm7.7-4.003c.666 0 1.196.212 1.592.637.398.425.597 1.026.597 1.802 0 .773-.199 1.374-.597 1.802-.396.425-.926.637-1.591.637-.662 0-1.192-.212-1.59-.637-.396-.428-.594-1.029-.594-1.802 0-.776.198-1.377.593-1.802.399-.425.929-.637 1.59-.637Zm0 4.228c.396 0 .717-.15.963-.449.246-.301.37-.748.37-1.34 0-.595-.124-1.042-.37-1.34a1.183 1.183 0 0 0-.962-.453c-.396 0-.716.15-.962.453-.247.298-.37.745-.37 1.34 0 .592.123 1.039.37 1.34.246.3.566.449.962.449Zm9.231-4.123L57.103 13h-.79l-1.011-3.428L54.295 13h-.79l-1.407-4.663h.919l.856 3.556 1.05-3.556h.757l1.054 3.556.857-3.556h.914Zm1.764.594c.414-.466.878-.7 1.394-.7 1.051 0 1.577.574 1.577 1.72V13h-.83V9.985c0-.38-.07-.654-.207-.821-.135-.167-.357-.25-.668-.25-.422 0-.844.248-1.265.746V13h-.831V8.337h.83v.594ZM65.55 13h-.83V6.558h.83V13Zm3.386-4.768c.665 0 1.195.212 1.59.637.4.425.598 1.026.598 1.802 0 .773-.199 1.374-.597 1.802-.396.425-.926.637-1.591.637-.662 0-1.192-.212-1.59-.637-.396-.428-.594-1.029-.594-1.802 0-.776.198-1.377.593-1.802.399-.425.929-.637 1.591-.637Zm0 4.228c.395 0 .716-.15.962-.449.246-.301.37-.748.37-1.34 0-.595-.123-1.042-.37-1.34a1.183 1.183 0 0 0-.962-.453c-.395 0-.716.15-.962.453-.246.298-.37.745-.37 1.34 0 .592.124 1.039.37 1.34.246.3.567.449.962.449Zm6.343-.686V10.74h-.567c-1.2 0-1.801.327-1.801.98 0 .238.087.42.263.55.176.125.413.188.712.188a1.8 1.8 0 0 0 .791-.184c.255-.123.456-.29.602-.501Zm0 .747c-.422.393-.965.589-1.63.589-.463 0-.844-.125-1.143-.374a1.212 1.212 0 0 1-.448-.97c0-1.09.939-1.636 2.817-1.636h.404c0-.334-.017-.575-.053-.725a.604.604 0 0 0-.294-.378c-.161-.1-.417-.15-.769-.15-.738 0-1.12.265-1.143.792h-.826c.062-.958.733-1.437 2.013-1.437.598 0 1.063.119 1.397.356.334.237.501.703.501 1.397V13h-.826v-.479Zm5.28-.861V9.445c-.358-.378-.766-.567-1.226-.567-.355 0-.639.154-.853.461-.21.305-.316.76-.316 1.367 0 .574.1 1.01.299 1.31.202.296.48.444.835.444.463 0 .883-.267 1.261-.8Zm0 .782c-.37.445-.813.668-1.332.668-.609 0-1.08-.217-1.415-.65-.334-.434-.5-1.019-.5-1.754 0-.762.185-1.364.557-1.806.376-.445.846-.668 1.411-.668.504 0 .93.155 1.279.466v-2.14h.826V13h-.826v-.558Zm5.958-3.454V13h-.826V8.988h-.685v-.65h.685v-.414c0-.984.435-1.476 1.305-1.476.267 0 .474.017.62.052v.721a2.845 2.845 0 0 0-.5-.044c-.203 0-.354.057-.454.172-.096.111-.145.306-.145.584v.404h.884v.65h-.884Zm3.694-.756c.665 0 1.195.212 1.59.637.399.425.598 1.026.598 1.802 0 .773-.199 1.374-.597 1.802-.396.425-.926.637-1.591.637-.662 0-1.193-.212-1.591-.637-.396-.428-.593-1.029-.593-1.802 0-.776.197-1.377.593-1.802.398-.425.929-.637 1.59-.637Zm0 4.228c.395 0 .716-.15.962-.449.246-.301.37-.748.37-1.34 0-.595-.124-1.042-.37-1.34a1.183 1.183 0 0 0-.962-.453c-.396 0-.716.15-.963.453-.246.298-.369.745-.369 1.34 0 .592.123 1.039.37 1.34.245.3.566.449.962.449Zm5.811-3.367a1.857 1.857 0 0 0-.505-.052c-.422 0-.784.22-1.086.663V13h-.83V8.337h.83v.65c.35-.503.753-.755 1.213-.755.117 0 .243.012.378.035v.826ZM55.88 18.831 52.51 31h-1.544l-2.922-10.575L45.114 31H43.57l-3.362-12.169h1.693l2.432 9.911 2.74-9.91h1.934l2.74 9.91 2.431-9.91h1.702ZM58.777 31h-1.569v-8.807h1.569V31Zm0-10.476h-1.569v-1.693h1.569v1.693Zm3.885 2.79c.78-.88 1.657-1.32 2.631-1.32 1.987 0 2.98 1.082 2.98 3.245V31h-1.569v-5.694c0-.72-.13-1.237-.39-1.553-.255-.315-.675-.473-1.262-.473-.797 0-1.594.47-2.39 1.411V31h-1.57v-8.807h1.57v1.12Zm13.472 5.154v-4.183c-.675-.714-1.447-1.071-2.316-1.071-.67 0-1.206.29-1.61.871-.399.576-.598 1.436-.598 2.582 0 1.085.188 1.91.564 2.474.382.559.908.838 1.577.838.875 0 1.669-.504 2.383-1.51Zm0 1.478c-.698.84-1.536 1.261-2.515 1.261-1.151 0-2.042-.409-2.673-1.228-.631-.819-.947-1.923-.947-3.312 0-1.439.352-2.576 1.055-3.412.708-.84 1.596-1.261 2.664-1.261.952 0 1.757.293 2.416.88V18.83h1.56V31h-1.56v-1.054Zm7.454-7.952c1.256 0 2.258.4 3.005 1.203.752.803 1.129 1.937 1.129 3.404 0 1.46-.377 2.595-1.13 3.403-.746.802-1.748 1.203-3.004 1.203-1.25 0-2.252-.4-3.005-1.203-.747-.808-1.12-1.943-1.12-3.403 0-1.467.373-2.601 1.12-3.404.753-.802 1.754-1.203 3.005-1.203Zm0 7.985c.747 0 1.353-.282 1.818-.847.465-.57.697-1.414.697-2.531 0-1.124-.232-1.968-.697-2.532-.465-.57-1.071-.855-1.818-.855-.747 0-1.353.285-1.818.855-.465.564-.697 1.408-.697 2.532 0 1.117.232 1.961.697 2.531.465.565 1.07.847 1.818.847Zm16.925-7.786L97.865 31h-1.494l-1.91-6.475-1.9 6.475h-1.494l-2.656-8.807h1.734l1.62 6.715 1.983-6.715h1.428l1.992 6.715 1.619-6.715h1.726Zm4.4 9.014c-2.408 0-3.667-.946-3.777-2.838h1.569c.011 1.073.741 1.61 2.191 1.61.647 0 1.14-.133 1.478-.398.343-.272.514-.61.514-1.013 0-.399-.166-.678-.498-.838-.332-.166-1.018-.38-2.058-.64-1.035-.26-1.793-.55-2.275-.871-.476-.321-.714-.886-.714-1.694 0-.73.296-1.333.888-1.81.598-.48 1.395-.721 2.391-.721 2.308 0 3.486.821 3.536 2.465h-1.56c-.056-.83-.678-1.245-1.868-1.245-.526 0-.963.1-1.312.299-.343.199-.514.49-.514.871 0 .343.133.592.398.747.266.15.93.354 1.992.615 1.068.254 1.86.553 2.374.896.521.343.781.935.781 1.777 0 .802-.321 1.469-.963 2-.637.526-1.494.788-2.573.788ZM116.841 31h-1.702v-1.702h1.702V31Zm6.416.207c-1.295 0-2.335-.404-3.121-1.211-.786-.814-1.178-1.945-1.178-3.395 0-1.44.379-2.565 1.137-3.379.763-.819 1.759-1.228 2.988-1.228 1.256 0 2.258.4 3.005 1.203.752.803 1.129 1.937 1.129 3.404v.373h-6.633c.067 1.018.346 1.774.839 2.266.498.493 1.109.739 1.834.739.548 0 1.041-.138 1.478-.415.443-.282.675-.68.697-1.195h1.619c-.122.907-.534 1.607-1.237 2.1-.697.492-1.55.738-2.557.738Zm2.308-5.461c-.127-.847-.412-1.48-.855-1.901-.443-.42-.985-.631-1.627-.631a2.27 2.27 0 0 0-1.61.63c-.449.416-.734 1.05-.855 1.902h4.947ZM136.207 31h-1.943l-2.191-3.436L129.881 31h-1.942l3.254-4.574-2.997-4.233h1.943l1.934 3.08 1.934-3.08h1.942l-2.996 4.217 3.254 4.59Zm5.013.207c-1.295 0-2.335-.404-3.121-1.211-.786-.814-1.179-1.945-1.179-3.395 0-1.44.379-2.565 1.138-3.379.763-.819 1.759-1.228 2.988-1.228 1.256 0 2.258.4 3.005 1.203.752.803 1.129 1.937 1.129 3.404v.373h-6.633c.067 1.018.346 1.774.839 2.266.498.493 1.109.739 1.834.739.548 0 1.041-.138 1.478-.415.442-.282.675-.68.697-1.195h1.619c-.122.907-.534 1.607-1.237 2.1-.697.492-1.55.738-2.557.738Zm2.308-5.461c-.127-.847-.412-1.48-.855-1.901-.443-.42-.985-.631-1.627-.631a2.27 2.27 0 0 0-1.61.63c-.449.416-.734 1.05-.855 1.902h4.947Z" fill="#333"/><rect x=".5" y=".5" width="153" height="39" rx="3.5" stroke="#999"/></svg>