<svg width="64" height="64" fill="none" xmlns="http://www.w3.org/2000/svg"><g clip-path="url(#a)"><path d="M12 0C5.373 0 0 5.373 0 12v.348l59.828-9.443A11.953 11.953 0 0 0 52 0H12Zm49.063 4.135L50.088 64h1.911c6.628 0 12-5.372 12-12V12c0-3.008-1.107-5.757-2.936-7.864Z" fill="#0A559E"/><path fill-rule="evenodd" clip-rule="evenodd" d="M50.088 64H12C5.373 64 0 58.627 0 52V12.35l59.828-9.444c.44.38.854.791 1.235 1.23L50.088 64Z" fill="#0364B9"/><path d="M14.684 23.504c.288.528.616 1.184.984 1.968.384.768.776 1.608 1.176 2.52.416.896.824 1.816 1.224 2.76l1.128 2.664 1.128-2.664c.4-.944.8-1.864 1.2-2.76.416-.912.808-1.752 1.176-2.52.384-.784.72-1.44 1.008-1.968h3.408c.16 1.104.304 2.344.432 3.72.144 1.36.264 2.784.36 4.272.112 1.472.208 2.952.288 4.44.096 1.488.176 2.888.24 4.2h-3.648a431.808 431.808 0 0 0-.192-5.28c-.08-1.904-.2-3.824-.36-5.76l-.96 2.232-1.056 2.448c-.336.816-.664 1.6-.984 2.352-.32.736-.592 1.368-.816 1.896h-2.616c-.224-.528-.496-1.16-.816-1.896a519.23 519.23 0 0 0-1.008-2.352 159.57 159.57 0 0 0-1.032-2.448l-.96-2.232c-.16 1.936-.28 3.856-.36 5.76-.08 1.904-.144 3.664-.192 5.28H9.788c.064-1.312.136-2.712.216-4.2l.288-4.44c.112-1.488.232-2.912.36-4.272.144-1.376.296-2.616.456-3.72h3.576Zm28.025 0v3.192h-5.016v13.44h-3.744v-13.44h-5.016v-3.192h13.776Zm7.926 11.736a2.36 2.36 0 0 0-.312-1.224c-.208-.368-.568-.672-1.08-.912-.512-.24-1.2-.424-2.064-.552-.864-.128-1.952-.192-3.264-.192.176-1.488.32-3 .432-4.536.112-1.536.2-2.976.264-4.32h9v3h-6a51.838 51.838 0 0 1-.12 1.68c-.032.528-.072.992-.12 1.392 2.336.16 4.056.712 5.16 1.656 1.12.928 1.68 2.224 1.68 3.888 0 .768-.136 1.48-.408 2.136a4.595 4.595 0 0 1-1.224 1.704c-.544.48-1.232.856-2.064 1.128-.816.272-1.776.408-2.88.408-.432 0-.888-.032-1.368-.096a12.82 12.82 0 0 1-1.368-.216c-.432-.08-.824-.168-1.176-.264a4.617 4.617 0 0 1-.816-.288l.648-2.952c.4.176.928.352 1.584.528.656.16 1.44.24 2.352.24 1.104 0 1.904-.216 2.4-.648.496-.448.744-.968.744-1.56Z" fill="#fff"/></g><defs><clipPath id="a"><path fill="#fff" d="M0 0h64v64H0z"/></clipPath></defs></svg>