<svg width="151" height="40" fill="none" xmlns="http://www.w3.org/2000/svg"><rect width="151" height="40" rx="4" fill="#0E0E0E"/><path d="M20.156 14.916c.942 0 2.734-1.301 4.582-1.107a5.574 5.574 0 0 1 4.393 2.378 5.456 5.456 0 0 0-2.594 4.576 5.27 5.27 0 0 0 3.213 4.849 12.09 12.09 0 0 1-1.671 3.408l-.067.1-.136.2c-.925 1.364-1.925 2.617-3.452 2.642-1.592.037-2.127-.938-3.953-.938-1.842 0-2.413.911-3.94.974-1.56.058-2.752-1.573-3.772-3.034-2.039-2.983-3.627-8.407-1.498-12.097a5.85 5.85 0 0 1 4.923-3.007c1.562-.032 3.012 1.056 3.972 1.056ZM24.757 8a5.375 5.375 0 0 1-1.227 3.847 4.51 4.51 0 0 1-3.562 1.687 5.114 5.114 0 0 1 1.259-3.705A5.454 5.454 0 0 1 24.757 8Zm16.8 5.28V8.294h1.44c.396 0 .729.057.999.171.27.108.489.27.657.486.174.21.297.468.369.774.078.3.117.642.117 1.026 0 .396-.042.735-.126 1.017a2.39 2.39 0 0 1-.306.693c-.126.186-.27.333-.432.441a2.151 2.151 0 0 1-.477.252c-.162.054-.315.09-.459.108a4.473 4.473 0 0 1-.36.018h-1.422Zm-.855-5.706V14h2.205c.534 0 .996-.075 1.386-.225.39-.15.711-.366.963-.648.252-.288.438-.639.558-1.053.12-.42.18-.9.18-1.44 0-1.032-.267-1.8-.801-2.304-.534-.504-1.296-.756-2.286-.756h-2.205Zm7.039 4.104c0-.282.036-.531.108-.747.078-.222.183-.408.315-.558a1.334 1.334 0 0 1 1.026-.459c.198 0 .384.039.558.117.18.078.336.192.468.342.132.15.234.336.306.558.078.216.117.465.117.747s-.04.534-.117.756a1.572 1.572 0 0 1-.306.549 1.363 1.363 0 0 1-.468.333 1.411 1.411 0 0 1-1.125 0 1.387 1.387 0 0 1-.46-.333 1.689 1.689 0 0 1-.314-.549 2.447 2.447 0 0 1-.108-.756Zm-.81 0c0 .342.048.66.144.954.096.294.24.552.432.774.192.216.429.387.71.513.283.12.607.18.973.18.372 0 .696-.06.972-.18.282-.126.519-.297.71-.513a2.21 2.21 0 0 0 .433-.774c.096-.294.144-.612.144-.954 0-.342-.048-.66-.144-.954-.096-.3-.24-.558-.432-.774a2.01 2.01 0 0 0-.711-.522 2.322 2.322 0 0 0-.972-.189c-.366 0-.69.063-.972.189a2.01 2.01 0 0 0-.711.522 2.121 2.121 0 0 0-.432.774 3.057 3.057 0 0 0-.144.954ZM57.229 14l1.485-4.653h-.792l-1.044 3.807h-.018l-.972-3.807h-.837l-.936 3.807h-.018l-1.053-3.807h-.846L53.692 14h.828l.936-3.699h.018L56.419 14h.81Zm2.482-4.653V14h.765v-2.628c0-.21.027-.402.081-.576.06-.18.147-.336.261-.468.114-.132.255-.234.423-.306.174-.072.378-.108.612-.108.294 0 .525.084.693.252.168.168.252.396.252.684V14h.765v-3.06c0-.252-.027-.48-.08-.684a1.262 1.262 0 0 0-.262-.54 1.258 1.258 0 0 0-.495-.351 2.02 2.02 0 0 0-.765-.126c-.69 0-1.194.282-1.512.846h-.018v-.738h-.72Zm5.316-1.773V14h.765V7.574h-.765Zm2.778 4.104c0-.282.036-.531.108-.747.078-.222.183-.408.315-.558a1.334 1.334 0 0 1 1.026-.459c.198 0 .384.039.558.117.18.078.336.192.468.342.132.15.234.336.306.558.078.216.117.465.117.747s-.039.534-.117.756a1.572 1.572 0 0 1-.306.549 1.363 1.363 0 0 1-.468.333 1.411 1.411 0 0 1-1.125 0 1.387 1.387 0 0 1-.459-.333 1.689 1.689 0 0 1-.315-.549 2.447 2.447 0 0 1-.108-.756Zm-.81 0c0 .342.048.66.144.954.096.294.24.552.432.774.192.216.43.387.711.513.282.12.606.18.972.18.372 0 .696-.06.972-.18.282-.126.52-.297.711-.513.192-.222.336-.48.432-.774.096-.294.144-.612.144-.954 0-.342-.048-.66-.144-.954-.096-.3-.24-.558-.432-.774a2.01 2.01 0 0 0-.71-.522 2.322 2.322 0 0 0-.973-.189c-.366 0-.69.063-.972.189a2.01 2.01 0 0 0-.71.522 2.121 2.121 0 0 0-.433.774 3.057 3.057 0 0 0-.144.954Zm9.812 2.304c-.132.078-.315.117-.549.117a.686.686 0 0 1-.477-.162c-.114-.114-.17-.297-.17-.549-.21.252-.457.435-.739.549a2.448 2.448 0 0 1-.9.162c-.21 0-.41-.024-.603-.072a1.394 1.394 0 0 1-.486-.225 1.13 1.13 0 0 1-.333-.396 1.422 1.422 0 0 1-.117-.603c0-.264.045-.48.135-.648.09-.168.207-.303.351-.405.15-.108.318-.189.504-.243.192-.054.387-.099.585-.135.21-.042.408-.072.594-.09a4.3 4.3 0 0 0 .504-.09.913.913 0 0 0 .342-.171c.084-.078.126-.189.126-.333a.736.736 0 0 0-.099-.405.607.607 0 0 0-.243-.234.946.946 0 0 0-.333-.108 2.424 2.424 0 0 0-.36-.027c-.324 0-.594.063-.81.189-.216.12-.333.351-.35.693h-.766c.012-.288.072-.531.18-.729.108-.198.252-.357.432-.477.18-.126.384-.216.612-.27.234-.054.483-.081.747-.081.21 0 .417.015.621.045.21.03.4.093.567.189.168.09.303.219.405.387.102.168.153.387.153.657v2.394c0 .18.01.312.027.396.024.084.096.126.216.126a.758.758 0 0 0 .234-.045v.594Zm-1.242-2.385a1 1 0 0 1-.378.162c-.156.03-.32.057-.495.081a8.096 8.096 0 0 0-.513.072 1.78 1.78 0 0 0-.468.126.87.87 0 0 0-.342.261c-.084.108-.126.258-.126.45a.68.68 0 0 0 .072.324c.054.084.12.153.198.207.084.054.18.093.288.117.108.024.222.036.342.036.252 0 .468-.033.648-.099.18-.072.327-.159.441-.261.114-.108.198-.222.252-.342a.896.896 0 0 0 .081-.351v-.783Zm2.782.117c0-.228.024-.45.072-.666.048-.216.126-.408.234-.576.108-.168.252-.303.432-.405.18-.102.4-.153.657-.153.264 0 .49.051.675.153.186.096.336.225.45.387.12.162.207.351.261.567a2.628 2.628 0 0 1 0 1.296c-.048.21-.129.399-.243.567a1.336 1.336 0 0 1-.44.396c-.18.102-.4.153-.658.153-.246 0-.462-.048-.648-.144a1.334 1.334 0 0 1-.45-.387 1.856 1.856 0 0 1-.26-.549 2.556 2.556 0 0 1-.082-.639Zm3.6 2.286V7.574h-.765v2.394h-.018a1.148 1.148 0 0 0-.315-.342 1.481 1.481 0 0 0-.387-.225 1.818 1.818 0 0 0-.414-.126 2.266 2.266 0 0 0-.387-.036c-.354 0-.666.066-.936.198-.264.126-.486.3-.666.522a2.258 2.258 0 0 0-.396.765 3.392 3.392 0 0 0-.126.936c0 .33.045.642.135.936.09.294.222.552.396.774.18.222.402.399.666.531.27.132.585.198.945.198.324 0 .621-.057.891-.171.27-.114.468-.3.594-.558h.018V14h.765Zm4.537-3.978V14h.765v-3.978h.9v-.675h-.9v-.648c0-.204.051-.342.153-.414.102-.072.246-.108.432-.108.066 0 .138.006.216.018.078.006.15.021.216.045v-.666a1.856 1.856 0 0 0-.495-.072c-.42 0-.74.099-.963.297-.216.192-.324.477-.324.855v.693h-.783v.675h.783Zm3.176 1.656c0-.282.036-.531.108-.747.078-.222.183-.408.315-.558a1.334 1.334 0 0 1 1.026-.459c.198 0 .384.039.558.117.18.078.336.192.468.342.132.15.234.336.306.558.078.216.117.465.117.747s-.039.534-.117.756a1.572 1.572 0 0 1-.306.549 1.363 1.363 0 0 1-.468.333 1.411 1.411 0 0 1-1.125 0 1.387 1.387 0 0 1-.459-.333 1.689 1.689 0 0 1-.315-.549 2.447 2.447 0 0 1-.108-.756Zm-.81 0c0 .342.048.66.144.954.096.294.24.552.432.774.192.216.43.387.711.513.282.12.606.18.972.18.372 0 .696-.06.972-.18.282-.126.52-.297.711-.513.192-.222.336-.48.432-.774.096-.294.144-.612.144-.954 0-.342-.048-.66-.144-.954-.096-.3-.24-.558-.432-.774a2.01 2.01 0 0 0-.71-.522 2.322 2.322 0 0 0-.973-.189c-.366 0-.69.063-.972.189a2.01 2.01 0 0 0-.71.522 2.121 2.121 0 0 0-.433.774 3.057 3.057 0 0 0-.144.954Zm5.663-2.331V14h.765v-2.07c0-.3.03-.564.09-.792.06-.234.156-.432.288-.594.132-.162.306-.285.522-.369.216-.084.477-.126.783-.126v-.81c-.414-.012-.756.072-1.026.252s-.498.459-.684.837h-.018v-.981h-.72ZM41.02 22.211h1.836v1.224h.051c.147-.215.306-.414.476-.595.17-.181.357-.334.561-.459a2.81 2.81 0 0 1 .731-.289c.272-.08.584-.119.935-.119.533 0 1.026.119 1.479.357.465.238.793.606.986 1.105.329-.453.708-.81 1.139-1.071.43-.26.969-.391 1.615-.391.93 0 1.649.227 2.159.68.521.453.782 1.213.782 2.278V31h-1.938v-5.134c0-.351-.011-.669-.034-.952a1.815 1.815 0 0 0-.204-.748 1.056 1.056 0 0 0-.476-.493c-.215-.113-.51-.17-.884-.17-.657 0-1.133.204-1.428.612-.295.408-.442.986-.442 1.734V31h-1.938v-5.644c0-.612-.113-1.071-.34-1.377-.215-.317-.618-.476-1.207-.476-.25 0-.493.051-.731.153-.227.102-.43.25-.612.442-.17.193-.312.43-.425.714a2.85 2.85 0 0 0-.153.969V31H41.02v-8.789Zm22.153 6.834c0 .238.028.408.085.51.068.102.193.153.374.153h.204c.08 0 .17-.011.272-.034v1.343a2.354 2.354 0 0 1-.272.068c-.102.034-.21.062-.323.085a3.497 3.497 0 0 1-.629.068c-.397 0-.725-.08-.986-.238-.26-.159-.43-.436-.51-.833a3.423 3.423 0 0 1-1.428.816 5.506 5.506 0 0 1-1.615.255c-.397 0-.776-.057-1.139-.17a3.06 3.06 0 0 1-.969-.459 2.528 2.528 0 0 1-.663-.799 2.59 2.59 0 0 1-.238-1.139c0-.544.096-.986.289-1.326.204-.34.465-.606.782-.799a3.484 3.484 0 0 1 1.088-.408c.408-.09.816-.159 1.224-.204a8.47 8.47 0 0 1 1.003-.136 5 5 0 0 0 .833-.153c.25-.068.442-.17.578-.306.147-.147.221-.363.221-.646 0-.25-.062-.453-.187-.612a1.05 1.05 0 0 0-.442-.357 1.564 1.564 0 0 0-.578-.17 3.93 3.93 0 0 0-.612-.051c-.544 0-.992.113-1.343.34-.351.227-.55.578-.595 1.054h-1.938c.034-.567.17-1.037.408-1.411a2.85 2.85 0 0 1 .901-.901 3.814 3.814 0 0 1 1.258-.476 7.49 7.49 0 0 1 1.428-.136c.43 0 .856.045 1.275.136a3.5 3.5 0 0 1 1.122.442c.34.204.612.47.816.799.204.317.306.708.306 1.173v4.522Zm-1.938-2.448c-.295.193-.657.312-1.088.357-.43.034-.861.09-1.292.17a3.527 3.527 0 0 0-.595.153 1.54 1.54 0 0 0-.51.255 1.105 1.105 0 0 0-.357.425c-.08.17-.119.38-.119.629 0 .215.062.397.187.544.125.147.272.266.442.357a2.4 2.4 0 0 0 .578.17c.215.034.408.051.578.051.215 0 .448-.028.697-.085.25-.057.482-.153.697-.289a1.86 1.86 0 0 0 .561-.51c.147-.215.221-.476.221-.782v-1.445Zm9.956-1.445c-.08-.544-.3-.952-.663-1.224-.351-.283-.799-.425-1.343-.425-.25 0-.515.045-.799.136-.283.08-.544.238-.782.476-.238.227-.436.55-.595.969-.158.408-.238.946-.238 1.615 0 .363.04.725.12 1.088.09.363.226.686.407.969.193.283.437.516.731.697.295.17.652.255 1.071.255.567 0 1.032-.176 1.394-.527.374-.351.607-.844.697-1.479h1.938c-.181 1.145-.617 2.023-1.309 2.635-.68.6-1.586.901-2.72.901-.691 0-1.303-.113-1.836-.34a4.05 4.05 0 0 1-1.326-.952 4.237 4.237 0 0 1-.833-1.445 5.771 5.771 0 0 1-.272-1.802c0-.657.09-1.275.272-1.853a4.157 4.157 0 0 1 .816-1.496c.363-.43.81-.765 1.343-1.003.544-.25 1.179-.374 1.904-.374.51 0 .992.068 1.445.204.465.125.873.317 1.224.578.363.26.658.59.884.986.227.397.363.867.408 1.411h-1.938Zm8.954-4.845c-.646 0-1.207.13-1.683.391-.465.26-.845.612-1.14 1.054-.294.43-.515.924-.662 1.479a7.12 7.12 0 0 0-.204 1.7c0 .578.068 1.145.204 1.7a4.96 4.96 0 0 0 .663 1.496c.294.43.674.776 1.139 1.037.476.26 1.037.391 1.683.391.646 0 1.2-.13 1.666-.391.476-.26.86-.606 1.156-1.037.294-.442.51-.94.646-1.496a6.603 6.603 0 0 0 .22-1.7c0-.578-.073-1.145-.22-1.7a4.482 4.482 0 0 0-.646-1.479 3.233 3.233 0 0 0-1.156-1.054c-.465-.26-1.02-.391-1.666-.391Zm0-1.734c.906 0 1.717.17 2.43.51a5.44 5.44 0 0 1 1.837 1.377 6.007 6.007 0 0 1 1.139 2.023 7.3 7.3 0 0 1 .408 2.448c0 .873-.136 1.694-.408 2.465a5.997 5.997 0 0 1-1.14 2.023 5.44 5.44 0 0 1-1.835 1.377c-.714.329-1.525.493-2.431.493-.907 0-1.723-.164-2.448-.493a5.485 5.485 0 0 1-1.82-1.377 6.241 6.241 0 0 1-1.155-2.023 7.642 7.642 0 0 1-.391-2.465c0-.861.13-1.677.39-2.448a6.241 6.241 0 0 1 1.157-2.023 5.485 5.485 0 0 1 1.819-1.377c.725-.34 1.54-.51 2.448-.51Zm9.142 8.381c0 .465.079.861.238 1.19.158.329.38.6.663.816.283.204.606.357.969.459.374.09.776.136 1.207.136.464 0 .86-.051 1.19-.153.328-.113.595-.255.799-.425.204-.17.35-.363.442-.578.09-.227.136-.453.136-.68 0-.465-.108-.805-.323-1.02a1.695 1.695 0 0 0-.68-.476 13.042 13.042 0 0 0-1.513-.442c-.567-.147-1.27-.334-2.108-.561-.522-.136-.958-.312-1.31-.527a3.276 3.276 0 0 1-.815-.748 2.734 2.734 0 0 1-.442-.867 3.712 3.712 0 0 1-.12-.935c0-.612.125-1.139.375-1.581.26-.453.6-.827 1.02-1.122.419-.295.895-.51 1.428-.646a6.033 6.033 0 0 1 1.615-.221c.634 0 1.23.085 1.785.255.566.159 1.06.402 1.479.731.43.329.77.737 1.02 1.224.249.476.374 1.031.374 1.666H94.59c-.057-.782-.323-1.332-.8-1.649-.475-.329-1.082-.493-1.818-.493-.25 0-.505.028-.765.085-.261.045-.5.13-.714.255a1.562 1.562 0 0 0-.544.476c-.136.204-.204.459-.204.765 0 .43.13.77.39 1.02.273.238.624.42 1.055.544.045.011.22.062.527.153a78.99 78.99 0 0 1 2.176.578c.374.09.64.159.799.204.396.125.742.295 1.037.51.294.215.538.465.73.748a2.7 2.7 0 0 1 .443.884c.102.317.153.635.153.952 0 .68-.142 1.264-.425 1.751a3.48 3.48 0 0 1-1.088 1.173 4.634 4.634 0 0 1-1.547.663 7.131 7.131 0 0 1-1.768.221 7.276 7.276 0 0 1-1.955-.255 4.576 4.576 0 0 1-1.598-.782 3.847 3.847 0 0 1-1.088-1.343c-.272-.555-.414-1.207-.425-1.955h2.125Zm14.241 1.751h2.363V31h-2.363v-2.295ZM116.386 31h-1.836v-1.19h-.034c-.261.51-.64.878-1.139 1.105a3.949 3.949 0 0 1-1.581.323c-.691 0-1.298-.119-1.819-.357a3.719 3.719 0 0 1-1.275-1.003 4.264 4.264 0 0 1-.765-1.479 6.537 6.537 0 0 1-.255-1.853c0-.793.108-1.479.323-2.057.215-.578.499-1.054.85-1.428a3.324 3.324 0 0 1 1.224-.816 3.855 3.855 0 0 1 1.411-.272c.272 0 .55.028.833.085.283.045.555.125.816.238.261.113.499.26.714.442.227.17.414.374.561.612h.034v-4.488h1.938V31Zm-6.766-4.301c0 .374.045.742.136 1.105.102.363.249.686.442.969.204.283.459.51.765.68.306.17.669.255 1.088.255.431 0 .799-.09 1.105-.272a2.21 2.21 0 0 0 .765-.714c.204-.295.351-.623.442-.986a4.31 4.31 0 0 0 .153-1.139c0-.975-.221-1.734-.663-2.278-.431-.544-1.02-.816-1.768-.816-.453 0-.839.096-1.156.289a2.353 2.353 0 0 0-.765.731 3.176 3.176 0 0 0-.425 1.02c-.079.374-.119.76-.119 1.156Zm8.879-4.488h1.836v1.224h.051c.148-.215.306-.414.476-.595.17-.181.357-.334.561-.459a2.82 2.82 0 0 1 .731-.289c.272-.08.584-.119.935-.119.533 0 1.026.119 1.479.357.465.238.794.606.986 1.105.329-.453.709-.81 1.139-1.071.431-.26.969-.391 1.615-.391.93 0 1.649.227 2.159.68.522.453.782 1.213.782 2.278V31h-1.938v-5.134c0-.351-.011-.669-.034-.952a1.794 1.794 0 0 0-.204-.748 1.053 1.053 0 0 0-.476-.493c-.215-.113-.51-.17-.884-.17-.657 0-1.133.204-1.428.612-.294.408-.442.986-.442 1.734V31h-1.938v-5.644c0-.612-.113-1.071-.34-1.377-.215-.317-.617-.476-1.207-.476a1.84 1.84 0 0 0-.731.153c-.226.102-.43.25-.612.442a2.45 2.45 0 0 0-.425.714 2.85 2.85 0 0 0-.153.969V31h-1.938v-8.789Zm22.918 8.33c0 1.326-.374 2.312-1.122 2.958-.736.657-1.802.986-3.196.986-.442 0-.889-.045-1.343-.136a4.079 4.079 0 0 1-1.224-.459 3 3 0 0 1-.918-.85c-.249-.351-.396-.782-.442-1.292h1.938c.057.272.153.493.289.663.136.17.295.3.476.391.193.102.403.164.629.187.227.034.465.051.714.051.782 0 1.355-.193 1.717-.578.363-.385.544-.94.544-1.666v-1.343h-.034a2.93 2.93 0 0 1-1.122 1.139 2.94 2.94 0 0 1-1.513.408c-.702 0-1.303-.119-1.802-.357a3.647 3.647 0 0 1-1.224-1.003 4.363 4.363 0 0 1-.697-1.479 6.953 6.953 0 0 1-.221-1.785c0-.59.091-1.15.272-1.683.182-.533.442-.997.782-1.394.34-.408.754-.731 1.241-.969a3.86 3.86 0 0 1 1.683-.357c.556 0 1.066.119 1.53.357.465.227.822.59 1.071 1.088h.034v-1.207h1.938v8.33Zm-4.301-1.071c.431 0 .794-.085 1.088-.255.306-.181.55-.414.731-.697.193-.295.329-.623.408-.986a4.73 4.73 0 0 0 .136-1.122 4.32 4.32 0 0 0-.136-1.088 2.8 2.8 0 0 0-.425-.935 1.923 1.923 0 0 0-.731-.646c-.294-.159-.651-.238-1.071-.238-.43 0-.793.09-1.088.272-.294.181-.532.42-.714.714a2.966 2.966 0 0 0-.391.986 5.1 5.1 0 0 0-.119 1.088c0 .363.046.72.136 1.071.091.34.227.646.408.918.193.272.431.493.714.663.295.17.646.255 1.054.255Z" fill="#fff"/></svg>