<svg width="72" height="73" fill="none" xmlns="http://www.w3.org/2000/svg"><g clip-path="url(#a)"><path d="M13.5.59C6.044.59 0 6.636 0 14.09v.393L67.308 3.86A13.447 13.447 0 0 0 58.5.591h-45Zm55.197 4.653L56.35 72.591h2.15c7.456 0 13.5-6.044 13.5-13.5v-45c0-3.385-1.246-6.478-3.303-8.848Z" fill="#E12E3A"/><path fill-rule="evenodd" clip-rule="evenodd" d="m56.35 72.59-42.85.002c-7.456 0-13.5-6.044-13.5-13.5V14.483L67.308 3.86c.495.428.96.89 1.389 1.384L56.35 72.591Z" fill="#FF444F"/><path d="M22.362 43.49c.231.02.494.042.788.063h1.103c2.456 0 4.273-.62 5.449-1.859 1.197-1.239 1.796-2.95 1.796-5.134 0-2.29-.567-4.022-1.701-5.198-1.134-1.176-2.93-1.764-5.387-1.764-.336 0-.683.01-1.04.032-.357 0-.693.02-1.008.063V43.49Zm14.207-6.93c0 1.89-.294 3.538-.882 4.945-.588 1.407-1.428 2.573-2.52 3.497-1.07.924-2.383 1.617-3.938 2.079-1.553.462-3.296.693-5.229.693-.882 0-1.91-.042-3.087-.126a23.682 23.682 0 0 1-3.465-.441V25.944c1.134-.21 2.31-.346 3.528-.41a48.73 48.73 0 0 1 3.182-.125c1.869 0 3.56.21 5.072.63 1.533.42 2.845 1.081 3.937 1.984 1.092.903 1.932 2.058 2.52 3.465.588 1.407.882 3.098.882 5.072Zm17.983-10.9v4.19h-6.584v17.64h-4.914V29.85H36.47v-4.19h18.082Z" fill="#fff"/></g><defs><clipPath id="a"><path fill="#fff" transform="translate(0 .59)" d="M0 0h72v72H0z"/></clipPath></defs></svg>