<svg width="48" height="48" fill="none" xmlns="http://www.w3.org/2000/svg"><g clip-path="url(#a)"><path d="M9 0a9 9 0 0 0-9 9v.261L44.871 2.18A8.965 8.965 0 0 0 39 0H9Zm36.797 3.102-8.231 44.897h1.433a9 9 0 0 0 9-9V9c0-2.255-.83-4.318-2.202-5.897Z" fill="#E12E3A"/><path fill-rule="evenodd" clip-rule="evenodd" d="M37.566 48H9a9 9 0 0 1-9-9V9.261L44.871 2.18c.33.285.64.593.926.923L37.566 48Z" fill="#FF444F"/><path d="M14.316 28.599c.154.014.33.028.525.042h.735c1.638 0 2.85-.413 3.633-1.239.798-.826 1.197-1.967 1.197-3.423 0-1.526-.378-2.681-1.134-3.465-.756-.784-1.953-1.176-3.59-1.176-.225 0-.456.007-.694.021a5.09 5.09 0 0 0-.672.042v9.198Zm9.471-4.62c0 1.26-.196 2.359-.588 3.297-.392.938-.952 1.715-1.68 2.331-.714.616-1.589 1.078-2.625 1.386-1.036.308-2.198.462-3.486.462-.588 0-1.274-.028-2.058-.084a15.788 15.788 0 0 1-2.31-.294V16.902a18.02 18.02 0 0 1 2.352-.273 32.05 32.05 0 0 1 2.121-.084c1.246 0 2.373.14 3.381.42 1.022.28 1.897.721 2.625 1.323s1.288 1.372 1.68 2.31c.392.938.588 2.065.588 3.381Z" fill="#fff"/><path d="M33.032 31.266a39.04 39.04 0 0 0-1.344-2.457 27.232 27.232 0 0 0-1.659-2.562c-.196.252-.448.602-.756 1.05-.294.448-.595.924-.903 1.428-.294.504-.574.987-.84 1.449-.266.462-.462.826-.588 1.092h-3.738a52.268 52.268 0 0 1 2.142-3.57 125.528 125.528 0 0 1 2.751-3.969l-4.683-7.014h3.969l2.835 4.536 2.772-4.536h3.738l-4.62 7.056c1.176 1.526 2.163 2.94 2.961 4.242.798 1.288 1.428 2.373 1.89 3.255h-3.927Z" fill="#fff"/></g><defs><clipPath id="a"><path fill="#fff" d="M0 0h48v48H0z"/></clipPath></defs></svg>