<svg xmlns="http://www.w3.org/2000/svg" width="64" height="64"><defs><linearGradient id="a" x1="0%" x2="100%" y1="88.281%" y2="11.719%"><stop offset="0%" stop-color="#FF444F"/><stop offset="100%" stop-color="#FF6444"/></linearGradient></defs><g fill="none" fill-rule="evenodd"><path d="M0 0h64v64H0z"/><path fill="url(#a)" d="M58 4c1.054 0 1.918.816 1.995 1.85L60 6v34h2c1.054 0 1.918.816 1.995 1.85L64 42v2a4 4 0 0 1-3.8 3.995L60 48H22v10a2.001 2.001 0 0 1-1.85 1.995L20 60H2a2.001 2.001 0 0 1-1.995-1.85L0 58V26c0-1.054.816-1.918 1.85-1.995L2 24h2V6c0-1.054.816-1.918 1.85-1.995L6 4h52zM18.584 26H2v32h18V27.414L13.414 34H17a1 1 0 0 1 .984.82L18 35a1 1 0 0 1-.82.984L17 36h-6a1 1 0 0 1-.984-.82L10 35v-6a1 1 0 0 1 1.984-.18L12 29v3.584L18.584 26zM11 52a2 2 0 1 1 .001 3.999A2 2 0 0 1 11 52zm51-10H22v4h38a2.001 2.001 0 0 0 1.995-1.85L62 44v-2zm-8-32H10v14h10c.179 0 .352.023.517.067L26.584 18H23a1 1 0 0 1-.984-.82L22 17a1 1 0 0 1 .82-.984L23 16h6a1 1 0 0 1 .984.82L30 17v6a1 1 0 0 1-1.984.18L28 23v-3.586l-6.067 6.069c.031.119.052.242.062.368L22 26v14h32V10zm4-4H6v18h2V10c0-1.054.816-1.918 1.85-1.995L10 8h44c1.054 0 1.918.816 1.995 1.85L56 10v30h2V6z"/></g></svg>