<svg width="45" height="37" fill="none" xmlns="http://www.w3.org/2000/svg"><path d="m1 32 1.68-1.68c.74-.74 1.94-.78 2.73-.09 1.73 1.51 3.46 3.02 5.18 4.54.79.69 1.99.65 2.73-.09l10.26-10.26c.78-.78 2.05-.78 2.83 0l5.17 5.17c.78.78 2.05.78 2.83 0l6-6c.38-.38.88-.59 1.41-.59h1.17" stroke="#fff" stroke-width="2" stroke-linecap="round" stroke-linejoin="round"/><path d="m1 32 2.09-4c.51-.97 1.69-1.35 2.67-.86l4.76 2.38c.86.43 1.9.19 2.48-.57 1.83-2.4 3.66-4.79 5.5-7.19l5.6-7.32c.54-.7 1.47-.97 2.29-.66l5.02 1.88c.92.34 1.95-.03 2.44-.88 1.05-1.84 2.1-3.68 3.16-5.52 1.14-2.08 2.29-4.15 3.43-6.23.35-.64 1.02-1.04 1.75-1.04h.82" stroke="#fff" stroke-width="2" stroke-linecap="round" stroke-linejoin="round"/><path fill-rule="evenodd" clip-rule="evenodd" d="M42.383 8.076A1 1 0 0 1 43 9v4a1 1 0 1 1-2 0v-2a1 1 0 0 1-.707-1.707l1-1a1 1 0 0 1 1.09-.217Z" fill="#fff"/><path fill-rule="evenodd" clip-rule="evenodd" d="M41.293 8.293a1 1 0 0 1 1.414 0l1 1a1 1 0 0 1-1.414 1.414l-1-1a1 1 0 0 1 0-1.414Z" fill="#fff"/><path d="M42 18c-.55 0-1 .45-1 1s.45 1 1 1 1-.45 1-1-.45-1-1-1Zm0-3c-.55 0-1 .45-1 1s.45 1 1 1 1-.45 1-1-.45-1-1-1Z" fill="#fff"/></svg>