<svg width="65" height="64" fill="none" xmlns="http://www.w3.org/2000/svg"><path fill-rule="evenodd" clip-rule="evenodd" d="M44.99 45.066a1.586 1.586 0 1 1 .002-3.174 1.586 1.586 0 0 1-.002 3.174Zm1.585 6.033a1.585 1.585 0 1 1-3.17 0v-3.074c0-.876.709-1.588 1.585-1.588s1.585.712 1.585 1.588v3.074Zm-7.828-10.986a1.586 1.586 0 1 1 .002-3.172 1.586 1.586 0 0 1-.002 3.172Zm1.588 10.986a1.586 1.586 0 1 1-3.173 0v-7.675a1.586 1.586 0 1 1 3.173 0v7.675Zm-7.825-13.61a1.586 1.586 0 1 1-.003-3.171 1.586 1.586 0 0 1 .004 3.17ZM34.096 51.1a1.586 1.586 0 0 1-3.173 0V40.638a1.587 1.587 0 1 1 3.173 0V51.1Zm-7.826-8.726a1.586 1.586 0 1 1-.002-3.172 1.586 1.586 0 0 1 .002 3.172Zm1.585 8.725a1.585 1.585 0 1 1-3.172 0v-5.371a1.586 1.586 0 0 1 3.172 0v5.371Zm18.702-29.766H7.445a7.112 7.112 0 0 0-7.111 7.112v9.777h7.673V33.34l8.276 6.216 4.139 3.109-4.137 3.108-8.278 6.22v-4.887H.334v9.783a7.11 7.11 0 0 0 7.11 7.11h39.113a7.11 7.11 0 0 0 7.11-7.11V28.445a7.112 7.112 0 0 0-7.11-7.112Z" fill="#85ACAF"/><path fill-rule="evenodd" clip-rule="evenodd" d="m48.66 1.034 3.922 7.965c.271.547.791.927 1.394 1.015l8.772 1.277c1.517.22 2.124 2.09 1.025 3.163l-6.347 6.2a1.859 1.859 0 0 0-.532 1.641l1.499 8.755c.259 1.515-1.328 2.67-2.685 1.956L47.86 28.87a1.853 1.853 0 0 0-1.721 0l-7.846 4.135c-1.357.715-2.944-.441-2.685-1.956l1.499-8.755a1.859 1.859 0 0 0-.532-1.641l-6.347-6.2c-1.099-1.074-.492-2.943 1.024-3.163l8.772-1.277a1.85 1.85 0 0 0 1.393-1.015l3.924-7.965c.679-1.379 2.639-1.379 3.318 0Z" fill="#FF444F" style="mix-blend-mode:multiply"/></svg>