<svg width="64" height="64" fill="none" xmlns="http://www.w3.org/2000/svg"><path d="M32 64c17.673 0 32-14.327 32-32C64 14.327 49.673 0 32 0 14.327 0 0 14.327 0 32c0 17.673 14.327 32 32 32Z" fill="#FF6444" fill-opacity=".08"/><path d="m23.495 43.34 2.16-2.88a.501.501 0 0 1 .753-.052l.285.285a.5.5 0 0 1 .047.654L24.6 44.2a.5.5 0 0 0 .4.8h11.707a.5.5 0 0 0 .45-.716l-4.791-10.02a.5.5 0 0 0-.858-.075l-1.665 2.33a.5.5 0 0 1-.76.064L28.8 36.3a.501.501 0 0 1-.054-.645l1.69-2.364a.501.501 0 0 0-.407-.791H18.292a.5.5 0 0 0-.45.716l4.801 10.04a.5.5 0 0 0 .851.084h.001Zm14.144.372-4.814-10.504a.5.5 0 0 1 .454-.708H37a.5.5 0 0 0 .5-.5v-.5a.5.5 0 0 0-.5-.5h-3.533a.5.5 0 0 1-.408-.79l7.44-10.502a.5.5 0 0 1 .862.08l4.814 10.504a.5.5 0 0 1-.454.708H41.5a.5.5 0 0 0-.5.5v.5a.5.5 0 0 0 .5.5h4.033a.5.5 0 0 1 .408.789l-7.44 10.503a.5.5 0 0 1-.862-.08Z" fill="#FF6444" fill-opacity=".48"/><path d="m18.06 30.711 7.432-10.494a.5.5 0 0 1 .865.086l1.46 3.282c.103.235.37.353.614.271l.547-.182a.5.5 0 0 0 .298-.677l-1.464-3.294A.5.5 0 0 1 28.27 19h10.774a.5.5 0 0 1 .41.786l-6.909 9.932a.5.5 0 0 1-.879-.11l-.996-2.657a.5.5 0 0 0-.626-.299l-.569.19a.5.5 0 0 0-.316.632l1.123 3.368a.5.5 0 0 1-.475.658h-11.34a.5.5 0 0 1-.407-.789Z" fill="#FF6444"/></svg>