<svg width="48" height="48" fill="none" xmlns="http://www.w3.org/2000/svg"><g clip-path="url(#a)"><path d="M0 34.5h48V39a9 9 0 0 1-9 9H9a9 9 0 0 1-9-9v-4.5Z" fill="#71BD0E"/><path d="M40.042 34.5H0V9.262L44.872 2.18c.33.284.64.593.926.922L40.042 34.5Z" fill="#0364B9"/><path d="M0 9a9 9 0 0 1 9-9h30c2.244 0 4.296.822 5.872 2.18L0 9.262V9Zm40.042 25.5 5.756-31.398A8.963 8.963 0 0 1 48 9v25.5h-7.958Z" fill="#0A559E"/><path d="M11.013 14.526c.216.396.462.888.738 1.476.288.576.582 1.206.882 1.89.312.672.618 1.362.918 2.07l.846 1.998.846-1.998c.3-.708.6-1.398.9-2.07.312-.684.606-1.314.882-1.89.288-.588.54-1.08.756-1.476h2.556c.12.828.228 1.758.324 2.79.108 1.02.198 2.088.27 3.204.084 1.104.156 2.214.216 3.33.072 1.116.132 2.166.18 3.15h-2.736a323.856 323.856 0 0 0-.144-3.96 106.97 106.97 0 0 0-.27-4.32l-.72 1.674-.792 1.836c-.252.612-.498 1.2-.738 1.764-.24.552-.444 1.026-.612 1.422h-1.962c-.168-.396-.372-.87-.612-1.422-.24-.564-.492-1.152-.756-1.764-.252-.612-.51-1.224-.774-1.836l-.72-1.674a106.97 106.97 0 0 0-.27 4.32c-.06 1.428-.108 2.748-.144 3.96H7.341c.048-.984.102-2.034.162-3.15l.216-3.33c.084-1.116.174-2.184.27-3.204.108-1.032.222-1.962.342-2.79h2.682Zm21.019 0v2.394H28.27V27h-2.808V16.92H21.7v-2.394h10.332Zm5.945 8.802a1.77 1.77 0 0 0-.234-.918c-.157-.276-.427-.504-.81-.684-.385-.18-.9-.318-1.548-.414-.648-.096-1.465-.144-2.448-.144.132-1.116.24-2.25.324-3.402.083-1.152.15-2.232.197-3.24h6.75v2.25h-4.5c-.023.432-.053.852-.09 1.26a18.04 18.04 0 0 1-.09 1.044c1.753.12 3.043.534 3.87 1.242.84.696 1.26 1.668 1.26 2.916 0 .576-.102 1.11-.306 1.602-.203.492-.51.918-.917 1.278-.409.36-.925.642-1.549.846-.611.204-1.332.306-2.16.306-.323 0-.666-.024-1.026-.072a9.615 9.615 0 0 1-1.026-.162 11.04 11.04 0 0 1-.882-.198 3.463 3.463 0 0 1-.611-.216l.486-2.214c.3.132.695.264 1.188.396.492.12 1.08.18 1.764.18.828 0 1.428-.162 1.8-.486.372-.336.558-.726.558-1.17ZM17.31 44.369v-6.237h4.176v1.179h-2.772v1.305h2.466v1.179h-2.466v2.574H17.31Zm5.168-6.237h1.404v6.237h-1.404v-6.237Zm7.032 6.237a31.385 31.385 0 0 0-1.304-2.115 21.51 21.51 0 0 0-1.494-1.971v4.086h-1.386v-6.237h1.143c.198.198.417.44.657.729.24.288.483.597.729.927.252.324.5.663.747 1.017.246.348.477.684.693 1.008v-3.681h1.395v6.237h-1.18Z" fill="#fff"/></g><defs><clipPath id="a"><path fill="#fff" d="M0 0h48v48H0z"/></clipPath></defs></svg>