<svg width="32" height="16" fill="none" xmlns="http://www.w3.org/2000/svg"><g clip-path="url(#a)"><path d="M32 0H0v16h32V0Z" fill="#012169"/><path d="m0 0 16 8L0 0Zm16 0L0 8l16-8Z" fill="#000"/><path d="M16 0 0 8m0-8 16 8L0 0Z" stroke="#fff" stroke-width="1.6"/><path d="m0 0 16 8L0 0Zm16 0L0 8l16-8Z" fill="#000"/><path d="M16 0 0 8m0-8 16 8L0 0Z" stroke="#C8102E" stroke-width="1.067"/><path d="M8 0v9.333V0ZM0 4h18.667H0Z" fill="#000"/><path d="M0 4h18.667M8 0v9.333V0Z" stroke="#fff" stroke-width="2.667"/><path d="M8 0v9.333V0ZM0 4h18.667H0Z" fill="#000"/><path d="M0 4h18.667M8 0v9.333V0Z" stroke="#C8102E" stroke-width="1.6"/><path d="M0 8h16V0h16v16H0V8Z" fill="#012169"/><path d="M20.115 11.988c.077.205.626.473 1.265.128.435-.243.716-.588.984-1.201.077-.154.115-.345-.064-.46-.14-.103-.37-.218-.473-.32-.05-.051-.102-.09-.14-.128.025.026.051.051.076.09.256.306-.012.754-.293 1.022-.205.192-.575.665-1.112.217-.115-.102-.384.32-.243.652Zm7.77 0c-.09.205-.64.473-1.266.128-.434-.243-.715-.588-.996-1.201-.064-.154-.103-.345.076-.46.14-.103.37-.218.473-.32.051-.051.09-.09.14-.128-.025.026-.05.051-.076.09-.256.306.013.754.281 1.022.205.192.588.665 1.125.217.115-.102.37.32.243.652Z" fill="#FCEA83" stroke="#000" stroke-width=".038"/><path d="M24 13.087c1.023 0 2.595-.46 3.438-2.07.14-.269 0-.41-.166-.499-.18-.077-.396-.256-.511-.37.204.204.166.345.025.575-.652 1.086-1.546 1.635-2.786 1.635s-2.134-.55-2.786-1.636c-.14-.23-.179-.37.013-.574a1.758 1.758 0 0 1-.511.37c-.166.09-.307.23-.166.498.843 1.61 2.428 2.07 3.45 2.07Z" fill="#FCEA83" stroke="#000" stroke-width=".038"/><path d="M21.634 10.928c-.025-.128-.191-.077-.242.077a2.317 2.317 0 0 1-.18-.281c-.153-.23-.178-.384.039-.601.102-.102.307-.217.447-.09.294.243.14.64-.064.895Zm4.716 0c.026-.128.205-.077.256.077.064-.09.128-.18.18-.281.152-.23.178-.384-.052-.601-.09-.102-.294-.217-.447-.09-.281.243-.14.64.064.895Zm-6.236 1.061c-.128-.192-.23-.69-.255-.818-.039-.115-.052-.217.09-.268.14-.051.267.127.331.28.064.154.166.384.281.665-.28-.166-.51-.05-.447.141Zm7.771 0c.115-.192.217-.69.255-.818.026-.115.052-.217-.09-.268-.14-.051-.267.127-.331.28-.064.154-.167.384-.282.665.282-.166.499-.05.448.141Z" fill="#C8102E" stroke="#000" stroke-width=".038"/><path d="m20.858 10.84-.102.05c-.026.013-.026.039-.026.051h-.013l-.051-.115h.013c0 .013.013.026.038.013l.217-.115c.026-.013.026-.025.013-.038l.013-.013.064.128h-.013c-.013-.013-.026-.026-.051-.013l-.09.051.039.077.102-.038c.026-.013.013-.039.013-.052h.013l.05.115c-.012-.012-.025-.025-.05-.012l-.218.115c-.025.012-.025.025-.012.038l-.013.013-.064-.115.013-.013c.013.013.025.026.05.013l.103-.051-.038-.09Zm.217.165c.026-.013.026-.026.013-.052h.012l.128.192-.09.064v-.013c.052-.038.052-.09.04-.102-.014-.013-.026-.026-.026-.038-.013 0-.013-.013-.039.012-.012.013-.09.064-.09.064.014.013.026.051.09.013h.013l-.14.102v-.012c.063-.052.038-.09.025-.103l-.09.064c-.025.013-.025.026-.025.039.013 0 .013.012.026.025.012.026.05.051.115.026l.012.012-.102.039-.128-.205h.013c.013.013.026.026.051.013l.192-.14Zm.205.485-.09.077a.039.039 0 0 0 0 .052h-.013l-.09-.09.014-.013c.012.013.025.026.05 0l.167-.166c.025-.013.025-.025.013-.05l.09.101a.039.039 0 0 0-.052 0l-.077.077.064.064.077-.064c.026-.026.013-.038 0-.051l.013-.013.09.102h-.014c-.012 0-.025-.012-.05.013l-.167.153c-.025.026-.025.039-.013.052v.012l-.09-.102c.014 0 .04.013.052 0l.09-.09-.064-.063Zm.19.269.04.038.05-.115s-.038.013-.102.051l.013.026-.013.012-.026-.025c-.012.013-.025.013-.038.025-.038.026-.025.039-.013.052v.012l-.064-.064h.013l.051-.012.256-.14.013.012s-.013.013-.128.268c0 .026-.013.039 0 .064l-.102-.09.012-.012c.013.025.039.025.052 0 0-.013.012-.038.012-.051l-.038-.039.013-.012Zm.103.255.013-.012c.013.012.026.012.051 0l.166-.218-.012-.012c-.026-.013-.064-.013-.103.025v-.013l.051-.064.192.141-.064.077h-.013c.039-.039.026-.09 0-.103v-.012l-.166.217c-.025.013-.012.038 0 .051h-.012l-.103-.077Z" fill="#00493D"/><path d="m21.906 12.066-.063.09c-.013.025 0 .038.012.05l-.012.013-.103-.076v-.013c.026.013.039.013.051-.013l.14-.192c.014-.025 0-.038-.012-.05l.013-.013.102.076v.013c-.025-.013-.038-.013-.051.013l-.064.09.077.05.064-.09c.013-.025 0-.037-.013-.05l.013-.013.102.077v.012c-.013-.012-.038-.012-.051.013l-.128.205c-.026.013-.013.025 0 .038v.013l-.115-.077h.013c.013 0 .025 0 .038-.013l.064-.102-.077-.051Zm.256.358.013-.013c.013.013.038.013.051-.013l.102-.217c.013-.026 0-.039-.012-.051l.217.102-.051.102-.013-.013c.038-.05 0-.102-.013-.115-.013 0-.026-.012-.038-.012-.013 0-.013 0-.026.025a.745.745 0 0 0-.051.09c.013.012.038.038.09-.026h.012l-.076.153-.013-.012c.038-.077-.013-.09-.026-.09l-.05.102c-.014.026 0 .039.012.039v.013l-.128-.064Zm.369.178c-.038-.025-.038-.102 0-.178.026-.077.077-.14.128-.115.038.012.026.09 0 .166-.038.09-.09.14-.128.127h-.013c.09.039.154-.012.192-.102.038-.076.026-.166-.051-.204-.077-.038-.153.013-.192.102-.038.09-.025.179.051.204h.013Zm.397.026.052-.154c.012-.025 0-.038-.013-.05l.064.012v.013c-.013 0-.026 0-.039.025l-.05.154c-.026.063-.065.115-.142.089-.05-.013-.089-.077-.063-.14l.064-.167c.012-.025 0-.038-.013-.05v-.014l.115.052v.012c-.013-.012-.039-.012-.039.013l-.064.166c-.012.051-.012.102.026.115.038.013.077-.013.102-.076Zm.116-.167c0-.012 0-.012-.013-.012l.09.012.076.243.038-.153c.013-.026 0-.038-.012-.051l.076.013-.013.012c-.012 0-.025 0-.038.026l-.064.281h-.013l-.102-.307-.064.205c0 .038.013.038.026.051v.013l-.077-.026v-.013c.013.013.038 0 .038-.025l.064-.23-.012-.039Z" fill="#00493D"/><path d="M23.477 12.718c-.025.115-.076.14-.102.14h-.026s-.012-.013 0-.025l.039-.256c.012-.013.012-.025.025-.013h.026c.025 0 .051.051.038.154l.038.012c.026-.127-.025-.178-.089-.191a1.998 1.998 0 0 0-.128-.026v.013c.013.013.039.013.026.051l-.039.23c-.012.026-.025.038-.038.038h-.013l.128.026c.064.013.128 0 .154-.14l-.039-.013Zm.116-.103c0-.025-.025-.038-.038-.038v-.013l.23.026-.013.102c0-.064-.038-.09-.064-.09-.012-.012-.025-.012-.038-.012-.013 0-.013 0-.013.038 0 .013-.013.102-.013.102.013 0 .052.013.077-.064l-.013.167h-.012c0-.077-.039-.077-.052-.077l-.012.115c0 .025 0 .025.012.025l.026.013c.038 0 .077-.013.102-.09h.013l-.026.103-.242-.026c.025 0 .038-.012.05-.038l.026-.243Zm.421.154c0 .115-.038.153-.077.153-.012-.013-.012-.013-.025-.013l-.013-.012.013-.269c0-.013 0-.013.013-.013h.025c.026 0 .064.039.064.154h.051c0-.128-.064-.166-.128-.166-.05-.013-.127-.013-.127-.013v.013c.012 0 .038.012.038.038l-.013.243c0 .025-.013.038-.025.038v.013h.115c.063 0 .127-.026.14-.166h-.051Zm.371.101c0 .026.012.026.038.026v.013l-.14.012c.012-.012.038-.025.038-.05l-.026-.244c-.013-.025-.025-.025-.05-.025v-.013l.14-.013c-.013.013-.039.026-.026.051l.026.243Zm.127.026v-.012c.013 0 .026-.013.026-.039l-.051-.268h-.013c-.026.013-.051.038-.038.09h-.013l-.013-.09.23-.038.013.089h-.013c0-.051-.038-.064-.076-.064h-.013l.05.268c0 .026.014.039.04.039v.013l-.129.012Zm.55-.256-.05-.153c0-.026-.026-.026-.04-.026v-.012l.065-.026v.013c-.013.013-.013.013-.013.038l.051.166c.013.051.013.128-.064.154a.103.103 0 0 1-.127-.09l-.052-.166c-.012-.025-.025-.025-.038-.025l-.013-.013.128-.039v.013c-.013.013-.025.026-.013.051l.039.166c.012.052.05.077.09.077.037-.013.05-.064.037-.128Zm.14-.09c.064-.025.051-.063.038-.102-.012-.038-.038-.063-.063-.05-.013 0-.026.012-.013.025l.038.128.013.012.026.103c.012.025.038.025.05.012v.013l-.114.051-.013-.012c.025-.013.025-.026.025-.052l-.09-.217c-.012-.038-.025-.025-.05-.025v-.013l.128-.051c.05-.013.102 0 .127.05.013.065-.012.103-.063.129-.013 0-.026.012-.026.012l-.013-.012Zm.321.04c-.039.012-.09-.039-.128-.128-.038-.077-.038-.153 0-.166.038-.013.09.038.128.115.038.077.038.153 0 .179.076-.026.102-.115.064-.205-.039-.076-.115-.127-.192-.102a.149.149 0 0 0-.064.205c.038.089.115.14.192.102Zm.013-.358h-.025l.076-.051.23.128-.076-.141c-.013-.026-.039-.026-.051-.026v-.012l.064-.026c-.013.013-.026.026 0 .051l.127.256-.012.013-.282-.154.103.192c.012.025.038.025.05.013v.012l-.063.039v-.013c.013-.013.013-.026 0-.051l-.102-.205-.039-.025Zm.574.038v-.013c0-.013.013-.026 0-.051l-.153-.217h-.013c-.026.012-.039.063 0 .102l-.013.013-.051-.09.192-.128.05.077c-.038-.038-.076-.038-.102-.026l-.012.013.153.217c.013.026.038.026.051.013v.013l-.102.077Z" fill="#00493D"/><path d="m26.25 11.963.077.09a.039.039 0 0 0 .051 0v.012l-.102.09v-.013c.012-.013.012-.025 0-.051l-.154-.192c-.012-.025-.025-.012-.05-.012l.102-.09v.013c0 .013-.013.025 0 .051l.063.077.077-.052-.064-.089c-.013-.026-.038-.013-.05-.013l.101-.09v.014c-.012.012-.012.025 0 .05l.154.192c.013.013.025.013.038 0l.013.013-.102.09-.013-.013c.013-.013.025-.026.013-.051l-.077-.09-.077.064Zm.115-.268a.039.039 0 0 0-.051 0v-.013l.166-.153.076.077h-.012c-.039-.051-.09-.026-.116-.013 0 .013-.012.013-.025.025 0 0 0 .013.013.039l.076.076c.013-.012.052-.038 0-.102h.013l.102.115v.013c-.063-.064-.089-.026-.102-.013l.077.077c.013.025.025.025.025.025l.039-.038c.012-.013.025-.05 0-.128h.012l.052.09-.166.166-.013-.013c.013-.013.025-.025 0-.05l-.166-.18Zm.308-.358c-.013.013-.013.038.013.051.026.026.051.026.102 0 .026-.013.077-.025.115.013.064.064.039.115.026.14-.013.013-.039.026-.051.039-.013 0-.013 0-.013.012v.013l-.09-.076h.013c.051.025.102.038.128 0 .026-.026 0-.052-.013-.064-.025-.026-.051-.026-.09 0a.151.151 0 0 1-.127-.013c-.051-.051-.051-.09-.026-.128.013-.013.039-.025.052-.038.012 0 .012 0 0-.026l.089.064h-.013c-.064-.025-.102-.013-.115.013Zm.114-.102c-.026-.013-.039 0-.052.013h-.012l.14-.204.09.063-.013.013a.092.092 0 0 0-.115 0c0 .013-.013.026-.013.039-.013 0-.013.012.013.025.013.013.09.064.09.064.012-.013.038-.038-.013-.09v-.012l.127.102c-.076-.038-.09 0-.102.013l.09.064c.025.012.038.012.038.012 0-.012.013-.025.026-.038.012-.025.025-.064-.026-.115l.013-.013.064.077-.128.192h-.013c.013-.026.013-.039-.013-.064l-.191-.14Zm.345-.23-.038.063c-.051-.05-.077-.089-.077-.089l.115.026h.026c.012 0 .038.012.05.012.04.013.026.026.014.052h.012l.064-.116c-.025.026-.038.013-.064.013-.268-.05-.294-.064-.294-.064v.013l.205.23c.013.013.013.039.013.051h.012l.039-.064-.013-.012c-.013.025-.026.038-.051 0l-.026-.026.039-.09h-.026Zm-.076-.281c-.013.012-.013.038.026.05.038.014.05 0 .089-.025.038-.025.077-.05.128-.025.076.038.064.102.05.127-.012.013-.025.039-.037.052v.025l-.103-.05c.064.012.115 0 .128-.04.013-.025-.013-.05-.025-.063-.026-.013-.052 0-.09.025-.038.039-.077.051-.128.026-.05-.026-.076-.064-.05-.102 0-.026.025-.039.038-.051 0-.013 0-.013-.013-.026v-.013l.102.051h-.013c-.064-.012-.102.013-.102.039Z" fill="#00493D"/><path d="M23.02 6.199c-.167.038-.282.05-.435-.09-.103-.102-.077-.281.025-.345.115-.077.217-.128.358-.09.14.039.511.384.422.397-.09 0-.23.09-.37.128Zm.395-.613c.051-.039.115-.064.281-.077.153-.013.269-.013.307.102.051.14.09.307.192.384-.064.038-.384.076-.499.012-.153-.076-.192-.37-.281-.421Zm1.099.012c.05-.038.115-.038.28-.025.167.012.23.025.27.14.038.128 0 .294.076.41-.077.025-.332.025-.422-.065-.14-.102-.128-.396-.204-.46Z" fill="#fff" stroke="#000" stroke-width=".038"/><path d="M25.28 5.674c-.114-.025-.19-.038-.242 0 .064.077.013.384.14.486.09.064.32.077.371-.064.064-.128.064-.32-.268-.422Zm-1.315-.127c.038-.038.115-.051.268-.051.166 0 .269.025.32.128.05.127.038.294.127.396-.038.05-.383.05-.485-.026-.14-.09-.154-.383-.23-.447Zm-1.087.115c0-.064.09-.077.32-.09.23-.025.242-.012.319.154.038.09.09.243.192.294-.282.064-.371.102-.524.013a.779.779 0 0 1-.269-.282c-.012-.038-.012-.076-.038-.09Z" fill="#073163" stroke="#000" stroke-width=".038"/><path d="M23.495 4.359c-.268-.205-.588-.396-.882-.435.192.115.729.537.87.678" fill="#F9D050"/><path d="M23.495 4.359c-.268-.205-.588-.396-.882-.435.192.115.729.537.87.678" stroke="#000" stroke-width=".017"/><path d="M23.648 4.167c-.32-.218-.69-.46-1.048-.486.268.14.664.473.881.741" fill="#F9D050"/><path d="M23.648 4.167c-.32-.218-.69-.46-1.048-.486.268.14.664.473.881.741" stroke="#000" stroke-width=".017"/><path d="M24.056 3.809a2.47 2.47 0 0 1 .626-.856c-.128.268-.268.818-.332 1.035" fill="#F9D050"/><path d="M24.056 3.809a2.47 2.47 0 0 1 .626-.856c-.128.268-.268.818-.332 1.035" stroke="#000" stroke-width=".017"/><path d="M24.338 3.745a1.29 1.29 0 0 1 .652-.677c-.166.166-.422.665-.486.933" fill="#F9D050"/><path d="M24.338 3.745a1.29 1.29 0 0 1 .652-.677c-.166.166-.422.665-.486.933" stroke="#000" stroke-width=".017"/><path d="M24.452 4c.153-.217.46-.626 1.01-.843-.32.32-.793.908-.908 1.138" fill="#F9D050"/><path d="M24.452 4c.153-.217.46-.626 1.01-.843-.32.32-.793.908-.908 1.138" stroke="#000" stroke-width=".017"/><path d="M24.631 4.282c.23-.127.69-.332 1.023-.268-.205.077-.818.358-1.087.613" fill="#F9D050"/><path d="M24.631 4.282c.23-.127.69-.332 1.023-.268-.205.077-.818.358-1.087.613" stroke="#000" stroke-width=".017"/><path d="M24.58 4.192c.217-.23.614-.575 1.035-.716-.306.294-.958.959-1.048 1.061" fill="#F9D050"/><path d="M24.58 4.192c.217-.23.614-.575 1.035-.716-.306.294-.958.959-1.048 1.061" stroke="#000" stroke-width=".017"/><path d="M23.969 4.052c-.154-.473-.384-.92-.729-1.06.192.28.435.69.563 1.303" fill="#F9D050"/><path d="M23.969 4.052c-.154-.473-.384-.92-.729-1.06.192.28.435.69.563 1.303" stroke="#000" stroke-width=".017"/><path d="M23.674 4.04c-.255-.308-.6-.614-.996-.678.268.153.715.6.881 1.035" fill="#F9D050"/><path d="M23.674 4.04c-.255-.308-.6-.614-.996-.678.268.153.715.6.881 1.035" stroke="#000" stroke-width=".017"/><path d="M23.814 4.026c-.32-.575-.562-.677-.703-.792.115.217.396.792.563 1.035" fill="#F9D050"/><path d="M23.814 4.026c-.32-.575-.562-.677-.703-.792.115.217.396.792.563 1.035m-.498-.281c.153.09.383.307.46.447" stroke="#000" stroke-width=".017"/><path d="M23.176 4.257c.077.063.217.14.345.255l-.345-.255Z" fill="#F9D050"/><path d="M23.176 4.257c.077.063.217.14.345.255" stroke="#000" stroke-width=".017"/><path d="M24.696 4.448a2.67 2.67 0 0 1 .55-.32l-.55.32Z" fill="#F9D050"/><path d="M24.696 4.448a2.67 2.67 0 0 1 .55-.32" stroke="#000" stroke-width=".017"/><path d="M24.605 4.358a4.08 4.08 0 0 1 .473-.472l-.473.472Z" fill="#F9D050"/><path d="M24.605 4.358a4.08 4.08 0 0 1 .473-.472" stroke="#000" stroke-width=".017"/><path d="M24.964 3.566a7.668 7.668 0 0 0-.485.6l.485-.6Z" fill="#F9D050"/><path d="M24.964 3.566a7.668 7.668 0 0 0-.485.6" stroke="#000" stroke-width=".017"/><path d="M24.631 3.45a4.3 4.3 0 0 0-.32.563l.32-.562Z" fill="#F9D050"/><path d="M24.631 3.45a4.3 4.3 0 0 0-.32.563" stroke="#000" stroke-width=".017"/><path d="M23.622 3.476c.077.205.217.55.268.69l-.268-.69Z" fill="#F9D050"/><path d="M23.622 3.476c.077.205.217.55.268.69" stroke="#000" stroke-width=".017"/><path d="M23.507 3.694c.051.077.153.256.191.383l-.191-.383Z" fill="#F9D050"/><path d="M23.507 3.694c.051.077.153.256.191.383" stroke="#000" stroke-width=".017"/><path d="M23.941 3.63c0-.115.077-.243.154-.243.09 0 .153.154.153.243 0 .102-.077.192-.153.192-.077 0-.154-.077-.154-.192Z" fill="#F9D050" stroke="#000" stroke-width=".017"/><path d="M23.774 3.732c.013-.128.102-.23.179-.217.077.013.115.166.102.256-.012.102-.102.179-.166.166-.064 0-.128-.09-.115-.205Zm.346.038c-.026-.115.025-.242.102-.255.077-.013.153.115.166.217.026.102-.038.205-.102.205-.064.012-.153-.052-.166-.167Z" fill="#F9D050" stroke="#000" stroke-width=".017"/><path d="M23.928 3.872c0-.127.076-.242.153-.242.09 0 .153.14.153.242 0 .103-.076.192-.153.192s-.153-.077-.153-.192Z" fill="#F9D050" stroke="#000" stroke-width=".017"/><path d="M23.697 3.937c0-.115.09-.243.166-.243.077 0 .154.153.154.243 0 .102-.09.191-.154.191-.076 0-.166-.076-.166-.191Zm.473-.051c0-.115.078-.243.154-.243.09 0 .154.153.154.243 0 .102-.077.191-.154.191-.076 0-.153-.076-.153-.191Z" fill="#F9D050" stroke="#000" stroke-width=".017"/><path d="M24.12 3.988c0-.128.089-.243.165-.243.077 0 .154.14.154.243 0 .102-.077.192-.154.192-.076 0-.166-.077-.166-.192Z" fill="#F9D050" stroke="#000" stroke-width=".017"/><path d="M23.915 4.102c0-.127.077-.242.153-.242.09 0 .154.153.154.242 0 .103-.077.192-.154.192-.076 0-.153-.077-.153-.192Zm-.32 0c0-.127.064-.242.128-.242.063 0 .114.153.114.242 0 .103-.063.192-.114.192-.064 0-.128-.077-.128-.192Zm.715-.025c0-.115.064-.23.128-.23s.128.141.128.23c0 .115-.076.192-.128.192-.064 0-.127-.077-.127-.192Z" fill="#F9D050" stroke="#000" stroke-width=".017"/><path d="M24.389 4.295c.026-.128.102-.23.153-.218.051.013.064.167.039.256-.013.115-.09.179-.14.166-.052-.013-.078-.102-.052-.204Z" fill="#F9D050" stroke="#000" stroke-width=".017"/><path d="M24.145 4.256c.013-.115.09-.23.154-.217.076 0 .115.153.102.242-.013.115-.077.192-.14.18-.065 0-.129-.09-.116-.205Zm-.357.039c-.039-.128-.115-.218-.167-.205-.05.013-.063.166-.038.256.026.102.102.166.153.153.039-.013.077-.102.052-.204Z" fill="#F9D050" stroke="#000" stroke-width=".017"/><path d="M23.697 4.269c0-.115.064-.23.128-.23.077 0 .128.14.128.23 0 .115-.064.191-.128.191-.051 0-.128-.076-.128-.191Z" fill="#F9D050" stroke="#000" stroke-width=".017"/><path d="M23.89 4.32c0-.128.077-.243.154-.243.09 0 .153.141.153.243 0 .102-.076.192-.153.192s-.153-.077-.153-.192Zm.063-1.406c-.026.102-.116.192-.052.332-.115-.038-.217-.05-.306.052.115-.013.217.025.268.102-.102-.013-.153.038-.179.102.09-.026.18-.051.217-.038-.038.038-.102.102-.115.153.077-.064.167-.051.218-.09-.039.09.038.18.102.269-.013-.128.064-.217.025-.281.116.025.128.128.294.128-.064-.039-.102-.167-.178-.167.038-.012.191-.025.217 0a.233.233 0 0 0-.166-.102c.05-.05.14-.153.204-.179-.09.013-.23.026-.281.103.128-.103.102-.294.243-.32-.077-.013-.192.038-.281.128.038-.077.038-.18.089-.205-.102.026-.217.154-.255.218a.483.483 0 0 0-.064-.205Z" fill="#F9D050" stroke="#000" stroke-width=".017"/><path d="M24.017 3.12c0 .037 0 .114-.013.14l.013-.14Z" fill="#F9D050"/><path d="M24.017 3.12c0 .037 0 .114-.013.14" stroke="#000" stroke-width=".017"/><path d="M24.183 3.106a.335.335 0 0 0-.077.192l.077-.192Z" fill="#F9D050"/><path d="M24.183 3.106a.335.335 0 0 0-.077.192m.154-.038a.204.204 0 0 0-.09.114" stroke="#000" stroke-width=".017"/><path d="M22.904 4.525a.273.273 0 0 1-.217-.102c-.09-.115-.332-.166-.434-.064-.039.025-.09.025-.128.038-.064 0-.14.064-.115.192.051-.039.064 0 .102 0 .026-.013.013.013.013.038 0 .064.14.192.268.179.14 0 .205.051.23.077.039.038.013.025.039.09.038.038.05.05-.013.101a.259.259 0 0 0 0 .397c.166.127.588.32 1.06-.052.46-.357 1.176-.153 1.227-.025.064.128.09.204.103.268.012.051.076.103.166.09.09 0 .192.038.243.076.064.039.153.026.127-.09-.05-.357-.268-.408-.293-.574.127.013.217.013.268-.038.038-.052.09-.141.14-.167.039-.025.039-.05-.012-.038-.064.013-.103.038-.218.026-.587-.064-2.236-.512-2.556-.422Z" fill="#059334" stroke="#000" stroke-width=".038"/><path d="M25.512 4.96c-.064.038-.128.102-.242.255-.128.166-.512.332-.985.332-.46 0-.74-.076-.945-.243a1.62 1.62 0 0 0-.281-.178c-.141-.064-.167-.205-.128-.32-.039.064-.064.128-.14.115-.052 0-.154 0-.129.051-.012-.025-.012-.064-.025-.077l-.026-.025c.039.025.128-.051.192-.051.051.013.115-.051.102-.128a3.323 3.323 0 0 0-.038-.166c.102-.051 1.444.192 1.712.217.269.013 1.035.128.933.217Z" fill="#000" stroke="#000" stroke-width=".038"/><path d="M23.084 4.474c.127-.128.28-.192.434-.154h.038c.077-.064.256-.076.358-.025h.051c.154-.051.448 0 .55.102l.038.026c.345-.026.55.127.793.37.025.026.063.077.127.09.077.012.09.05.026.089-.077.038-.14.102-.269.243-.115.153-.485.307-.945.307-.448 0-.716-.077-.92-.23-.115-.09-.205-.141-.269-.18-.076-.025-.179-.127-.14-.23.025-.102-.039-.23-.09-.357.038-.026.14-.064.192-.039l.026-.012Z" fill="#059334" stroke="#000" stroke-width=".038"/><path d="M25.346 4.792c-.243-.242-.447-.396-.792-.37 0 .013 0 .05-.013.076.204.077.498.307.626.473.051-.05.14-.115.18-.179Zm-.832-.396c-.103-.102-.397-.153-.55-.102 0 .051 0 .128-.025.18.089.037.166.127.242.216.051-.012.18-.05.243-.064.026-.05.077-.166.09-.23Zm-.6-.102c-.103-.05-.281-.038-.358.026a.58.58 0 0 0-.038.204.28.28 0 0 1 .153.064.69.69 0 0 0 .217-.115c.013-.051.038-.128.026-.179Zm-.832.179c.128-.128.281-.192.434-.154a.392.392 0 0 0-.038.192.733.733 0 0 0-.396.077v-.115Z" fill="#00493D" stroke="#000" stroke-width=".038"/><path d="M25.116 4.997c-.116-.166-.397-.358-.588-.447 0 .012-.026.063-.039.102.077.115.23.37.294.511.064-.026.243-.102.332-.166Zm-.973.282a4.93 4.93 0 0 0 .038-.524c.064-.013.192-.052.243-.064.064.102.217.37.28.498-.152.038-.408.102-.561.09Zm-.445-.614a.964.964 0 0 0 .218-.128c.05.039.153.128.191.18 0 .114-.038.447-.05.562a.858.858 0 0 1-.359-.077c.013-.192.026-.409 0-.537Zm-.64.153a.548.548 0 0 0 .025-.153c.102-.064.358-.128.55-.026.012.128 0 .448-.013.524-.166-.127-.435-.306-.562-.345Z" fill="#00493D" stroke="#000" stroke-width=".038"/><path d="M22.418 4.588c-.026 0-.038-.076-.09-.076-.012 0-.05.013-.063 0a.1.1 0 0 0 .025.064c.013.038.077.012.128.012Z" fill="#000"/><path d="M22.418 4.805c.153 0 .179-.191.256-.204m-.167.217c.115.051.204-.217.294-.205m-.524-.127c.039 0 .064-.051.128.012a.138.138 0 0 0 .09.039m-.026.141c-.051.077-.14.128-.192.103m-.025-.423c-.039.026-.064.077-.09.115m-.038.077v.064" stroke="#000" stroke-width=".038"/><path d="M26.393 6.213v2.492c0 2.16-1.022 2.9-2.39 3.489-1.367-.588-2.402-1.33-2.402-3.49v-2.49h4.792Z" fill="#fff"/><path d="M24.003 8.321c.115 0 .294-.102.447-.255.167-.18.448-.243.742 0 .294.242.473.14.626 0 .153-.14.281-.192.575-.192V6.213H21.6v1.661c.294 0 .421.051.575.192.153.14.332.242.626 0 .307-.243.575-.18.754 0 .14.153.32.255.447.255Z" fill="#C8102E"/><path d="M24.004 9.6c.153 0 .46-.167.537-.205.281-.167.485-.013.652.064.178.076.51.166.715 0 .205-.167.32-.154.46-.154.026-.192.026-.383.026-.6V8.55c-.179-.038-.268.013-.46.18-.192.165-.41.127-.69.025-.269-.115-.537-.32-.805 0-.077.09-.256.217-.435.217-.192 0-.358-.128-.434-.217-.282-.32-.537-.115-.805 0-.282.102-.512.14-.703-.026-.18-.166-.269-.217-.46-.179v.153c0 .218.012.41.038.601.14 0 .243-.013.447.154.205.166.55.076.716 0 .179-.077.383-.23.664-.064.077.038.371.204.537.204Zm0 .548c.192 0 .422-.076.626-.191.256-.14.435-.077.69.05.269.129.486.09.64 0 .076-.05.14-.152.306-.114-.076.32-.191.6-.332.83-.256.064-.396.064-.665-.05-.268-.128-.6-.205-.78-.09a.973.973 0 0 1-.485.153.973.973 0 0 1-.485-.153c-.18-.115-.512-.038-.78.09-.268.114-.409.114-.665.05a2.893 2.893 0 0 1-.332-.83c.166-.039.23.064.307.115.14.09.37.128.626 0 .268-.128.447-.192.703-.051.204.115.434.191.626.191Zm.001 2.045c.511-.217.984-.46 1.367-.793-.102-.038-.166-.012-.255-.076-.09-.064-.358-.09-.588.038-.243.115-.345.14-.524.14-.179 0-.281-.025-.524-.14-.23-.128-.498-.102-.588-.038-.09.064-.153.038-.255.076.383.333.843.576 1.367.793Z" fill="#0B50A0"/><path d="M23.67 6.84c.012.025-.013.09 0 .115.025.05.025.076.063.102h.09c.28 0 .613-.115.894-.115.269 0 .435.09.588.09.09 0 .166-.064.166-.128s-.102-.103-.32-.103c-.306 0-.472.077-.728.077-.383 0-.447-.14-.447-.204 0-.064.064-.154.268-.154.064 0 .116-.013.141-.038a.286.286 0 0 1 .128-.115c.09-.051.268 0 .358-.064 0 .051-.077.128-.14.153.127-.038.267-.038.293.064-.064-.038-.166-.013-.204 0-.052.013-.077.026-.128.039.05-.013.076.089.153.089-.076.064-.204.064-.332.013-.039-.013-.14-.051-.205-.051-.127 0-.204.025-.204.076 0 .064.077.103.307.103.23 0 .357-.064.702-.064-.025-.039.013-.077-.038-.115.128 0 .269.038.32.127-.013-.089.064-.166.038-.242.077.012.14.09.153.153 0-.038.052-.038.052-.077a.197.197 0 0 1 .102.205c.038-.064.076-.039.102-.115.026.05.013.204-.077.255a.202.202 0 0 1 .269.039c-.077-.013-.115.025-.154.038-.153.09-.409.14-.6.128-.205-.013-.23-.051-.358-.051.076.013.23.166.37.166.09 0 .154 0 .192-.013.038-.013.102 0 .153.026.039.038.116.076.167.064-.013.05-.039.076-.077.089.064.038.026.064.09.115-.026 0-.052.026-.09.013.038.038.038.09.077.115-.013 0-.051.013-.077 0 .038.051 0 .115.038.14.039.052-.038.115-.102.064.013.039-.026.077-.064.064-.038-.013-.064-.05-.051-.064 0-.012 0-.012.013-.025-.026.038-.077.038-.102.025-.013-.012-.026-.025-.026-.038-.09.026-.128-.051-.115-.09.013-.038.09-.05.115-.038.026.013.051.026.077 0a.07.07 0 0 0 .038-.064c0-.038-.038-.153-.204-.14a2.116 2.116 0 0 1-.652-.09c-.013-.013-.026-.013-.038-.025 0 .05-.052.076-.052.127 0 .064.026.115.103.141-.039.064-.103.051-.128.013 0 .038-.051.064-.051.115-.013-.026-.026-.038-.039-.064-.038.09-.14.14-.191.115-.064.051-.141.038-.166-.013-.039.026-.09.026-.115 0 0 .039-.026.026-.039.077 0 .025-.051.038-.076.025-.026-.012-.039-.063-.013-.089-.039.026-.077.026-.103 0 0-.026 0-.064.026-.077h.026c-.026-.012-.064 0-.09-.012-.025-.026-.025-.052-.013-.077.013-.013.051-.038.077-.013l.013.013c0-.026.013-.051.025-.051.026-.013.064-.013.103.025.025.039.05.039.127.026.064 0 .166-.064.243-.128-.217-.038-.09-.179-.025-.23a.288.288 0 0 0-.18.013c-.268.14-.549.306-.728.255 0 .026.013.051.026.077-.039 0-.115 0-.14-.038-.014.025-.04.09-.014.14-.025-.025-.102-.05-.14-.064.025.026 0 .077.013.115-.039-.038-.103-.063-.128-.038a.123.123 0 0 1-.115.026.199.199 0 0 1-.102.076c0-.025 0-.064-.013-.076a.218.218 0 0 1-.102.115c0-.026 0-.064-.013-.09 0 .051-.102.077-.115.115.013-.038.013-.076.013-.102a.196.196 0 0 1-.128.09c.013-.026.025-.052.013-.077-.013.05-.09.076-.154.064 0 .025-.05.064-.115.025-.038-.013-.064-.05-.038-.076-.051 0-.102-.052-.077-.09 0-.013.013-.025.013-.038-.038-.026-.051-.077-.013-.115.013-.013.051-.013.077-.013 0-.102.09-.102.128-.026.025.039.102.103.166.09.025 0 .038-.013.064-.013.076-.026.23-.09.32-.166.012-.038.012-.064.012-.09-.051.026-.102.052-.128.09v-.038c-.038 0-.102-.013-.128-.013.013-.013.026-.077.052-.09a.41.41 0 0 1-.18-.012c.026-.026.026-.064.039-.103-.026.013-.09-.012-.14 0 .012-.038.025-.09.063-.102a.306.306 0 0 1-.179-.025c.051 0 .077-.064.115-.064-.102 0-.128-.051-.179-.077.039.013.064-.026.103-.026-.039-.012-.103-.076-.077-.115-.013.013-.026.039-.051.051-.026.013-.077 0-.115-.038-.026-.051-.013-.115.038-.128a.061.061 0 0 1-.038-.102c.013-.025.064-.064.09-.025.012.012.025.038.038.05-.013-.025-.013-.076-.013-.114.013-.039.038-.039.076-.051.039 0 .064.038.064.076 0 .039.013.064.026.115 0-.013.013-.038.013-.05 0-.052.064-.04.102-.026.038.012.051.089 0 .127-.026.026-.013.064.013.09.09.14.243.255.37.268 0-.05.026-.102.064-.14 0-.026.013-.064.026-.09.013-.077.051-.115.102-.09-.013-.012-.026-.025-.026-.038-.038-.038-.076-.102-.05-.153.025-.051.102-.038.127-.013-.013-.076.077-.14.077-.179.013.039.038.09.025.128.013-.051.103-.115.167-.14-.026.038.05.102.038.14.025-.064.128-.102.204-.102-.025.025-.025.077-.025.102.038 0 .102-.013.128-.051a.195.195 0 0 1-.052.128c.013-.013.064-.013.103-.013-.039.038-.026.077-.064.102.051-.025.115-.025.128.026.025.038-.013.102-.039.14-.025.013-.05.039-.064.039Z" fill="#F9D050" stroke="#000" stroke-width=".038"/><path d="M22.877 6.993c-.09.038-.115.128-.128.18" stroke="#000" stroke-width=".038"/><path d="M22.865 7.082c-.128.077-.18.14-.153.281m.217.103c.076-.025.128-.05.191-.166" stroke="#000" stroke-width=".038"/><path d="M23.083 7.351c-.025.051 0 .14-.038.179a.24.24 0 0 0 .128-.179" stroke="#000" stroke-width=".038"/><path d="M23.107 7.492a.421.421 0 0 0 .167-.192c-.013.038 0 .102-.026.14.064-.063.09-.102.102-.165 0 .012.013.038.013.05.026-.025.051-.05.051-.102m0 .039v.063c.051-.038.064-.089.064-.153" stroke="#000" stroke-width=".038"/><path d="M23.465 7.248c.076-.05.09-.128.09-.243m.001.128c.05-.038.064-.064.064-.179m-.167-.344c-.026 0-.051.012-.051.05 0 .026-.039.065-.039.103-.012.051-.038.064-.076.051-.038-.026-.038-.026-.038-.064 0-.051.063-.064.063-.115.013-.025.026-.064.039-.064-.064.039-.154.013-.166-.064" stroke="#000" stroke-width=".038"/><path d="M23.567 6.648c-.025.013-.05-.026-.089-.013-.013 0-.051.013-.064 0" stroke="#000" stroke-width=".038"/><path d="M23.39 6.712c.012.013.076.038.14.013-.05.012-.09-.051-.038-.09m-.219-.051c-.05 0-.089.038-.076.077.013.038.064.038.102.012m-.114.55a.097.097 0 0 0 .025-.051.098.098 0 0 0 .064-.026.11.11 0 0 0 .102-.076c.026 0 .039-.064.051-.09.013.013.039 0 .052-.05.025.012.063 0 .076-.04m-.525-.089c0 .013-.026.038-.051.051.012.026 0 .09-.026.102.013.026 0 .064-.013.09 0 .013.013.051.013.064m.129-.562c-.025.064-.013.14.038.153" stroke="#000" stroke-width=".038"/><path d="M23.107 6.75c-.012.064-.012.153-.025.191-.013.026-.038.115.064.141.115.026.179.013.242-.179m.193.499c0 .013-.012.039-.038.039m.127-.064c0 .025-.025.064-.038.076m.127-.102c0 .026 0 .064-.026.077m-.753-.869c.013 0 .026.025.038.05-.038-.025-.076.039-.05.077m-.026.089c-.013.013-.039.026-.051.039m.012.076c-.013 0-.026.014-.039.014m-.574-.242c0-.014 0-.014.012-.027m-.127-.012c-.013 0-.013 0-.027-.013m.038.191h.027m-.077-.076a.14.14 0 0 0-.076-.039m.779.512c-.09.076-.128.14-.14.23m.231-.167a.302.302 0 0 1-.103.115m-.395.269a.294.294 0 0 1-.256-.038c-.013-.013-.025-.013-.038-.026m.676-.115c-.013.051-.026.115-.051.128.102-.051.191-.128.204-.243m-.894.358c.039-.013.077.012.102-.013m2.121-.409c.026.013.064.026.077.038a.217.217 0 0 1 .102-.076m-1.086.306c-.013-.051.013-.115.09-.14m-.589.358c.013-.026.013-.064.026-.09m-.589.127c-.012.026-.038.051-.038.077m-.151-.051s0-.013.012-.013c.026-.013.064-.038.077-.064m1.647-.101c-.025.012-.038 0-.05-.013m.038.076s-.013.014-.026.014m.09.051c-.013.013-.025.025-.038.025m.408-.001c.026-.012.038-.037.051-.089m-.217.077a.264.264 0 0 0 .102-.077m.255-.025c0-.026 0-.051.013-.077m.934.192c-.026-.025-.026-.064.013-.09.025-.012.038-.025.064-.037" stroke="#000" stroke-width=".038"/><path d="M24.654 7.364c-.205-.09-.192-.205-.358-.192m1.265.588c.013.012 0 .05 0 .063m.116-.063c-.013.038-.013.05-.013.089m-.972-1.29h-.102m-.972.434c0 .026.039.077.14.077-.012 0-.025-.013-.025-.013m-.063-.217c-.012.013-.025 0-.025 0-.025-.025.013-.077.051-.102-.038.013-.064.013-.09.013-.025.076-.101.115-.152.064-.013.05-.077.115-.128.102-.051-.026-.064-.064-.051-.102-.064.076-.14.025-.166 0-.013-.026 0-.09.025-.167" stroke="#000" stroke-width=".038"/><path d="M24.489 7.326c-.039.025-.077 0-.115.038-.026.026.012.038.038.038-.013.039-.013.051.051.051-.025.039.051.052.038.103a.122.122 0 0 0 .026-.128c-.013-.038-.077-.064-.038-.102Z" fill="#000"/><path d="M23.326 6.916c-.051-.025-.064-.063-.051-.102a.07.07 0 0 1-.064.039c-.051.115-.115.217-.192.217-.09.013-.077.102-.013.102.14.026.205-.026.32-.256ZM22.06 6.61c.039-.038.013-.077-.012-.09a.141.141 0 0 0-.153.064c.038-.012.076-.012.089.013.013.026.038.051.077.013Zm.064-.23c.09 0 .115.012.128.05.013.026-.013.065-.038.065-.039 0-.077-.026-.064-.039.012-.025.012-.064-.026-.076Zm.256.204c.064.013.09-.026.051-.077-.012-.038-.05-.064-.115-.051.064.038 0 .102.064.128Zm-.472.218c.038.064.102.064.128.05.038-.012.051-.05.038-.076-.025-.038-.064-.051-.076 0-.026.051-.064.038-.09.026Zm.191.778c-.026-.05-.102-.05-.166 0 .025-.012.076 0 .09.026.012.026.037.026.05.026.013-.013.038-.026.026-.051Zm.103-.075c0-.064-.09-.077-.14-.051.025 0 .063.025.063.05.013.026.039.039.052.039.025-.013.038-.026.025-.038Zm-.128.229c-.077-.013-.115.077-.115.14.013-.038.051-.063.09-.05.038 0 .05-.013.05-.039.013-.025 0-.038-.025-.05Zm.012.218c.026.013.051-.013.064-.051 0-.026.051-.026.064-.013.025.013.025.064-.013.09-.026.012-.09.025-.115-.026Zm1.777-.384c-.025-.012-.09-.038-.14 0 .038-.012.064.013.076.039 0 .025.039.038.052.012.012-.012.025-.038.012-.05Zm-.115.089c-.051-.025-.115.039-.128.09a.19.19 0 0 1 .09-.039c.025.013.05 0 .05-.025.013-.013.013-.026-.012-.026Zm.064.103c-.038 0-.09.051-.09.102.013-.025.039-.038.065-.025.025 0 .064-.013.064-.038 0-.026-.013-.039-.039-.039Zm.113.102c-.025-.013-.064 0-.064.038s0 .077-.012.09a.252.252 0 0 1 .076-.052c.013-.012.026-.05 0-.076Zm1.445-.115c-.025-.026-.063-.013-.076.013a.176.176 0 0 0 0 .14c0-.025.026-.064.051-.064.039-.012.051-.064.026-.09Zm.078.052c-.05.025-.05.115-.012.166 0-.026.012-.064.038-.077.038 0 .051-.051.038-.077-.025-.025-.05-.012-.064-.012Zm.152.05c-.025-.013-.05.013-.05.038-.014.039.012.09.05.115 0-.025.013-.05.026-.064.038-.025.025-.076-.026-.09Zm.117-.012c-.026 0-.051.038-.026.077.013.025.039.038.09.025-.013 0-.039-.038-.026-.051.013-.026 0-.051-.038-.051Z" fill="#073163"/><path d="m22.16 10.225.64-1.968.639 1.968-1.674-1.214h2.07l-1.674 1.214Z" fill="#F9D050"/><path d="m22.29 10.046 1.328-.971h-1.636l1.317.971-.499-1.559-.51 1.56Z" fill="#024919"/><path d="M26.393 6.213v2.492c0 2.16-1.022 2.9-2.39 3.489-1.367-.588-2.402-1.33-2.402-3.49v-2.49h4.792Z" stroke="#000" stroke-width=".038"/></g><defs><clipPath id="a"><rect width="32" height="16" rx="2" fill="#fff"/></clipPath></defs></svg>