<svg width="24" height="16" fill="none" xmlns="http://www.w3.org/2000/svg"><rect width="24" height="16" rx="2" fill="#0D47A1"/><mask id="a" style="mask-type:alpha" maskUnits="userSpaceOnUse" x="0" y="0" width="12" height="8"><path d="M11 0H1a1 1 0 0 0-1 1v6a1 1 0 0 0 1 1h10a1 1 0 0 0 1-1V1a1 1 0 0 0-1-1Z" fill="#fff"/></mask><g mask="url(#a)"><path d="M11 0H1a1 1 0 0 0-1 1v6a1 1 0 0 0 1 1h10a1 1 0 0 0 1-1V1a1 1 0 0 0-1-1Z" fill="#0D47A1"/><path d="M11.988.769A.903.903 0 0 0 11.1.007h-.234l-3.833 2.55V.008H4.966v2.55L1.133.008H.899A.903.903 0 0 0 .012.77l3.276 2.18H0v2.102h3.288L.012 7.231a.903.903 0 0 0 .887.762h.234l3.833-2.55v2.55h2.068v-2.55l3.833 2.55h.234c.446 0 .816-.33.887-.762l-3.276-2.18H12V2.949H8.712L11.988.77Z" fill="#fff"/><path d="M6.62.007v3.362H12v1.262H6.62v3.362H5.38V4.631H0V3.369h5.38V.007h1.24ZM4.955 5.05.581 7.935a.896.896 0 0 1-.303-.195l-.062-.066 3.978-2.623h.76Zm3.164 0 3.764 2.482a.914.914 0 0 1-.22.26l-.068.05L7.359 5.05h.76ZM.363.187l4.189 2.762h-.76L.095.511A.913.913 0 0 1 .363.187ZM11.412.063a.9.9 0 0 1 .368.258L7.795 2.95h-.76L11.411.063Z" fill="#F44336"/><path fill-rule="evenodd" clip-rule="evenodd" d="M11 .5H1a.5.5 0 0 0-.5.5v6a.5.5 0 0 0 .5.5h10a.5.5 0 0 0 .5-.5V1a.5.5 0 0 0-.5-.5ZM1 0a1 1 0 0 0-1 1v6a1 1 0 0 0 1 1h10a1 1 0 0 0 1-1V1a1 1 0 0 0-1-1H1Z" fill="#000" fill-opacity=".04"/></g><g clip-path="url(#b)"><path d="m15.813 5.047 4.797-.028V9.33c.009.56-.933 1.13-2.408 1.857-1.52-.784-2.398-1.26-2.407-1.866l.018-4.274Z" fill="#006129" stroke="#000" stroke-width=".038"/><path d="m16.466 5.684.283-.416.285.417" stroke="#F7C600" stroke-width=".038"/><path d="M16.806 5.529a.056.056 0 1 1-.112 0 .056.056 0 0 1 .112 0Z" fill="#F7C600" stroke="#000" stroke-width=".019"/><path d="m16.52 5.991.438.001s.007-.057-.046-.091c.23-.032.17-.235.363-.246.037.006-.1.086-.1.086s-.117.082-.064.124c.042.033.06-.02.066-.06.006-.04.187-.067.161-.182-.043-.094-.296.064-.296.064l-.18-.001c-.011-.02-.061-.102-.112-.102-.061.002-.104.103-.104.103h-.408s-.014.104.192.124a.25.25 0 0 0 .124.094c-.027.022-.035.05-.035.086Z" fill="#F7C600" stroke="#000" stroke-width=".019"/><path d="m16.551 5.902.366-.001-.366.001Z" fill="#F7C600"/><path d="m16.551 5.902.366-.001" stroke="#000" stroke-width=".019"/><path d="M16.383 5.687s.03.17.165.211l-.165-.211Z" fill="#F7C600"/><path d="M16.383 5.687s.03.17.165.211" stroke="#000" stroke-width=".019"/><path d="M16.36 5.684c.014-.065.04-.076.066-.16.005-.08-.065-.071-.045-.123.036-.056.018-.11-.05-.153.014.074-.087.144-.087.205 0 .06.052.047.045.139.004.054-.014.04-.018.092h.09Z" fill="url(#c)" stroke="#000" stroke-width=".019"/><path d="M16.802 5.279a.052.052 0 1 1-.104 0 .052.052 0 0 1 .104 0Z" fill="#F7C600" stroke="#000" stroke-width=".019"/><path d="m16.45 6.514.284-.416.284.417" stroke="#F7C600" stroke-width=".038"/><path d="M16.79 6.358a.056.056 0 1 1-.112 0 .056.056 0 0 1 .113 0Z" fill="#F7C600" stroke="#000" stroke-width=".019"/><path d="m16.504 6.821.439.001s.007-.057-.046-.091c.23-.032.17-.235.363-.246.037.006-.101.086-.101.086s-.116.082-.063.124c.042.033.06-.02.066-.06.006-.041.187-.067.16-.182-.042-.095-.295.063-.295.063h-.18c-.012-.02-.062-.102-.113-.102-.06.002-.104.102-.104.102h-.408s-.014.105.193.125a.253.253 0 0 0 .123.094c-.027.022-.034.05-.034.086Z" fill="#F7C600" stroke="#000" stroke-width=".019"/><path d="m16.535 6.732.366-.002-.366.002Z" fill="#F7C600"/><path d="m16.535 6.732.366-.002" stroke="#000" stroke-width=".019"/><path d="M16.368 6.516s.03.171.164.212l-.164-.212Z" fill="#F7C600"/><path d="M16.368 6.516s.03.171.164.212" stroke="#000" stroke-width=".019"/><path d="M16.346 6.514c.013-.065.038-.076.065-.16.004-.08-.066-.072-.045-.123.036-.057.018-.11-.05-.153.014.074-.087.144-.087.204 0 .061.051.048.044.14.005.054-.013.04-.017.092h.09Z" fill="url(#d)" stroke="#000" stroke-width=".019"/><path d="M16.786 6.109a.052.052 0 1 1-.103 0 .052.052 0 0 1 .103 0Z" fill="#F7C600" stroke="#000" stroke-width=".019"/><path d="m16.444 7.331.283-.415.285.416" stroke="#F7C600" stroke-width=".038"/><path d="M16.784 7.176a.056.056 0 1 1-.112 0 .056.056 0 0 1 .112 0Z" fill="#F7C600" stroke="#000" stroke-width=".019"/><path d="M16.497 7.639h.44s.006-.056-.047-.09c.23-.032.17-.235.363-.247.038.006-.1.087-.1.087s-.116.082-.063.123c.041.033.06-.02.066-.06.005-.04.186-.066.16-.181-.043-.095-.296.063-.296.063l-.18-.001c-.011-.02-.06-.101-.112-.102-.061.002-.104.103-.104.103h-.408s-.014.105.193.125c.046.06.082.078.123.093-.027.023-.035.05-.035.087Z" fill="#F7C600" stroke="#000" stroke-width=".019"/><path d="m16.53 7.55.365-.002-.366.001Z" fill="#F7C600"/><path d="m16.53 7.55.365-.002" stroke="#000" stroke-width=".019"/><path d="M16.362 7.334s.03.171.164.211l-.164-.211Z" fill="#F7C600"/><path d="M16.362 7.334s.03.171.164.211" stroke="#000" stroke-width=".019"/><path d="M16.34 7.332c.013-.066.037-.077.064-.16.005-.081-.065-.072-.045-.124.036-.056.018-.11-.05-.153.014.075-.087.144-.087.205 0 .06.052.047.045.14.005.053-.013.04-.018.092h.09Z" fill="url(#e)" stroke="#000" stroke-width=".019"/><path d="M16.78 6.926a.052.052 0 1 1-.104 0 .052.052 0 0 1 .104 0Z" fill="#F7C600" stroke="#000" stroke-width=".019"/><path d="m16.98 8.217.284-.416.284.417" stroke="#F7C600" stroke-width=".038"/><path d="M17.32 8.061a.056.056 0 1 1-.112 0 .056.056 0 0 1 .113 0Z" fill="#F7C600" stroke="#000" stroke-width=".019"/><path d="m17.034 8.524.439.001s.007-.057-.046-.091c.23-.032.17-.235.363-.246.037.005-.1.086-.1.086s-.117.082-.064.123c.042.034.06-.02.066-.06.006-.04.187-.066.161-.18-.043-.096-.296.062-.296.062h-.18c-.012-.021-.061-.102-.113-.103-.06.003-.104.103-.104.103h-.408s-.014.105.193.125a.26.26 0 0 0 .123.094c-.027.022-.034.05-.034.086Z" fill="#F7C600" stroke="#000" stroke-width=".019"/><path d="m17.066 8.435.365-.001h-.365Z" fill="#F7C600"/><path d="m17.066 8.435.365-.001" stroke="#000" stroke-width=".019"/><path d="M16.898 8.22s.03.17.164.21l-.164-.21Z" fill="#F7C600"/><path d="M16.898 8.22s.03.17.164.21" stroke="#000" stroke-width=".019"/><path d="M16.876 8.217c.013-.065.038-.077.065-.16.005-.08-.065-.072-.045-.124.036-.056.018-.11-.05-.152.014.074-.087.143-.087.204s.052.047.045.14c.004.054-.014.04-.018.092h.09Z" fill="url(#f)" stroke="#000" stroke-width=".019"/><path d="M17.316 7.812a.052.052 0 1 1-.103 0 .052.052 0 0 1 .103 0Z" fill="#F7C600" stroke="#000" stroke-width=".019"/><path d="m16.374 8.941.283-.416.285.417" stroke="#F7C600" stroke-width=".038"/><path d="M16.714 8.786a.056.056 0 1 1-.112 0 .056.056 0 0 1 .112 0Z" fill="#F7C600" stroke="#000" stroke-width=".019"/><path d="m16.427 9.248.44.001s.006-.056-.047-.091c.23-.032.17-.234.363-.246.037.006-.1.086-.1.086s-.117.082-.064.124c.042.033.06-.02.066-.06.006-.04.187-.067.161-.182-.043-.094-.296.064-.296.064l-.18-.001c-.011-.02-.061-.102-.112-.102-.061.002-.104.103-.104.103h-.408s-.014.104.193.124a.245.245 0 0 0 .123.094c-.027.023-.035.05-.035.086Z" fill="#F7C600" stroke="#000" stroke-width=".019"/><path d="m16.46 9.16.365-.002-.366.001Z" fill="#F7C600"/><path d="m16.46 9.16.365-.002" stroke="#000" stroke-width=".019"/><path d="M16.291 8.944s.03.17.165.211l-.165-.211Z" fill="#F7C600"/><path d="M16.291 8.944s.03.17.165.211" stroke="#000" stroke-width=".019"/><path d="M16.27 8.941c.013-.065.037-.076.064-.16.005-.08-.065-.071-.045-.123.036-.056.018-.11-.05-.153.014.074-.087.144-.087.205 0 .06.052.047.045.14.005.053-.013.04-.018.091h.09Z" fill="url(#g)" stroke="#000" stroke-width=".019"/><path d="M16.71 8.536a.052.052 0 1 1-.104 0 .052.052 0 0 1 .104 0Z" fill="#F7C600" stroke="#000" stroke-width=".019"/><path d="m16.39 9.797.283-.416.285.417" stroke="#F7C600" stroke-width=".038"/><path d="M16.73 9.642a.056.056 0 1 1-.112 0 .056.056 0 0 1 .112 0Z" fill="#F7C600" stroke="#000" stroke-width=".019"/><path d="m16.443 10.104.44.002s.006-.057-.046-.092c.23-.032.17-.234.362-.246.037.006-.1.086-.1.086s-.116.082-.064.124c.042.033.06-.02.067-.06.005-.04.186-.067.16-.182-.043-.094-.296.064-.296.064l-.18-.001c-.011-.02-.061-.102-.112-.102-.061.002-.104.103-.104.103h-.408s-.014.104.193.124a.245.245 0 0 0 .123.094c-.027.022-.035.05-.035.086Z" fill="#F7C600" stroke="#000" stroke-width=".019"/><path d="m16.475 10.015.366-.001h-.366Z" fill="#F7C600"/><path d="m16.475 10.015.366-.001" stroke="#000" stroke-width=".019"/><path d="M16.308 9.8s.029.17.164.211l-.164-.211Z" fill="#F7C600"/><path d="M16.308 9.8s.029.17.164.211" stroke="#000" stroke-width=".019"/><path d="M16.285 9.797c.014-.065.038-.076.065-.16.005-.08-.065-.071-.045-.123.036-.056.018-.11-.05-.153.014.074-.087.144-.087.205 0 .06.052.047.045.139.005.054-.013.04-.018.092h.09Z" fill="url(#h)" stroke="#000" stroke-width=".019"/><path d="M16.726 9.392a.052.052 0 1 1-.104 0 .052.052 0 0 1 .104 0Z" fill="#F7C600" stroke="#000" stroke-width=".019"/><path d="m19.404 5.698.283-.416.285.417" stroke="#F7C600" stroke-width=".038"/><path d="M19.744 5.542a.056.056 0 1 1-.112 0 .056.056 0 0 1 .112 0Z" fill="#F7C600" stroke="#000" stroke-width=".019"/><path d="m19.457 6.005.44.001s.006-.057-.046-.091c.23-.032.17-.235.362-.246.038.005-.1.086-.1.086s-.116.082-.064.123c.042.033.06-.02.067-.06.005-.04.186-.066.16-.181-.043-.095-.296.063-.296.063h-.18c-.011-.021-.06-.102-.112-.103-.061.003-.104.103-.104.103h-.408s-.014.105.193.125a.25.25 0 0 0 .123.094c-.027.022-.035.05-.035.086Z" fill="#F7C600" stroke="#000" stroke-width=".019"/><path d="m19.49 5.916.365-.001h-.366Z" fill="#F7C600"/><path d="m19.49 5.916.365-.001" stroke="#000" stroke-width=".019"/><path d="M19.322 5.7s.029.171.164.212l-.164-.212Z" fill="#F7C600"/><path d="M19.322 5.7s.029.171.164.212" stroke="#000" stroke-width=".019"/><path d="M19.3 5.698c.013-.065.037-.076.064-.16.005-.08-.065-.072-.045-.123.036-.057.018-.11-.05-.153.014.074-.087.144-.087.204 0 .061.052.048.045.14.005.054-.013.04-.018.092h.09Z" fill="url(#i)" stroke="#000" stroke-width=".019"/><path d="M19.74 5.293a.052.052 0 1 1-.104 0 .052.052 0 0 1 .104 0Z" fill="#F7C600" stroke="#000" stroke-width=".019"/><path d="m19.377 6.512.283-.416.285.417" stroke="#F7C600" stroke-width=".038"/><path d="M19.717 6.357a.056.056 0 1 1-.112 0 .056.056 0 0 1 .112 0Z" fill="#F7C600" stroke="#000" stroke-width=".019"/><path d="M19.43 6.82h.44s.006-.056-.047-.091c.23-.032.17-.234.363-.246.038.006-.1.086-.1.086s-.116.082-.064.124c.042.033.06-.02.066-.06.006-.04.187-.067.161-.182-.043-.094-.296.064-.296.064l-.18-.001c-.011-.02-.061-.102-.112-.102-.061.002-.104.103-.104.103h-.408s-.014.104.193.124a.245.245 0 0 0 .123.094c-.027.023-.035.05-.035.086Z" fill="#F7C600" stroke="#000" stroke-width=".019"/><path d="m19.462 6.73.366-.001-.366.001Z" fill="#F7C600"/><path d="m19.462 6.73.366-.001" stroke="#000" stroke-width=".019"/><path d="M19.294 6.515s.03.17.165.211l-.165-.211Z" fill="#F7C600"/><path d="M19.294 6.515s.03.17.165.211" stroke="#000" stroke-width=".019"/><path d="M19.272 6.512c.014-.065.038-.076.065-.16.005-.08-.065-.071-.045-.123.036-.056.018-.11-.05-.153.014.074-.087.144-.087.205 0 .06.052.047.045.14.005.053-.014.04-.018.091h.09Z" fill="url(#j)" stroke="#000" stroke-width=".019"/><path d="M19.713 6.107a.052.052 0 1 1-.104 0 .052.052 0 0 1 .104 0Z" fill="#F7C600" stroke="#000" stroke-width=".019"/><path d="m19.341 7.344.283-.415.285.416" stroke="#F7C600" stroke-width=".038"/><path d="M19.681 7.189a.056.056 0 1 1-.112 0 .056.056 0 0 1 .112 0Z" fill="#F7C600" stroke="#000" stroke-width=".019"/><path d="m19.395 7.652.438.001s.007-.057-.045-.092c.23-.031.17-.234.362-.245.038.005-.1.086-.1.086s-.116.082-.064.123c.042.033.06-.02.066-.06.006-.04.187-.066.161-.181-.043-.095-.296.063-.296.063h-.18c-.011-.021-.06-.102-.112-.103-.061.003-.104.103-.104.103h-.408s-.014.105.193.125a.25.25 0 0 0 .123.094c-.027.022-.035.05-.034.086Z" fill="#F7C600" stroke="#000" stroke-width=".019"/><path d="m19.426 7.563.366-.002-.366.002Z" fill="#F7C600"/><path d="m19.426 7.563.366-.002" stroke="#000" stroke-width=".019"/><path d="M19.259 7.347s.029.17.164.211l-.164-.211Z" fill="#F7C600"/><path d="M19.259 7.347s.029.17.164.211" stroke="#000" stroke-width=".019"/><path d="M19.236 7.345c.014-.065.038-.077.065-.16.005-.08-.065-.072-.045-.124.036-.056.018-.11-.05-.153.014.075-.087.144-.087.205 0 .06.052.047.045.14.005.054-.013.04-.018.092h.09Z" fill="url(#k)" stroke="#000" stroke-width=".019"/><path d="M19.677 6.94a.052.052 0 1 1-.103 0 .052.052 0 0 1 .103 0Z" fill="#F7C600" stroke="#000" stroke-width=".019"/><path d="m19.382 8.163.283-.415.284.416" stroke="#F7C600" stroke-width=".038"/><path d="M19.722 8.008a.056.056 0 1 1-.113 0 .056.056 0 0 1 .113 0Z" fill="#F7C600" stroke="#000" stroke-width=".019"/><path d="m19.435 8.47.439.002s.007-.057-.046-.092c.23-.032.17-.234.363-.246.037.006-.101.086-.101.086s-.116.082-.063.124c.042.033.06-.02.066-.06.006-.04.187-.066.16-.181-.042-.095-.295.063-.295.063l-.18-.001c-.012-.02-.062-.102-.113-.102-.06.002-.104.103-.104.103h-.408s-.014.104.193.125c.047.06.083.077.123.093-.027.023-.034.05-.034.086Z" fill="#F7C600" stroke="#000" stroke-width=".019"/><path d="m19.467 8.381.365-.001-.365.001Z" fill="#F7C600"/><path d="m19.467 8.381.365-.001" stroke="#000" stroke-width=".019"/><path d="M19.3 8.166s.028.17.163.211l-.164-.211Z" fill="#F7C600"/><path d="M19.3 8.166s.028.17.163.211" stroke="#000" stroke-width=".019"/><path d="M19.276 8.163c.014-.065.039-.076.066-.16.004-.08-.066-.071-.045-.123.036-.056.018-.11-.05-.153.014.074-.087.144-.087.205 0 .06.051.047.044.14.005.053-.013.04-.018.091h.09Z" fill="url(#l)" stroke="#000" stroke-width=".019"/><path d="M19.717 7.758a.052.052 0 1 1-.103 0 .052.052 0 0 1 .103 0Z" fill="#F7C600" stroke="#000" stroke-width=".019"/><path d="m19.373 8.982.283-.416.284.417" stroke="#F7C600" stroke-width=".038"/><path d="M19.713 8.827a.056.056 0 1 1-.113 0 .056.056 0 0 1 .113 0Z" fill="#F7C600" stroke="#000" stroke-width=".019"/><path d="M19.426 9.29h.439s.007-.056-.046-.091c.23-.032.17-.234.363-.246.037.006-.1.086-.1.086s-.117.082-.064.124c.042.033.06-.02.066-.06.006-.04.187-.067.16-.182-.042-.094-.295.064-.295.064l-.18-.001c-.012-.02-.061-.102-.113-.102-.06.002-.104.103-.104.103h-.408s-.014.104.193.124a.253.253 0 0 0 .123.094c-.027.023-.034.05-.034.086Z" fill="#F7C600" stroke="#000" stroke-width=".019"/><path d="m19.458 9.2.365-.001-.365.001Z" fill="#F7C600"/><path d="m19.458 9.2.365-.001" stroke="#000" stroke-width=".019"/><path d="M19.29 8.984s.03.171.164.212l-.164-.212Z" fill="#F7C600"/><path d="M19.29 8.984s.03.171.164.212" stroke="#000" stroke-width=".019"/><path d="M19.268 8.982c.013-.065.038-.076.065-.16.004-.08-.065-.072-.045-.123.036-.057.018-.11-.05-.153.014.074-.087.144-.087.204 0 .061.051.048.045.14.004.054-.014.04-.018.092h.09Z" fill="url(#m)" stroke="#000" stroke-width=".019"/><path d="M19.708 8.577a.052.052 0 1 1-.103 0 .052.052 0 0 1 .103 0Z" fill="#F7C600" stroke="#000" stroke-width=".019"/><path d="m19.377 9.806.283-.416.285.417" stroke="#F7C600" stroke-width=".038"/><path d="M19.717 9.65a.056.056 0 1 1-.112 0 .056.056 0 0 1 .112 0Z" fill="#F7C600" stroke="#000" stroke-width=".019"/><path d="m19.43 10.113.44.001s.006-.057-.047-.092c.23-.031.17-.234.363-.245.038.005-.1.086-.1.086s-.116.082-.064.123c.042.033.06-.02.066-.06.006-.04.187-.066.161-.181-.043-.095-.296.063-.296.063h-.18c-.011-.021-.061-.102-.112-.103-.061.003-.104.103-.104.103h-.408s-.014.105.193.125a.25.25 0 0 0 .123.094c-.027.022-.035.05-.035.086Z" fill="#F7C600" stroke="#000" stroke-width=".019"/><path d="m19.462 10.024.366-.002-.366.002Z" fill="#F7C600"/><path d="m19.462 10.024.366-.002" stroke="#000" stroke-width=".019"/><path d="M19.294 9.808s.03.17.165.211l-.165-.211Z" fill="#F7C600"/><path d="M19.294 9.808s.03.17.165.211" stroke="#000" stroke-width=".019"/><path d="M19.272 9.806c.014-.065.038-.077.065-.16.005-.08-.065-.072-.045-.124.036-.056.018-.11-.05-.153.014.075-.087.144-.087.205 0 .06.052.047.045.14.005.054-.014.04-.018.092h.09Z" fill="url(#n)" stroke="#000" stroke-width=".019"/><path d="M19.713 9.4a.052.052 0 1 1-.104 0 .052.052 0 0 1 .104 0Zm-1.217.793s.114.264.245.102c.13-.162.082-.232.082-.232l-.292-.16-.086.182.05.108Z" fill="#F7C600" stroke="#000" stroke-width=".019"/><path d="M18.747 10.158s.02.003.035-.025c.016-.03-.035-.042-.057-.074l-.026.051.048.048Zm-.662-.07-.257.14s-.128.026-.137 0c-.01-.025.003-.048.07-.05.067-.004.248-.17.248-.17l.076.08Zm.004-4.578.01.092c.002.032-.052.099-.055.096-.003-.003-.029.003-.025.022.003.02.04.025.04.025s-.015.067 0 .07c.017.004-.04.086 0 .109.042.022.112.05.144.044.032-.006 0 .124 0 .124l-.089.191.49-.05-.102-.163s-.047-.032-.035-.124a6.121 6.121 0 0 0-.006-.51l-.35-.047-.022.121ZM18 6.235s-.16.073-.153.27c-.042.191-.064.382-.064.382s-.188.213-.245.29c-.057.076-.143.232-.175.273-.032.042-.156.179-.153.23.003.05-.028.276.096.302.032.012.133-.261.133-.261s.007-.118-.028-.14c-.035-.022.076-.099.076-.099s.213-.156.261-.194c.048-.038.178-.184.178-.184L18 6.235Z" fill="#FFC6B5" stroke="#000" stroke-width=".019"/><path d="M18.18 6.086s.042.111.134.092c.093-.019.2-.105.2-.105s.087-.003.1.01c.012.012.232.226.225.292-.006.067-.101.048-.136.093-.035.044-.093.155-.077.238.016.083.064.191.057.232-.006.042-.041.055-.041.077s.029.06.029.102c0 .041-.038.101-.032.143.006.041.01.162.01.162l-.01.56s.032.02.035.05c.003.033.216.958.216.958s-.01.03-.032.026c-.022-.003.086.143.09.184.003.042.11.366.108.41a.507.507 0 0 1-.029.147c-.01.003.07.204.057.236-.012.031-.143.028-.143.028l-.035-.006s.003.041-.022.044c-.026.004-.213-.01-.213-.01s-.055.084-.086.08c-.032-.003-.073-.06-.083-.05-.01.01.029.063.02.08-.01.015-.173.05-.204-.026-.032-.077.019-.058.009-.073-.01-.016-.083-.058-.105-.045-.022.013.057.032.054.064-.003.031-.07.08-.095.08-.026 0-.086-.119-.175-.106-.09.013-.147.035-.147.035s-.105.045-.15.035c-.044-.01-.063-.044-.063-.063 0-.02.032-.102.029-.128-.003-.025-.029-.05-.029-.089 0-.038.073-.168.073-.168l-.003-.586s-.067 0-.07-.041a19.14 19.14 0 0 1 .118-.983c.016-.058.057-.261.057-.261s-.048.022-.05 0a11.19 11.19 0 0 1 .142-.528s.026-.252.026-.318c0-.067-.013-.16-.013-.16s-.13-.055-.133-.14c-.012-.134.124-.21.14-.254l.063-.178s.07-.121.185-.14Z" fill="#fff" stroke="#000" stroke-width=".019"/><path d="M18.133 10.126s-.309.162-.353.175c-.045.013-.073-.054-.029-.067.045-.012.115-.019.115-.019s-.105-.082-.102-.086c.003-.003.143-.054.146-.054.003 0 .045.083.073.077a.569.569 0 0 0 .112-.07l.038.044Z" fill="#F7C600" stroke="#000" stroke-width=".019"/><path d="M18.568 10.215c.029.038.04.103.107.065.067-.038-.034-.11-.034-.11l-.073.045Z" fill="#FFC6B5" stroke="#000" stroke-width=".019"/><path d="M18.69 10.209s.031.025.06-.003c.029-.029-.057-.09-.057-.09l-.042.048.039.045Zm.137-3.819c.003 0 .105.315.117.394.013.08.054.398.039.443-.016.044-.179.257-.198.311-.019.054-.133.261-.133.261s-.029.204-.042.213c-.012.01.033.06.029.077-.006.019-.092.108-.13.098-.039-.01-.1-.054-.102-.095-.004-.041.003-.178.031-.213.03-.035.179-.388.188-.41.01-.023.137-.3.14-.347a.338.338 0 0 0-.084-.199c-.1-.295-.061-.472.145-.533Z" fill="#FFC6B5" stroke="#000" stroke-width=".019"/><path d="M18.079 5.49s.07.01.108-.012c.038-.022.083-.032.115.013.031.044.054.041.054.041s-.048.118 0 .13c.047.013.07.013.073.03.003.015-.041.05-.029.066.013.016.035.035.038.048.004.012-.028.066-.019.08.01.012.038.063.058.063.019 0 .006.08.063.06.057-.019.054-.07.054-.07s.06-.01.077-.063c.015-.054.054-.067.054-.067s.076-.042-.026-.105c0-.446-.293-.398-.293-.398s-.034-.08-.092-.07c-.057.01-.06.077-.102.07-.04-.006-.05-.035-.054-.032a.335.335 0 0 0-.038.083c0 .016-.111-.022-.102.06.01.083.064.08.06.074Z" fill="#9C5100" stroke="#000" stroke-width=".019"/><path d="M18.594 6.21s-.283.181-.276.245m.34-.214s-.064.07-.067.07m.153.007s-.14.114-.118.188m-.544-.312s-.041.085-.032.114c.01.029.08.137.09.204.009.067 0 .114 0 .114m-.13-.273s.012.102.031.12c.02.02.07.106.076.14m-.134.163s.083.041.16-.118m.124-.111c-.003 0-.06.156.041.213.102.058.178.051.223.035a.674.674 0 0 0 .092-.044m-.401-.013s.006.21.315.417m-.302-.22s-.003.185.117.267m-.181-.483s-.092.273-.165.302m.137-.101s-.003.196-.029.266m-.025.048s.063.08.133.073c.07-.006.099-.089.147-.076.047.013.092.051.203.041m-.159.083s0 .162.029.178c.028.016.016.166.016.166m-.433-.42s-.003.152-.022.206c-.02.054-.058.147-.051.226m-.122.089a.454.454 0 0 0 .07-.054m.03.035s-.137.586-.1.936m.131-.907s-.07.44-.038.522m.003-.535.268.02m.038-.036s.073.039.175.032m-.207.182s-.013.75-.032.916m.423-.745s.083.659.13.72m-.289-.637s.051.582.08.633m-.802.204s.099-.032.188-.127c.102.136.257.006.257.006s.242.165.35-.02c.166.109.248-.015.248-.015s.06.092.105.083m-.264.063s.124.583.309.748" stroke="#000" stroke-width=".019"/><path d="M17.955 9.016s.016.486.045.83m-.067-.28s-.016.318-.035.34m-.153.032s.035.137.21.01.178.048.185.067c.006.019.034.156.101.041m.14-.188s-.028.284.223.077c.251-.207.293-.003.299.06m-.519-4.623s-.022.14.128.128c-.02.076.038.101.038.101m.111.087c.003 0 .067.041-.003.092m-.213.019s.032.038.067.028c.035-.01.092.035.092.035s.048.016.054.007m-.408.051s.109.041.179-.13m-.379-.052.064.003m-.769 2.004.005.14m-.136-.151s.09.15.082.23" stroke="#000" stroke-width=".019"/><path d="M18.06 5.812h.057l-.05.022m.345 2.223s.067-.007.065.104c.042-.138.129-.142.129-.142" stroke="#000" stroke-width=".019" stroke-linejoin="round"/><path d="M18.14 5.634c.009 0 .044-.013.05-.003.007.01-.038.016-.05.003Z" stroke="#000" stroke-width=".034" stroke-linejoin="round"/><path d="M18.183 11.243c1.344-.037 2.212-1.008 2.203-1.017-.01-.01.177-.27.326-.234.15.038.364.476.625.57.131.205-.037.392-.093.429-.056.037-.308.14-.345-.01-.038-.149-.112-.12-.112-.12s-1.194 1.166-2.575 1.119c-1.428.01-2.604-1.12-2.604-1.12l-.102.112s-.112.122-.168.112c-.056-.01-.299-.168-.317-.326-.02-.16.149-.262.149-.262s.41-.317.457-.485c.093-.093.27.065.27.065s1.083 1.241 2.287 1.167Z" fill="#F7C600" stroke="#000" stroke-width=".038"/><path d="M15.142 10.521s.11-.03.152.017c.04.046.32.32.32.32" stroke="#000" stroke-width=".038"/><path d="m15.395 10.65-.11.084s.279.055.216.239m5.735-.461s-.055-.03-.142.035-.307.31-.307.31" stroke="#000" stroke-width=".038"/><path d="m20.987 10.643.12.093s-.251.016-.196.255" stroke="#000" stroke-width=".038"/><path d="M16.564 10.817c-.008.021-.027 0-.043.004-.042.002-.077.029-.113.048l-.37.215c-.012-.004-.009-.014-.006-.024l.099-.462c.005-.027.014-.06-.012-.08-.011-.007.006-.023.013-.009l.189.135c-.006.018-.017.005-.028-.002-.026-.025-.057-.002-.056.03l-.067.305c.083-.05.168-.098.251-.15.03-.012.051-.052.02-.077-.011-.007-.03-.025-.011-.028l.134.095Zm.133.643c-.003.011-.01.014-.019.005l-.222-.121c.003-.012.01-.014.018-.006.02.014.053.019.068-.005.03-.047.054-.097.081-.146a8.14 8.14 0 0 0 .112-.205c.017-.025-.002-.055-.026-.066-.008-.004-.02-.007-.01-.017.005-.006.016.007.023.008l.213.117c-.003.011-.01.014-.018.006-.02-.014-.053-.02-.068.005-.03.047-.054.097-.082.145-.037.069-.075.137-.111.206-.018.025.002.055.026.066l.015.008Zm.855-.201-.06.17c-.025-.003-.008-.035-.016-.051a.19.19 0 0 0-.142-.164c-.058-.016-.12.014-.155.062a.46.46 0 0 0-.088.245.14.14 0 0 0 .064.128.203.203 0 0 0 .118.03c.014-.042.032-.084.044-.127.005-.029-.025-.046-.048-.052-.004-.008.005-.018.015-.01l.222.08c-.003.027-.034-.003-.051.008-.027.01-.03.043-.04.067l-.027.076a.508.508 0 0 1-.288-.064.263.263 0 0 1-.125-.256.271.271 0 0 1 .146-.204.283.283 0 0 1 .237-.008.32.32 0 0 1 .109.069c.019.026.056.026.072-.004l.013.005m.361.579c0 .009-.001.017-.012.012l-.254-.038c0-.01.002-.018.012-.013.022.005.052.004.063-.02.01-.033.012-.07.018-.104l.044-.293c.006-.02-.001-.044-.023-.053-.012-.006-.026-.006-.04-.009 0-.009.002-.017.013-.012l.254.039c0 .009-.002.017-.013.012-.022-.005-.051-.004-.062.02-.01.033-.013.07-.02.104-.014.098-.03.195-.043.293-.006.02.002.045.024.053.012.006.026.006.04.009Zm.685-.167-.01.18-.453.023c-.002-.01 0-.017.013-.014.022 0 .052-.01.055-.035.002-.045-.003-.09-.005-.135-.005-.089-.008-.178-.014-.267.002-.027-.022-.047-.047-.046-.008-.004-.03.009-.027-.006-.004-.012.012-.005.02-.008l.251-.013c.003.011 0 .017-.012.015-.023 0-.053.005-.06.032-.004.038.002.077.003.116l.015.279c-.002.024.017.046.043.04.036 0 .074 0 .11-.009.05-.013.078-.063.091-.11.01-.012.002-.043.022-.042h.005m.353-.435c-.012 0-.006.015-.01.023-.02.15-.038.3-.06.45-.004.034-.012.073-.045.09-.012.004-.002.023.01.012l.15-.045c-.001-.025-.03-.002-.046-.007-.035 0-.04-.042-.036-.068l.007-.054.173-.052c.022.028.046.054.066.084.015.028-.021.04-.042.046-.01.001-.002.022.008.012l.227-.068c0-.026-.034-.001-.047-.019-.043-.032-.074-.076-.109-.116l-.245-.288Zm0 .18.122.147-.147.043.024-.19Zm.775-.519.066.122c-.02.017-.031-.023-.05-.03a.094.094 0 0 0-.11-.008l-.04.022c.065.122.13.244.197.366.01.03.048.037.073.02.01-.008.018-.012.021.003-.033.02-.07.038-.104.057l-.131.07c-.01-.01-.003-.016.008-.02a.049.049 0 0 0 .022-.076l-.194-.362c-.036.02-.083.038-.092.083-.01.028.005.063.005.087-.01.011-.014-.004-.019-.013l-.056-.104.404-.217Zm.306-.181.126.166c.029-.019.053-.052.044-.088.003-.028-.037-.06-.023-.08.01-.005.015.016.022.021l.143.19c-.019.021-.032-.022-.052-.027-.028-.02-.067-.03-.097-.008-.022.007-.02.02-.006.034.034.043.065.088.1.13.023.02.05-.001.069-.016.047-.033.09-.084.087-.145.003-.027-.014-.057-.013-.079.01-.014.013.008.02.015l.067.122-.352.266c-.016-.01 0-.017.01-.025.032-.02.022-.062-.003-.084-.075-.1-.149-.2-.225-.298-.02-.026-.056-.013-.075.006-.008.011-.021-.012-.006-.013l.333-.251.09.12c-.02.022-.04-.026-.063-.028-.044-.023-.096-.005-.132.024l-.064.048" fill="#000"/></g><defs><linearGradient id="c" x1="16.3" y1="5.559" x2="16.071" y2="5.525" gradientUnits="userSpaceOnUse"><stop stop-color="red"/><stop offset="1" stop-color="#FF0"/></linearGradient><linearGradient id="d" x1="16.285" y1="6.389" x2="16.055" y2="6.355" gradientUnits="userSpaceOnUse"><stop stop-color="red"/><stop offset="1" stop-color="#FF0"/></linearGradient><linearGradient id="e" x1="16.278" y1="7.207" x2="16.049" y2="7.173" gradientUnits="userSpaceOnUse"><stop stop-color="red"/><stop offset="1" stop-color="#FF0"/></linearGradient><linearGradient id="f" x1="16.815" y1="8.092" x2="16.586" y2="8.058" gradientUnits="userSpaceOnUse"><stop stop-color="red"/><stop offset="1" stop-color="#FF0"/></linearGradient><linearGradient id="g" x1="16.208" y1="8.816" x2="15.979" y2="8.783" gradientUnits="userSpaceOnUse"><stop stop-color="red"/><stop offset="1" stop-color="#FF0"/></linearGradient><linearGradient id="h" x1="16.224" y1="9.672" x2="15.995" y2="9.639" gradientUnits="userSpaceOnUse"><stop stop-color="red"/><stop offset="1" stop-color="#FF0"/></linearGradient><linearGradient id="i" x1="19.238" y1="5.573" x2="19.009" y2="5.539" gradientUnits="userSpaceOnUse"><stop stop-color="red"/><stop offset="1" stop-color="#FF0"/></linearGradient><linearGradient id="j" x1="19.211" y1="6.387" x2="18.982" y2="6.354" gradientUnits="userSpaceOnUse"><stop stop-color="red"/><stop offset="1" stop-color="#FF0"/></linearGradient><linearGradient id="k" x1="19.175" y1="7.22" x2="18.946" y2="7.186" gradientUnits="userSpaceOnUse"><stop stop-color="red"/><stop offset="1" stop-color="#FF0"/></linearGradient><linearGradient id="l" x1="19.215" y1="8.039" x2="18.986" y2="8.005" gradientUnits="userSpaceOnUse"><stop stop-color="red"/><stop offset="1" stop-color="#FF0"/></linearGradient><linearGradient id="m" x1="19.207" y1="8.857" x2="18.977" y2="8.823" gradientUnits="userSpaceOnUse"><stop stop-color="red"/><stop offset="1" stop-color="#FF0"/></linearGradient><linearGradient id="n" x1="19.211" y1="9.681" x2="18.982" y2="9.647" gradientUnits="userSpaceOnUse"><stop stop-color="red"/><stop offset="1" stop-color="#FF0"/></linearGradient><clipPath id="b"><path fill="#fff" transform="translate(15 5)" d="M0 0h6.404v7H0z"/></clipPath></defs></svg>