<svg width="24" height="16" fill="none" xmlns="http://www.w3.org/2000/svg"><path d="M0 8h24v6a2 2 0 0 1-2 2H2a2 2 0 0 1-2-2V8Z" fill="#fff"/><path d="M2 0h20a2 2 0 0 1 2 2v6H0V2a2 2 0 0 1 2-2Z" fill="#E12237"/><path d="M4.625 2c.62 0 1.19.205 1.639.547a2.287 2.287 0 0 0-.764-.13c-1.208 0-2.188.932-2.188 2.083 0 1.15.98 2.083 2.188 2.083.269 0 .526-.046.764-.13A2.696 2.696 0 0 1 4.625 7C3.175 7 2 5.88 2 4.5S3.175 2 4.625 2Zm1.313 3.333c.241 0 .437.187.437.417 0 .23-.196.417-.438.417A.427.427 0 0 1 5.5 5.75c0-.23.196-.417.438-.417Zm1.75 0c.241 0 .437.187.437.417 0 .23-.196.417-.438.417a.427.427 0 0 1-.437-.417c0-.23.196-.417.438-.417ZM5.063 3.667c.241 0 .437.186.437.416 0 .23-.196.417-.438.417a.427.427 0 0 1-.437-.417c0-.23.196-.416.438-.416Zm3.5 0c.241 0 .437.186.437.416 0 .23-.196.417-.438.417a.427.427 0 0 1-.437-.417c0-.23.196-.416.438-.416Zm-1.75-1.25c.241 0 .437.186.437.416 0 .23-.196.417-.438.417a.427.427 0 0 1-.437-.417c0-.23.196-.416.438-.416Z" fill="#fff"/><path fill-rule="evenodd" clip-rule="evenodd" d="M22 1H2a1 1 0 0 0-1 1v12a1 1 0 0 0 1 1h20a1 1 0 0 0 1-1V2a1 1 0 0 0-1-1ZM2 0a2 2 0 0 0-2 2v12a2 2 0 0 0 2 2h20a2 2 0 0 0 2-2V2a2 2 0 0 0-2-2H2Z" fill="#000" fill-opacity=".04"/></svg>