<svg width="24" height="16" fill="none" xmlns="http://www.w3.org/2000/svg"><mask id="a" style="mask-type:alpha" maskUnits="userSpaceOnUse" x="0" y="0" width="24" height="16"><path d="M22 0H2a2 2 0 0 0-2 2v12a2 2 0 0 0 2 2h20a2 2 0 0 0 2-2V2a2 2 0 0 0-2-2Z" fill="#fff"/></mask><g mask="url(#a)"><path d="M0 0h32v16H0V0Z" fill="#fff"/><path d="M0 0h32v5.333H0V0Z" fill="#000"/><path d="M0 10.667h32V16H0v-5.333Z" fill="#007A3D"/><path d="M16 8 0 16V0m4.943 6.857-.248.629-.644-.197.336.584-.558.381.67.102-.051.673.495-.458.498.458-.05-.673.666-.102-.555-.381.336-.584-.644.197-.251-.629Z" fill="#CE1126"/><path fill-rule="evenodd" clip-rule="evenodd" d="M22 1H2a1 1 0 0 0-1 1v12a1 1 0 0 0 1 1h20a1 1 0 0 0 1-1V2a1 1 0 0 0-1-1ZM2 0a2 2 0 0 0-2 2v12a2 2 0 0 0 2 2h20a2 2 0 0 0 2-2V2a2 2 0 0 0-2-2H2Z" fill="#000" fill-opacity=".04"/></g></svg>