<svg width="24" height="16" fill="none" xmlns="http://www.w3.org/2000/svg"><g clip-path="url(#a)"><g clip-path="url(#b)"><path d="M26.667 0H0v8h26.667V0Z" fill="#D21034"/><path d="M26.667 8H0v8h26.667V8Z" fill="#009543"/><path d="m0 0 15.518 8L0 16V0Z" fill="#000"/><path d="M26.667 6.568H0v2.864h26.667V6.568Z" fill="#000"/><path d="M0 1.137 13.312 8 0 14.863V1.137Z" fill="#FDCE12"/><path d="M26.667 7.579H0v.842h26.667v-.842Z" fill="#FDCE12"/><path d="M0 2.084 11.475 8 0 13.916V2.084Z" fill="#000"/><path d="M3.242 9.53v.912c.793 0 2.35-.607 2.35-2.564s-1.66-2.32-2.157-2.32c-.497 0-2.031.356-2.031 1.957 0 1.6 1.505 1.749 1.801 1.749.297 0 1.408-.267 1.282-1.468 0 .341-.385 1.06-1.193 1.06s-1.312-.6-1.312-1.193c0-.593.49-1.386 1.342-1.386.852 0 1.475.756 1.475 1.52 0 .763-.6 1.734-1.557 1.734Z" fill="#FDCE12"/><path d="m2.549 8.344.047.03S2.97 7.518 3.98 6.91c-.128.07-.803.406-1.431 1.435Z" fill="#FDCE12" stroke="#FDCE12" stroke-width=".702"/><path d="M2.646 8.196s-.117-.239-.014-.344c.103-.106.056.28.056.28l.044-.064s-.07-.291.009-.353c.077-.06.039.281.039.281l.047-.061s-.05-.284.025-.336c.075-.053.028.266.028.266l.055-.063s-.042-.27.05-.334.011.256.011.256l.061-.067s-.027-.247.05-.303c.078-.055.012.234.012.234l.055-.059s-.016-.23.059-.283c.075-.053.005.22.005.22l.058-.056s-.013-.231.081-.275c.095-.045-.017.216-.017.216l.064-.055s.02-.27.1-.295c.081-.025-.036.24-.036.24l.059-.048s.03-.23.12-.259c.088-.027-.056.212-.056.212l.058-.045s.064-.23.147-.256c.084-.025-.086.217-.086.217l.056-.039s.091-.208.166-.222c.075-.014-.083.172-.083.172l.07-.041s.119-.217.16-.15c.042.066-.166.164-.166.164l-.07.038s.253-.12.284-.058c.03.061-.347.1-.347.1l-.062.042s.253-.07.223-.006-.281.05-.281.05l-.058.042s.253-.061.22-.003c-.034.059-.281.053-.281.053l-.062.05s.248-.064.212.011c-.037.075-.317.072-.317.072l-.07.064s.262-.089.24-.02c-.023.07-.32.107-.32.107l-.067.066s.28-.094.197-.008c-.083.086-.286.108-.286.108l-.08.098s.277-.167.238-.073c-.038.095-.31.159-.31.159l-.056.066s.25-.144.225-.064c-.025.081-.292.167-.292.167l-.045.061s.295-.175.27-.086c-.025.09-.306.153-.306.153l-.036.056s.273-.156.275-.08c.003.074-.32.15-.32.15l-.005-.065Z" fill="#FDCE12"/></g></g><rect x=".5" y=".5" width="23" height="15" rx="1.5" stroke="#000" stroke-opacity=".04"/><defs><clipPath id="a"><rect width="24" height="16" rx="2" fill="#fff"/></clipPath><clipPath id="b"><path fill="#fff" d="M0 0h26.667v16H0z"/></clipPath></defs></svg>