<svg width="24" height="16" fill="none" xmlns="http://www.w3.org/2000/svg"><path d="M22 0H2a2 2 0 0 0-2 2v12a2 2 0 0 0 2 2h20a2 2 0 0 0 2-2V2a2 2 0 0 0-2-2Z" fill="#fff"/><path fill-rule="evenodd" clip-rule="evenodd" d="M22 1H2a1 1 0 0 0-1 1v12a1 1 0 0 0 1 1h20a1 1 0 0 0 1-1V2a1 1 0 0 0-1-1ZM2 0a2 2 0 0 0-2 2v12a2 2 0 0 0 2 2h20a2 2 0 0 0 2-2V2a2 2 0 0 0-2-2H2Z" fill="#000" fill-opacity=".04"/><path d="M15 0H9v5H0v6h9v5h6v-5h9V5h-9V0Z" fill="#E8112D"/><path d="M11.333 1.333v6h-6l-.667-.666v2.666l.667-.666h6v5.999l-.667.667h2.667l-.666-.667v-6h5.999l.667.667V6.667l-.667.666h-6v-6l.667-.667h-2.667l.667.667Z" fill="#F9DD16"/></svg>