<svg width="67" height="66" fill="none" xmlns="http://www.w3.org/2000/svg"><path opacity=".01" fill="#fff" stroke="#979797" stroke-width="2" d="M1.33 1h64v64h-64z"/><mask id="a" style="mask-type:alpha" maskUnits="userSpaceOnUse" x="1" y="1" width="50" height="50"><path fill-rule="evenodd" clip-rule="evenodd" d="M1.33 1h49.633v49.632H1.33V1Z" fill="#fff"/></mask><g mask="url(#a)"><path fill-rule="evenodd" clip-rule="evenodd" d="M28.224 34.913v3.311h-4.132v-3.3c-3.045-.566-4.958-2.446-5.094-5.174h3.583c.175 1.433 1.62 2.355 3.708 2.355 1.925 0 3.289-.934 3.289-2.264 0-1.132-.883-1.777-3.057-2.265l-2.304-.492c-3.227-.674-4.811-2.355-4.811-5.055 0-2.7 1.8-4.647 4.664-5.287v-3.334h4.132v3.34c2.797.622 4.66 2.53 4.75 5.095h-3.46c-.174-1.4-1.477-2.333-3.266-2.333-1.788 0-3.078.86-3.078 2.207 0 1.094.842 1.7 2.92 2.163l2.134.453c3.56.748 5.094 2.264 5.094 5.032 0 2.96-1.901 4.942-5.072 5.548ZM1.33 25.816c0 13.705 11.11 24.816 24.816 24.816s24.817-11.111 24.817-24.816C50.963 12.11 39.852 1 26.146 1S1.33 12.11 1.33 25.816Z" fill="#85ACAF"/></g><path fill-rule="evenodd" clip-rule="evenodd" d="M44.018 31.273v5.572h10.54L37.83 53.575 26.434 42.371 10.08 55.857v7.837L26.45 50.2l11.413 11.221L58.45 40.836v10.44h5.572V31.274H44.018Z" fill="#FF444F" style="mix-blend-mode:multiply"/></svg>