<svg width="40" height="40" fill="none" xmlns="http://www.w3.org/2000/svg"><circle cx="20" cy="20" r="20" fill="#333"/><path fill-rule="evenodd" clip-rule="evenodd" d="M30.433 9.988a2.087 2.087 0 0 0-2.083-2.081 2.023 2.023 0 0 0-1.847 1.168L21.66 8.047a.583.583 0 0 0-.397.07.57.57 0 0 0-.233.328l-1.475 6.97c-3.11.095-5.895 1.007-7.907 2.478a2.956 2.956 0 0 0-2.011-.816 2.925 2.925 0 0 0-2.454 4.513c.308.474.746.848 1.262 1.077-.047.28-.072.585-.072.89 0 4.49 5.217 8.116 11.674 8.116 6.456 0 11.673-3.626 11.673-8.116.001-.29-.022-.58-.07-.867A3.027 3.027 0 0 0 33.333 20a2.925 2.925 0 0 0-2.923-2.923c-.795 0-1.498.303-2.012.818-1.99-1.427-4.75-2.363-7.79-2.48l1.334-6.245 4.328.912a2.083 2.083 0 0 0 4.163-.094Zm-17.1 12.095c0-1.146.935-2.083 2.084-2.083h-.002c1.147 0 2.082.935 2.082 2.082a2.085 2.085 0 0 1-2.08 2.081 2.086 2.086 0 0 1-2.084-2.08Zm9.17 0c0-1.148.935-2.083 2.08-2.083 1.147 0 2.084.937 2.084 2.082a2.086 2.086 0 0 1-2.082 2.081 2.085 2.085 0 0 1-2.082-2.08Zm-7.415 4.724a.545.545 0 0 1 .385-.157v-.002a.546.546 0 0 1 .387.159c.888.89 2.807 1.216 4.187 1.216 1.38 0 3.275-.328 4.186-1.216a.55.55 0 0 1 .774 0 .602.602 0 0 1-.049.771c-1.426 1.429-4.14 1.522-4.935 1.522-.795 0-3.531-.118-4.935-1.522a.55.55 0 0 1 0-.771Z" fill="#fff"/></svg>