<svg width="48" height="48" fill="none" xmlns="http://www.w3.org/2000/svg"><path fill-rule="evenodd" clip-rule="evenodd" d="M25.468 8.37a1 1 0 0 1 .142-.01c1.652 0 3 1.348 3 3v2.18c0 1.652-1.348 3-3 3H14.2v4.18h5.23c1.652 0 3 1.348 3 3v2.18c0 1.652-1.348 3-3 3H14.2v9.35c0 1.652-1.348 3-3 3H9.02c-1.653 0-3-1.348-3-3V13.37c0-2.762 2.237-5 5-5h14.448Zm.236 1.994a1.01 1.01 0 0 1-.105.006H11.02a3 3 0 0 0-3 3v24.88c0 .548.453 1 1 1h2.18c.548 0 1-.452 1-1V27.9a1 1 0 0 1 1-1h6.23c.548 0 1-.452 1-1v-2.18c0-.548-.452-1-1-1H13.2a1 1 0 0 1-1-1v-6.18a1 1 0 0 1 1-1h12.41c.548 0 1-.452 1-1v-2.18c0-.516-.4-.947-.905-.996Z" fill="#414652"/><path fill-rule="evenodd" clip-rule="evenodd" d="M24.673 23.053c-1.051-2.002.412-4.383 2.657-4.383h2.62c1.113 0 2.146.628 2.658 1.62v.002l.562 1.08.56-1.08.002-.002a2.99 2.99 0 0 1 2.657-1.62h2.62c2.255 0 3.691 2.389 2.658 4.38l-3.82 7.35 3.357 6.464.002.003c1.051 2.001-.412 4.383-2.657 4.383h-2.62a3.002 3.002 0 0 1-2.658-1.62v-.002l-.102-.195-.1.195-.001.001a2.99 2.99 0 0 1-2.658 1.62h-2.62c-2.255 0-3.691-2.388-2.658-4.38l3.36-6.469-3.817-7.344-.002-.003Zm2.657-2.383a.994.994 0 0 0-.885 1.454l.002.005 4.06 7.81a1 1 0 0 1 0 .922l-3.6 6.93a.997.997 0 0 0 .883 1.459h2.62a.99.99 0 0 0 .88-.538l.002-.002.99-1.91a1 1 0 0 1 1.775 0l.991 1.912c.169.327.516.538.881.538h2.62a.994.994 0 0 0 .886-1.454l-.003-.005-3.6-6.93a1 1 0 0 1 0-.922l4.06-7.81a.998.998 0 0 0-.883-1.46h-2.62a.99.99 0 0 0-.88.539l-.002.003-1.45 2.79a1 1 0 0 1-1.775 0l-1.451-2.793a1.002 1.002 0 0 0-.881-.538h-2.62Z" fill="#414652"/></svg>