<svg width="45" height="64" fill="none" xmlns="http://www.w3.org/2000/svg"><path d="M22.707 0v3.082c.708.238 1.343.985 1.947 2.194l.362.724h-.321l-.02.885-.024 1.34-.022 1.955-.005 1.265.002 1.234.01 1.204.018 1.173.012.575.029 1.127.036 1.096.045 1.066.051 1.035.03.506.062.99.07.958.079.928.086.897.093.866.1.836.11.805.056.39.12.76c.02.124.041.246.063.368l.13.712.069.345.142.667.15.636c.026.103.051.205.078.306l.16.59c.048.166.097.328.147.486L29.016 32l-1.414 2.827.182.567.331 1.003.328.963.323.922.32.881.315.84.156.405.31.78c.102.252.203.498.305.737l.301.697.15.334.295.635c.293.615.58 1.169.862 1.66L31.639 45h2.377l-1.278 2.555.114.296c1.945 4.91 5.33 9.834 10.16 14.767l.523.528.854.854H34.56c-.925-6.236-6.11-11-12.353-11-6.243 0-11.428 4.764-12.353 11H0l.854-.854c5.11-5.11 8.668-10.209 10.682-15.295l.125-.326L10.398 45h2.515l.03-.05c.226-.414.457-.867.692-1.359l.295-.636.15-.333.301-.697c.101-.239.203-.485.306-.738l.309-.779.156-.405.316-.84.319-.881.323-.922.327-.963.331-1.003.128-.399L15.398 32l2.638.002c.05-.159.098-.321.146-.487l.161-.59.078-.306.15-.636.142-.667c.023-.113.046-.228.068-.345l.131-.712a45.9 45.9 0 0 0 .063-.368l.12-.76.057-.39.108-.805.1-.836.094-.866.086-.898.078-.927.07-.959.064-.989.029-.506.051-1.035.044-1.066.037-1.096.03-1.127.01-.575.018-1.173.01-1.204.003-1.234-.005-1.265-.022-1.954-.024-1.341L19.91 6h-.513l.362-.724c.605-1.209 1.24-1.957 1.947-2.194V0h1ZM4.808 60.37a64.086 64.086 0 0 1-2.227 2.442L2.398 63h.733l2.719-.838-1.042-1.791Zm4.41 1.803-1.87.575.146.251 1.524.002c.058-.28.125-.555.2-.828Zm30.362-1.802-1.041 1.791 2.719.837.732.001-.183-.188a64.095 64.095 0 0 1-2.227-2.441ZM35.397 63l1.498-.002.146-.25-1.842-.568c.073.27.14.544.198.82Zm-27.29-3.167-2.318.235 1.042 1.791 2.114-.65-.838-1.376Zm28.175 0-.838 1.376 2.114.65 1.041-1.791-2.317-.235Zm-26.097-.209-.975.098.536.881c.135-.333.28-.66.439-.979Zm24.472.953.522-.855-.948-.095c.153.31.295.627.426.95ZM6.884 57.826c-.313.409-.636.818-.969 1.226l1.615-.164-.646-1.062Zm30.62 0-.645 1.062 1.614.164a53.597 53.597 0 0 1-.968-1.226Zm-28.118-.828-1.613.369.86 1.41 1.556-.157-.803-1.622Zm25.617 0-.804 1.622 1.557.156.86-1.409-1.613-.369Zm-22.524-.704-2.09.475.664 1.342a13.97 13.97 0 0 1 1.425-1.817Zm20.868 1.795.653-1.32-2.058-.468c.514.554.984 1.152 1.405 1.788ZM8.61 55.429c-.192.286-.39.571-.591.857l.911-.21-.32-.647Zm27.168 0-.32.647.912.21a46.697 46.697 0 0 1-.592-.857ZM12.16 54.27l-2.72.583.492.994 2.912-.664-.684-.913Zm20.069 0-.685.913 2.913.664.491-.994-2.72-.583Zm-17.274-.599-1.718.368.682.91c.264-.214.535-.417.814-.61l.222-.668Zm14.479 0 .214.646c.285.195.562.402.831.618l.673-.896-1.718-.368Zm4.36-1.489-.904 1.207 1.831.394a40.06 40.06 0 0 1-.927-1.6Zm-23.2 0a40.112 40.112 0 0 1-.927 1.6l1.832-.393-.904-1.207ZM27.822 52H16.567l-.51 1.534A13.056 13.056 0 0 1 22.207 52c2.203 0 4.284.547 6.12 1.518L27.822 52Zm-12.309 0h-3.804l.868 1.158 2.746-.588.19-.57Zm17.168 0h-3.805l.192.57 2.746.588L32.68 52Zm.01-2H11.7c-.155.334-.317.667-.484 1h21.957a35.402 35.402 0 0 1-.484-1Zm-.851-2h-1.132v1h1.537a33.746 33.746 0 0 1-.256-.618l-.15-.382Zm-6.132 0h-1v1h1v-1Zm-2 0h-1v1h1v-1Zm-10 0h-1.159l-.147.382c-.083.206-.169.413-.256.619L13.707 49v-1Zm16 0h-1v1h1v-1Zm-2 0h-1v1h1v-1Zm-12 0h-1v1h1v-1Zm2 0h-1v1h1v-1Zm2 0h-1v1h1v-1Zm2 0h-1v1h1v-1Zm10.69-2h-20.38l.5 1h19.38l.5-1Zm-7.909-6.859-.04-.141h-4.344l-.04.141-.206.647-.168.491-.439 1.225-.473 1.274L17.932 45h8.688l-.846-2.222-.473-1.274-.439-1.225-.168-.492-.206-.646Zm2.861 4.962.34.897h1.897l-2.237-.897Zm-10.146 0L14.967 45l1.896.001.34-.897Zm-1.661-2.365a43.888 43.888 0 0 1-1.049 2.376l2.5-1.003-1.451-1.373Zm13.469 0-1.45 1.373 2.498 1.003a43.807 43.807 0 0 1-1.048-2.376Zm-10.117-2.21-2.659 1.489 1.573 1.491.718-1.938.278-.781.09-.262Zm6.765 0 .09.26.278.782.717 1.938 1.573-1.491-2.658-1.49ZM27.961 39h-1.198l1.509.846-.196-.53-.115-.316Zm-10.172 0H16.59l-.113.316-.196.53L17.789 39Zm9.817-1-.273-.792a81.419 81.419 0 0 1-.07-.206H17.29l-.07.206-.273.792h10.66Zm-.899-2.686-.1-.314h-.9v1l1.224.001c-.075-.226-.149-.455-.224-.687Zm-6-.314h-1v1h1v-1Zm-2 0h-.762l-.1.314c-.074.232-.149.461-.223.687L18.707 36v-1Zm6 0h-1v1h1v-1Zm-2 0h-1v1h1v-1Zm4.69-2h-10.38l.5 1h9.38l.5-1Zm-5.058-3.253-.008.02a.487.487 0 0 1-.076.1c-.107.873-.227 1.775-.36 2.704l.08-.571h.657l-.028-.204c-.096-.699-.184-1.382-.265-2.05Zm-3.044 1.491a25.38 25.38 0 0 1-.157.571l-.056.191 1.102-.001-.89-.76Zm6.043.095-.779.666.967.001-.056-.191a24.358 24.358 0 0 1-.132-.477Zm-1.845-.427.084.618.986-.846-1.154-.424.084.652Zm-2.301-.6-1.011.372.864.741.07-.513.077-.6Zm-1.352-1.558a39.14 39.14 0 0 1-.21 1.07l1.17-.433-.96-.637Zm4.943.082-.839.555 1.022.377a37.987 37.987 0 0 1-.183-.932Zm-1.562-.165.818-.544-.92-.4c.032.311.066.626.102.944Zm-1.739-.881-.777.337.692.458c.03-.268.058-.533.085-.795Zm-1.257-1.517c-.046.354-.095.7-.146 1.037l.969-.421-.823-.616Zm4.17.094-.699.522.823.358c-.043-.288-.084-.58-.124-.88Zm-1.421-.187.721-.54-.79-.317c.02.282.044.568.069.857Zm-1.275-.8-.65.26.593.444c.02-.237.04-.472.057-.704Zm-1.181-1.763-.013.147-.092.917-.015.142 1.127-.451-1.007-.755Zm3.58.096-.879.659.985.395-.01-.086-.091-.917-.005-.051Zm-1.238-1.095c-.01.263-.021.53-.035.799l.55-.411-.515-.387Zm-1.108.1L21.37 23l.407.304c-.01-.199-.018-.396-.025-.591Zm-.997-2.287-.055.9-.072.981 1.08-.81c0-.028.002-.056.007-.084v-.03l-.96-.957Zm3.105.128-.835.837c.008.035.012.07.012.106l.934.702-.063-.872-.048-.773ZM22.707 19v1.292l.738-.738-.738-.554Zm-1 .248-.408.306.408.408v-.714Zm-.801-2.291-.019.63-.042 1.057.862-.647v-.164l-.801-.876Zm2.799.145-.688.756c.013.046.02.093.02.14l.721.54-.037-.951-.016-.485Zm-.998-1.547v1.156l.605-.662-.605-.494Zm-1.73-2.338v.241l-.008.614-.018 1.078.756-.618v-.32l-.73-.995Zm2.654.185-.645.879a.5.5 0 0 1 .05.25l.617.505-.014-.964-.007-.614-.001-.056Zm-.924-2.115v1.684l.685-.935-.685-.749Zm-1 .361-.355.388.355.485v-.873Zm-.739-2.575.006.536.009 1.315-.001.034.725-.791v-.316l-.739-.778Zm2.67.146-.618.653a.503.503 0 0 1-.004.27l.61.668.008-1.2c0-.13.002-.26.004-.391Zm-.931-1.966v1.492L23.414 8l-.707-.747Zm-1 .348L21.33 8l.377.397v-.796Zm0-1.601h-.795l.02.884.003.081.772-.817V6Zm1.988 0h-.658a.501.501 0 0 1-.017.131l.655.692.02-.823Zm-1.488-2c-.314 0-.699.306-1.12.957L21.059 5h2.295l-.027-.043c-.386-.597-.741-.904-1.04-.95L22.207 4Z" fill="#85ACB0"/></svg>