<svg width="45" height="44" fill="none" xmlns="http://www.w3.org/2000/svg"><path d="M38.165 2c2.48 0 4.5 2.02 4.5 4.5s-2.02 4.5-4.5 4.5-4.5-2.02-4.5-4.5 2.02-4.5 4.5-4.5Zm0-2a6.5 6.5 0 1 0 0 13 6.5 6.5 0 0 0 0-13Z" fill="#fff"/><path fill-rule="evenodd" clip-rule="evenodd" d="M38.958 5.293a1 1 0 1 1 1.414 1.414l-2 2a1 1 0 0 1-1.414 0l-1-1a1 1 0 0 1 1.414-1.414l.293.293 1.293-1.293ZM16.665 12c-5.528 0-10 4.472-10 10v12c0 1.658 1.342 3 3 3h11a1 1 0 1 1 0 2h-11a5 5 0 0 1-5-5h-1c-1.652 0-3-1.348-3-3v-5c0-1.652 1.348-3 3-3h1v-1c0-6.632 5.368-12 12-12h5c6.632 0 12 5.368 12 12v1h1c1.652 0 3 1.348 3 3v5c0 1.652-1.348 3-3 3h-2a1 1 0 0 1-1-1V22c0-5.528-4.472-10-10-10h-5Zm17 20h1c.548 0 1-.452 1-1v-5c0-.548-.452-1-1-1h-1v7Zm-29-7h-1c-.548 0-1 .452-1 1v5c0 .548.452 1 1 1h1v-7Zm21.039 0c-5.94-.23-11.014-1.82-15.007-3.625L25.704 25Zm-15.007-3.625A5.995 5.995 0 0 1 16.665 16h5c3.318 0 6 2.682 6 6v3.027c-.64.008-1.293 0-1.961-.026m1.961 2.026c-.667.008-1.347 0-2.039-.028-5.865-.229-10.916-1.714-14.961-3.453V34a1 1 0 1 1-2 0V22c0-4.422 3.578-8 8-8h5c4.422 0 8 3.578 8 8v3.995a.22.22 0 0 1 0 .011V35c0 4.972-4.028 9-9 9h-3a8.971 8.971 0 0 1-4.5-1.204 1 1 0 0 1 1-1.732 6.972 6.972 0 0 0 3.5.936h3c3.868 0 7-3.132 7-7v-7.973Z" fill="#fff"/></svg>1 1 0 0 0-.993.883L1 16v4a1 1 0 0 0 .883.993L2 21l.58.001a13.987 13.987 0 0 1-.577-3.688L2 17c0-.679.048-1.347.142-2zM8.5 16.5a.5.5 0 0 1 0 1h-1a.5.5 0 0 1 0-1h1zm16 0a.5.5 0 0 1 0 1h-1a.5.5 0 0 1 0-1h1zm-14.157-5.864.707.707a.499.499 0 0 1 0 .707.499.499 0 0 1-.707 0l-.707-.707a.5.5 0 0 1 .707-.707zm12.021 0a.5.5 0 0 1 0 .707l-.707.707a.499.499 0 0 1-.707 0 .499.499 0 0 1 0-.707l.707-.707a.5.5 0 0 1 .707 0zM16 8a.5.5 0 0 1 .5.5v1a.5.5 0 0 1-1 0v-1A.5.5 0 0 1 16 8z"/></g></svg>