<svg width="411" height="115" fill="none" xmlns="http://www.w3.org/2000/svg"><rect x="1" y="1" width="409" height="113" rx="8" fill="#fff" stroke="#E5E5E5"/><path d="M27.232 40v-1.036h2.73v-7.868h-.098L27.4 33.392l-.686-.742 2.59-2.422h1.834v8.736h2.52V40h-6.426Zm11.362.168c-1.166 0-2.02-.443-2.562-1.33-.531-.887-.797-2.128-.797-3.724s.266-2.837.797-3.724c.542-.887 1.396-1.33 2.563-1.33 1.166 0 2.016.443 2.547 1.33.542.887.813 2.128.813 3.724s-.271 2.837-.813 3.724c-.532.887-1.38 1.33-2.548 1.33Zm0-1.022c.383 0 .71-.08.98-.238.271-.159.49-.383.659-.672.168-.29.289-.63.364-1.022.084-.392.125-.826.125-1.302v-1.596c0-.476-.041-.91-.126-1.302a3.22 3.22 0 0 0-.363-1.022 1.82 1.82 0 0 0-.658-.672c-.271-.159-.598-.238-.98-.238-.383 0-.71.08-.98.238a1.82 1.82 0 0 0-.659.672c-.168.29-.294.63-.378 1.022a6.984 6.984 0 0 0-.111 1.302v1.596c0 .476.037.91.111 1.302.084.392.21.733.378 1.022.168.29.388.513.658.672.271.159.598.238.98.238Zm8.395 1.022c-1.167 0-2.02-.443-2.562-1.33-.532-.887-.798-2.128-.798-3.724s.266-2.837.798-3.724c.541-.887 1.395-1.33 2.562-1.33 1.167 0 2.016.443 2.548 1.33.541.887.812 2.128.812 3.724s-.27 2.837-.812 3.724c-.532.887-1.381 1.33-2.548 1.33Zm0-1.022c.383 0 .71-.08.98-.238.27-.159.49-.383.658-.672.168-.29.29-.63.364-1.022.084-.392.126-.826.126-1.302v-1.596c0-.476-.042-.91-.126-1.302a3.223 3.223 0 0 0-.364-1.022 1.82 1.82 0 0 0-.658-.672c-.27-.159-.597-.238-.98-.238s-.71.08-.98.238a1.82 1.82 0 0 0-.658.672c-.168.29-.294.63-.378 1.022a6.976 6.976 0 0 0-.112 1.302v1.596c0 .476.037.91.112 1.302.084.392.21.733.378 1.022.168.29.387.513.658.672.27.159.597.238.98.238Zm6.099-.784c.298 0 .513.08.644.238.14.15.21.345.21.588v.196c0 .383-.112.803-.336 1.26a3.712 3.712 0 0 1-.938 1.218h-.938c.28-.299.504-.583.672-.854.177-.261.303-.555.378-.882a.702.702 0 0 1-.42-.266.862.862 0 0 1-.126-.476v-.196c0-.243.065-.439.196-.588.14-.159.359-.238.658-.238Zm6.11 1.806c-1.167 0-2.02-.443-2.562-1.33-.532-.887-.798-2.128-.798-3.724s.266-2.837.798-3.724c.541-.887 1.395-1.33 2.562-1.33 1.167 0 2.016.443 2.548 1.33.541.887.812 2.128.812 3.724s-.27 2.837-.812 3.724c-.532.887-1.381 1.33-2.548 1.33Zm0-1.022c.383 0 .71-.08.98-.238.27-.159.49-.383.658-.672.168-.29.29-.63.364-1.022.084-.392.126-.826.126-1.302v-1.596c0-.476-.042-.91-.126-1.302a3.22 3.22 0 0 0-.364-1.022 1.82 1.82 0 0 0-.658-.672c-.27-.159-.597-.238-.98-.238s-.71.08-.98.238a1.82 1.82 0 0 0-.658.672c-.168.29-.294.63-.378 1.022a6.984 6.984 0 0 0-.112 1.302v1.596c0 .476.037.91.112 1.302.084.392.21.733.378 1.022.168.29.387.513.658.672.27.159.597.238.98.238Zm8.395 1.022c-1.167 0-2.021-.443-2.562-1.33-.532-.887-.798-2.128-.798-3.724s.266-2.837.798-3.724c.54-.887 1.395-1.33 2.562-1.33 1.166 0 2.016.443 2.548 1.33.54.887.812 2.128.812 3.724s-.271 2.837-.812 3.724c-.532.887-1.382 1.33-2.548 1.33Zm0-1.022c.382 0 .709-.08.98-.238.27-.159.49-.383.658-.672.168-.29.289-.63.364-1.022.084-.392.126-.826.126-1.302v-1.596c0-.476-.042-.91-.126-1.302a3.223 3.223 0 0 0-.364-1.022 1.82 1.82 0 0 0-.658-.672c-.271-.159-.598-.238-.98-.238-.383 0-.71.08-.98.238a1.82 1.82 0 0 0-.658.672c-.168.29-.294.63-.378 1.022a6.976 6.976 0 0 0-.112 1.302v1.596c0 .476.037.91.112 1.302.084.392.21.733.378 1.022.168.29.387.513.658.672.27.159.597.238.98.238Zm8.394 1.022c-1.167 0-2.02-.443-2.562-1.33-.532-.887-.798-2.128-.798-3.724s.266-2.837.798-3.724c.541-.887 1.395-1.33 2.562-1.33 1.167 0 2.016.443 2.548 1.33.541.887.812 2.128.812 3.724s-.27 2.837-.812 3.724c-.532.887-1.381 1.33-2.548 1.33Zm0-1.022c.383 0 .71-.08.98-.238.27-.159.49-.383.658-.672.168-.29.29-.63.364-1.022.084-.392.126-.826.126-1.302v-1.596c0-.476-.042-.91-.126-1.302a3.223 3.223 0 0 0-.364-1.022 1.82 1.82 0 0 0-.658-.672c-.27-.159-.597-.238-.98-.238s-.71.08-.98.238a1.82 1.82 0 0 0-.658.672c-.168.29-.294.63-.378 1.022a6.976 6.976 0 0 0-.112 1.302v1.596c0 .476.037.91.112 1.302.084.392.21.733.378 1.022.168.29.387.513.658.672.27.159.597.238.98.238Zm33.213-2.73-2.226 2.282-.686-.686 2.226-2.282-2.226-2.282.686-.686 2.226 2.282 2.226-2.282.686.686-2.226 2.282 2.226 2.282-.686.686-2.226-2.282ZM143.25 40v-1.918h-4.718v-1.036l4.088-6.818h1.75v6.874h1.414v.98h-1.414V40h-1.12Zm-3.612-2.898h3.612v-5.964h-.07l-3.542 5.964Zm8.661 3.066c-.299 0-.518-.075-.658-.224-.131-.15-.196-.345-.196-.588v-.182c0-.243.065-.439.196-.588.14-.15.359-.224.658-.224.298 0 .513.075.644.224.14.15.21.345.21.588v.182c0 .243-.07.439-.21.588-.131.15-.346.224-.644.224Zm6.11 0c-1.167 0-2.021-.443-2.562-1.33-.532-.887-.798-2.128-.798-3.724s.266-2.837.798-3.724c.541-.887 1.395-1.33 2.562-1.33 1.167 0 2.016.443 2.548 1.33.541.887.812 2.128.812 3.724s-.271 2.837-.812 3.724c-.532.887-1.381 1.33-2.548 1.33Zm0-1.022c.383 0 .709-.08.98-.238.271-.159.49-.383.658-.672.168-.29.289-.63.364-1.022.084-.392.126-.826.126-1.302v-1.596c0-.476-.042-.91-.126-1.302a3.23 3.23 0 0 0-.364-1.022 1.818 1.818 0 0 0-.658-.672c-.271-.159-.597-.238-.98-.238s-.709.08-.98.238c-.271.159-.49.383-.658.672-.168.29-.294.63-.378 1.022a6.95 6.95 0 0 0-.112 1.302v1.596c0 .476.037.91.112 1.302.084.392.21.733.378 1.022.168.29.387.513.658.672.271.159.597.238.98.238Zm8.395 1.022c-1.167 0-2.021-.443-2.562-1.33-.532-.887-.798-2.128-.798-3.724s.266-2.837.798-3.724c.541-.887 1.395-1.33 2.562-1.33 1.166 0 2.016.443 2.548 1.33.541.887.812 2.128.812 3.724s-.271 2.837-.812 3.724c-.532.887-1.382 1.33-2.548 1.33Zm0-1.022c.382 0 .709-.08.98-.238.27-.159.49-.383.658-.672.168-.29.289-.63.364-1.022.084-.392.126-.826.126-1.302v-1.596c0-.476-.042-.91-.126-1.302a3.23 3.23 0 0 0-.364-1.022 1.825 1.825 0 0 0-.658-.672c-.271-.159-.598-.238-.98-.238-.383 0-.71.08-.98.238-.271.159-.49.383-.658.672-.168.29-.294.63-.378 1.022a6.95 6.95 0 0 0-.112 1.302v1.596c0 .476.037.91.112 1.302.084.392.21.733.378 1.022.168.29.387.513.658.672.27.159.597.238.98.238Zm29.642 2.968L196.1 29.64h1.008l-3.654 12.474h-1.008ZM229.036 40v-1.036h2.73v-7.868h-.098l-2.464 2.296-.686-.742 2.59-2.422h1.834v8.736h2.52V40h-6.426Zm9.066-1.638c.299 0 .514.08.644.238.14.15.21.345.21.588v.196c0 .383-.112.803-.336 1.26a3.703 3.703 0 0 1-.938 1.218h-.938c.28-.299.504-.583.672-.854.178-.261.304-.555.378-.882a.706.706 0 0 1-.42-.266.862.862 0 0 1-.126-.476v-.196c0-.243.066-.439.196-.588.14-.159.36-.238.658-.238Zm6.111 1.806c-1.167 0-2.021-.443-2.562-1.33-.532-.887-.798-2.128-.798-3.724s.266-2.837.798-3.724c.541-.887 1.395-1.33 2.562-1.33 1.166 0 2.016.443 2.548 1.33.541.887.812 2.128.812 3.724s-.271 2.837-.812 3.724c-.532.887-1.382 1.33-2.548 1.33Zm0-1.022c.382 0 .709-.08.98-.238.27-.159.49-.383.658-.672.168-.29.289-.63.364-1.022.084-.392.126-.826.126-1.302v-1.596c0-.476-.042-.91-.126-1.302a3.23 3.23 0 0 0-.364-1.022 1.825 1.825 0 0 0-.658-.672c-.271-.159-.598-.238-.98-.238-.383 0-.71.08-.98.238-.271.159-.49.383-.658.672-.168.29-.294.63-.378 1.022a6.95 6.95 0 0 0-.112 1.302v1.596c0 .476.037.91.112 1.302.084.392.21.733.378 1.022.168.29.387.513.658.672.27.159.597.238.98.238Zm8.394 1.022c-1.166 0-2.02-.443-2.562-1.33-.532-.887-.798-2.128-.798-3.724s.266-2.837.798-3.724c.542-.887 1.396-1.33 2.562-1.33 1.167 0 2.016.443 2.548 1.33.542.887.812 2.128.812 3.724s-.27 2.837-.812 3.724c-.532.887-1.381 1.33-2.548 1.33Zm0-1.022c.383 0 .71-.08.98-.238.271-.159.49-.383.658-.672.168-.29.29-.63.364-1.022.084-.392.126-.826.126-1.302v-1.596c0-.476-.042-.91-.126-1.302a3.206 3.206 0 0 0-.364-1.022 1.818 1.818 0 0 0-.658-.672c-.27-.159-.597-.238-.98-.238-.382 0-.709.08-.98.238a1.83 1.83 0 0 0-.658.672c-.168.29-.294.63-.378 1.022a7.035 7.035 0 0 0-.112 1.302v1.596c0 .476.038.91.112 1.302.084.392.21.733.378 1.022.168.29.388.513.658.672.271.159.598.238.98.238Zm8.395 1.022c-1.167 0-2.021-.443-2.562-1.33-.532-.887-.798-2.128-.798-3.724s.266-2.837.798-3.724c.541-.887 1.395-1.33 2.562-1.33 1.166 0 2.016.443 2.548 1.33.541.887.812 2.128.812 3.724s-.271 2.837-.812 3.724c-.532.887-1.382 1.33-2.548 1.33Zm0-1.022c.382 0 .709-.08.98-.238.27-.159.49-.383.658-.672.168-.29.289-.63.364-1.022.084-.392.126-.826.126-1.302v-1.596c0-.476-.042-.91-.126-1.302a3.23 3.23 0 0 0-.364-1.022 1.825 1.825 0 0 0-.658-.672c-.271-.159-.598-.238-.98-.238-.383 0-.71.08-.98.238-.271.159-.49.383-.658.672-.168.29-.294.63-.378 1.022a6.95 6.95 0 0 0-.112 1.302v1.596c0 .476.037.91.112 1.302.084.392.21.733.378 1.022.168.29.387.513.658.672.27.159.597.238.98.238Zm35.239-4.354v-.952h6.524v.952h-6.524Zm0 2.8v-.952h6.524v.952h-6.524Zm43.264 3.556V40c-.71-.047-1.312-.22-1.806-.518a4.698 4.698 0 0 1-1.246-1.148l.826-.742c.298.401.625.723.98.966.364.233.784.383 1.26.448v-3.598c-.962-.215-1.666-.527-2.114-.938-.439-.42-.658-.994-.658-1.722 0-.373.065-.705.196-.994a2.34 2.34 0 0 1 .574-.77c.242-.215.532-.383.868-.504.336-.13.709-.215 1.12-.252V29.08h.868v1.134c.634.056 1.18.22 1.638.49.466.261.868.625 1.204 1.092l-.854.644a2.984 2.984 0 0 0-.84-.798 2.832 2.832 0 0 0-1.162-.42v3.276l.126.028c.97.215 1.675.532 2.114.952.448.41.672.985.672 1.722 0 .803-.262 1.451-.784 1.946-.514.485-1.218.77-2.114.854v1.148h-.868Zm2.66-3.878c0-.476-.14-.84-.42-1.092-.271-.252-.733-.457-1.386-.616v3.444c.56-.075.998-.261 1.316-.56.326-.308.49-.7.49-1.176Zm-4.312-4.606c0 .476.135.835.406 1.078.28.233.7.425 1.26.574v-3.094c-.504.065-.91.22-1.218.462-.299.243-.448.57-.448.98ZM349.342 40v-1.918h-4.718v-1.036l4.088-6.818h1.75v6.874h1.414v.98h-1.414V40h-1.12Zm-3.612-2.898h3.612v-5.964h-.07l-3.542 5.964Zm10.956 3.066c-1.166 0-2.02-.443-2.562-1.33-.532-.887-.798-2.128-.798-3.724s.266-2.837.798-3.724c.542-.887 1.396-1.33 2.562-1.33 1.167 0 2.016.443 2.548 1.33.542.887.812 2.128.812 3.724s-.27 2.837-.812 3.724c-.532.887-1.381 1.33-2.548 1.33Zm0-1.022c.383 0 .71-.08.98-.238.271-.159.49-.383.658-.672.168-.29.29-.63.364-1.022.084-.392.126-.826.126-1.302v-1.596c0-.476-.042-.91-.126-1.302a3.206 3.206 0 0 0-.364-1.022 1.818 1.818 0 0 0-.658-.672c-.27-.159-.597-.238-.98-.238-.382 0-.709.08-.98.238a1.83 1.83 0 0 0-.658.672c-.168.29-.294.63-.378 1.022a7.035 7.035 0 0 0-.112 1.302v1.596c0 .476.038.91.112 1.302.084.392.21.733.378 1.022.168.29.388.513.658.672.271.159.598.238.98.238Zm8.395 1.022c-1.167 0-2.021-.443-2.562-1.33-.532-.887-.798-2.128-.798-3.724s.266-2.837.798-3.724c.541-.887 1.395-1.33 2.562-1.33 1.167 0 2.016.443 2.548 1.33.541.887.812 2.128.812 3.724s-.271 2.837-.812 3.724c-.532.887-1.381 1.33-2.548 1.33Zm0-1.022c.383 0 .709-.08.98-.238.271-.159.49-.383.658-.672.168-.29.289-.63.364-1.022.084-.392.126-.826.126-1.302v-1.596c0-.476-.042-.91-.126-1.302a3.23 3.23 0 0 0-.364-1.022 1.818 1.818 0 0 0-.658-.672c-.271-.159-.597-.238-.98-.238s-.709.08-.98.238c-.271.159-.49.383-.658.672-.168.29-.294.63-.378 1.022a6.95 6.95 0 0 0-.112 1.302v1.596c0 .476.037.91.112 1.302.084.392.21.733.378 1.022.168.29.387.513.658.672.271.159.597.238.98.238Z" fill="#414652"/><path d="M218.302 90v-9.772h1.176v8.736h4.158V90h-5.334Zm9.481.168c-.495 0-.943-.089-1.344-.266a3.004 3.004 0 0 1-1.022-.756 3.773 3.773 0 0 1-.658-1.19 5.141 5.141 0 0 1-.224-1.568c0-.57.075-1.087.224-1.554.159-.467.378-.863.658-1.19.289-.336.63-.593 1.022-.77a3.289 3.289 0 0 1 1.344-.266c.485 0 .919.089 1.302.266.383.177.709.425.98.742.271.308.476.677.616 1.106.149.43.224.9.224 1.414v.532h-5.194v.336c0 .308.047.597.14.868.103.261.243.49.42.686.187.196.411.35.672.462.271.112.574.168.91.168.457 0 .854-.107 1.19-.322.345-.215.611-.523.798-.924l.798.574a2.816 2.816 0 0 1-1.092 1.204c-.495.299-1.083.448-1.764.448Zm0-6.622c-.308 0-.588.056-.84.168a1.879 1.879 0 0 0-.658.448 2.348 2.348 0 0 0-.574 1.568v.098h3.99v-.154c0-.644-.177-1.157-.532-1.54-.345-.392-.807-.588-1.386-.588ZM234.237 90l-2.534-7.224h1.12l1.26 3.584.784 2.464h.07l.784-2.464 1.288-3.584h1.078L235.539 90h-1.302Zm7.901.168a3.3 3.3 0 0 1-1.344-.266 3.014 3.014 0 0 1-1.022-.756 3.773 3.773 0 0 1-.658-1.19 5.141 5.141 0 0 1-.224-1.568c0-.57.075-1.087.224-1.554.159-.467.378-.863.658-1.19.29-.336.63-.593 1.022-.77a3.3 3.3 0 0 1 1.344-.266c.486 0 .92.089 1.302.266.383.177.71.425.98.742.271.308.476.677.616 1.106.15.43.224.9.224 1.414v.532h-5.194v.336c0 .308.047.597.14.868.103.261.243.49.42.686.187.196.411.35.672.462.271.112.574.168.91.168.458 0 .854-.107 1.19-.322.346-.215.612-.523.798-.924l.798.574a2.816 2.816 0 0 1-1.092 1.204c-.494.299-1.082.448-1.764.448Zm0-6.622c-.308 0-.588.056-.84.168a1.879 1.879 0 0 0-.658.448c-.177.196-.317.43-.42.7-.102.261-.154.55-.154.868v.098h3.99v-.154c0-.644-.177-1.157-.532-1.54-.345-.392-.807-.588-1.386-.588ZM247.106 90v-7.224h1.12v1.33h.07c.131-.345.364-.653.7-.924.336-.27.798-.406 1.386-.406h.434v1.12h-.658c-.607 0-1.083.117-1.428.35-.336.224-.504.509-.504.854V90h-1.12Zm10.336 0c-.42 0-.723-.112-.91-.336a1.708 1.708 0 0 1-.336-.84h-.07c-.159.448-.42.784-.784 1.008-.364.224-.798.336-1.302.336-.765 0-1.363-.196-1.792-.588-.42-.392-.63-.924-.63-1.596 0-.681.247-1.204.742-1.568.504-.364 1.283-.546 2.338-.546h1.428v-.714c0-.513-.14-.905-.42-1.176-.28-.27-.709-.406-1.288-.406-.439 0-.807.098-1.106.294a2.457 2.457 0 0 0-.728.784l-.672-.63c.196-.392.509-.723.938-.994.429-.28.971-.42 1.624-.42.877 0 1.559.215 2.044.644.485.43.728 1.027.728 1.792v3.976h.826V90h-.63Zm-3.22-.784c.28 0 .537-.033.77-.098a1.89 1.89 0 0 0 .602-.28c.168-.121.299-.261.392-.42.093-.159.14-.331.14-.518v-1.19h-1.484c-.644 0-1.115.093-1.414.28a.908.908 0 0 0-.434.812v.294c0 .355.126.63.378.826.261.196.611.294 1.05.294Zm11.538 1.582c0 .747-.294 1.293-.882 1.638-.578.355-1.451.532-2.618.532-1.129 0-1.941-.154-2.436-.462-.494-.308-.742-.747-.742-1.316 0-.392.103-.7.308-.924.206-.215.486-.373.84-.476v-.154c-.429-.205-.644-.541-.644-1.008 0-.364.117-.64.35-.826.234-.196.532-.34.896-.434v-.056a2.384 2.384 0 0 1-1.008-.882c-.233-.383-.35-.826-.35-1.33 0-.364.066-.7.196-1.008a2.24 2.24 0 0 1 .546-.784 2.56 2.56 0 0 1 .854-.518 3.29 3.29 0 0 1 1.12-.182c.514 0 .971.093 1.372.28v-.126c0-.28.066-.509.196-.686.131-.187.346-.28.644-.28h1.078v.98h-1.372v.462c.262.224.462.495.602.812.15.308.224.658.224 1.05 0 .364-.065.7-.196 1.008-.13.308-.317.574-.56.798a2.491 2.491 0 0 1-.854.504 3.278 3.278 0 0 1-1.12.182c-.233 0-.466-.023-.7-.07a2.22 2.22 0 0 0-.658.294.576.576 0 0 0-.294.518c0 .215.103.36.308.434.206.075.472.112.798.112h1.54c.896 0 1.545.173 1.946.518.411.336.616.803.616 1.4Zm-1.05.084a.85.85 0 0 0-.336-.7c-.214-.168-.602-.252-1.162-.252h-2.408c-.448.205-.672.532-.672.98 0 .317.117.588.35.812.243.224.649.336 1.218.336h1.036c.626 0 1.111-.098 1.456-.294.346-.196.518-.49.518-.882Zm-2.506-4.186c.476 0 .854-.112 1.134-.336.28-.233.42-.588.42-1.064v-.392c0-.476-.14-.826-.42-1.05-.28-.233-.658-.35-1.134-.35-.476 0-.854.117-1.134.35-.28.224-.42.574-.42 1.05v.392c0 .476.14.83.42 1.064.28.224.658.336 1.134.336Zm7.497 3.472c-.495 0-.943-.089-1.344-.266a3.004 3.004 0 0 1-1.022-.756 3.773 3.773 0 0 1-.658-1.19 5.141 5.141 0 0 1-.224-1.568c0-.57.075-1.087.224-1.554.159-.467.378-.863.658-1.19.289-.336.63-.593 1.022-.77a3.289 3.289 0 0 1 1.344-.266c.485 0 .919.089 1.302.266.383.177.709.425.98.742.271.308.476.677.616 1.106.149.43.224.9.224 1.414v.532h-5.194v.336c0 .308.047.597.14.868.103.261.243.49.42.686.187.196.411.35.672.462.271.112.574.168.91.168.457 0 .854-.107 1.19-.322.345-.215.611-.523.798-.924l.798.574a2.816 2.816 0 0 1-1.092 1.204c-.495.299-1.083.448-1.764.448Zm0-6.622c-.308 0-.588.056-.84.168a1.879 1.879 0 0 0-.658.448 2.348 2.348 0 0 0-.574 1.568v.098h3.99v-.154c0-.644-.177-1.157-.532-1.54-.345-.392-.807-.588-1.386-.588Z" fill="#999"/><path d="M244 59v16h-1V59h1Z" fill="#E5E5E5"/><circle cx="243.5" cy="57.5" r="2" fill="#577A92" fill-opacity=".04" stroke="#E5E5E5"/><path d="M337.918 81.768h-.07l-.826 1.638-2.338 4.256-2.338-4.256-.826-1.638h-.07V90h-1.148v-9.772h1.568l2.8 5.264h.07l2.814-5.264h1.512V90h-1.148v-8.232ZM346.801 90c-.42 0-.723-.112-.91-.336a1.708 1.708 0 0 1-.336-.84h-.07c-.158.448-.42.784-.784 1.008-.364.224-.798.336-1.302.336-.765 0-1.362-.196-1.792-.588-.42-.392-.63-.924-.63-1.596 0-.681.248-1.204.742-1.568.504-.364 1.284-.546 2.338-.546h1.428v-.714c0-.513-.14-.905-.42-1.176-.28-.27-.709-.406-1.288-.406-.438 0-.807.098-1.106.294a2.457 2.457 0 0 0-.728.784l-.672-.63c.196-.392.509-.723.938-.994.43-.28.971-.42 1.624-.42.878 0 1.559.215 2.044.644.486.43.728 1.027.728 1.792v3.976h.826V90h-.63Zm-3.22-.784c.28 0 .537-.033.77-.098a1.88 1.88 0 0 0 .602-.28c.168-.121.299-.261.392-.42a.997.997 0 0 0 .14-.518v-1.19h-1.484c-.644 0-1.115.093-1.414.28a.908.908 0 0 0-.434.812v.294c0 .355.126.63.378.826.262.196.612.294 1.05.294Zm5.449.784v-7.224h1.12v1.33h.07c.131-.345.364-.653.7-.924.336-.27.798-.406 1.386-.406h.434v1.12h-.658c-.607 0-1.083.117-1.428.35-.336.224-.504.509-.504.854V90h-1.12Zm10.902.798c0 .747-.294 1.293-.882 1.638-.578.355-1.451.532-2.618.532-1.129 0-1.941-.154-2.436-.462-.494-.308-.742-.747-.742-1.316 0-.392.103-.7.308-.924.206-.215.486-.373.84-.476v-.154c-.429-.205-.644-.541-.644-1.008 0-.364.117-.64.35-.826.234-.196.532-.34.896-.434v-.056a2.384 2.384 0 0 1-1.008-.882c-.233-.383-.35-.826-.35-1.33 0-.364.066-.7.196-1.008a2.24 2.24 0 0 1 .546-.784 2.56 2.56 0 0 1 .854-.518 3.29 3.29 0 0 1 1.12-.182c.514 0 .971.093 1.372.28v-.126c0-.28.066-.509.196-.686.131-.187.346-.28.644-.28h1.078v.98h-1.372v.462c.262.224.462.495.602.812.15.308.224.658.224 1.05 0 .364-.065.7-.196 1.008-.13.308-.317.574-.56.798a2.491 2.491 0 0 1-.854.504 3.278 3.278 0 0 1-1.12.182c-.233 0-.466-.023-.7-.07a2.22 2.22 0 0 0-.658.294.576.576 0 0 0-.294.518c0 .215.103.36.308.434.206.075.472.112.798.112h1.54c.896 0 1.545.173 1.946.518.411.336.616.803.616 1.4Zm-1.05.084a.85.85 0 0 0-.336-.7c-.214-.168-.602-.252-1.162-.252h-2.408c-.448.205-.672.532-.672.98 0 .317.117.588.35.812.243.224.649.336 1.218.336h1.036c.626 0 1.111-.098 1.456-.294.346-.196.518-.49.518-.882Zm-2.506-4.186c.476 0 .854-.112 1.134-.336.28-.233.42-.588.42-1.064v-.392c0-.476-.14-.826-.42-1.05-.28-.233-.658-.35-1.134-.35-.476 0-.854.117-1.134.35-.28.224-.42.574-.42 1.05v.392c0 .476.14.83.42 1.064.28.224.658.336 1.134.336Zm5.423-5.614c-.243 0-.42-.056-.532-.168a.689.689 0 0 1-.154-.462v-.182c0-.187.051-.336.154-.448.112-.121.289-.182.532-.182.242 0 .415.06.518.182a.605.605 0 0 1 .168.448v.182c0 .187-.056.34-.168.462-.103.112-.276.168-.518.168Zm-.56 1.694h1.12V90h-1.12v-7.224Zm3.5 7.224v-7.224h1.12v1.176h.056a2.4 2.4 0 0 1 .742-.98c.326-.243.76-.364 1.302-.364.746 0 1.334.243 1.764.728.438.476.658 1.153.658 2.03V90h-1.12v-4.438c0-1.297-.546-1.946-1.638-1.946-.224 0-.444.028-.658.084-.206.056-.392.14-.56.252a1.286 1.286 0 0 0-.406.434c-.094.168-.14.369-.14.602V90h-1.12Z" fill="#999"/><path d="M351 59v16h-1V59h1Z" fill="#E5E5E5"/><circle cx="350.5" cy="57.5" r="2" fill="#577A92" fill-opacity=".04" stroke="#E5E5E5"/><path d="M24.746 90.168c-1.241 0-2.207-.42-2.898-1.26-.69-.85-1.036-2.095-1.036-3.738 0-1.643.345-2.903 1.036-3.78.69-.887 1.657-1.33 2.898-1.33.821 0 1.507.187 2.058.56.56.373.994.9 1.302 1.582l-.952.574a2.666 2.666 0 0 0-.896-1.204c-.401-.308-.905-.462-1.512-.462-.42 0-.798.08-1.134.238a2.372 2.372 0 0 0-.84.686c-.224.29-.397.64-.518 1.05a4.69 4.69 0 0 0-.182 1.358v1.456c0 1.008.233 1.797.7 2.366.467.57 1.125.854 1.974.854.625 0 1.148-.159 1.568-.476.42-.327.728-.756.924-1.288l.938.588c-.308.69-.751 1.237-1.33 1.638-.579.392-1.279.588-2.1.588Zm7.87 0c-.486 0-.93-.089-1.33-.266a2.972 2.972 0 0 1-1.037-.756 3.776 3.776 0 0 1-.658-1.19 4.851 4.851 0 0 1-.238-1.568c0-.57.08-1.087.238-1.554.159-.467.378-.863.658-1.19.29-.336.635-.593 1.036-.77a3.255 3.255 0 0 1 1.33-.266c.486 0 .924.089 1.316.266.402.177.747.434 1.036.77.29.327.514.723.672 1.19.159.467.238.985.238 1.554 0 .579-.079 1.101-.238 1.568a3.622 3.622 0 0 1-.672 1.19 2.955 2.955 0 0 1-1.036.756 3.16 3.16 0 0 1-1.316.266Zm0-.994c.606 0 1.1-.187 1.483-.56.383-.373.574-.943.574-1.708V85.87c0-.765-.191-1.335-.574-1.708-.382-.373-.877-.56-1.484-.56-.606 0-1.101.187-1.484.56-.382.373-.574.943-.574 1.708v1.036c0 .765.192 1.335.574 1.708.383.373.878.56 1.484.56Zm5.103.826v-7.224h1.12v1.176h.056c.178-.41.425-.737.742-.98.327-.243.761-.364 1.302-.364.747 0 1.335.243 1.764.728.439.476.658 1.153.658 2.03V90h-1.12v-4.438c0-1.297-.546-1.946-1.638-1.946-.224 0-.443.028-.658.084a1.91 1.91 0 0 0-.56.252 1.293 1.293 0 0 0-.406.434c-.093.168-.14.369-.14.602V90h-1.12Zm9.553 0c-.392 0-.69-.107-.896-.322-.196-.224-.294-.513-.294-.868v-5.054h-1.19v-.98h.672c.243 0 .406-.047.49-.14.094-.103.14-.275.14-.518v-1.344h1.008v2.002h1.582v.98h-1.582v5.264h1.47V90h-1.4Zm3.313 0v-7.224h1.12v1.33h.07c.13-.345.364-.653.7-.924.335-.27.797-.406 1.386-.406h.434v1.12h-.659c-.606 0-1.082.117-1.428.35-.335.224-.503.509-.503.854V90h-1.12Zm10.335 0c-.42 0-.723-.112-.91-.336a1.7 1.7 0 0 1-.335-.84h-.07c-.16.448-.42.784-.784 1.008-.364.224-.798.336-1.302.336-.766 0-1.363-.196-1.792-.588-.42-.392-.63-.924-.63-1.596 0-.681.247-1.204.742-1.568.504-.364 1.283-.546 2.337-.546h1.428v-.714c0-.513-.14-.905-.42-1.176-.28-.27-.709-.406-1.287-.406-.44 0-.808.098-1.106.294-.29.196-.532.457-.728.784l-.672-.63c.196-.392.508-.723.938-.994.429-.28.97-.42 1.623-.42.878 0 1.56.215 2.044.644.486.43.728 1.027.728 1.792v3.976h.827V90h-.63Zm-3.22-.784c.28 0 .537-.033.77-.098a1.88 1.88 0 0 0 .602-.28c.168-.121.3-.261.392-.42a.997.997 0 0 0 .14-.518v-1.19h-1.483c-.645 0-1.116.093-1.415.28a.908.908 0 0 0-.434.812v.294c0 .355.127.63.379.826.26.196.61.294 1.05.294Zm8.137.952a3.33 3.33 0 0 1-1.358-.266 2.838 2.838 0 0 1-1.022-.756 3.525 3.525 0 0 1-.63-1.19c-.14-.467-.21-.99-.21-1.568 0-.579.07-1.101.21-1.568.15-.467.36-.863.63-1.19.28-.327.62-.579 1.022-.756a3.327 3.327 0 0 1 1.358-.266c.719 0 1.293.159 1.722.476.439.308.765.714.98 1.218l-.938.476a1.7 1.7 0 0 0-.644-.868c-.299-.205-.672-.308-1.12-.308-.336 0-.63.056-.882.168a1.62 1.62 0 0 0-.63.448 1.812 1.812 0 0 0-.378.686c-.084.261-.126.55-.126.868v1.232c0 .635.168 1.157.504 1.568.345.401.85.602 1.512.602.905 0 1.559-.42 1.96-1.26l.812.546a2.853 2.853 0 0 1-1.05 1.246c-.457.308-1.031.462-1.722.462ZM71.786 90c-.392 0-.69-.107-.896-.322-.196-.224-.294-.513-.294-.868v-5.054h-1.19v-.98h.672c.243 0 .406-.047.49-.14.093-.103.14-.275.14-.518v-1.344h1.008v2.002h1.582v.98h-1.582v5.264h1.47V90h-1.4Zm8.79.168c-.671 0-1.236-.126-1.693-.378a3.958 3.958 0 0 1-1.162-1.036l.798-.644c.28.355.593.63.938.826.345.187.747.28 1.204.28.476 0 .844-.103 1.106-.308.27-.205.406-.495.406-.868a.997.997 0 0 0-.28-.714c-.177-.205-.504-.345-.98-.42l-.574-.084a5.178 5.178 0 0 1-.924-.21 2.946 2.946 0 0 1-.742-.392 1.86 1.86 0 0 1-.49-.616 2.057 2.057 0 0 1-.168-.868c0-.355.065-.663.196-.924.13-.27.308-.495.532-.672.233-.177.508-.308.826-.392.317-.093.658-.14 1.022-.14.588 0 1.078.103 1.47.308.401.205.751.49 1.05.854l-.742.672c-.159-.224-.392-.425-.7-.602-.308-.187-.695-.28-1.162-.28-.467 0-.822.103-1.064.308-.233.196-.35.467-.35.812 0 .355.117.611.35.77.243.159.588.275 1.036.35l.56.084c.802.121 1.372.355 1.708.7.336.336.504.78.504 1.33 0 .7-.238 1.25-.714 1.652-.476.401-1.13.602-1.96.602Zm5.213-9.086c-.243 0-.42-.056-.532-.168a.69.69 0 0 1-.154-.462v-.182c0-.187.051-.336.154-.448.112-.121.29-.182.532-.182.243 0 .415.06.518.182a.605.605 0 0 1 .168.448v.182c0 .187-.056.34-.168.462-.103.112-.275.168-.518.168Zm-.56 1.694h1.12V90h-1.12v-7.224ZM88.001 90v-.938l4.102-5.306h-3.976v-.98h5.334v.84l-4.186 5.404h4.298V90h-5.572Zm9.801.168a3.29 3.29 0 0 1-1.344-.266 3.007 3.007 0 0 1-1.022-.756 3.776 3.776 0 0 1-.658-1.19 5.132 5.132 0 0 1-.224-1.568c0-.57.075-1.087.224-1.554.16-.467.378-.863.658-1.19a2.93 2.93 0 0 1 1.022-.77 3.29 3.29 0 0 1 1.344-.266c.486 0 .92.089 1.302.266.383.177.71.425.98.742.271.308.476.677.616 1.106.15.43.224.9.224 1.414v.532H95.73v.336c0 .308.047.597.14.868.103.261.243.49.42.686.187.196.411.35.672.462.271.112.575.168.91.168.458 0 .855-.107 1.19-.322a2.1 2.1 0 0 0 .799-.924l.797.574a2.818 2.818 0 0 1-1.091 1.204c-.495.299-1.083.448-1.764.448Zm0-6.622c-.308 0-.588.056-.84.168a1.876 1.876 0 0 0-.657.448 2.354 2.354 0 0 0-.574 1.568v.098h3.99v-.154c0-.644-.178-1.157-.532-1.54-.346-.392-.808-.588-1.386-.588Z" fill="#999"/><path d="M58 59v16h-1V59h1Z" fill="#E5E5E5"/><circle cx="57.5" cy="57.5" r="2" fill="#577A92" fill-opacity=".04" stroke="#E5E5E5"/><path d="m133.528 90-3.248-9.772h1.26l1.61 4.928 1.078 3.668h.07l1.106-3.668 1.624-4.928h1.218L134.956 90h-1.428Zm8.499.168c-.485 0-.928-.089-1.33-.266a2.98 2.98 0 0 1-1.036-.756 3.773 3.773 0 0 1-.658-1.19 4.87 4.87 0 0 1-.238-1.568c0-.57.08-1.087.238-1.554.159-.467.378-.863.658-1.19.29-.336.635-.593 1.036-.77a3.259 3.259 0 0 1 1.33-.266c.486 0 .924.089 1.316.266.402.177.747.434 1.036.77.29.327.514.723.672 1.19.159.467.238.985.238 1.554 0 .579-.079 1.101-.238 1.568a3.597 3.597 0 0 1-.672 1.19 2.962 2.962 0 0 1-1.036.756 3.16 3.16 0 0 1-1.316.266Zm0-.994c.607 0 1.102-.187 1.484-.56.383-.373.574-.943.574-1.708V85.87c0-.765-.191-1.335-.574-1.708-.382-.373-.877-.56-1.484-.56-.606 0-1.101.187-1.484.56-.382.373-.574.943-.574 1.708v1.036c0 .765.192 1.335.574 1.708.383.373.878.56 1.484.56Zm6.294.826c-.392 0-.69-.107-.896-.322-.196-.224-.294-.504-.294-.84V79.64h1.12v9.38h1.064V90h-.994Zm7.077-1.176h-.056a3.43 3.43 0 0 1-.28.504 1.9 1.9 0 0 1-.392.434 1.96 1.96 0 0 1-.574.294 2.48 2.48 0 0 1-.784.112c-.747 0-1.339-.238-1.778-.714-.439-.485-.658-1.167-.658-2.044v-4.634h1.12v4.438c0 1.297.551 1.946 1.652 1.946.224 0 .439-.028.644-.084a1.71 1.71 0 0 0 .56-.252 1.2 1.2 0 0 0 .392-.42 1.23 1.23 0 0 0 .154-.63v-4.998h1.12V90h-1.12v-1.176ZM158.903 90v-7.224h1.12v1.176h.056c.084-.187.177-.36.28-.518a1.95 1.95 0 0 1 .392-.434c.159-.121.341-.215.546-.28a2.13 2.13 0 0 1 .728-.112c.476 0 .915.117 1.316.35.401.224.7.597.896 1.12h.028a2.21 2.21 0 0 1 .728-1.022c.364-.299.854-.448 1.47-.448.737 0 1.311.243 1.722.728.42.476.63 1.153.63 2.03V90h-1.12v-4.438c0-.644-.126-1.13-.378-1.456-.252-.327-.653-.49-1.204-.49-.224 0-.439.028-.644.084a1.75 1.75 0 0 0-.532.252 1.225 1.225 0 0 0-.518 1.036V90h-1.12v-4.438c0-.644-.126-1.13-.378-1.456-.252-.327-.644-.49-1.176-.49-.224 0-.439.028-.644.084-.205.056-.387.14-.546.252a1.352 1.352 0 0 0-.392.434c-.093.168-.14.369-.14.602V90h-1.12Zm14.939.168c-.495 0-.943-.089-1.344-.266a3.004 3.004 0 0 1-1.022-.756c-.28-.336-.5-.733-.658-1.19a5.11 5.11 0 0 1-.224-1.568c0-.57.074-1.087.224-1.554a3.56 3.56 0 0 1 .658-1.19c.289-.336.63-.593 1.022-.77a3.289 3.289 0 0 1 1.344-.266c.485 0 .919.089 1.302.266.382.177.709.425.98.742.27.308.476.677.616 1.106.149.43.224.9.224 1.414v.532h-5.194v.336c0 .308.046.597.14.868.102.261.242.49.42.686.186.196.41.35.672.462.27.112.574.168.91.168.457 0 .854-.107 1.19-.322.345-.215.611-.523.798-.924l.798.574a2.828 2.828 0 0 1-1.092 1.204c-.495.299-1.083.448-1.764.448Zm0-6.622c-.308 0-.588.056-.84.168a1.87 1.87 0 0 0-.658.448 2.348 2.348 0 0 0-.574 1.568v.098h3.99v-.154c0-.644-.178-1.157-.532-1.54-.346-.392-.808-.588-1.386-.588Z" fill="#999"/><path d="M156 59v16h-1V59h1Z" fill="#E5E5E5"/><circle cx="155.5" cy="57.5" r="2" fill="#577A92" fill-opacity=".04" stroke="#E5E5E5"/></svg>