<svg xmlns="http://www.w3.org/2000/svg" width="32" height="32"><g fill="none" fill-rule="evenodd"><path d="M0 0h32v32H0z"/><g transform="translate(4 8)" fill-rule="nonzero"><path fill="#FFCD00" d="M0 11h24v3a2 2 0 0 1-2 2H2a2 2 0 0 1-2-2v-3z"/><path fill="#F10000" d="M0 5h24v6H0z"/><path fill="#333" d="M2 0h20a2 2 0 0 1 2 2v3H0V2a2 2 0 0 1 2-2z"/><rect width="23" height="15" x=".5" y=".5" stroke="#000" stroke-opacity=".04" rx="1"/></g><g transform="translate(19 2)"><rect width="11" height="8" fill="#0E0E0E" rx="1"/><path fill="#FFF" fill-rule="nonzero" d="M3.508 6.072c.212 0 .406-.03.582-.09.176-.06.326-.143.45-.249.124-.106.22-.234.288-.384.068-.15.102-.315.102-.495 0-.156-.025-.295-.075-.417a.99.99 0 0 0-.48-.522 1.334 1.334 0 0 0-.327-.117v-.024c.112-.028.217-.07.315-.126.098-.056.183-.124.255-.204a.91.91 0 0 0 .171-.282c.042-.108.063-.23.063-.366a.973.973 0 0 0-.369-.783 1.188 1.188 0 0 0-.405-.204 1.752 1.752 0 0 0-.498-.069c-.168 0-.318.02-.45.06a1.39 1.39 0 0 0-.348.156c-.1.064-.187.137-.261.219a1.741 1.741 0 0 0-.189.249l.372.288c.088-.16.2-.287.336-.381a.91.91 0 0 1 .528-.141c.224 0 .405.055.543.165.138.11.207.275.207.495v.042a.649.649 0 0 1-.213.501c-.142.13-.355.195-.639.195H3.01v.438h.492c.296 0 .52.067.672.201.152.134.228.325.228.573v.048c0 .248-.076.439-.228.573-.152.134-.376.201-.672.201-.128 0-.24-.013-.336-.039a.94.94 0 0 1-.465-.285 1.541 1.541 0 0 1-.171-.228l-.378.288c.064.092.137.18.219.264a1.433 1.433 0 0 0 .657.39c.14.04.3.06.48.06zm3.792 0c.5 0 .865-.19 1.095-.57.23-.38.345-.912.345-1.596S8.625 2.69 8.395 2.31c-.23-.38-.595-.57-1.095-.57s-.865.19-1.095.57c-.23.38-.345.912-.345 1.596s.115 1.216.345 1.596c.23.38.595.57 1.095.57zm0-.438a.817.817 0 0 1-.42-.102.78.78 0 0 1-.282-.288 1.433 1.433 0 0 1-.159-.438 2.82 2.82 0 0 1-.051-.558v-.684c0-.204.017-.39.051-.558.034-.168.087-.314.159-.438a.78.78 0 0 1 .282-.288.817.817 0 0 1 .42-.102c.164 0 .304.034.42.102a.78.78 0 0 1 .282.288c.072.124.125.27.159.438.034.168.051.354.051.558v.684c0 .204-.017.39-.051.558a1.433 1.433 0 0 1-.159.438.78.78 0 0 1-.282.288.817.817 0 0 1-.42.102z"/></g></g></svg>