<svg xmlns="http://www.w3.org/2000/svg" width="32" height="32"><g fill="none" fill-rule="evenodd"><path d="M0 0h32v32H0z"/><path fill="#005BAA" fill-rule="nonzero" d="M0 4c0-2.21 1.79-4 4-4h24c2.21 0 4 1.79 4 4v24c0 2.21-1.79 4-4 4H4c-2.21 0-4-1.79-4-4V4z"/><path fill="#FFF" d="M12.347 11.908h1.78v-1.383C14.043 8.48 12.57 8 11.04 8 9.43 8 8 8.66 8 11.768v3.029c.003.349.002.683 0 1-.01 2.653-.015 4.166 2.603 4.166a2.7 2.7 0 0 0 1.756-.852v.697h1.715v-6.643h-2.973v1.644h1.235v2.086c0 1.088-.592 1.288-1.293 1.288-1.222 0-1.22-1.055-1.206-2.516V12.56c0-.087-.002-.186-.004-.293-.02-.957-.052-2.579 1.21-2.579.962.048 1.25.286 1.303 1.322v.898zm7.714 4.016-1.52-7.652h-2.414v11.524h1.732v-7.64l1.462 7.64h1.403l1.544-7.678-.003 7.678h1.733l-.001-11.524H21.58l-1.52 7.652zM24 21.514V24H8v-2.486h16z"/></g></svg>