<svg width="48" height="48" fill="none" xmlns="http://www.w3.org/2000/svg"><g clip-path="url(#a)"><path d="M9 0a9 9 0 0 0-9 9v.261L44.871 2.18A8.965 8.965 0 0 0 39 0H9Zm36.797 3.102-8.231 44.897h1.433a9 9 0 0 0 9-9V9c0-2.255-.83-4.318-2.202-5.897Z" fill="#E12E3A"/><path fill-rule="evenodd" clip-rule="evenodd" d="M37.566 48H9a9 9 0 0 1-9-9V9.261L44.871 2.18c.33.285.64.593.926.923L37.566 48Z" fill="#FF444F"/><path d="M17.635 19.265c-1.526 0-2.632.427-3.318 1.28-.672.84-1.008 1.995-1.008 3.465 0 .714.084 1.365.252 1.953.168.575.42 1.072.756 1.491.336.42.756.75 1.26.988.504.224 1.092.335 1.764.335.364 0 .672-.007.924-.02.266-.015.497-.043.693-.085v-5.06h3.276v7.203c-.392.153-1.022.314-1.89.482-.868.183-1.939.273-3.213.273-1.092 0-2.086-.168-2.982-.503a6.23 6.23 0 0 1-2.268-1.47c-.63-.645-1.12-1.436-1.47-2.373-.336-.939-.504-2.01-.504-3.213 0-1.218.19-2.296.567-3.235.378-.938.896-1.729 1.554-2.372a6.501 6.501 0 0 1 2.31-1.491 8.066 8.066 0 0 1 2.856-.505c.686 0 1.302.05 1.848.147a9.19 9.19 0 0 1 1.428.316c.406.112.735.23.987.357.266.125.455.223.567.293l-.945 2.625a7.992 7.992 0 0 0-1.554-.608 6.227 6.227 0 0 0-1.89-.273Zm9.348 4.745c0 .714.084 1.358.252 1.932a4.82 4.82 0 0 0 .756 1.491c.336.407.742.721 1.218.945.476.224 1.022.337 1.638.337.602 0 1.141-.113 1.617-.337.49-.224.896-.538 1.218-.945.336-.42.588-.916.756-1.49.182-.575.273-1.219.273-1.933 0-.713-.09-1.358-.273-1.932-.168-.587-.42-1.084-.756-1.49a3.171 3.171 0 0 0-1.218-.966c-.476-.224-1.015-.337-1.617-.337-.616 0-1.162.12-1.638.357a3.394 3.394 0 0 0-1.218.966c-.322.407-.574.904-.756 1.491a6.79 6.79 0 0 0-.252 1.912Zm11.11 0c0 1.246-.19 2.345-.568 3.297-.364.939-.868 1.73-1.512 2.373a6.305 6.305 0 0 1-2.31 1.428 8.265 8.265 0 0 1-2.856.483 8.141 8.141 0 0 1-2.814-.483 6.544 6.544 0 0 1-2.31-1.428c-.658-.643-1.176-1.434-1.554-2.372-.378-.953-.567-2.052-.567-3.297 0-1.246.196-2.338.588-3.276.392-.953.917-1.75 1.575-2.395a6.646 6.646 0 0 1 2.31-1.448 8.02 8.02 0 0 1 2.772-.483c.994 0 1.932.16 2.814.483a6.4 6.4 0 0 1 2.31 1.448c.658.645 1.176 1.442 1.554 2.395.378.938.567 2.03.567 3.276Z" fill="#fff"/></g><defs><clipPath id="a"><path fill="#fff" d="M0 0h48v48H0z"/></clipPath></defs></svg>