<svg width="65" height="64" fill="none" xmlns="http://www.w3.org/2000/svg"><path fill-rule="evenodd" clip-rule="evenodd" d="M42.187 40.548a2.478 2.478 0 0 1-2.477-2.477c0-.235.043-.457.103-.672L33.785 33.3a2.447 2.447 0 0 1-1.5.518 2.47 2.47 0 0 1-1.226-.335l-6.405 5.74a2.478 2.478 0 1 1-4.75.988c0-.13.018-.255.037-.38l-5.728-2.948a2.478 2.478 0 1 1 .744-1.77c0 .13-.019.255-.038.38l5.73 2.95a2.464 2.464 0 0 1 1.733-.71c.447 0 .861.127 1.224.335l6.407-5.74a2.478 2.478 0 1 1 4.75-.988c0 .235-.044.458-.104.672l6.028 4.096c.418-.32.934-.518 1.5-.518a2.478 2.478 0 1 1 0 4.957Zm-1.86 15.923h4.338V43.686h-4.337V56.47Zm-10.109 0h4.337V37.885h-4.337v18.586Zm-10.11 0h4.338V46.12H20.11v10.35ZM10 56.47h4.338V40.703H9.999V56.47Zm38.667-35.137H5.999a5.334 5.334 0 0 0-5.333 5.333v32A5.334 5.334 0 0 0 5.999 64h42.667a5.334 5.334 0 0 0 5.333-5.333v-32a5.334 5.334 0 0 0-5.333-5.334Z" fill="#85ACAF"/><path fill-rule="evenodd" clip-rule="evenodd" d="M48.666 0c-8.836 0-16 7.164-16 16s7.164 16 16 16 16-7.164 16-16-7.164-16-16-16Z" fill="#FF444F" style="mix-blend-mode:multiply"/><path fill-rule="evenodd" clip-rule="evenodd" d="M50.874 14.501c0 .992-.384 1.923-1.084 2.623-1.398 1.4-3.846 1.397-5.246 0a3.687 3.687 0 0 1-1.084-2.623 3.695 3.695 0 0 1 3.708-3.705c.991 0 1.922.384 2.622 1.083.7.7 1.084 1.63 1.084 2.622ZM52.645 18c1.62-2.537 1.277-5.943-.877-8.097a6.51 6.51 0 0 0-9.199 0 6.51 6.51 0 0 0 0 9.198c2.152 2.154 5.559 2.498 8.097.876L54.69 24l1.977-1.977L52.645 18Z" fill="#fff"/></svg>