<svg width="24" height="24" fill="none" xmlns="http://www.w3.org/2000/svg"><path d="M21.547 12.201c0-.683-.062-1.367-.18-2.039h-9.394v3.854h5.367a4.58 4.58 0 0 1-1.99 3.009l3.222 2.504c1.888-1.737 2.975-4.291 2.975-7.328Z" fill="#3E82F1"/><path d="M15.35 17.025c-.89.6-2.034.952-3.378.952-2.6 0-4.796-1.753-5.58-4.112l-3.333 2.583a9.964 9.964 0 0 0 8.913 5.49c2.694 0 4.952-.89 6.6-2.415l-3.222-2.498Z" fill="#32A753"/><path d="M6.392 10.079 3.06 7.496a10.003 10.003 0 0 0 0 8.958l3.333-2.583a5.938 5.938 0 0 1 0-3.792Z" fill="#F9BB00"/><path d="M11.972 2a9.98 9.98 0 0 0-8.913 5.496l3.333 2.582c.784-2.358 2.98-4.112 5.58-4.112 1.462 0 2.779.505 3.81 1.49l2.862-2.862C16.919 2.986 14.661 2 11.972 2Z" fill="#E74133"/></svg>