<svg width="64" height="64" fill="none" xmlns="http://www.w3.org/2000/svg"><path d="M27.87.002c.57 0 1.033.44 1.033.984a.977.977 0 0 1-.515.853l-.002.406 5.362 4.65h.316v7.876h1.033v.985h-1.034v3.938h5.163v6.892h-.198l-.83 1.585 1.014 27.049c.563.184.98.67 1.039 1.255l.007.142-.001.492h.517c.447 0 .849.18 1.131.47l20.976-3.416.173.97L45.75 57.95l1.147.134.877.115.825.12.264.04.752.127.47.087.443.088.417.09.39.092.363.094.17.048.32.096c.05.016.1.032.148.049l.276.098c.694.265 1.066.545 1.066.835a.39.39 0 0 1-.047.18l.052.093c.259.494.428 1.102.512 1.825v-.128h8.774v.984h-8.775v-.012l-.973.025-.012-.285c-.047-.835-.2-1.492-.45-1.97l.026.054a5.537 5.537 0 0 1-.173.07l-.276.098-.305.097-.163.048-.348.095-.376.093-.404.09-.43.09-.457.088-.483.085-.507.084-.808.121-.86.117-.912.111-.635.071-.992.103-1.038.096-1.082.09-.744.058-1.543.105-1.61.094-1.248.062-1.281.055-1.313.047-1.341.04-1.83.042-1.402.02-1.903.016h-1.93L24.486 63l-1.863-.03-1.368-.032-1.783-.056-1.302-.05-1.27-.057-1.642-.087-1.577-.1-1.507-.111-1.082-.09-1.038-.097-.992-.103-1.248-.145-.878-.114-.825-.12a57.426 57.426 0 0 1-.263-.041l-.752-.126-.47-.087-.444-.088-.417-.09-.39-.093-.362-.093a12.559 12.559 0 0 1-.17-.048l-.32-.096-.149-.049-.275-.099a4.323 4.323 0 0 1-.528-.237.568.568 0 0 0-.077.115c-.25.477-.403 1.134-.45 1.969l-.012.285L0 63.005c.03-1.105.216-1.993.57-2.67.157-.299.384-.514.664-.64.177-.16.468-.316.865-.467l.275-.098.305-.097.163-.048.348-.095.377-.093.403-.091.43-.09.458-.087.482-.086.508-.083.807-.121.86-.117.912-.111.635-.072.992-.102 1.038-.097 1.082-.09.606-.047a1.578 1.578 0 0 1 1.155-.494h.516v-.492c0-.648.438-1.199 1.047-1.398l1.013-27.047-.831-1.586h-.196v-6.892h3.096v-4.923h3.097V6.894h.316l5.36-4.648v-.407a.977.977 0 0 1-.515-.853c0-.543.463-.984 1.033-.984ZM42.322 58.62l.001 1.342-.4.088c-4.511.993-9.195 1.49-14.051 1.49-4.852 0-9.875-.496-15.07-1.487l-.414-.08v-1.352l-.654.052-.6.052-1.162.11-1.109.117-.914.108-.862.112c-1.53.21-2.783.444-3.709.69a9.76 9.76 0 0 0-.417.118l-.258.082.072.024c.119.04.248.079.387.118l.216.06c.926.245 2.18.478 3.71.688l.86.113.915.108 1.109.117 1.162.11.6.052 1.237.097 1.283.09 1.326.08 1.366.071c.23.012.463.023.697.033l1.419.058 1.451.05 1.48.039 1.506.03c.506.008 1.016.015 1.529.02l1.547.01.78.002 1.557-.005c.516-.004 1.029-.009 1.538-.016l1.518-.025.75-.016 1.48-.04 1.451-.049 1.42-.058c.233-.01.466-.021.697-.033l1.365-.071 1.326-.08 1.283-.09 1.237-.097.6-.052 1.163-.11 1.108-.117.914-.108.862-.113c1.53-.21 2.783-.443 3.71-.689.148-.039.287-.079.416-.118l.256-.083-.044-.015a9.7 9.7 0 0 0-.377-.116l-.21-.059a22.517 22.517 0 0 0-1.76-.385l-.706-.122-.763-.118a58.501 58.501 0 0 0-.817-.115l-.87-.11-.455-.053-1.085-.117-1.139-.11-1.189-.1-.269-.022Zm-1.547-.527h-26.84a.505.505 0 0 0-.516.492v.578l.609.114c4.425.79 8.72 1.215 12.884 1.271l.959.007c4.778 0 9.385-.488 13.82-1.465l-.4.084v-.589a.5.5 0 0 0-.424-.484l-.093-.008Zm-2.065-1.97H16a.505.505 0 0 0-.515.493v.492h23.742v-.492a.5.5 0 0 0-.424-.484l-.093-.008Zm-1.53-27.568H17.53l-.995 26.584h21.64l-.995-26.584ZM21.16 48.248c.855 0 1.549.661 1.549 1.477v2.461h-3.097v-2.461c0-.816.693-1.477 1.548-1.477Zm.516.985h-1.032v1.969h1.032v-1.97Zm11.871-9.847c.855 0 1.549.662 1.549 1.477v2.462H32v-2.462c0-.815.693-1.477 1.548-1.477Zm.517.985h-1.033v1.97h1.033v-1.97Zm-11.871-9.846c.855 0 1.548.661 1.548 1.477v2.461h-3.097v-2.461c0-.816.693-1.477 1.549-1.477Zm.516.985h-1.033v1.969h1.033v-1.97Zm10.321-4.924H32v.985h1.032v-.985Zm2.065 0h-1.032v.985h1.032v-.985Zm2.778 0h-1.746v.985h1.23l.516-.985Zm-19.294 0h-1.745l.516.985h1.229v-.985Zm4.129 0h-1.033v.985h1.033v-.985Zm4.129 0h-1.033v.985h1.033v-.985Zm4.129 0h-1.032v.985h1.032v-.985Zm-6.194 0H23.74v.985h1.032v-.985Zm-4.129 0h-1.032v.985h1.032v-.985Zm8.258 0H27.87v.985h1.032v-.985Zm-3.096-2.953v-2.954h-3.097v2.954h-1.032v-2.954H18.58v2.954h-1.033v-2.954h-1.032v4.923h2.065v-.985h1.032v.985h4.129v-.985h2.064v.985h3.097v-.985h2.065v.985h4.129v-.985h1.032v.985h2.064v-4.923H37.16l.001 2.954H36.13l-.001-2.954h-3.097l.001 2.954H32l-.001-2.954h-3.097l.001 2.954h-3.097Zm2.064-2.954h-1.032v1.969h1.032v-1.97Zm5.161-4.923H22.71v3.938h10.32v-3.938Zm-11.354 0h-2.064v3.938h2.064v-3.938Zm2.064-7.877h-1.032v6.892h1.033L23.74 7.88Zm7.226 0h-6.194l.001 6.892h6.194l-.001-6.892Zm2.064 0H32v6.892h1.033V7.88Zm-7.405-2.804-2.099 1.82h.954l1.145-1.82Zm1.728-.834-1.67 2.653h1.67V4.241Zm1.032-.001v2.654h1.67l-1.67-2.654Zm1.73.834 1.144 1.82h.954l-2.099-1.82Z" fill="#85ACB0"/></svg>