<svg width="66" height="66" fill="none" xmlns="http://www.w3.org/2000/svg"><path opacity=".01" stroke="#979797" stroke-width="1.333" d="M1 1h64v64H1z"/><path fill-rule="evenodd" clip-rule="evenodd" d="M1 59.667A5.334 5.334 0 0 0 6.333 65H49a5.334 5.334 0 0 0 5.333-5.333v-3.11H1v3.11Z" fill="#85ACAF"/><mask id="a" style="mask-type:alpha" maskUnits="userSpaceOnUse" x="1" y="19" width="54" height="36"><path fill-rule="evenodd" clip-rule="evenodd" d="M1 19.424h53.333V54.36H1V19.424Z" fill="#fff"/></mask><g mask="url(#a)"><path fill-rule="evenodd" clip-rule="evenodd" d="M36.508 41.382v7.93h-4.306v-7.93h-4.304l4.304-5.73 2.154-2.866 2.152 2.865 4.305 5.731h-4.305Zm-13.377.75-2.151 2.866-2.154-2.864-4.305-5.73h4.305v-7.93h4.305v7.93h4.305l-4.305 5.729ZM49 19.425H6.333A5.334 5.334 0 0 0 1 24.757V54.36h53.333V24.757A5.334 5.334 0 0 0 49 19.423Z" fill="#85ACAF"/></g><path fill-rule="evenodd" clip-rule="evenodd" d="M47 1c-9.94 0-18 8.058-18 18 0 9.94 8.06 18 18 18s18-8.06 18-18c0-9.942-8.06-18-18-18Z" fill="#FF444F" style="mix-blend-mode:multiply"/><path fill-rule="evenodd" clip-rule="evenodd" d="M43.836 13.418a2.418 2.418 0 1 0-4.837 0 2.418 2.418 0 0 0 4.837 0Zm.316 13.53h-3.52L50.783 11h3.52l-10.15 15.947Zm6.012-2.366a2.418 2.418 0 1 1 4.837 0 2.418 2.418 0 0 1-4.837 0Z" fill="#fff"/></svg>