<svg width="80" height="80" fill="none" xmlns="http://www.w3.org/2000/svg"><rect width="80" height="80" rx="40" fill="#F9F9F9"/><g clip-path="url(#a)"><path d="M50.5 32.5V52h-3V32.5h3ZM52 28v3H28v-3h24Z" fill="#414652"/><path d="m35.5 36.368 6 6.011V40a3 3 0 0 1 2.985-3l.015 7.5a3 3 0 0 1-3 3H34a3.009 3.009 0 0 1 3-3h2.379L35.5 40.621v-4.253ZM28 32.5l5.136 1.5 1.497 1.5H28v-3Z" fill="#FF444F"/></g><defs><clipPath id="a"><path fill="#fff" transform="translate(28 28)" d="M0 0h24v24H0z"/></clipPath></defs></svg>