<svg width="32" height="32" fill="none" xmlns="http://www.w3.org/2000/svg"><g clip-path="url(#a)"><g filter="url(#b)"><path d="m9.56 25.814.433.257a11.827 11.827 0 0 0 6.029 1.65h.004c6.529 0 11.842-5.311 11.844-11.84a11.767 11.767 0 0 0-3.466-8.377 11.766 11.766 0 0 0-8.373-3.472c-6.533 0-11.847 5.311-11.849 11.84a11.81 11.81 0 0 0 1.81 6.3l.283.448-1.197 4.37 4.482-1.176Zm-7.904 4.56 2.022-7.382a14.22 14.22 0 0 1-1.902-7.122C1.779 8.017 8.17 1.627 16.026 1.627a14.163 14.163 0 0 1 10.08 4.178 14.157 14.157 0 0 1 4.17 10.078c-.003 7.854-6.396 14.245-14.25 14.245h-.006a14.243 14.243 0 0 1-6.81-1.734l-7.554 1.981Z" fill="#B3B3B3"/></g><path d="m1.508 30.227 2.022-7.381a14.22 14.22 0 0 1-1.902-7.122C1.63 7.869 8.023 1.479 15.878 1.479a14.163 14.163 0 0 1 10.08 4.178 14.156 14.156 0 0 1 4.17 10.078c-.003 7.854-6.396 14.246-14.25 14.246h-.006a14.244 14.244 0 0 1-6.81-1.735l-7.554 1.981Z" fill="#fff"/><path d="M15.884 3.886c-6.533 0-11.847 5.31-11.849 11.839a11.81 11.81 0 0 0 1.81 6.301l.283.448-1.197 4.369 4.483-1.175.433.256a11.83 11.83 0 0 0 6.028 1.65h.005c6.528 0 11.841-5.311 11.844-11.84a11.766 11.766 0 0 0-3.466-8.376 11.766 11.766 0 0 0-8.374-3.472Z" fill="url(#c)"/><path fill-rule="evenodd" clip-rule="evenodd" d="M12.318 9.768c-.267-.592-.547-.604-.801-.615l-.683-.008c-.237 0-.623.09-.949.445-.326.357-1.246 1.218-1.246 2.97 0 1.752 1.276 3.444 1.453 3.682.178.238 2.464 3.947 6.083 5.375 3.008 1.186 3.62.95 4.273.89.653-.059 2.106-.86 2.403-1.692.296-.832.297-1.544.208-1.693-.09-.149-.327-.237-.683-.416-.356-.178-2.107-1.039-2.433-1.158-.326-.119-.564-.178-.801.179-.238.356-.92 1.157-1.127 1.395-.208.238-.416.268-.772.09-.356-.178-1.503-.555-2.863-1.767-1.059-.944-1.773-2.11-1.981-2.466-.208-.356-.022-.549.156-.726.16-.16.356-.416.535-.624.178-.208.237-.356.355-.594.119-.237.06-.445-.03-.623-.088-.178-.78-1.94-1.097-2.644Z" fill="#fff"/></g><defs><linearGradient id="c" x1="15.638" y1="5.307" x2="15.758" y2="25.551" gradientUnits="userSpaceOnUse"><stop stop-color="#57D163"/><stop offset="1" stop-color="#23B33A"/></linearGradient><clipPath id="a"><path fill="#fff" d="M0 0h32v32H0z"/></clipPath><filter id="b" x=".289" y=".258" width="31.357" height="31.484" filterUnits="userSpaceOnUse" color-interpolation-filters="sRGB"><feFlood flood-opacity="0" result="BackgroundImageFix"/><feBlend in="SourceGraphic" in2="BackgroundImageFix" result="shape"/><feGaussianBlur stdDeviation=".684" result="effect1_foregroundBlur_3594_25096"/></filter></defs></svg>