<svg width="24" height="16" fill="none" xmlns="http://www.w3.org/2000/svg"><path d="M0 11h24v3a2 2 0 0 1-2 2H2a2 2 0 0 1-2-2v-3Z" fill="#1A9F0B"/><path d="M24 5H0v6h24V5Z" fill="#fff"/><path d="M2 0h20a2 2 0 0 1 2 2v3H0V2a2 2 0 0 1 2-2Z" fill="#FFA44A"/><path d="M12 9.75a1.75 1.75 0 1 0 0-3.5 1.75 1.75 0 0 0 0 3.5Z" fill="#181A93" fill-opacity=".15" stroke="#181A93" stroke-width=".5"/><path d="M12 9a1 1 0 1 0 0-2 1 1 0 0 0 0 2Z" fill="#181A93"/><path fill-rule="evenodd" clip-rule="evenodd" d="M22 1H2a1 1 0 0 0-1 1v12a1 1 0 0 0 1 1h20a1 1 0 0 0 1-1V2a1 1 0 0 0-1-1ZM2 0a2 2 0 0 0-2 2v12a2 2 0 0 0 2 2h20a2 2 0 0 0 2-2V2a2 2 0 0 0-2-2H2Z" fill="#000" fill-opacity=".04"/></svg>