<svg xmlns="http://www.w3.org/2000/svg" width="32" height="33" fill="none"><path d="M26.018 2.672H5.983a3.316 3.316 0 0 0-3.316 3.316v20.036a3.316 3.316 0 0 0 3.316 3.316h20.036a3.316 3.316 0 0 0 3.316-3.316V5.988a3.316 3.316 0 0 0-3.316-3.316z" fill="#fff"/><path d="M19.882 7.339a4.79 4.79 0 0 1 4.784 4.784v7.765a4.79 4.79 0 0 1-4.784 4.784h-7.765a4.79 4.79 0 0 1-4.784-4.784v-7.765a4.79 4.79 0 0 1 4.784-4.784h7.765zm0 1.538h-7.765a3.25 3.25 0 0 0-3.246 3.246v7.767a3.25 3.25 0 0 0 3.246 3.246h7.767a3.25 3.25 0 0 0 3.246-3.246v-7.767a3.25 3.25 0 0 0-3.246-3.246zM16 11.466c2.504 0 4.54 2.037 4.54 4.54s-2.037 4.54-4.54 4.54-4.54-2.037-4.54-4.54 2.037-4.54 4.54-4.54zm0 1.564a2.98 2.98 0 0 0-2.977 2.976A2.98 2.98 0 0 0 16 18.982a2.98 2.98 0 0 0 2.977-2.977A2.98 2.98 0 0 0 16 13.029zm4.746-2.802a1.031 1.031 0 0 1 1.032 1.031 1.04 1.04 0 0 1-.302.73 1.045 1.045 0 0 1-.73.302 1.04 1.04 0 0 1-1.032-1.032c0-.272.111-.539.304-.729a1.03 1.03 0 0 1 .728-.302z" fill="#000"/></svg>