<svg width="49" height="49" fill="none" xmlns="http://www.w3.org/2000/svg"><path fill-rule="evenodd" clip-rule="evenodd" d="M9.665 12.428a3 3 0 0 0-3 3v17a3 3 0 0 0 3 3h30a3 3 0 0 0 3-3v-17a3 3 0 0 0-3-3h-30Zm-5 3a5 5 0 0 1 5-5h30a5 5 0 0 1 5 5v17a5 5 0 0 1-5 5h-14v3h4a1 1 0 0 1 0 2h-10a1 1 0 0 1 0-2h4v-3h-14a5 5 0 0 1-5-5v-17Zm29.998 1.406-.003.003-.002-.002-.001-.001.003.001h.002l.001-.001Zm-6.003 2.003.588.588c.78.78 2.044.78 2.824 0l2.588-2.588 1.288 1.288a1 1 0 1 0 1.414-1.414l-1.29-1.29a1.996 1.996 0 0 0-2.824 0l-2.588 2.588-.588-.588a1.996 1.996 0 0 0-2.824 0L14.66 30.009l-2.288-2.288a1 1 0 0 0-1.414 1.414l2.29 2.29c.78.78 2.044.78 2.824 0L28.66 18.837Zm7.005 2.59a1 1 0 0 1 1 1v1a1 1 0 1 1-2 0v-1a1 1 0 0 1 1-1Zm-4.707 1.294a1 1 0 0 1 1.414 0l1 1a1 1 0 1 1-1.414 1.414l-1-1a1 1 0 0 1 0-1.414Zm-1.293 4.707a1 1 0 0 1 1-1h1a1 1 0 1 1 0 2h-1a1 1 0 0 1-1-1Zm5 0a1 1 0 0 1 1-1h3a1 1 0 1 1 0 2h-.586l1.293 1.293a1 1 0 1 1-1.414 1.414l-1.293-1.293v.586a1 1 0 1 1-2 0v-3Z" fill="#fff"/></svg>e="evenodd" d="M13 0a1 1 0 0 1 1 1v11h11a1 1 0 1 1 0 2H13a1 1 0 0 1-1-1V1a1 1 0 0 1 1-1Z" fill="#fff"/><path fill-rule="evenodd" clip-rule="evenodd" d="M16 1a1 1 0 0 1 1-1c4.972 0 9 4.028 9 9a1 1 0 0 1-1 1h-8a1 1 0 0 1-1-1V1Zm2 1.07V8h5.93A7.001 7.001 0 0 0 18 2.07ZM29 4a1 1 0 0 1 1-1h11a1 1 0 1 1 0 2H30a1 1 0 0 1-1-1Zm3 4a1 1 0 0 1 1-1h8a1 1 0 1 1 0 2h-8a1 1 0 0 1-1-1Zm4 4a1 1 0 0 1 1-1h4a1 1 0 1 1 0 2h-4a1 1 0 0 1-1-1Z" fill="#fff"/></svg>