<svg width="65" height="64" fill="none" xmlns="http://www.w3.org/2000/svg"><path fill-rule="evenodd" clip-rule="evenodd" d="M42.733 39.698c-.72 0-1.389-.21-1.966-.557l-6.908 5.806c.11.36.188.732.188 1.128a3.849 3.849 0 1 1-7.697 0c0-.292.038-.572.1-.846l-5.19-4.003-6.552 6.588c.247.508.396 1.07.396 1.67a3.848 3.848 0 1 1-7.696 0 3.85 3.85 0 0 1 3.85-3.849 3.81 3.81 0 0 1 1.76.446l8.029-8.078 6.674 5.15a3.814 3.814 0 0 1 2.478-.927c.842 0 1.617.28 2.25.741l6.729-5.654A3.848 3.848 0 0 1 42.733 32a3.848 3.848 0 1 1 0 7.697ZM.33 29.334v26.667c0 4.417 3.583 8 8 8h37.333a8 8 0 0 0 8-8V29.334a8 8 0 0 0-8-8H8.33a8 8 0 0 0-8 8Z" fill="#85ACAF"/><path fill-rule="evenodd" clip-rule="evenodd" d="M61.335 16.832H60.22a.831.831 0 0 1 0-1.664h1.116a.831.831 0 1 1 0 1.664Zm-3.221 8.95v.002a.834.834 0 0 1-1.177 0l-.788-.79a.832.832 0 0 1-.002-1.175l.002-.002a.833.833 0 0 1 1.175 0l.79.79a.833.833 0 0 1 0 1.176Zm-8.952 3.222a.831.831 0 1 1-1.664 0v-1.116a.831.831 0 0 1 1.664 0v1.116Zm-8.65-4.01-.79.79a.833.833 0 0 1-1.175 0v-.001a.83.83 0 0 1 0-1.176l.79-.79a.833.833 0 0 1 1.175 0v.002a.833.833 0 0 1 0 1.176ZM38.547 6.218v-.001a.833.833 0 0 1 1.176 0l.79.79a.833.833 0 0 1 0 1.175v.002a.833.833 0 0 1-1.177 0l-.79-.79a.83.83 0 0 1 0-1.176ZM37.273 16c0 .46-.372.832-.832.832h-1.116a.83.83 0 0 1-.83-.832c0-.46.37-.832.83-.832h1.116c.46 0 .832.372.832.832ZM47.498 2.996a.831.831 0 1 1 1.664 0v1.116a.831.831 0 1 1-1.664 0V2.996ZM48.33 0c-8.823 0-16 7.177-16 16s7.177 16 16 16 16-7.177 16-16-7.177-16-16-16Z" fill="#FF444F" style="mix-blend-mode:multiply"/><path fill-rule="evenodd" clip-rule="evenodd" d="m56.638 6.886-8.096 8.097-3.059-3.058-1.97 1.971 5.029 5.027L58.608 8.856l-1.97-1.97Z" fill="#fff"/></svg>