<svg width="80" height="80" fill="none" xmlns="http://www.w3.org/2000/svg"><rect width="80" height="80" rx="40" fill="#F9F9F9"/><path fill-rule="evenodd" clip-rule="evenodd" d="M15 37v1.5h-1.5V37H15Zm3 0v3h-1.5v-3H18Zm3 0v12.75h-1.5V37H21Zm3 10.5V52h-1.5v-4.5H24Z" fill="#FF444F"/><path fill-rule="evenodd" clip-rule="evenodd" d="M27 44.5v5.25h-1.5V44.5H27ZM30 28v19.5h-1.5V28H30Zm3 3v6h-1.5v-6H33Zm3 3v3h-1.5v-3H36Z" fill="#414652"/><path d="M12 29.5a1.5 1.5 0 0 1 1.5-1.5H21a1.5 1.5 0 0 1 1.5 1.5V34a1.5 1.5 0 0 1-1.5 1.5h-7.5A1.5 1.5 0 0 1 12 34v-4.5Z" fill="#0E0E0E"/><path d="M14.217 34v-.726h1.128v-2.808h-.054l-.852 1.116-.576-.45 1.002-1.32h1.38v3.462h.888V34h-2.916Zm4.833.072c-.547 0-.953-.19-1.217-.57-.264-.38-.396-.912-.396-1.596s.132-1.216.396-1.596c.264-.38.67-.57 1.218-.57.548 0 .954.19 1.218.57.264.38.396.912.396 1.596s-.132 1.216-.396 1.596c-.264.38-.67.57-1.218.57Zm0-.762c.24 0 .407-.088.499-.264.092-.176.138-.424.138-.744v-.792c0-.32-.046-.568-.138-.744-.092-.176-.258-.264-.498-.264s-.406.088-.498.264c-.092.176-.138.424-.138.744v.792c0 .32.046.568.138.744.092.176.258.264.498.264Z" fill="#fff"/><path fill-rule="evenodd" clip-rule="evenodd" d="M47 37v1.5h-1.5V37H47Zm3 0v3h-1.5v-3H50Zm3 0v12.75h-1.5V37H53Zm3 10.5V52h-1.5v-4.5H56Z" fill="#FF444F"/><path fill-rule="evenodd" clip-rule="evenodd" d="M59 44.5v5.25h-1.5V44.5H59ZM62 28v19.5h-1.5V28H62Zm3 3v6h-1.5v-6H65Zm3 3v3h-1.5v-3H68Z" fill="#414652"/><path d="M44 29.5a1.5 1.5 0 0 1 1.5-1.5H53a1.5 1.5 0 0 1 1.5 1.5V34a1.5 1.5 0 0 1-1.5 1.5h-7.5A1.5 1.5 0 0 1 44 34v-4.5Z" fill="#0E0E0E"/><path d="m46.648 34 1.404-3.456h-1.308v.762h-.762v-1.494h2.964v.78L47.596 34h-.948Zm5.734-3.402H50.48l-.09 1.326h.048c.04-.1.084-.19.132-.27a.845.845 0 0 1 .18-.21.702.702 0 0 1 .246-.138 1.392 1.392 0 0 1 .846.042 1.2 1.2 0 0 1 .684.684c.068.164.102.35.102.558 0 .212-.036.41-.108.594-.068.18-.172.336-.312.468a1.454 1.454 0 0 1-.504.312c-.2.072-.428.108-.684.108-.204 0-.384-.022-.54-.066a1.696 1.696 0 0 1-.414-.174 1.532 1.532 0 0 1-.312-.258 1.842 1.842 0 0 1-.228-.306l.654-.516c.092.164.202.304.33.42.128.112.3.168.516.168.216 0 .378-.062.486-.186a.706.706 0 0 0 .168-.492v-.048a.616.616 0 0 0-.168-.456c-.112-.112-.266-.168-.462-.168-.164 0-.3.034-.408.102a1.047 1.047 0 0 0-.24.192l-.738-.102.156-2.37h2.562v.786Z" fill="#fff"/></svg>