<svg width="24" height="16" fill="none" xmlns="http://www.w3.org/2000/svg"><g clip-path="url(#a)"><mask id="b" style="mask-type:alpha" maskUnits="userSpaceOnUse" x="0" y="0" width="24" height="16"><path d="M21.714 0H2.286C1.023 0 0 .955 0 2.133v11.734C0 15.045 1.023 16 2.286 16h19.428C22.977 16 24 15.045 24 13.867V2.133C24 .955 22.977 0 21.714 0Z" fill="#fff"/></mask><g mask="url(#b)"><path d="M21.714 0H2.286C1.023 0 0 .955 0 2.133v11.734C0 15.045 1.023 16 2.286 16h19.428C22.977 16 24 15.045 24 13.867V2.133C24 .955 22.977 0 21.714 0Z" fill="#000"/><path fill-rule="evenodd" clip-rule="evenodd" d="M0 10.666h24v1.067H0v-1.067Z" fill="#fff"/><path fill-rule="evenodd" clip-rule="evenodd" d="M0 11.733h24V16H0v-4.267Z" fill="#006700"/><path fill-rule="evenodd" clip-rule="evenodd" d="M0 5.333h24v5.333H0V5.333Z" fill="#BD0000"/><path fill-rule="evenodd" clip-rule="evenodd" d="M0 4.267h24v1.066H0V4.267Z" fill="#fff"/><path fill-rule="evenodd" clip-rule="evenodd" d="M14.187 6.308c.082 0 .571-.714.571-1.6 0-.883-.489-1.6-.571-1.6-.08 0-.571.717-.571 1.6 0 .886.49 1.6.57 1.6Zm-3.359-.468c-.057.053-.949-.128-1.616-.754-.669-.625-.865-1.455-.807-1.508.057-.054.946.128 1.616.754.67.625.865 1.455.808 1.51V5.84Zm2.148 4.835c.057-.05.948.12 1.617.704.668.587.865 1.363.808 1.413-.057.05-.949-.12-1.619-.704-.668-.587-.865-1.362-.806-1.413Zm-2.148 0c-.057-.05-.949.12-1.616.704-.669.587-.865 1.363-.807 1.413.057.05.946-.12 1.616-.704.67-.587.865-1.362.808-1.413Z" fill="#fff"/><path fill-rule="evenodd" clip-rule="evenodd" d="M12 12.8c.408 0 2.857-2.15 2.857-4.8 0-2.651-2.45-4.8-2.857-4.8-.408 0-2.857 2.149-2.857 4.8 0 2.65 2.449 4.8 2.857 4.8Z" fill="#BD0000"/><path fill-rule="evenodd" clip-rule="evenodd" d="M9.714 9.6c.08 0 .571-.717.571-1.6 0-.883-.491-1.6-.571-1.6-.08 0-.571.717-.571 1.6 0 .883.491 1.6.571 1.6Zm4.571 0c.08 0 .572-.717.572-1.6 0-.883-.492-1.6-.572-1.6-.08 0-.571.717-.571 1.6 0 .883.491 1.6.571 1.6Z" fill="#000"/><path d="M12.572 8c0-.884-.256-1.6-.572-1.6-.316 0-.571.716-.571 1.6 0 .884.255 1.6.571 1.6.316 0 .572-.716.572-1.6Z" fill="#fff"/><path d="M21.714.533H2.286C1.339.533.57 1.25.57 2.133v11.733c0 .884.768 1.6 1.715 1.6h19.428c.947 0 1.714-.716 1.714-1.6V2.133c0-.883-.767-1.6-1.714-1.6Z" stroke="#000" stroke-opacity=".1" stroke-width="1.143"/></g></g><defs><clipPath id="a"><path fill="#fff" d="M0 0h24v16H0z"/></clipPath></defs></svg>