<svg xmlns="http://www.w3.org/2000/svg" width="32" height="32"><g fill="none" fill-rule="evenodd"><path d="M0 0h32v32H0z"/><path d="M15.82 16.39A12.56 12.56 0 0 1 18.08 13a6.432 6.432 0 0 1 3.25-2 1.193 1.193 0 0 1 1 .22.2.2 0 0 0 .18.06 4.005 4.005 0 0 1 3.06 0c.524.27 1.032.57 1.52.9.041 0 .026.047.013.09a.168.168 0 0 0-.013.05c-.29.32-.53.64-.79 1h-.1l-1.33-.92a2.941 2.941 0 0 0-2.15-.59c-.048 0-.044.046-.04.102.004.047.008.101-.02.138a3.99 3.99 0 0 1-.66 2.21c-.272.494-.706.88-1.23 1.09a.598.598 0 0 1-.61-.21c-.364-.56-.048-1.234.2-1.76v-.003l.001-.001.05-.106a5.248 5.248 0 0 1 1.38-1.55v-.07c0-.047-.068-.03-.134-.015a.407.407 0 0 1-.087.015 5.835 5.835 0 0 0-2.28 1.85 13.921 13.921 0 0 0-2.61 4.8c-.16.65-.37 1.66.3 2.11.61.41 1.062.008 1.47-.354l.12-.106a4.685 4.685 0 0 0 1.3-2.37c0-.059.006-.123.012-.189.02-.225.042-.474-.152-.62-.204-.156-.342.003-.467.148-.028.032-.055.064-.083.091a2.635 2.635 0 0 0-.55 1.44c-.083.067-.176.121-.271.177-.076.044-.153.09-.229.143-.31.225-.592.487-.84.78-.01-.932.292-1.84.86-2.58a1.702 1.702 0 0 1 1.65-.759.815.815 0 0 1 .53.659c.04.88-.202 1.748-.69 2.48-.67 1-1.73 2.12-3.08 2a1.502 1.502 0 0 1-.72-.268 1.5 1.5 0 0 1-.49-.592 4.415 4.415 0 0 1 .18-3.29l.29-.81zm4.57-1.75a.314.314 0 0 0 .17.28c.207.063.373-.067.527-.189l.053-.04a3.868 3.868 0 0 0 1.08-2.25v-.4a.195.195 0 0 0-.15 0c-.42.306-.782.685-1.07 1.12a2.86 2.86 0 0 0-.61 1.48zm-15.08-3.5a8.752 8.752 0 0 0-4.38 4.17c-.212.413-.402.837-.57 1.27-.48 1.23-.58 3.06.42 4.06a3.002 3.002 0 0 0 2.63.61c.688-.098 1.345-.29 2-.482 1.089-.319 2.173-.636 3.39-.518a2.309 2.309 0 0 1 1.54 1h.05a5.848 5.848 0 0 1 3.83.08 4.639 4.639 0 0 0-2.19-1.61 7.22 7.22 0 0 0-4.48 0l-1.46.43-.77.24a3.867 3.867 0 0 1-2.72.08 2.082 2.082 0 0 1-1-2.11 8.896 8.896 0 0 1 1.14-3.24A11.247 11.247 0 0 1 5.3 12a1.42 1.42 0 0 1 .95-.41c.07.024.128.074.16.14 0 .02.007.047.014.072.013.05.026.098-.014.098a1.003 1.003 0 0 0-.72.76.455.455 0 0 0 .09.45c.026.03.059.054.095.07a.266.266 0 0 0 .115.02c.47-.07.75-.59.84-1a.91.91 0 0 0-.28-1 1.494 1.494 0 0 0-1.24-.06zm-1.68 4.78a4.551 4.551 0 0 1 2.25-2.3.885.885 0 0 1 .79.14c.44.44.27 1.2.12 1.72a.085.085 0 0 0-.008.035c0 .012.003.024.008.035a1.52 1.52 0 0 0 1-.47c.065-.072.13-.147.197-.223.556-.635 1.169-1.336 2.053-1.247a.67.67 0 0 1 .47.31 1.33 1.33 0 0 1-.34 1.44.498.498 0 0 1-.49.16.33.33 0 0 1-.17-.18.875.875 0 0 1 .491-.86c.028-.028.077-.037.127-.045.09-.015.178-.03.132-.165a.24.24 0 0 0-.26-.08 2.816 2.816 0 0 0-1 1.11 7.29 7.29 0 0 0-.82 1.76 1.004 1.004 0 0 0 0 .72.399.399 0 0 0 .42.15c.471-.22.89-.537 1.23-.93.301-.362.552-.756.803-1.15.442-.693.883-1.387 1.597-1.91a1.233 1.233 0 0 1 1.25-.2c.03 0 .056.02.083.04.037.028.075.057.127.04.036-.012.06-.047.086-.084.039-.056.08-.114.164-.096h1l-.09.22-1.74 3.53a.33.33 0 0 0 0 .14h.14a2.36 2.36 0 0 0 .62-.64c.153-.208.286-.429.4-.66l.01-.013c.047-.067.096-.136.18-.127.063.007.144.004.214.002l.086-.002c-.13.291-.277.575-.44.85a3.778 3.778 0 0 1-2 1.78.507.507 0 0 1-.43-.08c-.13-.092-.16-.238-.19-.383-.01-.043-.018-.086-.03-.127a.105.105 0 0 0-.07 0 1.593 1.593 0 0 1-1.27.6.567.567 0 0 1-.33-.26 2.008 2.008 0 0 1-.1-.87h-.07c-.516.57-1.186.98-1.93 1.18a.999.999 0 0 1-.9-.3c-.522-.703-.151-1.605.136-2.302l.044-.108a.055.055 0 0 0 .015-.02.054.054 0 0 0 0-.05.055.055 0 0 0-.015-.02l-.59.08-.07.07a6.993 6.993 0 0 1-1.78 2.37c-.17.142-.375.235-.594.267a1.2 1.2 0 0 1-.646-.087 1.234 1.234 0 0 1-.376-.574 1.231 1.231 0 0 1-.014-.686c.107-.52.282-1.025.52-1.5zm1.29 0c-.278.47-.446.996-.49 1.54a.313.313 0 0 0 .21.25.39.39 0 0 0 .197-.02.387.387 0 0 0 .163-.11c.423-.411.762-.9 1-1.44 0 0 .08-.14.05-.14a1.94 1.94 0 0 1-.76-.55s-.06 0-.09.08l-.28.39zm.73-1a.705.705 0 0 0 .47.56.24.24 0 0 1 .066.013c.048.013.097.027.124-.013.085-.16.146-.332.18-.51 0-.047.004-.098.007-.15.014-.204.028-.43-.147-.55a.313.313 0 0 0-.27 0 .722.722 0 0 0-.303.255.726.726 0 0 0-.127.375v.02zm5.72 2c-.094.21-.126.443-.09.67.01.022.026.042.045.058s.041.027.065.032c.184 0 .311-.149.428-.285l.012-.015a13.678 13.678 0 0 0 1.37-2.49c.084-.173.138-.359.16-.55 0 0 0-.07-.08-.09a.25.25 0 0 0-.23.06 5.562 5.562 0 0 0-1.53 2.18l-.15.43zm4.15-3.22a9.287 9.287 0 0 0-.52 1c0 .04-.01.07-.01.07.333.02.667.02 1 0a.366.366 0 0 0 .23-.17c.17-.33.32-.66.46-1h-.83a.47.47 0 0 0-.33.1zm6.572 2.897a3.019 3.019 0 0 0-.852.913 5.63 5.63 0 0 0-1.14 2.71.997.997 0 0 0 .5 1 1.324 1.324 0 0 0 1.251-.42 7.624 7.624 0 0 0 1.47-2.1l.08-.1h.52c.08.01.08.08.08.08-.2.688-.21 1.417-.03 2.11a.68.68 0 0 0 .509.46c.62.06 1.09-.498 1.459-.938l.001-.002v.05l.002.014c.03.327.063.698.388.846.528.15.936-.226 1.305-.565l.005-.005c.01 0 .013-.022.015-.042.003-.04.007-.075.065.042.031.062.05.13.067.197.034.129.069.258.193.343a.789.789 0 0 0 .73-.08 4.822 4.822 0 0 0 1.91-2.28c0-.024.008-.054.014-.083.014-.055.026-.107-.014-.107a.545.545 0 0 0-.31 0c-.053.083-.104.167-.155.25a7.856 7.856 0 0 1-.325.5 1.995 1.995 0 0 1-.63.64c-.06.01-.15.01-.15-.06.018-.145.066-.285.14-.41l1.39-2.89.23-.47v-.09h-1c-.06 0-.078.034-.1.072a.175.175 0 0 1-.08.088c-.059.03-.107-.007-.154-.042-.032-.024-.063-.048-.096-.048a1.322 1.322 0 0 0-1.35.33c-.658.56-1.072 1.241-1.487 1.925-.297.489-.595.979-.983 1.425l-.048.046c-.117.112-.244.234-.402.164a.263.263 0 0 1-.11-.2c.046-.475.154-.942.32-1.39.023-.05.039-.106.055-.161.035-.118.07-.237.165-.319l.65-.51a15.74 15.74 0 0 0 2.473-2.89c.053-.07.107-.143.107-.22a1.19 1.19 0 0 0-.43.07 14.894 14.894 0 0 1-2.11 2.47c-.03.023-.071.055-.113.09-.108.087-.227.183-.227.14v-.06c.125-.342.285-.672.444-.999l.002-.002.134-.279a17.437 17.437 0 0 1 2.23-3.5 2.91 2.91 0 0 1 .84-.73c.02 0 .047-.008.076-.017.06-.018.124-.037.124.017a.41.41 0 0 1 0 .22 2.474 2.474 0 0 0-.09.45 1.27 1.27 0 0 1 .11-.031c.145-.037.295-.075.35-.289.07-.27.11-.64-.11-.81-.22-.17-.55-.07-.78 0a6.751 6.751 0 0 0-2.44 2.15A19.764 19.764 0 0 0 24.27 18l-.02.1a.885.885 0 0 1-.51.07.08.08 0 0 1-.06-.09c.023-.092.05-.187.078-.285.134-.469.284-.993.002-1.415a.646.646 0 0 0-.52-.27c-.412.08-.804.246-1.148.487zm-.648 3.418a.373.373 0 0 1-.064-.205c.02-.375.116-.742.28-1.08.118-.273.262-.535.43-.78a.085.085 0 0 1 .05-.018c.018 0 .036.007.05.018.2.223.437.409.7.55.05.04 0 .17 0 .17a3.92 3.92 0 0 1-1 1.43.386.386 0 0 1-.28.05.378.378 0 0 1-.166-.135zm1.307-2.222a.728.728 0 0 1-.15-.353.826.826 0 0 1 .369-.71.36.36 0 0 1 .39.082c.034.037.058.08.07.128.046.372-.024.75-.2 1.08h-.17a.733.733 0 0 1-.309-.227zm4.57 2.267c-.06-.09-.06-.25-.06-.37l.16-.39a6.704 6.704 0 0 1 1.37-2.3c.15-.11.52-.28.52-.23V17a15.058 15.058 0 0 1-1.24 2.45 1.734 1.734 0 0 1-.56.61c-.029.019-.062.03-.096.03s-.067-.011-.095-.03zm.93-6.67.45-.58.07-.06A4.844 4.844 0 0 0 32 11a1.004 1.004 0 0 1-.1.34 4.313 4.313 0 0 1-3.641 2.68h-.37c-.046 0-.03-.035-.015-.071a.141.141 0 0 0 .015-.049l.36-.51zm1.66 7.342a.282.282 0 0 0-.02.118c-.002.04.005.08.02.118a.285.285 0 0 0 .064.1.295.295 0 0 0 .215.092.316.316 0 0 0 .22-.09.314.314 0 0 0 0-.44.316.316 0 0 0-.22-.09.295.295 0 0 0-.215.092.303.303 0 0 0-.065.1zm.442.49a.39.39 0 0 1-.163.008.374.374 0 0 1-.307-.085.382.382 0 0 1 0-.58.392.392 0 0 1 .307-.085.374.374 0 0 1 .163.009.374.374 0 0 1 .244.206.384.384 0 0 1 0 .32.384.384 0 0 1-.243.206zm-.163-.342h-.08v.19h-.06v-.43h.16c.11 0 .16 0 .16.12s-.05.12-.12.12l.13.19h-.08l-.11-.19zm-.08-.19v.14h.08c.06 0 .11 0 .11-.07s-.05-.07-.1-.07h-.09z" fill="#ED1A3B"/></g></svg>