<svg width="48" height="48" fill="none" xmlns="http://www.w3.org/2000/svg"><path fill-rule="evenodd" clip-rule="evenodd" d="M17 20a6 6 0 1 0 0 12 6 6 0 0 0 0-12Zm-8 6a8 8 0 1 1 16 0 8 8 0 0 1-16 0Z" fill="#414652"/><path fill-rule="evenodd" clip-rule="evenodd" d="M13 31a1 1 0 0 1 1 1v11.374l.003.001 1.274-.64c.425-.212.849-.424 1.272-.637a1 1 0 0 1 .9-.002L20 43.377V32a1 1 0 1 1 2 0v11.38c0 1.476-1.558 2.462-2.9 1.783l-.003-.001-2.096-1.053c-.277.14-.553.277-.828.415l-1.272.638-.004.002C13.583 45.822 12 44.875 12 43.38V32a1 1 0 0 1 1-1Z" fill="#414652"/><path fill-rule="evenodd" clip-rule="evenodd" d="M16.445 8.168a1 1 0 0 1 1.11 0c1.203.802 3.435 1.66 5.848 2.424 2.376.753 4.804 1.379 6.314 1.746A2.99 2.99 0 0 1 32 15.25v13.58c0 8.198-6.395 12.082-10.634 13.75a1 1 0 0 1-.732-1.86C24.675 39.127 30 35.731 30 28.83V15.25a.99.99 0 0 0-.757-.969 102.713 102.713 0 0 1-6.444-1.783c-2.119-.671-4.306-1.473-5.798-2.325-1.497.856-3.685 1.658-5.804 2.33-2.435.77-4.908 1.406-6.438 1.778A1 1 0 0 0 4 15.25v13.58c0 6.902 5.325 10.298 9.366 11.89a1 1 0 0 1-.732 1.86C8.395 40.913 2 37.029 2 28.83V15.25a3 3 0 0 1 2.28-2.91l.003-.002a100.95 100.95 0 0 0 6.31-1.743c2.412-.763 4.644-1.62 5.852-2.427Z" fill="#414652"/><path fill-rule="evenodd" clip-rule="evenodd" d="M17 24a2 2 0 1 0 0 4 2 2 0 0 0 0-4Zm-4 2a4 4 0 1 1 8 0 4 4 0 0 1-8 0Z" fill="#414652"/><path d="M39.5 4C41.98 4 44 6.02 44 8.5S41.98 13 39.5 13 35 10.98 35 8.5 37.02 4 39.5 4Zm0-2a6.5 6.5 0 1 0 0 13 6.5 6.5 0 0 0 0-13Z" fill="#414652"/><path fill-rule="evenodd" clip-rule="evenodd" d="M40.293 7.293a1 1 0 1 1 1.414 1.414l-2 2a1 1 0 0 1-1.414 0l-1-1a1 1 0 0 1 1.414-1.414l.293.293 1.293-1.293Z" fill="#414652"/></svg>