<svg width="32" height="32" fill="none" xmlns="http://www.w3.org/2000/svg"><path d="M1.185 6.933h4.742c.654 0 1.184-.43 1.184-.96V2.56c0-.53-.53-.96-1.184-.96H1.185C.53 1.6 0 2.03 0 2.56v3.413c0 .53.53.96 1.185.96Zm0 23.111h4.742c.654 0 1.184-.449 1.184-1.003v-17.55c0-.554-.53-1.002-1.184-1.002H1.185C.53 10.489 0 10.937 0 11.49v17.55c0 .554.53 1.003 1.185 1.003Zm26.694-20.57c1.131.508 1.987 1.158 2.567 1.947a7.18 7.18 0 0 1 1.213 2.688c.227 1.002.341 2.437.341 4.304v10.565c0 .589-.462 1.066-1.032 1.066h-4.13c-.569 0-1.03-.477-1.03-1.066V21.1c0-2.611-.133-4.3-.397-5.067-.265-.767-.695-1.363-1.29-1.788-.595-.426-1.311-.638-2.149-.638a4.854 4.854 0 0 0-2.887.91 4.579 4.579 0 0 0-1.752 2.415c-.316 1.002-.474 2.855-.474 5.557v6.488c0 .589-.461 1.066-1.031 1.066h-4.13c-.57 0-1.031-.477-1.031-1.066V10.323c0-.588.461-1.066 1.031-1.066h3.69c.569 0 1.03.478 1.03 1.066v1.422c0 .588.28.684.663.248 1.927-2.188 4.277-3.282 7.051-3.282 1.366 0 2.615.254 3.747.763Z" fill="#414652" fill-opacity=".8"/></svg>