<svg xmlns="http://www.w3.org/2000/svg" width="138" height="40"><g fill="none"><path stroke="#999" d="M134 .5H4c-.966 0-1.841.392-2.475 1.025A3.495 3.495 0 0 0 .5 4v32c0 .966.392 1.841 1.025 2.475A3.495 3.495 0 0 0 4 39.5h130c.966 0 1.841-.392 2.475-1.025A3.493 3.493 0 0 0 137.5 36V4c0-.966-.392-1.841-1.025-2.475A3.495 3.495 0 0 0 134 .5z"/><path fill="#333" d="M40.004 20.208V18.72H38.72v-.672c1.692-.372 2.748-1.812 2.748-4.236 0-2.844-1.464-4.332-3.684-4.332S34.1 10.968 34.1 13.812c0 2.496 1.128 3.948 2.916 4.272v.348c0 1.152.564 1.776 1.86 1.776h1.128zm-2.22-3.684c-1.092 0-1.752-.756-1.752-2.088v-1.248c0-1.332.66-2.088 1.752-2.088s1.752.756 1.752 2.088v1.248c0 1.332-.66 2.088-1.752 2.088zm8.448 1.62c2.4 0 3.288-1.104 3.288-3.576V9.624h-1.776v5.136c0 1.176-.432 1.764-1.512 1.764s-1.512-.588-1.512-1.764V9.624h-1.776v4.944c0 2.472.888 3.576 3.288 3.576zM54.98 18v-1.452H53.9v-5.472h1.08V9.624h-3.984v1.452h1.08v5.472h-1.08V18h3.984zm4.908.144c1.536 0 2.532-.732 3.156-2.004l-1.488-.864c-.252.684-.768 1.248-1.668 1.248-1.068 0-1.776-.72-1.776-2.04V13.14c0-1.32.708-2.04 1.776-2.04.9 0 1.344.468 1.56 1.164l1.572-.816c-.612-1.344-1.596-1.968-3.132-1.968-2.256 0-3.708 1.56-3.708 4.392 0 2.832 1.452 4.272 3.708 4.272zM66.14 18v-2.328l1.092-1.32L69.452 18H71.6l-3.072-4.932 2.82-3.444h-2.064L67.4 11.988l-1.188 1.62h-.072V9.624h-1.824V18h1.824zm12.468.144c1.26 0 2.028-.636 2.148-1.476h.06V18h1.536v-4.668h-3.3v1.524h1.56v.42c0 .816-.732 1.248-1.644 1.248-1.128 0-1.86-.648-1.86-2.04V13.14c0-1.392.732-2.04 1.86-2.04.972 0 1.488.528 1.74 1.176l1.488-.852c-.624-1.284-1.74-1.944-3.228-1.944-2.268 0-3.792 1.548-3.792 4.368 0 2.808 1.512 4.296 3.432 4.296zm8.76 0c2.4 0 3.288-1.104 3.288-3.576V9.624H88.88v5.136c0 1.176-.432 1.764-1.512 1.764s-1.512-.588-1.512-1.764V9.624H84.08v4.944c0 2.472.888 3.576 3.288 3.576zM96.116 18v-1.452h-1.08v-5.472h1.08V9.624h-3.984v1.452h1.08v5.472h-1.08V18h3.984zm4.68 0c2.22 0 3.684-1.404 3.684-4.188s-1.464-4.188-3.684-4.188H97.64V18h3.156zm0-1.62h-1.332v-5.136h1.332c1.08 0 1.752.588 1.752 1.92v1.296c0 1.332-.672 1.92-1.752 1.92zM111.704 18v-1.62h-3.876v-1.812h3.324V12.96h-3.324v-1.716h3.876v-1.62h-5.7V18h5.7zM36.9 33v-.7h-.98v-5.58h.98v-.7h-2.8v.7h.98v5.58h-.98v.7h2.8zm2.25 0v-3.58c0-.66.62-.98 1.26-.98.77 0 1.17.47 1.17 1.39V33h.8v-3.31c0-1.25-.67-1.97-1.73-1.97-.77 0-1.21.38-1.46.96h-.04v-.84h-.8V33h.8zm6.43.12c1.18 0 1.91-.61 1.91-1.61 0-.78-.44-1.28-1.58-1.45l-.4-.06c-.64-.1-.99-.3-.99-.8 0-.49.35-.8 1.01-.8s1.1.31 1.33.63l.53-.48c-.42-.52-.97-.83-1.8-.83-1.05 0-1.84.5-1.84 1.52 0 .96.71 1.35 1.66 1.49l.41.06c.68.1.9.41.9.81 0 .53-.4.84-1.08.84-.65 0-1.13-.29-1.53-.79l-.57.46c.46.61 1.09 1.01 2.04 1.01zm5.46-.12v-.7h-1.05v-3.76h1.13v-.7h-1.13v-1.43h-.72v.96c0 .35-.11.47-.45.47h-.48v.7h.85v3.61c0 .5.3.85.85.85h1zm2.69.12c.72 0 1.27-.33 1.49-.96h.05c.06.48.3.84.89.84h.45v-.7h-.59v-2.84c0-1.09-.74-1.74-1.98-1.74-.93 0-1.55.46-1.83 1.01l.48.45c.28-.47.69-.77 1.31-.77.82 0 1.22.4 1.22 1.13v.51H54.2c-1.5 0-2.2.54-2.2 1.51 0 .96.64 1.56 1.73 1.56zm.13-.68c-.62 0-1.02-.29-1.02-.8v-.21c0-.5.41-.78 1.32-.78h1.06v.85c0 .53-.57.94-1.36.94zm5.45.56v-.7h-.76v-6.7h-.8v6.57c0 .48.3.83.85.83h.71zm2.72 0v-.7h-.76v-6.7h-.8v6.57c0 .48.3.83.85.83h.71zm2.48.12c.72 0 1.27-.33 1.49-.96h.05c.06.48.3.84.89.84h.45v-.7h-.59v-2.84c0-1.09-.74-1.74-1.98-1.74-.93 0-1.55.46-1.83 1.01l.48.45c.28-.47.69-.77 1.31-.77.82 0 1.22.4 1.22 1.13v.51h-1.02c-1.5 0-2.2.54-2.2 1.51 0 .96.64 1.56 1.73 1.56zm.13-.68c-.62 0-1.02-.29-1.02-.8v-.21c0-.5.41-.78 1.32-.78H66v.85c0 .53-.57.94-1.36.94zm6.03.56v-.7h-1.05v-3.76h1.13v-.7h-1.13v-1.43h-.72v.96c0 .35-.11.47-.45.47h-.48v.7h.85v3.61c0 .5.3.85.85.85h1zm1.77-6.37c.34 0 .49-.18.49-.45v-.13c0-.27-.15-.45-.49-.45-.34 0-.49.18-.49.45v.13c0 .27.15.45.49.45zm.4 6.37v-5.16h-.8V33h.8zm3.65.12c1.38 0 2.33-1.06 2.33-2.7 0-1.64-.95-2.7-2.33-2.7-1.38 0-2.33 1.06-2.33 2.7 0 1.64.95 2.7 2.33 2.7zm0-.71c-.86 0-1.47-.53-1.47-1.62v-.74c0-1.09.61-1.62 1.47-1.62s1.47.53 1.47 1.62v.74c0 1.09-.61 1.62-1.47 1.62zm4.45.59v-3.58c0-.66.62-.98 1.26-.98.77 0 1.17.47 1.17 1.39V33h.8v-3.31c0-1.25-.67-1.97-1.73-1.97-.77 0-1.21.38-1.46.96h-.04v-.84h-.8V33h.8zm9.19.12c1.38 0 2.33-1.06 2.33-2.7 0-1.64-.95-2.7-2.33-2.7-1.38 0-2.33 1.06-2.33 2.7 0 1.64.95 2.7 2.33 2.7zm0-.71c-.86 0-1.47-.53-1.47-1.62v-.74c0-1.09.61-1.62 1.47-1.62s1.47.53 1.47 1.62v.74c0 1.09-.61 1.62-1.47 1.62zm4.45.59v-3.58c0-.66.62-.98 1.26-.98.77 0 1.17.47 1.17 1.39V33h.8v-3.31c0-1.25-.67-1.97-1.73-1.97-.77 0-1.21.38-1.46.96h-.04v-.84h-.8V33h.8zm11.13 0v-.74h-2.97v-6.24h-.84V33h3.81zm1.52-6.37c.34 0 .49-.18.49-.45v-.13c0-.27-.15-.45-.49-.45-.34 0-.49.18-.49.45v.13c0 .27.15.45.49.45zm.4 6.37v-5.16h-.8V33h.8zm2.5 0v-3.58c0-.66.62-.98 1.26-.98.77 0 1.17.47 1.17 1.39V33h.8v-3.31c0-1.25-.67-1.97-1.73-1.97-.77 0-1.21.38-1.46.96h-.04v-.84h-.8V33h.8zm6.57.12c.86 0 1.25-.47 1.45-.96h.04V33h.8v-5.16h-.8v3.57c0 .68-.62.99-1.25.99-.77 0-1.18-.47-1.18-1.39v-3.17h-.8v3.31c0 1.25.68 1.97 1.74 1.97zm4.24-.12 1.45-2.02h.03l1.34 2.02h.94l-1.86-2.66 1.82-2.5h-.89l-1.36 1.92h-.03l-1.31-1.92h-.94l1.83 2.56-1.91 2.6h.89z"/><path fill="#000" d="M24.945 26.901c-.546-.442-.334-1.42-.9-1.902.548-3.339-.99-6.282-2.823-8.168-1.54-1.583-1.043-3.123-1.043-4.455 0-2.13-.874-4.376-3.523-4.376-2.83 0-3.606 2.362-3.634 3.709-.068 3.237.654 4.078-1.24 6.434-2.229 2.771-2.557 5.536-2.054 7.002a2.908 2.908 0 0 1-1.146.829c-1.64.714-.438 1.91-.891 2.758-.13.241-.191.493-.191.734 0 .744.591 1.388 1.666 1.292 1.45-.129 2.787.898 3.652.898.764 0 1.392-.434 1.683-1.033 1.367-.336 3.053-.293 4.419.059.245.685.91 1.132 1.649 1.132 1.618 0 1.93-1.835 3.786-2.456.67-.223 1.005-.872 1.005-1.476 0-.387-.137-.755-.415-.98zm-9.076-10.384c-.317 0-.579-.256-.993-.563-.524-.39-1.056-.613-1.05-1.022 0-.281.376-.367.862-.676.522-.33.725-.666 1.24-.666.525 0 .684.266 1.398.575.703.304 1.192.424 1.192.767 0 .352-.735.604-1.15.861-.607.375-.92.724-1.5.724zm1.652-5.174c.875.14.973 1.678.554 2.435l-.352-.144c.183-.539.18-1.426-.431-1.482-.388-.036-.639.476-.692.914a1.696 1.696 0 0 0-.519-.126c.061-.915.653-1.723 1.44-1.597zm-3.377.328c.67-.166 1.067.614 1.07 1.424l-.308.189c-.042-.34-.193-.89-.574-.773-.408.127-.342 1.074-.114 1.269l-.304.169c-.417-.702-.416-2.117.23-2.278zm-2.099 19.094c-1.947-.886-2.61-.685-2.981-.685-.771 0-1.023-.574-.733-1.118.246-.461.17-.944.109-1.332-.094-.595-.11-.788.474-1.044.809-.344 1.168-.785 1.436-1.115.752-.93 1.51.532 2.133 1.835.404.845 1.199 1.272 1.444 2.208.225.864-.705 1.787-1.882 1.251zm6.933-1.86c-1.373.668-3.122.975-4.431.297-.194-.558-.503-.92-.837-1.283.535-.14.932-.807.457-1.477-.507-.715-1.543-1.215-2.59-2.024-.98-.757-1.289-2.624.045-4.71-.65 1.848-.27 3.55.056 4.038.068-.98.145-2.618 1.485-4.58.675-.99.685-2.297.7-3.115l.615.42c.453.335.832.703 1.376.703.803 0 1.248-.462 1.867-.846.242-.149.608-.3.916-.51.516 2.458 2.653 5.413 2.773 7.095.497-1.024-.14-3.486-.14-3.486.835 1.275.901 2.337.938 3.641.585.24 1.212.863 1.27 1.683l-.244-.028c-.125-.912-2.587-2.251-2.808-.534-1.18.18-.751 2.05-.99 3.262-.108.555-.31.993-.458 1.455zm4.809-.04c-.978.377-1.637 1.178-2.09 1.675-.874.958-2.03.499-2.152-.398-.13-.958.357-1.481.567-2.554.192-.98-.022-2.487.428-2.647.293 1.74 2.05 1.008 2.451.533.652 0 .706.22.852.831.092.382.218.703.574 1.082.415.443.288 1.124-.63 1.478zM15.849 15.96c-.646 0-1.13-.43-1.522-.763-.202-.17.05-.483.25-.313.385.326.772.67 1.272.67.602 0 1.133-.515 1.852-.799.245-.096.385.283.142.38-.698.274-1.259.825-1.994.825z"/></g></svg>16.948.35 1.26.24.306.564.459.972.459.408 0 .73-.153.963-.459.24-.312.36-.732.36-1.26Zm2.05-2.205c.193-.048.448-.099.766-.153a6.619 6.619 0 0 1 1.098-.081c.372 0 .68.054.927.162.246.102.44.249.585.441.15.186.255.411.315.675.06.264.09.555.09.873V14h-.837v-2.448c0-.288-.021-.534-.063-.738a1.204 1.204 0 0 0-.19-.495.739.739 0 0 0-.36-.27 1.51 1.51 0 0 0-.557-.09 4.475 4.475 0 0 0-.558.036 2.52 2.52 0 0 0-.378.054V14h-.837V9.455Zm11.383 2.205c0 .372-.054.708-.162 1.008-.108.3-.261.558-.46.774a2.005 2.005 0 0 1-.692.504c-.27.114-.564.171-.882.171-.318 0-.612-.057-.882-.171a2.097 2.097 0 0 1-.702-.504 2.347 2.347 0 0 1-.45-.774 2.96 2.96 0 0 1-.162-1.008c0-.366.054-.699.162-.999a2.33 2.33 0 0 1 .45-.783c.198-.216.432-.381.702-.495.27-.12.564-.18.882-.18.318 0 .612.06.882.18.27.114.5.279.693.495.198.216.35.477.459.783.108.3.162.633.162.999Zm-.873 0c0-.528-.12-.945-.36-1.251-.234-.312-.555-.468-.963-.468-.408 0-.732.156-.972.468-.234.306-.351.723-.351 1.251 0 .528.117.948.35 1.26.24.306.565.459.973.459.408 0 .729-.153.963-.459.24-.312.36-.732.36-1.26Zm2.05-2.205c.192-.048.447-.099.765-.153a6.619 6.619 0 0 1 1.098-.081c.372 0 .681.054.927.162.246.102.441.249.585.441.15.186.255.411.315.675.06.264.09.555.09.873V14h-.837v-2.448c0-.288-.02-.534-.063-.738a1.204 1.204 0 0 0-.189-.495.739.739 0 0 0-.36-.27 1.51 1.51 0 0 0-.558-.09 4.475 4.475 0 0 0-.558.036 2.52 2.52 0 0 0-.378.054V14h-.837V9.455Zm11.058 3.789V14h-3.753V7.763h.873v5.481h2.88Zm1.697.756h-.837V9.32h.837V14Zm-.423-5.526a.563.563 0 0 1-.387-.144.547.547 0 0 1-.153-.405c0-.168.051-.3.153-.396a.544.544 0 0 1 .387-.153c.15 0 .276.051.378.153a.503.503 0 0 1 .162.396.531.531 0 0 1-.162.405.53.53 0 0 1-.378.144Zm1.863.981c.192-.048.447-.099.765-.153a6.619 6.619 0 0 1 1.098-.081c.372 0 .681.054.927.162.246.102.441.249.585.441.15.186.255.411.315.675.06.264.09.555.09.873V14h-.837v-2.448c0-.288-.021-.534-.063-.738a1.204 1.204 0 0 0-.189-.495.739.739 0 0 0-.36-.27 1.51 1.51 0 0 0-.558-.09 4.475 4.475 0 0 0-.558.036 2.52 2.52 0 0 0-.378.054V14h-.837V9.455Zm8.894 4.41c-.192.048-.447.099-.765.153a6.455 6.455 0 0 1-1.089.081c-.36 0-.663-.051-.909-.153a1.504 1.504 0 0 1-.594-.45 1.81 1.81 0 0 1-.324-.675 3.598 3.598 0 0 1-.099-.873V9.32h.837v2.448c0 .57.09.978.27 1.224.18.246.483.369.909.369.09 0 .183-.003.279-.009l.27-.018c.084-.012.159-.021.225-.027a.825.825 0 0 0 .153-.036V9.32h.837v4.545Zm4.241.135a7.14 7.14 0 0 0-.243-.441 9.59 9.59 0 0 0-.315-.495 15.444 15.444 0 0 0-.351-.513c-.12-.168-.237-.327-.351-.477-.114.15-.231.312-.351.486-.12.168-.237.339-.351.513-.108.168-.21.333-.306.495a9.591 9.591 0 0 0-.243.432h-.864c.21-.408.459-.822.747-1.242.294-.426.585-.831.873-1.215l-1.548-2.223h.945l1.116 1.638 1.125-1.638h.891l-1.512 2.169c.288.39.582.804.882 1.242.306.432.564.855.774 1.269h-.918ZM43.554 29.232c.125.011.289.023.493.034h.833c1.44 0 2.51-.363 3.213-1.088.714-.737 1.071-1.762 1.071-3.077 0-1.337-.346-2.363-1.037-3.077s-1.762-1.071-3.213-1.071c-.635 0-1.088.017-1.36.051v8.228Zm7.854-4.131c0 1.02-.159 1.91-.476 2.669a5.08 5.08 0 0 1-1.36 1.887c-.578.499-1.28.873-2.108 1.122-.816.238-1.723.357-2.72.357-.476 0-1.014-.023-1.615-.068-.6-.034-1.173-.113-1.717-.238V19.389a10.317 10.317 0 0 1 1.734-.238 29.773 29.773 0 0 1 1.632-.051c.986 0 1.887.119 2.703.357.816.227 1.513.59 2.091 1.088a4.76 4.76 0 0 1 1.36 1.87c.317.748.476 1.643.476 2.686Zm10.278 1.445a5.74 5.74 0 0 1-.306 1.921 4.252 4.252 0 0 1-.867 1.479 3.88 3.88 0 0 1-1.36.952 4.3 4.3 0 0 1-1.734.34 4.304 4.304 0 0 1-1.734-.34 3.919 3.919 0 0 1-1.343-.952 4.47 4.47 0 0 1-.884-1.479 5.74 5.74 0 0 1-.306-1.921c0-.703.102-1.337.306-1.904a4.47 4.47 0 0 1 .884-1.479 3.89 3.89 0 0 1 1.36-.935 4.26 4.26 0 0 1 1.717-.34 4.26 4.26 0 0 1 1.717.34c.533.215.986.527 1.36.935.374.408.663.901.867 1.479.215.567.323 1.201.323 1.904Zm-2.108 0c0-.884-.193-1.581-.578-2.091-.374-.521-.901-.782-1.581-.782-.68 0-1.213.26-1.598.782-.374.51-.561 1.207-.561 2.091 0 .895.187 1.604.56 2.125.386.521.919.782 1.599.782.68 0 1.207-.26 1.58-.782.386-.521.579-1.23.579-2.125Zm9.349-1.139a56.395 56.395 0 0 1-.85 2.924c-.295.94-.59 1.83-.885 2.669H65.51a36.383 36.383 0 0 1-.715-1.785 57.226 57.226 0 0 1-.748-2.142 88.46 88.46 0 0 1-.747-2.397 117.11 117.11 0 0 1-.731-2.567h2.175c.103.476.222.992.358 1.547.135.544.277 1.105.424 1.683.148.567.3 1.122.46 1.666.158.544.317 1.043.475 1.496a44.4 44.4 0 0 0 .493-1.615c.17-.555.33-1.11.477-1.666a68.07 68.07 0 0 0 .407-1.615c.137-.533.256-1.031.358-1.496h1.58a110.908 110.908 0 0 0 .731 3.111c.148.555.3 1.11.46 1.666.17.555.34 1.094.51 1.615a59.154 59.154 0 0 0 .918-3.162 54.838 54.838 0 0 0 .799-3.23h2.124c-.237.873-.481 1.728-.73 2.567-.25.839-.5 1.638-.748 2.397-.25.76-.5 1.473-.749 2.142a26.97 26.97 0 0 1-.73 1.785h-1.666a214.48 214.48 0 0 1-.918-2.669 54.963 54.963 0 0 1-.85-2.924Zm7.96-3.009c.397-.113.912-.221 1.547-.323a13.34 13.34 0 0 1 2.108-.153c.725 0 1.332.102 1.82.306.487.193.872.47 1.155.833.295.351.499.782.612 1.292a6.78 6.78 0 0 1 .187 1.649V31H82.26v-4.675a6.07 6.07 0 0 0-.102-1.207c-.056-.34-.158-.612-.306-.816a1.112 1.112 0 0 0-.578-.459c-.238-.102-.532-.153-.884-.153-.26 0-.532.017-.816.051a15.27 15.27 0 0 0-.629.085V31h-2.057v-8.602Zm13.038 8.772c-.611-.011-1.121-.08-1.53-.204-.396-.125-.713-.3-.951-.527a2.028 2.028 0 0 1-.51-.867 4.77 4.77 0 0 1-.136-1.19V18.148l2.056-.34v10.183c0 .25.017.459.052.629.045.17.118.317.22.442.102.113.239.204.408.272.182.057.408.102.68.136l-.288 1.7Zm9.994-4.624a5.74 5.74 0 0 1-.306 1.921 4.252 4.252 0 0 1-.867 1.479 3.88 3.88 0 0 1-1.36.952 4.296 4.296 0 0 1-1.734.34 4.304 4.304 0 0 1-1.734-.34 3.919 3.919 0 0 1-1.343-.952 4.47 4.47 0 0 1-.884-1.479 5.74 5.74 0 0 1-.306-1.921c0-.703.102-1.337.306-1.904a4.47 4.47 0 0 1 .884-1.479 3.9 3.9 0 0 1 1.36-.935 4.26 4.26 0 0 1 1.717-.34 4.26 4.26 0 0 1 1.717.34c.533.215.986.527 1.36.935.374.408.663.901.867 1.479.216.567.323 1.201.323 1.904Zm-2.108 0c0-.884-.192-1.581-.578-2.091-.374-.521-.9-.782-1.58-.782s-1.213.26-1.599.782c-.374.51-.56 1.207-.56 2.091 0 .895.186 1.604.56 2.125.386.521.918.782 1.598.782s1.207-.26 1.581-.782c.386-.521.578-1.23.578-2.125Zm7.355 3.009c.635 0 1.117-.034 1.445-.102v-2.278a4.59 4.59 0 0 0-1.207-.153c-.226 0-.459.017-.697.051a2.263 2.263 0 0 0-.629.187c-.181.09-.328.221-.442.391-.113.159-.17.363-.17.612 0 .487.153.827.459 1.02.306.181.72.272 1.241.272Zm-.17-7.667c.68 0 1.253.085 1.717.255.465.17.833.408 1.105.714.284.306.482.68.595 1.122.125.43.187.907.187 1.428v5.389a22.58 22.58 0 0 1-1.445.238c-.634.102-1.354.153-2.159.153a6.51 6.51 0 0 1-1.462-.153 3.163 3.163 0 0 1-1.139-.493 2.44 2.44 0 0 1-.731-.884c-.17-.363-.255-.81-.255-1.343 0-.51.097-.94.289-1.292.204-.351.476-.635.816-.85.34-.227.731-.385 1.173-.476a6.416 6.416 0 0 1 1.411-.153c.227 0 .465.017.714.051.25.023.516.068.799.136v-.34c0-.238-.028-.465-.085-.68a1.282 1.282 0 0 0-.306-.561c-.136-.17-.323-.3-.561-.391-.226-.09-.515-.136-.867-.136-.476 0-.912.034-1.309.102a5.785 5.785 0 0 0-.969.238l-.255-1.666c.261-.09.641-.181 1.139-.272a8.937 8.937 0 0 1 1.598-.136Zm7.739 4.641c0 .907.215 1.62.646 2.142.43.51 1.025.765 1.785.765.328 0 .606-.011.833-.034a7.25 7.25 0 0 0 .578-.102v-5.1a2.96 2.96 0 0 0-.731-.34 2.631 2.631 0 0 0-.952-.17c-.748 0-1.298.255-1.649.765-.34.51-.51 1.201-.51 2.074Zm5.899 4.199c-.408.125-.924.238-1.547.34-.612.102-1.258.153-1.938.153-.703 0-1.332-.108-1.887-.323a4.061 4.061 0 0 1-1.428-.918 4.337 4.337 0 0 1-.901-1.462c-.204-.578-.306-1.224-.306-1.938 0-.703.085-1.337.255-1.904a4.277 4.277 0 0 1 .782-1.479c.34-.408.753-.72 1.241-.935.487-.227 1.048-.34 1.683-.34.43 0 .81.051 1.139.153.328.102.612.215.85.34v-4.267l2.057-.34v12.92Z" fill="#fff"/></svg>