<svg width="48" height="48" fill="none" xmlns="http://www.w3.org/2000/svg"><path d="M18 44.83s-14-2.33-14-14V17.25a2 2 0 0 1 1.52-1.94c3.04-.74 9.8-2.52 12.48-4.31 2.67 1.78 9.44 3.57 12.48 4.31.9.22 1.52 1.02 1.52 1.94v13.58c0 11.67-14 14-14 14Z" stroke="#fff" stroke-width="2" stroke-linecap="round" stroke-linejoin="round"/><path d="m16.26 20.25-6.57 11.6c-.75 1.33.21 2.99 1.74 2.99h13.14c1.53 0 2.5-1.65 1.74-2.99l-6.57-11.6c-.77-1.35-2.71-1.35-3.48 0v0ZM18 26.17v2" stroke="#fff" stroke-width="2" stroke-linecap="round" stroke-linejoin="round"/><path d="M18 30.17c-.55 0-1 .45-1 1s.45 1 1 1 1-.45 1-1-.45-1-1-1ZM39.5 4C41.98 4 44 6.02 44 8.5S41.98 13 39.5 13 35 10.98 35 8.5 37.02 4 39.5 4Zm0-2a6.5 6.5 0 1 0 0 13 6.5 6.5 0 0 0 0-13Z" fill="#fff"/><path d="m38 9 1 1 2-2" stroke="#fff" stroke-width="2" stroke-linecap="round" stroke-linejoin="round"/></svg>