<svg width="66" height="66" fill="none" xmlns="http://www.w3.org/2000/svg"><path opacity=".01" fill="#fff" stroke="#979797" stroke-width="1.333" d="M.666 1h64v64h-64z"/><mask id="a" style="mask-type:alpha" maskUnits="userSpaceOnUse" x="0" y="1" width="51" height="50"><path fill-rule="evenodd" clip-rule="evenodd" d="M.666 1h49.633v49.632H.666V1Z" fill="#fff"/></mask><g mask="url(#a)"><path fill-rule="evenodd" clip-rule="evenodd" d="M27.56 34.913v3.311h-4.133v-3.299c-3.045-.567-4.959-2.446-5.094-5.175h3.582c.175 1.433 1.62 2.355 3.709 2.355 1.925 0 3.288-.934 3.288-2.263 0-1.133-.883-1.778-3.056-2.265l-2.304-.493c-3.227-.674-4.812-2.354-4.812-5.054 0-2.701 1.8-4.648 4.664-5.288v-3.334h4.133v3.34c2.796.623 4.659 2.53 4.749 5.095h-3.459c-.175-1.399-1.477-2.333-3.266-2.333-1.788 0-3.079.86-3.079 2.208 0 1.093.843 1.699 2.92 2.163l2.135.453c3.56.747 5.094 2.263 5.094 5.03 0 2.962-1.902 4.943-5.072 5.55ZM.665 25.816c0 13.705 11.11 24.817 24.816 24.817S50.3 39.52 50.3 25.816 39.188 1 25.482 1 .666 12.11.666 25.816Z" fill="#85ACAF"/></g><path fill-rule="evenodd" clip-rule="evenodd" d="M43.356 31.273v5.572h10.54l-16.727 16.73-11.397-11.203L9.418 55.857v7.837L25.788 50.2 37.2 61.421l20.588-20.585v10.44h5.572V31.274H43.355Z" fill="#FF444F" style="mix-blend-mode:multiply"/></svg>