<svg width="66" height="66" fill="none" xmlns="http://www.w3.org/2000/svg"><path opacity=".01" fill="#fff" stroke="#979797" stroke-width="1.333" d="M1 1h64v64H1z"/><mask id="a" style="mask-type:alpha" maskUnits="userSpaceOnUse" x="1" y="1" width="64" height="64"><path fill-rule="evenodd" clip-rule="evenodd" d="M1 1h64v64H1V1Z" fill="#fff"/></mask><g mask="url(#a)"><path fill-rule="evenodd" clip-rule="evenodd" d="m35.297 61.24.175-5.69 2.369.074.101-3.32 3.555.109.16-5.215 2.479-3.484 2.406-1.112 3.763 1.064 2.284 2.916 4.481.85S51.004 59.758 35.297 61.24Zm-9.174-10.716-1.896-.422-1.683-2.946 1.894-2.738 1.636-.901 1.312.901.42 2.527.212 2.104-1.895 1.475Zm-8.155-5.107 1.452 1.998-1.816 2.453-5.268-1.454-7.173-7.356c-.546-3.496-.744-6.744-.744-6.744a29.041 29.041 0 0 1 5.005-17.55l1.545-2.244 2.854 1.713 1.052 1.684 2.948 1.896 1.893 1.263.632 1.473v2.105c0 1.475.843 8.21.843 8.21l-2.106 2.949-2.737 1.895s-.632 1.053-.632 2.105v3.789l2.252 1.815ZM60.923 33l-.056 1.433a1.164 1.164 0 0 1-1.459 1.081l-2.059-.54L56.15 33H33V1C22.755 1 13.64 5.822 7.783 13.313A31.852 31.852 0 0 0 1 33c0 .493.016.984.039 1.472C1.808 51.462 15.82 65 33 65c17.673 0 32-14.327 32-32h-4.077Z" fill="#85ACAF"/></g><path fill-rule="evenodd" clip-rule="evenodd" d="M58.65 5.733H47.696L41.88 15.748H26.502a3.326 3.326 0 0 1-6.344-1.41 3.333 3.333 0 0 1 6.417-1.257h13.768L46.16 3.066h12.426A3.332 3.332 0 0 1 65 4.333a3.327 3.327 0 0 1-6.35 1.4Zm-2.283 20.25h-6.146V8.487h6.146v17.496Zm-14.778 0h6.145v-7.81H41.59v7.81Zm-2.484.001H33.04v-6.357h6.065v6.357Zm25.893 4.48H33.04v-2.573h31.958v2.573Zm-6.146-4.481H65V11.756h-6.147v14.227Z" fill="#FF444F" style="mix-blend-mode:multiply"/></svg>