<svg width="72" height="72" fill="none" xmlns="http://www.w3.org/2000/svg"><path d="M0 13.5C0 6.044 6.044 0 13.5 0h45C65.956 0 72 6.044 72 13.5v45C72 65.956 65.956 72 58.5 72h-45C6.044 72 0 65.956 0 58.5v-45Z" fill="#0364B9"/><path d="M13.5 0C6.044 0 0 6.044 0 13.5v.392L67.308 3.268A13.447 13.447 0 0 0 58.5 0h-45Zm55.197 4.652L56.35 72h2.15C65.956 72 72 65.956 72 58.5v-45c0-3.384-1.246-6.478-3.303-8.848Z" fill="#0A559E"/><path d="M16.676 26.403c.324.594.693 1.332 1.107 2.214a62.43 62.43 0 0 1 1.323 2.835c.468 1.008.927 2.043 1.377 3.105l1.269 2.997 1.269-2.997c.45-1.062.9-2.097 1.35-3.105.468-1.026.909-1.97 1.323-2.835.432-.882.81-1.62 1.134-2.214h3.834c.18 1.242.342 2.637.486 4.185.162 1.53.297 3.132.405 4.806.126 1.656.234 3.321.324 4.995.108 1.674.198 3.25.27 4.725h-4.104a485.784 485.784 0 0 0-.216-5.94c-.09-2.142-.225-4.302-.405-6.48-.324.756-.684 1.593-1.08 2.511l-1.188 2.754c-.378.918-.747 1.8-1.107 2.646-.36.828-.666 1.54-.918 2.133h-2.943c-.252-.594-.558-1.305-.918-2.133-.36-.846-.738-1.728-1.134-2.646-.378-.918-.765-1.836-1.161-2.754l-1.08-2.51c-.18 2.177-.315 4.337-.405 6.48a484.34 484.34 0 0 0-.216 5.94h-4.104c.072-1.477.153-3.052.243-4.726l.324-4.995c.126-1.674.261-3.276.405-4.806.162-1.548.333-2.943.513-4.185h4.023Zm31.528 0v3.591H42.56v15.12h-4.212v-15.12h-5.643v-3.59h15.498Zm8.916 13.203c0-.522-.116-.98-.35-1.377-.234-.414-.64-.756-1.215-1.026-.576-.27-1.35-.477-2.322-.62-.972-.145-2.196-.217-3.672-.217.198-1.674.36-3.375.486-5.103.126-1.728.225-3.348.297-4.86h10.125v3.375h-6.75a58.318 58.318 0 0 1-.135 1.89 27.059 27.059 0 0 1-.135 1.566c2.628.18 4.563.801 5.805 1.863 1.26 1.044 1.89 2.502 1.89 4.374 0 .864-.153 1.665-.46 2.403a5.17 5.17 0 0 1-1.376 1.917c-.612.54-1.386.963-2.322 1.27-.918.305-1.998.458-3.24.458-.486 0-1-.036-1.54-.108a14.422 14.422 0 0 1-1.538-.243c-.486-.09-.927-.189-1.323-.297a5.195 5.195 0 0 1-.918-.324l.729-3.32c.45.197 1.044.395 1.782.593.738.18 1.62.27 2.646.27 1.242 0 2.142-.243 2.7-.729.558-.504.837-1.089.837-1.755Z" fill="#fff"/></svg> in="SourceAlpha" values="0 0 0 0 0 0 0 0 0 0 0 0 0 0 0 0 0 0 127 0" result="hardAlpha"/><feOffset dy="1"/><feGaussianBlur stdDeviation="1"/><feColorMatrix values="0 0 0 0 0.054902 0 0 0 0 0.054902 0 0 0 0 0.054902 0 0 0 0.05 0"/><feBlend in2="BackgroundImageFix" result="effect1_dropShadow_1574_4647"/><feBlend in="SourceGraphic" in2="effect1_dropShadow_1574_4647" result="shape"/></filter></defs></svg>