<svg width="96" height="97" fill="none" xmlns="http://www.w3.org/2000/svg"><path d="m57.87 46.54 20.51-20.51a5.54 5.54 0 0 0 0-7.83l-.08-.08a5.54 5.54 0 0 0-7.83 0L49.96 38.63a2.764 2.764 0 0 1-3.91 0L25.53 18.12a5.54 5.54 0 0 0-7.83 0l-.08.08a5.54 5.54 0 0 0 0 7.83l20.51 20.51a2.764 2.764 0 0 1 0 3.91L17.62 70.96a5.54 5.54 0 0 0 0 7.83l.08.08a5.54 5.54 0 0 0 7.83 0l20.51-20.51a2.764 2.764 0 0 1 3.91 0l20.51 20.51a5.54 5.54 0 0 0 7.83 0l.08-.08a5.54 5.54 0 0 0 0-7.83L57.86 50.45a2.764 2.764 0 0 1 0-3.91h.01Z" stroke="#fff" stroke-width="4" stroke-miterlimit="10"/></svg>