<svg width="48" height="48" fill="none" xmlns="http://www.w3.org/2000/svg"><path d="M12 8h6c2.21 0 4 1.79 4 4v9c0 .55-.45 1-1 1h-9c-2.21 0-4-1.79-4-4v-6c0-2.21 1.79-4 4-4Zm5 9v-2m-4 2v-3m17-6h6c2.21 0 4 1.79 4 4v6c0 2.21-1.79 4-4 4h-9c-.55 0-1-.45-1-1v-9c0-2.21 1.79-4 4-4Zm5 9v-4m-4 4v-1m9 14v6c0 2.21-1.79 4-4 4h-6c-2.21 0-4-1.79-4-4v-9c0-.55.45-1 1-1h9c2.21 0 4 1.79 4 4Zm-5 5v-1m-4 1v-4M9 33l.27-.27L11 31l4 4 6-6h-2m2 0v2" stroke="#414652" stroke-width="2" stroke-linecap="round" stroke-linejoin="round"/></svg>