<svg width="48" height="48" fill="none" xmlns="http://www.w3.org/2000/svg"><path fill-rule="evenodd" clip-rule="evenodd" d="M25.946 17.02A1.992 1.992 0 0 1 27.687 16h3.33c.735 0 1.386.406 1.735 1.008l.007.011 1.688 2.998.001.002a2.005 2.005 0 0 1 0 1.963v.001l-1.689 2.997A1.993 1.993 0 0 1 31.017 26h-3.33a2.013 2.013 0 0 1-1.734-1.008l-.007-.011-1.689-2.998v-.001a2.005 2.005 0 0 1 0-1.964v-.001l1.69-2.998Zm1.743.98L26 20.998v.004l1.683 2.988a.04.04 0 0 0 .01.01h3.323l1.689-2.998v-.004l-1.683-2.988a.04.04 0 0 0-.01-.01h-3.323Zm-23.743-.98A1.992 1.992 0 0 1 5.687 16h3.33c.735 0 1.386.406 1.735 1.008l.007.011 1.688 2.998.001.002a2.006 2.006 0 0 1 0 1.962v.002l-1.689 2.997A1.993 1.993 0 0 1 9.017 26h-3.33a2.013 2.013 0 0 1-1.734-1.008l-.007-.011-1.689-2.998v-.001a2.005 2.005 0 0 1 0-1.964v-.001l1.69-2.998Zm5.066.98a.037.037 0 0 1 .01.01l1.683 2.988v.004l-1.689 2.997L5.693 24a.037.037 0 0 1-.01-.01L4 21.002v-.004l1.689-2.997L9.012 18Zm5.934-7.98A1.992 1.992 0 0 1 16.688 9h3.33c.734 0 1.385.406 1.734 1.008l.007.011 1.689 2.998v.002a2.005 2.005 0 0 1 0 1.963v.001l-1.689 2.997A1.993 1.993 0 0 1 20.017 19h-3.33a2.013 2.013 0 0 1-1.734-1.008l-.007-.011-1.688-2.998-.001-.001a2.005 2.005 0 0 1 0-1.964v-.001l1.69-2.998Zm5.066.98a.04.04 0 0 1 .01.01L21.705 14v.003L20.016 17l-3.323.001a.04.04 0 0 1-.01-.01L15 14.002v-.004l1.689-2.997L20.012 11Zm-5.066 25.02A1.992 1.992 0 0 1 16.688 35h3.33c.734 0 1.385.406 1.734 1.008l.007.011 1.689 2.998v.002a2.005 2.005 0 0 1 0 1.962v.002l-1.689 2.997A1.993 1.993 0 0 1 20.017 45h-3.33a2.013 2.013 0 0 1-1.734-1.008l-.007-.011-1.688-2.998-.001-.001a2.005 2.005 0 0 1 0-1.964v-.001l1.69-2.998Zm1.743.98L15 39.998v.004l1.683 2.988a.04.04 0 0 0 .01.01h3.323l1.689-2.998v-.004l-1.683-2.988a.04.04 0 0 0-.01-.01h-3.323Zm9.257-6.98A1.992 1.992 0 0 1 27.687 29h3.33c.735 0 1.386.406 1.735 1.008l.007.011 1.688 2.998.001.002a2.006 2.006 0 0 1 0 1.962v.002l-1.689 2.997A1.993 1.993 0 0 1 31.017 39h-3.33a2.013 2.013 0 0 1-1.734-1.008l-.007-.011-1.689-2.998v-.001a2.005 2.005 0 0 1 0-1.964v-.001l1.69-2.998Zm5.066.98a.04.04 0 0 1 .01.01l1.683 2.988v.004l-1.689 2.997-3.323.001a.04.04 0 0 1-.01-.01L26 34v-.003L27.689 31h3.323Zm-27.066-.98A1.992 1.992 0 0 1 5.687 29h3.33c.735 0 1.386.406 1.735 1.008l.007.011 1.688 2.998.001.002a2.005 2.005 0 0 1 0 1.962v.002l-1.689 2.997A1.993 1.993 0 0 1 9.017 39h-3.33a2.013 2.013 0 0 1-1.734-1.008l-.007-.011-1.689-2.998v-.001a2.005 2.005 0 0 1 0-1.964v-.001l1.69-2.998Zm5.066.98a.037.037 0 0 1 .01.01l1.683 2.988v.004l-1.689 2.997L5.693 37a.037.037 0 0 1-.01-.01L4 34v-.003L5.689 31h3.323Zm5.934-7.98A1.992 1.992 0 0 1 16.688 22h3.33c.734 0 1.385.406 1.734 1.008l.007.011 1.689 2.998v.002a2.005 2.005 0 0 1 0 1.963v.001l-1.689 2.997A1.993 1.993 0 0 1 20.017 32h-3.33a2.013 2.013 0 0 1-1.734-1.008l-.007-.011-1.688-2.998-.001-.001a2.005 2.005 0 0 1 0-1.964v-.001l1.69-2.998Zm1.743.98L15 26.998v.004l1.683 2.988a.04.04 0 0 0 .01.01h3.323l1.689-2.998v-.004l-1.683-2.988a.04.04 0 0 0-.01-.01h-3.323Z" fill="#414652"/><path fill-rule="evenodd" clip-rule="evenodd" d="M18.348 30a1 1 0 0 1 1 1v5a1 1 0 1 1-2 0v-5a1 1 0 0 1 1-1Zm0-13a1 1 0 0 1 1 1v5a1 1 0 1 1-2 0v-5a1 1 0 0 1 1-1Zm2.534 11.46a1 1 0 0 1 1.366-.366l4.48 2.59a1 1 0 1 1-1.001 1.732l-4.48-2.59a1 1 0 0 1-.365-1.367ZM10.031 22.2a1 1 0 0 1 1.366-.366l4.06 2.34a1 1 0 0 1-.999 1.732l-4.06-2.34a1 1 0 0 1-.367-1.365Zm16.643 0a1 1 0 0 1-.367 1.366l-4.06 2.34a1 1 0 0 1-.999-1.732l4.06-2.34a1 1 0 0 1 1.366.367Zm-10.861 6.26a1 1 0 0 1-.365 1.366l-4.48 2.59a1 1 0 1 1-1.001-1.732l4.48-2.59a1 1 0 0 1 1.366.365Z" fill="#414652"/><path d="M38.097 4c2.48 0 4.5 2.02 4.5 4.5s-2.02 4.5-4.5 4.5-4.5-2.02-4.5-4.5 2.02-4.5 4.5-4.5Zm0-2a6.5 6.5 0 1 0 0 13 6.5 6.5 0 0 0 0-13Z" fill="#414652"/><path fill-rule="evenodd" clip-rule="evenodd" d="M38.89 7.293a1 1 0 1 1 1.415 1.414l-2 2a1 1 0 0 1-1.415 0l-1-1a1 1 0 0 1 1.415-1.414l.292.293 1.293-1.293Z" fill="#414652"/></svg>