<svg width="48" height="48" fill="none" xmlns="http://www.w3.org/2000/svg"><path d="M31 21v15c0 2.21-1.79 4-4 4h-6c-2.21 0-4-1.79-4-4V20c0-2.21 1.79-4 4-4" stroke="#414652" stroke-width="2" stroke-linecap="round" stroke-linejoin="round"/><path d="M27 36h-6" stroke="#414652" stroke-width="2" stroke-miterlimit="10" stroke-linecap="round"/><path d="M24.97 15.78c.67-.4 1.33-.8 2-1.2.4-.67.8-1.33 1.2-2l1.2 2 2 1.2c-.67.4-1.33.8-2 1.2-.4.67-.8 1.33-1.2 2l-1.2-2-2-1.2v0ZM23 10.61l1.41 1.41m7.78-.27L35.94 8m1.99 18.8.55-.55m.02 5-.55-.55M36 23v-1m0 12v1m5.5-6.5h1m-32.43-1.7-.55-.55m-.02 5 .55-.55M12 23v-1m0 12v1m-5.5-6.5h-1" stroke="#414652" stroke-width="2" stroke-linecap="round" stroke-linejoin="round"/></svg>