<svg xmlns="http://www.w3.org/2000/svg" width="28" height="28"><defs><linearGradient id="a" x1="50%" x2="50%" y1="0%" y2="100%"><stop offset="0%" stop-color="#FF6444"/><stop offset="100%" stop-color="#FF444F"/></linearGradient></defs><g fill="none" fill-rule="evenodd"><path d="M-2-2h32v32H-2z"/><path fill="url(#a)" fill-rule="nonzero" d="M16 2c7.732 0 14 6.268 14 14s-6.268 14-14 14S2 23.732 2 16 8.268 2 16 2zM3 16c0 7.18 5.82 13 13 13 3.41 0 6.513-1.313 8.832-3.46l-5.545-5.547a2.862 2.862 0 0 1-.847 1.287c-.33.288-.733.512-1.208.672a4.45 4.45 0 0 1-.73.176L16.5 23.5a.5.5 0 0 1-1 0v-1.31c-.854-.014-1.585-.187-2.196-.518a4.928 4.928 0 0 1-1.632-1.432l.992-.832.172.216c.348.418.729.743 1.14.976.48.272 1.045.408 1.696.408l-.172-.005v-4.157l-.34-.078-.3-.074c-.878-.233-1.56-.563-2.044-.99-.539-.475-.808-1.144-.808-2.008 0-.312.037-.602.11-.871L6.46 7.168A12.958 12.958 0 0 0 3 16zM16 3c-3.41 0-6.513 1.313-8.832 3.46l5.42 5.42c.13-.17.281-.322.452-.456.325-.256.715-.45 1.168-.584.453-.133.952-.2 1.496-.2l-.204.005V9.5a.5.5 0 0 1 1 0l.002 1.19c.51.07.967.207 1.37.414a4.18 4.18 0 0 1 1.528 1.36l-1.008.736-.16-.206a3.435 3.435 0 0 0-.96-.802 2.763 2.763 0 0 0-.77-.284L16.5 15.75l.112.027c.874.222 1.536.533 1.987.933l.129.123c.49.501.736 1.168.736 2l-.002-.077 6.077 6.077A12.958 12.958 0 0 0 29 16c0-7.18-5.82-13-13-13zm.5 14.207.001 3.718c.407-.09.742-.255 1.003-.493.421-.384.632-.896.632-1.536v-.057L16.5 17.207zm-3.117-3.115c.072.319.23.573.473.764.175.138.397.261.664.37zm2.116-2.266c-.648.019-1.164.17-1.547.454a1.432 1.432 0 0 0-.44.524l1.988 1.989z" transform="translate(-2 -2)"/></g></svg>