<svg xmlns="http://www.w3.org/2000/svg" width="32" height="24"><g fill="none" fill-rule="evenodd"><g fill-rule="nonzero"><rect width="24" height="16" fill="#0D47A1" rx="2"/><path fill="#FFF" d="M.414 8h.719l3.833-2.551V8h2.069V5.449L10.867 8h.72A.417.417 0 0 0 12 7.58v-.334L8.712 5.057H12V2.956H8.711L12 .767V.434a.416.416 0 0 0-.414-.42h-.719l-3.833 2.55V.014H4.965v2.55L1.258.097a1.805 1.805 0 0 0-1.017.83l3.048 2.029H0v2.101h3.289L0 7.247v.333c0 .232.185.42.414.42z"/><path fill="#F44336" d="M6.62.013v3.363H12v1.261H6.62V8H5.38V4.637H0V3.376h5.38V.013h1.24zM4.955 5.057.492 8H.414a.399.399 0 0 1-.305-.145l-.05-.071 4.135-2.727h.76zm3.164 0 3.875 2.556a.414.414 0 0 1-.234.346l-4.4-2.902h.76zM.685.406l3.867 2.55h-.76L.386.71C.473.597.574.495.685.406zM11.586.013c.122 0 .227.056.301.142l.05.069-4.142 2.732h-.76L11.496.013h.09z"/><path fill="#F44336" stroke="#FFF" stroke-width=".2" d="M18 11.489c.036 0 .067.023.079.057l.19.58.602.005c.036 0 .067.024.078.059a.082.082 0 0 1-.03.093l-.484.363.182.583a.088.088 0 0 1-.03.094.09.09 0 0 1-.05.016.083.083 0 0 1-.047-.016l-.49-.355-.49.355c-.014.01-.031.016-.048.016s-.034-.006-.049-.016a.089.089 0 0 1-.03-.094l.182-.583-.484-.363a.085.085 0 0 1-.03-.093.083.083 0 0 1 .078-.059l.602-.005.19-.58a.085.085 0 0 1 .08-.057zm-2.896-3.835c.035 0 .067.024.078.058l.19.58.602.004c.036 0 .068.024.079.059a.086.086 0 0 1-.03.093l-.484.364.182.582a.088.088 0 0 1-.03.094c-.016.01-.033.016-.05.016s-.033-.005-.048-.016l-.49-.355-.49.355a.08.08 0 0 1-.096 0 .085.085 0 0 1-.03-.094l.181-.582-.484-.364a.088.088 0 0 1-.03-.093.086.086 0 0 1 .079-.059l.602-.004.19-.58a.084.084 0 0 1 .079-.058zm5.793-.84c.035 0 .067.023.078.057l.19.58.603.005c.035 0 .067.023.078.058a.087.087 0 0 1-.03.094l-.484.363.182.583a.087.087 0 0 1-.03.093.085.085 0 0 1-.098.001l-.49-.356-.49.356a.082.082 0 0 1-.096-.001.084.084 0 0 1-.03-.093l.181-.583-.484-.363a.089.089 0 0 1-.03-.094.083.083 0 0 1 .079-.058l.602-.005.19-.58a.083.083 0 0 1 .079-.057zM18 4.712c.036 0 .067.023.079.057l.19.58.602.005c.036 0 .067.024.078.058a.084.084 0 0 1-.03.094l-.484.363.182.583a.089.089 0 0 1-.03.094.09.09 0 0 1-.05.016.083.083 0 0 1-.047-.016L18 6.19l-.49.356c-.014.01-.031.016-.048.016s-.034-.006-.049-.016a.089.089 0 0 1-.03-.094l.182-.583-.484-.363a.087.087 0 0 1-.03-.094.083.083 0 0 1 .078-.058l.602-.005.19-.58a.085.085 0 0 1 .08-.057z"/><rect width="23" height="15" x=".5" y=".5" stroke="#000" stroke-opacity=".04" rx="1"/></g><rect width="23" height="15" x=".5" y=".5" stroke="#000" stroke-opacity=".04" rx="2"/><g fill-rule="nonzero" transform="translate(8 8)"><path fill="#FFF" d="M6 0h12v16H6z"/><path fill="#F44336" d="M18 0h4a2 2 0 0 1 2 2v12a2 2 0 0 1-2 2h-4V0zM2 0h4v16H2a2 2 0 0 1-2-2V2a2 2 0 0 1 2-2zm10.001 3.06v.001l.672 1.28a.41.41 0 0 0 .474.207l.639-.177-.417 2.462c-.036.209.222.332.358.171l.976-1.16.1.457c.05.237.29.38.519.312l1.04-.307-.184 1.396a.423.423 0 0 0 .225.432l.564.286-2.456 1.426a.611.611 0 0 0-.263.74l.21.57-2.105-.183a.196.196 0 0 0-.212.204l.066 2.288h-.414l.066-2.288a.196.196 0 0 0-.212-.204l-2.104.182.21-.57a.612.612 0 0 0-.263-.74L7.035 8.42l.563-.286a.42.42 0 0 0 .225-.431L7.64 6.306l1.04.307a.413.413 0 0 0 .519-.312l.1-.457.976 1.16c.135.16.393.038.357-.17l-.416-2.463.638.177a.41.41 0 0 0 .474-.207L12 3.06l.001-.002z"/><rect width="23" height="15" x=".5" y=".5" stroke="#000" stroke-opacity=".04" rx="1"/></g><rect width="23" height="15" x="8.5" y="8.5" stroke="#000" stroke-opacity=".04" rx="2"/></g></svg>