<svg width="96" height="97" fill="none" xmlns="http://www.w3.org/2000/svg"><path d="M58.39 13.64 43.74 28.3a5.468 5.468 0 0 0 0 7.74l.16.16a5.468 5.468 0 0 0 7.74 0l3.54-3.54c1.15-1.15 3.11-.34 3.11 1.29v15.64c0 2.01 1.63 3.65 3.65 3.65h3.23c2.01 0 3.65-1.63 3.65-3.65V33.95c0-1.62 1.96-2.44 3.11-1.29l3.54 3.54a5.468 5.468 0 0 0 7.74 0l.16-.16a5.468 5.468 0 0 0 0-7.74L68.7 13.64a7.297 7.297 0 0 0-10.32 0h.01ZM37.61 83.36 52.26 68.7a5.468 5.468 0 0 0 0-7.74l-.16-.16a5.468 5.468 0 0 0-7.74 0l-3.54 3.54c-1.15 1.15-3.11.34-3.11-1.29V47.41c0-2.01-1.63-3.65-3.65-3.65h-3.23c-2.01 0-3.65 1.63-3.65 3.65v15.64c0 1.62-1.96 2.44-3.11 1.29l-3.54-3.54a5.468 5.468 0 0 0-7.74 0l-.16.16a5.468 5.468 0 0 0 0 7.74L27.3 83.36a7.297 7.297 0 0 0 10.32 0h-.01Z" stroke="#fff" stroke-width="4" stroke-linecap="round" stroke-linejoin="round"/></svg>