<svg xmlns="http://www.w3.org/2000/svg" viewBox="0 0 32 32"><path d="m19.78 4.05-5.43 5.43a1.49 1.49 0 0 0 0 2.12l.52.52c.59.59 1.54.59 2.12 0l1.6-1.6a.5.5 0 0 1 .85.35v5.2c0 .83.67 1.5 1.5 1.5h.52c.83 0 1.5-.67 1.5-1.5v-5.2c0-.45.54-.67.85-.35l1.6 1.6c.59.59 1.54.59 2.12 0l.51-.51c.59-.59.59-1.54 0-2.12L22.6 4.06c-.78-.78-2.05-.78-2.83 0Zm-7.56 23.9 5.43-5.43c.59-.59.59-1.54 0-2.12l-.52-.52a1.49 1.49 0 0 0-2.12 0l-1.6 1.6a.5.5 0 0 1-.85-.35v-5.2c0-.83-.67-1.5-1.5-1.5h-.52c-.83 0-1.5.67-1.5 1.5v5.2c0 .45-.54.67-.85.35l-1.6-1.6a1.49 1.49 0 0 0-2.12 0l-.51.51a1.49 1.49 0 0 0 0 2.12l5.44 5.43c.78.78 2.05.78 2.83 0Z" style="fill:none;stroke:#414652;stroke-linecap:round;stroke-linejoin:round;stroke-width:1.5px" data-name="Layer 191"/></svg>