<svg width="80" height="80" fill="none" xmlns="http://www.w3.org/2000/svg"><rect width="80" height="80" rx="40" fill="#F9F9F9"/><g clip-path="url(#a)"><path d="m20.158 47.5-2.985 3H12.88l3-3h4.28ZM33 29.5a3 3 0 0 1 3 3v9h-.015A2.985 2.985 0 0 1 33 38.515v-3.9l-9 9.03v-4.266l6.879-6.879h-3.894A2.985 2.985 0 0 1 24 29.515V29.5h9Z" fill="#FF444F"/><path d="M36 44.5H12v3h24v-3Z" fill="#414652"/></g><g clip-path="url(#b)"><path d="m56 36.355 9 9.03v-3.9a2.985 2.985 0 0 1 2.985-2.985H68v9a3 3 0 0 1-3 3h-9v-.015a2.985 2.985 0 0 1 2.985-2.985h3.894l-6.88-6.879v-4.266ZM49.173 29.5l2.985 3h-4.28l-3-3h4.295Z" fill="#FF444F"/><path d="M68 32.5H44v3h24v-3Z" fill="#414652"/></g><defs><clipPath id="a"><path fill="#fff" transform="translate(12 28)" d="M0 0h24v24H0z"/></clipPath><clipPath id="b"><path fill="#fff" transform="translate(44 28)" d="M0 0h24v24H0z"/></clipPath></defs></svg>