<svg width="192" height="32" fill="none" xmlns="http://www.w3.org/2000/svg"><g clip-path="url(#a)"><path d="m15.564.813-1.329 7.535H9.622c-4.303 0-8.405 3.487-9.165 7.79L.135 17.97c-.756 4.303 2.115 7.79 6.418 7.79H10.4c3.137 0 6.125-2.54 6.676-5.676L20.62 0l-5.055.813Zm-3.273 18.56c-.17.97-1.042 1.758-2.01 1.758H7.942c-1.934 0-3.228-1.57-2.89-3.508l.202-1.142c.343-1.934 2.19-3.508 4.123-3.508h4.041l-1.128 6.4Zm38.796 6.386 3.027-17.17h4.788l-3.027 17.17h-4.791.003Zm.518-16.973-.72 4.086c-2.27-.704-4.61-.48-5.328-.337l-2.332 13.228h-4.79l2.873-16.288c1.558-.645 5.384-1.954 10.297-.689Zm-19.412-.44h-3.727c-3.631 0-7.093 2.941-7.733 6.573l-.753 4.268c-.64 3.631 1.782 6.573 5.414 6.573h7.927l.814-4.614h-7.45c-1.21 0-2.02-.98-1.804-2.193l.025-.145h12.011l.686-3.89c.64-3.63-1.782-6.573-5.413-6.573h.003Zm.605 6.205-.028.248h-7.143l.039-.22c.216-1.209 1.319-2.273 2.532-2.273h2.79c1.198 0 2.008 1.046 1.81 2.245Zm44.784-5.963c-1.632 4.34-5.372 11.721-8.995 17.171h-4.792c-1.663-5.187-2.737-12.415-2.942-17.17h4.792c.086 1.55.78 7.305 1.573 11.325 2.174-3.91 4.57-9.042 5.57-11.326h4.794Z" fill="#FF444F"/><path d="M86.258 8.159c1.079 0 2.018.156 2.82.465.799.306 1.47.73 2.01 1.27a5.71 5.71 0 0 1 1.257 1.914 7.72 7.72 0 0 1 .528 2.427 13.83 13.83 0 0 1-.422 4.41 10.007 10.007 0 0 1-1.897 3.78c-.89 1.102-2.047 1.98-3.47 2.642-1.424.66-3.136.991-5.14.991-.243 0-.507-.013-.795-.035a6.098 6.098 0 0 1-.765-.1l-1.054 5.945h-3.072l4.029-22.55a14.544 14.544 0 0 1 2.969-.86 16.605 16.605 0 0 1 3.002-.3Zm-5.405 15.19c.222.044.462.073.715.084.253.01.502.016.744.016 1.255 0 2.363-.242 3.324-.726a7 7 0 0 0 2.404-1.966 8.347 8.347 0 0 0 1.427-2.838 9.84 9.84 0 0 0 .356-3.354 6.265 6.265 0 0 0-.253-1.419 3.148 3.148 0 0 0-.686-1.222c-.319-.352-.738-.632-1.257-.841-.52-.21-1.175-.315-1.968-.315-.55 0-1.053.051-1.509.15-.457.097-.836.191-1.14.28L80.854 23.35Zm25.289 2.61a13.813 13.813 0 0 1-.381-.809 6.728 6.728 0 0 1-.322-.943c-.457.44-1.08.881-1.867 1.322-.787.44-1.775.661-2.964.661-.969 0-1.808-.156-2.52-.462a4.843 4.843 0 0 1-1.78-1.29 5.78 5.78 0 0 1-1.095-1.948 9.41 9.41 0 0 1-.466-2.475 12.66 12.66 0 0 1 .476-4.327 10.255 10.255 0 0 1 1.998-3.764c.924-1.1 2.112-1.992 3.567-2.674 1.454-.683 3.184-1.024 5.187-1.024.594 0 1.292.067 2.092.199.801.132 1.497.352 2.089.66l-1.905 10.368c-.08.508-.143.992-.191 1.454a9.212 9.212 0 0 0 .2 2.988 9.76 9.76 0 0 0 .565 1.666l-2.683.398Zm-5.067-2.378c.925 0 1.705-.2 2.34-.594a7.027 7.027 0 0 0 1.632-1.387 16.053 16.053 0 0 1 .183-2.41l1.478-8.19c-.113-.044-.298-.076-.552-.1a8.135 8.135 0 0 0-.679-.032c-1.254 0-2.373.241-3.356.725a7.452 7.452 0 0 0-2.473 1.932c-.667.804-1.159 1.742-1.479 2.808a9.54 9.54 0 0 0-.371 3.351c.028.462.101.93.218 1.403.117.476.303.892.556 1.255.254.363.58.661.98.892.398.231.906.347 1.523.347Zm19.032-15.355c.265 0 .563.01.894.032.332.024.659.062.982.116.322.056.618.11.885.166.268.054.469.116.606.18l-.728 2.677a7.23 7.23 0 0 0-1.542-.398 11.321 11.321 0 0 0-1.66-.131c-.462 0-.918.032-1.364.099a6.77 6.77 0 0 0-1.157.263l-2.606 14.53h-3.07l2.946-16.51a17.942 17.942 0 0 1 2.794-.742 16.329 16.329 0 0 1 3.02-.282Zm8.438 17.996c-1.65 0-2.884-.363-3.699-1.088-.816-.728-1.265-1.784-1.35-3.171-.056-.903.026-2.058.249-3.466L126.373 3.8l3.171-.526-.96 5.315h5.844l-.469 2.577h-5.844l-1.35 7.594c-.199 1.034-.277 1.937-.23 2.709.045.725.276 1.25.692 1.566.416.32 1.086.479 2.01.479a5.64 5.64 0 0 0 1.863-.312c.604-.21 1.065-.403 1.385-.578l.391 2.607c-.318.198-.866.413-1.644.645-.778.23-1.674.346-2.687.346Zm9.018-.462h-3.07l2.947-16.51a23.106 23.106 0 0 1 3.239-.742c1.165-.188 2.212-.282 3.136-.282.99 0 1.852.137 2.585.414.732.274 1.333.647 1.802 1.12.47.476.829 1.048 1.08 1.718a7.59 7.59 0 0 1 .45 2.198c.031.505.019 1.04-.035 1.601a22.853 22.853 0 0 1-.226 1.699l-1.572 8.784h-3.071l1.448-8.123a83.51 83.51 0 0 0 .331-1.881 8.26 8.26 0 0 0 .103-1.817c-.054-.881-.342-1.612-.862-2.195-.521-.583-1.44-.876-2.761-.876-.551 0-1.088.032-1.613.099a7.595 7.595 0 0 0-1.305.263l-2.606 14.53Zm21.523.43c-1.122 0-2.102-.161-2.935-.478-.835-.32-1.544-.76-2.129-1.322a5.726 5.726 0 0 1-1.342-1.965 7.32 7.32 0 0 1-.542-2.378c-.095-1.54.045-3.026.419-4.458.374-1.43.956-2.695 1.747-3.797a8.823 8.823 0 0 1 2.975-2.625c1.193-.648 2.571-.973 4.134-.973.903 0 1.685.115 2.35.346.663.232 1.21.546 1.642.941.431.395.763.854.992 1.37.231.52.362 1.051.396 1.602.063 1.035-.069 1.91-.399 2.625a5.088 5.088 0 0 1-1.375 1.8c-.587.485-1.286.858-2.095 1.121-.808.266-1.654.476-2.537.63a25.06 25.06 0 0 1-2.688.314c-.91.053-1.771.104-2.582.147-.012.175-.014.32-.007.43l.016.264c.031.505.121.986.269 1.435.149.451.399.849.751 1.19.351.341.825.61 1.42.809.595.199 1.366.296 2.313.296.418 0 .851-.038 1.298-.116.445-.075.869-.175 1.269-.296a15.1 15.1 0 0 0 1.067-.362c.311-.121.531-.237.656-.347l.425 2.607c-.426.244-1.121.502-2.083.776-.963.274-2.105.414-3.425.414Zm-3.717-9.446a43.365 43.365 0 0 0 3.485-.247c1.048-.12 1.949-.33 2.701-.626.753-.298 1.327-.699 1.726-1.206.397-.506.572-1.167.522-1.98a1.99 1.99 0 0 0-.155-.63 1.804 1.804 0 0 0-.433-.61 2.32 2.32 0 0 0-.804-.462c-.338-.12-.75-.18-1.234-.18-.77 0-1.481.164-2.133.494a6.05 6.05 0 0 0-1.719 1.304 7.336 7.336 0 0 0-1.238 1.883 9.594 9.594 0 0 0-.718 2.26Zm21.202-8.518c.264 0 .562.01.894.032.332.024.658.062.981.116.322.056.618.11.885.166.268.054.469.116.606.18l-.727 2.677a7.24 7.24 0 0 0-1.543-.398 11.308 11.308 0 0 0-1.659-.131 9.17 9.17 0 0 0-1.365.099 6.734 6.734 0 0 0-1.156.263l-2.607 14.53h-3.07l2.947-16.51a17.959 17.959 0 0 1 2.793-.742 16.34 16.34 0 0 1 3.021-.282Zm6.693 15.387c.462 0 .927-.043 1.394-.132a3.981 3.981 0 0 0 1.229-.43c.351-.196.632-.467.842-.808.21-.342.3-.764.269-1.272a2.256 2.256 0 0 0-.219-.873 2.32 2.32 0 0 0-.572-.712 5.942 5.942 0 0 0-.948-.642 37.73 37.73 0 0 0-1.348-.71 19.862 19.862 0 0 1-1.431-.728 5.453 5.453 0 0 1-1.16-.857 3.791 3.791 0 0 1-.815-1.172c-.204-.451-.325-.997-.364-1.636-.102-1.65.41-2.978 1.538-3.977 1.127-1.003 2.824-1.505 5.091-1.505 1.057 0 1.994.105 2.81.314.816.21 1.384.403 1.703.578l-1.001 2.51c-.32-.175-.826-.363-1.521-.562a8.432 8.432 0 0 0-2.297-.295 5.93 5.93 0 0 0-1.247.131 3.341 3.341 0 0 0-1.11.446c-.33.21-.587.484-.776.825-.188.342-.266.755-.237 1.24.037.593.298 1.082.784 1.47.486.383 1.204.786 2.154 1.203.589.263 1.117.535 1.586.809.468.277.871.583 1.212.924.339.341.607.745.801 1.207.194.462.31 1.013.349 1.65.057.924-.069 1.738-.378 2.442a4.402 4.402 0 0 1-1.362 1.752c-.599.463-1.321.81-2.165 1.04-.845.231-1.773.347-2.786.347a12.75 12.75 0 0 1-2.039-.15 13.033 13.033 0 0 1-1.607-.347 7.961 7.961 0 0 1-1.147-.411 11.68 11.68 0 0 1-.699-.347l1.035-2.51a9.868 9.868 0 0 0 1.679.726 9.84 9.84 0 0 0 1.291.33 7.81 7.81 0 0 0 1.462.132Z" fill="#414652"/></g><defs><clipPath id="a"><path fill="#fff" d="M0 0h191.556v32H0z"/></clipPath></defs></svg>