<svg xmlns="http://www.w3.org/2000/svg" xmlns:xlink="http://www.w3.org/1999/xlink" width="1440" height="497"><defs><path id="a" d="M0 0h1440v497H0z"/></defs><g fill="none" fill-rule="evenodd"><mask id="b" fill="#fff"><use xlink:href="#a"/></mask><use fill="#FFF" xlink:href="#a"/><g fill="#F2F3F4" fill-opacity=".53" fill-rule="nonzero" mask="url(#b)"><path d="m90.713 119.577 202.333-66.68.289-.096L302 41.209h-2.022v.095l-7.943 10.539-202.333 66.776-.288.096-101.383 133.647L-28 257.631v1.342l17.33-5.749zM25 42.536h-4.132L-10.901 53.13l-.285.095L-27 74.412v2.648l17.381-22.984zm16.271 43.877L-25 174.072v2.575l67.715-89.375L178 42.536h-4.043L41.56 86.318z"/><path d="M252 41.872h-4.056l-183.818 60.85-.289.096L-28 224.517v2.588L65.285 103.68zm1127.571 126.034-.289.095-100.955 133.481-201.768 66.644-.288.096-100.956 133.48-201.623 66.645-.289.095-100.956 133.481-201.623 66.644-.288.096-100.956 133.48-201.623 66.645-.289.095-100.956 133.481-91.712 30.31v1.339l92.723-30.693.289-.096 100.956-133.48 201.623-66.74.289-.096 100.811-133.576 201.623-66.644.289-.096 100.956-133.48 201.622-66.645.289-.096 101.1-133.289 201.623-66.644.289-.096 100.956-133.48 201.767-66.645.289-.095L1629 40.545h-2.022l-45.784 60.716zM217.375 202.905l-.288.095-100.522 133.18L-25 383.117v1.336l142.573-47.224.288-.095 100.522-133.18 200.754-66.494.288-.095L491 42.536h-2.016l-70.855 93.779zM164.7 168.677l-.288.095L63.597 301.773-28 331.996v1.335l92.605-30.509.288-.095 100.815-133.002 201.485-66.357.288-.096L414 41.872h-2.16l-45.799 60.447z"/><path d="m394.549 119.136-201.551 66.58-.288.095L91.862 319.257-25 357.888v1.336l117.872-38.918.289-.095L194.008 186.86l201.551-66.58.289-.095L455 41.968h-2.164v-.096zM40.102 687.186l101.213-133.692 202.138-66.703.289-.095 101.213-133.693 202.137-66.798.29-.096 101.213-133.692 202.137-66.798.289-.096L985 40.545h-2.169v.095l-33.256 44.022-202.137 66.798-.289.096-101.213 133.692-202.138 66.798-.289.096-101.213 133.692-202.137 66.799-.29.095L38.656 686.42-28 708.431v1.34l67.813-22.489zm75.61 49.418 101.104-133.589 201.775-66.651.289-.096 101.104-133.589 201.775-66.651.289-.096 101.104-133.589 201.775-66.651.289-.095L1097 40.545h-2.167l-71.061 94.095-201.775 66.651-.289.096-101.104 133.589-201.775 66.747-.289.095-101.104 133.589-201.775 66.651-.289.096-101.104 133.589L-28 782.791v1.339l143.423-47.431z"/><path d="m240.692 219.287-.288.096-101.012 133.135L-28 407.681v1.337l168.546-55.45.289-.095 100.868-133.041 201.735-66.424.289-.096L528 42.536h-2.02l-83.696 110.326zM90.327 919.738l201.836-66.616.289-.095 100.99-133.519 201.691-66.615.289-.096 100.99-133.518 201.691-66.616.289-.095L999.381 319.05l201.691-66.616.289-.095 100.99-133.519 201.691-66.615.289-.096L1513 40.545h-1.878v.095l-7.946 10.609-201.691 66.616-.289.095-100.99 133.518-201.836 66.616-.289.096-100.99 133.518-201.835 66.615-.289.096-101.135 133.422-201.691 66.712-.289.095-100.99 133.518-201.691 66.616-.288.096-100.99 133.518-15.893 5.256v1.338l17.337-5.734zm-75.62-648.957L116.044 136.64 318.43 69.666l.289-.096L340 41.209h-2.027l-20.557 27.403-202.385 66.974-.29.096-101.337 134.14L-28 283.524v1.341l42.417-13.989z"/><path d="m39.527 287.022 100.642-133.113 200.852-66.461.288-.096L375 42.536h-2.016l-33.115 43.863-200.852 66.557-.288.095L38.231 286.164-28 308.095v1.335l67.239-22.312zm176.566 116.175.288-.095 100.925-133.265 201.56-66.538.289-.095L620.079 69.938 705 41.872h-4.037l-82.181 27.112-.289.095-100.924 133.266-201.561 66.537-.288.095-100.925 133.266L13.523 468.78l-.288.096L-28 523.289v2.578l42.532-56.132z"/><path d="m241.663 420.824.289-.096 101.051-133.254 201.815-66.628.288-.095L646.158 87.4 782 42.536h-3.898v.096l-132.81 43.909-.289.096-101.051 133.254-201.815 66.533-.288.095-101.052 133.35-201.959 66.628-.288.095L-28 574.411v2.577l67.849-89.537zM15.033 69.211-26 123.6v2.59l42.333-56.116L101 41.872h-4.046L15.177 69.115zm885.014 183.423-.289.096-101.079 133.495-201.867 66.652-.29.095-101.078 133.496-201.868 66.652-.289.095L192.208 786.71-9.804 853.267l-.29.095L-26 874.496v2.582l17.353-22.855 201.867-66.652.29-.096L294.588 653.98l201.868-66.652.289-.095 101.079-133.496 201.868-66.651.289-.096 101.078-133.495 201.868-66.557.289-.095 101.079-133.495L1239 41.872h-4.049l-31.668 10.519-.29.096-101.078 133.495z"/><path d="m847.569 219.124-.289.096-100.961 133.393-201.78 66.505-.289.095-100.961 133.393-201.635 66.601-.289.095L140.403 752.6-27 808.021v1.337l168.414-55.612.289-.095 100.962-133.393L444.3 553.562l.289-.096L545.55 420.073l201.635-66.601.289-.095L848.58 219.984l201.635-66.601.289-.095L1135 41.872h-2.167l-83.629 110.651zM1227.524 67.78l-100.912 133.5-201.536 66.702-.288.096-100.913 133.404-201.68 66.607-.288.095-100.913 133.405-201.535 66.606-.289.096-101.057 133.404-201.68 66.702-.289.096L-25 922.963v2.58l42.588-56.285 201.68-66.607.289-.096 100.912-133.5 201.68-66.606.289-.096L623.35 468.949l201.68-66.607.289-.096 100.768-133.308 201.68-66.607.289-.096 100.912-133.404L1314 40.545h-4.042l-82.145 27.139z"/><path d="m874.639 234.491-.289.096-100.892 133.41-201.782 66.658-.29.095-100.891 133.41-201.494 66.562-.289.096-101.036 133.41L-25 831.92v1.339l193.833-63.979.289-.096 101.036-133.41 201.782-66.657.29-.096 101.035-133.41 201.783-66.562.289-.095 101.036-133.411 201.783-66.657.289-.095L1175 40.545h-2.168l-96.411 127.289zm376.007-149.674-101.101 133.485-201.626 66.743-.289.096-100.957 133.485-201.914 66.743-.289.096-100.957 133.581-201.77 66.743-.289.095-101.101 133.582-201.626 66.647-.289.095L-28 974.083v2.582l67.882-89.692 201.77-66.551.289-.096 101.102-133.581 201.77-66.743.289-.095 100.957-133.582 201.77-66.742.289-.096 100.957-133.581 201.77-66.743.288-.096 101.102-133.581L1388 40.545h-4.333v.191l-132.732 43.985zm102.872 67.636-101.035 133.328-201.924 66.711h-.29L949.235 485.915 747.31 552.531l-.289.096-101.035 133.327-201.925 66.616-.289.096-101.034 133.423-201.925 66.616-.289.095-101.035 133.328L-27 1108.11v1.338l67.646-22.269.289-.096 101.034-133.327 201.925-66.52.289-.096 101.035-133.328 201.78-66.807.289-.095 101.035-133.328 201.925-66.616.289-.095 101.179-133.423 201.925-66.616.289-.096 101.034-133.327 201.925-66.616.289-.096L1591 41.872h-2.024l-33.244 43.965-201.925 66.52z"/><path d="m1276.381 101.172-101.104 133.496-201.774 66.653-.289.095-101.103 133.496-201.774 66.557-.289.096-101.104 133.496-201.773 66.652-.289.096-101.104 133.496-201.774 66.556-.289.096L-28 1023.213v2.582l93.16-122.977 201.774-66.653.288-.095 101.104-133.496L570.1 635.921l.289-.095L671.492 502.33l201.919-66.557.289-.096 101.103-133.496 201.63-66.556.288-.096 100.96-133.496L1464 40.545h-4.044l-183.286 60.532z"/><path d="m1327.254 135.772-100.882 133.445-201.765 66.58-.289.095-101.027 133.35-201.766 66.58-.289.095-101.027 133.35-201.765 66.58-.289.095-101.027 133.35-201.621 66.58-.289.096-101.027 133.35L-27 1082.882v1.337l42.348-13.946.289-.096 101.027-133.35 201.765-66.579.289-.096 101.027-133.445 201.765-66.58.289-.095 100.883-133.351 201.765-66.579.289-.096 101.027-133.254 201.621-66.58.289-.095 101.027-133.35 201.765-66.58.289-.095L1552 41.872h-2.023l-20.524 27.225-201.909 66.579zM772.117 167.95l-.289.096-101.081 133.628-202.018 66.718-.289.095-101.081 133.628-202.018 66.814-.289.095L63.826 702.652-28 732.996v1.34l92.983-30.727.289-.095 101.226-133.628 202.018-66.718.289-.096 101.081-133.627 202.018-66.718.289-.096 101.081-133.628 201.873-66.718.289-.096L1022 40.545h-2.025l-45.84 60.687zm-98.701-66.628L572.464 235.127l-201.902 66.808-.29.095-101.096 133.71-202.047 66.807-.289.096L-25 624.197v2.585l93.286-123.278 201.903-66.807.289-.095 101.096-133.806 201.903-66.807.289-.096 101.096-133.71L861 40.545h-4.05l-183.245 60.681zm-381.207 151.35-.288.096-100.646 133.124-201.149 66.419-.288.095L-26 473.496v2.577l17.278-22.808 201.149-66.419.288-.095 100.646-133.124 201.148-66.419.288-.096L595.443 53.988 630 42.536h-4.032l-31.533 10.498-.288.095-100.79 133.124zm-198.87 867.545 100.855-133.524 201.566-66.667.289-.095 101-133.525 201.855-66.762.289-.095 101-133.525 201.711-66.666.289-.096 100.855-133.429 201.711-66.666.289-.096 101-133.524 201.566-66.667.289-.095L1667 40.545h-2.023l-58.375 77.379-201.71 66.666-.289.096-101 133.524-201.566 66.667-.289.095-101 133.525-201.711 66.666-.289.096-100.855 133.429-201.711 66.666-.289.096-101 133.524-201.71 66.667-.289.095-101 133.525L-25 1157.903v1.339l118.05-38.929z"/><path d="M722.053 135.882 620.935 269.293l-201.946 66.658-.29.096-101.117 133.411-201.947 66.658-.289.096L14.228 669.623-27 683.203v1.339l42.386-13.962.289-.096 101.118-133.316 201.946-66.658.289-.095 101.118-133.412 201.946-66.658.29-.095 101.117-133.412 201.947-66.657.289-.096L947 41.872h-2.025l-20.542 27.257-202.091 66.657zM268.47 236.48l-.288.096-100.854 133.336L-25 433.574v1.336l193.482-63.948.289-.095L269.624 237.53l201.418-66.62.289-.096L568 42.536h-2.02L469.888 169.86zm528.974-51.881-.289.095L695.982 318.22l-202.055 66.714-.289.096-101.172 133.525-202.055 66.715-.29.096L89.094 718.891-28 757.561v1.34l118.251-38.957.29-.096 101.027-133.621 202.056-66.714.289-.096 101.172-133.525 202.055-66.715.29-.096 101.172-133.525 202.055-66.715.29-.096 59.053-78.2h-2.026l-58.475 77.339z"/><path d="M696.026 117.998 595.031 251.652 393.33 318.383l-.289.095-100.995 133.749-201.845 66.731-.29.096-100.995 133.653L-27 657.973v1.341l17.363-5.745L91.358 519.916l201.701-66.731.289-.096 100.995-133.653 201.701-66.731.289-.096 100.995-133.653 201.701-66.731.289-.096L908 40.545h-1.881l-7.958 10.627-201.845 66.731zm683.069 452.222-.289.095-100.999 133.486-201.708 66.695-.289.095-100.999 133.486-201.709 66.695-.289.095-100.998 133.486L486 1165.881h4.046l183.069-60.571.289-.096 100.999-133.485 201.564-66.6.289-.095 100.999-133.486 201.708-66.695.289-.095 100.999-133.486 201.709-66.695.289-.095L1674 383.244v-2.775l-93.196 123.151zm100.222-332.863-.289.096-100.883 133.411-201.909 66.609-.289.096-101.172 133.315-201.91 66.61-.289.095L771.549 771 569.64 837.61l-.289.096-101.028 133.41-201.909 66.61-.289.096L169 1165.881h2.023l96.547-127.199 201.91-66.61.289-.096 101.171-133.41 201.91-66.61.289-.096 101.172-133.41 201.909-66.61.289-.096 101.172-133.411 201.91-66.514.289-.095 101.171-133.411L1674 174.666v-1.338z"/><path d="m115.55 1138.629 100.999-133.584 201.708-66.648.289-.096 100.999-133.583 201.853-66.648.289-.096 100.999-133.583 201.708-66.648.289-.096 101.143-133.583 201.709-66.648.289-.096 100.999-133.583 201.708-66.648.289-.096L1672 82.489v-2.773l-42.625 56.416-201.708 66.649-.289.095-100.999 133.583-201.709 66.649-.289.095-100.998 133.584-201.853 66.648-.289.095-100.999 133.584-201.709 66.744h-.433L417.101 937.441l-201.853 66.744-.289.095-100.999 133.584L29 1165.881h4.046l82.215-27.157zm479.614-84.848 101.022-133.52 201.611-66.711.289-.096 101.022-133.519 201.467-66.521.289-.096 100.877-133.519 201.611-66.712.289-.095 100.878-133.52L1671 297.49v-1.338l-67.493 22.365-.289.095-100.877 133.52-201.611 66.711-.289.096-101.023 133.519-201.611 66.712-.289.096-101.022 133.519-201.611 66.712-.289.095-101.022 133.52-201.466 66.52-.289.096L358 1164.553h2.023l33.241-43.965 201.611-66.712z"/><path d="m570.536 1038.561.289-.096 100.999-133.537 201.709-66.673.289-.096 100.999-133.537 201.853-66.769.289-.096 101.144-133.537 201.853-66.673.289-.096 100.999-133.537L1673 273.59v-1.339l-93.197 30.61-.289.096-100.854 133.537-201.854 66.674-.289.095-100.854 133.633-201.854 66.673-.289.096-100.999 133.538-201.853 66.673-.289.095-100.855 133.633-201.709 66.673-.289.096L321 1165.881h2.023l45.803-60.647z"/><path d="m545.627 1021.871.289-.096 101.122-133.683 201.954-66.745.289-.096 100.977-133.778 201.954-66.746.289-.096 101.122-133.682 201.954-66.746.289-.095 101.122-133.683L1674 247.697v-1.339l-118.457 39.206-.289.096-100.832 133.683-201.955 66.745-.289.096-101.121 133.587-201.954 66.746-.289.095-101.122 133.683-201.954 66.746-.289.095-101.122 133.683-201.954 66.746-.289.095L283 1165.881h2.022l58.651-77.36zm100.534 66.721 101.166-133.533 201.899-66.766.289-.096 101.022-133.629 201.9-66.671.289-.095 101.022-133.533 201.899-66.671.289-.096 101.022-133.628 16.042-5.261v-1.34l-17.054 5.548-.289.096-101.166 133.533-201.755 66.767-.289.095-101.022 133.533-202.044 66.767-.289.095L948.07 887.336l-201.899 66.671-.289.096-101.022 133.533-201.9 66.766-.289.096-8.671 11.383h2.023l7.949-10.522 201.899-66.671z"/><path d="m620.885 1071.867 101.09-133.705 201.89-66.852.289-.096 101.09-133.704 201.891-66.757.289-.095 101.09-133.705 201.89-66.757.289-.095 101.09-133.705L1673 322.72v-1.339l-42.229 14.059-.289.095-101.09 133.705-201.891 66.852-.289.096-101.09 133.609-201.89 66.756-.289.096-101.09 133.705-202.035 66.756-.289.096-101.09 133.704-201.891 66.757-.289.096L396 1165.881h2.025l20.68-27.162 201.891-66.757zm-175.807-117.84.289-.095L546.44 820.526l201.711-66.608.289-.095 101.073-133.406 201.856-66.608.289-.095 101.218-133.406 201.711-66.703.289-.096 101.073-133.406 201.856-66.607.289-.096L1674 132.281v-2.772l-17.496 22.935-201.712 66.608-.289.095-101.073 133.406-201.856 66.608-.289.096-101.073 133.406-201.711 66.703-.289.095-101.073 133.406-201.856 66.703-.289.096-101.073 133.406-201.856 66.607-.289.096-101.073 133.406L106 1164.553h4.049l31.666-10.321.289-.095 101.073-133.407zm75.052 50.982.289-.096 101.06-133.693 201.974-66.703.289-.095 101.204-133.693 201.974-66.799.289-.096 101.06-133.693 201.974-66.798.289-.096 101.06-133.693L1674 222.469v-1.339l-143.565 47.562-.289.096-100.915 133.693-201.974 66.799-.289.096-101.06 133.597-201.974 66.799-.289.095-101.06 133.693-201.974 66.703-.289.096-101.204 133.789-201.974 66.703-.289.095L245 1165.881h2.024l71.132-94.073z"/><path d="m497.314 987.46.288-.095L598.523 854.02l201.697-66.482.289-.095L901.43 654.098l201.552-66.577.289-.096 100.632-133.536 201.553-66.577.288-.095 100.921-133.345L1674 198.566v-1.337l-168.634 55.687-.289.096-100.921 133.345-201.264 66.577-.288.095-100.921 133.345-201.553 66.577-.289.096-100.92 133.345-201.697 66.577-.289.095-100.921 133.345-201.552 66.577-.289.096L210 1164.553h2.021l83.74-110.516zm199.823 133.152 101.154-133.445 202.02-66.675.289-.096 101.155-133.446 202.02-66.579.289-.096 101.01-133.445 202.02-66.675.289-.096L1674 432.274v-2.675l-68.063 89.696-201.875 66.675-.289.096-101.154 133.35-202.02 66.675-.289.095-101.155 133.446-201.875 66.675-.289.095-101.155 133.446L560 1164.553h4.046l132.802-43.845z"/><path d="m723.525 1138.631 101.114-133.475 201.796-66.642.289-.096 100.97-133.475 201.795-66.642.289-.096 100.97-133.475 201.795-66.642.289-.096L1674 483.493v-2.773l-42.468 56.316-201.795 66.642-.289.096-100.97 133.475-201.796 66.642-.288.096-100.97 133.571-201.94 66.642-.289.095-100.97 133.476-85.225 28.11h4.045l82.191-27.154z"/></g></g></svg>