<svg width="119" height="51" fill="none" xmlns="http://www.w3.org/2000/svg"><rect width="118.011" height="50.727" rx="10" fill="#fff"/><path fill-rule="evenodd" clip-rule="evenodd" d="M0 9.098C0 4.076 4.103 0 9.152 0h99.708c5.049 0 9.151 4.076 9.151 9.098v32.53c0 5.022-4.089 9.099-9.151 9.099H9.152C4.102 50.74 0 46.664 0 41.642V9.098Zm3.756.32v31.917c0 3.144 2.558 5.688 5.715 5.688h52.232V3.73H9.471c-3.157 0-5.715 2.544-5.715 5.688Zm68.79 18.946c1.665 0 2.664-1.385 2.664-3.423 0-1.692-.96-3.157-2.664-3.17-1.612 0-2.691 1.425-2.691 3.33 0 1.864 1.225 3.263 2.69 3.263Zm-2.705 8.233H65.42v-17.89h4.063v2.304h.053c.893-1.785 2.744-2.598 4.756-2.598 3.53 0 5.461 3.344 5.461 6.434 0 3.77-2.024 6.9-5.82 6.9-1.533 0-3.198-.559-4.037-2.077h-.053v6.927Zm18.597-10.884c-1.492 0-2.664.466-2.664 1.692 0 .893.785 1.399 1.811 1.386 1.665 0 2.718-1.52 2.718-3.011a85.788 85.788 0 0 1-.354-.018c-.474-.023-.98-.049-1.511-.049Zm6.231 5.728.003.014v-.014h-.003Zm-.237-2.997c0 .995.04 2.003.237 2.997h-4.02a27.68 27.68 0 0 0-.043-.787 19.62 19.62 0 0 1-.05-1.224h-.053c-1 1.598-2.225 2.304-4.037 2.304-2.517 0-4.769-1.238-4.769-4.01 0-3.889 4.236-4.355 6.58-4.355.707 0 1.493.08 2.052.173-.026-1.745-1.332-2.211-2.917-2.211-1.425 0-2.837.266-4.063.959l-.08-2.984c1.559-.64 3.21-.906 5.089-.906 3.263 0 6.074 1.399 6.074 5.289v4.755Zm4.956 8.446c-.933 0-1.839-.094-2.744-.293l.306-3.344c.6.187 1.132.267 1.745.267 1.079 0 1.905-.627 2.225-1.759l-5.169-13.055h4.742l2.745 8.326h.039l2.625-8.326h4.409l-4.676 11.87-.214.551c-1.159 2.995-2.23 5.763-6.033 5.763Z" fill="#000268"/><path d="M14.521 25.19c0-1.746.853-3.184 2.505-3.184 1.985 0 2.81 1.585 2.81 3.01 0 1.959-1.252 3.277-2.81 3.277-1.332 0-2.505-1.119-2.505-3.104Zm9.578-6.275h-3.996v2.305h-.04c-.932-1.572-2.451-2.598-4.33-2.598-3.969 0-5.754 2.837-5.754 6.634 0 3.77 2.185 6.42 5.675 6.42 1.771 0 3.237-.692 4.29-2.184h.053v.693c0 2.49-1.373 3.69-3.917 3.69-1.838 0-2.97-.386-4.316-1.053l-.226 3.477c1.025.373 2.77.813 4.875.813 5.142 0 7.686-1.692 7.686-6.927v-11.27Zm7.447-5.315h-4.41v3.237h4.41V13.6Zm-4.41 18.077h4.41V18.915h-4.41v12.762Zm16.679-12.908c-.44-.067-.986-.147-1.492-.147-1.905 0-3.011 1.026-3.77 2.651h-.054v-2.345h-4.01V31.69h4.41v-5.382c0-2.504 1.159-3.996 3.21-3.996.52 0 1 0 1.492.147l.214-3.69Zm7.593 10.11c-2.039 0-2.864-1.691-2.864-3.57 0-1.905.825-3.596 2.864-3.596 2.038 0 2.864 1.691 2.864 3.596 0 1.879-.84 3.57-2.864 3.57Zm0 3.09c4.209 0 7.42-2.45 7.42-6.66 0-4.236-3.211-6.687-7.42-6.687-4.21 0-7.42 2.451-7.42 6.687 0 4.21 3.197 6.66 7.42 6.66Z" fill="#FF0007"/></svg>