<svg width="118" height="36" fill="none" xmlns="http://www.w3.org/2000/svg"><path fill-rule="evenodd" clip-rule="evenodd" d="M65.546.014c.597.006 1 .156 1.154.213l.038.014c.951.31 1.73 1.385 1.723 2.495 0 .758-.207 1.447-.455 2.136l-1.013 2.77-.971 2.646-.462 1.258c-.153.418-.306.837-.462 1.257a710.431 710.431 0 0 0-2.232 6.126l-.03.083c-.382 1.075-.763 2.144-1.576 2.998a7.11 7.11 0 0 1-2.59 1.764c-.731.29-1.49.351-2.261.351h-.946c-.948.002-1.898.003-2.844-.007-.296 0-.475.104-.572.372-.344.944-.696 1.888-1.047 2.833l-.255.69v.001c-.316.854-.631 1.71-.951 2.561l-.001.002c-.324.881-.647 1.763-.978 2.637-.151.393-.303.786-.448 1.192-.053.111-.092.21-.138.328-.031.079-.065.166-.11.272h-4.768l.07-.22c.079-.244.157-.486.247-.724.162-.441.325-.88.489-1.32l.49-1.32.399-1.092c.18-.496.361-.992.544-1.485l.326-.868a196.918 196.918 0 0 0 1.045-2.829 324.974 324.974 0 0 1 1.045-2.835l.5-1.35v-.001c.31-.848.62-1.695.936-2.543l.273-.734v-.001c.336-.904.671-1.805 1.002-2.71l.465-1.254.465-1.254.486-1.32.486-1.32.473-1.28.002-.008.476-1.289c.162-.44.326-.88.49-1.32.163-.439.326-.878.488-1.319.331-.889.662-1.778.993-2.674.234-.64.462-1.288.689-1.936 3.431.014 5.899.014 9.316.014Zm-4.052 4.038v.014c-.14 0-.28.003-.422.007-.33.009-.662.017-.99-.021-.38-.041-.565.096-.682.413-.22.593-.434 1.179-.648 1.771-.166.452-.33.903-.493 1.354v.003l-.492 1.351c-.156.417-.312.836-.47 1.254l-.468 1.255-1.013 2.77-.367 1.007c-.289.794-.578 1.587-.873 2.376-.227.62-.462 1.247-.71 1.86-.151.38-.069.524.359.524h2.928c.448 0 .565-.103.717-.537.207-.593.42-1.179.632-1.765l.319-.881c.211-.579.428-1.157.646-1.736.109-.29.218-.58.325-.869.338-.91.669-1.826 1-2.742l.475-1.306.476-1.306c.33-.889.661-1.778.992-2.674l.11-.29c.178-.47.358-.945.524-1.419.103-.296-.02-.434-.324-.427-.524.014-1.04.014-1.55.014ZM35.703 35.02H30.81c0-.2.07-.38.145-.565l.17-.44c.275-.717.552-1.438.815-2.158.219-.583.431-1.167.644-1.752v-.001c.19-.523.381-1.046.576-1.569.177-.47.358-.94.539-1.41v-.002c.235-.608.47-1.216.694-1.826l.237-.65.001-.003c.36-.988.718-1.973 1.113-2.944.138-.338.07-.435-.296-.428a63.081 63.081 0 0 1-3.611-.007c-.365-.013-.517.09-.634.441a29.32 29.32 0 0 1-.386 1.103c-.165.435-.333.871-.5 1.306-.252.654-.503 1.307-.747 1.96-.281.748-.554 1.5-.826 2.25-.215.593-.43 1.185-.649 1.774-.198.526-.4 1.05-.602 1.575-.312.81-.624 1.62-.92 2.436a4.454 4.454 0 0 1-.105.249c-.093.21-.187.421-.192.654h-4.824c.093-.495.281-.955.47-1.416.093-.227.186-.454.268-.686.19-.54.397-1.074.605-1.61V31.3l.001-.001c.116-.298.231-.596.345-.896l.971-2.605c.159-.424.319-.846.48-1.268.16-.422.32-.844.478-1.268l.316-.848c.21-.565.42-1.13.635-1.695.203-.54.41-1.08.617-1.618.206-.54.413-1.08.617-1.62.224-.598.444-1.198.664-1.798v-.001c.187-.507.373-1.015.562-1.523.252-.668.508-1.337.765-2.005a221.592 221.592 0 0 0 1.422-3.779c.277-.752.553-1.503.838-2.25.336-.892.677-1.783 1.018-2.674l.512-1.337C33.787 2.15 35.2.889 37.178.234l.069-.025c.17-.066.524-.202 1.026-.202h5.65c.752-.007 1.579.18 1.689.22 1.144.441 1.695 1.385 1.757 2.522.035.669-.186 1.282-.427 1.895-.198.523-.389 1.051-.58 1.58a161.027 161.027 0 0 1-1.017 2.754l-.38 1.014c-.31.834-.621 1.674-.931 2.515-.254.693-.513 1.381-.773 2.072l-.212.567-.5 1.334-.5 1.333-.14.381c-.174.475-.349.952-.528 1.424-.31.848-.62 1.696-.937 2.543-.162.434-.326.868-.49 1.302l-.489 1.303-.4 1.092v.001c-.18.496-.361.991-.544 1.484l-1.24 3.308-.32.856a96.09 96.09 0 0 0-.693 1.88c-.057.15-.118.299-.178.446-.16.39-.317.772-.387 1.187ZM32.98 17.234l.069.029c.04.018.074.033.11.033 1.31.007 2.619.007 3.928.007.18 0 .303-.09.365-.262a540.72 540.72 0 0 1 1.13-3.025l.951-2.543c.33-.889.662-1.777.992-2.673.221-.6.448-1.206.676-1.806.13-.35.264-.7.397-1.048.19-.496.379-.99.56-1.488.145-.392.049-.503-.365-.503l-.868.001c-.87.002-1.743.003-2.611-.008-.31-.006-.483.11-.593.4-.53 1.454-1.075 2.9-1.62 4.347v.001c-.254.676-.511 1.349-.768 2.022v.001a682.09 682.09 0 0 0-.768 2.022 351.641 351.641 0 0 0-1.406 3.77l-.038.092c-.081.19-.165.388-.141.631ZM13.306.014h9.558c.469 0 1.061.172 1.178.213 1.31.462 1.902 1.785 1.696 3.067-.143.886-.475 1.706-.807 2.525-.167.41-.333.82-.475 1.237a44.484 44.484 0 0 1-.77 2.046c-.157.397-.314.793-.464 1.193-.206.551-.41 1.104-.613 1.657a256.604 256.604 0 0 1-1.936 5.117c-.255.64-.565 1.247-1.02 1.785-.62.744-1.378 1.309-2.205 1.791a.544.544 0 0 0-.297.427c-.11.786-.24 1.565-.372 2.343l-.489 2.76-.49 2.76a621.29 621.29 0 0 0-.847 4.982c-.043.252-.07.51-.096.766-.011.108-.022.216-.035.323H9.861c.005-.055.009-.11.012-.166.005-.082.01-.165.022-.248.066-.355.135-.71.203-1.066.103-.534.205-1.067.3-1.6.106-.58.209-1.159.311-1.738.205-1.16.41-2.319.64-3.472.055-.278.106-.557.157-.837.064-.352.129-.705.202-1.058.168-.818.323-1.64.48-2.464.048-.258.097-.517.147-.775.041-.22-.049-.33-.276-.33-.3.003-.598.008-.896.013l-.896.014c-.192 0-.282.097-.344.276-.072.211-.157.42-.242.63-.053.131-.107.263-.158.396l-.492 1.303-.493 1.302-.951 2.502-.26.679-.002.002v.003l-.002.003c-.229.595-.456 1.187-.68 1.78-.115.306-.227.612-.339.92-.19.522-.38 1.044-.585 1.56l-.153.387a33.463 33.463 0 0 0-.742 1.99H0V34.6c.096-.02.172-.069.2-.172.1-.356.238-.696.377-1.037.081-.2.162-.4.236-.603.207-.572.42-1.137.641-1.702.122-.314.244-.628.367-.94v-.001c.21-.538.42-1.076.625-1.616.324-.84.641-1.688.958-2.535.152-.398.305-.794.458-1.19v-.001A259.754 259.754 0 0 0 5.117 21.5c.156-.42.313-.838.472-1.255.427-1.109.854-2.218 1.281-3.335.155-.406.309-.813.462-1.22l.462-1.22a1737.599 1737.599 0 0 1 1.302-3.397c.2-.523.398-1.048.596-1.574.198-.526.396-1.05.596-1.574l1.282-3.329.292-.748a67.41 67.41 0 0 0 .693-1.815c.074-.19.151-.38.23-.57.193-.472.389-.948.521-1.45Zm.345 17.427.461-.002c.387-.003.774-.006 1.158.009.31.007.51-.117.614-.393.249-.656.494-1.317.738-1.975l.199-.533a972.703 972.703 0 0 1 .93-2.474l.21-.55c.254-.662.507-1.322.755-1.986.317-.848.634-1.695.958-2.543l.281-.725v-.001c.226-.578.45-1.158.67-1.74.13-.338.013-.47-.338-.47-1.116.008-2.226.008-3.342-.006-.22 0-.338.076-.441.255-.102.185-.17.383-.237.578-.032.096-.065.19-.1.283l-.214.547c-.252.65-.504 1.296-.752 1.948-.162.423-.318.847-.475 1.271-.157.424-.314.848-.476 1.271-.175.461-.356.921-.536 1.381a106.403 106.403 0 0 0-.976 2.554 80.302 80.302 0 0 1-1.079 2.798c-.144.351-.062.496.324.496.565.007 1.117.007 1.668.007ZM100.772.214c-.149-.056-.531-.2-1.364-.2H89.94c-.044.325-.164.627-.283.93a7.498 7.498 0 0 0-.185.503c-.136.43-.296.852-.456 1.274-.084.22-.167.44-.247.662-.13.36-.262.72-.394 1.082l-.002.005-.001.003c-.208.57-.417 1.143-.623 1.715-.207.56-.407 1.12-.607 1.68l-.001.002c-.1.28-.2.56-.302.84l-.308.84c-.244.665-.488 1.33-.725 2-.162.447-.32.895-.476 1.343-.157.448-.313.896-.475 1.344-.204.561-.409 1.12-.614 1.678-.205.558-.41 1.116-.613 1.678-.162.447-.32.895-.479 1.343a211.79 211.79 0 0 1-.968 2.684l-.49 1.34c-.315.886-.631 1.766-.947 2.645l-.003.008-.429 1.172c-.286.78-.573 1.562-.853 2.343-.159.448-.315.896-.472 1.344-.157.448-.313.896-.472 1.343v.001c-.303.84-.606 1.681-.923 2.515l-.03.08a2.62 2.62 0 0 0-.17.609h9.358c1.185 0 1.833-.18 1.957-.214 1.626-.482 2.839-1.488 3.707-2.935.246-.41.4-.85.556-1.295l.043-.125c.256-.744.523-1.484.79-2.223.08-.219.158-.438.237-.658l.144-.396c.18-.493.358-.983.532-1.478l.482-1.36.482-1.362c.227-.62.448-1.245.668-1.872V21.1c.118-.334.239-.669.36-1.003a402.425 402.425 0 0 0 .82-2.315c.152-.438.306-.875.46-1.313l.624-1.726c.209-.575.417-1.15.624-1.726.194-.537.381-1.075.568-1.612.125-.359.249-.717.376-1.075.345-.965.689-1.923 1.034-2.88.099-.278.2-.554.301-.831v-.002h.001c.22-.606.441-1.212.649-1.82l.039-.11c.181-.509.363-1.02.395-1.58.076-1.26-.572-2.432-1.792-2.88l-.035-.013ZM86.326 31.076l-.472.002c-.194 0-.388 0-.58.002-.38.001-.756.003-1.122-.002-.386-.007-.469-.103-.345-.469.216-.645.447-1.288.68-1.932.102-.284.205-.567.306-.851.227-.641.454-1.275.682-1.91l.992-2.741c.123-.336.242-.673.36-1.01l.001-.001c.102-.288.203-.576.308-.864l.496-1.372v-.001l.496-1.37v-.002l.001-.001v-.001a771.733 771.733 0 0 1 1.57-4.361c.219-.603.438-1.206.655-1.809.133-.377.264-.755.395-1.133v-.003c.188-.54.375-1.082.57-1.62.234-.66.476-1.316.718-1.973v-.002c.177-.48.354-.96.529-1.443l.047-.13c.204-.562.407-1.12.587-1.69.09-.296.268-.434.572-.434l1.149-.001c.765-.002 1.53-.003 2.296.001.324 0 .427.159.31.476l-.55 1.501v.001l-.004.01-.001.002c-.32.87-.64 1.74-.954 2.614-.207.582-.412 1.165-.617 1.75l-.002.005c-.204.582-.408 1.165-.615 1.745-.206.576-.416 1.151-.627 1.727l-.001.004c-.21.574-.42 1.148-.626 1.721-.162.452-.32.907-.478 1.361l-.001.003c-.159.454-.317.908-.478 1.358-.186.53-.38 1.059-.573 1.588a205.128 205.128 0 0 0-1.02 2.851l-.316.895-.363 1.018-.001.005v.002a396.176 396.176 0 0 1-1.045 2.905l-.001.003-.005.015-.001.001-.48 1.323-.316.91c-.105.302-.21.606-.317.909-.104.29-.297.434-.627.427a26.286 26.286 0 0 0-1.182-.01ZM81.74.39l.13-.377c-1.605 0-3.21 0-4.816-.007-.043.333-.165.639-.285.944a9.06 9.06 0 0 0-.149.393c-.303.861-.613 1.722-.923 2.584l-.5 1.354-.5 1.354c-.21.574-.416 1.148-.621 1.723a372.208 372.208 0 0 1-1.342 3.7l-.352.972c-.184.506-.366 1.011-.551 1.516l-.49 1.332a670.03 670.03 0 0 0-1.26 3.436c-.16.441-.32.882-.483 1.323l-.35.945c-.202.544-.404 1.087-.6 1.633-.214.585-.426 1.173-.638 1.76a528.575 528.575 0 0 1-1.24 3.404c-.202.548-.404 1.096-.603 1.644-.13.36-.261.718-.393 1.077-.302.824-.604 1.648-.882 2.478-.05.15-.112.296-.173.442-.134.319-.268.637-.282.992h4.824a.709.709 0 0 1 .048-.338l.159-.427a169.893 169.893 0 0 0 .823-2.256c.312-.87.624-1.742.94-2.61a1235 1235 0 0 0 .517-1.419l.517-1.42c.162-.44.322-.882.483-1.323.16-.44.32-.881.482-1.322a168.005 168.005 0 0 0 1.33-3.69c.172-.494.344-.988.523-1.478l.388-1.05c.307-.829.614-1.659.915-2.492.142-.393.282-.785.42-1.177a156.23 156.23 0 0 1 .715-1.974c.271-.737.542-1.472.808-2.21.303-.834.606-1.675.91-2.516.136-.375.274-.75.413-1.126.189-.515.378-1.03.565-1.547.338-.924.675-1.854 1.006-2.777.176-.488.347-.98.517-1.47Z" fill="#000"/><path d="M95.997 35.02c.007-.31.159-.572.255-.848.53-1.454 1.082-2.894 1.627-4.341l1.653-4.404c.559-1.474 1.11-2.956 1.675-4.43.599-1.585 1.213-3.163 1.805-4.748.317-.834.607-1.675.91-2.515.021-.07.048-.131.131-.152.186.062.145.234.145.372.006.393-.007.779-.007 1.172v19.9c-2.722-.006-5.458-.006-8.194-.006Z" fill="#65C18E"/><path fill-rule="evenodd" clip-rule="evenodd" d="M117.38 3.032c-.014.606.014.627.599.634v-.001c0-1.213 0-2.432.007-3.651h-.62l.005.32c.003.215.006.428.016.644.013.51-.028.552-.538.552h-7.787c-.117 0-.234 0-.344.02-.152.028-.241.131-.241.29a.27.27 0 0 0 .22.275c.131.028.269.035.407.035h7.373c.531 0 .76-.021.854.081.093.101.056.322.049.8Zm.429 4.021c.056-.118.159-.333.17-.63v-.001c0-.8 0-1.123.007-1.957a9.143 9.143 0 0 0-.406-.001l-.207.001h-8.4c-.241 0-.476.048-.476.331 0 .29.235.338.469.338 1.13 0 2.267 0 3.404-.021.241-.007.351.09.365.303.011.165.009.327.008.49l-.001.165c-.007.875-.351 1.22-1.24 1.22l-.84-.002a155.9 155.9 0 0 0-1.675.001h-.027c-.222 0-.483 0-.476.317 0 .304.261.304.482.304h.672c.672.002 1.344.003 2.015-.007.462-.007.889-.11 1.193-.503.068-.09.158-.173.33-.152.283.441.744.634 1.268.648.682.027 1.358.034 2.033 0 .551-.028 1.068-.186 1.302-.779l.03-.065Zm-1.428.251h-1.103a3.823 3.823 0 0 0-.331 0c-.269.007-.584.015-.902-.076-.393-.103-.6-.372-.69-.737-.073-.306-.059-.623-.046-.941l.005-.12c.007-.214.117-.31.358-.303.882.016 1.765.015 2.647.014h.661c.345 0 .42.068.414.42l-.021.792c-.028.572-.317.882-.889.944-.035.007-.069.007-.103.007Zm.778 10.488c.276 0 .551-.014.82-.069 0-.158 0-.317-.007-.482-1.318-.1-2.636-.066-3.954-.031-.846.022-1.691.044-2.537.031a19.659 19.659 0 0 0-.598-.002h-.001l-.366.002c.2-.186.372-.283.559-.345.523-.164 1.049-.326 1.574-.488.753-.232 1.506-.464 2.257-.704.68-.216 1.359-.444 2.039-.672h.002c.339-.114.679-.228 1.018-.34v-.552c-.064-.006-.129-.012-.194-.02a5.055 5.055 0 0 0-.522-.035h-8.228c-.11 0-.227.007-.338.034a.268.268 0 0 0-.213.276c0 .152.096.234.227.262.138.027.276.027.414.027 2.088.014 4.176-.006 6.263-.048.028 0 .057-.003.085-.004.161-.01.324-.021.453.108-.034.114-.112.129-.185.142l-.042.01-.268.07c-.319.086-.64.171-.952.274-.913.296-1.827.596-2.742.895h-.002a871.522 871.522 0 0 1-2.849.929c-.222.065-.448.13-.388.45.059.296.296.287.515.278l.105-.003c2.687.007 5.368.007 8.055.007Zm.82 15.773c-.011.298-.114.513-.17.631a1.425 1.425 0 0 0-.03.066c-.234.592-.751.75-1.302.778a21.88 21.88 0 0 1-2.033 0c-.524-.014-.985-.206-1.268-.648-.172-.02-.262.062-.33.152-.304.393-.731.496-1.193.503-.671.01-1.343.01-2.015.008l-.672-.001c-.221 0-.482 0-.482-.303-.007-.318.254-.318.476-.317h.027c.56-.005 1.117-.003 1.675-.002l.84.002c.889 0 1.233-.345 1.24-1.22l.001-.165c.001-.163.003-.324-.008-.49-.014-.213-.124-.31-.365-.303-1.137.02-2.274.02-3.403.02h-.001c-.234 0-.469-.047-.469-.337 0-.282.235-.33.476-.33h8.4l.206-.002h.001c.137-.002.273-.003.406.002-.007.826-.007 1.157-.007 1.956Zm-2.701.876h1.103c.034 0 .068 0 .103-.007.572-.062.861-.372.889-.944l.021-.793c.006-.351-.069-.42-.414-.42h-.662c-.882.002-1.764.003-2.646-.014-.241-.007-.351.09-.358.303l-.005.12c-.013.319-.027.636.046.941.09.366.297.634.69.738.318.09.633.082.902.075.121-.003.233-.006.331 0Zm2.497-12.579c.057-.096.198-.335.204-.555l.014-.44c.007-.225.007-.225.007-.65a1.098 1.098 0 0 0-.188-.487l-.026-.043c-.282-.482-.751-.613-1.261-.64a16.192 16.192 0 0 0-1.166-.008h-.005c-.696.007-1.268.262-1.695.834-.221.293-.446.58-.671.87h-.001c-.162.207-.325.415-.486.626-.227.296-.503.489-.882.544-.62.09-1.24.096-1.854.007-.468-.069-.737-.352-.785-.827a2.551 2.551 0 0 1-.007-.517c.034-.579.399-.923.978-.93l.504.001h.001c.338.002.676.004 1.011-.001.2 0 .414-.035.421-.296.007-.262-.2-.31-.407-.31-.163 0-.327-.003-.491-.005a14.455 14.455 0 0 0-1.232.018c-.606.049-1.054.338-1.254.958-.124.372-.117.744-.096 1.123.048.875.586 1.4 1.461 1.413a31.21 31.21 0 0 0 1.619 0c.51-.007.958-.172 1.323-.558.296-.324.565-.669.82-1.02.965-1.316.979-1.323 2.619-1.316.909.007 1.192.29 1.185 1.199-.007.75-.303 1.054-1.068 1.068-.183.003-.367.002-.551 0h-.001c-.184-.002-.368-.004-.551 0-.2.007-.386.048-.386.296 0 .255.173.331.393.331.148-.003.295 0 .443.001.266.004.532.007.797-.015.504-.041.986-.158 1.255-.655l.009-.016Zm.204-10.547h-.001c-1.35.255-2.7.51-4.051.758-.344.062-.688.122-1.033.182h-.001c-.344.06-.689.121-1.033.183l-1.124.21h-.001c-.446.085-.893.17-1.342.252a4.322 4.322 0 0 1-.51.075c-.172.014-.372.021-.399-.213-.028-.241.151-.31.344-.345.193-.038.384-.072.576-.107.191-.034.382-.068.575-.106.503-.097.503-.097.503-.593l-.001-.326c-.001-.328-.003-.657.008-.983.007-.269-.11-.393-.372-.434-.277-.037-.55-.085-.824-.133h-.001a36.58 36.58 0 0 0-.429-.074c-.214-.034-.4-.124-.366-.365.035-.269.255-.255.455-.214 1.301.233 2.596.47 3.895.709h.001l.604.111c.409.075.818.146 1.228.218a71.88 71.88 0 0 1 2.962.56c.073.015.15.016.228.018l.116.003c-.007.2-.007.407-.007.614Zm-1.853-.296c-.061-.14-.171-.157-.281-.173a1.407 1.407 0 0 1-.043-.007l-.543-.09a815.736 815.736 0 0 1-3.826-.64c-.241-.041-.372.048-.379.269-.021.447-.021.895 0 1.343.007.2.138.29.358.248l1.902-.33a692.26 692.26 0 0 0 2.226-.386c.043-.01.086-.018.13-.026.167-.03.335-.06.456-.209Zm1.247 18.743c0 .606.014.613.606.64 0-.916 0-1.833-.007-2.77-.054-.005-.109-.012-.165-.019a3.727 3.727 0 0 0-.448-.036h-8.4c-.4 0-.489.09-.496.483-.005.422-.003.841-.002 1.262l.002.633v.016c.007.196.014.411.276.418.289.006.289-.23.289-.434V28.7c.007-.42.083-.503.51-.503.437-.003.874-.003 1.311-.002.583.001 1.166.002 1.748-.005.304 0 .414.124.414.406v1.344c0 .193.014.386.269.393.275.007.296-.193.296-.4V28.59c0-.262.096-.392.386-.392.992.013 1.991.006 2.99 0 .29-.007.428.09.421.392-.005.262-.003.52-.002.78l.002.392Zm.606-3.218c-.592-.028-.606-.035-.606-.641l-.001-.268c-.001-.267-.003-.532.008-.8.013-.303-.09-.441-.414-.441-.999.014-1.998.014-2.997 0-.297-.007-.393.138-.393.393-.005.284-.003.566-.002.848l.002.426c0 .207-.007.414-.289.414-.283 0-.283-.214-.283-.42v-1.24c0-.297-.124-.428-.441-.421-.879.01-1.757.009-2.636.008l-.878-.001h-.08c-.22.006-.473.011-.485-.29-.007-.328.259-.322.488-.318l.077.001h8.234c.235 0 .455.028.682.07.014.888.014 1.784.014 2.68Z" fill="#000"/></svg>