<svg width="128" height="80" fill="none" xmlns="http://www.w3.org/2000/svg"><path d="M38.386 70.814V66.57c0-1.594-.928-2.651-2.515-2.665a2.508 2.508 0 0 0-2.305 1.2 2.38 2.38 0 0 0-2.163-1.2 2.197 2.197 0 0 0-1.966.99v-.82h-1.315v6.739h1.356v-3.831a1.593 1.593 0 0 1 1.654-1.79c.943 0 1.478.638 1.478 1.776v3.879h1.356v-3.865a1.607 1.607 0 0 1 1.654-1.79c.977 0 1.492.638 1.492 1.776v3.879l1.274-.034zm21.322-6.74h-2.38v-2.033h-1.355v2.034h-1.356v1.227h1.356v3.186c0 1.56.535 2.495 2.217 2.495a3.282 3.282 0 0 0 1.783-.522l-.414-1.2c-.377.236-.81.367-1.254.38-.678 0-1.003-.448-1.003-1.126v-3.213h2.38l.026-1.227zm12.143-.169a1.993 1.993 0 0 0-1.75.99v-.82h-1.355v6.739h1.356v-3.797c0-1.112.515-1.83 1.45-1.83.305-.006.607.052.889.169l.44-1.268a2.937 2.937 0 0 0-1.03-.183zm-18.353.678a4.746 4.746 0 0 0-2.67-.678c-1.655 0-2.665.807-2.665 2.142 0 1.099.739 1.763 2.203 1.973l.678.102c.787.109 1.207.393 1.207.773 0 .522-.576.86-1.546.86a3.35 3.35 0 0 1-2.176-.677l-.678 1.058a4.78 4.78 0 0 0 2.834.874c1.891 0 2.929-.901 2.929-2.19 0-1.18-.794-1.79-2.23-2.034l-.679-.094c-.617-.089-1.166-.285-1.166-.733 0-.447.522-.834 1.302-.834a4.176 4.176 0 0 1 2.034.577l.623-1.119zm19.844 2.834a3.315 3.315 0 0 0 3.438 3.539 3.39 3.39 0 0 0 2.352-.807l-.678-1.058a2.773 2.773 0 0 1-1.708.61 2.298 2.298 0 0 1 0-4.569c.62.007 1.221.22 1.708.604l.678-1.051a3.539 3.539 0 0 0-5.79 2.712v.02zm-9.193-3.539c-1.919 0-3.234 1.424-3.234 3.525 0 2.102 1.356 3.553 3.33 3.553a3.898 3.898 0 0 0 2.711-.95l-.678-.996a3.058 3.058 0 0 1-1.898.678 1.939 1.939 0 0 1-2.034-1.749h4.888v-.563c-.02-2.047-1.254-3.47-3.085-3.47v-.028zm0 1.254a1.688 1.688 0 0 1 1.722 1.709h-3.56a1.77 1.77 0 0 1 1.811-1.682l.027-.027zm-17.715 2.285v-3.39h-1.342v.82a2.542 2.542 0 0 0-2.109-.942c-1.83 0-3.227 1.478-3.227 3.54 0 2.06 1.397 3.538 3.227 3.538a2.542 2.542 0 0 0 2.122-.99v.82h1.315l.014-3.396zm-5.295 0a2.088 2.088 0 0 1 2.034-2.285c1.2 0 1.993.977 1.993 2.285 0 1.308-.793 2.285-1.993 2.285a2.088 2.088 0 0 1-2.061-2.258l.027-.027zm50.502-3.539c-.729-.02-1.41.36-1.777.99v-.82h-1.301v6.738h1.315V66.99c0-1.112.522-1.83 1.45-1.83.305-.006.608.052.889.169l.44-1.268a2.935 2.935 0 0 0-1.043-.156l.027-.027zm-5.03 3.539v-3.39h-1.343v.82a2.563 2.563 0 0 0-2.122-.99c-1.838 0-3.234 1.479-3.234 3.54 0 2.06 1.396 3.539 3.234 3.539a2.563 2.563 0 0 0 2.122-.99v.82h1.315l.027-3.35zm-5.303 0a2.088 2.088 0 0 1 2.034-2.285c1.207 0 2.034.977 2.034 2.285 0 1.308-.793 2.285-2.034 2.285a2.088 2.088 0 0 1-2.06-2.258l.026-.027zm18.509 0v-6.102h-1.315v3.526a2.563 2.563 0 0 0-2.122-.99c-1.838 0-3.234 1.478-3.234 3.539 0 2.06 1.396 3.539 3.234 3.539a2.563 2.563 0 0 0 2.122-.99v.82h1.315v-3.342zm-5.302 0a2.088 2.088 0 0 1 2.034-2.285c1.207 0 2.034.977 2.034 2.285 0 1.308-.793 2.285-2.034 2.285a2.088 2.088 0 0 1-2.04-2.258l.006-.027z" fill="#000"/><circle cx="49" cy="33" r="25" fill="#EB001B"/><circle cx="79" cy="33" r="25" fill="#F79E1B"/><path fill-rule="evenodd" clip-rule="evenodd" d="M64 53.002C70.072 48.44 74 41.179 74 33c0-8.18-3.928-15.44-10-20.002C57.928 17.56 54 24.821 54 33c0 8.18 3.928 15.44 10 20.002z" fill="#FF5F00"/></svg>