<svg width="118" height="40" fill="none" xmlns="http://www.w3.org/2000/svg"><path fill-rule="evenodd" clip-rule="evenodd" d="M94.022 24.162h-2.675s.276-2.262.767-3.344c.433-1.102 1.102-1.888 2.282-2.321 1.16-.433 2.321-.531 4.622-.57 2.321-.04 3.108.177 3.875.51.748.355 1.377 1.142 1.554 1.81.158.67-.059 2.794-.059 2.794s-.314 2.183-1.141 3.324c-.826 1.16-2.911 1.692-2.911 1.692l-3.835 1.042s-1.653.433-2.144.61c-.71.253-.853.39-.967.499l-.056.052c-.433.354-.55 1.435-.55 1.435l-.178 1.043 10.15-.02-.433 2.557H89.479s.629-3.717.747-4.248c.118-.551.433-1.574 1.259-2.479.826-.885 2.282-1.318 2.282-1.318l2.38-.688s3.029-.767 3.914-1.062c.374-.118 1.003-.394 1.239-.807.256-.452.354-1.18.354-1.18l.217-1.633s.295-1.081-.846-1.22a31.046 31.046 0 0 0-2.675-.176c-.728-.02-1.613 0-2.321.118-.394.079-.728.177-.925.295-.63.354-.924 2.242-.924 2.242l-.158 1.043Zm23.309-6-1.809 10.78H118l-.433 2.576h-2.458l-.63 3.797h-2.675l.629-3.797h-8.674l.452-2.694 9.934-10.662h3.186Zm-10.051 10.78h5.606l1.219-7.278-6.825 7.278ZM71.422 6.36 74.588.008s6.924-.137 12.904.787c5.98.925 11.448 2.34 11.33 2.4L83.656 11.12s-3.54-2.243-7.946-3.62a80.918 80.918 0 0 0-4.288-1.14ZM51.378 3.37l.669 3.699s3.049-.807 6.688-1.24c4.7-.649 9.697.04 9.697.04L70.32.145s-5.684.374-9.972 1.18c-4.289.807-8.97 2.046-8.97 2.046Zm-14.123 9.777-3.796-2.557s3.422-1.948 8.005-3.777c4.564-1.81 7.003-2.577 7.003-2.577l.767 3.62S44.848 9.33 42.33 10.51c-2.597 1.121-5.075 2.636-5.075 2.636ZM19.69 19.559h8.182s1.83-1.475 3.128-2.439c1.298-.944 3.678-2.459 3.678-2.459l-4.622-2.163s-3.915 2.42-5.567 3.56c-1.613 1.062-4.8 3.501-4.8 3.501Zm70.025-4.17-3.325-2.537 18.982-7.298c2.498 1.121 3.855 1.731 6.275 3.305.944.61 2.203 1.593 2.517 1.908.866.865 1.692 1.691 2.144 2.478.728 1.259.787 2.144.787 2.144h-27.38Z" fill="#B3B2B1"/><path fill-rule="evenodd" clip-rule="evenodd" d="M47.66 18.143h2.557l-2.852 17.152h-2.557l2.852-17.152Zm-34.442.472c.335.138.63.315.846.531.115.115.21.241.306.37.035.047.07.094.107.141.295.551.354 1.122.354 1.495 0 .276-.04.453-.04.453s-.019.157-.058.393c-.06.55-.217 1.574-.354 2.42a22.562 22.562 0 0 1-.295 1.416s-.394 1.711-1.81 2.459c-1.416.747-3.423.668-3.423.668l-5.153-.02-1.043 6.354H0l2.832-17.152h7.436s.196 0 .511.02c.335.02.807.058 1.298.137.394.079.787.177 1.141.315Zm-1.75 6.609c.314-1.633.55-3.01.55-3.049l.003-.03c.01-.074.033-.271.017-.481-.02-.197-.059-.413-.197-.57-.098-.119-.413-.197-.806-.256a12.376 12.376 0 0 0-1.436-.08h-.63l-3.894-.019-.944 5.704 4.307.02s.984.04 1.889-.157c.55-.118 1.023-.453 1.14-1.082Zm22.994-2.301-9.757.02-.393 2.399h6.235l-7.809 7.494-.413 2.459h10.071l.394-2.38h-6.845l8.163-7.77.354-2.222Zm29.288 0-2.458.02 1.258 12.352h2.95l3.817-8.655.865 8.655h3.01l5.41-12.372h-2.558l-3.757 8.753-.885-8.753h-3.03l-3.756 8.713-.866-8.713Zm-20.79.118c-.709-.236-1.948-.276-3.01-.276-1.023.02-1.476.06-1.869.138 0 0-1.81.256-2.832 1.534-1.023 1.279-1.338 4.052-1.338 4.052s-.61 3.069-.433 4.092c.177 1.022.492 1.967 1.652 2.419 1.161.452 2.145.433 2.145.433s2.065.157 3.619-.197c1.554-.354 2.38-1.456 2.38-1.456s.374-.472.63-1.042c.213-.477.303-.816.338-.95l.008-.029.003-.01.002-.008.002-.006.158-.669h-2.656s-.137 1.75-1.573 1.908c-1.39.152-2.135.102-2.449.08l-.03-.001a1.861 1.861 0 0 0-.099-.004c-.432-.013-1.7-.05-1.592-1.216v-.079c.059-1.455.236-1.829.236-1.829l8.32-.02.354-2.065c.453-2.34.157-4.11-1.967-4.8Zm-.571 4.504h-5.705l.217-.905s.196-.708.59-1.003c.393-.295.905-.354 1.377-.393.472-.04 1.73-.138 2.773.078.335.06.67.256.748.551.216.65 0 1.672 0 1.672Zm13.238-4.78c1.062 0 2.301.04 3.01.276 2.143.688 2.419 2.478 1.966 4.819l-.354 2.065-8.32.02s-.177.373-.236 1.83v.078c-.108 1.167 1.16 1.203 1.592 1.215l.1.004c.049 0 .11.002.186.004.377.01 1.095.03 2.292-.102 1.436-.157 1.573-1.908 1.573-1.908h2.656l-.158.669-.015.054a5.894 5.894 0 0 1-.339.949c-.255.57-.63 1.042-.63 1.042s-.825 1.082-2.38 1.456c-1.553.354-3.618.197-3.618.197s-.984.02-2.145-.433c-1.16-.452-1.475-1.397-1.652-2.42-.177-1.022.433-4.09.433-4.09s.315-2.774 1.337-4.053c1.023-1.278 2.833-1.534 2.833-1.534.393-.079.846-.118 1.869-.138Zm-3.266 4.78h5.705s.216-1.023 0-1.672c-.079-.295-.413-.492-.748-.55-1.042-.217-2.301-.119-2.773-.08-.472.04-.984.099-1.377.394-.393.295-.59 1.003-.59 1.003l-.217.905Zm29.17-4.603 1.633 9.049 4.623-9.049 2.596.02-6.668 12.923s-1.2 2.34-1.947 2.93c-.748.591-1.2.866-1.81.925l-.145.015c-.51.05-.768.076-1.29-.015l-.63-.118.393-2.301s1.043.197 1.653-.059c.61-.236 1.101-1.298 1.101-1.298l.315-.531-2.42-12.53 2.597.04Zm-62.904.846c.827-.452 1.81-.865 2.833-.865h1.495l-.433 2.4h-1.416c-2.026 0-3.049 1.71-3.305 3.087l-1.2 6.826h-2.734l2.184-12.313h2.714l-.138.865Z" fill="#D13239"/></svg>