<svg width="44" height="43" fill="none" xmlns="http://www.w3.org/2000/svg"><path d="M43 14v14c0 2.21-1.79 4-4 4H19M5 14v-3c0-2.21 1.79-4 4-4h19M5 37.8h6" stroke="#fff" stroke-width="2" stroke-miterlimit="10" stroke-linecap="round"/><path d="M24 32v5" stroke="#fff" stroke-width="2" stroke-miterlimit="10"/><path d="M19 37h10" stroke="#fff" stroke-width="2" stroke-miterlimit="10" stroke-linecap="round"/><path d="M12 19c1.1 0 2 .9 2 2v18c0 1.1-.9 2-2 2H4c-1.1 0-2-.9-2-2V21c0-1.1.9-2 2-2h8Zm0-2H4c-2.21 0-4 1.79-4 4v18c0 2.21 1.79 4 4 4h8c2.21 0 4-1.79 4-4V21c0-2.21-1.79-4-4-4ZM37.5 2C39.98 2 42 4.02 42 6.5S39.98 11 37.5 11 33 8.98 33 6.5 35.02 2 37.5 2Zm0-2a6.5 6.5 0 1 0 0 13 6.5 6.5 0 0 0 0-13Z" fill="#fff"/><path d="m36 7 1 1 2-2" stroke="#fff" stroke-width="2" stroke-linecap="round" stroke-linejoin="round"/></svg>