<svg width="24" height="24" fill="none" xmlns="http://www.w3.org/2000/svg"><path d="M17.25 4.5H6.75v15h10.5v-15Z" fill="#5798B4"/><path fill-rule="evenodd" clip-rule="evenodd" d="M6.375 4.5h11.25a.375.375 0 0 1 0 .75H6.375a.375.375 0 1 1 0-.75Zm0 1.5h11.25a.375.375 0 0 1 0 .75H6.375a.375.375 0 1 1 0-.75Zm11.25 12.75H6.375a.375.375 0 0 0 0 .75h11.25a.375.375 0 0 0 0-.75Zm-11.25-1.5h11.25a.375.375 0 0 1 0 .75H6.375a.375.375 0 0 1 0-.75Z" fill="#3B7B96"/><path d="M14.243 12.863C14.243 14.05 13.233 15 12 15c-1.232 0-2.242-.95-2.242-2.137C9.758 11.675 12 9 12 9s2.243 2.688 2.243 3.863Z" fill="#FFC521"/><path d="M12 14.438c-.905 0-1.652-.7-1.652-1.575 0-.1.091-.187.196-.187.105 0 .197.087.197.187 0 .663.564 1.2 1.26 1.2.104 0 .196.088.196.188s-.092.187-.197.187Z" fill="#fff"/><mask id="a" style="mask-type:alpha" maskUnits="userSpaceOnUse" x="12" y="0" width="12" height="8"><path d="M23.063 0h-9.375a.937.937 0 0 0-.938.938v5.625c0 .517.42.937.938.937h9.374c.518 0 .938-.42.938-.938V.938A.937.937 0 0 0 23.062 0Z" fill="#fff"/></mask><g mask="url(#a)"><path d="M23.063 0h-9.375a.937.937 0 0 0-.938.938v5.625c0 .517.42.937.938.937h9.374c.518 0 .938-.42.938-.938V.938A.937.937 0 0 0 23.062 0Z" fill="#0D47A1"/><path d="M23.988.722a.847.847 0 0 0-.83-.714h-.22l-3.593 2.391V.008h-1.94V2.4L13.812.008h-.22a.847.847 0 0 0-.83.714l3.071 2.044H12.75v1.97h3.083l-3.071 2.045a.847.847 0 0 0 .83.715h.22l3.593-2.392v2.392h1.94V5.104l3.593 2.392h.22c.417 0 .764-.31.83-.715l-3.071-2.044H24v-1.97h-3.083L23.988.721Z" fill="#fff"/><path d="M18.957.008V3.16H24v1.182h-5.043v3.152h-1.164V4.343H12.75V3.16h5.043V.008h1.164Zm-1.563 4.729-4.1 2.703a.84.84 0 0 1-.284-.182l-.057-.062 3.729-2.46h.713Zm2.967 0 3.528 2.326a.855.855 0 0 1-.205.245l-.065.047-3.97-2.618h.712ZM13.09.177l3.927 2.59h-.712L12.839.48a.856.856 0 0 1 .251-.304ZM23.448.06c.135.05.253.135.346.243l-3.737 2.463h-.712L23.449.06Z" fill="#F44336"/><path fill-rule="evenodd" clip-rule="evenodd" d="M23.063.469h-9.375a.469.469 0 0 0-.47.469v5.625c0 .258.21.468.47.468h9.374c.26 0 .47-.21.47-.468V.938a.469.469 0 0 0-.47-.47ZM13.688 0a.937.937 0 0 0-.938.938v5.625c0 .517.42.937.938.937h9.374c.518 0 .938-.42.938-.938V.938A.937.937 0 0 0 23.062 0h-9.375Z" fill="#000" fill-opacity=".04"/></g></svg>