<svg xmlns="http://www.w3.org/2000/svg" width="64" height="64" fill="none"><path fill-rule="evenodd" d="M58.133 14.267h-1.867v-3.733A1.87 1.87 0 0 0 54.4 8.667H41.078a11.163 11.163 0 0 0-18.156 0H9.6a1.87 1.87 0 0 0-1.867 1.867v3.733H5.867A1.87 1.87 0 0 0 4 16.133V54.4a1.87 1.87 0 0 0 1.867 1.867H26.12a6.498 6.498 0 0 0 11.76 0h20.253A1.87 1.87 0 0 0 60 54.4V16.133a1.87 1.87 0 0 0-1.867-1.867zm-15.965-3.733H54.4v30.8H37.6a6.51 6.51 0 0 0-4.667 1.97v-16.95a11.17 11.17 0 0 0 9.235-15.819zm7.378 37.333H54.4v2.8H32.933v-2.8A4.673 4.673 0 0 1 37.6 43.2h16.8V46h-4.853a.933.933 0 1 0 0 1.866zM32 5.867a9.333 9.333 0 1 1 0 18.666 9.333 9.333 0 0 1-9.333-9.333A9.344 9.344 0 0 1 32 5.867zM9.6 10.533h12.232a11.17 11.17 0 0 0 9.235 15.819v16.95a6.51 6.51 0 0 0-4.667-1.97H9.6v-30.8zm0 37.333h5.04a.933.933 0 0 0 0-1.866H9.6v-2.8h16.8a4.673 4.673 0 0 1 4.667 4.667v2.8H9.6v-2.8zM58.133 54.4h-20.86c-.019.004-.024.006-.029.006a.936.936 0 0 0-.195.039.496.496 0 0 0-.295.132.52.52 0 0 0-.24.241.9.9 0 0 0-.109.183l-.008.013-.002.002-.003.004a4.663 4.663 0 0 1-4.395 3.113 4.66 4.66 0 0 1-4.392-3.107l-.008-.013a1.036 1.036 0 0 0-.113-.191.501.501 0 0 0-.231-.237.938.938 0 0 0-.146-.099.976.976 0 0 0-.15-.04.9.9 0 0 0-.205-.041l-.014-.003L5.867 54.4V16.133h1.867v34.533A1.87 1.87 0 0 0 9.6 52.533h44.8a1.87 1.87 0 0 0 1.867-1.867V16.133h1.867V54.4zM31.996 21.734a.932.932 0 0 0 .933-.933v-7.467a.933.933 0 1 0-1.866 0V20.8a.934.934 0 0 0 .933.933zm.66-11.473a.934.934 0 0 1-1.593-.66v-.933a.933.933 0 0 1 1.866 0v.933a.932.932 0 0 1-.273.66zM12.213 33.12c0-.412.334-.747.747-.747h12.693a.747.747 0 0 1 0 1.494H12.96a.747.747 0 0 1-.747-.747zm.747-4.48a.747.747 0 0 0 0 1.494h5.973a.747.747 0 0 0 0-1.494H12.96zm23.893 4.48c0-.412.334-.747.747-.747h12.693a.747.747 0 0 1 0 1.494H37.6a.747.747 0 0 1-.747-.747zm7.467-4.48a.747.747 0 0 0 0 1.494h5.973a.747.747 0 0 0 0-1.494H44.32zm-32.107 8.213c0-.412.334-.747.747-.747h12.693a.747.747 0 0 1 0 1.494H12.96a.747.747 0 0 1-.747-.747zm25.387-.747a.747.747 0 0 0 0 1.494h12.693a.747.747 0 0 0 0-1.494H37.6z" fill="#ff444f"/></svg>