<svg width="29" height="27" fill="none" xmlns="http://www.w3.org/2000/svg"><path fill-rule="evenodd" clip-rule="evenodd" d="M13.333 26.333V23h1.333v3.333h-1.333Z" fill="#414652"/><path fill-rule="evenodd" clip-rule="evenodd" d="M10 26.334c0-.368.298-.667.666-.667h6.667a.667.667 0 0 1 0 1.334h-6.667a.667.667 0 0 1-.667-.667ZM4 7a2 2 0 0 0-2 2v11.334a2 2 0 0 0 2 2h20a2 2 0 0 0 2-2v-9.333a.667.667 0 1 1 1.333 0v9.333a3.333 3.333 0 0 1-3.334 3.333H4a3.333 3.333 0 0 1-3.333-3.333V9.001A3.333 3.333 0 0 1 4 5.667h14a.667.667 0 0 1 0 1.334H4Z" fill="#414652"/><path fill-rule="evenodd" clip-rule="evenodd" d="M20.717 17.413a.667.667 0 0 1 .616-.412h2a.667.667 0 0 1 0 1.334h-.39l.861.862a.667.667 0 0 1-.943.942l-2-2a.667.667 0 0 1-.144-.726Z" fill="#414652"/><path fill-rule="evenodd" clip-rule="evenodd" d="M21.333 17.001c.368 0 .666.299.666.667v2a.667.667 0 0 1-1.333 0v-2c0-.368.299-.667.667-.667Zm0-3.334c.368 0 .666.299.666.667v.667a.667.667 0 0 1-1.333 0v-.667c0-.368.299-.667.667-.667Zm-3.138.862c.26-.26.682-.26.943 0l.666.666a.667.667 0 0 1-.943.943l-.666-.667a.667.667 0 0 1 0-.942Zm-.862 3.139c0-.368.298-.667.666-.667h.667a.667.667 0 0 1 0 1.334H18a.667.667 0 0 1-.666-.667Z" fill="#414652"/><path d="M15.333 9c-.367 0-.667.3-.667.667 0 .366.3.666.667.666a.667.667 0 0 0 0-1.333Zm2 0c-.367 0-.667.3-.667.667 0 .366.3.666.667.666a.667.667 0 0 0 0-1.333Zm2 0c-.367 0-.667.3-.667.667 0 .366.3.666.667.666a.667.667 0 0 0 0-1.333Z" fill="#414652"/><path fill-rule="evenodd" clip-rule="evenodd" d="M4.666 9.668c0-.368.298-.667.667-.667h8a.667.667 0 1 1 0 1.334h-8a.667.667 0 0 1-.667-.667ZM6 13a.67.67 0 0 0-.667.667v5.334a.67.67 0 0 0 .666.666h12.667a.667.667 0 0 1 0 1.334H5.999c-1.101 0-2-.899-2-2v-5.334c0-1.101.899-2 2-2h13.334a.667.667 0 0 1 0 1.334H5.999Z" fill="#414652"/><path d="M24.333 1.667c1.653 0 3 1.347 3 3 0 1.654-1.347 3-3 3-1.654 0-3-1.346-3-3 0-1.653 1.346-3 3-3Zm0-1.333a4.333 4.333 0 1 0 0 8.666 4.333 4.333 0 0 0 0-8.666Z" fill="#414652"/><path fill-rule="evenodd" clip-rule="evenodd" d="M24.861 3.863a.667.667 0 1 1 .943.942L24.471 6.14a.667.667 0 0 1-.943 0l-.667-.667a.667.667 0 1 1 .943-.943l.195.196.862-.862Z" fill="#414652"/></svg>