<svg xmlns="http://www.w3.org/2000/svg" width="32" height="32"><g fill="none" fill-rule="evenodd"><path d="M0 0h32v32H0z"/><g fill-rule="nonzero"><path fill="#27356A" d="M25.53 2.41C24.05.72 21.37 0 17.94 0H8a1.428 1.428 0 0 0-1.41 1.2L2.45 27.46a.856.856 0 0 0 .488.921.871.871 0 0 0 .362.079h6.13L11 18.67l-.05.31a1.417 1.417 0 0 1 1.4-1.21h2.92c5.73 0 10.22-2.32 11.53-9.06 0-.2.07-.39.1-.58.39-2.49 0-4.18-1.35-5.72"/><path fill="#27356A" d="M13.33 7.23c.166-.076.347-.117.53-.12h7.8c.86-.006 1.72.057 2.57.19l.66.12.62.16.29.09c.373.121.734.275 1.08.46.39-2.49 0-4.18-1.35-5.72C24.05.72 21.37 0 17.94 0H8a1.428 1.428 0 0 0-1.41 1.2L2.45 27.46a.843.843 0 0 0 .02.367c.032.12.09.231.17.326.08.095.18.172.291.225.113.053.235.08.359.082h6.14l3.2-20.29a1.29 1.29 0 0 1 .7-.94z"/><path fill="#2791C3" d="M26.78 8.71c-1.31 6.74-5.8 9.06-11.53 9.06h-2.92a1.424 1.424 0 0 0-1.4 1.23L9 31.14a.743.743 0 0 0 .174.599.76.76 0 0 0 .566.262h5.17A1.238 1.238 0 0 0 16.15 31l.05-.26 1-6.19.06-.34c.048-.293.197-.559.423-.75.225-.193.511-.3.807-.3h.78c5 0 8.93-2 10.08-7.93.48-2.46.23-4.51-1-6a5 5 0 0 0-1.42-1.09c0 .19-.06.38-.1.58l-.05-.01z"/><path fill="#1E274F" d="m25.51 7.58-.62-.16-.66-.12a15.91 15.91 0 0 0-2.57-.19h-7.8a1.331 1.331 0 0 0-.53.12 1.287 1.287 0 0 0-.7.93L11 18.67l-.05.31a1.422 1.422 0 0 1 1.4-1.21h2.92c5.73 0 10.22-2.32 11.53-9.06 0-.2.07-.39.1-.58a5.796 5.796 0 0 0-1.08-.45l-.29-.1"/></g></g></svg>