<svg width="33" height="32" fill="none" xmlns="http://www.w3.org/2000/svg"><path fill-rule="evenodd" clip-rule="evenodd" d="M29.667 16a3 3 0 1 0-2.708-1.707l-7.792 7.793-4.5-4.5-4.5 4.5-4.5-4.5-5 5v2.828l5-5 4.5 4.5 4.5-4.5 4.5 4.5 9.206-9.206c.392.187.83.292 1.294.292Zm0-2a1 1 0 1 0 0-2 1 1 0 0 0 0 2Z" fill="#85ACB0"/><path d="M22.684 14H.667v-2h24l-1.983 2Zm1.983 18h-24v-2h24v2Z" fill="#85ACB0"/><path d="m22.46 23.207 1.8 1.8 1.414-1.414-1.8-1.8-1.414 1.414Z" fill="#FF444F"/><path fill-rule="evenodd" clip-rule="evenodd" d="m26.96 27.707-1.8-1.8 1.414-1.414 1.8 1.8a3 3 0 1 1-1.414 1.414ZM30.666 29a1 1 0 1 1-2 0 1 1 0 0 1 2 0Z" fill="#FF444F"/><path d="M.667 2a2 2 0 0 1 2-2h15a2 2 0 0 1 2 2v6a2 2 0 0 1-2 2h-15a2 2 0 0 1-2-2V2Z" fill="#0E0E0E"/><path d="M7.38 8H3.426V6.904l1.72-1.472c.155-.133.286-.253.392-.36.107-.112.192-.219.256-.32.07-.107.118-.21.144-.312.032-.101.048-.21.048-.328V4a.586.586 0 0 0-.232-.48.88.88 0 0 0-.504-.16.901.901 0 0 0-.352.064.844.844 0 0 0-.256.176.945.945 0 0 0-.176.248c-.048.09-.085.19-.112.296l-1.048-.4c.064-.192.152-.373.264-.544a1.79 1.79 0 0 1 .416-.456c.171-.133.371-.237.6-.312a2.5 2.5 0 0 1 .776-.112c.304 0 .574.043.808.128.235.085.432.203.592.352.166.15.291.328.376.536.086.203.128.424.128.664 0 .24-.04.459-.12.656-.08.197-.189.384-.328.56-.133.17-.29.333-.472.488-.181.155-.37.312-.568.472l-1.04.816h2.64V8Zm2.788.096c-.73 0-1.272-.253-1.624-.76-.352-.507-.528-1.216-.528-2.128 0-.912.176-1.621.528-2.128.352-.507.894-.76 1.624-.76.73 0 1.272.253 1.624.76.352.507.528 1.216.528 2.128 0 .912-.176 1.621-.528 2.128-.352.507-.893.76-1.624.76Zm0-1.016c.32 0 .542-.117.664-.352.123-.235.184-.565.184-.992V4.68c0-.427-.061-.757-.184-.992-.122-.235-.344-.352-.664-.352-.32 0-.541.117-.664.352-.122.235-.184.565-.184.992v1.056c0 .427.062.757.184.992.123.235.344.352.664.352Zm4.797 1.016c-.73 0-1.272-.253-1.624-.76-.352-.507-.528-1.216-.528-2.128 0-.912.176-1.621.528-2.128.352-.507.894-.76 1.624-.76.73 0 1.272.253 1.624.76.352.507.528 1.216.528 2.128 0 .912-.176 1.621-.528 2.128-.352.507-.893.76-1.624.76Zm0-1.016c.32 0 .542-.117.664-.352.123-.235.184-.565.184-.992V4.68c0-.427-.061-.757-.184-.992-.122-.235-.344-.352-.664-.352-.32 0-.541.117-.664.352s-.184.565-.184.992v1.056c0 .427.061.757.184.992s.344.352.664.352Z" fill="#fff"/></svg>