<svg width="80" height="80" fill="none" xmlns="http://www.w3.org/2000/svg"><rect width="80" height="80" rx="40" fill="#F9F9F9"/><g clip-path="url(#a)"><path d="M18 49v3h-6v-3h6Zm18 0v3h-9v-3h9ZM24 28v24h-3V28h3Zm-6 0v3h-6v-3h6Z" fill="#414652"/><path d="M21 40.879v4.242l-.879.879H12v-3h6.879L21 40.879ZM33 28a3 3 0 0 1 3 3v7.5h-.015A2.985 2.985 0 0 1 33 35.521v-2.4l-7.5 7.5v-4.242L30.885 31h-2.4a2.985 2.985 0 0 1-2.985-2.985V28H33Z" fill="#FF444F"/></g><g clip-path="url(#b)"><path d="M56 28v24h-3V28h3Zm-6 21v3h-6v-3h6Zm0-21v3h-6v-3h6Zm18 0v3h-9v-3h9Z" fill="#414652"/><path d="m57.5 39.385 7.5 7.5v-2.4a2.985 2.985 0 0 1 2.985-2.985H68V49a3 3 0 0 1-3 3h-7.5v-.015A2.985 2.985 0 0 1 60.479 49h2.4L57.5 43.627v-4.242ZM52.121 34l.879.879v4.242L50.879 37H44v-3h8.121Z" fill="#FF444F"/></g><defs><clipPath id="a"><path fill="#fff" transform="translate(12 28)" d="M0 0h24v24H0z"/></clipPath><clipPath id="b"><path fill="#fff" transform="translate(44 28)" d="M0 0h24v24H0z"/></clipPath></defs></svg>