<svg width="48" height="48" fill="none" xmlns="http://www.w3.org/2000/svg"><path d="M23 43c7.18 0 13-1.343 13-3s-5.82-3-13-3-13 1.343-13 3 5.82 3 13 3Zm13-20v17" stroke="#fff" stroke-width="2" stroke-linecap="round" stroke-linejoin="round"/><path d="M10 40V23c0-7.13 5.87-13 13-13 .68 0 1.35.05 2 .16M17 29l.27-.27L19 27l4 4 6-6h-2m2 0v2m4-20h4c2.21 0 4 1.79 4 4v4c0 2.21-1.79 4-4 4h-7c-.55 0-1-.45-1-1v-7c0-2.21 1.79-4 4-4Zm4 8v-4m-4 4v-1" stroke="#fff" stroke-width="2" stroke-linecap="round" stroke-linejoin="round"/></svg>