<svg width="66" height="66" fill="none" xmlns="http://www.w3.org/2000/svg"><path opacity=".01" fill="#fff" stroke="#979797" stroke-width="1.333" d="M.666 1h64v64h-64z"/><path fill-rule="evenodd" clip-rule="evenodd" d="M59.985 49.626v-32.51c0-3.01-2.317-5.45-5.176-5.45H10.856c-2.859 0-5.176 2.44-5.176 5.45v10.018h13.652a5.334 5.334 0 0 1 5.333 5.334v13.828h31.507v1.944H36.718v1.666h-8.106V48.24h-3.947v6.144h37.276a2.725 2.725 0 0 0 2.724-2.724v-2.034h-4.68Z" fill="#85ACAF"/><path fill-rule="evenodd" clip-rule="evenodd" d="M11.333 61.136a2 2 0 1 1 .001-4.002 2 2 0 0 1-.001 4.002Zm7.18-31.554H4.153A3.487 3.487 0 0 0 .666 33.07v28.444A3.486 3.486 0 0 0 4.153 65h14.36a3.486 3.486 0 0 0 3.486-3.487V33.069a3.487 3.487 0 0 0-3.486-3.487Z" fill="#85ACAF"/><path fill-rule="evenodd" clip-rule="evenodd" d="M32.666 6.333v21.334A5.334 5.334 0 0 0 37.999 33h21.334a5.334 5.334 0 0 0 5.333-5.333V6.333A5.334 5.334 0 0 0 59.333 1H37.999a5.334 5.334 0 0 0-5.333 5.333Z" fill="#FF444F" style="mix-blend-mode:multiply"/><path fill-rule="evenodd" clip-rule="evenodd" d="M40.04 23.852a1.462 1.462 0 1 0 0 2.924 1.462 1.462 0 0 0 0-2.924Zm0-13.594c-.807 0-1.462.655-1.462 1.463v7.408a1.462 1.462 0 1 0 2.924 0v-7.408c0-.808-.655-1.463-1.463-1.463Zm5.752 13.594c-.808 0-1.464.654-1.464 1.462a1.463 1.463 0 0 0 2.925 0 1.46 1.46 0 0 0-1.46-1.462Zm0-17.364c-.808 0-1.464.655-1.464 1.463v11.177a1.464 1.464 0 0 0 2.925 0V7.951c0-.808-.654-1.463-1.46-1.463Zm5.749 17.364a1.462 1.462 0 1 0 .002 2.924 1.462 1.462 0 0 0-.002-2.924Zm0-9.938c-.806 0-1.46.655-1.46 1.463v3.752a1.462 1.462 0 1 0 2.924 0v-3.752c0-.808-.656-1.463-1.464-1.463Zm5.754 9.938a1.462 1.462 0 1 0 0 2.924 1.462 1.462 0 0 0 0-2.924Zm0-12.912c-.808 0-1.463.655-1.463 1.463v6.726a1.462 1.462 0 1 0 2.924 0v-6.726c0-.808-.655-1.462-1.461-1.462Z" fill="#fff"/></svg>