<svg width="80" height="80" fill="none" xmlns="http://www.w3.org/2000/svg"><rect width="80" height="80" rx="40" fill="#F9F9F9"/><g clip-path="url(#a)"><path d="M33 28h-7.5v.015A2.985 2.985 0 0 0 28.485 31h2.4L18 43.879v4.242l15-15v2.4a2.985 2.985 0 0 0 2.985 2.979H36V31a3 3 0 0 0-3-3Z" fill="#FF444F"/><path d="M14.121 52H12v-3h5.121L15 51.121l-.879.879Z" fill="#414652"/></g><g clip-path="url(#b)"><path d="M67.985 41.5A2.985 2.985 0 0 0 65 44.485v2.4l-15-15v4.236L62.879 49h-2.4a2.985 2.985 0 0 0-2.979 2.985V52H65a3 3 0 0 0 3-3v-7.5h-.015Z" fill="#FF444F"/><path d="M44 31v-3h2.121l.879.879L49.121 31H44Z" fill="#414652"/></g><defs><clipPath id="a"><path fill="#fff" transform="translate(12 28)" d="M0 0h24v24H0z"/></clipPath><clipPath id="b"><path fill="#fff" transform="translate(44 28)" d="M0 0h24v24H0z"/></clipPath></defs></svg>