<svg width="49" height="48" fill="none" xmlns="http://www.w3.org/2000/svg"><path d="M6.334 24c-1.1 0-2-.9-2-2s.9-2 2-2h2m18 10h7c.55 0 1 .45 1 1v6c0 .55-.45 1-1 1h-7c-1.1 0-2-.9-2-2v-4c0-1.1.9-2 2-2Z" stroke="#fff" stroke-width="2" stroke-linecap="round" stroke-linejoin="round"/><path d="M34.334 37v5c0 1.1-.9 2-2 2h-26c-1.1 0-2-.9-2-2V22" stroke="#fff" stroke-width="2" stroke-linecap="round" stroke-linejoin="round"/><path d="M6.334 24h26c1.1 0 2 .9 2 2v5m-13-15h-5c-.55 0-1 .45-1 1v2c0 .55.45 1 1 1h4c.55 0 1 .45 1 1v2c0 .55-.45 1-1 1h-5m3-8v-2" stroke="#fff" stroke-width="2" stroke-linecap="round" stroke-linejoin="round"/><path d="M27.504 24c.54-1.23.83-2.58.83-4 0-5.52-4.48-10-10-10s-10 4.48-10 10c0 1.36.27 2.66.77 3.85M29.334 20h1c1.1 0 2 .9 2 2v2" stroke="#fff" stroke-width="2" stroke-linecap="round" stroke-linejoin="round"/><path d="M29.334 33c-.55 0-1 .45-1 1s.45 1 1 1 1-.45 1-1-.45-1-1-1Z" fill="#fff"/><path d="m31.334 13 .27-.27 1.73-1.73 2 2 8-8h-2m2 0v2" stroke="#fff" stroke-width="2" stroke-linecap="round" stroke-linejoin="round"/></svg>