<svg width="72" height="96" fill="none" xmlns="http://www.w3.org/2000/svg"><path d="M68.494 23.494 48.525 3.525A12.01 12.01 0 0 0 40.031 0H12C5.372 0 0 5.374 0 12l.001 72c0 6.626 5.372 12 12 12H60c6.628 0 12-5.374 12-12V31.969a11.96 11.96 0 0 0-3.506-8.475ZM42 6.39c.84.293 1.625.72 2.273 1.368L64.24 27.727c.653.642 1.084 1.43 1.365 2.273H45c-1.65 0-3-1.35-3-3V6.39ZM66 84c0 3.308-2.693 6-6 6H12c-3.307 0-6-2.692-6-6V12c0-3.307 2.693-6 6-6h24v21c0 4.969 4.031 9 9 9h21v48ZM15 57c0 9.926 8.074 18 18 18 3.881 0 7.455-1.263 10.399-3.36l11.48 11.48A3.01 3.01 0 0 0 57 84a2.998 2.998 0 0 0 2.12-5.12L47.64 67.4C49.744 64.461 51 60.88 51 57c0-9.926-8.074-18-18-18s-18 8.081-18 18Zm30 0c0 6.615-5.385 12-12 12s-12-5.385-12-12 5.385-12 12-12 12 5.381 12 12Z" fill="#414652" fill-opacity=".5"/></svg>