<svg width="25" height="24" fill="none" xmlns="http://www.w3.org/2000/svg"><path d="M14.095 8.06v.5-.5Zm0 3.44a.5.5 0 1 0 0 1v-1Zm.655 3.94a.5.5 0 0 0 0 1v-1ZM10.5 8.06v-.5.5Zm4.25 8.375a.5.5 0 0 0 0-1v1ZM9.5 11.5a.5.5 0 0 0 0 1v-1Zm1.47-3.44a.5.5 0 0 0 1 0h-1Zm1-2.06a.5.5 0 1 0-1 0h1Zm2.625 0a.5.5 0 1 0-1 0h1ZM10.97 18a.5.5 0 1 0 1 0h-1Zm1-2.06a.5.5 0 1 0-1 0h1ZM13.595 18a.5.5 0 1 0 1 0h-1Zm1-2.06a.5.5 0 1 0-1 0h1Zm-.5-7.38c.81 0 1.47.657 1.47 1.47h1a2.47 2.47 0 0 0-2.47-2.47v1Zm1.47 1.47c0 .814-.656 1.47-1.47 1.47v1a2.467 2.467 0 0 0 2.47-2.47h-1Zm-.815 2.47c.81 0 1.47.657 1.47 1.47h1a2.47 2.47 0 0 0-2.47-2.47v1Zm1.47 1.47c0 .814-.656 1.47-1.47 1.47v1a2.467 2.467 0 0 0 2.47-2.47h-1Zm-2.125-6.41H10.5v1h3.595v-1Zm-3.595 0c-.826 0-1.5.674-1.5 1.5h1c0-.274.226-.5.5-.5v-1ZM9 9.06v5.875h1V9.06H9Zm0 5.875c0 .826.674 1.5 1.5 1.5v-1a.503.503 0 0 1-.5-.5H9Zm1.5 1.5h4.25v-1H10.5v1Zm4.25-4.935H9.5v1h5.25v-1Zm-2.78-3.44V6h-1v2.06h1Zm2.625 0V6h-1v2.06h1ZM11.97 18v-2.06h-1V18h1Zm2.625 0v-2.06h-1V18h1Zm7.905-6c0 5.523-4.477 10-10 10v1c6.075 0 11-4.925 11-11h-1Zm-10 10c-5.523 0-10-4.477-10-10h-1c0 6.075 4.925 11 11 11v-1Zm-10-10c0-5.523 4.477-10 10-10V1c-6.075 0-11 4.925-11 11h1Zm10-10c5.523 0 10 4.477 10 10h1c0-6.075-4.925-11-11-11v1Z" fill="#FF444F"/></svg>