<svg width="25" height="24" fill="none" xmlns="http://www.w3.org/2000/svg"><path clip-rule="evenodd" d="M13.3 4.687H6.01a2 2 0 0 0-2 2v12.44c0 .55.45 1 1 1H6.1c.55 0 1-.45 1-1v-5.175h3.115c.55 0 1-.45 1-1v-1.09c0-.55-.45-1-1-1H7.1v-3.09h6.205c.55 0 1-.45 1-1v-1.09c0-.55-.45-1-1-1l-.005.005Zm1.095 15.44h1.31c.375 0 .715-.21.885-.54l.495-.955.495.955a1 1 0 0 0 .885.54h1.31a.997.997 0 0 0 .885-1.46l-1.8-3.465 2.03-3.905a.999.999 0 0 0-.885-1.46h-1.31a.995.995 0 0 0-.885.54l-.725 1.395-.725-1.395a1 1 0 0 0-.885-.54h-1.31a.997.997 0 0 0-.885 1.46l2.03 3.905-1.8 3.465a.999.999 0 0 0 .885 1.46Z" stroke="#FF444F" stroke-linecap="round" stroke-linejoin="round"/></svg>