<svg width="24" height="24" fill="none" xmlns="http://www.w3.org/2000/svg"><g clip-path="url(#a)" stroke="#FF444F" stroke-miterlimit="10"><path d="M12 21.367a9 9 0 1 0 0-18 9 9 0 0 0 0 18Z"/><path d="M19.2 17.767c-1.64-.85-4.26-1.4-7.2-1.4-2.94 0-5.56.55-7.2 1.4m0-10.8c1.64.85 4.26 1.4 7.2 1.4 2.94 0 5.56-.55 7.2-1.4"/><path d="M12 21.367c1.867 0 3.38-4.03 3.38-9s-1.513-9-3.38-9-3.38 4.03-3.38 9 1.513 9 3.38 9Zm9-9H3"/></g><defs><clipPath id="a"><path fill="#fff" d="M0 0h24v24H0z"/></clipPath></defs></svg>