<svg width="32" height="32" fill="none" xmlns="http://www.w3.org/2000/svg"><path fill-rule="evenodd" clip-rule="evenodd" d="M23 4.667a3 3 0 1 0 0 6 3 3 0 0 0 0-6Zm-4.333 3a4.333 4.333 0 1 1 8.666 0 4.333 4.333 0 0 1-8.666 0Z" fill="#414652"/><path fill-rule="evenodd" clip-rule="evenodd" d="M24.318 6.915c.26.26.26.683 0 .943l-1.127 1.127a.667.667 0 0 1-.942 0l-.567-.567a.667.667 0 0 1 .943-.943l.095.096.655-.656c.26-.26.683-.26.943 0ZM6 6a.67.67 0 0 0-.667.667v2A.67.67 0 0 0 6 9.334h14.173a.667.667 0 1 1 0 1.334H6c-1.102 0-2-.899-2-2v-2c0-1.102.898-2 2-2h14.173a.667.667 0 1 1 0 1.333H6Zm11.667 7.335a3 3 0 1 0 0 6 3 3 0 0 0 0-6Zm-4.334 3a4.333 4.333 0 1 1 8.667 0 4.333 4.333 0 0 1-8.667 0Z" fill="#414652"/><path fill-rule="evenodd" clip-rule="evenodd" d="M18.985 15.583c.26.26.26.683 0 .943l-1.127 1.127a.667.667 0 0 1-.943 0l-.566-.567a.667.667 0 0 1 .942-.943l.096.096.655-.656c.26-.26.682-.26.943 0ZM6 14.667a.67.67 0 0 0-.667.667v2A.67.67 0 0 0 6 18h8.84a.667.667 0 1 1 0 1.334H6c-1.101 0-2-.899-2-2v-2c0-1.102.899-2 2-2h8.84a.667.667 0 0 1 0 1.333H6ZM12.333 22a3 3 0 1 0 0 6 3 3 0 0 0 0-6ZM8 25a4.333 4.333 0 1 1 8.667 0A4.333 4.333 0 0 1 8 25Z" fill="#414652"/><path fill-rule="evenodd" clip-rule="evenodd" d="M13.652 24.25c.26.26.26.682 0 .942l-1.127 1.127a.666.666 0 0 1-.943 0l-.567-.567a.667.667 0 0 1 .943-.942l.095.095.656-.655c.26-.26.682-.26.943 0ZM6 23.335a.67.67 0 0 0-.667.666v2a.67.67 0 0 0 .667.667h3.507a.667.667 0 0 1 0 1.334H6c-1.101 0-2-.899-2-2v-2c0-1.102.899-2 2-2h3.507a.667.667 0 1 1 0 1.333H6Zm19.384 2.412a.667.667 0 0 1 .616-.412h2a.667.667 0 0 1 0 1.334h-.39l.861.862a.667.667 0 1 1-.943.943l-2-2a.667.667 0 0 1-.144-.727Z" fill="#414652"/><path fill-rule="evenodd" clip-rule="evenodd" d="M26 25.335c.368 0 .666.299.666.667v2a.667.667 0 0 1-1.333 0v-2c0-.368.299-.667.667-.667Zm0-3.333c.368 0 .667.298.667.666v.667a.667.667 0 0 1-1.334 0v-.667c0-.368.299-.666.667-.666Zm-3.138.861c.26-.26.682-.26.943 0l.666.666a.667.667 0 1 1-.942.943l-.667-.666a.667.667 0 0 1 0-.943ZM22 26.002c0-.368.298-.667.667-.667h.666a.667.667 0 0 1 0 1.334h-.666a.667.667 0 0 1-.667-.667Z" fill="#414652"/><path fill-rule="evenodd" clip-rule="evenodd" d="M19.333 26A6.667 6.667 0 0 1 26 19.334a.667.667 0 0 1 0 1.333A5.334 5.334 0 0 0 20.666 26a.667.667 0 0 1-1.333 0Z" fill="#414652"/></svg>