<svg width="67" height="66" fill="none" xmlns="http://www.w3.org/2000/svg"><path opacity=".01" fill="#fff" stroke="#979797" stroke-width="2" d="M1.33 1h64v64h-64z"/><path fill-rule="evenodd" clip-rule="evenodd" d="M22.272 12.754 1.33 21.917v17.169c0 9.233 5.332 17.734 13.913 22.183l7.03 3.644 7.029-3.644c8.58-4.449 13.912-12.95 13.912-22.183v-17.17l-20.942-9.162Z" fill="#85ACAF"/><path fill-rule="evenodd" clip-rule="evenodd" d="M34.856 43.474h-2.104v3.023h-2.8v-3.023h-7.231v-2.506L29.1 30.87h3.65v8.187h-2.798v-5.321h-.056L25.24 41.19h9.616v2.284Zm-13.883 3.023H9.959v-2.731l5.014-4.276c.837-.718 1.456-1.37 1.858-1.96.404-.589.606-1.22.606-1.891v-.225c0-.745-.21-1.312-.627-1.702-.419-.387-1-.58-1.747-.58-.82 0-1.447.223-1.881.67a3.93 3.93 0 0 0-.94 1.657l-2.553-.963c.164-.507.4-.995.706-1.465.305-.47.687-.884 1.141-1.242.456-.36.998-.647 1.625-.864.627-.215 1.341-.324 2.15-.324.835 0 1.578.115 2.226.348.65.23 1.199.55 1.645.962.448.41.788.899 1.02 1.466.23.568.347 1.187.347 1.858 0 .643-.1 1.232-.303 1.769a6.227 6.227 0 0 1-.84 1.533 9.865 9.865 0 0 1-1.263 1.4 26.78 26.78 0 0 1-1.578 1.343l-3.404 2.755h7.812v2.462Z" fill="#fff"/><path fill-rule="evenodd" clip-rule="evenodd" d="M64.025 33.672H59.2c0-14.635-11.907-26.54-26.542-26.54V2.306c17.296 0 31.367 14.07 31.367 31.366Z" fill="#FF444F" style="mix-blend-mode:multiply"/><path fill-rule="evenodd" clip-rule="evenodd" d="M54.967 33.672h-4.825c0-9.64-7.845-17.485-17.484-17.485v-4.825c12.303 0 22.309 10.01 22.309 22.31Z" fill="#FF444F" style="mix-blend-mode:multiply"/><path fill-rule="evenodd" clip-rule="evenodd" d="M45.436 33.672h-4.825c0-4.386-3.568-7.953-7.953-7.953v-4.826c7.044 0 12.778 5.733 12.778 12.78Z" fill="#FF444F" style="mix-blend-mode:multiply"/></svg>