<svg xmlns="http://www.w3.org/2000/svg" width="32" height="33"><g fill="none" fill-rule="evenodd" transform="translate(0 5)"><g fill-rule="nonzero"><path fill="#FFF" d="M0 8h24v6a2 2 0 0 1-2 2H2a2 2 0 0 1-2-2V8z"/><path fill="#E12237" d="M2 0h20a2 2 0 0 1 2 2v6H0V2a2 2 0 0 1 2-2z"/><path fill="#FFF" d="M4.625 2c.62 0 1.19.205 1.639.547a2.29 2.29 0 0 0-.764-.13c-1.208 0-2.187.932-2.187 2.083 0 1.15.979 2.083 2.187 2.083.269 0 .526-.046.764-.13-.45.342-1.02.547-1.639.547C3.175 7 2 5.88 2 4.5S3.175 2 4.625 2zm1.313 3.333c.241 0 .437.187.437.417 0 .23-.196.417-.437.417A.428.428 0 0 1 5.5 5.75c0-.23.196-.417.438-.417zm1.75 0c.241 0 .437.187.437.417 0 .23-.196.417-.437.417a.428.428 0 0 1-.438-.417c0-.23.196-.417.438-.417zM5.063 3.667c.241 0 .437.186.437.416 0 .23-.196.417-.437.417a.428.428 0 0 1-.438-.417c0-.23.196-.416.438-.416zm3.5 0c.241 0 .437.186.437.416 0 .23-.196.417-.437.417a.428.428 0 0 1-.438-.417c0-.23.196-.416.438-.416zm-1.75-1.25c.241 0 .437.186.437.416 0 .23-.196.417-.437.417a.428.428 0 0 1-.438-.417c0-.23.196-.416.438-.416z"/><rect width="23" height="15" x=".5" y=".5" stroke="#000" stroke-opacity=".04" rx="1"/></g><rect width="23" height="15" x=".5" y=".5" stroke="#000" stroke-opacity=".04" rx="2"/><g fill-rule="nonzero" transform="translate(8 8)"><path fill="#FFF" d="M22.203.013H1.797C.805.013 0 .831 0 1.84v12.322c0 1.008.805 1.826 1.797 1.826h20.406c.992 0 1.797-.818 1.797-1.826V1.839C24 .831 23.195.013 22.203.013z"/><ellipse cx="12" cy="8" fill="#ED293F" rx="4.552" ry="4.624"/><rect width="23" height="15" x=".5" y=".5" stroke="#000" stroke-opacity=".04" rx="1"/></g><rect width="23" height="15" x="8.5" y="8.5" stroke="#000" stroke-opacity=".04" rx="2"/></g></svg>