<svg width="24" height="24" fill="none" xmlns="http://www.w3.org/2000/svg"><path d="M11.817 7.154c.788 0 1.776-.55 2.364-1.282.533-.663.922-1.59.922-2.517 0-.126-.011-.252-.033-.355-.877.034-1.932.606-2.565 1.373-.5.584-.955 1.5-.955 2.438 0 .137.023.274.034.32.055.011.144.023.233.023ZM9.04 21c1.077 0 1.555-.744 2.898-.744 1.366 0 1.665.721 2.864.721 1.177 0 1.965-1.121 2.71-2.22.832-1.259 1.176-2.494 1.198-2.552-.078-.022-2.331-.972-2.331-3.639 0-2.311 1.776-3.352 1.876-3.433-1.177-1.739-2.964-1.785-3.453-1.785-1.32 0-2.398.824-3.075.824-.733 0-1.699-.778-2.842-.778C6.71 7.394 4.5 9.248 4.5 12.75c0 2.175.821 4.475 1.831 5.962C7.198 19.971 7.953 21 9.042 21Z" fill="#fff"/></svg>