<svg width="48" height="48" fill="none" xmlns="http://www.w3.org/2000/svg"><path d="M34.13 21.7c.28.76 1.02 1.3 1.87 1.3 1.1 0 2-.9 2-2s-.9-2-2-2-2 .9-2 2c0 .25.04.48.13.7ZM13 35a2 2 0 1 0 0-4 2 2 0 0 0 0 4Z" stroke="#fff" stroke-width="2" stroke-linecap="round" stroke-linejoin="round"/><path d="M11.25 32.03C9.17 31.02 7.08 30.01 5 29m29.23-7.07c-6.49 3.38-12.97 6.76-19.46 10.14M43 24c-1.71-.77-3.42-1.53-5.13-2.3" stroke="#fff" stroke-width="2" stroke-linecap="round" stroke-linejoin="round"/><path clip-rule="evenodd" d="M19 3H9c-1.1 0-2 .9-2 2v16c0 1.1.9 2 2 2h3.46L16 26.54V23h3c1.1 0 2-.9 2-2V5c0-1.1-.9-2-2-2Z" stroke="#fff" stroke-width="2" stroke-linecap="round" stroke-linejoin="round"/><path d="M17 9h-5c-.55 0-1 .45-1 1v2c0 .55.45 1 1 1h4c.55 0 1 .45 1 1v2c0 .55-.45 1-1 1h-5m3-8V7m0 10v2m-.54 20v1c0 1.1.9 2 2 2H23l3.54 3v-3H34c1.1 0 2-.9 2-2V27" stroke="#fff" stroke-width="2" stroke-linecap="round" stroke-linejoin="round"/></svg>