<svg width="44" height="44" fill="none" xmlns="http://www.w3.org/2000/svg"><path d="M5 26v-4c0-6.08 4.92-11 11-11h5c6.08 0 11 4.92 11 11v4" stroke="#fff" stroke-width="2" stroke-linecap="round" stroke-linejoin="round"/><path clip-rule="evenodd" d="M32 24v9h2c1.1 0 2-.9 2-2v-5c0-1.1-.9-2-2-2h-2ZM1 26v5c0 1.1.9 2 2 2h2v-9H3c-1.1 0-2 .9-2 2Z" stroke="#fff" stroke-width="2" stroke-linecap="round" stroke-linejoin="round"/><path d="M37.5 2C39.98 2 42 4.02 42 6.5S39.98 11 37.5 11 33 8.98 33 6.5 35.02 2 37.5 2Zm0-2a6.5 6.5 0 1 0 0 13 6.5 6.5 0 0 0 0-13Z" fill="#fff"/><path d="m36 7 1 1 2-2M5 33v1c0 2.21 1.79 4 4 4h11" stroke="#fff" stroke-width="2" stroke-linecap="round" stroke-linejoin="round"/><path d="M9 34V22c0-3.87 3.13-7 7-7h5c3.87 0 7 3.13 7 7v13c0 4.42-3.58 8-8 8h-3c-1.46 0-2.82-.39-4-1.07" stroke="#fff" stroke-width="2" stroke-linecap="round" stroke-linejoin="round"/><path d="M9 22c4.17 1.96 9.59 3.75 16 4 1.03.04 2.03.04 3 0" stroke="#fff" stroke-width="2" stroke-linecap="round" stroke-linejoin="round"/></svg>