<svg width="49" height="49" fill="none" xmlns="http://www.w3.org/2000/svg"><path opacity=".01" fill="#fff" stroke="#979797" d="M0 0h48v48H0z"/><path fill-rule="evenodd" clip-rule="evenodd" d="M44.49 36.47V12.086C44.49 9.83 42.752 8 40.608 8H7.643C5.5 8 3.761 9.83 3.761 12.086V19.6h10.24a4 4 0 0 1 4 4v10.371h23.63v1.459H27.04v1.25h-6.08v-1.25H18v4.608h27.956A2.043 2.043 0 0 0 48 37.995v-1.526h-3.51Z" fill="#85ACAF"/><path fill-rule="evenodd" clip-rule="evenodd" d="M8 45.102a1.5 1.5 0 1 1 .001-3.002A1.5 1.5 0 0 1 8 45.102Zm5.385-23.665H2.615A2.615 2.615 0 0 0 0 24.05v21.334a2.615 2.615 0 0 0 2.615 2.614h10.77A2.615 2.615 0 0 0 16 45.386V24.052a2.615 2.615 0 0 0-2.615-2.616Z" fill="#85ACAF"/><path fill-rule="evenodd" clip-rule="evenodd" d="M24 4v16a4 4 0 0 0 4 4h16a4 4 0 0 0 4-4V4a4 4 0 0 0-4-4H28a4 4 0 0 0-4 4Z" fill="#FF444F" style="mix-blend-mode:multiply"/><path fill-rule="evenodd" clip-rule="evenodd" d="M29.53 17.139a1.097 1.097 0 1 0 0 2.193 1.097 1.097 0 0 0 0-2.193Zm0-10.195c-.606 0-1.097.49-1.097 1.097v5.556a1.097 1.097 0 1 0 2.193 0V8.04c0-.606-.49-1.097-1.097-1.097Zm4.314 10.195a1.098 1.098 0 1 0-.001 2.19 1.098 1.098 0 0 0 0-2.19Zm0-13.023c-.606 0-1.098.491-1.098 1.097v8.383a1.098 1.098 0 0 0 2.194 0V5.213c0-.606-.491-1.097-1.096-1.097Zm4.312 13.023a1.097 1.097 0 1 0 .002 2.193 1.097 1.097 0 0 0-.002-2.193Zm0-7.453c-.605 0-1.096.49-1.096 1.097v2.814a1.097 1.097 0 1 0 2.194 0v-2.814c0-.606-.492-1.097-1.098-1.097Zm4.314 7.453a1.097 1.097 0 1 0 0 2.193 1.097 1.097 0 0 0 0-2.193Zm0-9.683c-.605 0-1.096.49-1.096 1.097v5.044a1.097 1.097 0 1 0 2.193 0V8.553c0-.606-.491-1.097-1.096-1.097Z" fill="#fff"/></svg>