<svg width="24" height="16" fill="none" xmlns="http://www.w3.org/2000/svg"><path d="M0 11h24v3a2 2 0 0 1-2 2H2a2 2 0 0 1-2-2v-3Z" fill="#072CB4"/><path d="M2 0h20a2 2 0 0 1 2 2v3H0V2a2 2 0 0 1 2-2Z" fill="#F44E46"/><mask id="a" style="mask-type:alpha" maskUnits="userSpaceOnUse" x="0" y="0" width="24" height="16"><path d="M22 0H2a2 2 0 0 0-2 2v12a2 2 0 0 0 2 2h20a2 2 0 0 0 2-2V2a2 2 0 0 0-2-2Z" fill="#fff"/></mask><g mask="url(#a)"><path d="M8.167 5.5H24.5v5H8.167L-.5 17V-1l8.667 6.5Z" fill="#06A86E" stroke="#fff"/></g><mask id="b" style="mask-type:alpha" maskUnits="userSpaceOnUse" x="0" y="0" width="24" height="16"><path d="M22 0H2a2 2 0 0 0-2 2v12a2 2 0 0 0 2 2h20a2 2 0 0 0 2-2V2a2 2 0 0 0-2-2Z" fill="#fff"/></mask><g mask="url(#b)"><path d="M-1.5 2.96 4.8 8l-6.3 5.04V2.96Z" fill="#262626" stroke="#FFBF2E"/></g><path fill-rule="evenodd" clip-rule="evenodd" d="M22 1H2a1 1 0 0 0-1 1v12a1 1 0 0 0 1 1h20a1 1 0 0 0 1-1V2a1 1 0 0 0-1-1ZM2 0a2 2 0 0 0-2 2v12a2 2 0 0 0 2 2h20a2 2 0 0 0 2-2V2a2 2 0 0 0-2-2H2Z" fill="#000" fill-opacity=".04"/></svg>