<svg width="24" height="16" fill="none" xmlns="http://www.w3.org/2000/svg"><g clip-path="url(#a)"><mask id="b" style="mask-type:alpha" maskUnits="userSpaceOnUse" x="0" y="0" width="24" height="16"><path d="M21.714 0H2.286C1.023 0 0 .955 0 2.133v11.734C0 15.045 1.023 16 2.286 16h19.428C22.977 16 24 15.045 24 13.867V2.133C24 .955 22.977 0 21.714 0Z" fill="#fff"/></mask><g mask="url(#b)"><path d="M21.714 0H2.286C1.023 0 0 .955 0 2.133v11.734C0 15.045 1.023 16 2.286 16h19.428C22.977 16 24 15.045 24 13.867V2.133C24 .955 22.977 0 21.714 0Z" fill="#FFBF00"/><path fill-rule="evenodd" clip-rule="evenodd" d="M2.286 2.133h3.429v11.734H2.286V2.133Z" fill="#00614A"/><path fill-rule="evenodd" clip-rule="evenodd" d="M5.715 2.133h3.428v11.734H5.715V2.133Z" fill="#F60"/><path fill-rule="evenodd" clip-rule="evenodd" d="M10.286 2.133h11.429v11.734H10.286V2.133Z" fill="#98232E"/><path fill-rule="evenodd" clip-rule="evenodd" d="m14.326 11.323.066-.047.028.047c.037.064.141.062.21 0l.054-.05.045.048c.057.064.165.064.233 0 .05-.045.058-.046.09-.01a.268.268 0 0 0 .123.05c.09.015.091.013.143-.084.046-.08.051-.113.041-.192a2.667 2.667 0 0 1-.017-.186c-.002-.092-.002-.093.105-.139.057-.025.126-.06.152-.077a.7.7 0 0 0 .16-.234c0-.009-.046-.022-.103-.03-.223-.032-.26-.182-.114-.459.236-.45.38-.89.38-1.171 0-.125.006-.168.02-.139.052.11-.042.576-.186.912l-.058.136.055-.016c.03-.011.21-.104.397-.21.514-.287.691-.345 1.025-.328.279.015.398.082.594.34.105.135.206.232.389.375.393.305.409.33.427.689.02.363.012.384-.211.444-.189.05-.309.16-.34.312-.016.082.02.085.115.009l.068-.056.032.056c.041.074.128.074.2 0l.054-.054.055.054c.087.085.202.066.234-.043.006-.02.023-.013.057.023.063.069.224.099.243.043.006-.02-.007-.07-.029-.11-.094-.176-.123-.26-.126-.355 0-.132.031-.196.153-.305.149-.131.195-.299.083-.299-.069 0-.14-.078-.183-.202-.092-.251-.074-.534.062-1.003.137-.48.153-.565.154-.885 0-.26-.004-.304-.052-.446a1.757 1.757 0 0 0-.13-.286l-.076-.128.099-.105c.305-.313.243-.827-.126-1.024-.11-.061-.14-.067-.336-.064-.119 0-.297.02-.4.043a2.39 2.39 0 0 1-.402.04c-.192 0-.224-.004-.297-.053-.078-.051-.092-.074-.106-.192-.003-.025-.016-.049-.03-.053-.026-.01-.149.117-.165.177-.009.028-.017.026-.042-.01a.595.595 0 0 1-.054-.13c-.03-.116.007-.204.115-.268l.085-.049-.048-.038c-.103-.079-.277-.026-.34.107-.019.035-.038.066-.044.066a.412.412 0 0 1-.075-.078c-.133-.16-.087-.399.091-.473.094-.038.177-.008.195.07.026.12.11-.038.094-.18-.011-.093-.011-.098.043-.098.073 0 .228.12.277.214a.475.475 0 0 1-.011.403l-.046.1.062-.016a.384.384 0 0 0 .229-.181.514.514 0 0 0 .011-.367c-.042-.093-.038-.107.023-.075.105.054.16.111.202.214.039.09.041.113.02.208a.621.621 0 0 1-.061.17c-.034.057-.034.066-.008.066a.34.34 0 0 0 .19-.106.547.547 0 0 0 .061-.137l.027-.09.03.069a.521.521 0 0 0 .23.239c.11.06.156.064.099.008-.04-.037-.111-.298-.09-.323.012-.015.163.128.332.318.162.181.263.239.411.239.191 0 .3-.205.217-.398-.051-.113-.162-.128-.226-.032-.03.045-.038.08-.03.126.012.058.007.064-.034.064-.057 0-.164-.085-.356-.286-.294-.304-.652-.562-.909-.656a1.592 1.592 0 0 0-.686-.047c-.183.04-.4.17-.516.31-.208.245-.21.57-.008.868l.057.085-.039.075a.396.396 0 0 0 .011.368.32.32 0 0 0 .064.087c.007 0 .014-.032.016-.07.006-.095.04-.16.096-.184.05-.023.084-.012.318.103.246.122.65.13 1.079.021.211-.051.46-.048.57.009.2.104.246.375.099.581-.064.087-.126.124-.332.194-.158.053-.194.058-.552.053-.305-.004-.415.004-.54.036-.134.035-.216.038-.614.026l-.46-.015.052.054a.887.887 0 0 0 .088.078c.034.023.034.026-.018.05a.417.417 0 0 1-.149.025h-.095l-.011.1a.483.483 0 0 0 0 .142c.011.036.008.04-.023.027a.735.735 0 0 0-.121-.04.64.64 0 0 1-.143-.056c-.053-.032-.057-.032-.078.01a.743.743 0 0 1-.2.186.193.193 0 0 1-.011-.064.839.839 0 0 0-.05-.2 5.395 5.395 0 0 1-.06-.184c-.011-.038-.015-.04-.029-.01a.614.614 0 0 0-.027.114.581.581 0 0 1-.053.16l-.04.079-.027-.069c-.027-.072-.074-.149-.091-.149-.006 0-.016.025-.023.053-.012.06-.123.224-.149.224-.011 0-.02-.046-.02-.103 0-.058-.007-.103-.019-.103-.009 0-.018.013-.018.032 0 .042-.095.173-.126.173-.015 0-.036.015-.05.035-.034.049-.063.042-.05-.011a.31.31 0 0 0-.008-.133l-.031-.112c-.005-.018-.038-.013-.11.016-.116.045-.155.038-.096-.022a.42.42 0 0 0 .074-.162c.019-.068.046-.128.062-.135.02-.007.02.003-.006.044a.24.24 0 0 0-.032.09c0 .02-.014.064-.03.101-.016.039-.027.072-.023.075.004.005.048-.015.098-.045l.091-.053v.048c0 .027.012.096.023.156l.025.106.062-.035c.063-.036.124-.165.124-.264 0-.052.022-.043.032.01l.032.128.027.1.042-.064a.622.622 0 0 0 .067-.152c.022-.083.054-.12.054-.059 0 .045.099.203.117.19a.414.414 0 0 0 .04-.132c.027-.139.07-.233.1-.213.01.008.013.02.007.032a.845.845 0 0 0 .05.2c.035.1.07.2.075.222.011.037.023.032.094-.046a.466.466 0 0 0 .089-.12c.007-.025.017-.024.057.007.057.045.251.117.266.098a.531.531 0 0 0 .012-.139l.003-.127.057.013a.401.401 0 0 0 .143 0l.087-.016-.077-.066a.486.486 0 0 1-.096-.104c-.011-.022-.05-.043-.091-.046-.118-.013-.325-.157-.325-.224 0-.014.029.007.064.048a.4.4 0 0 0 .28.143h.07l-.043-.07a.498.498 0 0 1-.054-.185c-.008-.102-.017-.118-.103-.192a1.092 1.092 0 0 1-.143-.15l-.048-.067-.025.08c-.014.045-.03.08-.036.08-.007 0-.035-.025-.058-.056a.272.272 0 0 0-.057-.058c-.008 0-.03.043-.051.096l-.038.093-.03-.053a.712.712 0 0 0-.085-.118c-.031-.036-.048-.064-.037-.064.012 0 .05.037.086.08l.065.081.026-.06a.265.265 0 0 0 .014-.132c-.011-.064-.01-.066.011-.026a.47.47 0 0 0 .084.106l.062.064.042-.096c.042-.096.043-.096.062-.04.026.077.211.266.369.375.023.017.013-.042-.031-.176a.55.55 0 0 1-.023-.142c0-.064-.014-.092-.08-.154-.094-.09-.123-.153-.142-.297a.447.447 0 0 0-.036-.144c-.02-.032-.023-.014-.017.094a.754.754 0 0 1-.019.203l-.023.068L16 6.269a.374.374 0 0 0-.097-.122c-.046-.035-.074-.07-.069-.078.006-.006.052.026.1.072.074.072.091.08.1.048.012-.037 0-.198-.022-.309-.012-.058-.012-.058.045.01a.448.448 0 0 1 .08.22c.023.136.035.16.135.267a.6.6 0 0 0 .117.113c.004-.004.011-.175.017-.378.011-.39 0-.483-.077-.603l-.039-.062.061-.082a.61.61 0 0 0 .133-.31l.013-.095-.068.082c-.057.066-.084.08-.149.08-.065 0-.091-.012-.134-.07a.56.56 0 0 0-.235-.17c-.034-.01-.046-.006-.046.022a.46.46 0 0 1-.04.13l-.04.094-.084-.104a.411.411 0 0 0-.16-.128c-.118-.039-.124-.036-.124.074 0 .163-.057.194-.16.086-.076-.086-.141-.103-.289-.083l-.114.016.023.064c.016.054.011.075-.025.136a.27.27 0 0 1-.256.14.357.357 0 0 0-.154.033.525.525 0 0 1-.16.042.793.793 0 0 0-.14.03c-.028.012-.031.001-.023-.078.015-.121-.053-.21-.16-.21-.137 0-.2.153-.146.354.011.039.023.1.03.136a.845.845 0 0 0 .146.231c.073.092.141.187.153.212a.279.279 0 0 0 .083.087l.063.043-.008-.082c-.009-.092.007-.107.046-.043.015.024.05.062.08.085.046.034.054.035.054.004 0-.02.009-.064.02-.1l.023-.064.034.088c.02.048.087.157.147.245.116.165.187.352.15.395-.014.018-.054.016-.137-.005a.623.623 0 0 0-.178-.018c-.069.01-.072 0-.03-.064.043-.067.036-.078-.05-.078-.1 0-.345-.06-.44-.106-.091-.043-.114-.032-.14.074l-.05.198-.026.106.1-.01a.823.823 0 0 0 .156-.034c.032-.011.06-.018.064-.014a.338.338 0 0 1-.03.094l-.04.085.063-.015a.506.506 0 0 0 .114-.047c.05-.03.054-.028.094.05.048.096.087.093.095-.01.01-.105.038-.089.091.05.05.135.103.182.112.103A.192.192 0 0 1 14.663 7c.06-.053.106-.036.131.047.029.085-.032.175-.205.307-.355.265-.558.627-.617 1.088-.053.416.112.847.442 1.156.158.15.409.304.393.246-.066-.254-.064-.736.005-.818.011-.013.006.037-.008.11-.055.276-.031.495.11 1.008.126.465.11.663-.07.793-.058.043-.096.05-.252.047-.169-.002-.187.002-.242.056a.617.617 0 0 0-.12.303c0 .042.038.037.114-.018l-.018-.002Zm-1.28-.853a.228.228 0 0 0 .032-.101c0-.04.015-.052.088-.064l.088-.015-.057-.059c-.071-.068-.078-.122-.016-.122.06 0 .164-.079.18-.138a.109.109 0 0 0-.009-.081c-.034-.048-.1-.04-.11.012-.014.058-.035.06-.084 0-.073-.085-.076-.264-.004-.369.032-.049.032-.053-.011-.102-.046-.055-.08-.163-.057-.189.007-.007.043 0 .08.015.055.021.076.024.098 0 .069-.064-.006-.15-.114-.13-.042.007-.06 0-.066-.028-.005-.021-.043-.05-.086-.064-.076-.023-.077-.021-.077.043 0 .071-.034.085-.095.04-.051-.038-.1-.01-.1.058 0 .062.051.093.142.085.068-.005.072.06.005.152l-.048.067.038.067c.057.1.051.265-.011.347l-.046.064-.032-.051c-.044-.072-.103-.066-.12.01-.012.05 0 .073.049.126.034.036.083.064.11.064.066 0 .064.064-.005.13l-.054.052.085.016c.046.008.082.025.082.037 0 .043.057.18.077.18.011 0 .034-.022.049-.051l-.001-.001Zm.289-2.315c.19-.103.206-.367.027-.437-.074-.028-.12-.01-.148.05-.023.048-.008.135.023.135.009 0 .017.014.017.034 0 .091-.29.133-.407.058-.041-.026-.057-.094-.023-.094.023 0 .042-.07.03-.119-.018-.066-.073-.09-.151-.064-.177.058-.171.316.008.427.149.088.473.094.626.01h-.002Zm-.118-.202c.012-.011.007-.032-.011-.05-.04-.04-.038-.099.006-.166.034-.05.037-.125.049-.88.02-1.306.097-2.287.2-2.521.04-.094.034-.096-.071-.006-.137.115-.24.267-.332.48-.173.406-.234.952-.234 2.117 0 .66.005.746.034.81.03.058.031.08.012.143-.014.04-.02.08-.014.085.039.047.32.036.362-.013Z" fill="#FFB700"/><path fill-rule="evenodd" clip-rule="evenodd" d="M11.429 3.2h1.143v1.066h-1.143V3.2Zm8 0h1.143v1.066h-1.143V3.2Zm-8 8.533h1.143V12.8h-1.143v-1.067Zm8 0h1.143V12.8h-1.143v-1.067Z" fill="#DA8210"/><path d="M21.714.533H2.286C1.339.533.57 1.25.57 2.133v11.733c0 .884.768 1.6 1.715 1.6h19.428c.947 0 1.714-.716 1.714-1.6V2.133c0-.883-.767-1.6-1.714-1.6Z" stroke="#000" stroke-opacity=".1" stroke-width="1.076"/></g></g><defs><clipPath id="a"><path fill="#fff" d="M0 0h24v16H0z"/></clipPath></defs></svg>