<svg width="48" height="48" fill="none" xmlns="http://www.w3.org/2000/svg"><path d="M7 22c-1.1 0-2 .9-2 2v6c0 1.1.9 2 2 2m27.83-1.39c1.1 0 2-.9 2-2v-6c0-1.1-.9-2-2-2" stroke="#fff" stroke-width="2" stroke-linecap="round" stroke-linejoin="round"/><path d="M15.41 10h11c1.1 0 2 .9 2 2v8.83c0 1.25-.59 2.44-1.59 3.19l-2.85 2.15a.997.997 0 0 0 .02 1.61l2.75 1.97A3.99 3.99 0 0 1 28.41 33v8.99c0 1.1-.9 2-2 2h-11c-1.1 0-2-.9-2-2v-9.01c0-1.3.63-2.51 1.69-3.26l2.73-1.94c.55-.39.56-1.21.02-1.61L15 24.02c-1-.76-1.59-1.94-1.59-3.19V12c0-1.1.9-2 2-2v0Z" stroke="#fff" stroke-width="2" stroke-miterlimit="10" stroke-linecap="round"/><path d="m14.49 42.9 5-5.12c.78-.8 2.08-.8 2.86 0l5 5.12" stroke="#fff" stroke-width="2" stroke-linejoin="round"/><path d="M39.5 4C41.98 4 44 6.02 44 8.5S41.98 13 39.5 13 35 10.98 35 8.5 37.02 4 39.5 4Zm0-2a6.5 6.5 0 1 0 0 13 6.5 6.5 0 0 0 0-13Z" fill="#fff"/><path d="M39.5 10V7M41 8.5h-3" stroke="#fff" stroke-width="2" stroke-miterlimit="10" stroke-linecap="round"/></svg>