<svg width="32" height="32" fill="none" xmlns="http://www.w3.org/2000/svg"><path d="M0 16C0 7.163 7.163 0 16 0s16 7.163 16 16-7.163 16-16 16S0 24.837 0 16Z" fill="#00A7E0"/><path d="M10.633 10.154a.525.525 0 0 1 .154.37v5.535a.525.525 0 1 1-1.05 0v-5.534a.525.525 0 0 1 .896-.371ZM7.914 12.49a.525.525 0 0 0-1.042 0v2.534a.525.525 0 0 0 1.042 0V12.49Zm-3.023 1.07c.097.1.151.231.151.37v1.094a.525.525 0 0 1-1.042 0V13.93a.525.525 0 0 1 .525-.524c.138.001.27.058.366.156Zm10.942 5.768a3.523 3.523 0 0 0-.825-.127c-.42 0-.652.142-.652.337 0 .195.307.346.48.398l.292.097a1.253 1.253 0 0 1 .998 1.193c0 1.042-.923 1.395-1.733 1.395a6.06 6.06 0 0 1-1.132-.113v-.93c.322.095.655.148.99.158.525 0 .75-.158.75-.39 0-.233-.203-.338-.465-.413l-.225-.075c-.585-.187-1.072-.532-1.072-1.222s.577-1.305 1.552-1.305c.346.006.69.052 1.027.135l.015.862Z" fill="#fff"/><path fill-rule="evenodd" clip-rule="evenodd" d="M25.49 21.73c.237-.37.357-.801.347-1.24a2.145 2.145 0 0 0-2.205-2.151 2.205 2.205 0 1 0 1.859 3.39Zm-2.475-2.155c.183-.12.398-.182.617-.179a1.08 1.08 0 0 1 1.087 1.095 1.102 1.102 0 1 1-1.704-.916Z" fill="#fff"/><path d="M9.34 19.606a1.83 1.83 0 0 0-.886-.225 1.125 1.125 0 1 0 0 2.25c.31 0 .613-.078.885-.225v1.117a3.01 3.01 0 0 1-.96.15 2.159 2.159 0 1 1 0-4.312c.325.004.648.052.96.143v1.102Zm10.1-.225c.31 0 .614.076.885.225v-1.102a3.618 3.618 0 0 0-.96-.143 2.16 2.16 0 1 0 0 4.312c.326 0 .65-.05.96-.15v-1.117a1.867 1.867 0 0 1-.885.225 1.125 1.125 0 0 1 0-2.25Zm-8.654-.975h1.05v4.17h-1.05v-4.17Zm2.865-5.916a.525.525 0 0 0-1.042 0v2.534a.526.526 0 0 0 1.042 0V12.49Zm2.713 1.073a.518.518 0 0 1 .152.366v1.095a.518.518 0 0 1-1.035 0V13.93a.517.517 0 0 1 .883-.366Zm3.024-1.073a.525.525 0 0 0-1.043 0v2.534a.525.525 0 0 0 1.043 0V12.49Zm2.699-2.295a.524.524 0 0 1 .173.33v5.534a.525.525 0 1 1-1.043 0v-5.534a.525.525 0 0 1 .87-.33Zm3.045 2.295a.525.525 0 0 0-1.05 0v2.534a.525.525 0 0 0 1.05 0V12.49Zm2.844 1.22c.022.071.03.146.02.22v1.094a.526.526 0 0 1-1.042 0V13.93a.525.525 0 0 1 1.022-.219Zm-.58 8.318v.068h-.187v.48h-.075v-.48h-.188v-.068h.45Zm.158 0h-.12v.548h.075v-.45h.007l.158.45h.075l.165-.45v.45h.082v-.548h-.12l-.157.45-.165-.45Z" fill="#fff"/></svg>