<svg width="328" height="162" fill="none" xmlns="http://www.w3.org/2000/svg"><rect x="85.256" y=".256" width="157.487" height="161.487" rx="12.047" fill="url(#a)"/><path d="M109.767 19.395c.966 0 2.803-1.334 4.698-1.135 1.801.056 3.47.96 4.504 2.438a5.592 5.592 0 0 0-2.659 4.692 5.403 5.403 0 0 0 3.294 4.971 12.392 12.392 0 0 1-1.714 3.495 5.708 5.708 0 0 1-.068.103l-.139.205c-.949 1.398-1.975 2.683-3.54 2.708-1.632.038-2.18-.962-4.052-.962-1.89 0-2.475.935-4.04 1-1.6.06-2.822-1.614-3.868-3.112-2.091-3.058-3.719-8.62-1.536-12.403a5.997 5.997 0 0 1 5.048-3.082c1.601-.034 3.088 1.082 4.072 1.082Zm4.718-7.091a5.512 5.512 0 0 1-1.258 3.944 4.625 4.625 0 0 1-3.653 1.73 5.243 5.243 0 0 1 1.291-3.799 5.59 5.59 0 0 1 3.62-1.875Zm-13.377 121.342-.503-1.479h-2.024l-.502 1.479h-.61l1.751-5.01h.768l1.751 5.01h-.631Zm-1.5-4.45h-.036l-.847 2.44h1.73l-.847-2.44Zm6.203 4.45-.503-1.479h-2.024l-.502 1.479h-.61l1.751-5.01h.768l1.751 5.01h-.631Zm-1.5-4.45h-.036l-.847 2.44h1.73l-.847-2.44Zm2.961 4.45v-5.01h1.995c.45 0 .795.129 1.034.387.244.254.366.603.366 1.048 0 .445-.122.797-.366 1.055-.239.254-.584.381-1.034.381h-1.392v2.139h-.603Zm.603-2.67h1.392c.24 0 .424-.063.553-.187.134-.124.201-.301.201-.531v-.373c0-.23-.067-.407-.201-.531-.129-.125-.313-.187-.553-.187h-1.392v1.809Zm3.75 2.67v-5.01h.603v4.478h2.131v.532h-2.734Zm-12.383 13.639v-.589c-.364-.024-.673-.112-.926-.266a2.408 2.408 0 0 1-.64-.588l.424-.38c.154.205.321.37.503.495.186.119.402.196.646.229v-1.844c-.493-.11-.854-.27-1.084-.481-.225-.215-.337-.51-.337-.883 0-.191.033-.361.1-.509.072-.153.17-.285.294-.395.125-.11.273-.196.445-.258.173-.067.364-.111.575-.13v-.588h.444v.581c.326.029.606.113.84.251.24.134.445.321.618.56l-.438.33a1.537 1.537 0 0 0-.431-.409 1.442 1.442 0 0 0-.596-.215v1.679l.065.015c.498.11.859.272 1.084.488.229.21.344.505.344.883 0 .411-.134.744-.402.997-.263.249-.624.395-1.084.438v.589h-.444Zm1.363-1.989c0-.244-.072-.43-.215-.559-.139-.13-.376-.235-.71-.316v1.765c.286-.038.511-.134.674-.287a.793.793 0 0 0 .251-.603Zm-2.21-2.361c0 .244.069.428.208.553.143.119.359.218.646.294v-1.586c-.259.033-.467.112-.625.237a.613.613 0 0 0-.23.502Zm5.526 3.761v-.531h1.4v-4.034h-.051l-1.263 1.177-.352-.38 1.328-1.242h.94v4.479h1.292v.531h-3.294Zm5.545-2.885c.34 0 .593-.077.761-.23a.783.783 0 0 0 .258-.603v-.05c0-.263-.083-.459-.251-.589-.163-.133-.378-.2-.646-.2-.258 0-.469.057-.631.172-.163.11-.297.261-.402.452l-.445-.345a2.1 2.1 0 0 1 .222-.294c.091-.1.196-.189.316-.265.12-.077.258-.139.416-.187.158-.048.338-.072.539-.072.21 0 .409.029.595.086.187.053.347.134.481.244a1.162 1.162 0 0 1 .445.933c0 .163-.026.309-.079.438a1.05 1.05 0 0 1-.201.338 1.408 1.408 0 0 1-.682.394v.029c.134.029.264.077.388.144.129.062.242.145.337.251.101.1.18.225.237.373.062.144.093.309.093.495a1.346 1.346 0 0 1-.466 1.055 1.657 1.657 0 0 1-.538.295 2.173 2.173 0 0 1-.697.107 2.09 2.09 0 0 1-.574-.072 1.7 1.7 0 0 1-.445-.193 2.006 2.006 0 0 1-.344-.273 2.731 2.731 0 0 1-.259-.316l.453-.344c.062.1.129.191.2.272a1.2 1.2 0 0 0 .56.345c.115.029.249.043.402.043.354 0 .622-.079.804-.237.182-.163.273-.392.273-.689v-.057c0-.297-.091-.524-.273-.682-.182-.163-.45-.244-.804-.244h-.588v-.524h.545Zm4.304 0c.339 0 .593-.077.76-.23a.78.78 0 0 0 .259-.603v-.05c0-.263-.084-.459-.251-.589-.163-.133-.378-.2-.646-.2-.259 0-.469.057-.632.172-.163.11-.297.261-.402.452l-.445-.345c.062-.1.137-.198.223-.294a1.559 1.559 0 0 1 .732-.452c.158-.048.337-.072.538-.072.211 0 .409.029.596.086.186.053.347.134.481.244a1.162 1.162 0 0 1 .445.933c0 .163-.027.309-.079.438a1.05 1.05 0 0 1-.201.338 1.402 1.402 0 0 1-.682.394v.029c.134.029.263.077.387.144.13.062.242.145.338.251.1.1.179.225.237.373.062.144.093.309.093.495a1.337 1.337 0 0 1-.467 1.055 1.647 1.647 0 0 1-.538.295c-.21.071-.442.107-.696.107-.215 0-.407-.024-.574-.072a1.686 1.686 0 0 1-.445-.193 2.054 2.054 0 0 1-.345-.273 2.722 2.722 0 0 1-.258-.316l.452-.344c.062.1.129.191.201.272a1.208 1.208 0 0 0 .56.345c.115.029.249.043.402.043.354 0 .622-.079.804-.237.181-.163.272-.392.272-.689v-.057c0-.297-.091-.524-.272-.682-.182-.163-.45-.244-.804-.244h-.589v-.524h.546Zm3.406 2.971c-.153 0-.265-.038-.337-.115a.44.44 0 0 1-.101-.301v-.093c0-.125.034-.225.101-.302.072-.076.184-.115.337-.115.153 0 .263.039.33.115a.423.423 0 0 1 .108.302v.093a.42.42 0 0 1-.108.301c-.067.077-.177.115-.33.115Zm4.805-3.258c0 .373-.055.725-.165 1.055a4.275 4.275 0 0 1-1.005 1.615c-.21.205-.416.373-.617.502h-.775c.268-.196.507-.388.717-.574.211-.187.395-.381.553-.581.158-.206.292-.424.402-.654.11-.234.199-.497.266-.789l-.036-.014a1.66 1.66 0 0 1-.467.516c-.186.134-.433.201-.739.201-.215 0-.414-.036-.596-.107a1.302 1.302 0 0 1-.466-.309 1.5 1.5 0 0 1-.309-.481 1.824 1.824 0 0 1-.108-.646c0-.244.039-.466.115-.667a1.518 1.518 0 0 1 .861-.869 1.87 1.87 0 0 1 .689-.122c.259 0 .491.046.697.137.21.086.387.213.531.38.148.163.261.364.337.603.077.239.115.507.115.804Zm-1.672.768c.33 0 .586-.091.768-.273.186-.182.28-.443.28-.782v-.058c0-.34-.094-.6-.28-.782-.182-.182-.438-.273-.768-.273-.331 0-.589.091-.775.273-.182.182-.273.442-.273.782v.058c0 .339.091.6.273.782.186.182.444.273.775.273Zm4.841 2.404v-.983h-2.418v-.531l2.095-3.496h.898v3.524h.725v.503h-.725v.983h-.575Zm-1.851-1.486h1.851v-3.057h-.035l-1.816 3.057Z" fill="#fff"/><rect x="85.256" y=".256" width="157.487" height="161.487" rx="12.047" stroke="url(#b)" stroke-width=".513"/><rect x="255.25" y=".25" width="71.5" height="77.5" rx="11.75" fill="url(#c)"/><rect x="255.25" y=".25" width="71.5" height="77.5" rx="11.75" fill="url(#d)"/><path fill-rule="evenodd" clip-rule="evenodd" d="M273.175 13.061h3.911c.544-.11.948-.592 1.062-1.061h-6.035c.112.469.523.952 1.062 1.061Zm29.113.005h-3.912c-.539-.11-.949-.593-1.062-1.061h6.036c-.114.468-.519.952-1.062 1.06Zm-4.816 4.236v-3.2l5.737.005v3.195h-1.017v-2.131h-3.703v2.131h-1.017Zm-3.082.002c.513-.22.789-.599.895-1.043h-4.564l.003-4.254-1.023.003v5.294h4.689Zm-8.683-4.253h-3.613v1.046h4.695v3.206h-5.707l-.299.006c.244-.517.734-.908 1.311-1.07l3.685-.004v-1.098h-4.697V12.01h5.739c-.111.464-.569.883-1.114 1.042Zm-8.621 2.103h-3.911c-.539-.109-.95-.592-1.062-1.061h6.035c-.114.469-.518.952-1.062 1.06Zm-3.911 2.15h3.911c.544-.11.948-.593 1.062-1.061h-6.035c.112.468.523.952 1.062 1.06Zm-9.116-4.237c-.544-.119-.941-.591-1.059-1.054v-.01h6.614v.01c-.116.463-.504.91-1.055 1.054h-1.648l-.093.033v4.192h-1.028V13.1l-.084-.033h-1.647Z" fill="#000"/><path d="M265.296 47.632V52h-.588v-4.368h-1.554v-.518h3.696v.518h-1.554Zm3.658 4.452c-.397 0-.735-.075-1.015-.224a2.192 2.192 0 0 1-.714-.63l.434-.364c.172.229.364.404.574.525a1.5 1.5 0 0 0 .742.175c.35 0 .616-.084.798-.252.186-.168.28-.392.28-.672 0-.233-.07-.413-.21-.539-.14-.126-.371-.226-.693-.301l-.399-.091c-.448-.103-.791-.257-1.029-.462-.234-.21-.35-.504-.35-.882 0-.215.039-.406.119-.574.079-.168.189-.308.329-.42a1.49 1.49 0 0 1 .511-.252c.2-.06.42-.091.658-.091.368 0 .683.068.945.203.266.135.49.334.672.595l-.441.322a1.53 1.53 0 0 0-.49-.441 1.45 1.45 0 0 0-.714-.161c-.313 0-.56.068-.742.203-.178.13-.266.329-.266.595 0 .233.074.41.224.532.154.117.385.21.693.28l.399.091c.48.107.828.27 1.043.49.214.22.322.511.322.875 0 .224-.04.427-.119.609a1.226 1.226 0 0 1-.329.462 1.544 1.544 0 0 1-.532.294c-.206.07-.439.105-.7.105Zm2.695-.084v-4.886h.588v4.368h2.079V52h-2.667Zm6.696 0-.49-1.442h-1.974l-.49 1.442h-.595l1.708-4.886h.749L278.961 52h-.616Zm-1.463-4.34h-.035l-.826 2.38h1.687l-.826-2.38ZM264.89 64.574V64a1.972 1.972 0 0 1-.903-.259 2.356 2.356 0 0 1-.623-.574l.413-.371c.149.2.313.362.49.483.182.117.392.191.63.224v-1.799c-.481-.107-.833-.264-1.057-.469-.219-.21-.329-.497-.329-.861 0-.187.033-.352.098-.497.07-.15.166-.278.287-.385.121-.107.266-.191.434-.252a2.08 2.08 0 0 1 .56-.126v-.574h.434v.567c.317.028.59.11.819.245.233.13.434.313.602.546l-.427.322a1.493 1.493 0 0 0-.42-.399 1.415 1.415 0 0 0-.581-.21v1.638l.063.014c.485.107.838.266 1.057.476.224.205.336.492.336.861 0 .401-.131.726-.392.973-.257.243-.609.385-1.057.427v.574h-.434Zm1.33-1.939c0-.238-.07-.42-.21-.546-.135-.126-.366-.229-.693-.308v1.722c.28-.037.499-.13.658-.28a.774.774 0 0 0 .245-.588Zm-2.156-2.303c0 .238.068.418.203.539.14.117.35.212.63.287v-1.547c-.252.033-.455.11-.609.231a.6.6 0 0 0-.224.49Zm6.874 3.752c-.28 0-.525-.035-.735-.105a1.637 1.637 0 0 1-.532-.301 1.283 1.283 0 0 1-.322-.448 1.476 1.476 0 0 1-.105-.56c0-.336.091-.602.273-.798a1.47 1.47 0 0 1 .714-.413v-.056a1.302 1.302 0 0 1-.616-.427 1.176 1.176 0 0 1-.224-.721c0-.373.135-.67.406-.889.271-.224.651-.336 1.141-.336s.87.112 1.141.336c.271.22.406.516.406.889 0 .28-.077.52-.231.721a1.258 1.258 0 0 1-.609.427v.056c.294.08.532.217.714.413.182.196.273.462.273.798 0 .2-.037.387-.112.56-.07.173-.177.322-.322.448-.14.126-.315.226-.525.301-.21.07-.455.105-.735.105Zm0-.511c.341 0 .604-.075.791-.224.187-.154.28-.371.28-.651v-.147c0-.28-.093-.495-.28-.644-.187-.154-.45-.231-.791-.231s-.604.077-.791.231c-.187.15-.28.364-.28.644v.147c0 .28.093.497.28.651.187.15.45.224.791.224Zm0-2.387c.308 0 .541-.065.7-.196.159-.13.238-.322.238-.574v-.105c0-.252-.079-.443-.238-.574-.159-.13-.392-.196-.7-.196-.308 0-.541.065-.7.196-.159.13-.238.322-.238.574v.105c0 .252.079.443.238.574.159.13.392.196.7.196Zm5.583-1.554h-2.142l-.14 1.862h.049c.117-.163.247-.294.392-.392.149-.098.352-.147.609-.147.21 0 .404.035.581.105.177.07.331.17.462.301.131.126.231.282.301.469.075.187.112.399.112.637s-.037.457-.112.658a1.437 1.437 0 0 1-.329.511c-.14.14-.313.25-.518.329-.201.08-.429.119-.686.119a1.94 1.94 0 0 1-.546-.07 1.592 1.592 0 0 1-.413-.189 1.809 1.809 0 0 1-.322-.266c-.089-.098-.17-.2-.245-.308l.441-.336c.061.098.124.187.189.266.07.08.145.147.224.203.084.056.18.1.287.133.107.028.236.042.385.042.336 0 .59-.089.763-.266.173-.177.259-.427.259-.749v-.07c0-.322-.086-.572-.259-.749-.173-.177-.427-.266-.763-.266-.224 0-.401.042-.532.126-.126.08-.24.175-.343.287l-.497-.07.175-2.688h2.618v.518ZM279.857 64v-.959h-2.359v-.518l2.044-3.409h.875v3.437h.707v.49h-.707V64h-.56Zm-1.806-1.449h1.806v-2.982h-.035l-1.771 2.982Zm4.331 1.533c-.15 0-.259-.037-.329-.112a.427.427 0 0 1-.098-.294v-.091c0-.121.032-.22.098-.294.07-.075.179-.112.329-.112.149 0 .256.037.322.112.07.075.105.173.105.294v.091c0 .121-.035.22-.105.294-.066.075-.173.112-.322.112Zm3.062 0c-.252 0-.481-.042-.686-.126a1.528 1.528 0 0 1-.518-.371 1.701 1.701 0 0 1-.322-.595 2.555 2.555 0 0 1-.112-.784c0-.364.054-.705.161-1.022a3.862 3.862 0 0 1 .98-1.575 3.68 3.68 0 0 1 .602-.497h.756a9.652 9.652 0 0 0-.7.56 4.143 4.143 0 0 0-.539.574 3.273 3.273 0 0 0-.392.637 3.656 3.656 0 0 0-.259.763l.035.014c.117-.2.266-.366.448-.497.187-.135.429-.203.728-.203.21 0 .404.035.581.105a1.274 1.274 0 0 1 .749.777c.075.187.112.394.112.623 0 .238-.04.457-.119.658a1.437 1.437 0 0 1-.84.84 1.78 1.78 0 0 1-.665.119Zm-.007-.511c.322 0 .572-.089.749-.266.182-.177.273-.432.273-.763v-.056c0-.331-.091-.586-.273-.763-.177-.177-.427-.266-.749-.266s-.574.089-.756.266c-.177.177-.266.432-.266.763v.056c0 .331.089.586.266.763.182.177.434.266.756.266Zm5.828-2.667c0 .364-.053.707-.161 1.029a4.154 4.154 0 0 1-.98 1.575c-.205.2-.406.364-.602.49h-.756c.262-.191.495-.378.7-.56.206-.182.385-.371.539-.567.154-.2.285-.413.392-.637a3.76 3.76 0 0 0 .259-.77l-.035-.014a1.61 1.61 0 0 1-.455.504c-.182.13-.422.196-.721.196-.21 0-.403-.035-.581-.105a1.274 1.274 0 0 1-.455-.301 1.478 1.478 0 0 1-.301-.469 1.784 1.784 0 0 1-.105-.63c0-.238.038-.455.112-.651a1.5 1.5 0 0 1 .329-.511c.145-.145.315-.257.511-.336.201-.08.425-.119.672-.119.252 0 .479.044.679.133.206.084.378.208.518.371.145.159.255.355.329.588.075.233.112.495.112.784Zm-1.631.749c.322 0 .572-.089.749-.266.182-.177.273-.432.273-.763v-.056c0-.331-.091-.586-.273-.763-.177-.177-.427-.266-.749-.266s-.574.089-.756.266c-.177.177-.266.432-.266.763v.056c0 .331.089.586.266.763.182.177.434.266.756.266Z" fill="#6E6E6E"/><rect x="255.25" y=".25" width="71.5" height="77.5" rx="11.75" stroke="url(#e)" stroke-width=".5"/><rect x="255.25" y=".25" width="71.5" height="77.5" rx="11.75" stroke="url(#f)" stroke-width=".5"/><rect x="255.25" y="90.25" width="71.5" height="71.5" rx="11.75" fill="url(#g)"/><rect x="255.25" y="90.25" width="71.5" height="71.5" rx="11.75" fill="url(#h)"/><path d="M280.952 102.046c.013.176.013.352.013.53 0 5.422-4.128 11.675-11.675 11.675v-.003a11.62 11.62 0 0 1-6.29-1.839 8.249 8.249 0 0 0 6.073-1.701 4.108 4.108 0 0 1-3.834-2.85 4.086 4.086 0 0 0 1.853-.07 4.105 4.105 0 0 1-3.292-4.022v-.052a4.082 4.082 0 0 0 1.863.513 4.108 4.108 0 0 1-1.27-5.478 11.645 11.645 0 0 0 8.456 4.286 4.107 4.107 0 0 1 6.993-3.742 8.23 8.23 0 0 0 2.605-.996 4.118 4.118 0 0 1-1.803 2.269A8.179 8.179 0 0 0 283 99.92a8.333 8.333 0 0 1-2.048 2.126Zm-15.656 33.586V140h-.588v-4.368h-1.554v-.518h3.696v.518h-1.554Zm3.142 4.368-1.19-4.886h.623l.525 2.352.406 1.827h.014l.455-1.827.616-2.352h.672l.595 2.352.455 1.82h.021l.42-1.82.553-2.352h.602L271.952 140h-.651l-.637-2.436-.448-1.792h-.014l-.462 1.792-.651 2.436h-.651Zm7.303-4.368V140h-.588v-4.368h-1.554v-.518h3.696v.518h-1.554ZM278.69 140h-.588v-4.886h1.946c.43 0 .763.119 1.001.357.243.238.364.581.364 1.029 0 .359-.084.656-.252.889-.163.229-.406.38-.728.455l1.12 2.156h-.665l-1.057-2.1h-1.141v2.1Zm1.358-2.604c.234 0 .413-.061.539-.182.131-.121.196-.294.196-.518v-.364c0-.224-.065-.397-.196-.518-.126-.121-.305-.182-.539-.182h-1.358v1.764h1.358Zm-15.158 15.178V152a1.972 1.972 0 0 1-.903-.259 2.35 2.35 0 0 1-.623-.574l.413-.371c.149.201.313.362.49.483.182.117.392.191.63.224v-1.799c-.481-.107-.833-.264-1.057-.469-.219-.21-.329-.497-.329-.861 0-.187.033-.352.098-.497.07-.149.166-.278.287-.385.121-.107.266-.191.434-.252a2.08 2.08 0 0 1 .56-.126v-.574h.434v.567c.317.028.59.11.819.245.233.131.434.313.602.546l-.427.322a1.502 1.502 0 0 0-.42-.399 1.423 1.423 0 0 0-.581-.21v1.638l.063.014c.485.107.838.266 1.057.476.224.205.336.492.336.861 0 .401-.131.726-.392.973-.257.243-.609.385-1.057.427v.574h-.434Zm1.33-1.939c0-.238-.07-.42-.21-.546-.135-.126-.366-.229-.693-.308v1.722c.28-.037.499-.131.658-.28a.774.774 0 0 0 .245-.588Zm-2.156-2.303c0 .238.068.418.203.539.14.117.35.212.63.287v-1.547c-.252.033-.455.11-.609.231a.6.6 0 0 0-.224.49Zm5.999 3.668 1.869-4.382h-2.086v.91h-.525v-1.414h3.206v.518L270.693 152h-.63Zm3.924.084c-.149 0-.259-.037-.329-.112a.433.433 0 0 1-.098-.294v-.091c0-.121.033-.219.098-.294.07-.075.18-.112.329-.112.149 0 .257.037.322.112.07.075.105.173.105.294v.091a.414.414 0 0 1-.105.294c-.065.075-.173.112-.322.112Zm3.58-.084v-.959h-2.359v-.518l2.044-3.409h.875v3.437h.707v.49h-.707V152h-.56Zm-1.806-1.449h1.806v-2.982h-.035l-1.771 2.982Zm5.479 1.533c-.584 0-1.011-.222-1.281-.665-.266-.443-.399-1.064-.399-1.862s.133-1.419.399-1.862c.27-.443.697-.665 1.281-.665.583 0 1.008.222 1.274.665.27.443.406 1.064.406 1.862s-.136 1.419-.406 1.862c-.266.443-.691.665-1.274.665Zm0-.511c.191 0 .354-.04.49-.119a.907.907 0 0 0 .329-.336 1.63 1.63 0 0 0 .182-.511c.042-.196.063-.413.063-.651v-.798c0-.238-.021-.455-.063-.651a1.63 1.63 0 0 0-.182-.511.907.907 0 0 0-.329-.336.959.959 0 0 0-.49-.119.954.954 0 0 0-.49.119.9.9 0 0 0-.329.336 1.74 1.74 0 0 0-.189.511 3.434 3.434 0 0 0-.056.651v.798c0 .238.018.455.056.651.042.196.105.366.189.511a.9.9 0 0 0 .329.336.954.954 0 0 0 .49.119Z" fill="#fff"/><rect x="255.25" y="90.25" width="71.5" height="71.5" rx="11.75" stroke="url(#i)" stroke-width=".5"/><rect x="255.25" y="90.25" width="71.5" height="71.5" rx="11.75" stroke="url(#j)" stroke-width=".5"/><rect x="1.25" y=".25" width="71.5" height="71.5" rx="11.75" fill="url(#k)"/><rect x="1.25" y=".25" width="71.5" height="71.5" rx="11.75" fill="url(#l)"/><g clip-path="url(#m)"><path d="M23.375 9.25c1.725 0 3.125 7.275 3.125 16.25H29C29 15.833 26.5 8 23.375 8c-1.767 0-3.333 2.358-4.375 6.033C17.967 10.358 16.392 8 14.625 8 11.5 8 9 15.833 9 25.5h2.5c0-8.975 1.4-16.25 3.125-16.25s3.125 6.717 3.125 15h2.5c0-8.283 1.4-15 3.125-15Z" fill="#fff"/></g><path d="M13.459 47.884h-.035l-.413.819-1.169 2.128-1.169-2.128-.413-.819h-.035V52h-.574v-4.886h.784l1.4 2.632h.035l1.407-2.632h.756V52h-.574v-4.116Zm3.595 4.2c-.621 0-1.104-.21-1.45-.63-.345-.425-.517-1.048-.517-1.869s.172-1.451.518-1.89c.345-.443.828-.665 1.449-.665.41 0 .753.093 1.029.28.28.187.497.45.65.791l-.475.287a1.333 1.333 0 0 0-.448-.602c-.201-.154-.453-.231-.756-.231-.21 0-.4.04-.567.119-.164.08-.304.194-.42.343-.112.145-.199.32-.26.525-.06.2-.09.427-.09.679v.728c0 .504.116.898.35 1.183.233.285.562.427.987.427.312 0 .574-.08.784-.238.21-.163.364-.378.462-.644l.469.294a1.927 1.927 0 0 1-.665.819c-.29.196-.64.294-1.05.294Zm2.625-4.97h1.638c.304 0 .579.051.826.154.248.103.458.257.63.462.178.2.313.455.406.763.094.303.14.658.14 1.064a3.7 3.7 0 0 1-.14 1.071 2.09 2.09 0 0 1-.406.763c-.172.2-.382.352-.63.455a2.134 2.134 0 0 1-.826.154H19.68v-4.886Zm1.638 4.368c.201 0 .385-.033.553-.098.168-.07.313-.17.434-.301.122-.13.215-.29.28-.476.07-.191.105-.408.105-.651v-.798c0-.243-.035-.457-.105-.644a1.33 1.33 0 0 0-.28-.483 1.155 1.155 0 0 0-.434-.294 1.424 1.424 0 0 0-.553-.105h-1.05v3.85h1.05ZM10.89 62.574V62a1.974 1.974 0 0 1-.903-.259 2.356 2.356 0 0 1-.623-.574l.413-.371c.15.2.313.362.49.483.182.117.392.191.63.224v-1.799c-.48-.107-.833-.264-1.057-.469-.22-.21-.329-.497-.329-.861 0-.187.033-.352.098-.497.07-.15.166-.278.287-.385.121-.107.266-.191.434-.252a2.08 2.08 0 0 1 .56-.126v-.574h.434v.567c.317.028.59.11.819.245.233.13.434.313.602.546l-.427.322a1.485 1.485 0 0 0-.42-.399 1.416 1.416 0 0 0-.581-.21v1.638l.063.014c.485.107.838.266 1.057.476.224.205.336.492.336.861 0 .401-.13.726-.392.973-.257.243-.609.385-1.057.427v.574h-.434Zm1.33-1.939c0-.238-.07-.42-.21-.546-.135-.126-.366-.229-.693-.308v1.722c.28-.037.5-.13.658-.28a.773.773 0 0 0 .245-.588Zm-2.156-2.303c0 .238.068.418.203.539.14.117.35.212.63.287v-1.547c-.252.033-.455.11-.609.231a.599.599 0 0 0-.224.49ZM18.569 62h-3.206v-.602l1.596-1.47c.229-.21.42-.432.574-.665.154-.238.23-.476.23-.714v-.084c0-.27-.074-.49-.223-.658-.15-.168-.376-.252-.68-.252-.148 0-.28.021-.391.063a.928.928 0 0 0-.294.175c-.08.075-.147.163-.203.266a1.655 1.655 0 0 0-.126.322l-.525-.203a2.13 2.13 0 0 1 .189-.42c.084-.14.187-.264.308-.371a1.5 1.5 0 0 1 .448-.259 1.8 1.8 0 0 1 .623-.098c.238 0 .45.035.637.105a1.244 1.244 0 0 1 .756.742c.07.173.105.364.105.574 0 .191-.028.369-.084.532-.051.163-.124.32-.217.469a2.806 2.806 0 0 1-.343.427c-.13.14-.273.28-.427.42L16 61.482h2.569V62Zm2.566.084c-.583 0-1.01-.222-1.28-.665-.267-.443-.4-1.064-.4-1.862s.133-1.419.4-1.862c.27-.443.697-.665 1.28-.665.583 0 1.008.222 1.274.665.27.443.406 1.064.406 1.862s-.135 1.419-.406 1.862c-.266.443-.69.665-1.274.665Zm0-.511c.191 0 .355-.04.49-.119a.91.91 0 0 0 .33-.336 1.63 1.63 0 0 0 .181-.511c.042-.196.063-.413.063-.651v-.798c0-.238-.02-.455-.063-.651a1.613 1.613 0 0 0-.182-.511.91.91 0 0 0-.329-.336.953.953 0 0 0-.49-.119.953.953 0 0 0-.49.119.909.909 0 0 0-.329.336 1.737 1.737 0 0 0-.189.511 3.484 3.484 0 0 0-.056.651v.798c0 .238.019.455.056.651.042.196.105.366.19.511a.909.909 0 0 0 .328.336c.136.08.299.119.49.119Zm4.197.511c-.28 0-.525-.035-.735-.105a1.634 1.634 0 0 1-.532-.301 1.279 1.279 0 0 1-.322-.448 1.476 1.476 0 0 1-.105-.56c0-.336.091-.602.273-.798a1.47 1.47 0 0 1 .714-.413v-.056a1.304 1.304 0 0 1-.616-.427 1.174 1.174 0 0 1-.224-.721c0-.373.136-.67.406-.889.271-.224.651-.336 1.141-.336s.87.112 1.141.336c.271.22.406.516.406.889 0 .28-.077.52-.23.721a1.26 1.26 0 0 1-.61.427v.056c.294.08.532.217.714.413.182.196.273.462.273.798 0 .2-.037.387-.112.56a1.17 1.17 0 0 1-.322.448c-.14.126-.315.226-.525.301-.21.07-.455.105-.735.105Zm0-.511c.341 0 .605-.075.791-.224.187-.154.28-.371.28-.651v-.147c0-.28-.093-.495-.28-.644-.186-.154-.45-.231-.79-.231-.341 0-.605.077-.792.231-.186.15-.28.364-.28.644v.147c0 .28.094.497.28.651.187.15.45.224.791.224Zm0-2.387c.308 0 .542-.065.7-.196.16-.13.238-.322.238-.574v-.105c0-.252-.079-.443-.238-.574-.158-.13-.392-.196-.7-.196-.308 0-.54.065-.7.196-.158.13-.238.322-.238.574v.105c0 .252.08.443.238.574.16.13.392.196.7.196Zm3.05 2.898c-.15 0-.26-.037-.33-.112a.43.43 0 0 1-.097-.294v-.091a.43.43 0 0 1 .098-.294c.07-.075.18-.112.329-.112.149 0 .256.037.322.112.07.075.105.173.105.294v.091c0 .121-.035.22-.105.294-.066.075-.173.112-.322.112Zm2.18-.084 1.869-4.382h-2.086v.91h-.525v-1.414h3.206v.518L31.192 62h-.63Zm3.588 0v-.518h1.365v-3.934h-.049l-1.232 1.148-.343-.371 1.295-1.211h.917v4.368h1.26V62H34.15Z" fill="#fff"/><rect x="1.25" y=".25" width="71.5" height="71.5" rx="11.75" stroke="url(#n)" stroke-width=".5"/><rect x="1.25" y=".25" width="71.5" height="71.5" rx="11.75" stroke="url(#o)" stroke-width=".5"/><defs><linearGradient id="a" x1="103.298" y1="0" x2="166.694" y2="160.939" gradientUnits="userSpaceOnUse"><stop stop-color="#171717"/><stop offset="1" stop-color="#343333"/></linearGradient><linearGradient id="b" x1="126.079" y1="0" x2="162.397" y2="111.618" gradientUnits="userSpaceOnUse"><stop stop-color="#484848"/><stop offset=".223" stop-color="#2E2E2E"/><stop offset="1" stop-color="#151515"/></linearGradient><linearGradient id="c" x1="263.339" y1="0" x2="295.093" y2="76.296" gradientUnits="userSpaceOnUse"><stop stop-color="#171717"/><stop offset="1" stop-color="#343333"/></linearGradient><linearGradient id="d" x1="291" y1="0" x2="291" y2="78" gradientUnits="userSpaceOnUse"><stop stop-color="#A0A0A0"/><stop offset="1" stop-color="#E3E3E3"/></linearGradient><linearGradient id="e" x1="273.719" y1="0" x2="291.992" y2="53.15" gradientUnits="userSpaceOnUse"><stop stop-color="#484848"/><stop offset=".223" stop-color="#2E2E2E"/><stop offset="1" stop-color="#151515"/></linearGradient><linearGradient id="f" x1="291" y1="0" x2="291" y2="78" gradientUnits="userSpaceOnUse"><stop offset="0" stop-color="#D1D1D1"/><stop offset=".238" stop-color="#A0A0A0"/><stop offset="1" stop-color="#E3E3E3"/></linearGradient><linearGradient id="g" x1="263.339" y1="90" x2="291" y2="162" gradientUnits="userSpaceOnUse"><stop stop-color="#171717"/><stop offset="1" stop-color="#343333"/></linearGradient><linearGradient id="h" x1="291" y1="90" x2="298.198" y2="162" gradientUnits="userSpaceOnUse"><stop stop-color="#387ACD"/><stop offset="1" stop-color="#69CEE8"/></linearGradient><linearGradient id="i" x1="273.719" y1="90" x2="289.536" y2="139.841" gradientUnits="userSpaceOnUse"><stop stop-color="#484848"/><stop offset=".223" stop-color="#2E2E2E"/><stop offset="1" stop-color="#151515"/></linearGradient><linearGradient id="j" x1="281.078" y1="90" x2="298.198" y2="162" gradientUnits="userSpaceOnUse"><stop stop-color="#ACD1FF"/><stop offset=".15" stop-color="#387ACD"/><stop offset="1" stop-color="#69CEE8"/></linearGradient><linearGradient id="k" x1="9.339" y1="0" x2="37" y2="72" gradientUnits="userSpaceOnUse"><stop stop-color="#171717"/><stop offset="1" stop-color="#343333"/></linearGradient><linearGradient id="l" x1="37" y1="0" x2="51.601" y2="72" gradientUnits="userSpaceOnUse"><stop stop-color="#E16A11"/><stop offset="1" stop-color="#F6BF35"/></linearGradient><linearGradient id="n" x1="19.72" y1="0" x2="35.536" y2="49.841" gradientUnits="userSpaceOnUse"><stop stop-color="#484848"/><stop offset=".223" stop-color="#2E2E2E"/><stop offset="1" stop-color="#151515"/></linearGradient><linearGradient id="o" x1="37" y1="0" x2="51.601" y2="72" gradientUnits="userSpaceOnUse"><stop offset="0" stop-color="#FFA460"/><stop offset=".245" stop-color="#E16A11"/><stop offset="1" stop-color="#F6BF35"/></linearGradient><clipPath id="m"><path fill="#fff" transform="translate(9 8)" d="M0 0h20v17.667H0z"/></clipPath></defs></svg>