<svg width="34" height="44" fill="none" xmlns="http://www.w3.org/2000/svg"><path fill-rule="evenodd" clip-rule="evenodd" d="M3.21 11.36a1 1 0 0 0-1 1v18.93a1 1 0 0 0 1 1H6.5a1 1 0 0 0 1-1V12.36a1 1 0 0 0-1-1H3.21Zm-3 1a3 3 0 0 1 3-3H6.5a3 3 0 0 1 3 3v18.93a3 3 0 0 1-3 3H3.21a3 3 0 0 1-3-3V12.36Zm15.15-5.25a1 1 0 0 0-1 1v26.21a1 1 0 0 0 1 1h3.29a1 1 0 0 0 1-1V8.11a1 1 0 0 0-1-1h-3.29Zm-3 1a3 3 0 0 1 3-3h3.29a3 3 0 0 1 3 3v26.21a3 3 0 0 1-3 3h-3.29a3 3 0 0 1-3-3V8.11ZM27.5 15a1 1 0 0 0-1 1v16.5a1 1 0 0 0 1 1h3.29a1 1 0 0 0 1-1V16a1 1 0 0 0-1-1H27.5Zm-3 1a3 3 0 0 1 3-3h3.29a3 3 0 0 1 3 3v16.5a3 3 0 0 1-3 3H27.5a3 3 0 0 1-3-3V16Z" fill="#414652"/><path fill-rule="evenodd" clip-rule="evenodd" d="M29.14 5.71a1 1 0 0 1 1 1V14a1 1 0 0 1-2 0V6.71a1 1 0 0 1 1-1Zm0 27.79a1 1 0 0 1 1 1v3.64a1 1 0 0 1-2 0V34.5a1 1 0 0 1 1-1ZM17 .86a1 1 0 0 1 1 1V5.5a1 1 0 0 1-2 0V1.86a1 1 0 0 1 1-1Zm0 35.07a1 1 0 0 1 1 1V43a1 1 0 0 1-2 0v-6.07a1 1 0 0 1 1-1ZM4.86 5.72a1 1 0 0 1 1 1v3.64a1 1 0 0 1-2 0V6.72a1 1 0 0 1 1-1Zm0 26.57a1 1 0 0 1 1 1v6.07a1 1 0 0 1-2 0v-6.07a1 1 0 0 1 1-1Z" fill="#414652"/></svg>