<svg width="32" height="32" fill="none" xmlns="http://www.w3.org/2000/svg"><path d="M25.25 9.99V4.792m0 19.815v2.595M16.594 3.929V1.334m0 25.005v4.328M7.938 7.394V4.8m0 18.945v4.328M6.759 7.394h2.346c.787 0 1.426.638 1.426 1.426v13.497c0 .788-.639 1.426-1.426 1.426H6.759a1.426 1.426 0 0 1-1.426-1.426V8.82c0-.788.638-1.426 1.426-1.426Zm8.663-3.03h2.346c.788 0 1.426.638 1.426 1.425v18.688c0 .788-.638 1.426-1.426 1.426h-2.346a1.426 1.426 0 0 1-1.426-1.426V5.79c0-.787.639-1.426 1.426-1.426Zm8.656 5.625h2.346c.788 0 1.426.638 1.426 1.426V23.18c0 .787-.638 1.426-1.426 1.426h-2.346a1.426 1.426 0 0 1-1.426-1.426V11.415c0-.788.639-1.426 1.426-1.426Z" stroke="#414652" stroke-width="1.426" stroke-linecap="round" stroke-linejoin="round"/></svg>