<svg width="32" height="32" fill="none" xmlns="http://www.w3.org/2000/svg"><path d="M0 16C0 7.163 7.163 0 16 0s16 7.163 16 16-7.163 16-16 16S0 24.837 0 16Z" fill="#2665F5"/><path d="M8.672 11H4v.69h4.672V11Zm7.328.69a2.67 2.67 0 0 0-1.598-.69H9.25v.69H16Zm1.35-.69h3.712l.24.69H17.35V11Zm10.65.69h-3.997l.247-.69H28v.69Zm-4.455 1.29H28v-.683h-4.207l-.248.683Zm-1.785 0h-4.41v-.683h4.17l.24.683Zm-5.04 0a1.754 1.754 0 0 0-.195-.683H9.25v.683h7.47Zm-8.048-.683H4v.683h4.672v-.683Zm14.663 1.291-.24.69h3.585v-.69h-3.345Zm-1.358 0 .24.69h-3.554v-.69h3.314Zm-5.325.697c.072-.223.105-.456.098-.69h-2.107v.69h2.01Zm-9.337-.69h-2.01v.682h2.01v-.682Zm3.315-.007h2.002v.69H10.63v-.69Zm10.012 1.432v.525h-1.98v-.69h3.765l.233.645.225-.645h3.795v.69h-1.965v-.525l-.18.525h-3.712l-.18-.525Zm-4.259-.165H10.63v.69h5.182a2.61 2.61 0 0 0 .57-.69Zm-9.068 0h-2.01v.682h2.01v-.682Zm17.4 1.297h1.965v.683h-1.965v-.683Zm-4.073 0h-1.98v.683h1.98v-.683Zm3.436.683c.007 0 .24-.683.24-.683h-3.316l.248.683h2.828Zm-13.448-.683h5.175c.234.2.44.43.615.683h-5.79v-.683Zm-3.323 0v.683H5.305v-.683h2.002Zm19.373 1.29h-1.965v.683h1.965v-.683Zm-8.017 0h1.972v.683h-1.973v-.683Zm4.957.691s.24-.69.247-.69h-2.384l.247.682 1.89.008Zm-12.99-.691v.683h2.032v-.683H10.63Zm6.075 0c.081.222.124.455.128.69H14.68v-.69h2.025Zm-11.4 0h2.002v.683H5.305v-.683ZM28 18.71h-3.285v.682H28v-.682Zm-10.65 0h3.292v.682H17.35v-.682Zm5.827.682h-1.005l-.24-.682h1.478l-.233.682ZM4 19.392v-.682h4.665v.682H4Zm12.75-.682a1.5 1.5 0 0 1-.262.682H9.25v-.682h7.5Zm5.88 1.98h.09l.24-.69h-.563l.233.69ZM28 20h-3.285v.69H28V20ZM9.25 20v.69h5.01c.647 0 1.27-.246 1.74-.69H9.25Zm11.392 0H17.35v.69h3.292V20Zm-11.977.69v-.683L4 20v.69h4.665Z" fill="#fff"/></svg>