<svg width="48" height="48" fill="none" xmlns="http://www.w3.org/2000/svg"><path d="m28.36 10.14-4.72 4.72" stroke="#fff" stroke-width="2" stroke-linecap="round" stroke-linejoin="round"/><path d="M23.64 11.32a1.18 1.18 0 1 0 0-2.36 1.18 1.18 0 0 0 0 2.36Zm4.72 4.73a1.18 1.18 0 1 0 0-2.36 1.18 1.18 0 0 0 0 2.36Z" fill="#fff"/><path clip-rule="evenodd" d="M20.92 5.42h10.17c1.1 0 2 .9 2 2v10.17c0 1.1-.9 2-2 2h-3.3l-3.54 3.54v-3.54h-3.32c-1.1 0-2-.9-2-2V7.42c0-1.1.9-2 2-2h-.01Z" stroke="#fff" stroke-width="2" stroke-linecap="round" stroke-linejoin="round"/><path d="m37.59 37.63 5.22 5.22m-5.95.15-6.14-6.14-1.87 1.87c-.82.82-2.22.24-2.22-.92V26.62h11.19c1.16 0 1.74 1.4.92 2.22l-1.87 1.87 6.14 6.14m-32.6-9.06-5.22-5.22m5.95-.15 6.14 6.14 1.87-1.87c.82-.82 2.22-.24 2.22.92V38.8H10.19c-1.16 0-1.74-1.4-.92-2.22l1.87-1.87L5 28.57" stroke="#fff" stroke-width="2" stroke-linecap="round" stroke-linejoin="round"/></svg>