<svg width="411" height="98" fill="none" xmlns="http://www.w3.org/2000/svg"><rect x="1" y="1.293" width="409" height="95.293" rx="6.746" fill="#fff" stroke="#E5E5E5" stroke-width=".843"/><path d="M30.039 33.293v-.874h2.302v-6.635h-.083l-2.077 1.936-.579-.625 2.184-2.043h1.547v7.367h2.125v.874h-5.42Zm30.742-3.023-1.877 1.925-.579-.579 1.878-1.924-1.878-1.924.579-.579 1.877 1.925 1.877-1.925.579.579-1.877 1.924 1.877 1.924-.579.579-1.877-1.924Zm29.125 3.023v-1.617h-3.979v-.874l3.448-5.75h1.475v5.797h1.193v.826H90.85v1.618h-.944Zm-3.046-2.444h3.046v-5.03h-.06l-2.986 5.03Zm11.577-4.923h-3.613l-.236 3.14h.083c.197-.275.417-.495.661-.66.252-.166.594-.249 1.027-.249.354 0 .681.06.98.177.3.118.559.288.78.508.22.213.389.476.507.791.126.315.189.673.189 1.074 0 .402-.063.772-.189 1.11-.126.33-.31.618-.555.862a2.478 2.478 0 0 1-.874.555c-.338.134-.724.2-1.157.2-.346 0-.653-.039-.92-.117a2.689 2.689 0 0 1-.697-.32 3.053 3.053 0 0 1-.543-.448 5.206 5.206 0 0 1-.413-.52l.743-.566c.103.165.21.315.32.449.117.133.243.248.377.342.142.095.303.17.484.224.181.048.398.071.65.071.566 0 .995-.15 1.286-.449.291-.299.437-.72.437-1.263v-.118c0-.543-.145-.964-.437-1.263-.29-.3-.72-.449-1.287-.449-.377 0-.676.071-.897.213a2.82 2.82 0 0 0-.578.484l-.839-.118.296-4.534h4.415v.874Zm2.805 7.509c-.252 0-.436-.063-.555-.19a.726.726 0 0 1-.165-.495v-.154c0-.204.055-.37.165-.495.119-.126.303-.19.555-.19.252 0 .433.064.543.19a.692.692 0 0 1 .178.495v.154c0 .205-.059.37-.178.496-.11.126-.291.189-.543.189Zm5.153 0c-.984 0-1.704-.374-2.16-1.122-.449-.748-.673-1.795-.673-3.14 0-1.346.224-2.393.673-3.14.456-.749 1.176-1.122 2.16-1.122.984 0 1.7.373 2.149 1.121.457.748.685 1.795.685 3.14 0 1.346-.228 2.393-.685 3.141-.449.748-1.165 1.122-2.149 1.122Zm0-.862c.323 0 .598-.067.827-.2a1.54 1.54 0 0 0 .555-.568c.141-.244.244-.53.307-.861.07-.331.106-.697.106-1.098V28.5a5.3 5.3 0 0 0-.106-1.098 2.735 2.735 0 0 0-.307-.862 1.54 1.54 0 0 0-.555-.567 1.61 1.61 0 0 0-.827-.2c-.322 0-.598.066-.826.2a1.54 1.54 0 0 0-.555.567 2.925 2.925 0 0 0-.319.862c-.063.33-.094.696-.094 1.098v1.346c0 .401.031.767.094 1.098.071.33.177.617.319.861.142.244.327.433.555.567.228.134.504.2.826.2Zm7.079.862c-.983 0-1.704-.374-2.16-1.122-.449-.748-.673-1.795-.673-3.14 0-1.346.224-2.393.673-3.14.456-.749 1.177-1.122 2.16-1.122.984 0 1.7.373 2.149 1.121.457.748.685 1.795.685 3.14 0 1.346-.228 2.393-.685 3.141-.449.748-1.165 1.122-2.149 1.122Zm0-.862c.323 0 .599-.067.827-.2a1.54 1.54 0 0 0 .555-.568c.141-.244.244-.53.307-.861.071-.331.106-.697.106-1.098V28.5a5.24 5.24 0 0 0-.106-1.098 2.735 2.735 0 0 0-.307-.862 1.54 1.54 0 0 0-.555-.567 1.608 1.608 0 0 0-.827-.2c-.322 0-.598.066-.826.2a1.54 1.54 0 0 0-.555.567 2.925 2.925 0 0 0-.319.862c-.063.33-.094.696-.094 1.098v1.346c0 .401.031.767.094 1.098.071.33.177.617.319.861.142.244.327.433.555.567.228.134.504.2.826.2Zm27.786-2.303-1.878 1.925-.578-.579 1.877-1.924-1.877-1.924.578-.579 1.878 1.925 1.877-1.925.578.579-1.877 1.924 1.877 1.924-.578.579-1.877-1.924Zm25.735 3.023v-.874h2.303v-6.635h-.083l-2.078 1.936-.578-.625 2.184-2.043h1.546v7.367h2.126v.874h-5.42Zm7.08 0v-.874h2.302v-6.635h-.083l-2.078 1.936-.578-.625 2.184-2.043h1.547v7.367h2.125v.874h-5.419Zm7.645-1.381c.252 0 .433.067.543.2a.692.692 0 0 1 .178.496v.166c0 .322-.095.676-.284 1.062a3.124 3.124 0 0 1-.791 1.027h-.791c.236-.252.425-.492.567-.72.149-.22.256-.468.319-.744a.593.593 0 0 1-.355-.224.734.734 0 0 1-.106-.401v-.166c0-.204.055-.37.165-.496.119-.134.304-.2.555-.2Zm7.491-5.986h-3.613l-.236 3.14h.083c.197-.275.417-.495.661-.66.252-.166.594-.249 1.027-.249.354 0 .681.06.98.177.299.118.559.288.779.508a2.1 2.1 0 0 1 .508.791c.126.315.189.673.189 1.074 0 .402-.063.772-.189 1.11a2.43 2.43 0 0 1-.555.862 2.473 2.473 0 0 1-.874.555c-.338.134-.724.2-1.157.2-.346 0-.653-.039-.921-.117a2.688 2.688 0 0 1-.696-.32 3.024 3.024 0 0 1-.543-.448 5.01 5.01 0 0 1-.413-.52l.743-.566c.103.165.209.315.319.449.118.133.244.248.378.342.142.095.303.17.484.224.181.048.397.071.649.071.567 0 .996-.15 1.287-.449.291-.299.437-.72.437-1.263v-.118c0-.543-.146-.964-.437-1.263-.291-.3-.72-.449-1.287-.449-.378 0-.677.071-.897.213a2.829 2.829 0 0 0-.578.484l-.839-.118.295-4.534h4.416v.874Zm4.741 7.509c-.983 0-1.704-.374-2.16-1.122-.449-.748-.673-1.795-.673-3.14 0-1.346.224-2.393.673-3.14.456-.749 1.177-1.122 2.16-1.122.984 0 1.701.373 2.149 1.121.457.748.685 1.795.685 3.14 0 1.346-.228 2.393-.685 3.141-.448.748-1.165 1.122-2.149 1.122Zm0-.862c.323 0 .599-.067.827-.2a1.54 1.54 0 0 0 .555-.568c.141-.244.244-.53.307-.861.071-.331.106-.697.106-1.098V28.5a5.24 5.24 0 0 0-.106-1.098 2.735 2.735 0 0 0-.307-.862 1.54 1.54 0 0 0-.555-.567 1.608 1.608 0 0 0-.827-.2c-.322 0-.598.066-.826.2a1.54 1.54 0 0 0-.555.567 2.925 2.925 0 0 0-.319.862c-.063.33-.094.696-.094 1.098v1.346c0 .401.031.767.094 1.098.071.33.177.617.319.861.142.244.327.433.555.567.228.134.504.2.826.2Zm7.08.862c-.984 0-1.705-.374-2.161-1.122-.449-.748-.673-1.795-.673-3.14 0-1.346.224-2.393.673-3.14.456-.749 1.177-1.122 2.161-1.122.983 0 1.7.373 2.148 1.121.457.748.685 1.795.685 3.14 0 1.346-.228 2.393-.685 3.141-.448.748-1.165 1.122-2.148 1.122Zm0-.862c.322 0 .598-.067.826-.2a1.54 1.54 0 0 0 .555-.568 2.71 2.71 0 0 0 .307-.861c.071-.331.106-.697.106-1.098V28.5a5.24 5.24 0 0 0-.106-1.098 2.71 2.71 0 0 0-.307-.862 1.54 1.54 0 0 0-.555-.567 1.607 1.607 0 0 0-.826-.2c-.323 0-.599.066-.827.2a1.54 1.54 0 0 0-.555.567 2.953 2.953 0 0 0-.319.862c-.063.33-.094.696-.094 1.098v1.346c0 .401.031.767.094 1.098.071.33.178.617.319.861.142.244.327.433.555.567.228.134.504.2.827.2Zm24.51 2.503 3.082-10.52h.85l-3.082 10.52h-.85Zm41.228-1.783h-5.407v-1.015l2.692-2.48c.385-.354.708-.728.968-1.121.259-.402.389-.803.389-1.204v-.142c0-.457-.126-.827-.378-1.11-.251-.283-.633-.425-1.145-.425-.252 0-.472.035-.661.106-.189.071-.354.17-.496.296a1.764 1.764 0 0 0-.342.448 2.754 2.754 0 0 0-.213.543l-.885-.342c.079-.244.185-.48.319-.709.141-.236.314-.444.519-.625.213-.181.464-.327.756-.437.299-.11.649-.165 1.05-.165.402 0 .76.059 1.075.177.315.118.578.283.791.495.212.213.374.465.484.756.118.291.177.614.177.968 0 .323-.047.622-.142.898a3.364 3.364 0 0 1-.366.79 4.72 4.72 0 0 1-.578.72c-.221.237-.461.473-.72.71l-2.22 1.994h4.333v.874Zm4.328.142c-.984 0-1.704-.374-2.16-1.122-.449-.748-.673-1.795-.673-3.14 0-1.346.224-2.393.673-3.14.456-.749 1.176-1.122 2.16-1.122.984 0 1.7.373 2.149 1.121.456.748.685 1.795.685 3.14 0 1.346-.229 2.393-.685 3.141-.449.748-1.165 1.122-2.149 1.122Zm0-.862c.323 0 .598-.067.827-.2a1.54 1.54 0 0 0 .555-.568 2.71 2.71 0 0 0 .306-.861c.071-.331.107-.697.107-1.098V28.5a5.23 5.23 0 0 0-.107-1.098 2.71 2.71 0 0 0-.306-.862 1.54 1.54 0 0 0-.555-.567 1.61 1.61 0 0 0-.827-.2c-.323 0-.598.066-.826.2a1.54 1.54 0 0 0-.555.567 2.925 2.925 0 0 0-.319.862c-.063.33-.094.696-.094 1.098v1.346c0 .401.031.767.094 1.098.071.33.177.617.319.861.142.244.327.433.555.567.228.134.503.2.826.2Zm7.079.862c-.984 0-1.704-.374-2.16-1.122-.449-.748-.673-1.795-.673-3.14 0-1.346.224-2.393.673-3.14.456-.749 1.176-1.122 2.16-1.122.984 0 1.7.373 2.149 1.121.457.748.685 1.795.685 3.14 0 1.346-.228 2.393-.685 3.141-.449.748-1.165 1.122-2.149 1.122Zm0-.862c.323 0 .598-.067.827-.2a1.54 1.54 0 0 0 .555-.568c.141-.244.244-.53.307-.861.07-.331.106-.697.106-1.098V28.5a5.3 5.3 0 0 0-.106-1.098 2.735 2.735 0 0 0-.307-.862 1.54 1.54 0 0 0-.555-.567 1.61 1.61 0 0 0-.827-.2c-.322 0-.598.066-.826.2a1.54 1.54 0 0 0-.555.567 2.925 2.925 0 0 0-.319.862c-.063.33-.094.696-.094 1.098v1.346c0 .401.031.767.094 1.098.071.33.177.617.319.861.142.244.327.433.555.567.228.134.504.2.826.2Zm35.071-3.672v-.803h5.501v.803h-5.501Zm0 2.361v-.803h5.501v.803h-5.501Zm30.192 2.999v-.968c-.598-.04-1.105-.185-1.523-.437a3.971 3.971 0 0 1-1.05-.968l.696-.626c.252.339.528.61.827.815.307.197.661.323 1.062.378V29.42c-.81-.181-1.405-.445-1.782-.791-.37-.355-.555-.839-.555-1.453 0-.314.055-.594.165-.838.118-.252.279-.468.484-.65.205-.18.449-.322.732-.424.283-.11.598-.181.944-.213v-.968h.732v.956c.536.048.996.185 1.382.414.393.22.732.527 1.015.92l-.72.544a2.51 2.51 0 0 0-.708-.673 2.394 2.394 0 0 0-.98-.355v2.763l.106.024c.818.18 1.413.448 1.783.803.377.346.566.83.566 1.452 0 .677-.22 1.224-.661 1.64-.433.41-1.027.65-1.783.721v.968h-.732Zm2.244-3.27c0-.402-.118-.709-.355-.921-.228-.213-.617-.386-1.168-.52v2.905c.472-.063.842-.22 1.109-.472.276-.26.414-.59.414-.992Zm-3.637-3.884c0 .4.114.704.343.909.236.196.59.358 1.062.484v-2.61c-.425.056-.767.186-1.027.39-.252.205-.378.48-.378.826Zm11.555 6.186h-5.408v-1.015l2.692-2.48c.386-.354.709-.728.968-1.121.26-.402.39-.803.39-1.204v-.142c0-.457-.126-.827-.378-1.11-.252-.283-.634-.425-1.145-.425-.252 0-.472.035-.661.106-.189.071-.354.17-.496.296a1.79 1.79 0 0 0-.343.448 2.815 2.815 0 0 0-.212.543l-.886-.342c.079-.244.185-.48.319-.709.142-.236.315-.444.52-.625.212-.181.464-.327.755-.437.299-.11.65-.165 1.051-.165.401 0 .76.059 1.074.177.315.118.579.283.791.495.213.213.374.465.485.756.118.291.177.614.177.968 0 .323-.048.622-.142.898a3.46 3.46 0 0 1-.366.79c-.157.244-.35.485-.579.72-.22.237-.46.473-.72.71l-2.219 1.994h4.333v.874Zm2.392-1.381c.251 0 .432.067.543.2a.696.696 0 0 1 .177.496v.166c0 .322-.095.676-.284 1.062a3.111 3.111 0 0 1-.791 1.027h-.791c.237-.252.425-.492.567-.72.15-.22.256-.468.319-.744a.588.588 0 0 1-.354-.224.726.726 0 0 1-.107-.401v-.166c0-.204.056-.37.166-.496.118-.134.303-.2.555-.2Zm7.49-5.986h-3.613l-.236 3.14h.083c.197-.275.417-.495.661-.66.252-.166.594-.249 1.027-.249.354 0 .681.06.98.177.299.118.559.288.779.508a2.1 2.1 0 0 1 .508.791c.126.315.189.673.189 1.074 0 .402-.063.772-.189 1.11a2.43 2.43 0 0 1-.555.862 2.478 2.478 0 0 1-.873.555 3.13 3.13 0 0 1-1.157.2c-.347 0-.654-.039-.921-.117a2.695 2.695 0 0 1-.697-.32 3.024 3.024 0 0 1-.543-.448 5.147 5.147 0 0 1-.413-.52l.744-.566c.102.165.208.315.318.449.118.133.244.248.378.342.142.095.303.17.484.224a2.6 2.6 0 0 0 .65.071c.566 0 .995-.15 1.286-.449.292-.299.437-.72.437-1.263v-.118c0-.543-.145-.964-.437-1.263-.291-.3-.72-.449-1.286-.449-.378 0-.677.071-.898.213a2.829 2.829 0 0 0-.578.484l-.839-.118.296-4.534h4.415v.874Zm4.742 7.509c-.473 0-.886-.06-1.24-.177a2.756 2.756 0 0 1-.897-.508 2.16 2.16 0 0 1-.543-.756 2.491 2.491 0 0 1-.177-.944c0-.567.153-1.015.46-1.346.307-.33.708-.563 1.204-.697v-.094a2.2 2.2 0 0 1-1.039-.72c-.252-.339-.378-.744-.378-1.216 0-.63.229-1.13.685-1.5.457-.378 1.098-.566 1.925-.566.826 0 1.468.188 1.924.566.457.37.685.87.685 1.5 0 .472-.13.877-.39 1.216-.252.33-.594.57-1.027.72v.094c.496.134.897.366 1.204.697.307.33.461.78.461 1.346 0 .338-.063.653-.189.944a1.974 1.974 0 0 1-.543.756 2.62 2.62 0 0 1-.886.508 3.922 3.922 0 0 1-1.239.177Zm0-.862c.574 0 1.019-.126 1.334-.378.315-.26.472-.626.472-1.098v-.248c0-.472-.157-.834-.472-1.086-.315-.26-.76-.39-1.334-.39-.575 0-1.02.13-1.334.39-.315.252-.473.614-.473 1.086v.248c0 .472.158.838.473 1.098.314.252.759.378 1.334.378Zm0-4.026c.519 0 .913-.11 1.18-.33.268-.221.402-.544.402-.969v-.177c0-.425-.134-.748-.402-.968-.267-.22-.661-.33-1.18-.33-.52 0-.913.11-1.181.33-.268.22-.401.543-.401.968v.177c0 .425.133.748.401.968.268.22.661.33 1.181.33Zm5.603 4.746 3.152-7.39h-3.518v1.534h-.885v-2.385h5.407v.874l-3.093 7.367h-1.063Zm6.619.142c-.252 0-.437-.063-.555-.19a.727.727 0 0 1-.166-.495v-.154c0-.204.056-.37.166-.495.118-.126.303-.19.555-.19.251 0 .433.064.543.19a.696.696 0 0 1 .177.495v.154c0 .205-.059.37-.177.496-.11.126-.292.189-.543.189Zm7.49-7.51h-3.613l-.236 3.141h.083c.197-.275.417-.495.661-.66.252-.166.594-.249 1.027-.249.354 0 .681.06.98.177.299.118.559.288.779.508a2.1 2.1 0 0 1 .508.791c.126.315.189.673.189 1.074 0 .402-.063.772-.189 1.11a2.43 2.43 0 0 1-.555.862 2.478 2.478 0 0 1-.873.555 3.13 3.13 0 0 1-1.157.2c-.347 0-.654-.039-.921-.117a2.695 2.695 0 0 1-.697-.32 3.024 3.024 0 0 1-.543-.448 5.147 5.147 0 0 1-.413-.52l.744-.566c.102.165.208.315.318.449.118.133.244.248.378.342.142.095.303.17.484.224a2.6 2.6 0 0 0 .65.071c.566 0 .995-.15 1.286-.449.292-.299.437-.72.437-1.263v-.118c0-.543-.145-.964-.437-1.263-.291-.3-.72-.449-1.286-.449-.378 0-.677.071-.898.213a2.829 2.829 0 0 0-.578.484l-.838-.118.295-4.534h4.415v.874Zm4.742 7.51c-.984 0-1.704-.374-2.161-1.122-.449-.748-.673-1.795-.673-3.14 0-1.346.224-2.393.673-3.14.457-.749 1.177-1.122 2.161-1.122s1.7.373 2.148 1.121c.457.748.685 1.795.685 3.14 0 1.346-.228 2.393-.685 3.141-.448.748-1.164 1.122-2.148 1.122Zm0-.862c.322 0 .598-.067.826-.2a1.54 1.54 0 0 0 .555-.568 2.71 2.71 0 0 0 .307-.861c.071-.331.106-.697.106-1.098V28.5a5.24 5.24 0 0 0-.106-1.098 2.71 2.71 0 0 0-.307-.862 1.54 1.54 0 0 0-.555-.567 1.607 1.607 0 0 0-.826-.2c-.323 0-.599.066-.827.2a1.54 1.54 0 0 0-.555.567 2.925 2.925 0 0 0-.318.862 5.88 5.88 0 0 0-.095 1.098v1.346c0 .401.032.767.095 1.098.07.33.177.617.318.861.142.244.327.433.555.567.228.134.504.2.827.2Z" fill="#414652"/><path d="M177.661 76.866v-8.24h3.282c.74 0 1.307.212 1.7.637.402.417.602.992.602 1.724s-.2 1.31-.602 1.735c-.393.417-.96.626-1.7.626h-2.29v3.518h-.992Zm.992-4.392h2.29c.394 0 .697-.102.909-.307.221-.204.331-.496.331-.873v-.614c0-.378-.11-.67-.331-.874-.212-.204-.515-.307-.909-.307h-2.29v2.975Zm5.958 4.392v-6.092h.945v1.122h.059c.11-.291.307-.551.59-.78.283-.228.673-.342 1.169-.342h.366v.945h-.555c-.512 0-.913.098-1.204.295-.284.189-.425.429-.425.72v4.132h-.945Zm4.807-7.52c-.204 0-.354-.048-.448-.142a.58.58 0 0 1-.13-.39v-.153c0-.157.043-.283.13-.378.094-.102.244-.153.448-.153.205 0 .351.05.437.153a.51.51 0 0 1 .142.378v.153a.55.55 0 0 1-.142.39c-.086.094-.232.142-.437.142Zm-.472 1.428h.945v6.092h-.945v-6.092Zm5.218 6.234c-.425 0-.806-.075-1.145-.224a2.406 2.406 0 0 1-.862-.638 2.978 2.978 0 0 1-.531-1.004 4.597 4.597 0 0 1-.177-1.322c0-.488.059-.928.177-1.322a2.98 2.98 0 0 1 .531-1.004c.237-.275.524-.488.862-.637.339-.15.72-.225 1.145-.225.606 0 1.091.134 1.453.402.37.26.645.602.826 1.027l-.791.401a1.432 1.432 0 0 0-.543-.731c-.252-.174-.567-.26-.945-.26a1.82 1.82 0 0 0-.743.141c-.213.087-.39.213-.532.378-.141.158-.248.35-.318.579-.071.22-.107.464-.107.732v1.039c0 .535.142.976.425 1.322.292.338.717.508 1.275.508.764 0 1.315-.355 1.653-1.063l.685.46a2.41 2.41 0 0 1-.885 1.051c-.386.26-.87.39-1.453.39Zm5.893 0c-.418 0-.795-.075-1.134-.224a2.544 2.544 0 0 1-.862-.638 3.182 3.182 0 0 1-.555-1.004 4.325 4.325 0 0 1-.188-1.322c0-.48.062-.917.188-1.31.134-.394.319-.728.555-1.004.244-.283.532-.5.862-.65a2.786 2.786 0 0 1 1.134-.224c.409 0 .775.075 1.098.225a2.4 2.4 0 0 1 .826.626c.228.26.401.57.519.932.126.362.189.76.189 1.193v.448h-4.38v.284c0 .26.04.503.118.732.087.22.205.413.354.578.158.165.347.295.567.39.228.094.484.141.768.141.385 0 .72-.09 1.003-.271a1.76 1.76 0 0 0 .673-.78l.673.485a2.38 2.38 0 0 1-.921 1.015c-.417.252-.913.378-1.487.378Zm0-5.584c-.26 0-.496.047-.709.141a1.592 1.592 0 0 0-.555.378 1.862 1.862 0 0 0-.354.59c-.086.22-.13.465-.13.732v.083h3.365v-.13c0-.543-.15-.976-.449-1.299-.291-.33-.68-.495-1.168-.495Z" fill="#999"/><path d="M190.53 50.373v13.493h-.843V50.373h.843Z" fill="#E5E5E5"/><circle cx="190.108" cy="49.108" r="1.687" fill="#577A92" fill-opacity=".04" stroke="#E5E5E5" stroke-width=".843"/><path d="M251.028 76.404v-8.24h.991v7.367h3.507v.873h-4.498Zm7.995.142a2.78 2.78 0 0 1-1.133-.224 2.534 2.534 0 0 1-.862-.638 3.182 3.182 0 0 1-.555-1.003 4.325 4.325 0 0 1-.189-1.323c0-.48.063-.917.189-1.31.134-.394.319-.728.555-1.004.244-.283.531-.5.862-.65a2.78 2.78 0 0 1 1.133-.223c.409 0 .775.074 1.098.224.323.15.598.358.826.626.229.26.402.57.52.932.126.362.189.76.189 1.193v.448h-4.38v.284c0 .26.039.504.118.732.086.22.204.413.354.578.157.165.346.295.567.39.228.094.484.141.767.141.386 0 .72-.09 1.003-.271a1.76 1.76 0 0 0 .673-.78l.673.485a2.372 2.372 0 0 1-.92 1.015c-.418.252-.913.378-1.488.378Zm0-5.584c-.26 0-.496.047-.708.141a1.574 1.574 0 0 0-.555.378c-.15.165-.268.362-.355.59-.086.22-.129.465-.129.732v.083h3.364v-.13c0-.543-.149-.976-.448-1.299-.291-.33-.681-.495-1.169-.495Zm5.443 5.442-2.137-6.092h.944l1.063 3.023.661 2.078h.059l.661-2.078 1.086-3.023h.909l-2.148 6.092h-1.098Zm6.663.142a2.78 2.78 0 0 1-1.134-.224 2.54 2.54 0 0 1-.861-.638 3.182 3.182 0 0 1-.555-1.003 4.325 4.325 0 0 1-.189-1.323c0-.48.063-.917.189-1.31.134-.394.319-.728.555-1.004.244-.283.531-.5.861-.65a2.78 2.78 0 0 1 1.134-.223c.409 0 .775.074 1.098.224.323.15.598.358.826.626.229.26.402.57.52.932.126.362.189.76.189 1.193v.448h-4.38v.284c0 .26.039.504.118.732.086.22.204.413.354.578.157.165.346.295.567.39.228.094.484.141.767.141.386 0 .72-.09 1.003-.271a1.76 1.76 0 0 0 .673-.78l.673.485a2.368 2.368 0 0 1-.921 1.015c-.417.252-.913.378-1.487.378Zm0-5.584c-.26 0-.496.047-.708.141a1.574 1.574 0 0 0-.555.378c-.15.165-.268.362-.355.59-.086.22-.129.465-.129.732v.083h3.364v-.13c0-.543-.149-.976-.448-1.299-.292-.33-.681-.495-1.169-.495Zm4.189 5.442v-6.092h.945v1.122h.059a1.84 1.84 0 0 1 .59-.78c.283-.228.673-.342 1.169-.342h.366v.945h-.555c-.512 0-.913.098-1.204.295-.284.189-.425.429-.425.72v4.132h-.945Zm8.716 0c-.354 0-.61-.094-.767-.283a1.427 1.427 0 0 1-.283-.708h-.059c-.134.377-.355.66-.662.85-.307.188-.673.283-1.098.283-.645 0-1.149-.165-1.511-.496-.354-.33-.531-.78-.531-1.346 0-.574.209-1.015.626-1.322.425-.307 1.082-.46 1.971-.46h1.205v-.603c0-.433-.118-.763-.355-.991-.236-.229-.598-.343-1.086-.343-.37 0-.681.083-.932.248a2.067 2.067 0 0 0-.614.661l-.567-.53c.165-.332.429-.61.791-.84.362-.235.818-.353 1.369-.353.74 0 1.315.18 1.724.543.409.362.614.865.614 1.51v3.354h.697v.826h-.532Zm-2.715-.66c.236 0 .452-.028.649-.084.197-.055.366-.133.508-.236.142-.102.252-.22.331-.354a.853.853 0 0 0 .118-.437V73.63h-1.252c-.543 0-.94.079-1.192.236a.765.765 0 0 0-.366.685v.248c0 .299.106.53.318.696.221.165.516.248.886.248Zm9.73 1.333c0 .63-.248 1.09-.743 1.382-.488.299-1.224.448-2.208.448-.953 0-1.637-.13-2.054-.39-.418-.26-.626-.63-.626-1.11 0-.33.086-.59.26-.778.173-.181.409-.315.708-.402v-.13c-.362-.173-.543-.456-.543-.85 0-.307.098-.539.295-.696.197-.166.449-.288.756-.366v-.047a2.003 2.003 0 0 1-.85-.744 2.11 2.11 0 0 1-.296-1.122c0-.307.055-.59.166-.85.11-.26.263-.48.46-.661.205-.189.445-.335.72-.437.284-.102.598-.153.945-.153.433 0 .818.078 1.157.236V70.3c0-.237.055-.43.165-.579.11-.157.291-.236.543-.236h.909v.826h-1.157v.39c.221.189.39.417.508.685.126.26.189.555.189.885 0 .307-.055.59-.166.85-.11.26-.267.484-.472.673a2.11 2.11 0 0 1-.72.425 3.007 3.007 0 0 1-1.535.094 1.883 1.883 0 0 0-.555.249.487.487 0 0 0-.248.436c0 .181.087.303.26.366.173.063.398.095.673.095h1.299c.755 0 1.302.145 1.641.437.346.283.519.676.519 1.18Zm-.885.071a.718.718 0 0 0-.283-.59c-.181-.142-.508-.213-.98-.213h-2.031c-.378.173-.567.449-.567.827 0 .267.099.496.295.684.205.19.547.284 1.028.284h.873c.528 0 .937-.083 1.228-.248a.804.804 0 0 0 .437-.744Zm-2.113-3.53c.401 0 .72-.094.956-.283.236-.197.354-.496.354-.898v-.33c0-.402-.118-.697-.354-.886-.236-.196-.555-.295-.956-.295-.402 0-.721.099-.957.295-.236.19-.354.484-.354.886v.33c0 .402.118.7.354.898.236.189.555.283.957.283Zm6.321 2.928a2.78 2.78 0 0 1-1.133-.224 2.534 2.534 0 0 1-.862-.638 3.182 3.182 0 0 1-.555-1.003 4.325 4.325 0 0 1-.189-1.323c0-.48.063-.917.189-1.31.134-.394.319-.728.555-1.004.244-.283.531-.5.862-.65a2.78 2.78 0 0 1 1.133-.223c.41 0 .776.074 1.098.224.323.15.598.358.827.626.228.26.401.57.519.932.126.362.189.76.189 1.193v.448h-4.38v.284c0 .26.039.504.118.732.087.22.205.413.354.578.158.165.347.295.567.39.228.094.484.141.767.141.386 0 .721-.09 1.004-.271.291-.181.515-.44.673-.78l.673.485a2.381 2.381 0 0 1-.921 1.015c-.417.252-.913.378-1.488.378Zm0-5.584c-.259 0-.496.047-.708.141a1.574 1.574 0 0 0-.555.378 1.978 1.978 0 0 0-.484 1.322v.083h3.365v-.13c0-.543-.15-.976-.449-1.299-.291-.33-.681-.495-1.169-.495Z" fill="#999"/><path d="M272.699 49.911v13.493h-.844V49.91h.844Z" fill="#E5E5E5"/><circle cx="272.277" cy="48.646" r="1.687" fill="#577A92" fill-opacity=".04" stroke="#E5E5E5" stroke-width=".843"/><path d="M350.213 69.462h-.059l-.696 1.382-1.972 3.589-1.971-3.59-.697-1.38h-.059v6.941h-.968v-8.24h1.322l2.361 4.439h.059l2.373-4.44h1.276v8.241h-.969v-6.942Zm7.492 6.942c-.354 0-.61-.094-.768-.283a1.437 1.437 0 0 1-.283-.708h-.059c-.134.377-.354.66-.661.85-.307.188-.673.283-1.098.283-.646 0-1.149-.165-1.511-.496-.355-.33-.532-.78-.532-1.346 0-.574.209-1.015.626-1.322.425-.307 1.082-.46 1.972-.46h1.204v-.603c0-.433-.118-.763-.354-.991-.236-.229-.598-.343-1.086-.343-.37 0-.681.083-.933.248a2.067 2.067 0 0 0-.614.661l-.567-.53c.166-.332.429-.61.791-.84.362-.235.819-.353 1.37-.353.74 0 1.314.18 1.724.543.409.362.613.865.613 1.51v3.354h.697v.826h-.531Zm-2.716-.66c.236 0 .453-.028.65-.084a1.59 1.59 0 0 0 .507-.236c.142-.102.252-.22.331-.354a.843.843 0 0 0 .118-.437V73.63h-1.252c-.543 0-.94.079-1.192.236a.765.765 0 0 0-.366.685v.248c0 .299.106.53.319.696.22.165.515.248.885.248Zm4.595.66v-6.092h.945v1.122h.059a1.84 1.84 0 0 1 .59-.78c.283-.228.673-.342 1.169-.342h.366v.945h-.555c-.512 0-.913.098-1.204.295-.284.189-.425.429-.425.72v4.132h-.945Zm9.194.673c0 .63-.248 1.09-.744 1.382-.488.299-1.224.448-2.207.448-.953 0-1.638-.13-2.055-.39-.417-.26-.625-.63-.625-1.11 0-.33.086-.59.259-.778.173-.181.41-.315.709-.402v-.13c-.362-.173-.543-.456-.543-.85 0-.307.098-.539.295-.696.196-.166.448-.288.755-.366v-.047a2.01 2.01 0 0 1-.85-.744 2.109 2.109 0 0 1-.295-1.122c0-.307.055-.59.165-.85.111-.26.264-.48.461-.661.204-.189.445-.335.72-.437.283-.102.598-.153.945-.153.432 0 .818.078 1.157.236V70.3c0-.237.055-.43.165-.579.11-.157.291-.236.543-.236h.909v.826h-1.157v.39c.22.189.39.417.508.685.126.26.189.555.189.885 0 .307-.056.59-.166.85-.11.26-.267.484-.472.673a2.11 2.11 0 0 1-.72.425 3.004 3.004 0 0 1-1.535.094 1.86 1.86 0 0 0-.555.249.487.487 0 0 0-.248.436c0 .181.087.303.26.366a2 2 0 0 0 .673.095h1.299c.755 0 1.302.145 1.641.437.346.283.519.676.519 1.18Zm-.885.071a.717.717 0 0 0-.284-.59c-.181-.142-.507-.213-.98-.213h-2.03c-.378.173-.567.449-.567.827 0 .267.098.496.295.684.205.19.547.284 1.027.284h.874c.527 0 .937-.083 1.228-.248a.804.804 0 0 0 .437-.744Zm-2.114-3.53c.402 0 .72-.094.957-.283.236-.197.354-.496.354-.898v-.33c0-.402-.118-.697-.354-.886-.237-.196-.555-.295-.957-.295-.401 0-.72.099-.956.295-.236.19-.354.484-.354.886v.33c0 .402.118.7.354.898.236.189.555.283.956.283Zm4.573-4.734c-.205 0-.354-.047-.449-.142a.585.585 0 0 1-.129-.39V68.2a.54.54 0 0 1 .129-.378c.095-.102.244-.153.449-.153.205 0 .35.05.437.153.094.095.142.22.142.378v.154a.554.554 0 0 1-.142.39c-.087.094-.232.14-.437.14Zm-.472 1.428h.944v6.092h-.944v-6.092Zm2.951 6.092v-6.092h.945v.992h.047c.15-.346.358-.622.626-.826.275-.205.641-.307 1.098-.307.629 0 1.125.204 1.487.614.37.401.555.972.555 1.711v3.908h-.944v-3.742c0-1.094-.461-1.641-1.382-1.641-.188 0-.373.023-.554.07a1.606 1.606 0 0 0-.473.213 1.1 1.1 0 0 0-.342.366c-.079.142-.118.31-.118.508v4.226h-.945Z" fill="#999"/><path d="M361.245 49.911v13.493h-.843V49.91h.843Z" fill="#E5E5E5"/><circle cx="360.824" cy="48.646" r="1.687" fill="#577A92" fill-opacity=".04" stroke="#E5E5E5" stroke-width=".843"/><g clip-path="url(#a)"><path d="M14.435 76.546c-1.046 0-1.861-.354-2.444-1.063-.582-.716-.873-1.767-.873-3.152 0-1.385.291-2.448.873-3.188.583-.747 1.398-1.121 2.444-1.121.693 0 1.271.157 1.736.472.472.315.838.76 1.098 1.334l-.803.484a2.248 2.248 0 0 0-.756-1.015c-.338-.26-.763-.39-1.275-.39-.354 0-.673.067-.956.201a2 2 0 0 0-.708.579c-.19.244-.335.539-.437.885a3.96 3.96 0 0 0-.154 1.145v1.228c0 .85.197 1.515.59 1.995.394.48.95.72 1.665.72.528 0 .968-.133 1.323-.4a2.39 2.39 0 0 0 .779-1.087l.79.496a3.249 3.249 0 0 1-1.12 1.381c-.489.33-1.079.496-1.772.496Zm6.637 0c-.41 0-.784-.075-1.122-.224a2.508 2.508 0 0 1-.874-.638 3.177 3.177 0 0 1-.555-1.003 4.092 4.092 0 0 1-.2-1.323c0-.48.067-.917.2-1.31.134-.394.32-.728.555-1.004.244-.283.536-.5.874-.65a2.751 2.751 0 0 1 1.122-.223c.409 0 .779.074 1.11.224.338.15.629.366.873.65.244.275.433.61.567 1.003.134.393.2.83.2 1.31 0 .488-.066.93-.2 1.323-.134.385-.323.72-.567 1.003a2.507 2.507 0 0 1-.874.638c-.33.15-.7.224-1.11.224Zm0-.838c.511 0 .928-.158 1.251-.472.323-.315.484-.796.484-1.44v-.875c0-.645-.161-1.125-.484-1.44-.323-.315-.74-.472-1.251-.472-.512 0-.93.157-1.252.472-.323.315-.484.795-.484 1.44v.874c0 .645.161 1.126.484 1.44.323.315.74.473 1.252.473Zm4.304.696v-6.092h.944v.992h.047c.15-.346.359-.622.626-.826.276-.205.642-.307 1.098-.307.63 0 1.126.204 1.488.614.37.401.555.972.555 1.711v3.908h-.945v-3.742c0-1.094-.46-1.641-1.381-1.641a2.19 2.19 0 0 0-.555.07c-.173.048-.33.119-.472.213a1.09 1.09 0 0 0-.343.366 1.03 1.03 0 0 0-.118.508v4.226h-.944Zm8.056 0c-.33 0-.583-.09-.756-.271-.165-.19-.248-.433-.248-.732v-4.262h-1.003v-.827h.566c.205 0 .343-.039.414-.118.078-.086.118-.232.118-.437v-1.133h.85v1.688h1.334v.827h-1.334v4.439h1.24v.826h-1.181Zm2.793 0v-6.092h.944v1.122h.06a1.84 1.84 0 0 1 .59-.78c.283-.228.673-.342 1.169-.342h.366v.945h-.555c-.512 0-.913.098-1.205.295-.283.189-.425.429-.425.72v4.132h-.944Zm8.716 0c-.354 0-.61-.094-.767-.283a1.435 1.435 0 0 1-.283-.708h-.06c-.133.377-.354.66-.66.85-.308.188-.674.283-1.099.283-.645 0-1.149-.165-1.51-.496-.355-.33-.532-.78-.532-1.346 0-.574.209-1.015.626-1.322.425-.307 1.082-.46 1.971-.46h1.204v-.603c0-.433-.117-.763-.354-.991-.236-.229-.598-.343-1.086-.343-.37 0-.68.083-.932.248a2.07 2.07 0 0 0-.615.661l-.566-.53c.165-.332.429-.61.79-.84.363-.235.82-.353 1.37-.353.74 0 1.315.18 1.724.543.41.362.614.865.614 1.51v3.354h.697v.826h-.532Zm-2.715-.66c.236 0 .452-.028.65-.084.196-.055.365-.133.507-.236a1.15 1.15 0 0 0 .33-.354.846.846 0 0 0 .118-.437V73.63h-1.25c-.544 0-.942.079-1.193.236a.765.765 0 0 0-.366.685v.248c0 .299.106.53.318.696.22.165.516.248.886.248Zm6.861.802c-.425 0-.806-.075-1.145-.224a2.395 2.395 0 0 1-.862-.638 2.974 2.974 0 0 1-.53-1.003 4.593 4.593 0 0 1-.178-1.323c0-.488.059-.928.177-1.322.126-.394.303-.728.531-1.004.236-.275.524-.487.862-.637.339-.15.72-.224 1.145-.224.606 0 1.09.133 1.452.401.37.26.646.602.827 1.027l-.791.402a1.434 1.434 0 0 0-.543-.732c-.252-.174-.567-.26-.945-.26-.283 0-.53.047-.743.141-.213.087-.39.213-.532.378-.141.158-.248.35-.318.579-.071.22-.107.464-.107.732v1.039c0 .535.142.976.425 1.322.291.338.717.508 1.275.508.764 0 1.315-.355 1.653-1.063l.685.46a2.401 2.401 0 0 1-.886 1.051c-.385.26-.87.39-1.452.39Zm5.017-.142c-.33 0-.582-.09-.755-.271-.166-.19-.248-.433-.248-.732v-4.262h-1.004v-.827h.567c.204 0 .342-.039.413-.118.079-.086.118-.232.118-.437v-1.133h.85v1.688h1.334v.827h-1.334v4.439h1.24v.826h-1.18Zm7.413.142c-.566 0-1.042-.106-1.428-.319a3.337 3.337 0 0 1-.98-.874l.673-.542c.236.299.5.53.791.696.291.157.63.236 1.015.236.402 0 .713-.086.933-.26.228-.173.342-.417.342-.732a.84.84 0 0 0-.236-.602c-.15-.173-.425-.29-.826-.354l-.484-.07a4.368 4.368 0 0 1-.78-.178 2.485 2.485 0 0 1-.625-.33 1.57 1.57 0 0 1-.413-.52 1.735 1.735 0 0 1-.142-.732c0-.299.055-.559.165-.779a1.6 1.6 0 0 1 .449-.567c.197-.15.429-.26.696-.33.268-.079.555-.118.862-.118.496 0 .91.086 1.24.26.338.172.634.413.885.72l-.625.566a1.817 1.817 0 0 0-.59-.507c-.26-.158-.587-.236-.98-.236-.394 0-.693.086-.898.26-.197.165-.295.393-.295.684 0 .299.098.515.295.65.205.133.496.231.874.294l.472.071c.677.103 1.157.3 1.44.59.284.284.425.658.425 1.122 0 .59-.2 1.055-.602 1.393-.401.339-.952.508-1.653.508Zm4.396-7.662c-.205 0-.354-.047-.449-.142a.582.582 0 0 1-.13-.39V68.2c0-.157.044-.283.13-.378.095-.102.244-.153.449-.153.205 0 .35.05.437.153a.51.51 0 0 1 .142.378v.154a.552.552 0 0 1-.142.39c-.087.094-.232.14-.437.14Zm-.472 1.428h.944v6.092h-.944v-6.092Zm2.337 6.092v-.79l3.46-4.475h-3.353v-.827h4.498v.709l-3.53 4.557h3.624v.826h-4.699Zm8.266.142a2.78 2.78 0 0 1-1.133-.224 2.537 2.537 0 0 1-.862-.638 3.176 3.176 0 0 1-.555-1.003 4.328 4.328 0 0 1-.19-1.323c0-.48.064-.917.19-1.31.133-.394.319-.728.555-1.004.244-.283.53-.5.861-.65a2.789 2.789 0 0 1 1.134-.223c.41 0 .775.074 1.098.224a2.4 2.4 0 0 1 .826.626c.228.26.402.57.52.932.126.362.189.76.189 1.193v.448h-4.38v.284c0 .26.039.504.118.732.086.22.204.413.354.578.157.165.346.295.566.39.229.094.485.141.768.141.386 0 .72-.09 1.003-.271.292-.181.516-.44.673-.78l.673.485a2.378 2.378 0 0 1-.92 1.015c-.418.252-.914.378-1.488.378Zm0-5.584c-.26 0-.496.047-.709.141a1.582 1.582 0 0 0-.554.378 1.986 1.986 0 0 0-.484 1.322v.083h3.364v-.13c0-.543-.15-.976-.448-1.299-.291-.33-.681-.495-1.17-.495Z" fill="#999"/><path d="M42.478 49.911v13.493h-.843V49.91h.843Z" fill="#E5E5E5"/><circle cx="42.056" cy="48.646" r="1.687" fill="#577A92" fill-opacity=".04" stroke="#E5E5E5" stroke-width=".843"/></g><g clip-path="url(#b)"><path d="m106.171 76.404-2.739-8.24h1.062l1.358 4.155.909 3.094h.059l.933-3.094 1.37-4.155h1.027l-2.775 8.24h-1.204Zm7.168.142c-.41 0-.784-.075-1.122-.224a2.503 2.503 0 0 1-.874-.638 3.182 3.182 0 0 1-.555-1.003 4.114 4.114 0 0 1-.2-1.323c0-.48.067-.917.2-1.31.134-.394.319-.728.555-1.004.244-.283.535-.5.874-.65a2.751 2.751 0 0 1 1.122-.223c.409 0 .779.074 1.109.224.339.15.63.366.874.65.244.275.433.61.567 1.003.133.393.2.83.2 1.31 0 .488-.067.93-.2 1.323-.134.385-.323.72-.567 1.003a2.503 2.503 0 0 1-.874.638c-.33.15-.7.224-1.109.224Zm0-.838c.511 0 .928-.158 1.251-.472.323-.315.484-.796.484-1.44v-.875c0-.645-.161-1.125-.484-1.44-.323-.315-.74-.472-1.251-.472-.512 0-.929.157-1.252.472-.323.315-.484.795-.484 1.44v.874c0 .645.161 1.126.484 1.44.323.315.74.473 1.252.473Zm5.307.696c-.33 0-.582-.09-.755-.271a1.034 1.034 0 0 1-.248-.709v-7.756h.944v7.91h.897v.826h-.838Zm5.968-.991h-.047a2.828 2.828 0 0 1-.237.425 1.582 1.582 0 0 1-.33.366 1.647 1.647 0 0 1-.484.248 2.09 2.09 0 0 1-.661.094c-.63 0-1.13-.2-1.5-.602-.37-.41-.555-.984-.555-1.724v-3.908h.945v3.743c0 1.094.464 1.64 1.393 1.64.189 0 .37-.023.543-.07.181-.047.339-.118.472-.212a1.016 1.016 0 0 0 .461-.886v-4.215h.944v6.092h-.944v-.991Zm2.956.991v-6.092h.944v.992h.047c.071-.157.15-.303.236-.437.095-.142.205-.264.331-.366a1.5 1.5 0 0 1 .46-.236 1.8 1.8 0 0 1 .614-.094c.402 0 .772.098 1.11.295.339.189.59.504.756.944h.023c.111-.33.315-.618.614-.862.307-.251.72-.377 1.24-.377.622 0 1.106.204 1.452.614.354.401.531.972.531 1.711v3.908h-.944v-3.742c0-.543-.106-.953-.319-1.228-.212-.276-.551-.413-1.015-.413-.189 0-.37.023-.543.07a1.47 1.47 0 0 0-.449.213 1.038 1.038 0 0 0-.437.874v4.226h-.944v-3.742c0-.543-.107-.953-.319-1.228-.213-.276-.543-.413-.992-.413-.189 0-.37.023-.543.07a1.456 1.456 0 0 0-.46.213 1.145 1.145 0 0 0-.331.366c-.079.142-.118.31-.118.508v4.226h-.944Zm12.597.142a2.78 2.78 0 0 1-1.133-.224 2.534 2.534 0 0 1-.862-.638 3.182 3.182 0 0 1-.555-1.003 4.325 4.325 0 0 1-.189-1.323c0-.48.063-.917.189-1.31.134-.394.319-.728.555-1.004.244-.283.531-.5.862-.65a2.78 2.78 0 0 1 1.133-.223c.41 0 .776.074 1.098.224.323.15.598.358.827.626.228.26.401.57.519.932.126.362.189.76.189 1.193v.448h-4.38v.284c0 .26.039.504.118.732.087.22.205.413.354.578.158.165.347.295.567.39.228.094.484.141.767.141.386 0 .721-.09 1.004-.271.291-.181.515-.44.673-.78l.673.485a2.381 2.381 0 0 1-.921 1.015c-.417.252-.913.378-1.488.378Zm0-5.584c-.259 0-.496.047-.708.141a1.574 1.574 0 0 0-.555.378 1.978 1.978 0 0 0-.484 1.322v.083h3.365v-.13c0-.543-.15-.976-.449-1.299-.291-.33-.681-.495-1.169-.495Z" fill="#999"/><path d="M115.845 49.911v13.493h-.843V49.91h.843Z" fill="#E5E5E5"/><circle cx="115.424" cy="48.646" r="1.687" fill="#577A92" fill-opacity=".04" stroke="#E5E5E5" stroke-width=".843"/></g><defs><clipPath id="a"><path fill="#fff" transform="translate(10.433 46.538)" d="M0 0h89.39v34.575H0z"/></clipPath><clipPath id="b"><path fill="#fff" transform="translate(103.196 46.538)" d="M0 0h43.008v34.575H0z"/></clipPath></defs></svg>