<svg width="411" height="115" fill="none" xmlns="http://www.w3.org/2000/svg"><rect x="1" y=".878" width="409" height="113" rx="8" fill="#fff" stroke="#E5E5E5"/><path d="M12.232 39.878v-1.036h2.73v-7.868h-.098L12.4 33.27l-.686-.742 2.59-2.422h1.834v8.736h2.52v1.036h-6.426Zm14.625-6.188c0 .728-.108 1.414-.322 2.058a7.765 7.765 0 0 1-.84 1.75c-.337.523-.71.99-1.12 1.4a7.802 7.802 0 0 1-1.204.98h-1.512c.522-.383.989-.756 1.4-1.12.41-.364.77-.742 1.078-1.134a7.19 7.19 0 0 0 .784-1.274c.214-.457.387-.97.518-1.54l-.07-.028a3.244 3.244 0 0 1-.91 1.008c-.364.261-.845.392-1.442.392-.42 0-.808-.07-1.162-.21a2.543 2.543 0 0 1-.91-.602 2.945 2.945 0 0 1-.602-.938 3.568 3.568 0 0 1-.21-1.26c0-.476.074-.91.224-1.302a2.96 2.96 0 0 1 .658-1.022 3.04 3.04 0 0 1 1.021-.672 3.63 3.63 0 0 1 1.345-.238c.503 0 .956.089 1.358.266.41.168.756.415 1.035.742.29.317.51.71.659 1.176.149.467.224.99.224 1.568Zm-3.262 1.498c.643 0 1.143-.177 1.498-.532.363-.355.546-.863.546-1.526v-.112c0-.663-.183-1.171-.546-1.526-.355-.355-.855-.532-1.498-.532-.644 0-1.148.177-1.512.532-.355.355-.532.863-.532 1.526v.112c0 .663.177 1.171.532 1.526.364.355.868.532 1.512.532Zm5.426 4.69v-1.036h2.73v-7.868h-.098L29.19 33.27l-.686-.742 2.59-2.422h1.834v8.736h2.52v1.036h-6.426Zm9.067.168c-.3 0-.518-.075-.658-.224-.131-.15-.196-.345-.196-.588v-.182c0-.243.065-.439.196-.588.14-.15.359-.224.658-.224.298 0 .513.075.644.224.14.15.21.345.21.588v.182c0 .243-.07.439-.21.588-.131.15-.346.224-.644.224Zm6.124 0c-.504 0-.961-.084-1.372-.252a3.056 3.056 0 0 1-1.036-.742 3.392 3.392 0 0 1-.644-1.19 5.132 5.132 0 0 1-.224-1.568c0-.728.107-1.41.322-2.044.215-.644.49-1.227.826-1.75a8.163 8.163 0 0 1 1.134-1.4 7.36 7.36 0 0 1 1.204-.994h1.512c-.523.383-.99.756-1.4 1.12-.41.364-.77.747-1.078 1.148-.308.392-.57.817-.784 1.274a7.32 7.32 0 0 0-.518 1.526l.07.028a3.16 3.16 0 0 1 .896-.994c.373-.27.859-.406 1.456-.406.42 0 .807.07 1.162.21.355.14.658.34.91.602.252.261.448.579.588.952.15.373.224.789.224 1.246 0 .476-.08.915-.238 1.316-.15.392-.369.733-.658 1.022-.28.28-.62.5-1.022.658a3.587 3.587 0 0 1-1.33.238Zm-.014-1.022c.644 0 1.143-.177 1.498-.532.364-.355.546-.863.546-1.526v-.112c0-.663-.182-1.171-.546-1.526-.355-.355-.854-.532-1.498-.532s-1.148.177-1.512.532c-.355.355-.532.863-.532 1.526v.112c0 .663.177 1.171.532 1.526.364.355.868.532 1.512.532Zm6.645.854 3.738-8.764h-4.172v1.82h-1.05v-2.828h6.412v1.036l-3.668 8.736h-1.26Zm33.825-.868v-2.926h-2.73v-.952h2.73v-2.926h1.064v2.926h2.73v.952h-2.73v2.926h-1.064Zm36.794.868h-6.412v-1.204l3.192-2.94c.457-.42.84-.863 1.148-1.33.308-.476.462-.952.462-1.428v-.168c0-.541-.149-.98-.448-1.316-.299-.336-.751-.504-1.358-.504-.299 0-.56.042-.784.126-.224.084-.42.2-.588.35-.159.15-.294.327-.406.532-.103.196-.187.41-.252.644l-1.05-.406c.093-.29.219-.57.378-.84.168-.28.373-.527.616-.742.252-.215.551-.387.896-.518.355-.13.77-.196 1.246-.196s.901.07 1.274.21c.373.14.686.336.938.588.252.252.443.55.574.896.14.345.21.728.21 1.148 0 .383-.056.737-.168 1.064a4.06 4.06 0 0 1-.434.938c-.187.29-.415.574-.686.854-.261.28-.546.56-.854.84l-2.632 2.366h5.138v1.036Zm2.837-1.638c.298 0 .513.08.644.238.14.15.21.345.21.588v.196c0 .383-.112.803-.336 1.26a3.716 3.716 0 0 1-.938 1.218h-.938c.28-.299.504-.583.672-.854a2.59 2.59 0 0 0 .378-.882.7.7 0 0 1-.42-.266.862.862 0 0 1-.126-.476v-.196c0-.243.065-.439.196-.588.14-.159.359-.238.658-.238Zm8.882-7.098h-4.284l-.28 3.724h.098a3.12 3.12 0 0 1 .784-.784c.299-.196.705-.294 1.218-.294.42 0 .807.07 1.162.21.355.14.663.34.924.602.261.252.462.565.602.938.149.373.224.798.224 1.274s-.075.915-.224 1.316a2.874 2.874 0 0 1-.658 1.022c-.28.28-.625.5-1.036.658a3.708 3.708 0 0 1-1.372.238 3.87 3.87 0 0 1-1.092-.14 3.193 3.193 0 0 1-.826-.378 3.617 3.617 0 0 1-.644-.532 6.161 6.161 0 0 1-.49-.616l.882-.672a4.8 4.8 0 0 0 .378.532c.14.159.289.294.448.406.168.112.359.2.574.266.215.056.471.084.77.084.672 0 1.181-.177 1.526-.532.345-.355.518-.854.518-1.498v-.14c0-.644-.173-1.143-.518-1.498-.345-.355-.854-.532-1.526-.532-.448 0-.803.084-1.064.252-.252.159-.481.35-.686.574l-.994-.14.35-5.376h5.236v1.036Zm5.623 8.904c-.56 0-1.05-.07-1.47-.21-.42-.15-.775-.35-1.064-.602a2.553 2.553 0 0 1-.644-.896 2.952 2.952 0 0 1-.21-1.12c0-.672.182-1.204.546-1.596.364-.392.84-.667 1.428-.826v-.112a2.603 2.603 0 0 1-1.232-.854c-.299-.401-.448-.882-.448-1.442 0-.747.27-1.34.812-1.778.541-.448 1.302-.672 2.282-.672s1.74.224 2.282.672c.541.439.812 1.031.812 1.778 0 .56-.154 1.04-.462 1.442-.299.392-.705.677-1.218.854v.112c.588.159 1.064.434 1.428.826.364.392.546.924.546 1.596 0 .401-.075.775-.224 1.12-.14.345-.355.644-.644.896a3.1 3.1 0 0 1-1.05.602c-.42.14-.91.21-1.47.21Zm0-1.022c.681 0 1.208-.15 1.582-.448.373-.308.56-.742.56-1.302v-.294c0-.56-.187-.99-.56-1.288-.374-.308-.901-.462-1.582-.462-.682 0-1.209.154-1.582.462-.374.299-.56.728-.56 1.288v.294c0 .56.186.994.56 1.302.373.299.9.448 1.582.448Zm0-4.774c.616 0 1.082-.13 1.4-.392.317-.261.476-.644.476-1.148v-.21c0-.504-.159-.887-.476-1.148-.318-.261-.784-.392-1.4-.392-.616 0-1.083.13-1.4.392-.318.261-.476.644-.476 1.148v.21c0 .504.158.887.476 1.148.317.261.784.392 1.4.392Zm6.644 5.628 3.738-8.764h-4.172v1.82h-1.05v-2.828h6.412v1.036l-3.668 8.736h-1.26Zm7.849.168c-.299 0-.518-.075-.658-.224-.131-.15-.196-.345-.196-.588v-.182c0-.243.065-.439.196-.588.14-.15.359-.224.658-.224.298 0 .513.075.644.224.14.15.21.345.21.588v.182c0 .243-.07.439-.21.588-.131.15-.346.224-.644.224Zm8.882-8.904h-4.284l-.28 3.724h.098a3.12 3.12 0 0 1 .784-.784c.299-.196.705-.294 1.218-.294.42 0 .807.07 1.162.21.355.14.663.34.924.602.261.252.462.565.602.938.149.373.224.798.224 1.274s-.075.915-.224 1.316a2.874 2.874 0 0 1-.658 1.022c-.28.28-.625.5-1.036.658a3.708 3.708 0 0 1-1.372.238 3.87 3.87 0 0 1-1.092-.14 3.193 3.193 0 0 1-.826-.378 3.617 3.617 0 0 1-.644-.532 6.161 6.161 0 0 1-.49-.616l.882-.672a4.8 4.8 0 0 0 .378.532c.14.159.289.294.448.406.168.112.359.2.574.266.215.056.471.084.77.084.672 0 1.181-.177 1.526-.532.345-.355.518-.854.518-1.498v-.14c0-.644-.173-1.143-.518-1.498-.345-.355-.854-.532-1.526-.532-.448 0-.803.084-1.064.252-.252.159-.481.35-.686.574l-.994-.14.35-5.376h5.236v1.036Zm5.623 8.904c-1.167 0-2.021-.443-2.562-1.33-.532-.887-.798-2.128-.798-3.724s.266-2.837.798-3.724c.541-.887 1.395-1.33 2.562-1.33 1.166 0 2.016.443 2.548 1.33.541.887.812 2.128.812 3.724s-.271 2.837-.812 3.724c-.532.887-1.382 1.33-2.548 1.33Zm0-1.022c.382 0 .709-.08.98-.238.27-.159.49-.383.658-.672.168-.29.289-.63.364-1.022.084-.392.126-.826.126-1.302v-1.596c0-.476-.042-.91-.126-1.302a3.231 3.231 0 0 0-.364-1.022 1.825 1.825 0 0 0-.658-.672c-.271-.159-.598-.238-.98-.238-.383 0-.71.08-.98.238-.271.159-.49.383-.658.672-.168.29-.294.63-.378 1.022a6.95 6.95 0 0 0-.112 1.302v1.596c0 .476.037.91.112 1.302.084.392.21.733.378 1.022.168.29.387.513.658.672.27.159.597.238.98.238Zm32.169-.014v-2.926h-2.73v-.952h2.73v-2.926h1.064v2.926h2.73v.952h-2.73v2.926h-1.064Zm41.805-7.868h-4.284l-.28 3.724h.098a3.11 3.11 0 0 1 .784-.784c.298-.196.704-.294 1.218-.294.42 0 .807.07 1.162.21.354.14.662.34.924.602.261.252.462.565.602.938.149.373.224.798.224 1.274s-.075.915-.224 1.316c-.15.392-.369.733-.658 1.022-.28.28-.626.5-1.036.658a3.712 3.712 0 0 1-1.372.238 3.87 3.87 0 0 1-1.092-.14 3.178 3.178 0 0 1-.826-.378 3.582 3.582 0 0 1-.644-.532 6.02 6.02 0 0 1-.49-.616l.882-.672a4.8 4.8 0 0 0 .378.532c.14.159.289.294.448.406.168.112.359.2.574.266.214.056.471.084.77.084.672 0 1.18-.177 1.526-.532.345-.355.518-.854.518-1.498v-.14c0-.644-.173-1.143-.518-1.498-.346-.355-.854-.532-1.526-.532-.448 0-.803.084-1.064.252-.252.159-.481.35-.686.574l-.994-.14.35-5.376h5.236v1.036Zm3.326 7.098c.299 0 .514.08.644.238.14.15.21.345.21.588v.196c0 .383-.112.803-.336 1.26a3.703 3.703 0 0 1-.938 1.218h-.938c.28-.299.504-.583.672-.854.178-.261.304-.555.378-.882a.706.706 0 0 1-.42-.266.862.862 0 0 1-.126-.476v-.196c0-.243.066-.439.196-.588.14-.159.36-.238.658-.238Zm4.361 1.638 3.738-8.764h-4.172v1.82h-1.05v-2.828h6.412v1.036l-3.668 8.736h-1.26Zm12.916-8.736h-4.284l-.28 3.724h.098c.234-.327.495-.588.784-.784.299-.196.705-.294 1.218-.294.42 0 .808.07 1.162.21.355.14.663.34.924.602.262.252.462.565.602.938.15.373.224.798.224 1.274s-.074.915-.224 1.316a2.86 2.86 0 0 1-.658 1.022c-.28.28-.625.5-1.036.658a3.705 3.705 0 0 1-1.372.238 3.88 3.88 0 0 1-1.092-.14 3.193 3.193 0 0 1-.826-.378 3.653 3.653 0 0 1-.644-.532 6.308 6.308 0 0 1-.49-.616l.882-.672c.122.196.248.373.378.532.14.159.29.294.448.406.168.112.36.2.574.266.215.056.472.084.77.084.672 0 1.181-.177 1.526-.532.346-.355.518-.854.518-1.498v-.14c0-.644-.172-1.143-.518-1.498-.345-.355-.854-.532-1.526-.532-.448 0-.802.084-1.064.252-.252.159-.48.35-.686.574l-.994-.14.35-5.376h5.236v1.036Zm5.623 8.904c-1.167 0-2.021-.443-2.562-1.33-.532-.887-.798-2.128-.798-3.724s.266-2.837.798-3.724c.541-.887 1.395-1.33 2.562-1.33 1.166 0 2.016.443 2.548 1.33.541.887.812 2.128.812 3.724s-.271 2.837-.812 3.724c-.532.887-1.382 1.33-2.548 1.33Zm0-1.022c.382 0 .709-.08.98-.238.27-.159.49-.383.658-.672.168-.29.289-.63.364-1.022.084-.392.126-.826.126-1.302v-1.596c0-.476-.042-.91-.126-1.302a3.231 3.231 0 0 0-.364-1.022 1.825 1.825 0 0 0-.658-.672c-.271-.159-.598-.238-.98-.238-.383 0-.71.08-.98.238-.271.159-.49.383-.658.672-.168.29-.294.63-.378 1.022a6.95 6.95 0 0 0-.112 1.302v1.596c0 .476.037.91.112 1.302.084.392.21.733.378 1.022.168.29.387.513.658.672.27.159.597.238.98.238Zm35.239-4.354v-.952h6.524v.952h-6.524Zm0 2.8v-.952h6.524v.952h-6.524Zm35.857 3.556v-1.148c-.709-.047-1.311-.22-1.806-.518-.485-.308-.9-.69-1.246-1.148l.826-.742c.299.401.626.723.98.966.364.233.784.383 1.26.448v-3.598c-.961-.215-1.666-.527-2.114-.938-.438-.42-.658-.994-.658-1.722 0-.373.066-.705.196-.994.14-.299.332-.555.574-.77a2.66 2.66 0 0 1 .868-.504c.336-.13.71-.215 1.12-.252v-1.148h.868v1.134c.635.056 1.181.22 1.638.49.467.261.868.625 1.204 1.092l-.854.644a2.96 2.96 0 0 0-.84-.798 2.83 2.83 0 0 0-1.162-.42v3.276l.126.028c.971.215 1.676.532 2.114.952.448.41.672.985.672 1.722 0 .803-.261 1.451-.784 1.946-.513.485-1.218.77-2.114.854v1.148h-.868Zm2.66-3.878c0-.476-.14-.84-.42-1.092-.27-.252-.732-.457-1.386-.616v3.444c.56-.075.999-.261 1.316-.56.327-.308.49-.7.49-1.176Zm-4.312-4.606c0 .476.136.835.406 1.078.28.233.7.425 1.26.574V31.1c-.504.065-.91.22-1.218.462-.298.243-.448.57-.448.98Zm10.44 7.504c-.56 0-1.05-.07-1.47-.21-.42-.15-.775-.35-1.064-.602a2.553 2.553 0 0 1-.644-.896 2.952 2.952 0 0 1-.21-1.12c0-.672.182-1.204.546-1.596.364-.392.84-.667 1.428-.826v-.112a2.603 2.603 0 0 1-1.232-.854c-.299-.401-.448-.882-.448-1.442 0-.747.27-1.34.812-1.778.541-.448 1.302-.672 2.282-.672s1.74.224 2.282.672c.541.439.812 1.031.812 1.778 0 .56-.154 1.04-.462 1.442-.299.392-.705.677-1.218.854v.112c.588.159 1.064.434 1.428.826.364.392.546.924.546 1.596 0 .401-.075.775-.224 1.12-.14.345-.355.644-.644.896a3.1 3.1 0 0 1-1.05.602c-.42.14-.91.21-1.47.21Zm0-1.022c.681 0 1.208-.15 1.582-.448.373-.308.56-.742.56-1.302v-.294c0-.56-.187-.99-.56-1.288-.374-.308-.901-.462-1.582-.462-.682 0-1.209.154-1.582.462-.374.299-.56.728-.56 1.288v.294c0 .56.186.994.56 1.302.373.299.9.448 1.582.448Zm0-4.774c.616 0 1.082-.13 1.4-.392.317-.261.476-.644.476-1.148v-.21c0-.504-.159-.887-.476-1.148-.318-.261-.784-.392-1.4-.392-.616 0-1.083.13-1.4.392-.318.261-.476.644-.476 1.148v.21c0 .504.158.887.476 1.148.317.261.784.392 1.4.392Zm6.098 3.99c.299 0 .513.08.644.238.14.15.21.345.21.588v.196c0 .383-.112.803-.336 1.26a3.716 3.716 0 0 1-.938 1.218h-.938c.28-.299.504-.583.672-.854a2.59 2.59 0 0 0 .378-.882.7.7 0 0 1-.42-.266.862.862 0 0 1-.126-.476v-.196c0-.243.065-.439.196-.588.14-.159.359-.238.658-.238Zm8.883-7.098h-4.284l-.28 3.724h.098a3.11 3.11 0 0 1 .784-.784c.298-.196.704-.294 1.218-.294.42 0 .807.07 1.162.21.354.14.662.34.924.602.261.252.462.565.602.938.149.373.224.798.224 1.274s-.075.915-.224 1.316c-.15.392-.369.733-.658 1.022-.28.28-.626.5-1.036.658a3.712 3.712 0 0 1-1.372.238 3.87 3.87 0 0 1-1.092-.14 3.178 3.178 0 0 1-.826-.378 3.582 3.582 0 0 1-.644-.532 6.02 6.02 0 0 1-.49-.616l.882-.672a4.8 4.8 0 0 0 .378.532c.14.159.289.294.448.406.168.112.359.2.574.266.214.056.471.084.77.084.672 0 1.18-.177 1.526-.532.345-.355.518-.854.518-1.498v-.14c0-.644-.173-1.143-.518-1.498-.346-.355-.854-.532-1.526-.532-.448 0-.803.084-1.064.252-.252.159-.481.35-.686.574l-.994-.14.35-5.376h5.236v1.036Zm8.884 8.736h-6.412v-1.204l3.192-2.94c.457-.42.84-.863 1.148-1.33.308-.476.462-.952.462-1.428v-.168c0-.541-.149-.98-.448-1.316-.299-.336-.751-.504-1.358-.504-.299 0-.56.042-.784.126-.224.084-.42.2-.588.35-.159.15-.294.327-.406.532-.103.196-.187.41-.252.644l-1.05-.406c.093-.29.219-.57.378-.84.168-.28.373-.527.616-.742.252-.215.551-.387.896-.518.355-.13.77-.196 1.246-.196s.901.07 1.274.21c.373.14.686.336.938.588.252.252.443.55.574.896.14.345.21.728.21 1.148 0 .383-.056.737-.168 1.064a4.06 4.06 0 0 1-.434.938c-.187.29-.415.574-.686.854-.261.28-.546.56-.854.84l-2.632 2.366h5.138v1.036Zm8.395-6.188c0 .728-.108 1.414-.322 2.058a7.8 7.8 0 0 1-.84 1.75c-.336.523-.71.99-1.12 1.4a7.732 7.732 0 0 1-1.204.98h-1.512c.522-.383.989-.756 1.4-1.12.41-.364.77-.742 1.078-1.134.308-.401.569-.826.784-1.274.214-.457.387-.97.518-1.54l-.07-.028a3.257 3.257 0 0 1-.91 1.008c-.364.261-.845.392-1.442.392-.42 0-.808-.07-1.162-.21a2.54 2.54 0 0 1-.91-.602 2.938 2.938 0 0 1-.602-.938 3.568 3.568 0 0 1-.21-1.26c0-.476.074-.91.224-1.302a2.96 2.96 0 0 1 .658-1.022 3.04 3.04 0 0 1 1.022-.672 3.627 3.627 0 0 1 1.344-.238c.504 0 .956.089 1.358.266.41.168.756.415 1.036.742.289.317.508.71.658 1.176.149.467.224.99.224 1.568Zm-3.262 1.498c.644 0 1.143-.177 1.498-.532.364-.355.546-.863.546-1.526v-.112c0-.663-.182-1.171-.546-1.526-.355-.355-.854-.532-1.498-.532s-1.148.177-1.512.532c-.355.355-.532.863-.532 1.526v.112c0 .663.177 1.171.532 1.526.364.355.868.532 1.512.532Zm6.098 4.858c-.299 0-.518-.075-.658-.224-.131-.15-.196-.345-.196-.588v-.182c0-.243.065-.439.196-.588.14-.15.359-.224.658-.224.299 0 .513.075.644.224.14.15.21.345.21.588v.182c0 .243-.07.439-.21.588-.131.15-.345.224-.644.224Zm3.143-.168v-1.036h2.73v-7.868h-.098l-2.464 2.296-.686-.742 2.59-2.422h1.834v8.736h2.52v1.036h-6.426Zm9.612 0 3.738-8.764h-4.172v1.82h-1.05v-2.828h6.412v1.036l-3.668 8.736h-1.26Z" fill="#414652"/><path d="M216.972 81.142h-4.284l-.28 3.724h.098a3.12 3.12 0 0 1 .784-.784c.299-.196.705-.294 1.218-.294.42 0 .807.07 1.162.21.355.14.663.34.924.602.261.252.462.565.602.938.149.373.224.798.224 1.274s-.075.915-.224 1.316a2.874 2.874 0 0 1-.658 1.022c-.28.28-.625.5-1.036.658a3.708 3.708 0 0 1-1.372.238 3.87 3.87 0 0 1-1.092-.14 3.193 3.193 0 0 1-.826-.378 3.617 3.617 0 0 1-.644-.532 6.161 6.161 0 0 1-.49-.616l.882-.672a4.8 4.8 0 0 0 .378.532c.14.159.289.294.448.406.168.112.359.2.574.266.215.056.471.084.77.084.672 0 1.181-.177 1.526-.532.345-.355.518-.854.518-1.498v-.14c0-.644-.173-1.143-.518-1.498-.345-.355-.854-.532-1.526-.532-.448 0-.803.084-1.064.252-.252.159-.481.35-.686.574l-.994-.14.35-5.376h5.236v1.036Zm5.623 8.904c-1.167 0-2.021-.443-2.562-1.33-.532-.887-.798-2.128-.798-3.724s.266-2.837.798-3.724c.541-.887 1.395-1.33 2.562-1.33 1.166 0 2.016.443 2.548 1.33.541.887.812 2.128.812 3.724s-.271 2.837-.812 3.724c-.532.887-1.382 1.33-2.548 1.33Zm0-1.022c.382 0 .709-.08.98-.238.27-.159.49-.383.658-.672.168-.29.289-.63.364-1.022.084-.392.126-.826.126-1.302v-1.596c0-.476-.042-.91-.126-1.302a3.231 3.231 0 0 0-.364-1.022 1.825 1.825 0 0 0-.658-.672c-.271-.159-.598-.238-.98-.238-.383 0-.71.08-.98.238-.271.159-.49.383-.658.672-.168.29-.294.63-.378 1.022a6.95 6.95 0 0 0-.112 1.302v1.596c0 .476.037.91.112 1.302.084.392.21.733.378 1.022.168.29.387.513.658.672.27.159.597.238.98.238Zm9.883.854c-.392 0-.691-.107-.896-.322-.196-.224-.294-.504-.294-.84v-9.198h1.12v9.38h1.064v.98h-.994Zm5.354.168a3.26 3.26 0 0 1-1.33-.266 2.972 2.972 0 0 1-1.036-.756 3.772 3.772 0 0 1-.658-1.19 4.843 4.843 0 0 1-.238-1.568c0-.57.079-1.087.238-1.554.159-.467.378-.863.658-1.19a2.898 2.898 0 0 1 1.036-.77 3.255 3.255 0 0 1 1.33-.266c.485 0 .924.089 1.316.266.401.177.747.434 1.036.77.289.327.513.723.672 1.19.159.467.238.985.238 1.554 0 .579-.079 1.101-.238 1.568a3.631 3.631 0 0 1-.672 1.19 2.972 2.972 0 0 1-1.036.756 3.158 3.158 0 0 1-1.316.266Zm0-.994c.607 0 1.101-.187 1.484-.56.383-.373.574-.943.574-1.708v-1.036c0-.765-.191-1.335-.574-1.708-.383-.373-.877-.56-1.484-.56s-1.101.187-1.484.56c-.383.373-.574.943-.574 1.708v1.036c0 .765.191 1.335.574 1.708.383.373.877.56 1.484.56Zm6.7.826c-.392 0-.691-.107-.896-.322-.196-.224-.294-.513-.294-.868v-5.054h-1.19v-.98h.672c.243 0 .406-.047.49-.14.093-.103.14-.275.14-.518v-1.344h1.008v2.002h1.582v.98h-1.582v5.264h1.47v.98h-1.4Zm5.482.168c-.672 0-1.236-.126-1.694-.378a3.96 3.96 0 0 1-1.162-1.036l.798-.644c.28.355.593.63.938.826.346.187.747.28 1.204.28.476 0 .845-.103 1.106-.308.271-.205.406-.495.406-.868a.996.996 0 0 0-.28-.714c-.177-.205-.504-.345-.98-.42l-.574-.084a5.16 5.16 0 0 1-.924-.21 2.948 2.948 0 0 1-.742-.392 1.874 1.874 0 0 1-.49-.616 2.057 2.057 0 0 1-.168-.868c0-.355.066-.663.196-.924.131-.27.308-.495.532-.672a2.35 2.35 0 0 1 .826-.392 3.61 3.61 0 0 1 1.022-.14c.588 0 1.078.103 1.47.308.402.205.752.49 1.05.854l-.742.672c-.158-.224-.392-.425-.7-.602-.308-.187-.695-.28-1.162-.28-.466 0-.821.103-1.064.308-.233.196-.35.467-.35.812 0 .355.117.611.35.77.243.159.588.275 1.036.35l.56.084c.803.121 1.372.355 1.708.7.336.336.504.78.504 1.33 0 .7-.238 1.25-.714 1.652-.476.401-1.129.602-1.96.602Z" fill="#999"/><path d="M237 58.878v16h-1v-16h1Z" fill="#E5E5E5"/><circle cx="236.5" cy="57.378" r="2" fill="#577A92" fill-opacity=".04" stroke="#E5E5E5"/><path d="M313.592 81.264V90h-1.176v-8.736h-3.108v-1.036h7.392v1.036h-3.108Zm6.424 8.904c-.486 0-.929-.089-1.33-.266a2.962 2.962 0 0 1-1.036-.756c-.28-.336-.5-.733-.658-1.19a4.843 4.843 0 0 1-.238-1.568c0-.57.079-1.087.238-1.554a3.56 3.56 0 0 1 .658-1.19 2.888 2.888 0 0 1 1.036-.77 3.252 3.252 0 0 1 1.33-.266c.485 0 .924.089 1.316.266.401.177.746.434 1.036.77.289.327.513.723.672 1.19.158.467.238.985.238 1.554a4.87 4.87 0 0 1-.238 1.568 3.632 3.632 0 0 1-.672 1.19 2.98 2.98 0 0 1-1.036.756 3.16 3.16 0 0 1-1.316.266Zm0-.994c.606 0 1.101-.187 1.484-.56.382-.373.574-.943.574-1.708V85.87c0-.765-.192-1.335-.574-1.708-.383-.373-.878-.56-1.484-.56-.607 0-1.102.187-1.484.56-.383.373-.574.943-.574 1.708v1.036c0 .765.191 1.335.574 1.708.382.373.877.56 1.484.56Zm6.7.826c-.392 0-.691-.107-.896-.322-.196-.224-.294-.513-.294-.868v-5.054h-1.19v-.98h.672c.242 0 .406-.047.49-.14.093-.103.14-.275.14-.518v-1.344h1.008v2.002h1.582v.98h-1.582v5.264h1.47V90h-1.4Zm8.562 0c-.42 0-.723-.112-.91-.336a1.708 1.708 0 0 1-.336-.84h-.07c-.159.448-.42.784-.784 1.008-.364.224-.798.336-1.302.336-.765 0-1.363-.196-1.792-.588-.42-.392-.63-.924-.63-1.596 0-.681.247-1.204.742-1.568.504-.364 1.283-.546 2.338-.546h1.428v-.714c0-.513-.14-.905-.42-1.176-.28-.27-.709-.406-1.288-.406-.439 0-.807.098-1.106.294a2.457 2.457 0 0 0-.728.784l-.672-.63c.196-.392.509-.723.938-.994.429-.28.971-.42 1.624-.42.877 0 1.559.215 2.044.644.485.43.728 1.027.728 1.792v3.976h.826V90h-.63Zm-3.22-.784c.28 0 .537-.033.77-.098a1.89 1.89 0 0 0 .602-.28c.168-.121.299-.261.392-.42.093-.159.14-.331.14-.518v-1.19h-1.484c-.644 0-1.115.093-1.414.28a.908.908 0 0 0-.434.812v.294c0 .355.126.63.378.826.261.196.611.294 1.05.294Zm6.638.784c-.392 0-.69-.107-.896-.322-.196-.224-.294-.504-.294-.84V79.64h1.12v9.38h1.064V90h-.994Zm5.933 0v-7.224h1.12v1.176h.056c.084-.187.178-.36.28-.518a1.95 1.95 0 0 1 .392-.434c.159-.121.341-.215.546-.28.206-.075.448-.112.728-.112.476 0 .915.117 1.316.35.402.224.7.597.896 1.12h.028a2.22 2.22 0 0 1 .728-1.022c.364-.299.854-.448 1.47-.448.738 0 1.312.243 1.722.728.42.476.63 1.153.63 2.03V90h-1.12v-4.438c0-.644-.126-1.13-.378-1.456-.252-.327-.653-.49-1.204-.49a2.44 2.44 0 0 0-.644.084 1.75 1.75 0 0 0-.532.252 1.228 1.228 0 0 0-.518 1.036V90h-1.12v-4.438c0-.644-.126-1.13-.378-1.456-.252-.327-.644-.49-1.176-.49a2.44 2.44 0 0 0-.644.084c-.205.056-.387.14-.546.252a1.363 1.363 0 0 0-.392.434c-.093.168-.14.369-.14.602V90h-1.12Zm17.473 0c-.42 0-.723-.112-.91-.336a1.708 1.708 0 0 1-.336-.84h-.07c-.159.448-.42.784-.784 1.008-.364.224-.798.336-1.302.336-.765 0-1.363-.196-1.792-.588-.42-.392-.63-.924-.63-1.596 0-.681.247-1.204.742-1.568.504-.364 1.283-.546 2.338-.546h1.428v-.714c0-.513-.14-.905-.42-1.176-.28-.27-.709-.406-1.288-.406-.439 0-.807.098-1.106.294a2.457 2.457 0 0 0-.728.784l-.672-.63c.196-.392.509-.723.938-.994.429-.28.971-.42 1.624-.42.877 0 1.559.215 2.044.644.485.43.728 1.027.728 1.792v3.976h.826V90h-.63Zm-3.22-.784c.28 0 .537-.033.77-.098a1.89 1.89 0 0 0 .602-.28c.168-.121.299-.261.392-.42.093-.159.14-.331.14-.518v-1.19h-1.484c-.644 0-1.115.093-1.414.28a.908.908 0 0 0-.434.812v.294c0 .355.126.63.378.826.261.196.611.294 1.05.294Zm5.449.784v-7.224h1.12v1.33h.07c.13-.345.364-.653.7-.924.336-.27.798-.406 1.386-.406h.434v1.12h-.658c-.607 0-1.083.117-1.428.35-.336.224-.504.509-.504.854V90h-1.12Zm10.902.798c0 .747-.294 1.293-.882 1.638-.579.355-1.451.532-2.618.532-1.129 0-1.941-.154-2.436-.462-.495-.308-.742-.747-.742-1.316 0-.392.103-.7.308-.924.205-.215.485-.373.84-.476v-.154c-.429-.205-.644-.541-.644-1.008 0-.364.117-.64.35-.826.233-.196.532-.34.896-.434v-.056a2.384 2.384 0 0 1-1.008-.882c-.233-.383-.35-.826-.35-1.33 0-.364.065-.7.196-1.008a2.24 2.24 0 0 1 .546-.784 2.55 2.55 0 0 1 .854-.518 3.278 3.278 0 0 1 1.12-.182c.513 0 .971.093 1.372.28v-.126c0-.28.065-.509.196-.686.131-.187.345-.28.644-.28h1.078v.98h-1.372v.462c.261.224.462.495.602.812.149.308.224.658.224 1.05 0 .364-.065.7-.196 1.008a2.29 2.29 0 0 1-.56.798 2.491 2.491 0 0 1-.854.504 3.278 3.278 0 0 1-1.12.182c-.233 0-.467-.023-.7-.07a2.209 2.209 0 0 0-.658.294.576.576 0 0 0-.294.518c0 .215.103.36.308.434.205.075.471.112.798.112h1.54c.896 0 1.545.173 1.946.518.411.336.616.803.616 1.4Zm-1.05.084a.85.85 0 0 0-.336-.7c-.215-.168-.602-.252-1.162-.252h-2.408c-.448.205-.672.532-.672.98 0 .317.117.588.35.812.243.224.649.336 1.218.336h1.036c.625 0 1.111-.098 1.456-.294.345-.196.518-.49.518-.882Zm-2.506-4.186c.476 0 .854-.112 1.134-.336.28-.233.42-.588.42-1.064v-.392c0-.476-.14-.826-.42-1.05-.28-.233-.658-.35-1.134-.35-.476 0-.854.117-1.134.35-.28.224-.42.574-.42 1.05v.392c0 .476.14.83.42 1.064.28.224.658.336 1.134.336Zm5.423-5.614c-.243 0-.42-.056-.532-.168a.689.689 0 0 1-.154-.462v-.182c0-.187.051-.336.154-.448.112-.121.289-.182.532-.182.242 0 .415.06.518.182a.605.605 0 0 1 .168.448v.182c0 .187-.056.34-.168.462-.103.112-.276.168-.518.168Zm-.56 1.694h1.12V90h-1.12v-7.224Zm3.5 7.224v-7.224h1.12v1.176h.056a2.4 2.4 0 0 1 .742-.98c.326-.243.76-.364 1.302-.364.746 0 1.334.243 1.764.728.438.476.658 1.153.658 2.03V90h-1.12v-4.438c0-1.297-.546-1.946-1.638-1.946-.224 0-.444.028-.658.084-.206.056-.392.14-.56.252a1.286 1.286 0 0 0-.406.434c-.094.168-.14.369-.14.602V90h-1.12Z" fill="#999"/><path d="M349 58.878v16h-1v-16h1Z" fill="#E5E5E5"/><circle cx="348.5" cy="57.378" r="2" fill="#577A92" fill-opacity=".04" stroke="#E5E5E5"/><g clip-path="url(#a)"><path d="M27.972 81.142h-4.284l-.28 3.724h.098a3.12 3.12 0 0 1 .784-.784c.299-.196.705-.294 1.218-.294.42 0 .807.07 1.162.21.355.14.663.34.924.602a2.5 2.5 0 0 1 .602.938c.15.373.224.798.224 1.274s-.075.915-.224 1.316c-.15.392-.369.733-.658 1.022-.28.28-.625.5-1.036.658a3.708 3.708 0 0 1-1.372.238 3.89 3.89 0 0 1-1.092-.14 3.189 3.189 0 0 1-.826-.378 3.617 3.617 0 0 1-.644-.532 6.161 6.161 0 0 1-.49-.616l.882-.672a4.8 4.8 0 0 0 .378.532c.14.159.29.294.448.406.168.112.36.2.574.266.215.056.471.084.77.084.672 0 1.18-.177 1.526-.532.345-.355.518-.854.518-1.498v-.14c0-.644-.173-1.143-.518-1.498-.345-.355-.854-.532-1.526-.532-.448 0-.803.084-1.064.252-.252.159-.48.35-.686.574l-.994-.14.35-5.376h5.236v1.036Zm7.111 8.736c-.392 0-.69-.107-.896-.322-.196-.224-.294-.504-.294-.84v-9.198h1.12v9.38h1.064v.98h-.994Zm5.355.168c-.486 0-.93-.089-1.33-.266a2.97 2.97 0 0 1-1.036-.756c-.28-.336-.5-.733-.658-1.19a4.85 4.85 0 0 1-.238-1.568c0-.57.079-1.087.238-1.554a3.56 3.56 0 0 1 .658-1.19 2.884 2.884 0 0 1 1.036-.77 3.255 3.255 0 0 1 1.33-.266c.485 0 .924.089 1.316.266.4.177.746.434 1.036.77.289.327.513.723.672 1.19.158.467.238.985.238 1.554a4.87 4.87 0 0 1-.238 1.568 3.62 3.62 0 0 1-.672 1.19c-.29.327-.635.579-1.036.756a3.164 3.164 0 0 1-1.316.266Zm0-.994c.606 0 1.1-.187 1.484-.56.382-.373.574-.943.574-1.708v-1.036c0-.765-.192-1.335-.574-1.708-.383-.373-.878-.56-1.484-.56-.607 0-1.102.187-1.484.56-.383.373-.574.943-.574 1.708v1.036c0 .765.19 1.335.574 1.708.382.373.877.56 1.484.56Zm6.7.826c-.392 0-.691-.107-.896-.322-.196-.224-.294-.513-.294-.868v-5.054h-1.19v-.98h.672c.242 0 .406-.047.49-.14.093-.103.14-.275.14-.518v-1.344h1.008v2.002h1.582v.98h-1.582v5.264h1.47v.98h-1.4Zm5.482.168c-.672 0-1.237-.126-1.694-.378a3.955 3.955 0 0 1-1.162-1.036l.798-.644c.28.355.592.63.938.826.345.187.746.28 1.204.28.476 0 .844-.103 1.106-.308.27-.205.406-.495.406-.868a.998.998 0 0 0-.28-.714c-.178-.205-.504-.345-.98-.42l-.574-.084a5.16 5.16 0 0 1-.924-.21 2.941 2.941 0 0 1-.742-.392 1.86 1.86 0 0 1-.49-.616 2.057 2.057 0 0 1-.168-.868c0-.355.065-.663.196-.924.13-.27.308-.495.532-.672.233-.177.508-.308.826-.392.317-.093.658-.14 1.022-.14.588 0 1.078.103 1.47.308.401.205.751.49 1.05.854l-.742.672c-.159-.224-.392-.425-.7-.602-.308-.187-.696-.28-1.162-.28-.467 0-.822.103-1.064.308-.234.196-.35.467-.35.812 0 .355.116.611.35.77.242.159.588.275 1.036.35l.56.084c.802.121 1.372.355 1.708.7.336.336.504.78.504 1.33 0 .7-.238 1.25-.714 1.652-.476.401-1.13.602-1.96.602Z" fill="#999"/><path d="M35 57.878v16h-1v-16h1Z" fill="#E5E5E5"/><circle cx="34.5" cy="56.378" r="2" fill="#577A92" fill-opacity=".04" stroke="#E5E5E5"/></g><path d="M114.25 89.878V87.96h-4.718v-1.036l4.088-6.818h1.75v6.874h1.414v.98h-1.414v1.918h-1.12Zm-3.612-2.898h3.612v-5.964h-.07l-3.542 5.964Zm13.729-5.838h-4.284l-.28 3.724h.098a3.11 3.11 0 0 1 .784-.784c.298-.196.704-.294 1.218-.294.42 0 .807.07 1.162.21.354.14.662.34.924.602.261.252.462.565.602.938.149.373.224.798.224 1.274s-.075.915-.224 1.316c-.15.392-.369.733-.658 1.022-.28.28-.626.5-1.036.658a3.712 3.712 0 0 1-1.372.238 3.87 3.87 0 0 1-1.092-.14 3.178 3.178 0 0 1-.826-.378 3.582 3.582 0 0 1-.644-.532 6.02 6.02 0 0 1-.49-.616l.882-.672a4.8 4.8 0 0 0 .378.532c.14.159.289.294.448.406.168.112.359.2.574.266.214.056.471.084.77.084.672 0 1.18-.177 1.526-.532.345-.355.518-.854.518-1.498v-.14c0-.644-.173-1.143-.518-1.498-.346-.355-.854-.532-1.526-.532-.448 0-.803.084-1.064.252-.252.159-.481.35-.686.574l-.994-.14.35-5.376h5.236v1.036Zm7.111 8.736c-.392 0-.691-.107-.896-.322-.196-.224-.294-.504-.294-.84v-9.198h1.12v9.38h1.064v.98h-.994Zm5.354.168a3.26 3.26 0 0 1-1.33-.266 2.972 2.972 0 0 1-1.036-.756 3.772 3.772 0 0 1-.658-1.19 4.843 4.843 0 0 1-.238-1.568c0-.57.079-1.087.238-1.554.159-.467.378-.863.658-1.19a2.898 2.898 0 0 1 1.036-.77 3.255 3.255 0 0 1 1.33-.266c.485 0 .924.089 1.316.266.401.177.747.434 1.036.77.289.327.513.723.672 1.19.159.467.238.985.238 1.554 0 .579-.079 1.101-.238 1.568a3.631 3.631 0 0 1-.672 1.19 2.972 2.972 0 0 1-1.036.756 3.158 3.158 0 0 1-1.316.266Zm0-.994c.607 0 1.101-.187 1.484-.56.383-.373.574-.943.574-1.708v-1.036c0-.765-.191-1.335-.574-1.708-.383-.373-.877-.56-1.484-.56s-1.101.187-1.484.56c-.383.373-.574.943-.574 1.708v1.036c0 .765.191 1.335.574 1.708.383.373.877.56 1.484.56Zm6.7.826c-.392 0-.691-.107-.896-.322-.196-.224-.294-.513-.294-.868v-5.054h-1.19v-.98h.672c.243 0 .406-.047.49-.14.093-.103.14-.275.14-.518v-1.344h1.008v2.002h1.582v.98h-1.582v5.264h1.47v.98h-1.4Zm5.482.168c-.672 0-1.236-.126-1.694-.378a3.96 3.96 0 0 1-1.162-1.036l.798-.644c.28.355.593.63.938.826.346.187.747.28 1.204.28.476 0 .845-.103 1.106-.308.271-.205.406-.495.406-.868a.996.996 0 0 0-.28-.714c-.177-.205-.504-.345-.98-.42l-.574-.084a5.16 5.16 0 0 1-.924-.21 2.948 2.948 0 0 1-.742-.392 1.874 1.874 0 0 1-.49-.616 2.057 2.057 0 0 1-.168-.868c0-.355.066-.663.196-.924.131-.27.308-.495.532-.672a2.35 2.35 0 0 1 .826-.392 3.61 3.61 0 0 1 1.022-.14c.588 0 1.078.103 1.47.308.402.205.752.49 1.05.854l-.742.672c-.158-.224-.392-.425-.7-.602-.308-.187-.695-.28-1.162-.28-.466 0-.821.103-1.064.308-.233.196-.35.467-.35.812 0 .355.117.611.35.77.243.159.588.275 1.036.35l.56.084c.803.121 1.372.355 1.708.7.336.336.504.78.504 1.33 0 .7-.238 1.25-.714 1.652-.476.401-1.129.602-1.96.602Z" fill="#999"/><path d="M136 58.878v16h-1v-16h1Z" fill="#E5E5E5"/><circle cx="135.5" cy="57.378" r="2" fill="#577A92" fill-opacity=".04" stroke="#E5E5E5"/><defs><clipPath id="a"><path fill="#fff" transform="translate(18 53.878)" d="M0 0h106v41H0z"/></clipPath></defs></svg>