<svg width="32" height="32" fill="none" xmlns="http://www.w3.org/2000/svg"><path d="M0 16C0 7.163 7.163 0 16 0s16 7.163 16 16-7.163 16-16 16S0 24.837 0 16Z" fill="#2D8CFF"/><path d="m5.079 18.68.27.014h4.044l-.013-.27c-.034-.445-.35-.768-.796-.795l-.27-.014H5.889l3.236-3.236-.014-.27a.815.815 0 0 0-.795-.795l-.27-.013H4l.013.27a.84.84 0 0 0 .796.795l.27.013h2.427L4.27 17.615l.013.27c.027.445.35.769.796.796Z" fill="#fff"/><path fill-rule="evenodd" clip-rule="evenodd" d="M11.82 13.3c.695 0 1.382.264 1.908.79a2.702 2.702 0 0 1 0 3.815 2.702 2.702 0 0 1-3.816 0 2.696 2.696 0 0 1 1.908-4.604Zm-1.14 3.843a1.611 1.611 0 0 0 2.286 0 1.623 1.623 0 0 0 0-2.285 1.611 1.611 0 0 0-2.285 0 1.611 1.611 0 0 0 0 2.285Z" fill="#fff"/><path fill-rule="evenodd" clip-rule="evenodd" d="M17.483 13.3c.694 0 1.382.264 1.908.79a2.702 2.702 0 0 1 0 3.815 2.702 2.702 0 0 1-3.816 0 2.695 2.695 0 0 1 1.908-4.604Zm-1.14 3.843a1.611 1.611 0 0 0 2.286 0 1.623 1.623 0 0 0 0-2.285 1.611 1.611 0 0 0-2.285 0 1.611 1.611 0 0 0 0 2.285Z" fill="#fff"/><path d="M23.672 15.458c-.014-.202-.04-.377-.135-.54a1.074 1.074 0 0 0-1.86 0c-.095.156-.122.338-.135.54l-.014.27v1.887l-.013.27c-.02.445-.344.769-.796.796l-.27.013v-5.393c.27 0 .742.135.951.37a2.16 2.16 0 0 1 2.825.357A2.16 2.16 0 0 1 28 15.459v3.236l-.27-.013a.825.825 0 0 1-.795-.796l-.014-.27v-1.887l-.013-.27c-.007-.195-.034-.377-.128-.54a1.085 1.085 0 0 0-.937-.539c-.398 0-.742.21-.93.533-.095.162-.122.344-.136.546l-.013.27v2.966l-.27-.013a.83.83 0 0 1-.795-.796l-.014-.27v-1.887l-.013-.27Z" fill="#fff"/></svg>