<svg width="80" height="80" fill="none" xmlns="http://www.w3.org/2000/svg"><path d="M59.78 49.438a29.664 29.664 0 0 0-29.366-29.663h-.297A29.665 29.665 0 0 0 .454 49.125c-.012.104-.012.21 0 .313a29.663 29.663 0 0 0 29.268 29.663h.395a29.778 29.778 0 0 0 29.663-29.25v-.413Zm-29.663-25.46v.807c2.703 0 5.719 4.416 7.499 10.728a63.771 63.771 0 0 0-7.499-.461 60.255 60.255 0 0 0-7.597.461 21.01 21.01 0 0 1 4.615-9.228 4.483 4.483 0 0 1 2.982-1.566v-.79.049Zm12.97 12.458a35.936 35.936 0 0 0-3.659-9.888 24.601 24.601 0 0 1 13.48 13.464 35.105 35.105 0 0 0-9.805-3.576h-.016Zm9.772 22.494A24.57 24.57 0 0 1 39.46 72.246a35.588 35.588 0 0 0 3.642-9.773 35.496 35.496 0 0 0 9.772-3.543h-.016Zm-8.85-1.812a61.928 61.928 0 0 0 .033-15.343 21.226 21.226 0 0 1 9.147 4.714 4.463 4.463 0 0 1 1.647 3.18c-.164 2.323-3.526 5.455-10.81 7.449h-.017Zm-14.007 17.78-.082-.74c-2.34 0-5.488-3.428-7.466-10.729a63.28 63.28 0 0 0 7.63.462 68 68 0 0 0 7.63-.429 21.179 21.179 0 0 1-4.647 9.047 4.453 4.453 0 0 1-3.049 1.533l-.016.857Zm9.492-25.46a57.158 57.158 0 0 1-.676 8.701 57.955 57.955 0 0 1-8.734.626v.808l-.148-.808a57.532 57.532 0 0 1-8.57-.659 58.168 58.168 0 0 1-.625-8.898 57.01 57.01 0 0 1 .659-8.537 57.267 57.267 0 0 1 17.435 0c.456 2.9.676 5.832.66 8.767ZM17.082 62.457a35.368 35.368 0 0 0 3.543 9.74A24.72 24.72 0 0 1 7.326 58.863a35.155 35.155 0 0 0 9.756 3.593ZM7.293 40.111a24.719 24.719 0 0 1 13.382-13.464 35.434 35.434 0 0 0-3.593 9.888 35.183 35.183 0 0 0-9.789 3.576Zm8.883 1.73a64.63 64.63 0 0 0-.445 7.4c-.004 2.61.145 5.218.445 7.81a21.21 21.21 0 0 1-9.13-4.614 4.482 4.482 0 0 1-1.648-2.999v-.082c.132-2.736 4.483-5.735 10.778-7.515Z" fill="#85ACB0"/><path d="M72.959 0H46.592A6.592 6.592 0 0 0 40 6.592v26.367a6.592 6.592 0 0 0 6.592 6.592h26.367a6.592 6.592 0 0 0 6.592-6.592V6.592A6.592 6.592 0 0 0 72.959 0Z" fill="#FF444F" style="mix-blend-mode:multiply"/><path d="M48.822 28v-2.662h4.136V15.042h-.198l-3.124 4.092-2.112-1.65 3.674-4.84h5.06v12.694h3.256V28H48.822Zm17.723.264c-2.009 0-3.498-.697-4.466-2.09-.968-1.393-1.452-3.344-1.452-5.852 0-2.508.484-4.459 1.452-5.852.968-1.393 2.457-2.09 4.466-2.09 2.01 0 3.498.697 4.466 2.09.968 1.393 1.452 3.344 1.452 5.852 0 2.508-.484 4.459-1.452 5.852-.968 1.393-2.456 2.09-4.466 2.09Zm0-2.794c.88 0 1.489-.323 1.826-.968.338-.645.506-1.555.506-2.728V18.87c0-1.173-.168-2.083-.506-2.728-.337-.645-.946-.968-1.826-.968-.88 0-1.488.323-1.826.968-.337.645-.506 1.555-.506 2.728v2.904c0 1.173.169 2.083.506 2.728.338.645.946.968 1.826.968Z" fill="#fff"/></svg>