<svg width="24" height="16" fill="none" xmlns="http://www.w3.org/2000/svg"><g clip-path="url(#a)"><mask id="b" style="mask-type:alpha" maskUnits="userSpaceOnUse" x="0" y="0" width="24" height="16"><path d="M21.714 0H2.286C1.023 0 0 .955 0 2.133v11.734C0 15.045 1.023 16 2.286 16h19.428C22.977 16 24 15.045 24 13.867V2.133C24 .955 22.977 0 21.714 0Z" fill="#fff"/></mask><g mask="url(#b)"><path d="M21.714 0H2.286C1.023 0 0 .955 0 2.133v11.734C0 15.045 1.023 16 2.286 16h19.428C22.977 16 24 15.045 24 13.867V2.133C24 .955 22.977 0 21.714 0Z" fill="#20BD42"/><path fill-rule="evenodd" clip-rule="evenodd" d="M0 16h24V2.133L0 13.867V16Z" fill="#03ACE1"/><path fill-rule="evenodd" clip-rule="evenodd" d="M0 14.933 24 3.2v-4.267L0 10.666v4.267Z" fill="#FCD715"/><path fill-rule="evenodd" clip-rule="evenodd" d="M0 17.066 24 5.333V1.066L0 12.8v4.266Z" fill="#FCD715"/><path fill-rule="evenodd" clip-rule="evenodd" d="M0 16 24 4.267V0L0 11.733V16Z" fill="#000"/><path d="M21.714.533H2.286C1.339.533.57 1.25.57 2.133v11.733c0 .884.768 1.6 1.715 1.6h19.428c.947 0 1.714-.716 1.714-1.6V2.133c0-.883-.767-1.6-1.714-1.6Z" stroke="#000" stroke-opacity=".1" stroke-width="1.143"/></g></g><defs><clipPath id="a"><path fill="#fff" d="M0 0h24v16H0z"/></clipPath></defs></svg>