<svg width="49" height="49" fill="none" xmlns="http://www.w3.org/2000/svg"><path fill-rule="evenodd" clip-rule="evenodd" d="M29.734 9.441a1 1 0 0 1 0 1.414l-4.72 4.72a1 1 0 1 1-1.414-1.414l4.72-4.72a1 1 0 0 1 1.414 0Z" fill="#fff"/><path d="M24.307 11.327a1.18 1.18 0 1 0 0-2.36 1.18 1.18 0 0 0 0 2.36Zm4.72 4.72a1.18 1.18 0 1 0 0-2.36 1.18 1.18 0 0 0 0 2.36Z" fill="#fff"/><path fill-rule="evenodd" clip-rule="evenodd" d="M21.597 6.428c-.548 0-1 .452-1 1v10.17c0 .547.452 1 1 1h3.32a1 1 0 0 1 1 1v1.126l1.833-1.833a1 1 0 0 1 .707-.293h3.3c.548 0 1-.453 1-1V7.428c0-.548-.452-1-1-1h-10.16Zm10.16-2c1.652 0 3 1.347 3 3v10.17c0 1.652-1.347 3-3 3h-2.886l-3.247 3.247a1 1 0 0 1-1.707-.707v-2.54h-2.32c-1.652 0-3-1.348-3-3V7.428a3.006 3.006 0 0 1 2.99-3h10.17ZM37.55 36.93a1 1 0 0 1 1.414 0l5.22 5.22a1 1 0 1 1-1.414 1.414l-5.22-5.22a1 1 0 0 1 0-1.414Z" fill="#fff"/><path fill-rule="evenodd" clip-rule="evenodd" d="M26.297 26.627a1 1 0 0 1 1-1h11.19c2.05 0 3.077 2.477 1.627 3.927l-1.163 1.163 5.433 5.433a1 1 0 0 1-1.414 1.414l-6.14-6.14a1 1 0 0 1 0-1.414l1.87-1.87a.3.3 0 0 0-.213-.513h-10.19v10.19a.3.3 0 0 0 .513.213l1.87-1.87a1 1 0 0 1 1.414 0l6.14 6.14a1 1 0 0 1-1.414 1.414l-5.433-5.433-1.163 1.163c-1.45 1.45-3.927.423-3.927-1.627v-11.19ZM5.15 21.873a1 1 0 0 1 1.414 0l5.22 5.22a1 1 0 0 1-1.415 1.414l-5.22-5.22a1 1 0 0 1 0-1.414Z" fill="#fff"/><path fill-rule="evenodd" clip-rule="evenodd" d="M11.1 21.723a1 1 0 0 1 1.414 0l5.433 5.433 1.163-1.163c1.45-1.45 3.927-.424 3.927 1.627v11.19a1 1 0 0 1-1 1h-11.18c-2.05 0-3.077-2.477-1.627-3.927l1.163-1.163-5.433-5.433a1 1 0 1 1 1.414-1.414l6.14 6.14a1 1 0 0 1 0 1.414l-1.87 1.87a.3.3 0 0 0 .213.513h10.18V27.62a.3.3 0 0 0-.513-.213l-1.87 1.87a1 1 0 0 1-1.414 0l-6.14-6.14a1 1 0 0 1 0-1.414Z" fill="#fff"/></svg>