<svg width="80" height="80" fill="none" xmlns="http://www.w3.org/2000/svg"><rect width="80" height="80" rx="40" fill="#F9F9F9"/><g clip-path="url(#a)"><path d="M20.136 49 18 51.139l-.861.861H12v-3h8.136ZM36 28v3H12v-3h24Z" fill="#414652"/><path d="M35.985 43H36v-9a3 3 0 0 0-3-3h-9v.015A2.985 2.985 0 0 0 26.985 34h3.9L21 43.879v4.256L33 36.12v3.9A2.985 2.985 0 0 0 35.985 43Z" fill="#FF444F"/></g><g clip-path="url(#b)"><path d="m49.121 49-3 3H44v-3h5.121ZM68 28v3H44v-3h24Z" fill="#414652"/><path d="M67.985 38.5A2.985 2.985 0 0 0 65 41.485v2.4L59.621 38.5a3 3 0 0 0-4.242 0L50 43.88v4.241l7.5-7.5 5.379 5.38h-2.4a2.985 2.985 0 0 0-2.979 2.984V49H65a3 3 0 0 0 3-3v-7.5h-.015Z" fill="#FF444F"/></g><defs><clipPath id="a"><path fill="#fff" transform="translate(12 28)" d="M0 0h24v24H0z"/></clipPath><clipPath id="b"><path fill="#fff" transform="translate(44 28)" d="M0 0h24v24H0z"/></clipPath></defs></svg>