<svg width="49" height="48" fill="none" xmlns="http://www.w3.org/2000/svg"><path fill-rule="evenodd" clip-rule="evenodd" d="M32.994 8a1 1 0 0 1 1-1h1.23c1.55 0 2.523 1.692 1.717 3.026L35.759 12h1.235a1 1 0 1 1 0 2h-3a1 1 0 0 1-.858-1.514L35.224 9h-1.23a1 1 0 0 1-1-1Zm6-1a1 1 0 0 1 1 1v1h2a1 1 0 0 1 1 1v3a1 1 0 1 1-2 0v-2h-2a1 1 0 0 1-1-1V8a1 1 0 0 1 1-1Z" fill="#fff"/><path fill-rule="evenodd" clip-rule="evenodd" d="M28.994 5c0-1.652 1.348-3 3-3h12c1.652 0 3 1.348 3 3v10c0 1.652-1.348 3-3 3h-2.586l-3.707 3.707A1 1 0 0 1 35.994 21v-3h-4c-1.652 0-3-1.348-3-3V5Zm3-1c-.548 0-1 .452-1 1v10c0 .548.452 1 1 1h5a1 1 0 0 1 1 1v1.586l2.293-2.293a1 1 0 0 1 .707-.293h3c.548 0 1-.452 1-1V5c0-.548-.452-1-1-1h-12Zm-24 21a3 3 0 0 0-3 3v13a3 3 0 0 0 3 3h22a3 3 0 0 0 3-3V28a3 3 0 0 0-3-3h-22Zm-5 3a5 5 0 0 1 5-5h22a5 5 0 0 1 5 5v13a5 5 0 0 1-5 5h-22a5 5 0 0 1-5-5V28Z" fill="#fff"/><path fill-rule="evenodd" clip-rule="evenodd" d="M9.994 21a1 1 0 0 1 1 1v4a1 1 0 1 1-2 0v-4a1 1 0 0 1 1-1Zm16 0a1 1 0 0 1 1 1v4a1 1 0 1 1-2 0v-4a1 1 0 0 1 1-1Zm-8 0a1 1 0 0 1 1 1v4a1 1 0 1 1-2 0v-4a1 1 0 0 1 1-1Z" fill="#fff"/><path d="M9.994 31c-.55 0-1 .45-1 1s.45 1 1 1 1-.45 1-1-.45-1-1-1Zm6 0c-.55 0-1 .45-1 1s.45 1 1 1 1-.45 1-1-.45-1-1-1Zm6 0c-.55 0-1 .45-1 1s.45 1 1 1 1-.45 1-1-.45-1-1-1Zm6 0c-.55 0-1 .45-1 1s.45 1 1 1 1-.45 1-1-.45-1-1-1Zm-18 4c-.55 0-1 .45-1 1s.45 1 1 1 1-.45 1-1-.45-1-1-1Zm6 0c-.55 0-1 .45-1 1s.45 1 1 1 1-.45 1-1-.45-1-1-1Zm6 0c-.55 0-1 .45-1 1s.45 1 1 1 1-.45 1-1-.45-1-1-1Zm6 0c-.55 0-1 .45-1 1s.45 1 1 1 1-.45 1-1-.45-1-1-1Zm-18 4c-.55 0-1 .45-1 1s.45 1 1 1 1-.45 1-1-.45-1-1-1Zm6 0c-.55 0-1 .45-1 1s.45 1 1 1 1-.45 1-1-.45-1-1-1Zm6 0c-.55 0-1 .45-1 1s.45 1 1 1 1-.45 1-1-.45-1-1-1Zm6 0c-.55 0-1 .45-1 1s.45 1 1 1 1-.45 1-1-.45-1-1-1Z" fill="#fff"/></svg>