<svg width="49" height="48" fill="none" xmlns="http://www.w3.org/2000/svg"><path d="M20.794 35.7c.28.76 1.02 1.3 1.87 1.3 1.1 0 2-.9 2-2s-.9-2-2-2-2 .9-2 2c0 .25.04.48.13.7Zm7.17 3.43c-.76.28-1.3 1.02-1.3 1.87 0 1.1.9 2 2 2s2-.9 2-2-.9-2-2-2c-.25 0-.48.04-.7.13Zm8.83-7.43c.28.76 1.02 1.3 1.87 1.3 1.1 0 2-.9 2-2s-.9-2-2-2-2 .9-2 2c0 .25.04.48.13.7ZM15.664 44a2 2 0 1 0 0-4 2 2 0 0 0 0 4Zm-5.5-5.5a2 2 0 1 0 0-4 2 2 0 0 0 0 4Zm10.5-1.5-3 3m9-1-2-2m12-4-6 6m10-6 3 3m-32 2 2 2m-5-2-3 3" stroke="#fff" stroke-width="2" stroke-linecap="round" stroke-linejoin="round"/><path clip-rule="evenodd" d="M22.664 5h-14c-1.1 0-2 .9-2 2v18.46c0 1.1.9 2 2 2h5.46l3.54 3.54v-3.54h5c1.1 0 2-.9 2-2V7c0-1.1-.9-2-2-2Z" stroke="#fff" stroke-width="2" stroke-linecap="round" stroke-linejoin="round"/><path d="M12.664 20h6v2c0 1.1-.9 2-2 2h-2c-1.1 0-2-.9-2-2v-2Z" stroke="#fff" stroke-width="2" stroke-linecap="round" stroke-linejoin="round"/><path clip-rule="evenodd" d="M20.664 14c0-2.76-2.24-5-5-5s-5 2.24-5 5c0 1.63.79 3.06 2 3.98V20h6v-2.02c1.21-.91 2-2.35 2-3.98Z" stroke="#fff" stroke-width="2" stroke-linecap="round" stroke-linejoin="round"/><path d="m15.164 16 1-1-1-1 1-1m21.5 12v-1m-3 2-1-1m0 4h-1m5-9a9 9 0 0 0-9 9" stroke="#fff" stroke-width="2" stroke-linecap="round" stroke-linejoin="round"/></svg>