<svg width="50" height="50" fill="none" xmlns="http://www.w3.org/2000/svg"><path opacity=".01" fill="#fff" stroke="#979797" d="M1 1h48v48H1z"/><path fill-rule="evenodd" clip-rule="evenodd" d="M16.707 9.816 1 16.688v12.877c0 6.924 3.999 13.3 10.435 16.637l5.272 2.733 5.272-2.733c6.435-3.337 10.434-9.713 10.434-16.637V16.688L16.707 9.816Z" fill="#85ACAF"/><path fill-rule="evenodd" clip-rule="evenodd" d="M26.144 32.856h-1.578v2.267h-2.099v-2.267h-5.424v-1.88l4.785-7.573h2.738v6.14h-2.099v-3.99h-.042l-3.492 5.59h7.211v1.713Zm-10.412 2.267h-8.26v-2.049l3.76-3.207c.628-.538 1.092-1.027 1.394-1.47a2.46 2.46 0 0 0 .455-1.418v-.168c0-.56-.158-.985-.47-1.277-.315-.29-.751-.436-1.311-.436-.616 0-1.086.168-1.411.504a2.94 2.94 0 0 0-.704 1.242l-1.915-.722c.122-.38.3-.746.529-1.099.229-.353.515-.663.856-.932a4.127 4.127 0 0 1 1.218-.647c.47-.162 1.006-.243 1.613-.243.626 0 1.183.086 1.669.26.488.174.9.414 1.234.723.336.307.59.673.764 1.099.174.426.26.89.26 1.393 0 .483-.074.924-.226 1.327-.151.404-.36.787-.63 1.15a7.39 7.39 0 0 1-.948 1.05 19.96 19.96 0 0 1-1.183 1.007l-2.553 2.066h5.86v1.847Z" fill="#fff"/><path fill-rule="evenodd" clip-rule="evenodd" d="M48.02 25.504h-3.619c0-10.976-8.93-19.905-19.906-19.905v-3.62c12.972 0 23.525 10.553 23.525 23.525Z" fill="#FF444F" style="mix-blend-mode:multiply"/><path fill-rule="evenodd" clip-rule="evenodd" d="M41.227 25.504H37.61c0-7.23-5.884-13.114-13.113-13.114V8.772c9.227 0 16.732 7.506 16.732 16.732Z" fill="#FF444F" style="mix-blend-mode:multiply"/><path fill-rule="evenodd" clip-rule="evenodd" d="M34.08 25.504h-3.62a5.971 5.971 0 0 0-5.964-5.965v-3.62c5.283 0 9.583 4.3 9.583 9.585Z" fill="#FF444F" style="mix-blend-mode:multiply"/></svg>