<svg width="32" height="32" fill="none" xmlns="http://www.w3.org/2000/svg"><path d="M32 5.757c-1.19.535-2.458.89-3.78 1.062A6.663 6.663 0 0 0 31.106 3.1a12.913 12.913 0 0 1-4.16 1.629 6.499 6.499 0 0 0-4.792-2.13c-3.632 0-6.556 3.024-6.556 6.73a7.1 7.1 0 0 0 .152 1.535C10.296 10.591 5.47 7.91 2.228 3.826a6.907 6.907 0 0 0-.898 3.401c0 2.33 1.17 4.396 2.914 5.592a6.356 6.356 0 0 1-2.964-.829v.074c0 3.27 2.274 5.986 5.256 6.611a6.391 6.391 0 0 1-1.72.222c-.42 0-.844-.025-1.242-.115.85 2.665 3.262 4.624 6.13 4.687a12.974 12.974 0 0 1-8.134 2.87c-.538 0-1.054-.024-1.57-.092a18.136 18.136 0 0 0 10.064 3.02c12.072 0 18.672-10.257 18.672-19.147 0-.298-.01-.585-.024-.87 1.302-.948 2.396-2.131 3.288-3.493Z" fill="#414652" fill-opacity=".8"/></svg>