<svg width="24" height="16" fill="none" xmlns="http://www.w3.org/2000/svg"><mask id="a" style="mask-type:alpha" maskUnits="userSpaceOnUse" x="0" y="0" width="24" height="16"><path d="M22 0H2a2 2 0 0 0-2 2v12a2 2 0 0 0 2 2h20a2 2 0 0 0 2-2V2a2 2 0 0 0-2-2Z" fill="#fff"/></mask><g mask="url(#a)"><path d="M22 0H2a2 2 0 0 0-2 2v12a2 2 0 0 0 2 2h20a2 2 0 0 0 2-2V2a2 2 0 0 0-2-2Z" fill="#0D47A1"/><path d="M23.975 1.537A1.806 1.806 0 0 0 22.203.013h-.468l-7.666 5.102V.013H9.931v5.102L2.265.013h-.468C.906.013.167.673.025 1.537l6.552 4.361H0v4.204h6.577l-6.552 4.36a1.806 1.806 0 0 0 1.772 1.525h.468l7.666-5.102v5.102h4.138v-5.102l7.666 5.102h.468c.891 0 1.63-.66 1.772-1.524l-6.552-4.361H24V5.898h-6.577l6.552-4.36Z" fill="#fff"/><path d="M13.241.013V6.74H24v2.52H13.241v6.726H10.76V9.26H0V6.74h10.759V.013h2.482ZM9.908 10.102l-8.746 5.767a1.794 1.794 0 0 1-.606-.389l-.124-.132 7.956-5.246h1.52Zm6.329 0 7.527 4.963a1.83 1.83 0 0 1-.439.521l-.137.102-8.471-5.586h1.52ZM.725.373l8.378 5.525h-1.52L.19 1.023C.316.766.5.543.725.373ZM22.824.125a1.8 1.8 0 0 1 .735.517l-7.97 5.256h-1.52L22.823.125Z" fill="#F44336"/><path fill-rule="evenodd" clip-rule="evenodd" d="M22 1H2a1 1 0 0 0-1 1v12a1 1 0 0 0 1 1h20a1 1 0 0 0 1-1V2a1 1 0 0 0-1-1ZM2 0a2 2 0 0 0-2 2v12a2 2 0 0 0 2 2h20a2 2 0 0 0 2-2V2a2 2 0 0 0-2-2H2Z" fill="#000" fill-opacity=".04"/></g></svg>09V62.95ZM26.546 48.523h14.09v.634H26.55l-.005-.634Zm14.09-1.04h-3.354V36.825a.52.52 0 0 0-1.04 0v10.658h-2.245V36.825a.52.52 0 0 0-1.04 0v10.658H30.71V36.825a.52.52 0 1 0-1.04 0v10.658h-3.12V34.73h14.09l-.005 12.753Zm-.193-13.793H26.676l-.603-1.097h14.973l-.603 1.097Zm.952-2.137h-15.68V20.76h15.68v10.793ZM16.96 62.96h-6.582a.52.52 0 0 0 0 1.04h6.581a.52.52 0 0 0 0-1.04Z"/><path d="M48.055 60.1h-3.12a.52.52 0 0 0 0 1.04h3.12a.52.52 0 0 0 0-1.04Zm-27.618 0h-4.97a.52.52 0 0 0 0 1.04h4.97a.52.52 0 0 0 0-1.04Z"/></g><defs><clipPath id="a"><path fill="#fff" d="M0 0h64v64H0z"/></clipPath></defs></svg>