<svg width="32" height="32" fill="none" xmlns="http://www.w3.org/2000/svg"><mask id="a" style="mask-type:alpha" maskUnits="userSpaceOnUse" x="0" y="6" width="24" height="16"><path d="M22 6H2a2 2 0 0 0-2 2v12a2 2 0 0 0 2 2h20a2 2 0 0 0 2-2V8a2 2 0 0 0-2-2Z" fill="#fff"/></mask><g mask="url(#a)"><path d="M22 6H2a2 2 0 0 0-2 2v12a2 2 0 0 0 2 2h20a2 2 0 0 0 2-2V8a2 2 0 0 0-2-2Z" fill="#fff"/><path d="M24 20.688c0 .725-.587 1.312-1.312 1.312H1.312A1.312 1.312 0 0 1 0 20.688h24Zm0-2.448v1.224H0V18.24h24Zm0-2.448v1.224H0v-1.224h24Zm0-2.448v1.224H0v-1.224h24Zm0-2.448v1.224H0v-1.224h24Zm0-2.448v1.224H0V8.448h24ZM22.776 6c.634 0 1.155.482 1.218 1.099l.006.125H.688C.688 6.548 1.236 6 1.912 6h20.864Z" fill="#F44336"/><path d="M2 6h9.5v8.568H0V8a2 2 0 0 1 2-2Z" fill="#0D47A1"/><path d="m1.094 12.817.095.281h.295a.04.04 0 0 1 .024.072l-.24.176.09.282a.04.04 0 0 1-.061.043l-.24-.172-.24.172a.04.04 0 0 1-.062-.043l.099-.28-.24-.177a.04.04 0 0 1 .024-.071h.296l.095-.282c.006-.04.054-.04.065-.001Zm9.035-.026c.016 0 .03.01.034.026l.095.281h.295a.04.04 0 0 1 .024.072l-.24.176.09.282a.04.04 0 0 1-.061.043l-.24-.172-.24.172a.04.04 0 0 1-.062-.043l.099-.28-.24-.177a.04.04 0 0 1 .024-.071h.295l.095-.282a.033.033 0 0 1 .032-.027Zm-2.269 0c.016 0 .03.01.034.026l.095.281h.295a.04.04 0 0 1 .024.072l-.24.176.09.282a.04.04 0 0 1-.061.043l-.24-.172-.24.172a.04.04 0 0 1-.062-.043l.099-.28-.24-.177a.04.04 0 0 1 .024-.071h.295l.095-.282a.033.033 0 0 1 .032-.027Zm-4.498.026.095.281h.295a.04.04 0 0 1 .024.072l-.24.176.09.282a.04.04 0 0 1-.061.043l-.24-.172-.24.172a.04.04 0 0 1-.062-.043l.099-.28-.24-.177a.04.04 0 0 1 .024-.071h.296l.095-.282c0-.04.054-.04.065-.001Zm2.269 0 .095.281h.295a.04.04 0 0 1 .024.072l-.24.176.09.282a.04.04 0 0 1-.061.043l-.24-.172-.24.172a.04.04 0 0 1-.062-.043l.099-.28-.24-.177a.04.04 0 0 1 .024-.071h.296l.095-.282c0-.04.053-.04.065-.001Zm-3.403-.744.095.281h.296a.04.04 0 0 1 .024.072l-.24.176.09.282a.04.04 0 0 1-.062.043l-.24-.172-.24.172a.04.04 0 0 1-.061-.043l.09-.282-.24-.176a.04.04 0 0 1 .024-.072h.304l.095-.281c.006-.039.054-.039.065 0Zm6.782-.032a.037.037 0 0 1 .018.032l.095.281h.296a.04.04 0 0 1 .024.072l-.24.176.09.282a.04.04 0 0 1-.062.043l-.24-.172-.24.172a.04.04 0 0 1-.061-.043l.09-.282-.24-.176a.04.04 0 0 1 .024-.072h.295l.096-.281a.037.037 0 0 1 .055-.032Zm-2.245.032.095.281h.295a.04.04 0 0 1 .024.072l-.24.176.09.282a.04.04 0 0 1-.06.043l-.24-.172-.24.172a.04.04 0 0 1-.062-.043l.09-.282-.24-.176a.04.04 0 0 1 .024-.072h.295l.095-.281c.01-.039.063-.039.074 0Zm-2.269 0 .095.281h.296a.04.04 0 0 1 .024.072l-.24.176.09.282a.04.04 0 0 1-.062.043l-.24-.172-.24.172a.04.04 0 0 1-.061-.043l.09-.282-.24-.176a.04.04 0 0 1 .024-.072h.304l.095-.281c.001-.039.054-.039.065 0Zm-1.134-.721.095.282h.295a.04.04 0 0 1 .024.07l-.24.178.09.281a.04.04 0 0 1-.061.043l-.24-.172-.24.172a.04.04 0 0 1-.062-.043l.09-.281-.24-.177a.04.04 0 0 1 .025-.071h.304l.095-.282c0-.033.054-.033.065 0Zm6.8 0 .096.282h.295a.04.04 0 0 1 .024.07l-.24.178.09.281a.04.04 0 0 1-.061.043l-.24-.172-.24.172a.04.04 0 0 1-.062-.043l.09-.281-.24-.177a.04.04 0 0 1 .025-.071h.295l.095-.282c.014-.033.067-.033.074 0Zm-9.068 0 .095.282h.295a.04.04 0 0 1 .024.07l-.24.178.09.281a.04.04 0 0 1-.061.043l-.24-.172-.24.172a.04.04 0 0 1-.062-.043l.09-.281-.24-.177a.04.04 0 0 1 .025-.071h.304l.095-.282c.006-.033.054-.033.065 0Zm6.8 0 .095.282h.295a.04.04 0 0 1 .024.07l-.24.178.09.281a.04.04 0 0 1-.061.043l-.24-.172-.24.172a.04.04 0 0 1-.062-.043l.09-.281-.24-.177a.04.04 0 0 1 .025-.071h.295l.095-.282c.015-.033.067-.033.074 0Zm-2.263 0 .095.282h.295a.04.04 0 0 1 .024.07l-.24.178.09.281a.04.04 0 0 1-.061.043l-.24-.172-.24.172a.04.04 0 0 1-.062-.043l.09-.281-.24-.177a.04.04 0 0 1 .025-.071h.304l.095-.282c0-.033.053-.033.065 0Zm-3.403-.743.095.281h.296a.04.04 0 0 1 .024.072l-.24.176.09.282a.04.04 0 0 1-.062.043l-.24-.172-.24.172a.04.04 0 0 1-.061-.043l.098-.28-.24-.177a.04.04 0 0 1 .024-.071h.296l.095-.282c.006-.04.054-.04.065-.001Zm6.763-.037c.02 0 .037.017.037.037l.095.281h.296a.04.04 0 0 1 .024.072l-.24.176.09.282a.04.04 0 0 1-.062.043l-.24-.172-.24.172a.04.04 0 0 1-.061-.043l.09-.282-.24-.176a.04.04 0 0 1 .024-.072h.295l.096-.281c0-.02.016-.037.036-.037Zm-2.226.037.095.281h.295a.04.04 0 0 1 .024.072l-.24.176.09.282a.04.04 0 0 1-.06.043l-.24-.172-.24.172a.04.04 0 0 1-.062-.043l.09-.282-.24-.176a.04.04 0 0 1 .024-.072h.295l.095-.281c.01-.039.063-.039.074 0Zm-2.269 0 .095.281h.296a.04.04 0 0 1 .024.072l-.24.176.09.282a.04.04 0 0 1-.062.043l-.24-.172-.24.172a.04.04 0 0 1-.061-.043l.098-.28-.24-.177a.04.04 0 0 1 .024-.071h.296l.095-.282c.001-.04.054-.04.065-.001Zm-1.134-.716.095.281h.295a.04.04 0 0 1 .024.072l-.24.176.09.282a.04.04 0 0 1-.061.043l-.24-.172-.24.172a.04.04 0 0 1-.062-.043l.099-.28-.24-.177a.04.04 0 0 1 .024-.071h.296l.095-.282c0-.04.054-.04.065-.001Zm6.767-.026c.016 0 .03.01.034.026l.095.281h.295a.04.04 0 0 1 .024.072l-.24.176.09.282a.04.04 0 0 1-.061.043l-.24-.172-.24.172a.04.04 0 0 1-.062-.043l.099-.28-.24-.177a.04.04 0 0 1 .024-.071h.295l.095-.282a.034.034 0 0 1 .032-.027Zm-2.272-.011c.02 0 .037.016.037.037l.095.281h.295a.04.04 0 0 1 .024.072l-.24.176.09.282a.04.04 0 0 1-.061.043l-.24-.172-.24.172a.04.04 0 0 1-.062-.043l.09-.282-.24-.176a.04.04 0 0 1 .025-.072h.295l.095-.281c0-.02.017-.037.037-.037Zm-6.763.037.095.281h.295a.04.04 0 0 1 .024.072l-.24.176.09.282a.04.04 0 0 1-.061.043l-.24-.172-.24.172a.04.04 0 0 1-.062-.043l.099-.28-.24-.177a.04.04 0 0 1 .024-.071h.296l.095-.282c.006-.04.054-.04.065-.001Zm4.537 0 .095.281h.295a.04.04 0 0 1 .024.072l-.24.176.09.282a.04.04 0 0 1-.061.043l-.24-.172-.24.172a.04.04 0 0 1-.062-.043l.09-.282-.24-.176a.04.04 0 0 1 .025-.072h.304l.095-.281c0-.039.053-.039.065 0Zm-3.403-.75.095.282h.296a.04.04 0 0 1 .024.071l-.24.177.09.281a.04.04 0 0 1-.062.044l-.24-.172-.24.172a.04.04 0 0 1-.061-.044l.09-.281-.24-.177a.04.04 0 0 1 .024-.071h.304l.095-.282c.006-.033.054-.033.065 0Zm4.537 0 .095.282h.295a.04.04 0 0 1 .024.071l-.24.177.09.281a.04.04 0 0 1-.06.044l-.24-.172-.24.172a.04.04 0 0 1-.062-.044l.09-.281-.24-.177a.04.04 0 0 1 .024-.071h.295l.095-.282c.01-.033.063-.033.074 0Zm-2.269 0 .095.282h.296a.04.04 0 0 1 .024.071l-.24.177.09.281a.04.04 0 0 1-.062.044l-.24-.172-.24.172a.04.04 0 0 1-.061-.044l.09-.281-.24-.177a.04.04 0 0 1 .024-.071h.304l.095-.282c.001-.033.054-.033.065 0Zm4.532 0 .095.282h.296a.04.04 0 0 1 .024.071l-.24.177.09.281a.04.04 0 0 1-.062.044l-.24-.172-.24.172a.04.04 0 0 1-.061-.044l.09-.281-.24-.177a.04.04 0 0 1 .024-.071h.295l.096-.282c.014-.033.067-.033.073 0Zm-3.397-.715.095.282h.295a.04.04 0 0 1 .024.07l-.24.178.09.281a.04.04 0 0 1-.061.043l-.24-.172-.24.172a.04.04 0 0 1-.062-.043l.09-.281-.24-.177a.04.04 0 0 1 .025-.071h.304l.095-.282c0-.033.053-.033.065 0Zm-4.537 0 .095.282h.295a.04.04 0 0 1 .024.07l-.24.178.09.281a.04.04 0 0 1-.061.043l-.24-.172-.24.172a.04.04 0 0 1-.062-.043l.09-.281-.24-.177A.04.04 0 0 1 .63 8.71h.304l.095-.282c.006-.033.054-.033.065 0Zm2.271 0 .095.282h.297a.04.04 0 0 1 .024.07l-.24.178.09.281a.04.04 0 0 1-.061.043l-.24-.172-.24.172a.04.04 0 0 1-.062-.043l.09-.281-.24-.177a.04.04 0 0 1 .025-.071h.294l.095-.282c.006-.033.059-.033.073 0Zm4.529 0 .095.282h.295a.04.04 0 0 1 .024.07l-.24.178.09.281a.04.04 0 0 1-.061.043l-.24-.172-.24.172a.04.04 0 0 1-.062-.043l.09-.281-.24-.177a.04.04 0 0 1 .025-.071h.295l.095-.282c.015-.033.067-.033.074 0Zm2.269 0 .095.282h.295a.04.04 0 0 1 .024.07l-.24.178.09.281a.04.04 0 0 1-.061.043l-.24-.172-.24.172a.04.04 0 0 1-.062-.043l.09-.281-.24-.177A.04.04 0 0 1 9.7 8.71h.295l.095-.282c.014-.033.067-.033.074 0Zm-3.398-.744.095.282h.295a.04.04 0 0 1 .024.07l-.24.178.09.281a.04.04 0 0 1-.06.043l-.24-.172-.24.172a.04.04 0 0 1-.062-.043l.09-.281-.24-.177a.04.04 0 0 1 .024-.071h.295l.095-.282c.01-.038.063-.038.074 0Zm-2.269 0 .095.282h.296a.04.04 0 0 1 .024.07l-.24.178.09.281a.04.04 0 0 1-.062.043l-.24-.172-.24.172a.04.04 0 0 1-.061-.043l.098-.28-.24-.177a.04.04 0 0 1 .024-.07h.296l.095-.282c.001-.04.054-.04.065-.002Zm-2.268 0 .095.282h.296a.04.04 0 0 1 .024.07l-.24.178.09.281a.04.04 0 0 1-.062.043l-.24-.172-.24.172a.04.04 0 0 1-.061-.043l.098-.28-.24-.177a.04.04 0 0 1 .024-.07h.296l.095-.282c.006-.04.054-.04.065-.002Zm6.782-.032a.037.037 0 0 1 .018.032l.095.282h.296a.04.04 0 0 1 .024.07l-.24.178.09.281a.04.04 0 0 1-.062.043l-.24-.172-.24.172a.04.04 0 0 1-.061-.043l.09-.281-.24-.177a.04.04 0 0 1 .024-.071h.295l.096-.282a.037.037 0 0 1 .055-.032ZM1.094 6.97l.095.281h.295a.04.04 0 0 1 .024.072l-.24.176.09.282a.04.04 0 0 1-.061.043l-.24-.172-.24.172a.04.04 0 0 1-.062-.043l.099-.28-.24-.177a.04.04 0 0 1 .024-.071h.296l.095-.282c.006-.04.054-.04.065-.001Zm2.268 0 .095.281h.295a.04.04 0 0 1 .024.072l-.24.176.09.282a.04.04 0 0 1-.061.043l-.24-.172-.24.172a.04.04 0 0 1-.062-.043l.099-.28-.24-.177a.04.04 0 0 1 .024-.071h.296l.095-.282c0-.04.054-.04.065-.001Zm2.269 0 .095.281h.295a.04.04 0 0 1 .024.072l-.24.176.09.282a.04.04 0 0 1-.061.043l-.24-.172-.24.172a.04.04 0 0 1-.062-.043l.09-.282-.24-.176a.04.04 0 0 1 .025-.072h.304l.095-.281c0-.039.053-.039.065 0Zm2.244-.032a.037.037 0 0 1 .019.032l.095.281h.295a.04.04 0 0 1 .024.072l-.24.176.09.282a.04.04 0 0 1-.061.043l-.24-.172-.24.172a.04.04 0 0 1-.062-.043l.09-.282-.24-.176a.04.04 0 0 1 .025-.072h.295l.095-.281a.037.037 0 0 1 .055-.032Zm2.254.006c.016 0 .03.01.034.026l.095.281h.295a.04.04 0 0 1 .024.072l-.24.176.09.282a.04.04 0 0 1-.061.043l-.24-.172-.24.172a.04.04 0 0 1-.062-.043l.099-.28-.24-.177a.04.04 0 0 1 .024-.071h.295l.095-.282a.034.034 0 0 1 .032-.027Z" fill="#F5F5F5"/><path fill-rule="evenodd" clip-rule="evenodd" d="M22 7H2a1 1 0 0 0-1 1v12a1 1 0 0 0 1 1h20a1 1 0 0 0 1-1V8a1 1 0 0 0-1-1ZM2 6a2 2 0 0 0-2 2v12a2 2 0 0 0 2 2h20a2 2 0 0 0 2-2V8a2 2 0 0 0-2-2H2Z" fill="#000" fill-opacity=".04"/></g><path d="M30 14H10a2 2 0 0 0-2 2v12a2 2 0 0 0 2 2h20a2 2 0 0 0 2-2V16a2 2 0 0 0-2-2Z" fill="#F44336"/><path d="M24.552 20.319h-2.897v-2.943a.417.417 0 0 0-.414-.42h-2.483a.417.417 0 0 0-.413.42v2.943h-2.897a.417.417 0 0 0-.414.42v2.522c0 .232.185.42.414.42h2.896v2.943c0 .232.186.42.414.42h2.483a.417.417 0 0 0 .414-.42v-2.942h2.896a.417.417 0 0 0 .414-.42v-2.523a.417.417 0 0 0-.413-.42Z" fill="#fff"/><path fill-rule="evenodd" clip-rule="evenodd" d="M30 15H10a1 1 0 0 0-1 1v12a1 1 0 0 0 1 1h20a1 1 0 0 0 1-1V16a1 1 0 0 0-1-1Zm-20-1a2 2 0 0 0-2 2v12a2 2 0 0 0 2 2h20a2 2 0 0 0 2-2V16a2 2 0 0 0-2-2H10Z" fill="#000" fill-opacity=".04"/><rect x="22" width="10" height="8" rx="1" fill="#0E0E0E"/><path d="M23.958 6.26v-.564h1.176V2.564h-.048l-.972 1.038-.414-.372 1.068-1.158H25.8v3.624h1.02v.564h-2.862Zm4.87.072c-.26 0-.486-.048-.678-.144-.192-.1-.35-.242-.474-.426a1.975 1.975 0 0 1-.276-.678 4.224 4.224 0 0 1-.09-.918c0-.34.03-.644.09-.912.06-.272.152-.5.276-.684.124-.184.282-.324.474-.42.192-.1.418-.15.678-.15.52 0 .902.19 1.146.57.248.38.372.912.372 1.596s-.124 1.216-.372 1.596c-.244.38-.626.57-1.146.57Zm0-.576a.74.74 0 0 0 .366-.084.692.692 0 0 0 .252-.252c.064-.108.11-.236.138-.384a2.79 2.79 0 0 0 .042-.504V3.8c0-.184-.014-.35-.042-.498a1.18 1.18 0 0 0-.138-.39.7.7 0 0 0-.618-.336.732.732 0 0 0-.372.09.66.66 0 0 0-.246.246 1.18 1.18 0 0 0-.138.39 2.691 2.691 0 0 0-.042.498v.732c0 .184.014.352.042.504.028.148.074.276.138.384a.708.708 0 0 0 .246.252.774.774 0 0 0 .372.084Z" fill="#fff"/></svg>