<svg width="32" height="32" fill="none" xmlns="http://www.w3.org/2000/svg"><mask id="a" style="mask-type:alpha" maskUnits="userSpaceOnUse" x="0" y="6" width="24" height="16"><path d="M22 6H2a2 2 0 0 0-2 2v12a2 2 0 0 0 2 2h20a2 2 0 0 0 2-2V8a2 2 0 0 0-2-2Z" fill="#fff"/></mask><g mask="url(#a)"><path d="M22 6H2a2 2 0 0 0-2 2v12a2 2 0 0 0 2 2h20a2 2 0 0 0 2-2V8a2 2 0 0 0-2-2Z" fill="#fff"/><path d="M24 20.688c0 .725-.587 1.312-1.312 1.312H1.312A1.312 1.312 0 0 1 0 20.688h24Zm0-2.448v1.224H0V18.24h24Zm0-2.448v1.224H0v-1.224h24Zm0-2.448v1.224H0v-1.224h24Zm0-2.448v1.224H0v-1.224h24Zm0-2.448v1.224H0V8.448h24ZM22.776 6c.634 0 1.155.482 1.218 1.099l.006.125H.688C.688 6.548 1.236 6 1.912 6h20.864Z" fill="#F44336"/><path d="M2 6h9.5v8.568H0V8a2 2 0 0 1 2-2Z" fill="#0D47A1"/><path d="m1.093 12.817.095.281h.295a.04.04 0 0 1 .024.072l-.24.176.09.282a.04.04 0 0 1-.061.043l-.24-.172-.24.172a.04.04 0 0 1-.062-.043l.099-.28-.24-.177a.04.04 0 0 1 .024-.071h.296l.095-.282c.006-.04.054-.04.065-.001Zm9.035-.026c.016 0 .03.01.034.026l.095.281h.295a.04.04 0 0 1 .024.072l-.24.176.09.282a.04.04 0 0 1-.061.043l-.24-.172-.24.172a.04.04 0 0 1-.062-.043l.099-.28-.24-.177a.04.04 0 0 1 .024-.071H10l.095-.282a.034.034 0 0 1 .032-.027Zm-2.269 0c.016 0 .03.01.034.026l.095.281h.295a.04.04 0 0 1 .024.072l-.24.176.09.282a.04.04 0 0 1-.061.043l-.24-.172-.24.172a.04.04 0 0 1-.062-.043l.099-.28-.24-.177a.04.04 0 0 1 .024-.071h.295l.095-.282a.033.033 0 0 1 .032-.027Zm-4.498.026.095.281h.295a.04.04 0 0 1 .024.072l-.24.176.09.282a.04.04 0 0 1-.061.043l-.24-.172-.24.172a.04.04 0 0 1-.062-.043l.099-.28-.24-.177a.04.04 0 0 1 .024-.071H3.2l.095-.282c0-.04.054-.04.065-.001Zm2.269 0 .095.281h.295a.04.04 0 0 1 .024.072l-.24.176.09.282a.04.04 0 0 1-.061.043l-.24-.172-.24.172a.04.04 0 0 1-.062-.043l.099-.28-.24-.177a.04.04 0 0 1 .024-.071h.296l.095-.282c0-.04.053-.04.065-.001Zm-3.403-.744.095.281h.296a.04.04 0 0 1 .024.072l-.24.176.09.282a.04.04 0 0 1-.062.043l-.24-.172-.24.172a.04.04 0 0 1-.061-.043l.09-.282-.24-.176a.04.04 0 0 1 .024-.072h.304l.095-.281c.006-.039.054-.039.065 0Zm6.782-.032a.037.037 0 0 1 .018.032l.095.281h.296a.04.04 0 0 1 .024.072l-.24.176.09.282a.04.04 0 0 1-.062.043l-.24-.172-.24.172a.04.04 0 0 1-.061-.043l.09-.282-.24-.176a.04.04 0 0 1 .024-.072h.295l.096-.281a.037.037 0 0 1 .055-.032Zm-2.245.032.095.281h.295a.04.04 0 0 1 .024.072l-.24.176.09.282a.04.04 0 0 1-.06.043l-.24-.172-.24.172a.04.04 0 0 1-.062-.043l.09-.282-.24-.176a.04.04 0 0 1 .024-.072h.295l.095-.281c.01-.039.063-.039.074 0Zm-2.269 0 .095.281h.296a.04.04 0 0 1 .024.072l-.24.176.09.282a.04.04 0 0 1-.062.043l-.24-.172-.24.172a.04.04 0 0 1-.061-.043l.09-.282-.24-.176a.04.04 0 0 1 .024-.072h.304l.095-.281c.001-.039.054-.039.065 0Zm-1.134-.721.095.282h.295a.04.04 0 0 1 .024.07l-.24.178.09.281a.04.04 0 0 1-.061.043l-.24-.172-.24.172a.04.04 0 0 1-.062-.043l.09-.281-.24-.177a.04.04 0 0 1 .025-.071H3.2l.095-.282c0-.033.054-.033.065 0Zm6.8 0 .096.282h.295a.04.04 0 0 1 .024.07l-.24.178.09.281a.04.04 0 0 1-.061.043l-.24-.172-.24.172a.04.04 0 0 1-.062-.043l.09-.281-.24-.177a.04.04 0 0 1 .025-.071h.295l.095-.282c.014-.033.067-.033.074 0Zm-9.068 0 .095.282h.295a.04.04 0 0 1 .024.07l-.24.178.09.281a.04.04 0 0 1-.061.043l-.24-.172-.24.172a.04.04 0 0 1-.062-.043l.09-.281-.24-.177a.04.04 0 0 1 .025-.071h.304l.095-.282c.006-.033.054-.033.065 0Zm6.8 0 .095.282h.295a.04.04 0 0 1 .024.07l-.24.178.09.281a.04.04 0 0 1-.061.043l-.24-.172-.24.172a.04.04 0 0 1-.062-.043l.09-.281-.24-.177a.04.04 0 0 1 .025-.071h.295l.095-.282c.015-.033.067-.033.074 0Zm-2.263 0 .095.282h.295a.04.04 0 0 1 .024.07l-.24.178.09.281a.04.04 0 0 1-.061.043l-.24-.172-.24.172a.04.04 0 0 1-.062-.043l.09-.281-.24-.177a.04.04 0 0 1 .025-.071h.304l.095-.282c0-.033.053-.033.065 0Zm-3.403-.743.095.281h.296a.04.04 0 0 1 .024.072l-.24.176.09.282a.04.04 0 0 1-.062.043l-.24-.172-.24.172a.04.04 0 0 1-.061-.043l.098-.28-.24-.177a.04.04 0 0 1 .024-.071h.296l.095-.282c.006-.04.054-.04.065-.001Zm6.763-.037c.02 0 .037.017.037.037l.095.281h.296a.04.04 0 0 1 .024.072l-.24.176.09.282a.04.04 0 0 1-.062.043l-.24-.172-.24.172a.04.04 0 0 1-.061-.043l.09-.282-.24-.176a.04.04 0 0 1 .024-.072h.295l.096-.281c0-.02.016-.037.036-.037Zm-2.226.037.095.281h.295a.04.04 0 0 1 .024.072l-.24.176.09.282a.04.04 0 0 1-.06.043l-.24-.172-.24.172a.04.04 0 0 1-.062-.043l.09-.282-.24-.176a.04.04 0 0 1 .024-.072h.295l.095-.281c.01-.039.063-.039.074 0Zm-2.269 0 .095.281h.296a.04.04 0 0 1 .024.072l-.24.176.09.282a.04.04 0 0 1-.062.043l-.24-.172-.24.172a.04.04 0 0 1-.061-.043l.098-.28-.24-.177a.04.04 0 0 1 .024-.071h.296l.095-.282c.001-.04.054-.04.065-.001Zm-1.134-.716.095.281h.295a.04.04 0 0 1 .024.072l-.24.176.09.282a.04.04 0 0 1-.061.043l-.24-.172-.24.172a.04.04 0 0 1-.062-.043l.099-.28-.24-.177a.04.04 0 0 1 .024-.071H3.2l.095-.282c0-.04.054-.04.065-.001Zm6.767-.026c.016 0 .03.01.034.026l.095.281h.295a.04.04 0 0 1 .024.072l-.24.176.09.282a.04.04 0 0 1-.061.043l-.24-.172-.24.172a.04.04 0 0 1-.062-.043l.099-.28-.24-.177a.04.04 0 0 1 .024-.071H10l.095-.282a.034.034 0 0 1 .032-.027Zm-2.272-.011c.02 0 .037.016.037.037l.095.281h.295a.04.04 0 0 1 .024.072l-.24.176.09.282a.04.04 0 0 1-.061.043l-.24-.172-.24.172a.04.04 0 0 1-.062-.043l.09-.282-.24-.176a.04.04 0 0 1 .025-.072h.295l.095-.281c0-.02.017-.037.037-.037Zm-6.763.037.095.281h.295a.04.04 0 0 1 .024.072l-.24.176.09.282a.04.04 0 0 1-.061.043l-.24-.172-.24.172a.04.04 0 0 1-.062-.043l.099-.28-.24-.177a.04.04 0 0 1 .024-.071h.296l.095-.282c.006-.04.054-.04.065-.001Zm4.537 0 .095.281h.295a.04.04 0 0 1 .024.072l-.24.176.09.282a.04.04 0 0 1-.061.043l-.24-.172-.24.172a.04.04 0 0 1-.062-.043l.09-.282-.24-.176a.04.04 0 0 1 .025-.072h.304l.095-.281c0-.039.053-.039.065 0Zm-3.403-.75.095.282h.296a.04.04 0 0 1 .024.071l-.24.177.09.281a.04.04 0 0 1-.062.044l-.24-.172-.24.172a.04.04 0 0 1-.061-.044l.09-.281-.24-.177a.04.04 0 0 1 .024-.071h.304l.095-.282c.006-.033.054-.033.065 0Zm4.537 0 .095.282h.295a.04.04 0 0 1 .024.071l-.24.177.09.281a.04.04 0 0 1-.06.044l-.24-.172-.24.172a.04.04 0 0 1-.062-.044l.09-.281-.24-.177a.04.04 0 0 1 .024-.071h.295l.095-.282c.01-.033.063-.033.074 0Zm-2.269 0 .095.282h.296a.04.04 0 0 1 .024.071l-.24.177.09.281a.04.04 0 0 1-.062.044l-.24-.172-.24.172a.04.04 0 0 1-.061-.044l.09-.281-.24-.177a.04.04 0 0 1 .024-.071h.304l.095-.282c.001-.033.054-.033.065 0Zm4.532 0 .095.282h.296a.04.04 0 0 1 .024.071l-.24.177.09.281a.04.04 0 0 1-.062.044l-.24-.172-.24.172a.04.04 0 0 1-.061-.044l.09-.281-.24-.177a.04.04 0 0 1 .024-.071h.295l.096-.282c.014-.033.067-.033.073 0ZM5.63 8.428l.095.282h.295a.04.04 0 0 1 .024.07l-.24.178.09.281a.04.04 0 0 1-.061.043l-.24-.172-.24.172a.04.04 0 0 1-.062-.043l.09-.281-.24-.177a.04.04 0 0 1 .025-.071h.304l.095-.282c0-.033.053-.033.065 0Zm-4.537 0 .095.282h.295a.04.04 0 0 1 .024.07l-.24.178.09.281a.04.04 0 0 1-.061.043l-.24-.172-.24.172a.04.04 0 0 1-.062-.043l.09-.281-.24-.177A.04.04 0 0 1 .63 8.71h.304l.095-.282c.006-.033.054-.033.065 0Zm2.271 0 .095.282h.297a.04.04 0 0 1 .024.07l-.24.178.09.281a.04.04 0 0 1-.061.043l-.24-.172-.24.172a.04.04 0 0 1-.062-.043l.09-.281-.24-.177a.04.04 0 0 1 .025-.071h.294l.095-.282c.006-.033.059-.033.073 0Zm4.529 0 .095.282h.295a.04.04 0 0 1 .024.07l-.24.178.09.281a.04.04 0 0 1-.061.043l-.24-.172-.24.172a.04.04 0 0 1-.062-.043l.09-.281-.24-.177a.04.04 0 0 1 .025-.071h.295l.095-.282c.015-.033.067-.033.074 0Zm2.269 0 .095.282h.295a.04.04 0 0 1 .024.07l-.24.178.09.281a.04.04 0 0 1-.061.043l-.24-.172-.24.172a.04.04 0 0 1-.062-.043l.09-.281-.24-.177a.04.04 0 0 1 .025-.071h.295l.095-.282c.014-.033.067-.033.074 0Zm-3.398-.744.095.282h.295a.04.04 0 0 1 .024.07l-.24.178.09.281a.04.04 0 0 1-.06.043l-.24-.172-.24.172a.04.04 0 0 1-.062-.043l.09-.281-.24-.177a.04.04 0 0 1 .024-.071h.295l.095-.282c.01-.038.063-.038.074 0Zm-2.269 0 .095.282h.296a.04.04 0 0 1 .024.07l-.24.178.09.281a.04.04 0 0 1-.062.043l-.24-.172-.24.172a.04.04 0 0 1-.061-.043l.098-.28-.24-.177a.04.04 0 0 1 .024-.07h.296l.095-.282c.001-.04.054-.04.065-.002Zm-2.268 0 .095.282h.296a.04.04 0 0 1 .024.07l-.24.178.09.281a.04.04 0 0 1-.062.043l-.24-.172-.24.172a.04.04 0 0 1-.061-.043l.098-.28-.24-.177a.04.04 0 0 1 .024-.07h.296l.095-.282c.006-.04.054-.04.065-.002Zm6.782-.032a.037.037 0 0 1 .018.032l.095.282h.296a.04.04 0 0 1 .024.07l-.24.178.09.281a.04.04 0 0 1-.062.043l-.24-.172-.24.172a.04.04 0 0 1-.061-.043l.09-.281-.24-.177a.04.04 0 0 1 .024-.071h.295l.096-.282a.037.037 0 0 1 .055-.032ZM1.093 6.97l.095.281h.295a.04.04 0 0 1 .024.072l-.24.176.09.282a.04.04 0 0 1-.061.043l-.24-.172-.24.172a.04.04 0 0 1-.062-.043l.099-.28-.24-.177a.04.04 0 0 1 .024-.071h.296l.095-.282c.006-.04.054-.04.065-.001Zm2.268 0 .095.281h.295a.04.04 0 0 1 .024.072l-.24.176.09.282a.04.04 0 0 1-.061.043l-.24-.172-.24.172a.04.04 0 0 1-.062-.043l.099-.28-.24-.177a.04.04 0 0 1 .024-.071H3.2l.095-.282c0-.04.054-.04.065-.001Zm2.269 0 .095.281h.295a.04.04 0 0 1 .024.072l-.24.176.09.282a.04.04 0 0 1-.061.043l-.24-.172-.24.172a.04.04 0 0 1-.062-.043l.09-.282-.24-.176a.04.04 0 0 1 .025-.072h.304l.095-.281c0-.039.053-.039.065 0Zm2.244-.032a.037.037 0 0 1 .019.032l.095.281h.295a.04.04 0 0 1 .024.072l-.24.176.09.282a.04.04 0 0 1-.061.043l-.24-.172-.24.172a.04.04 0 0 1-.062-.043l.09-.282-.24-.176a.04.04 0 0 1 .025-.072h.295l.095-.281a.037.037 0 0 1 .055-.032Zm2.254.006c.016 0 .03.01.034.026l.095.281h.295a.04.04 0 0 1 .024.072l-.24.176.09.282a.04.04 0 0 1-.061.043l-.24-.172-.24.172a.04.04 0 0 1-.062-.043l.099-.28-.24-.177a.04.04 0 0 1 .024-.071H10l.095-.282a.034.034 0 0 1 .032-.027Z" fill="#F5F5F5"/><path fill-rule="evenodd" clip-rule="evenodd" d="M22 7H2a1 1 0 0 0-1 1v12a1 1 0 0 0 1 1h20a1 1 0 0 0 1-1V8a1 1 0 0 0-1-1ZM2 6a2 2 0 0 0-2 2v12a2 2 0 0 0 2 2h20a2 2 0 0 0 2-2V8a2 2 0 0 0-2-2H2Z" fill="#000" fill-opacity=".04"/></g><path d="M30.203 14.026H9.797c-.992 0-1.797.818-1.797 1.826v12.322C8 29.182 8.805 30 9.797 30h20.406c.992 0 1.797-.817 1.797-1.826V15.852c0-1.008-.805-1.826-1.797-1.826Z" fill="#fff"/><path d="M20 26.637c2.515 0 4.552-2.07 4.552-4.624s-2.037-4.624-4.551-4.624c-2.514 0-4.552 2.07-4.552 4.624s2.038 4.624 4.552 4.624Z" fill="#ED293F"/><path fill-rule="evenodd" clip-rule="evenodd" d="M30 15H10a1 1 0 0 0-1 1v12a1 1 0 0 0 1 1h20a1 1 0 0 0 1-1V16a1 1 0 0 0-1-1Zm-20-1a2 2 0 0 0-2 2v12a2 2 0 0 0 2 2h20a2 2 0 0 0 2-2V16a2 2 0 0 0-2-2H10Z" fill="#000" fill-opacity=".04"/><path d="M22 1c0-.552.32-1 .714-1h8.572C31.68 0 32 .448 32 1v6c0 .552-.32 1-.714 1h-8.572C22.32 8 22 7.552 22 7V1Z" fill="#0E0E0E"/><path d="M26.904 6.26H24.06v-.648l1.338-1.194c.212-.192.374-.374.486-.546a.988.988 0 0 0 .174-.552v-.078c0-.204-.062-.364-.186-.48-.12-.116-.284-.174-.492-.174a.804.804 0 0 0-.306.054.67.67 0 0 0-.222.138.841.841 0 0 0-.162.21 1.32 1.32 0 0 0-.096.258L24 3.02c.044-.132.104-.258.18-.378a1.326 1.326 0 0 1 .696-.558c.16-.056.346-.084.558-.084.212 0 .402.032.57.096.168.06.308.146.42.258.116.108.204.238.264.39.06.152.09.318.09.498 0 .168-.026.324-.078.468-.052.144-.124.28-.216.408a2.5 2.5 0 0 1-.324.366 11.5 11.5 0 0 1-.384.354l-.984.846h2.112v.576Zm2.152.072c-.26 0-.486-.048-.678-.144-.192-.1-.35-.242-.474-.426a1.975 1.975 0 0 1-.276-.678 4.224 4.224 0 0 1-.09-.918c0-.34.03-.644.09-.912.06-.272.152-.5.276-.684.124-.184.282-.324.474-.42.192-.1.418-.15.678-.15.52 0 .902.19 1.146.57.248.38.372.912.372 1.596s-.124 1.216-.372 1.596c-.244.38-.626.57-1.146.57Zm0-.576a.74.74 0 0 0 .366-.084.692.692 0 0 0 .252-.252c.064-.108.11-.236.138-.384a2.79 2.79 0 0 0 .042-.504V3.8c0-.184-.014-.35-.042-.498a1.18 1.18 0 0 0-.138-.39.7.7 0 0 0-.618-.336.732.732 0 0 0-.372.09.66.66 0 0 0-.246.246 1.18 1.18 0 0 0-.138.39 2.691 2.691 0 0 0-.042.498v.732c0 .184.014.352.042.504.028.148.074.276.138.384a.708.708 0 0 0 .246.252.774.774 0 0 0 .372.084Z" fill="#fff"/></svg>