<svg width="32" height="32" fill="none" xmlns="http://www.w3.org/2000/svg"><mask id="a" style="mask-type:alpha" maskUnits="userSpaceOnUse" x="0" y="4" width="24" height="16"><path d="M22 4H2a2 2 0 0 0-2 2v12a2 2 0 0 0 2 2h20a2 2 0 0 0 2-2V6a2 2 0 0 0-2-2Z" fill="#fff"/></mask><g mask="url(#a)"><path d="M22 4H2a2 2 0 0 0-2 2v12a2 2 0 0 0 2 2h20a2 2 0 0 0 2-2V6a2 2 0 0 0-2-2Z" fill="#fff"/><path d="M24 18.688c0 .725-.587 1.312-1.312 1.312H1.312A1.312 1.312 0 0 1 0 18.688h24Zm0-2.448v1.224H0V16.24h24Zm0-2.448v1.224H0v-1.224h24Zm0-2.448v1.224H0v-1.224h24Zm0-2.448v1.224H0V8.896h24Zm0-2.448v1.224H0V6.448h24ZM22.776 4c.634 0 1.155.482 1.218 1.099l.006.125H.688C.688 4.548 1.236 4 1.912 4h20.864Z" fill="#F44336"/><path d="M2 4h9.5v8.568H0V6a2 2 0 0 1 2-2Z" fill="#0D47A1"/><path d="m1.094 10.817.095.281h.295a.04.04 0 0 1 .024.071l-.24.177.09.282a.04.04 0 0 1-.061.043l-.24-.172-.24.172a.04.04 0 0 1-.062-.043l.099-.28-.24-.177a.04.04 0 0 1 .024-.071h.296l.095-.282c.005-.04.053-.04.065-.001Zm9.035-.026c.016 0 .03.01.033.026l.096.281h.295a.04.04 0 0 1 .024.071l-.24.177.09.282a.04.04 0 0 1-.061.043l-.24-.172-.24.172a.04.04 0 0 1-.062-.043l.098-.28-.24-.177a.04.04 0 0 1 .024-.071h.296l.095-.282a.034.034 0 0 1 .032-.027Zm-2.269 0c.016 0 .03.01.034.026l.095.281h.295a.04.04 0 0 1 .024.071l-.24.177.09.282a.04.04 0 0 1-.061.043l-.24-.172-.24.172a.04.04 0 0 1-.062-.043l.099-.28-.24-.177a.04.04 0 0 1 .024-.071h.295l.095-.282a.034.034 0 0 1 .032-.027Zm-4.498.026.095.281h.295a.04.04 0 0 1 .024.071l-.24.177.09.282a.04.04 0 0 1-.061.043l-.24-.172-.24.172a.04.04 0 0 1-.062-.043l.099-.28-.24-.177a.04.04 0 0 1 .024-.071h.296l.095-.282c0-.04.053-.04.065-.001Zm2.268 0 .096.281h.295a.04.04 0 0 1 .024.071l-.24.177.09.282a.04.04 0 0 1-.061.043l-.24-.172-.24.172a.04.04 0 0 1-.062-.043l.098-.28-.24-.177a.04.04 0 0 1 .024-.071h.296l.096-.282c0-.04.053-.04.064-.001Zm-3.402-.744.095.281h.295a.04.04 0 0 1 .024.072l-.24.176.09.282a.04.04 0 0 1-.06.043l-.24-.172-.24.172a.04.04 0 0 1-.062-.043l.09-.282-.24-.177a.04.04 0 0 1 .024-.07h.304l.095-.282c.006-.039.054-.039.065 0Zm6.782-.032a.037.037 0 0 1 .018.032l.095.281h.295a.04.04 0 0 1 .024.072l-.24.176.09.282a.04.04 0 0 1-.06.043l-.24-.172-.24.172a.04.04 0 0 1-.062-.043l.09-.282-.24-.177a.04.04 0 0 1 .024-.07h.295l.095-.282a.037.037 0 0 1 .056-.032Zm-2.245.032.095.281h.295a.04.04 0 0 1 .024.072l-.24.176.09.282a.04.04 0 0 1-.061.043l-.24-.172-.24.172a.04.04 0 0 1-.062-.043l.09-.282-.24-.177a.04.04 0 0 1 .025-.07h.295l.095-.282c.01-.039.063-.039.074 0Zm-2.269 0 .095.281h.295a.04.04 0 0 1 .024.072l-.24.176.09.282a.04.04 0 0 1-.06.043l-.24-.172-.24.172a.04.04 0 0 1-.062-.043l.09-.282-.24-.177a.04.04 0 0 1 .024-.07h.304l.095-.282c.001-.039.054-.039.065 0Zm-1.134-.721.095.281h.295a.04.04 0 0 1 .024.072l-.24.176.09.282a.04.04 0 0 1-.061.043l-.24-.172-.24.172a.04.04 0 0 1-.062-.043l.09-.282-.24-.176a.04.04 0 0 1 .025-.072h.304l.095-.281c0-.033.053-.033.065 0Zm6.8 0 .096.281h.295a.04.04 0 0 1 .024.072l-.24.176.09.282a.04.04 0 0 1-.061.043l-.24-.172-.24.172a.04.04 0 0 1-.062-.043l.09-.282-.24-.176a.04.04 0 0 1 .024-.072h.296l.095-.281c.014-.033.067-.033.073 0Zm-9.068 0 .095.281h.295a.04.04 0 0 1 .024.072l-.24.176.09.282a.04.04 0 0 1-.061.043l-.24-.172-.24.172a.04.04 0 0 1-.062-.043l.09-.282-.24-.176a.04.04 0 0 1 .025-.072h.304l.095-.281c.005-.033.053-.033.065 0Zm6.8 0 .095.281h.295a.04.04 0 0 1 .024.072l-.24.176.09.282a.04.04 0 0 1-.061.043l-.24-.172-.24.172a.04.04 0 0 1-.062-.043l.09-.282-.24-.176a.04.04 0 0 1 .025-.072h.295l.095-.281c.014-.033.067-.033.074 0Zm-2.264 0 .096.281h.295a.04.04 0 0 1 .024.072l-.24.176.09.282a.04.04 0 0 1-.061.043l-.24-.172-.24.172a.04.04 0 0 1-.062-.043l.09-.282-.24-.176a.04.04 0 0 1 .024-.072h.304l.096-.281c0-.033.053-.033.064 0Zm-3.402-.743.095.281h.295a.04.04 0 0 1 .024.071l-.24.177.09.282a.04.04 0 0 1-.06.043l-.24-.172-.24.172a.04.04 0 0 1-.062-.043l.098-.28-.24-.177a.04.04 0 0 1 .024-.071h.296l.095-.282c.006-.04.054-.04.065-.001Zm6.763-.037c.02 0 .037.016.037.037l.095.281h.295a.04.04 0 0 1 .024.071l-.24.177.09.282a.04.04 0 0 1-.06.043l-.24-.172-.24.172a.04.04 0 0 1-.062-.043l.09-.282-.24-.177a.04.04 0 0 1 .024-.07h.295l.095-.282c0-.02.017-.037.037-.037Zm-2.226.037.095.281h.295a.04.04 0 0 1 .024.071l-.24.177.09.282a.04.04 0 0 1-.061.043l-.24-.172-.24.172a.04.04 0 0 1-.062-.043l.09-.282-.24-.177a.04.04 0 0 1 .025-.07h.295l.095-.282c.01-.039.063-.039.074 0Zm-2.269 0 .095.281h.295a.04.04 0 0 1 .024.071l-.24.177.09.282a.04.04 0 0 1-.06.043l-.24-.172-.24.172a.04.04 0 0 1-.062-.043l.098-.28-.24-.177a.04.04 0 0 1 .024-.071h.296l.095-.282c.001-.04.054-.04.065-.001Zm-1.134-.716.095.281h.295a.04.04 0 0 1 .024.071l-.24.177.09.282a.04.04 0 0 1-.061.043l-.24-.172-.24.172a.04.04 0 0 1-.062-.043l.099-.28-.24-.177a.04.04 0 0 1 .024-.071h.296l.095-.282c0-.04.053-.04.065-.001Zm6.767-.026c.016 0 .03.01.033.026l.096.281h.295a.04.04 0 0 1 .024.071l-.24.177.09.282a.04.04 0 0 1-.061.043l-.24-.172-.24.172a.04.04 0 0 1-.062-.043l.098-.28-.24-.177a.04.04 0 0 1 .024-.071h.296l.095-.282a.034.034 0 0 1 .032-.027Zm-2.272-.011c.02 0 .037.016.037.037l.095.281h.295a.04.04 0 0 1 .024.071l-.24.177.09.282a.04.04 0 0 1-.061.043l-.24-.172-.24.172a.04.04 0 0 1-.062-.043l.09-.282-.24-.177a.04.04 0 0 1 .025-.07h.295l.095-.282c0-.02.016-.037.037-.037Zm-6.763.037.095.281h.295a.04.04 0 0 1 .024.071l-.24.177.09.282a.04.04 0 0 1-.061.043l-.24-.172-.24.172a.04.04 0 0 1-.062-.043l.099-.28-.24-.177a.04.04 0 0 1 .024-.071h.296l.095-.282c.005-.04.053-.04.065-.001Zm4.536 0 .096.281h.295a.04.04 0 0 1 .024.071l-.24.177.09.282a.04.04 0 0 1-.061.043l-.24-.172-.24.172a.04.04 0 0 1-.062-.043l.09-.282-.24-.177a.04.04 0 0 1 .024-.07h.304l.096-.282c0-.039.053-.039.064 0Zm-3.402-.75.095.282h.295a.04.04 0 0 1 .024.07l-.24.178.09.281a.04.04 0 0 1-.06.043l-.24-.172-.24.172a.04.04 0 0 1-.062-.043l.09-.281-.24-.177a.04.04 0 0 1 .024-.071h.304l.095-.282c.006-.033.054-.033.065 0Zm4.537 0 .095.282h.295a.04.04 0 0 1 .024.07l-.24.178.09.281a.04.04 0 0 1-.061.043l-.24-.172-.24.172a.04.04 0 0 1-.062-.043l.09-.281-.24-.177a.04.04 0 0 1 .025-.071h.295l.095-.282c.01-.033.063-.033.074 0Zm-2.269 0 .095.282h.295a.04.04 0 0 1 .024.07l-.24.178.09.281a.04.04 0 0 1-.06.043l-.24-.172-.24.172a.04.04 0 0 1-.062-.043l.09-.281-.24-.177a.04.04 0 0 1 .024-.071h.304l.095-.282c.001-.033.054-.033.065 0Zm4.532 0 .095.282h.295a.04.04 0 0 1 .024.07l-.24.178.09.281a.04.04 0 0 1-.06.043l-.24-.172-.24.172a.04.04 0 0 1-.062-.043l.09-.281-.24-.177a.04.04 0 0 1 .024-.071h.295l.095-.282c.015-.033.068-.033.074 0ZM5.63 6.428l.096.281h.295a.04.04 0 0 1 .024.072l-.24.176.09.282a.04.04 0 0 1-.061.043l-.24-.172-.24.172a.04.04 0 0 1-.062-.043l.09-.282-.24-.176a.04.04 0 0 1 .024-.072h.304l.096-.281c0-.033.053-.033.064 0Zm-4.536 0 .095.281h.295a.04.04 0 0 1 .024.072l-.24.176.09.282a.04.04 0 0 1-.061.043l-.24-.172-.24.172a.04.04 0 0 1-.062-.043l.09-.282-.24-.176a.04.04 0 0 1 .025-.072h.304l.095-.281c.005-.033.053-.033.065 0Zm2.27 0 .096.281h.297a.04.04 0 0 1 .024.072l-.24.176.09.282a.04.04 0 0 1-.061.043l-.24-.172-.24.172a.04.04 0 0 1-.062-.043l.09-.282-.24-.176a.04.04 0 0 1 .024-.072h.295l.095-.281c.006-.033.058-.033.073 0Zm4.53 0 .095.281h.295a.04.04 0 0 1 .024.072l-.24.176.09.282a.04.04 0 0 1-.061.043l-.24-.172-.24.172a.04.04 0 0 1-.062-.043l.09-.282-.24-.176a.04.04 0 0 1 .025-.072h.295l.095-.281c.014-.033.067-.033.074 0Zm2.268 0 .096.281h.295a.04.04 0 0 1 .024.072l-.24.176.09.282a.04.04 0 0 1-.061.043l-.24-.172-.24.172a.04.04 0 0 1-.062-.043l.09-.282-.24-.176a.04.04 0 0 1 .024-.072h.296l.095-.281c.014-.033.067-.033.073 0Zm-3.397-.744.095.281h.295a.04.04 0 0 1 .024.072l-.24.176.09.282a.04.04 0 0 1-.061.043l-.24-.172-.24.172a.04.04 0 0 1-.062-.043l.09-.282-.24-.176a.04.04 0 0 1 .025-.072h.295l.095-.281c.01-.039.063-.039.074 0Zm-2.269 0 .095.281h.295a.04.04 0 0 1 .024.072l-.24.176.09.282a.04.04 0 0 1-.06.043l-.24-.172-.24.172a.04.04 0 0 1-.062-.043l.098-.28-.24-.177a.04.04 0 0 1 .024-.07h.296l.095-.283c.001-.04.054-.04.065-.001Zm-2.268 0 .095.281h.295a.04.04 0 0 1 .024.072l-.24.176.09.282a.04.04 0 0 1-.06.043l-.24-.172-.24.172a.04.04 0 0 1-.062-.043l.098-.28-.24-.177a.04.04 0 0 1 .024-.07h.296l.095-.283c.006-.04.054-.04.065-.001Zm6.782-.032a.037.037 0 0 1 .018.032l.095.281h.295a.04.04 0 0 1 .024.072l-.24.176.09.282a.04.04 0 0 1-.06.043l-.24-.172-.24.172a.04.04 0 0 1-.062-.043l.09-.282-.24-.176a.04.04 0 0 1 .024-.072h.295l.095-.281a.037.037 0 0 1 .056-.032Zm-7.916-.683.095.281h.295a.04.04 0 0 1 .024.071l-.24.177.09.282a.04.04 0 0 1-.061.043l-.24-.172-.24.172a.04.04 0 0 1-.062-.043l.099-.28-.24-.177a.04.04 0 0 1 .024-.071h.296l.095-.282c.005-.04.053-.04.065-.001Zm2.268 0 .095.281h.295a.04.04 0 0 1 .024.071l-.24.177.09.282a.04.04 0 0 1-.061.043l-.24-.172-.24.172a.04.04 0 0 1-.062-.043l.099-.28-.24-.177a.04.04 0 0 1 .024-.071h.296l.095-.282c0-.04.053-.04.065-.001Zm2.268 0 .096.281h.295a.04.04 0 0 1 .024.071l-.24.177.09.282a.04.04 0 0 1-.061.043l-.24-.172-.24.172a.04.04 0 0 1-.062-.043l.09-.282-.24-.177a.04.04 0 0 1 .024-.07h.304l.096-.282c0-.039.053-.039.064 0Zm2.245-.032a.037.037 0 0 1 .019.032l.095.281h.295a.04.04 0 0 1 .024.071l-.24.177.09.282a.04.04 0 0 1-.061.043l-.24-.172-.24.172a.04.04 0 0 1-.062-.043l.09-.282-.24-.177a.04.04 0 0 1 .025-.07h.295l.095-.282a.037.037 0 0 1 .055-.032Zm2.254.006c.016 0 .03.01.033.026l.096.281h.295a.04.04 0 0 1 .024.071l-.24.177.09.282a.04.04 0 0 1-.061.043l-.24-.172-.24.172a.04.04 0 0 1-.062-.043l.098-.28-.24-.177a.04.04 0 0 1 .024-.071h.296l.095-.282a.034.034 0 0 1 .032-.027Z" fill="#F5F5F5"/><path fill-rule="evenodd" clip-rule="evenodd" d="M22 5H2a1 1 0 0 0-1 1v12a1 1 0 0 0 1 1h20a1 1 0 0 0 1-1V6a1 1 0 0 0-1-1ZM2 4a2 2 0 0 0-2 2v12a2 2 0 0 0 2 2h20a2 2 0 0 0 2-2V6a2 2 0 0 0-2-2H2Z" fill="#000" fill-opacity=".04"/></g><path d="M30 12H10a2 2 0 0 0-2 2v12a2 2 0 0 0 2 2h20a2 2 0 0 0 2-2V14a2 2 0 0 0-2-2Z" fill="#F1361D"/><path d="m17.13 21.103-.008-.676-.565.372-.676.008.372.565.008.675.565-.37.676-.009-.372-.565Zm1.018-2.153-.606-.3.074.673-.3.606.672-.075.606.3-.074-.672.3-.606-.672.075Zm.363-1.96.016-.676-.578.351-.676-.015.352.577-.016.676.578-.351.675.015-.351-.577Zm-1.618-2.129-.5-.455-.114.666-.455.5.667.114.5.455.113-.666.455-.5-.666-.114Zm-5.031 5.392L13.48 19.1l1.618 1.153-.597-1.895 1.597-1.183-1.987-.017-.63-1.885-.632 1.885-1.987.017 1.597 1.183-.597 1.895Z" fill="#FFDC42"/><path fill-rule="evenodd" clip-rule="evenodd" d="M30 13H10a1 1 0 0 0-1 1v12a1 1 0 0 0 1 1h20a1 1 0 0 0 1-1V14a1 1 0 0 0-1-1Zm-20-1a2 2 0 0 0-2 2v12a2 2 0 0 0 2 2h20a2 2 0 0 0 2-2V14a2 2 0 0 0-2-2H10Z" fill="#000" fill-opacity=".04"/></svg>