<svg width="45" height="40" fill="none" xmlns="http://www.w3.org/2000/svg"><path fill-rule="evenodd" clip-rule="evenodd" d="M7.5 26c0-1.102.898-2 2-2h5a1 1 0 1 1 0 2h-5v2h4c1.102 0 2 .898 2 2v2c0 1.102-.898 2-2 2h-5a1 1 0 1 1 0-2h5v-2h-4c-1.102 0-2-.898-2-2v-2Z" fill="#fff"/><path fill-rule="evenodd" clip-rule="evenodd" d="M11.5 22a1 1 0 0 1 1 1v2a1 1 0 1 1-2 0v-2a1 1 0 0 1 1-1Zm0 10a1 1 0 0 1 1 1v2a1 1 0 1 1-2 0v-2a1 1 0 0 1 1-1Z" fill="#fff"/><path fill-rule="evenodd" clip-rule="evenodd" d="M11.5 20a9 9 0 1 0 0 18 9 9 0 0 0 0-18Zm-11 9c0-6.075 4.925-11 11-11s11 4.925 11 11-4.925 11-11 11-11-4.925-11-11Z" fill="#fff"/><path fill-rule="evenodd" clip-rule="evenodd" d="M15.23 14.412A13.078 13.078 0 0 1 18.5 14c7.182 0 13 5.818 13 13 0 5.83-3.847 10.768-9.133 12.415a1 1 0 0 1-.594-1.91C26.247 36.112 29.5 31.93 29.5 27c0-6.078-4.922-11-11-11-.956 0-1.882.12-2.77.348a1 1 0 0 1-.5-1.936Z" fill="#fff"/><path fill-rule="evenodd" clip-rule="evenodd" d="M22.509 10.423A15.333 15.333 0 0 1 29 9c8.574 0 15.5 7.22 15.5 15.5 0 8.274-6.468 15.019-14.624 15.478a1 1 0 0 1-.112-1.996c7.104-.4 12.736-6.276 12.736-13.482C42.5 17.3 36.446 11 29 11c-2.024 0-3.93.438-5.648 1.237a1 1 0 1 1-.843-1.814ZM22.5 1a1 1 0 0 1 1-1h2a1 1 0 0 1 .707 1.707l-6 6a1 1 0 0 1-1.414 0L17.5 6.414l-5.293 5.293a1 1 0 0 1-1.414 0L9.5 10.414l-5.293 5.293a1 1 0 0 1-1.414-1.414l6-6a1 1 0 0 1 1.414 0L11.5 9.586l5.293-5.293a1 1 0 0 1 1.414 0L19.5 5.586l3.65-3.65A1 1 0 0 1 22.5 1Z" fill="#fff"/><path fill-rule="evenodd" clip-rule="evenodd" d="M25.5 0a1 1 0 0 1 1 1v2a1 1 0 1 1-2 0V1a1 1 0 0 1 1-1Z" fill="#fff"/></svg>