<svg width="32" height="32" fill="none" xmlns="http://www.w3.org/2000/svg"><path d="M22.5 13H24v9h-1.5v10h-1V22H20v-9h1.5v-2h1v2Zm7.5-2v7h-1.5v4h-1v-4H26v-7h4Zm-13.5 9v-4h-1v4H14v8h1.5v2h1v-2H18v-8h-1.5Zm-6-5H12v6h-1.5v7h-1v-7H8v-6h1.5v-2h1v2Zm-6 4H6v4H4.5v2h-1v-2H2v-4h1.5v-2h1v2Z" fill="#85ACB0"/><path d="M22 5a5 5 0 1 1 10 0 5 5 0 0 1-10 0Z" fill="#FF444F"/><path d="M24.253 7v-.726h1.128V3.466h-.054l-.852 1.116-.576-.45 1.002-1.32h1.38v3.462h.888V7h-2.916Zm4.517.072c-.305 0-.56-.048-.769-.144-.208-.1-.394-.24-.558-.42l.522-.527c.112.123.236.221.372.293.136.072.29.109.462.109.176 0 .298-.027.366-.079a.273.273 0 0 0 .102-.222c0-.147-.106-.236-.318-.263l-.342-.042c-.708-.088-1.062-.413-1.062-.973 0-.152.028-.29.084-.413a.942.942 0 0 1 .246-.325 1.15 1.15 0 0 1 .384-.21c.152-.051.322-.077.51-.077.164 0 .308.012.432.035.128.02.24.052.336.096.1.04.19.093.27.156.084.06.166.128.246.205l-.51.522a1.09 1.09 0 0 0-.342-.234.872.872 0 0 0-.384-.09c-.152 0-.26.023-.324.071a.228.228 0 0 0-.096.192c0 .084.022.15.066.199.048.043.136.075.264.096l.354.047c.692.093 1.038.409 1.038.949a.926.926 0 0 1-.096.42c-.064.128-.156.24-.276.336a1.293 1.293 0 0 1-.426.216 1.822 1.822 0 0 1-.552.077Z" fill="#fff"/><path d="M0 2a2 2 0 0 1 2-2h15a2 2 0 0 1 2 2v6a2 2 0 0 1-2 2H2a2 2 0 0 1-2-2V2Z" fill="#0E0E0E"/><path d="M7.072 7.68H3.12V6.584l1.72-1.472a7.32 7.32 0 0 0 .392-.36c.107-.112.192-.219.256-.32.07-.107.117-.21.144-.312.032-.101.048-.21.048-.328V3.68a.586.586 0 0 0-.232-.48.88.88 0 0 0-.504-.16.901.901 0 0 0-.352.064.844.844 0 0 0-.256.176.945.945 0 0 0-.176.248c-.048.09-.085.19-.112.296L3 3.424c.064-.192.152-.373.264-.544.112-.176.25-.328.416-.456.17-.133.37-.237.6-.312A2.5 2.5 0 0 1 5.056 2c.304 0 .573.043.808.128.235.085.432.203.592.352.165.15.29.328.376.536.085.203.128.424.128.664 0 .24-.04.459-.12.656-.08.197-.19.384-.328.56-.133.17-.29.333-.472.488-.181.155-.37.312-.568.472l-1.04.816h2.64V7.68Zm4.565-4.536H9.1l-.12 1.768h.064c.053-.133.112-.253.176-.36.07-.112.15-.205.24-.28.09-.08.2-.141.328-.184.128-.043.28-.064.456-.064.24 0 .464.04.672.12a1.602 1.602 0 0 1 .912.912c.09.219.136.467.136.744 0 .283-.048.547-.144.792-.09.24-.23.448-.416.624a1.94 1.94 0 0 1-.672.416c-.267.096-.57.144-.912.144a2.66 2.66 0 0 1-.72-.088 2.261 2.261 0 0 1-.552-.232 2.043 2.043 0 0 1-.416-.344 2.456 2.456 0 0 1-.304-.408l.872-.688c.123.219.27.405.44.56.17.15.4.224.688.224.288 0 .504-.083.648-.248.15-.165.224-.384.224-.656v-.064c0-.256-.075-.459-.224-.608-.15-.15-.355-.224-.616-.224a1 1 0 0 0-.544.136 1.37 1.37 0 0 0-.32.256l-.984-.136.208-3.16h3.416v1.048Zm3.021 4.632c-.73 0-1.272-.253-1.624-.76-.352-.507-.528-1.216-.528-2.128 0-.912.176-1.621.528-2.128.352-.507.893-.76 1.624-.76.73 0 1.272.253 1.624.76.352.507.528 1.216.528 2.128 0 .912-.176 1.621-.528 2.128-.352.507-.894.76-1.624.76Zm0-1.016c.32 0 .541-.117.664-.352.122-.235.184-.565.184-.992V4.36c0-.427-.062-.757-.184-.992-.123-.235-.344-.352-.664-.352-.32 0-.542.117-.664.352-.123.235-.184.565-.184.992v1.056c0 .427.061.757.184.992.122.235.344.352.664.352Z" fill="#fff"/></svg>