<svg width="80" height="80" fill="none" xmlns="http://www.w3.org/2000/svg"><rect width="80" height="80" rx="40" fill="#F9F9F9"/><path d="M28.875 37.75H30v6.75h-1.125V52h-.75v-7.5H27v-6.75h1.125v-1.5h.75v1.5Zm5.625-1.5v5.25h-1.125v3h-.75v-3H31.5v-5.25h3ZM24.375 43v-3h-.75v3H22.5v6h1.125v1.5h.75V49H25.5v-6h-1.125Zm-4.5-3.75H21v4.5h-1.125V49h-.75v-5.25H18v-4.5h1.125v-1.5h.75v1.5Zm-4.5 3H16.5v3h-1.125v1.5h-.75v-1.5H13.5v-3h1.125v-1.5h.75v1.5Z" fill="#414652"/><path d="M28.5 31.75a3.75 3.75 0 1 1 7.5 0 3.75 3.75 0 0 1-7.5 0Z" fill="#FF444F"/><path d="M30.19 33.25v-.545h.845V30.6h-.04l-.64.837-.431-.337.751-.99h1.035v2.596h.666v.545H30.19Zm3.386.054a1.37 1.37 0 0 1-.576-.108 1.362 1.362 0 0 1-.418-.315l.391-.396c.084.093.177.166.28.22a.73.73 0 0 0 .346.081c.132 0 .223-.02.274-.058a.205.205 0 0 0 .077-.167c0-.11-.08-.177-.239-.198l-.256-.031c-.531-.066-.797-.31-.797-.73a.707.707 0 0 1 .248-.554.836.836 0 0 1 .288-.156c.114-.04.241-.059.382-.059.123 0 .231.01.324.027a.96.96 0 0 1 .252.072c.075.03.143.07.203.117.063.045.124.096.184.153l-.382.392a.83.83 0 0 0-.257-.176.654.654 0 0 0-.288-.067c-.114 0-.195.018-.243.054a.171.171 0 0 0-.072.144.21.21 0 0 0 .05.148c.036.033.102.057.198.072l.265.036c.52.07.779.306.779.711a.694.694 0 0 1-.072.315.752.752 0 0 1-.207.252.97.97 0 0 1-.32.162 1.367 1.367 0 0 1-.414.059Z" fill="#fff"/><path d="M12 29.5a1.5 1.5 0 0 1 1.5-1.5H21a1.5 1.5 0 0 1 1.5 1.5V34a1.5 1.5 0 0 1-1.5 1.5h-7.5A1.5 1.5 0 0 1 12 34v-4.5Z" fill="#0E0E0E"/><path d="m14.648 34 1.404-3.456h-1.308v.762h-.762v-1.494h2.964v.78L15.596 34h-.948Zm5.734-3.402H18.48l-.09 1.326h.048c.04-.1.084-.19.132-.27a.845.845 0 0 1 .18-.21.702.702 0 0 1 .246-.138 1.392 1.392 0 0 1 .846.042 1.2 1.2 0 0 1 .684.684c.068.164.102.35.102.558 0 .212-.036.41-.108.594-.068.18-.172.336-.312.468a1.454 1.454 0 0 1-.504.312c-.2.072-.428.108-.684.108-.204 0-.384-.022-.54-.066a1.696 1.696 0 0 1-.414-.174 1.532 1.532 0 0 1-.312-.258 1.842 1.842 0 0 1-.228-.306l.654-.516c.092.164.202.304.33.42.128.112.3.168.516.168.216 0 .378-.062.486-.186a.706.706 0 0 0 .168-.492v-.048a.616.616 0 0 0-.168-.456c-.112-.112-.266-.168-.462-.168-.164 0-.3.034-.408.102a1.047 1.047 0 0 0-.24.192l-.738-.102.156-2.37h2.562v.786Z" fill="#fff"/><path d="M60.875 37.75H62v6.75h-1.125V52h-.75v-7.5H59v-6.75h1.125v-1.5h.75v1.5Zm5.625-1.5v5.25h-1.125v3h-.75v-3H63.5v-5.25h3ZM56.375 43v-3h-.75v3H54.5v6h1.125v1.5h.75V49H57.5v-6h-1.125Zm-4.5-3.75H53v4.5h-1.125V49h-.75v-5.25H50v-4.5h1.125v-1.5h.75v1.5Zm-4.5 3H48.5v3h-1.125v1.5h-.75v-1.5H45.5v-3h1.125v-1.5h.75v1.5Z" fill="#414652"/><path d="M44 29.5a1.5 1.5 0 0 1 1.5-1.5H53a1.5 1.5 0 0 1 1.5 1.5V34a1.5 1.5 0 0 1-1.5 1.5h-7.5A1.5 1.5 0 0 1 44 34v-4.5Z" fill="#0E0E0E"/><path d="M46.217 34v-.726h1.128v-2.808h-.054l-.852 1.116-.576-.45 1.002-1.32h1.38v3.462h.888V34h-2.916Zm4.833.072c-.547 0-.953-.19-1.217-.57-.264-.38-.396-.912-.396-1.596s.132-1.216.396-1.596c.264-.38.67-.57 1.218-.57.548 0 .954.19 1.218.57.264.38.396.912.396 1.596s-.132 1.216-.396 1.596c-.264.38-.67.57-1.218.57Zm0-.762c.24 0 .407-.088.499-.264.092-.176.138-.424.138-.744v-.792c0-.32-.046-.568-.138-.744-.092-.176-.258-.264-.498-.264s-.406.088-.498.264c-.092.176-.138.424-.138.744v.792c0 .32.046.568.138.744.092.176.258.264.498.264Z" fill="#fff"/></svg>