<svg xmlns="http://www.w3.org/2000/svg" width="32" height="32"><g fill="none" fill-rule="evenodd"><path d="M0 0h32v32H0z"/><rect width="32" height="20" fill="#85ACB0" fill-rule="nonzero" rx="2"/><rect width="10" height="10" x="11" y="5" fill="#FFF" fill-opacity=".56" fill-rule="nonzero" rx="3"/><path fill="#333" fill-rule="nonzero" d="M16 16c1.054 0 1.918.816 1.995 1.85L18 18v8l.8-.6a2 2 0 0 1 2.527 3.096l-.127.104-4 3a2 2 0 0 1-2.254.1l-.146-.1-4-3a2 2 0 0 1 2.265-3.293l.135.093.8.6v-8a2 2 0 0 1 2-2z"/></g></svg>