<svg xmlns="http://www.w3.org/2000/svg" width="64" height="64" fill="none"><g clip-path="url(#a)" fill="#ff444f"><path d="M49.237 50.891a.864.864 0 0 1-.593-1.493 23.957 23.957 0 0 0 1.679-1.763.87.87 0 0 1 1.224-.087.87.87 0 0 1 .207.268.866.866 0 0 1 .089.326.87.87 0 0 1-.042.336.86.86 0 0 1-.168.294l-1.8 1.888a.86.86 0 0 1-.596.231zm-12.809 6.522a.864.864 0 0 1-.865-.789 3.58 3.58 0 0 0-7.134 0 .87.87 0 0 1-.103.342.876.876 0 0 1-.554.425.876.876 0 0 1-.357.011 25.84 25.84 0 0 1-13.662-7.155 25.82 25.82 0 0 1-7.15-13.664.877.877 0 0 1 .165-.679.876.876 0 0 1 .613-.335 3.553 3.553 0 0 0 2.326-1.146 3.56 3.56 0 0 0 .929-2.421 3.6 3.6 0 0 0-3.258-3.567.86.86 0 0 1-.342-.103.865.865 0 0 1-.436-.911A25.83 25.83 0 0 1 27.416 6.607a.877.877 0 0 1 .679.165.85.85 0 0 1 .232.271.87.87 0 0 1 .103.342 3.58 3.58 0 0 0 7.134 0 .86.86 0 0 1 .103-.342.865.865 0 0 1 .911-.436 25.83 25.83 0 0 1 20.819 20.816.877.877 0 0 1-.165.679.876.876 0 0 1-.613.335 3.6 3.6 0 0 0-3.255 3.567c-.006.896.326 1.76.93 2.422a3.55 3.55 0 0 0 2.328 1.145.86.86 0 0 1 .342.103.865.865 0 0 1 .425.554.87.87 0 0 1 .011.356 25.697 25.697 0 0 1-2.249 6.838.87.87 0 0 1-.498.439.865.865 0 0 1-.662-.042.87.87 0 0 1-.439-.498.865.865 0 0 1 .042-.662 23.99 23.99 0 0 0 1.928-5.535A5.315 5.315 0 0 1 51.626 32a5.317 5.317 0 0 1 3.894-5.122A24.11 24.11 0 0 0 37.122 8.476a5.315 5.315 0 0 1-1.905 2.81A5.32 5.32 0 0 1 32 12.371a5.317 5.317 0 0 1-5.122-3.894A24.11 24.11 0 0 0 8.475 26.881a5.315 5.315 0 0 1 0 10.244A24.11 24.11 0 0 0 26.879 55.53a5.32 5.32 0 0 1 5.123-3.896c1.162 0 2.293.381 3.218 1.085a5.32 5.32 0 0 1 1.905 2.811 23.59 23.59 0 0 0 6.781-2.595.877.877 0 0 1 .972.054.856.856 0 0 1 .333.583.855.855 0 0 1-.027.341.87.87 0 0 1-.157.304.868.868 0 0 1-.263.219 25.32 25.32 0 0 1-8.183 2.964.89.89 0 0 1-.152.012z"/><path d="M31.999 12.373a5.277 5.277 0 0 1-3.592-1.382 5.28 5.28 0 0 1-1.698-3.455 3.76 3.76 0 0 1-.029-.483 5.32 5.32 0 0 1 5.319-5.319 5.32 5.32 0 0 1 5.319 5.319 3.9 3.9 0 0 1-.033.511 5.27 5.27 0 0 1-5.286 4.809zm0-8.908a3.595 3.595 0 0 0-3.59 3.59c0 .101.007.202.019.302a3.58 3.58 0 0 0 7.137.03 2.7 2.7 0 0 0 .023-.331 3.59 3.59 0 0 0-1.052-2.537 3.593 3.593 0 0 0-2.537-1.053v.001zm0 58.814a5.32 5.32 0 0 1-5.318-5.319 3.96 3.96 0 0 1 .033-.511 5.31 5.31 0 0 1 10.575.029 3.73 3.73 0 0 1 .029.482 5.326 5.326 0 0 1-1.559 3.76A5.32 5.32 0 0 1 32 62.279zm0-8.908a3.556 3.556 0 0 0-2.422.931 3.56 3.56 0 0 0-1.145 2.328c-.014.11-.022.22-.022.33a3.59 3.59 0 0 0 3.589 3.589 3.59 3.59 0 0 0 3.589-3.589 2.5 2.5 0 0 0-.019-.301 3.567 3.567 0 0 0-3.57-3.289zm24.951-16.05a4.09 4.09 0 0 1-.519-.033 5.31 5.31 0 0 1 .038-10.57c.16-.021.321-.031.482-.03a5.32 5.32 0 0 1 5.319 5.319 5.32 5.32 0 0 1-5.319 5.319v-.004zm0-8.908a2.19 2.19 0 0 0-.292.019 3.61 3.61 0 0 0-3.297 3.57c-.006.896.326 1.76.93 2.422a3.55 3.55 0 0 0 2.328 1.145 2.63 2.63 0 0 0 .331.023 3.59 3.59 0 0 0 3.589-3.589 3.59 3.59 0 0 0-3.589-3.589zM7.047 37.326a5.32 5.32 0 0 1-5.319-5.319 5.32 5.32 0 0 1 5.319-5.319 3.91 3.91 0 0 1 .519.034 5.31 5.31 0 0 1-.039 10.575 3.67 3.67 0 0 1-.48.029zm0-8.908a3.59 3.59 0 0 0-3.589 3.589 3.59 3.59 0 0 0 3.589 3.589 2.37 2.37 0 0 0 .292-.018 3.58 3.58 0 0 0 .039-7.136 2.444 2.444 0 0 0-.331-.023zm24.952 20.88A17.3 17.3 0 0 1 16.018 38.62a17.295 17.295 0 0 1-.984-9.994 17.3 17.3 0 0 1 13.591-13.59 17.294 17.294 0 0 1 9.994.984 17.3 17.3 0 0 1 10.678 15.981 17.313 17.313 0 0 1-5.072 12.225A17.32 17.32 0 0 1 32 49.298zm0-32.865a15.57 15.57 0 0 0-11.008 26.575 15.57 15.57 0 0 0 16.965 3.375 15.56 15.56 0 0 0 6.986-5.734A15.57 15.57 0 0 0 47.566 32a15.59 15.59 0 0 0-4.565-11.003 15.583 15.583 0 0 0-11.003-4.565z"/><path d="M31.999 49.298c-4.772 0-8.51-7.598-8.51-17.297s3.738-17.297 8.51-17.297 8.51 7.598 8.51 17.297-3.738 17.297-8.51 17.297zm0-32.865c-3.676 0-6.781 7.129-6.781 15.568s3.105 15.568 6.781 15.568 6.781-7.129 6.781-15.568S35.675 16.433 32 16.433z"/><path d="M32 49.298a.86.86 0 0 1-.865-.865V15.568a.86.86 0 0 1 .865-.865.863.863 0 0 1 .864.865v32.865a.86.86 0 0 1-.864.865z"/><path d="M48.433 32.871H15.568a.87.87 0 0 1-.612-.253.86.86 0 0 1-.253-.611.87.87 0 0 1 .253-.612.86.86 0 0 1 .612-.253h32.865a.87.87 0 0 1 .612.253.86.86 0 0 1 .253.612.863.863 0 0 1-.865.864zm-1.945-7.774H17.521a.864.864 0 0 1 0-1.729h28.967a.87.87 0 0 1 .612.253.86.86 0 0 1 .253.611.87.87 0 0 1-.253.612.86.86 0 0 1-.612.253zm0 15.547H17.521a.864.864 0 0 1-.864-.864.87.87 0 0 1 .253-.612.86.86 0 0 1 .611-.253h28.967a.87.87 0 0 1 .612.253.86.86 0 0 1 .253.612.863.863 0 0 1-.865.864z"/></g><defs><clipPath id="a"><path fill="#fff" d="M0 0h64v64H0z"/></clipPath></defs></svg>