<svg width="68" height="100" fill="none" xmlns="http://www.w3.org/2000/svg"><path d="M34.022 93.332c-10.138 0-17.65-3.515-22.533-10.545-4.884-7.03-7.326-16.872-7.326-29.526s2.442-22.496 7.326-29.526c4.884-7.03 12.395-10.545 22.533-10.545 10.138 0 17.649 3.515 22.533 10.545 4.884 7.03 7.326 16.872 7.326 29.526s-2.442 22.496-7.326 29.526c-4.884 7.03-12.395 10.545-22.533 10.545Zm0-14.097c4.44 0 7.51-1.628 9.213-4.884 1.702-3.256 2.553-7.844 2.553-13.764V45.935c0-5.92-.851-10.508-2.553-13.764-1.702-3.256-4.773-4.884-9.213-4.884-4.44 0-7.511 1.628-9.213 4.884-1.702 3.256-2.553 7.844-2.553 13.764v14.652c0 5.92.85 10.508 2.553 13.764 1.702 3.256 4.773 4.884 9.213 4.884Z" fill="#333"/></svg>