<svg xmlns="http://www.w3.org/2000/svg" width="48" height="48" fill="#ff444f"  fill-rule="evenodd" xmlns:v="https://vecta.io/nano"><path d="M8.911 9.87a1.67 1.67 0 0 1 1.669-1.669 1.67 1.67 0 0 1 1.668 1.669 1.67 1.67 0 0 1-1.668 1.669A1.67 1.67 0 0 1 8.911 9.87zm1.065 0c0 .333.271.604.604.604s.603-.271.603-.604-.271-.603-.603-.603-.604.271-.604.603zm3.409 0a1.67 1.67 0 0 1 1.669-1.669 1.67 1.67 0 0 1 1.669 1.669 1.67 1.67 0 0 1-1.669 1.669 1.67 1.67 0 0 1-1.669-1.669zm1.065 0c0 .333.271.604.604.604s.603-.271.603-.604-.271-.603-.603-.603-.604.271-.604.603zm5.077-1.669a1.67 1.67 0 0 0-1.669 1.669 1.67 1.67 0 0 0 1.669 1.669 1.67 1.67 0 0 0 1.668-1.669 1.67 1.67 0 0 0-1.668-1.669zm0 2.272c-.333 0-.603-.271-.603-.604s.27-.603.603-.603.604.271.604.603-.271.604-.604.604zM7.953 6h32.095C41.124 6 42 6.876 42 7.953V15.8a.53.53 0 1 1-1.065 0v-2.06H7.065v17.716a.89.89 0 0 0 .887.887h4.494l3.139-3.139v-3.067l-2.045-2.045a.53.53 0 0 1-.156-.377v-4.367a.53.53 0 0 1 .158-.379l2.84-2.805a.53.53 0 0 1 .906.379v1.95c0 .294-.238.533-.532.533s-.533-.238-.533-.533v-.675l-1.775 1.753v3.924l2.045 2.045a.53.53 0 0 1 .156.377v3.272l2.41 2.41a10.92 10.92 0 0 1 1.211-.502v-3.618c0-.258.183-.472.426-.522v-1.04c0-.141.056-.277.156-.377l2.045-2.045v-3.924l-1.775-1.753v3.767a.53.53 0 0 1-.249.451l-1.917 1.207a.53.53 0 0 1-.567 0l-1.917-1.207a.53.53 0 0 1-.249-.451v-.597c0-.294.238-.533.533-.533a.53.53 0 0 1 .532.533v.303l1.385.872 1.385-.872v-4.747a.53.53 0 0 1 .907-.378l2.84 2.805a.53.53 0 0 1 .159.379v4.367a.53.53 0 0 1-.156.377l-2.045 2.045v.809h4.189v-1.384c0-.294.238-.533.533-.533h.959v-3.282l-.752-.694c-.151-.139-.208-.353-.148-.549l1.278-4.118c.069-.223.276-.375.509-.375h1.42c.233 0 .439.152.509.375l1.278 4.118a.53.53 0 0 1-.148.549l-.751.694v3.282h.959c.294 0 .533.238.533.533v3.642l3.139 3.139h4.778a.89.89 0 0 0 .888-.887V18.281c0-.294.238-.533.532-.533a.53.53 0 0 1 .532.533v13.175c0 1.077-.876 1.952-1.953 1.952h-3.719c.163.209.149.512-.043.704l-2.559 2.559a10.9 10.9 0 0 1 .502 1.211h3.618a.53.53 0 0 1 .532.533v3.053c0 .294-.238.533-.532.533H27.337c-.294 0-.533-.238-.533-.533a2.95 2.95 0 0 0-2.947-2.947 2.95 2.95 0 0 0-2.947 2.947c0 .294-.238.533-.533.533H9.87a.53.53 0 0 1-.532-.533v-3.053c0-.294.238-.533.532-.533h3.618a10.94 10.94 0 0 1 .502-1.211l-2.559-2.559a.53.53 0 0 1-.043-.704H7.953C6.876 33.408 6 32.532 6 31.456V7.953C6 6.876 6.876 6 7.953 6zm19.709 14.5l.676.624c.109.101.171.242.172.391v3.515h1.065v-3.515a.53.53 0 0 1 .171-.391l.676-.624-1.062-3.422h-.635L27.662 20.5zm3.404 8.69v-3.095h-4.047v.863c.243.05.426.264.426.522v3.618a10.98 10.98 0 0 1 1.211.502l2.41-2.41zM20.96 31.993a9.81 9.81 0 0 0-1.752.727c-.207.11-.461.072-.627-.093l-2.456-2.456-3.565 3.565 2.456 2.456a.53.53 0 0 1 .093.627 9.85 9.85 0 0 0-.726 1.752.53.53 0 0 1-.509.377h-3.472v1.988h5.415c.136-2.026 1.04-3.951 2.529-5.347.215-.201.552-.19.753.024s.19.552-.024.753a6.92 6.92 0 0 0-2.191 4.57h2.998a4.02 4.02 0 0 1 3.977-3.479 4.02 4.02 0 0 1 3.976 3.479h2.997c-.273-3.609-3.296-6.461-6.974-6.461a6.94 6.94 0 0 0-2.843.602.53.53 0 0 1-.703-.27c-.119-.269.001-.584.27-.703a8.01 8.01 0 0 1 3.276-.694 8.07 8.07 0 0 1 8.041 7.526h5.414v-1.988h-3.472a.53.53 0 0 1-.509-.377 9.85 9.85 0 0 0-.726-1.752c-.11-.207-.072-.461.093-.627l2.456-2.456-3.565-3.565-2.456 2.456a.53.53 0 0 1-.627.093c-.559-.298-1.148-.542-1.752-.727a.53.53 0 0 1-.377-.509v-3.472h-5.041v3.472a.53.53 0 0 1-.377.509zM7.065 7.953v4.722h33.87V7.953a.89.89 0 0 0-.887-.887H7.953a.89.89 0 0 0-.887.887z"/></svg>
