<svg xmlns="http://www.w3.org/2000/svg" width="48" height="48" fill="none"  xmlns:v="https://vecta.io/nano"><path d="M21.749 16.876c-1.551 0-2.812 1.262-2.812 2.813s1.262 2.813 2.813 2.813 2.813-1.262 2.813-2.812-1.262-2.812-2.812-2.812zm0 4.5a1.69 1.69 0 0 1-1.687-1.687 1.69 1.69 0 0 1 1.688-1.687 1.69 1.69 0 0 1 1.688 1.688 1.69 1.69 0 0 1-1.687 1.688zm4.547.534l.418.999a.56.56 0 0 1-.075.561 6.21 6.21 0 0 1-1.109 1.11c-.16.124-.376.152-.561.074l-.999-.418a5.05 5.05 0 0 1-.576.237l-.412 1.004a.56.56 0 0 1-.449.345c-.293.037-.542.054-.784.054s-.491-.017-.784-.054a.56.56 0 0 1-.449-.345l-.412-1.004a5.13 5.13 0 0 1-.576-.237l-.999.418a.56.56 0 0 1-.561-.074c-.415-.321-.788-.694-1.109-1.11a.56.56 0 0 1-.075-.561l.418-.999a5.15 5.15 0 0 1-.237-.576l-1.004-.412c-.187-.077-.319-.249-.344-.45-.037-.293-.054-.542-.054-.784s.017-.49.054-.784c.026-.201.157-.373.345-.45l1.004-.412c.068-.198.148-.391.238-.576l-.418-.999c-.078-.187-.049-.401.075-.562a6.23 6.23 0 0 1 1.109-1.109.56.56 0 0 1 .561-.074l.999.418a5.12 5.12 0 0 1 .576-.237l.412-1.004a.56.56 0 0 1 .449-.345c.587-.074.981-.074 1.568 0a.56.56 0 0 1 .449.345l.412 1.004c.198.068.39.147.576.237l.999-.418a.56.56 0 0 1 .561.074 6.21 6.21 0 0 1 1.109 1.11.56.56 0 0 1 .075.561l-.417.999a5.18 5.18 0 0 1 .237.576l1.004.412c.187.077.319.249.344.45.037.293.054.542.054.784a6.11 6.11 0 0 1-.054.784c-.026.201-.157.373-.344.45l-1.004.412c-.068.198-.148.391-.238.576zm-.761-1.149a.56.56 0 0 1 .327-.367l.937-.384.013-.32-.013-.32-.937-.384a.56.56 0 0 1-.327-.367 3.91 3.91 0 0 0-.35-.848c-.084-.151-.095-.332-.028-.492l.388-.929a5.18 5.18 0 0 0-.455-.456l-.93.389c-.16.067-.341.056-.492-.028a3.96 3.96 0 0 0-.848-.35.56.56 0 0 1-.367-.328l-.384-.937a4.15 4.15 0 0 0-.64 0l-.384.937a.56.56 0 0 1-.367.328 3.96 3.96 0 0 0-.848.35c-.152.084-.332.095-.492.028l-.93-.389a5.14 5.14 0 0 0-.455.455l.389.929c.066.16.056.341-.029.492a3.93 3.93 0 0 0-.35.848.56.56 0 0 1-.327.367l-.937.384-.013.32.013.32.937.384a.56.56 0 0 1 .327.367 3.9 3.9 0 0 0 .35.848c.084.151.095.332.028.492l-.388.929c.142.161.294.314.455.456l.93-.389c.16-.066.34-.056.492.028a3.95 3.95 0 0 0 .848.35.56.56 0 0 1 .367.328l.384.937c.225.016.415.016.64 0l.384-.937a.56.56 0 0 1 .367-.328 3.92 3.92 0 0 0 .848-.35c.151-.085.332-.095.492-.029l.929.389a5.02 5.02 0 0 0 .455-.456l-.389-.929c-.066-.16-.056-.341.029-.492a3.93 3.93 0 0 0 .35-.848z" fill-rule="evenodd" fill="#ff444f"/><path d="M14.734 23.272l-1.001.513a8.96 8.96 0 0 1-.661-1.697 9.01 9.01 0 0 1-.324-2.4c0-4.963 4.037-9 9-9h4.267l-.727-.727.795-.795 1.688 1.688a.56.56 0 0 1 0 .795l-1.687 1.688-.795-.795.727-.727h-4.267c-4.342 0-7.875 3.533-7.875 7.875a7.88 7.88 0 0 0 .283 2.1c.141.511.336 1.01.578 1.483zm.541.899l-.925.641c.456.657.998 1.252 1.611 1.768l.724-.861a7.88 7.88 0 0 1-1.41-1.547zm8.566 4.273l-.26-1.094c.681-.162 1.338-.415 1.952-.753l.542.986c-.704.386-1.455.676-2.234.861zm-6.913-1.155a8.96 8.96 0 0 0 2.173 1.003l.331-1.076c-.669-.205-1.308-.501-1.899-.877l-.604.949zm5.618.234l.113 1.12-.903.045c-.477-.007-.999-.041-1.487-.121l.183-1.11c.427.071.866.127 1.303.106a7.89 7.89 0 0 0 .79-.04z" fill="#ff444f"/><path fill-rule="evenodd" d="M14.436 40.501c-.311 0-.562-.252-.562-.562 0-3.428-.978-6.616-2.828-9.221-2.121-2.985-3.086-6.656-2.719-10.338.704-7.059 6.329-12.75 13.373-13.532 4.387-.487 8.601.852 11.862 3.771a15.21 15.21 0 0 1 5.062 11.26l1.675 7.817a.56.56 0 0 1-.55.68h-3.375v6.75c0 .311-.252.563-.562.563h-6.75v2.25c0 .311-.252.563-.562.563H14.436zm7.388-32.535c-6.52.725-11.726 5.992-12.378 12.526-.341 3.411.553 6.811 2.516 9.574 1.884 2.652 2.926 5.86 3.028 9.31h12.946v-1.687h-1.687v-1.125h9v-6.75c0-.311.252-.562.563-.562h3.242l-1.541-7.195a.57.57 0 0 1-.013-.118c0-3.995-1.708-7.815-4.687-10.481-3.02-2.703-6.92-3.941-10.987-3.491z" fill="#ff444f"/></svg>
