<svg xmlns="http://www.w3.org/2000/svg" width="48" height="48" fill="#ff444f"><path fill-rule="evenodd" d="M39.766 12.267a13.81 13.81 0 0 0-24.804 3.611l1.151.34c.315-1.064.77-2.08 1.354-3.023h4.311a28.601 28.601 0 0 0-.646 3.847l1.194.117a27.4 27.4 0 0 1 .686-3.964h4.586v5.775h1.2v-5.775h4.589a27.21 27.21 0 0 1 .808 6h-4.197v1.2h4.197a27.21 27.21 0 0 1-.808 6h-3.464v1.2h3.136a28.08 28.08 0 0 1-1.737 4.41c-.648.165-1.309.278-1.975.338l.108 1.195c7.59-.694 13.181-7.41 12.486-15.001a13.8 13.8 0 0 0-2.176-6.27zm-17.675-.273h-3.787a12.55 12.55 0 0 1 5.206-3.899 29.16 29.16 0 0 0-1.419 3.899zm5.508 0H23.34a28.12 28.12 0 0 1 1.735-4.41 12.57 12.57 0 0 1 2.523-.374v4.784zm13.184 7.2h-5.385a28.38 28.38 0 0 0-.773-6h4.306a12.534 12.534 0 0 1 1.852 6zm-11.984-7.2V7.211a12.64 12.64 0 0 1 2.523.374 28.035 28.035 0 0 1 1.737 4.41h-4.261zm4.091-3.899a12.55 12.55 0 0 1 5.205 3.899H34.31a29.15 29.15 0 0 0-1.42-3.899zm1.873 22.455a12.49 12.49 0 0 1-1.874.942 29.162 29.162 0 0 0 1.421-3.899h3.782a12.73 12.73 0 0 1-3.329 2.957zm4.168-4.157h-4.306a28.38 28.38 0 0 0 .773-6h5.385a12.537 12.537 0 0 1-1.852 6z"/><path d="M16.8 22.194H18v1.2h-1.2v-1.2zm1.2 13.2h-1.2v1.2H18v-1.2zm-7.2-10.8H12v1.2h-1.2v-1.2zm2.4 6H12v1.2h1.2v-1.2zm8.399 0h1.2v1.2h-1.2v-1.2zm2.4-6h-1.2v1.2h1.2v-1.2z"/><path d="M17.765 19.5a16.02 16.02 0 0 0 8.097 3.208.6.6 0 0 1 .539.597v3.651a12.55 12.55 0 0 1-6.45 10.962l-2.258 1.255a.6.6 0 0 1-.583 0l-2.259-1.255a12.55 12.55 0 0 1-6.45-10.961v-3.651a.6.6 0 0 1 .539-.597 16.02 16.02 0 0 0 8.097-3.208.6.6 0 0 1 .729 0zm1.603 17.368a11.35 11.35 0 0 0 5.833-9.913v-3.118a17.22 17.22 0 0 1-7.8-3.113 17.22 17.22 0 0 1-7.8 3.113v3.118a11.347 11.347 0 0 0 5.832 9.913l1.967 1.093 1.967-1.093zm8.831-16.473h-.66a13.65 13.65 0 0 1-9.715-4.024.6.6 0 0 0-.849 0 13.65 13.65 0 0 1-9.716 4.024H6.6a.6.6 0 0 0-.6.6v5.962a14.95 14.95 0 0 0 7.684 13.059l3.424 1.902a.6.6 0 0 0 .583 0l3.424-1.902a14.95 14.95 0 0 0 7.684-13.059v-5.962a.6.6 0 0 0-.6-.6zm-.6 6.562a13.75 13.75 0 0 1-7.067 12.01l-3.133 1.74-3.133-1.74A13.75 13.75 0 0 1 7.2 26.958v-5.362h.06a14.876 14.876 0 0 0 5.717-1.137 14.86 14.86 0 0 0 4.423-2.83 14.94 14.94 0 0 0 10.14 3.967h.06v5.362z" fill-rule="evenodd"/></svg>