<svg xmlns="http://www.w3.org/2000/svg" width="64" height="64" fill="none"  xmlns:v="https://vecta.io/nano"><path fill-rule="evenodd" d="M38.346 11.147a6.31 6.31 0 0 1-1.38 3.939c3.583 1.845 5.913 5.57 5.913 9.66v2.72c0 .5-.406.907-.907.907H22.027c-.5 0-.907-.406-.907-.907v-2.72c0-4.09 2.33-7.815 5.913-9.66a6.31 6.31 0 0 1-1.38-3.939C25.653 7.647 28.5 4.8 32 4.8s6.346 2.847 6.346 6.346zm-1.813 0A4.54 4.54 0 0 0 32 6.613a4.54 4.54 0 0 0-4.533 4.533c0 1.494.736 2.812 1.856 3.638.107.079.217.152.329.22a4.35 4.35 0 0 0 .338.184 4.38 4.38 0 0 0 .45.198c.043.016.088.029.133.042l.074.022a4.64 4.64 0 0 0 2.708 0c.025-.008.05-.015.075-.023.044-.013.089-.026.132-.042a4.47 4.47 0 0 0 .45-.198 4.49 4.49 0 0 0 .338-.184c.112-.068.222-.141.329-.22 1.119-.827 1.855-2.144 1.855-3.638zm-13.6 15.413h18.133v-1.813c0-3.631-2.201-6.922-5.525-8.336a6.3 6.3 0 0 1-.815.459l-.003.002-.002.001a6.3 6.3 0 0 1-2.722.622c-.975 0-1.896-.228-2.722-.621-.287-.138-.562-.287-.82-.462-3.324 1.413-5.525 4.704-5.525 8.336v1.813zm-.907 15.413a6.31 6.31 0 0 1-1.38 3.939c3.583 1.845 5.913 5.57 5.913 9.66v2.72c0 .501-.406.907-.907.907H5.706c-.5 0-.907-.406-.907-.907v-2.72c0-4.09 2.33-7.815 5.913-9.66a6.31 6.31 0 0 1-1.38-3.939c0-3.5 2.847-6.346 6.347-6.346s6.346 2.847 6.346 6.346zm-1.813 0a4.54 4.54 0 0 0-4.533-4.533 4.54 4.54 0 0 0-4.533 4.533c0 1.494.736 2.812 1.856 3.638a4.34 4.34 0 0 0 .329.22 4.33 4.33 0 0 0 .338.184c.148.073.296.142.45.198.043.016.088.029.133.042h0l.074.022a4.64 4.64 0 0 0 2.708 0l.075-.022a2.23 2.23 0 0 0 .132-.042c.153-.055.302-.125.45-.198.115-.058.229-.117.338-.184a4.34 4.34 0 0 0 .329-.22c1.119-.827 1.855-2.144 1.855-3.638zm-13.6 13.6v1.813h18.133v-1.813c0-3.631-2.201-6.922-5.525-8.337-.258.174-.532.324-.815.459-.831.397-1.752.625-2.726.625a6.31 6.31 0 0 1-2.722-.621c-.288-.138-.562-.287-.82-.461-3.324 1.413-5.525 4.704-5.525 8.336zm46.674-9.66a6.31 6.31 0 0 0 1.38-3.939c0-3.5-2.847-6.346-6.346-6.346s-6.347 2.847-6.347 6.346a6.31 6.31 0 0 0 1.38 3.939c-3.583 1.845-5.913 5.57-5.913 9.66v2.72c0 .501.406.907.907.907h19.946c.5 0 .907-.406.907-.907v-2.72c0-4.09-2.33-7.815-5.913-9.66zm-4.967-8.473a4.54 4.54 0 0 1 4.533 4.533c0 1.494-.736 2.812-1.855 3.638a4.34 4.34 0 0 1-.329.22c-.109.067-.223.126-.338.184-.148.073-.297.142-.45.198a2.23 2.23 0 0 1-.132.042l-.075.022a4.64 4.64 0 0 1-2.708 0c-.024-.008-.049-.015-.074-.022h0c-.045-.013-.09-.026-.133-.042-.154-.055-.302-.125-.45-.198a4.33 4.33 0 0 1-.338-.184 4.34 4.34 0 0 1-.329-.22c-1.12-.827-1.856-2.144-1.856-3.638a4.54 4.54 0 0 1 4.533-4.533zm-9.066 19.946v-1.813c0-3.631 2.201-6.922 5.525-8.336.257.174.532.324.815.459a6.31 6.31 0 0 0 2.726.624 6.3 6.3 0 0 0 2.722-.622l.002-.001.002-.001c.283-.135.558-.285.815-.459 3.324 1.414 5.525 4.706 5.525 8.337v1.813H39.254zM32.905 34.71a1 1 0 0 0 .375.781l3.109 2.487c.391.313.455.884.142 1.275s-.883.454-1.274.142l-2.634-2.107a1 1 0 0 0-1.249 0l-2.634 2.107c-.391.313-.962.249-1.275-.142s-.25-.962.142-1.275l3.109-2.487a1 1 0 0 0 .375-.781v-3.617c0-.501.406-.907.907-.907s.907.406.907.907v3.617zm0-15.404h-1.813v1.813h1.813v-1.813zm-1.813 3.627h1.813v1.813h-1.813v-1.813zm18.133 27.199h-1.813v1.813h1.813v-1.813zm-1.813 3.627h1.813v1.813h-1.813v-1.813zm-30.828-3.627h-1.813v1.813h1.813v-1.813zm-1.813 3.627h1.813v1.813h-1.813v-1.813z" fill="#ff444f"/></svg>
