<svg xmlns="http://www.w3.org/2000/svg" width="48" height="48" fill="#ff444f"  xmlns:v="https://vecta.io/nano"><path d="M22.638 33.602a.57.57 0 0 1-.123-.013.59.59 0 0 1-.459-.698l2.397-11.287c.068-.318.383-.522.704-.455a.59.59 0 0 1 .459.698l-2.397 11.287c-.059.278-.306.468-.581.468zm-2.818-2.578a.6.6 0 0 0 .385.141c.168 0 .335-.07.453-.208.213-.248.183-.62-.067-.831l-3.314-2.799 3.314-2.799c.25-.211.28-.583.067-.831a.6.6 0 0 0-.838-.066l-3.846 3.248a.59.59 0 0 0-.209.449c0 .173.076.337.209.449l3.846 3.248zm7.523-.066c.117.137.285.208.453.208.136 0 .273-.046.385-.141l3.846-3.248c.133-.112.209-.276.209-.449a.59.59 0 0 0-.209-.449l-3.846-3.248a.6.6 0 0 0-.838.066c-.213.248-.183.62.067.831l3.314 2.799-3.314 2.799c-.25.211-.28.583-.067.831z"/><path d="M14.274 13.003c0 1.028.844 1.865 1.881 1.865s1.881-.837 1.881-1.865-.844-1.865-1.881-1.865-1.881.837-1.881 1.865zm1.189 0a.692.692 0 0 1 1.384 0 .692.692 0 0 1-1.384 0zm-5.087 1.846c-1.037 0-1.881-.837-1.881-1.865s.844-1.865 1.881-1.865 1.881.837 1.881 1.865-.844 1.865-1.881 1.865zm0-2.552a.69.69 0 0 0-.692.686.692.692 0 1 0 1.384 0 .69.69 0 0 0-.692-.686zm9.678.724c0 1.029.844 1.865 1.881 1.865s1.881-.837 1.881-1.865-.844-1.865-1.881-1.865-1.881.837-1.881 1.865zm1.189 0a.692.692 0 1 1 1.384 0 .692.692 0 1 1-1.384 0zM9.991 39.75H38.01c2.2 0 3.991-1.775 3.991-3.958V12.208c0-2.182-1.79-3.958-3.991-3.958H9.991C7.79 8.25 6 10.026 6 12.208v23.585c0 2.182 1.79 3.958 3.991 3.958zm30.821-3.958V17.689H7.189v18.103c0 1.532 1.257 2.779 2.802 2.779H38.01c1.545 0 2.802-1.247 2.802-2.779zM7.189 16.51h33.623v-4.303c0-1.532-1.257-2.779-2.802-2.779H9.991c-1.545 0-2.802 1.247-2.802 2.779v4.303z" fill-rule="evenodd"/></svg>
