<svg xmlns="http://www.w3.org/2000/svg" width="56" height="56" fill="none"  xmlns:v="https://vecta.io/nano"><path d="M0 28C0 12.536 12.536 0 28 0s28 12.536 28 28-12.536 28-28 28S0 43.464 0 28z" fill="#457b9d"/><path d="M35.697 38H19.889v-4.384l6.88-5.888 1.568-1.44c.427-.448.768-.875 1.024-1.28.277-.427.469-.843.576-1.248.128-.405.192-.843.192-1.312V22c0-.427-.085-.8-.256-1.12s-.395-.587-.672-.8a2.9 2.9 0 0 0-.96-.48 3.52 3.52 0 0 0-1.056-.16c-.533 0-1.003.085-1.408.256-.384.171-.725.405-1.024.704a3.78 3.78 0 0 0-.704.992c-.192.363-.341.757-.448 1.184l-4.192-1.6c.256-.768.608-1.493 1.056-2.176.448-.704 1.003-1.312 1.664-1.824.683-.533 1.483-.949 2.4-1.248s1.952-.448 3.104-.448c1.216 0 2.293.171 3.232.512s1.728.811 2.368 1.408c.661.597 1.163 1.312 1.504 2.144.341.811.512 1.696.512 2.656s-.16 1.835-.48 2.624a9.19 9.19 0 0 1-1.312 2.24 13.49 13.49 0 0 1-1.888 1.952l-2.272 1.888-4.16 3.264h10.56V38z" fill="#fff"/></svg>
