<svg xmlns="http://www.w3.org/2000/svg" width="56" height="56" fill="none"  xmlns:v="https://vecta.io/nano"><path d="M0 28C0 12.536 12.536 0 28 0s28 12.536 28 28-12.536 28-28 28S0 43.464 0 28z" fill="#457b9d"/><path d="M26.449 24.496c1.195 0 2.059-.224 2.592-.672.555-.469.832-1.045.832-1.728v-.224c0-.811-.267-1.461-.8-1.952-.512-.491-1.248-.736-2.208-.736-.896 0-1.739.235-2.528.704-.789.448-1.461 1.099-2.016 1.952l-3.008-2.816c.427-.555.885-1.056 1.376-1.504.491-.469 1.045-.864 1.664-1.184.619-.341 1.312-.597 2.08-.768.768-.192 1.632-.288 2.592-.288 1.195 0 2.272.139 3.232.416.981.277 1.813.683 2.496 1.216.704.512 1.237 1.131 1.6 1.856.384.725.576 1.536.576 2.432 0 .704-.117 1.344-.352 1.92a4.35 4.35 0 0 1-.928 1.504 4.99 4.99 0 0 1-1.344 1.056c-.512.256-1.056.437-1.632.544v.192c.661.128 1.269.341 1.824.64.576.277 1.067.64 1.472 1.088.427.448.757.981.992 1.6.235.597.352 1.28.352 2.048 0 1.003-.203 1.909-.608 2.72s-.981 1.504-1.728 2.08-1.643 1.024-2.688 1.344c-1.045.299-2.197.448-3.456.448-1.131 0-2.133-.117-3.008-.352s-1.643-.544-2.304-.928c-.64-.405-1.205-.864-1.696-1.376a11.41 11.41 0 0 1-1.248-1.632l3.552-2.752c.491.917 1.088 1.675 1.792 2.272.725.576 1.696.864 2.912.864 1.088 0 1.931-.267 2.528-.8.619-.555.928-1.301.928-2.24v-.192c0-.917-.352-1.6-1.056-2.048-.683-.469-1.632-.704-2.848-.704h-2.016v-4h2.08z" fill="#fff"/></svg>
