<svg xmlns="http://www.w3.org/2000/svg" width="64" height="64" fill="none"><g clip-path="url(#a)"><path d="m62.765 19.641-13.51-4.566a.94.94 0 0 0-1.188.588.94.94 0 0 0 .588 1.188l13.381 4.522-6.299 3.071a2.848 2.848 0 0 0-.873-.395l-18.893-4.938c-.6-3.089-4.404-4.386-6.741-2.187a4.06 4.06 0 0 0-1.273 2.944v.02c.007 1.307 1.089 2.371 2.412 2.371h3.262a2.39 2.39 0 0 0 2.122-1.267l17.619 4.605-19.658 9.584a3.89 3.89 0 0 1-3.428 0L1.964 21.374l28.783-9.728a3.93 3.93 0 0 1 2.505 0l11.238 3.798a.94.94 0 0 0 1.188-.588.94.94 0 0 0-.588-1.188L33.853 9.869a5.82 5.82 0 0 0-3.705 0L1.235 19.641C-.301 20.161-.44 22.288 1.02 23l14.838 7.234c-.816 3.881-2.063 8.059-3.417 11.767a3.706 3.706 0 0 0 1.188 4.198c4.282 3.366 9.342 5.965 14.527 7.637a12.6 12.6 0 0 0 7.686 0c5.187-1.672 10.247-4.273 14.527-7.637a3.707 3.707 0 0 0 1.189-4.198c-1.326-3.626-2.589-7.832-3.417-11.767l6.98-3.403v14.111a2.315 2.315 0 0 0-2.136 2.305v2.732c0 .406.176.771.455 1.025l-.348 5.266a1.786 1.786 0 0 0 1.781 1.903h2.372a1.786 1.786 0 0 0 1.781-1.903l-.348-5.266c.279-.254.455-.619.455-1.025v-2.732a2.316 2.316 0 0 0-2.136-2.305V26.811c0-.288-.045-.567-.126-.832L62.981 23c1.458-.711 1.324-2.838-.215-3.359zm-29.134.744h-3.262c-.29 0-.535-.231-.537-.5v-.016c0-.604.242-1.165.682-1.579 1.35-1.271 3.563-.356 3.651 1.471.021.438-.261.624-.534.624zm15.11 19.206c-5.066 3.964-12.254 6.801-14.73 7.273a.94.94 0 0 0-.745 1.097.94.94 0 0 0 1.097.745c2.59-.494 9.686-3.252 15.014-7.238l.421 1.178a1.837 1.837 0 0 1-.586 2.08c-5.049 3.968-10.369 6.174-13.944 7.326a10.73 10.73 0 0 1-6.535 0c-3.574-1.152-8.895-3.358-13.944-7.326a1.837 1.837 0 0 1-.586-2.08l.016-.045.405-1.133c5.201 3.891 12.278 6.717 15.013 7.239a.94.94 0 0 0 1.097-.745.94.94 0 0 0-.745-1.097c-2.338-.446-9.551-3.222-14.73-7.273.761-2.329 1.644-5.321 2.337-8.51l11.869 5.786a5.75 5.75 0 0 0 5.072 0l11.868-5.786c.694 3.189 1.576 6.182 2.337 8.51zm6.227 12.706.326-4.93h1.527l.326 4.93h-2.179zm2.289-9.05v2.245H54.86v-2.245c0-.238.201-.439.439-.439h1.52c.238 0 .439.201.439.439z" fill="#ff444f"/></g><defs><clipPath id="a"><path fill="#fff" d="M0 0h64v64H0z"/></clipPath></defs></svg>