<svg xmlns="http://www.w3.org/2000/svg" width="48" height="48" fill="#ff444f"  xmlns:v="https://vecta.io/nano"><path d="M24.573 10.077a.6.6 0 0 0-.848 0l-2.4 2.4.848.848 1.376-1.376V15.9h1.2v-3.95l1.376 1.376.848-.848-2.4-2.4zM23.549 33a.6.6 0 1 0 .6-.6.6.6 0 0 0-.6.6zm-13.8-17.399h5.4v1.2h-5.4v-1.2zm1.2-2.401h-1.2v1.2h1.2v-1.2zm22.2 2.401h5.4v1.2h-5.4v-1.2zm1.2-2.401h-1.2v1.2h1.2v-1.2z"/><path fill-rule="evenodd" d="M30.689 10.201h7.26c1.987.002 3.598 1.613 3.6 3.6V32.4c-.002 1.987-1.612 3.598-3.6 3.6h-9.368l.801 2.4h6.767a1.8 1.8 0 0 1 0 3.6H12.15a1.8 1.8 0 0 1 0-3.6h6.767l.801-2.4H10.35c-1.987-.002-3.598-1.612-3.6-3.6V13.801c.002-1.987 1.613-3.598 3.6-3.6h7.266c.718-1.571 1.978-2.831 3.549-3.549a7.19 7.19 0 0 1 9.524 3.549zm-.54 3a6 6 0 0 0-6-6 6.01 6.01 0 0 0-6 6 6 6 0 0 0 12 0zm6.6 26.999a.6.6 0 0 0-.6-.6H12.15a.6.6 0 0 0-.6.6.6.6 0 0 0 .6.6h23.999a.6.6 0 0 0 .6-.6zM20.983 36l-.801 2.4h7.933l-.8-2.4h-6.332zm16.966-1.2a2.4 2.4 0 0 0 2.4-2.4v-1.2H7.95v1.2a2.4 2.4 0 0 0 2.4 2.4h27.599zm-29.999-4.8h32.399V13.801a2.4 2.4 0 0 0-2.4-2.4h-6.837c.523 1.973.172 4.075-.963 5.771v3.458l2.573 1.286c.308-.781 1.002-1.343 1.83-1.483 1.304-.219 2.538.66 2.758 1.964s-.66 2.538-1.964 2.758-2.538-.66-2.758-1.964l-3.308-1.653a.6.6 0 0 1-.332-.537v-2.449a7.17 7.17 0 0 1-3 1.612v2.316l1.08.72c.396-.262.86-.4 1.334-.399a2.41 2.41 0 0 1 2.4 2.414 2.41 2.41 0 0 1-2.414 2.4 2.41 2.41 0 0 1-2.4-2.414 2.36 2.36 0 0 1 .277-1.094l-1.21-.806a.6.6 0 0 1-.267-.499V20.37l-.6.031a7.08 7.08 0 0 1-.6-.031v3.63a.6.6 0 0 1-.267.499l-1.21.806c.418.808.36 1.779-.153 2.531-.77 1.129-2.309 1.42-3.437.651s-1.42-2.309-.651-3.437 2.308-1.42 3.437-.651l1.08-.72v-3.516c-1.115-.289-2.144-.841-3-1.612v3.049a.6.6 0 0 1-.41.567l-3.235 1.08c-.155.838-.745 1.53-1.548 1.815-1.242.441-2.606-.208-3.047-1.45s.208-2.606 1.45-3.047 2.606.208 3.047 1.45l2.543-.848v-3.996c-1.134-1.697-1.483-3.799-.96-5.771h-6.84a2.4 2.4 0 0 0-2.4 2.4v16.199zm5.4-6a1.2 1.2 0 0 0 0-2.4 1.2 1.2 0 0 0 0 2.4zm6.6 3.6a1.2 1.2 0 0 0 0-2.4 1.2 1.2 0 0 0 0 2.4zm8.4-3.6a1.2 1.2 0 0 0 0 2.4 1.2 1.2 0 0 0 0-2.4zm6.6-2.4a1.2 1.2 0 0 0 0 2.4 1.2 1.2 0 0 0 0-2.4z"/></svg>
