<svg xmlns="http://www.w3.org/2000/svg" width="48" height="48" fill="#ff444f"  xmlns:v="https://vecta.io/nano"><path d="M10.374 17.438H9.249a8.67 8.67 0 0 0 .085 1.204l1.114-.158a7.51 7.51 0 0 1-.074-1.046zm-.775 2.41l1.079-.321a7.29 7.29 0 0 0 3.354 4.245l-.564.974c-1.879-1.087-3.252-2.827-3.869-4.898zm6.4-9.723h1.125v1.125h-1.125v-1.125zm-1.125 0h-1.125v1.125h1.125v-1.125zm5.625 0h1.125v1.125h-1.125v-1.125zm-1.125 0h-1.125v1.125h1.125v-1.125zm1.688 28.125h3.375v1.125h-3.375V38.25z"/><path d="M32.874 17.438c0-1.551 1.262-2.812 2.813-2.812s2.813 1.262 2.813 2.813-1.262 2.813-2.812 2.813-2.812-1.262-2.812-2.812zm1.125 0a1.69 1.69 0 0 0 1.688 1.688 1.69 1.69 0 0 0 1.688-1.687 1.69 1.69 0 0 0-1.687-1.687 1.69 1.69 0 0 0-1.687 1.688zm7.875-1.531l-1.381-.461.651-1.302-2.165-2.165-1.302.651-.46-1.382h-3.061l-.46 1.382-1.302-.651-2.164 2.165.24.48h-2.448c-1.203-4.588-5.413-7.875-10.198-7.875h-.274C11.733 6.749 7 11.482 7 17.299c0 3.44 1.682 6.671 4.5 8.643a2.64 2.64 0 0 1 1.125 2.161v.022H8.859L6.75 33.75h1.937v5.063c0 1.551 1.262 2.813 2.813 2.813h12.375c1.551 0 2.813-1.262 2.813-2.812V33.75h1.937l-2.109-5.625h-3.765v-.021a2.64 2.64 0 0 1 1.125-2.16c1.972-1.38 3.397-3.391 4.068-5.693h2.527l-.24.48 2.165 2.165 1.302-.651.46 1.381h3.061l.46-1.381 1.302.651 2.165-2.165-.651-1.302 1.382-.461v-3.061zM17.081 28.125l-.765-9.562h1.4c.092.065.191.121.299.162l.998.375-.721 9.026H17.08zm1.33-10.454a.25.25 0 0 1 .001-.467l3.213-1.205v2.877l-3.214-1.205zM22.75 18h6.75v.968l.471.157H22.75V18zm6.75-2.093v.968h-6.75V15.75h7.221l-.471.157zm-17.355 9.114c-2.517-1.762-4.02-4.649-4.02-7.721a9.44 9.44 0 0 1 9.425-9.425h.274c4.176 0 7.866 2.801 9.036 6.75h-4.775l-4.068 1.526a1.38 1.38 0 0 0-.892 1.287h-.898l-.105-1.304c-.093-1.161-1.078-2.071-2.243-2.071h-.129c-1.241 0-2.25 1.009-2.25 2.25s1.009 2.25 2.25 2.25h1.438l.765 9.563H13.75v-.021c0-1.227-.6-2.379-1.605-3.082zm2.953-7.584H13.75c-.62 0-1.125-.505-1.125-1.125s.505-1.125 1.125-1.125h.129A1.13 1.13 0 0 1 15 16.223l.097 1.215zM9.639 29.25h6.11l-1.266 3.375h-6.11l1.266-3.375zm.173 9.563V33.75h5.452l1.298-3.46V40.5H11.5a1.69 1.69 0 0 1-1.688-1.687zm15.75 0a1.69 1.69 0 0 1-1.687 1.688h-6.187V30.29l1.298 3.46h6.577v5.063zM27 32.625h-7.236l-1.266-3.375h7.235L27 32.625zm-3.77-7.604c-1.006.704-1.605 1.856-1.605 3.082v.021h-2.203l.689-8.615 1.974.74h4.686a9.41 9.41 0 0 1-3.541 4.771zm17.52-6.864l-1.29.43-.095.248a5.25 5.25 0 0 1-.087.213l-.109.244.608 1.216-1.018 1.018-1.216-.608-.244.109a3.58 3.58 0 0 1-.211.086l-.25.095-.431 1.293h-1.439l-.431-1.293-.25-.095a3.88 3.88 0 0 1-.211-.086l-.244-.109-1.216.608-1.018-1.018.608-1.216-.109-.244c-.031-.068-.057-.137-.085-.207l-.002-.006-.095-.248-1.29-.43v-1.439l1.29-.43.095-.248.087-.213.109-.244-.608-1.216 1.018-1.018 1.216.608.243-.109a3.58 3.58 0 0 1 .211-.086l.25-.095.431-1.292h1.439l.431 1.293.25.095a3.88 3.88 0 0 1 .211.086l.244.109 1.216-.608 1.018 1.018-.608 1.216.109.244a4.44 4.44 0 0 1 .085.207l.002.006.095.248 1.29.43v1.439z" fill-rule="evenodd"/></svg>
