<svg xmlns="http://www.w3.org/2000/svg" width="64" height="64" fill="none"  xmlns:v="https://vecta.io/nano"><path fill-rule="evenodd" d="M58.133 14.267h-1.867v-3.733A1.87 1.87 0 0 0 54.4 8.667H41.078C38.982 5.738 35.602 4 32 4s-6.982 1.738-9.078 4.667H9.6a1.87 1.87 0 0 0-1.867 1.867v3.733H5.867A1.87 1.87 0 0 0 4 16.133V54.4a1.87 1.87 0 0 0 1.867 1.867H26.12C27.191 58.545 29.482 60 32 60s4.809-1.455 5.88-3.733h20.253A1.87 1.87 0 0 0 60 54.4V16.133a1.87 1.87 0 0 0-1.867-1.867zm-15.965-3.733H54.4v30.8H37.6a6.51 6.51 0 0 0-4.667 1.97v-16.95a11.17 11.17 0 0 0 9.235-15.819zm7.378 37.333H54.4v2.8H32.933v-2.8c.003-2.576 2.091-4.664 4.667-4.667h16.8V46h-4.853c-.516 0-.933.418-.933.933s.418.933.933.933zM32 5.867c5.155 0 9.333 4.179 9.333 9.333S37.155 24.533 32 24.533s-9.333-4.179-9.333-9.333c.006-5.152 4.181-9.327 9.333-9.333zM9.6 10.533h12.232a11.17 11.17 0 0 0 9.235 15.819v16.95a6.51 6.51 0 0 0-4.667-1.97H9.6v-30.8zm0 37.333h5.04c.515 0 .933-.418.933-.933S15.155 46 14.64 46H9.6v-2.8h16.8c2.576.003 4.664 2.091 4.667 4.667v2.8H9.6v-2.8zM58.133 54.4h-20.86c-.019.004-.024.006-.029.006-.066.006-.131.019-.195.039-.11.01-.214.056-.295.132-.105.051-.189.136-.24.241a.9.9 0 0 0-.109.183l-.008.013-.002.002-.003.004c-.661 1.868-2.421 3.113-4.395 3.113a4.66 4.66 0 0 1-4.392-3.107l-.008-.013c-.036-.076-.071-.136-.113-.191-.048-.103-.129-.186-.231-.237-.046-.038-.095-.071-.146-.099-.049-.017-.099-.031-.15-.04a.9.9 0 0 0-.205-.041l-.014-.003L5.867 54.4V16.133h1.867v34.533A1.87 1.87 0 0 0 9.6 52.533h44.8a1.87 1.87 0 0 0 1.867-1.867V16.133h1.867V54.4zM31.996 21.734c.248 0 .485-.098.66-.273s.273-.412.273-.66v-7.467c0-.516-.418-.933-.933-.933s-.933.418-.933.933V20.8c0 .247.098.485.273.66s.412.273.66.273zm.66-11.473c-.175.175-.413.273-.66.273s-.485-.098-.66-.273-.273-.413-.273-.66v-.933c0-.515.418-.933.933-.933s.933.418.933.933v.933c0 .248-.098.485-.273.66zM12.213 33.12c0-.412.334-.747.747-.747h12.693c.412 0 .747.334.747.747s-.334.747-.747.747H12.96c-.412 0-.747-.334-.747-.747zm.747-4.48c-.412 0-.747.334-.747.747s.334.747.747.747h5.973c.412 0 .747-.334.747-.747s-.334-.747-.747-.747H12.96zm23.893 4.48c0-.412.334-.747.747-.747h12.693c.412 0 .747.334.747.747s-.334.747-.747.747H37.6c-.412 0-.747-.334-.747-.747zm7.467-4.48c-.412 0-.747.334-.747.747s.334.747.747.747h5.973c.412 0 .747-.334.747-.747s-.334-.747-.747-.747H44.32zm-32.107 8.213c0-.412.334-.747.747-.747h12.693c.412 0 .747.334.747.747s-.334.747-.747.747H12.96c-.412 0-.747-.334-.747-.747zm25.387-.747c-.412 0-.747.334-.747.747s.334.747.747.747h12.693c.412 0 .747-.334.747-.747s-.334-.747-.747-.747H37.6z" fill="#ff444f"/></svg>
