<svg xmlns="http://www.w3.org/2000/svg" width="64" height="64" fill="none"  xmlns:v="https://vecta.io/nano"><path fill-rule="evenodd" d="M50.119 33.831c1.918.654 3.677 1.743 5.152 3.218a13.47 13.47 0 0 1 0 19.013A13.36 13.36 0 0 1 45.765 60c-1.886 0-3.713-.386-5.39-1.12H6.278A1.48 1.48 0 0 1 4.8 57.402V35.68a.82.82 0 1 1 1.642 0v21.559H37.6c-.468-.359-.917-.751-1.341-1.175-.561-.561-1.062-1.161-1.503-1.79h-23.38a1.48 1.48 0 0 1-1.478-1.477V10.247H6.442v21.646a.82.82 0 1 1-1.642 0V10.083a1.48 1.48 0 0 1 1.478-1.477h3.62V5.477A1.48 1.48 0 0 1 11.376 4h29.771c.503 0 .768.253 1.047.521l.112.107 7.325 6.988c.216.203.484.456.484.963l.003 10.539a.82.82 0 0 1-1.642 0V13.25h-4.525c-1.909 0-3.462-1.551-3.462-3.458l.005-4.151H11.54v46.992h22.234a13.52 13.52 0 0 1-.241-11.65h-16.38a.82.82 0 1 1 0-1.641h17.268c.517-.813 1.129-1.583 1.837-2.292h0c.431-.431.886-.827 1.362-1.191H17.153a.82.82 0 1 1 0-1.641h23.258c1.668-.724 3.482-1.105 5.354-1.105.922 0 1.829.093 2.712.273v-6.484a.82.82 0 1 1 1.642 0v6.929zM47.248 11.61l-5.112-4.876-.004 3.06a1.82 1.82 0 0 0 1.819 1.816h3.296zm-1.483 46.75c3.152 0 6.115-1.227 8.345-3.456 4.599-4.602 4.599-12.092-.001-16.694-1.424-1.423-3.148-2.437-5.029-2.985-.013-.004-.026-.007-.038-.011-1.052-.302-2.153-.459-3.278-.459-1.672 0-3.291.346-4.775 1.002-.034.019-.071.035-.108.049-1.272.578-2.444 1.386-3.462 2.404-.683.683-1.263 1.43-1.743 2.221-.036.103-.091.197-.163.276-2.567 4.506-1.932 10.356 1.905 14.197a11.81 11.81 0 0 0 3.429 2.389.8.8 0 0 1 .107.049c1.494.667 3.124 1.017 4.809 1.017zM21.188 12.822h-1.413c-.607 0-1.082.288-1.409.855-.517.894-.519 2.291-.005 3.179.325.562.8.847 1.411.847h1.713a.82.82 0 1 1 0 1.641h-1.714c-1.204 0-2.21-.592-2.832-1.666-.806-1.393-.805-3.42.004-4.82.624-1.081 1.629-1.676 2.831-1.676h1.413a.82.82 0 1 1 0 1.641zM43.84 23.968H17.153a.82.82 0 1 0 0 1.641H43.84a.82.82 0 1 0 0-1.641zm0 5.124H17.153a.82.82 0 1 0 0 1.641H43.84a.82.82 0 1 0 0-1.641zM25.312 18.671c.173.412.534.671.94.675h.01c.407 0 .759-.246.942-.661.009-.021.018-.042.025-.063l2.204-6.351a.82.82 0 1 0-1.552-.537l-1.62 4.669-1.62-4.669a.82.82 0 1 0-1.552.537l2.204 6.351c.006.017.012.033.019.049zm3.279 26.614a.82.82 0 0 1-.821.82H17.153a.82.82 0 1 1 0-1.641h10.618a.82.82 0 0 1 .821.82zm22.304-3.656a.82.82 0 0 0-1.157.102l-6.005 7.168-2.838-2.409a.82.82 0 1 0-1.063 1.25l3.468 2.945a.82.82 0 0 0 .532.195.85.85 0 0 0 .069-.003.82.82 0 0 0 .56-.291l6.536-7.802a.82.82 0 0 0-.102-1.155z" fill="#ff444f"/></svg>
