<svg xmlns="http://www.w3.org/2000/svg" width="64" height="64" fill="none"  xmlns:v="https://vecta.io/nano"><path fill-rule="evenodd" d="M43.914 8V6a1 1 0 0 0-1-1 1 1 0 0 0-1 1v2a1 1 0 0 0 1 1 1 1 0 0 0 1-1zm7.675 18.294a10.38 10.38 0 0 1-2.962 3.332.54.54 0 0 0-.216.442v1.335a3 3 0 0 1 1.488 2.873 3 3 0 0 1-1.988 2.552V38c-.001.795-.317 1.558-.88 2.12s-1.325.879-2.12.88h-4c-.795-.001-1.558-.317-2.12-.88s-.879-1.325-.88-2.12v-1.171a3 3 0 0 1-1.988-2.552 3 3 0 0 1 1.488-2.873v-1.335c.002-.085-.017-.169-.054-.246a.54.54 0 0 0-.16-.195c-1.328-.956-2.409-2.215-3.154-3.671s-1.134-3.07-1.133-4.706c-.011-5.574 4.411-10.172 9.857-10.25 1.311-.02 2.614.222 3.83.714s2.322 1.222 3.251 2.148a10.38 10.38 0 0 1 3.031 8.164 10.38 10.38 0 0 1-1.291 4.267zm-8.792-13.293c-4.357.062-7.895 3.761-7.886 8.246-.002 1.318.31 2.618.909 3.792s1.47 2.189 2.539 2.96a2.54 2.54 0 0 1 1.052 2.069V31h7v-.931c-.001-.404.093-.803.277-1.163s.45-.671.777-.908a8.38 8.38 0 0 0 3.421-6.13 8.38 8.38 0 0 0-2.441-6.582C46.976 13.823 44.986 13 42.911 13l-.058.001h-.057zM40.911 39h4a1 1 0 0 0 1-1v-1h-6v1a1 1 0 0 0 1 1zm-2-4h8a1 1 0 0 0 1-1 1 1 0 0 0-1-1h-8a1 1 0 0 0-1 1 1 1 0 0 0 1 1zm7.262-16.505a4.52 4.52 0 0 0-1.641-1.178h0a1 1 0 0 1-.547-1.304 1 1 0 0 1 1.304-.547c.91.38 1.722.961 2.375 1.699s1.131 1.615 1.398 2.564a1 1 0 0 1-.696 1.219 1 1 0 0 1-1.229-.677 4.52 4.52 0 0 0-.964-1.775zm-13.101-5.039a1 1 0 0 1-.567.176c-.247 0-.486-.091-.669-.257l-1.486-1.338a1 1 0 0 1-.074-1.412 1 1 0 0 1 1.413-.074l1.486 1.338a1 1 0 0 1 .265 1.102 1 1 0 0 1-.367.466zm-4.185 9.012l-1.989.209a1 1 0 0 0-.677.363 1 1 0 0 0-.22.737 1 1 0 0 0 .368.675 1 1 0 0 0 .738.214l1.989-.209a1 1 0 0 0 .884-1.098 1 1 0 0 0-1.093-.891zm29.831 2.198l-1.989-.209a1 1 0 0 1-.677-.363 1 1 0 0 1-.219-.736 1 1 0 0 1 .368-.674 1 1 0 0 1 .737-.215l1.989.209a1 1 0 0 1 .885 1.099 1 1 0 0 1-1.094.89zm-4.734-11.291l1.486-1.338a1 1 0 0 0 .074-1.412 1 1 0 0 0-1.412-.074l-1.486 1.338a1 1 0 0 0-.065 1.404 1 1 0 0 0 1.403.082zm-9.558 39.838H55.78c.695.001 1.361.277 1.852.768s.767 1.157.768 1.852v1.747c-.001.695-.277 1.361-.768 1.852s-1.157.767-1.852.768H33.746c-.246 0-1.359-.207-9.239-1.763l-8.941-1.73h-2.579v.873c0 .232-.092.454-.256.618s-.386.256-.618.256h-5.24c-.232 0-.454-.092-.618-.256S6 57.812 6 57.58V38.367c0-.232.092-.454.256-.617s.386-.256.618-.256h5.24c.232 0 .454.092.618.256s.256.386.256.617v.873h6.987c1.998 0 4.924 1.378 8.698 4.095 2.364 1.702 4.297 3.38 4.838 3.858l8.548 2.564c.048.014.095.033.14.056.523.261 2.229 1.216 2.229 2.528v.873zm-36.68 3.493h3.493V39.24H7.747v17.467zm48.651 1.491c.164-.164.256-.386.256-.617v-1.747c0-.232-.092-.454-.256-.617s-.386-.256-.617-.256H44.277c-.181.511-.516.952-.958 1.265s-.971.481-1.512.482a.88.88 0 0 1-.171-.017l-8.733-1.747a.87.87 0 0 1-.262-.098l-6.113-3.493c-.1-.057-.187-.133-.258-.223a.87.87 0 0 1-.152-.305c-.03-.111-.038-.226-.024-.34s.051-.224.108-.323.133-.187.224-.257.195-.122.305-.152.226-.038.34-.023.224.051.323.109l5.99 3.423 8.494 1.699c.218-.018.422-.118.57-.279s.231-.372.231-.591v-1.72c-.083-.218-.656-.675-1.2-.96l-8.657-2.597c-.124-.037-.237-.101-.333-.187-2.361-2.124-9.211-7.636-12.516-7.636h-6.987V54.96h2.62c.246 0 1.359.207 9.239 1.763l8.941 1.73H55.78c.231 0 .453-.092.617-.256z" fill="#ff444f"/></svg>
