<svg xmlns="http://www.w3.org/2000/svg" width="64" height="64" fill="none"  xmlns:v="https://vecta.io/nano"><g clip-path="url(#A)"><path fill-rule="evenodd" d="M2.677 40.52c-.386-.183-.756-.397-1.107-.64a3.27 3.27 0 0 1-1.549-1.999c-.17-1.099.641-2.196 1.413-3.138 1.826-2.352 3.391-4.895 4.668-7.585.081-.145.143-.301.181-.463-.004-.294-.349-.631-.871-1.11a4.1 4.1 0 0 1-1.561-2.374c-.052-.612.047-1.227.29-1.791l.529-1.256.096-.219c.381-.78.687-1.594.915-2.432.267-1.306.618-2.594 1.051-3.855a20.4 20.4 0 0 1 4.279-6.979c2.385-2.522 5.881-4.208 10.69-5.168A71.2 71.2 0 0 1 32.019.03a25.95 25.95 0 0 1 3.708.074 1.07 1.07 0 0 1 .773 1.683 1.07 1.07 0 0 1-.971.446 23.35 23.35 0 0 0-3.397-.073 69.31 69.31 0 0 0-10.007 1.442c-4.309.855-7.52 2.383-9.559 4.543-1.685 1.804-2.986 3.931-3.827 6.252-.395 1.155-.716 2.333-.96 3.529-.26.997-.617 1.965-1.067 2.892l-.028.063c-.191.428-.382.855-.548 1.291-.104.24-.163.497-.173.758.046.312.449.683.877 1.077l.009.008c.882.621 1.453 1.593 1.565 2.667A3.17 3.17 0 0 1 8 28.123c-1.335 2.812-2.971 5.471-4.88 7.931-.812.989-.986 1.38-.986 1.542a4.54 4.54 0 0 0 .64.518c.278.194.572.365.879.511.91.465 2.157 1.103 2.412 2.404a3.98 3.98 0 0 1-.284 2.386c-.186.391-.378.737-.545 1.031a8.49 8.49 0 0 0-.133.237h0 0 0 0l-.027.049c.448.356 1.046.808 1.301.996.233.171.386.43.425.716s-.04.576-.219.803a3.92 3.92 0 0 0-.412.661l.229.131c.941.406 1.659 1.2 1.969 2.177.157.762.12 1.552-.107 2.296-.049.218-.099.442-.13.655-.056.642.034 1.288.263 1.89a1.9 1.9 0 0 0 2.197 1.42 83.09 83.09 0 0 0 9.167-2.773h.008l2.907-1.005 1.59-.547c4.434-1.412 5.333-3.01 5.308-4.101-.014-.589.452-1.077 1.041-1.091a1.05 1.05 0 0 1 1.089 1.036c.063 2.651-2.222 4.731-6.789 6.187l-1.537.533-.96.334a17.01 17.01 0 0 1 3.756 6.812l24.194-.073-.072-.107c-.307-.443-.584-.906-.827-1.387-.531-1.076-.973-2.193-1.324-3.341a37.86 37.86 0 0 1-1.345-6.691 20.18 20.18 0 0 1 1.564-10.475c.852-1.78 1.905-3.457 3.139-4.997.62-.834 1.26-1.696 1.813-2.572a14.4 14.4 0 0 0 1.92-4.533c.141-.565.709-.913 1.276-.782s.924.694.802 1.264a16.5 16.5 0 0 1-2.197 5.195c-.587.925-1.24 1.806-1.87 2.658h0 0l-.03.041c-1.137 1.411-2.108 2.948-2.897 4.579-1.292 2.942-1.776 6.175-1.402 9.366a35.95 35.95 0 0 0 1.262 6.31 20.31 20.31 0 0 0 1.204 3.037c.204.399.435.784.691 1.152a8.24 8.24 0 0 1 1.081 2.027c.102.324.043.676-.157.95s-.519.436-.858.436l-26.773.075c-.49 0-.917-.333-1.036-.808-.396-1.61-1.915-5.898-4.317-7.308a80.86 80.86 0 0 1-8.993 2.691 4.34 4.34 0 0 1-.871.092c-1.764-.03-3.301-1.214-3.779-2.912a6.27 6.27 0 0 1-.361-2.874 10 10 0 0 1 .163-.837c.135-.416.175-.858.117-1.292-.087-.33-.333-.496-.96-.853-.25-.144-.507-.293-.747-.464a1.54 1.54 0 0 1-.626-1.045 2.69 2.69 0 0 1 .348-1.539c-.364-.278-.762-.587-.992-.8-.986-.806-.333-1.962.059-2.651l.026-.047a11.92 11.92 0 0 0 .443-.842 1.84 1.84 0 0 0 .125-1.079c-.054-.277-.827-.672-1.289-.908zm12.982-29.444a14.05 14.05 0 0 0-2.927 4.8 25.49 25.49 0 0 0-.795 2.981l-2.083-.462a27.15 27.15 0 0 1 .876-3.255c.741-2.054 1.891-3.936 3.379-5.534 1.732-1.83 4.573-3.149 8.444-3.919.578-.115 1.139.261 1.254.839s-.261 1.139-.839 1.254c-3.428.682-5.887 1.79-7.309 3.295zm19.392-5.107l-.64 3.191c-.617.203-1.217.452-1.796.747l-2.708-1.813c-.846-.554-1.965-.438-2.679.278l-1.771 1.77c-.73.717-.849 1.852-.282 2.704l1.805 2.696c-.294.579-.544 1.179-.747 1.796l-3.187.64c-.996.201-1.712 1.077-1.711 2.093v2.517c-.001 1.014.713 1.889 1.707 2.092l3.191.64c.203.617.452 1.217.747 1.796l-1.813 2.708c-.554.846-.438 1.965.278 2.679l1.771 1.771a2.14 2.14 0 0 0 2.703.28l2.695-1.805c.579.294 1.179.544 1.796.747l.64 3.187c.201.996 1.076 1.713 2.093 1.712h2.517c1.014.001 1.889-.713 2.092-1.707l.64-3.191c.617-.203 1.218-.452 1.796-.747l2.708 1.813c.846.554 1.965.438 2.679-.278l1.77-1.77c.73-.717.849-1.852.282-2.704l-1.805-2.695c.294-.579.544-1.179.747-1.796l3.187-.64c.633-.128 1.174-.537 1.469-1.111l1.607 1.077c.31.195.669.299 1.036.3a1.92 1.92 0 0 0 1.362-.566l1.419-1.419c.645-.648.749-1.66.248-2.426l-1.376-2.059a10.03 10.03 0 0 0 .516-1.239l2.414-.481a1.92 1.92 0 0 0 1.55-1.891V12.86a1.92 1.92 0 0 0-1.541-1.889l-2.425-.483c-.143-.424-.315-.838-.514-1.239l1.397-2.083a1.93 1.93 0 0 0-.267-2.398l-1.419-1.419c-.648-.646-1.66-.749-2.426-.249l-2.059 1.376c-.401-.2-.815-.372-1.239-.516l-.482-2.414a1.92 1.92 0 0 0-1.89-1.55h-2.005a1.92 1.92 0 0 0-1.889 1.541l-.483 2.425a9.87 9.87 0 0 0-1.239.517l-2.083-1.397a1.93 1.93 0 0 0-2.398.267l-.96.96c-.138-.029-.278-.044-.419-.046h-2.517c-1.014-.001-1.889.713-2.092 1.707zm16.307 4.181l-.498-.498c1.849.247 3.319 1.673 3.624 3.513s-.628 3.664-2.298 4.494l-1.619-.32c-.203-.617-.452-1.218-.747-1.796l1.813-2.708c.556-.846.441-1.966-.275-2.682v-.003zm-8.928-5.18l2.438 1.638c.342.229.785.241 1.139.031.611-.359 1.267-.634 1.952-.816.391-.106.689-.424.768-.821l.573-2.874h1.668l.573 2.88c.079.397.377.716.768.821.685.182 1.341.457 1.952.816.355.208.798.194 1.139-.037l2.438-1.636 1.184 1.184-1.635 2.439c-.229.342-.241.785-.031 1.139a7.8 7.8 0 0 1 .816 1.952c.106.391.424.689.821.768l2.88.573v1.668l-2.875.573c-.397.079-.716.377-.821.768-.182.685-.457 1.341-.816 1.952-.21.354-.198.797.031 1.139l1.636 2.438-1.184 1.184-2.378-1.59v-1.09a2.14 2.14 0 0 0-.747-1.625c1.878-1.809 2.467-4.578 1.488-6.995s-3.329-3.996-5.936-3.988c-.645.004-1.285.109-1.898.311-.521-.076-1.052.041-1.493.329l-2.693 1.805a12.7 12.7 0 0 0-1.796-.747l-.64-3.187c-.019-.085-.044-.17-.074-.252l.751-.751zm-6.055 5.241l.768-3.815h2.517l.767 3.819c.08.396.377.713.767.819a10.51 10.51 0 0 1 2.518 1.045c.352.204.79.19 1.129-.036l3.228-2.159 1.788 1.778-2.165 3.231c-.227.338-.241.776-.036 1.128A10.51 10.51 0 0 1 48.7 18.54c.106.39.423.687.819.767l3.815.763v2.518l-3.819.767c-.396.08-.714.377-.819.767a10.51 10.51 0 0 1-1.045 2.518c-.204.352-.19.79.036 1.128l2.159 3.228-1.778 1.788-3.231-2.165c-.338-.227-.776-.241-1.129-.036a10.51 10.51 0 0 1-2.518 1.045c-.39.106-.687.423-.767.819l-.764 3.816h-2.517l-.767-3.819c-.08-.396-.377-.713-.767-.819a10.51 10.51 0 0 1-2.518-1.045c-.352-.204-.79-.19-1.129.036l-3.228 2.159-1.788-1.778 2.165-3.231c.227-.338.241-.776.036-1.128a10.51 10.51 0 0 1-1.045-2.518c-.106-.39-.423-.687-.819-.767l-3.815-.764v-2.517l3.819-.767c.396-.08.713-.377.819-.767a10.51 10.51 0 0 1 1.045-2.518c.204-.352.19-.79-.036-1.128l-2.159-3.228 1.778-1.788 3.231 2.165c.338.227.776.241 1.129.036a10.51 10.51 0 0 1 2.518-1.045c.389-.107.684-.424.763-.819zm9.493 11.118a7.47 7.47 0 0 1-7.467 7.467c-4.122-.005-7.462-3.345-7.467-7.467a7.47 7.47 0 0 1 7.467-7.467 7.47 7.47 0 0 1 7.467 7.467zm-2.133 0c0-2.945-2.388-5.333-5.333-5.333a5.34 5.34 0 0 0-5.333 5.333c0 2.946 2.388 5.333 5.333 5.333s5.333-2.388 5.333-5.333zm-5.335 1.065c.589 0 1.067-.478 1.067-1.067s-.478-1.067-1.067-1.067-1.067.478-1.067 1.067.478 1.067 1.067 1.067zm-27.73 0c0 .589-.478 1.067-1.067 1.067s-1.067-.478-1.067-1.067.478-1.067 1.067-1.067 1.067.478 1.067 1.067z" fill="#ff444f"/></g><defs><clipPath id="A"><path fill="#fff" d="M0 0h64v64H0z"/></clipPath></defs></svg>
