<svg xmlns="http://www.w3.org/2000/svg" width="32" height="32"><g fill="none" fill-rule="evenodd"><path d="M0 0h32v32H0z"/><g transform="translate(4 8)" fill-rule="nonzero"><rect width="24" height="16" fill="#4CAF50" rx="2"/><path fill="#FFF" d="m5.397 6.09.529 2.777.645-2.777h.682l.642 2.782.526-2.782h.803L8.356 10h-.81l-.637-2.616L6.272 10h-.81l-.868-3.91h.803zm6.134 0L12.994 10h-.856l-.272-.806h-1.412l-.269.806H9.33l1.455-3.91h.747zm2.634 0v3.263h1.711V10H13.36V6.09h.805zm2.979 0v3.263h1.71V10h-2.516V6.09h.806zm-5.987.988-.486 1.464h.978l-.492-1.464zm7.956-3.6c.177 0 .336.032.475.096a.743.743 0 0 1 .323.273.71.71 0 0 1 .116.4h-.513a.335.335 0 0 0-.108-.266.44.44 0 0 0-.302-.095.465.465 0 0 0-.292.08.247.247 0 0 0-.104.209c0 .08.04.148.122.203.081.055.201.106.36.154.291.088.504.197.637.326.133.13.2.292.2.486a.598.598 0 0 1-.245.506c-.162.123-.382.184-.657.184a1.27 1.27 0 0 1-.523-.105.82.82 0 0 1-.36-.288.735.735 0 0 1-.124-.424h.514c0 .275.164.412.493.412a.483.483 0 0 0 .285-.074.243.243 0 0 0 .102-.208.264.264 0 0 0-.102-.223 1.34 1.34 0 0 0-.37-.164 2.538 2.538 0 0 1-.421-.17c-.283-.153-.424-.358-.424-.617 0-.134.038-.254.113-.36a.752.752 0 0 1 .327-.247c.142-.059.301-.088.478-.088zm3.134.034v.415h-.762V6h-.513V3.927h-.752v-.415h2.027z"/><rect width="23" height="15" x=".5" y=".5" stroke="#FFF" stroke-opacity=".24" rx="1"/></g><g transform="translate(19 2)"><rect width="11" height="8" fill="#0E0E0E" rx="1"/><path fill="#FFF" fill-rule="nonzero" d="M3.508 6.072c.212 0 .406-.03.582-.09.176-.06.326-.143.45-.249.124-.106.22-.234.288-.384.068-.15.102-.315.102-.495 0-.156-.025-.295-.075-.417a.99.99 0 0 0-.48-.522 1.334 1.334 0 0 0-.327-.117v-.024c.112-.028.217-.07.315-.126.098-.056.183-.124.255-.204a.91.91 0 0 0 .171-.282c.042-.108.063-.23.063-.366a.973.973 0 0 0-.369-.783 1.188 1.188 0 0 0-.405-.204 1.752 1.752 0 0 0-.498-.069c-.168 0-.318.02-.45.06a1.39 1.39 0 0 0-.348.156c-.1.064-.187.137-.261.219a1.741 1.741 0 0 0-.189.249l.372.288c.088-.16.2-.287.336-.381a.91.91 0 0 1 .528-.141c.224 0 .405.055.543.165.138.11.207.275.207.495v.042a.649.649 0 0 1-.213.501c-.142.13-.355.195-.639.195H3.01v.438h.492c.296 0 .52.067.672.201.152.134.228.325.228.573v.048c0 .248-.076.439-.228.573-.152.134-.376.201-.672.201-.128 0-.24-.013-.336-.039a.94.94 0 0 1-.465-.285 1.541 1.541 0 0 1-.171-.228l-.378.288c.064.092.137.18.219.264a1.433 1.433 0 0 0 .657.39c.14.04.3.06.48.06zm3.792 0c.5 0 .865-.19 1.095-.57.23-.38.345-.912.345-1.596S8.625 2.69 8.395 2.31c-.23-.38-.595-.57-1.095-.57s-.865.19-1.095.57c-.23.38-.345.912-.345 1.596s.115 1.216.345 1.596c.23.38.595.57 1.095.57zm0-.438a.817.817 0 0 1-.42-.102.78.78 0 0 1-.282-.288 1.433 1.433 0 0 1-.159-.438 2.82 2.82 0 0 1-.051-.558v-.684c0-.204.017-.39.051-.558.034-.168.087-.314.159-.438a.78.78 0 0 1 .282-.288.817.817 0 0 1 .42-.102c.164 0 .304.034.42.102a.78.78 0 0 1 .282.288c.072.124.125.27.159.438.034.168.051.354.051.558v.684c0 .204-.017.39-.051.558a1.433 1.433 0 0 1-.159.438.78.78 0 0 1-.282.288.817.817 0 0 1-.42.102z"/></g></g></svg>