<svg width="342" height="228" viewBox="0 0 342 228" fill="none" xmlns="http://www.w3.org/2000/svg">
<g filter="url(#filter0_d_2591_24922)">
<rect x="7" y="6" width="328" height="213.697" rx="4.14138" fill="white"/>
</g>
<path d="M37.3706 26.9095C37.5376 27.2157 37.7278 27.596 37.9411 28.0506C38.1638 28.4959 38.3911 28.9829 38.623 29.5117C38.8642 30.0312 39.1007 30.5646 39.3327 31.1119C39.5646 31.6592 39.7826 32.1741 39.9867 32.6565C40.1908 32.1741 40.4088 31.6592 40.6407 31.1119C40.8726 30.5646 41.1045 30.0312 41.3364 29.5117C41.5776 28.9829 41.8049 28.4959 42.0183 28.0506C42.2409 27.596 42.4357 27.2157 42.6027 26.9095H44.5787C44.6714 27.5496 44.7549 28.2686 44.8291 29.0664C44.9126 29.8549 44.9822 30.6805 45.0379 31.5433C45.1028 32.3967 45.1585 33.2548 45.2049 34.1176C45.2605 34.9803 45.3069 35.792 45.344 36.5527H43.2289C43.2011 35.6158 43.164 34.5953 43.1176 33.4914C43.0712 32.3875 43.0016 31.2743 42.9089 30.1518C42.7419 30.5414 42.5563 30.9728 42.3522 31.4459C42.1482 31.919 41.9441 32.3921 41.74 32.8652C41.5452 33.3383 41.355 33.7929 41.1695 34.2289C40.9839 34.6556 40.8262 35.0221 40.6963 35.3282H39.1796C39.0497 35.0221 38.892 34.6556 38.7065 34.2289C38.5209 33.7929 38.3261 33.3383 38.122 32.8652C37.9272 32.3921 37.7278 31.919 37.5237 31.4459C37.3196 30.9728 37.1341 30.5414 36.9671 30.1518C36.8743 31.2743 36.8047 32.3875 36.7584 33.4914C36.712 34.5953 36.6749 35.6158 36.647 36.5527H34.5319C34.569 35.792 34.6108 34.9803 34.6572 34.1176C34.7128 33.2548 34.7685 32.3967 34.8241 31.5433C34.8891 30.6805 34.9587 29.8549 35.0329 29.0664C35.1164 28.2686 35.2045 27.5496 35.2973 26.9095H37.3706ZM49.9563 35.1056C50.1604 35.1056 50.3552 35.1009 50.5408 35.0916C50.7263 35.0824 50.8747 35.0685 50.9861 35.0499V33.4775C50.9026 33.4589 50.7773 33.4404 50.6103 33.4218C50.4434 33.4033 50.2903 33.394 50.1511 33.394C49.9563 33.394 49.7708 33.4079 49.5945 33.4357C49.4276 33.4543 49.2791 33.496 49.1493 33.561C49.0194 33.6259 48.9173 33.714 48.8431 33.8254C48.7689 33.9367 48.7318 34.0758 48.7318 34.2428C48.7318 34.5675 48.8385 34.7948 49.0518 34.9247C49.2745 35.0453 49.576 35.1056 49.9563 35.1056ZM49.7894 29.0386C50.4016 29.0386 50.9118 29.1081 51.32 29.2473C51.7282 29.3864 52.0529 29.5859 52.2941 29.8456C52.5446 30.1054 52.7208 30.4208 52.8229 30.7919C52.9249 31.1629 52.9759 31.5757 52.9759 32.0303V36.344C52.6791 36.4089 52.2662 36.4832 51.7375 36.5666C51.2087 36.6594 50.5686 36.7058 49.8172 36.7058C49.3441 36.7058 48.9127 36.6641 48.5231 36.5806C48.1427 36.4971 47.8134 36.3626 47.5351 36.177C47.2568 35.9822 47.0434 35.7317 46.895 35.4256C46.7466 35.1195 46.6724 34.7438 46.6724 34.2985C46.6724 33.8717 46.7558 33.51 46.9228 33.2131C47.0991 32.9162 47.331 32.6797 47.6186 32.5034C47.9062 32.3272 48.2355 32.2019 48.6066 32.1277C48.9776 32.0442 49.3626 32.0025 49.7615 32.0025C50.0305 32.0025 50.2671 32.0164 50.4712 32.0442C50.6846 32.0628 50.8562 32.0906 50.9861 32.1277V31.9329C50.9861 31.5804 50.8794 31.2974 50.666 31.0841C50.4526 30.8707 50.0816 30.764 49.5528 30.764C49.2003 30.764 48.8524 30.7919 48.5092 30.8475C48.1659 30.8939 47.8691 30.9635 47.6186 31.0562L47.3542 29.3864C47.4748 29.3493 47.6232 29.3122 47.7995 29.2751C47.985 29.2287 48.1845 29.1916 48.3978 29.1638C48.6112 29.1267 48.8338 29.0989 49.0658 29.0803C49.307 29.0525 49.5482 29.0386 49.7894 29.0386ZM54.7812 27.4105L56.8546 27.0765V29.2334H59.3454V30.9588H56.8546V33.5331C56.8546 33.9692 56.9288 34.317 57.0772 34.5768C57.2349 34.8365 57.5457 34.9664 58.0095 34.9664C58.2322 34.9664 58.4594 34.9479 58.6914 34.9107C58.9325 34.8644 59.1506 34.8041 59.3454 34.7298L59.6376 36.344C59.3871 36.4461 59.1088 36.5342 58.8027 36.6084C58.4965 36.6826 58.1208 36.7197 57.6755 36.7197C57.1097 36.7197 56.6412 36.6455 56.2701 36.4971C55.899 36.3394 55.6022 36.126 55.3795 35.857C55.1569 35.5787 54.9992 35.2447 54.9064 34.8551C54.8229 34.4655 54.7812 34.0341 54.7812 33.561V27.4105ZM60.4141 32.893C60.4141 32.3643 60.4976 31.868 60.6646 31.4041C60.8408 30.931 61.0913 30.5228 61.416 30.1796C61.7407 29.8271 62.135 29.5488 62.5988 29.3447C63.0626 29.1406 63.5914 29.0386 64.1851 29.0386C64.5747 29.0386 64.9319 29.0757 65.2566 29.1499C65.5813 29.2148 65.8967 29.3122 66.2028 29.4421L65.7714 31.098C65.5766 31.0238 65.3633 30.9588 65.1313 30.9032C64.8994 30.8475 64.6397 30.8197 64.3521 30.8197C63.7398 30.8197 63.2806 31.0099 62.9745 31.3902C62.6776 31.7706 62.5292 32.2715 62.5292 32.893C62.5292 33.5517 62.6684 34.0619 62.9467 34.4237C63.2342 34.7855 63.7306 34.9664 64.4356 34.9664C64.6861 34.9664 64.9551 34.9432 65.2427 34.8968C65.5302 34.8504 65.7946 34.7762 66.0358 34.6742L66.3281 36.3718C66.0869 36.4739 65.7854 36.562 65.4236 36.6362C65.0618 36.7104 64.6629 36.7475 64.2269 36.7475C63.5589 36.7475 62.9838 36.6501 62.5014 36.4553C62.019 36.2512 61.6201 35.9776 61.3047 35.6343C60.9985 35.2911 60.7713 34.8876 60.6228 34.4237C60.4837 33.9506 60.4141 33.4404 60.4141 32.893ZM67.7196 36.5527V26.0885L69.7929 25.7546V29.2612C69.9321 29.2148 70.1083 29.1731 70.3217 29.136C70.5443 29.0896 70.7577 29.0664 70.9618 29.0664C71.5555 29.0664 72.0472 29.1499 72.4368 29.3169C72.8357 29.4746 73.1511 29.7018 73.383 29.9987C73.6242 30.2956 73.7912 30.6481 73.884 31.0562C73.986 31.4644 74.037 31.919 74.037 32.4199V36.5527H71.9637V32.6704C71.9637 32.0025 71.8756 31.5294 71.6993 31.2511C71.5323 30.9728 71.2169 30.8336 70.7531 30.8336C70.5675 30.8336 70.3913 30.8522 70.2243 30.8893C70.0666 30.9171 69.9228 30.9496 69.7929 30.9867V36.5527H67.7196ZM75.5659 32.9487C75.5659 32.2993 75.6633 31.7335 75.8581 31.2511C76.0622 30.7594 76.3266 30.3512 76.6512 30.0265C76.9759 29.7018 77.347 29.456 77.7645 29.289C78.1912 29.122 78.6272 29.0386 79.0725 29.0386C80.1115 29.0386 80.9325 29.3586 81.5355 29.9987C82.1385 30.6295 82.4399 31.5618 82.4399 32.7956C82.4399 32.9162 82.4353 33.0508 82.426 33.1992C82.4168 33.3383 82.4075 33.4636 82.3982 33.5749H77.6949C77.7413 34.0016 77.9407 34.3402 78.2932 34.5907C78.6458 34.8412 79.1189 34.9664 79.7126 34.9664C80.0929 34.9664 80.464 34.9339 80.8258 34.869C81.1969 34.7948 81.4984 34.7067 81.7303 34.6046L82.0086 36.2883C81.8973 36.344 81.7488 36.3997 81.5633 36.4553C81.3778 36.511 81.169 36.5574 80.9371 36.5945C80.7145 36.6409 80.4733 36.678 80.2135 36.7058C79.9538 36.7336 79.694 36.7475 79.4343 36.7475C78.7756 36.7475 78.2005 36.6501 77.7088 36.4553C77.2264 36.2605 76.8229 35.9961 76.4982 35.6622C76.1828 35.3189 75.9462 34.9154 75.7885 34.4515C75.6401 33.9877 75.5659 33.4868 75.5659 32.9487ZM80.4362 32.1555C80.4269 31.9793 80.3944 31.8077 80.3388 31.6407C80.2924 31.4737 80.2135 31.3253 80.1022 31.1954C80.0002 31.0655 79.8656 30.9588 79.6987 30.8754C79.541 30.7919 79.3415 30.7501 79.1003 30.7501C78.8684 30.7501 78.6689 30.7919 78.502 30.8754C78.335 30.9496 78.1958 31.0516 78.0845 31.1815C77.9732 31.3114 77.8851 31.4644 77.8201 31.6407C77.7645 31.8077 77.7227 31.9793 77.6949 32.1555H80.4362ZM86.1412 35.0638C86.5215 35.0638 86.7905 35.0267 86.9482 34.9525C87.1059 34.8783 87.1848 34.7345 87.1848 34.5211C87.1848 34.3541 87.0828 34.2104 86.8787 34.0898C86.6746 33.9599 86.3638 33.8161 85.9464 33.6584C85.6217 33.5378 85.3248 33.4125 85.0558 33.2827C84.796 33.1528 84.5734 32.9997 84.3879 32.8235C84.2023 32.6379 84.0585 32.4199 83.9565 32.1695C83.8544 31.919 83.8034 31.6175 83.8034 31.265C83.8034 30.5785 84.0585 30.0358 84.5688 29.6369C85.079 29.238 85.7794 29.0386 86.6699 29.0386C87.1152 29.0386 87.542 29.0803 87.9501 29.1638C88.3583 29.238 88.683 29.3215 88.9242 29.4143L88.5624 31.0284C88.3212 30.9449 88.0568 30.8707 87.7692 30.8058C87.4909 30.7408 87.1755 30.7084 86.823 30.7084C86.1736 30.7084 85.8489 30.8893 85.8489 31.2511C85.8489 31.3346 85.8629 31.4088 85.8907 31.4737C85.9185 31.5386 85.9742 31.6036 86.0577 31.6685C86.1412 31.7242 86.2525 31.7891 86.3916 31.8633C86.5401 31.9283 86.7256 32.0025 86.9482 32.086C87.4028 32.253 87.7785 32.4199 88.0754 32.5869C88.3722 32.7446 88.6041 32.9209 88.7711 33.1157C88.9474 33.3012 89.068 33.51 89.1329 33.7419C89.2071 33.9738 89.2442 34.2428 89.2442 34.549C89.2442 35.2725 88.9706 35.8199 88.4232 36.1909C87.8852 36.562 87.1199 36.7475 86.1272 36.7475C85.4779 36.7475 84.9352 36.6919 84.4992 36.5806C84.0724 36.4692 83.7756 36.3765 83.6086 36.3023L83.9565 34.6185C84.309 34.7577 84.6708 34.869 85.0419 34.9525C85.4129 35.0267 85.7794 35.0638 86.1412 35.0638Z" fill="#414652"/>
<path d="M223.725 33.0471V33.8848H219.567V26.9738H220.534V33.0471H223.725ZM226.433 33.2166C226.653 33.2166 226.845 33.2133 227.012 33.2066C227.185 33.1933 227.327 33.1734 227.44 33.1468V31.6011C227.374 31.5678 227.264 31.5412 227.111 31.5213C226.965 31.4947 226.786 31.4814 226.573 31.4814C226.433 31.4814 226.284 31.4914 226.124 31.5113C225.971 31.5312 225.828 31.5745 225.695 31.6409C225.569 31.7008 225.463 31.7872 225.376 31.9002C225.29 32.0066 225.247 32.1495 225.247 32.3291C225.247 32.6615 225.353 32.8942 225.566 33.0271C225.778 33.1534 226.068 33.2166 226.433 33.2166ZM226.353 28.5694C226.726 28.5694 227.038 28.6193 227.291 28.719C227.55 28.8121 227.756 28.9484 227.909 29.1279C228.069 29.3007 228.182 29.5102 228.248 29.7561C228.315 29.9955 228.348 30.2614 228.348 30.5539V33.795C228.268 33.8083 228.155 33.8283 228.009 33.8548C227.869 33.8748 227.71 33.8947 227.53 33.9147C227.351 33.9346 227.155 33.9512 226.942 33.9645C226.736 33.9845 226.53 33.9945 226.324 33.9945C226.031 33.9945 225.762 33.9645 225.516 33.9047C225.27 33.8449 225.057 33.7518 224.878 33.6255C224.698 33.4925 224.558 33.3197 224.459 33.1069C224.359 32.8942 224.309 32.6382 224.309 32.339C224.309 32.0531 224.366 31.8072 224.479 31.6011C224.598 31.395 224.758 31.2287 224.957 31.1024C225.157 30.9761 225.389 30.883 225.655 30.8232C225.921 30.7634 226.201 30.7334 226.493 30.7334C226.586 30.7334 226.683 30.7401 226.782 30.7534C226.882 30.76 226.975 30.7733 227.062 30.7933C227.155 30.8066 227.234 30.8199 227.301 30.8332C227.367 30.8465 227.414 30.8564 227.44 30.8631V30.6038C227.44 30.4509 227.424 30.3013 227.391 30.155C227.357 30.0021 227.298 29.8692 227.211 29.7561C227.125 29.6365 227.005 29.5434 226.852 29.4769C226.706 29.4038 226.513 29.3672 226.274 29.3672C225.968 29.3672 225.699 29.3905 225.466 29.437C225.24 29.4769 225.07 29.5201 224.957 29.5667L224.848 28.7988C224.967 28.7456 225.167 28.6957 225.446 28.6492C225.725 28.596 226.028 28.5694 226.353 28.5694ZM231.095 33.2166C231.474 33.2166 231.753 33.1667 231.933 33.067C232.119 32.9673 232.212 32.8077 232.212 32.5883C232.212 32.3623 232.122 32.1828 231.943 32.0498C231.763 31.9169 231.467 31.7673 231.055 31.6011C230.856 31.5213 230.663 31.4415 230.477 31.3617C230.297 31.2753 230.141 31.1756 230.008 31.0625C229.875 30.9495 229.769 30.8132 229.689 30.6537C229.609 30.4941 229.569 30.298 229.569 30.0653C229.569 29.6066 229.739 29.2442 230.078 28.9783C230.417 28.7057 230.879 28.5694 231.464 28.5694C231.61 28.5694 231.757 28.5794 231.903 28.5993C232.049 28.6126 232.185 28.6326 232.312 28.6592C232.438 28.6791 232.548 28.7024 232.641 28.729C232.74 28.7556 232.817 28.7788 232.87 28.7988L232.701 29.5966C232.601 29.5434 232.445 29.4902 232.232 29.437C232.019 29.3772 231.763 29.3473 231.464 29.3473C231.205 29.3473 230.979 29.4005 230.786 29.5068C230.593 29.6066 230.497 29.7661 230.497 29.9855C230.497 30.0985 230.517 30.1983 230.557 30.2847C230.603 30.3711 230.67 30.4509 230.756 30.524C230.849 30.5905 230.962 30.6537 231.095 30.7135C231.228 30.7733 231.388 30.8365 231.574 30.903C231.82 30.9961 232.039 31.0891 232.232 31.1822C232.425 31.2686 232.588 31.3717 232.721 31.4914C232.86 31.611 232.967 31.7573 233.04 31.9302C233.113 32.0964 233.149 32.3025 233.149 32.5484C233.149 33.0271 232.97 33.3895 232.611 33.6355C232.258 33.8814 231.753 34.0044 231.095 34.0044C230.636 34.0044 230.277 33.9645 230.018 33.8848C229.759 33.8116 229.583 33.7551 229.489 33.7152L229.659 32.9174C229.765 32.9573 229.935 33.0172 230.168 33.0969C230.4 33.1767 230.709 33.2166 231.095 33.2166ZM235.207 28.6991H237.171V29.4769H235.207V31.8703C235.207 32.1296 235.227 32.3457 235.266 32.5185C235.306 32.6847 235.366 32.8177 235.446 32.9174C235.526 33.0105 235.625 33.077 235.745 33.1169C235.865 33.1568 236.004 33.1767 236.164 33.1767C236.443 33.1767 236.666 33.1468 236.832 33.087C237.005 33.0205 237.125 32.9739 237.191 32.9473L237.371 33.7152C237.278 33.7618 237.115 33.8183 236.882 33.8848C236.649 33.9579 236.383 33.9945 236.084 33.9945C235.732 33.9945 235.439 33.9512 235.207 33.8648C234.981 33.7717 234.798 33.6355 234.658 33.4559C234.518 33.2764 234.419 33.057 234.359 32.7978C234.306 32.5318 234.279 32.226 234.279 31.8803V27.253L235.207 27.0935V28.6991ZM244.01 29.796C243.897 29.703 243.734 29.6132 243.522 29.5268C243.309 29.4403 243.076 29.3971 242.823 29.3971C242.558 29.3971 242.328 29.447 242.135 29.5467C241.949 29.6398 241.796 29.7728 241.677 29.9456C241.557 30.1118 241.471 30.3113 241.417 30.544C241.364 30.7767 241.338 31.026 241.338 31.2919C241.338 31.8969 241.487 32.3656 241.786 32.698C242.086 33.0238 242.484 33.1867 242.983 33.1867C243.236 33.1867 243.445 33.1767 243.611 33.1568C243.784 33.1302 243.917 33.1036 244.01 33.077V29.796ZM244.01 26.3056L244.938 26.1461V33.7352C244.725 33.795 244.452 33.8548 244.12 33.9147C243.787 33.9745 243.405 34.0044 242.973 34.0044C242.574 34.0044 242.215 33.9413 241.896 33.815C241.577 33.6886 241.304 33.5091 241.078 33.2764C240.852 33.0437 240.676 32.7612 240.55 32.4288C240.43 32.0897 240.37 31.7108 240.37 31.2919C240.37 30.893 240.42 30.5273 240.52 30.1949C240.626 29.8625 240.779 29.5766 240.979 29.3373C241.178 29.098 241.421 28.9118 241.707 28.7788C241.999 28.6459 242.332 28.5794 242.704 28.5794C243.003 28.5794 243.266 28.6193 243.492 28.6991C243.724 28.7788 243.897 28.8553 244.01 28.9284V26.3056ZM247.459 33.8848H246.532V28.6991H247.459V33.8848ZM246.991 27.7616C246.824 27.7616 246.682 27.7084 246.562 27.6021C246.449 27.4891 246.392 27.3395 246.392 27.1533C246.392 26.9672 246.449 26.8209 246.562 26.7145C246.682 26.6015 246.824 26.545 246.991 26.545C247.157 26.545 247.297 26.6015 247.41 26.7145C247.529 26.8209 247.589 26.9672 247.589 27.1533C247.589 27.3395 247.529 27.4891 247.41 27.6021C247.297 27.7084 247.157 27.7616 246.991 27.7616ZM252.305 33.3662C252.226 33.4194 252.069 33.4892 251.837 33.5756C251.611 33.6554 251.345 33.6953 251.039 33.6953C250.726 33.6953 250.43 33.6454 250.151 33.5457C249.879 33.446 249.639 33.2931 249.433 33.087C249.227 32.8742 249.064 32.6116 248.945 32.2991C248.825 31.9867 248.765 31.6144 248.765 31.1822C248.765 30.8033 248.822 30.4575 248.935 30.1451C249.048 29.8259 249.211 29.5534 249.423 29.3273C249.643 29.0946 249.909 28.9151 250.221 28.7888C250.534 28.6558 250.886 28.5894 251.278 28.5894C251.71 28.5894 252.086 28.6226 252.405 28.6891C252.731 28.7489 253.003 28.8054 253.223 28.8586V33.4859C253.223 34.2837 253.017 34.8621 252.605 35.2211C252.192 35.5801 251.567 35.7596 250.73 35.7596C250.404 35.7596 250.095 35.733 249.802 35.6798C249.516 35.6266 249.267 35.5635 249.054 35.4903L249.224 34.6826C249.41 34.7557 249.636 34.8189 249.902 34.872C250.175 34.9319 250.457 34.9618 250.75 34.9618C251.301 34.9618 251.697 34.8521 251.936 34.6327C252.182 34.4133 252.305 34.0643 252.305 33.5856V33.3662ZM252.295 29.5168C252.202 29.4902 252.076 29.4669 251.916 29.447C251.763 29.4204 251.554 29.4071 251.288 29.4071C250.79 29.4071 250.404 29.57 250.131 29.8958C249.865 30.2215 249.732 30.6537 249.732 31.1922C249.732 31.4914 249.769 31.7473 249.842 31.9601C249.922 32.1728 250.025 32.349 250.151 32.4886C250.284 32.6282 250.434 32.7313 250.6 32.7978C250.773 32.8642 250.949 32.8975 251.129 32.8975C251.375 32.8975 251.601 32.8642 251.807 32.7978C252.013 32.7246 252.176 32.6415 252.295 32.5484V29.5168ZM255.747 33.8848H254.82V28.6991H255.747V33.8848ZM255.278 27.7616C255.112 27.7616 254.969 27.7084 254.85 27.6021C254.737 27.4891 254.68 27.3395 254.68 27.1533C254.68 26.9672 254.737 26.8209 254.85 26.7145C254.969 26.6015 255.112 26.545 255.278 26.545C255.445 26.545 255.584 26.6015 255.697 26.7145C255.817 26.8209 255.877 26.9672 255.877 27.1533C255.877 27.3395 255.817 27.4891 255.697 27.6021C255.584 27.7084 255.445 27.7616 255.278 27.7616ZM258.21 28.6991H260.174V29.4769H258.21V31.8703C258.21 32.1296 258.23 32.3457 258.269 32.5185C258.309 32.6847 258.369 32.8177 258.449 32.9174C258.529 33.0105 258.628 33.077 258.748 33.1169C258.868 33.1568 259.007 33.1767 259.167 33.1767C259.446 33.1767 259.669 33.1468 259.835 33.087C260.008 33.0205 260.128 32.9739 260.194 32.9473L260.374 33.7152C260.281 33.7618 260.118 33.8183 259.885 33.8848C259.652 33.9579 259.386 33.9945 259.087 33.9945C258.735 33.9945 258.442 33.9512 258.21 33.8648C257.984 33.7717 257.801 33.6355 257.661 33.4559C257.522 33.2764 257.422 33.057 257.362 32.7978C257.309 32.5318 257.282 32.226 257.282 31.8803V27.253L258.21 27.0935V28.6991ZM267.263 31.3019C267.263 30.6969 267.113 30.2315 266.814 29.9057C266.515 29.58 266.116 29.4171 265.617 29.4171C265.338 29.4171 265.118 29.427 264.959 29.447C264.806 29.4669 264.683 29.4902 264.59 29.5168V32.7878C264.703 32.8809 264.866 32.9706 265.079 33.057C265.291 33.1435 265.524 33.1867 265.777 33.1867C266.043 33.1867 266.269 33.1402 266.455 33.0471C266.648 32.9473 266.804 32.8144 266.923 32.6482C267.043 32.4753 267.13 32.2759 267.183 32.0498C267.236 31.8171 267.263 31.5678 267.263 31.3019ZM268.23 31.3019C268.23 31.6941 268.177 32.0565 268.07 32.3889C267.971 32.7213 267.821 33.0072 267.622 33.2465C267.422 33.4859 267.176 33.672 266.884 33.805C266.598 33.938 266.269 34.0044 265.896 34.0044C265.597 34.0044 265.331 33.9645 265.099 33.8848C264.872 33.805 264.703 33.7285 264.59 33.6554V35.7297H263.662V28.8586C263.882 28.8054 264.154 28.7489 264.48 28.6891C264.813 28.6226 265.195 28.5894 265.627 28.5894C266.026 28.5894 266.385 28.6525 266.704 28.7788C267.023 28.9052 267.296 29.0847 267.522 29.3173C267.748 29.55 267.921 29.8359 268.04 30.175C268.167 30.5074 268.23 30.883 268.23 31.3019ZM271.45 28.5894C271.529 28.5894 271.619 28.596 271.719 28.6093C271.825 28.6159 271.928 28.6292 272.028 28.6492C272.128 28.6625 272.218 28.6791 272.297 28.6991C272.384 28.7123 272.447 28.7256 272.487 28.7389L272.327 29.5467C272.254 29.5201 272.131 29.4902 271.958 29.457C271.792 29.4171 271.576 29.3971 271.31 29.3971C271.137 29.3971 270.964 29.4171 270.792 29.457C270.625 29.4902 270.516 29.5135 270.462 29.5268V33.8848H269.535V28.9184C269.754 28.8387 270.027 28.7655 270.353 28.6991C270.678 28.6259 271.044 28.5894 271.45 28.5894ZM273.093 31.3019C273.093 30.8431 273.159 30.4442 273.292 30.1052C273.425 29.7595 273.601 29.4736 273.821 29.2475C274.04 29.0215 274.293 28.852 274.579 28.7389C274.864 28.6259 275.157 28.5694 275.456 28.5694C276.154 28.5694 276.689 28.7888 277.062 29.2276C277.434 29.6597 277.62 30.3212 277.62 31.2121C277.62 31.252 277.62 31.3052 277.62 31.3717C277.62 31.4315 277.617 31.488 277.61 31.5412H274.06C274.1 32.0797 274.256 32.4886 274.529 32.7678C274.801 33.0471 275.227 33.1867 275.805 33.1867C276.131 33.1867 276.403 33.1601 276.623 33.1069C276.849 33.0471 277.018 32.9906 277.131 32.9374L277.261 33.7152C277.148 33.7751 276.949 33.8382 276.663 33.9047C276.384 33.9712 276.064 34.0044 275.705 34.0044C275.253 34.0044 274.861 33.938 274.529 33.805C274.203 33.6654 273.934 33.4759 273.721 33.2366C273.508 32.9972 273.349 32.7147 273.242 32.3889C273.142 32.0565 273.093 31.6941 273.093 31.3019ZM276.653 30.7933C276.659 30.3744 276.553 30.032 276.334 29.7661C276.121 29.4935 275.825 29.3572 275.446 29.3572C275.233 29.3572 275.044 29.4005 274.878 29.4869C274.718 29.5667 274.582 29.673 274.469 29.806C274.356 29.939 274.266 30.0919 274.2 30.2647C274.14 30.4376 274.1 30.6138 274.08 30.7933H276.653ZM282.303 29.796C282.19 29.703 282.027 29.6132 281.815 29.5268C281.602 29.4403 281.369 29.3971 281.116 29.3971C280.85 29.3971 280.621 29.447 280.428 29.5467C280.242 29.6398 280.089 29.7728 279.97 29.9456C279.85 30.1118 279.763 30.3113 279.71 30.544C279.657 30.7767 279.631 31.026 279.631 31.2919C279.631 31.8969 279.78 32.3656 280.079 32.698C280.378 33.0238 280.777 33.1867 281.276 33.1867C281.529 33.1867 281.738 33.1767 281.904 33.1568C282.077 33.1302 282.21 33.1036 282.303 33.077V29.796ZM282.303 26.3056L283.231 26.1461V33.7352C283.018 33.795 282.745 33.8548 282.413 33.9147C282.08 33.9745 281.698 34.0044 281.266 34.0044C280.867 34.0044 280.508 33.9413 280.189 33.815C279.87 33.6886 279.597 33.5091 279.371 33.2764C279.145 33.0437 278.969 32.7612 278.843 32.4288C278.723 32.0897 278.663 31.7108 278.663 31.2919C278.663 30.893 278.713 30.5273 278.813 30.1949C278.919 29.8625 279.072 29.5766 279.272 29.3373C279.471 29.098 279.714 28.9118 280 28.7788C280.292 28.6459 280.624 28.5794 280.997 28.5794C281.296 28.5794 281.559 28.6193 281.785 28.6991C282.017 28.7788 282.19 28.8553 282.303 28.9284V26.3056ZM285.752 33.8848H284.825V28.6991H285.752V33.8848ZM285.284 27.7616C285.117 27.7616 284.974 27.7084 284.855 27.6021C284.742 27.4891 284.685 27.3395 284.685 27.1533C284.685 26.9672 284.742 26.8209 284.855 26.7145C284.974 26.6015 285.117 26.545 285.284 26.545C285.45 26.545 285.589 26.6015 285.702 26.7145C285.822 26.8209 285.882 26.9672 285.882 27.1533C285.882 27.3395 285.822 27.4891 285.702 27.6021C285.589 27.7084 285.45 27.7616 285.284 27.7616ZM289.601 34.0044C289.182 34.0044 288.813 33.938 288.494 33.805C288.182 33.672 287.916 33.4859 287.696 33.2465C287.484 33.0072 287.324 32.7246 287.218 32.3989C287.111 32.0664 287.058 31.7008 287.058 31.3019C287.058 30.903 287.115 30.5373 287.228 30.2049C287.347 29.8725 287.513 29.5866 287.726 29.3473C287.939 29.1013 288.198 28.9118 288.504 28.7788C288.817 28.6392 289.162 28.5694 289.541 28.5694C289.774 28.5694 290.007 28.5894 290.239 28.6292C290.472 28.6691 290.695 28.7323 290.907 28.8187L290.698 29.6066C290.558 29.5401 290.396 29.4869 290.209 29.447C290.03 29.4071 289.837 29.3872 289.631 29.3872C289.112 29.3872 288.713 29.55 288.434 29.8758C288.162 30.2016 288.025 30.6769 288.025 31.3019C288.025 31.5811 288.055 31.8371 288.115 32.0698C288.182 32.3025 288.281 32.5019 288.414 32.6681C288.554 32.8343 288.73 32.964 288.943 33.057C289.156 33.1435 289.415 33.1867 289.721 33.1867C289.967 33.1867 290.189 33.1634 290.389 33.1169C290.588 33.0703 290.745 33.0205 290.858 32.9673L290.987 33.7452C290.934 33.7784 290.858 33.8116 290.758 33.8449C290.658 33.8715 290.545 33.8947 290.419 33.9147C290.292 33.9413 290.156 33.9612 290.01 33.9745C289.87 33.9945 289.734 34.0044 289.601 34.0044ZM292.851 28.6991H294.815V29.4769H292.851V31.8703C292.851 32.1296 292.87 32.3457 292.91 32.5185C292.95 32.6847 293.01 32.8177 293.09 32.9174C293.17 33.0105 293.269 33.077 293.389 33.1169C293.509 33.1568 293.648 33.1767 293.808 33.1767C294.087 33.1767 294.31 33.1468 294.476 33.087C294.649 33.0205 294.769 32.9739 294.835 32.9473L295.015 33.7152C294.921 33.7618 294.759 33.8183 294.526 33.8848C294.293 33.9579 294.027 33.9945 293.728 33.9945C293.376 33.9945 293.083 33.9512 292.851 33.8648C292.624 33.7717 292.442 33.6355 292.302 33.4559C292.162 33.2764 292.063 33.057 292.003 32.7978C291.95 32.5318 291.923 32.226 291.923 31.8803V27.253L292.851 27.0935V28.6991ZM296.923 33.8848H295.995V28.6991H296.923V33.8848ZM296.454 27.7616C296.288 27.7616 296.145 27.7084 296.025 27.6021C295.912 27.4891 295.856 27.3395 295.856 27.1533C295.856 26.9672 295.912 26.8209 296.025 26.7145C296.145 26.6015 296.288 26.545 296.454 26.545C296.62 26.545 296.76 26.6015 296.873 26.7145C296.993 26.8209 297.052 26.9672 297.052 27.1533C297.052 27.3395 296.993 27.4891 296.873 27.6021C296.76 27.7084 296.62 27.7616 296.454 27.7616ZM303.095 31.2919C303.095 31.7041 303.035 32.0764 302.916 32.4088C302.796 32.7412 302.626 33.0271 302.407 33.2665C302.194 33.5058 301.938 33.692 301.639 33.8249C301.34 33.9512 301.014 34.0144 300.662 34.0144C300.309 34.0144 299.984 33.9512 299.684 33.8249C299.385 33.692 299.126 33.5058 298.907 33.2665C298.694 33.0271 298.528 32.7412 298.408 32.4088C298.288 32.0764 298.228 31.7041 298.228 31.2919C298.228 30.8864 298.288 30.5174 298.408 30.185C298.528 29.8459 298.694 29.5567 298.907 29.3173C299.126 29.078 299.385 28.8952 299.684 28.7689C299.984 28.6359 300.309 28.5694 300.662 28.5694C301.014 28.5694 301.34 28.6359 301.639 28.7689C301.938 28.8952 302.194 29.078 302.407 29.3173C302.626 29.5567 302.796 29.8459 302.916 30.185C303.035 30.5174 303.095 30.8864 303.095 31.2919ZM302.128 31.2919C302.128 30.7069 301.995 30.2448 301.729 29.9057C301.469 29.56 301.114 29.3872 300.662 29.3872C300.21 29.3872 299.851 29.56 299.585 29.9057C299.325 30.2448 299.196 30.7069 299.196 31.2919C299.196 31.877 299.325 32.3423 299.585 32.6881C299.851 33.0271 300.21 33.1967 300.662 33.1967C301.114 33.1967 301.469 33.0271 301.729 32.6881C301.995 32.3423 302.128 31.877 302.128 31.2919ZM304.4 28.8486C304.613 28.7955 304.895 28.7389 305.248 28.6791C305.6 28.6193 306.005 28.5894 306.464 28.5894C306.876 28.5894 307.219 28.6492 307.491 28.7689C307.764 28.8819 307.98 29.0448 308.14 29.2575C308.306 29.4636 308.422 29.7129 308.489 30.0055C308.555 30.298 308.588 30.6204 308.588 30.9728V33.8848H307.661V31.1722C307.661 30.8531 307.638 30.5805 307.591 30.3545C307.551 30.1284 307.481 29.9456 307.382 29.806C307.282 29.6664 307.149 29.5667 306.983 29.5068C306.817 29.4403 306.61 29.4071 306.364 29.4071C306.265 29.4071 306.162 29.4104 306.055 29.4171C305.949 29.4237 305.846 29.4337 305.746 29.447C305.653 29.4536 305.567 29.4636 305.487 29.4769C305.414 29.4902 305.361 29.5002 305.327 29.5068V33.8848H304.4V28.8486ZM311.223 33.3462C311.223 33.5258 311.163 33.682 311.044 33.815C310.924 33.9479 310.761 34.0144 310.555 34.0144C310.349 34.0144 310.186 33.9479 310.066 33.815C309.947 33.682 309.887 33.5258 309.887 33.3462C309.887 33.1667 309.947 33.0105 310.066 32.8775C310.186 32.7446 310.349 32.6781 310.555 32.6781C310.761 32.6781 310.924 32.7446 311.044 32.8775C311.163 33.0105 311.223 33.1667 311.223 33.3462ZM311.223 29.3672C311.223 29.5467 311.163 29.703 311.044 29.8359C310.924 29.9689 310.761 30.0354 310.555 30.0354C310.349 30.0354 310.186 29.9689 310.066 29.8359C309.947 29.703 309.887 29.5467 309.887 29.3672C309.887 29.1877 309.947 29.0315 310.066 28.8985C310.186 28.7655 310.349 28.6991 310.555 28.6991C310.761 28.6991 310.924 28.7655 311.044 28.8985C311.163 29.0315 311.223 29.1877 311.223 29.3672ZM316.345 33.2066C316.936 33.2066 317.358 33.0903 317.611 32.8576C317.87 32.6249 318 32.3124 318 31.9202C318 31.6675 317.947 31.4548 317.84 31.2819C317.734 31.1091 317.594 30.9728 317.422 30.8731C317.249 30.7667 317.046 30.6936 316.813 30.6537C316.587 30.6071 316.354 30.5839 316.115 30.5839H315.876V29.8259H316.205C316.371 29.8259 316.541 29.8093 316.714 29.7761C316.893 29.7428 317.056 29.683 317.202 29.5966C317.348 29.5102 317.468 29.3938 317.561 29.2475C317.654 29.0946 317.701 28.9052 317.701 28.6791C317.701 28.493 317.668 28.3334 317.601 28.2004C317.535 28.0675 317.445 27.9578 317.332 27.8713C317.225 27.7849 317.099 27.7251 316.953 27.6918C316.813 27.6519 316.664 27.632 316.504 27.632C316.185 27.632 315.912 27.6785 315.686 27.7716C315.467 27.8647 315.281 27.9611 315.128 28.0608L314.769 27.3528C314.849 27.2996 314.948 27.2431 315.068 27.1832C315.194 27.1167 315.334 27.0569 315.487 27.0037C315.64 26.9505 315.803 26.9073 315.976 26.8741C316.155 26.8342 316.341 26.8142 316.534 26.8142C316.9 26.8142 317.215 26.8608 317.481 26.9539C317.747 27.0403 317.967 27.1666 318.14 27.3328C318.312 27.4924 318.442 27.6852 318.529 27.9112C318.615 28.1306 318.658 28.37 318.658 28.6292C318.658 28.9883 318.555 29.2974 318.349 29.5567C318.143 29.8093 317.894 30.0021 317.601 30.1351C317.781 30.1883 317.953 30.2647 318.12 30.3645C318.286 30.4642 318.429 30.5905 318.548 30.7434C318.675 30.8963 318.774 31.0725 318.848 31.272C318.927 31.4714 318.967 31.6941 318.967 31.9401C318.967 32.2393 318.914 32.5185 318.808 32.7778C318.708 33.0305 318.548 33.2498 318.329 33.436C318.116 33.6222 317.847 33.7684 317.521 33.8748C317.196 33.9812 316.81 34.0344 316.364 34.0344C316.192 34.0344 316.012 34.0211 315.826 33.9945C315.646 33.9679 315.477 33.9346 315.317 33.8947C315.158 33.8548 315.018 33.815 314.899 33.7751C314.779 33.7352 314.692 33.7019 314.639 33.6753L314.819 32.8676C314.932 32.9208 315.118 32.9906 315.377 33.077C315.643 33.1634 315.966 33.2066 316.345 33.2066Z" fill="#414652" fill-opacity="0.8"/>
<rect x="7.51245" y="56.8835" width="326.975" height="162.301" stroke="#ECECEC" stroke-width="1.0249"/>
<path d="M7 110.161H335" stroke="#ECECEC" stroke-width="1.0249"/>
<path d="M7 83.7549H335" stroke="#ECECEC" stroke-width="1.0249"/>
<path d="M7 136.566H335" stroke="#ECECEC" stroke-width="1.0249"/>
<path d="M7 162.973H335" stroke="#ECECEC" stroke-width="1.0249"/>
<path d="M7 189.379H335" stroke="#ECECEC" stroke-width="1.0249"/>
<path d="M62.178 56.3711L62.178 219.697" stroke="#ECECEC" stroke-width="1.0249"/>
<path d="M116.333 56.3711L116.333 219.697" stroke="#ECECEC" stroke-width="1.0249"/>
<path d="M170.489 56.3711L170.489 219.697" stroke="#ECECEC" stroke-width="1.0249"/>
<path d="M224.645 56.3711L224.645 219.697" stroke="#ECECEC" stroke-width="1.0249"/>
<path d="M278.801 56.3711L278.801 219.697" stroke="#ECECEC" stroke-width="1.0249"/>
<path d="M7 57.1348H335" stroke="#ECECEC" stroke-width="1.5302"/>
<rect x="117.327" y="13.9512" width="81.503" height="33.7939" rx="15.903" fill="#00A79E"/>
<path d="M149.849 27.0584C149.976 27.4931 150.114 27.986 150.263 28.5373C150.422 29.0781 150.586 29.64 150.756 30.2231C150.936 30.8062 151.116 31.3893 151.296 31.9724C151.476 32.5555 151.651 33.0962 151.821 33.5945C151.959 33.0538 152.097 32.4654 152.234 31.8293C152.383 31.1932 152.521 30.5358 152.648 29.8573C152.775 29.1788 152.897 28.5055 153.014 27.8376C153.141 27.1591 153.258 26.5071 153.364 25.8815H155.94C155.569 27.7263 155.139 29.5976 154.652 31.4953C154.175 33.3931 153.655 35.1954 153.093 36.9023H150.819C150.448 35.8845 150.088 34.819 149.738 33.7058C149.388 32.582 149.043 31.4582 148.704 30.3344C148.365 31.4582 148.025 32.582 147.686 33.7058C147.347 34.819 146.992 35.8845 146.621 36.9023H144.347C143.785 35.1954 143.26 33.3931 142.772 31.4953C142.295 29.5976 141.871 27.7263 141.5 25.8815H144.188C144.294 26.5071 144.41 27.1591 144.537 27.8376C144.665 28.5055 144.797 29.1788 144.935 29.8573C145.073 30.5358 145.211 31.1932 145.348 31.8293C145.497 32.4654 145.645 33.0538 145.794 33.5945C145.985 33.075 146.17 32.5237 146.35 31.9406C146.531 31.3575 146.706 30.7744 146.875 30.1913C147.045 29.6082 147.199 29.0462 147.336 28.5055C147.485 27.9648 147.617 27.4824 147.734 27.0584H149.849ZM159.745 36.9023H157.375V28.5373H159.745V36.9023ZM159.967 26.1201C159.967 26.5548 159.824 26.8993 159.538 27.1538C159.262 27.3976 158.934 27.5196 158.552 27.5196C158.17 27.5196 157.836 27.3976 157.55 27.1538C157.274 26.8993 157.136 26.5548 157.136 26.1201C157.136 25.6854 157.274 25.3461 157.55 25.1023C157.836 24.8478 158.17 24.7206 158.552 24.7206C158.934 24.7206 159.262 24.8478 159.538 25.1023C159.824 25.3461 159.967 25.6854 159.967 26.1201ZM161.972 28.8236C162.375 28.707 162.894 28.601 163.53 28.5055C164.167 28.3995 164.835 28.3465 165.534 28.3465C166.245 28.3465 166.833 28.4419 167.3 28.6328C167.777 28.813 168.153 29.0728 168.429 29.412C168.704 29.7513 168.9 30.1542 169.017 30.6206C169.134 31.0871 169.192 31.6066 169.192 32.1791V36.9023H166.822V32.4654C166.822 31.7021 166.722 31.1613 166.52 30.8433C166.319 30.5252 165.942 30.3662 165.391 30.3662C165.222 30.3662 165.041 30.3768 164.85 30.398C164.66 30.4086 164.49 30.4245 164.342 30.4457V36.9023H161.972V28.8236ZM173.77 28.7282C173.77 29.5869 173.738 30.3874 173.675 31.1295C173.611 31.8717 173.526 32.6244 173.42 33.3878H171.607C171.501 32.6244 171.411 31.8717 171.337 31.1295C171.273 30.3874 171.241 29.5869 171.241 28.7282V25.8815H173.77V28.7282ZM173.977 35.646C173.977 36.1125 173.823 36.473 173.515 36.7274C173.219 36.9819 172.879 37.1091 172.498 37.1091C172.116 37.1091 171.771 36.9819 171.464 36.7274C171.167 36.473 171.019 36.1125 171.019 35.646C171.019 35.1795 171.167 34.819 171.464 34.5646C171.771 34.3101 172.116 34.1829 172.498 34.1829C172.879 34.1829 173.219 34.3101 173.515 34.5646C173.823 34.819 173.977 35.1795 173.977 35.646Z" fill="white"/>
<path d="M48.7454 110.363L85.0241 142.666L122.794 110.363L161.557 142.666L202.309 110.363L279.836 158.569" stroke="#A8A8A8" stroke-width="2.98182"/>
<path d="M295.149 147.337C295.907 147.337 296.448 147.188 296.772 146.89C297.104 146.592 297.27 146.191 297.27 145.689C297.27 145.365 297.202 145.092 297.065 144.871C296.929 144.649 296.75 144.475 296.529 144.347C296.307 144.21 296.047 144.117 295.749 144.066C295.46 144.006 295.161 143.976 294.855 143.976H294.548V143.005H294.97C295.183 143.005 295.4 142.984 295.621 142.941C295.851 142.898 296.06 142.822 296.248 142.711C296.435 142.6 296.588 142.451 296.708 142.264C296.827 142.068 296.887 141.825 296.887 141.535C296.887 141.297 296.844 141.092 296.759 140.922C296.674 140.752 296.559 140.611 296.414 140.5C296.277 140.389 296.116 140.313 295.928 140.27C295.749 140.219 295.558 140.193 295.353 140.193C294.944 140.193 294.595 140.253 294.305 140.372C294.024 140.492 293.785 140.615 293.59 140.743L293.129 139.836C293.232 139.768 293.36 139.695 293.513 139.618C293.675 139.533 293.854 139.457 294.05 139.388C294.246 139.32 294.454 139.265 294.676 139.222C294.906 139.171 295.144 139.146 295.391 139.146C295.86 139.146 296.265 139.205 296.605 139.324C296.946 139.435 297.227 139.597 297.449 139.81C297.67 140.015 297.836 140.262 297.947 140.551C298.058 140.832 298.113 141.139 298.113 141.471C298.113 141.931 297.981 142.328 297.717 142.66C297.453 142.984 297.134 143.231 296.759 143.401C296.989 143.469 297.21 143.567 297.423 143.695C297.636 143.823 297.819 143.985 297.973 144.181C298.135 144.377 298.262 144.602 298.356 144.858C298.458 145.113 298.51 145.399 298.51 145.714C298.51 146.097 298.441 146.455 298.305 146.788C298.177 147.111 297.973 147.392 297.692 147.631C297.419 147.87 297.074 148.057 296.657 148.193C296.239 148.33 295.745 148.398 295.174 148.398C294.953 148.398 294.723 148.381 294.484 148.347C294.254 148.313 294.037 148.27 293.832 148.219C293.628 148.168 293.449 148.117 293.296 148.065C293.142 148.014 293.032 147.972 292.963 147.938L293.193 146.903C293.338 146.971 293.577 147.06 293.909 147.171C294.25 147.282 294.663 147.337 295.149 147.337Z" fill="#414652"/>
<rect x="286.936" y="135.851" width="16.613" height="16.613" rx="8.30649" stroke="#414652" stroke-width="1.27792"/>
<path d="M284.309 158.073C284.309 160.818 282.084 163.043 279.339 163.043C276.595 163.043 274.37 160.818 274.37 158.073C274.37 155.329 276.595 153.104 279.339 153.104C282.084 153.104 284.309 155.329 284.309 158.073Z" fill="#FF444F"/>
<path d="M29.8247 93.7044C31.0333 93.7044 31.6376 93.2909 31.6376 92.4639C31.6376 92.2095 31.582 91.9948 31.4707 91.8199C31.3673 91.637 31.2242 91.4819 31.0413 91.3547C30.8584 91.2195 30.6477 91.1042 30.4091 91.0088C30.1785 90.9134 29.932 90.818 29.6696 90.7225C29.3675 90.6192 29.0812 90.5039 28.8109 90.3767C28.5405 90.2415 28.306 90.0864 28.1072 89.9115C27.9084 89.7286 27.7494 89.5139 27.6301 89.2674C27.5188 89.0209 27.4631 88.7227 27.4631 88.3729C27.4631 87.6493 27.7096 87.0847 28.2026 86.6792C28.6956 86.2737 29.3754 86.0709 30.2422 86.0709C30.7431 86.0709 31.1963 86.1266 31.6019 86.2379C32.0153 86.3413 32.3175 86.4566 32.5083 86.5838L32.1386 87.526C31.9716 87.4227 31.7211 87.3233 31.3872 87.2279C31.0612 87.1245 30.6795 87.0728 30.2422 87.0728C30.0195 87.0728 29.8128 87.0967 29.6219 87.1444C29.4311 87.1921 29.2641 87.2636 29.121 87.3591C28.9779 87.4545 28.8626 87.5777 28.7751 87.7288C28.6956 87.8719 28.6558 88.0429 28.6558 88.2417C28.6558 88.4643 28.6996 88.6512 28.787 88.8023C28.8745 88.9533 28.9977 89.0885 29.1568 89.2078C29.3158 89.3191 29.4987 89.4225 29.7054 89.5179C29.9201 89.6133 30.1547 89.7087 30.4091 89.8041C30.767 89.9473 31.093 90.0904 31.3872 90.2335C31.6893 90.3767 31.9478 90.5476 32.1624 90.7464C32.3851 90.9452 32.556 91.1837 32.6753 91.462C32.7946 91.7324 32.8542 92.0624 32.8542 92.452C32.8542 93.1756 32.5879 93.7322 32.0551 94.1218C31.5303 94.5114 30.7868 94.7063 29.8247 94.7063C29.4987 94.7063 29.1965 94.6824 28.9182 94.6347C28.6479 94.5949 28.4054 94.5472 28.1907 94.4916C27.976 94.4279 27.7891 94.3643 27.6301 94.3007C27.479 94.2292 27.3597 94.1695 27.2723 94.1218L27.6182 93.1676C27.801 93.271 28.0793 93.3863 28.4531 93.5135C28.8268 93.6407 29.284 93.7044 29.8247 93.7044ZM35.2185 88.3252H37.5682V89.2555H35.2185V92.118C35.2185 92.4281 35.2424 92.6866 35.2901 92.8933C35.3378 93.0921 35.4094 93.2511 35.5048 93.3704C35.6002 93.4817 35.7195 93.5612 35.8626 93.6089C36.0057 93.6567 36.1727 93.6805 36.3635 93.6805C36.6975 93.6805 36.9639 93.6447 37.1627 93.5732C37.3694 93.4936 37.5125 93.438 37.5921 93.4062L37.8067 94.3246C37.6954 94.3802 37.5006 94.4478 37.2223 94.5273C36.944 94.6148 36.6259 94.6585 36.2681 94.6585C35.8467 94.6585 35.4968 94.6069 35.2185 94.5035C34.9482 94.3922 34.7295 94.2292 34.5625 94.0145C34.3955 93.7998 34.2763 93.5374 34.2047 93.2273C34.1411 92.9092 34.1093 92.5434 34.1093 92.13V86.5957L35.2185 86.4049V88.3252ZM41.0789 93.7282C41.3413 93.7282 41.5719 93.7242 41.7707 93.7163C41.9774 93.7004 42.1484 93.6765 42.2836 93.6447V91.796C42.2041 91.7562 42.0729 91.7244 41.89 91.7006C41.715 91.6688 41.5003 91.6529 41.2459 91.6529C41.0789 91.6529 40.9 91.6648 40.7092 91.6887C40.5263 91.7125 40.3553 91.7642 40.1963 91.8437C40.0452 91.9153 39.918 92.0186 39.8146 92.1538C39.7113 92.281 39.6596 92.452 39.6596 92.6667C39.6596 93.0643 39.7868 93.3426 40.0412 93.5016C40.2957 93.6527 40.6416 93.7282 41.0789 93.7282ZM40.9835 88.1701C41.4288 88.1701 41.8025 88.2297 42.1047 88.349C42.4148 88.4603 42.6613 88.6233 42.8442 88.838C43.035 89.0448 43.1702 89.2952 43.2497 89.5895C43.3292 89.8757 43.369 90.1938 43.369 90.5436V94.42C43.2735 94.4359 43.1384 94.4598 42.9634 94.4916C42.7964 94.5154 42.6056 94.5393 42.3909 94.5631C42.1762 94.587 41.9417 94.6069 41.6872 94.6228C41.4407 94.6466 41.1942 94.6585 40.9477 94.6585C40.5979 94.6585 40.2758 94.6228 39.9816 94.5512C39.6874 94.4796 39.433 94.3683 39.2183 94.2172C39.0036 94.0582 38.8366 93.8515 38.7173 93.597C38.598 93.3426 38.5384 93.0364 38.5384 92.6786C38.5384 92.3367 38.606 92.0425 38.7412 91.796C38.8843 91.5495 39.0751 91.3507 39.3137 91.1996C39.5522 91.0486 39.8305 90.9372 40.1486 90.8657C40.4667 90.7941 40.8006 90.7583 41.1505 90.7583C41.2618 90.7583 41.3771 90.7663 41.4964 90.7822C41.6156 90.7901 41.727 90.806 41.8303 90.8299C41.9417 90.8458 42.0371 90.8617 42.1166 90.8776C42.1961 90.8935 42.2518 90.9054 42.2836 90.9134V90.6033C42.2836 90.4204 42.2637 90.2415 42.2239 90.0665C42.1842 89.8837 42.1126 89.7246 42.0092 89.5895C41.9059 89.4463 41.7627 89.335 41.5799 89.2555C41.4049 89.168 41.1743 89.1243 40.8881 89.1243C40.5223 89.1243 40.2003 89.1521 39.922 89.2078C39.6516 89.2555 39.4489 89.3072 39.3137 89.3628L39.1825 88.4444C39.3256 88.3808 39.5642 88.3212 39.8981 88.2655C40.2321 88.2019 40.5939 88.1701 40.9835 88.1701ZM47.5013 88.194C47.5967 88.194 47.7041 88.2019 47.8233 88.2178C47.9506 88.2258 48.0738 88.2417 48.1931 88.2655C48.3123 88.2814 48.4197 88.3013 48.5151 88.3252C48.6185 88.3411 48.694 88.357 48.7417 88.3729L48.5509 89.339C48.4634 89.3072 48.3163 89.2714 48.1096 89.2316C47.9108 89.1839 47.6524 89.1601 47.3343 89.1601C47.1276 89.1601 46.9208 89.1839 46.7141 89.2316C46.5153 89.2714 46.3841 89.2992 46.3205 89.3151V94.5273H45.2113V88.5876C45.4737 88.4921 45.7997 88.4047 46.1893 88.3252C46.5789 88.2377 47.0162 88.194 47.5013 88.194ZM50.8498 88.3252H53.1995V89.2555H50.8498V92.118C50.8498 92.4281 50.8736 92.6866 50.9213 92.8933C50.9691 93.0921 51.0406 93.2511 51.136 93.3704C51.2315 93.4817 51.3507 93.5612 51.4939 93.6089C51.637 93.6567 51.804 93.6805 51.9948 93.6805C52.3288 93.6805 52.5951 93.6447 52.7939 93.5732C53.0007 93.4936 53.1438 93.438 53.2233 93.4062L53.438 94.3246C53.3267 94.3802 53.1319 94.4478 52.8536 94.5273C52.5753 94.6148 52.2572 94.6585 51.8994 94.6585C51.4779 94.6585 51.1281 94.6069 50.8498 94.5035C50.5794 94.3922 50.3608 94.2292 50.1938 94.0145C50.0268 93.7998 49.9075 93.5374 49.836 93.2273C49.7723 92.9092 49.7405 92.5434 49.7405 92.13V86.5957L50.8498 86.4049V88.3252Z" fill="#414652"/>
<path d="M57.1938 109.369C57.1938 113.761 53.6338 117.321 49.2423 117.321C44.8508 117.321 41.2908 113.761 41.2908 109.369C41.2908 104.978 44.8508 101.418 49.2423 101.418C53.6338 101.418 57.1938 104.978 57.1938 109.369Z" fill="#FF444F"/>
<path d="M264.462 178.019V169.753H269.507V170.743H265.619V173.2H269.078V174.166H265.619V177.029H269.805V178.019H264.462ZM271.204 171.995C271.459 171.932 271.797 171.864 272.218 171.793C272.64 171.721 273.125 171.685 273.673 171.685C274.166 171.685 274.576 171.757 274.902 171.9C275.228 172.035 275.486 172.23 275.677 172.484C275.876 172.731 276.015 173.029 276.095 173.379C276.174 173.729 276.214 174.114 276.214 174.536V178.019H275.105V174.774C275.105 174.393 275.077 174.067 275.021 173.796C274.973 173.526 274.89 173.307 274.771 173.14C274.651 172.973 274.492 172.854 274.294 172.782C274.095 172.703 273.848 172.663 273.554 172.663C273.435 172.663 273.312 172.667 273.184 172.675C273.057 172.683 272.934 172.695 272.815 172.711C272.703 172.719 272.6 172.731 272.504 172.747C272.417 172.763 272.353 172.775 272.314 172.782V178.019H271.204V171.995ZM282.061 173.128C281.926 173.017 281.731 172.91 281.476 172.806C281.222 172.703 280.944 172.651 280.641 172.651C280.323 172.651 280.049 172.711 279.818 172.83C279.596 172.942 279.413 173.101 279.27 173.307C279.127 173.506 279.023 173.745 278.96 174.023C278.896 174.301 278.864 174.599 278.864 174.917C278.864 175.641 279.043 176.202 279.401 176.599C279.759 176.989 280.236 177.184 280.832 177.184C281.134 177.184 281.385 177.172 281.584 177.148C281.79 177.116 281.949 177.084 282.061 177.052V173.128ZM282.061 168.954L283.17 168.763V177.84C282.916 177.911 282.59 177.983 282.192 178.054C281.794 178.126 281.337 178.162 280.82 178.162C280.343 178.162 279.914 178.086 279.532 177.935C279.151 177.784 278.825 177.569 278.554 177.291C278.284 177.013 278.073 176.675 277.922 176.277C277.779 175.872 277.707 175.418 277.707 174.917C277.707 174.44 277.767 174.003 277.886 173.605C278.013 173.208 278.196 172.866 278.435 172.58C278.673 172.293 278.964 172.071 279.306 171.912C279.655 171.753 280.053 171.673 280.498 171.673C280.856 171.673 281.17 171.721 281.441 171.816C281.719 171.912 281.926 172.003 282.061 172.091V168.954Z" fill="#414652"/>
<defs>
<filter id="filter0_d_2591_24922" x="0.0977015" y="0.478161" width="341.805" height="227.502" filterUnits="userSpaceOnUse" color-interpolation-filters="sRGB">
<feFlood flood-opacity="0" result="BackgroundImageFix"/>
<feColorMatrix in="SourceAlpha" type="matrix" values="0 0 0 0 0 0 0 0 0 0 0 0 0 0 0 0 0 0 127 0" result="hardAlpha"/>
<feOffset dy="1.38046"/>
<feGaussianBlur stdDeviation="3.45115"/>
<feComposite in2="hardAlpha" operator="out"/>
<feColorMatrix type="matrix" values="0 0 0 0 0 0 0 0 0 0 0 0 0 0 0 0 0 0 0.1 0"/>
<feBlend mode="normal" in2="BackgroundImageFix" result="effect1_dropShadow_2591_24922"/>
<feBlend mode="normal" in="SourceGraphic" in2="effect1_dropShadow_2591_24922" result="shape"/>
</filter>
</defs>
</svg>
