<svg width="342" height="228" viewBox="0 0 342 228" fill="none" xmlns="http://www.w3.org/2000/svg">
<g filter="url(#filter0_d_2591_25199)">
<rect x="7" y="5.78809" width="328" height="213.697" rx="4.14138" fill="white"/>
</g>
<path d="M36.6334 31.5132C36.6334 31.9864 36.689 32.4131 36.8003 32.7934C36.9209 33.1738 37.0879 33.5031 37.3013 33.7814C37.5239 34.0504 37.793 34.2592 38.1084 34.4076C38.4238 34.556 38.7856 34.6302 39.1938 34.6302C39.5927 34.6302 39.9498 34.556 40.2652 34.4076C40.5899 34.2592 40.8589 34.0504 41.0723 33.7814C41.2949 33.5031 41.4619 33.1738 41.5732 32.7934C41.6938 32.4131 41.7541 31.9864 41.7541 31.5132C41.7541 31.0401 41.6938 30.6134 41.5732 30.233C41.4619 29.8434 41.2949 29.5141 41.0723 29.2451C40.8589 28.9668 40.5899 28.7534 40.2652 28.605C39.9498 28.4565 39.5927 28.3823 39.1938 28.3823C38.7856 28.3823 38.4238 28.4612 38.1084 28.6189C37.793 28.7673 37.5239 28.9807 37.3013 29.259C37.0879 29.528 36.9209 29.8573 36.8003 30.247C36.689 30.6273 36.6334 31.0494 36.6334 31.5132ZM43.9945 31.5132C43.9945 32.3389 43.8692 33.0671 43.6188 33.6979C43.3776 34.3195 43.0436 34.8436 42.6169 35.2703C42.1901 35.6878 41.6799 36.0032 41.0862 36.2166C40.5018 36.4299 39.871 36.5366 39.1938 36.5366C38.5351 36.5366 37.9136 36.4299 37.3291 36.2166C36.7447 36.0032 36.2345 35.6878 35.7985 35.2703C35.3624 34.8436 35.0192 34.3195 34.7687 33.6979C34.5183 33.0671 34.393 32.3389 34.393 31.5132C34.393 30.6876 34.5229 29.964 34.7826 29.3425C35.0424 28.7117 35.3903 28.1829 35.8263 27.7561C36.2716 27.3294 36.7818 27.0094 37.357 26.796C37.9414 26.5826 38.5537 26.476 39.1938 26.476C39.8524 26.476 40.4739 26.5826 41.0584 26.796C41.6428 27.0094 42.153 27.3294 42.589 27.7561C43.0251 28.1829 43.3683 28.7117 43.6188 29.3425C43.8692 29.964 43.9945 30.6876 43.9945 31.5132ZM47.6547 36.3418C47.1816 35.4141 46.6992 34.3287 46.2075 33.0857C45.7251 31.8426 45.2659 30.4882 44.8299 29.0224H47.0285C47.1213 29.3842 47.228 29.7785 47.3486 30.2052C47.4784 30.6227 47.6083 31.0494 47.7382 31.4854C47.8773 31.9121 48.0119 32.3296 48.1417 32.7378C48.2809 33.146 48.4154 33.517 48.5453 33.851C48.6659 33.517 48.7957 33.146 48.9349 32.7378C49.0741 32.3296 49.2086 31.9121 49.3384 31.4854C49.4776 31.0494 49.6075 30.6227 49.7281 30.2052C49.8579 29.7785 49.9693 29.3842 50.062 29.0224H52.205C51.769 30.4882 51.3051 31.8426 50.8134 33.0857C50.3311 34.3287 49.8533 35.4141 49.3802 36.3418H47.6547ZM52.7773 32.7378C52.7773 32.0884 52.8747 31.5225 53.0695 31.0401C53.2736 30.5485 53.538 30.1403 53.8627 29.8156C54.1874 29.4909 54.5585 29.2451 54.9759 29.0781C55.4027 28.9111 55.8387 28.8276 56.2839 28.8276C57.3229 28.8276 58.1439 29.1477 58.7469 29.7878C59.3499 30.4186 59.6514 31.3509 59.6514 32.5847C59.6514 32.7053 59.6468 32.8398 59.6375 32.9882C59.6282 33.1274 59.6189 33.2526 59.6097 33.364H54.9063C54.9527 33.7907 55.1522 34.1293 55.5047 34.3798C55.8572 34.6302 56.3303 34.7555 56.924 34.7555C57.3044 34.7555 57.6755 34.723 58.0373 34.6581C58.4083 34.5838 58.7098 34.4957 58.9417 34.3937L59.22 36.0774C59.1087 36.1331 58.9603 36.1887 58.7748 36.2444C58.5892 36.3001 58.3805 36.3464 58.1486 36.3835C57.9259 36.4299 57.6847 36.467 57.425 36.4949C57.1652 36.5227 56.9055 36.5366 56.6457 36.5366C55.9871 36.5366 55.4119 36.4392 54.9203 36.2444C54.4379 36.0496 54.0343 35.7852 53.7096 35.4512C53.3942 35.108 53.1577 34.7044 53 34.2406C52.8515 33.7768 52.7773 33.2758 52.7773 32.7378ZM57.6476 31.9446C57.6384 31.7684 57.6059 31.5967 57.5502 31.4297C57.5038 31.2628 57.425 31.1143 57.3137 30.9845C57.2116 30.8546 57.0771 30.7479 56.9101 30.6644C56.7524 30.5809 56.553 30.5392 56.3118 30.5392C56.0799 30.5392 55.8804 30.5809 55.7134 30.6644C55.5464 30.7386 55.4073 30.8407 55.296 30.9705C55.1847 31.1004 55.0965 31.2535 55.0316 31.4297C54.9759 31.5967 54.9342 31.7684 54.9063 31.9446H57.6476ZM65.6625 30.8592C65.477 30.8128 65.259 30.7665 65.0085 30.7201C64.7581 30.6644 64.489 30.6366 64.2015 30.6366C64.0716 30.6366 63.9139 30.6505 63.7283 30.6783C63.5521 30.6969 63.4176 30.7201 63.3248 30.7479V36.3418H61.2514V29.4121C61.6225 29.2822 62.0585 29.1616 62.5595 29.0503C63.0697 28.9297 63.6356 28.8694 64.2571 28.8694C64.3684 28.8694 64.5029 28.8786 64.6607 28.8972C64.8184 28.9065 64.9761 28.925 65.1338 28.9529C65.2915 28.9714 65.4492 28.9992 65.6069 29.0363C65.7646 29.0642 65.8991 29.1013 66.0104 29.1477L65.6625 30.8592Z" fill="#414652"/>
<rect x="7.51221" y="56.6726" width="326.975" height="162.301" stroke="#ECECEC" stroke-width="1.0249"/>
<path d="M6.99976 109.95H335" stroke="#ECECEC" stroke-width="1.0249"/>
<path d="M6.99976 83.5439H335" stroke="#ECECEC" stroke-width="1.0249"/>
<path d="M7 136.355H335" stroke="#ECECEC" stroke-width="1.0249"/>
<path d="M7 162.762H335" stroke="#ECECEC" stroke-width="1.0249"/>
<path d="M7 189.168H335" stroke="#ECECEC" stroke-width="1.0249"/>
<path d="M62.1777 56.1602L62.1777 219.486" stroke="#ECECEC" stroke-width="1.0249"/>
<path d="M116.333 56.1602L116.333 219.486" stroke="#ECECEC" stroke-width="1.0249"/>
<path d="M170.489 56.1602L170.489 219.486" stroke="#ECECEC" stroke-width="1.0249"/>
<path d="M224.645 56.1602L224.645 219.486" stroke="#ECECEC" stroke-width="1.0249"/>
<path d="M278.801 56.1602L278.801 219.486" stroke="#ECECEC" stroke-width="1.0249"/>
<path d="M7 56.9229H335" stroke="#ECECEC" stroke-width="1.5302"/>
<path d="M31.8484 111.145L69.6181 150.405L92.4787 111.145L139.691 150.405L172.491 93.751L217.715 150.405L249.521 111.145L285.8 162.333" stroke="#A8A8A8" stroke-width="2.98182"/>
<rect x="101.424" y="13.7393" width="82.497" height="33.7939" rx="15.903" fill="#CC2E3D"/>
<path d="M133.914 34.5594V36.6904H126.551V25.6696H129.032V34.5594H133.914ZM143.177 32.492C143.177 33.1494 143.082 33.7537 142.891 34.305C142.7 34.8457 142.425 35.3122 142.064 35.7044C141.704 36.0861 141.269 36.383 140.76 36.595C140.262 36.8071 139.7 36.9131 139.074 36.9131C138.459 36.9131 137.897 36.8071 137.389 36.595C136.89 36.383 136.461 36.0861 136.1 35.7044C135.74 35.3122 135.459 34.8457 135.258 34.305C135.056 33.7537 134.955 33.1494 134.955 32.492C134.955 31.8347 135.056 31.2357 135.258 30.695C135.47 30.1543 135.756 29.6931 136.116 29.3114C136.487 28.9298 136.922 28.6329 137.42 28.4209C137.929 28.2088 138.481 28.1028 139.074 28.1028C139.679 28.1028 140.23 28.2088 140.728 28.4209C141.237 28.6329 141.672 28.9298 142.032 29.3114C142.393 29.6931 142.674 30.1543 142.875 30.695C143.077 31.2357 143.177 31.8347 143.177 32.492ZM140.76 32.492C140.76 31.7605 140.612 31.188 140.315 30.7745C140.028 30.3504 139.615 30.1384 139.074 30.1384C138.534 30.1384 138.115 30.3504 137.818 30.7745C137.521 31.188 137.373 31.7605 137.373 32.492C137.373 33.2236 137.521 33.8067 137.818 34.2414C138.115 34.6654 138.534 34.8775 139.074 34.8775C139.615 34.8775 140.028 34.6654 140.315 34.2414C140.612 33.8067 140.76 33.2236 140.76 32.492ZM147.414 34.9888C147.849 34.9888 148.156 34.9464 148.337 34.8616C148.517 34.7768 148.607 34.6124 148.607 34.3686C148.607 34.1778 148.49 34.0134 148.257 33.8756C148.024 33.7272 147.669 33.5628 147.192 33.3826C146.82 33.2448 146.481 33.1016 146.174 32.9532C145.877 32.8048 145.622 32.6299 145.41 32.4284C145.198 32.2164 145.034 31.9672 144.917 31.681C144.801 31.3947 144.743 31.0502 144.743 30.6473C144.743 29.8627 145.034 29.2425 145.617 28.7866C146.2 28.3307 147.001 28.1028 148.019 28.1028C148.527 28.1028 149.015 28.1505 149.482 28.2459C149.948 28.3307 150.319 28.4262 150.595 28.5322L150.181 30.3769C149.906 30.2815 149.604 30.1967 149.275 30.1225C148.957 30.0483 148.596 30.0112 148.193 30.0112C147.451 30.0112 147.08 30.2179 147.08 30.6314C147.08 30.7268 147.096 30.8116 147.128 30.8858C147.16 30.96 147.223 31.0343 147.319 31.1085C147.414 31.1721 147.541 31.2463 147.7 31.3311C147.87 31.4053 148.082 31.4901 148.337 31.5856C148.856 31.7764 149.285 31.9672 149.625 32.1581C149.964 32.3383 150.229 32.5397 150.42 32.7624C150.621 32.9744 150.759 33.213 150.833 33.478C150.918 33.7431 150.961 34.0505 150.961 34.4004C150.961 35.2274 150.648 35.8529 150.022 36.277C149.407 36.701 148.533 36.9131 147.398 36.9131C146.656 36.9131 146.036 36.8495 145.538 36.7222C145.05 36.595 144.711 36.489 144.52 36.4042L144.917 34.4799C145.32 34.6389 145.734 34.7662 146.158 34.8616C146.582 34.9464 147.001 34.9888 147.414 34.9888ZM155.133 34.9888C155.567 34.9888 155.875 34.9464 156.055 34.8616C156.235 34.7768 156.325 34.6124 156.325 34.3686C156.325 34.1778 156.209 34.0134 155.976 33.8756C155.742 33.7272 155.387 33.5628 154.91 33.3826C154.539 33.2448 154.2 33.1016 153.892 32.9532C153.595 32.8048 153.341 32.6299 153.129 32.4284C152.917 32.2164 152.753 31.9672 152.636 31.681C152.519 31.3947 152.461 31.0502 152.461 30.6473C152.461 29.8627 152.753 29.2425 153.336 28.7866C153.919 28.3307 154.719 28.1028 155.737 28.1028C156.246 28.1028 156.734 28.1505 157.2 28.2459C157.667 28.3307 158.038 28.4262 158.313 28.5322L157.9 30.3769C157.624 30.2815 157.322 30.1967 156.993 30.1225C156.675 30.0483 156.315 30.0112 155.912 30.0112C155.17 30.0112 154.799 30.2179 154.799 30.6314C154.799 30.7268 154.815 30.8116 154.847 30.8858C154.878 30.96 154.942 31.0343 155.037 31.1085C155.133 31.1721 155.26 31.2463 155.419 31.3311C155.589 31.4053 155.801 31.4901 156.055 31.5856C156.575 31.7764 157.004 31.9672 157.343 32.1581C157.683 32.3383 157.948 32.5397 158.138 32.7624C158.34 32.9744 158.478 33.213 158.552 33.478C158.637 33.7431 158.679 34.0505 158.679 34.4004C158.679 35.2274 158.366 35.8529 157.741 36.277C157.126 36.701 156.251 36.9131 155.117 36.9131C154.375 36.9131 153.755 36.8495 153.256 36.7222C152.769 36.595 152.429 36.489 152.238 36.4042L152.636 34.4799C153.039 34.6389 153.452 34.7662 153.876 34.8616C154.301 34.9464 154.719 34.9888 155.133 34.9888Z" fill="white"/>
<path d="M213.786 32.8352V33.6729H209.627V26.7619H210.595V32.8352H213.786ZM216.494 33.0047C216.713 33.0047 216.906 33.0014 217.072 32.9947C217.245 32.9814 217.388 32.9615 217.501 32.9349V31.3891C217.435 31.3559 217.325 31.3293 217.172 31.3094C217.026 31.2828 216.846 31.2695 216.634 31.2695C216.494 31.2695 216.344 31.2794 216.185 31.2994C216.032 31.3193 215.889 31.3625 215.756 31.429C215.63 31.4889 215.523 31.5753 215.437 31.6883C215.351 31.7947 215.307 31.9376 215.307 32.1171C215.307 32.4496 215.414 32.6822 215.626 32.8152C215.839 32.9415 216.128 33.0047 216.494 33.0047ZM216.414 28.3575C216.787 28.3575 217.099 28.4074 217.352 28.5071C217.611 28.6002 217.817 28.7365 217.97 28.916C218.13 29.0888 218.243 29.2982 218.309 29.5442C218.376 29.7836 218.409 30.0495 218.409 30.342V33.5831C218.329 33.5964 218.216 33.6163 218.07 33.6429C217.93 33.6629 217.771 33.6828 217.591 33.7028C217.412 33.7227 217.215 33.7393 217.003 33.7526C216.797 33.7726 216.59 33.7825 216.384 33.7825C216.092 33.7825 215.823 33.7526 215.577 33.6928C215.331 33.633 215.118 33.5399 214.938 33.4136C214.759 33.2806 214.619 33.1077 214.519 32.895C214.42 32.6822 214.37 32.4263 214.37 32.1271C214.37 31.8412 214.426 31.5952 214.539 31.3891C214.659 31.183 214.819 31.0168 215.018 30.8905C215.218 30.7642 215.45 30.6711 215.716 30.6113C215.982 30.5515 216.261 30.5215 216.554 30.5215C216.647 30.5215 216.743 30.5282 216.843 30.5415C216.943 30.5481 217.036 30.5614 217.122 30.5814C217.215 30.5947 217.295 30.608 217.362 30.6213C217.428 30.6346 217.475 30.6445 217.501 30.6512V30.3919C217.501 30.239 217.485 30.0894 217.451 29.9431C217.418 29.7902 217.358 29.6572 217.272 29.5442C217.185 29.4246 217.066 29.3315 216.913 29.265C216.767 29.1919 216.574 29.1553 216.334 29.1553C216.029 29.1553 215.759 29.1786 215.527 29.2251C215.301 29.265 215.131 29.3082 215.018 29.3547L214.908 28.5869C215.028 28.5337 215.228 28.4838 215.507 28.4373C215.786 28.3841 216.088 28.3575 216.414 28.3575ZM221.156 33.0047C221.535 33.0047 221.814 32.9548 221.994 32.8551C222.18 32.7554 222.273 32.5958 222.273 32.3764C222.273 32.1504 222.183 31.9709 222.003 31.8379C221.824 31.7049 221.528 31.5554 221.116 31.3891C220.916 31.3094 220.724 31.2296 220.538 31.1498C220.358 31.0634 220.202 30.9636 220.069 30.8506C219.936 30.7376 219.829 30.6013 219.75 30.4418C219.67 30.2822 219.63 30.0861 219.63 29.8534C219.63 29.3946 219.8 29.0323 220.139 28.7664C220.478 28.4938 220.94 28.3575 221.525 28.3575C221.671 28.3575 221.817 28.3675 221.964 28.3874C222.11 28.4007 222.246 28.4207 222.372 28.4472C222.499 28.4672 222.608 28.4905 222.702 28.5171C222.801 28.5436 222.878 28.5669 222.931 28.5869L222.761 29.3847C222.662 29.3315 222.505 29.2783 222.293 29.2251C222.08 29.1653 221.824 29.1354 221.525 29.1354C221.266 29.1354 221.039 29.1885 220.847 29.2949C220.654 29.3946 220.557 29.5542 220.557 29.7736C220.557 29.8866 220.577 29.9863 220.617 30.0728C220.664 30.1592 220.73 30.239 220.817 30.3121C220.91 30.3786 221.023 30.4418 221.156 30.5016C221.289 30.5614 221.448 30.6246 221.634 30.6911C221.88 30.7841 222.1 30.8772 222.293 30.9703C222.485 31.0567 222.648 31.1598 222.781 31.2794C222.921 31.3991 223.027 31.5454 223.1 31.7182C223.174 31.8844 223.21 32.0905 223.21 32.3365C223.21 32.8152 223.031 33.1775 222.672 33.4235C222.319 33.6695 221.814 33.7925 221.156 33.7925C220.697 33.7925 220.338 33.7526 220.079 33.6729C219.819 33.5997 219.643 33.5432 219.55 33.5033L219.72 32.7055C219.826 32.7454 219.996 32.8052 220.228 32.885C220.461 32.9648 220.77 33.0047 221.156 33.0047ZM225.267 28.4871H227.232V29.265H225.267V31.6584C225.267 31.9177 225.287 32.1338 225.327 32.3066C225.367 32.4728 225.427 32.6058 225.507 32.7055C225.586 32.7986 225.686 32.8651 225.806 32.905C225.926 32.9449 226.065 32.9648 226.225 32.9648C226.504 32.9648 226.727 32.9349 226.893 32.875C227.066 32.8086 227.185 32.762 227.252 32.7354L227.431 33.5033C227.338 33.5499 227.175 33.6064 226.943 33.6729C226.71 33.746 226.444 33.7825 226.145 33.7825C225.793 33.7825 225.5 33.7393 225.267 33.6529C225.041 33.5598 224.858 33.4235 224.719 33.244C224.579 33.0645 224.48 32.8451 224.42 32.5858C224.367 32.3199 224.34 32.0141 224.34 31.6684V27.0411L225.267 26.8816V28.4871ZM234.071 29.5841C233.958 29.491 233.795 29.4013 233.582 29.3149C233.37 29.2284 233.137 29.1852 232.884 29.1852C232.618 29.1852 232.389 29.2351 232.196 29.3348C232.01 29.4279 231.857 29.5608 231.737 29.7337C231.618 29.8999 231.531 30.0994 231.478 30.3321C231.425 30.5647 231.398 30.8141 231.398 31.08C231.398 31.685 231.548 32.1537 231.847 32.4861C232.146 32.8119 232.545 32.9748 233.044 32.9748C233.296 32.9748 233.506 32.9648 233.672 32.9449C233.845 32.9183 233.978 32.8917 234.071 32.8651V29.5841ZM234.071 26.0937L234.998 25.9342V33.5233C234.786 33.5831 234.513 33.6429 234.181 33.7028C233.848 33.7626 233.466 33.7925 233.034 33.7925C232.635 33.7925 232.276 33.7294 231.957 33.603C231.638 33.4767 231.365 33.2972 231.139 33.0645C230.913 32.8318 230.737 32.5493 230.611 32.2169C230.491 31.8778 230.431 31.4988 230.431 31.08C230.431 30.6811 230.481 30.3154 230.581 29.983C230.687 29.6506 230.84 29.3647 231.039 29.1254C231.239 28.886 231.481 28.6999 231.767 28.5669C232.06 28.434 232.392 28.3675 232.765 28.3675C233.064 28.3675 233.326 28.4074 233.552 28.4871C233.785 28.5669 233.958 28.6434 234.071 28.7165V26.0937ZM237.52 33.6729H236.593V28.4871H237.52V33.6729ZM237.051 27.5497C236.885 27.5497 236.742 27.4965 236.623 27.3902C236.51 27.2771 236.453 27.1276 236.453 26.9414C236.453 26.7552 236.51 26.609 236.623 26.5026C236.742 26.3896 236.885 26.3331 237.051 26.3331C237.218 26.3331 237.357 26.3896 237.47 26.5026C237.59 26.609 237.65 26.7552 237.65 26.9414C237.65 27.1276 237.59 27.2771 237.47 27.3902C237.357 27.4965 237.218 27.5497 237.051 27.5497ZM242.366 33.1543C242.286 33.2075 242.13 33.2773 241.897 33.3637C241.671 33.4435 241.405 33.4834 241.1 33.4834C240.787 33.4834 240.491 33.4335 240.212 33.3338C239.939 33.2341 239.7 33.0811 239.494 32.875C239.288 32.6623 239.125 32.3997 239.005 32.0872C238.886 31.7747 238.826 31.4024 238.826 30.9703C238.826 30.5913 238.882 30.2456 238.995 29.9332C239.108 29.614 239.271 29.3415 239.484 29.1154C239.703 28.8827 239.969 28.7032 240.282 28.5769C240.594 28.4439 240.947 28.3774 241.339 28.3774C241.771 28.3774 242.147 28.4107 242.466 28.4772C242.792 28.537 243.064 28.5935 243.284 28.6467V33.274C243.284 34.0718 243.077 34.6502 242.665 35.0092C242.253 35.3682 241.628 35.5477 240.79 35.5477C240.465 35.5477 240.156 35.5211 239.863 35.4679C239.577 35.4147 239.328 35.3516 239.115 35.2784L239.285 34.4707C239.471 34.5438 239.697 34.6069 239.963 34.6601C240.235 34.72 240.518 34.7499 240.81 34.7499C241.362 34.7499 241.758 34.6402 241.997 34.4208C242.243 34.2014 242.366 33.8524 242.366 33.3737V33.1543ZM242.356 29.3049C242.263 29.2783 242.137 29.255 241.977 29.2351C241.824 29.2085 241.615 29.1952 241.349 29.1952C240.85 29.1952 240.465 29.3581 240.192 29.6838C239.926 30.0096 239.793 30.4418 239.793 30.9803C239.793 31.2794 239.83 31.5354 239.903 31.7482C239.983 31.9609 240.086 32.1371 240.212 32.2767C240.345 32.4163 240.495 32.5194 240.661 32.5858C240.834 32.6523 241.01 32.6856 241.189 32.6856C241.435 32.6856 241.661 32.6523 241.867 32.5858C242.074 32.5127 242.236 32.4296 242.356 32.3365V29.3049ZM245.808 33.6729H244.88V28.4871H245.808V33.6729ZM245.339 27.5497C245.173 27.5497 245.03 27.4965 244.91 27.3902C244.797 27.2771 244.741 27.1276 244.741 26.9414C244.741 26.7552 244.797 26.609 244.91 26.5026C245.03 26.3896 245.173 26.3331 245.339 26.3331C245.505 26.3331 245.645 26.3896 245.758 26.5026C245.878 26.609 245.938 26.7552 245.938 26.9414C245.938 27.1276 245.878 27.2771 245.758 27.3902C245.645 27.4965 245.505 27.5497 245.339 27.5497ZM248.27 28.4871H250.235V29.265H248.27V31.6584C248.27 31.9177 248.29 32.1338 248.33 32.3066C248.37 32.4728 248.43 32.6058 248.51 32.7055C248.59 32.7986 248.689 32.8651 248.809 32.905C248.929 32.9449 249.068 32.9648 249.228 32.9648C249.507 32.9648 249.73 32.9349 249.896 32.875C250.069 32.8086 250.188 32.762 250.255 32.7354L250.434 33.5033C250.341 33.5499 250.178 33.6064 249.946 33.6729C249.713 33.746 249.447 33.7825 249.148 33.7825C248.796 33.7825 248.503 33.7393 248.27 33.6529C248.044 33.5598 247.862 33.4235 247.722 33.244C247.582 33.0645 247.483 32.8451 247.423 32.5858C247.37 32.3199 247.343 32.0141 247.343 31.6684V27.0411L248.27 26.8816V28.4871ZM257.323 31.09C257.323 30.485 257.174 30.0196 256.875 29.6938C256.575 29.368 256.177 29.2052 255.678 29.2052C255.399 29.2052 255.179 29.2151 255.02 29.2351C254.867 29.255 254.744 29.2783 254.651 29.3049V32.5759C254.764 32.669 254.927 32.7587 255.139 32.8451C255.352 32.9316 255.585 32.9748 255.837 32.9748C256.103 32.9748 256.329 32.9282 256.516 32.8352C256.708 32.7354 256.865 32.6025 256.984 32.4363C257.104 32.2634 257.19 32.064 257.244 31.8379C257.297 31.6052 257.323 31.3559 257.323 31.09ZM258.291 31.09C258.291 31.4822 258.238 31.8446 258.131 32.177C258.031 32.5094 257.882 32.7953 257.682 33.0346C257.483 33.274 257.237 33.4601 256.944 33.5931C256.659 33.726 256.329 33.7925 255.957 33.7925C255.658 33.7925 255.392 33.7526 255.159 33.6729C254.933 33.5931 254.764 33.5166 254.651 33.4435V35.5178H253.723V28.6467C253.943 28.5935 254.215 28.537 254.541 28.4772C254.873 28.4107 255.256 28.3774 255.688 28.3774C256.087 28.3774 256.446 28.4406 256.765 28.5669C257.084 28.6932 257.357 28.8727 257.583 29.1054C257.809 29.3381 257.982 29.624 258.101 29.9631C258.228 30.2955 258.291 30.6711 258.291 31.09ZM261.51 28.3774C261.59 28.3774 261.68 28.3841 261.78 28.3974C261.886 28.404 261.989 28.4173 262.089 28.4373C262.189 28.4506 262.278 28.4672 262.358 28.4871C262.445 28.5004 262.508 28.5137 262.548 28.527L262.388 29.3348C262.315 29.3082 262.192 29.2783 262.019 29.245C261.853 29.2052 261.637 29.1852 261.371 29.1852C261.198 29.1852 261.025 29.2052 260.852 29.245C260.686 29.2783 260.576 29.3016 260.523 29.3149V33.6729H259.596V28.7065C259.815 28.6268 260.088 28.5536 260.414 28.4871C260.739 28.414 261.105 28.3774 261.51 28.3774ZM263.153 31.09C263.153 30.6312 263.22 30.2323 263.353 29.8933C263.486 29.5475 263.662 29.2617 263.881 29.0356C264.101 28.8096 264.353 28.6401 264.639 28.527C264.925 28.414 265.218 28.3575 265.517 28.3575C266.215 28.3575 266.75 28.5769 267.122 29.0157C267.495 29.4478 267.681 30.1093 267.681 31.0002C267.681 31.0401 267.681 31.0933 267.681 31.1598C267.681 31.2196 267.678 31.2761 267.671 31.3293H264.121C264.161 31.8678 264.317 32.2767 264.589 32.5559C264.862 32.8352 265.288 32.9748 265.866 32.9748C266.192 32.9748 266.464 32.9482 266.684 32.895C266.91 32.8352 267.079 32.7786 267.192 32.7255L267.322 33.5033C267.209 33.5632 267.009 33.6263 266.724 33.6928C266.444 33.7593 266.125 33.7925 265.766 33.7925C265.314 33.7925 264.922 33.726 264.589 33.5931C264.264 33.4535 263.994 33.264 263.782 33.0246C263.569 32.7853 263.409 32.5027 263.303 32.177C263.203 31.8446 263.153 31.4822 263.153 31.09ZM266.714 30.5814C266.72 30.1625 266.614 29.8201 266.394 29.5542C266.182 29.2816 265.886 29.1453 265.507 29.1453C265.294 29.1453 265.105 29.1885 264.938 29.275C264.779 29.3547 264.643 29.4611 264.53 29.5941C264.417 29.7271 264.327 29.88 264.26 30.0528C264.201 30.2257 264.161 30.4019 264.141 30.5814H266.714ZM272.364 29.5841C272.251 29.491 272.088 29.4013 271.875 29.3149C271.663 29.2284 271.43 29.1852 271.177 29.1852C270.911 29.1852 270.682 29.2351 270.489 29.3348C270.303 29.4279 270.15 29.5608 270.03 29.7337C269.911 29.8999 269.824 30.0994 269.771 30.3321C269.718 30.5647 269.691 30.8141 269.691 31.08C269.691 31.685 269.841 32.1537 270.14 32.4861C270.439 32.8119 270.838 32.9748 271.337 32.9748C271.589 32.9748 271.799 32.9648 271.965 32.9449C272.138 32.9183 272.271 32.8917 272.364 32.8651V29.5841ZM272.364 26.0937L273.291 25.9342V33.5233C273.079 33.5831 272.806 33.6429 272.474 33.7028C272.141 33.7626 271.759 33.7925 271.327 33.7925C270.928 33.7925 270.569 33.7294 270.25 33.603C269.931 33.4767 269.658 33.2972 269.432 33.0645C269.206 32.8318 269.03 32.5493 268.903 32.2169C268.784 31.8778 268.724 31.4988 268.724 31.08C268.724 30.6811 268.774 30.3154 268.874 29.983C268.98 29.6506 269.133 29.3647 269.332 29.1254C269.532 28.886 269.774 28.6999 270.06 28.5669C270.353 28.434 270.685 28.3675 271.058 28.3675C271.357 28.3675 271.619 28.4074 271.845 28.4871C272.078 28.5669 272.251 28.6434 272.364 28.7165V26.0937ZM275.813 33.6729H274.886V28.4871H275.813V33.6729ZM275.344 27.5497C275.178 27.5497 275.035 27.4965 274.916 27.3902C274.803 27.2771 274.746 27.1276 274.746 26.9414C274.746 26.7552 274.803 26.609 274.916 26.5026C275.035 26.3896 275.178 26.3331 275.344 26.3331C275.511 26.3331 275.65 26.3896 275.763 26.5026C275.883 26.609 275.943 26.7552 275.943 26.9414C275.943 27.1276 275.883 27.2771 275.763 27.3902C275.65 27.4965 275.511 27.5497 275.344 27.5497ZM279.662 33.7925C279.243 33.7925 278.874 33.726 278.555 33.5931C278.242 33.4601 277.976 33.274 277.757 33.0346C277.544 32.7953 277.385 32.5127 277.278 32.1869C277.172 31.8545 277.119 31.4889 277.119 31.09C277.119 30.6911 277.175 30.3254 277.288 29.993C277.408 29.6606 277.574 29.3747 277.787 29.1354C278 28.8894 278.259 28.6999 278.565 28.5669C278.877 28.4273 279.223 28.3575 279.602 28.3575C279.835 28.3575 280.067 28.3774 280.3 28.4173C280.533 28.4572 280.755 28.5204 280.968 28.6068L280.759 29.3946C280.619 29.3282 280.456 29.275 280.27 29.2351C280.091 29.1952 279.898 29.1752 279.692 29.1752C279.173 29.1752 278.774 29.3381 278.495 29.6639C278.222 29.9897 278.086 30.465 278.086 31.09C278.086 31.3692 278.116 31.6252 278.176 31.8579C278.242 32.0905 278.342 32.29 278.475 32.4562C278.615 32.6224 278.791 32.7521 279.004 32.8451C279.216 32.9316 279.476 32.9748 279.781 32.9748C280.027 32.9748 280.25 32.9515 280.45 32.905C280.649 32.8584 280.805 32.8086 280.918 32.7554L281.048 33.5332C280.995 33.5665 280.918 33.5997 280.819 33.633C280.719 33.6596 280.606 33.6828 280.48 33.7028C280.353 33.7294 280.217 33.7493 280.071 33.7626C279.931 33.7825 279.795 33.7925 279.662 33.7925ZM282.911 28.4871H284.876V29.265H282.911V31.6584C282.911 31.9177 282.931 32.1338 282.971 32.3066C283.011 32.4728 283.071 32.6058 283.151 32.7055C283.23 32.7986 283.33 32.8651 283.45 32.905C283.569 32.9449 283.709 32.9648 283.869 32.9648C284.148 32.9648 284.371 32.9349 284.537 32.875C284.71 32.8086 284.829 32.762 284.896 32.7354L285.075 33.5033C284.982 33.5499 284.819 33.6064 284.587 33.6729C284.354 33.746 284.088 33.7825 283.789 33.7825C283.437 33.7825 283.144 33.7393 282.911 33.6529C282.685 33.5598 282.502 33.4235 282.363 33.244C282.223 33.0645 282.123 32.8451 282.064 32.5858C282.01 32.3199 281.984 32.0141 281.984 31.6684V27.0411L282.911 26.8816V28.4871ZM286.984 33.6729H286.056V28.4871H286.984V33.6729ZM286.515 27.5497C286.349 27.5497 286.206 27.4965 286.086 27.3902C285.973 27.2771 285.916 27.1276 285.916 26.9414C285.916 26.7552 285.973 26.609 286.086 26.5026C286.206 26.3896 286.349 26.3331 286.515 26.3331C286.681 26.3331 286.821 26.3896 286.934 26.5026C287.053 26.609 287.113 26.7552 287.113 26.9414C287.113 27.1276 287.053 27.2771 286.934 27.3902C286.821 27.4965 286.681 27.5497 286.515 27.5497ZM293.156 31.08C293.156 31.4922 293.096 31.8645 292.976 32.1969C292.857 32.5293 292.687 32.8152 292.468 33.0546C292.255 33.2939 291.999 33.48 291.7 33.613C291.401 33.7393 291.075 33.8025 290.723 33.8025C290.37 33.8025 290.044 33.7393 289.745 33.613C289.446 33.48 289.187 33.2939 288.967 33.0546C288.755 32.8152 288.588 32.5293 288.469 32.1969C288.349 31.8645 288.289 31.4922 288.289 31.08C288.289 30.6744 288.349 30.3055 288.469 29.973C288.588 29.634 288.755 29.3448 288.967 29.1054C289.187 28.8661 289.446 28.6833 289.745 28.5569C290.044 28.424 290.37 28.3575 290.723 28.3575C291.075 28.3575 291.401 28.424 291.7 28.5569C291.999 28.6833 292.255 28.8661 292.468 29.1054C292.687 29.3448 292.857 29.634 292.976 29.973C293.096 30.3055 293.156 30.6744 293.156 31.08ZM292.188 31.08C292.188 30.4949 292.056 30.0329 291.79 29.6938C291.53 29.3481 291.175 29.1752 290.723 29.1752C290.27 29.1752 289.911 29.3481 289.645 29.6938C289.386 30.0329 289.257 30.4949 289.257 31.08C289.257 31.665 289.386 32.1304 289.645 32.4761C289.911 32.8152 290.27 32.9847 290.723 32.9847C291.175 32.9847 291.53 32.8152 291.79 32.4761C292.056 32.1304 292.188 31.665 292.188 31.08ZM294.461 28.6367C294.673 28.5835 294.956 28.527 295.308 28.4672C295.661 28.4074 296.066 28.3774 296.525 28.3774C296.937 28.3774 297.28 28.4373 297.552 28.5569C297.825 28.67 298.041 28.8329 298.2 29.0456C298.367 29.2517 298.483 29.501 298.549 29.7935C298.616 30.0861 298.649 30.4085 298.649 30.7609V33.6729H297.722V30.9603C297.722 30.6412 297.698 30.3686 297.652 30.1426C297.612 29.9165 297.542 29.7337 297.442 29.5941C297.343 29.4545 297.21 29.3547 297.044 29.2949C296.877 29.2284 296.671 29.1952 296.425 29.1952C296.326 29.1952 296.222 29.1985 296.116 29.2052C296.01 29.2118 295.907 29.2218 295.807 29.2351C295.714 29.2417 295.627 29.2517 295.548 29.265C295.475 29.2783 295.421 29.2883 295.388 29.2949V33.6729H294.461V28.6367ZM301.284 33.1343C301.284 33.3138 301.224 33.4701 301.105 33.603C300.985 33.736 300.822 33.8025 300.616 33.8025C300.41 33.8025 300.247 33.736 300.127 33.603C300.008 33.4701 299.948 33.3138 299.948 33.1343C299.948 32.9548 300.008 32.7986 300.127 32.6656C300.247 32.5327 300.41 32.4662 300.616 32.4662C300.822 32.4662 300.985 32.5327 301.105 32.6656C301.224 32.7986 301.284 32.9548 301.284 33.1343ZM301.284 29.1553C301.284 29.3348 301.224 29.491 301.105 29.624C300.985 29.757 300.822 29.8235 300.616 29.8235C300.41 29.8235 300.247 29.757 300.127 29.624C300.008 29.491 299.948 29.3348 299.948 29.1553C299.948 28.9758 300.008 28.8196 300.127 28.6866C300.247 28.5536 300.41 28.4871 300.616 28.4871C300.822 28.4871 300.985 28.5536 301.105 28.6866C301.224 28.8196 301.284 28.9758 301.284 29.1553ZM306.136 29.4246C307.14 29.4644 307.875 29.6838 308.34 30.0827C308.812 30.4816 309.048 31.0235 309.048 31.7083C309.048 32.0141 308.995 32.2966 308.888 32.5559C308.789 32.8152 308.633 33.0379 308.42 33.2241C308.214 33.4102 307.951 33.5565 307.632 33.6629C307.313 33.7693 306.934 33.8224 306.495 33.8224C306.322 33.8224 306.146 33.8091 305.967 33.7825C305.787 33.756 305.621 33.7227 305.468 33.6828C305.315 33.6429 305.179 33.603 305.059 33.5632C304.939 33.5233 304.853 33.49 304.8 33.4634L304.979 32.6557C305.092 32.7088 305.275 32.7786 305.528 32.8651C305.787 32.9515 306.103 32.9947 306.475 32.9947C306.774 32.9947 307.024 32.9615 307.223 32.895C307.429 32.8285 307.595 32.7388 307.722 32.6257C307.848 32.5127 307.938 32.3831 307.991 32.2368C308.051 32.0839 308.081 31.9243 308.081 31.7581C308.081 31.5055 308.037 31.2828 307.951 31.09C307.865 30.8905 307.712 30.7243 307.492 30.5913C307.273 30.4584 306.98 30.3586 306.615 30.2922C306.249 30.219 305.787 30.1825 305.229 30.1825C305.268 29.8567 305.298 29.5509 305.318 29.265C305.345 28.9791 305.368 28.6999 305.388 28.4273C305.408 28.1547 305.425 27.8855 305.438 27.6195C305.451 27.3469 305.465 27.0611 305.478 26.7619H308.809V27.5497H306.286C306.279 27.6494 306.269 27.7857 306.256 27.9586C306.242 28.1248 306.229 28.301 306.216 28.4871C306.203 28.6666 306.189 28.8428 306.176 29.0157C306.163 29.1885 306.149 29.3248 306.136 29.4246Z" fill="#414652" fill-opacity="0.8"/>
<path d="M306.166 133.802C307.166 133.842 307.898 134.06 308.362 134.458C308.833 134.856 309.068 135.396 309.068 136.078C309.068 136.383 309.015 136.664 308.909 136.923C308.81 137.181 308.654 137.403 308.442 137.589C308.236 137.774 307.975 137.92 307.657 138.026C307.339 138.132 306.961 138.185 306.524 138.185C306.351 138.185 306.176 138.172 305.997 138.145C305.818 138.119 305.652 138.086 305.5 138.046C305.347 138.006 305.212 137.967 305.092 137.927C304.973 137.887 304.887 137.854 304.834 137.827L305.013 137.022C305.125 137.075 305.308 137.145 305.559 137.231C305.818 137.317 306.133 137.36 306.504 137.36C306.802 137.36 307.05 137.327 307.249 137.261C307.454 137.195 307.62 137.105 307.746 136.992C307.872 136.88 307.961 136.751 308.014 136.605C308.074 136.452 308.104 136.293 308.104 136.128C308.104 135.876 308.061 135.654 307.975 135.462C307.889 135.263 307.736 135.097 307.517 134.965C307.299 134.832 307.007 134.733 306.643 134.667C306.278 134.594 305.818 134.557 305.261 134.557C305.301 134.233 305.331 133.928 305.351 133.643C305.377 133.358 305.4 133.08 305.42 132.808C305.44 132.536 305.457 132.268 305.47 132.003C305.483 131.731 305.496 131.446 305.51 131.148H308.829V131.933H306.315C306.308 132.033 306.298 132.169 306.285 132.341C306.272 132.507 306.258 132.682 306.245 132.868C306.232 133.047 306.219 133.222 306.205 133.394C306.192 133.567 306.179 133.703 306.166 133.802Z" fill="#414652"/>
<path d="M304.585 163.482C304.711 163.19 304.883 162.852 305.102 162.468C305.321 162.077 305.566 161.676 305.837 161.265C306.116 160.854 306.411 160.45 306.722 160.053C307.04 159.655 307.358 159.297 307.676 158.979H308.561V163.353H309.376V164.108H308.561V165.867H307.666V164.108H304.585V163.482ZM307.666 160.073C307.468 160.285 307.265 160.523 307.06 160.788C306.861 161.047 306.666 161.318 306.474 161.603C306.281 161.888 306.099 162.18 305.927 162.478C305.761 162.776 305.612 163.068 305.48 163.353H307.666V160.073Z" fill="#FF444F"/>
<rect x="300.709" y="155.376" width="12.9212" height="12.9212" stroke="#FF444F" stroke-width="0.993939"/>
<path d="M306.434 191.033C307.024 191.033 307.445 190.917 307.697 190.685C307.955 190.453 308.084 190.142 308.084 189.751C308.084 189.499 308.031 189.287 307.925 189.115C307.819 188.943 307.68 188.807 307.508 188.707C307.335 188.601 307.133 188.528 306.901 188.489C306.676 188.442 306.444 188.419 306.206 188.419H305.967V187.664H306.295C306.461 187.664 306.63 187.647 306.802 187.614C306.981 187.581 307.143 187.521 307.289 187.435C307.435 187.349 307.554 187.233 307.647 187.087C307.74 186.935 307.786 186.746 307.786 186.521C307.786 186.335 307.753 186.176 307.687 186.044C307.62 185.911 307.531 185.802 307.418 185.716C307.312 185.629 307.186 185.57 307.041 185.537C306.901 185.497 306.752 185.477 306.593 185.477C306.275 185.477 306.004 185.523 305.778 185.616C305.56 185.709 305.374 185.805 305.222 185.904L304.864 185.199C304.943 185.146 305.043 185.089 305.162 185.03C305.288 184.963 305.427 184.904 305.58 184.851C305.732 184.798 305.894 184.755 306.067 184.722C306.245 184.682 306.431 184.662 306.623 184.662C306.988 184.662 307.302 184.708 307.567 184.801C307.832 184.887 308.051 185.013 308.223 185.179C308.396 185.338 308.525 185.53 308.611 185.755C308.697 185.974 308.74 186.212 308.74 186.471C308.74 186.829 308.638 187.137 308.432 187.395C308.227 187.647 307.978 187.839 307.687 187.972C307.866 188.025 308.038 188.101 308.204 188.2C308.369 188.3 308.512 188.426 308.631 188.578C308.757 188.73 308.856 188.906 308.929 189.105C309.009 189.304 309.048 189.526 309.048 189.771C309.048 190.069 308.995 190.347 308.889 190.606C308.79 190.858 308.631 191.076 308.412 191.262C308.2 191.447 307.932 191.593 307.607 191.699C307.282 191.805 306.898 191.858 306.454 191.858C306.282 191.858 306.103 191.845 305.917 191.818C305.739 191.792 305.57 191.759 305.411 191.719C305.252 191.679 305.112 191.639 304.993 191.6C304.874 191.56 304.788 191.527 304.735 191.5L304.914 190.695C305.026 190.748 305.212 190.818 305.47 190.904C305.735 190.99 306.057 191.033 306.434 191.033Z" fill="#414652"/>
<path d="M304.814 111.418C304.814 110.749 304.907 110.159 305.092 109.649C305.278 109.132 305.54 108.698 305.877 108.347C306.222 107.996 306.636 107.731 307.12 107.552C307.61 107.367 308.16 107.27 308.77 107.264L308.839 108.039C308.448 108.046 308.091 108.089 307.766 108.168C307.448 108.248 307.163 108.374 306.911 108.546C306.659 108.718 306.447 108.944 306.275 109.222C306.103 109.494 305.974 109.831 305.887 110.236C306.06 110.156 306.252 110.09 306.464 110.037C306.683 109.984 306.908 109.957 307.14 109.957C307.531 109.957 307.862 110.017 308.134 110.136C308.405 110.256 308.627 110.415 308.8 110.613C308.972 110.806 309.094 111.031 309.167 111.289C309.247 111.541 309.287 111.806 309.287 112.084C309.287 112.336 309.244 112.595 309.157 112.86C309.071 113.125 308.939 113.367 308.76 113.585C308.588 113.804 308.366 113.983 308.094 114.122C307.822 114.261 307.501 114.331 307.13 114.331C306.374 114.331 305.798 114.072 305.4 113.555C305.009 113.039 304.814 112.326 304.814 111.418ZM307.04 110.713C306.808 110.713 306.593 110.736 306.394 110.782C306.196 110.822 305.997 110.885 305.798 110.971C305.791 111.044 305.785 111.12 305.778 111.2C305.778 111.273 305.778 111.346 305.778 111.418C305.778 111.71 305.798 111.985 305.838 112.243C305.877 112.502 305.947 112.73 306.046 112.929C306.152 113.121 306.292 113.277 306.464 113.396C306.636 113.509 306.855 113.565 307.12 113.565C307.339 113.565 307.524 113.519 307.676 113.426C307.829 113.333 307.955 113.214 308.054 113.068C308.154 112.923 308.223 112.767 308.263 112.601C308.309 112.429 308.332 112.263 308.332 112.104C308.332 111.654 308.223 111.309 308.004 111.071C307.792 110.832 307.471 110.713 307.04 110.713Z" fill="#414652"/>
<path d="M305.808 86.3516C305.848 85.8215 305.941 85.2649 306.086 84.6817C306.239 84.092 306.424 83.5221 306.643 82.9722C306.862 82.4156 307.1 81.902 307.359 81.4316C307.624 80.9545 307.882 80.5668 308.134 80.2687H304.784V79.4636H309.168V80.2289C308.949 80.4807 308.707 80.8286 308.442 81.2725C308.177 81.7099 307.925 82.2035 307.687 82.7535C307.455 83.2969 307.253 83.88 307.08 84.5028C306.915 85.1191 306.812 85.7353 306.772 86.3516H305.808Z" fill="#414652"/>
<path d="M309.247 57.7265C309.247 58.0048 309.197 58.2633 309.098 58.5018C309.005 58.7337 308.863 58.9391 308.67 59.118C308.485 59.2903 308.25 59.4229 307.965 59.5156C307.68 59.615 307.352 59.6647 306.981 59.6647C306.55 59.6647 306.189 59.6051 305.897 59.4858C305.612 59.3599 305.384 59.2042 305.212 59.0187C305.039 58.8331 304.917 58.631 304.844 58.4124C304.771 58.1871 304.734 57.975 304.734 57.7762C304.734 57.5841 304.764 57.4018 304.824 57.2296C304.89 57.0507 304.973 56.885 305.072 56.7326C305.178 56.5802 305.298 56.4444 305.43 56.3251C305.569 56.1992 305.715 56.0898 305.868 55.9971C305.218 55.626 304.893 55.0793 304.893 54.3571C304.893 54.1053 304.943 53.8667 305.043 53.6414C305.142 53.4095 305.281 53.2074 305.46 53.0351C305.646 52.8629 305.868 52.727 306.126 52.6276C306.384 52.5216 306.673 52.4686 306.991 52.4686C307.362 52.4686 307.68 52.5249 307.945 52.6376C308.21 52.7502 308.425 52.896 308.591 53.0749C308.763 53.2472 308.886 53.4393 308.959 53.6514C309.038 53.8634 309.078 54.0688 309.078 54.2676C309.078 54.4598 309.048 54.642 308.988 54.8143C308.935 54.9799 308.859 55.1357 308.76 55.2814C308.667 55.4272 308.558 55.5564 308.432 55.6691C308.313 55.7817 308.187 55.8811 308.054 55.9673C308.836 56.3383 309.234 56.9248 309.247 57.7265ZM305.669 57.7862C305.669 57.9054 305.689 58.0313 305.728 58.1639C305.775 58.2898 305.851 58.409 305.957 58.5217C306.063 58.6277 306.199 58.7172 306.364 58.79C306.53 58.8629 306.739 58.8994 306.991 58.8994C307.216 58.8994 307.411 58.8663 307.577 58.8C307.749 58.7337 307.889 58.6509 307.995 58.5515C308.101 58.4455 308.18 58.3262 308.233 58.1937C308.286 58.0612 308.313 57.9253 308.313 57.7862C308.313 57.5741 308.273 57.3886 308.193 57.2296C308.114 57.0705 307.998 56.9314 307.845 56.8121C307.7 56.6928 307.521 56.5934 307.309 56.5139C307.103 56.4278 306.868 56.3549 306.603 56.2953C306.305 56.4609 306.073 56.6663 305.907 56.9115C305.748 57.1567 305.669 57.4482 305.669 57.7862ZM308.154 54.2577C308.154 54.1583 308.13 54.049 308.084 53.9297C308.044 53.8104 307.978 53.7011 307.885 53.6017C307.792 53.4957 307.673 53.4095 307.527 53.3433C307.382 53.2704 307.203 53.2339 306.991 53.2339C306.779 53.2339 306.596 53.2671 306.444 53.3333C306.298 53.3996 306.179 53.4857 306.086 53.5917C305.993 53.6911 305.924 53.8038 305.877 53.9297C305.838 54.049 305.818 54.1682 305.818 54.2875C305.818 54.4333 305.844 54.5791 305.897 54.7248C305.95 54.8706 306.033 55.0065 306.146 55.1324C306.258 55.2583 306.404 55.3709 306.583 55.4703C306.769 55.5697 306.987 55.6492 307.239 55.7088C307.517 55.5432 307.739 55.351 307.905 55.1324C308.071 54.9071 308.154 54.6155 308.154 54.2577Z" fill="#414652"/>
<path d="M21.7915 93.4924C23.0001 93.4924 23.6044 93.079 23.6044 92.252C23.6044 91.9976 23.5488 91.7829 23.4375 91.6079C23.3341 91.4251 23.191 91.27 23.0081 91.1428C22.8252 91.0076 22.6145 90.8923 22.3759 90.7969C22.1453 90.7015 21.8988 90.606 21.6364 90.5106C21.3343 90.4073 21.048 90.292 20.7777 90.1647C20.5073 90.0296 20.2728 89.8745 20.074 89.6996C19.8752 89.5167 19.7161 89.302 19.5969 89.0555C19.4856 88.809 19.4299 88.5108 19.4299 88.161C19.4299 87.4374 19.6764 86.8728 20.1694 86.4673C20.6624 86.0618 21.3422 85.859 22.2089 85.859C22.7099 85.859 23.1631 85.9147 23.5687 86.026C23.9821 86.1293 24.2843 86.2446 24.4751 86.3719L24.1054 87.3141C23.9384 87.2108 23.6879 87.1114 23.354 87.0159C23.028 86.9126 22.6463 86.8609 22.2089 86.8609C21.9863 86.8609 21.7796 86.8847 21.5887 86.9324C21.3979 86.9802 21.2309 87.0517 21.0878 87.1471C20.9447 87.2426 20.8294 87.3658 20.7419 87.5169C20.6624 87.66 20.6226 87.831 20.6226 88.0298C20.6226 88.2524 20.6664 88.4393 20.7538 88.5903C20.8413 88.7414 20.9645 88.8766 21.1236 88.9959C21.2826 89.1072 21.4655 89.2106 21.6722 89.306C21.8869 89.4014 22.1215 89.4968 22.3759 89.5922C22.7338 89.7354 23.0598 89.8785 23.354 90.0216C23.6561 90.1647 23.9146 90.3357 24.1292 90.5345C24.3519 90.7333 24.5228 90.9718 24.6421 91.2501C24.7614 91.5205 24.821 91.8505 24.821 92.2401C24.821 92.9637 24.5546 93.5203 24.0219 93.9099C23.4971 94.2995 22.7536 94.4943 21.7915 94.4943C21.4655 94.4943 21.1633 94.4705 20.885 94.4228C20.6147 94.383 20.3722 94.3353 20.1575 94.2796C19.9428 94.216 19.7559 94.1524 19.5969 94.0888C19.4458 94.0172 19.3265 93.9576 19.2391 93.9099L19.5849 92.9557C19.7678 93.0591 20.0461 93.1744 20.4199 93.3016C20.7936 93.4288 21.2508 93.4924 21.7915 93.4924ZM27.1853 88.1132H29.535V89.0436H27.1853V91.9061C27.1853 92.2162 27.2092 92.4747 27.2569 92.6814C27.3046 92.8802 27.3762 93.0392 27.4716 93.1585C27.567 93.2698 27.6863 93.3493 27.8294 93.397C27.9725 93.4447 28.1395 93.4686 28.3303 93.4686C28.6643 93.4686 28.9307 93.4328 29.1295 93.3612C29.3362 93.2817 29.4793 93.2261 29.5589 93.1943L29.7735 94.1127C29.6622 94.1683 29.4674 94.2359 29.1891 94.3154C28.9108 94.4029 28.5927 94.4466 28.2349 94.4466C27.8135 94.4466 27.4636 94.3949 27.1853 94.2916C26.915 94.1803 26.6963 94.0172 26.5293 93.8026C26.3623 93.5879 26.2431 93.3255 26.1715 93.0154C26.1079 92.6973 26.0761 92.3315 26.0761 91.918V86.3838L27.1853 86.193V88.1132ZM33.0457 93.5163C33.3081 93.5163 33.5387 93.5123 33.7375 93.5044C33.9442 93.4885 34.1152 93.4646 34.2504 93.4328V91.5841C34.1709 91.5443 34.0397 91.5125 33.8568 91.4887C33.6818 91.4569 33.4671 91.441 33.2127 91.441C33.0457 91.441 32.8668 91.4529 32.676 91.4767C32.4931 91.5006 32.3221 91.5523 32.1631 91.6318C32.012 91.7034 31.8848 91.8067 31.7814 91.9419C31.6781 92.0691 31.6264 92.2401 31.6264 92.4548C31.6264 92.8524 31.7536 93.1307 32.008 93.2897C32.2625 93.4408 32.6084 93.5163 33.0457 93.5163ZM32.9503 87.9582C33.3956 87.9582 33.7693 88.0178 34.0715 88.1371C34.3816 88.2484 34.6281 88.4114 34.811 88.6261C35.0018 88.8329 35.137 89.0833 35.2165 89.3775C35.296 89.6638 35.3358 89.9819 35.3358 90.3317V94.2081C35.2403 94.224 35.1052 94.2478 34.9302 94.2796C34.7632 94.3035 34.5724 94.3274 34.3577 94.3512C34.143 94.3751 33.9085 94.3949 33.654 94.4108C33.4075 94.4347 33.161 94.4466 32.9145 94.4466C32.5646 94.4466 32.2426 94.4108 31.9484 94.3393C31.6542 94.2677 31.3998 94.1564 31.1851 94.0053C30.9704 93.8463 30.8034 93.6396 30.6841 93.3851C30.5648 93.1307 30.5052 92.8245 30.5052 92.4667C30.5052 92.1248 30.5728 91.8306 30.708 91.5841C30.8511 91.3376 31.0419 91.1388 31.2805 90.9877C31.519 90.8366 31.7973 90.7253 32.1154 90.6538C32.4334 90.5822 32.7674 90.5464 33.1173 90.5464C33.2286 90.5464 33.3439 90.5544 33.4632 90.5703C33.5824 90.5782 33.6938 90.5941 33.7971 90.618C33.9085 90.6339 34.0039 90.6498 34.0834 90.6657C34.1629 90.6816 34.2186 90.6935 34.2504 90.7015V90.3914C34.2504 90.2085 34.2305 90.0296 34.1907 89.8546C34.151 89.6717 34.0794 89.5127 33.976 89.3775C33.8727 89.2344 33.7295 89.1231 33.5467 89.0436C33.3717 88.9561 33.1411 88.9124 32.8549 88.9124C32.4891 88.9124 32.1671 88.9402 31.8888 88.9959C31.6184 89.0436 31.4157 89.0953 31.2805 89.1509L31.1493 88.2325C31.2924 88.1689 31.531 88.1093 31.8649 88.0536C32.1989 87.99 32.5607 87.9582 32.9503 87.9582ZM39.4681 87.982C39.5635 87.982 39.6709 87.99 39.7901 88.0059C39.9173 88.0139 40.0406 88.0298 40.1599 88.0536C40.2791 88.0695 40.3865 88.0894 40.4819 88.1132C40.5853 88.1292 40.6608 88.1451 40.7085 88.161L40.5177 89.1271C40.4302 89.0953 40.2831 89.0595 40.0764 89.0197C39.8776 88.972 39.6192 88.9482 39.3011 88.9482C39.0944 88.9482 38.8876 88.972 38.6809 89.0197C38.4821 89.0595 38.3509 89.0873 38.2873 89.1032V94.3154H37.1781V88.3756C37.4405 88.2802 37.7665 88.1928 38.1561 88.1132C38.5457 88.0258 38.983 87.982 39.4681 87.982ZM42.8166 88.1132H45.1662V89.0436H42.8166V91.9061C42.8166 92.2162 42.8404 92.4747 42.8881 92.6814C42.9358 92.8802 43.0074 93.0392 43.1028 93.1585C43.1982 93.2698 43.3175 93.3493 43.4606 93.397C43.6038 93.4447 43.7708 93.4686 43.9616 93.4686C44.2956 93.4686 44.5619 93.4328 44.7607 93.3612C44.9675 93.2817 45.1106 93.2261 45.1901 93.1943L45.4048 94.1127C45.2935 94.1683 45.0987 94.2359 44.8204 94.3154C44.5421 94.4029 44.224 94.4466 43.8662 94.4466C43.4447 94.4466 43.0949 94.3949 42.8166 94.2916C42.5462 94.1803 42.3276 94.0172 42.1606 93.8026C41.9936 93.5879 41.8743 93.3255 41.8028 93.0154C41.7391 92.6973 41.7073 92.3315 41.7073 91.918V86.3838L42.8166 86.193V88.1132Z" fill="#414652"/>
<path d="M40.2968 109.243C40.2968 113.634 36.7368 117.194 32.3453 117.194C27.9538 117.194 24.3938 113.634 24.3938 109.243C24.3938 104.851 27.9538 101.291 32.3453 101.291C36.7368 101.291 40.2968 104.851 40.2968 109.243Z" fill="#FF444F"/>
<defs>
<filter id="filter0_d_2591_25199" x="0.0977015" y="0.266247" width="341.805" height="227.502" filterUnits="userSpaceOnUse" color-interpolation-filters="sRGB">
<feFlood flood-opacity="0" result="BackgroundImageFix"/>
<feColorMatrix in="SourceAlpha" type="matrix" values="0 0 0 0 0 0 0 0 0 0 0 0 0 0 0 0 0 0 127 0" result="hardAlpha"/>
<feOffset dy="1.38046"/>
<feGaussianBlur stdDeviation="3.45115"/>
<feComposite in2="hardAlpha" operator="out"/>
<feColorMatrix type="matrix" values="0 0 0 0 0 0 0 0 0 0 0 0 0 0 0 0 0 0 0.1 0"/>
<feBlend mode="normal" in2="BackgroundImageFix" result="effect1_dropShadow_2591_25199"/>
<feBlend mode="normal" in="SourceGraphic" in2="effect1_dropShadow_2591_25199" result="shape"/>
</filter>
</defs>
</svg>
