<svg width="342" height="228" viewBox="0 0 342 228" fill="none" xmlns="http://www.w3.org/2000/svg">
<g filter="url(#filter0_d_2591_26943)">
<rect x="6.99951" y="5.69727" width="328" height="213.697" rx="4.14138" fill="white"/>
</g>
<path d="M34.81 36.251V26.6078H41.3223V28.4307H36.9808V30.3231H40.8353V32.1043H36.9808V34.4281H41.6423V36.251H34.81ZM43.1096 29.1821C43.4621 29.08 43.9167 28.9873 44.4733 28.9038C45.0299 28.811 45.6143 28.7646 46.2266 28.7646C46.8482 28.7646 47.363 28.8481 47.7712 29.0151C48.1886 29.1728 48.518 29.4001 48.7592 29.6969C49.0004 29.9938 49.172 30.3463 49.274 30.7545C49.3761 31.1627 49.4271 31.6172 49.4271 32.1182V36.251H47.3537V32.3686C47.3537 31.7007 47.2656 31.2276 47.0894 30.9493C46.9131 30.671 46.5838 30.5318 46.1014 30.5318C45.9529 30.5318 45.7952 30.5411 45.6283 30.5597C45.4613 30.569 45.3128 30.5829 45.183 30.6014V36.251H43.1096V29.1821ZM53.071 32.5356C53.071 33.1757 53.2148 33.6906 53.5024 34.0802C53.79 34.4698 54.2167 34.6646 54.7826 34.6646C54.9681 34.6646 55.1397 34.66 55.2974 34.6507C55.4551 34.6322 55.585 34.6136 55.6871 34.5951V30.8241C55.5572 30.7406 55.3856 30.671 55.1722 30.6153C54.9681 30.5597 54.7594 30.5318 54.546 30.5318C53.5627 30.5318 53.071 31.1998 53.071 32.5356ZM57.7604 36.0144C57.5749 36.0701 57.3615 36.1257 57.1203 36.1814C56.8791 36.2278 56.624 36.2695 56.355 36.3066C56.0952 36.3437 55.8262 36.3716 55.5479 36.3901C55.2789 36.418 55.0191 36.4319 54.7687 36.4319C54.1657 36.4319 53.6276 36.3437 53.1545 36.1675C52.6814 35.9912 52.2825 35.7408 51.9578 35.4161C51.6331 35.0821 51.3826 34.6832 51.2064 34.2194C51.0394 33.7462 50.9559 33.2175 50.9559 32.633C50.9559 32.0393 51.0301 31.5059 51.1786 31.0328C51.327 30.5504 51.5403 30.1422 51.8187 29.8083C52.097 29.4743 52.4356 29.2192 52.8345 29.0429C53.2426 28.8667 53.7065 28.7785 54.226 28.7785C54.5136 28.7785 54.7687 28.8064 54.9913 28.862C55.2232 28.9177 55.4551 28.9965 55.6871 29.0986V25.7868L57.7604 25.4528V36.0144ZM61.803 34.7621C62.1833 34.7621 62.4524 34.7249 62.6101 34.6507C62.7678 34.5765 62.8466 34.4327 62.8466 34.2194C62.8466 34.0524 62.7446 33.9086 62.5405 33.788C62.3364 33.6581 62.0256 33.5143 61.6082 33.3566C61.2835 33.236 60.9866 33.1108 60.7176 32.9809C60.4579 32.851 60.2352 32.698 60.0497 32.5217C59.8641 32.3362 59.7204 32.1182 59.6183 31.8677C59.5163 31.6172 59.4652 31.3157 59.4652 30.9632C59.4652 30.2767 59.7204 29.734 60.2306 29.3351C60.7408 28.9362 61.4412 28.7368 62.3318 28.7368C62.7771 28.7368 63.2038 28.7785 63.612 28.862C64.0201 28.9362 64.3448 29.0197 64.586 29.1125L64.2242 30.7267C63.983 30.6432 63.7186 30.569 63.4311 30.504C63.1528 30.4391 62.8374 30.4066 62.4848 30.4066C61.8355 30.4066 61.5108 30.5875 61.5108 30.9493C61.5108 31.0328 61.5247 31.107 61.5525 31.1719C61.5803 31.2369 61.636 31.3018 61.7195 31.3668C61.803 31.4224 61.9143 31.4874 62.0535 31.5616C62.2019 31.6265 62.3874 31.7007 62.6101 31.7842C63.0646 31.9512 63.4403 32.1182 63.7372 32.2852C64.0341 32.4429 64.266 32.6191 64.433 32.8139C64.6092 32.9995 64.7298 33.2082 64.7947 33.4401C64.869 33.672 64.9061 33.9411 64.9061 34.2472C64.9061 34.9708 64.6324 35.5181 64.0851 35.8892C63.547 36.2603 62.7817 36.4458 61.7891 36.4458C61.1397 36.4458 60.597 36.3901 60.161 36.2788C59.7343 36.1675 59.4374 36.0747 59.2704 36.0005L59.6183 34.3168C59.9708 34.4559 60.3326 34.5672 60.7037 34.6507C61.0748 34.7249 61.4412 34.7621 61.803 34.7621ZM71.7605 31.4224C71.7605 31.8955 71.8161 32.3223 71.9275 32.7026C72.0481 33.083 72.215 33.4123 72.4284 33.6906C72.651 33.9596 72.9201 34.1683 73.2355 34.3168C73.5509 34.4652 73.9127 34.5394 74.3209 34.5394C74.7198 34.5394 75.0769 34.4652 75.3923 34.3168C75.717 34.1683 75.986 33.9596 76.1994 33.6906C76.4221 33.4123 76.589 33.083 76.7004 32.7026C76.821 32.3223 76.8813 31.8955 76.8813 31.4224C76.8813 30.9493 76.821 30.5226 76.7004 30.1422C76.589 29.7526 76.4221 29.4233 76.1994 29.1542C75.986 28.8759 75.717 28.6626 75.3923 28.5142C75.0769 28.3657 74.7198 28.2915 74.3209 28.2915C73.9127 28.2915 73.5509 28.3704 73.2355 28.5281C72.9201 28.6765 72.651 28.8899 72.4284 29.1682C72.215 29.4372 72.0481 29.7665 71.9275 30.1561C71.8161 30.5365 71.7605 30.9586 71.7605 31.4224ZM79.1216 31.4224C79.1216 32.2481 78.9964 32.9763 78.7459 33.6071C78.5047 34.2286 78.1707 34.7528 77.744 35.1795C77.3173 35.597 76.807 35.9124 76.2133 36.1257C75.6289 36.3391 74.9981 36.4458 74.3209 36.4458C73.6622 36.4458 73.0407 36.3391 72.4562 36.1257C71.8718 35.9124 71.3616 35.597 70.9256 35.1795C70.4896 34.7528 70.1463 34.2286 69.8958 33.6071C69.6454 32.9763 69.5201 32.2481 69.5201 31.4224C69.5201 30.5968 69.65 29.8732 69.9098 29.2517C70.1695 28.6208 70.5174 28.0921 70.9534 27.6653C71.3987 27.2386 71.9089 26.9185 72.4841 26.7052C73.0685 26.4918 73.6808 26.3851 74.3209 26.3851C74.9795 26.3851 75.6011 26.4918 76.1855 26.7052C76.7699 26.9185 77.2802 27.2386 77.7162 27.6653C78.1522 28.0921 78.4954 28.6208 78.7459 29.2517C78.9964 29.8732 79.1216 30.5968 79.1216 31.4224ZM87.0399 36.0005C86.6873 36.1025 86.2328 36.1953 85.6762 36.2788C85.1196 36.3716 84.5351 36.418 83.9229 36.418C83.3013 36.418 82.7818 36.3345 82.3644 36.1675C81.9562 36.0005 81.6315 35.7686 81.3903 35.4717C81.1491 35.1656 80.9775 34.8038 80.8754 34.3863C80.7734 33.9689 80.7224 33.5097 80.7224 33.0087V28.9316H82.7957V32.7583C82.7957 33.4262 82.8839 33.9086 83.0601 34.2054C83.2364 34.5023 83.5657 34.6507 84.0481 34.6507C84.1965 34.6507 84.3542 34.6461 84.5212 34.6368C84.6882 34.6183 84.8366 34.5997 84.9665 34.5812V28.9316H87.0399V36.0005ZM88.9166 27.1087L90.9899 26.7748V28.9316H93.4807V30.6571H90.9899V33.2314C90.9899 33.6674 91.0641 34.0153 91.2126 34.275C91.3703 34.5348 91.681 34.6646 92.1449 34.6646C92.3675 34.6646 92.5948 34.6461 92.8267 34.609C93.0679 34.5626 93.2859 34.5023 93.4807 34.4281L93.7729 36.0422C93.5225 36.1443 93.2442 36.2324 92.938 36.3066C92.6319 36.3809 92.2562 36.418 91.8109 36.418C91.245 36.418 90.7765 36.3437 90.4055 36.1953C90.0344 36.0376 89.7375 35.8242 89.5149 35.5552C89.2923 35.2769 89.1346 34.943 89.0418 34.5533C88.9583 34.1637 88.9166 33.7323 88.9166 33.2592V27.1087ZM97.2703 34.7621C97.6507 34.7621 97.9197 34.7249 98.0774 34.6507C98.2351 34.5765 98.314 34.4327 98.314 34.2194C98.314 34.0524 98.2119 33.9086 98.0078 33.788C97.8037 33.6581 97.493 33.5143 97.0755 33.3566C96.7508 33.236 96.454 33.1108 96.1849 32.9809C95.9252 32.851 95.7025 32.698 95.517 32.5217C95.3315 32.3362 95.1877 32.1182 95.0856 31.8677C94.9836 31.6172 94.9326 31.3157 94.9326 30.9632C94.9326 30.2767 95.1877 29.734 95.6979 29.3351C96.2081 28.9362 96.9085 28.7368 97.7991 28.7368C98.2444 28.7368 98.6711 28.7785 99.0793 28.862C99.4875 28.9362 99.8122 29.0197 100.053 29.1125L99.6916 30.7267C99.4504 30.6432 99.186 30.569 98.8984 30.504C98.6201 30.4391 98.3047 30.4066 97.9522 30.4066C97.3028 30.4066 96.9781 30.5875 96.9781 30.9493C96.9781 31.0328 96.992 31.107 97.0198 31.1719C97.0477 31.2369 97.1033 31.3018 97.1868 31.3668C97.2703 31.4224 97.3816 31.4874 97.5208 31.5616C97.6692 31.6265 97.8548 31.7007 98.0774 31.7842C98.532 31.9512 98.9077 32.1182 99.2045 32.2852C99.5014 32.4429 99.7333 32.6191 99.9003 32.8139C100.077 32.9995 100.197 33.2082 100.262 33.4401C100.336 33.672 100.373 33.9411 100.373 34.2472C100.373 34.9708 100.1 35.5181 99.5524 35.8892C99.0144 36.2603 98.249 36.4458 97.2564 36.4458C96.607 36.4458 96.0643 36.3901 95.6283 36.2788C95.2016 36.1675 94.9047 36.0747 94.7378 36.0005L95.0856 34.3168C95.4382 34.4559 95.8 34.5672 96.171 34.6507C96.5421 34.7249 96.9085 34.7621 97.2703 34.7621ZM103.996 36.251H101.923V28.9316H103.996V36.251ZM104.191 26.8165C104.191 27.1969 104.066 27.4983 103.815 27.721C103.574 27.9344 103.287 28.041 102.953 28.041C102.619 28.041 102.326 27.9344 102.076 27.721C101.835 27.4983 101.714 27.1969 101.714 26.8165C101.714 26.4362 101.835 26.1393 102.076 25.9259C102.326 25.7033 102.619 25.592 102.953 25.592C103.287 25.592 103.574 25.7033 103.815 25.9259C104.066 26.1393 104.191 26.4362 104.191 26.8165ZM107.712 32.5356C107.712 33.1757 107.856 33.6906 108.144 34.0802C108.431 34.4698 108.858 34.6646 109.424 34.6646C109.61 34.6646 109.781 34.66 109.939 34.6507C110.097 34.6322 110.226 34.6136 110.328 34.5951V30.8241C110.199 30.7406 110.027 30.671 109.814 30.6153C109.61 30.5597 109.401 30.5318 109.187 30.5318C108.204 30.5318 107.712 31.1998 107.712 32.5356ZM112.402 36.0144C112.216 36.0701 112.003 36.1257 111.762 36.1814C111.521 36.2278 111.265 36.2695 110.996 36.3066C110.737 36.3437 110.468 36.3716 110.189 36.3901C109.92 36.418 109.661 36.4319 109.41 36.4319C108.807 36.4319 108.269 36.3437 107.796 36.1675C107.323 35.9912 106.924 35.7408 106.599 35.4161C106.275 35.0821 106.024 34.6832 105.848 34.2194C105.681 33.7462 105.597 33.2175 105.597 32.633C105.597 32.0393 105.672 31.5059 105.82 31.0328C105.968 30.5504 106.182 30.1422 106.46 29.8083C106.738 29.4743 107.077 29.2192 107.476 29.0429C107.884 28.8667 108.348 28.7785 108.867 28.7785C109.155 28.7785 109.41 28.8064 109.633 28.862C109.865 28.9177 110.097 28.9965 110.328 29.0986V25.7868L112.402 25.4528V36.0144ZM113.995 32.647C113.995 31.9976 114.093 31.4317 114.288 30.9493C114.492 30.4576 114.756 30.0495 115.081 29.7248C115.405 29.4001 115.776 29.1542 116.194 28.9873C116.621 28.8203 117.057 28.7368 117.502 28.7368C118.541 28.7368 119.362 29.0568 119.965 29.6969C120.568 30.3278 120.869 31.2601 120.869 32.4939C120.869 32.6145 120.865 32.749 120.856 32.8974C120.846 33.0366 120.837 33.1618 120.828 33.2731H116.124C116.171 33.6999 116.37 34.0385 116.723 34.2889C117.075 34.5394 117.548 34.6646 118.142 34.6646C118.522 34.6646 118.893 34.6322 119.255 34.5672C119.626 34.493 119.928 34.4049 120.16 34.3029L120.438 35.9866C120.327 36.0422 120.178 36.0979 119.993 36.1536C119.807 36.2092 119.599 36.2556 119.367 36.2927C119.144 36.3391 118.903 36.3762 118.643 36.404C118.383 36.4319 118.124 36.4458 117.864 36.4458C117.205 36.4458 116.63 36.3484 116.138 36.1536C115.656 35.9588 115.252 35.6944 114.928 35.3604C114.612 35.0172 114.376 34.6136 114.218 34.1498C114.07 33.686 113.995 33.185 113.995 32.647ZM118.866 31.8538C118.856 31.6775 118.824 31.5059 118.768 31.3389C118.722 31.1719 118.643 31.0235 118.532 30.8936C118.43 30.7638 118.295 30.6571 118.128 30.5736C117.97 30.4901 117.771 30.4484 117.53 30.4484C117.298 30.4484 117.098 30.4901 116.931 30.5736C116.764 30.6478 116.625 30.7499 116.514 30.8797C116.403 31.0096 116.315 31.1627 116.25 31.3389C116.194 31.5059 116.152 31.6775 116.124 31.8538H118.866Z" fill="#414652"/>
<rect x="7.51245" y="56.5818" width="326.975" height="162.301" stroke="#ECECEC" stroke-width="1.0249"/>
<path d="M7 109.859H335" stroke="#ECECEC" stroke-width="1.0249"/>
<path d="M7 83.4531H335" stroke="#ECECEC" stroke-width="1.0249"/>
<path d="M7 136.265H335" stroke="#ECECEC" stroke-width="1.0249"/>
<path d="M7 162.671H335" stroke="#ECECEC" stroke-width="1.0249"/>
<path d="M7 189.077H335" stroke="#ECECEC" stroke-width="1.0249"/>
<path d="M62.1777 56.0693L62.1777 219.395" stroke="#ECECEC" stroke-width="1.0249"/>
<path d="M116.333 56.0693L116.333 219.395" stroke="#ECECEC" stroke-width="1.0249"/>
<path d="M170.489 56.0693L170.489 219.395" stroke="#ECECEC" stroke-width="1.0249"/>
<path d="M224.645 56.0693L224.645 219.395" stroke="#ECECEC" stroke-width="1.0249"/>
<path d="M278.801 56.0693L278.801 219.395" stroke="#ECECEC" stroke-width="1.0249"/>
<path d="M6.99951 56.832H335" stroke="#ECECEC" stroke-width="1.5302"/>
<path d="M40.7939 161.249L88.0061 125.468L135.349 172.691L172.491 90.6797L212.745 161.249L240.576 134.91L270.394 161.249" stroke="#A8A8A8" stroke-width="2.98182"/>
<path d="M271.843 56.0693L271.843 219.395" stroke="#7D7D7D" stroke-width="2.98182"/>
<line x1="7.99365" y1="109.678" x2="334.468" y2="109.678" stroke="black" stroke-width="0.765102" stroke-dasharray="6.12 6.12"/>
<path d="M23.7386 93.2878H24.4145L23.6789 96.2795H27.2472L27.9628 93.2878H28.6387L26.9987 100.176H26.3228L27.118 96.866H23.5597L22.7645 100.176H22.0886L23.7386 93.2878ZM29.8441 95.0371H30.4901L29.2477 100.176H28.6017L29.8441 95.0371ZM30.1025 93.5363C30.1025 93.364 30.1489 93.2348 30.2417 93.1486C30.3411 93.0559 30.4471 93.0095 30.5597 93.0095C30.6922 93.0095 30.795 93.0525 30.8678 93.1387C30.9407 93.2182 30.9772 93.3242 30.9772 93.4568C30.9772 93.6158 30.9242 93.7384 30.8181 93.8245C30.7121 93.9106 30.6061 93.9537 30.5001 93.9537C30.3676 93.9537 30.2682 93.9173 30.2019 93.8444C30.1356 93.7649 30.1025 93.6622 30.1025 93.5363ZM35.0061 95.5838C34.7941 95.5308 34.5887 95.5043 34.3899 95.5043C33.9327 95.5043 33.5351 95.5838 33.1972 95.7428C32.8658 95.9018 32.5909 96.1073 32.3722 96.3591C32.1535 96.6042 31.9912 96.8792 31.8852 97.184C31.7791 97.4822 31.7261 97.7704 31.7261 98.0488C31.7261 98.2277 31.7427 98.3999 31.7758 98.5656C31.809 98.7246 31.8653 98.8638 31.9448 98.9831C32.0243 99.1023 32.1336 99.1984 32.2728 99.2713C32.4119 99.3376 32.5909 99.3707 32.8095 99.3707C33.0348 99.3707 33.2667 99.3309 33.5053 99.2514C33.7505 99.1653 33.9824 99.0526 34.201 98.9135L35.0061 95.5838ZM30.5533 101.06C30.6924 101.173 30.8912 101.266 31.1496 101.339C31.4147 101.412 31.6764 101.448 31.9349 101.448C32.5445 101.448 33.0116 101.309 33.3363 101.031C33.6676 100.752 33.883 100.358 33.9824 99.8478L34.0321 99.5894C33.8333 99.7153 33.6212 99.8113 33.3959 99.8776C33.1707 99.9372 32.9454 99.9671 32.7201 99.9671C32.4351 99.9671 32.1867 99.9207 31.9746 99.8279C31.7692 99.7351 31.6002 99.6092 31.4677 99.4502C31.3352 99.2845 31.2358 99.0957 31.1695 98.8837C31.1033 98.665 31.0701 98.4331 31.0701 98.1879C31.0701 97.8102 31.1364 97.4292 31.2689 97.0449C31.4081 96.6539 31.6201 96.3027 31.905 95.9913C32.19 95.6732 32.5445 95.4148 32.9686 95.216C33.3993 95.0172 33.9095 94.9178 34.4992 94.9178C34.7378 94.9178 34.9631 94.9443 35.1751 94.9974C35.3871 95.0437 35.576 95.1133 35.7416 95.2061L34.6284 99.8378C34.5622 100.116 34.476 100.388 34.37 100.653C34.264 100.918 34.1083 101.153 33.9029 101.359C33.6974 101.564 33.4225 101.73 33.0779 101.856C32.7399 101.981 32.3026 102.044 31.7659 102.044C31.6599 102.044 31.5406 102.034 31.4081 102.015C31.2755 102.001 31.1397 101.978 31.0006 101.945C30.868 101.912 30.7388 101.872 30.6129 101.826C30.487 101.786 30.3744 101.736 30.275 101.677L30.5533 101.06ZM36.7993 100.176H36.1533L37.9622 92.5821L38.6381 92.4628L37.9821 95.1763C38.3996 95.004 38.7938 94.9178 39.1649 94.9178C39.3902 94.9178 39.5989 94.951 39.7911 95.0172C39.9833 95.0835 40.1522 95.1829 40.298 95.3154C40.4438 95.4479 40.5564 95.6169 40.6359 95.8223C40.7221 96.0211 40.7652 96.2597 40.7652 96.538C40.7652 96.7102 40.7519 96.8892 40.7254 97.0747C40.6989 97.2536 40.6624 97.4358 40.6161 97.6214L39.9998 100.176H39.3538L39.9004 97.8897C39.9534 97.6711 40.0031 97.4491 40.0495 97.2238C40.0959 96.9985 40.1191 96.7831 40.1191 96.5777C40.1191 96.3789 40.086 96.2133 40.0197 96.0808C39.9601 95.9416 39.8772 95.8323 39.7712 95.7528C39.6718 95.6666 39.5525 95.607 39.4134 95.5738C39.2742 95.5341 39.1285 95.5142 38.9761 95.5142C38.7839 95.5142 38.5884 95.5341 38.3896 95.5738C38.1975 95.6136 38.0153 95.6633 37.843 95.7229L36.7993 100.176ZM46.8515 93.8742H44.7443L44.8735 93.2878H49.7737L49.6345 93.8742H47.5274L46.0166 100.176H45.3407L46.8515 93.8742ZM52.4474 95.5937C52.3282 95.5672 52.2188 95.5473 52.1194 95.5341C52.02 95.5208 51.9173 95.5142 51.8113 95.5142C51.4005 95.5142 51.036 95.5937 50.718 95.7528C50.3999 95.9118 50.1316 96.1205 49.9129 96.3789C49.6942 96.6374 49.5253 96.9322 49.406 97.2635C49.2933 97.5949 49.237 97.9328 49.237 98.2774C49.237 98.549 49.2635 98.7776 49.3165 98.9632C49.3695 99.1421 49.4424 99.2879 49.5352 99.4005C49.628 99.5065 49.734 99.586 49.8533 99.6391C49.9792 99.6854 50.1117 99.7086 50.2508 99.7086C50.5225 99.7086 50.7776 99.6457 51.0162 99.5198C51.2547 99.3873 51.48 99.2017 51.692 98.9632C51.692 98.7843 51.7185 98.5789 51.7716 98.3469C51.8246 98.115 51.8743 97.9063 51.9206 97.7208L52.4474 95.5937ZM51.8709 100.235C51.8312 100.156 51.7947 100.066 51.7616 99.9671C51.7351 99.861 51.7152 99.755 51.702 99.649C51.4701 99.8743 51.2249 100.04 50.9665 100.146C50.7147 100.252 50.4529 100.305 50.1813 100.305C49.9692 100.305 49.7671 100.269 49.5749 100.196C49.3828 100.123 49.2138 100.01 49.068 99.8577C48.9223 99.7053 48.803 99.5098 48.7102 99.2713C48.6241 99.0261 48.581 98.7379 48.581 98.4066C48.581 97.8765 48.6672 97.3961 48.8394 96.9654C49.0117 96.5346 49.2503 96.1702 49.5551 95.872C49.8665 95.5672 50.2309 95.332 50.6484 95.1663C51.0725 95.0007 51.533 94.9178 52.03 94.9178C52.4408 94.9178 52.8351 94.9874 53.2128 95.1266L52.4474 98.2177C52.4077 98.3834 52.3745 98.5391 52.348 98.6849C52.3215 98.8306 52.3083 98.9698 52.3083 99.1023C52.3083 99.2812 52.3248 99.4502 52.358 99.6092C52.3911 99.7683 52.4507 99.9439 52.5369 100.136L51.8709 100.235ZM54.7977 95.2657C55.0495 95.1663 55.3245 95.0835 55.6227 95.0172C55.9275 94.951 56.2257 94.9178 56.5172 94.9178C56.6696 94.9178 56.8154 94.9278 56.9546 94.9477C57.0937 94.9675 57.2262 95.0007 57.3521 95.0471L57.1832 95.6335C56.9247 95.554 56.6597 95.5142 56.388 95.5142C56.2157 95.5142 56.0434 95.5275 55.8712 95.554C55.6989 95.5805 55.5266 95.6202 55.3543 95.6732L54.2709 100.176H53.6249L54.7977 95.2657ZM61.262 95.5838C61.05 95.5308 60.8446 95.5043 60.6458 95.5043C60.1886 95.5043 59.791 95.5838 59.4531 95.7428C59.1218 95.9018 58.8468 96.1073 58.6281 96.3591C58.4094 96.6042 58.2471 96.8792 58.1411 97.184C58.0351 97.4822 57.982 97.7704 57.982 98.0488C57.982 98.2277 57.9986 98.3999 58.0317 98.5656C58.0649 98.7246 58.1212 98.8638 58.2007 98.9831C58.2802 99.1023 58.3896 99.1984 58.5287 99.2713C58.6679 99.3376 58.8468 99.3707 59.0654 99.3707C59.2907 99.3707 59.5227 99.3309 59.7612 99.2514C60.0064 99.1653 60.2383 99.0526 60.457 98.9135L61.262 95.5838ZM56.8092 101.06C56.9483 101.173 57.1471 101.266 57.4056 101.339C57.6706 101.412 57.9323 101.448 58.1908 101.448C58.8004 101.448 59.2675 101.309 59.5922 101.031C59.9235 100.752 60.1389 100.358 60.2383 99.8478L60.288 99.5894C60.0892 99.7153 59.8772 99.8113 59.6519 99.8776C59.4266 99.9372 59.2013 99.9671 58.976 99.9671C58.6911 99.9671 58.4426 99.9207 58.2305 99.8279C58.0251 99.7351 57.8561 99.6092 57.7236 99.4502C57.5911 99.2845 57.4917 99.0957 57.4254 98.8837C57.3592 98.665 57.326 98.4331 57.326 98.1879C57.326 97.8102 57.3923 97.4292 57.5248 97.0449C57.664 96.6539 57.876 96.3027 58.161 95.9913C58.4459 95.6732 58.8004 95.4148 59.2245 95.216C59.6552 95.0172 60.1654 94.9178 60.7551 94.9178C60.9937 94.9178 61.219 94.9443 61.431 94.9974C61.6431 95.0437 61.8319 95.1133 61.9976 95.2061L60.8843 99.8378C60.8181 100.116 60.7319 100.388 60.6259 100.653C60.5199 100.918 60.3642 101.153 60.1588 101.359C59.9534 101.564 59.6784 101.73 59.3338 101.856C58.9959 101.981 58.5585 102.044 58.0218 102.044C57.9158 102.044 57.7965 102.034 57.664 102.015C57.5315 102.001 57.3956 101.978 57.2565 101.945C57.1239 101.912 56.9947 101.872 56.8688 101.826C56.7429 101.786 56.6303 101.736 56.5309 101.677L56.8092 101.06ZM66.9515 96.2398C66.9515 96.6109 66.8587 96.9123 66.6732 97.1443C66.4943 97.3762 66.2392 97.5617 65.9079 97.7009C65.5832 97.8334 65.1889 97.9295 64.7251 97.9891C64.2679 98.0488 63.7576 98.0918 63.1944 98.1183V98.3271C63.1944 98.5192 63.2143 98.6981 63.254 98.8638C63.2938 99.0294 63.3667 99.1752 63.4727 99.3011C63.5787 99.4204 63.7245 99.5165 63.91 99.5894C64.1022 99.6622 64.3474 99.6987 64.6456 99.6987C64.8775 99.6987 65.1094 99.6656 65.3413 99.5993C65.5799 99.533 65.8052 99.4336 66.0172 99.3011L66.0868 99.8975C65.8615 100.023 65.613 100.119 65.3413 100.186C65.0696 100.259 64.7946 100.295 64.5163 100.295C64.1519 100.295 63.8438 100.249 63.592 100.156C63.3468 100.063 63.1447 99.9339 62.9857 99.7683C62.8333 99.6026 62.7239 99.4038 62.6577 99.1719C62.5914 98.94 62.5583 98.6849 62.5583 98.4066C62.5583 97.9825 62.6212 97.5617 62.7471 97.1443C62.8797 96.7268 63.0718 96.3524 63.3236 96.0211C63.5754 95.6898 63.8835 95.4248 64.248 95.226C64.619 95.0205 65.0398 94.9178 65.5103 94.9178C65.9741 94.9178 66.3286 95.0404 66.5738 95.2856C66.8256 95.5241 66.9515 95.8422 66.9515 96.2398ZM65.4506 95.5043C65.1856 95.5043 64.9371 95.5606 64.7052 95.6732C64.4733 95.7793 64.2645 95.925 64.079 96.1106C63.8935 96.2961 63.7311 96.5115 63.592 96.7566C63.4595 97.0018 63.3601 97.2602 63.2938 97.5319C63.857 97.5186 64.3308 97.4822 64.7151 97.4226C65.0995 97.3629 65.4076 97.2801 65.6395 97.1741C65.878 97.0681 66.047 96.9422 66.1464 96.7964C66.2458 96.644 66.2955 96.4717 66.2955 96.2795C66.2955 96.0211 66.216 95.829 66.0569 95.7031C65.9045 95.5705 65.7024 95.5043 65.4506 95.5043ZM68.803 93.5263L69.4789 93.4071L69.0913 95.0371H70.9002L70.771 95.5937H68.9521L68.3458 98.1084C68.3127 98.2277 68.2829 98.3569 68.2563 98.496C68.2365 98.6285 68.2265 98.7611 68.2265 98.8936C68.2265 99.1918 68.2994 99.4005 68.4452 99.5198C68.591 99.6391 68.7732 99.6987 68.9919 99.6987C69.2039 99.6987 69.3861 99.6755 69.5385 99.6291C69.6976 99.5827 69.8632 99.5198 70.0355 99.4403L70.0951 100.027C69.9162 100.1 69.7141 100.163 69.4888 100.216C69.2702 100.269 69.0515 100.295 68.8328 100.295C68.6606 100.295 68.4982 100.275 68.3458 100.235C68.1934 100.196 68.0576 100.129 67.9383 100.037C67.8256 99.9439 67.7329 99.8213 67.66 99.6689C67.5937 99.5165 67.5606 99.3243 67.5606 99.0924C67.5606 98.8075 67.607 98.4795 67.6997 98.1084L68.803 93.5263Z" fill="#414652" fill-opacity="0.6"/>
<path d="M23.2374 197.651H23.9133L22.4025 203.963H25.4539L25.3247 204.539H21.5974L23.2374 197.651ZM26.6539 202.889C26.6539 203.28 26.7633 203.575 26.9819 203.774C27.2006 203.973 27.4623 204.072 27.7672 204.072C28.0057 204.072 28.2509 204.012 28.5027 203.893C28.7545 203.767 28.9831 203.582 29.1885 203.336C29.4005 203.085 29.5728 202.77 29.7053 202.392C29.8445 202.014 29.9141 201.57 29.9141 201.06C29.9141 200.669 29.8047 200.374 29.5861 200.176C29.3674 199.977 29.1057 199.877 28.8009 199.877C28.5623 199.877 28.3171 199.94 28.0653 200.066C27.8135 200.186 27.5816 200.371 27.3696 200.623C27.1642 200.868 26.9919 201.18 26.8527 201.557C26.7202 201.935 26.6539 202.379 26.6539 202.889ZM30.5701 201.011C30.5701 201.633 30.4806 202.173 30.3017 202.631C30.1294 203.088 29.9041 203.469 29.6258 203.774C29.3541 204.072 29.0493 204.294 28.7114 204.44C28.3801 204.585 28.0521 204.658 27.7274 204.658C27.4955 204.658 27.2735 204.622 27.0615 204.549C26.856 204.476 26.6738 204.367 26.5148 204.221C26.3558 204.075 26.2299 203.896 26.1371 203.684C26.0443 203.466 25.9979 203.214 25.9979 202.929C25.9979 202.306 26.0841 201.766 26.2564 201.309C26.4353 200.852 26.6606 200.474 26.9322 200.176C27.2105 199.877 27.5154 199.656 27.8467 199.51C28.1846 199.364 28.5159 199.291 28.8406 199.291C29.0725 199.291 29.2912 199.328 29.4966 199.4C29.7086 199.473 29.8942 199.583 30.0532 199.728C30.2122 199.874 30.3381 200.056 30.4309 200.275C30.5237 200.487 30.5701 200.732 30.5701 201.011ZM32.7007 204.539H32.0249C31.8857 203.81 31.7731 203.012 31.6869 202.144C31.6074 201.276 31.561 200.361 31.5478 199.4H32.1839C32.1905 199.752 32.2038 200.136 32.2237 200.553C32.2435 200.964 32.27 201.375 32.3032 201.786C32.3363 202.197 32.3727 202.584 32.4125 202.949C32.4523 203.313 32.4986 203.618 32.5517 203.863C32.7637 203.565 32.979 203.234 33.1977 202.869C33.423 202.505 33.635 202.127 33.8338 201.736C34.0392 201.339 34.2281 200.941 34.4004 200.543C34.5793 200.146 34.7284 199.765 34.8477 199.4H35.5136C35.5136 199.725 35.5202 200.08 35.5335 200.464C35.5533 200.848 35.5765 201.239 35.603 201.637C35.6296 202.034 35.6594 202.425 35.6925 202.81C35.7323 203.194 35.7753 203.545 35.8217 203.863C35.9807 203.684 36.1729 203.416 36.3982 203.058C36.6301 202.694 36.862 202.299 37.094 201.875C37.3259 201.445 37.5412 201.011 37.74 200.573C37.9454 200.136 38.0978 199.745 38.1972 199.4H38.8333C38.6809 199.891 38.4822 200.394 38.237 200.911C37.9918 201.421 37.7301 201.908 37.4518 202.372C37.1801 202.829 36.9084 203.25 36.6367 203.635C36.3651 204.012 36.1265 204.314 35.9211 204.539H35.2452C35.179 203.956 35.116 203.326 35.0564 202.651C34.9967 201.975 34.9603 201.309 34.947 200.653C34.8145 200.964 34.6588 201.299 34.4799 201.657C34.3076 202.008 34.1221 202.359 33.9233 202.71C33.7245 203.055 33.5191 203.386 33.307 203.704C33.1016 204.022 32.8995 204.301 32.7007 204.539ZM43.9434 198.237H41.8362L41.9654 197.651H46.8655L46.7264 198.237H44.6192L43.1085 204.539H42.4326L43.9434 198.237ZM49.5393 199.957C49.42 199.93 49.3107 199.911 49.2113 199.897C49.1119 199.884 49.0092 199.877 48.9032 199.877C48.4924 199.877 48.1279 199.957 47.8099 200.116C47.4918 200.275 47.2234 200.484 47.0048 200.742C46.7861 201.001 46.6171 201.296 46.4979 201.627C46.3852 201.958 46.3289 202.296 46.3289 202.641C46.3289 202.912 46.3554 203.141 46.4084 203.326C46.4614 203.505 46.5343 203.651 46.6271 203.764C46.7198 203.87 46.8259 203.949 46.9451 204.002C47.071 204.049 47.2036 204.072 47.3427 204.072C47.6144 204.072 47.8695 204.009 48.108 203.883C48.3466 203.751 48.5719 203.565 48.7839 203.326C48.7839 203.148 48.8104 202.942 48.8634 202.71C48.9164 202.478 48.9661 202.27 49.0125 202.084L49.5393 199.957ZM48.9628 204.599C48.9231 204.519 48.8866 204.43 48.8535 204.33C48.827 204.224 48.8071 204.118 48.7939 204.012C48.5619 204.238 48.3168 204.403 48.0583 204.509C47.8066 204.615 47.5448 204.668 47.2731 204.668C47.0611 204.668 46.859 204.632 46.6668 204.559C46.4747 204.486 46.3057 204.373 46.1599 204.221C46.0141 204.069 45.8949 203.873 45.8021 203.635C45.716 203.389 45.6729 203.101 45.6729 202.77C45.6729 202.24 45.759 201.759 45.9313 201.329C46.1036 200.898 46.3421 200.533 46.647 200.235C46.9584 199.93 47.3228 199.695 47.7403 199.53C48.1644 199.364 48.6249 199.281 49.1219 199.281C49.5327 199.281 49.927 199.351 50.3047 199.49L49.5393 202.581C49.4996 202.747 49.4664 202.902 49.4399 203.048C49.4134 203.194 49.4002 203.333 49.4002 203.466C49.4002 203.645 49.4167 203.813 49.4499 203.973C49.483 204.132 49.5426 204.307 49.6288 204.499L48.9628 204.599ZM51.8896 199.629C52.1414 199.53 52.4164 199.447 52.7146 199.381C53.0194 199.314 53.3176 199.281 53.6091 199.281C53.7615 199.281 53.9073 199.291 54.0464 199.311C54.1856 199.331 54.3181 199.364 54.444 199.41L54.2751 199.997C54.0166 199.917 53.7516 199.877 53.4799 199.877C53.3076 199.877 53.1353 199.891 52.9631 199.917C52.7908 199.944 52.6185 199.984 52.4462 200.037L51.3628 204.539H50.7167L51.8896 199.629ZM58.3539 199.947C58.1419 199.894 57.9365 199.868 57.7377 199.868C57.2805 199.868 56.8829 199.947 56.545 200.106C56.2136 200.265 55.9387 200.471 55.72 200.722C55.5013 200.968 55.339 201.242 55.233 201.547C55.1269 201.845 55.0739 202.134 55.0739 202.412C55.0739 202.591 55.0905 202.763 55.1236 202.929C55.1568 203.088 55.2131 203.227 55.2926 203.346C55.3721 203.466 55.4814 203.562 55.6206 203.635C55.7597 203.701 55.9387 203.734 56.1573 203.734C56.3826 203.734 56.6145 203.694 56.8531 203.615C57.0983 203.529 57.3302 203.416 57.5488 203.277L58.3539 199.947ZM53.9011 205.424C54.0402 205.536 54.239 205.629 54.4974 205.702C54.7625 205.775 55.0242 205.811 55.2827 205.811C55.8923 205.811 56.3594 205.672 56.6841 205.394C57.0154 205.116 57.2308 204.721 57.3302 204.211L57.3799 203.953C57.1811 204.079 56.969 204.175 56.7437 204.241C56.5185 204.301 56.2932 204.33 56.0679 204.33C55.7829 204.33 55.5345 204.284 55.3224 204.191C55.117 204.098 54.948 203.973 54.8155 203.813C54.683 203.648 54.5836 203.459 54.5173 203.247C54.4511 203.028 54.4179 202.796 54.4179 202.551C54.4179 202.173 54.4842 201.792 54.6167 201.408C54.7559 201.017 54.9679 200.666 55.2528 200.355C55.5378 200.037 55.8923 199.778 56.3164 199.579C56.7471 199.381 57.2573 199.281 57.847 199.281C58.0856 199.281 58.3109 199.308 58.5229 199.361C58.7349 199.407 58.9238 199.477 59.0894 199.569L57.9762 204.201C57.91 204.479 57.8238 204.751 57.7178 205.016C57.6118 205.281 57.4561 205.516 57.2507 205.722C57.0452 205.927 56.7703 206.093 56.4257 206.219C56.0877 206.345 55.6504 206.408 55.1137 206.408C55.0077 206.408 54.8884 206.398 54.7559 206.378C54.6233 206.365 54.4875 206.341 54.3484 206.308C54.2158 206.275 54.0866 206.235 53.9607 206.189C53.8348 206.149 53.7222 206.1 53.6228 206.04L53.9011 205.424ZM64.0434 200.603C64.0434 200.974 63.9506 201.276 63.7651 201.508C63.5862 201.739 63.3311 201.925 62.9997 202.064C62.6751 202.197 62.2808 202.293 61.817 202.352C61.3597 202.412 60.8495 202.455 60.2863 202.482V202.69C60.2863 202.882 60.3062 203.061 60.3459 203.227C60.3857 203.393 60.4586 203.538 60.5646 203.664C60.6706 203.784 60.8164 203.88 61.0019 203.953C61.1941 204.026 61.4393 204.062 61.7374 204.062C61.9694 204.062 62.2013 204.029 62.4332 203.963C62.6717 203.896 62.897 203.797 63.1091 203.664L63.1787 204.261C62.9534 204.387 62.7049 204.483 62.4332 204.549C62.1615 204.622 61.8865 204.658 61.6082 204.658C61.2438 204.658 60.9357 204.612 60.6839 204.519C60.4387 204.426 60.2366 204.297 60.0776 204.132C59.9252 203.966 59.8158 203.767 59.7496 203.535C59.6833 203.303 59.6502 203.048 59.6502 202.77C59.6502 202.346 59.7131 201.925 59.839 201.508C59.9715 201.09 60.1637 200.716 60.4155 200.384C60.6673 200.053 60.9754 199.788 61.3399 199.589C61.7109 199.384 62.1317 199.281 62.6022 199.281C63.066 199.281 63.4205 199.404 63.6657 199.649C63.9175 199.887 64.0434 200.205 64.0434 200.603ZM62.5425 199.868C62.2775 199.868 62.029 199.924 61.7971 200.037C61.5652 200.143 61.3564 200.288 61.1709 200.474C60.9854 200.659 60.823 200.875 60.6839 201.12C60.5513 201.365 60.4519 201.624 60.3857 201.895C60.9489 201.882 61.4227 201.845 61.807 201.786C62.1913 201.726 62.4995 201.643 62.7314 201.537C62.9699 201.431 63.1389 201.305 63.2383 201.16C63.3377 201.007 63.3874 200.835 63.3874 200.643C63.3874 200.384 63.3079 200.192 63.1488 200.066C62.9964 199.934 62.7943 199.868 62.5425 199.868ZM65.8949 197.89L66.5708 197.77L66.1831 199.4H67.9921L67.8629 199.957H66.044L65.4377 202.472C65.4046 202.591 65.3747 202.72 65.3482 202.859C65.3284 202.992 65.3184 203.124 65.3184 203.257C65.3184 203.555 65.3913 203.764 65.5371 203.883C65.6829 204.002 65.8651 204.062 66.0838 204.062C66.2958 204.062 66.478 204.039 66.6304 203.992C66.7894 203.946 66.9551 203.883 67.1274 203.804L67.187 204.39C67.0081 204.463 66.806 204.526 66.5807 204.579C66.3621 204.632 66.1434 204.658 65.9247 204.658C65.7524 204.658 65.5901 204.638 65.4377 204.599C65.2853 204.559 65.1494 204.493 65.0302 204.4C64.9175 204.307 64.8248 204.185 64.7519 204.032C64.6856 203.88 64.6525 203.688 64.6525 203.456C64.6525 203.171 64.6989 202.843 64.7916 202.472L65.8949 197.89Z" fill="#414652" fill-opacity="0.6"/>
<line x1="6.99951" y1="188.484" x2="333.474" y2="188.484" stroke="black" stroke-width="0.765102" stroke-dasharray="6.12 6.12"/>
<rect x="143.169" y="13.6484" width="82.497" height="33.7939" rx="15.903" fill="#CC2E3D"/>
<path d="M175.659 34.4686V36.5996H168.296V25.5788H170.777V34.4686H175.659ZM184.922 32.4012C184.922 33.0585 184.827 33.6628 184.636 34.2142C184.445 34.7549 184.17 35.2213 183.809 35.6136C183.449 35.9953 183.014 36.2922 182.505 36.5042C182.007 36.7162 181.445 36.8223 180.819 36.8223C180.205 36.8223 179.643 36.7162 179.134 36.5042C178.635 36.2922 178.206 35.9953 177.846 35.6136C177.485 35.2213 177.204 34.7549 177.003 34.2142C176.801 33.6628 176.701 33.0585 176.701 32.4012C176.701 31.7439 176.801 31.1449 177.003 30.6042C177.215 30.0635 177.501 29.6023 177.861 29.2206C178.233 28.8389 178.667 28.5421 179.166 28.33C179.674 28.118 180.226 28.012 180.819 28.012C181.424 28.012 181.975 28.118 182.473 28.33C182.982 28.5421 183.417 28.8389 183.777 29.2206C184.138 29.6023 184.419 30.0635 184.62 30.6042C184.822 31.1449 184.922 31.7439 184.922 32.4012ZM182.505 32.4012C182.505 31.6697 182.357 31.0972 182.06 30.6837C181.774 30.2596 181.36 30.0476 180.819 30.0476C180.279 30.0476 179.86 30.2596 179.563 30.6837C179.266 31.0972 179.118 31.6697 179.118 32.4012C179.118 33.1327 179.266 33.7159 179.563 34.1505C179.86 34.5746 180.279 34.7867 180.819 34.7867C181.36 34.7867 181.774 34.5746 182.06 34.1505C182.357 33.7159 182.505 33.1327 182.505 32.4012ZM189.159 34.898C189.594 34.898 189.901 34.8556 190.082 34.7708C190.262 34.6859 190.352 34.5216 190.352 34.2778C190.352 34.0869 190.235 33.9226 190.002 33.7848C189.769 33.6363 189.414 33.472 188.937 33.2918C188.566 33.154 188.226 33.0108 187.919 32.8624C187.622 32.714 187.368 32.539 187.156 32.3376C186.944 32.1256 186.779 31.8764 186.663 31.5902C186.546 31.3039 186.488 30.9593 186.488 30.5565C186.488 29.7719 186.779 29.1517 187.362 28.6958C187.945 28.2399 188.746 28.012 189.764 28.012C190.273 28.012 190.76 28.0597 191.227 28.1551C191.693 28.2399 192.064 28.3353 192.34 28.4414L191.926 30.2861C191.651 30.1907 191.349 30.1059 191.02 30.0317C190.702 29.9574 190.341 29.9203 189.939 29.9203C189.196 29.9203 188.825 30.1271 188.825 30.5406C188.825 30.636 188.841 30.7208 188.873 30.795C188.905 30.8692 188.968 30.9434 189.064 31.0176C189.159 31.0813 189.287 31.1555 189.446 31.2403C189.615 31.3145 189.827 31.3993 190.082 31.4947C190.601 31.6856 191.031 31.8764 191.37 32.0672C191.709 32.2475 191.974 32.4489 192.165 32.6716C192.366 32.8836 192.504 33.1221 192.578 33.3872C192.663 33.6522 192.706 33.9597 192.706 34.3096C192.706 35.1365 192.393 35.762 191.767 36.1861C191.153 36.6102 190.278 36.8223 189.143 36.8223C188.401 36.8223 187.781 36.7586 187.283 36.6314C186.795 36.5042 186.456 36.3982 186.265 36.3134L186.663 34.3891C187.065 34.5481 187.479 34.6753 187.903 34.7708C188.327 34.8556 188.746 34.898 189.159 34.898ZM196.878 34.898C197.313 34.898 197.62 34.8556 197.8 34.7708C197.98 34.6859 198.071 34.5216 198.071 34.2778C198.071 34.0869 197.954 33.9226 197.721 33.7848C197.488 33.6363 197.132 33.472 196.655 33.2918C196.284 33.154 195.945 33.0108 195.637 32.8624C195.341 32.714 195.086 32.539 194.874 32.3376C194.662 32.1256 194.498 31.8764 194.381 31.5902C194.264 31.3039 194.206 30.9593 194.206 30.5565C194.206 29.7719 194.498 29.1517 195.081 28.6958C195.664 28.2399 196.464 28.012 197.482 28.012C197.991 28.012 198.479 28.0597 198.945 28.1551C199.412 28.2399 199.783 28.3353 200.058 28.4414L199.645 30.2861C199.369 30.1907 199.067 30.1059 198.739 30.0317C198.42 29.9574 198.06 29.9203 197.657 29.9203C196.915 29.9203 196.544 30.1271 196.544 30.5406C196.544 30.636 196.56 30.7208 196.592 30.795C196.623 30.8692 196.687 30.9434 196.782 31.0176C196.878 31.0813 197.005 31.1555 197.164 31.2403C197.334 31.3145 197.546 31.3993 197.8 31.4947C198.32 31.6856 198.749 31.8764 199.088 32.0672C199.428 32.2475 199.693 32.4489 199.884 32.6716C200.085 32.8836 200.223 33.1221 200.297 33.3872C200.382 33.6522 200.424 33.9597 200.424 34.3096C200.424 35.1365 200.112 35.762 199.486 36.1861C198.871 36.6102 197.996 36.8223 196.862 36.8223C196.12 36.8223 195.5 36.7586 195.001 36.6314C194.514 36.5042 194.174 36.3982 193.984 36.3134L194.381 34.3891C194.784 34.5481 195.197 34.6753 195.622 34.7708C196.046 34.8556 196.464 34.898 196.878 34.898Z" fill="white"/>
<path d="M21.8728 142.105C23.0814 142.105 23.6857 141.691 23.6857 140.864C23.6857 140.61 23.6301 140.395 23.5188 140.22C23.4154 140.037 23.2723 139.882 23.0894 139.755C22.9065 139.62 22.6958 139.505 22.4572 139.409C22.2266 139.314 21.9801 139.218 21.7177 139.123C21.4156 139.02 21.1293 138.904 20.859 138.777C20.5886 138.642 20.3541 138.487 20.1553 138.312C19.9565 138.129 19.7974 137.914 19.6782 137.668C19.5669 137.421 19.5112 137.123 19.5112 136.773C19.5112 136.05 19.7577 135.485 20.2507 135.08C20.7437 134.674 21.4235 134.471 22.2902 134.471C22.7912 134.471 23.2444 134.527 23.65 134.638C24.0634 134.742 24.3656 134.857 24.5564 134.984L24.1867 135.926C24.0197 135.823 23.7692 135.724 23.4353 135.628C23.1093 135.525 22.7276 135.473 22.2902 135.473C22.0676 135.473 21.8609 135.497 21.67 135.545C21.4792 135.592 21.3122 135.664 21.1691 135.759C21.026 135.855 20.9107 135.978 20.8232 136.129C20.7437 136.272 20.7039 136.443 20.7039 136.642C20.7039 136.865 20.7477 137.052 20.8351 137.203C20.9226 137.354 21.0458 137.489 21.2049 137.608C21.3639 137.719 21.5468 137.823 21.7535 137.918C21.9682 138.014 22.2028 138.109 22.4572 138.205C22.815 138.348 23.1411 138.491 23.4353 138.634C23.7374 138.777 23.9958 138.948 24.2105 139.147C24.4332 139.346 24.6041 139.584 24.7234 139.862C24.8427 140.133 24.9023 140.463 24.9023 140.852C24.9023 141.576 24.6359 142.133 24.1032 142.522C23.5784 142.912 22.8349 143.107 21.8728 143.107C21.5468 143.107 21.2446 143.083 20.9663 143.035C20.696 142.995 20.4534 142.948 20.2388 142.892C20.0241 142.828 19.8372 142.765 19.6782 142.701C19.5271 142.63 19.4078 142.57 19.3204 142.522L19.6662 141.568C19.8491 141.671 20.1274 141.787 20.5012 141.914C20.8749 142.041 21.3321 142.105 21.8728 142.105ZM27.2666 136.726H29.6163V137.656H27.2666V140.518C27.2666 140.829 27.2905 141.087 27.3382 141.294C27.3859 141.492 27.4575 141.652 27.5529 141.771C27.6483 141.882 27.7676 141.962 27.9107 142.009C28.0538 142.057 28.2208 142.081 28.4116 142.081C28.7456 142.081 29.012 142.045 29.2108 141.974C29.4175 141.894 29.5606 141.838 29.6402 141.807L29.8548 142.725C29.7435 142.781 29.5487 142.848 29.2704 142.928C28.9921 143.015 28.674 143.059 28.3162 143.059C27.8948 143.059 27.5449 143.007 27.2666 142.904C26.9963 142.793 26.7776 142.63 26.6106 142.415C26.4436 142.2 26.3244 141.938 26.2528 141.628C26.1892 141.31 26.1574 140.944 26.1574 140.53V134.996L27.2666 134.805V136.726ZM33.127 142.129C33.3894 142.129 33.62 142.125 33.8188 142.117C34.0255 142.101 34.1965 142.077 34.3317 142.045V140.196C34.2522 140.157 34.121 140.125 33.9381 140.101C33.7631 140.069 33.5484 140.053 33.294 140.053C33.127 140.053 32.9481 140.065 32.7573 140.089C32.5744 140.113 32.4034 140.165 32.2444 140.244C32.0933 140.316 31.9661 140.419 31.8627 140.554C31.7594 140.681 31.7077 140.852 31.7077 141.067C31.7077 141.465 31.8349 141.743 32.0893 141.902C32.3438 142.053 32.6897 142.129 33.127 142.129ZM33.0316 136.57C33.4769 136.57 33.8506 136.63 34.1528 136.749C34.4629 136.861 34.7094 137.024 34.8923 137.238C35.0831 137.445 35.2183 137.696 35.2978 137.99C35.3773 138.276 35.4171 138.594 35.4171 138.944V142.82C35.3216 142.836 35.1865 142.86 35.0115 142.892C34.8445 142.916 34.6537 142.94 34.439 142.964C34.2243 142.987 33.9898 143.007 33.7353 143.023C33.4888 143.047 33.2423 143.059 32.9958 143.059C32.6459 143.059 32.3239 143.023 32.0297 142.952C31.7355 142.88 31.4811 142.769 31.2664 142.618C31.0517 142.459 30.8847 142.252 30.7654 141.997C30.6461 141.743 30.5865 141.437 30.5865 141.079C30.5865 140.737 30.6541 140.443 30.7893 140.196C30.9324 139.95 31.1232 139.751 31.3618 139.6C31.6003 139.449 31.8786 139.338 32.1967 139.266C32.5147 139.194 32.8487 139.159 33.1986 139.159C33.3099 139.159 33.4252 139.167 33.5445 139.183C33.6637 139.191 33.7751 139.206 33.8784 139.23C33.9898 139.246 34.0852 139.262 34.1647 139.278C34.2442 139.294 34.2999 139.306 34.3317 139.314V139.004C34.3317 138.821 34.3118 138.642 34.272 138.467C34.2323 138.284 34.1607 138.125 34.0573 137.99C33.954 137.847 33.8108 137.735 33.628 137.656C33.453 137.568 33.2224 137.525 32.9362 137.525C32.5704 137.525 32.2484 137.553 31.9701 137.608C31.6997 137.656 31.497 137.708 31.3618 137.763L31.2306 136.845C31.3737 136.781 31.6123 136.722 31.9462 136.666C32.2802 136.602 32.642 136.57 33.0316 136.57ZM39.5494 136.594C39.6448 136.594 39.7522 136.602 39.8714 136.618C39.9986 136.626 40.1219 136.642 40.2412 136.666C40.3604 136.682 40.4678 136.702 40.5632 136.726C40.6666 136.741 40.7421 136.757 40.7898 136.773L40.599 137.739C40.5115 137.708 40.3644 137.672 40.1577 137.632C39.9589 137.584 39.7005 137.56 39.3824 137.56C39.1757 137.56 38.9689 137.584 38.7622 137.632C38.5634 137.672 38.4322 137.7 38.3686 137.716V142.928H37.2594V136.988C37.5218 136.893 37.8478 136.805 38.2374 136.726C38.627 136.638 39.0643 136.594 39.5494 136.594ZM42.8979 136.726H45.2475V137.656H42.8979V140.518C42.8979 140.829 42.9217 141.087 42.9694 141.294C43.0171 141.492 43.0887 141.652 43.1841 141.771C43.2795 141.882 43.3988 141.962 43.5419 142.009C43.6851 142.057 43.8521 142.081 44.0429 142.081C44.3769 142.081 44.6432 142.045 44.842 141.974C45.0488 141.894 45.1919 141.838 45.2714 141.807L45.4861 142.725C45.3748 142.781 45.18 142.848 44.9017 142.928C44.6234 143.015 44.3053 143.059 43.9475 143.059C43.526 143.059 43.1762 143.007 42.8979 142.904C42.6275 142.793 42.4089 142.63 42.2419 142.415C42.0749 142.2 41.9556 141.938 41.8841 141.628C41.8204 141.31 41.7886 140.944 41.7886 140.53V134.996L42.8979 134.805V136.726Z" fill="#414652"/>
<path d="M49.2419 157.77C49.2419 162.161 45.6819 165.721 41.2904 165.721C36.8989 165.721 33.3389 162.161 33.3389 157.77C33.3389 153.378 36.8989 149.818 41.2904 149.818C45.6819 149.818 49.2419 153.378 49.2419 157.77Z" fill="#FF444F"/>
<path d="M276.358 162.741C276.358 167.132 272.798 170.692 268.406 170.692C264.015 170.692 260.455 167.132 260.455 162.741C260.455 158.349 264.015 154.789 268.406 154.789C272.798 154.789 276.358 158.349 276.358 162.741Z" fill="#FF444F"/>
<path d="M279.371 153.861V145.596H284.417V146.586H280.528V149.043H283.987V150.009H280.528V152.871H284.715V153.861H279.371ZM286.114 147.838C286.368 147.774 286.706 147.707 287.128 147.635C287.549 147.564 288.034 147.528 288.583 147.528C289.076 147.528 289.485 147.6 289.811 147.743C290.137 147.878 290.396 148.073 290.587 148.327C290.785 148.574 290.924 148.872 291.004 149.222C291.084 149.571 291.123 149.957 291.123 150.379V153.861H290.014V150.617C290.014 150.235 289.986 149.909 289.931 149.639C289.883 149.369 289.799 149.15 289.68 148.983C289.561 148.816 289.402 148.697 289.203 148.625C289.004 148.546 288.758 148.506 288.463 148.506C288.344 148.506 288.221 148.51 288.094 148.518C287.967 148.526 287.843 148.538 287.724 148.554C287.613 148.562 287.509 148.574 287.414 148.589C287.326 148.605 287.263 148.617 287.223 148.625V153.861H286.114V147.838ZM296.97 148.971C296.835 148.86 296.64 148.752 296.386 148.649C296.131 148.546 295.853 148.494 295.551 148.494C295.233 148.494 294.958 148.554 294.728 148.673C294.505 148.784 294.322 148.943 294.179 149.15C294.036 149.349 293.933 149.587 293.869 149.866C293.806 150.144 293.774 150.442 293.774 150.76C293.774 151.484 293.953 152.044 294.31 152.442C294.668 152.832 295.145 153.026 295.742 153.026C296.044 153.026 296.294 153.014 296.493 152.991C296.7 152.959 296.859 152.927 296.97 152.895V148.971ZM296.97 144.797L298.079 144.606V153.682C297.825 153.754 297.499 153.826 297.101 153.897C296.704 153.969 296.247 154.004 295.73 154.004C295.253 154.004 294.823 153.929 294.442 153.778C294.06 153.627 293.734 153.412 293.464 153.134C293.193 152.855 292.983 152.518 292.831 152.12C292.688 151.714 292.617 151.261 292.617 150.76C292.617 150.283 292.676 149.846 292.796 149.448C292.923 149.051 293.106 148.709 293.344 148.422C293.583 148.136 293.873 147.914 294.215 147.755C294.565 147.596 294.962 147.516 295.408 147.516C295.766 147.516 296.08 147.564 296.35 147.659C296.628 147.755 296.835 147.846 296.97 147.933V144.797Z" fill="#414652"/>
<defs>
<filter id="filter0_d_2591_26943" x="0.0972133" y="0.175427" width="341.805" height="227.502" filterUnits="userSpaceOnUse" color-interpolation-filters="sRGB">
<feFlood flood-opacity="0" result="BackgroundImageFix"/>
<feColorMatrix in="SourceAlpha" type="matrix" values="0 0 0 0 0 0 0 0 0 0 0 0 0 0 0 0 0 0 127 0" result="hardAlpha"/>
<feOffset dy="1.38046"/>
<feGaussianBlur stdDeviation="3.45115"/>
<feComposite in2="hardAlpha" operator="out"/>
<feColorMatrix type="matrix" values="0 0 0 0 0 0 0 0 0 0 0 0 0 0 0 0 0 0 0.1 0"/>
<feBlend mode="normal" in2="BackgroundImageFix" result="effect1_dropShadow_2591_26943"/>
<feBlend mode="normal" in="SourceGraphic" in2="effect1_dropShadow_2591_26943" result="shape"/>
</filter>
</defs>
</svg>
