<svg width="342" height="228" viewBox="0 0 342 228" fill="none" xmlns="http://www.w3.org/2000/svg">
<g filter="url(#filter0_d_2591_35753)">
<rect x="7" y="5.69727" width="328" height="213.697" rx="4.14138" fill="white"/>
</g>
<path d="M40.627 26.6078H42.7978V36.251H40.627V32.1599H36.9812V36.251H34.8105V26.6078H36.9812V30.2953H40.627V26.6078ZM46.9636 36.251H44.8903V28.9316H46.9636V36.251ZM47.1584 26.8165C47.1584 27.1969 47.0332 27.4983 46.7827 27.721C46.5415 27.9344 46.254 28.041 45.92 28.041C45.586 28.041 45.2938 27.9344 45.0433 27.721C44.8021 27.4983 44.6815 27.1969 44.6815 26.8165C44.6815 26.4362 44.8021 26.1393 45.0433 25.9259C45.2938 25.7033 45.586 25.592 45.92 25.592C46.254 25.592 46.5415 25.7033 46.7827 25.9259C47.0332 26.1393 47.1584 26.4362 47.1584 26.8165ZM50.6798 32.3547C50.6798 33.5143 51.1483 34.0941 52.0853 34.0941C52.2986 34.0941 52.4981 34.0663 52.6836 34.0106C52.8692 33.955 53.0269 33.89 53.1567 33.8158V30.504C53.0547 30.4855 52.9341 30.4716 52.7949 30.4623C52.6558 30.4437 52.4934 30.4344 52.3079 30.4344C51.7606 30.4344 51.3524 30.6153 51.0834 30.9771C50.8144 31.3389 50.6798 31.7981 50.6798 32.3547ZM55.2301 35.3326C55.2301 36.5293 54.924 37.4152 54.3117 37.9904C53.7087 38.5748 52.7717 38.867 51.5008 38.867C51.0555 38.867 50.6103 38.8253 50.165 38.7418C49.7197 38.6676 49.3069 38.5655 48.9265 38.4357L49.2883 36.6963C49.613 36.8261 49.9516 36.9282 50.3041 37.0024C50.6659 37.0766 51.0741 37.1137 51.5287 37.1137C52.1224 37.1137 52.5398 36.9838 52.781 36.7241C53.0315 36.4643 53.1567 36.1304 53.1567 35.7222V35.4578C52.9341 35.5599 52.7022 35.6387 52.461 35.6944C52.2291 35.7408 51.9739 35.7639 51.6956 35.7639C50.6845 35.7639 49.9099 35.4671 49.3718 34.8734C48.8338 34.2704 48.5647 33.4308 48.5647 32.3547C48.5647 31.8167 48.6482 31.3297 48.8152 30.8936C48.9822 30.4484 49.2234 30.068 49.5388 29.7526C49.8635 29.4372 50.2577 29.196 50.7216 29.029C51.1854 28.8528 51.7096 28.7646 52.294 28.7646C52.5445 28.7646 52.7996 28.7785 53.0593 28.8064C53.3284 28.8249 53.5927 28.8528 53.8525 28.8899C54.1122 28.927 54.3581 28.9734 54.59 29.029C54.8312 29.0754 55.0446 29.1264 55.2301 29.1821V35.3326ZM57.1747 36.251V25.7868L59.2481 25.4528V28.9594C59.3872 28.9131 59.5635 28.8713 59.7769 28.8342C59.9995 28.7878 60.2129 28.7646 60.417 28.7646C61.0107 28.7646 61.5023 28.8481 61.892 29.0151C62.2909 29.1728 62.6063 29.4001 62.8382 29.6969C63.0794 29.9938 63.2464 30.3463 63.3391 30.7545C63.4412 31.1627 63.4922 31.6172 63.4922 32.1182V36.251H61.4189V32.3686C61.4189 31.7007 61.3307 31.2276 61.1545 30.9493C60.9875 30.671 60.6721 30.5318 60.2082 30.5318C60.0227 30.5318 59.8464 30.5504 59.6795 30.5875C59.5218 30.6153 59.378 30.6478 59.2481 30.6849V36.251H57.1747ZM64.7427 31.158H68.7781V33.0366H64.7427V31.158ZM76.6798 34.3863V36.251H70.237V26.6078H72.4078V34.3863H76.6798ZM84.785 32.5774C84.785 33.1525 84.7015 33.6813 84.5345 34.1637C84.3676 34.6368 84.1264 35.045 83.8109 35.3882C83.4955 35.7222 83.1152 35.982 82.6699 36.1675C82.2339 36.353 81.7422 36.4458 81.1949 36.4458C80.6568 36.4458 80.1652 36.353 79.7199 36.1675C79.2839 35.982 78.9082 35.7222 78.5928 35.3882C78.2774 35.045 78.0315 34.6368 77.8553 34.1637C77.679 33.6813 77.5909 33.1525 77.5909 32.5774C77.5909 32.0022 77.679 31.4781 77.8553 31.005C78.0408 30.5318 78.2913 30.1283 78.6067 29.7943C78.9314 29.4604 79.3117 29.2006 79.7477 29.0151C80.193 28.8296 80.6754 28.7368 81.1949 28.7368C81.7237 28.7368 82.2061 28.8296 82.6421 29.0151C83.0874 29.2006 83.4677 29.4604 83.7831 29.7943C84.0985 30.1283 84.3444 30.5318 84.5206 31.005C84.6969 31.4781 84.785 32.0022 84.785 32.5774ZM82.6699 32.5774C82.6699 31.9373 82.54 31.4363 82.2803 31.0745C82.0298 30.7035 81.668 30.5179 81.1949 30.5179C80.7218 30.5179 80.3554 30.7035 80.0956 31.0745C79.8359 31.4363 79.706 31.9373 79.706 32.5774C79.706 33.2175 79.8359 33.7277 80.0956 34.108C80.3554 34.4791 80.7218 34.6646 81.1949 34.6646C81.668 34.6646 82.0298 34.4791 82.2803 34.108C82.54 33.7277 82.6699 33.2175 82.6699 32.5774ZM90.6809 32.0486C90.4954 32.7536 90.2959 33.454 90.0825 34.1498C89.8785 34.8455 89.6605 35.5459 89.4285 36.251H87.8144C87.6474 35.8614 87.4665 35.3975 87.2717 34.8595C87.0769 34.3214 86.8728 33.737 86.6594 33.1062C86.4553 32.4661 86.242 31.7935 86.0193 31.0885C85.806 30.3741 85.5972 29.6552 85.3931 28.9316H87.5778C87.652 29.2656 87.7309 29.632 87.8144 30.0309C87.9071 30.4205 87.9999 30.8241 88.0927 31.2415C88.1947 31.659 88.2968 32.0811 88.3988 32.5078C88.5101 32.9253 88.6215 33.3288 88.7328 33.7184C88.8534 33.3102 88.9693 32.8928 89.0807 32.4661C89.2013 32.0393 89.3126 31.6219 89.4146 31.2137C89.5259 30.7962 89.628 30.3973 89.7208 30.017C89.8228 29.6274 89.9109 29.2656 89.9851 28.9316H91.488C91.5622 29.2656 91.6457 29.6274 91.7385 30.017C91.8312 30.3973 91.9286 30.7962 92.0307 31.2137C92.1327 31.6219 92.2394 32.0393 92.3507 32.4661C92.462 32.8928 92.578 33.3102 92.6986 33.7184C92.8099 33.3288 92.9212 32.9253 93.0326 32.5078C93.1439 32.0811 93.2459 31.659 93.3387 31.2415C93.4407 30.8241 93.5335 30.4205 93.617 30.0309C93.7098 29.632 93.7933 29.2656 93.8675 28.9316H96.0243C95.8202 29.6552 95.6069 30.3741 95.3842 31.0885C95.1709 31.7935 94.9575 32.4661 94.7441 33.1062C94.54 33.737 94.3359 34.3214 94.1319 34.8595C93.937 35.3975 93.7561 35.8614 93.5892 36.251H91.975C91.7431 35.5459 91.5158 34.8455 91.2932 34.1498C91.0705 33.454 90.8664 32.7536 90.6809 32.0486Z" fill="#414652"/>
<rect x="7.51245" y="56.5818" width="326.975" height="162.301" stroke="#ECECEC" stroke-width="1.0249"/>
<path d="M7 109.859H335" stroke="#ECECEC" stroke-width="1.0249"/>
<path d="M7 83.4531H335" stroke="#ECECEC" stroke-width="1.0249"/>
<path d="M7 136.265H335" stroke="#ECECEC" stroke-width="1.0249"/>
<path d="M7 162.671H335" stroke="#ECECEC" stroke-width="1.0249"/>
<path d="M7 189.077H335" stroke="#ECECEC" stroke-width="1.0249"/>
<path d="M62.1777 56.0693L62.1777 219.395" stroke="#ECECEC" stroke-width="1.0249"/>
<path d="M116.334 56.0693L116.334 219.395" stroke="#ECECEC" stroke-width="1.0249"/>
<path d="M170.49 56.0693L170.49 219.395" stroke="#ECECEC" stroke-width="1.0249"/>
<path d="M224.646 56.0693L224.646 219.395" stroke="#ECECEC" stroke-width="1.0249"/>
<path d="M278.801 56.0693L278.801 219.395" stroke="#ECECEC" stroke-width="1.0249"/>
<path d="M7 56.832H335" stroke="#ECECEC" stroke-width="1.5302"/>
<path d="M40.793 161.249L85.5202 143.855L116.829 161.249L166.526 112.049L194.854 187.091L236.599 141.37L267.908 162.74" stroke="#A8A8A8" stroke-width="2.98182"/>
<path d="M271.842 56.0684L271.842 219.394" stroke="#7D7D7D" stroke-width="2.98182"/>
<line x1="7.99414" y1="109.678" x2="334.469" y2="109.678" stroke="black" stroke-width="0.765102" stroke-dasharray="6.12 6.12"/>
<path d="M23.7386 93.2878H24.4145L23.6789 96.2795H27.2472L27.9628 93.2878H28.6387L26.9987 100.176H26.3228L27.118 96.866H23.5597L22.7645 100.176H22.0886L23.7386 93.2878ZM29.8441 95.0371H30.4901L29.2477 100.176H28.6017L29.8441 95.0371ZM30.1025 93.5363C30.1025 93.364 30.1489 93.2348 30.2417 93.1486C30.3411 93.0559 30.4471 93.0095 30.5597 93.0095C30.6922 93.0095 30.795 93.0525 30.8678 93.1387C30.9407 93.2182 30.9772 93.3242 30.9772 93.4568C30.9772 93.6158 30.9242 93.7384 30.8181 93.8245C30.7121 93.9106 30.6061 93.9537 30.5001 93.9537C30.3676 93.9537 30.2682 93.9173 30.2019 93.8444C30.1356 93.7649 30.1025 93.6622 30.1025 93.5363ZM35.0061 95.5838C34.7941 95.5308 34.5887 95.5043 34.3899 95.5043C33.9327 95.5043 33.5351 95.5838 33.1972 95.7428C32.8658 95.9018 32.5909 96.1073 32.3722 96.3591C32.1535 96.6042 31.9912 96.8792 31.8852 97.184C31.7791 97.4822 31.7261 97.7704 31.7261 98.0488C31.7261 98.2277 31.7427 98.3999 31.7758 98.5656C31.809 98.7246 31.8653 98.8638 31.9448 98.9831C32.0243 99.1023 32.1336 99.1984 32.2728 99.2713C32.4119 99.3376 32.5909 99.3707 32.8095 99.3707C33.0348 99.3707 33.2667 99.3309 33.5053 99.2514C33.7505 99.1653 33.9824 99.0526 34.201 98.9135L35.0061 95.5838ZM30.5533 101.06C30.6924 101.173 30.8912 101.266 31.1496 101.339C31.4147 101.412 31.6764 101.448 31.9349 101.448C32.5445 101.448 33.0116 101.309 33.3363 101.031C33.6676 100.752 33.883 100.358 33.9824 99.8478L34.0321 99.5894C33.8333 99.7153 33.6212 99.8113 33.3959 99.8776C33.1707 99.9372 32.9454 99.9671 32.7201 99.9671C32.4351 99.9671 32.1867 99.9207 31.9746 99.8279C31.7692 99.7351 31.6002 99.6092 31.4677 99.4502C31.3352 99.2845 31.2358 99.0957 31.1695 98.8837C31.1033 98.665 31.0701 98.4331 31.0701 98.1879C31.0701 97.8102 31.1364 97.4292 31.2689 97.0449C31.4081 96.6539 31.6201 96.3027 31.905 95.9913C32.19 95.6732 32.5445 95.4148 32.9686 95.216C33.3993 95.0172 33.9095 94.9178 34.4992 94.9178C34.7378 94.9178 34.9631 94.9443 35.1751 94.9974C35.3871 95.0437 35.576 95.1133 35.7416 95.2061L34.6284 99.8378C34.5622 100.116 34.476 100.388 34.37 100.653C34.264 100.918 34.1083 101.153 33.9029 101.359C33.6974 101.564 33.4225 101.73 33.0779 101.856C32.7399 101.981 32.3026 102.044 31.7659 102.044C31.6599 102.044 31.5406 102.034 31.4081 102.015C31.2755 102.001 31.1397 101.978 31.0006 101.945C30.868 101.912 30.7388 101.872 30.6129 101.826C30.487 101.786 30.3744 101.736 30.275 101.677L30.5533 101.06ZM36.7993 100.176H36.1533L37.9622 92.5821L38.6381 92.4628L37.9821 95.1763C38.3996 95.004 38.7938 94.9178 39.1649 94.9178C39.3902 94.9178 39.5989 94.951 39.7911 95.0172C39.9833 95.0835 40.1522 95.1829 40.298 95.3154C40.4438 95.4479 40.5564 95.6169 40.6359 95.8223C40.7221 96.0211 40.7652 96.2597 40.7652 96.538C40.7652 96.7102 40.7519 96.8892 40.7254 97.0747C40.6989 97.2536 40.6624 97.4358 40.6161 97.6214L39.9998 100.176H39.3538L39.9004 97.8897C39.9534 97.6711 40.0031 97.4491 40.0495 97.2238C40.0959 96.9985 40.1191 96.7831 40.1191 96.5777C40.1191 96.3789 40.086 96.2133 40.0197 96.0808C39.9601 95.9416 39.8772 95.8323 39.7712 95.7528C39.6718 95.6666 39.5525 95.607 39.4134 95.5738C39.2742 95.5341 39.1285 95.5142 38.9761 95.5142C38.7839 95.5142 38.5884 95.5341 38.3896 95.5738C38.1975 95.6136 38.0153 95.6633 37.843 95.7229L36.7993 100.176ZM46.8515 93.8742H44.7443L44.8735 93.2878H49.7737L49.6345 93.8742H47.5274L46.0166 100.176H45.3407L46.8515 93.8742ZM52.4474 95.5937C52.3282 95.5672 52.2188 95.5473 52.1194 95.5341C52.02 95.5208 51.9173 95.5142 51.8113 95.5142C51.4005 95.5142 51.036 95.5937 50.718 95.7528C50.3999 95.9118 50.1316 96.1205 49.9129 96.3789C49.6942 96.6374 49.5253 96.9322 49.406 97.2635C49.2933 97.5949 49.237 97.9328 49.237 98.2774C49.237 98.549 49.2635 98.7776 49.3165 98.9632C49.3695 99.1421 49.4424 99.2879 49.5352 99.4005C49.628 99.5065 49.734 99.586 49.8533 99.6391C49.9792 99.6854 50.1117 99.7086 50.2508 99.7086C50.5225 99.7086 50.7776 99.6457 51.0162 99.5198C51.2547 99.3873 51.48 99.2017 51.692 98.9632C51.692 98.7843 51.7185 98.5789 51.7716 98.3469C51.8246 98.115 51.8743 97.9063 51.9206 97.7208L52.4474 95.5937ZM51.8709 100.235C51.8312 100.156 51.7947 100.066 51.7616 99.9671C51.7351 99.861 51.7152 99.755 51.702 99.649C51.4701 99.8743 51.2249 100.04 50.9665 100.146C50.7147 100.252 50.4529 100.305 50.1813 100.305C49.9692 100.305 49.7671 100.269 49.5749 100.196C49.3828 100.123 49.2138 100.01 49.068 99.8577C48.9223 99.7053 48.803 99.5098 48.7102 99.2713C48.6241 99.0261 48.581 98.7379 48.581 98.4066C48.581 97.8765 48.6672 97.3961 48.8394 96.9654C49.0117 96.5346 49.2503 96.1702 49.5551 95.872C49.8665 95.5672 50.2309 95.332 50.6484 95.1663C51.0725 95.0007 51.533 94.9178 52.03 94.9178C52.4408 94.9178 52.8351 94.9874 53.2128 95.1266L52.4474 98.2177C52.4077 98.3834 52.3745 98.5391 52.348 98.6849C52.3215 98.8306 52.3083 98.9698 52.3083 99.1023C52.3083 99.2812 52.3248 99.4502 52.358 99.6092C52.3911 99.7683 52.4507 99.9439 52.5369 100.136L51.8709 100.235ZM54.7977 95.2657C55.0495 95.1663 55.3245 95.0835 55.6227 95.0172C55.9275 94.951 56.2257 94.9178 56.5172 94.9178C56.6696 94.9178 56.8154 94.9278 56.9546 94.9477C57.0937 94.9675 57.2262 95.0007 57.3521 95.0471L57.1832 95.6335C56.9247 95.554 56.6597 95.5142 56.388 95.5142C56.2157 95.5142 56.0434 95.5275 55.8712 95.554C55.6989 95.5805 55.5266 95.6202 55.3543 95.6732L54.2709 100.176H53.6249L54.7977 95.2657ZM61.262 95.5838C61.05 95.5308 60.8446 95.5043 60.6458 95.5043C60.1886 95.5043 59.791 95.5838 59.4531 95.7428C59.1218 95.9018 58.8468 96.1073 58.6281 96.3591C58.4094 96.6042 58.2471 96.8792 58.1411 97.184C58.0351 97.4822 57.982 97.7704 57.982 98.0488C57.982 98.2277 57.9986 98.3999 58.0317 98.5656C58.0649 98.7246 58.1212 98.8638 58.2007 98.9831C58.2802 99.1023 58.3896 99.1984 58.5287 99.2713C58.6679 99.3376 58.8468 99.3707 59.0654 99.3707C59.2907 99.3707 59.5227 99.3309 59.7612 99.2514C60.0064 99.1653 60.2383 99.0526 60.457 98.9135L61.262 95.5838ZM56.8092 101.06C56.9483 101.173 57.1471 101.266 57.4056 101.339C57.6706 101.412 57.9323 101.448 58.1908 101.448C58.8004 101.448 59.2675 101.309 59.5922 101.031C59.9235 100.752 60.1389 100.358 60.2383 99.8478L60.288 99.5894C60.0892 99.7153 59.8772 99.8113 59.6519 99.8776C59.4266 99.9372 59.2013 99.9671 58.976 99.9671C58.6911 99.9671 58.4426 99.9207 58.2305 99.8279C58.0251 99.7351 57.8561 99.6092 57.7236 99.4502C57.5911 99.2845 57.4917 99.0957 57.4254 98.8837C57.3592 98.665 57.326 98.4331 57.326 98.1879C57.326 97.8102 57.3923 97.4292 57.5248 97.0449C57.664 96.6539 57.876 96.3027 58.161 95.9913C58.4459 95.6732 58.8004 95.4148 59.2245 95.216C59.6552 95.0172 60.1654 94.9178 60.7551 94.9178C60.9937 94.9178 61.219 94.9443 61.431 94.9974C61.6431 95.0437 61.8319 95.1133 61.9976 95.2061L60.8843 99.8378C60.8181 100.116 60.7319 100.388 60.6259 100.653C60.5199 100.918 60.3642 101.153 60.1588 101.359C59.9534 101.564 59.6784 101.73 59.3338 101.856C58.9959 101.981 58.5585 102.044 58.0218 102.044C57.9158 102.044 57.7965 102.034 57.664 102.015C57.5315 102.001 57.3956 101.978 57.2565 101.945C57.1239 101.912 56.9947 101.872 56.8688 101.826C56.7429 101.786 56.6303 101.736 56.5309 101.677L56.8092 101.06ZM66.9515 96.2398C66.9515 96.6109 66.8587 96.9123 66.6732 97.1443C66.4943 97.3762 66.2392 97.5617 65.9079 97.7009C65.5832 97.8334 65.1889 97.9295 64.7251 97.9891C64.2679 98.0488 63.7576 98.0918 63.1944 98.1183V98.3271C63.1944 98.5192 63.2143 98.6981 63.254 98.8638C63.2938 99.0294 63.3667 99.1752 63.4727 99.3011C63.5787 99.4204 63.7245 99.5165 63.91 99.5894C64.1022 99.6622 64.3474 99.6987 64.6456 99.6987C64.8775 99.6987 65.1094 99.6656 65.3413 99.5993C65.5799 99.533 65.8052 99.4336 66.0172 99.3011L66.0868 99.8975C65.8615 100.023 65.613 100.119 65.3413 100.186C65.0696 100.259 64.7946 100.295 64.5163 100.295C64.1519 100.295 63.8438 100.249 63.592 100.156C63.3468 100.063 63.1447 99.9339 62.9857 99.7683C62.8333 99.6026 62.7239 99.4038 62.6577 99.1719C62.5914 98.94 62.5583 98.6849 62.5583 98.4066C62.5583 97.9825 62.6212 97.5617 62.7471 97.1443C62.8797 96.7268 63.0718 96.3524 63.3236 96.0211C63.5754 95.6898 63.8835 95.4248 64.248 95.226C64.619 95.0205 65.0398 94.9178 65.5103 94.9178C65.9741 94.9178 66.3286 95.0404 66.5738 95.2856C66.8256 95.5241 66.9515 95.8422 66.9515 96.2398ZM65.4506 95.5043C65.1856 95.5043 64.9371 95.5606 64.7052 95.6732C64.4733 95.7793 64.2645 95.925 64.079 96.1106C63.8935 96.2961 63.7311 96.5115 63.592 96.7566C63.4595 97.0018 63.3601 97.2602 63.2938 97.5319C63.857 97.5186 64.3308 97.4822 64.7151 97.4226C65.0995 97.3629 65.4076 97.2801 65.6395 97.1741C65.878 97.0681 66.047 96.9422 66.1464 96.7964C66.2458 96.644 66.2955 96.4717 66.2955 96.2795C66.2955 96.0211 66.216 95.829 66.0569 95.7031C65.9045 95.5705 65.7024 95.5043 65.4506 95.5043ZM68.803 93.5263L69.4789 93.4071L69.0913 95.0371H70.9002L70.771 95.5937H68.9521L68.3458 98.1084C68.3127 98.2277 68.2829 98.3569 68.2563 98.496C68.2365 98.6285 68.2265 98.7611 68.2265 98.8936C68.2265 99.1918 68.2994 99.4005 68.4452 99.5198C68.591 99.6391 68.7732 99.6987 68.9919 99.6987C69.2039 99.6987 69.3861 99.6755 69.5385 99.6291C69.6976 99.5827 69.8632 99.5198 70.0355 99.4403L70.0951 100.027C69.9162 100.1 69.7141 100.163 69.4888 100.216C69.2702 100.269 69.0515 100.295 68.8328 100.295C68.6606 100.295 68.4982 100.275 68.3458 100.235C68.1934 100.196 68.0576 100.129 67.9383 100.037C67.8256 99.9439 67.7329 99.8213 67.66 99.6689C67.5937 99.5165 67.5606 99.3243 67.5606 99.0924C67.5606 98.8075 67.607 98.4795 67.6997 98.1084L68.803 93.5263Z" fill="#414652" fill-opacity="0.6"/>
<path d="M23.2384 197.652H23.9143L22.4035 203.964H25.4549L25.3257 204.54H21.5984L23.2384 197.652ZM26.6549 202.89C26.6549 203.281 26.7643 203.576 26.9829 203.775C27.2016 203.973 27.4633 204.073 27.7681 204.073C28.0067 204.073 28.2518 204.013 28.5036 203.894C28.7554 203.768 28.9841 203.583 29.1895 203.337C29.4015 203.086 29.5738 202.771 29.7063 202.393C29.8455 202.015 29.915 201.571 29.915 201.061C29.915 200.67 29.8057 200.375 29.587 200.177C29.3684 199.978 29.1066 199.878 28.8018 199.878C28.5633 199.878 28.3181 199.941 28.0663 200.067C27.8145 200.187 27.5826 200.372 27.3706 200.624C27.1651 200.869 26.9929 201.181 26.8537 201.558C26.7212 201.936 26.6549 202.38 26.6549 202.89ZM30.571 201.012C30.571 201.634 30.4816 202.174 30.3027 202.632C30.1304 203.089 29.9051 203.47 29.6268 203.775C29.3551 204.073 29.0503 204.295 28.7124 204.441C28.3811 204.586 28.0531 204.659 27.7284 204.659C27.4965 204.659 27.2745 204.623 27.0624 204.55C26.857 204.477 26.6748 204.368 26.5158 204.222C26.3567 204.076 26.2308 203.897 26.1381 203.685C26.0453 203.467 25.9989 203.215 25.9989 202.93C25.9989 202.307 26.0851 201.767 26.2573 201.31C26.4363 200.853 26.6615 200.475 26.9332 200.177C27.2115 199.878 27.5163 199.656 27.8476 199.511C28.1856 199.365 28.5169 199.292 28.8416 199.292C29.0735 199.292 29.2922 199.328 29.4976 199.401C29.7096 199.474 29.8952 199.584 30.0542 199.729C30.2132 199.875 30.3391 200.057 30.4319 200.276C30.5247 200.488 30.571 200.733 30.571 201.012ZM32.7017 204.54H32.0258C31.8867 203.811 31.774 203.013 31.6879 202.145C31.6084 201.277 31.562 200.362 31.5488 199.401H32.1849C32.1915 199.753 32.2048 200.137 32.2246 200.554C32.2445 200.965 32.271 201.376 32.3041 201.787C32.3373 202.198 32.3737 202.585 32.4135 202.95C32.4532 203.314 32.4996 203.619 32.5526 203.864C32.7647 203.566 32.98 203.235 33.1987 202.87C33.424 202.506 33.636 202.128 33.8348 201.737C34.0402 201.34 34.2291 200.942 34.4014 200.544C34.5803 200.147 34.7294 199.766 34.8486 199.401H35.5146C35.5146 199.726 35.5212 200.081 35.5344 200.465C35.5543 200.849 35.5775 201.24 35.604 201.638C35.6305 202.035 35.6603 202.426 35.6935 202.811C35.7332 203.195 35.7763 203.546 35.8227 203.864C35.9817 203.685 36.1739 203.417 36.3992 203.059C36.6311 202.695 36.863 202.3 37.0949 201.876C37.3269 201.446 37.5422 201.012 37.741 200.574C37.9464 200.137 38.0988 199.746 38.1982 199.401H38.8343C38.6819 199.892 38.4831 200.395 38.238 200.912C37.9928 201.422 37.7311 201.909 37.4528 202.373C37.1811 202.83 36.9094 203.251 36.6377 203.636C36.366 204.013 36.1275 204.315 35.9221 204.54H35.2462C35.1799 203.957 35.117 203.327 35.0574 202.652C34.9977 201.976 34.9613 201.31 34.948 200.654C34.8155 200.965 34.6598 201.3 34.4809 201.658C34.3086 202.009 34.1231 202.36 33.9243 202.711C33.7255 203.056 33.5201 203.387 33.308 203.705C33.1026 204.023 32.9005 204.301 32.7017 204.54ZM43.9443 198.238H41.8372L41.9664 197.652H46.8665L46.7274 198.238H44.6202L43.1094 204.54H42.4336L43.9443 198.238ZM49.5403 199.958C49.421 199.931 49.3117 199.912 49.2123 199.898C49.1129 199.885 49.0102 199.878 48.9042 199.878C48.4933 199.878 48.1289 199.958 47.8108 200.117C47.4928 200.276 47.2244 200.485 47.0057 200.743C46.7871 201.002 46.6181 201.296 46.4988 201.628C46.3862 201.959 46.3299 202.297 46.3299 202.642C46.3299 202.913 46.3564 203.142 46.4094 203.327C46.4624 203.506 46.5353 203.652 46.6281 203.765C46.7208 203.871 46.8268 203.95 46.9461 204.003C47.072 204.05 47.2045 204.073 47.3437 204.073C47.6154 204.073 47.8705 204.01 48.109 203.884C48.3476 203.752 48.5729 203.566 48.7849 203.327C48.7849 203.149 48.8114 202.943 48.8644 202.711C48.9174 202.479 48.9671 202.271 49.0135 202.085L49.5403 199.958ZM48.9638 204.6C48.9241 204.52 48.8876 204.431 48.8545 204.331C48.828 204.225 48.8081 204.119 48.7948 204.013C48.5629 204.239 48.3177 204.404 48.0593 204.51C47.8075 204.616 47.5458 204.669 47.2741 204.669C47.0621 204.669 46.86 204.633 46.6678 204.56C46.4756 204.487 46.3067 204.374 46.1609 204.222C46.0151 204.07 45.8959 203.874 45.8031 203.636C45.7169 203.39 45.6739 203.102 45.6739 202.771C45.6739 202.241 45.76 201.76 45.9323 201.33C46.1046 200.899 46.3431 200.534 46.6479 200.236C46.9594 199.931 47.3238 199.696 47.7413 199.531C48.1653 199.365 48.6259 199.282 49.1228 199.282C49.5337 199.282 49.9279 199.352 50.3056 199.491L49.5403 202.582C49.5005 202.748 49.4674 202.903 49.4409 203.049C49.4144 203.195 49.4011 203.334 49.4011 203.467C49.4011 203.645 49.4177 203.814 49.4508 203.973C49.484 204.133 49.5436 204.308 49.6297 204.5L48.9638 204.6ZM51.8906 199.63C52.1424 199.531 52.4174 199.448 52.7155 199.381C53.0204 199.315 53.3185 199.282 53.6101 199.282C53.7625 199.282 53.9083 199.292 54.0474 199.312C54.1866 199.332 54.3191 199.365 54.445 199.411L54.276 199.998C54.0176 199.918 53.7526 199.878 53.4809 199.878C53.3086 199.878 53.1363 199.892 52.964 199.918C52.7917 199.945 52.6195 199.984 52.4472 200.037L51.3638 204.54H50.7177L51.8906 199.63ZM58.3549 199.948C58.1429 199.895 57.9375 199.869 57.7387 199.869C57.2815 199.869 56.8839 199.948 56.5459 200.107C56.2146 200.266 55.9396 200.472 55.721 200.723C55.5023 200.968 55.34 201.243 55.2339 201.548C55.1279 201.846 55.0749 202.135 55.0749 202.413C55.0749 202.592 55.0915 202.764 55.1246 202.93C55.1577 203.089 55.2141 203.228 55.2936 203.347C55.3731 203.467 55.4824 203.563 55.6216 203.636C55.7607 203.702 55.9396 203.735 56.1583 203.735C56.3836 203.735 56.6155 203.695 56.8541 203.616C57.0992 203.53 57.3311 203.417 57.5498 203.278L58.3549 199.948ZM53.9021 205.425C54.0412 205.537 54.24 205.63 54.4984 205.703C54.7635 205.776 55.0252 205.812 55.2836 205.812C55.8933 205.812 56.3604 205.673 56.6851 205.395C57.0164 205.117 57.2318 204.722 57.3312 204.212L57.3808 203.954C57.1821 204.08 56.97 204.176 56.7447 204.242C56.5194 204.301 56.2941 204.331 56.0688 204.331C55.7839 204.331 55.5354 204.285 55.3234 204.192C55.118 204.099 54.949 203.973 54.8165 203.814C54.684 203.649 54.5846 203.46 54.5183 203.248C54.452 203.029 54.4189 202.797 54.4189 202.552C54.4189 202.174 54.4852 201.793 54.6177 201.409C54.7568 201.018 54.9689 200.667 55.2538 200.356C55.5387 200.037 55.8933 199.779 56.3173 199.58C56.748 199.381 57.2583 199.282 57.848 199.282C58.0865 199.282 58.3118 199.309 58.5239 199.362C58.7359 199.408 58.9248 199.478 59.0904 199.57L57.9772 204.202C57.9109 204.48 57.8248 204.752 57.7188 205.017C57.6128 205.282 57.457 205.517 57.2516 205.723C57.0462 205.928 56.7712 206.094 56.4267 206.22C56.0887 206.346 55.6514 206.409 55.1147 206.409C55.0086 206.409 54.8894 206.399 54.7568 206.379C54.6243 206.366 54.4885 206.342 54.3493 206.309C54.2168 206.276 54.0876 206.236 53.9617 206.19C53.8358 206.15 53.7231 206.101 53.6238 206.041L53.9021 205.425ZM64.0444 200.604C64.0444 200.975 63.9516 201.277 63.7661 201.509C63.5871 201.74 63.332 201.926 63.0007 202.065C62.676 202.198 62.2818 202.294 61.8179 202.353C61.3607 202.413 60.8505 202.456 60.2873 202.483V202.691C60.2873 202.883 60.3071 203.062 60.3469 203.228C60.3867 203.394 60.4595 203.539 60.5656 203.665C60.6716 203.785 60.8174 203.881 61.0029 203.954C61.1951 204.027 61.4402 204.063 61.7384 204.063C61.9703 204.063 62.2023 204.03 62.4342 203.964C62.6727 203.897 62.898 203.798 63.1101 203.665L63.1796 204.262C62.9543 204.388 62.7059 204.484 62.4342 204.55C62.1625 204.623 61.8875 204.659 61.6092 204.659C61.2448 204.659 60.9366 204.613 60.6848 204.52C60.4397 204.427 60.2376 204.298 60.0785 204.133C59.9261 203.967 59.8168 203.768 59.7505 203.536C59.6843 203.304 59.6511 203.049 59.6511 202.771C59.6511 202.347 59.7141 201.926 59.84 201.509C59.9725 201.091 60.1647 200.717 60.4165 200.385C60.6683 200.054 60.9764 199.789 61.3408 199.59C61.7119 199.385 62.1327 199.282 62.6031 199.282C63.067 199.282 63.4215 199.405 63.6667 199.65C63.9185 199.888 64.0444 200.206 64.0444 200.604ZM62.5435 199.869C62.2785 199.869 62.03 199.925 61.7981 200.037C61.5661 200.144 61.3574 200.289 61.1719 200.475C60.9863 200.66 60.824 200.876 60.6848 201.121C60.5523 201.366 60.4529 201.624 60.3867 201.896C60.9499 201.883 61.4237 201.846 61.808 201.787C62.1923 201.727 62.5004 201.644 62.7324 201.538C62.9709 201.432 63.1399 201.306 63.2393 201.161C63.3387 201.008 63.3884 200.836 63.3884 200.644C63.3884 200.385 63.3088 200.193 63.1498 200.067C62.9974 199.935 62.7953 199.869 62.5435 199.869ZM65.8959 197.891L66.5718 197.771L66.1841 199.401H67.9931L67.8639 199.958H66.045L65.4387 202.473C65.4055 202.592 65.3757 202.721 65.3492 202.86C65.3293 202.993 65.3194 203.125 65.3194 203.258C65.3194 203.556 65.3923 203.765 65.5381 203.884C65.6838 204.003 65.8661 204.063 66.0847 204.063C66.2968 204.063 66.479 204.04 66.6314 203.993C66.7904 203.947 66.9561 203.884 67.1284 203.805L67.188 204.391C67.0091 204.464 66.807 204.527 66.5817 204.58C66.363 204.633 66.1444 204.659 65.9257 204.659C65.7534 204.659 65.5911 204.639 65.4387 204.6C65.2863 204.56 65.1504 204.494 65.0312 204.401C64.9185 204.308 64.8257 204.186 64.7528 204.033C64.6866 203.881 64.6535 203.689 64.6535 203.457C64.6535 203.172 64.6998 202.844 64.7926 202.473L65.8959 197.891Z" fill="#414652" fill-opacity="0.6"/>
<line x1="7" y1="188.484" x2="333.474" y2="188.484" stroke="black" stroke-width="0.765102" stroke-dasharray="6.12 6.12"/>
<path d="M21.8738 142.104C23.0824 142.104 23.6867 141.69 23.6867 140.863C23.6867 140.609 23.6311 140.394 23.5197 140.219C23.4164 140.036 23.2732 139.881 23.0904 139.754C22.9075 139.619 22.6968 139.504 22.4582 139.408C22.2276 139.313 21.9811 139.217 21.7187 139.122C21.4166 139.019 21.1303 138.903 20.86 138.776C20.5896 138.641 20.355 138.486 20.1562 138.311C19.9575 138.128 19.7984 137.913 19.6792 137.667C19.5678 137.42 19.5122 137.122 19.5122 136.772C19.5122 136.049 19.7587 135.484 20.2517 135.079C20.7447 134.673 21.4245 134.47 22.2912 134.47C22.7922 134.47 23.2454 134.526 23.6509 134.637C24.0644 134.741 24.3666 134.856 24.5574 134.983L24.1877 135.925C24.0207 135.822 23.7702 135.723 23.4362 135.627C23.1102 135.524 22.7286 135.472 22.2912 135.472C22.0686 135.472 21.8618 135.496 21.671 135.544C21.4802 135.591 21.3132 135.663 21.1701 135.758C21.0269 135.854 20.9116 135.977 20.8242 136.128C20.7447 136.271 20.7049 136.442 20.7049 136.641C20.7049 136.864 20.7486 137.051 20.8361 137.202C20.9236 137.353 21.0468 137.488 21.2058 137.607C21.3649 137.719 21.5478 137.822 21.7545 137.917C21.9692 138.013 22.2038 138.108 22.4582 138.204C22.816 138.347 23.142 138.49 23.4362 138.633C23.7384 138.776 23.9968 138.947 24.2115 139.146C24.4342 139.345 24.6051 139.583 24.7244 139.861C24.8437 140.132 24.9033 140.462 24.9033 140.851C24.9033 141.575 24.6369 142.132 24.1042 142.521C23.5794 142.911 22.8359 143.106 21.8738 143.106C21.5478 143.106 21.2456 143.082 20.9673 143.034C20.6969 142.994 20.4544 142.947 20.2397 142.891C20.025 142.827 19.8382 142.764 19.6792 142.7C19.5281 142.629 19.4088 142.569 19.3213 142.521L19.6672 141.567C19.8501 141.67 20.1284 141.786 20.5021 141.913C20.8759 142.04 21.3331 142.104 21.8738 142.104ZM27.2676 136.725H29.6173V137.655H27.2676V140.517C27.2676 140.828 27.2915 141.086 27.3392 141.293C27.3869 141.492 27.4584 141.651 27.5539 141.77C27.6493 141.881 27.7685 141.961 27.9117 142.008C28.0548 142.056 28.2218 142.08 28.4126 142.08C28.7466 142.08 29.013 142.044 29.2117 141.973C29.4185 141.893 29.5616 141.837 29.6411 141.806L29.8558 142.724C29.7445 142.78 29.5497 142.847 29.2714 142.927C28.9931 143.014 28.675 143.058 28.3172 143.058C27.8958 143.058 27.5459 143.006 27.2676 142.903C26.9972 142.792 26.7786 142.629 26.6116 142.414C26.4446 142.199 26.3253 141.937 26.2538 141.627C26.1902 141.309 26.1584 140.943 26.1584 140.529V134.995L27.2676 134.804V136.725ZM33.128 142.128C33.3904 142.128 33.621 142.124 33.8198 142.116C34.0265 142.1 34.1975 142.076 34.3326 142.044V140.195C34.2531 140.156 34.1219 140.124 33.939 140.1C33.7641 140.068 33.5494 140.052 33.295 140.052C33.128 140.052 32.9491 140.064 32.7582 140.088C32.5754 140.112 32.4044 140.164 32.2454 140.243C32.0943 140.315 31.9671 140.418 31.8637 140.553C31.7603 140.68 31.7086 140.851 31.7086 141.066C31.7086 141.464 31.8359 141.742 32.0903 141.901C32.3448 142.052 32.6907 142.128 33.128 142.128ZM33.0326 136.57C33.4779 136.57 33.8516 136.629 34.1537 136.748C34.4638 136.86 34.7103 137.023 34.8932 137.237C35.0841 137.444 35.2192 137.695 35.2988 137.989C35.3783 138.275 35.418 138.593 35.418 138.943V142.819C35.3226 142.835 35.1874 142.859 35.0125 142.891C34.8455 142.915 34.6547 142.939 34.44 142.963C34.2253 142.986 33.9907 143.006 33.7363 143.022C33.4898 143.046 33.2433 143.058 32.9968 143.058C32.6469 143.058 32.3249 143.022 32.0307 142.951C31.7365 142.879 31.482 142.768 31.2673 142.617C31.0526 142.458 30.8857 142.251 30.7664 141.996C30.6471 141.742 30.5875 141.436 30.5875 141.078C30.5875 140.736 30.6551 140.442 30.7902 140.195C30.9334 139.949 31.1242 139.75 31.3628 139.599C31.6013 139.448 31.8796 139.337 32.1977 139.265C32.5157 139.194 32.8497 139.158 33.1996 139.158C33.3109 139.158 33.4262 139.166 33.5454 139.182C33.6647 139.19 33.776 139.205 33.8794 139.229C33.9907 139.245 34.0861 139.261 34.1657 139.277C34.2452 139.293 34.3008 139.305 34.3326 139.313V139.003C34.3326 138.82 34.3128 138.641 34.273 138.466C34.2333 138.283 34.1617 138.124 34.0583 137.989C33.9549 137.846 33.8118 137.734 33.6289 137.655C33.454 137.567 33.2234 137.524 32.9372 137.524C32.5714 137.524 32.2493 137.552 31.971 137.607C31.7007 137.655 31.4979 137.707 31.3628 137.762L31.2316 136.844C31.3747 136.78 31.6132 136.721 31.9472 136.665C32.2812 136.601 32.6429 136.57 33.0326 136.57ZM39.5504 136.593C39.6458 136.593 39.7531 136.601 39.8724 136.617C39.9996 136.625 40.1229 136.641 40.2421 136.665C40.3614 136.681 40.4688 136.701 40.5642 136.725C40.6676 136.74 40.7431 136.756 40.7908 136.772L40.6 137.738C40.5125 137.707 40.3654 137.671 40.1587 137.631C39.9599 137.583 39.7014 137.559 39.3834 137.559C39.1766 137.559 38.9699 137.583 38.7632 137.631C38.5644 137.671 38.4332 137.699 38.3696 137.715V142.927H37.2603V136.987C37.5227 136.892 37.8487 136.804 38.2384 136.725C38.628 136.637 39.0653 136.593 39.5504 136.593ZM42.8989 136.725H45.2485V137.655H42.8989V140.517C42.8989 140.828 42.9227 141.086 42.9704 141.293C43.0181 141.492 43.0897 141.651 43.1851 141.77C43.2805 141.881 43.3998 141.961 43.5429 142.008C43.6861 142.056 43.853 142.08 44.0439 142.08C44.3778 142.08 44.6442 142.044 44.843 141.973C45.0497 141.893 45.1929 141.837 45.2724 141.806L45.4871 142.724C45.3757 142.78 45.1809 142.847 44.9026 142.927C44.6243 143.014 44.3063 143.058 43.9485 143.058C43.527 143.058 43.1772 143.006 42.8989 142.903C42.6285 142.792 42.4098 142.629 42.2429 142.414C42.0759 142.199 41.9566 141.937 41.885 141.627C41.8214 141.309 41.7896 140.943 41.7896 140.529V134.995L42.8989 134.804V136.725Z" fill="#414652"/>
<path d="M49.2429 157.769C49.2429 162.16 45.6829 165.72 41.2914 165.72C36.8999 165.72 33.3398 162.16 33.3398 157.769C33.3398 153.377 36.8999 149.817 41.2914 149.817C45.6829 149.817 49.2429 153.377 49.2429 157.769Z" fill="#FF444F"/>
<path d="M276.358 162.741C276.358 167.132 272.798 170.692 268.407 170.692C264.015 170.692 260.455 167.132 260.455 162.741C260.455 158.349 264.015 154.789 268.407 154.789C272.798 154.789 276.358 158.349 276.358 162.741Z" fill="#FF444F"/>
<path d="M279.371 153.861V145.596H284.417V146.586H280.528V149.043H283.987V150.009H280.528V152.871H284.715V153.861H279.371ZM286.114 147.838C286.368 147.774 286.706 147.707 287.128 147.635C287.549 147.564 288.034 147.528 288.583 147.528C289.076 147.528 289.485 147.6 289.811 147.743C290.137 147.878 290.396 148.073 290.587 148.327C290.785 148.574 290.924 148.872 291.004 149.222C291.084 149.571 291.123 149.957 291.123 150.379V153.861H290.014V150.617C290.014 150.235 289.986 149.909 289.931 149.639C289.883 149.369 289.799 149.15 289.68 148.983C289.561 148.816 289.402 148.697 289.203 148.625C289.004 148.546 288.758 148.506 288.463 148.506C288.344 148.506 288.221 148.51 288.094 148.518C287.967 148.526 287.843 148.538 287.724 148.554C287.613 148.562 287.509 148.574 287.414 148.589C287.326 148.605 287.263 148.617 287.223 148.625V153.861H286.114V147.838ZM296.97 148.971C296.835 148.86 296.64 148.752 296.386 148.649C296.131 148.546 295.853 148.494 295.551 148.494C295.233 148.494 294.958 148.554 294.728 148.673C294.505 148.784 294.322 148.943 294.179 149.15C294.036 149.349 293.933 149.587 293.869 149.866C293.806 150.144 293.774 150.442 293.774 150.76C293.774 151.484 293.953 152.044 294.31 152.442C294.668 152.832 295.145 153.026 295.742 153.026C296.044 153.026 296.294 153.014 296.493 152.991C296.7 152.959 296.859 152.927 296.97 152.895V148.971ZM296.97 144.797L298.079 144.606V153.682C297.825 153.754 297.499 153.826 297.101 153.897C296.704 153.969 296.247 154.004 295.73 154.004C295.253 154.004 294.823 153.929 294.442 153.778C294.06 153.627 293.734 153.412 293.464 153.134C293.193 152.855 292.983 152.518 292.831 152.12C292.688 151.714 292.617 151.261 292.617 150.76C292.617 150.283 292.676 149.846 292.796 149.448C292.923 149.051 293.106 148.709 293.344 148.422C293.583 148.136 293.873 147.914 294.215 147.755C294.565 147.596 294.962 147.516 295.408 147.516C295.766 147.516 296.08 147.564 296.35 147.659C296.628 147.755 296.835 147.846 296.97 147.933V144.797Z" fill="#414652"/>
<path d="M171.994 112.049C171.994 114.793 169.769 117.018 167.024 117.018C164.28 117.018 162.055 114.793 162.055 112.049C162.055 109.304 164.28 107.079 167.024 107.079C169.769 107.079 171.994 109.304 171.994 112.049Z" fill="#53B9FF"/>
<path d="M198.83 190.57C198.83 193.315 196.605 195.54 193.86 195.54C191.116 195.54 188.891 193.315 188.891 190.57C188.891 187.826 191.116 185.601 193.86 185.601C196.605 185.601 198.83 187.826 198.83 190.57Z" fill="#53B9FF"/>
<path d="M157.573 93.2878H158.248L157.513 96.2795H161.081L161.797 93.2878H162.473L160.833 100.176H160.157L160.952 96.866H157.394L156.599 100.176H155.923L157.573 93.2878ZM163.678 95.0371H164.324L163.082 100.176H162.436L163.678 95.0371ZM163.936 93.5363C163.936 93.364 163.983 93.2348 164.076 93.1486C164.175 93.0559 164.281 93.0095 164.394 93.0095C164.526 93.0095 164.629 93.0525 164.702 93.1387C164.775 93.2182 164.811 93.3242 164.811 93.4568C164.811 93.6158 164.758 93.7384 164.652 93.8245C164.546 93.9106 164.44 93.9537 164.334 93.9537C164.202 93.9537 164.102 93.9173 164.036 93.8444C163.97 93.7649 163.936 93.6622 163.936 93.5363ZM168.84 95.5838C168.628 95.5308 168.423 95.5043 168.224 95.5043C167.767 95.5043 167.369 95.5838 167.031 95.7428C166.7 95.9018 166.425 96.1073 166.206 96.3591C165.988 96.6042 165.825 96.8792 165.719 97.184C165.613 97.4822 165.56 97.7704 165.56 98.0488C165.56 98.2277 165.577 98.3999 165.61 98.5656C165.643 98.7246 165.699 98.8638 165.779 98.9831C165.858 99.1023 165.968 99.1984 166.107 99.2713C166.246 99.3376 166.425 99.3707 166.644 99.3707C166.869 99.3707 167.101 99.3309 167.339 99.2514C167.584 99.1653 167.816 99.0526 168.035 98.9135L168.84 95.5838ZM164.387 101.06C164.526 101.173 164.725 101.266 164.984 101.339C165.249 101.412 165.51 101.448 165.769 101.448C166.378 101.448 166.846 101.309 167.17 101.031C167.502 100.752 167.717 100.358 167.816 99.8478L167.866 99.5894C167.667 99.7153 167.455 99.8113 167.23 99.8776C167.005 99.9372 166.779 99.9671 166.554 99.9671C166.269 99.9671 166.021 99.9207 165.809 99.8279C165.603 99.7351 165.434 99.6092 165.302 99.4502C165.169 99.2845 165.07 99.0957 165.004 98.8837C164.937 98.665 164.904 98.4331 164.904 98.1879C164.904 97.8102 164.97 97.4292 165.103 97.0449C165.242 96.6539 165.454 96.3027 165.739 95.9913C166.024 95.6732 166.378 95.4148 166.803 95.216C167.233 95.0172 167.743 94.9178 168.333 94.9178C168.572 94.9178 168.797 94.9443 169.009 94.9974C169.221 95.0437 169.41 95.1133 169.576 95.2061L168.462 99.8378C168.396 100.116 168.31 100.388 168.204 100.653C168.098 100.918 167.942 101.153 167.737 101.359C167.531 101.564 167.256 101.73 166.912 101.856C166.574 101.981 166.137 102.044 165.6 102.044C165.494 102.044 165.375 102.034 165.242 102.015C165.11 102.001 164.974 101.978 164.835 101.945C164.702 101.912 164.573 101.872 164.447 101.826C164.321 101.786 164.208 101.736 164.109 101.677L164.387 101.06ZM170.633 100.176H169.987L171.796 92.5821L172.472 92.4628L171.816 95.1763C172.234 95.004 172.628 94.9178 172.999 94.9178C173.224 94.9178 173.433 94.951 173.625 95.0172C173.817 95.0835 173.986 95.1829 174.132 95.3154C174.278 95.4479 174.39 95.6169 174.47 95.8223C174.556 96.0211 174.599 96.2597 174.599 96.538C174.599 96.7102 174.586 96.8892 174.559 97.0747C174.533 97.2536 174.496 97.4358 174.45 97.6214L173.834 100.176H173.188L173.734 97.8897C173.787 97.6711 173.837 97.4491 173.883 97.2238C173.93 96.9985 173.953 96.7831 173.953 96.5777C173.953 96.3789 173.92 96.2133 173.854 96.0808C173.794 95.9416 173.711 95.8323 173.605 95.7528C173.506 95.6666 173.387 95.607 173.247 95.5738C173.108 95.5341 172.962 95.5142 172.81 95.5142C172.618 95.5142 172.422 95.5341 172.224 95.5738C172.031 95.6136 171.849 95.6633 171.677 95.7229L170.633 100.176Z" fill="black"/>
<path d="M182.41 199.639H183.086L181.575 205.951H184.627L184.498 206.527H180.77L182.41 199.639ZM185.827 204.877C185.827 205.268 185.936 205.563 186.155 205.762C186.373 205.961 186.635 206.06 186.94 206.06C187.179 206.06 187.424 206.001 187.676 205.881C187.927 205.755 188.156 205.57 188.361 205.325C188.573 205.073 188.746 204.758 188.878 204.38C189.017 204.003 189.087 203.559 189.087 203.049C189.087 202.658 188.978 202.363 188.759 202.164C188.54 201.965 188.279 201.866 187.974 201.866C187.735 201.866 187.49 201.929 187.238 202.055C186.986 202.174 186.754 202.359 186.542 202.611C186.337 202.856 186.165 203.168 186.026 203.546C185.893 203.923 185.827 204.367 185.827 204.877ZM189.743 202.999C189.743 203.622 189.653 204.162 189.475 204.619C189.302 205.076 189.077 205.457 188.799 205.762C188.527 206.06 188.222 206.282 187.884 206.428C187.553 206.574 187.225 206.647 186.9 206.647C186.668 206.647 186.446 206.61 186.234 206.537C186.029 206.464 185.847 206.355 185.688 206.209C185.529 206.064 185.403 205.885 185.31 205.673C185.217 205.454 185.171 205.202 185.171 204.917C185.171 204.294 185.257 203.754 185.429 203.297C185.608 202.84 185.833 202.462 186.105 202.164C186.383 201.866 186.688 201.644 187.02 201.498C187.357 201.352 187.689 201.279 188.013 201.279C188.245 201.279 188.464 201.316 188.669 201.389C188.882 201.462 189.067 201.571 189.226 201.717C189.385 201.862 189.511 202.045 189.604 202.263C189.697 202.475 189.743 202.721 189.743 202.999ZM191.874 206.527H191.198C191.059 205.798 190.946 205 190.86 204.132C190.78 203.264 190.734 202.349 190.721 201.389H191.357C191.363 201.74 191.377 202.124 191.397 202.542C191.416 202.952 191.443 203.363 191.476 203.774C191.509 204.185 191.546 204.573 191.585 204.937C191.625 205.301 191.671 205.606 191.725 205.851C191.937 205.553 192.152 205.222 192.371 204.858C192.596 204.493 192.808 204.115 193.007 203.724C193.212 203.327 193.401 202.929 193.573 202.532C193.752 202.134 193.901 201.753 194.021 201.389H194.686C194.686 201.713 194.693 202.068 194.706 202.452C194.726 202.837 194.749 203.227 194.776 203.625C194.802 204.023 194.832 204.414 194.865 204.798C194.905 205.182 194.948 205.533 194.995 205.851C195.154 205.673 195.346 205.404 195.571 205.046C195.803 204.682 196.035 204.288 196.267 203.864C196.499 203.433 196.714 202.999 196.913 202.562C197.118 202.124 197.271 201.733 197.37 201.389H198.006C197.854 201.879 197.655 202.383 197.41 202.899C197.165 203.41 196.903 203.897 196.625 204.361C196.353 204.818 196.081 205.239 195.81 205.623C195.538 206.001 195.299 206.302 195.094 206.527H194.418C194.352 205.944 194.289 205.315 194.229 204.639C194.17 203.963 194.133 203.297 194.12 202.641C193.987 202.952 193.832 203.287 193.653 203.645C193.48 203.996 193.295 204.347 193.096 204.698C192.897 205.043 192.692 205.374 192.48 205.692C192.274 206.01 192.072 206.289 191.874 206.527Z" fill="black"/>
<defs>
<filter id="filter0_d_2591_35753" x="0.0977015" y="0.175427" width="341.805" height="227.502" filterUnits="userSpaceOnUse" color-interpolation-filters="sRGB">
<feFlood flood-opacity="0" result="BackgroundImageFix"/>
<feColorMatrix in="SourceAlpha" type="matrix" values="0 0 0 0 0 0 0 0 0 0 0 0 0 0 0 0 0 0 127 0" result="hardAlpha"/>
<feOffset dy="1.38046"/>
<feGaussianBlur stdDeviation="3.45115"/>
<feComposite in2="hardAlpha" operator="out"/>
<feColorMatrix type="matrix" values="0 0 0 0 0 0 0 0 0 0 0 0 0 0 0 0 0 0 0.1 0"/>
<feBlend mode="normal" in2="BackgroundImageFix" result="effect1_dropShadow_2591_35753"/>
<feBlend mode="normal" in="SourceGraphic" in2="effect1_dropShadow_2591_35753" result="shape"/>
</filter>
</defs>
</svg>
