<svg width="342" height="228" viewBox="0 0 342 228" fill="none" xmlns="http://www.w3.org/2000/svg">
<g filter="url(#filter0_d_2591_35718)">
<rect x="7" y="6" width="328" height="213.697" rx="4.14138" fill="white"/>
</g>
<path d="M40.627 26.9105H42.7978V36.5537H40.627V32.4627H36.9812V36.5537H34.8105V26.9105H36.9812V30.598H40.627V26.9105ZM46.9636 36.5537H44.8903V29.2343H46.9636V36.5537ZM47.1584 27.1192C47.1584 27.4996 47.0332 27.8011 46.7827 28.0237C46.5415 28.2371 46.254 28.3438 45.92 28.3438C45.586 28.3438 45.2938 28.2371 45.0433 28.0237C44.8021 27.8011 44.6815 27.4996 44.6815 27.1192C44.6815 26.7389 44.8021 26.442 45.0433 26.2287C45.2938 26.006 45.586 25.8947 45.92 25.8947C46.254 25.8947 46.5415 26.006 46.7827 26.2287C47.0332 26.442 47.1584 26.7389 47.1584 27.1192ZM50.6798 32.6575C50.6798 33.8171 51.1483 34.3969 52.0853 34.3969C52.2986 34.3969 52.4981 34.369 52.6836 34.3134C52.8692 34.2577 53.0269 34.1928 53.1567 34.1186V30.8068C53.0547 30.7882 52.9341 30.7743 52.7949 30.765C52.6558 30.7465 52.4934 30.7372 52.3079 30.7372C51.7606 30.7372 51.3524 30.9181 51.0834 31.2799C50.8144 31.6417 50.6798 32.1009 50.6798 32.6575ZM55.2301 35.6353C55.2301 36.832 54.924 37.7179 54.3117 38.2931C53.7087 38.8775 52.7717 39.1698 51.5008 39.1698C51.0555 39.1698 50.6103 39.128 50.165 39.0445C49.7197 38.9703 49.3069 38.8683 48.9265 38.7384L49.2883 36.999C49.613 37.1289 49.9516 37.2309 50.3041 37.3051C50.6659 37.3793 51.0741 37.4165 51.5287 37.4165C52.1224 37.4165 52.5398 37.2866 52.781 37.0268C53.0315 36.7671 53.1567 36.4331 53.1567 36.0249V35.7605C52.9341 35.8626 52.7022 35.9414 52.461 35.9971C52.2291 36.0435 51.9739 36.0667 51.6956 36.0667C50.6845 36.0667 49.9099 35.7698 49.3718 35.1761C48.8338 34.5731 48.5647 33.7336 48.5647 32.6575C48.5647 32.1194 48.6482 31.6324 48.8152 31.1964C48.9822 30.7511 49.2234 30.3707 49.5388 30.0553C49.8635 29.7399 50.2577 29.4987 50.7216 29.3317C51.1854 29.1555 51.7096 29.0674 52.294 29.0674C52.5445 29.0674 52.7996 29.0813 53.0593 29.1091C53.3284 29.1277 53.5927 29.1555 53.8525 29.1926C54.1122 29.2297 54.3581 29.2761 54.59 29.3317C54.8312 29.3781 55.0446 29.4292 55.2301 29.4848V35.6353ZM57.1747 36.5537V26.0895L59.2481 25.7556V29.2622C59.3872 29.2158 59.5635 29.174 59.7769 29.1369C59.9995 29.0906 60.2129 29.0674 60.417 29.0674C61.0107 29.0674 61.5023 29.1508 61.892 29.3178C62.2909 29.4755 62.6063 29.7028 62.8382 29.9997C63.0794 30.2965 63.2464 30.649 63.3391 31.0572C63.4412 31.4654 63.4922 31.92 63.4922 32.4209V36.5537H61.4189V32.6714C61.4189 32.0035 61.3307 31.5303 61.1545 31.252C60.9875 30.9737 60.6721 30.8346 60.2082 30.8346C60.0227 30.8346 59.8464 30.8531 59.6795 30.8902C59.5218 30.9181 59.378 30.9505 59.2481 30.9877V36.5537H57.1747ZM64.7427 31.4608H68.7781V33.3393H64.7427V31.4608ZM74.906 36.7485C73.3382 36.7485 72.1415 36.3125 71.3159 35.4405C70.4995 34.5685 70.0914 33.33 70.0914 31.7252C70.0914 30.9274 70.2166 30.2177 70.4671 29.5961C70.7175 28.9653 71.0608 28.4365 71.4968 28.0098C71.9328 27.5738 72.4523 27.2445 73.0553 27.0218C73.6583 26.7992 74.3123 26.6879 75.0173 26.6879C75.4255 26.6879 75.7966 26.7203 76.1305 26.7853C76.4645 26.8409 76.7567 26.9105 77.0072 26.994C77.2577 27.0682 77.4664 27.1471 77.6334 27.2306C77.8004 27.3141 77.921 27.379 77.9952 27.4254L77.369 29.1787C77.0721 29.021 76.7243 28.8865 76.3254 28.7751C75.9357 28.6638 75.4904 28.6082 74.9895 28.6082C74.6555 28.6082 74.3262 28.6638 74.0015 28.7751C73.6861 28.8865 73.4032 29.0674 73.1527 29.3178C72.9115 29.559 72.7167 29.8744 72.5683 30.2641C72.4198 30.6537 72.3456 31.1268 72.3456 31.6834C72.3456 32.1287 72.392 32.5461 72.4848 32.9358C72.5868 33.3161 72.7445 33.6454 72.9579 33.9237C73.1805 34.2021 73.4681 34.4247 73.8206 34.5917C74.1731 34.7494 74.5999 34.8282 75.1008 34.8282C75.4162 34.8282 75.6992 34.8097 75.9496 34.7726C76.2001 34.7355 76.4228 34.6937 76.6176 34.6473C76.8124 34.5917 76.984 34.5314 77.1324 34.4664C77.2809 34.4015 77.4154 34.3412 77.536 34.2855L78.1343 36.0249C77.8282 36.2105 77.3968 36.3775 76.8402 36.5259C76.2836 36.6743 75.6389 36.7485 74.906 36.7485ZM82.315 36.6929C81.712 36.6836 81.2203 36.6186 80.84 36.4981C80.4689 36.3775 80.172 36.2105 79.9494 35.9971C79.736 35.7745 79.5876 35.5101 79.5041 35.2039C79.4299 34.8885 79.3928 34.536 79.3928 34.1464V26.0895L81.4661 25.7556V33.7289C81.4661 33.9145 81.48 34.0815 81.5079 34.2299C81.5357 34.3783 81.5867 34.5035 81.6609 34.6056C81.7444 34.7076 81.8604 34.7911 82.0088 34.8561C82.1573 34.921 82.3567 34.9627 82.6072 34.9813L82.315 36.6929ZM90.6419 32.8801C90.6419 33.4553 90.5584 33.984 90.3914 34.4664C90.2244 34.9396 89.9832 35.3477 89.6678 35.691C89.3524 36.0249 88.9721 36.2847 88.5268 36.4702C88.0908 36.6558 87.5991 36.7485 87.0518 36.7485C86.5137 36.7485 86.022 36.6558 85.5768 36.4702C85.1407 36.2847 84.765 36.0249 84.4496 35.691C84.1342 35.3477 83.8884 34.9396 83.7121 34.4664C83.5359 33.984 83.4477 33.4553 83.4477 32.8801C83.4477 32.305 83.5359 31.7808 83.7121 31.3077C83.8977 30.8346 84.1481 30.431 84.4635 30.0971C84.7882 29.7631 85.1686 29.5034 85.6046 29.3178C86.0499 29.1323 86.5323 29.0395 87.0518 29.0395C87.5805 29.0395 88.0629 29.1323 88.4989 29.3178C88.9442 29.5034 89.3246 29.7631 89.64 30.0971C89.9554 30.431 90.2012 30.8346 90.3775 31.3077C90.5537 31.7808 90.6419 32.305 90.6419 32.8801ZM88.5268 32.8801C88.5268 32.24 88.3969 31.7391 88.1371 31.3773C87.8867 31.0062 87.5249 30.8207 87.0518 30.8207C86.5786 30.8207 86.2122 31.0062 85.9525 31.3773C85.6927 31.7391 85.5628 32.24 85.5628 32.8801C85.5628 33.5202 85.6927 34.0304 85.9525 34.4108C86.2122 34.7818 86.5786 34.9674 87.0518 34.9674C87.5249 34.9674 87.8867 34.7818 88.1371 34.4108C88.3969 34.0304 88.5268 33.5202 88.5268 32.8801ZM94.3492 35.0648C94.7295 35.0648 94.9985 35.0277 95.1563 34.9535C95.314 34.8793 95.3928 34.7355 95.3928 34.5221C95.3928 34.3551 95.2908 34.2113 95.0867 34.0907C94.8826 33.9609 94.5718 33.8171 94.1544 33.6594C93.8297 33.5388 93.5328 33.4135 93.2638 33.2837C93.004 33.1538 92.7814 33.0007 92.5959 32.8245C92.4103 32.6389 92.2665 32.4209 92.1645 32.1704C92.0625 31.92 92.0114 31.6185 92.0114 31.266C92.0114 30.5795 92.2665 30.0368 92.7768 29.6379C93.287 29.239 93.9874 29.0395 94.878 29.0395C95.3232 29.0395 95.75 29.0813 96.1581 29.1648C96.5663 29.239 96.891 29.3225 97.1322 29.4152L96.7704 31.0294C96.5292 30.9459 96.2648 30.8717 95.9772 30.8068C95.6989 30.7418 95.3835 30.7093 95.031 30.7093C94.3816 30.7093 94.057 30.8902 94.057 31.252C94.057 31.3355 94.0709 31.4097 94.0987 31.4747C94.1265 31.5396 94.1822 31.6046 94.2657 31.6695C94.3492 31.7252 94.4605 31.7901 94.5996 31.8643C94.7481 31.9292 94.9336 32.0035 95.1563 32.0869C95.6108 32.2539 95.9865 32.4209 96.2834 32.5879C96.5802 32.7456 96.8122 32.9219 96.9791 33.1167C97.1554 33.3022 97.276 33.5109 97.3409 33.7429C97.4151 33.9748 97.4523 34.2438 97.4523 34.5499C97.4523 35.2735 97.1786 35.8208 96.6313 36.1919C96.0932 36.563 95.3279 36.7485 94.3353 36.7485C93.6859 36.7485 93.1432 36.6929 92.7072 36.5815C92.2805 36.4702 91.9836 36.3775 91.8166 36.3032L92.1645 34.6195C92.517 34.7587 92.8788 34.87 93.2499 34.9535C93.6209 35.0277 93.9874 35.0648 94.3492 35.0648ZM98.6538 32.9497C98.6538 32.3003 98.7513 31.7344 98.9461 31.252C99.1502 30.7604 99.4145 30.3522 99.7392 30.0275C100.064 29.7028 100.435 29.457 100.852 29.29C101.279 29.123 101.715 29.0395 102.16 29.0395C103.199 29.0395 104.02 29.3596 104.623 29.9997C105.226 30.6305 105.528 31.5628 105.528 32.7966C105.528 32.9172 105.523 33.0517 105.514 33.2002C105.505 33.3393 105.495 33.4645 105.486 33.5759H100.783C100.829 34.0026 101.029 34.3412 101.381 34.5917C101.734 34.8421 102.207 34.9674 102.801 34.9674C103.181 34.9674 103.552 34.9349 103.914 34.87C104.285 34.7958 104.586 34.7076 104.818 34.6056L105.097 36.2893C104.985 36.345 104.837 36.4006 104.651 36.4563C104.466 36.512 104.257 36.5583 104.025 36.5955C103.802 36.6418 103.561 36.6789 103.302 36.7068C103.042 36.7346 102.782 36.7485 102.522 36.7485C101.864 36.7485 101.288 36.6511 100.797 36.4563C100.314 36.2615 99.9108 35.9971 99.5862 35.6631C99.2708 35.3199 99.0342 34.9164 98.8765 34.4525C98.7281 33.9887 98.6538 33.4877 98.6538 32.9497ZM103.524 32.1565C103.515 31.9803 103.482 31.8086 103.427 31.6417C103.38 31.4747 103.302 31.3263 103.19 31.1964C103.088 31.0665 102.954 30.9598 102.787 30.8763C102.629 30.7928 102.429 30.7511 102.188 30.7511C101.956 30.7511 101.757 30.7928 101.59 30.8763C101.423 30.9505 101.284 31.0526 101.172 31.1825C101.061 31.3123 100.973 31.4654 100.908 31.6417C100.852 31.8086 100.811 31.9803 100.783 32.1565H103.524Z" fill="#414652"/>
<rect x="7.51245" y="56.8835" width="326.975" height="162.301" stroke="#ECECEC" stroke-width="1.0249"/>
<path d="M7 110.161H335" stroke="#ECECEC" stroke-width="1.0249"/>
<path d="M7 83.7549H335" stroke="#ECECEC" stroke-width="1.0249"/>
<path d="M7 136.566H335" stroke="#ECECEC" stroke-width="1.0249"/>
<path d="M7 162.973H335" stroke="#ECECEC" stroke-width="1.0249"/>
<path d="M7 189.379H335" stroke="#ECECEC" stroke-width="1.0249"/>
<path d="M62.1777 56.3711L62.1777 219.697" stroke="#ECECEC" stroke-width="1.0249"/>
<path d="M116.334 56.3711L116.334 219.697" stroke="#ECECEC" stroke-width="1.0249"/>
<path d="M170.49 56.3711L170.49 219.697" stroke="#ECECEC" stroke-width="1.0249"/>
<path d="M224.646 56.3711L224.646 219.697" stroke="#ECECEC" stroke-width="1.0249"/>
<path d="M278.801 56.3711L278.801 219.697" stroke="#ECECEC" stroke-width="1.0249"/>
<path d="M7 57.1348H335" stroke="#ECECEC" stroke-width="1.5302"/>
<path d="M40.793 161.551L85.5202 144.157L116.829 161.551L166.526 112.351L194.854 187.393L241.569 145.151L269.896 187.393" stroke="#A8A8A8" stroke-width="2.98182"/>
<path d="M271.842 56.3711L271.842 219.697" stroke="#7D7D7D" stroke-width="2.98182"/>
<line x1="7.99414" y1="109.981" x2="334.469" y2="109.981" stroke="black" stroke-width="0.765102" stroke-dasharray="6.12 6.12"/>
<line x1="7" y1="188.786" x2="333.474" y2="188.786" stroke="black" stroke-width="0.765102" stroke-dasharray="6.12 6.12"/>
<path d="M21.8738 142.407C23.0824 142.407 23.6867 141.994 23.6867 141.167C23.6867 140.913 23.6311 140.698 23.5197 140.523C23.4164 140.34 23.2732 140.185 23.0904 140.058C22.9075 139.923 22.6968 139.807 22.4582 139.712C22.2276 139.617 21.9811 139.521 21.7187 139.426C21.4166 139.322 21.1303 139.207 20.86 139.08C20.5896 138.945 20.355 138.79 20.1562 138.615C19.9575 138.432 19.7984 138.217 19.6792 137.971C19.5678 137.724 19.5122 137.426 19.5122 137.076C19.5122 136.352 19.7587 135.788 20.2517 135.382C20.7447 134.977 21.4245 134.774 22.2912 134.774C22.7922 134.774 23.2454 134.83 23.6509 134.941C24.0644 135.044 24.3666 135.16 24.5574 135.287L24.1877 136.229C24.0207 136.126 23.7702 136.026 23.4362 135.931C23.1102 135.828 22.7286 135.776 22.2912 135.776C22.0686 135.776 21.8618 135.8 21.671 135.847C21.4802 135.895 21.3132 135.967 21.1701 136.062C21.0269 136.158 20.9116 136.281 20.8242 136.432C20.7447 136.575 20.7049 136.746 20.7049 136.945C20.7049 137.167 20.7486 137.354 20.8361 137.505C20.9236 137.656 21.0468 137.792 21.2058 137.911C21.3649 138.022 21.5478 138.126 21.7545 138.221C21.9692 138.316 22.2038 138.412 22.4582 138.507C22.816 138.65 23.142 138.794 23.4362 138.937C23.7384 139.08 23.9968 139.251 24.2115 139.45C24.4342 139.648 24.6051 139.887 24.7244 140.165C24.8437 140.436 24.9033 140.765 24.9033 141.155C24.9033 141.879 24.6369 142.435 24.1042 142.825C23.5794 143.215 22.8359 143.409 21.8738 143.409C21.5478 143.409 21.2456 143.386 20.9673 143.338C20.6969 143.298 20.4544 143.25 20.2397 143.195C20.025 143.131 19.8382 143.067 19.6792 143.004C19.5281 142.932 19.4088 142.873 19.3213 142.825L19.6672 141.871C19.8501 141.974 20.1284 142.089 20.5021 142.217C20.8759 142.344 21.3331 142.407 21.8738 142.407ZM27.2676 137.028H29.6173V137.959H27.2676V140.821C27.2676 141.131 27.2915 141.39 27.3392 141.596C27.3869 141.795 27.4584 141.954 27.5539 142.074C27.6493 142.185 27.7685 142.264 27.9117 142.312C28.0548 142.36 28.2218 142.384 28.4126 142.384C28.7466 142.384 29.013 142.348 29.2117 142.276C29.4185 142.197 29.5616 142.141 29.6411 142.109L29.8558 143.028C29.7445 143.083 29.5497 143.151 29.2714 143.23C28.9931 143.318 28.675 143.362 28.3172 143.362C27.8958 143.362 27.5459 143.31 27.2676 143.207C26.9972 143.095 26.7786 142.932 26.6116 142.718C26.4446 142.503 26.3253 142.241 26.2538 141.93C26.1902 141.612 26.1584 141.247 26.1584 140.833V135.299L27.2676 135.108V137.028ZM33.128 142.431C33.3904 142.431 33.621 142.427 33.8198 142.419C34.0265 142.404 34.1975 142.38 34.3326 142.348V140.499C34.2531 140.459 34.1219 140.428 33.939 140.404C33.7641 140.372 33.5494 140.356 33.295 140.356C33.128 140.356 32.9491 140.368 32.7582 140.392C32.5754 140.416 32.4044 140.467 32.2454 140.547C32.0943 140.618 31.9671 140.722 31.8637 140.857C31.7603 140.984 31.7086 141.155 31.7086 141.37C31.7086 141.767 31.8359 142.046 32.0903 142.205C32.3448 142.356 32.6907 142.431 33.128 142.431ZM33.0326 136.873C33.4779 136.873 33.8516 136.933 34.1537 137.052C34.4638 137.163 34.7103 137.326 34.8932 137.541C35.0841 137.748 35.2192 137.998 35.2988 138.293C35.3783 138.579 35.418 138.897 35.418 139.247V143.123C35.3226 143.139 35.1874 143.163 35.0125 143.195C34.8455 143.219 34.6547 143.242 34.44 143.266C34.2253 143.29 33.9907 143.31 33.7363 143.326C33.4898 143.35 33.2433 143.362 32.9968 143.362C32.6469 143.362 32.3249 143.326 32.0307 143.254C31.7365 143.183 31.482 143.071 31.2673 142.92C31.0526 142.761 30.8857 142.555 30.7664 142.3C30.6471 142.046 30.5875 141.74 30.5875 141.382C30.5875 141.04 30.6551 140.746 30.7902 140.499C30.9334 140.253 31.1242 140.054 31.3628 139.903C31.6013 139.752 31.8796 139.64 32.1977 139.569C32.5157 139.497 32.8497 139.461 33.1996 139.461C33.3109 139.461 33.4262 139.469 33.5454 139.485C33.6647 139.493 33.776 139.509 33.8794 139.533C33.9907 139.549 34.0861 139.565 34.1657 139.581C34.2452 139.597 34.3008 139.609 34.3326 139.617V139.306C34.3326 139.124 34.3128 138.945 34.273 138.77C34.2333 138.587 34.1617 138.428 34.0583 138.293C33.9549 138.149 33.8118 138.038 33.6289 137.959C33.454 137.871 33.2234 137.827 32.9372 137.827C32.5714 137.827 32.2493 137.855 31.971 137.911C31.7007 137.959 31.4979 138.01 31.3628 138.066L31.2316 137.148C31.3747 137.084 31.6132 137.024 31.9472 136.969C32.2812 136.905 32.6429 136.873 33.0326 136.873ZM39.5504 136.897C39.6458 136.897 39.7531 136.905 39.8724 136.921C39.9996 136.929 40.1229 136.945 40.2421 136.969C40.3614 136.985 40.4688 137.004 40.5642 137.028C40.6676 137.044 40.7431 137.06 40.7908 137.076L40.6 138.042C40.5125 138.01 40.3654 137.975 40.1587 137.935C39.9599 137.887 39.7014 137.863 39.3834 137.863C39.1766 137.863 38.9699 137.887 38.7632 137.935C38.5644 137.975 38.4332 138.002 38.3696 138.018V143.23H37.2603V137.291C37.5227 137.195 37.8487 137.108 38.2384 137.028C38.628 136.941 39.0653 136.897 39.5504 136.897ZM42.8989 137.028H45.2485V137.959H42.8989V140.821C42.8989 141.131 42.9227 141.39 42.9704 141.596C43.0181 141.795 43.0897 141.954 43.1851 142.074C43.2805 142.185 43.3998 142.264 43.5429 142.312C43.6861 142.36 43.853 142.384 44.0439 142.384C44.3778 142.384 44.6442 142.348 44.843 142.276C45.0497 142.197 45.1929 142.141 45.2724 142.109L45.4871 143.028C45.3757 143.083 45.1809 143.151 44.9026 143.23C44.6243 143.318 44.3063 143.362 43.9485 143.362C43.527 143.362 43.1772 143.31 42.8989 143.207C42.6285 143.095 42.4098 142.932 42.2429 142.718C42.0759 142.503 41.9566 142.241 41.885 141.93C41.8214 141.612 41.7896 141.247 41.7896 140.833V135.299L42.8989 135.108V137.028Z" fill="#414652"/>
<path d="M49.2429 158.073C49.2429 162.464 45.6829 166.024 41.2914 166.024C36.8999 166.024 33.3398 162.464 33.3398 158.073C33.3398 153.681 36.8999 150.121 41.2914 150.121C45.6829 150.121 49.2429 153.681 49.2429 158.073Z" fill="#FF444F"/>
<path d="M171.994 112.352C171.994 115.096 169.769 117.321 167.024 117.321C164.28 117.321 162.055 115.096 162.055 112.352C162.055 109.607 164.28 107.382 167.024 107.382C169.769 107.382 171.994 109.607 171.994 112.352Z" fill="#53B9FF"/>
<path d="M275.363 186.897C275.363 189.642 273.138 191.867 270.394 191.867C267.649 191.867 265.424 189.642 265.424 186.897C265.424 184.153 267.649 181.928 270.394 181.928C273.138 181.928 275.363 184.153 275.363 186.897Z" fill="#53B9FF"/>
<path d="M157.573 93.5905H158.248L157.513 96.5823H161.081L161.797 93.5905H162.473L160.833 100.479H160.157L160.952 97.1687H157.394L156.599 100.479H155.923L157.573 93.5905ZM163.678 95.3398H164.324L163.082 100.479H162.436L163.678 95.3398ZM163.936 93.839C163.936 93.6667 163.983 93.5375 164.076 93.4514C164.175 93.3586 164.281 93.3122 164.394 93.3122C164.526 93.3122 164.629 93.3553 164.702 93.4414C164.775 93.5209 164.811 93.627 164.811 93.7595C164.811 93.9185 164.758 94.0411 164.652 94.1272C164.546 94.2134 164.44 94.2565 164.334 94.2565C164.202 94.2565 164.102 94.22 164.036 94.1471C163.97 94.0676 163.936 93.9649 163.936 93.839ZM168.84 95.8865C168.628 95.8335 168.423 95.807 168.224 95.807C167.767 95.807 167.369 95.8865 167.031 96.0455C166.7 96.2046 166.425 96.41 166.206 96.6618C165.988 96.907 165.825 97.1819 165.719 97.4868C165.613 97.7849 165.56 98.0732 165.56 98.3515C165.56 98.5304 165.577 98.7027 165.61 98.8683C165.643 99.0274 165.699 99.1665 165.779 99.2858C165.858 99.4051 165.968 99.5011 166.107 99.574C166.246 99.6403 166.425 99.6734 166.644 99.6734C166.869 99.6734 167.101 99.6337 167.339 99.5542C167.584 99.468 167.816 99.3554 168.035 99.2162L168.84 95.8865ZM164.387 101.363C164.526 101.476 164.725 101.569 164.984 101.641C165.249 101.714 165.51 101.751 165.769 101.751C166.378 101.751 166.846 101.612 167.17 101.333C167.502 101.055 167.717 100.661 167.816 100.151L167.866 99.8921C167.667 100.018 167.455 100.114 167.23 100.18C167.005 100.24 166.779 100.27 166.554 100.27C166.269 100.27 166.021 100.223 165.809 100.131C165.603 100.038 165.434 99.912 165.302 99.7529C165.169 99.5873 165.07 99.3984 165.004 99.1864C164.937 98.9677 164.904 98.7358 164.904 98.4906C164.904 98.1129 164.97 97.7319 165.103 97.3476C165.242 96.9567 165.454 96.6055 165.739 96.294C166.024 95.976 166.378 95.7175 166.803 95.5188C167.233 95.32 167.743 95.2206 168.333 95.2206C168.572 95.2206 168.797 95.2471 169.009 95.3001C169.221 95.3465 169.41 95.4161 169.576 95.5088L168.462 100.141C168.396 100.419 168.31 100.691 168.204 100.956C168.098 101.221 167.942 101.456 167.737 101.661C167.531 101.867 167.256 102.032 166.912 102.158C166.574 102.284 166.137 102.347 165.6 102.347C165.494 102.347 165.375 102.337 165.242 102.317C165.11 102.304 164.974 102.281 164.835 102.248C164.702 102.215 164.573 102.175 164.447 102.128C164.321 102.089 164.208 102.039 164.109 101.979L164.387 101.363ZM170.633 100.479H169.987L171.796 92.8848L172.472 92.7655L171.816 95.479C172.234 95.3067 172.628 95.2206 172.999 95.2206C173.224 95.2206 173.433 95.2537 173.625 95.32C173.817 95.3862 173.986 95.4856 174.132 95.6182C174.278 95.7507 174.39 95.9196 174.47 96.1251C174.556 96.3238 174.599 96.5624 174.599 96.8407C174.599 97.013 174.586 97.1919 174.559 97.3774C174.533 97.5563 174.496 97.7386 174.45 97.9241L173.834 100.479H173.188L173.734 98.1925C173.787 97.9738 173.837 97.7518 173.883 97.5265C173.93 97.3012 173.953 97.0859 173.953 96.8805C173.953 96.6817 173.92 96.516 173.854 96.3835C173.794 96.2443 173.711 96.135 173.605 96.0555C173.506 95.9693 173.387 95.9097 173.247 95.8766C173.108 95.8368 172.962 95.8169 172.81 95.8169C172.618 95.8169 172.422 95.8368 172.224 95.8766C172.031 95.9163 171.849 95.966 171.677 96.0257L170.633 100.479Z" fill="black"/>
<path d="M289.149 181.673C288.877 181.819 288.569 181.932 288.225 182.011C287.88 182.091 287.539 182.131 287.201 182.131C286.83 182.131 286.488 182.081 286.177 181.981C285.872 181.875 285.607 181.716 285.382 181.504C285.163 181.286 284.991 181.011 284.865 180.679C284.746 180.341 284.686 179.937 284.686 179.467C284.686 178.758 284.795 178.125 285.014 177.568C285.233 177.005 285.528 176.531 285.899 176.147C286.27 175.756 286.697 175.458 287.181 175.252C287.665 175.047 288.172 174.944 288.702 174.944C289.013 174.944 289.301 174.977 289.566 175.044C289.838 175.11 290.113 175.219 290.391 175.372L290.083 175.988C289.606 175.696 289.099 175.551 288.562 175.551C288.145 175.551 287.744 175.643 287.36 175.829C286.982 176.008 286.647 176.266 286.356 176.604C286.064 176.942 285.832 177.353 285.66 177.837C285.488 178.314 285.402 178.851 285.402 179.447C285.402 180.123 285.548 180.64 285.839 180.997C286.131 181.349 286.578 181.524 287.181 181.524C287.446 181.524 287.681 181.508 287.887 181.475C288.092 181.441 288.268 181.402 288.413 181.355C288.566 181.309 288.692 181.262 288.791 181.216C288.897 181.163 288.987 181.117 289.059 181.077L289.149 181.673ZM291.876 174.388L292.542 174.268L291.309 179.447C291.256 179.672 291.203 179.888 291.15 180.093C291.104 180.292 291.081 180.477 291.081 180.65C291.081 180.756 291.091 180.855 291.11 180.948C291.13 181.034 291.17 181.113 291.23 181.186C291.289 181.253 291.372 181.312 291.478 181.365C291.591 181.418 291.733 181.465 291.906 181.504L291.756 182.071C291.273 182.011 290.935 181.865 290.743 181.634C290.551 181.395 290.454 181.097 290.454 180.739C290.454 180.58 290.468 180.414 290.494 180.242C290.521 180.063 290.557 179.878 290.604 179.685L291.876 174.388ZM293.564 180.332C293.564 180.722 293.673 181.017 293.892 181.216C294.11 181.415 294.372 181.514 294.677 181.514C294.916 181.514 295.161 181.455 295.413 181.335C295.664 181.209 295.893 181.024 296.098 180.779C296.31 180.527 296.483 180.212 296.615 179.835C296.754 179.457 296.824 179.013 296.824 178.503C296.824 178.112 296.715 177.817 296.496 177.618C296.277 177.419 296.016 177.32 295.711 177.32C295.472 177.32 295.227 177.383 294.975 177.509C294.723 177.628 294.492 177.814 294.279 178.065C294.074 178.31 293.902 178.622 293.763 179C293.63 179.377 293.564 179.821 293.564 180.332ZM297.48 178.453C297.48 179.076 297.39 179.616 297.212 180.073C297.039 180.53 296.814 180.911 296.536 181.216C296.264 181.514 295.959 181.736 295.621 181.882C295.29 182.028 294.962 182.101 294.637 182.101C294.405 182.101 294.183 182.064 293.971 181.991C293.766 181.918 293.584 181.809 293.425 181.663C293.266 181.518 293.14 181.339 293.047 181.127C292.954 180.908 292.908 180.656 292.908 180.371C292.908 179.748 292.994 179.208 293.166 178.751C293.345 178.294 293.57 177.916 293.842 177.618C294.12 177.32 294.425 177.098 294.757 176.952C295.094 176.806 295.426 176.733 295.75 176.733C295.982 176.733 296.201 176.77 296.406 176.843C296.619 176.916 296.804 177.025 296.963 177.171C297.122 177.317 297.248 177.499 297.341 177.717C297.434 177.929 297.48 178.175 297.48 178.453ZM297.921 181.166C298.166 181.299 298.381 181.388 298.567 181.435C298.753 181.481 298.961 181.504 299.193 181.504C299.359 181.504 299.518 181.488 299.67 181.455C299.823 181.415 299.955 181.359 300.068 181.286C300.18 181.213 300.27 181.117 300.336 180.997C300.402 180.878 300.436 180.739 300.436 180.58C300.436 180.408 300.386 180.265 300.287 180.153C300.194 180.04 300.074 179.944 299.929 179.864C299.79 179.778 299.637 179.695 299.471 179.616C299.306 179.536 299.15 179.444 299.004 179.338C298.865 179.232 298.746 179.099 298.647 178.94C298.554 178.781 298.507 178.576 298.507 178.324C298.507 178.039 298.56 177.797 298.666 177.598C298.772 177.393 298.915 177.227 299.094 177.101C299.273 176.969 299.478 176.873 299.71 176.813C299.942 176.753 300.18 176.724 300.426 176.724C300.638 176.724 300.846 176.743 301.052 176.783C301.264 176.816 301.466 176.869 301.658 176.942L301.4 177.519C301.261 177.459 301.102 177.413 300.923 177.38C300.744 177.34 300.558 177.32 300.366 177.32C300.207 177.32 300.051 177.336 299.899 177.37C299.753 177.403 299.624 177.459 299.511 177.539C299.399 177.611 299.306 177.708 299.233 177.827C299.167 177.939 299.134 178.079 299.134 178.244C299.134 178.417 299.18 178.559 299.273 178.672C299.372 178.784 299.491 178.884 299.631 178.97C299.77 179.056 299.922 179.139 300.088 179.218C300.26 179.291 300.416 179.381 300.555 179.487C300.694 179.593 300.81 179.722 300.903 179.874C301.002 180.02 301.052 180.209 301.052 180.441C301.052 180.732 300.996 180.984 300.883 181.196C300.777 181.408 300.634 181.581 300.455 181.713C300.277 181.846 300.071 181.942 299.839 182.001C299.607 182.068 299.369 182.101 299.124 182.101C298.865 182.101 298.607 182.071 298.348 182.011C298.09 181.958 297.855 181.872 297.643 181.753L297.921 181.166ZM306.512 178.045C306.512 178.417 306.42 178.718 306.234 178.95C306.055 179.182 305.8 179.367 305.469 179.507C305.144 179.639 304.75 179.735 304.286 179.795C303.829 179.854 303.319 179.897 302.755 179.924V180.133C302.755 180.325 302.775 180.504 302.815 180.669C302.855 180.835 302.928 180.981 303.034 181.107C303.14 181.226 303.285 181.322 303.471 181.395C303.663 181.468 303.908 181.504 304.207 181.504C304.438 181.504 304.67 181.471 304.902 181.405C305.141 181.339 305.366 181.239 305.578 181.107L305.648 181.703C305.422 181.829 305.174 181.925 304.902 181.991C304.631 182.064 304.356 182.101 304.077 182.101C303.713 182.101 303.405 182.054 303.153 181.962C302.908 181.869 302.706 181.74 302.547 181.574C302.394 181.408 302.285 181.209 302.219 180.978C302.152 180.746 302.119 180.491 302.119 180.212C302.119 179.788 302.182 179.367 302.308 178.95C302.441 178.532 302.633 178.158 302.885 177.827C303.136 177.495 303.444 177.23 303.809 177.032C304.18 176.826 304.601 176.724 305.071 176.724C305.535 176.724 305.89 176.846 306.135 177.091C306.387 177.33 306.512 177.648 306.512 178.045ZM305.012 177.31C304.747 177.31 304.498 177.366 304.266 177.479C304.034 177.585 303.826 177.731 303.64 177.916C303.454 178.102 303.292 178.317 303.153 178.562C303.02 178.807 302.921 179.066 302.855 179.338C303.418 179.324 303.892 179.288 304.276 179.228C304.66 179.169 304.969 179.086 305.2 178.98C305.439 178.874 305.608 178.748 305.707 178.602C305.807 178.45 305.856 178.277 305.856 178.085C305.856 177.827 305.777 177.635 305.618 177.509C305.466 177.376 305.263 177.31 305.012 177.31Z" fill="black"/>
<defs>
<filter id="filter0_d_2591_35718" x="0.0977015" y="0.478161" width="341.805" height="227.502" filterUnits="userSpaceOnUse" color-interpolation-filters="sRGB">
<feFlood flood-opacity="0" result="BackgroundImageFix"/>
<feColorMatrix in="SourceAlpha" type="matrix" values="0 0 0 0 0 0 0 0 0 0 0 0 0 0 0 0 0 0 127 0" result="hardAlpha"/>
<feOffset dy="1.38046"/>
<feGaussianBlur stdDeviation="3.45115"/>
<feComposite in2="hardAlpha" operator="out"/>
<feColorMatrix type="matrix" values="0 0 0 0 0 0 0 0 0 0 0 0 0 0 0 0 0 0 0.1 0"/>
<feBlend mode="normal" in2="BackgroundImageFix" result="effect1_dropShadow_2591_35718"/>
<feBlend mode="normal" in="SourceGraphic" in2="effect1_dropShadow_2591_35718" result="shape"/>
</filter>
</defs>
</svg>
