<svg width="33" height="32" viewBox="0 0 33 32" fill="none" xmlns="http://www.w3.org/2000/svg">
<rect x="0.5" width="32" height="32" rx="16" fill="#F9F9F9"/>
<g clip-path="url(#clip0_2591_29990)">
<path d="M14.8998 19.6002V20.8002H5.2998V19.6002H14.8998ZM14.8998 11.2002V12.4002H10.0998L11.2998 11.2002H14.8998ZM8.8998 11.2002L10.0998 12.4002H5.2998V11.2002H8.8998Z" fill="#414652"/>
<path d="M14.8938 14.2004C14.2344 14.2004 13.6998 14.7349 13.6998 15.3944V16.3544L10.9482 13.6004C10.4796 13.1319 9.72 13.1319 9.2514 13.6004L6.4998 16.352L5.2998 15.152V16.8488L5.6514 17.2004C6.12 17.6688 6.8796 17.6688 7.3482 17.2004L10.0998 14.4488L12.8514 17.2004H11.8914C11.2329 17.2017 10.6998 17.7359 10.6998 18.3944V18.4004H13.6998C14.3625 18.4004 14.8998 17.8631 14.8998 17.2004V14.2004H14.8938Z" fill="#FF444F"/>
</g>
<g clip-path="url(#clip1_2591_29990)">
<path d="M27.6996 19.6002V20.8002H24.0996L22.8996 19.6002H27.6996ZM22.8996 19.6002L21.6996 20.8002H18.0996V19.6002H22.8996ZM27.6996 11.2002V12.4002H18.0996V11.2002L27.6996 11.2002Z" fill="#414652"/>
<path d="M26.4996 13.5996H23.4996V13.6056C23.4996 14.265 24.0342 14.7996 24.6936 14.7996H25.6536L22.8996 17.5512L20.148 14.7996C19.6794 14.3312 18.9198 14.3312 18.4512 14.7996L18.0996 15.1512V16.848L19.2996 15.648L22.0512 18.3996C22.5198 18.8681 23.2794 18.8681 23.748 18.3996L26.4996 15.648V16.608C26.5009 17.2665 27.0351 17.7996 27.6936 17.7996H27.6996V14.7996C27.6996 14.1369 27.1624 13.5996 26.4996 13.5996Z" fill="#FF444F"/>
</g>
<defs>
<clipPath id="clip0_2591_29990">
<rect width="9.6" height="9.6" fill="white" transform="translate(5.2998 11.2002)"/>
</clipPath>
<clipPath id="clip1_2591_29990">
<rect width="9.6" height="9.6" fill="white" transform="translate(18.0996 11.2002)"/>
</clipPath>
</defs>
</svg>
