<svg width="342" height="228" viewBox="0 0 342 228" fill="none" xmlns="http://www.w3.org/2000/svg">
<g filter="url(#filter0_d_2591_31478)">
<rect x="7" y="5.69727" width="328" height="213.697" rx="4.14138" fill="white"/>
</g>
<path d="M41.28 36.25C40.6585 35.1461 39.9859 34.056 39.2623 32.9799C38.5388 31.9038 37.7688 30.888 36.9524 29.9325V36.25H34.8095V26.6068H36.5767C36.8829 26.9129 37.2215 27.2886 37.5925 27.7339C37.9636 28.1792 38.3393 28.657 38.7197 29.1672C39.1093 29.6681 39.4943 30.1923 39.8746 30.7396C40.255 31.2777 40.6121 31.7972 40.9461 32.2981V26.6068H43.1029V36.25H41.28ZM52.0345 32.5764C52.0345 33.1516 51.951 33.6803 51.784 34.1627C51.617 34.6358 51.3759 35.044 51.0604 35.3873C50.745 35.7212 50.3647 35.981 49.9194 36.1665C49.4834 36.352 48.9917 36.4448 48.4444 36.4448C47.9063 36.4448 47.4147 36.352 46.9694 36.1665C46.5334 35.981 46.1577 35.7212 45.8423 35.3873C45.5268 35.044 45.281 34.6358 45.1048 34.1627C44.9285 33.6803 44.8404 33.1516 44.8404 32.5764C44.8404 32.0012 44.9285 31.4771 45.1048 31.004C45.2903 30.5309 45.5408 30.1273 45.8562 29.7934C46.1809 29.4594 46.5612 29.1997 46.9972 29.0141C47.4425 28.8286 47.9249 28.7358 48.4444 28.7358C48.9732 28.7358 49.4556 28.8286 49.8916 29.0141C50.3369 29.1997 50.7172 29.4594 51.0326 29.7934C51.348 30.1273 51.5939 30.5309 51.7701 31.004C51.9464 31.4771 52.0345 32.0012 52.0345 32.5764ZM49.9194 32.5764C49.9194 31.9363 49.7895 31.4354 49.5298 31.0736C49.2793 30.7025 48.9175 30.517 48.4444 30.517C47.9713 30.517 47.6048 30.7025 47.3451 31.0736C47.0853 31.4354 46.9555 31.9363 46.9555 32.5764C46.9555 33.2165 47.0853 33.7267 47.3451 34.1071C47.6048 34.4781 47.9713 34.6637 48.4444 34.6637C48.9175 34.6637 49.2793 34.4781 49.5298 34.1071C49.7895 33.7267 49.9194 33.2165 49.9194 32.5764ZM64.2751 26.6068V28.4575H61.3668V36.25H59.196V28.4575H56.2878V26.6068H64.2751ZM71.3309 32.5764C71.3309 33.1516 71.2474 33.6803 71.0804 34.1627C70.9134 34.6358 70.6723 35.044 70.3568 35.3873C70.0414 35.7212 69.6611 35.981 69.2158 36.1665C68.7798 36.352 68.2881 36.4448 67.7408 36.4448C67.2027 36.4448 66.7111 36.352 66.2658 36.1665C65.8298 35.981 65.4541 35.7212 65.1387 35.3873C64.8233 35.044 64.5774 34.6358 64.4012 34.1627C64.2249 33.6803 64.1368 33.1516 64.1368 32.5764C64.1368 32.0012 64.2249 31.4771 64.4012 31.004C64.5867 30.5309 64.8372 30.1273 65.1526 29.7934C65.4773 29.4594 65.8576 29.1997 66.2936 29.0141C66.7389 28.8286 67.2213 28.7358 67.7408 28.7358C68.2696 28.7358 68.752 28.8286 69.188 29.0141C69.6333 29.1997 70.0136 29.4594 70.329 29.7934C70.6444 30.1273 70.8903 30.5309 71.0665 31.004C71.2428 31.4771 71.3309 32.0012 71.3309 32.5764ZM69.2158 32.5764C69.2158 31.9363 69.0859 31.4354 68.8262 31.0736C68.5757 30.7025 68.2139 30.517 67.7408 30.517C67.2677 30.517 66.9012 30.7025 66.6415 31.0736C66.3817 31.4354 66.2519 31.9363 66.2519 32.5764C66.2519 33.2165 66.3817 33.7267 66.6415 34.1071C66.9012 34.4781 67.2677 34.6637 67.7408 34.6637C68.2139 34.6637 68.5757 34.4781 68.8262 34.1071C69.0859 33.7267 69.2158 33.2165 69.2158 32.5764ZM79.1849 35.9995C78.8324 36.1016 78.3778 36.1943 77.8212 36.2778C77.2646 36.3706 76.6802 36.417 76.0679 36.417C75.4464 36.417 74.9269 36.3335 74.5094 36.1665C74.1013 35.9995 73.7766 35.7676 73.5354 35.4708C73.2942 35.1646 73.1226 34.8028 73.0205 34.3854C72.9185 33.9679 72.8674 33.5087 72.8674 33.0078V28.9306H74.9408V32.7573C74.9408 33.4252 75.0289 33.9076 75.2052 34.2045C75.3814 34.5013 75.7108 34.6498 76.1932 34.6498C76.3416 34.6498 76.4993 34.6451 76.6663 34.6358C76.8333 34.6173 76.9817 34.5987 77.1116 34.5802V28.9306H79.1849V35.9995ZM80.7833 32.5903C80.7833 32.0615 80.8668 31.5652 81.0338 31.1014C81.21 30.6283 81.4605 30.2201 81.7852 29.8769C82.1099 29.5243 82.5042 29.246 82.968 29.042C83.4318 28.8379 83.9606 28.7358 84.5543 28.7358C84.9439 28.7358 85.3011 28.7729 85.6258 28.8471C85.9505 28.9121 86.2659 29.0095 86.572 29.1394L86.1406 30.7953C85.9458 30.721 85.7325 30.6561 85.5005 30.6004C85.2686 30.5448 85.0089 30.517 84.7213 30.517C84.109 30.517 83.6498 30.7071 83.3437 31.0875C83.0468 31.4678 82.8984 31.9688 82.8984 32.5903C82.8984 33.249 83.0376 33.7592 83.3159 34.121C83.6035 34.4828 84.0998 34.6637 84.8048 34.6637C85.0553 34.6637 85.3243 34.6405 85.6119 34.5941C85.8995 34.5477 86.1638 34.4735 86.405 34.3715L86.6973 36.0691C86.4561 36.1711 86.1546 36.2593 85.7928 36.3335C85.431 36.4077 85.0321 36.4448 84.5961 36.4448C83.9281 36.4448 83.353 36.3474 82.8706 36.1526C82.3882 35.9485 81.9893 35.6748 81.6739 35.3316C81.3677 34.9884 81.1405 34.5848 80.992 34.121C80.8529 33.6479 80.7833 33.1376 80.7833 32.5903ZM88.0888 36.25V25.7858L90.1621 25.4518V28.9585C90.3013 28.9121 90.4775 28.8703 90.6909 28.8332C90.9135 28.7868 91.1269 28.7636 91.331 28.7636C91.9247 28.7636 92.4164 28.8471 92.806 29.0141C93.2049 29.1718 93.5203 29.3991 93.7522 29.696C93.9934 29.9928 94.1604 30.3453 94.2532 30.7535C94.3552 31.1617 94.4062 31.6163 94.4062 32.1172V36.25H92.3329V32.3677C92.3329 31.6997 92.2448 31.2266 92.0685 30.9483C91.9015 30.67 91.5861 30.5309 91.1223 30.5309C90.9367 30.5309 90.7605 30.5494 90.5935 30.5865C90.4358 30.6144 90.292 30.6468 90.1621 30.6839V36.25H88.0888Z" fill="#414652"/>
<rect x="7.51245" y="56.5808" width="326.975" height="162.301" stroke="#ECECEC" stroke-width="1.0249"/>
<path d="M7 109.858H335" stroke="#ECECEC" stroke-width="1.0249"/>
<path d="M7 83.4521H335" stroke="#ECECEC" stroke-width="1.0249"/>
<path d="M7 136.264H335" stroke="#ECECEC" stroke-width="1.0249"/>
<path d="M7 162.67H335" stroke="#ECECEC" stroke-width="1.0249"/>
<path d="M7 189.076H335" stroke="#ECECEC" stroke-width="1.0249"/>
<path d="M62.1768 56.0684L62.1767 219.394" stroke="#ECECEC" stroke-width="1.0249"/>
<path d="M116.333 56.0684L116.333 219.394" stroke="#ECECEC" stroke-width="1.0249"/>
<path d="M170.489 56.0684L170.489 219.394" stroke="#ECECEC" stroke-width="1.0249"/>
<path d="M224.646 56.0684L224.645 219.394" stroke="#ECECEC" stroke-width="1.0249"/>
<path d="M278.802 56.0684L278.802 219.394" stroke="#ECECEC" stroke-width="1.0249"/>
<path d="M7 56.832H335" stroke="#ECECEC" stroke-width="1.5302"/>
<path d="M39.3027 178.643L91.4846 134.909L135.715 173.176L179.945 129.443L223.678 162.243L270.394 125.467" stroke="#A8A8A8" stroke-width="2.98182"/>
<path d="M271.842 56.0684L271.842 219.394" stroke="#7D7D7D" stroke-width="2.98182"/>
<line x1="7.99414" y1="109.678" x2="334.469" y2="109.678" stroke="black" stroke-width="0.765102"/>
<path d="M24.6269 93.8742H22.5198L22.649 93.2878H27.5491L27.41 93.8742H25.3028L23.792 100.176H23.1161L24.6269 93.8742ZM30.2229 95.5937C30.1036 95.5672 29.9943 95.5473 29.8949 95.5341C29.7955 95.5208 29.6928 95.5142 29.5868 95.5142C29.1759 95.5142 28.8115 95.5937 28.4934 95.7528C28.1754 95.9118 27.907 96.1205 27.6883 96.3789C27.4697 96.6374 27.3007 96.9322 27.1814 97.2635C27.0688 97.5949 27.0125 97.9328 27.0125 98.2774C27.0125 98.549 27.039 98.7776 27.092 98.9632C27.145 99.1421 27.2179 99.2879 27.3106 99.4005C27.4034 99.5065 27.5094 99.586 27.6287 99.6391C27.7546 99.6854 27.8871 99.7086 28.0263 99.7086C28.298 99.7086 28.5531 99.6457 28.7916 99.5198C29.0302 99.3873 29.2554 99.2017 29.4675 98.9632C29.4675 98.7843 29.494 98.5789 29.547 98.3469C29.6 98.115 29.6497 97.9063 29.6961 97.7208L30.2229 95.5937ZM29.6464 100.235C29.6066 100.156 29.5702 100.066 29.5371 99.9671C29.5106 99.861 29.4907 99.755 29.4774 99.649C29.2455 99.8743 29.0003 100.04 28.7419 100.146C28.4901 100.252 28.2284 100.305 27.9567 100.305C27.7447 100.305 27.5426 100.269 27.3504 100.196C27.1582 100.123 26.9893 100.01 26.8435 99.8577C26.6977 99.7053 26.5784 99.5098 26.4857 99.2713C26.3995 99.0261 26.3565 98.7379 26.3565 98.4066C26.3565 97.8765 26.4426 97.3961 26.6149 96.9654C26.7872 96.5346 27.0257 96.1702 27.3305 95.872C27.642 95.5672 28.0064 95.332 28.4239 95.1663C28.8479 95.0007 29.3085 94.9178 29.8054 94.9178C30.2163 94.9178 30.6105 94.9874 30.9882 95.1266L30.2229 98.2177C30.1831 98.3834 30.15 98.5391 30.1235 98.6849C30.097 98.8306 30.0837 98.9698 30.0837 99.1023C30.0837 99.2812 30.1003 99.4502 30.1334 99.6092C30.1666 99.7683 30.2262 99.9439 30.3123 100.136L29.6464 100.235ZM32.5732 95.2657C32.825 95.1663 33.0999 95.0835 33.3981 95.0172C33.7029 94.951 34.0011 94.9178 34.2927 94.9178C34.4451 94.9178 34.5909 94.9278 34.73 94.9477C34.8692 94.9675 35.0017 95.0007 35.1276 95.0471L34.9586 95.6335C34.7002 95.554 34.4351 95.5142 34.1635 95.5142C33.9912 95.5142 33.8189 95.5275 33.6466 95.554C33.4743 95.5805 33.3021 95.6202 33.1298 95.6732L32.0464 100.176H31.4003L32.5732 95.2657ZM39.0375 95.5838C38.8255 95.5308 38.62 95.5043 38.4213 95.5043C37.964 95.5043 37.5665 95.5838 37.2285 95.7428C36.8972 95.9018 36.6222 96.1073 36.4036 96.3591C36.1849 96.6042 36.0225 96.8792 35.9165 97.184C35.8105 97.4822 35.7575 97.7704 35.7575 98.0488C35.7575 98.2277 35.7741 98.3999 35.8072 98.5656C35.8403 98.7246 35.8966 98.8638 35.9762 98.9831C36.0557 99.1023 36.165 99.1984 36.3042 99.2713C36.4433 99.3376 36.6222 99.3707 36.8409 99.3707C37.0662 99.3707 37.2981 99.3309 37.5366 99.2514C37.7818 99.1653 38.0137 99.0526 38.2324 98.9135L39.0375 95.5838ZM34.5846 101.06C34.7238 101.173 34.9226 101.266 35.181 101.339C35.4461 101.412 35.7078 101.448 35.9662 101.448C36.5758 101.448 37.043 101.309 37.3677 101.031C37.699 100.752 37.9143 100.358 38.0137 99.8478L38.0634 99.5894C37.8646 99.7153 37.6526 99.8113 37.4273 99.8776C37.202 99.9372 36.9767 99.9671 36.7514 99.9671C36.4665 99.9671 36.218 99.9207 36.006 99.8279C35.8006 99.7351 35.6316 99.6092 35.4991 99.4502C35.3665 99.2845 35.2672 99.0957 35.2009 98.8837C35.1346 98.665 35.1015 98.4331 35.1015 98.1879C35.1015 97.8102 35.1678 97.4292 35.3003 97.0449C35.4394 96.6539 35.6515 96.3027 35.9364 95.9913C36.2213 95.6732 36.5758 95.4148 36.9999 95.216C37.4306 95.0172 37.9408 94.9178 38.5306 94.9178C38.7691 94.9178 38.9944 94.9443 39.2065 94.9974C39.4185 95.0437 39.6074 95.1133 39.773 95.2061L38.6598 99.8378C38.5935 100.116 38.5074 100.388 38.4014 100.653C38.2954 100.918 38.1396 101.153 37.9342 101.359C37.7288 101.564 37.4538 101.73 37.1093 101.856C36.7713 101.981 36.334 102.044 35.7973 102.044C35.6912 102.044 35.572 102.034 35.4394 102.015C35.3069 102.001 35.1711 101.978 35.0319 101.945C34.8994 101.912 34.7702 101.872 34.6443 101.826C34.5184 101.786 34.4057 101.736 34.3063 101.677L34.5846 101.06ZM44.7269 96.2398C44.7269 96.6109 44.6342 96.9123 44.4486 97.1443C44.2697 97.3762 44.0146 97.5617 43.6833 97.7009C43.3586 97.8334 42.9644 97.9295 42.5005 97.9891C42.0433 98.0488 41.5331 98.0918 40.9699 98.1183V98.3271C40.9699 98.5192 40.9897 98.6981 41.0295 98.8638C41.0692 99.0294 41.1421 99.1752 41.2482 99.3011C41.3542 99.4204 41.5 99.5165 41.6855 99.5894C41.8777 99.6622 42.1228 99.6987 42.421 99.6987C42.6529 99.6987 42.8848 99.6656 43.1168 99.5993C43.3553 99.533 43.5806 99.4336 43.7926 99.3011L43.8622 99.8975C43.6369 100.023 43.3884 100.119 43.1168 100.186C42.8451 100.259 42.5701 100.295 42.2918 100.295C41.9273 100.295 41.6192 100.249 41.3674 100.156C41.1223 100.063 40.9202 99.9339 40.7611 99.7683C40.6087 99.6026 40.4994 99.4038 40.4331 99.1719C40.3669 98.94 40.3337 98.6849 40.3337 98.4066C40.3337 97.9825 40.3967 97.5617 40.5226 97.1443C40.6551 96.7268 40.8473 96.3524 41.0991 96.0211C41.3509 95.6898 41.659 95.4248 42.0234 95.226C42.3945 95.0205 42.8153 94.9178 43.2857 94.9178C43.7496 94.9178 44.1041 95.0404 44.3492 95.2856C44.601 95.5241 44.7269 95.8422 44.7269 96.2398ZM43.2261 95.5043C42.961 95.5043 42.7126 95.5606 42.4806 95.6732C42.2487 95.7793 42.04 95.925 41.8545 96.1106C41.6689 96.2961 41.5066 96.5115 41.3674 96.7566C41.2349 97.0018 41.1355 97.2602 41.0692 97.5319C41.6325 97.5186 42.1063 97.4822 42.4906 97.4226C42.8749 97.3629 43.183 97.2801 43.4149 97.1741C43.6535 97.0681 43.8225 96.9422 43.9219 96.7964C44.0212 96.644 44.0709 96.4717 44.0709 96.2795C44.0709 96.0211 43.9914 95.829 43.8324 95.7031C43.68 95.5705 43.4779 95.5043 43.2261 95.5043ZM46.5785 93.5263L47.2543 93.4071L46.8667 95.0371H48.6757L48.5465 95.5937H46.7276L46.1213 98.1084C46.0881 98.2277 46.0583 98.3569 46.0318 98.496C46.0119 98.6285 46.002 98.7611 46.002 98.8936C46.002 99.1918 46.0749 99.4005 46.2206 99.5198C46.3664 99.6391 46.5486 99.6987 46.7673 99.6987C46.9794 99.6987 47.1616 99.6755 47.314 99.6291C47.473 99.5827 47.6387 99.5198 47.811 99.4403L47.8706 100.027C47.6917 100.1 47.4896 100.163 47.2643 100.216C47.0456 100.269 46.827 100.295 46.6083 100.295C46.436 100.295 46.2737 100.275 46.1213 100.235C45.9689 100.196 45.833 100.129 45.7137 100.037C45.6011 99.9439 45.5083 99.8213 45.4354 99.6689C45.3692 99.5165 45.336 99.3243 45.336 99.0924C45.336 98.8075 45.3824 98.4795 45.4752 98.1084L46.5785 93.5263Z" fill="#414652" fill-opacity="0.6"/>
<rect x="143.17" y="13.6484" width="81.503" height="33.7939" rx="15.903" fill="#00A79E"/>
<path d="M175.692 26.7556C175.819 27.1903 175.957 27.6833 176.105 28.2346C176.264 28.7753 176.428 29.3372 176.598 29.9203C176.778 30.5034 176.959 31.0866 177.139 31.6697C177.319 32.2528 177.494 32.7935 177.664 33.2918C177.801 32.7511 177.939 32.1627 178.077 31.5265C178.225 30.8904 178.363 30.2331 178.49 29.5546C178.618 28.876 178.74 28.2028 178.856 27.5349C178.983 26.8564 179.1 26.2043 179.206 25.5788H181.782C181.411 27.4236 180.982 29.2948 180.494 31.1926C180.017 33.0903 179.498 34.8927 178.936 36.5996H176.662C176.291 35.5818 175.93 34.5163 175.58 33.4031C175.23 32.2793 174.886 31.1555 174.547 30.0317C174.207 31.1555 173.868 32.2793 173.529 33.4031C173.189 34.5163 172.834 35.5818 172.463 36.5996H170.189C169.627 34.8927 169.102 33.0903 168.615 31.1926C168.138 29.2948 167.714 27.4236 167.342 25.5788H170.03C170.136 26.2043 170.253 26.8564 170.38 27.5349C170.507 28.2028 170.64 28.876 170.778 29.5546C170.915 30.2331 171.053 30.8904 171.191 31.5265C171.339 32.1627 171.488 32.7511 171.636 33.2918C171.827 32.7723 172.013 32.221 172.193 31.6379C172.373 31.0548 172.548 30.4716 172.718 29.8885C172.887 29.3054 173.041 28.7435 173.179 28.2028C173.327 27.6621 173.46 27.1797 173.576 26.7556H175.692ZM185.587 36.5996H183.218V28.2346H185.587V36.5996ZM185.81 25.8174C185.81 26.252 185.667 26.5966 185.38 26.8511C185.105 27.0949 184.776 27.2168 184.394 27.2168C184.013 27.2168 183.679 27.0949 183.392 26.8511C183.117 26.5966 182.979 26.252 182.979 25.8174C182.979 25.3827 183.117 25.0434 183.392 24.7996C183.679 24.5451 184.013 24.4179 184.394 24.4179C184.776 24.4179 185.105 24.5451 185.38 24.7996C185.667 25.0434 185.81 25.3827 185.81 25.8174ZM187.815 28.5209C188.217 28.4042 188.737 28.2982 189.373 28.2028C190.009 28.0968 190.677 28.0438 191.377 28.0438C192.087 28.0438 192.676 28.1392 193.142 28.33C193.619 28.5103 193.995 28.77 194.271 29.1093C194.547 29.4485 194.743 29.8514 194.86 30.3179C194.976 30.7844 195.034 31.3039 195.034 31.8764V36.5996H192.665V32.1627C192.665 31.3993 192.564 30.8586 192.363 30.5406C192.161 30.2225 191.785 30.0635 191.234 30.0635C191.064 30.0635 190.884 30.0741 190.693 30.0953C190.502 30.1059 190.333 30.1218 190.184 30.143V36.5996H187.815V28.5209ZM199.612 28.4255C199.612 29.2842 199.581 30.0847 199.517 30.8268C199.453 31.569 199.369 32.3217 199.263 33.085H197.45C197.344 32.3217 197.254 31.569 197.179 30.8268C197.116 30.0847 197.084 29.2842 197.084 28.4255V25.5788H199.612V28.4255ZM199.819 35.3433C199.819 35.8098 199.665 36.1702 199.358 36.4247C199.061 36.6791 198.722 36.8063 198.34 36.8063C197.959 36.8063 197.614 36.6791 197.307 36.4247C197.01 36.1702 196.861 35.8098 196.861 35.3433C196.861 34.8768 197.01 34.5163 197.307 34.2619C197.614 34.0074 197.959 33.8802 198.34 33.8802C198.722 33.8802 199.061 34.0074 199.358 34.2619C199.665 34.5163 199.819 34.8768 199.819 35.3433Z" fill="white"/>
<path d="M18.8923 159.002C20.101 159.002 20.7053 158.589 20.7053 157.762C20.7053 157.507 20.6496 157.293 20.5383 157.118C20.4349 156.935 20.2918 156.78 20.1089 156.653C19.926 156.517 19.7153 156.402 19.4768 156.307C19.2462 156.211 18.9997 156.116 18.7373 156.02C18.4351 155.917 18.1489 155.802 17.8785 155.675C17.6082 155.539 17.3736 155.384 17.1748 155.209C16.976 155.026 16.817 154.812 16.6977 154.565C16.5864 154.319 16.5307 154.021 16.5307 153.671C16.5307 152.947 16.7772 152.383 17.2702 151.977C17.7632 151.572 18.4431 151.369 19.3098 151.369C19.8107 151.369 20.264 151.424 20.6695 151.536C21.083 151.639 21.3851 151.754 21.576 151.882L21.2062 152.824C21.0392 152.721 20.7888 152.621 20.4548 152.526C20.1288 152.422 19.7471 152.371 19.3098 152.371C19.0871 152.371 18.8804 152.395 18.6896 152.442C18.4987 152.49 18.3317 152.561 18.1886 152.657C18.0455 152.752 17.9302 152.876 17.8427 153.027C17.7632 153.17 17.7235 153.341 17.7235 153.54C17.7235 153.762 17.7672 153.949 17.8547 154.1C17.9421 154.251 18.0654 154.386 18.2244 154.506C18.3834 154.617 18.5663 154.72 18.7731 154.816C18.9877 154.911 19.2223 155.007 19.4768 155.102C19.8346 155.245 20.1606 155.388 20.4548 155.531C20.757 155.675 21.0154 155.845 21.2301 156.044C21.4527 156.243 21.6237 156.482 21.7429 156.76C21.8622 157.03 21.9219 157.36 21.9219 157.75C21.9219 158.473 21.6555 159.03 21.1227 159.42C20.5979 159.809 19.8545 160.004 18.8923 160.004C18.5663 160.004 18.2642 159.98 17.9859 159.933C17.7155 159.893 17.473 159.845 17.2583 159.789C17.0436 159.726 16.8567 159.662 16.6977 159.599C16.5466 159.527 16.4274 159.467 16.3399 159.42L16.6858 158.465C16.8687 158.569 17.147 158.684 17.5207 158.811C17.8944 158.939 18.3516 159.002 18.8923 159.002ZM24.2862 153.623H26.6358V154.553H24.2862V157.416C24.2862 157.726 24.31 157.984 24.3577 158.191C24.4054 158.39 24.477 158.549 24.5724 158.668C24.6678 158.78 24.7871 158.859 24.9302 158.907C25.0734 158.955 25.2403 158.978 25.4312 158.978C25.7651 158.978 26.0315 158.943 26.2303 158.871C26.437 158.791 26.5802 158.736 26.6597 158.704L26.8744 159.622C26.7631 159.678 26.5682 159.746 26.2899 159.825C26.0116 159.913 25.6936 159.956 25.3358 159.956C24.9143 159.956 24.5645 159.905 24.2862 159.801C24.0158 159.69 23.7971 159.527 23.6302 159.312C23.4632 159.098 23.3439 158.835 23.2723 158.525C23.2087 158.207 23.1769 157.841 23.1769 157.428V151.894L24.2862 151.703V153.623ZM30.1465 159.026C30.4089 159.026 30.6395 159.022 30.8383 159.014C31.0451 158.998 31.216 158.974 31.3512 158.943V157.094C31.2717 157.054 31.1405 157.022 30.9576 156.998C30.7827 156.967 30.568 156.951 30.3135 156.951C30.1465 156.951 29.9676 156.963 29.7768 156.987C29.5939 157.01 29.423 157.062 29.2639 157.142C29.1128 157.213 28.9856 157.316 28.8823 157.452C28.7789 157.579 28.7272 157.75 28.7272 157.965C28.7272 158.362 28.8544 158.64 29.1089 158.799C29.3633 158.951 29.7092 159.026 30.1465 159.026ZM30.0511 153.468C30.4964 153.468 30.8701 153.528 31.1723 153.647C31.4824 153.758 31.7289 153.921 31.9118 154.136C32.1026 154.343 32.2378 154.593 32.3173 154.887C32.3968 155.174 32.4366 155.492 32.4366 155.841V159.718C32.3412 159.734 32.206 159.758 32.0311 159.789C31.8641 159.813 31.6732 159.837 31.4585 159.861C31.2439 159.885 31.0093 159.905 30.7548 159.921C30.5083 159.944 30.2618 159.956 30.0153 159.956C29.6655 159.956 29.3434 159.921 29.0492 159.849C28.755 159.777 28.5006 159.666 28.2859 159.515C28.0712 159.356 27.9042 159.149 27.7849 158.895C27.6657 158.64 27.606 158.334 27.606 157.976C27.606 157.635 27.6736 157.34 27.8088 157.094C27.9519 156.847 28.1428 156.649 28.3813 156.497C28.6199 156.346 28.8982 156.235 29.2162 156.164C29.5343 156.092 29.8682 156.056 30.2181 156.056C30.3294 156.056 30.4447 156.064 30.564 156.08C30.6833 156.088 30.7946 156.104 30.898 156.128C31.0093 156.144 31.1047 156.16 31.1842 156.175C31.2637 156.191 31.3194 156.203 31.3512 156.211V155.901C31.3512 155.718 31.3313 155.539 31.2916 155.364C31.2518 155.182 31.1802 155.022 31.0769 154.887C30.9735 154.744 30.8304 154.633 30.6475 154.553C30.4726 154.466 30.242 154.422 29.9557 154.422C29.5899 154.422 29.2679 154.45 28.9896 154.506C28.7192 154.553 28.5165 154.605 28.3813 154.661L28.2501 153.742C28.3932 153.679 28.6318 153.619 28.9657 153.563C29.2997 153.5 29.6615 153.468 30.0511 153.468ZM36.5689 153.492C36.6643 153.492 36.7717 153.5 36.891 153.516C37.0182 153.524 37.1414 153.54 37.2607 153.563C37.38 153.579 37.4873 153.599 37.5827 153.623C37.6861 153.639 37.7616 153.655 37.8094 153.671L37.6185 154.637C37.5311 154.605 37.3839 154.569 37.1772 154.529C36.9784 154.482 36.72 154.458 36.4019 154.458C36.1952 154.458 35.9885 154.482 35.7817 154.529C35.5829 154.569 35.4517 154.597 35.3881 154.613V159.825H34.2789V153.885C34.5413 153.79 34.8673 153.703 35.2569 153.623C35.6465 153.536 36.0839 153.492 36.5689 153.492ZM39.9174 153.623H42.2671V154.553H39.9174V157.416C39.9174 157.726 39.9413 157.984 39.989 158.191C40.0367 158.39 40.1082 158.549 40.2037 158.668C40.2991 158.78 40.4184 158.859 40.5615 158.907C40.7046 158.955 40.8716 158.978 41.0624 158.978C41.3964 158.978 41.6628 158.943 41.8616 158.871C42.0683 158.791 42.2114 158.736 42.2909 158.704L42.5056 159.622C42.3943 159.678 42.1995 159.746 41.9212 159.825C41.6429 159.913 41.3248 159.956 40.967 159.956C40.5456 159.956 40.1957 159.905 39.9174 159.801C39.6471 159.69 39.4284 159.527 39.2614 159.312C39.0944 159.098 38.9752 158.835 38.9036 158.525C38.84 158.207 38.8082 157.841 38.8082 157.428V151.894L39.9174 151.703V153.623Z" fill="#414652"/>
<path d="M46.2614 174.667C46.2614 179.059 42.7014 182.619 38.3099 182.619C33.9184 182.619 30.3584 179.059 30.3584 174.667C30.3584 170.276 33.9184 166.716 38.3099 166.716C42.7014 166.716 46.2614 170.276 46.2614 174.667Z" fill="#FF444F"/>
<path d="M279.34 125.964C279.34 130.356 275.78 133.916 271.388 133.916C266.997 133.916 263.437 130.356 263.437 125.964C263.437 121.573 266.997 118.013 271.388 118.013C275.78 118.013 279.34 121.573 279.34 125.964Z" fill="#FF444F"/>
<path d="M286.329 124.043V115.777H291.375V116.767H287.486V119.224H290.945V120.19H287.486V123.053H291.673V124.043H286.329ZM293.072 118.02C293.326 117.956 293.664 117.888 294.086 117.817C294.507 117.745 294.992 117.71 295.541 117.71C296.034 117.71 296.443 117.781 296.769 117.924C297.095 118.059 297.354 118.254 297.545 118.509C297.743 118.755 297.882 119.053 297.962 119.403C298.042 119.753 298.081 120.139 298.081 120.56V124.043H296.972V120.799C296.972 120.417 296.944 120.091 296.889 119.821C296.841 119.55 296.757 119.332 296.638 119.165C296.519 118.998 296.36 118.878 296.161 118.807C295.962 118.727 295.716 118.688 295.421 118.688C295.302 118.688 295.179 118.692 295.052 118.7C294.925 118.708 294.801 118.719 294.682 118.735C294.571 118.743 294.467 118.755 294.372 118.771C294.284 118.787 294.221 118.799 294.181 118.807V124.043H293.072V118.02ZM303.928 119.153C303.793 119.041 303.598 118.934 303.344 118.831C303.089 118.727 302.811 118.676 302.509 118.676C302.191 118.676 301.917 118.735 301.686 118.855C301.463 118.966 301.28 119.125 301.137 119.332C300.994 119.53 300.891 119.769 300.827 120.047C300.764 120.326 300.732 120.624 300.732 120.942C300.732 121.665 300.911 122.226 301.268 122.624C301.626 123.013 302.103 123.208 302.7 123.208C303.002 123.208 303.252 123.196 303.451 123.172C303.658 123.14 303.817 123.109 303.928 123.077V119.153ZM303.928 114.978L305.037 114.787V123.864C304.783 123.936 304.457 124.007 304.059 124.079C303.662 124.15 303.205 124.186 302.688 124.186C302.211 124.186 301.781 124.111 301.4 123.959C301.018 123.808 300.692 123.594 300.422 123.315C300.151 123.037 299.941 122.699 299.789 122.302C299.646 121.896 299.575 121.443 299.575 120.942C299.575 120.465 299.634 120.027 299.754 119.63C299.881 119.232 300.064 118.89 300.302 118.604C300.541 118.318 300.831 118.095 301.173 117.936C301.523 117.777 301.92 117.698 302.366 117.698C302.724 117.698 303.038 117.745 303.308 117.841C303.586 117.936 303.793 118.028 303.928 118.115V114.978Z" fill="#414652"/>
<defs>
<filter id="filter0_d_2591_31478" x="0.0977015" y="0.175427" width="341.805" height="227.502" filterUnits="userSpaceOnUse" color-interpolation-filters="sRGB">
<feFlood flood-opacity="0" result="BackgroundImageFix"/>
<feColorMatrix in="SourceAlpha" type="matrix" values="0 0 0 0 0 0 0 0 0 0 0 0 0 0 0 0 0 0 127 0" result="hardAlpha"/>
<feOffset dy="1.38046"/>
<feGaussianBlur stdDeviation="3.45115"/>
<feComposite in2="hardAlpha" operator="out"/>
<feColorMatrix type="matrix" values="0 0 0 0 0 0 0 0 0 0 0 0 0 0 0 0 0 0 0.1 0"/>
<feBlend mode="normal" in2="BackgroundImageFix" result="effect1_dropShadow_2591_31478"/>
<feBlend mode="normal" in="SourceGraphic" in2="effect1_dropShadow_2591_31478" result="shape"/>
</filter>
</defs>
</svg>
