<svg width="239" height="64" viewBox="0 0 239 64" fill="none" xmlns="http://www.w3.org/2000/svg">
<g clip-path="url(#clip0_1108_39799)">
<rect x="0.318359" width="64" height="64" fill="#E03640"/>
<path d="M61.6533 2.66699L-2.34675 12.7686L-14.0801 66.667H49.9199L61.6533 2.66699Z" fill="#FF444F"/>
<g filter="url(#filter0_d_1108_39799)">
<path d="M23.8317 25.956C21.7971 25.956 20.3224 26.5253 19.4077 27.664C18.5117 28.784 18.0637 30.324 18.0637 32.284C18.0637 33.236 18.1757 34.104 18.3997 34.888C18.6237 35.6533 18.9597 36.316 19.4077 36.876C19.8557 37.436 20.4157 37.8747 21.0877 38.192C21.7597 38.4907 22.5437 38.64 23.4397 38.64C23.9251 38.64 24.3357 38.6307 24.6717 38.612C25.0264 38.5933 25.3344 38.556 25.5957 38.5V31.752H29.9637V41.356C29.4411 41.5613 28.6011 41.776 27.4437 42C26.2864 42.2427 24.8584 42.364 23.1597 42.364C21.7037 42.364 20.3784 42.14 19.1837 41.692C18.0077 41.244 16.9997 40.5907 16.1597 39.732C15.3197 38.8733 14.6664 37.8187 14.1997 36.568C13.7517 35.3173 13.5277 33.8893 13.5277 32.284C13.5277 30.66 13.7797 29.2227 14.2837 27.972C14.7877 26.7213 15.4784 25.6667 16.3557 24.808C17.2331 23.9307 18.2597 23.268 19.4357 22.82C20.6304 22.372 21.8997 22.148 23.2437 22.148C24.1584 22.148 24.9797 22.2133 25.7077 22.344C26.4544 22.456 27.0891 22.596 27.6117 22.764C28.1531 22.9133 28.5917 23.072 28.9277 23.24C29.2824 23.408 29.5344 23.5387 29.6837 23.632L28.4237 27.132C27.8264 26.8147 27.1357 26.544 26.3517 26.32C25.5864 26.0773 24.7464 25.956 23.8317 25.956ZM36.2959 32.284C36.2959 33.236 36.4079 34.0947 36.6319 34.86C36.8746 35.6253 37.2106 36.288 37.6399 36.848C38.0879 37.3893 38.6292 37.8093 39.2639 38.108C39.8986 38.4067 40.6266 38.556 41.4479 38.556C42.2506 38.556 42.9692 38.4067 43.6039 38.108C44.2572 37.8093 44.7986 37.3893 45.2279 36.848C45.6759 36.288 46.0119 35.6253 46.2359 34.86C46.4786 34.0947 46.5999 33.236 46.5999 32.284C46.5999 31.332 46.4786 30.4733 46.2359 29.708C46.0119 28.924 45.6759 28.2613 45.2279 27.72C44.7986 27.16 44.2572 26.7307 43.6039 26.432C42.9692 26.1333 42.2506 25.984 41.4479 25.984C40.6266 25.984 39.8986 26.1427 39.2639 26.46C38.6292 26.7587 38.0879 27.188 37.6399 27.748C37.2106 28.2893 36.8746 28.952 36.6319 29.736C36.4079 30.5013 36.2959 31.3507 36.2959 32.284ZM51.1079 32.284C51.1079 33.9453 50.8559 35.4107 50.3519 36.68C49.8666 37.9307 49.1946 38.9853 48.3359 39.844C47.4772 40.684 46.4506 41.3187 45.2559 41.748C44.0799 42.1773 42.8106 42.392 41.4479 42.392C40.1226 42.392 38.8719 42.1773 37.6959 41.748C36.5199 41.3187 35.4932 40.684 34.6159 39.844C33.7386 38.9853 33.0479 37.9307 32.5439 36.68C32.0399 35.4107 31.7879 33.9453 31.7879 32.284C31.7879 30.6227 32.0492 29.1667 32.5719 27.916C33.0946 26.6467 33.7946 25.5827 34.6719 24.724C35.5679 23.8653 36.5946 23.2213 37.7519 22.792C38.9279 22.3627 40.1599 22.148 41.4479 22.148C42.7732 22.148 44.0239 22.3627 45.1999 22.792C46.3759 23.2213 47.4026 23.8653 48.2799 24.724C49.1572 25.5827 49.8479 26.6467 50.3519 27.916C50.8559 29.1667 51.1079 30.6227 51.1079 32.284Z" fill="white"/>
</g>
</g>
<path fill-rule="evenodd" clip-rule="evenodd" d="M99.4806 17.691L97.9052 26.6252H92.4367C87.3349 26.6252 82.4721 30.7586 81.5708 35.8604L81.1893 38.0319C80.2922 43.1338 83.6962 47.2673 88.798 47.2673H93.3589C97.0773 47.2673 100.62 44.2572 101.274 40.5389L105.474 16.7275L99.4806 17.691ZM95.6004 39.6962C95.3991 40.8449 94.365 41.7798 93.2164 41.7798H90.4455C88.1524 41.7798 86.6181 39.9184 87.0205 37.6211L87.2595 36.2671C87.6661 33.9739 89.8544 32.1084 92.1474 32.1084H96.9383L95.6004 39.6962ZM141.595 47.2682H147.271L150.86 26.9111H145.184L141.595 47.2682ZM141.784 29.5697L141.784 29.5672L141.784 29.5647C141.927 28.7587 142.069 27.9526 142.211 27.1467C136.387 25.6459 131.85 27.1985 130.003 27.9635C130.003 27.9635 127.368 42.9003 126.597 47.274H132.276C133.198 42.0468 134.12 36.8184 135.041 31.5911C135.893 31.4212 138.667 31.1551 141.356 31.9907C141.499 31.1837 141.641 30.3767 141.784 29.5697ZM119.191 26.6221H114.777C110.472 26.6221 106.368 30.1099 105.609 34.4152L104.716 39.4751C103.957 43.7804 106.829 47.2683 111.134 47.2683H120.533L121.497 41.7976H112.664C111.231 41.7976 110.271 40.6363 110.527 39.1984L110.556 39.0266H124.796L125.61 34.4152C126.368 30.1099 123.497 26.6221 119.191 26.6221ZM119.912 33.9792L119.879 34.2727H111.411L111.457 34.0128C111.713 32.5791 113.021 31.3173 114.459 31.3173H117.766C119.187 31.3173 120.147 32.5581 119.912 33.9792ZM160.725 40.3384C163.302 35.7018 166.143 29.6186 167.327 26.9111H173.011C171.077 32.0556 166.642 40.8066 162.347 47.2682H156.667C154.695 41.1183 153.422 32.5496 153.179 26.9111H158.859C158.962 28.7504 159.785 35.5725 160.725 40.3384Z" fill="#414652"/>
<path d="M194.601 23.934C191.549 23.934 189.337 24.788 187.965 26.496C186.621 28.176 185.949 30.486 185.949 33.426C185.949 34.854 186.117 36.156 186.453 37.332C186.789 38.48 187.293 39.474 187.965 40.314C188.637 41.154 189.477 41.812 190.485 42.288C191.493 42.736 192.669 42.96 194.013 42.96C194.741 42.96 195.357 42.946 195.861 42.918C196.393 42.89 196.855 42.834 197.247 42.75V32.628H203.799V47.034C203.015 47.342 201.755 47.664 200.019 48C198.283 48.364 196.141 48.546 193.593 48.546C191.409 48.546 189.421 48.21 187.629 47.538C185.865 46.866 184.353 45.886 183.093 44.598C181.833 43.31 180.853 41.728 180.153 39.852C179.481 37.976 179.145 35.834 179.145 33.426C179.145 30.99 179.523 28.834 180.279 26.958C181.035 25.082 182.071 23.5 183.387 22.212C184.703 20.896 186.243 19.902 188.007 19.23C189.799 18.558 191.703 18.222 193.719 18.222C195.091 18.222 196.323 18.32 197.415 18.516C198.535 18.684 199.487 18.894 200.271 19.146C201.083 19.37 201.741 19.608 202.245 19.86C202.777 20.112 203.155 20.308 203.379 20.448L201.489 25.698C200.593 25.222 199.557 24.816 198.381 24.48C197.233 24.116 195.973 23.934 194.601 23.934ZM213.297 33.426C213.297 34.854 213.465 36.142 213.801 37.29C214.165 38.438 214.669 39.432 215.313 40.272C215.985 41.084 216.797 41.714 217.749 42.162C218.701 42.61 219.793 42.834 221.025 42.834C222.229 42.834 223.307 42.61 224.259 42.162C225.239 41.714 226.051 41.084 226.695 40.272C227.367 39.432 227.871 38.438 228.207 37.29C228.571 36.142 228.753 34.854 228.753 33.426C228.753 31.998 228.571 30.71 228.207 29.562C227.871 28.386 227.367 27.392 226.695 26.58C226.051 25.74 225.239 25.096 224.259 24.648C223.307 24.2 222.229 23.976 221.025 23.976C219.793 23.976 218.701 24.214 217.749 24.69C216.797 25.138 215.985 25.782 215.313 26.622C214.669 27.434 214.165 28.428 213.801 29.604C213.465 30.752 213.297 32.026 213.297 33.426ZM235.515 33.426C235.515 35.918 235.137 38.116 234.381 40.02C233.653 41.896 232.645 43.478 231.357 44.766C230.069 46.026 228.529 46.978 226.737 47.622C224.973 48.266 223.069 48.588 221.025 48.588C219.037 48.588 217.161 48.266 215.397 47.622C213.633 46.978 212.093 46.026 210.777 44.766C209.461 43.478 208.425 41.896 207.669 40.02C206.913 38.116 206.535 35.918 206.535 33.426C206.535 30.934 206.927 28.75 207.711 26.874C208.495 24.97 209.545 23.374 210.861 22.086C212.205 20.798 213.745 19.832 215.481 19.188C217.245 18.544 219.093 18.222 221.025 18.222C223.013 18.222 224.889 18.544 226.653 19.188C228.417 19.832 229.957 20.798 231.273 22.086C232.589 23.374 233.625 24.97 234.381 26.874C235.137 28.75 235.515 30.934 235.515 33.426Z" fill="#414652"/>
<defs>
<filter id="filter0_d_1108_39799" x="11.5273" y="21.1484" width="41.5801" height="24.2432" filterUnits="userSpaceOnUse" color-interpolation-filters="sRGB">
<feFlood flood-opacity="0" result="BackgroundImageFix"/>
<feColorMatrix in="SourceAlpha" type="matrix" values="0 0 0 0 0 0 0 0 0 0 0 0 0 0 0 0 0 0 127 0" result="hardAlpha"/>
<feOffset dy="1"/>
<feGaussianBlur stdDeviation="1"/>
<feColorMatrix type="matrix" values="0 0 0 0 0.054902 0 0 0 0 0.054902 0 0 0 0 0.054902 0 0 0 0.05 0"/>
<feBlend mode="normal" in2="BackgroundImageFix" result="effect1_dropShadow_1108_39799"/>
<feBlend mode="normal" in="SourceGraphic" in2="effect1_dropShadow_1108_39799" result="shape"/>
</filter>
<clipPath id="clip0_1108_39799">
<rect x="0.318359" width="64" height="64" rx="12" fill="white"/>
</clipPath>
</defs>
</svg>
