<svg xmlns="http://www.w3.org/2000/svg" width="32" height="32" viewBox="0 0 32 32">
    <defs>
        <linearGradient id="8agca54iea" x1="51.548%" x2="51.548%" y1="-.047%" y2="100%">
            <stop offset="0%" stop-color="#FF5733"/>
            <stop offset="100%" stop-color="#FF253F"/>
        </linearGradient>
    </defs>
    <g fill="none" fill-rule="evenodd">
        <g fill-rule="nonzero">
            <g>
                <g>
                    <g transform="translate(-16 -962) translate(0 945) translate(16 12) translate(0 5)">
                        <rect width="32" height="32" fill="#1A1A1A" rx="5.333"/>
                        <path fill="#FFF" d="M27.706 13.987c-.299-.799-.924-1.431-1.719-1.74-.407-.164-.869-.248-1.374-.248-.382-.001-.763.052-1.13.158-.356.104-.694.258-1.005.458-.31.2-.592.442-.837.718-.254.286-.468.606-.637.949-.179.362-.314.743-.404 1.136-.01.046-.019.094-.03.14h-3.764l-.336 1.618h1.712c-.046.076-.096.15-.15.22-.176.233-.398.427-.653.569-.24.133-.511.201-.786.199-.193.003-.385-.033-.564-.107-.16-.069-.303-.172-.419-.302-.123-.142-.217-.307-.277-.485-.071-.213-.105-.436-.102-.66-.003-.376.053-.751.168-1.11.1-.32.253-.618.453-.886.176-.235.4-.43.656-.573.24-.133.51-.203.785-.201.19-.003.38.034.555.107.16.07.302.173.417.303.124.143.218.308.278.487l1.903-.75c-.299-.798-.923-1.43-1.717-1.74-.408-.164-.87-.248-1.375-.248-.382-.001-.763.052-1.13.158-.355.104-.694.258-1.005.458-.31.2-.591.442-.837.718-.254.286-.468.605-.638.948-.178.362-.313.744-.403 1.137-.096.427-.144.863-.142 1.3-.004.443.077.883.238 1.296.151.391.382.748.677 1.047.301.3.66.535 1.055.692.408.164.867.248 1.365.248.382.001.762-.052 1.129-.159.353-.103.69-.256 1-.454.31-.2.592-.44.836-.717.253-.286.467-.604.637-.946.09-.177.167-.36.233-.547.035-.098.067-.199.096-.3.012.39.09.774.23 1.138.152.392.383.748.678 1.047.302.3.661.534 1.056.69.407.164.866.248 1.364.248.382.001.762-.052 1.13-.159.353-.103.69-.256 1-.454.31-.2.592-.44.836-.717.253-.286.467-.604.637-.946.18-.364.315-.747.403-1.143.094-.427.141-.864.14-1.301.003-.442-.076-.881-.233-1.294zm-1.966 2.53c-.099.317-.251.614-.45.88-.176.232-.398.426-.653.568-.24.133-.511.201-.786.199-.193.003-.385-.034-.563-.108-.16-.069-.303-.172-.42-.302-.122-.143-.216-.307-.277-.486-.07-.212-.104-.434-.101-.657-.003-.377.054-.752.168-1.111.1-.319.253-.618.453-.886.176-.234.4-.43.656-.573.24-.133.51-.203.786-.201.19-.003.38.034.555.107.16.07.302.173.417.303.124.143.219.308.279.487.07.212.105.434.102.657.003.38-.053.76-.166 1.122v.002z"/>
                        <path fill="url(#8agca54iea)" d="M5.816 12v.009L8.834 16 4 19.991V20h4.881c1.426 0 2.66-1 2.98-2.41l.405-1.78c.21-.923-.006-1.89-.587-2.636-.574-.739-1.457-1.172-2.393-1.174h-3.47z"/>
                        <path fill="#C4002B" d="M8.832 16.008L6.709 20 4 20z"/>
                    </g>
                </g>
            </g>
        </g>
    </g>
</svg>
