<svg width="32" height="32" fill="none" xmlns="http://www.w3.org/2000/svg"><path d="M0 6a6 6 0 0 1 6-6h20a6 6 0 0 1 6 6v20a6 6 0 0 1-6 6H6a6 6 0 0 1-6-6V6Z" fill="#0E0E0E"/><path d="m5.968 12 3.062 4-4.909 4h4.962a3.111 3.111 0 0 0 3.03-2.412l.411-1.779A3.108 3.108 0 0 0 9.494 12H5.968Z" fill="url(#a)"/><path d="m9.03 16-2.182 4H4.121l4.91-4Z" fill="#CC2E3D"/><path d="M27.675 13.984a2.986 2.986 0 0 0-1.716-1.736A3.646 3.646 0 0 0 24.588 12a4.014 4.014 0 0 0-1.129.158 3.838 3.838 0 0 0-1.002.457c-.31.2-.59.441-.836.717a4.265 4.265 0 0 0-.636.947 5.165 5.165 0 0 0-.403 1.134c-.01.046-.018.093-.029.14h-3.757l-.336 1.614h1.709c-.046.076-.096.15-.15.22a2.086 2.086 0 0 1-.652.567c-.24.133-.51.201-.784.199a1.402 1.402 0 0 1-.563-.106 1.18 1.18 0 0 1-.418-.302 1.452 1.452 0 0 1-.277-.485 1.988 1.988 0 0 1-.101-.657 3.58 3.58 0 0 1 .167-1.11c.1-.317.253-.616.453-.883a2.09 2.09 0 0 1 .654-.571c.24-.134.51-.203.784-.201.19-.003.379.033.554.107.16.069.301.172.416.302.124.142.218.308.277.486l1.9-.75a2.986 2.986 0 0 0-1.714-1.735A3.646 3.646 0 0 0 17.343 12a4.014 4.014 0 0 0-1.128.158 3.845 3.845 0 0 0-1.003.457c-.31.2-.59.441-.835.717a4.273 4.273 0 0 0-.637.946 5.161 5.161 0 0 0-.402 1.135 5.745 5.745 0 0 0-.142 1.297c-.004.442.077.881.237 1.293.151.391.382.747.676 1.046.3.299.66.534 1.053.69a3.62 3.62 0 0 0 1.362.248c.381.001.76-.052 1.127-.159a3.883 3.883 0 0 0 1.833-1.169c.252-.286.466-.603.636-.944a4.697 4.697 0 0 0 .328-.846c.012.39.09.773.23 1.136.151.391.382.747.677 1.046.3.298.659.533 1.053.688a3.62 3.62 0 0 0 1.362.248c.381.001.76-.052 1.126-.159a3.883 3.883 0 0 0 1.834-1.169 4.43 4.43 0 0 0 .636-.944c.18-.363.314-.746.401-1.14a5.89 5.89 0 0 0 .14-1.3 3.563 3.563 0 0 0-.232-1.291Zm-1.963 2.526c-.098.316-.25.612-.449.877a2.086 2.086 0 0 1-.652.567c-.24.133-.51.201-.784.199a1.403 1.403 0 0 1-.562-.108 1.18 1.18 0 0 1-.418-.301 1.46 1.46 0 0 1-.277-.485 1.99 1.99 0 0 1-.101-.656 3.54 3.54 0 0 1 .168-1.109c.1-.318.253-.616.452-.883.176-.235.399-.43.655-.572.24-.134.51-.203.784-.201.19-.003.378.033.554.107.159.069.3.172.416.302.124.142.218.308.278.486.07.212.105.433.102.656.004.38-.052.757-.166 1.12Z" fill="#fff"/><defs><linearGradient id="a" x1="9.481" y1="10.622" x2="7.887" y2="20.673" gradientUnits="userSpaceOnUse"><stop stop-color="#FF6444"/><stop offset="1" stop-color="#FF444F"/></linearGradient></defs></svg>