<svg xmlns="http://www.w3.org/2000/svg" width="213" height="27"><defs><linearGradient id="a" x1="50.853%" x2="57.866%" y1="36.321%" y2="63.368%"><stop offset="0%" stop-color="#FF5733"/><stop offset="100%" stop-color="#FF253F"/></linearGradient><linearGradient id="b" x1="63.183%" x2="43.781%" y1="-11.571%" y2="103.418%"><stop offset="0%" stop-color="#F26447"/><stop offset="100%" stop-color="#EF4852"/></linearGradient></defs><g fill-rule="nonzero" fill="none"><path fill="url(#a)" d="M204.01 27h-36.605a5.422 5.422 0 0 1-4.141-1.924 5.39 5.39 0 0 1-1.19-4.401l2.824-16.2c.218-1.253.872-2.388 1.847-3.207S168.953 0 170.227 0h36.606a5.421 5.421 0 0 1 4.139 1.925 5.393 5.393 0 0 1 1.19 4.4l-2.822 16.2a5.4 5.4 0 0 1-1.848 3.208A5.42 5.42 0 0 1 204.009 27z"/><path fill="#FFF" d="M204.784 8.525a7.5 7.5 0 0 0-1.654-2.585 7.622 7.622 0 0 0-2.601-1.71 9.09 9.09 0 0 0-3.401-.612 9.869 9.869 0 0 0-2.797.392 9.413 9.413 0 0 0-2.48 1.125 10.182 10.182 0 0 0-2.067 1.78 10.648 10.648 0 0 0-1.578 2.34c-.44.895-.775 1.839-.996 2.812-.027.112-.047.225-.07.344h-9.333l-.832 3.996h4.244c-.114.188-.237.37-.37.547a5.206 5.206 0 0 1-1.618 1.404 3.962 3.962 0 0 1-1.943.49 3.523 3.523 0 0 1-1.393-.265 2.946 2.946 0 0 1-1.037-.747c-.3-.353-.53-.76-.676-1.2a4.947 4.947 0 0 1-.252-1.628 8.753 8.753 0 0 1 .417-2.745 7.37 7.37 0 0 1 1.127-2.188c.436-.579.99-1.06 1.623-1.415.595-.33 1.266-.5 1.947-.497.471-.007.938.084 1.373.265.394.172.748.427 1.034.747.302.355.532.764.677 1.207l4.71-1.857a7.401 7.401 0 0 0-4.267-4.295 9.085 9.085 0 0 0-3.4-.612 9.88 9.88 0 0 0-2.798.392 9.428 9.428 0 0 0-2.48 1.125 10.148 10.148 0 0 0-2.07 1.775 10.58 10.58 0 0 0-1.578 2.34c-.44.896-.775 1.84-.997 2.812a14.16 14.16 0 0 0-.354 3.211 8.649 8.649 0 0 0 .589 3.2 7.576 7.576 0 0 0 1.679 2.585 7.73 7.73 0 0 0 2.61 1.707 9.023 9.023 0 0 0 3.38.613 9.853 9.853 0 0 0 2.794-.392 9.637 9.637 0 0 0 2.48-1.125 9.999 9.999 0 0 0 2.068-1.77 11.024 11.024 0 0 0 1.578-2.338c.22-.438.412-.889.575-1.35.085-.241.164-.489.225-.74.03.961.223 1.911.57 2.81a7.63 7.63 0 0 0 1.666 2.59 7.772 7.772 0 0 0 2.612 1.707 9.023 9.023 0 0 0 3.381.612 9.798 9.798 0 0 0 2.797-.392 9.619 9.619 0 0 0 2.48-1.124 9.942 9.942 0 0 0 2.067-1.771 10.937 10.937 0 0 0 1.578-2.338c.446-.897.78-1.844.998-2.822.234-1.055.35-2.134.345-3.215a8.793 8.793 0 0 0-.582-3.195zm-4.857 6.25a7.206 7.206 0 0 1-1.127 2.179 5.206 5.206 0 0 1-1.618 1.404 3.962 3.962 0 0 1-1.943.49 3.505 3.505 0 0 1-1.398-.265 2.946 2.946 0 0 1-1.037-.747 3.61 3.61 0 0 1-.687-1.2 4.921 4.921 0 0 1-.252-1.628 8.753 8.753 0 0 1 .417-2.745c.25-.788.63-1.527 1.127-2.188a5.233 5.233 0 0 1 1.622-1.415c.596-.33 1.267-.5 1.948-.497.47-.007.937.084 1.37.265.395.172.748.427 1.035.747.301.355.53.765.676 1.207a4.88 4.88 0 0 1 .255 1.622 9.006 9.006 0 0 1-.388 2.772zM140.537.05l3.62 18.85L154.325.05h6.252L145.234 27h-5.12L134.135.05h6.401zM50.59.05c8.277 0 13.01 5.77 11.7 13.302l-.013.076c-1.31 7.533-8.049 13.38-16.337 13.38H35.66L40.305.05H50.59zm57.217 0c3.352 0 5.784.956 7.202 2.713 1.21 1.49 1.64 3.6 1.197 6.118l-.014.076c-.74 4.318-3.51 7.034-7.08 8.296l4.777 9.556h-6.78l-6.31-13.759h4.364c2.827 0 4.713-1.539 5.103-3.785l.014-.076c.45-2.518-1.069-3.825-3.895-3.825h-5.752l-3.728 21.447h-5.8L95.753.049h12.054zm21.62 0-4.647 26.759h-5.802l4.648-26.76h5.801zm-39.399 0-.913 5.235H74.994l-.947 5.43h9.124l-.901 5.238h-9.131l-.976 5.613h14.313l-.902 5.238H65.491L70.14.05h19.889zM49.666 5.361h-4.48l-2.811 16.132h4.483c4.744 0 8.51-3.249 9.333-7.99l.014-.076c.831-4.739-1.792-8.066-6.539-8.066z"/><path fill="url(#b)" d="M6.14 0v.03L16.344 13.5 0 26.97V27h16.504a10.393 10.393 0 0 0 6.466-2.305 10.36 10.36 0 0 0 3.611-5.831l1.368-6.008a10.616 10.616 0 0 0-1.983-8.894A10.3 10.3 0 0 0 17.869 0H6.14z"/><path fill="#CC2F3E" d="M16.337 13.527 9.16 27H0z"/></g></svg>