<svg width="48" height="48" viewBox="0 0 48 48" fill="none" xmlns="http://www.w3.org/2000/svg">
<path d="M3 18V32C3 34.21 4.79 36 7 36H13C15.21 36 17 34.21 17 32V28" stroke="#414652" stroke-width="2" stroke-linecap="round" stroke-linejoin="round"/>
<path d="M17 20V16C17 13.79 15.21 12 13 12H7C4.79 12 3 13.79 3 16V18" stroke="#414652" stroke-width="2" stroke-linecap="round" stroke-linejoin="round"/>
<path d="M13 32H7" stroke="#414652" stroke-width="2" stroke-miterlimit="10" stroke-linecap="round"/>
<path fill-rule="evenodd" clip-rule="evenodd" d="M45.0009 17V31C45.0009 33.21 43.2109 35 41.0009 35H25.0009C22.7909 35 21.0009 33.21 21.0009 31V27L17.4609 23.46H21.0009V17C21.0009 14.79 22.7909 13 25.0009 13H41.0009C43.2109 13 45.0009 14.79 45.0009 17Z" stroke="#414652" stroke-width="2" stroke-linecap="round" stroke-linejoin="round"/>
<path d="M37 27H38C39.1046 27 40 26.1046 40 25V24C40 22.8954 39.1046 22 38 22H37C35.8954 22 35 22.8954 35 24V25C35 26.1046 35.8954 27 37 27Z" stroke="#414652" stroke-width="2" stroke-linecap="round" stroke-linejoin="round"/>
<path d="M37.5 22V18" stroke="#414652" stroke-width="2" stroke-linecap="round" stroke-linejoin="round"/>
<path d="M37.5 27V30" stroke="#414652" stroke-width="2" stroke-linecap="round" stroke-linejoin="round"/>
<path d="M28 28H29C30.1046 28 31 27.1046 31 26V22C31 20.8954 30.1046 20 29 20H28C26.8954 20 26 20.8954 26 22V26C26 27.1046 26.8954 28 28 28Z" stroke="#414652" stroke-width="2" stroke-linecap="round" stroke-linejoin="round"/>
<path d="M28.5 20V18" stroke="#414652" stroke-width="2" stroke-linecap="round" stroke-linejoin="round"/>
<path d="M28.5 28V30" stroke="#414652" stroke-width="2" stroke-linecap="round" stroke-linejoin="round"/>
</svg>
