<svg width="48" height="48" viewBox="0 0 48 48" fill="none" xmlns="http://www.w3.org/2000/svg">
<g clip-path="url(#clip0_1637_4480)">
<path d="M8.99987 0C4.02938 0 0 4.02938 0 8.99987V9.26136L44.8711 2.17899C43.295 0.821009 41.2431 0 38.9995 0H8.99987Z" fill="#E12E3A"/>
<path d="M45.7973 3.10158L37.566 47.9993H38.9995C43.97 47.9993 47.9993 43.97 47.9993 38.9995V8.99987C47.9993 6.74356 47.169 4.68116 45.7973 3.10158Z" fill="#E12E3A"/>
<path fill-rule="evenodd" clip-rule="evenodd" d="M37.566 47.9993L8.99987 48C4.02938 48 0 43.9706 0 39.0001V9.26136L44.8711 2.17899C45.2016 2.46378 45.5112 2.77218 45.7973 3.10158L37.566 47.9993Z" fill="#FF444F"/>
<path d="M12.7942 31.2765V16.7235H22.6222V19.4745H16.0702V22.3305H21.8872V25.0185H16.0702V28.5255H23.1052V31.2765H12.7942Z" fill="white"/>
<path d="M34.9741 18.9915C34.5261 19.4535 33.9941 20.0555 33.3781 20.7975C32.7621 21.5255 32.1251 22.3235 31.4671 23.1915C30.8091 24.0595 30.1581 24.9555 29.5141 25.8795C28.8701 26.8035 28.2961 27.6855 27.7921 28.5255H35.2051V31.2765H23.7601V29.3235C24.1521 28.6095 24.6281 27.8185 25.1881 26.9505C25.7621 26.0685 26.3571 25.1865 26.9731 24.3045C27.5891 23.4085 28.2121 22.5475 28.8421 21.7215C29.4861 20.8815 30.0811 20.1325 30.6271 19.4745H24.0961V16.7235H34.9741V18.9915Z" fill="white"/>
</g>
<defs>
<clipPath id="clip0_1637_4480">
<rect width="48" height="48" fill="white"/>
</clipPath>
</defs>
</svg>
