<svg width="48" height="48" viewBox="0 0 48 48" fill="none" xmlns="http://www.w3.org/2000/svg">
<path d="M31 30V32C31 34.21 29.21 36 27 36H21C18.79 36 17 34.21 17 32V25" stroke="#414652" stroke-width="2" stroke-miterlimit="10"/>
<path d="M17 20V16C17 13.79 18.79 12 21 12H27C29.21 12 31 13.79 31 16V25" stroke="#414652" stroke-width="2" stroke-miterlimit="10"/>
<path d="M21.1602 32H26.8402" stroke="#414652" stroke-width="2" stroke-miterlimit="10" stroke-linecap="round"/>
<path d="M39 37C36.79 37 35 35.21 35 33C35 30.79 33.21 29 31 29H30C27.79 29 26 27.21 26 25C26 24.45 26.45 24 27 24H33" stroke="#414652" stroke-width="2" stroke-linecap="round" stroke-linejoin="round"/>
<path d="M32 19H34C38.42 19 42 22.58 42 27V29" stroke="#414652" stroke-width="2" stroke-linecap="round" stroke-linejoin="round"/>
<path d="M9 33C11.21 33 13 31.21 13 29C13 26.79 14.79 25 17 25H18C20.21 25 22 23.21 22 21C22 20.45 21.55 20 21 20H15" stroke="#414652" stroke-width="2" stroke-linecap="round" stroke-linejoin="round"/>
<path d="M16 15H14C9.58 15 6 18.58 6 23V25" stroke="#414652" stroke-width="2" stroke-linecap="round" stroke-linejoin="round"/>
<path d="M31 30V32C31 34.21 29.21 36 27 36H21C18.79 36 17 34.21 17 32V25" stroke="#414652" stroke-width="2" stroke-miterlimit="10"/>
<path d="M17 20V16C17 13.79 18.79 12 21 12H27C29.21 12 31 13.79 31 16V25" stroke="#414652" stroke-width="2" stroke-miterlimit="10"/>
<path d="M21.1602 32H26.8402" stroke="#414652" stroke-width="2" stroke-miterlimit="10" stroke-linecap="round"/>
<path d="M39 37C36.79 37 35 35.21 35 33C35 30.79 33.21 29 31 29H30C27.79 29 26 27.21 26 25C26 24.45 26.45 24 27 24H33" stroke="#414652" stroke-width="2" stroke-linecap="round" stroke-linejoin="round"/>
<path d="M32 19H34C38.42 19 42 22.58 42 27V29" stroke="#414652" stroke-width="2" stroke-linecap="round" stroke-linejoin="round"/>
<path d="M9 33C11.21 33 13 31.21 13 29C13 26.79 14.79 25 17 25H18C20.21 25 22 23.21 22 21C22 20.45 21.55 20 21 20H15" stroke="#414652" stroke-width="2" stroke-linecap="round" stroke-linejoin="round"/>
<path d="M16 15H14C9.58 15 6 18.58 6 23V25" stroke="#414652" stroke-width="2" stroke-linecap="round" stroke-linejoin="round"/>
</svg>
