<svg xmlns="http://www.w3.org/2000/svg" width="64" height="64"><g fill="#FF6444" fill-rule="evenodd"><circle cx="32" cy="32" r="32" fill-opacity=".08" fill-rule="nonzero"/><path fill-opacity=".48" d="M40.667 20A5.333 5.333 0 0 1 46 25.333v16.334A5.333 5.333 0 0 1 40.667 47H23.333A5.333 5.333 0 0 1 18 41.667V25.333A5.333 5.333 0 0 1 23.333 20h17.334zM40 33h-4v4h4v-4zm-6 0h-4v4h4v-4zm-6 0h-4v4h4v-4z"/><path d="M39 17a1 1 0 0 1 1 1v1.999L42 20a4 4 0 0 1 3.995 3.8L46 24H18c0-2.21 1.79-4 4-4l1.999-.001L24 18a1 1 0 0 1 2 0l-.001 1.999H38V18a1 1 0 0 1 1-1z"/></g></svg>