<svg width="52" height="52" viewBox="0 0 52 52" fill="none" xmlns="http://www.w3.org/2000/svg">
<g filter="url(#filter0_d_1637_4372)">
<path d="M11 1C6.02944 1 2 5.02944 2 10V10.2615L46.8717 3.17902C45.2956 1.82102 43.2437 1 41 1H11Z" fill="#E03640"/>
<path d="M47.7979 4.10163L39.5666 49H41C45.9706 49 50 44.9706 50 40V10C50 7.74365 49.1697 5.68123 47.7979 4.10163Z" fill="#E03640"/>
<path fill-rule="evenodd" clip-rule="evenodd" d="M39.5666 49H11C6.02944 49 2 44.9706 2 40V10.2615L46.8717 3.17902C47.2022 3.46381 47.5119 3.77222 47.7979 4.10163L39.5666 49Z" fill="#FF444F"/>
<path d="M15.776 29.554C15.93 29.568 16.105 29.582 16.301 29.596C16.511 29.596 16.756 29.596 17.036 29.596C18.674 29.596 19.885 29.183 20.669 28.357C21.467 27.531 21.866 26.39 21.866 24.934C21.866 23.408 21.488 22.253 20.732 21.469C19.976 20.685 18.779 20.293 17.141 20.293C16.917 20.293 16.686 20.3 16.448 20.314C16.21 20.314 15.986 20.328 15.776 20.356V29.554ZM25.247 24.934C25.247 26.194 25.051 27.293 24.659 28.231C24.267 29.169 23.707 29.946 22.979 30.562C22.265 31.178 21.39 31.64 20.354 31.948C19.318 32.256 18.156 32.41 16.868 32.41C16.28 32.41 15.594 32.382 14.81 32.326C14.026 32.284 13.256 32.186 12.5 32.032V17.857C13.256 17.717 14.04 17.626 14.852 17.584C15.678 17.528 16.385 17.5 16.973 17.5C18.219 17.5 19.346 17.64 20.354 17.92C21.376 18.2 22.251 18.641 22.979 19.243C23.707 19.845 24.267 20.615 24.659 21.553C25.051 22.491 25.247 23.618 25.247 24.934Z" fill="white"/>
<path d="M31.7844 32.41C30.9864 32.41 30.1884 32.382 29.3904 32.326C28.6064 32.284 27.7874 32.172 26.9334 31.99V17.878C27.6054 17.752 28.3404 17.661 29.1384 17.605C29.9364 17.535 30.6784 17.5 31.3644 17.5C32.2884 17.5 33.1354 17.57 33.9054 17.71C34.6894 17.836 35.3614 18.06 35.9214 18.382C36.4814 18.704 36.9154 19.131 37.2234 19.663C37.5454 20.181 37.7064 20.825 37.7064 21.595C37.7064 22.757 37.1464 23.674 36.0264 24.346C36.9504 24.696 37.5804 25.172 37.9164 25.774C38.2524 26.376 38.4204 27.055 38.4204 27.811C38.4204 29.337 37.8604 30.485 36.7404 31.255C35.6344 32.025 33.9824 32.41 31.7844 32.41ZM30.1254 25.879V29.638C30.3634 29.666 30.6224 29.687 30.9024 29.701C31.1824 29.715 31.4904 29.722 31.8264 29.722C32.8064 29.722 33.5974 29.582 34.1994 29.302C34.8014 29.022 35.1024 28.504 35.1024 27.748C35.1024 27.076 34.8504 26.6 34.3464 26.32C33.8424 26.026 33.1214 25.879 32.1834 25.879H30.1254ZM30.1254 23.38H31.7214C32.7294 23.38 33.4504 23.254 33.8844 23.002C34.3184 22.736 34.5354 22.316 34.5354 21.742C34.5354 21.154 34.3114 20.741 33.8634 20.503C33.4154 20.265 32.7574 20.146 31.8894 20.146C31.6094 20.146 31.3084 20.153 30.9864 20.167C30.6644 20.167 30.3774 20.181 30.1254 20.209V23.38Z" fill="white"/>
</g>
<defs>
<filter id="filter0_d_1637_4372" x="0" y="0" width="52" height="52" filterUnits="userSpaceOnUse" color-interpolation-filters="sRGB">
<feFlood flood-opacity="0" result="BackgroundImageFix"/>
<feColorMatrix in="SourceAlpha" type="matrix" values="0 0 0 0 0 0 0 0 0 0 0 0 0 0 0 0 0 0 127 0" result="hardAlpha"/>
<feOffset dy="1"/>
<feGaussianBlur stdDeviation="1"/>
<feColorMatrix type="matrix" values="0 0 0 0 0.054902 0 0 0 0 0.054902 0 0 0 0 0.054902 0 0 0 0.05 0"/>
<feBlend mode="normal" in2="BackgroundImageFix" result="effect1_dropShadow_1637_4372"/>
<feBlend mode="normal" in="SourceGraphic" in2="effect1_dropShadow_1637_4372" result="shape"/>
</filter>
</defs>
</svg>
