<svg width="40" height="40" viewBox="0 0 40 40" fill="none" xmlns="http://www.w3.org/2000/svg"><path d="M0 7.5A7.5 7.5 0 0 1 7.5 0h25A7.5 7.5 0 0 1 40 7.5v25a7.5 7.5 0 0 1-7.5 7.5h-25A7.5 7.5 0 0 1 0 32.5v-25Z" fill="#0E0E0E"/><g clip-path="url(#a)"><path d="M26.082 13.125h-4.07L25.216 20l-5.629 6.875h4.073L29.286 20l-3.204-6.875Zm5.22 0h4.119l-4.884 5.908-1.476-3.17 2.241-2.738Zm-2.426 13.75-1.274-2.736 2.594-3.17 2.752 5.906h-4.072Z" fill="#fff"/><path d="M7.97 13.125 13.232 20l-8.437 6.875h8.528a5.349 5.349 0 0 0 5.208-4.145l.706-3.059a5.344 5.344 0 0 0-5.208-6.546H7.97Z" fill="url(#b)"/><path d="m13.233 20-3.75 6.875H4.796L13.233 20Z" fill="#CC2E3D"/></g><defs><linearGradient id="b" x1="14.008" y1="10.756" x2="11.269" y2="28.032" gradientUnits="userSpaceOnUse"><stop stop-color="#FF6444"/><stop offset="1" stop-color="#FF444F"/></linearGradient><clipPath id="a"><path fill="#fff" transform="translate(4.588 12.5)" d="M0 0h30.833v15H0z"/></clipPath></defs></svg>
