<svg width="1307" height="1307" viewBox="0 0 1307 1307" fill="none" xmlns="http://www.w3.org/2000/svg">
<g clip-path="url(#clip0_8236_2925)">
<rect width="1306.67" height="1306.67" fill="black"/>
<path d="M0 653.333V1306.67H653.333H1306.67V653.333V-0.000108838H653.333H0V653.333ZM293.333 200V293.333H200H106.667V200V106.667H200H293.333V200ZM373.333 146.667V186.667H386.667H400V146.667V106.667H413.333H426.667V120V133.333H440H453.333V120V106.667H520H586.667V120V133.333H573.333H560V146.667V160H586.667H613.333V133.333V106.667H626.667H640V146.667V186.667H666.667H693.333V146.667V106.667H706.667H720V133.333V160H733.333H746.667V146.667V133.333H760H773.333V120V106.667H786.667H800V120V133.333H826.667H853.333V120V106.667H866.667H880V120V133.333H866.667H853.333V146.667V160H826.667H800V173.333V186.667H826.667H853.333V200V213.333H866.667H880V200V186.667H893.333H906.667V160V133.333H920H933.333V173.333V213.333H960H986.667V266.667V320H1026.67H1066.67V333.333V346.667H1080H1093.33V360V373.333H1080H1066.67V386.667V400H1093.33H1120V413.333V426.667H1146.67H1173.33V413.333V400H1186.67H1200V413.333V426.667H1186.67H1173.33V440V453.333H1186.67H1200V466.667V480H1186.67H1173.33V466.667V453.333H1146.67H1120V466.667V480H1106.67H1093.33V493.333V506.667H1106.67H1120V520V533.333H1133.33H1146.67V520V506.667H1160H1173.33V533.333V560H1186.67H1200V573.333V586.667H1173.33H1146.67V573.333V560H1133.33H1120V573.333V586.667H1106.67H1093.33V600V613.333H1106.67H1120V626.667V640H1133.33H1146.67V626.667V613.333H1173.33H1200V653.333V693.333H1173.33H1146.67V680V666.667H1133.33H1120V680V693.333H1106.67H1093.33V720V746.667H1120H1146.67V760V773.333H1173.33H1200V786.667V800H1173.33H1146.67V786.667V773.333H1133.33H1120V786.667V800H1093.33H1066.67V826.667V853.333H1053.33H1040V826.667V800H1026.67H1013.33V840V880H1053.33H1093.33V853.333V826.667H1106.67H1120V840V853.333H1133.33H1146.67V866.667V880H1133.33H1120V920V960H1160H1200V986.667V1013.33H1186.67H1173.33V1026.67V1040H1186.67H1200V1053.33V1066.67H1186.67H1173.33V1080V1093.33H1186.67H1200V1106.67V1120H1186.67H1173.33V1146.67V1173.33H1160H1146.67V1186.67V1200H1133.33H1120V1186.67V1173.33H1106.67H1093.33V1186.67V1200H1040H986.667V1186.67V1173.33H973.333H960V1186.67V1200H946.667H933.333V1186.67V1173.33H946.667H960V1160V1146.67H933.333H906.667V1066.67V986.667H893.333H880V1000V1013.33H866.667H853.333V1026.67V1040H866.667H880V1053.33V1066.67H866.667H853.333V1080V1093.33H866.667H880V1120V1146.67H853.333H826.667V1160V1173.33H866.667H906.667V1186.67V1200H853.333H800V1173.33V1146.67H746.667H693.333V1133.33V1120H680H666.667V1080V1040H653.333H640V1013.33V986.667H626.667H613.333V1000V1013.33H600H586.667V1040V1066.67H613.333H640V1093.33V1120H613.333H586.667V1133.33V1146.67H613.333H640V1160V1173.33H626.667H613.333V1186.67V1200H600H586.667V1186.67V1173.33H546.667H506.667V1186.67V1200H493.333H480V1186.67V1173.33H493.333H506.667V1160V1146.67H480H453.333V1173.33V1200H400H346.667V1186.67V1173.33H386.667H426.667V1160V1146.67H440H453.333V1133.33V1120H413.333H373.333V1093.33V1066.67H386.667H400V1040V1013.33H386.667H373.333V1026.67V1040H360H346.667V1026.67V1013.33H333.333H320V1000V986.667H293.333H266.667V973.333V960H240H213.333V973.333V986.667H186.667H160V973.333V960H173.333H186.667V946.667V933.333H173.333H160V920V906.667H146.667H133.333V946.667V986.667H120H106.667V906.667V826.667H120H133.333V813.333V800H120H106.667V786.667V773.333H120H133.333V760V746.667H120H106.667V733.333V720H120H133.333V733.333V746.667H173.333H213.333V760V773.333H200H186.667V800V826.667H160H133.333V853.333V880H146.667H160V893.333V906.667H173.333H186.667V920V933.333H213.333H240V906.667V880H226.667H213.333V853.333V826.667H226.667H240V800V773.333H253.333H266.667V760V746.667H293.333H320V760V773.333H293.333H266.667V786.667V800H280H293.333V813.333V826.667H266.667H240V853.333V880H253.333H266.667V866.667V853.333H293.333H320V840V826.667H346.667H373.333V813.333V800H400H426.667V786.667V773.333H440H453.333V800V826.667H413.333H373.333V840V853.333H346.667H320V866.667V880H293.333H266.667V893.333V906.667H293.333H320V933.333V960H333.333H346.667V946.667V933.333H360H373.333V920V906.667H360H346.667V893.333V880H360H373.333V893.333V906.667H386.667H400V893.333V880H426.667H453.333V866.667V853.333H466.667H480V826.667V800H493.333H506.667V813.333V826.667H520H533.333V813.333V800H546.667H560V826.667V853.333H546.667H533.333V866.667V880H546.667H560V893.333V906.667H573.333H586.667V893.333V880H600H613.333V893.333V906.667H626.667H640V933.333V960H653.333H666.667V973.333V986.667H680H693.333V1026.67V1066.67H706.667H720V1080V1093.33H706.667H693.333V1106.67V1120H720H746.667V1106.67V1093.33H760H773.333V1080V1066.67H800H826.667V1053.33V1040H813.333H800V1026.67V1013.33H826.667H853.333V1000V986.667H866.667H880V973.333V960H866.667H853.333V946.667V933.333H866.667H880V946.667V960H893.333H906.667V973.333V986.667H920H933.333V973.333V960H946.667H960V933.333V906.667H946.667H933.333V866.667V826.667H946.667H960V813.333V800H933.333H906.667V813.333V826.667H893.333H880V840V853.333H893.333H906.667V866.667V880H893.333H880V893.333V906.667H853.333H826.667V893.333V880H813.333H800V906.667V933.333H813.333H826.667V960V986.667H813.333H800V960V933.333H786.667H773.333V973.333V1013.33H760H746.667V1026.67V1040H733.333H720V1026.67V1013.33H733.333H746.667V1000V986.667H733.333H720V973.333V960H733.333H746.667V946.667V933.333H760H773.333V920V906.667H760H746.667V893.333V880H733.333H720V906.667V933.333H693.333H666.667V906.667V880H653.333H640V853.333V826.667H626.667H613.333V813.333V800H600H586.667V773.333V746.667H600H613.333V773.333V800H640H666.667V840V880H680H693.333V826.667V773.333H680H666.667V760V746.667H653.333H640V733.333V720H626.667H613.333V706.667V693.333H586.667H560V680V666.667H546.667H533.333V680V693.333H506.667H480V706.667V720H466.667H453.333V693.333V666.667H493.333H533.333V653.333V640H520H506.667V626.667V613.333H520H533.333V626.667V640H546.667H560V600V560H546.667H533.333V573.333V586.667H506.667H480V600V613.333H466.667H453.333V626.667V640H440H426.667V613.333V586.667H453.333H480V573.333V560H466.667H453.333V546.667V533.333H440H426.667V546.667V560H413.333H400V546.667V533.333H386.667H373.333V520V506.667H360H346.667V520V533.333H333.333H320V546.667V560H346.667H373.333V573.333V586.667H386.667H400V600V613.333H386.667H373.333V626.667V640H333.333H293.333V653.333V666.667H306.667H320V680V693.333H306.667H293.333V706.667V720H280H266.667V706.667V693.333H253.333H240V706.667V720H226.667H213.333V706.667V693.333H200H186.667V706.667V720H173.333H160V693.333V666.667H173.333H186.667V640V613.333H173.333H160V626.667V640H146.667H133.333V626.667V613.333H120H106.667V586.667V560H120H133.333V586.667V613.333H146.667H160V600V586.667H173.333H186.667V600V613.333H213.333H240V640V666.667H253.333H266.667V653.333V640H280H293.333V626.667V613.333H280H266.667V600V586.667H240H213.333V546.667V506.667H200H186.667V533.333V560H173.333H160V546.667V533.333H133.333H106.667V493.333V453.333H120H133.333V413.333V373.333H146.667H160V400V426.667H173.333H186.667V386.667V346.667H173.333H160V333.333V320H200H240V333.333V346.667H253.333H266.667V333.333V320H280H293.333V333.333V346.667H306.667H320V293.333V240H333.333H346.667V213.333V186.667H333.333H320V146.667V106.667H346.667H373.333V146.667ZM986.667 146.667V186.667H973.333H960V146.667V106.667H973.333H986.667V146.667ZM1200 200V293.333H1106.67H1013.33V200V106.667H1106.67H1200V200ZM1200 346.667V373.333H1186.67H1173.33V360V346.667H1160H1146.67V360V373.333H1133.33H1120V346.667V320H1160H1200V346.667ZM133.333 680V693.333H120H106.667V680V666.667H120H133.333V680ZM400 680V693.333H386.667H373.333V706.667V720H386.667H400V733.333V746.667H386.667H373.333V760V773.333H360H346.667V760V746.667H360H373.333V733.333V720H360H346.667V706.667V693.333H360H373.333V680V666.667H386.667H400V680ZM560 746.667V773.333H546.667H533.333V760V746.667H520H506.667V760V773.333H493.333H480V760V746.667H493.333H506.667V733.333V720H533.333H560V746.667ZM1200 733.333V746.667H1186.67H1173.33V733.333V720H1186.67H1200V733.333ZM1200 893.333V906.667H1186.67H1173.33V893.333V880H1186.67H1200V893.333ZM293.333 1106.67V1200H200H106.667V1106.67V1013.33H200H293.333V1106.67ZM346.667 1106.67V1146.67H333.333H320V1106.67V1066.67H333.333H346.667V1106.67ZM693.333 1186.67V1200H680H666.667V1186.67V1173.33H680H693.333V1186.67ZM773.333 1186.67V1200H760H746.667V1186.67V1173.33H760H773.333V1186.67Z" fill="white"/>
<path d="M133.333 200V266.667H200H266.667V200V133.333H200H133.333V200ZM240 200V240H200H160V200V160H200H240V200Z" fill="white"/>
<path d="M480 146.667V160H453.334H426.667V173.333V186.667H413.334H400V200V213.333H413.334H426.667V240V266.667H413.334H400V253.333V240H386.667H373.334V253.333V266.667H360H346.667V280V293.333H360H373.334V280V266.667H386.667H400V280V293.333H413.334H426.667V306.667V320H386.667H346.667V346.667V373.333H360H373.334V360V346.667H400H426.667V333.333V320H440H453.334V306.667V293.333H466.667H480V266.667V240H533.334H586.667V253.333V266.667H573.334H560V306.667V346.667H546.667H533.334V360V373.333H520H506.667V400V426.667H493.334H480V413.333V400H466.667H453.334V413.333V426.667H440H426.667V440V453.333H413.334H400V426.667V400H386.667H373.334V413.333V426.667H360H346.667V413.333V400H333.334H320V386.667V373.333H306.667H293.334V360V346.667H280H266.667V360V373.333H253.333H240V386.667V400H226.667H213.333V413.333V426.667H226.667H240V453.333V480H226.667H213.333V493.333V506.667H226.667H240V533.333V560H253.333H266.667V573.333V586.667H293.334H320V573.333V560H293.334H266.667V546.667V533.333H280H293.334V520V506.667H306.667H320V493.333V480H333.334H346.667V466.667V453.333H373.334H400V466.667V480H386.667H373.334V493.333V506.667H386.667H400V493.333V480H426.667H453.334V506.667V533.333H466.667H480V546.667V560H506.667H533.334V546.667V533.333H546.667H560V520V506.667H546.667H533.334V520V533.333H506.667H480V520V506.667H493.334H506.667V466.667V426.667H520H533.334V440V453.333H546.667H560V466.667V480H573.334H586.667V493.333V506.667H600H613.334V520V533.333H600H586.667V546.667V560H600H613.334V573.333V586.667H600H586.667V613.333V640H573.334H560V653.333V666.667H573.334H586.667V653.333V640H613.334H640V626.667V613.333H653.334H666.667V640V666.667H640H613.334V680V693.333H640H666.667V680V666.667H680H693.334V653.333V640H706.667H720V653.333V666.667H733.334H746.667V653.333V640H786.667H826.667V653.333V666.667H813.334H800V680V693.333H746.667H693.334V706.667V720H680H666.667V733.333V746.667H693.334H720V773.333V800H733.334H746.667V773.333V746.667H760H773.334V760V773.333H786.667H800V786.667V800H826.667H853.334V813.333V826.667H866.667H880V813.333V800H866.667H853.334V786.667V773.333H866.667H880V760V746.667H893.334H906.667V760V773.333H933.334H960V786.667V800H973.334H986.667V786.667V773.333H1013.33H1040V760V746.667H1053.33H1066.67V760V773.333H1080H1093.33V760V746.667H1080H1066.67V733.333V720H1053.33H1040V706.667V693.333H1013.33H986.667V706.667V720H973.334H960V706.667V693.333H946.667H933.334V680V666.667H960H986.667V640V613.333H1013.33H1040V626.667V640H1026.67H1013.33V653.333V666.667H1026.67H1040V653.333V640H1053.33H1066.67V653.333V666.667H1080H1093.33V653.333V640H1080H1066.67V613.333V586.667H1040H1013.33V573.333V560H1026.67H1040V546.667V533.333H1053.33H1066.67V546.667V560H1093.33H1120V546.667V533.333H1106.67H1093.33V520V506.667H1066.67H1040V493.333V480H1026.67H1013.33V466.667V453.333H1026.67H1040V440V426.667H1053.33H1066.67V440V453.333H1080H1093.33V440V426.667H1080H1066.67V413.333V400H1053.33H1040V386.667V373.333H1026.67H1013.33V360V346.667H1000H986.667V360V373.333H1000H1013.33V400V426.667H1000H986.667V453.333V480H960H933.334V506.667V533.333H920H906.667V520V506.667H880H853.334V520V533.333H880H906.667V546.667V560H893.334H880V573.333V586.667H893.334H906.667V573.333V560H946.667H986.667V573.333V586.667H960H933.334V600V613.333H946.667H960V626.667V640H933.334H906.667V626.667V613.333H880H853.334V626.667V640H840H826.667V626.667V613.333H786.667H746.667V600V586.667H733.334H720V573.333V560H746.667H773.334V573.333V586.667H786.667H800V573.333V560H813.334H826.667V573.333V586.667H840H853.334V573.333V560H840H826.667V546.667V533.333H813.334H800V520V506.667H760H720V480V453.333H733.334H746.667V440V426.667H760H773.334V440V453.333H786.667H800V426.667V400H813.334H826.667V386.667V373.333H840H853.334V360V346.667H866.667H880V333.333V320H893.334H906.667V346.667V373.333H893.334H880V386.667V400H866.667H853.334V413.333V426.667H840H826.667V440V453.333H840H853.334V466.667V480H880H906.667V466.667V453.333H880H853.334V440V426.667H893.334H933.334V413.333V400H946.667H960V386.667V373.333H946.667H933.334V333.333V293.333H946.667H960V266.667V240H946.667H933.334V226.667V213.333H906.667H880V226.667V240H866.667H853.334V226.667V213.333H826.667H800V200V186.667H786.667H773.334V200V213.333H746.667H720V200V186.667H706.667H693.334V200V213.333H653.334H613.334V200V186.667H586.667H560V200V213.333H546.667H533.334V173.333V133.333H506.667H480V146.667ZM480 200V213.333H466.667H453.334V200V186.667H466.667H480V200ZM613.334 226.667V240H666.667H720V266.667V293.333H733.334H746.667V266.667V240H760H773.334V266.667V293.333H786.667H800V280V266.667H813.334H826.667V253.333V240H840H853.334V253.333V266.667H866.667H880V253.333V240H906.667H933.334V266.667V293.333H920H906.667V280V266.667H893.334H880V280V293.333H866.667H853.334V280V266.667H840H826.667V280V293.333H813.334H800V306.667V320H826.667H853.334V333.333V346.667H840H826.667V360V373.333H800H773.334V386.667V400H760H746.667V413.333V426.667H733.334H720V413.333V400H733.334H746.667V360V320H733.334H720V333.333V346.667H706.667H693.334V373.333V400H666.667H640V413.333V426.667H653.334H666.667V440V453.333H680H693.334V466.667V480H680H666.667V493.333V506.667H693.334H720V520V533.333H680H640V546.667V560H626.667H613.334V546.667V533.333H626.667H640V506.667V480H653.334H666.667V466.667V453.333H653.334H640V440V426.667H626.667H613.334V453.333V480H600H586.667V466.667V453.333H573.334H560V440V426.667H546.667H533.334V400V373.333H560H586.667V320V266.667H600H613.334V253.333V240H600H586.667V226.667V213.333H600H613.334V226.667ZM453.334 280V293.333H440H426.667V280V266.667H440H453.334V280ZM293.334 386.667V400H280H266.667V386.667V373.333H280H293.334V386.667ZM346.667 440V453.333H333.334H320V466.667V480H306.667H293.334V493.333V506.667H280H266.667V493.333V480H280H293.334V466.667V453.333H280H266.667V440V426.667H306.667H346.667V440ZM480 440V453.333H466.667H453.334V440V426.667H466.667H480V440ZM1013.33 493.333V506.667H1026.67H1040V520V533.333H1026.67H1013.33V546.667V560H1000H986.667V546.667V533.333H973.334H960V520V506.667H973.334H986.667V493.333V480H1000H1013.33V493.333ZM800 546.667V560H786.667H773.334V546.667V533.333H786.667H800V546.667ZM693.334 573.333V586.667H706.667H720V600V613.333H693.334H666.667V586.667V560H680H693.334V573.333ZM640 600V613.333H626.667H613.334V600V586.667H626.667H640V600ZM906.667 653.333V666.667H893.334H880V693.333V720H853.334H826.667V733.333V746.667H840H853.334V760V773.333H840H826.667V760V746.667H813.334H800V733.333V720H813.334H826.667V706.667V693.333H840H853.334V666.667V640H880H906.667V653.333ZM746.667 733.333V746.667H733.334H720V733.333V720H733.334H746.667V733.333ZM960 733.333V746.667H933.334H906.667V733.333V720H933.334H960V733.333ZM1013.33 733.333V746.667H1000H986.667V733.333V720H1000H1013.33V733.333Z" fill="white"/>
<path d="M613.333 320V373.333H600H586.667V386.667V400H573.333H560V413.333V426.667H573.333H586.667V413.333V400H600H613.333V386.667V373.333H640H666.667V360V346.667H680H693.333V333.333V320H680H666.667V333.333V346.667H653.333H640V306.667V266.667H626.667H613.333V320Z" fill="white"/>
<path d="M666.667 280V293.333H680H693.333V280V266.667H680H666.667V280Z" fill="white"/>
<path d="M746.667 306.667V320H760H773.333V333.333V346.667H786.667H800V333.333V320H786.667H773.333V306.667V293.333H760H746.667V306.667Z" fill="white"/>
<path d="M986.667 520V533.333H1000H1013.33V520V506.667H1000H986.667V520Z" fill="white"/>
<path d="M506.667 293.333V320H493.333H480V333.333V346.667H493.333H506.667V333.333V320H520H533.333V293.333V266.667H520H506.667V293.333Z" fill="white"/>
<path d="M133.333 493.333V506.667H146.667H160V493.333V480H146.667H133.333V493.333Z" fill="white"/>
<path d="M1146.67 653.333V666.667H1160H1173.33V653.333V640H1160H1146.67V653.333Z" fill="white"/>
<path d="M266.667 680V693.333H280H293.333V680V666.667H280H266.667V680Z" fill="white"/>
<path d="M133.333 786.667V800H146.667H160V786.667V773.333H146.667H133.333V786.667Z" fill="white"/>
<path d="M720 840V853.333H733.333H746.667V866.667V880H773.333H800V866.667V853.333H813.333H826.667V840V826.667H773.333H720V840Z" fill="white"/>
<path d="M853.333 866.667V880H866.667H880V866.667V853.333H866.667H853.333V866.667Z" fill="white"/>
<path d="M960 866.667V880H973.333H986.667V893.333V906.667H1000H1013.33V893.333V880H1000H986.667V866.667V853.333H973.333H960V866.667Z" fill="white"/>
<path d="M453.333 893.333V906.667H426.667H400V960V1013.33H426.667H453.333V1040V1066.67H426.667H400V1080V1093.33H440H480V1080V1066.67H493.333H506.667V1040V1013.33H533.333H560V1000V986.667H533.333H506.667V973.333V960H466.667H426.667V946.667V933.333H466.667H506.667V920V906.667H520H533.333V893.333V880H520H506.667V893.333V906.667H493.333H480V893.333V880H466.667H453.333V893.333Z" fill="white"/>
<path d="M586.667 920V933.333H573.333H560V946.667V960H586.667H613.333V933.333V906.667H600H586.667V920Z" fill="white"/>
<path d="M1040 933.333V960H1053.33H1066.67V946.667V933.333H1080H1093.33V920V906.667H1066.67H1040V933.333Z" fill="white"/>
<path d="M266.667 946.667V960H280H293.333V946.667V933.333H280H266.667V946.667Z" fill="white"/>
<path d="M986.667 1026.67V1066.67H1026.67H1066.67V1026.67V986.667H1026.67H986.667V1026.67ZM1040 1026.67V1040H1026.67H1013.33V1026.67V1013.33H1026.67H1040V1026.67Z" fill="white"/>
<path d="M1093.33 1000V1013.33H1120H1146.67V1000V986.667H1120H1093.33V1000Z" fill="white"/>
<path d="M1093.33 1066.67V1093.33H1080H1066.67V1106.67V1120H1080H1093.33V1106.67V1093.33H1106.67H1120V1080V1066.67H1146.67H1173.33V1053.33V1040H1133.33H1093.33V1066.67Z" fill="white"/>
<path d="M933.333 1080V1093.33H946.667H960V1080V1066.67H946.667H933.333V1080Z" fill="white"/>
<path d="M506.667 1106.67V1120H520H533.333V1133.33V1146.67H546.667H560V1133.33V1120H573.333H586.667V1106.67V1093.33H573.333H560V1106.67V1120H546.667H533.333V1106.67V1093.33H520H506.667V1106.67Z" fill="white"/>
<path d="M826.667 1106.67V1120H840H853.333V1106.67V1093.33H840H826.667V1106.67Z" fill="white"/>
<path d="M1013.33 1106.67V1120H1026.67H1040V1106.67V1093.33H1026.67H1013.33V1106.67Z" fill="white"/>
<path d="M1146.67 1106.67V1120H1160H1173.33V1106.67V1093.33H1160H1146.67V1106.67Z" fill="white"/>
<path d="M986.667 1160V1173.33H1000H1013.33V1160V1146.67H1000H986.667V1160Z" fill="white"/>
<path d="M1040 1160V1173.33H1053.33H1066.67V1160V1146.67H1053.33H1040V1160Z" fill="white"/>
<path d="M1120 1160V1173.33H1133.33H1146.67V1160V1146.67H1133.33H1120V1160Z" fill="white"/>
<path d="M1040 200V266.667H1106.67H1173.33V200V133.333H1106.67H1040V200ZM1146.67 200V240H1106.67H1066.67V200V160H1106.67H1146.67V200Z" fill="white"/>
<path d="M133.333 1106.67V1173.33H200H266.667V1106.67V1040H200H133.333V1106.67ZM240 1106.67V1146.67H200H160V1106.67V1066.67H200H240V1106.67Z" fill="white"/>
</g>
<defs>
<clipPath id="clip0_8236_2925">
<rect width="1306.67" height="1306.67" fill="white"/>
</clipPath>
</defs>
</svg>
