<svg width="65" height="64" viewBox="0 0 65 64" fill="none" xmlns="http://www.w3.org/2000/svg">
<g clip-path="url(#clip0_1218_14314)">
<rect x="0.25" width="64" height="64" fill="#E03640"/>
<path d="M61.5829 2.66602L-2.41706 12.7677L-14.1504 66.666H49.8496L61.5829 2.66602Z" fill="#FF444F"/>
<g filter="url(#filter0_d_1218_14314)">
<path d="M20.3217 38.444C20.527 38.4627 20.7603 38.4813 21.0217 38.5C21.3017 38.5 21.6283 38.5 22.0017 38.5C24.1857 38.5 25.8003 37.9493 26.8457 36.848C27.9097 35.7467 28.4417 34.2253 28.4417 32.284C28.4417 30.2493 27.9377 28.7093 26.9297 27.664C25.9217 26.6187 24.3257 26.096 22.1417 26.096C21.843 26.096 21.535 26.1053 21.2177 26.124C20.9003 26.124 20.6017 26.1427 20.3217 26.18V38.444ZM32.9497 32.284C32.9497 33.964 32.6883 35.4293 32.1657 36.68C31.643 37.9307 30.8963 38.9667 29.9257 39.788C28.9737 40.6093 27.807 41.2253 26.4257 41.636C25.0443 42.0467 23.495 42.252 21.7777 42.252C20.9937 42.252 20.079 42.2147 19.0337 42.14C17.9883 42.084 16.9617 41.9533 15.9537 41.748V22.848C16.9617 22.6613 18.007 22.54 19.0897 22.484C20.191 22.4093 21.1337 22.372 21.9177 22.372C23.579 22.372 25.0817 22.5587 26.4257 22.932C27.7883 23.3053 28.955 23.8933 29.9257 24.696C30.8963 25.4987 31.643 26.5253 32.1657 27.776C32.6883 29.0267 32.9497 30.5293 32.9497 32.284ZM45.2758 42C44.7345 40.9173 44.1371 39.8253 43.4838 38.724C42.8491 37.604 42.1118 36.4653 41.2718 35.308C41.0105 35.644 40.6745 36.1107 40.2638 36.708C39.8718 37.3053 39.4705 37.94 39.0598 38.612C38.6678 39.284 38.2945 39.928 37.9398 40.544C37.5851 41.16 37.3238 41.6453 37.1558 42H32.1718C32.9931 40.488 33.9451 38.9013 35.0278 37.24C36.1291 35.5787 37.3518 33.8147 38.6958 31.948L32.4518 22.596H37.7438L41.5238 28.644L45.2198 22.596H50.2038L44.0438 32.004C45.6118 34.0387 46.9278 35.924 47.9918 37.66C49.0558 39.3773 49.8958 40.824 50.5118 42H45.2758Z" fill="white"/>
</g>
</g>
<defs>
<filter id="filter0_d_1218_14314" x="13.9541" y="21.3721" width="38.5576" height="23.8799" filterUnits="userSpaceOnUse" color-interpolation-filters="sRGB">
<feFlood flood-opacity="0" result="BackgroundImageFix"/>
<feColorMatrix in="SourceAlpha" type="matrix" values="0 0 0 0 0 0 0 0 0 0 0 0 0 0 0 0 0 0 127 0" result="hardAlpha"/>
<feOffset dy="1"/>
<feGaussianBlur stdDeviation="1"/>
<feColorMatrix type="matrix" values="0 0 0 0 0.054902 0 0 0 0 0.054902 0 0 0 0 0.054902 0 0 0 0.05 0"/>
<feBlend mode="normal" in2="BackgroundImageFix" result="effect1_dropShadow_1218_14314"/>
<feBlend mode="normal" in="SourceGraphic" in2="effect1_dropShadow_1218_14314" result="shape"/>
</filter>
<clipPath id="clip0_1218_14314">
<rect x="0.25" width="64" height="64" rx="12" fill="white"/>
</clipPath>
</defs>
</svg>
