<svg width="32" height="32" viewBox="0 0 32 32" xmlns="http://www.w3.org/2000/svg">
    <defs>
        <linearGradient x1="63.183%" y1="-9.799%" x2="44.398%" y2="101.954%" id="a">
            <stop stop-color="#F26447" offset="0%"/>
            <stop stop-color="#EF4852" offset="100%"/>
        </linearGradient>
    </defs>
    <g fill-rule="nonzero" fill="none">
        <path d="M0 6a6 6 0 0 1 6-6h20a6 6 0 0 1 6 6v20a6 6 0 0 1-6 6H6a6 6 0 0 1-6-6V6z" fill="#FFF"/>
        <path d="m6.706 10.5 4.21 5.5-6.75 5.5h6.823a4.279 4.279 0 0 0 4.167-3.316l.565-2.447a4.275 4.275 0 0 0-4.167-5.237H6.706z" fill="url(#a)"/>
        <path fill="#CC2F3E" d="m10.917 16-3 5.5h-3.75z"/>
        <path fill="#0E0E0E" d="M20.526 10.5H17.27l2.563 5.5-4.503 5.5h3.258l4.5-5.5zM24.702 10.5h3.295l-3.907 4.726-1.18-2.535zM22.76 21.5l-1.019-2.189 2.076-2.535 2.201 4.724z"/>
    </g>
</svg>
