<svg width="32" height="32" viewBox="0 0 32 32" fill="none" xmlns="http://www.w3.org/2000/svg">
<g clip-path="url(#clip0_2811_20893)">
<path fill-rule="evenodd" clip-rule="evenodd" d="M8.83065 0H23.169C28.0386 0 32.0002 3.96162 32 8.83084V23.1692C32 28.0384 28.0386 32 23.169 32H8.83065C3.96143 32 0 28.0386 0 23.1692V8.83084C0 3.96162 3.96143 0 8.83065 0ZM23.1686 29.1608C26.4725 29.1608 29.1604 26.4731 29.1604 23.1692H29.1602V8.83088C29.1602 5.52719 26.4723 2.83923 23.1684 2.83923H8.83008C5.52639 2.83923 2.83862 5.52719 2.83862 8.83088V23.1692C2.83862 26.4731 5.52639 29.161 8.83008 29.1608H23.1686ZM7.61963 16.0002C7.61963 11.3787 11.3793 7.61902 16.0006 7.61902C20.6219 7.61902 24.3815 11.3787 24.3815 16.0002C24.3815 20.6214 20.6219 24.3809 16.0006 24.3809C11.3793 24.3809 7.61963 20.6214 7.61963 16.0002ZM10.5049 15.9999C10.5049 19.0299 12.9701 21.4948 16 21.4948C19.0299 21.4948 21.4952 19.0299 21.4952 15.9999C21.4952 12.9697 19.0301 10.5046 16 10.5046C12.9699 10.5046 10.5049 12.9697 10.5049 15.9999ZM23.4162 5.89095C23.7697 5.53597 24.2613 5.33337 24.7617 5.33337C25.2639 5.33337 25.7556 5.53597 26.1089 5.89095C26.4639 6.2442 26.6665 6.73597 26.6665 7.23814C26.6665 7.73857 26.4639 8.23034 26.1089 8.58532C25.7539 8.93857 25.2639 9.1429 24.7617 9.1429C24.2613 9.1429 23.7695 8.93857 23.4162 8.58532C23.0613 8.23034 22.8569 7.73874 22.8569 7.23814C22.8569 6.73597 23.0611 6.2442 23.4162 5.89095Z" fill="#414652" fill-opacity="0.8"/>
</g>
<defs>
<clipPath id="clip0_2811_20893">
<rect width="32" height="32" fill="white"/>
</clipPath>
</defs>
</svg>
