<svg width="32" height="32" viewBox="0 0 32 32" fill="none" xmlns="http://www.w3.org/2000/svg">
<path d="M32 5.75653C30.81 6.29192 29.542 6.64679 28.22 6.8191C29.58 5.98628 30.618 4.67756 31.106 3.10012C29.838 3.87551 28.438 4.4232 26.946 4.72884C25.742 3.41397 24.026 2.59961 22.154 2.59961C18.522 2.59961 15.598 5.6232 15.598 9.32987C15.598 9.8632 15.642 10.376 15.75 10.8642C10.296 10.5914 5.47 7.91038 2.228 3.82628C1.662 4.83346 1.33 5.98628 1.33 7.2273C1.33 9.55756 2.5 11.6232 4.244 12.8191C3.19 12.7986 2.156 12.4847 1.28 11.9904C1.28 12.0109 1.28 12.0376 1.28 12.0642C1.28 15.334 3.554 18.0499 6.536 18.6755C6.002 18.8253 5.42 18.897 4.816 18.897C4.396 18.897 3.972 18.8724 3.574 18.7822C4.424 21.4468 6.836 23.4058 9.704 23.4694C7.472 25.2601 4.638 26.3391 1.57 26.3391C1.032 26.3391 0.516 26.3145 0 26.2468C2.906 28.1688 6.35 29.2663 10.064 29.2663C22.136 29.2663 28.736 19.0099 28.736 10.1196C28.736 9.82217 28.726 9.53499 28.712 9.24987C30.014 8.30217 31.108 7.11858 32 5.75653Z" fill="#414652" fill-opacity="0.8"/>
</svg>
