<svg width="32" height="32" viewBox="0 0 32 32" fill="none" xmlns="http://www.w3.org/2000/svg">
<path d="M31.9998 15.9775C31.999 15.7473 31.9937 15.5184 31.9834 15.2907V2.30382L28.4036 5.89414C25.4737 2.29733 21.0166 0 16.0242 0C10.8287 0 6.21312 2.48714 3.29541 6.33887L9.16322 12.2857C9.73827 11.2191 10.5552 10.303 11.5402 9.61108C12.5646 8.80931 14.0161 8.15376 16.024 8.15376C16.2665 8.15376 16.4538 8.18219 16.5913 8.23575C19.0791 8.43267 21.2355 9.80963 22.5052 11.8082L18.3517 15.9739C23.6127 15.9531 29.5559 15.941 31.9993 15.9765" fill="#1C3AA9"/>
<path d="M15.9309 0.000732422C15.7014 0.00149656 15.4732 0.00680731 15.2461 0.0171231H2.2971L5.87695 3.60744C2.29063 6.54592 0 11.0161 0 16.0231C0 21.2337 2.47992 25.8628 6.32038 28.7891L12.2499 22.9041C11.1864 22.3274 10.273 21.5081 9.58305 20.5202C8.78366 19.4928 8.12998 18.037 8.12998 16.0233C8.12998 15.78 8.15832 15.5922 8.21172 15.4543C8.40808 12.9592 9.78102 10.7965 11.7737 9.52306L15.9273 13.6887C15.9066 8.41239 15.8945 2.45177 15.9299 0.0011908" fill="#4285F4"/>
<path d="M0.000488281 16.0226C0.00125019 16.2527 0.00654546 16.4816 0.0168312 16.7094V29.6962L3.59668 26.1059C6.52658 29.7027 10.9837 32 15.9761 32C21.1715 32 25.7872 29.5129 28.7049 25.6611L22.8371 19.7143C22.262 20.7809 21.4451 21.697 20.4601 22.3889C19.4357 23.1907 17.9842 23.8462 15.9763 23.8462C15.7337 23.8462 15.5465 23.8178 15.4089 23.7643C12.9212 23.5673 10.7648 22.1904 9.49504 20.1918L13.6486 16.0262C8.38761 16.0469 2.44437 16.059 0.000946045 16.0235" fill="#ABABAB"/>
</svg>
