<svg width="240" height="192" viewBox="0 0 240 192" fill="none" xmlns="http://www.w3.org/2000/svg">
<g clip-path="url(#clip0_592_111168)">
<path d="M140.5 192C189.929 192 230 151.929 230 102.5C230 53.0705 189.929 13 140.5 13C91.0705 13 51 53.0705 51 102.5C51 151.929 91.0705 192 140.5 192Z" fill="#F1F2F2"/>
<path d="M239.08 62.54C238.02 60.41 236 56.27 232.91 51.48C229.83 46.69 224.19 45.1 215.79 45.1H131.57C110.62 45.1 100.34 55.57 95.6096 63.76C93.0097 68.26 73.3496 102.5 56.1396 132.46C68.4596 167.15 101.57 192 140.5 192C152.64 192 164.21 189.58 174.76 185.2C186.81 164.11 215.37 114.13 229.13 90C232.99 83.23 235.7 78.48 236.53 76.99C241.21 68.7 240.15 64.65 239.08 62.53V62.54Z" fill="#85ACB0"/>
<path d="M221.05 49.4H122.69C113.87 49.4 105.71 54.07 101.25 61.68C91.52 78.26 73.55 108.88 57.54 136.12C70.83 168.89 102.97 192.01 140.51 192.01C144.88 192.01 149.18 191.69 153.39 191.08L222.85 67.36L227.12 59.75C229.72 55.12 226.37 49.4 221.06 49.4H221.05Z" fill="#E6E7E8"/>
<path d="M216 50.43H197.65C195.79 50.43 195.34 50.87 194.1 53C192.86 55.13 188.8 59.65 183.65 59.65H146.49C142.94 59.65 141.35 56.81 142.68 54.15C144.01 51.49 144.65 50.5 143.29 50.5H124.42C118.62 50.5 107.79 52.47 100.14 65.64C99.1201 67.4 97.0801 70.94 94.3301 75.72H217.18C220.42 70.03 222.54 66.3 223 65.43C225.91 59.88 229.65 50.42 216 50.42V50.43Z" fill="white"/>
<path d="M155.21 83.48H108.01C104.21 83.48 99.45 86.56 97.38 90.36L87.75 108.06C85.88 111.5 84.32 113.47 79.54 115.93C79.54 115.93 82.85 116.24 86.68 114.08C87.29 115.23 88.55 115.93 90.36 115.93H137.56C141.36 115.93 146.12 112.85 148.19 109.05L158.35 90.37C160.42 86.57 159.01 83.49 155.21 83.49V83.48Z" fill="white"/>
<path d="M218.19 46.67H129.5C107.15 46.67 99.2397 60.12 95.0897 67.14C92.8097 70.99 73.5697 104.48 56.6797 133.9C57.2397 135.39 57.8397 136.87 58.4697 138.32C76.2297 107.31 96.0897 72.63 100.15 65.64C107.79 52.48 118.62 50.5 124.43 50.5H143.3C144.66 50.5 144.02 51.49 142.69 54.15C141.36 56.81 142.96 59.65 146.5 59.65H183.66C188.81 59.65 192.87 55.13 194.11 53C195.35 50.87 195.79 50.43 197.66 50.43H216.01C229.66 50.43 225.93 59.89 223.01 65.44C222.91 65.64 222.71 65.99 222.45 66.47C215.76 78.49 159.41 176.34 150.73 191.42C152.51 191.22 154.28 190.97 156.04 190.66C164.83 175.35 208.49 99.22 224.23 70.82C227.23 65.4 229.23 61.71 229.76 60.52C233.14 52.99 226.6 46.68 218.2 46.68L218.19 46.67Z" fill="#0E0E0E"/>
<g style="mix-blend-mode:multiply">
<path d="M112.46 0H8.65C3.87 0 0 3.87 0 8.65V88.24C0 93.02 3.87 96.89 8.65 96.89H65.75L81.32 109V96.89H112.46C117.24 96.89 121.11 93.02 121.11 88.24V8.65C121.11 3.87 117.24 0 112.46 0Z" fill="#FF444F"/>
</g>
<path d="M26.2403 53.93L23.9003 52.22L27.7003 47.38L21.7803 45.75L22.6903 42.96L28.4503 45.08L28.2003 38.95H31.1203L30.8703 45.08L36.6203 42.96L37.5403 45.75L31.6203 47.38L35.4103 52.22L33.0803 53.93L29.6603 48.8L26.2403 53.93Z" fill="white"/>
<path d="M53.4707 53.38L51.1307 51.67L54.9307 46.83L49.0107 45.2L49.9207 42.41L55.6807 44.53L55.4307 38.4H58.3507L58.1007 44.53L63.8507 42.41L64.7707 45.2L58.8507 46.83L62.6407 51.67L60.3107 53.38L56.8907 48.25L53.4707 53.38Z" fill="white"/>
<path d="M80.7002 53.14L78.3602 51.43L82.1602 46.59L76.2402 44.97L77.1502 42.17L82.9102 44.3L82.6602 38.17H85.5802L85.3302 44.3L91.0802 42.17L92.0002 44.97L86.0802 46.59L89.8702 51.43L87.5402 53.14L84.1202 48.01L80.7002 53.14Z" fill="white"/>
</g>
<defs>
<clipPath id="clip0_592_111168">
<rect width="240" height="192" fill="white"/>
</clipPath>
</defs>
</svg>
