<svg width="24" height="24" viewBox="0 0 24 24" fill="none" xmlns="http://www.w3.org/2000/svg">
<rect width="24" height="24" rx="12" fill="#283991"/>
<path d="M12.2721 2.98194L11.9794 2.08118L11.6866 2.98194H10.7393L11.5059 3.53863L11.2131 4.43939L11.9794 3.88235L12.7458 4.43939L12.4531 3.53863L13.2195 2.98194H12.2721Z" fill="#F8D12E"/>
<path d="M12.2721 19.9869L11.9794 19.0858L11.6866 19.9869H10.7393L11.5059 20.5436L11.2131 21.4443L11.9794 20.8877L12.7458 21.4443L12.4531 20.5436L13.2195 19.9869H12.2721Z" fill="#F8D12E"/>
<path d="M16.6462 3.58828L16.9388 4.48925H17.8862L17.1197 5.04629L17.4125 5.94705L16.6462 5.39001L15.8799 5.94705L16.1726 5.04629L15.4063 4.48925H16.3537L16.6462 3.58828Z" fill="#F8D12E"/>
<path d="M20.123 7.63053L19.8304 6.72976L19.5375 7.63053H18.5903L19.3568 8.18742L19.064 9.08818L19.8304 8.5315L20.5967 9.08818L20.3039 8.18742L21.0704 7.63053H20.123Z" fill="#F8D12E"/>
<path d="M19.9062 14.6669L20.1988 15.568H21.1461L20.3797 16.1247L20.6726 17.0252L19.9062 16.4688L19.1398 17.0252L19.4325 16.1247L18.6661 15.568H19.6135L19.9062 14.6669Z" fill="#F8D12E"/>
<path d="M4.53622 7.63053L4.24366 6.72976L3.95111 7.63053H3.00373L3.76997 8.18742L3.47727 9.08818L4.24366 8.5315L5.0097 9.08818L4.71715 8.18742L5.48339 7.63053H4.53622Z" fill="#F8D12E"/>
<path d="M20.5684 10.5151L20.8609 11.4158H21.8083L21.0419 11.9725L21.3346 12.8735L20.5684 12.317L19.802 12.8735L20.0949 11.9725L19.3283 11.4158H20.2754L20.5684 10.5151Z" fill="#F8D12E"/>
<path d="M3.81242 11.4158L3.51987 10.5151L3.22711 11.4158H2.27979L3.04618 11.9725L2.75342 12.8735L3.51987 12.317L4.28611 12.8735L3.99321 11.9725L4.7596 11.4158H3.81242Z" fill="#F8D12E"/>
<path d="M4.14093 14.6669L4.43348 15.568H5.38066L4.61447 16.1247L4.90697 17.0252L4.14093 16.4688L3.37453 17.0252L3.66724 16.1247L2.90084 15.568H3.84822L4.14093 14.6669Z" fill="#F8D12E"/>
<path d="M17.0762 18.8431L16.7836 17.9423L16.4909 18.8431H15.5436L16.31 19.4001L16.017 20.3009L16.7836 19.7442L17.5499 20.3009L17.257 19.4001L18.0236 18.8431H17.0762Z" fill="#F8D12E"/>
<path d="M7.46366 3.58828L7.75616 4.48925H8.70354L7.93715 5.04629L8.23006 5.94705L7.46366 5.39001L6.69742 5.94705L6.99012 5.04629L6.22373 4.48925H7.1709L7.46366 3.58828Z" fill="#F8D12E"/>
<path d="M7.4107 18.7859L7.118 17.8847L6.82524 18.7859H5.87806L6.64446 19.3424L6.35175 20.2431L7.118 19.6868L7.88439 20.2431L7.59169 19.3424L8.35808 18.7859H7.4107Z" fill="#F8D12E"/>
</svg>