<svg width="100" height="100" viewBox="0 0 100 100" fill="none" xmlns="http://www.w3.org/2000/svg">
    <path fill-rule="evenodd" clip-rule="evenodd" d="M89.8438 17.9688V82.0312C89.8438 86.3453 86.3453 89.8438 82.0312 89.8438H17.9688C13.6539 89.8438 10.1562 86.3461 10.1562 82.0312V17.9688C10.1562 13.6539 13.6539 10.1562 17.9688 10.1562H82.0312C86.3461 10.1562 89.8438 13.6539 89.8438 17.9688Z" fill="#E0F0F0"/>
    <path fill-rule="evenodd" clip-rule="evenodd" d="M49.8633 17.8863C60.5836 17.8863 69.2742 26.5839 69.2742 37.3128C69.2742 48.0417 60.5836 56.7386 49.8633 56.7386C39.143 56.7386 30.4531 48.0425 30.4531 37.3128C30.4531 26.5832 39.143 17.8855 49.8633 17.8855" fill="white"/>
    <path fill-rule="evenodd" clip-rule="evenodd" d="M49.933 22.8699C54.001 22.8699 57.3002 26.1714 57.3002 30.2433C57.3002 34.3152 54.001 37.6167 49.933 37.6167C45.8643 37.6167 42.5658 34.3152 42.5658 30.2433C42.5658 26.1714 45.8643 22.8699 49.933 22.8699ZM43.9979 37.9199C43.9979 37.9199 45.6197 40.0214 49.933 40.0214C54.2455 40.0214 55.6322 37.9199 55.6322 37.9199C55.6322 37.9199 62.2338 40.4613 62.2338 47.3949C62.2338 47.3949 58.815 52.4316 50.1064 52.4316C41.3986 52.4316 37.4424 47.3949 37.4424 47.3949C37.4424 47.3949 37.6846 39.9222 43.9979 37.9199Z" fill="#84ABAE"/>
    <path fill-rule="evenodd" clip-rule="evenodd" d="M58.5938 76.9531H28.9062C27.6117 76.9531 26.5625 75.9039 26.5625 74.6094C26.5625 73.3148 27.6117 72.2656 28.9062 72.2656H58.5938C59.8883 72.2656 60.9375 73.3148 60.9375 74.6094C60.9375 75.9039 59.8883 76.9531 58.5938 76.9531ZM63.2812 67.1875H28.9062C27.6117 67.1875 26.5625 66.1383 26.5625 64.8438C26.5625 63.5492 27.6117 62.5 28.9062 62.5H63.2812C64.5758 62.5 65.625 63.5492 65.625 64.8438C65.625 66.1383 64.5758 67.1875 63.2812 67.1875Z" fill="#C6E4E4"/>
    <path d="M81.7712 100C91.8386 100 100 91.8384 100 81.7709C100 71.7034 91.8386 63.5417 81.7712 63.5417C71.7037 63.5417 63.542 71.7034 63.542 81.7709C63.542 91.8384 71.7037 100 81.7712 100Z" fill="#FF444F"/>
    <path d="M87.8889 89.0228H84.3889L81.3861 83.912H81.3264L78.4031 89.0228H75.1426L79.5971 81.8438L75.3605 75.1421H78.8804L81.5849 79.8353H81.6446L84.3897 75.1421H87.6511L83.3755 81.9035L87.8889 89.0228Z" fill="white"/>
</svg>
