<svg width="24" height="24" viewBox="0 0 24 24" fill="none" xmlns="http://www.w3.org/2000/svg">
<rect width="24" height="24" rx="12" fill="white"/>
<path fill-rule="evenodd" clip-rule="evenodd" d="M15.1306 0.413452C16.6662 0.827358 18.0796 1.53812 19.306 2.48073L15.1306 6.65612V0.413452ZM0.413574 8.8697C0.827434 7.33412 1.5382 5.9206 2.48081 4.69421L6.65629 8.8697H0.413574ZM21.5195 4.69426C22.4621 5.92065 23.1729 7.33416 23.5868 8.86969H17.3441L21.5195 4.69426ZM0.413574 15.1306C0.82748 16.6661 1.53825 18.0796 2.48081 19.3059L6.65615 15.1306H0.413574ZM4.69431 21.5194C5.9207 22.462 7.33421 23.1728 8.86974 23.5867V17.344L4.69431 21.5194ZM4.69431 2.48069C5.92065 1.53812 7.33416 0.827358 8.8697 0.413452V6.65608L4.69431 2.48069ZM15.1306 23.5867C16.6662 23.1728 18.0797 22.462 19.306 21.5194L15.1306 17.344V23.5867ZM21.5195 19.306L17.3441 15.1306H23.5868C23.1729 16.6661 22.4621 18.0796 21.5195 19.306Z" fill="#283991"/>
<path fill-rule="evenodd" clip-rule="evenodd" d="M23.8984 10.4348H13.5653H13.5653V0.101578C13.0529 0.034875 12.5305 0 12 0C11.4694 0 10.9471 0.034875 10.4348 0.101578V10.4347V10.4347H0.101578C0.034875 10.9471 0 11.4695 0 12C0 12.5306 0.034875 13.0529 0.101578 13.5652H10.4347H10.4347V23.8984C10.9471 23.9651 11.4694 24 12 24C12.5305 24 13.0529 23.9652 13.5652 23.8984V13.5653V13.5653H23.8984C23.9651 13.0529 24 12.5306 24 12C24 11.4695 23.9651 10.9471 23.8984 10.4348ZM15.1305 15.1305L20.4853 20.4853C20.7316 20.2391 20.9665 19.9817 21.1907 19.7149L16.6062 15.1305H15.1305ZM8.86948 15.1305H8.86957V16.6061L4.2851 21.1906C4.01829 20.9665 3.7609 20.7315 3.51471 20.4853L8.86948 15.1305ZM8.87269 8.86964V8.86955L3.51787 3.51469C3.27159 3.76087 3.03666 4.01826 2.8125 4.28508L7.39702 8.86964H8.87269ZM20.4853 3.51473L15.1305 8.86964V7.39392L19.7149 2.8094C19.9817 3.03351 20.2391 3.26845 20.4853 3.51473Z" fill="#F44336"/>
</svg>