<svg width="64" height="64" viewBox="0 0 64 64" fill="none" xmlns="http://www.w3.org/2000/svg">
<g clip-path="url(#clip0_4749_144087)">
<path d="M32 64C49.6731 64 64 49.6731 64 32C64 14.3269 49.6731 0 32 0C14.3269 0 0 14.3269 0 32C0 49.6731 14.3269 64 32 64Z" fill="url(#paint0_linear_4749_144087)"/>
<path d="M25.5 19.5H49.0049C49.6925 19.5 50.25 20.0575 50.25 20.7451V58.28C45.0727 61.8822 38.7852 64 32 64C25.2148 64 18.9273 61.8822 13.75 58.28L13.75 31.25L25.5 19.5Z" fill="url(#paint1_linear_4749_144087)"/>
<path d="M25.5 19.5L13.75 31.25H23.5C24.6046 31.25 25.5 30.3546 25.5 29.25V19.5Z" fill="white"/>
<path d="M44 11C37.9249 11 33 15.9249 33 22C33 28.0751 37.9249 33 44 33C50.0751 33 55 28.0751 55 22C55 15.9249 50.0751 11 44 11ZM50.3279 19.0873L42.3822 27.0338C42.0532 27.3629 41.5196 27.3629 41.1906 27.0338L37.6722 23.515C37.3431 23.186 37.3432 22.6525 37.6722 22.3235L38.6018 21.3939C38.9308 21.0648 39.4643 21.0648 39.7933 21.3938L41.7864 23.3865L48.2067 16.9662C48.5358 16.6371 49.0692 16.6371 49.3983 16.9662L50.3278 17.8957C50.6569 18.2248 50.6569 18.7582 50.3279 19.0873Z" fill="#414652"/>
</g>
<defs>
<linearGradient id="paint0_linear_4749_144087" x1="32" y1="64" x2="32" y2="0" gradientUnits="userSpaceOnUse">
<stop stop-color="#33C951"/>
<stop offset="1" stop-color="#88D297"/>
</linearGradient>
<linearGradient id="paint1_linear_4749_144087" x1="32" y1="64" x2="32" y2="19.5" gradientUnits="userSpaceOnUse">
<stop stop-color="#D1D3D4"/>
<stop offset="0.609004" stop-color="#E8E9E9"/>
<stop offset="1" stop-color="#F1F2F2"/>
</linearGradient>
<clipPath id="clip0_4749_144087">
<rect width="64" height="64" fill="white"/>
</clipPath>
</defs>
</svg>
