<svg width="36" height="36" viewBox="0 0 36 36" fill="none" xmlns="http://www.w3.org/2000/svg">
<g clip-path="url(#clip0_4739_223771)">
<path d="M4.84433 15.3616L0.8125 12.6486C3.16477 5.08295 10.0733 0 18.0026 0C23.6641 0 29.0647 2.7147 32.4499 7.26168L28.7745 9.99748C26.2126 6.55568 22.2859 4.58182 18.0026 4.58182C12.0906 4.58182 6.2772 8.55618 4.84433 15.3616Z" fill="#85ACB0"/>
<path d="M23.0156 9.4273L33.7095 18.0007L35.7892 4.45312L23.0156 9.4273Z" fill="#85ACB0"/>
<path d="M18.002 35.997C12.3406 35.997 6.93991 33.2823 3.55469 28.7353L7.23011 25.9995C9.79205 29.4413 13.7187 31.4152 18.002 31.4152C23.914 31.4152 29.8248 27.5087 31.2341 20.2344L35.1921 23.3484C32.8398 30.914 25.9313 35.997 18.002 35.997Z" fill="#FF444F"/>
<path d="M12.9845 26.5734L2.29063 18L0.210938 31.5476L12.9845 26.5734Z" fill="#FF444F"/>
</g>
<defs>
<clipPath id="clip0_4739_223771">
<rect width="36" height="36" fill="white"/>
</clipPath>
</defs>
</svg>
