<svg xmlns="http://www.w3.org/2000/svg" fill="none" viewBox="0 0 48 48"><g clip-path="url(#a)"><path d="M0 9c0-5 4-9 9-9h30c5 0 9 4 9 9v30c0 5-4 9-9 9H9c-5 0-9-4-9-9V9Z" fill="#FF444F"/><path d="M9 0C4 0 0 4 0 9v.3l44.9-7.1A9 9 0 0 0 39 0H9Zm36.8 3.1L37.6 48H39c5 0 9-4 9-9V9a9 9 0 0 0-2.2-5.9Z" fill="#E12E3A"/><path d="M17.6 19.3c-1.5 0-2.6.4-3.3 1.2-.7.9-1 2-1 3.5 0 .7 0 1.4.3 2 .1.5.4 1 .7 1.5l1.3 1c.5.2 1 .3 1.7.3a17 17 0 0 0 1.7-.1v-5h3.2v7.1l-1.9.5c-.8.2-1.9.3-3.2.3-1 0-2-.2-3-.5a6.2 6.2 0 0 1-3.7-3.9c-.3-1-.5-2-.5-3.2a8 8 0 0 1 .6-3.2 6.9 6.9 0 0 1 6.7-4.4 10.5 10.5 0 0 1 4.8 1.1l-1 2.6a8 8 0 0 0-3.4-.8ZM27 24c0 .7 0 1.4.2 2l.8 1.4a3.5 3.5 0 0 0 2.8 1.3c.6 0 1.2 0 1.7-.3a3 3 0 0 0 1.2-1c.3-.4.6-.9.7-1.5a6.4 6.4 0 0 0 0-3.9 4 4 0 0 0-.7-1.4 3 3 0 0 0-1.2-1c-.5-.2-1-.3-1.7-.3a3.6 3.6 0 0 0-3.6 2.8l-.2 2Zm11 0c0 1.3 0 2.4-.5 3.3-.3 1-.8 1.7-1.5 2.4-.6.6-1.4 1-2.3 1.4a8.3 8.3 0 0 1-5.7 0 6.5 6.5 0 0 1-3.8-3.8c-.4-1-.6-2-.6-3.3 0-1.2.2-2.3.6-3.3A6.6 6.6 0 0 1 28 17a8 8 0 0 1 5.6 0 6.4 6.4 0 0 1 3.8 3.8c.4 1 .6 2 .6 3.3Z" fill="#fff"/></g><defs><clipPath id="a"><path d="M0 0h48v48H0z" fill="#fff"/></clipPath></defs></svg>