<svg xmlns="http://www.w3.org/2000/svg" fill="none" viewBox="0 0 48 48"><g clip-path="url(#a)"><path d="M0 9c0-5 4-9 9-9h30c5 0 9 4 9 9v30c0 5-4 9-9 9H9c-5 0-9-4-9-9V9Z" fill="#FF444F"/><path d="M9 0C4 0 0 4 0 9v.3l44.9-7.1A9 9 0 0 0 39 0H9Zm36.8 3.1L37.6 48H39c5 0 9-4 9-9V9a9 9 0 0 0-2.2-5.9Z" fill="#E12E3A"/><path d="M14.3 28.6h1.3c1.6 0 2.8-.4 3.6-1.2.8-.8 1.2-2 1.2-3.4 0-1.5-.4-2.7-1.1-3.5-.8-.8-2-1.2-3.6-1.2a11.8 11.8 0 0 0-1.4.1v9.2Zm9.5-4.6c0 1.2-.2 2.3-.6 3.3a6 6 0 0 1-1.7 2.3A7 7 0 0 1 19 31c-1 .3-2.2.5-3.5.5A29.3 29.3 0 0 1 11 31V16.9a12.6 12.6 0 0 1 7.9 0 7 7 0 0 1 2.6 1.4c.7.6 1.3 1.4 1.7 2.3.4 1 .6 2 .6 3.4Z" fill="#fff"/><path d="M33 31.3a39 39 0 0 0-3-5 23.2 23.2 0 0 0-2.5 3.9l-.6 1h-3.7a52.3 52.3 0 0 1 4.9-7.5l-4.7-7h4l2.8 4.5 2.8-4.5h3.7l-4.6 7a49 49 0 0 1 4.9 7.6h-4Z" fill="#fff"/></g><defs><clipPath id="a"><path d="M0 0h48v48H0z" fill="#fff"/></clipPath></defs></svg>