<svg xmlns="http://www.w3.org/2000/svg" fill="none" viewBox="0 0 1200 1520"><path d="M1003 897a96 96 0 01-28-28 98 98 0 01-18-48c0-10-2-30 10-53 4-5 14-20 33-29 12-5 22-5 28-5a675 675 0 00-80-230c-6 4-22 14-44 13-20 0-33-9-41-14a99 99 0 01-36-41 95 95 0 01-10-46 90 90 0 01 18-52 602 602 0 00-197-120c0 4-3 40-32 58a71 71 0 01-76 0 108 108 0 01-50-81A417 417 0 00 280 280a103 103 0 01 15 84 70 70 0 01-38 46 65 65 0 01-54 0c-18-5-30-16-35-22a510 510 0 00-81 205 101 101 0 01 70 116c-3 10-8 30-26 44A72 72 0 01 87 770a695 695 0 00 83 230 70 70 0 01 35-13c20-2 34 5 42 9 20 10 31 26 36 33 9 15 12 28 14 37l77 153 105 40c0-6 2-20 11-36a70 70 0 01 38-30 80 80 0 01 46 3 90 90 0 01 43 34c16 21 19 43 20 53a414 414 0 00 198-60 100 100 0 01-19-55c0-10 0-31 14-52 4-5 18-23 43-28 23-5 41 5 50 10 12 6 20 13 25 18a540 540 0 00 81-206c-6-2-16-5-26-12Zm-221-21a220 220 0 01-104 121c-50 25-98 20-115 20A252 252 0 01 414 940c-78-74-90-166-93-190-2-25-6-69 12-120 7-17 38-102 124-134 64-24 121-5 144 3a293 293 0 01 168 160c10 23 52 116 13 217Z" fill="#fff"/><path d="M637 1285a3 3 0 01-3-2 98 98 0 00-19-52 92 92 0 00-41-33 66 66 0 00-80 25 59 59 0 00-12 36 3 3 0 01-4 2l-105-40-2-2-77-153A100 100 0 00 280 1030c-4-6-14-22-34-33a70 70 0 00-40-9c-16 2-27 8-34 13h-4a700 700 0 01-83-233l2-1a70 70 0 00 43-15 72 72 0 00 24-42c5-19 3-38-5-57a98 98 0 00-62-56 514 514 0 01 82-210h2c10 10 21 18 34 22 7 3 30 10 52 0a69 69 0 00 36-45c7-20 3-36 2-44a100 100 0 00-16-37V280a420 420 0 01 200-61c2 0 3 0 3 2a105 105 0 00 50 80c6 3 20 10 39 10a70 70 0 00 33-10c27-18 30-50 30-57l2-2h3a605 605 0 01 198 120c1 2 1 3 0 4a91 91 0 00-7 96c3 6 12 26 34 40a72 72 0 00 82 0h2l2 1a680 680 0 01 80 233l-2 1c-10 0-18 2-27 6a58 58 0 00-30 28 80 80 0 00-11 50c2 25 13 40 17 48a93 93 0 00 53 38 543 543 0 01-82 211h-2a93 93 0 00-23-18c-10-5-27-14-50-10a68 68 0 00-40 28c-15 20-14 40-14 50a90 90 0 00 18 53v4a417 417 0 01-200 61Zm-90-98c13 0 23 4 28 6 26 9 40 27 45 35 13 18 18 38 20 51a411 411 0 00 190-58c-7-12-16-30-17-54 0-10 0-32 15-54 7-9 21-25 45-30 24-4 42 6 52 11 8 4 16 10 23 16a537 537 0 00 78-200 96 96 0 01-53-40 95 95 0 01-20-50c0-7-2-30 13-53a70 70 0 01 60-36 675 675 0 00-80-223 80 80 0 01-42 12c-20 0-35-10-43-14-23-15-33-36-37-43a97 97 0 01 7-99 600 600 0 00-190-116c-2 10-8 40-34 56a80 80 0 01-36 11c-20 1-35-7-42-10a110 110 0 01-52-80A413 413 0 00 285 280a105 105 0 01 14 84c-8 23-20 40-40 48a74 74 0 01-56 0 88 88 0 01-33-20A508 508 0 00 90 590a103 103 0 01 70 120c-2 10-7 30-27 46A74 74 0 01 90 772a694 694 0 00 80 223c9-5 20-10 35-12 20-2 36 6 43 10 22 10 33 27 37 34a110 110 0 01 15 37l76 151 100 40a74 74 0 01 51-65l20-3Zm42-167-26-1c-79-8-130-56-150-77-74-70-90-157-94-192-3-22-8-68 12-120a220 220 0 01 125-137c65-24 124-4 146 3 48 16 90 45 124 88 27 33 41 64 46 74a276 276 0 01 13 219c-4 10-13 32-30 55A202 202 0 01 590 1020ZM520 487c-31 0-51 8-62 12-55 20-98 67-122 132A254 254 0 00 324 750c4 33 20 120 92 188 21 20 70 67 148 75 15 2 62 7 113-18 30-15 54-37 74-66 16-23 24-44 28-54A270 270 0 00 766 660c-4-10-17-40-44-73a260 260 0 00-202-100Z" fill="#000"/><path d="M736 953a194 194 0 01-173 63A251 251 0 01 414 940c-78-74-90-166-93-190-2-25-6-69 12-120 7-17 38-102 124-134a180 180 0 01 62-11 228 228 0 00-52 82 309 309 0 00 100 327 262 262 0 00 170 59Z" fill="#CED0D6"/><path d="M589 1020a240 240 0 01-177-78c-74-70-90-157-94-192-2-22-7-68 13-120a220 220 0 01 125-137c20-7 41-10 63-11a3 3 0 01 2 4 228 228 0 00-51 82 250 250 0 00-13 110A306 306 0 00 570 890a258 258 0 00 169 60v4a197 197 0 01-150 65Zm-77-532c-18 0-37 4-54 10-55 20-98 68-122 133A250 250 0 00 324 750c4 33 20 120 92 188 21 20 70 67 148 75A190 190 0 00 730 955c-13 0-26 0-39-2-65-10-108-45-125-57a310 310 0 01-114-218 238 238 0 01 60-190Z" fill="#000"/><path d="M207 1150 360 1005c5-5 13-12 24-16a70 70 0 01 40-2c22 5 36 17 40 22a100 100 0 01 30 45c1 8 6 22 4 40a76 76 0 01-27 54l-210 200a70 70 0 01-29 14c-21 4-38-2-46-6-18-7-30-20-35-27a786234 786234 0 00-113-144c-1-2-7-11-10-28-2-10-5-22-2-38 2-9 5-26 19-40a70 70 0 01 20-14c4-3 12-7 24-8a70 70 0 01 38 8 158 158 0 01 40 34l41 51Z" fill="#FF7373"/><path d="M217 1366c-16 0-27-5-33-7-18-7-30-20-36-28L44 1199a79 79 0 01-20-41 100 100 0 01-2-40c2-8 5-26 20-41 8-9 16-13 20-15 4-2 13-7 26-8 19-2 33 5 40 8 13 7 21 15 30 24l10 11 40 50 150-144a66 66 0 01 65-19 90 90 0 01 43 22c20 18 26 39 29 47 2 7 7 22 5 42a79 79 0 01-28 55l-210 200a74 74 0 01-45 16ZM94 1060H90a80 80 0 00-24 8c-4 2-12 6-20 14a67 67 0 00-17 38c-3 16 0 29 2 38a72 72 0 00 18 38l105 132c6 8 17 20 34 27 6 3 23 10 43 5 10-2 20-7 29-14l210-199a73 73 0 00 25-52c2-18-2-32-5-40-2-7-8-27-27-43a85 85 0 00-40-21c-8-2-22-5-38 1a60 60 0 00-22 16L210 1153l-2 1h-2l-40-52a160 160 0 00-11-11c-8-8-17-17-29-23-5-2-16-8-30-8Z" fill="#000"/><path d="m277 1083-70 67-40-50a163 163 0 00-40-35 64 64 0 00-57-3l83-41a70 70 0 01 32-7c10 0 19 4 24 6a89 89 0 01 34 23l34 40Z" fill="#FF444F"/><path d="M207 1153h-2l-40-52-11-11c-8-8-17-17-29-23-6-2-20-10-36-7a60 60 0 00-18 4 3 3 0 01-4-3l1-2 34-16 50-25a70 70 0 01 33-7c11 0 20 4 25 6a93 93 0 01 35 24l34 40v5l-70 66-2 1Zm-113-100c16 0 28 7 34 10 13 6 21 14 30 23l10 12 40 48 65-63-32-39a83 83 0 00-33-22 65 65 0 00-54 0c-16 10-33 18-50 26l-12 6h2Z" fill="#000"/><path d="M580 1077c-4 9-8 15-12 20l-10 10-207 198a74 74 0 01-22 13 133390 133390 0 00-68 30 1916423 1916423 0 01 222-214 80 80 0 00 14-40c2-18-3-32-5-40a96 96 0 00-70-67 70 70 0 00-33 0l85-41a89 89 0 01 66 10c15 9 22 20 28 28 5 8 16 25 18 50 2 22-5 39-7 43Z" fill="#FF444F"/><path d="M251 1357a3 3 0 01 0-6l8-6 210-199a73 73 0 00 25-52c2-18-2-32-5-40-2-7-8-27-27-43a77 77 0 00-40-21c-7-1-19-4-33 0 0 0-2 0-3-2l1-3 56-28 30-14a90 90 0 01 68 10c16 10 24 22 30 30 4 7 16 25 18 50a98 98 0 01-19 65l-10 10-207 199A75 75 0 01 330 1320l-18 8a156814 156814 0 00-60 28Zm220-207-200 192 39-18 18-9a70 70 0 00 21-13l208-197 10-10a90 90 0 00 16-61c-2-25-13-41-17-48-5-8-13-20-28-28a85 85 0 00-64-10l-28 14-40 20 17 2c24 5 38 18 43 22 20 18 26 39 29 47 2 7 7 22 5 42a80 80 0 01-28 55Z" fill="#000"/><path d="M592 1204 480 1260a70 70 0 01 49-66c20-7 38 0 46 2 7 3 13 6 18 10Z" fill="#CED0D6"/><path d="M480 1261h-2l-2-2a74 74 0 01 51-69c22-7 40 0 48 3 7 2 13 5 19 9a3 3 0 01 0 5L480 1260h-2Zm67-68c-6 0-12 0-18 3a66 66 0 00-47 58l104-50a80 80 0 00-13-6c-4-2-14-5-26-5Z" fill="#000"/><path d="M1162 845a490 490 0 01-81 207l-133 63a538 538 0 00 81-206l133-64Z" fill="#EBECEF"/><path d="M948 1117a3 3 0 01-2-4 537 537 0 00 82-207l133-63h3v3a494 494 0 01-82 208L950 1117Zm84-206a544 544 0 01-76 197l123-59a487 487 0 00 80-199l-127 60Z" fill="#000"/><path d="m1162 670-134 64a676 676 0 00-80-230L1080 440a605 605 0 01 82 230Z" fill="#EBECEF"/><path d="M1028 736h-1l-2-2a676 676 0 00-80-231l1-2 6-2 127-61h3a610 610 0 01 80 235L1030 736Zm-77-230a680 680 0 01 80 223l128-60a605 605 0 00-80-225l-125 60-3 1Z" fill="#000"/><path d="m968 300-133 64a602 602 0 00-197-120L770 179A554 554 0 01 968 300Z" fill="#EBECEF"/><path d="M835 366h-2a600 600 0 00-198-122c0-1 0-2 2-3a522583 522583 0 00 135-65 558 558 0 01 200 125l-3 2-17 8-116 55Zm-190-123a608 608 0 01 190 117L950 306l13-7a553 553 0 00-192-117l-126 61Z" fill="#000"/><path d="M612 157a4030 4030 0 00-133 64 416 416 0 00-160 40l156-76a432 432 0 01 137-28Z" fill="#EBECEF"/><path d="M320 264a3 3 0 01-2-6l36-17 120-59a440 440 0 01 138-28 3 3 0 01 1 5L480 223a414 414 0 00-160 40Zm156-76L380 235h2a420 420 0 01 97-17l120-58a434 434 0 00-122 28Z" fill="#000"/><path d="M296 365c-2 8-10 34-38 46a70 70 0 01-54 0c-18-5-30-16-35-22l130-62c1 10 2 23-3 38Z" fill="#CED0D6"/><path d="M232 420c-13 0-24-4-29-5a88 88 0 01-36-24 3 3 0 01 1-4l130-63h3v2c3 15 2 28-2 40-8 23-20 40-40 48-10 4-19 6-27 6Zm-58-30c7 7 17 14 31 20 7 2 30 10 52-1a69 69 0 00 36-45 80 80 0 00 3-33l-122 60Z" fill="#000"/><path d="m968 1158-133 64a100 100 0 01-19-55c0-10 0-31 14-52 4-5 18-23 43-28 23-5 41 5 51 10 11 6 20 13 24 18l4-2a105 105 0 00 16 45Z" fill="#CED0D6"/><path d="M835 1224h-2c-9-12-19-32-20-57 0-10 0-32 15-54a73 73 0 01 45-30c24-4 42 6 52 11 9 5 17 10 24 17h2a3 3 0 01 4 2 102 102 0 00 16 43v2l-1 2-67 32a75744 75744 0 00-68 33Zm50-136a60 60 0 00-11 1 68 68 0 00-42 28c-14 20-13 40-13 50 0 22 10 40 17 51l64-30 64-31a107 107 0 01-14-40h-4a92 92 0 00-23-18c-8-4-21-10-38-10Z" fill="#000"/><path d="M1162 845 1029 910a94 94 0 01-54-40 98 98 0 01-18-48c0-10-2-30 10-53 4-5 14-20 33-29 12-5 22-5 28-5l80-38a83 83 0 00-17 68 104 104 0 00 70 81Z" fill="#CED0D6"/><path d="M1030 912h-1a110 110 0 01-27-12c-17-10-25-24-30-29-4-7-16-24-18-50 0-8-3-31 12-54 3-5 13-21 33-30 9-4 19-6 29-6l78-37a3 3 0 01 3 4 80 80 0 00-15 66 102 102 0 00 69 79 3 3 0 01 0 5 433216 433216 0 00-134 64Zm-2-176c-10 0-18 2-27 6a58 58 0 00-30 28 72 72 0 00-11 50c2 25 13 40 17 48a93 93 0 00 52 38l126-60a109 109 0 01-67-81 89 89 0 01 10-62l-69 33h-1Z" fill="#000"/><path d="m1058 450-110 54c-6 4-22 14-44 13-20 0-33-9-41-14a99 99 0 01-36-41 95 95 0 01-10-46 90 90 0 01 18-52L968 300a90 90 0 00-17 46c-2 21 4 37 8 45 4 10 20 47 58 59 17 4 31 3 40 0Z" fill="#CED0D6"/><path d="M906 520h-2c-20 0-35-10-43-14-23-15-33-36-37-43a97 97 0 01 10-102L950 306l17-8a3 3 0 01 3 4c-6 10-15 24-16 44a90 90 0 00 7 44c16 38 40 52 57 57a80 80 0 00 40 1s2 0 3 2c0 1 0 3-2 3l-68 33-42 20c-8 6-23 14-44 14Zm-70-154A91 91 0 00 830 460c4 6 13 26 35 40 8 5 21 13 40 13a71 71 0 00 42-13l43-20 52-25c-8 0-17-1-25-4-18-5-43-20-60-60-3-8-10-24-8-46 1-16 7-30 12-39l-8 4-115 55Z" fill="#000"/><path d="m658 234-20 10c0 4-3 40-32 58a71 71 0 01-76 0 109 109 0 01-50-81c43-22 88-43 132-64a108 108 0 00 46 77Z" fill="#CED0D6"/><path d="M568 315c-20 0-33-7-40-10a110 110 0 01-52-83c0-2 0-3 2-4L610 154h2l2 2a105 105 0 00 44 76 3 3 0 01 0 5l-19 8a80 80 0 01-33 60c-5 2-18 10-36 10h-3Zm-86-93a105 105 0 00 50 77 70 70 0 00 73 0c26-17 30-50 30-56 0 0 0-2 2-2l15-8a110 110 0 01-42-72l-128 61Z" fill="#000"/></svg>
