<svg width="56" height="28" viewBox="0 0 56 28" fill="none" xmlns="http://www.w3.org/2000/svg">
<rect x="0.777344" width="55" height="28" rx="4" fill="#377CFC"/>
<path d="M9.85534 9.228H13.5373C14.1813 9.228 14.7693 9.33067 15.3013 9.536C15.8333 9.74133 16.286 10.0493 16.6593 10.46C17.0327 10.8613 17.322 11.37 17.5273 11.986C17.7327 12.5927 17.8353 13.302 17.8353 14.114C17.8353 14.926 17.7327 15.64 17.5273 16.256C17.322 16.8627 17.0327 17.3713 16.6593 17.782C16.286 18.1833 15.8333 18.4867 15.3013 18.692C14.7693 18.8973 14.1813 19 13.5373 19H9.85534V9.228ZM13.5373 17.11C14.172 17.11 14.6713 16.9327 15.0353 16.578C15.3993 16.2233 15.5813 15.654 15.5813 14.87V13.358C15.5813 12.574 15.3993 12.0047 15.0353 11.65C14.6713 11.2953 14.172 11.118 13.5373 11.118H11.9833V17.11H13.5373ZM22.5711 19.168C22.0111 19.168 21.5117 19.0793 21.0731 18.902C20.6344 18.7153 20.2611 18.4587 19.9531 18.132C19.6544 17.796 19.4257 17.39 19.2671 16.914C19.1177 16.438 19.0431 15.906 19.0431 15.318C19.0431 14.7393 19.1177 14.2167 19.2671 13.75C19.4164 13.274 19.6357 12.868 19.9251 12.532C20.2237 12.196 20.5877 11.9393 21.0171 11.762C21.4464 11.5753 21.9364 11.482 22.4871 11.482C23.0937 11.482 23.6117 11.5847 24.0411 11.79C24.4797 11.9953 24.8344 12.2707 25.1051 12.616C25.3851 12.9613 25.5857 13.3627 25.7071 13.82C25.8377 14.268 25.9031 14.7393 25.9031 15.234V15.85H21.1851V15.962C21.1851 16.4473 21.3157 16.8347 21.5771 17.124C21.8384 17.404 22.2491 17.544 22.8091 17.544C23.2384 17.544 23.5884 17.46 23.8591 17.292C24.1297 17.1147 24.3817 16.9047 24.6151 16.662L25.6511 17.95C25.3244 18.3327 24.8951 18.6313 24.3631 18.846C23.8404 19.0607 23.2431 19.168 22.5711 19.168ZM22.5291 13.008C22.1091 13.008 21.7777 13.148 21.5351 13.428C21.3017 13.6987 21.1851 14.0627 21.1851 14.52V14.632H23.7611V14.506C23.7611 14.058 23.6584 13.6987 23.4531 13.428C23.2571 13.148 22.9491 13.008 22.5291 13.008ZM27.3664 19V11.65H29.4384V12.896H29.5224C29.6531 12.504 29.8771 12.1727 30.1944 11.902C30.5117 11.622 30.9457 11.482 31.4964 11.482C32.0004 11.482 32.4297 11.608 32.7844 11.86C33.1391 12.112 33.3957 12.4807 33.5544 12.966H33.5964C33.6617 12.7607 33.7597 12.5693 33.8904 12.392C34.0304 12.2053 34.1984 12.0467 34.3944 11.916C34.5904 11.7853 34.8097 11.6827 35.0524 11.608C35.2951 11.524 35.5564 11.482 35.8364 11.482C36.5457 11.482 37.0871 11.734 37.4604 12.238C37.8431 12.742 38.0344 13.4607 38.0344 14.394V19H35.9624V14.562C35.9624 13.6287 35.6264 13.162 34.9544 13.162C34.6464 13.162 34.3664 13.2507 34.1144 13.428C33.8624 13.6053 33.7364 13.876 33.7364 14.24V19H31.6644V14.562C31.6644 13.6287 31.3284 13.162 30.6564 13.162C30.5071 13.162 30.3577 13.1853 30.2084 13.232C30.0684 13.2693 29.9377 13.3347 29.8164 13.428C29.7044 13.5213 29.6111 13.638 29.5364 13.778C29.4711 13.9087 29.4384 14.0627 29.4384 14.24V19H27.3664ZM42.8582 19.168C42.3168 19.168 41.8315 19.0793 41.4022 18.902C40.9822 18.7247 40.6228 18.468 40.3242 18.132C40.0348 17.796 39.8108 17.39 39.6522 16.914C39.4935 16.438 39.4142 15.906 39.4142 15.318C39.4142 14.73 39.4935 14.198 39.6522 13.722C39.8108 13.246 40.0348 12.8447 40.3242 12.518C40.6228 12.182 40.9822 11.9253 41.4022 11.748C41.8315 11.5707 42.3168 11.482 42.8582 11.482C43.3995 11.482 43.8802 11.5707 44.3002 11.748C44.7295 11.9253 45.0888 12.182 45.3782 12.518C45.6768 12.8447 45.9055 13.246 46.0642 13.722C46.2228 14.198 46.3022 14.73 46.3022 15.318C46.3022 15.906 46.2228 16.438 46.0642 16.914C45.9055 17.39 45.6768 17.796 45.3782 18.132C45.0888 18.468 44.7295 18.7247 44.3002 18.902C43.8802 19.0793 43.3995 19.168 42.8582 19.168ZM42.8582 17.53C43.2688 17.53 43.5862 17.404 43.8102 17.152C44.0342 16.9 44.1462 16.5407 44.1462 16.074V14.576C44.1462 14.1093 44.0342 13.75 43.8102 13.498C43.5862 13.246 43.2688 13.12 42.8582 13.12C42.4475 13.12 42.1302 13.246 41.9062 13.498C41.6822 13.75 41.5702 14.1093 41.5702 14.576V16.074C41.5702 16.5407 41.6822 16.9 41.9062 17.152C42.1302 17.404 42.4475 17.53 42.8582 17.53Z" fill="white"/>
</svg>
