<svg width="43" height="43" viewBox="0 0 43 43" fill="none" xmlns="http://www.w3.org/2000/svg">
<path fill-rule="evenodd" clip-rule="evenodd" d="M23.9462 15.0192C24.3043 14.3831 24.9682 14 25.6875 14H29.0175C29.752 14 30.4026 14.4057 30.7523 15.0079L30.7588 15.0191L32.4475 18.017L32.4483 18.0185C32.7905 18.6235 32.7906 19.3764 32.4484 19.9815L32.4475 19.983L30.7591 22.9803C30.401 23.6163 29.7368 24 29.0175 24H25.6875C24.953 24 24.3024 23.5943 23.9527 22.9921L23.9462 22.9809L22.2575 19.983L22.2567 19.9817C21.9144 19.3765 21.9144 18.6234 22.2568 18.0182L22.2575 18.017L23.9462 15.0192ZM25.6891 16.0003L24.0001 18.9985L24 19L24.0001 19.0015L25.6834 21.9897C25.6867 21.9947 25.6905 21.9981 25.6932 22H29.0158L30.7049 19.0015L30.705 19L30.7049 18.9985L29.0216 16.0103C29.0183 16.0053 29.0145 16.0019 29.0118 16L25.6891 16.0003Z" fill="#414652"/>
<path fill-rule="evenodd" clip-rule="evenodd" d="M1.94623 15.0192C2.30428 14.3831 2.96818 14 3.6875 14H7.0175C7.75201 14 8.40263 14.4057 8.75229 15.0079L8.75884 15.0191L10.4475 18.017L10.4484 18.0185C10.7905 18.6235 10.7905 19.3763 10.4485 19.9814L10.4475 19.983L8.75908 22.9803C8.40103 23.6163 7.73682 24 7.0175 24H3.6875C2.95299 24 2.30237 23.5943 1.95271 22.9921L1.94616 22.9809L0.257478 19.983L0.256697 19.9816C-0.0855877 19.3765 -0.0855656 18.6234 0.256763 18.0182L0.257478 18.017L1.94623 15.0192ZM7.01175 16C7.01455 16.0019 7.01831 16.0053 7.02157 16.0103L8.70491 18.9985L8.705 19L8.70491 19.0015L7.01623 21.9992L3.69325 22C3.69045 21.9981 3.68669 21.9947 3.68343 21.9897L2.00009 19.0015L2 19L2.00009 18.9985L3.68876 16.0008L7.01175 16Z" fill="#414652"/>
<path fill-rule="evenodd" clip-rule="evenodd" d="M12.9462 8.01919C13.3043 7.38312 13.9682 7 14.6875 7H18.0175C18.752 7 19.4026 7.40567 19.7523 8.00786L19.7588 8.01915L21.4475 11.017L21.4484 11.0185C21.7905 11.6235 21.7906 12.3764 21.4484 12.9815L21.4475 12.983L19.7591 15.9803C19.401 16.6163 18.7368 17 18.0175 17H14.6875C13.953 17 13.3024 16.5943 12.9527 15.9921L12.9462 15.9809L11.2575 12.983L11.2567 12.9816C10.9144 12.3765 10.9144 11.6234 11.2568 11.0183L11.2575 11.017L12.9462 8.01919ZM18.0118 9C18.0145 9.00187 18.0183 9.00529 18.0216 9.01028L19.7049 11.9985L19.705 12L19.7049 12.0015L18.0162 14.9992L14.6932 15C14.6905 14.9981 14.6867 14.9947 14.6834 14.9897L13.0001 12.0015L13 12L13.0001 11.9985L14.6888 9.00081L18.0118 9Z" fill="#414652"/>
<path fill-rule="evenodd" clip-rule="evenodd" d="M12.9462 34.0192C13.3043 33.3831 13.9682 33 14.6875 33H18.0175C18.752 33 19.4026 33.4057 19.7523 34.0079L19.7588 34.0191L21.4475 37.017L21.4484 37.0185C21.7905 37.6235 21.7906 38.3764 21.4484 38.9815L21.4475 38.983L19.7591 41.9803C19.401 42.6163 18.7368 43 18.0175 43H14.6875C13.953 43 13.3024 42.5943 12.9527 41.9921L12.9462 41.9809L11.2575 38.983L11.2567 38.9816C10.9144 38.3765 10.9144 37.6234 11.2568 37.0182L11.2575 37.017L12.9462 34.0192ZM14.6891 35.0003L13.0001 37.9985L13 38L13.0001 38.0015L14.6834 40.9897C14.6867 40.9947 14.6905 40.9981 14.6932 41H18.0158L19.7049 38.0015L19.705 38L19.7049 37.9985L18.0216 35.0103C18.0183 35.0053 18.0145 35.0019 18.0118 35L14.6891 35.0003Z" fill="#414652"/>
<path fill-rule="evenodd" clip-rule="evenodd" d="M23.9462 28.0192C24.3043 27.3831 24.9682 27 25.6875 27H29.0175C29.752 27 30.4026 27.4057 30.7523 28.0079L30.7588 28.0191L32.4475 31.017L32.4484 31.0185C32.7905 31.6236 32.7905 32.3764 32.4484 32.9815L32.4475 32.983L30.7591 35.9803C30.401 36.6163 29.7368 37 29.0175 37H25.6875C24.953 37 24.3024 36.5943 23.9527 35.9921L23.9462 35.9809L22.2575 32.983L22.2567 32.9817C21.9144 32.3765 21.9144 31.6234 22.2568 31.0182L22.2575 31.017L23.9462 28.0192ZM29.0118 29C29.0145 29.0019 29.0183 29.0053 29.0216 29.0103L30.7049 31.9985L30.705 32L30.7049 32.0015L29.0162 34.9992L25.6932 35C25.6905 34.9981 25.6867 34.9947 25.6834 34.9897L24.0001 32.0015L24 32L24.0001 31.9985L25.6888 29.0008L29.0118 29Z" fill="#414652"/>
<path fill-rule="evenodd" clip-rule="evenodd" d="M1.94623 28.0192C2.30428 27.3831 2.96818 27 3.6875 27H7.0175C7.75201 27 8.40263 27.4057 8.75229 28.0079L8.75884 28.0191L10.4475 31.017L10.4484 31.0186C10.7905 31.6236 10.7905 32.3763 10.4485 32.9814L10.4475 32.983L8.75908 35.9803C8.40103 36.6163 7.73682 37 7.0175 37H3.6875C2.95299 37 2.30237 36.5943 1.95271 35.9921L1.94616 35.9809L0.257478 32.983L0.256697 32.9816C-0.0855864 32.3765 -0.0855657 31.6234 0.256759 31.0183L0.257478 31.017L1.94623 28.0192ZM7.01175 29C7.01455 29.0019 7.01831 29.0053 7.02157 29.0103L8.70491 31.9985L8.705 32L8.70491 32.0015L7.01623 34.9992L3.69325 35C3.69045 34.9981 3.68669 34.9947 3.68343 34.9897L2.00009 32.0015L2 32L2.00009 31.9985L3.68876 29.0008L7.01175 29Z" fill="#414652"/>
<path fill-rule="evenodd" clip-rule="evenodd" d="M12.9462 21.0192C13.3043 20.3831 13.9682 20 14.6875 20H18.0175C18.752 20 19.4026 20.4057 19.7523 21.0079L19.7588 21.0191L21.4475 24.017L21.4484 24.0185C21.7905 24.6235 21.7906 25.3764 21.4484 25.9815L21.4475 25.983L19.7591 28.9803C19.401 29.6163 18.7368 30 18.0175 30H14.6875C13.953 30 13.3024 29.5943 12.9527 28.9921L12.9462 28.9809L11.2575 25.983L11.2567 25.9816C10.9144 25.3765 10.9144 24.6234 11.2568 24.0182L11.2575 24.017L12.9462 21.0192ZM14.6891 22.0003L13.0001 24.9985L13 25L13.0001 25.0015L14.6834 27.9897C14.6867 27.9947 14.6905 27.9981 14.6932 28H18.0158L19.7049 25.0015L19.705 25L19.7049 24.9985L18.0216 22.0103C18.0183 22.0053 18.0145 22.0019 18.0118 22L14.6891 22.0003Z" fill="#414652"/>
<path fill-rule="evenodd" clip-rule="evenodd" d="M16.3475 28C16.8998 28 17.3475 28.4477 17.3475 29V34C17.3475 34.5523 16.8998 35 16.3475 35C15.7952 35 15.3475 34.5523 15.3475 34V29C15.3475 28.4477 15.7952 28 16.3475 28Z" fill="#414652"/>
<path fill-rule="evenodd" clip-rule="evenodd" d="M16.3475 15C16.8998 15 17.3475 15.4477 17.3475 16V21C17.3475 21.5523 16.8998 22 16.3475 22C15.7952 22 15.3475 21.5523 15.3475 21V16C15.3475 15.4477 15.7952 15 16.3475 15Z" fill="#414652"/>
<path fill-rule="evenodd" clip-rule="evenodd" d="M18.8818 26.4595C19.1582 25.9814 19.7699 25.8178 20.248 26.0943L24.728 28.6843C25.2061 28.9607 25.3697 29.5724 25.0932 30.0505C24.8168 30.5286 24.2051 30.6922 23.727 30.4157L19.247 27.8257C18.7689 27.5493 18.6053 26.9376 18.8818 26.4595Z" fill="#414652"/>
<path fill-rule="evenodd" clip-rule="evenodd" d="M8.0311 20.2006C8.30689 19.7221 8.91835 19.5578 9.39685 19.8336L13.4569 22.1736C13.9354 22.4494 14.0997 23.0609 13.8239 23.5394C13.5481 24.0179 12.9366 24.1822 12.4581 23.9064L8.39815 21.5664C7.91965 21.2906 7.75532 20.6791 8.0311 20.2006Z" fill="#414652"/>
<path fill-rule="evenodd" clip-rule="evenodd" d="M24.6739 20.2006C24.9497 20.6791 24.7854 21.2906 24.3069 21.5664L20.2469 23.9064C19.7684 24.1822 19.1569 24.0179 18.8811 23.5394C18.6053 23.0609 18.7696 22.4494 19.2481 22.1736L23.3081 19.8336C23.7866 19.5578 24.3981 19.7221 24.6739 20.2006Z" fill="#414652"/>
<path fill-rule="evenodd" clip-rule="evenodd" d="M13.8132 26.4595C14.0897 26.9376 13.9261 27.5493 13.448 27.8257L8.968 30.4157C8.48987 30.6922 7.87819 30.5286 7.60177 30.0505C7.32535 29.5724 7.48886 28.9607 7.967 28.6843L12.447 26.0943C12.9251 25.8178 13.5368 25.9814 13.8132 26.4595Z" fill="#414652"/>
<path d="M36.0975 2C38.5775 2 40.5975 4.02 40.5975 6.5C40.5975 8.98 38.5775 11 36.0975 11C33.6175 11 31.5975 8.98 31.5975 6.5C31.5975 4.02 33.6175 2 36.0975 2ZM36.0975 0C32.5075 0 29.5975 2.91 29.5975 6.5C29.5975 10.09 32.5075 13 36.0975 13C39.6875 13 42.5975 10.09 42.5975 6.5C42.5975 2.91 39.6875 0 36.0975 0Z" fill="#414652"/>
<path fill-rule="evenodd" clip-rule="evenodd" d="M36.8904 5.29289C37.2809 4.90237 37.9141 4.90237 38.3046 5.29289C38.6951 5.68342 38.6951 6.31658 38.3046 6.70711L36.3046 8.70711C35.9141 9.09763 35.2809 9.09763 34.8904 8.70711L33.8904 7.70711C33.4999 7.31658 33.4999 6.68342 33.8904 6.29289C34.2809 5.90237 34.9141 5.90237 35.3046 6.29289L35.5975 6.58579L36.8904 5.29289Z" fill="#414652"/>
</svg>
