<svg width="28" height="28" viewBox="0 0 28 28" fill="none" xmlns="http://www.w3.org/2000/svg">
<path d="M21 1.52588e-05C21.5523 1.52588e-05 22 0.447731 22 1.00002V2.00002H26C27.1046 2.00002 28 2.89545 28 4.00002V26C28 27.1046 27.1046 28 26 28H2C0.89543 28 0 27.1046 0 26V4.00002C0 2.89545 0.89543 2.00002 2 2.00002H6V1.00002C6 0.447731 6.44772 1.52588e-05 7 1.52588e-05C7.55228 1.52588e-05 8 0.447731 8 1.00002V2.00002H20V1.00002C20 0.447731 20.4477 1.52588e-05 21 1.52588e-05ZM26 10H2V26H26V10ZM8 19C8.74018 19 9.38644 19.4021 9.73229 19.9998L21 20C21.5523 20 22 20.4477 22 21C22 21.5523 21.5523 22 21 22L9.73114 22.0022C9.38502 22.5988 8.73936 23 8 23C6.89543 23 6 22.1046 6 21C6 19.8954 6.89543 19 8 19ZM22 14V16H7C6.44772 16 6 15.5523 6 15C6 14.4477 6.44772 14 7 14H22ZM6 4.00002H2V8.00002H26V4.00002H22V5.00002C22 5.5523 21.5523 6.00002 21 6.00002C20.4477 6.00002 20 5.5523 20 5.00002V4.00002H8V5.00002C8 5.5523 7.55228 6.00002 7 6.00002C6.44772 6.00002 6 5.5523 6 5.00002V4.00002Z" fill="#333333"/>
</svg>
