<svg width="24" height="32" viewBox="0 0 24 32" fill="none" xmlns="http://www.w3.org/2000/svg">
<path d="M12 1.52588e-05C18.6325 1.52588e-05 24 5.48949 24 12.25C24 14.4005 23.588 16.2631 22.7139 18.1479C21.9315 19.835 20.8063 21.5233 18.9287 23.9307C18.7161 24.2033 18.1602 24.8976 17.4558 25.7754L16.9664 26.3852C16.7973 26.5957 16.623 26.8128 16.4457 27.0336L12.7877 31.6161C12.3873 32.128 11.6127 32.128 11.2123 31.6161C10.6868 30.9442 9.77748 29.8058 8.81329 28.6028L8.08499 27.6948C7.47805 26.9385 6.88177 26.1963 6.37643 25.5663L4.65116 23.3875C3.02264 21.2635 2.00828 19.7052 1.28608 18.1479C0.41201 16.2631 0 14.4005 0 12.25C0 5.48949 5.36749 1.52588e-05 12 1.52588e-05ZM12 2.00002C6.48224 2.00002 2 6.58413 2 12.25C2 14.1095 2.3485 15.685 3.10046 17.3064C3.80475 18.8251 4.85672 20.4035 6.64834 22.7007L12 29.386L16.5511 23.7066L17.7522 22.183C19.3031 20.161 20.2494 18.7083 20.8995 17.3064C21.6515 15.685 22 14.1095 22 12.25C22 6.58413 17.5178 2.00002 12 2.00002ZM12 6.00002C15.3137 6.00002 18 8.68631 18 12C18 15.3137 15.3137 18 12 18C8.68629 18 6 15.3137 6 12C6 8.68631 8.68629 6.00002 12 6.00002ZM12 8.00002C9.79086 8.00002 8 9.79088 8 12C8 14.2092 9.79086 16 12 16C14.2091 16 16 14.2092 16 12C16 9.79088 14.2091 8.00002 12 8.00002Z" fill="#0E0E0E"/>
</svg>
