<svg width="48" height="48" viewBox="0 0 48 48" fill="none" xmlns="http://www.w3.org/2000/svg">
<path d="M27 20H22C21.45 20 21 20.45 21 21V23C21 23.55 21.45 24 22 24H26C26.55 24 27 24.45 27 25V27C27 27.55 26.55 28 26 28H21" stroke="white" stroke-width="2" stroke-linecap="round" stroke-linejoin="round"/>
<path d="M24 20V18" stroke="white" stroke-width="2" stroke-linecap="round" stroke-linejoin="round"/>
<path d="M24 28V30" stroke="white" stroke-width="2" stroke-linecap="round" stroke-linejoin="round"/>
<path d="M29.4405 32.4199C29.2205 32.5599 29.0005 32.6899 28.7705 32.8199" stroke="white" stroke-width="2" stroke-linecap="round" stroke-linejoin="round"/>
<path d="M38.86 34.19C43.67 27.18 42.96 17.52 36.73 11.29L31.78 6.34001L32.9 5.22001C33.53 4.59001 33.08 3.51001 32.19 3.51001H23.29V12.41C23.29 13.3 24.37 13.75 25 13.12L26.12 12L31.07 16.95C34.53 20.41 34.92 25.76 32.26 29.66" stroke="white" stroke-width="2" stroke-linecap="round" stroke-linejoin="round"/>
<path d="M33.4199 39.37C34.3099 38.83 35.1499 38.2 35.9499 37.49" stroke="white" stroke-width="2" stroke-linecap="round" stroke-linejoin="round"/>
<path d="M29.0596 41.3C29.3596 41.21 29.6496 41.12 29.9396 41.02" stroke="white" stroke-width="2" stroke-linecap="round" stroke-linejoin="round"/>
<path d="M18.6104 15.5799C18.8304 15.4399 19.0504 15.3099 19.2804 15.1799" stroke="white" stroke-width="2" stroke-linecap="round" stroke-linejoin="round"/>
<path d="M9.20013 13.8101C4.39013 20.8201 5.10013 30.4801 11.3301 36.7101L16.2801 41.6601L15.1601 42.7801C14.5301 43.4101 14.9801 44.4901 15.8701 44.4901H24.7701V35.5901C24.7701 34.7001 23.6901 34.2501 23.0601 34.8801L21.9401 36.0001L16.9901 31.0501C13.5301 27.5901 13.1401 22.2401 15.8001 18.3401" stroke="white" stroke-width="2" stroke-linecap="round" stroke-linejoin="round"/>
<path d="M14.6404 8.62988C13.7504 9.16988 12.9104 9.79988 12.1104 10.5099" stroke="white" stroke-width="2" stroke-linecap="round" stroke-linejoin="round"/>
<path d="M19.0001 6.69995C18.7001 6.78995 18.4101 6.87995 18.1201 6.97995" stroke="white" stroke-width="2" stroke-linecap="round" stroke-linejoin="round"/>
</svg>
