<svg width="48" height="48" viewBox="0 0 48 48" fill="none" xmlns="http://www.w3.org/2000/svg">
<path d="M45 16V30C45 32.21 43.21 34 41 34H21" stroke="white" stroke-width="2" stroke-miterlimit="10" stroke-linecap="round"/>
<path d="M7 16V13C7 10.79 8.79 9 11 9H30" stroke="white" stroke-width="2" stroke-miterlimit="10" stroke-linecap="round"/>
<path d="M26 34V39" stroke="white" stroke-width="2" stroke-miterlimit="10"/>
<path d="M21 39H31" stroke="white" stroke-width="2" stroke-miterlimit="10" stroke-linecap="round"/>
<path d="M14 21C15.1 21 16 21.9 16 23V41C16 42.1 15.1 43 14 43H6C4.9 43 4 42.1 4 41V23C4 21.9 4.9 21 6 21H14ZM14 19H6C3.79 19 2 20.79 2 23V41C2 43.21 3.79 45 6 45H14C16.21 45 18 43.21 18 41V23C18 20.79 16.21 19 14 19Z" fill="white"/>
<path d="M7 39.7998H13" stroke="white" stroke-width="2" stroke-miterlimit="10" stroke-linecap="round"/>
<path d="M39.5 4C41.98 4 44 6.02 44 8.5C44 10.98 41.98 13 39.5 13C37.02 13 35 10.98 35 8.5C35 6.02 37.02 4 39.5 4ZM39.5 2C35.91 2 33 4.91 33 8.5C33 12.09 35.91 15 39.5 15C43.09 15 46 12.09 46 8.5C46 4.91 43.09 2 39.5 2Z" fill="white"/>
<path d="M38 9L39 10L41 8" stroke="white" stroke-width="2" stroke-linecap="round" stroke-linejoin="round"/>
<path d="M21 21L24.29 24.29C24.68 24.68 25.31 24.68 25.7 24.29C26.02 23.97 26.74 23.25 27.29 22.7C27.68 22.31 28.31 22.31 28.7 22.7C29.44 23.44 30.59 24.59 31.29 25.29C31.68 25.68 32.31 25.68 32.7 25.29L37.99 20H35.99" stroke="white" stroke-width="2" stroke-linecap="round" stroke-linejoin="round"/>
<path d="M38 20V22" stroke="white" stroke-width="2" stroke-linecap="round" stroke-linejoin="round"/>
</svg>
