<svg width="41" height="40" viewBox="0 0 41 40" fill="none" xmlns="http://www.w3.org/2000/svg">
<path d="M24.3596 6C22.7896 7.57 21.2096 9.15 19.6396 10.72" stroke="white" stroke-width="2" stroke-linecap="round" stroke-linejoin="round"/>
<path d="M19.64 7.18007C20.2917 7.18007 20.82 6.65176 20.82 6.00007C20.82 5.34837 20.2917 4.82007 19.64 4.82007C18.9883 4.82007 18.46 5.34837 18.46 6.00007C18.46 6.65176 18.9883 7.18007 19.64 7.18007Z" fill="white"/>
<path d="M24.3597 11.9C25.0114 11.9 25.5397 11.3717 25.5397 10.72C25.5397 10.0683 25.0114 9.54004 24.3597 9.54004C23.708 9.54004 23.1797 10.0683 23.1797 10.72C23.1797 11.3717 23.708 11.9 24.3597 11.9Z" fill="white"/>
<path fill-rule="evenodd" clip-rule="evenodd" d="M16.9197 1.28003H27.0897C28.1897 1.28003 29.0897 2.18003 29.0897 3.28003V13.45C29.0897 14.55 28.1897 15.45 27.0897 15.45H23.7897L20.2497 18.99V15.45H16.9297C15.8297 15.45 14.9297 14.55 14.9297 13.45V3.28003C14.9297 2.18003 15.8297 1.28003 16.9297 1.28003H16.9197Z" stroke="white" stroke-width="2" stroke-linecap="round" stroke-linejoin="round"/>
<path d="M33.5898 33.49C35.3298 35.23 37.0698 36.97 38.8098 38.71" stroke="white" stroke-width="2" stroke-linecap="round" stroke-linejoin="round"/>
<path d="M32.8599 38.86C30.8099 36.81 28.7699 34.77 26.7199 32.72C26.0999 33.34 25.4699 33.97 24.8499 34.59C24.0299 35.41 22.6299 34.83 22.6299 33.67V22.48H33.8199C34.9799 22.48 35.5599 23.88 34.7399 24.7L32.8699 26.57C34.9199 28.62 36.9599 30.66 39.0099 32.71" stroke="white" stroke-width="2" stroke-linecap="round" stroke-linejoin="round"/>
<path d="M6.41043 23.6499C4.67043 21.9099 2.93043 20.1699 1.19043 18.4299" stroke="white" stroke-width="2" stroke-linecap="round" stroke-linejoin="round"/>
<path d="M7.14 18.28C9.19 20.33 11.23 22.37 13.28 24.42C13.9 23.8 14.53 23.17 15.15 22.55C15.97 21.73 17.37 22.31 17.37 23.47V34.66H6.19C5.03 34.66 4.45 33.26 5.27 32.44L7.14 30.57C5.09 28.52 3.05 26.48 1 24.43" stroke="white" stroke-width="2" stroke-linecap="round" stroke-linejoin="round"/>
</svg>
