<svg xmlns="http://www.w3.org/2000/svg" xmlns:xlink="http://www.w3.org/1999/xlink" width="32" height="33"><defs><rect id="a" width="24" height="16" x="0" y="0" rx="2"/><rect id="c" width="24" height="16" x="0" y="0" rx="2"/></defs><g fill="none" fill-rule="evenodd" transform="translate(0 5)"><mask id="b" fill="#fff"><use xlink:href="#a"/></mask><use fill="#0D47A1" fill-rule="nonzero" xlink:href="#a"/><path fill="#FFF" fill-rule="nonzero" d="M.414 7.987h.719l3.833-2.551v2.55h2.069v-2.55l3.832 2.55h.72a.416.416 0 0 0 .413-.42v-.333L8.712 5.044H12V2.943H8.711L12 .753V.42a.417.417 0 0 0-.414-.42h-.719L7.034 2.551V0H4.965v2.551L1.258.084a1.805 1.805 0 0 0-1.017.83l3.048 2.029H0v2.101h3.289L0 7.233v.333c0 .233.185.42.414.42zm5.711 2.292.313 1.047 1-.405c.086-.034.163.065.111.142l-.611.9.936.543c.08.046.052.17-.04.176l-1.075.076.166 1.082c.014.092-.098.147-.16.078l-.729-.806-.729.806c-.062.069-.174.014-.16-.078l.166-1.082-1.075-.076c-.091-.006-.119-.13-.04-.176l.937-.542-.612-.901c-.052-.077.026-.176.111-.142l1 .405.313-1.047a.092.092 0 0 1 .178 0zm12.31 1.524.153.512.488-.198c.042-.017.08.031.055.069l-.3.44.458.265c.039.022.025.083-.02.086l-.524.037.08.528c.008.045-.047.072-.078.039l-.356-.394-.356.394c-.03.033-.085.006-.078-.039l.081-.528-.525-.037c-.045-.003-.058-.064-.02-.086l.458-.265-.299-.44c-.025-.038.013-.086.054-.07l.49.199.152-.512a.045.045 0 0 1 .087 0zm1.18-4.125c.016-.048.083-.048.1 0l.122.373.387.003c.05 0 .071.065.03.096l-.31.233.116.375c.015.049-.04.09-.08.06l-.315-.23-.315.23c-.04.03-.095-.011-.08-.06l.117-.375-.312-.233c-.04-.03-.02-.095.03-.096l.388-.003.122-.373zm-4.582-.92.152.512.49-.198c.041-.016.08.032.054.07l-.3.44.458.265c.039.022.025.082-.02.086l-.524.037.08.528a.045.045 0 0 1-.078.038l-.356-.393-.356.393c-.03.034-.085.007-.078-.038l.081-.528-.525-.037c-.045-.004-.058-.064-.02-.086l.458-.265-.299-.44c-.025-.038.013-.086.054-.07l.49.198.152-.511a.045.045 0 0 1 .087 0zm6.62-1.681.153.512.49-.198c.04-.017.079.031.053.069l-.298.44.457.265c.039.023.025.083-.02.086l-.525.037.081.529c.007.045-.047.072-.078.038l-.356-.394-.356.394c-.03.033-.085.007-.078-.038l.081-.529-.525-.037c-.045-.003-.058-.063-.02-.086l.458-.265-.299-.44c-.025-.038.013-.086.054-.07l.49.199.152-.512a.045.045 0 0 1 .087 0zm-3.218-2.246.153.512.488-.198c.042-.017.08.031.055.069l-.3.44.458.265c.039.023.025.083-.02.086l-.524.037.08.529a.045.045 0 0 1-.078.038l-.356-.394-.356.394c-.03.034-.085.007-.078-.038l.081-.529-.525-.037c-.045-.003-.058-.063-.02-.086l.458-.265-.299-.44c-.025-.038.013-.086.054-.069l.49.198.152-.512a.045.045 0 0 1 .087 0z" mask="url(#b)"/><path fill="#F44336" fill-rule="nonzero" d="M6.62 0v3.363H12v1.261H6.62v3.363H5.38V4.624H0V3.363h5.38V0h1.24zM4.955 5.044.492 7.987H.414a.399.399 0 0 1-.305-.145l-.05-.071 4.135-2.727h.76zm3.164 0L11.993 7.6a.414.414 0 0 1-.234.346l-4.4-2.902h.76zM.685.393l3.867 2.55h-.76L.386.696C.473.584.574.482.685.393zM11.586 0c.122 0 .227.056.301.141l.05.07-4.142 2.732h-.76L11.496 0h.09z" mask="url(#b)"/><rect width="23" height="15" x=".5" y=".5" stroke="#000" stroke-opacity=".04" mask="url(#b)" rx="1"/><rect width="23" height="15" x=".5" y=".5" stroke="#000" stroke-opacity=".04" rx="2"/><g transform="translate(8 8)"><mask id="d" fill="#fff"><use xlink:href="#c"/></mask><use fill="#FFF" fill-rule="nonzero" xlink:href="#c"/><path fill="#F44336" fill-rule="nonzero" d="M24 14.688c0 .725-.587 1.312-1.312 1.312H1.312A1.311 1.311 0 0 1 0 14.688h24zm0-2.448v1.224H0V12.24h24zm0-2.448v1.224H0V9.792h24zm0-2.448v1.224H0V7.344h24zm0-2.448V6.12H0V4.896h24zm0-2.448v1.224H0V2.448h24zM22.776 0c.634 0 1.155.482 1.218 1.099l.006.125H.688C.688.548 1.236 0 1.912 0h20.864z" mask="url(#d)"/><path fill="#0D47A1" fill-rule="nonzero" d="M2 0h9.5v8.568H0V2a2 2 0 0 1 2-2z" mask="url(#d)"/><path fill="#F5F5F5" fill-rule="nonzero" d="m1.094 6.817.095.281h.295a.04.04 0 0 1 .037.028.041.041 0 0 1-.013.044l-.24.176.09.282a.04.04 0 0 1-.014.045.038.038 0 0 1-.047-.002l-.24-.172-.24.172a.039.039 0 0 1-.046 0 .04.04 0 0 1-.016-.043l.099-.28-.24-.177A.04.04 0 0 1 .6 7.127.04.04 0 0 1 .638 7.1h.296l.095-.282c.005-.04.053-.04.065-.001zm9.035-.026c.016 0 .03.01.033.026l.096.281h.295c.017 0 .031.012.037.028a.041.041 0 0 1-.013.044l-.24.176.09.282a.04.04 0 0 1-.014.045c-.015.01-.034.01-.047-.002l-.24-.172-.24.172a.039.039 0 0 1-.046 0 .04.04 0 0 1-.016-.043l.098-.28-.24-.177a.039.039 0 0 1-.012-.044.038.038 0 0 1 .036-.027h.296l.095-.282a.034.034 0 0 1 .032-.027zm-2.269 0c.016 0 .03.01.034.026l.095.281h.295a.04.04 0 0 1 .037.028.041.041 0 0 1-.013.044l-.24.176.09.282a.04.04 0 0 1-.014.045.038.038 0 0 1-.047-.002l-.24-.172-.24.172a.039.039 0 0 1-.046 0 .04.04 0 0 1-.016-.043l.099-.28-.24-.177a.038.038 0 0 1-.013-.044.039.039 0 0 1 .037-.027h.295l.095-.282a.034.034 0 0 1 .032-.027zm-4.498.026.095.281h.295a.04.04 0 0 1 .037.028.041.041 0 0 1-.013.044l-.24.176.09.282a.04.04 0 0 1-.014.045.038.038 0 0 1-.047-.002l-.24-.172-.24.172a.039.039 0 0 1-.046 0 .04.04 0 0 1-.016-.043l.099-.28-.24-.177a.038.038 0 0 1-.013-.044.039.039 0 0 1 .037-.027h.296l.095-.282c0-.04.053-.04.065-.001zm2.268 0 .096.281h.295c.017 0 .031.012.037.028a.041.041 0 0 1-.013.044l-.24.176.09.282a.04.04 0 0 1-.014.045c-.015.01-.034.01-.047-.002l-.24-.172-.24.172a.039.039 0 0 1-.046 0 .04.04 0 0 1-.016-.043l.098-.28-.24-.177a.039.039 0 0 1-.012-.044.038.038 0 0 1 .036-.027h.296l.096-.282c0-.04.053-.04.064-.001zm-3.402-.744.095.281h.295a.04.04 0 0 1 .037.028.04.04 0 0 1-.013.044l-.24.176.09.282a.04.04 0 0 1-.014.045.038.038 0 0 1-.047-.002l-.24-.172-.24.172a.039.039 0 0 1-.046 0 .038.038 0 0 1-.015-.043l.09-.282-.24-.176a.04.04 0 0 1 .024-.072h.304l.095-.281c.006-.039.054-.039.065 0zM9.01 6.04a.038.038 0 0 1 .018.032l.095.281h.295a.04.04 0 0 1 .037.028.04.04 0 0 1-.013.044l-.24.176.09.282a.04.04 0 0 1-.014.045.038.038 0 0 1-.047-.002l-.24-.172-.24.172a.039.039 0 0 1-.046 0 .038.038 0 0 1-.015-.043l.09-.282-.24-.176a.04.04 0 0 1 .024-.072h.295l.095-.281c0-.013.007-.025.019-.032a.035.035 0 0 1 .037 0zm-2.245.032.095.281h.295a.04.04 0 0 1 .037.028.041.041 0 0 1-.013.044l-.24.176.09.282a.04.04 0 0 1-.014.045.038.038 0 0 1-.047-.002l-.24-.172-.24.172a.039.039 0 0 1-.046 0 .04.04 0 0 1-.016-.043l.09-.282-.24-.176a.041.041 0 0 1 .025-.072h.295l.095-.281c.01-.039.063-.039.074 0zm-2.269 0 .095.281h.295a.04.04 0 0 1 .037.028.04.04 0 0 1-.013.044l-.24.176.09.282a.04.04 0 0 1-.014.045.038.038 0 0 1-.047-.002l-.24-.172-.24.172a.039.039 0 0 1-.046 0 .038.038 0 0 1-.015-.043l.09-.282-.24-.176a.04.04 0 0 1 .024-.072h.304l.095-.281c.001-.039.054-.039.065 0zm-1.134-.721.095.282h.295c.017 0 .032.01.037.027a.041.041 0 0 1-.013.044l-.24.177.09.281a.039.039 0 0 1-.014.045.038.038 0 0 1-.047-.002l-.24-.172-.24.172a.039.039 0 0 1-.046 0 .04.04 0 0 1-.016-.043l.09-.281-.24-.177a.039.039 0 0 1-.012-.044.039.039 0 0 1 .037-.027h.304l.095-.282c0-.033.053-.033.065 0zm6.8 0 .096.282h.295c.017 0 .031.01.037.027a.041.041 0 0 1-.013.044l-.24.177.09.281a.039.039 0 0 1-.014.045c-.015.01-.034.01-.047-.002l-.24-.172-.24.172a.039.039 0 0 1-.046 0 .04.04 0 0 1-.016-.043l.09-.281-.24-.177a.039.039 0 0 1-.012-.044.038.038 0 0 1 .036-.027h.296l.095-.282c.014-.033.067-.033.073 0zm-9.068 0 .095.282h.295c.017 0 .032.01.037.027a.041.041 0 0 1-.013.044l-.24.177.09.281a.039.039 0 0 1-.014.045.038.038 0 0 1-.047-.002l-.24-.172-.24.172a.039.039 0 0 1-.046 0 .04.04 0 0 1-.016-.043l.09-.281-.24-.177a.039.039 0 0 1-.012-.044.039.039 0 0 1 .037-.027h.304l.095-.282c.005-.033.053-.033.065 0zm6.8 0 .095.282h.295c.017 0 .032.01.037.027a.041.041 0 0 1-.013.044l-.24.177.09.281a.039.039 0 0 1-.014.045.038.038 0 0 1-.047-.002l-.24-.172-.24.172a.039.039 0 0 1-.046 0 .04.04 0 0 1-.016-.043l.09-.281-.24-.177a.039.039 0 0 1-.012-.044.039.039 0 0 1 .037-.027h.295l.095-.282c.014-.033.067-.033.074 0zm-2.264 0 .096.282h.295c.017 0 .031.01.037.027a.041.041 0 0 1-.013.044l-.24.177.09.281a.039.039 0 0 1-.014.045c-.015.01-.034.01-.047-.002l-.24-.172-.24.172a.039.039 0 0 1-.046 0 .04.04 0 0 1-.016-.043l.09-.281-.24-.177a.039.039 0 0 1-.012-.044.038.038 0 0 1 .036-.027h.304l.096-.282c0-.033.053-.033.064 0zm-3.402-.743.095.281h.295a.04.04 0 0 1 .037.028.04.04 0 0 1-.013.044l-.24.176.09.282a.04.04 0 0 1-.014.045.038.038 0 0 1-.047-.002l-.24-.172-.24.172a.039.039 0 0 1-.046 0 .038.038 0 0 1-.015-.043l.098-.28-.24-.177a.04.04 0 0 1-.013-.044.039.039 0 0 1 .037-.027h.296l.095-.282c.006-.04.054-.04.065-.001zm6.763-.037c.02 0 .037.016.037.037l.095.281h.295a.04.04 0 0 1 .037.028.04.04 0 0 1-.013.044l-.24.176.09.282a.04.04 0 0 1-.014.045.038.038 0 0 1-.047-.002l-.24-.172-.24.172a.039.039 0 0 1-.046 0 .038.038 0 0 1-.015-.043l.09-.282-.24-.176a.04.04 0 0 1 .024-.072h.295l.095-.281c0-.02.017-.037.037-.037zm-2.226.037.095.281h.295a.04.04 0 0 1 .037.028.041.041 0 0 1-.013.044l-.24.176.09.282a.04.04 0 0 1-.014.045.038.038 0 0 1-.047-.002l-.24-.172-.24.172a.039.039 0 0 1-.046 0 .04.04 0 0 1-.016-.043l.09-.282-.24-.176a.041.041 0 0 1 .025-.072h.295l.095-.281c.01-.039.063-.039.074 0zm-2.269 0 .095.281h.295a.04.04 0 0 1 .037.028.04.04 0 0 1-.013.044l-.24.176.09.282a.04.04 0 0 1-.014.045.038.038 0 0 1-.047-.002l-.24-.172-.24.172a.039.039 0 0 1-.046 0 .038.038 0 0 1-.015-.043l.098-.28-.24-.177a.04.04 0 0 1-.013-.044.039.039 0 0 1 .037-.027h.296l.095-.282c.001-.04.054-.04.065-.001zm-1.134-.716.095.281h.295a.04.04 0 0 1 .037.028.041.041 0 0 1-.013.044l-.24.176.09.282a.04.04 0 0 1-.014.045.038.038 0 0 1-.047-.002l-.24-.172-.24.172a.039.039 0 0 1-.046 0 .04.04 0 0 1-.016-.043l.099-.28-.24-.177a.038.038 0 0 1-.013-.044.039.039 0 0 1 .037-.027h.296l.095-.282c0-.04.053-.04.065-.001zm6.767-.026c.016 0 .03.01.033.026l.096.281h.295c.017 0 .031.012.037.028a.041.041 0 0 1-.013.044l-.24.176.09.282a.04.04 0 0 1-.014.045c-.015.01-.034.01-.047-.002l-.24-.172-.24.172a.039.039 0 0 1-.046 0 .04.04 0 0 1-.016-.043l.098-.28-.24-.177a.039.039 0 0 1-.012-.044.038.038 0 0 1 .036-.027h.296l.095-.282a.034.034 0 0 1 .032-.027zm-2.272-.011c.02 0 .037.016.037.037l.095.281h.295a.04.04 0 0 1 .037.028.041.041 0 0 1-.013.044l-.24.176.09.282a.04.04 0 0 1-.014.045.038.038 0 0 1-.047-.002l-.24-.172-.24.172a.039.039 0 0 1-.046 0 .04.04 0 0 1-.016-.043l.09-.282-.24-.176a.039.039 0 0 1-.012-.044.041.041 0 0 1 .037-.028h.295l.095-.281c0-.02.016-.037.037-.037zm-6.763.037.095.281h.295a.04.04 0 0 1 .037.028.041.041 0 0 1-.013.044l-.24.176.09.282a.04.04 0 0 1-.014.045.038.038 0 0 1-.047-.002l-.24-.172-.24.172a.039.039 0 0 1-.046 0 .04.04 0 0 1-.016-.043l.099-.28-.24-.177C.6 4.237.595 4.22.6 4.203a.039.039 0 0 1 .037-.027h.296l.095-.282c.005-.04.053-.04.065-.001zm4.536 0 .096.281h.295c.017 0 .031.012.037.028a.041.041 0 0 1-.013.044l-.24.176.09.282a.04.04 0 0 1-.014.045c-.015.01-.034.01-.047-.002l-.24-.172-.24.172a.039.039 0 0 1-.046 0 .04.04 0 0 1-.016-.043l.09-.282-.24-.176a.039.039 0 0 1-.012-.044.04.04 0 0 1 .036-.028h.304l.096-.281c0-.039.053-.039.064 0zm-3.402-.75.095.282h.295c.017 0 .032.011.037.027a.04.04 0 0 1-.013.044l-.24.177.09.281a.039.039 0 0 1-.061.044l-.24-.172-.24.172a.039.039 0 0 1-.046 0 .04.04 0 0 1-.015-.044l.09-.281-.24-.177a.04.04 0 0 1-.013-.044.039.039 0 0 1 .037-.027h.304l.095-.282c.006-.033.054-.033.065 0zm4.537 0 .095.282h.295c.017 0 .032.011.037.027a.041.041 0 0 1-.013.044l-.24.177.09.281a.039.039 0 0 1-.061.044l-.24-.172-.24.172a.039.039 0 0 1-.046 0 .041.041 0 0 1-.016-.044l.09-.281-.24-.177a.042.042 0 0 1-.012-.044.039.039 0 0 1 .037-.027h.295l.095-.282c.01-.033.063-.033.074 0zm-2.269 0 .095.282h.295c.017 0 .032.011.037.027a.04.04 0 0 1-.013.044l-.24.177.09.281a.039.039 0 0 1-.061.044l-.24-.172-.24.172a.039.039 0 0 1-.046 0 .04.04 0 0 1-.015-.044l.09-.281-.24-.177a.04.04 0 0 1-.013-.044.039.039 0 0 1 .037-.027h.304l.095-.282c.001-.033.054-.033.065 0zm4.532 0 .095.282h.295c.017 0 .032.011.037.027a.04.04 0 0 1-.013.044l-.24.177.09.281a.039.039 0 0 1-.061.044l-.24-.172-.24.172a.039.039 0 0 1-.046 0 .04.04 0 0 1-.015-.044l.09-.281-.24-.177a.04.04 0 0 1-.013-.044.039.039 0 0 1 .037-.027h.295l.095-.282c.015-.033.068-.033.074 0zM5.63 2.428l.096.282h.295c.017 0 .031.01.037.027a.041.041 0 0 1-.013.044l-.24.177.09.281a.039.039 0 0 1-.014.045c-.015.01-.034.01-.047-.002l-.24-.172-.24.172a.039.039 0 0 1-.046 0 .04.04 0 0 1-.016-.043l.09-.281-.24-.177a.039.039 0 0 1-.012-.044.038.038 0 0 1 .036-.027h.304l.096-.282c0-.033.053-.033.064 0zm-4.536 0 .095.282h.295c.017 0 .032.01.037.027a.041.041 0 0 1-.013.044l-.24.177.09.281a.039.039 0 0 1-.014.045.038.038 0 0 1-.047-.002l-.24-.172-.24.172a.039.039 0 0 1-.046 0 .04.04 0 0 1-.016-.043l.09-.281-.24-.177a.039.039 0 0 1-.012-.044.039.039 0 0 1 .037-.027h.304l.095-.282c.005-.033.053-.033.065 0zm2.27 0 .096.282h.297c.017 0 .031.01.037.027a.041.041 0 0 1-.013.044l-.24.177.09.281a.039.039 0 0 1-.014.045c-.015.01-.034.01-.047-.002l-.24-.172-.24.172a.039.039 0 0 1-.046 0 .04.04 0 0 1-.016-.043l.09-.281-.24-.177a.039.039 0 0 1-.012-.044.038.038 0 0 1 .036-.027h.295l.095-.282c.006-.033.058-.033.073 0zm4.53 0 .095.282h.295c.017 0 .032.01.037.027a.041.041 0 0 1-.013.044l-.24.177.09.281a.039.039 0 0 1-.014.045.038.038 0 0 1-.047-.002l-.24-.172-.24.172a.039.039 0 0 1-.046 0 .04.04 0 0 1-.016-.043l.09-.281-.24-.177a.039.039 0 0 1-.012-.044.039.039 0 0 1 .037-.027h.295l.095-.282c.014-.033.067-.033.074 0zm2.268 0 .096.282h.295c.017 0 .031.01.037.027a.041.041 0 0 1-.013.044l-.24.177.09.281a.039.039 0 0 1-.014.045c-.015.01-.034.01-.047-.002l-.24-.172-.24.172a.039.039 0 0 1-.046 0 .04.04 0 0 1-.016-.043l.09-.281-.24-.177a.039.039 0 0 1-.012-.044.038.038 0 0 1 .036-.027h.296l.095-.282c.014-.033.067-.033.073 0zm-3.397-.744.095.282h.295c.017 0 .032.01.037.027a.041.041 0 0 1-.013.044l-.24.177.09.281a.039.039 0 0 1-.014.045.038.038 0 0 1-.047-.002l-.24-.172-.24.172a.039.039 0 0 1-.046 0 .04.04 0 0 1-.016-.043l.09-.281-.24-.177a.042.042 0 0 1-.012-.044.039.039 0 0 1 .037-.027h.295l.095-.282c.01-.038.063-.038.074 0zm-2.269 0 .095.282h.295c.017 0 .032.01.037.027a.04.04 0 0 1-.013.044l-.24.177.09.281a.039.039 0 0 1-.014.045.038.038 0 0 1-.047-.002l-.24-.172-.24.172a.039.039 0 0 1-.046 0 .038.038 0 0 1-.015-.043l.098-.28-.24-.177a.04.04 0 0 1-.013-.044.04.04 0 0 1 .037-.027h.296l.095-.281c.001-.04.054-.04.065-.002zm-2.268 0 .095.282h.295c.017 0 .032.01.037.027a.04.04 0 0 1-.013.044l-.24.177.09.281a.039.039 0 0 1-.014.045.038.038 0 0 1-.047-.002l-.24-.172-.24.172a.039.039 0 0 1-.046 0 .038.038 0 0 1-.015-.043l.098-.28-.24-.177a.04.04 0 0 1-.013-.044.04.04 0 0 1 .037-.027h.296l.095-.281c.006-.04.054-.04.065-.002zm6.782-.032a.038.038 0 0 1 .018.032l.095.282h.295c.017 0 .032.01.037.027a.04.04 0 0 1-.013.044l-.24.177.09.281a.039.039 0 0 1-.014.045.038.038 0 0 1-.047-.002l-.24-.172-.24.172a.039.039 0 0 1-.046 0 .038.038 0 0 1-.015-.043l.09-.281-.24-.177a.04.04 0 0 1-.013-.044.039.039 0 0 1 .037-.027h.295l.095-.282c0-.013.007-.025.019-.032a.04.04 0 0 1 .037 0zM1.094.97l.095.281h.295a.04.04 0 0 1 .037.028.041.041 0 0 1-.013.044l-.24.176.09.282a.04.04 0 0 1-.014.045.038.038 0 0 1-.047-.002l-.24-.172-.24.172a.039.039 0 0 1-.046 0 .04.04 0 0 1-.016-.043l.099-.28-.24-.177C.6 1.313.595 1.295.6 1.28a.039.039 0 0 1 .037-.027h.296L1.029.97c.005-.04.053-.04.065-.001zm2.268 0 .095.281h.295a.04.04 0 0 1 .037.028.041.041 0 0 1-.013.044l-.24.176.09.282a.04.04 0 0 1-.014.045.038.038 0 0 1-.047-.002l-.24-.172-.24.172a.039.039 0 0 1-.046 0 .04.04 0 0 1-.016-.043l.099-.28-.24-.177a.038.038 0 0 1-.013-.044.039.039 0 0 1 .037-.027h.296L3.297.97c0-.04.053-.04.065-.001zm2.268 0 .096.281h.295c.017 0 .031.012.037.028a.041.041 0 0 1-.013.044l-.24.176.09.282a.04.04 0 0 1-.014.045c-.015.01-.034.01-.047-.002l-.24-.172-.24.172a.039.039 0 0 1-.046 0 .04.04 0 0 1-.016-.043l.09-.282-.24-.176a.039.039 0 0 1-.012-.044.04.04 0 0 1 .036-.028h.304L5.566.97c0-.039.053-.039.064 0zM7.875.937a.037.037 0 0 1 .019.032l.095.281h.295a.04.04 0 0 1 .037.028.041.041 0 0 1-.013.044l-.24.176.09.282a.04.04 0 0 1-.014.045.038.038 0 0 1-.047-.002l-.24-.172-.24.172a.039.039 0 0 1-.046 0 .04.04 0 0 1-.016-.043l.09-.282-.24-.176a.039.039 0 0 1-.012-.044.041.041 0 0 1 .037-.028h.295L7.82.97c0-.013.007-.025.018-.032a.035.035 0 0 1 .037 0zm2.254.006c.016 0 .03.01.033.026l.096.281h.295c.017 0 .031.012.037.028a.041.041 0 0 1-.013.044l-.24.176.09.282a.04.04 0 0 1-.014.045c-.015.01-.034.01-.047-.002l-.24-.172-.24.172a.039.039 0 0 1-.046 0 .04.04 0 0 1-.016-.043l.098-.28-.24-.177a.039.039 0 0 1-.012-.044.038.038 0 0 1 .036-.027h.296l.095-.282a.034.034 0 0 1 .032-.027z" mask="url(#d)"/><rect width="23" height="15" x=".5" y=".5" stroke="#000" stroke-opacity=".04" mask="url(#d)" rx="1"/></g><rect width="23" height="15" x="8.5" y="8.5" stroke="#000" stroke-opacity=".04" rx="2"/></g></svg>