<?xml version="1.0" encoding="UTF-8"?>
<svg xmlns="http://www.w3.org/2000/svg" xmlns:xlink="http://www.w3.org/1999/xlink" width="250" viewBox="0 0 858.7316 108.883889" version="1.1">
<g id="surface1">
<path style=" stroke:none;fill-rule:nonzero;fill:rgb(1.705933%,2.233887%,2.281189%);fill-opacity:1;" d="M 21.652344 62.78125 L 21.652344 83.660156 L 37.894531 83.660156 C 44.082031 84.046875 49.492188 79.792969 49.882813 73.605469 C 49.882813 73.605469 49.882813 73.605469 49.882813 73.222656 C 49.882813 66.648438 44.46875 62.394531 36.347656 62.394531 Z M 21.652344 32.234375 L 21.652344 50.792969 L 36.734375 50.792969 C 42.148438 51.179688 47.175781 47.3125 47.5625 41.898438 C 47.5625 41.515625 47.5625 41.128906 47.5625 41.128906 C 47.5625 36.101563 42.535156 32.234375 35.574219 32.234375 Z M 0 19.859375 L 29.386719 19.859375 C 42.535156 19.859375 47.175781 20.246094 51.039063 21.792969 C 58.386719 25.273438 62.640625 32.234375 62.640625 40.355469 C 62.640625 48.085938 60.320313 51.953125 52.585938 55.820313 C 60.707031 58.527344 66.121094 66.261719 65.347656 74.765625 C 65.347656 87.527344 55.292969 96.035156 40.601563 96.035156 L 0 96.035156 L 0 83.660156 L 5.800781 83.660156 L 5.800781 32.234375 L 0 32.234375 L 0 19.859375 "/>
<path style=" stroke:none;fill-rule:nonzero;fill:rgb(1.705933%,2.233887%,2.281189%);fill-opacity:1;" d="M 114.839844 60.074219 C 114.839844 53.5 109.429688 48.472656 103.242188 48.472656 L 102.855469 48.472656 C 96.28125 48.472656 90.867188 53.5 89.707031 59.6875 Z M 129.535156 77.085938 C 126.828125 89.847656 116.386719 97.582031 102.46875 97.582031 C 86.226563 97.582031 74.242188 84.820313 74.242188 67.035156 C 74.242188 49.246094 86.226563 36.488281 102.46875 36.488281 C 111.359375 36.488281 119.867188 40.738281 124.894531 48.472656 C 128.761719 55.046875 131.082031 62.394531 130.695313 70.128906 L 88.933594 70.128906 C 90.480469 85.207031 100.148438 85.980469 102.855469 85.980469 C 108.269531 86.367188 113.296875 82.5 114.84375 77.472656 L 129.535156 77.085938 "/>
<path style=" stroke:none;fill-rule:nonzero;fill:rgb(1.705933%,2.233887%,2.281189%);fill-opacity:1;" d="M 177.867188 58.140625 L 204.550781 58.140625 L 204.550781 96.035156 L 196.042969 96.035156 L 196.042969 84.046875 C 194.496094 86.753906 192.5625 89.074219 190.242188 91.394531 C 185.214844 95.648438 179.027344 97.96875 172.84375 97.96875 C 155.054688 97.96875 141.136719 80.566406 141.136719 58.140625 C 141.136719 35.714844 155.054688 17.925781 172.457031 17.925781 C 182.121094 17.539063 190.628906 22.953125 195.269531 31.074219 L 195.269531 19.085938 L 203.390625 19.085938 L 203.390625 43.445313 L 194.882813 43.445313 C 194.109375 39.96875 192.5625 36.875 190.628906 34.167969 C 186.761719 29.140625 180.574219 26.046875 174.390625 25.660156 C 165.109375 25.660156 151.1875 33.78125 151.1875 57.367188 C 151.1875 75.929688 161.242188 89.460938 174.390625 89.460938 C 184.828125 89.074219 193.335938 81.339844 195.269531 71.285156 C 195.65625 69.355469 195.65625 67.035156 195.65625 65.101563 L 177.480469 65.101563 L 177.867188 58.140625 "/>
<path style=" stroke:none;fill-rule:nonzero;fill:rgb(1.705933%,2.233887%,2.281189%);fill-opacity:1;" d="M 252.882813 66.261719 L 247.46875 67.035156 C 229.683594 69.355469 223.882813 72.445313 223.882813 79.792969 C 224.269531 86.367188 229.683594 91.007813 235.871094 91.007813 C 244.375 90.621094 251.722656 84.433594 252.882813 75.925781 Z M 269.511719 96.421875 L 252.882813 96.421875 L 252.882813 85.980469 C 249.015625 93.328125 241.28125 97.582031 233.164063 97.582031 C 223.496094 98.355469 214.988281 90.621094 214.214844 80.953125 C 214.214844 80.566406 214.214844 80.179688 214.214844 79.792969 C 214.214844 68.582031 223.882813 63.167969 247.082031 60.847656 L 252.496094 60.460938 L 252.496094 54.660156 C 252.496094 48.085938 247.46875 43.835938 239.351563 43.835938 C 231.230469 43.835938 226.976563 46.539063 225.429688 54.273438 L 216.535156 54.273438 C 217.308594 49.632813 219.628906 45.378906 223.109375 42.285156 C 227.363281 38.808594 233.164063 37.261719 238.574219 37.261719 C 250.5625 37.261719 260.617188 42.675781 260.617188 57.367188 L 260.617188 89.460938 L 268.738281 89.460938 L 269.511719 96.421875 "/>
<path style=" stroke:none;fill-rule:nonzero;fill:rgb(1.705933%,2.233887%,2.281189%);fill-opacity:1;" d="M 293.871094 48.859375 C 296.578125 44.992188 301.605469 36.875 312.429688 36.875 C 320.164063 36.875 324.417969 40.738281 325.964844 48.859375 C 327.511719 46.152344 329.058594 43.835938 331.378906 41.515625 C 334.859375 38.421875 339.109375 36.488281 343.75 36.488281 C 352.644531 36.488281 357.671875 42.285156 357.671875 52.339844 L 357.671875 89.074219 L 365.789063 89.074219 L 365.789063 96.035156 L 349.550781 96.035156 L 349.550781 55.433594 C 349.550781 47.3125 346.84375 43.445313 341.042969 43.445313 C 330.992188 43.445313 325.578125 55.433594 325.578125 59.6875 L 325.578125 89.074219 L 334.085938 89.074219 L 334.085938 96.035156 L 317.070313 96.035156 L 317.070313 54.273438 C 317.070313 46.925781 314.363281 43.835938 308.5625 43.835938 C 299.671875 43.835938 293.097656 55.046875 293.097656 60.460938 L 293.097656 89.460938 L 301.605469 89.460938 L 301.605469 96.421875 L 276.46875 96.421875 L 276.46875 89.460938 L 284.976563 89.460938 L 284.976563 44.605469 L 276.46875 44.605469 L 276.46875 37.648438 L 293.484375 37.648438 L 293.871094 48.859375 "/>
<path style=" stroke:none;fill-rule:nonzero;fill:rgb(1.705933%,2.233887%,2.281189%);fill-opacity:1;" d="M 390.925781 71.675781 C 390.925781 81.339844 398.273438 89.074219 407.550781 89.847656 C 417.605469 89.847656 423.792969 80.953125 423.792969 66.648438 C 423.792969 52.339844 417.21875 43.835938 407.550781 43.835938 C 399.046875 43.835938 390.539063 53.113281 390.539063 61.621094 Z M 374.683594 16.378906 L 390.925781 16.378906 L 390.925781 50.019531 C 393.246094 45.765625 399.816406 37.261719 409.871094 37.261719 C 423.019531 37.261719 433.070313 50.792969 433.070313 67.808594 C 433.070313 83.660156 422.246094 97.195313 409.871094 97.195313 C 399.433594 97.195313 394.40625 90.234375 390.925781 85.59375 L 390.925781 96.421875 L 374.296875 96.421875 L 374.296875 89.460938 L 382.417969 89.460938 L 382.417969 23.339844 L 374.683594 23.339844 L 374.683594 16.378906 "/>
<path style=" stroke:none;fill-rule:nonzero;fill:rgb(1.705933%,2.233887%,2.281189%);fill-opacity:1;" d="M 438.03125 16.378906 L 454.660156 16.378906 L 454.660156 89.460938 L 462.394531 89.460938 L 462.394531 96.421875 L 437.644531 96.421875 L 437.644531 89.460938 L 446.152344 89.460938 L 446.152344 22.953125 L 438.03125 22.953125 L 438.03125 16.378906 "/>
<path style=" stroke:none;fill-rule:nonzero;fill:rgb(1.705933%,2.233887%,2.281189%);fill-opacity:1;" d="M 510.726563 62.394531 C 510.726563 56.980469 508.792969 51.953125 504.925781 47.699219 C 502.222656 45.378906 498.738281 43.835938 495.261719 44.21875 C 487.914063 44.605469 481.726563 49.632813 479.792969 56.59375 C 479.40625 58.527344 478.632813 60.460938 478.632813 62.394531 Z M 519.234375 80.179688 C 518.460938 83.660156 516.914063 86.367188 514.59375 89.074219 C 509.953125 94.488281 503.382813 97.582031 496.035156 97.582031 C 480.179688 97.582031 468.96875 85.207031 468.96875 67.421875 C 468.96875 50.40625 480.179688 37.261719 494.488281 37.261719 C 508.792969 37.261719 520.394531 48.472656 520.394531 68.96875 L 478.246094 68.96875 C 479.019531 77.472656 480.953125 82.5 484.820313 86.367188 C 487.914063 89.074219 491.78125 90.621094 495.648438 90.621094 C 502.222656 90.621094 506.472656 87.527344 509.566406 80.566406 L 519.234375 80.179688 "/>
<path style=" stroke:none;fill-rule:nonzero;fill:rgb(1.705933%,2.233887%,2.281189%);fill-opacity:1;" d="M 565.246094 34.167969 L 555.195313 68.195313 L 575.300781 68.195313 Z M 555.96875 19.859375 L 574.527344 19.859375 L 595.796875 84.046875 L 601.59375 84.046875 L 601.59375 96.421875 L 584.195313 96.421875 L 579.167969 79.792969 L 552.101563 79.792969 L 547.074219 96.421875 L 529.285156 96.421875 L 529.285156 84.046875 L 535.089844 84.046875 L 555.96875 19.859375 "/>
<path style=" stroke:none;fill-rule:nonzero;fill:rgb(1.705933%,2.233887%,2.281189%);fill-opacity:1;" d="M 600.820313 38.035156 L 624.023438 38.035156 L 624.023438 49.246094 L 618.222656 49.246094 L 626.34375 83.660156 L 636.007813 38.035156 L 651.089844 38.035156 L 660.757813 82.886719 L 668.488281 49.246094 L 662.6875 49.246094 L 662.6875 38.035156 L 685.890625 38.035156 L 685.890625 49.246094 L 680.863281 49.246094 L 668.488281 96.035156 L 653.023438 96.035156 L 643.355469 55.820313 L 634.074219 96.035156 L 618.609375 96.035156 L 605.847656 49.246094 L 600.820313 49.246094 L 600.820313 38.035156 "/>
<path style=" stroke:none;fill-rule:nonzero;fill:rgb(1.705933%,2.233887%,2.281189%);fill-opacity:1;" d="M 726.878906 68.96875 C 713.34375 70.128906 704.449219 71.285156 704.449219 79.40625 C 704.449219 84.046875 708.316406 87.140625 714.117188 87.140625 C 721.078125 87.140625 726.878906 81.726563 727.261719 74.765625 L 727.261719 68.96875 Z M 740.796875 85.207031 L 745.824219 85.207031 L 745.824219 96.421875 L 727.648438 96.421875 L 727.648438 89.460938 C 723.394531 94.875 716.824219 97.582031 709.863281 97.582031 C 698.261719 97.582031 689.367188 89.847656 689.367188 79.40625 C 689.367188 62.394531 708.703125 60.460938 727.261719 58.914063 C 727.261719 50.019531 724.171875 47.3125 716.824219 47.3125 C 709.476563 47.3125 706.769531 50.792969 706.382813 56.207031 L 706.382813 56.59375 L 692.464844 56.207031 C 693.234375 44.605469 702.515625 37.261719 716.4375 37.261719 C 732.675781 37.261719 741.183594 44.605469 741.183594 57.753906 L 740.796875 85.207031 "/>
<path style=" stroke:none;fill-rule:nonzero;fill:rgb(1.705933%,2.233887%,2.281189%);fill-opacity:1;" d="M 773.238281 47.3125 C 777.105469 39.96875 781.359375 36.875 787.933594 36.875 C 790.253906 36.875 792.1875 37.261719 794.507813 37.648438 L 794.507813 51.179688 C 792.1875 50.792969 789.867188 50.40625 787.546875 50.40625 C 780.199219 50.019531 774.011719 55.433594 773.628906 62.394531 L 773.628906 84.820313 L 780.585938 84.820313 L 780.585938 96.035156 L 753.519531 96.035156 L 753.519531 84.820313 L 759.320313 84.820313 L 759.320313 49.246094 L 753.519531 49.246094 L 753.519531 38.035156 L 773.238281 38.035156 L 773.238281 47.3125 "/>
<path style=" stroke:none;fill-rule:nonzero;fill:rgb(1.705933%,2.233887%,2.281189%);fill-opacity:1;" d="M 837.8125 60.074219 C 837.8125 53.5 832.402344 48.472656 826.214844 48.472656 L 825.828125 48.472656 C 819.253906 48.472656 813.839844 53.5 812.679688 59.6875 Z M 852.894531 77.085938 C 850.1875 89.847656 839.746094 97.582031 825.828125 97.582031 C 809.585938 97.582031 797.601563 84.820313 797.601563 67.035156 C 797.601563 49.246094 809.585938 36.488281 825.828125 36.488281 C 834.722656 36.488281 843.226563 40.738281 848.253906 48.472656 C 852.121094 55.046875 854.441406 62.394531 854.054688 70.128906 L 812.292969 70.128906 C 813.839844 85.207031 823.507813 85.980469 826.214844 85.980469 C 831.628906 86.367188 836.652344 82.5 838.199219 77.472656 L 852.894531 77.085938 "/>
</g>
</svg>
