<svg viewBox="0 0 360 248" xmlns="http://www.w3.org/2000/svg" xmlns:xlink="http://www.w3.org/1999/xlink"><defs><linearGradient x1="0%" y1="73.542%" x2="100%" y2="26.458%" id="b"><stop stop-color="#FF6444" offset="0%"/><stop stop-color="#FF444F" offset="100%"/></linearGradient><path id="a" d="M360 63.013v184.013H0V0z"/></defs><g fill="none" fill-rule="evenodd"><mask id="c" fill="#fff"><use xlink:href="#a"/></mask><use fill="url(#b)" xlink:href="#a"/><g opacity=".2" mask="url(#c)" fill="#FFF" fill-rule="nonzero"><path d="M247.678-439.772l-.136.068-47.464 94.561-94.862 47.213-.136.068L57.616-203.3l-94.794 47.213-.135.068-47.465 94.562-94.793 47.213-.136.067-47.465 94.562-94.793 47.213-.136.068-47.464 94.562-43.12 21.472v.949l43.595-21.744.136-.068 47.464-94.561 94.794-47.281.135-.068 47.397-94.63 94.794-47.213.135-.067 47.465-94.562 94.793-47.213.136-.068 47.533-94.426 94.793-47.213.136-.068 47.464-94.562 94.862-47.213.135-.068 21.865-43.623h-.95l-21.526 43.014zM-358.38 92.865l94.871-47.193.136-.068 47.47-94.59 94.805-47.195.135-.068 47.47-94.59 94.805-47.194.135-.068 47.47-94.59 94.805-47.195.135-.067 47.47-94.591 94.805-47.194.135-.068 4.075-8.193h-.883v.068l-3.735 7.516-94.804 47.194-.136.067-47.47 94.591-94.872 47.194-.136.068-47.47 94.59-94.872 47.195-.136.067-47.538 94.523-94.804 47.262-.136.068-47.47 94.59-94.804 47.194-.136.068-47.47 94.59-7.47 3.725v.948l8.15-4.063zM22.037-380.043l-.136.068-47.522 94.565-94.908 47.215-.136.068-47.522 94.566-94.907 47.215-.136.067-47.522 94.566-94.976 47.147-.136.068-7.478 14.97v1.83l8.158-16.19 94.908-47.215.136-.068 47.522-94.566 94.907-47.215.136-.067 47.522-94.566 94.908-47.215.136-.068 47.522-94.565 94.907-47.148.136-.067 47.522-94.566 16.317-8.129h-1.904l-14.889 7.452-.136.067-47.521 94.566z"/><path d="M-2.36-403.76l-.136.067-47.445 94.509-94.82 47.119-.136.067-47.445 94.509-94.753 47.186-.136.068-47.444 94.44-78.667 39.266v.948l79.142-39.4.136-.069 47.444-94.508 94.753-47.254.136-.068 47.445-94.508 94.753-47.187.135-.068 47.513-94.508 94.753-47.186.136-.068 39.707-78.938h-1.019l-39.3 78.396zM176.26-510.701l-47.45 94.591-94.763 47.262-.136.067-47.45 94.524-94.83 47.194-.136.068-47.45 94.523-94.763 47.194-.136.068-47.517 94.523-94.831 47.262-.136.068-19.346 38.595v1.828l20.025-39.882 94.831-47.194.136-.067 47.45-94.592 94.83-47.194.136-.067 47.45-94.524 94.83-47.194.137-.067 47.381-94.456 94.831-47.194.136-.068 47.45-94.523L216.92-530h-1.9l-38.625 19.23z"/><path d="M10.008-392.628l-.136.068-47.403 94.493-94.807 47.212-.136.068-47.404 94.493-94.67 47.145-.136.068-47.472 94.493-90.528 45.113v.948l91.071-45.316.136-.068 47.472-94.493 94.807-47.212.135-.068 47.472-94.493 94.807-47.145.135-.068 47.472-94.493 94.807-47.213.136-.067L151.132-530h-1.02l-45.297 90.158zM187.207-498.637l-47.537 94.56-94.802 47.28-.136.068-47.47 94.56-94.937 47.28-.136.068-47.47 94.628-94.87 47.28-.135.068-47.537 94.628-94.803 47.212-.135.068-31.239 62.25v1.829l31.918-63.537 94.87-47.145.136-.068 47.537-94.627 94.87-47.28.136-.068 47.469-94.628 94.87-47.28.136-.068 47.469-94.628 94.87-47.28.136-.068 47.537-94.627L251.79-530h-2.037v.136l-62.41 31.159zM235.558-451.006l-47.49 94.45-94.913 47.26h-.136l-47.49 94.518-94.914 47.191-.136.068-47.49 94.45-94.913 47.192-.136.067-47.49 94.519-94.913 47.191-.136.068-47.49 94.45-31.253 15.573v.948l31.796-15.776.136-.067 47.49-94.451 94.913-47.124.136-.067 47.49-94.451 94.846-47.327.135-.068 47.49-94.45 94.914-47.192.136-.067 47.558-94.519 94.913-47.19.136-.069 47.49-94.45 94.913-47.192.136-.067 15.898-31.755h-.951l-15.626 31.145-94.913 47.124z"/><path d="M199.125-487.053l-47.524 94.562-94.844 47.214-.135.068-47.524 94.562-94.844 47.145-.136.068-47.524 94.562-94.844 47.214-.136.067-47.523 94.563-94.844 47.145-.136.068L-414 166.077v1.829l43.79-87.111 94.844-47.214.136-.068 47.523-94.562 94.844-47.213.136-.068 47.524-94.562 94.912-47.146.136-.067 47.523-94.563 94.776-47.145.136-.068 47.456-94.562L287.316-530h-1.901L199.26-487.12z"/><path d="M223.136-462.809l-47.413 94.555-94.826 47.176-.136.068-47.481 94.487-94.827 47.176-.136.068-47.48 94.487-94.827 47.176-.136.068-47.481 94.487-94.759 47.176-.136.068-47.48 94.487-19.36 9.611v.948l19.903-9.882.135-.068 47.482-94.487 94.826-47.176.136-.068 47.481-94.555 94.826-47.176.136-.067 47.414-94.488 94.826-47.176.136-.067 47.481-94.42 94.759-47.176.135-.068 47.482-94.487 94.826-47.176.136-.068 9.985-19.967h-.95l-9.646 19.29-94.895 47.176zM-357.054 234.718l47.411-94.573 94.755-47.219.135-.068 47.48-94.573 94.89-47.287.136-.068 47.479-94.573 94.823-47.22.135-.067 47.412-94.505 94.822-47.22.136-.067 47.48-94.574 94.754-47.219.135-.067L382.711-530h-.951l-27.442 54.807-94.822 47.219-.136.068-47.48 94.573-94.754 47.219-.136.068-47.479 94.573-94.822 47.22-.136.067-47.411 94.506-94.823 47.219-.136.067-47.479 94.574-94.822 47.219-.136.068-47.48 94.573-54.95 27.37v.948l55.494-27.573zM211.408 234.544l47.337-94.431 94.607-47.182.136-.068 31.196-62.12v-1.894l-31.807 63.473-94.606 47.182-.136.068-47.337 94.431-63.614 31.635h1.9l62.189-31.026zM385.342 202.305v-.947l-43.285 21.578-.136.067-21.71 43.291h.95l21.37-42.682zM384.684 166.227v-.945l-66.97 33.407-.135.068-33.553 66.881h.947l33.282-66.274zM385.342 218.412l-31.49 15.764-.134.067-15.744 31.395h.942l15.475-30.858 30.951-15.429zM366.285 245.811l-9.89 20.483h.93l9.558-19.862L386 236.5v-1.034l-19.582 10.276z"/><path d="M386 149.176v-.948l-79.25 39.265-.136.068-39.693 78.733h.948l39.355-78.056zM224.057 247.071l47.539-94.423 94.873-47.178.136-.068L386 66.888v-1.963l-20.005 39.868-94.874 47.178-.135.068-47.539 94.423-40.079 19.832h1.9l38.654-19.223z"/><path d="M378.357 116.547l.136-.067L386 101.577V99.69l-8.116 16.251-94.62 47.135-.135.067-47.344 94.405-16.232 8.091h1.893l14.812-7.417.136-.067 47.343-94.472zM318.38-84.43L270.904 9.896 176.088 56.99l-.136.067-47.476 94.392-94.817 47.095-.135.067-33.708 67.027h.95l33.436-66.418 94.817-47.095.135-.068 47.476-94.392 94.885-47.094.135-.068 47.477-94.392L386-117.132v-.946l-67.484 33.581zM247.347-154.894l-.136.068-47.486 94.534L104.89-13.06l-.135.067-47.486 94.534-94.836 47.233-.136.068-47.486 94.534-87.363 43.573h1.903l86.072-42.896.136-.067 47.485-94.534 94.768-47.165.136-.068 47.486-94.534 94.836-47.233.136-.068 47.485-94.533 94.836-47.233.136-.068L386-287.31v-1.965l-43.817 87.215zM294.514-390.841l-.136.068-47.407 94.511-94.883 47.189-.136.067-47.543 94.444-94.882 47.189-.136.067-47.475 94.512-94.882 47.188-.136.068-47.475 94.512-94.883 47.188-.136.068-45.64 90.72h.95l45.37-90.11 94.882-47.19.136-.067 47.543-94.512 94.882-47.188.136-.068 47.543-94.511 94.882-47.189.136-.067 47.543-94.512 94.883-47.12.136-.068 47.543-94.512L386-435.254v-.947zM199.761 223.3l47.482-94.657 94.829-47.26.135-.068 43.135-85.922V-6.57l-43.814 87.276-94.828 47.26-.136.068-47.482 94.656-87.424 43.604h1.902l86.065-42.927z"/><path d="M294.727 175.822l-45.57 90.472h.952l45.297-89.862L386 131.467v-.95l-91.138 45.237zM330.324-72.704l-47.336 94.557-94.67 47.21-.136.068-47.403 94.557L46.11 210.9l-.136.068-27.736 55.327h.95l27.465-54.718 94.67-47.211.136-.068 47.403-94.49 94.67-47.21.135-.068 47.403-94.557L386-99.42v-.947l-55.54 27.596zM330.276 210.804l-27.829 55.49h.95l27.557-54.88L386 183.938v-.947l-55.589 27.745zM-346.34 247.646l47.48-94.626 94.822-47.21.136-.069 47.479-94.625 94.89-47.211.136-.068 47.48-94.626 94.822-47.21.136-.069 47.547-94.625 94.822-47.211.136-.068 47.48-94.626 94.822-47.21.136-.069 19.358-38.608v-1.965l-20.038 39.964-94.822 47.211-.136.068-47.48 94.625-94.822 47.211-.135.068-47.48 94.626-94.89 47.21-.136.069-47.479 94.625-94.822 47.28h-.204l-47.48 94.625-94.89 47.279-.136.067-47.479 94.626-39.94 19.846h1.903l38.649-19.236z"/><path d="M342.16-60.233l-47.438 94.307-94.875 47.12-.136.068-47.506 94.375-94.875 47.12-.135.068-21.853 43.47h.95l21.581-42.862 94.875-47.12.136-.067L200.39 81.87l94.875-47.12.135-.067 47.506-94.308L386-81.055v-.947L342.295-60.3zM-120.955 187.813l47.48-94.598L21.282 45.95l.135-.068 47.48-94.597 94.689-47.13.136-.068 47.412-94.597 94.756-47.265.136-.068 47.412-94.598 31.246-15.574v-.948l-31.721 15.845-.136.068-47.412 94.597-94.757 47.265-.135.068-47.48 94.598-94.757 47.265-.136.068-47.48 94.597-94.756 47.265-.136.068-47.48 94.598-94.689 47.13-.135.067-15.895 31.758h.95l15.624-31.149 94.756-47.265z"/><path d="M-132.887 176.768l.136-.067 47.476-94.587L9.541 34.89l.136-.068 47.476-94.586 94.884-47.293.136-.067 47.544-94.586 94.884-47.226.136-.067 47.476-94.586 43.13-21.479v-.948l-43.81 21.681-.135.068-47.408 94.586-94.884 47.225-.136.068-47.408 94.654L56.678-60.51l-.136.068L9.066 34.144l-94.884 47.225-.136.068-47.408 94.654-94.816 47.225-.136.068-21.87 43.566h.95l21.531-42.956z"/><path d="M-144.48 164.942l.137-.067 47.54-94.693L-1.86 22.903l.136-.067 47.472-94.76 94.944-47.28.136-.067 47.54-94.693 94.944-47.278.136-.068 47.54-94.693L386-383.435v-.948l-55.69 27.77-.136.069-47.404 94.692-94.944 47.279-.136.067-47.54 94.625-94.944 47.279-.136.068-47.54 94.692-94.944 47.279-.136.068-47.54 94.692-94.945 47.279-.135.068-27.777 55.406h.95l27.574-54.797zM-97.195 212.205l47.54-94.584 94.878-47.293.136-.067L92.83-24.391l94.878-47.225.136-.068 47.472-94.584 94.878-47.224.136-.068 47.473-94.652 7.538-3.727v-.948l-8.014 3.93-.136.067-47.54 94.584-94.81 47.293-.136.067-47.472 94.585L92.288-25.07l-.136.068L44.68 69.65l-94.878 47.224-.136.068-47.472 94.585-94.878 47.292-.136.068-4.075 8.062h.951l3.735-7.453 94.878-47.224z"/><path d="M-108.995 200.355l47.497-94.71L33.36 58.29l.136-.067 47.497-94.71 94.859-47.288.136-.067 47.497-94.71 94.858-47.287.136-.068 47.497-94.71 19.366-9.688v-.948l-19.841 9.958-.136.068-47.497 94.71-94.859 47.355-.136.068-47.497 94.642-94.858 47.287-.136.068-47.497 94.71-94.927 47.287-.136.068-47.497 94.71-94.858 47.287-.136.068-9.989 19.917h.951l9.717-19.24 94.859-47.287zM-191.501 117.138l.136-.068 47.496-94.517 94.79-47.192.136-.067 47.496-94.518 94.857-47.191.136-.068L141.111-261l94.789-47.26.136-.067 47.496-94.517 94.858-47.192.136-.067L386-465.066v-1.964l-8.222 16.25-94.79 47.19-.135.068-47.497 94.518-94.857 47.191-.136.068-47.496 94.518-94.79 47.258-.135.068-47.497 94.518-94.857 47.259-.136.067-47.497 94.518-94.857 47.191-.136.068-47.496 94.517-16.308 8.057h1.902l14.881-7.312.136-.068 47.497-94.517zM-156.384 153.026l.136-.068 47.504-94.677 94.939-47.237.136-.068L33.902-83.7l94.94-47.305.136-.068 47.503-94.677 94.94-47.305.135-.067 47.504-94.678L386-401.144v-.95l-67.484 33.683-.136.068-47.435 94.677-94.94 47.305-.135.068-47.504 94.61-94.94 47.304-.135.068-47.504 94.677-94.94 47.237-.135.068-47.572 94.745-94.939 47.237-.136.068-33.776 67.23h.952l33.436-66.62z"/><path d="M-167.105 140.807l.136-.068 47.438-94.487L-24.723-.857l.136-.067L22.85-95.412l94.74-47.176.136-.068 47.302-94.623 94.74-47.176.137-.068 47.438-94.487L386-418.2v-.947l-79.267 39.46-.136.068-47.438 94.487-94.605 47.176-.135.068L116.98-143.4 22.24-96.224l-.136.067-47.438 94.488-94.808 47.176-.136.068-47.438 94.488-94.74 47.176-.136.067-39.566 78.988h.95l39.362-78.31zM164.243 187.225l47.64-94.514 95.078-47.224.136-.068 47.573-94.515L386-64.656v-.948l-31.874 15.9-.136.067-47.572 94.515-95.078 47.224-.136.067-47.572 94.515-95.078 47.156-.136.068-15.97 31.73h.95l15.632-31.121 95.077-47.224z"/><path d="M188.343 211.56l47.581-94.565 94.892-47.215.136-.068 47.514-94.566L386-28.579v-.949l-8.01 3.997-.135.068-47.514 94.565-94.892 47.215-.136.068L187.8 210.95l-94.96 47.215-.136.068-4.072 8.061h.95l3.733-7.451 94.892-47.215z"/><path d="M176.569 199.232l47.552-94.364 94.9-47.114.135-.068 47.484-94.364L386-46.29v-.948l-19.972 9.816-.136.067L318.41 57.01l-94.9 47.114-.136.068-47.483 94.432-94.9 47.114-.136.067-9.986 19.834h.951l9.715-19.224 94.9-47.115zM-73.217 235.157l47.552-94.562 94.968-47.248.136-.068 47.552-94.562 94.968-47.18.136-.067 47.484-94.563 94.969-47.247.136-.068L386-252.615v-1.895l-31.996 63.56-94.9 47.248-.136.068-47.552 94.494-94.968 47.248-.136.067L68.76 92.738l-94.9 47.247-.136.068-47.553 94.563-63.855 31.678h1.902l62.429-31.07zM115.906 140.8l.136-.067 47.456-94.544L258.34-1.083l.136-.068 47.455-94.544 78.753-39.145v-.948l-79.296 39.552-.135.067-47.456 94.544-94.843 47.137-.067.067-47.524 94.476-94.775 47.205-.135.067-39.716 78.967h.95l39.377-78.357z"/><path d="M104.677 128.697l.136-.068 47.559-94.645 94.778-47.288.136-.068 47.49-94.645 90.566-45.188v-.949l-91.177 45.392-.136.068-47.423 94.645-94.845 47.288-.136.068-47.491 94.645L9.288 175.24l-.136.068-45.52 90.986h.95l45.25-90.309z"/><path d="M-60.824 247.646l47.534-94.557 94.866-47.211.135-.068 47.467-94.557 94.865-47.21.136-.069 47.467-94.557 94.865-47.21.136-.068L386-216.47v-1.964l-19.964 39.895-94.866 47.211-.136.068-47.466 94.557-94.865 47.21-.136.069L81.1 105.2l-94.933 47.21-.136.068-47.466 94.557-40.065 19.914h1.901l38.64-19.236z"/><path d="M91.999 117.074l.136-.068 47.5-94.6 94.867-47.233.136-.068 47.501-94.601 94.934-47.233.136-.068 7.475-14.976v-1.897l-8.087 16.264-94.866 47.232-.136.068-47.5 94.601-94.867 47.233-.136.068-47.5 94.6-94.935 47.233-.136.068-47.501 94.533-16.31 8.064h1.903l14.883-7.318.136-.068 47.5-94.601z"/></g></g></svg>