<svg xmlns="http://www.w3.org/2000/svg" width="690" height="630"><g fill="none" fill-rule="evenodd"><path fill="#85ACB0" stroke="#FFF" d="M305.352 319.237c.821 2.194 1.644 9.879-.269 12.906-1.905 3.016-1.085 3.843.822 4.934 1.911 1.103 2.729 3.848 2.729 6.043 0 2.195 1.364 1.93 1.638 6.595.269 4.663 1.366 7.955 3.003 9.88 1.28 1.505 1.044 3.813.371 5.549 2.29 1.7 4.86 3.343 7.114 4.152 5.69 2.05 7.728 3.68 8.122 5.726.417 2.047 5.292 5.733 6.513 2.866 1.216-2.854 4.464-1.223 6.907-1.223 2.444 0 2.848 2.86 3.242 4.493.412 1.636 6.098.827 8.141 2.044 2.027 1.23 2.837 5.728 5.685 7.364 2.85 1.631 5.275-2.046 7.318-.817 2.028 1.225 7.32 2.448 10.567 1.225 3.243-1.225 5.28 1.223 9.345.822 4.052-.414 9.345 1.217 10.56 2.446.645.644 4.082 1.287 7.209 1.758.811-1.677-.763-6.853-.512-8.127.267-1.369 9.817-9.882 11.456-11.805 1.639-1.918 4.099-1.918 5.459-4.388 1.368-2.477-3.82-10.438-4.912-12.085-1.09-1.643-1.631-8.232-.814-10.983.814-2.746-4.095-4.393-4.095-6.314 0-1.923 4.636-5.221 7.096-6.312 2.455-1.103 1.638-8.794-.548-10.713-2.186-1.923-3.27-5.485-1.912-9.334 1.365-3.838-8.18-6.858-9.55-6.858-.222 0-.36-.247-.451-.575-8.522 1.59-30.341-.694-31.99-1.356-1.079-.435-3.842-1.435-6.216-2.285-1.085 1.815-3.339 3.481-6.732 3.481-5.267 0-5.64-5.307-5.816-7.686-.17-2.379-21.281 2.017-26.925 7.686-5.636 5.674-18.736 3.474-19.09 6.581-.275 2.265-2.238 3.436-3.516 2.803-.092.552-.108 1.07.05 1.507M368.995 442s3.298 1.228 5.35 1.63c.487.107 1.8.319 3.508.573-.17.184-.303.368-.343.558-.276 1.38 4.427 4.967 4.427 7.17 0 2.214 1.099 4.414 4.148 4.414 3.044 0-.278 7.168 1.653 7.72 1.947.55 13.83 1.373 13.83 4.136 0 2.751 2.215 4.955-.274 6.615-2.486 1.662-2.772 6.057 0 8.548 2.76 2.48 6.359 7.994 3.87 7.994-2.48 0-4.425 3.305-4.147 4.96.156.93-.115 2.445-.242 3.765-.227.033-.456.066-.687.101.376.348 1.893.476 1.912.816l.216.449c.036.368.607 1.379.784 1.551.845.824 6.23 5.642 6.507 7.291.252 1.453 2.665 2.208 2.483 3.481-.024.186-.088.37-.234.566-1.12 1.649-10.105 6.146-11.79 5.32-1.677-.823-2.522 2.76-5.888 3.58a10.85 10.85 0 01-1.267.23l-.393.037c-.34.022-.667.046-1.004.063l-.304.006c-1.504.046-2.965-.018-4.056.074l-.108.012a5.076 5.076 0 00-.703.098l-.106.034c-.198.058-.365.121-.482.208-3.81-2.809-6.473-4.826-7.32-7.714-.85-2.94.03-8.693 1.373-12.89l-.105.34c-1.82-1.204-9.38-6.121-11.72-6.31l-.132-.006-.381.11-.196-.24c-1.876 2.31-3.677 5.384-4.117 7.71-.24-.115-.453-.219-.707-.347-2.183-1.067-5.822-3.343-9.038-5.679l-.005.026a186.85 186.85 0 00-.4-.323c-.309-.226-.61-.452-.907-.677l.01-.038c-1.716-1.358-3.428-2.64-5.056-3.67-3.828-5.634-10.245-9.817-10.056-11.354.276-2.19-10.107-8.226-10.107-12.335 0-4.107-5.188-5.761-5.734-8.497-.55-2.748 3.008-5.202 5.465-3.289 2.455 1.918 5.188-2.745 7.92-1.648 2.732 1.1 19.113 1.912 19.113 1.912s4.475 1.272 10.074 4.934c-.116-.626-.253-1.144-.414-1.518-1.481-3.466 0-7.411-3.964-8.893-2.041-.76-2.892-4.28-3.251-7.52 5.323-1.616 12.995-4.084 12.995-4.084zm11.98 61.789l-.037.008-.5.108.016.01.52-.126z"/><path fill="#85ACB0" stroke="#FFF" d="M336.25 484.63c.275-2.192-10.082-8.237-10.082-12.35 0-4.114-5.175-5.77-5.72-8.51-.548-2.751 3-5.208 5.452-3.292 2.448 1.92 5.175-2.749 7.9-1.65 2.725 1.101 19.064 1.914 19.064 1.914s5.055 1.442 11.136 5.676c-.132-1.142-.32-2.094-.572-2.665-1.467-3.467 0-7.413-3.924-8.895-2.02-.761-2.86-4.28-3.217-7.522-1.848.565-3.41 1.032-4.264 1.25-3.258.82-10.186.406-12.636-2.878-1.82-2.445-7.483-6.034-10.259-7.708-1.14 1.004-5.485 4.754-7.38 4.98-2.192.283-.818 6.075-3.012 6.075-2.186 0-3.83 3.853-4.379 5.514-.544 1.65-5.463-1.108-7.661-.283-1.563.601-6.176 1.323-8.696 1.691.385 2.514.234 5.296 2.227 5.296 3.287 0 9.31-.357 9.487 4.049.17 4.408 8.025 14.156 10.935 17.468 2.92 3.312 9.492 2.574 9.853 5.331.372 2.758 5.112 5.33 10.59 5.7 1.484.097 3.271.962 5.188 2.179-3.818-5.642-10.22-9.83-10.03-11.37m40.237 51.594c2.686-.546 1.073-2.775 2.955-4.725 1.879-1.944 4.025-5.838 4.3-7.23.028-.152.129-.256.258-.348-3.647-2.836-6.197-4.873-7.007-7.79-.815-2.968.028-8.777 1.314-13.014-2.084-1.537-8.485-6.117-10.496-6.117-1.99 0-5.053 4.58-5.811 8.981 4.697 2.595 6.546 4.446 3.292 7.811-3.394 3.527-4.114 15.396-.359 18.546 3.58 3.002 4.609 8.963 8.07 10.662.977-2.992 1.713-6.39 3.484-6.776M325.576 401.65c-3.303-3.65-11.558-3.65-11.558-3.65s-.83 3.65-2.07 5.669c-1.04 1.694-7.041 1.671-10.885.654-1.093 1.398-6.089 2.49-6.778 4.513-.835 2.452-6.933 1.092-4.99 7.608 1.939 6.525-3.048 4.353-4.99 3.534-1.945-.811-10.543.275-12.759 2.446-2.223 2.176-5.274 1.624-7.218.545-1.939-1.08-5.816-1.63-7.481 1.08-1.666 2.722-4.715-2.16-7.219-1.897-2.489.272-1.384 5.433-1.384 6.526 0 1.078 3.888 4.342 6.378 3.262 2.498-1.09 5.551.266 7.767 1.625 2.22 1.365 6.38-1.085 7.765-2.444 1.392-1.365 9.155-1.365 9.984-1.365.837 0 1.108 4.356 2.502 5.174 1.38.813 6.655 1.358 11.373 1.627 4.71.272 11.643 2.443 13.865 2.443 2.217 0 5.82-3.809 10.805-3.809 4.995 0 7.768-2.985 8.603-2.711l.05.039c.358-1.511.937-2.734 2.024-2.888 2.023-.273.572-3.682 2.023-5.382 1.452-1.695-1.16-5.1 1.452-4.822 2.598.29 5.489.574 5.489-3.11 0-1.245.684-2.34 1.676-3.256-2.861-3.928-4.915-10.206-4.915-10.206s-6.197 2.434-9.509-1.205"/><path fill="#85ACB0" stroke="#FFF" d="M405.79 411.452c-.949-.317-1.99-.987-2.905-1.81-3.453-.788-6.786-1.823-7.804-2.857-2.044-2.093-10.231-3.35-11.468-3.768-1.221-.429-9.014 7.53-11.476 7.53-2.457 0-13.11 1.257-13.11 4.18 0 2.932-13.097 3.362-16.792 0-.58-.53-1.138-1.236-1.674-2-.984.948-1.662 2.08-1.662 3.368 0 3.81-2.867 3.516-5.444 3.216-2.59-.289 0 3.233-1.44 4.985-1.44 1.758 0 5.283-2.007 5.566-1.078.16-1.652 1.423-2.008 2.985.86.424 2.973 4.74 2.973 4.74s-.109.105-.281.257c2.79 1.705 8.482 5.362 10.312 7.854 2.462 3.346 9.426 3.768 12.7 2.933 3.281-.83 17.213-5.437 17.213-5.437s3.28 1.252 5.323 1.662c.484.108 1.79.325 3.489.583 1-1.058 4.08-1.962 7.364-5.327 3.851-3.93 9.628-17.984 11.274-19.103 1.652-1.129 6.06-3.655 8.258-5.336 2.192-1.693 1.652-3.375-.835-4.22m-51.973-28.747c-2.099-1.193-7.943-.4-8.366-2.004-.405-1.6-.82-4.405-3.332-4.405-2.51 0-5.849-1.6-7.098 1.2-1.255 2.81-6.266-.804-6.695-2.811-.404-2.005-2.498-3.605-8.347-5.615-2.317-.793-4.957-2.404-7.31-4.071a6.452 6.452 0 01-.67 1.284c-1.12 1.621-5.044-1.342-6.728.275-1.684 1.617-7.291 1.882-10.372 4.58-3.088 2.692-9.539 4.032-13.183 4.843-3.649.81-.557 4.038.838 6.465 1.41 2.41 1.41 8.341 4.213 10.227 2.804 1.882 12.055 7.537 13.177 9.423.194.32.077.626-.157.907 3.887 1.008 9.954 1.03 11.006-.648 1.253-2 2.093-5.616 2.093-5.616s8.347 0 11.687 3.616c3.349 3.605 9.614 1.194 9.614 1.194s.348 1.025.91 2.45c.903-1.982 2.082-3.723 3.514-3.924 3.526-.48 8.542-.964 12.062-5.79 1.825-2.484 4.829-4.46 7.327-5.79-1.689-1.982-2.563-4.848-4.183-5.79"/><path fill="#85ACB0" stroke="#FFF" d="M387.947 391.7c-4.13.402-6.2-2.056-9.494-.826-3.3 1.228-8.675 0-10.736-1.23-2.076-1.234-4.54 2.458-7.435.82-.637-.363-1.171-.882-1.641-1.464-2.47 1.36-5.44 3.385-7.244 5.928-3.479 4.943-8.438 5.438-11.923 5.93-1.416.206-2.582 1.988-3.474 4.018 1.136 2.913 3.217 7.613 5.7 9.805 3.724 3.3 16.923 2.878 16.923 0 0-2.867 10.737-4.101 13.212-4.101 2.482 0 10.335-7.808 11.566-7.388 1.246.41 9.498 1.644 11.557 3.698 1.026 1.014 4.385 2.03 7.865 2.802-1.462-1.28-2.617-2.93-2.617-4.29 0-2.198 4.172-7.989 5.545-9.09.117-.093.175-.253.249-.392-3.177-.473-6.668-1.119-7.324-1.765-1.235-1.234-6.612-2.871-10.729-2.456M39.69 567.26c4.855-.893-1.332-4.926-2.662-6.265-1.326-1.346.442-6.721 3.098-6.721 2.647 0 0-3.131-3.54-6.723-3.534-3.58 0-4.92 3.104-4.92 3.083 0-.89-5.376 2.195-8.511 3.096-3.143-.885-8.952-.885-11.644 0-2.678 4.424-3.579 7.963-7.16 3.532-3.587-3.092-2.24-3.092-4.92 0-2.69-4.43-3.593-7.513-1.345-3.103 2.246-2.214 0-4.865 0-2.656 0-7.518.895-7.518-1.796 0-2.697-2.21-3.13-4.418-.452-.65.797-1.765 1.22-3.268 1.41-.324 3.51-.682 6.786.333 8.442 2.356 3.865-2.912 24.29-7.633 29.81-4.726 5.522-.17 7 4.72 10.863 4.908 3.863 1.641 17.85 1.641 21.16 0 3.313 4.358 2.395 9.444 2.395 3.027 0 6.449-1.362 9.809-1.963-.995-1.535-1.785-3.05-1.785-4.048 0-2.692 0-6.716 4.872-7.612m143.89-208.765c2.295-2.21 6.31-1.108 8.611 1.107 2.296 2.213 5.74 2.76 9.186 6.074a26.348 26.348 0 002.77 2.324c.325-2.334.389-6.98 1.455-9.38 1.122-2.528-1.13-5.792.753-5.792 1.87 0 7.13 0 7.13-3.254s1.506-2.168 2.634-3.985c1.131-1.808-3.38-5.429-4.138-6.519-.74-1.08 3.38-1.443 6.392-5.775 1.084-1.584.634-4.809-.371-8.295-.499 1.283-1.506 2.213-3.202 1.232-2.82-1.63-7.124-.72-12.763.365-5.633 1.084-7.321 6.33-5.267 8.498 2.071 2.181-5.435 3.26-5.996.37-.568-2.907-6.194-.909-5.83 2.89.383 3.798-6.198 5.245-5.818 9.948.382 4.712-6.007 9.05-10.14 11.4-.643.377-1.308.751-1.986 1.125 2.077.92 3.738 1.533 4.527 1.533 3.448 0 9.759-1.647 12.052-3.866"/><path fill="#85ACB0" d="M204.257 380c-2.383 1.435-4.554 4.51-4.223 11.035 2.322-.07 5.595.216 7.966.965-.574-7.104-3.156-9.306-3.82-10.77-.193-.4-.128-.814.077-1.23"/><path fill="#85ACB0" stroke="#FFF" d="M161.607 365.953c.272 1.975 3.313 6.746 4.412 4.784 1.106-1.97 3.87 2.527 6.349 3.932 2.484 1.405 7.45 3.09 7.726 4.78.277 1.68 1.107 5.335 3.592 4.212 2.483-1.128 5.518-5.06 5.518-2.814 0 2.245.828 6.465 3.585 5.902 2.763-.565 3.593 4.778 6.354 4.208.504-.09 1.19-.153 1.99-.177-.34-6.36 1.897-9.357 4.352-10.756.568-1.118 2.225-2.293 2.491-3.668.37-1.869-3.675-5.619-3.315-7.864l.05-.405a26.219 26.219 0 01-2.714-2.406c-3.378-3.431-6.753-3.996-9.003-6.287-2.255-2.293-6.19-3.434-8.44-1.147-2.248 2.297-8.433 4.003-11.811 4.003-.774 0-2.402-.636-4.437-1.587-2.659 1.558-5.488 3.044-8.306 3.621.56.781 1.426.37 1.607 1.67m316.041 91.531c-2.548-.37-5.835-1.482-4.738-2.98.069-.093.218-.28.327-.426-3.413-2.825-4.31-11.969-2.133-14.203 2.778-2.848-4.464-13.676-7.796-17.66-1.565-1.878-4.956-8.108-8.122-14.216-2.892.96-5.452 2.037-5.95 2.89-1.091 1.855-4.744 3.731-6.921 3.731-2.184 0-4.373-1.123-6.196.74-1.824 1.86-4.368 2.608-5.465 1.496-1.091-1.123-4.738-2.236-7.294-2.236-2.537 0-10.55-2.246-12.373-2.246-1.082 0-2.836.153-4.746.422.414.808.092 1.772-1.176 2.75-2.183 1.673-6.562 4.187-8.203 5.31-1.635 1.114-7.372 15.1-11.197 19.012-3.824 3.915-7.379 4.475-7.653 5.867-.274 1.4 4.373 5.038 4.373 7.272 0 2.246 1.085 4.477 4.098 4.477 3.007 0-.275 7.27 1.633 7.831 1.923.557 13.663 1.393 13.663 4.195 0 2.177 1.296 4.007.73 5.516 3.304.562 5.728 5.16 7.02 4.832 1.458-.374 11.294 1.861 13.111 1.49 1.818-.373 10.203 0 13.12.371 2.908.376 6.182-1.118 8.732-3.728 2.555-2.613 11.671-2.983 14.582-2.613 2.903.38 8.738 1.123 9.835 2.995.573.972 4 2.433 7.471 3.626.412-1.847-.12-4.259-.012-6.621.183-3.914 2.367-9.876 6.192-10.25 3.822-.373 6.921-.373 6.378-6.891-.012-.228-.012-.397-.028-.602-1.939-1.697-3.75-3.13-4.345-3.13-1.45 0-5.83 3.135-6.917 2.98"/><path fill="#85ACB0" stroke="#FFF" d="M444.622 477.812c-2.588 2.475-5.913 3.892-8.866 3.536-2.962-.352-11.475-.706-13.32-.352-1.846.352-11.833-1.768-13.314-1.414-1.311.31-3.772-4.049-7.127-4.582-.169.4-.458.777-1.016 1.132-2.494 1.598-2.78 5.826 0 8.222 2.768 2.386 6.38 7.69 3.882 7.69-2.487 0-4.438 3.18-4.16 4.77.278 1.599-.836 5.04 0 5.838.836.793 6.657 6.102 6.93 7.69.25 1.398 2.635 2.124 2.455 3.35 4.659-.333 14.545-.877 16.783.19 2.96 1.419 13.325 2.118 13.325 2.118 2.948 0 5.543-1.06 4.805-2.824-.626-1.493 3.228-2.48 6.008-2.757-.482-1.632-.812-2.974-.093-3.263 1.381-.526 9.437-1.585 12.755 0 1.69.816 7.87.777 9.331-.168-.44-1.486-1.148-3.743-2-3.894-2.043-.35-9.169-8.131-6.588-8.665 2.59-.527 5.92-9.02 9.987-10.252 1.62-.488 2.312-1.42 2.601-2.564-3.523-1.132-7.004-2.517-7.585-3.44-1.114-1.775-7.04-2.48-9.987-2.84-2.955-.35-12.21 0-14.806 2.48zm-32.091-204.823c3.359 0 11.214 1.677 15.693 0 4.474-1.678 4.474 3.368 7.28 2.792 2.796-.556 8.4 3.369 11.765 6.173 1.787 1.488 3.915 2.678 6.273 4.046.535-.914 1.258-1.816 2.41-2.678 2.933-2.195 5.86-1.103 8.423-1.103 2.57 0 2.932-2.925 4.772-4.391 1.03-.827 2.634-1.299 3.853-1.551-.983-2.023-1.035-5.976-2.668-7.61-1.925-1.919-4.674-5.222-3.846-7.144.821-1.924.821-4.671-1.38-6.866-.96-.96-1.697-2.086-2.094-3.161-4.468-.575-10.483-1.218-11.828-.77-2.203.734-10.988-6.23-12.46-7.334-.961-.712-7.481-.339-13.352.208-3.38 3.747-.944 6.5-1.121 12.253-.184 5.861-6.602 4.764-10.073 4.764-3.491 0-9.174-10.444-10.996-12.828-1.84-2.374-7.711 2.937-11.92 5.494-4.214 2.57-2.012 7.511-4.946 9.89-2.926 2.38-4.76 6.414-1.838 11.724.12.219.2.442.316.655 3.663-.288 7.567-.965 9.815-2.563 3.922-2.805 14.571 0 17.922 0"/><path fill="#85ACB0" stroke="#FFF" d="M391.342 293.073c1.394 1.903 5.853 3.524 7.525 2.714 1.667-.81 6.958 1.892 6.958 4.059 0 2.17-1.387 8.673 0 8.673 1.267 0 9.29 2.42 9.837 5.684 3.598.084 7.683.26 9.21.635 2.978.72 4.825-1.082 6.306-2.89 1.49-1.808 6.685-2.528 8.17-2.528 1.493 0 1.493-3.971 1.86-5.785.373-1.796 4.09-5.05 6.317-5.77 2.232-.719 1.852-3.25 4.085-3.25 2.232 0 1.854-2.896 1.486-4.704-.22-1.094.041-2.465.904-3.853-2.39-1.348-4.547-2.522-6.358-3.99-3.41-2.764-9.09-6.634-11.924-6.086-2.844.568-2.844-4.407-7.38-2.753-4.539 1.654-12.5 0-15.904 0-3.397 0-14.19-2.765-18.165 0-2.28 1.576-6.236 2.244-9.949 2.528 2.536 5.042 1.608 10.143-1.242 13.259-2.022 2.22-.845 2.514.636 3.388 3.054-.278 6.509-.85 7.628.669M255.767 431.679c-2.495 1.115-6.39-2.256-6.39-3.37 0-.782-.51-3.577.012-5.321-2.07-1.069-5.028-2.525-7.236-3.188-3.707-1.122-5.554-1.122-8.512.369-1.893.952-7.11.687-10.633.375-.31 1.117-.808 1.867-1.691 1.867-2.502 0-5.836 2.527-6.39 5.34-.553 2.8-6.39 5.043-8.063 10.098-1.663 5.055-.83 7.298 1.673 4.21 2.5-3.089 5.557-1.961 5.557.565 0 2.523 3.335 2.8 2.22 6.176l-.031.2c3.8-.34 9.08-.764 10.686-.764 2.593 0 5.186-8.231 6.293-8.983 1.107-.745 4.083 5.99 7.047 8.62 2.96 2.619 3.335-2.255 3.335-4.499 0-2.248 2.592-2.993 4.442-2.617 1.85.369 5.926 1.12 5.926-1.504 0-2.608 2.23-1.49 3.701-1.49 1.485 0 1.864-2.997 1.864-2.997L262 432.49c-1.973-1.01-4.272-1.692-6.233-.81"/><path fill="#85ACB0" stroke="#FFF" d="M218.82 333.376c-2.91 4.353-6.893 4.717-6.178 5.802.734 1.096 5.093 4.734 4 6.55-1.09 1.826-2.546.735-2.546 4.005s-5.084 3.27-6.89 3.27c-1.82 0 .356 3.28-.728 5.818-1.092 2.543-1.092 7.633-1.456 9.82-.355 2.178 3.633 5.818 3.27 7.632-.36 1.826-3.27 3.274-2.535 4.724.674 1.385 3.297 3.468 3.88 10.19 1.254.364 2.279.838 2.731 1.45 1.64 2.178 4.358 3.81 7.892 3.81 3.542 0 4.903 2.463 6.534 2.184 1.633-.268 5.993 1.101 2.457 4.097-3.541 2.994-4.088 6.544-4.9 10.087-.53 2.299-.501 5.482-1.068 7.456 3.452.303 8.562.56 10.416-.365 2.898-1.448 4.707-1.448 8.339-.359 2.163.645 5.06 2.06 7.088 3.098.223-.73.61-1.29 1.347-1.38 2.457-.264 5.45 4.636 7.084 1.903 1.634-2.72 5.44-2.167 7.341-1.083 1.909 1.083 4.903 1.637 7.085-.547 2.174-2.179 10.612-3.268 12.521-2.455 1.906.823 6.8 3.002 4.897-3.546-1.907-6.54 4.077-5.175 4.896-7.635.814-2.453 7.892-3.536 6.805-5.448-1.089-1.91-10.068-7.64-12.79-9.545-2.72-1.91-2.72-7.92-4.088-10.36-1.354-2.46-4.355-5.729-.814-6.55 3.537-.821 9.798-2.179 12.795-4.906 2.99-2.733 8.432-3.001 10.067-4.639 1.634-1.638 5.444 1.364 6.53-.278 1.094-1.632 1.903-4.908.28-6.812-1.633-1.912-2.727-5.182-2.995-9.814-.274-4.633-1.635-4.369-1.635-6.55 0-2.18-.815-4.907-2.722-6.002-1.902-1.083-2.72-1.904-.82-4.9 1.91-3.007 1.088-10.64.269-12.819-.159-.435-.143-.948-.051-1.496-.49-.228-.878-.706-1.03-1.505-.548-2.91-2.535-3.999-7.257-3.999-4.72 0 2.9-4.73 1.083-7.092-1.804-2.355-6.53 4.359-10.875 2.904-4.363-1.443-9.982 5.1-13.791 8.003-3.815 2.915-9.26-.541-6.355-4.73 2.898-4.175 0-3.815-4.358-2.172-4.357 1.632-9.615-.365-9.074-4.37.138-1.004-.182-1.945-.715-2.83-2.128.296-3.76.364-4.54.103-1.951-.646-6.376-.999-11.204-1.095 1.444 2.116 3.007 4.187 2.124 5.825-1.63 3.097.917 6.007 3.266 10.542 2.36 4.553-5.074 2.003-5.259 4.912-.185 2.91-6.89-.182-9.074-1.276-2.168-1.087-9.434-.362-9.25 1.458.072.726-.042 1.724-.358 2.58.971 3.503 1.406 6.744.358 8.335M496.08 172.935c2.92-6.608 16.024-11.712 18.231-17.621 1.086-2.95 1.453-4.415-3.282-9.92-4.74-5.508-15.305-9.178-15.676-12.11-.373-2.95 8.023-3.308 7.653-6.983-.367-3.674-4.73-3.664-6.567-6.602-1.818-2.938 2.196-4.787 1.83-6.244-.366-1.463-5.832-2.201-6.2-4.045-.365-1.83 3.655-1.462 2.911-3.664-.725-2.2-4.362-6.25-1.812-9.55 2.556-3.302 8.024 0 4.004-7.339-4.004-7.345-10.203-16.524-11.66-18.736-1.465-2.2 1.457-5.875 3.648-7.327 2.19-1.474 7.65-6.982 7.65-9.188 0-2.201-6.924-8.083-8.743-9.177-1.83-1.106-5.833-.732-7.653-4.413-1.835-3.664-3.647-4.764-1.835-6.972 1.835-2.2 1.835-4.401 1.835-6.613 0-2.2 4.006-.368 4.725-3.668.332-1.504 1.384-3.152 2.728-4.524.011-2.505.28-5.201 0-6.912-.588-3.55-10.54-4.724-12.878-8.855-2.352-4.117-8.201-2.36-9.963 0-1.75 2.36-12.296-.585-12.296 2.955 0 3.538-7.606 4.131-7.606 8.256 0 4.13 3.51 11.205-2.347 10.623-5.856-.593-1.76 2.356-5.271 7.074-3.518 4.719-3.518-2.955-7.03-1.774-3.505 1.18-7.605-3.543-9.367-.594-1.756 2.962-7.612.594-13.468-.587-5.863-1.175-8.78-9.425-13.469-10.024-3.11-.386-6.434 2.109-8.172 6.055 4.535 2.956 7.51 7.15 13.44 9.874 6.439 2.95 18.153 6.48 17.58 10.617-.595 4.125-2.355 10.023.573 11.797 2.933 1.765-.573 9.438 2.933 11.211 3.511 1.775 2.345 10.612-.59 10.612-2.916 0 .59 4.718 2.351 6.475.796.818 1.442 3.214 1.733 6.13 3.597.876 6.795 2.707 9.916 4.113 4.925 2.2 4.188 5.68 4.377 9.54.177 3.847.353 6.049-2.184 4.401-2.553-1.646-5.293 0-6.75 5.514-1.465 5.501-8.384 12.115-12.575 12.483-4.199.363-3.826 4.77-7.294 5.685-3.454.916-6.736 2.94-6.553 6.792.176 3.855-5.101 4.223-8.572 4.223-3.46 0-2.727 6.24-5.467 7.888-2.73 1.66-2.19 3.86.365 7.165 2.551 3.308.367 6.246 1.27 8.631.92 2.384 4.93 7.892 2.19 13.946-2.727 6.06-5.645 13.59-3.277 12.858 2.363-.73 7.834 4.96 11.483 4.592 3.643-.38 4.015 5.127 7.47 4.032 3.461-1.093 3.461 3.295 13.491 2.945 10.024-.37 30.247-8.809 38.271-8.809 4.547 0 8.184-.554 11.05-1.266 1.721-2.61 3.809-5.445 5.895-7.548 5.108-5.15 16.042-8.814 18.954-15.422"/><path fill="#85ACB0" stroke="#FFF" d="M245.551 492.007c-1.942-.183-2.47 3.455-7.394 6.567-4.928 3.1.037 17.093 4.924 16.401 5.11-.727 4.404-22.786 2.47-22.968zm-19.198-94.344c-1.645.284-3.017-2.222-6.588-2.222-3.564 0-6.306-1.66-7.958-3.876-1.649-2.229-10.147-2.774-12.895-2.229-2.746.563-3.57-4.713-6.318-4.155-2.742.557-3.565-3.61-3.565-5.827 0-2.218-3.018 1.665-5.487 2.779-2.472 1.108-3.297-2.5-3.572-4.16-.275-1.668-5.212-3.332-7.683-4.72-2.466-1.386-5.213-5.826-6.312-3.881-1.094 1.937-4.118-2.775-4.388-4.724-.18-1.283-1.042-.877-1.598-1.648-.94.197-1.87.313-2.798.266-4.391-.186-8.234 3.331-7.495 10.737.726 7.388-5.314 8.13-12.815 8.681-7.502.557-4.935 6.477-8.045 8.88-3.112 2.414-14.09-1.288-15.558-5.35-1.467-4.07-11.337 0-7.134 4.793 4.214 4.817 4.022 11.473 1.649 13.319-2.378 1.851-7.512-2.954-10.804-.558-3.29 2.41-3.475-2.216-7.49-3.684-4.028-1.492-5.682 1.834-12.078 1.288-6.415-.564-10.07 3.133-7.69 5.913 2.375 2.77-.367 5.357 1.463 7.772 1.834 2.402 10.248 2.025 16.464 5.362 6.228 3.32 7.682.546 10.798 2.96 3.112 2.402 3.847.916 4.026 5.547.188 4.62 3.662 9.054 9.702 10.726 6.036 1.665 1.462 5.734 3.297 9.802 1.82 4.067-2.748 9.982-1.835 14.978.919 4.99-2.928 21.08-5.853 22.558-.188.098-.489.098-.731.144 2.742 1.383 5.627 2.59 7.035 3.53 2.675 1.81 8.451 3.597 12.022 5.85 3.558 2.257 9.794 1.81 9.794-.906 0-2.687 3.557-.881 5.788 1.357 2.225 2.254 10.688 2.706 14.693 3.6 3.376.755 8.306.278 12.713.37a25.866 25.866 0 00-.744-3.209c-2.196-7.218 4.2-11.471 10.234-12.402 6.039-.916 19.216 2.775 22.702 4.992 3.467 2.223 8.23 1.67 14.27-4.805 3.042-3.274 5.542-4.457 7.75-5.101.16-1.451.908-2.932 1.39-4.231.828-2.228-3.019-1.672-5.76-1.951-2.748-.277-4.665-3.052-2.748-6.105 1.924-3.053-1.64-3.332-3.565-6.379-1.923-3.045.823-2.216 2.466-3.045 1.645-.837 3.847-4.167 2.47-4.992-1.371-.835-2.47-2.774-1.371-6.105 1.1-3.338-2.193-3.61-2.193-6.104 0-2.497-3.02-3.611-5.49-.558-2.47 3.051-3.294.835-1.652-4.161 1.653-4.997 7.418-7.213 7.964-9.981.548-2.78 3.841-5.277 6.313-5.277 2.472 0 1.918-5.827 2.748-9.43.817-3.604 1.369-7.215 4.94-10.26 3.565-3.048-.83-4.44-2.478-4.168z"/><path fill="#85ACB0" stroke="#FFF" d="M169.758 499.45c-4.436-.091-9.4.386-12.798-.37-4.033-.896-12.553-1.35-14.793-3.607-2.246-2.243-5.827-4.052-5.827-1.36 0 2.722-6.278 3.169-9.86.908-3.596-2.258-9.41-4.048-12.104-5.863-1.417-.94-4.322-2.15-7.083-3.536-3.738.734-14.474-3.237-21.555-2.365-7.552.925-31.69-1.116-41.084-.367-9.39.733-9.95-3.89-15.105-3.89-5.157 0-2.944 6.286-10.313 6.478-7.37.192-8.096 4.82-2.766 9.09 3.042 2.43 2.676 7.546 2.246 12.245 1.525-.192 2.655-.617 3.314-1.42 2.24-2.696 4.48-2.26 4.48.455 0 2.71 4.932 1.81 7.626 1.81 2.688 0 1.786 2.26 4.934 0 3.126-2.264 7.619-1.355 7.619 1.354 0 2.698 6.717 1.342 3.135 4.954-3.589 3.606-8.075 4.513-8.075 7.21 0 2.71 4.037 8.56.897 11.725-3.129 3.157.901 8.57-2.226 8.57-3.149 0-6.732 1.35-3.149 4.955 3.591 3.616 6.276 6.77 3.591 6.77-2.694 0-4.486 5.411-3.141 6.767 1.349 1.348 7.623 5.41 2.7 6.309-4.942.902-4.942 4.954-4.942 7.665 0 1.005.8 2.53 1.81 4.076 2.289-.407 4.547-.477 6.628.501 5.157 2.4 8.146 15.315 15.106 14.444 2.954-.372 1.476-2.594 2.954-4.083 1.476-1.476 4.23-.36 7.184-.36 2.94 0 4.423-4.268 11.414-4.45 7.001-.179 11.426-.748 15.842-.557 4.426.18 7.924-1.303 9.025-4.448 1.104-3.152 4.795-5.926 9.769-6.669 4.975-.74 4.238-5.94 4.598-8.893.377-2.964 8.668-7.42 9.212-9.64.559-2.227-4.792-10.747.182-18.347 4.974-7.595 10.325-7.96 10.325-12.23 0-3.906 5.15-5.367 11.42-6.124 6.266-.725 8.292-4.994 13.637-7.215 4.477-1.873 6.075-5.198 5.173-10.491m120.334-46.264c2.906-1.25 6.179-1.75 7.778-1.063 1.408.605 1.866 2.185 2.12 3.876 2.488-.386 7.043-1.14 8.586-1.77 2.17-.862 7.027 2.023 7.564.297.542-1.738 2.165-5.77 4.323-5.77 2.166 0 .81-6.06 2.974-6.356 2.16-.284 7.563-5.474 7.563-5.474s-2.159-4.612-2.968-4.908c-.813-.29-3.515 2.879-8.382 2.879-4.856 0-8.366 4.044-10.526 4.044-2.165 0-8.919-2.305-13.508-2.594a100.638 100.638 0 01-4.885-.418c-.447 4.363-.94 11.089-.639 17.257M451.977 510c-2.804.286-6.69 1.308-6.06 2.853.744 1.825-1.872 2.922-4.845 2.922 0 0-10.453-.724-13.438-2.193-2.257-1.103-12.227-.54-16.924-.197a1.163 1.163 0 01-.234.564c-1.117 1.642-10.074 6.12-11.754 5.3-1.673-.821-2.515 2.748-5.87 3.564-3.36.826-8.392-.275-8.667 1.102-.286 1.373-2.521 5.214-4.478 7.13-1.96 1.924-.28 4.122-3.078 4.66-1.844.38-2.61 3.733-3.629 6.684.183.092.352.217.55.282 4.097 1.273 7.268 6.038 6.713 10.604-.556 4.58 5.97 6.233 8.956 2.927 2.978-3.284 11.376 1.836 11.376 4.03 0 2.192-8.579-2.377-13.436 1.102-4.842 3.466 3.734 6.762 2.622 10.425-1.13 3.664 2.235 8.773 6.525 8.6 4.295-.178 9.134 6.769 11.745 5.482 2.617-1.274-3.166-10.97-2.235-12.434.936-1.465 6.152 2.56 8.762-.373 2.615-2.923-1.86-5.115-5.777-4.938-3.916.184-.187-5.12 4.477-2.376 4.659 2.737 6.9-.73 9.13-1.103 2.236-.367 2.798-8.226-4.103-10.057-6.89-1.825-5.963 4.948-10.445.355-4.472-4.556 4.108-2.737 4.108-6.579 0-3.841-6.902-9.328-10.26-13.904-3.354-4.564 4.669-6.762 6.526-3.466 1.873 3.289 6.9 2.743 10.071 1.457 3.185-1.274-3.353-7.135 2.424-9.329 5.788-2.2 5.788 1.647 7.655 2.382 1.86.725 3.541-4.581 9.504-4.581 3.108 0 5.859 2.02 8.522 3.972 1.622-1.75 2.95-2.76 2.95-4.247 0-1.918 3.64-2.744 3.64-5.764 0-1.447-.579-3.271-1.023-4.856z"/><path fill="#85ACB0" d="M48.71 314.116c-1.533-1.158-2.971-2.419-4.082-3.75-4.689-5.576-6.627-1.114-7.166 2.234-.564 3.347-4.966-1.117-7.729-1.668-2.752-.567.827-5.86 2.763-7.26 1.29-.927 2.566-3.51 3.36-7.11-.515 0-1.03-.07-1.53-.268-5.108-2.027-12.234-2.027-12.411 2.584-.186 4.613 5.653 2.953 5.839 5.9.181 2.959-5.84 2.211-10.044 5.17-4.192 2.953-8.76-2.026-13.14.186-4.384 2.212 4.743 4.805 1.46 9.414-3.288 4.617.18 4.426 5.658 8.854 5.476 4.43-3.286 5.536-3.286 10.521 0 4.975-6.752 4.794-8.216 8.119C-1.262 350.365 6.029 357 12.42 357c4.563 0 15.147-2.953 21.359-8.853 6.199-5.907 9.487-.19 15.14-3.133 5.668-2.953 2.192-24.54 0-28.974-.383-.787-.375-1.39-.21-1.924"/><path fill="#3F5557" d="M41.763 247c5.092-.176 10.93-8.395 8.485-10.727-2.452-2.316-12.274 10.854-8.485 10.726zm110.229 93.079c.374-5.56-11.744-9.444-13.034-6.49-1.284 2.965-4.035 2.605-6.062-.728-2.013-3.343 1.846-6.494-.172-6.86-2.03-.373-4.592-5.008-4.037-6.859.551-1.848-3.124-13.71-9.366-15.194-6.242-1.483-7.158-10.38-8.255-15.195-1.106-4.815-5.153-2.234-8.264-6.304-3.125-4.077-8.45-2.036-11.205-1.85-2.749.186 0-5.198 4.402-8.153 4.41-2.966 9.553-18.725 9.553-21.866 0-3.157-19.273-2.977-22.946-1.116-3.675 1.849-7.342-2.78-4.229-4.082 3.123-1.292 9.733-7.782 9.367-10.375-.363-2.594 4.594-5.002 1.837-7.415-2.75-2.402-3.121 3.158-5.505 5.007-2.383 1.855-7.715 1.304-13.406.187-5.689-1.118-7.89 7.036-7.707 10.56.187 3.524-6.61 5.559-5.514 8.524 1.103 2.968-1.28 5.188-3.11 3.515-1.836-1.664-3.855-5.741-7.53-2.774-3.677 2.971 4.223 6.862 8.987 7.425 4.778.547-3.66 4.07-4.583 9.246-.916 5.199 6.236 2.978 6.61 6.678.376 3.709-10.282 4.268-10.282 7.779 0 3.536 6.06-1.662 8.811-3.14 2.757-1.488-1.46 8.7 5.15 7.595 6.604-1.116 4.763-10.187 7.15-9.822 2.392.368-1.095 4.815.927 8.706 2.007 3.89-4.779 9.827-4.41 12.607.362 2.78 13.583 2.78 17.802-1.67 4.23-4.447 6.236.374 3.308 3.712-2.934 3.332-1.654 6.483 2.024 7.787 3.667 1.29 4.96 1.662 3.306 4.616-1.652 2.977-.193 8.526-1.112 11.306-.916 2.78-12.295 2.413-12.663.565-.367-1.855-5.145-.565-3.85 2.03 1.28 2.604-4.046 5.378-3.678 7.792.376 2.418 7.161 1.847 7.34 4.819.182 2.96-4.957 6.48-11.921 8.52-6.986 2.036 1.46 7.602 4.764 5.187 3.303-2.406 2.575 1.664 7.345 1.664 4.772 0 7.722 3.896 13.033 1.861 5.326-2.041 5.143 0 1.103 3.145-4.042 3.158-10.096-.18-13.768 1.856-3.673 2.035-18.607 16.173-15.784 19.65 1.653 2.03 3.847-2.965 9.168-5.192 5.332-2.223 6.242 1.476 9.191 1.847 2.932.38 3.115-6.11 5.502-5.558 2.387.56 4.588-2.035 8.99-1.291 4.408.738 7.533-.93 9.734-2.779 2.203-1.85 8.07 3.697 9.916 2.407 1.828-1.302 9.909-2.786 13.95-2.606 4.027.2 14.5-4.63 17.247-7.223 2.757-2.593-1.65-3.14-5.317-2.593-3.676.564-2.944-3.704.916-7.409 3.853-3.704 9.913-6.49 10.277-12.05zm-100.37-45.544c-4.63-4.601-10.591 2.616-15.481 2.533-.795 3.678-2.075 6.317-3.367 7.263-1.94 1.43-5.527 6.838-2.769 7.417 2.769.562 7.18 5.122 7.745 1.704.54-3.42 2.483-7.98 7.18-2.283 1.114 1.36 2.555 2.649 4.093 3.831.758-2.584 6.538-3.029 9.537-6.139 3.659-3.774-1.82-9.238-6.939-14.326z"/><path fill="#FFFFFE" d="M112.336 209.117l.51.505c1.131-1.126 2.188-3.066 3.027-5.19.828-2.123 1.407-4.396 1.413-6.199-.005-.819-.114-1.554-.467-2.175a2.103 2.103 0 00-.754-.773 2.145 2.145 0 00-1.098-.285c-.272 0-.55.041-.837.118-.79.21-1.436.694-1.926 1.306-.738.925-1.183 2.137-1.467 3.448-.283 1.314-.396 2.735-.396 4.075 0 1.45.132 2.8.345 3.829.109.515.233.947.399 1.304.085.18.178.344.325.503.141.151.387.335.738.338.306 0 .556-.156.699-.3h-.002l-.51-.504-.51-.504.323.32v-.437a.474.474 0 00-.322.117l.322.32v-.437.41l.319-.293c-.003-.007-.11-.114-.32-.117v.41l.32-.293-.003.003.004-.003h-.001l-.003.003.004-.003c-.023-.023-.124-.212-.206-.488-.266-.84-.48-2.45-.477-4.178-.001-1.679.197-3.493.667-4.902.233-.705.535-1.303.883-1.735.35-.434.729-.698 1.17-.816.187-.05.34-.07.462-.07a.682.682 0 01.36.084c.119.07.243.208.35.503.103.29.165.715.165 1.222.004 1.501-.53 3.688-1.317 5.687-.776 2.001-1.831 3.851-2.7 4.692v.001l.51.504zm-70.888 39.846l.026.744c2.375-.109 4.63-1.792 6.369-3.823a15.16 15.16 0 002.123-3.256c.522-1.112.849-2.206.851-3.222.003-.78-.21-1.555-.759-2.124l-.003-.003.002.001a1.653 1.653 0 00-1.205-.502c-.501.004-.963.18-1.426.435-1.594.9-3.376 2.917-4.863 5.047-.737 1.066-1.385 2.154-1.86 3.15-.47 1.004-.787 1.88-.798 2.693.001.371.078.78.36 1.121.286.346.73.492 1.13.485h.074l.005-.002-.026-.744-.022-.745h-.03l-.087-.009-.04.109.098-.054-.058-.055-.04.109.098-.054-.007-.031-.012-.13c-.013-.408.292-1.371.844-2.428.82-1.604 2.144-3.522 3.469-5 .66-.74 1.325-1.37 1.905-1.795.576-.434 1.08-.625 1.286-.612l.186.068-.003-.003c.208.217.336.547.34 1.073.002.67-.243 1.596-.707 2.568-.688 1.464-1.844 3.038-3.168 4.226-1.322 1.195-2.807 1.98-4.078 2.018h.004l.022.745zm110.803 91.013l.739.05.01-.297c0-1.223-.516-2.34-1.289-3.289-1.164-1.426-2.915-2.545-4.754-3.34-1.844-.79-3.769-1.25-5.355-1.253-.674.001-1.292.082-1.838.293-.539.206-1.037.581-1.287 1.145v.003c-.258.585-.566.976-.87 1.212-.307.235-.601.334-.936.335-.393.002-.87-.154-1.392-.537-.52-.383-1.073-.988-1.586-1.817l.001.003a3.224 3.224 0 01-.496-1.736c-.001-.719.22-1.44.472-2.106.125-.334.256-.652.363-.96.105-.313.198-.611.203-.967a1.287 1.287 0 00-.333-.892c-.249-.263-.568-.383-.884-.44l.002.002c-.244-.038-.644-.252-1.055-.633-.622-.565-1.265-1.46-1.729-2.377-.467-.911-.748-1.865-.74-2.445-.002-.16.018-.286.044-.37l.001-.002c.068-.23.084-.45.086-.694-.005-.85-.247-2.05-.688-3.483-.666-2.14-1.79-4.742-3.338-6.983-1.55-2.23-3.528-4.146-6.011-4.735-1.409-.331-2.496-1.052-3.403-2.062-1.357-1.51-2.257-3.695-2.895-5.958-.64-2.264-1.025-4.588-1.447-6.403v-.002c-.297-1.292-.845-2.2-1.568-2.802-1.095-.898-2.36-1.084-3.522-1.464-1.175-.38-2.279-.868-3.349-2.228a6.875 6.875 0 00-2.943-2.214c-1.076-.42-2.196-.558-3.275-.558-2.246.005-4.393.59-5.676.667l-.086.003-.186-.024-.02-.008-.017.02.022-.016-.004-.004-.018.02.022-.016-.015-.037-.014-.15c-.005-.236.102-.677.346-1.193.72-1.566 2.575-3.798 4.852-5.287v-.002c1.293-.864 2.46-2.449 3.601-4.409 1.7-2.94 3.266-6.733 4.42-10.103a59.404 59.404 0 001.381-4.578c.33-1.322.524-2.348.528-3.064.003-.426-.195-.816-.457-1.09-.463-.483-1.096-.769-1.88-1.025-2.336-.738-6.173-1.034-10.064-1.038-2.448 0-4.903.123-6.973.354a28.931 28.931 0 00-2.774.426c-.804.172-1.464.364-1.982.618l.002-.001a3.22 3.22 0 01-1.444.347 3.272 3.272 0 01-2.098-.78c-.547-.455-.828-1.036-.816-1.405a.71.71 0 01.14-.441c.097-.133.267-.281.582-.41h-.003c1.721-.71 4.073-2.568 6.109-4.63 1.012-1.033 1.93-2.11 2.611-3.132.675-1.03 1.15-1.973 1.166-2.925l-.034-.486c-.001-.296.111-.65.335-1.053.328-.605.883-1.276 1.383-1.984.492-.71.978-1.476.99-2.43.01-.75-.376-1.514-1.096-2.119h-.002c-.549-.47-1.111-.759-1.724-.762a1.854 1.854 0 00-.984.285c-.49.304-.816.742-1.118 1.218-.446.718-.825 1.563-1.25 2.335-.418.772-.886 1.452-1.392 1.83l-.007.007.006-.006c-.886.693-2.523 1.049-4.614 1.041-2.356.002-5.253-.416-8.264-.996a6.184 6.184 0 00-1.184-.117c-1.364-.003-2.558.494-3.514 1.26-1.437 1.154-2.394 2.876-3.023 4.63-.625 1.76-.913 3.558-.915 4.939 0 .155.003.304.01.45l.004.103c.001.554-.25 1.103-.724 1.697-.706.886-1.872 1.765-2.9 2.668-.515.456-.999.922-1.38 1.445-.375.518-.66 1.122-.66 1.808 0 .298.055.602.168.897v.001c.166.438.234.843.234 1.203.001.599-.19 1.074-.447 1.384-.262.31-.567.451-.869.453-.247-.003-.528-.088-.855-.378l-.003-.003.001.001c-.605-.531-1.33-1.48-2.195-2.323-.437-.422-.916-.821-1.468-1.125-.552-.304-1.187-.51-1.882-.51-.952 0-1.954.384-2.978 1.197-.775.604-1.234 1.386-1.228 2.21.008.94.528 1.735 1.225 2.423 1.061 1.034 2.63 1.913 4.329 2.61 1.698.693 3.518 1.191 5.08 1.374h.004c.473.05.768.144.852.195l.028.016.129-.148-.175.082.046.066.129-.148-.175.082.243-.115h-.27l.027.115.243-.115h-.27.104l-.103-.022-.002.022h.105l-.103-.022a1.16 1.16 0 01-.193.322c-.238.32-.69.772-1.23 1.289-.812.78-1.828 1.727-2.715 2.827-.884 1.098-1.655 2.36-1.92 3.808v.001a5.488 5.488 0 00-.093.976c-.018 1.2.534 2.141 1.29 2.695 1.123.835 2.546 1.072 3.644 1.47.548.191 1.002.41 1.292.663.287.257.446.508.502.977l.006.112c-.003.252-.082.468-.287.731-.352.459-1.134.958-2.115 1.408-1.47.687-3.35 1.298-4.912 2.039-.783.375-1.492.779-2.051 1.295-.555.506-.981 1.193-.978 2.006.001.523.106 1.008.436 1.395.332.388.836.537 1.264.53.67-.009 1.32-.255 2.031-.589 1.06-.505 2.23-1.255 3.339-1.98 1.104-.724 2.151-1.425 2.872-1.803l.009-.005-.008.005.129-.057.016-.005-.019-.116v.118l.02-.002-.02-.116v.118-.317l-.195.245.195.072v-.317l-.195.245.15-.189-.196.142.046.047.15-.189-.196.142v.003c.022.038.072.227.093.486.043.46.033 1.138.043 1.877.022 1.111.077 2.375.579 3.48.253.55.639 1.066 1.198 1.43.56.364 1.265.557 2.084.554.332 0 .686-.03 1.063-.092l.012-.001-.009.001c1.79-.29 3.1-1.147 3.987-2.226 1.334-1.62 1.8-3.663 2.18-5.235.186-.784.353-1.46.53-1.854a1.18 1.18 0 01.212-.35l.02-.015-.002-.005v.006l.001-.001-.001-.005v.006l.025.003c.206.038.187.065.195.068.01.005.058.11.057.347.004.4-.136 1.078-.293 1.867-.156.796-.321 1.72-.321 2.711-.002 1.024.18 2.13.748 3.2h-.001a2.6 2.6 0 01.291 1.239c.023 1.479-1.09 3.478-2.296 5.353-.6.943-1.208 1.865-1.683 2.733-.467.875-.831 1.685-.842 2.534l.023.322-.002-.001c.077.568.441 1.002.864 1.302.644.454 1.498.73 2.522.927 1.024.194 2.216.29 3.495.292 2.157-.002 4.554-.277 6.749-.873 2.191-.602 4.19-1.509 5.528-2.883l.015-.014-.015.016c1.148-1.195 2.057-1.556 2.517-1.543.31.01.465.1.635.31.163.21.29.585.288 1.067.003.812-.358 1.885-1.206 2.829l.002-.002c-1.2 1.336-1.811 2.722-1.813 4.054-.003 1.089.423 2.105 1.156 2.918.734.816 1.76 1.447 3 1.88 1.313.45 2.308.792 2.883 1.116.289.158.46.306.543.417a.55.55 0 01.114.356c.008.27-.158.814-.617 1.607l-.003.006.002-.003c-.817 1.463-.934 3.265-.941 5.057.001 1.206.065 2.411.063 3.49.003 1.1-.072 2.067-.296 2.718-.037.121-.177.31-.506.51-.485.298-1.324.563-2.311.729-.987.168-2.125.25-3.244.25-1.429 0-2.835-.134-3.857-.364-.51-.113-.922-.255-1.168-.384l-.226-.15-.012-.014-.056.044.063-.03-.007-.014-.056.044.063-.03-.204.097.222-.044-.018-.054-.204.098.222-.044v.002a1.696 1.696 0 00-.846-1.149c-.403-.224-.845-.301-1.288-.303a4.091 4.091 0 00-2.198.665c-.651.426-1.223 1.144-1.224 2.076 0 .39.103.794.303 1.183l-.003-.004c.09.179.123.335.123.508.005.338-.161.782-.493 1.285-.49.755-1.299 1.59-2.014 2.444-.356.43-.692.869-.954 1.338-.259.467-.451.975-.453 1.538l.027.351v.002c.072.471.32.877.629 1.176.546.524 1.25.814 2 1.078 1.126.383 2.393.672 3.327 1.072.466.198.837.42 1.065.644.227.229.324.42.348.71l.003.106c.001.501-.228 1.108-.752 1.78-1.558 2.036-5.635 4.32-10.7 5.762l.002-.001c-1.043.3-1.816.676-2.37 1.164-.556.48-.874 1.126-.868 1.772.003.639.272 1.21.653 1.7.578.735 1.43 1.334 2.394 1.778.965.44 2.046.719 3.106.72.886 0 1.774-.2 2.51-.726.7-.503 1.115-.617 1.32-.611.174.003.309.051.565.231.374.264.88.812 1.672 1.294.793.486 1.885.868 3.391.864 1.739-.002 3.25.554 4.837 1.159 1.582.599 3.241 1.252 5.212 1.255 1.027 0 2.128-.183 3.31-.627 1.443-.548 2.464-.768 2.955-.76l.23.019.04.01.109-.214-.2.123.092.091.108-.214-.2.123.213-.132h-.257l.044.132.213-.132h-.257v.005c.001.077-.212.502-.675.996-.459.502-1.14 1.116-2.02 1.787l-.012.009.01-.008c-1.294.992-2.845 1.263-4.578 1.264-1.734.003-3.595-.284-5.381-.287-1.314.002-2.615.158-3.778.788-.947.519-2.382 1.61-4.086 3.066-2.546 2.18-5.628 5.153-8.098 8.041-1.236 1.447-2.317 2.871-3.106 4.182-.781 1.318-1.3 2.505-1.311 3.62-.003.554.152 1.115.522 1.56h.002c.349.44.886.745 1.438.735.703-.014 1.24-.358 1.795-.762.827-.623 1.724-1.512 2.835-2.415 1.108-.903 2.414-1.812 4-2.463h-.002c1.157-.473 2.051-.64 2.77-.64 1.208.005 1.997.451 2.887 1.03.876.567 1.825 1.305 3.205 1.48h-.003l.34.023c.936.004 1.667-.525 2.158-1.132.752-.92 1.21-2.118 1.694-3.047.236-.461.474-.85.684-1.075.222-.23.34-.27.463-.273l.117.015c.295.067.588.097.873.097 1.13-.008 2.12-.425 3.176-.782 1.06-.365 2.184-.702 3.569-.702.455 0 .94.037 1.463.123.776.127 1.517.186 2.226.186 3.558.003 6.232-1.498 8.15-3.083.164-.134.364-.204.701-.207.428-.003 1.033.148 1.702.409 1.006.39 2.152 1 3.245 1.528 1.105.521 2.12.988 3.125 1.004.38.002.787-.083 1.14-.323l.006-.005c.291-.212 1.041-.528 2-.811 2.896-.872 7.813-1.64 10.873-1.636.241 0 .47.004.684.013h-.003l.287.007c1.185-.003 2.651-.31 4.28-.792 2.435-.725 5.208-1.857 7.646-3.053 2.443-1.2 4.525-2.433 5.659-3.475v.001c.337-.312.6-.612.79-.926.19-.312.312-.649.312-1.007.008-.459-.228-.887-.533-1.152-.458-.405-1.034-.597-1.69-.736-.656-.134-1.402-.19-2.19-.19-.862 0-1.772.068-2.645.197h-.003c-.19.028-.361.04-.51.04-.481-.002-.706-.122-.83-.242-.123-.122-.218-.321-.223-.7-.004-.535.24-1.357.765-2.265.523-.91 1.311-1.913 2.34-2.88 1.863-1.76 4.349-3.36 6.463-5.237 2.104-1.87 3.89-4.099 4.092-7.117l-.739-.049-.738-.048c-.163 2.46-1.604 4.341-3.605 6.125-1.99 1.777-4.485 3.377-6.494 5.266-1.122 1.056-1.998 2.16-2.606 3.217-.604 1.059-.951 2.063-.957 2.988-.003.637.188 1.275.657 1.737.467.463 1.139.674 1.876.67.232 0 .476-.018.73-.057h-.002a16.962 16.962 0 012.428-.181c.95-.003 1.813.1 2.356.28.272.086.454.194.525.262l.053.072c.002.017-.007.1-.1.253a3.025 3.025 0 01-.531.608l-.002.001c-.593.552-1.707 1.301-3.076 2.068-2.058 1.155-4.709 2.382-7.214 3.31-2.498.932-4.893 1.555-6.284 1.547l-.215-.005h-.003c-.24-.01-.49-.015-.75-.015-2.193 0-5.108.349-7.729.85-1.31.25-2.54.54-3.572.85-1.035.314-1.852.622-2.426 1.016l.006-.005c-.043.03-.12.063-.298.065-.306.006-.85-.141-1.477-.403-.944-.39-2.082-1.008-3.216-1.538-1.144-.526-2.272-.99-3.379-1-.57-.003-1.169.147-1.648.544-1.771 1.455-4.077 2.742-7.203 2.745a12.08 12.08 0 01-1.983-.167h.001c-.602-.1-1.17-.142-1.707-.142-1.634-.001-2.958.404-4.055.782-1.1.386-1.972.71-2.69.702a2.37 2.37 0 01-.538-.059h-.002a1.944 1.944 0 00-1.585.322c-.54.395-.879.942-1.198 1.522-.47.872-.87 1.862-1.326 2.578-.225.36-.46.64-.682.809-.225.17-.41.239-.659.243l-.15-.01h-.002c-.906-.107-1.635-.629-2.572-1.248-.922-.61-2.08-1.28-3.704-1.274-.954 0-2.045.224-3.335.75h-.001c-2.36.97-4.117 2.432-5.46 3.61-.67.59-1.24 1.109-1.7 1.453-.46.356-.806.48-.902.466-.07-.009-.103.012-.296-.2h.002c-.116-.141-.185-.319-.188-.63-.003-.41.157-1.019.491-1.73 1.16-2.517 4.309-6.176 7.51-9.32a77.944 77.944 0 014.612-4.201c1.386-1.159 2.575-2.026 3.22-2.373.828-.453 1.867-.608 3.066-.607 1.624-.003 3.495.283 5.381.286 1.872.001 3.82-.296 5.484-1.57h-.001c.993-.759 1.77-1.458 2.321-2.086.277-.315.5-.612.665-.908.161-.297.281-.595.285-.954a1.19 1.19 0 00-.554-1.015c-.336-.206-.684-.253-1.06-.256-.843.006-1.944.283-3.48.855-1.027.386-1.934.53-2.785.532-1.625.002-3.088-.55-4.682-1.159-1.586-.6-3.303-1.253-5.367-1.255-1.69-.013-2.477-.5-3.17-1.034-.344-.27-.649-.57-1.02-.84-.364-.269-.851-.518-1.437-.515-.694.005-1.37.308-2.187.89-.41.294-.978.448-1.644.448-1.054.004-2.307-.4-3.235-.988-.464-.291-.848-.625-1.093-.941-.249-.318-.347-.601-.345-.805.006-.203.063-.395.374-.68.308-.276.887-.591 1.794-.849h.001c3.501-1.008 6.558-2.368 8.785-3.881 1.113-.759 2.022-1.556 2.674-2.394.65-.835 1.057-1.732 1.06-2.673l-.006-.196a2.44 2.44 0 00-.5-1.34c-.5-.65-1.214-1.028-1.967-1.336-1.134-.454-2.422-.74-3.406-1.094-.492-.175-.899-.366-1.15-.555-.255-.197-.333-.334-.361-.491l.001.001-.01-.128c-.006-.28.154-.696.487-1.181.49-.73 1.305-1.563 2.024-2.437.706-.882 1.385-1.82 1.403-2.987a2.562 2.562 0 00-.275-1.159l-.002-.001-.001-.003a1.165 1.165 0 01-.145-.524c0-.305.176-.592.57-.86.381-.26.939-.42 1.372-.416.255-.002.458.054.554.111l.129.161.001.003v-.001c.06.29.216.518.388.69.306.297.673.477 1.102.64 1.276.463 3.195.685 5.198.691 1.59-.001 3.208-.15 4.548-.493.67-.175 1.272-.397 1.78-.704.501-.304.94-.714 1.138-1.293.312-.94.37-2.024.373-3.181-.002-1.134-.066-2.336-.066-3.49-.006-1.719.16-3.317.752-4.342v.001c.5-.887.8-1.598.808-2.327a2.014 2.014 0 00-.41-1.235c-.402-.518-.963-.827-1.638-1.126-.68-.296-1.503-.573-2.484-.911h.001c-1.055-.366-1.858-.883-2.382-1.47-.524-.588-.78-1.225-.783-1.945-.001-.874.404-1.927 1.438-3.08l.002-.001c1.071-1.2 1.574-2.581 1.577-3.8-.001-.722-.176-1.402-.581-1.943a2.235 2.235 0 00-1.822-.898c-1.117.013-2.285.662-3.585 1.992v.001c-1.03 1.074-2.812 1.93-4.852 2.483-2.04.555-4.328.82-6.357.82-1.601 0-3.045-.168-4.046-.46-.498-.143-.882-.32-1.104-.48-.229-.169-.26-.271-.263-.308v-.001l-.009-.128c-.01-.375.23-1.054.665-1.838.645-1.185 1.663-2.622 2.531-4.119.865-1.503 1.615-3.068 1.625-4.663a4.08 4.08 0 00-.459-1.916v-.002c-.432-.816-.58-1.662-.58-2.52-.001-.83.142-1.66.293-2.432.15-.776.317-1.478.321-2.147-.001-.388-.057-.803-.32-1.185-.264-.385-.724-.615-1.187-.678l-.249-.02c-.26 0-.525.07-.741.197-.412.243-.637.603-.81.97-.299.65-.467 1.435-.677 2.302-.307 1.296-.686 2.75-1.412 3.903-.737 1.153-1.739 2.019-3.532 2.328h.001a5.15 5.15 0 01-.822.072c-.517 0-.878-.098-1.149-.243-.466-.25-.756-.683-.956-1.34-.297-.975-.276-2.327-.285-3.46-.01-.573-.02-1.086-.135-1.557a1.642 1.642 0 00-.345-.712 1.167 1.167 0 00-.886-.4c-.31.001-.57.1-.824.233l.001-.002c-1.121.594-2.626 1.663-4.093 2.584-.73.46-1.445.879-2.062 1.173-.614.3-1.147.452-1.391.444l-.135-.017-.006-.003-.034-.07a1.21 1.21 0 01-.046-.37c.003-.236.077-.44.281-.695.351-.446 1.135-.938 2.116-1.383 1.474-.678 3.356-1.29 4.92-2.043.785-.38 1.495-.793 2.054-1.322.555-.518.975-1.215.972-2.036l-.013-.26a2.886 2.886 0 00-.525-1.417c-.5-.687-1.22-1.06-1.936-1.34-1.08-.413-2.244-.65-3.045-1.059-.4-.2-.697-.428-.892-.699-.194-.273-.32-.605-.323-1.142 0-.21.021-.448.07-.72v.002c.297-1.712 1.696-3.385 3.101-4.77.7-.696 1.388-1.32 1.93-1.887a6.51 6.51 0 00.695-.833c.182-.282.347-.582.354-.993a1.185 1.185 0 00-.212-.679c-.213-.3-.506-.462-.812-.575-.312-.113-.666-.182-1.095-.232l.003.002c-1.848-.213-4.294-.974-6.207-1.973-.958-.497-1.783-1.055-2.334-1.597-.56-.546-.796-1.043-.787-1.382.004-.295.124-.62.673-1.067.851-.67 1.51-.874 2.053-.876.402 0 .775.113 1.163.326.578.314 1.16.867 1.718 1.474.56.608 1.095 1.263 1.676 1.783l-.003-.003c.548.495 1.205.759 1.848.757.796.002 1.52-.39 2.013-.988.495-.598.782-1.408.782-2.313a4.801 4.801 0 00-.328-1.717v.002a1.099 1.099 0 01-.073-.386c-.007-.354.214-.807.697-1.34.712-.795 1.9-1.66 2.944-2.633.522-.491 1.012-1.015 1.389-1.612.374-.594.635-1.278.633-2.033l-.004-.18a7.421 7.421 0 01-.009-.373c-.006-1.575.475-4.033 1.496-5.995.508-.983 1.147-1.841 1.891-2.433.747-.593 1.579-.933 2.585-.936.284 0 .585.03.903.09 3.054.587 6.018 1.023 8.545 1.023 2.235-.007 4.155-.322 5.518-1.346l-.001.001c1.203-.934 1.843-2.402 2.456-3.574.299-.585.586-1.1.846-1.412.128-.158.246-.26.333-.313l.207-.066c.102-.004.351.057.756.404.493.438.578.718.586 1.013.003.254-.105.588-.328.978-.329.587-.888 1.257-1.392 1.98-.496.725-.977 1.53-.987 2.508l.026.376.008.11c.016.388-.305 1.213-.92 2.118-.914 1.371-2.407 2.984-3.937 4.343-1.522 1.36-3.12 2.475-4.11 2.87l-.003.002c-.514.21-.933.516-1.217.907a2.176 2.176 0 00-.419 1.298c.01.97.552 1.848 1.332 2.518a4.76 4.76 0 003.062 1.132 4.717 4.717 0 002.104-.501h.001c.317-.16.894-.341 1.628-.495 2.21-.47 5.845-.75 9.438-.749 2.897 0 5.784.18 7.896.56 1.052.187 1.913.432 2.443.691.264.126.44.257.517.342l.066.096c.007.604-.3 2.164-.85 4.062-.818 2.865-2.16 6.615-3.698 9.89-.766 1.637-1.584 3.156-2.4 4.382-.81 1.226-1.635 2.153-2.323 2.601l-.02.015.02-.015a17.068 17.068 0 00-4.148 3.897 11.501 11.501 0 00-1.23 1.999c-.292.637-.477 1.226-.48 1.805-.003.408.108.858.44 1.2.332.345.809.484 1.27.48l.185-.006c1.545-.112 3.577-.668 5.577-.664.953 0 1.883.123 2.73.456.85.334 1.627.867 2.318 1.747l-.002-.001a7.448 7.448 0 002.726 2.208c1.386.652 2.675.827 3.572 1.232.453.2.806.435 1.111.8.304.365.57.88.76 1.69v-.001c.544 2.327 1.051 5.746 2.24 8.816.597 1.535 1.368 2.994 2.435 4.19 1.066 1.191 2.445 2.114 4.172 2.514 1.277.296 2.488 1.1 3.586 2.235 1.646 1.698 2.998 4.11 3.914 6.347a24.21 24.21 0 011.048 3.102c.237.908.35 1.67.35 2.092 0 .156-.02.263-.025.272v-.001a2.73 2.73 0 00-.108.795c.014 1.285.638 2.792 1.49 4.13.43.666.92 1.278 1.457 1.768.537.485 1.114.87 1.793.998h.001l.101.026.046-.098-.07.08.024.018.046-.098-.07.08.168-.188-.237.09.07.099.167-.19-.237.092.146-.058-.155.025.009.033.146-.058-.155.025v.01c.004.049-.033.242-.123.491-.257.77-.908 2.032-.914 3.543a4.678 4.678 0 00.711 2.498v.001l.002.002c.592.953 1.253 1.7 1.965 2.225.71.521 1.486.826 2.274.826a2.98 2.98 0 001.853-.65c.54-.422.977-1.024 1.308-1.776l-.001.003c.057-.126.174-.253.476-.375.296-.116.749-.192 1.295-.19 1.73-.008 4.328.732 6.392 1.95 1.036.606 1.942 1.328 2.564 2.097.626.772.962 1.564.962 2.37l-.007.199.738.048zM51.733 295.66l.517-.519c-1.257-1.183-2.71-1.672-4.137-1.664-2.219.012-4.354 1.05-6.407 2.012-2.045.978-4.013 1.879-5.62 1.864h-.075l-.605-.007-.132.57c-.393 1.71-.906 3.166-1.465 4.281-.553 1.116-1.17 1.882-1.661 2.21l-.006.005.004-.003c-.851.597-1.826 1.653-2.65 2.83a11.308 11.308 0 00-1.041 1.81c-.269.61-.452 1.204-.455 1.8-.001.414.1.854.39 1.221.287.37.736.605 1.228.699h.003l.001.001c.823.146 2.064.817 3.264 1.48.605.33 1.209.656 1.795.91.59.249 1.155.443 1.758.448.437.005.93-.134 1.288-.476.36-.339.552-.797.645-1.324v-.006c.169-1.013.495-2.138.965-2.94.233-.4.498-.715.766-.913.272-.196.527-.29.85-.292.337 0 .783.116 1.361.475.576.356 1.266.951 2.052 1.846l-.001-.001c1.186 1.357 2.69 2.615 4.283 3.763l.851.615.307-.984c.11-.366.457-.746 1.096-1.135.947-.585 2.43-1.113 3.977-1.758 1.546-.653 3.17-1.434 4.434-2.658l-.002.001c.966-.924 1.436-2.046 1.427-3.184-.016-1.943-1.193-3.84-2.788-5.76-1.606-1.92-3.689-3.86-5.7-5.736l-1.035 1.038c2.01 1.872 4.057 3.786 5.576 5.602 1.53 1.814 2.474 3.532 2.456 4.856-.007.78-.268 1.456-.991 2.165l-.002.002c-1.361 1.335-3.5 2.174-5.457 2.956-.98.397-1.91.78-2.692 1.258-.774.474-1.451 1.072-1.725 1.937l.712.207.448-.576c-1.535-1.107-2.96-2.305-4.036-3.539l-.002-.003c-.853-.968-1.635-1.66-2.38-2.125-.746-.463-1.471-.702-2.169-.703a2.91 2.91 0 00-1.756.59c-.723.54-1.203 1.323-1.564 2.163-.358.843-.589 1.757-.732 2.603l.001-.006c-.06.346-.162.488-.211.531-.05.04-.08.064-.252.07-.227.005-.653-.106-1.15-.323-.75-.323-1.66-.852-2.584-1.346-.93-.491-1.862-.96-2.795-1.142l.004.001c-.235-.05-.296-.112-.338-.16-.039-.049-.084-.146-.085-.349-.003-.284.11-.733.334-1.23.65-1.5 2.265-3.416 3.189-4.037h-.001c.823-.571 1.511-1.513 2.139-2.757.622-1.243 1.163-2.797 1.577-4.593l-.727-.157-.01.72h.095c2.14-.013 4.224-1.05 6.274-2.011 2.042-.976 4.048-1.876 5.752-1.865 1.099.009 2.081.321 3.1 1.26l.52-.518z"/><path fill="#85ACB0" stroke="#FFF" d="M41.763 247c5.092-.176 10.93-8.395 8.485-10.727-2.452-2.316-12.274 10.854-8.485 10.726zm110.229 93.079c.374-5.56-11.744-9.444-13.034-6.49-1.284 2.965-4.035 2.605-6.062-.728-2.013-3.343 1.846-6.494-.172-6.86-2.03-.373-4.592-5.008-4.037-6.859.551-1.848-3.124-13.71-9.366-15.194-6.242-1.483-7.158-10.38-8.255-15.195-1.106-4.815-5.153-2.234-8.264-6.304-3.125-4.077-8.45-2.036-11.205-1.85-2.749.186 0-5.198 4.402-8.153 4.41-2.966 9.553-18.725 9.553-21.866 0-3.157-19.273-2.977-22.946-1.116-3.675 1.849-7.342-2.78-4.229-4.082 3.123-1.292 9.733-7.782 9.367-10.375-.363-2.594 4.594-5.002 1.837-7.415-2.75-2.402-3.121 3.158-5.505 5.007-2.383 1.855-7.715 1.304-13.406.187-5.689-1.118-7.89 7.036-7.707 10.56.187 3.524-6.61 5.559-5.514 8.524 1.103 2.968-1.28 5.188-3.11 3.515-1.836-1.664-3.855-5.741-7.53-2.774-3.677 2.971 4.223 6.862 8.987 7.425 4.778.547-3.66 4.07-4.583 9.246-.916 5.199 6.236 2.978 6.61 6.678.376 3.709-10.282 4.268-10.282 7.779 0 3.536 6.06-1.662 8.811-3.14 2.757-1.488-1.46 8.7 5.15 7.595 6.604-1.116 4.763-10.187 7.15-9.822 2.392.368-1.095 4.815.927 8.706 2.007 3.89-4.779 9.827-4.41 12.607.362 2.78 13.583 2.78 17.802-1.67 4.23-4.447 6.236.374 3.308 3.712-2.934 3.332-1.654 6.483 2.024 7.787 3.667 1.29 4.96 1.662 3.306 4.616-1.652 2.977-.193 8.526-1.112 11.306-.916 2.78-12.295 2.413-12.663.565-.367-1.855-5.145-.565-3.85 2.03 1.28 2.604-4.046 5.378-3.678 7.792.376 2.418 7.161 1.847 7.34 4.819.182 2.96-4.957 6.48-11.921 8.52-6.986 2.036 1.46 7.602 4.764 5.187 3.303-2.406 2.575 1.664 7.345 1.664 4.772 0 7.722 3.896 13.033 1.861 5.326-2.041 5.143 0 1.103 3.145-4.042 3.158-10.096-.18-13.768 1.856-3.673 2.035-18.607 16.173-15.784 19.65 1.653 2.03 3.847-2.965 9.168-5.192 5.332-2.223 6.242 1.476 9.191 1.847 2.932.38 3.115-6.11 5.502-5.558 2.387.56 4.588-2.035 8.99-1.291 4.408.738 7.533-.93 9.734-2.779 2.203-1.85 8.07 3.697 9.916 2.407 1.828-1.302 9.909-2.786 13.95-2.606 4.027.2 14.5-4.63 17.247-7.223 2.757-2.593-1.65-3.14-5.317-2.593-3.676.564-2.944-3.704.916-7.409 3.853-3.704 9.913-6.49 10.277-12.05zm-100.37-45.544c-4.63-4.601-10.591 2.616-15.481 2.533-.795 3.678-2.075 6.317-3.367 7.263-1.94 1.43-5.527 6.838-2.769 7.417 2.769.562 7.18 5.122 7.745 1.704.54-3.42 2.483-7.98 7.18-2.283 1.114 1.36 2.555 2.649 4.093 3.831.758-2.584 6.538-3.029 9.537-6.139 3.659-3.774-1.82-9.238-6.939-14.326zm234.025-14.314c-1.47-.924-2.567 2.574-4.215 2.944-1.647.37-3.473-6.997-4.209-2.944-.735 4.047-4.393-1.657-8.051 3.486-3.66 5.163 2.193 9.757 4.754 11.42 2.562 1.652-.183 4.043-3.474 3.31-3.292-.735-1.28 4.774 3.29 5.52 4.572.733 9.516-8.096 8.971-10.307-.558-2.206 4.664-12.344 2.934-13.429zm-27.744-10.892c-1.875-.926-2.623-6.92-.381-8.772 2.24-1.87 3.189-8.984 1.314-10.846-1.86-1.87-8.608 0-9.166 5.041-.56 5.042-5.978 2.803-7.474 3.922-1.5 1.12 2.983 3.36.557 5.606-2.427 2.24-3.364-3.366-7.29-3.723-3.926-.387-4.301 5.963-6.353 9.147-2.065 3.177-.756 9.903 0 14.387.744 4.479 6.167 7.281 4.854 11.022-.602 1.736.625 3.689 1.927 5.595 4.975.099 9.534.462 11.544 1.125.804.269 2.487.198 4.68-.106-1.645-2.674-5.337-4.848-5.056-6.801.376-2.604 3.926-.944 6.548 1.3 2.607 2.243 8.417 2.622 8.97-.18.343-1.729-.933-9.715-4.484-7.845-3.557 1.87-4.486 1.12-5.8-.75-1.308-1.87 2.618-4.854 3.557-7.844.926-2.996 7.095-1.882 8.034-4.304.942-2.422-4.121-5.037-5.981-5.974z"/><path fill="#85ACB0" stroke="#FFF" d="M421.242 84.998c-1.787-1.757-5.344-6.476-2.385-6.476 2.977 0 4.16-8.839.598-10.614-3.557-1.773 0-9.448-2.976-11.213-2.97-1.774-1.185-7.673-.581-11.799.581-4.137-11.304-7.67-17.837-10.62-6.534-2.95-9.5-7.669-14.85-10.619-5.344-2.95-7.133 4.714-7.133 9.444 0 4.72-4.752 5.307-8.314 2.351-3.568-2.95-7.73 0-13.073-2.35-5.35-2.369-2.966 5.306-2.966 8.844 0 3.532-5.948 3.532-9.51 3.532-3.57 0-9.506 2.956-9.506 7.08 0 4.127-5.343 6.49-3.569 8.858 1.782 2.355-.591 4.72-2.97 6.492-2.374 1.765-4.746 7.66-6.533 9.433-1.782 1.769 1.188 4.719-2.375 7.081-3.555 2.351-7.723.576-9.503 2.351-1.782 1.775 0 5.912-.588 11.225-.604 5.295-4.764 11.201-8.326 15.914-3.557 4.725 1.19 5.912 2.977 6.488 1.774.6 1.774 3.55 0 7.082-1.787 3.555-5.948 1.181-8.321.605-2.373-.605-8.913 2.35-12.478 8.251-3.567 5.9-2.383 9.438-1.194 12.389 1.184 2.95-2.965 6.493 0 12.392 2.971 5.9-1.19 7.082-.586 11.801.586 4.72 7.717 4.126 8.316 8.845.592 4.713-2.38 6.488-4.759 6.488-2.373 0-1.777 4.719.604 5.9 2.367 1.187 1.776 9.438.592 11.807-1.196 2.356-8.913 0-8.321 2.938.591 2.956-1.788 7.668-1.788 10.038 0 2.355-.592 10.024-2.971 8.25-.933-.692-2.434-.743-3.903-.547.006.368.012.736 0 1.163-.182 4.587 1.484 9.185 5.545 12.481 4.069 3.313.923 8.262 4.434 12.856 3.517 4.597 2.401 7.899 6.284 11.205 3.888 3.303 4.26 5.14 2.593 9.363-1.658 4.23 3.332 3.119 3.511 5.689.198 2.582-1.096 7.893.198 10.469 1.287 2.569 3.881 0 9.795-.18 5.913-.184 4.44-3.86 4.62-7.35.179-3.487 3.15-1.833 3.881-4.034.742-2.209 6.104-2.755 10.357-.933 4.248 1.85 6.465-1.276 7.213-5.683.731-4.408 3.134.922 4.434 1.832 1.293.922 5.18-6.787 7.02-11.743 1.851-4.966-.18-4.038-4.432.726-4.253 4.777-1.845-4.764-.18-8.625 1.653-3.854 1.48-15.067 2.031-17.626.562-2.568 1.665-6.43 7.027-7.53 5.362-1.1 12.388-7.71 11.286-10.458-1.114-2.76 7.393-7.34 7.393-10.1 0-2.761-8.878-11.208-11.83-13.04-2.966-1.833-9.432-.37-8.88-2.385.55-2.016-.749-9.917-1.48-13.955-.742-4.045 4.614-8.263 4.614-12.124 0-3.854-.18-8.262 3.33-9.547 3.511-1.28 1.301-4.582 5.925-5.688 4.613-1.1 3.696-7.71 8.692-9.731 4.991-2.017 5.352-3.681 11.832-6.787 6.47-3.13 17.38-10.47 19.237-14.33 1.84-3.85-6.669-7.9-1.3-11.94 5.362-4.033.922-8.63 4.804-10.094 3.883-1.476 5.362-3.486 8.142-6.425 2.768-2.938 6.466-.178 13.12-1.284 2.437-.404 4.665-.208 6.771.299-.295-2.917-.95-5.313-1.758-6.132z"/><path fill="#85ACB0" d="M468.324 222.688c1.552-3.353 5.612-3.925 2.58-8.338-.57.478-1.393.917-2.762 1.302-5.435 1.508-17.237-3.749-23.977-2.44-6.747 1.308-20.411 1.308-23.596 4.69-3.185 3.384-11.235 4.32-7.68 7.326 3.567 3.012 0 4.508 2.62 8.081 2.628 3.57 3.938 5.074 7.5 4.313 3.56-.742 6.363 1.12 2.61 5.068l-.154.213c6-.56 12.664-.943 13.646-.213 1.504 1.132 10.483 8.274 12.735 7.52 1.374-.459 7.522.201 12.088.79-.527-1.403-.488-2.722.453-3.518 1.687-1.408 5.343-1.408 3.374-4.225-1.964-2.818-2.529-3.378-2.803-6.766-.289-3.372-1.129-5.063-.848-7.32.277-2.25 2.529-2.817 4.214-6.483z"/><path fill="#85ACB0" stroke="#FFF" d="M329.34 515.452c-4.781-2.925-1.657-7.705-9.201-7.347-7.547.38-16.561-8.984-19.322-19.817-2.762-10.814-14.531-11.373-17.482-17.8-2.946-6.427 2.76-7.151.19-12.473-1.438-2.96 1.738-5.579 5.486-7.06-.307-5.885.196-12.302.653-16.465-2.923-.299-5.435-.72-6.33-1.25-1.387-.828-1.657-5.24-2.49-5.24-.825 0-8.552 0-9.938 1.382-1.378 1.377-5.519 3.859-7.729 2.476-.475-.287-1-.586-1.538-.85l-2.408 2.233s-.376 2.938-1.851 2.938c-1.462 0-3.678-1.095-3.678 1.462 0 2.574-4.05 1.837-5.887 1.475-1.838-.369-4.414.362-4.414 2.567 0 2.2-.372 6.98-3.313 4.412-2.945-2.58-5.902-9.185-7.002-8.454-1.1.737-3.676 8.81-6.252 8.81-1.596 0-6.843.415-10.618.749-.99 3.162.067 5.045 1.41 5.862 1.385.818-.83 4.123-2.485 4.953-1.652.823-4.414 0-2.48 3.022 1.936 3.024 5.522 3.3 3.586 6.33-1.928 3.03 0 5.782 2.764 6.058 2.758.277 6.627-.276 5.793 1.936-.484 1.289-1.236 2.758-1.397 4.198 2.17-.627 4.091-.733 6.003-1.733 3.87-2.005 2.211-5.5 8.645-7.338 6.446-1.831 14.912 3.49 17.488 7.338 2.577 3.858 3.312 4.226 3.864 7.353.556 3.11 2.945 9.358 11.775 15.042 8.837 5.696 12.343 12.11 16.934 14.495 4.602 2.395 9.205 1.843 11.967 5.142 2.761 3.299 6.438 5.137 10.857 7.158 4.413 2.028 4.597 6.784 8.83 7.343 4.228.546 1.473 4.22 4.05 7.335 2.57 3.115 3.314 9.728.554 13.402-2.762 3.674-1.294 9.904.554 9.904 1.837 0 5.7-6.605 6.255-10.272.542-3.674 4.233-3.48 7.172-7.344 2.945-3.852-4.411-4.774-5.694-9.726-1.293-4.958 5.521-9.364 11.955-5.326 6.434 4.036 9.022 6.794 9.379.558.375-6.237-19.873-14.501-24.654-17.438zm-89.984 5.15c-4.049 3.515-7.395-.614-9.032 2.216-2.038 3.515 6.27 8.868 4.607 16.076-1.662 7.204.92 16.264 5.164 12.018 4.244-4.246 6.28-2.215 8.674-5.364 2.393-3.134.37-14.778 2.03-20.322 1.66-5.547-7.383-8.138-11.443-4.624zm70.557 42.164c-7.619 1.686-10.766 2.253-15.217 0-4.462-2.251-11.675 2.05-10.585 5.063.74 2.075 3.717 4.7 12.992 7.153 9.287 2.434 10.399 8.817 14.296 9.012 3.898.183 4.27-3.578 3.344-8.647-.933-5.07 4.637-10.895 5.193-11.838.552-.931-2.42-2.434-10.023-.743z"/><path fill="#85ACB0" stroke="#FFF" d="M259 431.696s.144-3.537-3.473-4.233c-3.617-.693-3.391-2.012-3.732-3.23-.173-.62-1.229-2.233-1.229-2.233s-1.981.204-1.487 3.712a44.76 44.76 0 01.288 2.414 3.406 3.406 0 001.01 2.174c.899.873 2.264 1.889 3.6 1.67 2.268-.368 3.158-.64 5.022-.274"/><path fill="#85ACB0" stroke="#FFF" stroke-width="3" d="M528 619.951c.546.934 1.091 1.267 1.637 1 .818-.4 1.841-3.4 3.274-3.4 1.432 0 2.25 1 3.273 1 .682 0 1.16-1.466 1.432-4.4 3.274.8 5.661 1.2 7.162 1.2 2.25 0 16.573-7.6 17.187-7.6.613 0-6.957 6.6-7.98 7.6-1.023 1-.818 1.6 0 3.6s1.023 2.8-1.023 2.8-2.865-.8-3.274 0c-.409.8.205 1.6-1.432 2.6s-7.775 1.8-8.389 2.8c-.614 1-.409 1.2 0 1.8.273.4-.477.667-2.25.8-.137-1.2-.41-1.8-.819-1.8-.614 0-3.683.8-4.706 0-1.023-.8-4.092-3.8-4.092-4.6v-3.4z"/><g transform="translate(507 608)"><text fill="#85ACB0" font-family="IBMPlexSans, IBM Plex Sans" font-size="10"><tspan x="7" y="14">4</tspan></text><circle cx="9.5" cy="10.5" r="9" stroke="#85ACB0"/></g><g transform="translate(151 424)"><text fill="#FFF" font-family="IBMPlexSans, IBM Plex Sans" font-size="10"><tspan x="8" y="14">9</tspan></text><circle cx="10.5" cy="10.5" r="9" stroke="#FFF"/></g><g transform="translate(253 449)"><text fill="#FFF" font-family="IBMPlexSans, IBM Plex Sans" font-size="10"><tspan x="4" y="14">13</tspan></text><circle cx="9.5" cy="10.5" r="9" stroke="#FFF"/></g><g transform="translate(296 438)"><text fill="#FFF" font-family="IBMPlexSans, IBM Plex Sans" font-size="10"><tspan x="3.421" y="12.5">23</tspan></text><circle cx="9" cy="9" r="7.5" stroke="#FFF"/></g><g transform="translate(322 442)"><text fill="#FFF" font-family="IBMPlexSans, IBM Plex Sans" font-size="10"><tspan x="4.895" y="12">3</tspan></text><circle cx="7.5" cy="8.5" r="7" stroke="#FFF"/></g><g transform="translate(297 412)"><text fill="#FFF" font-family="IBMPlexSans, IBM Plex Sans" font-size="10"><tspan x="8" y="14">1</tspan></text><circle cx="10.5" cy="10.5" r="9" stroke="#FFF"/></g><g transform="translate(297 374)"><text fill="#FFF" font-family="IBMPlexSans, IBM Plex Sans" font-size="10"><tspan x="8" y="13">5</tspan></text><circle cx="10.5" cy="9.5" r="9" stroke="#FFF"/></g><g transform="translate(350 392)"><text fill="#FFF" font-family="IBMPlexSans, IBM Plex Sans" font-size="10"><tspan x="5" y="13">22</tspan></text><circle cx="10.5" cy="9.5" r="9" stroke="#FFF"/></g><g transform="translate(350 420)"><text fill="#FFF" font-family="IBMPlexSans, IBM Plex Sans" font-size="10"><tspan x="5" y="14">12</tspan></text><circle cx="10.5" cy="10.5" r="9" stroke="#FFF"/></g><g transform="translate(423 488)"><text fill="#FFF" font-family="IBMPlexSans, IBM Plex Sans" font-size="10"><tspan x="8" y="13">2</tspan></text><circle cx="10.5" cy="9.5" r="9" stroke="#FFF"/></g><g transform="translate(423 440)"><text fill="#FFF" font-family="IBMPlexSans, IBM Plex Sans" font-size="10"><tspan x="5" y="14">21</tspan></text><circle cx="10.5" cy="10.5" r="9" stroke="#FFF"/></g><g transform="translate(380 532)"><text fill="#FFF" font-family="IBMPlexSans, IBM Plex Sans" font-size="10"><tspan x="4" y="13">11</tspan></text><circle cx="9.5" cy="9.5" r="9" stroke="#FFF"/></g><g transform="translate(243 350)"><text fill="#FFF" font-family="IBMPlexSans, IBM Plex Sans" font-size="10"><tspan x="4" y="13">10</tspan></text><circle cx="9.5" cy="9.5" r="9" stroke="#FFF"/></g><g transform="translate(303 149)"><text fill="#FFF" font-family="IBMPlexSans, IBM Plex Sans" font-size="10"><tspan x="5" y="13">25</tspan></text><circle cx="10.5" cy="9.5" r="9" stroke="#FFF"/></g><g transform="translate(433 149)"><text fill="#FFF" font-family="IBMPlexSans, IBM Plex Sans" font-size="10"><tspan x="8" y="13">8</tspan></text><circle cx="10.5" cy="9.5" r="9" stroke="#FFF"/></g><g transform="translate(433 220)"><text fill="#FFF" font-family="IBMPlexSans, IBM Plex Sans" font-size="10"><tspan x="8" y="13">7</tspan></text><circle cx="10.5" cy="9.5" r="9" stroke="#FFF"/></g><g transform="translate(433 255)"><text fill="#FFF" font-family="IBMPlexSans, IBM Plex Sans" font-size="10"><tspan x="5" y="13">15</tspan></text><circle cx="10.5" cy="9.5" r="9" stroke="#FFF"/></g><g transform="translate(415 283)"><text fill="#FFF" font-family="IBMPlexSans, IBM Plex Sans" font-size="10"><tspan x="4" y="14">16</tspan></text><circle cx="9.5" cy="10.5" r="9" stroke="#FFF"/></g><g transform="translate(355 337)"><text fill="#FFF" font-family="IBMPlexSans, IBM Plex Sans" font-size="10"><tspan x="4" y="14">19</tspan></text><circle cx="9.5" cy="10.5" r="9" stroke="#FFF"/></g><g transform="translate(233 268)"><text fill="#FFF" font-family="IBMPlexSans, IBM Plex Sans" font-size="10"><tspan x="7" y="13">6</tspan></text><circle cx="9.5" cy="9.5" r="9" stroke="#FFF"/></g><g transform="translate(186 338)"><text fill="#FFF" font-family="IBMPlexSans, IBM Plex Sans" font-size="10"><tspan x="5" y="14">18</tspan></text><circle cx="10.5" cy="10.5" r="9" stroke="#FFF"/></g><g transform="translate(215 376)"><text fill="#FFF" font-family="IBMPlexSans, IBM Plex Sans" font-size="10"><tspan x="5" y="13">17</tspan></text><circle cx="10.5" cy="9.5" r="9" stroke="#FFF"/></g><g transform="translate(99 327)"><text fill="#FFF" font-family="IBMPlexSans, IBM Plex Sans" font-size="10"><tspan x="4" y="14">26</tspan></text><circle cx="9.5" cy="10.5" r="9" stroke="#FFF"/></g><g transform="translate(18 322)"><text fill="#FFF" font-family="IBMPlexSans, IBM Plex Sans" font-size="10"><tspan x="5" y="14">14</tspan></text><circle cx="10.5" cy="10.5" r="9" stroke="#FFF"/></g><g transform="translate(73 525)"><text fill="#FFF" font-family="IBMPlexSans, IBM Plex Sans" font-size="10"><tspan x="5" y="13">24</tspan></text><circle cx="10.5" cy="9.5" r="9" stroke="#FFF"/></g><g transform="translate(15 537)"><text fill="#FFF" font-family="IBMPlexSans, IBM Plex Sans" font-size="10"><tspan x="4" y="14">20</tspan></text><circle cx="9.5" cy="10.5" r="9" stroke="#FFF"/></g><path fill="#85ACB0" stroke="#FFF" d="M474.042 515.032c10.04 3.117 16.707 3.816 19.999 2.095 4.938-2.58 23.798-19.19 29.951-18.545 6.154.645 20.322-.969 23.56-2.178 3.238-1.21 12.145 2.821 13.522 4.514 1.377 1.694 18.707 14.351 31.337 12.577 12.63-1.774 28.82-7.822 33.597-8.87 3.184-.7 6.071-3.494 8.66-8.386l11.092-1.935s-2.753-3.387 4.938-2.58c5.128.537 10.905 4.756 17.33 12.657l-1.292 12.256c-.108 1.02 1.89 1.746 5.992 2.176.974 10.428 2.326 17.281 4.054 20.56 1.728 3.279 3.861 7.633 6.4 13.061l-5.262 5.645-9.391.564-19.753 10.322-14.49 4.677-22.668 8.466c-3.887-2.472-7.477-2.848-10.769-1.128-4.938 2.58-11.576 6.531-11.576 6.531l-8.907-4.03-.969 9.19c-.323 3.065 2.754 3.387 2.754 3.387s-6.961 7.015-8.5 6.854c-1.538-.161-5.507-6.773-5.345-8.305.161-1.531 5.26-5.644 5.422-7.176.162-1.532-1.054-4.757-2.753-3.386-1.7 1.37-7.123 8.547-10.2 8.225-3.076-.323-7.368-3.87-10.445-4.193-3.077-.322-7.284 10.08-10.522 11.289-3.238 1.21-14.491 4.677-16.03 4.515-1.538-.16-5.346-8.304-8.422-8.626-3.077-.323-8.746-5.563-11.823-5.886-3.076-.322-10.93.404-10.93.404l.408 10.885s-8.337 5.321-12.791 3.306c-4.454-2.016-8.907-4.031-8.584-7.095.323-3.064-2.592-4.918-4.13-5.08-1.539-.16-16.6-4.836-18.138-4.997-1.538-.162-3.807-8.144-3.807-8.144s3.56-4.273.646-6.127c-2.915-1.855-10.284-5.725-10.123-7.257.162-1.531 9.553-2.096 9.553-2.096s-2.43-6.45-3.807-8.143c-.918-1.13-.487-5.214 1.292-12.256l-12.307-1.29s2.023-4.434 5.584-8.707c3.561-4.274 8.177-3.79 15.868-2.984 7.692.806 13.845 1.45 17.084.24 2.158-.806 6.53-2.929 13.114-6.37-8.097-1.88-12.091-3.331-11.984-4.353.108-1.021 1.295-2.445 3.561-4.273z"/><path stroke="#FFF" d="M204.596 386.167h11.911"/></g></svg>