<svg xmlns="http://www.w3.org/2000/svg" xmlns:xlink="http://www.w3.org/1999/xlink" width="32" height="33"><defs><rect id="a" width="24" height="16" x="0" y="0" rx="2"/></defs><g fill="none" fill-rule="evenodd" transform="translate(0 5)"><g fill-rule="nonzero"><rect width="24" height="16" fill="#0D47A1" rx="2"/><path fill="#FFF" d="M.414 8h.719l3.833-2.551V8h2.069V5.449L10.867 8h.72A.417.417 0 0 0 12 7.58v-.334L8.712 5.057H12V2.956H8.711L12 .767V.434a.416.416 0 0 0-.414-.42h-.719l-3.833 2.55V.014H4.965v2.55L1.258.097a1.805 1.805 0 0 0-1.017.83l3.048 2.029H0v2.101h3.289L0 7.247v.333c0 .232.185.42.414.42z"/><path fill="#F44336" d="M6.62.013v3.363H12v1.261H6.62V8H5.38V4.637H0V3.376h5.38V.013h1.24zM4.955 5.057.492 8H.414a.399.399 0 0 1-.305-.145l-.05-.071 4.135-2.727h.76zm3.164 0 3.875 2.556a.414.414 0 0 1-.234.346l-4.4-2.902h.76zM.685.406l3.867 2.55h-.76L.386.71C.473.597.574.495.685.406zM11.586.013c.122 0 .227.056.301.142l.05.069-4.142 2.732h-.76L11.496.013h.09z"/><path fill="#F44336" stroke="#FFF" stroke-width=".2" d="M18 11.489c.036 0 .067.023.079.057l.19.58.602.005c.036 0 .067.024.078.059a.082.082 0 0 1-.03.093l-.484.363.182.583a.088.088 0 0 1-.03.094.09.09 0 0 1-.05.016.083.083 0 0 1-.047-.016l-.49-.355-.49.355c-.014.01-.031.016-.048.016s-.034-.006-.049-.016a.089.089 0 0 1-.03-.094l.182-.583-.484-.363a.085.085 0 0 1-.03-.093.083.083 0 0 1 .078-.059l.602-.005.19-.58a.085.085 0 0 1 .08-.057zm-2.896-3.835c.035 0 .067.024.078.058l.19.58.602.004c.036 0 .068.024.079.059a.086.086 0 0 1-.03.093l-.484.364.182.582a.088.088 0 0 1-.03.094c-.016.01-.033.016-.05.016s-.033-.005-.048-.016l-.49-.355-.49.355a.08.08 0 0 1-.096 0 .085.085 0 0 1-.03-.094l.181-.582-.484-.364a.088.088 0 0 1-.03-.093.086.086 0 0 1 .079-.059l.602-.004.19-.58a.084.084 0 0 1 .079-.058zm5.793-.84c.035 0 .067.023.078.057l.19.58.603.005c.035 0 .067.023.078.058a.087.087 0 0 1-.03.094l-.484.363.182.583a.087.087 0 0 1-.03.093.085.085 0 0 1-.098.001l-.49-.356-.49.356a.082.082 0 0 1-.096-.001.084.084 0 0 1-.03-.093l.181-.583-.484-.363a.089.089 0 0 1-.03-.094.083.083 0 0 1 .079-.058l.602-.005.19-.58a.083.083 0 0 1 .079-.057zM18 4.712c.036 0 .067.023.079.057l.19.58.602.005c.036 0 .067.024.078.058a.084.084 0 0 1-.03.094l-.484.363.182.583a.089.089 0 0 1-.03.094.09.09 0 0 1-.05.016.083.083 0 0 1-.047-.016L18 6.19l-.49.356c-.014.01-.031.016-.048.016s-.034-.006-.049-.016a.089.089 0 0 1-.03-.094l.182-.583-.484-.363a.087.087 0 0 1-.03-.094.083.083 0 0 1 .078-.058l.602-.005.19-.58a.085.085 0 0 1 .08-.057z"/><rect width="23" height="15" x=".5" y=".5" stroke="#000" stroke-opacity=".04" rx="1"/></g><rect width="23" height="15" x=".5" y=".5" stroke="#000" stroke-opacity=".04" rx="2"/><g transform="translate(8 8)"><mask id="b" fill="#fff"><use xlink:href="#a"/></mask><use fill="#FFF" fill-rule="nonzero" xlink:href="#a"/><path fill="#F44336" fill-rule="nonzero" d="M24 14.688c0 .725-.587 1.312-1.312 1.312H1.312A1.311 1.311 0 0 1 0 14.688h24zm0-2.448v1.224H0V12.24h24zm0-2.448v1.224H0V9.792h24zm0-2.448v1.224H0V7.344h24zm0-2.448V6.12H0V4.896h24zm0-2.448v1.224H0V2.448h24zM22.776 0c.634 0 1.155.482 1.218 1.099l.006.125H.688C.688.548 1.236 0 1.912 0h20.864z" mask="url(#b)"/><path fill="#0D47A1" fill-rule="nonzero" d="M2 0h9.5v8.568H0V2a2 2 0 0 1 2-2z" mask="url(#b)"/><path fill="#F5F5F5" fill-rule="nonzero" d="m1.094 6.817.095.281h.295a.04.04 0 0 1 .037.028.041.041 0 0 1-.013.044l-.24.176.09.282a.04.04 0 0 1-.014.045.038.038 0 0 1-.047-.002l-.24-.172-.24.172a.039.039 0 0 1-.046 0 .04.04 0 0 1-.016-.043l.099-.28-.24-.177A.04.04 0 0 1 .6 7.127.04.04 0 0 1 .638 7.1h.296l.095-.282c.005-.04.053-.04.065-.001zm9.035-.026c.016 0 .03.01.033.026l.096.281h.295c.017 0 .031.012.037.028a.041.041 0 0 1-.013.044l-.24.176.09.282a.04.04 0 0 1-.014.045c-.015.01-.034.01-.047-.002l-.24-.172-.24.172a.039.039 0 0 1-.046 0 .04.04 0 0 1-.016-.043l.098-.28-.24-.177a.039.039 0 0 1-.012-.044.038.038 0 0 1 .036-.027h.296l.095-.282a.034.034 0 0 1 .032-.027zm-2.269 0c.016 0 .03.01.034.026l.095.281h.295a.04.04 0 0 1 .037.028.041.041 0 0 1-.013.044l-.24.176.09.282a.04.04 0 0 1-.014.045.038.038 0 0 1-.047-.002l-.24-.172-.24.172a.039.039 0 0 1-.046 0 .04.04 0 0 1-.016-.043l.099-.28-.24-.177a.038.038 0 0 1-.013-.044.039.039 0 0 1 .037-.027h.295l.095-.282a.034.034 0 0 1 .032-.027zm-4.498.026.095.281h.295a.04.04 0 0 1 .037.028.041.041 0 0 1-.013.044l-.24.176.09.282a.04.04 0 0 1-.014.045.038.038 0 0 1-.047-.002l-.24-.172-.24.172a.039.039 0 0 1-.046 0 .04.04 0 0 1-.016-.043l.099-.28-.24-.177a.038.038 0 0 1-.013-.044.039.039 0 0 1 .037-.027h.296l.095-.282c0-.04.053-.04.065-.001zm2.268 0 .096.281h.295c.017 0 .031.012.037.028a.041.041 0 0 1-.013.044l-.24.176.09.282a.04.04 0 0 1-.014.045c-.015.01-.034.01-.047-.002l-.24-.172-.24.172a.039.039 0 0 1-.046 0 .04.04 0 0 1-.016-.043l.098-.28-.24-.177a.039.039 0 0 1-.012-.044.038.038 0 0 1 .036-.027h.296l.096-.282c0-.04.053-.04.064-.001zm-3.402-.744.095.281h.295a.04.04 0 0 1 .037.028.04.04 0 0 1-.013.044l-.24.176.09.282a.04.04 0 0 1-.014.045.038.038 0 0 1-.047-.002l-.24-.172-.24.172a.039.039 0 0 1-.046 0 .038.038 0 0 1-.015-.043l.09-.282-.24-.176a.04.04 0 0 1 .024-.072h.304l.095-.281c.006-.039.054-.039.065 0zM9.01 6.04a.038.038 0 0 1 .018.032l.095.281h.295a.04.04 0 0 1 .037.028.04.04 0 0 1-.013.044l-.24.176.09.282a.04.04 0 0 1-.014.045.038.038 0 0 1-.047-.002l-.24-.172-.24.172a.039.039 0 0 1-.046 0 .038.038 0 0 1-.015-.043l.09-.282-.24-.176a.04.04 0 0 1 .024-.072h.295l.095-.281c0-.013.007-.025.019-.032a.035.035 0 0 1 .037 0zm-2.245.032.095.281h.295a.04.04 0 0 1 .037.028.041.041 0 0 1-.013.044l-.24.176.09.282a.04.04 0 0 1-.014.045.038.038 0 0 1-.047-.002l-.24-.172-.24.172a.039.039 0 0 1-.046 0 .04.04 0 0 1-.016-.043l.09-.282-.24-.176a.041.041 0 0 1 .025-.072h.295l.095-.281c.01-.039.063-.039.074 0zm-2.269 0 .095.281h.295a.04.04 0 0 1 .037.028.04.04 0 0 1-.013.044l-.24.176.09.282a.04.04 0 0 1-.014.045.038.038 0 0 1-.047-.002l-.24-.172-.24.172a.039.039 0 0 1-.046 0 .038.038 0 0 1-.015-.043l.09-.282-.24-.176a.04.04 0 0 1 .024-.072h.304l.095-.281c.001-.039.054-.039.065 0zm-1.134-.721.095.282h.295c.017 0 .032.01.037.027a.041.041 0 0 1-.013.044l-.24.177.09.281a.039.039 0 0 1-.014.045.038.038 0 0 1-.047-.002l-.24-.172-.24.172a.039.039 0 0 1-.046 0 .04.04 0 0 1-.016-.043l.09-.281-.24-.177a.039.039 0 0 1-.012-.044.039.039 0 0 1 .037-.027h.304l.095-.282c0-.033.053-.033.065 0zm6.8 0 .096.282h.295c.017 0 .031.01.037.027a.041.041 0 0 1-.013.044l-.24.177.09.281a.039.039 0 0 1-.014.045c-.015.01-.034.01-.047-.002l-.24-.172-.24.172a.039.039 0 0 1-.046 0 .04.04 0 0 1-.016-.043l.09-.281-.24-.177a.039.039 0 0 1-.012-.044.038.038 0 0 1 .036-.027h.296l.095-.282c.014-.033.067-.033.073 0zm-9.068 0 .095.282h.295c.017 0 .032.01.037.027a.041.041 0 0 1-.013.044l-.24.177.09.281a.039.039 0 0 1-.014.045.038.038 0 0 1-.047-.002l-.24-.172-.24.172a.039.039 0 0 1-.046 0 .04.04 0 0 1-.016-.043l.09-.281-.24-.177a.039.039 0 0 1-.012-.044.039.039 0 0 1 .037-.027h.304l.095-.282c.005-.033.053-.033.065 0zm6.8 0 .095.282h.295c.017 0 .032.01.037.027a.041.041 0 0 1-.013.044l-.24.177.09.281a.039.039 0 0 1-.014.045.038.038 0 0 1-.047-.002l-.24-.172-.24.172a.039.039 0 0 1-.046 0 .04.04 0 0 1-.016-.043l.09-.281-.24-.177a.039.039 0 0 1-.012-.044.039.039 0 0 1 .037-.027h.295l.095-.282c.014-.033.067-.033.074 0zm-2.264 0 .096.282h.295c.017 0 .031.01.037.027a.041.041 0 0 1-.013.044l-.24.177.09.281a.039.039 0 0 1-.014.045c-.015.01-.034.01-.047-.002l-.24-.172-.24.172a.039.039 0 0 1-.046 0 .04.04 0 0 1-.016-.043l.09-.281-.24-.177a.039.039 0 0 1-.012-.044.038.038 0 0 1 .036-.027h.304l.096-.282c0-.033.053-.033.064 0zm-3.402-.743.095.281h.295a.04.04 0 0 1 .037.028.04.04 0 0 1-.013.044l-.24.176.09.282a.04.04 0 0 1-.014.045.038.038 0 0 1-.047-.002l-.24-.172-.24.172a.039.039 0 0 1-.046 0 .038.038 0 0 1-.015-.043l.098-.28-.24-.177a.04.04 0 0 1-.013-.044.039.039 0 0 1 .037-.027h.296l.095-.282c.006-.04.054-.04.065-.001zm6.763-.037c.02 0 .037.016.037.037l.095.281h.295a.04.04 0 0 1 .037.028.04.04 0 0 1-.013.044l-.24.176.09.282a.04.04 0 0 1-.014.045.038.038 0 0 1-.047-.002l-.24-.172-.24.172a.039.039 0 0 1-.046 0 .038.038 0 0 1-.015-.043l.09-.282-.24-.176a.04.04 0 0 1 .024-.072h.295l.095-.281c0-.02.017-.037.037-.037zm-2.226.037.095.281h.295a.04.04 0 0 1 .037.028.041.041 0 0 1-.013.044l-.24.176.09.282a.04.04 0 0 1-.014.045.038.038 0 0 1-.047-.002l-.24-.172-.24.172a.039.039 0 0 1-.046 0 .04.04 0 0 1-.016-.043l.09-.282-.24-.176a.041.041 0 0 1 .025-.072h.295l.095-.281c.01-.039.063-.039.074 0zm-2.269 0 .095.281h.295a.04.04 0 0 1 .037.028.04.04 0 0 1-.013.044l-.24.176.09.282a.04.04 0 0 1-.014.045.038.038 0 0 1-.047-.002l-.24-.172-.24.172a.039.039 0 0 1-.046 0 .038.038 0 0 1-.015-.043l.098-.28-.24-.177a.04.04 0 0 1-.013-.044.039.039 0 0 1 .037-.027h.296l.095-.282c.001-.04.054-.04.065-.001zm-1.134-.716.095.281h.295a.04.04 0 0 1 .037.028.041.041 0 0 1-.013.044l-.24.176.09.282a.04.04 0 0 1-.014.045.038.038 0 0 1-.047-.002l-.24-.172-.24.172a.039.039 0 0 1-.046 0 .04.04 0 0 1-.016-.043l.099-.28-.24-.177a.038.038 0 0 1-.013-.044.039.039 0 0 1 .037-.027h.296l.095-.282c0-.04.053-.04.065-.001zm6.767-.026c.016 0 .03.01.033.026l.096.281h.295c.017 0 .031.012.037.028a.041.041 0 0 1-.013.044l-.24.176.09.282a.04.04 0 0 1-.014.045c-.015.01-.034.01-.047-.002l-.24-.172-.24.172a.039.039 0 0 1-.046 0 .04.04 0 0 1-.016-.043l.098-.28-.24-.177a.039.039 0 0 1-.012-.044.038.038 0 0 1 .036-.027h.296l.095-.282a.034.034 0 0 1 .032-.027zm-2.272-.011c.02 0 .037.016.037.037l.095.281h.295a.04.04 0 0 1 .037.028.041.041 0 0 1-.013.044l-.24.176.09.282a.04.04 0 0 1-.014.045.038.038 0 0 1-.047-.002l-.24-.172-.24.172a.039.039 0 0 1-.046 0 .04.04 0 0 1-.016-.043l.09-.282-.24-.176a.039.039 0 0 1-.012-.044.041.041 0 0 1 .037-.028h.295l.095-.281c0-.02.016-.037.037-.037zm-6.763.037.095.281h.295a.04.04 0 0 1 .037.028.041.041 0 0 1-.013.044l-.24.176.09.282a.04.04 0 0 1-.014.045.038.038 0 0 1-.047-.002l-.24-.172-.24.172a.039.039 0 0 1-.046 0 .04.04 0 0 1-.016-.043l.099-.28-.24-.177C.6 4.237.595 4.22.6 4.203a.039.039 0 0 1 .037-.027h.296l.095-.282c.005-.04.053-.04.065-.001zm4.536 0 .096.281h.295c.017 0 .031.012.037.028a.041.041 0 0 1-.013.044l-.24.176.09.282a.04.04 0 0 1-.014.045c-.015.01-.034.01-.047-.002l-.24-.172-.24.172a.039.039 0 0 1-.046 0 .04.04 0 0 1-.016-.043l.09-.282-.24-.176a.039.039 0 0 1-.012-.044.04.04 0 0 1 .036-.028h.304l.096-.281c0-.039.053-.039.064 0zm-3.402-.75.095.282h.295c.017 0 .032.011.037.027a.04.04 0 0 1-.013.044l-.24.177.09.281a.039.039 0 0 1-.061.044l-.24-.172-.24.172a.039.039 0 0 1-.046 0 .04.04 0 0 1-.015-.044l.09-.281-.24-.177a.04.04 0 0 1-.013-.044.039.039 0 0 1 .037-.027h.304l.095-.282c.006-.033.054-.033.065 0zm4.537 0 .095.282h.295c.017 0 .032.011.037.027a.041.041 0 0 1-.013.044l-.24.177.09.281a.039.039 0 0 1-.061.044l-.24-.172-.24.172a.039.039 0 0 1-.046 0 .041.041 0 0 1-.016-.044l.09-.281-.24-.177a.042.042 0 0 1-.012-.044.039.039 0 0 1 .037-.027h.295l.095-.282c.01-.033.063-.033.074 0zm-2.269 0 .095.282h.295c.017 0 .032.011.037.027a.04.04 0 0 1-.013.044l-.24.177.09.281a.039.039 0 0 1-.061.044l-.24-.172-.24.172a.039.039 0 0 1-.046 0 .04.04 0 0 1-.015-.044l.09-.281-.24-.177a.04.04 0 0 1-.013-.044.039.039 0 0 1 .037-.027h.304l.095-.282c.001-.033.054-.033.065 0zm4.532 0 .095.282h.295c.017 0 .032.011.037.027a.04.04 0 0 1-.013.044l-.24.177.09.281a.039.039 0 0 1-.061.044l-.24-.172-.24.172a.039.039 0 0 1-.046 0 .04.04 0 0 1-.015-.044l.09-.281-.24-.177a.04.04 0 0 1-.013-.044.039.039 0 0 1 .037-.027h.295l.095-.282c.015-.033.068-.033.074 0zM5.63 2.428l.096.282h.295c.017 0 .031.01.037.027a.041.041 0 0 1-.013.044l-.24.177.09.281a.039.039 0 0 1-.014.045c-.015.01-.034.01-.047-.002l-.24-.172-.24.172a.039.039 0 0 1-.046 0 .04.04 0 0 1-.016-.043l.09-.281-.24-.177a.039.039 0 0 1-.012-.044.038.038 0 0 1 .036-.027h.304l.096-.282c0-.033.053-.033.064 0zm-4.536 0 .095.282h.295c.017 0 .032.01.037.027a.041.041 0 0 1-.013.044l-.24.177.09.281a.039.039 0 0 1-.014.045.038.038 0 0 1-.047-.002l-.24-.172-.24.172a.039.039 0 0 1-.046 0 .04.04 0 0 1-.016-.043l.09-.281-.24-.177a.039.039 0 0 1-.012-.044.039.039 0 0 1 .037-.027h.304l.095-.282c.005-.033.053-.033.065 0zm2.27 0 .096.282h.297c.017 0 .031.01.037.027a.041.041 0 0 1-.013.044l-.24.177.09.281a.039.039 0 0 1-.014.045c-.015.01-.034.01-.047-.002l-.24-.172-.24.172a.039.039 0 0 1-.046 0 .04.04 0 0 1-.016-.043l.09-.281-.24-.177a.039.039 0 0 1-.012-.044.038.038 0 0 1 .036-.027h.295l.095-.282c.006-.033.058-.033.073 0zm4.53 0 .095.282h.295c.017 0 .032.01.037.027a.041.041 0 0 1-.013.044l-.24.177.09.281a.039.039 0 0 1-.014.045.038.038 0 0 1-.047-.002l-.24-.172-.24.172a.039.039 0 0 1-.046 0 .04.04 0 0 1-.016-.043l.09-.281-.24-.177a.039.039 0 0 1-.012-.044.039.039 0 0 1 .037-.027h.295l.095-.282c.014-.033.067-.033.074 0zm2.268 0 .096.282h.295c.017 0 .031.01.037.027a.041.041 0 0 1-.013.044l-.24.177.09.281a.039.039 0 0 1-.014.045c-.015.01-.034.01-.047-.002l-.24-.172-.24.172a.039.039 0 0 1-.046 0 .04.04 0 0 1-.016-.043l.09-.281-.24-.177a.039.039 0 0 1-.012-.044.038.038 0 0 1 .036-.027h.296l.095-.282c.014-.033.067-.033.073 0zm-3.397-.744.095.282h.295c.017 0 .032.01.037.027a.041.041 0 0 1-.013.044l-.24.177.09.281a.039.039 0 0 1-.014.045.038.038 0 0 1-.047-.002l-.24-.172-.24.172a.039.039 0 0 1-.046 0 .04.04 0 0 1-.016-.043l.09-.281-.24-.177a.042.042 0 0 1-.012-.044.039.039 0 0 1 .037-.027h.295l.095-.282c.01-.038.063-.038.074 0zm-2.269 0 .095.282h.295c.017 0 .032.01.037.027a.04.04 0 0 1-.013.044l-.24.177.09.281a.039.039 0 0 1-.014.045.038.038 0 0 1-.047-.002l-.24-.172-.24.172a.039.039 0 0 1-.046 0 .038.038 0 0 1-.015-.043l.098-.28-.24-.177a.04.04 0 0 1-.013-.044.04.04 0 0 1 .037-.027h.296l.095-.281c.001-.04.054-.04.065-.002zm-2.268 0 .095.282h.295c.017 0 .032.01.037.027a.04.04 0 0 1-.013.044l-.24.177.09.281a.039.039 0 0 1-.014.045.038.038 0 0 1-.047-.002l-.24-.172-.24.172a.039.039 0 0 1-.046 0 .038.038 0 0 1-.015-.043l.098-.28-.24-.177a.04.04 0 0 1-.013-.044.04.04 0 0 1 .037-.027h.296l.095-.281c.006-.04.054-.04.065-.002zm6.782-.032a.038.038 0 0 1 .018.032l.095.282h.295c.017 0 .032.01.037.027a.04.04 0 0 1-.013.044l-.24.177.09.281a.039.039 0 0 1-.014.045.038.038 0 0 1-.047-.002l-.24-.172-.24.172a.039.039 0 0 1-.046 0 .038.038 0 0 1-.015-.043l.09-.281-.24-.177a.04.04 0 0 1-.013-.044.039.039 0 0 1 .037-.027h.295l.095-.282c0-.013.007-.025.019-.032a.04.04 0 0 1 .037 0zM1.094.97l.095.281h.295a.04.04 0 0 1 .037.028.041.041 0 0 1-.013.044l-.24.176.09.282a.04.04 0 0 1-.014.045.038.038 0 0 1-.047-.002l-.24-.172-.24.172a.039.039 0 0 1-.046 0 .04.04 0 0 1-.016-.043l.099-.28-.24-.177C.6 1.313.595 1.295.6 1.28a.039.039 0 0 1 .037-.027h.296L1.029.97c.005-.04.053-.04.065-.001zm2.268 0 .095.281h.295a.04.04 0 0 1 .037.028.041.041 0 0 1-.013.044l-.24.176.09.282a.04.04 0 0 1-.014.045.038.038 0 0 1-.047-.002l-.24-.172-.24.172a.039.039 0 0 1-.046 0 .04.04 0 0 1-.016-.043l.099-.28-.24-.177a.038.038 0 0 1-.013-.044.039.039 0 0 1 .037-.027h.296L3.297.97c0-.04.053-.04.065-.001zm2.268 0 .096.281h.295c.017 0 .031.012.037.028a.041.041 0 0 1-.013.044l-.24.176.09.282a.04.04 0 0 1-.014.045c-.015.01-.034.01-.047-.002l-.24-.172-.24.172a.039.039 0 0 1-.046 0 .04.04 0 0 1-.016-.043l.09-.282-.24-.176a.039.039 0 0 1-.012-.044.04.04 0 0 1 .036-.028h.304L5.566.97c0-.039.053-.039.064 0zM7.875.937a.037.037 0 0 1 .019.032l.095.281h.295a.04.04 0 0 1 .037.028.041.041 0 0 1-.013.044l-.24.176.09.282a.04.04 0 0 1-.014.045.038.038 0 0 1-.047-.002l-.24-.172-.24.172a.039.039 0 0 1-.046 0 .04.04 0 0 1-.016-.043l.09-.282-.24-.176a.039.039 0 0 1-.012-.044.041.041 0 0 1 .037-.028h.295L7.82.97c0-.013.007-.025.018-.032a.035.035 0 0 1 .037 0zm2.254.006c.016 0 .03.01.033.026l.096.281h.295c.017 0 .031.012.037.028a.041.041 0 0 1-.013.044l-.24.176.09.282a.04.04 0 0 1-.014.045c-.015.01-.034.01-.047-.002l-.24-.172-.24.172a.039.039 0 0 1-.046 0 .04.04 0 0 1-.016-.043l.098-.28-.24-.177a.039.039 0 0 1-.012-.044.038.038 0 0 1 .036-.027h.296l.095-.282a.034.034 0 0 1 .032-.027z" mask="url(#b)"/><rect width="23" height="15" x=".5" y=".5" stroke="#000" stroke-opacity=".04" mask="url(#b)" rx="1"/></g><rect width="23" height="15" x="8.5" y="8.5" stroke="#000" stroke-opacity=".04" rx="2"/></g></svg>