<svg xmlns="http://www.w3.org/2000/svg" width="72" height="72" viewBox="0 0 72 72">
    <g fill="none" fill-rule="evenodd">
        <path fill="#333" d="M18 28.733v-4.394h1.541c.427-.029.852.078 1.215.304.278.214.431.55.41.9.003.2-.054.395-.162.563-.113.167-.277.293-.467.36.213.048.402.17.534.343.134.182.204.404.197.63.03.365-.122.722-.405.956-.327.234-.723.351-1.125.332L18 28.733zm.906-1.913v1.187h.782c.18.011.357-.043.5-.152.121-.106.187-.261.18-.422.017-.169-.044-.336-.166-.456-.12-.119-.29-.176-.458-.157h-.838zm0-.641h.669c.456 0 .686-.186.686-.563.016-.162-.049-.322-.174-.427-.167-.107-.365-.155-.563-.135h-.63l.012 1.125zm5.523 1.648h-1.603l-.298.905h-.962l1.632-4.393h.843l1.643 4.394h-.934l-.32-.906zm-1.366-.731h1.125l-.563-1.648-.563 1.648zm6.592 1.637h-.894L27 25.84v2.892h-.906v-4.394H27l1.766 2.897V24.34h.9l-.011 4.394zM31.837 27l-.472.506v1.255h-.906v-4.422h.906v1.992l.4-.563 1.124-1.445h1.125l-1.558 1.951 1.603 2.442h-1.096L31.836 27zm7.212-1.901h-1.361v3.662h-.89v-3.69h-1.327v-.732h3.578v.76zm2.143 2.053H40.5v1.609h-.934v-4.422h1.631c.43-.027.856.096 1.204.35.287.24.443.603.422.978.037.537-.28 1.036-.782 1.232l.95 1.788v.04h-.972l-.827-1.575zm-.692-.76h.731c.192.013.382-.05.529-.174.127-.125.195-.3.186-.478.011-.18-.052-.357-.175-.49-.154-.135-.358-.2-.562-.18H40.5v1.322zm5.524 1.435h-1.62l-.298.905h-.962l1.631-4.393h.844l1.631 4.394h-.95l-.276-.906zm-1.345-.731h1.125l-.562-1.648-.563 1.648zm6.565 1.637h-.906l-1.76-2.892v2.892h-.906v-4.394h.906l1.766 2.897V24.34h.9v4.394zm3.071-1.125c.01-.154-.058-.301-.18-.394-.202-.128-.422-.225-.652-.287-.257-.077-.506-.179-.743-.304-.443-.182-.739-.607-.754-1.085-.003-.229.068-.452.203-.636.144-.195.338-.346.562-.439.269-.107.555-.16.844-.157.289-.006.575.054.838.174.229.104.424.27.563.478.136.211.206.458.202.709h-.906c.011-.178-.059-.352-.19-.473-.16-.125-.362-.183-.563-.163-.183-.01-.364.037-.518.135-.118.086-.188.225-.185.372.002.15.086.288.219.36.198.12.412.21.636.27.412.1.797.292 1.125.562.235.221.364.532.354.855.014.352-.148.688-.433.894-.342.235-.751.35-1.165.327-.317.003-.631-.06-.922-.186-.255-.106-.475-.282-.636-.506-.147-.222-.223-.483-.219-.748h.968c0 .483.286.725.866.725.178.01.355-.035.506-.13.129-.09.198-.242.18-.398v.045zm4.185-.67h-1.738v1.795h-.906v-4.394h2.858v.732h-1.952v1.125H58.5v.742zm3.375-.107h-1.744v1.176h2.042v.726h-2.947v-4.394h2.941v.732h-2.036v1.051h1.744v.71zm2.458.293h-.72v1.609h-.905v-4.394h1.63c.43-.027.856.096 1.205.35.286.24.442.603.421.978.011.263-.055.523-.19.748-.142.208-.336.375-.563.484l.916 1.788v.04h-.973l-.82-1.603zm-.72-.732h.731c.193.013.382-.05.53-.174.127-.125.194-.3.185-.478.011-.18-.052-.357-.175-.49-.154-.135-.358-.2-.562-.18h-.726l.017 1.322z" transform="translate(2.813 24.75)"/>
        <path fill="#A8E900" d="M54.22.259l11.593 10.057c.194.166.306.409.306.664 0 .255-.112.498-.306.664l-11.6 9.855c-.264.218-.63.264-.94.117-.31-.147-.507-.46-.505-.803V.916c.002-.342.203-.652.515-.793.312-.142.677-.09.936.135z" transform="translate(2.813 24.75)"/>
        <path fill="#0C8A31" d="M45.5 7.51V1.58c.001-.337.196-.643.501-.787.307-.145.67-.101.934.113L58.5 10.4c.2.169.315.418.315.68 0 .265-.12.515-.326.68l-11.565 9.305c-.263.208-.622.249-.925.104-.302-.145-.496-.45-.498-.785v-5.198L.248 16.791V5.062L45.5 7.492v.017z" transform="translate(2.813 24.75)"/>
        <path fill="#FFF" fill-rule="nonzero" d="M17.106 15.412l.033-.073c.327-.787.441-1.646.332-2.492h2.149v-2.649h-3.156c-.703-1.305-.562-2.25-.19-2.616.483-.562 1.687-.725 3.627.405l.422.242V5.243l-.163-.074c-.883-.406-1.84-.626-2.813-.646-1.095-.017-2.146.433-2.89 1.237-.985 1.091-1.25 2.728-.738 4.438h-1.276v2.65h2.486c.12.467.09.961-.085 1.411-.23.563-.68 1.153-2.12 1.153h-.281v2.65h8.876v-2.65h-4.213z" transform="translate(2.813 24.75)"/>
        <path fill="#0C8A31" fill-rule="nonzero" d="M21.758 18.5h-9.754v-3.52h.72c1.175 0 1.518-.434 1.715-.895.101-.254.142-.527.118-.799H12.01V9.76h1.125c-.387-1.503-.025-3.102.973-4.292.828-.893 1.994-1.396 3.212-1.383 1.04.018 2.065.251 3.01.686l.422.191V9l-1.064-.636C18 7.37 16.954 7.476 16.6 7.875c-.23.259-.326.906.141 1.884h3.324v3.527h-2.12c.02.57-.051 1.14-.214 1.688h4.027V18.5zm-9.192-.562h8.629v-2.396h-4.264l.146-.383c.258-.677.356-1.405.287-2.126v-.31h2.16v-2.401h-3.138l-.073-.152c-.563-1.125-.625-2.12-.13-2.672.692-.748 2.087-.607 3.786.377l.23.14V5.328l-.09-.045c-.866-.408-1.81-.625-2.767-.636-1.064-.016-2.085.417-2.813 1.193-.941 1.158-1.23 2.716-.765 4.134l.096.349h-1.294v2.402h2.464l.045.23c.092.453.048.922-.124 1.35-.365.855-1.052 1.238-2.25 1.238h-.157l.022 2.396z" transform="translate(2.813 24.75)"/>
        <path fill="#FFF" d="M7.357 4.54h-1.8v1.58c-1.81.383-2.851 1.17-3.11 2.374-.196 1.154.361 2.307 1.39 2.869.918.467 1.881.844 2.874 1.125 1.125.354 1.636.838 1.558 1.44-.085.714-.743 1.068-1.969 1.057-1.055-.111-2.062-.5-2.92-1.125l-1.237 1.328c.337.456.8.802 1.333.995.663.288 1.364.477 2.082.563v1.558h1.861v-1.57c1.446-.27 2.402-.9 2.875-1.873.461-1.072.388-1.937-.22-2.593-.648-.679-1.468-1.169-2.373-1.417l-1.452-.422c-.405-.138-.785-.342-1.125-.602-.686-.703-.562-1.305.36-1.794 1.17-.456 2.442-.242 3.803.64l1.03-1.36c-.603-.681-1.593-1.07-2.96-1.16V4.54z" transform="translate(2.813 24.75)"/>
        <path fill="#FFF" fill-rule="nonzero" d="M7.723 18.563H5.3v-1.598c-.664-.1-1.311-.289-1.924-.563-.588-.217-1.094-.61-1.451-1.125l-.118-.19 1.546-1.598.197.123c.818.585 1.774.947 2.773 1.052h.057c1.53 0 1.603-.613 1.631-.81.056-.45-.405-.832-1.367-1.125-1.02-.286-2.007-.676-2.947-1.164-1.123-.61-1.735-1.867-1.525-3.127.276-1.283 1.322-2.138 3.105-2.56v-1.62H7.64v1.62c1.084.026 2.117.467 2.885 1.232l.152.169-1.26 1.755-.225-.147C7.875 8.05 6.75 7.875 5.625 8.274c-.242.13-.563.355-.613.625 0 .277.13.539.349.709.305.24.647.43 1.012.562l1.423.41c.952.263 1.815.778 2.498 1.491.692.748.782 1.722.275 2.903-.489 1.012-1.445 1.687-2.852 1.991l.006 1.598zM5.856 18H7.16v-1.519l.225-.045c1.35-.253 2.25-.832 2.677-1.687.428-.855.354-1.688-.174-2.284-.615-.642-1.393-1.105-2.25-1.339l-1.452-.438c-.44-.154-.854-.38-1.22-.67-.34-.303-.514-.75-.467-1.204.125-.48.472-.87.934-1.051 1.295-.466 2.735-.275 3.864.511l.653-.961C9.21 6.72 8.289 6.4 7.34 6.407h-.265V4.82H5.84v1.53l-.225.045c-1.688.36-2.655 1.063-2.891 2.16-.175 1.04.335 2.075 1.265 2.57.9.463 1.842.84 2.813 1.125 1.26.4 1.85.985 1.755 1.738-.107.867-.844 1.305-2.194 1.305h-.056c-1.03-.089-2.019-.44-2.875-1.018l-.922.912c.304.313.672.557 1.08.714.635.286 1.31.476 2.002.562l.248.034L5.856 18z" transform="translate(2.813 24.75)"/>
        <path fill="#0C8A31" fill-rule="nonzero" d="M8.156 18.996h-3.29v-1.688c-.57-.112-1.127-.285-1.66-.517-.668-.245-1.245-.69-1.653-1.272l-.304-.472 2.036-2.11.495.316c.75.543 1.628.883 2.548.984h.05c.76 0 1.16-.146 1.193-.428 0-.146-.247-.405-1.068-.663-1.054-.296-2.074-.702-3.044-1.21-1.264-.727-1.938-2.168-1.687-3.605.292-1.373 1.333-2.312 3.094-2.813V3.82h3.24v1.688c1.054.098 2.04.568 2.778 1.327l.377.434-1.687 2.379-.563-.371c-1.153-.748-2.2-.951-3.11-.602-.35.191-.383.292-.388.31-.006.016 0 .09.224.325.26.178.54.325.833.44l1.423.41c1.027.283 1.958.839 2.694 1.608.81.872.929 2.042.35 3.376-.569 1.1-1.601 1.887-2.813 2.143l-.068 1.71zm-2.734-.563H7.6v-1.586l.214-.05c1.126-.189 2.102-.886 2.644-1.89.484-1.126.405-2.065-.248-2.768-.663-.695-1.503-1.197-2.43-1.451l-1.457-.422c-.37-.138-.718-.327-1.035-.563-.247-.197-.388-.499-.382-.816.05-.337.388-.562.709-.725 1.125-.433 2.334-.214 3.645.635l.13.08 1.124-1.581-.079-.096c-.714-.709-1.666-1.127-2.671-1.176h-.248V4.382H5.4V5.99l-.208.05C3.504 6.463 2.548 7.28 2.295 8.46c-.207 1.217.377 2.433 1.457 3.032.93.471 1.904.848 2.908 1.125.383.118 1.553.49 1.457 1.265-.118.94-1.4.923-1.817.923-1.015-.108-1.984-.478-2.813-1.074l-.112-.045-1.412 1.462.062.101c.35.483.832.852 1.39 1.063.56.247 1.15.422 1.754.524l.237.039.017 1.558z" transform="translate(2.813 24.75)"/>
        <path fill="#FFF" fill-rule="nonzero" d="M32.029 17.494l-.304-1.451c-.028-.16-.122-.298-.259-.383-.146-.09-.326-.102-.483-.034l-.113.034-.343.079c-.175 0-.343.05-.523.067-.107.006-.214.006-.32 0-.637.001-1.258-.195-1.778-.562-.43-.306-.78-.711-1.018-1.181h2.924c.131 0 .258-.048.355-.136.097-.084.163-.199.185-.326l.209-1.03c.039-.166 0-.343-.107-.477-.106-.135-.268-.213-.439-.214h-3.707v-.4h3.938c.282.02.53-.185.562-.466l.208-1.04c.032-.161-.007-.327-.107-.457-.097-.149-.266-.236-.444-.23h-3.6c.243-.449.588-.834 1.007-1.125.525-.365 1.149-.561 1.789-.563l.478.034.641.107c.152.054.32.035.456-.05.124-.078.212-.202.247-.344l.371-1.468c.035-.147.013-.302-.061-.433-.082-.12-.2-.211-.338-.259-.571-.148-1.16-.222-1.75-.22-1.316-.009-2.598.425-3.639 1.233-1.006.77-1.753 1.83-2.137 3.037h-.636c-.155 0-.304.062-.41.175-.104.107-.16.25-.158.399v1.035c0 .31.252.563.563.563h.28v.399h-.28c-.15 0-.295.061-.4.169-.107.107-.165.253-.163.405V13.5c0 .147.056.288.157.394.105.113.252.178.405.18h.608c.35 1.246 1.084 2.35 2.098 3.155 1.054.838 2.366 1.284 3.713 1.26.225 0 .45 0 .68-.039l.298-.045c.17 0 .332-.056.495-.096.075-.013.148-.032.22-.056l.107-.034.118-.039h.056c.266-.1.415-.382.349-.658v-.028z" transform="translate(2.813 24.75)"/>
        <path fill="#0C8A31" fill-rule="nonzero" d="M29.706 18.911c-1.445.022-2.854-.454-3.988-1.35-.995-.794-1.74-1.858-2.144-3.065h-.292c-.272-.002-.53-.116-.715-.315-.18-.188-.28-.438-.28-.698v-1.035c0-.262.1-.514.28-.703l.074-.067-.08-.074c-.178-.192-.277-.446-.275-.708V9.855c-.003-.261.096-.513.276-.703.185-.197.444-.309.714-.31h.349c.434-1.169 1.191-2.19 2.183-2.947 1.114-.869 2.49-1.333 3.903-1.316.63-.005 1.259.074 1.868.236.53.145.843.69.703 1.22l-.366 1.446c-.055.26-.216.487-.444.625-.231.151-.519.19-.782.107l-.563-.102-.438-.028h-.045c-.534 0-1.055.16-1.496.461-.133.089-.257.189-.372.298h2.717c.3.007.582.145.77.378.189.233.265.537.209.832l-.203 1.035c-.044.31-.234.58-.511.726l.044.056c.168.236.23.531.175.815l-.203 1.013c-.096.457-.494.788-.962.799h-2.098c.137.145.288.277.45.393.45.329.995.503 1.553.495h.253c.158 0 .315-.022.473-.067l.163-.034.202-.045c.29-.123.62-.1.889.062.237.146.402.385.456.658l.303 1.446c.056.238.022.488-.095.703-.123.224-.323.396-.563.484l-.163.05h-.068l-.27.068c-.174.04-.343.073-.517.101l-.315.045c-.27.04-.517.05-.76.056zm-5.93-4.978h.209l.062.197c.353 1.178 1.058 2.22 2.02 2.987 1.033.816 2.316 1.251 3.633 1.232.225 0 .45 0 .675-.04l.293-.045c.163 0 .326-.056.489-.09l.202-.056.118-.034.096-.033c.124-.03.23-.11.293-.22.052-.096.066-.209.039-.315l-.304-1.457c-.02-.12-.092-.227-.197-.292-.114-.06-.25-.06-.365 0l-.287.079-.208.045c-.175 0-.349.056-.523.067-.175.011-.225 0-.338 0-.665-.002-1.312-.212-1.85-.602-.369-.264-.68-.598-.917-.984l-.265-.428h3.162c.21-.005.386-.158.421-.365l.208-1.024c.028-.129.002-.263-.073-.371-.083-.109-.211-.173-.348-.175h-3.825v-.658h4.078c.22.01.41-.152.433-.371l.202-1.04c.027-.127-.003-.26-.084-.36-.079-.111-.207-.176-.343-.175h-3.864l.298-.439c.236-.349.535-.65.883-.888.553-.372 1.206-.568 1.873-.563l1.125.14c.116.053.25.053.366 0 .1-.06.168-.16.19-.275l.372-1.457c.036-.116.024-.241-.035-.347-.058-.106-.157-.184-.274-.215-.579-.15-1.175-.222-1.772-.214-1.269 0-2.502.42-3.505 1.198-.957.735-1.676 1.737-2.064 2.88l-.067.186h-.72c-.12-.008-.238.042-.316.135-.08.084-.125.197-.123.315v1.046c0 .117.044.23.123.315.082.083.193.132.31.135h.41v.647h-.41c-.116.001-.225.05-.304.135-.083.083-.13.197-.13.315V13.5c0 .115.045.226.125.31.079.087.19.138.309.14h.495v-.017z" transform="translate(2.813 24.75)"/>
        <path fill="#FFF" fill-rule="nonzero" d="M43.313 5.304c-.095-.174-.275-.285-.473-.292h-1.62c-.227-.003-.431.14-.506.354l-1.626 3.938-.225.562c-.09-.225-.163-.4-.225-.528l-1.834-3.972c-.09-.194-.281-.32-.495-.326h-1.648c-.21.003-.4.122-.495.31-.09.176-.09.385 0 .562l2.52 4.984h-1.355c-.153-.002-.3.064-.4.18-.1.108-.155.251-.152.399v.973c-.003.148.051.292.152.4.109.104.25.167.4.18h2.165v.224h-2.165c-.152.004-.296.069-.4.18-.102.11-.157.256-.152.405v.957c-.005.15.05.295.152.405.103.108.245.17.394.174h2.171v2.813c-.004.15.053.296.158.405.1.113.243.179.393.18h1.469c.153-.001.3-.069.399-.186.097-.11.151-.252.152-.4v-2.812h2.182c.15.002.293-.06.394-.169.106-.11.163-.258.158-.41v-.957c.004-.145-.049-.286-.147-.393-.1-.119-.249-.187-.405-.186h-2.182v-.23h2.182c.15-.004.291-.067.394-.175.105-.108.161-.254.158-.405v-1.012c.005-.148-.047-.29-.147-.4-.1-.118-.249-.186-.405-.185h-1.372l2.435-4.995c.09-.173.09-.379 0-.552z" transform="translate(2.813 24.75)"/>
        <path fill="#0C8A31" fill-rule="nonzero" d="M39.516 19.125h-1.463c-.27-.001-.527-.11-.714-.304-.182-.193-.28-.45-.276-.714V15.75h-1.732c-.268 0-.524-.11-.71-.304-.185-.19-.286-.448-.28-.714v-.956c-.003-.259.094-.508.27-.698-.18-.19-.277-.442-.27-.703v-.945c-.004-.257.093-.505.27-.692.18-.208.444-.327.72-.326H36l-2.25-4.36c-.143-.296-.143-.642 0-.939.16-.338.498-.556.872-.562h1.654c.382-.002.73.217.894.562l1.648 3.566 1.457-3.51c.138-.385.507-.639.917-.63h1.62c.358 0 .686.197.855.512.163.291.175.643.034.945l-2.155 4.377h.67c.277.001.54.12.725.326.174.188.268.436.265.692v.973c.003.256-.091.503-.265.692.173.19.268.44.265.697v.956c.005.267-.096.524-.282.715-.183.193-.437.303-.703.303H40.5v2.357c0 .258-.096.507-.27.698-.178.211-.438.336-.714.343zm-4.185-3.938h2.295v2.92c-.007.121.038.24.123.326.08.083.19.13.304.13h1.463c.115-.002.225-.05.303-.136.078-.086.122-.198.124-.314v-2.925h2.306c.115 0 .225-.046.304-.13.083-.085.128-.201.124-.32v-.945c.005-.193-.113-.366-.293-.434l-.686-.264.692-.264c.177-.067.292-.239.287-.428v-.973c.001-.116-.041-.228-.118-.315-.08-.088-.191-.14-.31-.14h-1.575l2.548-5.17c.074-.137.074-.302 0-.439-.07-.137-.211-.223-.365-.225H41.22c-.172-.003-.328.103-.388.265l-1.958 4.77-.348-.81-1.829-3.972c-.068-.153-.22-.252-.388-.253h-1.653c-.153 0-.294.085-.366.22-.07.141-.07.308 0 .45l2.616 5.163H35.33c-.117 0-.228.052-.304.141-.081.085-.126.198-.124.315v.973c-.004.19.114.363.293.428l.686.264-.686.264c-.175.07-.29.24-.293.428v.962c-.003.12.041.238.124.326.079.083.189.13.304.13v-.018z" transform="translate(2.813 24.75)"/>
    </g>
</svg>
