<svg id="Layer_1" data-name="Layer 1" xmlns="http://www.w3.org/2000/svg" viewBox="0 0 160 80"><defs><style>.cls-1{fill:#85acb0;}</style></defs><path class="cls-1" d="M80.27.07a2.92,2.92,0,0,0-1.21,2.26.78.78,0,0,1-.07.34c-.07.1-.08.21,0,.67a2.79,2.79,0,0,0,.84,2A1.39,1.39,0,0,1,80.08,7a4.32,4.32,0,0,1-.5,1c-.11.14-.07.18-.65-.58-.39-.51-.44-.58-.44-.76a8.09,8.09,0,0,0-.29-1.72,2.22,2.22,0,0,0-.8-.81c-.12-.06-.44-.2-.71-.3l-.49-.19-.09-.24a3.31,3.31,0,0,0-1.43-1.51A1.16,1.16,0,0,0,74,1.65c-.38,0-.54.08-.65.33l-.09.19h-.46c-.43,0-.47,0-.65.12a1.15,1.15,0,0,0-.44.91,3.28,3.28,0,0,1-.07.39l-.33.06A1.49,1.49,0,0,0,70,5.17a.83.83,0,0,0,.1.6l.12.22-.09.21a1.13,1.13,0,0,0-.08.84,1.27,1.27,0,0,0,1.15.89.92.92,0,0,1,.41.13,2.7,2.7,0,0,1,.25.48c.24.58.38.79.61.93a3.29,3.29,0,0,0,2,.18,2.07,2.07,0,0,0,1-.54l.24-.24.34.05A2.34,2.34,0,0,0,77,8.81a2.73,2.73,0,0,0,.7-.69L77.87,8l.28.3a2.37,2.37,0,0,1,.63,1c.06.26.07.23-.4,1.5a2.52,2.52,0,0,0-.2.85l0,.37-.28,0a3.22,3.22,0,0,0-.68,0c-.35.05-.42.05-.51,0l-.35-.24A3.8,3.8,0,0,0,74,11.29c-.61.05-.91.15-1,.35s-.07.16,0,.34a.58.58,0,0,1,0,.25,4.85,4.85,0,0,1-.41.26A2.15,2.15,0,0,0,71.38,14a.4.4,0,0,0,.34.5l.2,0-.13.33A1.57,1.57,0,0,0,71.62,16a.76.76,0,0,0,1,.57.92.92,0,0,0,.58-.29l.09-.1.11.22c.13.27.2.27.64.05a2.12,2.12,0,0,0,.63-.47c.29-.3.3-.3.39-.21.26.26.91.11,1.4-.34A2,2,0,0,0,77,14.27c.08-.29.17-.58.19-.63.18-.33.68-.3,1,.07s1.75,3.09,1.75,3.19-.82.06-1.81.07c-2.59.05-5.8.16-6.14.23a1.59,1.59,0,0,0-1.35,1.33,1.66,1.66,0,0,0,.93,1.77c.25.12.31.13.93.13.37,0,1.5,0,2.52-.07,2.52-.1,8.87-.1,11.24,0,1,0,2,.07,2.38.07.61,0,.65,0,.91-.14a1.9,1.9,0,0,0,.85-.92,1.89,1.89,0,0,0,0-1.24,1.78,1.78,0,0,0-1-.9c-.24-.08-2.14-.17-4.84-.23-1.57,0-2.48-.08-2.54-.11a6,6,0,0,1-1.18-1.47,9.64,9.64,0,0,1-.57-.91.35.35,0,0,1,0-.24,3.9,3.9,0,0,1,1.69-1.38c.08,0,.09.06.12.77a2.75,2.75,0,0,0,.4,1.68,3.48,3.48,0,0,0,1,1.05c.21,0,.54-.42.65-.84l.06-.2.41.42a2.63,2.63,0,0,0,1.44.82,4.84,4.84,0,0,0,1.75.13,2.27,2.27,0,0,0-.07-1.09,1.05,1.05,0,0,1,0-.27s.4.05.86.13a4.38,4.38,0,0,0,1.8.13c.16,0,.19-.08.17-.19a4.22,4.22,0,0,0-.52-1.26l-.23-.34s.1-.07.24-.11a1.88,1.88,0,0,0,1-.74c.24-.35.26-.55.07-.7a7.15,7.15,0,0,0-.67-.4,3.81,3.81,0,0,0-2.11-.54l-.8,0a2.36,2.36,0,0,1,.1-.26,1.06,1.06,0,0,0,0-.9A4.45,4.45,0,0,0,85.57,10a3.56,3.56,0,0,0-1.84.34,3.47,3.47,0,0,0-1.16.88c-.26.3-.26.3-1,.55a4.73,4.73,0,0,0-1.44.69l-.22.17v-.58c0-1.3.36-2,1.26-2.4A5.93,5.93,0,0,0,82.76,9a.48.48,0,0,0,.06-.65l-.09-.11L83,8.05A.66.66,0,0,1,83.4,8a1.52,1.52,0,0,1,.46.46,4.09,4.09,0,0,0,.57.59,3.67,3.67,0,0,0,1.93.59,2.11,2.11,0,0,1,.52.07,1.84,1.84,0,0,0,2-.69A1.33,1.33,0,0,0,89,8.45l0-.29.27-.06a1.17,1.17,0,0,0,1-1.58.76.76,0,0,1,0-.57,2.16,2.16,0,0,0-.44-2.05,1.08,1.08,0,0,0-.86-.4h-.26l0-.4A1.54,1.54,0,0,0,88.4,2a1.17,1.17,0,0,0-1-.41,2.65,2.65,0,0,0-2,1.23,3.28,3.28,0,0,1-.68.71A4.45,4.45,0,0,0,83.05,6.2c-.12.48-.17.63-.28.74s-.31.21-.43,0-.45-.33-.87-.21a.46.46,0,0,1-.2,0,3,3,0,0,1,.29-.48A4.26,4.26,0,0,0,82.49,4c.07-.66-.08-1.75-.25-1.72s-.1-.08-.15-.27a5.56,5.56,0,0,0-.7-1.37c-.4-.61-.71-.78-1.12-.6Zm.56.32a5.26,5.26,0,0,1,1,1.59.63.63,0,0,1-.08.75,2.41,2.41,0,0,0-.25.37c0,.09-.08.16-.1.15s-.17-.18-.36-.4a1.83,1.83,0,0,0-.39-.39.58.58,0,0,0-.2.11,1,1,0,0,0-.27.57l0,.13-.23-.21a2.13,2.13,0,0,0-.38-.3c-.2-.11-.23-.23-.15-.65A2.94,2.94,0,0,1,79.93.72c.34-.42.65-.54.9-.33ZM74.56,2.05a3.14,3.14,0,0,1,1.09,1,1.12,1.12,0,0,1,.25.68,6.11,6.11,0,0,0,.13.7,1.48,1.48,0,0,1,.07.36,1.63,1.63,0,0,1-.41-.06,2,2,0,0,0-1,0l-.14,0,.13.35a2.49,2.49,0,0,0,.52.93l.16.18-.21.13a4.57,4.57,0,0,0-1,1.13.24.24,0,0,0,0,.19,1.37,1.37,0,0,0,.87.16h.44v.45c0,.44,0,.44-.19.62a2.2,2.2,0,0,1-1.07.52,2.86,2.86,0,0,1-1.54-.24c-.15-.1-.2-.18-.59-1a1.38,1.38,0,0,0-.25-.4,3.23,3.23,0,0,0-.48-.11,1,1,0,0,1-.87-.54.86.86,0,0,1,0-.85L70.52,6l-.15-.3a1,1,0,0,1,0-1,1.16,1.16,0,0,1,1.14-.85c.52,0,.49,0,.51-.49s.16-.82.38-.93a.78.78,0,0,1,.52,0c.47,0,.59,0,.71-.28a.59.59,0,0,1,.15-.23A1.33,1.33,0,0,1,74.56,2.05ZM87.88,2a1.1,1.1,0,0,1,.57.67,1.52,1.52,0,0,1,.06.69l0,.44h.4a2.23,2.23,0,0,1,.56.06A1.57,1.57,0,0,1,90.19,5c.06.34.06.33-.14,1.08a.69.69,0,0,0,0,.37,1.39,1.39,0,0,1,0,.87,1.35,1.35,0,0,1-.8.49c-.45.08-.49.11-.5.52a.79.79,0,0,1-.16.53,1.71,1.71,0,0,1-.77.51,1.48,1.48,0,0,1-1.11-.12,2.41,2.41,0,0,1-.09-.55A4,4,0,0,0,86.47,8l-.1-.28.31-.31a1.1,1.1,0,0,0,.39-.56c.13-.46,0-.58-.54-.64l-.32,0,.16-.32a2.29,2.29,0,0,0,.24-1.2V4.27h-.25a2.29,2.29,0,0,0-.49.11c-.31.13-.32.13-.29,0a3.45,3.45,0,0,0,0-.56c0-.35,0-.43,0-.59a2,2,0,0,1,.7-.85A1.74,1.74,0,0,1,87.88,2Zm-5.69,1.8A3.5,3.5,0,0,1,81.43,6a4.79,4.79,0,0,0-.65,1.27,3.12,3.12,0,0,1-.23.54,2.79,2.79,0,0,1-.71.76s-.09-.05-.13-.1,0-.12.16-.43a2.63,2.63,0,0,0,.5-2.32A4.16,4.16,0,0,0,80,5.12,2.64,2.64,0,0,1,79.31,4a3.7,3.7,0,0,1,0-1,1.34,1.34,0,0,1,.22.12,2,2,0,0,1,.59.77l.13.26L80.29,4a4,4,0,0,0,.11-.55,3.22,3.22,0,0,1,.1-.51l0-.13.23.26a2.62,2.62,0,0,1,.37.6l.13.33.13-.16a2.94,2.94,0,0,0,.23-.44,1.72,1.72,0,0,1,.3-.47l.18-.19,0,.21a4.82,4.82,0,0,1,0,.85Zm3-.06a2.91,2.91,0,0,1,0,.5A1.3,1.3,0,0,1,85,5a1.38,1.38,0,0,0-.18.41,3.37,3.37,0,0,0,.46-.34,2,2,0,0,1,.93-.51c.11,0,.11,0,.08.37A1.88,1.88,0,0,1,85.89,6c-.25.31-.51.74-.45.74a1.53,1.53,0,0,0,.3-.15c.22-.14.26-.15.64-.14a1.4,1.4,0,0,1,.45.06s0,.13-.1.31a1.21,1.21,0,0,1-.74.62.23.23,0,0,0-.13,0,2,2,0,0,0,.16.26,2,2,0,0,1,.32,1.15c0,.39,0,.39-.12.39A3.85,3.85,0,0,1,85,9a2.36,2.36,0,0,1-1-.84c-.47-.6-.63-.64-1.35-.27a3.29,3.29,0,0,1-.51.23,1.14,1.14,0,0,0-.19.11,2,2,0,0,1-.63.35,6.22,6.22,0,0,1,1.24-1.2c.46-.22.54-.34.72-1a3.93,3.93,0,0,1,1.3-2.26,4.33,4.33,0,0,1,.54-.48s0,.06.07.13Zm-8.54.34a2.3,2.3,0,0,1,1,.65c.22.25.29.46.41,1.23.07.44.08.56,0,.7s-.06.17.17.44a9,9,0,0,1,.92,1.26c.5.82.81.72,1.66-.55a2.87,2.87,0,0,1,.59-.74.62.62,0,0,1,.52,0c.16.12,0,.31-.44.79a2.12,2.12,0,0,0-.52.62c-.19.55.18.61.91.15.31-.18.37-.21.49-.17s.18.24,0,.37a4.88,4.88,0,0,1-.76.35c-1.11.45-1.34.59-1.63,1a3.09,3.09,0,0,0-.43,1.7,9.68,9.68,0,0,0,0,1.17c0,.39,0,.39.16.39s.14,0,.19-.21c.11-.44.58-.76,1.66-1.16.39-.15.54-.19.68-.16s.17,0,.34-.25a3.08,3.08,0,0,1,1.77-1.27,12,12,0,0,1,2.37-.09l.51,0v.22a1.55,1.55,0,0,1-.44.94,2.84,2.84,0,0,1-.38.27c-.21.12-.22.14-.17.24s.09.12.13.12a2.58,2.58,0,0,0,.45-.25l.38-.25h.79a3.21,3.21,0,0,1,2,.42c.87.44.83.4.69.66a1.5,1.5,0,0,1-.7.64,6.43,6.43,0,0,1-1.23.23,1.36,1.36,0,0,0,.31.23,4.18,4.18,0,0,1,.49.36,4.23,4.23,0,0,1,.51,1.08c0,.13-.29.14-1,0-1.13-.17-1.5-.28-1.72-.51s-.16-.13-.28,0-.08.07,0,.29a4.13,4.13,0,0,1,.34,1.15c0,.3,0,.31-.65.25a2.93,2.93,0,0,1-2.41-1.26c-.37-.47-.52-.63-.52-.56s0,.27-.07.55a1.49,1.49,0,0,1-.18.68c-.16.23-.23.24-.39.06a3,3,0,0,1-.93-2.5l0-.92h-.12a.29.29,0,0,0-.19,0,.17.17,0,0,1-.13.08c-.52,0-2,1.36-2,1.84a7.35,7.35,0,0,0,1.25,2l.37.49H80.27l-.61-1.15c-1.15-2.15-1.32-2.42-1.67-2.56a1,1,0,0,0-.77,0c-.21.14-.32.32-.44.83a2.08,2.08,0,0,1-.51,1.1,1.74,1.74,0,0,1-.79.42c-.21,0-.3-.07-.34-.41,0-.17,0-.28-.09-.28s-.29.25-.35.46-.83,1-1,.89a.81.81,0,0,1-.16-.52c0-.07,0-.13-.05-.13a.59.59,0,0,0-.41.33.73.73,0,0,1-.66.35.38.38,0,0,1-.34-.11c-.3-.31-.21-.91.24-1.64.12-.19.12-.2,0-.25a.83.83,0,0,0-.26,0c-.42,0-.5-.16-.29-.57s.53-.7,1.32-1.13c.23-.13.36-.22.33-.26l-.15-.21c-.21-.29,0-.4.73-.47a4.23,4.23,0,0,1,1.54.11,2,2,0,0,1,.81.42c.29.21.22.2,1.22.16a1.5,1.5,0,0,1,.66.07,1.93,1.93,0,0,1,.84.59c.1.17.13.19.23.17s.16,0,.13-.18a1.55,1.55,0,0,0-.65-.66c-.2-.11-.27-.19-.3-.31a2.79,2.79,0,0,1,.31-1.44,7,7,0,0,0,.3-.86c.08-.49-.18-1-.87-1.74-.4-.43-.34-.44-.79.14a1.15,1.15,0,0,1-1.11.59c-.47,0-.6,0-.65-.19a.91.91,0,0,1,.21-.74l.19-.27-.12,0a1.69,1.69,0,0,0-.45.08,2.33,2.33,0,0,1-1.06.06c-.09,0,0-.09.32-.47a1.4,1.4,0,0,1,1-.58l.21,0-.39-.4A2.59,2.59,0,0,1,75,5.36c-.11-.26-.13-.33-.08-.36a2.26,2.26,0,0,1,1,.12,2.23,2.23,0,0,0,.41.12c.09,0,.08-.24-.06-.78-.06-.26-.12-.48-.12-.51s.08,0,.48.11Zm2.88,13.22a30.27,30.27,0,0,1,1.61,2.65,5.38,5.38,0,0,1-1.28,0,2.77,2.77,0,0,1-.44-.58l-.38-.57s-.25.1-.25.15a4.06,4.06,0,0,0,.3.51c.24.36.29.47.23.49a3.35,3.35,0,0,1-.5,0c-.37,0-.46,0-.52-.09s-.44-.64-.88-1.33l-.81-1.25.24,0A26.42,26.42,0,0,1,79.57,17.28Zm6.62,0c.06,0,1.57,2.67,1.57,2.75a5,5,0,0,1-1.33,0,8.56,8.56,0,0,1-1-1.4c0-.05-.06-.05-.14,0s-.1.08-.1.1a6.56,6.56,0,0,0,.38.65c.21.34.38.63.38.65a1.65,1.65,0,0,1-.52,0c-.44,0-.54,0-.61-.11s-1-1.64-1.52-2.52l-.12-.2,1.45,0c.79,0,1.47,0,1.51.07Zm-9.87,0c.09.11,1.59,2.43,1.63,2.52s0,.09-.06.1-.74,0-1.53.06l-1.45,0L74,18.75a15.86,15.86,0,0,1-.88-1.34,4.93,4.93,0,0,1,.59-.06l.58,0,.36.59c.36.58.37.6.49.55a.29.29,0,0,0,.11-.08s-.14-.25-.31-.53-.29-.5-.22-.53a5.67,5.67,0,0,1,.8,0C76.16,17.29,76.26,17.3,76.32,17.37Zm11.56,0a3.45,3.45,0,0,1,.47.6l.46.63c.06.06.29-.07.26-.15a4.82,4.82,0,0,0-.36-.53,5.71,5.71,0,0,1-.33-.5,1.09,1.09,0,0,1,.37,0,1.55,1.55,0,0,1,1,.4,1.08,1.08,0,0,1,.39,1,1.15,1.15,0,0,1-.38,1,1.32,1.32,0,0,1-1.08.39l-.5,0L88.08,20c-.16-.26-1.4-2.48-1.44-2.58s0-.08.58-.06Z"/><path class="cls-1" d="M73.85,3a2.25,2.25,0,0,1,.49.93,1.41,1.41,0,0,0,.17.37,1.52,1.52,0,0,0,0-.71c-.1-.38-.46-.75-.71-.75S73.68,2.79,73.85,3ZM72.62,4.51A1.73,1.73,0,0,1,73,5c.17.35.22.36.22,0a.63.63,0,0,0-.55-.68h-.17l.17.16ZM70.84,6.65c0,.1.21.34.36.41a1.33,1.33,0,0,0,1,0L72.33,7l-.37,0A1.94,1.94,0,0,1,71,6.71C70.87,6.6,70.84,6.59,70.84,6.65Zm2.64,1.42a1.54,1.54,0,0,0-.21.26,1,1,0,0,1-.27.28c-.15.06-.14.12,0,.16s.35-.06.45-.29S73.57,8,73.48,8.07ZM88.07,4a1.09,1.09,0,0,0-.39.7l0,.18.11-.1a5.84,5.84,0,0,0,.62-.85s-.18,0-.31.07Zm.59,2.46c-.45,0-.55.06-.69.23a.24.24,0,0,0-.07.13c0,.06,0,0,.11,0a2.49,2.49,0,0,1,.64-.11c.54,0,.66-.08.77-.21S89.51,6.41,88.66,6.47Zm-1.8,1.76c0,.41.57.68,1,.5L88,8.68l-.12,0-.4-.11A1,1,0,0,1,87,8.26l-.18-.19v.16Zm-2.25,3.55a2.09,2.09,0,0,0-.36.19c-.17.11-.21.12-.72.12a6.2,6.2,0,0,0-.65,0c-.17.05-.07.11.16.11.39,0,.43.06.59.83a2.71,2.71,0,0,0,.13.51c.07.06.15-.24.15-.51a1.75,1.75,0,0,0-.09-.49c-.07-.22-.08-.24,0-.24a4.56,4.56,0,0,1,1,.29,2.14,2.14,0,0,1,.18.61,2.51,2.51,0,0,0,.49,1.21c.18.22.52.47.57.42a1.06,1.06,0,0,0-.16-.3,4.08,4.08,0,0,1-.58-1.22c-.1-.28-.19-.55-.22-.6s-.15-.14,1.36.46a11.46,11.46,0,0,0,1.44.5c.32.05.47,0,.29,0s-1.1-.46-1.18-.52-.08-.07.14-.07a4.51,4.51,0,0,0,1-.14c.13,0,.14-.06.06-.1a2.28,2.28,0,0,0-.43-.07,1.81,1.81,0,0,0-1,.16c-.15.07-.17.07-.48-.08a8.45,8.45,0,0,0-1.52-.57l-.39-.11.41-.15c.46-.17.5-.2.4-.26A1.14,1.14,0,0,0,84.61,11.78Zm-9.92.52c0,.1.49.4.93.57l.19.08-.48.24c-.47.22-.49.22-.62.16a2.13,2.13,0,0,0-1.89.18c-.13.11-.08.12.19.07a7.43,7.43,0,0,1,.95-.07l.71,0-.43.31a5.43,5.43,0,0,0-1.15,1.06,1,1,0,0,0,.31-.16,5.31,5.31,0,0,1,.74-.44s0,.13-.11.29c-.17.33-.17.33,0,.33s.42-.3.48-.53.07-.25.09-.3a5.13,5.13,0,0,1,1.27-.77c.11-.06.11,0,0,.21s-.18.4-.12.4.56-.41.62-.67.07-.2.57-.35a3.06,3.06,0,0,0,.47-.17c.07-.07-.64,0-1,.08s-.27.06-.43,0a2.64,2.64,0,0,0-.71-.36C74.94,12.28,74.69,12.25,74.69,12.3Zm-1,9.1a3.45,3.45,0,0,0-1.61.59c-.29.21-.36.24-.36.17a2,2,0,0,0-.49-.53,1.57,1.57,0,0,0-.95-.06,2.75,2.75,0,0,0-1.6.86c-.14.18-.15.21-.08.27s.1.06.24,0a.72.72,0,0,1,.68.13.82.82,0,0,1,.34.81A1.27,1.27,0,0,1,69,24.8a3.26,3.26,0,0,1-1.51.33,1.57,1.57,0,0,1-.7-.1c-.25-.11-.26-.17,0-.2a.83.83,0,0,0,.64-.5,1.5,1.5,0,0,0,.12-.81,1.37,1.37,0,0,0-.15-.86,1.06,1.06,0,0,0-.78-.65,2.12,2.12,0,0,0-2,.8A1.94,1.94,0,0,0,64.16,24a1.63,1.63,0,0,0,.12.89l.15.43L63.67,27,62.23,30l-.68,1.44-.42,0A2.07,2.07,0,0,0,59.07,33a3.85,3.85,0,0,0,0,1.72A1.92,1.92,0,0,0,60,36.1a2,2,0,0,0,2.27-.77,1.06,1.06,0,0,1,.19-.24,2.4,2.4,0,0,1,.15.48,4.43,4.43,0,0,1,.11,1.17,2.35,2.35,0,0,1-.32,1.47c-.36.59-.75.45-.86-.31,0-.22-.07-.37-.11-.39s-.49.18-.69.41a1.94,1.94,0,0,0-.37,2.15c.14.28.14.35,0,.36a2.24,2.24,0,0,0-.71.39,2.13,2.13,0,0,1-1.43.48c-.14,0-.26-.11-.56-.44a2,2,0,0,0-.42-.38s-.07.21-.14.44a1.51,1.51,0,0,0,.75,2,4.4,4.4,0,0,0,2.33.51,2.3,2.3,0,0,0,1-.11,5.65,5.65,0,0,0,.85-.43,2.1,2.1,0,0,1,.54-.28A5.62,5.62,0,0,1,62,44c-.14.22-.44.63-.66.91-.44.55-.4.54-.5.09a1,1,0,0,0-1-.6,1.19,1.19,0,0,0-.72,2.13l.23.2-.21.21A1.26,1.26,0,0,0,58.83,48c0,.76.3,1.07,1,1.19a.38.38,0,0,1,.18.05l-.19.35a4.79,4.79,0,0,0-.61,2.6l0,.88-.27-.1a3,3,0,0,0-.68-.11l-.41,0,.07.29a5.06,5.06,0,0,0,.61,1.44l.24.44a.77.77,0,0,1-.26,0,3.4,3.4,0,0,0-1.05,0,2.63,2.63,0,0,0,.12.32c.06.16.2.59.31,1s.2.69.22.73,0,.08-.23.11a1.52,1.52,0,0,0-1.29.87,2.28,2.28,0,0,0-.26,1.3,2.17,2.17,0,0,0,.77,1.62,2.83,2.83,0,0,0,1.17.64l.44.12s0-.11-.11-.26a.94.94,0,0,1,0-.94.33.33,0,0,1,.17-.12,2.15,2.15,0,0,1,.82.52,6.78,6.78,0,0,0,.67.49l.27.15-.23.24a2.82,2.82,0,0,0-.65,2,1.45,1.45,0,0,0,.15.75.79.79,0,0,0,.17.27s.06-.09.09-.2a1,1,0,0,1,1-.65,3.07,3.07,0,0,1,.83.16,4.91,4.91,0,0,0,1.7.27c.49,0,.53,0,.5.08a3.44,3.44,0,0,0-.06.49c0,.73.24,1.27.71,1.38.12,0,.13,0,.2-.22s.2-.41.56-.58a2.34,2.34,0,0,1,1-.16c.38,0,1.09,0,1.59,0a5,5,0,0,0,2.56-.45,4.3,4.3,0,0,0,.65-.57,4.61,4.61,0,0,1,.47-.44,2.9,2.9,0,0,1,.43.55,1,1,0,0,1-.19.16,1.16,1.16,0,0,0-.47.89.84.84,0,0,0,.32.8l.14.1-.1.22a1.62,1.62,0,0,0-.09.94c.11.43.39.72,1,1.06l.24.14v-.41c0-.47.08-.67.35-.85s.22-.11.74-.11h.58l.1.36a1.28,1.28,0,0,0,.41.67,3.57,3.57,0,0,0,.56.47,2.65,2.65,0,0,0,.88.29,1.29,1.29,0,0,0,0-.19,1.13,1.13,0,0,1,0-.78c.21-.35.55-.38,1.14-.11a1.44,1.44,0,0,0,.82.16H79v.57c0,.55,0,.58.14.83a1.83,1.83,0,0,0,2.63.33,1.57,1.57,0,0,0,.4-1.47l0-.26h.48a1.48,1.48,0,0,0,.84-.16c.43-.19.69-.23.89-.12s.41.51.29,1a.64.64,0,0,0,0,.21,2.87,2.87,0,0,0,.83-.26,2.27,2.27,0,0,0,1.07-1.39l0-.19H87c.72,0,1,.11,1.14.45a1.15,1.15,0,0,1,.1.55,2.39,2.39,0,0,0,0,.37,3.1,3.1,0,0,0,.72-.42,1.45,1.45,0,0,0,.4-.5.94.94,0,0,0,.12-.63,1.42,1.42,0,0,0-.12-.52l-.1-.2.19-.18a1.14,1.14,0,0,0-.2-1.67l-.2-.17.21-.25.22-.27a4,4,0,0,1,.48.44,2.35,2.35,0,0,0,1.2.8,9.3,9.3,0,0,0,2.65.24,6.89,6.89,0,0,1,1.75.13.93.93,0,0,1,.71.65c0,.23.06.25.26.19a.86.86,0,0,0,.51-.49,1.24,1.24,0,0,0,.13-.69,3.79,3.79,0,0,0,0-.6l0-.15h.54a4.94,4.94,0,0,0,1.7-.27,3,3,0,0,1,.83-.16,1,1,0,0,1,1,.65c0,.11.07.2.09.2a.79.79,0,0,0,.17-.27c.13-.26.14-.31.13-.89a2.2,2.2,0,0,0-.13-1,2.46,2.46,0,0,0-.57-1,.48.48,0,0,1-.12-.15,1.1,1.1,0,0,1,.28-.21,7.53,7.53,0,0,0,.65-.48c.63-.52.85-.59,1-.3a1.21,1.21,0,0,1-.08.87,1.1,1.1,0,0,0-.1.22,2.92,2.92,0,0,0,.93-.25,2.68,2.68,0,0,0,1.18-1.15,2.4,2.4,0,0,0-.3-2.67,1.5,1.5,0,0,0-.92-.42c-.2,0-.32-.08-.3-.11l.22-.76a7.72,7.72,0,0,1,.32-1,1.71,1.71,0,0,0,.11-.29,3,3,0,0,0-1,0,.77.77,0,0,1-.26,0,3.47,3.47,0,0,1,.21-.37,5.38,5.38,0,0,0,.61-1.41l.1-.36H103a2.24,2.24,0,0,0-.66.08,3.08,3.08,0,0,1-.38.1,2.06,2.06,0,0,1,0-.39,12.11,12.11,0,0,0-.16-1.92,4.3,4.3,0,0,0-.48-1.19l-.17-.29s.08,0,.18-.06c.74-.12,1-.54,1-1.39a1.24,1.24,0,0,0-.37-1l-.17-.2.18-.13a1.18,1.18,0,0,0,.45-1.27,1.14,1.14,0,0,0-1.15-.89.89.89,0,0,0-1,.71l-.08.3-.4-.5c-.22-.27-.49-.63-.61-.81a8,8,0,0,1-.65-1.33c0-.14,0-.14.08-.07a9.63,9.63,0,0,0,1,.59,3.67,3.67,0,0,0,1.89.22c1.6-.17,2.62-.86,2.62-1.78a3.65,3.65,0,0,0-.28-1.17s-.18.11-.39.34c-.42.45-.52.5-1,.43a2.4,2.4,0,0,1-1-.46,2.24,2.24,0,0,0-.71-.39c-.17,0-.18-.08-.06-.32a1.92,1.92,0,0,0-.43-2.26c-.25-.24-.56-.4-.64-.32a1.83,1.83,0,0,0-.09.42c0,.32-.07.4-.19.5s-.28.17-.45,0a2.63,2.63,0,0,1-.54-2,4.79,4.79,0,0,1,.27-1.44,2.33,2.33,0,0,1,.24.29,2.12,2.12,0,0,0,1.58.83,1,1,0,0,0,.63-.11,2.07,2.07,0,0,0,.94-1.38,3.81,3.81,0,0,0,0-1.81,1.74,1.74,0,0,0-1-1.16,3.32,3.32,0,0,0-1.16-.26h-.25l-.11-.22c-.18-.36-2.7-5.74-2.75-5.88s0-.19.08-.45a2.23,2.23,0,0,0-.46-2.41A2.08,2.08,0,0,0,95,22a1.15,1.15,0,0,0-1.12.7,1.31,1.31,0,0,0-.17.74,1.82,1.82,0,0,0,.23,1.12,1,1,0,0,0,.6.32c.15,0,.13.08,0,.18a3.84,3.84,0,0,1-1.69,0c-1-.27-1.48-.8-1.42-1.54a.77.77,0,0,1,.53-.72.49.49,0,0,1,.44,0c.19.05.23.05.29,0s.06-.09-.11-.27a2.47,2.47,0,0,0-1.23-.77,2.25,2.25,0,0,0-.72-.11,1,1,0,0,0-.94.43l-.22.24-.2-.17a3,3,0,0,0-1.64-.63,7.07,7.07,0,0,0-.9-.14c-.08,0-.08.27,0,.61,0,.15.07.29.07.31a.79.79,0,0,1-.35,0,4.26,4.26,0,0,0-.84-.05,1.69,1.69,0,0,0-1.15.37l-.16.13L84,22.45a4.42,4.42,0,0,0-1.34-.5,8.69,8.69,0,0,0-1.94-.11c-2,0-2.57.1-3.4.55l-.35.18-.25-.16a2.15,2.15,0,0,0-.48-.24,4.1,4.1,0,0,0-1.37,0,1.18,1.18,0,0,1-.35,0,1.58,1.58,0,0,1,.06-.4c.08-.4.06-.54-.07-.53s-.4.06-.8.14Zm.58.43a2.12,2.12,0,0,1-1,1.34c-.14.06-.2.1-.18.15a.31.31,0,0,1,0,.13c0,.06,0,.07.13,0a2,2,0,0,0,.81-.58,1.24,1.24,0,0,1,.63-.42,2.53,2.53,0,0,1,1.18-.1,1.54,1.54,0,0,1,1.3,1A2.13,2.13,0,0,1,77.19,25a1.07,1.07,0,0,1-.72.83c-1,.39-2.06-.1-2.06-1a.64.64,0,0,1,.78-.75c.29,0,.33,0,.46.17s.14.19.14.46,0,.36.17.27a.52.52,0,0,0,.16-.35,1.35,1.35,0,0,0-.12-.36.83.83,0,0,0-.88-.48c-.62,0-.87.09-3.28,1.21a14.71,14.71,0,0,1-3.72,1.44,3,3,0,0,1-3-.67,2.3,2.3,0,0,1-.68-1.81,1.7,1.7,0,0,1,1.61-1.67.89.89,0,0,1,.8.2A1.6,1.6,0,0,1,67,24.38c-.12.15-.15.16-.5.17s-.4,0-.53-.08-.15-.13-.15-.24-.17-.29-.25-.19c-.16.26,0,.5.33.7a1.19,1.19,0,0,1,.36.26,1.09,1.09,0,0,0,.35.25,1.41,1.41,0,0,0,.77.15A2.86,2.86,0,0,0,70,24.22a1.35,1.35,0,0,0-.13-1.41,1.21,1.21,0,0,0-.6-.38c-.16,0-.12-.1.09-.23a2.46,2.46,0,0,1,1.54-.38.71.71,0,0,1,.4.24c.25.28.26.35,0,.72a1.85,1.85,0,0,0-.33.82c0,.09,0,.11.12.1s.14-.06.2-.25A2.65,2.65,0,0,1,72.8,21.9a11.09,11.09,0,0,1,1.4-.31c.1,0,.1,0,0,.24Zm13.56-.07a4.09,4.09,0,0,1,.79.23,2.65,2.65,0,0,1,1.23,1.39c.11.28.14.33.24.33s.11,0,.11-.1a2.31,2.31,0,0,0-.37-.89c-.17-.26-.18-.28-.11-.41a.84.84,0,0,1,.89-.5,1.77,1.77,0,0,1,.8.19c.25.11.51.24.58.28l.12.09-.29.11a1.11,1.11,0,0,0-.74,1.23A1.55,1.55,0,0,0,92,25a3.12,3.12,0,0,0,1.67.38c.6,0,.65,0,.91-.14a1.15,1.15,0,0,0,.34-.24,1.37,1.37,0,0,1,.36-.27c.32-.17.39-.26.39-.5S95.6,24,95.47,24a.2.2,0,0,0-.1.2c0,.23-.23.34-.67.32s-.53-.08-.68-.42a1.92,1.92,0,0,1,0-1.23,1,1,0,0,1,.65-.64,1.9,1.9,0,0,1,1,.16,1.63,1.63,0,0,1,1,1.53,2.5,2.5,0,0,1-2.64,2.56A6.44,6.44,0,0,1,92,26.12a23.87,23.87,0,0,1-3.13-1.35c-.89-.42-1.77-.82-2-.87a2.87,2.87,0,0,0-.77-.13c-.41,0-.47,0-.65.09a.89.89,0,0,0-.4.78c0,.2,0,.26.11.32s.11.06.14,0a.39.39,0,0,0,0-.23.56.56,0,0,1,.13-.5.73.73,0,0,1,1.19.2,1.17,1.17,0,0,1,0,.82,1.49,1.49,0,0,1-1.81.59,1.34,1.34,0,0,1-1-1.4,1.82,1.82,0,0,1,1.38-2.06,2.63,2.63,0,0,1,.69,0,1.74,1.74,0,0,1,1.28.61,1.67,1.67,0,0,0,.75.5c.08,0,.11,0,.12-.09s0-.13-.16-.22a2.09,2.09,0,0,1-.8-.79,4.31,4.31,0,0,1-.28-.8,4,4,0,0,1,1,.17Zm-5.25.46a3.88,3.88,0,0,1,1.15.41l.29.16a4.88,4.88,0,0,1-.25.53,1.46,1.46,0,0,1-.31-.17,3.45,3.45,0,0,0-1.17-.47,8.55,8.55,0,0,0-1.71-.08,8.62,8.62,0,0,0-1.71.08,3.66,3.66,0,0,0-1.14.44l-.29.16a1.21,1.21,0,0,1-.23-.5,3.26,3.26,0,0,1,1.17-.51,9.12,9.12,0,0,1,2.44-.14A10.29,10.29,0,0,1,82.56,22.22Zm-.72.69a5,5,0,0,1,.81.18,2.34,2.34,0,0,1,.95.55c0,.09,0,.46-.06.44l-.44-.22a5,5,0,0,0-2.49-.43,5.24,5.24,0,0,0-2.6.44l-.41.19,0-.13c-.06-.31,0-.36.25-.55a4,4,0,0,1,1.43-.47,18.65,18.65,0,0,1,2.59,0Zm0,.85a3.46,3.46,0,0,1,1.37.44.81.81,0,0,1,.48.66,1.53,1.53,0,0,0,1.45,1.31,1.7,1.7,0,0,0,1.82-.78,1.87,1.87,0,0,0,.07-1c0-.11,0-.15,0-.15s.69.3,1.46.66a21.52,21.52,0,0,0,4.33,1.75,4.4,4.4,0,0,0,1.27.12h.82l1.39,2.85c1.33,2.73,1.39,2.86,1.32,3a8.06,8.06,0,0,0-1.69,3.3,9.07,9.07,0,0,0-.33,2.69,12.45,12.45,0,0,0,.86,4.65,26.33,26.33,0,0,0,1.76,3.42,1.57,1.57,0,0,1,.21.36s-.11,0-.24,0a2.68,2.68,0,0,0-1.07.18,1.37,1.37,0,0,0-.73.67,1.21,1.21,0,0,0-.15.72,1.49,1.49,0,0,0,.26,1l.16.24h-2.3v-.77a3.82,3.82,0,0,0-.18-1.43,8.3,8.3,0,0,1-.41-2.1,6,6,0,0,0-1-3,9.17,9.17,0,0,0-1.36-1.88l-.38-.38.07-.17c.1-.25,0-.52-.23-1a1.8,1.8,0,0,1-.26-.67c-.09-.69-.42-1-1.18-1a1.73,1.73,0,0,0-1.63.79c-.11.25-.18.3-.38.3a.59.59,0,0,0-.56.63c0,.26.09.41.4.63.65.49.76.64.76,1.17v.27h.2a.55.55,0,0,1,.56.33c.15.26.29.29.52.12l.28-.2c.11-.08.11-.08.26.08a2,2,0,0,0,.31.28l.15.13-.37.15a9.66,9.66,0,0,1-2.54.69.78.78,0,0,1-.29-.26,5.15,5.15,0,0,0-.62-.61,2.44,2.44,0,0,1-1.06-1.47,4.74,4.74,0,0,0-.28-.68.88.88,0,0,0-.5-.36.26.26,0,0,1-.16-.09.7.7,0,0,0-.58-.16l-.12,0,0,.52a2,2,0,0,0,.47,1.37,8.4,8.4,0,0,1,.93,1.41,4.58,4.58,0,0,0,.84,1.25c.13.14.21.25.19.25a16.91,16.91,0,0,1-2.64-.75c-.1-.06-.35-.24-.55-.4A1.76,1.76,0,0,0,82,42.41l-.51-.14a5.14,5.14,0,0,0-1.16-.06c-1.2,0-1.47,0-1.69.26-.39.41,0,.83,1.06,1.08l.46.11,0,.38c0,.42,0,.46-.12.34a2.94,2.94,0,0,0-.66-.75,1,1,0,0,0-.42-.09h-.25l.14.18a1.73,1.73,0,0,1,.38,1.16l0,.51H78l-.31.54-.32.54v1H78v2.32H75.78l0-.14a15.15,15.15,0,0,0,.24-2.23c.12-1.44.13-1.88.15-4.91l0-3.33.28,0a.78.78,0,0,0,.54-.11,15.23,15.23,0,0,0,2.36-2.06c.84-.85.89-.88,1.16-1,.59-.17.69-.29.69-.83,0-.33,0-.34.11-.32a3.53,3.53,0,0,0,1.41,0,3.08,3.08,0,0,0,.52-.13.32.32,0,0,0-.07-.19.71.71,0,0,0-.35-.3l-.25-.13.32,0a5.21,5.21,0,0,0,1.25-.3s-.24-.3-.39-.38a1.49,1.49,0,0,0-.47-.09l-.34,0,.21-.06a8.63,8.63,0,0,1,1.13-.11c.89-.05,1.25-.11,1.28-.22s0-.12-.13-.2a1.33,1.33,0,0,0-.87-.29c-.45,0-.12-.09.67-.18a5.21,5.21,0,0,0,.94-.17c.26-.11.5-.3.5-.4s-.14-.21-.63-.21h-.47l.54-.34c.63-.39.9-.66,1-1s.13-.67,0-.67a6.18,6.18,0,0,0-1.26.66,3.14,3.14,0,0,0-.47.49l-.24.31a2.86,2.86,0,0,1,0-.44c0-.29,0-.46,0-.46a1.27,1.27,0,0,0-.43.34,4.8,4.8,0,0,0-.4.68l-.3.57,0-.31a2.15,2.15,0,0,0-.17-.76c-.06,0-.28.25-.35.41a1.87,1.87,0,0,0-.13.4l-.16.56-.1.31,0-.65,0-.65-.16.26a4.52,4.52,0,0,0-.35.84c-.1.32-.2.61-.21.65s0,0-.15-.35a1.07,1.07,0,0,0-.2-.36l-.13-.16-.06.13c0,.07-.08.31-.12.54a2.45,2.45,0,0,1-.3.92l-.09.1,0-.19a1.65,1.65,0,0,0-.27-.63c-.08,0-.18.21-.36.71s-.23.65-.28.56-.06,0-.12.09a1.22,1.22,0,0,1-.31.27,1.44,1.44,0,0,0-.79,1.08,1.86,1.86,0,0,1-.15.43,4.57,4.57,0,0,1-.7.48,7.42,7.42,0,0,0-1,.69c-.28.25-.39.32-.51.32a1.75,1.75,0,0,1-.92-.58,1.61,1.61,0,0,1-.49-.85,5.38,5.38,0,0,0-1.17-2.07L74,33.58l.23-.32a2.66,2.66,0,0,0,.29-.54c0-.13.11-.23.14-.23a2,2,0,0,1,.34.12,1.23,1.23,0,0,0,.43.12c.23,0,.42-.21.49-.55s.07-.26.21-.24.15,0,.16-.24a2,2,0,0,0-.14-.72c-.13-.42-.15-.5-.1-.67.18-.7.21-.83.18-1a.87.87,0,0,0-.85-.72,1.62,1.62,0,0,0-.69.1l-.44.13-.4-.17a1,1,0,0,0-1.35.25,1.35,1.35,0,0,0-.32,1.87c.08.1.1.17.07.24a.85.85,0,0,0,.28.89.6.6,0,0,0,.31.09H73l0,.21c-.06.48-.19.65-1.28,1.68a4,4,0,0,0-1.06,2.41A27.92,27.92,0,0,0,70.25,40a24.83,24.83,0,0,1-.41,3.45c-.23,1.23-.18,1.73.24,2.29a.77.77,0,0,1,.17.43,1.19,1.19,0,0,0,.36.82,1.67,1.67,0,0,1,.48,1.15,2.77,2.77,0,0,1-.34,1.29l-.17.42-3,0h-3l.16-.24a1.54,1.54,0,0,0,.25-1.09,1.21,1.21,0,0,0-.16-.7A1.61,1.61,0,0,0,63.51,47,2.59,2.59,0,0,0,63,47c-.12,0-.21,0-.21,0a4.8,4.8,0,0,1,.28-.48,20.25,20.25,0,0,0,1.66-3.25,12.41,12.41,0,0,0,.87-5.48,8.56,8.56,0,0,0-1.64-4.73c-.22-.32-.4-.58-.4-.6s.62-1.32,1.37-2.87l1.38-2.82h.8a5.39,5.39,0,0,0,2.15-.37,24.45,24.45,0,0,0,3.09-1.32l1.7-.8.21-.09,0,.13a2.72,2.72,0,0,0,0,.51,1,1,0,0,0,.14.63,1.84,1.84,0,0,0,2.43.52,1.39,1.39,0,0,0,.8-1.15.8.8,0,0,1,.49-.66,3.26,3.26,0,0,1,1.2-.38,14.93,14.93,0,0,1,2.59,0ZM64.89,25.92l.25.28L64,28.68c-.66,1.36-1.26,2.6-1.33,2.76l-.14.29-.3-.1-.31-.11s2.71-5.87,2.75-5.87A2,2,0,0,1,64.89,25.92ZM98,28.57c.76,1.62,1.36,2.94,1.35,2.95l-.31.11-.3.1-.18-.38c-.1-.22-.7-1.46-1.33-2.77L96,26.21l.24-.29a1.77,1.77,0,0,1,.28-.27S97.2,27,98,28.57Zm-32.2-2a1.2,1.2,0,0,1,.25.14s-2.67,5.5-2.71,5.54-.55-.33-.54-.38,2.29-4.78,2.48-5.16c.09-.17.18-.28.21-.27Zm31,1.73c.49,1,1.07,2.24,1.31,2.72l.42.88-.26.19c-.15.11-.28.18-.3.16s-2.7-5.49-2.7-5.54a2,2,0,0,1,.59-.26s.45.84.94,1.85ZM87.07,30c-.08.4-.3.62-1,1.08-.49.31-1,.73-1,.85s0,.07.49-.07c.68-.18,1.12-.15.79.06a3.33,3.33,0,0,1-1.25.27c-.78.09-1.12.24-1.12.49a1.74,1.74,0,0,0,.51.06,1.77,1.77,0,0,1,.69.11c.16.07.17.1.11.13a6.36,6.36,0,0,1-1,.08c-1,.05-1.31.11-1.58.37l-.18.18.55,0c.52,0,.81.1.73.19l-.4.14a1.43,1.43,0,0,1-.62.08l-.58-.06c-.31,0-.32,0-.46.11a.58.58,0,0,0-.15.2s.11,0,.25,0c.48,0,1.26.26,1.15.38a2.5,2.5,0,0,1-1.11.16c-.53,0-.61-.06-.63-.18s-.36-.14-.63.05a1.06,1.06,0,0,1-.23.15,1.38,1.38,0,0,1,.17-.6,2.5,2.5,0,0,0,.37-.84L81,33l.07.21a1.75,1.75,0,0,1,.05.46.71.71,0,0,0,0,.25,1.7,1.7,0,0,0,.53-.54,3.47,3.47,0,0,0,.2-.67c.1-.45.11-.46.17-.35a2.33,2.33,0,0,1,.09.59l0,.47.2-.31a3.09,3.09,0,0,0,.35-.77l.18-.59c0-.08,0,0,0,.38a1.69,1.69,0,0,0,0,.51,1.3,1.3,0,0,0,.4-.45,3.32,3.32,0,0,0,.17-.58c.11-.46.19-.67.25-.67s.1.6,0,.9a.75.75,0,0,0-.06.32,1.1,1.1,0,0,0,.28-.23,2.09,2.09,0,0,0,.54-.77,4.43,4.43,0,0,1,.38-.67l.12-.14,0,.29a7.31,7.31,0,0,1-.34,1.23c-.07.22.32-.26.83-1A2.68,2.68,0,0,1,86.64,30l.42-.19S87.09,29.87,87.07,30ZM61.93,31.86a2.69,2.69,0,0,1,1.29.8,8,8,0,0,1,2.07,5,13.41,13.41,0,0,1-.29,3.8,18.41,18.41,0,0,1-2.39,5.25,1.7,1.7,0,0,1-.57.66c-.14.08-.36.23-.5.33a1.3,1.3,0,0,1-.29.18,1,1,0,0,1-.19-.49,5.79,5.79,0,0,0,1.66-1.65,3.21,3.21,0,0,0,.23-.44s-.13-.16-.21-.16a.84.84,0,0,0-.14.23,4.63,4.63,0,0,1-.88,1.13,6.13,6.13,0,0,1-1.23.89c-.15,0-.12.11.09.16a.41.41,0,0,1,.33.46c0,.18,0,.24-.34.59l-.35.38-.31,0a1.37,1.37,0,0,1-.45-.12,1.15,1.15,0,0,1-.34-1.25,1.47,1.47,0,0,1,.45-.64c.22-.24.33-.38.29-.4-.52-.15-.75-.34-.85-.72a.86.86,0,0,1,.12-.75.79.79,0,0,1,.77-.4c.53,0,.69.2.75,1a1,1,0,0,0,.07.36,2.73,2.73,0,0,0,.41-.41A7.5,7.5,0,0,0,63,42.31a4.74,4.74,0,0,1,.81-1.68c.32-.49.37-.6.33-.68s-.11-.11-.27.09A7.73,7.73,0,0,0,62.79,42c-.07.2-.13.25-.54.53a4.32,4.32,0,0,1-1.51.7A6.37,6.37,0,0,1,59,43.1a2.73,2.73,0,0,1-1.59-.87c-.13-.2-.14-.23-.14-.66a1.84,1.84,0,0,1,0-.54c0-.08.06-.07.18.1.45.64,1.34.6,2.33-.13a1.27,1.27,0,0,1,1.27-.26l.47.09.1-.1c.06-.07.09-.13.08-.14a1.6,1.6,0,0,0-.35-.1,1,1,0,0,1-.9-1.2,1.24,1.24,0,0,1,.13-.67,2.33,2.33,0,0,1,.6-.74.6.6,0,0,1,.08.28.72.72,0,0,0,.47.64.46.46,0,0,0,.38,0,1.64,1.64,0,0,0,.77-1.11,5.9,5.9,0,0,0,0-2.13c-.28-1.32-.8-2.19-1.37-2.33s-.88.07-1,.54.16.32.3,0,.27-.35.64-.25.39.23.6.58c.41.72-.13,1.53-1.19,1.8a1,1,0,0,1-.84-.11c-.7-.39-1-2.08-.63-3a1.79,1.79,0,0,1,1.2-.93,3.12,3.12,0,0,1,1.29,0Zm38.58,0a1.73,1.73,0,0,1,1.22.93,3.16,3.16,0,0,1-.13,2.42c-.33.64-.71.85-1.32.71-1.07-.25-1.62-1.07-1.21-1.8.26-.45.52-.63.89-.63a.47.47,0,0,1,.37.33c0,.16.2.27.27.19s0-.37-.15-.55a.93.93,0,0,0-1.4.18A5.75,5.75,0,0,0,98.14,37a2.67,2.67,0,0,0,.33,1.29c.46.86,1.18.76,1.42-.2l0-.21.22.21a1.64,1.64,0,0,1,.3,2,1,1,0,0,1-.72.4,1.75,1.75,0,0,0-.32.1s.15.22.25.22l.49-.08a1.19,1.19,0,0,1,1.18.27,3.64,3.64,0,0,0,.56.36,2.47,2.47,0,0,0,1.07.22,1.11,1.11,0,0,0,.68-.42c.06-.09.13-.17.15-.17s.15.37.15.62a1.48,1.48,0,0,1-1,1.23,5.34,5.34,0,0,1-2.53.33,3.8,3.8,0,0,1-1.55-.71c-.24-.16-.44-.29-.44-.3a7.83,7.83,0,0,0-.35-.88A9.2,9.2,0,0,0,97.28,40l-.17-.21-.07.13c-.06.12,0,.14.29.65a5.58,5.58,0,0,1,.86,1.83,6.47,6.47,0,0,0,1.32,2.48,5.2,5.2,0,0,0,1,1.06,4.56,4.56,0,0,0,.07-.48c.06-.68.21-.84.74-.84a.86.86,0,0,1,.91.79.94.94,0,0,1-.66,1,.92.92,0,0,0-.24.09s.11.16.28.32a1.26,1.26,0,0,1,.51,1.08,1,1,0,0,1-.37.88,1.25,1.25,0,0,1-.7.11,1.84,1.84,0,0,1-.43-.38c-.29-.33-.32-.38-.32-.57s.11-.38.38-.46l.21-.06-.21-.12a5.1,5.1,0,0,1-2.07-2c-.13-.25-.13-.25-.3-.17l-.1.07.25.41a5.58,5.58,0,0,0,1.69,1.71,1.22,1.22,0,0,1-.19.49A10.17,10.17,0,0,1,99,47.2a16.21,16.21,0,0,1-2.28-4.08,11.19,11.19,0,0,1,.11-8.88,4.33,4.33,0,0,1,2.4-2.38,3.12,3.12,0,0,1,1.29,0ZM80.88,42.4c.44,0,.46,0,.46.13s.08.2.41.28l.29.09a.69.69,0,0,1,0,.19c-.05.16-.06.17-.25.17a1.09,1.09,0,0,0-.41.11,1.43,1.43,0,0,1-.74.1,3.42,3.42,0,0,1-1.47-.3c-.62-.28-.58-.63.08-.76A8.79,8.79,0,0,1,80.88,42.4Zm.84,1.49a3.46,3.46,0,0,0,.6.15,1.64,1.64,0,0,1,.92.38,13.12,13.12,0,0,0,2,1,4.24,4.24,0,0,0,3.36-.33c.8-.37.67-.36,1.16,0a2,2,0,0,1,1,1.44,2.35,2.35,0,0,1,.06.82l-.33-.07a12.71,12.71,0,0,0-2.34-.15c-.7,0-1,.12-1.26.36s-.36.73-.12,1.65c.09.35.17.65.17.68s-.78,0-1.74,0H83.39V47.51H84V46.45l-.58-.52-.57-.52-.6,0-.6,0,0-.18a.74.74,0,0,1,.15-.45c.27-.45.29-.75,0-.69a2,2,0,0,0-.69.41l-.16.13-.1-.28a1,1,0,0,0-.42-.57c-.11-.06-.1-.07.19,0a2.43,2.43,0,0,0,.49,0c.16,0,.2,0,.3.07a1,1,0,0,0,.33.17Zm-1.09.75c.06.18.13.32.16.32a.52.52,0,0,0,.2-.1.65.65,0,0,1,.2-.12.38.38,0,0,0,.16-.09q.18-.15.09.09a1.26,1.26,0,0,0,.07.84c.14.35.15.44,0,.53a.12.12,0,0,0-.07.15c0,.1.1.09.23,0a.44.44,0,0,0,.07-.51l0-.12h1l.46.41.45.41-1.5,0h-3l-1.49,0,.24-.41.23-.41h1.12l.05.2c0,.21.26.5.35.5s.1-.15,0-.21-.2-.33-.24-1c-.06-.87-.05-.88.24-.59a1.92,1.92,0,0,0,.28.24s.06,0,.07.09a.15.15,0,0,0,.12.1c.09,0,.24-.36.24-.57S80.48,44.14,80.63,44.64ZM83.82,47v.35H77.57l0-.28a1.53,1.53,0,0,1,0-.34,17.66,17.66,0,0,1,3.14-.07h3.12Zm-19.91.45a1.22,1.22,0,0,1,.71.68,2.16,2.16,0,0,1,0,.64c0,.57-.11.74-.51.93a1.1,1.1,0,0,1-.61.13c-.63,0-1.06-.33-1.06-.81a.64.64,0,0,1,.58-.63.47.47,0,0,0,.22-.07c.09-.06.1-.09,0-.15s-.51-.06-.74.09a1,1,0,0,0-.27,1.23l.12.22-.23.49A8,8,0,0,0,61.59,52a8.22,8.22,0,0,0-.09,1.4,6.7,6.7,0,0,0,.27,2.22,1.91,1.91,0,0,1,.1.75l0,.2L61.6,56a6.58,6.58,0,0,0-1.73-2.56,2.67,2.67,0,0,1-.35-.31,5,5,0,0,1,0-.78,6.69,6.69,0,0,1,.29-2.07,3.78,3.78,0,0,1,.81-1.27,5.6,5.6,0,0,0,.46-.54,5.12,5.12,0,0,1,1.62-1.17A2.48,2.48,0,0,1,63.91,47.42Zm34.6-.05a3.79,3.79,0,0,1,.59.26,5.08,5.08,0,0,1,.92.75l.51.59a4.59,4.59,0,0,1,1.15,3.61l0,.61-.19.15A6.09,6.09,0,0,0,99.59,56l-.26.58,0-.19a1.89,1.89,0,0,1,.1-.75,7,7,0,0,0,.27-2.22,6.41,6.41,0,0,0-.11-1.51A7.28,7.28,0,0,0,99,50.12l-.22-.44.11-.17a1.14,1.14,0,0,0,0-1,.81.81,0,0,0-.72-.39.89.89,0,0,0-.32,0c-.06.06.17.22.32.22a.66.66,0,0,1,.5.94c-.17.33-.49.48-1,.48a1.05,1.05,0,0,1-.61-.12,1.35,1.35,0,0,1-.33-.29c-.11-.16-.12-.23-.14-.7s0-.54.1-.73a.94.94,0,0,1,.37-.37,1.79,1.79,0,0,1,1.52-.2ZM83.2,48.46v1l-.27,0a1.28,1.28,0,0,1-.77-.36c-.35-.3-.62-.38-1.43-.38a3.47,3.47,0,0,0-1.8.38,2.69,2.69,0,0,1-.65.24h-.12V47.51h5v1Zm-3,.56c0,.18,0,.19.16.23a2.48,2.48,0,0,0,.44.08,1.43,1.43,0,0,1,1.06.67c.16.23.16.25,0,.25a.9.9,0,0,1-.32-.24c-.23-.23-.57-.44-.65-.39s0,.16.16.24.61.49.61.62a.29.29,0,0,1-.05.14s-.12,0-.29-.2c-.36-.39-.94-.64-.94-.4a.08.08,0,0,0,.09.09,1.2,1.2,0,0,1,.66.39c.23.24.31.41.18.41a2.23,2.23,0,0,1-.48-.35c-.45-.37-.67-.48-.94-.43a3,3,0,0,0-.67.33c-.54.32-.75.39-1,.34l-.12,0V49.5l.2-.06a4.28,4.28,0,0,0,.67-.26,3.41,3.41,0,0,1,1.07-.34c.09,0,.1,0,.07.18Zm1.46-.1a2.09,2.09,0,0,1,.49.31,1.12,1.12,0,0,0,.78.34l.3,0V51l-.49,0a1.87,1.87,0,0,0-1,.13,2.67,2.67,0,0,1-1,.16,1.42,1.42,0,0,1-1.19-.44c-.23-.2-.24-.21-.16-.28s.11,0,.3.15.42.34.49.26,0-.08-.09-.16-.41-.36-.37-.4a.26.26,0,0,1,.15-.07c.07,0,.11,0,.13.07a2.14,2.14,0,0,0,.5.56s0,0,.06-.08,0-.15-.19-.31c-.35-.35-.16-.27.34.15a1.77,1.77,0,0,0,.56.38,1.33,1.33,0,0,0,.56-.54s.06-.1.13-.13.19-.24,0-.51a1.56,1.56,0,0,0-1.29-.78,1.75,1.75,0,0,1-.33-.07c-.09-.06,0-.14.15-.14s.14,0,.14,0S81.37,48.83,81.63,48.92ZM70.29,50.33c0,.1-.43.9-.86,1.79S68.52,54,68.37,54.3a5.77,5.77,0,0,1-.5.83,2.42,2.42,0,0,0-.21.29,3.31,3.31,0,0,0,1.27-.12c.78-.17,1.11-.19,1.29-.06.41.31.63.33,1.91.21a14.59,14.59,0,0,1,2.51-.07l1.49,0,0-.12c-.07-.28-.15-.4-.53-.78a2.82,2.82,0,0,1-.53-.69c-.12-.26-.12-.3-.1-.8a7.56,7.56,0,0,1,.58-2.27l.21-.57H78v1.59l-.45.43-.45.42v1.95H84.2V52.6l-.38-.42-.38-.41V50.16h3.5l0,.1a3.05,3.05,0,0,1-.25,2c-.25.51-.25.66,0,.93a3,3,0,0,1,.31.4.8.8,0,0,0,.32.29l.19.08-.26.19a3.27,3.27,0,0,0-.36.32l-.1.13.37.18a3.6,3.6,0,0,0,.58.23,12.75,12.75,0,0,0,2.68,0,2.19,2.19,0,0,1,1.26,0,1.69,1.69,0,0,0,1.27,0,3.71,3.71,0,0,1,.56-.15,3.64,3.64,0,0,1,.46.15,1.44,1.44,0,0,0,1.09.11c.26-.08.29-.08,1.14,0a1.49,1.49,0,0,0,.52,0c.12,0,.1-.07-.43-.59a3.19,3.19,0,0,1-.71-.85c-.2-.4-.36-.6-.53-.67s-.23-.2-.52-.69a5.6,5.6,0,0,1-.45-.89,1.57,1.57,0,0,1,.07-1l.1-.21h4.38l.17.37a6.93,6.93,0,0,1,.56,2.91,7.63,7.63,0,0,1-.53,2.95,7.86,7.86,0,0,1-5.65,4.87A7,7,0,0,1,88.58,61a1.08,1.08,0,0,0-.5-.14c-.08,0-.18.14-.34.44a6.18,6.18,0,0,1-.82,1.21,8.37,8.37,0,0,1-3.28,2.2,7,7,0,0,1-3.36.6,5.17,5.17,0,0,1-1.45-.16,11.39,11.39,0,0,1-3.14-1.39,9.44,9.44,0,0,1-1.75-1.64,6.7,6.7,0,0,1-.46-.71c-.25-.45-.34-.57-.44-.57a4.47,4.47,0,0,0-.59.21,6.25,6.25,0,0,1-2.82.48,8.28,8.28,0,0,1-6.52-3.58,8.44,8.44,0,0,1-1.29-3.68,7.41,7.41,0,0,1,.58-3.83l.12-.27h7.84Zm9.48.86a1.54,1.54,0,0,0,1.15.27,2.92,2.92,0,0,0,.88-.17,1.63,1.63,0,0,1,.91-.11l.49,0v1.31h-5V51h.23a1.23,1.23,0,0,0,.51-.14l.28-.14.15.14c.08.07.28.21.44.32ZM78,52.28v.24h-.49l.23-.24a2.27,2.27,0,0,1,.25-.23.93.93,0,0,1,0,.23Zm5.67,0,.18.22h-.38V52.3a.82.82,0,0,1,0-.21,1.61,1.61,0,0,1,.19.21ZM84,53.53v.78H77.31V52.75H84v.78Zm18.86.11a3.88,3.88,0,0,1-1.26,1.8,6.35,6.35,0,0,0-1.78,2.13l-.35.59,0-.19a2,2,0,0,1,.23-1.33,9.44,9.44,0,0,1,1-1.93,3.48,3.48,0,0,1,1.34-1.3c.43-.21,1-.35,1-.25A2.46,2.46,0,0,1,102.82,53.64ZM58.69,53.2A3.89,3.89,0,0,1,61,55.33a14.69,14.69,0,0,1,.85,2.08,2.67,2.67,0,0,1,0,.47l0,.28-.2-.36a6.91,6.91,0,0,0-1.93-2.34,2.2,2.2,0,0,1-.68-.73,6,6,0,0,1-.7-1.45c0-.13,0-.15.08-.15a2.09,2.09,0,0,1,.38.07Zm-.1,2.08a3.64,3.64,0,0,1,1.63,1.1,9.4,9.4,0,0,1,1.67,2.88,3.87,3.87,0,0,0,.71,1.4l.27.33-.35,0a3.82,3.82,0,0,0-1.4.16,2.15,2.15,0,0,1-.38.1,2.52,2.52,0,0,1-1.08-.64A4,4,0,0,0,59,60.1a.41.41,0,0,0-.4,0c-.27.1-.37.32-.37.76s0,.41-.41.2a2.28,2.28,0,0,1-1.11-1.36,2.51,2.51,0,0,1,.09-1.49A1.42,1.42,0,0,1,58,57.33c.18,0,.21,0,.3.16a1.79,1.79,0,0,0,1,.74s.09,0,.1-.11,0-.13-.3-.27c-.52-.29-.72-.63-1.09-1.94-.1-.37-.19-.67-.19-.68A1.76,1.76,0,0,1,58.59,55.28Zm44.71-.05c0,.1-.51,1.71-.61,1.91a1.56,1.56,0,0,1-.75.75c-.21.1-.23.13-.22.23s.06.11.1.11a1.81,1.81,0,0,0,1-.74l.1-.16.3,0a1.29,1.29,0,0,1,.85.37,1.66,1.66,0,0,1,.48,1.19A2.05,2.05,0,0,1,103.36,61l-.35.18s0-.12,0-.25a1,1,0,0,0-.21-.76c-.28-.28-.57-.2-1.29.38a2.56,2.56,0,0,1-1.07.63,2,2,0,0,1-.38-.1A3.68,3.68,0,0,0,98.7,61l-.35,0,.12-.17a5.3,5.3,0,0,0,.5-.74,3.73,3.73,0,0,0,.28-.74,10,10,0,0,1,1.56-2.79,3.42,3.42,0,0,1,1-.91.19.19,0,0,0,.12,0,1.74,1.74,0,0,1,1.35-.36ZM62.73,57.92a8.58,8.58,0,0,0,4.51,3.47,7.7,7.7,0,0,0,5.45-.12l.29-.11a1.77,1.77,0,0,1,.25.39,7.29,7.29,0,0,0,3.3,3,9.81,9.81,0,0,0,2.73,1,13.75,13.75,0,0,0,2.56,0,10.55,10.55,0,0,0,2.85-1,7,7,0,0,0,2.07-1.48A5.82,5.82,0,0,0,88,61.45c.12-.23.17-.29.24-.27a7.43,7.43,0,0,0,3.48.64,8.55,8.55,0,0,0,7.07-4.51l.22-.42,0,.19c0,.1,0,.54,0,1a3.65,3.65,0,0,1-.1,1.17,2.94,2.94,0,0,1-.83,1.43l-.38.38-.46.11c-.24.06-.77.22-1.16.36a6.47,6.47,0,0,1-.94.29.57.57,0,0,0-.23,0s0,.08,0,.14,0,.1.17.1a4,4,0,0,0,.83-.21,8.16,8.16,0,0,1,3-.65,2.08,2.08,0,0,1,2.32,1.65,4,4,0,0,1,0,1.15,1,1,0,0,1-.23-.14c-.5-.34-.93-.36-1.87-.1a4.48,4.48,0,0,1-2.35.2l-.41-.28c-.56-.36-1-.45-2.56-.52a3.81,3.81,0,0,1-1.58-.26.19.19,0,0,0-.17,0c-.1.07-.1.08,0,.19s.6.26,1.73.31a5.11,5.11,0,0,1,2.13.34c.69.34.9.65.87,1.27a1.24,1.24,0,0,1-.14.58c-.13.27-.2.31-.27.15a1.48,1.48,0,0,0-.55-.56A5.45,5.45,0,0,0,93.65,65a8.54,8.54,0,0,1-2.43-.22A2.38,2.38,0,0,1,90,63.88a3.16,3.16,0,0,0-.52-.52s-.17.15-.29.34a2.4,2.4,0,0,1-.39.45,8.94,8.94,0,0,1-1.76.57c-.16,0-.25.22-.13.28s.18,0,1-.21,1-.22,1.22,0a.94.94,0,0,1,.34.76.41.41,0,0,1-.18.42,1.69,1.69,0,0,1-.48.28,1.21,1.21,0,0,0-.31.15s0,0,.15.07c.35,0,.4.07.47.19a1.32,1.32,0,0,1,.05.92,2.26,2.26,0,0,1-.56.61s0-.11-.08-.24a1.15,1.15,0,0,0-.32-.62c-.24-.22-.44-.27-1.08-.27H86.5l-.11-.19c-.24-.43-.72-.65-1.56-.73l-.3,0v.14c0,.13,0,.14.25.17.85.1,1.28.32,1.42.72s-.22,1-.79,1.4c-.41.27-.43.26-.47-.07a1.73,1.73,0,0,0-.1-.42.92.92,0,0,0-.61-.45c-.27,0-.37,0-.91.2a1.23,1.23,0,0,1-.76.13l-.51,0c-.23,0-.24,0-.17.68.05.5.05.58,0,.78a1.27,1.27,0,0,1-.7.65A2.69,2.69,0,0,1,80,70a1.27,1.27,0,0,1-.7-.65,1.38,1.38,0,0,1,0-.67c0-.25,0-.54.07-.64l0-.18-.21,0a2,2,0,0,1-1.38-.11,3,3,0,0,0-.64-.19.93.93,0,0,0-.92,1,.66.66,0,0,1,0,.22,2.37,2.37,0,0,1-.74-.46,1.85,1.85,0,0,1-.52-.92.79.79,0,0,1,.3-.59,2,2,0,0,1,1-.35c.31,0,.45-.05.45-.17s-.13-.17-.58-.09c-.76.14-1.06.3-1.28.69l-.11.19h-.59a1.82,1.82,0,0,0-.79.09c-.34.15-.51.41-.66,1,0,0-.1,0-.2-.11a1.16,1.16,0,0,1-.38-1.3c.08-.18.18-.24.52-.28s.25-.06-.14-.22c-.56-.22-.68-.35-.68-.74a1,1,0,0,1,.34-.72c.25-.18.5-.18,1.22,0a2.23,2.23,0,0,0,1,.18s0-.06,0-.11-.19-.14-.83-.33c-.45-.12-.86-.24-.93-.27a1.59,1.59,0,0,1-.59-.62,1.9,1.9,0,0,0-.22-.3s-.13,0-.23.16c-.84.94-.91,1-1.21,1.14-.58.28-.93.32-3.12.38a5.38,5.38,0,0,0-1.68.14,1.29,1.29,0,0,0-.74.55.53.53,0,0,1-.15.21.93.93,0,0,1-.28-.44,1.72,1.72,0,0,1,0-1,2.24,2.24,0,0,1,1.51-.89c.22,0,.81-.09,1.4-.12,1.08,0,1.46-.1,1.72-.29l.14-.1L69,63c-.09-.08-.11-.09-.2,0-.28.17-.5.2-1.56.24a4.22,4.22,0,0,0-2.7.65l-.32.22h-.64A4.79,4.79,0,0,1,62,63.8a2.38,2.38,0,0,0-.88-.16,1.43,1.43,0,0,0-1,.27c-.11.08-.22.13-.23.11a3.55,3.55,0,0,1,.06-1.13,2.07,2.07,0,0,1,2.3-1.65,8,8,0,0,1,2.9.62c.69.24,1.09.31,1.09.18s-.12-.21-.31-.24a6.81,6.81,0,0,1-.9-.28c-.39-.14-.92-.3-1.16-.36l-.45-.11L63,60.67a3,3,0,0,1-.94-2.46c0-.37,0-.82,0-1l0-.35.21.42a5.89,5.89,0,0,0,.36.65Z"/><path class="cls-1" d="M80.87,67.94a1.28,1.28,0,0,0,.07.26.67.67,0,0,1-.47,1c-.09,0-.08,0,.06.1a.52.52,0,0,0,.27,0,.77.77,0,0,0,.48-.84c0-.17-.4-.64-.41-.52Z"/><path class="cls-1" d="M58,67.58c-2.42.18-3.62.75-4.41,2.08a5.11,5.11,0,0,0-.39,2.13,6.1,6.1,0,0,1-.7,3A3.66,3.66,0,0,0,52,76.65a2.86,2.86,0,0,0,.93,2.23,3.27,3.27,0,0,0,.78.6,5.48,5.48,0,0,0,2.76.51c1.17,0,1.53-.17,3.3-1.21A9.32,9.32,0,0,1,62,77.67c.49-.15.85-.16,1,0l.44.58c.84,1.13,1.42,1.51,2.34,1.51a3.28,3.28,0,0,0,1.34-.31c.61-.24.77-.25,1.16-.09a1.58,1.58,0,0,0,.51.14c.18,0,.2,0,.18-.12a2.15,2.15,0,0,0-.59-1,3,3,0,0,0-2.17-.75c-.69,0-.78,0-1.21-.61a4.57,4.57,0,0,0-1.73-1.52,3.5,3.5,0,0,0-1.3-.37,5.2,5.2,0,0,0-3.26.86c-.17.11-.72.52-1.22.9s-1,.72-1.05.77l-.16.08L56,77.54a1.65,1.65,0,0,1-.71-1.48,3.24,3.24,0,0,1,.7-2,1.36,1.36,0,0,1,.88-.65,12.05,12.05,0,0,1,5.56.19,36.06,36.06,0,0,1,6.49,2.49c5,2.19,7.09,2.9,9.67,3.3a16.79,16.79,0,0,0,3.68,0,27.8,27.8,0,0,0,6.58-1.94c.77-.31,3.92-1.66,5.71-2.45a20.7,20.7,0,0,1,5.8-1.76,15.47,15.47,0,0,1,2.8,0,6.93,6.93,0,0,1,1.25.25,2.91,2.91,0,0,1,.93,1.09c.59,1.19.48,2.31-.3,2.92a.85.85,0,0,1-.29.18,8.88,8.88,0,0,1-1.45-1,6.56,6.56,0,0,0-2.57-1.42A4.15,4.15,0,0,0,96.09,77a1.17,1.17,0,0,1-1.25.64,3,3,0,0,0-2.14.74,2.18,2.18,0,0,0-.62,1c0,.14.2.13.65,0a2.41,2.41,0,0,1,.52-.14,2.76,2.76,0,0,1,.67.2,3.21,3.21,0,0,0,1.4.32c.91,0,1.47-.38,2.39-1.61a2.38,2.38,0,0,1,.51-.57A4.3,4.3,0,0,1,99.9,78c.14.06.71.4,1.29.74a8.66,8.66,0,0,0,1.92,1A4.55,4.55,0,0,0,105,80a4,4,0,0,0,3.47-1.58,3.05,3.05,0,0,0,.5-1.64,3.75,3.75,0,0,0-.52-2.06,5.41,5.41,0,0,1-.68-2.9,4,4,0,0,0-.66-2.57,4.79,4.79,0,0,0-3.59-1.61,27.17,27.17,0,0,0-3.61,0c-2.69.25-4.49.8-8.31,2.49-4.53,2-5.18,2.27-6.92,2.71a16,16,0,0,1-4.2.52,15.46,15.46,0,0,1-4.2-.53A33.37,33.37,0,0,1,70,70.38a27.25,27.25,0,0,0-7.35-2.55,22.48,22.48,0,0,0-4.6-.24Zm2.73.29A19.06,19.06,0,0,1,67,69.4c.62.25,1.57.67,4.09,1.79a24.89,24.89,0,0,0,7.41,2.33,23.23,23.23,0,0,0,3.73,0,20,20,0,0,0,3.49-.72,41.53,41.53,0,0,0,5.13-2.08c4-1.78,5.5-2.31,7.6-2.66a15.8,15.8,0,0,1,3.34-.23,10.39,10.39,0,0,1,3,.26,3.46,3.46,0,0,1,2.31,1.6,1.24,1.24,0,0,1,.07,1,2.19,2.19,0,0,1-1.42,1.65l-.62.32c-.08,0,0,.1.74.32a3.78,3.78,0,0,1,1.7.85,5.82,5.82,0,0,1,1.12,2.3,2.91,2.91,0,0,1-1.56,3.13,5.49,5.49,0,0,1-3.15.45,6.53,6.53,0,0,1-2.65-1.17c-.48-.29-1.07-.62-1.32-.75a5.4,5.4,0,0,0-1.34-.47.48.48,0,0,1-.18,0c-.14-.11.74-.8,1.28-1a4.25,4.25,0,0,1,2.2-.21,7.62,7.62,0,0,1,1.06.74,11.69,11.69,0,0,0,2.17,1.45c1,.46,1.47.43,2-.1a2.82,2.82,0,0,0,.54-2.5c-.3-1.16-1-1.75-2.66-2.26a10.27,10.27,0,0,0-3.59-.45,15.93,15.93,0,0,0-5,1c-.85.31-1.11.41-4.85,2a55.29,55.29,0,0,1-5.51,2.21,23.77,23.77,0,0,1-3.4.88,10.32,10.32,0,0,1-1.84.15,13.22,13.22,0,0,1-4-.47A42.63,42.63,0,0,1,69.28,76a44.91,44.91,0,0,0-6-2.41,12.42,12.42,0,0,0-7.53-.09,4.7,4.7,0,0,0-1.49.71,2.85,2.85,0,0,0-.41,4c.46.53,1.07.56,2,.09A12.45,12.45,0,0,0,58,76.8a7,7,0,0,1,1.1-.76,2.87,2.87,0,0,1,.61-.05,3.74,3.74,0,0,1,2.58.94l.34.32-.5.12a8,8,0,0,0-2.27,1.07,6.58,6.58,0,0,1-3.26,1.31,5,5,0,0,1-3.24-.84,2.93,2.93,0,0,1-1.06-2.29,3.56,3.56,0,0,1,.55-1.8,3.26,3.26,0,0,1,.62-1,4.48,4.48,0,0,1,2-.94,3.26,3.26,0,0,0,.53-.18,5.44,5.44,0,0,0-.64-.35,2.17,2.17,0,0,1-1.48-1.78,1,1,0,0,1,0-.63,3,3,0,0,1,1.45-1.47A6.81,6.81,0,0,1,58,67.85C58.43,67.82,60.13,67.83,60.74,67.87Z"/><path class="cls-1" d="M56.82,69s.08.08.18.11l.18,0v2.5l-.17,0c-.11,0-.17,0-.18.1s0,.08.56.08.57,0,.57-.07-.06-.08-.15-.11l-.16,0V70.57h.5a1.52,1.52,0,0,0,.73-.11.8.8,0,0,0-.15-1.5,7.28,7.28,0,0,0-1.89,0Zm1.89.33a.43.43,0,0,1,.16.41.64.64,0,0,1-.26.57,2,2,0,0,1-.54.08l-.44,0V69.14h.46c.45,0,.45,0,.62.16Zm44.14-.21s-.24.6-.5,1.28-.49,1.27-.52,1.32a.31.31,0,0,1-.17.12c-.06,0-.12.06-.12.1s.09.07.45.07.46,0,.46-.07a.09.09,0,0,0-.09-.08.29.29,0,0,1-.17-.06c-.09-.06-.09-.08,0-.46l.15-.4h1.08l.14.4c.13.43.12.54-.08.54a.09.09,0,0,0-.09.08s.09.07.41.08h.51c.15,0,.16-.15,0-.18s-.19-.1-.69-1.45c-.24-.64-.45-1.19-.46-1.24S102.9,69,102.85,69.09Zm.33,1,.22.59h-.46a1.14,1.14,0,0,1-.45,0s.09-.27.19-.55l.22-.58c0-.1,0-.07.28.58Zm-42.57.27c-.39.65-.74,1.21-.78,1.25a.35.35,0,0,1-.18.06q-.12,0-.12.09c0,.07.06.1.35.14l.43.08s.08,0,.08-.06a.12.12,0,0,0-.12-.12c-.08,0-.12-.07-.12-.12a2.74,2.74,0,0,1,.42-.76l.53.09.5.1a3.8,3.8,0,0,1,.09.84s-.09,0-.17,0-.13,0-.13.09.07.1.47.16.5.08.52.08,0-.14-.06-.18-.16-.14-.46-1.8c-.11-.61-.21-1.11-.21-1.11a.8.8,0,0,0-.17,0l-.16,0Zm.84-.11c.1.55.1.62,0,.62a5.32,5.32,0,0,1-.79-.15,2.94,2.94,0,0,1,.29-.58,3.83,3.83,0,0,1,.33-.53S61.39,69.93,61.45,70.27Zm38.63-1c-.39.07-.48.09-.47.15s.07.08.16.09a.42.42,0,0,1,.2.07s.12.57.22,1.21c.19,1.22.19,1.28,0,1.28s-.12,0-.12.1,0,.1.18.07l.57-.08c.32,0,.39-.07.38-.13s-.07-.08-.16-.09a.34.34,0,0,1-.2-.08,16.43,16.43,0,0,1-.36-2.35.25.25,0,0,1,.17-.12c.09,0,.14,0,.14-.11S100.74,69.18,100.08,69.27Zm-1.65.27a7.12,7.12,0,0,1-1.79.45.07.07,0,0,0-.08,0s-.08.18-.12.64c0,.28,0,.29.08.28s.11-.07.16-.22a.94.94,0,0,1,.19-.34c.14-.16.47-.28.54-.2A22.94,22.94,0,0,1,98,72.43a.25.25,0,0,1-.14.15c-.14.07-.19.2-.07.2a8.64,8.64,0,0,0,1-.27s0-.05,0-.09-.07-.06-.18,0-.17,0-.21-.07-.62-2.19-.62-2.29.14-.13.4-.13a.74.74,0,0,1,.58.28c.06.07.13.11.18.09s.1-.07-.16-.44-.32-.4-.41-.28Zm-34.79.21s0,.08,0,.09.27.24.48.84a5.06,5.06,0,0,1,.23.72,3.63,3.63,0,0,1-.68.49c-.53.34-.7.42-.84.42-.32,0-.22.12.21.26l.45.15s.06,0,.08-.08,0-.1-.09-.12-.12,0-.12-.09a6.77,6.77,0,0,1,1.11-.78s.41,1.2.41,1.24-.07,0-.15,0-.16,0-.17.06.12.12.51.24a2.49,2.49,0,0,0,.55.15.11.11,0,0,0-.06-.17.39.39,0,0,1-.15-.14,15.93,15.93,0,0,1-.57-1.58,3.18,3.18,0,0,1,.6-.44c.53-.33.63-.38.76-.35s.16,0,.16-.06-.84-.4-.91-.3,0,.08.07.12.12.08.12.11a4,4,0,0,1-.92.66s-.09-.24-.18-.52c-.17-.52-.17-.59,0-.54s.12,0,.14-.05a.2.2,0,0,0,0-.08l-.55-.18c-.46-.14-.53-.15-.56-.09Zm31.48.8c-.39.13-.52.19-.52.25s0,.08.18.06.19,0,.25.11.72,2.06.72,2.15-.07.12-.14.17-.12.11-.11.16.07.06.5-.09l.54-.18a.06.06,0,0,0,0-.09c0-.06-.07-.07-.18,0s-.17,0-.23-.08-.22-.57-.42-1.14c-.38-1.15-.38-1.12,0-1.29,0,0,0,0,0-.08S95.55,70.41,95.12,70.55ZM93.6,71a6.93,6.93,0,0,1-1.75.67h-.12v.46l0,.46h.13c.09,0,.11,0,.11-.14a.79.79,0,0,1,.28-.58c.16-.13.37-.21.42-.16a23.75,23.75,0,0,1,.85,2.3.36.36,0,0,1-.14.13c-.13.06-.16.13-.08.17a2.72,2.72,0,0,0,1-.42c0-.07,0-.08-.17,0s-.2,0-.26-.1S93,71.61,93,71.56s.23-.15.45-.15a.69.69,0,0,1,.56.23c.11.1.14.11.2,0s0-.11-.22-.41S93.63,70.87,93.6,71Zm-3,1.24s0,.07,0,.11,0,.09-.31.09a1.23,1.23,0,0,0-1.11.55.68.68,0,0,0,.36,1,3.57,3.57,0,0,0,.91,0c.84,0,.92,0,1,.25s.07.18,0,.38a1,1,0,0,1-1.63.13c-.17-.14-.21-.15-.27-.11s0,.11.2.48.39.53.42.27,0-.14.14-.11a1.39,1.39,0,0,0,1.39-.5.7.7,0,0,0,.08-.8c-.2-.4-.38-.45-1.64-.4-.48,0-.64,0-.73-.26a.54.54,0,0,1,.34-.57,1.13,1.13,0,0,1,1.2.16c.16.11.19.12.25.06s0-.12-.19-.43-.3-.4-.37-.33Zm-22.26.36a.58.58,0,0,0-.18.52.49.49,0,0,0,1,0,.58.58,0,0,0-.21-.52.72.72,0,0,0-.56,0Zm3.53.44c-.06.06,0,.11.11.18s.15.1.15.13-.78,2.13-.85,2.22a.21.21,0,0,1-.23.06c-.11,0-.15,0-.17,0s0,.09.21.16l1.15.43c.5.18.93.33,1,.32a1.77,1.77,0,0,0,.33-.36c.23-.27.27-.35.22-.4s-.08,0-.26.09a1.09,1.09,0,0,1-.79.24,2.43,2.43,0,0,1-1-.4,3.56,3.56,0,0,1,.17-.56c.12-.33.2-.48.26-.48a1.46,1.46,0,0,1,.31.11c.28.13.35.26.27.5s0,.15,0,.19.09,0,.11,0l.24-.61c.2-.53.2-.56.11-.59h-.1a1,1,0,0,0-.08.16c-.11.2-.28.24-.6.14-.14,0-.26-.11-.26-.14a4.44,4.44,0,0,1,.17-.52c.2-.51.13-.49.74-.26l.51.23a.9.9,0,0,1,.34.63c0,.1,0,.13.1.13s.09,0,.09-.42v-.42L73,73.42C71.82,73,71.92,73,71.87,73.05Zm15.73.31c-.46.17-.59.3-.26.28s.25,0,.59.93.35,1.08.16,1.36a.88.88,0,0,1-.83.38c-.42,0-.53-.18-.9-1.16a7.81,7.81,0,0,1-.31-.91.21.21,0,0,1,.12-.15.18.18,0,0,0,.12-.14s0-.08,0-.08l-1.06.39s0,0,0,.09.06.07.17,0,.16,0,.21,0a6.48,6.48,0,0,1,.38.9,8.64,8.64,0,0,0,.43,1,1.17,1.17,0,0,0,1.28.26,1.28,1.28,0,0,0,.74-.72c.08-.3,0-.51-.29-1.36a8.66,8.66,0,0,1-.28-.86.19.19,0,0,1,.12-.15c.06,0,.12-.09.12-.14S88.1,73.18,87.6,73.36ZM74.87,74.45c-.23.3-.26.36-.2.41s.1,0,.23-.08a.74.74,0,0,1,.66-.23c.38,0,.38,0,0,1.19-.19.59-.38,1.13-.41,1.19s-.1.11-.23.08-.16,0-.18,0,0,.08,0,.09a6.84,6.84,0,0,0,1.06.29c.07-.05,0-.09-.1-.17s-.14-.12-.14-.19.17-.6.37-1.2c.4-1.2.36-1.14.72-1a.83.83,0,0,1,.38.63c0,.11,0,.13.12.13s.13,0,.1-.18,0-.31,0-.48,0-.29-.12-.27a7.15,7.15,0,0,1-1.8-.56c-.05-.13-.15-.06-.42.28Zm9.17.23c-.37.12-.46.16-.46.23s0,.09.14.06a.37.37,0,0,1,.22,0,11.55,11.55,0,0,1,.64,2,.69.69,0,0,1-.73.64c-.28,0-.46-.15-.46-.37s-.12-.29-.23-.29-.2.14-.2.27a.71.71,0,0,0,.38.53,1.32,1.32,0,0,0,.86,0,1.06,1.06,0,0,0,.76-.86,6.49,6.49,0,0,0-.27-1c-.35-1.1-.35-1.08-.17-1.18s.18-.17,0-.19A4.26,4.26,0,0,0,84,74.68Zm-4.53,1.57a.46.46,0,0,0-.12.74.44.44,0,0,0,.68,0,.43.43,0,0,0,0-.62A.46.46,0,0,0,79.51,76.25Z"/></svg>