<svg xmlns="http://www.w3.org/2000/svg" width="229" height="145"><defs><linearGradient id="a" x1="50%" x2="50%" y1="0%" y2="100%"><stop offset="0%" stop-color="#FF6444"/><stop offset="100%" stop-color="#FF444F"/></linearGradient></defs><g fill="none" fill-rule="evenodd"><path fill="#E5E5E5" fill-rule="nonzero" d="M54.179 119.494c8.056 0 13.628-2.945 16.716-8.836 3.089-5.891 4.633-14.192 4.633-24.903v-26.51c0-10.71-1.544-19.012-4.633-24.903-3.088-5.891-8.66-8.836-16.716-8.836-8.057 0-13.629 2.945-16.717 8.836-3.089 5.891-4.633 14.192-4.633 24.903v26.51c0 10.71 1.544 19.012 4.633 24.903 3.088 5.891 8.66 8.836 16.717 8.836zM54.179 0c18.395 0 32.023 6.36 40.885 19.079 8.862 12.72 13.293 30.526 13.293 53.421s-4.43 40.702-13.293 53.421C86.202 138.641 72.574 145 54.18 145c-18.396 0-32.024-6.36-40.886-19.079C4.43 113.201 0 95.395 0 72.5s4.43-40.702 13.293-53.421C22.155 6.359 35.783 0 54.179 0zm157.097 2.41v89.972H229v23.297h-17.724v26.911h-28.801v-26.911h-61.832V89.972L175.426 2.41h35.85zm-28.801 31.129h-2.014l-35.65 58.843h37.664V33.54z" opacity=".295"/><path d="M24 54.375h64v64H24z"/><path fill="url(#a)" fill-rule="nonzero" d="M33.693 39.214l.116.011c.546.084.92.595.837 1.14l-2 13-.025.115a1 1 0 01-1.952-.418l2-13 .024-.115c.133-.482.61-.8 1.116-.722zm-7.149.71a.999.999 0 011.32 1.497l-5.293 5.292 5.793 5.794a.999.999 0 01-1.32 1.497l-.094-.083-6-6a1.016 1.016 0 01-.205-.296 1.002 1.002 0 01-.295-1.618l6-6zm12.226 0l.094.083 6 6a.999.999 0 01-.295 1.619.987.987 0 01-.205.295l-6 6-.094.083a1 1 0 01-1.32-1.497l5.793-5.794-5.293-5.292a1 1 0 011.32-1.498zm9.42-22.118l.072.123a14.57 14.57 0 011.256-.043c.056 0 .112.006.166.016 7.425.129 13.607 6.011 14.26 13.68.658 7.74-4.537 14.695-11.975 16.067l-.32.055-2.486.29c-.543.063-1.033-.34-1.095-.898-.057-.52.276-.991.759-1.106l.114-.02 2.443-.284c6.538-1.057 11.165-7.142 10.588-13.925-.569-6.68-5.99-11.79-12.492-11.824l-.305.003c-.27 0-.552.009-.842.027a12.588 12.588 0 00-7.88 3.714c-2.412 2.438-3.784 5.761-3.815 9.24a1.005 1.005 0 01-.998 1.01 1.006 1.006 0 01-.981-1.028c.035-4.019 1.62-7.859 4.406-10.675a14.608 14.608 0 017.062-3.967c-3.647-5.67-10.083-8.838-16.732-8.125-7.114.763-13.098 5.821-15.207 12.854a.99.99 0 01-.987.717c-3.982-.171-7.73 1.934-9.745 5.472a11.357 11.357 0 00.13 11.422c2.036 3.395 5.683 5.394 9.542 5.254l.322-.016.104-.002 1.994.082c.546.022.971.496.95 1.058-.02.521-.419.936-.913.975l-.116.002-1.947-.08-.271.015c-4.479.181-8.723-2.072-11.174-5.933L1.9 41.67a13.444 13.444 0 01-.152-13.52c2.218-3.897 6.213-6.325 10.554-6.481l.226-.006.009-.023c2.49-7.297 8.79-12.533 16.272-13.485l.381-.045c7.644-.82 15.034 2.979 19 9.696z" transform="translate(24 54.375)"/></g></svg>