<svg xmlns="http://www.w3.org/2000/svg" width="231" height="145"><defs><linearGradient id="a" x1="51.713%" x2="48.287%" y1="0%" y2="113.805%"><stop offset="0%" stop-color="#FF6444"/><stop offset="100%" stop-color="#FF444F"/></linearGradient><linearGradient id="b" x1="51.628%" x2="48.372%" y1="0%" y2="113.805%"><stop offset="0%" stop-color="#FF6444"/><stop offset="100%" stop-color="#FF444F"/></linearGradient><linearGradient id="c" x1="100%" x2="0%" y1="49.265%" y2="50.937%"><stop offset="0%" stop-color="#FF6444"/><stop offset="100%" stop-color="#FF444F"/></linearGradient><linearGradient id="d" x1="50.695%" x2="49.305%" y1="0%" y2="113.805%"><stop offset="0%" stop-color="#FF6444"/><stop offset="100%" stop-color="#FF444F"/></linearGradient><linearGradient id="e" x1="50.391%" x2="49.609%" y1="0%" y2="113.805%"><stop offset="0%" stop-color="#FF6444"/><stop offset="100%" stop-color="#FF444F"/></linearGradient><linearGradient id="f" x1="136.345%" x2="-44.033%" y1="55.142%" y2="175.412%"><stop offset="0%" stop-color="#FF6444"/><stop offset="100%" stop-color="#FF444F"/></linearGradient><linearGradient id="g" x1="136.345%" x2="-44.033%" y1="55.142%" y2="175.412%"><stop offset="0%" stop-color="#FF6444"/><stop offset="100%" stop-color="#FF444F"/></linearGradient><linearGradient id="h" x1="72.596%" x2="25.392%" y1="55.469%" y2="183.373%"><stop offset="0%" stop-color="#FF6444"/><stop offset="100%" stop-color="#FF444F"/></linearGradient><linearGradient id="i" x1="136.345%" x2="-44.033%" y1="51.237%" y2="80.173%"><stop offset="0%" stop-color="#FF6444"/><stop offset="100%" stop-color="#FF444F"/></linearGradient><linearGradient id="j" x1="136.345%" x2="-44.033%" y1="51.891%" y2="96.109%"><stop offset="0%" stop-color="#FF6444"/><stop offset="100%" stop-color="#FF444F"/></linearGradient><linearGradient id="k" x1="136.345%" x2="-44.033%" y1="51.672%" y2="90.768%"><stop offset="0%" stop-color="#FF6444"/><stop offset="100%" stop-color="#FF444F"/></linearGradient><linearGradient id="l" x1="3.656%" x2="117.089%" y1="46.879%" y2="54.861%"><stop offset="0%" stop-color="#FF6544"/><stop offset="100%" stop-color="#FF4449"/></linearGradient><linearGradient id="m" x1="50%" x2="50%" y1="0%" y2="100%"><stop offset="0%" stop-color="#FF6444"/><stop offset="100%" stop-color="#FF444F"/></linearGradient></defs><g fill="none" fill-rule="evenodd"><path fill="#E5E5E5" fill-rule="nonzero" d="M56.439 144.4c-18.925 0-32.946-6.333-42.063-19C5.259 112.733.7 95 .7 72.2.7 49.4 5.259 31.667 14.376 19 23.493 6.333 37.514 0 56.439 0s32.946 6.333 42.063 19c9.117 12.667 13.675 30.4 13.675 53.2 0 22.8-4.558 40.533-13.675 53.2-9.117 12.667-23.138 19-42.063 19zm0-25.4c8.288 0 14.02-2.933 17.198-8.8 3.177-5.867 4.766-14.133 4.766-24.8V59c0-10.667-1.589-18.933-4.766-24.8-3.177-5.867-8.91-8.8-17.198-8.8-8.289 0-14.021 2.933-17.198 8.8-3.178 5.867-4.766 14.133-4.766 24.8v26.4c0 10.667 1.588 18.933 4.766 24.8 3.177 5.867 8.91 8.8 17.198 8.8zm116.45-61.4c7.736 0 13.365-1.433 16.888-4.3 3.522-2.867 5.283-6.433 5.283-10.7v-1.4c0-5.067-1.692-9.133-5.076-12.2-3.385-3.067-8.185-4.6-14.401-4.6-5.802 0-11.258 1.433-16.37 4.3-5.11 2.867-9.462 6.967-13.054 12.3l-19.477-17.6a79.464 79.464 0 018.91-9.5c3.177-2.867 6.769-5.333 10.775-7.4s8.495-3.667 13.468-4.8C164.808.567 170.403 0 176.62 0c7.736 0 14.746.867 21.031 2.6 6.286 1.733 11.673 4.233 16.163 7.5 4.49 3.267 7.943 7.167 10.36 11.7 2.417 4.533 3.626 9.6 3.626 15.2 0 4.4-.725 8.4-2.176 12-1.45 3.6-3.453 6.733-6.009 9.4a32.036 32.036 0 01-8.806 6.5 38.464 38.464 0 01-10.567 3.5v1.2c4.282.8 8.253 2.1 11.914 3.9 3.66 1.8 6.838 4.1 9.531 6.9 2.694 2.8 4.8 6.1 6.32 9.9 1.52 3.8 2.28 8.1 2.28 12.9 0 6.267-1.313 11.933-3.937 17-2.625 5.067-6.355 9.4-11.19 13-4.834 3.6-10.636 6.367-17.405 8.3-6.769 1.933-14.228 2.9-22.378 2.9-7.322 0-13.814-.733-19.478-2.2-5.663-1.467-10.602-3.433-14.815-5.9-4.213-2.467-7.874-5.3-10.982-8.5a67.786 67.786 0 01-8.185-10.2l23-17.2c3.177 5.733 7.08 10.433 11.707 14.1 4.628 3.667 10.879 5.5 18.753 5.5 7.045 0 12.536-1.7 16.473-5.1 3.937-3.4 5.905-8.033 5.905-13.9v-1.2c0-5.733-2.245-10.033-6.734-12.9-4.49-2.867-10.671-4.3-18.545-4.3H159.42v-25h13.468z" opacity=".295"/><g transform="translate(25.7 55)"><path stroke="url(#a)" stroke-linecap="round" stroke-linejoin="round" stroke-width="2" d="M63.938 55V16h-7.22"/><path stroke="url(#b)" stroke-linecap="round" stroke-linejoin="round" stroke-width="2" d="M9.281 16H2.585c-.62 0-.516.348-.516.963L2.063 56"/><path stroke="url(#c)" stroke-width="2" d="M25.634 56.015H1.006v5.844c0 .173-.03.141.048.141H64.83c-.022-.004-.018-.019.005-.06.1-.184.166-.447.166-.651v-5.276a3.693 3.693 0 00-.212-.011 9.277 9.277 0 00-.518.005 10.85 10.85 0 01-.365.008h-24.58l-2.095 3.422h-9.5l-2.096-3.422zM64.83 62h.123c-.064 0-.104.004-.123 0z"/><path stroke="url(#d)" stroke-linecap="round" stroke-linejoin="round" stroke-width="2" d="M60.844 55V20h-4.125"/><path stroke="url(#e)" stroke-linecap="round" stroke-linejoin="round" stroke-width="2" d="M8.25 20H6.187c-.569 0-1.03.448-1.03 1v34"/><ellipse cx="33" cy="21" stroke="url(#f)" stroke-width="2" rx="20.656" ry="20"/><path stroke="url(#g)" stroke-dasharray="10" stroke-linecap="round" stroke-linejoin="round" stroke-width="2" d="M33 37c9.113 0 16.5-7.163 16.5-16S42.113 5 33 5s-16.5 7.163-16.5 16S23.887 37 33 37z"/><g fill-rule="nonzero"><path fill="url(#h)" d="M4.19 1v2.032c0 .552.462 1 1.032 1 .57 0 1.031-.448 1.031-1V1c0-.552-.462-1-1.031-1-.57 0-1.032.448-1.032 1z" transform="translate(27.844 12)"/><path fill="url(#i)" d="M.68 8.035l8.25 2.905c.535.188 1.126-.08 1.32-.599a.992.992 0 00-.617-1.281l-8.25-2.905c-.535-.188-1.127.08-1.321.599a.992.992 0 00.617 1.281z" transform="translate(27.844 12)"/><path fill="url(#j)" d="M10.313 14.063C10.313 10.85 8.838 9 5.745 9 2.489 9 0 11.043 0 14.063c0 .553.462 1 1.031 1 .57 0 1.032-.447 1.032-1C2.063 12.228 3.558 11 5.745 11c1.82 0 2.504.858 2.504 3.063 0 .553.462 1 1.031 1 .57 0 1.031-.447 1.031-1z" transform="matrix(1 0 0 -1 27.844 36.063)"/><path fill="url(#k)" d="M10.967 6.095c0-3.077-2.048-5.063-5.221-5.063C2.489 1.032 0 3.075 0 6.095c0 .553.462 1 1.031 1 .57 0 1.032-.447 1.032-1 0-1.835 1.496-3.063 3.683-3.063 2.034 0 3.159 1.09 3.159 3.063 0 .553.461 1 1.031 1 .57 0 1.031-.447 1.031-1z" transform="translate(27.844 12)"/><path fill="url(#h)" d="M4.19 15v2.032c0 .552.462 1 1.032 1 .57 0 1.031-.448 1.031-1V15c0-.552-.462-1-1.031-1-.57 0-1.032.448-1.032 1z" transform="translate(27.844 12)"/></g><path fill="url(#l)" d="M16.274 46h24.17c.537 0 .806.333.806 1s-.269 1-.806 1h-24.17c-.537 0-.805-.333-.805-1s.268-1 .805-1z"/><path fill="url(#m)" fill-rule="nonzero" d="M17.808 44.64a.98.98 0 00-.132-1.408 1.054 1.054 0 00-1.453.128l-2.578 3a.977.977 0 000 1.28l2.578 3a1.054 1.054 0 001.453.128.98.98 0 00.132-1.408L15.78 47l2.028-2.36z"/><path fill="url(#l)" d="M23.493 43h24.17c.537 0 .806.333.806 1s-.269 1-.806 1h-24.17c-.537 0-.805-.333-.805-1s.268-1 .805-1z" transform="matrix(-1 0 0 1 71.156 0)"/><path fill="url(#m)" fill-rule="nonzero" d="M50.292 41.64a.98.98 0 00-.132-1.408 1.054 1.054 0 00-1.452.128l-2.578 3a.977.977 0 000 1.28l2.578 3a1.054 1.054 0 001.452.128.98.98 0 00.132-1.408L48.264 44l2.028-2.36z" transform="matrix(-1 0 0 1 96.422 0)"/></g></g></svg>