<svg xmlns="http://www.w3.org/2000/svg" width="64" height="64">&gt;<g fill="none"><path fill="#85ACB0" d="M0 29.915a1 1 0 01.3-.716l5-4.913a.998.998 0 011.414.015c.387.395.38 1.03-.014 1.417L2 30.336V60.72c.022.74.565 1.293 1.21 1.274h57.61c.615.019 1.158-.534 1.18-1.244V30.336l-4.7-4.618a1.004 1.004 0 01-.014-1.417.998.998 0 011.414-.015l5 4.913a1 1 0 01.3.716V60.78c-.055 1.816-1.487 3.272-3.21 3.219H3.24c-1.753.053-3.185-1.403-3.24-3.25V29.916zM25.34 7.714a371.781 371.781 0 015.405-5.225 1.858 1.858 0 012.517.006 372.263 372.263 0 015.397 5.219 1 1 0 001.402-1.428 373.398 373.398 0 00-5.436-5.255 3.862 3.862 0 00-5.243-.006 372.93 372.93 0 00-5.443 5.261 1 1 0 101.402 1.428z"/><path fill="#1A1A1A" d="M7.376 8.187a1 1 0 01.746-.197L8.26 8h47.48l.138-.01A1 1 0 0157 8.804V33h2V8.73l-.008-.125A3 3 0 0055.678 6H8.322a3 3 0 00-3.314 2.605L5 8.73V33h2V8.804a1 1 0 01.376-.617z"/><path fill="#1A1A1A" d="M5 16.688l2 .004c-.001.462.298.868.725.991 3.1.875 10.404 3.135 19.502 6l-.586 1.966c-9.073-2.857-16.373-5.115-19.451-5.983-1.297-.375-2.193-1.592-2.19-2.978zm32.402 9l-.57-1.972 19.453-5.944c.425-.13.716-.532.715-.988l2-.003c.002 1.367-.87 2.573-2.145 2.962l-19.453 5.945z"/><path fill="#FF444F" d="M28 30a2 2 0 01-2-2v-6a2 2 0 012-2h8a2 2 0 012 2v6a2 2 0 01-2 2v7h-2v-7h-4v7h-2v-7zm0-2h8v-6h-8v6z"/><path fill="#85ACB0" d="M43.305 42.44c1.5 1.152 3.138 2.414 4.901 3.777l.309.238A3128.736 3128.736 0 0163.279 57.95l.338.264a1 1 0 01-1.234 1.574l-.337-.264a2441.482 2441.482 0 00-4.36-3.408c-3.53-2.753-7.072-5.507-10.395-8.077l-.308-.239c-6.555-5.067-11.386-8.745-13.721-10.423-.766-.502-1.758-.502-2.489-.024-2.37 1.702-7.201 5.38-13.756 10.447l-.308.239A3126.779 3126.779 0 001.954 59.523l-.337.264a1 1 0 11-1.234-1.574l.338-.264a2443.764 2443.764 0 014.363-3.41c3.532-2.756 7.076-5.511 10.401-8.084l.309-.238c1.762-1.363 3.4-2.625 4.901-3.776L4.532 33.884a1 1 0 11.936-1.768l16.974 8.987c3.228-2.467 5.683-4.31 7.2-5.4 1.432-.939 3.284-.939 4.751.025 1.495 1.073 3.94 2.91 7.165 5.375l16.974-8.987a1 1 0 11.936 1.768L43.305 42.44z"/></g></svg>