<svg xmlns="http://www.w3.org/2000/svg" width="32" height="32"><g fill="none" fill-rule="evenodd"><path d="M0 0h32v32H0z"/><g transform="translate(4 8)" fill-rule="nonzero"><path fill="#124590" d="M0 11h24v3a2 2 0 0 1-2 2H2a2 2 0 0 1-2-2v-3z"/><path fill="#FFF" d="M0 5h24v6H0z"/><path fill="#BE0020" d="M2 0h20a2 2 0 0 1 2 2v3H0V2a2 2 0 0 1 2-2z"/><rect width="23" height="15" x=".5" y=".5" stroke="#000" stroke-opacity=".04" rx="1"/></g><g transform="translate(19 2)"><rect width="11" height="8" fill="#0E0E0E" rx="1"/><path fill="#FFF" fill-rule="nonzero" d="M5.098 6v-.444H2.896l1.128-1.014c.132-.12.255-.24.369-.36.114-.12.211-.243.291-.369.08-.126.143-.259.189-.399.046-.14.069-.292.069-.456 0-.18-.029-.344-.087-.492a1.108 1.108 0 0 0-.249-.384 1.11 1.11 0 0 0-.402-.252c-.16-.06-.342-.09-.546-.09-.204 0-.381.028-.531.084a1.242 1.242 0 0 0-.648.537c-.07.118-.125.239-.165.363l.45.174c.028-.1.065-.193.111-.279a.837.837 0 0 1 .174-.225.76.76 0 0 1 .249-.15.955.955 0 0 1 .336-.054c.26 0 .454.072.582.216.128.144.192.332.192.564v.072c0 .204-.066.407-.198.609s-.296.393-.492.573L2.35 5.484V6h2.748zm2.172.072c.22 0 .417-.034.591-.102a1.217 1.217 0 0 0 .723-.723 1.58 1.58 0 0 0 .096-.561c0-.204-.031-.386-.093-.546a1.132 1.132 0 0 0-.657-.66 1.345 1.345 0 0 0-.498-.09c-.22 0-.393.042-.519.126a1.317 1.317 0 0 0-.339.336h-.042l.12-1.596h1.836v-.444H6.244l-.15 2.304.426.06c.088-.096.187-.179.297-.249.11-.07.261-.105.453-.105.288 0 .506.076.654.228.148.152.222.366.222.642v.06c0 .276-.074.49-.222.642-.148.152-.366.228-.654.228-.128 0-.238-.013-.33-.039-.092-.026-.173-.063-.243-.111s-.134-.106-.192-.174a1.856 1.856 0 0 1-.165-.228l-.378.288c.064.092.135.18.213.264a1.358 1.358 0 0 0 .63.39c.134.04.289.06.465.06z"/></g></g></svg>