<svg xmlns="http://www.w3.org/2000/svg" fill="none" viewBox="0 0 48 48"><path d="M31.6 43c-1 0-2-.4-2.8-1.2l-7.3-7.6c-1-1-1-2.7 0-3.7l1.4-1.4c1-1 2.5-1 3.5 0l2 2v-6.9c0-1.4 1-2.6 2.5-2.6h1.5c1.4 0 2.5 1.2 2.5 2.6v7l2-2c1-1 2.5-1 3.5 0l1.3 1.3c.5.5.8 1.2.8 1.9 0 .6-.3 1.3-.8 1.8l-7.2 7.5a4 4 0 0 1-2.8 1.3Zm-7-12.6c-.1 0-.3 0-.4.2L23 31.9c-.2.3-.2.7 0 .9l7.2 7.5a2 2 0 0 0 3 0l7.2-7.5.2-.4c0-.2 0-.3-.2-.5L39 30.6a.6.6 0 0 0-.8 0L35.7 33c-.4.5-1.1.6-1.7.4a2 2 0 0 1-1-1.6v-7.7c0-.3-.3-.6-.6-.6h-1.6c-.3 0-.6.3-.6.6V32c0 .7-.4 1.3-1 1.6-.6.2-1.3 0-1.7-.4L25 30.6a.6.6 0 0 0-.4-.2Zm-7-4H16a2.6 2.6 0 0 1-2.5-2.7v-7l-2 2.1c-.9 1-2.5 1-3.4 0l-1.4-1.4c-.5-.5-.7-1.1-.7-1.8s.3-1.4.7-1.8L14 6.2a4 4 0 0 1 5.8 0l7.2 7.6c1 1 1 2.6 0 3.7l-1.3 1.3c-1 1-2.6 1-3.6 0l-2-2v7c0 1.4-1 2.6-2.4 2.6Zm-3.8-12h.7c.6.3 1 1 1 1.6v7.7c0 .3.2.6.6.6h1.5c.4 0 .6-.3.6-.6V16c0-.6.4-1.3 1-1.5.6-.3 1.3-.1 1.8.3l2.4 2.6c.3.2.6.2.8 0l1.4-1.4c.2-.2.2-.6 0-.8l-7.3-7.6a2 2 0 0 0-3 0l-7.2 7.6-.1.4.1.4 1.3 1.4c.3.3.6.3.9 0l2.4-2.5c.3-.3.7-.5 1.2-.5Z" fill="#000" fill-opacity=".7"/></svg>