<svg xmlns="http://www.w3.org/2000/svg" xmlns:xlink="http://www.w3.org/1999/xlink" width="160" height="80" viewBox="0 0 160 80">
    <defs>
        <path id="prefix__a" d="M.108 30.02c0 16.558 13.403 29.982 29.935 29.982 16.533 0 29.936-13.424 29.936-29.983C59.979 13.461 46.576.037 30.043.037 13.511.037.108 13.46.108 30.019z"/>
        <path id="prefix__c" d="M.108 30.02c0 16.558 13.403 29.982 29.935 29.982 16.533 0 29.936-13.424 29.936-29.983C59.979 13.461 46.576.037 30.043.037 13.511.037.108 13.46.108 30.019z"/>
    </defs>
    <g fill="none" fill-rule="evenodd">
        <g transform="translate(40) translate(11 11)">
            <mask id="prefix__b" fill="#fff">
                <use xlink:href="#prefix__a"/>
            </mask>
            <path fill="#85ACB0" d="M61.715 31.214L42.54 40.244 39.096 61.186 24.595 45.709 3.648 48.9 13.861 30.306 4.358 11.336 25.172 15.319 40.246 0.406 42.896 21.462z" mask="url(#prefix__b)"/>
            <g>
                <mask id="prefix__d" fill="#fff">
                    <use xlink:href="#prefix__c"/>
                </mask>
                <path fill="#85ACB0" d="M54.966 9.748L45.858 28.909 56.453 47.287 35.445 44.533 21.267 60.307 17.39 39.441 -1.968 30.812 16.645 20.671 18.859 -0.434 34.239 14.161z" mask="url(#prefix__d)"/>
            </g>
        </g>
        <path fill="#85ACB0" d="M39.969 12.536c15.167 0 27.462 12.264 27.462 27.391 0 15.128-12.295 27.391-27.462 27.391s-27.463-12.263-27.463-27.39c0-15.128 12.296-27.392 27.463-27.392" transform="translate(40)"/>
        <path fill="#F4F4F4" d="M66.912 39.927c0 14.842-12.063 26.874-26.943 26.874S13.025 54.77 13.025 39.927c0-14.842 12.063-26.873 26.944-26.873 14.88 0 26.943 12.031 26.943 26.873z" transform="translate(40)"/>
        <path fill="#85ACB0" d="M39.969 70.404C23.133 70.404 9.485 56.792 9.485 40S23.133 9.596 39.97 9.596c16.835 0 30.483 13.612 30.483 30.404S56.804 70.404 39.97 70.404m0-69.423C18.402.98.919 18.417.919 39.927c0 21.511 17.483 38.949 39.05 38.949 21.566 0 39.05-17.438 39.05-38.949 0-21.51-17.484-38.946-39.05-38.946" transform="translate(40)"/>
        <path stroke="#85ACB0" stroke-width=".636" d="M39.969.166c22.016 0 39.864 17.802 39.864 39.761 0 21.96-17.848 39.761-39.864 39.761-22.017 0-39.865-17.801-39.865-39.76C.104 17.967 17.952.165 39.97.165z" transform="translate(40)"/>
        <g fill="#85ACB0">
            <path d="M23.433 32.51c-.079-.963-1.25-2.677-2.008-3.17-1.758-1.136-3.75-1.623-5.781-1.9-3.65-.498-7.292-.4-10.852.624-1.4.404-2.79.894-3.79 2.014-.369.416-.877 1.99-.952 2.533-.067.488 1.225.831 2.015 1.247l4.57 1.203c3.196.464 6.442.458 9.636-.017l4.496-1.19c.883-.416 2.712-.832 2.666-1.345" transform="translate(40) translate(28.333 31.584)"/>
            <path d="M4.433 3.771c-.025-1.02.417-1.739 1.182-2.327 4.012-1.691 8.023-1.702 12.035 0 .796.567 1.094 1.322 1.25 2.307.48 3.117 1.998 18.493 2.352 21.712l.175 2.464c-.067.017-.148.058-.164.04-4.948-2.793-13.559-2.662-18.886-.208-.242.127-.527.32-.498-.195.015-.36 2.571-23.155 2.554-23.793M2.925 2.402v-.019c-.008.013-.01.019 0 .019" transform="translate(40) translate(28.333 31.584)"/>
        </g>
        <path fill="#FFF" d="M48.027 47.208v-8.104c0-1.595 1.113-2.26 3.202-2.27.465.01 2.69.01 4.257.01h4.304v1.932c0 .686-.144.933-.88.916-2.229.01-6.579.01-6.929.01-1.325 0-1.468.379-1.475 1.705 0 1.211 0 2.423-.016 3.634 0 .524.1 1.08.706 1.17.337 0 5.396-.019 7.685 0 .625-.01.925.208.909.831 0 1.58.118 1.87-2.38 1.87-2.291-.01-4.523.04-6.708 0-1.775-.068-2.675-.347-2.675-1.704" transform="translate(40)"/>
        <path stroke="#85ACB0" stroke-width=".636" d="M48.027 47.208v-8.104c0-1.595 1.113-2.26 3.202-2.27.465.01 2.69.01 4.257.01h4.304v1.932c0 .686-.144.933-.88.916-2.229.01-6.579.01-6.929.01-1.325 0-1.468.379-1.475 1.705 0 1.211 0 2.423-.016 3.634 0 .524.1 1.08.706 1.17.337 0 5.396-.019 7.685 0 .625-.01.925.208.909.831 0 1.58.118 1.87-2.38 1.87-2.291-.01-4.523.04-6.708 0-1.775-.068-2.675-.347-2.675-1.704z" transform="translate(40)"/>
        <path fill="#FFF" d="M23.038 44.293v3.19c0 1.442 0 1.442-1.7 1.436-.386 0-.771 0-1.157-.01V39.84c0-1.266.815-3.003 2.854-3.003 2.107 0 3.596.025 5.703 0 .833-.01 1.908 0 2.733 0 .544 0 1.106.086 1.014.871v1.937c-2.658 0-5.52 0-8.179.018-.304 0-.702 0-.912.181-.588.416-.625 1.19 0 1.681.3.059.606.089.912.09 2.219.014 4.077 0 6.294 0 1.37 0 1.37.3 1.36 1.298 0 .28.01.59.01.898 0 .478-.36.484-.766.484h-7.25c-.304.015-.558-.002-.916-.002" transform="translate(40)"/>
        <path stroke="#85ACB0" stroke-width=".636" d="M23.038 44.293v3.19c0 1.442 0 1.442-1.7 1.436-.386 0-.771 0-1.157-.01V39.84c0-1.266.815-3.003 2.854-3.003 2.107 0 3.596.025 5.703 0 .833-.01 1.908 0 2.733 0 .544 0 1.106.086 1.014.871v1.937c-2.658 0-5.52 0-8.179.018-.304 0-.702 0-.912.181-.588.416-.625 1.19 0 1.681.3.059.606.089.912.09 2.219.014 4.077 0 6.294 0 1.37 0 1.37.3 1.36 1.298 0 .28.01.59.01.898 0 .478-.36.484-.766.484h-7.25c-.304.015-.558-.002-.916-.002z" transform="translate(40)"/>
        <path fill="#FFF" d="M41.25 36.916c1.575 0 3.148.023 4.72-.012.588-.013.757.174.757.758 0 1.997.023 1.997-2.017 1.997h-7.124c-.178-.011-.356-.011-.534 0-.615.08-1.135.347-1.088 1.04.044.623.515.878 1.132.874 2.019-.01 4.04-.06 6.056 0 2.022.038 3.631 1.703 3.594 3.72-.012.633-.189 1.252-.513 1.797-.687 1.172-1.72 1.87-3.125 1.882-3.125.02-6.233 0-9.35.025-.508 0-.646-.16-.66-.656-.06-2.136-.077-2.136 2.023-2.136h7.66c.598-.042 1.096-.327 1.1-.933 0-.653-.481-.969-1.142-.964-1.989.01-3.978.039-5.966.022-1.652-.014-2.865-.901-3.454-2.447-.873-2.286.858-4.9 3.302-4.952 1.542-.033 3.085 0 4.63 0v-.015z" transform="translate(40)"/>
        <path stroke="#85ACB0" stroke-width=".636" d="M41.25 36.916c1.575 0 3.148.023 4.72-.012.588-.013.757.174.757.758 0 1.997.023 1.997-2.017 1.997h-7.124c-.178-.011-.356-.011-.534 0-.615.08-1.135.347-1.088 1.04.044.623.515.878 1.132.874 2.019-.01 4.04-.06 6.056 0 2.022.038 3.631 1.703 3.594 3.72-.012.633-.189 1.252-.513 1.797-.687 1.172-1.72 1.87-3.125 1.882-3.125.02-6.233 0-9.35.025-.508 0-.646-.16-.66-.656-.06-2.136-.077-2.136 2.023-2.136h7.66c.598-.042 1.096-.327 1.1-.933 0-.653-.481-.969-1.142-.964-1.989.01-3.978.039-5.966.022-1.652-.014-2.865-.901-3.454-2.447-.873-2.286.858-4.9 3.302-4.952 1.542-.033 3.085 0 4.63 0v-.015z" transform="translate(40)"/>
        <g fill="#85ACB0">
            <path d="M.056 17.245s.025-.462.934-1.04c2.89-1.859 12.22-2.169 14.791 0 .625.657.74 1.04.74 1.04l.233-1.82s-1.506-2.67-8.258-2.67c-6.692 0-8.438 2.476-8.438 2.476l-.002 2.014z" transform="translate(40) translate(31.667 15.792)"/>
            <path d="M1.354 14.207v-2.402s1.802-2.222 7.438-2.04c5.525.178 6.443 2.206 6.443 2.206v2.163s-.18-.848-.733-1.124c-4.22-2.107-8.78-1.594-12.154.064-.435.273-.78.667-.994 1.133" transform="translate(40) translate(31.667 15.792)"/>
            <path d="M6.282 3.936c.162 0 .293.13.293.293v5.76c0 .161-.131.293-.293.293-.161 0-.292-.132-.292-.293v-5.76c0-.162.13-.293.292-.293M10.42 3.936c.161 0 .293.13.293.293v5.76c0 .161-.132.293-.293.293-.162 0-.293-.132-.293-.293v-5.76c0-.162.131-.293.293-.293" transform="translate(40) translate(31.667 15.792)"/>
            <path d="M14.033 6.77c-.346-.264-.973-1.488-5.7-1.567-4.41-.073-5.173 1.184-5.66 1.488-.098.062-.156.07-.156.156 0 .085.06.187.156.156 1.137-.638 2.292-1.53 5.66-1.488 2.838.033 3.986.316 5.659 1.637.082.004.152-.06.156-.143v-.013c-.007-.087-.048-.169-.115-.226M14.033 9.047c-.346-.264-.973-1.488-5.7-1.567-4.41-.074-5.173 1.185-5.66 1.488-.098.063-.156.07-.156.156 0 .085.06.185.156.156 1.137-.638 2.292-1.53 5.66-1.488 2.838.033 3.986.316 5.659 1.635.081.005.151-.057.156-.138v-.017c-.007-.087-.048-.168-.115-.225" transform="translate(40) translate(31.667 15.792)"/>
            <path d="M1.69 5.228c-.196-.798.752-1.062 1.041-1.26.44-.292 1.086-.458 1.577-.652.973-.382 1.41-.654 2.454-.7 1.159-.054 1.682-.025 3.036-.025 1.25.087 2.067.582 2.46.74.54.208 1.16.476 1.607.638.529.191 1.362.57 1.008 1.259-.208.416-.527.715-.28.671.349-.06.834-1.022.98-1.336.185-.415-.406-.8-1.304-1.232-.951-.443-1.929-.825-2.927-1.145-1.084-.353-1.748-.763-2.415-1.48-.14-.15-.275-.623-.712-.623-.184 0-.536.478-.642.623-.563.78-1.558 1.16-2.427 1.503-.927.368-1.875.673-2.765 1.145-.498.268-1.01.652-1.09 1.21-.058.415.209 1.167.574 1.358.12-.226-.121-.476-.175-.694M14.602 5.9c.346-.196.833-1.023.98-1.337" transform="translate(40) translate(31.667 15.792)"/>
        </g>
        <path fill="#FFF" d="M3.433 38.824L3.433 39.294 7.16 39.256 7.16 38.787 7.517 38.787 7.552 42.265 6.421 42.277 6.421 41.654 7.158 41.654 7.142 40.062 5.502 40.079 5.502 41.137 5.948 41.137 5.948 41.581 4.665 41.594 4.665 41.151 5.108 41.151 5.108 40.094 3.456 40.11 3.456 40.719 3.094 40.711 3.073 38.828zM3.554 43.071L3.602 43.537 7.306 43.154 7.26 42.687 7.615 42.651 7.796 44.384 7.442 44.422 7.392 43.954 3.69 44.339 3.737 44.804 3.383 44.842 3.204 43.109zM3.785 45.598L3.885 46.057 7.527 45.282 7.429 44.823 7.777 44.748 8.073 46.13 5.252 48.929 5.252 48.96 8.169 48.337 8.071 47.878 8.419 47.805 8.704 49.143 8.356 49.218 8.258 48.758 4.269 49.606 4.135 48.939 7.287 45.808 7.287 45.777 3.981 46.479 4.073 46.944 3.725 47.017 3.437 45.679zM6.635 51.192l.471 1.311 1.692-1.324v-.029l-2.163.042zm-1.762-.715l.11.312 4.325-.025.259.72-3.348 2.719.112.311-.341.119-.578-1.604.336-.119.183.511.865-.692-.546-1.52-1.104.024.183.513-.335.119-.457-1.27.336-.118zM6.573 55.092L6.781 55.508 10.094 53.802 9.885 53.386 10.202 53.222 10.856 54.469 8.888 57.916 8.902 57.945 11.552 56.567 11.344 56.152 11.66 55.988 12.285 57.201 11.971 57.365 11.763 56.949 8.146 58.83 7.827 58.223 10.025 54.365 10.01 54.335 7.013 55.894 7.221 56.309 6.906 56.474 6.281 55.258zM10.63 58.689c1.21-.85 2.353-.638 2.968.232.314.447.34.855.208 1.087l.019.025.31-.218.357.503-1.109.777-.354-.503.254-.178c.338-.237.367-.692.036-1.164-.436-.624-1.084-.597-1.717-.152l-.848.594c-.696.49-.81 1.143-.381 1.75.296.436.837.635 1.346.497l.048.345c-.711.207-1.475-.069-1.888-.682-.698-.989-.352-2.14.75-2.913M11.7 63.293L12.006 63.651 14.835 61.237 14.529 60.879 14.8 60.648 15.935 61.972 15.665 62.203 15.36 61.847 12.531 64.262 12.838 64.617 12.567 64.848 11.427 63.524zM15.077 64.927l1.008.964.921-1.937-.023-.023-1.906.996zm-1.9.141l.24.229 3.86-1.937.554.532-1.787 3.927.24.229-.249.255-1.233-1.18.248-.255.394.378.464-1.006-1.168-1.118-.98.513.394.376-.246.258-.977-.935.246-.266zM16.767 68.411L17.142 68.692 19.375 65.72 19 65.438 19.208 65.155 20.606 66.194 20.398 66.479 20.021 66.196 17.81 69.139 18.96 69.997 19.456 69.338 19.948 69.708 19.217 70.68 16.552 68.688zM22.017 71.954l-.027-.014-.177.33-.544-.289.608-1.14.544.286-.131.247c-.209.38-.059.744.504 1.04.594.315.998.19 1.21-.208.188-.353.102-.624-.325-.998l-.252-.218c-.65-.561-.94-1.151-.558-1.87.341-.644 1.083-.819 1.885-.393.448.237.638.56.625.815l.034.017.164-.308.544.289-.594 1.113-.544-.288.132-.246c.208-.382.048-.714-.507-1.007-.554-.293-.906-.15-1.085.185-.18.334-.07.646.394 1.055l.235.198c.642.56.896 1.14.546 1.795-.369.694-1.154.925-2.03.461-.453-.237-.658-.581-.651-.852M25.06 73.542L25.498 73.712 26.852 70.253 26.415 70.082 26.544 69.752 29.794 71.015 29.377 72.066 28.802 71.842 29.071 71.158 27.583 70.581 27.023 72.014 28.012 72.399 28.173 71.983 28.59 72.145 28.127 73.334 27.71 73.172 27.873 72.756 26.883 72.372 26.258 73.962 27.804 74.562 28.104 73.795 28.679 74.018 28.235 75.152 24.925 73.864zM30.956 73.473l.8.208c.324.12.684-.045.803-.368.014-.036.024-.074.03-.112l.08-.307c.117-.324-.05-.682-.375-.799-.045-.016-.09-.027-.138-.033l-.802-.207-.398 1.618zm-1.735 1.642l.456.114.917-3.599-.454-.116.085-.343 2.225.561c.856.208 1.202.733 1.01 1.49-.15.596-.61.86-1.23.831l.43 1.502c.047.281.26.505.54.566l.042.012-.088.343-.504-.127c-.535-.135-.692-.376-.802-.817l-.388-1.523-.597-.151-.398 1.573.456.116-.088.343-1.693-.416.08-.36zM34.26 72.522L33.933 72.48 33.977 72.127 35.675 72.335 35.629 72.688 35.088 72.619 35.46 74.589 35.729 76.125 35.76 76.125 36.406 74.703 37.24 72.887 36.698 72.819 36.742 72.468 38.092 72.636 38.048 72.987 37.719 72.948 35.844 76.815 35.11 76.721zM38.181 76.669L38.65 76.684 38.754 72.97 38.283 72.956 38.294 72.603 40.042 72.65 40.042 73.006 39.571 72.993 39.469 76.704 39.937 76.719 39.927 77.072 38.181 77.024zM40.594 74.895c-.1-1.474.677-2.34 1.741-2.41.546-.038.909.153 1.042.386h.033l-.027-.379.625-.041.09 1.346-.615.042-.02-.31c-.028-.415-.403-.673-.98-.633-.754.05-1.073.613-1.02 1.383l.068 1.04c.059.847.559 1.284 1.3 1.234.527-.027.979-.384 1.125-.89l.321.137c-.195.71-.827 1.215-1.565 1.247-1.222.08-2.027-.804-2.118-2.152M45.148 76.397L45.611 76.307 44.91 72.659 44.448 72.748 44.381 72.399 47.808 71.744 48.017 72.854 47.41 72.968 47.273 72.247 45.706 72.547 45.996 74.059 47.037 73.852 46.952 73.415 47.39 73.332 47.631 74.589 47.194 74.672 47.111 74.238 46.069 74.435 46.39 76.11 48.019 75.801 47.862 74.99 48.469 74.876 48.698 76.071 45.208 76.736zM50.12 75.29h-.028l.112.357-.587.185-.392-1.232.588-.185.085.265c.13.416.491.563 1.098.372.641-.207.833-.575.7-1.005-.121-.38-.375-.513-.94-.468l-.333.025c-.856.07-1.484-.139-1.727-.912-.22-.696.175-1.345 1.041-1.617.486-.154.848-.062 1.028.123l.035-.012-.104-.333.587-.185.38 1.203-.588.185-.083-.266c-.131-.415-.477-.534-1.077-.345-.563.177-.742.538-.625.902.116.364.416.5 1.03.46l.305-.03c.854-.062 1.446.162 1.667.87.237.751-.148 1.47-1.094 1.767-.498.164-.89.069-1.077-.125M53.99 71.985c-.663-1.321-.284-2.418.672-2.894.488-.243.898-.208 1.109-.044l.027-.014-.171-.339.552-.276.606 1.207-.551.276-.14-.278c-.184-.368-.625-.466-1.148-.208-.675.337-.752.979-.406 1.662l.464.925c.381.758 1.013.968 1.677.636.473-.227.751-.727.694-1.247h.348c.1.732-.287 1.444-.956 1.76-1.086.549-2.173.035-2.777-1.166M60.681 68.763l-.602-.896c-.467-.696-1.129-.862-1.72-.468-.592.395-.682 1.079-.224 1.78l.602.895c.467.696 1.13.862 1.721.467.592-.394.69-1.076.223-1.778m-2.99 1.354c-.801-1.194-.562-2.377.44-3.048 1.002-.671 2.192-.44 2.994.756.802 1.197.562 2.378-.44 3.049-1.002.671-2.19.438-2.993-.757M62.885 68.854L63.231 68.538 60.731 65.793 60.383 66.111 60.131 65.854 61.154 64.923 63.669 65.961 63.694 65.941 62.896 63.339 63.904 62.421 64.144 62.683 63.796 62.998 66.306 65.741 66.654 65.425 66.894 65.687 65.602 66.861 65.362 66.599 65.71 66.284 63.454 63.817 63.429 63.838 63.696 64.6 64.394 67.044 62.142 66.134 61.308 65.764 61.285 65.787 63.542 68.253 63.89 67.938 64.129 68.2 63.117 69.122zM67.26 64.769L67.552 64.399 64.623 62.113 64.331 62.481 64.052 62.263 64.908 61.176 67.563 61.789 67.581 61.764 66.367 59.327 67.213 58.256 67.492 58.475 67.2 58.845 70.127 61.13 70.419 60.763 70.698 60.981 69.617 62.352 69.344 62.132 69.635 61.764 67.002 59.699 66.983 59.724 67.371 60.43 68.454 62.737 66.083 62.207 65.204 61.976 65.185 62.001 67.817 64.066 68.108 63.699 68.388 63.907 67.54 64.983zM70.802 60.035L71.048 59.636 67.873 57.696 67.627 58.095 67.323 57.91 68.235 56.424 68.54 56.609 68.302 57.014 71.477 58.955 71.723 58.556 72.027 58.741 71.112 60.227zM72.406 57.274l-.012.029.335.164-.273.553-1.162-.574.273-.552.25.124c.387.191.748.035 1.029-.532.3-.602.164-1.001-.24-1.2-.36-.177-.625-.086-.991.352l-.209.256c-.543.667-1.127.973-1.856.613-.656-.324-.852-1.058-.45-1.87.225-.455.544-.65.798-.653l.019-.033-.315-.156.273-.55 1.135.557-.275.55-.25-.122c-.387-.192-.716-.03-.995.534-.26.53-.123.908.218 1.076.342.168.648.052 1.042-.416l.19-.239c.545-.656 1.118-.926 1.785-.598.706.35.96 1.124.52 2.011-.228.46-.568.674-.839.676M74.104 53.594l-.01.03.352.128-.208.577-1.217-.44.208-.578.263.096c.416.145.748-.048.964-.642.23-.624.052-1.014-.373-1.168-.375-.135-.637-.015-.946.461l-.18.276c-.467.722-1.013 1.09-1.778.813-.685-.25-.962-.956-.652-1.808.173-.476.467-.706.72-.736l.014-.037-.328-.118.209-.578 1.187.432-.208.578-.263-.096c-.406-.147-.714.05-.929.64-.208.555-.023.917.335 1.04.359.122.65-.021.994-.537l.16-.257c.471-.715 1.011-1.04 1.709-.792.74.27 1.077 1.012.74 1.94-.182.487-.496.738-.763.776M75.225 50.36L75.346 49.907 71.746 48.956 71.625 49.409 71.281 49.317 71.729 47.634 72.073 47.724 71.952 48.179 75.552 49.13 75.673 48.675 76.017 48.767 75.569 50.452zM75.102 44.515l-1.067-.168c-.833-.13-1.402.241-1.512.941-.11.7.317 1.232 1.146 1.361l1.066.17c.834.132 1.403-.24 1.515-.94.113-.7-.32-1.22-1.15-1.364h.002zm-1.042 3.103c-1.425-.227-2.13-1.203-1.941-2.394.19-1.19 1.164-1.9 2.587-1.675 1.423.225 2.131 1.203 1.942 2.394-.19 1.19-1.165 1.9-2.588 1.675zM76.635 42.982L76.635 42.512 72.912 42.454 72.912 42.922 72.558 42.922 72.579 41.509 75.956 39.412 75.956 39.381 72.971 39.333 72.971 39.803 72.615 39.803 72.638 38.433 72.994 38.433 72.994 38.903 77.073 38.967 77.063 39.651 73.287 42.001 73.287 42.032 76.667 42.086 76.667 41.617 77.023 41.617 77 42.984zM10.78 24.744l.416-.8c.229-.416.114-.802-.263-1.002l-.256-.137c-.377-.208-.754-.087-.981.339l-.43.798 1.513.802zm-1.838-.98l.377-.705c.208-.391.108-.726-.246-.915l-.246-.13c-.354-.19-.69-.088-.898.305l-.379.704 1.392.74zm1.262 2.116l.223-.415-3.285-1.75-.221.416-.315-.168 1.071-1.979c.417-.787 1.023-.993 1.567-.702.468.245.678.802.487 1.295l.027.014c.27-.403.846-.785 1.459-.453.673.358.833 1.04.443 1.78l-1.141 2.13-.315-.168zM11.29 20.01l.479-.67c.233-.255.215-.65-.04-.882-.032-.029-.067-.055-.104-.077l-.258-.183c-.263-.223-.658-.191-.881.07-.028.034-.053.07-.074.107l-.479.671 1.357.964zm.904 2.207l.273-.382-3.034-2.155-.273.382-.29-.207 1.332-1.87c.513-.717 1.123-.853 1.76-.4.503.358.58.88.325 1.445l1.559.143c.279.06.567-.056.725-.293l.025-.035.29.207-.303.416c-.32.449-.602.505-1.054.449l-1.562-.191-.357.498 1.323.944.273-.383.29.208-1.013 1.432-.29-.208zM14.771 18.732L15.081 18.379 12.273 15.938 11.965 16.293 11.696 16.058 12.844 14.737 13.112 14.969 12.804 15.323 15.61 17.764 15.919 17.409 16.187 17.644 15.04 18.957zM16.825 16.465L17.258 16.05 14.725 13.382 14.008 14.057 14.517 14.591 14.069 15.007 13.302 14.201 16.219 11.449 16.998 12.27 16.55 12.686 16.042 12.152 15.327 12.827 17.863 15.497 18.296 15.082 18.54 15.339 17.081 16.711zM19.275 14.248L19.646 13.962 17.354 11.03 16.981 11.318 16.773 11.038 18.152 9.968 18.36 10.248 17.99 10.535 20.281 13.467 20.652 13.178 20.871 13.459 19.494 14.529zM21.556 12.513l-.025.017.209.316-.521.332-.7-1.089.519-.332.15.235c.233.363.625.415 1.158.072.567-.361.656-.773.417-1.153-.209-.336-.496-.397-1.042-.208l-.313.11c-.81.293-1.458.254-1.908-.43-.394-.623-.183-1.342.581-1.83.417-.275.802-.28 1.021-.15l.033-.02-.187-.296.519-.332.683 1.062-.519.332-.152-.235c-.233-.363-.598-.392-1.127-.054-.53.339-.577.715-.37 1.04.206.323.528.375 1.116.174l.285-.108c.809-.283 1.438-.218 1.84.405.417.663.242 1.454-.594 1.99-.437.281-.84.298-1.073.152M24.06 10.915L24.477 10.708 22.894 7.348 22.477 7.555 22.325 7.233 23.906 6.491 24.058 6.814 23.642 7.021 24.327 8.476 26.144 7.624 25.458 6.169 25.042 6.377 24.89 6.057 26.471 5.315 26.623 5.637 26.196 5.845 27.779 9.205 28.196 8.997 28.348 9.319 26.767 10.059 26.615 9.739 27.031 9.531 26.3 7.983 24.483 8.833 25.213 10.381 25.629 10.174 25.779 10.496 24.198 11.237zM28.994 4.802L28.675 4.887 28.583 4.555 30.235 4.116 30.327 4.459 29.798 4.598 30.885 6.284 31.719 7.605 31.75 7.605 31.812 6.049 31.91 4.048 31.381 4.189 31.29 3.846 32.604 3.497 32.696 3.84 32.377 3.925 32.087 8.191 31.375 8.38zM33.885 7.418L34.35 7.341 33.742 3.678 33.279 3.753 33.221 3.404 34.944 3.119 35.002 3.47 34.537 3.547 35.146 7.21 35.608 7.134 35.667 7.485 33.944 7.767zM37.15 4.937l.833-.054c.345.019.64-.245.659-.588.002-.043 0-.085-.007-.127l-.02-.316c.006-.344-.27-.628-.614-.634-.043 0-.086.003-.128.011l-.823.054.1 1.654zm-1.14 2.097l.47-.031-.242-3.695-.47.03-.022-.354 2.292-.152c.88-.058 1.372.33 1.422 1.108.042.623-.314 1.005-.914 1.165L39.42 6.4c.13.254.403.402.687.374h.044l.023.355-.519.034c-.552.037-.775-.146-1.016-.53l-.834-1.328-.614.04.106 1.618.47-.031.024.355-1.744.115-.038-.368zM40.304 4.914c.096-1.473.992-2.23 2.165-2.154.645.041.993.292 1.085.527h.034l.023-.38.625.04-.1 1.348-.615-.037.018-.291c.03-.451-.304-.738-.962-.782-.862-.054-1.294.416-1.35 1.274l-.064 1.025c-.055.83.352 1.357 1.054 1.4.635.042 1.041-.27 1.07-.794l.038-.594-.723-.048.023-.353 1.898.12-.023.356-.364-.023-.117 1.82-.286-.018-.329-.636h-.031c-.127.289-.596.652-1.269.61-1.154-.068-1.89-.993-1.8-2.41M44.76 7.146L45.223 7.223 45.848 3.562 45.385 3.483 45.444 3.133 47.169 3.422 47.108 3.773 46.646 3.695 46.021 7.358 46.485 7.435 46.427 7.786 44.702 7.495zM46.89 7.451L47.342 7.578 48.35 4.002 47.898 3.875 47.994 3.532 49.358 3.915 50.527 7.707 50.558 7.707 51.367 4.84 50.915 4.713 51.01 4.37 52.331 4.742 52.235 5.083 51.783 4.97 50.679 8.887 50.017 8.702 48.704 4.463 48.673 4.463 47.758 7.709 48.21 7.836 48.115 8.177 46.794 7.807zM52.829 9.357L53.246 9.55 54.777 6.165 54.35 5.972 54.496 5.648 56.088 6.365 55.942 6.689 55.515 6.496 53.983 9.881 54.411 10.074 54.265 10.398 52.677 9.681zM55.435 10.56l-.027-.015-.185.325-.538-.302.64-1.126.535.303-.137.242c-.208.376-.077.743.477 1.055.554.312.992.208 1.215-.174.198-.347.12-.624-.298-1.006l-.246-.225c-.636-.577-.91-1.176-.51-1.882.36-.634 1.104-.79 1.895-.345.444.25.625.578.61.831l.034.019.17-.304.538.304-.625 1.099-.537-.303.137-.244c.209-.376.069-.712-.479-1.02-.514-.29-.902-.174-1.09.158-.187.333-.087.642.367 1.066l.23.208c.624.58.864 1.164.5 1.81-.388.686-1.18.895-2.042.415-.452-.27-.648-.619-.634-.889M58.033 12.073L58.415 12.347 60.594 9.334 60.212 9.06 60.421 8.773 61.835 9.793 61.627 10.08 61.246 9.806 59.088 12.783 60.25 13.615 60.735 12.948 61.233 13.307 60.519 14.294 57.81 12.347zM62.777 13.935l1.027.945.886-1.953-.025-.021-1.888 1.029zm-1.894.178l.242.223 3.823-2.016.565.52L63.8 16.8l.242.224-.242.26-1.25-1.155.242-.262.4.37.446-1.014-1.194-1.11-.969.532.402.37-.241.268-.994-.916.241-.254zM64.135 17.101L64.433 17.463 67.31 15.104 67.004 14.737 67.279 14.51 68.179 15.601 66.967 19.379 66.985 19.402 69.294 17.511 68.994 17.149 69.269 16.923 70.142 17.98 69.867 18.207 69.567 17.854 66.427 20.434 65.992 19.904 67.344 15.678 67.323 15.655 64.713 17.795 65.01 18.157 64.735 18.383 63.865 17.326zM67.84 21.878l.314.516c.452.742 1.084.885 1.834.43l.833-.5c.748-.456.91-1.081.458-1.823l-.314-.516-3.125 1.893zm-.696-1.068l.244.401 3.18-1.932-.243-.401.302-.185 1.042 1.706c.625 1.039.435 2.186-.802 2.938-1.238.752-2.357.397-2.982-.636l-1.041-1.706.3-.185zM69.731 25.265l-.014-.029-.342.154-.252-.56 1.183-.53.252.56-.256.115c-.394.176-.502.552-.242 1.13.275.613.671.763 1.084.578.364-.165.466-.433.356-.987l-.064-.327c-.17-.83-.036-1.483.706-1.818.666-.297 1.36.017 1.731.844.208.463.16.831 0 1.039l.017.033.318-.141.252.559-1.158.509-.252-.561.254-.115c.396-.176.477-.531.221-1.105-.244-.538-.625-.671-.973-.515-.348.156-.45.465-.337 1.074l.064.297c.163.831 0 1.455-.67 1.756-.72.322-1.482.023-1.888-.879-.213-.474-.169-.87.01-1.08" transform="translate(40)"/>
    </g>
</svg>
