<svg xmlns="http://www.w3.org/2000/svg" width="160" height="80"><g fill="#85ACB0"><path d="M15.364 28v.026L24.275 40 10 51.974V52h14.414c4.207 0 7.857-2.998 8.803-7.232l1.193-5.34a9.568 9.568 0 0 0-1.732-7.906C30.964 29.297 28.362 28 25.609 28H15.364z"/><path d="M24.269 40.024 18.001 52H10zM132.398 28l3.168 16.782L144.46 28h5.472L136.51 52h-4.483l-5.23-24h5.602zM53.69 28c7.244 0 11.384 5.14 10.24 11.846l-.012.068C62.77 46.622 56.873 51.83 49.62 51.83h-8.996L44.691 28h8.999zm50.067 0c2.933 0 5.061.852 6.303 2.418 1.059 1.326 1.434 3.2 1.047 5.446l-.011.068c-.65 3.846-3.072 6.264-6.197 7.388l4.18 8.51h-5.932l-5.52-12.26h3.818c2.472 0 4.122-1.37 4.465-3.37l.012-.068c.383-2.242-.936-3.4-3.408-3.4h-5.035l-3.26 19.098h-5.076L93.209 28h10.548zm18.918 0-4.066 23.83h-5.077L117.6 28h5.075zM88.2 28l-.798 4.664H75.044l-.827 4.834h7.978l-.796 4.664h-7.978l-.854 5h12.525l-.796 4.664H66.73L70.796 28H88.2zm-35.318 4.732h-3.92l-2.454 14.366h3.923c4.151 0 7.447-2.894 8.167-7.116l.012-.068c.72-4.22-1.574-7.182-5.728-7.182z"/></g></svg>