<svg width="690" height="633" fill="none" xmlns="http://www.w3.org/2000/svg"><path fill-rule="evenodd" clip-rule="evenodd" d="M305.4 320.2c.8 2.2 1.6 10-.3 13-2 3-1.1 3.8.8 4.9 2 1 2.7 3.8 2.7 6s1.4 2 1.7 6.6c.2 4.7 1.3 8 3 9.9 1.3 1.5 1 3.8.3 5.5 2.3 1.7 4.9 3.4 7.2 4.2 5.6 2 7.7 3.7 8 5.7.5 2 5.4 5.8 6.6 2.9 1.2-2.9 4.5-1.2 6.9-1.2 2.4 0 2.8 2.8 3.2 4.5.5 1.6 6.1.8 8.2 2 2 1.2 2.8 5.7 5.7 7.4 2.8 1.6 5.2-2 7.3-.9a15 15 0 0 0 10.6 1.3c3.2-1.3 5.2 1.2 9.3.8 4-.4 9.3 1.2 10.6 2.4.6.7 4 1.3 7.2 1.8.8-1.7-.8-6.9-.5-8.1.2-1.4 9.8-10 11.4-11.8 1.7-2 4.1-2 5.5-4.4 1.3-2.5-3.8-10.5-5-12.1-1-1.6-1.6-8.2-.8-11 .9-2.7-4-4.4-4-6.3 0-2 4.6-5.2 7-6.3 2.5-1.1 1.7-8.8-.5-10.7-2.2-2-3.3-5.5-2-9.4 1.5-3.8-8-6.8-9.5-6.8-.2 0-.3-.3-.4-.6-8.5 1.6-30.4-.7-32-1.4l-6.2-2.2a7.6 7.6 0 0 1-6.8 3.4c-5.2 0-5.6-5.3-5.8-7.6-.1-2.4-21.2 2-26.9 7.6-5.6 5.7-18.7 3.5-19 6.6-.4 2.3-2.3 3.5-3.6 2.8v1.5Z" fill="#85ACB0"/><path d="M305.4 320.2c.8 2.2 1.6 10-.3 13-2 3-1.1 3.8.8 4.9 2 1 2.7 3.8 2.7 6s1.4 2 1.7 6.6c.2 4.7 1.3 8 3 9.9 1.3 1.5 1 3.8.3 5.5 2.3 1.7 4.9 3.4 7.2 4.2 5.6 2 7.7 3.7 8 5.7.5 2 5.4 5.8 6.6 2.9 1.2-2.9 4.5-1.2 6.9-1.2 2.4 0 2.8 2.8 3.2 4.5.5 1.6 6.1.8 8.2 2 2 1.2 2.8 5.7 5.7 7.4 2.8 1.6 5.2-2 7.3-.9a15 15 0 0 0 10.6 1.3c3.2-1.3 5.2 1.2 9.3.8 4-.4 9.3 1.2 10.6 2.4.6.7 4 1.3 7.2 1.8.8-1.7-.8-6.9-.5-8.1.2-1.4 9.8-10 11.4-11.8 1.7-2 4.1-2 5.5-4.4 1.3-2.5-3.8-10.5-5-12.1-1-1.6-1.6-8.2-.8-11 .9-2.7-4-4.4-4-6.3 0-2 4.6-5.2 7-6.3 2.5-1.1 1.7-8.8-.5-10.7-2.2-2-3.3-5.5-2-9.4 1.5-3.8-8-6.8-9.5-6.8-.2 0-.3-.3-.4-.6-8.5 1.6-30.4-.7-32-1.4l-6.2-2.2a7.6 7.6 0 0 1-6.8 3.4c-5.2 0-5.6-5.3-5.8-7.6-.1-2.4-21.2 2-26.9 7.6-5.6 5.7-18.7 3.5-19 6.6-.4 2.3-2.3 3.5-3.6 2.8v1.5" stroke="#fff"/><path fill-rule="evenodd" clip-rule="evenodd" d="M401.3 475.8c1.6-1 1.2-2.4.8-4-.3-.8-.5-1.7-.5-2.6 0-2.1-7-3-11-3.7l-2.9-.4c-.8-.3-.6-1.9-.4-3.5.2-2 .5-4.3-1.2-4.3-3 0-4.2-2.2-4.2-4.4 0-1.1-1.3-2.7-2.5-4.1-1-1.3-2-2.4-1.9-3 0-.2.2-.4.4-.6l-3.6-.6c-2-.4-5.3-1.6-5.3-1.6s-7.7 2.5-13 4c.4 3.3 1.2 6.8 3.3 7.6 2.6 1 2.8 3 3.1 5.3.1 1.2.3 2.4.8 3.6l.4 1.5c-5.6-3.6-10-5-10-5s-16.4-.7-19.2-1.8c-1.3-.6-2.5.2-3.8 1-1.4.8-2.8 1.6-4 .6-2.5-1.9-6 .6-5.5 3.3.2 1.2 1.3 2.1 2.4 3.2 1.6 1.4 3.3 3 3.3 5.3s3.3 5.3 6.1 7.8c2.2 2 4.1 3.6 4 4.5 0 .8 1.3 2.1 3.3 4 2 2 4.8 4.5 6.8 7.4 1.6 1 3.3 2.3 5 3.7l1 .7.3.3a71.7 71.7 0 0 0 9.8 6c.4-2.3 2.2-5.4 4-7.7l.3.2h.4c2.1 0 10 5 11.8 6.2-1.3 4.2-2 9.7-1.3 12.6.9 2.9 3.5 4.9 7.4 7.7l.4-.2h.1l.7-.1h.2l2.2-.1h2.8l.3-.1h.4l1.3-.3c1.7-.4 2.7-1.5 3.6-2.4.8-.9 1.4-1.5 2.3-1.1 1.7.8 10.6-3.7 11.8-5.4l.2-.5c0-.7-.5-1.2-1.2-1.8-.5-.5-1.2-1-1.3-1.7-.2-1.4-4.3-5.2-6-6.8l-.5-.5-.8-1.6-.2-.4c0-.2-.5-.3-1-.4l-1-.4.8-.1v-1c.2-1 .3-2 .2-2.8-.3-1.6 1.7-5 4.2-5s-1.1-5.5-4-8c-2.7-2.4-2.4-6.8 0-8.5ZM380.5 505l.5-.1-.5.1Z" fill="#85ACB0"/><path d="m402 471.8.6-.1-.5.1Zm-.7 4-.3-.4.3.4Zm-10.8-10.3.1-.5v.5Zm-2.8-.4-.1.4.1-.4Zm-.4-3.5h-.5.5Zm-7.9-12.8.4-.3-.4.3Zm-1.9-3-.5-.1h.5Zm.4-.6.3.3.7-.7h-1v.4Zm-3.6-.6.2-.5-.2.5ZM369 443l.2-.5h-.4l.2.5Zm-13 4-.1-.4-.4.1v.4h.5Zm3.3 7.6.1-.5-.1.5Zm3.1 5.3.5-.1h-.5Zm.8 3.6-.4.2.4-.2Zm.4 1.5-.2.4 1 .7-.3-1.2-.5.1Zm-10-5v-.4.5Zm-19.2-1.8.2-.5-.2.5Zm-3.8 1 .2.4-.2-.4Zm-4 .6.2-.4-.3.4Zm-5.5 3.3h.4-.4Zm2.4 3.2-.3.3.3-.3Zm9.4 13 .4-.3-.4.4Zm4 4.6h-.5.5Zm3.3 4-.4.3.4-.4Zm6.8 7.4-.5.3h.1v.1l.4-.4Zm5 3.7h.5v-.2l-.2-.2-.3.4Zm0 0-.5-.1v.3l.2.2.3-.4Zm1 .7.2-.4-.3.4Zm.3.3-.3.4.6.5.2-.8-.5-.1Zm0 0 .3-.4-.6-.5-.2.8h.5Zm9 5.7.3-.5-.3.5Zm.8.3-.3.5.6.2.1-.6-.4-.1Zm4-7.7.5-.3-.4-.5-.4.5.4.3Zm.3.2-.4.3.2.3h.3l-.1-.6Zm.4 0v-.6h-.1v.5Zm11.8 6.2.5.2v-.4l-.2-.2-.3.4Zm-1.3 12.6-.4.1.4-.1Zm7.4 7.7-.3.4.3.2.3-.2-.3-.4Zm.4-.2.2.5-.2-.5Zm.1 0v-.5h-.1l.1.5Zm.7-.1v.5h.1v-.5Zm.2 0v-.6h-.1v.5Zm2.2-.1v-.5.5Zm0 0v.5-.5Zm1.8 0v-.5.5Zm.3 0v.5-.5Zm.7 0v-.6.5Zm0 0v.4-.5Zm.3-.1v.5-.5Zm.4 0v.5-.5Zm1.3-.3-.1-.4v.4Zm3.6-2.4-.4-.3.4.3Zm2.3-1.1-.3.4.3-.4Zm11.8-5.4-.4-.3.4.3Zm.2-.5-.5-.1h.5Zm-1.2-1.8-.3.4.3-.4Zm-1.3-1.7h-.5.5Zm-6-6.8-.3.4.4-.4Zm-.5-.5.3-.4-.3.4Zm-.8-1.6h.5v-.2l-.5.2Zm-.2-.4h-.5v.2l.5-.2Zm-1-.4v.4-.4Zm-1-.4v-.5l-1 .1.7.8.4-.4Zm.8-.1v.5h.4v-.5h-.4Zm0-1h.6-.5Zm.2-2.8h.5-.5Zm.3-13-.3.4.3-.3ZM380.4 505v-.5l-1.2.3 1 .6.2-.4Zm0 0-.2.4.1.2.3-.1-.1-.5Zm.6-.1v.5l-.1-1v.5Zm20.6-32.8c.2.8.4 1.4.4 2 0 .5-.3 1-1 1.4l.6.8c.9-.6 1.3-1.3 1.4-2.2 0-.7-.2-1.5-.4-2.3l-1 .3Zm-.5-2.8c0 1 .3 2 .5 2.8l1-.3c-.3-.8-.5-1.6-.5-2.5h-1Zm-10.6-3.2c2 .3 4.8.7 7 1.3 1 .3 2 .6 2.7 1 .7.3.9.7.9.9h1c0-.8-.7-1.4-1.4-1.8a13 13 0 0 0-3-1c-2.2-.7-5-1-7.1-1.4l-.1 1Zm-2.9-.5c.5.2 1.6.3 2.9.5l.1-1-2.7-.4-.3 1Zm-.8-4-.2 2.4c0 .3 0 .7.2 1 .2.3.4.5.8.6l.3-1h-.2l-.1-.7c0-.6 0-1.3.2-2.2h-1Zm-.7-3.7c.3 0 .4.1.5.2.2.2.2.4.3.8.1.7 0 1.7-.1 2.7l1 .1c0-1 .2-2 0-3 0-.4-.1-.9-.4-1.2-.3-.4-.8-.6-1.3-.6v1Zm-4.7-4.9c0 1.2.3 2.4 1 3.4.8 1 2 1.5 3.7 1.5v-1c-1.4 0-2.3-.4-2.8-1.1-.6-.8-.9-1.7-.9-2.8h-1Zm-2.4-3.8 1.7 2.1c.5.7.7 1.3.7 1.7h1c0-.7-.4-1.5-.9-2.2l-1.7-2.2-.8.6Zm-2-3.4.1.8.5.8 1.4 1.8.8-.6a23.1 23.1 0 0 1-1.7-2.4l-.1-.2-1-.2Zm.5-.8c-.2.2-.4.4-.5.8l1 .2.2-.4-.7-.6Zm-3.3.2 3.6.6.1-1a76 76 0 0 1-3.4-.6l-.3 1ZM369 443l-.2.5h.2a48.6 48.6 0 0 0 5.2 1.6l.2-1a31.2 31.2 0 0 1-5-1.5h-.2l-.2.4Zm-12.9 4.6a785.3 785.3 0 0 0 11.8-3.7l1-.3.2-.1-.1-.5-.2-.5-.3.1-1 .3a1370.5 1370.5 0 0 1-11.6 3.7l.2 1Zm3.3 6.5c-.8-.3-1.4-1.2-2-2.5a20 20 0 0 1-.9-4.6l-1 .1a21 21 0 0 0 1 4.8c.6 1.5 1.3 2.7 2.6 3.2l.3-1Zm3.5 5.7c-.1-1.1-.3-2.3-.8-3.3-.4-1-1.3-1.8-2.7-2.4l-.3 1c1.2.4 1.8 1 2.1 1.9.4.8.6 1.8.7 3l1-.2Zm.8 3.5c-.5-1.1-.7-2.3-.8-3.5l-1 .1c.1 1.2.3 2.5.9 3.8l.9-.4Zm.4 1.6a8 8 0 0 0-.4-1.6l-1 .4c.2.3.3.8.4 1.4l1-.2Zm-10.5-4.8-.2.5h.2a20 20 0 0 1 2.7 1c1.8.8 4.3 2 7 3.8l.6-.8a47 47 0 0 0-10-5h-.2l-.1.5Zm-19.3-1.5c.3.2 1 .3 1.7.5l2.5.3a157.7 157.7 0 0 0 14.3 1.1h.7v-.9h-.1a166.8 166.8 0 0 1-8.3-.6 158.5 158.5 0 0 1-10.5-1.3l-.3 1Zm-3.5 1 1.9-1c.5-.1 1-.2 1.6 0l.3-.9c-.8-.3-1.5-.2-2.3 0l-2 1 .5.9Zm-4.6.6c.8.6 1.6.7 2.4.5.8-.2 1.6-.7 2.2-1.1l-.5-.9c-.7.5-1.3.8-2 1-.5.2-1 .1-1.5-.3l-.6.8Zm-4.7 2.8c-.2-1.1.4-2.2 1.4-2.9 1-.6 2.3-.7 3.3.1l.6-.8a3.8 3.8 0 0 0-4.4-.1 3.8 3.8 0 0 0-1.8 3.9l1-.2Zm2.3 3-1.5-1.6c-.4-.5-.7-1-.8-1.4l-1 .2c.2.7.6 1.3 1 1.9l1.7 1.5.6-.7Zm3.5 5.6c0-2.6-2-4.3-3.5-5.7l-.6.8c1.6 1.4 3 2.8 3 4.9h1Zm6 7.4a48.8 48.8 0 0 1-5.5-5.8c-.3-.6-.5-1.1-.5-1.6h-1c0 .7.2 1.4.6 2 .4.8 1 1.5 1.5 2.1 1.2 1.4 2.8 2.8 4.2 4l.7-.7Zm4 5c.1-.4 0-.8-.2-1.2l-1-1.1-2.8-2.7-.7.7 2.8 2.7c.4.3.6.7.8 1 .2.2.2.4.2.5l1 .1Zm3.2 3.5a43 43 0 0 1-3-3.2l-.1-.3-1-.1c0 .3.1.7.3 1l.7 1 2.4 2.3.7-.7Zm6.9 7.5c-2-3-4.8-5.6-6.9-7.5l-.7.7c2.1 2 4.8 4.5 6.7 7.4l.9-.6Zm5 3.6a61.8 61.8 0 0 0-5.2-3.7l-.5.8c1.6 1 3.3 2.3 5 3.7l.6-.8Zm-.9.2 1 .3-1-.3Zm.2.6 1 .7.5-.8-.9-.7-.6.8Zm2 .2c-.2 0-.3-.2-.5-.3l-.6.8.4.3.6-.8Zm-.9.3 1 .2-1-.2Zm.2.5c3.2 2.3 7 4.6 9.1 5.7l.5-.9c-2.2-1-5.8-3.3-9-5.6l-.6.8Zm9.1 5.7.7.4.5-1c-.3 0-.5-.2-.7-.3l-.5.9Zm1.4 0c.5-2.2 2.2-5.2 4-7.5l-.7-.6a20.7 20.7 0 0 0-4.2 8h1Zm4.3-7.9-.2-.2-.8.6.2.2.8-.6Zm-.2-.3-.4.1.3 1 .4-.1-.3-1Zm12.3 6.4a125.6 125.6 0 0 0-9.4-5.5l-1.5-.6a4 4 0 0 0-1.2-.3v1l.8.2a45.8 45.8 0 0 1 4.9 2.4c2.5 1.5 4.9 3 5.8 3.7l.6-.9Zm-1 12.8c-.5-1.3-.5-3.3-.2-5.5.2-2.3.7-4.7 1.4-6.7l-1-.3c-.6 2.1-1.2 4.5-1.4 6.8-.3 2.3-.3 4.5.2 6l1-.3Zm7 7.5c-1.9-1.4-3.4-2.6-4.7-3.8a8.5 8.5 0 0 1-2.4-3.7l-1 .3a9.5 9.5 0 0 0 2.7 4.1c1.3 1.3 3 2.5 4.9 3.9l.6-.8Zm.1-.3a2 2 0 0 0-.6.3l.6.8.3-.1-.3-1Zm0 0 .3 1-.2-1Zm.9-.1h-.8l.3 1h.6l-.1-1Zm.1 0h-.1l.1 1h.1l-.1-1Zm2.3-.1H387l.1 1h2.2v-1Zm0 0v1-1Zm1.8 0h-1.8v1h1.8v-1Zm.3 0h-.3v1h.3v-1Zm.7 0h-.7v1h.8v-1Zm0 0v1-1Zm.3 0h-.3v1l.4-.1-.1-1Zm.4-.1h-.4v1h.5l-.1-1Zm1.2-.2-1.3.2.2 1 1.3-.3-.2-1Zm3.3-2.3c-.8.9-1.8 1.9-3.3 2.3l.2 1c1.9-.5 3-1.8 3.9-2.7l-.8-.6Zm2.9-1.3a1.6 1.6 0 0 0-1.6.1c-.5.3-.9.7-1.3 1.2l.8.6 1-1h.6l.5-.9Zm11.1-5.1-.6.6-1.3.9a36.2 36.2 0 0 1-8.5 3.6h-.7l-.5 1h1.3l1.5-.3a28.8 28.8 0 0 0 7.4-3.5c.6-.3 1-.6 1.4-1 .4-.2.7-.5.9-.8l-.9-.5Zm.2-.4-.1.3.8.6c.2-.2.3-.5.3-.8h-1Zm-1-1.3.8.8c.2.2.2.4.2.5l1 .1c0-.5-.2-.9-.4-1.2l-1-1-.6.8Zm-1.5-2 .6 1.2 1 .8.6-.7-.8-.8-.4-.7-1 .2Zm-5.8-6.5c.8.8 2.3 2 3.5 3.4a23.6 23.6 0 0 1 2.1 2.6l.2.5 1-.2c0-.3-.2-.5-.3-.8l-.6-.9c-.4-.6-1-1.2-1.7-1.9l-3.5-3.4-.7.7Zm-.5-.5.5.5.7-.7-.6-.6-.6.8Zm-1-1.9.2.5a6 6 0 0 0 .8 1.4l.6-.8v-.1a6 6 0 0 1-.6-1v-.1l-1 .1Zm-.2-.3.3.5.9-.5-.2-.4-1 .4Zm-.6-.1.6.1h.1l-.1-.2h1c0-.3-.2-.4-.3-.5l-.3-.2-.7-.2-.3 1Zm-1.2-.5.6.3.6.2.3-1-.5-.2h-.2l-.8.7Zm1-1h-.7l.2 1h.6l-.1-1Zm-.3-.6-.1 1 1 .1v-1l-1-.1Zm.1-2.6c.1.6 0 1.5-.1 2.6l1 .1c.1-1 .2-2 .1-2.9l-1 .2Zm4.7-5.5c-1.5 0-2.7 1-3.5 2-.5.6-.8 1.2-1 1.8-.2.6-.3 1.2-.2 1.7l1-.2c0-.3 0-.7.2-1.2.1-.5.4-1 .8-1.5.7-1 1.6-1.6 2.7-1.6v-1Zm-4.2-7.2c1.3 1.2 2.9 3.2 3.8 4.8.4.9.7 1.6.7 2v.3h-.3v1c.4 0 .7 0 1-.4.3-.3.3-.6.3-1 0-.6-.4-1.5-.9-2.4-1-1.7-2.6-3.7-4-5l-.6.7Zm0-9.3a5.3 5.3 0 0 0-2.2 4.4c0 1.7.7 3.6 2.2 5l.6-.8a5.5 5.5 0 0 1-1.8-4.2c0-1.5.7-2.8 1.8-3.6l-.6-.8Zm-20.9 30 .6-.9-.6.8Zm.8-1.1-.6.1.2 1 .6-.1-.2-1Zm-.4.6v.5h.2l.4-.1-.3-1a222.6 222.6 0 0 0-.5.1l.2.5Z" fill="#fff"/><path fill-rule="evenodd" clip-rule="evenodd" d="M336.3 485.6c.2-2.2-10.1-8.2-10.1-12.3 0-4.1-5.2-5.8-5.8-8.5-.5-2.8 3-5.2 5.5-3.3 2.4 1.9 5.2-2.8 7.9-1.7 2.7 1.1 19 2 19 2s5.1 1.4 11.2 5.6c-.1-1.1-.3-2-.6-2.6-1.4-3.5 0-7.5-3.9-9-2-.7-2.9-4.2-3.2-7.5l-4.3 1.3c-3.2.8-10.2.4-12.6-2.9-1.8-2.4-7.5-6-10.3-7.7-1.1 1-5.5 4.8-7.4 5-2.1.3-.8 6-3 6-2.1 0-3.8 4-4.3 5.6-.6 1.6-5.5-1.1-7.7-.3-1.6.6-6.2 1.3-8.7 1.7.4 2.5.2 5.3 2.2 5.3 3.3 0 9.3-.4 9.5 4 .2 4.4 8 14.2 11 17.5 2.9 3.3 9.4 2.6 9.8 5.3.4 2.8 5.1 5.3 10.6 5.7 1.5.1 3.3 1 5.2 2.2-3.8-5.6-10.2-9.8-10-11.4Z" fill="#85ACB0"/><path d="M336.3 485.6c.2-2.2-10.1-8.2-10.1-12.3 0-4.1-5.2-5.8-5.8-8.5-.5-2.8 3-5.2 5.5-3.3 2.4 1.9 5.2-2.8 7.9-1.7 2.7 1.1 19 2 19 2s5.1 1.4 11.2 5.6c-.1-1.1-.3-2-.6-2.6-1.4-3.5 0-7.5-3.9-9-2-.7-2.9-4.2-3.2-7.5l-4.3 1.3c-3.2.8-10.2.4-12.6-2.9-1.8-2.4-7.5-6-10.3-7.7-1.1 1-5.5 4.8-7.4 5-2.1.3-.8 6-3 6-2.1 0-3.8 4-4.3 5.6-.6 1.6-5.5-1.1-7.7-.3-1.6.6-6.2 1.3-8.7 1.7.4 2.5.2 5.3 2.2 5.3 3.3 0 9.3-.4 9.5 4 .2 4.4 8 14.2 11 17.5 2.9 3.3 9.4 2.6 9.8 5.3.4 2.8 5.1 5.3 10.6 5.7 1.5.1 3.3 1 5.2 2.2-3.8-5.6-10.2-9.8-10-11.4" stroke="#fff"/><path fill-rule="evenodd" clip-rule="evenodd" d="M376.5 537.2c2.7-.5 1-2.8 3-4.7 1.8-2 4-5.8 4.2-7.2 0-.2.2-.3.3-.4-3.6-2.8-6.2-4.9-7-7.8-.8-3 0-8.7 1.3-13-2-1.5-8.5-6.1-10.5-6.1s-5 4.6-5.8 9c4.7 2.6 6.5 4.4 3.3 7.8-3.4 3.5-4.1 15.4-.4 18.5 3.6 3 4.6 9 8.1 10.7 1-3 1.7-6.4 3.5-6.8Z" fill="#85ACB0"/><path d="M376.5 537.2c2.7-.5 1-2.8 3-4.7 1.8-2 4-5.8 4.2-7.2 0-.2.2-.3.3-.4-3.6-2.8-6.2-4.9-7-7.8-.8-3 0-8.7 1.3-13-2-1.5-8.5-6.1-10.5-6.1s-5 4.6-5.8 9c4.7 2.6 6.5 4.4 3.3 7.8-3.4 3.5-4.1 15.4-.4 18.5 3.6 3 4.6 9 8.1 10.7 1-3 1.7-6.4 3.5-6.8" stroke="#fff"/><path fill-rule="evenodd" clip-rule="evenodd" d="M325.6 402.6C322.3 399 314 399 314 399s-.8 3.6-2 5.7c-1 1.7-7 1.6-11 .6-1 1.4-6 2.5-6.7 4.5-.9 2.5-7 1.1-5 7.6 2 6.6-3 4.4-5 3.6-2-.8-10.5.3-12.8 2.4-2.2 2.2-5.2 1.6-7.2.6-2-1.1-5.8-1.7-7.5 1-1.6 2.8-4.7-2.1-7.2-1.8-2.5.2-1.4 5.4-1.4 6.5 0 1 4 4.3 6.4 3.2 2.5-1 5.6.3 7.8 1.7 2.2 1.3 6.4-1.1 7.8-2.5 1.3-1.3 9.1-1.3 10-1.3.8 0 1 4.3 2.4 5.1 1.4.8 6.7 1.4 11.4 1.7 4.7.2 11.7 2.4 13.9 2.4 2.2 0 5.8-3.8 10.8-3.8 5 0 7.8-3 8.6-2.7.4-1.5 1-2.7 2-2.9 2-.2.6-3.7 2-5.4 1.5-1.6-1-5 1.5-4.8 2.6.3 5.5.6 5.5-3 0-1.3.7-2.4 1.7-3.3-2.9-4-5-10.2-5-10.2s-6.1 2.4-9.4-1.3Z" fill="#85ACB0"/><path d="M325.6 402.6C322.3 399 314 399 314 399s-.8 3.6-2 5.7c-1 1.7-7 1.6-11 .6-1 1.4-6 2.5-6.7 4.5-.9 2.5-7 1.1-5 7.6 2 6.6-3 4.4-5 3.6-2-.8-10.5.3-12.8 2.4-2.2 2.2-5.2 1.6-7.2.6-2-1.1-5.8-1.7-7.5 1-1.6 2.8-4.7-2.1-7.2-1.8-2.5.2-1.4 5.4-1.4 6.5 0 1 4 4.3 6.4 3.2 2.5-1 5.6.3 7.8 1.7 2.2 1.3 6.4-1.1 7.8-2.5 1.3-1.3 9.1-1.3 10-1.3.8 0 1 4.3 2.4 5.1 1.4.8 6.7 1.4 11.4 1.7 4.7.2 11.7 2.4 13.9 2.4 2.2 0 5.8-3.8 10.8-3.8 5 0 7.8-3 8.6-2.7.4-1.5 1-2.7 2-2.9 2-.2.6-3.7 2-5.4 1.5-1.6-1-5 1.5-4.8 2.6.3 5.5.6 5.5-3 0-1.3.7-2.4 1.7-3.3-2.9-4-5-10.2-5-10.2s-6.1 2.4-9.4-1.3" stroke="#fff"/><path fill-rule="evenodd" clip-rule="evenodd" d="M405.8 412.5c-1-.4-2-1-3-1.9a21 21 0 0 1-7.7-2.8c-2-2.1-10.3-3.4-11.5-3.8-1.2-.4-9 7.5-11.5 7.5-2.4 0-13 1.3-13 4.2 0 3-13.2 3.4-16.9 0-.5-.5-1.1-1.2-1.6-2-1 1-1.7 2.1-1.7 3.4 0 3.8-2.9 3.5-5.4 3.2-2.6-.3 0 3.2-1.5 5-1.4 1.8 0 5.3-2 5.6-1 .1-1.6 1.4-2 3 .9.4 3 4.7 3 4.7l-.3.2c2.8 1.7 8.5 5.4 10.3 7.9 2.5 3.3 9.4 3.8 12.7 3 3.3-.9 17.2-5.5 17.2-5.5a44 44 0 0 0 8.8 2.2c1-1 4.1-2 7.4-5.3 3.8-4 9.6-18 11.3-19 1.6-1.2 6-3.7 8.2-5.4 2.2-1.7 1.7-3.4-.8-4.2Z" fill="#85ACB0"/><path d="M405.8 412.5c-1-.4-2-1-3-1.9a21 21 0 0 1-7.7-2.8c-2-2.1-10.3-3.4-11.5-3.8-1.2-.4-9 7.5-11.5 7.5-2.4 0-13 1.3-13 4.2 0 3-13.2 3.4-16.9 0-.5-.5-1.1-1.2-1.6-2-1 1-1.7 2.1-1.7 3.4 0 3.8-2.9 3.5-5.4 3.2-2.6-.3 0 3.2-1.5 5-1.4 1.8 0 5.3-2 5.6-1 .1-1.6 1.4-2 3 .9.4 3 4.7 3 4.7l-.3.2c2.8 1.7 8.5 5.4 10.3 7.9 2.5 3.3 9.4 3.8 12.7 3 3.3-.9 17.2-5.5 17.2-5.5a44 44 0 0 0 8.8 2.2c1-1 4.1-2 7.4-5.3 3.8-4 9.6-18 11.3-19 1.6-1.2 6-3.7 8.2-5.4 2.2-1.7 1.7-3.4-.8-4.2" stroke="#fff"/><path fill-rule="evenodd" clip-rule="evenodd" d="M353.8 383.7c-2-1.2-8-.4-8.3-2-.5-1.6-.9-4.4-3.4-4.4s-5.8-1.6-7 1.2c-1.3 2.8-6.3-.8-6.8-2.8-.4-2-2.5-3.6-8.3-5.6-2.3-.8-5-2.4-7.3-4.1l-.7 1.3c-1.1 1.6-5-1.4-6.7.3-1.7 1.6-7.3 1.8-10.4 4.5-3 2.7-9.5 4-13.2 4.9-3.6.8-.5 4 .9 6.4 1.4 2.5 1.4 8.4 4.2 10.3 2.8 1.9 12 7.5 13.1 9.4.2.3.1.6-.1.9 3.9 1 10 1 11-.6 1.2-2 2-5.7 2-5.7s8.4 0 11.8 3.7c3.3 3.6 9.6 1.2 9.6 1.2l.9 2.4c.9-2 2-3.7 3.5-4 3.5-.4 8.6-.9 12-5.7 1.9-2.5 4.9-4.5 7.4-5.8-1.7-2-2.6-4.9-4.2-5.8Z" fill="#85ACB0"/><path d="M353.8 383.7c-2-1.2-8-.4-8.3-2-.5-1.6-.9-4.4-3.4-4.4s-5.8-1.6-7 1.2c-1.3 2.8-6.3-.8-6.8-2.8-.4-2-2.5-3.6-8.3-5.6-2.3-.8-5-2.4-7.3-4.1l-.7 1.3c-1.1 1.6-5-1.4-6.7.3-1.7 1.6-7.3 1.8-10.4 4.5-3 2.7-9.5 4-13.2 4.9-3.6.8-.5 4 .9 6.4 1.4 2.5 1.4 8.4 4.2 10.3 2.8 1.9 12 7.5 13.1 9.4.2.3.1.6-.1.9 3.9 1 10 1 11-.6 1.2-2 2-5.7 2-5.7s8.4 0 11.8 3.7c3.3 3.6 9.6 1.2 9.6 1.2l.9 2.4c.9-2 2-3.7 3.5-4 3.5-.4 8.6-.9 12-5.7 1.9-2.5 4.9-4.5 7.4-5.8-1.7-2-2.6-4.9-4.2-5.8" stroke="#fff"/><path fill-rule="evenodd" clip-rule="evenodd" d="M388 392.7c-4.2.4-6.3-2-9.5-.8-3.3 1.2-8.7 0-10.8-1.3-2-1.2-4.5 2.5-7.4.9a6 6 0 0 1-1.7-1.5 22.1 22.1 0 0 0-7.2 6c-3.5 4.9-8.4 5.4-12 5.9-1.3.2-2.5 2-3.4 4 1.1 2.9 3.2 7.6 5.7 9.8 3.7 3.3 17 2.9 17 0s10.7-4.1 13.1-4.1c2.5 0 10.4-7.8 11.6-7.4 1.2.4 9.5 1.6 11.6 3.7 1 1 4.3 2 7.8 2.8-1.4-1.3-2.6-3-2.6-4.3 0-2.2 4.2-8 5.6-9l.2-.5c-3.2-.5-6.7-1.1-7.3-1.7-1.3-1.3-6.6-3-10.8-2.5Z" fill="#85ACB0"/><path d="M388 392.7c-4.2.4-6.3-2-9.5-.8-3.3 1.2-8.7 0-10.8-1.3-2-1.2-4.5 2.5-7.4.9a6 6 0 0 1-1.7-1.5 22.1 22.1 0 0 0-7.2 6c-3.5 4.9-8.4 5.4-12 5.9-1.3.2-2.5 2-3.4 4 1.1 2.9 3.2 7.6 5.7 9.8 3.7 3.3 17 2.9 17 0s10.7-4.1 13.1-4.1c2.5 0 10.4-7.8 11.6-7.4 1.2.4 9.5 1.6 11.6 3.7 1 1 4.3 2 7.8 2.8-1.4-1.3-2.6-3-2.6-4.3 0-2.2 4.2-8 5.6-9l.2-.5c-3.2-.5-6.7-1.1-7.3-1.7-1.3-1.3-6.6-3-10.8-2.5" stroke="#fff"/><path fill-rule="evenodd" clip-rule="evenodd" d="M39.7 568.3c4.8-1-1.3-5-2.7-6.3-1.3-1.4.5-6.7 3.1-6.7 2.7 0 0-3.2-3.5-6.7-3.5-3.6 0-5 3-5 3.2 0-.8-5.3 2.3-8.5 3-3.1-.9-9-.9-11.6 0-2.7 4.4-3.6 8-7.2 3.5-3.6-3.1-2.2-3.1-4.9s-4.5-3.6-7.5-1.3c-3.1 2.2-2.3 0-5 0-2.6 0-7.4.8-7.4-1.8 0-2.7-2.2-3.2-4.4-.5-.7.8-1.8 1.2-3.3 1.4-.3 3.5-.7 6.8.3 8.5 2.4 3.8-2.9 24.2-7.6 29.8-4.7 5.5-.2 7 4.7 10.8 5 3.9 1.7 17.9 1.7 21.2 0 3.3 4.3 2.4 9.4 2.4 3 0 6.4-1.4 9.8-2-1-1.5-1.8-3-1.8-4 0-2.7 0-6.7 4.9-7.6Z" fill="#85ACB0"/><path d="M39.7 568.3c4.8-1-1.3-5-2.7-6.3-1.3-1.4.5-6.7 3.1-6.7 2.7 0 0-3.2-3.5-6.7-3.5-3.6 0-5 3-5 3.2 0-.8-5.3 2.3-8.5 3-3.1-.9-9-.9-11.6 0-2.7 4.4-3.6 8-7.2 3.5-3.6-3.1-2.2-3.1-4.9s-4.5-3.6-7.5-1.3c-3.1 2.2-2.3 0-5 0-2.6 0-7.4.8-7.4-1.8 0-2.7-2.2-3.2-4.4-.5-.7.8-1.8 1.2-3.3 1.4-.3 3.5-.7 6.8.3 8.5 2.4 3.8-2.9 24.2-7.6 29.8-4.7 5.5-.2 7 4.7 10.8 5 3.9 1.7 17.9 1.7 21.2 0 3.3 4.3 2.4 9.4 2.4 3 0 6.4-1.4 9.8-2-1-1.5-1.8-3-1.8-4 0-2.7 0-6.7 4.9-7.6" stroke="#fff"/><path fill-rule="evenodd" clip-rule="evenodd" d="M183.6 359.5c2.3-2.2 6.3-1.1 8.6 1.1s5.7 2.8 9.2 6c.9 1 1.8 1.7 2.7 2.4.4-2.3.4-7 1.5-9.4 1.1-2.5-1.1-5.8.8-5.8 1.8 0 7 0 7-3.2 0-3.3 1.6-2.2 2.7-4 1.2-1.8-3.4-5.4-4.1-6.5-.8-1.1 3.4-1.5 6.4-5.8 1-1.6.6-4.8-.4-8.3-.5 1.3-1.5 2.2-3.2 1.2-2.8-1.6-7.1-.7-12.8.4-5.6 1-7.3 6.3-5.2 8.5 2 2.2-5.5 3.3-6 .4-.6-3-6.2-1-5.9 2.9.4 3.8-6.2 5.2-5.8 9.9.4 4.7-6 9-10.1 11.4l-2 1.1c2 1 3.7 1.6 4.5 1.6 3.5 0 9.8-1.7 12-3.9Z" fill="#85ACB0"/><path d="M183.6 359.5c2.3-2.2 6.3-1.1 8.6 1.1s5.7 2.8 9.2 6c.9 1 1.8 1.7 2.7 2.4.4-2.3.4-7 1.5-9.4 1.1-2.5-1.1-5.8.8-5.8 1.8 0 7 0 7-3.2 0-3.3 1.6-2.2 2.7-4 1.2-1.8-3.4-5.4-4.1-6.5-.8-1.1 3.4-1.5 6.4-5.8 1-1.6.6-4.8-.4-8.3-.5 1.3-1.5 2.2-3.2 1.2-2.8-1.6-7.1-.7-12.8.4-5.6 1-7.3 6.3-5.2 8.5 2 2.2-5.5 3.3-6 .4-.6-3-6.2-1-5.9 2.9.4 3.8-6.2 5.2-5.8 9.9.4 4.7-6 9-10.1 11.4l-2 1.1c2 1 3.7 1.6 4.5 1.6 3.5 0 9.8-1.7 12-3.9" stroke="#fff"/><path fill-rule="evenodd" clip-rule="evenodd" d="M204.3 381c-2.4 1.4-4.6 4.5-4.3 11 2.4 0 5.6.3 8 1-.6-7.1-3.2-9.3-3.8-10.8-.2-.4-.1-.8 0-1.2Z" fill="#85ACB0"/><path fill-rule="evenodd" clip-rule="evenodd" d="M161.6 367c.3 2 3.3 6.7 4.4 4.7 1.1-2 3.9 2.6 6.4 4 2.5 1.4 7.4 3 7.7 4.7.3 1.7 1.1 5.4 3.6 4.3 2.5-1.2 5.5-5.1 5.5-2.9 0 2.3.8 6.5 3.6 6 2.8-.6 3.6 4.7 6.3 4.2l2-.2c-.3-6.4 2-9.4 4.4-10.8.6-1 2.2-2.3 2.5-3.6.3-2-3.7-5.7-3.3-8v-.3l-2.7-2.4c-3.4-3.4-6.8-4-9-6.3-2.3-2.3-6.2-3.4-8.4-1.2-2.3 2.3-8.5 4-11.9 4a15 15 0 0 1-4.4-1.5c-2.7 1.5-5.5 3-8.3 3.6.6.8 1.4.4 1.6 1.7Z" fill="#85ACB0"/><path d="M161.6 367c.3 2 3.3 6.7 4.4 4.7 1.1-2 3.9 2.6 6.4 4 2.5 1.4 7.4 3 7.7 4.7.3 1.7 1.1 5.4 3.6 4.3 2.5-1.2 5.5-5.1 5.5-2.9 0 2.3.8 6.5 3.6 6 2.8-.6 3.6 4.7 6.3 4.2l2-.2c-.3-6.4 2-9.4 4.4-10.8.6-1 2.2-2.3 2.5-3.6.3-2-3.7-5.7-3.3-8v-.3l-2.7-2.4c-3.4-3.4-6.8-4-9-6.3-2.3-2.3-6.2-3.4-8.4-1.2-2.3 2.3-8.5 4-11.9 4a15 15 0 0 1-4.4-1.5c-2.7 1.5-5.5 3-8.3 3.6.6.8 1.4.4 1.6 1.7" stroke="#fff"/><path fill-rule="evenodd" clip-rule="evenodd" d="M477.6 458.5c-2.5-.4-5.8-1.5-4.7-3l.3-.4c-3.4-2.8-4.3-12-2.1-14.2 2.8-2.9-4.5-13.7-7.8-17.7a121 121 0 0 1-8.1-14.2c-3 1-5.5 2-6 2.9-1 1.8-4.7 3.7-6.9 3.7s-4.4-1.1-6.2.8c-1.8 1.8-4.3 2.6-5.4 1.5-1.1-1.2-4.8-2.3-7.3-2.3-2.6 0-10.6-2.2-12.4-2.2-1.1 0-2.8.1-4.8.4.5.8.1 1.8-1.1 2.7-2.2 1.7-6.6 4.2-8.2 5.4-1.7 1-7.4 15-11.2 19-3.9 3.9-7.4 4.4-7.7 5.8-.3 1.4 4.4 5 4.4 7.3s1 4.5 4 4.5-.2 7.3 1.7 7.8c2 .6 13.7 1.4 13.7 4.2 0 2.2 1.3 4 .7 5.5 3.3.6 5.7 5.2 7 4.9 1.5-.4 11.3 1.8 13.1 1.5 1.9-.4 10.2 0 13.2.3 2.9.4 6.1-1.1 8.7-3.7 2.5-2.6 11.7-3 14.6-2.6 2.9.4 8.7 1.1 9.8 3 .6 1 4 2.4 7.5 3.6.4-1.8-.1-4.3 0-6.6.2-4 2.3-9.9 6.2-10.3 3.8-.3 6.9-.3 6.3-6.9v-.6a15 15 0 0 0-4.3-3.1c-1.5 0-5.9 3.1-7 3Z" fill="#85ACB0"/><path d="M477.6 458.5c-2.5-.4-5.8-1.5-4.7-3l.3-.4c-3.4-2.8-4.3-12-2.1-14.2 2.8-2.9-4.5-13.7-7.8-17.7a121 121 0 0 1-8.1-14.2c-3 1-5.5 2-6 2.9-1 1.8-4.7 3.7-6.9 3.7s-4.4-1.1-6.2.8c-1.8 1.8-4.3 2.6-5.4 1.5-1.1-1.2-4.8-2.3-7.3-2.3-2.6 0-10.6-2.2-12.4-2.2-1.1 0-2.8.1-4.8.4.5.8.1 1.8-1.1 2.7-2.2 1.7-6.6 4.2-8.2 5.4-1.7 1-7.4 15-11.2 19-3.9 3.9-7.4 4.4-7.7 5.8-.3 1.4 4.4 5 4.4 7.3s1 4.5 4 4.5-.2 7.3 1.7 7.8c2 .6 13.7 1.4 13.7 4.2 0 2.2 1.3 4 .7 5.5 3.3.6 5.7 5.2 7 4.9 1.5-.4 11.3 1.8 13.1 1.5 1.9-.4 10.2 0 13.2.3 2.9.4 6.1-1.1 8.7-3.7 2.5-2.6 11.7-3 14.6-2.6 2.9.4 8.7 1.1 9.8 3 .6 1 4 2.4 7.5 3.6.4-1.8-.1-4.3 0-6.6.2-4 2.3-9.9 6.2-10.3 3.8-.3 6.9-.3 6.3-6.9v-.6a15 15 0 0 0-4.3-3.1c-1.5 0-5.9 3.1-7 3" stroke="#fff"/><path fill-rule="evenodd" clip-rule="evenodd" d="M444.6 478.8c-2.6 2.5-5.9 3.9-8.8 3.5-3-.3-11.5-.7-13.4-.3-1.8.3-11.8-1.8-13.3-1.4-1.3.3-3.8-4-7.1-4.6-.2.4-.5.8-1 1.1-2.5 1.6-2.8 5.9 0 8.3 2.7 2.3 6.4 7.6 3.9 7.6-2.5 0-4.5 3.2-4.2 4.8.3 1.6-.8 5 0 5.9.8.7 6.7 6 7 7.6.2 1.4 2.6 2.2 2.4 3.4 4.6-.3 14.5-.9 16.8.2a63 63 0 0 0 13.3 2.1c3 0 5.5-1 4.8-2.8-.6-1.5 3.2-2.5 6-2.8-.5-1.6-.8-3 0-3.2 1.3-.6 9.4-1.6 12.7 0 1.7.8 7.8.7 9.3-.2-.4-1.5-1.1-3.8-2-4-2-.3-9.2-8-6.6-8.6 2.6-.5 6-9 10-10.2 1.6-.5 2.3-1.4 2.6-2.6-3.5-1.1-7-2.5-7.6-3.4-1.1-1.8-7-2.5-10-2.9-3-.3-12.2 0-14.8 2.5Z" fill="#85ACB0" stroke="#fff"/><path fill-rule="evenodd" clip-rule="evenodd" d="M412.5 274c3.4 0 11.2 1.7 15.7 0s4.5 3.4 7.3 2.8c2.8-.6 8.4 3.3 11.8 6.2 1.8 1.4 3.9 2.6 6.2 4 .6-1 1.3-1.8 2.5-2.7 2.9-2.2 5.8-1 8.4-1 2.5 0 3-3 4.7-4.5 1-.8 2.7-1.3 3.9-1.5-1-2-1-6-2.7-7.6-1.9-2-4.6-5.3-3.8-7.2.8-1.9.8-4.6-1.4-6.8-1-1-1.7-2.1-2-3.2a55.1 55.1 0 0 0-12-.8c-2.1.8-10.9-6.2-12.4-7.3-1-.7-7.5-.3-13.3.2-3.4 3.7-1 6.5-1.1 12.3-.2 5.8-6.7 4.7-10.1 4.7-3.5 0-9.2-10.4-11-12.8-1.9-2.4-7.7 3-12 5.5-4.2 2.6-2 7.5-4.9 9.9-3 2.4-4.7 6.4-1.8 11.7l.3.7c3.7-.3 7.6-1 9.8-2.6 4-2.8 14.6 0 18 0Z" fill="#85ACB0"/><path d="M412.5 274c3.4 0 11.2 1.7 15.7 0s4.5 3.4 7.3 2.8c2.8-.6 8.4 3.3 11.8 6.2 1.8 1.4 3.9 2.6 6.2 4 .6-1 1.3-1.8 2.5-2.7 2.9-2.2 5.8-1 8.4-1 2.5 0 3-3 4.7-4.5 1-.8 2.7-1.3 3.9-1.5-1-2-1-6-2.7-7.6-1.9-2-4.6-5.3-3.8-7.2.8-1.9.8-4.6-1.4-6.8-1-1-1.7-2.1-2-3.2a55.1 55.1 0 0 0-12-.8c-2.1.8-10.9-6.2-12.4-7.3-1-.7-7.5-.3-13.3.2-3.4 3.7-1 6.5-1.1 12.3-.2 5.8-6.7 4.7-10.1 4.7-3.5 0-9.2-10.4-11-12.8-1.9-2.4-7.7 3-12 5.5-4.2 2.6-2 7.5-4.9 9.9-3 2.4-4.7 6.4-1.8 11.7l.3.7c3.7-.3 7.6-1 9.8-2.6 4-2.8 14.6 0 18 0" stroke="#fff"/><path fill-rule="evenodd" clip-rule="evenodd" d="M391.3 294c1.4 2 5.9 3.6 7.6 2.8 1.6-.8 7 1.9 7 4 0 2.2-1.5 8.7 0 8.7 1.2 0 9.2 2.4 9.8 5.7 3.6 0 7.6.3 9.2.6 3 .8 4.8-1 6.3-2.9 1.5-1.8 6.7-2.5 8.1-2.5 1.5 0 1.5-4 2-5.8.3-1.8 4-5 6.2-5.7 2.3-.8 1.9-3.3 4.1-3.3 2.2 0 1.9-2.9 1.5-4.7-.2-1 0-2.5.9-3.8-2.4-1.4-4.5-2.6-6.4-4-3.4-2.8-9-6.7-11.9-6.1-2.8.6-2.8-4.4-7.4-2.8-4.5 1.7-12.5 0-15.9 0-3.4 0-14.2-2.7-18.1 0a22 22 0 0 1-10 2.6c2.6 5 1.6 10.1-1.2 13.2-2 2.2-.9 2.5.6 3.4 3-.3 6.5-.8 7.6.7Z" fill="#85ACB0"/><path d="M391.3 294c1.4 2 5.9 3.6 7.6 2.8 1.6-.8 7 1.9 7 4 0 2.2-1.5 8.7 0 8.7 1.2 0 9.2 2.4 9.8 5.7 3.6 0 7.6.3 9.2.6 3 .8 4.8-1 6.3-2.9 1.5-1.8 6.7-2.5 8.1-2.5 1.5 0 1.5-4 2-5.8.3-1.8 4-5 6.2-5.7 2.3-.8 1.9-3.3 4.1-3.3 2.2 0 1.9-2.9 1.5-4.7-.2-1 0-2.5.9-3.8-2.4-1.4-4.5-2.6-6.4-4-3.4-2.8-9-6.7-11.9-6.1-2.8.6-2.8-4.4-7.4-2.8-4.5 1.7-12.5 0-15.9 0-3.4 0-14.2-2.7-18.1 0a22 22 0 0 1-10 2.6c2.6 5 1.6 10.1-1.2 13.2-2 2.2-.9 2.5.6 3.4 3-.3 6.5-.8 7.6.7" stroke="#fff"/><path fill-rule="evenodd" clip-rule="evenodd" d="M255.8 432.7c-2.5 1-6.4-2.3-6.4-3.4 0-.8-.5-3.6 0-5.3-2-1-5-2.5-7.2-3.2-3.8-1.1-5.6-1.1-8.6.4-1.9 1-7 .7-10.6.3-.3 1.2-.8 2-1.7 2-2.5 0-5.8 2.4-6.4 5.3-.5 2.8-6.4 5-8 10-1.7 5.1-.9 7.3 1.6 4.3 2.5-3.1 5.6-2 5.6.5s3.3 2.8 2.2 6.2v.2c3.8-.3 9-.8 10.7-.8 2.6 0 5.2-8.2 6.3-9 1-.7 4 6 7 8.7 3 2.6 3.3-2.3 3.3-4.5 0-2.3 2.6-3 4.5-2.6 1.8.3 6 1 6-1.5 0-2.7 2.1-1.5 3.6-1.5s1.9-3 1.9-3l2.4-2.3c-2-1-4.3-1.7-6.2-.8Z" fill="#85ACB0"/><path d="M255.8 432.7c-2.5 1-6.4-2.3-6.4-3.4 0-.8-.5-3.6 0-5.3-2-1-5-2.5-7.2-3.2-3.8-1.1-5.6-1.1-8.6.4-1.9 1-7 .7-10.6.3-.3 1.2-.8 2-1.7 2-2.5 0-5.8 2.4-6.4 5.3-.5 2.8-6.4 5-8 10-1.7 5.1-.9 7.3 1.6 4.3 2.5-3.1 5.6-2 5.6.5s3.3 2.8 2.2 6.2v.2c3.8-.3 9-.8 10.7-.8 2.6 0 5.2-8.2 6.3-9 1-.7 4 6 7 8.7 3 2.6 3.3-2.3 3.3-4.5 0-2.3 2.6-3 4.5-2.6 1.8.3 6 1 6-1.5 0-2.7 2.1-1.5 3.6-1.5s1.9-3 1.9-3l2.4-2.3c-2-1-4.3-1.7-6.2-.8" stroke="#fff"/><path fill-rule="evenodd" clip-rule="evenodd" d="M218.8 334.4c-2.9 4.3-6.9 4.7-6.2 5.8.8 1 5.1 4.7 4 6.5-1 1.9-2.5.8-2.5 4 0 3.3-5 3.3-6.9 3.3-1.8 0 .4 3.3-.7 5.8-1.1 2.6-1.1 7.7-1.5 9.8-.3 2.2 3.7 5.9 3.3 7.7-.4 1.8-3.3 3.2-2.5 4.7.6 1.4 3.3 3.5 3.8 10.2 1.3.4 2.3.8 2.8 1.4a9.7 9.7 0 0 0 7.9 3.8c3.5 0 4.9 2.5 6.5 2.2 1.6-.2 6 1.1 2.5 4.1-3.6 3-4.1 6.6-5 10.1-.5 2.3-.5 5.5-1 7.5 3.4.3 8.5.5 10.4-.4 2.9-1.4 4.7-1.4 8.3-.4 2.2.7 5.1 2.1 7.1 3.1.2-.7.6-1.2 1.4-1.3 2.4-.3 5.4 4.6 7 1.9 1.7-2.8 5.5-2.2 7.4-1.1 2 1 4.9 1.6 7-.6 2.3-2.1 10.7-3.2 12.6-2.4 2 .8 6.8 3 4.9-3.6-2-6.5 4-5.1 4.9-7.6.8-2.5 7.9-3.5 6.8-5.4-1-2-10-7.7-12.8-9.6-2.7-1.9-2.7-8-4-10.4-1.4-2.4-4.4-5.7-.9-6.5 3.5-.8 9.8-2.2 12.8-5 3-2.6 8.4-3 10-4.5 1.7-1.7 5.5 1.3 6.6-.3 1.1-1.7 1.9-5 .3-6.8-1.7-2-2.7-5.2-3-9.8-.3-4.7-1.6-4.4-1.6-6.6 0-2.2-.9-5-2.8-6s-2.7-2-.8-4.9c2-3 1.1-10.6.3-12.8a3 3 0 0 1 0-1.5c-.6-.2-1-.7-1.1-1.5-.6-3-2.5-4-7.3-4-4.7 0 3-4.8 1.1-7.1-1.8-2.4-6.5 4.3-10.9 2.9-4.3-1.5-10 5-13.7 8-3.9 3-9.3-.5-6.4-4.7 2.9-4.2 0-3.9-4.4-2.2-4.3 1.6-9.6-.4-9-4.4.1-1-.2-2-.7-2.8-2.2.3-3.8.4-4.6.1-2-.7-6.4-1-11.2-1.1 1.5 2.1 3 4.2 2.1 5.8-1.6 3.1 1 6 3.3 10.6 2.4 4.5-5 2-5.3 4.9-.1 2.9-6.8-.2-9-1.3-2.2-1-9.5-.4-9.3 1.5 0 .7 0 1.7-.3 2.5 1 3.5 1.4 6.8.3 8.4Z" fill="#85ACB0"/><path d="M218.8 334.4c-2.9 4.3-6.9 4.7-6.2 5.8.8 1 5.1 4.7 4 6.5-1 1.9-2.5.8-2.5 4 0 3.3-5 3.3-6.9 3.3-1.8 0 .4 3.3-.7 5.8-1.1 2.6-1.1 7.7-1.5 9.8-.3 2.2 3.7 5.9 3.3 7.7-.4 1.8-3.3 3.2-2.5 4.7.6 1.4 3.3 3.5 3.8 10.2 1.3.4 2.3.8 2.8 1.4a9.7 9.7 0 0 0 7.9 3.8c3.5 0 4.9 2.5 6.5 2.2 1.6-.2 6 1.1 2.5 4.1-3.6 3-4.1 6.6-5 10.1-.5 2.3-.5 5.5-1 7.5 3.4.3 8.5.5 10.4-.4 2.9-1.4 4.7-1.4 8.3-.4 2.2.7 5.1 2.1 7.1 3.1.2-.7.6-1.2 1.4-1.3 2.4-.3 5.4 4.6 7 1.9 1.7-2.8 5.5-2.2 7.4-1.1 2 1 4.9 1.6 7-.6 2.3-2.1 10.7-3.2 12.6-2.4 2 .8 6.8 3 4.9-3.6-2-6.5 4-5.1 4.9-7.6.8-2.5 7.9-3.5 6.8-5.4-1-2-10-7.7-12.8-9.6-2.7-1.9-2.7-8-4-10.4-1.4-2.4-4.4-5.7-.9-6.5 3.5-.8 9.8-2.2 12.8-5 3-2.6 8.4-3 10-4.5 1.7-1.7 5.5 1.3 6.6-.3 1.1-1.7 1.9-5 .3-6.8-1.7-2-2.7-5.2-3-9.8-.3-4.7-1.6-4.4-1.6-6.6 0-2.2-.9-5-2.8-6s-2.7-2-.8-4.9c2-3 1.1-10.6.3-12.8a3 3 0 0 1 0-1.5c-.6-.2-1-.7-1.1-1.5-.6-3-2.5-4-7.3-4-4.7 0 3-4.8 1.1-7.1-1.8-2.4-6.5 4.3-10.9 2.9-4.3-1.5-10 5-13.7 8-3.9 3-9.3-.5-6.4-4.7 2.9-4.2 0-3.9-4.4-2.2-4.3 1.6-9.6-.4-9-4.4.1-1-.2-2-.7-2.8-2.2.3-3.8.4-4.6.1-2-.7-6.4-1-11.2-1.1 1.5 2.1 3 4.2 2.1 5.8-1.6 3.1 1 6 3.3 10.6 2.4 4.5-5 2-5.3 4.9-.1 2.9-6.8-.2-9-1.3-2.2-1-9.5-.4-9.3 1.5 0 .7 0 1.7-.3 2.5 1 3.5 1.4 6.8.3 8.4" stroke="#fff"/><path fill-rule="evenodd" clip-rule="evenodd" d="M496 174c3-6.7 16.1-11.8 18.3-17.7 1.1-3 1.5-4.4-3.3-10-4.7-5.4-15.3-9-15.6-12-.4-3 8-3.3 7.6-7-.4-3.7-4.7-3.7-6.6-6.6-1.8-3 2.2-4.8 1.9-6.2-.4-1.5-5.9-2.2-6.2-4-.4-2 3.6-1.6 2.9-3.8-.7-2.2-4.4-6.2-1.8-9.5 2.5-3.3 8 0 4-7.3-4-7.4-10.2-16.6-11.7-18.8-1.5-2.2 1.5-5.9 3.7-7.3 2.2-1.5 7.6-7 7.6-9.2 0-2.2-7-8-8.7-9.2-1.9-1-5.9-.7-7.7-4.4-1.8-3.6-3.6-4.7-1.8-7 1.8-2.2 1.8-4.4 1.8-6.6 0-2.2 4-.3 4.7-3.6.4-1.5 1.4-3.2 2.8-4.6 0-2.5.2-5.2 0-6.9-.6-3.5-10.6-4.7-13-8.8-2.3-4.1-8.1-2.4-9.9 0-1.7 2.3-12.3-.6-12.3 3 0 3.5-7.6 4-7.6 8.2 0 4.1 3.5 11.2-2.3 10.6-5.9-.6-1.8 2.4-5.3 7-3.5 4.8-3.5-2.9-7-1.7s-7.6-3.5-9.4-.6c-1.7 3-7.6.6-13.5-.6-5.8-1.2-8.7-9.4-13.4-10-3.1-.4-6.5 2.1-8.2 6 4.5 3 7.5 7.2 13.4 10 6.5 2.9 18.2 6.4 17.6 10.5-.6 4.2-2.3 10 .6 11.8 3 1.8-.6 9.5 3 11.3 3.4 1.7 2.3 10.6-.7 10.6-2.9 0 .6 4.7 2.4 6.4.8.9 1.4 3.3 1.7 6.2 3.6.8 6.8 2.7 10 4 4.9 2.3 4.1 5.8 4.3 9.6.2 3.9.4 6-2.2 4.4-2.5-1.6-5.3 0-6.7 5.5-1.5 5.5-8.4 12.2-12.6 12.5-4.2.4-3.8 4.8-7.3 5.7-3.4 1-6.7 3-6.5 6.8.1 3.9-5.1 4.2-8.6 4.2s-2.7 6.3-5.5 8c-2.7 1.6-2.2 3.8.4 7 2.5 3.4.3 6.3 1.3 8.7.9 2.4 4.9 7.9 2.1 14-2.7 6-5.6 13.5-3.2 12.8 2.3-.7 7.8 5 11.4 4.6 3.7-.4 4 5.1 7.5 4 3.5-1 3.5 3.3 13.5 3 10-.4 30.3-8.8 38.3-8.8 4.5 0 8.2-.6 11-1.3 1.8-2.6 3.8-5.4 6-7.5 5-5.2 16-8.9 18.9-15.5Z" fill="#85ACB0"/><path d="M496 174c3-6.7 16.1-11.8 18.3-17.7 1.1-3 1.5-4.4-3.3-10-4.7-5.4-15.3-9-15.6-12-.4-3 8-3.3 7.6-7-.4-3.7-4.7-3.7-6.6-6.6-1.8-3 2.2-4.8 1.9-6.2-.4-1.5-5.9-2.2-6.2-4-.4-2 3.6-1.6 2.9-3.8-.7-2.2-4.4-6.2-1.8-9.5 2.5-3.3 8 0 4-7.3-4-7.4-10.2-16.6-11.7-18.8-1.5-2.2 1.5-5.9 3.7-7.3 2.2-1.5 7.6-7 7.6-9.2 0-2.2-7-8-8.7-9.2-1.9-1-5.9-.7-7.7-4.4-1.8-3.6-3.6-4.7-1.8-7 1.8-2.2 1.8-4.4 1.8-6.6 0-2.2 4-.3 4.7-3.6.4-1.5 1.4-3.2 2.8-4.6 0-2.5.2-5.2 0-6.9-.6-3.5-10.6-4.7-13-8.8-2.3-4.1-8.1-2.4-9.9 0-1.7 2.3-12.3-.6-12.3 3 0 3.5-7.6 4-7.6 8.2 0 4.1 3.5 11.2-2.3 10.6-5.9-.6-1.8 2.4-5.3 7-3.5 4.8-3.5-2.9-7-1.7s-7.6-3.5-9.4-.6c-1.7 3-7.6.6-13.5-.6-5.8-1.2-8.7-9.4-13.4-10-3.1-.4-6.5 2.1-8.2 6 4.5 3 7.5 7.2 13.4 10 6.5 2.9 18.2 6.4 17.6 10.5-.6 4.2-2.3 10 .6 11.8 3 1.8-.6 9.5 3 11.3 3.4 1.7 2.3 10.6-.7 10.6-2.9 0 .6 4.7 2.4 6.4.8.9 1.4 3.3 1.7 6.2 3.6.8 6.8 2.7 10 4 4.9 2.3 4.1 5.8 4.3 9.6.2 3.9.4 6-2.2 4.4-2.5-1.6-5.3 0-6.7 5.5-1.5 5.5-8.4 12.2-12.6 12.5-4.2.4-3.8 4.8-7.3 5.7-3.4 1-6.7 3-6.5 6.8.1 3.9-5.1 4.2-8.6 4.2s-2.7 6.3-5.5 8c-2.7 1.6-2.2 3.8.4 7 2.5 3.4.3 6.3 1.3 8.7.9 2.4 4.9 7.9 2.1 14-2.7 6-5.6 13.5-3.2 12.8 2.3-.7 7.8 5 11.4 4.6 3.7-.4 4 5.1 7.5 4 3.5-1 3.5 3.3 13.5 3 10-.4 30.3-8.8 38.3-8.8 4.5 0 8.2-.6 11-1.3 1.8-2.6 3.8-5.4 6-7.5 5-5.2 16-8.9 18.9-15.5" stroke="#fff"/><path fill-rule="evenodd" clip-rule="evenodd" d="M245.6 493c-2-.2-2.5 3.5-7.4 6.6-5 3 0 17 4.9 16.4 5-.8 4.4-22.8 2.5-23Zm-19.2-94.3c-1.7.2-3-2.3-6.6-2.3a9.7 9.7 0 0 1-8-3.8c-1.6-2.3-10.1-2.8-12.9-2.3-2.7.6-3.6-4.7-6.3-4.1-2.7.5-3.6-3.6-3.6-5.8 0-2.3-3 1.6-5.5 2.7-2.4 1.1-3.3-2.5-3.5-4.1-.3-1.7-5.2-3.4-7.7-4.7-2.5-1.4-5.2-5.9-6.3-4-1.1 2-4.1-2.7-4.4-4.7-.2-1.2-1-.8-1.6-1.6l-2.8.3c-4.4-.2-8.2 3.3-7.5 10.7.7 7.4-5.3 8.1-12.8 8.7-7.5.5-5 6.5-8 8.9-3.2 2.4-14.2-1.3-15.6-5.4-1.5-4-11.4 0-7.2 4.8 4.3 4.8 4 11.5 1.7 13.3-2.4 1.9-7.5-3-10.8-.5-3.3 2.4-3.5-2.2-7.5-3.7s-5.7 1.8-12 1.3c-6.5-.6-10.1 3.1-7.8 5.9 2.4 2.8-.3 5.3 1.5 7.8 1.8 2.4 10.2 2 16.5 5.3 6.2 3.3 7.6.6 10.8 3 3 2.4 3.8.9 4 5.5.2 4.6 3.6 9 9.7 10.8 6 1.6 1.4 5.7 3.3 9.8 1.8 4-2.8 10-1.9 15 1 5-2.9 21-5.8 22.5l-.7.1c2.7 1.4 5.6 2.6 7 3.6 2.7 1.8 8.4 3.6 12 5.8 3.6 2.3 9.8 1.8 9.8-.9s3.6-.9 5.8 1.4c2.2 2.2 10.7 2.7 14.7 3.6 3.4.7 8.3.2 12.7.3l-.7-3.2c-2.2-7.2 4.2-11.4 10.2-12.4 6-.9 19.2 2.8 22.7 5s8.2 1.7 14.3-4.8c3-3.3 5.5-4.4 7.7-5 .2-1.5 1-3 1.4-4.3.8-2.2-3-1.7-5.8-2-2.7-.2-4.6-3-2.7-6 2-3.1-1.6-3.4-3.6-6.5-1.9-3 .9-2.2 2.5-3 1.6-.8 3.8-4.2 2.5-5-1.4-.8-2.5-2.8-1.4-6.1s-2.2-3.6-2.2-6.1c0-2.5-3-3.6-5.5-.6s-3.3.9-1.6-4.1c1.6-5 7.4-7.2 8-10 .5-2.8 3.8-5.3 6.2-5.3 2.5 0 2-5.8 2.8-9.4.8-3.6 1.4-7.2 5-10.3 3.5-3-.9-4.4-2.5-4.1Z" fill="#85ACB0"/><path d="M245.6 493v-.5.5Zm-7.4 6.6.2.4-.2-.4ZM243 516v.5-.5Zm-31.3-123.4-.4.3.4-.3Zm-12.9-2.3v-.5.5Zm-6.3-4.1v.5-.5Zm-9-3 .1.4-.2-.5ZM180 379h-.5.5Zm-7.7-4.7-.3.4.3-.4Zm-6.3-4-.5-.2.5.3Zm-4.4-4.7h.5-.5ZM160 364l.4-.3-.2-.3-.3.1v.5Zm-2.8.3v-.5.5Zm-7.5 10.7h.5-.5Zm-12.8 8.7v-.5.5Zm-8 8.9-.4-.4.3.4Zm-15.6-5.4-.5.2.5-.2ZM106 392l.4-.3-.4.3Zm1.7 13.3-.3-.4.3.4Zm-10.8-.5-.3-.4.3.4Zm-7.5-3.7-.2.5.2-.5Zm-12 1.3-.1.5v-.5Zm-7.8 5.9-.3.3.3-.3Zm1.5 7.8-.4.3.4-.3Zm16.5 5.3-.3.5.3-.5Zm10.8 3-.3.4.3-.4Zm4 5.5h-.5.5Zm9.7 10.8-.1.4v-.4Zm3.3 9.8.4-.3-.4.3Zm-1.9 15h-.4.4Zm-5.8 22.5-.2-.5.2.5Zm-.7.1-.1-.5-1.5.3 1.3.7.3-.5Zm7 3.6.3-.4-.3.4Zm12 5.8.3-.4-.3.4Zm15.6.5.4-.4-.4.4Zm14.7 3.6.1-.5-.1.5Zm12.7.3v.5h.6l-.1-.5h-.5Zm-.7-3.2.4-.1-.4.1Zm10.2-12.4v-.5.5Zm22.7 5 .3-.4-.3.4Zm14.3-4.8.3.4-.3-.4Zm7.7-5 .2.4.3-.1v-.3h-.5Zm1.4-4.3-.5-.2.5.2Zm-5.8-2 .1-.5v.5Zm-2.7-6-.4-.3.4.2Zm-3.6-6.5-.4.3.4-.3Zm2.5-3 .2.4-.2-.4Zm2.5-5-.3.4.3-.4Zm-1.4-6.1.5.2-.5-.2Zm-7.7-6.7.4.4-.4-.4Zm-1.6-4.1-.5-.2.5.2Zm8-10h.4-.5Zm9-14.7.5.1-.5-.1Zm5-10.3.3.4-.4-.4Zm16.7 89.7c-.7 0-1.2.2-1.7.6l-1.3 1.6c-1 1.3-2.3 3-4.7 4.5l.5.8c2.6-1.6 4-3.3 5-4.6.5-.7.8-1.2 1.2-1.5.3-.3.6-.4 1-.4v-1Zm-7.7 6.7c-1.4.8-2 2.5-2.2 4.3-.2 1.8.1 4 .8 5.9.6 1.9 1.5 3.7 2.7 5 1 1.4 2.5 2.3 4 2l-.2-1c-1 .2-2-.4-3-1.6-1-1.2-2-2.9-2.6-4.8-.6-1.8-.9-3.8-.7-5.4.1-1.7.7-3 1.7-3.6l-.5-.8Zm5.3 17.3c.8-.1 1.4-.7 2-1.4.5-.8.9-1.7 1.2-2.9a51 51 0 0 0 .3-18.4l-.4-.8c-.1-.2-.3-.5-.7-.5l-.1 1c-.1 0-.1 0 0 0l.2.7c.2.5.4 1.4.5 2.4.3 2.1.4 4.9.3 7.7-.2 2.8-.5 5.6-1 7.7-.4 1-.8 1.9-1.2 2.5-.4.6-.8 1-1.3 1l.2 1Zm-17-118.3c-.2 0-.5 0-.9-.2l-1.3-.8a8 8 0 0 0-4.2-1.3v1a7 7 0 0 1 3.7 1.2l1.4.8c.5.2 1 .4 1.5.3l-.1-1Zm-6.4-2.3c-3.4 0-6-1.5-7.6-3.6l-.8.6c1.7 2.3 4.6 4 8.4 4v-1Zm-7.6-3.6a5.2 5.2 0 0 0-2.6-1.6l-3.8-.8a26 26 0 0 0-7 0l.2 1a25 25 0 0 1 10.3.8c1 .3 1.8.7 2.1 1.2l.8-.6Zm-13.4-2.5c-.5.1-1 0-1.3-.3-.5-.4-.9-1-1.3-1.5-.5-.6-1-1.3-1.5-1.7-.6-.5-1.3-.8-2.2-.6l.2 1c.5-.1 1 0 1.3.4.5.3.9.9 1.4 1.5.4.5.9 1.2 1.4 1.6.6.5 1.3.8 2.2.6l-.2-1Zm-6.3-4.1c-.5.1-1 0-1.3-.3-.4-.3-.7-.7-1-1.3-.5-1.2-.7-2.7-.7-3.7h-1c0 1.1.2 2.8.8 4.1.3.7.7 1.3 1.3 1.7.6.4 1.3.6 2 .5l-.1-1Zm-3-5.3c0-.4 0-.7-.2-1-.3-.2-.6-.3-.9-.2l-.7.3-.8.6-.9.7a45.5 45.5 0 0 1-2.7 1.9l.4.9a40 40 0 0 0 3-2l.8-.7a8.9 8.9 0 0 1 1.1-.7c-.1-.1 0 0 0 .2h1Zm-6.2 2.3c-.5.2-.8.2-1.1 0-.3-.1-.6-.4-.8-.9-.5-.8-.8-2-1-3l-1 .3c.2.8.5 2.2 1.1 3.2.3.6.7 1 1.3 1.3.5.3 1.2.3 2 0l-.5-1Zm-2.8-3.8c-.1-.6-.6-1.1-1.2-1.6l-2.1-1.2-2.5-1.2a33 33 0 0 1-2.2-1l-.5.8 2.3 1.1 2.4 1.2c.8.4 1.5.7 2 1.1.5.4.7.7.8 1l1-.2Zm-8-5a53.6 53.6 0 0 1-3.6-3.1c-.5-.6-1-1.1-1.7-1.3-.2-.1-.6-.2-.9 0-.3 0-.6.3-.8.6l1 .5.1-.2h.3l1.4 1 .8.9 1 .9a11 11 0 0 0 2 1.5l.4-.9Zm-7-3.8c0 .2-.1.2-.2.2h-.2c-.4-.2-.8-.6-1.2-1.1-.5-.6-.9-1.3-1.2-2-.3-.6-.6-1.2-.6-1.6l-1 .1c0 .6.3 1.3.7 2 .3.7.8 1.5 1.3 2 .5.7 1 1.2 1.6 1.5.2.1.6.2 1 0 .3 0 .5-.3.7-.6l-.9-.5Zm-3.4-4.5a2 2 0 0 0-.4-1l-.5-.4c-.4-.2-.6-.2-.8-.5l-.8.6c.4.5.9.7 1.1.8.1 0 .2 0 .2.2l.2.4 1-.1Zm-2.2-2-2.7.2v1c1 0 2-.1 2.9-.3l-.2-1Zm-2.7.2c-2.3-.1-4.5.8-6 2.7-1.6 1.9-2.4 4.8-2 8.6l1-.1c-.4-3.7.4-6.2 1.7-7.9a6.2 6.2 0 0 1 5.3-2.3v-1Zm-8 11.3c.2 1.7 0 3-.6 4-.5 1-1.3 1.8-2.4 2.4a26.8 26.8 0 0 1-9.4 1.7l.1 1c3.7-.3 7.2-.6 9.7-1.8a6.3 6.3 0 0 0 2.9-2.8c.6-1.2.9-2.7.7-4.6h-1Zm-12.4 8c-1.9.2-3.2.7-4.2 1.5-1 .7-1.5 1.7-1.9 2.7l-.4 1.4-.4 1.4c-.3.8-.7 1.6-1.4 2l.6.9c1-.7 1.4-1.7 1.7-2.6l.5-1.4c0-.5.2-1 .4-1.4.3-.9.7-1.6 1.5-2.2.8-.6 2-1 3.7-1.2v-1Zm-8.3 9c-.6.6-1.7.8-3.2.7-1.4 0-3-.4-4.7-1-1.6-.5-3.2-1.3-4.4-2.1a6.2 6.2 0 0 1-2.5-2.7l-.9.4a7.1 7.1 0 0 0 2.8 3.1 19.7 19.7 0 0 0 9.7 3.3c1.5 0 3-.1 3.8-.8l-.6-.8Zm-14.8-5c-.4-1.3-1.5-1.9-2.7-2-1.2-.2-2.5.2-3.6.7a5.1 5.1 0 0 0-2.6 2.7c-.4 1.2-.2 2.5 1 3.8l.7-.6c-1-1.1-1-2-.8-2.9.3-.8 1.1-1.6 2.1-2 1-.6 2.1-.8 3.1-.7 1 0 1.6.5 2 1.3l.8-.4Zm-8 5.2c2.1 2.4 3 5.1 3.2 7.5a9 9 0 0 1-.3 3.2c-.2.9-.6 1.6-1.1 2l.6.7c.7-.5 1.2-1.4 1.5-2.4.3-1 .4-2.3.3-3.6a14 14 0 0 0-3.4-8l-.7.6Zm1.8 12.6c-.4.4-1 .4-1.8.3l-2.8-.8c-1-.4-2-.7-3.1-.8-1 0-2.2 0-3.1.8l.6.8c.7-.5 1.5-.7 2.4-.6.9 0 1.9.4 2.9.7l2.9.9c.9.1 1.8.1 2.6-.5l-.6-.8Zm-10.8-.5c-.8.5-1.3.6-1.6.5-.4 0-.7-.3-1.2-.9-1-1-2-2.6-4.2-3.4l-.4 1c1.9.6 2.8 2 3.8 3.1.5.5 1 1 1.8 1.2.7.2 1.5 0 2.4-.7l-.6-.8Zm-7-3.8c-2.2-.8-3.8-.3-5.5.3-1.7.6-3.6 1.2-6.7 1l-.1 1c3.3.3 5.4-.5 7.1-1 1.7-.6 3-1 4.8-.3l.4-1ZM77.5 402c-3.3-.3-6 .5-7.5 1.8-.8.7-1.3 1.5-1.5 2.3-.1 1 .2 1.8.9 2.6l.7-.6c-.5-.6-.7-1.2-.6-1.8.1-.6.5-1.2 1.1-1.7 1.3-1.1 3.7-1.9 6.8-1.6v-1Zm-8.1 6.7c1 1.2 1 2.4.8 3.6-.2 1.3-.5 2.8.6 4.2l.8-.6c-.8-1-.6-2-.4-3.4.1-1.4.2-2.9-1-4.4l-.8.6Zm1.4 7.8c.6.7 1.6 1.2 2.7 1.5 1.2.4 2.6.7 4.2 1 3.1.6 6.7 1.3 9.7 3l.5-1c-3.2-1.6-7-2.4-10-3-1.6-.3-3-.6-4-1-1.2-.3-2-.7-2.3-1.1l-.8.6Zm16.6 5.5c3.2 1.7 5.2 1.8 6.8 1.8.8 0 1.4 0 2 .2.6 0 1.2.3 2 .9l.6-.8c-.9-.7-1.6-1-2.4-1.1-.7-.2-1.4-.1-2.2-.2-1.4 0-3.3-.1-6.3-1.7l-.5.9Zm10.8 2.9c.8.6 1.4 1 2 1.2l1 .7c.4.3.7.9.8 3.2h1c-.1-2.3-.3-3.3-1.1-4l-1.3-.7-1.8-1.2-.6.8Zm3.8 5.1c.2 5 3.8 9.5 10 11.2l.3-1c-5.8-1.6-9.1-5.8-9.3-10.2h-1Zm10 11.2c1.5.4 2.2 1 2.6 1.5.3.5.4 1.2.3 2l-.2 1.3-.2 1.5c0 1 0 2.1.5 3.3l1-.5c-.5-.9-.5-1.8-.5-2.7l.2-1.4.2-1.4a4 4 0 0 0-.5-2.7c-.5-.8-1.5-1.4-3-1.8l-.3 1Zm3 9.6c.4.9.5 1.9.3 3-.1 1.2-.5 2.4-.9 3.7-.8 2.6-1.7 5.5-1.2 8.1l1-.2c-.5-2.3.4-4.9 1.2-7.6.4-1.3.8-2.6 1-3.8 0-1.3 0-2.5-.5-3.7l-.9.5Zm-1.8 14.8c.2 1.2.1 3-.2 5.3a61 61 0 0 1-3.4 13.5c-.4 1-.7 1.7-1.1 2.2-.4.6-.7 1-1 1l.5 1c.5-.3 1-.8 1.3-1.4l1.2-2.4A47 47 0 0 0 114 471c.3-2.2.4-4.2.1-5.6l-1 .2Zm-5.6 22h-.2l-.2.1h-.2l.2 1h.3c.1 0 .3 0 .5-.2l-.4-.9Zm-.8 1 4 2c1.3.6 2.4 1.1 3 1.6l.6-.9-3.1-1.6-4-2-.5 1Zm7 3.6c1.4 1 3.6 1.8 5.8 2.8 2.2 1 4.5 2 6.3 3l.5-.8a48.2 48.2 0 0 0-6.4-3.1c-2.3-1-4.3-1.9-5.6-2.8l-.6.9Zm12 5.8a11 11 0 0 0 6.6 1.5c1 0 2-.3 2.7-.8.8-.4 1.3-1 1.3-2h-1c0 .5-.2.9-.8 1.2-.5.3-1.3.5-2.3.6a10 10 0 0 1-6-1.3l-.4.8Zm10.6-1.3c0-.6.2-.7.3-.8l1.1.1c1 .4 2.5 1.3 3.5 2.4l.8-.7a11.3 11.3 0 0 0-4-2.6c-.6-.2-1.3-.3-1.8 0-.6.2-.9.8-.9 1.6h1Zm5 1.7c.6.7 1.6 1.2 2.8 1.5l4 1 4.4.6c1.4.2 2.7.4 3.7.7l.2-1c-1-.3-2.3-.5-3.7-.7l-4.3-.6a31 31 0 0 1-4-1c-1.1-.3-2-.7-2.4-1.2l-.8.7Zm14.9 3.8c1.7.3 3.9.4 6 .4h6.8v-1h-6.7c-2.2 0-4.3 0-5.9-.4l-.2 1Zm13.3-.2c-.2-1-.4-2.1-.8-3.3l-1 .3c.4 1.1.6 2.1.8 3.1l1-.1Zm-.8-3.3c-1-3.4 0-6.1 2-8 2-2 5-3.3 7.9-3.8l-.2-1c-3 .5-6.3 1.8-8.5 4a8.6 8.6 0 0 0-2.1 9l1-.2Zm9.9-11.8c2.9-.4 7.6.2 12 1.3a64.6 64.6 0 0 1 10.3 3.6l.6-.8a65.7 65.7 0 0 0-10.5-3.7c-4.6-1.1-9.5-1.8-12.6-1.4l.2 1Zm22.3 5c1.9 1.1 4 1.6 6.6.9 2.5-.7 5.3-2.6 8.3-5.8l-.7-.7c-3 3.2-5.6 4.9-7.9 5.5-2.2.6-4.1.2-5.7-.8l-.6.8Zm15-5c3-3.2 5.3-4.3 7.5-5l-.3-.9c-2.3.7-4.9 2-8 5.3l.7.7Zm7.8-5.3a35.7 35.7 0 0 1 1-3l.4-1.1-1-.4c0 .3-.2.6-.4 1 0 .3-.2.7-.4 1l-.6 2.4h1Zm1.4-4.1c.1-.4.2-.7.1-1 0-.3-.2-.6-.4-.8a3 3 0 0 0-1.7-.6l-2-.2H219l-.1 1h2.2c.7 0 1.4 0 2 .2.6 0 1 .2 1.1.3l.1.2v.5l.9.4Zm-6.2-2.7a3.4 3.4 0 0 1-2.7-1.7c-.5-1-.6-2.2.3-3.6l-.8-.5c-1 1.6-1 3.3-.4 4.5.7 1.3 2 2.2 3.5 2.3l.1-1Zm-2.4-5.3c.5-.8.7-1.5.6-2.2a3 3 0 0 0-1-1.6l-.8-.7-.8-.7a8 8 0 0 1-1.5-1.7l-.9.5a9 9 0 0 0 1.7 2l.9.7.7.6c.4.4.7.7.7 1 .1.4 0 .8-.4 1.6l.8.5Zm-3.5-7c-.5-.7-.6-1-.6-1.3v-.1l.2-.1c.3-.2.7-.2 1.1-.3.5-.1 1-.2 1.5-.5l-.4-.8-1.2.3c-.5 0-1 .2-1.4.3l-.5.4c-.2.2-.3.5-.3.8 0 .5.2 1.1.7 2l.9-.6Zm2.2-2.3c1-.4 2-1.6 2.6-2.7.3-.5.5-1.1.6-1.6 0-.6-.1-1.2-.7-1.5l-.5.8c.1.1.2.2.2.6a6.2 6.2 0 0 1-2.6 3.6l.4.8Zm2.5-5.8c-.6-.4-1-1-1.4-1.9a6 6 0 0 1 .3-3.6l-1-.4a7 7 0 0 0-.2 4.3c.3 1.2 1 2 1.8 2.4l.5-.8Zm-1.1-5.5c.3-1 .3-1.7.1-2.3-.2-.7-.5-1.2-.9-1.6-.8-.9-1.4-1.4-1.4-2.4h-1c0 1.5 1 2.3 1.6 3 .4.4.6.8.7 1.2.2.4.2 1 0 1.7l.9.4Zm-2.2-6.3c0-1.5-.9-2.6-2.2-2.9-1.3-.2-2.9.4-4.2 2l.8.7c1.2-1.5 2.4-1.8 3.2-1.7.8.2 1.4.9 1.4 1.9h1Zm-6.4-.9c-.6.8-1 1.1-1.3 1.2h-.1v-.1c-.2-.3-.2-.8-.1-1.7 0-.8.3-1.8.7-3l-1-.4-.7 3.3v2.2c.2.2.4.5.7.6.3.2.6.2.9 0 .5-.1 1-.7 1.7-1.4l-.8-.7Zm-.8-3.7c.8-2.3 2.6-4 4.3-5.6.8-.7 1.7-1.4 2.3-2.1.7-.7 1.3-1.5 1.4-2.3l-1-.2c0 .5-.4 1.1-1 1.8l-2.4 2a14.4 14.4 0 0 0-4.5 6.1l1 .3Zm8-10a6.2 6.2 0 0 1 2.3-3.4 6 6 0 0 1 3.5-1.5v-1a7 7 0 0 0-4.2 1.7 7.1 7.1 0 0 0-2.6 4l1 .2Zm5.8-4.9c1 0 1.5-.5 1.8-1.2.4-.7.6-1.6.7-2.6l.4-3c0-1.1.2-2.1.4-3l-1-.2-.4 3-.4 3c-.1 1-.3 1.8-.5 2.3-.3.5-.6.7-1 .7v1Zm3.3-9.8c.8-3.6 1.3-7 4.8-10l-.7-.8c-3.7 3.2-4.3 7-5.1 10.6l1 .2Zm4.8-10c.9-.8 1.4-1.5 1.5-2.3 0-.8-.3-1.4-.8-1.8-.5-.4-1.2-.7-1.8-.8-.7-.2-1.3-.2-1.8-.1l.1 1h1.4l1.4.7c.4.3.5.6.5.9 0 .4-.3 1-1.2 1.6l.7.8Z" fill="#fff"/><path fill-rule="evenodd" clip-rule="evenodd" d="M169.8 500.5c-4.5-.1-9.4.3-12.8-.4-4-1-12.6-1.4-14.8-3.6-2.3-2.3-5.9-4-5.9-1.4 0 2.7-6.2 3.2-9.8 1-3.6-2.3-9.4-4.1-12.1-6-1.4-.9-4.3-2-7.1-3.5-3.7.8-14.5-3.2-21.6-2.3-7.5.9-31.7-1.2-41-.4-9.4.7-10-3.9-15.2-3.9-5.1 0-2.9 6.3-10.3 6.5-7.3.2-8 4.8-2.7 9 3 2.5 2.6 7.6 2.2 12.3 1.5-.2 2.7-.6 3.3-1.4 2.3-2.7 4.5-2.3 4.5.4 0 2.8 5 1.9 7.6 1.9 2.7 0 1.8 2.2 5 0 3.1-2.3 7.6-1.4 7.6 1.3s6.7 1.4 3.1 5-8 4.5-8 7.2 4 8.5.8 11.7c-3 3.2 1 8.6-2.2 8.6-3.1 0-6.7 1.3-3.1 5 3.6 3.5 6.2 6.7 3.6 6.7-2.7 0-4.5 5.4-3.2 6.8 1.4 1.3 7.6 5.4 2.7 6.3-5 .9-5 5-5 7.6 0 1 .9 2.6 1.9 4.1 2.3-.4 4.5-.5 6.6.5 5.2 2.4 8.2 15.3 15.1 14.5 3-.4 1.5-2.6 3-4.1 1.5-1.5 4.2-.4 7.2-.4 2.9 0 4.4-4.3 11.4-4.4 7-.2 11.4-.8 15.8-.6 4.4.2 8-1.3 9-4.4 1.1-3.2 4.8-6 9.8-6.7 5-.7 4.2-6 4.6-8.9.4-3 8.7-7.4 9.2-9.6.6-2.3-4.8-10.8.2-18.4 5-7.6 10.3-8 10.3-12.2 0-4 5.2-5.4 11.4-6.1 6.3-.8 8.3-5 13.7-7.3 4.5-1.8 6-5.2 5.2-10.4Z" fill="#85ACB0"/><path d="M169.8 500.5c-4.5-.1-9.4.3-12.8-.4-4-1-12.6-1.4-14.8-3.6-2.3-2.3-5.9-4-5.9-1.4 0 2.7-6.2 3.2-9.8 1-3.6-2.3-9.4-4.1-12.1-6-1.4-.9-4.3-2-7.1-3.5-3.7.8-14.5-3.2-21.6-2.3-7.5.9-31.7-1.2-41-.4-9.4.7-10-3.9-15.2-3.9-5.1 0-2.9 6.3-10.3 6.5-7.3.2-8 4.8-2.7 9 3 2.5 2.6 7.6 2.2 12.3 1.5-.2 2.7-.6 3.3-1.4 2.3-2.7 4.5-2.3 4.5.4 0 2.8 5 1.9 7.6 1.9 2.7 0 1.8 2.2 5 0 3.1-2.3 7.6-1.4 7.6 1.3s6.7 1.4 3.1 5-8 4.5-8 7.2 4 8.5.8 11.7c-3 3.2 1 8.6-2.2 8.6-3.1 0-6.7 1.3-3.1 5 3.6 3.5 6.2 6.7 3.6 6.7-2.7 0-4.5 5.4-3.2 6.8 1.4 1.3 7.6 5.4 2.7 6.3-5 .9-5 5-5 7.6 0 1 .9 2.6 1.9 4.1 2.3-.4 4.5-.5 6.6.5 5.2 2.4 8.2 15.3 15.1 14.5 3-.4 1.5-2.6 3-4.1 1.5-1.5 4.2-.4 7.2-.4 2.9 0 4.4-4.3 11.4-4.4 7-.2 11.4-.8 15.8-.6 4.4.2 8-1.3 9-4.4 1.1-3.2 4.8-6 9.8-6.7 5-.7 4.2-6 4.6-8.9.4-3 8.7-7.4 9.2-9.6.6-2.3-4.8-10.8.2-18.4 5-7.6 10.3-8 10.3-12.2 0-4 5.2-5.4 11.4-6.1 6.3-.8 8.3-5 13.7-7.3 4.5-1.8 6-5.2 5.2-10.4" stroke="#fff"/><path fill-rule="evenodd" clip-rule="evenodd" d="M290 454.2c3-1.3 6.3-1.8 7.9-1 1.4.5 1.8 2.1 2 3.8 2.6-.4 7.1-1.1 8.7-1.8 2.1-.8 7 2 7.5.3.6-1.7 2.2-5.7 4.4-5.7 2.1 0 .8-6.1 3-6.4 2.1-.3 7.5-5.5 7.5-5.5s-2.2-4.6-3-4.9c-.8-.3-3.5 2.9-8.4 2.9-4.8 0-8.3 4-10.5 4-2.1 0-8.9-2.3-13.5-2.6-1.6 0-3.3-.2-4.9-.4-.4 4.4-1 11.1-.6 17.3Z" fill="#85ACB0"/><path d="M290 454.2c3-1.3 6.3-1.8 7.9-1 1.4.5 1.8 2.1 2 3.8 2.6-.4 7.1-1.1 8.7-1.8 2.1-.8 7 2 7.5.3.6-1.7 2.2-5.7 4.4-5.7 2.1 0 .8-6.1 3-6.4 2.1-.3 7.5-5.5 7.5-5.5s-2.2-4.6-3-4.9c-.8-.3-3.5 2.9-8.4 2.9-4.8 0-8.3 4-10.5 4-2.1 0-8.9-2.3-13.5-2.6-1.6 0-3.3-.2-4.9-.4-.4 4.4-1 11.1-.6 17.3" stroke="#fff"/><path fill-rule="evenodd" clip-rule="evenodd" d="M452 511c-2.8.3-6.7 1.3-6 2.9.7 1.8-2 2.9-5 2.9 0 0-10.4-.7-13.4-2.2a64.3 64.3 0 0 0-16.9-.2c0 .2 0 .4-.2.5-1.1 1.7-10.1 6.2-11.8 5.3-1.7-.8-2.5 2.8-5.8 3.6-3.4.8-8.4-.3-8.7 1.1-.3 1.4-2.5 5.2-4.5 7.1-2 2-.3 4.2-3 4.7-2 .4-2.7 3.7-3.7 6.7l.6.3c4 1.2 7.2 6 6.7 10.6-.6 4.6 6 6.2 9 2.9 2.9-3.3 11.3 1.8 11.3 4s-8.6-2.3-13.4 1.1c-4.9 3.5 3.7 6.8 2.6 10.5-1.1 3.6 2.2 8.7 6.5 8.6 4.3-.2 9.1 6.7 11.8 5.4 2.6-1.2-3.2-11-2.3-12.4 1-1.5 6.2 2.6 8.8-.4 2.6-2.9-1.9-5-5.8-4.9-4 .2-.2-5.1 4.5-2.4 4.6 2.8 6.9-.7 9.1-1 2.2-.5 2.8-8.3-4-10.1-7-1.9-6 5-10.5.3-4.5-4.5 4-2.7 4-6.6 0-3.8-6.8-9.3-10.2-13.9-3.3-4.5 4.7-6.7 6.5-3.4 2 3.3 7 2.7 10.1 1.4 3.2-1.3-3.3-7.1 2.4-9.3 5.8-2.2 5.8 1.6 7.7 2.4 1.8.7 3.5-4.6 9.5-4.6 3.1 0 5.8 2 8.5 4 1.6-1.8 3-2.8 3-4.3 0-1.9 3.6-2.7 3.6-5.7 0-1.5-.6-3.3-1-4.9Z" fill="#85ACB0" stroke="#fff"/><path fill-rule="evenodd" clip-rule="evenodd" d="M48.7 315.1c-1.5-1.1-3-2.4-4-3.7-4.8-5.6-6.7-1.1-7.2 2.2-.6 3.3-5-1.1-7.8-1.7-2.7-.5.9-5.8 2.8-7.2 1.3-1 2.6-3.5 3.4-7.1-.6 0-1-.1-1.6-.3-5-2-12.2-2-12.4 2.6-.2 4.6 5.7 3 5.9 5.9.1 3-5.9 2.2-10 5.1-4.3 3-8.8-2-13.2.2-4.4 2.2 4.7 4.8 1.4 9.4-3.3 4.7.2 4.5 5.7 8.9s-3.3 5.5-3.3 10.5-6.8 4.8-8.2 8.1c-1.5 3.4 5.8 10 12.2 10 4.6 0 15.2-3 21.4-8.9 6.2-5.9 9.5-.1 15.1-3 5.7-3 2.2-24.6 0-29-.4-.8-.4-1.5-.2-2Z" fill="#85ACB0"/><path fill-rule="evenodd" clip-rule="evenodd" d="M41.8 248c5-.2 10.9-8.4 8.4-10.7C47.8 235 38 248 41.8 248ZM152 341c.4-5.5-11.8-9.4-13-6.4-1.3 3-4 2.6-6.1-.7-2-3.4 1.8-6.5-.2-6.9-2-.4-4.6-5-4-6.9.5-1.8-3.1-13.7-9.4-15.2-6.2-1.4-7.1-10.3-8.2-15.1-1.1-4.9-5.2-2.3-8.3-6.4-3.1-4-8.4-2-11.2-1.8-2.8.2 0-5.2 4.4-8.2 4.4-3 9.6-18.7 9.6-21.8 0-3.2-19.3-3-23-1.1-3.7 1.8-7.3-2.8-4.2-4.1 3.1-1.3 9.7-7.8 9.3-10.4-.3-2.6 4.6-5 1.9-7.4-2.8-2.4-3.1 3.2-5.5 5-2.4 1.9-7.7 1.3-13.4.2s-8 7-7.7 10.5c.1 3.6-6.6 5.6-5.6 8.6 1.2 3-1.2 5.2-3 3.5-1.9-1.7-4-5.8-7.6-2.8-3.7 3 4.2 6.9 9 7.4 4.8.6-3.7 4.1-4.6 9.3-.9 5.2 6.2 3 6.6 6.7.4 3.7-10.3 4.2-10.3 7.7 0 3.6 6.1-1.6 8.9-3.1 2.7-1.5-1.5 8.7 5.1 7.6 6.6-1.1 4.8-10.2 7.2-9.8 2.3.3-1.1 4.8.9 8.7 2 3.9-4.8 9.8-4.4 12.6.3 2.8 13.6 2.8 17.8-1.7 4.2-4.4 6.2.4 3.3 3.7-3 3.4-1.7 6.5 2 7.8 3.7 1.3 5 1.7 3.3 4.6-1.6 3-.2 8.6-1.1 11.3-1 2.8-12.3 2.4-12.7.6-.3-1.9-5.1-.6-3.8 2 1.3 2.6-4 5.4-3.7 7.8.4 2.4 7.2 1.9 7.3 4.8.2 3-5 6.5-11.9 8.6-7 2 1.5 7.6 4.8 5.1 3.3-2.4 2.6 1.7 7.3 1.7 4.8 0 7.8 4 13 1.9 5.4-2 5.2 0 1.2 3.1-4 3.2-10.1-.2-13.8 1.9-3.7 2-18.6 16.1-15.8 19.6 1.7 2 3.9-3 9.2-5.2 5.3-2.2 6.2 1.5 9.2 1.9 3 .4 3-6.1 5.5-5.6 2.4.6 4.6-2 9-1.3 4.4.8 7.5-.9 9.7-2.7 2.2-1.9 8 3.6 10 2.4a36 36 0 0 1 13.9-2.6c4 .2 14.5-4.7 17.2-7.3 2.8-2.6-1.6-3.1-5.3-2.6-3.7.6-3-3.7 1-7.4 3.8-3.7 9.8-6.5 10.2-12ZM51.6 295.6c-4.6-4.6-10.6 2.7-15.5 2.6-.8 3.6-2 6.3-3.3 7.2-2 1.5-5.6 6.9-2.8 7.4 2.8.6 7.2 5.2 7.8 1.8.5-3.5 2.4-8 7.1-2.3A25 25 0 0 0 49 316c.8-2.6 6.6-3 9.6-6.1 3.6-3.8-1.9-9.3-7-14.4Z" fill="#3F5557"/><path fill-rule="evenodd" clip-rule="evenodd" d="m112.3 210.1.5.5a16 16 0 0 0 3-5.2c.9-2 1.5-4.4 1.5-6.2 0-.8-.1-1.5-.5-2.1l-.7-.8c-.4-.2-.7-.3-1.1-.3l-.9.1c-.8.2-1.4.7-1.9 1.3-.7 1-1.2 2.2-1.5 3.5a19.7 19.7 0 0 0 .4 9.2c0 .2.2.3.3.5.2.1.4.3.7.3.4 0 .6-.1.7-.3l-.5-.5-.5-.5.3.3v-.4l-.3.1.3.3v-.4.4l.4-.3-.4-.1v.4l.4-.3s-.2-.2-.2-.5c-.3-.8-.5-2.4-.5-4.2 0-1.6.2-3.4.7-4.9.2-.7.5-1.3.8-1.7.4-.4.8-.7 1.2-.8h.8c.1 0 .3.2.4.5l.1 1.2c0 1.5-.5 3.7-1.3 5.7s-1.8 3.9-2.7 4.7l.5.5ZM41.4 250v.7c2.4-.1 4.7-1.8 6.4-3.8 1-1 1.6-2.2 2.2-3.3.5-1 .8-2.2.8-3.2a3 3 0 0 0-.7-2.1c-.4-.4-.8-.5-1.2-.5a3 3 0 0 0-1.5.4 23.4 23.4 0 0 0-6.7 8.2c-.5 1-.8 1.9-.8 2.7 0 .4 0 .8.4 1.1.3.4.7.5 1.1.5v-1.5l-.1.1v-.2c0-.4.3-1.4.9-2.4a25.5 25.5 0 0 1 5.4-6.8c.5-.5 1-.6 1.3-.6h.1c.2.3.4.6.4 1.1 0 .7-.3 1.6-.7 2.6a14 14 0 0 1-3.2 4.2 7 7 0 0 1-4 2v.8Zm110.9 91h.7v-.3c0-1.2-.5-2.3-1.3-3.3-1.2-1.4-2.9-2.5-4.7-3.3-1.9-.8-3.8-1.3-5.4-1.3-.7 0-1.3.1-1.8.3-.6.2-1 .6-1.3 1.2a3 3 0 0 1-.9 1.2c-.3.2-.6.3-1 .3-.3 0-.8-.1-1.3-.5s-1-1-1.6-1.8c-.4-.6-.5-1.2-.5-1.8 0-.7.2-1.4.5-2 0-.4.2-.7.3-1l.2-1c0-.3 0-.6-.3-.9-.2-.2-.6-.4-.9-.4-.2 0-.6-.3-1-.6a8.6 8.6 0 0 1-2.5-4.9v-.3l.1-.7a26.7 26.7 0 0 0-4-10.5 10.8 10.8 0 0 0-6-4.7c-1.4-.4-2.5-1-3.4-2.1a15.2 15.2 0 0 1-3-6l-1.4-6.4a5 5 0 0 0-1.5-2.8c-1.1-.9-2.4-1-3.5-1.4a6.3 6.3 0 0 1-3.4-2.3c-.8-1-1.9-1.8-3-2.2a9 9 0 0 0-3.2-.5c-2.3 0-4.4.6-5.7.6h-.3v-.2l.3-1.2c.8-1.5 2.6-3.8 4.9-5.3 1.3-.8 2.5-2.4 3.6-4.4a60.5 60.5 0 0 0 6.3-17.7c0-.4-.2-.8-.4-1.1-.5-.5-1.1-.8-2-1a65 65 0 0 0-19.8-.3l-1.9.6a3.2 3.2 0 0 1-3.5-.4c-.6-.5-.9-1-.9-1.4 0-.2 0-.3.2-.4 0-.2.2-.3.6-.5a22 22 0 0 0 6-4.6c1-1 2-2 2.7-3.1.7-1 1.1-2 1.1-3v-.4c0-.3.1-.7.3-1l1.4-2c.5-.8 1-1.5 1-2.5 0-.7-.4-1.5-1-2.1-.6-.5-1.2-.8-1.8-.8-.4 0-.7.1-1 .3-.5.3-.8.8-1.1 1.2-.5.7-.8 1.6-1.3 2.4-.4.7-.8 1.4-1.3 1.8-1 .7-2.6 1-4.7 1a46.1 46.1 0 0 1-9.4-1c-1.4 0-2.6.4-3.5 1.2a10.3 10.3 0 0 0-3 4.6 15.5 15.5 0 0 0-1 5.4v.1c0 .6-.2 1.1-.7 1.7-.7.9-1.8 1.8-2.9 2.7l-1.4 1.4a3 3 0 0 0-.6 1.8c0 .3 0 .6.2 1l.2 1.1c0 .6-.2 1.1-.5 1.4-.2.3-.5.5-.8.5-.3 0-.6-.1-.9-.4l-2.2-2.3a7 7 0 0 0-1.4-1.2c-.6-.3-1.2-.5-2-.5-.9 0-1.9.4-3 1.2-.7.6-1.1 1.4-1.1 2.2 0 1 .5 1.8 1.2 2.5 1 1 2.6 1.9 4.3 2.6 1.7.7 3.5 1.2 5.1 1.3.5 0 .8.2.9.2l.1-.1h-.2v.1l.2-.1h-.2.3-.3.3-.3.1l-.3.3-1.2 1.3c-.8.7-1.8 1.7-2.7 2.8a8.7 8.7 0 0 0-2 3.8v1c0 1.2.5 2.1 1.2 2.7 1.2.8 2.6 1 3.7 1.4.5.2 1 .4 1.3.7.3.3.4.5.5 1 0 .3 0 .6-.3.8a6 6 0 0 1-2.1 1.4l-5 2c-.7.4-1.4.8-2 1.4-.5.5-1 1.1-1 2 0 .5.2 1 .5 1.4.3.3.8.5 1.3.5a5 5 0 0 0 2-.6l3.3-2 2.9-1.8h.1v-.2.2-.2.2-.4l-.2.3h.2v-.3l-.2.3.2-.2-.2.1.2-.1-.2.1v.5l.1 1.9c0 1.1 0 2.4.6 3.5.2.5.6 1 1.2 1.4.6.4 1.3.6 2 .6l1.1-.1a6.3 6.3 0 0 0 4-2.3c1.4-1.6 1.8-3.6 2.2-5.2l.5-1.8.3-.4h.2v.4c0 .4 0 1-.2 1.9a14 14 0 0 0-.4 2.7c0 1 .2 2.1.8 3.2l.3 1.2c0 1.5-1.1 3.5-2.3 5.4l-1.7 2.7c-.5.9-.8 1.7-.9 2.6v.3c.1.5.5 1 1 1.3.6.4 1.4.7 2.5.9a26.5 26.5 0 0 0 10.2-.6c2.2-.6 4.2-1.5 5.5-2.9 1.2-1.2 2-1.5 2.5-1.5.4 0 .5.1.7.3.1.2.3.6.3 1 0 .9-.4 2-1.2 2.9a6.2 6.2 0 0 0-1.8 4c0 1.1.4 2.2 1.1 3 .7.8 1.8 1.4 3 1.9l2.9 1 .5.5.1.3c0 .3-.1.9-.6 1.6-.8 1.5-.9 3.3-1 5.1l.2 3.5c0 1.1-.1 2-.3 2.7 0 .1-.2.3-.6.5a7 7 0 0 1-2.3.8 19.9 19.9 0 0 1-8.2-.5l-.3-.2-.2.1h.3-.3.3c-.1-.5-.5-1-.9-1.2-.4-.2-.8-.3-1.3-.3-.7 0-1.5.2-2.2.7-.6.4-1.2 1.1-1.2 2l.3 1.2.1.5c0 .4-.1.8-.5 1.3-.5.8-1.3 1.6-2 2.5l-1 1.3c-.2.5-.4 1-.4 1.5v.4c.1.5.4.9.7 1.2.5.5 1.2.8 2 1l3.3 1.1c.5.2.8.4 1 .7.3.2.4.4.4.7a3 3 0 0 1-.7 1.9c-1.6 2-5.7 4.3-10.7 5.7a6 6 0 0 0-2.4 1.2c-.6.5-.9 1.1-.9 1.8 0 .6.3 1.2.7 1.7.6.7 1.4 1.3 2.4 1.7 1 .5 2 .8 3 .8s1.8-.2 2.6-.8c.7-.5 1.1-.6 1.3-.6.2 0 .3 0 .6.3.3.2.8.8 1.6 1.2.8.5 2 1 3.4 1 1.8 0 3.3.5 4.9 1 1.6.7 3.2 1.3 5.2 1.3 1 0 2.1-.2 3.3-.6 1.4-.6 2.5-.8 3-.8h.2l.1-.1h-.2l.1.2.1-.2h-.2.2-.2.2-.2l-.7 1-2 1.7a7.2 7.2 0 0 1-4.6 1.3l-5.4-.3c-1.3 0-2.6.2-3.8.8a78.1 78.1 0 0 0-15.3 15.3 7.6 7.6 0 0 0-1.3 3.6c0 .6.2 1.1.6 1.6.3.4.9.7 1.4.7.7 0 1.2-.4 1.8-.8l2.8-2.4c1.1-.9 2.5-1.8 4-2.4 1.2-.5 2-.7 2.8-.7a5 5 0 0 1 2.9 1c.9.6 1.8 1.4 3.2 1.5h.3c1 0 1.7-.5 2.2-1 .7-1 1.2-2.2 1.7-3.1l.7-1.1.4-.3h.2l.8.1c1.2 0 2.1-.4 3.2-.7a10.5 10.5 0 0 1 5-.6l2.3.2c3.5 0 6.2-1.5 8.1-3.1.2-.2.4-.2.7-.2.4 0 1 .1 1.7.4l3.3 1.5a8 8 0 0 0 3 1c.5 0 .9 0 1.2-.3a45.4 45.4 0 0 1 13.6-2.4h.3c1.2 0 2.6-.4 4.2-.8a51.8 51.8 0 0 0 13.4-6.6c.3-.3.6-.6.7-.9.2-.3.4-.6.4-1 0-.5-.3-.9-.6-1.1-.4-.4-1-.6-1.7-.8l-2.2-.2-2.6.2h-.5c-.5 0-.7 0-.8-.2-.2-.1-.3-.3-.3-.7 0-.5.3-1.3.8-2.2.5-1 1.3-2 2.3-3 1.9-1.7 4.4-3.3 6.5-5.2 2.1-1.8 3.9-4 4-7l-.6-.1h-.8c-.2 2.4-1.6 4.3-3.6 6-2 1.8-4.5 3.4-6.5 5.3-1.1 1-2 2.2-2.6 3.2-.6 1.1-1 2.1-1 3 0 .7.2 1.3.7 1.8.5.4 1.1.6 1.9.6h.7a17 17 0 0 1 2.4-.2c1 0 1.9 0 2.4.3.3 0 .4.2.5.2v.4l-.6.6a53.7 53.7 0 0 1-10.3 5.4c-2.4.9-4.8 1.5-6.2 1.5h-1a44.7 44.7 0 0 0-13.7 2.7h-.3c-.3 0-.9 0-1.5-.4-1-.3-2-1-3.2-1.5-1.2-.5-2.3-1-3.4-1-.6 0-1.2.2-1.6.6a11 11 0 0 1-9.2 2.5 10.5 10.5 0 0 0-5.8.7c-1 .4-2 .7-2.7.7h-.5a2 2 0 0 0-1.6.3c-.5.3-.9.9-1.2 1.5l-1.3 2.5a3 3 0 0 1-.7.8 1 1 0 0 1-.7.3h-.1c-1-.1-1.7-.7-2.6-1.3-1-.6-2-1.3-3.7-1.2-1 0-2 .2-3.3.7-2.4 1-4.1 2.4-5.5 3.6l-1.7 1.5-.9.4-.3-.2-.2-.6c0-.4.2-1 .5-1.7 1.2-2.5 4.3-6.2 7.5-9.3a78 78 0 0 1 7.9-6.6c.8-.5 1.8-.6 3-.6 1.6 0 3.5.3 5.4.3 1.9 0 3.8-.3 5.5-1.6 1-.8 1.8-1.5 2.3-2.1l.7-.9c.1-.3.3-.6.3-1 0-.3-.3-.8-.6-1a2 2 0 0 0-1-.2c-.9 0-2 .3-3.5.8-1 .4-2 .6-2.8.6-1.6 0-3.1-.6-4.7-1.2s-3.3-1.3-5.4-1.3c-1.7 0-2.4-.5-3.1-1l-1-.8c-.4-.3-1-.5-1.5-.5-.7 0-1.4.3-2.2.8-.4.3-1 .5-1.6.5-1 0-2.3-.4-3.3-1-.4-.3-.8-.6-1-1-.3-.3-.4-.5-.4-.7 0-.2 0-.4.4-.7.3-.3.9-.6 1.8-.9 3.5-1 6.5-2.3 8.8-3.9 1-.7 2-1.5 2.6-2.3.7-.9 1-1.8 1-2.7v-.2c0-.5-.1-1-.4-1.4-.5-.6-1.2-1-2-1.3l-3.4-1-1.1-.6c-.3-.2-.4-.4-.4-.5v-.2c0-.2.1-.7.5-1.1.5-.8 1.3-1.6 2-2.5.7-.9 1.4-1.8 1.4-3 0-.3 0-.7-.3-1.1l-.1-.5c0-.4.2-.6.5-1 .4-.2 1-.3 1.4-.3h.6l.1.2c0 .3.2.6.4.7l1.1.7a19 19 0 0 0 9.7.2l1.8-.7c.5-.3 1-.7 1.2-1.3.3-1 .3-2 .3-3.2v-3.5c0-1.7.1-3.3.7-4.3a5 5 0 0 0 .8-2.4 2 2 0 0 0-.4-1.2 4 4 0 0 0-1.6-1.1l-2.5-1c-1-.3-1.9-.8-2.4-1.4-.5-.6-.8-1.2-.8-2s.4-1.9 1.5-3c1-1.2 1.5-2.6 1.5-3.8 0-.7-.1-1.4-.5-2-.4-.5-1.1-.9-1.9-.9-1 0-2.2.7-3.5 2-1 1.1-2.9 2-4.9 2.5-2 .6-4.3.8-6.3.8-1.7 0-3-.1-4-.4l-1.2-.5-.3-.3v-.1c0-.4.3-1.1.7-1.9.6-1.2 1.7-2.6 2.5-4.1.9-1.5 1.6-3 1.7-4.7a4 4 0 0 0-.5-1.9c-.4-.8-.6-1.6-.6-2.5l.3-2.4.3-2.2c0-.4 0-.8-.3-1.2-.3-.4-.7-.6-1.2-.6h-.2l-.8.1a2 2 0 0 0-.8 1c-.3.6-.4 1.4-.7 2.3a13 13 0 0 1-1.4 3.9c-.7 1.2-1.7 2-3.5 2.3l-.8.1c-.5 0-.9 0-1.2-.2-.4-.3-.7-.7-1-1.4-.2-1-.2-2.3-.2-3.4l-.1-1.6-.4-.7c-.2-.2-.6-.4-.9-.4-.3 0-.5 0-.8.2l-4.1 2.6-2 1.2-1.4.4H48v-.4c0-.3 0-.5.2-.7a6 6 0 0 1 2.1-1.4l5-2a8 8 0 0 0 2-1.4c.6-.5 1-1.2 1-2v-.3c0-.5-.3-1-.6-1.4-.5-.7-1.2-1-1.9-1.3l-3-1-1-.8c-.1-.3-.3-.6-.3-1.1l.1-.8c.3-1.7 1.7-3.3 3.1-4.7l2-2 .6-.7c.2-.3.4-.6.4-1 0-.3 0-.5-.2-.7-.2-.3-.5-.5-.8-.6l-1.1-.2c-1.9-.2-4.3-1-6.2-2-1-.5-1.8-1-2.4-1.6-.5-.5-.8-1-.8-1.4 0-.3.2-.6.7-1 .9-.7 1.5-1 2-1s.8.2 1.2.4c.6.3 1.2.9 1.8 1.5.5.6 1 1.3 1.6 1.8.6.5 1.2.7 1.9.7.8 0 1.5-.4 2-1s.8-1.4.8-2.3c0-.5-.1-1.1-.4-1.7v-.4c0-.3.2-.8.7-1.3.7-.8 1.9-1.7 3-2.7.4-.4 1-1 1.3-1.6.4-.6.6-1.2.6-2v-.5c0-1.6.5-4 1.5-6 .5-1 1.2-1.9 1.9-2.5a4 4 0 0 1 3.5-.8c3 .6 6 1 8.5 1 2.3 0 4.2-.3 5.6-1.3 1.2-1 1.8-2.4 2.4-3.6l.9-1.4c0-.2.2-.3.3-.3l.2-.1c.1 0 .3 0 .8.4.4.4.5.7.5 1 0 .3 0 .6-.3 1l-1.4 2c-.5.7-1 1.5-1 2.5v.5c0 .3-.2 1.2-.9 2a24.6 24.6 0 0 1-8 7.3c-.5.2-1 .5-1.2.9-.3.4-.4.9-.4 1.3 0 1 .5 1.8 1.3 2.5a4.8 4.8 0 0 0 5.2.6l1.6-.4a51.1 51.1 0 0 1 19.8.5c.2 0 .4.2.5.3 0 .7-.3 2.3-.8 4.2a70 70 0 0 1-6.1 14.2 9.4 9.4 0 0 1-2.3 2.6 17 17 0 0 0-5.4 6c-.3.6-.5 1.1-.5 1.7 0 .4.1.9.5 1.2.3.4.8.5 1.2.5h.2c1.6-.1 3.6-.7 5.6-.7 1 0 1.9.2 2.7.5.9.3 1.6.9 2.3 1.7.9 1.1 1.8 1.8 2.8 2.2 1.3.7 2.6.9 3.5 1.3.5.2.8.4 1.1.8.3.3.6.9.8 1.7.5 2.3 1 5.7 2.2 8.8.6 1.5 1.4 3 2.5 4.2a8 8 0 0 0 4.2 2.5c1.2.3 2.4 1 3.5 2.2a24.2 24.2 0 0 1 5.3 11.5v1.1a9 9 0 0 0 3 5.9c.4.5 1 .9 1.7 1h.1l.1-.2-.2.1v.1l.2-.2-.2.1h.1-.1.1-.1s0 .3-.2.5c-.2.8-.9 2-.9 3.5 0 .8.2 1.7.7 2.5a8 8 0 0 0 2 2.3c.7.5 1.5.8 2.3.8a3 3 0 0 0 1.8-.6c.6-.5 1-1 1.3-1.8 0-.1.2-.3.5-.4l1.3-.2c1.7 0 4.3.7 6.4 2 1 .6 2 1.3 2.6 2 .6.8 1 1.6 1 2.4v.2h.7ZM51.7 296.7l.6-.6a5.9 5.9 0 0 0-4.2-1.6c-2.2 0-4.3 1-6.4 2-2 1-4 1.9-5.6 1.9h-.7l-.1.5c-.4 1.7-1 3.2-1.5 4.3a6 6 0 0 1-1.7 2.2 12 12 0 0 0-3.6 4.6c-.3.7-.5 1.3-.5 1.8s.1.9.4 1.3c.3.3.7.6 1.2.7.8.1 2 .8 3.3 1.4l1.8 1c.6.2 1.1.4 1.7.4.5 0 1-.1 1.3-.5.4-.3.6-.8.7-1.3.1-1 .5-2.1 1-3 .2-.3.4-.7.7-.9l.9-.2c.3 0 .7 0 1.3.4.6.4 1.3 1 2 1.9 1.3 1.3 2.8 2.6 4.3 3.7l.9.7.3-1c.1-.4.5-.8 1.1-1.2 1-.6 2.4-1 4-1.7 1.5-.7 3.1-1.5 4.4-2.7 1-.9 1.4-2 1.4-3.2 0-2-1.2-3.8-2.8-5.7-1.6-2-3.6-3.9-5.6-5.8l-1 1c2 2 4 3.9 5.5 5.7 1.5 1.8 2.5 3.5 2.4 4.8 0 .8-.2 1.5-1 2.2-1.3 1.3-3.4 2.2-5.4 3-1 .4-2 .7-2.7 1.2-.8.5-1.4 1-1.7 2l.7.2.4-.6c-1.5-1.1-3-2.3-4-3.6-.9-1-1.6-1.6-2.4-2-.7-.5-1.4-.8-2.1-.8-.7 0-1.3.2-1.8.6-.7.5-1.2 1.3-1.6 2.2-.3.8-.6 1.7-.7 2.6 0 .3-.2.5-.2.5h-.3c-.2 0-.6 0-1.1-.3l-2.6-1.3c-1-.5-1.9-1-2.8-1.1-.2 0-.3-.2-.3-.2l-.1-.4.3-1.2c.7-1.5 2.3-3.4 3.2-4 .8-.6 1.5-1.5 2.2-2.8.6-1.2 1.1-2.8 1.5-4.6l-.7-.1v.7c2.2 0 4.3-1 6.4-2 2-1 4-1.9 5.7-1.9 1.1 0 2 .3 3.1 1.3l.5-.5Z" fill="#FFFFFE"/><path fill-rule="evenodd" clip-rule="evenodd" d="M41.8 248c5-.2 10.9-8.4 8.4-10.7C47.8 235 38 248 41.8 248ZM152 341c.4-5.5-11.8-9.4-13-6.4-1.3 3-4 2.6-6.1-.7-2-3.4 1.8-6.5-.2-6.9-2-.4-4.6-5-4-6.9.5-1.8-3.1-13.7-9.4-15.2-6.2-1.4-7.1-10.3-8.2-15.1-1.1-4.9-5.2-2.3-8.3-6.4-3.1-4-8.4-2-11.2-1.8-2.8.2 0-5.2 4.4-8.2 4.4-3 9.6-18.7 9.6-21.8 0-3.2-19.3-3-23-1.1-3.7 1.8-7.3-2.8-4.2-4.1 3.1-1.3 9.7-7.8 9.3-10.4-.3-2.6 4.6-5 1.9-7.4-2.8-2.4-3.1 3.2-5.5 5-2.4 1.9-7.7 1.3-13.4.2s-8 7-7.7 10.5c.1 3.6-6.6 5.6-5.6 8.6 1.2 3-1.2 5.2-3 3.5-1.9-1.7-4-5.8-7.6-2.8-3.7 3 4.2 6.9 9 7.4 4.8.6-3.7 4.1-4.6 9.3-.9 5.2 6.2 3 6.6 6.7.4 3.7-10.3 4.2-10.3 7.7 0 3.6 6.1-1.6 8.9-3.1 2.7-1.5-1.5 8.7 5.1 7.6 6.6-1.1 4.8-10.2 7.2-9.8 2.3.3-1.1 4.8.9 8.7 2 3.9-4.8 9.8-4.4 12.6.3 2.8 13.6 2.8 17.8-1.7 4.2-4.4 6.2.4 3.3 3.7-3 3.4-1.7 6.5 2 7.8 3.7 1.3 5 1.7 3.3 4.6-1.6 3-.2 8.6-1.1 11.3-1 2.8-12.3 2.4-12.7.6-.3-1.9-5.1-.6-3.8 2 1.3 2.6-4 5.4-3.7 7.8.4 2.4 7.2 1.9 7.3 4.8.2 3-5 6.5-11.9 8.6-7 2 1.5 7.6 4.8 5.1 3.3-2.4 2.6 1.7 7.3 1.7 4.8 0 7.8 4 13 1.9 5.4-2 5.2 0 1.2 3.1-4 3.2-10.1-.2-13.8 1.9-3.7 2-18.6 16.1-15.8 19.6 1.7 2 3.9-3 9.2-5.2 5.3-2.2 6.2 1.5 9.2 1.9 3 .4 3-6.1 5.5-5.6 2.4.6 4.6-2 9-1.3 4.4.8 7.5-.9 9.7-2.7 2.2-1.9 8 3.6 10 2.4a36 36 0 0 1 13.9-2.6c4 .2 14.5-4.7 17.2-7.3 2.8-2.6-1.6-3.1-5.3-2.6-3.7.6-3-3.7 1-7.4 3.8-3.7 9.8-6.5 10.2-12ZM51.6 295.6c-4.6-4.6-10.6 2.7-15.5 2.6-.8 3.6-2 6.3-3.3 7.2-2 1.5-5.6 6.9-2.8 7.4 2.8.6 7.2 5.2 7.8 1.8.5-3.5 2.4-8 7.1-2.3A25 25 0 0 0 49 316c.8-2.6 6.6-3 9.6-6.1 3.6-3.8-1.9-9.3-7-14.4Z" fill="#85ACB0"/><path d="M41.8 248v.5-.5Zm8.4-10.7.4-.4-.4.4ZM152 341h-.5.5Zm-13-6.5-.5-.2.5.2Zm-6.1-.7-.4.2.4-.2Zm-.2-6.9v.5-.5Zm-4-6.9.5.2-.5-.2ZM111 289.8l.5-.2-.5.2Zm-8.3-6.4.4-.3-.4.3Zm-11.2-1.8v-.5.5Zm4.4-8.2.3.5-.3-.5Zm-13.4-23 .2.5-.2-.4Zm-4.2-4-.2-.5.2.5Zm9.3-10.4h-.5.5Zm1.9-7.4.3-.4-.3.4Zm-5.5 5-.3-.4.3.4Zm-13.4.2-.1.5v-.5ZM63 244.3h-.5.5Zm-5.6 8.6-.4.1.4-.1Zm-3 3.5.3-.4-.4.4Zm-7.6-2.8-.3-.4.3.4Zm9 7.4v.5-.5Zm-4.6 9.3-.5-.1h.5Zm6.6 6.7h-.5.5Zm-1.4 4.6.2.4-.2-.4Zm5.1 7.6v.5-.5Zm7.2-9.8v-.5.5Zm.9 8.7.4-.3-.4.3Zm-4.4 12.6h.5-.5ZM83 299l-.4-.3.4.3Zm3.3 3.7.4.4-.4-.4Zm2 7.8-.2.5.2-.5Zm3.3 4.6-.4-.2.4.2Zm-1.1 11.3-.5-.1.5.1Zm-12.7.6-.5.1.5-.1Zm-3.8 2 .4-.2-.4.2Zm-3.7 7.8-.5.1h.5Zm7.3 4.8h-.5.5Zm-11.9 8.6.2.4-.2-.4Zm4.8 5.1-.3-.4.3.4Zm20.4 3.6.1.4-.1-.4Zm1 3.1-.2-.4.3.4Zm-29.5 21.5-.4.3.4-.3Zm9.2-5.2-.2-.4.2.4Zm9.2 1.9v-.5.5Zm5.5-5.6v-.5.5Zm9-1.3-.1.5v-.5Zm9.7-2.7.3.3-.3-.3Zm10 2.4.2.4-.3-.4Zm13.9-2.6v-.5.5ZM146 363l-.3-.3.3.3Zm-5.3-2.6v-.5.5Zm1-7.4.3.4-.4-.4ZM36 298.1v-.5h-.4v.4h.4Zm-3.3 7.2-.3-.4.3.4Zm-2.8 7.4-.1.5.1-.5Zm7.8 1.8h.4-.4Zm7.1-2.3.4-.3-.4.3ZM49 316l-.3.4.6.4.2-.7-.5-.1Zm9.6-6.1-.4-.4.4.4Zm-16.8-61.4a8 8 0 0 0 4-1.5c1.3-.9 2.5-2 3.4-3.3a11 11 0 0 0 2-3.7c.3-1.1.2-2.3-.6-3l-.7.6c.4.4.6 1.1.3 2.2a10 10 0 0 1-1.8 3.3c-.8 1.2-2 2.3-3.1 3a7 7 0 0 1-3.6 1.4v1Zm8.8-11.6c-.5-.4-1.1-.5-1.7-.3-.6.2-1.2.5-1.8 1a21.4 21.4 0 0 0-6.4 8.3 3 3 0 0 0-.2 1.7c0 .3.2.5.4.7.3.2.6.2.9.2v-1h-.3v-.1c-.1-.2 0-.6.1-1.2.4-1 1.3-2.6 2.5-4 1-1.6 2.4-3 3.6-3.8.5-.4 1-.7 1.5-.8.4-.2.6 0 .7 0l.7-.7Zm101.9 104.2c.1-1.6-.7-3-1.9-4.2a13.6 13.6 0 0 0-4.3-2.7c-1.6-.7-3.3-1-4.7-1.1-.7 0-1.3 0-1.9.2a2 2 0 0 0-1.2 1l1 .5c0-.2.2-.4.6-.5.3-.2.9-.2 1.5-.2 1.2 0 2.8.4 4.3 1s3 1.5 4 2.6c1 1 1.7 2.2 1.6 3.3l1 .1Zm-14-6.7c-.6 1.3-1.4 1.8-2.2 1.7-1-.1-2-.9-3-2.5l-.8.5c1 1.7 2.3 2.8 3.6 3 1.4.2 2.6-.7 3.3-2.3l-.9-.4Zm-5.2-.8c-.9-1.5-.5-2.9 0-4.1l.3-.9.2-.8c0-.2 0-.6-.2-.8-.2-.3-.5-.4-.8-.5l-.2 1h.2v.2l-.1.6-.4.8c-.4 1.3-1 3.1.2 5l.8-.5Zm-.5-7c-.3-.2-.8-.4-1.3-1-.5-.4-1-1-1.3-1.7l-1-2a3 3 0 0 1 0-1.6l-1-.3a4 4 0 0 0 .1 2 10.2 10.2 0 0 0 2.5 4.4c.5.5 1.2 1 1.8 1l.2-.9Zm-3.6-6.3V319c0-.6-.2-1.2-.4-2a27.8 27.8 0 0 0-5-9.6 9 9 0 0 0-4.4-3l-.2 1a8 8 0 0 1 4 2.6 26.7 26.7 0 0 1 5 11v1l1 .3Zm-9.8-15.8c-2.8-.7-4.5-3.1-5.7-6-1.1-3-1.6-6.4-2.1-8.9l-1 .3c.5 2.3 1 5.8 2.2 8.9 1.2 3 3 5.8 6.4 6.6l.2-1Zm-7.8-14.9a4.8 4.8 0 0 0-1.5-2.7 6 6 0 0 0-2.3-1c-1.5-.5-3.2-.9-4.6-2.8l-.8.7c1.7 2.1 3.6 2.5 5.1 3a5 5 0 0 1 2 .9c.4.4.8 1 1 2.2l1-.3Zm-8.4-6.5a7.2 7.2 0 0 0-6.1-2.7c-1.1 0-2.2.2-3.1.3l-2.4.4v1c.8 0 1.6-.2 2.6-.4.9-.1 1.9-.3 2.9-.3 2 0 3.9.5 5.3 2.4l.8-.7Zm-11.6-2H91l-.1-.3c0-.4.1-1 .6-1.9.8-1.6 2.5-3.6 4.7-5l-.6-.9a16.1 16.1 0 0 0-5 5.5c-.5.8-.8 1.7-.7 2.4 0 .3.2.7.5 1 .3.2.7.2 1.1.2v-1Zm4.7-7.2c1.2-.9 2.4-2.5 3.5-4.4a53.3 53.3 0 0 0 5.4-13.5c.5-2 .9-3.6.9-4.4h-1A73 73 0 0 1 99 269c-1.2 2-2.3 3.4-3.3 4l.6.9Zm9.8-22.3c0-.7-.6-1.2-1.1-1.5a9 9 0 0 0-2.4-.8 67.1 67.1 0 0 0-18 0 9 9 0 0 0-2.2.7l.4 1a31.2 31.2 0 0 1 5-1 66 66 0 0 1 14.6.3 8 8 0 0 1 2 .7c.6.3.7.5.7.6h1ZM82.4 250c-1.6.8-3.2.2-4-.7-.5-.5-.7-1-.7-1.4 0-.4.2-.8.9-1l-.4-1c-1 .4-1.4 1-1.5 1.9 0 .8.3 1.5.9 2.1 1 1.3 3.2 2 5.2 1l-.4-.9Zm-3.8-3.2c.8-.3 1.9-1 3-1.8a30.8 30.8 0 0 0 5.7-6.2c.3-.5.6-1 .7-1.5.2-.5.3-1 .2-1.4l-1 .2-.1.9a7 7 0 0 1-.7 1.3 29.9 29.9 0 0 1-5.5 6l-2.7 1.6.4 1Zm9.6-10.9c0-.4.1-1 .5-1.6l1.3-1.8c.4-.6.8-1.3.9-2 .1-.8-.2-1.6-1-2.3l-.6.8c.5.5.7 1 .6 1.3 0 .5-.3 1-.8 1.6l-1.3 2c-.4.6-.7 1.4-.6 2.2l1-.2Zm1.7-7.7c-.4-.3-.7-.5-1.1-.6h-1.1c-.6.3-1 1-1.4 1.7l-.6 1-.6 1.2c-.4.7-.8 1.3-1.3 1.7l.6.8c.7-.5 1.2-1.3 1.6-2a28.4 28.4 0 0 0 1.1-2.3c.4-.6.7-1 1-1.1.1-.1.3-.1.4 0l.8.4.6-.8Zm-6.1 5c-1 .8-2.9 1.2-5.2 1.1-2.3 0-5-.4-7.8-1l-.2 1c2.8.5 5.6 1 8 1 2.4 0 4.4-.3 5.8-1.3l-.6-.8Zm-13 .1c-1.6-.3-3 0-4 .8-1.1.7-2 1.8-2.6 3a15.5 15.5 0 0 0-1.7 7.3h1c-.1-1.8.4-4.6 1.6-6.8.6-1.2 1.3-2.1 2.2-2.7 1-.6 2-.9 3.3-.6l.2-1Zm-8.3 11c0 .8-.3 1.4-.9 2.1-.5.7-1.3 1.4-2 2l-2.1 2c-.6.8-.9 1.7-.5 2.6l1-.3c-.3-.5-.1-1 .3-1.6.4-.6 1.1-1.2 1.9-1.9l2.2-2.1a4 4 0 0 0 1-2.8h-1ZM57 253c.5 1.4.2 2.5-.4 3-.2.3-.5.4-.9.5-.3 0-.6-.1-1-.5l-.7.8c.5.4 1.2.7 1.8.7.6 0 1.1-.3 1.6-.8.8-.9 1.1-2.4.5-4l-1 .3Zm-2.3 3-1.4-1.5c-.5-.6-1.1-1.2-1.7-1.6-.7-.5-1.5-.9-2.3-.8-.9 0-1.8.3-2.8 1.1l.6.8c.9-.7 1.6-1 2.2-1 .6 0 1.1.3 1.7.7l1.5 1.5 1.5 1.6.7-.8Zm-8.2-2.8a3 3 0 0 0-1 1.4c-.2.5-.2 1 0 1.5.4 1 1.3 1.8 2.4 2.5 2.1 1.5 5.4 2.6 7.8 3l.2-1c-2.4-.3-5.4-1.4-7.5-2.8-1-.7-1.7-1.4-2-2v-.9c.1-.3.3-.6.7-.9l-.6-.8Zm9.2 8.3 1 .3c0 .2-.1.4-.4.7l-1 1c-.8.9-1.8 1.8-2.7 3a8.7 8.7 0 0 0-1.9 3.7l1 .2c.2-1.2.9-2.3 1.7-3.4.8-1 1.8-2 2.6-2.7l1-1.1.7-1v-.7a1 1 0 0 0-.4-.5c-.3-.3-.8-.4-1.4-.5l-.2 1Zm-5 8.7c-.2 1.4 0 2.4.7 3.1.7.7 1.6 1 2.5 1.4l2.4.8c.6.4 1 .8 1 1.5h1a2.8 2.8 0 0 0-1.6-2.4c-.7-.4-1.7-.6-2.5-.9-.9-.3-1.6-.6-2-1-.4-.5-.7-1.1-.5-2.3l-1-.2Zm6.6 6.8c0 .6-.3 1.2-1.2 1.8a20 20 0 0 1-3.5 1.7c-1.3.5-2.6 1-3.7 1.6-1 .7-1.9 1.5-1.9 2.6h1c0-.6.5-1.1 1.5-1.7 1-.6 2.2-1 3.5-1.6 1.3-.5 2.7-1 3.7-1.7s1.7-1.6 1.6-2.8l-1 .1ZM47 284.7c0 .5.1 1 .4 1.3.3.3.7.5 1.1.4.4 0 .9 0 1.3-.2l1.4-.7c1-.5 2-1.2 2.9-1.9l2.5-1.6-.5-.8c-.7.3-1.6 1-2.6 1.6a44.7 44.7 0 0 1-4 2.4l-1 .2h-.3c0-.1-.2-.3-.2-.7h-1Zm9.6-2.7c.3-.1.3 0 .2 0v.4l.2 1.2v1.7a6 6 0 0 0 .9 3.3c.3.4.8.8 1.4 1 .7.2 1.4.2 2.3 0l-.2-.9h-1.7c-.5-.2-.8-.4-1-.7-.5-.7-.7-1.7-.7-2.8v-1.6a12 12 0 0 0-.2-2l-.4-.4c-.4-.4-.9-.3-1.3 0l.5.8Zm5 7.7c3.6-.6 4.9-3.4 5.5-5.8l.5-1.8c0-.5.2-1 .3-1.3l.4-.8.3-.1.1-1c-.5-.1-.9 0-1.1.4-.3.3-.5.7-.6 1.1l-.4 1.5-.4 1.7c-.7 2.3-1.8 4.6-4.8 5.1l.2 1Zm7-9.8.3.1.1.4-.2 2c-.4 1.5-.8 3.8.3 6l1-.6c-1-1.7-.7-3.6-.4-5.3.2-.8.4-1.6.3-2.2 0-.3 0-.7-.3-1-.3-.2-.6-.4-1-.4l-.1 1Zm.5 8.4c.5.8.4 1.8.1 2.9-.3 1-1 2.2-1.6 3.3l-2 3.3c-.3.6-.6 1-.7 1.5-.2.5-.3 1-.2 1.5l1-.2.1-1 .6-1.3 2-3.2c.7-1.2 1.4-2.4 1.8-3.7.3-1.2.4-2.4-.2-3.6l-.9.5Zm-4.4 12.4c0 .6.4 1 .9 1.3.5.3 1 .5 1.8.7a24.6 24.6 0 0 0 11.2-.7c1.9-.6 3.6-1.4 4.7-2.6l-.7-.7c-1 1-2.5 1.8-4.3 2.4a23.6 23.6 0 0 1-10.7.6 5 5 0 0 1-1.5-.5c-.3-.2-.4-.4-.4-.6l-1 .1Zm18.6-1.3c1-1.1 1.9-1.6 2.5-1.7.5 0 .9.2 1 .5.3.4.4 1 .3 1.8a5 5 0 0 1-1.2 2.4l.8.7a6 6 0 0 0 1.4-2.9c.2-1 0-1.8-.4-2.5a2 2 0 0 0-2.1-1c-.9.2-1.9.8-3 2l.7.7Zm2.6 3c-1.5 1.7-2 3.5-1.6 5.1.5 1.6 2 2.8 3.8 3.5l.4-1c-1.8-.6-2.9-1.6-3.2-2.8-.4-1.1 0-2.6 1.4-4.1l-.8-.7Zm2.2 8.6 2.3.8 1.2.7c.2.2.2.5.2.8 0 .4-.2.9-.6 1.6l.8.5c.5-.8.7-1.4.8-2 0-.6 0-1.1-.5-1.5-.3-.4-.9-.7-1.5-1l-2.3-.9-.4 1Zm3 3.9c-.4.8-.6 1.8-.7 2.8l-.1 3.2v3c0 1 0 1.8-.3 2.4l1 .3c.2-.8.3-1.7.3-2.7v-6c.2-1 .4-1.9.7-2.5l-.8-.5Zm-1 11.4c-.1.2-.3.4-.7.6l-1.3.6c-1.2.3-2.7.4-4.1.5-1.5 0-3-.2-4-.4l-1.3-.4-.4-.3-1 .2c.1.5.5.8 1 1l1.4.5a19.7 19.7 0 0 0 8.6-.2c.6-.1 1.2-.4 1.7-.6.4-.3.8-.7 1-1.2l-1-.3Zm-11.8.6c-.1-.7-.7-1-1.3-1.2-.6-.1-1.3 0-1.9.2a3 3 0 0 0-1.5 1.2c-.4.6-.5 1.4 0 2.2l.8-.5c-.2-.5-.2-.9 0-1.2a2 2 0 0 1 1-.8c.5-.2 1-.2 1.4-.1.4 0 .5.2.5.4l1-.2Zm-4.8 2.4c.3.4.2 1 0 1.5-.3.6-.8 1.2-1.4 1.9-.5.6-1.2 1.3-1.6 2-.5.6-.8 1.4-.7 2.2l1-.2c0-.4.1-.9.5-1.5l1.6-1.9c.5-.6 1.1-1.3 1.4-2 .4-.8.5-1.7.1-2.5l-.9.5Zm-3.7 7.6c.1.9.8 1.4 1.6 1.7.7.4 1.6.6 2.5.9.9.3 1.7.5 2.3.9.6.4 1 .8 1 1.3h1c-.1-1-.7-1.7-1.5-2.2-.7-.4-1.6-.7-2.5-1-1-.2-1.8-.5-2.4-.8-.7-.3-1-.6-1-1l-1 .2Zm7.3 4.8c0 .6-.1 1.2-.7 2a10 10 0 0 1-2.3 2.1c-2.1 1.5-5 2.9-8.5 3.9l.3 1c3.5-1 6.6-2.5 8.8-4 1-.8 2-1.6 2.5-2.5a4 4 0 0 0 1-2.6h-1Zm-11.5 8c-1.8.5-2.8 1.3-3 2.4-.2 1 .5 2 1.3 2.7 1 .7 2.2 1.3 3.4 1.5 1.2.3 2.5.2 3.5-.5l-.6-.9c-.7.5-1.7.7-2.7.5-1.1-.2-2.2-.7-3-1.4-.7-.6-1-1.2-1-1.7.1-.5.7-1.2 2.4-1.7l-.3-1Zm5.2 6c.8-.5 1.2-.6 1.5-.6.3 0 .6.2 1 .6.4.3.9.8 1.6 1.2.7.3 1.7.6 3 .6v-1c-1.2 0-2-.2-2.5-.5-.6-.3-1-.7-1.5-1.1-.4-.4-.8-.7-1.5-.8-.6 0-1.3.2-2.2.8l.6.9Zm7 1.8c2.3 0 4.1 1 6.2 1.7 2 .7 4.2 1.2 7 .1l-.3-.9c-2.5 1-4.4.5-6.4-.2s-4-1.7-6.5-1.7v1Zm13.2 1.8c1.4-.5 2.3-.7 2.9-.7h.5v.3l-.5.7c-.5.6-1.2 1.3-2.2 2l.6.8c1-.8 1.8-1.5 2.3-2.2l.7-.9c0-.3.2-.6.1-.9a1 1 0 0 0-.6-.7c-.3-.1-.6-.2-1-.1-.7 0-1.8.3-3.1.8l.3 1Zm.7 2.3c-1.9 1.5-4.2 1.5-6.7 1.3-1.2-.1-2.5-.3-3.7-.2-1.2 0-2.3.2-3.3.7l.4 1c.9-.5 1.8-.7 3-.7 1 0 2.2 0 3.5.2 2.5.2 5.2.2 7.4-1.5l-.6-.8ZM78 363.4a81.8 81.8 0 0 0-10.5 9.4c-2 2.1-3.7 4.3-4.8 6.2-.5 1-.9 1.9-1 2.7-.2.8-.2 1.5.3 2.1l.8-.6c-.2-.3-.3-.7-.2-1.3.2-.7.5-1.5 1-2.4 1-1.8 2.7-3.9 4.6-6a80.7 80.7 0 0 1 10.2-9.2l-.4-.9Zm-16 20.4c.3.4.6.6 1 .7.3 0 .7 0 1-.2a8 8 0 0 0 2-1.4c1.4-1.3 3.2-3 5.8-4.1l-.4-1c-2.8 1.2-4.7 3-6.1 4.4l-1.7 1.2c-.2.1-.3.1-.4 0l-.4-.2-.8.6Zm9.8-5c1.3-.5 2.2-.7 3-.7.8 0 1.5.3 2 .6l.9.6.9.5c.6.4 1.3.8 2.1.9l.1-1c-.6 0-1.1-.4-1.7-.7l-.8-.6a12 12 0 0 0-1-.6c-.7-.3-1.4-.6-2.4-.7-1 0-2.1.2-3.5.8l.4.9Zm9 1.9c.9.1 1.6-.4 2.1-1s1-1.4 1.3-2.1l1-2 .5-.4h.5l.2-1c-.4-.2-.8-.1-1.2 0l-.8.8-1.1 2.1a9 9 0 0 1-1.1 2c-.4.4-.9.6-1.4.6v1Zm5.4-5.6c.7.2 1.3.1 2 0l2-.7c1.4-.5 3-1 5-.6l.2-1c-2.4-.4-4.1.1-5.5.6l-2 .7c-.5.1-1 .2-1.5 0l-.2 1Zm9-1.3c4.6.8 7.9-1 10.1-2.9l-.6-.7a11 11 0 0 1-9.3 2.6l-.2 1Zm10.1-2.9c.4-.3 1-.3 1.8 0 .8.1 1.8.6 2.8 1l2.8 1.4 1.3.3c.4 0 .8 0 1.2-.2l-.6-.9c0 .1-.2.2-.5.2l-1-.3-2.8-1.3c-1-.5-2-1-3-1.3-.9-.2-1.9-.3-2.6.4l.6.7Zm10 2.5c.3-.3 1-.6 2.1-1a37.6 37.6 0 0 1 11.4-1.5v-1a39 39 0 0 0-14.2 2.7l.6.8Zm13.5-2.5c1.1 0 2.6-.3 4.2-.7a44.8 44.8 0 0 0 13.5-6.7l-.7-.7a51.3 51.3 0 0 1-13 6.4c-1.6.5-3 .7-4 .7v1Zm17.7-7.4c.7-.7 1-1.4 1-2-.2-.7-.8-1.1-1.5-1.3a13 13 0 0 0-5.3-.2l.2 1c1.8-.2 3.7-.2 4.8.1.6.2.7.4.8.6 0 0 0 .4-.7 1l.7.8Zm-5.8-3.5c-.8.2-1.3 0-1.5-.2-.2-.2-.4-.6-.3-1.3a9.9 9.9 0 0 1 3.2-5l-.7-.7c-2 1.9-3.2 4-3.5 5.6 0 .8 0 1.6.6 2.1.5.5 1.4.7 2.4.5l-.2-1Zm1.4-6.5c.9-1 2-1.8 3.1-2.6l3.3-2.7c2-2 3.8-4.1 4-7l-1-.2c-.2 2.6-1.7 4.6-3.7 6.4-1 1-2 1.8-3.2 2.7a41 41 0 0 0-3.2 2.7l.7.7ZM52 295.2a5.4 5.4 0 0 0-4-1.7 11 11 0 0 0-4.2 1.2 56.3 56.3 0 0 0-4 1.9c-1.3.6-2.5 1-3.7 1v1c1.4 0 2.7-.5 4-1l2-1 2-1a10 10 0 0 1 3.8-1.1c1.2 0 2.3.3 3.4 1.4l.7-.7ZM35.7 298c-.4 1.8-1 3.3-1.5 4.5-.6 1.2-1.2 2-1.7 2.4l.6.8c.7-.5 1.4-1.5 2-2.8.6-1.2 1.1-2.9 1.5-4.7l-1-.2Zm-3.2 7c-1 .7-2.5 2.5-3.3 4.1-.4.9-.7 1.7-.7 2.5 0 .3.1.7.4 1 .2.3.6.5 1 .6l.2-1c-.2 0-.4 0-.5-.2l-.1-.5c0-.5.2-1.1.6-2 .7-1.5 2-3.1 3-3.8l-.6-.8Zm-2.6 8.2 2.2 1c.7.4 1.6 1 2.4 1.3l1.1.5c.4.2.8.2 1.1.2.4 0 .8-.2 1-.5.3-.3.5-.7.5-1.2l-1-.1-.2.7-.4.1-.7-.1a7 7 0 0 1-1-.5l-2.4-1.3c-.8-.5-1.6-.9-2.4-1l-.2 1Zm8.3 1.3.7-2.5a4 4 0 0 1 1.2-1.7c.4-.3 1-.5 1.6-.2.8.3 1.7 1 2.8 2.4l.8-.6a8.4 8.4 0 0 0-3.2-2.7c-1-.4-2-.2-2.6.3a5 5 0 0 0-1.5 2.2c-.4.8-.6 1.8-.7 2.7l1 .1Zm6.3-2c1.2 1.4 2.7 2.7 4.2 3.9l.6-.8c-1.5-1.2-2.9-2.4-4-3.7l-.8.6Zm5 3.6c.1-.4.5-.9 1.2-1.3l2.4-1.2c2-.8 4.2-1.7 5.8-3.4l-.7-.7c-1.4 1.5-3.5 2.3-5.4 3.2-1 .4-2 .8-2.7 1.3-.7.4-1.3 1-1.6 1.9l1 .2Zm9.4-5.9c1-1 1.4-2.2 1.3-3.5 0-1.2-.6-2.5-1.4-3.8-1.6-2.5-4.3-5.2-6.8-7.7l-.7.7c2.5 2.5 5.1 5.1 6.7 7.6a7.5 7.5 0 0 1 1.2 3.3c.1 1-.2 1.9-1 2.7l.7.7Z" fill="#fff"/><path fill-rule="evenodd" clip-rule="evenodd" d="M285.6 281.2c-1.4-.9-2.5 2.6-4.2 3-1.6.3-3.4-7-4.2-3-.7 4-4.4-1.6-8 3.5-3.7 5.2 2.2 9.8 4.7 11.4 2.6 1.7-.2 4-3.4 3.3-3.3-.7-1.3 4.8 3.2 5.6 4.6.7 9.6-8.1 9-10.4-.5-2.2 4.7-12.3 3-13.4ZM258 270.3c-1.9-.9-2.6-6.9-.4-8.7 2.3-2 3.2-9 1.3-10.9-1.8-1.9-8.6 0-9.1 5-.6 5-6 2.9-7.5 4-1.5 1 3 3.3.6 5.6-2.5 2.2-3.4-3.4-7.3-3.7-4-.4-4.3 6-6.4 9.1-2 3.2-.7 10 0 14.4.8 4.5 6.2 7.3 4.9 11-.6 1.7.6 3.7 1.9 5.6 5 .1 9.5.5 11.5 1.1.8.3 2.5.2 4.7 0-1.6-2.7-5.3-5-5-6.9.3-2.6 3.9-1 6.5 1.3s8.4 2.6 9-.2c.3-1.7-1-9.7-4.5-7.8-3.6 1.9-4.5 1.1-5.8-.8-1.3-1.8 2.6-4.8 3.5-7.8 1-3 7.1-1.9 8-4.3 1-2.4-4-5-5.9-6Z" fill="#85ACB0"/><path d="m285.6 281.2-.2.4.2-.4Zm-4.2 3 .1.5v-.5Zm-4.2-3 .5.1h-.5Zm-8 3.5-.4-.3.4.3Zm4.7 11.4-.2.4.2-.4Zm-3.4 3.3-.2.5.2-.5Zm3.2 5.6v.4-.4Zm9-10.4h.5-.5Zm-25.2-33 .3.3-.3-.3Zm1.3-10.9-.3.4.3-.4Zm-9.1 5 .5.1h-.5Zm-7.5 4 .3.4-.3-.4Zm.6 5.6.3.3-.3-.3Zm-7.3-3.7v.5-.5Zm-6.4 9.1.4.3-.4-.3Zm0 14.4h.5-.5Zm4.9 11-.5-.2.5.2Zm1.9 5.6-.4.3.1.2h.3v-.5Zm11.5 1.1.2-.4-.2.4Zm4.7 0v.4h.8l-.4-.7-.4.2Zm-5-6.9h-.5.5Zm6.5 1.3.3-.4-.3.4Zm9-.2h-.5.5Zm-4.5-7.8.2.4-.2-.4Zm-5.8-.8-.4.3.4-.3Zm3.5-7.8.5.2-.5-.2Zm8-4.3-.4-.2.5.2Zm22.1 4.5a1.4 1.4 0 0 0-1.6 0l-1 1-1 1.3a2 2 0 0 1-1 .6l.2 1a3 3 0 0 0 1.4-1c.4-.3.8-.8 1-1.2.4-.4.7-.7 1-.8l.2-.1h.3l.5-.8Zm-4.6 2.9-.2-.1-.5-.6-1.2-2-.6-.8c-.1-.3-.4-.5-.7-.6h-.5a1 1 0 0 0-.5.3l-.4 1.2 1 .2.3-.8h-.2l.2.3.6.8c.3.6.7 1.4 1.2 2l.7.8c.3.2.6.3 1 .3l-.2-1Zm-4.6-2.6c0 .5-.2.8-.3 1l-.3.2h-.7l-1-.2c-.8-.2-1.7-.3-2.7 0-1 .3-2 1-3 2.3l.9.6c.8-1.2 1.7-1.7 2.4-2 .8-.2 1.5 0 2.2 0l1 .2h1c.4 0 .8-.2 1-.6.3-.3.4-.7.5-1.3l-1-.2Zm-8 3.3a6.2 6.2 0 0 0-1.2 4c0 1.4.6 2.6 1.3 3.6 1.4 2.1 3.6 3.7 4.9 4.5l.5-.8c-1.3-.8-3.3-2.3-4.6-4.2-.6-1-1-2-1-3.1-.2-1 .1-2.2 1-3.4l-.8-.6Zm5 12.1c.5.4.7.8.7 1 0 .2 0 .5-.4.8-.6.6-2 1-3.4.6l-.3 1c1.8.4 3.5 0 4.4-.9.5-.4.8-1 .7-1.6 0-.7-.5-1.2-1.2-1.7l-.5.8Zm-3.1 2.4h-1.3c-.4.2-.7.4-.8.8-.3.6-.2 1.4.2 2.2a6.8 6.8 0 0 0 5 3.6l.1-1a5.8 5.8 0 0 1-4.2-3c-.3-.7-.3-1.2-.2-1.4 0 0 0-.2.2-.2h.7l.3-1Zm3 6.6c1.4.2 2.7-.3 3.8-1.1 1.2-.8 2.3-2 3.2-3.2a18.2 18.2 0 0 0 2.6-5.3v-1.4l-1 .3v.9l-.5 1.4c-.4 1.1-1.1 2.3-2 3.5-.8 1.2-1.8 2.2-2.8 3-1 .7-2.1 1-3 .9l-.2 1Zm9.6-11v-1l.5-1.6 1.4-4.2a36.6 36.6 0 0 0 1.4-5.7c0-.4-.2-1-.6-1.2l-.5.8.1.4-.1 1.4c-.3 1-.7 2.5-1.3 4l-1.4 4.2c-.2.7-.4 1.3-.4 1.8-.1.5-.2 1 0 1.4l.9-.3Zm-25-24.6c-.4-.2-.7-.6-1-1.3a8 8 0 0 1-.5-2.3c-.1-1 0-1.8.2-2.6s.5-1.4 1-1.8l-.7-.7c-.7.5-1 1.4-1.3 2.3a9 9 0 0 0-.2 2.8c0 1 .3 2 .6 2.7.3.8.7 1.5 1.4 1.8l.4-1Zm-.4-8a6 6 0 0 0 1.6-2.4 14.2 14.2 0 0 0 .8-6.6c-.1-1-.4-2-1-2.5l-.7.7c.3.3.6 1 .7 1.9a13.2 13.2 0 0 1-.8 6.2 5 5 0 0 1-1.2 2l.6.7Zm1.4-11.5c-.6-.6-1.5-.9-2.5-.9s-2 .2-3.1.7a7 7 0 0 0-4.4 5.5l1 .1c.2-2.3 1.9-3.9 3.8-4.7.9-.4 1.9-.6 2.7-.6.8 0 1.4.2 1.8.6l.7-.7Zm-10 5.3c-.2 1.2-.6 1.8-1 2.3-.6.4-1.2.6-2 .7l-2.3.1-1 .1c-.4 0-.7.2-1 .4l.6.8.5-.2 1-.1 2.3-.1c.9-.1 1.8-.4 2.5-1s1.2-1.5 1.4-2.9l-1-.1Zm-7.3 3.6c-.3.2-.5.4-.5.8l.1.8.4.7.5.7.6 1.4c0 .3 0 .7-.6 1.2l.7.7c.7-.6 1-1.3.9-2 0-.7-.4-1.3-.8-1.8l-.4-.7-.3-.6-.1-.3v-.1l-.5-.8Zm.5 5.6c-.2.3-.5.4-.6.4h-.5L240 264c-1-1.2-2.3-2.8-4.5-3v1c1.6.1 2.7 1.4 3.8 2.6.5.6 1 1.2 1.6 1.5.4.1.7.2 1.1 0 .4 0 .7-.2 1-.6l-.6-.7Zm-6.9-3.8c-1.1-.2-2 .2-2.7 1-.7.6-1.2 1.5-1.7 2.5l-1.2 3.1c-.3 1-.7 2-1.2 2.7l.8.6c.6-.9 1-2 1.4-3l1.1-3a7 7 0 0 1 1.4-2.3c.6-.5 1.2-.7 2-.6l.1-1Zm-6.8 9.3c-1.1 1.8-1.3 4.4-1.1 7 .1 2.7.6 5.5 1 7.8l1-.2c-.4-2.2-.9-5-1-7.6-.2-2.7 0-5 1-6.4l-1-.6Zm0 14.8c.3 2.4 2 4.3 3.2 6 1.3 1.7 2.2 3.2 1.6 4.7l1 .4c.7-2.2-.5-4-1.8-5.7-1.3-1.8-2.8-3.5-3.1-5.6l-1 .2Zm4.8 10.7c-.4 1-.2 2.1.3 3.1.4 1 1 2 1.7 3l.8-.6c-.6-1-1.3-1.9-1.6-2.7-.4-1-.5-1.7-.3-2.4l-1-.4Zm2.4 6.3a97.5 97.5 0 0 1 11.4 1.1l.3-1a98.8 98.8 0 0 0-11.7-1.2v1.1Zm11.4 1.1c.5.2 1.2.2 2 .2l2.9-.3-.2-1-2.8.3-1.6-.1-.3 1Zm5.2-.8c-.8-1.4-2.2-2.7-3.3-3.8-.5-.6-1-1-1.3-1.5-.3-.5-.4-.9-.3-1.2l-1-.1c-.1.6.1 1.2.5 1.8.3.6.9 1.1 1.4 1.7 1.1 1.2 2.4 2.3 3.2 3.6l.8-.5Zm-5-6.5c.1-.5.3-.7.6-.8h1.3a12 12 0 0 1 3.9 2.4l.6-.8a13 13 0 0 0-4.3-2.5 3 3 0 0 0-2 0c-.5.2-1 .8-1 1.6l1 .1Zm5.8 1.6a9.2 9.2 0 0 0 5.6 2c1 0 1.9-.2 2.6-.6.8-.4 1.4-1 1.6-1.9l-1-.2c-.1.6-.5 1-1 1.2a5 5 0 0 1-2.2.4c-1.8 0-3.8-.6-5-1.7l-.6.8Zm9.8-.5v-2.3l-.8-3.2c-.4-1-1-2-1.6-2.6-.4-.3-.8-.5-1.3-.6-.5 0-1 0-1.5.4l.4.8c.4-.2.7-.2 1-.2l.7.4c.5.4 1 1.2 1.3 2.1a14.4 14.4 0 0 1 .8 5l1 .2Zm-5.2-8.3c-1.8.9-2.8 1-3.4 1-.7-.2-1.1-.7-1.8-1.6l-.8.5c.6 1 1.3 1.8 2.3 2 1 .2 2.3-.1 4.1-1l-.4-1Zm-5.2-.6c-.2-.3-.2-.7 0-1.2.1-.5.5-1 1-1.8l1.4-2c.5-.8 1-1.6 1.2-2.4l-1-.3c-.1.6-.5 1.3-1 2l-1.5 2.2c-.5.6-.9 1.3-1.1 2-.2.7-.3 1.4.2 2l.8-.5Zm3.6-7.4c.2-.6.6-1 1.3-1.3.6-.4 1.5-.6 2.4-.8.8-.2 1.8-.4 2.5-.7.8-.3 1.5-.7 1.9-1.5l-1-.4c-.1.4-.5.7-1.2 1l-2.4.7c-1 .1-1.9.4-2.7.8-.8.4-1.4 1-1.7 1.9l1 .3Zm8-4.3c.4-.8.2-1.6-.3-2.3-.4-.7-1-1.3-1.7-1.8-1.5-1.1-3.2-2-4.2-2.5l-.4.9a25 25 0 0 1 4 2.4c.6.5 1.2 1 1.5 1.5.3.6.4 1 .2 1.4l1 .4Z" fill="#fff"/><path fill-rule="evenodd" clip-rule="evenodd" d="M421.2 86c-1.7-1.8-5.3-6.5-2.3-6.5s4.1-8.8.6-10.6c-3.6-1.8 0-9.4-3-11.2-3-1.8-1.2-7.7-.6-11.8.6-4.1-11.3-7.7-17.8-10.6-6.6-3-9.5-7.7-14.9-10.6-5.3-3-7.1 4.7-7.1 9.4s-4.8 5.3-8.3 2.4c-3.6-3-7.8 0-13.1-2.4-5.4-2.4-3 5.3-3 8.8 0 3.6-6 3.6-9.5 3.6-3.6 0-9.5 3-9.5 7 0 4.2-5.3 6.5-3.6 9 1.8 2.3-.6 4.6-3 6.4-2.3 1.8-4.7 7.7-6.5 9.4-1.7 1.8 1.2 4.8-2.3 7.1-3.6 2.4-7.8.6-9.5 2.4-1.8 1.7 0 5.9-.6 11.2a37.7 37.7 0 0 1-8.4 16c-3.5 4.6 1.2 5.8 3 6.4 1.8.6 1.8 3.5 0 7-1.8 3.6-6 1.3-8.3.7-2.4-.6-9 2.3-12.5 8.2-3.5 6-2.4 9.5-1.2 12.4 1.2 3-3 6.5 0 12.4 3 6-1.2 7.1-.6 11.8.6 4.7 7.8 4.1 8.4 8.9.6 4.7-2.4 6.5-4.8 6.5s-1.8 4.7.6 5.9c2.4 1.1 1.8 9.4.6 11.8-1.2 2.3-9 0-8.3 2.9.6 3-1.8 7.7-1.8 10 0 2.4-.6 10-3 8.3-1-.7-2.4-.8-3.9-.6v1.2a15 15 0 0 0 5.6 12.5c4 3.3.9 8.2 4.4 12.8 3.5 4.6 2.4 8 6.3 11.2 3.9 3.3 4.2 5.2 2.6 9.4-1.7 4.2 3.3 3.1 3.5 5.7.2 2.6-1.1 7.9.2 10.5 1.3 2.5 3.9 0 9.8-.2s4.4-3.9 4.6-7.4c.2-3.5 3.1-1.8 3.9-4 .7-2.2 6-2.8 10.3-1 4.3 2 6.5-1.2 7.2-5.6.8-4.4 3.2 1 4.5 1.8 1.3 1 5.2-6.8 7-11.7 1.8-5-.2-4-4.4.7-4.3 4.8-1.9-4.8-.2-8.6 1.6-3.9 1.5-15 2-17.7.6-2.5 1.7-6.4 7-7.5 5.4-1 12.4-7.7 11.3-10.4-1-2.8 7.4-7.4 7.4-10.1 0-2.8-8.9-11.2-11.8-13-3-2-9.4-.4-8.9-2.5.6-2-.7-9.9-1.5-14-.7-4 4.6-8.2 4.6-12 0-3.9-.1-8.3 3.4-9.6 3.5-1.3 1.3-4.6 5.9-5.7 4.6-1 3.7-7.7 8.7-9.7 5-2 5.3-3.7 11.8-6.8 6.5-3.1 17.4-10.5 19.3-14.3 1.8-3.9-6.7-8-1.3-12 5.3-4 .9-8.6 4.8-10 3.9-1.5 5.3-3.5 8.1-6.5s6.5-.2 13.1-1.3c2.5-.4 4.7-.2 6.8.3-.3-2.9-1-5.3-1.8-6.1Z" fill="#85ACB0" stroke="#fff"/><path fill-rule="evenodd" clip-rule="evenodd" d="M468.3 223.7c1.6-3.4 5.6-4 2.6-8.3-.6.4-1.4.9-2.8 1.3-5.4 1.5-17.2-3.8-24-2.5-6.7 1.3-20.3 1.3-23.5 4.7-3.2 3.4-11.3 4.3-7.7 7.3 3.6 3 0 4.5 2.6 8.1 2.6 3.6 4 5 7.5 4.3 3.6-.7 6.4 1.1 2.6 5l-.1.3c6-.6 12.6-1 13.6-.2 1.5 1.1 10.5 8.3 12.7 7.5 1.4-.4 7.6.2 12.1.8-.5-1.4-.5-2.7.5-3.5 1.7-1.4 5.3-1.4 3.4-4.2-2-2.9-2.6-3.4-2.8-6.8-.3-3.4-1.2-5-.9-7.3.3-2.3 2.5-2.8 4.2-6.5ZM329.3 516.5c-4.7-3-1.6-7.8-9.2-7.4-7.5.4-16.5-9-19.3-19.8-2.7-10.8-14.5-11.4-17.5-17.8s2.8-7.2.2-12.5c-1.4-3 1.8-5.6 5.5-7-.3-6 .2-12.3.7-16.5-3-.3-5.5-.7-6.4-1.3-1.4-.8-1.6-5.2-2.5-5.2-.8 0-8.5 0-9.9 1.4-1.4 1.4-5.5 3.8-7.7 2.5l-1.6-.9-2.4 2.2s-.3 3-1.8 3-3.7-1.1-3.7 1.4c0 2.6-4 1.9-5.9 1.5-1.8-.4-4.4.4-4.4 2.6s-.4 7-3.3 4.4c-3-2.6-6-9.2-7-8.5-1.1.8-3.7 8.9-6.3 8.9-1.6 0-6.8.4-10.6.7-1 3.2 0 5 1.4 5.9 1.4.8-.8 4-2.5 5-1.6.7-4.4 0-2.4 3 1.9 3 5.5 3.2 3.5 6.3-1.9 3 0 5.7 2.8 6 2.8.3 6.6-.3 5.8 2-.5 1.3-1.2 2.7-1.4 4.2 2.2-.7 4.1-.8 6-1.8 3.9-2 2.2-5.5 8.7-7.3 6.4-1.8 14.9 3.5 17.4 7.3 2.6 3.9 3.4 4.3 4 7.4.5 3 2.9 9.3 11.7 15 8.8 5.7 12.3 12.1 17 14.5 4.5 2.4 9.1 1.9 11.9 5.2 2.7 3.3 6.4 5.1 10.8 7.1 4.5 2 4.6 6.8 8.9 7.4 4.2.5 1.4 4.2 4 7.3 2.6 3.1 3.3 9.7.6 13.4-2.8 3.7-1.3 9.9.5 9.9 1.9 0 5.7-6.6 6.3-10.3.5-3.6 4.2-3.5 7.2-7.3 2.9-3.9-4.5-4.8-5.7-9.7-1.3-5 5.5-9.4 12-5.4 6.4 4 9 6.8 9.3.6.4-6.2-19.9-14.5-24.7-17.4Zm-90 5.1c-4 3.5-7.3-.6-9 2.2-2 3.5 6.3 8.9 4.6 16-1.6 7.3 1 16.4 5.2 12.1 4.2-4.2 6.3-2.2 8.7-5.4 2.4-3 .3-14.7 2-20.3 1.7-5.5-7.4-8.1-11.4-4.6Zm70.6 42.2c-7.6 1.7-10.8 2.2-15.2 0-4.5-2.3-11.7 2-10.6 5 .8 2.1 3.7 4.7 13 7.2 9.3 2.4 10.4 8.8 14.3 9 3.9.2 4.3-3.6 3.3-8.7-.9-5 4.7-10.8 5.2-11.8.6-1-2.4-2.4-10-.7Z" fill="#85ACB0"/><path d="m329.3 516.5.3-.5-.3.5Zm-9.2-7.4v-.5.5Zm-19.3-19.8.5-.1h-.5Zm-17.5-17.8-.4.2.4-.2Zm.2-12.5.5-.2-.5.2Zm5.5-7 .2.4.3-.1v-.4h-.5Zm.7-16.5h.5v-.5h-.5v.5Zm-6.4-1.3-.2.5.2-.5Zm-12.4-3.8-.3-.4.3.4Zm-7.7 2.5.2-.5-.2.5Zm-1.6-.9.3-.4-.3-.2-.3.2.3.4Zm-2.4 2.2-.3-.3-.1.1v.2h.4Zm-11.4 6v.4-.5Zm-7.7 6.9-.3.4.3-.4Zm-7-8.5-.3-.4.3.4Zm-16.9 9.6v-.5h-.4v.4l.4.1Zm1.4 5.9-.2.4.2-.4Zm-2.5 5 .3.4-.3-.5Zm-2.4 3-.5.2.5-.3Zm3.5 6.3-.4-.3.4.3Zm2.8 6v-.5.5Zm5.8 2-.5-.2.5.2Zm-1.4 4.2-.5-.1v.7l.6-.2v-.4Zm6-1.8-.2-.4.2.4Zm8.7-7.3-.2-.5.2.5Zm17.4 7.3.5-.3-.5.3Zm4 7.4h-.6.5Zm11.7 15 .3-.4-.3.4Zm17 14.5.1-.4-.2.4ZM300 521l.4-.4-.4.4Zm10.8 7.1.2-.4-.2.4Zm8.9 7.4-.1.5v-.5Zm4 7.3.4-.3-.4.3Zm.6 13.4.4.3-.4-.3Zm6.8-.4.5.1h-.5Zm7.2-7.3-.4-.3.4.3Zm-5.7-9.7.4-.2-.4.2Zm12-5.4-.3.5.2-.5Zm9.3.6h-.5.5Zm-114.6-12.3-.4-.4.4.4Zm-9 2.2.4.3-.5-.3Zm4.5 16 .5.2-.5-.1Zm5.2 12.1-.4-.3.4.3Zm8.7-5.4-.4-.3.4.3Zm2-20.3.5.2-.5-.2Zm43.9 37.6.2-.5-.2.5Zm-10.6 5 .5-.1-.5.1Zm13 7.2-.1.5.1-.5Zm14.3 9v.5-.5Zm3.3-8.7h.5-.5Zm5.2-11.8-.4-.2.4.2Zm9.7-48.5c-2.2-1.3-2.6-3-3.4-4.7-.4-.8-1-1.5-1.9-2-1-.6-2.3-.8-4.2-.7v1c2 0 3 .1 3.8.5.7.4 1 1 1.4 1.7.7 1.4 1.2 3.5 3.8 5l.5-.8Zm-9.5-7.4c-3.6.2-7.6-2-11-5.5a31.7 31.7 0 0 1-7.8-14l-1 .3a32.7 32.7 0 0 0 8 14.4c3.6 3.6 7.9 6 11.9 5.8v-1Zm-18.8-19.4c-1.4-5.6-5.2-8.6-8.9-10.9l-5.2-3.2a10 10 0 0 1-3.4-3.8l-1 .4c.9 1.7 2.2 3 3.8 4.2l5.3 3.3c3.6 2.2 7.1 5 8.4 10.2l1-.2Zm-17.5-18a7.3 7.3 0 0 1-.8-3.6c0-1 .4-1.7.7-2.6.4-.8.8-1.6 1-2.6a6 6 0 0 0-.7-3.6l-1 .4a5 5 0 0 1 .7 3c-.1.9-.5 1.6-.9 2.4-.3.9-.7 1.8-.8 3-.1 1 .1 2.4.9 4.1l.9-.4Zm.2-12.4c-.3-.6-.4-1.2-.3-1.8a4 4 0 0 1 1-1.7c1-1.2 2.7-2.2 4.5-2.9l-.4-1c-1.9.8-3.7 2-4.8 3.2-.6.6-1 1.4-1.2 2.2-.2.8-.1 1.6.3 2.4l.9-.4Zm5.5-6.9c-.3-5.8.2-12.2.7-16.4h-1c-.5 4.1-1 10.6-.7 16.5h1Zm.2-17a48.4 48.4 0 0 1-6.1-1l-.5.8a48.7 48.7 0 0 0 6.5 1.3l.1-1Zm-6.1-1-.7-1-.5-1.7-.5-1.7-.4-.6c0-.2-.3-.4-.7-.4v1s-.1 0 0 0l.1.4.5 1.5.6 1.9a3 3 0 0 0 1 1.4l.6-.9Zm-2.8-5.4c-.4 0-2.5 0-4.8.2a26.6 26.6 0 0 0-4.5.8l-1 .5.8.7.6-.3 1.1-.3 3.1-.4c2.2-.2 4.3-.2 4.7-.2v-1Zm-10.2 1.5c-.7.7-2 1.6-3.4 2.2a7 7 0 0 1-2.1.6c-.7 0-1.2-.1-1.7-.4l-.5.9c.7.4 1.5.5 2.3.4a8 8 0 0 0 2.3-.6c1.6-.6 3-1.6 3.8-2.4l-.7-.7Zm-7.2 2.4-1.5-.8-.5.9 1.5.8.5-.9Zm-2.1-.8-2.4 2.3.7.7 2.4-2.2-.7-.8Zm-2 2.6h-.6a7.3 7.3 0 0 1-.3 1.3c-.1.4-.3.7-.5.9-.2.2-.3.3-.5.3v1c.5 0 1-.3 1.3-.6l.6-1.2a7.4 7.4 0 0 0 .4-1.6h-.5Zm-2 2.5-1-.1c-.4-.1-1-.2-1.3-.1-.5 0-1 .1-1.3.5-.3.4-.5 1-.5 1.6h1l.2-1 .6-.2 1.1.1 1.3.2v-1Zm-4.1 2c0 .4-.2.7-.4.9-.3.2-.8.3-1.4.4-1.2 0-2.6-.2-3.5-.4l-.2 1c1 .2 2.5.5 3.8.4.6 0 1.3-.2 1.8-.6.6-.4.9-1 .9-1.8h-1Zm-5.3 1c-1-.3-2.2-.2-3.2.3a3 3 0 0 0-1.8 2.7h1c0-.9.5-1.5 1.2-1.8.8-.4 1.8-.5 2.6-.3l.2-1Zm-5 3c0 1-.1 2.7-.5 3.8-.2.5-.5.8-.7.8-.2 0-.6 0-1.3-.6l-.6.8c.7.6 1.5 1 2.2.8.7-.2 1-.8 1.3-1.4.5-1.3.6-3.1.6-4.2h-1Zm-2.5 4c-1.4-1.2-2.8-3.4-4-5.3a26 26 0 0 0-1.8-2.4c-.2-.3-.5-.6-.8-.7-.2-.2-.6-.3-1 0l.6.8c-.1 0-.2 0 0 0l.4.5c.5.5 1 1.4 1.7 2.3 1.2 1.9 2.7 4.2 4.3 5.6l.6-.8Zm-7.6-8.5-.6.8-.6 1.1-1.5 3-1.7 2.8-.9.8-.7.3v1c.5 0 1-.2 1.3-.5.4-.2.7-.6 1-1 .7-.8 1.3-1.9 1.9-3l1.5-3a15.2 15.2 0 0 1 .8-1.4l-.5-.9Zm-6 8.8c-1.6 0-6.9.4-10.6.7v1c3.8-.3 9-.7 10.6-.7v-1Zm-11 1c-.6 1.7-.6 3-.2 4.2.3 1 1 1.8 1.8 2.3l.5-.9c-.6-.3-1.1-.9-1.4-1.7-.2-.9-.3-2 .2-3.5l-1-.3Zm1.6 6.5s.2.2.2.5c0 .4-.2.8-.5 1.3-.6 1-1.5 2-2.2 2.3l.5.9c1-.5 2-1.6 2.6-2.7l.6-1.7c0-.5-.2-1.1-.7-1.5l-.5.9Zm-2.5 4-1.2.4-1.3.3-.6.4c-.2.3-.3.5-.3.8 0 .5.3 1.1.7 2l.9-.6c-.5-.8-.6-1.2-.6-1.4v-.1l.3-.1 1-.3c.5 0 1-.2 1.6-.4l-.5-1Zm-2.7 3.8a9 9 0 0 0 1.8 2l.8.7.8.6.7 1c0 .3 0 .8-.5 1.5l.9.5c.5-.8.7-1.5.6-2.2a3 3 0 0 0-1-1.6l-.8-.6-.9-.7a8 8 0 0 1-1.5-1.7l-.9.5Zm3.6 5.8c-1 1.6-1 3.3-.4 4.6.7 1.2 2 2 3.6 2.2v-1a3.5 3.5 0 0 1-2.7-1.7c-.5-1-.5-2.2.4-3.6l-.9-.5Zm3.2 6.8 2.2.1c.7 0 1.4 0 2 .2.6 0 1 .2 1.1.3l.1.2v.5l.9.3.1-1-.4-.7c-.4-.4-1-.5-1.7-.6l-2-.2H219l-.1 1Zm5.3 1.3a33.6 33.6 0 0 1-.8 2c-.3.7-.5 1.5-.6 2.3l1 .1c0-.6.3-1.3.6-2 0-.4.2-.7.4-1l.4-1-1-.4Zm-.8 4.8 3.1-.7c1-.2 2-.5 3-1l-.4-1c-1 .6-1.8.8-2.8 1l-3.1.8.2 1Zm6.1-1.7c2.1-1.1 2.8-2.6 3.6-4 .4-.6.9-1.2 1.6-1.8a10 10 0 0 1 3.4-1.5l-.3-1c-1.6.5-2.8 1-3.7 1.7-.8.7-1.4 1.4-1.8 2.1-1 1.4-1.4 2.7-3.2 3.6l.4.9Zm8.6-7.3c3-.9 6.6 0 9.8 1.5a19 19 0 0 1 7.1 5.6l.9-.6a20 20 0 0 0-7.5-6 15.3 15.3 0 0 0-10.6-1.5l.3 1Zm17 7.1 1.5 2.4 1.1 1.5c.5 1 .8 1.7 1.1 3.3l1-.2a9.5 9.5 0 0 0-1.2-3.6l-1.1-1.6-1.6-2.4-.9.6Zm3.7 7.2c.6 3.2 3 9.6 12 15.3l.6-.8c-8.8-5.6-11-11.7-11.6-14.7l-1 .2Zm12 15.3c4.4 2.9 7.4 5.9 10 8.5 2.5 2.5 4.6 4.8 7 6l.4-.8c-2.2-1.2-4.1-3.3-6.7-6a56.8 56.8 0 0 0-10.1-8.5l-.6.8Zm17 14.6c2.3 1.2 4.7 1.7 6.8 2.2 2 .6 3.7 1.3 5 2.8l.8-.7a10.3 10.3 0 0 0-5.6-3c-2-.6-4.3-1-6.6-2.2l-.4.9Zm11.8 5c2.8 3.4 6.6 5.3 11 7.3l.4-1c-4.4-2-8-3.8-10.6-7l-.8.7Zm11 7.3c2.1 1 3.2 2.5 4.3 4 1.2 1.6 2.4 3 4.7 3.4l.1-1c-1.9-.3-2.9-1.5-4-3-1-1.5-2.3-3.3-4.7-4.3l-.4.9Zm9 7.4c1 0 1.5.4 1.7.7.3.4.4.8.5 1.5.2 1.3.1 3.2 1.5 5l.8-.7c-1.2-1.4-1.1-3-1.3-4.4 0-.7-.2-1.4-.7-2-.5-.6-1.2-1-2.4-1.1v1Zm3.7 7.1c1.2 1.5 2 3.8 2.2 6.2a10 10 0 0 1-1.6 6.6l.8.6c1.4-2 2-4.7 1.8-7.2-.2-2.6-1-5.2-2.4-6.8l-.8.6Zm.6 12.8a9.4 9.4 0 0 0-.8 9.4c.4.7 1 1.3 1.7 1.3v-1c-.1 0-.5-.2-.8-.8a8.4 8.4 0 0 1 .7-8.3l-.8-.6Zm1 10.7a2 2 0 0 0 1-.4l1-.8a20.8 20.8 0 0 0 4.7-9.4l-1-.2a20 20 0 0 1-5.3 9.6c-.2.2-.4.2-.5.2v1Zm6.7-10.7c.2-1.6 1.1-2.4 2.4-3.3 1.4-.8 3.1-1.8 4.7-3.8l-.8-.6c-1.4 1.8-3 2.7-4.4 3.6-1.4 1-2.6 1.9-3 4l1 .1Zm7-7.1c.5-.5.7-1 .8-1.5.1-.6 0-1-.2-1.5a6.3 6.3 0 0 0-1.9-2.2l-2.5-2.1a6.3 6.3 0 0 1-1.8-2.9l-1 .3a7.3 7.3 0 0 0 2 3.3l2.7 2.2c.8.7 1.4 1.3 1.6 1.8.1.3.2.6.1.9 0 .3-.2.6-.5 1l.8.7Zm-5.6-10.2c-.5-2.2.7-4.3 2.9-5.4a8.4 8.4 0 0 1 8.4.7l.5-.9a9.4 9.4 0 0 0-9.4-.7c-2.5 1.3-4 3.8-3.3 6.6l1-.3Zm11.3-4.7 2.2 1.4 1.9 1.2c1.1.7 2.1 1.3 3 1.5.4.2.8.2 1.2.1.4-.1.7-.3 1-.7.5-.7.7-1.8.8-3.4h-1c0 1.5-.3 2.4-.6 2.8-.2.2-.3.3-.5.3h-.7l-2.7-1.4-1.9-1.2-2.2-1.5-.5.9Zm10 .1c.1-.9-.2-1.8-.7-2.7-.6-.9-1.4-1.8-2.4-2.6-2-1.8-4.6-3.5-7.4-5.1l-8.4-4.4-5.9-3-.5.8 6 3 8.3 4.5c2.8 1.6 5.4 3.3 7.2 5 1 .8 1.7 1.6 2.2 2.3.5.8.7 1.5.7 2.2h1ZM239 521.2c-1 .8-1.8 1.2-2.6 1.3-.8.2-1.6 0-2.4 0-.7-.1-1.5-.3-2.2-.2a2.4 2.4 0 0 0-2 1.3l1 .5c.1-.3.3-.5.5-.6l.6-.2c.5 0 1.1 0 2 .2.7 0 1.7.2 2.6 0 1-.1 2.1-.6 3.2-1.5l-.7-.8Zm-9.1 2.4c-.6 1-.4 2.2 0 3.4.5 1.1 1.4 2.4 2.2 3.7 1.6 2.7 3.1 5.7 2.3 9l1 .3c.9-3.8-.9-7.1-2.5-9.8-.8-1.4-1.6-2.5-2-3.6-.5-1-.5-1.9-.1-2.5l-1-.5Zm4.5 16.2a20 20 0 0 0 .4 10.6c.5 1.3 1.3 2.4 2.3 2.9 1 .5 2.2.1 3.3-1l-.7-.7c-1 1-1.7 1-2.2.8-.7-.3-1.3-1-1.7-2.4-1-2.5-1.2-6.5-.4-10l-1-.2Zm6 12.5c2.1-2 3.6-2.6 4.9-3l2-.7c.6-.4 1.2-1 1.9-1.7l-.8-.7c-.6.8-1.1 1.2-1.6 1.5l-1.8.6c-1.4.5-3 1-5.3 3.3l.7.7Zm8.8-5.4c.7-1 1-2.4 1.2-4l.2-5.6v-6c.1-1.9.3-3.6.7-5l-1-.2c-.4 1.4-.6 3.2-.7 5.2v6c0 2 0 3.9-.2 5.5a7.3 7.3 0 0 1-1 3.4l.8.7Zm2-20.5c.5-1.6.3-3-.5-4s-2-1.9-3.3-2.4c-2.7-.9-6.2-.7-8.4 1.2l.7.8c1.8-1.6 5-1.9 7.4-1 1.2.4 2.2 1.1 2.8 2 .6.8.8 1.8.4 3l1 .4Zm58.6 36.9c-3.8.8-6.5 1.4-8.7 1.4-2.2.1-4-.3-6.2-1.4l-.4 1a13 13 0 0 0 6.6 1.4c2.4 0 5.1-.6 9-1.4l-.3-1Zm-14.9 0c-2.4-1.2-5.5-.6-7.8.6a8.5 8.5 0 0 0-2.8 2.3c-.7.8-1 1.8-.7 2.8l1-.3c-.2-.6 0-1.2.5-2 .5-.7 1.4-1.4 2.5-2 2.1-1 4.8-1.5 6.9-.5l.4-.9Zm-11.3 5.7c.5 1.2 1.5 2.4 3.5 3.7 2.1 1.2 5.2 2.5 9.9 3.8l.2-1a36.6 36.6 0 0 1-9.5-3.7c-2-1.1-2.8-2.2-3.1-3.1l-1 .3Zm13.4 7.5c4.5 1.2 7 3.3 9 5.2l2.5 2.5c.8.7 1.8 1.2 2.9 1.3v-1c-.8 0-1.5-.4-2.3-1l-2.5-2.5c-2-2-4.6-4.3-9.4-5.5l-.2 1Zm14.4 9c1 0 1.9-.2 2.6-.7.7-.4 1.1-1.2 1.4-2 .5-1.7.3-4-.2-6.5l-1 .1c.5 2.6.6 4.7.2 6.1-.2.7-.5 1.2-1 1.5a3 3 0 0 1-2 .5v1Zm3.8-9.2c-.4-2.4.7-5 2-7.2l2-2.8.7-1 .5-.5-.9-.5-.4.5-.7 1c-.6.7-1.4 1.7-2 2.8-1.4 2.2-2.7 5.1-2.1 7.8l1-.1Zm5.2-11.5a1 1 0 0 0 0-.8c0-.3-.2-.5-.4-.6-.4-.4-1-.6-2-.7-1.6-.3-4.4-.3-8.2.6l.2 1c3.8-.9 6.4-1 7.9-.7.8.2 1.2.4 1.5.6l.1.1.9.5Z" fill="#fff"/><path fill-rule="evenodd" clip-rule="evenodd" d="M259 432.7s.1-3.5-3.5-4.2c-3.6-.7-3.4-2-3.7-3.3-.2-.6-1.2-2.2-1.2-2.2s-2 .2-1.5 3.7l.3 2.4c0 .9.4 1.6 1 2.2.9.9 2.2 1.9 3.6 1.7 2.2-.4 3.1-.7 5-.3Z" fill="#85ACB0"/><path d="M259 432.7s.1-3.5-3.5-4.2c-3.6-.7-3.4-2-3.7-3.3-.2-.6-1.2-2.2-1.2-2.2s-2 .2-1.5 3.7l.3 2.4c0 .9.4 1.6 1 2.2.9.9 2.2 1.9 3.6 1.7 2.2-.4 3.1-.7 5-.3" stroke="#fff"/><path fill-rule="evenodd" clip-rule="evenodd" d="M528 621s.8 1.4 1.6 1c.9-.4 1.9-3.4 3.3-3.4s2.3 1 3.3 1 1.4-4.4 1.4-4.4 5 1.2 7.2 1.2 16.6-7.6 17.2-7.6c.6 0-7 6.6-8 7.6s-.8 1.6 0 3.6 1 2.8-1 2.8-2.9-.8-3.3 0c-.4.8.2 1.6-1.4 2.6-1.7 1-7.8 1.8-8.4 2.8-.6 1-.4 1.2 0 1.8.4.6-2.3.8-2.3.8s-.2-1.8-.8-1.8c-.6 0-3.7.8-4.7 0s-4.1-3.8-4.1-4.6V621Z" fill="#85ACB0" stroke="#fff" stroke-width="3"/><path d="M517.3 622.8v-1.4h-3.4v-.7l2.9-4.9h1.3v5h1v.6h-1v1.4h-.8Zm-2.6-2h2.6v-4.4h-.1l-2.5 4.3ZM516.5 627.8a8.5 8.5 0 0 1-8.5-8.5h-2c0 5.8 4.7 10.5 10.5 10.5v-2Zm8.5-8.5c0 4.7-3.8 8.5-8.5 8.5v2c5.8 0 10.5-4.7 10.5-10.5h-2Zm-8.5-8.5c4.7 0 8.5 3.8 8.5 8.5h2c0-5.8-4.7-10.5-10.5-10.5v2Zm0-2c-5.8 0-10.5 4.7-10.5 10.5h2c0-4.7 3.8-8.5 8.5-8.5v-2Z" fill="#85ACB0"/><path d="M163.7 434.4c0 .5 0 1-.2 1.4a5.5 5.5 0 0 1-1.4 2.3l-.8.7h-1.1a13.7 13.7 0 0 0 1.7-1.6 5.1 5.1 0 0 0 1-2l-.7.7c-.3.2-.6.3-1 .3s-.6 0-.9-.2c-.2-.1-.5-.2-.6-.4a2.1 2.1 0 0 1-.6-1.6l.1-1a2.1 2.1 0 0 1 1.2-1.1 2.6 2.6 0 0 1 2 0l.7.5c.2.2.4.5.5.9l.1 1Zm-2.3 1c.5 0 .8 0 1-.3.3-.3.5-.7.5-1.1v-.1c0-.5-.2-.8-.4-1-.3-.3-.6-.5-1-.5-.5 0-.9.2-1.2.4-.2.3-.3.6-.3 1v.2c0 .4 0 .8.3 1 .3.3.7.4 1.1.4ZM161.4 443.8a8.5 8.5 0 0 1-8.5-8.5h-2c0 5.8 4.7 10.5 10.5 10.5v-2Zm8.5-8.5c0 4.7-3.8 8.5-8.5 8.5v2c5.8 0 10.5-4.7 10.5-10.5h-2Zm-8.5-8.5c4.7 0 8.5 3.8 8.5 8.5h2c0-5.8-4.7-10.5-10.5-10.5v2Zm0-2c-5.8 0-10.5 4.7-10.5 10.5h2c0-4.7 3.8-8.5 8.5-8.5v-2ZM257.5 463.6v-.7h2v-5.7l-1.8 1.7-.5-.5 1.8-1.8h1.3v6.3h1.8v.7h-4.6Zm7.8-4c.4 0 .8-.1 1-.3.3-.3.4-.5.4-.9s-.1-.7-.4-.9c-.2-.2-.5-.2-.9-.2-.3 0-.6 0-.8.2-.3.1-.4.4-.6.6l-.6-.5.3-.4a2.1 2.1 0 0 1 1-.6l.8-.1.8.1a1.8 1.8 0 0 1 1.1 1l.2.7a1.6 1.6 0 0 1-.8 1.4 2 2 0 0 1-.6.2 2 2 0 0 1 1 .6l.4.5.1.7c0 .3 0 .6-.2.8 0 .3-.2.5-.4.7l-.8.4a3 3 0 0 1-1 .1 3 3 0 0 1-.8 0 2.4 2.4 0 0 1-1-.7l-.4-.5.6-.4.3.3.3.3a1.7 1.7 0 0 0 1 .3c.5 0 .9-.1 1.2-.4.2-.2.3-.5.3-1 0-.4 0-.7-.3-1-.3-.2-.7-.3-1.2-.3h-.8v-.7h.8Z" fill="#fff"/><path d="M262.7 468.6a8.5 8.5 0 0 1-8.5-8.5h-2c0 5.8 4.7 10.5 10.5 10.5v-2Zm8.5-8.5c0 4.7-3.8 8.5-8.5 8.5v2c5.8 0 10.5-4.7 10.5-10.5h-2Zm-8.5-8.5c4.7 0 8.5 3.8 8.5 8.5h2c0-5.8-4.7-10.5-10.5-10.5v2Zm0-2c-5.8 0-10.5 4.7-10.5 10.5h2c0-4.7 3.8-8.5 8.5-8.5v-2ZM304.2 451.2h-4.6v-.9l2.3-2.1.8-1c.2-.3.3-.6.3-1 0-.5 0-.8-.3-1-.2-.3-.5-.4-1-.4l-.5.1-.4.2-.3.4-.2.5-.8-.3.3-.6.5-.5a2.2 2.2 0 0 1 1.5-.5l.9.1.7.4.4.7.1.8v.7l-.4.7a10.2 10.2 0 0 1-1.1 1.2l-1.9 1.7h3.7v.8Zm3.3-4c.4 0 .8-.2 1-.4.3-.2.4-.5.4-.8 0-.5-.1-.7-.4-1l-.9-.2c-.3 0-.6 0-.8.2-.3.2-.5.4-.6.7l-.6-.5.3-.4a2.1 2.1 0 0 1 1-.6l.8-.1h.8l.7.4.4.6.2.7a1.6 1.6 0 0 1-.8 1.4 2 2 0 0 1-.6.2 2 2 0 0 1 1 .6l.4.6.1.6c0 .3 0 .6-.2.9 0 .2-.2.4-.4.6l-.8.4a3 3 0 0 1-1 .2l-.8-.1a2.3 2.3 0 0 1-1-.7l-.4-.4.6-.5.3.4a1.7 1.7 0 0 0 .8.5h.5c.5 0 .9 0 1.1-.3.3-.2.4-.5.4-1s-.1-.8-.4-1c-.2-.2-.6-.3-1-.3h-.9v-.8h.8Z" fill="#fff"/><path d="M304.9 456.2a8.5 8.5 0 0 1-8.5-8.5h-2c0 5.8 4.7 10.5 10.5 10.5v-2Zm8.5-8.5c0 4.7-3.9 8.5-8.5 8.5v2c5.8 0 10.5-4.7 10.5-10.5h-2Zm-8.5-8.5c4.6 0 8.5 3.8 8.5 8.5h2c0-5.8-4.7-10.5-10.5-10.5v2Zm0-2c-5.8 0-10.5 4.7-10.5 10.5h2c0-4.7 3.8-8.5 8.5-8.5v-2ZM328.9 450.3c.5 0 .8-.1 1-.4.3-.2.4-.5.4-.8 0-.4-.1-.7-.3-.9-.3-.2-.6-.3-1-.3-.3 0-.6.1-.8.3l-.6.6-.6-.5.3-.4a2.2 2.2 0 0 1 1-.6l.8-.1.8.1a1.8 1.8 0 0 1 1.1.9l.2.7a1.6 1.6 0 0 1-.8 1.5 2 2 0 0 1-.5.2 2 2 0 0 1 1 .6l.3.5.1.7-.1.8-.5.6-.8.5a3 3 0 0 1-1 .1 3 3 0 0 1-.7-.1 2.3 2.3 0 0 1-1.1-.6l-.4-.5.6-.5.3.4a1.8 1.8 0 0 0 .8.5h.5c.5 0 1 0 1.2-.3.2-.2.3-.5.3-1 0-.4 0-.7-.3-1-.3-.2-.7-.3-1.2-.3h-.8v-.7h.8ZM329.3 459.3a8.5 8.5 0 0 1-8.5-8.5h-2c0 5.8 4.7 10.5 10.5 10.5v-2Zm8.5-8.5c0 4.7-3.8 8.5-8.5 8.5v2c5.8 0 10.5-4.7 10.5-10.5h-2Zm-8.5-8.5c4.7 0 8.5 3.8 8.5 8.5h2c0-5.8-4.7-10.5-10.5-10.5v2Zm0-2c-5.8 0-10.5 4.7-10.5 10.5h2c0-4.7 3.8-8.5 8.5-8.5v-2ZM305.2 426.9v-.8h2v-5.6h-.1l-1.8 1.7-.5-.6 1.9-1.7h1.3v6.2h1.8v.8h-4.6ZM307.3 431.9a8.5 8.5 0 0 1-8.5-8.5h-2c0 5.8 4.7 10.5 10.5 10.5v-2Zm8.5-8.5c0 4.7-3.8 8.5-8.5 8.5v2c5.8 0 10.5-4.7 10.5-10.5h-2Zm-8.5-8.5c4.7 0 8.5 3.8 8.5 8.5h2c0-5.8-4.7-10.5-10.5-10.5v2Zm0-2c-5.8 0-10.5 4.7-10.5 10.5h2c0-4.7 3.8-8.5 8.5-8.5v-2ZM309.3 382h-3l-.2 2.6.6-.6.9-.2c.3 0 .5 0 .8.2a2 2 0 0 1 1 1c.2.4.2.7.2 1l-.1 1a2 2 0 0 1-1.2 1.1l-1 .2h-.8a2.3 2.3 0 0 1-1-.7l-.4-.5.6-.5.3.4.3.3a1.6 1.6 0 0 0 1 .3c.5 0 .8-.2 1-.4.3-.3.4-.6.4-1v-.2c0-.5 0-.8-.3-1-.3-.3-.6-.4-1.1-.4l-.8.1-.5.4h-.7l.3-3.9h3.7v.7ZM307.3 393.2a8.5 8.5 0 0 1-8.5-8.5h-2c0 5.8 4.7 10.5 10.5 10.5v-2Zm8.5-8.5c0 4.7-3.8 8.5-8.5 8.5v2c5.8 0 10.5-4.7 10.5-10.5h-2Zm-8.5-8.5c4.7 0 8.5 3.8 8.5 8.5h2c0-5.8-4.7-10.5-10.5-10.5v2Zm0-2c-5.8 0-10.5 4.7-10.5 10.5h2c0-4.7 3.8-8.5 8.5-8.5v-2ZM359.3 406h-4.6v-.8l2.3-2.1.8-1c.2-.3.3-.6.3-1v-.1c0-.4 0-.7-.3-1-.2-.2-.5-.3-1-.3h-.5l-.4.3c-.2.1-.3.3-.3.4l-.2.5-.8-.3.3-.6.4-.5.7-.4.9-.2.9.2.7.4.4.7.1.8-.1.7c0 .3-.2.5-.3.7a10.2 10.2 0 0 1-1.1 1.2l-1.9 1.7h3.7v.7Zm6 0h-4.6v-.8l2.3-2.1.8-1c.2-.3.3-.6.3-1v-.1c0-.4 0-.7-.3-1-.2-.2-.5-.3-1-.3h-.5l-.4.3c-.2.1-.3.3-.3.4l-.2.5-.8-.3.3-.6.4-.5.7-.4.9-.2.9.2.7.4.4.7.1.8-.1.7c0 .3-.2.5-.3.7a10.2 10.2 0 0 1-1.1 1.2l-1.9 1.7h3.7v.7Z" fill="#fff"/><path d="M360 411a8.5 8.5 0 0 1-8.6-8.5h-2c0 5.8 4.7 10.5 10.5 10.5v-2Zm8.4-8.5c0 4.7-3.8 8.5-8.5 8.5v2c5.8 0 10.5-4.7 10.5-10.5h-2ZM360 394c4.7 0 8.5 3.9 8.5 8.5h2c0-5.8-4.7-10.5-10.5-10.5v2Zm0-2c-5.8 0-10.5 4.7-10.5 10.5h2c0-4.6 3.9-8.5 8.5-8.5v-2ZM354.8 434.8v-.7h2v-5.6l-1.9 1.6-.4-.5 1.8-1.8h1.3v6.3h1.8v.7h-4.6Zm10.5 0h-4.6v-.8l2.3-2.1.8-1c.2-.3.3-.7.3-1v-.1c0-.4 0-.7-.3-1-.2-.2-.5-.3-1-.3h-.5l-.4.3c-.2.1-.3.2-.3.4l-.2.5-.8-.3.3-.6.4-.6a2.2 2.2 0 0 1 1.6-.5c.3 0 .6 0 .9.2.3 0 .5.2.7.4l.4.6.1.9-.1.7-.3.7a10.2 10.2 0 0 1-1.1 1.2l-1.9 1.7h3.7v.7Z" fill="#fff"/><path d="M360 439.8a8.5 8.5 0 0 1-8.6-8.5h-2c0 5.8 4.7 10.5 10.5 10.5v-2Zm8.4-8.5c0 4.7-3.8 8.5-8.5 8.5v2c5.8 0 10.5-4.7 10.5-10.5h-2Zm-8.5-8.5c4.7 0 8.5 3.8 8.5 8.5h2c0-5.8-4.7-10.5-10.5-10.5v2Zm0-2c-5.8 0-10.5 4.7-10.5 10.5h2c0-4.7 3.9-8.5 8.5-8.5v-2ZM435.7 502.3h-4.5v-.9l2.2-2 .9-1c.2-.3.3-.7.3-1v-.1c0-.4-.1-.7-.3-1-.3-.2-.6-.3-1-.3h-.6l-.4.3-.3.4-.2.4-.7-.3.3-.6c0-.2.2-.3.4-.5l.6-.4 1-.1c.3 0 .6 0 .8.2.3 0 .5.2.7.4l.4.6.2.8-.1.8-.4.7a10.2 10.2 0 0 1-1.1 1.2l-1.8 1.7h3.6v.7ZM433.4 507.3a8.5 8.5 0 0 1-8.5-8.5h-2c0 5.8 4.7 10.5 10.5 10.5v-2Zm8.5-8.5c0 4.7-3.8 8.5-8.5 8.5v2c5.8 0 10.5-4.7 10.5-10.5h-2Zm-8.5-8.5c4.7 0 8.5 3.8 8.5 8.5h2c0-5.8-4.7-10.5-10.5-10.5v2Zm0-2c-5.8 0-10.5 4.7-10.5 10.5h2c0-4.7 3.8-8.5 8.5-8.5v-2ZM432.7 454.7h-4.5v-.9l2.2-2 .9-1 .3-1v-.2c0-.4-.1-.7-.3-1-.2-.2-.6-.3-1-.3l-.6.1-.4.3-.3.3-.2.5-.7-.3.3-.6c0-.2.2-.4.4-.5l.6-.4 1-.1.8.1.7.4.4.7.2.8-.1.8-.4.6a10.2 10.2 0 0 1-1.1 1.2l-1.8 1.7h3.6v.8Zm1.6 0v-.8h2v-5.6h-.1l-1.8 1.7-.5-.6 1.9-1.7h1.3v6.2h1.8v.8h-4.6Z" fill="#fff"/><path d="M433.4 459.7a8.5 8.5 0 0 1-8.5-8.5h-2c0 5.8 4.7 10.5 10.5 10.5v-2Zm8.5-8.5c0 4.7-3.8 8.5-8.5 8.5v2c5.8 0 10.5-4.7 10.5-10.5h-2Zm-8.5-8.5c4.7 0 8.5 3.8 8.5 8.5h2c0-5.8-4.7-10.5-10.5-10.5v2Zm0-2c-5.8 0-10.5 4.7-10.5 10.5h2c0-4.7 3.8-8.5 8.5-8.5v-2ZM384.6 546v-.8h2v-5.6h-.1l-1.8 1.6-.5-.5 1.9-1.7h1.3v6.2h1.8v.8h-4.6Zm6 0v-.8h2v-5.6h-.1l-1.8 1.6-.5-.5 1.9-1.7h1.3v6.2h1.8v.8h-4.6Z" fill="#fff"/><path d="M389.7 551a8.5 8.5 0 0 1-8.5-8.5h-2c0 5.8 4.7 10.5 10.5 10.5v-2Zm8.5-8.5c0 4.7-3.8 8.5-8.5 8.5v2c5.8 0 10.5-4.7 10.5-10.5h-2Zm-8.5-8.5c4.7 0 8.5 3.8 8.5 8.5h2c0-5.8-4.7-10.5-10.5-10.5v2Zm0-2c-5.8 0-10.5 4.7-10.5 10.5h2c0-4.7 3.8-8.5 8.5-8.5v-2ZM247.6 364.4v-.8h2V358h-.1l-1.8 1.6-.4-.5 1.8-1.7h1.3v6.2h1.8v.8h-4.6Zm8.1 0c-.8 0-1.4-.2-1.8-.9-.4-.6-.6-1.5-.6-2.6 0-1.2.2-2 .6-2.7.4-.6 1-1 1.8-1 .9 0 1.5.4 1.9 1 .3.7.5 1.5.5 2.7 0 1.1-.2 2-.5 2.6-.4.7-1 1-1.9 1Zm0-.6.7-.2.5-.5.3-.7v-3c0-.3-.2-.5-.3-.8l-.5-.4-.7-.2c-.2 0-.5 0-.7.2-.2 0-.3.2-.4.4l-.3.8v3c0 .3.1.5.3.7 0 .2.2.4.4.5l.7.2Z" fill="#fff"/><path d="M252.7 369.4a8.5 8.5 0 0 1-8.5-8.5h-2c0 5.8 4.7 10.5 10.5 10.5v-2Zm8.5-8.5c0 4.7-3.8 8.5-8.5 8.5v2c5.8 0 10.5-4.7 10.5-10.5h-2Zm-8.5-8.5c4.7 0 8.5 3.8 8.5 8.5h2c0-5.8-4.7-10.5-10.5-10.5v2Zm0-2c-5.8 0-10.5 4.7-10.5 10.5h2c0-4.7 3.8-8.5 8.5-8.5v-2ZM312.6 163H308v-1l2.3-2c.4-.3.6-.7.8-1 .3-.3.4-.7.4-1v-.1c0-.4-.1-.7-.3-1-.3-.2-.6-.3-1-.3h-.6l-.4.3-.3.4-.2.5-.7-.3.3-.6c0-.2.2-.4.4-.6l.6-.3 1-.2c.3 0 .6 0 .8.2.3 0 .5.2.7.4l.4.6.2.9c0 .2 0 .5-.2.7a3 3 0 0 1-.8 1.3l-.6.6-1.8 1.7h3.6v.7Zm5.7-6.3h-3l-.3 2.6.6-.5c.3-.2.5-.2 1-.2l.7.1a2 2 0 0 1 1.1 1.1l.2 1c0 .3 0 .6-.2.9a2 2 0 0 1-1.2 1.2l-1 .1h-.7a2.3 2.3 0 0 1-1-.7l-.4-.4.6-.5.3.4.3.2a1.6 1.6 0 0 0 1 .3c.4 0 .8-.1 1-.4.3-.2.4-.6.4-1v-.2c0-.4-.1-.8-.4-1-.2-.3-.6-.4-1-.4s-.6 0-.8.2c-.2 0-.4.2-.5.4l-.7-.1.2-3.9h3.8v.8Z" fill="#fff"/><path d="M313.3 168a8.5 8.5 0 0 1-8.5-8.6h-2c0 5.8 4.7 10.5 10.5 10.5v-2Zm8.5-8.6c0 4.7-3.8 8.5-8.5 8.5v2c5.8 0 10.5-4.7 10.5-10.5h-2Zm-8.5-8.5c4.7 0 8.5 3.8 8.5 8.5h2c0-5.8-4.7-10.5-10.5-10.5v2Zm0-2c-5.8 0-10.5 4.7-10.5 10.5h2c0-4.7 3.8-8.5 8.5-8.5v-2ZM443.3 163l-1-.1-.8-.4a1.8 1.8 0 0 1-.6-1.5c0-.5.1-.8.4-1.1.3-.3.6-.5 1-.6l-.9-.7c-.2-.3-.3-.6-.3-1 0-.6.2-1 .6-1.3.4-.3 1-.5 1.6-.5.7 0 1.3.2 1.7.5.3.3.5.7.5 1.3 0 .4 0 .7-.3 1-.2.3-.5.5-.9.6v.1c.5.1.8.3 1 .6.3.3.4.6.4 1.1l-.1.8-.5.7-.7.4-1 .1Zm0-.7c.5 0 .9 0 1.2-.3.2-.2.4-.5.4-1v-.1c0-.4-.2-.8-.4-1-.3-.2-.7-.3-1.2-.3s-.8.1-1.1.3c-.3.3-.4.6-.4 1v.2c0 .4.1.7.4.9.3.2.6.3 1.1.3Zm0-3.4c.5 0 .8 0 1-.3.3-.2.4-.4.4-.8v-.1c0-.4-.1-.7-.4-.9-.2-.2-.5-.2-1-.2-.4 0-.7 0-1 .2-.2.2-.3.5-.3.9v.1c0 .4.1.6.3.8.3.2.6.3 1 .3ZM443.3 168a8.5 8.5 0 0 1-8.5-8.6h-2c0 5.8 4.7 10.5 10.5 10.5v-2Zm8.5-8.6c0 4.7-3.8 8.5-8.5 8.5v2c5.8 0 10.5-4.7 10.5-10.5h-2Zm-8.5-8.5c4.7 0 8.5 3.8 8.5 8.5h2c0-5.8-4.7-10.5-10.5-10.5v2Zm0-2c-5.8 0-10.5 4.7-10.5 10.5h2c0-4.7 3.8-8.5 8.5-8.5v-2ZM442 234.4l2.7-6.3h-3v1.3h-.7v-2h4.6v.7l-2.6 6.3h-1ZM443.3 239.4a8.5 8.5 0 0 1-8.5-8.5h-2c0 5.8 4.7 10.5 10.5 10.5v-2Zm8.5-8.5c0 4.7-3.8 8.5-8.5 8.5v2c5.8 0 10.5-4.7 10.5-10.5h-2Zm-8.5-8.5c4.7 0 8.5 3.8 8.5 8.5h2c0-5.8-4.7-10.5-10.5-10.5v2Zm0-2c-5.8 0-10.5 4.7-10.5 10.5h2c0-4.7 3.8-8.5 8.5-8.5v-2ZM438.2 269.1v-.7h2v-5.7h-.1l-1.8 1.7-.5-.5 1.9-1.8h1.3v6.3h1.8v.7h-4.6Zm10.1-6.2h-3l-.3 2.6h.1l.6-.5c.2-.2.5-.2.8-.2l.9.1a2 2 0 0 1 1 1.1c.2.3.2.6.2 1l-.1.9a2 2 0 0 1-1.2 1.2l-1 .1h-.8a2.2 2.2 0 0 1-1-.7l-.4-.5.6-.4.3.3.3.3a1.5 1.5 0 0 0 1 .3c.5 0 .8-.1 1-.4.3-.3.4-.6.4-1v-.2c0-.4 0-.8-.3-1-.3-.3-.6-.4-1.1-.4-.3 0-.6 0-.8.2-.2 0-.3.2-.5.4l-.7-.1.3-3.9h3.7v.8Z" fill="#fff"/><path d="M443.3 274.1a8.5 8.5 0 0 1-8.5-8.5h-2c0 5.8 4.7 10.5 10.5 10.5v-2Zm8.5-8.5c0 4.7-3.8 8.5-8.5 8.5v2c5.8 0 10.5-4.7 10.5-10.5h-2Zm-8.5-8.5c4.7 0 8.5 3.8 8.5 8.5h2c0-5.8-4.7-10.5-10.5-10.5v2Zm0-2c-5.8 0-10.5 4.7-10.5 10.5h2c0-4.7 3.8-8.5 8.5-8.5v-2ZM419.4 297.9v-.8h1.9v-5.6l-1.8 1.7-.5-.6 1.8-1.7h1.3v6.2h1.8v.8h-4.5Zm8 .1c-.3 0-.6 0-.9-.2l-.7-.5c-.2-.2-.4-.5-.5-.9l-.2-1c0-.6.1-1 .3-1.5a5.5 5.5 0 0 1 2.2-3h1.1a13.5 13.5 0 0 0-1.8 1.6 4.7 4.7 0 0 0-.9 2l.7-.7c.3-.2.6-.3 1-.3.3 0 .6 0 .9.2a1.8 1.8 0 0 1 1 1.1l.2.9c0 .3 0 .6-.2 1a2 2 0 0 1-1.2 1.1l-1 .2Zm0-.7c.5 0 .9-.2 1.1-.4.3-.3.4-.6.4-1.1 0-.6-.1-1-.4-1.2-.2-.2-.6-.3-1-.3-.5 0-.9 0-1.1.3-.3.3-.4.6-.4 1.1v.1c0 .5.1.8.4 1 .2.3.6.5 1 .5Z" fill="#fff"/><path d="M424.5 302.9a8.5 8.5 0 0 1-8.5-8.5h-2c0 5.8 4.7 10.5 10.5 10.5v-2Zm8.5-8.5c0 4.7-3.8 8.5-8.5 8.5v2c5.8 0 10.5-4.7 10.5-10.5h-2Zm-8.5-8.5c4.7 0 8.5 3.8 8.5 8.5h2c0-5.8-4.7-10.5-10.5-10.5v2Zm0-2c-5.8 0-10.5 4.7-10.5 10.5h2c0-4.7 3.8-8.5 8.5-8.5v-2ZM359.8 351.5v-.8h2v-5.6h-.1l-1.8 1.6-.5-.5 1.9-1.7h1.3v6.2h1.8v.8h-4.6Zm10.4-4.4c0 .5 0 1-.2 1.4a5.5 5.5 0 0 1-1.4 2.3l-.9.7h-1a13.8 13.8 0 0 0 1.7-1.6 5.1 5.1 0 0 0 1-2l-.7.7-1 .2-.9-.1-.6-.4a2.1 2.1 0 0 1-.6-1.6l.1-1a2.1 2.1 0 0 1 1.2-1.2l1-.1c.4 0 .7 0 1 .2.3 0 .5.3.7.5l.5.8.1 1.2Zm-2.3 1c.5 0 .8-.1 1-.4.3-.2.5-.6.5-1v-.1c0-.5-.2-.9-.4-1.1-.3-.3-.6-.4-1-.4-.6 0-1 .1-1.2.4-.2.2-.4.6-.4 1v.1c0 .5.2.9.4 1.1.3.3.6.4 1.1.4Z" fill="#fff"/><path d="M365 356.5a8.5 8.5 0 0 1-8.6-8.5h-2c0 5.8 4.7 10.5 10.5 10.5v-2Zm8.4-8.5c0 4.7-3.8 8.5-8.5 8.5v2c5.8 0 10.5-4.7 10.5-10.5h-2Zm-8.5-8.5c4.7 0 8.5 3.8 8.5 8.5h2c0-5.8-4.7-10.5-10.5-10.5v2Zm0-2c-5.8 0-10.5 4.7-10.5 10.5h2c0-4.7 3.8-8.5 8.5-8.5v-2ZM242.8 282.1c-.3 0-.7 0-1-.2-.2 0-.5-.3-.7-.5l-.5-.8-.1-1.2c0-.5 0-1 .2-1.4a5.6 5.6 0 0 1 2.3-3h1a14 14 0 0 0-1.7 1.6 4.7 4.7 0 0 0-1 2h.1l.6-.6c.3-.2.7-.3 1-.3l1 .1a1.8 1.8 0 0 1 1 1.1l.1 1-.1.9a2 2 0 0 1-1.2 1.2l-1 .1Zm0-.7c.5 0 .8-.1 1-.4.3-.2.5-.6.5-1v-.2c0-.4-.2-.8-.4-1-.3-.3-.6-.4-1-.4-.5 0-1 .1-1.2.4-.2.2-.3.6-.3 1v.1c0 .5 0 .9.3 1.1.3.3.7.4 1.1.4ZM242.8 287a8.5 8.5 0 0 1-8.5-8.5h-2c0 5.8 4.7 10.5 10.5 10.5v-2Zm8.5-8.5c0 4.7-3.8 8.5-8.5 8.5v2c5.8 0 10.5-4.7 10.5-10.5h-2Zm-8.5-8.5c4.7 0 8.5 3.8 8.5 8.5h2c0-5.8-4.7-10.5-10.5-10.5v2Zm0-2c-5.8 0-10.5 4.7-10.5 10.5h2c0-4.7 3.8-8.5 8.5-8.5v-2ZM191 352.5v-.8h2v-5.6l-1.8 1.6-.5-.5 1.8-1.7h1.3v6.2h1.8v.8H191Zm8.2 0h-1l-.9-.5a1.8 1.8 0 0 1-.6-1.4c0-.5.2-.9.4-1.2.3-.3.6-.5 1-.6l-.8-.7c-.2-.2-.4-.6-.4-1 0-.5.2-1 .6-1.3.4-.3 1-.4 1.7-.4s1.2.1 1.6.4c.4.4.6.8.6 1.3 0 .4-.1.8-.4 1l-.8.7c.4.1.7.3 1 .6.2.3.4.7.4 1.2 0 .2 0 .5-.2.8 0 .2-.2.4-.4.6l-.8.4-1 .2Zm0-.6c.4 0 .8-.2 1-.4.4-.2.5-.5.5-.9v-.2c0-.4-.1-.7-.4-1-.3-.1-.7-.3-1.1-.3-.5 0-1 .2-1.2.4-.2.2-.4.5-.4.9v.2c0 .4.2.7.4 1 .3.1.7.3 1.2.3Zm0-3.5c.4 0 .7 0 1-.2.2-.2.3-.5.3-.9v-.1c0-.4-.1-.6-.3-.8-.3-.2-.6-.3-1-.3-.5 0-.8 0-1 .3-.3.2-.4.4-.4.8v.1c0 .4.1.7.4.9l1 .2Z" fill="#fff"/><path d="M196.2 357.5a8.5 8.5 0 0 1-8.5-8.5h-2c0 5.8 4.7 10.5 10.5 10.5v-2Zm8.5-8.5c0 4.7-3.8 8.5-8.5 8.5v2c5.8 0 10.5-4.7 10.5-10.5h-2Zm-8.5-8.5c4.7 0 8.5 3.8 8.5 8.5h2c0-5.8-4.7-10.5-10.5-10.5v2Zm0-2c-5.8 0-10.5 4.7-10.5 10.5h2c0-4.7 3.8-8.5 8.5-8.5v-2ZM219.8 390.2v-.8h2v-5.6l-1.9 1.6-.4-.5 1.8-1.7h1.3v6.2h1.8v.8h-4.6Zm6.9 0 2.7-6.3h-3v1.3h-.8v-2h4.6v.7l-2.6 6.3h-1Z" fill="#fff"/><path d="M225 395.2a8.5 8.5 0 0 1-8.6-8.5h-2c0 5.8 4.7 10.5 10.5 10.5v-2Zm8.4-8.5c0 4.7-3.8 8.5-8.5 8.5v2c5.8 0 10.5-4.7 10.5-10.5h-2Zm-8.5-8.5c4.7 0 8.5 3.8 8.5 8.5h2c0-5.8-4.7-10.5-10.5-10.5v2Zm0-2c-5.8 0-10.5 4.7-10.5 10.5h2c0-4.7 3.9-8.5 8.5-8.5v-2ZM23.3 336.9v-.8h2v-5.6h-.1l-1.8 1.6-.5-.5 1.9-1.7H26v6.2h1.8v.8h-4.6Zm8.9 0v-1.4h-3.4v-.7l2.9-5H33v5h1v.7h-1v1.4h-.8Zm-2.6-2.1h2.6v-4.3H32l-2.5 4.3Z" fill="#fff"/><path d="M28.4 341.9a8.5 8.5 0 0 1-8.5-8.5h-2c0 5.8 4.7 10.5 10.5 10.5v-2Zm8.5-8.5c0 4.7-3.8 8.5-8.5 8.5v2c5.8 0 10.5-4.7 10.5-10.5h-2Zm-8.5-8.5c4.7 0 8.5 3.8 8.5 8.5h2c0-5.8-4.7-10.5-10.5-10.5v2Zm0-2c-5.8 0-10.5 4.7-10.5 10.5h2c0-4.7 3.8-8.5 8.5-8.5v-2ZM82.3 539h-4.5v-.8L80 536c.4-.3.6-.7.8-1 .3-.3.4-.7.4-1v-.1c0-.4-.1-.7-.3-1-.3-.2-.6-.3-1-.3h-.6l-.4.3-.3.4-.2.5-.7-.3.3-.6c0-.2.2-.4.4-.6l.6-.3 1-.2c.3 0 .6 0 .8.2.3 0 .5.2.7.4l.4.6.2.9-.1.7a3 3 0 0 1-.8 1.3l-.7.6-1.8 1.7h3.6v.7Zm4.4 0v-1.4h-3.3v-.7l2.9-4.9h1.2v5h1v.6h-1v1.4h-.8Zm-2.5-2h2.5v-4.3l-2.5 4.3Z" fill="#fff"/><path d="M83 544a8.5 8.5 0 0 1-8.5-8.5h-2c0 5.8 4.7 10.5 10.5 10.5v-2Zm8.5-8.5c0 4.7-3.8 8.5-8.5 8.5v2c5.8 0 10.5-4.7 10.5-10.5h-2ZM83 527c4.7 0 8.5 3.8 8.5 8.5h2c0-5.8-4.7-10.5-10.5-10.5v2Zm0-2c-5.8 0-10.5 4.7-10.5 10.5h2c0-4.7 3.8-8.5 8.5-8.5v-2ZM23.8 552h-4.6v-1l2.3-2 .8-1c.2-.3.3-.7.3-1v-.1c0-.4 0-.7-.3-1-.2-.2-.5-.3-1-.3h-.5l-.5.3-.2.4-.2.5-.8-.3.3-.6.4-.6.7-.3.9-.2c.3 0 .6 0 .9.2.2 0 .5.2.6.4l.5.6.1.9-.1.7-.3.7a10.5 10.5 0 0 1-1.1 1.2l-2 1.7h3.8v.7Zm3.6 0c-.8 0-1.4-.3-1.8-1-.4-.5-.6-1.4-.6-2.6 0-1.1.2-2 .6-2.6.4-.7 1-1 1.8-1 .9 0 1.5.3 1.8 1 .4.6.6 1.5.6 2.6 0 1.2-.2 2-.6 2.7-.3.6-1 1-1.8 1Zm0-.7c.3 0 .5 0 .7-.2.2 0 .4-.2.5-.4l.3-.8v-3c0-.3-.2-.5-.3-.7l-.5-.5-.7-.2-.7.2-.4.5c-.2.2-.3.4-.3.7v3.1c0 .2.1.5.3.7 0 .2.2.3.4.4.2.2.5.2.7.2Z" fill="#fff"/><path d="M24.4 557a8.5 8.5 0 0 1-8.5-8.6h-2c0 5.8 4.7 10.5 10.5 10.5v-2Zm8.5-8.6c0 4.7-3.8 8.5-8.5 8.5v2c5.8 0 10.5-4.7 10.5-10.5h-2Zm-8.5-8.5c4.7 0 8.5 3.8 8.5 8.5h2c0-5.8-4.7-10.5-10.5-10.5v2Zm0-2c-5.8 0-10.5 4.7-10.5 10.5h2c0-4.7 3.8-8.5 8.5-8.5v-2Z" fill="#fff"/><path fill-rule="evenodd" clip-rule="evenodd" d="M474 516s15.1 4.7 20 2.1c5-2.6 23.8-19.2 30-18.5a88 88 0 0 0 23.6-2.2c3.2-1.2 12.1 2.8 13.5 4.5 1.4 1.7 18.7 14.4 31.3 12.6 12.6-1.8 28.8-7.8 33.6-8.9 4.8-1 8.7-8.4 8.7-8.4l11-1.9s-2.7-3.4 5-2.6c7.7.8 17.3 12.7 17.3 12.7l-1.3 12.2c-.1 1.6 6 2.2 6 2.2a89 89 0 0 0 4 20.6c2.7 4.9 6.5 13 6.5 13l-5.3 5.7-9.4.5-19.7 10.4-14.5 4.6-22.7 8.5s-5.8-3.7-10.8-1.1c-4.9 2.6-11.5 6.5-11.5 6.5l-9-4-.9 9.2c-.3 3 2.8 3.4 2.8 3.4s-7 7-8.5 6.8c-1.6-.1-5.6-6.8-5.4-8.3.2-1.5 5.3-5.6 5.4-7.2.2-1.5-1-4.7-2.7-3.4-1.7 1.4-7.1 8.6-10.2 8.3-3.1-.4-7.4-3.9-10.5-4.2-3-.3-7.3 10-10.5 11.3a107 107 0 0 1-16 4.5c-1.6-.2-5.4-8.3-8.4-8.6-3.1-.4-8.8-5.6-11.9-6-3-.3-10.9.5-10.9.5l.4 10.9s-8.3 5.3-12.8 3.3c-4.4-2-8.9-4-8.6-7.1.4-3-2.6-5-4.1-5.1-1.5-.2-16.6-4.8-18.1-5-1.6-.2-3.8-8.2-3.8-8.2s3.5-4.2.6-6c-3-2-10.3-5.8-10.1-7.3.1-1.6 9.5-2.1 9.5-2.1s-2.4-6.5-3.8-8.2c-1.3-1.7 1.3-12.2 1.3-12.2l-12.3-1.3s2-4.5 5.6-8.7c3.6-4.3 8.2-3.8 15.9-3 7.7.8 13.8 1.4 17 .2 3.3-1.2 13.2-6.3 13.2-6.3s-12.2-2.9-12-4.4c.1-1.5 3.5-4.3 3.5-4.3Z" fill="#85ACB0" stroke="#fff"/><path d="M204.6 387.2h12" stroke="#fff"/></svg>