<svg xmlns="http://www.w3.org/2000/svg" width="160" height="80" viewBox="0 0 160 80">
    <g fill="#85ACB0" fill-rule="evenodd">
        <path d="M43.975 19.674c.965.017 1.93.015 2.895 0 .357 0 .503.125.503.476v11.068c0 .369-.171.467-.503.462-.932 0-1.865-.015-2.797 0-.423 0-.666-.086-.593-.557-.015-.126-.046-.25-.093-.369-.274.182-.503.33-.724.474-1.215.804-2.751.993-4.132.506-1.458-.466-2.026-1.652-2.22-3.015-.106-.887-.155-1.78-.145-2.673-.02-1.932 0-3.866-.015-5.798 0-.405.09-.577.538-.564.965.027 1.93.02 2.895 0 .382 0 .503.127.503.49-.015 2.06 0 4.122 0 6.182v.623c.037 1.122.59 1.772 1.535 1.814 1.094.05 1.707-.49 1.817-1.681.056-.587.033-1.181.033-1.773v-5.174c0-.386.13-.503.503-.491zM27.785 15v5.803c.426-.29.71-.491 1.004-.678 1.966-1.244 4.328-.76 5.349 1.186.386.773.641 1.602.754 2.455.286 1.964.251 3.945-.473 5.857-.947 2.538-3.88 2.946-5.75 1.674-.231-.179-.473-.334-.714-.484-.063.089-.106.123-.116.165-.168.736-.165.736-.94.736-.774 0-1.57-.022-2.354 0-.438 0-.604-.115-.601-.567V16.964c0-.17.07-.447.186-.491 1.164-.491 2.345-.953 3.654-1.473zm-8.23 4.696c1.483.342 2.58 1.562 2.738 3.041.068.507.103 1.017.105 1.527 0 2.298 0 4.598.013 6.898 0 .432-.146.552-.563.54-.832-.022-1.669-.02-2.513 0-.415 0-.669-.09-.611-.557.03-.086-.033-.18-.083-.332-.307.185-.573.354-.852.506-1.453.79-2.956.948-4.441.16-.509-.282-.932-.69-1.227-1.184-.623-1.106-.772-2.41-.414-3.623.392-1.512 1.842-2.501 3.68-2.577.98-.07 1.965.074 2.882.422.296.12.487.074.48-.277.004-.335-.02-.67-.07-1.002-.141-.707-.697-1.102-1.536-1.154-1.163-.099-2.333.104-3.39.587-.377.18-.528.057-.646-.277-.181-.491-.367-.982-.58-1.473-.142-.317-.094-.533.25-.626.93-.292 1.877-.533 2.835-.722 1.31-.222 2.652-.18 3.944.123zm34.46-.219c.944.013 1.883.134 2.797.361 1.192.31 1.943 1.159 2.224 2.335.153.619.237 1.251.252 1.887.03 2.35 0 4.697.025 7.043 0 .461-.133.616-.608.596-.784-.034-1.57-.027-2.355 0-.46.015-.782-.056-.701-.61-.012-.094-.036-.184-.073-.27-.216.117-.41.205-.588.318-1.028.71-2.304.99-3.544.776-1.508-.26-2.455-1.114-2.832-2.562-.242-.85-.251-1.748-.028-2.603.415-1.531 1.508-2.3 3.036-2.558 1.18-.222 2.401-.11 3.519.322.132.044.267.08.404.108.526-1.406-.233-2.49-1.709-2.543-1.259-.05-2.51.213-3.636.763-.3-.75-.591-1.423-.827-2.116-.033-.1.156-.36.299-.422 1.368-.585 2.852-.866 4.345-.825zm15.507.172c1.478.413 2.078 1.571 2.325 2.931.103.65.15 1.307.138 1.964.015 2.21 0 4.419.015 6.613 0 .417-.116.562-.55.55-.915-.027-1.832-.022-2.75 0-.44 0-.598-.125-.593-.577.02-2.058.02-4.119 0-6.181-.008-.46-.075-.918-.201-1.362-.156-.58-.701-.977-1.314-.958-.903-.017-1.458.246-1.664.901-.138.458-.21.932-.211 1.41-.022 2.061-.022 4.122 0 6.183 0 .473-.159.604-.616.589-.918-.027-1.832-.022-2.75 0-.387 0-.56-.106-.56-.516.01-3.675.01-7.35 0-11.024 0-.358.143-.474.502-.469.933.015 1.865.032 2.798 0 .49-.02.711.113.628.611.003.122.019.243.045.361l.717-.466c1.188-.78 2.677-.987 4.041-.56zM4.31 16.2v11.177c0 .798 0 .8.792.798 1.654 0 3.305 0 4.956-.015.458 0 .638.12.616.594-.038.83-.02 1.662 0 2.491 0 .334-.123.457-.458.457H.503c-.453 0-.503-.226-.503-.574v-7.524l.013-.005v-7.426c0-.561 0-.605.526-.608h3.103c.648 0 .668.02.668.635zm49.052 10.116c-.918.044-1.418.641-1.4 1.564.017.923.58 1.473 1.46 1.542 1.425.088 2.244-.52 2.242-1.675v-.333c0-.673-.08-.808-.754-.946-.508-.112-1.028-.164-1.548-.152zm-36.774-.012c-1.006 0-1.566.616-1.508 1.596.057.98.67 1.563 1.673 1.52.18-.01.359-.03.536-.06 1.143-.184 1.462-.55 1.465-1.664-.009-.111-.009-.223 0-.334.105-.37-.118-.752-.497-.854-.052-.014-.107-.023-.162-.025-.496-.102-1-.162-1.507-.179zm12.795-3.743c-.402.065-.786.208-1.129.422-.223.164-.369.41-.402.682-.073.678-.04 1.382-.04 2.087v.012c0 .592.045 1.186-.015 1.772-.06.587.251.911.736 1.152 1.194.591 2.282.179 2.528-.982.27-1.272.27-2.585 0-3.857-.206-.97-.801-1.43-1.678-1.288zM101.215 30.403c-1.862 1.58-4.003 1.747-6.274 1.123-.535-.147-1.052-.362-1.586-.499-.65-.175-.836-.077-1.215.477-.094.096-.206.175-.33.232-.087-.155-.25-.31-.25-.467-.023-1.07 0-2.143 0-3.216v-3.02c0-.25-.07-.599.291-.621.362-.022.356.344.4.609.233 1.447.554 2.86 1.355 4.13 1.15 1.821 3.084 2.385 5.08 1.731 2.258-.733 2.391-3.625 1.099-4.898-.703-.69-1.591-1.063-2.48-1.44-1.14-.484-2.291-.945-3.403-1.497-.792-.37-1.439-.99-1.84-1.764-1.129-2.245-.247-4.976 1.985-6.148 1.607-.879 3.263-.904 4.967-.3.447.157.878.357 1.328.5.314.149.69.017.84-.294.015-.03.027-.06.036-.091.053-.132.25-.207.371-.31.086.128.224.25.251.38.07.481.108.968.146 1.452.098 1.278.2 2.555.273 3.835 0 .17-.148.347-.228.522-.133-.135-.326-.25-.394-.407-.409-.968-.713-1.996-1.2-2.912-.753-1.422-1.915-2.356-3.609-2.378-1.15-.015-2.17.297-2.725 1.442-.481 1.014-.271 2.218.524 3.012.753.731 1.704 1.118 2.645 1.542 1.255.562 2.538 1.07 3.68 1.802 2.838 1.821 2.271 5.766.263 7.473M90.865.832c3.093-.853 6.331-1.053 9.507-.587 3.577.489 6.977 1.847 9.899 3.955 3.86 2.708 6.785 6.535 8.375 10.957 1.048 2.896 1.496 5.973 1.315 9.045-.13 2.121-.528 4.217-1.187 6.239-.118.356-.296.441-.648.356-.514-.139-.927-.519-1.106-1.018-.49-1.098-.98-2.196-1.448-3.3-1.577-3.726-3.153-7.448-4.73-11.167-.02-.079-.053-.154-.097-.222-.113-.128-.24-.24-.364-.357-.115.135-.278.234-.336.384-.45 1.148-.863 2.31-1.318 3.456-1.247 3.137-2.492 6.276-3.785 9.392-.324.673-.715 1.311-1.167 1.907-.318.464-.813.778-1.37.87-.13.007-.258.043-.371.108-.12.125-.222.266-.302.419.118.082.244.235.37.235.456.02.915 0 1.372 0 1.24 0 2.482.02 3.722 0 .176-.003.347-.148.52-.225-.13-.145-.236-.35-.4-.42-1.518-.628-1.897-1.384-1.432-2.976.19-.654.426-1.295.645-1.939.055-.263.3-.442.57-.414 1.505.017 3.01-.005 4.517.017.21.02.401.133.517.31.532 1.155 1.041 2.316 1.506 3.493.379.938.108 1.338-.876 1.47-.147.005-.292.037-.427.095-.104.063-.17.173-.178.294.042.126.132.23.251.29.126.033.258.04.387.022h4.964c.173 0 .344.015.62.03-.23.534-.407.998-.627 1.442-2.377 4.794-5.959 8.424-10.793 10.755-3.765 1.823-7.969 2.562-12.135 2.133-4.567-.422-8.9-2.205-12.433-5.115-.252-.181-.396-.477-.382-.786V23.738c.003-.526.044-.524.668-.484.228.013.457.025.682.06 1.73.25 2.681 1.31 2.761 3.057.013.272-.128.723.362.696.45-.022.338-.452.338-.736v-6.737c0-.098.03-.215-.012-.287-.11-.174-.232-.34-.364-.5-.108.16-.314.325-.314.5-.052.848-.215 1.642-.833 2.278-.826.85-1.897.933-2.989.933-.1 0-.286-.225-.286-.344-.022-2.113-.022-4.225 0-6.336.045-.165.175-.294.341-.34 1.494-.037 2.977.04 4.367.67 1.556.7 2.412 2.033 3.145 3.473.04.124.097.242.17.35.124.103.258.194.4.271.047-.157.16-.327.13-.466-.178-.791-.384-1.575-.59-2.358-.195-.736-.436-1.458-.59-2.206-.09-.434-.308-.5-.684-.5-2.999.032-6.004.056-9.016.07-.62.003-1.24-.044-1.86-.057-.194-.016-.39.003-.58.055-.127.048-.288.205-.293.315-.005.11.15.274.274.329.185.06.377.095.572.107.901.135 1.152.427 1.152 1.318V37.02l-.214.087c-.732-1.2-1.516-2.376-2.185-3.608-1.25-2.342-2.053-4.893-2.367-7.526-.409-3.115-.173-6.28.693-9.302C77.068 8.98 83.123 2.977 90.865.832zm18.39 18.357l2.434 5.55h-4.666l2.1-5.54.131-.01z" transform="translate(20 17)"/>
        <g>
            <path d="M15.539 1.207c.167.081.309.2.414.343l-.416.41c-.066-.102-.151-.191-.251-.266-.084-.052-.184-.08-.286-.08-.078 0-.155.018-.223.053-.07.037-.132.087-.18.146-.055.07-.095.147-.119.229-.028.09-.043.185-.042.28-.001.094.014.188.045.279.026.082.068.159.123.228.05.062.114.113.188.15.071.035.152.053.233.052.114 0 .225-.032.318-.092.106-.064.193-.151.251-.254l.426.394c-.113.154-.267.28-.446.368-.175.087-.37.132-.57.133-.185-.002-.368-.044-.533-.124-.17-.076-.32-.187-.434-.325-.09-.104-.158-.223-.2-.35-.045-.14-.066-.286-.063-.432-.021-.341.11-.675.363-.927.115-.105.25-.189.399-.247.32-.137.694-.125 1.003.032zm-6.517-.135c.171-.004.342.023.502.08.141.058.264.148.358.26.038.049.07.092.098.136.027.043.048.09.063.137.015.053.025.108.03.163.004.069.004.139 0 .208v1.467h-.665V3.41c-.202.106-.431.162-.664.16-.125.002-.249-.02-.364-.063-.108-.04-.206-.098-.288-.172-.082-.076-.148-.165-.193-.263-.048-.104-.072-.217-.07-.33-.002-.115.023-.228.072-.334.049-.1.12-.19.208-.265.095-.075.203-.133.321-.172.134-.04.273-.06.414-.06.088 0 .176.007.263.02.102.015.203.038.301.068V1.84c-.007-.074-.052-.141-.123-.179-.095-.048-.204-.071-.313-.066-.098 0-.196.011-.291.032-.131.033-.26.075-.384.126l-.25-.424c.148-.083.307-.15.474-.196.163-.043.332-.063.501-.062zm10.163 0c.171-.004.342.023.501.08.142.058.265.148.359.26.038.049.07.092.098.136.027.043.048.09.062.137.017.053.028.108.033.163v1.675h-.652V3.41c-.201.106-.43.162-.662.16-.124.002-.248-.02-.363-.063-.11-.039-.208-.097-.291-.172-.082-.075-.147-.165-.19-.263-.05-.104-.076-.216-.076-.33-.002-.115.024-.229.075-.334.047-.101.118-.192.208-.265.094-.076.203-.135.321-.172.133-.04.272-.06.411-.06.084.001.168.007.251.02.102.015.203.038.301.068V1.84c-.007-.074-.053-.141-.123-.179-.095-.048-.204-.071-.313-.066-.098 0-.196.011-.291.032-.131.033-.26.075-.384.126l-.25-.424c.148-.083.307-.15.473-.196.163-.043.332-.063.502-.062zM2.854.317v.638H.953v.597h1.203V2.2H.953v1.323H.25V.319L2.854.317zm3.41.755c.176-.002.35.04.501.121.145.076.262.19.336.325.02.036.036.074.05.112.014.042.025.085.033.128.009.058.014.116.015.174v1.59h-.672V2.109c.008-.114-.034-.226-.115-.313-.088-.08-.208-.121-.331-.115-.236-.015-.442.146-.46.362v1.481h-.656V1.12h.67l-.013.114c.106-.052.216-.094.33-.128.102-.023.207-.035.312-.034zm5.897 0c.176-.002.35.04.502.121.14.077.254.19.326.325.02.036.036.074.05.112.013.042.024.085.033.128.008.058.013.116.015.174v1.59h-.662V2.109c.007-.114-.034-.226-.116-.313-.087-.08-.208-.121-.33-.115-.237-.015-.442.146-.46.362-.002.02-.002.041 0 .062v1.419h-.669V1.12h.67v.114c.105-.052.216-.094.33-.128.102-.023.207-.035.311-.034zm9.536-.753v3.204h-.667V.548l.667-.229zm-17.263.794v2.403H3.43V1.113h1.004zm13.195 0v2.403h-1V1.113h1zm-8.715 1.27c-.116-.005-.23.024-.326.085-.081.051-.128.138-.123.229.004.092.055.177.138.228.096.068.215.103.336.099.17-.002.335-.054.47-.149v-.378c-.096-.034-.193-.063-.292-.089-.066-.016-.134-.025-.203-.025zm10.178 0c-.115-.005-.229.025-.323.085-.083.051-.13.138-.126.229.004.092.055.177.138.228.096.068.215.103.336.099.17-.002.335-.054.47-.149v-.378c-.126-.043-.224-.073-.29-.089-.066-.016-.135-.024-.205-.025zM17.138.313c.142-.003.278.032.375.095.1.06.155.143.153.23.004.085-.052.168-.153.228-.206.126-.54.127-.747.001h-.003c-.101-.06-.157-.144-.153-.23-.005-.086.05-.17.153-.229.099-.062.234-.096.375-.096zm-13.192 0c.142-.003.279.032.376.095.099.06.153.144.15.23 0 .177-.239.321-.532.321-.138 0-.272-.034-.37-.093-.1-.06-.157-.143-.155-.229-.003-.086.053-.17.154-.229.1-.061.235-.096.377-.096zM26.281.257c.243-.002.483.043.705.133.22.09.416.224.574.391l-.517.426c-.116-.096-.25-.173-.393-.229-.128-.05-.267-.076-.407-.075-.135-.006-.27.021-.39.077-.09.035-.15.113-.154.202 0 .11.07.18.211.215l.078.023.065.014.095.022c.038 0 .093.021.163.032l.068.016.065.012.103.02.18.044c.09.02.17.039.236.057.06.018.118.039.176.062.046.02.09.043.133.069.041.026.08.055.117.087.411.362.422.96.024 1.336-.042.04-.089.077-.139.11-.14.096-.3.168-.469.212-.173.05-.354.076-.536.076-.289.002-.573-.062-.828-.185-.25-.122-.461-.3-.614-.517l.574-.37c.1.13.23.236.384.31.147.072.312.109.479.108.095 0 .19-.01.283-.03.082-.019.161-.049.233-.09.061-.034.114-.079.156-.132.035-.048.054-.103.055-.16.005-.093-.046-.181-.133-.23l-.038-.017c-.025-.012-.052-.02-.08-.026l-.18-.04c-.083-.017-.196-.044-.344-.079-.148-.034-.293-.066-.396-.093-.086-.024-.17-.051-.251-.083-.064-.023-.126-.053-.183-.089-.052-.035-.102-.073-.148-.114-.071-.07-.126-.153-.16-.243-.04-.101-.061-.208-.06-.316-.002-.132.029-.264.09-.384.059-.114.144-.215.25-.295.119-.086.254-.15.399-.19.17-.046.347-.068.524-.067zm12.756.824c.19 0 .376.043.541.126.166.082.307.2.412.343l-.41.41c-.066-.1-.15-.19-.25-.266-.085-.053-.185-.08-.288-.08-.078 0-.155.018-.223.053-.07.037-.13.087-.178.146-.056.069-.095.147-.118.229-.03.09-.044.185-.043.28 0 .094.014.188.045.279.025.082.067.16.123.228.05.062.113.112.186.15.072.035.153.053.235.052.114 0 .226-.032.319-.092.105-.065.191-.152.25-.254l.427.394c-.115.154-.269.28-.449.368-.175.087-.37.132-.57.133-.186-.002-.369-.044-.533-.124-.17-.077-.318-.188-.434-.325-.09-.105-.157-.223-.2-.35-.044-.14-.065-.286-.063-.432-.021-.341.11-.675.363-.927.116-.105.252-.189.401-.247.143-.061.299-.093.457-.094zm5.363-.004c.17-.002.34.02.502.064.183.055.36.127.526.215l-.25.46c-.246-.129-.523-.198-.805-.202-.218 0-.326.062-.326.188-.004.043.011.086.042.119.054.038.117.064.184.078l.168.046.305.08c.209.048.398.146.55.286.272.246.274.647.003.896l-.021.019c-.1.088-.221.155-.354.194-.163.04-.332.059-.501.055-.197.002-.394-.02-.584-.066-.183-.046-.357-.116-.517-.209l.25-.51c.147.078.303.14.465.184.15.043.306.067.464.068.094.005.188-.015.27-.057.062-.03.1-.091.098-.156 0-.028-.004-.055-.012-.082-.01-.027-.03-.05-.055-.067-.037-.022-.077-.04-.118-.054-.053-.019-.12-.037-.203-.06l-.336-.094-.209-.064c-.043-.013-.085-.03-.125-.05l-.1-.053c-.1-.06-.18-.143-.236-.24-.056-.092-.085-.196-.085-.302-.001-.098.024-.194.073-.281.05-.085.12-.159.205-.215.096-.064.204-.111.319-.14.134-.035.273-.052.413-.05zm-14.924-.005c.186-.002.369.049.521.146.163.106.29.251.369.42.049.09.084.186.105.285.023.114.033.23.033.346v.24h-1.555c-.003.133.048.263.143.364.085.093.213.147.346.144.157-.002.308-.059.421-.158l.48.332c-.12.121-.264.221-.425.295-.148.058-.309.087-.47.085-.173.003-.344-.027-.502-.087-.143-.057-.27-.142-.372-.25-.106-.116-.186-.25-.233-.395-.057-.168-.085-.343-.083-.518-.023-.348.112-.689.374-.942.23-.198.533-.307.848-.307zm12.279 0c.186-.003.369.049.522.146.163.106.29.251.368.42.049.09.084.186.105.285.024.114.035.23.033.346v.24h-1.555c-.002.133.049.263.143.364.085.093.213.147.346.144.158-.002.308-.058.422-.158l.481.332c-.121.121-.266.221-.426.295-.149.058-.31.087-.472.085-.172.003-.342-.027-.501-.087-.143-.057-.27-.142-.371-.25-.107-.116-.187-.25-.233-.395-.058-.168-.086-.343-.083-.518-.024-.348.111-.689.373-.942.23-.196.533-.306.848-.307zm-7.836.048l.622 1.538.622-1.538h.717l-.976 2.403h-.722L33.21 1.12h.71zm-1.557-.048c.178.001.351.048.501.135l-.205.657c-.053-.046-.113-.085-.178-.115-.057-.025-.12-.037-.183-.036-.216.006-.403.138-.464.327-.01.036-.018.073-.023.11v1.37h-.667V1.118l.67.002v.172c.08-.07.172-.129.273-.172.087-.033.181-.05.276-.048zm5.041.041v2.403h-1.015V1.113h1.015zm-7.995.51c-.108-.003-.212.034-.288.103-.082.083-.135.187-.15.298h.842c.001-.106-.04-.208-.118-.286-.072-.075-.177-.117-.286-.115zm12.28 0c-.108-.003-.212.034-.29.103-.081.083-.133.187-.147.298h.84c.002-.106-.04-.208-.118-.286-.072-.075-.177-.117-.286-.115zM36.902.313c.142-.003.28.032.376.095.102.06.158.143.154.23 0 .177-.239.321-.532.321-.138 0-.271-.034-.37-.093-.102-.06-.158-.143-.155-.229-.005-.086.052-.17.155-.229.097-.06.232-.095.372-.096zM70.238 1.12l.737 1.565.642-1.565h.722L70.97 4.406h-.707l.374-.9L69.51 1.12h.727zm-17.21.01V2.54c-.006.115.036.228.119.316.089.08.211.12.336.112.123.006.243-.035.333-.112.087-.084.132-.196.125-.312V1.13h.672v2.403h-.667l.005-.126c-.108.056-.222.102-.34.137-.102.025-.206.037-.312.037-.176.002-.35-.041-.501-.124-.146-.075-.264-.188-.339-.325-.022-.035-.038-.073-.05-.112-.014-.042-.025-.085-.032-.128-.011-.057-.016-.114-.015-.172V1.13h.667zm3.338-.816l.003.806h.647v.609h-.647v.846c-.015.105.013.21.077.298.063.054.147.083.234.078.055 0 .11-.011.16-.033.064-.031.123-.07.176-.116l-.096.652c-.072.038-.15.068-.23.09-.082.018-.167.028-.251.027-.102 0-.204-.015-.301-.046-.086-.028-.165-.071-.233-.126-.066-.053-.118-.12-.153-.192-.038-.08-.057-.166-.055-.252V1.73h-.46V1.12h.46V.543l.67-.229zm12.036 0l.003.806h.647v.609h-.647v.846c-.014.105.014.21.08.298.061.054.145.082.23.078.056 0 .11-.01.161-.033.064-.031.123-.07.176-.116l-.093.652c-.074.038-.152.068-.233.09-.082.019-.167.028-.251.027-.102 0-.202-.015-.298-.046-.087-.028-.167-.07-.236-.126-.065-.053-.118-.12-.153-.192-.037-.08-.056-.166-.055-.252V1.73h-.457V1.12h.457V.543l.67-.229zm-6.584.758c.155-.001.31.032.448.096.14.065.264.155.364.266.11.118.194.254.25.4.062.156.092.321.091.487.001.168-.03.334-.09.492-.057.145-.142.28-.251.396-.101.111-.227.202-.369.266-.288.128-.624.128-.912 0-.141-.065-.266-.155-.366-.266-.109-.117-.194-.251-.251-.396-.059-.157-.089-.321-.088-.487-.002-.17.028-.338.088-.499.057-.145.141-.279.25-.396.103-.11.23-.2.371-.263.145-.065.304-.097.465-.096zM58.435.319l.002.915c.107-.05.218-.093.331-.128.095-.023.193-.035.291-.034.171 0 .34.042.487.121.145.075.261.188.333.325.02.036.037.074.05.112.014.042.025.085.033.128.008.058.013.116.015.174v1.59h-.67V2.109c.008-.114-.033-.226-.115-.313-.082-.078-.197-.12-.316-.115-.12-.004-.237.038-.32.117-.084.084-.127.194-.121.307v1.419h-.67V.548l.67-.229zm6.484.753c.178.001.352.048.502.135l-.203.657c-.054-.046-.115-.084-.18-.115-.057-.023-.118-.035-.179-.034-.216.007-.402.138-.464.327-.01.036-.017.073-.02.11-.003.056-.003.113 0 .17v1.2h-.667V1.12h.662v.172c.08-.07.173-.129.273-.172.088-.033.181-.05.276-.048zM50.501.317l1.454 3.203h-.77l-.32-.72h-1.402l-.321.72h-.767L49.827.317h.674zm16.47.796v2.403h-.997V1.113h.997zm-5.148.545h-.005c-.147 0-.282.07-.36.183-.096.142-.143.308-.135.476-.008.169.038.337.134.482.073.116.21.186.355.186.144-.002.275-.074.344-.188.095-.143.143-.308.136-.476 0-.09-.012-.179-.038-.265-.02-.074-.055-.145-.1-.208-.038-.056-.088-.104-.148-.14-.055-.032-.118-.05-.183-.05zM50.165 1.23l-.411.94.822-.009-.41-.931zM66.483.312c.142-.002.278.033.375.096.1.06.156.143.154.23.003.085-.053.168-.154.228-.098.062-.234.096-.375.094-.14.002-.277-.032-.374-.094-.1-.06-.156-.143-.154-.229-.003-.086.052-.17.154-.229.098-.06.234-.095.374-.096z" transform="translate(20 17) translate(0 35)"/>
        </g>
    </g>
</svg>
