<svg xmlns="http://www.w3.org/2000/svg" width="160" height="80" viewBox="0 0 160 80">
    <g fill="#85ACB0">
        <path d="M15.938 44.61l7.777-21.326-22.067 7.514c-2.51.855-.888-1.185-.888-1.185l3.412-4.29c1.622-2.041 4.283-2.041 4.283-2.041s-2.661 0-4.283-2.04L.76 16.952s-1.622-2.04.89-1.185l22.065 7.516v14.748s0 2.573-2.11 4.14l-4.44 3.297s-2.11 1.568-1.225-.859m7.776-36.074v14.747L15.938 1.958c-.884-2.426 1.227-.86 1.227-.86l4.439 3.297c2.11 1.568 2.11 4.141 2.11 4.141M28.924 35.615h7.819V18.84c1.397-1.036 3.21-1.606 4.71-1.606 2.9 0 3.21 2.07 3.21 4.454v13.927h7.82V18.839c1.398-1.035 3.157-1.605 4.66-1.605 2.898 0 3.262 1.967 3.262 4.349v14.032h7.816v-16.05c0-6.836-4.193-9.062-8.697-9.062-2.537 0-5.643 1.088-8.595 3.47-1.294-2.175-3.572-3.47-6.68-3.47-2.95 0-5.747 1.399-8.025 3.108l-.723-2.484h-6.575v24.488h-.002zm53.262 12.27c9.32 0 13.72-3.985 13.72-8.386 0-9.165-16.101-5.18-16.101-9.32 0-.26 0-.518.207-1.088.724.208 1.76.311 2.795.311 6.265 0 10.667-3.573 10.667-9.216 0-2.02-.623-3.935-1.761-5.437.414-.156 1.14-.208 1.45-.208.62 0 1.397.105 2.07.26l1.45-5.387c-.414-.05-1.242-.102-1.76-.102-3.52 0-5.126.88-6.524 2.176-.207.205-.363.31-.622.154-1.035-.62-2.847-1.14-5.125-1.14-7.56 0-10.614 4.92-10.614 9.218 0 3.21 1.45 6.213 4.298 7.714-1.968 1.087-3.263 2.795-3.263 4.504 0 1.243.57 2.434 1.605 3.004-2.226.775-4.349 2.795-4.349 5.642 0 4.09 4.142 7.3 11.857 7.3m1.139-5.28c-3.883 0-6.11-1.398-6.11-3.417 0-1.088.57-1.866 1.035-2.28 2.486 1.295 10.305.57 10.305 3.47 0 1.501-2.486 2.225-5.23 2.225m-.57-18.898c-2.33 0-3.469-1.863-3.469-3.728 0-2.588 1.503-3.78 3.367-3.78 2.381 0 3.573 1.968 3.573 3.833 0 2.433-1.5 3.675-3.469 3.675m30.78 11.909h6.421c-.414-1.346-.414-3.314-.414-4.816V19.821c0-5.954-3.107-9.32-10.667-9.32-3.883 0-7.197.933-10.097 2.381l2.434 4.921c1.761-.933 4.143-1.503 6.214-1.503 2.64 0 4.298.932 4.298 3.211v.259l-3.884.155c-2.485.104-4.711.57-6.472 1.5-2.538 1.348-4.091 3.366-4.091 6.68 0 4.71 3.52 8.025 8.336 8.025 3.054 0 5.177-1.138 6.833-2.588l1.088 2.07.001.001zm-1.812-10.925v4.557c-.57.362-1.864.88-3.573.88-1.863 0-3.053-.83-3.053-2.538 0-1.035.362-1.656 1.086-2.123.674-.414 1.658-.621 2.9-.674l2.64-.103v.001z" transform="translate(20 16)"/>
    </g>
</svg>
