<svg xmlns="http://www.w3.org/2000/svg" width="160" height="80" viewBox="0 0 160 80">
    <g fill="#85ACB0">
        <path d="M28.272 79.934c-.58-.255-1.202-1.417-1.207-2.262 0-.128-.033-.274-.076-.345-.067-.1-.076-.203-.053-.67.048-.889.248-1.38.842-2.032.442-.486.518-.897.299-1.591-.086-.274-.356-.798-.494-.964-.114-.137-.071-.18-.656.581-.39.506-.433.581-.433.76 0 .388-.19 1.493-.294 1.715-.128.274-.523.67-.803.817-.114.057-.433.194-.704.298l-.49.193-.094.236c-.219.558-.85 1.224-1.43 1.512-.276.137-.386.165-.637.165-.38 0-.542-.08-.656-.326l-.086-.194-.46.015c-.429.01-.471 0-.652-.118-.247-.161-.38-.44-.442-.912-.024-.203-.057-.378-.066-.387-.01-.01-.162-.038-.333-.066-.813-.114-1.307-.67-1.35-1.53-.014-.336-.005-.402.105-.6l.119-.222-.09-.208c-.143-.312-.162-.553-.077-.84.143-.497.542-.804 1.15-.889.195-.028.352-.08.404-.132.048-.047.157-.26.252-.477.243-.58.385-.793.613-.926.418-.24 1.393-.335 1.958-.188.357.09.647.255.955.547l.248.232.337-.043c.4-.047.827-.004 1.065.109.166.075.451.354.708.685l.128.16.276-.297c.36-.397.57-.728.636-1.025.057-.26.067-.236-.408-1.507-.124-.335-.186-.58-.2-.845l-.028-.368-.276.028c-.152.019-.456.01-.68-.024-.356-.052-.418-.047-.513.024-.062.042-.214.151-.347.24-.499.35-1.369.516-2.333.445-.613-.048-.913-.147-1.046-.35-.071-.108-.076-.156-.028-.34.033-.113.047-.227.038-.245-.015-.02-.2-.137-.418-.265-.666-.382-1.108-.94-1.17-1.464-.028-.283.072-.434.343-.505l.204-.052-.133-.33c-.219-.525-.261-.808-.171-1.12.138-.468.451-.647.974-.567.27.047.414.118.575.288l.095.104.105-.222c.133-.27.2-.274.646-.052.223.109.428.265.627.468.29.302.295.307.385.217.266-.264.917-.109 1.402.335.304.279.423.5.594 1.124.081.293.167.577.19.624.18.335.68.302.96-.066.19-.246 1.75-3.09 1.75-3.188 0-.024-.818-.057-1.816-.071-2.59-.047-5.798-.165-6.136-.227-.717-.127-1.245-.652-1.354-1.336-.119-.732.266-1.46.936-1.771.247-.114.31-.123.932-.123.366 0 1.501.033 2.519.07 2.514.095 8.872.095 11.239 0 .955-.037 2.024-.07 2.376-.07.608 0 .656.01.913.132.351.17.712.562.845.921.134.345.114.907-.033 1.242-.18.401-.594.765-1.022.897-.242.08-2.143.17-4.838.237-1.568.037-2.485.075-2.547.108-.19.095-.641.661-1.178 1.469-.295.444-.552.85-.57.907-.02.061-.005.16.037.24.238.459 1.36 1.38 1.683 1.38.085 0 .095-.052.119-.765.023-.874.095-1.176.399-1.686.218-.369.846-1.044.97-1.044.213 0 .541.415.655.836l.057.203.414-.425c.456-.463.822-.67 1.435-.817.622-.151 1.606-.222 1.753-.133.081.052.043.685-.066 1.091-.038.142-.057.265-.048.274.01.01.4-.052.865-.132 1.027-.184 1.535-.222 1.797-.132.166.057.19.08.175.198-.028.26-.313.945-.518 1.252-.118.17-.223.326-.232.345-.01.014.1.066.242.113.375.113.741.392.97.732.237.354.256.553.066.704-.076.056-.375.236-.675.401-.741.411-1.093.5-2.105.534-.442.014-.799.023-.799.028 0 .005.043.118.095.255.129.33.129.78.005.902-.123.123-.736.165-1.915.132-1.012-.023-1.26-.07-1.834-.34-.433-.203-.818-.496-1.16-.878-.261-.302-.261-.302-.97-.557-.831-.298-1.15-.454-1.444-.685l-.214-.17-.014.58c-.029 1.295.356 2.022 1.264 2.395 1.23.506 1.42.595 1.568.737.185.184.21.453.062.642l-.095.118.276.133c.19.09.318.122.399.099.076-.02.247-.184.46-.454.186-.236.438-.5.561-.59.466-.34 1.265-.586 1.935-.59.157 0 .39-.033.518-.071.717-.217 1.62.099 1.99.69.091.146.144.311.167.514l.034.298.27.061c.884.203 1.231.742 1.013 1.577-.067.256-.067.293.023.567.224.7.048 1.54-.437 2.055-.252.274-.523.401-.855.401h-.262l-.033.392c-.043.524-.138.789-.39 1.067-.26.289-.546.407-.945.402-.77-.014-1.569-.491-2.049-1.228-.118-.184-.36-.44-.684-.713-.979-.836-1.373-1.455-1.668-2.63-.119-.478-.176-.629-.285-.733-.204-.203-.309-.212-.423-.033-.157.255-.456.326-.87.213-.104-.029-.195-.043-.204-.029-.01.01.119.227.29.477.646.954.836 1.427.926 2.277.072.666-.08 1.757-.242 1.728-.052-.004-.1.071-.157.26-.128.41-.37.888-.694 1.37-.404.614-.717.784-1.121.609zm.556-.326c.261-.217.775-1.077.95-1.587.129-.368.114-.491-.08-.746-.095-.128-.21-.298-.248-.378-.042-.085-.085-.156-.1-.151-.014 0-.175.18-.356.401-.18.218-.351.397-.39.397-.033 0-.123-.052-.204-.118-.133-.113-.19-.24-.266-.562l-.028-.137-.224.213c-.123.118-.294.255-.38.302-.2.113-.228.231-.152.647.104.586.29 1.03.58 1.388.337.425.65.544.898.331zm-6.268-1.653c.356-.175.822-.605 1.088-1.01.195-.303.228-.383.256-.685.015-.19.072-.501.124-.695.052-.189.086-.359.071-.368-.01-.01-.195.014-.413.061-.404.08-.808.071-1.05-.023l-.133-.048.123-.344c.147-.416.304-.695.523-.935l.161-.18-.209-.123c-.252-.146-1.012-.968-1.055-1.138-.014-.066-.004-.146.024-.184.095-.109.433-.175.874-.165l.438.009-.015-.444c-.014-.44-.019-.444-.19-.623-.233-.236-.674-.449-1.069-.515-.475-.076-1.202.038-1.54.24-.147.095-.195.18-.584 1.035-.09.189-.205.368-.257.397-.057.028-.27.08-.48.113-.456.076-.713.232-.865.539-.142.273-.138.514.014.85l.124.274-.147.297c-.176.359-.18.53-.029.959.195.557.518.793 1.14.855.514.047.485.019.51.486.028.515.151.817.375.935.128.062.228.071.522.047.47-.037.59.01.704.274.052.114.119.218.157.237.137.056.56-.005.808-.128zm13.32.066c.257-.113.47-.368.57-.67.067-.194.082-.34.058-.69l-.024-.44h.4c.232 0 .465-.028.555-.065.357-.147.656-.624.756-1.2.057-.335.057-.321-.147-1.072-.024-.095-.015-.231.023-.378.086-.33.081-.713-.01-.869-.123-.208-.484-.42-.802-.482-.447-.08-.485-.118-.504-.529-.02-.297-.043-.377-.157-.524-.162-.212-.499-.434-.765-.51-.38-.104-.98-.038-1.112.118-.024.033-.071.284-.095.553-.029.274-.1.623-.152.784l-.1.288.309.302c.256.25.323.35.385.567.133.458.028.58-.542.633l-.314.028.157.316c.19.378.262.737.243 1.2l-.015.345-.242-.01c-.133-.004-.352-.052-.49-.108-.318-.123-.323-.123-.299.052.014.08-.005.33-.033.557-.053.354-.048.43.024.595.128.312.39.628.703.845.584.416 1.202.553 1.62.364zm-5.693-1.8c-.028-.906-.195-1.383-.76-2.205-.319-.463-.509-.831-.647-1.266-.061-.179-.161-.425-.232-.543-.143-.25-.614-.755-.704-.755-.033 0-.095.047-.133.099-.066.094-.052.123.162.43.546.774.75 1.723.499 2.319-.038.094-.228.354-.419.576-.365.42-.565.765-.646 1.114-.052.213-.071 1.035-.028 1.035.014 0 .114-.057.218-.128.21-.137.38-.364.59-.77l.133-.26.066.156c.033.085.086.331.114.544.029.212.071.443.1.514l.048.128.228-.26c.133-.151.29-.406.37-.595l.138-.33.124.155c.066.09.17.288.233.44.057.155.194.368.294.472l.186.193.042-.212c.024-.118.034-.5.024-.85zm3.042.062c.019-.075.033-.302.028-.505-.005-.35-.019-.406-.223-.794-.119-.226-.2-.415-.18-.415.018 0 .227.15.46.34.447.35.732.505.922.51.114 0 .114-.005.08-.364-.032-.406-.17-.755-.422-1.067-.252-.307-.518-.742-.456-.742.033 0 .166.071.3.156.227.142.26.151.64.142.224-.01.424-.033.452-.062.029-.028-.005-.136-.095-.316-.147-.288-.475-.562-.741-.614-.072-.014-.133-.038-.133-.052 0-.014.071-.132.161-.264.219-.326.314-.676.314-1.148 0-.387 0-.392-.119-.392-.257 0-.87.156-1.188.302-.409.19-.608.36-.984.841-.47.604-.637.638-1.35.274-.256-.128-.484-.236-.513-.236-.023 0-.109-.052-.19-.109-.237-.18-.599-.378-.632-.345-.057.057 1.003 1.072 1.245 1.195.457.227.533.34.713 1.049.271 1.062.537 1.525 1.298 2.262.275.264.518.482.541.482.02 0 .053-.057.072-.128zm-8.536-.345c.476-.17.794-.368 1.041-.651.219-.246.29-.458.409-1.228.071-.44.076-.558.024-.695-.057-.16-.053-.17.175-.439.3-.345.704-.897.922-1.26.5-.823.804-.723 1.654.542.295.44.509.709.59.747.166.075.418.07.527-.005.157-.118.048-.307-.447-.789-.318-.307-.484-.505-.522-.623-.181-.543.18-.605.917-.151.309.188.37.212.49.174.19-.066.18-.24-.02-.373-.085-.056-.427-.212-.76-.345-1.117-.453-1.34-.595-1.63-1.043-.285-.44-.38-.822-.437-1.696-.024-.43-.034-.959-.015-1.171.034-.387.034-.392.162-.392.11 0 .133.028.185.212.114.435.585.76 1.659 1.162.394.147.546.184.68.16.17-.027.175-.023.346.251.362.586 1.032 1.058 1.768 1.261.347.095 1.63.147 2.367.095l.508-.033v-.218c0-.278-.209-.732-.432-.935-.09-.08-.261-.208-.385-.274-.21-.118-.219-.137-.171-.245.028-.062.09-.114.128-.114.043 0 .247.114.456.246l.376.25.789-.004c1.031 0 1.221-.043 1.972-.426.874-.439.832-.401.694-.656-.138-.26-.423-.524-.699-.642-.157-.071-.96-.222-1.23-.232-.024 0 .113-.104.308-.231.195-.123.414-.284.485-.354.124-.128.513-.945.513-1.082 0-.132-.29-.142-1.007-.033-1.136.17-1.507.279-1.72.515-.105.113-.167.123-.286.038-.076-.057-.076-.076.034-.293.147-.288.299-.813.342-1.143.033-.307.01-.317-.656-.25-1.198.118-1.74.401-2.405 1.251-.375.477-.527.638-.527.562-.005-.023-.034-.27-.067-.552-.047-.383-.09-.548-.176-.671-.161-.232-.233-.246-.394-.061-.789.911-.88 1.161-.927 2.493l-.028.921-.124.014c-.066.01-.147-.019-.185-.056-.034-.043-.095-.076-.138-.076-.513-.01-1.953-1.36-1.953-1.837 0-.208.541-1.072 1.245-1.974l.375-.487h-1.221l-.613 1.148c-1.145 2.154-1.321 2.418-1.673 2.564-.228.095-.58.08-.765-.028-.214-.132-.319-.321-.442-.822-.143-.58-.28-.883-.513-1.105-.21-.203-.547-.382-.79-.42-.208-.033-.294.07-.332.41-.019.17-.057.284-.09.284-.105 0-.295-.255-.357-.467-.095-.331-.827-.964-1.026-.888-.071.028-.166.316-.166.52 0 .07-.02.127-.048.127-.128 0-.3-.133-.409-.321-.138-.237-.332-.336-.66-.35-.176-.01-.238.014-.338.109-.304.302-.214.906.238 1.634.123.193.123.198.033.25-.052.024-.166.047-.261.047-.423 0-.5.151-.29.567.223.44.527.699 1.321 1.129.233.127.356.222.333.255-.02.033-.086.127-.152.212-.214.288-.034.407.732.477.57.052 1.097.01 1.54-.118.341-.099.494-.174.807-.415.285-.213.219-.203 1.217-.166.337.015.48 0 .665-.07.361-.137.699-.378.832-.59.1-.166.138-.19.237-.166.157.033.162.042.124.184-.048.18-.342.482-.642.657-.2.113-.275.188-.309.307-.07.25.034.732.314 1.445.147.363.28.75.3.86.08.486-.176 1-.865 1.737-.4.43-.343.44-.799-.141-.385-.492-.575-.59-1.102-.586-.476.005-.6.042-.651.189-.067.189.004.44.209.737l.185.274-.119.014c-.066.01-.266-.029-.446-.08-.328-.1-.88-.128-1.065-.057-.086.033-.043.09.328.467.423.44.432.449.97.581l.204.047-.385.397c-.285.288-.423.477-.532.709-.115.255-.134.33-.081.363.1.071.656 0 1.036-.127.19-.066.375-.118.413-.118.095 0 .076.245-.057.779-.066.26-.119.486-.119.51 0 .057.076.038.48-.109zm2.876-13.214c.1-.062 1.644-2.602 1.61-2.654-.033-.052-1.15-.066-1.283-.02-.042.02-.242.28-.437.582-.195.302-.366.557-.375.566-.029.033-.257-.099-.257-.146 0-.024.138-.25.304-.51.238-.364.29-.472.233-.491-.038-.014-.266-.029-.508-.029-.362 0-.457.015-.518.085-.038.043-.438.643-.88 1.332l-.812 1.252.247.028c.366.043 2.614.047 2.676.005zm6.62-.057c.066-.033 1.573-2.668 1.573-2.748 0-.062-1.198-.043-1.331.023-.095.047-.461.59-.946 1.398-.028.047-.062.052-.142.01-.053-.034-.1-.076-.1-.095 0-.024.171-.321.38-.656.21-.34.38-.629.38-.647 0-.02-.233-.029-.523-.015-.441.015-.537.029-.613.109-.076.076-1.017 1.644-1.516 2.522l-.118.203 1.444-.033c.794-.019 1.474-.052 1.512-.07zm-9.871-.033c.095-.113 1.597-2.437 1.63-2.527.019-.052 0-.085-.057-.099-.048-.014-.737-.038-1.535-.056l-1.45-.033-.898 1.327c-.499.727-.893 1.336-.879 1.346.01.01.28.037.594.056l.575.033.366-.595c.357-.576.37-.595.485-.543.062.029.114.066.114.08 0 .015-.138.25-.309.525-.257.42-.29.5-.223.529.042.019.404.033.798.033.627.004.727-.005.789-.076zm11.567-.038c.033-.01.243-.278.47-.6.234-.32.438-.6.457-.623.057-.066.29.071.261.147-.014.037-.176.273-.36.533-.181.255-.334.482-.334.5 0 .02.167.02.376.006.442-.029.76-.156 1.017-.402.309-.293.39-.491.39-.954 0-.453-.086-.675-.38-.968-.3-.293-.51-.373-1.08-.392l-.503-.019-.114.18c-.162.255-1.407 2.479-1.44 2.578-.029.071.019.076.58.057.332-.014.632-.033.66-.043z" transform="matrix(1 0 0 -1 52 80)"/>
        <path d="M21.847 77.053c.18-.175.285-.373.494-.935.076-.203.152-.369.171-.369.052 0 .048.515-.01.714-.104.373-.46.75-.708.75-.109 0-.109-.004.053-.16zM20.62 75.494c.096-.085.243-.311.333-.5.162-.354.219-.36.219-.02 0 .37-.257.681-.556.681h-.162l.167-.16zM18.843 73.355c0-.109.205-.34.361-.416.266-.127.799-.127.994 0l.137.095-.375.028c-.447.033-.699.1-.917.232-.171.103-.2.113-.2.061zM21.476 71.933c-.029-.018-.119-.137-.204-.26-.086-.127-.21-.25-.271-.278-.148-.066-.143-.123.01-.16.19-.048.346.051.45.288.1.221.11.472.015.41zM36.066 75.99c-.167-.099-.342-.42-.385-.699l-.029-.18.11.095c.095.085.617.808.617.855 0 .052-.18.01-.313-.07zM36.66 73.534c-.447-.028-.551-.06-.694-.236-.033-.037-.062-.099-.062-.132 0-.052.024-.047.11.01.066.042.318.085.641.113.537.047.656.08.77.212.066.085.086.085-.765.033zM34.859 71.768c0-.406.57-.68 1.03-.5l.134.051-.119.038c-.066.024-.247.076-.404.118-.214.062-.332.128-.46.265l-.181.189v-.16zM32.61 68.221c-.099-.038-.26-.123-.36-.189-.167-.113-.214-.122-.723-.122-.294 0-.589-.015-.646-.029-.171-.047-.076-.113.157-.113.39 0 .432-.062.59-.827.051-.26.113-.486.137-.51.062-.061.147.236.147.506-.005.132-.043.354-.09.49-.076.228-.08.246-.005.246.152 0 .965-.231 1.027-.292.033-.033.114-.312.18-.614.133-.638.247-.917.485-1.205.18-.217.523-.472.57-.425.015.014-.057.151-.161.303-.266.392-.38.628-.58 1.218-.095.283-.19.557-.214.605-.043.099-.157.136 1.354-.463.713-.284 1.236-.463 1.445-.496.319-.052.466-.033.285.028-.27.1-1.097.463-1.178.52-.09.061-.076.066.138.066.323.004.879.08 1.045.141.124.048.133.062.062.1-.043.023-.238.056-.433.07-.37.034-.68-.018-.974-.155-.152-.071-.166-.071-.475.08-.442.212-1.055.444-1.52.571l-.39.104.403.151c.461.175.5.199.404.26-.104.066-.47.052-.68-.019zM22.693 67.697c0-.094.49-.397.926-.571l.19-.076-.484-.236c-.461-.222-.49-.227-.618-.16-.494.25-1.454.16-1.887-.18-.133-.109-.076-.128.19-.076.129.029.556.062.946.076l.713.033-.428-.302c-.437-.312-1.202-1.016-1.15-1.063.014-.014.152.057.304.156.323.217.699.44.746.44.015 0-.033-.128-.114-.284-.17-.33-.166-.33-.047-.33.142 0 .418.301.48.528.028.113.071.25.09.302.033.09.509.373 1.274.77.104.057.104.047-.038-.212-.133-.25-.176-.397-.12-.397.186 0 .562.401.619.661.042.184.076.208.57.354.238.071.451.147.475.175.067.07-.637.014-.974-.08-.252-.066-.266-.066-.428.042-.332.218-.423.26-.708.36-.276.089-.527.122-.527.07zM21.67 58.6c-.84-.155-1.23-.297-1.615-.585-.285-.212-.356-.245-.356-.17 0 .057-.376.472-.485.53-.19.103-.566.127-.95.06-.637-.113-1.265-.448-1.602-.868-.143-.175-.152-.204-.086-.27.057-.061.1-.061.247-.014.224.076.442.029.675-.137.271-.193.366-.42.338-.803-.038-.538-.276-.85-.851-1.143-.447-.222-.927-.325-1.511-.325-.395 0-.547.023-.704.094-.247.109-.256.17-.038.203.29.047.5.213.637.5.11.237.124.322.124.808 0 .52-.005.558-.157.865-.185.373-.409.562-.775.647-.689.165-1.625-.203-2.043-.803-.247-.354-.338-.652-.361-1.186-.024-.415-.015-.486.128-.888l.147-.434-.765-1.639c-.418-.902-1.07-2.286-1.44-3.08l-.675-1.44-.423-.033c-1.107-.085-1.82-.6-2.057-1.502-.12-.458-.11-1.242.028-1.719.21-.741.485-1.157.917-1.37.675-.335 1.801.048 2.277.775.085.132.166.236.185.236.019 0 .086-.217.147-.481.09-.397.114-.619.114-1.172 0-.77-.057-1.024-.318-1.464-.361-.595-.75-.453-.86.312-.029.213-.076.368-.11.383-.114.042-.489-.18-.689-.402-.565-.637-.717-1.497-.375-2.153.143-.284.138-.355-.038-.36-.1 0-.442-.188-.713-.387-.47-.35-1.07-.552-1.43-.486-.138.023-.252.113-.561.44-.214.226-.4.4-.414.386-.01-.014-.076-.212-.142-.444-.285-.972-.076-1.54.75-2.03.595-.355 1.308-.515 2.334-.515.651-.005.741.005 1.046.113.185.066.57.265.855.435.29.174.528.297.537.274.029-.08-.361-.907-.613-1.309-.143-.222-.437-.628-.66-.906-.443-.553-.395-.544-.495-.095-.08.345-.49.6-.97.605-1.13.004-1.6-1.38-.722-2.135l.224-.194-.205-.212c-.285-.293-.366-.562-.342-1.115.038-.755.3-1.067 1.003-1.185.095-.014.176-.038.176-.052 0-.014-.086-.17-.19-.345-.423-.723-.561-1.327-.604-2.602l-.028-.879-.267.095c-.147.047-.451.099-.68.113l-.413.019.072-.288c.104-.453.328-.982.608-1.445.138-.232.247-.435.242-.44-.01-.009-.128.005-.261.034-.261.056-1.046.07-1.046.018 0-.014.053-.16.12-.32.061-.161.199-.591.308-.955.105-.368.2-.699.219-.736.019-.057-.029-.08-.228-.104-.632-.085-1.032-.355-1.293-.874-.219-.44-.285-.775-.252-1.299.048-.713.252-1.152.765-1.62.347-.312.675-.491 1.174-.642.223-.066.418-.123.433-.123.019 0-.029.118-.11.265-.176.335-.195.736-.038.935.053.066.129.122.167.122.133 0 .423-.184.827-.519.223-.184.522-.406.67-.486l.27-.152-.228-.245c-.451-.491-.689-1.214-.655-2.017.014-.406.038-.52.147-.75.076-.147.152-.27.176-.27.019 0 .057.09.085.203.1.378.528.642 1.041.647.2 0 .466-.052.836-.16.694-.213 1.027-.265 1.692-.265.495 0 .537-.005.504-.08-.019-.047-.043-.27-.057-.496-.048-.727.233-1.27.708-1.38.119-.028.128-.013.2.223.085.297.2.41.56.576.229.104.38.132.951.165.375.024 1.088.048 1.583.048 1.297 0 2.005.127 2.561.448.119.071.413.326.656.572.242.245.451.444.466.439.038 0 .427-.505.427-.548-.004-.019-.085-.094-.19-.165-.27-.19-.437-.496-.466-.883-.023-.369.081-.638.319-.803l.142-.1-.1-.221c-.118-.27-.16-.685-.09-.936.114-.43.385-.722.989-1.062l.237-.137-.004.41c-.005.468.076.662.351.846.143.1.214.109.732.109h.58l.105-.355c.09-.307.142-.392.408-.67.167-.18.419-.387.561-.472.228-.137.827-.336.875-.289.009.015-.005.095-.029.185-.076.264-.057.618.048.784.209.344.541.373 1.14.104.328-.147.395-.161.813-.161h.456l-.005-.567c-.005-.552 0-.576.143-.826.47-.827 1.925-1.011 2.628-.33.37.358.499.835.4 1.463l-.044.26h.476c.442 0 .508.014.836.16.437.199.69.232.898.128.3-.156.404-.51.29-.996-.024-.104-.033-.194-.024-.204.038-.037.632.147.832.26.532.312.988.898 1.07 1.389l.033.184h.432c.722-.005.974-.104 1.145-.449.067-.137.095-.283.095-.552 0-.203.005-.369.015-.369.066 0 .513.265.712.42.176.138.286.28.4.501.137.279.147.336.128.633-.014.194-.067.411-.124.524l-.095.199.181.18c.442.438.352 1.213-.2 1.666l-.2.166.21.25c.114.142.218.264.223.279.01.009.228-.19.485-.444.537-.539.703-.647 1.193-.803.513-.16 1.026-.208 2.656-.241 1.25-.028 1.483-.043 1.75-.123.389-.123.665-.373.707-.656.038-.232.057-.246.257-.19.21.062.361.209.513.497.11.207.124.292.129.684 0 .246-.02.52-.038.6l-.043.156h.542c.66 0 .998.052 1.696.265.366.108.632.16.832.16.508-.005.94-.27 1.036-.647.028-.113.066-.203.085-.203.024 0 .1.123.176.274.124.255.133.302.129.883 0 .543-.015.657-.129.982-.138.397-.37.79-.575.973-.066.066-.123.133-.123.147 0 .019.128.113.28.208.152.094.447.311.651.481.632.525.85.59 1.008.298.09-.165.042-.661-.081-.87-.052-.094-.1-.188-.1-.212 0-.052.69.128.922.246.504.255.97.704 1.188 1.152.447.907.314 2.05-.309 2.669-.237.236-.485.35-.912.42-.205.038-.319.076-.304.113.009.029.114.373.223.76.11.393.252.822.314.964.061.137.114.27.114.293 0 .061-.756.052-1.046-.01-.133-.028-.252-.042-.261-.033-.01.005.085.175.204.369.276.449.5.963.618 1.417l.095.354-.309.014c-.2.01-.428-.019-.66-.085-.195-.052-.362-.094-.376-.094-.014 0-.024.174-.024.392-.005.623-.085 1.549-.166 1.917-.1.42-.266.84-.48 1.19-.09.147-.162.279-.162.293 0 .019.081.043.18.057.733.118 1.037.538.999 1.384-.02.462-.09.651-.37.963l-.177.198.181.133c.404.292.59.807.451 1.275-.166.566-.575.888-1.145.888-.532-.005-.836-.227-.974-.714l-.08-.297-.395.496c-.219.269-.49.637-.609.812-.228.354-.598 1.105-.655 1.332-.034.137-.034.137.08.066.362-.227.732-.434 1.046-.585.475-.222 1.136-.303 1.896-.218 1.597.17 2.614.86 2.614 1.776 0 .279-.19 1.082-.276 1.167-.028.028-.18-.104-.39-.336-.418-.453-.522-.5-.978-.43-.366.057-.661.194-1.027.463-.27.199-.613.388-.713.388-.17.004-.185.075-.066.316.38.75.218 1.62-.423 2.258-.247.245-.566.406-.642.325-.019-.023-.062-.212-.09-.42-.043-.326-.071-.397-.195-.505-.171-.156-.276-.166-.447-.033-.347.274-.58 1.11-.537 1.95.02.482.2 1.45.266 1.44.015 0 .124-.132.243-.292.37-.496.917-.784 1.578-.827.332-.019.394-.01.632.104.423.208.731.661.936 1.384.142.51.142 1.365-.005 1.809-.18.567-.49.916-1.017 1.162-.318.141-.822.255-1.16.255h-.251l-.114.226c-.181.355-2.695 5.734-2.747 5.876-.038.104-.02.193.08.448.338.836.143 1.837-.465 2.414-.4.373-.908.576-1.44.576-.523 0-.889-.227-1.122-.694-.133-.27-.157-.374-.17-.747-.025-.472.06-.878.232-1.114.1-.142.442-.326.604-.326.152 0 .128-.08-.048-.175-.219-.118-1.26-.118-1.697.005-.988.27-1.473.798-1.42 1.544.023.345.204.59.532.723.195.085.247.09.442.038.19-.052.233-.052.294.014.067.061.053.09-.114.269-.432.449-.618.567-1.23.77-.257.085-.457.118-.718.118-.447 0-.642-.09-.941-.43l-.219-.245-.2.174c-.327.298-.717.449-1.639.628-.461.09-.865.152-.903.137-.085-.033-.085-.269.005-.609.038-.151.071-.293.071-.312 0-.018-.157-.009-.342.029-.214.042-.542.061-.846.052-.547-.02-.817-.109-1.145-.364l-.167-.137-.261.16c-.366.227-.77.378-1.335.501-.447.095-.618.104-1.94.109-1.981 0-2.57-.095-3.402-.543l-.352-.184-.242.16c-.133.09-.352.199-.485.236-.285.085-.908.095-1.369.02-.18-.034-.337-.048-.351-.034-.01.01.014.19.057.397.085.406.066.543-.067.534-.047-.005-.404-.067-.798-.142zm.576-.429c-.133-.567-.604-1.185-1.012-1.341-.143-.057-.2-.104-.181-.147.014-.037.024-.099.024-.137 0-.052.033-.061.133-.037.2.047.451.226.808.58.28.28.375.34.632.42.432.133.774.161 1.178.105.637-.09.989-.369 1.298-1.016.218-.472.242-.991.066-1.558-.152-.482-.318-.676-.727-.827-1.031-.392-2.053.1-2.058.983 0 .32.1.552.295.67.128.08.219.095.485.085.294-.014.337-.033.46-.17.124-.137.139-.189.139-.458 0-.302.038-.359.17-.269.082.052.162.227.162.35 0 .06-.057.226-.123.358-.176.355-.414.482-.88.482-.612 0-.87-.094-3.274-1.218-2.229-1.035-2.79-1.252-3.726-1.436-1.364-.265-2.319-.047-2.994.675-.513.548-.722 1.105-.684 1.81.052.925.684 1.581 1.616 1.666.385.038.59-.014.798-.203.461-.415.542-1.483.143-1.922-.124-.142-.157-.151-.509-.165-.309-.01-.399 0-.523.08-.118.076-.156.132-.156.24 0 .166-.171.294-.243.185-.166-.255-.057-.491.328-.694.157-.085.319-.203.357-.265.042-.061.2-.174.351-.245.238-.118.342-.137.775-.151 1.16-.038 2.314.486 2.614 1.18.223.515.17 1.058-.129 1.408-.166.189-.465.378-.603.378-.157 0-.114.103.095.236.466.293 1.107.448 1.535.373.171-.033.257-.085.4-.236.256-.284.26-.35.032-.723-.218-.354-.332-.638-.332-.817 0-.094.019-.113.123-.1.1.01.138.058.2.251.233.68.836 1.313 1.487 1.554.219.08 1.212.298 1.407.307.1.005.1 0 .043-.24zm13.563.07c.3-.06.656-.164.794-.226.475-.212 1.003-.807 1.226-1.393.11-.283.142-.33.242-.33.081 0 .114.028.114.094 0 .175-.18.614-.37.892-.176.265-.18.284-.114.411.19.369.423.501.893.501.295-.005.414-.033.798-.194.252-.104.509-.231.575-.278l.12-.09-.286-.104c-.518-.189-.803-.652-.746-1.233.052-.576.366-1.01.936-1.298.594-.298.946-.378 1.664-.378.603 0 .655.01.912.132.147.07.3.18.342.246.038.061.205.18.361.264.324.17.39.26.39.5 0 .213-.062.275-.195.209-.066-.038-.1-.1-.1-.194 0-.232-.223-.34-.67-.321-.423.019-.522.08-.674.415-.134.303-.134.874.009 1.238.124.32.394.585.646.633.304.056.746-.005 1.046-.152.641-.297.974-.807 1.012-1.534.033-.695-.214-1.313-.746-1.842-.532-.53-1.017-.714-1.896-.714-.656 0-1.27.114-2.091.383-.76.246-1.24.458-3.132 1.35-.894.426-1.768.818-1.949.874-.2.067-.499.114-.774.128-.409.019-.47.01-.642-.09-.247-.141-.404-.444-.404-.779 0-.198.02-.26.105-.316.095-.067.11-.067.147-.005.024.042.033.142.029.227-.02.273.004.354.128.5.314.369.946.27 1.188-.193.095-.18.08-.59-.024-.822-.256-.558-1.05-.817-1.81-.59-.637.193-.937.613-.984 1.397-.071 1.058.49 1.894 1.378 2.06.171.028.418.033.69.004.579-.056.878-.203 1.282-.614.29-.293.48-.42.751-.5.081-.024.105-.01.124.09.024.103 0 .136-.167.217-.29.146-.646.505-.793.798-.105.208-.285.703-.285.793 0 .029.332-.028.95-.165zm-5.251-.457c.451-.095.831-.232 1.155-.411.152-.085.275-.156.285-.165.014-.01-.214-.487-.252-.53-.01-.009-.147.072-.309.175-.337.218-.69.36-1.164.468-.266.061-.609.076-1.711.076-1.103 0-1.445-.015-1.711-.076-.447-.104-.808-.24-1.136-.44-.152-.089-.285-.165-.29-.165-.047 0-.261.454-.237.506.038.104.77.42 1.169.51.641.137.993.16 2.442.142 1.036-.015 1.516-.038 1.759-.09zm-.713-.694c.238-.029.599-.11.808-.18.399-.132.898-.425.946-.552.033-.085-.02-.454-.062-.435-.014.01-.21.104-.433.213-.68.34-1.26.439-2.495.439-1.302 0-1.915-.104-2.6-.44l-.408-.198-.028.137c-.062.307-.043.354.251.543.343.218.946.42 1.43.473.528.056 2.101.061 2.59 0zm-.048-.85c.523-.062 1.041-.227 1.37-.44.346-.222.408-.307.484-.661.161-.775.603-1.171 1.445-1.308.77-.128 1.51.189 1.82.78.114.207.147.712.071 1.01-.033.113-.024.15.024.15.033 0 .694-.297 1.463-.665 2.41-1.143 3.242-1.478 4.325-1.747.385-.095.575-.11 1.269-.114h.817l1.398-2.857c1.33-2.725 1.392-2.862 1.32-2.957-.954-1.228-1.363-2.021-1.691-3.3-.261-1.012-.328-1.574-.328-2.693 0-1.658.29-3.23.86-4.652.37-.93 1.207-2.55 1.759-3.414.114-.175.204-.336.204-.36 0-.018-.105-.028-.233-.014-.29.029-.784-.056-1.079-.18-.347-.15-.57-.353-.727-.67-.133-.26-.147-.335-.147-.718 0-.52.047-.703.261-1.015l.162-.24h-2.3l-.005.769c0 .732-.01.793-.18 1.426-.305 1.105-.362 1.389-.41 2.102-.07 1.11-.308 1.851-.95 2.956-.49.846-.95 1.483-1.354 1.885l-.385.378.066.165c.105.25.043.524-.223.987-.166.288-.242.482-.266.666-.086.69-.414.95-1.174.95-.784-.005-1.421-.308-1.63-.785-.114-.255-.18-.307-.385-.307-.318 0-.56-.274-.56-.628 0-.26.094-.406.403-.633.651-.481.756-.637.756-1.166v-.265h.204c.276 0 .409-.08.556-.33.152-.26.29-.293.523-.123.09.066.219.156.276.198.109.08.118.08.26-.08.086-.09.224-.217.31-.283l.157-.123-.371-.156c-.808-.335-2.32-.746-2.547-.69-.057.015-.19.133-.29.265-.1.132-.38.406-.618.61-.75.646-.794.708-1.055 1.468-.09.274-.223.576-.285.675-.124.184-.366.364-.5.364-.042 0-.113.042-.16.094-.11.118-.41.203-.576.161l-.123-.033.019-.524c.028-.638.133-.945.47-1.365.4-.5.604-.813.932-1.412.39-.728.537-.945.84-1.252.13-.137.215-.25.186-.25-.27 0-2.276.576-2.633.755-.1.052-.351.232-.551.392-.527.43-.57.45-1.064.558-.243.052-.471.118-.504.141-.034.033-.49.052-1.165.057-1.202.01-1.473-.033-1.691-.264-.385-.407.028-.832 1.06-1.077l.46-.109-.033-.382c-.038-.416-.057-.463-.123-.34-.143.245-.514.675-.661.75-.1.052-.266.086-.418.086h-.252l.142-.175c.262-.326.347-.595.376-1.157l.024-.51h-1.193l-.314-.544-.314-.538v-1.044h.571v-2.314h-2.196l.033.132c.081.322.129.751.243 2.23.114 1.44.128 1.88.147 4.916l.024 3.33.28-.02c.233-.018.323 0 .537.105.347.17 1.274.982 2.357 2.064.842.845.894.883 1.165.963.59.165.689.288.689.831 0 .326.005.336.11.312.37-.09.93-.085 1.41.014.276.057.51.113.523.128.01.009-.019.099-.07.193-.067.118-.172.208-.353.298l-.256.127.328.02c.266.013 1.174.235 1.25.301.038.033-.248.307-.39.383-.076.038-.29.08-.475.094l-.343.033.214.062c.12.038.628.085 1.131.113.89.043 1.246.104 1.279.213.01.033-.048.123-.129.203-.17.17-.527.288-.874.288-.442.005-.119.094.675.184.413.052.836.123.936.165.261.11.5.303.5.402 0 .17-.134.217-.628.217-.257 0-.466.005-.466.01 0 .004.242.155.537.34.627.387.903.651 1.031.987.105.269.129.67.043.67-.119 0-1.04-.477-1.269-.66-.138-.11-.347-.327-.466-.487-.118-.16-.228-.303-.237-.312-.01-.01-.005.184.014.44.02.292.01.453-.019.453-.062 0-.29-.175-.428-.331-.061-.066-.242-.373-.404-.685l-.294-.567-.038.307c-.043.378-.133.756-.176.756-.057 0-.276-.25-.352-.401-.038-.076-.095-.26-.128-.402-.033-.141-.105-.397-.162-.567l-.1-.307-.023.652-.024.652-.162-.26c-.085-.146-.242-.524-.346-.84-.105-.322-.2-.614-.214-.652-.029-.076-.043-.033-.148.354-.028.104-.118.264-.194.354l-.138.166-.053-.133c-.028-.075-.085-.316-.128-.543-.085-.482-.185-.77-.3-.916l-.085-.104-.033.189c-.048.231-.219.633-.271.633-.076 0-.18-.208-.352-.709-.209-.595-.237-.647-.285-.566-.024.037-.062.01-.119-.085-.047-.076-.19-.194-.313-.27-.461-.26-.632-.495-.784-1.076-.043-.175-.114-.373-.157-.435-.043-.061-.357-.279-.694-.482-.342-.198-.784-.51-.984-.684-.28-.25-.39-.322-.508-.322-.214 0-.575.232-.922.577-.28.288-.31.335-.485.854-.3.884-.684 1.559-1.174 2.069l-.266.274.223.321c.12.175.252.42.295.548.043.123.105.222.143.222.033 0 .185-.052.332-.118.148-.066.342-.118.433-.118.233 0 .418.208.494.548.057.25.062.26.204.245.148-.014.148-.014.162.232.01.174-.029.382-.138.722-.133.425-.147.5-.1.676.18.694.205.826.176 1-.062.402-.375.671-.85.719-.19.019-.357-.005-.69-.104l-.437-.128-.4.17c-.622.27-.869.222-1.353-.25-.623-.614-.742-1.313-.314-1.866.076-.103.1-.174.071-.24-.11-.274.033-.742.276-.898.066-.047.204-.085.309-.09l.19-.004-.024-.217c-.057-.477-.185-.647-1.274-1.677-.556-.534-.793-1.058-1.064-2.404-.171-.831-.243-1.464-.428-3.655-.19-2.248-.209-2.395-.409-3.453-.232-1.228-.18-1.728.243-2.29.095-.128.152-.265.17-.425.044-.397.058-.43.353-.822.384-.51.48-.732.484-1.153.005-.373-.061-.623-.337-1.284l-.176-.425-3.022-.014-3.028-.01.162.241c.223.321.275.553.252 1.082-.015.387-.038.481-.157.699-.233.425-.642.675-1.274.77-.185.028-.427.042-.542.028-.114-.01-.204-.005-.204.019 0 .018.124.236.276.477.627.991 1.197 2.106 1.663 3.249.69 1.7 1.012 3.73.87 5.478-.167 1.989-.632 3.335-1.645 4.737-.223.312-.403.581-.403.6 0 .024.622 1.313 1.378 2.867l1.378 2.824h.798c.889 0 1.146.043 2.148.364.775.25 1.279.467 3.09 1.322.822.392 1.591.751 1.706.798l.204.09-.038-.127c-.024-.076-.043-.303-.043-.51 0-.331.02-.411.143-.633.408-.737 1.478-.969 2.433-.52.451.213.66.515.794 1.148.07.354.17.486.489.666.347.193.732.311 1.202.378.561.075 2.02.09 2.59.018zm-16.904-2.164l.247-.278-1.193-2.475c-.66-1.36-1.254-2.602-1.33-2.763l-.138-.293-.295.1c-.166.051-.309.103-.318.113-.024.023 2.714 5.875 2.752 5.875.014 0 .137-.127.275-.279zm33.058-2.65c.755-1.614 1.364-2.937 1.354-2.946-.01-.01-.152-.062-.318-.114l-.3-.099-.18.388c-.1.212-.699 1.454-1.33 2.762l-1.146 2.376.242.283c.138.152.262.279.276.279.019 0 .65-1.318 1.402-2.928zm-32.202 2.032c.133-.062.247-.123.247-.137 0-.043-2.662-5.498-2.704-5.545-.038-.038-.556.33-.542.383.01.042 2.295 4.784 2.485 5.157.086.17.171.283.205.27.033-.015.17-.072.309-.128zm30.957-1.729c.49-1.01 1.078-2.234 1.311-2.715l.428-.884-.266-.193c-.147-.104-.28-.18-.3-.156-.042.042-2.704 5.493-2.704 5.535 0 .043.533.279.594.264.024-.009.447-.84.937-1.85zm-9.633-1.681c-.086-.397-.3-.614-1.041-1.077-.494-.307-.98-.727-.98-.855 0-.056-.023-.061.486.076.68.18 1.126.146.788-.062-.2-.122-.442-.174-1.245-.269-.784-.094-1.121-.24-1.121-.486 0-.024.228-.057.513-.066.37-.015.56-.043.69-.109.156-.07.17-.095.104-.132-.043-.024-.49-.062-.994-.08-1.055-.048-1.316-.11-1.582-.369l-.18-.175.546-.028c.523-.024.817-.1.732-.184-.024-.02-.205-.085-.4-.142-.256-.075-.423-.1-.617-.08-.143.014-.404.042-.58.061-.31.029-.323.029-.461-.113-.08-.08-.147-.165-.147-.194 0-.033.104-.052.251-.052.48 0 1.26-.264 1.141-.382-.1-.1-.75-.194-1.103-.16-.537.042-.617.065-.632.183-.023.16-.36.133-.627-.056-.114-.085-.223-.151-.233-.151-.047 0 .1.524.171.604.12.132.252.44.371.836l.11.378.066-.213c.033-.118.057-.326.047-.463-.01-.132 0-.245.015-.245.076 0 .442.368.527.538.057.104.152.406.204.666.095.449.105.468.167.354.038-.066.076-.33.09-.59l.029-.472.204.307c.133.198.252.467.347.779.08.26.161.524.185.59.029.08.043-.047.043-.387.005-.283.024-.51.043-.51.062 0 .323.293.404.449.038.08.114.34.17.58.11.459.186.671.248.671.085 0 .1-.6.024-.897-.043-.165-.072-.307-.057-.317.01-.009.137.09.285.227.214.194.323.35.532.77.143.288.314.59.38.666l.124.142-.033-.284c-.029-.231-.138-.652-.333-1.237-.071-.217.318.264.822 1.006.261.387.613.69 1.079.916.209.104.399.189.418.189.024 0 .024-.07.01-.151zm-25.14-1.903c.47-.123.822-.34 1.283-.803 1.14-1.13 1.858-2.844 2.072-4.96.104-1.048-.015-2.668-.285-3.801-.357-1.512-1.288-3.552-2.39-5.247-.267-.411-.376-.539-.576-.661-.138-.085-.356-.237-.494-.336-.138-.099-.266-.18-.295-.18-.043 0-.223.468-.19.492.713.482 1.297 1.063 1.659 1.648.128.213.237.411.237.444 0 .052-.138.156-.209.156-.014 0-.08-.1-.142-.222-.176-.345-.533-.808-.88-1.138-.309-.298-1.045-.822-1.235-.883-.152-.048-.12-.109.09-.166.233-.061.333-.198.333-.458 0-.18-.034-.236-.342-.585l-.347-.383-.31.028c-.17.02-.37.071-.45.118-.324.185-.48.76-.338 1.252.066.222.142.335.442.642.228.241.332.383.294.397-.522.151-.746.34-.85.718-.076.26-.038.486.119.756.161.273.404.396.774.396.528 0 .685-.203.746-.954.02-.203.053-.368.072-.368.023 0 .209.184.408.415 1.065 1.205 1.554 2.05 1.873 3.226.176.657.309.935.803 1.686.323.487.375.595.337.676-.071.127-.114.113-.275-.085-.419-.53-.86-1.313-1.08-1.918-.07-.198-.123-.25-.536-.524-.613-.406-1.112-.633-1.511-.7-.39-.06-1.288-.018-1.73.076-.699.152-1.321.496-1.592.874-.133.194-.143.227-.143.657 0 .255.024.496.052.543.043.075.062.066.186-.104.446-.642 1.335-.595 2.328.127.476.345.67.388 1.265.265l.47-.095.105.109c.057.061.09.123.076.137-.02.014-.171.057-.343.094-.632.147-.907.506-.907 1.2 0 .335.019.444.128.67.11.242.523.747.604.747.019 0 .057-.128.085-.283.067-.36.2-.539.461-.638.176-.066.243-.07.38-.024.295.095.59.52.775 1.11.124.416.114 1.483-.029 2.135-.28 1.313-.798 2.187-1.373 2.328-.532.123-.88-.066-.979-.543-.067-.326.157-.321.3 0 .132.302.275.354.641.255.219-.061.394-.231.599-.58.409-.719-.129-1.536-1.188-1.805-.347-.09-.556-.061-.846.109-.694.397-1.046 2.083-.628 3.022.19.43.647.784 1.203.936.332.085.946.09 1.292 0zm38.58 0c.574-.147 1.026-.496 1.22-.936.29-.647.229-1.68-.137-2.418-.323-.642-.704-.85-1.312-.708-1.07.245-1.625 1.072-1.212 1.8.262.448.518.632.884.632.148 0 .338-.17.376-.33.033-.161.195-.274.27-.199.081.08-.004.378-.156.553-.342.387-.98.307-1.397-.175-.533-.619-.975-2.234-.913-3.344.033-.557.114-.888.333-1.29.456-.863 1.178-.76 1.416.2l.047.207.214-.208c.566-.548.704-1.473.304-2.021-.166-.227-.318-.312-.717-.402-.157-.037-.304-.08-.319-.094-.042-.047.143-.217.243-.217.052 0 .27.038.49.08.508.104.722.052 1.183-.279.18-.132.432-.292.56-.354.29-.146.846-.26 1.07-.222.252.043.546.222.68.416.061.094.128.17.147.17.061 0 .152-.364.152-.619-.005-.486-.342-.911-.965-1.223-.566-.283-1.782-.444-2.538-.335-.427.061-.87.264-1.544.713-.243.16-.438.293-.438.297 0 .052-.251.68-.356.883-.162.326-.599.997-.822 1.27l-.166.204-.067-.123c-.062-.118-.048-.146.29-.656.447-.666.699-1.195.86-1.828.233-.874.608-1.592 1.312-2.48.451-.576.922-1.095.96-1.062.014.014.047.231.071.486.067.676.21.836.746.836.494 0 .832-.293.908-.784.066-.434-.233-.897-.656-1.015-.114-.033-.223-.071-.242-.09-.02-.019.104-.16.275-.321.4-.368.514-.614.514-1.082-.005-.41-.148-.746-.376-.873-.166-.1-.532-.156-.694-.118-.062.019-.256.193-.432.387-.29.326-.319.378-.319.567 0 .255.105.382.38.463l.214.06-.213.114c-.837.425-1.692 1.252-2.072 1.989-.129.25-.134.255-.295.17l-.105-.062.247-.415c.371-.62.922-1.176 1.697-1.71.029-.024-.152-.491-.19-.491-.043 0-.708.458-.936.642-.452.364-1.626 2.47-2.281 4.08-1.184 2.915-1.141 6.452.109 8.88.665 1.289 1.53 2.148 2.405 2.38.337.09.955.094 1.292.005zM28.884 37.603c.437-.028.46-.033.46-.132 0-.142.077-.198.405-.279.152-.042.28-.08.29-.09.01-.009-.005-.094-.033-.188-.043-.166-.058-.175-.243-.175-.11 0-.295-.047-.413-.104-.19-.094-.29-.109-.742-.104-.589.005-1.012.09-1.468.298-.618.278-.58.628.08.76.252.047 1.056.057 1.664.014zm.832-1.497c.114-.042.385-.104.603-.142.437-.075.461-.085.922-.382.542-.35 1.545-.87 1.949-1.016 1.007-.368 2.081-.26 3.355.331.808.373.67.368 1.16.042.565-.373.812-.736.978-1.435.067-.265.1-.827.053-.827-.015 0-.157.033-.324.071-.442.1-1.687.18-2.342.151-.704-.028-1.027-.123-1.265-.359-.328-.326-.356-.727-.114-1.653.09-.35.167-.651.167-.675 0-.019-.78-.038-1.735-.038H31.39v2.314h.571l-.005.534v.529l-.575.52-.575.519-.599.024-.599.023-.014.18c-.014.141.024.245.147.453.271.453.29.751.043.69-.17-.038-.499-.232-.694-.407l-.157-.137-.104.28c-.1.278-.223.443-.423.57-.105.067-.095.071.19.057.166-.01.385.005.49.029.166.037.204.028.308-.067.067-.06.214-.141.324-.179zm-1.084-.746c.057-.184.124-.321.162-.321.033 0 .123.047.2.104.07.056.16.108.199.113.033.01.104.047.157.094.118.104.152.066.09-.094-.08-.217-.052-.534.071-.84.143-.35.148-.44.024-.525-.062-.042-.086-.094-.067-.146.043-.104.1-.095.233.042.129.123.152.307.072.515l-.048.123h.998l.452-.411.451-.416-1.497-.014c-.822-.005-2.167-.005-2.99 0l-1.487.014.233.416.238.41h1.112l.057-.207c.052-.203.261-.5.347-.5.095 0 .1.15.005.217-.148.099-.2.33-.248 1.034-.052.869-.047.878.248.59.133-.132.256-.236.28-.236.019 0 .052-.042.066-.094.015-.052.067-.095.115-.095.09 0 .242.36.242.572 0 .316.128.16.285-.345zm3.184-2.329v-.354l-3.122.01-3.127.014-.014.279c-.01.15-.005.306.009.34.019.056.556.066 3.141.066h3.113v-.355zm-19.903-.448c.31-.114.613-.406.704-.68.038-.114.052-.35.038-.638-.024-.576-.11-.741-.504-.935-.219-.109-.333-.132-.608-.132-.633.004-1.065.33-1.065.812 0 .321.285.628.58.628.062 0 .161.033.218.076.09.061.1.085.048.146-.09.114-.513.057-.741-.094-.38-.246-.504-.803-.276-1.228l.119-.217-.228-.487c-.262-.552-.485-1.228-.609-1.856-.061-.316-.08-.67-.085-1.393 0-1.034.028-1.294.261-2.225.105-.415.133-.6.105-.75l-.034-.199-.232.553c-.485 1.143-1.093 2.04-1.735 2.555-.166.132-.323.274-.347.316-.019.043-.043.392-.043.775 0 .76.114 1.587.29 2.073.143.406.452.888.808 1.266.176.184.385.425.466.538.247.345 1.13.982 1.62 1.171.243.095.903.052 1.25-.075zm34.593.047c.166-.047.432-.17.589-.26.295-.18.803-.59.922-.75.038-.048.266-.312.513-.591.894-1.006 1.193-1.941 1.146-3.613l-.015-.61-.19-.146c-.798-.623-1.34-1.388-1.886-2.659l-.252-.585-.034.198c-.028.151 0 .335.1.746.233.926.266 1.195.266 2.225 0 .817-.019 1.048-.109 1.502-.128.633-.318 1.2-.608 1.794l-.214.44.11.174c.16.255.156.775-.006 1.011-.19.274-.408.392-.722.392-.152 0-.29-.019-.314-.038-.057-.061.167-.222.314-.222.409 0 .708-.548.509-.935-.176-.335-.49-.482-1.032-.482-.323 0-.423.02-.608.118-.119.067-.27.199-.337.293-.105.156-.12.227-.133.695-.015.477-.005.543.095.736.08.151.19.26.375.369.504.302.984.363 1.52.198zm-15.308-1.09v-.955l-.266.033c-.313.038-.494.118-.774.364-.347.302-.618.378-1.426.378-.813 0-1.027-.048-1.797-.383-.29-.132-.584-.236-.65-.236h-.124V32.488h5.037v-.949zm-3.027-.558c-.024-.184-.024-.19.157-.232.104-.028.3-.066.442-.08.46-.061.77-.255 1.055-.666.161-.236.166-.255.052-.255-.047 0-.19.109-.318.241-.228.231-.57.44-.651.392-.095-.057-.024-.165.166-.246.228-.099.604-.481.604-.614 0-.047-.024-.108-.053-.137-.042-.042-.114.01-.29.199-.356.387-.94.637-.94.401 0-.061.033-.094.094-.094.162 0 .39-.137.656-.392.238-.236.319-.411.18-.411-.037 0-.251.16-.48.354-.441.373-.67.482-.935.43-.086-.014-.39-.165-.675-.335-.532-.312-.746-.388-.955-.336l-.12.029v1.27l.2.057c.11.028.414.146.67.26.471.212.865.34 1.065.344.09.005.1-.014.076-.18zm1.454.094c.133-.047.352-.184.495-.302.294-.255.385-.293.784-.34l.294-.033V28.984l-.484.033c-.47.028-.509.024-.965-.123-.414-.137-.542-.156-.974-.16-.575 0-.76.066-1.188.439-.224.194-.233.212-.157.274.076.052.109.038.3-.142.275-.264.417-.34.493-.264.038.042.02.08-.09.16-.242.175-.418.364-.375.402.023.023.09.056.147.07.076.024.11.01.133-.07.038-.109.437-.562.499-.562.019 0 .052.037.067.08.023.052-.038.146-.195.307-.347.354-.162.27.337-.151.276-.227.494-.378.56-.378.115 0 .562.43.562.543 0 .038.057.095.133.128.18.09.185.236.01.514-.314.482-.695.714-1.289.78-.147.019-.294.047-.328.066-.095.056-.01.141.148.141.076 0 .138.024.138.048 0 .085.693.056.945-.043zM18.292 29.67c-.043-.1-.428-.902-.86-1.785-.433-.884-.913-1.866-1.065-2.182-.152-.317-.375-.695-.494-.836-.119-.147-.214-.274-.214-.288 0-.071.708-.005 1.274.118.78.174 1.107.189 1.288.061.413-.307.632-.33 1.905-.203.918.094 1.174.1 2.514.07l1.493-.032-.034.118c-.071.283-.147.401-.527.784-.271.278-.437.496-.528.685-.119.264-.123.302-.1.803.029.585.2 1.265.576 2.271l.209.567 1.121.014 1.122.01v-1.597l-.452-.425-.451-.425v-1.946h7.128v1.951l-.38.415-.38.411v1.616H34.944l.029-.104c.019-.062.043-.279.057-.487.038-.491-.062-.963-.314-1.478-.242-.51-.247-.657-.01-.921.1-.109.238-.288.314-.401.081-.133.2-.237.323-.293l.19-.085-.26-.19c-.143-.108-.305-.25-.362-.32l-.1-.128.366-.175c.204-.099.466-.203.585-.236.309-.085 2.162-.066 2.675.029.723.127.832.127 1.264 0 .514-.156.699-.156 1.264.018.257.08.509.142.566.142.052-.005.261-.066.456-.146.47-.19.775-.217 1.093-.114.262.085.29.085 1.14-.023.262-.033.452-.038.524-.01.114.043.1.066-.438.59-.418.412-.594.62-.708.846-.2.402-.36.605-.532.675-.114.048-.228.199-.518.69-.204.35-.409.746-.451.888-.09.312-.062.694.076 1.015l.095.218 2.19-.01 2.191-.014.167-.373c.39-.883.556-1.733.56-2.91.005-1.128-.152-2.002-.527-2.946-.993-2.508-2.932-4.18-5.646-4.87-1.668-.425-3.165-.33-4.62.293-.251.104-.432.156-.503.137-.076-.019-.176-.146-.337-.44-.31-.561-.5-.84-.827-1.208-.837-.94-1.82-1.601-3.275-2.201-1.226-.505-1.986-.642-3.364-.605-.799.02-.965.043-1.45.166-1.007.26-2.305.831-3.136 1.384-.514.34-1.412 1.185-1.754 1.643-.128.17-.333.491-.456.713-.247.449-.338.567-.442.567-.033 0-.304-.094-.594-.208-.998-.397-1.768-.529-2.814-.486-2.633.108-5.123 1.478-6.52 3.584-.689 1.04-1.145 2.338-1.293 3.684-.147 1.304.062 2.673.58 3.83l.124.27H18.363l-.071-.175zm9.48-.86c.405-.255.6-.302 1.146-.274.338.02.561.062.88.17.408.142.45.147.917.118l.484-.033v-1.308h-5.038V28.993h.229c.147 0 .318.048.508.137l.286.137.142-.132c.081-.07.28-.217.447-.326zm-1.8-1.09v-.237h-.495l.233.236c.129.133.243.236.247.236.01 0 .015-.103.015-.236zm5.67-.024l.18-.213h-.385v.213c0 .118.005.212.014.212.005 0 .095-.094.19-.212zm.318-1.228v-.78h-6.654V27.246h6.654v-.78zm18.857-.104c-.309-.803-.76-1.46-1.254-1.804-.642-.449-1.127-1.025-1.783-2.126l-.351-.59-.034.189c-.08.458-.047.647.229 1.327.394.964.598 1.37.974 1.927.451.67.855 1.063 1.345 1.299.427.212.993.35 1.017.255.01-.033-.057-.246-.143-.477zm-44.126.434c.86-.222 1.692-1.006 2.258-2.125.323-.642.827-1.88.85-2.078.01-.104 0-.316-.019-.472l-.038-.284-.2.364c-.584 1.048-1.263 1.875-1.929 2.338-.309.222-.413.33-.68.727-.308.458-.636 1.138-.707 1.45-.029.137-.02.151.08.151.062 0 .238-.033.385-.07zm-.104-2.073c.518-.137 1.197-.59 1.635-1.1.689-.808 1.506-2.21 1.668-2.881.109-.463.399-1.025.713-1.403l.27-.326-.351.033c-.423.043-1.032-.028-1.402-.16-.152-.052-.328-.095-.385-.095-.19 0-.575.227-1.079.633-.27.217-.59.43-.708.477-.2.076-.242.076-.4.019-.265-.104-.37-.317-.37-.76 0-.416.01-.411-.404-.204-.508.255-.97.817-1.117 1.365-.123.454-.08 1.091.095 1.483.243.534.727.86 1.288.86.176 0 .214-.019.3-.16.209-.331.755-.733 1.012-.737.047 0 .085.042.095.108.01.085-.038.132-.295.274-.527.288-.722.633-1.093 1.936-.104.369-.19.676-.19.685 0 .047.485.01.718-.047zm44.715.043c0-.1-.513-1.705-.608-1.909-.152-.32-.438-.609-.751-.75-.21-.1-.238-.128-.219-.227.01-.066.052-.113.1-.113.252.004.798.406 1.012.741l.1.165.309-.028c.4-.043.608-.132.85-.368.3-.289.457-.68.48-1.19.053-.983-.337-1.663-1.216-2.121-.18-.095-.342-.175-.352-.175-.014 0-.014.113 0 .25.024.317-.052.6-.209.756-.28.283-.565.198-1.292-.378-.528-.42-.884-.628-1.07-.628-.057 0-.228.043-.38.095-.385.137-.946.203-1.36.165l-.35-.028.123.165c.3.397.36.491.499.737.08.141.209.477.285.741.218.746.917 2.003 1.559 2.796.342.42.888.902 1.021.902.048 0 .1.024.114.047.048.071.476.279.675.326.195.047.68.066.68.029zm-40.576-2.692c.993-1.578 2.714-2.896 4.515-3.467 1.972-.623 3.835-.581 5.45.118.139.061.272.113.286.113.019 0 .133-.174.252-.392.732-1.303 1.792-2.276 3.303-3.027 1.012-.5 1.977-.84 2.723-.954.551-.08 2.138-.094 2.566-.019.856.147 1.887.51 2.852.997.907.453 1.383.798 2.072 1.478.622.619.964 1.063 1.25 1.625.118.236.17.292.232.269 1.307-.524 2.3-.704 3.48-.633 3.026.189 5.754 1.927 7.07 4.505l.22.426.037-.19c.02-.103.038-.547.043-.991.005-.676-.01-.86-.095-1.171-.152-.577-.394-.992-.836-1.431l-.38-.378-.452-.109c-.247-.061-.77-.222-1.164-.368-.39-.142-.813-.27-.937-.284-.128-.014-.228-.042-.228-.056 0-.015-.014-.076-.028-.133-.029-.099-.015-.108.176-.108.123 0 .456.09.826.217 1.43.5 2.096.647 2.947.647 1.297 0 2.034-.524 2.329-1.653.066-.255.1-1.148.042-1.148-.014 0-.114.062-.223.137-.508.345-.931.369-1.872.1-.97-.274-2.091-.374-2.348-.199-.067.043-.257.17-.418.279-.552.368-.989.458-2.552.529-.975.047-1.146.075-1.588.255-.038.019-.114 0-.166-.043-.095-.07-.095-.075.043-.184.256-.203.594-.264 1.725-.312 1.226-.051 1.673-.122 2.129-.344.694-.34.903-.647.87-1.266-.01-.246-.048-.41-.133-.58-.138-.27-.2-.308-.276-.147-.086.189-.347.453-.547.552-.346.18-.755.222-2.266.255-1.535.029-1.92.066-2.434.218-.446.132-.708.32-1.23.916-.252.288-.49.52-.523.52-.034 0-.167-.152-.29-.34-.124-.185-.295-.393-.385-.459-.133-.104-1.079-.406-1.758-.567-.162-.037-.252-.222-.134-.274.095-.037.176-.018.956.208.727.213.974.222 1.226.038.209-.156.342-.444.342-.756 0-.231-.014-.264-.18-.42-.1-.094-.314-.222-.48-.283-.162-.062-.305-.133-.319-.151-.01-.02.057-.052.157-.067.351-.056.394-.075.47-.189.12-.184.148-.722.043-.925-.08-.16-.49-.61-.551-.61-.02 0-.057.11-.086.237-.066.297-.147.458-.323.623-.238.222-.432.274-1.074.274h-.585l-.104.184c-.247.435-.718.652-1.564.737l-.299.028v-.141c0-.133.01-.137.252-.17.846-.1 1.283-.322 1.416-.718.138-.416-.214-1.044-.789-1.408-.413-.264-.432-.26-.466.071-.019.156-.061.345-.1.42-.118.227-.384.42-.617.454-.262.042-.361.019-.903-.198-.395-.156-.452-.166-.76-.137-.186.014-.414.042-.509.056-.233.038-.242-.01-.176-.685.052-.5.048-.58-.028-.774-.105-.27-.428-.576-.704-.652-.261-.08-.86-.08-1.121 0-.271.076-.599.383-.704.647-.066.17-.07.293-.047.67.019.251.047.54.062.643l.028.18-.209-.029c-.77-.104-.841-.099-1.388.109-.28.109-.57.194-.641.194-.509 0-.913-.426-.913-.969 0-.118-.01-.212-.023-.212-.1 0-.552.278-.742.458-.252.236-.518.708-.518.92 0 .209.11.426.3.591.185.16.693.345.96.345.313 0 .451.052.451.17 0 .156-.128.175-.58.09-.76-.142-1.064-.302-1.278-.685l-.11-.189h-.593c-.476 0-.637-.019-.79-.09-.342-.15-.513-.415-.655-1.01-.01-.024-.1.023-.205.104-.38.269-.556.878-.38 1.303.081.184.18.24.523.283.266.038.252.057-.138.213-.565.222-.689.354-.689.741 0 .274.143.577.342.723.252.184.5.175 1.226-.047.556-.17.965-.241 1.017-.184.01.009 0 .061-.019.113-.028.08-.194.142-.836.326-.442.123-.86.245-.927.269-.161.061-.37.283-.584.619-.095.146-.195.283-.224.302-.033.019-.128-.043-.228-.156-.846-.94-.912-1.006-1.212-1.143-.584-.278-.926-.321-3.117-.378-1.25-.033-1.43-.047-1.682-.137-.352-.127-.58-.297-.737-.557-.067-.113-.138-.208-.157-.208-.052 0-.214.25-.276.444-.09.284-.07.789.043 1.01.2.383.808.742 1.502.884.219.047.813.095 1.402.118 1.079.043 1.464.109 1.72.293l.143.1-.1.098c-.09.085-.114.09-.2.033-.28-.17-.503-.203-1.563-.24-1.516-.057-2.048-.18-2.7-.647l-.318-.227-.637.01c-.746.013-1.055.06-1.668.259-.361.118-.537.151-.879.151-.46.005-.627-.042-.965-.269-.114-.076-.218-.123-.233-.109-.052.052-.014.865.057 1.13.295 1.128 1.036 1.657 2.305 1.652.894-.005 1.502-.132 2.9-.623.688-.241 1.092-.307 1.092-.18 0 .118-.118.213-.313.241-.105.014-.509.142-.903.283-.39.142-.913.303-1.16.364l-.451.109-.38.378c-.685.684-.937 1.331-.937 2.46 0 .364.015.817.034 1.01l.033.35.214-.42c.114-.231.275-.524.356-.656z" transform="matrix(1 0 0 -1 52 80)"/>
        <path d="M28.87 12.057c0-.028.034-.146.072-.255.166-.472.005-.812-.475-.973-.086-.028-.076-.037.062-.094.085-.038.209-.052.27-.038.305.076.542.496.48.846-.033.165-.404.637-.408.514z" transform="matrix(1 0 0 -1 52 80)"/>
        <path d="M6.012 12.416c-2.424-.174-3.622-.741-4.41-2.078-.224-.373-.347-1.043-.39-2.125C1.15 6.801 1.05 6.357.509 5.209.086 4.307.005 4.005 0 3.35c0-.93.257-1.554.927-2.225.304-.307.499-.449.784-.6C2.49.128 3.346-.033 4.472.01 5.636.047 5.997.18 7.77 1.22c1.326.779 1.692.963 2.215 1.114.49.142.846.156.945.038.038-.047.233-.307.438-.581C12.214.656 12.793.279 13.71.279c.418 0 .727.07 1.34.311.613.241.774.25 1.164.09.171-.075.4-.137.509-.137.18-.005.194.005.18.113-.024.241-.309.723-.59.997-.512.5-1.235.75-2.17.75-.69 0-.785.048-1.213.61-.594.775-1.064 1.19-1.734 1.516-.447.222-.77.312-1.298.373-1.022.118-2.252-.208-3.255-.86-.176-.113-.727-.519-1.222-.897-.494-.377-.969-.722-1.055-.77l-.156-.084-.214.17c-.504.387-.708.812-.708 1.478 0 .713.237 1.388.698 1.993.323.425.509.562.88.647 1.625.378 3.492.316 5.564-.189 1.55-.378 2.481-.732 6.487-2.489 5-2.191 7.091-2.904 9.672-3.296.922-.142 2.808-.156 3.678-.029 1.996.298 3.935.87 6.587 1.946.765.307 3.916 1.662 5.703 2.446 2.295 1.006 3.987 1.521 5.807 1.762.703.094 2.21.104 2.794.024.542-.076 1.089-.185 1.25-.25.224-.086.718-.667.932-1.092.594-1.195.484-2.31-.295-2.918-.128-.104-.257-.185-.29-.185-.09 0-.646.397-1.459 1.04-1.064.845-1.696 1.194-2.561 1.421-1.835.477-3.45-.123-4.648-1.728-.423-.567-.561-.638-1.245-.638-.922 0-1.616-.24-2.144-.742-.29-.273-.613-.826-.613-1.048 0-.142.2-.132.642.042.2.076.432.142.527.142.095 0 .395-.09.67-.193.694-.27.927-.326 1.393-.326.917.004 1.478.377 2.395 1.61.223.302.447.562.504.576.214.057 1.155-.207 1.687-.477.133-.061.708-.396 1.283-.741C50.408.515 50.575.43 51.112.24c.608-.213 1.017-.26 1.91-.232 1.683.057 2.785.562 3.465 1.587.323.482.475.973.503 1.634.034.685-.052 1.03-.522 2.06-.575 1.256-.628 1.473-.68 2.9-.047 1.364-.204 1.988-.656 2.569-.722.935-1.815 1.426-3.592 1.615-.7.075-2.838.075-3.612 0-2.685-.255-4.491-.798-8.303-2.49-4.538-2.016-5.19-2.27-6.929-2.71-1.45-.368-2.68-.52-4.2-.52-1.545 0-2.653.142-4.197.525-1.697.425-2.894.883-6.335 2.441-3.607 1.63-5.275 2.21-7.352 2.555-1.35.227-3.331.331-4.6.241zm2.732-.283c2.177-.156 4.13-.628 6.278-1.53.613-.255 1.564-.67 4.087-1.79 3.289-1.46 5.043-2.007 7.41-2.329.77-.103 2.97-.122 3.73-.028 1.207.147 2.41.397 3.493.727 1.197.36 2.167.756 5.132 2.078 3.983 1.781 5.494 2.31 7.595 2.655 1.235.208 1.73.24 3.336.236 1.606 0 2.21-.052 2.994-.26 1.098-.283 1.93-.864 2.31-1.606.156-.311.166-.481.066-.963-.166-.789-.523-1.204-1.411-1.648l-.628-.322c-.076-.042.057-.099.742-.32.993-.327 1.345-.501 1.701-.85.4-.393.979-1.583 1.122-2.3.247-1.243-.433-2.608-1.56-3.132-.997-.463-2.123-.623-3.155-.449-.85.147-1.269.33-2.642 1.167-.48.288-1.074.623-1.321.75-.456.223-1.15.468-1.345.468-.057 0-.138.024-.176.048-.147.103.741.793 1.278.996.68.255 1.75.359 2.196.208.133-.047.532-.326 1.065-.742.998-.779 1.61-1.19 2.167-1.45.95-.453 1.468-.425 1.986.1.537.543.76 1.61.532 2.503-.299 1.162-.998 1.752-2.656 2.262-1.15.354-2.272.496-3.593.453-1.606-.052-3.08-.354-5.019-1.039-.85-.302-1.112-.41-4.847-2.03-3.289-1.427-4.03-1.72-5.513-2.21C32.863 1.378 31.78 1.1 30.7.911c-.584-.1-.912-.128-1.839-.147-1.554-.033-2.452.066-4.054.463-2.02.5-3.398 1.015-7.527 2.815-4.059 1.77-4.639 2.002-6.04 2.404-2.852.817-5.219.845-7.533.09-.727-.237-1.079-.402-1.488-.709C1.031 4.94.827 2.975 1.806 1.847c.46-.53 1.07-.558 2.024-.085.58.288 1.07.618 2.134 1.44.523.406.998.737 1.093.76.09.024.371.048.618.048 1.012 0 1.92-.33 2.571-.935l.342-.322-.503-.122c-.628-.156-1.15-.402-2.267-1.072C6.178.57 5.522.307 4.562.25c-1.216-.075-2.471.25-3.24.841-.652.496-1.06 1.384-1.06 2.29 0 .567.104.912.546 1.8.314.628.437.831.622 1.006.414.392.899.623 1.958.94.29.085.533.17.533.184 0 .014-.29.175-.642.35-.988.495-1.307.878-1.478 1.775-.066.345-.066.406 0 .633.157.515.756 1.124 1.454 1.474.694.344 1.37.495 2.733.604.447.038 2.143.028 2.756-.014z" transform="matrix(1 0 0 -1 52 80)"/>
        <path d="M4.824 11.033c0-.038.08-.085.18-.11l.176-.042V8.378l-.166-.023c-.11-.014-.171-.052-.18-.104-.015-.076.037-.085.555-.085.475 0 .575.014.575.07 0 .038-.066.086-.152.11l-.157.037-.014.524-.014.52.508.004c.423.005.537.02.723.114.694.34.594 1.308-.152 1.497-.319.08-1.882.07-1.882-.01zm1.882-.336c.142-.141.161-.189.161-.406 0-.264-.09-.463-.256-.567-.057-.037-.286-.075-.537-.085l-.442-.019v1.238h.456c.456 0 .456 0 .618-.16zM50.855 10.91c-.014-.024-.242-.595-.504-1.275-.256-.68-.494-1.27-.518-1.323-.028-.047-.104-.104-.17-.118-.067-.019-.12-.061-.12-.1 0-.056.086-.07.452-.07.37 0 .451.014.451.07 0 .039-.038.072-.085.072-.048 0-.124.028-.176.061-.08.062-.08.08.057.463l.147.397.542.014.542.014.133-.406c.138-.43.124-.543-.071-.543-.053 0-.09-.033-.09-.071 0-.057.08-.07.403-.08.224-.005.452-.01.509-.01.157-.005.166.142.019.18-.162.037-.185.099-.69 1.45-.232.632-.441 1.19-.455 1.237-.038.085-.328.118-.376.038zm.328-1.016l.214-.595h-.452c-.247 0-.451.014-.451.038 0 .019.086.27.19.553.105.288.204.547.219.585.033.1.052.062.28-.58zM8.607 9.625c-.39-.652-.737-1.214-.775-1.251-.038-.038-.119-.067-.185-.067-.081 0-.114-.028-.114-.085 0-.07.061-.099.346-.146.186-.033.38-.07.428-.08.057-.02.08 0 .08.066 0 .061-.042.104-.118.123-.076.019-.119.061-.119.118 0 .099.366.76.419.76.019 0 .256-.042.532-.094l.504-.095c.028 0 .114-.812.09-.845-.014-.029-.09-.052-.171-.052-.105 0-.138-.024-.138-.085 0-.076.071-.1.475-.165.257-.048.494-.08.523-.08.095 0 .047.146-.067.188-.133.047-.156.132-.46 1.795-.11.61-.205 1.114-.205 1.114-.005.005-.08.02-.171.038l-.166.029-.708-1.186zm.845.109c.1-.558.1-.624.034-.619-.129 0-.765.123-.79.146-.013.015.12.274.29.577.177.302.324.543.333.533.015-.01.072-.297.133-.637zM48.08 10.726c-.39-.062-.485-.09-.475-.147.01-.047.076-.08.166-.09.08-.009.171-.042.2-.07.023-.033.123-.572.218-1.205.19-1.228.19-1.284-.052-1.284-.086 0-.114-.029-.114-.1 0-.09.019-.099.18-.07.095.014.352.052.57.08.319.047.39.07.38.132-.009.047-.075.08-.166.09-.08.01-.17.042-.2.075-.066.076-.394 2.24-.356 2.352.015.052.086.1.167.118.095.02.138.057.138.114 0 .104.004.104-.656.005zM46.43 10.461c-.07-.1-1.739-.52-1.786-.449-.02.029-.057.043-.081.024-.057-.033-.086-.18-.124-.633-.028-.283-.023-.297.077-.283.07.01.114.07.161.222.033.113.119.269.19.34.148.156.47.274.542.203.062-.062.623-2.196.608-2.31-.01-.052-.071-.122-.142-.155-.138-.067-.18-.199-.067-.199.071 0 .98.232 1.036.265.02.014.024.052.005.094-.02.047-.067.062-.18.038-.129-.024-.167-.01-.21.07-.057.105-.622 2.192-.622 2.296 0 .085.142.128.408.128.228 0 .41-.09.575-.28.062-.075.129-.112.176-.094.11.043.1.076-.152.44-.228.33-.328.401-.413.283zM11.643 10.249c-.014-.038-.004-.08.02-.09.16-.052.265-.236.48-.836.132-.364.232-.69.227-.723-.01-.038-.313-.255-.68-.486-.531-.34-.698-.42-.84-.42-.319 0-.219-.123.214-.265l.442-.146c.028-.01.066.023.08.075.015.066-.004.1-.09.118-.062.02-.114.057-.114.09 0 .061 1.083.817 1.112.784.024-.028.409-1.195.409-1.237 0-.024-.072-.033-.152-.024-.11.01-.162-.005-.171-.057-.01-.052.123-.118.508-.245.285-.095.532-.156.547-.142.057.052.023.146-.057.17-.043.014-.11.076-.148.132-.071.114-.575 1.497-.575 1.582 0 .029.271.227.608.44.528.335.623.377.76.354.13-.024.153-.014.153.061 0 .123-.836.397-.908.293-.028-.052-.014-.08.076-.113.067-.029.12-.08.12-.118 0-.066-.894-.7-.928-.657-.004.01-.085.241-.18.52-.171.524-.171.59.038.538.076-.019.119-.005.138.052.019.043.023.08.019.085-.01.005-.252.085-.547.175-.466.146-.537.156-.56.09zM43.118 9.45c-.385-.127-.513-.189-.513-.25 0-.066.033-.075.18-.057.162.024.186.01.243-.108.105-.222.718-2.064.718-2.154 0-.047-.062-.123-.133-.17-.076-.047-.124-.113-.115-.16.015-.067.072-.057.5.085.266.09.513.17.541.184.034.01.048.052.034.094-.024.057-.072.066-.186.043-.133-.024-.17-.01-.228.085-.038.056-.223.571-.418 1.138-.385 1.148-.385 1.124-.052 1.294.01.005 0 .038-.024.076-.033.056-.119.037-.547-.1zM41.598 8.988c-.02-.095-1.569-.685-1.745-.671l-.123.014-.014-.458-.015-.463h.124c.1 0 .119.024.119.142 0 .212.109.434.28.58.152.128.366.209.414.161.076-.075.874-2.229.85-2.3-.014-.042-.08-.104-.142-.132-.124-.057-.152-.127-.076-.175.08-.047 1.026.336 1.04.425.015.071-.01.076-.17.048-.181-.029-.2-.02-.262.103-.086.161-.841 2.126-.841 2.178 0 .075.237.15.456.15.242 0 .361-.051.556-.226.114-.108.138-.113.2-.052.061.062.038.109-.219.411-.29.34-.404.406-.432.265zM38.599 7.755c-.02-.014-.033-.071-.033-.118 0-.076-.043-.085-.305-.085-.503 0-.893-.194-1.107-.553-.233-.396-.066-.869.352-1.01.11-.034.399-.043.912-.02.846.038.922.02 1.031-.245.067-.156.067-.18-.038-.387-.275-.548-1.04-.605-1.63-.123-.166.132-.213.151-.275.104-.062-.047-.038-.109.2-.482.29-.453.399-.524.422-.269.015.142.024.146.143.118.466-.132 1.145.109 1.388.491.2.312.223.534.085.808-.2.401-.38.444-1.64.392-.484-.02-.641.038-.731.264-.067.18.08.435.337.567.357.189.775.132 1.202-.16.157-.11.19-.114.248-.057.057.056.028.118-.195.434-.252.354-.3.397-.366.33zM16.339 7.387c-.129-.09-.219-.355-.176-.515.043-.18.28-.36.47-.36.2 0 .433.185.476.374.038.17-.076.449-.205.52-.142.075-.447.06-.565-.02zM19.874 6.952c-.061-.057-.033-.109.11-.18.08-.042.142-.099.142-.132 0-.104-.774-2.134-.85-2.22-.053-.066-.114-.08-.224-.056-.109.019-.157.005-.176-.043-.019-.052.043-.094.219-.16.138-.052.651-.246 1.15-.43.494-.184.922-.33.95-.316.03.01.176.17.329.354.223.274.266.35.218.401-.047.062-.085.047-.266-.09-.252-.188-.542-.278-.784-.24-.333.052-.993.32-.993.401 0 .043.076.293.175.562.12.326.2.482.252.482.038 0 .18-.052.319-.114.275-.132.342-.26.261-.5-.043-.123-.038-.147.043-.189.066-.038.095-.038.114.01.01.032.114.311.233.613.2.53.204.558.114.586-.052.014-.095.019-.1.01-.005-.005-.043-.076-.08-.156-.11-.203-.276-.246-.595-.147-.142.043-.261.109-.261.142 0 .038.076.27.17.52.2.514.124.49.733.26.195-.076.428-.18.513-.232.171-.104.337-.416.342-.624 0-.099.024-.132.095-.132.086 0 .095.033.095.42v.42l-1.093.407c-1.212.449-1.112.416-1.155.373zM35.595 6.636c-.456-.166-.58-.298-.252-.274.224.019.243-.01.585-.935.323-.86.347-1.073.157-1.356-.18-.27-.485-.41-.827-.382-.418.033-.528.179-.898 1.161-.171.449-.31.855-.31.907 0 .057.048.118.12.151.066.029.118.09.118.142 0 .047-.01.085-.019.085-.023 0-1.045-.383-1.064-.397-.005-.01 0-.047.019-.09.019-.06.052-.066.17-.023.11.038.158.033.21-.019.038-.038.21-.44.38-.893.176-.453.366-.888.428-.968.242-.326.784-.439 1.278-.269.314.104.666.453.737.727.08.298.038.506-.285 1.36-.157.42-.285.808-.285.86 0 .052.052.113.118.146.067.029.12.09.12.142 0 .109.009.109-.5-.075zM22.868 5.55c-.228-.298-.256-.36-.2-.407.058-.047.1-.033.229.08.228.199.423.265.66.232.38-.057.38 0-.004-1.195-.19-.59-.38-1.129-.418-1.185-.057-.095-.095-.11-.229-.085-.114.023-.161.009-.18-.038-.02-.043-.014-.08.005-.09.114-.066 1.017-.316 1.055-.293.076.047.052.09-.095.175-.095.057-.143.118-.138.189 0 .061.166.6.366 1.195.404 1.2.366 1.147.722.973.185-.09.38-.411.38-.628 0-.114.02-.133.124-.133.119 0 .123.01.095.18-.014.094-.029.311-.029.477 0 .297 0 .297-.118.269-.153-.038-1.764.468-1.802.567-.052.132-.152.061-.423-.284zM32.045 5.323c-.375-.118-.465-.166-.465-.237 0-.08.023-.09.142-.06.09.018.171.009.214-.025.095-.08.642-1.756.642-1.964 0-.354-.324-.633-.732-.633-.271 0-.457.151-.457.368 0 .133-.123.293-.228.293-.095 0-.2-.146-.2-.279 0-.179.177-.425.38-.528.191-.104.614-.119.861-.034.433.147.756.515.756.855 0 .1-.12.553-.271 1.011-.347 1.096-.347 1.077-.162 1.18.148.086.171.175.048.19-.038.004-.276-.057-.528-.137zM27.512 3.75c-.286-.146-.343-.496-.12-.742.115-.127.172-.155.338-.155.166 0 .223.028.338.155.185.204.185.43.009.624-.162.175-.366.217-.565.118z" transform="matrix(1 0 0 -1 52 80)"/>
    </g>
</svg>
