<svg xmlns="http://www.w3.org/2000/svg" width="160" height="80" viewBox="0 0 160 80">
    <g fill="#85ACB0">
        <path d="M45.394 11.277L48.163 8.02 48.489 8.265 45.679 11.522zM43.277 5.415c.041-.041.082-.082.163-.122.082-.041.122 0 .163 0 .04.04.122.081.122.122 0 .081 0 .122-.04.203-.041.082-.082.082-.163.122-.082 0-.123 0-.163-.04l-.122-.122c-.041-.041 0-.123.04-.163zM43.074 8.753c.448-.651 1.384-.203 1.913.082l.163-.245c.326-.448.244-.692-.081-.936-.285-.204-.733-.204-.733-.204l.081-.203s.448 0 .815.244c.529.367.651.733.244 1.303l-.814 1.14c-.204.285-.163.366-.082.407.082.04.204.081.204.081l-.082.163s-.285-.081-.407-.163c-.163-.122-.203-.244-.04-.529 0 0-.408.244-.896-.122-.407-.244-.53-.61-.285-1.018zm.407.204c-.204.285-.122.529.163.733.366.244.773.04.773.04l.489-.692c-.53-.285-1.14-.488-1.425-.081zM43.155 52.356l.204.204c0-.04.04-.407.529-.733.448-.285.896-.244 1.221.285l1.1 1.67-.367.243-1.058-1.587c-.285-.407-.57-.489-.896-.285-.407.244-.407.61-.407.61l1.262 1.955-.366.203-1.588-2.402.366-.163z" transform="translate(0 9)"/>
        <path d="M40.958 7.297H43.808V8.297H40.958z" transform="translate(0 9) rotate(-61.464 42.383 7.501)"/>
        <path d="M41.038 21.7c.204 0 .367.244.367.57 0 .325-.163.57-.367.57-.203 0-.366-.245-.366-.57-.041-.326.163-.57.366-.57zM40.835 55.206c.366.733.732 1.018 1.221.774.489-.245.53-.692.163-1.466-.367-.733-.733-1.018-1.222-.774-.488.245-.529.693-.162 1.466zm-.408.163c-.407-.855-.244-1.506.448-1.873.733-.326 1.344-.04 1.751.814.407.855.244 1.548-.448 1.873-.733.367-1.343.04-1.75-.814zM39.939 7.939c-.733-.285-.977-.896-.57-1.832.366-.896.977-1.222 1.75-.896.408.163.652.53.652.53l-.122.203s-.204-.326-.57-.489c-.53-.244-.937 0-1.262.815-.367.855-.163 1.262.285 1.425.448.203.773-.041.773-.041l.122.204s-.407.366-1.058.08zM39.41 57.282L38.433 54.555 38.84 54.433 39.817 57.12zM38.595 53.659c.041.081.041.122 0 .204l-.122.122h-.163c-.081-.041-.122-.082-.122-.163v-.204c.041-.081.082-.081.122-.122.041 0 .123-.04.163 0 .041.04.082.082.122.163zM35.95 6.555l.732-2.769.326.082-.041.285c.04-.041.366-.245.896-.082.529.163.773.53.61 1.1l-.529 1.913-.407-.122.488-1.832c.123-.489-.04-.733-.366-.855-.448-.122-.733.081-.733.081l-.61 2.24-.367-.041zM36.234 57.812l.082-.245s.325.285.814.163c.448-.122.57-.407.488-.692-.203-.733-1.425-.04-1.669-.977-.122-.488.204-.855.733-1.018.407-.122.773.041.773.041v.244s-.366-.163-.692-.04c-.366.081-.529.325-.447.61.203.733 1.506.04 1.75 1.018.122.448-.081.936-.773 1.1-.692.121-1.059-.204-1.059-.204zM34.28 21.7c.203 0 .366.244.366.57 0 .325-.163.57-.366.57-.204 0-.367-.245-.367-.57 0-.326.163-.57.367-.57zM33.506 6.27c-.488-.041-.814-.367-.732-.815.081-.773 1.14-.814 1.71-.814l.04-.285c.082-.529-.081-.733-.488-.773-.326-.041-.733.163-.733.163V3.5s.407-.203.814-.163c.61.082.896.326.814 1.059l-.163 1.384c-.04.326.041.407.082.407.081 0 .244-.04.244-.04v.203s-.285.082-.448.04c-.203-.04-.285-.121-.285-.447 0 0-.244.407-.855.326zm-.285-.815c-.04.326.163.53.448.57.448.041.692-.325.692-.325l.082-.815c-.53-.04-1.18.041-1.222.57zM34.728 57.69c-.122-.774-1.425-.204-1.588-1.181-.081-.489.285-.855.814-.896.407-.081.774.122.774.122l-.041.245s-.326-.204-.692-.122c-.367.04-.57.284-.53.529.123.773 1.466.203 1.63 1.18.04.448-.204.896-.897 1.018-.692.082-.977-.285-.977-.285l.123-.203s.284.325.773.285c.489-.122.651-.407.61-.692zM31.552 56.509L31.511 55.898 31.715 55.858 31.919 55.858 32.081 58.707 31.634 58.748zM31.511 55.247c-.04-.04-.081-.122-.081-.163 0-.081 0-.122.081-.204.041-.04.082-.081.163-.081.082 0 .122 0 .163.04.04.041.082.123.082.204 0 .082 0 .122-.041.204-.04.04-.122.081-.163.081-.081-.04-.163-.04-.204-.081zM30.127 6.107h-.407l-.04-2.85h.325l.04.285c.042-.04.245-.326.856-.366.529 0 .855.285.895.895l.041 1.995h-.407l-.081-1.913c0-.489-.245-.692-.611-.692-.448 0-.692.285-.692.285l.081 2.36zM27.644 2.483c.04-.04.081-.081.122-.081h.04c.082 0 .123 0 .163.04.041.041.082.123.082.164 0 .081 0 .122-.04.203-.042.04-.082.082-.164.082-.04 0-.122 0-.163-.041-.04-.04-.08-.122-.08-.163 0-.081 0-.163.04-.204zM28.132 6.31L27.725 3.461 27.969 3.461 28.173 3.42 28.539 6.27zM27.562 21.7c.204 0 .367.244.367.57 0 .325-.163.57-.367.57-.203 0-.366-.245-.366-.57-.04-.326.122-.57.366-.57zM26.789 58.545l.244-2.85.326.04.04.326c.041-.04.326-.326.855-.285.326.04.489.122.57.407.082-.081.367-.325.855-.285.408.04.611.244.611.692v.163l-.163 2.077-.407-.041.163-2.036c.04-.448-.081-.57-.366-.61-.367-.041-.611.203-.652.284v.204l-.163 2.076-.407-.04.163-2.036c.04-.448-.081-.57-.366-.61-.367-.041-.611.203-.652.244l-.163 2.32-.488-.04zM25.323 6.88L24.427 3.257 26.422 2.809 26.504 3.053 24.916 3.42 25.282 4.885 26.626 4.56 26.667 4.804 25.323 5.13 25.73 6.799zM21.903 57.364l.774-2.769.326.082-.041.326c.04-.041.407-.285.855-.123.285.082.448.245.488.489.082-.04.407-.244.896-.122.448.122.61.407.448.977l-.57 2.036-.407-.123.529-1.995c.122-.447 0-.57-.244-.65-.367-.082-.61.08-.692.121 0 .04-.041.122-.041.204l-.57 2.035-.407-.122.53-1.995c.121-.447 0-.57-.245-.651-.367-.081-.652.081-.692.122l-.611 2.24-.326-.082zM20.804 21.7c.204 0 .407.244.407.57 0 .285-.122.488-.326.57h-.08c-.204 0-.367-.245-.367-.57-.041-.326.163-.57.366-.57zM20.641 5.781c-.407.204-.488.61-.203 1.303l1.221-.61s-.04-.041-.04-.082c-.245-.57-.57-.774-.978-.61zm-.488 1.71c-.407-.855-.245-1.588.407-1.913.57-.285 1.14-.041 1.506.732.082.163.082.245.082.245l-1.588.773c.366.733.773.896 1.262.692.448-.203.488-.651.488-.651l.204.04s-.04.57-.651.856c-.652.285-1.262.081-1.71-.774zM18.89 54.514c.408-.855 1.018-1.18 1.71-.855.733.326.896 1.018.49 1.873-.408.855-1.019 1.18-1.71.855-.734-.326-.856-1.018-.49-1.873zm.408.204c-.326.732-.285 1.22.203 1.424.489.245.896-.04 1.222-.814.325-.733.285-1.221-.204-1.465-.488-.163-.896.122-1.221.855zM17.14 7.939s.04-.407.488-.733c.448-.285.896-.244 1.222.285l1.1 1.67-.327.244-1.058-1.629c-.244-.407-.57-.448-.855-.244-.407.244-.407.61-.407.61l1.303 1.955-.367.244-2.361-3.542.326-.244.936 1.384zM16.244 54.718c-.855-.57-.977-1.466-.366-2.443.651-1.018 1.588-1.303 2.402-.774.488.326.733.855.733.855l-.204.204s-.244-.53-.651-.814c-.61-.408-1.303-.163-1.873.732-.57.896-.489 1.588.163 1.995.57.367 1.18.082 1.18.082l.041.244s-.692.366-1.425-.081z" transform="translate(0 9)"/>
        <path d="M38.595 23.45v.815h.367v.61h.53l-.286 12.621c0 .122.122.244.285.244.163 0 .326-.122.326-.244l.081-12.62h.367l-.163 12.62c0 .122.122.244.285.244.163 0 .325-.122.325-.244v-12.62h.367v12.62c0 .122.122.244.326.244.162 0 .325-.122.285-.244l-.163-12.62h.366l.082 12.62c0 .122.162.244.325.244s.326-.122.285-.244l-.244-12.62h.53v-.611h.366v-.815h-4.642zm4.438 14.331H38.8v.367h-.244v.57h4.682v-.57h-.245v-.367h.041zm-11.196.367v.57h4.682v-.57h-.244v-.367H32.08v.367h-.244zm.04-14.698v.815h.367v.61h.489l-.244 12.621c0 .122.122.244.285.244.162 0 .325-.122.325-.244l.082-12.62h.366l-.163 12.58c0 .122.122.244.285.244.163 0 .326-.122.326-.245v-12.62h.366v12.62c0 .123.122.245.326.245.163 0 .326-.122.285-.245l-.163-12.62h.367l.081 12.62c0 .123.163.245.326.245s.325-.122.285-.245l-.245-12.62h.53v-.611h.366v-.814h-4.641v.04zM29.64 37.781h-4.234v.367h-.245v.57h4.682v-.57h-.244v-.367h.04zm-4.072-12.906h.489l-.244 12.621c0 .122.122.244.325.244.163 0 .326-.122.326-.244l.122-12.62h.367l-.163 12.62c0 .122.122.244.285.244.163 0 .325-.122.325-.244v-12.62h.367v12.62c0 .122.122.244.326.244.162 0 .285-.122.285-.244l-.163-12.62h.366l.122 12.62c0 .122.163.244.326.244s.326-.122.285-.244l-.244-12.62h.488v-.611h.367v-.815H25.2v.815h.366v.61zm-8.142-3.705h26.87v-.407h-26.87v.407zm1.1 17.588h4.681v-.57h-.244v-.366h-4.234v.366h-.245v.57h.041zm-.49-15.715h25.69v-1.628H18.036v1.628zm.49 1.222h.366v.61h.529l-.285 12.58c0 .123.122.245.285.245.163 0 .326-.122.326-.245l.081-12.62h.366l-.162 12.62c0 .123.122.245.285.245.162 0 .325-.122.325-.245v-12.62h.367v12.62c0 .123.122.245.325.245.163 0 .326-.122.285-.245l-.163-12.62h.367l.081 12.62c0 .123.163.245.326.245s.326-.122.285-.245l-.244-12.62h.529v-.611h.366v-.814h-4.64v.855zm-2.973-3.746h30.616l-15.145-7.084-15.47 7.084zm1.222 19.257h28.173v-.814H16.774v.814zm-7.695-9.608c0-11.196 8.427-20.397 19.298-21.618.814-.082 1.628-.163 2.483-.163 12.01 0 21.781 9.73 21.781 21.78 0 11.767-9.364 21.375-21.048 21.741h-.733c-12.01 0-21.781-9.73-21.781-21.74zm6.351 10.87h30.82V39.98H15.43v1.058zM16.489 11.807L14.168 9.201 13.394 9.934 13.232 9.73 15.104 8.02 15.308 8.224 14.494 8.916 16.814 11.481z" transform="translate(0 9)"/>
        <path d="M.936 30.616c0 15.023 11.156 27.521 25.609 29.598 1.424.203 2.85.325 4.315.325 16.489 0 29.924-13.435 29.924-29.923C60.784 14.127 47.349.692 30.86.692c-1.1 0-2.198.04-3.257.163C12.621 2.525.936 15.226.936 30.615zM30.86 61.19C14.005 61.19.326 47.47.326 30.656.326 13.802 14.046.122 30.86.122c16.855 0 30.534 13.72 30.534 30.534 0 16.815-13.679 30.535-30.534 30.535zM68.193.163H69.193V61.964999999999996H68.193z" transform="translate(0 9)"/>
        <g>
            <path d="M8.55 3.094L5.537 3.094 5.537 13.069 3.135 13.069 3.135 3.094.122 3.094.122 1.832 8.55 1.832zM9.812.204l2.28-.123v4.967h.081s.733-.773 2.24-.773c1.79 0 2.646.895 2.646 2.972v5.862h-2.28v-5.7c0-1.384-.326-1.71-1.181-1.71-.977 0-1.506.611-1.506.611v6.759h-2.28V.204zM25.649 11.603s-.814 1.71-3.054 1.71c-2.442 0-4.03-1.262-4.03-4.356 0-3.054 1.547-4.641 3.827-4.641 2.158 0 3.379 1.384 3.379 3.908 0 .692-.122 1.1-.122 1.1h-4.641c.04 2.075.57 2.849 1.872 2.849 1.344 0 1.995-1.14 1.995-1.14l.774.57zm-4.641-3.46h2.646v-.408c0-1.75-.326-2.361-1.262-2.361-.896 0-1.303.61-1.384 2.768zM7.45 29.191L3.583 29.191 3.583 33.791 1.221 33.791 1.221 22.595 8.061 22.595 8.061 23.858 3.623 23.858 3.623 28.01 7.491 28.01 7.491 29.191zM10.504 21.252c.326 0 .651.122.895.326.245.285.367.61.367.977 0 .366-.122.733-.367 1.018-.244.203-.57.325-.895.325-.326 0-.652-.122-.896-.325-.244-.245-.407-.611-.407-.978 0-.366.122-.692.407-.977.244-.285.57-.366.896-.366zm1.14 12.54h-2.28V25.16h2.28v8.631zM13.72 25.16h1.832l.285.692h.082s.651-.895 2.442-.895c1.751 0 2.647.895 2.647 2.972v5.862h-2.28v-5.374c0-1.587-.326-1.995-1.14-1.995-1.018 0-1.547.611-1.547.611v6.758h-2.28v-8.63h-.04zM23.45 25.69s1.344-.693 2.687-.693c2.036 0 3.339.693 3.339 3.013v3.909c0 .732.203.895.366.895.204 0 .57-.122.57-.122l.082.896s-1.181.366-1.914.366c-.692 0-1.018-.326-1.14-1.058h-.081s-.489 1.058-2.28 1.058c-1.588 0-2.646-.855-2.646-2.28 0-2.28 2.89-2.89 4.763-3.053v-.489c0-1.587-.448-2.035-1.425-2.035-.814 0-2.036.651-2.036.651l-.285-1.058zm3.746 3.908c-1.425.163-2.361.61-2.361 1.832 0 .936.407 1.384 1.017 1.384.937 0 1.344-.936 1.344-.936v-2.28zM31.878 25.16h1.832l.285.692h.081s.652-.895 2.443-.895c1.75 0 2.646.895 2.646 2.972v5.862h-2.28v-5.374c0-1.587-.325-1.995-1.14-1.995-1.017 0-1.547.611-1.547.611v6.758h-2.28v-8.63h-.04zM45.028 26.137c-1.221 0-1.913.57-1.913 3.38 0 2.768.814 3.338 1.872 3.338 1.385 0 1.954-1.18 1.954-1.18l.815.529s-.652 1.832-3.013 1.832c-2.646 0-4.112-1.547-4.112-4.438 0-2.81 1.547-4.56 4.153-4.56 1.18 0 2.524.692 2.524.692l-.244 1.1c0-.082-1.222-.693-2.036-.693zM49.995 21.252c.326 0 .651.122.896.326.244.285.366.61.366.977 0 .366-.122.733-.366 1.018-.245.203-.57.325-.896.325-.326 0-.651-.122-.896-.325-.244-.245-.407-.611-.407-.978 0-.366.122-.692.407-.977.245-.285.57-.366.896-.366zm1.14 12.54h-2.28V25.16h2.28v8.631zM53.7 25.69s1.343-.693 2.687-.693c2.035 0 3.338.693 3.338 3.013v3.909c0 .732.204.895.367.895.203 0 .57-.122.57-.122l.081.896s-1.18.366-1.913.366c-.693 0-1.018-.326-1.14-1.058h-.082s-.488 1.058-2.28 1.058c-1.588 0-2.646-.855-2.646-2.28 0-2.28 2.89-2.89 4.763-3.053v-.489c0-1.587-.448-2.035-1.425-2.035-.814 0-2.035.651-2.035.651L53.7 25.69zm3.705 3.908c-1.425.163-2.362.61-2.362 1.832 0 .936.407 1.384 1.018 1.384.936 0 1.344-.936 1.344-.936v-2.28zM64.366 33.791L62.087 33.791 62.087 20.926 64.366 20.804zM5.903 44.417c-1.872 0-2.768 1.14-2.768 4.479 0 3.338.977 4.519 2.89 4.519 1.833 0 2.85-1.588 2.85-1.588l.774.814s-1.059 2.077-3.95 2.077c-3.46 0-5.21-2.24-5.21-5.7 0-3.542 1.872-5.863 5.13-5.863 1.79 0 3.46.896 3.46.896l-.244 1.262c0-.04-1.629-.896-2.932-.896zM14.372 54.718c-2.606 0-4.031-1.629-4.031-4.52 0-2.89 1.425-4.519 4.03-4.519 2.606 0 4.031 1.629 4.031 4.52 0 2.89-1.547 4.519-4.03 4.519zm-1.588-4.52c0 2.525.407 3.38 1.547 3.38s1.547-.896 1.547-3.38c0-2.483-.407-3.338-1.547-3.338-1.1 0-1.547.855-1.547 3.338zM19.908 45.883h1.832l.285.773h.041s.814-.936 2.28-.936c.936 0 1.547.285 1.914.896.081-.082.936-.896 2.442-.896 1.629 0 2.28.814 2.28 2.769v6.025h-2.28v-5.863c0-1.302-.325-1.547-.895-1.547-.652 0-1.1.448-1.222.652 0 .203.041.448.041.692v6.066h-2.28v-5.863c0-1.302-.326-1.547-.896-1.547-.692 0-1.14.53-1.221.611v6.758h-2.28v-8.59h-.04zM33.059 45.883h1.832l.285.773h.04s.815-.936 2.28-.936c.937 0 1.547.285 1.914.896.081-.082.936-.896 2.442-.896 1.629 0 2.28.814 2.28 2.769v6.025h-2.28v-5.863c0-1.302-.325-1.547-.895-1.547-.652 0-1.1.448-1.222.652 0 .203.041.448.041.692v6.066h-2.32v-5.863c0-1.302-.326-1.547-.896-1.547-.692 0-1.14.53-1.222.611v6.758h-2.28v-8.59zM47.349 41.975c.325 0 .651.122.895.325.245.285.367.61.367.977s-.122.733-.367 1.018c-.244.204-.57.326-.895.326-.326 0-.652-.122-.896-.326-.244-.244-.407-.61-.407-.977 0-.366.122-.692.407-.977.203-.285.53-.366.896-.366zm1.14 12.539h-2.28v-8.631h2.28v8.631zM50.565 52.52s.773 1.058 1.913 1.058c.896 0 1.344-.53 1.344-1.181 0-1.75-3.542-1.18-3.542-3.99 0-1.791 1.466-2.687 3.053-2.687 1.222 0 2.484.61 2.484.61l-.326 1.14s-1.14-.65-1.954-.65c-.733 0-1.14.366-1.14.936 0 1.75 3.745 1.343 3.745 4.112 0 1.628-1.099 2.809-3.257 2.809-2.28 0-3.053-1.303-3.053-1.303l.733-.855zM57.771 52.52s.774 1.058 1.913 1.058c.896 0 1.344-.53 1.344-1.181 0-1.75-3.542-1.18-3.542-3.99 0-1.791 1.466-2.687 3.053-2.687 1.222 0 2.484.61 2.484.61l-.326 1.14s-1.14-.65-1.954-.65c-.733 0-1.14.366-1.14.936 0 1.75 3.746 1.343 3.746 4.112 0 1.628-1.1 2.809-3.257 2.809-2.28 0-3.054-1.303-3.054-1.303l.733-.855zM66.117 41.975c.326 0 .651.122.896.325.244.285.366.61.366.977s-.122.733-.366 1.018c-.245.204-.57.326-.896.326-.326 0-.651-.122-.896-.326-.244-.244-.407-.61-.407-.977 0-.366.122-.692.407-.977.204-.285.53-.366.896-.366zm1.14 12.539h-2.28v-8.631h2.28v8.631zM72.794 54.718c-2.606 0-4.03-1.629-4.03-4.52 0-2.89 1.424-4.519 4.03-4.519 2.605 0 4.03 1.629 4.03 4.52 0 2.89-1.547 4.519-4.03 4.519zm-1.547-4.52c0 2.525.407 3.38 1.547 3.38s1.547-.896 1.547-3.38c0-2.483-.407-3.338-1.547-3.338s-1.547.855-1.547 3.338zM78.372 45.883h1.832l.285.692h.081s.651-.896 2.443-.896c1.75 0 2.646.896 2.646 2.972v5.863h-2.28V49.14c0-1.588-.326-1.995-1.14-1.995-1.018 0-1.547.61-1.547.61v6.759h-2.28v-8.631h-.04z" transform="translate(0 9) translate(74.097 3.664)"/>
        </g>
    </g>
</svg>
