<svg width="80" height="80" viewBox="0 0 80 80" fill="none" xmlns="http://www.w3.org/2000/svg">
<rect width="80" height="80" rx="40" fill="#F9F9F9"/>
<path fill-rule="evenodd" clip-rule="evenodd" d="M15 37V38.5H13.5V37H15Z" fill="#FF444F"/>
<path fill-rule="evenodd" clip-rule="evenodd" d="M18 37V40H16.5V37H18Z" fill="#FF444F"/>
<path fill-rule="evenodd" clip-rule="evenodd" d="M21 37V49.75H19.5V37H21Z" fill="#FF444F"/>
<path fill-rule="evenodd" clip-rule="evenodd" d="M24 47.5V52H22.5V47.5H24Z" fill="#FF444F"/>
<path fill-rule="evenodd" clip-rule="evenodd" d="M27 44.5V49.75H25.5V44.5H27Z" fill="#414652"/>
<path fill-rule="evenodd" clip-rule="evenodd" d="M30 28V47.5H28.5V28H30Z" fill="#414652"/>
<path fill-rule="evenodd" clip-rule="evenodd" d="M33 31V37H31.5V31H33Z" fill="#414652"/>
<path fill-rule="evenodd" clip-rule="evenodd" d="M36 34V37H34.5V34H36Z" fill="#414652"/>
<path d="M12 29.5C12 28.6716 12.6716 28 13.5 28H21C21.8284 28 22.5 28.6716 22.5 29.5V34C22.5 34.8284 21.8284 35.5 21 35.5H13.5C12.6716 35.5 12 34.8284 12 34V29.5Z" fill="#0E0E0E"/>
<path d="M14.2173 34.0002V33.2742H15.3453V30.4662H15.2913L14.4393 31.5822L13.8633 31.1322L14.8653 29.8122H16.2453V33.2742H17.1333V34.0002H14.2173Z" fill="white"/>
<path d="M19.0509 34.0722C18.5029 34.0722 18.0969 33.8822 17.8329 33.5022C17.5689 33.1222 17.4369 32.5902 17.4369 31.9062C17.4369 31.2222 17.5689 30.6902 17.8329 30.3102C18.0969 29.9302 18.5029 29.7402 19.0509 29.7402C19.5989 29.7402 20.0049 29.9302 20.2689 30.3102C20.5329 30.6902 20.6649 31.2222 20.6649 31.9062C20.6649 32.5902 20.5329 33.1222 20.2689 33.5022C20.0049 33.8822 19.5989 34.0722 19.0509 34.0722ZM19.0509 33.3102C19.2909 33.3102 19.4569 33.2222 19.5489 33.0462C19.6409 32.8702 19.6869 32.6222 19.6869 32.3022V31.5102C19.6869 31.1902 19.6409 30.9422 19.5489 30.7662C19.4569 30.5902 19.2909 30.5022 19.0509 30.5022C18.8109 30.5022 18.6449 30.5902 18.5529 30.7662C18.4609 30.9422 18.4149 31.1902 18.4149 31.5102V32.3022C18.4149 32.6222 18.4609 32.8702 18.5529 33.0462C18.6449 33.2222 18.8109 33.3102 19.0509 33.3102Z" fill="white"/>
<path fill-rule="evenodd" clip-rule="evenodd" d="M47 37V38.5H45.5V37H47Z" fill="#FF444F"/>
<path fill-rule="evenodd" clip-rule="evenodd" d="M50 37V40H48.5V37H50Z" fill="#FF444F"/>
<path fill-rule="evenodd" clip-rule="evenodd" d="M53 37V49.75H51.5V37H53Z" fill="#FF444F"/>
<path fill-rule="evenodd" clip-rule="evenodd" d="M56 47.5V52H54.5V47.5H56Z" fill="#FF444F"/>
<path fill-rule="evenodd" clip-rule="evenodd" d="M59 44.5V49.75H57.5V44.5H59Z" fill="#414652"/>
<path fill-rule="evenodd" clip-rule="evenodd" d="M62 28V47.5H60.5V28H62Z" fill="#414652"/>
<path fill-rule="evenodd" clip-rule="evenodd" d="M65 31V37H63.5V31H65Z" fill="#414652"/>
<path fill-rule="evenodd" clip-rule="evenodd" d="M68 34V37H66.5V34H68Z" fill="#414652"/>
<path d="M44 29.5C44 28.6716 44.6716 28 45.5 28H53C53.8284 28 54.5 28.6716 54.5 29.5V34C54.5 34.8284 53.8284 35.5 53 35.5H45.5C44.6716 35.5 44 34.8284 44 34V29.5Z" fill="#0E0E0E"/>
<path d="M46.6484 34L48.0524 30.544H46.7444V31.306H45.9824V29.812H48.9464V30.592L47.5964 34H46.6484Z" fill="white"/>
<path d="M52.3821 30.598H50.4801L50.3901 31.924H50.4381C50.4781 31.824 50.5221 31.734 50.5701 31.654C50.6221 31.57 50.6821 31.5 50.7501 31.444C50.8181 31.384 50.9001 31.338 50.9961 31.306C51.0921 31.274 51.2061 31.258 51.3381 31.258C51.5181 31.258 51.6861 31.288 51.8421 31.348C51.9981 31.408 52.1341 31.496 52.2501 31.612C52.3661 31.724 52.4581 31.864 52.5261 32.032C52.5941 32.196 52.6281 32.382 52.6281 32.59C52.6281 32.802 52.5921 33 52.5201 33.184C52.4521 33.364 52.3481 33.52 52.2081 33.652C52.0721 33.784 51.9041 33.888 51.7041 33.964C51.5041 34.036 51.2761 34.072 51.0201 34.072C50.8161 34.072 50.6361 34.05 50.4801 34.006C50.3241 33.962 50.1861 33.904 50.0661 33.832C49.9461 33.756 49.8421 33.67 49.7541 33.574C49.6661 33.478 49.5901 33.376 49.5261 33.268L50.1801 32.752C50.2721 32.916 50.3821 33.056 50.5101 33.172C50.6381 33.284 50.8101 33.34 51.0261 33.34C51.2421 33.34 51.4041 33.278 51.5121 33.154C51.6241 33.03 51.6801 32.866 51.6801 32.662V32.614C51.6801 32.422 51.6241 32.27 51.5121 32.158C51.4001 32.046 51.2461 31.99 51.0501 31.99C50.8861 31.99 50.7501 32.024 50.6421 32.092C50.5381 32.156 50.4581 32.22 50.4021 32.284L49.6641 32.182L49.8201 29.812H52.3821V30.598Z" fill="white"/>
</svg>
