<svg width="80" height="80" viewBox="0 0 80 80" fill="none" xmlns="http://www.w3.org/2000/svg">
<rect width="80" height="80" rx="40" fill="#F9F9F9"/>
<g clip-path="url(#clip0_678_16724)">
<path d="M33 28H25.5V28.015C25.5 29.6636 26.8364 31 28.485 31H30.885L18 43.879V48.121L33 33.121V35.521C33.0033 37.1672 34.3388 38.5 35.985 38.5H36V31C36 29.3431 34.6569 28 33 28Z" fill="#FF444F"/>
<path d="M14.121 52H12V49H15H17.121L15 51.121L14.121 52Z" fill="#414652"/>
</g>
<g clip-path="url(#clip1_678_16724)">
<path d="M67.985 41.4998C66.3364 41.4998 65 42.8362 65 44.4848V46.8848L50 31.8848V36.1208L62.879 48.9998H60.479C58.8328 49.0031 57.5 50.3385 57.5 51.9848V51.9998H65C66.6569 51.9998 68 50.6566 68 48.9998V41.4998H67.985Z" fill="#FF444F"/>
<path d="M44 31V28H46.121L47 28.879L49.121 31H47H44Z" fill="#414652"/>
</g>
<defs>
<clipPath id="clip0_678_16724">
<rect width="24" height="24" fill="white" transform="translate(12 28)"/>
</clipPath>
<clipPath id="clip1_678_16724">
<rect width="24" height="24" fill="white" transform="translate(44 28)"/>
</clipPath>
</defs>
</svg>
