<svg width="49" height="48" viewBox="0 0 49 48" fill="none" xmlns="http://www.w3.org/2000/svg">
<path d="M20.7941 35.7C21.0741 36.46 21.8141 37 22.6641 37C23.7641 37 24.6641 36.1 24.6641 35C24.6641 33.9 23.7641 33 22.6641 33C21.5641 33 20.6641 33.9 20.6641 35C20.6641 35.25 20.7041 35.48 20.7941 35.7Z" stroke="white" stroke-width="2" stroke-linecap="round" stroke-linejoin="round"/>
<path d="M27.9641 39.13C27.2041 39.41 26.6641 40.15 26.6641 41C26.6641 42.1 27.5641 43 28.6641 43C29.7641 43 30.6641 42.1 30.6641 41C30.6641 39.9 29.7641 39 28.6641 39C28.4141 39 28.1841 39.04 27.9641 39.13Z" stroke="white" stroke-width="2" stroke-linecap="round" stroke-linejoin="round"/>
<path d="M36.7941 31.7C37.0741 32.46 37.8141 33 38.6641 33C39.7641 33 40.6641 32.1 40.6641 31C40.6641 29.9 39.7641 29 38.6641 29C37.5641 29 36.6641 29.9 36.6641 31C36.6641 31.25 36.7041 31.48 36.7941 31.7Z" stroke="white" stroke-width="2" stroke-linecap="round" stroke-linejoin="round"/>
<path d="M15.6641 44C16.7686 44 17.6641 43.1046 17.6641 42C17.6641 40.8954 16.7686 40 15.6641 40C14.5595 40 13.6641 40.8954 13.6641 42C13.6641 43.1046 14.5595 44 15.6641 44Z" stroke="white" stroke-width="2" stroke-linecap="round" stroke-linejoin="round"/>
<path d="M10.1641 38.5C11.2686 38.5 12.1641 37.6046 12.1641 36.5C12.1641 35.3954 11.2686 34.5 10.1641 34.5C9.05949 34.5 8.16406 35.3954 8.16406 36.5C8.16406 37.6046 9.05949 38.5 10.1641 38.5Z" stroke="white" stroke-width="2" stroke-linecap="round" stroke-linejoin="round"/>
<path d="M20.6641 37L17.6641 40" stroke="white" stroke-width="2" stroke-linecap="round" stroke-linejoin="round"/>
<path d="M26.6641 39L24.6641 37" stroke="white" stroke-width="2" stroke-linecap="round" stroke-linejoin="round"/>
<path d="M36.6641 33C35.6641 34 31.6641 38 30.6641 39" stroke="white" stroke-width="2" stroke-linecap="round" stroke-linejoin="round"/>
<path d="M40.6641 33L43.6641 36" stroke="white" stroke-width="2" stroke-linecap="round" stroke-linejoin="round"/>
<path d="M11.6641 38L13.6641 40" stroke="white" stroke-width="2" stroke-linecap="round" stroke-linejoin="round"/>
<path d="M8.66406 38L5.66406 41" stroke="white" stroke-width="2" stroke-linecap="round" stroke-linejoin="round"/>
<path fill-rule="evenodd" clip-rule="evenodd" d="M22.6641 5H8.66406C7.56406 5 6.66406 5.9 6.66406 7V25.46C6.66406 26.56 7.56406 27.46 8.66406 27.46H14.1241L17.6641 31V27.46H22.6641C23.7641 27.46 24.6641 26.56 24.6641 25.46V7C24.6641 5.9 23.7641 5 22.6641 5Z" stroke="white" stroke-width="2" stroke-linecap="round" stroke-linejoin="round"/>
<path d="M12.6641 20H18.6641V22C18.6641 23.1 17.7641 24 16.6641 24H14.6641C13.5641 24 12.6641 23.1 12.6641 22V20Z" stroke="white" stroke-width="2" stroke-linecap="round" stroke-linejoin="round"/>
<path fill-rule="evenodd" clip-rule="evenodd" d="M20.6641 14C20.6641 11.24 18.4241 9 15.6641 9C12.9041 9 10.6641 11.24 10.6641 14C10.6641 15.63 11.4541 17.06 12.6641 17.98V20H18.6641V17.98C19.8741 17.07 20.6641 15.63 20.6641 14Z" stroke="white" stroke-width="2" stroke-linecap="round" stroke-linejoin="round"/>
<path d="M15.1641 16C15.4941 15.67 15.8341 15.33 16.1641 15C15.8341 14.67 15.4941 14.33 15.1641 14C15.4941 13.67 15.8341 13.33 16.1641 13" stroke="white" stroke-width="2" stroke-linecap="round" stroke-linejoin="round"/>
<path d="M37.6641 25V24" stroke="white" stroke-width="2" stroke-linecap="round" stroke-linejoin="round"/>
<path d="M34.6641 26C34.3341 25.67 33.9941 25.33 33.6641 25" stroke="white" stroke-width="2" stroke-linecap="round" stroke-linejoin="round"/>
<path d="M33.6641 29H32.6641" stroke="white" stroke-width="2" stroke-linecap="round" stroke-linejoin="round"/>
<path d="M37.6641 20C32.6941 20 28.6641 24.03 28.6641 29" stroke="white" stroke-width="2" stroke-linecap="round" stroke-linejoin="round"/>
</svg>
