<svg width="32" height="32" viewBox="0 0 32 32" fill="none" xmlns="http://www.w3.org/2000/svg">
<g clip-path="url(#clip0_496_18530)">
<path d="M0 6C0 2.68629 2.68629 0 6 0H26C29.3137 0 32 2.68629 32 6V26C32 29.3137 29.3137 32 26 32H6C2.68629 32 0 29.3137 0 26V6Z" fill="#FF444F"/>
<path d="M6 0C2.68629 0 0 2.68629 0 6V6.17428L29.9144 1.45264C28.8637 0.547333 27.4958 0 26 0H6Z" fill="#E12E3A"/>
<path d="M30.5319 2.06775L25.0444 32L26 32C29.3137 32 32 29.3137 32 26V6C32 4.49576 31.4465 3.12081 30.5319 2.06775Z" fill="#E12E3A"/>
<path d="M9.54378 19.0663C9.64645 19.0756 9.76312 19.0849 9.89379 19.0943C10.0338 19.0943 10.1971 19.0943 10.3838 19.0943C11.4758 19.0943 12.2832 18.8189 12.8058 18.2682C13.3378 17.7176 13.6038 16.9569 13.6038 15.9862C13.6038 14.9689 13.3518 14.1989 12.8478 13.6762C12.3438 13.1535 11.5458 12.8922 10.4538 12.8922C10.3045 12.8922 10.1505 12.8968 9.99179 12.9062C9.83312 12.9062 9.68379 12.9155 9.54378 12.9342V19.0663ZM15.8579 15.9862C15.8579 16.8262 15.7272 17.5589 15.4659 18.1842C15.2045 18.8096 14.8312 19.3276 14.3459 19.7383C13.8698 20.1489 13.2865 20.4569 12.5958 20.6623C11.9051 20.8676 11.1305 20.9703 10.2718 20.9703C9.87979 20.9703 9.42245 20.9516 8.89977 20.9143C8.3771 20.8863 7.86376 20.821 7.35975 20.7183V11.2682C7.86376 11.1748 8.38643 11.1141 8.92777 11.0861C9.47845 11.0488 9.94979 11.0301 10.3418 11.0301C11.1725 11.0301 11.9238 11.1235 12.5958 11.3102C13.2772 11.4968 13.8605 11.7908 14.3459 12.1922C14.8312 12.5935 15.2045 13.1068 15.4659 13.7322C15.7272 14.3575 15.8579 15.1089 15.8579 15.9862Z" fill="white"/>
<path d="M20.2162 20.9703C19.6842 20.9703 19.1522 20.9516 18.6202 20.9143C18.0975 20.8863 17.5515 20.8116 16.9822 20.6903V11.2822C17.4302 11.1981 17.9202 11.1375 18.4522 11.1001C18.9842 11.0535 19.4789 11.0301 19.9362 11.0301C20.5522 11.0301 21.1169 11.0768 21.6302 11.1701C22.1529 11.2542 22.6009 11.4035 22.9742 11.6182C23.3476 11.8328 23.6369 12.1175 23.8423 12.4722C24.0569 12.8175 24.1643 13.2468 24.1643 13.7602C24.1643 14.5349 23.7909 15.1462 23.0442 15.5942C23.6602 15.8275 24.0803 16.1449 24.3043 16.5462C24.5283 16.9476 24.6403 17.4002 24.6403 17.9042C24.6403 18.9216 24.2669 19.6869 23.5202 20.2003C22.7829 20.7136 21.6816 20.9703 20.2162 20.9703ZM19.1102 16.6162V19.1223C19.2689 19.1409 19.4415 19.1549 19.6282 19.1643C19.8149 19.1736 20.0202 19.1783 20.2442 19.1783C20.8975 19.1783 21.4249 19.0849 21.8262 18.8983C22.2276 18.7116 22.4282 18.3663 22.4282 17.8622C22.4282 17.4142 22.2602 17.0969 21.9242 16.9102C21.5882 16.7142 21.1075 16.6162 20.4822 16.6162H19.1102ZM19.1102 14.9502H20.1742C20.8462 14.9502 21.3269 14.8662 21.6162 14.6982C21.9056 14.5209 22.0502 14.2409 22.0502 13.8582C22.0502 13.4662 21.9009 13.1908 21.6022 13.0322C21.3035 12.8735 20.8649 12.7942 20.2862 12.7942C20.0995 12.7942 19.8989 12.7988 19.6842 12.8082C19.4695 12.8082 19.2782 12.8175 19.1102 12.8362V14.9502Z" fill="white"/>
</g>
<defs>
<clipPath id="clip0_496_18530">
<rect width="32" height="32" fill="white"/>
</clipPath>
</defs>
</svg>
