<svg width="48" height="49" viewBox="0 0 48 49" fill="none" xmlns="http://www.w3.org/2000/svg">
<g clip-path="url(#clip0_1574_4647)">
<rect y="0.59082" width="48" height="48" fill="#0A559E"/>
<path d="M46.0002 2.59082L-1.99981 10.1671L-10.7998 50.5908H37.2002L46.0002 2.59082Z" fill="#0364B9"/>
<g filter="url(#filter0_d_1574_4647)">
<path d="M11.0192 18.6168C11.2352 19.0128 11.4812 19.5048 11.7572 20.0928C12.0452 20.6688 12.3392 21.2988 12.6392 21.9828C12.9512 22.6548 13.2572 23.3448 13.5572 24.0528C13.8572 24.7608 14.1392 25.4268 14.4032 26.0508C14.6672 25.4268 14.9492 24.7608 15.2492 24.0528C15.5492 23.3448 15.8492 22.6548 16.1492 21.9828C16.4612 21.2988 16.7552 20.6688 17.0312 20.0928C17.3192 19.5048 17.5712 19.0128 17.7872 18.6168H20.3432C20.4632 19.4448 20.5712 20.3748 20.6672 21.4068C20.7752 22.4268 20.8652 23.4948 20.9372 24.6108C21.0212 25.7148 21.0932 26.8248 21.1532 27.9408C21.2252 29.0568 21.2852 30.1068 21.3332 31.0908H18.5972C18.5612 29.8788 18.5132 28.5588 18.4532 27.1308C18.3932 25.7028 18.3032 24.2628 18.1832 22.8108C17.9672 23.3148 17.7272 23.8728 17.4632 24.4848C17.1992 25.0968 16.9352 25.7088 16.6712 26.3208C16.4192 26.9328 16.1732 27.5208 15.9332 28.0848C15.6932 28.6368 15.4892 29.1108 15.3212 29.5068H13.3592C13.1912 29.1108 12.9872 28.6368 12.7472 28.0848C12.5072 27.5208 12.2552 26.9328 11.9912 26.3208C11.7392 25.7088 11.4812 25.0968 11.2172 24.4848C10.9532 23.8728 10.7132 23.3148 10.4972 22.8108C10.3772 24.2628 10.2872 25.7028 10.2272 27.1308C10.1672 28.5588 10.1192 29.8788 10.0832 31.0908H7.34719C7.39519 30.1068 7.44919 29.0568 7.50919 27.9408C7.58119 26.8248 7.65319 25.7148 7.72519 24.6108C7.80919 23.4948 7.89919 22.4268 7.99519 21.4068C8.10319 20.3748 8.21719 19.4448 8.33719 18.6168H11.0192ZM32.0377 18.6168V21.0108H28.2757V31.0908H25.4677V21.0108H21.7057V18.6168H32.0377ZM37.9823 27.4188C37.9823 27.0708 37.9043 26.7648 37.7483 26.5008C37.5923 26.2248 37.3223 25.9968 36.9383 25.8168C36.5543 25.6368 36.0383 25.4988 35.3903 25.4028C34.7423 25.3068 33.9263 25.2588 32.9423 25.2588C33.0743 24.1428 33.1823 23.0088 33.2663 21.8568C33.3503 20.7048 33.4163 19.6248 33.4643 18.6168H40.2143V20.8668H35.7143C35.6903 21.2988 35.6603 21.7188 35.6243 22.1268C35.6003 22.5228 35.5703 22.8708 35.5343 23.1708C37.2863 23.2908 38.5763 23.7048 39.4043 24.4128C40.2443 25.1088 40.6643 26.0808 40.6643 27.3288C40.6643 27.9048 40.5623 28.4388 40.3583 28.9308C40.1543 29.4228 39.8483 29.8488 39.4403 30.2088C39.0323 30.5688 38.5163 30.8508 37.8923 31.0548C37.2803 31.2588 36.5603 31.3608 35.7323 31.3608C35.4083 31.3608 35.0663 31.3368 34.7063 31.2888C34.3583 31.2528 34.0163 31.1988 33.6803 31.1268C33.3563 31.0668 33.0623 31.0008 32.7983 30.9288C32.5343 30.8568 32.3303 30.7848 32.1863 30.7128L32.6723 28.4988C32.9723 28.6308 33.3683 28.7628 33.8603 28.8948C34.3523 29.0148 34.9403 29.0748 35.6243 29.0748C36.4523 29.0748 37.0523 28.9128 37.4243 28.5888C37.7963 28.2528 37.9823 27.8628 37.9823 27.4188Z" fill="white"/>
</g>
</g>
<defs>
<filter id="filter0_d_1574_4647" x="5.34766" y="17.6172" width="37.3164" height="16.7432" filterUnits="userSpaceOnUse" color-interpolation-filters="sRGB">
<feFlood flood-opacity="0" result="BackgroundImageFix"/>
<feColorMatrix in="SourceAlpha" type="matrix" values="0 0 0 0 0 0 0 0 0 0 0 0 0 0 0 0 0 0 127 0" result="hardAlpha"/>
<feOffset dy="1"/>
<feGaussianBlur stdDeviation="1"/>
<feColorMatrix type="matrix" values="0 0 0 0 0.054902 0 0 0 0 0.054902 0 0 0 0 0.054902 0 0 0 0.05 0"/>
<feBlend mode="normal" in2="BackgroundImageFix" result="effect1_dropShadow_1574_4647"/>
<feBlend mode="normal" in="SourceGraphic" in2="effect1_dropShadow_1574_4647" result="shape"/>
</filter>
<clipPath id="clip0_1574_4647">
<rect y="0.59082" width="48" height="48" rx="9" fill="white"/>
</clipPath>
</defs>
</svg>
