<svg width="34" height="36" viewBox="0 0 34 36" fill="none" xmlns="http://www.w3.org/2000/svg">
<path d="M31 8H30V7C30 5.35 28.65 4 27 4H26V3C26 1.35 24.65 0 23 0H1C0.45 0 0 0.45 0 1V25C0 26.65 1.35 28 3 28H4V29C4 30.65 5.35 32 7 32H8V33C8 34.65 9.35 36 11 36H31C32.65 36 34 34.65 34 33V11C34 9.35 32.65 8 31 8ZM3 26C2.45 26 2 25.55 2 25V2H23C23.55 2 24 2.45 24 3V4H5C4.45 4 4 4.45 4 5V26H3ZM7 30C6.45 30 6 29.55 6 29V6H27C27.55 6 28 6.45 28 7V8H9C8.45 8 8 8.45 8 9V30H7ZM32 33C32 33.55 31.55 34 31 34H11C10.45 34 10 33.55 10 33V10H31C31.55 10 32 10.45 32 11V33ZM28.27 22V29C28.27 29.55 27.82 30 27.27 30C26.72 30 26.27 29.55 26.27 29V22C26.27 21.45 26.72 21 27.27 21C27.82 21 28.27 21.45 28.27 22ZM24.27 27V29C24.27 29.55 23.82 30 23.27 30C22.72 30 22.27 29.55 22.27 29V27C22.27 26.45 22.72 26 23.27 26C23.82 26 24.27 26.45 24.27 27ZM20.27 25V29C20.27 29.55 19.82 30 19.27 30C18.72 30 18.27 29.55 18.27 29V25C18.27 24.45 18.72 24 19.27 24C19.82 24 20.27 24.45 20.27 25ZM16.27 23V29C16.27 29.55 15.82 30 15.27 30C14.72 30 14.27 29.55 14.27 29V23C14.27 22.45 14.72 22 15.27 22C15.82 22 16.27 22.45 16.27 23ZM28.26 14.96C28.26 14.96 28.26 14.98 28.26 15V17C28.26 17.55 27.81 18 27.26 18C26.83 18 26.47 17.73 26.33 17.34L21.97 21.7C21.77 21.9 21.52 21.99 21.26 21.99C21 21.99 20.75 21.89 20.55 21.7L17.26 18.41L16.24 19.43C15.98 19.69 15.8033 19.8433 15.71 19.89C15.22 20.14 14.62 19.94 14.37 19.44C14.17 19.04 14.27 18.56 14.58 18.27L16.56 16.29C16.95 15.9 17.58 15.9 17.97 16.29L21.26 19.58L24.91 15.93C24.53 15.79 24.26 15.42 24.26 14.99C24.26 14.44 24.71 13.99 25.26 13.99H27.26C27.38 13.99 27.5 14.02 27.61 14.06C27.64 14.07 27.67 14.09 27.71 14.11C27.79 14.15 27.85 14.19 27.92 14.25C27.95 14.27 27.97 14.29 28 14.32C28.07 14.4 28.13 14.48 28.18 14.58C28.18 14.58 28.19 14.6 28.2 14.61C28.25 14.72 28.26 14.84 28.27 14.96H28.26Z" fill="#414652"/>
</svg>
