<svg width="64" height="64" viewBox="0 0 64 64" fill="none" xmlns="http://www.w3.org/2000/svg">
<path d="M0 12C0 5.37258 5.37258 0 12 0H52C58.6274 0 64 5.37258 64 12V52C64 58.6274 58.6274 64 52 64H12C5.37258 64 0 58.6274 0 52V12Z" fill="#E22526"/>
<path d="M12 0C5.37258 0 0 5.37258 0 12V12.3486L59.8289 2.90529C57.7274 1.09467 54.9915 0 52 0H12Z" fill="#B51E1E"/>
<path d="M61.0639 4.13549L50.0887 63.9999L52 64C58.6274 64 64 58.6274 64 52V12C64 8.99153 62.8929 6.24163 61.0639 4.13549Z" fill="#B51E1E"/>
<path d="M18.0136 34.1421C18.0136 33.0781 18.1816 32.0794 18.5176 31.1461C18.8723 30.1941 19.3763 29.3727 20.0296 28.6821C20.6829 27.9727 21.4763 27.4127 22.4096 27.0021C23.3429 26.5914 24.4069 26.3861 25.6016 26.3861C26.3856 26.3861 27.1043 26.4607 27.7576 26.6101C28.4109 26.7407 29.0456 26.9367 29.6616 27.1981L28.7936 30.5301C28.4016 30.3807 27.9723 30.2501 27.5056 30.1381C27.0389 30.0261 26.5163 29.9701 25.9376 29.9701C24.7056 29.9701 23.7816 30.3527 23.1656 31.1181C22.5683 31.8834 22.2696 32.8914 22.2696 34.1421C22.2696 35.4674 22.5496 36.4941 23.1096 37.2221C23.6883 37.9501 24.6869 38.3141 26.1056 38.3141C26.6096 38.3141 27.1509 38.2674 27.7296 38.1741C28.3083 38.0807 28.8403 37.9314 29.3256 37.7261L29.9136 41.1421C29.4283 41.3474 28.8216 41.5247 28.0936 41.6741C27.3656 41.8234 26.5629 41.8981 25.6856 41.8981C24.3416 41.8981 23.1843 41.7021 22.2136 41.3101C21.2429 40.8994 20.4403 40.3487 19.8056 39.6581C19.1896 38.9674 18.7323 38.1554 18.4336 37.2221C18.1536 36.2701 18.0136 35.2434 18.0136 34.1421Z" fill="white"/>
<path d="M45.9856 22.1021V25.8261H40.1336V41.5061H35.7656V25.8261H29.9136V22.1021H45.9856Z" fill="white"/>
</svg>
