<svg xmlns="http://www.w3.org/2000/svg" width="48" height="48"><defs><linearGradient id="a" x1="50%" x2="50%" y1="0%" y2="100%"><stop offset="0%" stop-color="#FF6444"/><stop offset="100%" stop-color="#FF444F"/></linearGradient></defs><g fill="none" fill-rule="evenodd"><path d="M0 0h48v48H0z"/><path fill="url(#a)" fill-rule="nonzero" d="M24 1.5c9.06 0 16.703 6.061 19.097 14.35l-.161-.027a6.001 6.001 0 01-.173 11.879l.089-.012a19.93 19.93 0 01-12.855 12.64l.002.075.001.095a6 6 0 11-12 0l.004-.211-.002.04A19.923 19.923 0 015.15 27.689l.021.004a6 6 0 01-.215-11.853l-.053.01C7.297 7.561 14.94 1.5 24 1.5zM24 36a4.5 4.5 0 100 9 4.5 4.5 0 000-9zm0-33C15.806 3 8.865 8.363 6.495 15.77h-.011a6 6 0 01.225 11.939l.036-.005a18.422 18.422 0 0011.492 11.124l.017-.06a6.003 6.003 0 0111.52.096l-.01-.036a18.424 18.424 0 0011.492-11.124l-.143-.02a5.999 5.999 0 01.403-11.914h-.012C39.134 8.363 32.194 3 24 3zm.345 9c2.925 0 5.155 2.283 5.155 5.277 0 1.88-.881 3.465-2.269 4.38C30.269 23.031 32.5 26.383 32.5 30a.75.75 0 01-.75.75h-15A.75.75 0 0116 30c0-3.65 2.272-7.03 5.352-8.38A5.185 5.185 0 0119 17.25c0-2.945 2.368-5.25 5.345-5.25zM24 22.5c-3.342 0-6.341 3.124-6.712 6.75h13.424l-.024-.2C30.23 25.51 27.28 22.5 24 22.5zM6 17.25a4.5 4.5 0 100 9 4.5 4.5 0 000-9zm36 0a4.5 4.5 0 100 9 4.5 4.5 0 000-9zM24.095 13.5c-2.157 0-3.845 1.642-3.845 3.75S21.938 21 24.095 21c2.106 0 3.655-1.567 3.655-3.723 0-2.173-1.566-3.777-3.655-3.777z"/></g></svg>