<svg xmlns="http://www.w3.org/2000/svg" width="48" height="48"><defs><linearGradient id="a" x1="50%" x2="50%" y1="0%" y2="100%"><stop offset="0%" stop-color="#FF6444"/><stop offset="100%" stop-color="#FF444F"/></linearGradient></defs><g fill="none" fill-rule="evenodd"><path d="M0 0h48v48H0z"/><path fill="url(#a)" fill-rule="nonzero" d="M12.75 5.25a.75.75 0 010 1.5H4.5V46.5h33V29.746l-.156.274-3.39 2.657a1.52 1.52 0 01-2.13-.255 1.51 1.51 0 01-.315-1.101l.487-4.374 5.505-10.343L37.5 6.75h-8.25a.75.75 0 010-1.5h8.25a1.5 1.5 0 011.5 1.5v7.037l1.834-3.446c.681-1.082 2.77-.524 4.011.438l.114.092.32.268c1.137.989 1.543 1.879.95 3.18l-.071.147c-.3.6-1.657 3.016-4.081 7.273L39 27.12V46.5a1.5 1.5 0 01-1.5 1.5h-33A1.5 1.5 0 013 46.5V6.75a1.5 1.5 0 011.5-1.5h8.25zM11.25 36a.75.75 0 110 1.5.75.75 0 010-1.5zm16.368 0c.487 0 .882.336.882.75 0 .382-.337.698-.772.744l-.11.006H14.382c-.487 0-.882-.336-.882-.75 0-.382.337-.698.772-.744l.11-.006h13.236zm5.773-7.999L33 31.5l2.975-2.324-2.584-1.175zM11.25 28.5a.75.75 0 110 1.5.75.75 0 010-1.5zm16.368 0c.487 0 .882.336.882.75 0 .382-.337.698-.772.744l-.11.006H14.382c-.487 0-.882-.336-.882-.75 0-.382.337-.698.772-.744l.11-.006h13.236zm13.126-14.74l-6.847 12.824 2.913 1.324 5.943-10.383c.432-.762.8-1.413 1.102-1.951l-3.111-1.814zM11.25 21a.75.75 0 110 1.5.75.75 0 010-1.5zm16.368 0c.487 0 .882.336.882.75 0 .382-.337.698-.772.744l-.11.006H14.382c-.487 0-.882-.336-.882-.75 0-.382.337-.698.772-.744l.11-.006h13.236zM11.25 13.5a.75.75 0 110 1.5.75.75 0 010-1.5zm16.368 0c.487 0 .882.336.882.75 0 .382-.337.698-.772.744l-.11.006H14.382c-.487 0-.882-.336-.882-.75 0-.382.337-.698.772-.744l.11-.006h13.236zm14.467-2.25l-.635 1.187 3.133 1.825c.093-.169.165-.303.216-.403l.09-.18c.242-.54.105-.836-.56-1.407l-.122-.104-.183-.151c-.303-.251-.882-.537-1.397-.68a2.38 2.38 0 00-.457-.085l-.085-.002zM21.012 0a3.34 3.34 0 013.158 2.25h2.08A.75.75 0 0127 3v3a.75.75 0 01-.75.75h-10.5A.75.75 0 0115 6V3a.75.75 0 01.75-.75h2.104A3.341 3.341 0 0121.012 0zm0 1.5a1.84 1.84 0 00-1.74 1.24l-.35 1.01H16.5v1.5h9v-1.5h-2.4l-.348-1.01a1.841 1.841 0 00-1.74-1.24z"/></g></svg>