<svg xmlns="http://www.w3.org/2000/svg" width="64" height="64"><defs><linearGradient id="a" x1="87.681%" x2="-13.226%" y1="-46.506%" y2="92.431%"><stop offset="0%" stop-color="#FF8268"/><stop offset="100%" stop-color="#FF4449"/></linearGradient></defs><g fill="none" fill-rule="evenodd"><path d="M-7-8h64v64H-7z"/><path fill="url(#a)" fill-rule="nonzero" d="M32 8c13.255 0 24 10.745 24 24 0 1.208-.09 2.395-.261 3.555a3 3 0 01-1.555 5.44l.077-.006C50.703 49.789 42.077 56 32 56 18.745 56 8 45.255 8 32c0-1.208.09-2.395.261-3.555a3 3 0 011.555-5.44l-.077.006C13.297 14.211 21.923 8 32 8zm4.978 36h-9.956c1.142 6 3.08 10 4.978 10 1.898 0 3.836-4 4.978-10zm6.74 0h-4.662c-.682 3.8-1.712 6.94-3.011 9.053 3.163-1.517 5.88-4.762 7.673-9.052zm-18.774 0h-4.662c1.792 4.291 4.51 7.535 7.672 9.052-1.298-2.114-2.328-5.253-3.01-9.051zm-6.818 0l-4.568.001a22.084 22.084 0 009.806 8.24c-2.162-2.074-3.96-4.906-5.238-8.24zm32.316.001h-4.568c-1.278 3.333-3.075 6.164-5.236 8.238l.24-.104a22.087 22.087 0 009.564-8.134zM44.462 22h-5.236c.463 2.909.73 6.165.769 9.616L40 32.5l-.005.884c-.005.454-.014.906-.027 1.353l.034.029a2.997 2.997 0 01-.35 4.738l.02-.013a61.287 61.287 0 01-.297 2.51h5.086c.315-.96.586-1.963.81-3h2.042a32.19 32.19 0 01-.754 3H51.6c.254-.498.49-1.006.707-1.524a3 3 0 011.516-5.472L54 35c-.07 0-.138.002-.206.007C53.93 34.025 54 33.02 54 32c0-3.6-.865-7-2.399-10H46.56c.926 3.05 1.44 6.439 1.44 10 0 1.713-.119 3.386-.345 5h-2.021c.24-1.604.366-3.278.366-5 0-3.61-.557-7.006-1.539-10zM24 21.999h-4.461A31.28 31.28 0 0018.13 29h-2.007c.204-2.466.655-4.82 1.318-7h-5.042c-.255.498-.49 1.006-.707 1.524l.053.035a3 3 0 01-1.569 5.435L10 29c.07 0 .138-.002.206-.007A21.903 21.903 0 0010 32c0 3.601.865 7 2.4 10h5.041C16.514 38.95 16 35.562 16 32c0-.335.005-.668.014-1h2c-.01.332-.014.665-.014 1 0 3.61.557 7.006 1.539 10.001h5.086c-.371-2.648-.585-5.556-.62-8.617L24 32.5l.005-.884c.03-2.588.187-5.067.46-7.372l.065-.54.009.012A2.986 2.986 0 0124 22v-.001zM27 25c-.214 0-.423-.022-.624-.065l.05.01a65.576 65.576 0 00-.42 6.694L26 32.5l.005.861a64.32 64.32 0 00.678 8.64h10.634c.099-.658.188-1.335.267-2.03l.033.005A3 3 0 0138 34h-.018c.006-.21.01-.424.013-.639L38 32.5l-.005-.861c-.044-3.486-.35-6.765-.837-9.639H30a3 3 0 01-3 3zm27 12a1 1 0 100 2 1 1 0 000-2zm-16-1a1 1 0 100 2 1 1 0 000-2zM10 25a1 1 0 100 2 1 1 0 000-2zm17-4a1 1 0 100 2 1 1 0 000-2zm5-10c-1.682 0-3.396 3.142-4.559 8.033l.08.012a2.996 2.996 0 011.713.953l.002.002h7.54c-1.16-5.44-2.985-9-4.776-9zm-2.972-.494l-.049.017c-3.599 1.263-6.714 4.73-8.698 9.477h4.483c.142-.159.299-.3.47-.425l-.014.009.01-.042c.873-4.092 2.176-7.281 3.798-9.036zm11.608 1.254l.07.067c2.131 2.068 3.904 4.875 5.168 8.174L50.442 20a22.084 22.084 0 00-9.806-8.24zm-5.664-1.254l.023.024c1.67 1.826 3.002 5.177 3.87 9.47h4.854c-1.993-4.77-5.128-8.246-8.747-9.494zm-11.608 1.253l-.242.106A22.087 22.087 0 0013.558 20h4.568c1.278-3.334 3.076-6.166 5.238-8.24z" transform="translate(-7 -8)"/></g></svg>