<svg xmlns="http://www.w3.org/2000/svg" width="64" height="64"><defs><linearGradient id="a" x1="0%" y1="100%" y2="0%"><stop offset="0%" stop-color="#FF444F"/><stop offset="100%" stop-color="#FF6444"/></linearGradient></defs><g fill="none" fill-rule="evenodd"><path d="M0 0h64v64H0z"/><path fill="url(#a)" d="M42.764 27a2 2 0 01.725.136l.17.075L53.235 32H62a2 2 0 011.995 1.85L64 34v18a2 2 0 01-1.85 1.995L62 54h-4a1 1 0 01-.117-1.993L58 52h4V34h-8.764a2 2 0 01-.725-.136l-.17-.075L42.765 29l-8.32.002c-2.234 2.49-4.01 4.528-5.328 6.11l-.227.275-.401.489-.368.456c-.618.774-1.075 1.388-1.366 1.833l-.091.142-.01.014a8.62 8.62 0 001.778.98c1.304.518 2.51.564 3.539.026 1.424-.747 2.678-2.005 3.757-3.797a2 2 0 013.38-.074c.984 1.485 2.007 2.548 3.057 3.198.935.58 1.62.746 3.048.83l.296.016.502.028c.766.05 1.208.122 1.749.302 1.68.56 7.662 7.62 9.17 10.05.985 1.587.354 2.879-1.26 4.031-1.755 1.255-2.88 1.561-4.71.647a2.957 2.957 0 01-.317-.188c-.248.574-.526 1.037-.845 1.393-.762.852-2.14 1.325-3.342 1.269l-.263-.022c-.343 1.258-.874 2.158-1.64 2.685-1.237.852-3.735.607-5.174-.006a1.05 1.05 0 01-.183-.107c-.276.672-.622 1.206-1.05 1.6-.966.887-4.113.897-5.683.378C31.672 62.827 30.158 64 29 64a3.02 3.02 0 01-3-3c0-.466.19-.99.499-1.5-.51.31-1.033.5-1.499.5a3.02 3.02 0 01-3-3c0-.102.01-.208.027-.315-.372.2-.723.315-1.027.315-1.732 0-3.5-1.74-3.5-3.5 0-.193.04-.41.112-.643a2.21 2.21 0 01-.751.114c-1.999-.07-2.95-1.461-2.894-3.102.058-1.642 2.174-4.928 4.172-4.858 2 .07 3.45 1.48 3.394 3.12a1.816 1.816 0 01-.013.159c.355-.184.689-.29.98-.29 1.732 0 3.5 1.74 3.5 3.5 0 .432-.197.985-.521 1.571.179-.047.354-.071.521-.071 1.642 0 3 1.358 3 3 0 .466-.19.99-.5 1.5.51-.31 1.034-.5 1.5-.5 1.513 0 2.784 1.152 2.975 2.617l.077.034c.82.306 3.42.352 3.739.058.31-.285.595-.848.818-1.693l-.454-.512c-.96-1.094-2.237-2.622-3.895-4.648l-.566-.695-1.604-1.974a1 1 0 111.555-1.259l2.59 3.176c2.937 3.568 4.767 5.676 4.928 5.745.868.37 2.74.554 3.255.198.405-.278.762-1.01.995-2.219l-.31-.281c-.966-.892-2.249-2.213-3.935-4.034l-1.501-1.635-1.737-1.916a1 1 0 111.485-1.34l1.497 1.652a200.375 200.375 0 003.642 3.905l.483.498.634.641.427.42c.338.329.63.602.876.82l.251.215.19.151.15.108.049.004c.572.008 1.25-.21 1.604-.52l.088-.086c.247-.276.499-.769.734-1.47-1.111-1.132-2.568-2.827-4.403-5.114l-.31-.387-1.077-1.362-1.13-1.45a1 1 0 011.582-1.224c4.392 5.673 7.223 8.882 8.152 9.346 1.004.502 1.436.384 2.653-.485.866-.619 1.003-.899.723-1.35-1.244-2.004-7.05-8.856-8.104-9.207a3.515 3.515 0 00-.736-.158l-.187-.02-.377-.028-.75-.041c-1.73-.104-2.687-.333-3.966-1.126-1.223-.758-2.362-1.905-3.426-3.433l-.244-.36-.225.363c-1.212 1.904-2.65 3.301-4.317 4.174-2.813 1.474-6.275.099-8.11-1.736-.899-.9.114-2.56 4.607-7.694l.254-.289 1.324-1.497.789-.882H18.259l-8.547 4.748a2 2 0 01-.768.242L8.74 34H1a1 1 0 01-.117-1.993L1 32h7.74l8.548-4.748a2 2 0 01.768-.242l.203-.01h24.505zM30 59c-.538 0-2 1.462-2 2s.462 1 1 1 2-1.462 2-2-.462-1-1-1zm-4-4c-.538 0-2 1.462-2 2s.462 1 1 1 2-1.462 2-2-.462-1-1-1zm-3.5-5c-.535 0-3 2.755-3 3.5 0 .643.861 1.5 1.5 1.5.535 0 3-2.755 3-3.5 0-.643-.861-1.5-1.5-1.5zM1.97 44.214l.021.115.008.19L2 51h9a1 1 0 01.117 1.993L11 53H1.5c-.697 0-1.41-.7-1.492-1.374L0 51.5v-6.946l.007.034L0 44.472a1 1 0 011.97-.258zm16.1 2.796c-.136-.005-.64.336-1.162 1.01-.55.714-.93 1.572-.942 1.918-.025.708.233 1.01.965 1.035.652.022 2.575-2.117 2.603-2.911.017-.497-.542-1.02-1.464-1.052zM44 0a2 2 0 012 2v18a2 2 0 01-2 2H31.45l-2.266 2.563a1.85 1.85 0 01-3.234-1.266L25.978 22H20a2 2 0 01-2-2V2a2 2 0 012-2h24zm0 2H20v18h6.022a2 2 0 011.955 2.044l-.019.886 1.994-2.255A2 2 0 0131.451 20H44V2zm-6.747 3.336a1 1 0 111.494 1.328l-8 9a1 1 0 01-1.347.136l-4-3a1 1 0 011.2-1.6l3.264 2.448z"/></g></svg>