<svg xmlns="http://www.w3.org/2000/svg" width="64" height="64"><defs><linearGradient id="a" x1="50%" x2="50%" y1=".347%" y2="99.826%"><stop offset="0%" stop-color="#FF6444"/><stop offset="99.913%" stop-color="#FF444F"/></linearGradient></defs><g fill="none" fill-rule="evenodd"><path d="M0 0h64v64H0z"/><path fill="url(#a)" d="M32.553 13.942c-1.221 0-2.435.17-3.608.507-4.804 1.375-8.334 4.826-9.687 9.47-1.375 4.726-.275 10.022 2.802 13.491.465.524.939 1.038 1.414 1.553.474.511.914.99 1.347 1.474 1.105 1.235 1.693 2.52 1.796 3.93l.067.89c.077 1.02.146 1.947.187 2.877.042.931.249 1.132 1.162 1.134l7.31.002c.603 0 1.204 0 1.807-.004.684-.004.949-.267.975-.97l.032-.778c.024-.544.044-1 .05-1.457.036-2.678.935-4.797 2.748-6.478.299-.277.574-.578.847-.879.168-.183.334-.366.505-.542 3.205-3.328 4.499-7.518 3.843-12.449-.881-6.6-6.853-11.77-13.597-11.77m-3.351 45.926l6.606.001c.64.002 1.025.393 1.03 1.044.002.3-.08.557-.235.743-.187.221-.467.34-.814.34L32.413 62l-3.231-.004c-.628 0-1.022-.406-1.027-1.056-.002-.305.075-.553.228-.736.183-.218.466-.333.819-.335zm7.418-3.196c.797.003 1.276.394 1.283 1.045a.982.982 0 01-.293.743c-.232.221-.582.338-1.013.339l-4.205.004-4.024-.004c-.782-.002-1.272-.406-1.279-1.056-.003-.305.092-.554.284-.737.227-.217.58-.333 1.02-.334h8.227zm-1.397-3.462c.614 0 1.227 0 1.841.004.497.002.895.118 1.15.335a.9.9 0 01.314.727c-.005.651-.576 1.059-1.49 1.06-1.509.003-3.018.005-4.527.005l-4.523-.003c-.522-.002-.938-.12-1.203-.346a.901.901 0 01-.32-.733c.003-.938 1.042-1.043 1.488-1.045l7.27-.005zm-2.67-41.269c7.726 0 14.569 5.933 15.579 13.506.74 5.566-.735 10.311-4.387 14.104-.16.165-.312.332-.464.5a16.23 16.23 0 01-.967.997c-1.408 1.307-2.078 2.91-2.107 5.04-.007.476-.027.952-.048 1.428l-.036.857c-.065 1.772-1.2 2.881-2.962 2.892-.606.003-1.212.004-1.818.004l-7.311-.002c-1.977-.004-3.068-1.056-3.16-3.044-.04-.91-.107-1.818-.175-2.726l-.074-.985c-.07-.952-.493-1.849-1.294-2.743a102.04 102.04 0 00-1.291-1.414c-.517-.56-1.002-1.085-1.474-1.619-3.523-3.97-4.788-10.007-3.226-15.377 1.549-5.317 5.578-9.266 11.056-10.834a15.115 15.115 0 014.159-.584zM16.918 41.831l1.503 1.503-.614.616c-.822.826-1.644 1.652-2.474 2.469-.529.52-1.162.568-1.619.11-.453-.462-.402-1.085.133-1.625.569-.574 1.141-1.146 1.714-1.717l1.357-1.356zm31.156 0l1.357 1.356c.573.57 1.145 1.143 1.714 1.717.535.54.586 1.163.133 1.625-.457.458-1.09.41-1.619-.11-.83-.817-1.652-1.643-2.474-2.47l-.614-.615 1.503-1.503zM11.718 26.28l.87.002v2.125h-1.919c-.809.001-1.617.002-2.426 0-.76-.004-1.237-.409-1.243-1.057 0-.646.48-1.06 1.223-1.067 1.165-.008 2.33-.006 3.495-.003zm43.304-.002l1.747.005c.743.006 1.223.421 1.223 1.067-.006.648-.483 1.053-1.243 1.056-.809.003-1.617.002-2.426.001h-1.919v-2.125l.87-.002c1.165-.003 2.33-.005 3.495.003zM15.333 9.328c.83.817 1.652 1.643 2.474 2.469l.614.616-1.503 1.503-1.357-1.356a396.328 396.328 0 01-1.714-1.717c-.535-.54-.586-1.163-.133-1.625.457-.458 1.09-.411 1.619.11zm34.326 0c.53-.521 1.162-.568 1.62-.11.452.462.401 1.085-.134 1.625-.569.574-1.14 1.146-1.714 1.717l-1.357 1.356-1.503-1.503.614-.616c.822-.826 1.644-1.652 2.474-2.47zM32.49 2c.646 0 1.06.48 1.067 1.223.009 1.165.006 2.33.003 3.496l-.002.869h-2.125V5.67c-.001-.809-.002-1.618 0-2.426.005-.761.409-1.237 1.057-1.244z"/></g></svg>