<svg xmlns="http://www.w3.org/2000/svg" width="48" height="48"><defs><linearGradient id="a" x1="0%" x2="100%" y1="100%" y2="0%"><stop offset="0%" stop-color="#FF444F"/><stop offset="100%" stop-color="#FF6444"/></linearGradient></defs><path fill="url(#a)" fill-rule="evenodd" d="M39.75 0c.804 0 1.5.804 1.5 1.5v20.587l4.63-3.285-2.766-1.659a.75.75 0 01-.304-.938l.047-.09a.75.75 0 011.029-.258l3.75 2.25.022.013c.021.014.042.03.063.046l.035.03a.77.77 0 01.106.12l-.064-.078a.442.442 0 01.04.048l.024.03.004.007c.012.016.022.033.032.05.01.016.018.032.027.049l.01.024a.49.49 0 01.031.08l.01.034c.006.022.01.045.014.067.007.04.01.081.01.123l-.004-.078.004.06V47.25a.75.75 0 01-.75.75H.75a.75.75 0 01-.75-.75V18.74c0-.023.002-.048.005-.074l.005-.039c.004-.022.008-.045.014-.067l.01-.034a.595.595 0 01.03-.08l.011-.023a.883.883 0 01.063-.107l-.036.057a.529.529 0 01.032-.05l.027-.038.04-.047.043-.042a.894.894 0 01.12-.09l-.085.06a.742.742 0 01.064-.046l.021-.013 3.75-2.25a.752.752 0 01.772 1.287L2.12 18.801l4.63 3.286V1.5c0-.655.617-1.406 1.36-1.492L8.25 0zm6.75 20.201L29.993 31.916 40.26 41.45a.75.75 0 01-1.02 1.1l-10.497-9.747-4.309 3.059a.751.751 0 01-.767.06l-.101-.06-4.31-3.059L8.76 42.55a.75.75 0 01-.978.036L7.7 42.51a.75.75 0 01.04-1.06l10.266-9.534L1.5 20.202V46.5h45V20.201zM39.75 1.5H8.25v21.653L24 34.33l15.75-11.178V1.5zM24 5.25c5.53 0 9.75 4.467 9.747 10.193-.177 1.931-.97 3.202-2.398 3.648-1.175.367-2.216-.116-3.107-1.311A4.876 4.876 0 1124 10.5a4.875 4.875 0 014.848 5.392c.739 1.477 1.412 1.967 2.053 1.767.77-.24 1.226-.97 1.349-2.284 0-4.848-3.568-8.625-8.25-8.625-4.608 0-8.25 4.068-8.25 9 0 4.763 3.487 8.25 8.25 8.25a.75.75 0 010 1.5c-5.592 0-9.75-4.158-9.75-9.75 0-5.726 4.274-10.5 9.75-10.5zM24 12a3.375 3.375 0 100 6.75A3.375 3.375 0 0024 12z"/></svg>