<svg width="32" height="32" fill="none" xmlns="http://www.w3.org/2000/svg"><path d="M17 11a1 1 0 1 1 2 0v15a1 1 0 1 1-2 0V11ZM7 15v7l9 3V12l-9 3ZM1 15a1 1 0 0 0-1 1v5a1 1 0 0 0 1 1h5v-7H1ZM25.447 14.895a1 1 0 1 0-.894-1.79l-3 1.5a1 1 0 1 0 .894 1.79l3-1.5ZM21.105 22.553a1 1 0 0 0 .448 1.342l3 1.5a1 1 0 1 0 .894-1.79l-3-1.5a1 1 0 0 0-1.342.448ZM22 18a1 1 0 1 0 0 2h4a1 1 0 1 0 0-2h-4ZM4 23h2l1.736 7.812a.976.976 0 0 1-1.906.424L4 23Z" fill="#85ACB0"/><path fill-rule="evenodd" clip-rule="evenodd" d="M32 7c0 3.866-3.581 7-8 7h-7.74c-.867 0-1.323-1.03-.74-1.673l1.598-1.756A6.323 6.323 0 0 1 16 7c0-3.866 3.582-7 8-7 4.419 0 8 3.134 8 7ZM20 8a1 1 0 1 0 0-2 1 1 0 0 0 0 2Zm5-1a1 1 0 1 1-2 0 1 1 0 0 1 2 0Zm3 1a1 1 0 1 0 0-2 1 1 0 0 0 0 2Z" fill="#FF444F" style="mix-blend-mode:multiply"/><circle cx="20" cy="7" r="1" fill="#fff"/><circle cx="24" cy="7" r="1" fill="#fff"/><circle cx="28" cy="7" r="1" fill="#fff"/></svg>