<svg width="32" height="32" fill="none" xmlns="http://www.w3.org/2000/svg"><path fill-rule="evenodd" clip-rule="evenodd" d="M25.5 14a3.5 3.5 0 1 0 0-7 3.5 3.5 0 0 0 0 7ZM23 15a4 4 0 0 0-4 4v3a1 1 0 0 0 1 1h11a1 1 0 0 0 1-1v-3a4 4 0 0 0-4-4h-5ZM6.5 14a3.5 3.5 0 1 0 0-7 3.5 3.5 0 0 0 0 7ZM4 15a4 4 0 0 0-4 4v3a1 1 0 0 0 1 1h11a1 1 0 0 0 1-1v-3a4 4 0 0 0-4-4H4Z" fill="#85ACB0"/><g style="mix-blend-mode:multiply" fill="#FF444F"><path d="M18.242 20H21.5a2.5 2.5 0 0 1 0 5h-4a2.5 2.5 0 0 1-2.167-3.748A1.494 1.494 0 0 0 14.5 21h-.163a3.5 3.5 0 0 0 3.163 5h4a3.5 3.5 0 1 0 0-7h-4c-.056 0-.111.001-.166.004.35.284.657.62.908.996Z"/><path d="M13.758 25H10.5a2.5 2.5 0 0 1 0-5h4a2.5 2.5 0 0 1 2.167 3.748c.238.159.525.252.833.252h.163a3.5 3.5 0 0 0-3.163-5h-4a3.5 3.5 0 1 0 0 7h4c.056 0 .111-.001.166-.004a4.526 4.526 0 0 1-.908-.996Z"/></g></svg>