<svg xmlns="http://www.w3.org/2000/svg" width="64" height="64"><defs><linearGradient id="a" x1="50%" x2="50%" y1=".347%" y2="99.74%"><stop offset="0%" stop-color="#FF6444"/><stop offset="99.913%" stop-color="#FF444F"/></linearGradient></defs><g fill="none" fill-rule="evenodd"><path fill="url(#a)" d="M30.5 56c-7.274 0-13.814-3.19-18.306-8.24l36.011-33.168C52.409 18.993 55 24.948 55 31.5 55 45.009 44.01 56 30.5 56zm0-49c6.238 0 11.936 2.347 16.265 6.199L10.923 46.212A24.37 24.37 0 016 31.5C6 17.991 16.99 7 30.5 7zm29.191 51.277l-9.488-9.078C54.426 44.503 57 38.297 57 31.5c0-7.074-2.792-13.505-7.325-18.262l.003-.003-1.356-1.47-.078.071C43.543 7.59 37.319 5 30.5 5 15.888 5 4 16.888 4 31.5S15.888 58 30.5 58c7.097 0 13.546-2.81 18.308-7.368l9.501 9.091 1.382-1.446zm-25.846-29.04c2.539 1.43 3.84 3.228 3.84 5.943 0 2.987-2.077 5.784-5.972 6.428v3.93H29.33v-3.817c-2.192-.038-4.461-.718-5.784-1.663l.748-2.088.357-.325A10.09 10.09 0 0029.9 39.15c2.684 0 4.498-1.551 4.498-3.705 0-1.745-1.052-2.928-3.038-3.935zM31.94 14.5v3.667c2.268.075 3.817.68 4.913 1.324l-.913 2.41-.07.064c-.803-.458-2.34-1.264-4.724-1.264-2.912 0-4.01 1.739-4.01 3.25 0 1.53.863 2.466 2.792 3.448l-2.503 2.288c-2.232-1.271-3.54-2.853-3.54-5.282 0-3.138 2.23-5.52 5.709-6.087V14.5h2.346z"/><path d="M0 0h64v64H0z"/></g></svg>