<svg width="48" height="48" viewBox="0 0 48 48" fill="none" xmlns="http://www.w3.org/2000/svg">
<path fill-rule="evenodd" clip-rule="evenodd" d="M38.25 21C41.1495 21 43.5 18.6495 43.5 15.75C43.5 12.8505 41.1495 10.5 38.25 10.5C35.3505 10.5 33 12.8505 33 15.75C33 18.6495 35.3505 21 38.25 21ZM32.5 22.5C30.2909 22.5 28.5 24.2909 28.5 26.5V33.5C28.5 34.0523 28.9477 34.5 29.5 34.5H47C47.5523 34.5 48 34.0523 48 33.5V26.5C48 24.2909 46.2091 22.5 44 22.5H32.5Z" fill="#85ACB0"/>
<path fill-rule="evenodd" clip-rule="evenodd" d="M9.75 21C12.6495 21 15 18.6495 15 15.75C15 12.8505 12.6495 10.5 9.75 10.5C6.8505 10.5 4.5 12.8505 4.5 15.75C4.5 18.6495 6.8505 21 9.75 21ZM4 22.5C1.79086 22.5 0 24.2909 0 26.5V33.5C0 34.0523 0.447715 34.5 1 34.5H18.5C19.0523 34.5 19.5 34.0523 19.5 33.5V26.5C19.5 24.2909 17.7091 22.5 15.5 22.5H4Z" fill="#85ACB0"/>
<g style="mix-blend-mode:multiply">
<path d="M27.3633 30H32.25C34.3211 30 36 31.6789 36 33.75C36 35.8211 34.3211 37.5 32.25 37.5H26.25C24.1789 37.5 22.5 35.8211 22.5 33.75C22.5 33.0685 22.6818 32.4294 22.9996 31.8786C22.6422 31.6395 22.2124 31.5 21.75 31.5H21.5052C21.1813 32.1819 21 32.9448 21 33.75C21 36.6495 23.3505 39 26.25 39H32.25C35.1495 39 37.5 36.6495 37.5 33.75C37.5 30.8505 35.1495 28.5 32.25 28.5H26.25C26.1663 28.5 26.083 28.502 26.0002 28.5058C26.5257 28.9323 26.9859 29.4361 27.3633 30Z" fill="#FF444F"/>
<path d="M20.6367 37.5H15.75C13.6789 37.5 12 35.8211 12 33.75C12 31.6789 13.6789 30 15.75 30H21.75C23.8211 30 25.5 31.6789 25.5 33.75C25.5 34.4315 25.3182 35.0706 25.0004 35.6214C25.3578 35.8605 25.7876 36 26.25 36H26.4948C26.8187 35.3181 27 34.5552 27 33.75C27 30.8505 24.6495 28.5 21.75 28.5H15.75C12.8505 28.5 10.5 30.8505 10.5 33.75C10.5 36.6495 12.8505 39 15.75 39H21.75C21.8337 39 21.917 38.998 21.9998 38.9942C21.4743 38.5677 21.0141 38.0639 20.6367 37.5Z" fill="#FF444F"/>
</g>
</svg>
