<svg width="32" height="32" fill="none" xmlns="http://www.w3.org/2000/svg"><g clip-path="url(#a)"><mask id="b" fill="#fff"><path fill-rule="evenodd" clip-rule="evenodd" d="M26.336 7.138 17.752.105A.46.46 0 0 0 17 .461v3.03h-4c-5.523 0-10 4.477-10 10v4.004a8 8 0 0 1 8-8h6v5.032a.46.46 0 0 0 .752.356l8.584-7.033a.46.46 0 0 0 0-.712Z"/></mask><path d="m17.752.105-.634.774.634-.774Zm8.584 7.033.634-.773-.634.773ZM17 3.491v1h1v-1h-1Zm0 6.004h1v-1h-1v1Zm.752 5.388.633.774-.634-.774Zm8.584-7.033.634.773-.634-.773ZM17.118.879l8.584 7.033 1.267-1.547-8.584-7.033L17.118.879ZM18 .46a.54.54 0 0 1-.882.418l1.267-1.547C17.432-1.45 16-.771 16 .46h2Zm0 3.03V.461h-2v3.03h2Zm-1-1h-4v2h4v-2Zm-4 0c-6.075 0-11 4.925-11 11h2a9 9 0 0 1 9-9v-2Zm-11 11v4.004h2v-4.004H2Zm2 4.004a7 7 0 0 1 7-7v-2a9 9 0 0 0-9 9h2Zm7-7h6v-2h-6v2Zm7 4.032V9.495h-2v5.032h2Zm-.882-.417a.54.54 0 0 1 .882.417h-2c0 1.232 1.432 1.91 2.385 1.13l-1.267-1.547Zm8.584-7.034-8.584 7.034 1.267 1.546 8.584-7.033-1.267-1.547Zm0 .836a.54.54 0 0 1 0-.836l1.267 1.547a1.46 1.46 0 0 0 0-2.258l-1.267 1.547Z" fill="#85ACB0" mask="url(#b)"/><path fill-rule="evenodd" clip-rule="evenodd" d="m3.664 24.862 8.585 7.033a.46.46 0 0 0 .751-.356v-3.03h4c5.523 0 10-4.477 10-10v-4.004a8 8 0 0 1-8 8h-6v-5.032a.46.46 0 0 0-.752-.356L3.665 24.15a.46.46 0 0 0 0 .712Z" fill="#85ACB0"/><path fill-rule="evenodd" clip-rule="evenodd" d="M8 16a8 8 0 1 0 16 0 8 8 0 0 0-16 0Z" fill="#FF444F" style="mix-blend-mode:multiply"/><path fill-rule="evenodd" clip-rule="evenodd" d="M16.838 19.666V21h-1.665v-1.33c-1.227-.228-1.998-.985-2.053-2.085h1.444c.07.578.652.95 1.494.95.776 0 1.325-.377 1.325-.913 0-.456-.355-.716-1.231-.913l-.929-.198c-1.3-.271-1.939-.949-1.939-2.037s.726-1.872 1.88-2.13V11h1.665v1.346c1.127.25 1.877 1.02 1.914 2.053h-1.394c-.07-.564-.595-.94-1.316-.94-.72 0-1.24.347-1.24.89 0 .44.339.684 1.176.871l.86.183c1.435.3 2.053.912 2.053 2.027 0 1.193-.767 1.992-2.044 2.236Z" fill="#fff"/></g><defs><clipPath id="a"><path fill="#fff" d="M0 0h32v32H0z"/></clipPath></defs></svg>