<svg fill="none" viewBox="0 0 112 128" xmlns="http://www.w3.org/2000/svg"><path d="m55.306.124-54 20a2.001 2.001 0 0 0-1.305 1.917c1.386 67.934 15.429 95.878 55.515 105.9.318.08.651.08.97 0l2.422-.636C97.14 116.763 110.643 88.589 112 22.045a2 2 0 0 0-1.305-1.916l-54-20a2 2 0 0 0-1.39 0zm.69 4.004 51.973 19.248-.013.622c-1.566 64.165-14.63 90.136-51.275 99.763l-.68.171-.68-.17C19.065 114.235 5.893 88.713 4.1 26.032l-.072-2.657L55.996 4.128zM37.386 56c1.978 0 3.752.29 5.32.868s2.884 1.381 3.948 2.408 1.876 2.25 2.436 3.668.84 2.968.84 4.648c0 1.568-.243 3.024-.728 4.368s-1.158 2.613-2.016 3.808-1.858 2.333-2.996 3.416-2.343 2.184-3.612 3.304l-9.184 7.896h19.712v5.376H24.56v-6.048l12.488-11.144.72-.668c1.631-1.55 2.913-3.035 3.844-4.456 1.064-1.624 1.596-3.332 1.596-5.124v-.728l-.017-.559c-.103-1.64-.667-2.947-1.691-3.921-1.14-1.083-2.68-1.624-4.62-1.624-1.083 0-2.026.159-2.828.476s-1.503.756-2.1 1.316-1.092 1.213-1.484 1.96-.7 1.55-.924 2.408L24 65.52l.264-.734c.376-.97.848-1.911 1.416-2.822.709-1.139 1.605-2.156 2.688-3.052s2.36-1.605 3.836-2.128 3.2-.784 5.18-.784zm43.12.672V83.16h5.32v4.984h-5.32v7.616h-5.992v-7.616H56.369v-5.432l15.848-26.04h8.288zm-5.992 5.768h-.392L61.745 83.16h12.768V62.44zm-2.814-14.624a2 2 0 0 1-2.828 2.828c-7.03-7.029-18.426-7.029-25.456 0a2 2 0 0 1-2.829-2.828c8.592-8.592 22.521-8.592 31.113 0zm10.627-8a2 2 0 0 1-2.828 2.828c-13.278-13.278-34.806-13.278-48.083 0a2 2 0 0 1-2.829-2.828c14.84-14.84 38.9-14.84 53.74 0zm10.627-8a2 2 0 1 1-2.828 2.828c-19.526-19.526-51.184-19.526-70.711 0a2 2 0 0 1-2.829-2.828c21.088-21.088 55.28-21.088 76.368 0z" clip-rule="evenodd" fill="url(#a)" fill-rule="evenodd"/><defs><linearGradient id="a" x1="13.124" x2="113.74" y1="128" y2="13.008" gradientUnits="userSpaceOnUse"><stop stop-color="#FF444F" offset="0"/><stop stop-color="#FF6444" offset="1"/></linearGradient></defs></svg>