<?xml version="1.0" encoding="UTF-8"?>
<svg fill="none" viewBox="0 0 112 128" xmlns="http://www.w3.org/2000/svg">
<path d="m55.306 0.1245-54 20c-0.79861 0.2958-1.3223 1.0649-1.3054 1.9163 1.3868 67.934 15.429 95.878 55.515 105.9 0.3185 0.08 0.6517 0.08 0.9702 0l2.4218-0.636c38.232-10.542 51.735-38.716 53.093-105.26 0.017-0.8514-0.506-1.6205-1.305-1.9163l-54-20c-0.4482-0.166-0.941-0.166-1.3892 0zm0.6906 4.0035 51.972 19.248-0.013 0.6222c-1.566 64.165-14.629 90.136-51.275 99.763l-0.68 0.171-0.68-0.171c-36.256-9.525-49.428-35.047-51.221-97.728l-0.07117-2.6571 51.968-19.248zm-18.612 51.872c1.9787 0 3.752 0.2893 5.32 0.868s2.884 1.3813 3.948 2.408 1.876 2.2493 2.436 3.668 0.84 2.968 0.84 4.648c0 1.568-0.2427 3.024-0.728 4.368s-1.1573 2.6133-2.016 3.808-1.8573 2.3333-2.996 3.416-2.3427 2.184-3.612 3.304l-9.184 7.896h19.712v5.376h-26.544v-6.048l12.488-11.144 0.7206-0.6681c1.6312-1.5496 2.9124-3.0349 3.8434-4.4559 1.064-1.624 1.596-3.332 1.596-5.124v-0.728l-0.0171-0.5589c-0.1025-1.6397-0.6661-2.9467-1.6909-3.9211-1.1387-1.0827-2.6787-1.624-4.62-1.624-1.0827 0-2.0253 0.1587-2.828 0.476s-1.5027 0.756-2.1 1.316-1.092 1.2133-1.484 1.96-0.7 1.5493-0.924 2.408l-5.544-2.128 0.2643-0.7336c0.3763-0.9707 0.8482-1.9115 1.4157-2.8224 0.7093-1.1387 1.6053-2.156 2.688-3.052s2.3613-1.6053 3.836-2.128 3.2013-0.784 5.18-0.784zm43.12 0.672v26.488h5.32v4.984h-5.32v7.616h-5.992v-7.616h-18.144v-5.432l15.848-26.04h8.288zm-5.992 5.768h-0.392l-12.376 20.72h12.768v-20.72zm-2.8135-14.624c0.781 0.7811 0.781 2.0474 0 2.8285-0.7811 0.781-2.0474 0.781-2.8284 0-7.0295-7.0295-18.426-7.0295-25.456 0-0.781 0.781-2.0474 0.781-2.8284 0-0.7811-0.7811-0.7811-2.0474 0-2.8285 8.5915-8.5915 22.521-8.5915 31.113 0zm10.627-8c0.781 0.7811 0.781 2.0474 0 2.8285-0.7811 0.781-2.0474 0.781-2.8284 0-13.278-13.278-34.806-13.278-48.083 0-0.781 0.781-2.0474 0.781-2.8284 0-0.7811-0.7811-0.7811-2.0474 0-2.8285 14.84-14.84 38.9-14.84 53.74 0zm10.627-8c0.7811 0.7811 0.7811 2.0474 0 2.8285-0.781 0.781-2.0474 0.781-2.8284 0-19.526-19.526-51.184-19.526-70.711 0-0.781 0.781-2.0474 0.781-2.8284 0-0.7811-0.7811-0.7811-2.0474 0-2.8285 21.088-21.088 55.279-21.088 76.368 0z" clip-rule="evenodd" fill="url(#a)" fill-rule="evenodd"/>
<defs>
<linearGradient id="a" x1="13.124" x2="113.74" y1="128" y2="13.008" gradientUnits="userSpaceOnUse">
<stop stop-color="#FF444F" offset="0"/>
<stop stop-color="#FF6444" offset="1"/>
</linearGradient>
</defs>
</svg>
