<svg xmlns="http://www.w3.org/2000/svg" width="48" height="48"><defs><linearGradient id="a" x1="50%" x2="50%" y1="0%" y2="100%"><stop offset="0%" stop-color="#FF6444"/><stop offset="100%" stop-color="#FF444F"/></linearGradient></defs><path fill="url(#a)" d="M46.5 6c.835 0 1.5.665 1.5 1.5v33c0 .835-.665 1.5-1.5 1.5H36v4.272c0 .435-.302 1.02-.625 1.308-.618.553-1.241.576-1.809-.058l-4.873-5.394C28.67 42.1 28.474 42 28.5 42h-9.75a.75.75 0 110-1.5h9.75c.435 0 1.02.302 1.309.625l4.67 5.17c.013-.02.021-.03.021-.023V42c0-.835.665-1.5 1.5-1.5h10.5v-33H45A.75.75 0 1145 6h1.5zm-5.25-6a1.5 1.5 0 011.5 1.5v33a1.5 1.5 0 01-1.5 1.5H19.073l-5.234 5.524a1.5 1.5 0 01-2.589-1.031V36H1.5A1.5 1.5 0 010 34.5v-33A1.5 1.5 0 011.5 0h39.75zm0 1.5H1.5v33h9.75a1.5 1.5 0 011.5 1.5v4.493l5.234-5.525a1.5 1.5 0 011.089-.468H41.25v-33zM30.377 21.852l.092.063 3.75 3a.75.75 0 01-.846 1.234l-.092-.063-3.75-3a.75.75 0 01.846-1.234zM27 10.501v15a.75.75 0 01-.987.711l-11.135-3.711H8.25a.75.75 0 01-.75-.75v-7.5a.75.75 0 01.75-.75h6.628l11.135-3.712a.75.75 0 01.987.712zm-1.5 1.04l-10.263 3.421a.75.75 0 01-.237.039H9v6h6c.08 0 .16.013.237.038L25.5 24.46V11.541zm9 5.71a.75.75 0 01.102 1.493l-.102.007H30a.75.75 0 01-.102-1.494l.102-.006h4.5zm-.164-7.219a.75.75 0 01-.117 1.054l-3.75 3a.75.75 0 01-.938-1.171l3.75-3a.75.75 0 011.055.117z"/></svg>