
<svg role='img' aria-labelledby='affiliates' xmlns="http://www.w3.org/2000/svg" width="48" height="48" viewBox="0 0 48 48">
    <title id='affiliates'>Affiliates</title>
    <defs>
        <linearGradient id="affiliatesprefix__a" x1="50%" x2="50%" y1="0%" y2="100%">
            <stop offset="0%" stop-color="#FF6444"/>
            <stop offset="100%" stop-color="#FF444F"/>
        </linearGradient>
    </defs>
    <g fill="none" fill-rule="evenodd">
        <path d="M0 0H48V48H0z"/>
        <path fill="url(#affiliatesprefix__a)" fill-rule="nonzero" d="M24 1.5c9.06 0 16.703 6.061 19.097 14.35l-.161-.027C45.805 16.272 48 18.755 48 21.75c0 3.055-2.284 5.577-5.237 5.952l.089-.012c-2.01 6.002-6.808 10.728-12.855 12.64l.002.075.001.095c0 3.314-2.686 6-6 6s-6-2.686-6-6l.004-.211-.002.04C11.956 38.418 7.16 33.692 5.15 27.689l.021.004C2.25 27.29 0 24.783 0 21.75c0-2.958 2.14-5.416 4.956-5.91l-.053.01C7.297 7.561 14.94 1.5 24 1.5zM24 36c-2.485 0-4.5 2.015-4.5 4.5S21.515 45 24 45s4.5-2.015 4.5-4.5S26.485 36 24 36zm0-33C15.806 3 8.865 8.363 6.495 15.77h-.011C9.57 16.015 12 18.6 12 21.75c0 3.074-2.312 5.608-5.291 5.959l.036-.005c1.923 5.244 6.17 9.368 11.492 11.124l.017-.06c.744-2.47 3.035-4.268 5.746-4.268 2.747 0 5.062 1.845 5.774 4.364l-.01-.036c5.322-1.756 9.568-5.88 11.492-11.124l-.143-.02C38.22 27.257 36 24.763 36 21.75c0-3.15 2.429-5.734 5.516-5.98h-.012C39.134 8.363 32.194 3 24 3zm.345 9c2.925 0 5.155 2.283 5.155 5.277 0 1.88-.881 3.465-2.269 4.38C30.269 23.031 32.5 26.383 32.5 30c0 .414-.336.75-.75.75h-15c-.414 0-.75-.336-.75-.75 0-3.65 2.272-7.03 5.352-8.38C19.928 20.687 19 19.094 19 17.25c0-2.945 2.368-5.25 5.345-5.25zM24 22.5c-3.342 0-6.341 3.124-6.712 6.75h13.424l-.024-.2C30.23 25.51 27.28 22.5 24 22.5zM6 17.25c-2.485 0-4.5 2.015-4.5 4.5s2.015 4.5 4.5 4.5 4.5-2.015 4.5-4.5-2.015-4.5-4.5-4.5zm36 0c-2.485 0-4.5 2.015-4.5 4.5s2.015 4.5 4.5 4.5 4.5-2.015 4.5-4.5-2.015-4.5-4.5-4.5zM24.095 13.5c-2.157 0-3.845 1.642-3.845 3.75S21.938 21 24.095 21c2.106 0 3.655-1.567 3.655-3.723 0-2.173-1.566-3.777-3.655-3.777z"/>
    </g>
</svg>
