<svg width="24" height="25" viewBox="0 0 24 25" fill="none" xmlns="http://www.w3.org/2000/svg">
<path d="M5.33713 0.535414C4.4122 0.0161437 3.32623 0.0281499 2.40722 0.542918L13.1783 10.6357L16.7967 6.96026L5.33713 0.535414Z" fill="white"/>
<path d="M1.32777 1.56909C1.06477 2.00582 0.914062 2.50558 0.914062 3.03536V21.2639C0.914062 21.7771 1.05147 22.2664 1.29969 22.6941L12.1313 11.6919L1.32777 1.56909Z" fill="white"/>
<path d="M21.5959 9.64892L18.1444 7.71438L14.2659 11.6525L19.0191 16.1054L21.5974 14.6601C22.5252 14.1378 23.0808 13.2013 23.0808 12.1538C23.0793 11.1062 22.5252 10.1697 21.5959 9.64892Z" fill="white"/>
<path d="M13.2251 12.7071L2.36394 23.7393C2.83527 24.0125 3.3524 24.1565 3.87248 24.1565C4.37484 24.1565 4.88014 24.0275 5.34261 23.7678L17.6606 16.8628L13.2251 12.7071Z" fill="white"/>
</svg>
