<svg width="40" height="40" viewBox="0 0 40 40" fill="none" xmlns="http://www.w3.org/2000/svg">
<g clip-path="url(#clip0_1158_18171)">
<rect width="40" height="40" fill="#E03640"/>
<path d="M38.3333 1.66699L-1.66667 7.98052L-9 41.667H31L38.3333 1.66699Z" fill="#FF444F"/>
<g filter="url(#filter0_d_1158_18171)">
<path d="M17.2555 24.5564C17.1601 24.2444 17.0518 23.9237 16.9305 23.5944C16.8178 23.265 16.7051 22.9357 16.5925 22.6064H13.0825C12.9698 22.9357 12.8528 23.265 12.7315 23.5944C12.6188 23.9237 12.5148 24.2444 12.4195 24.5564H10.3135C10.6515 23.5857 10.9721 22.6887 11.2755 21.8654C11.5788 21.042 11.8735 20.2664 12.1595 19.5384C12.4541 18.8104 12.7401 18.1214 13.0175 17.4714C13.3035 16.8127 13.5981 16.1714 13.9015 15.5474H15.8385C16.1331 16.1714 16.4235 16.8127 16.7095 17.4714C16.9955 18.1214 17.2815 18.8104 17.5675 19.5384C17.8621 20.2664 18.1611 21.042 18.4645 21.8654C18.7678 22.6887 19.0885 23.5857 19.4265 24.5564H17.2555ZM14.8245 17.5884C14.7811 17.7184 14.7161 17.896 14.6295 18.1214C14.5428 18.3467 14.4431 18.6067 14.3305 18.9014C14.2178 19.196 14.0921 19.521 13.9535 19.8764C13.8235 20.2317 13.6891 20.6044 13.5505 20.9944H16.1115C15.9728 20.6044 15.8385 20.2317 15.7085 19.8764C15.5785 19.521 15.4528 19.196 15.3315 18.9014C15.2188 18.6067 15.1191 18.3467 15.0325 18.1214C14.9458 17.896 14.8765 17.7184 14.8245 17.5884Z" fill="white"/>
<path d="M22.6466 15.4434C23.99 15.4434 25.0213 15.6817 25.7406 16.1584C26.46 16.6264 26.8196 17.3977 26.8196 18.4724C26.8196 19.5557 26.4556 20.34 25.7276 20.8254C24.9996 21.302 23.9596 21.5404 22.6076 21.5404H21.9706V24.5564H19.9426V15.6774C20.3846 15.5907 20.8526 15.53 21.3466 15.4954C21.8406 15.4607 22.274 15.4434 22.6466 15.4434ZM22.7766 17.1724C22.6293 17.1724 22.482 17.1767 22.3346 17.1854C22.196 17.194 22.0746 17.2027 21.9706 17.2114V19.8114H22.6076C23.3096 19.8114 23.8383 19.716 24.1936 19.5254C24.549 19.3347 24.7266 18.9794 24.7266 18.4594C24.7266 18.208 24.679 18 24.5836 17.8354C24.497 17.6707 24.367 17.5407 24.1936 17.4454C24.029 17.3414 23.8253 17.272 23.5826 17.2374C23.34 17.194 23.0713 17.1724 22.7766 17.1724Z" fill="white"/>
<path d="M27.6588 15.5474H29.6868V24.5564H27.6588V15.5474Z" fill="white"/>
</g>
</g>
<defs>
<filter id="filter0_d_1158_18171" x="8.31348" y="14.4434" width="23.373" height="13.1133" filterUnits="userSpaceOnUse" color-interpolation-filters="sRGB">
<feFlood flood-opacity="0" result="BackgroundImageFix"/>
<feColorMatrix in="SourceAlpha" type="matrix" values="0 0 0 0 0 0 0 0 0 0 0 0 0 0 0 0 0 0 127 0" result="hardAlpha"/>
<feOffset dy="1"/>
<feGaussianBlur stdDeviation="1"/>
<feColorMatrix type="matrix" values="0 0 0 0 0.054902 0 0 0 0 0.054902 0 0 0 0 0.054902 0 0 0 0.05 0"/>
<feBlend mode="normal" in2="BackgroundImageFix" result="effect1_dropShadow_1158_18171"/>
<feBlend mode="normal" in="SourceGraphic" in2="effect1_dropShadow_1158_18171" result="shape"/>
</filter>
<clipPath id="clip0_1158_18171">
<rect width="40" height="40" rx="6" fill="white"/>
</clipPath>
</defs>
</svg>
