<svg width="40" height="40" viewBox="0 0 40 40" fill="none" xmlns="http://www.w3.org/2000/svg"><path d="M0 7.5A7.5 7.5 0 0 1 7.5 0h25A7.5 7.5 0 0 1 40 7.5v25a7.5 7.5 0 0 1-7.5 7.5h-25A7.5 7.5 0 0 1 0 32.5v-25Z" fill="#0E0E0E"/><path d="M7.117 15.696 10.413 20 5.13 24.305h5.34a3.349 3.349 0 0 0 3.26-2.596l.443-1.915a3.344 3.344 0 0 0-3.261-4.098H7.117Z" fill="url(#a)"/><path d="m10.413 20-2.348 4.304H5.13L10.413 20Z" fill="#CC2E3D"/><path d="M30.713 16.198c.265.205.462.485.565.804.12.414.133.852.04 1.273a3.361 3.361 0 0 1-.466 1.264c-.21.326-.488.604-.815.814a3.28 3.28 0 0 1-1.086.432 6.26 6.26 0 0 1-1.288.128h-1.386l-.589 3.35h-1.9l.875-4.962h3.162c.168 0 .335-.016.5-.049.16-.03.313-.085.455-.164a1.108 1.108 0 0 0 .565-.82.706.706 0 0 0-.394-.838 1.455 1.455 0 0 0-.503-.136 5.23 5.23 0 0 0-.554-.032h-2.871l.284-1.604h3.198c.417-.002.834.038 1.243.12.349.067.678.21.965.42Z" fill="#fff"/><path fill-rule="evenodd" clip-rule="evenodd" d="m19.268 15.658-4.355 8.609h2.036l.977-2.047h2.893l.361 2.047h1.78l-1.52-8.609h-2.172Zm-.62 4.97 1.369-2.935.518 2.936h-1.888Z" fill="#fff"/><path d="m32.83 15.658-1.541 8.609h1.903l1.54-8.609H32.83Z" fill="#fff"/><defs><linearGradient id="a" x1="10.898" y1="14.213" x2="9.183" y2="25.029" gradientUnits="userSpaceOnUse"><stop stop-color="#FF6444"/><stop offset="1" stop-color="#FF444F"/></linearGradient></defs></svg>
