<svg width="148" height="48" viewBox="0 0 148 48" fill="none" xmlns="http://www.w3.org/2000/svg"><rect width="148" height="48" rx="8" fill="#0E0E0E"/><path d="M24.1558 18.9164C25.0976 18.9164 26.8895 17.6147 28.7377 17.809C30.4945 17.864 32.1225 18.7453 33.1307 20.187C31.5399 21.1663 30.5609 22.8934 30.5369 24.7631C30.5392 26.8785 31.8043 28.7876 33.75 29.6116C33.3758 30.8288 32.8117 31.9792 32.0787 33.02C32.0564 33.0535 32.034 33.087 32.0115 33.1204L31.8765 33.3207C30.9507 34.6844 29.9505 35.9369 28.424 35.9617C26.8322 35.9985 26.2972 35.0237 24.4715 35.0237C22.6286 35.0237 22.0584 35.9351 20.5317 35.9985C18.9716 36.0564 17.7793 34.4247 16.7591 32.964C14.72 29.981 13.1322 24.5573 15.2608 20.8669C16.2604 19.0683 18.1294 17.9269 20.184 17.8604C21.7456 17.8283 23.1957 18.9164 24.1558 18.9164ZM28.757 12C28.8636 13.3934 28.4235 14.7734 27.5303 15.8471C26.6637 16.9264 25.3506 17.5481 23.9677 17.5338C23.8797 16.1806 24.3326 14.8478 25.2265 13.8291C26.1318 12.7966 27.3924 12.1435 28.757 12Z" fill="white"/><path d="M52.112 36L51.312 33.344H47.584L46.784 36H44.32L48 24.832H51.008L54.64 36H52.112ZM49.472 27.04H49.392L48.16 31.28H50.72L49.472 27.04ZM56.0571 27.6H58.4251V29.008H58.5051C58.6225 28.5387 58.8891 28.1547 59.3051 27.856C59.7318 27.5573 60.2171 27.408 60.7611 27.408C61.8278 27.408 62.6331 27.7813 63.1771 28.528C63.7211 29.2747 63.9931 30.3627 63.9931 31.792C63.9931 33.2213 63.7211 34.3147 63.1771 35.072C62.6331 35.8187 61.8278 36.192 60.7611 36.192C60.4838 36.192 60.2225 36.1493 59.9771 36.064C59.7318 35.9893 59.5078 35.8827 59.3051 35.744C59.1131 35.5947 58.9478 35.424 58.8091 35.232C58.6705 35.0293 58.5691 34.816 58.5051 34.592H58.4251V39.2H56.0571V27.6ZM59.9771 34.272C60.4251 34.272 60.7931 34.1173 61.0811 33.808C61.3798 33.488 61.5291 33.0613 61.5291 32.528V31.072C61.5291 30.5387 61.3798 30.1173 61.0811 29.808C60.7931 29.488 60.4251 29.328 59.9771 29.328C59.5291 29.328 59.1558 29.44 58.8571 29.664C58.5691 29.8773 58.4251 30.176 58.4251 30.56V33.04C58.4251 33.424 58.5691 33.728 58.8571 33.952C59.1558 34.1653 59.5291 34.272 59.9771 34.272ZM65.7915 27.6H68.1595V29.008H68.2395C68.3568 28.5387 68.6235 28.1547 69.0395 27.856C69.4662 27.5573 69.9515 27.408 70.4955 27.408C71.5622 27.408 72.3675 27.7813 72.9115 28.528C73.4555 29.2747 73.7275 30.3627 73.7275 31.792C73.7275 33.2213 73.4555 34.3147 72.9115 35.072C72.3675 35.8187 71.5622 36.192 70.4955 36.192C70.2182 36.192 69.9568 36.1493 69.7115 36.064C69.4662 35.9893 69.2422 35.8827 69.0395 35.744C68.8475 35.5947 68.6822 35.424 68.5435 35.232C68.4048 35.0293 68.3035 34.816 68.2395 34.592H68.1595V39.2H65.7915V27.6ZM69.7115 34.272C70.1595 34.272 70.5275 34.1173 70.8155 33.808C71.1142 33.488 71.2635 33.0613 71.2635 32.528V31.072C71.2635 30.5387 71.1142 30.1173 70.8155 29.808C70.5275 29.488 70.1595 29.328 69.7115 29.328C69.2635 29.328 68.8902 29.44 68.5915 29.664C68.3035 29.8773 68.1595 30.176 68.1595 30.56V33.04C68.1595 33.424 68.3035 33.728 68.5915 33.952C68.8902 34.1653 69.2635 34.272 69.7115 34.272ZM83.0511 36.192C82.0698 36.192 81.2378 36.0267 80.5551 35.696C79.8725 35.3547 79.2911 34.9173 78.8111 34.384L80.4111 32.768C81.1685 33.6213 82.1018 34.048 83.2111 34.048C83.8085 34.048 84.2511 33.9253 84.5391 33.68C84.8271 33.4347 84.9711 33.1093 84.9711 32.704C84.9711 32.3947 84.8858 32.1387 84.7151 31.936C84.5445 31.7227 84.1978 31.5787 83.6751 31.504L82.5711 31.36C81.3871 31.2107 80.5178 30.8533 79.9631 30.288C79.4191 29.7227 79.1471 28.9707 79.1471 28.032C79.1471 27.5307 79.2431 27.072 79.4351 26.656C79.6271 26.24 79.8991 25.8827 80.2511 25.584C80.6138 25.2853 81.0511 25.056 81.5631 24.896C82.0858 24.7253 82.6778 24.64 83.3391 24.64C84.1818 24.64 84.9231 24.7733 85.5631 25.04C86.2031 25.3067 86.7525 25.696 87.2111 26.208L85.5951 27.84C85.3285 27.5307 85.0031 27.28 84.6191 27.088C84.2458 26.8853 83.7711 26.784 83.1951 26.784C82.6511 26.784 82.2458 26.88 81.9791 27.072C81.7125 27.264 81.5791 27.5307 81.5791 27.872C81.5791 28.256 81.6805 28.5333 81.8831 28.704C82.0965 28.8747 82.4378 28.9973 82.9071 29.072L84.0111 29.248C85.1631 29.4293 86.0165 29.7867 86.5711 30.32C87.1258 30.8427 87.4031 31.5893 87.4031 32.56C87.4031 33.0933 87.3071 33.584 87.1151 34.032C86.9231 34.48 86.6405 34.864 86.2671 35.184C85.9045 35.504 85.4511 35.7547 84.9071 35.936C84.3631 36.1067 83.7445 36.192 83.0511 36.192ZM92.1574 36C91.336 36 90.712 35.792 90.2854 35.376C89.8694 34.96 89.6614 34.352 89.6614 33.552V29.44H88.4774V27.6H89.0694C89.3894 27.6 89.608 27.5253 89.7254 27.376C89.8427 27.216 89.9014 26.992 89.9014 26.704V25.328H92.0294V27.6H93.6934V29.44H92.0294V34.16H93.5654V36H92.1574ZM98.6839 36.192C98.0652 36.192 97.5105 36.0907 97.0199 35.888C96.5399 35.6853 96.1292 35.392 95.7879 35.008C95.4572 34.624 95.2012 34.16 95.0199 33.616C94.8385 33.072 94.7479 32.464 94.7479 31.792C94.7479 31.12 94.8385 30.512 95.0199 29.968C95.2012 29.424 95.4572 28.9653 95.7879 28.592C96.1292 28.208 96.5399 27.9147 97.0199 27.712C97.5105 27.5093 98.0652 27.408 98.6839 27.408C99.3025 27.408 99.8519 27.5093 100.332 27.712C100.823 27.9147 101.233 28.208 101.564 28.592C101.905 28.9653 102.167 29.424 102.348 29.968C102.529 30.512 102.62 31.12 102.62 31.792C102.62 32.464 102.529 33.072 102.348 33.616C102.167 34.16 101.905 34.624 101.564 35.008C101.233 35.392 100.823 35.6853 100.332 35.888C99.8519 36.0907 99.3025 36.192 98.6839 36.192ZM98.6839 34.32C99.1532 34.32 99.5159 34.176 99.7719 33.888C100.028 33.6 100.156 33.1893 100.156 32.656V30.944C100.156 30.4107 100.028 30 99.7719 29.712C99.5159 29.424 99.1532 29.28 98.6839 29.28C98.2145 29.28 97.8519 29.424 97.5959 29.712C97.3399 30 97.2119 30.4107 97.2119 30.944V32.656C97.2119 33.1893 97.3399 33.6 97.5959 33.888C97.8519 34.176 98.2145 34.32 98.6839 34.32ZM104.307 36V27.6H106.675V29.424H106.755C106.798 29.1893 106.872 28.9653 106.979 28.752C107.086 28.528 107.224 28.3307 107.395 28.16C107.576 27.9893 107.79 27.856 108.035 27.76C108.28 27.6533 108.568 27.6 108.899 27.6H109.315V29.808H108.723C108.03 29.808 107.512 29.8987 107.171 30.08C106.84 30.2613 106.675 30.5973 106.675 31.088V36H104.307ZM114.202 36.192C113.562 36.192 112.991 36.0907 112.49 35.888C111.988 35.6747 111.562 35.3813 111.21 35.008C110.868 34.624 110.607 34.16 110.426 33.616C110.255 33.072 110.17 32.464 110.17 31.792C110.17 31.1307 110.255 30.5333 110.426 30C110.596 29.456 110.847 28.992 111.178 28.608C111.519 28.224 111.935 27.9307 112.426 27.728C112.916 27.5147 113.476 27.408 114.106 27.408C114.799 27.408 115.391 27.5253 115.882 27.76C116.383 27.9947 116.788 28.3093 117.098 28.704C117.418 29.0987 117.647 29.5573 117.786 30.08C117.935 30.592 118.01 31.1307 118.01 31.696V32.4H112.618V32.528C112.618 33.0827 112.767 33.5253 113.066 33.856C113.364 34.176 113.834 34.336 114.474 34.336C114.964 34.336 115.364 34.24 115.674 34.048C115.983 33.8453 116.271 33.6053 116.538 33.328L117.722 34.8C117.348 35.2373 116.858 35.5787 116.25 35.824C115.652 36.0693 114.97 36.192 114.202 36.192ZM114.154 29.152C113.674 29.152 113.295 29.312 113.018 29.632C112.751 29.9413 112.618 30.3573 112.618 30.88V31.008H115.562V30.864C115.562 30.352 115.444 29.9413 115.21 29.632C114.986 29.312 114.634 29.152 114.154 29.152Z" fill="white"/><path d="M44.93 12.02H47.27C47.7033 12.02 48.0967 12.0933 48.45 12.24C48.8033 12.3867 49.1033 12.6067 49.35 12.9C49.6033 13.1867 49.7967 13.55 49.93 13.99C50.0633 14.4233 50.13 14.93 50.13 15.51C50.13 16.09 50.0633 16.6 49.93 17.04C49.7967 17.4733 49.6033 17.8367 49.35 18.13C49.1033 18.4167 48.8033 18.6333 48.45 18.78C48.0967 18.9267 47.7033 19 47.27 19H44.93V12.02ZM47.27 18.26C47.5567 18.26 47.82 18.2133 48.06 18.12C48.3 18.02 48.5067 17.8767 48.68 17.69C48.8533 17.5033 48.9867 17.2767 49.08 17.01C49.18 16.7367 49.23 16.4267 49.23 16.08V14.94C49.23 14.5933 49.18 14.2867 49.08 14.02C48.9867 13.7467 48.8533 13.5167 48.68 13.33C48.5067 13.1433 48.3 13.0033 48.06 12.91C47.82 12.81 47.5567 12.76 47.27 12.76H45.77V18.26H47.27ZM53.509 19.12C53.1623 19.12 52.8457 19.0567 52.559 18.93C52.2723 18.8033 52.0257 18.6233 51.819 18.39C51.619 18.15 51.4623 17.8667 51.349 17.54C51.2357 17.2067 51.179 16.8333 51.179 16.42C51.179 16.0133 51.2357 15.6433 51.349 15.31C51.4623 14.9767 51.619 14.6933 51.819 14.46C52.0257 14.22 52.2723 14.0367 52.559 13.91C52.8457 13.7833 53.1623 13.72 53.509 13.72C53.8557 13.72 54.169 13.7833 54.449 13.91C54.7357 14.0367 54.9823 14.22 55.189 14.46C55.3957 14.6933 55.5557 14.9767 55.669 15.31C55.7823 15.6433 55.839 16.0133 55.839 16.42C55.839 16.8333 55.7823 17.2067 55.669 17.54C55.5557 17.8667 55.3957 18.15 55.189 18.39C54.9823 18.6233 54.7357 18.8033 54.449 18.93C54.169 19.0567 53.8557 19.12 53.509 19.12ZM53.509 18.41C53.9423 18.41 54.2957 18.2767 54.569 18.01C54.8423 17.7433 54.979 17.3367 54.979 16.79V16.05C54.979 15.5033 54.8423 15.0967 54.569 14.83C54.2957 14.5633 53.9423 14.43 53.509 14.43C53.0757 14.43 52.7223 14.5633 52.449 14.83C52.1757 15.0967 52.039 15.5033 52.039 16.05V16.79C52.039 17.3367 52.1757 17.7433 52.449 18.01C52.7223 18.2767 53.0757 18.41 53.509 18.41ZM56.5659 13.84H57.3459L57.8959 16.07L58.4459 18.33H58.4659L59.0959 16.07L59.7459 13.84H60.4559L61.1259 16.07L61.7659 18.33H61.7859L62.3159 16.07L62.8759 13.84H63.6259L62.2559 19H61.2659L60.5459 16.52L60.0959 14.95H60.0759L59.6359 16.52L58.9159 19H57.9459L56.5659 13.84ZM64.7816 19V13.84H65.5816V14.68H65.6216C65.7483 14.3867 65.925 14.1533 66.1516 13.98C66.385 13.8067 66.695 13.72 67.0816 13.72C67.615 13.72 68.035 13.8933 68.3416 14.24C68.655 14.58 68.8116 15.0633 68.8116 15.69V19H68.0116V15.83C68.0116 14.9033 67.6216 14.44 66.8416 14.44C66.6816 14.44 66.525 14.46 66.3716 14.5C66.225 14.54 66.0916 14.6 65.9716 14.68C65.8516 14.76 65.755 14.8633 65.6816 14.99C65.615 15.11 65.5816 15.2533 65.5816 15.42V19H64.7816ZM71.3152 19C71.0352 19 70.8219 18.9233 70.6752 18.77C70.5352 18.61 70.4652 18.41 70.4652 18.17V11.6H71.2652V18.3H72.0252V19H71.3152ZM75.1398 19.12C74.7932 19.12 74.4765 19.0567 74.1898 18.93C73.9032 18.8033 73.6565 18.6233 73.4498 18.39C73.2498 18.15 73.0932 17.8667 72.9798 17.54C72.8665 17.2067 72.8098 16.8333 72.8098 16.42C72.8098 16.0133 72.8665 15.6433 72.9798 15.31C73.0932 14.9767 73.2498 14.6933 73.4498 14.46C73.6565 14.22 73.9032 14.0367 74.1898 13.91C74.4765 13.7833 74.7932 13.72 75.1398 13.72C75.4865 13.72 75.7998 13.7833 76.0798 13.91C76.3665 14.0367 76.6132 14.22 76.8198 14.46C77.0265 14.6933 77.1865 14.9767 77.2998 15.31C77.4132 15.6433 77.4698 16.0133 77.4698 16.42C77.4698 16.8333 77.4132 17.2067 77.2998 17.54C77.1865 17.8667 77.0265 18.15 76.8198 18.39C76.6132 18.6233 76.3665 18.8033 76.0798 18.93C75.7998 19.0567 75.4865 19.12 75.1398 19.12ZM75.1398 18.41C75.5732 18.41 75.9265 18.2767 76.1998 18.01C76.4732 17.7433 76.6098 17.3367 76.6098 16.79V16.05C76.6098 15.5033 76.4732 15.0967 76.1998 14.83C75.9265 14.5633 75.5732 14.43 75.1398 14.43C74.7065 14.43 74.3532 14.5633 74.0798 14.83C73.8065 15.0967 73.6698 15.5033 73.6698 16.05V16.79C73.6698 17.3367 73.8065 17.7433 74.0798 18.01C74.3532 18.2767 74.7065 18.41 75.1398 18.41ZM82.5355 19C82.2355 19 82.0189 18.92 81.8855 18.76C81.7589 18.6 81.6789 18.4 81.6455 18.16H81.5955C81.4822 18.48 81.2955 18.72 81.0355 18.88C80.7755 19.04 80.4655 19.12 80.1055 19.12C79.5589 19.12 79.1322 18.98 78.8255 18.7C78.5255 18.42 78.3755 18.04 78.3755 17.56C78.3755 17.0733 78.5522 16.7 78.9055 16.44C79.2655 16.18 79.8222 16.05 80.5755 16.05H81.5955V15.54C81.5955 15.1733 81.4955 14.8933 81.2955 14.7C81.0955 14.5067 80.7889 14.41 80.3755 14.41C80.0622 14.41 79.7989 14.48 79.5855 14.62C79.3789 14.76 79.2055 14.9467 79.0655 15.18L78.5855 14.73C78.7255 14.45 78.9489 14.2133 79.2555 14.02C79.5622 13.82 79.9489 13.72 80.4155 13.72C81.0422 13.72 81.5289 13.8733 81.8755 14.18C82.2222 14.4867 82.3955 14.9133 82.3955 15.46V18.3H82.9855V19H82.5355ZM80.2355 18.44C80.4355 18.44 80.6189 18.4167 80.7855 18.37C80.9522 18.3233 81.0955 18.2567 81.2155 18.17C81.3355 18.0833 81.4289 17.9833 81.4955 17.87C81.5622 17.7567 81.5955 17.6333 81.5955 17.5V16.65H80.5355C80.0755 16.65 79.7389 16.7167 79.5255 16.85C79.3189 16.9833 79.2155 17.1767 79.2155 17.43V17.64C79.2155 17.8933 79.3055 18.09 79.4855 18.23C79.6722 18.37 79.9222 18.44 80.2355 18.44ZM87.4273 18.16H87.3873C87.074 18.8 86.5707 19.12 85.8773 19.12C85.5573 19.12 85.2673 19.0567 85.0073 18.93C84.7473 18.8033 84.524 18.6233 84.3373 18.39C84.1573 18.1567 84.0173 17.8733 83.9173 17.54C83.824 17.2067 83.7773 16.8333 83.7773 16.42C83.7773 16.0067 83.824 15.6333 83.9173 15.3C84.0173 14.9667 84.1573 14.6833 84.3373 14.45C84.524 14.2167 84.7473 14.0367 85.0073 13.91C85.2673 13.7833 85.5573 13.72 85.8773 13.72C86.2373 13.72 86.544 13.8 86.7973 13.96C87.0573 14.1133 87.254 14.3533 87.3873 14.68H87.4273V11.6H88.2273V19H87.4273V18.16ZM86.0973 18.4C86.2773 18.4 86.4473 18.3767 86.6073 18.33C86.774 18.2833 86.9173 18.2167 87.0373 18.13C87.1573 18.0367 87.2507 17.9267 87.3173 17.8C87.3907 17.6667 87.4273 17.5167 87.4273 17.35V15.43C87.4273 15.29 87.3907 15.16 87.3173 15.04C87.2507 14.9133 87.1573 14.8067 87.0373 14.72C86.9173 14.6333 86.774 14.5667 86.6073 14.52C86.4473 14.4667 86.2773 14.44 86.0973 14.44C85.644 14.44 85.2873 14.5833 85.0273 14.87C84.7673 15.15 84.6373 15.52 84.6373 15.98V16.86C84.6373 17.32 84.7673 17.6933 85.0273 17.98C85.2873 18.26 85.644 18.4 86.0973 18.4ZM94.2414 19.12C93.8947 19.12 93.5781 19.0567 93.2914 18.93C93.0047 18.8033 92.7581 18.6233 92.5514 18.39C92.3514 18.15 92.1947 17.8667 92.0814 17.54C91.9681 17.2067 91.9114 16.8333 91.9114 16.42C91.9114 16.0133 91.9681 15.6433 92.0814 15.31C92.1947 14.9767 92.3514 14.6933 92.5514 14.46C92.7581 14.22 93.0047 14.0367 93.2914 13.91C93.5781 13.7833 93.8947 13.72 94.2414 13.72C94.5881 13.72 94.9014 13.7833 95.1814 13.91C95.4681 14.0367 95.7147 14.22 95.9214 14.46C96.1281 14.6933 96.2881 14.9767 96.4014 15.31C96.5147 15.6433 96.5714 16.0133 96.5714 16.42C96.5714 16.8333 96.5147 17.2067 96.4014 17.54C96.2881 17.8667 96.1281 18.15 95.9214 18.39C95.7147 18.6233 95.4681 18.8033 95.1814 18.93C94.9014 19.0567 94.5881 19.12 94.2414 19.12ZM94.2414 18.41C94.6747 18.41 95.0281 18.2767 95.3014 18.01C95.5747 17.7433 95.7114 17.3367 95.7114 16.79V16.05C95.7114 15.5033 95.5747 15.0967 95.3014 14.83C95.0281 14.5633 94.6747 14.43 94.2414 14.43C93.8081 14.43 93.4547 14.5633 93.1814 14.83C92.9081 15.0967 92.7714 15.5033 92.7714 16.05V16.79C92.7714 17.3367 92.9081 17.7433 93.1814 18.01C93.4547 18.2767 93.8081 18.41 94.2414 18.41ZM97.8871 19V13.84H98.6871V14.68H98.7271C98.8538 14.3867 99.0304 14.1533 99.2571 13.98C99.4904 13.8067 99.8004 13.72 100.187 13.72C100.72 13.72 101.14 13.8933 101.447 14.24C101.76 14.58 101.917 15.0633 101.917 15.69V19H101.117V15.83C101.117 14.9033 100.727 14.44 99.9471 14.44C99.7871 14.44 99.6304 14.46 99.4771 14.5C99.3304 14.54 99.1971 14.6 99.0771 14.68C98.9571 14.76 98.8604 14.8633 98.7871 14.99C98.7204 15.11 98.6871 15.2533 98.6871 15.42V19H97.8871ZM107.074 19C106.794 19 106.581 18.9233 106.434 18.77C106.294 18.61 106.224 18.4033 106.224 18.15V14.54H105.374V13.84H105.854C106.027 13.84 106.144 13.8067 106.204 13.74C106.271 13.6667 106.304 13.5433 106.304 13.37V12.41H107.024V13.84H108.154V14.54H107.024V18.3H108.074V19H107.074ZM109.44 11.6H110.24V14.68H110.28C110.407 14.3867 110.583 14.1533 110.81 13.98C111.043 13.8067 111.353 13.72 111.74 13.72C112.273 13.72 112.693 13.8933 113 14.24C113.313 14.58 113.47 15.0633 113.47 15.69V19H112.67V15.83C112.67 14.9033 112.28 14.44 111.5 14.44C111.34 14.44 111.183 14.46 111.03 14.5C110.883 14.54 110.75 14.6 110.63 14.68C110.51 14.76 110.413 14.8633 110.34 14.99C110.273 15.11 110.24 15.2533 110.24 15.42V19H109.44V11.6ZM117.063 19.12C116.71 19.12 116.39 19.0567 116.103 18.93C115.823 18.8033 115.58 18.6233 115.373 18.39C115.173 18.15 115.017 17.8667 114.903 17.54C114.797 17.2067 114.743 16.8333 114.743 16.42C114.743 16.0133 114.797 15.6433 114.903 15.31C115.017 14.9767 115.173 14.6933 115.373 14.46C115.58 14.22 115.823 14.0367 116.103 13.91C116.39 13.7833 116.71 13.72 117.063 13.72C117.41 13.72 117.72 13.7833 117.993 13.91C118.267 14.0367 118.5 14.2133 118.693 14.44C118.887 14.66 119.033 14.9233 119.133 15.23C119.24 15.5367 119.293 15.8733 119.293 16.24V16.62H115.583V16.86C115.583 17.08 115.617 17.2867 115.683 17.48C115.757 17.6667 115.857 17.83 115.983 17.97C116.117 18.11 116.277 18.22 116.463 18.3C116.657 18.38 116.873 18.42 117.113 18.42C117.44 18.42 117.723 18.3433 117.963 18.19C118.21 18.0367 118.4 17.8167 118.533 17.53L119.103 17.94C118.937 18.2933 118.677 18.58 118.323 18.8C117.97 19.0133 117.55 19.12 117.063 19.12ZM117.063 14.39C116.843 14.39 116.643 14.43 116.463 14.51C116.283 14.5833 116.127 14.69 115.993 14.83C115.867 14.97 115.767 15.1367 115.693 15.33C115.62 15.5167 115.583 15.7233 115.583 15.95V16.02H118.433V15.91C118.433 15.45 118.307 15.0833 118.053 14.81C117.807 14.53 117.477 14.39 117.063 14.39Z" fill="white"/></svg>