<svg xmlns="http://www.w3.org/2000/svg" width="48" height="48"><defs><linearGradient id="a" x1="2.538%" x2="97.462%" y1="100%" y2="0%"><stop offset="0%" stop-color="#FF444F"/><stop offset="100%" stop-color="#FF6444"/></linearGradient></defs><path fill="url(#a)" fill-rule="evenodd" d="M36 0c.828 0 1.5.686 1.5 1.532V4.5h8.441a1.5 1.5 0 011.496 1.388l.004.112a1.5 1.5 0 01-.036.326c-2.1 9.445-3.732 14.841-5.064 16.496l-.062.075-.124.133c-1.288 1.289-2.45 1.873-4.655 1.775v1.238c0 2.622-5.32 7.001-9.75 8.959v6.248h3.75a.75.75 0 01.75.75v5.25a.75.75 0 01-.75.75h-15a.75.75 0 01-.75-.75V42a.75.75 0 01.75-.75h3.75v-6.315c-4.393-2.036-9.75-6.491-9.75-8.892v-1.238c-2.184.097-3.25-.487-4.539-1.775l-.123-.133C4.494 21.335 2.845 15.919.711 6.326A1.5 1.5 0 012.175 4.5H10.5V1.532C10.5.686 11.172 0 12 0h24zm-5.25 42.75h-13.5v3.75h13.5v-3.75zm-9-7.204v5.704h4.5v-5.67c-.832.269-1.599.42-2.25.42-.64 0-1.409-.165-2.25-.454zM36 1.5H12v24.558c0 2.2 8.629 8.442 12 8.442 3.532 0 12-5.976 12-8.442V1.5zm-11.063 9.54l1.201.96H28.5a1.5 1.5 0 011.5 1.5v1.515l.996.796.115.102a1.5 1.5 0 01.1 2.03L30 19.397V21a1.5 1.5 0 01-1.5 1.5h-2.362l-1.201.96a1.5 1.5 0 01-1.874 0l-1.201-.96H19.5A1.5 1.5 0 0118 21v-1.648l-1.033-1.55a1.5 1.5 0 01.187-1.892l.846-.846V13.5a1.5 1.5 0 011.5-1.5h2.362l1.201-.96a1.5 1.5 0 011.874 0zM45.941 6H37.5v17.303c1.702.063 2.575-.35 3.48-1.22l.115-.113c.946-.947 2.39-5.395 4.19-13.093l.092-.394.374-1.633.19-.85zM10.5 6H2.175l.19.85.374 1.633c1.844 7.94 3.32 12.524 4.283 13.487.946.946 1.729 1.398 3.477 1.333V6zM24 12.21l-1.201.961a1.5 1.5 0 01-.937.329H19.5v1.564a1.5 1.5 0 01-.44 1.061l-.845.846 1.033 1.549a1.5 1.5 0 01.252.832V21h2.362c.34 0 .671.116.937.329l1.201.96 1.201-.96a1.5 1.5 0 01.937-.329H28.5v-1.603c0-.351.123-.691.348-.96l1.211-1.454-.996-.797a1.5 1.5 0 01-.563-1.171V13.5h-2.362a1.5 1.5 0 01-.937-.329L24 12.211z"/></svg>