<svg role="img" xmlns="http://www.w3.org/2000/svg" width="64" height="64" viewBox="0 0 64 64" aria-labelledby="bad-judgement-icon-title">
    <title id='bad-judgement-icon-title'>Avoid bad judgement</title>
    <defs>
        <linearGradient id="a" x1="3.449%" x2="96.551%" y1="100%" y2="0%">
            <stop offset="0%" stop-color="#FF444F"/>
            <stop offset="100%" stop-color="#FF6444"/>
        </linearGradient>
    </defs>
    <g fill="none" fill-rule="evenodd">
        <path d="M0 0h64v64H0z"/>
        <path fill="url(#a)" d="M26.944 3.256c2.961.793 4.7 3.414 4.278 6.323l1.19.318a2 2 0 0 1 1.414 2.45l-.96 3.584c8.38 4.793 12.62 14.716 10.073 24.222-1.856 6.93-6.894 12.157-13.121 14.532l31.096-2.681a1 1 0 0 1 .288 1.976l-.116.016-18.17 1.566 4.898 6.857A1 1 0 0 1 47 64H37a1 1 0 0 1-.814-1.581l4.777-6.688-37.877 3.265a1 1 0 0 1-1.066-.794l-.016-.116a1 1 0 0 1 .794-1.066l.116-.016 15.167-1.307c-.491-.096-.983-.21-1.474-.341C5.137 52.283-1.669 40.493 1.405 29.024c2.613-9.754 11.617-16.277 21.501-15.928l.362.016.898-3.353a2 2 0 0 1 2.45-1.415l2.654.712c.154-1.811-.948-3.36-2.844-3.868a4 4 0 0 0-4.842 2.637l-.057.191A6 6 0 0 1 9.937 4.91a1 1 0 1 1 1.931.518 4 4 0 0 0 7.728 2.07l.062-.216a6 6 0 0 1 7.286-4.026zM42 57.72L38.943 62h6.114L42 57.72zM26.098 10.276l-1.112 4.151a1 1 0 0 1-1.057.737c-9.384-.86-18.126 5.173-20.593 14.378C.55 39.944 6.722 50.637 17.126 53.424c10.402 2.787 21.094-3.386 23.882-13.789 2.374-8.86-1.755-18.12-9.775-22.319a1 1 0 0 1-.502-1.144l1.163-4.343-5.796-1.553zm33.899 39.641a1 1 0 0 1-.798 1.063l-.116.017-6 .5a1 1 0 0 1-.282-1.977l.116-.017 6-.5a1 1 0 0 1 1.08.914zm.981-10.453a6.029 6.029 0 0 1-1.292 4.26c-.648.801-.944 1.704-.877 2.642a.679.679 0 0 1 .734.62c.028.346.053.985-.244 1.099l-.075.016-6.973.61c-.36.03-.53-.648-.581-1.002a.679.679 0 0 1 .537-.76 3.872 3.872 0 0 0-1.295-2.473 5.904 5.904 0 0 1-2.004-4.057c-.222-3.282 2.26-6.134 5.568-6.396 3.307-.261 6.207 2.165 6.502 5.44zm-6.505-4.109c-2.451.254-4.377 2.528-4.203 4.966a4.562 4.562 0 0 0 1.544 3.138c.92.809 1.53 1.702 1.722 2.874l.035.255 3.985-.349c-.09-1.302.221-2.345 1.06-3.353a4.683 4.683 0 0 0 1.002-3.303 4.638 4.638 0 0 0-1.68-3.182 4.72 4.72 0 0 0-3.465-1.046zm-30.547-9.049a1 1 0 0 1 .73 1.11l-.023.115-.27 1.01c2.402.98 3.68 3.284 3.072 5.916a1 1 0 1 1-1.948-.45c.43-1.866-.583-3.372-2.562-3.829-1.765-.407-2.956.087-3.508 1.459l6.366 4.55.02.015.056.045a1.286 1.286 0 0 1 .115.118l.028.036a.846.846 0 0 1 .088.14c.01.019.018.037.026.056l.022.054a.989.989 0 0 1 .063.32v.053l-.003.06-.006.052a.886.886 0 0 1-.009.056l-.007.034c-.61 2.643-2.565 3.978-5.142 3.735l-.024.093a1 1 0 0 1-1.956-.403l.024-.115.012-.047c-2.26-.943-3.21-3.103-2.59-5.784a1 1 0 0 1 1.949.45c-.464 2.01.24 3.275 2.079 3.7 1.764.407 2.956-.086 3.507-1.458l-6.366-4.551-.017-.012a.877.877 0 0 1-.166-.157 1.174 1.174 0 0 1-.074-.1l-.011-.017-.01-.017a.857.857 0 0 1-.077-.16l-.014-.04a1.066 1.066 0 0 1-.019-.065l-.013-.056-.006-.038a.88.88 0 0 1-.009-.078l-.002-.038v-.061l.003-.057.006-.053v-.009l.007-.035.003-.018.006-.027c.61-2.644 2.565-3.978 5.142-3.735l.283-1.06a1 1 0 0 1 1.225-.707zM8.726 5.158a1 1 0 0 1-.667 1.15l-.113.03-1.095.225a1 1 0 0 1-.514-1.93l.113-.03 1.095-.224a1 1 0 0 1 1.18.78zm7.424-1.385a1 1 0 0 1-.262 1.296l-.104.07-1.225.707a1 1 0 0 1-1.105-1.663l.105-.07 1.225-.706a1 1 0 0 1 1.366.366zM8.257.899L8.35.97l.837.742A1 1 0 0 1 7.95 3.28L7.86 3.21l-.837-.742A1 1 0 0 1 8.257.9zm4.827-.212a1 1 0 0 1 .157 1.32l-.072.091-.742.837A1 1 0 0 1 10.858 1.7l.073-.092.741-.837a1 1 0 0 1 1.412-.084z"/>
    </g>
</svg>
