<svg xmlns="http://www.w3.org/2000/svg" width="231" height="145" viewBox="0 0 231 145" img="role" aria-labelledby="bfx-tc">
    <title id="BFX">BFX</title>
    <defs>
        <linearGradient id="a" x1="0%" y1="1.057%" y2="84.765%">
            <stop offset="0%" stop-color="#FF6444"/>
            <stop offset="100%" stop-color="#FF444F"/>
        </linearGradient>
        <linearGradient id="b" x1="0%" y1="4.454%" y2="82.352%">
            <stop offset="0%" stop-color="#FF6444"/>
            <stop offset="100%" stop-color="#FF444F"/>
        </linearGradient>
        <linearGradient id="c" x1="136.345%" x2="-44.033%" y1="55.351%" y2="180.489%">
            <stop offset="0%" stop-color="#FF6444"/>
            <stop offset="100%" stop-color="#FF444F"/>
        </linearGradient>
        <linearGradient id="d" x1="53.009%" x2="46.529%" y1="11.67%" y2="93.127%">
            <stop offset="0%" stop-color="#FF6444"/>
            <stop offset="100%" stop-color="#FF444F"/>
        </linearGradient>
    </defs>
    <g fill="none" fill-rule="evenodd">
        <path fill="#E5E5E5" fill-rule="nonzero" d="M55.941 144.4c-18.756 0-32.652-6.333-41.687-19C5.218 112.733.7 95 .7 72.2.7 49.4 5.218 31.667 14.254 19 23.289 6.333 37.185 0 55.94 0 74.697 0 88.593 6.333 97.63 19c9.035 12.667 13.553 30.4 13.553 53.2 0 22.8-4.518 40.533-13.553 53.2-9.036 12.667-22.932 19-41.688 19zm0-25.4c8.214 0 13.896-2.933 17.045-8.8 3.149-5.867 4.723-14.133 4.723-24.8V59c0-10.667-1.574-18.933-4.723-24.8-3.15-5.867-8.83-8.8-17.045-8.8-8.214 0-13.896 2.933-17.045 8.8-3.148 5.867-4.723 14.133-4.723 24.8v26.4c0 10.667 1.575 18.933 4.723 24.8 3.15 5.867 8.83 8.8 17.045 8.8zm95.696 23l48.054-115.2h-44.768v25.4h-26.08V2.4h101.446v26L184.084 142h-32.447z" opacity=".295"/>
        <g transform="translate(25.65 53)">
            <path fill="url(#a)" fill-rule="nonzero" d="M63.81 0c1.051 0 1.904.85 1.904 1.898v52.265c0 1.048-1.001 1.696-2.053 1.696H29.777l-7.927 8.548c-.723.761-2.341.593-2.341.593s-1.027 0-1.027-1.016l.08-7.923H1.906A1.901 1.901 0 0 1 0 54.163V1.898C0 .85.853 0 1.905 0H63.81zM2.054 2.031V54.07H18.63c1.047 0 1.896.846 1.896 1.89v7.01l7.898-8.31c.358-.377.831-.83 1.352-.83H63.66V2.03H2.054z" transform="matrix(-1 0 0 1 65.714 0)"/>
            <path fill="url(#b)" fill-rule="nonzero" d="M61.607 47.79c0 .53-.46.96-1.027.96s-1.026-.43-1.026-.96V4.968c-.568 0-1.027-.43-1.027-.96 0-.531.46-.961 1.027-.961 1.134 0 2.053.86 2.053 1.92V47.79zM3.08 30.469c0-.526.509-1.016 1.027-1.016.519 0 1.027.49 1.027 1.016V50.78h15.402c1.036 0 2.053.98 2.053 2.032v5.078c0 .677-.342 1.015-1.026 1.015-.685 0-1.027-.338-1.027-1.015v-5.078H5.134c-1.037 0-2.054-.981-2.054-2.032V30.47zM59.63 3.047c.525 0 .95.455.95 1.015 0 .561-.425 1.016-.95 1.016H24.567c-.525 0-.95-.455-.95-1.016 0-.56.425-1.015.95-1.015H59.63z" transform="matrix(-1 0 0 1 64.688 0)"/>
            <ellipse cx="32.857" cy="38.086" fill="url(#c)" rx="1.027" ry="1.016"/>
            <path fill="url(#d)" fill-rule="nonzero" d="M31.83 18.79v15.233c0 .561.46 1.016 1.027 1.016s1.027-.455 1.027-1.016V18.79c0-.56-.46-1.016-1.027-1.016s-1.027.455-1.027 1.016z"/>
        </g>
    </g>
</svg>
