<svg width="40" height="40" viewBox="0 0 40 40" fill="none" xmlns="http://www.w3.org/2000/svg">
<g clip-path="url(#clip0_1158_18118)">
<rect width="40" height="40" fill="#2A3052"/>
<path d="M38.3333 1.66699L-1.66667 7.98052L-9 41.667H31L38.3333 1.66699Z" fill="#384177"/>
<g filter="url(#filter0_d_1158_18118)">
<path d="M15.0524 24.9703C14.5204 24.9703 13.9884 24.9516 13.4564 24.9143C12.9337 24.8863 12.3877 24.8116 11.8184 24.6903V15.2823C12.2664 15.1983 12.7564 15.1376 13.2884 15.1003C13.8204 15.0536 14.315 15.0303 14.7724 15.0303C15.3884 15.0303 15.953 15.0769 16.4664 15.1703C16.989 15.2543 17.437 15.4036 17.8104 15.6183C18.1837 15.8329 18.473 16.1176 18.6784 16.4723C18.893 16.8176 19.0004 17.2469 19.0004 17.7603C19.0004 18.5349 18.627 19.1463 17.8804 19.5943C18.4964 19.8276 18.9164 20.1449 19.1404 20.5463C19.3644 20.9476 19.4764 21.4003 19.4764 21.9043C19.4764 22.9216 19.103 23.6869 18.3564 24.2003C17.619 24.7136 16.5177 24.9703 15.0524 24.9703ZM13.9464 20.6163V23.1223C14.105 23.1409 14.2777 23.1549 14.4644 23.1643C14.651 23.1736 14.8564 23.1783 15.0804 23.1783C15.7337 23.1783 16.261 23.0849 16.6624 22.8983C17.0637 22.7116 17.2644 22.3663 17.2644 21.8623C17.2644 21.4143 17.0964 21.0969 16.7604 20.9103C16.4244 20.7143 15.9437 20.6163 15.3184 20.6163H13.9464ZM13.9464 18.9503H15.0104C15.6824 18.9503 16.163 18.8663 16.4524 18.6983C16.7417 18.5209 16.8864 18.2409 16.8864 17.8583C16.8864 17.4663 16.737 17.1909 16.4384 17.0323C16.1397 16.8736 15.701 16.7943 15.1224 16.7943C14.9357 16.7943 14.735 16.7989 14.5204 16.8083C14.3057 16.8083 14.1144 16.8176 13.9464 16.8363V18.9503Z" fill="white"/>
<path d="M23.7586 24.9703C23.2266 24.9703 22.6946 24.9516 22.1626 24.9143C21.6399 24.8863 21.0939 24.8116 20.5246 24.6903V15.2823C20.9726 15.1983 21.4626 15.1376 21.9946 15.1003C22.5266 15.0536 23.0213 15.0303 23.4786 15.0303C24.0946 15.0303 24.6593 15.0769 25.1726 15.1703C25.6953 15.2543 26.1433 15.4036 26.5166 15.6183C26.8899 15.8329 27.1793 16.1176 27.3846 16.4723C27.5993 16.8176 27.7066 17.2469 27.7066 17.7603C27.7066 18.5349 27.3333 19.1463 26.5866 19.5943C27.2026 19.8276 27.6226 20.1449 27.8466 20.5463C28.0706 20.9476 28.1826 21.4003 28.1826 21.9043C28.1826 22.9216 27.8093 23.6869 27.0626 24.2003C26.3253 24.7136 25.2239 24.9703 23.7586 24.9703ZM22.6526 20.6163V23.1223C22.8113 23.1409 22.9839 23.1549 23.1706 23.1643C23.3573 23.1736 23.5626 23.1783 23.7866 23.1783C24.4399 23.1783 24.9673 23.0849 25.3686 22.8983C25.7699 22.7116 25.9706 22.3663 25.9706 21.8623C25.9706 21.4143 25.8026 21.0969 25.4666 20.9103C25.1306 20.7143 24.6499 20.6163 24.0246 20.6163H22.6526ZM22.6526 18.9503H23.7166C24.3886 18.9503 24.8693 18.8663 25.1586 18.6983C25.4479 18.5209 25.5926 18.2409 25.5926 17.8583C25.5926 17.4663 25.4433 17.1909 25.1446 17.0323C24.8459 16.8736 24.4073 16.7943 23.8286 16.7943C23.6419 16.7943 23.4413 16.7989 23.2266 16.8083C23.0119 16.8083 22.8206 16.8176 22.6526 16.8363V18.9503Z" fill="white"/>
</g>
</g>
<defs>
<filter id="filter0_d_1158_18118" x="9.81836" y="14.0303" width="20.3643" height="13.9404" filterUnits="userSpaceOnUse" color-interpolation-filters="sRGB">
<feFlood flood-opacity="0" result="BackgroundImageFix"/>
<feColorMatrix in="SourceAlpha" type="matrix" values="0 0 0 0 0 0 0 0 0 0 0 0 0 0 0 0 0 0 127 0" result="hardAlpha"/>
<feOffset dy="1"/>
<feGaussianBlur stdDeviation="1"/>
<feColorMatrix type="matrix" values="0 0 0 0 0.054902 0 0 0 0 0.054902 0 0 0 0 0.054902 0 0 0 0.05 0"/>
<feBlend mode="normal" in2="BackgroundImageFix" result="effect1_dropShadow_1158_18118"/>
<feBlend mode="normal" in="SourceGraphic" in2="effect1_dropShadow_1158_18118" result="shape"/>
</filter>
<clipPath id="clip0_1158_18118">
<rect width="40" height="40" rx="6" fill="white"/>
</clipPath>
</defs>
</svg>
