<svg width="32" height="32" viewBox="0 0 32 32" fill="none" xmlns="http://www.w3.org/2000/svg">
<g clip-path="url(#clip0_496_18537)">
<path d="M0 6C0 2.68629 2.68629 0 6 0H26C29.3137 0 32 2.68629 32 6V26C32 29.3137 29.3137 32 26 32H6C2.68629 32 0 29.3137 0 26V6Z" fill="#384177"/>
<path d="M6 0C2.68629 0 0 2.68629 0 6V6.17428L29.9144 1.45264C28.8637 0.547333 27.4958 0 26 0H6Z" fill="#2A3052"/>
<path d="M30.5319 2.06775L25.0444 32L26 32C29.3137 32 32 29.3137 32 26V6C32 4.49576 31.4465 3.12081 30.5319 2.06775Z" fill="#2A3052"/>
<path d="M11.0517 20.97C10.5197 20.97 9.98766 20.9514 9.45566 20.914C8.93299 20.886 8.38699 20.8114 7.81766 20.69V11.282C8.26566 11.198 8.75566 11.1374 9.28766 11.1C9.81966 11.0534 10.3143 11.03 10.7717 11.03C11.3877 11.03 11.9523 11.0767 12.4657 11.17C12.9883 11.254 13.4363 11.4034 13.8097 11.618C14.183 11.8327 14.4723 12.1174 14.6777 12.472C14.8923 12.8174 14.9997 13.2467 14.9997 13.76C14.9997 14.5347 14.6263 15.146 13.8797 15.594C14.4957 15.8274 14.9157 16.1447 15.1397 16.546C15.3637 16.9474 15.4757 17.4 15.4757 17.904C15.4757 18.9214 15.1023 19.6867 14.3557 20.2C13.6183 20.7134 12.517 20.97 11.0517 20.97ZM9.94566 16.616V19.122C10.1043 19.1407 10.277 19.1547 10.4637 19.164C10.6503 19.1734 10.8557 19.178 11.0797 19.178C11.733 19.178 12.2603 19.0847 12.6617 18.898C13.063 18.7114 13.2637 18.366 13.2637 17.862C13.2637 17.414 13.0957 17.0967 12.7597 16.91C12.4237 16.714 11.943 16.616 11.3177 16.616H9.94566ZM9.94566 14.95H11.0097C11.6817 14.95 12.1623 14.866 12.4517 14.698C12.741 14.5207 12.8857 14.2407 12.8857 13.858C12.8857 13.466 12.7363 13.1907 12.4377 13.032C12.139 12.8734 11.7003 12.794 11.1217 12.794C10.935 12.794 10.7343 12.7987 10.5197 12.808C10.305 12.808 10.1137 12.8174 9.94566 12.836V14.95Z" fill="white"/>
<path d="M19.7579 20.97C19.2259 20.97 18.6939 20.9514 18.1619 20.914C17.6392 20.886 17.0932 20.8114 16.5239 20.69V11.282C16.9719 11.198 17.4619 11.1374 17.9939 11.1C18.5259 11.0534 19.0206 11.03 19.4779 11.03C20.0939 11.03 20.6586 11.0767 21.1719 11.17C21.6946 11.254 22.1426 11.4034 22.5159 11.618C22.8892 11.8327 23.1786 12.1174 23.3839 12.472C23.5986 12.8174 23.7059 13.2467 23.7059 13.76C23.7059 14.5347 23.3326 15.146 22.5859 15.594C23.2019 15.8274 23.6219 16.1447 23.8459 16.546C24.0699 16.9474 24.1819 17.4 24.1819 17.904C24.1819 18.9214 23.8086 19.6867 23.0619 20.2C22.3246 20.7134 21.2232 20.97 19.7579 20.97ZM18.6519 16.616V19.122C18.8106 19.1407 18.9832 19.1547 19.1699 19.164C19.3566 19.1734 19.5619 19.178 19.7859 19.178C20.4392 19.178 20.9666 19.0847 21.3679 18.898C21.7692 18.7114 21.9699 18.366 21.9699 17.862C21.9699 17.414 21.8019 17.0967 21.4659 16.91C21.1299 16.714 20.6492 16.616 20.0239 16.616H18.6519ZM18.6519 14.95H19.7159C20.3879 14.95 20.8686 14.866 21.1579 14.698C21.4472 14.5207 21.5919 14.2407 21.5919 13.858C21.5919 13.466 21.4426 13.1907 21.1439 13.032C20.8452 12.8734 20.4066 12.794 19.8279 12.794C19.6412 12.794 19.4406 12.7987 19.2259 12.808C19.0112 12.808 18.8199 12.8174 18.6519 12.836V14.95Z" fill="white"/>
</g>
<defs>
<clipPath id="clip0_496_18537">
<rect width="32" height="32" fill="white"/>
</clipPath>
</defs>
</svg>
