<svg xmlns="http://www.w3.org/2000/svg" width="64" height="64"><defs><linearGradient id="a" x1="13.955%" x2="86.045%" y1="100%" y2="0%"><stop offset="0%" stop-color="#FF444F"/><stop offset="100%" stop-color="#FF6444"/></linearGradient></defs><g fill="none" fill-rule="evenodd"><path d="M0 0h64v64H0z"/><path fill="url(#a)" d="M30 6c3.066 0 5.423 2.081 5.769 5H37a2 2 0 012 2v3.71c9.335 2.46 16 10.948 16 20.79C55 49.374 45.374 59 33.5 59S12 49.374 12 37.5c0-10.098 7.009-18.73 16.647-20.95l.353-.078V13a2 2 0 012-2h2.747C33.428 9.21 31.963 8 30 8a4 4 0 00-3.995 3.8L26 12a6 6 0 11-12 0 1 1 0 012 0 4 4 0 108 0l.004-.225A6 6 0 0130 6zm7 7h-6v4.297a1 1 0 01-.83.986C20.883 19.88 14 27.971 14 37.5 14 48.27 22.73 57 33.5 57S53 48.27 53 37.5c0-9.173-6.385-17.05-15.218-19.029a1 1 0 01-.782-.975V13zm-8.948 23.109v-.028c-.095-2.711 1.447-4.506 3.999-4.938v-1.097a1 1 0 011.993-.117l.007.117v1.046c2.573.324 4.405 2.22 4.499 4.92a1 1 0 11-1.999.069c-.067-1.914-1.435-3.106-3.465-3.036-1.81.064-2.833.849-3.011 2.317l7.327 2.748a1.02 1.02 0 01.23.122l.037.028a.846.846 0 01.121.112l.04.047.035.047a.989.989 0 01.143.292l.014.051a1.092 1.092 0 01.026.168l.002.034c.095 2.712-1.448 4.506-4 4.938v.097a1 1 0 01-1.993.117l-.006-.117v-.049c-2.428-.326-3.904-2.166-4-4.916a1 1 0 011.999-.07c.072 2.06 1.08 3.102 2.966 3.036 1.81-.064 2.833-.849 3.01-2.317L28.7 36.982l-.02-.007a.877.877 0 01-.201-.108 1.174 1.174 0 01-.098-.078l-.014-.014-.015-.013a.857.857 0 01-.14-.17 1.066 1.066 0 01-.034-.058l-.027-.051-.016-.035a.88.88 0 01-.029-.073l-.011-.036-.017-.06a1.097 1.097 0 01-.011-.054l-.009-.053-.001-.009-.003-.036-.002-.018zM12.894 12.553a1 1 0 01-.345 1.283l-.102.058-1 .5a1 1 0 01-.996-1.73l.102-.058 1-.5a1 1 0 011.341.447zm6.813-3.26a1 1 0 01.083 1.32l-.083.094-1 1a1 1 0 01-1.497-1.32l.083-.094 1-1a1 1 0 011.414 0zm-8.367-.734l.107.047 1 .5a1 1 0 01-.787 1.835l-.107-.047-1-.5a1 1 0 01.787-1.835zm4.607-1.453a1 1 0 01.494 1.234l-.047.107-.5 1a1 1 0 01-1.835-.787l.047-.107.5-1a1 1 0 011.341-.447z"/></g></svg>