<svg xmlns="http://www.w3.org/2000/svg" width="64" height="64" viewBox="0 0 64 64" aria-labelledby="browser-icon-title">
    <title id="browser-icon-title">Browser icon</title>
    <g fill="none" fill-rule="nonzero">
        <path fill="#85ACB0" d="M6 54H3a1 1 0 0 1-1-1V3a1 1 0 0 1 1-1h50a1 1 0 0 1 1 1v5a1 1 0 0 0 2 0V3a3 3 0 0 0-3-3H3a3 3 0 0 0-3 3v50a3 3 0 0 0 3 3h3a1 1 0 0 0 0-2z"/>
        <path fill="#85ACB0" d="M7 24h56a1 1 0 0 0 0-2H7a1 1 0 0 0 0 2zM14 19a3 3 0 1 0 0-6 3 3 0 0 0 0 6zm0-2a1 1 0 1 1 0-2 1 1 0 0 1 0 2zM24 19a3 3 0 1 0 0-6 3 3 0 0 0 0 6zm0-2a1 1 0 1 1 0-2 1 1 0 0 1 0 2zM34 19a3 3 0 1 0 0-6 3 3 0 0 0 0 6zm0-2a1 1 0 1 1 0-2 1 1 0 0 1 0 2z"/>
        <path fill="#FF444F" d="M27.383 44.567l4.48 3.51a2.829 2.829 0 0 0 3.83-.297l17.68-19.1a1 1 0 0 0-1.467-1.36l-17.68 19.1a.83.83 0 0 1-1.124.087l-4.485-3.514a1 1 0 0 0-1.234 1.574z"/>
        <path fill="#0E0E0E" d="M47.39 39.063A13 13 0 1 1 34.994 30c2.55-.006 5.043.743 7.166 2.153a1 1 0 1 0 1.107-1.666A14.9 14.9 0 0 0 34.99 28a15 15 0 1 0 14.305 10.457 1 1 0 1 0-1.906.606z"/>
        <path fill="#85ACB0" d="M9 8h52a3 3 0 0 1 3 3v50a3 3 0 0 1-3 3H9a3 3 0 0 1-3-3V11a3 3 0 0 1 3-3zm0 2a1 1 0 0 0-1 1v50a1 1 0 0 0 1 1h52a1 1 0 0 0 1-1V11a1 1 0 0 0-1-1H9z"/>
    </g>
</svg>
