<svg width="33" height="32" viewBox="0 0 33 32" fill="none" xmlns="http://www.w3.org/2000/svg">
<g clip-path="url(#clip0_1218_14346)">
<path fill-rule="evenodd" clip-rule="evenodd" d="M16.9001 32C18.8116 32 20.6448 31.6648 22.3441 31.05L21.7995 27.0103C20.6437 28.5936 19.2937 29.5704 17.8992 29.8869V24.0089C19.1237 24.0308 20.3029 24.0924 21.419 24.1884L21.1454 22.1595C20.1012 22.0791 19.0148 22.0278 17.8992 22.0086V17H24.8795C24.8577 17.5304 24.8187 18.052 24.7636 18.5633L26.5927 19.9798C26.7445 19.0168 26.8423 18.0204 26.8811 17H30.8648C30.7338 18.8559 30.2411 20.6119 29.4567 22.198L31.0662 23.4445C32.2372 21.2208 32.8999 18.6878 32.8999 16C32.8999 7.16345 25.7366 0 16.9001 0C8.06373 0 0.900391 7.16345 0.900391 16C0.900391 24.8366 8.06373 32 16.9001 32ZM15.8992 2.11356C14.2531 2.48795 12.6692 3.78214 11.3938 5.9079C11.0782 6.43377 10.7863 7.00404 10.5218 7.61332C12.154 7.82316 13.969 7.95655 15.8992 7.99106V2.11356ZM17.8992 2.11312V7.9911C19.8289 7.95666 21.6447 7.82336 23.2785 7.61332C23.014 7.00404 22.722 6.43377 22.4065 5.9079C21.1306 3.7813 19.5459 2.48693 17.8992 2.11312ZM15.8992 9.99137C13.7326 9.95395 11.6732 9.79573 9.81878 9.53699C9.31893 11.1864 9.00162 13.033 8.92075 15H15.8992V9.99137ZM17.8992 15V9.9914C20.0679 9.95402 22.1277 9.79562 23.9815 9.53698C24.4814 11.1864 24.7987 13.033 24.8795 15H17.8992ZM15.8992 17H8.92075C9.00162 18.967 9.31893 20.8136 9.81878 22.463C11.671 22.2046 13.73 22.0461 15.8992 22.0086V17ZM15.8992 24.009C13.9712 24.0434 12.1558 24.1766 10.5217 24.3867C10.7863 24.996 11.0782 25.5663 11.3938 26.0921C12.6692 28.2179 14.2531 29.5121 15.8992 29.8865V24.009ZM7.83094 9.20592C7.31442 10.9884 6.9973 12.9458 6.91924 15H2.93552C3.10315 12.6248 3.86325 10.4132 5.06893 8.51213C5.88804 8.77407 6.81581 9.0068 7.83094 9.20592ZM6.91924 17H2.93552C3.10315 19.3751 3.86322 21.5867 5.06886 23.4878C5.88698 23.2261 6.81474 22.9934 7.83093 22.7941C7.31441 21.0116 6.9973 19.0543 6.91924 17ZM28.7314 8.51217C29.9371 10.4133 30.6971 12.6249 30.8648 15H26.8811C26.803 12.9458 26.4859 10.9884 25.9694 9.20592C26.9851 9.00671 27.9128 8.77395 28.7314 8.51217ZM23.1583 3.47322C24.8022 4.2961 26.2615 5.43306 27.4577 6.80542C26.8098 6.98553 26.0915 7.14996 25.313 7.29536C24.9653 6.42935 24.5662 5.62005 24.1215 4.87891C23.8236 4.38244 23.502 3.91193 23.1583 3.47322ZM10.642 28.5268C10.2983 28.0881 9.97668 27.6176 9.6788 27.1211C9.23412 26.38 8.835 25.5707 8.48726 24.7046C7.70913 24.85 6.99079 25.0144 6.34259 25.1946C7.53875 26.567 8.99811 27.7039 10.642 28.5268ZM8.48727 7.29538C8.83501 6.42936 9.23413 5.62005 9.6788 4.87891C9.97668 4.38244 10.2983 3.91193 10.642 3.47322C8.99809 4.29611 7.53871 5.43309 6.34254 6.80548C6.99009 6.98548 7.70843 7.14992 8.48727 7.29538Z" fill="white"/>
<path d="M24.1437 29.428L22.8166 19.5847L30.9575 25.8898L28.5603 27.1351L30.7983 30.9525L28.7793 32.0001L26.5409 28.1834L24.1437 29.428Z" fill="white"/>
</g>
<defs>
<clipPath id="clip0_1218_14346">
<rect width="32" height="32" fill="white" transform="translate(0.900391)"/>
</clipPath>
</defs>
</svg>
