<svg xmlns="http://www.w3.org/2000/svg" width="230" height="145"><defs><linearGradient id="a" x1="127.364%" x2="15.899%" y1="12.412%" y2="64.549%"><stop offset="0%" stop-color="#FF6444"/><stop offset="100%" stop-color="#FF444F"/></linearGradient><linearGradient id="b" x1="127.364%" x2="15.899%" y1="12.401%" y2="64.553%"><stop offset="0%" stop-color="#FF6444"/><stop offset="100%" stop-color="#FF444F"/></linearGradient><linearGradient id="c" x1="75.888%" x2="38.589%" y1="12.401%" y2="64.553%"><stop offset="0%" stop-color="#FF6444"/><stop offset="100%" stop-color="#FF444F"/></linearGradient><linearGradient id="d" x1="71.394%" x2="40.57%" y1="12.401%" y2="64.553%"><stop offset="0%" stop-color="#FF6444"/><stop offset="100%" stop-color="#FF444F"/></linearGradient><linearGradient id="e" x1="71.5%" x2="40.523%" y1="12.401%" y2="64.553%"><stop offset="0%" stop-color="#FF6444"/><stop offset="100%" stop-color="#FF444F"/></linearGradient><linearGradient id="f" x1="74.007%" x2="39.418%" y1="12.401%" y2="64.553%"><stop offset="0%" stop-color="#FF6444"/><stop offset="100%" stop-color="#FF444F"/></linearGradient><linearGradient id="g" x1="127.364%" x2="15.899%" y1="29.104%" y2="58.088%"><stop offset="0%" stop-color="#FF6444"/><stop offset="100%" stop-color="#FF444F"/></linearGradient><linearGradient id="h" x1="136.345%" x2="-44.033%" y1="55.469%" y2="183.373%"><stop offset="0%" stop-color="#FF6444"/><stop offset="100%" stop-color="#FF444F"/></linearGradient></defs><g fill="none" fill-rule="evenodd"><path fill="#E5E5E5" fill-rule="nonzero" d="M55.241 144.4c-18.756 0-32.652-6.333-41.687-19C4.518 112.733 0 95 0 72.2 0 49.4 4.518 31.667 13.554 19 22.589 6.333 36.485 0 55.24 0c18.757 0 32.653 6.333 41.69 19 9.035 12.667 13.553 30.4 13.553 53.2 0 22.8-4.518 40.533-13.553 53.2-9.036 12.667-22.932 19-41.688 19zm0-25.4c8.214 0 13.896-2.933 17.045-8.8 3.149-5.867 4.723-14.133 4.723-24.8V59c0-10.667-1.574-18.933-4.723-24.8-3.15-5.867-8.83-8.8-17.045-8.8-8.214 0-13.896 2.933-17.045 8.8-3.148 5.867-4.723 14.133-4.723 24.8v26.4c0 10.667 1.575 18.933 4.723 24.8 3.15 5.867 8.83 8.8 17.045 8.8zM230 142H128.554v-27.4l44.151-36.8c3.97-3.333 7.325-6.367 10.063-9.1 2.738-2.733 4.963-5.4 6.674-8 1.711-2.6 2.943-5.167 3.696-7.7.753-2.533 1.13-5.267 1.13-8.2V42c0-2.667-.548-5-1.643-7s-2.533-3.667-4.313-5c-1.78-1.333-3.799-2.333-6.058-3-2.258-.667-4.552-1-6.879-1-3.423 0-6.4.533-8.933 1.6-2.533 1.067-4.723 2.5-6.571 4.3a24.66 24.66 0 00-4.621 6.2 34.233 34.233 0 00-2.875 7.5l-26.902-10c1.643-4.8 3.902-9.367 6.777-13.7 2.875-4.333 6.469-8.133 10.781-11.4 4.313-3.267 9.412-5.833 15.3-7.7C164.216.933 170.856 0 178.25 0c7.804 0 14.717 1.067 20.741 3.2 6.024 2.133 11.124 5.067 15.3 8.8 4.175 3.733 7.358 8.167 9.548 13.3 2.19 5.133 3.286 10.7 3.286 16.7s-1.027 11.467-3.08 16.4c-2.054 4.933-4.826 9.567-8.317 13.9-3.491 4.333-7.564 8.433-12.22 12.3a752.502 752.502 0 01-14.58 11.8l-26.696 20.4H230V142z" opacity=".295"/><g transform="translate(26 60)"><path fill="url(#a)" fill-rule="nonzero" d="M36.35 16.332a1 1 0 011.321-.06l.093.084 13.612 14.078.062.08.047.075.031.06c.88 1.82.596 3.11-.839 5.484-.748 1.239-1.786 1.952-3.035 2.081-.194 1.122-.623 2.07-1.296 2.829-.716.809-1.693 1.383-2.91 1.732-.193 1.168-.618 2.172-1.283 2.996-.628.78-1.286 1.105-2.5 1.382.074 1.15-.335 2.35-1.399 3.45-1.659 1.716-3.924 1.773-5.71.646l-.184-.12-.06-.045a1.042 1.042 0 01-.24-.136l-.106-.094-1.667-1.695a1 1 0 011.332-1.486l.094.083 1.6 1.627a.977.977 0 01.182.099c1.067.736 2.35.736 3.321-.269.843-.872.991-1.73.713-2.536l-.057-.15-2.995-2.854a1 1 0 011.283-1.529l.097.081 3.167 3.018.09-.018c.794-.175 1.138-.324 1.414-.629l.068-.08c.459-.569.756-1.294.885-2.191l-7.736-8a1 1 0 011.345-1.474l.092.084 7.667 7.928.259-.079c.757-.248 1.333-.606 1.742-1.068.465-.524.757-1.23.865-2.143l-7.747-8.012a1 1 0 011.345-1.474l.093.084 7.8 8.065.153-.005c.656-.043 1.164-.4 1.607-1.133 1.071-1.773 1.25-2.452.814-3.44L36.326 17.746a1 1 0 01.024-1.414zm-35.83.153L16.316.523a1.749 1.749 0 012.39-.098l.12.112 5.4 5.585.36.087c1.759.442 2.988.946 3.749 1.552l.147.124.83.758c.414.383.828.775 1.23 1.166l.593.585.508.517a1 1 0 11-1.438 1.39 57.629 57.629 0 00-1.651-1.628l-.807-.754-.595-.54-.09-.075c-.526-.407-1.605-.833-3.254-1.225l-.607-.14-5.64-5.832L2.146 17.685l11.191 10.116a1 1 0 01.15 1.314l-.078.098a1.002 1.002 0 01-1.315.15l-.098-.079L.918 19.27a.978.978 0 01-.319-.171l-.107-.1a1.814 1.814 0 01-.085-2.387l.113-.126L16.316.523.52 16.485z"/><circle cx="16" cy="8" r="1" fill="#B3B3B3" stroke="url(#b)"/><path fill="url(#c)" fill-rule="nonzero" d="M15.766 23.535c3.83-.271 4.142 3.049 4.152 6.523l-.009 1.902c-.045 3.62-.43 6.784-4.466 6.472-4.106-.317-4.179-3.118-4.162-6.777l.008-1.132c.047-3.598.437-6.701 4.477-6.988zm0 2.007l-.27.032c-1.814.264-2.194 1.448-2.213 5.638l-.001 1.015.005.527c.049 2.935.407 3.488 2.04 3.66l.27.024c1.167.09 1.56-.13 1.844-.784.33-.759.451-1.87.471-4.031l.004-1.648-.007-.599c-.027-1.32-.113-2.122-.305-2.751l-.079-.232c-.253-.682-.553-.909-1.444-.873l-.173.01-.143.012z" transform="rotate(44 15.599 30.987)"/><path fill="url(#d)" fill-rule="nonzero" d="M20.3 28.367c3.83-.297 3.788 3.75 3.768 7.567l-.01 1.104c-.056 3.516-.473 6.532-4.059 6.226-3.409-.292-3.758-2.654-3.78-5.849l.005-1.856c.034-3.685.332-6.902 4.075-7.192zm.033 2.005c-1.622.171-2.053 1.204-2.107 5.081l-.005.588v1.282l.008.527c.063 2.84.44 3.293 1.94 3.421l.168.012c.8.045 1.051-.139 1.287-.734.295-.744.41-1.801.438-3.785l.005-.623.004-1.12-.005-.646c-.023-1.636-.132-2.593-.389-3.29-.22-.597-.42-.763-1.075-.733l-.148.009-.121.011z" transform="rotate(44 20.145 35.818)"/><path fill="url(#e)" fill-rule="nonzero" d="M24.462 32.513c3.548 0 3.78 3.07 3.775 6.47l-.007 1.313c-.018 3.879-.653 7.186-4.068 7.114-3.196-.068-3.735-2.947-3.776-6.497l-.002-.735c.018-3.878.078-7.665 4.078-7.665zm0 2c-1.687 0-2.057 1.022-2.078 5.665v.481l.007.585c.068 3.18.557 4.14 1.814 4.166 1.416.03 2.007-1.28 2.025-5.123l.005-1.451c-.005-1.669-.072-2.533-.268-3.213l-.067-.212c-.238-.688-.524-.898-1.438-.898z" transform="rotate(44 24.31 39.962)"/><path fill="url(#f)" fill-rule="nonzero" d="M29.628 37.644c3.35.043 3.627 2.77 3.629 5.874l-.016 2.167c-.06 3.374-.548 6.144-4.058 6.06-3.74-.088-3.798-3.169-3.781-6.837l.007-.659c.062-3.433.568-6.652 4.219-6.605zm-.026 2c-1.562-.02-2.102 1-2.188 4.418l-.012.856v.83c.024 3.205.325 3.897 1.616 3.989l.212.01c1.574.037 1.98-.791 2.016-4.451l.008-1.156-.001-.827c-.028-2.92-.326-3.585-1.454-3.662l-.197-.007z" transform="rotate(44 29.329 44.695)"/><path fill="url(#b)" fill-rule="nonzero" d="M5.586 23L7 24.414 24.414 7 23 5.586z"/><path fill="url(#g)" fill-rule="nonzero" d="M50 30l13.098-13.503a2.002 2.002 0 000-2.77L50.517.615a2 2 0 00-2.828-.058l-.061.061-1.222 1.376-.601.662C42.357 6.423 39.917 8.52 38.65 8.88c-.891.253-1.512.29-2.46.194l-.847-.093c-.465-.046-.705-.047-1.058-.008-.44.048-.857.173-1.269.387-1.696.884-8.083 7.573-9.345 9.702-1.21 2.042-.7 3.674.862 5.6 1.064 1.31 2.97 1.693 4.606 1.124 1.03-.357 3.794-3.108 8.968-8.784a1 1 0 00-1.478-1.347l-1.64 1.786-1.509 1.616c-2.84 3.014-4.602 4.703-4.998 4.84-.893.31-1.907.107-2.396-.496-1.093-1.346-1.359-2.198-.694-3.32 1.086-1.832 7.218-8.254 8.548-8.947.19-.099.367-.152.564-.173l.139-.012c.14-.006.29 0 .545.026l.472.053c1.362.16 2.258.14 3.537-.224 1.91-.543 4.917-3.21 9.25-8.091L49.073 2l12.58 13.112-13.097 13.503a.998.998 0 00.03 1.414.998.998 0 001.413-.029z"/><path stroke="url(#b)" stroke-linecap="square" stroke-width="2" d="M42 8l13.591 13.612"/><path fill="url(#b)" fill-rule="nonzero" d="M7.082 18.332l5.25-5.25a1 1 0 00-1.414-1.414l-5.25 5.25a1 1 0 001.414 1.414z"/><circle cx="49" cy="8" r="1" fill="url(#h)" stroke="url(#b)" stroke-width="2"/><path stroke="url(#b)" stroke-linecap="round" stroke-width="2" d="M52 15l5-5" transform="rotate(90 54.5 12.5)"/></g></g></svg>