<svg xmlns="http://www.w3.org/2000/svg" width="64" height="64"><defs><linearGradient id="a" x1=".007%" x2="99.993%" y1="100%" y2="0%"><stop offset="0%" stop-color="#FF444F"/><stop offset="100%" stop-color="#FF6444"/></linearGradient></defs><path fill="url(#a)" fill-rule="evenodd" d="M12.1 6.002c3.17.289 11.909 10.647 11.91 13.995 0 2.025-1.222 4.328-3.61 6.974l16.622 16.622.305-.27c2.533-2.203 4.74-3.328 6.68-3.327 3.349 0 13.707 8.739 13.995 11.908.29 3.174-8.678 11.245-12.797 12.069-2.572.514-9.508-5.38-22-18.297l-2.514-2.617-2.587-2.485C5.334 28.23-.482 21.37.032 18.799.856 14.681 8.927 5.714 12.1 6.002zM1.993 19.192c-.118.59 1.246 2.77 4.045 6.041l.494.572.58.659c3.186 3.584 7.813 8.29 13.9 14.134l1.092 1.047 1.12 1.17c5.72 5.951 10.372 10.533 13.951 13.742l.954.845.578.5c3.313 2.84 5.517 4.228 6.106 4.11 3.177-.635 11.086-7.715 11.2-9.817l-.002-.11-.02-.12c-.513-2.272-9.68-9.97-11.983-9.97-1.561 0-3.698 1.213-6.326 3.709l-.706.67L17.61 27.01l.678-.706c2.504-2.612 3.72-4.742 3.72-6.307 0-2.346-7.985-11.812-10.09-12.003-1.951-.178-9.28 7.963-9.926 11.198zM62 0a2 2 0 012 2v22.994a2 2 0 01-2 2H44.416l-3 3a2 2 0 01-3.414-1.415v-1.585h-8a2 2 0 01-2-2V2a2 2 0 012-2H62zm0 2H30.003v22.994h7.999a2 2 0 012 2v1.585l3-3a2 2 0 011.414-.585H62V2zm-9 8.997v2h-1.999v-2h2zm-5.999 0v2h-2v-2h2zm-6 0v2h-2v-2h2z"/></svg>