
<svg role='img' aria-labelledby='career-integrity' xmlns="http://www.w3.org/2000/svg" width="50" height="64" viewBox="0 0 50 64">
    <title id='career-integrity'>Integrity</title>
    <g fill="none" fill-rule="evenodd">
        <path d="M0 0H64V64H0z" transform="translate(-7)"/>
        <g fill="#FF444F" fill-rule="nonzero">
            <path d="M49.55 49.06c-.293-10.955-7.59-20.482-18.09-23.62 5.444-2.95 8.192-9.219 6.67-15.22C36.61 4.216 31.207.013 25.015.013S13.421 4.217 11.9 10.219c-1.522 6.002 1.226 12.271 6.67 15.221C8.114 28.617.864 38.127.57 49.05c-.25 6 1 10.26 3.61 12.7 1.487 1.396 3.473 2.135 5.51 2.05H40.79c1.915-.02 3.753-.76 5.15-2.07 2.65-2.41 3.86-6.73 3.61-12.67zM14.48 13.57c-.004-4.256 2.557-8.095 6.487-9.726 3.931-1.632 8.457-.734 11.468 2.274 3.011 3.008 3.913 7.533 2.285 11.466-1.628 3.932-5.464 6.496-9.72 6.496-5.804-.006-10.509-4.706-10.52-10.51zM44 59.52c-.869.865-2.055 1.335-3.28 1.3h-8.1c-1 0-2.16-1.68-2.16-3.08 0-.583.232-1.141.645-1.552.413-.411.972-.64 1.555-.638H39c.826-.005 1.495-.674 1.5-1.5v-8.2c0-.828-.672-1.5-1.5-1.5s-1.5.672-1.5 1.5v6.7h-4.84c-.103-.01-.207-.01-.31 0-2.74.154-4.884 2.416-4.89 5.16.018 1.08.303 2.138.83 3.08h-7c.527-.942.812-2 .83-3.08-.007-2.747-2.157-5.012-4.9-5.16-.1-.01-.2-.01-.3 0h-4.51v-6.7c0-.828-.672-1.5-1.5-1.5s-1.5.672-1.5 1.5v8.2c0 .828.672 1.5 1.5 1.5h6c1.211 0 2.194.979 2.2 2.19 0 1.39-1.14 3-2.14 3.08H9.43c-1.206.037-2.376-.418-3.24-1.26-1.94-1.8-2.86-5.38-2.65-10.37.5-12.12 9.94-21.61 21.51-21.66 11.57-.05 21 9.54 21.5 21.66.21 4.94-.69 8.52-2.55 10.33z" transform="translate(-7) translate(7)"/>
            <path d="M33.31 35.85c-1.054-1.19-2.57-1.864-4.16-1.85-1.615.004-3.141.74-4.15 2-1.006-1.264-2.534-2-4.15-2-1.594-.008-3.113.678-4.16 1.88-1.01 1.172-1.558 2.673-1.54 4.22.028 1.856.74 3.636 2 5 1.439 1.564 2.993 3.019 4.65 4.35.68.58 1.39 1.18 2.16 1.85.276.244.632.379 1 .38.371-.005.728-.147 1-.4l2.14-1.84c1.683-1.355 3.258-2.84 4.71-4.44 1.26-1.364 1.972-3.144 2-5 .012-1.518-.52-2.99-1.5-4.15zM20.85 37c.823.038 1.574.484 2 1.19.28.404.502.845.66 1.31.198.628.781 1.056 1.44 1.056.659 0 1.242-.428 1.44-1.056.158-.465.38-.906.66-1.31.398-.682 1.103-1.127 1.89-1.193.786-.065 1.555.257 2.06.863.52.618.796 1.403.78 2.21 0 2.2-2.23 4.11-5.62 7l-1.19 1-1.11-.95-.08-.07c-3.39-2.88-5.62-4.79-5.62-7 .007-.807.305-1.585.84-2.19.463-.54 1.138-.855 1.85-.86z" transform="translate(-7) translate(7)"/>
        </g>
    </g>
</svg>
