<svg xmlns="http://www.w3.org/2000/svg" width="64" height="64"><g fill="none" fill-rule="evenodd"><path d="M0 0h64v64H0z"/><g fill="#FF444F" fill-rule="nonzero"><path d="M56.55 49.06a25.36 25.36 0 00-18.09-23.62 13.53 13.53 0 006.67-15.22 13.53 13.53 0 10-19.56 15.22 25.39 25.39 0 00-18 23.61c-.25 6 1 10.26 3.61 12.7a7.589 7.589 0 005.51 2.05h31.1a7.648 7.648 0 005.15-2.07c2.65-2.41 3.86-6.73 3.61-12.67zM21.48 13.57A10.52 10.52 0 1132 24.08c-5.804-.006-10.509-4.706-10.52-10.51zM51 59.52a4.469 4.469 0 01-3.28 1.3h-8.1c-1 0-2.16-1.68-2.16-3.08a2.189 2.189 0 012.2-2.19H46a1.51 1.51 0 001.5-1.5v-8.2a1.5 1.5 0 00-3 0v6.7h-4.84a1.605 1.605 0 00-.31 0 5.18 5.18 0 00-4.89 5.16 6.53 6.53 0 00.83 3.08h-7c.527-.942.812-2 .83-3.08a5.18 5.18 0 00-4.9-5.16c-.1-.01-.2-.01-.3 0h-4.51v-6.7a1.5 1.5 0 00-3 0v8.2a1.5 1.5 0 001.5 1.5h6a2.2 2.2 0 012.2 2.19c0 1.39-1.14 3-2.14 3.08h-7.54a4.448 4.448 0 01-3.24-1.26c-1.94-1.8-2.86-5.38-2.65-10.37.5-12.12 9.94-21.61 21.51-21.66 11.57-.05 21 9.54 21.5 21.66.21 4.94-.69 8.52-2.55 10.33z"/><path d="M40.31 35.85A5.49 5.49 0 0036.15 34 5.334 5.334 0 0032 36a5.304 5.304 0 00-4.15-2 5.48 5.48 0 00-4.16 1.88 6.352 6.352 0 00-1.54 4.22 7.535 7.535 0 002 5 42.416 42.416 0 004.65 4.35c.68.58 1.39 1.18 2.16 1.85.276.244.632.379 1 .38a1.498 1.498 0 001-.4l2.14-1.84A41.538 41.538 0 0039.81 45a7.535 7.535 0 002-5 6.352 6.352 0 00-1.5-4.15zM27.85 37a2.469 2.469 0 012 1.19c.28.404.502.845.66 1.31a1.51 1.51 0 002.88 0c.158-.465.38-.906.66-1.31a2.422 2.422 0 013.95-.33c.52.618.796 1.403.78 2.21 0 2.2-2.23 4.11-5.62 7l-1.19 1-1.11-.95-.08-.07c-3.39-2.88-5.62-4.79-5.62-7a3.35 3.35 0 01.84-2.19 2.462 2.462 0 011.85-.86z"/></g></g></svg>