
<svg role='img' aria-labelledby='career-teamwork' xmlns="http://www.w3.org/2000/svg" width="64" height="64" viewBox="0 0 64 64">
    <title id='career-teamwork'>Teamwork</title>
    <g fill="none" fill-rule="evenodd">
        <g fill="#FF444F" fill-rule="nonzero">
            <path d="M31.5 8c.828 0 1.5-.554 1.5-1.238V1.238C33 .554 32.328 0 31.5 0S30 .554 30 1.238v5.524C30 7.446 30.672 8 31.5 8zM62.767 43.144l-2.231-2.228c-.794-.795-1.852-1.232-2.98-1.232-.72 0-1.413.18-2.026.516l-4.205-4.207.205-.204c1.706-1.712 1.705-4.494 0-6.2-.61-.612-1.37-1.02-2.2-1.192.115-.394.175-.808.175-1.23 0-1.176-.456-2.278-1.281-3.1-.61-.612-1.37-1.02-2.2-1.192.115-.394.175-.807.175-1.23 0-1.176-.456-2.278-1.283-3.102-.624-.624-1.391-1.02-2.197-1.188.431-1.488.063-3.163-1.106-4.335-.973-.971-2.294-1.388-3.566-1.253l-8.334-1.58c-1.27-.241-2.858-.4-3.86.514-.063.058-.127.125-.19.199-1.554-.567-3.366-.23-4.61 1.015-.825.825-1.28 1.927-1.28 3.101 0 .423.06.837.174 1.231-.828.172-1.588.58-2.195 1.189-.827.824-1.283 1.925-1.284 3.098 0 .424.06.839.174 1.234-.828.171-1.588.578-2.198 1.187-.826.828-1.282 1.93-1.282 3.104 0 .899.268 1.756.765 2.48-.627.212-1.202.567-1.683 1.048-1.707 1.708-1.708 4.49.001 6.204l.204.204-4.205 4.204c-1.564-.737-3.49-.46-4.78.83l-2.232 2.23C.437 44.053 0 45.113 0 46.243s.437 2.19 1.232 2.984l2.787 2.788c.493.494 1.293.493 1.786-.001.493-.495.493-1.296-.001-1.79l-2.787-2.787c-.316-.317-.49-.74-.49-1.194 0-.454.174-.878.49-1.193l2.233-2.23c.558-.559 1.412-.642 2.06-.254.046.07.098.135.159.195.108.109.232.192.363.253l12.806 12.807c.061.133.145.258.254.367.106.106.227.189.355.25.271.306.42.698.42 1.115 0 .454-.173.878-.49 1.194l-2.23 2.232c-.66.657-1.732.657-2.39.002l-2.786-2.791c-.494-.494-1.293-.494-1.787 0-.493.494-.493 1.295 0 1.789l2.79 2.793c.82.819 1.898 1.228 2.977 1.228 1.078 0 2.158-.41 2.98-1.23l2.232-2.232c.794-.795 1.231-1.855 1.231-2.985 0-.806-.223-1.576-.64-2.24l4.734-4.735.015-.016c.542-.56 2.051-.456 3.511-.354 1.037.072 2.194.152 3.323.022l5.184 5.185c-.336.613-.515 1.306-.515 2.026 0 1.13.437 2.188 1.231 2.983l2.233 2.233c.794.794 1.852 1.231 2.98 1.231 1.126 0 2.185-.437 2.978-1.231l13.54-13.544C63.563 48.32 64 47.26 64 46.13s-.438-2.19-1.233-2.985zm-33.524-30.47l5.48 1.038-3.28 3.284c-.508-.244-1.203-.7-1.966-1.43-1.044-1.001-1.791-2.156-1.86-2.877v-.001c-.004-.052-.006-.093-.005-.125.165-.04.604-.085 1.63.11zm-6.405 1.031c.64-.64 1.634-.714 2.358-.224.41 1.721 1.875 3.28 2.535 3.913.488.468 2.056 1.872 3.64 2.258.213.307.33.674.33 1.06 0 .499-.191.964-.54 1.313-.348.349-.813.54-1.312.54-.498 0-.964-.191-1.313-.541v-.001l-5.698-5.696c-.347-.347-.539-.813-.539-1.31 0-.499.192-.964.54-1.312zm-3.3 5.521c.347-.349.812-.54 1.31-.54s.964.192 1.314.542l4.588 4.585c.722.725.722 1.904.002 2.626-.35.348-.817.54-1.316.54-.499 0-.966-.192-1.314-.539l-3.48-3.485-.017-.016-1.09-1.09c-.348-.349-.54-.816-.54-1.313 0-.496.192-.96.542-1.31zm-3.308 5.52c.348-.348.814-.54 1.313-.54.495 0 .957.19 1.303.53l3.491 3.495c.348.348.54.813.54 1.31 0 .498-.192.963-.541 1.312-.348.347-.813.539-1.312.539-.498 0-.966-.192-1.314-.54l-1.265-1.265-.001-.001-2.214-2.215c-.349-.349-.541-.815-.541-1.312 0-.498.192-.964.54-1.313zm-2.2 6.631c.35-.35.816-.542 1.314-.542.499 0 .965.192 1.315.542l1.267 1.267c.348.348.54.813.54 1.31 0 .498-.192.963-.543 1.313-.347.348-.813.54-1.311.54-.499 0-.964-.191-1.315-.543l-.158-.158-.006-.006-.007-.007-1.095-1.092c-.722-.725-.723-1.902-.001-2.624zm25.744 14.379c-.493-.494-1.293-.495-1.787-.001l-1.124 1.124c-1.067 1.07-3.003.935-4.874.805-2.032-.141-4.134-.287-5.494 1.11l-4.653 4.655-11.636-11.636 4.118-4.117c.68.418 1.466.642 2.288.642 1.174 0 2.275-.456 3.097-1.28.828-.826 1.284-1.928 1.284-3.104l-.001-.032h.033c1.172 0 2.272-.454 3.095-1.277.828-.826 1.284-1.928 1.284-3.103v-.033h.033c1.172 0 2.272-.453 3.101-1.28.86-.863 1.286-2 1.278-3.134l.034.001c1.174 0 2.275-.456 3.098-1.282.825-.825 1.28-1.927 1.28-3.101 0-.822-.223-1.607-.639-2.287l3.61-3.614c.268-.268.6-.436.947-.506.038-.004.075-.01.112-.017.558-.077 1.143.095 1.57.52.722.726.722 1.905.002 2.627l-1.099 1.096-.01.01-1.267 1.266c-.494.494-.494 1.295-.001 1.79.493.494 1.293.495 1.786 0l1.104-1.103.168-.167c.724-.719 1.898-.717 2.621.006.348.347.54.813.54 1.31 0 .498-.192.963-.543 1.313l-1.105 1.11-1.266 1.262c-.495.493-.496 1.294-.004 1.79.492.495 1.292.496 1.787.003l1.271-1.268c.348-.35.814-.541 1.312-.541.498 0 .964.192 1.314.543.348.348.54.813.54 1.31 0 .498-.192.963-.542 1.312l-2.204 2.208c-.493.494-.493 1.295 0 1.79.247.246.57.37.894.37.323 0 .646-.124.893-.371l1.08-1.082.019-.017c.348-.35.813-.541 1.312-.541.498 0 .964.192 1.313.542.721.722.72 1.899 0 2.622l-1.099 1.099v.001l-.002.001-1.743 1.744c-.494.494-.494 1.295-.001 1.79.247.246.57.37.894.37.323 0 .646-.123.892-.37l.853-.853 4.086 4.088-11.635 11.638-4.168-4.17c.29-.187.568-.407.83-.668l1.123-1.124c.493-.494.494-1.295 0-1.789zm21.209 1.567l-13.54 13.544c-.317.316-.74.49-1.194.49-.453 0-.877-.174-1.194-.49l-2.232-2.234c-.317-.316-.49-.74-.49-1.192 0-.452.173-.875.49-1.192l13.54-13.543c.316-.317.74-.492 1.193-.492.454 0 .878.175 1.195.492l2.232 2.229c.316.317.49.74.49 1.194 0 .454-.174.878-.49 1.194zM14.884 6.637c.242.242.559.363.876.363.317 0 .635-.122.878-.365.483-.485.483-1.271-.002-1.756L12.116.363c-.484-.485-1.27-.484-1.754.002-.483.485-.483 1.271.002 1.756l4.52 4.516zM48.24 7c.318 0 .636-.121.878-.363l4.518-4.517c.485-.484.485-1.27.001-1.756-.484-.485-1.27-.485-1.755 0L47.364 4.88c-.485.484-.485 1.27-.001 1.756.242.243.56.364.878.364z"/>
            <path d="M7.43 54.448c-.58.59-.572 1.539.018 2.119l.005.004c.291.286.67.429 1.048.429.388 0 .776-.15 1.07-.449.58-.59.57-1.541-.02-2.121-.59-.58-1.54-.572-2.12.018zM42.501 44c.228 0 .459-.052.676-.161.738-.373 1.035-1.275.662-2.014-.372-.74-1.273-1.037-2.01-.664l-.009.004c-.738.373-1.03 1.273-.658 2.012.262.522.791.823 1.339.823z"/>
        </g>
        <path d="M0 0H64V64H0z"/>
    </g>
</svg>
