<svg xmlns="http://www.w3.org/2000/svg" width="32" height="32" viewBox="0 0 32 32">
    <path fill="#FFF" fill-rule="evenodd" d="M26.5 0c.536 0 1 .536 1 1v13.725l3.086-2.19-1.843-1.106c-.21-.127-.295-.383-.211-.605l.04-.081c.141-.237.448-.314.685-.172l2.5 1.5.01.006c.016.01.031.021.046.033l.02.018c.028.024.053.052.075.083l-.038-.048.03.037.008.01.01.014.028.05.017.036c.005.013.01.025.013.038.006.016.01.032.013.048.007.034.011.069.011.104l-.005-.073.005.052V31.5c0 .276-.224.5-.5.5H.5c-.276 0-.5-.224-.5-.5v-19-.014c0-.022.003-.044.006-.067l.005-.023c.003-.016.007-.032.013-.048l.013-.038c.015-.034.033-.068.055-.1l-.038.063.03-.05.008-.012L.1 12.2l.03-.037.036-.035c.024-.021.05-.04.077-.057l-.056.04c.015-.013.03-.024.046-.034l.01-.006 2.5-1.5c.237-.142.544-.065.686.172.142.237.065.544-.172.686l-1.844 1.106L4.5 14.726V1c0-.43.4-.924.886-.992L5.5 0zM31 13.467l-11.005 7.81 6.845 6.357c.203.188.214.504.026.706-.188.203-.504.214-.706.026l-6.998-6.498-2.873 2.04c-.148.105-.34.12-.5.045l-.078-.045-2.874-2.04-6.997 6.498c-.18.167-.45.177-.64.035l-.066-.06c-.188-.203-.177-.52.026-.707l6.844-6.357L1 13.468V31h30V13.467zM26.5 1h-21v14.435L16 22.887l10.5-7.453V1zM16 3.5c3.687 0 6.5 2.978 6.498 6.796-.118 1.287-.647 2.134-1.599 2.431-.784.245-1.478-.078-2.072-.875-.557.984-1.614 1.648-2.827 1.648-1.795 0-3.25-1.455-3.25-3.25S14.205 7 16 7s3.25 1.455 3.25 3.25c0 .116-.006.23-.018.343.493.986.942 1.313 1.369 1.18.513-.16.817-.647.899-1.523 0-3.232-2.379-5.75-5.5-5.75-3.072 0-5.5 2.712-5.5 6 0 3.176 2.324 5.5 5.5 5.5.276 0 .5.224.5.5s-.224.5-.5.5c-3.728 0-6.5-2.772-6.5-6.5 0-3.817 2.85-7 6.5-7zM16 8c-1.243 0-2.25 1.007-2.25 2.25S14.757 12.5 16 12.5s2.25-1.007 2.25-2.25S17.243 8 16 8z"/>
</svg>
