<svg xmlns="http://www.w3.org/2000/svg" width="32" height="32"><path fill="#FFF" fill-rule="evenodd" d="M26.5 0c.536 0 1 .536 1 1v13.725l3.086-2.19-1.843-1.106a.5.5 0 01-.211-.605l.04-.081a.499.499 0 01.685-.172l2.5 1.5.01.006c.016.01.031.021.046.033l.02.018a.458.458 0 01.075.083l-.038-.048.03.037.008.01.01.014.028.05.017.036c.005.013.01.025.013.038A.517.517 0 0132 12.5l-.005-.073.005.052V31.5a.5.5 0 01-.5.5H.5a.5.5 0 01-.5-.5V12.486c0-.022.003-.044.006-.067l.005-.023a.285.285 0 01.013-.048l.013-.038a.613.613 0 01.055-.1l-.038.063.03-.05.008-.012L.1 12.2l.03-.037.036-.035a.613.613 0 01.077-.057l-.056.04a.363.363 0 01.046-.034l.01-.006 2.5-1.5a.5.5 0 11.514.858l-1.844 1.106L4.5 14.726V1c0-.43.4-.924.886-.992L5.5 0zM31 13.467l-11.005 7.81 6.845 6.357a.499.499 0 11-.68.732l-6.998-6.498-2.873 2.04a.5.5 0 01-.5.045l-.078-.045-2.874-2.04-6.997 6.498a.501.501 0 01-.64.035l-.066-.06a.5.5 0 01.026-.707l6.844-6.357L1 13.468V31h30V13.467zM26.5 1h-21v14.435L16 22.887l10.5-7.453V1zM16 3.5c3.687 0 6.5 2.978 6.498 6.796-.118 1.287-.647 2.134-1.599 2.431-.784.245-1.478-.078-2.072-.875a3.25 3.25 0 11.405-1.259c.493.986.942 1.313 1.369 1.18.513-.16.817-.647.899-1.523 0-3.232-2.379-5.75-5.5-5.75-3.072 0-5.5 2.712-5.5 6 0 3.176 2.324 5.5 5.5 5.5a.5.5 0 010 1c-3.728 0-6.5-2.772-6.5-6.5 0-3.817 2.85-7 6.5-7zM16 8a2.25 2.25 0 100 4.5A2.25 2.25 0 0016 8z"/></svg>