
<svg role='img' aria-labelledby='career-customer' xmlns="http://www.w3.org/2000/svg" width="57" height="64" viewBox="0 0 57 64">
    <title id='career-customer'>Customer</title>
    <g fill="none" fill-rule="evenodd">
        <g fill="#FF444F" fill-rule="nonzero">
            <path d="M42 50c-.552 0-1 .448-1 1s.448 1 1 1 1-.448 1-1-.448-1-1-1z" transform="translate(-4) translate(4)"/>
            <path d="M45.181 45.458l-5.89-1.98-2.113-4.266c1.904-1.956 3.227-4.544 3.673-7.243l.263-1.594h2.256c2.05 0 3.717-1.682 3.717-3.75V18.75C47.087 8.411 38.749 0 28.5 0 18.225 0 9.913 8.387 9.913 18.75v7.875c0 1.63 1.036 3.019 2.478 3.535v1.465c0 2.068 1.668 3.75 3.718 3.75h1.088c.537 1.177 1.232 2.267 2.078 3.247.176.203.359.4.546.592l-2.113 4.264-5.89 1.98C4.97 47.761 0 55.034 0 62.75 0 63.44.555 64 1.24 64h54.52c.685 0 1.24-.56 1.24-1.25 0-7.716-4.97-14.989-11.819-17.292zm-.572-18.833c0 .69-.556 1.25-1.24 1.25h-1.89c.314-2.461.524-5.08.609-7.66l.006-.215h2.515v6.625zm-30.979 1.25c-.683 0-1.239-.56-1.239-1.25V20h2.515l.014.393v.014c.087 2.51.294 5.06.602 7.468H13.63zm2.479 5c-.684 0-1.24-.56-1.24-1.25v-1.25h1.016l.264 1.595c.05.303.112.605.184.905h-.224zM14.872 17.5h-2.434c.628-8.378 7.559-15 16.062-15 8.465 0 15.427 6.621 16.061 15h-2.433C42.04 10.597 36.466 5 29.61 5h-2.218c-6.857 0-12.43 5.597-12.52 12.5zm12.519-10h2.218c5.552 0 10.046 4.581 10.043 10.176 0 .394-.003.736-.01 1.048v.012l-1.55-.223c-4.21-.607-8.186-2.612-11.194-5.647-.233-.234-.548-.366-.876-.366-3.328 0-6.514 1.53-8.62 4.113.52-5.09 4.785-9.113 9.989-9.113zm-8.49 25.375c-.62-2.082-1.33-8.207-1.486-12.132l1.667-2.243c1.532-2.06 3.915-3.339 6.45-3.486 3.335 3.202 7.65 5.317 12.21 5.973l1.824.263c-.122 2.611-.37 5.23-.728 7.64v.003c-.114.774-.203 1.273-.432 2.665-.656 3.97-3.593 7.561-7.47 8.54-1.596.401-3.277.401-4.871 0-2.421-.611-4.641-2.301-6.074-4.723h2.526c.512 1.455 1.89 2.5 3.505 2.5H28.5c2.054 0 3.717-1.678 3.717-3.75 0-2.068-1.667-3.75-3.717-3.75h-2.478c-1.652 0-3.009 1.076-3.507 2.5h-3.613zm7.017 9.752c.85.18 1.716.273 2.582.273.678 0 1.356-.057 2.026-.168l-2.19 2.336-2.418-2.441zm.715 4.258l-3.93 4.193c-1.082-2.09-2.012-4.264-2.774-6.49l1.476-2.978 5.228 5.275zm8.752-5.698l1.686 3.4c-.764 2.23-1.694 4.406-2.775 6.492l-4.206-4.243 5.295-5.65zm-10.602-7.062c0-.69.554-1.25 1.239-1.25H28.5c.683 0 1.24.56 1.24 1.25s-.556 1.25-1.24 1.25h-2.478c-.684 0-1.24-.56-1.24-1.25zM2.528 61.5c.49-6.192 4.576-11.82 10.074-13.67l5.216-1.754c.956 2.666 2.14 5.257 3.527 7.718l.007.012c1.014 1.8 2.155 3.557 3.392 5.225l1.524 2.469H2.528zM28.5 60.386l-1.68-2.722-.06-.089c-1.004-1.35-1.94-2.762-2.793-4.208l4.42-4.714 4.656 4.697c-.858 1.456-1.798 2.874-2.802 4.225-.06.082.025-.047-1.741 2.81zm2.232 1.114l1.524-2.468c1.242-1.675 2.392-3.447 3.415-5.267l.019-.033.002-.004c1.37-2.438 2.541-5.006 3.49-7.652l5.216 1.754c5.498 1.85 9.583 7.478 10.074 13.67h-23.74z" transform="translate(-4) translate(4)"/>
            <path d="M49.884 57.01c-.735-1.839-1.812-3.473-3.114-4.725-.481-.463-1.172-.35-1.542.252-.37.602-.28 1.465.201 1.928 1.04 1 1.9 2.305 2.487 3.774.272.68.933.955 1.475.616.544-.34.764-1.165.493-1.845z" transform="translate(-4) translate(4)"/>
        </g>
        <path d="M0 0H64V64H0z" transform="translate(-4)"/>
    </g>
</svg>
