<svg xmlns="http://www.w3.org/2000/svg" width="24" height="24" viewBox="0 0 24 24">
    <defs>
        <linearGradient id="2ufv2yuora" x1="0%" x2="100%" y1="92.604%" y2="7.396%">
            <stop offset="0%" stop-color="#FF444F"/>
            <stop offset="100%" stop-color="#FF6444"/>
        </linearGradient>
    </defs>
    <path fill="url(#2ufv2yuora)" d="M12 3c1.657 0 3 1.343 3 3 0 .205-.02.405-.06.598 2.68 1.143 4.56 3.803 4.56 6.902 0 .282-.016.56-.046.834 1.317.316 2.296 1.502 2.296 2.916 0 1.657-1.343 3-3 3-.82 0-1.563-.329-2.105-.862C15.368 20.398 13.755 21 12 21c-1.754 0-3.368-.602-4.646-1.612-.54.533-1.284.862-2.104.862-1.657 0-3-1.343-3-3 0-1.414.979-2.6 2.296-2.917-.03-.273-.046-.551-.046-.833 0-3.099 1.88-5.759 4.56-6.902C9.02 6.405 9 6.205 9 6c0-1.657 1.343-3 3-3zm2.7 4.312C14.207 8.315 13.183 9 12 9c-1.187 0-2.212-.689-2.699-1.689C6.916 8.353 5.25 10.732 5.25 13.5c0 .254.014.505.041.752l-.041-.002c1.657 0 3 1.343 3 3 0 .567-.157 1.097-.43 1.549 1.148.909 2.6 1.451 4.18 1.451 1.58 0 3.032-.542 4.181-1.45-.274-.453-.431-.983-.431-1.55 0-1.642 1.32-2.977 2.957-3 .029-.245.043-.496.043-.75 0-2.768-1.666-5.147-4.05-6.188zM5.25 15C4.007 15 3 16.007 3 17.25s1.007 2.25 2.25 2.25 2.25-1.007 2.25-2.25S6.493 15 5.25 15zm13.5 0c-1.243 0-2.25 1.007-2.25 2.25s1.007 2.25 2.25 2.25S21 18.493 21 17.25 19.993 15 18.75 15zM12 3.75c-1.243 0-2.25 1.007-2.25 2.25S10.757 8.25 12 8.25 14.25 7.243 14.25 6 13.243 3.75 12 3.75z"/>
</svg>
