<svg xmlns="http://www.w3.org/2000/svg" width="32" height="32" viewBox="0 0 32 32">
    <g fill="none" fill-rule="evenodd">
        <path fill="#33658A" d="M5.998 0h20.004C29.314 0 32 2.686 32 5.998v20.004C32 29.314 29.314 32 26.002 32H5.998C2.686 32 0 29.314 0 26.002V5.998C0 2.686 2.686 0 5.998 0"/>
        <path fill="#FFF" fill-rule="nonzero" d="M6.903 16.301l-2.6 6c-.11.254.006.548.26.658.063.027.13.041.199.041h11.476c.277 0 .5-.224.5-.5 0-.068-.014-.136-.04-.199l-2.6-6c-.08-.183-.26-.301-.46-.301H7.362c-.2 0-.38.118-.46.301z"/>
        <path fill="#FFF" fill-rule="nonzero" d="M17.903 16.301l-2.6 6c-.11.254.006.548.26.658.063.027.13.041.199.041h11.476c.277 0 .5-.224.5-.5 0-.068-.014-.136-.04-.199l-2.6-6c-.08-.183-.26-.301-.46-.301h-6.276c-.2 0-.38.118-.46.301z"/>
        <path fill="#FFF" fill-rule="nonzero" d="M12.403 9.301l-2.6 6c-.11.254.006.548.26.658.063.027.13.041.199.041h11.476c.277 0 .5-.224.5-.5 0-.068-.014-.136-.04-.199l-2.6-6c-.08-.183-.26-.301-.46-.301h-6.276c-.2 0-.38.118-.46.301z"/>
    </g>
</svg>
