<svg xmlns="http://www.w3.org/2000/svg" width="48" height="48"><defs><linearGradient id="a" x1="0%" y1="100%" y2="0%"><stop offset="0%" stop-color="#FF444F"/><stop offset="100%" stop-color="#FF6444"/></linearGradient></defs><g fill="none" fill-rule="evenodd"><path d="M0 0h48v48H0z"/><path fill="url(#a)" d="M8.345 29.25c2.925 0 5.155 2.283 5.155 5.277 0 1.88-.881 3.465-2.269 4.38 3.038 1.374 5.269 4.726 5.269 8.343a.75.75 0 01-.75.75h-15a.75.75 0 01-.75-.75c0-3.65 2.272-7.03 5.352-8.38A5.185 5.185 0 013 34.5c0-2.945 2.368-5.25 5.345-5.25zm31.5 0c2.925 0 5.155 2.283 5.155 5.277 0 1.88-.881 3.465-2.269 4.38C45.769 40.281 48 43.633 48 47.25a.75.75 0 01-.75.75h-15a.75.75 0 01-.75-.75c0-3.65 2.272-7.03 5.352-8.38A5.185 5.185 0 0134.5 34.5c0-2.945 2.368-5.25 5.345-5.25zM8.25 39.75c-3.342 0-6.341 3.124-6.712 6.75h13.424l-.024-.2c-.458-3.54-3.408-6.55-6.688-6.55zm31.5 0c-3.342 0-6.341 3.124-6.712 6.75h13.424l-.024-.2c-.458-3.54-3.408-6.55-6.688-6.55zm-31.405-9c-2.157 0-3.845 1.642-3.845 3.75s1.688 3.75 3.845 3.75c2.106 0 3.655-1.567 3.655-3.723 0-2.173-1.566-3.777-3.655-3.777zm31.5 0C37.688 30.75 36 32.392 36 34.5s1.688 3.75 3.845 3.75c2.106 0 3.655-1.567 3.655-3.723 0-2.173-1.566-3.777-3.655-3.777zM24 20.25a.75.75 0 01.743.648l.007.102v8.912l7.835 3.917a.75.75 0 11-.67 1.342L24 31.213l-7.915 3.958a.75.75 0 01-.954-.248l-.052-.088a.75.75 0 01.248-.954l.088-.052 7.835-3.918V21a.75.75 0 01.75-.75zM24.095 0c2.925 0 5.155 2.283 5.155 5.277 0 1.88-.881 3.465-2.269 4.38 3.038 1.374 5.269 4.726 5.269 8.343a.75.75 0 01-.75.75h-15a.75.75 0 01-.75-.75c0-3.65 2.272-7.03 5.352-8.38a5.185 5.185 0 01-2.352-4.37c0-2.945 2.368-5.25 5.345-5.25zM24 10.5c-3.342 0-6.341 3.124-6.712 6.75h13.424l-.024-.2C30.23 13.51 27.28 10.5 24 10.5zm.095-9c-2.157 0-3.845 1.642-3.845 3.75S21.938 9 24.095 9c2.106 0 3.655-1.567 3.655-3.723 0-2.173-1.566-3.777-3.655-3.777z"/></g></svg>