<svg xmlns="http://www.w3.org/2000/svg" width="48" height="48"><defs><linearGradient id="a" x1="0%" y1="98.722%" y2="1.278%"><stop offset="0%" stop-color="#FF444F"/><stop offset="100%" stop-color="#FF6444"/></linearGradient></defs><path fill="url(#a)" fill-rule="evenodd" d="M36.785 21.146l10.186 3.842a1.5 1.5 0 01.962 1.569c-.765 6.893-1.941 11.625-3.57 14.24-1.645 2.641-4.253 4.77-7.806 6.393-.32.146-.681.175-1.03.08l-.3-.087c-3.085-.932-5.536-2.982-7.332-6.112-1.82-3.17-3.086-7.998-3.825-14.502a1.5 1.5 0 01.982-1.58l10.695-3.851a1.5 1.5 0 011.038.008zM35.309 3.75c.796 0 1.441.672 1.441 1.5v13.5c0 .414-.323.75-.72.75-.399 0-.721-.336-.721-.75V5.25H1.44v40.5h28.103c.398 0 .72.336.72.75s-.322.75-.72.75H1.441C.645 47.25 0 46.578 0 45.75V5.25c0-.828.645-1.5 1.441-1.5H35.31zm.947 18.8L25.56 26.4c.718 6.318 1.938 10.965 3.636 13.924 1.612 2.81 3.76 4.605 6.455 5.42l.283.082.35-.163c3.118-1.483 5.38-3.37 6.805-5.658 1.414-2.27 2.51-6.527 3.252-12.735l.1-.879-10.185-3.842zm2.09 8.582a.75.75 0 111.308.736l-2.842 5.051a1.5 1.5 0 01-2.46.225l-1.178-1.414a.75.75 0 111.152-.96l1.179 1.414 2.841-5.052zM23.25 29.25a.75.75 0 010 1.5H8.625a.75.75 0 010-1.5H23.25zm0-6a.75.75 0 010 1.5H9a.75.75 0 010-1.5h14.25zM39 0c.828 0 1.5.607 1.5 1.355v18.968c0 .374-.336.677-.75.677s-.75-.303-.75-.677V1.5H3.75v.448c0 .374-.336.677-.75.677s-.75-.303-.75-.677v-.593C2.25.607 2.922 0 3.75 0H39zM26.25 16.5a.75.75 0 010 1.5H8.625a.75.75 0 010-1.5H26.25z"/></svg>