<svg xmlns="http://www.w3.org/2000/svg" width="384" height="216" viewBox="0 0 384 216">
    <g fill="none" fill-rule="evenodd">
        <g>
            <g>
                <g>
                    <path fill-rule="nonzero" d="M0 0H384V216H0z" transform="translate(-936 -2778) translate(120 2678) translate(816 100)"/>
                    <g stroke="#FF444F" stroke-linecap="round" stroke-linejoin="round" stroke-width="2">
                        <path d="M120.744 35.063c10.123 19.801 9.217 43.442-2.392 62.41-11.609 18.968-32.248 30.532-54.487 30.527-3.335-.002-6.666-.258-9.963-.766M0 64.135c-.005-21.947 11.26-42.36 29.83-54.055C48.401-1.616 71.677-2.957 91.468 6.528M63.865 1.419L63.865 13.323M63.865 114.946L63.865 126.85M1.15 64.135L13.054 64.135M114.677 64.135L126.581 64.135M19.517 19.787L27.935 28.204M99.796 100.065L108.213 108.483M63.865 24.921L63.865 64.135 82.182 48.092" transform="translate(-936 -2778) translate(120 2678) translate(816 100) translate(128 44)"/>
                        <path d="M106.17.27c-11.287 0-20.437 9.15-20.437 20.436 0 11.287 9.15 20.437 20.437 20.437s20.437-9.15 20.437-20.437c0-5.42-2.154-10.618-5.986-14.45C116.788 2.422 111.59.268 106.17.268z" transform="translate(-936 -2778) translate(120 2678) translate(816 100) translate(128 44)"/>
                        <path d="M116.235 17.462l-10.589 10.576c-.541.553-1.283.862-2.057.856-.772.001-1.513-.307-2.056-.856l-5.352-5.288c-1.037-1.151-.99-2.913.105-4.008 1.095-1.096 2.857-1.142 4.008-.105l3.232 3.232 8.532-8.533c.737-.746 1.816-1.042 2.83-.777 1.015.265 1.811 1.052 2.09 2.063.277 1.011-.006 2.094-.743 2.84zM0 70.713H45.817V128H0zM11.036 105.852L36.058 105.852M11.036 115.201L36.058 115.201" transform="translate(-936 -2778) translate(120 2678) translate(816 100) translate(128 44)"/>
                        <path d="M26.108 91.699c0 1.967 2.235 3.564 4.982 3.564 2.746 0 4.968-1.597 4.968-3.564s-2.222-3.564-4.968-3.564c-2.747 0-4.982-1.584-4.982-3.55 0-1.968 2.235-3.564 4.982-3.564 2.746 0 4.968 1.596 4.968 3.563M31.09 78.709L31.09 81.021M31.09 96.106L31.09 97.677" transform="translate(-936 -2778) translate(120 2678) translate(816 100) translate(128 44)"/>
                    </g>
                </g>
            </g>
        </g>
    </g>
</svg>
