<?xml version="1.0" encoding="UTF-8"?>
<svg width="65px" height="65px" viewBox="0 0 65 65" version="1.1" xmlns="http://www.w3.org/2000/svg" xmlns:xlink="http://www.w3.org/1999/xlink" aria-labelledby='contact-us-icon'>
    <title id='contact-us-icon'>Contact us</title>
    <defs>
        <linearGradient x1="0%" y1="99.4344745%" x2="100%" y2="0.565525516%" id="linearGradient-1">
            <stop stop-color="#FF444F" offset="0%"></stop>
            <stop stop-color="#FF6444" offset="100%"></stop>
        </linearGradient>
    </defs>
    <g id="Help-Centre" stroke="none" stroke-width="1" fill="none" fill-rule="evenodd">
        <g id="Help-centre---general" transform="translate(-120.000000, -1275.000000)" fill="url(#linearGradient-1)">
            <g id="Didn't-find-your-answer" transform="translate(0.000000, 1252.000000)">
                <g id="icons/contact-us" transform="translate(120.000000, 23.000000)">
                    <g id="Combined-Shape">
                        <path d="M63,25 C64.1045695,25 65,25.8954305 65,27 L65,56 C65,57.1045695 64.1045695,58 63,58 L53.4142136,58 L47.3686427,64.0455708 C46.6241104,64.7901032 45.4298288,64.8298684 44.6374199,64.1365107 L37.6242649,58 L28,58 C26.8954305,58 26,57.1045695 26,56 L26,27 C26,25.8954305 26.8954305,25 28,25 L63,25 Z M63,27 L28,27 L28,56 L37.6242649,56 C38.1087112,56 38.5766911,56.1758365 38.9412741,56.4948466 L45.9544292,62.6313573 L52,56.5857864 C52.3750728,56.2107137 52.8837806,56 53.4142136,56 L63,56 L63,27 Z M46,48 C46.5522847,48 47,48.4477153 47,49 C47,49.5522847 46.5522847,50 46,50 C45.4477153,50 45,49.5522847 45,49 C45,48.4477153 45.4477153,48 46,48 Z M46,33 C46.5522847,33 47,33.4477153 47,34 L47,34 L47,45.5076923 C47,46.0599771 46.5522847,46.5076923 46,46.5076923 C45.4477153,46.5076923 45,46.0599771 45,45.5076923 L45,45.5076923 L45,34 C45,33.4477153 45.4477153,33 46,33 Z M22,0 C34.1502645,0 44,9.8497355 44,22 C44,22.5522847 43.5522847,23 43,23 C42.4477153,23 42,22.5522847 42,22 C42,10.954305 33.045695,2 22,2 C10.954305,2 2,10.954305 2,22 C2,33.045695 10.954305,42 22,42 C22.5522847,42 23,42.4477153 23,43 C23,43.5522847 22.5522847,44 22,44 C9.8497355,44 0,34.1502645 0,22 C0,9.8497355 9.8497355,0 22,0 Z M23,32 C23.5522847,32 24,32.4477153 24,33 C24,33.5522847 23.5522847,34 23,34 C22.4477153,34 22,33.5522847 22,33 C22,32.4477153 22.4477153,32 23,32 Z M22,9 C26.418278,9 30,12.581722 30,17 C30,19.6886864 27.9456469,22.1666132 24.0008875,24.5051334 L24.0008875,24.5051334 L24,29.0001992 C23.99989,29.5524839 23.5520856,30 22.9998008,30 C22.4475161,30 21.99989,29.5520856 22,28.9998008 L22,28.9998008 L22.0008954,24.5047271 C22.001036,23.7985577 22.3735657,23.1448026 22.9810103,22.7847117 C26.3816568,20.768751 28,18.816732 28,17 C28,13.6862915 25.3137085,11 22,11 C18.6862915,11 16,13.6862915 16,17 C16,17.5522847 15.5522847,18 15,18 C14.4477153,18 14,17.5522847 14,17 C14,12.581722 17.581722,9 22,9 Z"></path>
                    </g>
                </g>
            </g>
        </g>
    </g>
</svg>
