<svg xmlns="http://www.w3.org/2000/svg" width="64" height="64" viewBox="0 0 64 64" aria-labelledby="contract-duration-icon-title">
    <title id='contract-duration-icon-title'>Contract duration icon</title>
    <g fill="none" fill-rule="evenodd">
        <path d="M0 0h64v64H0z"/>
        <path fill="#85ACB0" fill-rule="nonzero" d="M39 2.065H4.937c-1.599 0-2.898 1.325-2.898 2.963v53.944c0 1.638 1.3 2.963 2.898 2.963h42.126c1.599 0 2.898-1.325 2.898-2.963V47.04c0-.57.457-1.033 1.02-1.033S52 46.471 52 47.041v11.93C52 61.748 49.791 64 47.063 64H4.937C2.21 64 0 61.747 0 58.972V5.028C0 2.253 2.209 0 4.937 0h35.217c.255 0 .5.097.689.271l10.774 10.045c.21.195.33.472.33.761v10.99c0 .57-.456 1.031-1.019 1.031s-1.02-.462-1.02-1.032V12h-9.882C39.459 12 39 11.527 39 10.944v-8.88zm9.212 7.884l-7.196-6.71v6.71h7.196z"/>
        <path fill="#000" fill-rule="nonzero" d="M12 26.594c-3.056-1.709-5-4.776-5-8.068C7 12.477 11.477 8 17.526 8 22.523 8 27 12.477 27 18.526c0 3.411-2.086 6.58-5 8.248V34c0 .818-.964 1.3-2 1l-3-3-3 3c-1.036.3-2-.182-2-1v-7.406zm2 .866V32l2-2h2l2 2v-4.366a8.657 8.657 0 0 1-2.474.366A11.58 11.58 0 0 1 14 27.46zM17.533 26C21.418 26 25 22.418 25 18.533 25 13.582 21.418 10 17.533 10 12.582 10 9 13.582 9 18.533 9 22.418 12.582 26 17.533 26z"/>
        <path fill="#85ACB0" fill-rule="nonzero" d="M35 40H9c-.555 0-1 .448-1 1s.445 1 1 1h26c.555 0 1-.448 1-1s-.445-1-1-1zM35 47H9c-.555 0-1 .448-1 1s.445 1 1 1h26c.555 0 1-.448 1-1s-.445-1-1-1zM35 54H9c-.555 0-1 .448-1 1s.445 1 1 1h26c.555 0 1-.448 1-1s-.445-1-1-1z"/>
        <path fill="#FF444F" fill-rule="nonzero" d="M48 36c-.542-.05-1 .41-1 1 0 .541.458 1 1 1h5c.542 0 1-.459 1-1v-8c0-.541-.458-1-1-1-.587 0-1.044.459-1 1v7h-4z"/>
        <path fill="#FF444F" fill-rule="nonzero" d="M52 47c6.404 0 12-5.596 12-12 0-7.404-5.596-13-12-13-7.404 0-13 5.596-13 13 0 6.404 5.596 12 13 12zm0-2c-6.299 0-11-4.701-11-10 0-6.299 4.701-11 11-11 5.299 0 10 4.701 10 11 0 5.299-4.701 10-10 10z"/>
        <path fill="#000" fill-rule="nonzero" d="M17 24a6 6 0 1 0 0-12 6 6 0 0 0 0 12zm0-2a4 4 0 1 1 0-8 4 4 0 0 1 0 8z"/>
    </g>
</svg>
