<svg xmlns="http://www.w3.org/2000/svg" width="48" height="48"><defs><linearGradient id="a" x1="0%" y1="99.434%" y2=".566%"><stop offset="0%" stop-color="#FF444F"/><stop offset="100%" stop-color="#FF6444"/></linearGradient></defs><path fill="url(#a)" fill-rule="evenodd" d="M46.523 18.462c.816 0 1.477.66 1.477 1.476v21.416c0 .816-.661 1.477-1.477 1.477h-7.079l-4.464 4.464c-.55.55-1.432.58-2.017.067l-5.179-4.531h-7.107a1.477 1.477 0 01-1.477-1.477V19.938c0-.815.661-1.476 1.477-1.476h25.846zm0 1.476H20.677v21.416h7.107c.358 0 .703.13.973.365l5.179 4.532 4.464-4.465a1.477 1.477 0 011.044-.432h7.08V19.938zM33.97 35.446a.738.738 0 110 1.477.738.738 0 010-1.477zm0-11.077c.408 0 .739.33.739.739v8.498a.738.738 0 01-1.477 0v-8.498c0-.408.33-.739.738-.739zM16.246 0c8.973 0 16.246 7.274 16.246 16.246a.738.738 0 11-1.477 0c0-8.157-6.612-14.77-14.769-14.77S1.476 8.09 1.476 16.247s6.613 14.77 14.77 14.77a.738.738 0 110 1.476C7.274 32.492 0 25.22 0 16.246 0 7.274 7.274 0 16.246 0zm.739 23.63a.738.738 0 110 1.478.738.738 0 010-1.477zm-.739-16.984a5.908 5.908 0 015.908 5.908c0 1.985-1.517 3.815-4.43 5.542v3.32a.739.739 0 01-1.478 0v-3.32c0-.522.276-1.004.725-1.27 2.51-1.49 3.706-2.93 3.706-4.272a4.43 4.43 0 00-8.862 0 .738.738 0 01-1.477 0 5.908 5.908 0 015.908-5.908z"/></svg>