<svg xmlns="http://www.w3.org/2000/svg" xmlns:xlink="http://www.w3.org/1999/xlink" width="328" height="200"><style><![CDATA[.B{fill-rule:nonzero}.C{fill:#84aaaf}]]></style><g fill="none" fill-rule="evenodd"><g class="B C"><path d="M202.54 121.214l.173-.297 73.46 42.72-.173.297z"/><path d="M202.134 119.807l.18-.294 72.393 44.085-.18.294z"/><path d="M201.74 118.426l.185-.3 71.325 45.457-.185.3z"/><path d="M201.306 116.995l.19-.286 70.27 46.81-.19.286z"/><path d="M200.922 115.616l.197-.282 69.202 48.186-.197.282z"/><path d="M200.5 114.204l.202-.278 68.138 49.54-.202.278z"/><path d="M200.1 112.808l.208-.274 67.074 50.912-.208.274z"/><path d="M199.7 111.408l.214-.27 66.005 52.277-.214.27z"/><path d="M199.297 110.018l.22-.265 64.942 53.648-.22.265z"/><path d="M198.875 108.597l.224-.26 63.88 55.004-.224.26z"/><path d="M198.482 107.22l.23-.256 62.815 56.38-.23.256z"/><path d="M198.08 105.815l.235-.25 61.75 57.744-.235.25z"/><path d="M197.662 104.395l.24-.246 60.692 59.103-.24.246z"/><path d="M197.25 102.99l.245-.24 59.63 60.467-.245.24z"/><path d="M196.855 101.605l.25-.236 58.56 61.84-.25.236z"/><path d="M196.445 100.215l.254-.23 57.5 63.203-.254.23z"/><path d="M196.042 98.808l.26-.226 56.43 64.573-.26.226z"/><path d="M195.645 97.41l.263-.22 55.367 65.937-.263.22z"/><path d="M195.233 96.003l.268-.216 54.306 67.302-.268.216z"/><path d="M194.6 95.138l.272-.2 53 68.64-.272.2z"/><path d="M194.422 93.186l.276-.205 52.18 70.028-.276.205z"/><path d="M193.263 92.03l.28-.2 50.93 71.126-.28.2z"/><path d="M193.615 90.403l.283-.195 50.05 72.767-.283.195z"/><path d="M193.2 88.984l.287-.2 48.988 74.126-.287.2z"/><path d="M192.8 87.573l.3-.184 47.927 75.492-.3.184z"/><path d="M192.394 86.18l.294-.18 46.86 76.86-.294.18z"/><path d="M191.974 84.768l.297-.174 45.8 78.22-.297.174z"/><path d="M191.574 83.37l.3-.17 44.733 79.584-.3.17z"/><path d="M198.165 102.553l.17-.298L304.33 163.08l-.17.298z"/><path d="M197.794 100.922l.177-.295 104.277 62.433-.177.295z"/><path d="M197.417 99.288l.182-.292 102.556 64.034-.182.292z"/><path d="M197.014 97.618l.188-.288 100.856 65.622-.188.288z"/><path d="M196.462 95.392l.193-.285 99.42 67.078-.193.285z"/><path d="M196.257 94.343l.198-.28L293.88 162.9l-.198.28z"/><path d="M195.853 92.683l.204-.277 95.72 70.417-.204.277z"/><path d="M195.483 91.057l.21-.273 93.996 72.022-.21.273z"/><path d="M195.093 89.41l.214-.27 92.288 73.62-.214.27z"/><path d="M194.693 87.734l.22-.265 90.587 75.207-.22.265z"/><path d="M194.323 86.12l.225-.26 88.86 76.81-.225.26z"/><path d="M193.944 84.478l.23-.256 87.147 78.412-.23.256z"/><path d="M193.555 82.823l.235-.25 85.437 80.007-.235.25z"/><path d="M193.15 81.163l.24-.246 83.73 81.596-.24.246z"/><path d="M192.773 79.518l.245-.24 82.02 83.202-.245.24z"/><path d="M192.39 77.88l.25-.236 80.302 84.8-.25.236z"/><path d="M192.002 76.236l.254-.23 78.6 86.4-.254.23z"/><path d="M191.622 74.593l.26-.226 76.876 88-.26.226z"/><path d="M191.225 72.926l.263-.22 75.174 89.59-.263.22z"/><path d="M190.85 71.298l.268-.216 73.452 91.193-.268.216z"/><path d="M190.463 69.65l.272-.2 71.74 92.786-.272.2z"/><path d="M190.064 67.984l.276-.205 70.04 94.38-.276.205z"/><path d="M189.69 66.362l.28-.2 68.312 95.982-.28.2z"/><path d="M189.3 64.695l.284-.194 66.612 97.576-.284.194z"/><path d="M188.913 63.05l.288-.188 64.9 99.177-.288.188z"/><path d="M188.527 61.4l.29-.183 63.188 100.77-.29.183z"/><path d="M193.3 74.423s37.765 4.47 67.873 89.738l-5.294-.57c-1.26-7.366-3.318-14.572-6.136-21.493-4.317-9.955-14.2-27.937-18.842-33.72s-17.502-28.01-37.412-32.47l-.2-1.484z"/><path d="M193.48 75.907s7.982 3.62 17.068 23.158 17.258 63.8 17.258 63.8h-4.28s-1.285-19.9-5.674-35.005-6.136-22.624-9.837-30.2-6.317-13.8-13.928-20.317l-.606-1.44z"/><path d="M220.765 162.468L187.552 55.13l.742 14.416 14.833 93.475 8.724-.552-6.3-31.43 10.2 31.43z"/><path d="M187.386 161.9l12.1-36.553.326.108-12.1 36.553zm-3.97.1l15.85-37.778.317.133-15.85 37.778zm-3.973.07l19.57-39.014.307.154-19.57 39.014zm-4.828.6l23.253-39.996.296.172-23.253 39.996zm-3.132-.44l27.087-41.456.288.188-27.087 41.456zm-3.95.1l30.814-42.693.28.2-30.814 42.693zm-3.984.092l34.543-43.928.27.213-34.543 43.928zm-3.982.082l38.316-45.133.262.223-38.316 45.133zm-3.98.076l42.072-46.35.255.23-42.072 46.35zm-3.967.094l45.794-47.603.248.238-45.794 47.603zm-3.965.116l49.526-48.84.24.245-49.526 48.84zm-4.39.703l53.366-49.7.234.25-53.366 49.7zm-3.583-.546l57.06-51.25.23.256-57.06 51.25zm-3.976.093l60.8-52.48.225.26-60.8 52.48zm-3.97.078l64.536-53.712.22.264-64.536 53.712zm-3.978.1l68.28-54.938.216.268-68.28 54.938zm-3.962.11l71.996-56.2.212.27-71.996 56.2zm-4 .078l75.777-57.393.208.274-75.777 57.393zm-3.968.117l79.493-58.65.204.277-79.493 58.65zm-3.968.088l83.232-59.896.2.28-83.232 59.896zm-4.005.06l87-61.062.198.28-87 61.062zm-3.947.123l90.72-62.35.195.283-90.72 62.35zm-4.014.06l94.52-63.5.192.285-94.52 63.5zm-3.957.126l98.22-64.8.2.287-98.22 64.8zm-4.003.062L193.952 98.1l.187.3-102.01 65.93zm-3.96.1L193.73 96.946l.184.3L88.17 164.422zm-3.96.108l109.45-68.472.182.292-109.45 68.472zm-1.255-1.6L193.235 94.6l.18.293-110.465 68.04zm-3.8-.002l114.045-69.123.178.294-114.045 69.123zm-4.182.22l118-70.482.176.295-118 70.482zm-2.878-.504l120.642-71.12.175.296-120.642 71.12zm-4.67.527l125.073-72.795.173.297L67.413 163.2zm-4 .094l128.842-73.997.17.298L63.42 163.282zm-3.778-.012l132.4-75.117.17.3-132.4 75.117zm-4.502.418l136.656-76.656.168.3L55.14 163.7zm-3.437-.17L191.38 85.575l.167.3L51.7 163.52zm-3.773-.028l143.407-78.74.166.3-143.407 78.74zm-3.544-.142L190.93 83.324l.164.302L44.38 163.352zm-3.98.135l150.46-80.98.163.303-150.46 80.98zm-2.72-.547L190.46 81.042l.162.303L37.678 162.94zm-4.833.566l157.538-83.306.16.304-157.538 83.306zm-1.94-.95L190 78.754l.16.305-159.246 83.5zm168.998-85.03l.17-.017.58 5.7-.17.017zm.878 6.158l-.452-6.163h.172l.452 6.163h-.172zm.28.48l-.27-6.452h.172l.27 6.443-.172.01zm.326.47l-.045-6.47h.172l.045 6.462-.172.01zm.308.47l.226-6.68h.172l-.235 6.67-.163.01z"/><path d="M202.005 85.274h-.2a64.84 64.84 0 0 1 .588-6.941h.172c-.312 2.302-.5 4.62-.56 6.94z"/><path d="M202.303 85.753h-.172c.157-2.39.5-4.767 1.032-7.104h.163a45.89 45.89 0 0 0-1.023 7.104z"/><path d="M202.61 86.233h-.172c.232-2.404.742-4.773 1.52-7.06l.154.063c-.765 2.267-1.27 4.614-1.502 6.995z"/><path d="M202.9 86.704h-.172s.615-4.525 2.136-6.986l.145.1c-1.493 2.425-2.1 6.85-2.11 6.896z"/><path d="M203.217 87.183h-.172c0-.2.905-4.86 2.914-6.842l.118.118c-1.99 1.92-2.85 6.68-2.86 6.724z"/><path d="M203.516 87.663h-.163a17.14 17.14 0 0 1 .905-2.715c.814-1.92 1.8-3.186 2.86-3.774l.08.154c-2.534 1.34-3.674 6.28-3.683 6.335z"/><path d="M203.814 88.143l-.163-.045a14.39 14.39 0 0 1 1.131-2.715c1.005-1.8 2.235-2.95 3.557-3.23v.172c-3.05.68-4.507 5.765-4.525 5.82z"/><path d="M204.122 88.658l-.163-.063s1.538-4.425 4.688-5.113c1.873-.416 3.928.525 6.1 2.805l-.118.118c-2.136-2.235-4.136-3.158-5.946-2.715-3.05.597-4.552 4.887-4.56 4.968z"/><path d="M204.42 89.093l-.163-.063c.315-.7.7-1.362 1.176-1.973a6.19 6.19 0 0 1 3.62-2.425c2.163-.407 4.525.715 7.06 3.357l-.118.118c-2.49-2.597-4.805-3.7-6.914-3.312-3.104.58-4.652 4.262-4.66 4.3z"/><path d="M217.308 89.844c-2.833-2.995-5.548-4.3-7.92-3.9-3.077.48-4.652 3.62-4.67 3.62l-.154-.072s1.63-3.25 4.796-3.747c2.462-.38 5.176.96 8.063 3.973l-.118.127z"/><path d="M218.647 91.58c-3.23-3.357-6.235-4.905-8.96-4.58-1.92.302-3.62 1.412-4.67 3.05l-.145-.08c1.078-1.676 2.82-2.812 4.787-3.122 2.778-.326 5.846 1.23 9.104 4.633l-.118.1z"/><path d="M219.977 93.328c-3.62-3.765-6.968-5.557-10.01-5.312-1.832.16-3.516 1.07-4.652 2.516l-.136-.1a6.76 6.76 0 0 1 4.769-2.597c3.095-.244 6.507 1.557 10.154 5.367l-.127.118z"/><path d="M221.317 95.066c-3.99-4.163-7.7-6.208-11.077-6.1-1.75.04-3.413.772-4.624 2.036l-.127-.11a6.76 6.76 0 0 1 4.742-2.09c3.412-.136 7.186 1.928 11.213 6.136l-.127.118z"/><path d="M222.62 96.803c-4.37-4.525-8.452-6.887-12.127-6.905h-.054a6.69 6.69 0 0 0-4.525 1.593l-.118-.118c1.298-1.116 2.968-1.704 4.68-1.647 3.73 0 7.855 2.362 12.262 6.96l-.118.118z"/><path d="M223.995 98.55c-3.276-3.42-8.226-7.548-13.213-7.783a6.93 6.93 0 0 0-4.525 1.204l-.11-.127a6.96 6.96 0 0 1 4.688-1.249c4.995.235 9.973 4.398 13.285 7.837l-.127.118z"/><path d="M225.335 100.287c-3.448-3.62-8.66-8.018-13.946-8.643a7.42 7.42 0 0 0-4.878.805l-.1-.136c.072-.054 1.765-1.222 4.977-.842 2.95.344 7.783 2.136 14.072 8.697l-.127.118z"/><path d="M226.674 102.025c-3.62-3.774-9.104-8.498-14.697-9.51-3.34-.615-5.158.407-5.176.416l-.08-.145c.072 0 1.873-1.06 5.267-.443 3.113.56 8.217 2.715 14.814 9.566l-.127.118z"/><path d="M228.05 103.77c-3.792-3.964-9.548-8.977-15.448-10.39-3.52-.842-5.43 0-5.43 0l-.072-.163c.08 0 1.982-.905 5.557 0 5.946 1.412 11.765 6.462 15.557 10.443l-.163.11z"/><path d="M229.353 105.51c-3.964-4.145-9.955-9.457-16.2-11.258-3.7-1.077-5.738-.38-5.756-.37l-.063-.163c.1 0 2.1-.724 5.846.362 3.448.995 9.05 3.774 16.3 11.312l-.118.118z"/><path d="M230.692 107.247c-4.145-4.326-10.452-9.955-16.968-12.136-3.882-1.303-6.01-.76-6.027-.75v-.163c.08 0 2.2-.57 6.127.75 3.62 1.222 9.502 4.317 17.032 12.18l-.163.118z"/><path d="M232.032 108.993c-4.317-4.525-10.86-10.425-17.72-13.014-4.063-1.538-6.335-1.15-6.335-1.15v-.163c.1 0 2.308-.398 6.416 1.158 6.85 2.588 13.448 8.525 17.774 13.05l-.136.118z"/><path d="M233.37 110.73c-4.525-4.688-11.33-10.86-18.443-13.873-4.253-1.8-6.615-1.548-6.643-1.548v-.172s2.416-.235 6.706 1.557c7.15 2.986 14.018 9.213 18.516 13.92l-.136.118z"/><path d="M234.7 112.468c-4.66-4.87-11.765-11.385-19.204-14.75-4.434-2-6.896-1.937-6.914-1.937v-.172s2.525-.072 6.995 1.955c7.448 3.376 14.588 9.955 19.258 14.787l-.136.118zM19 161.5h296.833v3.023H19z"/></g><path d="M261.534 194.93c-1.24-.116-2.4-.702-3.213-1.638-.615-.552-1.195-1.068-1.73-1.068-.362 0-.57.235-1.04.905a3.62 3.62 0 0 1-3.005 1.81 4.21 4.21 0 0 1-3.186-1.81c-.543-.606-.905-.905-1.303-.905-.905 0-2.054.824-3.348 2.38l-1.394-1.15c1.692-2.045 3.25-3.04 4.742-3.04a3.62 3.62 0 0 1 2.643 1.538c.66.724 1.104 1.167 1.8 1.167s1.014-.38 1.548-1.095a3.11 3.11 0 0 1 2.498-1.61c1.135.122 2.183.668 2.932 1.53a3.52 3.52 0 0 0 2.009 1.176c.353 0 1.403 0 2.317-2.154l1.665.706c-.85 2.163-2.2 3.258-3.946 3.258zm-178.53 2.24c-1.046-.1-2.017-.6-2.715-1.376-.47-.425-.905-.824-1.285-.824-.2 0-.335.145-.706.643-.526.928-1.495 1.517-2.56 1.557a3.62 3.62 0 0 1-2.715-1.484c-.434-.5-.67-.715-.905-.715-.67 0-1.584.66-2.58 1.873l-1.385-1.158c1.412-1.7 2.715-2.525 3.973-2.525a3.07 3.07 0 0 1 2.27 1.303c.516.57.833.905 1.367.905s.67-.226 1.113-.824a2.64 2.64 0 0 1 2.136-1.385c.964.1 1.856.56 2.498 1.285.525.47 1.014.905 1.502.905.253 0 1.023 0 1.72-1.647l1.665.706c-.968 2.326-2.37 2.76-3.394 2.76zm-12.123-7.204c-1.8 0-3.167-1.204-4.362-2.262-.905-.842-1.8-1.638-2.715-1.638-.733 0-1.15.516-1.8 1.42-.778 1.05-1.8 2.48-4 2.48s-3.32-1.34-4.3-2.407c-.833-.905-1.385-1.493-2.172-1.493-1.43 0-3.158 1.204-5.122 3.575l-1.394-1.158c2.362-2.842 4.525-4.226 6.516-4.226 1.63 0 2.633 1.104 3.52 2.08s1.647 1.8 2.95 1.8 1.747-.66 2.543-1.747 1.557-2.145 3.23-2.145 2.805 1.068 3.955 2.1 2.027 1.8 3.158 1.8c1.538 0 2.715-1.095 3.692-3.348l1.674.706c-1.25 2.94-3.05 4.443-5.367 4.443z" fill="#85acb0" class="B"/><g class="C B"><use xlink:href="#B"/><path d="M173.15 179.33l.07-6.226 3.62.04-.07 6.226z"/><use xlink:href="#B" x="31.664"/><path d="M204.826 179.333l.07-6.226 3.62.04-.07 6.226z"/><use xlink:href="#B" x="124.887"/><path d="M298.03 179.33l.07-6.226 3.62.04-.07 6.226z"/><use xlink:href="#C"/></g><path d="M34.765 173.138l-.072 6.217" stroke="#84aaaf" stroke-width="4" stroke-linejoin="round"/><g class="B C"><use xlink:href="#C" x="31.675"/><path d="M64.562 179.334l.07-6.226 3.62.04-.07 6.226z"/><path d="M19 177.998h296.833v1.8H19z"/></g></g><defs ><path id="B" d="M175.036 174.948a1.81 1.81 0 0 1-1.385-.643l-8.226-9.774 2.77-2.335 6.842 8.145 6.842-8.145 2.77 2.335-8.18 9.774a1.81 1.81 0 0 1-1.43.643z"/><path id="C" d="M34.765 174.948a1.81 1.81 0 0 1-1.385-.643l-8.226-9.774 2.77-2.335 6.842 8.145 6.842-8.145 2.733 2.335-8.145 9.774a1.81 1.81 0 0 1-1.43.643z"/></defs></svg>