<svg xmlns="http://www.w3.org/2000/svg" width="48" height="49" viewBox="0 0 48 49" aria-labelledby="dtrader-icon-title">
    <title id="dtrader-icon-title">Dtrader</title>
    <g fill="none" fill-rule="evenodd">
        <path fill="#FF444F" d="M8.973.5H38.88a8.972 8.972 0 0 1 8.973 8.973V39.38a8.972 8.972 0 0 1-8.973 8.973H8.973A8.972 8.972 0 0 1 0 39.38V9.473A8.972 8.972 0 0 1 8.973.5"/>
        <path fill="#FFF" d="M11.74 9.473l-1.601 4.994 7.986 9.825-8.001 9.736 1.286 5.353 12.397-15.074z"/>
        <path fill="#FFF" d="M23.09 9.473h-8.913l3.726 4.576h5.171c5.7.114 10.26 4.767 10.26 10.468 0 5.7-4.56 10.354-10.26 10.468h-5.6L13.86 39.38h9.215c8.174-.09 14.73-6.78 14.656-14.954.074-8.168-6.473-14.856-14.64-14.954"/>
    </g>
</svg>
