<svg xmlns="http://www.w3.org/2000/svg" xmlns:xlink="http://www.w3.org/1999/xlink" width="607" height="371" viewBox="0 0 607 371" aria-labelledby='dbot-platform'>
    <title id='dbot-platform'>DBot</title>
    <defs>
        <rect id="b" width="589" height="353" rx="18.522"/>
        <filter id="a" width="104.9%" height="108.2%" x="-2.5%" y="-3.5%" filterUnits="objectBoundingBox">
            <feOffset dy="2" in="SourceAlpha" result="shadowOffsetOuter1"/>
            <feGaussianBlur in="shadowOffsetOuter1" result="shadowBlurOuter1" stdDeviation="4.5"/>
            <feColorMatrix in="shadowBlurOuter1" values="0 0 0 0 0.426347373 0 0 0 0 0.426347373 0 0 0 0 0.426347373 0 0 0 0.5 0"/>
        </filter>
        <path id="c" d="M0 19.825h539.92v23.622H0z"/>
        <filter id="d" width="100%" height="100%" x="0%" y="0%" filterUnits="objectBoundingBox">
            <feOffset in="SourceAlpha" result="shadowOffsetInner1"/>
            <feComposite in="shadowOffsetInner1" in2="SourceAlpha" k2="-1" k3="1" operator="arithmetic" result="shadowInnerInner1"/>
            <feColorMatrix in="shadowInnerInner1" result="shadowMatrixInner1" values="0 0 0 0 0.949019608 0 0 0 0 0.952941176 0 0 0 0 0.956862745 0 0 0 1 0"/>
            <feOffset in="SourceAlpha" result="shadowOffsetInner2"/>
            <feComposite in="shadowOffsetInner2" in2="SourceAlpha" k2="-1" k3="1" operator="arithmetic" result="shadowInnerInner2"/>
            <feColorMatrix in="shadowInnerInner2" result="shadowMatrixInner2" values="0 0 0 0 0.949019608 0 0 0 0 0.952941176 0 0 0 0 0.956862745 0 0 0 1 0"/>
            <feMerge>
                <feMergeNode in="shadowMatrixInner1"/>
                <feMergeNode in="shadowMatrixInner2"/>
            </feMerge>
        </filter>
        <path id="e" d="M0 .422h1.687v19.403H0z"/>
        <path id="f" d="M0 .422h1.687v19.403H0z"/>
        <path id="g" d="M0 .422h1.687v19.403H0z"/>
        <path id="h" d="M0 .422h1.687v19.403H0z"/>
        <path id="i" d="M0 .422h1.687v19.403H0z"/>
        <path id="j" d="M0 .422h1.687v19.403H0z"/>
        <path id="k" d="M0 .422h1.687v19.403H0z"/>
        <path id="m" d="M0 0h51.461v16.873H0z"/>
        <filter id="l" width="101.9%" height="105.9%" x="-1%" y="-3%" filterUnits="objectBoundingBox">
            <feOffset dy="-1" in="SourceAlpha" result="shadowOffsetInner1"/>
            <feComposite in="shadowOffsetInner1" in2="SourceAlpha" k2="-1" k3="1" operator="arithmetic" result="shadowInnerInner1"/>
            <feColorMatrix in="shadowInnerInner1" values="0 0 0 0 1 0 0 0 0 0.266666667 0 0 0 0 0.309803922 0 0 0 1 0"/>
        </filter>
        <rect id="n" width="140.885" height="72.974" rx="1.687"/>
        <linearGradient id="o" x1="50%" x2="50%" y1="100%" y2="25.188%">
            <stop offset="0%" stop-color="#FFF" stop-opacity="0"/>
            <stop offset="100%" stop-color="#4BB4B3" stop-opacity=".16"/>
        </linearGradient>
    </defs>
    <g fill="none" fill-rule="evenodd">
        <g transform="translate(9 7)">
            <use fill="#000" filter="url(#a)" xlink:href="#b"/>
            <use fill="#FFF" xlink:href="#b"/>
        </g>
        <g transform="translate(33 31)">
            <path fill="#F2F3F4" fill-rule="nonzero" d="M84.363 56.945h140.041a3.375 3.375 0 0 1 3.375 3.374v201.627a3.375 3.375 0 0 1-3.375 3.374H87.737a3.375 3.375 0 0 1-3.374-3.374V56.945zM104.61 50.196c6.749 0 13.498 2.25 20.247 6.749H84.363c6.749-4.5 13.498-6.75 20.247-6.75z"/>
            <path fill="#FFF" fill-rule="nonzero" d="M94.175 77.192c.201 0 .396.072.549.203l2.478 2.124a.844.844 0 0 0 .549.204h3.594a.844.844 0 0 0 .549-.203l2.479-2.125a.844.844 0 0 1 .549-.203h122.857v101.235H104.922a.844.844 0 0 0-.55.203l-2.478 2.125a.844.844 0 0 1-.549.203h-3.594a.844.844 0 0 1-.55-.203l-2.477-2.125a.844.844 0 0 0-.55-.203h-1.797a1.687 1.687 0 0 1-1.687-1.687V78.879c0-.932.755-1.687 1.687-1.687h1.266zM94.175 194.456c.201 0 .396.072.549.203l2.478 2.124a.844.844 0 0 0 .549.204h3.594a.844.844 0 0 0 .549-.203l2.479-2.125a.844.844 0 0 1 .549-.203h122.857v13.498H104.922a.844.844 0 0 0-.55.203l-2.478 2.125a.844.844 0 0 1-.549.203h-3.594a.844.844 0 0 1-.55-.204l-2.477-2.124a.844.844 0 0 0-.55-.203h-1.797a1.687 1.687 0 0 1-1.687-1.688v-10.123c0-.932.755-1.687 1.687-1.687h1.266zM94.175 223.983c.201 0 .396.072.549.203l2.478 2.124a.844.844 0 0 0 .549.203h3.594a.844.844 0 0 0 .549-.203l2.479-2.124a.844.844 0 0 1 .549-.203h122.857v32.057H104.922a.844.844 0 0 0-.55.204l-2.478 2.124a.844.844 0 0 1-.549.203h-3.594a.844.844 0 0 1-.55-.203l-2.477-2.124a.844.844 0 0 0-.55-.204h-1.797a1.687 1.687 0 0 1-1.687-1.687V225.67c0-.932.755-1.687 1.687-1.687h1.266z"/>
            <text fill="#333" font-family="IBMPlexSans-Bold, IBM Plex Sans" font-size="5.905" font-weight="bold" transform="translate(91.112 184.332)">
                <tspan x="0" y="6">Run once at start</tspan>
            </text>
            <text fill="#333" font-family="IBMPlexSans-Bold, IBM Plex Sans" font-size="5.905" font-weight="bold" transform="translate(91.112 213.86)">
                <tspan x="0" y="6">Define trade options</tspan>
            </text>
            <text fill="#333" font-family="IBMPlexSans-Bold, IBM Plex Sans" font-size="6.749" font-weight="bold" transform="translate(91.112 63.272)">
                <tspan x="11.811" y="7">1. Define trade contract</tspan>
            </text>
            <g transform="translate(91.112 63.694)">
                <rect width="5.358" height="7.889" x="2.383" y="1.117" stroke="#2A3052" stroke-width=".548" rx=".422"/>
                <path fill="#2A3052" d="M3.375 2.953h1v1h-1zM4.64 2.953h2.109v1H4.64zM3.375 4.218h1v1h-1zM4.64 4.218h2.109v1H4.64zM3.375 5.484h1v1h-1zM4.64 5.484h2.109v1H4.64zM3.375 6.749h1v1h-1zM4.64 6.749h2.109v1H4.64z"/>
            </g>
            <path fill="#303F9F" stroke="#1A237E" stroke-width=".548" d="M94.175 223.983c.201 0 .396.072.549.203l2.478 2.124a.844.844 0 0 0 .549.203h3.594a.844.844 0 0 0 .549-.203l2.479-2.124a.844.844 0 0 1 .549-.203h51.571c.931 0 1.687.755 1.687 1.687v1.376a.844.844 0 0 1-.132.453l-.071.096-2.125 2.478a.844.844 0 0 0-.195.43l-.008.12v3.593c0 .161.046.318.132.453l.071.096 2.125 2.479a.844.844 0 0 1 .194.43l.009.119v1.375c0 .932-.756 1.687-1.687 1.687h-51.571a.844.844 0 0 0-.55.203l-2.478 2.125a.844.844 0 0 1-.549.203h-3.594a.844.844 0 0 1-.55-.203l-2.477-2.125a.844.844 0 0 0-.55-.203h-1.797a1.687 1.687 0 0 1-1.687-1.687V225.67c0-.932.755-1.687 1.687-1.687h1.266z"/>
            <text fill="#FFF" font-family="IBMPlexSans-Bold, IBM Plex Sans" font-size="5.062" font-weight="bold" transform="translate(94.064 227.357)">
                <tspan x="0" y="6.265">Duration</tspan>
            </text>
            <g transform="translate(118.53 227.357)">
                <rect width="33.745" height="10.124" fill="#1A237E" rx="4.851"/>
                <path fill="#FFF" d="M29.174 3.851a.21.21 0 0 1 .284.312l-2.32 2.11a.21.21 0 0 1-.284 0l-2.32-2.11a.21.21 0 1 1 .284-.312l2.178 1.98 2.178-1.98z"/>
                <text fill="#FFF" font-family="IBMPlexSans-Bold, IBM Plex Sans" font-size="5.062" font-weight="bold">
                    <tspan x="3.375" y="6.265">Minutes</tspan>
                </text>
            </g>
            <path fill="#303F9F" stroke="#1A237E" stroke-width=".548" d="M94.175 240.855c.201 0 .396.072.549.203l2.478 2.125a.844.844 0 0 0 .549.203h3.594a.844.844 0 0 0 .549-.203l2.479-2.125a.844.844 0 0 1 .549-.203h51.571c.931 0 1.687.756 1.687 1.687v1.376a.844.844 0 0 1-.132.453l-.071.097-2.125 2.477a.844.844 0 0 0-.195.43l-.008.12v3.594c0 .16.046.318.132.452l.071.097 2.125 2.478a.844.844 0 0 1 .194.43l.009.12v1.374c0 .932-.756 1.688-1.687 1.688h-51.571a.844.844 0 0 0-.55.203l-2.478 2.124a.844.844 0 0 1-.549.204h-3.594a.844.844 0 0 1-.55-.204l-2.477-2.124a.844.844 0 0 0-.55-.203h-1.797a1.687 1.687 0 0 1-1.687-1.688v-13.498c0-.931.755-1.687 1.687-1.687h1.266z"/>
            <text fill="#FFF" font-family="IBMPlexSans-Bold, IBM Plex Sans" font-size="5.062" font-weight="bold" transform="translate(94.064 245.495)">
                <tspan x="0" y="5">Stake</tspan>
            </text>
            <path fill="#689F38" stroke="#33691E" stroke-width=".548" d="M159.445 239.168a.843.843 0 0 1-.843-.844v-.531a.844.844 0 0 0-.204-.55l-2.124-2.478a.844.844 0 0 1-.203-.549v-3.594c0-.201.072-.396.203-.549l2.124-2.478a.844.844 0 0 0 .204-.55v-.531c0-.466.377-.844.844-.844h18.981c.932 0 1.687.755 1.687 1.687v10.124c0 .931-.755 1.687-1.687 1.687H159.445z"/>
            <g transform="translate(163.242 227.357)">
                <rect width="13.498" height="10.124" fill="#33691E" rx="4.851"/>
                <text fill="#FFF" font-family="IBMPlexSans-Bold, IBM Plex Sans" font-size="5.062" font-weight="bold">
                    <tspan x="5.062" y="6.265">5</tspan>
                </text>
            </g>
            <path fill="#689F38" stroke="#33691E" stroke-width=".548" d="M159.445 256.04a.843.843 0 0 1-.843-.843v-.532a.844.844 0 0 0-.204-.549l-2.124-2.478a.844.844 0 0 1-.203-.55v-3.593c0-.202.072-.397.203-.55l2.124-2.477a.844.844 0 0 0 .204-.55v-.532c0-.466.377-.844.844-.844h24.886c.932 0 1.687.756 1.687 1.688v10.123c0 .932-.755 1.687-1.687 1.687h-24.887z"/>
            <g transform="translate(163.242 244.23)">
                <rect width="19.403" height="10.124" fill="#33691E" rx="4.851"/>
                <text fill="#FFF" font-family="IBMPlexSans-Bold, IBM Plex Sans" font-size="5.062" font-weight="bold">
                    <tspan x="5.062" y="6.265">100</tspan>
                </text>
            </g>
            <path fill="#00897B" stroke="#004D40" stroke-width=".548" d="M94.175 77.192c.201 0 .396.072.549.203l2.478 2.124a.844.844 0 0 0 .549.204h3.594a.844.844 0 0 0 .549-.203l2.479-2.125a.844.844 0 0 1 .549-.203h138.886c.932 0 1.687.755 1.687 1.687v13.498c0 .932-.755 1.687-1.687 1.687H104.922a.844.844 0 0 0-.55.203l-2.478 2.125a.844.844 0 0 1-.549.203h-3.594a.844.844 0 0 1-.55-.203l-2.477-2.125a.844.844 0 0 0-.55-.203h-1.797a1.687 1.687 0 0 1-1.687-1.687V78.879c0-.932.755-1.687 1.687-1.687h1.266z"/>
            <path fill="#FFF" d="M149.248 85.628l-1.98-2.178a.21.21 0 0 1 .312-.284l2.109 2.32a.21.21 0 0 1 0 .284l-2.11 2.32a.21.21 0 1 1-.311-.284l1.98-2.178zM196.912 85.628l-1.98-2.178a.21.21 0 0 1 .312-.284l2.11 2.32a.21.21 0 0 1 0 .284l-2.11 2.32a.21.21 0 1 1-.312-.284l1.98-2.178z"/>
            <text fill="#FFF" font-family="IBMPlexSans-Bold, IBM Plex Sans" font-size="5.062" font-weight="bold" transform="translate(94.064 80.566)">
                <tspan x="0" y="6.265">Market</tspan>
            </text>
            <g transform="translate(114.311 80.566)">
                <rect width="29.105" height="10.124" fill="#004D40" rx="4.851"/>
                <path fill="#FFF" d="M24.534 3.851a.21.21 0 0 1 .284.312l-2.32 2.11a.21.21 0 0 1-.284 0l-2.32-2.11a.21.21 0 1 1 .284-.312l2.178 1.98 2.178-1.98z"/>
                <text fill="#FFF" font-family="IBMPlexSans-Bold, IBM Plex Sans" font-size="5.062" font-weight="bold">
                    <tspan x="3.375" y="6.265">Forex</tspan>
                </text>
            </g>
            <g transform="translate(153.54 80.566)">
                <rect width="37.541" height="10.124" fill="#004D40" rx="4.851"/>
                <path fill="#FFF" d="M32.97 3.851a.21.21 0 0 1 .284.312l-2.32 2.11a.21.21 0 0 1-.284 0l-2.32-2.11a.21.21 0 1 1 .284-.312l2.178 1.98 2.178-1.98z"/>
                <text fill="#FFF" font-family="IBMPlexSans-Bold, IBM Plex Sans" font-size="5.062" font-weight="bold">
                    <tspan x="3.375" y="6.265">Smart FX</tspan>
                </text>
            </g>
            <g transform="translate(201.205 80.566)">
                <rect width="40.916" height="10.124" fill="#004D40" rx="4.851"/>
                <path fill="#FFF" d="M36.345 3.851a.21.21 0 0 1 .284.312l-2.32 2.11a.21.21 0 0 1-.284 0l-2.32-2.11a.21.21 0 1 1 .284-.312l2.178 1.98 2.178-1.98z"/>
                <text fill="#FFF" font-family="IBMPlexSans-Bold, IBM Plex Sans" font-size="5.062" font-weight="bold">
                    <tspan x="3.375" y="6.265">AUD Index</tspan>
                </text>
            </g>
            <path fill="#00897B" stroke="#004D40" stroke-width=".548" d="M94.175 94.064c.201 0 .396.072.549.203l2.478 2.125a.844.844 0 0 0 .549.203h3.594a.844.844 0 0 0 .549-.203l2.479-2.125a.844.844 0 0 1 .549-.203H248.87c.931 0 1.687.756 1.687 1.688v13.498c0 .931-.756 1.687-1.687 1.687H104.922a.844.844 0 0 0-.55.203l-2.478 2.125a.844.844 0 0 1-.549.203h-3.594a.844.844 0 0 1-.55-.204l-2.477-2.124a.844.844 0 0 0-.55-.203h-1.797a1.687 1.687 0 0 1-1.687-1.687V95.752c0-.932.755-1.688 1.687-1.688h1.266z"/>
            <path fill="#FFF" d="M177.087 102.5l-1.98-2.178a.21.21 0 0 1 .312-.283l2.11 2.32a.21.21 0 0 1 0 .283l-2.11 2.32a.21.21 0 1 1-.312-.283l1.98-2.178z"/>
            <text fill="#FFF" font-family="IBMPlexSans-Bold, IBM Plex Sans" font-size="5.062" font-weight="bold" transform="translate(94.064 97.439)">
                <tspan x="0" y="6.265">Trade category</tspan>
            </text>
            <g transform="translate(133.293 97.439)">
                <rect width="37.963" height="10.124" fill="#004D40" rx="4.851"/>
                <path fill="#FFF" d="M33.392 3.851a.21.21 0 0 1 .284.312l-2.32 2.11a.21.21 0 0 1-.284 0l-2.32-2.11a.21.21 0 1 1 .284-.312l2.178 1.98 2.178-1.98z"/>
                <text fill="#FFF" font-family="IBMPlexSans-Bold, IBM Plex Sans" font-size="5.062" font-weight="bold">
                    <tspan x="3.375" y="6.265">Up/Down</tspan>
                </text>
            </g>
            <text fill="#FFF" font-family="IBMPlexSans-Bold, IBM Plex Sans" font-size="5.062" font-weight="bold" transform="translate(181.38 97.439)">
                <tspan x="0" y="6.265">Trade type</tspan>
            </text>
            <g transform="translate(210.485 97.439)">
                <rect width="36.698" height="10.124" fill="#004D40" rx="4.851"/>
                <path fill="#FFF" d="M32.127 3.851a.21.21 0 0 1 .284.312l-2.32 2.11a.21.21 0 0 1-.284 0l-2.32-2.11a.21.21 0 1 1 .284-.312l2.178 1.98 2.178-1.98z"/>
                <text fill="#FFF" font-family="IBMPlexSans-Bold, IBM Plex Sans" font-size="5.062" font-weight="bold">
                    <tspan x="3.375" y="6.265">Rise/Fall</tspan>
                </text>
            </g>
            <path fill="#00897B" stroke="#004D40" stroke-width=".548" d="M94.175 110.937c.201 0 .396.072.549.203l2.478 2.124a.844.844 0 0 0 .549.204h3.594a.844.844 0 0 0 .549-.203l2.479-2.125a.844.844 0 0 1 .549-.203H158.18c.932 0 1.687.755 1.687 1.687v13.498c0 .932-.755 1.687-1.687 1.687h-53.258a.844.844 0 0 0-.55.203l-2.478 2.125a.844.844 0 0 1-.549.203h-3.594a.844.844 0 0 1-.55-.203l-2.477-2.124a.844.844 0 0 0-.55-.204h-1.797a1.687 1.687 0 0 1-1.687-1.687v-13.498c0-.932.755-1.687 1.687-1.687h1.266z"/>
            <text fill="#FFF" font-family="IBMPlexSans-Bold, IBM Plex Sans" font-size="5.062" font-weight="bold" transform="translate(94.064 114.311)">
                <tspan x="0" y="6.265">Contract type</tspan>
            </text>
            <g transform="translate(129.918 114.311)">
                <rect width="26.574" height="10.124" fill="#004D40" rx="4.851"/>
                <path fill="#FFF" d="M22.003 3.851a.21.21 0 0 1 .284.312l-2.32 2.11a.21.21 0 0 1-.284 0l-2.32-2.11a.21.21 0 1 1 .284-.312l2.178 1.98 2.178-1.98z"/>
                <text fill="#FFF" font-family="IBMPlexSans-Bold, IBM Plex Sans" font-size="5.062" font-weight="bold">
                    <tspan x="3.375" y="6.265">Both</tspan>
                </text>
            </g>
            <path fill="#00897B" stroke="#004D40" stroke-width=".548" d="M94.175 127.81c.201 0 .396.071.549.203l2.478 2.124a.844.844 0 0 0 .549.203h3.594a.844.844 0 0 0 .549-.203l2.479-2.125a.844.844 0 0 1 .549-.203h84.894c.932 0 1.687.756 1.687 1.688v13.498c0 .931-.755 1.687-1.687 1.687h-84.894a.844.844 0 0 0-.55.203l-2.478 2.125a.844.844 0 0 1-.549.203h-3.594a.844.844 0 0 1-.55-.203l-2.477-2.125a.844.844 0 0 0-.55-.203h-1.797a1.687 1.687 0 0 1-1.687-1.687v-13.498c0-.932.755-1.688 1.687-1.688h1.266z"/>
            <text fill="#FFF" font-family="IBMPlexSans-Bold, IBM Plex Sans" font-size="5.062" font-weight="bold" transform="translate(94.064 131.184)">
                <tspan x="0" y="6.265">Default candle interval</tspan>
            </text>
            <g transform="translate(151.853 131.184)">
                <rect width="36.276" height="10.124" fill="#004D40" rx="4.851"/>
                <path fill="#FFF" d="M31.705 3.851a.21.21 0 0 1 .284.312l-2.32 2.11a.21.21 0 0 1-.284 0l-2.32-2.11a.21.21 0 1 1 .284-.312l2.178 1.98 2.178-1.98z"/>
                <text fill="#FFF" font-family="IBMPlexSans-Bold, IBM Plex Sans" font-size="5.062" font-weight="bold">
                    <tspan x="3.375" y="6.265">1 minute</tspan>
                </text>
            </g>
            <path fill="#00897B" stroke="#004D40" stroke-width=".548" d="M94.175 144.682c.201 0 .396.072.549.203l2.478 2.125a.844.844 0 0 0 .549.203h3.594a.844.844 0 0 0 .549-.203l2.479-2.125a.844.844 0 0 1 .549-.203h158.711c.932 0 1.687.755 1.687 1.687v13.498c0 .932-.755 1.687-1.687 1.687H104.922a.844.844 0 0 0-.55.203l-2.478 2.125a.844.844 0 0 1-.549.203h-3.594a.844.844 0 0 1-.55-.203l-2.477-2.124a.844.844 0 0 0-.55-.204h-1.797a1.687 1.687 0 0 1-1.687-1.687V146.37c0-.932.755-1.687 1.687-1.687h1.266z"/>
            <text fill="#FFF" font-family="IBMPlexSans-Bold, IBM Plex Sans" font-size="5.062" font-weight="bold" transform="translate(94.064 148.056)">
                <tspan x="0" y="6.265">Restart buy/sell on error (disable for better performance)</tspan>
            </text>
            <g transform="translate(233.684 148.056)">
                <rect width="28.261" height="10.124" fill="#004D40" rx="4.851"/>
                <path fill="#FFF" d="M23.69 3.851a.21.21 0 0 1 .284.312l-2.32 2.11a.21.21 0 0 1-.283 0l-2.32-2.11a.21.21 0 1 1 .283-.312l2.178 1.98 2.179-1.98z"/>
                <text fill="#FFF" font-family="IBMPlexSans-Bold, IBM Plex Sans" font-size="5.062" font-weight="bold">
                    <tspan x="3.375" y="6.265">False</tspan>
                </text>
            </g>
            <path fill="#00897B" stroke="#004D40" stroke-width=".548" d="M94.175 161.554c.201 0 .396.072.549.204l2.478 2.124a.844.844 0 0 0 .549.203h3.594a.844.844 0 0 0 .549-.203l2.479-2.125a.844.844 0 0 1 .549-.203h171.365c.932 0 1.688.756 1.688 1.688v13.498c0 .931-.756 1.687-1.688 1.687H104.922a.844.844 0 0 0-.55.203l-2.478 2.125a.844.844 0 0 1-.549.203h-3.594a.844.844 0 0 1-.55-.203l-2.477-2.125a.844.844 0 0 0-.55-.203h-1.797a1.687 1.687 0 0 1-1.687-1.687v-13.498c0-.932.755-1.688 1.687-1.688h1.266z"/>
            <text fill="#FFF" font-family="IBMPlexSans-Bold, IBM Plex Sans" font-size="5.062" font-weight="bold" transform="translate(94.064 164.929)">
                <tspan x="0" y="6.265">Restart last trade on error (but ignores the unsuccessful trade)</tspan>
            </text>
            <g transform="translate(246.339 164.929)">
                <rect width="28.261" height="10.124" fill="#004D40" rx="4.851"/>
                <path fill="#FFF" d="M23.69 3.851a.21.21 0 0 1 .284.312l-2.32 2.11a.21.21 0 0 1-.283 0l-2.32-2.11a.21.21 0 1 1 .283-.312l2.178 1.98 2.179-1.98z"/>
                <text fill="#FFF" font-family="IBMPlexSans-Bold, IBM Plex Sans" font-size="5.062" font-weight="bold">
                    <tspan x="3.375" y="6.265">False</tspan>
                </text>
            </g>
            <path fill="#FFF" fill-rule="nonzero" d="M0 290.207h539.92v13.498H0z"/>
            <path fill="#F2F3F4" fill-rule="nonzero" d="M0 290.207h539.92v1H0z"/>
            <g transform="translate(422.656 290.629)">
                <g fill-rule="nonzero">
                    <path fill="#FFF" d="M103.766 0h13.498v13.076h-13.498z"/>
                    <path fill="#333" d="M113.257 7.17c.097 0 .179.066.203.156l.008.056v1.687a.211.211 0 0 1-.155.203l-.056.008h-1.688a.21.21 0 0 1-.056-.414l.056-.008h1.477V7.382a.21.21 0 0 1 .21-.211zm-5.484 0a.21.21 0 0 1 .211.212v1.476h1.476a.21.21 0 0 1 0 .422h-1.687a.21.21 0 0 1-.21-.211V7.382a.21.21 0 0 1 .21-.211zm1.687-3.795a.21.21 0 0 1 .056.414l-.056.007h-1.476v1.477a.21.21 0 0 1-.414.056l-.008-.056V3.585c0-.097.066-.178.155-.203l.056-.007h1.687zm3.797 0c.097 0 .179.065.203.154l.008.056v1.688a.21.21 0 0 1-.415.056l-.007-.056V3.796h-1.477a.21.21 0 0 1-.056-.414l.056-.007h1.688z"/>
                </g>
                <g fill-rule="nonzero">
                    <path fill="#FFF" d="M90.268 0h13.498v13.076H90.268z"/>
                    <path fill="#333" d="M99.982 5.85l-.026-.158-.483-.162a2.553 2.553 0 0 0-.157-.38l.228-.455-.094-.13a3.08 3.08 0 0 0-.674-.674l-.13-.093-.455.228a2.583 2.583 0 0 0-.38-.158l-.161-.482-.157-.024a2.982 2.982 0 0 0-.476-.04c-.146 0-.298.012-.477.04l-.158.026-.16.483a2.675 2.675 0 0 0-.38.157l-.456-.228-.13.093a3.02 3.02 0 0 0-.673.673l-.094.13.228.456c-.062.122-.114.25-.156.38l-.484.16-.025.158a3.03 3.03 0 0 0-.04.477c0 .148.013.303.04.477l.025.158.484.161c.042.13.094.259.157.38l-.227.455.094.129c.097.136.198.255.308.365.102.103.221.204.364.309l.13.093.455-.228c.122.063.25.116.38.158l.16.483.16.025c.172.028.328.041.475.041.147 0 .302-.013.476-.04l.159-.026.16-.483c.13-.043.257-.095.38-.157l.456.228.13-.094a2.793 2.793 0 0 0 .672-.673l.093-.13-.228-.456c.063-.122.116-.25.158-.38l.483-.162.025-.158c.028-.174.04-.33.04-.476a2.668 2.668 0 0 0-.04-.476zm-.432.472v.003c0 .09-.006.18-.017.276l-.234.078-.206.07-.064.208c-.036.12-.084.236-.143.347l-.101.192.207.413a2.39 2.39 0 0 1-.184.207l-.001.001a2.18 2.18 0 0 1-.206.182l-.412-.206-.19.1a2.212 2.212 0 0 1-.353.145l-.206.065-.067.204-.078.233a2.241 2.241 0 0 1-.552 0l-.078-.233-.068-.206-.207-.064a1.98 1.98 0 0 1-.348-.143l-.192-.1-.195.096-.22.11a2.39 2.39 0 0 1-.39-.39l.206-.412-.1-.191a2.026 2.026 0 0 1-.144-.35l-.064-.207-.44-.146a2.241 2.241 0 0 1 0-.552l.438-.146.064-.207c.037-.12.086-.237.145-.35l.1-.192-.096-.193-.11-.22a2.54 2.54 0 0 1 .39-.39l.413.207.192-.101c.11-.058.229-.107.35-.145l.207-.065.068-.205.078-.233a2.376 2.376 0 0 1 .551 0l.146.437.207.064c.12.038.238.086.35.144l.191.1.412-.206c.144.116.276.247.393.391l-.206.412.099.19c.058.114.108.232.145.353l.065.206.205.069.233.078c.013.099.018.188.017.272zm-2.532-1.144a1.15 1.15 0 0 0-1.149 1.15 1.15 1.15 0 0 0 1.15 1.148 1.15 1.15 0 0 0 1.148-1.149 1.15 1.15 0 0 0-1.149-1.149zm.477 1.626a.67.67 0 0 1-.953 0 .67.67 0 0 1 0-.953.67.67 0 0 1 .953 0 .671.671 0 0 1 0 .953z"/>
                </g>
                <path fill="#F2F3F4" fill-rule="nonzero" d="M86.472 2.953h1v6.749h-1z"/>
                <text fill="#333" font-family="IBMPlexSans, IBM Plex Sans" font-size="5.062">
                    <tspan x="17.294" y="7.531">01-01-2019 00:00:00 GMT</tspan>
                </text>
                <path fill="#F2F3F4" fill-rule="nonzero" d="M10.124 2.953h1v6.749h-1z"/>
                <circle cx="1.687" cy="6.327" r="1.687" fill="#4BB4B3" fill-rule="nonzero"/>
            </g>
            <path fill="#FFF" fill-rule="nonzero" d="M0 290.629h13.498v13.076H0zM0 0h539.92v20.247H0z"/>
            <path fill="#F2F3F4" fill-rule="nonzero" d="M0 19.825h539.92v1H0z"/>
            <path fill="#FF444F" fill-rule="nonzero" d="M491.436-.47h50.626c.932 0 1.687.756 1.687 1.688v17.626c0 .931-.755 1.687-1.687 1.687h-50.626a1.687 1.687 0 0 1-1.687-1.687V1.218c0-.932.755-1.687 1.687-1.687z"/>
            <text fill="#FFF" font-family="IBMPlexSans-Bold, IBM Plex Sans" font-size="5.905" font-weight="bold" transform="translate(489 -1)">
                <tspan x="16.749" y="12.531">Deposit</tspan>
            </text>
            <path fill="#FFF" fill-rule="nonzero" d="M431.093 0h63.694v19.825h-63.694z"/>
            <path fill="#333" fill-rule="nonzero" d="M484.663 10.792l2.233-2.232a.422.422 0 1 1 .596.596l-2.53 2.531a.422.422 0 0 1-.597 0l-2.531-2.53a.422.422 0 0 1 .596-.597l2.233 2.232z"/>
            <text fill="#4BB4B3" font-family="IBMPlexSans-Bold, IBM Plex Sans" font-size="6.749" font-weight="bold" transform="translate(431.093)">
                <tspan x="18.741" y="12.062">$000.00</tspan>
            </text>
            <g transform="translate(437.842 5.062)">
                <circle cx="5.062" cy="5.062" r="5.062" fill="#FFF"/>
                <path fill="#F44336" fill-rule="nonzero" d="M6.165.928H7.98A5.037 5.037 0 0 0 5.354.009h-.156c.46.058.67.397.967.919zM6.634 2.764H9.57a5.05 5.05 0 0 0-.6-.918H6.405c.09.285.167.594.23.918zM10.096 4.601a5.018 5.018 0 0 0-.168-.918H6.795c.031.3.052.608.062.918h3.239zM9.92 6.438c.086-.296.145-.603.174-.918H6.935c-.01.31-.032.617-.064.918h3.05zM6.485 8.275h2.462c.235-.282.44-.59.609-.919h-2.84c-.062.325-.14.634-.231.919zM5.058 10.11c1.073 0 2.066-.339 2.885-.917H6.112c-.325.569-.54.918-1.054.918z"/>
                <path fill="#F44336" fill-rule="nonzero" d="M2.138.928h4.195C6.035.406 5.657.067 5.198.009h-.435a5.037 5.037 0 0 0-2.625.919zM1.148 1.846c-.232.282-.433.59-.6.918H6.95a8.08 8.08 0 0 0-.23-.918H1.149zM.02 4.601h7.126c-.01-.31-.031-.617-.062-.918H.189c-.084.296-.14.603-.168.918zM.196 6.438h6.885c.032-.3.054-.608.064-.918H.023c.03.315.088.622.173.918zM.56 7.356c.17.329.374.637.61.919h5.543c.091-.285.169-.594.232-.919H.56zM4.844 10.106l.031.001c.06.002.122.004.183.004.515 0 .934-.35 1.26-.918H2.173c.764.54 1.68.871 2.67.913z"/>
                <path fill="#283991" fill-rule="nonzero" d="M4.954.003a5.057 5.057 0 0 0-4.932 4.6h4.932v-4.6z"/>
                <path fill="#EFEFEF" fill-rule="nonzero" d="M1.012 2.86l.077.237h.25l-.202.146.077.237-.202-.146-.202.146.077-.237-.202-.146h.25zM1.012 3.696l.077.237h.25l-.202.147.077.237-.202-.147-.202.147.077-.237-.202-.147h.25zM1.85 1.605l.078.237h.25l-.203.146.077.237-.201-.146-.202.146.077-.237-.202-.146h.25zM1.85 2.441l.078.237h.25l-.203.147.077.237-.201-.147-.202.147.077-.237-.202-.147h.25zM1.85 3.278l.078.237h.25l-.203.146.077.237-.201-.146-.202.146.077-.237-.202-.146h.25zM.376 3.898l-.078-.237.202-.146H.25l-.005-.017c-.027.084-.052.17-.075.256l.004-.002.202.146zM.81 2.643l.202-.146.202.146-.077-.237.202-.146h-.25l-.077-.237-.077.237H.843a4.762 4.762 0 0 0-.05.078l.094.068-.077.237zM1.85 1.242l.202.146-.077-.237.202-.146h-.144a5.02 5.02 0 0 0-.354.29l-.03.093.202-.146zM2.487.97L2.69.823l.202.147-.077-.237.202-.146h-.25l-.01-.032a5.008 5.008 0 0 0-.25.136l.058.042-.077.237zM2.69 1.186l.076.237h.25l-.202.147.077.237-.202-.147-.202.147.077-.237-.202-.147h.25zM2.69 2.023l.076.237h.25l-.202.146.077.237-.202-.146-.202.146.077-.237-.202-.146h.25zM2.69 2.86l.076.237h.25l-.202.146.077.237-.202-.146-.202.146.077-.237-.202-.146h.25zM2.69 3.696l.076.237h.25l-.202.147.077.237-.202-.147-.202.147.077-.237-.202-.147h.25zM3.528.768l.077.237h.25l-.203.146.077.237-.201-.146-.202.146.077-.237-.202-.146h.25zM3.528 1.605l.077.237h.25l-.203.146.077.237-.201-.146-.202.146.077-.237-.202-.146h.25zM3.528 2.441l.077.237h.25l-.203.147.077.237-.201-.147-.202.147.077-.237-.202-.147h.25zM3.528 3.278l.077.237h.25l-.203.146.077.237-.201-.146-.202.146.077-.237-.202-.146h.25zM4.366.35l.077.237h.25L4.49.733l.077.237-.202-.147-.202.147.077-.237L4.04.587h.25zM4.366 1.186l.077.237h.25l-.202.147.077.237-.202-.147-.202.147.077-.237-.202-.147h.25zM4.366 2.023l.077.237h.25l-.202.146.077.237-.202-.146-.202.146.077-.237-.202-.146h.25zM4.366 2.86l.077.237h.25l-.202.146.077.237-.202-.146-.202.146.077-.237-.202-.146h.25zM4.366 3.696l.077.237h.25l-.202.147.077.237-.202-.147-.202.147.077-.237-.202-.147h.25z"/>
            </g>
            <path fill="#F2F3F4" fill-rule="nonzero" d="M430.671 3.375h1v13.498h-1z"/>
            <g fill-rule="nonzero">
                <path fill="#FFF" d="M407.05 0h20.246v19.825H407.05z"/>
                <g fill="#333">
                    <path d="M417.173 7.17a1.265 1.265 0 1 1 0 2.532 1.265 1.265 0 0 1 0-2.531zm0 .423a.844.844 0 1 0 0 1.687.844.844 0 0 0 0-1.687z"/>
                    <path d="M417.173 5.905a4.218 4.218 0 0 1 2.532 7.592l-.001.001a4.218 4.218 0 1 1-2.53-7.593zm1.054 4.851h-2.109c-.582 0-1.054.472-1.054 1.055v1.47c.603.403 1.329.639 2.109.639s1.506-.236 2.11-.64l-.001-1.47c0-.582-.472-1.054-1.055-1.054zm-1.054-4.429a3.796 3.796 0 0 0-2.531 6.626v-1.142c0-.816.661-1.477 1.476-1.477h2.11c.815 0 1.476.661 1.476 1.477v1.141a3.796 3.796 0 0 0-2.532-6.625z"/>
                </g>
            </g>
            <path fill="#FFF" fill-rule="nonzero" d="M386.802 0h20.247v19.825h-20.247z"/>
            <g fill-rule="nonzero">
                <path fill="#000" fill-opacity=".8" d="M396.504 13.498c0 .233.211.422.422.422.21 0 .422-.189.422-.422h.421a.858.858 0 0 1-.843.844.858.858 0 0 1-.844-.844z"/>
                <path stroke="#000" stroke-opacity=".8" stroke-width=".5" d="M399.702 12.41l-.073-.177V9.702a2.7 2.7 0 0 0-2.123-2.637l-.197-.043v-.695a.382.382 0 1 0-.766 0v.695l-.197.043a2.7 2.7 0 0 0-2.123 2.637v2.53l-.073.177-.544.544c-.11.11-.033.295.118.295h6.4c.152 0 .23-.187.122-.295l-.544-.544z"/>
            </g>
            <g transform="translate(396.926 3.375)">
                <rect width="6.749" height="6.749" fill="#EC3F3F" fill-rule="nonzero" rx="3.375"/>
                <text fill="#FFF" font-family="IBMPlexSans-Bold, IBM Plex Sans" font-size="4.218" font-weight="bold">
                    <tspan x="2.109" y="5.265">1</tspan>
                </text>
            </g>
            <path fill="#FFF" fill-rule="nonzero" d="M120.96-6.938h66v34h-66z"/>
            <text fill="#333" font-family="IBMPlexSans, IBM Plex Sans" font-size="6.749" transform="translate(136.96 5.062)">
                <tspan x="10.124" y="7">Cashier</tspan>
            </text>
            <path fill="#333" fill-rule="nonzero" d="M137.593 9.28a.21.21 0 0 0-.211.21v2.953c0 .117.094.211.21.211h5.484a.21.21 0 0 0 .211-.21V9.49a.21.21 0 0 0-.21-.211h-5.484zm5.694-2.11c.233 0 .422.19.422.423v.421a.422.422 0 0 1-.422.422h-.844v.422h.633c.35 0 .633.283.633.633v2.952c0 .35-.283.633-.633.633h-5.483a.633.633 0 0 1-.633-.633V9.491c0-.35.283-.633.633-.633h.21v-.844h2.11l-.001.844h2.11v-.422h-.844a.422.422 0 0 1-.422-.422v-.421c0-.233.19-.422.422-.422h2.11zm0 4.219h-5.905v.422h5.905v-.422zm-.633-.844h-1.265a.21.21 0 0 0-.056.415l.056.007h1.265a.21.21 0 1 0 0-.422zm-2.109 0a.21.21 0 1 0 0 .422.21.21 0 0 0 0-.422zm-.843 0a.21.21 0 1 0 0 .422.21.21 0 0 0 0-.422zm-.844 0a.21.21 0 1 0 0 .422.21.21 0 0 0 0-.422zm-.844 0a.21.21 0 1 0 0 .422.21.21 0 0 0 0-.422zm4.64-.843h-1.265a.21.21 0 0 0-.056.414l.056.008h1.265a.21.21 0 1 0 0-.422zm-2.109 0a.21.21 0 1 0 0 .422.21.21 0 0 0 0-.422zm-.843 0a.21.21 0 1 0 0 .422.21.21 0 0 0 0-.422zm-.844 0a.21.21 0 1 0 0 .422.21.21 0 0 0 0-.422zm-.844 0a.21.21 0 1 0 0 .422.21.21 0 0 0 0-.422zm1.477-1.266h-1.266v.422h1.266v-.422zm3.796-.843h-2.109v.421h2.11v-.421z"/>
            <path fill="#FFF" fill-rule="nonzero" d="M74.96-6.938h67v34h-67z"/>
            <text fill="#333" font-family="IBMPlexSans, IBM Plex Sans" font-size="6.749" transform="translate(90.96 5.062)">
                <tspan x="10.124" y="7">Reports</tspan>
            </text>
            <path fill="#333" d="M96.443 10.124v2.952h.422a.422.422 0 0 0 .422-.422v-2.53h-.844zm-1.687-3.375l1.687 1.687v1.265h1.266v2.953a.844.844 0 0 1-.844.844h-5.483a.422.422 0 0 1-.422-.422V7.171c0-.233.189-.422.422-.422h3.374zm-.174.422h-3.2v5.905h4.64V8.611l-1.44-1.44zm-.88 4.218a.21.21 0 1 1 0 .422h-1.266a.21.21 0 1 1 0-.422h1.266zm1.265-.844a.21.21 0 0 1 0 .422h-2.53a.21.21 0 1 1 0-.422h2.53zm0-.843a.21.21 0 0 1 0 .422h-2.53a.21.21 0 0 1 0-.422h2.53zm0-.844a.21.21 0 0 1 0 .422h-2.53a.21.21 0 0 1 0-.422h2.53z"/>
            <path fill="#FFF" fill-rule="nonzero" d="M0 0h83.941v19.825H0z"/>
            <path fill="#333" fill-rule="nonzero" d="M73.817 10.792L76.05 8.56a.422.422 0 1 1 .596.596l-2.53 2.531a.422.422 0 0 1-.597 0l-2.53-2.53a.422.422 0 0 1 .596-.597l2.232 2.232z"/>
            <g transform="translate(37 5)">
                <rect width="31" height="9" x=".045" fill="#85ACB0" fill-rule="nonzero" rx="4.218"/>
                <text fill="#FFF" font-family="IBMPlexSans-Medium, IBM Plex Sans Medium" font-size="5.905">
                    <tspan x="8.382" y="6">BETA</tspan>
                </text>
            </g>
            <text fill="#333" font-family="IBMPlexSans-Bold, IBM Plex Sans" font-size="6.749" font-weight="bold">
                <tspan x="23.622" y="12.062">DBot</tspan>
            </text>
            <g transform="translate(6.749 3.375)">
                <rect width="13.498" height="13.498" fill="#FF6444" fill-rule="nonzero" rx="2.531"/>
                <path d="M5.787 5.593a.356.356 0 1 0 0-.713.356.356 0 0 0 0 .713z"/>
                <path fill="#FFF" fill-rule="nonzero" d="M10.655 6.509v-1.94A2.042 2.042 0 0 0 8.618 2.53H6.989v3.978h3.666zM6.99 10.967h1.628a2.042 2.042 0 0 0 2.037-2.037V6.99H6.989v3.977zM4.975 5.863a1.192 1.192 0 1 1 1.169-1.417h.365V2.53H4.88a2.042 2.042 0 0 0-2.037 2.037V8.93a2.042 2.042 0 0 0 2.037 2.037H6.51V4.895h-.365a1.192 1.192 0 0 1-1.169.968z"/>
                <path d="M0 0h13.498v13.498H0z"/>
            </g>
            <g fill-rule="nonzero">
                <use fill="#FFF" xlink:href="#c"/>
                <use fill="#000" filter="url(#d)" xlink:href="#c"/>
            </g>
            <rect width="141.573" height="15.873" x="179.349" y="23.7" fill-rule="nonzero" stroke="#D6DADB" rx="1.687"/>
            <path fill="#F2F3F4" fill-rule="nonzero" d="M260.47 28.05a.21.21 0 0 1 .21.211v6.75a.21.21 0 1 1-.421 0v-6.75a.21.21 0 0 1 .21-.21zM226.303 28.05a.21.21 0 0 1 .21.211v6.75a.21.21 0 1 1-.421 0v-6.75a.21.21 0 0 1 .21-.21z"/>
            <g stroke="#333" stroke-linecap="round" stroke-linejoin="round" stroke-width=".548">
                <path d="M235.372 29.527l-.844.844.842.843"/>
                <path d="M234.95 30.37h1.687a1.687 1.687 0 0 1 0 3.375h-.844"/>
            </g>
            <g stroke="#333" stroke-width=".548">
                <path d="M200.783 29.105h2.567c.112 0 .22.045.298.124l.51.509.298.298c.079.08.123.186.123.298v3.411a.422.422 0 0 1-.422.422h-3.374a.422.422 0 0 1-.422-.422v-4.218c0-.233.189-.422.422-.422z"/>
                <g transform="translate(201.416 30.792)">
                    <rect width="1.561" height="1" x=".274" y="1.117" rx=".422"/>
                    <rect width="1" height="1.561" x="1.117" y=".274" rx=".422"/>
                </g>
            </g>
            <g stroke="#333" stroke-width=".548">
                <path d="M190.027 33.956h-2.953a.422.422 0 0 1-.422-.422v-3.269c0-.175.142-.316.317-.316a.316.316 0 0 0 .316-.317c0-.174.142-.316.316-.316h.633c.175 0 .316.142.316.316 0 .175.142.317.317.317h1.16c.233 0 .421.189.421.422v.632"/>
                <path d="M186.837 33.4l.774-2.32a.422.422 0 0 1 .4-.288h2.907a.422.422 0 0 1 .4.556l-.773 2.32a.422.422 0 0 1-.4.288h-2.908a.422.422 0 0 1-.4-.555z"/>
            </g>
            <g transform="translate(212.594 28.261)">
                <path d="M0 0h6.749v6.749H0z"/>
                <path stroke="#333" stroke-width=".548" d="M1.125 1.117a.007.007 0 0 0-.008.008v4.5c0 .003.004.007.008.007h4.5a.007.007 0 0 0 .007-.008V1.862a.148.148 0 0 0-.044-.105l-.596-.596a.148.148 0 0 0-.105-.044H1.125z"/>
                <rect width="2.827" height="1.14" x="1.961" y="1.117" stroke="#333" stroke-width=".548" rx=".281"/>
                <rect width="2.827" height="1.561" x="1.961" y="4.07" stroke="#333" stroke-width=".548" rx=".281"/>
            </g>
            <g stroke="#333" stroke-linecap="round" stroke-linejoin="round" stroke-width=".548">
                <path d="M251.4 29.527l.844.844-.842.843"/>
                <path d="M251.822 30.37h-1.687a1.687 1.687 0 0 0 0 3.375h.844"/>
            </g>
            <g stroke="#333" stroke-width=".548" transform="translate(280.927 28.261)">
                <path stroke-linecap="round" d="M.633.633v5.483"/>
                <rect width="3.67" height="1.14" x="1.539" y=".696" rx=".422"/>
                <rect width="2.827" height="1.14" x="1.539" y="2.805" rx=".422"/>
                <rect width="1.983" height="1.14" x="1.539" y="4.914" rx=".422"/>
            </g>
            <path fill-rule="nonzero" stroke="#333" stroke-width=".548" d="M273.043 31.674c0 .004 0 .006.003.016v-.132l-.004.017c0-.01-.01-.036-.067-.083a.525.525 0 0 0-.072-.05l-.006-.004-3.97-2.473a.164.164 0 0 0-.061-.016.932.932 0 0 0-.127-.004h-.047c-.111 0-.138.018-.152.052a.246.246 0 0 0-.013.095v5.063c0 .04.004.07.015.093.015.036.043.054.15.054h.046c.067.001.097 0 .128-.003.03-.004.05-.01.055-.013l3.982-2.48a.525.525 0 0 0 .072-.05c.058-.05.068-.075.067-.084z"/>
            <g transform="translate(294.425 28.261)">
                <path d="M0 0h6.749v6.749H0z"/>
                <circle cx="3.164" cy="3.164" r="2.257" stroke="#333" stroke-width=".548"/>
                <rect width="1.983" height="1" x="2.172" y="3.227" stroke="#333" stroke-width=".548" rx=".422"/>
                <rect width="1" height="1.983" x="3.227" y="2.172" stroke="#333" stroke-width=".548" rx=".422"/>
                <path stroke="#333" stroke-linecap="round" stroke-width=".548" d="M4.85 4.85l1.505 1.505"/>
            </g>
            <g transform="translate(307.923 28.261)">
                <path d="M0 0h6.749v6.749H0z"/>
                <circle cx="3.164" cy="3.164" r="2.257" stroke="#333" stroke-width=".548"/>
                <rect width="1.983" height="1" x="2.172" y="3.227" stroke="#333" stroke-width=".548" rx=".422"/>
                <path stroke="#333" stroke-linecap="round" stroke-width=".548" d="M4.85 4.85l1.505 1.505"/>
            </g>
            <rect width="69.865" height="15.873" x="105.11" y="23.7" fill-rule="nonzero" stroke="#D6DADB" rx="1.687"/>
            <text fill="#333" font-family="IBMPlexSans, IBM Plex Sans" font-size="5.905">
                <tspan x="109.671" y="33.418">My advanced bot</tspan>
            </text>
            <path fill="#FFF" fill-rule="nonzero" d="M105.898 19h27v6h-27z"/>
            <text fill="#333" font-family="IBMPlexSans, IBM Plex Sans" font-size="4.218" transform="translate(105.21 19)">
                <tspan x="4.687" y="4">Bot name</tspan>
            </text>
            <g fill="#000" fill-rule="nonzero">
                <path d="M167.985 28.558a1.004 1.004 0 0 0-1.425 0l-3.993 4.014a.225.225 0 0 0-.058.099l-.525 1.905a.226.226 0 0 0 .058.22c.057.056.14.079.218.057l1.896-.528a.224.224 0 0 0 .098-.058l3.994-4.013a1.017 1.017 0 0 0 0-1.432l-.263-.264zm-4.93 4.16l3.268-3.285 1.054 1.06-3.268 3.284-1.054-1.06zm-.21.424l.841.847-1.165.324.323-1.17zm5.086-3.206l-.237.238-1.054-1.06.237-.238a.558.558 0 0 1 .791 0l.263.264a.565.565 0 0 1 0 .796z"/>
            </g>
            <rect width="58.897" height="15.873" x="41.838" y="23.7" fill-rule="nonzero" stroke="#D6DADB" rx="1.687"/>
            <g fill="#D6D6D6">
                <path d="M90.479 33.323a2.32 2.32 0 1 0 0-4.64 2.32 2.32 0 0 0 0 4.64zm0-5.062a2.742 2.742 0 0 1 2.083 4.525l1.862 1.864a.21.21 0 1 1-.298.299l-1.864-1.863a2.742 2.742 0 1 1-1.783-4.825z"/>
            </g>
            <text fill="#999" font-family="IBMPlexSans, IBM Plex Sans" font-size="5.905">
                <tspan x="46.399" y="33.418">Search block</tspan>
            </text>
            <rect width="31.214" height="16.873" x="6.749" y="23.2" fill="#3D9494" fill-rule="nonzero" rx="1.687"/>
            <text fill="#FFF" font-family="Roboto-Bold, Roboto" font-size="5.905" font-weight="bold">
                <tspan x="20.036" y="32.418">Start</tspan>
            </text>
            <g fill="#FFF">
                <path d="M17.568 31.174c-.023 0-.045 0-.067.002v-1.128a.728.728 0 0 0-.727-.728h-1.129a.993.993 0 1 0-1.98 0H12.54a.728.728 0 0 0-.727.728v1.369a.198.198 0 0 0 .263.186.595.595 0 1 1 0 1.125.198.198 0 0 0-.263.186v1.37c0 .4.326.726.727.726h1.369a.198.198 0 0 0 .183-.272.597.597 0 1 1 1.128.009.198.198 0 0 0 .187.263h1.369a.728.728 0 0 0 .727-.727v-1.128a.993.993 0 0 0 .067-1.982z"/>
            </g>
            <path fill="#FFF" fill-rule="nonzero" d="M0 43.447h77.614v246.76H0z"/>
            <path fill="#F2F3F4" fill-rule="nonzero" d="M0 43.447h77.614v13.498H0z"/>
            <text fill="#333" font-family="IBMPlexSans-Bold, IBM Plex Sans" font-size="5.905" font-weight="bold">
                <tspan x="21.254" y="51.978">Blocks menu</tspan>
            </text>
            <g>
                <path fill="#FF444F" fill-rule="nonzero" d="M8.436 269.96h60.741c.932 0 1.688.756 1.688 1.687v10.124c0 .932-.756 1.687-1.688 1.687H8.437a1.687 1.687 0 0 1-1.688-1.687v-10.124c0-.931.755-1.687 1.687-1.687z"/>
                <text fill="#FFF" font-family="IBMPlexSans-Bold, IBM Plex Sans" font-size="5.905" font-weight="bold" transform="translate(6.749 269.96)">
                    <tspan x="11.929" y="8.531">Quick strategy</tspan>
                </text>
            </g>
            <path fill="#FFF" fill-rule="nonzero" d="M0 62.006h1v223.561H0z"/>
            <g transform="translate(0 156.914)">
                <path fill="#FFF" fill-rule="nonzero" d="M0 0h77.614v20.247H0z"/>
                <path fill="#D6DADB" fill-rule="nonzero" d="M0 20.247h77.614v-.422H0zM0 .422h77.614V0H0z"/>
                <path d="M0 .422h77.614v19.403H0z"/>
                <path fill="#333" d="M73.321 10.124l-1.98-2.179a.21.21 0 0 1 .312-.283l2.11 2.32a.21.21 0 0 1 0 .283l-2.11 2.32a.21.21 0 1 1-.312-.283l1.98-2.178z"/>
                <text fill="#333" font-family="IBMPlexSans, IBM Plex Sans" font-size="4.218">
                    <tspan x="6.749" y="15.389">Indicators, ticks, candles, etc</tspan>
                </text>
                <text fill="#333" font-family="IBMPlexSans-Bold, IBM Plex Sans" font-size="5.905" font-weight="bold">
                    <tspan x="6.749" y="8.953">Technical anslysis</tspan>
                </text>
                <use fill="#689F38" fill-rule="nonzero" xlink:href="#e"/>
            </g>
            <g transform="translate(0 176.74)">
                <path fill="#FFF" fill-rule="nonzero" d="M0 0h77.614v20.247H0z"/>
                <path fill="#D6DADB" fill-rule="nonzero" d="M0 20.247h77.614v-.422H0zM0 .422h77.614V0H0z"/>
                <path d="M0 .422h77.614v19.403H0z"/>
                <path fill="#333" d="M73.321 10.124l-1.98-2.179a.21.21 0 0 1 .312-.283l2.11 2.32a.21.21 0 0 1 0 .283l-2.11 2.32a.21.21 0 1 1-.312-.283l1.98-2.178z"/>
                <text fill="#333" font-family="IBMPlexSans, IBM Plex Sans" font-size="4.218">
                    <tspan x="6.749" y="15.389">Math, text, logic, functions etc</tspan>
                </text>
                <text fill="#333" font-family="IBMPlexSans-Bold, IBM Plex Sans" font-size="5.905" font-weight="bold">
                    <tspan x="6.749" y="8.953">Utility</tspan>
                </text>
                <use fill="#8E24AA" fill-rule="nonzero" xlink:href="#f"/>
            </g>
            <g transform="translate(0 196.565)">
                <path fill="#FFF" fill-rule="nonzero" d="M0 0h77.614v20.247H0z"/>
                <path fill="#D6DADB" fill-rule="nonzero" d="M0 20.247h77.614v-.422H0zM0 .422h77.614V0H0z"/>
                <path d="M0 .422h77.614v19.403H0z"/>
                <path fill="#333" d="M73.321 10.124l-1.98-2.179a.21.21 0 0 1 .312-.283l2.11 2.32a.21.21 0 0 1 0 .283l-2.11 2.32a.21.21 0 1 1-.312-.283l1.98-2.178z"/>
                <text fill="#333" font-family="IBMPlexSans, IBM Plex Sans" font-size="4.218">
                    <tspan x="6.749" y="15.389">Custom functions and variables</tspan>
                </text>
                <text fill="#333" font-family="IBMPlexSans-Bold, IBM Plex Sans" font-size="5.905" font-weight="bold">
                    <tspan x="6.749" y="8.953">Create functions</tspan>
                </text>
                <use fill="#FB8C00" fill-rule="nonzero" xlink:href="#g"/>
            </g>
            <g>
                <g transform="translate(0 63.694)">
                    <path fill="#FFF" fill-rule="nonzero" d="M0 0h77.614v20.247H0z"/>
                    <path fill="#D6DADB" fill-rule="nonzero" d="M0 20.247h77.614v-.422H0zM0 .422h77.614V0H0z"/>
                    <path d="M0 .422h77.614v19.403H0z"/>
                    <g transform="translate(69.177 1.687)">
                        <circle cx="3.375" cy="3.796" r="3.125" stroke="#4BB4B3" stroke-width=".5"/>
                        <text fill="#4BB4B3" font-family="IBMPlexSans, IBM Plex Sans" font-size="5.062">
                            <tspan x="1.65" y="5">1</tspan>
                        </text>
                    </g>
                    <text fill="#333" font-family="IBMPlexSans, IBM Plex Sans" font-size="4.218">
                        <tspan x="6.749" y="15.389">Duration, barrier, stake, etc</tspan>
                    </text>
                    <text fill="#333" font-family="IBMPlexSans-Bold, IBM Plex Sans" font-size="5.905" font-weight="bold">
                        <tspan x="6.749" y="8.953">Trade definition</tspan>
                    </text>
                    <use fill="#303F9F" fill-rule="nonzero" xlink:href="#h"/>
                </g>
            </g>
            <g>
                <g transform="translate(0 83.519)">
                    <path fill="#FFF" fill-rule="nonzero" d="M0 0h77.614v20.247H0z"/>
                    <path fill="#D6DADB" fill-rule="nonzero" d="M0 20.247h77.614v-.422H0zM0 .422h77.614V0H0z"/>
                    <path d="M0 .422h77.614v19.403H0z"/>
                    <g transform="translate(69.177 1.687)">
                        <circle cx="3.375" cy="3.796" r="3.125" stroke="#4BB4B3" stroke-width=".5"/>
                        <text fill="#4BB4B3" font-family="IBMPlexSans, IBM Plex Sans" font-size="5.062">
                            <tspan x="1.65" y="5">2</tspan>
                        </text>
                    </g>
                    <text fill="#333" font-family="IBMPlexSans, IBM Plex Sans" font-size="4.218">
                        <tspan x="6.749" y="15.389">Purchase contract, get payout/price</tspan>
                    </text>
                    <text fill="#333" font-family="IBMPlexSans-Bold, IBM Plex Sans" font-size="5.905" font-weight="bold">
                        <tspan x="6.749" y="8.953">Purchase conditions</tspan>
                    </text>
                    <use fill="#00897B" fill-rule="nonzero" xlink:href="#i"/>
                </g>
            </g>
            <g>
                <g transform="translate(0 103.344)">
                    <path fill="#FFF" fill-rule="nonzero" d="M0 0h77.614v20.247H0z"/>
                    <path fill="#D6DADB" fill-rule="nonzero" d="M0 20.247h77.614v-.422H0zM0 .422h77.614V0H0z"/>
                    <path d="M0 .422h77.614v19.403H0z"/>
                    <text fill="#4BB4B3" font-family="IBMPlexSans, IBM Plex Sans" font-size="5.062" transform="translate(53.177 1.687)">
                        <tspan x="1.336" y="5">Optional</tspan>
                    </text>
                    <text fill="#333" font-family="IBMPlexSans, IBM Plex Sans" font-size="4.218">
                        <tspan x="6.749" y="15.389">Sell at market price if needed</tspan>
                    </text>
                    <text fill="#333" font-family="IBMPlexSans-Bold, IBM Plex Sans" font-size="5.905" font-weight="bold">
                        <tspan x="6.749" y="8.953">Sell conditions</tspan>
                    </text>
                    <use fill="#78909C" fill-rule="nonzero" xlink:href="#j"/>
                </g>
            </g>
            <g>
                <g transform="translate(0 123.17)">
                    <path fill="#FFF" fill-rule="nonzero" d="M0 0h77.614v20.247H0z"/>
                    <path fill="#D6DADB" fill-rule="nonzero" d="M0 20.247h77.614v-.422H0zM0 .422h77.614V0H0z"/>
                    <path d="M0 .422h77.614v19.403H0z"/>
                    <g transform="translate(69.177 1.687)">
                        <circle cx="3.375" cy="3.796" r="3.125" stroke="#4BB4B3" stroke-width=".5"/>
                        <text fill="#4BB4B3" font-family="IBMPlexSans, IBM Plex Sans" font-size="5.062">
                            <tspan x="1.65" y="5">3</tspan>
                        </text>
                    </g>
                    <text fill="#333" font-family="IBMPlexSans, IBM Plex Sans" font-size="4.218">
                        <tspan x="6.749" y="15.389">Expired contract details, stop loss</tspan>
                    </text>
                    <text fill="#333" font-family="IBMPlexSans-Bold, IBM Plex Sans" font-size="5.905" font-weight="bold">
                        <tspan x="6.749" y="8.953">Trade results</tspan>
                    </text>
                    <use fill="#D81B60" fill-rule="nonzero" xlink:href="#k"/>
                </g>
            </g>
            <path fill="#F2F3F4" fill-rule="nonzero" d="M77.614 290.207V43.447h-.422v246.76z"/>
            <path fill="#FFF" fill-rule="nonzero" d="M385.537 43.447H539.92v246.76H385.537z"/>
            <path fill="#F2F3F4" fill-rule="nonzero" d="M383.428 290.629V43.447h2.109v247.182z"/>
            <g fill="#999" fill-rule="nonzero">
                <path d="M383.85 164.085h1.265v1.265h-1.265zM383.85 166.616h1.265v1.265h-1.265zM383.85 169.147h1.265v1.265h-1.265z"/>
            </g>
            <path fill="#FFF" fill-rule="nonzero" d="M385.537 226.092H539.92v64.116H385.537z"/>
            <g transform="translate(392.286 232.84)">
                <rect width="139.885" height="25.996" x=".5" y=".5" fill-rule="nonzero" stroke="#D6DADB" rx="1.687"/>
                <g transform="translate(9.28 16.029)">
                    <rect width="118.108" height="1" x="2.109" y="1.687" fill="#EAECED" rx=".5"/>
                    <rect width="59.054" height="1" x="2.109" y="1.687" fill="#4BB4B3" fill-rule="nonzero" rx=".5"/>
                    <circle cx="120.217" cy="2.109" r="1.265" fill="#FFAD3A" fill-rule="nonzero"/>
                    <circle cx="61.163" cy="2.109" r="1.265" fill="#FFAD3A" fill-rule="nonzero"/>
                    <circle cx="2.109" cy="2.109" r="1.265" fill="#FFAD3A" fill-rule="nonzero"/>
                    <circle cx="2.109" cy="2.109" r="2.109" fill="#4BB4B3" fill-rule="nonzero"/>
                    <circle cx="61.163" cy="2.109" r="2.109" fill="#4BB4B3" fill-rule="nonzero"/>
                    <circle cx="2.109" cy="2.109" r="2.109" fill="#4BB4B3" fill-rule="nonzero"/>
                </g>
                <text fill="#333" font-family="IBMPlexSans-Bold, IBM Plex Sans" font-size="5.062" font-weight="bold">
                    <tspan x="52.751" y="11.749">Buy succeeded</tspan>
                </text>
            </g>
            <g>
                <g transform="translate(466.103 266.586)">
                    <rect width="40.494" height="16.873" fill="#FF444F" fill-rule="nonzero" rx="1.687"/>
                    <g fill="#FFF" transform="translate(3.375 5.062)">
                        <rect width="2.531" height="6.749" x=".422" rx=".422"/>
                        <rect width="2.531" height="6.749" x="3.796" rx=".422"/>
                    </g>
                    <text fill="#FFF" font-family="IBMPlexSans-Bold, IBM Plex Sans" font-size="5.905" font-weight="bold">
                        <tspan x="13.587" y="10.218">Stop bot</tspan>
                    </text>
                </g>
            </g>
            <g>
                <g transform="translate(418.86 266.586)">
                    <rect width="39.946" height="16.325" x=".274" y=".274" stroke="#999" stroke-width=".548" rx="1.687"/>
                    <text fill="#333" font-family="IBMPlexSans-Bold, IBM Plex Sans" font-size="5.905" font-weight="bold">
                        <tspan x="6.771" y="10.218">Clear stat</tspan>
                    </text>
                </g>
            </g>
            <path fill="#F2F3F4" fill-rule="nonzero" d="M539.92 226.092H385.537v.843H539.92z"/>
            <g fill="#333">
                <path d="M513.346 271.647a3.375 3.375 0 1 1 0 6.75 3.375 3.375 0 0 1 0-6.75zm0 .422a2.953 2.953 0 1 0 0 5.906 2.953 2.953 0 0 0 0-5.906zm0 2.531a.21.21 0 0 1 .211.211v1.687a.21.21 0 1 1-.422 0v-1.687a.21.21 0 0 1 .211-.21zm0-1.054a.316.316 0 1 1 0 .632.316.316 0 0 1 0-.632z"/>
            </g>
            <path fill="#F2F3F4" fill-rule="nonzero" d="M385.537 60.32H539.92v-.423H385.537z"/>
            <g>
                <use fill="#000" filter="url(#l)" transform="translate(385.537 43.447)" xlink:href="#m"/>
                <text fill="#333" font-family="IBMPlexSans-Bold, IBM Plex Sans" font-size="5.905" font-weight="bold" transform="translate(385.537 43.447)">
                    <tspan x="12.399" y="10.218">Summary</tspan>
                </text>
            </g>
            <g>
                <path d="M436.998 43.447h51.461V60.32H437z"/>
                <text fill="#333" font-family="IBMPlexSans, IBM Plex Sans" font-size="5.905" transform="translate(436.998 43.447)">
                    <tspan x="10.146" y="10.218">Transations</tspan>
                </text>
            </g>
            <g>
                <path d="M488.46 43.447h51.46V60.32h-51.46z"/>
                <text fill="#333" font-family="IBMPlexSans, IBM Plex Sans" font-size="5.905" transform="translate(488.46 43.447)">
                    <tspan x="15.753" y="10.218">Journal</tspan>
                </text>
            </g>
            <g>
                <g transform="translate(488.46 177.161)">
                    <rect width="44.712" height="23.622" fill="#EAECED" rx="1.687"/>
                    <text fill="#4BB4B3" font-family="IBMPlexSans-Bold, IBM Plex Sans" font-size="5.062" font-weight="bold">
                        <tspan x="9.632" y="17.654">+$3181.97</tspan>
                    </text>
                    <text fill="#333" font-family="IBMPlexSans-Bold, IBM Plex Sans" font-size="5.062" font-weight="bold">
                        <tspan x="9.366" y="8.375">Profit/Loss</tspan>
                    </text>
                </g>
                <g transform="translate(488.46 150.165)">
                    <rect width="44.712" height="23.622" fill="#EAECED" rx="1.687"/>
                    <text fill="#333" font-family="IBMPlexSans, IBM Plex Sans" font-size="5.062">
                        <tspan x="18.011" y="17.654">182</tspan>
                    </text>
                    <text fill="#333" font-family="IBMPlexSans-Bold, IBM Plex Sans" font-size="5.062" font-weight="bold">
                        <tspan x="9.461" y="8.375">No. of runs</tspan>
                    </text>
                </g>
                <g transform="translate(440.373 177.161)">
                    <rect width="44.712" height="23.622" fill="#EAECED" rx="1.687"/>
                    <text fill="#333" font-family="IBMPlexSans, IBM Plex Sans" font-size="5.062">
                        <tspan x="18.011" y="17.654">101</tspan>
                    </text>
                    <text fill="#333" font-family="IBMPlexSans-Bold, IBM Plex Sans" font-size="5.062" font-weight="bold">
                        <tspan x="6.045" y="8.375">Win contracts</tspan>
                    </text>
                </g>
                <g transform="translate(392.286 177.161)">
                    <rect width="44.712" height="23.622" fill="#EAECED" rx="1.687"/>
                    <text fill="#333" font-family="IBMPlexSans, IBM Plex Sans" font-size="5.062">
                        <tspan x="19.53" y="17.654">81</tspan>
                    </text>
                    <text fill="#333" font-family="IBMPlexSans-Bold, IBM Plex Sans" font-size="5.062" font-weight="bold">
                        <tspan x="5.209" y="8.375">Loss contracts</tspan>
                    </text>
                </g>
                <g transform="translate(440.373 150.165)">
                    <rect width="44.712" height="23.622" fill="#EAECED" rx="1.687"/>
                    <text fill="#333" font-family="IBMPlexSans, IBM Plex Sans" font-size="5.062">
                        <tspan x="11.043" y="17.654">$4235.97</tspan>
                    </text>
                    <text fill="#333" font-family="IBMPlexSans-Bold, IBM Plex Sans" font-size="5.062" font-weight="bold">
                        <tspan x="7.653" y="8.375">Total payout</tspan>
                    </text>
                </g>
                <g transform="translate(392.286 150.165)">
                    <rect width="44.712" height="23.622" fill="#EAECED" rx="1.687"/>
                    <text fill="#333" font-family="IBMPlexSans, IBM Plex Sans" font-size="5.062">
                        <tspan x="14.769" y="17.654">$1054</tspan>
                    </text>
                    <text fill="#333" font-family="IBMPlexSans-Bold, IBM Plex Sans" font-size="5.062" font-weight="bold">
                        <tspan x="9.32" y="8.375">Total stake</tspan>
                    </text>
                </g>
            </g>
            <g transform="translate(392.286 67.068)">
                <mask id="p" fill="#fff">
                    <use xlink:href="#n"/>
                </mask>
                <rect width="139.885" height="71.974" x=".5" y=".5" stroke="#EAECED" rx="1.687"/>
                <path fill="url(#o)" fill-rule="nonzero" d="M-.422 0h141.307v31.636H-.422z" mask="url(#p)"/>
                <g mask="url(#p)">
                    <g transform="translate(3.375 21.934)">
                        <rect width="134.136" height="1" y="13.498" fill="#F2F3F4" fill-rule="nonzero" rx=".5"/>
                        <g transform="translate(3.375)">
                            <rect width="126.981" height="2.531" y="7.593" fill="#E6E9E9" rx="1.265"/>
                            <rect width="74.502" height="2.531" fill="#FFAD3A" fill-rule="nonzero" rx="1.265" transform="translate(0 7.593)"/>
                            <text fill="#333" font-family="IBMPlexSans, IBM Plex Sans" font-size="5.062">
                                <tspan x="0" y="5">05:32:12</tspan>
                            </text>
                        </g>
                        <g fill="#333">
                            <text font-family="IBMPlexSans-Bold, IBM Plex Sans" font-size="5.062" font-weight="bold" transform="translate(78.035 33.323)">
                                <tspan x="0" y="11.749">$1,654.45</tspan>
                            </text>
                            <text font-family="IBMPlexSans, IBM Plex Sans" font-size="4.218" transform="translate(78.035 33.323)">
                                <tspan x="0" y="4">Potential payout:</tspan>
                            </text>
                        </g>
                        <g fill="#333">
                            <text font-family="IBMPlexSans-Bold, IBM Plex Sans" font-size="5.062" font-weight="bold" transform="translate(13.92 33.323)">
                                <tspan x="0" y="11.749">$432.86</tspan>
                            </text>
                            <text font-family="IBMPlexSans, IBM Plex Sans" font-size="4.218" transform="translate(13.92 33.323)">
                                <tspan x="0" y="4">Purchase price:</tspan>
                            </text>
                        </g>
                        <path fill="#4BB4B3" fill-rule="nonzero" d="M107.562 26.152l2.531 3.375h-5.062z"/>
                        <text fill="#333" font-family="IBMPlexSans-Bold, IBM Plex Sans" font-size="5.062" font-weight="bold" transform="translate(78.035 17.294)">
                            <tspan x="0" y="11.749">$1,868.76</tspan>
                        </text>
                        <text fill="#333" font-family="IBMPlexSans, IBM Plex Sans" font-size="4.218" transform="translate(78.035 17.294)">
                            <tspan x="0" y="4">Indicative price:</tspan>
                        </text>
                        <g>
                            <text fill="#4BB4B3" font-family="IBMPlexSans-Bold, IBM Plex Sans" font-size="5.062" font-weight="bold" transform="translate(13.92 17.294)">
                                <tspan x="0" y="11.749">-$872.76</tspan>
                            </text>
                            <path fill="#4BB4B3" fill-rule="nonzero" d="M40.916 26.152l2.53 3.375h-5.061z"/>
                            <text fill="#333" font-family="IBMPlexSans, IBM Plex Sans" font-size="4.218" transform="translate(13.92 17.294)">
                                <tspan x="0" y="4">Potential profit/loss:</tspan>
                            </text>
                        </g>
                    </g>
                </g>
                <g mask="url(#p)">
                    <g fill-rule="nonzero">
                        <path fill="#EF4852" d="M60.108 6.749h-2.636v.005c0 .58.47 1.05 1.05 1.05h.843l-4.53 4.527v1.49l5.273-5.272v.844a1.05 1.05 0 0 0 1.05 1.047h.005V7.804c0-.583-.472-1.055-1.055-1.055z"/>
                        <path fill="#85ACB0" d="M53.472 15.185h-.745v-1.054h1.8l-.746.745-.309.31z"/>
                    </g>
                    <text fill="#333" font-family="IBMPlexSans-Bold, IBM Plex Sans" font-size="5.062" font-weight="bold" transform="translate(48.508 2.53)">
                        <tspan x="18.56" y="9.64">Rise</tspan>
                    </text>
                    <g>
                        <g transform="translate(3.375 6.222)">
                            <path fill="#0D47A1" fill-rule="nonzero" d="M8.78 0H.71A.716.716 0 0 0 0 .722v4.873c0 .399.318.722.71.722h8.07c.393 0 .71-.323.71-.722V.722A.716.716 0 0 0 8.78 0z"/>
                            <path fill="#FFF" fill-rule="nonzero" d="M.164 3.158h.284L1.964 2.15v1.008h.818V2.15l1.516 1.008h.284c.09 0 .163-.074.163-.166V2.86l-1.3-.865h1.3v-.831h-1.3l1.3-.866V.166A.165.165 0 0 0 4.582 0h-.284L2.782 1.009V0h-.818v1.009L.498.033a.715.715 0 0 0-.403.328l1.205.803H0v.83h1.3L0 2.86v.132c0 .092.073.166.164.166zM2.422 4.065l.124.414.396-.16c.033-.014.064.025.043.056l-.241.356.37.215c.031.018.02.067-.016.07l-.425.03.066.427c.005.036-.04.058-.064.031l-.288-.319-.288.319c-.025.027-.07.005-.064-.031l.066-.428-.425-.03c-.036-.002-.047-.051-.016-.07l.37-.214-.241-.356c-.021-.03.01-.07.044-.056l.395.16.124-.414a.037.037 0 0 1 .07 0zm4.868.602l.06.203.194-.078c.016-.007.031.012.021.027l-.118.174.18.105c.016.009.01.032-.007.034l-.207.014.032.21c.002.017-.02.028-.031.014l-.141-.155-.14.155c-.013.014-.035.003-.032-.015l.032-.209-.207-.014c-.018-.002-.024-.025-.008-.034l.18-.105-.117-.174c-.01-.015.004-.034.021-.027l.193.078.06-.203a.018.018 0 0 1 .035 0zm.494-1.643l.012.012.048.148.154.001c.02 0 .028.026.012.038l-.124.092.047.149c.006.019-.016.035-.032.023l-.125-.09-.124.09c-.016.012-.038-.004-.032-.023l.046-.149-.123-.092c-.016-.012-.007-.038.012-.038l.153-.001.049-.148a.02.02 0 0 1 .04 0zm-1.84-.351l.061.202.193-.078c.017-.007.032.012.022.027l-.118.174.18.105c.016.009.01.033-.007.034l-.208.015.032.209c.003.017-.019.028-.03.015l-.141-.156-.141.156c-.012.013-.034.002-.031-.015l.032-.21-.208-.014c-.017-.001-.023-.025-.007-.034l.18-.105-.118-.174c-.01-.015.005-.034.022-.027l.193.078.06-.202a.018.018 0 0 1 .035 0zm2.619-.665l.06.202.194-.078c.016-.007.031.012.021.027l-.118.174.18.105c.016.009.01.033-.007.034l-.208.015.032.209c.003.017-.018.028-.03.015l-.141-.156-.141.156c-.012.013-.034.002-.031-.015l.032-.21-.208-.014c-.017-.001-.023-.025-.007-.034l.18-.105-.118-.174c-.01-.015.005-.034.022-.027l.193.078.06-.202a.018.018 0 0 1 .035 0zM7.29 1.12l.06.202.194-.078c.016-.007.031.012.021.027l-.118.174.18.105c.016.009.01.033-.007.034l-.207.015.032.208c.002.018-.02.029-.031.016l-.141-.156-.14.156c-.013.013-.035.002-.032-.016l.032-.208-.207-.015c-.018-.001-.024-.025-.008-.034l.18-.105-.117-.174c-.01-.015.004-.034.021-.027l.193.078.06-.202a.018.018 0 0 1 .035 0z"/>
                            <path fill="#F44336" fill-rule="nonzero" d="M2.618 0v1.33h2.127v.499H2.618v1.33h-.49v-1.33H0v-.5h2.127V0h.491zM1.96 1.995L.195 3.158H.164a.156.156 0 0 1-.115-.05l-.025-.035 1.635-1.078h.3zm1.251 0l1.533 1.01a.165.165 0 0 1-.093.137L2.91 1.995h.3zM.27.155L1.8 1.164h-.3L.152.275A.72.72 0 0 1 .27.155zM4.583 0c.045 0 .084.02.113.05l.025.033-1.638 1.08h-.3L4.546 0h.036z"/>
                            <rect width="8.991" height="5.827" x=".25" y=".25" stroke="#000" stroke-opacity=".04" stroke-width=".5" rx=".791"/>
                            <rect width="8.991" height="5.827" x=".25" y=".25" stroke="#000" stroke-opacity=".04" stroke-width=".5" rx=".791"/>
                            <g transform="translate(3.164 3.164)">
                                <g fill-rule="nonzero">
                                    <path fill="#FFF" d="M8.78.005H.71A.716.716 0 0 0 0 .727V5.6c0 .399.318.722.71.722h8.07c.393 0 .71-.323.71-.722V.727a.716.716 0 0 0-.71-.722z"/>
                                    <ellipse cx="4.745" cy="3.164" fill="#ED293F" rx="1.8" ry="1.828"/>
                                </g>
                                <rect width="8.991" height="5.827" x=".25" y=".25" stroke="#000" stroke-opacity=".04" stroke-width=".5" rx=".791"/>
                            </g>
                            <rect width="8.991" height="5.827" x="3.414" y="3.414" stroke="#000" stroke-opacity=".04" stroke-width=".5" rx=".791"/>
                        </g>
                        <text fill="#333" font-family="IBMPlexSans-Bold, IBM Plex Sans" font-size="5.062" font-weight="bold" transform="translate(1.265 2.53)">
                            <tspan x="18.56" y="9.64">AUD/JPY</tspan>
                        </text>
                    </g>
                </g>
            </g>
        </g>
    </g>
</svg>
