<svg xmlns="http://www.w3.org/2000/svg" width="32" height="32" viewBox="0 0 32 32" role="img" aria-labelledby="deposit-and-withdrawal">
<title id="deposit-and-withdrawal">Deposit and Withdrawal</title>
    <defs>
        <linearGradient id="depositprefix__a" x1="0%" x2="100%" y1="88.281%" y2="11.719%">
            <stop offset="0%" stop-color="#FF444F"/>
            <stop offset="100%" stop-color="#FF6444"/>
        </linearGradient>
    </defs>
    <g fill="none" fill-rule="evenodd">
        <path d="M0 0H32V32H0z"/>
        <path fill="url(#depositprefix__a)" d="M26.5 5c.245 0 .45.177.492.41L27 5.5v24c0 .245-.177.45-.41.492L26.5 30h-21c-.245 0-.45-.177-.492-.41L5 29.5v-24c0-.276.224-.5.5-.5.245 0 .45.177.492.41L6 5.5 5.999 29h20L26 5.5c0-.245.177-.45.41-.492L26.5 5zM16 11c-2.726 0-5.196-.763-7-2.001v13.527l.171.019c1.906.257 3.499 1.592 4.087 3.415l.012.04h6.459l.016-.051c.494-1.514 1.69-2.71 3.204-3.204L23 22.73V8.999C21.196 10.237 18.725 11 16 11zm15.5-9c.245 0 .45.177.492.41L32 2.5v6c0 .245-.177.45-.41.492L31.5 9h-2c-.276 0-.5-.224-.5-.5 0-.245.177-.45.41-.492L29.5 8l1.5-.001v-5H1v5L2.5 8c.245 0 .45.177.492.41L3 8.5c0 .245-.177.45-.41.492L2.5 9h-2c-.245 0-.45-.177-.492-.41L0 8.5v-6c0-.245.177-.45.41-.492L.5 2h31zM23 6.5c0-.245.177-.45.41-.492L23.5 6c.246 0 .45.177.492.41L24 6.5v16.611c0 .234-.162.436-.39.488-1.494.34-2.672 1.517-3.01 3.012-.046.199-.207.348-.403.382l-.086.007H12.89c-.234 0-.436-.162-.488-.39-.41-1.806-2.023-3.11-3.901-3.11-.245 0-.45-.177-.492-.41L8 23V6.5c0-.276.224-.5.5-.5.245 0 .45.177.492.41L9 6.5l-.001 1.248.218.174C10.857 9.183 13.272 10 16 10c2.85 0 5.36-.892 7-2.251V6.5z"/>
    </g>
</svg>
