<svg xmlns="http://www.w3.org/2000/svg" xmlns:xlink="http://www.w3.org/1999/xlink" viewBox="0 0 147 25">
    <title id='deriv-footer'>Deriv footer</title>
    <defs>
        <linearGradient id="linear-gradient" x1="-388.13" y1="1321.44" x2="-388.13" y2="1320.44"
            gradientTransform="matrix(26.91, 0, 0, -25, 10457.84, 33036)" gradientUnits="userSpaceOnUse">
            <stop offset="0" stop-color="#ff6544" />
            <stop offset="1" stop-color="#ff4449" />
        </linearGradient>
    </defs>
    <g id="Layer_2" data-name="Layer 2">
        <g id="Layer_1-2" data-name="Layer 1">
            <g id="_2--logogram" data-name="2--logogram">
                <g id="logogram">
                    <g id="logo_logogram" data-name="logo/logogram">
                        <path id="Path"
                            d="M5.86,0V0L15.59,12.5,0,25v0H15.74a9.83,9.83,0,0,0,9.61-7.53l1.31-5.57a9.6,9.6,0,0,0-1.9-8.23A9.9,9.9,0,0,0,17.05,0Z"
                            style="fill:url(#linear-gradient)" />
                        <polygon id="Path-2" data-name="Path" points="15.58 12.53 8.74 25 0 25 15.58 12.53"
                            style="fill:#b51a31" />
                    </g>
                </g>
            </g>
            <path id="Combined-Shape-Copy"
                d="M129.57,1l3.15,16.78L141.56,1H147L133.66,25H129.2L124,1ZM48.35,1C55.75,1,60,6.18,58.81,12.93V13A14.71,14.71,0,0,1,44.19,25H35L39.15,1ZM100.2,1c3,0,5.26.86,6.56,2.44a6.57,6.57,0,0,1,1.09,5.48h0l0,.07a9.32,9.32,0,0,1-6.44,7.44h0L105.74,25H99.57L93.82,12.65h4c2.57,0,4.28-1.38,4.64-3.39h0V9.19c.4-2.26-1-3.42-3.54-3.42H93.67L90.28,25H85L89.23,1ZM118,1l-4,24h-5l4-24ZM84,1l-.82,4.7H70.52l-.85,4.87h8.18L77,15.27H68.86l-.88,5H80.82L80,25H62L66.17,1ZM47.77,6H43.61L41,20h4.17a8.53,8.53,0,0,0,8.68-6.93V13C54.63,8.89,52.19,6,47.77,6Z" />
        </g>
    </g>
</svg>