<svg width="72" height="82" viewBox="0 0 72 82" fill="none" xmlns="http://www.w3.org/2000/svg">
<g filter="url(#filter0_d_2619_26188)">
<g clip-path="url(#clip0_2619_26188)">
<rect x="4" y="10" width="64" height="64" fill="#E03640"/>
<path d="M65.3349 12.667L1.3349 22.7686L-10.3984 76.667H53.6016L65.3349 12.667Z" fill="#FF444F"/>
<g filter="url(#filter1_d_2619_26188)">
<path d="M27.5134 31.956C25.4787 31.956 24.004 32.5253 23.0894 33.664C22.1934 34.784 21.7454 36.324 21.7454 38.284C21.7454 39.236 21.8574 40.104 22.0814 40.888C22.3054 41.6533 22.6414 42.316 23.0894 42.876C23.5374 43.436 24.0974 43.8747 24.7694 44.192C25.4414 44.4907 26.2254 44.64 27.1214 44.64C27.6067 44.64 28.0174 44.6307 28.3534 44.612C28.708 44.5933 29.016 44.556 29.2774 44.5V37.752H33.6454V47.356C33.1227 47.5613 32.2827 47.776 31.1254 48C29.968 48.2427 28.54 48.364 26.8414 48.364C25.3854 48.364 24.06 48.14 22.8654 47.692C21.6894 47.244 20.6814 46.5907 19.8414 45.732C19.0014 44.8733 18.348 43.8187 17.8814 42.568C17.4334 41.3173 17.2094 39.8893 17.2094 38.284C17.2094 36.66 17.4614 35.2227 17.9654 33.972C18.4694 32.7213 19.16 31.6667 20.0374 30.808C20.9147 29.9307 21.9414 29.268 23.1174 28.82C24.312 28.372 25.5814 28.148 26.9254 28.148C27.84 28.148 28.6614 28.2133 29.3894 28.344C30.136 28.456 30.7707 28.596 31.2934 28.764C31.8347 28.9133 32.2734 29.072 32.6094 29.24C32.964 29.408 33.216 29.5387 33.3654 29.632L32.1054 33.132C31.508 32.8147 30.8174 32.544 30.0334 32.32C29.268 32.0773 28.428 31.956 27.5134 31.956ZM39.9775 38.284C39.9775 39.236 40.0895 40.0947 40.3135 40.86C40.5562 41.6253 40.8922 42.288 41.3215 42.848C41.7695 43.3893 42.3109 43.8093 42.9455 44.108C43.5802 44.4067 44.3082 44.556 45.1295 44.556C45.9322 44.556 46.6509 44.4067 47.2855 44.108C47.9389 43.8093 48.4802 43.3893 48.9095 42.848C49.3575 42.288 49.6935 41.6253 49.9175 40.86C50.1602 40.0947 50.2815 39.236 50.2815 38.284C50.2815 37.332 50.1602 36.4733 49.9175 35.708C49.6935 34.924 49.3575 34.2613 48.9095 33.72C48.4802 33.16 47.9389 32.7307 47.2855 32.432C46.6509 32.1333 45.9322 31.984 45.1295 31.984C44.3082 31.984 43.5802 32.1427 42.9455 32.46C42.3109 32.7587 41.7695 33.188 41.3215 33.748C40.8922 34.2893 40.5562 34.952 40.3135 35.736C40.0895 36.5013 39.9775 37.3507 39.9775 38.284ZM54.7895 38.284C54.7895 39.9453 54.5375 41.4107 54.0335 42.68C53.5482 43.9307 52.8762 44.9853 52.0175 45.844C51.1589 46.684 50.1322 47.3187 48.9375 47.748C47.7615 48.1773 46.4922 48.392 45.1295 48.392C43.8042 48.392 42.5535 48.1773 41.3775 47.748C40.2015 47.3187 39.1749 46.684 38.2975 45.844C37.4202 44.9853 36.7295 43.9307 36.2255 42.68C35.7215 41.4107 35.4695 39.9453 35.4695 38.284C35.4695 36.6227 35.7309 35.1667 36.2535 33.916C36.7762 32.6467 37.4762 31.5827 38.3535 30.724C39.2495 29.8653 40.2762 29.2213 41.4335 28.792C42.6095 28.3627 43.8415 28.148 45.1295 28.148C46.4549 28.148 47.7055 28.3627 48.8815 28.792C50.0575 29.2213 51.0842 29.8653 51.9615 30.724C52.8389 31.5827 53.5295 32.6467 54.0335 33.916C54.5375 35.1667 54.7895 36.6227 54.7895 38.284Z" fill="white"/>
</g>
<rect width="68" height="20" transform="translate(2 56)" fill="#414652"/>
<path d="M15.1106 67.64C14.6239 67.64 14.2039 67.5733 13.8506 67.44C13.4973 67.3 13.2039 67.11 12.9706 66.87C12.7439 66.6233 12.5739 66.3333 12.4606 66C12.3539 65.66 12.3006 65.2867 12.3006 64.88V60.57H13.8606V64.75C13.8606 65.03 13.8906 65.27 13.9506 65.47C14.0173 65.6633 14.1039 65.8233 14.2106 65.95C14.3239 66.07 14.4573 66.1567 14.6106 66.21C14.7706 66.2633 14.9439 66.29 15.1306 66.29C15.5106 66.29 15.8173 66.1733 16.0506 65.94C16.2906 65.7067 16.4106 65.31 16.4106 64.75V60.57H17.9706V64.88C17.9706 65.2867 17.9139 65.66 17.8006 66C17.6873 66.34 17.5139 66.6333 17.2806 66.88C17.0473 67.12 16.7506 67.3067 16.3906 67.44C16.0306 67.5733 15.6039 67.64 15.1106 67.64ZM24.1009 66.16V67.5H19.4709V60.57H21.0309V66.16H24.1009ZM29.4644 60.57V61.9H27.3744V67.5H25.8144V61.9H23.7244V60.57H29.4644ZM30.467 60.57H32.027V67.5H30.467V60.57ZM35.4711 60.57C35.5911 60.79 35.7277 61.0633 35.8811 61.39C36.0411 61.71 36.2044 62.06 36.3711 62.44C36.5444 62.8133 36.7144 63.1967 36.8811 63.59C37.0477 63.9833 37.2044 64.3533 37.3511 64.7C37.4977 64.3533 37.6544 63.9833 37.8211 63.59C37.9877 63.1967 38.1544 62.8133 38.3211 62.44C38.4944 62.06 38.6577 61.71 38.8111 61.39C38.9711 61.0633 39.1111 60.79 39.2311 60.57H40.6511C40.7177 61.03 40.7777 61.5467 40.8311 62.12C40.8911 62.6867 40.9411 63.28 40.9811 63.9C41.0277 64.5133 41.0677 65.13 41.1011 65.75C41.1411 66.37 41.1744 66.9533 41.2011 67.5H39.6811C39.6611 66.8267 39.6344 66.0933 39.6011 65.3C39.5677 64.5067 39.5177 63.7067 39.4511 62.9C39.3311 63.18 39.1977 63.49 39.0511 63.83C38.9044 64.17 38.7577 64.51 38.6111 64.85C38.4711 65.19 38.3344 65.5167 38.2011 65.83C38.0677 66.1367 37.9544 66.4 37.8611 66.62H36.7711C36.6777 66.4 36.5644 66.1367 36.4311 65.83C36.2977 65.5167 36.1577 65.19 36.0111 64.85C35.8711 64.51 35.7277 64.17 35.5811 63.83C35.4344 63.49 35.3011 63.18 35.1811 62.9C35.1144 63.7067 35.0644 64.5067 35.0311 65.3C34.9977 66.0933 34.9711 66.8267 34.9511 67.5H33.4311C33.4577 66.9533 33.4877 66.37 33.5211 65.75C33.5611 65.13 33.6011 64.5133 33.6411 63.9C33.6877 63.28 33.7377 62.6867 33.7911 62.12C33.8511 61.5467 33.9144 61.03 33.9811 60.57H35.4711ZM47.2457 67.5C47.1723 67.26 47.089 67.0133 46.9957 66.76C46.909 66.5067 46.8223 66.2533 46.7357 66H44.0357C43.949 66.2533 43.859 66.5067 43.7657 66.76C43.679 67.0133 43.599 67.26 43.5257 67.5H41.9057C42.1657 66.7533 42.4123 66.0633 42.6457 65.43C42.879 64.7967 43.1057 64.2 43.3257 63.64C43.5523 63.08 43.7723 62.55 43.9857 62.05C44.2057 61.5433 44.4323 61.05 44.6657 60.57H46.1557C46.3823 61.05 46.6057 61.5433 46.8257 62.05C47.0457 62.55 47.2657 63.08 47.4857 63.64C47.7123 64.2 47.9423 64.7967 48.1757 65.43C48.409 66.0633 48.6557 66.7533 48.9157 67.5H47.2457ZM45.3757 62.14C45.3423 62.24 45.2923 62.3767 45.2257 62.55C45.159 62.7233 45.0823 62.9233 44.9957 63.15C44.909 63.3767 44.8123 63.6267 44.7057 63.9C44.6057 64.1733 44.5023 64.46 44.3957 64.76H46.3657C46.259 64.46 46.1557 64.1733 46.0557 63.9C45.9557 63.6267 45.859 63.3767 45.7657 63.15C45.679 62.9233 45.6023 62.7233 45.5357 62.55C45.469 62.3767 45.4157 62.24 45.3757 62.14ZM54.1324 60.57V61.9H52.0424V67.5H50.4824V61.9H48.3924V60.57H54.1324ZM55.135 67.5V60.57H59.815V61.88H56.695V63.24H59.465V64.52H56.695V66.19H60.045V67.5H55.135Z" fill="white"/>
</g>
</g>
<defs>
<filter id="filter0_d_2619_26188" x="0" y="10" width="72" height="72" filterUnits="userSpaceOnUse" color-interpolation-filters="sRGB">
<feFlood flood-opacity="0" result="BackgroundImageFix"/>
<feColorMatrix in="SourceAlpha" type="matrix" values="0 0 0 0 0 0 0 0 0 0 0 0 0 0 0 0 0 0 127 0" result="hardAlpha"/>
<feOffset dy="4"/>
<feGaussianBlur stdDeviation="2"/>
<feComposite in2="hardAlpha" operator="out"/>
<feColorMatrix type="matrix" values="0 0 0 0 0 0 0 0 0 0 0 0 0 0 0 0 0 0 0.25 0"/>
<feBlend mode="normal" in2="BackgroundImageFix" result="effect1_dropShadow_2619_26188"/>
<feBlend mode="normal" in="SourceGraphic" in2="effect1_dropShadow_2619_26188" result="shape"/>
</filter>
<filter id="filter1_d_2619_26188" x="15.209" y="27.1479" width="41.5801" height="24.2441" filterUnits="userSpaceOnUse" color-interpolation-filters="sRGB">
<feFlood flood-opacity="0" result="BackgroundImageFix"/>
<feColorMatrix in="SourceAlpha" type="matrix" values="0 0 0 0 0 0 0 0 0 0 0 0 0 0 0 0 0 0 127 0" result="hardAlpha"/>
<feOffset dy="1"/>
<feGaussianBlur stdDeviation="1"/>
<feColorMatrix type="matrix" values="0 0 0 0 0.054902 0 0 0 0 0.054902 0 0 0 0 0.054902 0 0 0 0.05 0"/>
<feBlend mode="normal" in2="BackgroundImageFix" result="effect1_dropShadow_2619_26188"/>
<feBlend mode="normal" in="SourceGraphic" in2="effect1_dropShadow_2619_26188" result="shape"/>
</filter>
<clipPath id="clip0_2619_26188">
<rect x="4" y="10" width="64" height="64" rx="12" fill="white"/>
</clipPath>
</defs>
</svg>
