<svg xmlns="http://www.w3.org/2000/svg" width="24" height="24" viewBox="0 0 24 24">
    <g fill="none" fill-rule="evenodd">
        <g>
            <g>
                <g>
                    <g>
                        <path d="M0 0H24V24H0z" transform="translate(-1264 -2486) translate(0 2285) translate(936 164) translate(328 37)"/>
                        <g fill="#333330" transform="translate(-1264 -2486) translate(0 2285) translate(936 164) translate(328 37) translate(0 1)">
                            <path fill-rule="nonzero" d="M7.864 10.607c.355-.213.816-.098 1.03.257.197.33.112.75-.186.98l-.072.05L5.957 13.5l2.679 1.607c.33.198.453.61.298.951l-.04.078c-.199.33-.61.453-.952.298l-.078-.04-3.75-2.25c-.457-.275-.484-.914-.08-1.232l.08-.055 3.75-2.25z"/>
                            <path fill-rule="nonzero" d="M18.364 10.607c.355-.213.816-.098 1.03.257.197.33.112.75-.186.98l-.072.05-2.679 1.606 2.679 1.607c.33.198.453.61.298.951l-.04.078c-.199.33-.61.453-.952.298l-.078-.04-3.75-2.25c-.457-.275-.484-.914-.08-1.232l.08-.055 3.75-2.25z" transform="matrix(-1 0 0 1 33.75 0)"/>
                            <path fill-rule="nonzero" d="M12.038 9.513c.131-.393.556-.605.95-.475.364.122.573.497.496.865l-.022.084-2.25 6.75c-.131.393-.556.605-.95.475-.364-.122-.573-.497-.496-.865l.022-.084 2.25-6.75z"/>
                            <path fill-rule="nonzero" d="M22.5 0c.828 0 1.5.672 1.5 1.5V21c0 .828-.672 1.5-1.5 1.5h-21C.672 22.5 0 21.828 0 21V1.5C0 .672.672 0 1.5 0h21zm0 1.5h-21V21h21V1.5z"/>
                            <circle cx="20.25" cy="3" r="1"/>
                            <circle cx="18" cy="3" r="1"/>
                            <circle cx="15.75" cy="3" r="1"/>
                            <path d="M1.5 4.5H22.5V6H1.5z"/>
                        </g>
                    </g>
                </g>
            </g>
        </g>
    </g>
</svg>
