<svg xmlns="http://www.w3.org/2000/svg" width="64" height="64"><g fill="none" fill-rule="evenodd"><path d="M0 0h64v64H0z"/><path fill="#85ACB0" fill-rule="nonzero" d="M50 48.459V54a1 1 0 01-1 1H16a1 1 0 01-1-1v-5.541a1 1 0 00-2 0V54a3 3 0 003 3h33a3 3 0 003-3v-5.541a1 1 0 00-2 0zM15 34v-7a1 1 0 011-1h33a1 1 0 011 1v7a1 1 0 002 0v-7a3 3 0 00-3-3H16a3 3 0 00-3 3v7a1 1 0 002 0z"/><path fill="#85ACB0" fill-rule="nonzero" d="M44 24.944V16.5c0-5.247-4.03-9.5-9-9.5h-5c-4.97 0-9 4.253-9 9.5v8.444c0 .583.448 1.056 1 1.056s1-.473 1-1.056V16.5c0-4.08 3.134-7.389 7-7.389h5c3.866 0 7 3.308 7 7.389v8.444c0 .583.448 1.056 1 1.056s1-.473 1-1.056zM34 32.44v1.5a1.5 1.5 0 01-1.5 1.5h-1a1.5 1.5 0 01-1.5-1.5v-1.5a2 2 0 114 0z"/><path fill="#0E0E0E" fill-rule="nonzero" d="M4 34h57c1.657 0 3 1.44 3 3.214v8.572C64 47.56 62.657 49 61 49H4c-1.657 0-3-1.44-3-3.214v-8.572C1 35.44 2.343 34 4 34zm0 2c-.552 0-1 .492-1 1.1v8.8c0 .608.448 1.1 1 1.1h57c.552 0 1-.492 1-1.1v-8.8c0-.608-.448-1.1-1-1.1H4z"/><path fill="#FF444F" fill-rule="nonzero" d="M11.105 40.555v-1.16a.395.395 0 01.79 0v1.15l.81-.809a.395.395 0 11.558.56l-.813.81h1.155a.395.395 0 010 .789H12.45l.813.81a.395.395 0 01-.557.559l-.811-.808v1.15a.395.395 0 01-.79 0v-1.16l-.821.818a.395.395 0 11-.557-.56l.812-.81H9.395a.395.395 0 110-.789h1.144l-.812-.81a.395.395 0 01.557-.559l.821.819zm14-.008v-1.152a.395.395 0 01.79 0v1.152l.81-.81a.395.395 0 01.558.558l-.81.81h1.152a.395.395 0 010 .79h-1.152l.81.81a.395.395 0 01-.558.558l-.81-.81v1.152a.395.395 0 01-.79 0v-1.152l-.81.81a.395.395 0 01-.558-.558l.81-.81h-1.152a.395.395 0 010-.79h1.152l-.81-.81a.395.395 0 01.558-.558l.81.81zm13 0v-1.152a.395.395 0 01.79 0v1.152l.81-.81a.395.395 0 01.558.558l-.81.81h1.152a.395.395 0 010 .79h-1.152l.81.81a.395.395 0 01-.558.558l-.81-.81v1.152a.395.395 0 01-.79 0v-1.152l-.81.81a.395.395 0 01-.558-.558l.81-.81h-1.152a.395.395 0 010-.79h1.152l-.81-.81a.395.395 0 01.558-.558l.81.81zm14-.003v-1.15a.395.395 0 01.79 0v1.16l.821-.818a.395.395 0 11.557.56l-.812.81h1.144a.395.395 0 010 .789h-1.144l.812.81a.395.395 0 01-.557.559l-.821-.819v1.16a.395.395 0 01-.79 0v-1.15l-.81.809a.395.395 0 11-.558-.56l.813-.81h-1.155a.395.395 0 010-.789h1.155l-.813-.81a.395.395 0 01.557-.559l.811.808z"/></g></svg>