<svg xmlns="http://www.w3.org/2000/svg" width="64" height="64" viewBox="0 0 64 64">
    <defs>
        <linearGradient id="prefix__a" x1="0%" x2="100%" y1="100%" y2="0%">
            <stop offset="0%" stop-color="#FF444F"/>
            <stop offset="100%" stop-color="#FF6444"/>
        </linearGradient>
    </defs>
    <g fill="none" fill-rule="evenodd">
        <path d="M0 0H64V64H0z"/>
        <path fill="url(#prefix__a)" d="M13 20c.552 0 1 .448 1 1 0 .513-.386.936-.883.993L13 22H2v40h60V22H51c-.552 0-1-.448-1-1 0-.513.386-.936.883-.993L51 20h11.031c1.035 0 1.888.794 1.964 1.808l.005.147v40.09c0 1.034-.806 1.875-1.822 1.95L62.03 64H1.97C.934 64 .08 63.206.005 62.192L0 62.045v-40.09c0-1.034.806-1.875 1.822-1.95L1.97 20H13zm45 7c1.054 0 1.918.816 1.995 1.85L60 29v22c0 1.054-.816 1.918-1.85 1.995L58 53H32.46l-5.7 6.65c-.36.42-.991.469-1.41.11-.388-.333-.459-.896-.185-1.31l.076-.1 5.7-6.652c.342-.399.826-.645 1.345-.69L32.46 51H58V29h-7c-.552 0-1-.448-1-1 0-.513.386-.936.883-.993L51 27h7zm-45 0c.552 0 1 .448 1 1s-.448 1-1 1H6v22h20.543l5.753-5.71c.392-.389 1.025-.386 1.414.006s.386 1.025-.006 1.414l-5.752 5.71c-.375.371-.881.58-1.409.58H6c-1.105 0-2-.895-2-2V29c0-1.105.895-2 2-2h7zM32 0c8.18 0 14.83 6.547 14.997 14.686L47 15c.552 0 1 .448 1 1v20c0 .552-.448 1-1 1H17c-.552 0-1-.448-1-1V16c0-.552.448-1 1-1l.003-.314C17.17 6.546 23.821 0 32 0zm14 17H18v18h28V17zm-14 3c2.21 0 4 1.79 4 4 0 1.866-1.278 3.434-3.007 3.876l.005.061L33 28v4c0 .552-.448 1-1 1-.513 0-.936-.386-.993-.883L31 32v-4c0-.042.003-.084.008-.125C29.278 27.435 28 25.866 28 24c0-2.21 1.79-4 4-4zm0 2c-1.105 0-2 .895-2 2s.895 2 2 2 2-.895 2-2-.895-2-2-2zm0-20c-7.077 0-12.833 5.655-12.996 12.693L19 15h2c0-6.075 4.925-11 11-11 5.979 0 10.843 4.77 10.996 10.712L43 15h2c0-7.18-5.82-13-13-13zm0 4c-4.882 0-8.856 3.887-8.996 8.735L23 15h18c0-4.97-4.03-9-9-9z"/>
    </g>
</svg>
