<svg xmlns="http://www.w3.org/2000/svg" width="64" height="64"><defs><linearGradient id="a" x1="0%" x2="100%" y1="100%" y2="0%"><stop offset="0%" stop-color="#FF444F"/><stop offset="100%" stop-color="#FF6444"/></linearGradient></defs><g fill="none" fill-rule="evenodd"><path d="M0 0h64v64H0z"/><path fill="url(#a)" d="M13 20a1 1 0 01.117 1.993L13 22H2v40h60V22H51a1 1 0 01-.117-1.993L51 20h11.031c1.035 0 1.888.794 1.964 1.808l.005.147v40.09a1.961 1.961 0 01-1.822 1.95L62.03 64H1.97a1.963 1.963 0 01-1.965-1.808L0 62.045v-40.09c0-1.034.806-1.875 1.822-1.95L1.97 20H13zm45 7c1.054 0 1.918.816 1.995 1.85L60 29v22a2.001 2.001 0 01-1.85 1.995L58 53H32.46l-5.7 6.65a1 1 0 01-1.595-1.2l.076-.1 5.7-6.652a1.999 1.999 0 011.345-.69L32.46 51H58V29h-7a1 1 0 01-.117-1.993L51 27h7zm-45 0a1 1 0 010 2H6v22h20.543l5.753-5.71a1 1 0 111.408 1.42l-5.752 5.71c-.375.371-.881.58-1.409.58H6a2 2 0 01-2-2V29a2 2 0 012-2h7zM32 0c8.18 0 14.83 6.547 14.997 14.686L47 15a1 1 0 011 1v20a1 1 0 01-1 1H17a1 1 0 01-1-1V16a1 1 0 011-1l.003-.314C17.17 6.546 23.821 0 32 0zm14 17H18v18h28V17zm-14 3c2.21 0 4 1.79 4 4a4.002 4.002 0 01-3.007 3.876l.005.061L33 28v4a1 1 0 01-1.993.117L31 32v-4c0-.042.003-.084.008-.125A4 4 0 0132 20zm0 2a2 2 0 10-.001 3.999A2 2 0 0032 22zm0-20c-7.077 0-12.833 5.655-12.996 12.693L19 15h2c0-6.075 4.925-11 11-11 5.979 0 10.843 4.77 10.996 10.712L43 15h2c0-7.18-5.82-13-13-13zm0 4a9 9 0 00-8.996 8.735L23 15h18a9 9 0 00-9-9z"/></g></svg>