<svg xmlns="http://www.w3.org/2000/svg" xmlns:xlink="http://www.w3.org/1999/xlink" width="250" height="244"><defs><linearGradient id="b" x1="32.361%" x2="69.142%" y1="32.504%" y2="68.987%"><stop offset="0%" stop-color="#FFF"/><stop offset="100%" stop-color="#FFF"/></linearGradient><path id="a" d="M47.106 0H250v244H0z"/></defs><g fill="none" fill-rule="evenodd"><mask id="c" fill="#fff"><use xlink:href="#a"/></mask><use fill="#85ACB0" xlink:href="#a"/><path fill="url(#b)" fill-opacity=".8" d="M585.163-44.816l-24.05 47.903-82.958 41.307-.11.058-41.536 82.73-82.958 41.308-.112.055-41.532 82.73-82.958 41.31-.111.056-41.535 82.73-82.958 41.307-.109.06-41.534 82.726-82.958 41.31-.112.055-41.534 82.73L-110 647.512v.83l48.544-24.17.112-.058 41.532-82.728 82.958-41.31.111-.057 41.537-82.726 82.956-41.31.111-.055 41.535-82.733 82.958-41.307.111-.055L354 169.102l82.955-41.308.112-.058 41.535-82.73 82.955-41.31.112-.053 24.329-48.46h-.835zm-15.575 0l-18.86 37.563-82.956 41.307-.112.058-41.534 82.728-82.956 41.307-.111.058-41.535 82.73-82.958 41.31-.111.055-41.535 82.728-82.955 41.312-.112.056-41.537 82.728-82.958 41.31-.111.055-41.533 82.728L-110 631.998v.832l38.161-19.002.112-.055 41.532-82.73 82.96-41.31.11-.054 41.534-82.73 82.958-41.31.109-.055 41.537-82.728 82.955-41.31.112-.057 41.537-82.73 82.955-41.308.11-.055 41.534-82.73 82.958-41.308.112-.055 19.137-38.12h-.835zm-15.577 0l-13.664 27.222-82.96 41.307-.112.056-41.53 82.73-82.96 41.31-.112.055-41.534 82.73-82.956 41.308-.111.058-41.535 82.727-82.958 41.31-.111.056-41.533 82.732-82.957 41.307-.112.054-41.535 82.73L-110 616.487v.832l27.776-13.832.111-.055 41.537-82.73 82.956-41.31.111-.053 41.535-82.73 82.958-41.31.109-.058 41.535-82.728 82.957-41.31.11-.053 41.537-82.73 82.952-41.31.112-.055 41.537-82.73 82.96-41.308.11-.058 13.943-27.775h-.835zm-15.574 0l-8.473 16.881-82.958 41.307-.112.056-41.537 82.73-82.958 41.31-.109.055-41.534 82.728-82.958 41.312-.112.053-41.532 82.73-82.958 41.308-.111.058-41.535 82.73-82.955 41.31-.112.055-41.537 82.728-16.946 8.441v.831l17.395-8.66.11-.058 41.534-82.728 82.958-41.31.109-.055 41.537-82.73 82.955-41.308.112-.055 41.534-82.73 82.958-41.31.112-.056 41.532-82.728 82.96-41.31.11-.057 41.534-82.73 82.958-41.308.111-.055 8.755-17.435h-.837zm-15.577 0l-3.282 6.538-82.958 41.31-.111.055-41.535 82.73-82.955 41.308-.112.058-41.537 82.728-82.955 41.31-.11.055-41.537 82.73-82.955 41.31-.111.055L21.164 458.1l-82.955 41.31-.111.055-41.535 82.728-6.563 3.27v.832l7.121-3.546 41.535-82.73 82.957-41.31.11-.053 41.534-82.728 82.958-41.31.112-.057 41.534-82.728 82.956-41.31.111-.058 41.537-82.728 82.956-41.31.111-.052 41.535-82.73 82.958-41.31.111-.056 3.56-7.094h-.836zm-21.3 0L426.234-7.31l-.11.056-41.532 82.73-82.96 41.31-.109.053-41.537 82.73-82.955 41.307-.112.058-41.535 82.728-82.957 41.31-.112.055-41.532 82.733-82.958 41.307-.112.056L-110 564.242v1.668l38.273-76.23 82.955-41.308.112-.06 41.534-82.728 82.958-41.31.112-.055 41.532-82.73 82.958-41.308.111-.055 41.535-82.73 82.958-41.31.111-.056 41.535-82.727 76.545-38.12h-1.67zm-31.152 0l-54.554 27.164-.109.058-41.537 82.728-82.958 41.31-.111.055-41.533 82.73-82.957 41.31-.112.055-41.535 82.728-82.957 41.307-.11.058-41.537 82.73-82.955 41.31-.112.058L-110 533.22v1.666l27.887-55.547 82.958-41.31.11-.058 41.536-82.73 82.956-41.307.111-.056 41.535-82.728 82.96-41.312.112-.055 41.53-82.728 82.96-41.31.111-.058 41.53-82.728 55.787-27.775h-1.675zm-31.154 0L405.469-27.99l-.112.055-41.532 82.728L280.867 96.1l-.111.058-41.533 82.728-82.957 41.312-.112.053-41.537 82.73-82.955 41.31-.112.056-41.535 82.728-82.957 41.31-.112.057L-110 502.196v1.667l17.504-34.867 82.958-41.31.111-.055 41.533-82.728 82.957-41.31.112-.058 41.535-82.728 82.957-41.31.112-.055 41.535-82.73 82.955-41.307.112-.056 41.534-82.73 35.016-17.435h-1.677zm-31.15 0l-13.018 6.483-.112.055-41.535 82.73-82.955 41.31-.111.056-41.535 82.727-82.958 41.31-.112.056-41.532 82.727-82.96 41.31-.112.058-41.532 82.728-82.958 41.31-.111.055-6.563 13.072v1.668l7.121-14.184 82.955-41.31.112-.053 41.535-82.732 82.96-41.31.111-.056 41.533-82.73 82.957-41.307.112-.056 41.532-82.727 82.96-41.31.112-.058 41.532-82.728 14.245-7.094h-1.672zm-25.42 0l-39.625 78.928-82.96 41.31-.112.055-41.532 82.728-82.958 41.31-.112.055-41.532 82.73-82.958 41.307-.111.056-41.537 82.733-79.247 39.46v.834l79.693-39.685.112-.056 41.535-82.73 82.957-41.31.112-.053 41.535-82.73 82.957-41.31.112-.058 41.532-82.728 82.96-41.31.112-.055 39.901-79.481h-.835zm-15.578 0l-34.433 68.585-82.955 41.31-.112.055-41.534 82.73-82.958 41.307-.112.058-41.534 82.73L.51 313.27l-.112.053-41.532 82.73L-110 430.346v.834l69.313-34.517.111-.053 41.53-82.73 82.96-41.308.112-.058 41.532-82.73 82.958-41.31.112-.053 41.537-82.733L333.12 24.38l.112-.055 34.712-69.141h-.838zm-15.574 0L322.29 13.428l-82.955 41.31-.112.055-41.537 82.73-82.958 41.31-.111.053-41.532 82.73-82.958 41.308-.112.058-41.532 82.73-58.483 29.12v.834l58.927-29.345.112-.056 41.534-82.73 82.958-41.307.112-.056 41.532-82.73 82.958-41.31.111-.053 41.538-82.73 82.952-41.31.112-.057 29.52-58.798h-.834zm-15.575 0l-24.05 47.903-82.958 41.307-.111.058-41.532 82.73-82.96 41.308-.11.055-41.534 82.73-82.958 41.31-.112.056-41.534 82.73-48.098 23.95v.834l48.544-24.172.112-.056 41.532-82.733 82.958-41.307.111-.055 41.537-82.73 82.956-41.308.111-.058 41.535-82.73 82.958-41.31.111-.053 24.327-48.46h-.835zm-15.577 0L301.524-7.253l-82.958 41.307-.111.058-41.535 82.728-82.955 41.307-.112.058-41.537 82.73-82.958 41.31-.111.055-41.533 82.728L-110 383.81v.833l38.161-19.003.112-.056 41.532-82.728 82.96-41.31.11-.057 41.534-82.73 82.958-41.308.109-.055 41.537-82.73 82.955-41.308.112-.055 19.137-38.12h-.837zm-15.574 0l-13.667 27.222-82.956 41.307-.111.056-41.535 82.73-82.958 41.31-.111.055-41.533 82.73-82.957 41.308-.112.058-41.535 82.727-27.331 13.61v.835l27.776-13.833.111-.058 41.537-82.728 82.956-41.31.111-.053 41.535-82.73 82.958-41.31.109-.055 41.535-82.73 82.957-41.308.11-.058 13.948-27.775h-.837zm-15.577 0l-8.473 16.881-82.958 41.307-.112.056-41.532 82.73-82.958 41.31-.111.055-41.535 82.728-82.955 41.312-.112.053-41.537 82.73-16.946 8.44v.833l17.395-8.66.11-.056 41.534-82.73 82.958-41.31.109-.056 41.537-82.728 82.955-41.31.112-.057 41.534-82.73 82.958-41.308.112-.055 8.752-17.435h-.837zm-15.575 0l-3.281 6.538-82.958 41.31-.11.055-41.537 82.73-82.955 41.308-.111.058-41.538 82.728-82.955 41.31-.111.055-41.535 82.73-6.563 3.268v.834l7.121-3.548 41.535-82.728 82.957-41.31.11-.058 41.534-82.728 82.958-41.31.112-.052 41.534-82.73 82.956-41.31.111-.056 3.563-7.094h-.837zm-21.303 0L177.031-7.31l-.11.056-41.536 82.73-82.957 41.31-.112.053-41.532 82.73-82.958 41.307-.112.058L-110 316.056v1.666l38.273-76.233 82.955-41.308.112-.055 41.534-82.73 82.958-41.31.112-.056 41.532-82.727 76.548-38.12h-1.673zm-31.149 0L166.65-17.652l-.112.058-41.535 82.728-82.957 41.31-.11.055-41.537 82.73-82.955 41.31-.112.055L-110 285.032v1.665l27.887-55.547L.845 189.838l.11-.055 41.536-82.728 82.956-41.31.111-.058 41.535-82.728 55.781-27.775h-1.672zm-31.151 0L156.266-27.99l-.112.055-41.537 82.728L31.662 96.1l-.112.058-41.535 82.728-82.957 41.312-.112.053L-110 254.01v1.665l17.504-34.868 82.958-41.31.111-.055 41.533-82.73 82.957-41.307.112-.056 41.535-82.73 35.013-17.435h-1.672zm-31.15 0l-13.02 6.483-.113.055-41.532 82.73-82.96 41.31-.112.056-41.532 82.727-82.958 41.31-.111.056-6.563 13.074v1.666l7.121-14.187 82.955-41.307.112-.056 41.535-82.727 82.96-41.31.111-.058 41.533-82.728 14.244-7.094h-1.67zm-25.423 0L93.853 34.112l-82.958 41.31-.111.055-41.537 82.728L-110 197.668v.831l79.693-39.683.112-.058L11.34 76.03l82.957-41.31.112-.055 39.904-79.481h-.835zm-15.577 0L83.468 23.769.51 65.079l-.112.055-41.532 82.73L-110 182.157v.831l69.313-34.515.111-.053L.954 65.687l82.96-41.307.112-.055 34.71-69.141h-.835zm-15.575 0L73.085 13.428l-82.958 41.31-.112.055-41.532 82.73L-110 166.646v.831l58.927-29.344.112-.054 41.534-82.73 82.958-41.31.112-.057 29.52-58.798h-.837zm-15.577 0L62.702 3.087l-82.958 41.307-.112.058-41.534 82.73-48.098 23.95v.832l48.544-24.17.112-.058 41.532-82.73 82.958-41.31.111-.053 24.33-48.46h-.838zm-15.575 0L52.316-7.253l-82.958 41.307-.111.058-41.533 82.728L-110 135.62v.832l38.161-19.002.112-.055 41.532-82.73 82.96-41.308.11-.055 19.137-38.12h-.838zm-15.574 0L41.935-17.594l-82.957 41.307-.112.056-41.535 82.73L-110 120.11v.834l27.776-13.834.111-.055 41.537-82.73L42.38-16.983l.111-.058 13.946-27.775H55.6zm-15.575 0L31.55-27.935l-82.955 41.307-.112.056-41.537 82.73-16.946 8.439v.834l17.395-8.661.11-.058 41.534-82.73 82.958-41.308.109-.055 8.757-17.435h-.838zm-15.574 0l-3.287 6.538-82.955 41.31-.111.055-41.535 82.73-6.563 3.269v.834l7.121-3.546 41.535-82.73 82.957-41.31.11-.056 3.563-7.094h-.835zm-21.308 0L-72.174-7.31l-.112.056L-110 67.865v1.668l38.273-76.23L4.82-44.817H3.143zm-31.149 0l-54.551 27.164-.112.058L-110 36.843v1.666l27.887-55.55 55.78-27.775h-1.673zm-31.149 0L-92.942-27.99l-.112.055L-110 5.82v1.665l17.504-34.865 35.013-17.435h-1.672zm-31.152 0l-13.019 6.483-.111.055L-110-25.206v1.668l7.121-14.184 14.247-7.094h-1.675zm661.803 58.244l-82.958 41.31-.111.055-41.533 82.73-82.96 41.31-.11.053-41.534 82.73-82.955 41.308-.112.058-41.537 82.73-82.958 41.307-.111.056-41.532 82.732-82.958 41.307-.112.056-41.532 82.73-35.006 17.43h1.675l33.775-16.818.112-.056 41.534-82.73 82.958-41.31.112-.055 41.532-82.73 82.958-41.31.111-.056 41.535-82.73 82.955-41.307.112-.056 41.535-82.73 82.957-41.31.112-.053 41.535-82.73 82.957-41.31.112-.057L589-19.77v-1.665l-17.504 34.863zm10.383 10.34l-82.955 41.31-.112.056-41.537 82.73-82.955 41.307-.112.058-41.535 82.73-82.955 41.31-.112.053-41.534 82.73-82.958 41.31-.112.056-41.534 82.728L.51 561.456l-.112.057-41.532 82.728-14.237 7.09h1.672l13.012-6.478.111-.058 41.53-82.728 82.96-41.31.112-.055 41.532-82.73 82.958-41.31.112-.053 41.537-82.73 82.955-41.308.112-.058 41.534-82.73 82.955-41.31.112-.053 41.535-82.733 82.958-41.307.111-.055L589 11.255V9.587l-7.121 14.182zm-72.572 51.653l-.112.056-41.535 82.728-82.955 41.31-.112.055-41.534 82.728-82.96 41.31-.112.055-41.532 82.733-82.958 41.304-.112.06-41.532 82.729-82.958 41.31-.111.052-39.904 79.48h.837l39.623-78.924L94.297 531.1l.112-.058 41.535-82.73 82.957-41.307.112-.056 41.532-82.73 82.96-41.31.112-.053 41.532-82.73 82.958-41.31.11-.058 41.536-82.728L589 36.568v-.834L509.307 75.42zm10.383 10.341l-.112.056-41.532 82.727-82.96 41.31-.112.056-41.535 82.73-82.955 41.307-.111.058-41.535 82.728-82.958 41.31-.112.055-41.532 82.73-82.96 41.31-.112.053-34.71 69.139h.838l34.43-68.583 82.96-41.307.112-.056 41.533-82.73 82.957-41.31.112-.053 41.532-82.732 82.96-41.31.112-.056 41.535-82.73 82.955-41.307.112-.056 41.534-82.727L589 52.08v-.834l-69.31 34.515zM530.075 96.1l-.111.058-41.54 82.728-82.955 41.312-.112.053-41.532 82.73-82.958 41.31-.111.056-41.533 82.725-82.957 41.312-.112.058-41.537 82.728-82.955 41.31-.112.055-29.518 58.796h.837l29.237-58.242 82.957-41.307.112-.056 41.535-82.73 82.957-41.31.112-.055 41.535-82.726 82.955-41.312.112-.058 41.534-82.728 82.958-41.31.112-.055 41.534-82.73L589 67.592v-.834L530.075 96.1zm10.38 10.343l-.108.056-41.535 82.73-82.958 41.31-.109.055-41.537 82.728-82.958 41.307-.111.058-41.533 82.73-82.957 41.31-.112.058-41.535 82.728-82.957 41.31-.11.053-24.329 48.455h.84l24.045-47.9 82.956-41.306.111-.058 41.535-82.728 82.96-41.31.112-.058 41.53-82.73 82.96-41.307.111-.056 41.53-82.728 82.96-41.312.112-.055 41.534-82.728L589 83.103v-.834l-48.544 24.174zm10.384 10.343l-.112.054-41.532 82.728-82.96 41.31-.11.057-41.532 82.728-82.96 41.31-.109.055-41.537 82.728-82.955 41.312-.112.056-41.535 82.727-82.957 41.31-.112.056-19.133 38.114h.838l18.856-37.558 82.955-41.31.112-.056 41.534-82.728 82.956-41.307.111-.06 41.535-82.728 82.958-41.31.111-.055 41.533-82.73 82.96-41.308.111-.055 41.533-82.73L589 98.616v-.833l-38.161 19.003zm10.385 10.339l-.111.058-41.535 82.728-82.958 41.31-.111.055-41.535 82.73-82.955 41.31-.112.055-41.534 82.728-82.958 41.31-.11.055-41.537 82.728-82.955 41.31-.111.058-13.946 27.77h.84l13.661-27.217 82.958-41.31.112-.055 41.534-82.73 82.956-41.31.111-.053 41.537-82.728 82.956-41.31.111-.057 41.535-82.728 82.958-41.31.111-.058 41.535-82.728L589 114.128v-.834l-27.776 13.83zm10.384 10.343l-.112.055-41.535 82.728-82.955 41.312-.112.053-41.537 82.73-82.958 41.308-.109.058-41.534 82.73-82.958 41.31-.112.055-41.532 82.728-82.958 41.31-.111.055-8.752 17.43h.84l8.47-16.874 82.955-41.31.112-.057 41.534-82.728 82.958-41.31.112-.055 41.532-82.73 82.96-41.308.11-.055 41.534-82.728 82.958-41.312.111-.056 41.535-82.728L589 129.64v-.834l-17.392 8.663zm10.383 10.34l-.112.056-41.532 82.73-82.96 41.308-.112.058-41.53 82.727-82.96 41.31-.112.056-41.537 82.732-82.953 41.307-.111.054-41.535 82.73-82.958 41.31-.111.055-3.558 7.09h.837l3.279-6.536 82.958-41.308.109-.055 41.535-82.73 82.957-41.31.11-.053 41.537-82.73 82.952-41.31.112-.058 41.537-82.728 82.96-41.31.11-.053 41.534-82.73 6.563-3.268v-.834l-7.01 3.49zm-31.264 93.127l-82.955 41.31-.112.055-41.534 82.728-82.956 41.312-.111.056-41.535 82.728-82.958 41.31-.111.055-41.535 82.728-76.538 38.114h1.672l75.313-37.503.109-.055 41.537-82.728 82.955-41.312.112-.054 41.537-82.73 82.955-41.31.11-.055 41.534-82.728 82.958-41.31.112-.057L589 166.37v-1.665l-38.273 76.23zm10.386 10.34l-82.958 41.31-.11.056-41.536 82.73-82.958 41.307-.112.06-41.532 82.726-82.958 41.31-.111.055-41.532 82.73-55.775 27.772h1.672l54.547-27.16.111-.058 41.535-82.728 82.958-41.31.111-.057L354 417.292l82.955-41.31.112-.055 41.535-82.733 82.955-41.307.112-.055L589 197.394v-1.665l-27.887 55.547zm10.383 10.341l-82.958 41.308-.111.058-41.533 82.73-82.96 41.307-.11.056-41.534 82.732-82.955 41.307-.112.056-41.537 82.73-35.003 17.43h1.672l33.778-16.818.111-.056 41.535-82.73 82.955-41.31.112-.055 41.535-82.73 82.957-41.31.112-.056 41.535-82.73 82.957-41.307.112-.056L589 228.417v-1.664l-17.504 34.863zm10.383 10.344l-82.955 41.31-.112.052-41.537 82.73-82.955 41.31-.112.056-41.535 82.728-82.955 41.31-.112.057-41.534 82.728-14.235 7.09h1.67l13.009-6.478.112-.058 41.537-82.728 82.955-41.31.112-.055 41.534-82.73 82.955-41.31.112-.053 41.535-82.73 82.958-41.308.111-.058L589 259.441v-1.663l-7.121 14.182zm-72.572 51.647l-.112.056-41.535 82.733-82.955 41.304-.112.06-41.534 82.729-82.96 41.31-.112.052-39.899 79.48h.835l39.622-78.924 82.96-41.307.112-.058 41.532-82.73 82.958-41.307.11-.056 41.536-82.73L589 284.756v-.831l-79.693 39.682zm10.383 10.341l-.112.058-41.532 82.733-82.96 41.304-.112.056-41.535 82.73-82.955 41.31-.111.053-34.71 69.139h.835l34.43-68.583 82.96-41.307.112-.056 41.532-82.73 82.958-41.31.112-.053 41.534-82.732L589 300.27v-.832l-69.31 34.51zm10.385 10.343l-.111.056-41.537 82.728-82.958 41.31-.112.057-41.532 82.728-82.958 41.31-.111.055-29.519 58.796h.835l29.242-58.242 82.955-41.307.112-.056 41.534-82.73 82.958-41.31.112-.055 41.534-82.728L589 315.78v-.832l-58.925 29.342zm10.38 10.338l-.108.058-41.535 82.73-82.958 41.31-.109.058-41.537 82.728-82.958 41.31-.111.053-24.327 48.455h.837l24.045-47.9 82.96-41.306.112-.058 41.53-82.728 82.96-41.31.112-.058 41.534-82.73L589 331.29v-.83l-48.544 24.168zm10.384 10.344l-.112.055-41.532 82.733-82.96 41.307-.11.056-41.532 82.727-82.96 41.31-.109.056-19.135 38.114h.835l18.856-37.558 82.958-41.31.111-.056 41.533-82.728 82.96-41.307.111-.06 41.533-82.728L589 346.803v-.832l-38.161 19.002zm10.385 10.343l-.111.055-41.535 82.728-82.958 41.31-.111.055-41.535 82.728-82.955 41.31-.112.058-13.943 27.77h.834l13.667-27.217 82.956-41.31.111-.055 41.535-82.73 82.958-41.31.111-.053 41.533-82.728L589 362.316v-.831l-27.776 13.83zm10.384 10.338l-.112.058-41.532 82.73-82.958 41.31-.112.055-41.537 82.728-82.958 41.31-.109.055-8.752 17.43h.835l8.473-16.874 82.96-41.31.11-.057 41.534-82.728 82.958-41.31.111-.055 41.535-82.73 16.946-8.44v-.834l-17.392 8.66zm10.383 10.343l-.112.056-41.532 82.732-82.96 41.307-.112.054-41.53 82.73-82.96 41.31-.112.055-3.558 7.09h.835l3.282-6.536 82.952-41.308.112-.055 41.537-82.73 82.96-41.31.11-.053 41.534-82.73 6.563-3.27v-.832l-7.01 3.49zm-31.264 93.127l-82.955 41.31-.112.055-41.534 82.728-76.538 38.114h1.674l75.31-37.503.11-.055 41.534-82.73 82.958-41.31.112-.054L589 414.561v-1.668l-38.273 76.23zm10.386 10.34l-82.958 41.31-.11.055-41.536 82.73-55.772 27.772h1.675l54.543-27.16.112-.058 41.535-82.728 82.955-41.31.112-.057L589 445.585v-1.668l-27.887 55.547zm10.383 10.343l-82.958 41.307-.111.056-41.533 82.73-35.006 17.43h1.673l33.777-16.818.112-.056 41.535-82.73 82.957-41.31.112-.055L589 476.607v-1.667l-17.504 34.867zm10.383 10.339l-82.955 41.31-.112.057-41.537 82.728-14.235 7.09h1.672l13.01-6.478.111-.058 41.535-82.728 82.958-41.31.111-.055L589 507.629v-1.665l-7.121 14.182zm-72.572 51.652l-.112.053-39.901 79.48h.837l39.622-78.924L589 532.95v-.834l-79.693 39.683zm10.383 10.34l-.112.054-34.71 69.139h.838l34.43-68.583L589 548.46v-.834l-69.31 34.513zm10.385 10.342l-.111.055-29.521 58.796h.837l29.24-58.242L589 563.97v-.834l-58.925 29.343zm10.38 10.343l-.108.053-24.327 48.455h.837l24.045-47.9L589 579.483v-.831l-48.544 24.172zm10.384 10.338l-.112.056-19.132 38.114h.837l18.854-37.558L589 594.996v-.834l-38.161 18.999zm10.385 10.34l-.111.059-13.944 27.77h.84l13.66-27.217L589 610.507v-.834l-27.776 13.829zm10.384 10.344l-.112.055-8.75 17.43h.838l8.47-16.874L589 626.018v-.834l-17.392 8.66zm10.383 10.34l-.112.056-3.558 7.09h.837l3.28-6.536 6.562-3.266v-.832l-7.01 3.488z" mask="url(#c)" opacity=".217"/></g></svg>