<svg xmlns="http://www.w3.org/2000/svg" width="64" height="64"><defs><linearGradient id="a" x1="0%" y1="100%" y2="0%"><stop offset="0%" stop-color="#FF444F"/><stop offset="100%" stop-color="#FF6444"/></linearGradient><linearGradient id="b" x1="50%" x2="50%" y1="0%" y2="100%"><stop offset="0%" stop-color="#FF444F"/><stop offset="40.818%" stop-color="#FF4B4C"/><stop offset="99.947%" stop-color="#FF6444"/></linearGradient><linearGradient id="c" x1="50%" x2="50%" y1="0%" y2="100%"><stop offset="0%" stop-color="#FF6444"/><stop offset="100%" stop-color="#FF444F"/></linearGradient></defs><g fill="none" fill-rule="evenodd"><path d="M0 0h64v64H0z"/><path fill="url(#a)" d="M42.764 27a2 2 0 01.725.136l.17.075L53.236 32H62a2 2 0 011.995 1.85L64 34v18a2 2 0 01-1.85 1.995L62 54h-4a1 1 0 01-.116-1.993L58 52h4V34h-8.764a2 2 0 01-.724-.136l-.17-.075L42.764 29l-8.32.002c-2.234 2.49-4.01 4.528-5.328 6.11l-.227.275-.401.489-.368.456c-.618.774-1.075 1.388-1.366 1.833l-.091.142-.009.014a8.62 8.62 0 001.777.98c1.305.518 2.51.564 3.539.026 1.425-.747 2.678-2.005 3.757-3.797a2 2 0 013.38-.074c.984 1.485 2.007 2.548 3.057 3.198.935.58 1.62.746 3.048.83l.296.016.502.028c.766.05 1.208.122 1.749.302 1.68.56 7.662 7.62 9.17 10.05.985 1.587.354 2.879-1.26 4.031-1.755 1.255-2.88 1.561-4.709.647a2.957 2.957 0 01-.318-.188c-.247.574-.526 1.037-.845 1.393-.762.852-2.14 1.325-3.341 1.269l-.263-.022c-.344 1.258-.875 2.158-1.64 2.685-1.238.852-3.736.607-5.175-.006a1.05 1.05 0 01-.182-.107c-.277.672-.623 1.206-1.051 1.6-.966.887-4.113.897-5.683.378C31.672 62.827 30.158 64 29 64a3.02 3.02 0 01-3-3c0-.466.19-.99.5-1.5-.511.31-1.034.5-1.5.5a3.02 3.02 0 01-3-3c0-.102.01-.208.027-.315-.372.2-.723.315-1.027.315-1.732 0-3.5-1.74-3.5-3.5 0-.193.04-.41.112-.643a2.21 2.21 0 01-.75.114c-2-.07-2.952-1.461-2.894-3.102.057-1.642 2.173-4.928 4.172-4.858 1.998.07 3.45 1.48 3.393 3.12a1.816 1.816 0 01-.013.159c.355-.184.69-.29.98-.29 1.732 0 3.5 1.74 3.5 3.5 0 .432-.197.985-.52 1.571.178-.047.353-.071.52-.071 1.642 0 3 1.358 3 3 0 .466-.19.99-.5 1.5.511-.31 1.034-.5 1.5-.5 1.513 0 2.784 1.152 2.975 2.617l.077.034c.82.306 3.42.352 3.739.058.31-.285.595-.848.818-1.693l-.453-.512c-.96-1.094-2.238-2.622-3.895-4.648l-.567-.695-1.604-1.974a1 1 0 011.555-1.259l2.59 3.176c2.937 3.568 4.767 5.676 4.928 5.745.868.37 2.74.554 3.256.198.404-.278.762-1.01.994-2.219l-.31-.281c-.965-.892-2.248-2.213-3.935-4.034l-1.501-1.635-1.737-1.916a1 1 0 111.485-1.34l1.497 1.652a200.375 200.375 0 003.643 3.905l.483.498.634.641.426.42c.338.329.63.602.876.82l.251.215.19.151.15.108.05.004c.571.008 1.25-.21 1.603-.52l.088-.086c.247-.276.5-.769.734-1.47-1.111-1.132-2.568-2.827-4.403-5.114l-.309-.387-1.078-1.362-1.129-1.45a1 1 0 011.581-1.224c4.393 5.673 7.224 8.882 8.152 9.346 1.004.502 1.436.384 2.653-.485.866-.619 1.003-.899.723-1.35-1.244-2.004-7.05-8.856-8.104-9.207a3.515 3.515 0 00-.736-.158l-.186-.02-.378-.028-.75-.041c-1.73-.104-2.687-.333-3.965-1.126-1.224-.758-2.363-1.905-3.427-3.433l-.244-.36-.224.363c-1.213 1.904-2.651 3.301-4.318 4.174-2.813 1.474-6.275.099-8.11-1.736-.899-.9.114-2.56 4.608-7.694l.253-.289 1.324-1.497.789-.882H18.259l-8.547 4.748a2 2 0 01-.768.242l-.203.01h-7.74a1 1 0 01-.117-1.993L1 32h7.741l8.547-4.748a2 2 0 01.768-.242l.203-.01h24.505zM30 59c-.537 0-2 1.462-2 2s.463 1 1 1c.538 0 2-1.462 2-2s-.462-1-1-1zm-4-4c-.537 0-2 1.462-2 2s.463 1 1 1c.538 0 2-1.462 2-2s-.462-1-1-1zm-3.5-5c-.535 0-3 2.755-3 3.5 0 .643.861 1.5 1.5 1.5.535 0 3-2.755 3-3.5 0-.643-.861-1.5-1.5-1.5zM1.97 44.214l.022.115.007.19L2 51h9a1 1 0 01.117 1.993L11 53H1.5c-.697 0-1.41-.7-1.492-1.374L0 51.5l.002-6.946.006.034L0 44.472a1 1 0 011.97-.258zm16.1 2.796c-.135-.005-.64.336-1.161 1.01-.551.714-.93 1.572-.943 1.918-.024.708.233 1.01.965 1.035.652.022 2.575-2.117 2.603-2.911.017-.497-.542-1.02-1.464-1.052zM43.786 0C45.009 0 46 .889 46 1.985v17.867c0 1.096-.991 1.985-2.214 1.985H29.892l-2.51 2.543c-.749.76-2.043.831-2.89.16-.451-.358-.704-.876-.69-1.416l.03-1.287h-6.618c-1.223 0-2.214-.889-2.214-1.985V1.985C15 .89 15.991 0 17.214 0h26.572zM44 2H17v18.06h6.774c1.243.025 2.228.943 2.2 2.05l-.021.89 2.244-2.262a2.377 2.377 0 011.685-.678H44V2z"/><path fill="url(#b)" fill-rule="nonzero" d="M25.28 10.79l-.025-.027a.997.997 0 01-.255-.674c.003-2.514 1.679-4.35 4.063-4.892V4a1 1 0 112 0v1.05c2.796.2 4.572 2.135 4.572 5.045a1 1 0 11-2 0c0-1.972-1.09-3.063-3.063-3.063-1.848 0-3.188.933-3.502 2.388l7.26 2.636a.996.996 0 01.218.107l.078.057a1.01 1.01 0 01.057.049l.024.024.013.013A.997.997 0 0135 13c0 3.033-1.273 4.85-3.937 5.046v.176a1 1 0 11-2 0v-.324C26.676 17.356 25 15.518 25 13a1 1 0 012 0c0 1.835 1.451 3.063 3.572 3.063 1.567 0 2.265-.676 2.403-2.37l-7.316-2.658a1 1 0 01-.268-.147l-.02-.015a.885.885 0 01-.057-.05l-.02-.02-.014-.013z"/><g transform="translate(36 9)"><circle cx="8.5" cy="8.5" r="7.5" fill="#FFF"/><path fill="url(#c)" fill-rule="nonzero" d="M8.5 0a8.5 8.5 0 110 17 8.5 8.5 0 010-17zm0 2a6.5 6.5 0 100 13 6.5 6.5 0 000-13z"/><path fill="url(#c)" fill-rule="nonzero" d="M11.128 6.189a.945.945 0 00-1.336 0L8.778 7.202 7.764 6.189A.944.944 0 106.43 7.524l1.014 1.014L6.43 9.552a.945.945 0 001.335 1.336l1.014-1.014 1.014 1.014a.946.946 0 001.336-1.336l-1.015-1.014 1.015-1.014a.945.945 0 000-1.335z"/></g></g></svg>