<svg xmlns="http://www.w3.org/2000/svg" width="517" height="137"><path fill="#FF6444" fill-opacity=".16" d="M2 133a2 2 0 11.001 3.999A2 2 0 012 133zm19 0a2 2 0 11.001 3.999A2 2 0 0121 133zm19 0a2 2 0 11.001 3.999A2 2 0 0140 133zm19 0a2 2 0 11.001 3.999A2 2 0 0159 133zm19 0a2 2 0 11.001 3.999A2 2 0 0178 133zm19 0a2 2 0 11.001 3.999A2 2 0 0197 133zm19 0a2 2 0 11.001 3.999A2 2 0 01116 133zm19 0a2 2 0 11.001 3.999A2 2 0 01135 133zm19 0a2 2 0 11.001 3.999A2 2 0 01154 133zm19 0a2 2 0 11.001 3.999A2 2 0 01173 133zm19 0a2 2 0 11.001 3.999A2 2 0 01192 133zm19 0a2 2 0 11.001 3.999A2 2 0 01211 133zm19 0a2 2 0 11.001 3.999A2 2 0 01230 133zm19 0a2 2 0 11.001 3.999A2 2 0 01249 133zm19 0a2 2 0 11.001 3.999A2 2 0 01268 133zm19 0a2 2 0 11.001 3.999A2 2 0 01287 133zm19 0a2 2 0 11.001 3.999A2 2 0 01306 133zm19 0a2 2 0 11.001 3.999A2 2 0 01325 133zm19 0a2 2 0 11.001 3.999A2 2 0 01344 133zm19 0a2 2 0 11.001 3.999A2 2 0 01363 133zm19 0a2 2 0 11.001 3.999A2 2 0 01382 133zm19 0a2 2 0 11.001 3.999A2 2 0 01401 133zm19 0a2 2 0 11.001 3.999A2 2 0 01420 133zm19 0a2 2 0 11.001 3.999A2 2 0 01439 133zm19 0a2 2 0 11.001 3.999A2 2 0 01458 133zm19 0a2 2 0 11.001 3.999A2 2 0 01477 133zm19 0a2 2 0 11.001 3.999A2 2 0 01496 133zm19 0a2 2 0 11.001 3.999A2 2 0 01515 133zM2 114a2 2 0 11.001 3.999A2 2 0 012 114zm19 0a2 2 0 11.001 3.999A2 2 0 0121 114zm19 0a2 2 0 11.001 3.999A2 2 0 0140 114zm19 0a2 2 0 11.001 3.999A2 2 0 0159 114zm19 0a2 2 0 11.001 3.999A2 2 0 0178 114zm19 0a2 2 0 11.001 3.999A2 2 0 0197 114zm19 0a2 2 0 11.001 3.999A2 2 0 01116 114zm19 0a2 2 0 11.001 3.999A2 2 0 01135 114zm19 0a2 2 0 11.001 3.999A2 2 0 01154 114zm19 0a2 2 0 11.001 3.999A2 2 0 01173 114zm19 0a2 2 0 11.001 3.999A2 2 0 01192 114zm19 0a2 2 0 11.001 3.999A2 2 0 01211 114zm19 0a2 2 0 11.001 3.999A2 2 0 01230 114zm19 0a2 2 0 11.001 3.999A2 2 0 01249 114zm19 0a2 2 0 11.001 3.999A2 2 0 01268 114zm19 0a2 2 0 11.001 3.999A2 2 0 01287 114zm19 0a2 2 0 11.001 3.999A2 2 0 01306 114zm19 0a2 2 0 11.001 3.999A2 2 0 01325 114zm19 0a2 2 0 11.001 3.999A2 2 0 01344 114zm19 0a2 2 0 11.001 3.999A2 2 0 01363 114zm19 0a2 2 0 11.001 3.999A2 2 0 01382 114zm19 0a2 2 0 11.001 3.999A2 2 0 01401 114zm19 0a2 2 0 11.001 3.999A2 2 0 01420 114zm19 0a2 2 0 11.001 3.999A2 2 0 01439 114zm19 0a2 2 0 11.001 3.999A2 2 0 01458 114zm19 0a2 2 0 11.001 3.999A2 2 0 01477 114zm19 0a2 2 0 11.001 3.999A2 2 0 01496 114zm19 0a2 2 0 11.001 3.999A2 2 0 01515 114zM2 95a2 2 0 11.001 3.999A2 2 0 012 95zm19 0a2 2 0 11.001 3.999A2 2 0 0121 95zm19 0a2 2 0 11.001 3.999A2 2 0 0140 95zm19 0a2 2 0 11.001 3.999A2 2 0 0159 95zm19 0a2 2 0 11.001 3.999A2 2 0 0178 95zm19 0a2 2 0 11.001 3.999A2 2 0 0197 95zm19 0a2 2 0 11.001 3.999A2 2 0 01116 95zm19 0a2 2 0 11.001 3.999A2 2 0 01135 95zm19 0a2 2 0 11.001 3.999A2 2 0 01154 95zm19 0a2 2 0 11.001 3.999A2 2 0 01173 95zm19 0a2 2 0 11.001 3.999A2 2 0 01192 95zm19 0a2 2 0 11.001 3.999A2 2 0 01211 95zm19 0a2 2 0 11.001 3.999A2 2 0 01230 95zm19 0a2 2 0 11.001 3.999A2 2 0 01249 95zm19 0a2 2 0 11.001 3.999A2 2 0 01268 95zm19 0a2 2 0 11.001 3.999A2 2 0 01287 95zm19 0a2 2 0 11.001 3.999A2 2 0 01306 95zm19 0a2 2 0 11.001 3.999A2 2 0 01325 95zm19 0a2 2 0 11.001 3.999A2 2 0 01344 95zm19 0a2 2 0 11.001 3.999A2 2 0 01363 95zm19 0a2 2 0 11.001 3.999A2 2 0 01382 95zm19 0a2 2 0 11.001 3.999A2 2 0 01401 95zm19 0a2 2 0 11.001 3.999A2 2 0 01420 95zm19 0a2 2 0 11.001 3.999A2 2 0 01439 95zm19 0a2 2 0 11.001 3.999A2 2 0 01458 95zm19 0a2 2 0 11.001 3.999A2 2 0 01477 95zm19 0a2 2 0 11.001 3.999A2 2 0 01496 95zm19 0a2 2 0 11.001 3.999A2 2 0 01515 95zM2 76a2 2 0 11.001 3.999A2 2 0 012 76zm19 0a2 2 0 11.001 3.999A2 2 0 0121 76zm19 0a2 2 0 11.001 3.999A2 2 0 0140 76zm19 0a2 2 0 11.001 3.999A2 2 0 0159 76zm19 0a2 2 0 11.001 3.999A2 2 0 0178 76zm19 0a2 2 0 11.001 3.999A2 2 0 0197 76zm19 0a2 2 0 11.001 3.999A2 2 0 01116 76zm19 0a2 2 0 11.001 3.999A2 2 0 01135 76zm19 0a2 2 0 11.001 3.999A2 2 0 01154 76zm19 0a2 2 0 11.001 3.999A2 2 0 01173 76zm19 0a2 2 0 11.001 3.999A2 2 0 01192 76zm19 0a2 2 0 11.001 3.999A2 2 0 01211 76zm19 0a2 2 0 11.001 3.999A2 2 0 01230 76zm19 0a2 2 0 11.001 3.999A2 2 0 01249 76zm19 0a2 2 0 11.001 3.999A2 2 0 01268 76zm19 0a2 2 0 11.001 3.999A2 2 0 01287 76zm19 0a2 2 0 11.001 3.999A2 2 0 01306 76zm19 0a2 2 0 11.001 3.999A2 2 0 01325 76zm19 0a2 2 0 11.001 3.999A2 2 0 01344 76zm19 0a2 2 0 11.001 3.999A2 2 0 01363 76zm19 0a2 2 0 11.001 3.999A2 2 0 01382 76zm19 0a2 2 0 11.001 3.999A2 2 0 01401 76zm19 0a2 2 0 11.001 3.999A2 2 0 01420 76zm19 0a2 2 0 11.001 3.999A2 2 0 01439 76zm19 0a2 2 0 11.001 3.999A2 2 0 01458 76zm19 0a2 2 0 11.001 3.999A2 2 0 01477 76zm19 0a2 2 0 11.001 3.999A2 2 0 01496 76zm19 0a2 2 0 11.001 3.999A2 2 0 01515 76zM2 57a2 2 0 11.001 3.999A2 2 0 012 57zm19 0a2 2 0 11.001 3.999A2 2 0 0121 57zm19 0a2 2 0 11.001 3.999A2 2 0 0140 57zm19 0a2 2 0 11.001 3.999A2 2 0 0159 57zm19 0a2 2 0 11.001 3.999A2 2 0 0178 57zm19 0a2 2 0 11.001 3.999A2 2 0 0197 57zm19 0a2 2 0 11.001 3.999A2 2 0 01116 57zm19 0a2 2 0 11.001 3.999A2 2 0 01135 57zm19 0a2 2 0 11.001 3.999A2 2 0 01154 57zm19 0a2 2 0 11.001 3.999A2 2 0 01173 57zm19 0a2 2 0 11.001 3.999A2 2 0 01192 57zm19 0a2 2 0 11.001 3.999A2 2 0 01211 57zm19 0a2 2 0 11.001 3.999A2 2 0 01230 57zm19 0a2 2 0 11.001 3.999A2 2 0 01249 57zm19 0a2 2 0 11.001 3.999A2 2 0 01268 57zm19 0a2 2 0 11.001 3.999A2 2 0 01287 57zm19 0a2 2 0 11.001 3.999A2 2 0 01306 57zm19 0a2 2 0 11.001 3.999A2 2 0 01325 57zm19 0a2 2 0 11.001 3.999A2 2 0 01344 57zm19 0a2 2 0 11.001 3.999A2 2 0 01363 57zm19 0a2 2 0 11.001 3.999A2 2 0 01382 57zm19 0a2 2 0 11.001 3.999A2 2 0 01401 57zm19 0a2 2 0 11.001 3.999A2 2 0 01420 57zm19 0a2 2 0 11.001 3.999A2 2 0 01439 57zm19 0a2 2 0 11.001 3.999A2 2 0 01458 57zm19 0a2 2 0 11.001 3.999A2 2 0 01477 57zm19 0a2 2 0 11.001 3.999A2 2 0 01496 57zm19 0a2 2 0 11.001 3.999A2 2 0 01515 57zM2 38a2 2 0 11.001 3.999A2 2 0 012 38zm19 0a2 2 0 11.001 3.999A2 2 0 0121 38zm19 0a2 2 0 11.001 3.999A2 2 0 0140 38zm19 0a2 2 0 11.001 3.999A2 2 0 0159 38zm19 0a2 2 0 11.001 3.999A2 2 0 0178 38zm19 0a2 2 0 11.001 3.999A2 2 0 0197 38zm19 0a2 2 0 11.001 3.999A2 2 0 01116 38zm19 0a2 2 0 11.001 3.999A2 2 0 01135 38zm19 0a2 2 0 11.001 3.999A2 2 0 01154 38zm19 0a2 2 0 11.001 3.999A2 2 0 01173 38zm19 0a2 2 0 11.001 3.999A2 2 0 01192 38zm19 0a2 2 0 11.001 3.999A2 2 0 01211 38zm19 0a2 2 0 11.001 3.999A2 2 0 01230 38zm19 0a2 2 0 11.001 3.999A2 2 0 01249 38zm19 0a2 2 0 11.001 3.999A2 2 0 01268 38zm19 0a2 2 0 11.001 3.999A2 2 0 01287 38zm19 0a2 2 0 11.001 3.999A2 2 0 01306 38zm19 0a2 2 0 11.001 3.999A2 2 0 01325 38zm19 0a2 2 0 11.001 3.999A2 2 0 01344 38zm19 0a2 2 0 11.001 3.999A2 2 0 01363 38zm19 0a2 2 0 11.001 3.999A2 2 0 01382 38zm19 0a2 2 0 11.001 3.999A2 2 0 01401 38zm19 0a2 2 0 11.001 3.999A2 2 0 01420 38zm19 0a2 2 0 11.001 3.999A2 2 0 01439 38zm19 0a2 2 0 11.001 3.999A2 2 0 01458 38zm19 0a2 2 0 11.001 3.999A2 2 0 01477 38zm19 0a2 2 0 11.001 3.999A2 2 0 01496 38zm19 0a2 2 0 11.001 3.999A2 2 0 01515 38zM2 19a2 2 0 11.001 3.999A2 2 0 012 19zm19 0a2 2 0 11.001 3.999A2 2 0 0121 19zm19 0a2 2 0 11.001 3.999A2 2 0 0140 19zm19 0a2 2 0 11.001 3.999A2 2 0 0159 19zm19 0a2 2 0 11.001 3.999A2 2 0 0178 19zm19 0a2 2 0 11.001 3.999A2 2 0 0197 19zm19 0a2 2 0 11.001 3.999A2 2 0 01116 19zm19 0a2 2 0 11.001 3.999A2 2 0 01135 19zm19 0a2 2 0 11.001 3.999A2 2 0 01154 19zm19 0a2 2 0 11.001 3.999A2 2 0 01173 19zm19 0a2 2 0 11.001 3.999A2 2 0 01192 19zm19 0a2 2 0 11.001 3.999A2 2 0 01211 19zm19 0a2 2 0 11.001 3.999A2 2 0 01230 19zm19 0a2 2 0 11.001 3.999A2 2 0 01249 19zm19 0a2 2 0 11.001 3.999A2 2 0 01268 19zm19 0a2 2 0 11.001 3.999A2 2 0 01287 19zm19 0a2 2 0 11.001 3.999A2 2 0 01306 19zm19 0a2 2 0 11.001 3.999A2 2 0 01325 19zm19 0a2 2 0 11.001 3.999A2 2 0 01344 19zm19 0a2 2 0 11.001 3.999A2 2 0 01363 19zm19 0a2 2 0 11.001 3.999A2 2 0 01382 19zm19 0a2 2 0 11.001 3.999A2 2 0 01401 19zm19 0a2 2 0 11.001 3.999A2 2 0 01420 19zm19 0a2 2 0 11.001 3.999A2 2 0 01439 19zm19 0a2 2 0 11.001 3.999A2 2 0 01458 19zm19 0a2 2 0 11.001 3.999A2 2 0 01477 19zm19 0a2 2 0 11.001 3.999A2 2 0 01496 19zm19 0a2 2 0 11.001 3.999A2 2 0 01515 19zM2 0a2 2 0 11.001 3.999A2 2 0 012 0zm19 0a2 2 0 11.001 3.999A2 2 0 0121 0zm19 0a2 2 0 11.001 3.999A2 2 0 0140 0zm19 0a2 2 0 11.001 3.999A2 2 0 0159 0zm19 0a2 2 0 11.001 3.999A2 2 0 0178 0zm19 0a2 2 0 11.001 3.999A2 2 0 0197 0zm19 0a2 2 0 11.001 3.999A2 2 0 01116 0zm19 0a2 2 0 11.001 3.999A2 2 0 01135 0zm19 0a2 2 0 11.001 3.999A2 2 0 01154 0zm19 0a2 2 0 11.001 3.999A2 2 0 01173 0zm19 0a2 2 0 11.001 3.999A2 2 0 01192 0zm19 0a2 2 0 11.001 3.999A2 2 0 01211 0zm19 0a2 2 0 11.001 3.999A2 2 0 01230 0zm19 0a2 2 0 11.001 3.999A2 2 0 01249 0zm19 0a2 2 0 11.001 3.999A2 2 0 01268 0zm19 0a2 2 0 11.001 3.999A2 2 0 01287 0zm19 0a2 2 0 11.001 3.999A2 2 0 01306 0zm19 0a2 2 0 11.001 3.999A2 2 0 01325 0zm19 0a2 2 0 11.001 3.999A2 2 0 01344 0zm19 0a2 2 0 11.001 3.999A2 2 0 01363 0zm19 0a2 2 0 11.001 3.999A2 2 0 01382 0zm19 0a2 2 0 11.001 3.999A2 2 0 01401 0zm19 0a2 2 0 11.001 3.999A2 2 0 01420 0zm19 0a2 2 0 11.001 3.999A2 2 0 01439 0zm19 0a2 2 0 11.001 3.999A2 2 0 01458 0zm19 0a2 2 0 11.001 3.999A2 2 0 01477 0zm19 0a2 2 0 11.001 3.999A2 2 0 01496 0zm19 0a2 2 0 11.001 3.999A2 2 0 01515 0z"/></svg>