<svg xmlns="http://www.w3.org/2000/svg" xmlns:xlink="http://www.w3.org/1999/xlink" width="400" height="333" viewBox="0 0 400 333">
    <defs>
        <linearGradient id="prefix__baa" x1="32.361%" x2="69.142%" y1="39.538%" y2="61.354%">
            <stop offset="0%" stop-color="#FFF"/>
            <stop offset="100%" stop-color="#FFF"/>
        </linearGradient>
        <path id="prefix__aaa" d="M0 0L1440 0 1440 333 0 333z"/>
    </defs>
    <g fill="none" fill-rule="evenodd">
        <mask id="prefix__ccc" fill="#fff">
            <use xlink:href="#prefix__aaa"/>
        </mask>
        <use fill="#FF444F" xlink:href="#prefix__aaa"/>
        <path fill="url(#prefix__baa)" fill-opacity=".8" d="M1431.282-388l-49.482 76.228-170.684 65.73-.224.093-85.462 131.646-170.684 65.73-.23.09-85.451 131.646-170.684 65.734-.23.089-85.456 131.646-170.684 65.73-.225.097-85.456 131.638-170.684 65.735-.23.089L99.96 675.567 1 713.68V715l99.878-38.46.23-.092 85.452-131.643 170.683-65.734.23-.093 85.462-131.638 170.679-65.735.23-.088 85.456-131.65 170.684-65.731.23-.089L955.67-47.599l170.679-65.73.23-.093 85.456-131.646 170.679-65.735.23-.085L1433-388h-1.718zm-31 0l-38.807 59.81-170.684 65.773-.23.092-85.46 131.726-170.683 65.772-.23.093-85.46 131.73-170.688 65.776-.23.088-85.46 131.726-170.684 65.78-.23.089-85.464 131.725-170.689 65.776-.23.089L79.6 659.771 2 689.676V691l78.518-30.256.23-.088 85.454-131.73 170.694-65.776.225-.085 85.46-131.73 170.688-65.775.225-.089 85.464-131.726L849.643 67.97l.23-.092 85.464-131.73 170.684-65.772.224-.089 85.46-131.73 170.689-65.772.23-.088L1402-388h-1.718zm-32.001 0l-28.137 43.333-170.825 65.753-.23.089-85.515 131.692-170.825 65.757-.23.089-85.525 131.691-170.815 65.754-.23.092-85.525 131.688-170.82 65.758-.23.088-85.52 131.696-170.82 65.753-.23.085L57.279 643.01 1 664.676V666l57.193-22.017.23-.088 85.53-131.692 170.815-65.757.23-.085 85.525-131.692 170.82-65.757.225-.093 85.525-131.687 170.82-65.758.225-.085 85.53-131.691 170.81-65.758.23-.088 85.53-131.692 170.826-65.754.224-.092L1370-388h-1.72zm-34.003 0l-17.421 26.864-170.573 65.734-.23.089-85.406 131.652-170.573 65.738-.224.088-85.402 131.648-170.573 65.742-.23.084-85.395 131.653-170.573 65.734-.23.092-85.401 131.652-170.568 65.738-.23.088-85.406 131.649L1 639.677V641l35.766-13.782.225-.093 85.401-131.648 170.573-65.738.225-.088 85.406-131.652 170.568-65.734.23-.089 85.4-131.652 170.574-65.737.23-.089L890.992-96.95l170.578-65.738.225-.092 85.401-131.653 170.573-65.733.23-.089L1336-388h-1.722zm-31.002 0l-6.758 10.412-170.838 65.783-.23.088-85.535 131.743-170.833 65.778-.23.093-85.54 131.738L612.48 83.418l-.225.088-85.539 131.743-170.833 65.782-.23.089-85.54 131.738L99.28 478.641l-.23.088-85.534 131.739L0 615.676V617l14.665-5.647 85.534-131.742 170.838-65.783.225-.084 85.534-131.739 170.839-65.782.23-.093 85.534-131.738 170.834-65.783.23-.092 85.539-131.739 170.833-65.782.23-.085 85.534-131.742 170.839-65.783.23-.089L1305-388h-1.724zm-43.715 0l-155.138 59.695-.225.088-85.539 131.67-170.864 65.746-.225.084L762.021.953 591.167 66.694l-.23.092-85.544 131.665-170.859 65.746-.23.089-85.54 131.673-170.858 65.742-.23.089L0 581.346V584l78.826-121.324 170.854-65.743.23-.096 85.544-131.665 170.859-65.746.23-.089 85.539-131.67L762.941 1.927l.23-.089 85.544-131.669 170.859-65.746.23-.089 85.544-131.665L1263-388h-3.44zm-64.01 1l-112.372 43.25-.225.093-85.56 131.72-170.88 65.772-.23.089-85.55 131.723-170.88 65.773-.23.088-85.556 131.72-170.88 65.769-.225.092-85.56 131.723-170.875 65.773-.23.092L0 533.348V536l57.443-88.441 170.88-65.773.225-.093 85.56-131.723 170.875-65.769.23-.088 85.555-131.72 170.885-65.776.23-.089 85.545-131.719 170.885-65.773.23-.092 85.545-131.72L1199-387h-3.45zm-64.003-1l-69.54 26.802-.23.089-85.488 131.778-170.755 65.8-.23.091L719.819-31.66 549.064 34.145l-.23.085-85.497 131.782-170.75 65.803-.23.088-85.492 131.779L36.11 429.484l-.23.093L1 483.343V486l36.03-55.541 170.754-65.803.23-.089L293.5 232.79l170.755-65.803.23-.092 85.492-131.778 170.755-65.803.23-.089 85.492-131.782 170.75-65.799.23-.088 85.491-131.782L1135-388h-3.452zm-63.99 0l-26.8 10.32-.23.088-85.503 131.69-170.77 65.756-.23.088-85.502 131.686L527.75 17.384l-.23.088-85.498 131.686-170.78 65.756-.23.093-85.496 131.685L14.74 412.45l-.23.088L1 433.345V436l14.66-22.578 170.769-65.756.23-.085 85.502-131.693 170.78-65.756.23-.089 85.497-131.69 170.775-65.752.23-.088 85.497-131.686 170.78-65.756.23-.093 85.497-131.685L1071-388h-3.442zm-53.275 0l-81.494 125.577L762.168-196.7l-.23.089L676.52-64.988 505.904.737l-.23.088-85.417 131.626-170.616 65.721-.23.089-85.427 131.63L1 392.673V394l163.902-63.14.23-.089 85.422-131.626 170.616-65.724.23-.085L506.823 1.71l170.616-65.725.23-.092 85.417-131.623 170.621-65.724.23-.089L1016-388h-1.717zm-33.005 0l-70.82 109.218-170.616 65.784-.23.088-85.425 131.744-170.622 65.78-.23.092-85.425 131.745-170.621 65.783-.23.085-85.42 131.744L0 368.672V370l142.557-54.967.23-.085 85.415-131.744 170.627-65.78.23-.092 85.42-131.744L655.1-80.196l.23-.084 85.43-131.748 170.617-65.78.23-.088L983-388h-1.722zm-29.999 1l-60.27 92.714-170.983 65.757-.23.088L634.183-96.75 463.196-30.993l-.23.085-85.604 131.691-170.987 65.753-.23.092L120.54 298.32 0 344.673V346l121.457-46.71.23-.09 85.608-131.69 170.988-65.754.23-.088 85.603-131.691L635.103-95.78l.23-.085 85.614-131.69 170.977-65.758.23-.092L953-387h-1.72zm-32.998-1l-49.522 76.22-170.82 65.725-.23.092-85.52 131.633-170.825 65.725-.225.088-85.525 131.634-170.82 65.728-.23.088-85.525 131.634L0 318.673V320l99.958-38.46.23-.089 85.52-131.637 170.82-65.724.23-.089 85.53-131.633 170.815-65.725.23-.092 85.525-131.633 170.82-65.729.23-.084L920-388h-1.72zm-32.005 0l-38.83 59.826-170.834 65.79-.23.093-85.532 131.76-170.828 65.79-.23.092-85.537 131.765-170.833 65.793-.23.089-85.527 131.76L0 294.673V296l78.584-30.267.23-.089 85.527-131.76L335.18 68.09l.225-.093 85.531-131.764 170.834-65.79.225-.088 85.537-131.765L848.36-327.2l.23-.088L888-388h-1.724zm-32 1l-28.147 43.337-170.843 65.76-.23.09-85.539 131.705-170.848 65.764-.23.088L312.905 51.45l-170.848 65.76-.23.092-85.54 131.702L0 270.669V272l57.203-22.023.23-.092 85.544-131.702L313.82 52.42l.23-.084 85.539-131.706 170.848-65.764.225-.088L656.2-276.93l170.848-65.76.225-.092L856-387h-1.724zm-31-1l-17.452 26.862-170.865 65.73-.23.088-85.542 131.642-170.865 65.733-.23.088-85.547 131.639-170.86 65.737-.23.084-85.552 131.643L1 244.673V246l35.828-13.781.225-.089L122.6 100.488l170.865-65.733.225-.088 85.552-131.639 170.86-65.733.23-.092 85.547-131.642 170.865-65.73.23-.088L825-388h-1.725zm-32.999 0l-6.75 10.416-170.666 65.806-.225.089-85.453 131.79-170.66 65.802-.23.092L270.84 17.781 100.179 83.587l-.23.089-85.448 131.79L1 220.672V222l14.65-5.653 85.448-131.785 170.666-65.807.224-.092 85.448-131.786 170.666-65.806.23-.085 85.447-131.79L784.44-376.61l.23-.089L792-388h-1.723zm-43.718 0l-154.974 59.799-.23.088-85.46 131.898-170.69 65.86-.23.086L249.52 1.629 78.83 67.486l-.23.092L1 187.345V190L79.748 68.46 250.434 2.605l.23-.089 85.46-131.898 170.69-65.86.23-.089 85.454-131.894L750-388h-3.44zm-64.005 0l-112.426 43.264-.23.093-85.597 131.76-170.962 65.794-.225.088-85.601 131.764L56.556 50.557l-.23.089L0 137.347V140l57.47-88.469 170.963-65.797.225-.089 85.602-131.76 170.957-65.794.23-.092 85.596-131.76L686-388h-3.446zm-64.996 0l-69.535 26.766-.23.088-85.491 131.598-170.737 65.708-.23.092L205.85-32.15 35.107 33.566l-.23.084L0 87.35V90l36.027-55.465 170.742-65.712.23-.089 85.48-131.601 170.742-65.709.23-.088 85.486-131.602L621-388h-3.442zm-63.996 0l-26.805 10.32-.23.09-85.499 131.709-170.782 65.766-.23.088L184.517-48.32 13.74 17.445l-.23.089L0 38.349V41l14.66-22.585 170.772-65.763.23-.088 85.503-131.705 170.783-65.767.23-.092 85.498-131.705L557-388h-3.438zm-51.281 0l-81.58 125.862-170.797 65.873-.23.09-85.518 131.92L1-1.326V0l164.076-63.28.23-.092 85.513-131.921 170.796-65.874.23-.089L504-388h-1.719zm-33 0l-70.903 108.987-170.822 65.644-.23.089-85.52 131.465L0-27.32V-26l142.725-54.847.23-.084 85.516-131.47 170.827-65.64.23-.088L471-388h-1.72zm-30.998 0l-59.947 92.733-170.069 65.77-.229.089L122.894-97.69 3-51.324V-50l120.805-46.72.229-.085 85.149-131.718 170.069-65.77.229-.093L440-388h-1.717zm-32.008 0l-49.534 76.44-170.881 65.913-.23.092-85.556 132.012L1-75.327V-74l99.994-38.567.23-.092 85.55-132.012 170.882-65.918.23-.085L408-388h-1.725zm-33 0l-38.854 59.68-170.919 65.629-.23.092-85.569 131.438L0-101.321V-100l78.623-30.19.23-.088 85.57-131.442 170.923-65.628.225-.089L375-388h-1.725zm-32.996 0l-28.078 43.356-170.464 65.788-.229.089-85.347 131.76L0-125.327V-124l57.074-22.032.23-.089 85.351-131.76 170.459-65.79.23-.092L342-388h-1.72zm-31.005 0l-17.472 26.966-171.01 65.983-.23.089-85.628 132.15L0-149.331V-148l35.86-13.834.224-.093 85.623-132.151 171.016-65.983.225-.089L311-388h-1.726zm-31.996 0l-6.777 10.385-171.08 65.612-.23.088-85.656 131.4L0-175.325V-174l14.686-5.632 85.657-131.4 171.084-65.612.225-.088L279-388h-1.722zm-44.725 1L77.747-327.303l-.23.089L0-207.654V-205l78.665-121.33L236-387h-3.447zm-62.99-1L57.416-344.642l-.23.093L1-257.659V-255l57.33-88.665L173-388h-3.438zm-64.97 0l-68.84 26.703-.227.088L1-307.643V-305l35.663-55.33L108-388h-3.407zm-63.12 1l-27.417 10.359-.235.089L0-355.665V-353l14.997-22.664L45-387h-3.527zm1361.51 91.5l-170.7 65.762-.23.088-85.46 131.702L975.89-32.186l-.225.084L890.201 99.6l-170.695 65.758-.23.093-85.469 131.7-170.7 65.76-.229.088-85.46 131.705-170.699 65.758-.23.089-85.459 131.701L49 720h3.446l69.498-26.774.23-.089 85.464-131.701 170.7-65.762.23-.089 85.459-131.701 170.699-65.762.23-.089 85.464-131.701 170.694-65.759.23-.088L976.81-31.216l170.699-65.763.23-.084 85.464-131.702 170.7-65.762.229-.092L1439-348.35V-351l-36.018 55.5zm22.363 17.085l-170.707 65.787-.23.088-85.476 131.751-170.707 65.783-.23.093-85.47 131.75-170.707 65.788-.23.084-85.47 131.751-170.713 65.787-.23.089-85.47 131.747-170.713 65.787-.23.092-85.465 131.748L114 721h3.441l26.776-10.317.23-.092 85.46-131.747 170.717-65.787.23-.089 85.466-131.75 170.712-65.788.23-.084 85.476-131.751 170.707-65.783.23-.093 85.47-131.75 170.707-65.788.23-.084 85.471-131.755 170.712-65.783.23-.089L1440-298.344V-301l-14.654 22.585zm-149.472 82.596l-.23.088-85.54 131.699-170.843 65.763-.23.088-85.54 131.699-170.854 65.763-.23.088-85.534 131.707-170.85 65.755-.23.096-85.534 131.699-170.849 65.762-.23.085L167 721h1.724l81.601-125.642 170.85-65.759.23-.092 85.539-131.703 170.849-65.759.23-.088 85.534-131.703 170.854-65.763.23-.084 85.534-131.703 170.85-65.762.224-.093 85.545-131.699L1440-257.672V-259l-164.126 63.18zm21.49 16.748l-.23.088-85.47 131.657-170.727 65.742-.23.088-85.476 131.661-170.716 65.738-.23.092-85.476 131.657-170.722 65.742-.23.089-85.47 131.66-170.727 65.742-.23.085L200 721h1.723l70.856-109.145 170.727-65.738.23-.089 85.47-131.66 170.722-65.743.23-.084 85.47-131.665 170.727-65.742.23-.088 85.476-131.66 170.717-65.739.23-.088 85.475-131.657L1440-232.673V-234l-142.636 54.929zm21.267 15.802l-.23.092-85.56 131.754-170.867 65.794-.23.085L976.2 166.213l-170.871 65.79-.23.09-85.546 131.75-170.87 65.793-.23.093-85.556 131.754-170.866 65.79-.23.088L231 721h1.725l60.22-92.757 170.87-65.786.23-.089 85.551-131.758 170.871-65.79.23-.088 85.55-131.75 170.866-65.795.23-.092 85.55-131.754 170.872-65.79.23-.089 85.55-131.757L1440-208.672V-210l-121.37 46.73zm21.374 15.8l-.225.088-85.556 131.86-170.883 65.84-.225.09-85.56 131.856-170.883 65.837-.23.093-85.552 131.86-170.882 65.84-.23.093-85.557 131.856-170.882 65.842-.225.084L263 721h1.73l49.53-76.344 170.877-65.837.23-.093 85.557-131.856 170.887-65.84.23-.093 85.546-131.86 170.888-65.838.23-.088 85.546-131.856 170.888-65.846.23-.088 85.556-131.856L1440-184.671V-186l-99.995 38.53zm20.45 17.715l-.23.084-85.482 131.666-170.751 65.746-.225.092-85.483 131.666-170.751 65.746-.225.089L761.815 397l-170.742 65.75-.23.088-85.487 131.666-170.747 65.746-.23.089L295 721h1.723l38.81-59.776 170.742-65.746.23-.088 85.488-131.666 170.74-65.742.23-.097 85.489-131.665 170.746-65.747.23-.088 85.483-131.67 170.751-65.742.23-.088 85.483-131.67L1439-158.673V-160l-78.544 30.246zm21.425 15.785l-.23.092-85.414 131.771-170.601 65.8-.23.088-85.415 131.775-170.595 65.799-.23.088-85.415 131.772-170.6 65.799-.225.088-85.42 131.771-170.596 65.8-.23.092L328 721h1.727l28.096-43.353 170.6-65.799.23-.088 85.415-131.775 170.595-65.8.23-.084 85.42-131.771 170.596-65.8.23-.092 85.414-131.77 170.601-65.8.23-.092 85.415-131.771L1439-134.672V-136l-57.12 22.03zm19.352 15.78l-.23.088-85.418 131.883-170.6 65.859-.23.085-85.423 131.887-170.606 65.85-.224.093-85.418 131.887-170.606 65.855-.23.089-85.413 131.883-170.605 65.854-.23.089L358 721h1.727l17.42-26.9 170.6-65.856.23-.092 85.418-131.883 170.606-65.855.23-.089 85.413-131.886 170.61-65.851.225-.089 85.418-131.883 170.606-65.859.23-.088 85.417-131.883 34.85-13.457V-112l-35.768 13.81zm23.339 17.745l-.23.088-85.497 131.68-170.78 65.748-.23.092-85.492 131.676-170.78 65.751-.23.089-85.506 131.684L655.06 512.11l-.23.085-85.502 131.68-170.775 65.751-.23.089L391 721h1.724l6.75-10.403 170.774-65.748.225-.088 85.502-131.68 170.775-65.752.225-.084 85.507-131.68 170.764-65.752.23-.092 85.507-131.676 170.78-65.751.225-.085 85.502-131.68 13.51-5.202V-86l-14.43 5.556zM1361.28 68.248l-170.624 65.705-.23.088-85.43 131.582-170.624 65.709-.23.088-85.429 131.583-170.629 65.704-.23.089-85.429 131.582L435 721h3.44l154.904-59.65.224-.088 85.435-131.582 170.624-65.709.23-.084L935.29 332.3l170.624-65.705.225-.088 85.43-131.583 170.628-65.704.23-.093L1440-50.352V-53l-78.72 121.248zm21.235 15.266l-171.004 65.826-.225.089-85.623 131.83-171.004 65.823-.23.096-85.612 131.823-171.005 65.827-.23.089-85.612 131.83L497 721h3.447l112.439-43.278.23-.093 85.617-131.827 171.004-65.826.23-.093 85.618-131.822 170.999-65.827.23-.089 85.617-131.834 171-65.823.23-.089L1440-2.346V-5l-57.485 88.514zm21.435 16.994L1233.1 166.276l-.23.092-85.536 131.721-170.856 65.768-.225.089-85.54 131.725-170.847 65.768-.23.088-85.546 131.721L562 721h3.444l69.565-26.778.23-.089 85.54-131.72 170.847-65.773.23-.088 85.54-131.721 170.852-65.772.23-.089 85.54-131.72 170.852-65.768.23-.089 34.9-53.745V45l-36.05 55.508zm20.381 17.05l-170.88 65.708-.23.085-85.563 131.594-170.88 65.708-.23.089-85.558 131.59-170.88 65.709-.23.092-85.558 131.59L625 721h3.44l26.797-10.304.23-.092 85.563-131.59 170.88-65.71.23-.088 85.558-131.594 170.88-65.708.23-.085 85.558-131.594 170.885-65.704.23-.093L1439 97.645V95l-14.669 22.558zm-149.292 80.627l-.23.088-85.453 131.73-170.673 65.768-.23.096L933 527.59l-170.682 65.775-.23.085L680 720h1.718l81.518-125.665 170.683-65.771.23-.092 85.448-131.727 170.677-65.771.225-.089 85.459-131.727L1439 136.324V135l-163.961 63.185zm21.354 17.734l-.23.092-85.454 131.66-170.692 65.733-.23.088-85.459 131.657-170.682 65.74-.23.084L712 721h1.718l70.842-109.142 170.692-65.736.23-.088 85.454-131.657 170.687-65.74.23-.084 85.458-131.66L1439 162.322V161l-142.607 54.92zm22.186 15.836l-.23.088-85.593 131.821-170.944 65.824-.23.092L976 561.401l-170.944 65.824-.23.089L744 721h1.72l60.256-92.804 170.94-65.82.23-.089 85.586-131.825 170.945-65.823.23-.089 85.587-131.821L1440 186.325V185l-121.421 46.755zm21.527 15.736l-.225.092-85.47 131.752-170.711 65.787-.225.092L998 576.962l-170.71 65.787-.23.085L777 720h1.723l49.48-76.28 170.716-65.784.23-.093 85.46-131.747 170.716-65.787.23-.093 85.47-131.751 98.975-38.14V209l-99.894 38.49zm21.36 17.751l-.23.089-85.473 131.674-170.73 65.743-.225.089-85.473 131.667-170.73 65.746-.225.089L809 721h1.718l38.806-59.776 170.725-65.747.23-.089 85.472-131.667 170.73-65.743.23-.096 85.473-131.667L1440 236.323V235l-78.535 30.242zm21.177 15.804l-.231.089-85.77 131.864-171.311 65.845-.23.089-85.771 131.864-171.305 65.845-.231.093L839 721h1.724l28.223-43.383 171.305-65.846.23-.088 85.771-131.868 171.31-65.845.231-.085 85.766-131.864 56.44-21.696V259l-57.357 22.046zm21.494 17.718l-.23.093-85.64 131.481-171.058 65.653-.23.088-85.649 131.478-171.058 65.653-.225.088L872 721h1.722l17.47-26.818 171.064-65.653.225-.092 85.644-131.478 171.058-65.652.23-.089 85.645-131.482 34.942-13.41V285l-35.863 13.764zm21.406 15.792l-.23.089-85.658 131.695-171.101 65.753-.23.085-85.654 131.691-171.101 65.757-.23.089L904 721h1.722l6.768-10.404 171.086-65.753.23-.089 85.669-131.691 171.1-65.757.226-.085 85.663-131.691 13.536-5.206V309l-14.457 5.556zm-65.195 147.933l-170.475 65.836-.23.088-85.355 131.844L947 721h3.442l154.764-59.768.224-.089 85.355-131.848 170.481-65.835.23-.085L1439 343.658V341l-78.652 121.49zm21.207 16.887l-170.884 65.725-.225.088-85.562 131.627L1010 721h3.45l112.354-43.211.23-.093 85.557-131.622 170.88-65.725.23-.092L1439 393.654V391l-57.445 88.376zm22.372 16.17l-170.964 65.805-.23.088-85.591 131.794L1075 721h3.446l69.611-26.793.23-.089 85.597-131.793 170.963-65.808.23-.089L1440 442.657V440l-36.073 55.546zm21.388 16.087l-171.071 65.929-.23.092-85.659 132.031L1139 721h3.449l26.827-10.339.23-.092 85.654-132.031 171.076-65.929.23-.088L1440 491.658V489l-14.685 22.633zm-149.087 83.279l-.23.084L1194 721h1.72l81.426-125.122L1440 533.322V532l-163.772 62.912zm20.002 16l-.232.084L1224 721h1.737l71.42-109.12L1440 557.328V556l-143.77 54.912zm21.67 16.666l-.23.089L1257 721h1.72l60.092-92.455L1439 582.324V581l-121.1 46.578zm21.66 16.001l-.227.085L1289 721h1.733l49.75-76.449L1440 606.327V605l-100.44 38.58zm21.663 16.663l-.228.089L1322 721h1.707l38.426-59.784L1439 631.327V630l-77.777 30.242zm20.337 16.667l-.227.092L1353 721h1.706l27.757-43.122L1438 656.321V655l-56.44 21.91zm22.004 16.003l-.234.09L1385 721h1.754l17.745-27.106L1440 680.34V679l-36.436 13.912zm21.996 16.664l-.23.09L1418 721h1.725l6.755-10.45 13.52-5.22V704l-14.44 5.576z" mask="url(#prefix__ccc)" opacity=".217"/>
    </g>
</svg>
