<svg xmlns="http://www.w3.org/2000/svg" width="36" height="36"><g fill="none" fill-rule="evenodd"><path fill="#85ACB0" d="M6.73 0h22.43a6.73 6.73 0 016.73 6.73v22.43a6.73 6.73 0 01-6.73 6.73H6.73A6.73 6.73 0 010 29.16V6.73A6.73 6.73 0 016.73 0"/><path fill="#FFF" fill-rule="nonzero" d="M8.804 6.73l9.051 11.125-9.297 11.306-.965-4.015 6-7.302-5.989-7.368 1.2-3.747zm8.513 0c6.125.073 11.036 5.09 10.98 11.215.056 6.13-4.861 11.148-10.991 11.216h-6.912l2.712-3.298h4.2a7.853 7.853 0 000-15.702h-3.879L10.633 6.73z"/></g></svg>