<svg xmlns="http://www.w3.org/2000/svg" xmlns:xlink="http://www.w3.org/1999/xlink" width="425" height="213" viewBox="0 0 425 213">
    <defs>
        <linearGradient id="prefix__sb" x1="32.361%" x2="69.142%" y1="32.487%" y2="69.006%">
            <stop offset="0%" stop-color="#FFF"/>
            <stop offset="100%" stop-color="#FFF"/>
        </linearGradient>
        <path id="prefix__sa" d="M0 0H425V213H0z"/>
    </defs>
    <g fill="none" fill-rule="evenodd">
        <mask id="prefix__dc" fill="#fff">
            <use xlink:href="#prefix__sa"/>
        </mask>
        <use fill="#FF444F" xlink:href="#prefix__sa"/>
        <path fill="url(#prefix__sb)" fill-opacity=".8" d="M546.333-172l-19.212 38.287L460.85-100.7l-.088.046L427.58-34.53 361.31-1.517l-.09.045-33.178 66.121-66.271 33.017-.09.044-33.18 66.121-66.27 33.015-.088.048-33.18 66.118-66.27 33.016-.09.045-33.18 66.121L-9 381.337V382l38.78-19.317.089-.047 33.178-66.12 66.271-33.015.09-.047 33.181-66.117 66.27-33.017.089-.044 33.18-66.124 66.27-33.014.09-.044 33.18-66.122 66.27-33.014.088-.047 33.18-66.121 66.27-33.017.089-.042L547-172h-.667zm-12 0l-15.08 30.044-66.323 33.038-.089.047-33.207 66.168L353.31-9.664l-.09.046-33.206 66.17-66.325 33.04-.09.045-33.207 66.168-66.323 33.042-.089.045-33.209 66.168-66.325 33.04-.09.045-33.204 66.168L-9 369.335V370l30.51-15.198.09-.044 33.204-66.17 66.327-33.04.087-.043 33.207-66.17 66.325-33.04.088-.045 33.209-66.168L320.37 57.04l.089-.046 33.209-66.17 66.323-33.039.087-.044 33.207-66.17 66.325-33.039.09-.044L535-172h-.668zm-13 0l-10.913 21.749-66.26 33.001-.088.045-33.17 66.095-66.258 33.004-.09.044-33.172 66.096-66.255 33.002-.09.046-33.172 66.094-66.257 33.003-.089.045-33.171 66.098-66.257 33.001-.089.043-33.173 66.095L-9 356.336V357l22.184-11.05.089-.044 33.175-66.096 66.255-33.004.089-.042 33.173-66.096 66.257-33.004.087-.046 33.173-66.094 66.257-33.003.087-.043L345-17.617l66.253-33.004.089-.044 33.175-66.096 66.258-33.002.088-.046L522-172h-.667zm-12.002 0l-6.773 13.497-66.313 33.027-.09.044-33.202 66.146-66.313 33.029-.087.044-33.2 66.145-66.313 33.03-.09.042-33.199 66.146-66.312 33.027-.09.046-33.2 66.146-66.311 33.029-.09.044-33.202 66.144L-9 344.336V345l13.905-6.925.087-.046 33.2-66.144 66.314-33.029.087-.044 33.203-66.146 66.31-33.027.09-.044 33.2-66.146L303.71 40.42l.09-.044 33.198-66.144 66.315-33.029.087-.046 33.201-66.146 66.313-33.027.09-.044L510-172h-.67zm-12 0l-2.626 5.232-66.372 33.055-.09.044-33.23 66.2-66.37 33.052-.089.047-33.232 66.197-66.37 33.055-.088.044-33.232 66.199-66.37 33.055-.09.044-33.232 66.197-66.37 33.055-.089.045-33.23 66.197L-9 332.335V333l5.697-2.837 33.23-66.2L96.3 230.91l.087-.043 33.23-66.197 66.372-33.055.09-.046 33.23-66.197 66.37-33.055.09-.046L329-33.927l66.37-33.055.089-.043 33.23-66.199 66.372-33.055.09-.044L498-172h-.67zm-17.665 0l-60.188 29.97-.088.045-33.186 66.105-66.289 33.008-.087.043-33.19 66.105-66.286 33.007-.089.046-33.188 66.104-66.287 33.008-.09.045-33.186 66.107L21.225 254.6l-.09.045L-9 314.667V316l30.582-60.912 66.285-33.006.09-.049 33.187-66.103 66.288-33.009.089-.044 33.186-66.105 66.287-33.007.09-.044 33.188-66.106 66.287-33.008.09-.045 33.188-66.103L481-172h-1.334zm-25.004 0l-43.58 21.79-.088.046-33.182 66.359-66.27 33.136-.09.044-33.178 66.361-66.272 33.136-.089.045-33.18 66.359-66.271 33.134-.088.047-33.182 66.36-66.269 33.136-.09.047L-9 291.664V293l22.278-44.556 66.271-33.136.087-.046 33.182-66.361 66.27-33.134.089-.045 33.18-66.36 66.273-33.137.09-.045 33.176-66.359 66.273-33.135.09-.047 33.176-66.359L456-172h-1.338zm-25.001 0l-26.983 13.462-.089.045-33.17 66.19-66.254 33.05-.089.047-33.17 66.19-66.253 33.055-.09.042-33.173 66.193-66.252 33.052-.09.044-33.171 66.191-66.254 33.052-.09.046L-9 265.666V267l13.98-27.898 66.254-33.052.089-.044 33.17-66.19 66.254-33.053.089-.046 33.171-66.191 66.254-33.052.09-.044 33.171-66.193 66.252-33.05.09-.044 33.17-66.193L431-172h-1.34zm-24 0l-10.419 5.185-.09.044-33.241 66.165-66.393 33.037-.09.045-33.241 66.162-66.395 33.038-.09.044-33.24 66.163-66.396 33.038-.09.046-33.24 66.162-66.394 33.038-.09.045L-9 240.666V242l5.7-11.344 66.392-33.038.09-.042 33.241-66.166 66.397-33.038.09-.045 33.24-66.164L262.543-.873l.09-.044 33.24-66.163 66.396-33.037.09-.047 33.24-66.162L407-172h-1.338zm-21.328 0L352.7-109.051l-66.231 32.946-.09.045-33.156 65.98-66.23 32.945-.089.045-33.157 65.981-66.23 32.945-.088.044-33.161 65.983L-9 219.335V220l63.623-31.65.09-.045 33.158-65.982 66.23-32.946.089-.042 33.159-65.982 66.23-32.946.088-.046 33.158-65.98 66.23-32.946.09-.045L385-172h-.667zm-12.002 0l-27.521 54.753-66.303 32.979-.089.044-33.197 66.046-66.304 32.977-.09.046L145.63 80.89l-66.304 32.978-.09.043-33.194 66.046L-9 207.334V208l55.399-27.556.089-.043 33.193-66.045 66.306-32.977.09-.046 33.195-66.046 66.304-32.979.09-.042 33.198-66.048 66.303-32.977.09-.044L373-172h-.67zm-12 0l-23.4 46.673-66.382 33.103-.09.044-33.239 66.295-66.385 33.103-.09.043-33.235 66.294-66.385 33.101-.09.046L37.8 172.997-9 196.332V197l47.155-23.515.09-.044 33.237-66.295 66.385-33.1.09-.045 33.235-66.295 66.385-33.103.09-.042 33.239-66.295 66.381-33.103.09-.046L361-172h-.668zm-12.998 0l-19.217 38.218-66.285 32.955-.09.046-33.185 66.003-66.288 32.955-.087.044-33.187 66.003L62.708 97.18l-.09.044-33.187 66.003L-9 182.335V183l38.788-19.284.09-.045 33.185-66.004 66.286-32.955.089-.045 33.19-66.002L228.91-34.29l.089-.047 33.187-66.002 66.286-32.957.09-.043L348-172h-.667zm-12.003 0l-15.086 30-66.371 32.992-.09.046-33.23 66.073-66.369 32.991-.09.046-33.231 66.075L54.49 89.216l-.089.045-33.228 66.073-30.174 15V171l30.531-15.178.09-.044 33.228-66.073 66.373-32.993.087-.047 33.23-66.074 66.372-32.992.087-.044 33.232-66.075 66.37-32.99.089-.045L336-172h-.67zm-12 0l-10.95 21.767-66.462 33.03-.089.045-33.276 66.152-66.463 33.032-.09.044-33.274 66.153-66.463 33.03-.09.046-33.276 66.15L-9 158.332V159l22.253-11.061.09-.047 33.278-66.15 66.46-33.032.09-.043 33.276-66.152 66.464-33.032.087-.044 33.276-66.153 66.463-33.03.088-.046L324-172h-.67zm-13 0l-6.777 13.516-66.355 33.072-.09.044-33.22 66.237-66.355 33.073-.09.045-33.222 66.235-66.353 33.075-.09.043-33.224 66.236L-9 146.332V147l13.914-6.934.087-.045 33.222-66.236L104.58 40.71l.087-.044 33.224-66.235 66.353-33.074.09-.046 33.222-66.237 66.355-33.071.09-.045L311-172h-.67zm-11.996 0l-2.612 5.225-66.022 33.011-.087.044-33.058 66.111-66.02 33.01-.09.046-33.057 66.109-66.02 33.01-.09.045-33.055 66.111L-7 133.334V134l5.667-2.836 33.056-66.109 66.022-33.01.087-.047 33.056-66.109 66.023-33.01.088-.043 33.056-66.111 66.02-33.011.09-.045L299-172h-.666zm-17.67 0l-60.211 30.106-.09.045-33.202 66.405-66.317 33.158-.089.043-33.2 66.406-66.317 33.156-.09.046L-9 117.663V119l30.595-61.19L87.91 24.654l.09-.045L121.2-41.797l66.317-33.158.089-.044 33.2-66.404L282-172h-1.337zm-25 0l-43.594 21.714-.09.046-33.19 66.13L112.5-51.088l-.087.044-33.193 66.132-66.29 33.021-.088.045L-9 91.669V93l22.285-44.402 66.291-33.023.087-.045 33.193-66.13 66.29-33.02.089-.047 33.19-66.13L257-172h-1.336zm-24.005 0l-27.098 13.439-.09.044-33.315 66.074-66.535 32.992-.09.046L71.219 6.67 4.681 39.665l-.09.042L-9 66.67V68L5.04 40.151 71.575 7.158l.09-.045 33.311-66.076 66.537-32.991.09-.045 33.313-66.076L233-172h-1.341zm-25.992 0l-10.395 5.172-.09.045-33.155 66.008L95.8-67.815l-.089.044L62.554-1.765l-66.226 32.96-.089.044L-9 41.671V43l5.685-11.319L62.909-1.277l.09-.044 33.157-66.006 66.228-32.96.089-.046 33.155-66.007L207-172h-1.333zm-19.337 0l-31.789 63.255-66.553 33.107-.09.044L54.577-9.293-9 22.334V23L54.934-8.803l.09-.046 33.32-66.3 66.554-33.108.09-.044L187-172h-.67zm-12.998 0l-27.548 54.795-66.37 33.003-.09.045-33.228 66.095L-9 9.336V10l55.454-27.575.089-.042 33.226-66.098 66.372-33.002.09-.044L174-172h-.668zm-11.996 0l-23.183 46.366-65.77 32.886-.089.044-32.928 65.859L-7-3.662V-3l46.719-23.36.088-.043 32.93-65.859 65.77-32.885.088-.046L162-172h-.664zm-12.01 0l-19.351 38.22-66.757 32.956-.09.047-33.423 66.006L-9-15.663V-15l39.064-19.283.09-.047 33.421-66.006 66.757-32.958.09-.043L150-172h-.674zm-12.998 0l-15.127 30.047-66.544 33.042-.09.047L21.252-42.69-9-27.665V-27l30.61-15.2.09-.044 33.315-66.177 66.546-33.043.088-.044L137-172h-.672zm-13.992 0l-10.837 21.678-65.793 32.894-.089.044-32.94 65.881L-9-40.664V-40l22.029-11.016.088-.044 32.943-65.881 65.791-32.894.089-.046L123-172h-.664zm-12.002 0l-6.742 13.483-65.984 32.991-.09.045L4.48-59.406-9-52.666V-52l13.836-6.917.087-.047 33.038-66.075 65.987-32.991.087-.045L111-172h-.666zm-12 0l-2.624 5.241-66.224 33.112-.09.045L-3.76-67.288-9-64.668V-64l5.685-2.842 33.157-66.314 66.226-33.113.088-.044L99-172h-.667zm-16.678 0l-60.348 30.177-.09.044L-9-81.342V-80l30.666-61.331L83-172h-1.344zm-23.975 0l-43.033 21.516-.088.046L-7-107.319V-106l21.999-44L59-172h-1.32zm-26.018 0L4.642-158.488l-.09.045L-9-131.337V-130l13.999-27.999L33-172h-1.337zm-24.995 0l-10.358 5.18-.089.044L-9-156.332V-155l5.665-11.332L8-172H6.668zm527.365 45.931l-66.192 33.096-.089.045-33.138 66.28L368.42 6.45l-.087.042-33.14 66.281-66.19 33.095-.09.046-33.142 66.281-66.192 33.094-.09.045-33.138 66.283-66.192 33.094-.09.044-33.138 66.281L9 385h1.336l26.95-13.475.089-.044 33.14-66.281 66.192-33.096.09-.045 33.138-66.28 66.192-33.097.089-.044 33.14-66.282 66.19-33.094.09-.044 33.14-66.281 66.192-33.096.09-.043 33.14-66.28 66.192-33.097.089-.046L548-152.665V-154l-13.967 27.931zm10.287 8.428l-66.172 33.086-.089.045-33.133 66.262-66.172 33.085-.089.046-33.13 66.262-66.172 33.087-.09.043-33.13 66.262-66.174 33.086-.09.045-33.13 66.26-66.174 33.087-.089.046-33.13 66.26L36 385h1.334l10.379-5.189.089-.046 33.127-66.26 66.176-33.087.089-.044 33.13-66.263 66.173-33.086.089-.043 33.133-66.262 66.171-33.085.09-.046 33.13-66.263 66.172-33.086.09-.043 33.13-66.264 66.174-33.085.089-.044L550-127.664V-129l-5.68 11.359zm-58.01 42.36l-.09.045-33.194 66.118-66.298 33.015-.09.045-33.194 66.118-66.301 33.016-.09.044-33.192 66.122-66.3 33.012-.089.048-33.192 66.118-66.3 33.016-.09.042L56 385h.67l31.665-63.077 66.3-33.014.089-.046 33.194-66.12 66.3-33.014.09-.045 33.192-66.12L353.8 90.55l.09-.043 33.192-66.12 66.3-33.015.087-.047 33.196-66.118L550-106.334V-107l-63.69 31.72zm8.246 7.89l-.09.044-33.223 66.173-66.363 33.043-.09.044-33.224 66.175-66.36 33.041-.089.047-33.225 66.173-66.361 33.043-.09.044-33.223 66.175-66.363 33.043-.09.043L68 385h.67l27.542-54.858 66.363-33.042.09-.044 33.223-66.175 66.361-33.043.09-.043 33.223-66.177 66.363-33.043.09-.044 33.224-66.175L461.6-.685l.089-.045 33.225-66.173L550-94.333V-95l-55.444 27.608zm8.262 7.882l-.09.046-33.262 66.231-66.424 33.074-.09.042-33.255 66.233-66.427 33.072-.089.044-33.256 66.23-66.426 33.073-.09.046-33.26 66.231-66.424 33.072-.09.044L80 385h.67l23.411-46.628 66.426-33.07.09-.044 33.258-66.233 66.426-33.071.09-.045 33.257-66.229 66.424-33.073.09-.047L403.4 40.33l66.426-33.072.09-.045 33.257-66.233L550-82.332V-83l-47.182 23.49zm8.356 8.838l-.087.044-33.22 66.148-66.349 33.03-.087.044-33.221 66.146-66.35 33.028-.09.046-33.217 66.148-66.35 33.03-.088.046-33.22 66.146-66.35 33.03-.087.042L93 385h.672l19.23-38.298 66.348-33.028.09-.046 33.22-66.146 66.35-33.03.09-.046 33.215-66.148 66.352-33.028.09-.044 33.215-66.146 66.351-33.032.09-.044 33.219-66.146L550-69.333V-70l-38.826 19.329zm7.342 7.88l-.09.042-33.176 66.207-66.27 33.06-.088.046-33.177 66.206-66.27 33.06-.088.044-33.18 66.207-66.267 33.061-.09.045-33.178 66.206-66.27 33.06-.088.045L105 385h.669l15.063-30.057 66.266-33.06.09-.045 33.178-66.206 66.267-33.058.09-.048 33.178-66.207 66.269-33.06.089-.044 33.177-66.208 66.27-33.058.09-.045 33.177-66.208L549-57.333V-58l-30.484 15.209zm9.325 7.87l-.089.047-33.136 66.27-66.182 33.091-.09.045-33.135 66.272-66.181 33.091-.089.045-33.136 66.27-66.182 33.091-.088.045-33.137 66.27-66.181 33.091-.089.047L119 385h.67l10.9-21.803 66.182-33.091.089-.045 33.136-66.272 66.18-33.091.09-.043 33.137-66.27 66.18-33.091.09-.047 33.136-66.27 66.182-33.091.09-.047 33.135-66.27L550-45.332V-46l-22.159 11.08zm8.27 7.868l-.09.044-33.17 66.338-66.248 33.127-.089.042-33.171 66.34-66.25 33.123-.088.046-33.17 66.34-66.25 33.125-.089.044-33.167 66.337-66.25 33.126-.09.044L131 385h.67l6.765-13.531 66.248-33.125.09-.047 33.17-66.337 66.25-33.125.088-.045 33.168-66.339 66.252-33.123.087-.045 33.17-66.337 66.25-33.127.09-.045 33.169-66.337L550-33.33V-34l-13.89 6.947zm7.285 8.848l-.089.045-33.204 66.247-66.323 33.078-.09.046-33.201 66.246-66.324 33.08-.09.044-33.207 66.25-66.318 33.077-.089.043-33.205 66.248-66.322 33.08-.09.044L142 385h.67l2.62-5.234 66.323-33.077.087-.045 33.205-66.248 66.322-33.08.088-.042 33.207-66.248 66.318-33.079.09-.046 33.207-66.246 66.323-33.08.088-.042 33.205-66.248L549-20.332V-21l-5.604 2.795zm-23.944 75.142L453.24 89.96l-.09.045L420 156.135l-66.213 33.024-.089.044-33.151 66.132-66.215 33.022-.089.044-33.152 66.131L160 385h1.335l60.112-29.979.087-.044 33.154-66.131 66.212-33.024.09-.043 33.153-66.133 66.212-33.022.087-.045 33.152-66.13 66.214-33.023.09-.046L550-2.67V-4l-30.548 60.937zm8.176 7.564l-66.552 33.094-.088.045-33.323 66.278-66.552 33.093-.09.048-33.318 66.275-66.552 33.095-.09.044-33.319 66.279L183 385h1.342l43.759-21.758.09-.047 33.32-66.276 66.552-33.095.09-.047 33.32-66.274 66.55-33.095.09-.044 33.321-66.28 66.55-33.093.09-.045L550 21.334V20l-22.372 44.5zm8.412 8.417l-66.161 33.079-.09.046-33.122 66.25-66.163 33.079-.087.045-33.126 66.252-66.159 33.078-.089.045-33.127 66.25L210 385h1.334l26.938-13.468.09-.045 33.124-66.25 66.16-33.08.089-.045 33.125-66.25 66.16-33.08.09-.045 33.125-66.25 66.161-33.08.09-.044L550 46.332V45l-13.96 27.918zm8.266 8.433l-66.337 33.064-.09.043-33.216 66.217-66.336 33.064-.09.045-33.214 66.215-66.337 33.065-.089.046-33.214 66.215L234 385h1.335l10.403-5.185.09-.046 33.216-66.216 66.336-33.064.09-.045 33.214-66.217 66.337-33.064.089-.043 33.214-66.217 66.339-33.063.089-.046L550 71.331V70l-5.694 11.351zm-59.817 41.403l-.089.045-33.1 66.203-66.11 33.052-.09.049-33.1 66.199-66.114 33.056-.09.042L254 385h.665l31.577-63.155 66.114-33.054.089-.046 33.099-66.201 66.112-33.055.087-.044 33.102-66.201L548 91.665V91l-63.51 31.754zm9.194 7.902l-.089.046-33.147 66.3-66.21 33.101-.09.045-33.149 66.298-66.207 33.105-.089.043L267 385h.666l27.48-54.96 66.21-33.103.09-.045 33.147-66.299 66.209-33.104.089-.043 33.149-66.3 54.96-27.48V103l-55.317 27.656zm9.388 8.809l-.089.044-33.08 66.156-66.07 33.035-.088.046-33.077 66.157-66.07 33.035-.088.044L281 385h.665l23.288-46.575 66.067-33.033.09-.045 33.078-66.158 66.07-33.035.088-.044 33.08-66.156L550 116.664V116l-46.929 23.465zm8.207 7.893l-.087.047-33.131 66.262-66.173 33.087-.087.046-33.133 66.261-66.173 33.087-.09.042L293 385h.668l19.18-38.364 66.175-33.085.089-.047 33.127-66.26 66.175-33.087.089-.046 33.131-66.263L550 128.666V128l-38.722 19.358zm8.23 7.887l-.09.045-33.187 66.38-66.29 33.141-.087.045-33.187 66.375-66.29 33.144-.087.045L305 385h.667l15.067-30.134 66.288-33.144.09-.045 33.186-66.375 66.29-33.142.09-.049 33.186-66.375L550 140.667V140l-30.493 15.245zm8.255 8.826l-.09.044-33.251 66.218-66.415 33.065-.09.044-33.252 66.218-66.413 33.065-.089.046L317 385h.668l10.942-21.785 66.413-33.066.09-.044 33.251-66.22 66.415-33.065.09-.042 33.25-66.218L550 153.666V153l-22.237 11.07zm8.346 9.811l-.089.046-33.17 65.741-66.255 32.827-.089.044-33.174 65.739-66.255 32.826-.087.044L330 385h.667l6.767-13.409 66.257-32.826.087-.046 33.172-65.74 66.255-32.826.089-.044 33.172-65.74L550 167.662V167l-13.89 6.882zm8.281 5.923l-.09.045-33.24 66.487-66.397 33.195-.09.043-33.238 66.485-66.398 33.198-.09.045L342 385h.668l2.627-5.253 66.391-33.195.09-.045 33.244-66.485 66.398-33.198.087-.043 33.242-66.485 5.253-2.628V177l-5.61 2.805zm-26.923 75.26l-66.181 33.09-.09.045-33.135 66.269L357 385h1.336l60.081-30.041.087-.045 33.136-66.27 66.183-33.092.089-.042L548 195.336V194l-30.533 61.064zm10.305 8.391l-66.123 33.061-.087.045-33.108 66.212L384 385h1.335l43.475-21.737.089-.046 33.106-66.21 66.121-33.062.089-.046L550 220.335V219l-22.228 44.456zm8.194 7.614l-66.512 33.253-.09.045-33.298 66.6L408 385h1.34l27.082-13.54.09-.044 33.3-66.6 66.512-33.256.09-.045L550 244.343V243l-14.034 28.07zm8.326 8.344l-66.496 33.249-.09.046-33.295 66.585L433 385h1.34l10.428-5.214.09-.047 33.294-66.584 66.498-33.249.09-.044L550 269.34V268l-5.708 11.414zm-57.537 42.208l-.089.043L455 385h.665l31.444-62.892L550 290.665V290l-63.245 31.622zm8 8l-.089.043L467 385h.667l27.444-54.89L550 302.667V302l-55.245 27.622zm8.002 8l-.089.045L479 385h.671l23.443-46.888L550 314.672V314l-47.243 23.622zm7.998 8.668l-.088.042L491 385h.677l19.439-38.224L550 327.664V327l-39.245 19.29zm8.666 7.997l-.09.045L504 385h.671l15.108-30.22L550 339.67V339l-30.58 15.287zm8.003 8l-.09.047L516 385h.683l11.102-22.214L550 351.68V351l-22.576 11.287zm8.002 8l-.094.047L528 385h.702l7.098-14.198 14.2-7.1V363l-14.574 7.287zm9.323 9.337l-.084.042L542 385h.627l2.457-4.917 4.916-2.457V377l-5.25 2.624z" mask="url(#prefix__dc)" opacity=".217"/>
    </g>
</svg>
