<svg xmlns="http://www.w3.org/2000/svg" xmlns:xlink="http://www.w3.org/1999/xlink" width="114" height="114" viewBox="0 0 114 114" aria-labelledby="dubai-paraguay" role="img">
    <title id='dubai-paraguay'>Dubai Paraguay</title>
   <desc>Created with Sketch.</desc>
    <defs>
        <circle id="path-1ee" cx="45" cy="45" r="45"></circle>
        <filter x="-17.8%" y="-17.8%" width="135.6%" height="135.6%" filterUnits="objectBoundingBox" id="filter-3">
            <feMorphology radius="4" operator="dilate" in="SourceAlpha" result="shadowSpreadOuter1"></feMorphology>
            <feOffset dx="0" dy="0" in="shadowSpreadOuter1" result="shadowOffsetOuter1"></feOffset>
            <feGaussianBlur stdDeviation="4" in="shadowOffsetOuter1" result="shadowBlurOuter1"></feGaussianBlur>
            <feComposite in="shadowBlurOuter1" in2="SourceAlpha" operator="out" result="shadowBlurOuter1"></feComposite>
            <feColorMatrix values="0 0 0 0 0.856968976   0 0 0 0 0.856968976   0 0 0 0 0.856968976  0 0 0 0.46645542 0" type="matrix" in="shadowBlurOuter1"></feColorMatrix>
        </filter>
    </defs>
    <g id="invision---final" stroke="none" stroke-width="1" fill="none" fill-rule="evenodd">
        <g id="About-us" transform="translate(-744.000000, -4508.000000)">
            <g id="2019---1" transform="translate(323.000000, 4396.000000)">
                <g id="2019" transform="translate(0.000000, 94.000000)">
                    <g id="flag" transform="translate(409.000000, 0.000000)">
                        <rect id="Rectangle" x="0" y="0" width="282" height="150"></rect>
                        <g transform="translate(24.000000, 30.000000)">
                            <mask id="mask-2ee" fill="white">
                                <use xlink:href="#path-1ee"></use>
                            </mask>
                            <g id="Mask">
                                <use fill="black" fill-opacity="1" filter="url(#filter-3)" xlink:href="#path-1ee"></use>
                                <circle stroke="#333333" stroke-width="4" fill="#D8D8D8" fill-rule="evenodd" cx="45" cy="45" r="47"></circle>
                            </g>
                            <g id="Flag_of_Paraguay" mask="url(#mask-2ee)">
                                <g transform="translate(-75.000000, -21.000000)">
                                    <polygon id="Path" stroke="none" fill="#0038A8" fill-rule="nonzero" points="0 0 240 0 240 132 0 132"></polygon>
                                    <polygon id="Path" stroke="none" fill="#FFFFFF" fill-rule="nonzero" points="0 0 240 0 240 88 0 88"></polygon>
                                    <polygon id="Path" stroke="none" fill="#D52B1E" fill-rule="nonzero" points="0 0 240 0 240 44 0 44"></polygon>
                                    <path d="M136.7312,65.9956 C136.7312,75.2392 129.2428,82.7312 119.9996,82.7312 C110.761,82.7312 103.2688,75.2392 103.2688,65.9956 C103.2688,56.756 110.7612,49.2688 119.9996,49.2688 C129.2428,49.2688 136.7312,56.756 136.7312,65.9956 Z" id="Path" stroke="#000000" stroke-width="0.7374" fill="#FFFFFF" fill-rule="nonzero"></path>
                                    <path d="M128.0896,63.404 C127.6834,63.388 127.681,63.8356 127.681,63.8356 C127.681,63.8356 127.695,63.7032 127.6834,63.8536 C127.6756,64.0022 127.75,64.3646 128.05,64.3942 C128.3666,64.422 128.4718,64.052 128.4744,63.8724 C128.4744,63.8012 128.4512,63.4132 128.0896,63.4044" id="Path" stroke="#000000" stroke-width="0.5" fill="#009B3A" fill-rule="nonzero"></path>
                                    <path d="M109.5032,72.6936 L109.3598,72.4562 C109.3454,72.4298 109.308,72.3862 109.2482,72.3212 C109.219834,72.2892034 109.180055,72.2696013 109.1374,72.2666 C109.092188,72.2600623 109.046108,72.2693914 109.007,72.293 C108.9514,72.327 108.915,72.3724 108.909,72.428 C108.8984,72.4846 108.9248,72.5624 108.9876,72.6674 L109.1326,72.9144 L109.5032,72.6936 Z M110.9192,72.612 L109.0992,73.6944 L108.5436,72.7608 C108.4406,72.5856 108.378,72.4464 108.3536,72.3364 C108.325,72.2246 108.3386,72.1198 108.3848,72.0156 C108.4308,71.9104 108.5144,71.8228 108.6308,71.753 C108.720342,71.6984179 108.822073,71.6670051 108.9268,71.6616 C109.0288,71.6616 109.1218,71.6868 109.212,71.7346 C109.2676,71.7666 109.3324,71.8162 109.403,71.8882 C109.3862,71.8104 109.3766,71.749 109.3804,71.7014 C109.3864,71.6732 109.3992,71.6266 109.4246,71.5554 C109.4492,71.4874 109.4726,71.4398 109.4872,71.4096 L109.855,70.824 L110.23,71.46 L109.855,72.0914 C109.808,72.1712 109.7794,72.2326 109.7756,72.2754 C109.7734,72.3346 109.7864,72.3862 109.8146,72.4368 L109.8458,72.4884 L110.5832,72.0496 L110.9192,72.612 Z M107.7152,71.13 L107.1596,69.4696 L107.588,69.3256 L107.936,70.3664 L108.2572,70.2584 L107.93,69.2924 L108.3416,69.1582 L108.6648,70.1194 L109.0588,69.992 L108.7032,68.921 L109.1578,68.7662 L109.7222,70.4578 L107.7152,71.13 Z M107.7744,67.75 L107.752,67.5946 C107.7374,67.465 107.706,67.3814 107.658,67.3378 C107.60924,67.2939578 107.54388,67.2733868 107.4788,67.2814 C107.414,67.292 107.3612,67.3194 107.3208,67.3648 C107.2788,67.4156 107.2648,67.4992 107.2824,67.6208 L107.3002,67.8076 L107.7744,67.75 Z M106.9512,68.508 L106.825,67.4292 C106.7996,67.1976 106.833,67.0128 106.9298,66.8824 C107.0298,66.7532 107.1828,66.6754 107.3884,66.652 C107.6002,66.6256 107.7756,66.6712 107.9088,66.7834 C108.0404,66.8972 108.1246,67.0868 108.156,67.3474 L108.196,67.7026 L108.9752,67.612 L109.0516,68.2648 L106.9512,68.508 Z M106.8778,64.38 L106.9454,63.73 L108.2018,63.8652 C108.320255,63.8786669 108.435749,63.9112214 108.5438,63.9616 C108.651008,64.0095032 108.744617,64.0833188 108.8162,64.1764 C108.8888,64.27 108.9398,64.3594 108.9634,64.4558 C108.9954,64.583 109.0044,64.7388 108.9838,64.9178 C108.972007,65.0293127 108.952358,65.139854 108.925,65.2486 C108.8986,65.368 108.8576,65.4666 108.8064,65.5424 C108.752109,65.6233397 108.682952,65.6932427 108.6026,65.7484 C108.525461,65.8029711 108.437574,65.8404711 108.3448,65.8584 C108.2056,65.8868 108.0862,65.8924 107.9824,65.8808 L106.7318,65.7488 L106.7992,65.0978 L108.0824,65.237 C108.198,65.2486 108.29,65.2272 108.3614,65.1686 C108.4332,65.1112 108.4734,65.0278 108.487,64.9178 C108.499,64.8018 108.4752,64.7126 108.4192,64.6436 C108.3636,64.5724 108.2772,64.5326 108.1606,64.519 L106.8778,64.38 Z M108.9824,62.6016 L109.0952,62.2884 C109.1294,62.1824 109.1392,62.1004 109.1158,62.0412 C109.093208,61.9848639 109.045791,61.9421733 108.9874,61.9256 C108.9244,61.904 108.8726,61.908 108.8218,61.9392 C108.769,61.9712 108.7236,62.0392 108.6874,62.1452 L108.5758,62.4604 L108.9824,62.6016 Z M108.1976,62.3264 L108.2926,62.0606 C108.3246,61.9634 108.3336,61.8896 108.31,61.8398 C108.2926,61.792 108.2512,61.7542 108.1876,61.7358 C108.137564,61.7148912 108.08081,61.7173843 108.0328,61.7426 C107.9868,61.7698 107.9484,61.828 107.9172,61.9216 L107.818,62.1948 L108.1976,62.3264 Z M107.1986,62.6774 L107.6006,61.519 C107.6702,61.3262 107.7692,61.1978 107.9024,61.125 C108.027971,61.0575903 108.176225,61.0465439 108.3104,61.0946 C108.4258,61.1402 108.5138,61.2106 108.5748,61.3136 C108.6108,61.3816 108.6336,61.4712 108.6336,61.5752 C108.7168,61.4432 108.8128,61.3592 108.9196,61.3232 C109.0284,61.2844 109.147,61.2864 109.2754,61.3312 C109.3762,61.366 109.4606,61.4234 109.5274,61.4992 C109.591,61.5792 109.633,61.6668 109.6538,61.766 C109.6634,61.83 109.6586,61.9156 109.636,62.0218 C109.6028,62.1706 109.5832,62.2648 109.5664,62.3088 L109.194,63.3748 L107.1986,62.6774 Z M108.277,59.9664 L108.619,59.4082 L109.9812,60.2338 L110.5116,59.3626 L110.9556,59.6338 L110.0912,61.0628 L108.277,59.9664 Z M109.6742,57.8852 L110.0948,57.3842 L111.7088,58.7488 L111.2876,59.2498 L109.6742,57.8852 Z M112.6056,56.748 L113.1556,56.5128 C113.2262,56.6608 113.2664,56.8016 113.272,56.9398 C113.277494,57.0722289 113.250726,57.2040096 113.194,57.3238 C113.131,57.4454 113.0282,57.5632 112.8872,57.6868 C112.7076,57.8328 112.543,57.928 112.3872,57.9698 C112.2332,58.0098 112.0608,58 111.8688,57.9396 C111.6836,57.8784 111.5072,57.7452 111.3368,57.5456 C111.1152,57.2746 111.0132,57.0088 111.0358,56.748 C111.0574,56.4826 111.2004,56.2442 111.461,56.0244 C111.668,55.8532 111.86,55.7638 112.049,55.7492 C112.2334,55.7316 112.4294,55.7872 112.6262,55.9106 L112.2648,56.3794 C112.2098,56.3434 112.164,56.3194 112.1248,56.3114 C112.067621,56.2942208 112.006755,56.2935276 111.9492,56.3094 C111.889889,56.3224746 111.834682,56.3498723 111.7884,56.3892 C111.6736,56.4852 111.6238,56.604 111.6404,56.746 C111.6502,56.852 111.7178,56.9758 111.8354,57.1226 C111.9874,57.3026 112.1186,57.4034 112.2266,57.424 C112.3402,57.4474 112.445,57.4154 112.543,57.3336 C112.6382,57.252 112.69,57.1664 112.692,57.073 C112.6948,56.9736 112.6684,56.8658 112.6056,56.748 M114.7456,55.477 L114.193,54.905 L114.3322,55.6898 L114.7456,55.477 Z M115.075,55.8242 L114.4126,56.161 L114.4802,56.5198 L113.8852,56.8222 L113.6332,54.5762 L114.2692,54.2512 L115.9384,55.7758 L115.3298,56.087 L115.075,55.8242 Z M117.6476,53.6192 L117.8102,54.7612 L117.9692,54.7378 C118.1052,54.721 118.2004,54.691 118.2542,54.653 C118.3062,54.6112 118.3416,54.5578 118.363,54.474 C118.3864,54.3962 118.3864,54.2748 118.3622,54.1054 C118.331,53.8846 118.272,53.7368 118.1896,53.6666 C118.1056,53.5966 117.9788,53.5714 117.8104,53.5966 L117.6476,53.6192 Z M116.9362,53.2368 L117.8966,53.0986 C118.0858,53.0734 118.2396,53.0752 118.363,53.1104 C118.4904,53.1464 118.5952,53.2046 118.6874,53.2904 C118.7768,53.3758 118.8482,53.48 118.8992,53.6016 C118.954221,53.7290261 118.991113,53.8635341 119.0088,54.0012 C119.0432,54.223 119.0432,54.402 119.0068,54.5294 C118.976643,54.6544673 118.919812,54.7715397 118.8402,54.8726 C118.7598,54.9672 118.6706,55.0382 118.5716,55.078 C118.451024,55.1335843 118.323458,55.1725401 118.1924,55.1938 L117.23,55.3292 L116.9362,53.2368 Z M119.8144,52.8268 L121.5598,52.9562 L121.5274,53.4064 L120.4346,53.3248 L120.4092,53.6604 L121.4228,53.7352 L121.3862,54.1642 L120.378,54.0922 L120.3484,54.5048 L121.4726,54.5882 L121.4374,55.0648 L119.6584,54.9336 L119.8144,52.8268 Z M122.5036,53.0736 L123.132,53.2488 L122.6976,54.7858 L123.6788,55.063 L123.5356,55.561 L121.9252,55.105 L122.5036,53.0736 Z M126.0716,55.42 L126.2068,55.5076 C126.3108,55.5766 126.3988,55.6058 126.4628,55.5988 C126.527688,55.5942331 126.586105,55.5578347 126.6188,55.5016 C126.6538,55.4482 126.6668,55.388 126.6588,55.3226 C126.646,55.2606 126.5882,55.1974 126.4862,55.1302 L126.3302,55.025 L126.0716,55.42 Z M126.0196,54.3062 L126.9284,54.9056 C127.1252,55.0348 127.2408,55.1808 127.2764,55.3382 C127.3144,55.4978 127.2764,55.6652 127.1594,55.8384 C127.046,56.0144 126.8988,56.1176 126.7244,56.1476 C126.548,56.1758 126.3548,56.1214 126.1344,55.9764 L125.8356,55.778 L125.4062,56.4326 L124.8582,56.0698 L126.0196,54.3062 Z M128.314,57.5306 L128.6824,56.8256 L127.9828,57.204 L128.314,57.5306 Z M128.0906,57.9508 L127.5602,57.4296 L127.241,57.6048 L126.7658,57.1378 L127.7426,56.6866 L128.8188,56.1892 L129.3244,56.6894 L128.4052,58.7564 L127.9192,58.274 L128.0906,57.9508 Z M130.0548,58.8682 L130.2038,59.1036 C130.2216,59.1272 130.2538,59.1728 130.3204,59.2348 C130.350965,59.2648812 130.391561,59.2826156 130.4344,59.2846 C130.478543,59.2898388 130.523077,59.2787409 130.5596,59.2534 C130.6156,59.2174 130.6468,59.1728 130.6568,59.1154 C130.6644,59.0608 130.6352,58.979 130.5694,58.88 L130.4184,58.6388 L130.0548,58.8682 Z M128.6408,58.9936 L130.4234,57.8556 L131.0086,58.7728 C131.1172,58.942 131.186,59.0812 131.2192,59.1892 C131.244497,59.2964032 131.234825,59.4088884 131.1916,59.5102 C131.1484,59.6172 131.0692,59.7058 130.9576,59.779 C130.8566,59.843 130.7596,59.879 130.6596,59.879 C130.5646,59.8848 130.4676,59.8606 130.3724,59.8204 C130.302641,59.7775704 130.237903,59.7270549 130.1794,59.6698 C130.198,59.7476 130.2098,59.8108 130.2076,59.8546 C130.198388,59.9040238 130.185962,59.952794 130.1704,60.0006 C130.15452,60.0525644 130.133202,60.1027086 130.1068,60.1502 L129.7618,60.7476 L129.3618,60.124 L129.7208,59.484 C129.7688,59.3984 129.7922,59.3372 129.7922,59.2944 C129.7942,59.2368 129.7852,59.1824 129.7472,59.1336 L129.7188,59.0852 L128.9936,59.5472 L128.6408,58.9936 Z M131.14,61.8416 L131.774,61.363 L130.9814,61.407 L131.14,61.8416 Z M130.7552,62.1248 L130.5012,61.4254 L130.1404,61.4506 L129.91,60.8232 L132.17,60.8496 L132.4142,61.5168 L130.6982,62.9876 L130.463,62.3416 L130.7552,62.1248 Z M131.7672,64.374 L132.2024,64.3166 L132.3284,65.3246 L131.4338,65.4326 C131.2828,65.2574 131.1674,65.1006 131.1056,64.9576 C131.0368,64.8158 130.9928,64.6436 130.9676,64.4422 C130.9352,64.1932 130.9516,63.985 131.0212,63.8176 C131.084,63.6504 131.1958,63.5112 131.3524,63.4012 C131.5104,63.2972 131.6966,63.2282 131.9132,63.202 C132.1416,63.172 132.3482,63.1952 132.5284,63.27 C132.709,63.342 132.854,63.4636 132.9668,63.6348 C133.0538,63.7702 133.1116,63.956 133.139,64.1972 C133.1714,64.4276 133.1714,64.6036 133.141,64.7234 C133.118244,64.8403548 133.062921,64.9485053 132.9814,65.0354 C132.89569,65.129316 132.789277,65.20197 132.6706,65.2476 L132.4806,64.6376 C132.5562,64.5998 132.6118,64.5514 132.6452,64.482 C132.6796,64.416 132.6884,64.3322 132.6796,64.2408 C132.656,64.0968 132.5972,63.99 132.4896,63.918 C132.3788,63.846 132.2158,63.8234 132.0022,63.85 C131.775,63.878 131.6212,63.9432 131.5318,64.0376 C131.4478,64.1368 131.4164,64.264 131.432,64.416 C131.44,64.488 131.4612,64.5552 131.4888,64.6174 C131.5192,64.6834 131.5632,64.7506 131.624,64.8344 L131.8232,64.807 L131.7672,64.374 Z M133.106,67.5452 L133.0316,68.1928 L131.7812,68.0518 C131.661384,68.0388206 131.544651,68.0055456 131.436,67.9534 C131.330631,67.9034122 131.238128,67.8299293 131.1656,67.7386 C131.094,67.6474 131.045,67.5546 131.0216,67.4614 C130.991,67.3262 130.9832,67.1744 131.0036,66.9964 C131.0176,66.8952 131.0374,66.7834 131.0616,66.6638 C131.0902,66.544 131.1322,66.4468 131.1852,66.371 C131.240195,66.2919712 131.308553,66.2231399 131.3872,66.1676 C131.4792,66.1102 131.5634,66.0742 131.6476,66.0596 C131.785,66.0334 131.9074,66.0248 132.0104,66.0404 L133.2628,66.1832 L133.1884,66.8292 L131.9074,66.682 C131.7908,66.6696 131.6986,66.69 131.626,66.7474 C131.5556,66.8056 131.5132,66.8874 131.5018,66.9994 C131.489,67.114 131.5106,67.2046 131.5672,67.2736 C131.6224,67.3436 131.7084,67.3856 131.8232,67.403 L133.106,67.5452 Z M131.1596,69.952 L131.9564,69.9804 L131.3132,69.5114 L131.1596,69.952 Z M130.687,69.928 L130.9282,69.2266 L130.633,69.0154 L130.8526,68.3842 L132.5912,69.8288 L132.352,70.5046 L130.099,70.56 L130.3204,69.9122 L130.687,69.928 Z M131.8544,71.8748 L131.4866,72.5002 L130.6538,72.503 L131.0524,73.2346 L130.687,73.8524 L130.0442,72.5204 L129.2818,72.0712 L129.6168,71.506 L130.3784,71.9584 L131.8544,71.8748 Z" id="Shape" stroke="none" fill="#000000" fill-rule="nonzero"></path>
                                    <path d="M134.002,66.0008 C134.002,73.7388 127.7316,80.0098 119.9974,80.0098 C112.261,80.0098 105.9908,73.7386 105.9908,66.001 C105.9908,58.2686 112.2608,51.9986 119.9972,51.9986 C127.7316,51.9986 134.002,58.2686 134.002,66.0006 L134.002,66.0008 Z" id="Path" stroke="#000000" stroke-width="0.5" fill="none"></path>
                                    <path d="M130.4188,65.9508 C130.4188,71.7106 125.754,76.3756 119.9972,76.3756 C114.2402,76.3756 109.5736,71.7106 109.5736,65.9508 C109.5736,60.1968 114.2402,55.5304 119.9968,55.5304 C125.754,55.5304 130.4188,60.1968 130.4188,65.9508 L130.4188,65.9508 Z" id="Path" stroke="#000000" stroke-width="0.5" fill="none"></path>
                                    <polygon id="Path" stroke="#000000" stroke-width="0.5" fill="#FEDF00" fill-rule="nonzero" points="119.998 62.2024 120.8734 64.7084 123.5222 64.7676 121.4114 66.3728 122.1788 68.9124 119.998 67.4028 117.8164 68.9124 118.58 66.3728 116.466 64.7676 119.12 64.7084"></polygon>
                                    <path d="M124.8104,73.1458 C124.722,73.2198 124.3664,73.2596 124.2724,73.2754 C124.1772,73.2878 123.8038,73.2916 123.6458,73.2974 C123.5588,73.3034 123.3912,73.3276 123.304,73.3276 C122.5384,73.2404 124.5478,73.2526 124.8104,73.1456 M122.8042,72.5536 C122.8542,72.464 123.1052,71.9056 123.1954,71.747 C123.2874,71.5912 123.4952,71.1758 123.6194,71.003 C123.6834,70.9094 123.9332,70.6382 123.9928,70.7596 C123.5578,71.1356 123.2148,71.7922 123.032,72.2336 C123.0084,72.2812 122.8654,72.527 122.8126,72.5914 C122.7614,72.6544 122.7824,72.7738 122.7022,72.7834 C122.6176,72.794 122.6768,72.8094 122.6768,72.8094 C122.6768,72.8094 122.7492,72.6478 122.8042,72.5534 L122.8042,72.5536 Z M125.6904,72.9806 C125.6904,72.9806 125.3444,72.9288 125.1298,72.853 C124.9162,72.781 124.5574,72.7258 124.2516,72.7334 C123.9488,72.7374 123.6716,72.8288 123.4246,72.923 C123.1786,73.0144 122.86,73.0222 122.86,73.0222 C122.86,73.0222 122.6796,73.0504 122.764,73.0088 C122.8442,72.9688 123.1236,72.7508 123.1236,72.7508 L123.304,72.5038 C123.356,72.4894 124.2712,71.2884 124.1716,70.966 C124.3118,70.7288 124.476,70.3054 124.4144,70.2316 C124.385,70.2016 123.7018,70.4484 123.552,70.5844 C123.3784,70.7344 123.256,71.0468 123.204,71.2268 C123.1532,71.4056 122.8904,71.5534 122.8904,71.5534 C122.6768,71.707 122.522,72.1934 122.4494,72.5914 C122.376,72.9842 121.4078,73.202 121.4078,73.202 C121.4078,73.202 121.1392,73.3022 121.3776,73.378 C121.4186,73.3896 121.525,73.5694 121.6104,73.5722 C121.7288,73.586 122.33,73.3286 122.423,73.349 C122.627199,73.3952847 122.829262,73.4505382 123.0286,73.5146 C123.258,73.5924 123.4472,73.6322 123.6076,73.573 C123.7704,73.5144 124.0028,73.537 124.1772,73.571 C124.3488,73.608 124.5408,73.5924 124.6514,73.5582 C124.77,73.5222 125.0818,73.349 125.0818,73.349 C125.0818,73.349 125.419,73.203 125.6138,73.1116 C125.809,73.0204 125.6904,72.9804 125.6904,72.9804" id="Shape" stroke="#000000" stroke-width="0.5" fill="#009B3A" fill-rule="nonzero"></path>
                                    <path d="M123.0598,74.149 C123.0598,74.149 121.7268,73.4516 121.6552,73.435 C121.6132,73.4292 121.0504,73.119 120.793,73.039 C120.6068,72.9788 120.35,72.963 120.2578,72.969 C120.0384,72.9844 119.68,73.0812 119.68,73.0812 L120.0112,73.2166 C120.0112,73.2166 120.322,73.3692 120.474,73.451 C120.6914,73.5658 120.7012,73.7056 120.7012,73.7056 L121.9082,74.2366 L122.153,74.4126 C122.153,74.4126 122.3758,74.1052 123.0598,74.149" id="Path" stroke="#000000" stroke-width="0.5" fill="#009B3A" fill-rule="nonzero"></path>
                                    <path d="M124.4004,71.3806 C124.8196,71.0066 125.0246,70.475 125.3696,70.1806 C125.4256,70.2206 125.4256,70.2874 125.3572,70.4052 C125.292,70.5212 125.2052,70.5612 125.1672,70.6216 C125.0968,70.716 124.8868,70.8904 124.83,70.9952 C124.7796,71.0944 124.7144,71.2332 124.5314,71.3388 C124.3494,71.4476 124.4066,71.6206 124.3914,71.6932 C124.3768,71.7732 124.0964,71.974 123.961,72.2222 C123.9352,72.481 123.9236,72.3724 123.7666,72.4644 C124.0522,72.0338 124.2024,71.7564 124.4004,71.3804 M123.4582,72.5638 C123.4312,72.6204 122.6044,73.0898 122.863,73.0202 C123.12,72.9526 123.884,72.6768 124.101,72.5802 C124.3664,72.4644 124.5256,72.2212 124.725,72.0236 C124.9284,71.8216 125.5576,71.2202 125.6664,70.9884 C125.7728,70.7496 125.8696,70.4176 125.443,69.672 C125.443,69.672 125.3768,69.8146 125.2178,69.954 C125.0606,70.0966 124.8262,70.2544 124.8262,70.2544 L124.5526,70.513 C124.5526,70.513 123.5864,72.288 123.4582,72.564" id="Shape" stroke="#000000" stroke-width="0.5" fill="#009B3A" fill-rule="nonzero"></path>
                                    <path d="M126.8172,71.9392 C126.8172,71.9392 126.288,71.8918 126.242,71.8918 C126.192,71.8918 125.902,71.8518 125.4804,71.8518 C125.0628,71.8518 124.906,71.9966 124.7964,72.1132 C124.6778,72.2438 124.3484,72.5452 124.3484,72.5452 L124.526,72.5296 C124.9492,72.2 125.2786,72.3208 125.41,72.3112 C125.5472,72.3064 125.7122,72.32 126.136,72.17 C126.566,72.0192 126.5408,72.1604 126.4936,72.1748 C126.288243,72.2487209 126.073154,72.2921162 125.8552,72.3036 C125.536,72.3212 125.2558,72.383 125.1304,72.383 C125.004,72.383 124.0724,72.638 124.0724,72.638 C124.0724,72.638 125.0804,72.697 125.1892,72.733 C125.2972,72.777 125.4668,72.7564 125.6068,72.6892 C125.993,72.5112 126.1676,72.4772 126.3262,72.4412 C126.486,72.4102 126.6762,72.3022 126.6762,72.3022 C126.6762,72.3022 126.7782,72.2378 126.8722,72.067 C126.9692,71.8918 126.817,71.9392 126.817,71.9392 M127.3118,69.1772 C127.3754,69.0194 127.5344,68.6488 127.703,68.503 C127.8058,68.4134 127.983,68.3716 128.0772,68.3318 C128.1172,68.3182 128.4068,68.3042 128.0452,68.4036 C127.8952,68.4436 127.6924,68.5322 127.6024,68.6832 C127.476,69.034 127.3656,69.3398 127.1308,69.564 C126.9584,69.745 126.8492,69.9806 126.8492,69.9806 L126.6644,70.0446 C127.0032,69.8372 127.1504,69.4524 127.3118,69.1772 L127.3118,69.1772 Z M128.9504,68.9796 C128.7574,69.044 128.6896,69.0972 128.6896,69.0972 C128.2576,69.2268 128.0808,69.498 127.8916,69.7188 C127.7956,69.8344 127.6604,69.9208 127.2046,70.1162 C126.7882,70.2952 126.466,70.5718 126.4582,70.5718 C126.4582,70.5718 126.3262,70.5988 126.3514,70.663 C126.3612,70.6934 126.4738,70.669 126.4738,70.669 C126.4738,70.669 127.3318,70.5466 127.6894,70.329 C127.9178,70.1858 128.047,70.0816 128.2634,69.747 C128.3604,69.5992 128.4692,69.321 128.4742,69.5 C128.491,69.9746 127.7536,70.4348 127.4326,70.5768 C127.2606,70.6498 127.0316,70.68 126.7318,70.7294 C126.4356,70.784 126.2554,70.7676 126.277,70.7024 C126.3072,70.608 126.3418,70.5884 126.42,70.4952 C126.5612,70.327 126.902,70.2674 127.153,70.1496 C127.45,70.0166 127.7314,69.8208 127.8724,69.6536 C128.0164,69.4846 128.0664,69.4222 128.1056,69.2794 C128.2156,68.9056 128.2212,68.6986 128.3242,68.5652 C128.6866,68.1188 128.7396,67.9748 128.7574,67.7756 C128.7612,67.7296 128.5692,67.8814 128.4694,67.9368 C128.2742,68.0524 128.2018,68.0524 127.802,68.1568 C127.396,68.258 127.405,68.5196 127.342,68.6432 C127.3236,68.6926 127.159,68.898 127.0804,68.936 C127.002,68.9758 126.809,69.2548 126.7376,69.4184 C126.6848,69.5378 126.5904,69.6236 126.515,69.614 C126.4358,69.5992 126.667,68.7346 126.7178,68.5916 C126.7728,68.4496 126.7836,68.1722 126.7836,68.0788 C126.7836,67.9894 126.7868,67.754 126.63,67.7276 C126.474,67.7012 126.4668,67.4858 126.4668,67.4858 C126.0916,67.8108 126.3012,68.3834 126.3416,68.7228 C126.3818,69.0592 126.2642,69.6818 126.2642,69.6818 C126.6266,69.8366 126.3416,70.277 126.229,70.4194 C126.1104,70.564 125.8858,70.5904 125.785,70.718 C125.6782,70.8492 124.9188,71.9066 124.9188,71.9066 L125.8634,71.639 C125.8634,71.639 125.9514,71.6546 125.8104,71.5478 C125.6674,71.4454 125.8564,71.0486 125.978,70.9514 C126.2102,70.7694 126.524,70.9018 126.524,70.9018 C126.524,70.9018 126.962,70.969 127.499,70.7558 C127.9478,70.5788 128.1408,70.2918 128.3534,70.0758 C128.4692,69.9584 128.6808,69.568 128.8142,69.3368 C128.8946,69.2032 129.0386,68.9494 128.9502,68.9796" id="Shape" stroke="#000000" stroke-width="0.5" fill="#009B3A" fill-rule="nonzero"></path>
                                    <path d="M126.272,71.519 C126.344,71.4898 126.3548,71.4768 126.487,71.3326 C126.617,71.1886 126.5024,70.9454 126.3012,70.9552 C126.2028,70.9618 126.0982,70.939 125.9048,71.1992 C125.718,71.4596 125.9942,71.5548 126.0992,71.5656 C126.144,71.568 126.2032,71.5484 126.272,71.519" id="Path" stroke="#000000" stroke-width="0.5" fill="#009B3A" fill-rule="nonzero"></path>
                                    <path d="M125.7836,69.8726 C125.6584,70.082 125.5916,70.3224 125.69,70.3966 C125.712,70.4088 125.7992,70.4854 125.8728,70.4854 C125.9452,70.4854 126.1508,70.3868 126.2678,70.206 C126.3852,70.0308 126.4812,69.8384 126.2412,69.7188 C126.0236,69.611 125.874,69.7118 125.7836,69.8724" id="Path" stroke="#000000" stroke-width="0.5" fill="#009B3A" fill-rule="nonzero"></path>
                                    <path d="M126.4982,67.316 C126.4982,67.316 126.518,67.2838 126.4356,67.1984 C126.3052,67.0648 126.142,66.827 126.142,66.827 C125.8824,66.969 125.796,67.256 125.796,67.37 C125.796,67.4884 125.84,67.7462 125.8,68.009 C125.786,68.0984 125.7716,68.2006 125.6432,68.5256 C125.5118,68.8464 125.6618,69.1412 125.6912,69.2452 C125.7136,69.3484 125.8208,69.6692 125.8208,69.6692 C125.8208,69.6692 125.9224,69.604 125.9568,69.5964 C125.9968,69.5856 126.1352,69.5916 126.1352,69.5916 C126.1352,69.5916 126.2916,69.3088 126.2972,69.1516 C126.3002,69.0356 126.2818,68.8392 126.2268,68.5376 C126.1504,68.0988 126.1552,67.9736 126.2072,67.7282 C126.2592,67.4792 126.4982,67.3156 126.4982,67.3156" id="Path" stroke="#000000" stroke-width="0.5" fill="#009B3A" fill-rule="nonzero"></path>
                                    <path d="M126.8856,67.754 C126.8856,67.754 127.033,67.7188 127.1072,67.5852 C127.2008,67.424 127.1762,67.2528 127.1762,67.2528 C126.9478,66.8102 126.641,67.1674 126.641,67.1674 C126.3662,67.7294 126.8854,67.7542 126.8854,67.7542" id="Path" stroke="#000000" stroke-width="0.5" fill="#009B3A" fill-rule="nonzero"></path>
                                    <path d="M127.663,66.9428 C127.3222,66.9604 127.1546,67.5728 127.1546,67.5728 C127.1546,67.5728 127.0994,67.7242 126.9178,67.8412 C126.7246,67.9606 126.8386,68.1322 126.8386,68.4372 C126.8386,68.742 126.626,69.2812 126.626,69.2812 L126.5468,69.464 C126.5468,69.464 126.5542,69.6012 126.6784,69.352 C126.8896,68.9328 127.1212,69.0346 127.2084,68.5834 C127.2636,68.2478 127.8192,68.141 127.8192,68.141 L127.663,68.1118 C127.0856,67.8412 127.6964,67.1664 127.795,67.0468 C127.8998,66.9276 127.9996,66.9276 127.663,66.9428" id="Path" stroke="#000000" stroke-width="0.5" fill="#009B3A" fill-rule="nonzero"></path>
                                    <path d="M127.5658,67.6692 C127.4098,68.0038 127.8538,68.02 127.9562,67.9616 C127.9976,67.9376 128.0914,67.8262 128.0914,67.8262 C128.2714,67.5674 128.1068,67.3922 128.0128,67.3672 C127.9224,67.3372 127.7294,67.3142 127.5658,67.6692" id="Path" stroke="#000000" stroke-width="0.5" fill="#009B3A" fill-rule="nonzero"></path>
                                    <path d="M126.7224,66.3708 C126.839,66.5878 127.1644,67.1916 127.2408,67.154 C127.2888,67.1306 127.2508,67.007 127.2508,67.007 C127.2508,67.007 127.241,66.8436 127.188,66.646 C127.136,66.4468 127.1486,66.1918 127.0448,66.0284 C126.944,65.8652 126.702,65.6714 126.6068,65.4136 C126.5128,65.155 126.5866,64.6656 126.5944,64.6054 C126.604,64.549 126.6326,64.586 126.5824,64.5276 C126.5316,64.4642 126.1204,64.2454 126.1204,64.2454 C126.1204,64.2454 126.1444,64.405 126.1344,64.694 C126.1304,64.764 126.1108,64.8456 126.1,64.9672 C126.0904,65.083 126.16,65.2288 126.3286,65.5616 C126.5244,65.9468 126.6186,66.1832 126.7224,66.3708 M129.1896,63.4982 C129.1896,63.4982 129.071,63.6958 129.0288,63.7394 C128.9848,63.7834 128.3146,64.3592 128.2764,64.3834 C128.244,64.4088 127.894,64.5206 127.5756,65.3814 C127.2562,66.2394 127.3944,67.0418 127.3944,67.0418 L127.5492,67.0226 L127.5756,66.9386 C127.5756,66.9386 127.6276,66.6538 127.6676,66.4378 C127.712,66.2248 127.9508,65.927 128.1094,65.7072 C128.2606,65.4922 128.3824,65.1832 128.3824,65.1832 C128.562,64.8212 128.6484,64.4976 128.8264,64.2452 C128.8334,64.5458 127.691,66.3936 127.5686,67.0224 L127.907,66.9708 C128.1772,66.7238 128.531,66.2052 128.7704,65.8708 C129.0112,65.5352 129.1136,65.0108 129.1574,64.7784 C129.1994,64.5488 129.1898,63.4984 129.1898,63.4984" id="Shape" stroke="#000000" stroke-width="0.5" fill="#009B3A" fill-rule="nonzero"></path>
                                    <path d="M126.912,63.6884 C126.7394,63.5288 126.6052,63.481 126.6052,63.481 C126.6052,63.481 126.6464,63.7942 126.6464,63.985 C126.6464,64.1764 126.6632,64.4976 126.6532,64.669 C126.6464,64.8398 126.5612,65.123 126.6826,65.4002 C126.8072,65.6736 126.9472,65.8128 127.0462,65.9848 C127.1364,66.1532 127.3016,67.0282 127.3016,67.0282 C127.3016,67.0282 127.2412,65.845 127.2932,65.5102 C127.3412,65.1814 127.357,64.6688 127.2836,64.412 C127.207,64.154 127.0804,63.8518 126.912,63.6884 M127.7006,62.5332 C127.7526,62.432 127.8742,62.2228 127.925,61.9046 C127.9436,61.7696 127.9562,61.5506 127.9514,61.399 C127.9476,61.2976 127.9074,61.1218 127.9514,61.11 C127.9906,61.1004 127.958,61.1648 127.9802,61.3148 C127.991,61.3682 127.9542,61.5164 127.9474,61.706 C127.9384,61.8576 127.9324,61.9844 127.8648,62.1896 C127.806,62.3704 127.8592,62.5712 127.823,62.6276 C127.784,62.6848 127.68,62.9018 127.68,62.9018 C127.68,62.9018 127.6164,63.077 127.6272,63.2364 C127.633,63.3996 127.6428,63.576 127.6428,63.576 C127.6428,63.576 127.7182,63.436 127.8868,63.4126 C127.8868,63.4126 127.925,63.139 127.925,63.0536 C127.925,62.9678 128.0348,62.4076 128.0906,62.2364 C128.167,61.9856 128.221,61.5488 128.0996,61.0418 C128.066,60.9048 128.0416,60.4758 128.0416,60.4758 C128.0416,60.4758 127.88,60.6052 127.784,61.0944 C127.7544,61.2432 127.8172,61.642 127.7926,62.0672 C127.783,62.3016 127.558,63.2518 127.5276,63.3112" id="Shape" stroke="#000000" stroke-width="0.5" fill="#009B3A" fill-rule="nonzero"></path>
                                    <path d="M127.7006,62.5332 C127.6926,62.5476 127.6898,62.5536 127.6898,62.5536 C127.6898,62.5536 127.6966,62.5476 127.7006,62.5332" id="Path" stroke="#000000" stroke-width="0.5" fill="#009B3A" fill-rule="nonzero"></path>
                                    <path d="M127.0634,60.067 C127.1498,60.067 127.1498,60.1604 127.132,60.2342 C127.1184,60.3102 127.1204,60.4512 127.1204,60.4802 C127.1204,60.5134 127.1564,60.7148 127.1852,60.8198 C127.2164,60.9278 127.2704,60.9618 127.2468,61.1786 C127.2308,61.315 127.0908,61.4752 127.14,61.7068 C127.1664,61.8286 127.2536,61.956 127.2968,62.0608 C127.3328,62.1338 127.3132,62.3122 127.3232,62.458 C127.327,62.6 127.4054,62.696 127.4054,62.696 C127.4054,62.696 127.3084,62.8772 127.276,62.6506 C127.2408,62.3906 127.229,62.275 127.1792,62.1574 C127.0978,61.9646 127.0232,61.618 127.1496,61.3508 C127.1712,61.2992 127.188,61.2032 127.188,61.0892 C127.188,60.9734 127.1168,60.7756 127.103,60.6532 C127.091,60.5558 127.099,60.3506 127.099,60.2764 M126.646,61.3644 C126.6664,61.5112 126.7136,61.5948 126.8792,61.914 C126.9302,62.0192 127.046,62.2876 127.0634,62.3732 C127.084,62.4588 127.1018,62.562 127.1018,62.5882 C127.1018,62.6164 127.1204,62.8178 127.1204,62.8178 L127.1204,62.9014 C127.1204,62.9014 126.6616,62.634 126.4608,62.491 C126.2608,62.347 126.0336,62.1494 125.8884,62.03 C125.7238,61.8946 125.3316,61.4296 125.3268,61.0572 L125.1466,60.8938 C125.1466,60.8938 125.0092,61.7216 125.658,62.2574 C125.8452,62.411 126.0492,62.5804 126.4852,62.7778 C126.9224,62.9794 126.865,63.1596 127.0472,63.5468 C127.2266,63.9358 127.339,64.1596 127.3616,64.2696 C127.3772,64.3872 127.3118,66.041 127.3118,66.041 L127.3274,66.191 C127.3274,66.191 127.727,64.659 127.919,64.488 C127.919,64.488 127.538,64.4294 127.5682,63.8304 L127.5014,63.4354 C127.5014,63.4354 127.4252,62.9606 127.5682,62.666 C127.5682,62.666 127.7378,62.126 127.68,61.6592 C127.6438,61.38 127.6308,61.2964 127.5968,61.0288 C127.5448,60.6124 127.378,60.0172 127.3594,59.9452 C127.3024,59.7362 127.283,59.704 127.2164,59.5388 C127.1966,59.4804 127.1594,59.2876 127.0978,59.2847881 C127.0624,59.2828 127.0084,59.5328 127.0084,59.5328 C127.0084,59.5328 126.9284,59.8052 126.9116,59.879 C126.8596,60.099 126.738,60.2836 126.6824,60.7778 C126.6724,60.8674 126.6626,61.1086 126.6518,61.1408 C126.646,61.168 126.6344,61.31 126.646,61.3644" id="Shape" stroke="#000000" stroke-width="0.5" fill="#009B3A" fill-rule="nonzero"></path>
                                    <path d="M126.9866,63.4546 C126.9866,63.4546 126.92,63.3066 126.8522,63.2308 C126.7162,63.0704 126.533,62.9342 126.0116,62.6794 C125.4922,62.4206 125.3548,61.9954 125.0902,61.8204 C124.9688,61.7366 124.7336,61.6968 124.7336,61.6968 C124.7336,61.6968 124.9648,62.015 125.0196,62.1248 C125.0902,62.2648 125.107,62.3602 125.393,62.6268 C125.6772,62.8944 126.0242,62.9878 126.2476,63.054 C126.5632,63.152 126.9866,63.4548 126.9866,63.4548 M125.3496,60.9964 C125.3636,61.0384 125.4976,61.4956 125.7788,61.8508 C126.2088,62.3944 127.037,62.7828 127.037,62.7828 C126.9596,62.4444 126.8246,62.0532 126.7178,61.88 C126.3412,61.272 125.3468,60.974 125.3468,60.974 C125.3468,60.974 125.3292,60.9508 125.3496,60.9964 M126.5368,61.2528 C126.7596,60.7648 126.0944,60.2988 125.9068,59.9588 C125.9762,59.9036 126.0586,60.0484 126.1348,60.1448 C126.2438,60.2896 126.5506,60.7088 126.5506,60.7088 L126.6456,60.2624 L125.8534,59.5416 C125.8438,59.6464 125.599,59.7326 125.599,59.7326 C125.4804,60.3998 126.537,61.2526 126.537,61.2526" id="Shape" stroke="#000000" stroke-width="0.5" fill="#009B3A" fill-rule="nonzero"></path>
                                    <path d="M125.1574,60.122 C124.9664,60.2076 124.8986,60.2076 124.8986,60.2076 L125.0052,60.4904 L125.0672,60.5672 C125.0672,60.5672 125.316,60.9272 125.461,60.972 C125.5216,60.9944 125.7482,61.034 125.9756,61.1314 C126.2616,61.253 126.7286,61.6614 126.7286,61.6614 C126.7286,61.6614 125.9518,60.7854 125.654,60.1286 L125.5536,59.7502 L125.272,59.7688 C125.272,59.7688 125.3494,60.0346 125.1574,60.1222" id="Path" stroke="#000000" stroke-width="0.5" fill="#009B3A" fill-rule="nonzero"></path>
                                    <path d="M122.2502,59.5618 C122.380772,59.6793314 122.522206,59.7842019 122.6726,59.875 C122.844,59.9782 123.338,60.2688 123.7076,60.339 C123.794,60.3526 124.258,60.411 124.258,60.411 C124.2766,60.2076 124.4972,60.19 124.4972,60.19 L123.8398,60.118 C123.3096,60.0788 122.9062,59.8572 122.5922,59.5024 C123.0134,59.7578 123.619,60.16 124.1098,60.1384 C126.1248,59.9404 123.5026,59.8904 123.2752,59.7446 C123.034,59.5958 122.8284,59.3486 122.8284,59.3486 L122.2376,59.3222 C122.2376,59.3222 121.9472,59.304 122.2502,59.5618" id="Path" stroke="#000000" stroke-width="0.5" fill="#009B3A" fill-rule="nonzero"></path>
                                    <path d="M124.6226,60.7092 C124.753,60.6996 124.8442,60.6752 124.8736,60.5324 C124.9,60.3728 124.8394,60.257 124.6472,60.215 C124.5404,60.1886 124.3532,60.183 124.2768,60.3728 C124.1936,60.5672 124.4962,60.692 124.4962,60.692 C124.4962,60.692 124.554,60.7172 124.6226,60.7092 M124.8486,59.554 C124.678,59.554 124.6202,59.6932 124.6566,59.9644 C124.7016,60.238 125.12,60.1184 125.12,60.1184 L125.1974,60.0784 C125.1974,60.0784 125.2544,60.0344 125.2228,59.8168 C125.1934,59.594 125.02,59.554 124.8484,59.554" id="Shape" stroke="#000000" stroke-width="0.5" fill="#009B3A" fill-rule="nonzero"></path>
                                    <path d="M125.5272,59.746 C125.532,59.744 125.5438,59.738 125.588,59.7256 C125.675,59.6926 125.7632,59.4832 125.7632,59.4832 C125.8072,59.2004 125.6048,59.1304 125.6048,59.1304 C125.2634,59.0624 125.2546,59.3618 125.2546,59.3618 C125.1606,59.7518 125.477,59.748 125.527,59.7458 M124.008,58.4064 C124.027,58.536 124.211,58.7236 124.2396,58.7558 C124.2728,58.7848 124.5082,59.0302 124.5876,59.1398 C124.6668,59.25 124.9308,59.7484 124.9308,59.7484 C124.9308,59.7484 124.9768,59.7408 124.9964,59.7028 C125.0424,59.6252 124.8196,59.0212 124.7972,58.9796 C124.7156,58.7962 124.5824,58.6594 124.4482,58.5164 C124.417,58.4962 124.307,58.355 124.1866,58.2034 C124.4252,58.5086 125.0366,59.3764 125.2168,59.7622 C125.2168,59.7622 125.195,59.351 125.1724,59.1302 C125.0962,58.4862 124.9284,58.2868 124.8746,58.1936 C124.7796,58.0196 124.5386,57.8504 124.3658,57.7908 C124.1936,57.7284 123.9896,57.6428 123.7712,57.5728 C123.5456,57.504 123.7192,57.7072 123.8024,57.8824 C123.9064,58.0896 123.9896,58.2754 124.0084,58.4066" id="Shape" stroke="#000000" stroke-width="0.5" fill="#009B3A" fill-rule="nonzero"></path>
                                    <path d="M123.167,59.4658 C123.3896,59.6544 123.4894,59.7858 123.951,59.8538 C124.4164,59.9268 124.4556,59.8958 124.4556,59.8958 C124.4556,59.8958 124.697,59.7792 124.5744,59.677 C123.8904,59.3762 123.2428,59.0182 122.914,58.6156 C122.914,58.6156 122.971,58.5602 123.208,58.7976 C123.3454,58.9368 123.4376,59.0066 123.5218,59.072 C123.7706,59.246 123.8784,59.2956 124.1266,59.4308 C124.2586,59.5028 124.589,59.5804 124.589,59.5804 C124.589,59.5804 124.636,59.4804 124.678,59.4686 C124.7184,59.459 124.6526,59.302 124.3654,59.0696 C124.205635,58.937479 124.064547,58.7842801 123.946,58.6142 C123.946,58.6142 123.606,58.5398 123.2376,58.4784 C122.963,58.4348 122.4466,58.034 122.4556,58.1428 C122.465,58.2548 122.533,58.602 122.6722,58.8228 C122.8122,59.0446 122.9456,59.2714 123.167,59.466" id="Path" stroke="#000000" stroke-width="0.5" fill="#009B3A" fill-rule="nonzero"></path>
                                    <path d="M119.322,73.3828 C119.1204,73.4422 117.6076,74.0102 117.6076,74.0102 L117.1852,74.1794 C117.7684,74.0482 118.2152,74.342 118.2152,74.342 L119.9002,73.562 C119.9002,73.562 119.8954,73.5364 119.8534,73.5062 C119.8092,73.4762 119.526,73.3214 119.322,73.3828" id="Path" stroke="#000000" stroke-width="0.5" fill="#009B3A" fill-rule="nonzero"></path>
                                    <path d="M117.1214,74.2306 C117.1102,74.2402 117.0988,74.2802 117.1282,74.293 C117.2122,74.3396 117.1896,74.358 117.5714,74.4038 C117.9564,74.4456 118.2074,74.3726 118.2732,74.2998 C118.3504,74.2152 117.3194,74.0576 117.1212,74.2306" id="Path" stroke="#000000" stroke-width="0.5" fill="#009B3A" fill-rule="nonzero"></path>
                                    <path d="M114.7008,68.7888 L114.6308,68.316 C114.6308,68.316 114.5428,67.0376 114.3976,66.7812 C114.3698,66.7244 114.3824,66.5916 114.2902,66.5894 C114.1138,66.5762 114.1138,66.992 114.0924,67.3688 C113.8056,69.2688 115.321,70.7196 115.321,70.7196 L114.7008,68.7888 Z" id="Path" stroke="#000000" stroke-width="0.5" fill="#009B3A" fill-rule="nonzero"></path>
                                    <path d="M122.2,74.4184 C122.2,74.4184 122.041,74.383 122.1416,74.2588 C122.238,74.1408 122.5246,74.0776 122.582,74.0776 C122.6384,74.0752 122.7992,74.0892 122.9188,74.1226 C123.0396,74.1524 123.2064,74.2588 123.1576,74.336 C123.1066,74.4094 122.9434,74.501 122.7202,74.501 C122.5288,74.501 122.4308,74.4962 122.3464,74.4722 C122.2648,74.4412 122.1998,74.4184 122.1998,74.4184" id="Path" stroke="#000000" stroke-width="0.5" fill="#009B3A" fill-rule="nonzero"></path>
                                    <path d="M120.557,73.5144 C120.557,73.5144 120.0368,73.2752 119.5438,73.034 C118.8938,72.7166 118.1128,72.276 117.569,71.4676 C116.888,70.4668 116.2958,69.9308 116.1528,69.823 C116.0056,69.715 115.9844,69.675 115.9304,69.751 C115.8814,69.817 115.9156,69.8744 115.9568,69.9444 C116.0968,70.1722 116.441,70.6 116.5644,70.8298 C116.777,71.2402 117.2172,71.6884 117.2132,71.9542 C117.2132,71.9912 117.0848,71.9278 117.0848,71.9278 C117.0848,71.9278 116.0548,71.575 115.6376,70.327 C115.3336,69.4222 115.4628,69.1564 115.3922,68.7044 C115.2718,67.9008 115.2472,67.8356 114.8494,66.9348 C114.8386,66.9124 114.6062,66.536 114.575,66.6196 C114.5318,66.7276 114.6142,67.1304 114.6142,67.1304 L114.6564,67.5944 C114.6564,67.5944 114.6228,68.6244 114.6228,68.6868 C114.6228,68.7492 114.3634,69.392 115.4656,70.4728 C115.4656,70.4728 115.4824,70.6564 115.3344,70.4948 C115.2296,70.3792 114.4406,69.7732 114.2006,68.7764 C113.9534,67.7792 113.9174,66.7812 114.1046,66.3668 C114.274,65.9924 114.6142,65.0768 114.4692,64.2772 C114.4524,64.1938 114.4288,63.9484 114.376,64.0128 C114.3536,64.044 114.2544,64.4488 114.1946,64.5888 C114.1114,64.7804 113.982,64.9688 113.942,65.1012 C113.8644,65.3258 113.4842,65.6732 113.5586,66.3122 C113.6428,67.0466 113.6908,67.1614 113.7792,67.4232 C113.8094,67.5184 113.8832,67.7616 113.8352,67.786 C113.791,67.8094 113.6352,67.4952 113.6352,67.4952 C113.6352,67.4952 112.9372,66.1236 113.3676,65.0108 C113.8028,63.9028 114.8944,62.8522 114.8944,62.8522 C114.8944,62.8522 115.7812,62.1168 115.9618,61.9456 C116.0324,61.8796 116.0156,61.83 115.992,61.8376 C115.7716,61.8932 114.0652,62.2462 113.4656,64.2792 C113.4656,64.2792 113.4344,64.3648 113.3902,64.3436 C113.3352,64.319 113.3902,64.2236 113.3902,64.2236 C113.3902,64.2236 113.7656,62.7824 114.8188,62.1286 C115.9684,61.4116 115.8334,61.5166 116.2136,61.291 C116.4528,61.1422 116.6692,60.943 116.9368,60.5002 C116.9642,60.4508 117.0728,60.193 117.0584,60.149 C117.0464,60.1054 116.9948,60.1656 116.9704,60.2386 C116.9704,60.2386 116.6448,60.7414 116.1576,60.9106 C115.6688,61.08 115.2716,60.8386 114.7808,61.3814 C114.2888,61.9272 113.8978,62.683 113.8978,62.683 C113.8978,62.683 113.7694,62.8786 113.741,62.8726 C113.687,62.8562 113.7674,62.6646 113.7674,62.6646 C113.7674,62.6646 114.424,61.2716 114.9514,60.9886 C115.4794,60.7034 115.9498,60.43 116.2498,60.1986 C116.6146,59.9126 117.2426,59.2124 117.469,58.9712 C117.517,58.9196 117.8542,58.578 117.9286,58.4672 C117.9736,58.4068 118.0806,58.3192 118.063,58.304 C118.015,58.268 117.6952,58.4216 117.6952,58.4216 C117.6952,58.4216 115.9562,58.9008 114.8744,60.535 C114.8244,60.6108 114.7054,60.765 114.6416,60.8302 C114.526,60.95 114.4682,61.1496 114.4682,61.1496 C114.3976,61.0912 115.0798,60.2386 115.0798,60.2386 L115.1992,59.687 C115.1992,59.687 115.4012,58.8584 115.8256,58.2734 C115.8676,58.2202 116.1184,57.9672 116.1608,57.9146 C116.2448,57.8234 116.0008,57.9946 116.044,57.9564 C116.044,57.9564 114.422,59.1208 114.422,60.5878 C114.422,60.8512 114.2584,61.0918 114.032,61.4194 C113.7674,61.7998 113.6792,62.0334 113.5646,62.5994 C113.516803,62.8373869 113.467134,63.0749943 113.4156,63.3122 C113.4156,63.3122 113.4312,63.5216 113.3636,63.506 C113.293,63.4904 113.3176,63.3172 113.3176,63.3172 C113.3176,63.3172 113.4832,62.2238 113.6008,61.8872 C113.7154,61.5604 113.7908,61.3378 113.7908,61.3378 C113.7908,61.3378 113.7232,60.5158 113.9056,60.0652 C114.0604,59.6724 114.4524,59.155 114.5132,59.0256 C114.5396,58.9692 114.721,58.6006 114.7718,58.1804 C114.7788,58.124 114.7346,58.1708 114.6612,58.3348 C114.4828,58.7368 114.3338,58.8418 114.0408,59.22 C114.0408,59.22 113.2892,59.7648 113.0168,61.3852 C113.0168,61.3852 113.0078,61.9892 112.916,62.936 C112.8492,63.6296 112.906,64.2792 112.9844,64.6704 C113.0344,64.9096 113.1296,64.9116 113.0708,64.9406 C113.0342,64.9592 113.094,64.9438 113.0088,64.763 C112.9048,64.546 112.8252,64.2122 112.8252,63.751 C112.8252,62.9056 112.8986,62.227 112.8986,62.227 C112.8986,62.227 112.9538,60.861 112.3874,60.2452 C112.36,60.2132 112.4866,60.5216 112.5434,60.829 C112.613,61.2104 112.4866,61.7396 112.4494,61.9456 C112.4132,62.1528 112.0356,63.0556 112.169,63.9028 C112.169,63.9028 112.4882,65.3396 112.9,66.036 C112.9,66.036 113.156,66.336 112.9296,66.0548 C112.7052,65.7736 112.2444,64.6556 112.2044,64.5604 C112.169,64.469 111.8388,63.7732 111.528,63.4904 C111.3672,63.3404 110.9254,63.0752 110.9254,63.0752 C110.9254,63.0752 110.6854,62.8922 110.8674,63.1352 C111.0114,63.3272 111.2048,63.6712 111.2966,63.8212 C111.488156,64.1308323 111.65848,64.4531058 111.8064,64.7858 C111.9544,65.111 112.2984,66.0672 112.2984,66.0672 L112.5184,66.6736 C112.5184,66.6736 112.8874,66.8784 113.0884,67.102 C113.2528,67.283 113.594,67.6984 113.8772,68.4376 C114.0046,68.7646 114.2588,69.064 114.2588,69.064 C114.2588,69.064 114.2048,69.1678 113.9784,68.776 C113.7552,68.3788 113.5364,67.634 112.9984,67.0546 C112.5896,66.6098 111.4898,66.1616 111.4898,66.1616 C111.4898,66.1616 112.1964,67.393 112.3718,67.6128 C112.6688,67.9648 113.098,68.459 113.2088,68.5896 C113.3234,68.7228 113.988,69.5436 114.086,69.6752 C114.2408,69.8804 114.3428,69.9708 114.424,70.0544 C114.5992,70.241 115.1186,70.5816 115.159,70.6352 C115.1666,70.6896 115.177,70.6448 115.133,70.6126 C114.9026,70.4752 114.6276,70.2584 114.3434,70.0736 C114.0602,69.8858 112.9666,69.419 112.2298,68.4036 C112.0552,68.1032 111.972,67.9836 111.9132,68.0146 C111.823,68.0624 112.4092,70.0018 113.6146,70.6186 C113.6146,70.6186 114.9444,71.21 115.2394,71.388 C115.4012,71.4852 115.7274,71.6292 115.8784,71.7508 C115.9646,71.822 115.8,71.818 115.7892,71.816 C115.0826,71.7608 114.0684,71.6672 113.4458,71.306 C113.4458,71.306 113.1784,71.1184 113.3978,71.3822 C113.5724,71.5862 113.9036,72.0892 114.5426,72.3724 C115.1826,72.6532 116.1126,72.817 116.4528,72.8344 C116.7868,72.853 117.9784,72.8588 118.2068,72.9328 C118.4302,73.0084 118.8106,73.252 119.0282,73.3222 C119.226,73.3862 119.8228,73.615 119.8228,73.615 C119.8228,73.615 120.0024,73.7134 120.0984,73.7482 C120.2062,73.7912 120.6532,73.7872 120.6848,73.7036 C120.7148,73.6286 120.557,73.5144 120.557,73.5144" id="Path" stroke="#000000" stroke-width="0.5" fill="#009B3A" fill-rule="nonzero"></path>
                                    <path d="M128.2846,63.415 C128.4196,63.4644 128.4794,63.8652 128.4794,63.8652 C128.4794,63.8652 128.4676,63.6358 128.4676,63.5228 C128.4676,63.4088 128.412,62.982 128.412,62.982 L128.2922,63.0676 C128.1492,63.1816 128.0698,63.3828 128.0698,63.3828 C128.0698,63.3828 128.152,63.3692 128.2846,63.4148" id="Path" stroke="#000000" stroke-width="0.5" fill="#009B3A" fill-rule="nonzero"></path>
                                </g>
                            </g>
                        </g>
                    </g>
                </g>
            </g>
        </g>
    </g>
</svg>