<svg xmlns="http://www.w3.org/2000/svg" xmlns:xlink="http://www.w3.org/1999/xlink" width="192" height="114" viewBox="0 0 192 114" aria-labelledby="dubai-paraguay" role="img">
    <title id='dubai-paraguay'>Dubai Paraguay</title>
    <defs>
        <filter id="prefix__b23" width="135.6%" height="135.6%" x="-17.8%" y="-17.8%" filterUnits="objectBoundingBox">
            <feMorphology in="SourceAlpha" operator="dilate" radius="4" result="shadowSpreadOuter1"/>
            <feOffset in="shadowSpreadOuter1" result="shadowOffsetOuter1"/>
            <feGaussianBlur in="shadowOffsetOuter1" result="shadowBlurOuter1" stdDeviation="4"/>
            <feComposite in="shadowBlurOuter1" in2="SourceAlpha" operator="out" result="shadowBlurOuter1"/>
            <feColorMatrix in="shadowBlurOuter1" values="0 0 0 0 0.856968976 0 0 0 0 0.856968976 0 0 0 0 0.856968976 0 0 0 0.46645542 0"/>
        </filter>
        <filter id="prefix__e23" width="135.6%" height="135.6%" x="-17.8%" y="-17.8%" filterUnits="objectBoundingBox">
            <feMorphology in="SourceAlpha" operator="dilate" radius="4" result="shadowSpreadOuter1"/>
            <feOffset in="shadowSpreadOuter1" result="shadowOffsetOuter1"/>
            <feGaussianBlur in="shadowOffsetOuter1" result="shadowBlurOuter1" stdDeviation="4"/>
            <feComposite in="shadowBlurOuter1" in2="SourceAlpha" operator="out" result="shadowBlurOuter1"/>
            <feColorMatrix in="shadowBlurOuter1" values="0 0 0 0 0.856968976 0 0 0 0 0.856968976 0 0 0 0 0.856968976 0 0 0 0.46645542 0"/>
        </filter>
        <circle id="prefix__a23" cx="45" cy="45" r="45"/>
        <circle id="prefix__d23" cx="45" cy="45" r="45"/>
    </defs>
    <g fill="none" fill-rule="evenodd">
        <path d="M0 0H282V150H0z" transform="translate(-12 -18)"/>
        <g transform="translate(-12 -18) translate(24 30)">
            <mask id="prefix__c12" fill="#fff">
                <use xlink:href="#prefix__a23"/>
            </mask>
            <use fill="#000" filter="url(#prefix__b23)" xlink:href="#prefix__a23"/>
            <circle cx="45" cy="45" r="47" fill="#D8D8D8" stroke="#333" stroke-width="4"/>
            <g mask="url(#prefix__c12)">
                <g>
                    <path fill="#0038A8" fill-rule="nonzero" d="M0 0L240 0 240 132 0 132z" transform="translate(-75 -21)"/>
                    <path fill="#FFF" fill-rule="nonzero" d="M0 0L240 0 240 88 0 88z" transform="translate(-75 -21)"/>
                    <path fill="#D52B1E" fill-rule="nonzero" d="M0 0L240 0 240 44 0 44z" transform="translate(-75 -21)"/>
                    <path fill="#FFF" fill-rule="nonzero" stroke="#000" stroke-width=".737" d="M136.731 65.996c0 9.243-7.488 16.735-16.731 16.735-9.239 0-16.731-7.492-16.731-16.735 0-9.24 7.492-16.727 16.73-16.727 9.244 0 16.732 7.487 16.732 16.727z" transform="translate(-75 -21)"/>
                    <path fill="#009B3A" fill-rule="nonzero" stroke="#000" stroke-width=".5" d="M128.09 63.404c-.407-.016-.409.432-.409.432s.014-.133.002.018c-.007.148.067.51.367.54.317.028.422-.342.424-.522 0-.07-.023-.459-.384-.468" transform="translate(-75 -21)"/>
                    <path fill="#000" fill-rule="nonzero" d="M109.503 72.694l-.143-.238a.924.924 0 00-.112-.135.163.163 0 00-.11-.054.198.198 0 00-.131.026c-.056.034-.092.08-.098.135-.01.057.016.134.079.24l.145.246.37-.22zm1.416-.082l-1.82 1.082-.555-.933a1.572 1.572 0 01-.19-.425.475.475 0 01.03-.32.584.584 0 01.247-.263.631.631 0 01.296-.091c.102 0 .195.025.285.073.056.032.12.081.191.153a.693.693 0 01-.023-.187c.006-.028.02-.074.045-.146.024-.068.048-.115.062-.145l.368-.586.375.636-.375.631a.52.52 0 00-.08.184c-.002.06.011.111.04.162l.03.051.738-.438.336.562zm-3.204-1.482l-.555-1.66.428-.144.348 1.04.321-.108-.327-.966.412-.134.323.961.394-.127-.356-1.071.455-.155.564 1.692-2.007.672zm.06-3.38l-.023-.155c-.015-.13-.046-.214-.094-.257a.227.227 0 00-.18-.057.26.26 0 00-.157.084c-.042.05-.056.134-.039.256l.018.187.474-.058zm-.824.758l-.126-1.079c-.025-.231.008-.416.105-.547.1-.129.253-.207.458-.23.212-.026.388.02.52.131.132.114.217.304.248.564l.04.356.78-.091.076.653-2.1.243zm-.073-4.128l.067-.65 1.257.135c.118.014.234.046.342.097.107.048.2.121.272.214a.751.751 0 01.147.28c.032.127.041.283.02.462a2.383 2.383 0 01-.058.33.77.77 0 01-.322.5.665.665 0 01-.258.11c-.14.029-.259.034-.363.023l-1.25-.132.067-.651 1.283.139c.116.012.208-.01.28-.068a.36.36 0 00.125-.251.357.357 0 00-.068-.274c-.055-.072-.142-.111-.258-.125l-1.283-.139zm2.104-1.778l.113-.314c.034-.106.044-.188.02-.247a.196.196 0 00-.128-.115.181.181 0 00-.165.013c-.053.032-.098.1-.135.206l-.111.315.406.142zm-.784-.276l.095-.265c.032-.098.04-.171.017-.221-.017-.048-.059-.086-.122-.104a.182.182 0 00-.155.007c-.046.027-.085.085-.116.179l-.099.273.38.131zm-1 .351l.403-1.158c.07-.193.168-.321.301-.394a.504.504 0 01.673.189.562.562 0 01.059.261.565.565 0 01.286-.252.522.522 0 01.355.008c.101.035.186.092.252.168.064.08.106.168.127.267.01.064.005.15-.018.256-.033.149-.053.243-.07.287l-.372 1.066-1.995-.698zm1.079-2.71l.342-.559 1.362.826.53-.871.445.27-.865 1.43-1.814-1.097zm1.397-2.082l.42-.5 1.615 1.364-.421.5-1.614-1.364zm2.932-1.137l.55-.235c.07.148.11.289.116.427a.818.818 0 01-.078.384c-.063.121-.166.24-.307.363-.18.146-.344.241-.5.283a.932.932 0 01-.518-.03c-.185-.062-.362-.195-.532-.394-.222-.271-.324-.537-.301-.798.021-.265.164-.504.425-.724.207-.17.399-.26.588-.275.184-.017.38.038.577.162l-.361.468a.438.438 0 00-.14-.068.317.317 0 00-.176-.002.372.372 0 00-.16.08.384.384 0 00-.149.357c.01.106.078.23.195.377.152.18.284.28.392.301a.362.362 0 00.316-.09c.095-.082.147-.168.149-.261a.65.65 0 00-.086-.325m2.14-1.271l-.553-.572.14.785.413-.213zm.329.347l-.662.337.067.359-.595.302-.252-2.246.636-.325 1.67 1.525-.61.311-.254-.263zm2.573-2.205l.162 1.142.16-.023a.66.66 0 00.284-.085.312.312 0 00.109-.179c.023-.078.023-.2 0-.369-.032-.22-.091-.368-.173-.438-.084-.07-.211-.096-.38-.07l-.162.022zm-.712-.382l.96-.138c.19-.026.344-.024.467.011a.768.768 0 01.324.18c.09.086.161.19.212.312.055.127.092.262.11.4.034.221.034.4-.002.527a.893.893 0 01-.167.344.704.704 0 01-.268.205c-.121.056-.249.095-.38.116l-.962.135-.294-2.092zm2.878-.41l1.746.13-.033.45-1.092-.082-.026.335 1.014.075-.037.43-1.008-.073-.03.413 1.125.083-.036.477-1.779-.131.156-2.107zm2.69.247l.628.175-.434 1.537.98.277-.142.498-1.61-.456.578-2.031zm3.568 2.346l.135.088c.104.069.192.098.256.09a.196.196 0 00.156-.096.26.26 0 00.04-.18c-.013-.061-.07-.125-.173-.192l-.156-.105-.258.395zm-.052-1.114l.908.6c.197.129.313.275.348.432.038.16 0 .327-.117.5a.643.643 0 01-.435.31c-.176.028-.37-.027-.59-.172l-.298-.198-.43.655-.548-.363 1.162-1.764zm2.294 3.225l.368-.705-.7.378.332.327zm-.223.42l-.53-.521-.32.175-.475-.467.977-.451 1.076-.498.505.5-.919 2.067-.486-.482.172-.323zm1.964.917l.149.236c.018.023.05.069.116.13.031.03.072.049.114.05a.182.182 0 00.126-.03.2.2 0 00.097-.139c.007-.054-.022-.136-.088-.235l-.15-.241-.364.23zm-1.414.126l1.782-1.138.586.917a1.8 1.8 0 01.21.416.516.516 0 01-.027.321.587.587 0 01-.234.269.556.556 0 01-.298.1.644.644 0 01-.288-.059 1.095 1.095 0 01-.193-.15c.019.078.03.14.029.185-.01.049-.022.098-.038.146a.773.773 0 01-.063.15l-.345.597-.4-.624.359-.64a.444.444 0 00.071-.19.235.235 0 00-.045-.16l-.028-.049-.725.462-.353-.553zm2.499 2.848l.634-.479-.793.044.159.435zm-.385.283l-.254-.7-.36.026-.231-.628 2.26.027.244.667-1.716 1.47-.235-.645.292-.217zm1.012 2.249l.435-.057.126 1.008-.894.108a2.007 2.007 0 01-.328-.475 1.653 1.653 0 01-.138-.516c-.033-.249-.016-.457.053-.624a.886.886 0 01.331-.417c.158-.104.345-.173.561-.199.229-.03.435-.007.615.068.181.072.326.194.439.365.087.135.145.321.172.562.032.23.032.407.002.526a.633.633 0 01-.16.312.818.818 0 01-.31.213l-.19-.61a.339.339 0 00.164-.156c.035-.066.043-.15.035-.241a.45.45 0 00-.19-.323c-.111-.072-.274-.095-.488-.068-.227.028-.38.093-.47.188a.485.485 0 00-.1.378c.008.072.03.14.057.201.03.066.074.134.135.217l.2-.027-.057-.433zm1.339 3.171l-.074.648-1.25-.141a1.062 1.062 0 01-.346-.099.763.763 0 01-.27-.214.75.75 0 01-.144-.278 1.376 1.376 0 01-.018-.465c.014-.1.033-.213.058-.332a.853.853 0 01.123-.293.729.729 0 01.462-.311c.138-.027.26-.035.363-.02l1.253.143-.075.646-1.28-.147c-.117-.012-.21.008-.282.065a.356.356 0 00-.124.252c-.013.115.009.206.065.275.055.07.141.112.256.129l1.283.142zm-1.946 2.407l.796.028-.643-.469-.153.441zm-.473-.024l.241-.701-.295-.212.22-.63 1.738 1.444-.239.676-2.253.055.221-.648.367.016zm1.167 1.947l-.367.625-.833.003.398.732-.365.617-.643-1.332-.762-.449.335-.565.761.452 1.476-.083z" transform="translate(-75 -21)"/>
                    <path stroke="#000" stroke-width=".5" d="M134.002 66c0 7.739-6.27 14.01-14.005 14.01-7.736 0-14.006-6.271-14.006-14.009 0-7.732 6.27-14.002 14.006-14.002 7.735 0 14.005 6.27 14.005 14.002h0z" transform="translate(-75 -21)"/>
                    <path stroke="#000" stroke-width=".5" d="M130.419 65.95c0 5.76-4.665 10.426-10.422 10.426-5.757 0-10.423-4.665-10.423-10.425 0-5.754 4.666-10.42 10.423-10.42s10.422 4.666 10.422 10.42h0z" transform="translate(-75 -21)"/>
                    <path fill="#FEDF00" fill-rule="nonzero" stroke="#000" stroke-width=".5" d="M119.998 62.202L120.873 64.708 123.522 64.768 121.411 66.373 122.179 68.912 119.998 67.403 117.816 68.912 118.58 66.373 116.466 64.768 119.12 64.708z" transform="translate(-75 -21)"/>
                    <path fill="#009B3A" fill-rule="nonzero" stroke="#000" stroke-width=".5" d="M124.81 73.146c-.088.074-.444.114-.538.13-.095.012-.468.016-.626.021-.087.006-.255.03-.342.03-.766-.087 1.244-.074 1.506-.181m-2.006-.592c.05-.09.301-.648.391-.807.092-.156.3-.571.424-.744.064-.094.314-.365.374-.243-.435.376-.778 1.032-.961 1.474a3.638 3.638 0 01-.22.357c-.05.063-.03.183-.11.192-.084.011-.025.026-.025.026s.072-.161.127-.256h0zm2.886.427s-.346-.052-.56-.128a2.871 2.871 0 00-.878-.12c-.303.004-.58.096-.827.19-.246.091-.565.1-.565.1s-.18.027-.096-.014c.08-.04.36-.258.36-.258l.18-.247c.052-.015.967-1.216.868-1.538.14-.237.304-.66.242-.734-.029-.03-.712.216-.862.352-.174.15-.296.463-.348.643-.05.179-.314.326-.314.326-.213.154-.368.64-.44 1.038-.074.393-1.042.611-1.042.611s-.269.1-.03.176c.04.012.147.191.232.194.119.014.72-.243.813-.223.204.046.406.102.606.166.229.077.418.117.579.058.162-.059.395-.036.57-.002.17.037.363.021.473-.013.119-.036.43-.209.43-.209s.338-.146.533-.237c.195-.092.076-.132.076-.132" transform="translate(-75 -21)"/>
                    <path fill="#009B3A" fill-rule="nonzero" stroke="#000" stroke-width=".5" d="M123.06 74.149s-1.333-.697-1.405-.714c-.042-.006-.605-.316-.862-.396a1.791 1.791 0 00-.535-.07c-.22.015-.578.112-.578.112l.331.136s.311.152.463.234c.217.115.227.255.227.255l1.207.53.245.177s.223-.308.907-.264M124.4 71.38c.42-.373.625-.905.97-1.2.056.04.056.107-.013.225-.065.116-.152.156-.19.217-.07.094-.28.268-.337.373-.05.1-.116.238-.299.344-.182.109-.124.282-.14.354-.014.08-.295.281-.43.53-.026.258-.037.15-.194.241.285-.43.435-.708.633-1.084m-.942 1.184c-.027.056-.854.526-.595.456a14.135 14.135 0 001.238-.44c.265-.116.425-.359.624-.556.203-.202.833-.804.941-1.036.107-.238.204-.57-.223-1.316 0 0-.066.143-.225.282-.157.143-.392.3-.392.3l-.273.259s-.967 1.775-1.095 2.051" transform="translate(-75 -21)"/>
                    <path fill="#009B3A" fill-rule="nonzero" stroke="#000" stroke-width=".5" d="M126.817 71.94s-.529-.048-.575-.048c-.05 0-.34-.04-.762-.04-.417 0-.574.145-.684.261-.118.13-.448.432-.448.432l.178-.015c.423-.33.753-.21.884-.219.137-.005.302.009.726-.141.43-.15.405-.01.358.005-.206.074-.42.117-.639.129-.319.017-.6.079-.725.079-.126 0-1.058.255-1.058.255s1.008.059 1.117.095c.108.044.278.023.418-.044.386-.178.56-.212.72-.248.159-.03.35-.139.35-.139s.101-.064.195-.235c.097-.175-.055-.128-.055-.128m.495-2.762c.063-.158.222-.528.391-.674.103-.09.28-.131.374-.171.04-.014.33-.028-.032.072-.15.04-.353.128-.443.28-.126.35-.236.656-.471.88-.173.181-.282.417-.282.417l-.185.064c.34-.208.486-.593.648-.868h0zm1.638-.197c-.193.064-.26.117-.26.117-.432.13-.61.401-.798.622-.096.115-.232.202-.687.397-.417.18-.739.456-.747.456 0 0-.132.027-.107.091.01.03.123.006.123.006s.858-.122 1.215-.34c.229-.143.358-.247.574-.582.097-.148.206-.426.211-.247.017.475-.72.935-1.041 1.077-.172.073-.401.103-.701.152-.296.055-.477.039-.455-.027.03-.094.065-.114.143-.207.141-.168.482-.228.733-.345.297-.133.578-.33.72-.496.143-.17.193-.232.233-.375.11-.373.115-.58.218-.714.363-.446.416-.59.433-.79.004-.045-.188.106-.288.162-.195.115-.267.115-.667.22-.406.101-.397.363-.46.486-.018.05-.183.255-.262.293-.078.04-.271.319-.342.482-.053.12-.148.206-.223.196-.08-.015.152-.88.203-1.022.055-.142.066-.42.066-.513 0-.09.003-.325-.154-.351-.156-.027-.163-.242-.163-.242-.375.325-.166.897-.125 1.237.04.336-.078.959-.078.959.363.155.078.595-.035.737-.119.145-.343.171-.444.299a79.16 79.16 0 00-.866 1.189l.944-.268s.088.016-.053-.091c-.143-.103.046-.5.168-.597.232-.182.546-.05.546-.05s.438.068.975-.145c.449-.177.642-.464.854-.68.116-.118.328-.508.461-.74.08-.133.225-.387.136-.356" transform="translate(-75 -21)"/>
                    <path fill="#009B3A" fill-rule="nonzero" stroke="#000" stroke-width=".5" d="M126.272 71.519c.072-.03.083-.042.215-.186.13-.144.015-.388-.186-.378-.098.007-.203-.016-.396.244-.187.26.09.356.194.367a.434.434 0 00.173-.047M125.784 69.873c-.126.209-.192.45-.094.524.022.012.11.088.183.088.072 0 .278-.098.395-.279.117-.175.213-.368-.027-.487-.217-.108-.367-.007-.457.153M126.498 67.316s.02-.032-.062-.118c-.13-.133-.294-.371-.294-.371a.694.694 0 00-.346.543c0 .118.044.376.004.639-.014.09-.028.192-.157.517-.131.32.019.615.048.72.023.102.13.423.13.423s.101-.065.136-.073c.04-.01.178-.004.178-.004s.157-.283.162-.44a3.31 3.31 0 00-.07-.614c-.077-.44-.072-.564-.02-.81.052-.249.291-.412.291-.412M126.886 67.754s.147-.035.221-.169c.094-.161.07-.332.07-.332-.23-.443-.536-.086-.536-.086-.275.562.244.587.244.587" transform="translate(-75 -21)"/>
                    <path fill="#009B3A" fill-rule="nonzero" stroke="#000" stroke-width=".5" d="M127.663 66.943c-.34.017-.508.63-.508.63s-.056.151-.237.268c-.193.12-.08.291-.08.596s-.212.844-.212.844l-.08.183s.008.137.132-.112c.212-.42.443-.317.53-.769.056-.335.611-.442.611-.442l-.156-.03c-.577-.27.033-.945.132-1.064.105-.12.205-.12-.132-.104" transform="translate(-75 -21)"/>
                    <path fill="#009B3A" fill-rule="nonzero" stroke="#000" stroke-width=".5" d="M127.566 67.67c-.156.334.288.35.39.292.042-.024.135-.136.135-.136.18-.259.016-.434-.078-.459-.09-.03-.284-.053-.447.302M126.722 66.37c.117.218.442.822.519.784.048-.023.01-.147.01-.147s-.01-.163-.063-.361c-.052-.2-.04-.454-.143-.618-.101-.163-.343-.357-.438-.614-.094-.259-.02-.748-.013-.809.01-.056.039-.019-.012-.077-.05-.064-.462-.283-.462-.283s.024.16.014.449c-.004.07-.023.152-.034.273-.01.116.06.262.229.595.195.385.29.621.393.809m2.468-2.873s-.119.198-.161.241c-.044.044-.714.62-.753.644-.032.026-.382.138-.7.998-.32.858-.182 1.66-.182 1.66l.155-.018.027-.084.092-.501c.044-.213.283-.511.441-.73a2.99 2.99 0 00.273-.525c.18-.362.266-.685.444-.938.007.3-1.135 2.149-1.257 2.777l.338-.051c.27-.247.624-.766.863-1.1.241-.336.344-.86.387-1.093.042-.23.033-1.28.033-1.28" transform="translate(-75 -21)"/>
                    <path fill="#009B3A" fill-rule="nonzero" stroke="#000" stroke-width=".5" d="M126.912 63.688a1.011 1.011 0 00-.307-.207s.041.313.041.504.017.513.007.684c-.007.17-.092.454.03.731.124.274.264.413.363.585.09.168.256 1.043.256 1.043s-.06-1.183-.009-1.518c.048-.329.064-.841-.01-1.098-.076-.258-.203-.56-.371-.724m.789-1.155c.052-.101.173-.31.224-.628.019-.135.031-.354.026-.506-.003-.101-.044-.277 0-.289.04-.01.007.055.03.205.01.053-.027.201-.034.391-.009.152-.015.278-.082.484-.059.18-.006.381-.042.438-.039.057-.143.274-.143.274s-.064.175-.053.334c.006.164.016.34.016.34s.075-.14.244-.163c0 0 .038-.274.038-.36 0-.085.11-.645.166-.817.076-.25.13-.687.009-1.194-.034-.137-.058-.566-.058-.566s-.162.13-.258.618c-.03.15.033.548.009.973-.01.235-.235 1.185-.265 1.244" transform="translate(-75 -21)"/>
                    <path fill="#009B3A" fill-rule="nonzero" stroke="#000" stroke-width=".5" d="M127.7 62.533l-.01.02s.007-.005.01-.02" transform="translate(-75 -21)"/>
                    <path fill="#009B3A" fill-rule="nonzero" stroke="#000" stroke-width=".5" d="M127.063 60.067c.087 0 .087.093.069.167-.014.076-.012.217-.012.246 0 .033.036.235.065.34.031.108.085.142.062.359-.016.136-.156.296-.107.528.026.122.114.249.157.354.036.073.016.251.026.397.004.142.082.238.082.238s-.097.181-.129-.045c-.035-.26-.047-.376-.097-.494-.081-.192-.156-.539-.03-.806a.75.75 0 00.039-.262c0-.116-.071-.313-.085-.436-.012-.097-.004-.302-.004-.377m-.453 1.088c.02.147.068.23.233.55.051.105.167.374.184.46.021.085.039.188.039.214 0 .028.018.23.018.23v.083s-.458-.267-.66-.41c-.2-.144-.426-.342-.572-.461-.164-.135-.556-.6-.561-.973l-.18-.163s-.138.828.511 1.363c.187.154.391.323.827.52.437.202.38.383.562.77.18.389.292.613.315.723.015.117-.05 1.771-.05 1.771l.015.15s.4-1.532.592-1.703c0 0-.381-.059-.35-.658l-.068-.395s-.076-.474.067-.769c0 0 .17-.54.112-1.007-.036-.279-.05-.363-.083-.63-.052-.417-.219-1.012-.238-1.084-.057-.209-.076-.241-.143-.406-.02-.059-.057-.251-.118-.254-.036-.002-.09.248-.09.248s-.08.272-.096.346c-.052.22-.174.405-.23.899-.01.09-.02.33-.03.363a.917.917 0 00-.006.223" transform="translate(-75 -21)"/>
                    <path fill="#009B3A" fill-rule="nonzero" stroke="#000" stroke-width=".5" d="M126.987 63.455s-.067-.148-.135-.224c-.136-.16-.319-.297-.84-.552-.52-.258-.657-.684-.922-.859-.121-.083-.356-.123-.356-.123s.23.318.286.428c.07.14.087.235.373.502.284.267.631.36.855.427.315.098.739.4.739.4m-1.637-2.458c.014.042.148.5.429.855.43.543 1.258.932 1.258.932-.077-.339-.212-.73-.32-.903-.376-.608-1.37-.906-1.37-.906s-.018-.023.003.022m1.187.257c.223-.488-.443-.954-.63-1.294.07-.055.152.09.228.186.109.145.416.564.416.564l.095-.447-.793-.72c-.01.104-.254.19-.254.19-.119.668.938 1.52.938 1.52" transform="translate(-75 -21)"/>
                    <path fill="#009B3A" fill-rule="nonzero" stroke="#000" stroke-width=".5" d="M125.157 60.122c-.19.086-.258.086-.258.086l.106.282.062.077s.249.36.394.405c.06.022.287.062.515.16.286.121.753.53.753.53s-.777-.877-1.075-1.533l-.1-.379-.282.019s.077.266-.115.353" transform="translate(-75 -21)"/>
                    <path fill="#009B3A" fill-rule="nonzero" stroke="#000" stroke-width=".5" d="M122.25 59.562c.13.117.272.222.423.313.171.103.665.394 1.035.464.086.014.55.072.55.072.019-.203.24-.221.24-.221l-.658-.072c-.53-.04-.934-.26-1.248-.616.421.256 1.027.658 1.518.636 2.015-.198-.607-.248-.835-.393-.241-.15-.447-.396-.447-.396l-.59-.027s-.29-.018.012.24" transform="translate(-75 -21)"/>
                    <path fill="#009B3A" fill-rule="nonzero" stroke="#000" stroke-width=".5" d="M124.623 60.71c.13-.01.221-.035.25-.178.027-.16-.034-.275-.226-.317-.107-.026-.294-.032-.37.158-.083.194.22.319.22.319s.057.025.126.017m.226-1.155c-.171 0-.229.14-.192.41.045.274.463.154.463.154l.077-.04s.057-.044.026-.261c-.03-.223-.203-.263-.375-.263" transform="translate(-75 -21)"/>
                    <path fill="#009B3A" fill-rule="nonzero" stroke="#000" stroke-width=".5" d="M125.527 59.746c.005-.002.017-.008.061-.02.087-.033.175-.243.175-.243.044-.283-.158-.353-.158-.353-.342-.068-.35.232-.35.232-.094.39.222.386.272.384m-1.519-1.34c.019.13.203.318.232.35.033.029.268.274.348.384.079.11.343.608.343.608s.046-.007.065-.045c.046-.078-.176-.682-.199-.723-.081-.184-.215-.32-.349-.464-.031-.02-.141-.161-.261-.313.238.306.85 1.173 1.03 1.56 0 0-.022-.412-.045-.633-.076-.644-.244-.843-.297-.936-.095-.174-.336-.344-.51-.403-.171-.063-.375-.148-.594-.218-.225-.069-.052.134.031.31.104.207.188.392.206.524" transform="translate(-75 -21)"/>
                    <path fill="#009B3A" fill-rule="nonzero" stroke="#000" stroke-width=".5" d="M123.167 59.466c.223.188.322.32.784.388.465.073.505.042.505.042s.241-.117.118-.219c-.684-.3-1.331-.659-1.66-1.061 0 0 .057-.056.294.182.137.139.23.209.314.274.249.174.356.224.605.359.132.072.462.15.462.15s.047-.1.089-.112c.04-.01-.025-.167-.313-.4a2.29 2.29 0 01-.419-.455s-.34-.074-.708-.136c-.275-.043-.791-.444-.782-.335.009.112.077.459.216.68.14.222.274.448.495.643M119.322 73.383c-.202.06-1.714.627-1.714.627l-.423.17a1.438 1.438 0 011.03.162l1.685-.78s-.005-.026-.047-.056c-.044-.03-.327-.185-.531-.123" transform="translate(-75 -21)"/>
                    <path fill="#009B3A" fill-rule="nonzero" stroke="#000" stroke-width=".5" d="M117.121 74.23c-.01.01-.022.05.007.063.084.047.062.065.443.11.385.043.636-.03.702-.103.077-.085-.954-.242-1.152-.07M114.7 68.789l-.07-.473s-.087-1.278-.232-1.535c-.028-.057-.016-.19-.108-.192-.176-.013-.176.403-.198.78-.286 1.9 1.229 3.35 1.229 3.35l-.62-1.93zM122.2 74.418s-.159-.035-.058-.16c.096-.117.383-.18.44-.18.056-.003.217.011.337.045.12.03.287.136.239.213-.051.073-.215.165-.438.165-.191 0-.29-.005-.374-.029l-.146-.054" transform="translate(-75 -21)"/>
                    <path fill="#009B3A" fill-rule="nonzero" stroke="#000" stroke-width=".5" d="M120.557 73.514s-.52-.239-1.013-.48c-.65-.317-1.431-.758-1.975-1.566-.681-1.001-1.273-1.537-1.416-1.645-.147-.108-.169-.148-.223-.072-.049.066-.014.123.027.193.14.228.484.656.607.886.213.41.653.858.65 1.124 0 .037-.13-.026-.13-.026s-1.03-.353-1.446-1.601c-.304-.905-.175-1.17-.246-1.623-.12-.803-.145-.868-.543-1.77-.01-.022-.243-.398-.274-.314-.043.108.04.51.04.51l.041.464s-.033 1.03-.033 1.093c0 .062-.26.705.843 1.786 0 0 .016.183-.132.022-.104-.116-.893-.722-1.133-1.719-.248-.997-.284-1.995-.096-2.41.169-.374.51-1.29.364-2.089-.017-.083-.04-.329-.093-.264-.022.031-.122.436-.181.576-.084.191-.213.38-.253.512-.078.225-.458.572-.383 1.211.084.735.132.85.22 1.111.03.095.104.339.056.363-.044.023-.2-.29-.2-.29s-.698-1.372-.267-2.485c.435-1.108 1.526-2.159 1.526-2.159s.887-.735 1.068-.906c.07-.066.054-.116.03-.108-.22.055-1.927.408-2.526 2.441 0 0-.032.086-.076.065-.055-.025 0-.12 0-.12s.376-1.442 1.429-2.095c1.15-.717 1.014-.612 1.395-.838.239-.149.455-.348.723-.79.027-.05.136-.308.121-.352-.012-.044-.063.017-.088.09 0 0-.325.502-.812.672-.49.169-.886-.072-1.377.47-.492.546-.883 1.302-.883 1.302s-.129.196-.157.19c-.054-.017.026-.208.026-.208s.657-1.393 1.184-1.676c.528-.286.999-.559 1.299-.79.365-.286.993-.987 1.219-1.228.048-.051.385-.393.46-.504.045-.06.152-.148.134-.163-.048-.036-.368.118-.368.118s-1.739.479-2.82 2.113a2.71 2.71 0 01-.233.295.893.893 0 00-.174.32c-.07-.059.612-.911.612-.911l.12-.552s.201-.829.626-1.414c.042-.053.292-.306.335-.358.084-.092-.16.08-.117.041 0 0-1.622 1.165-1.622 2.632 0 .263-.164.504-.39.831-.265.38-.353.614-.467 1.18a46.3 46.3 0 01-.15.713s.016.21-.051.194c-.071-.016-.046-.189-.046-.189s.165-1.093.283-1.43l.19-.55s-.068-.821.115-1.272c.154-.393.546-.91.607-1.04.027-.056.208-.424.259-.845.007-.056-.037-.01-.11.155-.18.402-.328.507-.621.885 0 0-.752.545-1.024 2.165 0 0-.01.604-.101 1.551a6.322 6.322 0 00.068 1.734c.05.24.146.242.087.27-.037.02.023.004-.062-.177-.104-.217-.184-.55-.184-1.012 0-.845.074-1.524.074-1.524s.055-1.366-.512-1.982c-.027-.032.1.277.156.584.07.381-.056.91-.094 1.117-.036.207-.413 1.11-.28 1.957 0 0 .32 1.437.731 2.133 0 0 .256.3.03.019-.225-.281-.686-1.4-.726-1.495-.035-.091-.365-.787-.676-1.07-.16-.15-.603-.415-.603-.415s-.24-.183-.058.06c.144.192.338.536.43.686.191.31.361.632.51.965.147.325.491 1.281.491 1.281l.22.607s.37.204.57.428c.165.181.506.596.79 1.336.127.327.38.626.38.626s-.053.104-.28-.288c-.223-.397-.442-1.142-.98-1.721-.408-.445-1.508-.893-1.508-.893s.706 1.231.882 1.45c.297.353.726.847.837.978.114.133.779.954.877 1.085.155.205.257.296.338.38.175.186.695.527.735.58.008.055.018.01-.026-.022-.23-.138-.505-.355-.79-.54-.283-.187-1.376-.654-2.113-1.67-.175-.3-.258-.42-.317-.388-.09.047.496 1.987 1.702 2.604 0 0 1.33.591 1.624.769.162.097.488.241.64.363.086.071-.079.067-.09.065-.706-.055-1.72-.149-2.343-.51 0 0-.268-.188-.048.076.174.204.506.707 1.145.99.64.281 1.57.445 1.91.462.334.019 1.525.025 1.754.099.223.075.604.319.821.39.198.063.795.292.795.292s.18.098.275.133c.108.043.555.04.587-.044.03-.075-.128-.19-.128-.19M128.285 63.415c.135.05.194.45.194.45s-.011-.23-.011-.342c0-.114-.056-.541-.056-.541l-.12.086a.87.87 0 00-.222.315s.082-.014.215.032" transform="translate(-75 -21)"/>
                </g>
            </g>
        </g>
        <g transform="translate(-12 -18) translate(102 30)">
            <mask id="prefix__f23" fill="#fff">
                <use xlink:href="#prefix__d23"/>
            </mask>
            <use fill="#000" filter="url(#prefix__e23)" xlink:href="#prefix__d23"/>
            <circle cx="45" cy="45" r="47" fill="#D8D8D8" stroke="#333" stroke-width="4"/>
            <g fill-rule="nonzero" mask="url(#prefix__f23)">
                <g>
                    <path fill="#00732F" d="M0 14H168V103H0z" transform="translate(-8 -16)"/>
                    <path fill="#FFF" d="M0 44H168V103H0z" transform="translate(-8 -16)"/>
                    <path fill="#000" d="M0 78H168V107H0z" transform="translate(-8 -16)"/>
                    <path fill="red" d="M0 0H42V122H0z" transform="translate(-8 -16)"/>
                </g>
            </g>
        </g>
    </g>
</svg>
