<svg width="328" height="200" xmlns="http://www.w3.org/2000/svg"><g stroke="#85ACB0" stroke-width="2" fill="none" fill-rule="evenodd"><path d="M143.072 178.699V76.6h-8.012v-3.094l8.012-1.856V28.955c20.953 15.676 35.127 34.033 42.522 55.071 7.395 21.039 10.887 35.064 10.476 42.077l-3.08 52.596h-49.918z" fill="#E7EEEF"/><path fill="#E7EEEF" d="M157.266 74.877l24.16-2.567 8.673-6.418-28.496 2.567-10.531 1.284"/><path d="M143.066 28.729V3h1v26.954M154.074 79.868v30.947h36.025M154.074 114.808v30.947h36.025M154.074 147.752v25.955h36.025M153.573 40.935v26.954M48.264 179.198h230.743M65.012 179.198v-3.37H76.95v-4.99h2.514v-8.112h9.425v6.24h3.142v8.734"/><path d="M91.03 167.717v-8.385h6.93v-6.589l7.561 4.792v3.594h2.52M108.042 178.699v-38.934h8.406v8.652h3.602V178.7M121.05 154.457h6.255v9.945h3.753v-18.647h5.003V178.7M203.108 177.7v-19.965h6.004V177.7"/><path d="M206.11 158.931V145.96h3.237v-18.532h1.943v-14.825h1.942V66.89v45.712h3.885V178.7"/><path d="M217.117 162.6h9.436v-27.864h2.516v-4.953h6.919v4.334h3.145v44.582M243.136 177.7v-31.674l1.167-.61.584-3.654h4.086v3.655h1.167V177.7M254.143 178.066v-11.38h8.053v-6.955h4.956V178.7"/></g></svg>