<svg xmlns="http://www.w3.org/2000/svg" width="48" height="48"><defs><linearGradient id="a" x1="50%" x2="50%" y1="0%" y2="100%"><stop offset="0%" stop-color="#FF6444"/><stop offset="100%" stop-color="#FF444F"/></linearGradient></defs><g fill="none" fill-rule="evenodd"><path d="M0 0h48v48H0z"/><path fill="url(#a)" fill-rule="nonzero" d="M47.25 30a.75.75 0 01.75.75v16.5a.75.75 0 01-.75.75h-10.5a.75.75 0 01-.75-.75h-2.25a.75.75 0 01-.733-.593l-7.213 1.316a1.635 1.635 0 01-.521.011l-.171-.033-14.586-3.679a1.606 1.606 0 01-.396-.158l-.12-.075-9.358-6.457a1.492 1.492 0 01-.643-1.06L0 36.363v-3.456c0-.15.023-.3.07-.443.24-.746 1.031-1.184 1.813-1.03l.147.037.195.062c.053.018 5.732 1.478 10.48 2.757l.278.075 2.649.725c.279-.414.707-.768 1.267-1.066.45-.24 1.7-.716 3.785-1.442l.303-.106 2.032-.695 2.826-.947a1.63 1.63 0 01.506-.083l.172.008L33 31.5a.75.75 0 01.75-.75H36a.75.75 0 01.75-.75h10.5zm-20.852 2.25l-.978.325c-3.75 1.248-6.195 2.105-7.265 2.54l-.11.046-.231.1-.152.074c-.43.228-.677.458-.779.684l-.032.085-.006.148c-.023.892.187 1.207.693 1.243l.106.003h8.662c.435 0 .788.337.788.752 0 .38-.297.695-.68.745l-.108.007h-8.662c-1.418 0-2.22-.843-2.354-2.257l-.013-.188-.676-.187c-1.306-.36-2.819-.764-4.339-1.167l-.651-.173-7.949-2.076-.162-.05v3.458l9.398 6.458 14.649 3.68L33 45.145V32.913l-6.602-.663zM46.5 31.5h-9v15h9v-15zm-10.5.75h-1.5v13.5H36v-13.5zM15.75 0C22.792 0 28.5 5.708 28.5 12.75S22.792 25.5 15.75 25.5 3 19.792 3 12.75 8.708 0 15.75 0zm0 1.5C9.537 1.5 4.5 6.537 4.5 12.75S9.537 24 15.75 24 27 18.963 27 12.75 21.963 1.5 15.75 1.5zM9.361 17.97a8.236 8.236 0 005.71 3.002l-.117 1.496a9.733 9.733 0 01-6.753-3.547l1.16-.95zm14.632-4.879l1.499.058a9.726 9.726 0 01-3.286 6.907l-.997-1.12a8.23 8.23 0 002.784-5.845zM16.068 6a.75.75 0 01.743.648l.007.102v.936c1.791.21 2.942 1.408 2.942 3.196a.75.75 0 01-1.5 0c0-1.106-.696-1.73-2.02-1.73-1.31 0-2.213.607-2.348 1.496l5.337 1.633a.75.75 0 01.498.936l.01-.04c.015.06.023.121.023.185 0 1.95-.983 3.105-2.942 3.22v.086a.75.75 0 01-1.494.101l-.006-.101-.001-.192c-1.72-.354-2.942-1.498-2.942-3.114a.75.75 0 111.5 0c0 .999 1.04 1.73 2.613 1.73 1.256 0 1.723-.43 1.768-1.54l-5.35-1.638a.75.75 0 01-.521-.837l.02-.093-.013.058a.753.753 0 01-.017-.16c0-1.661 1.23-2.838 2.942-3.148V6.75a.75.75 0 01.75-.75zm-6.243-.994l.908 1.194a8.241 8.241 0 00-3.18 5.605l-1.49-.173a9.74 9.74 0 013.762-6.626zM15.75 3a9.722 9.722 0 017.03 2.994l-1.082 1.039a8.225 8.225 0 00-5.69-2.529l-.292-.004V3h.034z"/></g></svg>