<svg xmlns="http://www.w3.org/2000/svg" xmlns:xlink="http://www.w3.org/1999/xlink" width="1440" height="776" viewBox="0 0 1440 776">
    <defs>
        <path id="3pejkh3z3a" d="M0 0H1440V776H0z"/>
    </defs>
    <g fill="none" fill-rule="evenodd">
        <g>
            <g transform="translate(0 -700) translate(0 700)">
                <mask id="ush7xfyurb" fill="#fff">
                    <use xlink:href="#3pejkh3z3a"/>
                </mask>
                <use fill="#FFF" xlink:href="#3pejkh3z3a"/>
                <g fill="#F2F3F4" fill-opacity=".53" fill-rule="nonzero" mask="url(#ush7xfyurb)">
                    <g>
                        <path d="M118.713 79.577L321.046 12.897 321.335 12.801 330 1.209 327.978 1.209 327.978 1.304 320.035 11.843 117.702 78.619 117.414 78.715 16.031 212.362 0 217.631 0 218.973 17.33 213.224zM69.271 46.413L3 134.072 3 136.647 70.715 47.272 206 2.536 201.957 2.536 69.56 46.318z" transform="translate(-97 -3)"/>
                        <path d="M280 1.872L275.944 1.872 92.126 62.722 91.837 62.818 0 184.517 0 187.105 93.285 63.68zM1407.571 127.906L1407.282 128.001 1306.327 261.482 1104.559 328.126 1104.271 328.222 1003.315 461.702 801.692 528.347 801.403 528.442 700.447 661.923 498.824 728.567 498.536 728.663 397.58 862.143 195.957 928.788 195.668 928.883 94.712 1062.364 3 1092.674 3 1094.013 95.723 1063.32 96.012 1063.224 196.968 929.744 398.591 863.004 398.88 862.908 499.691 729.332 701.314 662.688 701.603 662.592 802.559 529.112 1004.181 462.467 1004.47 462.371 1105.57 329.082 1307.193 262.438 1307.482 262.342 1408.438 128.862 1610.205 62.217 1610.494 62.122 1657 .545 1654.978.545 1609.194 61.261zM245.375 162.905L245.087 163 144.565 296.18 3 343.117 3 344.453 145.573 297.229 145.861 297.134 246.383 163.954 447.137 97.46 447.425 97.365 519 2.536 516.984 2.536 446.129 96.315zM192.7 128.677L192.412 128.772 91.597 261.773 0 291.996 0 293.331 92.605 262.822 92.893 262.727 193.708 129.725 395.193 63.368 395.481 63.272 442 1.872 439.84 1.872 394.041 62.319z" transform="translate(-97 -3)"/>
                        <path d="M422.549 79.136L220.998 145.716 220.71 145.811 119.862 279.257 3 317.888 3 319.224 120.872 280.306 121.161 280.211 222.008 146.86 423.559 80.28 423.848 80.185 483 1.968 480.836 1.968 480.836 1.872zM68.102 647.186L169.315 513.494 371.453 446.791 371.742 446.696 472.955 313.003 675.092 246.205 675.382 246.109 776.595 112.417 978.732 45.619 979.021 45.523 1013 .545 1010.831.545 1010.831.64 977.575 44.662 775.438 111.46 775.149 111.556 673.936 245.248 471.798 312.046 471.509 312.142 370.296 445.834 168.159 512.633 167.869 512.728 66.656 646.42 0 668.431 0 669.771 67.813 647.282zM143.712 696.604L244.816 563.015 446.591 496.364 446.88 496.268 547.984 362.679 749.759 296.028 750.048 295.932 851.152 162.343 1052.927 95.692 1053.216 95.597 1125 .545 1122.833.545 1051.772 94.64 849.997 161.291 849.708 161.387 748.604 294.976 546.829 361.723 546.54 361.818 445.436 495.407 243.661 562.058 243.372 562.154 142.268 695.743 0 742.791 0 744.13 143.423 696.699z" transform="translate(-97 -3)"/>
                        <path d="M268.692 179.287L268.404 179.383 167.392 312.518 0 367.681 0 369.018 168.546 313.568 168.835 313.473 269.703 180.432 471.438 114.008 471.727 113.912 556 2.536 553.98 2.536 470.284 112.862zM118.327 879.738L320.163 813.122 320.452 813.027 421.442 679.508 623.133 612.893 623.422 612.797 724.412 479.279 926.103 412.663 926.392 412.568 1027.381 279.05 1229.072 212.434 1229.361 212.339 1330.351 78.82 1532.042 12.205 1532.331 12.109 1541 .545 1539.122.545 1539.122.64 1531.176 11.249 1329.485 77.865 1329.196 77.96 1228.206 211.478 1026.37 278.094 1026.081 278.19 925.091 411.708 723.256 478.323 722.967 478.419 621.832 611.841 420.141 678.553 419.852 678.648 318.862 812.166 117.171 878.782 116.883 878.878 15.893 1012.396 0 1017.652 0 1018.99 17.337 1013.256zM42.707 230.781L144.044 96.64 346.43 29.666 346.719 29.57 368 1.209 365.973 1.209 345.416 28.612 143.031 95.586 142.741 95.682 41.404 229.822 0 243.524 0 244.865 42.417 230.876z" transform="translate(-97 -3)"/>
                        <path d="M67.527 247.022L168.169 113.909 369.021 47.448 369.309 47.352 403 2.536 400.984 2.536 367.869 46.399 167.017 112.956 166.729 113.051 66.231 246.164 0 268.095 0 269.43 67.239 247.118zM244.093 363.197L244.381 363.102 345.306 229.837 546.866 163.299 547.155 163.204 648.079 29.938 733 1.872 728.963 1.872 646.782 28.984 646.493 29.079 545.569 162.345 344.008 228.882 343.72 228.977 242.795 362.243 41.523 428.78 41.235 428.876 0 483.289 0 485.867 42.532 429.735z" transform="translate(-97 -3)"/>
                        <path d="M269.663 380.824L269.952 380.728 371.003 247.474 572.818 180.846 573.106 180.751 674.158 47.4 810 2.536 806.102 2.536 806.102 2.632 673.292 46.541 673.003 46.637 571.952 179.891 370.137 246.424 369.849 246.519 268.797 379.869 66.838 446.497 66.55 446.592 0 534.411 0 536.988 67.849 447.451zM43.033 29.211L2 83.6 2 86.19 44.333 30.074 129 1.872 124.954 1.872 43.177 29.115zM928.047 212.634L927.758 212.73 826.679 346.225 624.812 412.877 624.522 412.972 523.444 546.468 321.576 613.12 321.287 613.215 220.208 746.71 18.196 813.267 17.906 813.362 2 834.496 2 837.078 19.353 814.223 221.22 747.571 221.51 747.475 322.588 613.98 524.456 547.328 524.745 547.233 625.824 413.737 827.692 347.086 827.981 346.99 929.059 213.495 1130.927 146.938 1131.216 146.843 1232.295 13.348 1267 1.872 1262.951 1.872 1231.283 12.391 1230.993 12.487 1129.915 145.982z" transform="translate(-97 -3)"/>
                        <path d="M875.569 179.124L875.28 179.22 774.319 312.613 572.539 379.118 572.25 379.213 471.289 512.606 269.654 579.207 269.365 579.302 168.403 712.6 1 768.021 1 769.358 169.414 713.746 169.703 713.651 270.665 580.258 472.3 513.562 472.589 513.466 573.55 380.073 775.185 313.472 775.474 313.377 876.58 179.984 1078.215 113.383 1078.504 113.288 1163 1.872 1160.833 1.872 1077.204 112.523zM1255.524 27.78L1154.612 161.28 953.076 227.982 952.788 228.078 851.875 361.482 650.195 428.089 649.907 428.184 548.994 561.589 347.459 628.195 347.17 628.291 246.113 761.695 44.433 828.397 44.144 828.493 3 882.963 3 885.543 45.588 829.258 247.268 762.651 247.557 762.555 348.469 629.055 550.149 562.449 550.438 562.353 651.35 428.949 853.03 362.342 853.319 362.246 954.087 228.938 1155.767 162.331 1156.056 162.235 1256.968 28.831 1342 .545 1337.958.545 1255.813 27.684z" transform="translate(-97 -3)"/>
                        <path d="M902.639 194.491L902.35 194.587 801.458 327.997 599.676 394.655 599.386 394.75 498.495 528.16 297.001 594.722 296.712 594.818 195.676 728.228 3 791.92 3 793.259 196.833 729.28 197.122 729.184 298.158 595.774 499.94 529.117 500.23 529.021 601.265 395.611 803.048 329.049 803.337 328.954 904.373 195.543 1106.156 128.886 1106.445 128.791 1203 .545 1200.832.545 1104.421 127.834zM1278.646 44.817L1177.545 178.302 975.919 245.045 975.63 245.141 874.673 378.626 672.759 445.369 672.47 445.465 571.513 579.046 369.743 645.789 369.454 645.884 268.353 779.466 66.727 846.113 66.438 846.208 0 934.083 0 936.665 67.882 846.973 269.652 780.422 269.941 780.326 371.043 646.745 572.813 580.002 573.102 579.907 674.059 446.325 875.829 379.583 876.118 379.487 977.075 245.906 1178.845 179.163 1179.133 179.067 1280.235 45.486 1416 .545 1411.667.545 1411.667.736 1278.935 44.721zM1381.518 112.453L1280.483 245.781 1078.559 312.492 1078.269 312.492 977.235 445.915 775.31 512.531 775.021 512.627 673.986 645.954 472.061 712.57 471.772 712.666 370.738 846.089 168.813 912.705 168.524 912.8 67.489 1046.128 1 1068.11 1 1069.448 68.646 1047.179 68.935 1047.083 169.969 913.756 371.894 847.236 372.183 847.14 473.218 713.812 674.998 647.005 675.287 646.91 776.322 513.582 978.247 446.966 978.536 446.871 1079.715 313.448 1281.64 246.832 1281.929 246.736 1382.963 113.409 1584.888 46.793 1585.177 46.697 1619 1.872 1616.976 1.872 1583.732 45.837 1381.807 112.357z" transform="translate(-97 -3)"/>
                        <path d="M1304.381 61.172L1203.277 194.668 1001.503 261.321 1001.214 261.416 900.111 394.912 698.337 461.469 698.048 461.565 596.944 595.061 395.171 661.713 394.882 661.809 293.778 795.305 92.004 861.861 91.715 861.957 0 983.213 0 985.795 93.16 862.818 294.934 796.165 295.222 796.07 396.326 662.574 598.1 595.921 598.389 595.826 699.492 462.33 901.411 395.773 901.7 395.677 1002.803 262.181 1204.433 195.625 1204.721 195.529 1305.681 62.033 1492 0.545 1487.956 0.545 1304.67 61.077z" transform="translate(-97 -3)"/>
                        <path d="M1355.254 95.772L1254.372 229.217 1052.607 295.797 1052.318 295.892 951.291 429.242 749.525 495.822 749.236 495.917 648.209 629.267 446.444 695.847 446.155 695.942 345.128 829.292 143.507 895.872 143.218 895.968 42.191 1029.318 1 1042.882 1 1044.219 43.348 1030.273 43.637 1030.177 144.664 896.827 346.429 830.248 346.718 830.152 447.745 696.707 649.51 630.127 649.799 630.032 750.682 496.681 952.447 430.102 952.736 430.006 1053.763 296.752 1255.384 230.172 1255.673 230.077 1356.7 96.727 1558.465 30.147 1558.754 30.052 1580 1.872 1577.977 1.872 1557.453 29.097 1355.544 95.676zM800.117 127.95L799.828 128.046 698.747 261.674 496.729 328.392 496.44 328.487 395.359 462.115 193.341 528.929 193.052 529.024 91.826 662.652 0 692.996 0 694.336 92.983 663.609 93.272 663.514 194.498 529.886 396.516 463.168 396.805 463.072 497.886 329.445 699.904 262.727 700.193 262.631 801.274 129.003 1003.147 62.285 1003.436 62.189 1050 .545 1047.975.545 1002.135 61.232zM701.416 61.322L600.464 195.127 398.562 261.935 398.272 262.03 297.176 395.74 95.129 462.547 94.84 462.643 3 584.197 3 586.782 96.286 463.504 298.189 396.697 298.478 396.602 399.574 262.796 601.477 195.989 601.766 195.893 702.862 62.183 889 .545 884.95.545 701.705 61.226zM320.209 212.672L319.921 212.768 219.275 345.892 18.126 412.311 17.838 412.406 2 433.496 2 436.073 19.278 413.265 220.427 346.846 220.715 346.751 321.361 213.627 522.509 147.208 522.797 147.112 623.443 13.988 658 2.536 653.968 2.536 622.435 13.034 622.147 13.129 521.357 146.253zM121.339 1080.217L222.194 946.693 423.76 880.026 424.049 879.931 525.049 746.406 726.904 679.644 727.193 679.549 828.193 546.024 1029.904 479.358 1030.193 479.262 1131.048 345.833 1332.759 279.167 1333.048 279.071 1434.048 145.547 1635.614 78.88 1635.903 78.785 1695 .545 1692.977.545 1634.602 77.924 1432.892 144.59 1432.603 144.686 1331.603 278.21 1130.037 344.877 1129.748 344.972 1028.748 478.497 827.037 545.163 826.748 545.259 725.893 678.688 524.182 745.354 523.893 745.45 422.893 878.974 221.183 945.641 220.894 945.736 119.894 1079.261 3 1117.903 3 1119.242 121.05 1080.313z" transform="translate(-97 -3)"/>
                        <path d="M750.053 95.882L648.935 229.293 446.989 295.951 446.699 296.047 345.582 429.458 143.635 496.116 143.346 496.212 42.228 629.623 1 643.203 1 644.542 43.386 630.58 43.675 630.484 144.793 497.168 346.739 430.51 347.028 430.415 448.146 297.003 650.092 230.345 650.382 230.25 751.499 96.838 953.446 30.181 953.735 30.085 975 1.872 972.975 1.872 952.433 29.129 750.342 95.786zM296.47 196.48L296.182 196.576 195.328 329.912 3 393.574 3 394.91 196.482 330.962 196.771 330.867 297.624 197.53 499.042 130.91 499.331 130.814 596 2.536 593.98 2.536 497.888 129.86zM825.444 144.599L825.155 144.694 723.982 278.22 521.927 344.934 521.638 345.03 420.466 478.555 218.411 545.27 218.121 545.366 117.094 678.891 0 717.561 0 718.901 118.251 679.944 118.541 679.848 219.568 546.227 421.624 479.513 421.913 479.417 523.085 345.892 725.14 279.177 725.43 279.081 826.602 145.556 1028.657 78.841 1028.947 78.745 1088 .545 1085.974.545 1027.499 77.884z" transform="translate(-97 -3)"/>
                        <path d="M724.026 77.998L623.031 211.652 421.33 278.383 421.041 278.478 320.046 412.227 118.201 478.958 117.911 479.054 16.916 612.707 1 617.973 1 619.314 18.363 613.569 119.358 479.916 321.059 413.185 321.348 413.089 422.343 279.436 624.044 212.705 624.333 212.609 725.328 78.956 927.029 12.225 927.318 12.129 936 .545 934.119.545 926.161 11.172 724.316 77.903zM1558.071 629.642L1457.017 762.815 1255.198 829.306 1254.909 829.401 1153.856 962.67 952.037 1029.161 951.748 1029.256 880 1123.889 882.021 1123.889 953.192 1030.115 1155.011 963.623 1155.299 963.528 1256.353 830.26 1458.316 763.769 1458.605 763.673 1559.659 630.405 1702 583.47 1702 582.134 1558.359 629.546zM1407.095 530.22L1406.806 530.315 1305.807 663.801 1104.099 730.496 1103.81 730.591 1002.811 864.077 801.102 930.772 800.813 930.867 699.815 1064.353 514 1125.881 518.046 1125.881 701.115 1065.31 701.404 1065.214 802.403 931.729 1003.967 865.129 1004.256 865.034 1105.255 731.548 1306.963 664.853 1307.252 664.758 1408.251 531.272 1609.96 464.577 1610.249 464.482 1702 343.244 1702 340.469 1608.804 463.62zM1507.317 197.357L1507.028 197.453 1406.145 330.864 1204.236 397.473 1203.947 397.569 1102.775 530.884 900.865 597.494 900.576 597.589 799.549 731 597.64 797.61 597.351 797.706 496.323 931.116 294.414 997.726 294.125 997.822 197 1125.881 199.023 1125.881 295.57 998.682 497.48 932.072 497.769 931.976 598.94 798.566 800.85 731.956 801.139 731.86 902.311 598.45 1104.22 531.84 1104.509 531.744 1205.681 398.333 1407.591 331.819 1407.88 331.724 1509.051 198.313 1702 134.666 1702 133.328zM1305.355 1063.878L1406.328 930.298 1607.984 863.603 1608.273 863.507 1700 742.253 1700 739.482 1606.828 862.647 1405.172 929.342 1404.883 929.438 1303.911 1063.018 1118 1124.553 1122.045 1124.553 1305.066 1063.974z" transform="translate(-97 -3)"/>
                        <path d="M1583.611 646.434L1482.959 779.981 1281.655 846.659 1281.367 846.755 1180.571 980.302 979.266 1046.98 978.978 1047.075 920 1125.217 922.019 1125.217 980.42 1047.935 1181.724 981.257 1182.013 981.162 1282.809 847.71 1484.113 781.032 1484.401 780.936 1585.197 647.389 1702 608.7 1702 607.363 1583.9 646.338zM143.55 1098.629L244.549 965.045 446.257 898.397 446.546 898.301 547.545 764.718 749.398 698.07 749.687 697.974 850.686 564.391 1052.394 497.743 1052.683 497.647 1153.826 364.064 1355.535 297.416 1355.824 297.32 1456.823 163.737 1658.531 97.089 1658.82 96.993 1700 42.489 1700 39.716 1657.375 96.132 1455.667 162.781 1455.378 162.876 1354.379 296.459 1152.67 363.108 1152.381 363.203 1051.383 496.787 849.53 563.435 849.241 563.53 748.242 697.114 546.533 763.858 546.1 763.858 445.101 897.441 243.248 964.185 242.959 964.28 141.96 1097.864 57 1125.881 61.046 1125.881 143.261 1098.724z" transform="translate(-97 -3)"/>
                        <path d="M1608.732 664.003L1507.812 797.211 1305.972 863.767 1305.683 863.862 1204.619 997.166 1002.778 1063.722 1002.49 1063.817 956 1125.217 958.021 1125.217 1003.933 1064.677 1205.774 998.121 1206.062 998.025 1307.127 864.722 1508.967 798.166 1509.256 798.07 1610.32 664.863 1702 634.593 1702 633.256 1609.021 663.908zM623.164 1013.781L724.186 880.261 925.797 813.55 926.086 813.454 1027.108 679.935 1228.575 613.414 1228.864 613.318 1329.741 479.799 1531.352 413.087 1531.641 412.992 1632.519 279.472 1699 257.49 1699 256.152 1631.507 278.517 1631.218 278.612 1530.341 412.132 1328.73 478.843 1328.441 478.939 1227.418 612.458 1025.807 679.17 1025.518 679.266 924.496 812.785 722.885 879.497 722.596 879.592 621.574 1013.112 420.108 1079.632 419.819 1079.728 386 1124.553 388.023 1124.553 421.264 1080.588 622.875 1013.876z" transform="translate(-97 -3)"/>
                        <path d="M598.536 998.561L598.825 998.465 699.824 864.928 901.533 798.255 901.822 798.159 1002.821 664.622 1204.674 597.853 1204.963 597.757 1306.107 464.22 1507.96 397.547 1508.249 397.451 1609.248 263.914 1701 233.59 1701 232.251 1607.803 262.861 1607.514 262.957 1506.66 396.494 1304.806 463.168 1304.517 463.263 1203.663 596.896 1001.809 663.569 1001.52 663.665 900.521 797.203 698.668 863.876 698.379 863.971 597.524 997.604 395.815 1064.277 395.526 1064.373 349 1125.881 351.023 1125.881 396.826 1065.234z" transform="translate(-97 -3)"/>
                        <path d="M573.627 981.871L573.916 981.775 675.038 848.092 876.992 781.347 877.281 781.251 978.258 647.473 1180.212 580.727 1180.501 580.631 1281.623 446.949 1483.577 380.203 1483.866 380.108 1584.988 246.425 1702 207.697 1702 206.358 1583.543 245.564 1583.254 245.66 1482.422 379.343 1280.467 446.088 1280.178 446.184 1179.057 579.771 977.103 646.517 976.814 646.612 875.692 780.295 673.738 847.041 673.449 847.136 572.327 980.819 370.373 1047.565 370.084 1047.66 311 1125.881 313.022 1125.881 371.673 1048.521zM674.161 1048.592L775.327 915.059 977.226 848.293 977.515 848.197 1078.537 714.568 1280.437 647.897 1280.726 647.802 1381.748 514.269 1583.647 447.598 1583.936 447.502 1684.958 313.874 1701 308.613 1701 307.273 1683.946 312.821 1683.657 312.917 1582.491 446.45 1380.736 513.217 1380.447 513.312 1279.425 646.845 1077.381 713.612 1077.092 713.707 976.07 847.336 774.171 914.007 773.882 914.103 672.86 1047.636 470.96 1114.402 470.671 1114.498 462 1125.881 464.023 1125.881 471.972 1115.359 673.871 1048.688z" transform="translate(-97 -3)"/>
                        <path d="M648.885 1031.867L749.975 898.162 951.865 831.31 952.154 831.214 1053.244 697.51 1255.135 630.753 1255.424 630.658 1356.514 496.953 1558.404 430.196 1558.693 430.101 1659.783 296.396 1701 282.72 1701 281.381 1658.771 295.44 1658.482 295.535 1557.392 429.24 1355.501 496.092 1355.212 496.188 1254.122 629.797 1052.232 696.553 1051.943 696.649 950.853 830.354 748.818 897.11 748.529 897.206 647.439 1030.91 445.548 1097.667 445.259 1097.763 424 1125.881 426.025 1125.881 446.705 1098.719 648.596 1031.962zM473.078 914.027L473.367 913.932 574.44 780.526 776.151 713.918 776.44 713.823 877.513 580.417 1079.369 513.809 1079.658 513.714 1180.876 380.308 1382.587 313.605 1382.876 313.509 1483.949 180.103 1685.805 113.496 1686.094 113.4 1702 92.281 1702 89.509 1684.504 112.444 1482.792 179.052 1482.503 179.147 1381.43 312.553 1179.574 379.161 1179.285 379.257 1078.212 512.663 876.501 579.366 876.212 579.461 775.139 712.867 573.283 779.57 572.994 779.666 471.921 913.072 270.065 979.679 269.776 979.775 168.703 1113.181 134 1124.553 138.049 1124.553 169.715 1114.232 170.004 1114.137 271.077 980.73zM548.13 965.009L548.419 964.913 649.479 831.22 851.453 764.517 851.742 764.422 952.946 630.729 1154.92 563.93 1155.209 563.834 1256.269 430.141 1458.243 363.343 1458.532 363.247 1559.592 229.554 1702 182.469 1702 181.13 1558.435 228.692 1558.146 228.788 1457.231 362.481 1255.257 429.28 1254.968 429.376 1153.908 562.973 951.934 629.772 951.645 629.867 850.585 763.56 648.611 830.263 648.322 830.359 547.118 964.148 345.144 1030.851 344.855 1030.946 273 1125.881 275.024 1125.881 346.156 1031.808z" transform="translate(-97 -3)"/>
                        <path d="M525.314 947.46L525.602 947.365 626.523 814.02 828.22 747.538 828.509 747.443 929.43 614.098 1130.982 547.521 1131.271 547.425 1231.903 413.889 1433.456 347.312 1433.744 347.217 1534.665 213.872 1702 158.566 1702 157.229 1533.366 212.916 1533.077 213.012 1432.156 346.357 1230.892 412.934 1230.604 413.029 1129.683 546.374 928.13 612.951 927.841 613.047 826.921 746.392 625.224 812.969 624.935 813.064 524.014 946.409 322.462 1012.986 322.173 1013.082 238 1124.553 240.021 1124.553 323.761 1014.037zM1229.969 1013.245L1331.377 879.881 1533.758 813.246 1534.048 813.151 1635.311 679.786 1702 657.829 1702 656.493 1634.154 678.927 1633.864 679.022 1532.601 812.387 1330.219 879.021 1329.93 879.117 1228.667 1012.481 1026.285 1079.02 1025.996 1079.116 992 1123.889 994.025 1123.889 1027.297 1079.975 1229.679 1013.341z" transform="translate(-97 -3)"/>
                        <path d="M1281.252 1047.286L1382.538 913.791 1584.532 847.139 1584.821 847.044 1685.962 713.549 1702 708.289 1702 706.95 1684.95 712.592 1684.661 712.688 1583.52 846.183 1381.527 912.835 1381.238 912.931 1280.096 1046.426 1077.958 1113.078 1077.669 1113.173 1069 1124.553 1071.023 1124.553 1078.97 1114.034 1280.963 1047.382z" transform="translate(-97 -3)"/>
                        <path d="M1256.729 1030.182L1357.829 897.024 1559.594 830.54 1559.883 830.445 1660.838 697.287 1702 683.723 1702 682.385 1659.538 696.236 1659.249 696.332 1558.294 829.49 1356.529 895.973 1356.24 896.069 1255.285 1029.322 1053.52 1095.805 1053.231 1095.901 1032 1123.889 1034.022 1123.889 1054.675 1096.761 1256.441 1030.277zM725.137 1080.612L826.291 947.167 1028.311 880.492 1028.6 880.396 1129.755 746.95 1331.775 680.371 1332.064 680.275 1433.074 546.83 1635.094 480.155 1635.383 480.059 1702 392.274 1702 389.599 1633.937 479.295 1432.062 545.97 1431.773 546.066 1330.619 679.416 1128.599 746.091 1128.31 746.186 1027.155 879.632 825.28 946.307 824.991 946.402 723.836 1079.848 588 1124.553 592.046 1124.553 724.848 1080.708zM1127.44 947.384L1127.729 947.289 1228.643 813.814 1430.328 747.077 1430.617 746.982 1531.531 613.508 1699 558.244 1699 556.905 1530.376 612.743 1530.087 612.838 1429.173 746.313 1227.488 812.858 1227.344 812.954 1126.285 946.332 924.745 1012.974 924.456 1013.07 840 1124.553 842.021 1124.553 925.756 1013.93z" transform="translate(-97 -3)"/>
                        <path d="M1104.012 930.309L1104.301 930.213 1205.461 796.604 1407.058 729.848 1407.347 729.752 1508.362 596.143 1701 532.352 1701 531.013 1507.062 595.091 1506.773 595.187 1405.902 728.796 1204.16 795.552 1203.871 795.648 1102.855 929.257 901.114 996.013 900.825 996.109 804 1124.553 806.023 1124.553 902.27 997.065z" transform="translate(-97 -3)"/>
                        <path d="M751.525 1098.631L852.639 965.156 1054.435 898.514 1054.724 898.418 1155.694 764.943 1357.489 698.301 1357.778 698.205 1458.748 564.73 1660.543 498.088 1660.832 497.992 1702 443.493 1702 440.72 1659.532 497.036 1457.737 563.678 1457.448 563.774 1356.478 697.249 1154.682 763.891 1154.394 763.987 1053.424 897.558 851.484 964.2 851.195 964.295 750.225 1097.771 665 1125.881 669.045 1125.881 751.236 1098.727z" transform="translate(-97 -3)"/>
                        <path d="M1076.036 913.848L1076.325 913.753 1177.429 780.173 1379.346 713.478 1379.635 713.383 1480.738 579.802 1682.8 513.108 1683.09 513.012 1699 491.865 1699 489.186 1681.788 512.151 1479.871 578.846 1479.581 578.941 1378.478 712.521 1176.561 779.216 1176.271 779.311 1075.168 912.892 873.106 979.586 872.817 979.682 771.714 1113.166 737 1124.553 741.05 1124.553 772.726 1114.219 773.015 1114.123 874.119 980.543z" transform="translate(-97 -3)"/>
                    </g>
                </g>
            </g>
        </g>
    </g>
</svg>
