<svg width="16" height="12" viewBox="0 0 16 12" fill="none" xmlns="http://www.w3.org/2000/svg">
<path d="M14.1764 0.118317C14.3872 -0.0600546 14.7027 -0.0337638 14.881 0.177039C15.0594 0.387843 15.0331 0.703332 14.8223 0.881704L12.774 2.61431C13.9083 3.48145 14.8006 4.64994 15.3327 6.00001C14.1793 8.92668 11.3327 11 7.99935 11C6.57688 11 5.24304 10.6224 4.0916 9.96211L1.82232 11.8817C1.61152 12.0601 1.29603 12.0338 1.11766 11.823C0.939284 11.6122 0.965575 11.2967 1.17638 11.1183L3.22383 9.38506C2.08998 8.51799 1.19792 7.34975 0.666016 6.00001C1.81935 3.07334 4.66602 1.00001 7.99935 1.00001C9.4222 1.00001 10.7564 1.37778 11.908 2.03844L14.1764 0.118317ZM11.9117 3.34449L10.5797 4.47169C10.8462 4.91964 10.9993 5.44238 10.9993 6.00001C10.9993 7.65334 9.65268 9.00001 7.99935 9.00001C7.2636 9.00001 6.58858 8.73332 6.06594 8.2916L4.96043 9.22732C5.87832 9.72643 6.91301 10 7.99935 10C10.5844 10 12.8769 8.45092 13.9993 6.00001C13.5057 4.92202 12.7843 4.01849 11.9117 3.34449ZM7.99935 2.00001C5.42112 2.00001 3.1218 3.5491 1.99935 6.00001C2.49323 7.07841 3.21363 7.98222 4.0858 8.6563L5.41901 7.52833C5.15254 7.08038 4.99935 6.55764 4.99935 6.00001C4.99935 4.34668 6.34602 3.00001 7.99935 3.00001C8.73532 3.00001 9.41052 3.26686 9.93322 3.70881L11.0384 2.77433C10.1193 2.27418 9.08401 2.00001 7.99935 2.00001ZM9.80087 5.13078L6.84409 7.63247C7.17043 7.86392 7.56909 8.00001 7.99935 8.00001C9.10335 8.00001 9.99935 7.10401 9.99935 6.00001C9.99935 5.68856 9.92804 5.39367 9.80087 5.13078ZM7.99935 4.00001C6.89535 4.00001 5.99935 4.89601 5.99935 6.00001C5.99935 6.31146 6.07066 6.60635 6.19782 6.86924L9.15419 4.36725C8.82792 4.13598 8.42942 4.00001 7.99935 4.00001Z" fill="#333333"/>
</svg>
