<svg xmlns="http://www.w3.org/2000/svg" width="250" height="64" viewBox="0 0 160 64"><g fill="none" fill-rule="evenodd"><path d="M0 0h160v64H0z"/><path fill="#333" d="M152 10c2.21 0 4 1.79 4 4v37c0 2.21-1.79 4-4 4h-48c-2.21 0-4-1.79-4-4V14c0-2.21 1.79-4 4-4h48zm-1 8h-46a1 1 0 00-.993.883L104 19v31a1 1 0 00.883.993L105 51h46a1 1 0 00.993-.883L152 50V19a1 1 0 00-1-1zm-11.273 6a.998.998 0 01.815 1.578l-.078.098-9.201 10.037a.997.997 0 00-.255.552l-.008.124v8.993a1 1 0 01-1.34.941l-.107-.047-4-2a.997.997 0 01-.545-.77l-.008-.124v-6.993a.997.997 0 00-.185-.579l-.078-.097-9.2-10.037a.999.999 0 01.62-1.669l.116-.007h23.454zM140 12a2 2 0 10-.001 3.999A2 2 0 00140 12zm8 0a2 2 0 10-.001 3.999A2 2 0 00148 12zm-16 0a2 2 0 10-.001 3.999A2 2 0 00132 12z"/></g></svg>