<svg xmlns="http://www.w3.org/2000/svg" width="48" height="48" viewBox="0 0 48 48">
    <g fill="none">
        <path fill="#333" d="M21 36h6v3h10.5c.828 0 1.5.672 1.5 1.5v3c0 .828-.672 1.5-1.5 1.5h-27c-.828 0-1.5-.672-1.5-1.5v-3c0-.828.672-1.5 1.5-1.5H21v-3z"/>
        <g transform="translate(0 6)">
            <rect width="48" height="30" fill="#FF6444" rx="3"/>
            <path fill="#FFF" fill-opacity=".56" d="M37.28 6.577c1.32-.962 3.165-.694 4.155.604.99 1.298.76 3.15-.517 4.166l-.202.15-15 10.5c-1.249.876-2.956.676-3.968-.465l-.157-.195-2.91-3.885-8.183 4.688c-1.359.776-3.086.378-3.967-.915l-.135-.188c-.777-1.359-.378-3.086.915-3.967l.202-.12 10.5-6c1.235-.716 2.804-.462 3.75.607l.158.195 2.76 3.675 12.6-8.85z"/>
        </g>
    </g>
</svg>
