<svg xmlns="http://www.w3.org/2000/svg" width="24" height="16" viewBox="0 0 24 16">
    <g fill="none" fill-rule="evenodd">
        <rect width="24" height="16" fill="#FFF" fill-rule="nonzero" rx="2"/>
        <g transform="translate(6.47 2.51)">
            <path fill="#E7832C" d="M10.717.062c.267-.133.352-.045.192.196l-.484.725c-.161.242-.488.568-.729.73l-.725.483c-.242.16-.606.46-.814.668l.22-.22c-.209.208-.21.543-.004.75l.32.32c.207.206.207.54 0 .746l-.32.32c-.206.207-.579.271-.856.132l-.1-.05c-.267-.133-.586-.036-.725.242l-.05.1c-.134.267-.464.557-.748.652l-.588.196c-.28.093-.753.169-1.04.169-.294 0-.635.205-.774.483l-.05.1c-.134.267-.454.377-.715.247L1.54 6.457c-.261-.13-.64-.403-.846-.61l-.32-.32C.166 5.321 0 4.907 0 4.621c0-.295.242-.534.533-.534H0c.295 0 .7-.166.906-.373l.32-.32c.207-.206.621-.373.907-.373.295 0 .608-.223.702-.507l.196-.587c.093-.28.396-.46.683-.404l1.639.328c.283.057.742.046 1.03-.026l1.1-.275c.286-.072.723-.232 1-.371l.1-.05.967-.483.1-.05.967-.484.1-.05z"/>
            <circle cx="5.333" cy="9.954" r="1" fill="#445128"/>
            <path fill="#445128" fill-rule="nonzero" d="M8.53 7.69l.06-.108c.131-.263.452-.37.715-.238.264.131.37.452.239.715-.24.48-.644.884-1.163 1.23-.28.186-.575.344-.871.475l-.196.083c-.088.036-.16.062-.212.08-.28.093-.581-.058-.675-.338-.093-.28.058-.581.338-.674l.092-.034c.058-.022.133-.053.22-.092.244-.108.488-.238.712-.388.33-.22.585-.46.74-.711zM2.077 7.582c-.132-.263-.452-.37-.716-.238-.263.131-.37.452-.238.715.24.48.644.884 1.162 1.23.28.186.576.344.872.475l.195.083c.088.036.16.062.213.08.28.093.581-.058.674-.338.093-.28-.058-.581-.337-.674l-.093-.034c-.057-.022-.132-.053-.22-.092-.243-.108-.487-.238-.712-.388-.377-.252-.656-.53-.8-.819z" opacity=".75"/>
        </g>
        <rect width="23" height="15" x=".5" y=".5" fill-rule="nonzero" stroke="#000" stroke-opacity=".04" rx="1"/>
    </g>
</svg>
