<svg xmlns="http://www.w3.org/2000/svg" width="24" height="16" viewBox="0 0 24 16">
    <g fill="none" fill-rule="evenodd">
        <g fill-rule="nonzero">
            <g>
                <g transform="translate(-968 -1872) translate(936 1584) translate(32 288)">
                    <path fill="#2D754D" d="M2 13h20c1.105 0 2 .895 2 2v1H0v-1c0-1.105.895-2 2-2z" transform="matrix(1 0 0 -1 0 29)"/>
                    <path fill="#FECB2F" d="M0 10H24V13H0z"/>
                    <path fill="#25B1EB" d="M2 0h20c1.105 0 2 .895 2 2v8H0V2C0 .895.895 0 2 0z"/>
                    <g fill="#FECB2F">
                        <path d="M2.99 0l.12 2.07.653-1.968-.419 2.031L4.484.401l-.93 1.853L5.104.876l-1.379 1.55 1.854-.931-1.733 1.14 2.032-.42-1.97.654 2.071.12-2.07.122 1.969.652-2.032-.419 1.733 1.14-1.854-.93 1.379 1.55-1.55-1.379.93 1.854-1.14-1.733.42 2.032-.653-1.97L2.99 5.98l-.121-2.07-.653 1.969.419-2.032-1.14 1.733.93-1.854-1.55 1.379 1.38-1.55-1.854.93 1.732-1.14-2.031.42L2.07 3.11 0 2.99l2.07-.121-1.968-.653 2.031.419-1.732-1.14 1.853.93L.876.875l1.55 1.38L1.494.4l1.14 1.732-.42-2.031.654 1.969L2.989 0zm0 2.063c-.512 0-.927.415-.927.927s.415.927.927.927.927-.415.927-.927-.415-.927-.927-.927zm0 .087c.463 0 .84.376.84.84 0 .463-.377.84-.84.84-.464 0-.84-.377-.84-.84 0-.464.376-.84.84-.84z" transform="translate(16 2)"/>
                    </g>
                    <rect width="23" height="15" x=".5" y=".5" stroke="#000" stroke-opacity=".04" rx="1"/>
                </g>
            </g>
        </g>
    </g>
</svg>
