<svg xmlns="http://www.w3.org/2000/svg" xmlns:xlink="http://www.w3.org/1999/xlink" width="114" height="114" viewBox="0 0 114 114" aria-labelledby="flag-malta" role="img">
    <title id='flag-malta'>Flag Malta</title>
    <defs>
        <path id="a" d="M0 0h282v150H0z"/>
        <circle id="c" cx="45" cy="45" r="45"/>
        <filter id="d" width="135.6%" height="135.6%" x="-17.8%" y="-17.8%" filterUnits="objectBoundingBox">
            <feMorphology in="SourceAlpha" operator="dilate" radius="4" result="shadowSpreadOuter1"/>
            <feOffset in="shadowSpreadOuter1" result="shadowOffsetOuter1"/>
            <feGaussianBlur in="shadowOffsetOuter1" result="shadowBlurOuter1" stdDeviation="4"/>
            <feComposite in="shadowBlurOuter1" in2="SourceAlpha" operator="out" result="shadowBlurOuter1"/>
            <feColorMatrix in="shadowBlurOuter1" values="0 0 0 0 0.856968976 0 0 0 0 0.856968976 0 0 0 0 0.856968976 0 0 0 0.46645542 0"/>
        </filter>
    </defs>
    <g fill="none" fill-rule="evenodd" transform="translate(-154 -18)">
        <mask id="b" fill="#fff">
            <use xlink:href="#a"/>
        </mask>
        <g mask="url(#b)">
            <g transform="translate(166 30)">
                <mask id="e" fill="#fff">
                    <use xlink:href="#c"/>
                </mask>
                <use fill="#000" filter="url(#d)" xlink:href="#c"/>
                <circle cx="45" cy="45" r="47" fill="#D8D8D8" stroke="#333" stroke-width="4"/>
                <g mask="url(#e)">
                    <path fill="#FFF" fill-rule="nonzero" stroke="#CCC" stroke-width=".5" d="M-1.75.25h93.5v95.5h-93.5z"/>
                    <path fill="#CF142B" fill-rule="nonzero" d="M43 0h49v96H43z"/>
                    <path fill="#E60D2E" fill-rule="nonzero" d="M13.033 28.084v6.788h6.788c0 1.131 1.131 2.262 2.263 2.262v6.788h6.787v-6.788c1.132 0 2.263-1.131 2.263-2.262h6.788v-6.788h-6.788c0-1.131-1.131-2.263-2.263-2.263v-6.788h-6.787v6.788c-1.132 0-2.263 1.132-2.263 2.263h-6.788z"/>
                    <path fill="#96877D" fill-rule="nonzero" d="M13.486 28.536v5.883h6.787c0 1.131 1.132 2.263 2.263 2.263v6.787h5.883v-6.787c1.131 0 2.262-1.132 2.262-2.263h6.788v-5.883H30.68c0-1.131-1.131-2.263-2.262-2.263v-6.787h-5.883v6.787c-1.131 0-2.263 1.132-2.263 2.263h-6.787z"/>
                    <path fill="#CCC" fill-rule="nonzero" d="M13.712 28.762v5.43H20.5c0 1.132 1.131 2.264 2.263 2.264v6.787h5.43v-6.787c1.131 0 2.262-1.132 2.262-2.263h6.788v-5.43h-6.788c0-1.132-1.131-2.263-2.262-2.263v-6.788h-5.43V26.5c-1.132 0-2.263 1.131-2.263 2.262h-6.788z"/>
                    <g fill-rule="nonzero">
                        <path fill="#96877D" d="M22.339 26.419c.397.398.29 1.15-.24 1.68s-1.283.638-1.68.24c-.398-.398-.29-1.15.24-1.68s1.282-.638 1.68-.24z"/>
                        <path fill="#D0D0D0" d="M20.339 27.619l.16-.16.64.32-.32-.64.16-.16.64 1.28-1.28-.64zM21.299 26.659l.16-.16.96.96-.16.16z"/>
                    </g>
                    <g fill-rule="nonzero">
                        <path fill="#96877D" d="M30.536 28.339c-.397.398-1.15.29-1.68-.24s-.637-1.282-.24-1.68c.398-.397 1.15-.29 1.68.24s.638 1.282.24 1.68z"/>
                        <path fill="#D0D0D0" d="M29.337 26.339l.16.16-.32.64.64-.32.16.16-1.28.64.64-1.28zM30.297 27.3l.16.159-.96.96-.16-.16z"/>
                    </g>
                    <g fill-rule="nonzero">
                        <path fill="#96877D" d="M28.616 36.537c-.397-.398-.29-1.15.24-1.68s1.283-.638 1.68-.24c.398.397.29 1.15-.24 1.68s-1.282.637-1.68.24z"/>
                        <path fill="#D0D0D0" d="M30.616 35.337l-.16.16-.64-.32.32.64-.16.16-.64-1.28 1.28.64zM29.656 36.297l-.16.16-.96-.96.16-.16z"/>
                    </g>
                    <g fill-rule="nonzero">
                        <path fill="#96877D" d="M20.419 34.617c.397-.398 1.15-.29 1.68.24s.637 1.282.24 1.68c-.398.397-1.15.29-1.68-.24s-.638-1.283-.24-1.68z"/>
                        <path fill="#D0D0D0" d="M21.618 36.617l-.16-.16.32-.64-.64.32-.16-.16 1.28-.64-.64 1.28zM20.659 35.657l-.16-.16.96-.96.16.16z"/>
                    </g>
                    <g stroke="#96877D" stroke-width=".5" transform="translate(20.616 26.616)">
                        <circle cx="4.862" cy="4.862" r="4.752"/>
                        <circle cx="4.862" cy="4.862" r="3.621"/>
                    </g>
                    <g fill="#000" fill-rule="nonzero" transform="translate(20.765 26.765)">
                        <circle cx="2.902" cy="8.558" r="1"/>
                        <circle cx="6.522" cy="8.558" r="1"/>
                        <path d="M4.562 8.558v.236H4.26c-.301 0-.301.236 0 .236h.302v.236c.001.245.263.274.283.02l.019-.255h.301c.302 0 .302-.235 0-.235h-.301V8.56c0-.236-.302-.236-.302 0v-.002zM.292 5.884l.31-.074-.033-.145C.56 5.632.548 5.61.529 5.598c-.018-.012-.05-.015-.094-.01L.43 5.566l.268-.064.005.022a.16.16 0 0 0-.065.028.078.078 0 0 0-.024.04.134.134 0 0 0 .003.062l.034.144.25-.06a.27.27 0 0 0 .077-.026.054.054 0 0 0 .019-.03.114.114 0 0 0 .001-.057l-.007-.029.022-.005.08.34-.02.005-.007-.028c-.008-.033-.023-.054-.046-.065-.015-.006-.046-.004-.093.008l-.512.122a.27.27 0 0 0-.077.026.054.054 0 0 0-.02.03.112.112 0 0 0 0 .057l.006.028-.022.005-.14-.589.172-.049.005.02a.246.246 0 0 0-.073.055.12.12 0 0 0-.026.06.272.272 0 0 0 .01.093l.042.175zm-.2-1.404a.37.37 0 0 1 .135-.268.415.415 0 0 1 .306-.099.428.428 0 0 1 .301.134c.077.083.113.18.106.29a.375.375 0 0 1-.135.275.429.429 0 0 1-.315.097.412.412 0 0 1-.308-.15.39.39 0 0 1-.09-.28zm.042.014a.215.215 0 0 0 .071.18c.065.058.161.09.29.098a.483.483 0 0 0 .312-.068.21.21 0 0 0 .09-.168.236.236 0 0 0-.078-.194c-.056-.053-.149-.083-.277-.09-.14-.008-.244.013-.316.064a.222.222 0 0 0-.092.178zm1.18-1.486l-.078.203-.454.122a1.315 1.315 0 0 1-.03.08l.221.083c.048.019.08.025.095.019.022-.008.038-.027.05-.055l.01-.03.021.008-.124.326-.02-.008.01-.028c.013-.033.01-.06-.005-.081-.008-.013-.034-.027-.078-.043l-.491-.188c-.048-.018-.08-.024-.095-.018-.022.009-.039.027-.05.056l-.01.028-.021-.007.105-.277c.03-.081.06-.139.086-.172a.219.219 0 0 1 .102-.073.181.181 0 0 1 .128.003.19.19 0 0 1 .105.092c.022.043.029.1.019.17l.278-.075a.417.417 0 0 0 .135-.054.25.25 0 0 0 .07-.09l.02.009zm-.597.39a.565.565 0 0 1 .012-.03c.028-.073.033-.134.016-.182a.161.161 0 0 0-.1-.101.168.168 0 0 0-.132 0 .17.17 0 0 0-.09.101.53.53 0 0 0-.023.092l.317.12zM2.448.704l.158.204-.018.011A.351.351 0 0 0 2.44.842a.257.257 0 0 0-.194.042.265.265 0 0 0-.132.232c0 .083.026.164.078.245a.494.494 0 0 0 .153.153c.06.038.118.056.175.054a.283.283 0 0 0 .217-.1.347.347 0 0 0 .05-.073l-.128-.197a.218.218 0 0 0-.051-.062.063.063 0 0 0-.04-.009.167.167 0 0 0-.063.03l-.013-.02.265-.171.012.019-.012.008c-.027.017-.039.037-.037.061a.21.21 0 0 0 .037.08l.136.21a.596.596 0 0 1-.2.216c-.133.085-.26.107-.384.067a.404.404 0 0 1-.22-.17.437.437 0 0 1-.068-.2.44.44 0 0 1 .043-.243.412.412 0 0 1 .15-.159.416.416 0 0 1 .175-.067.167.167 0 0 0 .044-.014.024.024 0 0 0 .01-.02C2.446.747 2.44.734 2.43.715l.018-.011zm1.326.092l-.305.08-.02.139a.203.203 0 0 0-.002.074c.003.012.012.02.026.027.014.006.04.005.078-.002l.006.021-.248.066-.005-.021c.031-.015.05-.028.057-.04a.368.368 0 0 0 .036-.13L3.5.287l.02-.006.448.582a.309.309 0 0 0 .088.086c.022.01.05.013.082.006l.006.022-.31.082-.006-.021c.03-.01.05-.02.059-.033A.042.042 0 0 0 3.896.97.249.249 0 0 0 3.85.895l-.077-.1zM3.746.756L3.528.474l-.052.354.27-.072zM5.183.752l.02.005-.079.218-.63-.025.001-.022.03.001c.035.002.06-.009.076-.03.009-.013.014-.042.016-.089l.02-.524C4.64.235 4.635.203 4.624.19 4.61.17 4.587.162 4.556.16h-.03V.136l.368.014v.023a.225.225 0 0 0-.092.008.073.073 0 0 0-.037.03.262.262 0 0 0-.013.092l-.02.51a.166.166 0 0 0 .007.07.043.043 0 0 0 .022.019.39.39 0 0 0 .093.01l.06.002a.43.43 0 0 0 .131-.009.171.171 0 0 0 .071-.046.4.4 0 0 0 .067-.108zm1.083.29l.018.01-.136.188-.598-.198.007-.021.03.01c.032.01.059.007.08-.01.012-.009.025-.035.04-.08l.165-.498c.015-.048.02-.08.014-.096C5.876.325 5.857.31 5.828.3l-.03-.01.008-.02.35.115-.007.021a.225.225 0 0 0-.09-.017.074.074 0 0 0-.044.019.262.262 0 0 0-.038.084l-.161.486a.166.166 0 0 0-.012.068c.002.01.007.017.015.024a.39.39 0 0 0 .087.035l.056.019a.43.43 0 0 0 .13.028c.026 0 .053-.009.08-.025a.4.4 0 0 0 .094-.085zm.874.462l-.257-.182-.12.073a.203.203 0 0 0-.057.046c-.007.01-.009.023-.005.037.005.015.022.034.052.06l-.013.017-.209-.148.013-.018c.031.015.054.021.067.02a.368.368 0 0 0 .123-.057l.621-.381.017.012-.16.716a.309.309 0 0 0-.01.122.127.127 0 0 0 .047.068l-.012.018-.262-.186.012-.018c.028.018.049.026.063.025a.042.042 0 0 0 .034-.018.249.249 0 0 0 .028-.082l.028-.124zm.012-.046l.077-.348-.306.187.229.161zm.965.178l.131.178-.194.763.377-.28c.04-.03.062-.053.065-.069.005-.022-.002-.046-.021-.071l-.017-.023.018-.013.169.227-.018.014-.017-.024c-.02-.027-.044-.04-.069-.04-.016 0-.042.015-.078.042l-.551.408-.013-.017.207-.821-.403.298c-.04.03-.062.053-.065.069-.005.022.002.046.021.071l.017.023-.018.014-.168-.228.018-.013.016.022c.021.028.044.042.07.041.015 0 .041-.014.078-.041l.454-.337a.37.37 0 0 0 .012-.076.196.196 0 0 0-.012-.058.191.191 0 0 0-.027-.046l.018-.013zm1.026 1.891l-.177.072-.008-.021a.23.23 0 0 0 .062-.041.12.12 0 0 0 .032-.064.172.172 0 0 0-.011-.082l-.039-.108-.586.207c-.047.017-.075.032-.083.047-.01.02-.01.044 0 .074l.01.027-.022.007-.115-.325.021-.007.01.027c.011.032.03.052.054.058.015.004.044-.001.087-.017l.586-.207-.033-.092a.273.273 0 0 0-.035-.074.111.111 0 0 0-.059-.035.177.177 0 0 0-.091.004l-.008-.022.183-.054.222.626zm-.644 1.444l-.012-.217.366-.295a1.325 1.325 0 0 1-.004-.085l-.236.012c-.052.003-.083.01-.095.022-.017.016-.024.039-.023.07l.002.031-.022.001-.018-.348.022-.001.001.03c.002.035.015.059.038.072.013.008.042.01.089.008l.525-.027c.05-.002.082-.01.094-.022.017-.016.024-.04.023-.07l-.002-.031.022-.001.016.296a.705.705 0 0 1-.01.192.219.219 0 0 1-.063.108.181.181 0 0 1-.119.049.19.19 0 0 1-.132-.042.276.276 0 0 1-.086-.148l-.225.18a.418.418 0 0 0-.101.105.25.25 0 0 0-.028.11h-.022zm.387-.6l.001.02v.014c.005.078.024.135.06.173.036.038.08.055.131.052a.168.168 0 0 0 .122-.054.17.17 0 0 0 .04-.128.528.528 0 0 0-.015-.094l-.339.018zm.224 1.675l-.072.274-.022-.005.004-.015a.178.178 0 0 0-.026-.11.54.54 0 0 0-.066-.08l-.25-.27-.197-.05c-.048-.014-.08-.016-.094-.008-.02.01-.035.031-.043.063l-.007.025-.021-.005.087-.335.022.006-.007.028c-.01.033-.005.06.011.079.01.011.037.023.082.035l.186.048.386-.129a.719.719 0 0 0 .087-.033.211.211 0 0 0 .05-.047.08.08 0 0 0 .014-.032l.021.005-.088.337-.022-.006.005-.017a.106.106 0 0 0 0-.054.043.043 0 0 0-.032-.033c-.014-.003-.042.002-.085.016l-.296.098.202.218c.03.032.054.051.072.056a.054.054 0 0 0 .058-.02.12.12 0 0 0 .02-.045l.02.006z"/>
                    </g>
                    <g fill="#96877D" fill-rule="nonzero" stroke="#000" stroke-width=".5" transform="translate(22.408 28.259)">
                        <path d="M5.652 3.911c.08-.02.21-.004.21-.004s.012.055-.022.073c.038.022.176.015.176.015s-.054.041-.08.058c.05.004.11.068.11.068s-.114.02-.164-.007c.03.061.027.115.027.115s-.186-.046-.253-.169M5.342 3.807c-.045.11-.375-.096-.375-.096s.145.23.363.256M1.222 5.923h3.864l.298-.238-.497-.267-.765-.26-.306-.169-.567.03-.474.253-.65.077-.153.176-.483.038-.757-.015 1.263.199-1.041-.054.268.23z"/>
                        <path d="M3.303 4.813c-.484-.26-.625.38-.834.536.281.047.494-.217.735-.345.183.498.47.169.47.169s.3.476.7.26c.11.082.23.007.23.007s.145.027.176-.038c.077.027.16-.069.16-.069s.167.002.2-.084c.247.044.574-.505.574-.505l.1-.191.145-.03s.01-.096-.07-.093c-.001-.057-.051-.088-.122-.076.014-.035-.038-.061-.038-.061-.138.034-.145.382-.145.382s-.241.184-.33.23c-.003-.2-.336-.469-.267-.597s.285.197.474.138c.19-.06.283-.306.29-.498-.053-.13-.183-.344-.183-.344l-.122-.008-.107-.26s-.226.147-.222.276c.004.128.237.237.237.237s-.135.084-.26.046c-.012.13.153.105.214.107.03.094.123.145.123.145s.057.144-.092.13c-.15-.013-.326-.357-.536-.199-.224.169.1.475.1.475s-.198.103-.314.367c-.477-.402-.756-.214-1.286-.107z"/>
                        <path d="M2.607 4.132c.2.188.06.5.138.559.082.063.2-.03.2-.03.208.055.58-.062.58-.062.165.092.1-.044.2-.038.088.225.382.183.382.183s-.27-.275-.436-.352c-.128.077-.501.088-.566.077-.073-.013-.027-.102-.061-.153.137-.134.028-.465-.046-.59-.304-.202-.668.145-.39.406zM1.284 3.572C1.034 3.64.6 3.25.397 3.4c-.203.15-.108.52.027.703.132.18-.194.245-.282.352-.082.1.027.216.027.216l.092.06-.016.135.049.163s.045.039.06-.011c.041.042.004.163.108.178-.037-.077.027-.292.027-.292s.181.014.227-.065C.762 4.76.673 4.59.673 4.59h.054c-.061-.042-.081-.167-.081-.167s.251-.08.249-.271c-.003-.19-.409-.394-.26-.492.165-.11.452.284.698.102.243-.179.086-.005.086-.005s.112-.25-.135-.184zM2.576.892c-.335-.14-1.019-.149-1.4-.337C1.008.565.934.698.927.75c-.175-.008-.294.267-.268.322-.318-.13-.467.374-.363.478-.272.011-.239.358-.264.455-.087.211.019.283.191.207.026.091-.01.143-.088.16.471.54.738-.332 1.152-.329.516-.15.719-.405.719-.405l.203.027.367-.773z"/>
                        <circle cx="3.008" cy=".505" r="1"/>
                        <path d="M2.14 4.392c-.306-.056-.813-.373-.865-.788.285-1.12 1.756-.535 1.882-1.377-.032-.555.068-1.105.376-1.57a.681.681 0 0 1 .329-.229s.033.119-.016.199c.243-.027.576.11.804.122.067.136.061.186.046.268-.016.083-.107.062-.107.062-.06.056-.131.113-.291.084-.12.091-.375.114-.375.114s.532.561.444.735c.11.052.275.298.275.298s.364-.19.482-.367c.21 0 .555.22.727.245.21.17.421.344.421.344s-.25.165-.36-.053c-.132.011-.417-.304-.81-.207-.012.35-.399.597-.399.597s.361-.05.559.069c.205.172.505.406.505.406l.268.459s-.245.042-.337-.276c-.092.257-.096-.159-.459-.352-.111.014-.166.021-.26-.053-.262.07-.572.223-.941.183-.262.083-.454.3-.72.421-.266.12-.344.061-.344.061l-.214.008c-.031.129-.014.325-.13.36.074.08-.054.422-.184.482.061.22.24.287.428.398 0 0 .167-.077.276.023.109.1.222.382.222.382s-.227.016-.299-.015c-.071-.03-.078-.105-.16-.084-.519-.461-.792-.278-.842-.383-.051-.107.122-.388.069-.566z"/>
                        <path d="M.895 2.338c.027-.034.216.038.216.038l.346.216.704.455.249.362-.45-.146-.622-.536-.335-.216s-.136-.14-.109-.173zM5.055 3.49c-.243-.061-.842.666-.842.666l.452.49s.013-.835.39-1.156z"/>
                        <path d="M2.094 1.462c-.132.17-.144.512.028.65.016.208.193.627.332.666.151.043.757.184.995.145-.046.385.256.693.535.896a.165.165 0 0 0 .03.119c.031.041.178.049.184.026.066.092.38.132.404.091.022-.04-.464-.378-.572-.481-.092-.171-.265-.552-.306-.857-.239-.284-.648-.278-.648-.278l.013-.556.023-.628-.222-.115s.045-.02.069-.045c.054.023.155-.086.168-.116.051.018.097.018.106-.01.008-.024.017-.13.036-.186.167-.148-.024-.46-.28-.465-.254-.006-.31.302-.306.325.024.096.019.145 0 .168-.019.024-.107.077-.107.077s-.141-.067-.314 0c-.172.067-.365.157-.375.268-.078.011-.206.113-.23.199-.068-.014-.158.044-.305.283-.264.117-.28.68-.28.68s-.07.105-.074.16c-.003.055.025.105.06.095.003.037.05.07.072.058.008.036.06.056.092.051.003.025.104.019.113-.003.009-.025-.01-.15.002-.16.01-.008.095.056.118.039.023-.017-.004-.072-.017-.094-.012-.019-.084-.04-.101-.13-.018-.09.045-.214.045-.214s.287-.226.32-.42c.216.022.33-.167.392-.238z"/>
                        <path d="M1.595.653c.065-.16.302-.146.302-.146s.085-.223.404-.09c.12-.092.436.04.436.04S2.855.3 3.01.317c.288.034.336.298.318.343C3.17.7 2.898.532 2.69.58c-.121.068-.317.14-.39.239-.192.02-.397-.176-.706-.166zM2.194.919c.071-.044.247-.122.367-.027.125.135.317.26.317.26l.219.092.099.061-.065.999c-.202-.207-.391-.243-.536-.486-.077-.105-.018-.355-.153-.52-.135-.166-.278-.278-.248-.38z"/>
                        <path d="M2.718 1.207s.114-.022.146.005c.04.014.078.025.09.06.043.013.072.035.072.067.04.011.057.084.057.084l-.038.057s-.043-.04-.048-.084c-.028-.013-.088-.027-.103-.067-.048-.005-.078-.03-.087-.07-.044.01-.09-.052-.09-.052z"/>
                        <path d="M3.686.555c-.065-.073-.18-.02-.18-.02l-.306.529-.134.11-.012.414.111.387-.038.298s.154-.145.172-.226c.017-.077-.057-.329-.057-.329s-.092-.157.019-.447c.11-.291.363-.532.425-.716z"/>
                        <path d="M4.441 1.026s-.478.683-1.26.926c-.216.051-.138-.506-.138-.506l-.053.016s-.121.545.168.55c.786-.154 1.376-.982 1.376-.982l-.094-.004h.001zM4.765 4.952s-.072.053-.168 0c-.05-.115-.184-.123-.184-.123s-.086-.247-.222-.176c-.02-.128-.168-.06-.168-.06s-.004-.186-.176-.161c.057-.213-.237-.2-.237-.2s-.01-.239-.444-.19c.935-.42 1.676.657 1.676.657M5.209 5.043s.216.243.329.245c.113.002.122-.237.122-.237s.037.103.092.076c-.006.073.069.092.069.092s-.195.453-.75.023M3.517 5.136l-.077.313s-.097.088-.069.107c.03.02.184-.03.184-.03s.241-.029.314-.1c.05.113.16.123.16.123s.008-.048-.007-.077c.053.01.1-.007.1-.007s.03-.088-.039-.123c.008-.065.04-.122-.076-.115-.087.092-.299.197-.352.161-.054-.036.21-.153.137-.306"/>
                    </g>
                </g>
            </g>
        </g>
    </g>
</svg>
