<svg xmlns="http://www.w3.org/2000/svg" xmlns:xlink="http://www.w3.org/1999/xlink" width="24" height="16"><defs><rect id="a" width="24" height="16" x="0" y="0" rx="2"/></defs><g fill="none" fill-rule="evenodd"><mask id="b" fill="#fff"><use xlink:href="#a"/></mask><use fill="#FFF" fill-rule="nonzero" xlink:href="#a"/><path fill="#E1244A" d="M24 13.714v1.143H0v-1.143h24zm0-2.285v1.142H0V11.43h24zm0-2.286v1.143H0V9.143h24zm0-2.286V8H11.429V6.857H24zm0-2.286v1.143H11.429V4.571H24zm0-2.285v1.143H11.429V2.286H24zM24 0v1.143H11.429V0H24z" mask="url(#b)"/><path fill="#0C3F8E" d="M0 0h13.714v9.143H0z" mask="url(#b)"/><path fill="#FFD34F" d="M5.714 1.143c.81 0 1.555.28 2.142.75a2.858 2.858 0 10-.001 5.357 3.43 3.43 0 11-2.14-6.106zM9 2.5l.183 1.22.708-1.022-.38 1.177 1.092-.622-.865.9L11 4.055 9.82 4.5l1.18.445-1.262-.098.865.9-1.092-.622.38 1.177-.708-1.022L9 6.5l-.183-1.22-.708 1.022.38-1.177-1.092.622.865-.9L7 4.945 8.18 4.5 7 4.055l1.262.098-.865-.9 1.092.622-.38-1.177.708 1.022L9 2.5z" mask="url(#b)"/><rect width="23" height="15" x=".5" y=".5" stroke="#000" stroke-opacity=".04" mask="url(#b)" rx="1"/></g></svg>