<svg xmlns="http://www.w3.org/2000/svg" width="41" height="41" viewBox="0 0 41 41">
    <g fill="none" fill-rule="evenodd">
        <circle cx="20" cy="20" r="20" fill="#333"/>
        <g transform="translate(5 5)">
            <rect width="30" height="30" rx="3.73"/>
            <path fill="#FFF" fill-rule="nonzero" d="M27.188 7.845c-.837.376-1.729.626-2.658.747.956-.586 1.686-1.506 2.029-2.615-.892.545-1.876.93-2.925 1.145-.847-.924-2.053-1.497-3.37-1.497-2.553 0-4.61 2.126-4.61 4.732 0 .375.032.736.108 1.08-3.835-.193-7.228-2.078-9.508-4.95-.398.709-.631 1.52-.631 2.392 0 1.638.822 3.09 2.049 3.932-.742-.015-1.469-.236-2.084-.583v.052c0 2.299 1.598 4.208 3.695 4.648-.375.106-.785.156-1.21.156-.295 0-.593-.017-.873-.08.598 1.873 2.294 3.25 4.31 3.295-1.569 1.26-3.561 2.018-5.719 2.018-.378 0-.74-.017-1.104-.065 2.044 1.351 4.465 2.123 7.077 2.123 8.488 0 13.128-7.212 13.128-13.463 0-.209-.007-.41-.016-.611.915-.666 1.684-1.499 2.311-2.456z"/>
        </g>
    </g>
</svg>
