<svg xmlns="http://www.w3.org/2000/svg" width="41" height="41" viewBox="0 0 41 41">
    <g fill="none" fill-rule="evenodd">
        <circle cx="20" cy="20" r="20" fill="#333"/>
        <g transform="translate(5 5)">
            <rect width="30" height="30" rx="3.73"/>
            <path fill="#FFF" fill-rule="nonzero" d="M20.04 3.75c3.425 0 6.21 2.786 6.21 6.21v10.08c0 3.424-2.785 6.21-6.21 6.21H9.96c-3.425 0-6.21-2.785-6.21-6.21V9.96c0-3.424 2.785-6.21 6.21-6.21zm0 1.996H9.96c-2.324 0-4.214 1.89-4.214 4.213v10.082c0 2.323 1.89 4.213 4.213 4.213h10.082c2.323 0 4.213-1.89 4.213-4.213V9.959c0-2.323-1.89-4.213-4.213-4.213zM15 9.107c3.25 0 5.893 2.644 5.893 5.893 0 3.25-2.644 5.893-5.893 5.893-3.25 0-5.893-2.644-5.893-5.893 0-3.25 2.644-5.893 5.893-5.893zm0 2.03c-2.13 0-3.864 1.732-3.864 3.863 0 2.13 1.734 3.864 3.864 3.864S18.864 17.13 18.864 15 17.13 11.136 15 11.136zM21.16 7.5c.354 0 .7.142.948.392.25.248.392.594.392.947 0 .352-.142.698-.392.948-.25.248-.594.392-.947.392-.352 0-.698-.144-.946-.392-.25-.25-.394-.596-.394-.948 0-.353.144-.699.394-.947.248-.25.594-.392.946-.392z"/>
        </g>
    </g>
</svg>
