<svg xmlns="http://www.w3.org/2000/svg" width="87" height="50" viewBox="0 0 87 50" aria-labelledby="vanuatu-icon-title">
    <title id='vanuatu-icon-title'>Vanuatu icon</title>
    <g fill="#85ACB0" fill-rule="evenodd">
        <path d="M55.679 6.494a13.382 13.382 0 0 1 1.515 3.444c1.99 7.096-2.126 14.468-9.193 16.466l7.678-19.91zm-8.904-.549H33.473a13.315 13.315 0 0 1 3.35-3.363c6.033-4.2 14.314-2.694 18.496 3.363H49.35L44.397 20.63l-1.91-4.945h1.743l.944-3.745H41.14v-2.36l4.627-.038 1.008-3.596zm-15.307 4.467c.312-1.164.75-2.29 1.305-3.36l1.555 3.645-11.293 11.438 8.433-11.723zm3.142.933l1.527 3.574-9.103 9.446 4.323-6.698c-.167-.74-.26-2.928-.26-2.928l3.513-3.394zm1.833 4.293l1.428 3.319-6.95 7.331 2.48-4.474c-.368-.748-.872-2.228-.872-2.228l3.914-3.948zm1.684 3.948l1.39 3.278-4.814 4.943 1.613-3.24a18.203 18.203 0 0 1-1.312-1.56l3.123-3.42zm1.656 3.886l1.283 3.003c-2.116-.168-2.997-1.18-2.997-1.18l1.714-1.823zM2.132 39.745L0 33.145h1.37l1.123 4.115a38.72 38.72 0 0 1 .24 1.25c.034-.284.07-.535.11-.753.04-.219.081-.405.121-.54l1.138-4.073h1.341l-2.146 6.601H2.132zm6.778-2.51l-.646-2.133a3.987 3.987 0 0 1-.07-.326c-.028-.154-.06-.34-.091-.563l-.099.575c-.03.17-.056.284-.07.34l-.624 2.106h1.6zm-3.67 2.51l2.194-6.6h1.411l2.219 6.6H9.652l-.468-1.403h-2.22l-.404 1.403H5.24zm6.435 0v-6.6h1.28l2.553 3.846c.093.146.174.3.242.458.087.202.18.43.273.697a8.783 8.783 0 0 1-.063-.582c-.014-.192-.02-.433-.02-.72v-3.7h1.178v6.601h-1.21l-2.622-3.914a3.039 3.039 0 0 1-.24-.457c-.087-.203-.18-.432-.276-.705.028.188.05.38.062.575.012.194.02.437.02.73v3.771h-1.177zm11.686-6.6v4.107c0 .896-.206 1.564-.619 2.005-.413.441-1.033.663-1.861.664-.843 0-1.471-.221-1.884-.664-.413-.443-.619-1.11-.619-2.005v-4.108h1.226v3.886c0 .54.105.95.315 1.229.23.28.58.432.942.405.366.024.72-.13.953-.415.214-.276.323-.685.323-1.227v-3.878h1.224zm4.12 4.09l-.645-2.133a3.987 3.987 0 0 1-.07-.326c-.029-.154-.061-.34-.091-.563-.035.203-.069.405-.1.575-.03.17-.056.284-.07.34l-.623 2.106h1.6zm-3.67 2.51l2.194-6.6h1.412l2.218 6.6h-1.412l-.467-1.403h-2.22l-.404 1.403H23.81zm8.15-5.4v5.4h-1.239v-5.4H29.31v-1.2h4.058v1.2H31.96zm7.175-1.2v4.107c0 .896-.206 1.564-.617 2.005-.412.441-1.03.663-1.858.664-.843 0-1.47-.221-1.883-.664-.413-.443-.619-1.11-.617-2.005v-4.108h1.224v3.886c0 .54.105.95.314 1.229.23.28.581.432.942.405.366.024.721-.13.954-.415.215-.27.323-.68.323-1.227v-3.878h1.218zM42.89 39.745v-6.6h3.395v1.2h-2.162v1.357h2.162v1.2h-2.162v2.853l-1.232-.01zm4.373 0v-6.6h1.232v6.6h-1.232zm2.547 0v-6.6h1.28l2.554 3.846c.092.146.173.3.242.458.086.202.18.43.274.697a7.631 7.631 0 0 1-.083-1.302v-3.7h1.178v6.601h-1.21l-2.622-3.914a3.057 3.057 0 0 1-.24-.457c-.086-.203-.18-.432-.276-.705.03.188.05.38.065.575.014.194.018.437.018.73v3.771h-1.18zm9.714-2.51l-.647-2.133a5.22 5.22 0 0 1-.07-.326c-.03-.154-.06-.34-.091-.563-.035.203-.067.405-.097.575-.03.17-.057.284-.073.34l-.62 2.106h1.598zm-3.672 2.51l2.186-6.6h1.412l2.218 6.6h-1.401l-.47-1.403h-2.219l-.403 1.403h-1.323zm6.437 0v-6.6h1.28l2.552 3.846c.094.145.175.299.242.458.089.202.18.43.274.697a7.608 7.608 0 0 1-.062-.582c-.013-.192-.02-.433-.02-.72v-3.7h1.177v6.601h-1.21l-2.621-3.914a2.693 2.693 0 0 1-.24-.457c-.087-.203-.18-.432-.277-.705.029.188.049.38.063.575.014.194.02.437.02.73v3.771h-1.178zm11.37-4.882a2.534 2.534 0 0 0-.766-.562 2.053 2.053 0 0 0-.843-.179c-.56-.024-1.1.209-1.47.632a2.92 2.92 0 0 0-.039 3.347c.343.407.855.632 1.386.607.32.003.637-.063.93-.192.3-.137.57-.332.796-.573v1.446a3.05 3.05 0 0 1-.827.405c-.294.088-.6.133-.907.131a2.914 2.914 0 0 1-2.263-.982 3.94 3.94 0 0 1 0-4.975 2.945 2.945 0 0 1 2.285-.978 3.614 3.614 0 0 1 1.769.46l-.05 1.413zm1.172 4.882v-6.6h1.232v6.6h-1.232zm5.534-2.51l-.648-2.133a5.111 5.111 0 0 1-.07-.326c-.03-.154-.059-.34-.09-.563-.035.203-.067.405-.1.575-.032.17-.054.284-.07.34l-.621 2.106h1.599zm-3.673 2.51l2.195-6.6h1.411l2.219 6.6h-1.412l-.47-1.403h-2.216l-.404 1.403h-1.323zm6.438 0v-6.6h1.232v5.401h1.97v1.2H83.13zM.32 45.973V44.61h7.21v1.364H.32zm0 1.574v-.786h7.21v.786H.32zM8.53 46.96l.833-.108c.095.72.402 1.079.922 1.077a.816.816 0 0 0 .605-.22.73.73 0 0 0 .222-.545.653.653 0 0 0-.077-.326.607.607 0 0 0-.236-.22 6.113 6.113 0 0 0-.766-.288 2.567 2.567 0 0 1-.807-.391 1.487 1.487 0 0 1-.403-.555 1.798 1.798 0 0 1-.15-.737 1.745 1.745 0 0 1 .202-.826c.117-.234.301-.427.529-.555.257-.133.544-.198.833-.188a1.53 1.53 0 0 1 1.163.441c.3.35.459.799.444 1.26l-.855.05a1.047 1.047 0 0 0-.242-.631.726.726 0 0 0-.53-.18.815.815 0 0 0-.533.155.495.495 0 0 0-.185.391.504.504 0 0 0 .169.385c.235.163.498.28.776.344.332.09.646.234.93.427.193.15.344.346.44.571.107.274.159.567.15.86.015.447-.131.884-.412 1.23-.275.332-.706.498-1.291.498-1.037.005-1.614-.634-1.73-1.92zm4.155 1.832v-5.619h3.136v.952h-2.285v1.245h2.124v.945h-2.124v1.527h2.363v.95h-3.214zm4.79-3.24h.633c.247.014.495-.005.738-.056.11-.04.202-.12.258-.223a.906.906 0 0 0 .097-.45.843.843 0 0 0-.097-.43.514.514 0 0 0-.268-.224 3.08 3.08 0 0 0-.692-.042h-.667l-.002 1.425zm-.852 3.24v-5.619h1.795c.336-.021.673.03.986.152.213.119.383.302.484.524.134.28.199.586.19.895a1.78 1.78 0 0 1-.29 1.063c-.198.27-.493.452-.823.504.172.135.325.293.454.47.185.293.348.598.488.915l.512 1.096H19.41l-.62-1.215a8.571 8.571 0 0 0-.451-.83.694.694 0 0 0-.254-.229 1.053 1.053 0 0 0-.428-.063h-.175V48.8l-.86-.008zm5.238 0l-1.513-5.619h.926l1.069 4.159 1.034-4.159h.908l-1.517 5.619h-.907zm2.83 0v-5.619h.85v5.619h-.85zm4.373-2.066l.825.349c-.127.627-.343 1.087-.643 1.377a1.52 1.52 0 0 1-1.107.435 1.593 1.593 0 0 1-1.34-.693c-.392-.54-.589-1.26-.59-2.162 0-.958.201-1.708.605-2.25.315-.454.838-.72 1.39-.704a1.54 1.54 0 0 1 1.19.528c.26.322.433.707.5 1.116l-.844.27a1.28 1.28 0 0 0-.322-.701.776.776 0 0 0-.57-.243.886.886 0 0 0-.763.445c-.202.296-.297.786-.297 1.466 0 .68.097 1.215.289 1.51.15.275.436.446.748.448a.751.751 0 0 0 .585-.285 1.9 1.9 0 0 0 .344-.906zm1.557 2.066v-5.619h3.136v.952h-2.285v1.245h2.124v.945h-2.124v1.527h2.366v.95H30.62zm3.72-1.833l.832-.107c.094.72.401 1.079.922 1.077a.825.825 0 0 0 .605-.22.737.737 0 0 0 .22-.545.635.635 0 0 0-.077-.326.584.584 0 0 0-.236-.22 6.137 6.137 0 0 0-.767-.288 2.526 2.526 0 0 1-.796-.391 1.467 1.467 0 0 1-.403-.555 1.83 1.83 0 0 1-.15-.737 1.766 1.766 0 0 1 .202-.826c.117-.233.301-.427.528-.555.258-.133.544-.197.833-.188.433-.025.856.135 1.164.441.301.349.46.799.444 1.26l-.856.05a1.036 1.036 0 0 0-.242-.631.724.724 0 0 0-.53-.18.805.805 0 0 0-.53.155.49.49 0 0 0-.188.391.502.502 0 0 0 .17.385c.235.163.5.28.778.344.33.09.644.234.928.427.193.152.344.352.437.58.108.273.16.566.152.86.016.445-.127.88-.404 1.229-.275.332-.706.498-1.292.498-1.047 0-1.628-.642-1.745-1.928zM42.84 46.726l.827.349c-.134.627-.349 1.086-.643 1.377a1.528 1.528 0 0 1-1.107.435 1.59 1.59 0 0 1-1.34-.693c-.395-.54-.592-1.26-.59-2.162 0-.958.198-1.708.595-2.25.315-.455.837-.72 1.39-.704.454-.008.89.185 1.189.528a2.4 2.4 0 0 1 .498 1.116l-.843.27a1.282 1.282 0 0 0-.322-.701.772.772 0 0 0-.57-.243.886.886 0 0 0-.764.445c-.201.296-.294.786-.294 1.466 0 .68.095 1.215.286 1.51.154.273.44.442.753.442a.748.748 0 0 0 .582-.286c.194-.263.315-.573.353-.899zm2.261-.747c0 .647.113 1.132.339 1.454a.966.966 0 0 0 1.672 0c.22-.32.33-.81.33-1.478 0-.668-.107-1.132-.322-1.444a.983.983 0 0 0-.843-.467c-.345.001-.665.179-.85.472-.217.317-.326.805-.326 1.463zm-.88.039a4.311 4.311 0 0 1 .273-1.654c.144-.382.39-.717.712-.968a1.87 1.87 0 0 1 2.547.437c.38.504.57 1.215.57 2.15 0 .936-.201 1.675-.604 2.203a1.709 1.709 0 0 1-1.442.7 1.726 1.726 0 0 1-1.448-.692c-.405-.527-.607-1.253-.607-2.176zm4.758 2.774v-5.619h1.275l.768 3.837.764-3.837h1.283v5.619h-.795v-4.426l-.843 4.426h-.82l-.841-4.426v4.426h-.79zm4.917 0v-5.619h1.276l.769 3.837.762-3.837h1.283v5.619h-.795v-4.426l-.843 4.426h-.82l-.838-4.426v4.426h-.794zm4.904 0v-5.619h.851v5.619h-.85zm1.456-1.833l.833-.107c.094.72.402 1.079.922 1.077a.824.824 0 0 0 .605-.22.736.736 0 0 0 .22-.545.631.631 0 0 0-.077-.326.606.606 0 0 0-.236-.22 6.137 6.137 0 0 0-.766-.288 2.567 2.567 0 0 1-.807-.391 1.482 1.482 0 0 1-.403-.555 1.826 1.826 0 0 1-.15-.737c-.004-.287.061-.57.192-.826.117-.233.301-.427.529-.555.257-.133.543-.198.832-.188.433-.025.856.135 1.164.441.301.349.46.799.444 1.26l-.855.05a1.035 1.035 0 0 0-.242-.631.726.726 0 0 0-.53-.18.805.805 0 0 0-.531.155.49.49 0 0 0-.188.391.503.503 0 0 0 .17.385c.234.163.498.28.776.344.331.09.646.234.93.427.193.152.344.352.437.58.108.273.16.566.152.86.014.446-.133.883-.414 1.229-.274.332-.706.498-1.29.498-1.03 0-1.602-.642-1.717-1.928zm3.933 0l.835-.107c.093.72.4 1.079.92 1.077a.82.82 0 0 0 .604-.22.736.736 0 0 0 .222-.545.634.634 0 0 0-.078-.326.59.59 0 0 0-.234-.22 6.267 6.267 0 0 0-.767-.288 2.54 2.54 0 0 1-.806-.391 1.49 1.49 0 0 1-.404-.555 1.83 1.83 0 0 1-.149-.737 1.769 1.769 0 0 1 .202-.826c.117-.234.302-.427.53-.555.257-.133.544-.198.833-.188.433-.024.855.136 1.164.441.299.35.456.8.441 1.26l-.853.05a1.047 1.047 0 0 0-.244-.631.724.724 0 0 0-.53-.18.805.805 0 0 0-.53.155.489.489 0 0 0-.186.391.508.508 0 0 0 .167.385c.236.163.5.28.779.344.33.09.645.235.93.427.192.153.343.352.437.58.108.273.16.566.151.86.014.446-.133.882-.413 1.229-.276.332-.706.498-1.293.498-1.035 0-1.611-.642-1.728-1.928zm4.134 1.833v-5.619h.851v5.619h-.85zm2.368-2.813c0 .646.11 1.13.337 1.454.177.296.494.48.838.484a.981.981 0 0 0 .833-.48c.222-.32.333-.81.333-1.478 0-.668-.109-1.132-.323-1.443a1.006 1.006 0 0 0-1.692 0c-.217.317-.326.805-.326 1.463zm-.88.039a4.312 4.312 0 0 1 .273-1.654c.144-.382.39-.717.712-.968a1.869 1.869 0 0 1 2.543.437c.38.504.57 1.215.57 2.15 0 .936-.201 1.675-.605 2.203a1.846 1.846 0 0 1-2.89 0c-.401-.522-.603-1.245-.603-2.168zm4.778 2.774v-5.619h.829l1.73 3.752v-3.752h.795v5.619h-.86l-1.701-3.663v3.663h-.793zM79.195 45.973V44.61h7.21v1.364h-7.21zm0 1.574v-.786h7.21v.786h-7.21z"/>
    </g>
</svg>
