<svg xmlns="http://www.w3.org/2000/svg" width="154" height="102"><path d="M64.92 47.837c.327 0 .46.117.46.444v10.317c0 .343-.156.435-.46.43-.854 0-1.708-.013-2.562 0-.386 0-.6-.08-.543-.52a1.369 1.369 0 0 0-.085-.343l-.663.44a4.223 4.223 0 0 1-3.783.472c-1.335-.435-1.855-1.54-2.032-2.8a19.514 19.514 0 0 1-.134-2.492l-.014-5.405c0-.377.083-.537.493-.526a53.9 53.9 0 0 0 2.651 0c.35 0 .46.12.46.458v6.343c.035 1.045.54 1.652 1.407 1.7 1 .046 1.562-.457 1.664-1.567.05-.547.03-1.1.03-1.652v-4.823c0-.36.12-.47.46-.458h2.65zM47.442 43.48v5.4l.92-.632c1.8-1.16 3.964-.7 4.898 1.105.354.72.587 1.493.7 2.288.263 1.83.23 3.677-.432 5.46-.868 2.366-3.554 2.746-5.266 1.56a7.607 7.607 0 0 0-.653-.45c-.058.082-.097.114-.106.153-.155.686-.152.686-.86.686s-1.438-.02-2.156 0c-.4 0-.553-.107-.55-.528V45.3c0-.158.064-.417.17-.458l3.346-1.373zm-7.535 4.378a3.264 3.264 0 0 1 2.506 2.835 11.09 11.09 0 0 1 .097 1.423l.012 6.43c0 .402-.134.514-.516.503a45.128 45.128 0 0 0-2.301 0c-.38 0-.612-.085-.56-.52.028-.08-.03-.166-.076-.308l-.78.47c-1.33.737-2.706.883-4.066.15a3.029 3.029 0 0 1-1.123-1.103 4.426 4.426 0 0 1-.38-3.377c.36-1.4 1.687-2.332 3.37-2.403.898-.065 1.8.07 2.64.394.27.112.446.068.44-.26a5.71 5.71 0 0 0-.065-.934c-.13-.66-.637-1.027-1.406-1.075a6.11 6.11 0 0 0-3.105.547c-.345.167-.483.052-.59-.26A25.9 25.9 0 0 0 33.47 49c-.13-.295-.085-.496.23-.583a24.14 24.14 0 0 1 2.596-.673 8.98 8.98 0 0 1 3.611.115zm31.555-.204a11.11 11.11 0 0 1 2.561.336c1.09.29 1.78 1.08 2.037 2.176a8.23 8.23 0 0 1 .23 1.76l.023 6.565c0 .43-.122.574-.557.556a27.107 27.107 0 0 0-2.156 0c-.42.013-.716-.053-.642-.57a.955.955 0 0 0-.067-.252l-.538.298a4.344 4.344 0 0 1-3.245.723c-1.38-.243-2.25-1.04-2.594-2.39a4.687 4.687 0 0 1-.025-2.426c.38-1.427 1.38-2.144 2.78-2.384a5.805 5.805 0 0 1 3.222.3c.12.04.245.075.37.1.48-1.3-.214-2.32-1.565-2.37a6.863 6.863 0 0 0-3.33.712l-.757-1.973c-.03-.094.143-.336.274-.393a9.309 9.309 0 0 1 3.979-.77zm14.2.16c1.353.384 1.903 1.464 2.128 2.732.095.606.137 1.218.127 1.83l.014 6.165c0 .39-.106.524-.504.513a46.421 46.421 0 0 0-2.518 0c-.403 0-.548-.117-.543-.538v-5.762a5.045 5.045 0 0 0-.184-1.27 1.203 1.203 0 0 0-1.204-.892c-.826-.016-1.335.23-1.524.84a4.684 4.684 0 0 0-.193 1.313v5.764c0 .442-.145.563-.564.55a46.18 46.18 0 0 0-2.517 0c-.355 0-.514-.1-.514-.48V48.3c0-.334.132-.44.46-.437h2.562c.45-.018.65.106.575.57.003.113.017.226.042.337l.656-.435a4.309 4.309 0 0 1 3.7-.522zm-59.715-3.322v10.525c0 .744 0 .746.725.744l4.538-.014c.42 0 .585.112.564.554v2.322c0 .312-.113.426-.42.426H22.46c-.414 0-.46-.2-.46-.535V51.5l.012-.004v-6.922c0-.52 0-.564.475-.567h2.848c.554 0 .607.015.612.485zm44.917 9.537c-.84.04-1.298.597-1.282 1.457s.53 1.373 1.337 1.437c1.305.083 2.055-.485 2.053-1.56v-.31c0-.627-.074-.753-.7-.88a5.814 5.814 0 0 0-1.418-.142zm-33.675-.012c-.92 0-1.434.575-1.38 1.488s.614 1.457 1.532 1.416a4.48 4.48 0 0 0 .49-.055c1.047-.172 1.34-.512 1.342-1.55a2.007 2.007 0 0 1 0-.311.647.647 0 0 0-.603-.82 7.987 7.987 0 0 0-1.38-.167zm11.717-3.5a2.78 2.78 0 0 0-1.034.394.935.935 0 0 0-.368.637c-.067.63-.037 1.288-.037 1.944v.012l-.013 1.652s.23.85.674 1.073c1.093.552 2.1.167 2.315-.915a8.838 8.838 0 0 0 0-3.595c-.19-.904-.734-1.334-1.537-1.2zM114.4 58.11c-1.707 1.448-3.67 1.6-5.753 1.03l-1.454-.458c-.596-.16-.767-.07-1.114.437a1.03 1.03 0 0 1-.302.212c-.08-.14-.23-.283-.23-.427v-5.72c0-.228-.064-.55.267-.57s.327.316.366.56c.214 1.327.51 2.622 1.243 3.787 1.054 1.67 2.828 2.187 4.658 1.588 2.07-.673 2.193-3.325 1.008-4.492-.644-.633-1.46-.975-2.274-1.32l-3.12-1.373a3.635 3.635 0 0 1-1.688-1.618 4.224 4.224 0 0 1 1.82-5.638c1.474-.805 2.993-.828 4.555-.274l1.218.457a.58.58 0 0 0 .803-.352c.048-.12.23-.2.34-.284.08.117.205.23.23.348a19.25 19.25 0 0 1 .134 1.332l.25 3.517c0 .155-.136.318-.2.478-.12-.124-.298-.23-.36-.373l-1.1-2.67c-.69-1.305-1.757-2.16-3.3-2.18-1.054-.014-2 .272-2.5 1.322a2.43 2.43 0 0 0 .482 2.762c.7.67 1.562 1.025 2.425 1.414 1.15.515 2.327.982 3.374 1.652 2.603 1.67 2.083 5.288.242 6.854M104.92 31a21.218 21.218 0 0 1 8.717-.537 20.19 20.19 0 0 1 9.077 3.626 20.93 20.93 0 0 1 7.68 10.048 20.781 20.781 0 0 1 1.206 8.294 22.968 22.968 0 0 1-1.089 5.72c-.108.328-.27.406-.593.328a1.49 1.49 0 0 1-1.015-.933l-1.328-3.028-4.336-10.24a.704.704 0 0 0-.09-.203c-.103-.117-.22-.22-.334-.327-.105.123-.255.215-.308.352l-1.208 3.17-3.47 8.612a10.238 10.238 0 0 1-1.07 1.748 1.9 1.9 0 0 1-1.257.799.759.759 0 0 0-.341.098c-.1.115-.203.244-.276.385.108.075.223.215.338.215h4.672c.16-.003.318-.135.476-.206-.12-.133-.216-.32-.366-.385-1.392-.576-1.74-1.27-1.314-2.73l.592-1.777a.483.483 0 0 1 .522-.38l4.143.016a.636.636 0 0 1 .474.284 61.29 61.29 0 0 1 1.38 3.203c.348.86.1 1.226-.802 1.348a1.082 1.082 0 0 0-.392.087.343.343 0 0 0-.163.27c.038.115.12.2.23.265a.9.9 0 0 0 .354.02h4.553l.568.028-.575 1.323c-2.18 4.395-5.464 7.725-9.896 9.862a20.679 20.679 0 0 1-11.128 1.956 20.972 20.972 0 0 1-11.4-4.69.84.84 0 0 1-.35-.721V52.1c0-.586.002-.586.612-.547.21.01.418.023.625.055 1.586.23 2.458 1.2 2.532 2.803.012.25-.117.663.33.638.412-.02.3-.414.3-.675v-6.178c0-.1.03-.197-.01-.263a4.579 4.579 0 0 0-.334-.458c-.1.147-.288.298-.288.458-.048.778-.198 1.506-.764 2.1-.757.78-1.74.855-2.74.855-.093 0-.263-.206-.263-.316v-5.8a.445.445 0 0 1 .313-.31c1.37-.035 2.73.036 4.004.613 1.427.642 2.212 1.864 2.884 3.185a1.32 1.32 0 0 0 .156.32 2.23 2.23 0 0 0 .366.25c.044-.145.147-.3.12-.428a63.15 63.15 0 0 0-.54-2.163c-.18-.675-.4-1.336-.542-2.023-.082-.398-.283-.457-.628-.457l-8.267.064c-.568.002-1.137-.04-1.705-.053a1.526 1.526 0 0 0-.531.05c-.118.044-.265.188-.27.29s.138.252.25.302c.17.054.346.088.525.098.826.124 1.056.392 1.056 1.208v18.48l-.196.08c-.67-1.1-1.4-2.178-2.004-3.31a19.58 19.58 0 0 1-2.17-6.901 21.038 21.038 0 0 1 .635-8.53c2-7.053 7.552-12.558 14.65-14.526zm16.862 16.835l2.232 5.088h-4.278l1.926-5.08.12-.008zm-85.52 15.382a1.05 1.05 0 0 1 .38.343l-.382.4a.995.995 0 0 0-.23-.266.46.46 0 0 0-.263-.08.421.421 0 0 0-.205.053.56.56 0 0 0-.165.146.705.705 0 0 0-.109.229.99.99 0 0 0 .003.558.75.75 0 0 0 .112.229.51.51 0 0 0 .173.149c.066.035.14.054.214.052a.507.507 0 0 0 .292-.091.687.687 0 0 0 .23-.254l.392.393c-.105.154-.245.28-.4.37a1.11 1.11 0 0 1-.522.133 1.082 1.082 0 0 1-.49-.124 1.113 1.113 0 0 1-.399-.325 1.068 1.068 0 0 1-.184-.35 1.447 1.447 0 0 1-.057-.433c-.02-.34.1-.675.333-.926a1.17 1.17 0 0 1 .366-.248c.294-.136.637-.125.92.033zm-5.98-.135a1.18 1.18 0 0 1 .46.08c.13.058.243.148.33.26.034.05.064.092.1.136a.61.61 0 0 1 .057.137.848.848 0 0 1 .028.162 1.82 1.82 0 0 1 0 .209v1.466h-.6V65.4a1.22 1.22 0 0 1-.61.16.855.855 0 0 1-.598-.235.814.814 0 0 1-.242-.593.793.793 0 0 1 .552-.771c.123-.04.25-.06.38-.06a1.554 1.554 0 0 1 .518.087v-.158a.229.229 0 0 0-.113-.178.537.537 0 0 0-.288-.066 1.08 1.08 0 0 0-.266.032c-.12.033-.24.075-.353.125l-.23-.423c.136-.083.282-.15.435-.197a1.63 1.63 0 0 1 .46-.061zm9.327 0c.157-.004.314.023.46.08.13.058.243.148.33.26.034.05.064.092.1.136a.66.66 0 0 1 .057.137.815.815 0 0 1 .03.162v1.675h-.6V65.4a1.211 1.211 0 0 1-.607.16.847.847 0 0 1-.334-.064.787.787 0 0 1-.442-.435.82.82 0 0 1 0-.663.736.736 0 0 1 .191-.266.862.862 0 0 1 .295-.171c.12-.04.25-.06.377-.06a1.55 1.55 0 0 1 .507.087v-.158a.23.23 0 0 0-.113-.178.534.534 0 0 0-.288-.066 1.14 1.14 0 0 0-.267.032c-.12.033-.238.075-.352.125l-.23-.423c.136-.083.282-.15.435-.197a1.63 1.63 0 0 1 .46-.061zm-14.99-.756v.64h-1.744v.597h1.104v.648h-1.104v1.322h-.645V62.32l2.39-.003zm3.13.756a.9.9 0 0 1 .46.12.78.78 0 0 1 .385.566c.007.058.012.116.013.174v1.6h-.616v-1.414a.44.44 0 0 0-.106-.313.4.4 0 0 0-.304-.115.393.393 0 0 0-.421.424v1.418h-.603V63.12h.614l-.01.114c.097-.052.2-.095.304-.128a1.12 1.12 0 0 1 .285-.034zm5.413 0a.9.9 0 0 1 .46.12.778.778 0 0 1 .345.438.95.95 0 0 1 .03.128c.008.058.013.116.014.174v1.6h-.608v-1.414a.44.44 0 0 0-.105-.313.4.4 0 0 0-.304-.115.393.393 0 0 0-.421.424v1.418h-.615V63.12h.615v.114c.097-.052.2-.095.303-.128a1.12 1.12 0 0 1 .286-.034zm8.752-.753v3.203h-.612v-2.974l.612-.23zm-15.844.794v2.402h-.922v-2.402h.922zm12.1 0v2.402h-.918v-2.402h.918zm-7.998 1.27a.484.484 0 0 0-.3.084.26.26 0 0 0-.112.23.29.29 0 0 0 .126.228.478.478 0 0 0 .309.098.721.721 0 0 0 .43-.148v-.378a2.874 2.874 0 0 0-.267-.09.723.723 0 0 0-.186-.024zm9.34 0a.48.48 0 0 0-.296.084.263.263 0 0 0-.115.23c.003.09.05.176.127.228a.478.478 0 0 0 .308.098.716.716 0 0 0 .43-.148v-.378a3.105 3.105 0 0 0-.264-.09.75.75 0 0 0-.19-.024zm-1.792-2.07a.584.584 0 0 1 .343.096c.092.06.143.143.14.23.004.086-.048.17-.14.23a.67.67 0 0 1-.686.001l-.002-.001c-.094-.06-.145-.143-.14-.23-.005-.086.046-.17.14-.23a.612.612 0 0 1 .345-.096zm-12.11 0a.591.591 0 0 1 .345.096c.092.06.142.143.14.23-.001.178-.22.322-.49.322a.637.637 0 0 1-.34-.093c-.092-.06-.143-.143-.14-.23-.004-.086.048-.17.14-.23a.622.622 0 0 1 .345-.096zm20.5-.055a1.514 1.514 0 0 1 1.174.524l-.474.426a1.298 1.298 0 0 0-.362-.23.924.924 0 0 0-.373-.075.729.729 0 0 0-.359.078.229.229 0 0 0-.14.202c0 .1.065.18.193.215l.072.022.06.014.087.023c.035 0 .085.02.15.032l.062.016.06.012.094.02.166.044a1.754 1.754 0 0 1 .377.119.886.886 0 0 1 .23.155.941.941 0 0 1-.106 1.446 1.33 1.33 0 0 1-.43.213 1.641 1.641 0 0 1-1.252-.11 1.527 1.527 0 0 1-.564-.517l.527-.368c.092.13.212.235.352.31a.925.925 0 0 0 .44.107c.088.001.175-.01.26-.03a.752.752 0 0 0 .214-.089.498.498 0 0 0 .143-.132.293.293 0 0 0 .05-.16.25.25 0 0 0-.122-.23l-.034-.018a.311.311 0 0 0-.074-.025l-.166-.04c-.075-.016-.18-.044-.315-.078l-.363-.094a2.15 2.15 0 0 1-.23-.082.881.881 0 0 1-.304-.204.686.686 0 0 1-.148-.242.91.91 0 0 1-.055-.316.86.86 0 0 1 .313-.68 1.12 1.12 0 0 1 .366-.19c.156-.045.318-.068.48-.066zm11.707.824a1.063 1.063 0 0 1 .875.47l-.375.41c-.06-.1-.14-.19-.23-.266a.46.46 0 0 0-.47-.027.55.55 0 0 0-.163.146.659.659 0 0 0-.109.229.92.92 0 0 0-.039.28c0 .094.013.188.042.278a.68.68 0 0 0 .113.229.525.525 0 0 0 .17.149.44.44 0 0 0 .216.052.51.51 0 0 0 .292-.091.706.706 0 0 0 .23-.254l.392.393a1.148 1.148 0 0 1-.935.502 1.082 1.082 0 0 1-.49-.124 1.15 1.15 0 0 1-.582-.675c-.04-.14-.06-.286-.058-.433-.02-.34.102-.675.334-.926.106-.105.23-.19.368-.248.132-.06.274-.093.42-.093zm4.923-.005c.156-.001.31.02.46.064.168.056.33.127.484.215l-.23.46a1.533 1.533 0 0 0-.74-.201c-.2 0-.298.062-.298.187a.162.162 0 0 0 .039.12.42.42 0 0 0 .168.077l.154.046.28.08c.192.048.366.147.505.286a.63.63 0 0 1 .003.897l-.02.02a.85.85 0 0 1-.324.194 1.61 1.61 0 0 1-.46.055c-.18.002-.362-.02-.536-.067a1.746 1.746 0 0 1-.475-.208l.23-.5a2.03 2.03 0 0 0 .426.183 1.47 1.47 0 0 0 .426.069.46.46 0 0 0 .249-.058.171.171 0 0 0 .09-.155.288.288 0 0 0-.012-.083.142.142 0 0 0-.05-.066.533.533 0 0 0-.109-.055c-.048-.018-.1-.036-.186-.06l-.31-.093-.2-.064a.696.696 0 0 1-.116-.05l-.092-.053a.658.658 0 0 1-.216-.24.615.615 0 0 1 .177-.799.92.92 0 0 1 .292-.14 1.33 1.33 0 0 1 .38-.05zm-13.698-.004a.82.82 0 0 1 .479.146.98.98 0 0 1 .338.419 1.15 1.15 0 0 1 .097.286 2 2 0 0 1 .03.345v.24H48.57a.543.543 0 0 0 .13.365.402.402 0 0 0 .318.144.575.575 0 0 0 .387-.158l.44.332a1.33 1.33 0 0 1-.39.295 1.06 1.06 0 0 1-.432.084 1.145 1.145 0 0 1-.46-.086.944.944 0 0 1-.34-.25 1.094 1.094 0 0 1-.215-.396 1.644 1.644 0 0 1-.076-.517c-.022-.348.102-.7.343-.943.2-.197.49-.306.778-.306zm11.27 0a.816.816 0 0 1 .479.146.98.98 0 0 1 .338.419 1.15 1.15 0 0 1 .097.286 1.74 1.74 0 0 1 .03.345v.24H59.84a.543.543 0 0 0 .13.365.402.402 0 0 0 .319.144.57.57 0 0 0 .386-.158l.442.332a1.367 1.367 0 0 1-.391.295 1.055 1.055 0 0 1-.433.084 1.145 1.145 0 0 1-.46-.086.944.944 0 0 1-.34-.25 1.094 1.094 0 0 1-.215-.396 1.644 1.644 0 0 1-.076-.517c-.022-.348.102-.7.343-.943.212-.195.5-.305.778-.306zm-7.192.048l.57 1.537.572-1.537h.658l-.895 2.402h-.663l-.893-2.402h.65zm-1.43-.048a.876.876 0 0 1 .461.135l-.19.656a.67.67 0 0 0-.163-.114.376.376 0 0 0-.168-.037.46.46 0 0 0-.446.437v1.37h-.613v-2.402l.615.003v.17a.943.943 0 0 1 .25-.171.628.628 0 0 1 .254-.048zm4.628.04v2.403h-.932v-2.402h.932zm-7.338.51a.357.357 0 0 0-.265.103.555.555 0 0 0-.138.297h.773a.416.416 0 0 0-.108-.286.342.342 0 0 0-.262-.114zm11.27 0a.363.363 0 0 0-.265.103.537.537 0 0 0-.136.297h.77a.416.416 0 0 0-.108-.286.342.342 0 0 0-.262-.114zm-4.39-1.31a.582.582 0 0 1 .345.096c.093.06.145.143.14.23 0 .178-.22.322-.488.322a.636.636 0 0 1-.34-.093c-.093-.06-.145-.143-.14-.23-.005-.086.047-.17.14-.23a.617.617 0 0 1 .342-.096zm30.595.808l.676 1.565.6-1.565h.662l-1.256 3.285h-.65l.344-.9-1.034-2.386h.668zm-15.795.01v1.412a.444.444 0 0 0 .108.316c.082.08.195.12.31.112a.415.415 0 0 0 .306-.112.42.42 0 0 0 .115-.312V63.13h.617v2.403h-.613l.005-.127c-.1.057-.204.103-.313.138a1.132 1.132 0 0 1-.285.037.886.886 0 0 1-.46-.124.771.771 0 0 1-.387-.565.93.93 0 0 1-.014-.172v-1.6h.612zm3.063-.815l.003.806h.593v.608h-.593v.847a.433.433 0 0 0 .071.298.283.283 0 0 0 .214.077c.05 0 .1-.01.147-.032a.79.79 0 0 0 .161-.116l-.087.65a.962.962 0 0 1-.212.09.887.887 0 0 1-.506-.018.664.664 0 0 1-.214-.126.563.563 0 0 1-.14-.192.6.6 0 0 1-.051-.252v-1.227h-.42v-.608h.42v-.577l.615-.23zm11.047 0l.002.806h.594v.608h-.594v.847a.431.431 0 0 0 .074.298.28.28 0 0 0 .212.077c.05 0 .1-.01.147-.032a.727.727 0 0 0 .161-.116l-.085.65a.867.867 0 0 1-.444.117.815.815 0 0 1-.274-.045.652.652 0 0 1-.216-.126.57.57 0 0 1-.191-.444v-1.227h-.42v-.608h.42v-.577l.614-.23zm-6.043.758c.143-.001.284.03.41.096s.243.155.334.265a1.28 1.28 0 0 1 .23.4c.056.157.084.322.083.488a1.44 1.44 0 0 1-.083.492 1.24 1.24 0 0 1-.23.396 1.028 1.028 0 0 1-.338.265.96.96 0 0 1-.838 0 1.043 1.043 0 0 1-.336-.265 1.3 1.3 0 0 1-.23-.396 1.488 1.488 0 0 1-.08-.487 1.49 1.49 0 0 1 .08-.5c.052-.144.13-.278.23-.395a1.05 1.05 0 0 1 .34-.263.953.953 0 0 1 .427-.096zm-3.105-.753l.002.915a2.25 2.25 0 0 1 .304-.128 1.01 1.01 0 0 1 .267-.034.9.9 0 0 1 .447.12.746.746 0 0 1 .352.438 1.4 1.4 0 0 1 .03.128c.007.058.012.116.013.174v1.6h-.614v-1.414a.44.44 0 0 0-.106-.313.381.381 0 0 0-.29-.115.388.388 0 0 0-.295.117.422.422 0 0 0-.11.307v1.418h-.614v-2.974l.614-.23zm5.95.753a.876.876 0 0 1 .46.135l-.186.656a.722.722 0 0 0-.165-.114.376.376 0 0 0-.164-.034.46.46 0 0 0-.444.437 1.484 1.484 0 0 0 0 .17v1.2h-.612V63.12h.607v.17a.936.936 0 0 1 .251-.171.627.627 0 0 1 .253-.048zm-13.233-.756l1.335 3.204h-.706l-.295-.72h-1.286l-.295.72H66.4l1.332-3.204h.62zm15.116.797v2.402h-.915v-2.402h.915zm-4.725.544h-.004a.388.388 0 0 0-.33.183.828.828 0 0 0-.124.476.857.857 0 0 0 .122.483.378.378 0 0 0 .327.186.367.367 0 0 0 .315-.188.85.85 0 0 0 .125-.476c0-.1-.01-.18-.035-.265a.686.686 0 0 0-.092-.209.445.445 0 0 0-.136-.14.313.313 0 0 0-.168-.05zm-10.7-.427l-.377.94.755-.01-.377-.93zm14.978-.918a.584.584 0 0 1 .344.096c.092.06.143.143.14.23.004.086-.047.17-.14.23a.597.597 0 0 1-.344.094.603.603 0 0 1-.344-.094c-.092-.06-.143-.143-.14-.23-.003-.086.048-.17.14-.23a.63.63 0 0 1 .344-.096z" fill="#85acb0" fill-rule="evenodd"/></svg>