<svg xmlns="http://www.w3.org/2000/svg" xmlns:xlink="http://www.w3.org/1999/xlink" width="87" height="50" viewBox="0 0 87 50">
    <defs>
        <path id="a" d="M.198.112h21.846v20.426H.198z"/>
        <path id="c" d="M0 .05h5.443v6.6H0z"/>
        <path id="e" d="M0 48.798h86.405V.112H0z"/>
        <path id="g" d="M0 48.798h86.405V.112H0z"/>
        <path id="i" d="M.141.175h7.21V1.54H.14z"/>
        <path id="k" d="M.141.1h7.21v.786H.14z"/>
    </defs>
    <g fill="none" fill-rule="evenodd">
        <g transform="translate(33.275 .09)">
            <mask id="b" fill="#fff">
                <use xlink:href="#a"/>
            </mask>
            <path fill="#85ACB0" d="M13.5 5.854L12.49 9.451l-4.626.038v2.359H11.9l-.944 3.746H9.212l1.91 4.944 4.953-14.684h5.97C17.861-.203 9.58-1.709 3.547 2.491a13.315 13.315 0 0 0-3.35 3.363H13.5z" mask="url(#b)"/>
        </g>
        <path fill="#85ACB0" d="M32.813 6.996l.636-1.012c-.226.325-.438.662-.636 1.012M55.358 5.998l.232.354c-.077-.115-.151-.233-.232-.354M55.679 6.494L48 26.404c7.067-1.998 11.183-9.37 9.193-16.466a13.382 13.382 0 0 0-1.515-3.444M31.468 10.412l-8.433 11.723 11.293-11.438-1.555-3.644a16.636 16.636 0 0 0-1.305 3.359M34.61 11.345l-3.513 3.394s.093 2.189.26 2.928l-4.323 6.698 9.103-9.446-1.527-3.574zM36.443 15.638l-3.914 3.948s.504 1.48.871 2.228l-2.478 4.474 6.95-7.331-1.429-3.32zM38.127 19.586l-3.123 3.42c.408.545.846 1.066 1.312 1.561l-1.613 3.24 4.814-4.943-1.39-3.278zM39.783 23.472l-1.714 1.822s.881 1.013 2.997 1.18l-1.283-3.002z"/>
        <g transform="translate(0 .09)">
            <g transform="translate(0 33.004)">
                <mask id="d" fill="#fff">
                    <use xlink:href="#c"/>
                </mask>
                <path fill="#85ACB0" d="M2.132 6.65L0 .05h1.37l1.123 4.116a38.72 38.72 0 0 1 .24 1.25c.034-.284.07-.535.11-.754.04-.219.081-.405.121-.54L4.102.048h1.341L3.297 6.65H2.132z" mask="url(#d)"/>
            </g>
            <path fill="#85ACB0" d="M8.91 37.144l-.646-2.132a3.987 3.987 0 0 1-.07-.327c-.028-.153-.06-.34-.091-.562l-.099.575c-.03.17-.056.283-.07.34l-.624 2.106h1.6zm-3.67 2.51l2.194-6.6h1.411l2.219 6.6H9.652l-.468-1.403h-2.22l-.404 1.403H5.24zM11.675 39.654v-6.6h1.28l2.553 3.847c.093.146.174.299.242.457.087.203.18.43.273.697a8.782 8.782 0 0 1-.063-.582c-.014-.192-.02-.433-.02-.72v-3.7h1.178v6.601h-1.21l-2.622-3.914a3.039 3.039 0 0 1-.24-.457c-.087-.203-.18-.431-.276-.705.028.189.05.38.062.575.012.194.02.438.02.731v3.77h-1.177zM23.361 33.054v4.108c0 .895-.206 1.563-.619 2.004-.413.442-1.033.663-1.861.665-.843 0-1.471-.222-1.884-.665-.413-.442-.619-1.11-.619-2.004v-4.108h1.226v3.885c0 .54.105.95.315 1.23.23.28.58.431.942.404.366.024.72-.13.953-.415.214-.275.323-.684.323-1.227v-3.877h1.224zM27.481 37.144l-.645-2.132a3.987 3.987 0 0 1-.07-.327c-.029-.153-.061-.34-.091-.562a74.94 74.94 0 0 1-.1.575c-.03.17-.056.283-.07.34l-.623 2.106h1.6zm-3.67 2.51l2.194-6.6h1.412l2.218 6.6h-1.412l-.467-1.403h-2.22l-.404 1.403H23.81zM31.96 34.254v5.4h-1.238v-5.4H29.31v-1.2h4.058v1.2zM39.136 33.054v4.108c0 .895-.206 1.563-.617 2.004-.412.442-1.03.663-1.858.665-.843 0-1.47-.222-1.883-.665-.413-.442-.619-1.11-.617-2.004v-4.108h1.224v3.885c0 .54.105.95.314 1.23.23.28.581.431.942.404.366.024.721-.13.954-.415.215-.27.323-.679.323-1.227v-3.877h1.218zM42.89 39.654v-6.6h3.395v1.2h-2.162v1.357h2.162v1.2h-2.162v2.854z"/>
            <mask id="f" fill="#fff">
                <use xlink:href="#e"/>
            </mask>
            <path fill="#85ACB0" d="M47.263 39.655h1.232v-6.601h-1.232zM49.81 39.654v-6.6h1.28l2.554 3.847c.092.146.173.299.242.457.086.203.18.43.274.697a7.631 7.631 0 0 1-.083-1.302v-3.7h1.178v6.601h-1.21l-2.622-3.914a3.057 3.057 0 0 1-.24-.457c-.086-.203-.18-.431-.276-.705.03.189.05.38.065.575.014.194.018.438.018.731v3.77h-1.18zM59.524 37.144l-.647-2.132a5.22 5.22 0 0 1-.07-.327c-.03-.153-.06-.34-.091-.562-.035.202-.067.405-.097.575-.03.17-.057.283-.073.34l-.62 2.106h1.598zm-3.672 2.51l2.186-6.6h1.412l2.218 6.6h-1.401l-.47-1.403h-2.219l-.403 1.403h-1.323zM62.29 39.654v-6.6h1.28l2.55 3.847c.095.145.176.298.243.457.089.203.18.43.274.697a7.608 7.608 0 0 1-.062-.582c-.013-.192-.02-.433-.02-.72v-3.7h1.177v6.601h-1.21l-2.621-3.914a2.693 2.693 0 0 1-.24-.457c-.087-.203-.18-.431-.277-.705.029.189.049.38.063.575.014.194.02.438.02.731v3.77h-1.178zM73.66 34.773a2.534 2.534 0 0 0-.767-.563 2.053 2.053 0 0 0-.843-.179c-.56-.023-1.1.209-1.47.632a2.92 2.92 0 0 0-.039 3.347c.343.408.855.632 1.386.608.32.002.637-.063.93-.193.3-.137.57-.332.796-.573v1.446a3.05 3.05 0 0 1-.827.405c-.294.089-.6.133-.907.132a2.914 2.914 0 0 1-2.263-.982 3.94 3.94 0 0 1 0-4.975 2.945 2.945 0 0 1 2.285-.978 3.614 3.614 0 0 1 1.769.46l-.05 1.413zM74.831 39.655h1.232v-6.601h-1.232zM80.365 37.144l-.648-2.132a5.111 5.111 0 0 1-.07-.327c-.03-.153-.059-.34-.09-.562-.035.202-.067.405-.1.575-.032.17-.054.283-.07.34l-.621 2.106h1.599zm-3.673 2.51l2.195-6.6h1.411l2.219 6.6h-1.412l-.47-1.403h-2.216l-.404 1.403h-1.323zM83.13 39.654v-6.6h1.232v5.402h1.97v1.198z" mask="url(#f)"/>
        </g>
        <g transform="translate(0 .09)">
            <path fill="#85ACB0" d="M8.53 46.869l.833-.108c.095.72.402 1.079.922 1.078a.816.816 0 0 0 .605-.221.73.73 0 0 0 .222-.545.653.653 0 0 0-.077-.326.607.607 0 0 0-.236-.22 6.113 6.113 0 0 0-.766-.288 2.567 2.567 0 0 1-.807-.39 1.487 1.487 0 0 1-.403-.556 1.798 1.798 0 0 1-.15-.737 1.745 1.745 0 0 1 .202-.826c.117-.234.301-.427.529-.555.257-.133.544-.197.833-.188a1.53 1.53 0 0 1 1.163.442c.3.349.459.798.444 1.259l-.855.05a1.047 1.047 0 0 0-.242-.631.726.726 0 0 0-.53-.18.815.815 0 0 0-.533.156.495.495 0 0 0-.185.39.504.504 0 0 0 .169.385c.235.163.498.28.776.345.332.089.646.233.93.427.193.149.344.346.44.57.107.274.159.567.15.861.015.446-.131.883-.412 1.23-.275.331-.706.497-1.291.497-1.037.006-1.614-.634-1.73-1.92M12.685 48.701v-5.619h3.136v.952h-2.285v1.245h2.124v.946h-2.124v1.527h2.363v.95zM17.475 45.461h.633c.247.014.495-.005.738-.056.11-.04.202-.12.258-.223a.906.906 0 0 0 .097-.45.843.843 0 0 0-.097-.43.514.514 0 0 0-.268-.224 3.08 3.08 0 0 0-.692-.042h-.667l-.002 1.425zm-.852 3.24v-5.619h1.795c.336-.021.673.03.986.152.213.119.383.303.484.525.134.279.199.585.19.895a1.78 1.78 0 0 1-.29 1.063c-.198.27-.493.451-.823.504.172.134.325.292.454.47.185.292.348.598.488.915l.512 1.095H19.41l-.62-1.215a8.571 8.571 0 0 0-.451-.83.694.694 0 0 0-.254-.229 1.053 1.053 0 0 0-.428-.063h-.175v2.345l-.86-.008zM21.86 48.701l-1.512-5.619h.926l1.069 4.16 1.034-4.16h.908l-1.517 5.62z"/>
            <mask id="h" fill="#fff">
                <use xlink:href="#g"/>
            </mask>
            <path fill="#85ACB0" d="M24.69 48.701h.851v-5.619h-.85zM29.064 46.636l.825.348c-.127.628-.343 1.088-.643 1.377a1.52 1.52 0 0 1-1.107.435 1.593 1.593 0 0 1-1.34-.692c-.392-.54-.589-1.261-.59-2.163 0-.958.201-1.708.605-2.25.315-.454.838-.719 1.39-.704a1.54 1.54 0 0 1 1.19.529c.26.321.433.706.5 1.115l-.844.27a1.28 1.28 0 0 0-.322-.7.776.776 0 0 0-.57-.244.886.886 0 0 0-.763.446c-.202.295-.297.785-.297 1.465s.097 1.215.289 1.51c.15.275.436.447.748.448a.751.751 0 0 0 .585-.285 1.9 1.9 0 0 0 .344-.905M30.621 48.701v-5.619h3.136v.952h-2.285v1.245h2.124v.946h-2.124v1.527h2.366v.95zM34.34 46.869l.833-.108c.094.72.401 1.079.922 1.078a.825.825 0 0 0 .605-.221.737.737 0 0 0 .22-.545.635.635 0 0 0-.077-.326.584.584 0 0 0-.236-.22 6.137 6.137 0 0 0-.767-.288 2.526 2.526 0 0 1-.796-.39 1.467 1.467 0 0 1-.403-.556 1.83 1.83 0 0 1-.15-.737 1.766 1.766 0 0 1 .202-.826c.117-.233.301-.426.528-.555.258-.132.544-.197.833-.188.433-.025.856.135 1.164.442.301.348.46.798.444 1.259l-.856.05a1.036 1.036 0 0 0-.242-.631.724.724 0 0 0-.53-.18.805.805 0 0 0-.53.156.49.49 0 0 0-.188.39.502.502 0 0 0 .17.385c.235.163.5.28.778.345.33.09.644.234.928.427.193.152.344.35.437.579.108.273.16.566.152.86.016.445-.127.881-.404 1.23-.275.331-.706.497-1.292.497-1.047 0-1.628-.642-1.745-1.927M42.84 46.636l.827.348c-.134.628-.349 1.087-.643 1.377a1.528 1.528 0 0 1-1.107.435 1.59 1.59 0 0 1-1.34-.692c-.395-.54-.592-1.261-.59-2.163 0-.958.198-1.708.595-2.25.315-.454.837-.72 1.39-.704.454-.008.89.185 1.189.529a2.4 2.4 0 0 1 .498 1.115l-.843.27a1.282 1.282 0 0 0-.322-.7.772.772 0 0 0-.57-.244.886.886 0 0 0-.764.446c-.201.295-.294.785-.294 1.465s.095 1.215.286 1.51c.154.273.44.442.753.442a.748.748 0 0 0 .582-.285c.194-.264.315-.574.353-.9M45.101 45.889c0 .646.113 1.131.339 1.454a.966.966 0 0 0 1.672 0c.22-.32.33-.81.33-1.479 0-.668-.107-1.131-.322-1.443a.983.983 0 0 0-.843-.468c-.345.001-.665.179-.85.472-.217.317-.326.805-.326 1.464m-.88.038a4.311 4.311 0 0 1 .273-1.654c.144-.382.39-.717.712-.968a1.87 1.87 0 0 1 2.547.437c.38.505.57 1.215.57 2.15 0 .936-.201 1.675-.604 2.204a1.709 1.709 0 0 1-1.442.7 1.726 1.726 0 0 1-1.448-.692c-.405-.528-.607-1.253-.607-2.177M48.98 48.701v-5.619h1.274l.768 3.837.764-3.837h1.283v5.62h-.795v-4.427l-.843 4.426h-.82l-.841-4.426v4.426zM53.896 48.701v-5.619h1.276l.769 3.837.762-3.837h1.283v5.62h-.795v-4.427l-.843 4.426h-.82l-.838-4.426v4.426zM58.8 48.701h.851v-5.619h-.85zM60.256 46.869l.833-.108c.094.72.402 1.079.922 1.078a.824.824 0 0 0 .605-.221.736.736 0 0 0 .22-.545.631.631 0 0 0-.077-.326.606.606 0 0 0-.236-.22 6.137 6.137 0 0 0-.766-.288 2.567 2.567 0 0 1-.807-.39 1.482 1.482 0 0 1-.403-.556 1.826 1.826 0 0 1-.15-.737c-.004-.287.061-.57.192-.826.117-.233.301-.426.529-.555.257-.133.543-.197.832-.188.433-.025.856.135 1.164.442.301.348.46.798.444 1.259l-.855.05a1.035 1.035 0 0 0-.242-.631.726.726 0 0 0-.53-.18.805.805 0 0 0-.531.156.49.49 0 0 0-.188.39.503.503 0 0 0 .17.385c.234.163.498.28.776.345.331.089.646.233.93.427.193.152.344.35.437.579.108.273.16.566.152.86.014.446-.133.883-.414 1.23-.274.331-.706.497-1.29.497-1.03 0-1.602-.642-1.717-1.927M64.189 46.869l.835-.108c.093.72.4 1.079.92 1.078a.82.82 0 0 0 .604-.221.736.736 0 0 0 .222-.545.634.634 0 0 0-.078-.326.59.59 0 0 0-.234-.22 6.267 6.267 0 0 0-.767-.288 2.54 2.54 0 0 1-.806-.39 1.49 1.49 0 0 1-.404-.556 1.83 1.83 0 0 1-.149-.737 1.769 1.769 0 0 1 .202-.826c.117-.234.302-.427.53-.555.257-.133.544-.198.833-.188.433-.024.855.136 1.164.442.299.349.456.798.441 1.259l-.853.05a1.047 1.047 0 0 0-.244-.631.724.724 0 0 0-.53-.18.805.805 0 0 0-.53.156.489.489 0 0 0-.186.39.508.508 0 0 0 .167.385c.236.163.5.28.779.345.33.09.645.234.93.427.192.152.343.351.437.579.108.273.16.566.151.86.014.446-.133.883-.413 1.23-.276.331-.706.497-1.293.497-1.035 0-1.611-.642-1.728-1.927M68.323 48.701h.851v-5.619h-.85zM70.69 45.889c0 .645.112 1.13.338 1.454.177.296.494.479.838.483a.981.981 0 0 0 .833-.48c.222-.32.333-.81.333-1.478 0-.668-.109-1.131-.323-1.443a1.006 1.006 0 0 0-1.692 0c-.217.317-.326.805-.326 1.464m-.88.038a4.312 4.312 0 0 1 .273-1.654c.144-.382.39-.717.712-.968a1.869 1.869 0 0 1 2.543.437c.38.505.57 1.215.57 2.15 0 .936-.201 1.675-.605 2.204a1.846 1.846 0 0 1-2.89 0c-.401-.523-.603-1.245-.603-2.169M74.589 48.701v-5.619h.829l1.73 3.752v-3.752h.795v5.62h-.86l-1.701-3.664v3.663z" mask="url(#h)"/>
        </g>
        <path fill="#85ACB0" d="M.32 45.973h7.21V44.61H.32zM.32 47.547h7.21v-.786H.32z"/>
        <g transform="translate(79.054 44.434)">
            <mask id="j" fill="#fff">
                <use xlink:href="#i"/>
            </mask>
            <path fill="#85ACB0" d="M.141 1.54h7.21V.175H.14z" mask="url(#j)"/>
        </g>
        <g transform="translate(79.054 46.661)">
            <mask id="l" fill="#fff">
                <use xlink:href="#k"/>
            </mask>
            <path fill="#85ACB0" d="M.141.886h7.21V.1H.14z" mask="url(#l)"/>
        </g>
    </g>
</svg>
