<svg xmlns="http://www.w3.org/2000/svg" width="154" height="102"><g fill="none" fill-rule="evenodd"><path d="M0 0h154v102H0z"/><path d="M70.207 44.314l1.757 4.237-6.087 6.388 2.04-4.187c-.442-.48-.864-.979-1.265-1.495l-.395-.522 3.95-4.42zm2.093 5.022l1.622 3.881c-2.675-.217-3.789-1.525-3.789-1.525l2.167-2.356zm20.098-21.943a17.493 17.493 0 011.916 4.452c2.487 9.064-2.567 18.477-11.313 21.188l-.31.093 9.707-25.733zm-24.32 11.818l1.805 4.29-8.787 9.476 3.134-5.784c-.444-.924-1.046-2.714-1.098-2.868l-.003-.01 4.949-5.104zm-2.318-5.548l1.93 4.62L56.18 50.49l5.467-8.656c-.203-.919-.32-3.57-.328-3.772v-.013l4.441-4.386zm-2.323-5.548l1.966 4.711-14.279 14.783 10.663-15.152a21.79 21.79 0 011.65-4.342zm28.309-1.718l.198.287h-7.547l-6.262 18.978-2.415-6.39h2.203l1.193-4.842h-5.1v-3.049l5.85-.05 1.275-4.647H64.322a17.03 17.03 0 014.236-4.347c7.533-5.36 17.84-3.529 23.188 4.06zM46.787 61.838v5.022c0 .697.132 1.227.398 1.588.29.363.734.558 1.19.524.463.03.912-.17 1.206-.537.27-.356.408-.885.408-1.586v-5.011h1.548v5.31c0 1.156-.26 2.02-.783 2.59-.522.57-1.306.857-2.353.859-1.066 0-1.86-.286-2.382-.859-.522-.572-.782-1.435-.782-2.59v-5.31h1.55zm19.952 0v5.022c0 .697.133 1.227.398 1.588.29.363.734.558 1.19.524.464.03.913-.17 1.207-.537.272-.349.408-.878.408-1.586v-5.011h1.54v5.31c0 1.156-.26 2.02-.78 2.59-.52.57-1.303.857-2.349.859-1.066 0-1.86-.286-2.381-.859-.522-.572-.782-1.435-.78-2.59v-5.31h1.547zm-43.008 0l1.42 5.32c.026.11.067.311.123.607.056.296.117.63.181 1.008.043-.367.09-.691.14-.974.051-.282.102-.523.153-.699l1.438-5.262h1.696l-2.713 8.531h-1.474L22 61.838h1.731zm9.453 0l2.804 8.53h-1.785l-.591-1.812h-2.807l-.51 1.813h-1.67l2.774-8.531h1.785zm5.196 0l3.228 4.972c.117.189.22.386.306.591.11.262.227.555.344.9a11.595 11.595 0 01-.079-.75 13.51 13.51 0 01-.025-.932v-4.781h1.489v8.531h-1.53l-3.315-5.059a3.959 3.959 0 01-.303-.591c-.11-.262-.227-.557-.35-.91.036.243.064.491.08.743.015.25.025.565.025.944v4.873h-1.489v-8.531h1.62zm18.285 0l2.805 8.53h-1.785l-.592-1.812h-2.807l-.51 1.813h-1.67l2.774-8.531h1.785zm7.524 0v1.552h-1.78v6.98h-1.565v-6.98h-1.785v-1.552h5.13zm-31.944 1.381c-.043.262-.086.524-.125.744-.038.22-.071.366-.089.44l-.788 2.72h2.022l-.816-2.755a5.252 5.252 0 01-.089-.421 15.7 15.7 0 01-.115-.728zm23.482 0a98.82 98.82 0 01-.125.744c-.039.22-.072.366-.09.44l-.788 2.72h2.022l-.815-2.755a5.252 5.252 0 01-.09-.421 15.7 15.7 0 01-.114-.728zm57.233-1.58a4.476 4.476 0 012.236.594l-.064 1.826a3.21 3.21 0 00-.969-.727 2.548 2.548 0 00-1.065-.23 2.313 2.313 0 00-1.86.816 3.842 3.842 0 00-.048 4.326 2.138 2.138 0 001.752.785c.405.003.805-.081 1.176-.249.379-.177.72-.429 1.007-.74v1.869a3.826 3.826 0 01-1.046.523 3.844 3.844 0 01-1.147.17 3.648 3.648 0 01-2.861-1.27 5.18 5.18 0 010-6.43 3.686 3.686 0 012.889-1.263zm-32.439.199v1.552h-2.733v1.753h2.733v1.552h-2.733v3.687l-1.558-.013v-8.531h4.291zm2.794 0v8.531h-1.557v-8.531h1.557zm13.851 0l2.805 8.53H98.2l-.594-1.812H94.8l-.51 1.813h-1.673l2.764-8.531h1.785zm-10.569 0l3.228 4.972c.117.189.22.386.306.591.11.262.227.555.347.9a9.738 9.738 0 01-.081-.75c-.018-.249-.023-.56-.023-.932v-4.781h1.489v8.531h-1.53l-3.315-5.059a3.983 3.983 0 01-.303-.591c-.11-.262-.227-.557-.35-.91.039.243.064.491.082.743.018.25.023.565.023.944v4.873h-1.492v-8.531h1.62zm15.779 0l3.225 4.972a3.8 3.8 0 01.306.591c.112.262.227.555.347.9a10.247 10.247 0 01-.08-.75 15.69 15.69 0 01-.025-.932v-4.781h1.49v8.531h-1.53l-3.315-5.059a3.508 3.508 0 01-.304-.591c-.11-.262-.227-.557-.349-.91.036.243.061.491.08.743.017.25.025.565.025.944v4.873h-1.49v-8.531h1.62zm15.796 0v8.531h-1.558v-8.531h1.558zm5.354 0l2.805 8.53h-1.785l-.594-1.812h-2.802l-.51 1.813h-1.673l2.775-8.531h1.784zm5.138 0v6.982h2.492v1.549h-4.05v-8.531h1.558zm-32.426 1.381c-.043.262-.084.524-.122.744-.039.22-.072.366-.092.44l-.785 2.72h2.022l-.819-2.755a6.876 6.876 0 01-.09-.421 15.74 15.74 0 01-.114-.728zm26.35 0c-.043.262-.084.524-.125.744a5.94 5.94 0 01-.09.44l-.784 2.72h2.022l-.819-2.755a6.732 6.732 0 01-.09-.421 15.7 15.7 0 01-.114-.728zM31.521 79.437v1.015h-9.116v-1.015h9.116zm0-2.782v1.764h-9.116v-1.764h9.116zm26.139-1.979a1.93 1.93 0 011.504.684c.33.415.548.912.632 1.442l-1.066.348a1.672 1.672 0 00-.408-.906.97.97 0 00-.719-.314 1.116 1.116 0 00-.966.576c-.255.382-.375 1.015-.375 1.894 0 .88.122 1.57.365 1.953.19.354.551.576.946.578a.943.943 0 00.74-.369c.24-.344.391-.748.435-1.17l1.043.45c-.16.812-.433 1.406-.813 1.78a1.9 1.9 0 01-1.4.563 2 2 0 01-1.693-.895c-.497-.698-.746-1.63-.747-2.795 0-1.239.255-2.208.765-2.908a2.057 2.057 0 011.756-.91zm11.397.571c.381.45.581 1.032.561 1.628l-1.081.065c-.01-.3-.118-.587-.306-.816a.904.904 0 00-.67-.233 1.002 1.002 0 00-.671.201.64.64 0 00-.237.505.656.656 0 00.214.498c.297.21.631.361.984.445.418.116.814.302 1.173.552.244.196.435.454.553.748.136.354.201.732.192 1.112.02.576-.16 1.139-.51 1.589-.349.429-.894.644-1.635.644-1.322 0-2.058-.83-2.205-2.492l1.053-.138c.119.93.507 1.394 1.165 1.392a1.03 1.03 0 00.765-.285.964.964 0 00.278-.704.836.836 0 00-.097-.422.745.745 0 00-.298-.285 7.654 7.654 0 00-.97-.372 3.166 3.166 0 01-1.007-.505 1.895 1.895 0 01-.51-.717 2.41 2.41 0 01-.188-.952 2.324 2.324 0 01.255-1.068c.148-.302.38-.551.668-.717a2.105 2.105 0 011.053-.243 1.905 1.905 0 011.471.57zm-32.643 0c.38.451.58 1.032.561 1.628l-1.081.065a1.37 1.37 0 00-.306-.816.906.906 0 00-.67-.233 1.015 1.015 0 00-.674.201.646.646 0 00-.234.505.658.658 0 00.214.498c.297.21.63.362.982.445.418.115.816.302 1.175.552.244.193.435.447.556.738.136.353.201.732.191 1.112a2.432 2.432 0 01-.523 1.589c-.346.429-.892.643-1.632.643-1.31.007-2.04-.82-2.187-2.48l1.053-.14c.119.93.507 1.395 1.165 1.393a1.02 1.02 0 00.765-.285.954.954 0 00.28-.704.86.86 0 00-.096-.422.775.775 0 00-.299-.285 7.624 7.624 0 00-.969-.372 3.216 3.216 0 01-1.02-.505 1.92 1.92 0 01-.51-.717 2.368 2.368 0 01-.188-.952 2.296 2.296 0 01.255-1.068 1.66 1.66 0 01.668-.717 2.1 2.1 0 011.053-.243 1.91 1.91 0 011.471.57zm10.12-.251c.27.153.484.39.612.678.169.36.251.757.24 1.156a2.34 2.34 0 01-.367 1.374c-.25.35-.624.584-1.04.652.218.173.411.378.573.607.235.378.441.773.617 1.183l.648 1.416h-1.275l-.783-1.57c-.17-.369-.361-.727-.57-1.074a.885.885 0 00-.322-.295 1.305 1.305 0 00-.54-.081h-.223v3.03l-1.086-.01v-7.263h2.27c.424-.027.85.04 1.246.197zm-4.53-.197v1.23h-2.89v1.61H41.8v1.222h-2.685v1.973h2.989v1.228h-4.065v-7.263h3.965zm6.894 0l1.352 5.376 1.308-5.376h1.147l-1.917 7.263H49.64l-1.912-7.263h1.17zm5.396 0v7.263h-1.076V74.8h1.076zm10.388 0v1.23h-2.89v1.61h2.686v1.222h-2.685v1.973h2.99v1.228h-4.066v-7.263h3.965zM44.94 76.032h-.844l-.003 1.842h.8c.314.018.628-.006.934-.073a.613.613 0 00.326-.288c.09-.18.132-.38.123-.58a1.11 1.11 0 00-.123-.558.654.654 0 00-.339-.288 3.812 3.812 0 00-.874-.055zm30.127-1.356c.575-.01 1.126.24 1.504.684.328.416.545.913.63 1.442l-1.066.348a1.673 1.673 0 00-.408-.906.966.966 0 00-.719-.314 1.116 1.116 0 00-.966.576c-.255.382-.372 1.015-.372 1.894 0 .88.12 1.57.362 1.953.194.352.557.57.95.57a.938.938 0 00.738-.369c.244-.34.398-.741.446-1.162l1.045.45c-.17.812-.44 1.405-.813 1.78a1.91 1.91 0 01-1.4.563 1.998 1.998 0 01-1.693-.895c-.5-.698-.749-1.63-.747-2.795 0-1.239.25-2.208.752-2.908a2.055 2.055 0 011.757-.91zm7.31.976c.48.652.722 1.57.722 2.78 0 1.209-.255 2.164-.765 2.847a2.144 2.144 0 01-1.823.905 2.166 2.166 0 01-1.831-.895c-.511-.682-.767-1.62-.767-2.813a5.684 5.684 0 01.344-2.138c.182-.493.494-.926.9-1.25a2.331 2.331 0 013.22.564zm19.422-.405c.381.45.582 1.032.561 1.628l-1.08.065c-.01-.3-.118-.587-.307-.816a.906.906 0 00-.67-.233 1.002 1.002 0 00-.671.201.639.639 0 00-.237.505.657.657 0 00.214.498c.297.21.63.362.982.445.419.115.816.302 1.175.552.245.196.435.454.554.748.136.354.2.732.19 1.112a2.432 2.432 0 01-.522 1.589c-.347.429-.892.644-1.632.644-1.302 0-2.025-.83-2.17-2.492l1.053-.138c.12.93.508 1.394 1.166 1.392a1.03 1.03 0 00.765-.285.963.963 0 00.278-.704.83.83 0 00-.097-.422.773.773 0 00-.299-.285 7.654 7.654 0 00-.969-.372 3.216 3.216 0 01-1.02-.505 1.915 1.915 0 01-.51-.717 2.405 2.405 0 01-.188-.952 2.298 2.298 0 01.242-1.068c.148-.302.38-.551.668-.717a2.1 2.1 0 011.053-.243 1.905 1.905 0 011.471.57zm4.99 0c.379.451.578 1.032.559 1.628l-1.079.065c-.012-.3-.12-.587-.308-.816a.904.904 0 00-.67-.233 1.002 1.002 0 00-.672.201.637.637 0 00-.234.505.661.661 0 00.212.498c.297.21.631.361.984.445a3.92 3.92 0 011.175.552c.243.197.434.454.554.748.136.354.2.732.19 1.112a2.447 2.447 0 01-.522 1.589c-.35.429-.892.644-1.634.644-1.31 0-2.038-.83-2.186-2.492l1.056-.138c.117.93.505 1.394 1.163 1.392.282.016.558-.088.765-.285a.962.962 0 00.28-.704.834.834 0 00-.1-.422.754.754 0 00-.295-.285 7.816 7.816 0 00-.969-.372 3.184 3.184 0 01-1.02-.505 1.925 1.925 0 01-.51-.717 2.41 2.41 0 01-.189-.952 2.327 2.327 0 01.255-1.068 1.67 1.67 0 01.671-.717 2.09 2.09 0 011.053-.243 1.913 1.913 0 011.471.57zm7.938.405c.482.652.722 1.57.722 2.78 0 1.209-.255 2.164-.765 2.847a2.3 2.3 0 01-3.29.373 2.368 2.368 0 01-.364-.373c-.508-.675-.763-1.61-.763-2.803a5.684 5.684 0 01.345-2.138c.182-.493.494-.926.9-1.25a2.33 2.33 0 013.215.564zM85.54 74.8l.972 4.96.966-4.96H89.1v7.263h-1.005v-5.72l-1.066 5.72H85.99l-1.063-5.72v5.72h-1V74.8h1.612zm6.22 0l.97 4.96.964-4.96h1.622v7.263h-1.004v-5.72l-1.066 5.72h-1.038l-1.058-5.72v5.72h-1.005V74.8h1.614zm5.662 0v7.263h-1.076V74.8h1.076zm12.04 0v7.263h-1.075V74.8h1.076zm7.895 0l2.187 4.85V74.8h1.005v7.263h-1.086l-2.152-4.735v4.735h-1.002V74.8h1.048zm-5.188 1.35c-.15.1-.278.232-.376.386-.275.41-.413 1.04-.413 1.892 0 .834.14 1.46.426 1.879.224.383.625.62 1.06.625.433-.004.832-.24 1.054-.62.28-.414.42-1.047.42-1.91 0-.864-.137-1.463-.407-1.866a1.255 1.255 0 00-1.764-.386zm-31.657-.224c-.436.001-.84.231-1.074.61-.275.41-.413 1.04-.413 1.892 0 .835.143 1.462.429 1.879.34.599 1.09.8 1.674.45a1.24 1.24 0 00.44-.45c.278-.414.418-1.047.418-1.91 0-.864-.136-1.464-.408-1.867a1.236 1.236 0 00-1.066-.604zm50.735 3.511v1.015h-9.115v-1.015h9.115zm0-2.782v1.764h-9.115v-1.764h9.115z" fill="#85ACB0"/></g></svg>