<svg xmlns="http://www.w3.org/2000/svg" width="154" height="102"><g fill="none" fill-rule="evenodd"><path d="M0 0h154v102H0z"/><path d="M64.919 47.837c.327 0 .46.117.46.444v10.317c0 .343-.156.435-.46.43-.854 0-1.708-.013-2.562 0-.386 0-.61-.08-.543-.519a1.369 1.369 0 00-.085-.343c-.25.17-.46.306-.663.441a4.223 4.223 0 01-3.783.472c-1.335-.435-1.855-1.54-2.032-2.81a19.514 19.514 0 01-.134-2.492c-.018-1.8 0-3.604-.014-5.405 0-.377.083-.537.493-.526a53.9 53.9 0 002.651 0c.35 0 .46.12.46.458-.013 1.92 0 3.842 0 5.761v.582c.035 1.045.541 1.652 1.407 1.69 1 .046 1.562-.457 1.664-1.567.05-.547.03-1.1.03-1.652v-4.823c0-.36.12-.47.46-.458.883.016 1.767.014 2.651 0zM47.442 43.48v5.41c.391-.27.651-.458.92-.632 1.8-1.16 3.964-.71 4.898 1.105.354.72.587 1.493.69 2.288.263 1.83.23 3.677-.432 5.46-.868 2.366-3.554 2.746-5.266 1.56a7.607 7.607 0 00-.653-.45c-.058.082-.097.114-.106.153-.155.686-.152.686-.861.686s-1.438-.02-2.156 0c-.4 0-.553-.107-.55-.528V45.31c0-.158.064-.417.17-.458 1.065-.457 2.147-.888 3.346-1.373zm-7.535 4.378a3.264 3.264 0 012.506 2.835c.063.471.095.947.097 1.423 0 2.142 0 4.286.012 6.43 0 .402-.134.514-.516.503a45.128 45.128 0 00-2.301 0c-.38 0-.612-.085-.56-.52.028-.08-.03-.166-.076-.308-.28.171-.524.33-.78.471-1.33.737-2.706.883-4.066.149a3.029 3.029 0 01-1.123-1.103 4.426 4.426 0 01-.38-3.377c.359-1.41 1.687-2.332 3.37-2.403.898-.065 1.8.07 2.639.394.271.112.446.068.44-.259a5.71 5.71 0 00-.065-.934c-.129-.659-.637-1.027-1.406-1.075a6.11 6.11 0 00-3.105.547c-.345.167-.483.052-.591-.259A25.9 25.9 0 0033.47 49c-.129-.295-.085-.496.23-.583a24.14 24.14 0 012.596-.673 8.98 8.98 0 013.611.115zm31.555-.204c.864.012 1.724.125 2.561.336 1.091.289 1.78 1.08 2.037 2.176.14.577.217 1.167.23 1.76.028 2.19 0 4.377.023 6.565 0 .43-.122.574-.557.556a27.107 27.107 0 00-2.156 0c-.421.013-.716-.053-.642-.57a.955.955 0 00-.067-.252c-.198.11-.375.192-.538.298a4.344 4.344 0 01-3.245.723c-1.381-.243-2.249-1.04-2.594-2.389a4.687 4.687 0 01-.025-2.426c.38-1.427 1.38-2.144 2.78-2.384a5.805 5.805 0 013.222.3c.12.04.245.075.37.1.481-1.31-.214-2.32-1.565-2.37a6.863 6.863 0 00-3.33.712c-.274-.7-.54-1.328-.757-1.973-.03-.094.143-.336.274-.393a9.309 9.309 0 013.979-.77zm14.2.16c1.353.384 1.903 1.464 2.128 2.732.095.606.137 1.218.127 1.83.014 2.06 0 4.12.014 6.165 0 .389-.106.524-.504.513a46.421 46.421 0 00-2.518 0c-.403 0-.548-.117-.543-.538.018-1.919.018-3.84 0-5.762a5.045 5.045 0 00-.184-1.27 1.203 1.203 0 00-1.204-.892c-.826-.016-1.335.229-1.524.84a4.684 4.684 0 00-.193 1.313c-.02 1.922-.02 3.844 0 5.764 0 .442-.145.563-.564.55a46.18 46.18 0 00-2.517 0c-.355 0-.514-.1-.514-.481.01-3.426.01-6.852 0-10.277 0-.334.132-.441.46-.437.854.014 1.708.03 2.562 0 .45-.018.651.106.575.57.003.113.017.226.042.337l.656-.435a4.309 4.309 0 013.7-.522zm-59.715-3.322v10.525c0 .744 0 .746.725.744 1.514 0 3.026 0 4.538-.014.42 0 .585.112.564.554a34.572 34.572 0 000 2.322c0 .312-.113.426-.419.426H22.46c-.414 0-.46-.21-.46-.535V51.5l.012-.004v-6.922c0-.521 0-.564.475-.567h2.848c.554 0 .607.015.612.485zm44.917 9.537c-.84.04-1.298.597-1.282 1.457.016.86.531 1.373 1.337 1.437 1.305.083 2.055-.485 2.053-1.56v-.311c0-.627-.074-.753-.69-.881a5.814 5.814 0 00-1.418-.142zm-33.675-.012c-.92 0-1.434.575-1.38 1.488.052.913.614 1.457 1.532 1.416.164-.01.328-.027.49-.055 1.047-.172 1.34-.512 1.342-1.551a2.007 2.007 0 010-.311.647.647 0 00-.603-.82 7.987 7.987 0 00-1.38-.167zm11.717-3.49c-.368.061-.72.195-1.034.394a.935.935 0 00-.368.637c-.067.631-.037 1.288-.037 1.944v.012c0 .551.042 1.105-.013 1.652-.056.547.23.849.674 1.073 1.093.552 2.09.167 2.315-.915a8.838 8.838 0 000-3.595c-.189-.904-.734-1.334-1.537-1.201zm65.504 7.582c-1.707 1.448-3.67 1.601-5.753 1.03-.49-.136-.964-.333-1.454-.458-.596-.16-.767-.071-1.114.437a1.03 1.03 0 01-.302.212c-.08-.141-.23-.283-.23-.427-.02-.982 0-1.966 0-2.95v-2.769c0-.228-.064-.549.267-.57.332-.02.327.316.366.559.214 1.327.509 2.622 1.243 3.787 1.054 1.67 2.828 2.187 4.658 1.588 2.071-.673 2.193-3.325 1.008-4.492-.644-.633-1.46-.975-2.274-1.32-1.045-.444-2.101-.867-3.12-1.373a3.635 3.635 0 01-1.688-1.618 4.224 4.224 0 011.82-5.638c1.474-.805 2.993-.828 4.555-.274.41.144.806.327 1.218.457a.58.58 0 00.803-.352c.048-.121.23-.19.34-.284.079.117.205.229.23.348.065.442.1.888.134 1.332.09 1.171.184 2.343.251 3.517 0 .155-.136.318-.21.478-.121-.124-.298-.229-.36-.373-.376-.888-.654-1.83-1.1-2.67-.691-1.305-1.757-2.16-3.31-2.181-1.054-.014-1.99.272-2.5 1.322a2.43 2.43 0 00.482 2.762c.69.67 1.562 1.025 2.425 1.414 1.15.515 2.327.982 3.374 1.652 2.603 1.67 2.083 5.288.242 6.854M104.92 30.99a21.218 21.218 0 018.717-.537 20.19 20.19 0 019.077 3.626 20.93 20.93 0 017.68 10.048 20.781 20.781 0 011.206 8.294 22.968 22.968 0 01-1.089 5.72c-.108.328-.271.406-.593.328a1.49 1.49 0 01-1.015-.933c-.45-1.007-.898-2.014-1.328-3.028-1.445-3.415-2.89-6.828-4.336-10.24a.704.704 0 00-.09-.203c-.103-.117-.22-.22-.334-.327-.105.123-.255.215-.308.352-.412 1.053-.792 2.119-1.208 3.17-1.144 2.876-2.285 5.754-3.47 8.612a10.238 10.238 0 01-1.07 1.748 1.9 1.9 0 01-1.257.799.759.759 0 00-.341.098c-.11.115-.203.244-.276.385.108.075.223.215.338.215.419.018.84 0 1.259 0 1.137 0 2.276.018 3.413 0 .16-.003.318-.135.476-.206-.12-.133-.216-.32-.366-.385-1.392-.576-1.74-1.27-1.314-2.73.175-.599.392-1.187.592-1.777a.483.483 0 01.522-.38c1.38.016 2.762-.005 4.143.016a.636.636 0 01.474.284 61.289 61.289 0 011.38 3.203c.348.86.1 1.226-.802 1.348a1.082 1.082 0 00-.392.087.343.343 0 00-.163.27c.038.115.12.21.23.265a.9.9 0 00.354.02h4.553c.158 0 .315.014.568.028-.212.49-.373.915-.575 1.323-2.18 4.395-5.464 7.725-9.896 9.862a20.679 20.679 0 01-11.128 1.956 20.972 20.972 0 01-11.4-4.69.84.84 0 01-.35-.721V52.1c0-.586.002-.586.612-.547.209.011.418.023.625.055 1.586.229 2.458 1.201 2.532 2.803.012.25-.117.663.331.638.412-.02.31-.414.31-.675v-6.178c0-.09.029-.197-.01-.263a4.579 4.579 0 00-.334-.458c-.099.147-.288.298-.288.458-.048.778-.198 1.506-.764 2.09-.757.78-1.74.855-2.74.855-.093 0-.263-.206-.263-.316-.02-1.937-.02-3.874 0-5.81a.445.445 0 01.313-.31c1.37-.035 2.73.036 4.004.613 1.427.642 2.212 1.864 2.884 3.185.037.113.09.221.156.32.113.095.236.179.366.25.044-.145.147-.3.12-.428a63.15 63.15 0 00-.54-2.163c-.18-.675-.401-1.336-.542-2.023-.082-.398-.283-.457-.628-.457-2.75.029-5.505.05-8.267.064-.568.002-1.137-.041-1.705-.053a1.526 1.526 0 00-.531.05c-.118.044-.265.188-.27.289-.004.1.138.252.251.302.17.054.346.088.525.098.826.124 1.056.392 1.056 1.208v18.48l-.196.08c-.671-1.1-1.39-2.178-2.004-3.309a19.58 19.58 0 01-2.17-6.901 21.038 21.038 0 01.635-8.53c1.999-7.053 7.552-12.558 14.65-14.526zm16.862 16.835l2.232 5.088h-4.278c.66-1.739 1.294-3.409 1.926-5.08l.12-.008zm-85.52 15.382c.153.081.283.199.38.343l-.382.41a.995.995 0 00-.23-.266.46.46 0 00-.263-.08.421.421 0 00-.205.053.56.56 0 00-.165.146.705.705 0 00-.109.229.99.99 0 00.003.558.75.75 0 00.112.229.51.51 0 00.173.149c.066.035.14.054.214.052a.507.507 0 00.292-.091.687.687 0 00.23-.254l.392.393c-.105.154-.245.28-.41.369a1.11 1.11 0 01-.522.133 1.082 1.082 0 01-.49-.124 1.113 1.113 0 01-.399-.325 1.068 1.068 0 01-.184-.35 1.447 1.447 0 01-.057-.433c-.02-.34.1-.675.333-.926a1.17 1.17 0 01.366-.248c.294-.136.637-.125.92.033zm-5.981-.135a1.18 1.18 0 01.46.08c.13.058.243.148.329.26.034.049.064.092.09.136a.61.61 0 01.057.137.848.848 0 01.028.162c.004.07.004.14 0 .209v1.466h-.61v-.112a1.22 1.22 0 01-.61.16.855.855 0 01-.598-.235.814.814 0 01-.242-.593.793.793 0 01.552-.771c.123-.04.251-.06.38-.06a1.554 1.554 0 01.518.087v-.158a.229.229 0 00-.113-.178.537.537 0 00-.288-.066c-.09 0-.179.01-.266.032-.12.033-.239.075-.353.125l-.23-.423c.136-.083.282-.15.435-.197a1.63 1.63 0 01.46-.061zm9.327 0c.157-.004.314.023.46.08.13.058.243.148.33.26.034.049.064.092.09.136a.66.66 0 01.057.137.815.815 0 01.03.162v1.675h-.599v-.112a1.211 1.211 0 01-.607.16.847.847 0 01-.334-.064.787.787 0 01-.442-.435.82.82 0 010-.663.736.736 0 01.191-.266.862.862 0 01.295-.171c.121-.04.249-.06.377-.06a1.55 1.55 0 01.507.087v-.158a.23.23 0 00-.113-.178.534.534 0 00-.288-.066c-.09 0-.18.011-.267.032-.12.033-.238.075-.352.125l-.23-.423c.136-.083.282-.15.435-.197a1.63 1.63 0 01.46-.061zm-14.989-.756v.639h-1.744v.597h1.104v.648h-1.104v1.322h-.645V62.32l2.389-.003zm3.13.756a.9.9 0 01.46.12.78.78 0 01.385.566c.007.058.012.116.013.174v1.59h-.616v-1.414a.44.44 0 00-.106-.313.4.4 0 00-.304-.115.393.393 0 00-.421.424v1.418h-.603V63.12h.614l-.011.114c.097-.052.199-.095.304-.128a1.12 1.12 0 01.285-.034zm5.413 0a.9.9 0 01.46.12.778.778 0 01.345.438.95.95 0 01.044.302v1.59h-.608v-1.414a.44.44 0 00-.105-.313.4.4 0 00-.304-.115.393.393 0 00-.421.424v1.418h-.615V63.12h.615v.114c.097-.052.199-.095.303-.128a1.12 1.12 0 01.286-.034zm8.752-.753v3.203h-.612v-2.974l.612-.23zm-15.844.794v2.402h-.922v-2.402h.922zm12.11 0v2.402h-.918v-2.402h.918zm-7.998 1.27a.484.484 0 00-.3.084.26.26 0 00-.112.23c.003.091.05.176.126.228a.478.478 0 00.309.098.721.721 0 00.43-.148v-.378a2.874 2.874 0 00-.267-.09.723.723 0 00-.186-.024zm9.34 0a.48.48 0 00-.296.084.263.263 0 00-.115.23c.003.091.05.176.127.228a.478.478 0 00.308.098.716.716 0 00.43-.148v-.378a3.105 3.105 0 00-.264-.09.75.75 0 00-.19-.024zm-1.792-2.071a.584.584 0 01.343.096c.092.06.143.143.141.229.004.086-.048.169-.14.229a.67.67 0 01-.686.001l-.002-.001c-.094-.06-.145-.143-.141-.229-.005-.086.046-.17.14-.229a.612.612 0 01.345-.096zm-12.109 0a.591.591 0 01.345.096c.092.06.142.143.139.229-.001.178-.22.322-.489.322a.637.637 0 01-.34-.093c-.092-.06-.143-.143-.141-.229-.004-.086.048-.17.141-.229a.622.622 0 01.345-.096zm20.5-.055a1.514 1.514 0 011.174.524l-.474.426a1.298 1.298 0 00-.362-.23.924.924 0 00-.373-.075.729.729 0 00-.359.078.229.229 0 00-.14.202c0 .11.065.18.193.215l.072.022.06.014.087.023c.035 0 .085.02.15.032l.062.016.06.012.094.02.166.044a1.754 1.754 0 01.377.119.886.886 0 01.23.155.941.941 0 01-.106 1.446 1.331 1.331 0 01-.43.213 1.641 1.641 0 01-1.252-.11 1.527 1.527 0 01-.564-.517l.527-.368c.092.129.212.235.352.309a.925.925 0 00.44.107c.088.001.175-.009.26-.03a.752.752 0 00.214-.089.498.498 0 00.143-.132.293.293 0 00.05-.16.25.25 0 00-.122-.23l-.034-.018a.311.311 0 00-.074-.025l-.166-.041c-.075-.016-.18-.044-.315-.078-.136-.034-.27-.066-.363-.094a2.15 2.15 0 01-.23-.082.881.881 0 01-.304-.204.686.686 0 01-.148-.242.91.91 0 01-.055-.316.86.86 0 01.313-.68c.109-.085.233-.15.366-.19.156-.045.318-.068.481-.066zm11.707.824a1.063 1.063 0 01.875.47l-.375.409a1.066 1.066 0 00-.23-.266.46.46 0 00-.47-.027.55.55 0 00-.163.146.659.659 0 00-.109.229.92.92 0 00-.039.28c0 .094.013.188.042.278.023.083.061.16.113.229a.525.525 0 00.17.149.44.44 0 00.216.052.51.51 0 00.292-.091.706.706 0 00.23-.254l.392.393a1.148 1.148 0 01-.935.502 1.082 1.082 0 01-.49-.124 1.15 1.15 0 01-.582-.675c-.04-.14-.06-.286-.058-.433-.019-.34.102-.675.334-.926.106-.105.231-.189.368-.248.132-.06.274-.093.42-.093zm4.923-.005c.156-.001.311.02.46.064.168.056.33.127.484.215l-.23.46a1.533 1.533 0 00-.74-.201c-.2 0-.298.062-.298.187a.162.162 0 00.039.12c.05.038.107.064.168.077l.154.046.28.08c.192.048.366.147.505.286.25.247.251.648.003.897l-.02.019a.85.85 0 01-.324.194 1.61 1.61 0 01-.46.055 1.975 1.975 0 01-.536-.067 1.746 1.746 0 01-.475-.208l.23-.51c.135.077.278.139.426.183.138.044.282.067.426.069a.46.46 0 00.249-.058.171.171 0 00.09-.155.288.288 0 00-.012-.083.142.142 0 00-.05-.066.533.533 0 00-.109-.055c-.048-.018-.11-.036-.186-.06l-.309-.093-.19-.064a.696.696 0 01-.116-.05l-.092-.053a.658.658 0 01-.216-.24.615.615 0 01.177-.799.92.92 0 01.292-.14 1.33 1.33 0 01.38-.05zm-13.698-.004a.82.82 0 01.479.146c.15.106.266.25.338.419.045.09.077.187.097.286.02.114.03.23.03.345v.24H48.57a.543.543 0 00.13.365.402.402 0 00.318.144.575.575 0 00.387-.158l.44.332a1.33 1.33 0 01-.39.295 1.06 1.06 0 01-.432.084 1.145 1.145 0 01-.46-.086.944.944 0 01-.34-.25 1.094 1.094 0 01-.215-.396 1.644 1.644 0 01-.076-.517c-.022-.348.102-.69.343-.943.21-.197.489-.306.778-.306zm11.27 0a.816.816 0 01.479.146c.15.106.266.25.338.419.045.09.077.187.097.286.022.114.031.23.03.345v.24H59.84a.543.543 0 00.13.365.402.402 0 00.319.144.57.57 0 00.386-.158l.442.332a1.367 1.367 0 01-.391.295 1.055 1.055 0 01-.433.084 1.145 1.145 0 01-.46-.086.944.944 0 01-.34-.25 1.094 1.094 0 01-.215-.396 1.644 1.644 0 01-.076-.517c-.022-.348.102-.69.343-.943.212-.195.49-.305.778-.306zm-7.192.048l.57 1.537.572-1.537h.658l-.895 2.402h-.663l-.893-2.402h.651zm-1.43-.048a.876.876 0 01.461.135l-.189.656a.67.67 0 00-.163-.114.376.376 0 00-.168-.037.46.46 0 00-.446.437v1.37h-.613v-2.402l.615.003v.171a.943.943 0 01.25-.171.628.628 0 01.254-.048zm4.628.04v2.403h-.932v-2.402h.932zm-7.338.511a.357.357 0 00-.265.103.555.555 0 00-.138.297h.773a.416.416 0 00-.108-.286.342.342 0 00-.262-.114zm11.27 0a.363.363 0 00-.265.103.537.537 0 00-.136.297h.771a.416.416 0 00-.108-.286.342.342 0 00-.262-.114zm-4.391-1.311a.582.582 0 01.345.096c.093.06.145.143.141.229 0 .178-.219.322-.488.322a.636.636 0 01-.34-.093c-.093-.06-.145-.143-.141-.229-.005-.086.047-.17.141-.229a.617.617 0 01.342-.096zm30.595.808l.676 1.565.59-1.565h.662l-1.256 3.285h-.65l.344-.899-1.034-2.386h.668zm-15.795.009v1.412a.444.444 0 00.108.316c.082.08.195.12.309.112a.415.415 0 00.306-.112.42.42 0 00.115-.312V63.13h.617v2.403h-.613l.005-.127c-.1.057-.204.103-.313.138a1.132 1.132 0 01-.285.037.886.886 0 01-.46-.124.771.771 0 01-.387-.565.93.93 0 01-.014-.172v-1.59h.612zm3.063-.815l.003.806h.593v.608h-.593v.847a.433.433 0 00.071.298.283.283 0 00.214.077c.05 0 .101-.01.147-.032a.79.79 0 00.161-.116l-.087.651a.962.962 0 01-.212.09.887.887 0 01-.506-.018.664.664 0 01-.214-.126.563.563 0 01-.14-.192.6.6 0 01-.051-.252v-1.227h-.421v-.608h.42v-.577l.615-.229zm11.047 0l.002.806h.594v.608h-.594v.847a.431.431 0 00.074.298.28.28 0 00.212.077c.05 0 .101-.01.147-.032a.727.727 0 00.161-.116l-.085.651a.867.867 0 01-.444.117.815.815 0 01-.274-.045.652.652 0 01-.216-.126.57.57 0 01-.191-.444v-1.227h-.42v-.608h.42v-.577l.614-.229zm-6.043.758a.887.887 0 01.411.096c.13.064.243.155.334.265.1.119.179.254.23.4.056.157.084.322.083.488a1.44 1.44 0 01-.083.492c-.051.145-.13.28-.23.396a1.028 1.028 0 01-.338.265.96.96 0 01-.838 0 1.043 1.043 0 01-.336-.265 1.3 1.3 0 01-.23-.396 1.488 1.488 0 01-.08-.487c-.002-.17.025-.339.08-.5.052-.144.13-.278.23-.395.094-.11.21-.2.34-.263a.953.953 0 01.427-.096zm-3.105-.753l.002.915c.098-.05.2-.093.304-.128a1.01 1.01 0 01.267-.034.9.9 0 01.447.12.746.746 0 01.352.438c.012.042.022.085.03.128.007.058.012.116.013.174v1.59h-.614v-1.414a.44.44 0 00-.106-.313.381.381 0 00-.29-.115.388.388 0 00-.295.117.422.422 0 00-.11.307v1.418h-.614v-2.974l.614-.23zm5.951.753a.876.876 0 01.46.135l-.186.656a.722.722 0 00-.165-.114.376.376 0 00-.164-.034.46.46 0 00-.444.437 1.484 1.484 0 000 .17v1.2h-.612V63.12h.607v.171a.936.936 0 01.251-.171.627.627 0 01.253-.048zm-13.233-.756l1.335 3.204h-.706l-.295-.72h-1.286l-.295.72h-.704l1.332-3.204h.62zm15.116.797v2.402h-.915v-2.402h.915zm-4.725.544h-.004a.388.388 0 00-.33.183.828.828 0 00-.124.476.857.857 0 00.122.483.378.378 0 00.327.186.367.367 0 00.315-.188.85.85 0 00.125-.476.984.984 0 00-.035-.265.686.686 0 00-.092-.209.445.445 0 00-.136-.14.313.313 0 00-.168-.05zm-10.7-.427l-.377.94.755-.01-.377-.93zm14.978-.918a.584.584 0 01.344.096c.092.06.143.143.14.229.004.086-.047.169-.14.229a.597.597 0 01-.344.094.603.603 0 01-.344-.094c-.092-.06-.143-.143-.141-.229-.003-.086.048-.17.141-.229a.63.63 0 01.344-.096z" fill="#85ACB0"/></g></svg>