<svg xmlns="http://www.w3.org/2000/svg" viewBox="0 0 32 32" aria-labelledby="facebook">
    <title id="facebook">Facebook</title>
    <g id="Layer_2" data-name="Layer 2">
        <g id="Layer_1-2" data-name="Layer 1">
            <g id="icons_footer_facebook" data-name="icons/footer/facebook">
                <rect id="bg" width="32" height="32" rx="4" style="fill:none"/>
                <path id="facebook" d="M22.51,4H19.39c-3.5,0-5.76,2.32-5.76,5.91v2.72H10.49a.49.49,0,0,0-.49.49v4a.48.48,0,0,0,.49.48h3.14v10a.48.48,0,0,0,.49.49h4.09a.49.49,0,0,0,.49-.49v-10h3.66a.48.48,0,0,0,.49-.48v-4a.52.52,0,0,0-.14-.35.5.5,0,0,0-.35-.14H18.7V10.32c0-1.11.26-1.67,1.71-1.67h2.1A.49.49,0,0,0,23,8.16V4.49A.5.5,0,0,0,22.51,4Z" style="fill:#333"/>
            </g>
        </g>
    </g>
</svg>
