<svg xmlns="http://www.w3.org/2000/svg" xmlns:xlink="http://www.w3.org/1999/xlink" width="154" height="102">∏<defs><path id="a" d="M.098 27.067C.098 41.997 12.16 54.1 27.039 54.1c14.88 0 26.942-12.103 26.942-27.033C53.98 12.137 41.918.033 27.039.033 12.159.033.098 12.137.098 27.067z"/><path id="c" d="M.098 27.067C.098 41.997 12.16 54.1 27.039 54.1c14.88 0 26.942-12.103 26.942-27.033C53.98 12.137 41.918.033 27.039.033 12.159.033.098 12.137.098 27.067z"/></defs><g fill="none" fill-rule="evenodd"><path d="M0 0h154v102H0z"/><g transform="translate(50.4 24.4)"><mask id="b" fill="#fff"><use xlink:href="#a"/></mask><path fill="#85ACB0" d="M55.544 28.144l-17.258 8.142-3.1 18.882-13.05-13.955L3.283 44.09l9.192-16.765-8.553-17.104 18.733 3.591L36.222.366l2.384 18.985z" mask="url(#b)"/></g><g transform="translate(50.4 24.4)"><mask id="d" fill="#fff"><use xlink:href="#c"/></mask><path fill="#85ACB0" d="M49.47 8.789l-8.198 17.276 9.536 16.571L31.9 40.153 19.14 54.375l-3.49-18.813-17.421-7.78 16.751-9.144 1.993-19.03 13.842 13.16z" mask="url(#d)"/></g><path fill="#85ACB0" d="M76.973 26.97c13.27 0 24.03 10.73 24.03 23.966 0 13.237-10.76 23.968-24.03 23.968-13.272 0-24.03-10.73-24.03-23.968 0-13.236 10.758-23.967 24.03-23.967"/><path fill="#F4F4F4" d="M100.548 50.936c0 12.987-10.555 23.515-23.575 23.515S53.397 63.923 53.397 50.936c0-12.986 10.555-23.514 23.576-23.514 13.02 0 23.575 10.528 23.575 23.514z"/><path fill="#85ACB0" d="M76.973 77.604C62.24 77.604 50.3 65.693 50.3 51s11.94-26.604 26.673-26.604c14.73 0 26.673 11.911 26.673 26.604S91.704 77.604 76.973 77.604m0-60.746c-18.871 0-34.17 15.257-34.17 34.078 0 18.822 15.299 34.08 34.17 34.08 18.87 0 34.168-15.258 34.168-34.08 0-18.821-15.298-34.078-34.168-34.078"/><path stroke="#85ACB0" stroke-width=".636" d="M76.973 16.145c19.264 0 34.881 15.577 34.881 34.791 0 19.215-15.617 34.791-34.881 34.791-19.265 0-34.882-15.576-34.882-34.79 0-19.215 15.617-34.792 34.882-34.792z"/><g fill="#85ACB0"><path d="M87.296 72.082c-.07-.842-1.094-2.342-1.757-2.773-1.539-.995-3.282-1.42-5.06-1.662-3.193-.436-6.38-.35-9.495.546-1.225.353-2.44.781-3.316 1.762-.322.363-.767 1.741-.833 2.216-.058.427 1.072.727 1.763 1.09l4 1.053c2.796.407 5.636.402 8.43-.014l3.934-1.042c.773-.363 2.374-.727 2.334-1.176"/><path d="M70.67 46.936c-.021-.892.365-1.521 1.034-2.036 3.511-1.48 7.02-1.49 10.531 0 .697.496.957 1.156 1.094 2.018.42 2.727 1.748 16.182 2.058 18.998l.153 2.157c-.058.014-.129.05-.144.034-4.329-2.443-11.863-2.329-16.524-.182-.212.111-.462.28-.436-.17.013-.315 2.25-20.26 2.235-20.819m-1.32-1.198v-.016c-.007.01-.01.016 0 .016"/></g><path fill="#FFF" d="M84.024 57.307v-7.09c0-1.397.973-1.979 2.801-1.988.407.01 2.354.01 3.725.01h3.766v1.69c0 .6-.126.816-.77.802-1.95.009-5.756.009-6.062.009-1.16 0-1.285.33-1.291 1.49 0 1.06 0 2.12-.015 3.18 0 .459.088.946.618 1.024.296 0 4.722-.016 6.725 0 .547-.009.81.182.795.728 0 1.382.104 1.636-2.082 1.636-2.005-.009-3.957.035-5.87 0-1.553-.06-2.34-.304-2.34-1.49"/><path stroke="#85ACB0" stroke-width=".636" d="M84.024 57.307v-7.09c0-1.397.973-1.979 2.801-1.988.407.01 2.354.01 3.725.01h3.766v1.69c0 .6-.126.816-.77.802-1.95.009-5.756.009-6.062.009-1.16 0-1.285.33-1.291 1.49 0 1.06 0 2.12-.015 3.18 0 .459.088.946.618 1.024.296 0 4.722-.016 6.725 0 .547-.009.81.182.795.728 0 1.382.104 1.636-2.082 1.636-2.005-.009-3.957.035-5.87 0-1.553-.06-2.34-.304-2.34-1.49z"/><path fill="#FFF" d="M62.158 54.756v2.791c0 1.262 0 1.262-1.488 1.257-.337 0-.674 0-1.011-.01V50.86c0-1.107.712-2.627 2.497-2.627 1.843 0 3.146.022 4.99 0 .728-.01 1.67 0 2.391 0 .476 0 .968.074.888.762v1.694c-2.326 0-4.831 0-7.157.017-.266 0-.614 0-.798.158-.515.363-.547 1.041 0 1.47.263.052.53.078.798.079 1.941.013 3.567 0 5.507 0 1.2 0 1.2.263 1.19 1.136 0 .246.01.516.01.786 0 .418-.316.423-.671.423H62.96c-.266.013-.489-.002-.802-.002"/><path stroke="#85ACB0" stroke-width=".636" d="M62.158 54.756v2.791c0 1.262 0 1.262-1.488 1.257-.337 0-.674 0-1.011-.01V50.86c0-1.107.712-2.627 2.497-2.627 1.843 0 3.146.022 4.99 0 .728-.01 1.67 0 2.391 0 .476 0 .968.074.888.762v1.694c-2.326 0-4.831 0-7.157.017-.266 0-.614 0-.798.158-.515.363-.547 1.041 0 1.47.263.052.53.078.798.079 1.941.013 3.567 0 5.507 0 1.2 0 1.2.263 1.19 1.136 0 .246.01.516.01.786 0 .418-.316.423-.671.423H62.96c-.266.013-.489-.002-.802-.002z"/><path fill="#FFF" d="M78.094 48.302c1.378 0 2.754.02 4.13-.011.514-.011.662.153.662.664 0 1.747.02 1.747-1.764 1.747h-6.235a3.633 3.633 0 00-.466 0c-.538.069-.994.303-.952.909.038.545.45.769.99.765 1.766-.009 3.534-.052 5.3 0a3.2 3.2 0 013.143 3.256 3.19 3.19 0 01-.448 1.572c-.602 1.025-1.506 1.636-2.734 1.647-2.735.016-5.454 0-8.181.022-.445 0-.566-.14-.578-.575-.053-1.869-.068-1.869 1.77-1.869h6.703c.523-.036.958-.285.962-.816 0-.571-.421-.848-.999-.844-1.74.01-3.482.035-5.22.02-1.446-.013-2.507-.789-3.023-2.142-.764-2 .751-4.287 2.89-4.332 1.348-.03 2.699 0 4.05 0v-.013z"/><path stroke="#85ACB0" stroke-width=".636" d="M78.094 48.302c1.378 0 2.754.02 4.13-.011.514-.011.662.153.662.664 0 1.747.02 1.747-1.764 1.747h-6.235a3.633 3.633 0 00-.466 0c-.538.069-.994.303-.952.909.038.545.45.769.99.765 1.766-.009 3.534-.052 5.3 0a3.2 3.2 0 013.143 3.256 3.19 3.19 0 01-.448 1.572c-.602 1.025-1.506 1.636-2.734 1.647-2.735.016-5.454 0-8.181.022-.445 0-.566-.14-.578-.575-.053-1.869-.068-1.869 1.77-1.869h6.703c.523-.036.958-.285.962-.816 0-.571-.421-.848-.999-.844-1.74.01-3.482.035-5.22.02-1.446-.013-2.507-.789-3.023-2.142-.764-2 .751-4.287 2.89-4.332 1.348-.03 2.699 0 4.05 0v-.013z"/><g fill="#85ACB0"><path d="M69.758 44.907s.021-.403.816-.909c2.529-1.627 10.693-1.898 12.943 0 .547.575.647.91.647.91l.204-1.593s-1.318-2.337-7.226-2.337c-5.855 0-7.383 2.167-7.383 2.167l-.001 1.762z"/><path d="M70.893 42.25v-2.103s1.577-1.943 6.508-1.785c4.834.156 5.638 1.93 5.638 1.93v1.893s-.158-.741-.641-.983c-3.694-1.844-7.682-1.395-10.635.056-.38.239-.683.583-.87.991"/><path d="M75.205 33.262c.142 0 .256.115.256.256v5.04a.256.256 0 11-.512 0v-5.04c0-.141.115-.256.256-.256m3.621 0c.141 0 .256.115.256.256v5.04a.256.256 0 11-.512 0v-5.04c0-.141.114-.256.256-.256"/><path d="M81.987 35.742c-.302-.231-.85-1.302-4.987-1.371-3.86-.064-4.526 1.036-4.953 1.302-.086.054-.137.062-.137.136 0 .075.053.164.137.136.995-.558 2.005-1.338 4.953-1.301 2.483.029 3.487.276 4.951 1.432a.131.131 0 00.137-.136.29.29 0 00-.1-.198m-.001 1.993c-.302-.231-.85-1.302-4.987-1.371-3.86-.066-4.526 1.036-4.953 1.301-.086.055-.137.062-.137.137 0 .074.053.162.137.136.995-.558 2.005-1.338 4.953-1.302 2.483.03 3.487.277 4.951 1.431a.13.13 0 00.137-.136.287.287 0 00-.1-.196"/><path d="M71.187 34.393c-.172-.698.658-.93.911-1.102.385-.256.95-.402 1.38-.571.851-.335 1.234-.573 2.147-.613 1.014-.047 1.472-.022 2.656-.022 1.094.077 1.809.51 2.153.648.472.182 1.016.416 1.406.558.463.167 1.192.498.882 1.102-.182.363-.461.625-.244.587.304-.053.729-.895.857-1.17.162-.363-.356-.7-1.142-1.077a21.976 21.976 0 00-2.56-1.002c-.949-.31-1.53-.667-2.114-1.295-.122-.13-.24-.545-.623-.545-.16 0-.468.418-.561.545-.493.682-1.364 1.015-2.124 1.315-.811.322-1.64.589-2.42 1.002-.435.234-.883.57-.952 1.058-.052.364.182 1.022.5 1.189.107-.198-.105-.416-.152-.607m11.298.587c.303-.17.73-.895.857-1.17"/></g><path fill="#FFF" d="M45.004 49.97v.412l3.261-.033v-.41h.312l.031 3.043-.99.01v-.545h.646l-.015-1.392-1.435.014v.926h.39v.389l-1.123.01v-.387h.389v-.925l-1.446.014v.533l-.317-.007-.018-1.647zm.106 3.717l.042.407 3.241-.334-.04-.41.31-.03.158 1.516-.31.033-.043-.41-3.24.337.042.408-.31.032-.156-1.516zm.202 2.211l.088.402 3.186-.678-.086-.402.305-.066.259 1.21-2.468 2.449v.027l2.552-.545-.086-.402.304-.064.25 1.171-.304.065-.086-.401-3.49.741-.118-.583 2.759-2.74v-.028l-2.893.615.08.407-.305.064-.251-1.17zm2.494 4.895l.412 1.147 1.48-1.158v-.026l-1.892.037zm-1.542-.626l.096.273 3.785-.022.226.631-2.93 2.378.099.273-.3.104-.504-1.404.293-.104.16.448.757-.606-.477-1.33-.966.021.16.45-.293.103-.4-1.111.294-.104zm1.487 4.038l.183.364 2.898-1.493-.182-.363.277-.144.572 1.091-1.722 3.016.012.026 2.32-1.206-.183-.363.277-.144.547 1.062-.275.143-.183-.363-3.164 1.645-.28-.53 1.924-3.377-.013-.026-2.623 1.364.182.364-.275.143-.547-1.063zm3.549 3.148c1.06-.744 2.06-.558 2.598.203.275.391.297.748.182.951l.017.022.271-.19.312.44-.97.68-.31-.44.223-.157c.295-.208.32-.606.03-1.018-.38-.546-.947-.522-1.501-.133l-.742.52c-.609.429-.71 1-.334 1.53a1.08 1.08 0 001.178.435l.042.302a1.49 1.49 0 01-1.652-.596c-.61-.866-.308-1.873.657-2.55m.937 4.03l.267.313 2.476-2.113-.268-.313.237-.202.994 1.159-.237.201-.267-.31-2.475 2.112.268.311-.237.202-.997-1.158zm2.954 1.428l.883.845.805-1.695-.02-.02-1.668.87zm-1.662.125l.21.2 3.377-1.695.485.465-1.564 3.437.21.2-.217.223-1.08-1.032.218-.224.344.331.407-.88-1.023-.978-.857.449.345.329-.215.225-.855-.818.215-.232zm3.14 2.925l.329.246 1.954-2.6-.328-.248.182-.247 1.223.909-.182.249-.33-.247-1.934 2.574 1.006.751.434-.576.43.323-.64.851-2.33-1.743zm4.595 3.1l-.024-.013-.155.29-.476-.253.532-.998.476.25-.115.217c-.182.332-.05.65.442.909.52.276.873.167 1.059-.182.164-.309.089-.546-.285-.873l-.22-.19c-.569-.492-.822-1.008-.489-1.637.3-.564.948-.716 1.65-.344.392.208.558.49.547.713l.029.015.144-.27.476.253-.52.975-.476-.253.115-.215c.183-.334.042-.625-.443-.881-.485-.257-.793-.131-.95.161-.156.293-.061.566.345.924l.206.173c.562.49.784.998.478 1.57-.323.608-1.01.81-1.776.405-.397-.208-.576-.51-.57-.746m2.663 1.39l.383.148 1.185-3.027-.383-.15.113-.288 2.844 1.105-.365.92-.503-.196.235-.598-1.302-.506-.49 1.255.866.336.14-.364.365.142-.405 1.04-.364-.142.142-.363-.866-.337-.547 1.391 1.353.526.262-.671.503.194-.388.993-2.897-1.127zm5.159-.06l.7.18a.547.547 0 00.729-.42l.07-.268a.545.545 0 00-.45-.727l-.701-.182-.348 1.416zm-1.519 1.435l.4.1.802-3.149-.398-.101.075-.3 1.947.49c.749.182 1.052.642.884 1.304-.131.522-.534.753-1.077.727l.377 1.315c.04.246.228.442.472.494l.036.011-.076.3-.441-.11c-.469-.119-.605-.33-.702-.715l-.34-1.333-.522-.133-.348 1.377.399.101-.077.3-1.482-.363.071-.315zm4.41-2.269l-.286-.036.038-.31 1.486.183-.04.309-.474-.06.326 1.723.235 1.344h.027l.565-1.244.73-1.589-.474-.06.038-.307 1.181.147-.038.308-.288-.035-1.64 3.384-.642-.082zm3.431 3.629l.41.013.09-3.249-.411-.013.009-.309 1.53.042v.311l-.413-.01-.089 3.246.41.013-.009.31-1.527-.043zm2.111-1.552c-.088-1.29.592-2.048 1.523-2.11.478-.032.795.135.912.339h.03l-.025-.331.547-.036.079 1.178-.538.036-.018-.27c-.024-.364-.352-.59-.857-.555-.66.043-.939.536-.893 1.21l.06.91c.05.741.488 1.123 1.137 1.08.461-.024.856-.336.985-.779l.28.12a1.487 1.487 0 01-1.369 1.091c-1.07.07-1.773-.703-1.853-1.883m3.985 1.314l.404-.078-.612-3.193-.405.078-.059-.305 3-.573.182.971-.531.1-.12-.63-1.371.261.253 1.324.912-.182-.075-.382.383-.072.211 1.1-.383.072-.072-.38-.912.173.281 1.465 1.425-.27-.136-.71.53-.1.2 1.046-3.053.582zm4.351-.969h-.026l.099.313-.515.162-.342-1.078.514-.162.075.232c.113.364.43.493.96.326.562-.182.73-.504.613-.88-.106-.333-.328-.45-.822-.41l-.292.023c-.75.061-1.298-.122-1.511-.798-.193-.61.153-1.177.911-1.415.425-.135.742-.055.9.107l.03-.01-.091-.292.514-.161.332 1.052-.514.162-.073-.233c-.115-.363-.418-.467-.943-.301-.492.154-.649.47-.547.789.102.318.365.438.903.402l.266-.026c.747-.055 1.265.142 1.458.762.208.656-.13 1.285-.957 1.545-.436.144-.778.06-.942-.109m3.384-2.891c-.579-1.156-.247-2.116.59-2.532.426-.213.785-.182.97-.039l.023-.012-.15-.297.484-.242.53 1.057-.483.242-.122-.244c-.16-.322-.547-.407-1.004-.182-.59.295-.659.857-.356 1.455l.407.809c.333.663.886.847 1.467.556a1.08 1.08 0 00.607-1.09h.305a1.48 1.48 0 01-.837 1.54c-.95.48-1.902.03-2.43-1.02m5.855-2.821l-.527-.784c-.408-.608-.988-.754-1.505-.409-.518.346-.597.944-.196 1.557l.527.784c.409.609.988.754 1.506.409.518-.346.603-.942.195-1.557m-2.616 1.186c-.702-1.046-.492-2.08.385-2.668.877-.587 1.918-.385 2.62.662.701 1.048.492 2.08-.385 2.668-.877.587-1.916.383-2.62-.662m4.545-1.106l.302-.276-2.187-2.402-.305.278-.22-.225.895-.815 2.2.91.022-.019-.698-2.276.882-.804.21.23-.305.276 2.197 2.4.304-.277.21.23-1.13 1.027-.21-.23.305-.276-1.975-2.158-.021.018.233.667.61 2.139-1.97-.797-.73-.323-.02.02 1.975 2.158.304-.276.21.229-.886.807zm3.828-3.574l.255-.324-2.563-2-.255.322-.244-.191.749-.95 2.322.535.017-.021-1.063-2.133.74-.937.244.192-.255.323 2.561 2 .255-.322.245.191-.946 1.2-.24-.192.256-.322-2.304-1.808-.017.022.34.618.947 2.019-2.074-.464-.77-.202-.016.022 2.303 1.807.255-.322.244.182-.742.942zm3.099-4.143l.215-.348-2.778-1.698-.215.349-.266-.162.798-1.3.266.162-.208.354 2.778 1.698.216-.349.266.162-.8 1.3zm1.404-2.415l-.012.025.294.144-.239.483-1.017-.502.239-.483.219.109c.339.167.654.03.9-.466.263-.527.144-.876-.21-1.05-.315-.155-.546-.075-.867.309l-.182.223c-.476.584-.987.851-1.625.537-.574-.284-.745-.926-.393-1.637.196-.398.475-.569.698-.57l.016-.03-.275-.136.239-.482.993.487-.24.482-.22-.107c-.338-.167-.626-.026-.87.467-.228.464-.108.795.19.942.3.147.568.045.912-.364l.166-.209c.478-.574.98-.81 1.562-.523.618.305.84.983.456 1.76-.2.401-.498.589-.734.59m1.485-3.219l-.009.027.308.11-.182.506-1.065-.385.183-.506.23.084c.364.127.654-.042.843-.562.2-.545.046-.887-.326-1.022-.328-.118-.558-.013-.828.404l-.158.242c-.409.63-.886.952-1.555.71-.6-.218-.842-.836-.57-1.581.15-.417.407-.618.63-.644l.011-.033-.286-.103.182-.506 1.039.379-.182.505-.23-.084c-.355-.129-.625.044-.813.56-.182.486-.02.802.293.91.314.107.57-.019.87-.47l.14-.225c.412-.626.885-.91 1.495-.693.647.236.943.886.647 1.698-.158.426-.434.646-.667.679m.981-2.83l.106-.396-3.15-.833-.106.397-.301-.08.392-1.473.3.078-.105.398 3.15.833.106-.398.3.08-.391 1.474zm-.108-5.115l-.933-.146c-.73-.115-1.227.21-1.324.823-.096.613.278 1.078 1.003 1.191l.933.15c.73.114 1.227-.212 1.326-.824.098-.613-.28-1.068-1.007-1.193h.002zm-.911 2.716c-1.247-.199-1.865-1.053-1.699-2.095.166-1.042 1.019-1.662 2.264-1.465 1.245.196 1.865 1.052 1.699 2.094-.166 1.042-1.02 1.662-2.264 1.466zm2.253-4.056v-.412l-3.258-.05v.408h-.31l.019-1.236 2.955-1.835v-.027l-2.613-.042v.411h-.311l.02-1.198h.312v.411l3.569.056-.01.599-3.302 2.056v.027l2.956.047v-.41h.312l-.02 1.196zM51.432 37.65l.364-.7c.2-.363.1-.7-.23-.875l-.224-.12c-.33-.182-.66-.077-.858.296l-.376.698 1.324.702zm-1.608-.857l.33-.617c.182-.341.095-.634-.215-.8l-.215-.114c-.31-.166-.604-.077-.786.267l-.332.616 1.218.648zm1.105 1.852l.195-.363-2.875-1.531-.193.364-.276-.148.937-1.73c.365-.69.896-.87 1.371-.615.41.215.594.702.427 1.133l.024.012c.235-.352.74-.687 1.276-.396.588.313.729.909.388 1.558l-1 1.864-.274-.148zm.949-5.135l.42-.588a.544.544 0 00-.126-.838l-.226-.16a.548.548 0 00-.835.154l-.42.587 1.187.844zm.791 1.93l.24-.335-2.655-1.885-.239.335-.253-.182 1.165-1.637c.448-.627.982-.745 1.54-.349.44.313.507.77.285 1.264l1.363.125a.608.608 0 00.634-.256l.022-.03.254.18-.265.365c-.28.392-.526.441-.922.392l-1.367-.167-.312.436 1.158.826.238-.335.254.182-.886 1.253-.254-.182zm2.255-3.05l.272-.308-2.457-2.137-.27.311-.235-.205 1.004-1.156.235.203-.27.31 2.456 2.136.27-.311.235.205-1.004 1.15zm1.798-1.983l.38-.363-2.218-2.335-.627.591.445.467-.392.364-.67-.706 2.551-2.407.682.718-.392.364-.445-.467-.625.59 2.219 2.337.379-.364.213.226-1.276 1.2zm2.144-1.94l.324-.25-2.005-2.566-.326.253-.183-.246 1.207-.936.182.245-.324.251 2.005 2.566.325-.253.191.245-1.205.937zm1.996-1.517l-.022.014.182.276-.456.29-.612-.952.454-.29.131.205c.204.318.547.363 1.014.063.495-.316.574-.676.364-1.009-.182-.294-.434-.347-.911-.182l-.274.097c-.709.256-1.276.222-1.67-.377-.344-.545-.16-1.174.51-1.601.364-.24.7-.246.892-.131l.03-.018-.165-.259.454-.29.598.929-.454.29-.133-.205c-.204-.318-.523-.344-.986-.047-.463.296-.505.625-.324.909.18.283.463.329.977.153l.25-.095c.707-.247 1.257-.19 1.61.355.364.58.21 1.272-.52 1.741-.383.246-.735.26-.94.133m2.192-1.399l.364-.18-1.385-2.94-.365.18-.133-.28 1.384-.65.133.282-.365.182.6 1.272 1.59-.745-.6-1.273-.365.182-.133-.28 1.384-.65.133.283-.374.182 1.386 2.94.364-.182.133.282-1.383.647-.133-.28.364-.182-.64-1.355-1.59.744.639 1.355.365-.182.13.282-1.383.649zm4.317-5.348l-.28.074-.08-.29 1.446-.384.08.3-.463.122.952 1.474.729 1.157h.027l.055-1.362.086-1.751-.463.123-.08-.3 1.15-.305.08.3-.28.075-.252 3.732-.624.166zm4.28 2.288l.406-.066-.532-3.206-.405.066-.05-.306 1.507-.249.05.307-.406.068.533 3.205.404-.067.051.307-1.507.247zm2.856-2.17l.73-.047a.547.547 0 00.57-.626l-.018-.276a.546.546 0 00-.65-.546l-.72.048.088 1.447zm-.997 1.835l.41-.028-.211-3.232-.41.025-.02-.31 2.005-.132c.77-.05 1.201.29 1.245.97.036.545-.275.88-.8 1.02l.765 1.132a.609.609 0 00.602.327h.038l.02.311-.454.03c-.483.032-.678-.128-.89-.464l-.728-1.162-.538.034.093 1.417.412-.028.02.311-1.526.1-.033-.321zm3.757-1.855c.084-1.29.868-1.95 1.894-1.885.565.036.87.256.95.461h.03l.02-.332.546.034-.087 1.18-.538-.033.016-.254c.026-.395-.266-.646-.842-.684-.755-.047-1.132.364-1.181 1.115l-.057.896c-.047.727.308 1.187.923 1.226.555.036.911-.237.936-.695l.033-.52-.632-.042.02-.309 1.66.106-.02.31-.318-.02-.103 1.593-.25-.016-.287-.556h-.028c-.11.252-.521.57-1.11.534-1.01-.06-1.653-.869-1.575-2.109m3.899 1.953l.405.067.547-3.204-.405-.069.051-.305 1.51.253-.053.307-.405-.07-.547 3.206.407.067-.051.308-1.51-.255zm1.863.267l.396.11.882-3.128-.395-.111.083-.3 1.195.334 1.022 3.319h.027l.708-2.51-.396-.11.084-.3 1.156.325-.084.298-.396-.098-.966 3.427-.58-.161-1.148-3.71h-.027l-.8 2.84.395.111-.084.299-1.156-.324zm5.198 1.667l.364.17 1.34-2.962-.374-.17.128-.283 1.393.627-.128.284-.374-.17-1.34 2.962.374.17-.127.283-1.39-.627zm2.28 1.053l-.024-.013-.162.284-.47-.264.56-.985.468.265-.12.211c-.183.33-.068.651.417.924s.868.182 1.063-.153c.173-.304.106-.545-.261-.88l-.215-.196c-.556-.506-.797-1.03-.447-1.648.316-.554.967-.69 1.66-.301.388.218.546.505.533.727l.03.016.149-.265.47.265-.547.962-.47-.265.12-.213c.183-.33.06-.624-.419-.893-.45-.254-.79-.153-.953.138-.164.291-.077.562.32.933l.201.182c.547.507.757 1.018.438 1.584-.34.6-1.032.783-1.787.363-.395-.236-.567-.542-.554-.778m2.274 1.324l.333.24 1.907-2.637-.334-.24.182-.25 1.238.892-.182.251-.334-.24-1.888 2.605 1.017.728.424-.584.436.315-.625.863-2.37-1.703zm4.15 1.629l.899.827.774-1.71-.021-.017-1.652.9zm-1.657.156l.211.195 3.346-1.764.494.455-1.5 3.465.212.196-.211.228-1.094-1.011.212-.23.35.324.39-.887-1.045-.97-.847.465.352.323-.212.235-.87-.802.212-.222zm2.845 2.615l.261.316 2.518-2.064-.268-.321.24-.199.788.955-1.061 3.305.016.02 2.02-1.654-.262-.317.24-.198.764.926-.24.198-.263-.31-2.747 2.259-.381-.464 1.183-3.698-.018-.02-2.285 1.873.261.316-.24.198-.762-.925zm3.242 4.18l.275.45c.396.65.948.775 1.604.377l.73-.438c.654-.398.796-.946.4-1.595l-.275-.45-2.734 1.656zm-.61-.935l.214.351 2.784-1.69-.214-.352.265-.162.911 1.493c.547.91.381 1.913-.702 2.571-1.082.658-2.061.347-2.608-.556l-.912-1.493.263-.162zm2.265 3.898l-.013-.025-.299.134-.22-.49 1.035-.464.22.49-.224.1c-.344.155-.44.484-.211.99.24.536.587.667.948.505.319-.143.408-.378.311-.863l-.056-.286c-.148-.727-.03-1.298.618-1.59.583-.26 1.19.014 1.515.737.182.406.14.728 0 .91l.014.029.28-.124.22.49-1.014.445-.22-.491.222-.1c.347-.155.417-.466.193-.968-.213-.47-.546-.587-.85-.45-.305.136-.395.407-.296.94l.056.26c.143.727 0 1.272-.587 1.536-.629.282-1.296.02-1.651-.77-.186-.414-.148-.761.009-.945"/></g></svg>