<svg xmlns="http://www.w3.org/2000/svg" xmlns:xlink="http://www.w3.org/1999/xlink" width="58" height="59" viewBox="0 0 58 59" aria-labelledby="fsc-icon-title">
    <title id='fsc-icon-title'>FSC icon</title>
    <defs>
        <path id="a" d="M.08 22.07c0 12.174 9.895 22.043 22.1 22.043 12.206 0 22.101-9.869 22.101-22.043S34.386.027 22.181.027C9.974.027.08 9.897.08 22.07z"/>
        <path id="c" d="M.08 22.07c0 12.174 9.895 22.043 22.1 22.043 12.206 0 22.101-9.869 22.101-22.043S34.386.027 22.181.027C9.974.027.08 9.897.08 22.07z"/>
    </defs>
    <g fill="none" fill-rule="evenodd">
        <g transform="translate(6.797 7.035)">
            <mask id="b" fill="#fff">
                <use xlink:href="#a"/>
            </mask>
            <path fill="#85ACB0" d="M45.563 22.948l-14.157 6.64-2.542 15.396-10.706-11.379-15.465 2.346 7.54-13.67L3.217 8.334l15.367 2.929L29.713.298l1.956 15.481z" mask="url(#b)"/>
        </g>
        <g transform="translate(6.797 7.035)">
            <mask id="d" fill="#fff">
                <use xlink:href="#c"/>
            </mask>
            <path fill="#85ACB0" d="M40.58 7.166l-6.724 14.088 7.822 13.511-15.51-2.024-10.467 11.597-2.862-15.341-14.292-6.344 13.742-7.455L13.923-.32l11.355 10.73z" mask="url(#d)"/>
        </g>
        <g>
            <path fill="#85ACB0" d="M28.977 9.194c10.996 0 19.91 8.891 19.91 19.859 0 10.967-8.914 19.858-19.91 19.858s-19.91-8.89-19.91-19.858 8.914-19.859 19.91-19.859"/>
            <path fill="#F4F4F4" d="M48.512 29.053c0 10.76-8.746 19.483-19.535 19.483-10.788 0-19.534-8.723-19.534-19.483S18.19 9.569 28.977 9.569c10.789 0 19.535 8.723 19.535 19.484z"/>
            <path fill="#85ACB0" d="M28.977 51.148c-12.205 0-22.1-9.869-22.1-22.043s9.895-22.043 22.1-22.043c12.206 0 22.1 9.87 22.1 22.043 0 12.175-9.894 22.043-22.1 22.043m0-50.332C13.342.816.667 13.458.667 29.053c0 15.595 12.675 28.238 28.31 28.238 15.636 0 28.312-12.643 28.312-28.238C57.289 13.458 44.613.816 28.977.816"/>
            <path stroke="#85ACB0" stroke-width=".5" d="M28.977.226C44.94.226 57.88 13.132 57.88 29.053c0 15.92-12.94 28.826-28.902 28.826C13.015 57.88.076 44.973.076 29.053S13.016.226 28.977.226z"/>
            <g fill="#85ACB0">
                <path d="M37.53 46.573c-.057-.697-.905-1.94-1.455-2.297-1.275-.824-2.719-1.177-4.192-1.377-2.646-.362-5.286-.29-7.867.452-1.015.292-2.023.648-2.748 1.46-.267.301-.636 1.443-.69 1.836-.048.354.888.603 1.46.904l3.314.872c2.317.337 4.67.333 6.986-.012l3.26-.863c.64-.301 1.966-.603 1.933-.975"/>
                <path d="M23.756 25.738c-.018-.74.302-1.26.856-1.687 2.91-1.226 5.817-1.234 8.726 0 .577.411.793.958.906 1.672.348 2.26 1.449 13.408 1.705 15.742l.127 1.786c-.048.012-.107.043-.119.03-3.587-2.026-9.83-1.93-13.692-.152-.175.092-.382.232-.36-.141.01-.26 1.863-16.787 1.85-17.25M22.662 24.746v-.014c-.006.01-.007.014 0 .014"/>
            </g>
            <path fill="#FFF" d="M34.82 34.331v-5.875c0-1.157.806-1.639 2.321-1.646.337.007 1.95.007 3.086.007h3.12v1.401c0 .497-.104.677-.637.664-1.616.008-4.77.008-5.024.008-.96 0-1.064.274-1.069 1.235 0 .879 0 1.757-.012 2.635 0 .38.073.784.512.848.245 0 3.912-.013 5.572 0 .453-.007.67.151.658.603 0 1.145.086 1.356-1.724 1.356-1.662-.008-3.28.029-4.864 0-1.287-.05-1.94-.252-1.94-1.236"/>
            <path stroke="#85ACB0" stroke-width=".5" d="M34.82 34.331v-5.875c0-1.157.806-1.639 2.321-1.646.337.007 1.95.007 3.086.007h3.12v1.401c0 .497-.104.677-.637.664-1.616.008-4.77.008-5.024.008-.96 0-1.064.274-1.069 1.235 0 .879 0 1.757-.012 2.635 0 .38.073.784.512.848.245 0 3.912-.013 5.572 0 .453-.007.67.151.658.603 0 1.145.086 1.356-1.724 1.356-1.662-.008-3.28.029-4.864 0-1.287-.05-1.94-.252-1.94-1.236z"/>
            <path fill="#FFF" d="M16.702 32.218v2.312c0 1.046 0 1.046-1.232 1.041-.28 0-.56 0-.839-.007V28.99c0-.918.591-2.177 2.07-2.177 1.527 0 2.607.018 4.134 0 .604-.008 1.383 0 1.981 0 .395 0 .802.061.736.63v1.405c-1.927 0-4.003 0-5.93.013-.22 0-.509 0-.662.132-.425.3-.453.863 0 1.218.218.043.44.064.662.065 1.609.01 2.956 0 4.563 0 .994 0 .994.219.986.941 0 .204.008.428.008.651 0 .347-.261.351-.556.351h-5.256c-.22.011-.405-.001-.665-.001"/>
            <path stroke="#85ACB0" stroke-width=".5" d="M16.702 32.218v2.312c0 1.046 0 1.046-1.232 1.041-.28 0-.56 0-.839-.007V28.99c0-.918.591-2.177 2.07-2.177 1.527 0 2.607.018 4.134 0 .604-.008 1.383 0 1.981 0 .395 0 .802.061.736.63v1.405c-1.927 0-4.003 0-5.93.013-.22 0-.509 0-.662.132-.425.3-.453.863 0 1.218.218.043.44.064.662.065 1.609.01 2.956 0 4.563 0 .994 0 .994.219.986.941 0 .204.008.428.008.651 0 .347-.261.351-.556.351h-5.256c-.22.011-.405-.001-.665-.001z"/>
            <path fill="#FFF" d="M29.906 26.87c1.142 0 2.282.016 3.423-.01.426-.008.548.127.548.55 0 1.448.017 1.448-1.462 1.448h-5.166a3.01 3.01 0 0 0-.386 0c-.446.058-.824.252-.789.754.032.452.373.637.82.634 1.464-.008 2.93-.044 4.391 0a2.652 2.652 0 0 1 2.606 2.697 2.644 2.644 0 0 1-.372 1.303c-.498.85-1.248 1.355-2.265 1.364-2.266.014-4.52 0-6.78.019-.368 0-.468-.116-.478-.476-.044-1.55-.056-1.55 1.467-1.55h5.553c.434-.03.795-.236.798-.676 0-.473-.35-.702-.828-.699-1.442.008-2.885.029-4.326.017-1.197-.01-2.076-.654-2.504-1.775-.633-1.657.622-3.552 2.394-3.59 1.118-.024 2.237 0 3.356 0v-.01z"/>
            <path stroke="#85ACB0" stroke-width=".5" d="M29.906 26.87c1.142 0 2.282.016 3.423-.01.426-.008.548.127.548.55 0 1.448.017 1.448-1.462 1.448h-5.166a3.01 3.01 0 0 0-.386 0c-.446.058-.824.252-.789.754.032.452.373.637.82.634 1.464-.008 2.93-.044 4.391 0a2.652 2.652 0 0 1 2.606 2.697 2.644 2.644 0 0 1-.372 1.303c-.498.85-1.248 1.355-2.265 1.364-2.266.014-4.52 0-6.78.019-.368 0-.468-.116-.478-.476-.044-1.55-.056-1.55 1.467-1.55h5.553c.434-.03.795-.236.798-.676 0-.473-.35-.702-.828-.699-1.442.008-2.885.029-4.326.017-1.197-.01-2.076-.654-2.504-1.775-.633-1.657.622-3.552 2.394-3.59 1.118-.024 2.237 0 3.356 0v-.01z"/>
            <g fill="#85ACB0">
                <path d="M23 24.057s.017-.334.676-.753c2.095-1.348 8.86-1.573 10.724 0 .453.476.536.753.536.753l.17-1.32s-1.093-1.935-5.988-1.935c-4.852 0-6.117 1.795-6.117 1.795l-.002 1.46z"/>
                <path d="M23.94 21.855v-1.742s1.307-1.61 5.392-1.48c4.006.13 4.672 1.6 4.672 1.6v1.569s-.131-.615-.532-.815c-3.06-1.528-6.365-1.156-8.811.047a1.905 1.905 0 0 0-.72.82"/>
                <path d="M27.513 14.408c.117 0 .212.095.212.213v4.176a.212.212 0 1 1-.424 0V14.62c0-.118.095-.213.212-.213M30.513 14.408c.117 0 .212.095.212.213v4.176a.212.212 0 1 1-.425 0V14.62c0-.118.095-.213.213-.213"/>
                <path d="M33.132 16.463c-.25-.191-.705-1.079-4.132-1.136-3.198-.053-3.75.859-4.104 1.079-.07.045-.113.05-.113.113 0 .061.044.135.113.113.825-.463 1.662-1.11 4.104-1.079 2.057.024 2.89.229 4.102 1.187a.109.109 0 0 0 .114-.113.24.24 0 0 0-.084-.164M33.132 18.114c-.25-.191-.705-1.079-4.132-1.136-3.198-.054-3.75.859-4.104 1.079-.07.045-.113.051-.113.113 0 .062.044.134.113.113.825-.463 1.662-1.109 4.104-1.079 2.057.024 2.89.23 4.102 1.186a.107.107 0 0 0 .114-.113.238.238 0 0 0-.084-.163"/>
                <path d="M24.183 15.345c-.142-.578.546-.77.755-.913.32-.212.787-.333 1.144-.473.705-.277 1.022-.474 1.78-.508.839-.039 1.218-.018 2.2-.018.906.064 1.498.422 1.784.537.39.15.84.345 1.164.462.384.139.988.413.731.913-.15.301-.382.518-.202.487.252-.044.604-.741.71-.969.134-.301-.295-.58-.946-.893-.69-.321-1.398-.598-2.122-.83-.785-.256-1.267-.553-1.75-1.073-.102-.108-.2-.452-.517-.452-.133 0-.388.347-.465.452-.408.565-1.13.84-1.76 1.09-.672.266-1.36.487-2.004.83-.361.194-.733.472-.79.876-.043.301.15.847.415.985.088-.164-.087-.345-.127-.503M33.545 15.832c.25-.142.604-.741.71-.969"/>
            </g>
            <path fill="#FFF" d="M2.49 28.253v.34l2.701-.027v-.34h.259l.025 2.522-.82.009v-.452h.535l-.012-1.154-1.189.012v.767h.323v.322l-.93.009v-.32h.322v-.768l-1.198.012v.442l-.263-.006-.015-1.365zM2.577 31.332l.035.337 2.685-.277-.033-.339.257-.025.131 1.256-.257.027-.036-.339-2.684.28.035.337-.257.027-.13-1.257zM2.744 33.164l.073.333 2.64-.562-.07-.333.251-.054.215 1.002-2.045 2.029v.023l2.114-.452-.07-.333.252-.053.206.97-.252.054-.07-.333-2.893.615-.097-.484 2.285-2.27v-.023l-2.397.51.067.337-.252.053-.209-.97zM4.81 37.22l.342.95 1.226-.96v-.02l-1.567.03zM3.534 36.7l.08.226 3.136-.018.187.523-2.427 1.97.081.226-.248.086-.418-1.163.243-.086.133.37.627-.5-.396-1.104-.8.018.133.373-.244.085-.33-.92.243-.086zM4.765 40.047l.151.301 2.402-1.236-.151-.302.23-.119.474.904-1.428 2.5.011.02 1.921-.998-.15-.302.229-.119.453.88-.228.12-.151-.302-2.622 1.363-.231-.44 1.593-2.797-.01-.021-2.174 1.13.151.3-.228.12-.453-.881zM7.706 42.655c.878-.616 1.707-.463 2.152.169.229.324.247.619.152.788l.013.018.225-.159.258.365-.803.563-.257-.364.184-.13c.245-.172.266-.501.026-.843-.316-.452-.785-.433-1.245-.11l-.614.43c-.505.356-.588.829-.277 1.269.215.316.607.46.976.36l.035.25a1.234 1.234 0 0 1-1.369-.494c-.506-.717-.255-1.552.544-2.112M8.483 45.993l.222.26 2.05-1.751-.221-.26.196-.166.823.96-.196.166-.22-.257-2.052 1.75.222.258-.196.167-.826-.96zM10.93 47.177l.732.7.668-1.405-.017-.016-1.382.721zm-1.377.103l.174.166 2.799-1.405.402.386-1.296 2.847.173.166-.18.185-.893-.855.18-.186.285.275.337-.73-.848-.81-.71.372.286.273-.178.187-.709-.678.178-.193zM12.156 49.704l.272.203 1.619-2.154-.272-.205.151-.205 1.014.753-.152.207-.273-.205-1.602 2.133.833.622.36-.477.356.268-.53.705L12 49.904zM15.962 52.272l-.02-.01-.128.24-.394-.21.44-.827.395.208-.095.179c-.151.276-.042.54.365.753.431.23.724.139.878-.15.136-.256.074-.452-.236-.724l-.182-.158c-.472-.407-.682-.834-.405-1.356.248-.466.785-.593 1.367-.284.325.171.462.405.453.59l.024.012.12-.223.394.21-.43.807-.395-.21.095-.177c.151-.277.035-.518-.367-.73-.402-.213-.657-.109-.787.133-.13.243-.051.469.286.766l.17.143c.465.407.65.827.396 1.302-.267.503-.837.67-1.471.334-.33-.172-.477-.422-.473-.618M18.169 53.423l.317.124.982-2.508-.317-.124.093-.24 2.356.916-.302.763-.417-.163.195-.496-1.078-.418-.406 1.039.717.279.116-.302.302.118-.335.862-.302-.118.118-.301-.718-.279-.453 1.153 1.121.435.218-.556.416.161-.321.823-2.4-.934zM22.443 53.374l.58.15a.453.453 0 0 0 .604-.348l.058-.223a.452.452 0 0 0-.372-.602l-.581-.151-.289 1.174zm-1.258 1.19l.33.083.665-2.61-.329-.084.062-.249 1.613.407c.621.15.872.532.733 1.08-.109.433-.443.624-.893.603l.313 1.09a.504.504 0 0 0 .391.409l.03.009-.063.248-.366-.091c-.388-.099-.501-.273-.581-.592l-.281-1.105-.434-.11-.288 1.14.33.085-.063.249-1.228-.302.06-.26zM24.839 52.684l-.237-.03.031-.257 1.231.151-.033.256-.393-.05.27 1.429.196 1.113h.022l.469-1.03.604-1.317-.393-.05.032-.255.978.122-.031.255-.239-.029-1.36 2.804-.53-.068zM27.681 55.69l.34.011.076-2.692-.342-.01.008-.257 1.267.035v.258l-.341-.01-.074 2.691.34.01-.008.257-1.266-.035zM29.43 54.404c-.072-1.068.491-1.696 1.263-1.748.396-.027.659.112.755.28h.025l-.02-.274.453-.03.065.977-.446.03-.015-.225c-.02-.301-.291-.488-.71-.46-.546.037-.777.445-.74 1.004l.05.753c.042.615.405.931.943.895a.897.897 0 0 0 .815-.645l.233.1c-.141.515-.6.88-1.134.904-.887.057-1.47-.583-1.537-1.561M32.732 55.493l.336-.065-.508-2.645-.335.065-.049-.253 2.485-.475.151.805-.44.083-.1-.523-1.135.217.21 1.096.755-.15-.062-.317.318-.06.175.912-.318.06-.06-.315-.755.143.233 1.214 1.18-.224-.113-.588.44-.082.166.866-2.53.482zM36.338 54.69h-.022l.082.26-.426.133-.284-.893.426-.134.062.193c.094.301.356.408.796.27.465-.151.604-.418.508-.73-.088-.275-.272-.372-.682-.339l-.241.019c-.621.05-1.076-.101-1.253-.662-.16-.505.127-.975.756-1.172.352-.112.614-.045.744.089l.026-.009-.075-.241.425-.134.275.872-.426.134-.06-.193c-.095-.301-.346-.387-.78-.25-.409.128-.539.39-.454.654.084.264.302.363.748.333l.22-.021c.62-.045 1.048.117 1.209.631.172.544-.108 1.065-.793 1.28-.362.12-.646.05-.781-.09M39.142 52.295c-.48-.958-.205-1.754.488-2.099.354-.176.651-.15.804-.031l.02-.01-.124-.246.4-.2.44.875-.4.2-.102-.202c-.133-.267-.453-.337-.832-.15-.49.243-.546.709-.295 1.205l.337.67c.276.55.734.702 1.216.46a.894.894 0 0 0 .503-.903h.252a1.227 1.227 0 0 1-.693 1.276c-.787.398-1.576.026-2.014-.845M43.994 49.958l-.437-.65c-.338-.504-.818-.624-1.247-.338-.43.286-.494.782-.162 1.29l.437.649c.338.505.818.625 1.247.339.43-.286.5-.78.162-1.29m-2.168.983c-.581-.867-.407-1.724.32-2.21.726-.487 1.588-.32 2.17.548.581.868.407 1.723-.319 2.21-.727.487-1.588.318-2.17-.548M45.592 50.025l.25-.23-1.812-1.99-.252.231-.183-.187.742-.675 1.823.754.018-.016-.579-1.886.732-.666.173.19-.252.23 1.82 1.988.252-.23.174.19-.936.852-.174-.19.252-.229-1.636-1.788-.018.015.193.553.506 1.771-1.632-.66-.604-.267-.017.016 1.636 1.788.252-.229.174.19-.734.669zM48.764 47.063l.211-.268-2.123-1.657-.212.266-.202-.158.62-.788 1.925.444.013-.017-.88-1.768.613-.776.202.159-.211.268 2.122 1.657.212-.267.202.159-.784.994-.198-.16.212-.266-1.91-1.498-.013.018.28.512.786 1.673-1.719-.385-.637-.167-.014.018 1.908 1.498.212-.267.202.15-.615.78zM51.332 43.631l.178-.29-2.302-1.406-.178.289-.22-.134.66-1.077.221.134-.172.294 2.302 1.407.178-.29.22.135-.662 1.077zM52.495 41.629l-.01.021.244.12-.198.4-.843-.416.198-.4.181.09c.281.138.542.025.746-.386.218-.437.12-.726-.173-.87-.262-.129-.454-.063-.72.255l-.15.186c-.395.483-.818.705-1.346.444-.476-.235-.618-.767-.326-1.356.163-.33.394-.471.578-.473l.014-.024-.228-.113.197-.4.824.405-.2.399-.181-.09c-.281-.138-.52-.02-.722.388-.189.384-.09.658.159.78.247.122.47.038.755-.3l.137-.174c.396-.476.811-.672 1.295-.434.512.253.696.815.377 1.458-.166.333-.412.488-.608.49M53.725 38.961l-.007.022.255.092-.15.42-.883-.32.151-.419.19.07c.303.105.543-.035.7-.466.166-.452.037-.735-.27-.847-.272-.098-.463-.01-.686.335l-.132.2c-.338.523-.734.79-1.288.59-.497-.182-.698-.694-.473-1.312.125-.345.338-.512.523-.533l.009-.027-.237-.086.15-.419.862.314-.151.418-.19-.069c-.295-.107-.519.036-.674.464-.151.402-.017.665.243.753.26.09.471-.015.72-.388l.117-.187c.34-.518.732-.753 1.238-.574.536.196.781.734.536 1.407-.131.352-.36.535-.553.562M54.538 36.617l.088-.329-2.61-.69-.088.329-.25-.066.326-1.22.249.064-.088.33 2.61.69.088-.33.25.066-.326 1.222zM54.449 32.379l-.773-.122c-.605-.095-1.017.175-1.097.683-.08.507.23.893.83.986l.774.124c.604.095 1.017-.175 1.098-.683.082-.507-.232-.884-.834-.988h.002zm-.755 2.25c-1.033-.165-1.545-.873-1.408-1.736.138-.863.845-1.377 1.876-1.214 1.032.162 1.545.872 1.408 1.735-.138.863-.845 1.377-1.876 1.214zM55.56 31.267v-.34l-2.698-.042v.339h-.257l.015-1.025 2.448-1.52v-.022l-2.164-.035v.34h-.258l.016-.992h.258v.34l2.958.047-.008.495-2.737 1.704v.023l2.45.039v-.34h.259l-.017.99zM7.815 18.045l.302-.58c.166-.302.083-.582-.19-.726l-.186-.1c-.273-.15-.547-.063-.712.246l-.31.578 1.096.582zm-1.332-.711l.273-.511c.151-.283.079-.526-.178-.663l-.178-.095c-.257-.137-.5-.063-.651.222l-.275.51 1.009.537zm.915 1.535l.162-.301-2.382-1.269-.16.301-.228-.122.776-1.434c.302-.57.742-.72 1.136-.51.34.179.492.583.353.94l.02.01c.195-.292.613-.57 1.057-.328.488.259.604.753.322 1.29l-.828 1.545-.228-.122zM8.185 14.613l.347-.487a.451.451 0 0 0-.104-.694l-.187-.133a.454.454 0 0 0-.692.128l-.347.487.983.699zm.655 1.6l.198-.277-2.199-1.563-.198.278-.21-.151.965-1.356c.372-.52.815-.618 1.277-.29.364.26.42.638.235 1.048l1.13.104a.503.503 0 0 0 .526-.213l.018-.025.21.15-.22.302c-.232.325-.436.366-.763.325l-1.133-.138-.258.361.959.684.198-.277.21.15-.735 1.039-.21-.151zM10.709 13.687l.225-.257-2.036-1.77-.224.258-.195-.17.833-.958.195.168-.224.256 2.035 1.77.223-.257.195.17-.832.952zM12.198 12.043l.314-.301-1.836-1.935-.52.49.369.387-.325.301-.556-.584 2.115-1.995.565.595-.325.302-.369-.388-.518.49 1.838 1.936.315-.301.176.186-1.057.995zM13.974 10.435l.27-.207-1.662-2.126-.27.21-.152-.204 1-.776.151.203-.269.208 1.662 2.126.269-.21.158.204-.998.776zM15.628 9.178l-.018.012.151.229-.377.24-.508-.789.376-.24.109.17c.17.263.453.3.84.052.41-.262.476-.56.302-.836-.151-.244-.36-.288-.755-.15l-.227.08c-.587.212-1.057.183-1.383-.313-.286-.452-.133-.973.42-1.327.303-.199.582-.203.741-.108l.024-.015-.136-.214.376-.241.496.77-.376.24-.11-.17c-.17-.263-.434-.284-.818-.039-.383.246-.418.518-.269.753.15.235.384.273.81.127l.207-.078c.586-.205 1.042-.159 1.334.293.302.48.175 1.055-.43 1.444-.318.203-.61.215-.779.11M17.444 8.02l.302-.152-1.148-2.436-.302.151-.11-.233 1.146-.538.11.233-.302.15.497 1.055 1.317-.617-.497-1.055-.302.15-.11-.231 1.146-.538.11.234-.309.15L20.14 6.78l.302-.15.11.233-1.146.536-.11-.232.302-.15-.53-1.123-1.318.617.53 1.122.301-.15.109.233-1.146.538zM21.02 3.587l-.23.062-.067-.241 1.198-.318.066.248-.384.101.789 1.222.604.958h.023l.045-1.128.071-1.45-.384.102-.066-.249.953-.253.066.248-.23.062-.21 3.093-.517.137zM24.567 5.484l.337-.056-.441-2.656-.336.054-.042-.253 1.25-.206.041.254-.336.056.44 2.656.336-.056.042.255-1.249.205zM26.934 3.685l.604-.04a.453.453 0 0 0 .473-.518l-.015-.229a.452.452 0 0 0-.538-.451l-.597.039.073 1.199zm-.826 1.52l.34-.023-.176-2.678-.34.02-.016-.255 1.661-.11c.64-.042.996.24 1.032.803.03.452-.228.729-.663.845l.634.938a.505.505 0 0 0 .499.272h.031l.017.257-.376.024c-.4.027-.562-.105-.737-.384l-.604-.962-.446.028.077 1.174.341-.023.017.258-1.264.083-.027-.267zM29.22 3.668c.07-1.068.72-1.616 1.57-1.562.468.03.72.213.787.383h.024l.017-.276.453.029-.073.977-.445-.027.013-.21c.021-.328-.22-.535-.698-.567-.625-.04-.938.301-.978.923l-.047.743c-.04.603.255.984.764 1.015.46.03.755-.195.776-.575l.028-.43-.525-.036.017-.256 1.376.088-.016.257-.265-.016-.084 1.32-.207-.014-.239-.461h-.023c-.092.21-.432.473-.92.443-.836-.05-1.37-.72-1.304-1.748M32.451 5.286l.336.056.453-2.654-.336-.058.043-.253 1.25.21-.043.254-.336-.057-.453 2.656.337.056-.042.254-1.251-.21zM33.995 5.508l.328.092.73-2.593-.327-.092.07-.248.989.277.847 2.75h.023l.586-2.08-.328-.092.07-.248.957.27-.07.246-.327-.081-.8 2.84-.48-.134-.953-3.074h-.022l-.663 2.354.328.091-.07.248-.958-.269zM38.301 6.89l.302.14 1.11-2.455-.31-.14.107-.235 1.154.52-.106.235-.31-.14-1.11 2.454.31.14-.106.235-1.151-.52zM40.19 7.761l-.019-.01-.135.235-.39-.219.465-.816.388.22-.1.175c-.15.272-.056.539.346.765.402.226.719.15.88-.127.144-.251.088-.452-.216-.729l-.178-.162c-.46-.42-.66-.853-.37-1.365.262-.46.8-.573 1.375-.25.322.18.453.418.442.602l.025.014.123-.22.39.22-.453.797-.39-.22.1-.176c.15-.273.05-.517-.347-.74-.374-.211-.655-.127-.79.114-.136.241-.064.466.265.773l.166.15c.454.421.627.844.363 1.313-.281.497-.855.65-1.48.301-.328-.196-.47-.449-.46-.645M42.074 8.858l.277.199 1.58-2.184-.277-.2.151-.207 1.026.74-.151.207-.277-.198-1.564 2.158.842.603.352-.484.361.261-.518.716-1.963-1.412zM45.513 10.208l.745.685.642-1.416-.018-.015-1.369.746zm-1.373.13l.176.16 2.771-1.46.41.376-1.242 2.871.175.163-.175.188-.906-.837.175-.19.29.268.323-.735-.865-.804-.703.385.292.268-.175.195-.72-.665.174-.183zM46.498 12.504l.216.262 2.086-1.71-.222-.266.2-.165.652.791-.88 2.739.014.017 1.674-1.371-.218-.262.2-.165.633.767-.2.164-.217-.256-2.276 1.871-.316-.384.98-3.064-.015-.017-1.892 1.552.216.262-.2.164-.631-.766zM49.184 15.967l.228.374c.328.538.785.642 1.329.312l.604-.363c.542-.33.66-.784.332-1.322l-.228-.373-2.265 1.372zm-.505-.774l.177.29 2.306-1.4-.176-.291.219-.134.755 1.237c.453.753.316 1.585-.582 2.13-.897.545-1.708.288-2.161-.461l-.755-1.237.217-.134zM50.555 18.423l-.01-.021-.248.111-.183-.406.858-.385.183.407-.186.083c-.285.128-.364.4-.175.82.2.444.486.552.785.418.264-.119.339-.313.258-.715l-.046-.237c-.123-.602-.026-1.075.512-1.318.483-.215.986.012 1.255.612.151.336.116.602 0 .753l.012.024.231-.102.183.405-.84.369-.183-.407.184-.083c.288-.128.346-.385.16-.801-.176-.39-.452-.487-.705-.374-.252.113-.326.338-.244.78l.046.215c.118.602 0 1.054-.486 1.273-.521.233-1.074.016-1.368-.638-.154-.343-.123-.63.007-.783"/>
        </g>
    </g>
</svg>
