<svg width="48" height="48"><g stroke-width="2" mask="url(#b)" fill="none" fill-rule="evenodd"><g transform="rotate(40 19.869 43.9)"><path stroke="#85ACB0" stroke-linecap="round" d="M7.53 38.326c.734 0 6.555.309 7.486.135A43.02 43.02 0 0011.94 2.817L10.347 0 8.779 2.77a42.713 42.713 0 00-2.946 35.691"/><path stroke="#85ACB0" d="M5.799 38.468c-1.625.614-1.88 3.884-.767 9.81-5.077-6.051-5.611-12.16-1.603-18.325.334 1.91.636 3.347.905 4.313.269.966.757 2.367 1.465 4.202zm9.06.14c1.635.585 1.948 3.85.938 9.794 4.97-6.138 5.398-12.255 1.283-18.35-.301 1.916-.578 3.358-.83 4.329-.251.97-.715 2.38-1.391 4.227z"/><path stroke="#85ACB0" stroke-linecap="round" d="M6.606 7.65l5.963.285"/><path stroke="#FF444F" stroke-linecap="round" d="M7.525 41.399v5.024m2.664-4.928v10.06m2.98-10.156v5.024"/><circle cx="10.242" cy="17.596" r="3.414" stroke="#000"/></g></g></svg>