<svg xmlns="http://www.w3.org/2000/svg" width="96" height="29"><g fill="none" fill-rule="evenodd"><path d="M0 0h96v28.8H0z"/><path fill="#35A8E0" fill-rule="nonzero" d="M46.513 22.607H.847A.837.837 0 010 21.781v-7.717C0 9.61 3.702 6 8.269 6h38.244c.468 0 .847.37.847.826v14.988c0 .456-.38.826-.847.826v-.033z"/><path fill="#FFF" fill-rule="nonzero" d="M46.359 22.64H1c-.552 0-1-.432-1-.965v-7.57C0 9.63 3.768 6 8.415 6H46.36c.553 0 1.001.432 1.001.965v14.71c0 .533-.448.965-1.001.965zM8.399 6.39C3.97 6.393.382 9.85.378 14.112v7.57c0 .327.275.592.614.592h45.366a.625.625 0 00.434-.173.58.58 0 00.18-.418V6.973a.583.583 0 00-.18-.419.629.629 0 00-.434-.173l-37.96.008z"/><path fill="#FFF" fill-rule="nonzero" d="M16.723 13.74v6.167a.115.115 0 01-.116.115H14.15a.115.115 0 01-.117-.115.12.12 0 00-.05-.095.12.12 0 00-.109-.012 4.954 4.954 0 01-.751.173 6.265 6.265 0 01-.928.074 5.974 5.974 0 01-2.188-.453 5.675 5.675 0 01-1.93-1.26 5.497 5.497 0 01-1.26-1.868 5.786 5.786 0 010-4.322 5.457 5.457 0 011.27-1.902 5.662 5.662 0 011.929-1.26 5.924 5.924 0 014.393 0c.685.27 1.309.67 1.837 1.177a.114.114 0 010 .165l-1.729 1.704a.118.118 0 01-.083.035.119.119 0 01-.084-.035 3.012 3.012 0 00-.96-.6 3.218 3.218 0 00-2.372 0c-.392.15-.748.38-1.044.674a3.073 3.073 0 00-.925 2.194c0 .824.333 1.613.925 2.194.266.267.58.481.927.634a3.16 3.16 0 001.06.264c.366.027.733-.007 1.086-.1.338-.086.657-.231.944-.427a.114.114 0 00.05-.099v-.395a.115.115 0 00-.117-.115H11.83a.116.116 0 01-.117-.116v-2.395c0-.064.052-.116.117-.116h4.77a.12.12 0 01.087.031.115.115 0 01.037.085zm9.138 6.216l-.401-1.185a.118.118 0 00-.117-.083h-3.491a.12.12 0 00-.109.083l-.417 1.226a.12.12 0 01-.109.083h-2.573a.118.118 0 01-.095-.05.114.114 0 01-.013-.107l3.867-11.196a.118.118 0 01.109-.083h2.355a.117.117 0 01.117.083l3.667 11.196a.117.117 0 01-.015.11.118.118 0 01-.102.047h-2.556a.116.116 0 01-.117-.124zm-2.999-3.935h1.554a.116.116 0 00.117-.157l-.752-2.288a.117.117 0 00-.225 0l-.836 2.289a.115.115 0 00.142.156zM38.9 8.587h2.556c.061 0 .112.047.117.107l.668 11.213a.121.121 0 01-.031.087.122.122 0 01-.086.036h-2.44a.116.116 0 01-.116-.107l-.242-3.968a.117.117 0 00-.117-.115.116.116 0 00-.117.115l-1.37 4.001a.117.117 0 01-.108.083h-2.506a.12.12 0 01-.109-.083l-1.503-4.231a.117.117 0 00-.234 0l-.267 4.165a.117.117 0 01-.117.107H30.42a.112.112 0 01-.116-.123l.734-11.172a.117.117 0 01.117-.107h2.556a.12.12 0 01.109.083l2.405 6.767a.118.118 0 00.226 0l2.338-6.767a.117.117 0 01.109-.091z"/><path fill="#1D1D1B" fill-rule="nonzero" d="M48.218 6h46.284c.474 0 .858.37.858.828v7.732c0 4.462-3.75 8.08-8.378 8.08H48.218c-.474 0-.858-.37-.858-.828V6.795c.018-.444.397-.795.858-.795z"/><path fill="#FFF" fill-rule="nonzero" d="M87.37 22.64H48.387c-.568 0-1.028-.432-1.028-.965V6.965c0-.533.46-.965 1.028-.965h46.584C95.54 6 96 6.432 96 6.965v7.574c-.005 4.472-3.866 8.097-8.63 8.101zM48.387 6.381c-.348 0-.63.265-.63.592v14.702c0 .327.282.592.63.592H87.37c4.545-.004 8.229-3.462 8.234-7.728V6.965c0-.327-.283-.592-.631-.592l-46.584.008z"/><path fill="#FFF" fill-rule="nonzero" d="M55.139 18.794c-.37 0-.739-.05-1.095-.144a3.814 3.814 0 01-1.037-.448 3.78 3.78 0 01-1.33-1.368 3.654 3.654 0 01-.477-1.72.114.114 0 01.031-.084.122.122 0 01.086-.036h2.484c.065 0 .117.05.117.112.002.213.072.42.2.592.102.134.226.25.369.344.183.12.397.19.619.2.224.01.448-.03.652-.12a1.06 1.06 0 00.36-.224c.081-.079.151-.167.208-.264a.688.688 0 00.084-.248c.021-.13.021-.262 0-.392a.749.749 0 00-.084-.256 1.04 1.04 0 00-.209-.264 1.37 1.37 0 00-.36-.232l-.367-.136-.418-.136-.837-.272a4.686 4.686 0 01-.836-.408 3.278 3.278 0 01-.936-.8 3.2 3.2 0 01-.661-2.264c.038-.41.16-.81.36-1.175.182-.336.422-.639.71-.896a3.416 3.416 0 012.065-.864c.411-.03.824.004 1.222.104.385.085.752.23 1.087.432.317.192.6.432.836.712a3.1 3.1 0 01.686 1.847.117.117 0 01-.031.085.12.12 0 01-.086.035h-2.425a.114.114 0 01-.117-.096.478.478 0 00-.226-.384 1.802 1.802 0 00-.393-.176h-.134a.804.804 0 00-.268 0 1.016 1.016 0 00-.309.104.6.6 0 00-.25.264.648.648 0 00-.051.504c.049.172.162.32.318.416.158.085.323.157.493.216l.569.192.543.168c.184.059.371.128.56.208 1.346.566 2.217 1.835 2.225 3.24a3.403 3.403 0 01-.602 1.952 3.95 3.95 0 01-2.467 1.6 4.532 4.532 0 01-.878.08zm35.74-6.432a4.38 4.38 0 01-.367 1.792 4.634 4.634 0 01-1.029 1.472 4.976 4.976 0 01-3.278 1.392.115.115 0 00-.117.112v1.552a.114.114 0 01-.117.112h-2.433a.114.114 0 01-.117-.112V7.802c0-.061.052-.111.117-.111h2.542a4.81 4.81 0 011.865.392c.57.245 1.09.59 1.53 1.015.438.424.787.924 1.029 1.472.25.567.378 1.177.376 1.792zm-4.8 2a.11.11 0 00.038.082.119.119 0 00.088.03 2.13 2.13 0 00.703-.184c.25-.112.476-.266.669-.456a2.09 2.09 0 00.451-.664 2.03 2.03 0 000-1.6 2.102 2.102 0 00-.451-.664 2.305 2.305 0 00-.67-.456c-.22-.1-.458-.162-.702-.184-.062-.004-.117.038-.125.096v4zm-10.946-6.68a5.842 5.842 0 012.258.44 6.022 6.022 0 011.848 1.184 5.59 5.59 0 011.246 1.76 5.339 5.339 0 010 4.328 5.596 5.596 0 01-1.246 1.76c-.53.51-1.157.92-1.848 1.208a6.037 6.037 0 01-4.515 0c-1.388-.564-2.492-1.623-3.078-2.952a5.379 5.379 0 010-4.328c.586-1.329 1.69-2.387 3.078-2.951a5.846 5.846 0 012.257-.449zm0 8.552a3.16 3.16 0 001.221-.232 3.087 3.087 0 001.673-1.6 2.893 2.893 0 000-2.328 3.097 3.097 0 00-1.673-1.6 3.28 3.28 0 00-2.433 0 3.093 3.093 0 00-1.673 1.6 2.893 2.893 0 000 2.328c.32.72.92 1.295 1.673 1.6a3.16 3.16 0 001.22.232h-.008z"/><rect width="2.56" height="8.96" x="64" y="9.84" fill="#FFF" fill-rule="nonzero" rx=".162"/><rect width="7.68" height="2.56" x="61.44" y="8.56" fill="#FFF" fill-rule="nonzero" rx=".162"/></g></svg>