<svg xmlns="http://www.w3.org/2000/svg" width="231" height="145"><defs><linearGradient id="a" x1="70.949%" x2="29.182%" y1="2.91%" y2="98.028%"><stop offset="0%" stop-color="#FF6444"/><stop offset="100%" stop-color="#FF444F"/></linearGradient><linearGradient id="b" x1="97.134%" x2="3.16%" y1="46.497%" y2="53.572%"><stop offset="0%" stop-color="#FF6444"/><stop offset="100%" stop-color="#FF444F"/></linearGradient><linearGradient id="c" x1="50%" x2="50%" y1="0%" y2="100%"><stop offset="0%" stop-color="#FF6444"/><stop offset="100%" stop-color="#FF444F"/></linearGradient></defs><g fill="none" fill-rule="evenodd"><path fill="#E5E5E5" fill-rule="nonzero" d="M54.5 144.4c-18.267 0-31.8-6.333-40.6-19S.7 95 .7 72.2C.7 49.4 5.1 31.667 13.9 19 22.7 6.333 36.233 0 54.5 0c18.267 0 31.8 6.333 40.6 19s13.2 30.4 13.2 53.2c0 22.8-4.4 40.533-13.2 53.2-8.8 12.667-22.333 19-40.6 19zm0-25.4c8 0 13.533-2.933 16.6-8.8 3.067-5.867 4.6-14.133 4.6-24.8V59c0-10.667-1.533-18.933-4.6-24.8-3.067-5.867-8.6-8.8-16.6-8.8-8 0-13.533 2.933-16.6 8.8-3.067 5.867-4.6 14.133-4.6 24.8v26.4c0 10.667 1.533 18.933 4.6 24.8 3.067 5.867 8.6 8.8 16.6 8.8zm78.8 23v-24.2h37.6V24.2h-1.8l-28.4 37.2-19.2-15 33.4-44h46v115.4h29.6V142h-97.2z" opacity=".295"/><path stroke="url(#a)" stroke-width="2" d="M43 55h4l.001-6.38.5-.289A4.997 4.997 0 0050 44c0-2.782-2.176-5-4.917-5C42.3 39 40 41.258 40 44a5 5 0 002.5 4.332l.5.289V55z" transform="translate(24.7 55)"/><path stroke="url(#b)" stroke-width="2" d="M55.85 55zm0 0H32.996c-1.537 1.356-2.718 2.7-3.547 4.03-.633 1.013-.598 1.937.122 2.97H60c-.006-1.172-.24-2.177-.695-3.028-.57-1.066-1.723-2.4-3.454-3.972z" transform="translate(24.7 55)"/><path fill="url(#c)" fill-rule="nonzero" d="M48 4c1.083 0 2 .876 2 2v30c0 .562-.51 1-1 1s-.96-.438-.96-1L48 6H2v55h24a1 1 0 010 2H2c-1.083 0-2-.876-2-2V6c0-1.124.917-2 2-2zm4.96-4C54.088 0 55 .8 55 1.788v50.23c0 .494-.437.982-1 .982s-1-.488-1-.981V1.963l-47.96.016v.591c0 .494-.457.894-1.02.894-.564 0-1.02-.4-1.02-.894v-.782C3 .8 3.913 0 5.04 0zM31.978 39c.565 0 1.023.448 1.023 1s-.458 1-1.023 1H12.023A1.012 1.012 0 0111 40c0-.552.458-1 1.023-1zM31 31a1 1 0 010 2H12a1 1 0 010-2zm4.98-10c.564 0 1.02.448 1.02 1s-.456 1-1.02 1H12.02A1.01 1.01 0 0111 22c0-.552.456-1 1.02-1z" transform="translate(24.7 55)"/></g></svg>