<svg xmlns="http://www.w3.org/2000/svg" width="436" height="75" viewBox="0 0 438 75" aria-labelledby="google-icon-title">
    <title id="graph">
        Graph
    </title>
    <g fill="none" fill-rule="evenodd">
        <path d="M0 0H438V75H0z" transform="translate(-1)"/>
        <path fill="#FF444F" fill-rule="nonzero" d="M37.5 50c.276 0 .5.224.5.5V60h2c.552 0 1 .448 1 1v11c0 .552-.448 1-1 1h-2v1.5c0 .276-.224.5-.5.5s-.5-.224-.5-.5V73h-2c-.552 0-1-.448-1-1V61c0-.552.448-1 1-1h2v-9.5c0-.276.224-.5.5-.5zm143-3c.276 0 .5.224.5.5V55h2c.552 0 1 .448 1 1v3c0 .552-.448 1-1 1h-2v10.5c0 .276-.224.5-.5.5s-.5-.224-.5-.5V60h-2c-.552 0-1-.448-1-1v-3c0-.552.448-1 1-1h2v-7.5c0-.276.224-.5.5-.5zm242-1c.276 0 .5.224.5.5V53h2c.513 0 .936.386.993.883L426 54v11c0 .513-.386.936-.883.993L425 66h-2v3.5c0 .276-.224.5-.5.5s-.5-.224-.5-.5V66h-2c-.513 0-.936-.386-.993-.883L419 65V54c0-.513.386-.936.883-.993L420 53h2v-6.5c0-.276.224-.5.5-.5zm-341 0c.276 0 .5.224.5.5V59h2c.552 0 1 .448 1 1v3c0 .552-.448 1-1 1h-2v5.5c0 .276-.224.5-.5.5s-.5-.224-.5-.5V64h-2c-.552 0-1-.448-1-1v-3c0-.552.448-1 1-1h2V46.5c0-.276.224-.5.5-.5zm352-3c.276 0 .5.224.5.5V51h2c.513 0 .936.386.993.883L437 52v11c0 .513-.386.936-.883.993L436 64h-2v3.5c0 .276-.224.5-.5.5s-.5-.224-.5-.5V64h-2c-.513 0-.936-.386-.993-.883L430 63V52c0-.513.386-.936.883-.993L431 51h2v-7.5c0-.276.224-.5.5-.5zm-319 2c.276 0 .5.224.5.5V54h2c.552 0 1 .448 1 1v11c0 .552-.448 1-1 1h-5c-.552 0-1-.448-1-1V55c0-.552.448-1 1-1h2v-8.5c0-.276.224-.5.5-.5zM51 42c.552 0 1 .448 1 1v11c0 .552-.448 1-1 1h-2v10.5c0 .276-.224.5-.5.5s-.5-.224-.5-.5V55h-2c-.552 0-1-.448-1-1V43c0-.552.448-1 1-1h5zm195.5 1c.276 0 .5.224.5.5V46h2c.513 0 .936.386.993.883L250 47v11c0 .513-.386.936-.883.993L249 59h-2v5.5c0 .276-.224.5-.5.5s-.5-.224-.5-.5V59h-2c-.513 0-.936-.386-.993-.883L243 58V47c0-.513.386-.936.883-.993L244 46h2v-2.5c0-.276.224-.5.5-.5zm-121-5c.276 0 .5.224.5.5V49h2c.552 0 1 .448 1 1v3c0 .552-.448 1-1 1h-2v8.5c0 .276-.224.5-.5.5s-.5-.224-.5-.5V54h-2c-.552 0-1-.448-1-1v-3c0-.552.448-1 1-1h2V38.5c0-.276.224-.5.5-.5zm-33-7c.276 0 .5.224.5.5V38h2c.552 0 1 .448 1 1v23c0 .552-.448 1-1 1h-5c-.552 0-1-.448-1-1V39c0-.552.448-1 1-1h2v-6.5c0-.276.224-.5.5-.5zm99 5c.276 0 .5.224.5.5V40h2c.552 0 1 .448 1 1v3c0 .552-.448 1-1 1h-2v15.5c0 .276-.224.5-.5.5s-.5-.224-.5-.5V45h-2c-.552 0-1-.448-1-1v-3c0-.552.448-1 1-1h2v-3.5c0-.276.224-.5.5-.5zM304 36c.513 0 .936.386.993.883L305 37v11c0 .513-.386.936-.883.993L304 49h-2v10.5c0 .276-.224.5-.5.5s-.5-.224-.5-.5V49h-2c-.513 0-.936-.386-.993-.883L298 48V37c0-.513.386-.936.883-.993L299 36h5zm-156.5-6c.276 0 .5.224.5.5V36h2c.552 0 1 .448 1 1v11c0 .552-.448 1-1 1h-2v8.5c0 .276-.224.5-.5.5s-.5-.224-.5-.5V49h-2c-.552 0-1-.448-1-1V37c0-.552.448-1 1-1h2v-5.5c0-.276.224-.5.5-.5zm231 3c.276 0 .5.224.5.5V40h2c.513 0 .936.386.993.883L382 41v3c0 .513-.386.936-.883.993L381 45h-2v11.5c0 .276-.224.5-.5.5s-.5-.224-.5-.5V45h-2c-.513 0-.936-.386-.993-.883L375 44v-3c0-.513.386-.936.883-.993L376 40h2v-6.5c0-.276.224-.5.5-.5zM238 27c.513 0 .936.386.993.883L239 28v23c0 .513-.386.936-.883.993L238 52h-2v4.5c0 .276-.224.5-.5.5s-.5-.224-.5-.5V52h-2c-.513 0-.936-.386-.993-.883L232 51V28c0-.513.386-.936.883-.993L233 27h5zm162.5-12c.276 0 .5.224.5.5V18h2c.513 0 .936.386.993.883L404 19v32c0 .513-.386.936-.883.993L403 52h-2v2.5c0 .276-.224.5-.5.5s-.5-.224-.5-.5V52h-2c-.513 0-.936-.386-.993-.883L397 51V19c0-.513.386-.936.883-.993L398 18h2v-2.5c0-.276.224-.5.5-.5zm-187 21c.276 0 .5.224.5.5V49h2c.513 0 .936.386.993.883L217 50v1c0 .513-.386.936-.883.993L216 52h-2v.5c0 .276-.224.5-.5.5s-.5-.224-.5-.5V52h-2c-.513 0-.936-.386-.993-.883L210 51v-1c0-.513.386-.936.883-.993L211 49h2V36.5c0-.276.224-.5.5-.5zM62 35c.552 0 1 .448 1 1v3c0 .552-.448 1-1 1h-2v10.5c0 .276-.224.5-.5.5s-.5-.224-.5-.5V40h-2c-.552 0-1-.448-1-1v-3c0-.552.448-1 1-1h5zm305.5-9c.276 0 .5.224.5.5V31h2c.513 0 .936.386.993.883L371 32v11c0 .513-.386.936-.883.993L370 44h-2v5.5c0 .276-.224.5-.5.5s-.5-.224-.5-.5V44h-2c-.513 0-.936-.386-.993-.883L364 43V32c0-.513.386-.936.883-.993L365 31h2v-4.5c0-.276.224-.5.5-.5zm-110 0c.276 0 .5.224.5.5V41h2c.513 0 .936.386.993.883L261 42v3c0 .513-.386.936-.883.993L260 46h-2v3.5c0 .276-.224.5-.5.5s-.5-.224-.5-.5V46h-2c-.513 0-.936-.386-.993-.883L254 45v-3c0-.513.386-.936.883-.993L255 41h2V26.5c0-.276.224-.5.5-.5zM348 15c.513 0 .936.386.993.883L349 16v23c0 .513-.386.936-.883.993L348 40h-2v8.5c0 .276-.224.5-.5.5s-.5-.224-.5-.5V40h-2c-.513 0-.936-.386-.993-.883L342 39V16c0-.513.386-.936.883-.993L343 15h5zM202.5 30c.276 0 .5.224.5.5V37h2.5c.245 0 .45.177.492.41l.008.09c0 .245-.177.45-.41.492l-.09.008H203v8.5c0 .276-.224.5-.5.5s-.5-.224-.5-.5V38h-2.5c-.245 0-.45-.177-.492-.41L199 37.5c0-.245.177-.45.41-.492l.09-.008h2.5v-6.5c0-.276.224-.5.5-.5z" transform="translate(-1)"/>
        <path fill="#85ACB0" fill-rule="nonzero" d="M169.5 20c.276 0 .5.224.5.5V27h2c.552 0 1 .448 1 1v33c0 .552-.448 1-1 1h-2v7.5c0 .276-.224.5-.5.5s-.5-.224-.5-.5V62h-2c-.552 0-1-.448-1-1V28c0-.552.448-1 1-1h2v-6.5c0-.276.224-.5.5-.5zM106 47c.552 0 1 .448 1 1v11c0 .552-.448 1-1 1h-2v3.5c0 .276-.224.5-.5.5s-.5-.224-.5-.5V60h-2c-.552 0-1-.448-1-1V48c0-.552.448-1 1-1h5zm-33 0c.552 0 1 .448 1 1v4c0 .552-.448 1-1 1h-2v10.5c0 .276-.224.5-.5.5s-.5-.224-.5-.5V53h-2c-.552 0-1-.448-1-1v-4c0-.552.448-1 1-1h5zm316.5-11c.276 0 .5.224.5.5V40h2c.552 0 1 .448 1 1v15c0 .552-.448 1-1 1h-2v5.5c0 .276-.224.5-.5.5s-.5-.224-.5-.5V57h-2c-.552 0-1-.448-1-1V41c0-.552.448-1 1-1h2v-3.5c0-.276.224-.5.5-.5zm-385 9c.276 0 .5.224.5.5V48h2c.552 0 1 .448 1 1v11c0 .552-.448 1-1 1H5v1.5c0 .276-.224.5-.5.5s-.5-.224-.5-.5V61H2c-.552 0-1-.448-1-1V49c0-.552.448-1 1-1h2v-2.5c0-.276.224-.5.5-.5zm275 0c.276 0 .5.224.5.5V52h2c.552 0 1 .448 1 1v4c0 .552-.448 1-1 1h-2v3.5c0 .276-.224.5-.5.5s-.5-.224-.5-.5V58h-2c-.552 0-1-.448-1-1v-4c0-.552.448-1 1-1h2v-6.5c0-.276.224-.5.5-.5zM414 37c.552 0 1 .448 1 1v15c0 .552-.448 1-1 1h-2v6.5c0 .276-.224.5-.5.5s-.5-.224-.5-.5V54h-2c-.552 0-1-.448-1-1V38c0-.552.448-1 1-1h5zM15.5 2c.276 0 .5.224.5.5V11h2c.552 0 1 .448 1 1v46c0 .552-.448 1-1 1h-2v1.5c0 .276-.224.5-.5.5s-.5-.224-.5-.5V59h-2c-.552 0-1-.448-1-1V12c0-.552.448-1 1-1h2V2.5c0-.276.224-.5.5-.5zm121 36c.276 0 .5.224.5.5V40h2c.552 0 1 .448 1 1v11c0 .552-.448 1-1 1h-2v3.5c0 .276-.224.5-.5.5s-.5-.224-.5-.5V53h-2c-.552 0-1-.448-1-1V41c0-.552.448-1 1-1h2v-1.5c0-.276.224-.5.5-.5zM29 37c.552 0 1 .448 1 1v15c0 .552-.448 1-1 1h-2v2.5c0 .276-.224.5-.5.5s-.5-.224-.5-.5V54h-2c-.552 0-1-.448-1-1V38c0-.552.448-1 1-1h5zm327.5 0c.276 0 .5.224.5.5V46h2c.552 0 1 .448 1 1v4c0 .552-.448 1-1 1h-2v1.5c0 .276-.224.5-.5.5s-.5-.224-.5-.5V52h-2c-.552 0-1-.448-1-1v-4c0-.552.448-1 1-1h2v-8.5c0-.276.224-.5.5-.5zm-88-3c.276 0 .5.224.5.5V36h2c.552 0 1 .448 1 1v11c0 .552-.448 1-1 1h-2v1.5c0 .276-.224.5-.5.5s-.5-.224-.5-.5V49h-2c-.552 0-1-.448-1-1V37c0-.552.448-1 1-1h2v-1.5c0-.276.224-.5.5-.5zm-110-34c.276 0 .5.224.5.5V9h2c.552 0 1 .448 1 1v33c0 .552-.448 1-1 1h-2v4.5c0 .276-.224.5-.5.5s-.5-.224-.5-.5V44h-2c-.552 0-1-.448-1-1V10c0-.552.448-1 1-1h2V.5c0-.276.224-.5.5-.5zm132 31c.276 0 .5.224.5.5v.5h2c.552 0 1 .448 1 1v4c0 .552-.448 1-1 1h-2v9.5c0 .276-.224.5-.5.5s-.5-.224-.5-.5V38h-2c-.552 0-1-.448-1-1v-4c0-.552.448-1 1-1h2v-.5c0-.276.224-.5.5-.5zM227 30c.552 0 1 .448 1 1v4c0 .552-.448 1-1 1h-2v11.5c0 .276-.224.5-.5.5s-.5-.224-.5-.5V36h-2c-.552 0-1-.448-1-1v-4c0-.552.448-1 1-1h5zm107.5-1c.276 0 .5.224.5.5V31h2c.552 0 1 .448 1 1v11c0 .552-.448 1-1 1h-2v1.5c0 .276-.224.5-.5.5s-.5-.224-.5-.5V44h-2c-.552 0-1-.448-1-1V32c0-.552.448-1 1-1h2v-1.5c0-.276.224-.5.5-.5zm-22-13c.276 0 .5.224.5.5V18h2c.552 0 1 .448 1 1v15c0 .552-.448 1-1 1h-5c-.552 0-1-.448-1-1V19c0-.552.448-1 1-1h2v-1.5c0-.276.224-.5.5-.5zm11 0c.276 0 .5.224.5.5V18h2c.552 0 1 .448 1 1v4c0 .552-.448 1-1 1h-2v8.5c0 .276-.224.5-.5.5s-.5-.224-.5-.5V24h-2c-.552 0-1-.448-1-1v-4c0-.552.448-1 1-1h2v-1.5c0-.276.224-.5.5-.5z" transform="translate(-1)"/>
    </g>
</svg>
