<svg xmlns="http://www.w3.org/2000/svg" xmlns:xlink="http://www.w3.org/1999/xlink" width="405" height="74" viewBox="0 0 405 74" role="img" aria-labelledby="graph">
    <title id='graph'>Graph</title>
    <defs>
        <path id="graphprefix__a" d="M0 93L405 93 405 0 0 0z"/>
    </defs>
    <g fill="none" fill-rule="evenodd" opacity=".85" transform="translate(0 -5)">
        <mask id="graphprefix__b" fill="#fff">
            <use xlink:href="#graphprefix__a"/>
        </mask>
        <path fill="#BCCDCE" d="M10 64L17 64 17 16 10 16zM285 40L292 40 292 23 285 23zM21 59L28 59 28 42 21 42zM61 58L68 58 68 52 61 52zM377 59L384 59 384 42 377 42zM245 54L252 54 252 41 245 41zM0 66L7 66 7 53 0 53zM92 65L99 65 99 52 92 52zM325 57L332 57 332 51 325 51zM296 29L303 29 303 23 296 23zM306 49L313 49 313 36 306 36zM204 41L211 41 211 35 204 35zM257 63L264 63 264 57 257 57zM266 43L273 43 273 37 266 37zM122 58L129 58 129 45 122 45zM141 49L148 49 148 14 141 14zM153 67L160 67 160 32 153 32zM358 62L365 62 365 45 358 45z" mask="url(#graphprefix__b)"/>
        <path fill="#E84853" d="M132 54L139 54 139 41 132 41zM40 60L47 60 47 47 40 47zM276 54L283 54 283 41 276 41zM102 72L109 72 109 59 102 59zM224 64L231 64 231 51 224 51zM31 78L38 78 38 65 31 65zM398 69L405 69 405 56 398 56zM388 71L395 71 395 58 388 58zM113 59L120 59 120 54 113 54zM165 65L172 65 172 60 165 60zM174 50L181 50 181 45 174 45zM73 69L80 69 80 64 73 64zM233 51L240 51 240 46 233 46zM82 68L89 68 89 43 82 43zM214 57L221 57 221 32 214 32zM367 57L374 57 374 23 367 23zM337 49L344 49 344 36 337 36zM347 50L354 50 354 45 347 45zM316 45L323 45 323 20 316 20zM51 45L58 45 58 40 51 40z" mask="url(#graphprefix__b)"/>
        <path stroke="#E84853" stroke-width=".5" d="M184 42.745L191 42.745 191 42.255 184 42.255z" mask="url(#graphprefix__b)"/>
        <path fill="#E84853" d="M194 57L201 57 201 54 194 54z" mask="url(#graphprefix__b)"/>
        <path stroke="#BCCDCE" stroke-width=".5" d="M13.5 7L13.5 64M24.5 44L24.5 61" mask="url(#graphprefix__b)"/>
        <path stroke="#E84853" stroke-width=".5" d="M34.5 55L34.5 79M43.5 47L43.5 71M54.5 42L54.5 56" mask="url(#graphprefix__b)"/>
        <path stroke="#BCCDCE" stroke-width=".5" d="M64.5 52L64.5 69" mask="url(#graphprefix__b)"/>
        <path stroke="#E84853" stroke-width=".5" d="M76.5 51L76.5 75M85.5 36L85.5 60" mask="url(#graphprefix__b)"/>
        <path stroke="#BCCDCE" stroke-width=".5" d="M95.5 52L95.5 69" mask="url(#graphprefix__b)"/>
        <path stroke="#E84853" stroke-width=".5" d="M105.5 50L105.5 72" mask="url(#graphprefix__b)"/>
        <path stroke="#BCCDCE" stroke-width=".5" d="M125.5 44L125.5 61" mask="url(#graphprefix__b)"/>
        <path stroke="#E84853" stroke-width=".5" d="M116.5 43L116.5 67M135.5 35L135.5 62" mask="url(#graphprefix__b)"/>
        <path stroke="#BCCDCE" stroke-width=".5" d="M144.5 5L144.5 54M156.5 25L156.5 74" mask="url(#graphprefix__b)"/>
        <path stroke="#E84853" stroke-width=".5" d="M168.5 52L168.5 76M177.5 41L177.5 65M187.5 35L187.5 52M197.5 41L197.5 58" mask="url(#graphprefix__b)"/>
        <path stroke="#BCCDCE" stroke-width=".5" d="M207.5 35L207.5 52" mask="url(#graphprefix__b)"/>
        <path stroke="#E84853" stroke-width=".5" d="M217.5 38L217.5 62M227.5 48L227.5 70M236.5 31L236.5 55" mask="url(#graphprefix__b)"/>
        <path stroke="#BCCDCE" stroke-width=".5" d="M248.5 39L248.5 56M260.5 50L260.5 67M269.5 36L269.5 53" mask="url(#graphprefix__b)"/>
        <path stroke="#E84853" stroke-width=".5" d="M279.5 41L279.5 65" mask="url(#graphprefix__b)"/>
        <path stroke="#BCCDCE" stroke-width=".5" d="M288.5 22L288.5 39M299.5 38L299.5 21M309.5 51L309.5 34" mask="url(#graphprefix__b)"/>
        <path stroke="#E84853" stroke-width=".5" d="M319.5 53L319.5 31" mask="url(#graphprefix__b)"/>
        <path stroke="#BCCDCE" stroke-width=".5" d="M328.5 59L328.5 42" mask="url(#graphprefix__b)"/>
        <path stroke="#E84853" stroke-width=".5" d="M340.5 55L340.5 31M350.5 62L350.5 38" mask="url(#graphprefix__b)"/>
        <path stroke="#BCCDCE" stroke-width=".5" d="M361.5 41L361.5 68" mask="url(#graphprefix__b)"/>
        <path stroke="#E84853" stroke-width=".5" d="M370.5 20L370.5 60" mask="url(#graphprefix__b)"/>
        <path stroke="#BCCDCE" stroke-width=".5" d="M380.5 49L380.5 66" mask="url(#graphprefix__b)"/>
        <path stroke="#E84853" stroke-width=".5" d="M391.5 51L391.5 75M401.5 48L401.5 72" mask="url(#graphprefix__b)"/>
        <path stroke="#BCCDCE" stroke-width=".5" d="M3.5 50L3.5 67" mask="url(#graphprefix__b)"/>
    </g>
</svg>
