<svg xmlns="http://www.w3.org/2000/svg" width="64" height="64"><g fill="none" fill-rule="evenodd"><path stroke="#85ACB0" stroke-linecap="round" stroke-linejoin="round" stroke-width="2" d="M35.93 50.94a1.71 1.71 0 011.89-1.33c1.91 0 7.91 1.53 9.89 2.32.94.38 1.56.81 1.76 1.36.41 1.06-2.51 7.94-3 9.74-.2.78-.32 1.19-1 .85-2.72-1.35-5.39-5.26-8.39-7.07-.94-.56-1.9-1-2.15-1.67a1 1 0 01-.06-.36 16.37 16.37 0 011.06-3.84zm7.94 3.83a1.05 1.05 0 00.13 1.46 1.042 1.042 0 101.3-1.63 1.06 1.06 0 00-1.43.17z"/><path stroke="#85ACB0" stroke-linecap="round" stroke-linejoin="round" stroke-width="2" d="M41.17 40.59A27.3 27.3 0 0151 33c1.61-.62 3-.78 4-.09a2 2 0 01.72.86 24.51 24.51 0 013.89-9.74c.83-1.11 2.38-2.5 3.72-1.33 2.16 1.86-1.66 15.73-4.13 18.59-4.2 4.89-8.1 2.83-11.52 10.62-2-.79-8-2.36-9.89-2.32.7-2.46 1.95-6.85 3.38-9z"/><path stroke="#85ACB0" stroke-linecap="round" stroke-linejoin="round" stroke-width="2" d="M37.82 49.61c.67-2.48 1.92-6.87 3.35-9A27.3 27.3 0 0151 33c1.61-.62 3-.78 4-.09a2 2 0 01.72.86c1 2.52-5.57 6.1-6.87 6.87m-4.98 14.13a1.06 1.06 0 011.47-.17A1.055 1.055 0 1144 56.23a1.05 1.05 0 01-.13-1.46zm-14.72-.28a1 1 0 01-.06.36c-.25.72-1.21 1.11-2.15 1.68-3 1.8-5.67 5.71-8.39 7.06-.71.35-.83-.07-1-.85-.48-1.8-3.4-8.68-3-9.73a2.82 2.82 0 011.76-1.36c2-.8 8-2.36 9.89-2.33a1.73 1.73 0 011.89 1.33 16.5 16.5 0 011.06 3.84zm-10.49-.18A1.078 1.078 0 0020 56a1.046 1.046 0 10-1.3-1.64l-.04-.05z"/><path stroke="#85ACB0" stroke-linecap="round" stroke-linejoin="round" stroke-width="2" d="M22.83 40.31A27.2 27.2 0 0013 32.73c-1.61-.62-3.05-.78-4-.09a2 2 0 00-.72.86 24.57 24.57 0 00-3.89-9.74c-.86-1.1-2.39-2.5-3.75-1.33C-1.52 24.3 2.3 38.16 4.77 41c4.2 4.89 8.1 2.84 11.52 10.63 2-.8 8-2.36 9.89-2.33-.67-2.46-1.92-6.85-3.35-8.99z"/><path stroke="#85ACB0" stroke-linecap="round" stroke-linejoin="round" stroke-width="2" d="M26.18 49.32c-.67-2.48-1.92-6.87-3.35-9A27.2 27.2 0 0013 32.73c-1.61-.62-3.05-.78-4-.09a2 2 0 00-.72.86c-1 2.52 5.57 6.1 6.87 6.87m4.98 14.11a1.07 1.07 0 00-1.47-.17A1.078 1.078 0 0020 56a1.07 1.07 0 00.13-1.52z"/><path stroke="#0E0E0E" stroke-linecap="round" stroke-linejoin="round" stroke-width="2" d="M38.47 14a5.47 5.47 0 10-10.94 0l10.94 6.66a5.47 5.47 0 11-10.94 0m5.44-15v2.68m0 18v3"/><circle cx="33" cy="17.5" r="16.5" stroke="#FF444F" stroke-linecap="round" stroke-linejoin="round" stroke-width="2"/><path d="M0 0h64v64H0z"/></g></svg>