<svg xmlns="http://www.w3.org/2000/svg" width="64" height="64"><defs><linearGradient id="a" x1="50%" x2="50%" y1=".347%" y2="99.74%"><stop offset="0%" stop-color="#FF6444"/><stop offset="99.913%" stop-color="#FF444F"/></linearGradient></defs><g fill="none" fill-rule="evenodd"><path d="M0 0h64v64H0z"/><path fill="url(#a)" d="M61.089 29.9c-.036 1.2-.073 2.442-.226 3.73-1.964.576-3.979 1.109-5.929 1.625l-2.262.601c0-.057 0-.116-.002-.173.436-.189.766-.484 1.017-.747a7.078 7.078 0 001.609-2.54c.722-2.027.115-3.758-1.711-4.874-2.237-1.367-4.539-2.7-6.765-3.989l-1.039-.602a1772.969 1772.969 0 00-6.565-3.783c-.373-.213-.749-.42-1.123-.626-.391-.217-.782-.432-1.169-.655-.545-.315-1.103-.288-1.615.076a99.866 99.866 0 01-2.177 1.495c-.451.302-.726.717-.843 1.27-.335 1.605-.716 3.425-1.185 5.176-.021.078-.047.154-.07.229-.05.146-.097.294-.132.446-.036.162-.06.27-.407.302-1.044.1-1.841.141-2.574-.256-.341-.185-.467-.365-.501-.713-.093-.983-.038-2.048.168-3.254.256-1.499.552-3.103.986-4.688.082-.3.248-.545.506-.749 1.556-1.225 3.62-2.82 5.821-4.32h.048c2.056-.02 2.058-.015 4.117 1.22l3.396 2.035c1.483.886 2.965 1.77 4.442 2.66.407.247.85.313 1.316.19l2.817-.72c2.337-.596 4.674-1.192 7.021-1.8a34.249 34.249 0 012.077 4.82c.306.901.64 1.97.798 3.05.176 1.213.18 2.437.184 3.735l.004.829-.032 1zm-9.86 3.758c-.282 0-.585-.085-.931-.25-.95-.457-1.786-1.097-2.684-1.638-.833-.503-1.66-1.027-2.627-1.251a1.337 1.337 0 00-.317-.04.96.96 0 00-.338.059c-.151.058-.301.117-.334.308-.033.194.093.297.229.388.5.34 1.033.623 1.565.911 1.26.681 2.544 1.315 3.733 2.115.255.172.501.355.726.57.445.423.531.943.377 1.497-.263.946-.77 1.756-1.478 2.439-.223.215-.456.329-.716.329-.144 0-.296-.034-.46-.105-1.104-.477-2.122-1.105-3.145-1.724-.844-.512-1.68-1.038-2.55-1.504a1.434 1.434 0 00-.695-.191c-.027 0-.054 0-.083.003-.24.015-.451.077-.532.32-.086.256.108.385.29.494.97.588 1.946 1.168 2.916 1.755.666.403 1.328.806 1.965 1.254.437.307.553.683.413 1.184a6.039 6.039 0 01-1.148 2.218c-.355.433-.668.634-1.049.634-.235 0-.496-.076-.809-.224-.552-.256-1.076-.565-1.597-.876-.024.017-.051.029-.075.047a3.473 3.473 0 00-.441.416c-.071.101-.133.21-.185.323-.073.198-.126.401-.192.602-.015.046-.045.083-.067.125-.03.19-.086.392-.184.619-.292.673-.682 1.285-1.22 1.793-.32.3-.723.45-1.128.45-.242 0-.477-.074-.702-.18l.614-1.212c.46-.906.54-1.941.223-2.909a3.78 3.78 0 00-1.9-2.212 3.775 3.775 0 00-2.75-.26 3.81 3.81 0 00-.177-1.3 3.787 3.787 0 00-1.9-2.213 3.796 3.796 0 00-4.762 1.108 3.768 3.768 0 00-1.637-1.613 3.81 3.81 0 00-4.73 1.062 4.102 4.102 0 00-1.807-1.835 4.126 4.126 0 00-5.535 1.814l-.093.184c-2.216-.657-5.008-1.555-7.064-2.125-.936-.26-1.863-.545-2.79-.83-.54-.166-.557-.17-.565-.743-.01-.764-.002-1.53-.002-2.295-.008-2.07.001-4.144.31-6.196a38.572 38.572 0 011.575-6.492 23.57 23.57 0 011.13-2.76c.081-.172.169-.253.311-.253.05 0 .11.01.177.03a290.601 290.601 0 0010.069 2.86c.558.15 1.124.276 1.686.415.043.01.084.016.124.016.173 0 .322-.088.474-.158.96-.447 1.878-.975 2.771-1.54 1.958-1.242 3.932-2.462 5.848-3.768.42-.287.816-.41 1.216-.41.36 0 .722.102 1.1.277.253.12.656.186.684.44.03.259-.372.368-.594.527a76.656 76.656 0 01-2.303 1.615c-.504.337-.766.809-.936 1.369a69.75 69.75 0 00-1.581 6.305c-.169.828-.317 1.667-.225 2.527.097.913.572 1.562 1.355 1.993 1.476.813 3.075 1.18 4.747 1.259.032.002.064.003.097.003.325 0 .646-.078.958-.175.632-.198 1.042-.615 1.257-1.251.471-1.393.73-2.834 1.01-4.271.097-.495.173-.995.25-1.494.112-.73.58-1.188 1.14-1.612.219-.165.408-.25.614-.25.16 0 .328.051.526.154 2.173 1.12 4.28 2.352 6.408 3.552 2.439 1.376 4.833 2.826 7.264 4.214l2.152 1.23c.36.208.633.51.891.826.192.235.229.52.157.807-.196.777-.532 1.485-1.081 2.078-.405.434-.793.642-1.233.642zm-17.42 16.507a1.926 1.926 0 01-1.124.963 1.91 1.91 0 01-1.476-.113 1.91 1.91 0 01-.962-1.122 1.916 1.916 0 01.113-1.477l2.887-5.696a1.91 1.91 0 011.123-.963 1.918 1.918 0 011.474.112c.461.234.803.632.964 1.124.16.49.121 1.015-.114 1.475l-2.885 5.697zm-6.542-1.642a1.935 1.935 0 01-2.326-2.711l3.477-6.863a1.923 1.923 0 011.123-.963 1.938 1.938 0 011.476.111c.46.235.803.633.963 1.124.16.49.12 1.014-.113 1.475L28.39 47.56a1.919 1.919 0 01-1.123.964zm-5.433-2.414c-.49.163-1.013.12-1.475-.113a1.908 1.908 0 01-.962-1.122 1.916 1.916 0 01.112-1.475l2.51-4.957a1.923 1.923 0 011.552-1.052 1.933 1.933 0 011.897 2.8l-2.51 4.956c-.235.46-.633.803-1.124.963zm-6.695-3.482a2.224 2.224 0 01-1.116-1.301 2.218 2.218 0 01.132-1.709l.915-1.81a2.243 2.243 0 014.128.315 2.23 2.23 0 01-.13 1.71l-.918 1.81a2.239 2.239 0 01-3.011.985zm47.857-14.561c-.004-1.306-.008-2.657-.204-4.002-.18-1.229-.545-2.4-.877-3.382a36.391 36.391 0 00-2.332-5.354c-.354-.669-.98-.944-1.723-.752-2.429.63-4.858 1.25-7.287 1.87l-2.758.705c-1.461-.879-2.925-1.754-4.388-2.628l-3.418-2.046c-2.395-1.44-2.587-1.492-5.06-1.472a1.61 1.61 0 00-1.06.293c-.657.445-1.292.898-1.913 1.347-.271-.506-.747-.9-1.456-1.158l-.078-.029c-.632-.296-1.252-.444-1.87-.444-.793 0-1.558.248-2.275.737-1.503 1.024-3.083 2.02-4.61 2.984l-1.185.749c-.861.546-1.64.984-2.369 1.335l-.213-.052a37.173 37.173 0 01-.984-.244 285.859 285.859 0 01-10.003-2.841 2.464 2.464 0 00-.726-.113c-.413 0-1.434.128-2.005 1.317a25.46 25.46 0 00-1.218 2.98 40.491 40.491 0 00-1.65 6.806c-.323 2.14-.34 4.203-.331 6.485L1 31.834c-.001.546-.003 1.091.005 1.636.017 1.376.563 2.104 1.881 2.51.942.29 1.892.582 2.848.846 2.255.627 4.508 1.27 6.758 1.913l-.015.029a4.091 4.091 0 00-.24 3.142 4.09 4.09 0 002.052 2.393 4.087 4.087 0 003.144.24l.009-.004c.022.31.068.617.167.92a3.793 3.793 0 001.9 2.214 3.788 3.788 0 002.909.222c.202-.066.39-.156.575-.253a3.78 3.78 0 004.012 2.839 3.87 3.87 0 001.368-.39c.029.13.045.259.086.386a3.78 3.78 0 001.9 2.212 3.778 3.778 0 002.91.225 3.796 3.796 0 002.214-1.9l1.418-2.8a3.516 3.516 0 001.556.372c.897 0 1.754-.341 2.413-.958.687-.645 1.245-1.458 1.66-2.417a4.92 4.92 0 00.131-.341l.09.041c.583.273 1.093.4 1.604.4 1.418 0 2.233-.994 2.502-1.32a7.938 7.938 0 001.503-2.902c.01-.04.022-.077.031-.115h.042c.516 0 1.285-.149 2.019-.855a7.34 7.34 0 001.563-2.183 1.45 1.45 0 00.34-.047c1.02-.277 2.04-.547 3.06-.818a230.98 230.98 0 005.997-1.645c.78-.23 1.225-.762 1.323-1.585.154-1.308.192-2.62.23-3.884L63 28.925l-.004-.86z"/></g></svg>