<svg xmlns="http://www.w3.org/2000/svg" width="48" height="49" viewBox="0 0 48 49">
    <g fill="none" fill-rule="evenodd">
        <g>
            <g>
                <g>
                    <g>
                        <path d="M0 0H48V48H0z" transform="translate(-764 -1688) translate(0 1429) translate(732 228) translate(32 31)"/>
                        <path fill="#333" fill-rule="nonzero" d="M41.682 16.627l.095.003 5.588.543c.386.037.67.381.632.768-.035.363-.342.635-.7.635-.022 0-.045-.002-.068-.004l-5.588-.542c-.386-.038-.669-.382-.632-.768.038-.387.382-.67.768-.632zm.273-7.438c.331-.203.764-.1.967.23.204.331.1.764-.23.968l-3.811 2.344c-.115.07-.242.105-.368.105-.236 0-.467-.12-.6-.335-.203-.33-.1-.764.23-.967zm-5.26-7.74c.14-.363.548-.542.91-.401.362.14.541.548.4.91L35.97 7.19c-.108.278-.374.449-.655.449-.085 0-.171-.016-.255-.049-.362-.14-.541-.548-.4-.91zm-6.6 2.266c-.473-.765-1.48-1.004-2.245-.531l-.841.519c-.371.228-.63.588-.73 1.011-.101.425-.03.862.198 1.233l.484.783-11.056 13.688-2.335 1.44c-.33.205-.433.638-.23.968.134.216.364.334.6.334.125 0 .253-.034.368-.105l1.839-1.134 3.583 5.808c-.517-.034-1.034.073-1.503.314l-.025.013c-.063.033-.125.068-.187.106l-2.102 1.304c-.23.143-.444.312-.637.501-.234.23-.439.487-.604.77l-.519.782-.382.574-.01-.004-.017-.008c-.03-.013-.059-.027-.087-.043l-.018-.01c-.031-.019-.061-.039-.09-.06l-.018-.014c-.027-.02-.053-.043-.077-.066l-.01-.009c-.026-.025-.05-.053-.074-.082l-.015-.019c-.024-.03-.046-.06-.066-.093L10.25 26.76c-.143-.232-.188-.506-.125-.772s.226-.491.458-.634l.91-.561c.33-.204.433-.637.229-.968-.204-.33-.637-.433-.967-.23l-.91.562c-.552.34-.938.876-1.088 1.507-.096.408-.086.824.024 1.216l-.676.417c-.905.559-1.187 1.75-.628 2.655l1.716 2.78c.27.44.695.746 1.196.865.15.035.3.053.449.053.353 0 .7-.098 1.009-.289l.677-.418c.141.129.296.24.463.332l-1.953 2.94-.46.314c-.096-.048-.201-.079-.312-.089-.226-.019-.446.051-.62.197l-1.21 1.02c-.283-.18-.653-.184-.943.014l-.04.03-6.82 5.383c-.4.315-.629.788-.629 1.297v2.19c0 .91.741 1.652 1.652 1.652h11.157c.503 0 .973-.225 1.288-.618l.925-1.15c.162-.186.23-.423.206-.653l1.245-1.048c.121-.102.209-.233.258-.38l2.87.588c.042.009.085.013.128.014l.25.003c.68 0 1.356-.07 2.067-.498l2.89-1.722c.048.003.097.005.145.005.417 0 .828-.115 1.193-.338l2.322-1.42c1.08-.66 1.422-2.075.762-3.155-.225-.37-.544-.659-.92-.85.364-.698.365-1.565-.075-2.285-.319-.523-.821-.891-1.415-1.04.123-.563.038-1.172-.285-1.702-.305-.5-.78-.857-1.34-1.018.154-.588.078-1.235-.262-1.793-.09-.145-.193-.277-.307-.397l13.932-3.033.484.784c.308.499.843.774 1.39.774.292 0 .587-.078.854-.242l.84-.52c.371-.228.631-.587.731-1.012.1-.423.03-.86-.199-1.232L30.094 3.715zm-18.986 28.45c-.12.073-.26.095-.395.063-.136-.032-.251-.115-.325-.234l-1.716-2.781c-.15-.245-.074-.568.17-.72l.597-.367 2.265 3.67-.596.369zM13 46.725c-.046.058-.116.092-.191.092H1.652c-.136 0-.246-.11-.246-.246v-2.19c0-.076.034-.147.094-.193l6.397-5.05 5.765 6.763-.662.824zm1.43-2.09l-5.057-5.933.749-.63 5.02 5.965-.712.598zm6.892-1.36c-.429.26-.832.305-1.503.296l-3.603-.738c-.085-.018-.171-.02-.254-.006l-4.422-5.254.4-.274h.002l.02-.016c.015-.01.03-.022.043-.034l.02-.02c.015-.013.028-.026.04-.04l.016-.018c.016-.019.031-.038.045-.058l.004-.005.003-.005.003-.006 3.719-5.6.023-.037c.187-.324.456-.6.776-.8l2.103-1.303c.038-.024.078-.046.118-.066l.054-.025c.021-.01.042-.02.064-.027.024-.01.049-.02.074-.028l.04-.013c.03-.01.061-.018.092-.026.114-.028.229-.041.343-.042h.008c.033 0 .067.002.1.004l.032.003c.03.002.06.006.089.01l.052.01c.045.008.089.019.133.031l.05.015c.022.007.044.016.066.025l.052.02.064.03.047.025c.022.011.043.023.064.036l.042.027.062.043.036.029.06.05c.097.087.18.187.25.3l.051.084.75 1.223.94 1.535.24.39c.023.038.041.076.056.116.044.12.05.251.02.381-.045.186-.163.346-.331.449l-.423.258c-.03.018-.06.033-.09.047l-.02.008c-.03.013-.061.023-.092.03l-.012.003c-.029.007-.058.012-.088.016l-.017.002c-.031.003-.063.003-.094.002h-.018c-.031-.003-.063-.007-.094-.013h-.001c-.033-.007-.066-.017-.098-.029l-.008-.003c-.065-.024-.127-.06-.182-.105-.028-.023-.053-.047-.076-.073l-.006-.006c-.022-.026-.042-.053-.06-.081l-.7-1.146c-.262-.427-.676-.727-1.167-.843-.503-.12-1.025-.034-1.468.24-.178.111-.297.295-.326.503-.008.06-.018.12-.029.177l-.026.127-.01.042c-.012.053-.026.105-.04.156l-.002.006c-.08.27-.19.52-.332.747v.002c-.262.42-.632.774-1.117 1.069-.332.202-.437.634-.235.966.202.332.634.437.966.235.342-.208.646-.442.911-.699l2.937 4.63c.54.84 1.475 1.326 2.443 1.326.05 0 .102-.002.153-.005.02.037.041.073.063.11.083.134.178.259.284.372l-2.079 1.238zm.597-5.17v.001l.038.098.005.012c.012.03.025.058.039.087l.009.02.041.08.012.024c.02.035.039.069.06.102.035.058.073.113.113.167l.043.057c.026.033.053.065.08.096l.059.066.047.046c.057.057.116.11.179.161l.019.016c.12.096.25.179.389.249-.128.239-.211.498-.249.765-.463-.029-.902-.273-1.16-.675L18.41 34.38c.15-.31.265-.64.343-.991.05-.003.101.001.15.013.125.03.228.104.293.209l.7 1.145.004.005c.034.056.071.11.111.163.03.038.061.074.093.11.01.013.02.026.032.039l.005.018c.01.049.023.097.037.145l.012.042c.018.054.036.108.057.16l.007.016c.02.049.04.096.064.143l.02.04c.026.051.054.102.084.152.319.522.82.89 1.413 1.04-.092.418-.066.862.084 1.277zm.448-8.368l.237-.144c.208-.128.453-.166.691-.11.237.058.438.204.565.413.263.43.127.993-.303 1.256l-.235.144-.695-1.135-.26-.424zm5.24 8.446c.232.056.427.198.551.4.256.42.123.968-.296 1.224l-2.322 1.42c-.186.113-.403.153-.616.116-.013-.003-.025-.006-.037-.007l-.02-.004c-.23-.056-.426-.198-.55-.401-.056-.091-.092-.188-.112-.287l-.001-.008c-.056-.29.037-.584.236-.79l.016-.016.031-.029.034-.028.025-.02c.02-.015.042-.03.064-.044h.002l.461-.283c.082-.038.161-.079.24-.126l1.776-1.086c.164-.062.343-.073.519-.031zM25.99 35.1c.189-.09.401-.113.608-.064.237.058.438.204.565.412.263.43.127.994-.303 1.256l-.418.256c-.082.038-.163.08-.24.128l-1.768 1.08c-.33.13-.701.053-.954-.18-.02-.019-.038-.037-.056-.057l-.014-.017-.04-.047-.048-.072c-.015-.025-.03-.051-.042-.077l-.011-.026-.023-.055-.01-.03c-.006-.017-.012-.035-.016-.053l-.008-.03-.01-.055-.005-.028-.006-.057-.001-.028v-.059-.026l.006-.06.003-.025c.002-.017.006-.035.01-.052.04-.188.138-.365.293-.5.006-.005.011-.012.018-.017l.026-.023.066-.037 2.281-1.395c.033-.02.065-.04.097-.062zm-1.092-2.805c.237.057.438.203.565.412.245.4.143.917-.22 1.198l-.07.04-1.761 1.077.017-.014c.034-.027.067-.054.099-.083.02-.017.038-.036.057-.054.029-.028.058-.056.085-.086l.054-.061c.025-.03.05-.06.073-.091l.049-.067c.022-.032.043-.064.064-.098.015-.023.029-.045.042-.069.02-.035.038-.071.056-.107.012-.023.024-.046.034-.07.018-.04.035-.082.05-.124l.024-.06c.021-.064.04-.128.056-.193.015-.063.027-.126.036-.189l.007-.06c.005-.043.01-.086.012-.13l.002-.07v-.12l-.005-.071c-.002-.04-.007-.08-.012-.12l-.01-.067c-.007-.046-.017-.09-.028-.135l-.01-.049c-.016-.06-.035-.12-.056-.179l-.015-.034c-.015-.04-.03-.08-.048-.119l.162-.099c.208-.127.453-.165.69-.108zm16.719-7.102c-.008.033-.032.096-.1.139l-.842.52c-.105.064-.244.031-.309-.074L29.789 8.637c-.203-.33.042.66-.289.863-.33.204-1.111-.455-.907-.124l9.31 15.089-16.34 3.557-4.327-7.014L27.744 7.999l.849 1.377c.204.33.637.432.967.229.33-.204.433-.637.23-.968l-2.116-3.429c-.043-.068-.036-.135-.028-.17.008-.033.032-.096.101-.139l.841-.519c.106-.065.244-.032.31.074l12.691 20.57c.043.069.036.136.028.17z" transform="translate(-764 -1688) translate(0 1429) translate(732 228) translate(32 31)"/>
                    </g>
                </g>
            </g>
        </g>
    </g>
</svg>
