<svg xmlns="http://www.w3.org/2000/svg" width="96" height="96" viewBox="0 0 96 96" aria-labelledby="internet-bank-icon-title">
    <title id="internet-bank-icon-title">Internet Bank</title>
    <g fill="none" fill-rule="evenodd">
        <path fill="#2A3052" fill-opacity=".2" d="M70.207 41.25l.09-.09.578-.592.097-.098-.075-.12-7.327-11.325-.165-.255-.24.21-1.35 1.117a22.223 22.223 0 0 0-6.705-1.837 30 30 0 0 0-5.19-.233c-1.83.066-3.653.27-5.453.608-.794.157-1.59.345-2.362.577a28.365 28.365 0 0 0-7.5 3.323 22.792 22.792 0 0 0-5.76 5.048 18.248 18.248 0 0 0-1.245 1.672c-.308.42-.6.847-.87 1.29-.27.442-.54.75-.75 1.125l-.082.127.134.106.893.697.09.067h.12c1.32-.105 2.64-.232 3.952-.367 2.513-.247 5.108-.502 7.688-.592h.195l.068-.113.315-.517c.082-.143.164-.286.255-.428a8.91 8.91 0 0 1 .577-.9c.247-.352.487-.667.705-.96a13.762 13.762 0 0 1 3.165-3.045c.48.038.968.083 1.455.143.488.06 1.095.127 1.65.202 1.99.304 3.961.725 5.903 1.26L51.75 38.4l-.127.105.082.127.6.908.068.098h.135l17.557 1.612h.142z"/>
        <path fill="#85ACB0" fill-rule="nonzero" d="M23.332 57.6v-4.74H24v4.74h-.668zm1.89 0v-4.74h.66l2.385 3.66v-3.66h.578v4.74h-.652L25.8 53.94v3.66h-.578zm6 0v-4.238h-1.71v-.502h4.043v.502h-1.688V57.6h-.645zm3 0v-4.74h2.655v.502H34.89v1.5h1.657v.495H34.89v1.718h2.115v.502l-2.783.023zm3.563 0v-4.74h1.433c.371-.026.74.08 1.042.3.242.21.375.52.36.84a1.38 1.38 0 0 1-.96 1.35l1.583 2.25h-.826l-1.35-2.01h-.63v2.01h-.652zm.66-2.513h.218c.847 0 1.275-.33 1.275-.99 0-.495-.36-.75-1.066-.75h-.427v1.74zm3.48 2.513v-4.74h.66L45 56.52v-3.66h.578v4.74h-.66l-2.393-3.66v3.66h-.6zm4.845 0v-4.74h2.647v.502h-1.98v1.5h1.658v.495h-1.657v1.718h2.114v.502l-2.782.023zm4.68 0v-4.238h-1.68v-.502h4.035v.502h-1.68V57.6h-.675zm4.777 0v-4.74h1.23a1.86 1.86 0 0 1 1.088.27.877.877 0 0 1 .383.75 1.29 1.29 0 0 1-.975 1.23c.75.233 1.162.66 1.162 1.282.02.337-.122.663-.383.878a1.777 1.777 0 0 1-1.11.307l-1.395.023zm.66-.503H57c.333.026.668-.007.99-.097a.638.638 0 0 0 .413-.653.84.84 0 0 0-.375-.697 1.553 1.553 0 0 0-.945-.285h-.188v1.732h-.008zm0-2.16h.218c.295.02.587-.06.833-.224a.75.75 0 0 0 .3-.653c0-.465-.36-.698-1.08-.698h-.263v1.575h-.008zm5.513.848l-.81-2.04-.84 2.04h1.65zm.75 1.815l-.517-1.313h-2.048l-.517 1.313h-.63l1.882-4.74h.667l1.853 4.74h-.69zm1.41 0v-4.74h.66l2.385 3.66v-3.66h.578v4.74H67.5l-2.4-3.66v3.66h-.54zm4.845 0v-4.74h.638v2.333l1.92-2.333h.675l-1.86 2.25 2.19 2.483h-.893l-2.07-2.408V57.6h-.6zM24.48 67.823v-6.135h-2.543v-.938H28.5v.975h-2.55v6.135l-1.47-.037zm5.025 0V60.75h2.662c1.448 0 2.168.585 2.168 1.763.004.428-.124.847-.367 1.2a2.25 2.25 0 0 1-1.013.787l2.295 3.323h-1.8l-1.763-2.91H30.9v2.91h-1.395zm1.395-3.885h.345c1.073 0 1.605-.436 1.605-1.298 0-.638-.473-.953-1.433-.953H30.9v2.25zm4.62 3.885l2.767-7.073h1.5l2.768 7.11h-1.5l-.75-1.897h-2.97l-.75 1.897-1.065-.037zm2.182-2.843h2.206l-1.103-2.835-1.102 2.835zm5.843 2.843V60.75h1.297l3.3 4.853V60.75h1.185v7.11H48L44.73 63v4.86l-1.185-.037zm7.163-.06V66.54a5.347 5.347 0 0 0 1.965.48c.32.02.637-.07.9-.255a.833.833 0 0 0 .33-.69.87.87 0 0 0-.203-.585 3.352 3.352 0 0 0-.75-.563l-.473-.27a4.538 4.538 0 0 1-1.35-1.027 1.8 1.8 0 0 1-.397-1.155 1.755 1.755 0 0 1 .645-1.41 2.633 2.633 0 0 1 1.71-.532 8.58 8.58 0 0 1 1.92.247v1.14a5.198 5.198 0 0 0-1.755-.42 1.305 1.305 0 0 0-.75.218c-.19.13-.3.347-.292.577a.69.69 0 0 0 .202.51c.224.216.476.4.75.547l.51.286c.531.266 1.01.624 1.417 1.057.64.858.49 2.067-.337 2.745a3.285 3.285 0 0 1-2.032.563 9.945 9.945 0 0 1-1.988-.24h-.022zm6 .06V60.75h4.5v.975h-3v2.16h2.46v.983h-2.46v3l-1.5-.045zm5.647 0V60.75h4.47v.975h-2.963v1.98h2.43v.953h-2.43v2.19h3.188v1.012l-4.695-.037zm5.91 0V60.75h2.685c1.447 0 2.168.585 2.168 1.763-.004.415-.132.82-.368 1.162a2.34 2.34 0 0 1-1.013.825l2.326 3.323h-1.8l-1.763-2.91h-.817v2.91h-1.418zm1.395-3.885h.345c1.073 0 1.605-.436 1.605-1.298 0-.638-.48-.953-1.433-.953h-.517v2.25z"/>
        <ellipse cx="48.42" cy="45.892" fill="#231F20" fill-opacity=".1" fill-rule="nonzero" rx="21.652" ry="1.792"/>
        <path fill="#E1F4F3" d="M27.75 39.367c.386-.573.802-1.126 1.245-1.657 3.42-4.04 8-6.933 13.117-8.288.75-.217 1.553-.405 2.348-.562 2.612-.49 5.271-.69 7.928-.593.892.038 1.785.12 2.662.233a22.05 22.05 0 0 1 6.818 1.89l1.5-1.23 7.357 11.25-18.75-1.89 2.595-2.138-.248-.067a53.46 53.46 0 0 0-6.855-1.5 32.39 32.39 0 0 0-2.07-.24c-.69-.06-1.357-.075-2.024-.075h-2.026c-4.222.09-8.542 1.148-11.67 3.428a12.105 12.105 0 0 0-1.86 1.642c-.349.366-.674.755-.974 1.163.272-.475.575-.931.907-1.365z"/>
        <path fill="#85ACB0" fill-rule="nonzero" d="M70.147 40.958l-17.587-1.56-.608-.886 18.75 1.86-.555.586zm-43.245-.42v.052c.113-.158.233-.315.353-.465l.113-.142v-.038l.495-.563c.568-.629 1.2-1.199 1.882-1.702 3.172-2.37 7.5-3.458 11.797-3.555h2.04c.675 0 1.35.06 2.026.127.675.068 1.395.15 2.092.255 2.324.361 4.622.877 6.877 1.546l.308.09-1.02.885a52.027 52.027 0 0 0-6.413-1.418 43.175 43.175 0 0 0-1.687-.21 26.025 26.025 0 0 0-8.625.3c-.398.09-.795.188-1.178.292a16.545 16.545 0 0 0-3.457 1.245 10.875 10.875 0 0 0-3 2.01c-.285.27-.555.548-.81.84a11.64 11.64 0 0 0-1.582 2.108l-.863-.623c.247-.397.405-.66.683-1.035h-.03z"/>
        <path fill="#C7E5E5" d="M27.938 40.898l.097-.128.105-.135.09-.112v-.09a16.958 16.958 0 0 1 2.025-1.928l.188-.135c.234-.165.484-.322.75-.472.398-.228.809-.433 1.23-.616l.097-.044c.345-.158.69-.308 1.042-.443l.293-.113c.64-.232 1.294-.425 1.958-.577.382-.105.75-.195 1.162-.277a25.95 25.95 0 0 1 6.9-.428 13.868 13.868 0 0 0-3.285 3.075c-.24.307-.48.622-.705.938-.224.288-.431.589-.622.9l-.526.937c-3.907.135-7.77.638-11.647.938.255-.443.538-.869.848-1.276v-.014z"/>
        <path d="M0 0h96v96H0z"/>
    </g>
</svg>
