<svg xmlns="http://www.w3.org/2000/svg" width="64" height="64" viewBox="0 0 64 64">
    <g fill="#FF6444">
        <circle cx="32" cy="32" r="32" fill-opacity=".08"/>
        <path fill-opacity=".48" d="M30 47h-4.917c-.55 0-.997-.445-1-.996C24.076 44.44 23.382 43.106 22 42c-1.596-1.277-3.498-3.012-5.705-5.206-.189-.188-.295-.443-.295-.71V24c.333-.667.833-1 1.5-1 1 0 3.5 2 3.5 4.5v6c2-1 3.5-1.167 4.5-.5.963.642 2.698 2.21 5.205 4.706.189.188.295.443.295.709V46c0 .552-.448 1-1 1zM34 47h4.917c.55 0 .997-.445 1-.996.007-1.564.701-2.898 2.083-4.004 1.596-1.277 3.498-3.012 5.705-5.206.189-.188.295-.443.295-.71V24c-.333-.667-.833-1-1.5-1-1 0-3.5 2-3.5 4.5v6c-2-1-3.5-1.167-4.5-.5-.963.642-2.698 2.21-5.205 4.706-.189.188-.295.443-.295.709V46c0 .552.448 1 1 1z"/>
        <path d="M24.256 23.176c-.818-3.289.497-5.18 1.548-5.709 2.066-1.038 4.13-.346 6.196 2.076l.2-.229c1.998-2.236 3.997-2.851 5.996-1.847 1.05.528 2.366 2.42 1.548 5.71C39.4 24.56 36.82 27.501 32 32c-4.819-4.498-7.4-7.44-7.744-8.824z"/>
    </g>
</svg>
