<svg width="64" height="64" xmlns="http://www.w3.org/2000/svg"><defs><linearGradient x1=".013%" y1="100%" x2="99.987%" y2="0%" id="a"><stop stop-color="#FF444F" offset="0%"/><stop stop-color="#FF6444" offset="100%"/></linearGradient></defs><g fill="none" fill-rule="evenodd"><path d="M0 0h64v64H0z"/><path d="M3 14.992L32 15a1 1 0 01.116 1.993L32 17l-29-.008v39c.043 0 .086.003.128.008H5V21a2 2 0 011.85-1.995L7 19h26a1 1 0 01.117 1.993L33 21H7v35h19a1 1 0 01.832.445l1.704 2.556 6.928.01 1.703-2.564A1 1 0 0138 56h18.882l.048-.006.022-.06a1.23 1.23 0 00.044-.28l.004-.126V31a1 1 0 011.993-.117L59 32v23.528c0 .162-.01.32-.03.473L60.883 56l.048-.006.022-.06a1.23 1.23 0 00.044-.28l.004-.126V27a1 1 0 011.993-.117L63 27v28.528c0 .238-.021.466-.063.68.647.314 1.063.963 1.063 1.792v5c0 1.182-.847 2-2 2H2c-1.153 0-2-.818-2-2v-5c0-.808.395-1.445 1.014-1.768a.778.778 0 01-.009-.081L1 55.99v-39c0-1.13.765-1.924 1.844-1.994L3 14.992zM25.465 58H2v5h60v-5H38.536l-1.703 2.566a1 1 0 01-.835.447l-8-.013a1 1 0 01-.83-.445L25.465 58zM49.5.992c8.008 0 14.5 6.365 14.5 14.5s-6.492 14.5-14.5 14.5S35 23.627 35 15.492 41.492.992 49.5.992zm0 2c-6.95 0-12.5 5.516-12.5 12.5s5.55 12.5 12.5 12.5S62 22.476 62 15.492s-5.55-12.5-12.5-12.5zm7.366 8.123a9.515 9.515 0 01.858 3.961c0 4.171-2.657 7.66-6.183 8.486l-.237.05.507.438c.387.334.458.954.158 1.385a.855.855 0 01-.7.382.814.814 0 01-.442-.131l-.1-.075-2.66-2.294a1.032 1.032 0 01-.343-.79c.003-.265.1-.516.268-.698l.09-.085 2.66-2.197c.392-.325.947-.234 1.239.204.269.404.22.962-.099 1.3l-.085.08-.598.495c2.713-.647 4.754-3.337 4.754-6.55a7.24 7.24 0 00-.662-3.058c-.224-.485-.052-1.08.383-1.33.434-.249.968-.058 1.192.427zM49.32 5.637l.1.07L52.347 8a.992.992 0 01.083 1.488l-.099.085-2.925 2.198a.964.964 0 01-1.363-.205.997.997 0 01.108-1.3l.094-.08.658-.495c-2.984.647-5.229 3.337-5.229 6.55 0 1.078.245 2.107.728 3.058a.992.992 0 01-.421 1.329.96.96 0 01-.445.11.974.974 0 01-.867-.536 8.793 8.793 0 01-.944-3.961c0-4.173 2.925-7.664 6.807-8.487l.255-.05-.558-.437a.995.995 0 01-.174-1.384.966.966 0 011.266-.246z" fill="url(#a)" transform="translate(0 -1)"/></g></svg>