<svg xmlns="http://www.w3.org/2000/svg" width="328" height="200" viewBox="0 0 328 200">
    <g fill="none" fill-rule="evenodd">
        <path fill="#FFF" stroke="#FF444F" stroke-width="2" d="M205.517 53.378c13.197.234 20.843.234 22.936 0 3.14-.35 5.999 0 5.646-3.858-.353-3.858-4.548-.67-5.646-3.507-1.098-2.838-.353-5.262-2.823-6.665-2.47-1.403-5.024 1.053-7.41 1.053-1.302 0-2.09-.235-2.364-.705a4.258 4.258 0 0 0-5.4-1.75c-3.175 1.402-1.597 3.257-3.88 5.611-2.285 2.355-4.235-.701-5.294 3.508-.706 2.806.706 4.91 4.235 6.313z"/>
        <path stroke="#FF444F" stroke-width="2" d="M228.375 24.29c18.713.33 29.554.33 32.522 0 4.452-.498 8.506 0 8.006-5.461-.5-5.46-6.449-.948-8.006-4.964-1.557-4.016-.5-7.446-4.003-9.432-3.502-1.985-7.123 1.49-10.507 1.49-1.845 0-2.962-.333-3.351-.997a6.045 6.045 0 0 0-7.657-2.478c-4.503 1.985-2.265 4.61-5.503 7.942-3.239 3.332-6.005-.993-7.506 4.964-1 3.971 1.001 6.95 6.005 8.935z"/>
        <g transform="translate(49 1)">
            <path fill="#85ACB0" fill-opacity=".2" d="M137.095 149.913l7.405 4.912 14.649-.088V68.852h-5.413l-5.013-59.457c-1.993-2.012-3.914 8.544-5.761 31.67-1.848 23.126-3.67 59.409-5.466 108.848h-.4zM118.12 149.913l-7.405 4.912-14.648-.088V68.852h5.413l5.012-59.457c1.994-2.012 3.914 8.544 5.762 31.67 1.848 23.126 3.67 59.409 5.465 108.848h.401z"/>
            <path fill="#E7EEEF" d="M137.095 149.913l7.405 4.912 14.649-.088V68.852h-5.413l-5.013-59.457c-1.993-2.012-3.914 8.544-5.761 31.67-1.848 23.126-3.67 59.409-5.466 108.848h-.4z"/>
            <g fill="#E7EEEF" stroke="#85ACB0" stroke-width="2">
                <path d="M138.096 149.913l-.16-81.061.801-.399v-19.72l.802-.399.401-12.55 1.203-.796.401-6.773 1.003-.598v-1.195h.601v-3.386h.802v-2.191h.802v-2.59l1.003-.797v-1.593l1.202-.399v-1.195l1.203-2.191h.602M159.588 154.737V68.852l-.802-.399v-19.72l-.802-.399-.4-12.55-1.204-.796-.4-6.773-1.003-.598v-1.195h-.602v-3.386h-.801v-2.191h-.802v-2.59l-1.003-.797v-1.593l-1.203-.399v-1.195l-1.203-2.191h-.601M96.234 155.12V68.78l.802-.398V48.685l.802-.398.401-12.533 1.203-.796.4-6.764 1.003-.597v-1.193h.602v-3.382h.802v-2.189h.802v-2.586l1.002-.796V15.86l1.203-.398v-1.194l1.203-2.188h.601"/>
                <path d="M118.082 149.913l-.195-81.134-.802-.398V48.685l-.802-.398-.401-12.533-1.203-.796-.401-6.764-1.002-.597v-1.193h-.602v-3.382h-.802v-2.189h-.802v-2.586l-1.002-.796V15.86l-1.203-.398v-1.194l-1.203-2.188h-.602"/>
            </g>
            <ellipse cx="148.561" cy="10.738" stroke="#85ACB0" stroke-width="2" rx="1.403" ry="1.342"/>
            <path stroke="#85ACB0" stroke-width="2" d="M148.2.192h.482l.48 9.203h-1.202z"/>
            <ellipse cx="106.86" cy="10.162" stroke="#85ACB0" stroke-width="2" rx="1.403" ry="1.342"/>
            <path stroke="#85ACB0" stroke-width="2" d="M106.66 0h.4l.401 9.012h-1.002zM117.887 92.037h19.648v4.218h-19.648zM176.43 154.737v-80.34h14.434l-.232 88.423M162.996 154.737v-14.573h10.426v14.573z"/>
            <path stroke="#85ACB0" stroke-width="2" d="M166.002 139.589v-40.65l2.81-.575 2.108-4.602h3.28l1.639 4.602 1.17.575v55.798M91.021 154.737v-46.019H72.176v2.876"/>
            <path stroke="#85ACB0" stroke-width="2" d="M79.193 108.718V58.29h-3.61v-4.794h-16.44v4.794h-4.21v53.304M76.321 177.746l-1.258-66.152H39.296v66.152zM76.053 155.018l42.005-.14.024 22.834h19.013l.21-22.835h47.515v23.393M23.789 177.712h188.859M0 162.939h39.296M184.82 162.939h45.34M128.089 96.302l-10.007 15.388M128.089 96.302l10.007 15.388M109.576 154.877H144.6c-5.67-4.964-11.34-7.446-17.011-7.446-5.671 0-11.675 2.482-18.013 7.446z"/>
            <path stroke="#FF444F" stroke-width="2" d="M179.375 23.29c18.713.33 29.554.33 32.522 0 4.452-.498 8.506 0 8.006-5.461-.5-5.46-6.449-.948-8.006-4.964-1.557-4.016-.5-7.446-4.003-9.432-3.502-1.985-7.123 1.49-10.507 1.49-1.845 0-2.962-.333-3.351-.997a6.045 6.045 0 0 0-7.657-2.478c-4.503 1.985-2.265 4.61-5.503 7.942-3.239 3.332-6.005-.993-7.506 4.964-1 3.971 1.001 6.95 6.005 8.935z"/>
        </g>
    </g>
</svg>
