<svg xmlns="http://www.w3.org/2000/svg" width="183" height="53"><g fill="none" fill-rule="evenodd"><path fill="#2F2F2F" fill-rule="nonzero" d="M183 15.777v17.197c0 4.36-3.235 7.891-7.252 7.891H28.898l-3.295-10.99c1.986-1.386 3.295-3.79 3.295-6.508 0-4.295-3.248-7.793-7.234-7.793h-.35l-2.232-7.42L19 7.899h156.754c4.01 0 7.246 3.549 7.246 7.878z"/><text fill="#FFF" font-family="IBM Plex Sans, sans-serif" font-size="16"><tspan x="46" y="30">Labuan, Malaysia</tspan></text><g fill-rule="nonzero"><path fill="#FF444F" d="M19.375.254C8.84.244.265 8.736.165 19.28c0 13.004 17.198 32.123 17.93 32.92a1.732 1.732 0 002.581 0 114.329 114.329 0 008.898-11.397c4.5-6.581 9.011-14.866 9.011-21.523C38.59 8.79 29.968.254 19.375.254zm0 28.59c-5.28.13-9.665-4.05-9.793-9.334-.129-5.284 4.047-9.672 9.327-9.8h.466c5.313-.022 9.64 4.265 9.673 9.582a9.5 9.5 0 01-4.406 8 9.621 9.621 0 01-5.267 1.54v.013z"/><ellipse cx="19.38" cy="19.271" fill="#FFF" rx="9.669" ry="9.557"/></g></g></svg>