<?xml version="1.0" encoding="UTF-8"?>
<svg width="210px" height="101px" viewBox="0 0 210 101" version="1.1" xmlns="http://www.w3.org/2000/svg" xmlns:xlink="http://www.w3.org/1999/xlink" role='img' aria-labelledby='labuan-svg'>
    <!-- Generator: Sketch 57.1 (83088) - https://sketch.com -->
    <title id='labuan-svg'>Labuan</title>
    <desc>Created with Sketch.</desc>
    <g id="About-us" stroke="none" stroke-width="1" fill="none" fill-rule="evenodd">
        <g id="1.0---About-us" transform="translate(-789.000000, -2510.000000)" stroke="#85ACB0">
            <g id="Our-locations" transform="translate(0.000000, 1954.000000)">
                <g id="4-illustration/about_us/labuan" transform="translate(730.000000, 472.000000)">
                    <g id="icons/about-us/labuan" transform="translate(60.000000, 85.000000)">
                        <path d="M33.7205334,39.5942081 C25.0494135,36.961293 20.9047286,34.7713152 23.117701,32.9550846 C26.4371596,30.2307386 41.4906202,24.1207492 105.428154,24.1207492 C169.365688,24.1207492 180.280436,31.7450252 184.561599,32.9550846 C187.415708,33.7617908 183.879486,37.2731286 173.952935,43.4890977" id="Path-47" stroke-width="2"></path>
                        <path d="M33.9504978,36.0150725 L33.9504978,94.0008862 L173.952935,94.0008862 L173.952935,36.0150725 C164.589241,30.5230246 141.194655,27.7770006 103.769178,27.7770006 C66.3437012,27.7770006 43.0708077,30.5230246 33.9504978,36.0150725 Z" id="Path-22" stroke-width="2" fill="#E7EEEF"></path>
                        <path d="M22.4427829,33.8049235 C22.4427829,28.8134851 20.9047286,29.7798769 23.117701,27.9636462 C26.4371596,25.2393003 41.4906202,19.1293109 105.428154,19.1293109 C169.365688,19.1293109 184.671835,29.2327224 184.561599,27.9636462 C184.561599,27.9636462 185.517645,29.9310477 185.517645,33.8049235" id="Path-24" stroke-width="2"></path>
                        <path d="M24.5478235,26.4671172 C23.1444631,17.1435528 26.2786879,10.4941386 33.9504978,6.51887469 C41.6223078,2.54361075 53.5321719,7.03598727 69.6800902,19.9960042" id="Path-25" stroke-width="2"></path>
                        <path d="M138.118324,26.4671172 C136.714963,17.1435528 139.849188,10.4941386 147.520998,6.51887469 C155.192808,2.54361075 167.124492,7.02393723 183.316051,19.9598541" id="Path-25" stroke-width="2" transform="translate(160.554428, 15.792155) scale(-1, 1) translate(-160.554428, -15.792155) "></path>
                        <path d="M72.7133994,20.0209353 C81.9869185,7.29693278 92.3224812,0.934931507 103.720088,0.934931507 C115.117694,0.934931507 125.474572,7.29693278 134.790721,20.0209353" id="Path-28" stroke-width="2"></path>
                        <path d="M78.856241,19.1293109 C87.4153722,11.3925845 95.703321,7.52422131 103.720088,7.52422131 C111.736854,7.52422131 119.572823,11.3925845 127.227994,19.1293109 L102.277367,19.1293109 L78.856241,19.1293109 Z" id="Path-29" stroke-width="2" fill="#E7EEEF"></path>
                        <path d="M35.474788,20.0209353 C41.7822201,15.7070218 47.6814036,13.9358749 53.1723385,14.7074946 C58.6632735,15.4791143 62.5713847,18.4138921 64.896672,23.5118281 L50.18573,21.5668712 L35.474788,20.0209353 Z" id="Path-30" stroke-width="2" fill="#E7EEEF" transform="translate(50.185730, 19.021854) scale(-1, 1) translate(-50.185730, -19.021854) "></path>
                        <path d="M144.79767,20.6252158 C151.105102,16.3113023 157.004286,14.5401554 162.495221,15.3117751 C167.986156,16.0833948 171.811889,19.2211463 173.972419,24.7250297 L161.345455,22.6303363 L144.79767,20.6252158 Z" id="Path-30" stroke-width="2" fill="#E7EEEF"></path>
                        <path d="M33.9504978,79.6688976 L0,76.0317081" id="Path-31" stroke-width="2" stroke-linecap="round"></path>
                        <path d="M33.9504978,73.6791715 L0,70.0419821" id="Path-31" stroke-width="2" stroke-linecap="round"></path>
                        <path d="M81.2822037,28.7562263 L81.2822037,72.6808839" id="Path-32" stroke-width="2"></path>
                        <path d="M90.2597968,28.7562263 L90.2597968,72.6808839" id="Path-32-Copy-2" stroke-width="2"></path>
                        <path d="M117.27856,28.7562263 L117.27856,72.6808839" id="Path-32-Copy-3" stroke-width="2"></path>
                        <path d="M126.284814,28.7562263 L126.284814,72.6808839" id="Path-32-Copy-4" stroke-width="2"></path>
                        <path d="M99.2660511,28.7562263 L99.2660511,72.6808839" id="Path-32-Copy-3" stroke-width="2"></path>
                        <path d="M108.272305,28.7562263 L108.272305,72.6808839" id="Path-32-Copy-4" stroke-width="2"></path>
                        <path d="M81.2822037,77.0299958 L81.2822037,93.0025985" id="Path-32" stroke-width="2"></path>
                        <path d="M90.2597968,77.0299958 L90.2597968,93.0025985" id="Path-32-Copy-2" stroke-width="2"></path>
                        <path d="M117.27856,77.0299958 L117.27856,93.0025985" id="Path-32-Copy-3" stroke-width="2"></path>
                        <path d="M126.284814,77.0299958 L126.284814,93.0025985" id="Path-32-Copy-4" stroke-width="2"></path>
                        <path d="M99.2660511,77.0299958 L99.2660511,93.0025985" id="Path-32-Copy-3" stroke-width="2"></path>
                        <path d="M108.272305,77.0299958 L108.272305,93.0025985" id="Path-32-Copy-4" stroke-width="2"></path>
                        <path d="M41.5288395,33.8049235 L41.5288395,73.6791715" id="Path-32-Copy" stroke-width="2"></path>
                        <path d="M51.2326946,30.2210119 L51.2326946,73.6791715" id="Path-32-Copy-2" stroke-width="2"></path>
                        <path d="M60.238949,28.7562263 L60.238949,73.6791715" id="Path-32-Copy-3" stroke-width="2"></path>
                        <path d="M167.313306,33.6044821 L167.313306,74.0351328" id="Path-32" stroke-width="2" transform="translate(167.313306, 53.570236) scale(-1, 1) translate(-167.313306, -53.570236) "></path>
                        <path d="M156.305662,30.6974893 L156.305662,74.0351328" id="Path-32-Copy" stroke-width="2" transform="translate(156.305662, 52.072804) scale(-1, 1) translate(-156.305662, -52.072804) "></path>
                        <path d="M146.298713,29.1121876 L146.298713,74.0351328" id="Path-32-Copy-3" stroke-width="2" transform="translate(146.298713, 51.573660) scale(-1, 1) translate(-146.298713, -51.573660) "></path>
                        <path d="M73.7483305,33.6044821 L131.899085,33.6044821" id="Path-33" stroke-width="2"></path>
                        <path d="M73.7483305,40.5924958 L131.899085,40.5924958" id="Path-33-Copy" stroke-width="2"></path>
                        <path d="M73.8587788,47.5805095 L130.89839,47.5805095" id="Path-33-Copy" stroke-width="2"></path>
                        <path d="M73.7483305,55.5668109 L131.899085,55.5668109" id="Path-33" stroke-width="2"></path>
                        <path d="M73.7483305,62.5548245 L131.899085,62.5548245" id="Path-33-Copy" stroke-width="2"></path>
                        <path d="M73.7483305,69.5428382 L131.899085,69.5428382" id="Path-33-Copy" stroke-width="2"></path>
                        <path d="M137.903254,40.5924958 L173.928271,40.5924958" id="Path-33" stroke-width="2" transform="translate(155.915763, 40.592496) scale(-1, 1) translate(-155.915763, -40.592496) "></path>
                        <path d="M137.903254,47.5805095 L173.928271,47.5805095" id="Path-33-Copy" stroke-width="2" transform="translate(155.915763, 47.580509) scale(-1, 1) translate(-155.915763, -47.580509) "></path>
                        <path d="M136.902559,55.5668109 L172.927577,55.5668109" id="Path-33" stroke-width="2" transform="translate(154.915068, 55.566811) scale(-1, 1) translate(-154.915068, -55.566811) "></path>
                        <path d="M136.902559,62.5548245 L172.927577,62.5548245" id="Path-33-Copy" stroke-width="2" transform="translate(154.915068, 62.554825) scale(-1, 1) translate(-154.915068, -62.554825) "></path>
                        <path d="M136.902559,69.5428382 L172.927577,69.5428382" id="Path-33-Copy" stroke-width="2" transform="translate(154.915068, 69.542838) scale(-1, 1) translate(-154.915068, -69.542838) "></path>
                        <path d="M74.7490254,82.520578 L132.899779,82.520578" id="Path-33" stroke-width="2"></path>
                        <path d="M74.7490254,88.510304 L132.899779,88.510304" id="Path-33-Copy" stroke-width="2"></path>
                        <path d="M37.9734868,79.0265711 L37.9734868,93.0025985" id="Path-32" stroke-width="2"></path>
                        <path d="M45.9790462,79.0265711 L45.9790462,93.0025985" id="Path-32-Copy" stroke-width="2"></path>
                        <path d="M54.2347794,79.0265711 L54.2347794,93.0025985" id="Path-32-Copy-5" stroke-width="2"></path>
                        <path d="M63.2410337,77.8503028 L63.2410337,93.0025985" id="Path-32-Copy-3" stroke-width="2"></path>
                        <path d="M33.7205334,82.520578 L69.7455508,82.520578" id="Path-33" stroke-width="2"></path>
                        <path d="M33.7205334,88.510304 L69.7455508,88.510304" id="Path-33-Copy" stroke-width="2"></path>
                        <path d="M74.7490254,29.1121876 L74.7499621,73.1149798 C85.3088924,72.8867602 95.7113528,72.7726504 105.957343,72.7726504 C114.64293,72.7726504 123.253553,72.8546503 131.789212,73.0186502 L131.788636,29.1121876 L137.792806,29.1121876 L137.793645,73.1478367 C150.001353,73.4387025 162.054449,73.8986903 173.952935,74.5277999 L173.952935,79.4093093 C162.279847,78.6834307 150.226768,78.1556237 137.793696,77.8258882 L137.792806,94.0008862 L131.788636,94.0008862 L131.790109,77.6826885 C123.350883,77.5036949 114.739961,77.414198 105.957343,77.414198 C95.5660832,77.414198 85.1632865,77.5394822 74.7489531,77.7900505 L74.7490254,94.0008862 L68.7448558,94.0008862 L68.7448838,77.9483519 C57.1610162,78.2804665 45.5628876,78.7674523 33.9504978,79.4093093 L33.9504978,74.5277999 C45.7297231,73.9721403 57.3280342,73.5484171 68.7454311,73.2566304 L68.7448558,29.1121876 L74.7490254,29.1121876 Z" id="Combined-Shape" stroke-width="2" fill="#FFFFFF"></path>
                        <path d="M0.697600796,59.2627717 C6.28549189,50.1922881 11.8923762,44.3970014 17.5182538,41.8769115 C23.1441314,39.3568216 28.8025477,38.0967766 34.4935027,38.0967766" id="Path-35" stroke-width="2" transform="translate(17.595552, 48.679774) scale(1, -1) translate(-17.595552, -48.679774) "></path>
                        <path d="M173.817823,59.2627717 C179.405714,50.1922881 185.012599,44.3970014 190.638476,41.8769115 C196.264354,39.3568216 201.92277,38.0967766 207.613725,38.0967766" id="Path-35-Copy" stroke-width="2" transform="translate(190.715774, 48.679774) scale(-1, -1) translate(-190.715774, -48.679774) "></path>
                        <path d="M4.76605185,94.0008862 L200.735684,94.0008862" id="Path-36" stroke-width="2"></path>
                        <path d="M142.546107,77.8503028 L142.546107,93.0025985" id="Path-32" stroke-width="2" transform="translate(142.295933, 85.016297) scale(-1, 1) translate(-142.295933, -85.016297) "></path>
                        <path d="M151.052014,79.0265711 L151.052014,93.0025985" id="Path-32-Copy" stroke-width="2" transform="translate(151.052014, 86.014585) scale(-1, 1) translate(-151.052014, -86.014585) "></path>
                        <path d="M159.307747,79.0265711 L159.307747,93.0025985" id="Path-32-Copy-5" stroke-width="2" transform="translate(159.307747, 86.014585) scale(-1, 1) translate(-159.307747, -86.014585) "></path>
                        <path d="M167.313306,79.0265711 L167.313306,93.0025985" id="Path-32-Copy-3" stroke-width="2" transform="translate(167.313306, 86.014585) scale(-1, 1) translate(-167.313306, -86.014585) "></path>
                        <path d="M137.792806,82.520578 L173.817823,82.520578" id="Path-33" stroke-width="2" transform="translate(155.805314, 82.520578) scale(-1, 1) translate(-155.805314, -82.520578) "></path>
                        <path d="M137.792806,88.510304 L173.817823,88.510304" id="Path-33-Copy" stroke-width="2" transform="translate(155.805314, 88.510304) scale(-1, 1) translate(-155.805314, -88.510304) "></path>
                        <path d="M207.768321,79.6688976 L173.817823,76.0317081" id="Path-31" stroke-width="2" stroke-linecap="round" transform="translate(190.793072, 77.850303) scale(-1, 1) translate(-190.793072, -77.850303) "></path>
                        <path d="M207.768321,73.6791715 L173.817823,70.0419821" id="Path-31" stroke-width="2" stroke-linecap="round" transform="translate(190.793072, 71.860577) scale(-1, 1) translate(-190.793072, -71.860577) "></path>
                        <rect id="Rectangle" stroke-width="2" x="63.7406863" y="94.0025985" width="80.056984" height="4.9880137"></rect>
                        <path d="M137.903254,33.6044821 L167.743997,33.6044821" id="Path-34" stroke-width="2"></path>
                        <path d="M34.7212283,40.5924958 L67.7441609,40.5924958" id="Path-33" stroke-width="2" transform="translate(51.232695, 40.592496) scale(-1, 1) translate(-51.232695, -40.592496) "></path>
                        <path d="M34.7212283,47.5805095 L67.7441609,47.5805095" id="Path-33-Copy" stroke-width="2" transform="translate(51.232695, 47.580509) scale(-1, 1) translate(-51.232695, -47.580509) "></path>
                        <path d="M33.7205334,55.5668109 L67.7441609,55.5668109" id="Path-33" stroke-width="2" transform="translate(50.732347, 55.566811) scale(-1, 1) translate(-50.732347, -55.566811) "></path>
                        <path d="M33.7205334,62.5548245 L67.7441609,62.5548245" id="Path-33-Copy" stroke-width="2" transform="translate(50.732347, 62.554825) scale(-1, 1) translate(-50.732347, -62.554825) "></path>
                        <path d="M33.7205334,69.5428382 L67.7441609,69.5428382" id="Path-33-Copy" stroke-width="2" transform="translate(50.732347, 69.542838) scale(-1, 1) translate(-50.732347, -69.542838) "></path>
                        <path d="M40.7253979,33.6044821 L67.5820664,33.6044821" id="Path-34" stroke-width="2" transform="translate(54.234779, 33.604482) scale(-1, 1) translate(-54.234779, -33.604482) "></path>
                    </g>
                </g>
            </g>
        </g>
    </g>
</svg>