<svg width="328" height="200" xmlns="http://www.w3.org/2000/svg"><g stroke="#85ACB0" stroke-width="2" fill="none" fill-rule="evenodd"><path d="M93.72 124.594c-8.67-2.633-12.815-4.823-10.602-6.639 3.32-2.724 18.373-8.834 82.31-8.834 63.938 0 74.852 7.624 79.134 8.834 2.854.807-.683 4.318-10.61 10.534"/><path d="M93.95 121.015v57.986h140.003v-57.986c-9.364-5.492-32.758-8.238-70.184-8.238-37.425 0-60.698 2.746-69.819 8.238z" fill="#E7EEEF"/><path d="M82.443 118.805c0-4.992-1.538-4.025.675-5.841 3.32-2.725 18.373-8.835 82.31-8.835 63.938 0 79.244 10.104 79.134 8.835 0 0 .956 1.967.956 5.84"/><path d="M84.548 111.467c-1.404-9.323 1.73-15.973 9.402-19.948 7.672-3.975 19.582.517 35.73 13.477M242.99 111.467c1.404-9.323-1.73-15.973-9.402-19.948-7.672-3.975-19.604.505-35.795 13.44M132.713 105.02c9.274-12.723 19.61-19.085 31.007-19.085 11.398 0 21.755 6.362 31.07 19.086"/><path d="M138.856 104.13c8.56-7.737 16.847-11.606 24.864-11.606s15.853 3.869 23.508 11.605h-48.372zM124.897 105.02c-6.308-4.313-12.207-6.084-17.698-5.313-5.49.772-9.399 3.707-11.724 8.805l14.71-1.945 14.712-1.546zM204.798 105.625c6.307-4.314 12.206-6.085 17.697-5.313 5.491.771 9.317 3.91 11.477 9.413l-12.627-2.095-16.547-2.005z" fill="#E7EEEF"/><path d="M93.95 164.669L60 161.032M93.95 158.68L60 155.041" stroke-linecap="round"/><path d="M141.282 113.756v43.925M150.26 113.756v43.925M177.279 113.756v43.925M186.285 113.756v43.925M159.266 113.756v43.925M168.272 113.756v43.925M141.282 162.03v15.973M150.26 162.03v15.973M177.279 162.03v15.973M186.285 162.03v15.973M159.266 162.03v15.973M168.272 162.03v15.973M101.529 118.805v39.874M111.233 115.221v43.458M120.239 113.756v44.923M227.313 118.604v40.431M216.306 115.697v43.338M206.299 114.112v44.923M133.748 118.604H191.9M133.748 125.592H191.9M133.859 132.58h57.04M133.748 140.567H191.9M133.748 147.555H191.9M133.748 154.543H191.9M233.928 125.592h-36.025M233.928 132.58h-36.025M232.928 140.567h-36.025M232.928 147.555h-36.025M232.928 154.543h-36.025M134.749 167.52h58.15M134.749 173.51h58.15M97.973 164.027v13.976M105.979 164.027v13.976M114.235 164.027v13.976M123.241 162.85v15.153M93.72 167.52h36.026M93.72 173.51h36.026"/><path d="M134.749 114.112l.001 44.003c10.559-.228 20.961-.342 31.207-.342 8.686 0 17.297.082 25.832.246v-43.907h6.004v44.036c12.208.29 24.261.75 36.16 1.38v4.881a1017.681 1017.681 0 00-36.16-1.583V179h-6.004l.001-16.318c-8.44-.18-17.05-.269-25.833-.269-10.39 0-20.794.125-31.208.376V179h-6.004v-16.052c-11.584.332-23.182.82-34.795 1.461v-4.881c11.78-.556 23.378-.98 34.795-1.271v-44.145h6.004z" fill="#FFF"/><path d="M60.698 123.097c5.587 9.07 11.194 14.866 16.82 17.386 5.626 2.52 11.285 3.78 16.976 3.78M267.614 123.097c-5.588 9.07-11.195 14.866-16.82 17.386-5.627 2.52-11.285 3.78-16.976 3.78M64.766 179h195.97M202.046 162.85v15.153M211.052 164.027v13.976M219.308 164.027v13.976M227.313 164.027v13.976M233.818 167.52h-36.025M233.818 173.51h-36.025"/><path d="M233.818 164.669l33.95-3.637M233.818 158.68l33.95-3.638" stroke-linecap="round"/><path d="M123.741 179.003h80.057v4.988h-80.057zM197.903 118.604h29.841M127.744 125.592H94.721M127.744 132.58H94.721M127.744 140.567H93.721M127.744 147.555H93.721M127.744 154.543H93.721M127.744 118.604h-26.857"/></g></svg>