<?xml version="1.0" encoding="UTF-8"?>
<svg fill="none" viewBox="0 0 102 120" xmlns="http://www.w3.org/2000/svg">
<path d="m51.106 23.884c-2.442 0-4.87 0.34-7.216 1.014-9.608 2.75-16.668 9.652-19.374 18.94-2.75 9.452-0.55 20.044 5.604 26.982 0.93 1.048 1.878 2.076 2.828 3.106 0.948 1.022 1.828 1.978 2.694 2.948 2.21 2.47 3.386 5.04 3.592 7.858l0.134 1.782c0.154 2.038 0.292 3.894 0.374 5.754 0.084 1.862 0.498 2.264 2.324 2.268l14.622 4e-3c1.204 0 2.406-2e-3 3.612-8e-3 1.368-8e-3 1.898-0.534 1.95-1.94l0.064-1.556c0.048-1.088 0.088-2.002 0.1-2.914 0.072-5.356 1.87-9.594 5.496-12.956 0.598-0.554 1.148-1.156 1.694-1.758 0.336-0.366 0.668-0.732 1.01-1.084 6.41-6.656 8.998-15.036 7.686-24.898-1.762-13.202-13.706-23.542-27.194-23.542zm-6.7022 91.854 13.212 2e-3c1.28 4e-3 2.05 0.786 2.0601 2.088 0.0039 0.6-0.1581 1.114-0.4701 1.486-0.374 0.442-0.934 0.678-1.628 0.678l-6.752 8e-3 -6.462-8e-3c-1.256-2e-3 -2.044-0.812-2.0541-2.112-0.0039-0.61 0.1501-1.106 0.4561-1.472 0.366-0.436 0.932-0.666 1.638-0.67zm14.837-6.392c1.594 6e-3 2.552 0.788 2.5661 2.09 0.0059 0.6-0.1961 1.114-0.5861 1.486-0.464 0.442-1.164 0.676-2.026 0.678l-8.41 8e-3 -8.048-8e-3c-1.564-4e-3 -2.544-0.812-2.5581-2.112-0.0059-0.61 0.1841-1.108 0.5681-1.474 0.454-0.434 1.16-0.666 2.038-0.668h16.456zm-2.7938-6.925c1.228 0 2.454 2e-3 3.682 8e-3 0.994 6e-3 1.79 0.238 2.3 0.672 0.422 0.362 0.634 0.848 0.6281 1.452-0.0101 1.304-1.1521 2.118-2.9801 2.122-3.018 6e-3 -6.036 8e-3 -9.054 8e-3l-9.046-6e-3c-1.044-2e-3 -1.876-0.24-2.406-0.69-0.43-0.364-0.646-0.858-0.6421-1.466 0.0081-1.876 2.0861-2.088 2.9781-2.092l14.54-8e-3zm-5.341-82.537c15.452 0 29.138 11.866 31.158 27.012 1.48 11.132-1.47 20.622-8.774 28.208-0.32 0.33-0.624 0.664-0.928 0.998-0.622 0.684-1.252 1.366-1.934 1.996-2.816 2.614-4.156 5.818-4.214 10.078-0.014 0.954-0.054 1.906-0.096 2.858l-0.072 1.714c-0.13 3.544-2.4 5.762-5.924 5.784-1.212 6e-3 -2.424 8e-3 -3.636 8e-3l-14.622-4e-3c-3.954-8e-3 -6.136-2.112-6.318-6.088-0.08-1.822-0.216-3.636-0.352-5.452l-0.148-1.97c-0.14-1.904-0.986-3.698-2.588-5.486-0.85-0.954-1.716-1.892-2.582-2.828-1.034-1.122-2.004-2.17-2.948-3.238-7.046-7.942-9.576-20.014-6.452-30.754 3.098-10.634 11.156-18.532 22.112-21.668 2.704-0.774 5.504-1.168 8.318-1.168zm-31.27 59.777 3.006 3.006-1.228 1.232c-1.644 1.652-3.288 3.304-4.948 4.938-1.058 1.042-2.324 1.136-3.238 0.22-0.906-0.924-0.804-2.17 0.266-3.25 1.138-1.148 2.282-2.292 3.428-3.434l2.714-2.712zm62.313 0 2.714 2.712c1.146 1.142 2.29 2.286 3.428 3.434 1.07 1.08 1.172 2.326 0.266 3.25-0.914 0.916-2.18 0.822-3.238-0.22-1.66-1.634-3.304-3.286-4.948-4.938l-1.228-1.232 3.006-3.006zm-72.713-31.099 1.74 4e-3v4.25h-3.838c-1.618 2e-3 -3.234 4e-3 -4.852-2e-3 -1.52-6e-3 -2.474-0.816-2.486-2.112 0-1.292 0.96-2.122 2.446-2.134 2.33-0.016 4.66-0.012 6.99-6e-3zm87.773-4e-3 2.33 0.01c1.4862 0.012 2.4462 0.842 2.4462 2.134-0.012 1.296-0.966 2.106-2.4862 2.112-1.618 6e-3 -3.234 4e-3 -4.852 2e-3h-3.838v-4.25l1.74-4e-3c2.33-6e-3 4.66-0.01 6.99 6e-3l-2.33-0.01zm-80.543-33.903c1.66 1.634 3.304 3.286 4.948 4.938l1.228 1.232-3.006 3.006-2.714-2.712c-1.146-1.142-2.29-2.286-3.428-3.434-1.07-1.08-1.172-2.326-0.266-3.25 0.914-0.916 2.18-0.822 3.238 0.22zm68.653 0c1.058-1.042 2.324-1.136 3.238-0.22 0.906 0.924 0.804 2.17-0.266 3.25-1.138 1.148-2.282 2.292-3.428 3.434l-2.714 2.712-3.006-3.006 1.228-1.232c1.644-1.652 3.288-3.304 4.948-4.938zm-34.341-14.655c1.292 0 2.122 0.96 2.134 2.446 0.018 2.33 0.012 4.66 6e-3 6.992l-4e-3 1.738h-4.25v-3.836c-2e-3 -1.618-4e-3 -3.236 2e-3 -4.852 8e-3 -1.522 0.816-2.474 2.112-2.488z" clip-rule="evenodd" fill="url(#a)" fill-rule="evenodd"/>
<defs>
<linearGradient id="a" x1="50.992" x2="50.992" y1=".41685" y2="119.79" gradientUnits="userSpaceOnUse">
<stop stop-color="#FF6444" offset="0"/>
<stop stop-color="#FF444F" offset=".99913"/>
</linearGradient>
</defs>
</svg>
