<svg xmlns="http://www.w3.org/2000/svg" width="64" height="64"><g fill="none" fill-rule="evenodd"><path stroke="#85ACB0" stroke-width="1.938" d="M62.969 31.969c0 17.12-13.88 31-31 31-17.121 0-31-13.88-31-31 0-17.121 13.879-31 31-31 17.12 0 31 13.879 31 31z"/><path stroke="#0E0E0E" stroke-width="2" d="M33.969 31.969a2 2 0 11-4.002-.002 2 2 0 014.002.002z"/><path stroke="#85ACB0" stroke-width="2" d="M7.469 31.969a24.42 24.42 0 007.176 17.324l6.01-6.011a15.946 15.946 0 01-4.686-11.313c0-4.418 1.79-8.418 4.687-11.313l-6.011-6.011a24.42 24.42 0 00-7.176 17.324z"/><path stroke="#FF444F" stroke-width="2" d="M43.282 20.655a15.95 15.95 0 014.687 11.313 15.95 15.95 0 01-4.687 11.314l6.011 6.011a24.428 24.428 0 007.176-17.325c0-6.765-2.743-12.89-7.176-17.324l-6.01 6.011z"/><path stroke="#85ACB0" stroke-width="2" d="M31.969 7.469a24.42 24.42 0 00-17.324 7.176l6.01 6.01A15.946 15.946 0 0131.97 15.97c4.418 0 8.418 1.79 11.313 4.687l6.01-6.011A24.42 24.42 0 0031.97 7.469z"/><path stroke="#0E0E0E" stroke-width="2" d="M31.969 29.969v-11"/></g></svg>