<svg xmlns="http://www.w3.org/2000/svg" width="24" height="320"><g fill="none" fill-rule="evenodd"><path fill="#FF444F" fill-rule="nonzero" d="M11 27v2a1 1 0 002 0v-2a1 1 0 00-2 0zm0 9v2a1 1 0 002 0v-2a1 1 0 00-2 0zm0 8v2a1 1 0 002 0v-2a1 1 0 00-2 0zm0 10v2a1 1 0 002 0v-2a1 1 0 00-2 0zm0 8v2a1 1 0 002 0v-2a1 1 0 00-2 0zm0 9v2a1 1 0 002 0v-2a1 1 0 00-2 0zm0 8v2a1 1 0 002 0v-2a1 1 0 00-2 0zm0 9v2a1 1 0 002 0v-2a1 1 0 00-2 0zm0 10v2a1 1 0 102 0v-2a1 1 0 00-2 0zm0 8v2a1 1 0 102 0v-2a1 1 0 10-2 0zm0 9v2a1 1 0 102 0v-2a1 1 0 10-2 0zm0 8v2a1 1 0 102 0v-2a1 1 0 10-2 0zm0 10v2a1 1 0 102 0v-2a1 1 0 10-2 0zm0 8v2a1 1 0 102 0v-2a1 1 0 10-2 0zm0 9v2a1 1 0 102 0v-2a1 1 0 10-2 0zm0 9v2a1 1 0 102 0v-2a1 1 0 10-2 0zm0 8v2a1 1 0 102 0v-2a1 1 0 10-2 0zm0 10v2a1 1 0 102 0v-2a1 1 0 10-2 0zm0 8v2a1 1 0 102 0v-2a1 1 0 10-2 0zm0 9v2a1 1 0 102 0v-2a1 1 0 10-2 0zm0 9v2a1 1 0 102 0v-2a1 1 0 10-2 0zm0 8v2a1 1 0 102 0v-2a1 1 0 10-2 0zm0 10v2a1 1 0 102 0v-2a1 1 0 10-2 0zm0 8v2a1 1 0 102 0v-2a1 1 0 10-2 0zm0 9v2a1 1 0 102 0v-2a1 1 0 10-2 0zm0 8v2a1 1 0 102 0v-2a1 1 0 10-2 0zm0 10v2a1 1 0 102 0v-2a1 1 0 10-2 0zm0 9v2a1 1 0 102 0v-2a1 1 0 10-2 0zm0 8v2a1 1 0 102 0v-2a1 1 0 10-2 0zm0 9v2a1 1 0 102 0v-2a1 1 0 10-2 0zm0 8v2a1 1 0 102 0v-2a1 1 0 10-2 0zm0 10v2a1 1 0 102 0v-2a1 1 0 10-2 0zm0 9v2a1 1 0 102 0v-2a1 1 0 10-2 0zm0 8v2a1 1 0 102 0v-2a1 1 0 10-2 0z"/><g transform="translate(0 296)"><circle cx="12" cy="12" r="12" fill="#FF444F"/><path stroke="#FFF" stroke-linecap="round" stroke-linejoin="round" stroke-width="1.536" d="M8.5 12.5L12 15l5-6"/></g><g transform="translate(0 148)"><circle cx="12" cy="12" r="12" fill="#FF444F"/><path stroke="#FFF" stroke-linecap="round" stroke-linejoin="round" stroke-width="1.536" d="M8.5 12.5L12 15l5-6"/></g><circle cx="12" cy="12" r="12" fill="#FF444F"/><path stroke="#FFF" stroke-linecap="round" stroke-linejoin="round" stroke-width="1.536" d="M8.5 12.5L12 15l5-6"/></g></svg>