<svg role="img" xmlns="http://www.w3.org/2000/svg" width="64" height="64" viewBox="0 0 64 64" aria-labelledby="liquid-market-icon-title">
    <title id='liquid-market-icon-title'>liquid market</title>
    <g fill="none" fill-rule="evenodd">
        <path d="M.726.736h63.045v63.045H.726z"/>
        <path fill="#85ACB0" fill-rule="nonzero" d="M53.09 42.016C49.488 51.026 40.95 56.934 31.443 57 18.988 57 8.982 46.169 8.982 33v-2c0-.552-.444-1-.991-1A.995.995 0 0 0 7 31v2c0 14.243 10.862 26 24.45 26 10.32-.072 19.576-6.477 23.478-16.236a1.003 1.003 0 0 0-.548-1.301.988.988 0 0 0-1.29.553zM9.58 27.004C12.36 16.644 21.372 9 31.6 9c12.686 0 23.476 11.101 23.476 23.99a24.408 24.408 0 0 1-.265 3.552 1 1 0 1 0 1.978.294c.19-1.273.286-2.558.287-3.845C57.076 19.009 45.404 7 31.6 7 20.424 7 10.654 15.288 7.648 26.485a1 1 0 0 0 1.932.519z"/>
        <path fill="#85ACB0" fill-rule="nonzero" d="M46.06 40.871C43.924 50.303 38.046 57 31.845 57c-8.074 0-14.88-10.56-14.88-23.622V32c0-.552-.44-1-.982-1A.991.991 0 0 0 15 32v1.378C15 47.412 22.469 59 31.844 59c7.28 0 13.81-7.439 16.13-17.68a1 1 0 0 0-.736-1.198.982.982 0 0 0-1.177.75zM17.199 27.388c1.626-10.723 7.775-18.324 14.737-18.324 8.216 0 15.14 10.655 15.14 23.848 0 1.35-.074 2.7-.221 4.043a1 1 0 0 0 1.988.217c.155-1.415.233-2.837.233-4.26 0-14.163-7.593-25.848-17.14-25.848-8.134 0-14.957 8.433-16.714 20.024a1 1 0 0 0 1.977.3z"/>
        <path fill="#85ACB0" fill-rule="nonzero" d="M37.066 38.521c-.262 5.012-1.072 9.76-2.218 13.284-.539 1.658-1.133 2.978-1.728 3.857-.503.742-.932 1.068-1.184 1.068-2.372 0-5.78-10.57-5.922-21.79a1 1 0 0 0-2 .026c.156 12.354 3.835 23.764 7.922 23.764 3.587 0 6.554-9.124 7.128-20.104a1 1 0 1 0-1.998-.105zM26.68 29.606c.316-11.52 2.892-20.532 5.001-20.532 2.3 0 5 10.989 5 23.915v1.085a1 1 0 0 0 2 0V32.99c0-14.273-2.86-25.915-7-25.915-3.88 0-6.65 9.69-7 22.478a1 1 0 1 0 2 .054z"/>
        <path fill="#85ACB0" fill-rule="nonzero" d="M11.155 46H52.85a1 1 0 1 0 0-2H11.155a1 1 0 0 0 0 2z"/>
        <path stroke="#85ACB0" stroke-linecap="round" stroke-linejoin="round" stroke-width="2" d="M11 22h42.421"/>
        <path fill="#FF444F" fill-rule="nonzero" d="M55.212 28.18c4.266.204 6.778 1.48 6.792 4.083 0 3.282-3.715 4.794-8.685 4.721-5.323-.068-9.804-1.294-18.73-4.6-3.183-1.177-3.785-1.398-5.17-1.88a90.218 90.218 0 0 0-12.328-3.526c-6.998-1.354-10.97-1.303-14.299 1.399-1.74 1.422-2.778 3.083-2.778 4.99 0 1.91.907 3.99 2.28 5.48 1.835 1.915 3.99 3.047 6.656 3.545a1 1 0 0 0 .367-1.966c-2.263-.422-4.04-1.356-5.566-2.947-1.036-1.126-1.737-2.734-1.737-4.112 0-1.205.724-2.363 2.041-3.44 2.688-2.181 6.24-2.227 12.64-.989a88.252 88.252 0 0 1 12.053 3.45c1.381.481 1.98.7 5.146 1.872 9.138 3.384 13.773 4.651 19.397 4.724 5.975.087 10.712-1.841 10.712-6.726-.02-4.065-3.49-5.827-8.696-6.076a1 1 0 0 0-.095 1.998z"/>
    </g>
</svg>
