<svg xmlns="http://www.w3.org/2000/svg" width="32" height="32" viewBox="0 0 32 32">
    <g fill="none">
        <path fill="#85ACB0" d="M29 10l.176.005C30.751 10.096 32 11.402 32 13v16l-.006.114c-.087.814-1.099 1.196-1.701.593L26.586 26H11l-.176-.005C9.249 25.904 8 24.598 8 23v-3h2v3l.007.117c.057.497.48.883.993.883h16l.131.009c.217.028.42.128.576.284L30 26.584V13l-.007-.117c-.057-.497-.48-.883-.993-.883h-3v-2h3zm-8-8c1.657 0 3 1.343 3 3v10c0 1.657-1.343 3-3 3H5.414l-3.707 3.707c-.602.603-1.614.22-1.701-.593L0 21V5c0-1.657 1.343-3 3-3zm0 2H3c-.552 0-1 .448-1 1v13.584l2.293-2.291c.156-.156.359-.256.576-.284L5 16h16c.552 0 1-.448 1-1V5c0-.552-.448-1-1-1zm-10 6c.552 0 1 .448 1 1 0 .513-.386.936-.883.993L11 12H7c-.552 0-1-.448-1-1 0-.513.386-.936.883-.993L7 10h4zm6-4c.552 0 1 .448 1 1 0 .513-.386.936-.883.993L17 8H7c-.552 0-1-.448-1-1 0-.513.386-.936.883-.993L7 6h10z"/>
    </g>
</svg>
