
<svg xmlns="http://www.w3.org/2000/svg" width="32" height="32" viewBox="0 0 32 32">
    <g fill="none">
        <path fill="#85ACB0" d="M21 2H3C1.343 2 0 3.343 0 5v16l.006.114c.087.814 1.099 1.196 1.701.593L5.414 18H21c1.657 0 3-1.343 3-3V5c0-1.657-1.343-3-3-3z"/>
        <path fill="#85ACB0" d="M26 10v6c0 2.21-1.79 4-4 4H8v3c0 1.598 1.249 2.904 2.824 2.995L11 26h15.586l3.707 3.707c.602.603 1.614.22 1.701-.593L32 29V13c0-1.598-1.249-2.904-2.824-2.995L29 10h-3z"/>
        <path fill="#FFF" d="M11 10c.552 0 1 .448 1 1 0 .513-.386.936-.883.993L11 12H7c-.552 0-1-.448-1-1 0-.513.386-.936.883-.993L7 10h4zM17 6c.552 0 1 .448 1 1 0 .513-.386.936-.883.993L17 8H7c-.552 0-1-.448-1-1 0-.513.386-.936.883-.993L7 6h10z"/>
    </g>
</svg>
