<svg xmlns="http://www.w3.org/2000/svg" width="156" height="120" viewBox="0 0 156 120" aria-labelledby="logo-binary" role="img">
    <title id='logo-binary'>Logo Binary</title>
    <g fill="none" fill-rule="evenodd">
        <path d="M-63-15h282v150H-63z"/>
        <g fill-rule="nonzero">
            <path fill="#FFF" d="M107.472 12.03a40.264 40.264 0 1 0 0 56.93c15.7-15.73 15.7-41.2 0-56.93z"/>
            <g fill="#293052">
                <path d="M67.787 51.062s.444 3.456 3.366 5.053l-.773-1.441s1.48-3.887-2.593-3.612z"/>
                <path d="M105.435 14.068C90.835-.528 67.17-.526 52.572 14.072c-14.597 14.598-14.597 38.265 0 52.864 14.597 14.598 38.264 14.6 52.863.004 14.59-14.604 14.59-38.268 0-52.872zm-3.86 49.007c-.41.4-.81.787-1.223 1.16-8.98 7.322-15.9 3.68-15.976 3.68-4.688-.94-7.018-.953-8.33-1.829-.33-.222-1.392-.792-1.637-.654a2.998 2.998 0 0 1-3.63-.218 4.474 4.474 0 0 1-.333-.306c-1.494-1.486-.987-3.02-.489-3.559.343-.35-.262-1.334-.262-1.334s-1.78-2.615-2.967-4.19c-1.334-1.725-1.503-5.154-1.52-5.199v-.048a13.974 13.974 0 0 1-1.944-2.851 7.116 7.116 0 0 0-1.059-1.25 6.903 6.903 0 0 1-.623-.685.29.29 0 0 1-.03-.218c.124-.743 1.72-2.38 2.063-2.606.422-.276 2.224-1.383 2.224-1.383s1.023-1.606 2.762-1.606a13.24 13.24 0 0 1 5.234.796l1.126.356c1.89.605 3.558 1.334 4.892 1.89.878.413 1.783.765 2.708 1.054 2.335.618 6.454-1.272 7.321-2.072 1.428-1.295 2.042-2.166 2.05-2.878a1.588 1.588 0 0 0-.569-1.17c-.213-.195-.48-.556-.818-.89a1.672 1.672 0 0 0-.183-.168c-3.953-4.199-3.268-6.827-3.264-6.872.169-1.885-.912-3.113-2.077-4.358l-.191-.231a2.037 2.037 0 0 1-.134-.156c1.686.276 2.829.952 6.12 1.334.913.158 1.842.207 2.766.147 2.055-.067 3.683-.25 3.794-.712-.2-.169-1.107.05-5.47-1.619-2.024-.773-2.34-.89-3.63-1.334-1.65-.556-3.437-1.334-3.437-1.334 7.116 1.868 9.45 2.597 12.706 2.642.823.027 1.646-.046 2.45-.218.446-.08 1.9-.41 2.065-.89a11.537 11.537 0 0 1-4.026-.636c-8.299-2.762-9.006-4.132-13.591-5.924-1.606-.623-2.126-.97-6.983-2.224-2.224-.573-5.586-.244-6.04.04-6.302-1.48-7.734-1.334-9.584-.92C74.46 5.57 90.99 7.36 101.597 17.937a32.73 32.73 0 0 1 3.887 4.71l.156.231c8.379 12.655 6.689 29.46-4.043 40.193l-.022.004zM80.645 27.05c3.113 1.112 4.131 4.448 4.131 4.448-3.976.889-3.14-3.154-3.14-3.154l-.991-1.294z"/>
            </g>
            <path fill="#2A3052" d="M36.104 98.585a5.943 5.943 0 0 0-1.713.23 5.728 5.728 0 0 0-2.498 1.537 4.735 4.735 0 0 0-.244.265v-1.719h-4.225v15.741h4.225v-8.821c-.06-.918.249-1.823.86-2.52a2.932 2.932 0 0 1 2.22-.87 2.69 2.69 0 0 1 2.156.84c.556.715.829 1.604.768 2.502v8.873h4.229v-9.922c0-1.845-.51-3.342-1.513-4.443-1.003-1.101-2.428-1.693-4.265-1.693zM51.68 98.69a13.564 13.564 0 0 0-3.32.347c-.911.239-1.802.55-2.662.932l-.28.13 1.172 3.386.337-.135a15.626 15.626 0 0 1 2.015-.67 9.223 9.223 0 0 1 2.25-.248 3.91 3.91 0 0 1 2.587.748c.57.508.883 1.235.856 1.99a14.658 14.658 0 0 0-1.482-.34 14.334 14.334 0 0 0-2.432-.174c-.866-.006-1.73.098-2.569.309a6.021 6.021 0 0 0-2.099.97 4.62 4.62 0 0 0-1.393 1.658 5.137 5.137 0 0 0-.502 2.329v.082c-.017.753.15 1.5.488 2.176a4.644 4.644 0 0 0 1.283 1.567 5.599 5.599 0 0 0 1.841.944c.72.212 1.468.317 2.22.314a6.766 6.766 0 0 0 3.105-.666 7.338 7.338 0 0 0 1.518-1.023v1.375h4.167V105.4c0-2.098-.586-3.756-1.775-4.93-1.19-1.176-2.951-1.78-5.325-1.78zm-.728 13.055a3.45 3.45 0 0 1-1.93-.518 1.548 1.548 0 0 1-.701-1.38v-.056a1.637 1.637 0 0 1 .78-1.445 4.287 4.287 0 0 1 2.401-.566c.628-.003 1.255.051 1.873.161.444.081.882.193 1.31.336v.626c.007.398-.083.792-.263 1.15-.188.34-.448.636-.763.87-.36.262-.764.463-1.194.591-.49.15-1 .228-1.513.231zM80.537 109.465l-4.122-10.567h-4.49l6.544 15.402c-.166.424-.43.806-.772 1.114a1.692 1.692 0 0 1-1.047.304 3.366 3.366 0 0 1-.963-.143 5.53 5.53 0 0 1-.95-.392l-.315-.161-1.468 3.173.275.143a8.907 8.907 0 0 0 1.74.7c.67.176 1.363.26 2.058.253.6.008 1.2-.073 1.775-.24a4.557 4.557 0 0 0 1.456-.791c.466-.395.864-.861 1.18-1.38.383-.647.711-1.324.98-2.023l6.293-15.954h-4.397l-3.777 10.562z"/>
            <path fill="#E78024" d="M108.117 109.53c-.511.51-1.09.948-1.722 1.305a4.412 4.412 0 0 1-3.754.131 4.323 4.323 0 0 1-1.331-.962 4.368 4.368 0 0 1-.888-1.436 5.08 5.08 0 0 1-.31-1.771v-.057a4.918 4.918 0 0 1 .31-1.74 4.46 4.46 0 0 1 .857-1.424 4.197 4.197 0 0 1 1.295-.948 3.735 3.735 0 0 1 1.624-.353 4.148 4.148 0 0 1 2.09.483c.61.361 1.169.8 1.66 1.306l.249.248 2.636-2.79-.204-.222a8.97 8.97 0 0 0-2.619-1.958 8.583 8.583 0 0 0-6.697-.295 8.358 8.358 0 0 0-4.8 4.59 8.326 8.326 0 0 0-.626 3.169v.056a8.202 8.202 0 0 0 .626 3.15c.4.975.993 1.863 1.744 2.612a8.437 8.437 0 0 0 5.946 2.38 8.12 8.12 0 0 0 3.86-.826 10.03 10.03 0 0 0 2.663-2.115l.218-.231-2.6-2.507-.227.205zM126.888 100.983a8.234 8.234 0 0 0-2.703-1.741 8.97 8.97 0 0 0-3.408-.64 8.82 8.82 0 0 0-3.403.653 8.586 8.586 0 0 0-2.694 1.771 8.26 8.26 0 0 0-1.775 2.611 7.923 7.923 0 0 0-.652 3.186v.057a7.995 7.995 0 0 0 .634 3.155 7.861 7.861 0 0 0 1.775 2.59 8.545 8.545 0 0 0 2.698 1.74 9.25 9.25 0 0 0 6.794-.022 8.214 8.214 0 0 0 4.504-4.352 7.776 7.776 0 0 0 .648-3.155v-.057a7.933 7.933 0 0 0-2.41-5.757l-.008-.04zm-6.11 10.327a4.17 4.17 0 0 1-1.723-.357 4.438 4.438 0 0 1-1.37-.949 4.74 4.74 0 0 1-1.211-3.181l-.001-.057c-.001-.592.1-1.18.297-1.74a4.058 4.058 0 0 1 .857-1.415c.376-.399.828-.722 1.33-.953a4.545 4.545 0 0 1 3.51 0c.52.23.987.559 1.377.966.386.419.688.906.887 1.436a4.79 4.79 0 0 1 .324 1.767v.057a4.905 4.905 0 0 1-.297 1.74 4.335 4.335 0 0 1-.857 1.42 4.34 4.34 0 0 1-1.331.961c-.569.226-1.18.33-1.793.305zM154.108 100.186c-1.012-1.062-2.432-1.601-4.216-1.601a6.341 6.341 0 0 0-3.19.779 7.88 7.88 0 0 0-1.984 1.645 5.14 5.14 0 0 0-1.624-1.632 5.405 5.405 0 0 0-2.987-.792 5.694 5.694 0 0 0-1.677.235 5.122 5.122 0 0 0-1.362.63c-.387.25-.743.542-1.061.871-.084.083-.155.166-.23.253v-1.689h-4.225v15.74h4.238v-8.781a3.66 3.66 0 0 1 .816-2.542 2.688 2.688 0 0 1 2.121-.87c.77-.048 1.52.253 2.033.818.537.72.796 1.604.732 2.494v8.904h4.229v-8.83c0-1.123.275-1.985.82-2.55a2.761 2.761 0 0 1 2.117-.85c.77-.048 1.52.254 2.033.819.537.732.796 1.625.732 2.524v8.874h4.225v-9.953c-.018-1.924-.528-3.434-1.54-4.496z"/>
            <g fill="#2A3052">
                <path d="M20.94 98.899h4.23v15.736h-4.23zM25.396 95.208a2.298 2.298 0 0 0-1.458-2.119 2.377 2.377 0 0 0-2.553.514 2.265 2.265 0 0 0-.49 2.51c.37.857 1.232 1.41 2.18 1.401 1.29-.012 2.326-1.042 2.321-2.306z"/>
            </g>
            <path fill="#E78024" d="M93.863 112.685c0-.93-.571-1.768-1.447-2.123a2.377 2.377 0 0 0-2.554.5 2.265 2.265 0 0 0-.505 2.505 2.344 2.344 0 0 0 2.168 1.416c.62 0 1.216-.242 1.655-.673a2.271 2.271 0 0 0 .683-1.625z"/>
            <path fill="#2A3052" d="M17.435 105.03c-.41-.432-.884-.8-1.407-1.092a10.407 10.407 0 0 0-1.087-.527l-.24-.096.218-.139a6.08 6.08 0 0 0 .541-.379 5.017 5.017 0 0 0 1.034-1.035c.304-.418.543-.877.71-1.362.191-.578.283-1.182.271-1.79v-.056a4.964 4.964 0 0 0-1.526-3.686c-1.332-1.305-3.266-1.95-5.81-1.95H.196v21.717h10.251a13.245 13.245 0 0 0 3.333-.388 7.967 7.967 0 0 0 2.613-1.14 5.316 5.316 0 0 0 1.696-1.902c.404-.812.61-1.706.599-2.61v-.057a5.558 5.558 0 0 0-.329-1.99 4.427 4.427 0 0 0-.923-1.518zm-12.997-3.273v-5.083h5.236a4.532 4.532 0 0 1 2.69.67c.589.42.923 1.102.887 1.815v.061a2.163 2.163 0 0 1-1.008 1.989 5.21 5.21 0 0 1-2.844.679H4.438v-.13zm10.033 6.432a2.22 2.22 0 0 1-1.02 2.002 5.324 5.324 0 0 1-2.947.684H4.438v-5.397h5.79c1.447 0 2.534.24 3.222.71a2.164 2.164 0 0 1 1.008 1.927l.013.074zM70.375 98.615a5.355 5.355 0 0 0-3.599 1.014 6.574 6.574 0 0 0-1.517 1.65v-2.38h-4.23v15.74h4.23v-6.07a7.825 7.825 0 0 1 .36-2.512 4.764 4.764 0 0 1 1.002-1.74 4.149 4.149 0 0 1 1.54-1.032 5.523 5.523 0 0 1 2.001-.348h.52v-4.3l-.307-.022z"/>
        </g>
    </g>
</svg>
