<?xml version="1.0" encoding="UTF-8"?>
<svg width="218px" height="27px" viewBox="0 0 218 27" version="1.1" xmlns="http://www.w3.org/2000/svg" xmlns:xlink="http://www.w3.org/1999/xlink" aria-labelledby="deriv-beta">
    <!-- Generator: Sketch 57.1 (83088) - https://sketch.com -->
    <title id='deriv-beta'>Deriv beta</title>
    <desc>Created with Sketch.</desc>
    <defs>
        <linearGradient x1="50%" y1="0%" x2="50%" y2="100%" id="linearGradient-1">
            <stop stop-color="#FF6544" offset="0%"></stop>
            <stop stop-color="#FF4449" offset="100%"></stop>
        </linearGradient>
    </defs>
    <g id="Artboard" stroke="none" stroke-width="1" fill="none" fill-rule="evenodd">
        <g id="1--logo">
            <g id="logo">
                <g id="logo/light" fill-rule="nonzero">
                    <path d="M6.13001383,0 L6.13001383,0.02925 L16.3142462,13.5 L0,26.97075 L0,27 L16.4735823,27 C21.2812172,27.0004947 25.4528128,23.6268291 26.5338866,18.864 L27.8970954,12.8565 C28.6044998,9.73992645 27.8756252,6.46547551 25.917293,3.96228707 C23.9589608,1.45909863 20.9848966,0.000361950371 17.8390041,0 L6.13001383,0 Z" id="Path" fill="url(#linearGradient-1)"></path>
                    <polygon id="Path" fill="#B51A31" points="16.3076072 13.527 9.14412172 27 0 27"></polygon>
                    <path d="M139.874965,0 L143.495436,18.87975 L153.661964,0 L159.915906,0 L144.573167,27 L139.450069,27 L133.472752,0 L139.874965,0 Z M49.9230982,0 C58.2019364,0 62.9333333,5.7825 61.6254495,13.32675 L61.6121715,13.40325 C60.3020747,20.94975 53.5612725,26.80875 45.2735823,26.80875 L34.9919779,26.80875 L39.6392808,0 L49.9230982,0 Z M107.142462,0 C110.495159,0 112.927248,0.9585 114.345781,2.72025 C115.503662,4.1471413 115.946806,6.13808932 115.595808,8.51981353 L115.543015,8.847 L115.529737,8.9235 C114.808418,13.1333108 112.168083,15.822286 108.735952,17.1292799 L108.448133,17.235 L113.226003,26.80875 L106.445367,26.80875 L100.1361,13.01625 L104.500138,13.01625 C107.237828,13.01625 109.092857,11.569823 109.562238,9.43383568 L109.60332,9.225 L109.616598,9.1485 C110.042253,6.69831429 108.632247,5.39893837 105.960699,5.32668847 L105.721715,5.3235 L99.9679115,5.3235 L96.2412172,26.80875 L90.4409405,26.80875 L95.0882434,0 L107.142462,0 Z M128.763485,0 L124.116183,26.80875 L118.313693,26.80875 L122.963209,0 L128.763485,0 Z M89.3632089,0 L88.4514523,5.247 L74.3280775,5.247 L73.3831259,10.68525 L82.5006916,10.68525 L81.591148,15.93225 L72.4735823,15.93225 L71.4976487,21.55725 L85.8113416,21.55725 L84.9017981,26.80425 L64.8254495,26.80425 L69.4727524,0 L89.3632089,0 Z M49.0002766,5.3235 L44.5189488,5.3235 L41.7150761,21.48525 L46.1986169,21.48525 C50.9432918,21.48525 54.7098202,18.2295 55.5330567,13.47975 L55.5463347,13.40325 C56.3695712,8.65575 53.7471646,5.3235 49.0002766,5.3235 Z" id="Combined-Shape" fill="#FFFFFF"></path>
                </g>
            </g>
        </g>
        <g id="1-platform/2-pills/BETA/coral_blue" transform="translate(168.000000, 3.000000)">
            <g id="account-label">
                <rect id="bg" fill="#85ACB0" fill-rule="nonzero" x="0" y="0" width="50" height="20" rx="10"></rect>
                <text id="label" text-decoration="none" font-family="IBM Plex Sans" font-size="14" font-weight="normal" linespacing="20" fill="#FFFFFF">
                    <tspan x="8.018" y="14">BETA</tspan>
                </text>
            </g>
        </g>
    </g>
</svg>