<?xml version="1.0" encoding="UTF-8"?>
<svg width="289px" height="27px" viewBox="0 0 289 27" version="1.1" xmlns="http://www.w3.org/2000/svg" xmlns:xlink="http://www.w3.org/1999/xlink" role='img' aria-labelledby="logo">
    <title id='logo'>Deriv</title>
    <desc>Deriv powered by Binary.com</desc>
    <defs>
        <linearGradient x1="50%" y1="0%" x2="50%" y2="100%" id="linearGradient-1">
            <stop stop-color="#FF6544" offset="0%"></stop>
            <stop stop-color="#FF4449" offset="100%"></stop>
        </linearGradient>
    </defs>
    <g id="Responsible-trading" stroke="none" stroke-width="1" fill="none" fill-rule="evenodd">
        <g transform="translate(-120.000000, -23.000000)" id="Header">
            <g>
                <g id="Group">
                    <g transform="translate(120.000000, 0.000000)">
                        <g id="logo/left_part">
                            <g id="poweredby-1" fill-rule="evenodd" transform="translate(0.000000, 23.000000)">
                                <g id="1--logo/2-white" fill-rule="nonzero">
                                    <g id="logo">
                                        <g id="logo/light">
                                            <path d="M6.13001383,0 L6.13001383,0.02925 L16.3142462,13.5 L0,26.97075 L0,27 L16.4735823,27 C21.2812172,27.0004947 25.4528128,23.6268291 26.5338866,18.864 L27.8970954,12.8565 C28.6044998,9.73992645 27.8756252,6.46547551 25.917293,3.96228707 C23.9589608,1.45909863 20.9848966,0.000361950371 17.8390041,0 L6.13001383,0 Z" id="Path" fill="url(#linearGradient-1)"></path>
                                            <polygon id="Path" fill="#B51A31" points="16.3076072 13.527 9.14412172 27 0 27"></polygon>
                                            <path d="M139.882987,0 L143.503458,18.87975 L153.669986,0 L159.923928,0 L144.581189,27 L139.458091,27 L133.480774,0 L139.882987,0 Z M49.9311203,0 C58.2099585,0 62.9413554,5.7825 61.6334716,13.32675 L61.6201936,13.40325 C60.3100968,20.94975 53.5692946,26.80875 45.2816044,26.80875 L35,26.80875 L39.6473029,0 L49.9311203,0 Z M107.150484,0 C110.503181,0 112.93527,0.9585 114.353803,2.72025 C115.564315,4.212 115.993637,6.32025 115.551037,8.847 L115.551037,8.847 L115.537759,8.9235 C114.796404,13.25025 112.027939,15.9705 108.456155,17.235 L108.456155,17.235 L113.234025,26.80875 L106.453389,26.80875 L100.144122,13.01625 L104.50816,13.01625 C107.334163,13.01625 109.21964,11.475 109.611342,9.225 L109.611342,9.225 L109.62462,9.1485 C110.062794,6.62625 108.55574,5.3235 105.729737,5.3235 L105.729737,5.3235 L99.9759336,5.3235 L96.2492393,26.80875 L90.4489626,26.80875 L95.0962655,0 L107.150484,0 Z M128.771507,0 L124.124205,26.80875 L118.321715,26.80875 L122.971231,0 L128.771507,0 Z M89.371231,0 L88.4594744,5.247 L74.3360996,5.247 L73.391148,10.68525 L82.5087137,10.68525 L81.5991701,15.93225 L72.4816044,15.93225 L71.5056708,21.55725 L85.8193637,21.55725 L84.9098202,26.80425 L64.8334716,26.80425 L69.4807745,0 L89.371231,0 Z M49.0082987,5.3235 L44.5269709,5.3235 L41.7230982,21.48525 L46.206639,21.48525 C50.9513139,21.48525 54.7178423,18.2295 55.5410788,13.47975 L55.5543568,13.40325 C56.3775933,8.65575 53.7551867,5.3235 49.0082987,5.3235 Z" id="Combined-Shape" fill="#FFFFFF"></path>
                                        </g>
                                    </g>
                                </g>
                            </g>
                            <line x1="179.5" y1="23" x2="179.5" y2="50" id="Path-2" stroke="#FFFFFF"></line>
                        </g>
                        <g id="logo/right_part" transform="translate(180.000000, 0.000000)">
                            <g id="Group-2" transform="translate(7.000000, 25.000000)">
                                <g id="Group" transform="translate(0.500000, 0.000000)">
                                    <g id="logogram/binary" transform="translate(0.500000, 0.000000)">
                                        <g>
                                            <path d="M20.1597396,3.7704 C15.5539581,-0.846215385 8.06134629,-0.846215385 3.45433611,3.76886154 C-1.15144537,8.38301538 -1.15144537,15.8925538 3.45433611,20.5067077 C8.06134629,25.1233231 15.5564155,25.1224 20.1597396,20.5060923 C24.7713574,15.8925538 24.7713574,8.38301538 20.1597396,3.7704" id="Fill-44" fill="#FEFEFE"></path>
                                            <path d="M8.51528946,15.2421538 C8.51528946,15.2421538 8.65075362,16.2569231 9.50408568,16.7273846 L9.2767762,16.3033846 C9.27708338,16.3033846 9.71142878,15.1612308 8.51528946,15.2421538" id="Fill-45" fill="#293052"></path>
                                            <path d="M12.288381,8.18295385 C13.2056055,8.51033846 13.5008006,9.48972308 13.5008006,9.48972308 C12.3335357,9.75618462 12.5795829,8.56264615 12.5795829,8.56264615 L12.288381,8.18295385 Z M18.4285015,18.7721846 C18.3090104,18.8894154 18.1913624,19.0035692 18.0703355,19.1137231 C15.4353886,21.2648 13.4064979,20.1946462 13.3828454,20.1946462 C12.0073159,19.9192615 11.3247732,19.9152615 10.9386542,19.6568 C10.8415869,19.5915692 10.5304187,19.4241846 10.4588469,19.4648 C10.178089,19.6321846 9.79166288,19.7183385 9.39448565,19.4014154 C9.35916053,19.3728 9.32567846,19.3404923 9.29557531,19.3112615 C8.85754381,18.8740308 9.00621649,18.4232615 9.15151025,18.2663385 C9.25257081,18.1638769 9.07471651,17.8752615 9.07471651,17.8752615 C9.07471651,17.8752615 8.55835539,17.1069538 8.20571852,16.6444923 C7.81683501,16.1368 7.76400092,15.1294154 7.75939329,15.1158769 L7.75417132,15.1017231 C7.36160171,14.6346462 7.32074744,14.4909538 7.18528328,14.2632615 C7.10603213,14.1284923 6.98439085,14.0026462 6.88118006,13.8940308 C6.81022264,13.8229538 6.7444872,13.7555692 6.69810378,13.6924923 C6.687967,13.6792615 6.68520243,13.6595692 6.6891957,13.6284923 C6.72544235,13.4103385 7.19326983,12.9294154 7.29433039,12.8623385 C7.41842908,12.7820308 7.951992,12.4574154 7.951992,12.4574154 C7.951992,12.4574154 8.25179477,11.9848 8.76231956,11.9848 C9.22308202,11.9875692 9.50414711,11.9592615 10.2985016,12.2186462 L10.6287147,12.3235692 C11.182244,12.5014154 11.670345,12.7109538 12.058307,12.8786462 C12.3872914,13.0208 12.6508475,13.1355692 12.8529686,13.1888 C13.5379688,13.3691077 14.7463951,12.8137231 15.0013504,12.5795692 C15.4194155,12.1983385 15.6000344,11.9429538 15.6024918,11.7337231 C15.6058707,11.6161846 15.5539581,11.5134154 15.4353886,11.3891077 C15.3736464,11.3324923 15.2943953,11.2263385 15.1948706,11.1254154 C15.1788975,11.1097231 15.1620029,11.0909538 15.1420365,11.0768 C13.982451,9.84295385 14.1830362,9.06910769 14.1842649,9.0568 C14.2340273,8.50172308 13.9164084,8.14541538 13.575137,7.77618462 L13.5192311,7.70695385 C13.501415,7.69064615 13.4796056,7.66203077 13.4796056,7.66203077 C13.9732357,7.74295385 14.3095923,7.94203077 15.2744289,8.04972308 C15.8221219,8.1088 15.6491824,8.10356923 16.0869067,8.09310769 C16.6898912,8.07372308 17.1675482,8.0208 17.2001088,7.88356923 C17.1417455,7.83372308 16.8751177,7.89803077 15.5945052,7.40818462 C15.0016575,7.18049231 14.907662,7.14695385 14.5310655,7.02172308 C14.0466505,6.85803077 13.5213814,6.63156923 13.5213814,6.63156923 C15.6101711,7.18049231 16.2936354,7.39556923 17.2492568,7.4088 C17.6190954,7.41556923 17.8387255,7.37095385 17.9680462,7.34449231 C18.1038175,7.31987692 18.5255688,7.22418462 18.5734881,7.07803077 C18.5879253,7.05249231 18.1689386,7.14695385 17.393629,6.89064615 C14.9552741,6.08356923 14.747931,5.67987692 13.3963611,5.15310769 C12.9245404,4.96972308 12.7712601,4.86910769 11.3475041,4.5008 C10.6950645,4.3328 9.70841847,4.42941538 9.57418301,4.51372308 C7.72591122,4.07833846 7.30600304,4.12572308 6.76353204,4.24295385 C10.3799029,1.91987692 15.2642921,2.33833846 18.4285015,5.50756923 C18.8573177,5.93833846 19.2372932,6.40141538 19.5699637,6.89218462 L19.614504,6.95956923 C20.6294101,8.48172308 21.1715739,10.2684923 21.1715739,12.1392615 C21.1715739,14.6444923 20.1969078,16.9983385 18.4285015,18.7721846 L18.4285015,18.7721846 Z M19.5622843,4.36910769 C15.2845657,0.0829538462 8.32951003,0.0829538462 4.05271295,4.36818462 C-0.22346979,8.65249231 -0.22346979,15.6244923 4.05271295,19.9097231 C8.32951003,24.1949538 15.2870231,24.1934154 19.5622843,19.9088 C23.8439962,15.6244923 23.8439962,8.65249231 19.5622843,4.36910769 L19.5622843,4.36910769 Z" id="Fill-46" fill="#293052"></path>
                                        </g>
                                    </g>
                                    <g id="Powered-by" transform="translate(28.500000, 0.000000)" fill="#FFFFFF" font-family="IBMPlexSans, IBM Plex Sans" font-size="12" font-weight="normal" line-spacing="12">
                                        <text id="A-Binary.com-brand">
                                            <tspan x="0" y="12.3718872">A </tspan>
                                            <tspan x="9.96" y="12" font-family="IBMPlexSans-Bold, IBM Plex Sans" font-weight="bold">Binary.com</tspan>
                                            <tspan x="77.04" y="15.7999268"></tspan>
                                            <tspan x="0" y="24.3718872">brand</tspan>
                                        </text>
                                    </g>
                                </g>
                            </g>
                        </g>
                    </g>
                </g>
            </g>
        </g>
    </g>
</svg>