<svg xmlns="http://www.w3.org/2000/svg" width="284" height="27"><defs><linearGradient id="prefix__a" x1="50%" x2="50%" y1="0%" y2="100%"><stop offset="0%" stop-color="#FF6544"/><stop offset="100%" stop-color="#FF4449"/></linearGradient></defs><g fill="none" fill-rule="evenodd"><path fill="#FFF" fill-rule="nonzero" d="M192 21.752V5h7.2c1.552 0 2.752.456 3.6 1.368.848.912 1.272 2.136 1.272 3.672s-.424 2.76-1.272 3.672c-.848.912-2.048 1.368-3.6 1.368h-4.488v6.672H192zm2.712-9.048h4.32c.688 0 1.224-.18 1.608-.54.384-.36.576-.876.576-1.548V9.464c0-.672-.192-1.188-.576-1.548-.384-.36-.92-.54-1.608-.54h-4.32v5.328zM216 21.752c-.688 0-1.216-.196-1.584-.588-.368-.392-.592-.892-.672-1.5h-.12c-.24.784-.68 1.376-1.32 1.776-.64.4-1.416.6-2.328.6-1.296 0-2.292-.336-2.988-1.008-.696-.672-1.044-1.576-1.044-2.712 0-1.248.452-2.184 1.356-2.808.904-.624 2.228-.936 3.972-.936h2.256V13.52c0-.768-.208-1.36-.624-1.776-.416-.416-1.064-.624-1.944-.624-.736 0-1.336.16-1.8.48-.464.32-.856.728-1.176 1.224l-1.56-1.416c.416-.704 1-1.284 1.752-1.74.752-.456 1.736-.684 2.952-.684 1.616 0 2.856.376 3.72 1.128.864.752 1.296 1.832 1.296 3.24v6.264h1.32v2.136H216zm-5.28-1.704c.816 0 1.488-.18 2.016-.54.528-.36.792-.844.792-1.452v-1.8h-2.208c-1.808 0-2.712.56-2.712 1.68v.432c0 .56.188.98.564 1.26.376.28.892.42 1.548.42zm9.312 1.704V9.272h2.616v2.4h.12c.176-.64.544-1.2 1.104-1.68s1.336-.72 2.328-.72h.696v2.52h-1.032c-1.04 0-1.836.168-2.388.504-.552.336-.828.832-.828 1.488v7.968h-2.616zm12.648 0c-.912 0-1.6-.236-2.064-.708-.464-.472-.696-1.14-.696-2.004v-7.632h-1.944V9.272h1.056c.432 0 .732-.096.9-.288.168-.192.252-.504.252-.936V5.864h2.352v3.408h2.616v2.136h-2.616v8.208h2.424v2.136h-2.28zm5.304 0V9.272h2.616v2.064h.12a4.114 4.114 0 011.236-1.68c.552-.448 1.308-.672 2.268-.672 1.28 0 2.276.42 2.988 1.26.712.84 1.068 2.036 1.068 3.588v7.92h-2.616v-7.584c0-1.952-.784-2.928-2.352-2.928-.336 0-.668.044-.996.132-.328.088-.62.22-.876.396-.256.176-.46.4-.612.672a1.936 1.936 0 00-.228.96v8.352h-2.616zm18.816.288c-.896 0-1.696-.152-2.4-.456a4.977 4.977 0 01-1.8-1.308c-.496-.568-.876-1.256-1.14-2.064-.264-.808-.396-1.708-.396-2.7 0-.992.132-1.892.396-2.7.264-.808.644-1.496 1.14-2.064a4.977 4.977 0 011.8-1.308c.704-.304 1.504-.456 2.4-.456.912 0 1.716.16 2.412.48.696.32 1.276.764 1.74 1.332a5.791 5.791 0 011.044 1.98c.232.752.348 1.56.348 2.424v.984h-8.568v.408c0 .96.284 1.748.852 2.364.568.616 1.38.924 2.436.924.768 0 1.416-.168 1.944-.504a4.393 4.393 0 001.344-1.368l1.536 1.512c-.464.768-1.136 1.38-2.016 1.836-.88.456-1.904.684-3.072.684zm0-11.016c-.448 0-.86.08-1.236.24-.376.16-.696.384-.96.672a3.021 3.021 0 00-.612 1.032c-.144.4-.216.84-.216 1.32v.168h5.808v-.24c0-.96-.248-1.732-.744-2.316-.496-.584-1.176-.876-2.04-.876zm8.448 10.728V9.272h2.616v2.4h.12c.176-.64.544-1.2 1.104-1.68s1.336-.72 2.328-.72h.696v2.52h-1.032c-1.04 0-1.836.168-2.388.504-.552.336-.828.832-.828 1.488v7.968h-2.616zm13.152.288c-1.184 0-2.176-.208-2.976-.624a6.528 6.528 0 01-2.088-1.728l1.68-1.536c.464.56.98.996 1.548 1.308.568.312 1.228.468 1.98.468.768 0 1.34-.148 1.716-.444.376-.296.564-.708.564-1.236 0-.4-.132-.74-.396-1.02s-.724-.46-1.38-.54l-1.152-.144c-1.28-.16-2.284-.532-3.012-1.116-.728-.584-1.092-1.452-1.092-2.604 0-.608.112-1.148.336-1.62a3.38 3.38 0 01.948-1.2c.408-.328.896-.58 1.464-.756a6.345 6.345 0 011.884-.264c1.12 0 2.036.176 2.748.528a6.31 6.31 0 011.908 1.464l-1.608 1.536c-.32-.384-.74-.716-1.26-.996s-1.116-.42-1.788-.42c-.72 0-1.252.144-1.596.432a1.4 1.4 0 00-.516 1.128c0 .48.152.84.456 1.08.304.24.792.416 1.464.528l1.152.144c1.376.208 2.38.612 3.012 1.212.632.6.948 1.404.948 2.412 0 .608-.116 1.156-.348 1.644a3.61 3.61 0 01-.996 1.26 4.662 4.662 0 01-1.56.816c-.608.192-1.288.288-2.04.288z"/><g fill-rule="nonzero"><path fill="url(#prefix__a)" d="M6.13 0v.03L16.314 13.5 0 26.97V27h16.474c4.807 0 8.979-3.373 10.06-8.136l1.363-6.008a10.63 10.63 0 00-1.98-8.894A10.26 10.26 0 0017.84 0H6.13z"/><path fill="#B51A31" d="M16.308 13.527L9.144 27H0z"/><path fill="#FFF" d="M139.883 0l3.62 18.88L153.67 0h6.254L144.58 27h-5.123L133.48 0h6.402zM49.931 0c8.279 0 13.01 5.782 11.702 13.327l-.013.076C60.31 20.95 53.57 26.81 45.282 26.81H35L39.647 0h10.284zm57.22 0c3.352 0 5.784.959 7.203 2.72 1.21 1.492 1.64 3.6 1.197 6.127l-.013.077c-.742 4.326-3.51 7.046-7.082 8.311l4.778 9.574h-6.78l-6.31-13.793h4.364c2.826 0 4.712-1.541 5.103-3.791l.014-.076c.438-2.523-1.07-3.825-3.895-3.825h-5.754l-3.727 21.485h-5.8L95.096 0h12.054zm21.62 0l-4.647 26.809h-5.802L122.972 0h5.8zm-39.4 0l-.912 5.247H74.336l-.945 5.438h9.118l-.91 5.247h-9.117l-.976 5.625h14.313l-.91 5.247H64.834L69.481 0h19.89zM49.008 5.324h-4.481l-2.804 16.161h4.484c4.744 0 8.51-3.255 9.334-8.005l.013-.077c.824-4.747-1.799-8.08-6.546-8.08z"/></g><path stroke="#FFF" d="M176 0v27"/></g></svg>