<?xml version="1.0" encoding="UTF-8"?>
<svg width="160px" height="27px" viewBox="0 0 160 27" version="1.1" xmlns="http://www.w3.org/2000/svg" xmlns:xlink="http://www.w3.org/1999/xlink" role='img' aria-labelledby="logo">
    <title id='logo'>Deriv</title>
    <desc>Deriv powered by Binary.com</desc>
    <defs>
        <linearGradient x1="50%" y1="0%" x2="50%" y2="100%" id="linearGradientOnly-1">
            <stop stop-color="#FF6544" offset="0%"></stop>
            <stop stop-color="#FF4449" offset="100%"></stop>
        </linearGradient>
    </defs>
    <g id="Responsible-trading" stroke="none" stroke-width="1" fill="none" fill-rule="evenodd">
        <g transform="translate(-120.000000, -23.000000)" id="Header">
            <g>
                <g id="Group">
                    <g transform="translate(120.000000, 0.000000)">
                        <g id="logo/left_part">
                            <g id="poweredby-1" fill-rule="evenodd" transform="translate(0.000000, 23.000000)">
                                <g id="1--logo/2-white" fill-rule="nonzero">
                                    <g id="logo">
                                        <g id="logo/light">
                                            <path d="M6.13001383,0 L6.13001383,0.02925 L16.3142462,13.5 L0,26.97075 L0,27 L16.4735823,27 C21.2812172,27.0004947 25.4528128,23.6268291 26.5338866,18.864 L27.8970954,12.8565 C28.6044998,9.73992645 27.8756252,6.46547551 25.917293,3.96228707 C23.9589608,1.45909863 20.9848966,0.000361950371 17.8390041,0 L6.13001383,0 Z" id="Path" fill="url(#linearGradientOnly-1)"></path>
                                            <polygon id="Path" fill="#B51A31" points="16.3076072 13.527 9.14412172 27 0 27"></polygon>
                                            <path d="M139.882987,0 L143.503458,18.87975 L153.669986,0 L159.923928,0 L144.581189,27 L139.458091,27 L133.480774,0 L139.882987,0 Z M49.9311203,0 C58.2099585,0 62.9413554,5.7825 61.6334716,13.32675 L61.6201936,13.40325 C60.3100968,20.94975 53.5692946,26.80875 45.2816044,26.80875 L35,26.80875 L39.6473029,0 L49.9311203,0 Z M107.150484,0 C110.503181,0 112.93527,0.9585 114.353803,2.72025 C115.564315,4.212 115.993637,6.32025 115.551037,8.847 L115.551037,8.847 L115.537759,8.9235 C114.796404,13.25025 112.027939,15.9705 108.456155,17.235 L108.456155,17.235 L113.234025,26.80875 L106.453389,26.80875 L100.144122,13.01625 L104.50816,13.01625 C107.334163,13.01625 109.21964,11.475 109.611342,9.225 L109.611342,9.225 L109.62462,9.1485 C110.062794,6.62625 108.55574,5.3235 105.729737,5.3235 L105.729737,5.3235 L99.9759336,5.3235 L96.2492393,26.80875 L90.4489626,26.80875 L95.0962655,0 L107.150484,0 Z M128.771507,0 L124.124205,26.80875 L118.321715,26.80875 L122.971231,0 L128.771507,0 Z M89.371231,0 L88.4594744,5.247 L74.3360996,5.247 L73.391148,10.68525 L82.5087137,10.68525 L81.5991701,15.93225 L72.4816044,15.93225 L71.5056708,21.55725 L85.8193637,21.55725 L84.9098202,26.80425 L64.8334716,26.80425 L69.4807745,0 L89.371231,0 Z M49.0082987,5.3235 L44.5269709,5.3235 L41.7230982,21.48525 L46.206639,21.48525 C50.9513139,21.48525 54.7178423,18.2295 55.5410788,13.47975 L55.5543568,13.40325 C56.3775933,8.65575 53.7551867,5.3235 49.0082987,5.3235 Z" id="Combined-Shape" fill="#FFFFFF"></path>
                                        </g>
                                    </g>
                                </g>
                            </g>
                        </g>
                    </g>
                </g>
            </g>
        </g>
    </g>
</svg>