<svg xmlns="http://www.w3.org/2000/svg" width="120" height="17"><path fill="#999" fill-rule="evenodd" d="M7.393.389c1.09 0 2.012.252 2.765.756.754.505 1.302 1.248 1.645 2.231l.304.843-4.239 1.513c.013-.064.02-.147.02-.25 0-.102-.039-.272-.115-.51a1.54 1.54 0 00-.304-.566.79.79 0 00-.608-.27c-.697 0-1.26.508-1.691 1.522-.292.707-.52 1.632-.685 2.775a28.88 28.88 0 00-.152 1.04 10.821 10.821 0 00-.114 1.387c0 .603.086 1.088.257 1.454.171.366.472.549.903.549.342 0 .693-.184 1.054-.552.362-.368.58-.792.656-1.27l.076-.504h-1.54L6.14 7.29h5.835l-.248 1.48c-.342 2.255-1.02 4.062-2.033 5.42-1.204 1.615-2.788 2.422-4.751 2.422-1.762 0-3.06-.633-3.897-1.9C.348 13.66 0 12.252 0 10.486a12.203 12.203 0 01.133-1.805c.317-2.342 1.052-4.255 2.205-5.74C3.655 1.24 5.34.39 7.393.39zm107.894 0c1.089 0 2.01.252 2.765.756.753.505 1.302 1.248 1.644 2.231l.304.843-4.238 1.513a1.39 1.39 0 00.019-.25c0-.102-.038-.272-.114-.51a1.555 1.555 0 00-.304-.566.794.794 0 00-.609-.27c-.697 0-1.26.508-1.691 1.522-.292.707-.52 1.632-.684 2.775a26.73 26.73 0 00-.152 1.04 10.821 10.821 0 00-.114 1.387c0 .603.085 1.088.256 1.454.171.366.472.549.903.549.342 0 .694-.184 1.055-.552.36-.368.58-.792.656-1.27l.075-.504h-1.539l.513-3.248h5.835l-.247 1.48c-.342 2.255-1.02 4.062-2.034 5.42-1.204 1.615-2.787 2.422-4.751 2.422-1.762 0-3.06-.633-3.896-1.9-.697-1.05-1.046-2.458-1.046-4.224a12.178 12.178 0 01.133-1.805c.317-2.342 1.052-4.255 2.205-5.74C111.549 1.24 113.234.39 115.287.39zM22.94.658l-.57 3.748h-3.612l-.342 2.076h3.193l-.57 3.748h-3.212l-.36 2.325h3.572l-.59 3.748h-7.677L15.242.658h7.698zm10.51 0l-.59 3.748h-2.394l-1.9 11.897h-4.22l1.9-11.897-2.29-.002.617-3.746h8.877zm15.622 0l-.59 3.748h-2.394l-1.9 11.897h-4.22l1.9-11.897-2.29-.002.618-3.746h8.876zm6.215 0c1.989 0 3.427.365 4.314 1.094.773.64 1.16 1.574 1.16 2.803 0 .384-.039.8-.115 1.248-.14.819-.399 1.536-.779 2.15a4.04 4.04 0 01-1.787 1.612l-.437.192 2.053 6.547H55.21l-.59-2.595c-.063-.32-.215-1.14-.456-2.46-.05-.333-.133-.789-.247-1.365a72.55 72.55 0 00-.17 1.364c-.115.808-.242 1.634-.38 2.48-.065.436-.16.993-.286 1.672-.038.218-.095.52-.171.904h-4.18L51.22.658h4.067zm16.572 0l.875 15.646h-4.296v-1.98h-2.832l-.684 1.98h-4.276L66.766.658h5.093zm8.819 0c1.976 0 3.478.659 4.504 1.977.9 1.152 1.35 2.65 1.35 4.492 0 .422-.032.89-.095 1.402-.305 2.316-1.097 4.146-2.376 5.49-1.445 1.523-3.396 2.284-5.854 2.284h-3.725L76.934.658h3.744zm13.456 0l-2.528 15.645h-4.181L89.933.658h4.2zm6.366 0l.894 4.316.95 5.18.152-1.92c.114-1.393.221-2.557.323-3.49.063-.601.171-1.477.323-2.628.038-.358.102-.844.19-1.458h3.991l-2.451 15.645h-3.916a12.73 12.73 0 01-.17-.768c-.317-1.435-.52-2.384-.609-2.845-.19-.948-.399-2.12-.627-3.517l-.304-1.942c-.076.782-.133 1.404-.171 1.865a75.653 75.653 0 01-.361 3.19 93.82 93.82 0 01-.418 2.653 33.64 33.64 0 01-.247 1.364h-3.954L96.547.658h3.953zm-19.86 3.92h-.114l-1.255 7.977h.133c.735 0 1.356-.42 1.863-1.262.418-.688.71-1.543.874-2.563.076-.447.114-.925.114-1.435 0-.803-.108-1.428-.323-1.875-.279-.56-.71-.841-1.292-.841zm-11.974-.134l-2.014 6.593h1.786l.228-6.593zm-13.455-.48h-.362l-.608 3.901h.456c.457 0 .862-.223 1.217-.669.316-.395.52-.86.608-1.396.025-.178.038-.306.038-.383 0-.446-.13-.8-.39-1.06a1.3 1.3 0 00-.96-.393z"/></svg>