<svg width="502" height="275" xmlns="http://www.w3.org/2000/svg" xmlns:xlink="http://www.w3.org/1999/xlink"><defs><rect id="i" x="0" y="0" width="184.8" height="46.4" rx="3.2"/><rect id="k" x="6.4" y="7.584" width="32" height="189.595" rx="3.2"/><rect id="m" x="9.286" y="9.342" width="46.429" height="233.554" rx="3.881"/><rect id="p" x="0" y="0" width="300" height="274.038" rx="2.885"/><path id="a" d="M0 0h502v275H0z"/><path id="c" d="M0 0h327v204H0z"/><path id="e" d="M0 0h587.2v563.2H0z"/><linearGradient x1="50%" y1="0%" x2="50%" y2="114.855%" id="g"><stop stop-color="#FFF" offset="0%"/><stop stop-color="#FFF" stop-opacity="0" offset="100%"/></linearGradient><linearGradient x1="50%" y1="100%" x2="50%" y2="0%" id="h"><stop stop-color="#FFF" stop-opacity="0" offset="0%"/><stop stop-color="#85ACB0" stop-opacity=".16" offset="100%"/></linearGradient><filter x="-4.5%" y="-4.9%" width="109%" height="109.8%" filterUnits="objectBoundingBox" id="o"><feOffset dy="3" in="SourceAlpha" result="shadowOffsetOuter1"/><feGaussianBlur stdDeviation="2" in="shadowOffsetOuter1" result="shadowBlurOuter1"/><feColorMatrix values="0 0 0 0 0 0 0 0 0 0 0 0 0 0 0 0 0 0 0.24 0" in="shadowBlurOuter1" result="shadowMatrixOuter1"/><feMerge><feMergeNode in="shadowMatrixOuter1"/><feMergeNode in="SourceGraphic"/></feMerge></filter></defs><g fill="none" fill-rule="evenodd"><mask id="b" fill="#fff"><use xlink:href="#a"/></mask><g mask="url(#b)"><g transform="translate(212 38)"><mask id="d" fill="#fff"><use xlink:href="#c"/></mask><use fill="#FFF" xlink:href="#c"/><g mask="url(#d)"><g transform="translate(-91.2 -77.6)"><mask id="f" fill="#fff"><use xlink:href="#e"/></mask><use fill="#FFF" fill-rule="nonzero" xlink:href="#e"/><g mask="url(#f)"><g fill="#F2F3F4" fill-rule="nonzero"><path d="M0 40.8h555.2V40H0zM0 109.6h555.2v-.8H0zM0 178.4h555.2v-.8H0zM0 247.2h555.2v-.8H0z"/></g><path fill="#F2F3F4" fill-rule="nonzero" d="M350.4 529h.8V0h-.8z"/><path fill="url(#g)" fill-rule="nonzero" d="M0 0h31.2v16H0z" transform="translate(335.2)"/><text font-family="IBM Plex Sans, sans-serif" font-size="8" fill="#333" transform="translate(335.2)"><tspan x=".186" y="545.6">00:00:00</tspan></text><path fill="#F2F3F4" fill-rule="nonzero" d="M274.4 529h.8V0h-.8z"/><path fill="url(#g)" fill-rule="nonzero" d="M0 0h31.2v16H0z" transform="translate(259.2)"/><text font-family="IBM Plex Sans, sans-serif" font-size="8" fill="#333" transform="translate(259.2)"><tspan x=".186" y="545.6">00:00:00</tspan></text><path fill="#F2F3F4" fill-rule="nonzero" d="M198.4 529h.8V0h-.8z"/><path fill="url(#g)" fill-rule="nonzero" d="M0 0h31.2v16H0z" transform="translate(183.2)"/><text font-family="IBM Plex Sans, sans-serif" font-size="8" fill="#333" transform="translate(183.2)"><tspan x=".186" y="545.6">00:00:00</tspan></text><g><path fill="#F2F3F4" fill-rule="nonzero" d="M122.4 529h.8V0h-.8z"/><path fill="url(#g)" fill-rule="nonzero" d="M0 0h31.2v16H0z" transform="translate(107.2)"/><text font-family="IBM Plex Sans, sans-serif" font-size="8" fill="#333" transform="translate(107.2)"><tspan x=".186" y="545.6">00:00:00</tspan></text></g><g><path fill="#F2F3F4" fill-rule="nonzero" d="M46.4 529h.8V0h-.8z"/><path fill="url(#g)" fill-rule="nonzero" d="M0 0h31.2v16H0z" transform="translate(31.2)"/><text font-family="IBM Plex Sans, sans-serif" font-size="8" fill="#333" transform="translate(31.2)"><tspan x=".186" y="545.6">00:00:00</tspan></text></g><g><path fill="#F2F3F4" fill-rule="nonzero" d="M-29.6 529h.8V0h-.8z"/><path fill="url(#g)" fill-rule="nonzero" d="M0 0h31.2v16H0z" transform="translate(-44.8)"/><text font-family="IBM Plex Sans, sans-serif" font-size="8" fill="#333" transform="translate(-44.8)"><tspan x=".186" y="545.6">00:00:00</tspan></text></g><g><path fill="#F2F3F4" fill-rule="nonzero" d="M-105.6 529h.8V0h-.8z"/><path fill="url(#g)" fill-rule="nonzero" d="M0 0h31.2v16H0z" transform="translate(-120.8)"/><text font-family="IBM Plex Sans, sans-serif" font-size="8" fill="#333" transform="translate(-120.8)"><tspan x=".186" y="545.6">00:00:00</tspan></text></g></g><g mask="url(#f)"><path fill="url(#h)" d="M0 79.363l1.201 11.338 3.603 22.675 2.402 11.338 3.603-11.338h2.402l2.402-11.337 1.201 11.337 1.201-11.337 1.201 11.337h2.402l1.201 45.35 2.402-11.337 3.603-11.337 1.2 11.337h4.805l3.603 11.338 1.2-11.338 1.202 11.338 1.2-11.338 6.006-22.675 1.2-34.013 3.604-11.338 7.206 11.338 2.402 11.338h2.402l1.2-11.338 1.202 11.338 1.2-11.338 1.202-11.338 3.603-22.675 2.402-11.337h2.402l1.2-11.338 2.403 11.338h2.402l2.402 11.337 1.2 56.688 1.202-11.337 1.2-68.026 1.202 45.35 1.2-45.35 1.202 22.675 1.2 34.013h2.403l1.2 34.013 1.202-34.013 1.2 11.338h6.006l1.2-11.338 1.202 11.338 1.2-34.013 1.202-22.675h2.402l3.603 11.337H132.11l1.2-11.337 1.202 11.337 3.603-11.337 2.402 11.337 2.402-11.337h3.603l1.2 11.337 1.202 45.35 1.2 11.338 1.202 11.338 2.402 22.675 6.005 22.676h18.015l1.2-11.338 1.202 22.675 1.2 45.35 1.202-56.687 1.2 22.675 1.202 22.675 1.2 11.338 1.202 34.013 2.402-11.338 1.2-22.675 2.403-11.338 1.2-22.675 1.202-22.675h2.402l2.402 11.337h2.402l2.402 22.675 2.402-34.012 1.2-11.338 1.202-11.338 1.2-34.013 1.202-11.337 2.402 11.337h4.804l1.2-11.337 4.805-34.013h2.402l2.402-11.338H246.204l7.206-34.013h4.804l2.402 11.338 6.005-11.338h18.015l3.603 11.338h9.608l1.201 11.338h4.804l3.603-22.676 1.201-11.337L313.46 0l4.804 22.675 1.201 11.338 2.402-11.338 3.603 22.676 1.201-11.338 1.201 22.675 1.201-11.337h2.402l1.201-11.338 3.603 11.338 1.201 34.012 3.603 11.338 1.201 22.675 2.402-11.337h2.402l1.201 11.337 1.201 11.338h2.402l4.804 11.338 1.201 22.675 1.201 22.675h2.402l1.201-34.013 1.201-68.026 1.201 11.338 1.201 22.675 1.201 11.338h13.211l2.402-11.338 1.201-22.675 2.402 11.338 3.603-11.338 1.201 22.675 2.402 11.338 1.201-11.338 2.402 11.338h9.608l4.804-34.013 1.201 22.675 2.402-11.337 12.01-11.338 1.201 11.338 6.005 11.337 1.201 11.338 1.201-11.338 1.201-11.337h2.402l1.201-22.676 1.201 22.676L445.57 90.7H451.575l7.206-11.338 4.804-11.337L475.2 81.6l20 20.4v298.8L0 403.2z" transform="translate(-170.4 100.8)"/><path stroke="#85ACB0" stroke-width=".8" stroke-linecap="round" stroke-linejoin="round" d="M-170.4 180.174l1.201 11.339 3.603 22.678 2.402 11.34 3.603-11.34h2.402l2.402-11.339 1.201 11.34 1.201-11.34 1.201 11.34h2.402l1.201 45.356 2.402-11.34 3.603-11.338 1.2 11.339h4.805l3.603 11.339 1.2-11.34 1.202 11.34 1.2-11.34 6.006-22.678 1.2-34.017 3.604-11.34 7.206 11.34 2.402 11.34h2.402l1.2-11.34 1.202 11.34 1.2-11.34 1.202-11.34 3.603-22.677 2.402-11.34h2.402l1.2-11.339 2.403 11.34h2.402l2.402 11.339 1.2 56.695 1.202-11.339 1.2-68.035 1.202 45.357 1.2-45.357 1.202 22.679 1.2 34.017h2.403l1.2 34.017 1.202-34.017 1.2 11.34h6.006l1.2-11.34 1.202 11.34 1.2-34.018 1.202-22.678h2.402l3.603 11.339H-38.29l1.2-11.34 1.202 11.34 3.603-11.34 2.402 11.34 2.402-11.34h3.603l1.2 11.34 1.202 45.356 1.2 11.34 1.202 11.338 2.402 22.679 6.005 22.678H7.348l1.2-11.34 1.202 22.68 1.2 45.356 1.202-56.696 1.2 22.678 1.202 22.678 1.2 11.34 1.202 34.017 2.402-11.34 1.2-22.677 2.403-11.34 1.2-22.678 1.202-22.678h2.402l2.402 11.34h2.402l2.402 22.677 2.402-34.017 1.2-11.34 1.202-11.338 1.2-34.018 1.202-11.339 2.402 11.34h4.804l1.2-11.34 4.805-34.017h2.402l2.402-11.34H75.804l7.206-34.017h4.804l2.402 11.34 6.005-11.34h18.015l3.603 11.34h9.608l1.201 11.339h4.804l3.603-22.679 1.201-11.339 4.804-11.339 4.804 22.678 1.201 11.34 2.402-11.34 3.603 22.679 1.201-11.34 1.201 22.679 1.201-11.34h2.402l1.201-11.339 3.603 11.34 1.201 34.017 3.603 11.339 1.201 22.678 2.402-11.339h2.402l1.201 11.34 1.201 11.338h2.402l4.804 11.34 1.201 22.678 1.201 22.678h2.402l1.201-34.017 1.201-68.035 1.201 11.339 1.201 22.678 1.201 11.34h13.211l2.402-11.34 1.201-22.678 2.402 11.34 3.603-11.34 1.201 22.678 2.402 11.34 1.201-11.34 2.402 11.34h9.608l4.804-34.018 1.201 22.678 2.402-11.339 12.01-11.339 1.201 11.34 6.005 11.338 1.201 11.34 1.201-11.34 1.201-11.339h2.402l1.201-22.678 1.201 22.678 2.402-11.339H281.175l7.206-11.34 4.804-11.338L304.8 181.6l20 21.2"/></g></g><path d="M237.6 124.8h260.823" stroke="#FF444F" stroke-width=".8" stroke-dasharray="3.2"/><path fill="#FF444F" fill-rule="nonzero" d="M468.823 115.2h29.6v19.2h-29.6l-8-9.6z"/><text font-family="IBM Plex Sans, sans-serif" font-size="8" font-weight="bold" fill="#FFF" transform="translate(460.823 115.2)"><tspan x="14.306" y="11">0.00</tspan></text><path d="M213.6 452V-57.6" stroke="#1C5AE3" stroke-width=".8" stroke-dasharray="2.4"/><g transform="translate(208.8 92)"><path d="M4.8 0a4.4 4.4 0 014.4 4.39c0 2.356-4.076 7.965-4.249 8.202L4.8 12.8l-.15-.208C4.475 12.357.4 6.741.4 4.39A4.4 4.4 0 014.8 0zm0 2a2 2 0 100 4 2 2 0 000-4z" fill="#1C5AE3"/><circle fill="#FFF" cx="4.8" cy="4" r="2"/></g><g transform="translate(228 118.4)"><circle stroke="#1C5AE3" stroke-width=".8" fill="#FFF" fill-rule="nonzero" cx="4.8" cy="5.6" r="4.8"/><text font-family="IBM Plex Sans, sans-serif" font-size="8" fill="#333"><tspan x="2.554" y="7.4">4</tspan></text></g><text font-family="IBM Plex Sans, sans-serif" font-size="8" fill="#1C5AE3" transform="translate(206.971 -58)"><tspan x=".488" y="145">1/4</tspan></text><g transform="translate(-91.2 -77.6)"><rect fill="#F2F3F4" fill-rule="nonzero" width="197.6" height="59.2" rx="3.2"/><g transform="translate(6.4 6.4)"><mask id="j" fill="#fff"><use xlink:href="#i"/></mask><use fill="#FFF" xlink:href="#i"/><g mask="url(#j)" fill="#333"><path d="M169.73 20.904a.4.4 0 11.54.592l-4.4 4a.4.4 0 01-.54 0l-4.4-4a.4.4 0 01.54-.592l4.13 3.755 4.13-3.755z"/></g><g mask="url(#j)"><path d="M140 29.6l4.8 6.4h-9.6z" fill="#4BB4B3" fill-rule="nonzero"/><text font-family="IBM Plex Sans, sans-serif" font-size="9.6" transform="translate(44.8 6.4)"><tspan x="0" y="28.2" fill="#333">84.54 - 0.14 (0.16%) </tspan></text><text font-family="IBM Plex Sans, sans-serif" font-size="12.8" font-weight="bold" fill-opacity=".8" transform="translate(44.8 6.4)"><tspan x="0" y="12" fill="#000">AUD/JPY</tspan></text></g><g mask="url(#j)"><g transform="translate(6.4 13.6)"><path d="M17.762 0H1.438A1.45 1.45 0 000 1.46v9.858c0 .807.644 1.461 1.438 1.461h16.324a1.45 1.45 0 001.438-1.46V1.46A1.45 1.45 0 0017.762 0z" fill="#0D47A1" fill-rule="nonzero"/><path d="M.331 6.39h.575l3.066-2.041v2.04h1.656V4.35l3.066 2.04h.575c.183 0 .331-.15.331-.336v-.267l-2.63-1.75H9.6V2.353H6.97L9.6.603V.336A.334.334 0 009.269 0h-.575L5.628 2.04V0H3.972v2.04L1.007.068C.66.177.37.417.192.731l2.439 1.623H0v1.681h2.63L0 5.786v.267c0 .186.148.336.331.336zM4.9 8.223l.25.838.8-.324c.07-.028.131.052.09.113l-.49.72.749.435c.064.037.042.136-.032.14l-.86.062.133.865c.012.074-.078.118-.128.063l-.583-.645-.583.645c-.05.055-.14.01-.128-.063l.133-.865-.86-.061c-.074-.005-.096-.104-.032-.141l.749-.434-.49-.721c-.041-.061.02-.14.09-.113l.8.324.25-.838a.074.074 0 01.142 0zm9.848 1.22l.122.409.391-.159c.033-.013.064.025.043.056l-.238.352.365.212c.031.018.02.066-.015.069l-.42.03.065.422c.005.036-.039.057-.063.03l-.285-.314-.285.315c-.024.026-.068.005-.062-.031l.065-.423-.42-.03c-.036-.002-.047-.05-.016-.068l.366-.212-.24-.352c-.02-.03.01-.07.044-.056l.391.159.122-.41a.036.036 0 01.07 0zm.944-3.3a.042.042 0 01.08 0l.098.298.31.002c.04 0 .056.053.024.077l-.25.187.094.3c.012.039-.031.07-.064.047l-.252-.183-.252.183c-.033.024-.076-.008-.064-.047l.093-.3-.249-.187c-.032-.024-.015-.076.025-.077l.31-.002zm-3.666-.736l.122.41.392-.16c.033-.013.063.026.043.056l-.24.352.367.212c.03.018.02.067-.016.07l-.42.029.065.422c.006.037-.038.058-.063.031l-.284-.315-.285.315c-.025.027-.068.006-.063-.03l.065-.423-.42-.03c-.036-.002-.047-.05-.015-.069l.365-.212-.239-.352c-.02-.03.01-.069.044-.055l.39.158.123-.41a.036.036 0 01.07 0zm5.297-1.345l.122.409.391-.158c.033-.014.064.025.043.055l-.239.352.366.212c.031.018.02.066-.015.069l-.42.03.065.422c.005.036-.039.058-.063.03l-.285-.314-.285.315c-.024.027-.068.005-.062-.03l.065-.423-.42-.03c-.036-.003-.047-.05-.016-.069l.366-.212-.24-.352c-.02-.03.01-.069.044-.055l.391.158.122-.41a.036.036 0 01.07 0zm-2.575-1.797l.122.41.391-.159c.033-.013.064.025.043.055l-.238.352.365.212c.031.018.02.067-.015.07l-.42.029.065.423c.005.036-.039.057-.063.03l-.285-.315-.285.315c-.024.027-.068.006-.062-.03l.065-.423-.42-.03c-.036-.002-.047-.05-.016-.069l.366-.212-.24-.352c-.02-.03.01-.068.044-.055l.391.158.122-.41a.036.036 0 01.07 0z" fill="#FFF" fill-rule="nonzero"/><path d="M5.297 0v2.69H9.6V3.7H5.297v2.69h-.994V3.7H0V2.69h4.303V0h.994zM3.963 4.035L.393 6.39H.331a.318.318 0 01-.244-.115l-.04-.057 3.308-2.182h.608zm2.532 0l3.1 2.045a.333.333 0 01-.188.277l-3.52-2.321h.608zM.548.315l3.093 2.04h-.608L.31.557c.07-.09.15-.172.239-.243zM9.268 0c.098 0 .183.045.242.113l.04.056-3.314 2.185h-.608L9.198 0h.07z" fill="#F44336" fill-rule="nonzero"/><rect stroke-opacity=".04" stroke="#000" stroke-width=".8" x=".4" y=".4" width="18.4" height="12" rx="1.6"/><rect stroke-opacity=".04" stroke="#000" stroke-width=".8" x=".4" y=".4" width="18.4" height="12" rx="1.6"/><g transform="translate(6.4 6.4)"><g fill-rule="nonzero"><path d="M17.762.01H1.438A1.45 1.45 0 000 1.471v9.858c0 .807.644 1.46 1.438 1.46h16.324a1.45 1.45 0 001.438-1.46V1.47a1.45 1.45 0 00-1.438-1.46z" fill="#FFF"/><ellipse fill="#ED293F" cx="9.6" cy="6.4" rx="3.641" ry="3.699"/></g><rect stroke-opacity=".04" stroke="#000" stroke-width=".8" x=".4" y=".4" width="18.4" height="12" rx="1.6"/></g><rect stroke-opacity=".04" stroke="#000" stroke-width=".8" x="6.8" y="6.8" width="18.4" height="12" rx="1.6"/></g></g></g></g><g><g transform="translate(-91.2 -5.6)"><rect fill="#F2F3F4" fill-rule="nonzero" width="44.8" height="204.763" rx="3.2"/><mask id="l" fill="#fff"><use xlink:href="#k"/></mask><use fill="#FFF" fill-rule="nonzero" xlink:href="#k"/><g mask="url(#l)"><path d="M22.014 27.574l7.718-8.408c.258-.28.668-.06.668.36v14.526c0 .267-.18.484-.4.484H14.8c-.22 0-.4-.217-.4-.484v-2.905a.54.54 0 01.117-.343l4.8-5.81c.156-.19.41-.19.566 0l2.131 2.58zM15.2 33.568h14.4V20.613L22.268 28.6c-.159.173-.4.165-.55-.017L19.6 26.02l-4.4 5.326v2.22z" fill="#333"/><text font-family="IBM Plex Sans, sans-serif" font-size="6.4" font-weight="bold" fill="#000" fill-opacity=".8" transform="translate(12.8 15.168)"><tspan x="0" y="6.842">30M</tspan></text></g><g mask="url(#l)"><g stroke="#979797" stroke-width=".8" stroke-linejoin="round"><path d="M14.8 57.445H30 14.8zM14.8 72.94h12-12z"/><path d="M15.6 55.508v18.4M29.2 55.508V66.16M18 67.129l3.2-3.874 2.4 3.874 3.2-4.842M28.4 68.097v3.873zM26.8 70.034H30" stroke-linecap="round"/></g><path d="M29.2 55.024c.196 0 .36.17.394.397l.006.087v1.452h.4c.22 0 .4.217.4.485 0 .237-.142.435-.328.476l-.072.008h-.4v8.231c0 .238-.142.436-.328.477l-.072.008c-.196 0-.36-.172-.394-.398l-.006-.087V57.93H16v14.526h10.8c.22 0 .4.217.4.484 0 .238-.142.436-.328.477l-.072.008H16v.484c0 .237-.142.435-.328.476l-.072.008c-.196 0-.36-.171-.394-.397l-.006-.087v-.484h-.4c-.22 0-.4-.217-.4-.485 0-.237.142-.435.328-.476l.072-.008h.4V57.929h-.4c-.22 0-.4-.217-.4-.484 0-.238.142-.436.328-.477l.072-.008h.4v-1.452c0-.238.142-.436.328-.477l.072-.007c.196 0 .36.17.394.397l.006.087v1.452h12.8v-1.452c0-.208.108-.386.26-.454l.068-.023.072-.007zm-.872 12.597l.072-.008c.196 0 .36.171.394.397l.006.087v1.452H30c.196 0 .36.172.394.398l.006.087c0 .238-.142.435-.328.476l-.072.008h-1.2v1.453c0 .238-.142.435-.328.476l-.072.008c-.196 0-.36-.171-.394-.397L28 71.971v-1.453h-1.2c-.196 0-.36-.171-.394-.397l-.006-.087c0-.238.142-.435.328-.476l.072-.008 1.2-.001v-1.452c0-.237.142-.435.328-.476l.072-.008zm-1.278-5.712c.15.146.191.397.106.598l-.044.082-3.2 4.842c-.147.223-.414.24-.58.057l-.052-.069-2.123-3.427-2.874 3.48a.353.353 0 01-.566 0 .563.563 0 01-.051-.61l.051-.076 3.2-3.873a.352.352 0 01.55-.02l.053.072 2.09 3.373 2.878-4.354c.138-.209.39-.242.562-.075z" fill="#333"/></g><g mask="url(#l)"><path d="M30 92.943c.22 0 .4.216.4.484v18.4c0 .267-.18.484-.4.484H14.8c-.22 0-.4-.217-.4-.484v-18.4c0-.268.18-.484.4-.484H30zm-11.6 15.494h-3.201l.001 2.906h3.2v-2.906zm11.2 0H19.2v2.906h10.4v-2.906zm-11.2-3.873h-3.2v2.905h3.2v-2.905zm11.2 0H19.2v2.905h10.4v-2.905zm0-10.653H15.2l-.001 9.684H29.6V93.91zm-3.112 2.119c.138-.21.39-.243.562-.076.172.167.2.472.062.68l-3.2 4.843c-.163.247-.475.241-.632-.012l-2.123-3.427-2.874 3.479a.353.353 0 01-.566 0 .559.559 0 010-.685l3.2-3.874c.172-.208.457-.184.603.052l2.09 3.374z" fill="#333"/></g><g mask="url(#l)"><g stroke="#979797" stroke-width=".8" stroke-linejoin="round"><path d="M26.8 131.346l3.2 3.874-10.4 12.59-4.8 1.936 1.6-5.81z"/><path d="M24.8 133.767l3.2 3.874M19.6 147.81l-3.2-3.875M14.8 149.746h13.6" stroke-linecap="round"/></g><path d="M16.574 144.832l-1.142 4.148 3.427-1.382-2.285-2.766zM24.8 134.45l-7.834 9.484 2.634 3.189 7.834-9.483-2.634-3.19zm-8.776 9.32l.013-.037.002-.005.018-.04.02-.038.041-.058 10.4-12.59c.156-.189.41-.189.566 0l3.2 3.874a.559.559 0 010 .685l-10.4 12.59a.428.428 0 01-.146.112l-.01.004-2.464.994H28.4c.196 0 .36.171.394.397l.006.087c0 .267-.18.484-.4.484H14.805a.329.329 0 01-.142-.028l-.013-.007a.29.29 0 01-.069-.043.364.364 0 01-.074-.077.479.479 0 01-.078-.147l-.005-.017a.566.566 0 01-.003-.318l1.6-5.81.002-.012zm.094-.178l-.033.046-.013.021a.475.475 0 01.046-.067zM26.8 132.031l-1.435 1.735 2.634 3.19 1.435-1.736-2.634-3.19z" fill="#333"/></g><g mask="url(#l)"><path d="M17.2 182.339c.22 0 .4.216.4.484v1.453h9.6v-1.453c0-.268.18-.484.4-.484H30c.22 0 .4.216.4.484v4.842c0 .267-.18.484-.4.484H14.8c-.22 0-.4-.217-.4-.484v-4.842c0-.268.18-.484.4-.484zm-.4.968h-1.6v3.874h14.4v-3.874H28v1.453c0 .267-.18.484-.4.484H17.2c-.22 0-.4-.217-.4-.484v-1.453zm7.053-13.263c.267 0 .484.179.484.4v6h2.42c.4 0 .628.376.388.64l-4.358 4.8a.549.549 0 01-.774 0l-4.358-4.8c-.24-.264-.012-.64.387-.64h2.421v-6c0-.221.217-.4.484-.4h2.906zm-.485.8h-1.936v6c0 .22-.217.4-.485.4h-1.936l3.389 3.733 3.39-3.733h-1.937c-.268 0-.485-.18-.485-.4v-6z" fill="#333"/></g></g></g></g></g></g><g mask="url(#b)"><g transform="translate(0 14)"><rect fill="#F2F3F4" fill-rule="nonzero" width="65" height="252.239" rx="3.881"/><mask id="n" fill="#fff"><use xlink:href="#m"/></mask><use fill="#FFF" fill-rule="nonzero" xlink:href="#m"/><g mask="url(#n)"><path fill="#D6DADB" fill-rule="nonzero" d="M9.286 9.342h46.429v46.711H9.285z"/><path d="M32.175 33.815L43.569 23.56a.59.59 0 01.986.44v17.715a.59.59 0 01-.591.59h-22.44a.59.59 0 01-.59-.59v-3.543a.59.59 0 01.172-.418l7.087-7.086a.59.59 0 01.835 0l3.147 3.147zm-10.06 7.31h21.259v-15.8l-10.825 9.742a.59.59 0 01-.813-.02L28.61 31.92l-6.495 6.495v2.708z" fill="#333"/><text font-family="IBM Plex Sans, sans-serif" font-size="7.761" font-weight="bold" fill="#000" fill-opacity=".8" transform="translate(18.571 18.684)"><tspan x="0" y="7.978">30M</tspan></text></g><g mask="url(#n)"><g stroke="#979797" stroke-width=".97" stroke-linejoin="round"><path d="M21.524 70.71h22.44-22.44zM21.524 89.607H39.24 21.524z"/><path d="M22.705 68.348v22.44M42.783 68.348v12.991M26.248 82.52l4.724-4.724 3.544 4.724 4.724-5.905M41.602 83.702v4.724zM39.24 86.064h4.724" stroke-linecap="round"/></g><path d="M42.783 67.757a.59.59 0 01.583.495l.008.096-.001 1.771h.591a.59.59 0 01.096 1.174l-.096.008h-.591v10.038a.59.59 0 01-.494.583l-.096.008a.59.59 0 01-.583-.495l-.008-.096V71.3H23.296v17.715l15.944.001a.59.59 0 01.096 1.174l-.096.007H23.296v.59a.59.59 0 01-.495.584l-.096.007a.59.59 0 01-.583-.494l-.007-.096v-.592l-.59.001a.59.59 0 01-.097-1.173l.096-.008h.59V71.3h-.59a.59.59 0 01-.096-1.173l.096-.008h.59v-1.771a.59.59 0 01.495-.583l.096-.008a.59.59 0 01.583.495l.008.096v1.771h18.896v-1.771c0-.261.17-.482.404-.56l.091-.023.096-.008zM41.506 83.12l.096-.008a.59.59 0 01.583.495l.007.096v1.771h1.772a.59.59 0 01.583.495l.008.096a.59.59 0 01-.495.582l-.096.008h-1.772v1.772a.59.59 0 01-.494.583l-.096.007a.59.59 0 01-.583-.494l-.008-.096v-1.772H39.24a.59.59 0 01-.583-.495l-.008-.095a.59.59 0 01.495-.583l.096-.008h1.771v-1.771a.59.59 0 01.495-.583l.096-.008zm-1.897-6.965a.59.59 0 01.15.741l-.058.09-4.724 5.904a.59.59 0 01-.865.063l-.069-.077-3.134-4.18-4.243 4.243a.59.59 0 01-.904-.753l.069-.082 4.724-4.724a.59.59 0 01.82-.016l.07.079 3.086 4.114 4.248-5.31a.59.59 0 01.83-.092z" fill="#333"/></g><g mask="url(#n)"><path d="M43.964 114.468a.59.59 0 01.59.59v22.44a.59.59 0 01-.59.591h-22.44a.59.59 0 01-.59-.59v-22.44a.59.59 0 01.59-.59h22.44zm-17.125 18.896h-4.724v3.544h4.724v-3.544zm16.534 0H28.02v3.544h15.354l-.001-3.544zm-16.534-4.724h-4.724v3.544h4.724v-3.544zm16.535 0H28.02v3.543l15.354.001v-3.543zm0-12.99h-21.26v11.81h21.259v-11.81zm-4.595 2.583a.59.59 0 01.922.738l-4.724 5.905a.59.59 0 01-.934-.015l-3.134-4.179-4.243 4.243a.59.59 0 11-.835-.835l4.724-4.725a.59.59 0 01.89.064l3.086 4.114z" fill="#333"/></g><g mask="url(#n)"><g stroke="#979797" stroke-width=".97" stroke-linejoin="round"><path d="M39.24 161.77l4.724 4.724-15.354 15.354-7.086 2.362 2.362-7.087z"/><path d="M36.287 164.722l4.724 4.724M28.61 181.848l-4.724-4.725M21.524 184.21h20.078" stroke-linecap="round"/></g><path d="M21.524 184.8l-.012.001a.573.573 0 01-.08-.007l-.012-.003a.439.439 0 01-.078-.018l-.01-.005a.444.444 0 01-.065-.026l-.024-.013a.598.598 0 01-.24-.24l-.01-.023a.56.56 0 01-.06-.256l.007.092a.588.588 0 01.024-.28l2.362-7.085.012-.035.008-.018.006-.014-.012.031.013-.03a.59.59 0 01.034-.063l.02-.03.062-.072 15.353-15.354a.59.59 0 01.835 0l4.725 4.724a.59.59 0 010 .835l-15.354 15.354a.59.59 0 01-.078.066l-.024.016a.622.622 0 01-.094.048l-.017.007-3.651 1.216 16.438.001a.59.59 0 01.583.495l.007.096a.59.59 0 01-.59.59H21.524zm2.62-6.585l-1.686 5.06 5.06-1.686-3.374-3.374zm12.144-12.658l-11.566 11.566 3.889 3.89 11.566-11.567-3.89-3.889zm-12.854 11.186l-.023.03.013-.018.01-.012zm15.806-14.138l-2.117 2.117 3.889 3.89 2.117-2.118-3.89-3.89z" fill="#333"/></g><g mask="url(#n)"><path d="M25.067 224.425a.59.59 0 01.59.59v1.772H39.83v-1.772a.59.59 0 01.59-.59h3.544a.59.59 0 01.59.59v5.906a.59.59 0 01-.59.59h-22.44a.59.59 0 01-.59-.59v-5.906a.59.59 0 01.59-.59zm-.59 1.18h-2.362v4.725h21.259v-4.724H41.01v1.771a.59.59 0 01-.59.59H25.067a.59.59 0 01-.59-.59v-1.771zm10.039-17.715a.59.59 0 01.59.59v8.858h2.953a.59.59 0 01.472.945l-5.315 7.087a.59.59 0 01-.944 0l-5.315-7.087a.59.59 0 01.472-.945h2.953v-8.857a.59.59 0 01.59-.591h3.544zm-.59 1.181h-2.363v8.858a.59.59 0 01-.59.59H28.61l4.134 5.512 4.134-5.512h-2.362a.59.59 0 01-.59-.59v-8.858z" fill="#333"/></g></g></g><g filter="url(#o)" mask="url(#b)"><g transform="translate(78 -5)"><mask id="q" fill="#fff"><use xlink:href="#p"/></mask><use fill="#FFF" fill-rule="nonzero" xlink:href="#p"/><path fill="#F2F3F4" fill-rule="nonzero" mask="url(#q)" d="M0 115.385h300v2.885H0z"/><g mask="url(#q)"><text font-family="IBM Plex Sans, sans-serif" font-size="11.538" font-weight="bold" transform="translate(11.538 135.577)"><tspan x="0" y="11" fill="#333">Time interval</tspan></text><path d="M97.308 147.894a5.048 5.048 0 100-10.096 5.048 5.048 0 000 10.096zm0-10.817a5.77 5.77 0 110 11.538 5.77 5.77 0 010-11.538zm0 5.048a.36.36 0 00-.36.36v2.885a.36.36 0 10.72 0v-2.884a.36.36 0 00-.36-.361zm0-1.803a.54.54 0 100 1.082.54.54 0 000-1.082z" fill="#000" fill-opacity=".8"/><text font-family="IBM Plex Sans, sans-serif" font-size="10.096" fill="#333" transform="translate(17.308 164.423)"><tspan x="16.687" y="13.327">1 tick</tspan></text><text font-family="IBM Plex Sans, sans-serif" font-size="10.096" fill="#333" transform="translate(86.538 164.423)"><tspan x="6.618" y="13.327">2 minutes</tspan></text><text font-family="IBM Plex Sans, sans-serif" font-size="10.096" fill="#333" transform="translate(155.77 164.423)"><tspan x="6.618" y="13.327">3 minutes</tspan></text><text font-family="IBM Plex Sans, sans-serif" font-size="10.096" fill="#333" transform="translate(225 164.423)"><tspan x="6.618" y="13.327">5 minutes</tspan></text><g><text font-family="IBM Plex Sans, sans-serif" font-size="10.096" fill="#333" transform="translate(17.308 199.038)"><tspan x="3.783" y="13.327">10 minutes</tspan></text><text font-family="IBM Plex Sans, sans-serif" font-size="10.096" fill="#333" transform="translate(86.538 199.038)"><tspan x="3.783" y="13.327">15 minutes</tspan></text><g transform="translate(155.77 199.038)"><rect stroke="#85ACB0" stroke-width=".721" fill="#FFF" fill-rule="nonzero" x=".361" y=".361" width="56.971" height="22.356" rx="2.885"/><text font-family="IBM Plex Sans, sans-serif" font-size="10.096" font-weight="bold" fill="#333"><tspan x="2.5" y="14.5">30 minutes</tspan></text></g><text font-family="IBM Plex Sans, sans-serif" font-size="10.096" fill="#333" transform="translate(225 199.038)"><tspan x="14.611" y="13.327">1 hour</tspan></text></g><g><text font-family="IBM Plex Sans, sans-serif" font-size="10.096" fill="#333" transform="translate(17.308 233.654)"><tspan x="12.009" y="13.327">2 hours</tspan></text><text font-family="IBM Plex Sans, sans-serif" font-size="10.096" fill="#333" transform="translate(86.538 233.654)"><tspan x="12.009" y="13.327">4 hours</tspan></text><text font-family="IBM Plex Sans, sans-serif" font-size="10.096" fill="#333" transform="translate(155.77 233.654)"><tspan x="12.009" y="13.327">8 hours</tspan></text><text font-family="IBM Plex Sans, sans-serif" font-size="10.096" fill="#333" transform="translate(225 233.654)"><tspan x="16.781" y="13.327">1 day</tspan></text></g></g><g mask="url(#q)"><g transform="translate(17.308 40.385)"><rect stroke="#85ACB0" stroke-width=".721" fill="#FFF" fill-rule="nonzero" x=".361" y=".361" width="56.971" height="56.971" rx="2.885"/><path d="M35.697 11.899l-7.211 6.49-2.164-2.163-4.327 4.327v2.163h13.702V11.9z" stroke-width=".721" fill-rule="nonzero" fill="#85ACB0" fill-opacity=".4" stroke="#85ACAF"/><text font-family="IBM Plex Sans, sans-serif" font-size="10.096" font-weight="bold" fill="#333"><tspan x="18.173" y="43.615">Area</tspan></text></g><g stroke-width=".721"><g stroke="#EC3F3F"><path fill="#EC3F3F" d="M117.188 54.447h5.048v9.375h-5.048z"/><path d="M119.712 64.183v2.163M119.712 54.087v-2.164"/></g><g stroke="#4BB4B3"><path fill="#4BB4B3" d="M108.534 51.562h5.048v9.375h-5.048z"/><path d="M111.058 61.298v2.164M111.058 51.202v-2.164"/></g></g><text font-family="IBM Plex Sans, sans-serif" font-size="10.096" fill="#333" transform="translate(86.538 40.385)"><tspan x="13.283" y="43.615">Candle</tspan></text><g stroke-width=".721"><g stroke="#EC3F3F"><path d="M186.418 54.447h5.048v9.375h-5.048zM188.942 64.183v2.163M188.942 54.087v-2.164"/></g><g stroke="#4BB4B3"><path d="M177.764 51.562h5.049v9.375h-5.049zM180.288 61.298v2.164M180.288 51.202v-2.164"/></g></g><text font-family="IBM Plex Sans, sans-serif" font-size="10.096" fill="#333" transform="translate(155.77 40.385)"><tspan x="13.246" y="43.615">Hollow</tspan></text><g><path d="M249.88 49.038v10.096h-3.245v.722h3.245v2.163h.721v-8.655l3.245.001v-.72l-3.245-.002v-3.605h-.721z" fill="#4BB4B3"/><path d="M257.813 53.365v10.096h3.245v.722h-3.246v2.163h-.72v-8.655l-3.246.001v-.72l3.245-.002v-3.605h.722z" fill="#EC3F3F"/><text font-family="IBM Plex Sans, sans-serif" font-size="10.096" fill="#333" transform="translate(225 40.385)"><tspan x="16.135" y="43.615">OHLC</tspan></text></g><g><g fill="#333"><path d="M286.577 16.077a.721.721 0 010 1.02l-3.096 3.096 3.096 3.097a.721.721 0 11-1.02 1.02l-3.095-3.097-3.096 3.097a.721.721 0 01-1.02-1.02l3.096-3.097-3.096-3.097a.721.721 0 011.02-1.02l3.096 3.097 3.095-3.096a.721.721 0 011.02 0z"/><text font-family="IBM Plex Sans, sans-serif" font-size="11.538" font-weight="bold"><tspan x="11.538" y="22.538">Chart types</tspan></text></g></g></g></g></g></g></svg>