<svg xmlns="http://www.w3.org/2000/svg" width="112" height="53"><g fill="none" fill-rule="evenodd"><path fill="#2F2F2F" fill-rule="nonzero" d="M112 13.886v17.215c0 4.363-3.284 7.899-7.35 7.899H26.034L22.7 28.011a7.875 7.875 0 003.344-6.51c0-4.3-3.297-7.802-7.338-7.802a3.308 3.308 0 00-.355 0l-2.265-7.444L16 6h88.65c4.066 0 7.35 3.536 7.35 7.886z"/><g fill-rule="nonzero"><path fill="#FF444F" d="M19.498 0C8.808-.003.11 8.564 0 19.204c0 13.133 17.453 32.43 18.197 33.214a1.762 1.762 0 002.618 0c3.252-3.64 6.27-7.48 9.035-11.497C34.419 34.274 39 25.911 39 19.204 39 8.62 30.26 0 19.498 0zm0 28.866c-5.36.13-9.81-4.088-9.942-9.423-.13-5.335 4.108-9.766 9.467-9.896h.475c5.384-.02 9.77 4.298 9.813 9.657a9.583 9.583 0 01-4.47 8.091 9.846 9.846 0 01-5.343 1.558v.013z"/><path fill="#FFF" d="M30 18.878c.051 4.055-2.474 7.739-6.393 9.325-3.919 1.586-8.456.761-11.486-2.089-3.03-2.85-3.951-7.16-2.334-10.912C11.405 11.45 15.241 9 19.5 9c2.768-.016 5.43 1.016 7.398 2.868 1.97 1.852 3.085 4.374 3.102 7.01z"/></g><text fill="#FFF" font-family="IBM Plex Sans, sans-serif" font-size="16"><tspan x="49" y="27">Malta</tspan></text></g></svg>