<svg width="328" height="200" xmlns="http://www.w3.org/2000/svg"><g stroke="#85ACB0" stroke-width="2" fill="none" fill-rule="evenodd"><path d="M175.564 126.338v-3.494h-12.971v5.292h-16.531c-.311-.445-.835-1.211-1.57-2.297-1.103-1.629-1.893-2.317-3.184-2.995-.86-.451-2.02-.618-3.475-.499V101.88h41.703v23.959l-3.972.5zM138.826 101.381c1.323-6.322 3.144-10.648 5.46-12.978 2.318-2.33 5.13-4.326 8.44-5.99h11.916c4.634 2.33 7.447 4.326 8.44 5.99.993 1.664 2.813 5.99 5.461 12.978M152.23 81.914v-1.996h1.986v-9.484h8.44l.497 9.484h1.489v1.996M155.209 70.434l2.482-3.494.993-6.988.993 6.988 1.986 3.494" fill="#E7EEEF"/><path d="M125.42 152.294V130.33h8.44c.332-4.991 1.987-7.487 4.966-7.487 2.978 0 5.13 1.83 6.454 5.49h17.873v-5.49h12.411v30.448"/><path fill="#E7EEEF" d="M175.564 105.374v9.983h3.002M172.089 105.374v9.983h2.64M168.117 105.374v9.983h3.002M165.138 105.374v9.983h2.002M161.167 105.374v9.983h3.002M157.195 105.374v9.983h3.002M153.223 105.374v9.983h3.002M149.251 105.374v9.983h3.002M145.28 105.374v9.983h3.002M141.308 105.374v9.983h3.058"/><path d="M137.336 105.374v9.983h3.972M52.936 152.294v-18.469h63.044v19.467M106.059 133.825v-9.483H88.186v-8.486H65.348v3.993h-6.95v13.976"/><path fill="#E7EEEF" d="M207.835 157.285l-1.35-66.386h3.202v6.489h7.983v-6.489h3.073v66.386"/><path fill="#E7EEEF" d="M210.263 97.388v-11.48h1.616v-6.49h1.078V64.445h1.078V79.42h1.616v6.489h1.617v11.48"/><path d="M207.835 145.805h-10.923v-13.477h-6.454v-5.99h-14.894M179.536 106.872h9.93v8.485h18.369M189.465 110.366h18.37M125.42 110.366h-5.957v-2.496l-22.34.499v4.991h-6.455l-13.901-.998h-2.482v-2.995l-15.887-.998v3.993M29.602 174.256h28.796v-20.964l177.735 3.993v21.962M271.383 158.283h-11.916v-24.957h-20.852V148.8h-6.453v-34.441h4.468v-3.993h5.958v3.993h7.447v17.969"/><path d="M220.743 106.872h2.979v-5.491h2.482v5.49h6.95v7.488M250.035 116.854h11.915v5.491h12.908v30.947M44 179.247h240.167M175.068 197.716c1.655-1.997 3.144-2.995 4.468-2.995 1.986 0 2.482 2.995 4.965 2.995 2.482 0 2.482-2.995 4.468-2.995 1.986 0 3.245 2.995 5.461 2.995 1.477 0 2.636-.999 3.475-2.995M184.997 192.724c1.655-1.996 3.144-2.995 4.468-2.995 1.986 0 2.483 2.995 4.965 2.995 2.482 0 2.482-2.995 4.468-2.995 1.986 0 3.246 2.995 5.461 2.995 1.478 0 2.636-.998 3.476-2.995"/></g></svg>