<?xml version="1.0" encoding="UTF-8"?>
<svg width="256px" height="147px" viewBox="0 0 256 147" version="1.1" xmlns="http://www.w3.org/2000/svg" xmlns:xlink="http://www.w3.org/1999/xlink">
    <!-- Generator: Sketch 57.1 (83088) - https://sketch.com -->
    <title>icons/about us/malta</title>
    <desc>Created with Sketch.</desc>
    <g id="About-us" stroke="none" stroke-width="1" fill="none" fill-rule="evenodd">
        <g id="1.0---About-us" transform="translate(-411.000000, -2478.000000)" stroke="#85ACB0">
            <g id="Our-locations" transform="translate(0.000000, 1954.000000)">
                <g id="4-illustration/about_us/malta" transform="translate(382.000000, 472.000000)">
                    <g id="icons/about-us/malta" transform="translate(29.000000, 59.000000)">
                        <g id="Group-21" transform="translate(0.269761, 0.952055)" stroke-width="2">
                            <path d="M146.294471,66.3861301 L146.294471,62.8921233 L133.323075,62.8921233 L133.323075,68.1843504 L116.791862,68.1843504 C116.480875,67.7386467 115.957629,66.9728586 115.222124,65.8869863 C114.118867,64.2581778 113.329061,63.5694549 112.038124,62.8921233 C111.177499,62.4405689 110.019072,62.2741876 108.562842,62.3929795 L108.562842,41.9280822 L150.266222,41.9280822 L150.266222,65.8869863 L146.294471,66.3861301 Z" id="Path-57" fill="#E7EEEF"></path>
                            <path d="M109.55578,41.4289384 C110.879697,35.1064498 112.700082,30.7805365 115.016937,28.4511986 C117.333791,26.1218607 120.147114,24.1252854 123.456906,22.4614726 L135.372158,22.4614726 C140.005866,24.7908105 142.81919,26.7873858 143.812127,28.4511986 C144.805065,30.1150114 146.62545,34.4409247 149.273284,41.4289384" id="Path-58" fill="#E7EEEF"></path>
                            <polyline id="Path-59" fill="#E7EEEF" points="122.960438 21.9623288 122.960438 19.9657534 124.946313 19.9657534 124.946313 10.4820205 133.386282 10.4820205 133.882751 19.9657534 135.372158 19.9657534 135.372158 21.9623288"></polyline>
                            <polyline id="Path-60" fill="#E7EEEF" points="125.93925 10.4820205 128.421594 6.9880137 129.414532 0 130.40747 6.9880137 132.393345 10.4820205"></polyline>
                            <path d="M96.1511224,92.3416096 L96.1511224,70.3792808 L104.591092,70.3792808 C104.922071,65.3878425 106.576967,62.8921233 109.55578,62.8921233 C112.534593,62.8921233 114.685958,64.7223174 116.009874,68.3827055 L133.882751,68.3827055 L133.882751,62.8921233 L146.294471,62.8921233 L146.294471,93.3398973" id="Path-62"></path>
                            <polyline id="Path-61" fill="#E7EEEF" points="146.294471 45.422089 146.294471 55.4049658 149.296556 55.4049658"></polyline>
                            <polyline id="Path-61-Copy" fill="#E7EEEF" points="142.81919 45.422089 142.81919 55.4049658 145.459288 55.4049658"></polyline>
                            <polyline id="Path-61-Copy-2" fill="#E7EEEF" points="138.847439 45.422089 138.847439 55.4049658 141.849524 55.4049658"></polyline>
                            <polyline id="Path-61-Copy-3" fill="#E7EEEF" points="135.868626 45.422089 135.868626 55.4049658 137.870016 55.4049658"></polyline>
                            <polyline id="Path-61-Copy-4" fill="#E7EEEF" points="131.896876 45.422089 131.896876 55.4049658 134.898961 55.4049658"></polyline>
                            <polyline id="Path-61-Copy-5" fill="#E7EEEF" points="127.925126 45.422089 127.925126 55.4049658 130.92721 55.4049658"></polyline>
                            <polyline id="Path-61-Copy-6" fill="#E7EEEF" points="123.953375 45.422089 123.953375 55.4049658 126.95546 55.4049658"></polyline>
                            <polyline id="Path-61-Copy-7" fill="#E7EEEF" points="119.981625 45.422089 119.981625 55.4049658 122.98371 55.4049658"></polyline>
                            <polyline id="Path-61-Copy-8" fill="#E7EEEF" points="116.009874 45.422089 116.009874 55.4049658 119.011959 55.4049658"></polyline>
                            <polyline id="Path-61-Copy-9" fill="#E7EEEF" points="112.038124 45.422089 112.038124 55.4049658 115.095931 55.4049658"></polyline>
                            <polyline id="Path-61-Copy-10" points="108.066374 45.422089 108.066374 55.4049658 112.038124 55.4049658"></polyline>
                            <polyline id="Path-63" points="23.6666774 92.3416096 23.6666774 73.8732877 86.7104578 73.8732877 86.7104578 93.3398973"></polyline>
                            <polyline id="Path-64" points="76.7888391 73.8732877 76.7888391 64.3895548 58.9159623 64.3895548 58.9159623 55.9041096 36.0783975 55.9041096 36.0783975 59.8972603 29.1278343 59.8972603 29.1278343 73.8732877"></polyline>
                            <polyline id="Path-65" fill="#E7EEEF" points="178.564943 97.3330479 177.215298 30.9469178 180.416887 30.9469178 180.416887 37.4357877 188.399754 37.4357877 188.399754 30.9469178 191.473132 30.9469178 191.473132 97.3330479"></polyline>
                            <polyline id="Path-66" fill="#E7EEEF" points="180.992986 37.4357877 180.992986 25.9554795 182.609493 25.9554795 182.609493 19.4666096 183.687165 19.4666096 183.687165 4.49229452 184.764836 4.49229452 184.764836 19.4666096 186.381343 19.4666096 186.381343 25.9554795 187.997851 25.9554795 187.997851 37.4357877"></polyline>
                            <polyline id="Path-67" points="178.564943 85.8527397 167.64263 85.8527397 167.64263 72.3758562 161.188535 72.3758562 161.188535 66.3861301 146.294471 66.3861301"></polyline>
                            <polyline id="Path-68" points="150.266222 46.9195205 160.195598 46.9195205 160.195598 55.4049658 178.564943 55.4049658"></polyline>
                            <path d="M160.195598,50.4135274 L178.564943,50.4135274" id="Path-69"></path>
                            <polyline id="Path-71" points="96.1511224 50.4135274 90.1934968 50.4135274 90.1934968 47.9178082 67.8524007 48.4169521 67.8524007 53.4083904 61.3983063 53.4083904 47.4971799 52.4101027 45.0148359 52.4101027 45.0148359 49.4152397 29.1278343 48.4169521 29.1278343 52.4101027"></polyline>
                            <polyline id="Path-74" points="0.332643793 114.303938 29.1278343 114.303938 29.1278343 93.3398973 206.863665 97.3330479 206.863665 119.295377"></polyline>
                            <polyline id="Path-75" points="242.11295 98.3313356 230.197699 98.3313356 230.197699 73.3741438 220.764791 73.3741438 209.346009 73.3741438 209.346009 88.8476027 202.891915 88.8476027 202.891915 54.4066781 207.360134 54.4066781 207.360134 50.4135274 213.317759 50.4135274 213.317759 54.4066781 220.764791 54.4066781 220.764791 72.3758562"></polyline>
                            <polyline id="Path-76" points="191.473132 46.9195205 194.451945 46.9195205 194.451945 41.4289384 196.934289 41.4289384 196.934289 46.9195205 203.884852 46.9195205 203.884852 54.4066781"></polyline>
                            <polyline id="Path-77" points="220.764791 56.9023973 232.680043 56.9023973 232.680043 62.3929795 245.588231 62.3929795 245.588231 93.3398973"></polyline>
                            <path d="M14.730239,119.295377 L254.897022,119.295377" id="Path-81"></path>
                            <path d="M145.798002,137.763699 C147.452898,135.767123 148.942305,134.768836 150.266222,134.768836 C152.252097,134.768836 152.748566,137.763699 155.23091,137.763699 C157.713254,137.763699 157.713254,134.768836 159.699129,134.768836 C161.685004,134.768836 162.944448,137.763699 165.160286,137.763699 C166.637511,137.763699 167.795938,136.765411 168.635567,134.768836" id="Path-28-Copy"></path>
                            <path d="M155.727379,132.77226 C157.382275,130.775685 158.871681,129.777397 160.195598,129.777397 C162.181473,129.777397 162.677942,132.77226 165.160286,132.77226 C167.64263,132.77226 167.64263,129.777397 169.628505,129.777397 C171.61438,129.777397 172.873824,132.77226 175.089662,132.77226 C176.566887,132.77226 177.725314,131.773973 178.564943,129.777397" id="Path-28-Copy"></path>
                        </g>
                    </g>
                </g>
            </g>
        </g>
    </g>
</svg>