<svg xmlns="http://www.w3.org/2000/svg" xmlns:xlink="http://www.w3.org/1999/xlink" width="82" height="32" viewBox="0 0 82 32" aria-labelledby='pin-point' role='img'>
 <title id='pin-pointâˆ'>PinPoint</title>
    <defs>
        <path id="a" d="M28.032 17V8.624h3.6c.776 0 1.376.228 1.8.684.424.456.636 1.068.636 1.836s-.212 1.38-.636 1.836c-.424.456-1.024.684-1.8.684h-2.244V17h-1.356zm1.356-4.524h2.16c.344 0 .612-.09.804-.27.192-.18.288-.438.288-.774v-.576c0-.336-.096-.594-.288-.774-.192-.18-.46-.27-.804-.27h-2.16v2.664zM39.888 17c-.344 0-.608-.098-.792-.294a1.314 1.314 0 0 1-.336-.75h-.06c-.12.392-.34.688-.66.888-.32.2-.708.3-1.164.3-.648 0-1.146-.168-1.494-.504-.348-.336-.522-.788-.522-1.356 0-.624.226-1.092.678-1.404.452-.312 1.114-.468 1.986-.468h1.128v-.528c0-.384-.104-.68-.312-.888-.208-.208-.532-.312-.972-.312-.368 0-.668.08-.9.24-.232.16-.428.364-.588.612l-.78-.708a2.5 2.5 0 0 1 .876-.87c.376-.228.868-.342 1.476-.342.808 0 1.428.188 1.86.564.432.376.648.916.648 1.62v3.132h.66V17h-.732zm-2.64-.852c.408 0 .744-.09 1.008-.27.264-.18.396-.422.396-.726v-.9h-1.104c-.904 0-1.356.28-1.356.84v.216c0 .28.094.49.282.63.188.14.446.21.774.21zm4.656.852v-6.24h1.308v1.2h.06c.088-.32.272-.6.552-.84s.668-.36 1.164-.36h.348v1.26h-.516c-.52 0-.918.084-1.194.252a.817.817 0 0 0-.414.744V17h-1.308zm9.072 0c-.344 0-.608-.098-.792-.294a1.314 1.314 0 0 1-.336-.75h-.06c-.12.392-.34.688-.66.888-.32.2-.708.3-1.164.3-.648 0-1.146-.168-1.494-.504-.348-.336-.522-.788-.522-1.356 0-.624.226-1.092.678-1.404.452-.312 1.114-.468 1.986-.468h1.128v-.528c0-.384-.104-.68-.312-.888-.208-.208-.532-.312-.972-.312-.368 0-.668.08-.9.24-.232.16-.428.364-.588.612l-.78-.708a2.5 2.5 0 0 1 .876-.87c.376-.228.868-.342 1.476-.342.808 0 1.428.188 1.86.564.432.376.648.916.648 1.62v3.132h.66V17h-.732zm-2.64-.852c.408 0 .744-.09 1.008-.27.264-.18.396-.422.396-.726v-.9h-1.104c-.904 0-1.356.28-1.356.84v.216c0 .28.094.49.282.63.188.14.446.21.774.21zm10.128 1.44c0 .648-.248 1.136-.744 1.464-.496.328-1.304.492-2.424.492-.512 0-.946-.034-1.302-.102a2.914 2.914 0 0 1-.876-.294 1.258 1.258 0 0 1-.498-.468 1.27 1.27 0 0 1-.156-.636c0-.344.094-.612.282-.804.188-.192.45-.324.786-.396v-.132c-.472-.152-.708-.472-.708-.96 0-.32.108-.566.324-.738.216-.172.476-.294.78-.366V14.6a1.962 1.962 0 0 1-.846-.738 2.063 2.063 0 0 1-.294-1.11c0-.64.214-1.156.642-1.548.428-.392 1.042-.588 1.842-.588.44 0 .816.064 1.128.192v-.168c0-.28.066-.498.198-.654.132-.156.338-.234.618-.234h.96v1.056h-1.272v.252c.28.184.496.422.648.714.152.292.228.618.228.978 0 .632-.216 1.142-.648 1.53-.432.388-1.048.582-1.848.582-.304 0-.576-.032-.816-.096-.16.056-.3.134-.42.234s-.18.23-.18.39a.37.37 0 0 0 .228.36c.152.072.368.108.648.108h1.536c.768 0 1.324.154 1.668.462.344.308.516.73.516 1.266zm-1.224.144a.62.62 0 0 0-.246-.516c-.164-.128-.462-.192-.894-.192h-2.112c-.288.168-.432.408-.432.72a.74.74 0 0 0 .306.618c.204.156.55.234 1.038.234h.816c1.016 0 1.524-.288 1.524-.864zm-1.956-3.816c.384 0 .682-.086.894-.258.212-.172.318-.438.318-.798v-.24c0-.36-.106-.626-.318-.798-.212-.172-.51-.258-.894-.258s-.682.086-.894.258c-.212.172-.318.438-.318.798v.24c0 .36.106.626.318.798.212.172.51.258.894.258zm7.884 2.052h-.048c-.056.152-.13.3-.222.444-.092.144-.208.27-.348.378-.14.108-.308.194-.504.258a2.184 2.184 0 0 1-.678.096c-.648 0-1.15-.208-1.506-.624-.356-.416-.534-1.012-.534-1.788V10.76h1.308v3.804c0 .968.4 1.452 1.2 1.452.168 0 .332-.022.492-.066.16-.044.302-.11.426-.198a.968.968 0 0 0 .414-.816V10.76h1.308V17h-1.308v-1.032zM70.92 17c-.344 0-.608-.098-.792-.294a1.314 1.314 0 0 1-.336-.75h-.06c-.12.392-.34.688-.66.888-.32.2-.708.3-1.164.3-.648 0-1.146-.168-1.494-.504-.348-.336-.522-.788-.522-1.356 0-.624.226-1.092.678-1.404.452-.312 1.114-.468 1.986-.468h1.128v-.528c0-.384-.104-.68-.312-.888-.208-.208-.532-.312-.972-.312-.368 0-.668.08-.9.24-.232.16-.428.364-.588.612l-.78-.708a2.5 2.5 0 0 1 .876-.87c.376-.228.868-.342 1.476-.342.808 0 1.428.188 1.86.564.432.376.648.916.648 1.62v3.132h.66V17h-.732zm-2.64-.852c.408 0 .744-.09 1.008-.27.264-.18.396-.422.396-.726v-.9H68.58c-.904 0-1.356.28-1.356.84v.216c0 .28.094.49.282.63.188.14.446.21.774.21zm8.4-5.388h1.26l-2.628 7.476a2.662 2.662 0 0 1-.246.534c-.092.148-.2.268-.324.36-.124.092-.274.16-.45.204a2.596 2.596 0 0 1-.624.066h-.756v-1.068h1.056l.36-1.056-2.268-6.516h1.308l1.248 3.672.36 1.356h.06l.396-1.356 1.248-3.672z"/>
    </defs>
    <g fill="none" fill-rule="evenodd">
        <path fill="#2A2A2A" d="M16 1h62a4 4 0 0 1 4 4v16a4 4 0 0 1-4 4H16V1z"/>
        <path fill="#FF444F" fill-rule="nonzero" d="M12 0c6.627 0 12 5.373 12 12 0 4.252-3.55 10.341-10.619 18.436l-.634.718a.998.998 0 0 1-1.496.001C3.762 22.701 0 16.377 0 12 0 5.373 5.373 0 12 0z"/>
        <circle cx="12" cy="12" r="6" fill="#FFF"/>
        <g fill-rule="nonzero">
            <use fill="#000" xlink:href="#a"/>
            <use fill="#FFF" xlink:href="#a"/>
        </g>
    </g>
</svg>
