<svg xmlns="http://www.w3.org/2000/svg" width="32" height="32" viewBox="0 0 32 32">
    <g fill="none">
        <path fill="#33658A" d="M26 0c3.314 0 6 2.686 6 6v20c0 3.314-2.686 6-6 6H6c-3.314 0-6-2.686-6-6V6c0-3.314 2.686-6 6-6h20z"/>
        <path fill="#FFF" d="M22.5 18c2.485 0 4.5 2.015 4.5 4.5S24.985 27 22.5 27 18 24.985 18 22.5s2.015-4.5 4.5-4.5zm0 2c-1.38 0-2.5 1.12-2.5 2.5s1.12 2.5 2.5 2.5 2.5-1.12 2.5-2.5-1.12-2.5-2.5-2.5zM9.5 5C11.985 5 14 7.015 14 9.5S11.985 14 9.5 14 5 11.985 5 9.5 7.015 5 9.5 5zm0 2C8.12 7 7 8.12 7 9.5S8.12 12 9.5 12 12 10.88 12 9.5 10.88 7 9.5 7zM24.293 6.293c.39-.39 1.024-.39 1.414 0 .36.36.388.928.083 1.32l-.083.094-18 18c-.39.39-1.024.39-1.414 0-.36-.36-.388-.928-.083-1.32l.083-.094 18-18z"/>
    </g>
</svg>
