<svg xmlns="http://www.w3.org/2000/svg" width="32" height="32" viewBox="0 0 32 32">
    <path fill="#FF444F" d="M28 0c2.21 0 4 1.79 4 4v24c0 2.21-1.79 4-4 4H4c-2.21 0-4-1.79-4-4V4c0-2.21 1.79-4 4-4h24zm0 2H4c-1.054 0-1.918.816-1.995 1.85L2 4v24c0 1.054.816 1.918 1.85 1.995L4 30h24c1.054 0 1.918-.816 1.995-1.85L30 28V4c0-1.054-.816-1.918-1.85-1.995L28 2zm-6 15c2.761 0 5 2.239 5 5s-2.239 5-5 5-5-2.239-5-5 2.239-5 5-5zm0 2c-1.657 0-3 1.343-3 3s1.343 3 3 3 3-1.343 3-3-1.343-3-3-3zm1.778-10.778c.39.39.39 1.024 0 1.414L9.636 23.778c-.39.39-1.024.39-1.414 0-.39-.39-.39-1.024 0-1.414L22.364 8.222c.39-.39 1.024-.39 1.414 0zM10 5c2.761 0 5 2.239 5 5s-2.239 5-5 5-5-2.239-5-5 2.239-5 5-5zm0 2c-1.657 0-3 1.343-3 3s1.343 3 3 3 3-1.343 3-3-1.343-3-3-3z"/>
</svg>
