<svg xmlns="http://www.w3.org/2000/svg" width="32" height="32" viewBox="0 0 32 32">
    <defs>
        <linearGradient id="y2tnpba92a" x1="0%" x2="100%" y1="100%" y2="0%">
            <stop offset="0%" stop-color="#FF444F"/>
            <stop offset="100%" stop-color="#FF6444"/>
        </linearGradient>
    </defs>
    <path fill="url(#y2tnpba92a)" d="M121 32c2.21 0 4 1.79 4 4v24c0 2.21-1.79 4-4 4H97c-2.21 0-4-1.79-4-4V36c0-2.21 1.79-4 4-4h24zm0 2H97c-1.054 0-1.918.816-1.995 1.85L95 36v24c0 1.054.816 1.918 1.85 1.995L97 62h24c1.054 0 1.918-.816 1.995-1.85L123 60V36c0-1.054-.816-1.918-1.85-1.995L121 34zm-6 15c2.761 0 5 2.239 5 5s-2.239 5-5 5-5-2.239-5-5 2.239-5 5-5zm0 2c-1.657 0-3 1.343-3 3s1.343 3 3 3 3-1.343 3-3-1.343-3-3-3zm1.778-10.778c.39.39.39 1.024 0 1.414l-14.142 14.142c-.39.39-1.024.39-1.414 0-.39-.39-.39-1.024 0-1.414l14.142-14.142c.39-.39 1.024-.39 1.414 0zM103 37c2.761 0 5 2.239 5 5s-2.239 5-5 5-5-2.239-5-5 2.239-5 5-5zm0 2c-1.657 0-3 1.343-3 3s1.343 3 3 3 3-1.343 3-3-1.343-3-3-3z" transform="translate(-93 -32)"/>
</svg>
