<svg xmlns="http://www.w3.org/2000/svg" width="64" height="64" viewBox="0 0 64 64" aria-labelledby="market-condition-icon-title">
    <title id='market-condition-icon-title'>Market condition icon</title>
    <g fill="none" fill-rule="nonzero">
        <path fill="#0E0E0E" d="M13 62H7c-.561 0-1-.422-1-.922V32a1 1 0 0 0-2 0v29.078C4 62.701 5.352 64 7 64h6a1 1 0 0 0 0-2z"/>
        <path fill="#0E0E0E" d="M9 36l-4-3.789L1 36v-3.22L5 29l4 3.78zM61 30.838L64 28v3.216L60 35l-4-3.784V28l3 2.838V2.926c0-.47-.541-.926-1.286-.926H52a1 1 0 0 1 0-2h5.714C59.494 0 61 1.268 61 2.926v27.912z"/>
        <path fill="#FF444F" d="M39.189 46.77a1.08 1.08 0 0 1-.378 0h-1.144v2.768h2.55c.539-.005 1.005-.536 1.005-1.227v-.323c0-.34-.118-.663-.322-.892a.918.918 0 0 0-.691-.327h-1.02zM38 44.922c.003-.51.45-.923 1-.923s.997.413 1 .923h.204c.757-.004 1.478.331 2.003.921.51.575.793 1.345.793 2.144v.323c0 .83-.301 1.591-.794 2.148.51.575.794 1.345.794 2.144v.323C43 54.607 41.768 56 40.209 56H40v.071c0 .513-.448.929-1 .929s-1-.416-1-.929V56h-2.111c-.491 0-.889-.413-.889-.923s.398-.923.889-.923v-2.77c-.491 0-.889-.413-.889-.922 0-.51.398-.924.889-.924V46.77c-.491 0-.889-.413-.889-.923s.398-.923.889-.923c0-.51.398-.923.889-.923.49 0 .889.413.889.923H38zm-.333 9.23h2.542c.542 0 1.013-.532 1.013-1.227v-.323c0-.34-.118-.662-.322-.892a.918.918 0 0 0-.691-.326h-2.542v2.769z"/>
        <path fill="#85ACB0" d="M38.5 61C44.299 61 49 56.299 49 50.5S44.299 40 38.5 40 28 44.701 28 50.5 32.701 61 38.5 61zm0-2a8.5 8.5 0 1 1 0-17 8.5 8.5 0 0 1 0 17z"/>
        <path fill="#85ACB0" d="M56.07 62A7.005 7.005 0 0 1 62 56.07V44.93A7.005 7.005 0 0 1 56.07 39H23.983c-.113 1.69-.752 3.303-1.832 4.567C20.828 45.114 18.962 46 17 46v10a7.002 7.002 0 0 1 6.93 6h32.14zm2.03 0H61a1 1 0 0 0 1-1v-2.9a5.006 5.006 0 0 0-3.9 3.9zm0-23a5.006 5.006 0 0 0 3.9 3.9V40a1 1 0 0 0-1-1h-2.9zm-36.124 0H18a1 1 0 0 0-1 1v4c1.369-.001 2.682-.624 3.63-1.732.768-.9 1.238-2.051 1.346-3.268zm1.002-2H61a3 3 0 0 1 3 3v21a3 3 0 0 1-3 3H18a3 3 0 0 1-3-3V40a3 3 0 0 1 3-3h4.978zM21.9 62a5.002 5.002 0 0 0-4.9-4v3a1 1 0 0 0 1 1h3.9zM24.5 23a9.5 9.5 0 1 0 0-19 9.5 9.5 0 0 0 0 19zm0-2a7.5 7.5 0 1 1 0-15 7.5 7.5 0 0 1 0 15z"/>
        <path fill="#85ACB0" d="M3 0h43a3 3 0 0 1 3 3v21a3 3 0 0 1-3 3H3a3 3 0 0 1-3-3V3a3 3 0 0 1 3-3zm0 2a1 1 0 0 0-1 1v21a1 1 0 0 0 1 1h43a1 1 0 0 0 1-1V3a1 1 0 0 0-1-1H3z"/>
        <path fill="#85ACB0" d="M9 25.96a1 1 0 1 1-2 .08c-.116-2.865-2.77-5.138-5.968-5.037a1 1 0 0 1-.064-1.999C5.228 18.87 8.836 21.96 9 25.96zM1 9a1 1 0 0 1 0-2c1.676.001 3.272-.647 4.407-1.784 1.12-1.124 1.69-2.623 1.58-4.144A1 1 0 0 1 8.98.928c.153 2.104-.631 4.17-2.158 5.7C5.309 8.145 3.2 9.002.999 9zM40.003.968a1 1 0 1 1 2 .064C41.901 4.23 44.174 6.884 47.04 7a1 1 0 0 1-.082 1.998c-4-.163-7.09-3.77-6.955-8.03zM47 19a1 1 0 1 1 0 2 5.005 5.005 0 0 0-3.539 1.465A4.986 4.986 0 0 0 42 25.998a1 1 0 1 1-2 .004 6.986 6.986 0 0 1 2.047-4.951A7.005 7.005 0 0 1 47 19z"/>
        <path fill="#FF444F" d="M23.496 18.32A3.52 3.52 0 0 1 21 14.946a1 1 0 0 1 2 0c0 .842.673 1.521 1.5 1.521.648 0 1.202-.417 1.41-1.003L21 12.558v-.57a3.52 3.52 0 0 1 2.5-3.375V8a1 1 0 0 1 2 0v.613a3.52 3.52 0 0 1 2.5 3.375 1 1 0 1 1-2 0 1.51 1.51 0 0 0-1.5-1.52c-.648 0-1.202.416-1.41 1.002L28 14.376v.57a3.52 3.52 0 0 1-2.504 3.376l.004.673a1 1 0 0 1-2 .01l-.004-.685z"/>
    </g>
</svg>
