<svg viewBox="0 0 486.3 486.3" height="32" width="32"><path d="M243.15 0v104.4c44.11 0 80 35.88 80 80 0 44.11-35.89 80-80 80v221.9l146.43-184.1c26.29-33.25 40.19-73.21 40.19-115.58C429.77 83.72 346.05 0 243.15 0z" fill="#cd2a00"/><path d="M323.15 184.4c0-44.12-35.89-80-80-80v160c44.11 0 80-35.89 80-80z" fill="#d8d7da"/><path d="M163.15 184.4c0-44.12 35.89-80 80-80V0C140.25 0 56.53 83.72 56.53 186.62c0 42.37 13.9 82.33 40.23 115.62L243.15 486.3V264.4c-44.11 0-80-35.89-80-80z" fill="#ff3501"/><path d="M163.15 184.4c0 44.11 35.89 80 80 80v-160c-44.11 0-80 35.88-80 80z" fill="#fff"/></svg>