<svg xmlns="http://www.w3.org/2000/svg" width="73" height="61" viewBox="0 0 73 61">
    <defs>
        <linearGradient id="a" x1="87.681%" x2="-13.226%" y1="11.777%" y2="66.806%">
            <stop offset="0%" stop-color="#FF8268"/>
            <stop offset="100%" stop-color="#FF4449"/>
        </linearGradient>
        <linearGradient id="b" x1="117.348%" x2="-37.175%" y1="-7.372%" y2="81.496%">
            <stop offset="19.199%" stop-color="#FF8268"/>
            <stop offset="84.502%" stop-color="#FF4449"/>
        </linearGradient>
        <linearGradient id="c" x1="117.348%" x2="-37.175%" y1="-57.296%" y2="108.904%">
            <stop offset="19.199%" stop-color="#FF8268"/>
            <stop offset="84.502%" stop-color="#FF4449"/>
        </linearGradient>
        <linearGradient id="d" x1="117.348%" x2="-37.175%" y1="-74.884%" y2="118.56%">
            <stop offset="19.199%" stop-color="#FF8268"/>
            <stop offset="84.502%" stop-color="#FF4449"/>
        </linearGradient>
        <linearGradient id="e" x1="74.853%" x2="17.831%" y1="-99.038%" y2="131.82%">
            <stop offset="19.199%" stop-color="#FF8268"/>
            <stop offset="84.502%" stop-color="#FF4449"/>
        </linearGradient>
        <linearGradient id="f" x1="66.837%" x2="28.206%" y1="-99.038%" y2="131.82%">
            <stop offset="19.199%" stop-color="#FF8268"/>
            <stop offset="84.502%" stop-color="#FF4449"/>
        </linearGradient>
        <linearGradient id="g" x1="117.348%" x2="-37.175%" y1="49.688%" y2="50.171%">
            <stop offset="19.199%" stop-color="#FF8268"/>
            <stop offset="84.502%" stop-color="#FF4449"/>
        </linearGradient>
        <linearGradient id="h" x1="50%" x2="50%" y1="0%" y2="100%">
            <stop offset="0%" stop-color="#FF6544"/>
            <stop offset="100%" stop-color="#FF4449"/>
        </linearGradient>
        <linearGradient id="i" x1="117.348%" x2="-37.175%" y1="40.327%" y2="55.31%">
            <stop offset="19.199%" stop-color="#FF8268"/>
            <stop offset="84.502%" stop-color="#FF4449"/>
        </linearGradient>
    </defs>
    <g fill="none" fill-rule="evenodd">
        <path d="M-4-10h80v80H-4z"/>
        <path fill="url(#a)" fill-rule="nonzero" d="M52.508 39.891c-4.104 10.265-13.831 16.996-24.662 17.071-14.188 0-25.589-12.34-25.589-27.342v-2.278c0-.63-.505-1.14-1.128-1.14-.624 0-1.129.51-1.129 1.14v2.278c0 16.227 12.374 29.62 27.854 29.62C39.61 59.16 50.157 51.862 54.6 40.745a1.143 1.143 0 0 0-.624-1.483 1.125 1.125 0 0 0-1.47.63z" transform="translate(7.975 .975)"/>
        <path fill="url(#b)" fill-rule="nonzero" d="M2.939 22.789c3.168-11.802 13.434-20.51 25.087-20.51 14.452 0 26.745 12.646 26.745 27.329a27.807 27.807 0 0 1-.303 4.047 1.14 1.14 0 0 0 2.254.335c.216-1.45.325-2.914.327-4.38C57.05 13.68 43.751 0 28.026 0 15.293 0 4.163 9.442.738 22.198a1.14 1.14 0 1 0 2.2.59z" transform="translate(7.975 .975)"/>
        <path fill="url(#c)" fill-rule="nonzero" d="M44.5 38.587c-2.435 10.746-9.132 18.375-16.197 18.375-9.198 0-16.951-12.03-16.951-26.91V28.48c0-.63-.501-1.14-1.12-1.14a1.13 1.13 0 0 0-1.118 1.14v1.57c0 15.988 8.509 29.19 19.19 29.19 8.294 0 15.732-8.475 18.376-20.141a1.14 1.14 0 0 0-.839-1.367 1.119 1.119 0 0 0-1.342.854z" transform="translate(7.975 .975)"/>
        <path fill="url(#d)" fill-rule="nonzero" d="M11.62 23.227C13.471 11.01 20.476 2.35 28.407 2.35c9.36 0 17.248 12.139 17.248 27.169 0 1.538-.084 3.075-.252 4.606a1.14 1.14 0 1 0 2.265.248c.177-1.613.265-3.233.265-4.854 0-16.135-8.65-29.448-19.526-29.448-9.267 0-17.039 9.608-19.042 22.813a1.14 1.14 0 1 0 2.253.342z" transform="translate(7.975 .975)"/>
        <path fill="url(#e)" fill-rule="nonzero" d="M34.253 35.91c-.299 5.71-1.221 11.119-2.527 15.133-.614 1.89-1.291 3.393-1.97 4.394-.572.847-1.061 1.217-1.348 1.217-2.702 0-6.585-12.042-6.747-24.823a1.14 1.14 0 0 0-2.278.029c.178 14.074 4.369 27.073 9.025 27.073 4.086 0 7.466-10.395 8.12-22.904a1.14 1.14 0 1 0-2.275-.119z" transform="translate(7.975 .975)"/>
        <path fill="url(#f)" fill-rule="nonzero" d="M22.421 25.754c.359-13.125 3.294-23.39 5.697-23.39 2.62 0 5.696 12.517 5.696 27.244v1.236a1.14 1.14 0 0 0 2.278 0v-1.236c0-16.26-3.258-29.523-7.974-29.523-4.42 0-7.576 11.038-7.975 25.607a1.14 1.14 0 0 0 2.278.062z" transform="translate(7.975 .975)"/>
        <path fill="url(#g)" fill-rule="nonzero" d="M4.733 44.43h47.5a1.14 1.14 0 0 0 0-2.278h-47.5a1.14 1.14 0 0 0 0 2.278z" transform="translate(7.975 .975)"/>
        <path stroke="url(#h)" stroke-linecap="round" stroke-linejoin="round" stroke-width="2" d="M4.557 17.089h48.328" transform="translate(7.975 .975)"/>
        <path fill="url(#i)" fill-rule="nonzero" d="M66.9 35.104c4.86.232 7.722 1.685 7.737 4.651 0 3.739-4.231 5.462-9.894 5.379-6.064-.078-11.168-1.474-21.338-5.24-3.626-1.342-4.311-1.593-5.89-2.142a102.78 102.78 0 0 0-14.044-4.018c-7.973-1.542-12.498-1.484-16.29 1.594-1.983 1.62-3.166 3.512-3.166 5.685 0 2.176 1.034 4.545 2.598 6.244 2.09 2.18 4.547 3.47 7.583 4.037a1.14 1.14 0 1 0 .418-2.24c-2.577-.48-4.602-1.544-6.34-3.357-1.18-1.282-1.98-3.114-1.98-4.684 0-1.372.825-2.692 2.326-3.918 3.062-2.486 7.11-2.538 14.4-1.128A100.54 100.54 0 0 1 36.75 39.9c1.574.547 2.255.796 5.863 2.132 10.41 3.854 15.69 5.299 22.098 5.381 6.807.1 12.203-2.098 12.203-7.662-.023-4.632-3.975-6.639-9.907-6.922a1.14 1.14 0 1 0-.108 2.276z" transform="translate(-4 -10)"/>
    </g>
</svg>
