<svg xmlns="http://www.w3.org/2000/svg" width="84" height="64" viewBox="0 0 84 64" aria-labelledby="mastercard-icon-title">
    <title id='mastercard-icon-title'>Mastercard</title>
    <path fill="#85ACB0" fill-opacity=".5" fill-rule="evenodd" d="M81.662 63.105v.166h.153a.157.157 0 0 0 .084-.02c.021-.014.03-.036.03-.063a.07.07 0 0 0-.03-.063.157.157 0 0 0-.084-.02h-.153zm.155-.116c.08 0 .141.018.186.052a.182.182 0 0 1 .064.147.173.173 0 0 1-.051.128.256.256 0 0 1-.148.06l.203.235h-.159l-.19-.233h-.06v.233h-.134v-.622h.289zm-.04.836a.517.517 0 0 0 .518-.522.525.525 0 0 0-.316-.481.546.546 0 0 0-.41 0 .531.531 0 0 0-.278.277.528.528 0 0 0-.04.203.526.526 0 0 0 .525.522zm0-1.193a.688.688 0 0 1 .63.41.662.662 0 0 1-.146.733.67.67 0 0 1-.484.197.68.68 0 0 1-.688-.67.662.662 0 0 1 .416-.617.676.676 0 0 1 .272-.053zm-63.085-2.397c0 1.186.777 2.16 2.05 2.16 1.217 0 2.037-.93 2.037-2.16 0-1.228-.82-2.16-2.036-2.16-1.274 0-2.051.974-2.051 2.16zm5.473 0v3.375h-1.47v-.818c-.467.606-1.175.987-2.137.987-1.896 0-3.381-1.482-3.381-3.544 0-2.06 1.485-3.543 3.381-3.543.962 0 1.67.381 2.137.989v-.82h1.47v3.374zm49.684 0c0 1.186.779 2.16 2.05 2.16 1.218 0 2.039-.93 2.039-2.16 0-1.228-.821-2.16-2.038-2.16-1.272 0-2.051.974-2.051 2.16zm5.475 0v3.375h-1.472v-.818c-.465.606-1.173.987-2.135.987-1.896 0-3.381-1.482-3.381-3.544 0-2.06 1.485-3.543 3.381-3.543.962 0 1.67.381 2.135.989v-3.53h1.472v6.084zm-36.91-2.23c-1.046 0-1.64.663-1.795 1.637h3.508c-.157-1.045-.764-1.637-1.712-1.637zm.029-1.313c1.896 0 3.198 1.44 3.212 3.543 0 .198-.014.381-.028.566h-5.023c.213 1.213 1.075 1.65 2.023 1.65.68 0 1.401-.252 1.967-.704l.721 1.086c-.82.691-1.755.946-2.772.946-2.023 0-3.467-1.398-3.467-3.544 0-2.102 1.386-3.543 3.367-3.543zm17.754 3.543c0 1.186.778 2.16 2.053 2.16 1.216 0 2.036-.93 2.036-2.16 0-1.228-.82-2.16-2.036-2.16-1.275 0-2.053.974-2.053 2.16zm5.475 0v3.375h-1.471v-.818c-.466.606-1.174.987-2.136.987-1.896 0-3.38-1.482-3.38-3.544 0-2.06 1.484-3.543 3.38-3.543.962 0 1.67.381 2.136.989v-.82h1.471v3.374zm-13.778 0c0-2.046 1.428-3.543 3.606-3.543 1.02 0 1.7.227 2.434.805l-.707 1.186c-.551-.396-1.132-.608-1.768-.608-1.175.015-2.038.863-2.038 2.16 0 1.3.863 2.146 2.038 2.16.636 0 1.217-.211 1.768-.607l.707 1.186c-.735.58-1.415.805-2.434.805-2.178 0-3.606-1.497-3.606-3.544zm18.955-3.543c.299 0 .723.057 1.048.184l-.452 1.383a2.42 2.42 0 0 0-.92-.17c-.961 0-1.443.622-1.443 1.737v3.784h-1.47V56.86h1.456v.82c.382-.593.934-.99 1.781-.99zm-39.413.706l-.635 1.186c-.412-.254-1.245-.58-2.109-.58-.806 0-1.287.298-1.287.792 0 .452.51.579 1.146.662l.693.1c1.471.212 2.364.834 2.364 2.02 0 1.284-1.133 2.2-3.085 2.2-1.103 0-2.122-.282-2.929-.875l.693-1.143c.496.381 1.231.706 2.25.706 1.005 0 1.541-.297 1.541-.82 0-.38-.382-.59-1.187-.704l-.694-.099c-1.513-.212-2.333-.89-2.333-1.99 0-1.341 1.103-2.161 2.815-2.161 1.075 0 2.051.24 2.757.706zm18.973-.706c.296 0 .72.057 1.047.184l-.453 1.383a2.412 2.412 0 0 0-.92-.17c-.962 0-1.444.622-1.444 1.737v3.784h-1.47V56.86h1.457v.82c.382-.593.933-.99 1.783-.99zm-12.55.17v1.341h-2.404v3.05c0 .676.24 1.128.976 1.128.382 0 .863-.127 1.302-.381l.423 1.256c-.466.326-1.201.523-1.839.523-1.74 0-2.347-.931-2.347-2.499v-3.077h-1.373v-1.342h1.373v-2.047h1.485v2.047h2.405zM15.876 63.61H14.39v-3.756c0-1.143-.48-1.779-1.485-1.779-.976 0-1.656.621-1.656 1.794v3.74H9.764v-3.755c0-1.143-.495-1.779-1.472-1.779-1.004 0-1.654.621-1.654 1.794v3.74H5.152v-6.748h1.471v.833c.552-.79 1.26-1.002 1.98-1.002 1.035 0 1.77.452 2.236 1.2.623-.946 1.515-1.213 2.377-1.2 1.642.015 2.659 1.087 2.659 2.683v4.235zm16.488-38.195c0 8.107 3.804 15.327 9.727 19.981a25.389 25.389 0 0 1-15.739 5.434C12.286 50.83.885 39.451.885 25.415S12.286 0 26.35 0c5.941 0 11.407 2.03 15.74 5.434-5.924 4.654-9.728 11.874-9.728 19.981zm50.138 15.748h-.183v-.746l-.278.644h-.19l-.277-.642v.744h-.181v-.986h.258l.297.679.296-.679h.258v.986zm-1.635 0h-.18v-.818h-.331v-.166h.842v.166h-.33v.818zm2.43-15.75c0 14.038-11.401 25.416-25.466 25.416-5.941 0-11.407-2.03-15.738-5.435 5.923-4.652 9.726-11.873 9.726-19.98 0-8.107-3.803-15.327-9.726-19.981A25.39 25.39 0 0 1 57.83 0c14.065 0 25.466 11.378 25.466 25.414z"/>
</svg>
