<svg xmlns="http://www.w3.org/2000/svg" width="210" height="58" viewBox="0 0 210 58" aria-labelledby="mfsa-icon">
    <title id='mfsa-icon'>MFSA Icon</title>
    <path fill="#85ACB0" fill-rule="nonzero" d="M41.904 20.244h-.241l-4.094 8.194L26.65 48.28 15.975 28.518l-4.255-8.837h-.24v37.355H0V.964h12.924l13.727 26.269h.16L40.379.964h13.005v56.072h-11.48V20.244zm23.841 36.792V.964h37.168v10.845H77.947v11.487H99.22v10.765H77.947v22.975H65.745zM130.85 58c-4.924 0-9.098-.843-12.523-2.53-3.425-1.687-6.342-3.87-8.75-6.548l8.027-8.113c3.8 4.284 8.483 6.426 14.048 6.426 2.997 0 5.218-.615 6.663-1.847 1.445-1.232 2.168-2.865 2.168-4.9 0-1.554-.428-2.852-1.285-3.897-.856-1.044-2.595-1.754-5.218-2.128l-5.539-.723c-5.94-.75-10.288-2.544-13.044-5.383-2.756-2.838-4.135-6.614-4.135-11.327 0-2.517.482-4.82 1.445-6.908a15.292 15.292 0 0 1 4.135-5.382c1.792-1.5 3.987-2.665 6.582-3.495C126.02.415 128.976 0 132.293 0c4.228 0 7.948.67 11.159 2.008a22.658 22.658 0 0 1 8.268 5.865l-8.108 8.193c-1.338-1.553-2.956-2.825-4.856-3.815-1.9-.991-4.295-1.486-7.185-1.486-2.73 0-4.763.482-6.1 1.446-1.339.964-2.008 2.302-2.008 4.016 0 1.928.522 3.32 1.566 4.177 1.043.857 2.742 1.473 5.097 1.848l5.54.884c5.779.91 10.06 2.69 12.843 5.342 2.783 2.65 4.174 6.413 4.174 11.287 0 2.677-.481 5.14-1.444 7.39a15.836 15.836 0 0 1-4.215 5.784c-1.846 1.607-4.134 2.852-6.863 3.736-2.73.883-5.834 1.325-9.312 1.325zm66.468-.964l-4.014-13.335h-18.704l-4.014 13.335h-12.363L176.686.964h15.092L210 57.036h-12.683zM184.07 12.05h-.401l-6.181 21.288h12.844L184.07 12.05z"/>
</svg>
