<svg xmlns="http://www.w3.org/2000/svg" width="32" height="32" viewBox="0 0 32 32" role='img' aria-labelledby='minimal-capital'>
    <title id='minimal-capital'>Minimal Capital</title>
    <defs>
        <linearGradient id="minimalcapitalprefix__a" x1="0%" x2="100%" y1="100%" y2="0%">
            <stop offset="0%" stop-color="#FF444F"/>
            <stop offset="100%" stop-color="#FF6444"/>
        </linearGradient>
    </defs>
    <g fill="none" fill-rule="evenodd">
        <path d="M0 0H32V32H0z"/>
        <path fill="url(#minimalcapitalprefix__a)" d="M29.5 14c.276 0 .5.224.5.5v6c0 .445-.539.669-.854.354L26.5 18.207l-8.646 8.647c-.174.173-.443.192-.638.057l-.07-.057-4.646-4.647-7.646 7.647c-.174.173-.443.192-.638.057l-.07-.057c-.173-.174-.192-.443-.057-.638l.057-.07 8-8c.174-.173.443-.192.638-.057l.07.057 4.646 4.647 8.292-8.294-2.646-2.645c-.294-.294-.119-.783.268-.847L23.5 14zM12 2c5.523 0 10 4.477 10 10 0 3.79-2.108 7.087-5.216 8.784l-.74-.741C18.983 18.563 21 15.517 21 12c0-4.97-4.03-9-9-9s-9 4.03-9 9c0 3.517 2.017 6.563 4.958 8.043l-.741.741C4.109 19.088 2 15.79 2 12 2 6.477 6.477 2 12 2zm17 13h-4.293l2.14 2.14.007.006.004.006L29 19.293V15zM12 7c.276 0 .5.224.5.5l.001.51c.499.031.94.138 1.323.32.464.22.86.538 1.188.954l-.948.84c-.216-.28-.48-.504-.792-.672-.22-.118-.476-.195-.77-.23l-.002 2.401.172.037c.756.144 1.329.379 1.719.704l.123.112c.388.384.582.912.582 1.584 0 .392-.068.748-.204 1.068-.136.32-.334.594-.594.822-.26.228-.578.404-.954.528-.257.085-.537.14-.842.167l-.002.855c0 .276-.224.5-.5.5s-.5-.224-.5-.5v-.865c-.467-.052-.878-.17-1.234-.355-.492-.256-.914-.6-1.266-1.032l.936-.876c.296.36.622.632.978.816.182.094.378.164.586.21l-.001-2.65c-.716-.158-1.261-.412-1.635-.764-.408-.384-.612-.912-.612-1.584 0-.368.07-.702.21-1.002.14-.3.336-.552.588-.756.252-.204.558-.362.918-.474.168-.052.345-.092.531-.12L11.5 7.5c0-.276.224-.5.5-.5zm.5 5.931v2.512c.357-.045.638-.158.844-.339.272-.24.408-.564.408-.972 0-.328-.096-.588-.288-.78-.192-.192-.532-.336-1.02-.432l.056.011zm-1-3.667c-.2.048-.369.123-.508.224-.264.192-.396.472-.396.84 0 .352.108.614.324.786.141.113.334.207.579.284z"/>
    </g>
</svg>
