<svg xmlns="http://www.w3.org/2000/svg" width="64" height="64"><defs><linearGradient id="a" x1="0%" y1="100%" y2="0%"><stop offset="0%" stop-color="#FF444F"/><stop offset="100%" stop-color="#FF6444"/></linearGradient></defs><g fill="none" fill-rule="evenodd"><path d="M0 0h65v65H0z"/><path fill="url(#a)" d="M38.5 0C41.556 0 44 2.44 44 5.5c0 1.7-.53 3.31-1.47 4.501L53 10c3.056 0 5.5 2.44 5.5 5.5 0 3.437-2.165 6.5-5.5 6.5h-.267C59.468 25.888 64 33.165 64 41.5 64 53.926 53.926 64 41.5 64c-8.634 0-16.132-4.863-19.905-12H12c-3.137 0-5.5-2.55-5.5-6 0-2.288.8-4.072 2.26-5.08C7.371 39.86 6.5 38.096 6.5 36c0-2.58 1.017-4.52 2.85-5.428C8.204 29.495 7.5 27.882 7.5 26c0-3.637 2.021-6 5.5-6l2.823.002C14.991 18.959 14.5 17.573 14.5 16c0-1.617.4-2.982 1.149-4H5.5C2.363 12 0 9.45 0 6c0-3.637 2.021-6 5.5-6h33zm3 21l-.115.001-.405.005a20.833 20.833 0 00-1.161.062l.12-.01a20.573 20.573 0 00-1.63.189l.443-.064c-.19.025-.38.053-.569.084l.126-.02c-.192.03-.383.062-.572.098l.446-.078c-.165.027-.33.056-.494.087l.048-.01a26.1 26.1 0 00-.501.1l.453-.09c-.172.032-.344.066-.514.103l.06-.013a20.36 20.36 0 00-1.544.39l.444-.125a20.34 20.34 0 00-.503.143l.059-.017c-.18.053-.357.108-.534.165l-.261.087a20.554 20.554 0 00-10.392 7.947l.023-.034a20.52 20.52 0 00-.643 1.01l.041-.07c-.102.17-.202.342-.3.514l.259-.445c-.1.169-.199.339-.295.51l.037-.065c-.102.18-.2.363-.297.546l-.1.194a20.377 20.377 0 00-2.18 7.88l.005-.073a20.794 20.794 0 00-.05 1.872 20.411 20.411 0 001.856 8.17l-.02-.042a20.44 20.44 0 001.032 1.969C27.446 57.976 34.003 62 41.5 62 52.822 62 62 52.822 62 41.5c0-7.856-4.419-14.68-10.907-18.122l-.014-.008-.396-.203a20.436 20.436 0 00-.891-.421l-.094-.041.094.04a20.396 20.396 0 00-.359-.154l.265.114a20.373 20.373 0 00-.763-.315l.281.112c-.147-.06-.296-.119-.446-.175l.165.063-.333-.127.168.064a20.347 20.347 0 00-.809-.288l.29.098a20.341 20.341 0 00-.335-.113l.045.015a20.35 20.35 0 00-.93-.284l-.081-.023.08.023a20.36 20.36 0 00-1.057-.265l.115.025a20.399 20.399 0 00-1.086-.217l.082.014a20.448 20.448 0 00-.474-.078l.392.064a20.452 20.452 0 00-.903-.135l.399.055c-.16-.024-.32-.045-.48-.065l.081.01a20.581 20.581 0 00-1.083-.108l.048.004a20.737 20.737 0 00-1.085-.054l.084.003a20.874 20.874 0 00-.434-.008l.35.005c-.16-.003-.319-.005-.479-.005zm10.25 33.469a1 1 0 01-.247 1.392A17.422 17.422 0 0141.5 59a1 1 0 010-2c3.214 0 6.28-.98 8.858-2.779a1 1 0 011.393.248zm-25.284-10.59c.428 2.962 1.92 5.864 4.212 8.26a1 1 0 01-1.445 1.383c-2.57-2.687-4.257-5.967-4.747-9.356a1 1 0 011.98-.287zM19.006 42H12c-2.299 0-3.5 1.404-3.5 4 0 2.378 1.503 4 3.5 4h8.661a22.415 22.415 0 01-1.656-8zm22.557-9a1 1 0 01.994.883l.006.117v1.05c2.795.2 4.572 2.135 4.572 5.045a1 1 0 11-2 0c0-1.972-1.091-3.063-3.064-3.063-1.848 0-3.187.933-3.5 2.388l7.258 2.636a.996.996 0 01.219.107l.077.057a1.01 1.01 0 01.057.049l.025.024.013.013a.997.997 0 01.256.474l.01.048c.009.056.014.113.014.172 0 3.033-1.274 4.85-3.937 5.046v.176a1 1 0 01-1.993.117l-.007-.117v-.324C38.176 47.356 36.5 45.518 36.5 43a1 1 0 012 0c0 1.835 1.451 3.063 3.571 3.063 1.567 0 2.266-.676 2.403-2.37l-7.315-2.658a1 1 0 01-.269-.147l-.019-.015a.885.885 0 01-.057-.05l-.021-.02-.013-.013-.025-.027a.997.997 0 01-.255-.674c.003-2.514 1.678-4.35 4.063-4.892V34a1 1 0 011-1zm16.862 4.035c.382 1.453.575 2.951.575 4.529a17.463 17.463 0 01-1.082 6.007 1 1 0 01-1.876-.694 15.581 15.581 0 00.448-9.333 1 1 0 011.935-.51zM21.098 32H12c-2.299 0-3.5 1.404-3.5 4 0 2.378 1.503 4 3.5 4h7.05a22.37 22.37 0 012.048-8zm13.13-5.35a1 1 0 01-.375 1.364 15.572 15.572 0 00-6.337 6.79 1 1 0 01-1.803-.865 17.572 17.572 0 017.152-7.664 1 1 0 011.364.376zM30.268 22H13c-2.299 0-3.5 1.404-3.5 4 0 2.378 1.503 4 3.5 4h9.157a22.612 22.612 0 018.11-8zm12.847 2.073a17.425 17.425 0 019.67 4.05 1 1 0 01-1.29 1.528 15.425 15.425 0 00-8.563-3.586 1 1 0 01-.048-1.986l.114-.01zM53 12H20c-2.299 0-3.5 1.404-3.5 4 0 2.378 1.503 4 3.5 4h14.848c2.103-.65 4.336-1 6.652-1s4.55.35 6.652 1H53c2.052 0 3.5-2.049 3.5-4.5 0-1.954-1.548-3.5-3.5-3.5zM38.5 2h-33C3.201 2 2 3.404 2 6c0 2.378 1.503 4 3.5 4h33c2.052 0 3.5-2.049 3.5-4.5C42 3.546 40.452 2 38.5 2z"/></g></svg>