<svg xmlns="http://www.w3.org/2000/svg" width="64" height="64"><g fill="none" fill-rule="evenodd"><path d="M0 0h64v64H0z"/><path fill="#FF444F" fill-rule="nonzero" d="M32.5 36.5h-6a1 1 0 000 2h7a1 1 0 001-1v-12a1 1 0 00-2 0v11z"/><path fill="#0E0E0E" fill-rule="nonzero" d="M32 51.5c10.217 0 18.5-8.283 18.5-18.5S42.217 14.5 32 14.5 13.5 22.783 13.5 33 21.783 51.5 32 51.5zm0-2c-9.113 0-16.5-7.387-16.5-16.5S22.887 16.5 32 16.5 48.5 23.887 48.5 33 41.113 49.5 32 49.5z"/><path fill="#85ACB0" fill-rule="nonzero" d="M3.948 17.44a22.823 22.823 0 011.61-2.102C15.903 3.083 34.919.505 48.665 9.497c13.693 8.958 17.278 26.208 8.163 39.16-9.151 13.004-27.855 17.07-42.389 9.194a1.069 1.069 0 10-1.019 1.88c15.475 8.386 35.372 4.06 45.156-9.843 9.82-13.954 5.952-32.568-8.741-42.18C35.194-1.87 14.972.87 3.936 13.944a24.765 24.765 0 00-1.746 2.28 1.069 1.069 0 001.758 1.216z"/><path fill="#85ACB0" fill-rule="nonzero" d="M13.27 16.82l-.39-1.96-9.67 1.93L1.99 7 0 7.25l1.49 11.92z"/></g></svg>