<svg xmlns="http://www.w3.org/2000/svg" width="32" height="32"><defs><linearGradient id="a" x1="0%" x2="100%" y1="100%" y2="0%"><stop offset="0%" stop-color="#FF444F"/><stop offset="100%" stop-color="#FF6444"/></linearGradient></defs><path fill="url(#a)" d="M121 32c2.21 0 4 1.79 4 4v24c0 2.21-1.79 4-4 4H97c-2.21 0-4-1.79-4-4V36c0-2.21 1.79-4 4-4h24zm0 2H97a2.001 2.001 0 00-1.995 1.85L95 36v24c0 1.054.816 1.918 1.85 1.995L97 62h24a2.001 2.001 0 001.995-1.85L123 60V36a2.001 2.001 0 00-1.85-1.995L121 34zm-4.26 6.26a.89.89 0 01.074 1.174l-.074.083L110.257 48l6.483 6.483.074.083a.889.889 0 01-1.331 1.174L109 49.257l-6.483 6.483a.889.889 0 01-1.331-1.174l.074-.083L107.743 48l-6.483-6.483-.074-.083a.889.889 0 011.331-1.174L109 46.743l6.483-6.483a.889.889 0 011.257 0z" transform="translate(-93 -32)"/></svg>