<svg xmlns="http://www.w3.org/2000/svg" width="32" height="32" viewBox="0 0 32 32">
    <path fill="#FF444F" d="M28 0c2.21 0 4 1.79 4 4v24c0 2.21-1.79 4-4 4H4c-2.21 0-4-1.79-4-4V4c0-2.21 1.79-4 4-4h24zm0 2H4c-1.054 0-1.918.816-1.995 1.85L2 4v24c0 1.054.816 1.918 1.85 1.995L4 30h24c1.054 0 1.918-.816 1.995-1.85L30 28V4c0-1.054-.816-1.918-1.85-1.995L28 2zM11 6l.117.007c.459.053.823.417.876.876L12 7l-.007.117c-.053.459-.417.823-.876.876L11 8H9.514L16 14.485 22.485 8H21c-.513 0-.936-.386-.993-.883L20 7c0-.513.386-.936.883-.993L21 6h4c.513 0 .936.386.993.883L26 7v4c0 .552-.448 1-1 1-.513 0-.936-.386-.993-.883L24 11V9.313l-6.586 6.586L24 22.485V21l.007-.117c.057-.497.48-.883.993-.883s.936.386.993.883L26 21v4l-.007.117c-.053.459-.417.823-.876.876L25 26h-4l-.117-.007c-.459-.053-.823-.417-.876-.876L20 25l.007-.117c.053-.459.417-.823.876-.876L21 24h1.687L16 17.313 9.312 24H11c.513 0 .936.386.993.883L12 25c0 .513-.386.936-.883.993L11 26H7c-.513 0-.936-.386-.993-.883L6 25v-4c0-.552.448-1 1-1 .513 0 .936.386.993.883L8 21v1.484l6.585-6.585L8 9.314V11l-.007.117c-.057.497-.48.883-.993.883s-.936-.386-.993-.883L6 11V7l.007-.117c.053-.459.417-.823.876-.876L7 6h4z"/>
</svg>
