<svg xmlns="http://www.w3.org/2000/svg" width="32" height="32" viewBox="0 0 32 32">
    <g fill="none" fill-rule="evenodd">
        <path fill="#33658A" d="M26 0c3.314 0 6 2.686 6 6v20c0 3.314-2.686 6-6 6H6c-3.314 0-6-2.686-6-6V6c0-3.314 2.686-6 6-6h20z"/>
        <path fill="#FFF" fill-rule="nonzero" d="M7.293 7.293c.39-.39 1.024-.39 1.414 0L16 14.585l7.293-7.292c.39-.39 1.024-.39 1.414 0 .36.36.388.928.083 1.32l-.083.094L17.415 16l7.292 7.293.083.094c.305.392.278.96-.083 1.32-.39.39-1.024.39-1.414 0L16 17.415l-7.293 7.292c-.39.39-1.024.39-1.414 0-.36-.36-.388-.928-.083-1.32l.083-.094L14.585 16 7.293 8.707l-.083-.094c-.305-.392-.278-.96.083-1.32z"/>
    </g>
</svg>
