<svg xmlns="http://www.w3.org/2000/svg" width="64" height="64"><defs><linearGradient id="a" x1="0%" y1="100%" y2="0%"><stop offset="0%" stop-color="#FF444F"/><stop offset="100%" stop-color="#FF6444"/></linearGradient></defs><path fill="url(#a)" fill-rule="evenodd" d="M32 0c17.673 0 32 14.327 32 32 0 17.673-14.327 32-32 32C14.327 64 0 49.673 0 32 0 14.327 14.327 0 32 0zm-7.503 44.991L13.13 55.323A29.875 29.875 0 0032 62a29.86 29.86 0 0016.605-5.01L38.098 45.708A14.947 14.947 0 0132 47c-2.734 0-5.296-.731-7.503-2.009zm19.333-3.767a15.08 15.08 0 01-3.902 3.512l10.318 11.08a30.176 30.176 0 003.758-3.425L43.83 41.224zm-25.024-2.082L7.544 49.379a30.166 30.166 0 004.065 4.625l11.18-10.164a15.07 15.07 0 01-3.983-4.698zM57.013 15.43L45.646 25.764A14.945 14.945 0 0147 32c0 2.74-.735 5.309-2.018 7.52l10.341 11.35A29.875 29.875 0 0062 32a29.86 29.86 0 00-4.987-16.57zm-48.76-1.766A29.87 29.87 0 002 32a29.86 29.86 0 004.426 15.692l11.51-10.463A14.969 14.969 0 0117 32c0-2.55.636-4.952 1.76-7.055L8.252 13.665zm19.296 6.117l-.03.01a12.888 12.888 0 00-2.58 1.291l.343-.215a13.008 13.008 0 00-1.405.982 13.07 13.07 0 00-2.608 2.81l-.017.025-.072.106a12.98 12.98 0 00-.966 1.717l-.017.035a12.923 12.923 0 00-1.027 3.348l-.008.049a12.973 12.973 0 00-.156 2.47L19 32a13.227 13.227 0 00.15 1.98 12.942 12.942 0 001.359 4.105l-.172-.336a12.958 12.958 0 002.36 3.331 13.08 13.08 0 00.916.853l.031.027a13.166 13.166 0 00.344.279c.635.497 1.316.936 2.038 1.31l.037.019.027.014c.095.048.19.096.285.142l-.312-.156a12.948 12.948 0 001.828.77l.027.008A12.9 12.9 0 0032 45c.13 0 .261-.002.391-.006L32 45a13.23 13.23 0 002.637-.268 12.924 12.924 0 001.194-.306l.014-.004a12.907 12.907 0 002.634-1.149l.055-.032.04-.023c.095-.056.19-.114.284-.172l-.324.195a12.998 12.998 0 002.518-1.91l.072-.07.068-.069a13.082 13.082 0 002.367-3.237v.001l.052-.103.093-.189-.146.292a12.948 12.948 0 001.372-4.601l.009-.083.005-.055a13.116 13.116 0 00.051-1.579L45 32a13.223 13.223 0 00-.25-2.555 12.928 12.928 0 00-.648-2.203l-.022-.054a12.968 12.968 0 00-3.019-4.51 13.077 13.077 0 00-1.57-1.304 12.95 12.95 0 00-7.857-2.369L32 19a13.228 13.228 0 00-2.576.255 12.92 12.92 0 00-1.493.395l-.028.009-.012.004a12.9 12.9 0 00-.342.119zM51.623 9.307L40.362 19.545a15.08 15.08 0 014.3 4.41l11.182-10.164a30.178 30.178 0 00-4.221-4.484zm-37.885-1.11a30.178 30.178 0 00-4.199 3.915L19.86 23.19a15.082 15.082 0 014.054-3.826L13.738 8.197zM32 2a29.86 29.86 0 00-16.625 5.024l10.342 11.351A14.944 14.944 0 0132 17c2.345 0 4.564.538 6.541 1.498L50.05 8.035A29.868 29.868 0 0032 2z"/></svg>