<svg width="729" height="240" viewBox="0 0 729 240" fill="none" xmlns="http://www.w3.org/2000/svg">
<path d="M12 141C15.8 132.2 21 122 27.6 110.4C34.2 98.6 41.6 86.5 49.8 74.1C58.2 61.7 67.1 49.5 76.5 37.5C86.1 25.5 95.7 14.7 105.3 5.09999H132V137.1H156.6V159.9H132V213H105V159.9H12V141ZM105 38.1C99 44.5 92.9 51.7 86.7 59.7C80.7 67.5 74.8 75.7 69 84.3C63.2 92.9 57.7 101.7 52.5 110.7C47.5 119.7 43 128.5 39 137.1H105V38.1Z" fill="#FF444F"/>
<path d="M546.805 77.9144C556.39 77.9872 567.81 78.8043 581.064 80.3657C594.503 81.8491 608.53 83.9526 623.144 86.676C637.837 89.5837 652.54 93.0298 667.253 97.0143C682.044 101.183 695.73 105.819 708.311 110.922L718.709 135.514L597.131 186.921L606.711 209.579L585.711 218.459L576.131 195.801L527.223 216.48L516.708 191.612L565.616 170.932L529.397 85.2749L546.805 77.9144ZM677.799 123.498C669.568 120.464 660.561 117.65 650.778 115.055C641.257 112.566 631.407 110.325 621.227 108.333C611.047 106.34 600.8 104.701 590.485 103.417C580.249 102.316 570.391 101.599 560.912 101.264L586.616 162.053L677.799 123.498Z" fill="#FF444F"/>
<path d="M276 108.9C276 74.1 282.1 47.3 294.3 28.5C306.7 9.69999 323.8 0.299985 345.6 0.299985C367.4 0.299985 384.4 9.69999 396.6 28.5C409 47.3 415.2 74.1 415.2 108.9C415.2 143.7 409 170.5 396.6 189.3C384.4 208.1 367.4 217.5 345.6 217.5C323.8 217.5 306.7 208.1 294.3 189.3C282.1 170.5 276 143.7 276 108.9ZM385.8 108.9C385.8 97.5 385.1 86.7 383.7 76.5C382.5 66.3 380.3 57.4 377.1 49.8C374.1 42.2 370 36.2 364.8 31.8C359.6 27.2 353.2 24.9 345.6 24.9C338 24.9 331.6 27.2 326.4 31.8C321.2 36.2 317 42.2 313.8 49.8C310.8 57.4 308.6 66.3 307.2 76.5C306 86.7 305.4 97.5 305.4 108.9C305.4 120.3 306 131.1 307.2 141.3C308.6 151.5 310.8 160.4 313.8 168C317 175.6 321.2 181.7 326.4 186.3C331.6 190.7 338 192.9 345.6 192.9C353.2 192.9 359.6 190.7 364.8 186.3C370 181.7 374.1 175.6 377.1 168C380.3 160.4 382.5 151.5 383.7 141.3C385.1 131.1 385.8 120.3 385.8 108.9Z" fill="#858991"/>
</svg>
