<svg xmlns="http://www.w3.org/2000/svg" width="32" height="32" viewBox="0 0 32 32">
    <g fill="none" fill-rule="evenodd">
        <path fill="#33658A" d="M26 0c3.314 0 6 2.686 6 6v20c0 3.314-2.686 6-6 6H6c-3.314 0-6-2.686-6-6V6c0-3.314 2.686-6 6-6h20z"/>
        <path fill="ivory" fill-rule="nonzero" d="M11 15c.513 0 .936.386.993.883L12 16v6.585l2.293-2.292c.36-.36.928-.388 1.32-.083l.094.083c.36.36.388.928.083 1.32l-.083.094-4 4c-.028.029-.059.055-.09.08l.09-.08c-.035.036-.073.068-.112.097-.024.018-.049.034-.074.05l-.037.021c-.02.011-.04.022-.06.031l-.053.023-.06.021-.045.014-.065.016-.053.009c-.02.003-.04.006-.062.007-.018.002-.035.003-.053.003L11 26h-.032l-.054-.004L11 26c-.05 0-.1-.004-.149-.011l-.052-.01c-.022-.004-.043-.009-.065-.015l-.046-.014-.06-.021-.051-.023-.061-.03-.037-.022c-.025-.016-.05-.032-.074-.05l-.018-.014c-.035-.028-.066-.054-.094-.083l-4-4c-.39-.39-.39-1.024 0-1.414.36-.36.928-.388 1.32-.083l.094.083L10 22.585V16c0-.552.448-1 1-1zM21 17c.513 0 .936-.386.993-.883L22 16V9.415l2.293 2.292c.36.36.928.388 1.32.083l.094-.083c.36-.36.388-.928.083-1.32l-.083-.094-4-4c-.028-.029-.059-.055-.09-.08l.09.08c-.035-.036-.073-.068-.112-.097-.024-.018-.049-.034-.074-.05l-.037-.021c-.02-.011-.04-.022-.06-.031l-.053-.023-.06-.021-.045-.014-.065-.016-.053-.009c-.02-.003-.04-.006-.062-.007-.018-.002-.035-.003-.053-.003L21 6h-.032l-.054.004L21 6c-.05 0-.1.004-.149.011l-.052.01c-.022.004-.043.009-.065.015l-.046.014-.06.021-.051.023-.061.03-.037.022c-.025.016-.05.032-.074.05l-.018.014c-.035.028-.066.054-.094.083l-4 4c-.39.39-.39 1.024 0 1.414.36.36.928.388 1.32.083l.094-.083L20 9.415V16c0 .552.448 1 1 1z"/>
    </g>
</svg>
