<svg xmlns="http://www.w3.org/2000/svg" width="32" height="33"><defs><linearGradient id="a" x1="2.984%" x2="97.016%" y1="100%" y2="0%"><stop offset="0%" stop-color="#FF444F"/><stop offset="100%" stop-color="#FF6444"/></linearGradient></defs><path fill="url(#a)" d="M121 32c2.21 0 4 1.847 4 4.125v24.75c0 2.278-1.79 4.125-4 4.125H97c-2.21 0-4-1.847-4-4.125v-24.75C93 33.847 94.79 32 97 32h24zm0 2.063H97c-1.054 0-1.918.84-1.995 1.908l-.005.154v24.75c0 1.087.816 1.978 1.85 2.057l.15.005h24c1.054 0 1.918-.84 1.995-1.908l.005-.154v-24.75c0-1.087-.816-1.978-1.85-2.057l-.15-.005zm-16.596 24.66l-.026.011a1.07 1.07 0 01-.079.03l-.035.011a.82.82 0 01-.071.018l-.04.007-.075.01-.042.002h-.068c-.017 0-.034-.002-.05-.003l.082.004a.908.908 0 01-.157-.014l-.037-.007c-.025-.005-.05-.01-.074-.018l-.043-.014-.063-.024-.05-.023-.056-.03-.04-.026a.963.963 0 01-.187-.156l-4-4.25a1.11 1.11 0 010-1.502.957.957 0 011.32-.089l.094.089L103 55.184v-6.996c0-.587.448-1.063 1-1.063.513 0 .936.41.993.939l.007.123v6.996l2.293-2.434a.957.957 0 011.32-.089l.094.089c.36.383.388.985.083 1.402l-.083.1-4 4.25-.017.019a.837.837 0 01-.062.057l.08-.076a1.017 1.017 0 01-.171.145c-.01.008-.02.014-.031.021a.832.832 0 01-.093.05l-.01.005zm10-21.133l-.026-.012-.079-.03-.035-.01a.82.82 0 00-.071-.018l-.04-.007a.615.615 0 00-.075-.01l-.042-.002L114 37.5h-.032l-.05.004.082-.004a.907.907 0 00-.157.013l-.037.007a.617.617 0 00-.074.019l-.043.013-.063.025-.05.023-.056.03-.04.025a1 1 0 00-.187.156l-4 4.25a1.112 1.112 0 000 1.503.957.957 0 001.32.088l.094-.088L113 41.129v6.996c0 .587.448 1.063 1 1.063.513 0 .936-.41.993-.94l.007-.123V41.13l2.293 2.434a.957.957 0 001.32.088l.094-.088c.36-.383.388-.986.083-1.403l-.083-.1-4-4.25-.017-.018c-.02-.02-.04-.04-.062-.057l.08.075a1.147 1.147 0 00-.103-.095c-.022-.017-.044-.034-.068-.05l-.031-.02a.84.84 0 00-.093-.051l-.01-.005z" transform="translate(-93 -32)"/></svg>