<svg xmlns="http://www.w3.org/2000/svg" width="32" height="32" viewBox="0 0 32 32">
    <path fill="#FF444F" d="M31 0c.49 0 .9.354.984.82L32 1v30c0 .49-.354.9-.82.984L31 32H1c-.552 0-1-.448-1-1 0-.49.354-.9.82-.984L1 30h29V1c0-.49.354-.9.82-.984L31 0zm-6 8c.49 0 .9.354.984.82L26 9v7c0 .552-.448 1-1 1-.49 0-.9-.354-.984-.82L24 16v-4.663l-8.336 7.41c-.29.26-.7.322-1.05.176l-.169-.09-5.411-3.609L1.6 20.8c-.393.295-.932.257-1.28-.066L.2 20.6c-.294-.393-.256-.932.066-1.28L.4 19.2l8-6c.29-.218.672-.259.998-.118l.157.086 5.357 3.57L22.493 10H18c-.49 0-.9-.354-.984-.82L17 9c0-.49.354-.9.82-.984L18 8h7z"/>
</svg>
