<svg xmlns="http://www.w3.org/2000/svg" width="32" height="33" viewBox="0 0 32 33">
    <defs>
        <linearGradient id="vmsnpwkcaa" x1="2.984%" x2="97.016%" y1="100%" y2="0%">
            <stop offset="0%" stop-color="#FF444F"/>
            <stop offset="100%" stop-color="#FF6444"/>
        </linearGradient>
    </defs>
    <path fill="url(#vmsnpwkcaa)" d="M121 32c2.21 0 4 1.847 4 4.125v24.75c0 2.278-1.79 4.125-4 4.125H97c-2.21 0-4-1.847-4-4.125v-24.75C93 33.847 94.79 32 97 32h24zm0 2.063H97c-1.054 0-1.918.84-1.995 1.908l-.005.154v24.75c0 1.087.816 1.978 1.85 2.057l.15.005h24c1.054 0 1.918-.84 1.995-1.908l.005-.154v-24.75c0-1.087-.816-1.978-1.85-2.057l-.15-.005zm-16.596 24.66l-.026.011c-.026.011-.052.021-.079.03l-.035.011c-.023.007-.047.013-.071.018l-.04.007-.075.01-.042.002h-.068c-.017 0-.034-.002-.05-.003l.082.004c-.053 0-.106-.005-.157-.014l-.037-.007c-.025-.005-.05-.01-.074-.018l-.043-.014-.063-.024-.05-.023-.056-.03-.04-.026c-.069-.044-.131-.096-.187-.156l-4-4.25c-.39-.415-.39-1.087 0-1.502.36-.383.928-.413 1.32-.089l.094.089L103 55.184v-6.996c0-.587.448-1.063 1-1.063.513 0 .936.41.993.939l.007.123v6.996l2.293-2.434c.36-.383.928-.413 1.32-.089l.094.089c.36.383.388.985.083 1.402l-.083.1-4 4.25-.017.019c-.02.02-.04.039-.062.057l.08-.076c-.033.035-.067.066-.103.095-.022.018-.044.034-.068.05-.01.008-.02.014-.031.021-.03.018-.061.036-.093.05l-.01.005zm10-21.133l-.026-.012-.079-.03-.035-.01c-.023-.007-.047-.013-.071-.018l-.04-.007c-.024-.005-.05-.008-.075-.01l-.042-.002L114 37.5h-.032l-.05.004.082-.004c-.053 0-.106.004-.157.013l-.037.007c-.025.005-.05.011-.074.019l-.043.013-.063.025-.05.023-.056.03-.04.025c-.069.044-.131.097-.187.156l-4 4.25c-.39.415-.39 1.088 0 1.503.36.383.928.412 1.32.088l.094-.088L113 41.129v6.996c0 .587.448 1.063 1 1.063.513 0 .936-.41.993-.94l.007-.123V41.13l2.293 2.434c.36.383.928.412 1.32.088l.094-.088c.36-.383.388-.986.083-1.403l-.083-.1-4-4.25-.017-.018c-.02-.02-.04-.04-.062-.057l.08.075c-.033-.034-.067-.066-.103-.095-.022-.017-.044-.034-.068-.05l-.031-.02c-.03-.019-.061-.036-.093-.051l-.01-.005z" transform="translate(-93 -32)"/>
</svg>
