<svg xmlns="http://www.w3.org/2000/svg" width="48" height="48" viewBox="0 0 48 48">
    <g fill="none" fill-rule="evenodd">
        <g stroke="#FF5549" stroke-width="1.5">
            <g>
                <g>
                    <g>
                        <g transform="translate(-783 -2300) translate(0 2001) translate(741 80) translate(42 219) translate(7 1)">
                            <rect width="35" height="20" y="26" rx="4"/>
                            <path d="M6 46V31c0-1.105.895-2 2-2h19c1.105 0 2 .895 2 2v15"/>
                            <path stroke-linecap="round" d="M5.5 22.5L22.5 22.5M28.5 22.5L29.5 22.5"/>
                            <path stroke-linecap="square" d="M21.5 30.471L21.5 45.529M13.5 30.471L13.5 45.529M28.5 34.5L6.5 34.5M28.5 40.5L6.5 40.5"/>
                            <path d="M30 19V2.567c0-.726-.589-1.315-1.315-1.315-.276 0-.545.087-.768.248l-.915.659c-.698.502-1.64.502-2.337 0L22.835.84c-.698-.502-1.639-.502-2.337 0l-1.83 1.318c-.697.502-1.639.502-2.337 0L14.501.84c-.697-.502-1.638-.502-2.336 0l-1.83 1.318c-.698.502-1.639.502-2.337 0L7.083 1.5c-.589-.424-1.41-.29-1.835.299-.161.224-.248.492-.248.768V19h0"/>
                            <path stroke-linecap="round" d="M9.5 10.5L14.5 10.5M9.5 14.5L14.5 14.5"/>
                            <path d="M35 30v-7c0-2.21-1.79-4-4-4H4c-2.21 0-4 1.79-4 4v7h0"/>
                        </g>
                    </g>
                </g>
            </g>
        </g>
    </g>
</svg>
