
<svg role='img' aria-labelledby='pa-open-account' xmlns="http://www.w3.org/2000/svg" width="48" height="48" viewBox="0 0 48 48">
    <title id='pa-open-account'>Open account</title>
    <g fill="none" fill-rule="evenodd">
        <path d="M0 0H48V48H0z"/>
        <path fill="#333" fill-rule="nonzero" d="M3.273 3.543C1.479 3.543 0 5.041 0 6.86v27.63c0 1.819 1.479 3.317 3.273 3.317H19.09v5.526h-2.284c-.571.027-1.067.578-1.04 1.157.027.579.57 1.08 1.142 1.053h14.182c.576.008 1.106-.521 1.106-1.105s-.53-1.114-1.106-1.105h-2.182v-5.526h15.818c1.794 0 3.273-1.498 3.273-3.316V6.859c0-1.818-1.479-3.316-3.273-3.316H3.273zm0 2.21h41.454c.624 0 1.091.475 1.091 1.106v27.63c0 .632-.467 1.106-1.09 1.106H3.272c-.624 0-1.091-.474-1.091-1.105V6.859c0-.631.467-1.105 1.09-1.105zM24 10.728c-2.397 0-4.364 1.993-4.364 4.421 0 2.429 1.967 4.421 4.364 4.421s4.364-1.992 4.364-4.42c0-2.43-1.967-4.422-4.364-4.422zm0 2.21c1.218 0 2.182.977 2.182 2.211s-.964 2.21-2.182 2.21-2.182-.976-2.182-2.21.964-2.21 2.182-2.21zm0 8.843c-2.605 0-4.963.655-6.75 1.796-1.787 1.14-3.068 2.853-3.068 4.835v1.105c0 .579.52 1.106 1.09 1.106h17.455c.571 0 1.091-.527 1.091-1.106v-1.105c0-1.982-1.281-3.694-3.068-4.835-1.787-1.141-4.145-1.796-6.75-1.796zm0 2.21c2.23 0 4.223.594 5.59 1.468 1.369.874 2.046 1.942 2.046 2.953H16.364c0-1.011.677-2.08 2.045-2.953 1.368-.874 3.362-1.468 5.591-1.468zm-2.727 13.816h5.454v5.526h-5.454v-5.526z"/>
    </g>
</svg>
