<svg xmlns="http://www.w3.org/2000/svg" xmlns:xlink="http://www.w3.org/1999/xlink" width="328" height="200"><style><![CDATA[.B{fill:#e7eeef}.C{fill:#fff}.D{fill:#efefff}]]></style><g stroke="#85acb0" fill="none" fill-rule="evenodd" stroke-width="2"><path d="M83.446 91.902h23.017v54.902H83.446z"/><path d="M83.446 95.896h23.017v50.91H83.446z" class="B"/><path d="M161.5 91.902h4.004v1H161.5z"/><path d="M129.478 105.878h67.048v40.926h-67.048z" class="B"/><ellipse cx="163.502" cy="120.851" rx="5.003" ry="4.991" class="C"/><path d="M132.48 116.86h3.003v28.947h-3.003z" class="D"/><path d="M131.48 115.86h5.003l1.45-3.262h-7.996z"/><path d="M148.063 116.86h3.003v28.947h-3.003z" class="D"/><path d="M148.032 115.86h5.003l1.45-3.262h-7.996z"/><path d="M175.05 116.86h3.003v28.947h-3.003z" class="D"/><path d="M174.05 115.86h5.003l1.45-3.262h-7.996z"/><path d="M190.092 116.86h3.003v28.947h-3.003z" class="D"/><path d="M160.5 136.825h6.006v9.98H160.5z" class="C"/><path d="M189.133 116.126h5.003l1.45-3.262h-7.996z"/><path d="M83.1 91.557l-2.862-3.772h29.464l-2.24 3.772zm9.17 18.74h5.334v-9.062c-.855-1.316-1.732-1.974-2.632-1.974s-1.8.658-2.702 1.974v9.062zm43.3-9.263v-3.755h-4.1v6.1m1.174-13.484v2.038c-.783.297-1.174.933-1.174 1.908 0 1.462 1.025 3.427 2.05 3.427s2.05-2.028 2.05-3.427-1.25-1.908-1.25-1.908v-2.038h-1.676z" class="C"/><path d="M85.52 87.014h17.312V78.97c-.967-2.623-1.8-4.303-2.502-5.04s-1.82-1.57-3.356-2.5v-3.5h-4.897v3.5c-1.703.817-2.955 1.65-3.756 2.5s-1.735 2.334-2.802 4.454v8.628z" class="B"/><g fill="#d8d8d8"><path d="M93.025 64.95h3.003v1h-3.003z"/><path d="M94.527 54.964v9.983"/><path d="M97.53 57.96h-6.004"/></g><path d="M219.746 91.902h23.017v54.902h-23.017z" class="C"/><path d="M219.746 95.896h23.017v50.91h-23.017z" class="B"/><path d="M219.4 91.557l-2.862-3.772h29.464l-2.24 3.772zm9.17 18.74h5.334v-9.062c-.855-1.316-1.732-1.974-2.632-1.974s-1.8.658-2.702 1.974v9.062z" class="C"/><g fill="#d8d8d8"><path d="M230.12 64.95h3.003v1h-3.003z"/><path d="M231.622 54.964v9.983"/><path d="M234.624 57.96h-6.004m-65.118 20.963v11.98"/><path d="M166.504 82.417H160.5"/></g><path d="M106.555 146.807h22.697v-25.874h-4.437l-1.988-6.04h-8.48l-2.313 6.04h-5.48z" class="B"/><path d="M115.47 114.89l2.434-3.337.067-1.26h1.4v1.26l2.516 3.337z" class="C"/><path d="M197.098 146.807h22.697v-25.874h-4.437l-1.988-6.04h-8.48l-2.313 6.04h-5.48z" class="B"/><g class="C"><path d="M206.012 114.89l2.434-3.337.067-1.26h1.4v1.26l2.516 3.337z"/><ellipse cx="208.534" cy="139.818" rx="3.002" ry="2.995"/><ellipse cx="118.471" cy="139.818" rx="3.002" ry="2.995"/><path d="M191.522 101.033v-3.755h4.1v6.1m-1.174-13.484v2.038c.783.297 1.174.933 1.174 1.908 0 1.462-1.025 3.427-2.05 3.427s-2.05-2.028-2.05-3.427 1.25-1.908 1.25-1.908v-2.038h1.676z"/></g><path d="M131.48 103.39c6.903-6.115 17.55-9.173 31.946-9.173s25.126 3.058 32.196 9.173l3.477 3.65h-71.5l3.88-3.65z" class="B"/><path d="M99.998 155.758H103v22.957h-3.003z" class="C"/><path d="M100.065 154.758h2.945l1.972-2.96H98.03z"/><use xlink:href="#B" class="B"/><use xlink:href="#C"/><use xlink:href="#B" x="16.011" class="B"/><use xlink:href="#C" x="16.012"/><use xlink:href="#B" x="-32.024" class="B"/><use xlink:href="#C" x="-32.022"/><use xlink:href="#B" x="-48.034" class="B"/><use xlink:href="#C" x="-48.033"/><use xlink:href="#B" x="-16.011" class="B"/><use xlink:href="#C" x="-16.01"/><use xlink:href="#B" x="-91.064" class="B"/><use xlink:href="#C" x="-91.063"/><use xlink:href="#B" x="-107.074" class="B"/><use xlink:href="#C" x="-107.074"/><use xlink:href="#B" x="-75.052" class="B"/><use xlink:href="#C" x="-75.05"/><path d="M91.024 166.772h4.003v8.985h-4.003zm139.096 0h4.003v8.985h-4.003z"/><path d="M82.445 146.808H243.56v4H82.445z" class="C"/><path d="M56 179.25h215.85"/><path d="M129.938 111.234l66.68.267" fill="#85acb0"/><use xlink:href="#B" x="-139.67" class="C"/><use xlink:href="#C" x="-139.668"/><path d="M240.93 87.014h-17.312V78.97c.967-2.623 1.8-4.303 2.502-5.04s1.82-1.57 3.356-2.5v-3.5h4.897v3.5c1.703.817 2.955 1.65 3.756 2.5s1.735 2.334 2.802 4.454v8.628z" class="B"/></g><defs ><path id="B" d="M223.084 155.758h3.003v22.957h-3.003z"/><path id="C" d="M223.15 154.758h2.945l1.972-2.96h-6.953z"/></defs></svg>