<?xml version="1.0" encoding="UTF-8"?>
<svg width="216px" height="127px" viewBox="0 0 216 127" version="1.1" xmlns="http://www.w3.org/2000/svg" xmlns:xlink="http://www.w3.org/1999/xlink">
    <!-- Generator: Sketch 57.1 (83088) - https://sketch.com -->
    <title>icons/about us/paraguay</title>
    <desc>Created with Sketch.</desc>
    <g id="About-us" stroke="none" stroke-width="1" fill="none" fill-rule="evenodd">
        <g id="1.0---About-us" transform="translate(-960.000000, -2188.000000)" stroke="#85ACB0">
            <g id="Our-locations" transform="translate(0.000000, 1954.000000)">
                <g id="4-illustration/about_us/paraguay" transform="translate(904.000000, 180.000000)">
                    <g id="icons/about-us/paraguay" transform="translate(56.000000, 54.000000)">
                        <rect id="Rectangle" stroke-width="2" x="27.4461213" y="37.9023973" width="23.0173732" height="54.9023973"></rect>
                        <rect id="Rectangle" stroke-width="2" fill="#E7EEEF" x="27.4461213" y="41.8955479" width="23.0173732" height="50.9092466"></rect>
                        <rect id="Rectangle" stroke-width="2" x="105.500326" y="37.9023973" width="4.00416956" height="1"></rect>
                        <rect id="Rectangle" stroke-width="2" fill="#E7EEEF" x="73.478088" y="51.8784247" width="67.04795" height="40.9263699"></rect>
                        <ellipse id="Oval" stroke-width="2" fill="#FFFFFF" cx="107.50241" cy="66.8510274" rx="5.00347464" ry="4.99143836"></ellipse>
                        <rect id="Rectangle" stroke-width="2" fill="#EFEFFF" x="76.4801728" y="62.859589" width="3.00347464" height="28.9469178"></rect>
                        <polygon id="Path-51" stroke-width="2" points="75.4801728 61.859589 80.4836474 61.859589 81.9347091 58.5978323 73.9383443 58.5978323"></polygon>
                        <rect id="Rectangle" stroke-width="2" fill="#EFEFFF" x="92.0632384" y="62.859589" width="3.00347464" height="28.9469178"></rect>
                        <polygon id="Path-51" stroke-width="2" points="92.0324251 61.859589 97.0358998 61.859589 98.4869615 58.5978323 90.4905967 58.5978323"></polygon>
                        <rect id="Rectangle" stroke-width="2" fill="#EFEFFF" x="119.050493" y="62.859589" width="3.00347464" height="28.9469178"></rect>
                        <polygon id="Path-51" stroke-width="2" points="118.050493 61.859589 123.053968 61.859589 124.50503 58.5978323 116.508665 58.5978323"></polygon>
                        <rect id="Rectangle" stroke-width="2" fill="#EFEFFF" x="134.092425" y="62.859589" width="3.00347464" height="28.9469178"></rect>
                        <rect id="Rectangle-Copy-8" stroke-width="2" fill="#FFFFFF" x="104.499631" y="82.8253425" width="6.00555942" height="9.97945205"></rect>
                        <polygon id="Path-51" stroke-width="2" points="133.133211 62.1264827 138.136686 62.1264827 139.587748 58.864726 131.591383 58.864726"></polygon>
                        <polygon id="Path-83" stroke-width="2" fill="#FFFFFF" points="27.1013733 37.5574764 24.2393368 33.7855667 53.7030502 33.7855667 51.4634945 37.5574764"></polygon>
                        <path d="M36.2693886,56.2955875 L41.6029114,56.2955875 L41.6029114,47.2338046 C40.7477093,45.9180828 39.87047,45.2602218 38.9711935,45.2602218 C38.071917,45.2602218 37.1713154,45.9180828 36.2693886,47.2338046 L36.2693886,56.2955875 Z" id="Path-84" stroke-width="2" fill="#FFFFFF"></path>
                        <polyline id="Path-85" stroke-width="2" fill="#FFFFFF" points="79.5802893 47.032623 79.5802893 43.277733 75.4801728 43.277733 75.4801728 49.3888529"></polyline>
                        <path d="M76.6539264,35.9041096 L76.6539264,37.9423208 C75.871424,38.2393699 75.4801728,38.8753814 75.4801728,39.8503551 C75.4801728,41.3128156 76.5052019,43.277733 77.530231,43.277733 C78.5552602,43.277733 79.5802893,41.2498196 79.5802893,39.8503551 C79.5802893,38.4508905 78.3302521,37.9423208 78.3302521,37.9423208 C78.3302521,37.9423208 78.3302521,37.262917 78.3302521,35.9041096 L76.6539264,35.9041096 Z" id="Path-86" stroke-width="2" fill="#FFFFFF"></path>
                        <path d="M29.5205003,33.0137627 L46.832869,33.0137627 L46.832869,24.9708651 C45.8654851,22.3474572 45.0315726,20.6678694 44.3311317,19.9321017 C43.6306907,19.1963341 42.512002,18.3629929 40.9750656,17.4320782 L40.9750656,13.9417808 L36.0783987,13.9417808 L36.0783987,17.4320782 C34.3755374,18.2495682 33.1236687,19.0829094 32.3227925,19.9321017 C31.5219163,20.7812941 30.587819,22.2657966 29.5205003,24.3856092 L29.5205003,33.0137627 Z" id="Path-87" stroke-width="2" fill="#E7EEEF"></path>
                        <rect id="Rectangle" stroke-width="2" fill="#D8D8D8" x="37.0250174" y="10.9486301" width="3.00347464" height="1"></rect>
                        <polyline id="Path-88" stroke-width="2" fill="#D8D8D8" points="38.5267547 0.964041096 38.5267547 4.21795718 38.5267547 10.9469178"></polyline>
                        <polyline id="Path-88" stroke-width="2" fill="#D8D8D8" transform="translate(38.526755, 3.958904) rotate(90.000000) translate(-38.526755, -3.958904) " points="38.5267547 0.956819328 38.5267547 2.91387684 38.5267547 6.96098889"></polyline>
                        <rect id="Rectangle" stroke-width="2" fill="#FFFFFF" x="163.746026" y="37.9023973" width="23.0173732" height="54.9023973"></rect>
                        <rect id="Rectangle" stroke-width="2" fill="#E7EEEF" x="163.746026" y="41.8955479" width="23.0173732" height="50.9092466"></rect>
                        <polygon id="Path-83" stroke-width="2" fill="#FFFFFF" points="163.401278 37.5574764 160.539242 33.7855667 190.002955 33.7855667 187.763399 37.5574764"></polygon>
                        <path d="M172.569293,56.2955875 L177.902816,56.2955875 L177.902816,47.2338046 C177.047614,45.9180828 176.170375,45.2602218 175.271098,45.2602218 C174.371822,45.2602218 173.47122,45.9180828 172.569293,47.2338046 L172.569293,56.2955875 Z" id="Path-84" stroke-width="2" fill="#FFFFFF"></path>
                        <rect id="Rectangle" stroke-width="2" fill="#D8D8D8" x="174.120222" y="10.9486301" width="3.00347464" height="1"></rect>
                        <polyline id="Path-88" stroke-width="2" fill="#D8D8D8" points="175.62196 0.964041096 175.62196 4.21795718 175.62196 10.9469178"></polyline>
                        <polyline id="Path-88" stroke-width="2" fill="#D8D8D8" transform="translate(175.621960, 3.958904) rotate(90.000000) translate(-175.621960, -3.958904) " points="175.62196 0.956819328 175.62196 2.91387684 175.62196 6.96098889"></polyline>
                        <polyline id="Path-88" stroke-width="2" fill="#D8D8D8" points="107.50241 24.9229452 107.50241 28.8276445 107.50241 36.9023973"></polyline>
                        <polyline id="Path-88" stroke-width="2" fill="#D8D8D8" transform="translate(107.502410, 28.416952) rotate(90.000000) translate(-107.502410, -28.416952) " points="107.50241 25.4148673 107.50241 27.3719248 107.50241 31.4190368"></polyline>
                        <polygon id="Path-89" stroke-width="2" fill="#E7EEEF" points="50.5551453 92.8065068 73.2517853 92.8065068 73.2517853 66.9328648 68.8148754 66.9328648 66.8273497 60.891368 58.3481328 60.891368 56.0354923 66.9328648 50.5551453 66.9328648"></polygon>
                        <polygon id="Path-90" stroke-width="2" fill="#FFFFFF" points="59.4690539 60.891368 61.9034653 57.5544996 61.9707913 56.2955875 63.3719237 56.2955875 63.3719237 57.5544996 65.8877261 60.891368"></polygon>
                        <polygon id="Path-89" stroke-width="2" fill="#E7EEEF" points="141.097985 92.8065068 163.794625 92.8065068 163.794625 66.9328648 159.357715 66.9328648 157.370189 60.891368 148.890972 60.891368 146.578332 66.9328648 141.097985 66.9328648"></polygon>
                        <polygon id="Path-90" stroke-width="2" fill="#FFFFFF" points="150.011893 60.891368 152.446305 57.5544996 152.513631 56.2955875 153.914763 56.2955875 153.914763 57.5544996 156.430565 60.891368"></polygon>
                        <ellipse id="Oval" stroke-width="2" fill="#FFFFFF" cx="152.533682" cy="85.8184932" rx="3.00208478" ry="2.99486301"></ellipse>
                        <ellipse id="Oval" stroke-width="2" fill="#FFFFFF" cx="62.4711387" cy="85.8184932" rx="3.00208478" ry="2.99486301"></ellipse>
                        <polyline id="Path-85" stroke-width="2" fill="#FFFFFF" transform="translate(137.571927, 46.333293) scale(-1, 1) translate(-137.571927, -46.333293) " points="139.621985 47.032623 139.621985 43.277733 135.521868 43.277733 135.521868 49.3888529"></polyline>
                        <path d="M136.695622,35.9041096 L136.695622,37.9423208 C135.91312,38.2393699 135.521868,38.8753814 135.521868,39.8503551 C135.521868,41.3128156 136.546898,43.277733 137.571927,43.277733 C138.596956,43.277733 139.621985,41.2498196 139.621985,39.8503551 C139.621985,38.4508905 138.371948,37.9423208 138.371948,37.9423208 C138.371948,37.9423208 138.371948,37.262917 138.371948,35.9041096 L136.695622,35.9041096 Z" id="Path-86" stroke-width="2" fill="#FFFFFF" transform="translate(137.571927, 39.590921) scale(-1, 1) translate(-137.571927, -39.590921) "></path>
                        <path d="M75.4801728,49.3888529 C82.3829314,43.2737594 93.0314841,40.2162127 107.425831,40.2162127 C121.820178,40.2162127 132.552229,43.2737594 139.621985,49.3888529 L143.099375,53.0375569 L71.599722,53.0375569 L75.4801728,49.3888529 Z" id="Path-82" stroke-width="2" fill="#E7EEEF"></path>
                        <g id="Group-8" transform="translate(42.029187, 97.797945)" stroke-width="2">
                            <rect id="Rectangle" fill="#FFFFFF" x="1.96888043" y="3.9599403" width="3.00347464" height="22.9571918"></rect>
                            <polygon id="Path-91" points="2.03645173 2.9599403 4.98158035 2.9599403 6.95333777 1.77635684e-15 9.9475983e-14 1.77635684e-15"></polygon>
                        </g>
                        <g id="Group-8" transform="translate(165.114663, 97.797945)" stroke-width="2">
                            <rect id="Rectangle" fill="#E7EEEF" x="1.96888043" y="3.9599403" width="3.00347464" height="22.9571918"></rect>
                            <polygon id="Path-91" points="2.03645173 2.9599403 4.98158035 2.9599403 6.95333777 1.77635684e-15 9.9475983e-14 1.77635684e-15"></polygon>
                        </g>
                        <g id="Group-7" transform="translate(181.125782, 97.797945)" stroke-width="2">
                            <rect id="Rectangle" fill="#E7EEEF" x="1.96888043" y="3.9599403" width="3.00347464" height="22.9571918"></rect>
                            <polygon id="Path-91" points="2.03645173 2.9599403 4.98158035 2.9599403 6.95333777 1.77635684e-15 9.9475983e-14 1.77635684e-15"></polygon>
                        </g>
                        <g id="Group-8" transform="translate(133.092425, 97.797945)" stroke-width="2">
                            <rect id="Rectangle" fill="#E7EEEF" x="1.96888043" y="3.9599403" width="3.00347464" height="22.9571918"></rect>
                            <polygon id="Path-91" points="2.03645173 2.9599403 4.98158035 2.9599403 6.95333777 1.77635684e-15 9.9475983e-14 1.77635684e-15"></polygon>
                        </g>
                        <g id="Group-8" transform="translate(117.081306, 97.797945)" stroke-width="2">
                            <rect id="Rectangle" fill="#E7EEEF" x="1.96888043" y="3.9599403" width="3.00347464" height="22.9571918"></rect>
                            <polygon id="Path-91" points="2.03645173 2.9599403 4.98158035 2.9599403 6.95333777 1.77635684e-15 9.9475983e-14 1.77635684e-15"></polygon>
                        </g>
                        <g id="Group-7" transform="translate(149.103544, 97.797945)" stroke-width="2">
                            <rect id="Rectangle" fill="#E7EEEF" x="1.96888043" y="3.9599403" width="3.00347464" height="22.9571918"></rect>
                            <polygon id="Path-91" points="2.03645173 2.9599403 4.98158035 2.9599403 6.95333777 1.77635684e-15 9.9475983e-14 1.77635684e-15"></polygon>
                        </g>
                        <g id="Group-8" transform="translate(74.051425, 97.797945)" stroke-width="2">
                            <rect id="Rectangle" fill="#E7EEEF" x="1.96888043" y="3.9599403" width="3.00347464" height="22.9571918"></rect>
                            <polygon id="Path-91" points="2.03645173 2.9599403 4.98158035 2.9599403 6.95333777 1.77635684e-15 9.9475983e-14 1.77635684e-15"></polygon>
                        </g>
                        <g id="Group-8" transform="translate(58.040306, 97.797945)" stroke-width="2">
                            <rect id="Rectangle" fill="#E7EEEF" x="1.96888043" y="3.9599403" width="3.00347464" height="22.9571918"></rect>
                            <polygon id="Path-91" points="2.03645173 2.9599403 4.98158035 2.9599403 6.95333777 1.77635684e-15 9.9475983e-14 1.77635684e-15"></polygon>
                        </g>
                        <g id="Group-7" transform="translate(90.062543, 97.797945)" stroke-width="2">
                            <rect id="Rectangle" fill="#E7EEEF" x="1.96888043" y="3.9599403" width="3.00347464" height="22.9571918"></rect>
                            <polygon id="Path-91" points="2.03645173 2.9599403 4.98158035 2.9599403 6.95333777 1.77635684e-15 9.9475983e-14 1.77635684e-15"></polygon>
                        </g>
                        <rect id="Rectangle" stroke-width="2" x="35.0243224" y="112.77226" width="4.00277971" height="8.98458904"></rect>
                        <rect id="Rectangle" stroke-width="2" x="174.120917" y="112.77226" width="4.00277971" height="8.98458904"></rect>
                        <rect id="Rectangle" stroke-width="2" fill="#FFFFFF" x="26.4454264" y="92.8082192" width="161.113273" height="3.98972603"></rect>
                        <path d="M0,125.250856 L215.848969,125.250856" id="Path-92" stroke-width="2"></path>
                        <path d="M73.9383443,57.2338477 L140.617689,57.5007414" id="Path-93" stroke-width="2" fill="#85ACB0"></path>
                        <rect id="Rectangle" stroke-width="2" fill="#FFFFFF" x="27.4143069" y="101.757886" width="3.00347464" height="22.9571918"></rect>
                        <polygon id="Path-91" stroke-width="2" points="27.4818782 100.757886 30.4270068 100.757886 32.3987642 97.7979452 25.4454264 97.7979452"></polygon>
                        <path d="M167.6164,33.0137627 L184.928769,33.0137627 L184.928769,24.9708651 C183.961385,22.3474572 183.127473,20.6678694 182.427032,19.9321017 C181.726591,19.1963341 180.607902,18.3629929 179.070966,17.4320782 L179.070966,13.9417808 L174.174299,13.9417808 L174.174299,17.4320782 C172.471437,18.2495682 171.219569,19.0829094 170.418692,19.9321017 C169.617816,20.7812941 168.683719,22.2657966 167.6164,24.3856092 L167.6164,33.0137627 Z" id="Path-87" stroke-width="2" fill="#E7EEEF" transform="translate(176.272585, 23.477772) scale(-1, 1) translate(-176.272585, -23.477772) "></path>
                    </g>
                </g>
            </g>
        </g>
    </g>
</svg>