<svg xmlns="http://www.w3.org/2000/svg" width="24" height="24" viewBox="0 0 24 24">
    <defs>
        <linearGradient id="c47slliuya" x1="0%" x2="100%" y1="91.185%" y2="8.815%">
            <stop offset="0%" stop-color="#FF444F"/>
            <stop offset="100%" stop-color="#FF6444"/>
        </linearGradient>
    </defs>
    <g fill="none" fill-rule="evenodd">
        <path d="M0 0H18V18H0z" transform="translate(3 3)"/>
        <path fill="url(#c47slliuya)" fill-rule="nonzero" d="M.76 7.95l.093.015-.034-.005.37.039c.873.106 1.735.309 2.58.61l.36.135c.293.14.447.468.366.788l.013-.081 1.585.397 2.66.658 2.223.542c.878.189 1.558.856 1.779 1.703l.027.119.959-.315.17-.053c.578-.179 1.021-.285 1.426-.331 1.024-.116 1.793.178 2.346.962.151.164.214.39.169.61-.046.218-.195.4-.387.485-1.835.883-4.358 1.986-5.965 2.536-.984.342-2.052.359-3.048.048l-.454-.145c-.397-.13-.842-.28-1.327-.447L6.042 16c-.502-.175-1.02-.36-1.54-.546l-1.426-.521-.034.13c-.082.225-.282.386-.512.418l-.1.005H.66c-.364 0-.66-.295-.66-.66v-6.17c0-.216.097-.42.266-.555.168-.134.39-.184.6-.135zm3.564 2.229l-.751 2.86-.298 1.17.706.26c.515.187 1.036.374 1.549.556l1.09.384 1.116.38c.344.116.658.219.94.308.842.262 1.746.247 2.58-.042 1.48-.507 3.782-1.506 5.568-2.352l.259-.124-.03-.041c-.618-.848-1.03-.894-3.48-.128l-1.048.335c-.305.096-.622.165-.95.209-1.136.15-2.338-.001-3.515-.345-.225-.066-.436-.135-.63-.205l-.19-.07c-.149-.058-.256-.103-.316-.13-.188-.087-.271-.31-.185-.497.086-.189.308-.272.497-.186l.198.083.075.03c.227.086.482.174.762.255 1.084.317 2.188.456 3.205.321.143-.019.284-.043.42-.073l.166-.04-.024-.12c-.13-.553-.549-1.001-1.107-1.167l-3.24-.794-3.367-.837zM.749 8.705v6.032h1.607l.418-1.601.898-3.509c.01-.042.028-.081.051-.116l.03-.11-.253-.093c-.778-.276-1.583-.465-2.402-.565L.75 8.705zM9.51.97l.454.145c.239.077.494.162.765.253l1.212.415c.75.262 1.534.542 2.305.822l.628.23.028-.108c.071-.252.285-.435.536-.47l.096-.006h1.737c.176-.005.346.062.473.185.126.123.197.291.197.467l-.002 6.145c.02.202-.05.402-.19.548-.14.146-.337.225-.556.213-1.128-.108-2.236-.368-3.328-.788-.257-.13-.402-.403-.376-.666L11.87 7.95l-2.659-.658-2.216-.542c-.877-.182-1.56-.845-1.785-1.688L5.174 4.9l-1.119.365c-.578.179-1.021.285-1.427.331-.965.11-1.704-.145-2.255-.836l-.101-.134c-.143-.165-.2-.387-.156-.6.044-.213.186-.394.389-.49l1.65-.743c.496-.22.965-.424 1.491-.648l.596-.251c.85-.355 1.598-.648 2.218-.868C7.444.678 8.513.66 9.51.97zM17.19 3h-1.585l-.1.383-.007.04-1.14 4.479-.109.464.293.106c.754.26 1.532.443 2.313.545l.335.038V3zM6.71 1.734l-.478.175c-.501.188-1.072.416-1.701.678l-.59.249-.82.352c-.264.116-.525.23-.797.352l-1.445.65.03.04c.636.87 1.064.894 3.676.067l.851-.274c.31-.098.632-.168.966-.212 1.133-.15 2.333.002 3.507.347.225.066.437.135.632.206l.19.07c.148.058.255.104.315.13.188.087.271.31.185.498-.086.188-.309.271-.497.185l-.274-.113c-.226-.087-.482-.175-.762-.257C8.616 4.56 7.514 4.42 6.5 4.553c-.146.02-.288.044-.427.075l-.176.042.004.036c.096.609.536 1.108 1.138 1.282l.624.152c1.13.275 2.312.566 3.499.86l2.49.623c.06-.245.128-.525.206-.837l.428-1.69.397-1.534-.694-.253c-.512-.186-1.03-.372-1.54-.553l-1.107-.387-1.115-.379c-.343-.114-.659-.216-.941-.305-.841-.262-1.745-.245-2.576.048z" transform="translate(3 3)"/>
    </g>
</svg>
