<?xml version="1.0" encoding="UTF-8"?>
<svg role="img" width="48px" height="48px" viewBox="0 0 48 48" version="1.1" xmlns="http://www.w3.org/2000/svg" xmlns:xlink="http://www.w3.org/1999/xlink" aria-labelledby="patented-technology-icon-title">
    <title id='patented-technology-icon-title'>Patented technology</title>
    <desc>Created with Sketch.</desc>
    <g id="rule_1" stroke="none" stroke-width="1" fill="none" fill-rule="evenodd">
        <g id="pt-group" fill-rule="nonzero">
            <g id="rule_2">
                <path d="M36.9230769,12.9230769 C36.4132756,12.9230769 36,13.3363525 36,13.8461538 L36,19.3846154 C36,19.8944167 36.4132756,20.2855385 36.9230769,20.2855385 C37.4328782,20.2855385 37.8461538,19.8722628 37.8461538,19.3624615 L37.8461538,14.7692308 L45.2307692,14.7692308 C45.7405705,14.7692308 46.1538462,14.3559552 46.1538462,13.8461538 L46.1538462,5.53846154 C46.1538462,5.02866023 45.7405705,4.61538462 45.2307692,4.61538462 C44.7209679,4.61538462 44.3076923,5.02866023 44.3076923,5.53846154 L44.3076923,12.9230769 L36.9230769,12.9230769 Z" id="Path" fill="#85ACB0"></path>
                <path d="M13.8752271,9.26016153 C13.8752271,9.75372992 14.2819945,10.1538462 14.7837674,10.1538462 C15.2855404,10.1538462 15.6923077,9.75372992 15.6923077,9.26016153 L15.6923077,2.73983847 C15.6923077,2.24627008 15.2855404,1.84615385 14.7837674,1.84615385 L5.53846154,1.90493844 C5.0366886,1.90493844 4.62992126,2.30505467 4.62992126,2.79862306 C4.62992126,3.29219146 5.0366886,3.69230769 5.53846154,3.69230769 L13.8752271,3.6335231 L13.8752271,9.26016153 Z" id="Path" fill="#85ACB0"></path>
                <path d="M3.69230769,35.0769231 L14.7692308,35.0769231 C15.2790321,35.0769231 15.6923077,34.6636475 15.6923077,34.1538462 C15.6923077,33.6440448 15.2790321,33.2307692 14.7692308,33.2307692 L2.76923077,33.2307692 C2.25942946,33.2307692 1.84615385,33.6440448 1.84615385,34.1538462 L1.84615385,43.3846154 C1.84615385,43.8944167 2.25942946,44.3076923 2.76923077,44.3076923 C3.27903208,44.3076923 3.69230769,43.8944167 3.69230769,43.3846154 L3.69230769,35.0769231 Z" id="Path" fill="#85ACB0"></path>
                <path d="M1.84615385,28.6153846 L1.84615385,11.0769231 L28.6153846,11.0769231 L28.6153846,19.3846154 C28.6153846,19.8944167 29.0286602,20.3076923 29.5384615,20.3076923 C30.0482628,20.3076923 30.4615385,19.8944167 30.4615385,19.3846154 L30.4615385,10.1538462 C30.4615385,9.64404485 30.0482628,9.23076923 29.5384615,9.23076923 L0.923076923,9.23076923 C0.413275616,9.23076923 0,9.64404485 0,10.1538462 L0,29.5384615 C0,30.0482628 0.413275616,30.4615385 0.923076923,30.4615385 C9.81397862,30.4615385 14.4293632,30.4615385 14.7692308,30.4615385 C15.2790321,30.4615385 15.6923077,30.0482628 15.6923077,29.5384615 C15.6923077,29.0286602 15.2790321,28.6153846 14.7692308,28.6153846 L1.84615385,28.6153846 Z" id="Path" fill="#85ACB0"></path>
                <path d="M17.5384615,0.923076923 C17.5384615,0.413275616 17.9517372,0 18.4615385,0 L22.1538462,0 C22.6636475,0 23.0769231,0.413275616 23.0769231,0.923076923 C23.0769231,1.74358974 23.0769231,2.35897436 23.0769231,2.76923077 C23.0769231,3.26810256 23.0769231,3.88348718 23.0769231,4.61538462 C23.0769231,5.12518592 22.6636475,5.53846154 22.1538462,5.53846154 L18.4615385,5.53846154 C17.9517372,5.53846154 17.5384615,5.12518592 17.5384615,4.61538462 L17.5384615,0.923076923 Z M19.3846154,3.69230769 C19.3846154,3.69230769 20,3.69230769 21.2307692,3.69230769 L21.2307692,1.84615385 L19.3846154,1.84615385 C19.3846154,3.07692308 19.3846154,3.69230769 19.3846154,3.69230769 Z" id="Rectangle" fill="#85ACB0"></path>
                <path d="M8.30769231,43.3846154 C8.30769231,42.8748141 8.72096792,42.4615385 9.23076923,42.4615385 L12.9230769,42.4615385 C13.4328782,42.4615385 13.8461538,42.8748141 13.8461538,43.3846154 C13.8461538,44.2051282 13.8461538,44.8205128 13.8461538,45.2307692 C13.8461538,45.729641 13.8461538,46.3450256 13.8461538,47.0769231 C13.8461538,47.5867244 13.4328782,48 12.9230769,48 L9.23076923,48 C8.72096792,48 8.30769231,47.5867244 8.30769231,47.0769231 L8.30769231,43.3846154 Z M10.1538462,46.1538462 C10.1538462,46.1538462 10.7692308,46.1538462 12,46.1538462 L12,44.3076923 L10.1538462,44.3076923 C10.1538462,45.5384615 10.1538462,46.1538462 10.1538462,46.1538462 Z" id="Rectangle-Copy-3" fill="#85ACB0"></path>
                <path d="M0,43.3846154 C0,42.8748141 0.413275616,42.4615385 0.923076923,42.4615385 L4.61538462,42.4615385 C5.12518592,42.4615385 5.53846154,42.8748141 5.53846154,43.3846154 C5.53846154,44.2051282 5.53846154,44.8205128 5.53846154,45.2307692 C5.53846154,45.729641 5.53846154,46.3450256 5.53846154,47.0769231 C5.53846154,47.5867244 5.12518592,48 4.61538462,48 L0.923076923,48 C0.413275616,48 0,47.5867244 0,47.0769231 L0,43.3846154 Z M1.84615385,46.1538462 C1.84615385,46.1538462 2.46153846,46.1538462 3.69230769,46.1538462 L3.69230769,44.3076923 L1.84615385,44.3076923 C1.84615385,45.5384615 1.84615385,46.1538462 1.84615385,46.1538462 Z" id="Rectangle-Copy-6" fill="#FF444F"></path>
                <path d="M24.9230769,0.923076923 C24.9230769,0.413275616 25.3363525,0 25.8461538,0 L29.5384615,0 C30.0482628,0 30.4615385,0.413275616 30.4615385,0.923076923 C30.4615385,1.74358974 30.4615385,2.35897436 30.4615385,2.76923077 C30.4615385,3.26810256 30.4615385,3.88348718 30.4615385,4.61538462 C30.4615385,5.12518592 30.0482628,5.53846154 29.5384615,5.53846154 L25.8461538,5.53846154 C25.3363525,5.53846154 24.9230769,5.12518592 24.9230769,4.61538462 L24.9230769,0.923076923 Z M26.7692308,3.69230769 C26.7692308,3.69230769 27.3846154,3.69230769 28.6153846,3.69230769 L28.6153846,1.84615385 L26.7692308,1.84615385 C26.7692308,3.07692308 26.7692308,3.69230769 26.7692308,3.69230769 Z" id="Rectangle-Copy" fill="#85ACB0"></path>
                <path d="M16.6153846,43.3846154 C16.6153846,42.8748141 17.0286602,42.4615385 17.5384615,42.4615385 L21.2307692,42.4615385 C21.7405705,42.4615385 22.1538462,42.8748141 22.1538462,43.3846154 C22.1538462,44.2051282 22.1538462,44.8205128 22.1538462,45.2307692 C22.1538462,45.729641 22.1538462,46.3450256 22.1538462,47.0769231 C22.1538462,47.5867244 21.7405705,48 21.2307692,48 L17.5384615,48 C17.0286602,48 16.6153846,47.5867244 16.6153846,47.0769231 L16.6153846,43.3846154 Z M18.4615385,46.1538462 C18.4615385,46.1538462 19.0769231,46.1538462 20.3076923,46.1538462 L20.3076923,44.3076923 L18.4615385,44.3076923 C18.4615385,45.5384615 18.4615385,46.1538462 18.4615385,46.1538462 Z" id="Rectangle-Copy-4" fill="#85ACB0"></path>
                <path d="M32.3076923,0.923076923 C32.3076923,0.413275616 32.7209679,0 33.2307692,0 L36.9230769,0 C37.4328782,0 37.8461538,0.413275616 37.8461538,0.923076923 C37.8461538,1.74358974 37.8461538,2.35897436 37.8461538,2.76923077 C37.8461538,3.26810256 37.8461538,3.88348718 37.8461538,4.61538462 C37.8461538,5.12518592 37.4328782,5.53846154 36.9230769,5.53846154 L33.2307692,5.53846154 C32.7209679,5.53846154 32.3076923,5.12518592 32.3076923,4.61538462 L32.3076923,0.923076923 Z M34.1538462,3.69230769 C34.1538462,3.69230769 34.7692308,3.69230769 36,3.69230769 L36,1.84615385 L34.1538462,1.84615385 C34.1538462,3.07692308 34.1538462,3.69230769 34.1538462,3.69230769 Z" id="Rectangle-Copy-2" fill="#85ACB0"></path>
                <path d="M24.9230769,43.3846154 C24.9230769,42.8748141 25.3363525,42.4615385 25.8461538,42.4615385 L29.5384615,42.4615385 C30.0482628,42.4615385 30.4615385,42.8748141 30.4615385,43.3846154 C30.4615385,44.2051282 30.4615385,44.8205128 30.4615385,45.2307692 C30.4615385,45.729641 30.4615385,46.3450256 30.4615385,47.0769231 C30.4615385,47.5867244 30.0482628,48 29.5384615,48 L25.8461538,48 C25.3363525,48 24.9230769,47.5867244 24.9230769,47.0769231 L24.9230769,43.3846154 Z M26.7692308,46.1538462 C26.7692308,46.1538462 27.3846154,46.1538462 28.6153846,46.1538462 L28.6153846,44.3076923 L26.7692308,44.3076923 C26.7692308,45.5384615 26.7692308,46.1538462 26.7692308,46.1538462 Z" id="Rectangle-Copy-5" fill="#85ACB0"></path>
                <path d="M42.4615385,43.3846154 C42.4615385,42.8748141 42.8748141,42.4615385 43.3846154,42.4615385 L47.0769231,42.4615385 C47.5867244,42.4615385 48,42.8748141 48,43.3846154 C48,44.2051282 48,44.8205128 48,45.2307692 C48,45.729641 48,46.3450256 48,47.0769231 C48,47.5867244 47.5867244,48 47.0769231,48 L43.3846154,48 C42.8748141,48 42.4615385,47.5867244 42.4615385,47.0769231 L42.4615385,43.3846154 Z M44.3076923,46.1538462 C44.3076923,46.1538462 44.9230769,46.1538462 46.1538462,46.1538462 L46.1538462,44.3076923 L44.3076923,44.3076923 C44.3076923,45.5384615 44.3076923,46.1538462 44.3076923,46.1538462 Z" id="Rectangle-Copy-7" fill="#FF444F"></path>
                <path d="M42.4615385,0.923076923 C42.4615385,0.413275616 42.8748141,0 43.3846154,0 L47.0769231,0 C47.5867244,0 48,0.413275616 48,0.923076923 C48,1.74358974 48,2.35897436 48,2.76923077 C48,3.26810256 48,3.88348718 48,4.61538462 C48,5.12518592 47.5867244,5.53846154 47.0769231,5.53846154 L43.3846154,5.53846154 C42.8748141,5.53846154 42.4615385,5.12518592 42.4615385,4.61538462 L42.4615385,0.923076923 Z M44.3076923,3.69230769 C44.3076923,3.69230769 44.9230769,3.69230769 46.1538462,3.69230769 L46.1538462,1.84615385 L44.3076923,1.84615385 C44.3076923,3.07692308 44.3076923,3.69230769 44.3076923,3.69230769 Z" id="Rectangle-Copy-8" fill="#FF444F"></path>
                <path d="M0,0.923076923 C0,0.413275616 0.413275616,0 0.923076923,0 L4.61538462,0 C5.12518592,0 5.53846154,0.413275616 5.53846154,0.923076923 C5.53846154,1.74358974 5.53846154,2.35897436 5.53846154,2.76923077 C5.53846154,3.26810256 5.53846154,3.88348718 5.53846154,4.61538462 C5.53846154,5.12518592 5.12518592,5.53846154 4.61538462,5.53846154 L0.923076923,5.53846154 C0.413275616,5.53846154 0,5.12518592 0,4.61538462 L0,0.923076923 Z M1.84615385,3.69230769 C1.84615385,3.69230769 2.46153846,3.69230769 3.69230769,3.69230769 L3.69230769,1.84615385 L1.84615385,1.84615385 C1.84615385,3.07692308 1.84615385,3.69230769 1.84615385,3.69230769 Z" id="Rectangle-Copy-9" fill="#FF444F"></path>
                <path d="M4.61538462,14.7692308 L8.62523077,14.7692308 C9.13503208,14.7692308 9.54830769,14.3559552 9.54830769,13.8461538 C9.54830769,13.3363525 9.13503208,12.9230769 8.62523077,12.9230769 L4.61538462,12.9230769 C4.10558331,12.9230769 3.69230769,13.3363525 3.69230769,13.8461538 C3.69230769,14.3559552 4.10558331,14.7692308 4.61538462,14.7692308 Z" id="Path" fill="#85ACB0"></path>
                <path d="M4.61538462,18.4615385 L8.62523077,18.4615385 C9.13503208,18.4615385 9.54830769,18.0482628 9.54830769,17.5384615 C9.54830769,17.0286602 9.13503208,16.6153846 8.62523077,16.6153846 L4.61538462,16.6153846 C4.10558331,16.6153846 3.69230769,17.0286602 3.69230769,17.5384615 C3.69230769,18.0482628 4.10558331,18.4615385 4.61538462,18.4615385 Z" id="Path" fill="#85ACB0"></path>
                <path d="M4.61538462,22.1538462 L8.62523077,22.1538462 C9.13503208,22.1538462 9.54830769,21.7405705 9.54830769,21.2307692 C9.54830769,20.7209679 9.13503208,20.3076923 8.62523077,20.3076923 L4.61538462,20.3076923 C4.10558331,20.3076923 3.69230769,20.7209679 3.69230769,21.2307692 C3.69230769,21.7405705 4.10558331,22.1538462 4.61538462,22.1538462 Z" id="Path" fill="#85ACB0"></path>
                <path d="M13.8461538,19.3846154 C13.8461538,18.8748141 14.2594295,18.4615385 14.7692308,18.4615385 L44.3076923,18.4615385 C44.8174936,18.4615385 45.2307692,18.8748141 45.2307692,19.3846154 L45.2307692,39.6923077 C45.2307692,40.202109 44.8174936,40.6153846 44.3076923,40.6153846 L14.7692308,40.6153846 C14.2594295,40.6153846 13.8461538,40.202109 13.8461538,39.6923077 L13.8461538,19.3846154 Z M15.6923077,20.3076923 L15.6923077,38.7692308 L43.3846154,38.7692308 L43.3846154,20.3076923 L15.6923077,20.3076923 Z" id="Rectangle" fill="#000000"></path>
            </g>
            <path d="M28.6195452,35.9126043 C26.5133279,35.5061779 24.9230769,33.7300609 24.9230769,31.5938797 C24.9230769,31.0840784 25.3494273,30.6708028 25.8753571,30.6708028 C26.4012869,30.6708028 26.8276373,31.0840784 26.8276373,31.5938797 C26.8276373,33.0036889 28.0372536,34.1538462 29.5384615,34.1538462 C30.8564921,34.1538462 31.9497496,33.2672487 32.1969241,32.0967388 L25.3982807,28.2819267 C25.1041719,28.1168983 24.9230769,27.8124525 24.9230769,27.4830434 C24.9230769,25.3468623 26.5133278,23.5707453 28.619545,23.1643188 L28.6246269,22.1492308 C28.6271759,21.6394359 29.0425127,21.2282318 29.5523076,21.230769 C30.0621026,21.2333297 30.4733067,21.6486665 30.4707695,22.1584615 L30.4657257,23.1659373 C32.5677956,23.5754403 34.1538462,25.3496853 34.1538462,27.4830434 C34.1538462,27.9928447 33.7274958,28.4061203 33.201566,28.4061203 C32.6756361,28.4061203 32.2492858,27.9928447 32.2492858,27.4830434 C32.2492858,26.0732342 31.0396695,24.9230769 29.5384615,24.9230769 C28.220431,24.9230769 27.1271735,25.8096744 26.879999,26.9801842 L33.6786424,30.7949963 C33.9727511,30.9600248 34.1538462,31.2644706 34.1538462,31.5938797 C34.1538462,33.7272377 32.5677957,35.5014826 30.4657259,35.9109857 L30.4707697,36.9184618 C30.4733069,37.4282568 30.0621028,37.8435936 29.5523079,37.8461543 C29.0425129,37.8486915 28.6271761,37.4374874 28.6246272,36.9276925 L28.6195452,35.9126043 Z" id="Combined-Shape" fill="#0E0E0E"></path>
        </g>
    </g>
</svg>
