<svg xmlns="http://www.w3.org/2000/svg" width="72" height="72" viewBox="0 0 72 72">
    <g fill="none">
        <path fill="#626264" d="M23.537 13.081h4.682v.687h-5.49v-9.6h.808v8.913zm6.909.687h-.781V6.635h.78v7.132zm-.919-9.196c-.005-.144.05-.284.151-.385.102-.102.24-.156.383-.148.147-.008.29.048.394.154.097.1.15.237.147.378 0 .15-.049.275-.147.376-.104.104-.247.159-.394.152-.145.007-.287-.048-.39-.152-.095-.1-.147-.236-.144-.376v.001zm4.246.237v1.826h1.459v.646h-1.459v4.752c0 .396.07.69.212.884.141.193.377.29.706.29.13 0 .34-.023.631-.066l.033.646c-.203.074-.482.111-.833.111-.534 0-.922-.156-1.165-.47-.244-.315-.365-.777-.365-1.388V7.281h-1.296v-.646h1.296V4.81h.781zm5.802 9.09c-.573.007-1.136-.148-1.625-.449-.485-.3-.877-.733-1.13-1.249-.269-.533-.404-1.132-.404-1.796v-.283c0-.686.132-1.304.394-1.853.263-.549.63-.98 1.098-1.295.45-.309.98-.473 1.523-.472.856 0 1.534.296 2.036.887.5.592.751 1.398.751 2.423v.441h-5.026v.152c0 .809.229 1.482.686 2.02.459.539 1.035.808 1.729.808.417 0 .785-.077 1.104-.231.32-.154.61-.4.87-.738l.488.376c-.574.84-1.405 1.259-2.494 1.259zm-.144-6.724c-.563-.01-1.104.228-1.48.652-.403.436-.647 1.02-.733 1.755h4.226v-.086c-.022-.686-.215-1.244-.58-1.675-.364-.43-.842-.646-1.432-.646zm6.91 6.058c.542 0 .996-.154 1.364-.465.36-.296.576-.734.596-1.202h.748c-.021.435-.156.832-.403 1.19-.248.357-.577.638-.987.84-.41.202-.862.306-1.318.303-.926 0-1.658-.326-2.198-.975-.541-.652-.811-1.526-.811-2.624v-.237c0-.704.122-1.325.364-1.866.244-.54.592-.958 1.046-1.252.453-.295.984-.442 1.592-.442.773 0 1.41.232 1.91.698.502.467.77 1.08.806 1.84h-.75c-.035-.558-.234-1.009-.597-1.352-.362-.343-.82-.514-1.37-.514-.703 0-1.249.257-1.638.772-.388.514-.583 1.235-.583 2.161v.232c0 .91.195 1.619.583 2.128.39.51.936.765 1.644.765h.002zm3.835-3.138c0-.686.131-1.303.394-1.852.263-.55.633-.977 1.113-1.282.48-.305 1.023-.458 1.632-.458.937 0 1.697.333 2.279.998.581.666.872 1.549.872 2.647v.165c0 .69-.131 1.31-.394 1.862-.263.551-.633.977-1.11 1.275-.478.3-1.023.449-1.636.449-.932 0-1.69-.333-2.275-.999-.584-.665-.875-1.548-.875-2.647v-.158zm.781.218c0 .852.218 1.553.654 2.1.437.547 1.009.82 1.716.82.704 0 1.273-.274 1.71-.82.436-.548.654-1.27.654-2.166v-.152c.006-.514-.096-1.024-.3-1.496-.2-.453-.48-.803-.84-1.051-.364-.25-.796-.38-1.236-.373-.695 0-1.262.276-1.7.827-.44.552-.658 1.274-.658 2.165v.146zm7.99 3.454h-.782V6.635h.782v7.132zm-.92-9.195c-.005-.144.05-.284.152-.385.101-.102.24-.156.382-.148.166 0 .297.051.394.154.098.103.147.23.147.38s-.05.274-.147.375c-.104.104-.247.159-.394.152-.145.007-.286-.048-.39-.152-.095-.101-.147-.236-.143-.376zm3.777 2.064l.026 1.219c.265-.44.595-.775.99-1.005.398-.232.85-.351 1.309-.346.755 0 1.317.215 1.686.646.37.43.556 1.076.56 1.938v4.68h-.774V9.08c-.005-.637-.139-1.112-.401-1.423-.263-.313-.682-.469-1.26-.469-.482 0-.908.153-1.279.458-.372.306-.647.718-.824 1.236v4.885h-.775V6.636h.742z" transform="translate(2.813 27)"/>
        <path fill="#B8B9BB" d="M8.89 0C3.98 0 0 4.03 0 9s3.98 9 8.89 9 8.891-4.03 8.891-9-3.98-9-8.89-9zm3.451 13.388H5.395l.584-2.822-1.135.79.275-1.545 1.188-.827L7.47 3.356h2.17L8.837 7.22l2.823-1.967-.33 1.6-2.823 1.96-.559 2.69h4.778l-.386 1.885z" transform="translate(2.813 27)"/>
    </g>
</svg>
