
<svg role='img' aria-labelledby='payment-bitcoin' xmlns="http://www.w3.org/2000/svg" width="96" height="96" viewBox="0 0 96 96">
    <title id='payment-bitcoin'>Bitcoin</title>
    <path fill="#85ACB0" d="M15.223 39.28c4.95 1.253 7.962 6.34 6.728 11.363-1.234 5.022-6.247 8.079-11.198 6.826-4.948-1.252-7.96-6.339-6.726-11.36 1.233-5.024 6.247-8.08 11.196-6.828zm43.523 5.323c.702 0 1.33.067 1.882.202a7.548 7.548 0 011.51.533l-1.195 2.754a11.07 11.07 0 00-.97-.344c-.335-.104-.744-.155-1.227-.155-1.155 0-2.069.404-2.748 1.21-.678.806-1.019 1.89-1.019 3.251 0 .807.172 1.46.516 1.958.343.499.975.747 1.894.747.453 0 .89-.048 1.31-.142a6.385 6.385 0 001.123-.355l.258 2.823c-.438.172-.92.327-1.45.464-.53.131-1.162.2-1.895.2-.967 0-1.786-.144-2.455-.427-.67-.287-1.224-.668-1.66-1.15a4.355 4.355 0 01-.947-1.699 7.059 7.059 0 01-.294-2.039c0-1.075.171-2.088.514-3.037.342-.95.835-1.78 1.475-2.493a6.907 6.907 0 012.327-1.684c.91-.41 1.928-.617 3.05-.617zm-28.41-5.599l-1.45 6.12a5.58 5.58 0 01.935-.33c.312-.08.647-.12 1.005-.12.75 0 1.397.136 1.94.403.547.27.998.634 1.36 1.092.357.46.623.997.794 1.613.17.618.256 1.282.256 1.993a8.091 8.091 0 01-.595 3.097 8.045 8.045 0 01-1.626 2.54 7.644 7.644 0 01-2.432 1.706c-.934.42-1.949.63-3.039.63-.14 0-.388-.004-.738-.012-.35-.007-.752-.044-1.203-.106-.453-.064-.933-.159-1.439-.286a7.141 7.141 0 01-1.439-.522l4.046-17.248 3.624-.57zm38.474 5.598c.811 0 1.525.128 2.142.381.614.252 1.12.61 1.52 1.068.396.46.696 1 .898 1.625.204.624.305 1.317.305 2.076 0 .947-.149 1.898-.443 2.849a8.268 8.268 0 01-1.31 2.561 6.891 6.891 0 01-2.163 1.862c-.864.482-1.867.724-3.005.724-.826 0-1.544-.128-2.152-.38a3.974 3.974 0 01-1.508-1.068c-.398-.458-.696-1-.9-1.625-.204-.625-.302-1.316-.302-2.074 0-.95.15-1.901.454-2.849a8.105 8.105 0 011.346-2.562 7.215 7.215 0 012.173-1.865c.856-.48 1.84-.723 2.945-.723zm-20.27-3.344l-.89 3.679h3.882l-.702 2.893h-3.859l-1.028 4.366a5.003 5.003 0 00-.163 1.02c-.017.316.023.589.116.818.093.23.26.408.503.533.241.127.587.192 1.04.192a5.46 5.46 0 001.089-.108c.35-.07.704-.168 1.063-.296l.258 2.706c-.468.174-.974.323-1.52.45-.547.127-1.194.189-1.942.189-1.075 0-1.909-.162-2.503-.485-.593-.325-1.012-.769-1.263-1.33-.247-.56-.358-1.206-.327-1.933.032-.729.14-1.495.327-2.302l2.293-9.822 3.625-.57zm-6.659 3.679l-2.946 12.479h-3.461l2.923-12.48h3.484zm38.512 0l-2.946 12.479h-3.464l2.923-12.48h3.487zm7.448-.287c1.826 0 3.084.54 3.779 1.615.694 1.075.814 2.547.364 4.413l-1.593 6.738h-3.484l1.543-6.596c.095-.412.168-.81.223-1.2a2.883 2.883 0 00-.012-1.019 1.224 1.224 0 00-.432-.713c-.228-.181-.573-.272-1.041-.272-.452 0-.91.049-1.38.144l-2.268 9.656h-3.485l2.83-11.91c.264-.079.557-.172.876-.274a12.731 12.731 0 012.41-.497c.49-.057 1.05-.085 1.67-.085zm-57.879 2.966c-.22 0-.502.042-.853.118-.351.08-.666.248-.948.5l-1.543 6.5c.093.017.176.032.246.047.069.016.144.028.22.036.08.009.172.014.282.014h.42a3.14 3.14 0 001.543-.404c.485-.268.903-.63 1.253-1.08a5.47 5.47 0 00.83-1.53c.202-.57.304-1.164.304-1.781 0-.76-.125-1.352-.374-1.78-.25-.426-.71-.64-1.38-.64zm38.522-.023c-.513 0-.967.151-1.355.45a3.86 3.86 0 00-.981 1.14c-.267.46-.465.961-.599 1.506a6.585 6.585 0 00-.197 1.554c0 .792.126 1.408.373 1.852.251.442.702.664 1.357.664.515 0 .966-.15 1.357-.452.387-.3.715-.68.98-1.138.266-.458.465-.961.6-1.507.13-.545.197-1.064.197-1.554 0-.79-.126-1.408-.375-1.851-.25-.442-.703-.664-1.357-.664zm-55.876-5.326l-.416 1.689c-.22-.051-.437-.101-.647-.154l.001-.006-1.398-.354-.27 1.099s.753.175.737.185c.41.104.485.38.472.599l-.473 1.925a.831.831 0 01.106.034l-.108-.027-.663 2.697c-.05.126-.177.316-.464.244.01.015-.737-.186-.737-.186l-.503 1.177 1.319.334c.245.062.486.127.723.189l-.42 1.71 1.013.255.415-1.69c.277.076.545.146.808.212l-.414 1.683 1.014.257.42-1.706c1.728.332 3.028.198 3.575-1.389.441-1.277-.022-2.014-.931-2.494.662-.155 1.161-.597 1.294-1.51.184-1.248-.752-1.919-2.032-2.366l.415-1.69-1.013-.256-.405 1.645c-.266-.067-.54-.13-.812-.194l.407-1.656-1.013-.256zm-.427 6.217c.688.174 2.891.519 2.564 1.851-.313 1.277-2.433.587-3.12.414l.556-2.265zm.76-3.09c.572.145 2.415.415 2.118 1.627-.286 1.162-2.05.572-2.623.427l.505-2.054zm28.192-6.153c.483 0 .919.146 1.309.439.389.293.584.74.584 1.34 0 .333-.066.646-.199.939a2.47 2.47 0 01-1.285 1.268c-.29.128-.596.189-.923.189-.483 0-.921-.146-1.31-.438-.392-.29-.586-.738-.586-1.341 0-.332.067-.643.199-.936.133-.293.308-.546.527-.76.218-.213.472-.383.76-.51a2.29 2.29 0 01.924-.19zm38.51 0c.484 0 .921.146 1.31.439.39.293.586.74.586 1.34 0 .333-.07.646-.2.939a2.463 2.463 0 01-1.284 1.268c-.29.128-.598.189-.926.189-.483 0-.92-.146-1.309-.438-.39-.29-.585-.738-.585-1.341 0-.332.067-.643.199-.936a2.473 2.473 0 011.287-1.27c.287-.127.595-.19.922-.19z"/>
</svg>
