<svg xmlns="http://www.w3.org/2000/svg" width="128" height="128" viewBox="0 0 128 128">
    <g fill="none" fill-rule="evenodd">
        <path fill="#85ACB0" d="M120.84 55.49c-1.5-1-3.78-1.53-6.76-1.53h-7.81l-2.91 15.52H93.13l.65-3.48H100l.73-3.95h-6.21l.66-3.51h6.35l.85-4.55h-12.9l-2.76 14.7H82L84.77 54H78l-2.73 14.69h-4.61L73.44 54H66.7l-2.91 15.49H53.48l.65-3.49h6.19l.73-4h-6.18l.66-3.52H62l.79-4.48H22.6l-2.29 12.3L15.76 54h-7L5 74h6.68L14 61.4 18.38 74h23.94l2.91-15.53H49L46.06 74h63l1.83-9.8 3 9.8h6.69l-3.06-8 .69-.15a6 6 0 0 0 3.59-2.07 6.4 6.4 0 0 0 1.2-4.02 4.76 4.76 0 0 0-2.16-4.27zm-84.34 14H26.28l.66-3.49h6.41l.73-4h-6.35l.61-3.49h10.21L36.5 69.49zm78.83-6.76a5.21 5.21 0 0 1-3 .69H111l1-5.39h1a4.65 4.65 0 0 1 2.47.53 2.1 2.1 0 0 1 1 1.88 2.59 2.59 0 0 1-1.14 2.28v.01z"/>
        <path d="M0 0h128v128H0z"/>
    </g>
</svg>
