<svg xmlns="http://www.w3.org/2000/svg" width="72" height="72" viewBox="0 0 72 72">
    <g fill="none" fill-rule="evenodd">
        <path d="M0 0H72V72H0z"/>
        <g>
            <path fill="#000" fill-rule="nonzero" d="M13.238 35.32v-2.375c.078-.78-.507-1.441-1.286-1.519h-.195c-.546-.039-1.014.234-1.326.662-.273-.428-.74-.7-1.247-.662-.43-.039-.858.195-1.092.545v-.467h-.78v3.815h.82v-2.102c0-.662.35-1.012.896-1.012s.818.35.818 1.012v2.102h.82v-2.102c-.079-.467.272-.934.74-1.012h.156c.545 0 .818.35.818 1.012v2.102h.858zm4.561-1.908v1.907h-.819v-.467c-.273.35-.701.584-1.17.545-1.09-.078-1.948-1.012-1.87-2.102.078-1.012.857-1.791 1.87-1.869.469 0 .897.195 1.17.545v-.467h.819v1.908zm-3.04 0c.038.623.584 1.09 1.208 1.05.624-.038 1.091-.583 1.052-1.206-.039-.584-.545-1.051-1.13-1.051-.624 0-1.13.506-1.13 1.129v.078zm20.388-1.986c.272 0 .545.04.78.156.233.078.467.233.623.428.195.195.312.39.429.623.195.506.195 1.09 0 1.596-.078.234-.234.467-.429.623-.585.545-1.481.74-2.222.428-.234-.116-.468-.233-.624-.428-.156-.194-.312-.39-.39-.662-.195-.506-.195-1.09 0-1.596.078-.233.234-.467.43-.623.194-.194.389-.311.623-.428.234-.078.507-.117.78-.117zm0 .779c-.156 0-.312.039-.468.078-.273.116-.507.35-.624.623-.078.155-.078.311-.078.506 0 .155.04.35.078.506.039.156.156.272.234.39.117.116.234.194.39.233.312.117.624.117.935 0 .156-.04.273-.156.39-.234.117-.117.195-.233.234-.39.078-.155.078-.31.078-.505 0-.156-.039-.35-.078-.506-.039-.156-.156-.273-.234-.39-.234-.194-.507-.311-.857-.311zm-12.943 1.207v.311h-2.768c.04.545.546.973 1.092.935.39 0 .78-.156 1.091-.39l.39.623c-.429.35-.974.545-1.52.545-1.014.04-1.871-.778-1.91-1.79v-.195c0-1.168.78-1.986 1.87-1.986 1.092 0 1.755.779 1.755 1.947zm-2.768-.35h1.95c0-.507-.43-.935-.936-.935-.546 0-1.014.428-1.014.934zm6.199-.585c-.351-.194-.741-.311-1.17-.311-.429 0-.702.156-.702.428 0 .273.273.312.624.39l.39.038c.819.117 1.286.468 1.286 1.13 0 .661-.623 1.245-1.715 1.245-.585 0-1.13-.155-1.598-.506l.39-.662c.35.273.78.39 1.247.39.546 0 .858-.156.858-.468 0-.233-.195-.35-.663-.389l-.39-.039c-.818-.117-1.286-.506-1.286-1.129 0-.74.624-1.207 1.56-1.207.545-.039 1.052.117 1.52.39l-.351.7zm3.898-.194h-1.325v1.713c0 .389.117.623.545.623.234 0 .507-.078.702-.234l.234.7c-.312.195-.663.312-1.014.312-.974 0-1.286-.506-1.286-1.401v-1.713h-.78v-.74h.74v-1.168h.82v1.168h1.325l.039.74zm2.807-.857c.195 0 .39.04.585.117l-.234.779c-.156-.078-.351-.078-.507-.078-.546 0-.78.35-.78.973v2.141h-.857v-3.815h.818v.467c.156-.39.546-.584.975-.584z" transform="translate(13.5 18)"/>
            <path fill="#EB001B" d="M17.047 14.11c0-4.31 1.945-8.39 5.262-11.097C19.907 1.068 16.894 0 13.805 0 6.178 0 0 6.33 0 14.11c0 7.78 6.14 14.11 13.805 14.11 3.09 0 6.102-1.067 8.542-3.012-3.355-2.67-5.3-6.789-5.3-11.098" transform="translate(13.5 18)"/>
            <path fill="#00A1DF" d="M44.466 14.11c0 7.742-6.14 14.034-13.729 14.034-3.089 0-6.101-1.068-8.504-3.013 6.102-4.957 7.017-13.881 2.06-19.983-.61-.762-1.297-1.449-2.06-2.059C24.636 1.144 27.648.076 30.737.076c7.59.038 13.73 6.293 13.73 14.034" transform="translate(13.5 18)"/>
            <path fill="#00A1DF" d="M30.661.114c-3.05 0-6.064.992-8.466 2.86 6.178 4.691 7.36 13.462 2.67 19.64-.763 1.03-1.679 1.907-2.67 2.67 6.14 4.69 14.95 3.508 19.64-2.67 4.69-6.178 3.508-14.949-2.67-19.64-2.44-1.868-5.415-2.86-8.504-2.86z" transform="translate(13.5 18)"/>
            <path fill="#7673C0" fill-rule="nonzero" d="M22.195 2.975s5.53 4.004 5.53 11.173c0 6.75-5.53 11.174-5.53 11.174s-5.34-4.462-5.225-11.44c.115-7.36 5.225-10.907 5.225-10.907z" transform="translate(13.5 18)"/>
        </g>
    </g>
</svg>
