<svg id="Layer_2" data-name="Layer 2" xmlns="http://www.w3.org/2000/svg" viewBox="0 0 128 128"><defs><style>.cls-1,.cls-2{fill:#85acb0;}.cls-2{fill-rule:evenodd;}.cls-3{fill:none;}</style></defs><title>Payment logo</title><rect class="cls-1" x="33.19" y="48.86" width="1.04" height="30.28"/><path class="cls-1" d="M23.51,53.92A12,12,0,0,0,6.27,58.65Z"/><path class="cls-1" d="M29,64.6c0-.2,0-.39,0-.59A12,12,0,0,0,27,57.27L5,63.28c0,.24,0,.48,0,.73a11.93,11.93,0,0,0,2,6.62Z"/><path class="cls-1" d="M10.36,74a12,12,0,0,0,17.46-4.78Z"/><g id="sub-pages"><g id="Reis-LP-UI-Online-Brand-Elements"><g id="Logo-Copy-2"><path id="path-1" class="cls-2" d="M50,52.15V52h6.34V68a7.94,7.94,0,1,1-15.87,0h6.35A1.59,1.59,0,1,0,50,68Zm22.92,8.44a7.92,7.92,0,0,1,1.61,2.77,11.08,11.08,0,0,1,.54,3.56c0,.31,0,.6,0,.84a2,2,0,0,1-.13.63l-.18.35h-11a3.8,3.8,0,0,0,.24.72,3.64,3.64,0,0,0,.79,1.09,3.47,3.47,0,0,0,1.12.72,3.62,3.62,0,0,0,1.36.26,3.28,3.28,0,0,0,2.18-.63l.25-.22L74.35,72l-.5.73a7.08,7.08,0,0,1-1.64,1.73A7.85,7.85,0,0,1,70,75.6a8.75,8.75,0,0,1-2.74.42A8.84,8.84,0,0,1,64,75.41a8,8,0,0,1-2.73-1.77,8.7,8.7,0,0,1-1.86-2.84A9.65,9.65,0,0,1,58.72,67a9.48,9.48,0,0,1,.67-3.61,8.76,8.76,0,0,1,1.8-2.79,8.17,8.17,0,0,1,2.62-1.8,7.62,7.62,0,0,1,3.07-.65,8.92,8.92,0,0,1,3.43.63A7.28,7.28,0,0,1,72.92,60.59Zm-9,4.15H70a3.52,3.52,0,0,0-.13-.43,2.67,2.67,0,0,0-.57-.88,2.91,2.91,0,0,0-1-.63,3.68,3.68,0,0,0-1.41-.24,3.21,3.21,0,0,0-1.28.25,3,3,0,0,0-1,.66,3.61,3.61,0,0,0-.64,1C64,64.53,63.94,64.63,63.9,64.74Zm39.33-4a8.4,8.4,0,0,1,1.82,2.82,10,10,0,0,1,0,7.09,8.38,8.38,0,0,1-4.56,4.71,9.07,9.07,0,0,1-6.89,0,8.38,8.38,0,0,1-2.75-1.87,8.76,8.76,0,0,1-1.8-2.84,10,10,0,0,1,0-7.09,8.78,8.78,0,0,1,1.8-2.82,8.38,8.38,0,0,1,2.75-1.87,9.07,9.07,0,0,1,6.89,0A8.44,8.44,0,0,1,103.23,60.72ZM100.41,69a5.6,5.6,0,0,0,.31-1.92,5.4,5.4,0,0,0-.31-1.9,3.87,3.87,0,0,0-.81-1.32,3.3,3.3,0,0,0-1.16-.78,3.87,3.87,0,0,0-1.4-.26,3.92,3.92,0,0,0-1.41.26,3.12,3.12,0,0,0-1.13.77,4.17,4.17,0,0,0-.83,1.34,5.12,5.12,0,0,0-.32,1.89A5.27,5.27,0,0,0,93.67,69a4.29,4.29,0,0,0,.83,1.35,3.21,3.21,0,0,0,1.14.79,3.74,3.74,0,0,0,2.79,0,3.44,3.44,0,0,0,1.17-.8A3.83,3.83,0,0,0,100.41,69Zm22.21-6.56A8.67,8.67,0,0,1,123,65v10.5h-5V65.67a3.5,3.5,0,0,0-.6-2.08,2.74,2.74,0,0,0-3.83.08,3.54,3.54,0,0,0-.68,2.22v9.64h-5V58.66h4.85v.93a4.73,4.73,0,0,1,1.11-.73,6.88,6.88,0,0,1,5.57-.12,5.43,5.43,0,0,1,2,1.51,6.57,6.57,0,0,1,1.14,2.18ZM85.34,71.1l.43-.06.79-.2v4.33l-.4.16c-.09,0-.26.09-.77.23a7,7,0,0,1-1.72.17,5.27,5.27,0,0,1-3.84-1.4,5.22,5.22,0,0,1-1.43-3.89v-7.2H76.5V58.66h1.9V53.88h4.92v4.78h3.21v4.58H83.32v6.59a1.42,1.42,0,0,0,.29,1,1.5,1.5,0,0,0,1,.29A5.31,5.31,0,0,0,85.34,71.1Z"/><path class="cls-2" d="M50,52.15V52h6.34V68a7.94,7.94,0,1,1-15.87,0h6.35A1.59,1.59,0,1,0,50,68Zm22.92,8.44a7.92,7.92,0,0,1,1.61,2.77,11.08,11.08,0,0,1,.54,3.56c0,.31,0,.6,0,.84a2,2,0,0,1-.13.63l-.18.35h-11a3.8,3.8,0,0,0,.24.72,3.64,3.64,0,0,0,.79,1.09,3.47,3.47,0,0,0,1.12.72,3.62,3.62,0,0,0,1.36.26,3.28,3.28,0,0,0,2.18-.63l.25-.22L74.35,72l-.5.73a7.08,7.08,0,0,1-1.64,1.73A7.85,7.85,0,0,1,70,75.6a8.75,8.75,0,0,1-2.74.42A8.84,8.84,0,0,1,64,75.41a8,8,0,0,1-2.73-1.77,8.7,8.7,0,0,1-1.86-2.84A9.65,9.65,0,0,1,58.72,67a9.48,9.48,0,0,1,.67-3.61,8.76,8.76,0,0,1,1.8-2.79,8.17,8.17,0,0,1,2.62-1.8,7.62,7.62,0,0,1,3.07-.65,8.92,8.92,0,0,1,3.43.63A7.28,7.28,0,0,1,72.92,60.59Zm-9,4.15H70a3.52,3.52,0,0,0-.13-.43,2.67,2.67,0,0,0-.57-.88,2.91,2.91,0,0,0-1-.63,3.68,3.68,0,0,0-1.41-.24,3.21,3.21,0,0,0-1.28.25,3,3,0,0,0-1,.66,3.61,3.61,0,0,0-.64,1C64,64.53,63.94,64.63,63.9,64.74Zm39.33-4a8.4,8.4,0,0,1,1.82,2.82,10,10,0,0,1,0,7.09,8.38,8.38,0,0,1-4.56,4.71,9.07,9.07,0,0,1-6.89,0,8.38,8.38,0,0,1-2.75-1.87,8.76,8.76,0,0,1-1.8-2.84,10,10,0,0,1,0-7.09,8.78,8.78,0,0,1,1.8-2.82,8.38,8.38,0,0,1,2.75-1.87,9.07,9.07,0,0,1,6.89,0A8.44,8.44,0,0,1,103.23,60.72ZM100.41,69a5.6,5.6,0,0,0,.31-1.92,5.4,5.4,0,0,0-.31-1.9,3.87,3.87,0,0,0-.81-1.32,3.3,3.3,0,0,0-1.16-.78,3.87,3.87,0,0,0-1.4-.26,3.92,3.92,0,0,0-1.41.26,3.12,3.12,0,0,0-1.13.77,4.17,4.17,0,0,0-.83,1.34,5.12,5.12,0,0,0-.32,1.89A5.27,5.27,0,0,0,93.67,69a4.29,4.29,0,0,0,.83,1.35,3.21,3.21,0,0,0,1.14.79,3.74,3.74,0,0,0,2.79,0,3.44,3.44,0,0,0,1.17-.8A3.83,3.83,0,0,0,100.41,69Zm22.21-6.56A8.67,8.67,0,0,1,123,65v10.5h-5V65.67a3.5,3.5,0,0,0-.6-2.08,2.74,2.74,0,0,0-3.83.08,3.54,3.54,0,0,0-.68,2.22v9.64h-5V58.66h4.85v.93a4.73,4.73,0,0,1,1.11-.73,6.88,6.88,0,0,1,5.57-.12,5.43,5.43,0,0,1,2,1.51,6.57,6.57,0,0,1,1.14,2.18ZM85.34,71.1l.43-.06.79-.2v4.33l-.4.16c-.09,0-.26.09-.77.23a7,7,0,0,1-1.72.17,5.27,5.27,0,0,1-3.84-1.4,5.22,5.22,0,0,1-1.43-3.89v-7.2H76.5V58.66h1.9V53.88h4.92v4.78h3.21v4.58H83.32v6.59a1.42,1.42,0,0,0,.29,1,1.5,1.5,0,0,0,1,.29A5.31,5.31,0,0,0,85.34,71.1Z"/></g></g></g><rect class="cls-3" width="128" height="128"/></svg>