<svg id="Layer_2" data-name="Layer 2" xmlns="http://www.w3.org/2000/svg" viewBox="0 0 128 128"><defs><style>.cls-1{fill:#bccdce;}.cls-2{fill:#c7e5e5;}.cls-3,.cls-4{fill:#85acb0;}.cls-3{fill-rule:evenodd;}.cls-5{fill:none;}</style></defs><title>Payment logo</title><path class="cls-1" d="M76.67,37.33A20.46,20.46,0,0,0,64,41.72a21.44,21.44,0,0,1,0,33.65,20.46,20.46,0,0,0,12.67,4.38,21.21,21.21,0,0,0,0-42.42Z"/><path class="cls-2" d="M55.85,58.54A21.32,21.32,0,0,1,64,41.72a20.46,20.46,0,0,0-12.67-4.39,21.21,21.21,0,0,0,0,42.42A20.46,20.46,0,0,0,64,75.37,21.33,21.33,0,0,1,55.85,58.54Z"/><path class="cls-3" d="M42.56,90.42V86.87a2,2,0,0,0-2.11-2.23,2.09,2.09,0,0,0-1.92,1,2,2,0,0,0-1.81-1,1.85,1.85,0,0,0-1.65.83v-.69H34v5.64h1.11V87.19a1.33,1.33,0,0,1,1.38-1.5c.79,0,1.24.53,1.24,1.49v3.24h1.11V87.19a1.35,1.35,0,0,1,1.39-1.5c.81,0,1.25.53,1.25,1.49v3.24Zm17.85-5.64h-2V83.07H57.31v1.71H56.15v1h1.16v2.67c0,1.3.44,2.08,1.85,2.08a2.74,2.74,0,0,0,1.49-.43l-.34-1a2.11,2.11,0,0,1-1.06.32c-.59,0-.83-.37-.83-.94V85.81h2Zm10.16-.14a1.69,1.69,0,0,0-1.49.83v-.69H68v5.64h1.09V87.25c0-.93.44-1.54,1.22-1.54a1.81,1.81,0,0,1,.74.15l.37-1.07A2.63,2.63,0,0,0,70.57,84.64Zm-15.36.59A4,4,0,0,0,53,84.64c-1.38,0-2.23.67-2.23,1.79,0,.92.62,1.48,1.84,1.66l.57.08c.65.09,1,.33,1,.65s-.48.72-1.29.72A2.77,2.77,0,0,1,51,89l-.56.88a3.93,3.93,0,0,0,2.37.73c1.58,0,2.45-.75,2.45-1.83s-.66-1.49-1.87-1.67L52.87,87c-.51-.07-1-.24-1-.62s.43-.69,1.09-.69a3.47,3.47,0,0,1,1.7.48ZM71.82,87.6a3,3,0,0,0,4.85,2.29L76.1,89a2.38,2.38,0,0,1-1.44.5,1.92,1.92,0,0,1,0-3.82,2.39,2.39,0,0,1,1.44.51l.57-.89a2.85,2.85,0,0,0-2-.67A2.77,2.77,0,0,0,71.82,87.6Zm-7.7-3a2.69,2.69,0,0,0-2.7,3,2.73,2.73,0,0,0,2.78,3,3.27,3.27,0,0,0,2.25-.79l-.59-.83a2.58,2.58,0,0,1-1.59.59,1.62,1.62,0,0,1-1.68-1.47h4.09c0-.15,0-.3,0-.47C66.69,85.83,65.66,84.64,64.12,84.64Zm0,1a1.41,1.41,0,0,1,1.44,1.43h-3A1.48,1.48,0,0,1,64.1,85.69ZM49.27,87.6V84.78h-1.1v.69a2.12,2.12,0,0,0-1.77-.83,3,3,0,0,0,0,5.92,2.14,2.14,0,0,0,1.77-.82v.68h1.1Zm-4.43,0a1.7,1.7,0,1,1,1.71,1.91A1.74,1.74,0,0,1,44.84,87.6Zm42.28-3a1.67,1.67,0,0,0-1.49.83v-.69H84.54v5.64h1.1V87.25c0-.93.44-1.54,1.21-1.54a1.83,1.83,0,0,1,.75.15L88,84.79A2.68,2.68,0,0,0,87.12,84.64Zm-4.22,3V84.78H81.8v.69A2.13,2.13,0,0,0,80,84.64a3,3,0,0,0,0,5.92,2.15,2.15,0,0,0,1.77-.82v.68h1.1Zm-4.43,0a1.7,1.7,0,1,1,1.7,1.91A1.74,1.74,0,0,1,78.47,87.6ZM94,87.6V82.52h-1.1v3a2.15,2.15,0,0,0-1.78-.83,3,3,0,0,0,0,5.92,2.17,2.17,0,0,0,1.78-.82v.68H94Zm-4.44,0a1.75,1.75,0,0,1,1.71-1.91,1.93,1.93,0,0,1,0,3.82A1.75,1.75,0,0,1,89.52,87.6Z"/><ellipse class="cls-4" cx="64" cy="58.54" rx="8.15" ry="16.83"/><rect class="cls-5" width="128" height="128"/></svg>