<svg role="img" xmlns="http://www.w3.org/2000/svg" width="96" height="96" viewBox="0 0 96 96" aria-labelledby="mastercard-icon-title">
    <title id='mastercard-icon-title'>Mastercard</title>
    <g fill="none" fill-rule="evenodd">
        <path d="M0 0h96v96H0z"/>
        <ellipse cx="48" cy="43.905" fill="#85ACB0" fill-rule="nonzero" rx="6.112" ry="12.623"/>
        <path fill="#BCCDCE" fill-rule="nonzero" d="M57.502 27.997A15.345 15.345 0 0 0 48 31.29a16.08 16.08 0 0 1 0 25.238 15.345 15.345 0 0 0 9.502 3.285c8.786 0 15.908-7.123 15.908-15.908s-7.122-15.908-15.907-15.908z"/>
        <path fill="#C7E5E5" fill-rule="nonzero" d="M41.888 43.905A15.99 15.99 0 0 1 48 31.29a15.345 15.345 0 0 0-9.502-3.293c-8.786 0-15.908 7.123-15.908 15.908s7.122 15.908 15.908 15.908A15.345 15.345 0 0 0 48 56.528a15.997 15.997 0 0 1-6.112-12.623z"/>
        <path fill="#85ACB0" d="M31.92 67.815v-2.662a1.5 1.5 0 0 0-1.583-1.673 1.567 1.567 0 0 0-1.44.75 1.5 1.5 0 0 0-1.357-.75 1.388 1.388 0 0 0-1.238.623v-.518H25.5v4.23h.832v-2.422a.998.998 0 0 1 1.035-1.126c.593 0 .93.398.93 1.118v2.43h.833v-2.422a1.012 1.012 0 0 1 1.043-1.126c.607 0 .937.398.937 1.118v2.43h.81zm13.387-4.23h-1.5v-1.282h-.825v1.282h-.87v.75h.87v2.003c0 .975.33 1.56 1.388 1.56.396.002.784-.11 1.117-.323l-.255-.75c-.238.15-.513.232-.794.24-.443 0-.623-.278-.623-.705v-2.002h1.5l-.008-.773zm7.62-.105a1.268 1.268 0 0 0-1.117.623v-.518H51v4.23h.818v-2.377c0-.698.33-1.156.915-1.156.19-.001.38.037.555.113l.277-.802a1.973 1.973 0 0 0-.637-.113zm-11.52.443a3 3 0 0 0-1.657-.443c-1.035 0-1.672.503-1.672 1.343 0 .69.464 1.11 1.38 1.245l.427.06c.488.067.75.247.75.487s-.36.54-.968.54a2.078 2.078 0 0 1-1.417-.405l-.42.66c.518.37 1.141.562 1.778.547 1.184 0 1.837-.562 1.837-1.372s-.495-1.117-1.403-1.252l-.39-.083c-.382-.052-.75-.18-.75-.465 0-.285.323-.517.818-.517.449.008.888.132 1.275.36l.413-.706zM53.865 65.7a2.25 2.25 0 0 0 3.637 1.718l-.427-.668c-.31.24-.689.372-1.08.375a1.44 1.44 0 0 1 0-2.865c.392.006.772.14 1.08.382l.427-.667a2.138 2.138 0 0 0-1.5-.503 2.078 2.078 0 0 0-2.137 2.228zm-7.296-1.582a2.018 2.018 0 0 0-.504 1.582 2.048 2.048 0 0 0 2.085 2.25c.617.022 1.22-.19 1.688-.593l-.443-.622a1.935 1.935 0 0 1-1.193.442 1.215 1.215 0 0 1-1.26-1.102h3.068v-.353c.008-1.35-.765-2.272-1.92-2.272a2.018 2.018 0 0 0-1.52.668zm2.289.389c.203.202.316.478.312.765h-2.25a1.11 1.11 0 0 1 1.155-1.005c.287-.006.58.038.783.24zM36.953 65.7v-2.115h-.826v.518c-.314-.412-.81-.327-1.327-.305-.741 0-1.884.8-1.884 1.902a2.25 2.25 0 0 0 1.884 2.22c.516.02 1.01-.209 1.328-.615v.51h.825V65.7zm-3.323 0a1.275 1.275 0 1 1 1.282 1.432A1.305 1.305 0 0 1 33.63 65.7zm31.71-2.25a1.252 1.252 0 0 0-1.118.623v-.518h-.817v4.23h.825v-2.347c0-.698.33-1.156.907-1.156.194-.002.386.036.563.113l.3-.802a2.01 2.01 0 0 0-.66-.113v-.03zm-3.165 2.25v-2.115h-.825v.518c-.32-.417-.825-.371-1.35-.344-1.097 0-1.884.84-1.884 1.941A2.25 2.25 0 0 0 60 67.92c.515.02 1.009-.21 1.328-.615v.51h.825l.022-2.115zm-3.322 0a1.275 1.275 0 1 1 1.274 1.432 1.305 1.305 0 0 1-1.275-1.432zm11.647 0v-3.81h-.825v2.25a1.613 1.613 0 0 0-1.335-.623 2.25 2.25 0 0 0 0 4.44c.518.02 1.013-.209 1.335-.614v.51h.825V65.7zm-3.33 0a1.313 1.313 0 0 1 1.282-1.433 1.448 1.448 0 0 1 0 2.866A1.313 1.313 0 0 1 67.14 65.7h.03z"/>
    </g>
</svg>
