<svg role="img" width='96' height='96' xmlns="http://www.w3.org/2000/svg" xmlns:xlink="http://www.w3.org/1999/xlink" viewBox="0 0 128 128" aria-labelledby='paytrust-icon-title'><defs><style>.cls-1{fill:#85acb0;}.cls-2{fill:url(#linear-gradient);}.cls-3{fill:none;}</style><linearGradient id="linear-gradient" x1="58.23" y1="61.64" x2="85.64" y2="61.64" gradientUnits="userSpaceOnUse"><stop offset="0" stop-color="#85acb0"/><stop offset="0.37" stop-color="#85acb0"/><stop offset="1" stop-color="#fff"/></linearGradient></defs><title id='paytrust-icon-title'>Paytrust</title><path class="cls-1" d="M8.87,71H5V52h7.74a7.3,7.3,0,0,1,2,.28,7.73,7.73,0,0,1,3.41,2,7.47,7.47,0,0,1,1.21,1.54,7.78,7.78,0,0,1,.79,1.82,7.58,7.58,0,0,1-.33,5A7.84,7.84,0,0,1,18.21,65a7.94,7.94,0,0,1-2.46,1.63,7.59,7.59,0,0,1-3,.6H8.87Zm0-15.2v7.6h3.87a3.78,3.78,0,0,0,1.5-.29,3.84,3.84,0,0,0,1.23-.82,3.78,3.78,0,0,0,.83-1.21,3.8,3.8,0,0,0,0-3A3.78,3.78,0,0,0,15.47,57a4,4,0,0,0-1.23-.81,3.79,3.79,0,0,0-1.5-.3Z"/><path class="cls-1" d="M35.91,71H35l-1.43-2a11.82,11.82,0,0,1-1.11.87,8.3,8.3,0,0,1-1.23.7,7,7,0,0,1-1.33.47,5.32,5.32,0,0,1-1.38.17,8,8,0,0,1-2.86-.5,6.9,6.9,0,0,1-2.34-1.46A7,7,0,0,1,21.76,67a8.24,8.24,0,0,1-.58-3.16,8,8,0,0,1,.58-3,7.24,7.24,0,0,1,1.58-2.37,7.14,7.14,0,0,1,2.34-1.55,7.43,7.43,0,0,1,2.86-.55,5.94,5.94,0,0,1,1.39.17,7.82,7.82,0,0,1,1.33.48,7.6,7.6,0,0,1,1.23.72,10.6,10.6,0,0,1,1.1.88L35,56.87h.89ZM32.2,63.82a3.73,3.73,0,0,0-.28-1.44,4.12,4.12,0,0,0-.79-1.23A3.89,3.89,0,0,0,30,60.28,3.25,3.25,0,0,0,28.54,60a4,4,0,0,0-1.42.25A3.3,3.3,0,0,0,26,61a3.46,3.46,0,0,0-.78,1.22,4.67,4.67,0,0,0-.28,1.65,4.76,4.76,0,0,0,.28,1.65A3.51,3.51,0,0,0,26,66.68a3.16,3.16,0,0,0,1.15.74,4,4,0,0,0,1.42.25A3.25,3.25,0,0,0,30,67.35a4,4,0,0,0,1.17-.86,4.3,4.3,0,0,0,.79-1.24A3.72,3.72,0,0,0,32.2,63.82Z"/><path class="cls-1" d="M40.65,76.83V73.11l2.1,0A3.15,3.15,0,0,0,43.81,73a3.54,3.54,0,0,0,.95-.48,3.86,3.86,0,0,0,.77-.74,3.9,3.9,0,0,0,.54-.93l-1.27.52a3.44,3.44,0,0,1-1.29.25,6.86,6.86,0,0,1-2.57-.47,6.28,6.28,0,0,1-2.11-1.34,6.18,6.18,0,0,1-1.42-2.12,7.22,7.22,0,0,1-.52-2.81v-8h3.76v8a3.7,3.7,0,0,0,.23,1.35,2.77,2.77,0,0,0,.61,1,2.46,2.46,0,0,0,.91.57,3.08,3.08,0,0,0,1.11.19,2.47,2.47,0,0,0,1.1-.26,3.12,3.12,0,0,0,.91-.7,3.27,3.27,0,0,0,.6-1,2.93,2.93,0,0,0,.23-1.13v-8h3.8V69.49a7.05,7.05,0,0,1-.61,2.86,7.41,7.41,0,0,1-1.63,2.34,7.58,7.58,0,0,1-5.33,2.16Z"/><path class="cls-1" d="M57.8,71H54V55.84H46.34V52H77.52l-8,3.81H57.8Z"/><path class="cls-1" d="M109.49,60.48c-1.64-1-1.29-3.61-1.29-3.61h-6.32V51.15H98.2v5.72H89.11a4.49,4.49,0,0,0-1.76.35,4.61,4.61,0,0,0-1.43,1,4.43,4.43,0,0,0-1,1.44,4.6,4.6,0,0,0,0,3.52,4.5,4.5,0,0,0,2.39,2.41,4.33,4.33,0,0,0,1.76.36h3.77a1.54,1.54,0,0,1,.63.12.49.49,0,0,1,.27.5.87.87,0,0,1-.27.64.85.85,0,0,1-.63.26h-9V56.84H80.15v7.85a3,3,0,0,1-.22,1.11,3.38,3.38,0,0,1-.6,1,3,3,0,0,1-.89.68,2.39,2.39,0,0,1-1.08.26,3.07,3.07,0,0,1-1.1-.2,2.64,2.64,0,0,1-.89-.58,2.86,2.86,0,0,1-.6-1,3.44,3.44,0,0,1-.23-1.28V59.42S71.08,61.9,70.84,63v1.65a7.28,7.28,0,0,0,.51,2.75,6,6,0,0,0,1.41,2.08,6.21,6.21,0,0,0,2.07,1.32,6.85,6.85,0,0,0,2.53.46,4.81,4.81,0,0,0,1.2-.15,6.55,6.55,0,0,0,1.15-.41,7.56,7.56,0,0,0,1.07-.61,8.82,8.82,0,0,0,1-.75L83,71h9.92a4.52,4.52,0,0,0,1.75-.35,4.7,4.7,0,0,0,1.43-1,4.85,4.85,0,0,0,1-1.43,4.33,4.33,0,0,0,.36-1.76A4,4,0,0,0,97,64.82a4.32,4.32,0,0,0-1-1.34,4.4,4.4,0,0,0-1.43-.86,4.89,4.89,0,0,0-1.75-.32H89.11a.8.8,0,0,1-.63-.27.89.89,0,0,1-.27-.65.87.87,0,0,1,.27-.64.82.82,0,0,1,.63-.26H98.2v4.24a6,6,0,0,0,.51,2.46,6.49,6.49,0,0,0,1.39,2,6.65,6.65,0,0,0,2.07,1.36,6.39,6.39,0,0,0,2.51.5h2.8V67.46h-2.8a2.66,2.66,0,0,1-1.09-.22,2.76,2.76,0,0,1-.9-.59,2.74,2.74,0,0,1-.81-1.93V60.48Z"/><path class="cls-1" d="M115.61,57.91a2.28,2.28,0,0,1-.28,1.13,2.79,2.79,0,0,1-.74.9,3.68,3.68,0,0,1-1.11.59,4.24,4.24,0,0,1-1.35.21,4.3,4.3,0,0,1-1.36-.21,3.51,3.51,0,0,1-1.1-.59,2.7,2.7,0,0,1-.75-.9,2.39,2.39,0,0,1-.28-1.13,2.68,2.68,0,0,1,.1-.69,2.42,2.42,0,0,1,.27-.64,2.79,2.79,0,0,1,.42-.54,2.61,2.61,0,0,1,.56-.43,2.5,2.5,0,0,1-.34-.39,3.1,3.1,0,0,1-.26-.47,2.54,2.54,0,0,1-.17-.51,2.35,2.35,0,0,1,0-.52,2.13,2.13,0,0,1,.23-1,2.77,2.77,0,0,1,.63-.82,3.07,3.07,0,0,1,1-.55,3.13,3.13,0,0,1,1.15-.2,3.23,3.23,0,0,1,2.1.75,2.61,2.61,0,0,1,.63.82,2.14,2.14,0,0,1,.24,1,2.37,2.37,0,0,1-.06.52,3.39,3.39,0,0,1-.17.51,2.64,2.64,0,0,1-.25.47,2.23,2.23,0,0,1-.35.4,2.58,2.58,0,0,1,.55.42,2.82,2.82,0,0,1,.43.55,2.89,2.89,0,0,1,.26.63A2.3,2.3,0,0,1,115.61,57.91Zm-1.77,0a1.26,1.26,0,0,0-.14-.57,1.4,1.4,0,0,0-.36-.45,1.57,1.57,0,0,0-.55-.31,1.9,1.9,0,0,0-1.33,0,1.68,1.68,0,0,0-.91.76,1.25,1.25,0,0,0-.13.57,1.18,1.18,0,0,0,.13.56,1.27,1.27,0,0,0,.37.43,1.56,1.56,0,0,0,.54.29,2.07,2.07,0,0,0,1.33,0,1.7,1.7,0,0,0,.55-.29,1.24,1.24,0,0,0,.36-.43A1.19,1.19,0,0,0,113.84,57.86Zm-.49-4a1,1,0,0,0-.09-.41,1.23,1.23,0,0,0-.26-.34,1.26,1.26,0,0,0-.39-.23,1.45,1.45,0,0,0-1,0,1.26,1.26,0,0,0-.39.23,1.23,1.23,0,0,0-.26.34,1,1,0,0,0-.09.41.91.91,0,0,0,.09.41,1.06,1.06,0,0,0,.26.33,1.07,1.07,0,0,0,.39.22,1.28,1.28,0,0,0,.48.09,1.27,1.27,0,0,0,.47-.09,1.07,1.07,0,0,0,.39-.22,1.06,1.06,0,0,0,.26-.33A.91.91,0,0,0,113.35,53.91Z"/><path class="cls-1" d="M123,57.91a2.39,2.39,0,0,1-.27,1.13,2.7,2.7,0,0,1-.75.9,3.68,3.68,0,0,1-1.11.59,4.44,4.44,0,0,1-2.7,0,3.57,3.57,0,0,1-1.11-.59,2.7,2.7,0,0,1-.75-.9,2.39,2.39,0,0,1-.27-1.13,2.67,2.67,0,0,1,.09-.69,2.42,2.42,0,0,1,.27-.64,2.49,2.49,0,0,1,.43-.54,2.55,2.55,0,0,1,.55-.43,3.17,3.17,0,0,1-.34-.39,3.1,3.1,0,0,1-.26-.47,2.5,2.5,0,0,1-.16-.51,2.37,2.37,0,0,1-.06-.52,2.26,2.26,0,0,1,.23-1,2.8,2.8,0,0,1,.64-.82,3,3,0,0,1,.94-.55,3.41,3.41,0,0,1,2.3,0,3.07,3.07,0,0,1,1,.55,2.8,2.8,0,0,1,.64.82,2.26,2.26,0,0,1,.23,1,2.37,2.37,0,0,1-.06.52,3.33,3.33,0,0,1-.16.51,2.68,2.68,0,0,1-.26.47,2.66,2.66,0,0,1-.34.4,2.6,2.6,0,0,1,1,1,2.5,2.5,0,0,1,.27.63A2.67,2.67,0,0,1,123,57.91Zm-1.77,0a1.25,1.25,0,0,0-.13-.57,1.68,1.68,0,0,0-.91-.76,1.85,1.85,0,0,0-.67-.12,1.76,1.76,0,0,0-.66.12,1.59,1.59,0,0,0-.91.76,1.26,1.26,0,0,0-.14.57,1.19,1.19,0,0,0,.14.56,1.36,1.36,0,0,0,.36.43,1.7,1.7,0,0,0,.55.29,2,2,0,0,0,.66.11,2.09,2.09,0,0,0,.67-.11,1.56,1.56,0,0,0,.54-.29,1.27,1.27,0,0,0,.37-.43A1.18,1.18,0,0,0,121.23,57.86Zm-.48-4a.83.83,0,0,0-.1-.41,1.06,1.06,0,0,0-.26-.34,1.26,1.26,0,0,0-.39-.23,1.45,1.45,0,0,0-.47-.08,1.51,1.51,0,0,0-.48.08,1.21,1.21,0,0,0-.38.23,1.06,1.06,0,0,0-.26.34.83.83,0,0,0-.1.41.8.8,0,0,0,.1.41.93.93,0,0,0,.26.33,1,1,0,0,0,.38.22,1.28,1.28,0,0,0,.48.09,1.23,1.23,0,0,0,.47-.09,1.07,1.07,0,0,0,.39-.22.93.93,0,0,0,.26-.33A.8.8,0,0,0,120.75,53.91Z"/><path class="cls-2" d="M58.26,58.12c.92,1.06,5.22,6.25,6.59,12.55a.1.1,0,0,0,.2,0c.85-2.29,6.25-15.21,20.49-17.9a.11.11,0,0,0,0-.21c-2.67-.24-12.5-.39-20.61,9.52-.08.1-.19.1-.25,0a7.87,7.87,0,0,0-6.34-4.16A.12.12,0,0,0,58.26,58.12Z"/><rect class="cls-3" width="128" height="128"/></svg>
