<svg xmlns="http://www.w3.org/2000/svg" width="73" height="72" viewBox="0 0 73 72">
    <g fill="none">
        <path fill="#B3D234" d="M5.854 2.608c.403-.46.77-.851 1.121-1.18C1.047 1.237 2.773 5.555.841 9.944c-2.224 5.054.262 6.98 3.967 7.58-.514-.61-.933-1.31-1.252-2.063-2.402-3.048-1.435-8.6 2.298-12.852" transform="translate(2.25 25.875)"/>
        <path fill="#0095D9" d="M20.119 7.991c-.552 1.566-1.564 3.322-2.995 5.051-1.116 1.348-2.356 2.408-3.636 3.177-1.48.966-3.315 1.536-5.368 1.536-1.148 0-2.278-.065-3.313-.232.612.726 1.355 1.33 2.219 1.75 5.36 2.612 5.698-2.24 11.368-4.702 3.184-1.382 3.196-4.085 1.725-6.58" transform="translate(2.25 25.875)"/>
        <path fill="#EEE809" d="M13.486 2.942c.79.145 1.54.407 2.212.79 1.8 1.026 3.44 2.596 4.42 4.26.966-2.741.516-4.896-1.596-5.286-2.322-.428-4.137-.565-5.881-1.792C10.492-.598 8.609-.1 6.975 1.429c.115.003.233.009.354.016 2.267.134 4.431.58 6.157 1.497" transform="translate(2.25 25.875)"/>
        <path fill="#51B849" d="M5.854 2.608c-3.733 4.253-4.7 9.804-2.298 12.852-1.079-2.551-1.004-5.733.516-8.273 2.024-3.383 6.083-4.857 9.414-4.244-1.726-.92-3.89-1.363-6.156-1.499-.122-.007-.24-.011-.355-.015-.35.328-.718.72-1.12 1.179" transform="translate(2.25 25.875)"/>
        <path fill="#00845D" d="M15.698 3.732c-.671-.383-1.421-.644-2.212-.79 2.273 1.21 3.786 3.241 3.769 6.477-.016 2.808-1.455 5.29-3.767 6.8 1.28-.768 2.52-1.83 3.635-3.177 1.432-1.728 2.444-3.485 2.995-5.05-.98-1.664-2.62-3.234-4.42-4.26" transform="translate(2.25 25.875)"/>
        <path fill="#005121" d="M13.112 14.68c-2.566 1.662-5.988.92-7.643-1.655-1.656-2.577-.837-5.894 1.648-7.675 2.78-1.991 6.345-1.206 7.644 1.656 1.267 2.79.917 6.013-1.649 7.674m.374-11.738c-3.331-.612-7.39.862-9.414 4.244-1.52 2.54-1.595 5.723-.516 8.273.319.754.737 1.454 1.252 2.064 1.034.168 2.164.232 3.312.232 2.053 0 3.888-.57 5.368-1.536 2.312-1.51 3.752-3.992 3.766-6.8.018-3.236-1.495-5.268-3.768-6.477" transform="translate(2.25 25.875)"/>
        <path fill="#778F9B" d="M55.922 7.297c-.58 0-1.137.155-1.657.46-.52.305-.932.72-1.224 1.237-.292.516-.44 1.1-.44 1.738 0 .954.319 1.735.973 2.392.655.655 1.424.974 2.348.974.61 0 1.182-.15 1.7-.449.518-.296.927-.708 1.217-1.223.29-.517.437-1.1.437-1.734 0-.63-.147-1.205-.437-1.712-.29-.506-.703-.918-1.231-1.223-.528-.305-1.095-.46-1.686-.46m.03 8.022c-1.286 0-2.389-.451-3.276-1.34-.887-.89-1.337-1.981-1.337-3.244 0-.84.205-1.63.609-2.348.404-.719.962-1.29 1.66-1.697.699-.407 1.465-.613 2.277-.613 1.313 0 2.43.448 3.316 1.334.887.886 1.338 1.99 1.338 3.284 0 1.281-.45 2.384-1.334 3.278-.886.893-1.98 1.346-3.252 1.346zm8.908 0c-.544 0-1.045-.149-1.489-.442-.438-.29-.844-.775-1.207-1.442-.051-.095-.02-.213.072-.27l.71-.428c.098-.06.224-.025.278.076.46.853.984 1.286 1.557 1.286.245 0 .48-.06.695-.175.215-.115.373-.263.484-.453.111-.191.165-.389.165-.602 0-.242-.08-.475-.247-.714-.248-.355-.715-.794-1.388-1.305-.719-.547-1.158-.938-1.341-1.193-.319-.428-.482-.902-.482-1.406 0-.4.098-.77.289-1.102.191-.332.465-.597.812-.788.344-.188.723-.285 1.126-.285.427 0 .832.108 1.203.321.371.213.747.586 1.15 1.141.064.088.046.212-.04.278l-.682.522c-.088.067-.213.05-.28-.04-.297-.397-.548-.658-.747-.778-.191-.115-.394-.171-.62-.171-.287 0-.512.082-.689.253-.174.168-.26.37-.26.615 0 .154.034.306.097.45.065.15.191.317.373.5.069.067.31.266 1.057.823.75.557 1.252 1.044 1.536 1.488.289.451.435.913.435 1.374 0 .664-.252 1.248-.75 1.735-.496.486-1.107.732-1.817.732zm-15.49-.212h-1.023c-.056 0-.106-.034-.127-.086l-1.297-3.14c-.033-.08-.146-.08-.178 0l-1.301 3.14c-.022.052-.072.086-.128.086h-1.024c-.1 0-.165-.104-.123-.195l1.867-4.177c.05-.11.05-.238 0-.347l-1.682-3.799c-.065-.14.038-.3.192-.3h.861c.083 0 .158.05.189.128l1.15 2.803c.033.087.154.087.188 0l1.157-2.805c.03-.077.103-.127.185-.127h.871c.146 0 .243.153.182.286l-1.693 3.808c-.05.11-.05.238 0 .349l1.858 4.181c.042.091-.024.195-.124.195zm-22.017-8.58c0-.131.106-.239.237-.239h3.013c1.483 0 2.684 1.212 2.684 2.706v.073c0 1.512-1.216 2.737-2.716 2.737h-1.834c-.087 0-.158.072-.158.16v2.904c0 .132-.106.24-.237.24h-.752c-.131 0-.237-.108-.237-.24v-8.34zm1.226 3.882c0 .088.07.16.158.16h1.996c.734 0 1.329-.6 1.329-1.339v-.343c0-.753-.606-1.363-1.354-1.363h-1.971c-.087 0-.158.071-.158.16v2.725zm12.725 4.698c-.085 0-.162-.05-.198-.126l-.66-1.413c-.037-.077-.114-.126-.199-.126h-4.121c-.085 0-.162.049-.198.126l-.664 1.413c-.037.077-.113.126-.198.126h-.888c-.16 0-.267-.168-.198-.315l3.927-8.378c.037-.076.113-.126.198-.126h.18c.086 0 .163.05.199.128l3.876 8.378c.068.145-.038.313-.198.313h-.858zm-4.67-3.04c-.04.082.02.177.111.177h2.872c.097 0 .162-.102.12-.19l-1.42-3.035c-.05-.108-.202-.108-.252 0l-1.432 3.047z" transform="translate(2.25 25.875)"/>
    </g>
</svg>
