<svg xmlns="http://www.w3.org/2000/svg" width="72" height="72" viewBox="0 0 72 72">
    <path fill="#8DC640" fill-rule="evenodd" d="M67.972 31.213c-.843-.562-2.126-.86-3.802-.86h-4.393l-1.637 8.73h-5.754l.365-1.958h3.499l.41-2.222h-3.492l.37-1.974h3.573l.478-2.56h-7.256l-1.553 8.27h-2.655l1.558-8.264h-3.808l-1.536 8.263h-2.593l1.564-8.263h-3.791l-1.637 8.713h-5.8l.366-1.963h3.482l.41-2.25h-3.476l.372-1.98h3.639l.444-2.52H12.712l-1.288 6.919-2.559-6.919H4.927l-2.114 11.25H6.57l1.305-7.088 2.464 7.088h13.466l1.637-8.736h2.12l-1.653 8.736h35.437l1.03-5.513 1.687 5.513h3.763l-1.721-4.5.388-.084c.79-.136 1.506-.55 2.02-1.165.472-.656.71-1.453.674-2.261.057-.96-.407-1.878-1.215-2.402zm-47.44 7.875h-5.75l.372-1.963h3.605l.411-2.25h-3.572l.343-1.963h5.743l-1.153 6.176zm44.341-3.802c-.51.296-1.099.431-1.687.388h-.748L63 32.642h.563c.481-.03.962.072 1.389.298.365.224.58.629.562 1.058.026.51-.217.997-.64 1.282v.006z"/>
</svg>
