<svg xmlns="http://www.w3.org/2000/svg" width="72" height="72"><g fill="none" transform="translate(2.813 23.063)"><path fill="#474747" d="M42.064 8.533c.21 0 .419.023.624.068a5.6 5.6 0 01.624.174h2.408v.742h-1.614v.046c.176.202.315.435.41.686.082.25.123.512.124.776a2.188 2.188 0 01-.731 1.688 2.415 2.415 0 01-1.688.68s-.787 0-.843.14c0 0-.737.642 0 .98.316.137.652.225.995.258l.112.007c.159.011.355.033.58.033h.146c.355.045.602.045.754.045.223.013.44.07.641.168.21.107.4.247.563.417.183.19.332.41.439.652.116.284.174.588.168.895A2.44 2.44 0 0145.562 18a2.245 2.245 0 01-.674.832c-.34.253-.72.443-1.125.563a5.634 5.634 0 01-1.598.197 4.333 4.333 0 01-2.323-.5 1.603 1.603 0 01-.77-1.452 1.482 1.482 0 01.562-1.215 2.388 2.388 0 011.417-.49v-.1a5.666 5.666 0 01-.427-.175 1.607 1.607 0 01-.383-.236 1.193 1.193 0 01-.292-.377 1.164 1.164 0 01-.113-.563c.003-.267.094-.526.259-.736.215-.247.485-.44.788-.563v-.113a2.806 2.806 0 01-1.03-.877 2.11 2.11 0 01-.371-1.238 2.287 2.287 0 01.726-1.743 2.591 2.591 0 011.856-.68zm.371 7.78c-.703-.04-1.373.298-1.373 1.125.002.127.03.253.08.37a.904.904 0 00.258.344c.135.111.292.194.461.242.23.07.47.102.709.095.4.019.796-.096 1.125-.326.273-.242.434-.586.444-.95a.807.807 0 00-.287-.687 1.231 1.231 0 00-.658-.163c-.253-.05-.506-.05-.759-.05zM28.705 6.26v1.98l-3.016 6.575h3.072v1.682h-5.625v-.731l3.673-7.498h-3.572V6.26h5.467zm3.2 2.666v7.571h-2.036v-7.57h2.036zm4.883-.394a2.03 2.03 0 011.777.821.802.802 0 01.05.102 3.21 3.21 0 01.248 1.563v5.48h-2.182v-5.165c.005-.343.01-.9-.36-1.068a.826.826 0 00-.428-.062.778.778 0 00-.354.107c-.343.219-.343.82-.343 1.187v5h-2.183V8.646h2.183v.45a2.42 2.42 0 011.592-.563zm5.225.821a.67.67 0 00-.388.113.797.797 0 00-.264.32 1.625 1.625 0 00-.135.462 3.63 3.63 0 00-.04.551 2.13 2.13 0 00.23 1.046c.11.239.341.397.603.41a.689.689 0 00.635-.404c.162-.314.24-.665.225-1.018a2.206 2.206 0 00-.225-1.08.708.708 0 00-.64-.4zm-11.11-3.56a.94.94 0 01.698.315l.08.095c.149.199.228.442.224.692.006.297-.105.584-.31.799a.927.927 0 01-.714.31.94.94 0 01-.697-.316c-.4-.453-.4-1.133 0-1.586l.1-.09c.176-.139.393-.216.62-.22z"/><path fill="#72C579" d="M66.01 8.764L63.145 17.2l-.197.563-.079.195c-.103.25-.196.462-.286.637a4.27 4.27 0 01-.473.709l-.134.144a1.956 1.956 0 01-.659.418c-.337.13-.696.193-1.057.186-.258 0-.516-.018-.771-.056h-.203v-1.434l.282.045c.169.026.34.038.512.033.296.022.59-.066.826-.247.228-.227.386-.514.456-.827l.101-.355-2.93-8.403h2.284l1.485 5.743 1.485-5.743h1.89l.331-.045zm-10.407-.079c.723-.03 1.431.21 1.986.675.561.543.852 1.308.793 2.087v5.512h-1.508v-.562c-.143.15-.308.28-.489.382-.4.224-.853.336-1.31.327-.346 0-.688-.066-1.008-.197a2.252 2.252 0 01-.798-.563 2.412 2.412 0 01-.512-.815l-.068-.206a2.986 2.986 0 01-.118-.852 2.63 2.63 0 01.304-1.277c.216-.372.54-.67.928-.855.445-.22.938-.326 1.434-.31h1.62v-.562a1.223 1.223 0 00-.32-.956 1.379 1.379 0 00-.962-.304 1.56 1.56 0 00-.827.192c-.2.129-.34.33-.394.562l-.05.175H52.84v-.26c.024-.642.333-1.24.844-1.63a3.124 3.124 0 011.918-.563zM49 6.784a3.549 3.549 0 012.481.742l.138.163c.482.613.716 1.39.65 2.172a3.83 3.83 0 01-.389 1.828 2.376 2.376 0 01-1.209 1.085l-.32.094a6.062 6.062 0 01-1.643.199v3.769h-2.149V6.784zm7.707 6.716l-1.25.017a.786.786 0 00-.685.281 1.29 1.29 0 00-.209.77c-.024.314.07.625.265.873l.079.079c.166.148.382.23.607.23.342 0 .661-.169.855-.45.237-.326.356-.723.338-1.125V13.5zm-7.858-5.07l-.141.008v2.953c.362.026.723-.064 1.03-.26.261-.312.38-.72.325-1.124a1.808 1.808 0 00-.331-1.215 1.277 1.277 0 00-1.024-.354z"/><path fill="#A8E2C1" d="M10.991 19.03c.01.027.02.053.034.078.053.124.123.24.208.343.072.1.153.192.242.276.18.168.383.31.602.422.124.059.252.11.382.152a2.648 2.648 0 011.041-.22c.218.002.435.03.647.085a2.307 2.307 0 001.192-2.25 2.193 2.193 0 00-1.687-2.25c-.15.02-.3.03-.45.033-.996 0-2.329-.399-2.813-1.378-.298-.63 0-1.333-.151-1.985a2.442 2.442 0 00-.945-1.367c-.412-.3-.909-.46-1.418-.456a2.215 2.215 0 00-1.688 3.746c.42.46 1 .74 1.62.782h.299a3.126 3.126 0 012.936 3.977l-.05.011z"/><path fill="#93D9E5" d="M5.063 18.692a3.235 3.235 0 01-.045-.428v-.101a3.086 3.086 0 011.518-2.666h.028a3.065 3.065 0 011.497-.394c.264 0 .287-.157.534-.095a2.448 2.448 0 001.688-2.093 2.25 2.25 0 00-2.442-2.301 2.397 2.397 0 00-2.295 2.487 2.767 2.767 0 01-1.204 2.525c-.849.456-1.833.124-2.654.687a2.39 2.39 0 103.498 2.885 3.246 3.246 0 01-.123-.506z"/><path fill="#A8E2C1" d="M18.602 20.891c-.6.046-1.2-.083-1.727-.371a2.487 2.487 0 01-1.024-.934 2.985 2.985 0 01-.49-1.648c.001-.339.059-.675.17-.995a2.352 2.352 0 00-4.416 1.209 2.25 2.25 0 001.339 2.098c.27-.101.555-.16.843-.174a2.654 2.654 0 012.813 2.34c.13.68 0 1.4.383 2.047a2.413 2.413 0 002.08 1.204 2.395 2.395 0 000-4.787l.029.011z"/><path fill="#93D9E5" d="M7.875 10.35a3.444 3.444 0 01-1.856-.326c-.4-.235-.73-.573-.957-.979a2.061 2.061 0 01-.185-.607 3.575 3.575 0 010-1.581A2.39 2.39 0 102.7 10.08a2.883 2.883 0 011.654.4c.35.206.642.498.85.849.494.843.134 1.727.64 2.565a2.407 2.407 0 004.472-1.192 2.397 2.397 0 00-2.441-2.352z"/><path fill="#93D9E5" d="M7.695.062a2.367 2.367 0 00-2.25 1.85c-.096.507-.084 1.03-.174 1.536a2.768 2.768 0 01-.49 1.187 1.74 1.74 0 01-1.063.68c-.374.03-.75.03-1.125 0a2.391 2.391 0 00-.703 4.664 2.47 2.47 0 002.863-1.125.87.87 0 00.101-.287 1.34 1.34 0 000-.4 3.25 3.25 0 01.197-1.76c.235-.56.673-1.01 1.226-1.26.726-.31 1.57-.18 2.318-.445a2.4 2.4 0 001.53-2.137A2.38 2.38 0 007.688.061h.006z"/><path fill="#A8E2C1" d="M18.456 10.412a2.397 2.397 0 00-2.335 2.452c.038.579-.1 1.155-.393 1.654a2.559 2.559 0 01-.85.85c-.85.495-1.834.163-2.672.669a2.44 2.44 0 00.293 4.241c.318-.13.658-.196 1.001-.197.32 0 .636.06.934.175.484-.23.88-.614 1.125-1.092a3.104 3.104 0 01-.23-1.18 2.894 2.894 0 011.917-2.813c.213-.075.438-.111.664-.107H18a3.14 3.14 0 001.727-.197 2.417 2.417 0 001.192-2.126 2.396 2.396 0 00-2.463-2.329z"/><path fill="#81D9B9" d="M15.373 17.927c0-.371.069-.74.203-1.086a2.42 2.42 0 00-3.33-.754 2 2 0 00-.332.254 2.38 2.38 0 00-.512.663 2.385 2.385 0 00-.169.388 2.83 2.83 0 00-.09.428c0 .203 0 .41-.034.613a2.304 2.304 0 01-.028.287 2.27 2.27 0 01-.056.27 3.894 3.894 0 01-.399.844 2.816 2.816 0 01-2.554 1.395 4.085 4.085 0 01-.456-.04 2.17 2.17 0 00-.472.197 2.43 2.43 0 00-1.17 2.127 2.425 2.425 0 104.848-.119c-.034-.46.023-.923.17-1.36a2.61 2.61 0 012.542-1.947 2.7 2.7 0 011.052.214 2.434 2.434 0 001.085-1.058c-.198-.41-.3-.86-.298-1.316z"/><ellipse cx="13.236" cy="17.893" fill="#81D9B9" rx="2.126" ry="2.188"/><path fill="#93D9E5" d="M9 21.116a3.173 3.173 0 01-.844.118h-.112a3.07 3.07 0 01-3.049-3.082v-.383c.006-.08.017-.158.034-.236.016-.1.039-.2.067-.298a2.446 2.446 0 00-2.2-1.254 2.395 2.395 0 10.119 4.786 2.97 2.97 0 011.687.394c.372.193.689.475.923.822.506.849.169 1.833.686 2.671a2.465 2.465 0 002.149 1.125 2.379 2.379 0 00.562-4.691L9 21.116z"/><path fill="#81D9B9" d="M10.822 23.36A2.396 2.396 0 009 21.11h-.068c-.073 0-.151.034-.225.051h-.663a3.477 3.477 0 01-.433-.034c-.164.044-.32.108-.467.192a2.43 2.43 0 00-1.17 2.126 2.298 2.298 0 001.069 1.901l.095.062c.114.07.234.129.36.174h.056c.119.04.237.068.355.096h.107c.142.014.285.014.427 0a2.414 2.414 0 002.38-2.317z"/><ellipse cx="7.914" cy="12.701" fill="#81D9B9" rx="2.391" ry="2.351"/></g></svg>