<svg xmlns="http://www.w3.org/2000/svg" width="128" height="128" viewBox="0 0 128 128">
    <g fill="none" fill-rule="evenodd">
        <g fill="#1A1919">
            <path d="M2.034 3.774c0-1.917-1.002-1.79-1.96-1.811v-.554c.831.04 1.683.04 2.516.04.895 0 2.11-.04 3.689-.04 5.52 0 8.528 3.686 8.528 7.461 0 2.113-1.237 7.42-8.785 7.42-1.086 0-2.09-.042-3.091-.042-.959 0-1.899.02-2.857.042v-.554c1.278-.13 1.898-.171 1.96-1.62V3.773zm2.09 10c0 1.642 1.173 1.833 2.217 1.833 4.607 0 6.118-3.475 6.118-6.65 0-3.988-2.557-6.865-6.672-6.865-.876 0-1.279.062-1.664.085v11.596zM15.554 15.736h.404c.596 0 1.023 0 1.023-.705V9.253c0-.936-.32-1.066-1.11-1.49v-.341c1.003-.301 2.198-.704 2.282-.768.15-.085.276-.108.385-.108.104 0 .148.128.148.3v8.185c0 .705.47.705 1.068.705h.36v.554c-.724 0-1.472-.042-2.237-.042-.767 0-1.535.02-2.323.042v-.554zm2.28-12.472c-.555 0-1.044-.512-1.044-1.066 0-.534.512-1.026 1.044-1.026.554 0 1.046.45 1.046 1.026 0 .576-.47 1.066-1.046 1.066zM22.141 9.382c0-.788-.235-1-1.236-1.407v-.404c.915-.299 1.789-.577 2.813-1.025.065 0 .127.042.127.213v1.386c1.217-.873 2.262-1.6 3.692-1.6 1.81 0 2.45 1.323 2.45 2.986v5.5c0 .705.47.705 1.066.705h.385v.554c-.749 0-1.494-.042-2.26-.042-.769 0-1.537.02-2.305.042v-.554h.385c.597 0 1.022 0 1.022-.705V9.51c0-1.217-.743-1.813-1.96-1.813-.682 0-1.77.553-2.475 1.024v6.309c0 .705.471.705 1.068.705h.383v.554c-.746 0-1.492-.042-2.261-.042-.766 0-1.534.02-2.301.042v-.554h.385c.596 0 1.022 0 1.022-.705V9.38M33.058 10.407c-.043.191-.043.51 0 1.236.126 2.025 1.43 3.687 3.133 3.687 1.174 0 2.092-.64 2.879-1.427l.298.298c-.981 1.3-2.196 2.41-3.943 2.41-3.39 0-4.073-3.285-4.073-4.649 0-4.179 2.814-5.416 4.305-5.416 1.728 0 3.585 1.087 3.604 3.348 0 .13 0 .256-.02.384l-.192.129h-5.99zm3.775-.683c.532 0 .595-.278.595-.535 0-1.085-.66-1.96-1.855-1.96-1.3 0-2.196.958-2.451 2.495h3.711zM39.753 15.736h.576c.594 0 1.021 0 1.021-.705V9.04c0-.66-.788-.79-1.108-.96v-.319c1.556-.661 2.41-1.216 2.604-1.216.125 0 .19.064.19.278v1.92h.044c.531-.832 1.429-2.198 2.728-2.198.533 0 1.215.362 1.215 1.13 0 .575-.404 1.09-1 1.09-.663 0-.663-.515-1.41-.515-.362 0-1.556.492-1.556 1.772v5.008c0 .705.426.705 1.023.705h1.193v.554c-1.173-.022-2.065-.042-2.983-.042-.874 0-1.77.02-2.537.042v-.554M47.96 13.326c.278 1.407 1.13 2.603 2.688 2.603 1.256 0 1.725-.769 1.725-1.515 0-2.517-4.647-1.706-4.647-5.138 0-1.195.96-2.73 3.306-2.73.68 0 1.597.193 2.428.62l.15 2.173h-.49c-.213-1.342-.958-2.11-2.324-2.11-.853 0-1.663.49-1.663 1.407 0 2.496 4.945 1.727 4.945 5.075 0 1.406-1.128 2.9-3.666 2.9-.852 0-1.856-.3-2.6-.725l-.236-2.453.384-.107M73.33 5.266H72.8c-.406-2.492-2.176-3.495-4.562-3.495-2.455 0-6.014 1.64-6.014 6.757 0 4.309 3.071 7.4 6.354 7.4 2.109 0 3.86-1.45 4.286-3.69l.49.127-.49 3.114c-.895.555-3.305 1.132-4.714 1.132-4.987 0-8.142-3.22-8.142-8.017 0-4.372 3.902-7.507 8.08-7.507 1.727 0 3.39.556 5.031 1.132l.212 3.047M74.1 15.736h.404c.599 0 1.024 0 1.024-.705V3.158c0-1.387-.319-1.43-1.13-1.664v-.342c.852-.276 1.749-.66 2.197-.917C76.827.109 77 0 77.062 0c.13 0 .172.13.172.3v14.73c0 .706.47.706 1.066.706h.361v.554c-.723 0-1.469-.042-2.237-.042-.767 0-1.534.02-2.324.042v-.554M87.79 15.117c0 .385.232.405.594.405.257 0 .575-.02.855-.02v.449c-.918.084-2.667.532-3.072.66l-.107-.065v-1.727c-1.278 1.044-2.26 1.792-3.775 1.792-1.151 0-2.344-.748-2.344-2.536v-5.46c0-.555-.085-1.088-1.277-1.193v-.406c.768-.022 2.47-.149 2.748-.149.236 0 .236.149.236.618v5.5c0 .64 0 2.472 1.855 2.472.724 0 1.683-.552 2.578-1.298V8.423c0-.426-1.023-.66-1.789-.873v-.383c1.917-.13 3.112-.3 3.325-.3.172 0 .172.149.172.384v7.866M92.03 8.08c.853-.722 2.005-1.534 3.177-1.534 2.474 0 3.967 2.155 3.967 4.479 0 2.792-2.048 5.586-5.098 5.586-1.576 0-2.408-.513-2.963-.748l-.638.49-.447-.233c.19-1.258.298-2.494.298-3.795V3.158c0-1.387-.32-1.43-1.131-1.664v-.342c.854-.276 1.748-.66 2.196-.917.235-.126.405-.235.47-.235.127 0 .17.13.17.3v7.78zm0 5.8c0 .81.769 2.176 2.197 2.176 2.28 0 3.24-2.24 3.24-4.138 0-2.301-1.747-4.22-3.41-4.22-.791 0-1.451.512-2.026 1.003v5.18zM.05 28.687h.163c.418 0 .858-.057.858-.66v-6.078c0-.605-.44-.663-.858-.663H.05v-.348c.453 0 1.149.046 1.719.046.58 0 1.275-.046 1.82-.046v.348h-.164c-.415 0-.857.058-.857.663v6.077c0 .604.442.661.857.661h.164v.349c-.556 0-1.254-.045-1.832-.045-.57 0-1.254.045-1.706.045v-.349" transform="translate(13 29) translate(0 40.72)"/>
            <path d="M3.589 29.085c-.561 0-1.255-.046-1.833-.046-.568 0-1.25.046-1.706.046H0v-.448h.213c.42-.01.804-.044.807-.61v-6.078c-.003-.568-.386-.605-.807-.613H0v-.449h.05c.456 0 1.151.045 1.719.045.577 0 1.272-.045 1.82-.045h.052v.45h-.214c-.421.007-.806.044-.808.612v6.077c.002.567.387.6.808.611h.214v.448h-.052zm-.05-.099v-.247h-.112c-.415 0-.908-.073-.91-.713V21.95c.002-.642.495-.714.91-.714h.112v-.247c-.535 0-1.208.047-1.77.047-.551 0-1.218-.044-1.668-.047v.247h.112c.413 0 .907.072.907.714v6.077c0 .64-.494.713-.907.713H.1v.247c.45-.004 1.105-.046 1.655-.046.565 0 1.236.043 1.783.046zM11.559 26.75l.023-.024v-4.349c0-.952-.662-1.091-1.01-1.091h-.256v-.348c.547 0 1.08.046 1.625.046.475 0 .953-.046 1.427-.046v.348h-.173c-.488 0-1.034.093-1.034 1.473v5.279c0 .406.012.812.069 1.172h-.441l-5.974-6.66v4.78c0 1.01.197 1.357 1.09 1.357h.197v.349c-.498 0-.997-.045-1.496-.045-.52 0-1.055.045-1.577.045v-.349h.162c.8 0 1.044-.545 1.044-1.47v-4.889c0-.649-.535-1.042-1.055-1.042H4.03v-.348c.44 0 .893.046 1.333.046.349 0 .685-.046 1.033-.046l5.164 5.811" transform="translate(13 29) translate(0 40.72)"/>
            <path d="M12.23 29.259l-.478-.016-5.887-6.562v4.65c.014 1.008.167 1.295 1.04 1.306h.249v.448h-.052c-.501 0-1-.046-1.496-.046-.52 0-1.052.046-1.578.046h-.05v-.448h.213c.767-.004.986-.497.995-1.421V22.33c-.003-.618-.51-.994-1.005-.994h-.204v-.449h.051c.444 0 .898.045 1.333.045.346 0 .681-.045 1.072-.027l5.099 5.74v-4.268c-.006-.921-.622-1.033-.96-1.04h-.306v-.45h.05c.549 0 1.083.045 1.625.045.472 0 .947-.045 1.427-.045h.05v.45h-.223c-.479.012-.97.054-.984 1.422v5.279c0 .406.013.81.068 1.163l.01.058h-.06zm-.44-.101h.383c-.052-.35-.06-.734-.06-1.12v-5.279c0-1.392.583-1.524 1.082-1.524h.123v-.247c-.458.003-.916.045-1.377.045-.532 0-1.048-.042-1.572-.045l-.002.247h.206c.356 0 1.06.159 1.06 1.142l-.016 4.386-.023.022-.04.038-5.159-5.835c-.345 0-.68.045-1.034.045-.425 0-.86-.042-1.281-.045l-.003.247h.104c.544 0 1.103.416 1.103 1.095v4.886c0 .928-.258 1.521-1.093 1.524l-.111-.003v.25c.502-.005 1.02-.047 1.526-.047.484 0 .967.042 1.446.046v-.246h-.147c-.913-.003-1.139-.4-1.14-1.41v-4.91l6.024 6.738zM15.107 21.518c-.872 0-.906.21-1.08 1.055h-.348c.046-.324.104-.649.14-.985.046-.327.07-.65.07-.986h.277c.094.348.384.336.699.336h5.983c.315 0 .604-.012.628-.36l.277.048c-.045.312-.092.625-.126.94-.023.312-.023.625-.023.938l-.348.129c-.024-.429-.082-1.115-.859-1.115h-1.903v6.172c0 .895.407.997.963.997h.221v.349c-.452 0-1.265-.045-1.89-.045-.697 0-1.51.045-1.963.045v-.349h.222c.64 0 .962-.057.962-.973v-6.196h-1.902" transform="translate(13 29) translate(0 40.72)"/>
            <path d="M19.68 29.085c-.458 0-1.27-.046-1.892-.046-.696 0-1.508.046-1.963.046h-.05v-.448h.272c.64-.015.896-.023.91-.923v-6.147h-1.85v-.101h1.951v6.248c0 .931-.375 1.025-1.011 1.026h-.172v.245c.458-.003 1.24-.045 1.913-.045.604 0 1.379.042 1.838.045v-.245h-.169c-.561 0-1.013-.139-1.013-1.05v-6.224h1.953c.778.003.882.664.906 1.096l.25-.093c0-.303.002-.606.023-.91.034-.3.076-.595.12-.893l-.176-.03c-.054.339-.382.357-.672.352h-6.044c-.273 0-.57-.012-.675-.336h-.191c-.002.32-.024.632-.068.94-.035.32-.088.626-.13.933h.248c.152-.81.251-1.07 1.119-1.059v.101c-.86.018-.841.161-1.03 1.018l-.009.04h-.447l.007-.06c.047-.324.106-.65.14-.987.048-.321.07-.643.07-.976v-.051h.368l.01.036c.077.293.292.295.588.3h6.044c.323-.005.558-.01.578-.313l.004-.055.053.01.328.053-.009.051c-.046.311-.091.624-.126.934-.022.311-.022.623-.022.937v.035l-.033.013-.411.15-.003-.067c-.032-.436-.076-1.068-.81-1.068h-1.852v6.123c.012.875.359.936.912.947h.271v.448h-.049M22.124 28.687h.163c.416 0 .859-.057.859-.66v-6.078c0-.605-.443-.663-.859-.663h-.163v-.348c.705 0 1.914.046 2.887.046.976 0 2.181-.046 2.97-.046-.02.499-.01 1.266.025 1.776l-.35.092c-.055-.755-.195-1.356-1.413-1.356h-1.61v3.037h1.377c.696 0 .848-.393.917-1.02h.347c-.023.453-.035.906-.035 1.357 0 .442.012.883.035 1.323l-.347.07c-.07-.696-.104-1.148-.905-1.148h-1.39v2.701c0 .755.67.755 1.413.755 1.393 0 2.007-.093 2.355-1.414l.324.08c-.15.616-.289 1.23-.393 1.845-.744 0-2.078-.045-3.12-.045-1.046 0-2.425.045-3.087.045v-.349" transform="translate(13 29) translate(0 40.72)"/>
            <path d="M28.33 29.085c-.744 0-2.08-.048-3.12-.048-1.045 0-2.424.048-3.087.048h-.048v-.448h.212c.42-.007.802-.044.807-.61v-6.078c-.005-.567-.387-.605-.807-.613h-.212v-.449h.048c.71 0 1.916.045 2.888.045.975 0 2.18-.045 2.97-.045h.051l-.001.054c-.008.173-.013.38-.013.598 0 .4.013.84.035 1.17l.003.042-.04.012-.407.106-.002-.06c-.069-.752-.17-1.3-1.364-1.31h-1.564v2.937h1.33c.67-.007.789-.348.868-.974l.003-.047h.446l-.001.053c-.023.454-.036.905-.036 1.356 0 .44.013.88.036 1.32v.043l-.041.01-.404.08-.003-.055c-.08-.708-.086-1.096-.855-1.105h-1.343v2.653c.002.705.61.701 1.366.705 1.397-.008 1.956-.076 2.306-1.378l.012-.047.048.008.372.097-.01.048c-.15.614-.29 1.227-.394 1.841l-.009.041h-.04zm-.043-.1c.101-.586.234-1.172.376-1.756l-.228-.058c-.348 1.298-1.021 1.414-2.39 1.405-.731 0-1.462 0-1.466-.806v-2.752h1.443c.81-.008.891.48.95 1.14l.25-.051c-.023-.428-.034-.857-.034-1.283 0-.435.011-.87.034-1.308h-.25c-.066.606-.255 1.03-.962 1.022h-1.431v-3.14h1.664c1.206-.01 1.406.614 1.459 1.344l.25-.068c-.02-.327-.034-.748-.034-1.135 0-.199.005-.387.012-.551-.789.003-1.965.045-2.919.045-.953 0-2.127-.042-2.837-.045v.247h.113c.413 0 .906.072.909.714v6.077c-.003.64-.496.711-.91.714h-.112v.245c.676-.002 2.017-.045 3.036-.045 1.024 0 2.33.043 3.077.045zM30.29 22.166c0-.845-.464-.88-.824-.88h-.21v-.348c.372 0 1.091.046 1.8.046.694 0 1.252-.046 1.867-.046 1.46 0 2.762.394 2.762 2.042 0 1.044-.697 1.68-1.613 2.043l1.983 2.968c.326.49.556.628 1.126.696v.349c-.384 0-.755-.045-1.137-.045-.36 0-.732.045-1.09.045-.894-1.171-1.66-2.424-2.414-3.76h-.765v2.484c0 .893.417.927.949.927h.21v.349c-.662 0-1.332-.045-1.995-.045-.557 0-1.102.045-1.682.045v-.349h.21c.43 0 .824-.196.824-.625v-5.896zm1.485 2.691h.567c1.162 0 1.787-.44 1.787-1.809 0-1.031-.661-1.693-1.695-1.693-.348 0-.496.036-.659.047v3.455z" transform="translate(13 29) translate(0 40.72)"/>
            <path d="M37.18 29.085c-.388 0-.757-.046-1.139-.046-.353 0-.724.046-1.128.027-.89-1.168-1.653-2.413-2.402-3.738h-.686v2.43c.013.873.363.867.899.879h.26v.448h-.051c-.663 0-1.337-.046-1.995-.046-.554 0-1.099.046-1.681.046h-.05v-.448h.26c.416-.003.769-.185.77-.575v-5.896c-.008-.822-.41-.818-.77-.83h-.26v-.449h.05c.375 0 1.091.045 1.799.045.692 0 1.249-.045 1.867-.045 1.463.003 2.809.406 2.812 2.091 0 1.047-.692 1.702-1.586 2.066l1.948 2.919c.324.481.526.602 1.09.674l.042.007v.441h-.048zm-5.405-3.86h.793l.014.027c.755 1.333 1.518 2.585 2.372 3.734.353 0 .726-.046 1.087-.046.37 0 .729.04 1.089.045v-.254c-.544-.067-.8-.231-1.116-.712L33.994 25l.057-.023c.91-.358 1.582-.978 1.583-1.998 0-1.609-1.253-1.982-2.711-1.99-.61 0-1.169.047-1.867.047-.682 0-1.37-.044-1.75-.047v.247h.16c.36 0 .873.06.873.931v5.896c0 .466-.436.677-.873.678h-.16v.245c.558-.002 1.088-.045 1.632-.045.648 0 1.303.043 1.945.045v-.245h-.159c-.528 0-1-.066-1-.982v-2.532h.051zm0-.318h-.051v-3.552l.044-.003c.159-.013.315-.045.666-.045 1.057 0 1.745.686 1.746 1.744-.003 1.385-.667 1.856-1.838 1.856h-.567zm.567-.098c1.149-.012 1.727-.41 1.739-1.758-.007-1.013-.636-1.642-1.647-1.646-.313 0-.46.029-.609.043v3.36h.517zM45.057 26.75l.02-.024v-4.349c0-.952-.659-1.091-1.007-1.091h-.254v-.348c.545 0 1.077.046 1.623.046.477 0 .95-.046 1.429-.046v.348h-.175c-.488 0-1.033.093-1.033 1.473v5.279c0 .406.012.812.069 1.172h-.44l-5.973-6.66v4.78c0 1.01.196 1.357 1.089 1.357h.197v.349c-.498 0-.998-.045-1.496-.045-.524 0-1.057.045-1.578.045v-.349h.16c.802 0 1.047-.545 1.047-1.47v-4.889c0-.649-.535-1.042-1.056-1.042h-.151v-.348c.439 0 .895.046 1.335.046.344 0 .682-.046 1.031-.046l5.163 5.811" transform="translate(13 29) translate(0 40.72)"/>
            <path d="M45.728 29.259l-.476-.016-5.888-6.561v4.648c.013 1.01.166 1.296 1.04 1.307h.247v.448h-.05c-.502 0-1-.048-1.497-.048-.518 0-1.054.048-1.577.048h-.052v-.448h.214c.766-.003.986-.497.993-1.424v-4.885c-.001-.618-.507-.992-1.003-.992h-.204v-.449h.052c.443 0 .897.045 1.335.045.34 0 .677-.045 1.066-.03l5.1 5.742v-4.267c-.003-.921-.62-1.035-.958-1.04h-.306v-.45h.05c.548 0 1.083.045 1.625.045.473 0 .948-.045 1.426-.045h.052v.45h-.224c-.479.01-.972.054-.983 1.422v5.279c0 .406.01.808.069 1.164l.006.057h-.057zm-.439-.101h.38c-.05-.347-.06-.734-.06-1.12v-5.279c0-1.392.587-1.521 1.084-1.524h.122v-.247c-.457.003-.915.045-1.376.045-.533 0-1.05-.042-1.574-.045v.247h.205c.357.003 1.06.159 1.06 1.142l-.017 4.386-.02.022-.037.038-5.162-5.835c-.345 0-.681.045-1.032.045-.43 0-.864-.042-1.285-.045v.247h.102c.546.003 1.104.414 1.104 1.093v4.885c0 .931-.262 1.524-1.094 1.527h-.112v.246c.5-.004 1.018-.046 1.527-.046.486 0 .968.042 1.448.046v-.246h-.147c-.913 0-1.14-.4-1.143-1.41v-4.908l6.027 6.736zM48.733 27.377c-.117.393-.257.698-.257.904 0 .349.488.407.87.407h.13v.348c-.466-.025-.94-.045-1.407-.045-.417 0-.833.02-1.252.045v-.348h.071c.452 0 .836-.268 1.008-.755l1.856-5.323c.152-.43.36-1.01.431-1.44.37-.128.835-.358 1.055-.5.036-.011.057-.023.092-.023.036 0 .057 0 .083.036.034.092.068.197.104.29l2.135 6.068c.14.405.277.834.426 1.184.141.325.385.463.769.463h.07v.348c-.523-.025-1.047-.045-1.6-.045-.57 0-1.151.02-1.743.045v-.348h.128c.265 0 .72-.047.72-.337 0-.15-.104-.463-.234-.836l-.452-1.345h-2.633l-.37 1.207zm1.693-5.14h-.024l-1.078 3.284h2.168l-1.066-3.283z" transform="translate(13 29) translate(0 40.72)"/>
            <path d="M54.913 29.085c-.521-.022-1.044-.048-1.597-.048-.569 0-1.147.026-1.74.048l-.053.003v-.453h.179c.269 0 .667-.06.668-.284.003-.132-.101-.45-.229-.819l-.442-1.312H49.14l-.36 1.172c-.117.394-.258.7-.256.89.004.283.437.353.822.353h.178v.453l-.052-.003c-.464-.022-.938-.048-1.402-.048-.414 0-.833.026-1.249.048l-.054.003v-.453h.12c.432-.001.792-.247.96-.719l1.858-5.324c.15-.43.36-1.007.46-1.47.364-.124.831-.358 1.054-.498.032-.012.064-.027.111-.027.029-.001.09.006.129.067.033.095.07.2.105.293l2.136 6.067c.136.406.275.835.427 1.179.134.309.347.43.72.432h.117v.453l-.051-.003zm-3.288-.103c.574-.02 1.137-.042 1.691-.042.538 0 1.044.022 1.548.042v-.243h-.017c-.398.003-.671-.153-.814-.495-.15-.35-.292-.782-.429-1.188l-2.136-6.068c-.035-.092-.068-.196-.098-.279-.011-.011-.009-.011-.018-.011h-.022c-.023 0-.037.007-.067.014-.223.145-.688.374-1.034.465-.07.44-.28 1.019-.43 1.449l-1.856 5.323c-.177.504-.585.791-1.055.79h-.02v.243c.398-.02.8-.042 1.202-.042.45 0 .907.022 1.35.042v-.243h-.074c-.379-.005-.907-.046-.92-.457 0-.23.143-.527.257-.92l.05.015-.05-.016.382-1.24h2.705l.465 1.378c.13.373.235.683.235.852-.017.355-.505.382-.768.388h-.077v.243zm-2.372-3.411l1.11-3.385h.063v.052l-.012.003.012-.003v-.052h.035l1.103 3.385h-2.31zm.14-.101h2.03l-1.01-3.109-1.02 3.109zM55.426 21.518c-.87 0-.905.21-1.08 1.055h-.348c.045-.324.105-.649.14-.985.046-.327.068-.65.068-.986h.28c.092.348.382.336.696.336h5.987c.311 0 .601-.012.624-.36l.278.048c-.043.312-.09.625-.126.94-.025.312-.025.625-.025.938l-.347.129c-.02-.429-.079-1.115-.858-1.115h-1.902v6.172c0 .895.406.997.962.997h.222v.349c-.453 0-1.264-.045-1.892-.045-.694 0-1.509.045-1.96.045v-.349h.22c.64 0 .963-.057.963-.973v-6.196h-1.902" transform="translate(13 29) translate(0 40.72)"/>
            <path d="M59.997 29.085c-.456 0-1.269-.046-1.893-.046-.693 0-1.505.046-1.96.046h-.05v-.448h.271c.64-.015.896-.023.912-.923l-.001-6.147h-1.85v-.101h1.952v6.248c0 .931-.376 1.023-1.013 1.025h-.17v.247c.458-.004 1.237-.046 1.91-.046.606 0 1.382.042 1.84.046v-.247h-.17c-.56-.002-1.011-.136-1.012-1.05v-6.223h1.952c.78.003.88.664.903 1.096l.252-.093c0-.303.002-.606.026-.91.031-.299.075-.595.117-.891l-.175-.031c-.053.338-.38.357-.67.351h-6.046c-.273.003-.57-.012-.675-.337h-.19c-.002.321-.025.633-.07.942-.032.32-.088.627-.132.932h.25c.152-.81.252-1.072 1.121-1.059v.101c-.86.015-.841.161-1.03 1.018l-.009.04h-.448l.007-.058c.049-.326.106-.652.14-.986.047-.324.069-.646.069-.979v-.051h.368l.01.036c.081.293.292.295.59.3h6.046c.32-.005.555-.01.575-.312l.002-.056.054.01.33.053-.008.051c-.048.311-.092.624-.127.934-.024.311-.024.624-.024.937v.035l-.034.013-.41.15-.002-.067c-.03-.436-.077-1.068-.81-1.068h-1.852v6.123c.012.875.359.936.912.947h.27v.448h-.048M62.5 28.687h.163c.418 0 .857-.057.857-.66v-6.078c0-.605-.44-.663-.857-.663H62.5v-.348c.453 0 1.148.046 1.715.046.582 0 1.278-.046 1.825-.046v.348h-.163c-.42 0-.86.058-.86.663v6.077c0 .604.44.661.86.661h.163v.349c-.558 0-1.255-.045-1.834-.045-.57 0-1.253.045-1.706.045v-.349" transform="translate(13 29) translate(0 40.72)"/>
            <path d="M66.04 29.085c-.561 0-1.255-.048-1.834-.048-.568 0-1.253.048-1.706.048h-.05v-.448h.213c.418-.007.804-.044.806-.61v-6.078c-.002-.567-.388-.605-.806-.613h-.213v-.449h.05c.453 0 1.151.045 1.715.045.579 0 1.275-.045 1.825-.045h.048v.45h-.211c-.425.007-.806.045-.81.612v6.077c.004.567.385.604.81.611h.21v.448h-.047zm-.053-.1v-.246h-.11c-.416 0-.909-.073-.909-.713V21.95c0-.642.493-.714.909-.714h.11v-.247c-.535.003-1.207.045-1.772.045-.55 0-1.214-.042-1.664-.045v.247h.112c.412 0 .906.072.908.714v6.077c-.002.64-.496.713-.908.713h-.112v.246c.447-.005 1.103-.045 1.655-.045.563 0 1.234.042 1.78.045zM70.665 20.764c2.473 0 4.445 1.533 4.445 4.004 0 2.668-1.915 4.442-4.385 4.442-2.46 0-4.339-1.67-4.339-4.166 0-2.411 1.867-4.28 4.28-4.28m.175 7.935c2.25 0 2.644-1.985 2.644-3.676 0-1.696-.915-3.748-2.842-3.748-2.03 0-2.633 1.81-2.633 3.363 0 2.076.952 4.061 2.83 4.061" transform="translate(13 29) translate(0 40.72)"/>
            <path d="M66.334 25.044c.005-2.44 1.894-4.327 4.33-4.33v.1c-2.384 0-4.229 1.844-4.231 4.23.004 2.467 1.856 4.113 4.292 4.114 2.446-.001 4.332-1.75 4.336-4.392-.003-2.44-1.943-3.949-4.396-3.951v-.102c2.49.003 4.49 1.55 4.494 4.053-.002 2.696-1.94 4.488-4.434 4.493-2.481-.005-4.386-1.692-4.39-4.215m1.624-.406c.003-1.561.613-3.415 2.684-3.415 1.97.004 2.889 2.095 2.892 3.8-.003 1.691-.401 3.724-2.694 3.724v-.099c2.206-.001 2.59-1.934 2.593-3.625 0-1.681-.905-3.695-2.791-3.698-1.99.002-2.578 1.768-2.583 3.313 0 2.066.944 4.007 2.781 4.01v.099c-1.926-.002-2.879-2.02-2.882-4.11M82.927 26.75l.024-.024v-4.349c0-.952-.663-1.091-1.011-1.091h-.253v-.348c.544 0 1.079.046 1.623.046.477 0 .952-.046 1.428-.046v.348h-.174c-.486 0-1.034.093-1.034 1.473v5.279c0 .406.012.812.071 1.172h-.441l-5.976-6.66v4.78c0 1.01.198 1.357 1.09 1.357h.199v.349c-.5 0-.998-.045-1.497-.045-.522 0-1.056.045-1.578.045v-.349h.163c.802 0 1.044-.545 1.044-1.47v-4.889c0-.649-.532-1.042-1.057-1.042h-.15v-.348c.44 0 .893.046 1.334.046.348 0 .682-.046 1.032-.046l5.163 5.811" transform="translate(13 29) translate(0 40.72)"/>
            <path d="M83.602 29.259l-.48-.016-5.888-6.561v4.649c.014 1.01.167 1.294 1.038 1.304h.25v.45h-.049c-.502 0-1-.046-1.497-.046-.52 0-1.053.046-1.58.046h-.047v-.45h.211c.765-.002.985-.495.994-1.419v-4.888c0-.618-.507-.992-1.006-.992h-.199v-.449h.047c.445 0 .898.045 1.336.045.344 0 .677-.045 1.07-.027l5.098 5.74v-4.268c-.004-.921-.621-1.033-.96-1.04h-.306v-.45h.053c.545 0 1.08.045 1.621.045.475 0 .948-.045 1.43-.045h.05v.45h-.225c-.478.012-.971.056-.981 1.422v5.279c0 .406.01.81.065 1.164l.01.057h-.055zm-.442-.101h.38c-.049-.35-.06-.734-.06-1.12v-5.279c0-1.394.585-1.521 1.083-1.524h.126v-.247c-.46.003-.917.045-1.38.045-.529 0-1.048-.042-1.573-.045v.247h.204c.358.003 1.059.161 1.059 1.142l-.013 4.386-.022.022-.037.038-5.163-5.835c-.343 0-.68.045-1.032.045-.428 0-.863-.042-1.285-.045v.247h.101c.546.003 1.106.414 1.106 1.093v4.888c0 .928-.259 1.521-1.094 1.524h-.113v.246c.503-.004 1.02-.046 1.53-.046.483 0 .964.042 1.445.046v-.246h-.15c-.91 0-1.138-.4-1.138-1.41v-4.91l6.026 6.738zM86.602 27.377c-.114.393-.254.698-.254.904 0 .349.489.407.869.407h.13v.348c-.465-.025-.941-.045-1.406-.045-.417 0-.834.02-1.25.045v-.348h.066c.455 0 .839-.268 1.008-.755l1.86-5.323c.15-.43.36-1.01.427-1.44.373-.128.835-.358 1.059-.5.032-.011.056-.023.092-.023.034 0 .056 0 .08.036l.104.29 2.135 6.068c.138.405.278.834.43 1.184.139.325.382.463.765.463h.071v.348c-.523-.025-1.045-.045-1.603-.045-.567 0-1.148.02-1.74.045v-.348h.128c.266 0 .72-.047.72-.337 0-.15-.104-.463-.233-.836l-.452-1.345h-2.633l-.373 1.207zm1.696-5.14h-.023l-1.082 3.284h2.173l-1.068-3.283z" transform="translate(13 29) translate(0 40.72)"/>
            <path d="M92.783 29.085c-.523-.02-1.044-.046-1.597-.046-.566 0-1.148.026-1.739.046l-.051.003v-.451h.177c.27 0 .669-.062.67-.286.002-.132-.103-.449-.233-.819l-.44-1.312h-2.561l-.358 1.172c-.117.397-.254.7-.253.889 0 .284.435.356.819.356h.177v.451l-.052-.003c-.464-.02-.939-.046-1.4-.046-.417 0-.833.026-1.251.046l-.05.003v-.451h.116c.432-.002.794-.25.964-.72l1.855-5.325c.15-.43.359-1.007.46-1.469.365-.126.83-.36 1.057-.5.03-.01.062-.025.11-.025.03-.002.09.005.126.068.035.092.07.197.107.29l2.133 6.068c.14.406.278.835.429 1.18.136.308.346.43.717.433h.12v.451l-.052-.003zm-3.289-.102c.574-.021 1.139-.043 1.692-.043.54 0 1.044.022 1.55.042l-.001-.243h-.02c-.393.001-.666-.153-.811-.495-.153-.35-.29-.782-.43-1.187l-2.135-6.069c-.034-.092-.07-.196-.098-.276-.01-.014-.009-.014-.016-.014h-.023c-.025 0-.037.008-.065.016-.227.142-.691.374-1.034.463-.072.44-.283 1.018-.432 1.449l-1.858 5.323c-.176.504-.582.791-1.056.79h-.018v.243c.4-.02.799-.042 1.202-.042.45 0 .908.022 1.354.042v-.243h-.078c-.378-.005-.906-.045-.921-.458.003-.23.146-.525.26-.918l.046.014-.047-.016.382-1.24h2.704l.466 1.378c.128.373.234.683.234.852-.017.355-.505.382-.768.388h-.079v.244zm-2.37-3.412l1.114-3.385h.06v.052l-.013.003.013-.003v-.052h.035l1.097 3.385h-2.306zm.14-.101h2.03l-1.01-3.107-1.02 3.107zM95.71 27.898c0 .466.323.604.695.652.475.035.997.035 1.533-.025.486-.058.904-.335 1.112-.627.184-.255.289-.58.36-.834h.335c-.127.66-.29 1.311-.429 1.972-1.018 0-2.042-.045-3.062-.045-1.022 0-2.042.045-3.062.045v-.349h.16c.419 0 .873-.057.873-.776v-5.962c0-.605-.454-.663-.872-.663h-.161v-.348c.614 0 1.218.046 1.832.046.593 0 1.171-.046 1.765-.046v.348h-.292c-.44 0-.787.012-.787.627v5.985" transform="translate(13 29) translate(0 40.72)"/>
            <path d="M99.317 29.085c-1.023 0-2.045-.046-3.063-.046-1.02 0-2.041.046-3.064.046h-.05v-.448h.213c.419-.01.817-.04.822-.726v-5.965c-.005-.564-.401-.602-.822-.61h-.212v-.449h.049c.617 0 1.221.045 1.833.045.59 0 1.169-.045 1.766-.045h.046v.45h-.338c-.45.01-.73-.01-.74.576v5.985c.004.434.288.55.65.602.205.014.42.021.644.021.284 0 .578-.013.878-.045.473-.056.88-.33 1.08-.606.18-.248.28-.566.35-.818l.01-.038h.437l-.01.06c-.131.664-.29 1.311-.431 1.972l-.01.04h-.038zm-.043-.1c.135-.63.286-1.246.412-1.872h-.24c-.07.253-.174.564-.356.817-.217.3-.647.584-1.15.646-.303.03-.605.047-.89.047-.224 0-.44-.01-.652-.026-.377-.04-.742-.203-.742-.699v-5.985c0-.645.408-.678.841-.678h.239v-.247c-.571.003-1.136.047-1.713.047-.6 0-1.187-.044-1.781-.047v.247h.11c.414 0 .92.072.92.711v5.965c0 .75-.504.828-.92.828h-.11v.246c1.002-.002 2.005-.045 3.012-.045 1.009 0 2.016.043 3.02.045zM99.604 20.609c.7 0 1.222.537 1.222 1.224 0 .686-.522 1.218-1.222 1.218-.698 0-1.221-.532-1.221-1.218 0-.687.523-1.224 1.221-1.224zm0 2.215c.548 0 .967-.466.967-.99 0-.527-.414-.996-.967-.996-.55 0-.968.469-.968.995 0 .525.418.991.968.991zm-.607-.347v-.059c.149-.021.177-.018.177-.109v-.905c0-.128-.013-.172-.172-.165v-.062h.625c.215 0 .413.103.413.325 0 .181-.12.316-.29.368l.202.28c.093.127.2.247.269.289v.038h-.238c-.114 0-.215-.24-.44-.561h-.134v.405c0 .08.028.076.178.097v.06h-.59zm.412-.644h.144c.157 0 .23-.119.23-.312 0-.194-.112-.263-.238-.263h-.136v.575z" transform="translate(13 29) translate(0 40.72)"/>
        </g>
        <g>
            <path fill="#FFFFFE" d="M.852 20.702C.852 9.85 9.65 1.054 20.5 1.054c10.851 0 19.648 8.797 19.648 19.648 0 10.851-8.797 19.648-19.648 19.648C9.649 40.35.852 31.553.852 20.702" transform="translate(13 29) translate(26.292)"/>
            <path fill="#184977" d="M32.382 20.315c-.008-5.032-3.153-9.323-7.584-11.022v22.043c4.431-1.701 7.576-5.989 7.584-11.02zM16.344 31.332V9.295c-4.428 1.705-7.568 5.99-7.58 11.02.012 5.029 3.152 9.314 7.58 11.017zm4.229-29.649c-10.29.004-18.626 8.342-18.628 18.632.002 10.288 8.338 18.625 18.628 18.627 10.29-.002 18.628-8.339 18.63-18.627-.002-10.29-8.34-18.628-18.63-18.632zm-.046 39.018C9.267 40.754 0 31.63 0 20.528 0 8.392 9.267-.002 20.527 0h5.277C36.93-.002 47.085 8.388 47.085 20.528c0 11.1-10.155 20.173-21.281 20.173h-5.277z" transform="translate(13 29) translate(26.292)"/>
        </g>
    </g>
</svg>
