<svg xmlns="http://www.w3.org/2000/svg" width="128" height="128" viewBox="0 0 128 128">
    <g fill="none" fill-rule="evenodd">
        <path fill="#85ACB0" d="M42.56 90.42v-3.55a2 2 0 0 0-2.11-2.23 2.09 2.09 0 0 0-1.92 1 2 2 0 0 0-1.81-1 1.85 1.85 0 0 0-1.65.83v-.69H34v5.64h1.11v-3.23a1.33 1.33 0 0 1 1.38-1.5c.79 0 1.24.53 1.24 1.49v3.24h1.11v-3.23a1.35 1.35 0 0 1 1.39-1.5c.81 0 1.25.53 1.25 1.49v3.24h1.08zm17.85-5.64h-2v-1.71h-1.1v1.71h-1.16v1h1.16v2.67c0 1.3.44 2.08 1.85 2.08a2.74 2.74 0 0 0 1.49-.43l-.34-1c-.319.2-.684.31-1.06.32-.59 0-.83-.37-.83-.94v-2.67h2l-.01-1.03zm10.16-.14a1.69 1.69 0 0 0-1.49.83v-.69H68v5.64h1.09v-3.17c0-.93.44-1.54 1.22-1.54a1.81 1.81 0 0 1 .74.15l.37-1.07a2.63 2.63 0 0 0-.85-.15zm-15.36.59a4 4 0 0 0-2.21-.59c-1.38 0-2.23.67-2.23 1.79 0 .92.62 1.48 1.84 1.66l.57.08c.65.09 1 .33 1 .65s-.48.72-1.29.72A2.77 2.77 0 0 1 51 89l-.56.88a3.93 3.93 0 0 0 2.37.73c1.58 0 2.45-.75 2.45-1.83s-.66-1.49-1.87-1.67l-.52-.11c-.51-.07-1-.24-1-.62s.43-.69 1.09-.69a3.47 3.47 0 0 1 1.7.48l.55-.94zm16.61 2.37a3 3 0 0 0 4.85 2.29L76.1 89a2.38 2.38 0 0 1-1.44.5 1.92 1.92 0 0 1 0-3.82 2.39 2.39 0 0 1 1.44.51l.57-.89a2.85 2.85 0 0 0-2-.67 2.77 2.77 0 0 0-2.85 2.97zm-7.7-3a2.69 2.69 0 0 0-2.7 3 2.73 2.73 0 0 0 2.78 3 3.27 3.27 0 0 0 2.25-.79l-.59-.83a2.58 2.58 0 0 1-1.59.59 1.62 1.62 0 0 1-1.68-1.47h4.09v-.47c.01-1.8-1.02-2.99-2.56-2.99v-.04zm0 1a1.41 1.41 0 0 1 1.44 1.43h-3a1.48 1.48 0 0 1 1.54-1.34l.02-.09zm-14.85 2v-2.82h-1.1v.69a2.12 2.12 0 0 0-1.77-.83 3 3 0 0 0 0 5.92 2.14 2.14 0 0 0 1.77-.82v.68h1.1V87.6zm-4.43 0a1.7 1.7 0 1 1 1.71 1.91 1.74 1.74 0 0 1-1.71-1.91zm42.28-3a1.67 1.67 0 0 0-1.49.83v-.69h-1.09v5.64h1.1v-3.13c0-.93.44-1.54 1.21-1.54a1.83 1.83 0 0 1 .75.15l.4-1.07a2.68 2.68 0 0 0-.88-.15v-.04zm-4.22 3v-2.82h-1.1v.69a2.13 2.13 0 0 0-1.8-.83 3 3 0 0 0 0 5.92 2.15 2.15 0 0 0 1.77-.82v.68h1.1l.03-2.82zm-4.43 0a1.7 1.7 0 1 1 1.7 1.91 1.74 1.74 0 0 1-1.7-1.91zm15.53 0v-5.08h-1.1v3a2.15 2.15 0 0 0-1.78-.83 3 3 0 0 0 0 5.92 2.17 2.17 0 0 0 1.78-.82v.68H94V87.6zm-4.44 0a1.75 1.75 0 0 1 1.71-1.91 1.93 1.93 0 0 1 0 3.82 1.75 1.75 0 0 1-1.75-1.91h.04z"/>
        <g fill-rule="nonzero">
            <path fill="#85ACB0" d="M53.852 42.392h20.297v33.151H53.852z"/>
            <path fill="#C7E5E5" d="M55.942 58.97a21.047 21.047 0 0 1 8.053-16.572c-8.644-6.793-21.057-5.803-28.515 2.273-7.458 8.077-7.458 20.529 0 28.605 7.458 8.077 19.87 9.066 28.515 2.273a21.047 21.047 0 0 1-8.053-16.578z"/>
            <path fill="#BCCDCE" d="M98.106 58.97a21.081 21.081 0 0 1-34.111 16.573 21.082 21.082 0 0 0 0-33.15 21.082 21.082 0 0 1 34.11 16.572v.006z"/>
        </g>
        <path d="M0 0h128v128H0z"/>
    </g>
</svg>
