<svg id="Layer_2" data-name="Layer 2" xmlns="http://www.w3.org/2000/svg" viewBox="0 0 128 128"><defs><style>.cls-1,.cls-6{fill:#85acb0;}.cls-1,.cls-2,.cls-3,.cls-4,.cls-5{fill-rule:evenodd;}.cls-2{fill:#eb001b;}.cls-3{fill:#00a1df;}.cls-4{fill:#c7e5e5;}.cls-5{fill:#bccdce;}.cls-7{fill:none;}</style></defs><title>Payment logo</title><path class="cls-1" d="M50.84,90.52V87a2.08,2.08,0,0,0-2.17-2.24,2.13,2.13,0,0,0-1.94,1,2,2,0,0,0-1.83-1,1.81,1.81,0,0,0-1.61.84v-.7H42.08v5.64H43.3V87.39a1.3,1.3,0,0,1,1.35-1.49c.8,0,1.2.53,1.2,1.48v3.14h1.21V87.39a1.32,1.32,0,0,1,1.36-1.49c.82,0,1.21.53,1.21,1.48v3.14Zm6.78-2.82v2.82H56.41v-.69a2.07,2.07,0,0,1-1.74.83,3,3,0,0,1,0-5.92,2.07,2.07,0,0,1,1.74.83v-.69h1.21Zm-4.48,0a1.67,1.67,0,1,0,1.68-1.8A1.68,1.68,0,0,0,53.14,87.7Zm30.19-3a3.11,3.11,0,0,1,1.19.22,2.78,2.78,0,0,1,.94.63,2.71,2.71,0,0,1,.62.93,3.1,3.1,0,0,1,.23,1.18,3.06,3.06,0,0,1-.23,1.18,2.85,2.85,0,0,1-.62.94,2.9,2.9,0,0,1-.94.62,3.11,3.11,0,0,1-1.19.23,3.06,3.06,0,0,1-1.18-.23,2.8,2.8,0,0,1-.94-.62,2.85,2.85,0,0,1-.62-.94,3.06,3.06,0,0,1-.23-1.18,3.1,3.1,0,0,1,.23-1.18,2.71,2.71,0,0,1,.62-.93,2.68,2.68,0,0,1,.94-.63A3.06,3.06,0,0,1,83.33,84.74Zm0,1.15a1.72,1.72,0,0,0-.68.14,1.53,1.53,0,0,0-.55.37,1.7,1.7,0,0,0-.37.57,2.11,2.11,0,0,0,0,1.46,1.52,1.52,0,0,0,.37.57,1.55,1.55,0,0,0,.55.38,1.87,1.87,0,0,0,1.37,0,1.75,1.75,0,0,0,.55-.38,1.52,1.52,0,0,0,.37-.57,2.11,2.11,0,0,0,0-1.46,1.7,1.7,0,0,0-.37-.57,1.75,1.75,0,0,0-1.24-.51ZM64.16,87.7c0,.17,0,.32,0,.47H60a1.54,1.54,0,0,0,1.65,1.38A2.58,2.58,0,0,0,63.29,89l.59.91a3.32,3.32,0,0,1-2.27.79,2.76,2.76,0,0,1-2.83-3,2.73,2.73,0,0,1,2.75-3A2.69,2.69,0,0,1,64.16,87.7ZM60,87.21h2.87a1.39,1.39,0,0,0-1.4-1.37A1.43,1.43,0,0,0,60,87.21Zm9.18-.89a3.57,3.57,0,0,0-1.73-.48c-.65,0-1,.25-1,.66s.42.48.94.55l.57.09c1.2.17,1.93.69,1.93,1.68s-.93,1.84-2.52,1.84a4,4,0,0,1-2.4-.73l.57-1a2.9,2.9,0,0,0,1.84.59c.82,0,1.26-.24,1.26-.68s-.31-.5-1-.59l-.57-.08c-1.24-.18-1.91-.74-1.91-1.66,0-1.12.9-1.81,2.3-1.81a4.08,4.08,0,0,1,2.26.59ZM75,86H73v2.55c0,.57.19.94.79.94a2.2,2.2,0,0,0,1.07-.31l.34,1a2.78,2.78,0,0,1-1.5.44c-1.42,0-1.92-.78-1.92-2.09V86H70.69V84.88h1.12V83.17H73v1.71h2Zm4.16-1.26a2.5,2.5,0,0,1,.86.16l-.37,1.15a1.87,1.87,0,0,0-.75-.14c-.79,0-1.18.52-1.18,1.45v3.16H76.5V84.88h1.2v.69A1.61,1.61,0,0,1,79.15,84.74Z"/><path class="cls-2" d="M56.21,58.58a21.34,21.34,0,0,1,8-16.7A20.47,20.47,0,0,0,51.3,37.33a21.25,21.25,0,0,0,0,42.5,20.46,20.46,0,0,0,12.87-4.54,21.36,21.36,0,0,1-8-16.71"/><path class="cls-3" d="M97.87,58.58A21,21,0,0,1,77,79.83a20.44,20.44,0,0,1-12.87-4.54,21.51,21.51,0,0,0,0-33.41A20.44,20.44,0,0,1,77,37.33,21,21,0,0,1,97.87,58.58"/><path class="cls-4" d="M55.71,58.58A21.23,21.23,0,0,1,64.1,41.67a21.25,21.25,0,1,0,0,33.83A21.23,21.23,0,0,1,55.71,58.58Z"/><path class="cls-5" d="M77,37.33A21.16,21.16,0,0,0,64.1,41.67a21.23,21.23,0,0,1,0,33.83A21.25,21.25,0,1,0,77,37.33Z"/><ellipse class="cls-6" cx="64.1" cy="58.58" rx="8.39" ry="16.92"/><rect class="cls-7" width="128" height="128"/></svg>