<svg xmlns="http://www.w3.org/2000/svg" width="128" height="128" viewBox="0 0 128 128">
    <g fill="none" fill-rule="evenodd">
        <path fill="#85ACB0" fill-rule="nonzero" d="M85.32 56.44a5.29 5.29 0 0 1 4.41 2.16 8.61 8.61 0 0 1 1.66 5.4 8.35 8.35 0 0 1-1.73 5.39 5.36 5.36 0 0 1-4.34 2.14 4.35 4.35 0 0 1-4-2.32l-1.51 7.43h-6.2l4-19.95h3.69v2.1a4.35 4.35 0 0 1 4.02-2.35zm.85 5.15a2 2 0 0 0-3.41 0 4.77 4.77 0 0 0 0 4.81 2 2 0 0 0 1.7.91 2 2 0 0 0 1.7-.92 3.93 3.93 0 0 0 .66-2.39 4.12 4.12 0 0 0-.65-2.41zM97.22 71.48a6 6 0 0 1-3.84-1.16 3.69 3.69 0 0 1-1.45-3c0-3.18 3-4.11 5.65-4.49.81-.11 1.62-.21 2.44-.3a3.79 3.79 0 0 0 2.12-.71 1 1 0 0 0 .35-.84c-.09-1.88-3.23-1.64-4.34-1a2.17 2.17 0 0 0-.84 1.51h-5c.28-3.24 2.767-4.86 7.46-4.86s7.073 1.44 7.14 4.32v7.79a2.58 2.58 0 0 0 1 2v.44H103a2.57 2.57 0 0 1-.52-1.67 8.07 8.07 0 0 1-5.26 1.97zm5.27-6.12v-.89a10.1 10.1 0 0 1-1.72.4l-1.41.21c-1 .16-2.33.48-2.33 1.73s1.1 1.54 2.07 1.55c1.9 0 3.39-1.02 3.39-3z"/>
        <path fill="#BCCDCE" fill-rule="nonzero" d="M46.76 57.68a6.35 6.35 0 0 0-4.9-1.79h-.25a13.88 13.88 0 0 0-6 1.59 7.13 7.13 0 0 0-2.75 2.7.43.43 0 0 0 0 .44.55.55 0 0 0 .36.26l3.71.79a.58.58 0 0 0 .6-.22 2.68 2.68 0 0 1 1-.92 4.34 4.34 0 0 1 2.68-.33c.329.05.619.245.79.53a.46.46 0 0 1 0 .51c-.43.61-1.45 1-3.15 1.11h-.58a14.76 14.76 0 0 0-2.17.26 12.24 12.24 0 0 0-4.18 1.63A6.82 6.82 0 0 0 29 67.39 3.13 3.13 0 0 0 30.09 71a5.26 5.26 0 0 0 3.48 1.16 10.47 10.47 0 0 0 4.82-1.34c.024.19.075.375.15.55a.53.53 0 0 0 .5.32h4.74a.55.55 0 0 0 .51-.32l.19-.44a.47.47 0 0 0-.09-.48 1.08 1.08 0 0 1-.39-.85 1.59 1.59 0 0 1 .14-.45l2.29-5.85.28-.67c.67-1.52 1.47-3.41.05-4.95zm-7.88 7.76l.9-.13.54-.1v.08a4.94 4.94 0 0 1-3 2.87 3.32 3.32 0 0 1-2.49-.16c-.14-.11-.29-.28-.16-.69A2.46 2.46 0 0 1 36.34 66c.8-.239 1.62-.406 2.45-.5l.09-.06z"/>
        <path fill="#BCCDCE" fill-rule="nonzero" d="M55.18 59.87a3 3 0 0 1 2.38.31 1 1 0 0 1 .36.87v.19L63.07 60v-.1a3.44 3.44 0 0 0-1-2.43c-2-2-6-1.86-8.9-.89a8.83 8.83 0 0 0-4.48 3.05 3.13 3.13 0 0 0-.49 2.49 4.1 4.1 0 0 0 2.05 2.52c.524.3 1.08.539 1.66.71.32.1.74.19 1.14.28l.61.13a6.28 6.28 0 0 1 1.47.4c.39.17.62.42.61.66-.01.24-.22.46-.6.62a5.24 5.24 0 0 1-2.05.35 3.27 3.27 0 0 1-2.1-.48.89.89 0 0 1-.25-.75.44.44 0 0 0-.18-.38.57.57 0 0 0-.42-.12c-4.63.65-4.65.78-4.7 1.18a2.76 2.76 0 0 0 .16 1.42 4.64 4.64 0 0 0 3.63 2.69c.948.193 1.913.29 2.88.29a13.2 13.2 0 0 0 5.07-1c2.55-1.06 4.8-3.43 4.17-5.9-.54-2.12-2.72-2.52-4.65-2.88a12.29 12.29 0 0 1-2.17-.54c-.27-.11-.73-.29-.74-.57-.07-.55.84-.75 1.39-.88z"/>
        <path fill="#85ACB0" fill-rule="nonzero" d="M117.54 57l-2.89 8.56-3-8.56h-5.29s4.84 11.41 5.45 12.77c.224.455.343.953.35 1.46a1.51 1.51 0 0 1-.5 1.33 2.4 2.4 0 0 1-1.62.61H81.26l-.76 3.53c2.66 0 27.9.12 30.7 0a6.15 6.15 0 0 0 3.57-1c1.48-1.15 2.59-4.81 2.59-4.81s1.73-4.35 2.61-6.5L123 57h-5.46z"/>
        <path fill="#BCCDCE" fill-rule="nonzero" d="M79.81 58.46a2.74 2.74 0 0 0-.74-1 4 4 0 0 0-1.86-.82 13.85 13.85 0 0 0-3.2-.31 13.67 13.67 0 0 0-6.22 1.18 7.31 7.31 0 0 0-3.4 3.78h4.36a3.59 3.59 0 0 1 1.52-1.54 5.8 5.8 0 0 1 2.52-.45c1.62 0 2.37.38 2.26 1.14a1.88 1.88 0 0 1-.16.49 1.42 1.42 0 0 1-.33.41 3.61 3.61 0 0 1-.42.32 1.9 1.9 0 0 1-.55.23c-.23.06-.42.11-.56.16a4.76 4.76 0 0 1-.63.13l-.64.09-.64.07-.57.07-2 .23a12.71 12.71 0 0 0-3 .76 9.31 9.31 0 0 0-2.14 1.15 7.41 7.41 0 0 0-1.35 1.33 5.75 5.75 0 0 0-.77 1.23A3.75 3.75 0 0 0 61 68a2.52 2.52 0 0 0 1 2.52 5.51 5.51 0 0 0 3.45 1h10s.55-1.92.55-2.29c0-.12.18-.56.18-.56l3.33-8c.173-.38.3-.78.38-1.19a2 2 0 0 0-.08-1.02zm-7.71 6.91a2.88 2.88 0 0 1-1.26 1.51v3.35h-4.13L69 66.88a1.4 1.4 0 0 1-.26-1.51A2.71 2.71 0 0 1 71 63.52c1 0 1.44.83 1.1 1.85zM38.18 51.29h-2.57c-5.3 0-21.18.25-21.34.25v.32c.1 0 9.06 1.3 14.22 2h-.71a1.58 1.58 0 0 0-.31 0c-5.5 0-18.36.32-18.49.32v.32L27 56.7h-.86a2.57 2.57 0 0 0-1.31.18 2 2 0 0 0-.47.65 1.79 1.79 0 0 1-.76.84c-3 0-10.14.41-10.21.41v.32c.08 0 7.61 1.21 11.21 1.85l-.21.4c-5.48 0-19.18.36-19.32.36v.32l17.91 2-2.8 5.24c-3.32 0-9.78.44-9.85.45V70l14.68.73h.11l5-10.07h1.84l2.39-4.18h-2l.28-.57c.57-.74 1.17-1.11 1.66-1.07h.26c.427-.006.854.011 1.28.05h.09l2.55-3.65-.29.05z"/>
        <path d="M0 0h128v128H0z"/>
    </g>
</svg>
