<svg xmlns="http://www.w3.org/2000/svg" width="24" height="24" viewBox="0 0 24 24">
    <defs>
        <linearGradient id="yn3o7hbsja" x1="0%" x2="100%" y1="100%" y2="0%">
            <stop offset="0%" stop-color="#FF444F"/>
            <stop offset="100%" stop-color="#FF6444"/>
        </linearGradient>
    </defs>
    <g fill="none" fill-rule="evenodd">
        <path d="M0 0H18V18H0z" transform="translate(3 3)"/>
        <path fill="url(#yn3o7hbsja)" fill-rule="nonzero" d="M13.567.1c.598-.26 1.297 0 1.574.586l2.746 5.886c.275.583.03 1.278-.552 1.566l-.835.413v8.19c0 .651-.486 1.188-1.108 1.252l-.126.007H1.234C.553 18 0 17.436 0 16.74V8.01c0-.696.553-1.26 1.234-1.26h1.344l-.176-.315c-.14-.25-.185-.54-.128-.818l.038-.137c.107-.317.343-.575.652-.71zm2.211 12.15H.721v4.49c0 .257.182.47.421.515l.092.008h14.032c.283 0 .512-.234.512-.523v-4.49zm-2.653.5c1.036 0 1.875.84 1.875 1.875 0 1.036-.84 1.875-1.875 1.875-.267 0-.52-.056-.75-.156-.229.1-.483.156-.75.156-1.036 0-1.875-.84-1.875-1.875 0-1.036.84-1.875 1.875-1.875.267 0 .521.056.751.157.229-.101.482-.157.749-.157zm-1.512.766l-.109.006c-.556.06-.989.531-.989 1.103 0 .613.497 1.11 1.11 1.11h-.012c-.228-.311-.363-.695-.363-1.11 0-.415.135-.799.363-1.11zm1.524 0c.228.31.363.694.363 1.109 0 .415-.135.799-.363 1.11.606-.006 1.098-.5 1.098-1.11 0-.613-.497-1.11-1.11-1.11zm-.761.292l-.075.073c-.177.197-.286.458-.286.744 0 .324.139.615.36.818.221-.203.36-.494.36-.818 0-.323-.139-.614-.36-.817zm3.402-3.885H.721v1.327h15.057V9.923zM2.987 7.486H1.234c-.283 0-.512.235-.512.524L.72 9h14.871l.073-.64.003-.112c-.002-.1-.016-.207-.048-.306-.07-.215-.195-.32-.46-.32L3.046 7.594l-.06-.108zM14.465.92c-.131-.196-.39-.276-.612-.18L3.252 5.41c-.127.056-.225.162-.269.292-.044.13-.03.273.038.395l.363.654h1.475L4.5 5.807 7.322 4.5l.928 2.092-.347.158h7.363c.604 0 1.107.444 1.213 1.03l.54-.268c.218-.108.32-.354.252-.579l-.026-.067L14.499.981zM6.998 5.425l-1.64.76.216.565h.631l1.15-.524-.357-.8zm8.482-.335l.035.068-2.648 1.376-.035-.068L15.48 5.09zm-.64-1.26l.035.068-3.892 2.021-.035-.067L14.84 3.83z" transform="translate(3 3)"/>
    </g>
</svg>
