<svg id="Layer_2" data-name="Layer 2" xmlns="http://www.w3.org/2000/svg" viewBox="0 0 128 128"  role="img" aria-labelledby="zing-pay">
    <defs>
        <style>
            .cls-2{fill:#bccdce}.cls-3{fill:#9ad6d2}.cls-4,.cls-5{fill:#c7e5e5}.cls-4{opacity:.5}
        </style>
    </defs>
    <title id="zing-pay">
        ZingPay
    </title>
    <rect width="128" height="128" style="fill:none"/>
    <polygon class="cls-2" points="56.03 52.13 46.31 52.13 46.31 52.51 46.31 55.7 52.66 55.7 46.13 69.03 46.13 70.33 56.13 70.33 56.13 67.34 50.67 67.34 56.03 55.65 56.03 52.13"/>
    <path class="cls-2" d="M59.9,55.23a1.65,1.65,0,0,0,1.27-.55,2,2,0,0,0,.55-1.42,2,2,0,0,0-.54-1.4h0a1.67,1.67,0,0,0-1.24-.56,1.82,1.82,0,0,0-1.28.55h0a2.13,2.13,0,0,0,0,2.82A1.67,1.67,0,0,0,59.9,55.23Z"/>
    <polygon class="cls-2" points="58.1 57.28 58.1 70.33 61.72 70.33 61.72 56.87 58.1 56.87 58.1 57.28"/>
    <path class="cls-2" d="M73.56,57.63a3.61,3.61,0,0,0-3.16-1.46,4.31,4.31,0,0,0-2.83,1v-.8H63.69V70.33h3.88V61.44c0-.65,0-1.72.61-2.11a1.4,1.4,0,0,1,.63-.19,1.5,1.5,0,0,1,.76.11c.66.3.65,1.29.64,1.9l0,9.18h3.88V60.59a5.73,5.73,0,0,0-.44-2.78A1.74,1.74,0,0,0,73.56,57.63Z"/>
    <path class="cls-3" d="M96.52,54.38h0a6.31,6.31,0,0,0-4.41-1.32H87.77V70.93h3.82v-6.7a10.75,10.75,0,0,0,3.49-.52h0a4.23,4.23,0,0,0,2.15-1.93,6.82,6.82,0,0,0,.69-3.25A5.49,5.49,0,0,0,96.52,54.38Zm-4.93,6.87V56a2.27,2.27,0,0,1,1.82.63A3.22,3.22,0,0,1,94,58.79a2.58,2.58,0,0,1-.58,2A3,3,0,0,1,91.59,61.25Z"/>
    <polygon class="cls-3" points="98.99 64.47 99 64.46 99 64.46 99 64.46 98.99 64.47"/>
    <polygon class="cls-3" points="100.65 62.89 100.65 62.89 100.65 62.89 100.65 62.89"/>
    <polygon class="cls-3" points="99.73 70.1 99.7 70.06 99.7 70.06 99.7 70.06 99.73 70.1"/>
    <path class="cls-3" d="M107.38,57.64a5.15,5.15,0,0,0-3.53-1.2,5.55,5.55,0,0,0-3.41,1,3.83,3.83,0,0,0-1.5,2.9l0,.46h2.6l.09-.31a1.62,1.62,0,0,1,.7-1,2.77,2.77,0,0,1,1.47-.34,2.45,2.45,0,0,1,1.71.54,2.18,2.18,0,0,1,.57,1.7v1H103.2a5.35,5.35,0,0,0-2.55.55A3.8,3.8,0,0,0,99,64.46a4.67,4.67,0,0,0-.54,2.27,5.27,5.27,0,0,0,.33,1.88h0a4.31,4.31,0,0,0,.91,1.45,4,4,0,0,0,1.42,1,4.68,4.68,0,0,0,1.79.35,4.58,4.58,0,0,0,2.33-.58,3.79,3.79,0,0,0,.87-.68v1h2.68V61.35A4.67,4.67,0,0,0,107.38,57.64ZM105.81,65V66.2a3.16,3.16,0,0,1-.6,2,1.85,1.85,0,0,1-1.52.8,1.62,1.62,0,0,1-1.22-.55h0A2.23,2.23,0,0,1,102,66.9a2.3,2.3,0,0,1,.37-1.37,1.4,1.4,0,0,1,1.22-.5Z"/>
    <polygon class="cls-3" points="107.38 57.64 107.38 57.64 107.38 57.64 107.38 57.64"/>
    <polygon class="cls-3" points="116.26 74.07 116.26 74.07 116.26 74.07 116.26 74.07"/>
    <path class="cls-3" d="M121.76,56.66H118.4l-2.64,10.21-2.64-10.21h-4.06l5.21,14.94-.18.63h0a3,3,0,0,1-.81,1.47,2.15,2.15,0,0,1-1.47.44,5,5,0,0,1-.91-.06l-.5-.08v2.55l.36,0a9.21,9.21,0,0,0,1.37.1,5,5,0,0,0,1.88-.33,3.47,3.47,0,0,0,1.41-1h0a7.65,7.65,0,0,0,.84-1.26c.2-.39.41-.88.65-1.48h0l.35-1,5.09-15Z"/>
    <path class="cls-4" d="M24.54,74.83a.84.84,0,0,0,.06.14,2.55,2.55,0,0,0,.37.61,3.35,3.35,0,0,0,.43.49,4.69,4.69,0,0,0,1.07.75,5.66,5.66,0,0,0,.68.27A4.72,4.72,0,0,1,29,76.7a4.83,4.83,0,0,1,1.15.15,4.1,4.1,0,0,0,2.12-4,3.9,3.9,0,0,0-3-4,7,7,0,0,1-.8.06c-1.77,0-4.14-.71-5-2.45-.53-1.12,0-2.37-.27-3.53a4.33,4.33,0,0,0-1.68-2.43A4.22,4.22,0,0,0,19,59.69a3.94,3.94,0,0,0-3,6.66,4.3,4.3,0,0,0,2.88,1.39l.53,0a5.56,5.56,0,0,1,5.22,7.07Z"/>
    <path class="cls-4" d="M14,74.23v0a6.31,6.31,0,0,1-.08-.76s0-.08,0-.12v-.06h0a5.49,5.49,0,0,1,2.7-4.74l.05,0,0,0a5.44,5.44,0,0,1,2.66-.7c.47,0,.51-.28.95-.17a4.35,4.35,0,0,0,3-3.72,4,4,0,0,0-4.34-4.09,4.26,4.26,0,0,0-4.08,4.42,4.92,4.92,0,0,1-2.14,4.49C11.21,69.59,9.46,69,8,70a4.25,4.25,0,1,0,6.22,5.13A5.9,5.9,0,0,1,14,74.23Z"/>
    <path class="cls-2" d="M38.07,78.14A5.54,5.54,0,0,1,35,77.48a4.41,4.41,0,0,1-1.82-1.66v0a5.29,5.29,0,0,1-.87-2.93,5.43,5.43,0,0,1,.3-1.77,4.18,4.18,0,0,0-7.85,2.15A4,4,0,0,0,27.14,77a5,5,0,0,1,1.5-.31,4.72,4.72,0,0,1,5,4.16c.23,1.21,0,2.49.68,3.64a4.29,4.29,0,0,0,3.7,2.14,4.26,4.26,0,0,0,0-8.51Z"/>
    <path class="cls-5" d="M19,59.4a6.12,6.12,0,0,1-3.3-.58A4.62,4.62,0,0,1,14,57.08,3.63,3.63,0,0,1,13.67,56a6.35,6.35,0,0,1,0-2.81,4.25,4.25,0,1,0-3.87,5.73,5.12,5.12,0,0,1,2.94.71,4.28,4.28,0,0,1,1.51,1.51c.88,1.5.24,3.07,1.14,4.56a4.28,4.28,0,0,0,7.95-2.12A4.26,4.26,0,0,0,19,59.4Z"/>
    <path class="cls-5" d="M18.68,41.11a4.21,4.21,0,0,0-4,3.29c-.17.9-.15,1.83-.31,2.73a4.91,4.91,0,0,1-.87,2.11,3.1,3.1,0,0,1-1.89,1.21,13.1,13.1,0,0,1-2,0,4.25,4.25,0,0,0-1.25,8.29,4.39,4.39,0,0,0,5.09-2,1.55,1.55,0,0,0,.18-.51,2.44,2.44,0,0,0,0-.71,5.77,5.77,0,0,1,.35-3.13,4.26,4.26,0,0,1,2.18-2.24c1.29-.55,2.79-.32,4.12-.79A4.27,4.27,0,0,0,23,45.56a4.23,4.23,0,0,0-4.33-4.45Z"/>
    <path class="cls-2" d="M37.81,59.51a4.26,4.26,0,0,0-4.15,4.36,5.13,5.13,0,0,1-.7,2.94,4.54,4.54,0,0,1-1.51,1.51c-1.51.88-3.26.29-4.75,1.19a4.34,4.34,0,0,0,.52,7.54A4.74,4.74,0,0,1,29,76.7a4.58,4.58,0,0,1,1.66.31,4.35,4.35,0,0,0,2-1.94,5.57,5.57,0,0,1-.41-2.1,5.15,5.15,0,0,1,3.41-5,3.39,3.39,0,0,1,1.18-.19H37a5.57,5.57,0,0,0,3.07-.35,4.3,4.3,0,0,0,2.12-3.78A4.26,4.26,0,0,0,37.81,59.51Z"/>
    <path class="cls-2" d="M32.33,72.87a5.34,5.34,0,0,1,.36-1.93,4.3,4.3,0,0,0-3.73-2,5.18,5.18,0,0,0-.78.09,4.83,4.83,0,0,0-.74.22,4.76,4.76,0,0,0-.67.35,3.68,3.68,0,0,0-.59.45,3.78,3.78,0,0,0-.51.55,4.18,4.18,0,0,0-.4.63,4.23,4.23,0,0,0-.3.69,4.89,4.89,0,0,0-.16.76c0,.36,0,.73-.06,1.09a4.4,4.4,0,0,1-.05.51,4.1,4.1,0,0,1-.1.48,6.14,6.14,0,0,1-.38.92,6.65,6.65,0,0,1-.33.58,5,5,0,0,1-4.54,2.48,7,7,0,0,1-.81-.07,3.83,3.83,0,0,0-.84.35,4.32,4.32,0,0,0-2.08,3.78,4.31,4.31,0,0,0,8.62-.21,6.18,6.18,0,0,1,.3-2.42,4.64,4.64,0,0,1,4.52-3.46,4.84,4.84,0,0,1,1.87.38,4.33,4.33,0,0,0,1.93-1.88A5.32,5.32,0,0,1,32.33,72.87Z"/>
    <ellipse cx="28.53" cy="72.81" rx="3.78" ry="3.89" style="fill:#85acb0"/>
    <path class="cls-5" d="M21,78.54a5.72,5.72,0,0,1-1.5.21l-.2,0a5.46,5.46,0,0,1-5.42-5.48v-.08s0-.1,0-.16,0-.29,0-.44a3,3,0,0,1,.06-.42v0a4.54,4.54,0,0,1,.12-.53,4.35,4.35,0,0,0-3.91-2.23,4.26,4.26,0,1,0,.21,8.51,5.29,5.29,0,0,1,3,.7A4.45,4.45,0,0,1,15,80.08c.9,1.51.3,3.26,1.22,4.75a4.38,4.38,0,0,0,3.82,2,4.23,4.23,0,0,0,1-8.34Z"/>
    <ellipse class="cls-3" cx="19.07" cy="63.58" rx="4.25" ry="4.18"/>
    <path class="cls-2" d="M86.08,69.61a4,4,0,0,0-.78-1.16,3.73,3.73,0,0,0-1-.74,3,3,0,0,0-1.14-.3c-.27,0-.71,0-1.34-.08h-.26c-.5,0-.92-.06-1.23-.07h0a5.87,5.87,0,0,1-1.77-.46c-1.31-.6,0-1.74,0-1.74.1-.25,1.5-.25,1.5-.25a4.29,4.29,0,0,0,3-1.21,3.89,3.89,0,0,0,1.3-3,4.51,4.51,0,0,0-.22-1.38A4.05,4.05,0,0,0,83.41,58v-.08h2.87V56.6H82a10.35,10.35,0,0,0-1.11-.31,5.24,5.24,0,0,0-1.11-.12,4.62,4.62,0,0,0-3.3,1.21,4.07,4.07,0,0,0-1.29,3.1,3.76,3.76,0,0,0,.66,2.2,5,5,0,0,0,1.83,1.56v.2a3.73,3.73,0,0,0-1.4,1,2.15,2.15,0,0,0-.46,1.31,2.06,2.06,0,0,0,.2,1,2.12,2.12,0,0,0,.52.67,2.81,2.81,0,0,0,.68.42c.26.12.51.22.76.31v.18a4.24,4.24,0,0,0-2.52.87,2.64,2.64,0,0,0-1,2.16,2.85,2.85,0,0,0,1.37,2.58,7.7,7.7,0,0,0,4.13.89,10,10,0,0,0,2.84-.35,6.39,6.39,0,0,0,2-1A4,4,0,0,0,86,73a4.37,4.37,0,0,0,.38-1.8A4,4,0,0,0,86.08,69.61ZM78.29,59.22a2.94,2.94,0,0,1,.24-.82,1.42,1.42,0,0,1,.47-.57,1.19,1.19,0,0,1,.69-.2,1.26,1.26,0,0,1,1.14.71,3.92,3.92,0,0,1,.4,1.92,3.65,3.65,0,0,1-.4,1.81,1.23,1.23,0,0,1-1.13.72,1.25,1.25,0,0,1-1.07-.73,3.77,3.77,0,0,1-.41-1.86A6.37,6.37,0,0,1,78.29,59.22Zm4.39,14.07a3.23,3.23,0,0,1-2,.58,3.92,3.92,0,0,1-1.26-.17,2.26,2.26,0,0,1-.82-.43,1.62,1.62,0,0,1-.46-.61A1.75,1.75,0,0,1,78,72c0-1.47,1.19-2.07,2.44-2,.45,0,.9,0,1.35.09a2.19,2.19,0,0,1,1.17.29,1.44,1.44,0,0,1,.51,1.22A2.35,2.35,0,0,1,82.68,73.29Z"/>
</svg>
