<svg xmlns="http://www.w3.org/2000/svg" width="72" height="72" viewBox="0 0 72 72">
    <g fill="none">
        <path fill="#4873AC" d="M59.99 3.375l1.688 4.815 1.626-4.815h3.071l-1.704 4.157c-.495 1.21-1.469 3.656-1.469 3.656s-.624 2.059-1.456 2.706c-.596.39-1.297.586-2.009.562-1.575.068-15.772 0-17.268 0l.427-1.985h16.189c.336.003.66-.12.911-.344.213-.186.318-.467.282-.748-.004-.285-.072-.565-.197-.82-.344-.766-3.066-7.184-3.066-7.184h2.976zM45.18 3.06c.976-.027 1.903.428 2.48 1.215.645.879.974 1.949.934 3.037.039 1.094-.305 2.166-.973 3.032-.576.767-1.482 1.214-2.441 1.204-.938.033-1.812-.474-2.25-1.305l-.85 4.18h-3.487L40.843 3.2h2.076v1.18c.434-.84 1.315-1.355 2.261-1.321zm8.128.107c2.64 0 3.979.81 4.016 2.43v4.382c.007.44.214.855.563 1.125v.247h-2.762c-.204-.269-.308-.601-.292-.94-.822.713-1.872 1.106-2.96 1.109-.773.037-1.535-.194-2.16-.652-.524-.401-.827-1.028-.815-1.688 0-1.789 1.688-2.312 3.178-2.526.456-.061.911-.118 1.373-.168.428-.01.844-.15 1.192-.4.138-.117.211-.292.197-.472-.05-1.058-1.817-.923-2.441-.563-.268.206-.44.513-.473.85h-2.812c.157-1.823 1.556-2.734 4.196-2.734zm1.53 4.41c-.315.103-.639.178-.967.225l-.794.118c-.562.09-1.31.27-1.31.973s.619.866 1.164.872c1.069 0 1.907-.574 1.907-1.688v-.5zM44.7 5.42c-.391 0-.754.203-.959.537-.488.836-.488 1.87 0 2.705.21.324.57.517.956.512.387.004.748-.192.957-.517.265-.396.395-.868.37-1.345.022-.478-.106-.952-.365-1.355-.204-.334-.568-.537-.959-.537z" transform="translate(2.813 28.688)"/>
        <path fill="#F6931C" d="M20.734 2.75c1.02-.074 2.024.293 2.756 1.007.799.867.349 1.93-.028 2.785l-.158.377-1.288 3.29c-.038.08-.065.166-.078.254-.004.184.077.36.219.478.066.073.085.177.05.27l-.106.247c-.052.112-.164.182-.287.18h-2.666c-.122.003-.234-.068-.282-.18-.042-.099-.07-.203-.084-.31-.83.467-1.76.726-2.711.755-.71.024-1.405-.208-1.958-.653-.635-.464-.885-1.293-.613-2.03.342-.753.918-1.374 1.643-1.773.72-.447 1.517-.758 2.35-.916.403-.08.811-.128 1.221-.147h.327c.956-.062 1.53-.28 1.771-.624.058-.087.058-.2 0-.287-.096-.16-.259-.27-.444-.298-.51-.1-1.037-.035-1.507.186-.23.12-.423.3-.563.517-.077.105-.21.154-.337.124l-2.087-.444c-.085-.019-.159-.072-.203-.147-.045-.076-.045-.171 0-.247.367-.639.902-1.164 1.547-1.519 1.043-.55 2.197-.855 3.375-.894zm6.362.389c1.63-.546 3.88-.625 5.006.5.36.364.563.855.562 1.367v.056l-2.897.698v-.107c.019-.187-.057-.37-.202-.49-.403-.241-.888-.304-1.339-.174-.31.074-.821.186-.782.495.006.158.265.26.417.321.396.138.805.24 1.22.304 1.086.202 2.312.427 2.616 1.62.354 1.39-.911 2.722-2.346 3.318-.904.374-1.873.565-2.852.563-.544 0-1.086-.055-1.62-.163-.896-.117-1.669-.69-2.042-1.513-.1-.254-.13-.53-.09-.799.029-.225.04-.298 2.644-.664.085-.01.17.015.237.068.067.05.105.13.1.213-.02.155.031.311.141.422.352.221.769.316 1.182.27.393.012.785-.054 1.153-.197.213-.09.332-.213.337-.348.006-.135-.123-.276-.343-.371-.265-.109-.543-.184-.827-.226l-.343-.073c-.225-.05-.461-.1-.641-.157-.326-.096-.64-.23-.934-.4-.563-.293-.98-.806-1.153-1.417-.11-.485-.01-.994.276-1.4.639-.823 1.52-1.423 2.52-1.716zm11.362-.15l.36.01c.605-.013 1.209.046 1.8.173.383.062.743.22 1.046.462.18.153.323.345.417.562.064.184.08.382.045.574-.045.23-.117.455-.214.67l-1.873 4.5s-.102.247-.102.314c0 .209-.309 1.289-.309 1.289h-5.625c-.691.034-1.375-.164-1.94-.563-.448-.323-.667-.876-.563-1.418.033-.173.088-.34.163-.5.115-.248.26-.48.433-.692.22-.28.476-.532.76-.748.37-.267.776-.485 1.203-.647.543-.21 1.11-.354 1.688-.427l1.125-.13.32-.04.36-.039.36-.05c.12-.017.239-.041.355-.073.079-.029.185-.057.315-.09.11-.027.214-.07.31-.13.082-.054.161-.114.235-.18.076-.064.14-.143.186-.23.043-.088.073-.18.09-.276.062-.427-.36-.641-1.271-.641-.486-.022-.97.064-1.418.253-.367.194-.665.496-.855.866h-2.452c.362-.915 1.041-1.669 1.912-2.126 1.099-.492 2.297-.72 3.5-.664zM18.827.136l-1.435 2.053h-.05c-.24-.022-.48-.031-.72-.028h-.146c-.276-.022-.613.186-.934.602l-.158.32h1.125l-1.344 2.352H14.13l-2.813 5.664h-.061l-8.258-.41v-.158c.04-.006 3.673-.253 5.54-.253l1.576-2.948L.039 6.204v-.18c.08 0 7.785-.202 10.868-.202l.118-.225c-2.025-.36-6.26-1.04-6.306-1.04v-.18c.04 0 4.056-.231 5.744-.231.19-.107.34-.273.427-.473.063-.138.152-.263.264-.365.233-.098.487-.133.737-.102h.484L2.239 1.97v-.18c.073 0 7.307-.18 10.4-.18.058-.006.117-.006.175 0h.4C10.31 1.215 5.27.484 5.213.484v-.18c.087 0 8.373-.13 11.65-.14h1.8l.163-.029zm18.298 6.908c-.59.069-1.087.475-1.271 1.04-.125.287-.067.62.146.85l-1.288 1.884h2.323V8.932c.329-.19.58-.491.709-.849.191-.574-.056-1.04-.619-1.04zm-17.258.95l-.303.056-.506.074-.051.033c-.467.053-.928.147-1.378.281-.409.091-.754.362-.94.737-.073.231.012.327.09.389.438.21.94.243 1.401.09.772-.265 1.39-.855 1.688-1.615v-.045z" transform="translate(2.813 28.688)"/>
    </g>
</svg>
