
<svg role='img' aria-labelledby='payment-paysafe' xmlns="http://www.w3.org/2000/svg" width="96" height="96" viewBox="0 0 96 96">
    <title id='payment-paysafe'>Paysafe</title>
    <path fill="#85ACB0" d="M19.788 44.939c1.215 0 1.83.662 1.853 1.959v3.991a1.68 1.68 0 01-.548 1.194c-.33.338-.783.532-1.26.537h-2.625v2.88h-1.927v-8.529a2.364 2.364 0 01.472-1.51c.169-.155.364-.28.578-.368.219-.098.456-.151.697-.154h2.76zm13.215 0v5.155c0 .405.172.611.517.611h1.365a.63.63 0 00.42-.154.41.41 0 00.165-.324v-5.288h1.912v8.47a2.307 2.307 0 01-.487 1.472c-.326.384-.812.6-1.32.59h-4.5v-1.915h3.847a.644.644 0 00.398-.162.41.41 0 00.15-.31v-.464h-2.467a2.005 2.005 0 01-.75-.118 1.824 1.824 0 01-.608-.405 1.933 1.933 0 01-.42-.64 2.101 2.101 0 01-.127-.781v-5.737h1.905zM92.25 42.39v8.11c0 1.472-.832 2.209-2.37 2.157h-1.71a4.77 4.77 0 01-.967-.096 1.85 1.85 0 01-.848-.523 1.728 1.728 0 01-.39-.736 3.034 3.034 0 01-.09-.633v-3.565a1.968 1.968 0 01.593-1.66 2.048 2.048 0 011.702-.55h3.623V42.39h.457zM60.376 44.94h2.625a1.697 1.697 0 011.375.496c.356.363.524.867.455 1.367v1.532l-4.35 1.68h-.037v.124a.539.539 0 00.127.369c.042.099.139.165.248.169h3.96v1.944H60.57c-.299.021-.6 0-.892-.066a1.618 1.618 0 01-.623-.368 1.64 1.64 0 01-.427-.634c-.097-.3-.14-.613-.128-.928v-3.888c-.052-.499.13-.994.496-1.344.365-.35.873-.517 1.38-.453zm-32.803 0c1.275 0 1.92.626 1.942 1.819v4.065c.005.47-.169.924-.487 1.274-.32.346-.777.537-1.253.523h-2.647c-1.283 0-1.935-.589-1.958-1.73v-1.57a1.632 1.632 0 01.484-1.356 1.699 1.699 0 011.384-.47h2.565v-.191c0-.295-.165-.427-.518-.42H23.2v-1.944h4.373zm17.212 0v1.944H41.41c-.398 0-.593.118-.593.353v.162c0 .244.203.369.608.369h1.695c.443.008.863.195 1.162.515.317.32.497.747.503 1.193v1.414c-.024.457-.213.89-.533 1.223a1.497 1.497 0 01-.532.405c-.243.075-.496.11-.75.103h-4.073v-1.944h3.435c.315 0 .473-.133.488-.368v-.177a.407.407 0 00-.045-.17c-.083-.147-.173-.213-.285-.213h-1.703a1.939 1.939 0 01-1.297-.516 1.465 1.465 0 01-.57-1.097v-1.473c0-1.127.652-1.701 1.882-1.723h3.983zm5.767 0c1.275 0 1.92.626 1.942 1.819v4.065c.003.468-.167.921-.48 1.274a1.665 1.665 0 01-1.26.523h-2.647c-1.283 0-1.935-.589-1.95-1.73v-1.57c-.063-.498.11-.997.47-1.353.36-.357.867-.53 1.375-.473h2.565v-.191h.015c0-.295-.165-.427-.518-.42h-3.877v-1.944h4.365zm6.825-2.858v1.878h-.75c-.405 0-.615.199-.623.567v.413h1.365v1.944h-1.38v5.737h-1.927v-8.786c-.01-.487.208-.952.592-1.26a2.213 2.213 0 011.319-.494h1.404zm14.271 2.806v.457h-2.924a2.069 2.069 0 00-1.208.309 1.35 1.35 0 00-.45 1.156v3.631c0 .25.04.5.12.737.08.236.219.45.405.618.18.147.394.248.623.295.224.045.453.067.682.066h2.752v.457h-2.774v.007a3.862 3.862 0 01-.803-.073 1.663 1.663 0 01-.75-.354 1.829 1.829 0 01-.547-.736 2.58 2.58 0 01-.158-.936v-3.653c-.011-.263.02-.526.09-.78.082-.248.224-.473.413-.656.206-.212.464-.37.75-.457.27-.061.547-.091.825-.088h2.954zm12.937-.022v.457H84v.022c-1.08 0-1.605.596-1.582 1.723v5.553h-.465v-5.546c0-1.473.682-2.21 2.122-2.21h.51zm-7.237.022c.332 0 .663.024.99.074.152.028.295.088.42.176.147.093.277.21.383.347.35.446.532.998.517 1.56v3.485c0 .246-.02.492-.06.736a1.69 1.69 0 01-.382.737c-.346.37-.825.587-1.33.61h-2.473a2.07 2.07 0 01-1.455-.522 1.845 1.845 0 01-.577-1.473V49.49a1.792 1.792 0 01.504-1.488c.39-.396.94-.596 1.498-.545h3.84v-.508a1.783 1.783 0 00-.375-1.112 1.146 1.146 0 00-.555-.412 3.052 3.052 0 00-.75-.081h-4.155v-.457h3.96zm-67.16.052c1.223.007 1.86.662 1.86 1.959v3.726c-.022 1.297-.637 1.96-1.86 1.96H5.487a1.797 1.797 0 01-.705-.155 2.03 2.03 0 01-.577-.368 2.32 2.32 0 01-.45-1.473V46.97a2.32 2.32 0 01.45-1.51 2.03 2.03 0 01.577-.368c.222-.098.462-.151.705-.154zm81.605.405H88.14a2.655 2.655 0 00-.75.088 1.24 1.24 0 00-.637.39 1.292 1.292 0 00-.36.59c-.08.237-.11.487-.09.736v3.535c-.06.466.14.928.525 1.208.178.106.373.181.577.221.245.065.497.095.75.088h1.598a2.47 2.47 0 001.455-.405c.405-.32.623-.816.585-1.325v-5.126zM79.2 47.914h-3.87a1.515 1.515 0 00-1.088.42 1.53 1.53 0 00-.405 1.134v1.156c-.002.208.02.416.068.619.06.207.19.389.367.516.308.262.703.406 1.11.405h2.34c.983 0 1.5-.516 1.5-1.525l-.022-2.725zm-59.938-1.031h-1.5a.537.537 0 00-.406.165.517.517 0 00-.141.41v2.65a.533.533 0 00.169.423c.117.11.278.163.438.145h1.38a.461.461 0 00.353-.155.388.388 0 00.15-.31l-.008-2.864c0-.302-.157-.457-.435-.464zm5.925 2.511a.61.61 0 00-.105.413l.015.486c0 .11.06.211.157.265a.493.493 0 00.353.118h1.5c.337 0 .51-.125.517-.383v-.545c0-.295-.18-.442-.532-.442h-1.5a.677.677 0 00-.405.088zm22.979 0a.61.61 0 00-.105.413l.015.486c0 .11.06.211.157.265a.508.508 0 00.353.118h1.5c.337 0 .51-.125.517-.383v-.545c0-.295-.18-.442-.532-.442h-1.5a.677.677 0 00-.405.088zm14.212-2.511h-1.343a.6.6 0 00-.42.14.426.426 0 00-.202.353v.759l2.415-.87v-.043a.3.3 0 00-.12-.25.593.593 0 00-.33-.09zM7.807 40.5c2.17-.05 3.972 1.636 4.024 3.767.024.245.024.492 0 .737a2.138 2.138 0 00-1.065-.508c-.28-1.336-1.477-2.294-2.865-2.294-1.388 0-2.585.958-2.865 2.294a2.203 2.203 0 00-.457.147l.007-.015c-.221.1-.428.229-.615.383v-.758c.056-2.042 1.734-3.704 3.836-3.753z"/>
</svg>