<svg id="Layer_2" data-name="Layer 2" xmlns="http://www.w3.org/2000/svg" viewBox="0 0 128 128"><defs><style>.cls-1{fill:#85acb0;fill-rule:evenodd;}.cls-2{fill:none;}</style></defs><title>Payment logo</title><path class="cls-1" d="M120.84,55.49c-1.5-1-3.78-1.53-6.76-1.53h-7.81l-2.91,15.52H93.13L93.78,66H100l.73-3.95H94.52l.66-3.51h6.35l.85-4.55H89.48L86.72,68.69H82L84.77,54H78L75.27,68.69H70.66L73.44,54H66.7L63.79,69.49H53.48L54.13,66h6.19L61.05,62H54.87l.66-3.52H62L62.79,54H22.6l-2.29,12.3L15.76,54h-7L5,74h6.68L14,61.4,18.38,74H42.32l2.91-15.53H49L46.06,74h63l1.83-9.8,3,9.8h6.69l-3.06-8,.69-.15a6,6,0,0,0,3.59-2.07A6.4,6.4,0,0,0,123,59.76,4.76,4.76,0,0,0,120.84,55.49Zm-84.34,14H26.28L26.94,66h6.41l.73-4H27.73l.61-3.49H38.55Zm78.83-6.76a5.21,5.21,0,0,1-3,.69H111l1-5.39h1a4.65,4.65,0,0,1,2.47.53,2.1,2.1,0,0,1,1,1.88A2.59,2.59,0,0,1,115.33,62.72Z"/><rect class="cls-2" width="128" height="128"/></svg>