<svg xmlns="http://www.w3.org/2000/svg" width="72" height="72" viewBox="0 0 72 72">
    <g fill="none" fill-rule="evenodd">
        <path d="M0 0H72V72H0z"/>
        <g fill-rule="nonzero" transform="translate(17.438 7.875)">
            <ellipse cx="18.257" cy="18.242" fill="#FFF" opacity=".5" rx="18.233" ry="18.242"/>
            <path fill="#E21624" d="M14.013 24.414c-.09-.032-.186-.044-.282-.034-.102.003-.19.074-.215.173-.014.088-.005.178.024.263.029.086.062.167.096.248.03.073.08.135.143.182.206.13.402-.086.45-.272 0-.067 0-.134.028-.201.006-.064-.005-.129-.033-.187-.046-.082-.121-.143-.21-.172z"/>
            <path fill="#E21624" d="M14.339 25.275c.158-.14.243-.344.23-.555-.029-.116-.082-.224-.158-.316-.116-.149-.29-.241-.479-.253-.11-.008-.222.01-.325.052.166-.17.4-.254.636-.23.295.08.517.321.574.621.056.3-.065.606-.31.786-.039 0-.092.086-.14.082-.047-.005-.043-.13-.043-.13l.015-.057zM11.248 7.392v-.13c.002.042.002.083 0 .125v.005zM6.244 11.707s-.412-.655.631-2.038c-.108.53-.05 1.08.168 1.574.216.383.294.83.22 1.263.337-.319.499-.78.435-1.24-.148-.698-.732-.99 0-2.784-.577.52-1.1 1.097-1.56 1.723-.21.483-.425.799.106 1.502z"/>
            <path fill="#E21624" d="M7.722 10.009s.072-1.21 1.646-1.986c-.21.105-.402.852-.478 1.081-.116.402-.185.817-.206 1.235.027.765-.285 1.504-.852 2.019.125-.091.36-.12.503-.206.573-.354.952-.952 1.028-1.622.077-.694-.086-1.473.34-2.086.249-.359.564-.957 1.038-1.076 0 0-3.263.024-3.019 2.64z"/>
            <path fill="#E21624" d="M18.248.737c7.081-.001 13.465 4.265 16.175 10.807 2.71 6.543 1.21 14.074-3.799 19.08-4.422 4.422-10.869 6.15-16.91 4.53-6.041-1.618-10.76-6.337-12.38-12.378-1.618-6.042.11-12.488 4.532-16.91C9.141 2.568 13.601.721 18.248.735m0-.736C10.868-.002 4.216 4.441 1.39 11.258-1.435 18.074.125 25.92 5.34 31.14c5.218 5.218 13.064 6.78 19.882 3.956 6.817-2.823 11.262-9.475 11.262-16.854C36.485 8.17 28.32.002 18.248 0z"/>
            <path fill="#E21624" d="M35.26 18.257c.027-9.24-7.326-16.812-16.563-17.056h-1.225c-9 .426-16.099 7.81-16.17 16.821v1.125c0 .11 0 .22.024.325v.072c0 .124 0 .243.033.363v.048l.043.383v.043c0 .124.034.253.053.373.002.022.002.045 0 .067l.057.35c.003.034.003.07 0 .104l.058.297c0 .057.024.115.038.172.014.058.029.149.048.225.019.077.038.172.062.258.024.087 0 .087.034.134.028.12.062.24.095.36v.023c2.031 7.343 8.71 12.431 16.329 12.44h.09C27.62 35.17 35.21 27.61 35.26 18.256zm-6.908 13.017c-.613.033-1.228-.027-1.823-.177-.572-.163-1.081-.497-1.46-.956-.387-.479-.717-1.01-1.08-1.536-.361-.538-.773-1.039-1.23-1.498-.464-.458-.989-.85-1.56-1.167-.56-.32-1.167-.553-1.798-.689-.63-.128-1.278-.144-1.914-.048-.634.104-1.244.323-1.799.646.577-.255 1.19-.417 1.818-.478.62-.046 1.244.01 1.847.167 1.195.326 2.282.965 3.148 1.852.431.443.823.923 1.172 1.435.35.538.728 1.058 1.134 1.555.22.253.474.473.756.655.284.178.596.308.923.383.516.116 1.047.151 1.574.105-.182.134-.364.259-.545.383-.206.074-.42.122-.637.143-.54.135-1.061.333-1.555.589-.275.16-.604.2-.91.11-.305-.09-.56-.304-.702-.589-.065-.13-.203-.209-.35-.196-.096.01-.194.01-.291 0-.43-.067-.478-.646-.813-.713-.335-.067-.751-.148-.957-.54-.062-.125-.13-.187-.263-.13-.383.13-.748.306-1.086.527-.217.127-.333.374-.292.622.065.276.31.473.593.478.39.042.73.285.895.641.207.239.252.577.115.862-.174.358-.567.555-.957.478.204-.091.38-.237.507-.421.153-.18.153-.443 0-.622-.168-.215-.302-.067-.45.029-.23.148-.378 0-.478-.173-.078-.138-.194-.251-.335-.325-.522-.277-.885-.072-.89.55 0 .278-.057.479-.325.57-.134.038-.335-.12-.326.177-.01.215.125.411.33.478.097.012.195.012.292 0-.316.258-.411.287-.646.148-.3-.178-.456-.527-.387-.87.122-.56.374-1.083.737-1.526-.555-.063-.732.349-.91.636-.176.287-.277.478-.645.296-.153-.086-.278 0-.364.144-.126.225-.136.497-.028.732.107.234.32.403.574.454-.34.173-.383.187-.627-.028-.343-.245-.509-.67-.421-1.081.092-.494.403-.918.847-1.153.23-.115.435-.283.655-.417.086-.052.182-.1.153-.215-.029-.115-.129-.1-.23-.1-.363.023-.631-.03-.478-.508.038-.129-.086-.167-.182-.143-.296.062-.607.134-.708.478 0 .091.053.235-.139.206-.19-.029-.124-.167-.114-.268.046-.302.222-.57.48-.733.259-.163.576-.206.869-.118.267.07.505.225.68.44.086.14.24.226.406.226.165 0 .32-.086.406-.226.414-.386.903-.682 1.436-.871.397-.177.66-.411.512-.847-.115-.335-.058-.799-.541-.918h-.043c-.096-.512-.68-.565-.914-1-.186-.36-.551-.593-.957-.608-.387 0-.722-.11-1.047.215-.106.11-.388.039-.646.053.185.246.522.321.794.177.325-.105.33.048.258.282-.143.326-.37.607-.66.814-.32.277-.306.478.096.602.1.034.253.039.249.187-.005.148-.14.21-.268.244-.34.086-.737.081-.747.588 0 .03-.081.087-.1.077-.522-.263-.369.21-.479.421-.11.21-.062.426-.401.234-.34-.19-.45 0-.479.321.017.23-.02.462-.11.675-.158 0-.187-.115-.21-.22-.09-.364-.305-.685-.608-.905-.207-.159-.351-.386-.407-.64-.038-.144-.2-.403.192-.26.138.053.134-.085.134-.176 0-.172-.053-.354.067-.517.23-.029.148.268.363.292.106-.324.286-.62.526-.861.132-.185.23-.39.292-.608.106-.325.182-.689-.153-.928-.328-.203-.752-.164-1.038.096-.144.095-.191.34-.445.272 0 0-.1.091-.096.14.027.311.221.584.508.712.079.052.176.068.268.044.091-.025.168-.088.21-.173.153-.268.086-.479-.249-.617.104-.057.228-.063.336-.016.109.046.19.14.22.255.077.29-.041.597-.293.76-.198.16-.48.16-.68 0-.224-.183-.41-.41-.55-.664-.119-.158-.2-.45-.449-.34-.249.11 0 .354 0 .55-.27-.014-.527-.128-.718-.32-.11-.077-.23-.134-.344 0-.115.134-.053.21.033.301.225.244.11.526.058.78-.054.214-.26.354-.479.325-.263 0-.454-.13-.478-.478.21.105.392.397.603.143.21-.253.072-.435-.058-.631-.129-.196-.234-.354-.574-.23-.34.124-.478-.23-.45-.478.014-.336-.07-.669-.243-.957-.152-.38-.067-.814.215-1.11.249-.316.536-.192.847 0 .65.435 1.019.383 1.67-.12.114-.086.19-.167.138-.32-.139-.407.1-.608.421-.747.847-.354.847-.349.885-1.258.196 0 .244.182.421.191 0-.157-.033-.3-.043-.444-.127-.92.402-1.803 1.273-2.125.378-.172.775-.306 1.167-.478.5-.19.943-.505 1.287-.914.077-.09.139-.282.282-.191.144.09 0 .239-.028.368-.164.496-.553.885-1.048 1.048-.478.194-.943.418-1.392.67-.449.267-.706.766-.665 1.287h.124c1.306-1.522 3.052-2.153 4.966-2.45.636-.096 1.277-.177 1.914-.301 1.335-.263 1.913-.708 2.942-2.172.02.774-.337 1.51-.957 1.976-.716.473-1.537.763-2.392.846-1.09.127-2.157.404-3.172.823-.883.375-1.633 1.007-2.153 1.813-.076.12-.205.25-.148.388.057.139.258.062.392.067.63-.013 1.252-.158 1.823-.426.22-.081.478-.182.44.23 0 .206.144.182.268.172.225 0 .45-.062.675-.062.225 0 .631-.1.406.402-.071.167.077.182.182.205.359.091.723.163 1.081.264.36.1.44.234.173.512-.173.177-.125.272.1.325.225.052.435.12.656.167.22.048.406.096.478.297.072.2-.144.33-.292.454l-.177.154c.238.1.493.155.751.162.33.072.713-.033.957.359.072.13.316.096.478.038.163-.057.058-.249.039-.373-.173-.772-.258-1.562-.254-2.354.034-.426-.287-.512-.65-.521-.563-.051-1.036-.446-1.187-.99-.159-.49-.01-1.026.378-1.364.066-.072.17-.093.258-.053-.188.305-.271.663-.239 1.02.043.176.062.382.225.478.163.095.177-.163.282-.24.302-.22.426 0 .574.202.082.105.14.31.316.23.177-.082.048-.26.034-.393-.087-.78-.302-1.56.09-2.32.186-.462.615-.782 1.11-.828.287-.05.567.114.665.387-.478-.086-.86-.105-1.157.287-.297.393-.287.622.081.924.187.12.246.367.134.56-.206.315-.13.679-.215 1.009-.055.2.053.408.248.478.125-.406.235-.803.364-1.196.11-.358.333-.67.636-.89.201-.18.496-.209.728-.071.232.12.35.387.282.64-.144.025-.134-.114-.196-.171-.235-.23-.44-.1-.646.047-.206.149-.053.264.048.412.085.104.122.238.103.371-.019.133-.093.252-.204.327-.166.147-.287.338-.35.55-.21.646.159 1.067.838.929.33-.067.479.048.512.382 0 .168 0 .35.201.388.218.028.428-.096.507-.301.156-.34.156-.729 0-1.067.473.431.535 1.153.144 1.66-.491.345-1.15.328-1.622-.043-.23-.21-.479-.412-.818-.263-.34.148-.35.45-.345.741.013.242.04.484.082.723.047.349.172.588.607.574.227.006.444.088.617.234.297.235.397.105.512-.163.115-.267.13-.588.479-.598.349-.01.368.316.516.517.04.041.084.08.13.115.08-.196.148-.373.215-.55.215-.54.363-.57.784-.125.23-.268.163-.617.268-.904.077-.206.091-.478.445-.325.259.11.23-.134.278-.273.1-.287-.1-.775.478-.751.086 0 .082-.158.077-.254 0-.244 0-.478-.034-.727 0-.129 0-.325.144-.32.507 0 .268-.33.296-.555.034-.302-.387-.737.278-.866.124 0 .029-.292.024-.45 0-.364-.33-.751.186-1.067.14-.081 0-.42-.057-.64-.048-.321-.335-.685.144-.958.028 0 0-.148 0-.22-.122-.402-.22-.81-.292-1.225 0-.086-.063-.134-.144-.172-.373-.182-1.038-.478-1.225.144-.234.78.144 1.885-.306 2.483-.45.598-.804.957-1.373.191 0 0 .957.115.876-.478-.272-.211-.325-.6-.12-.876.378-.45-.115-.478-.048-.784.067-.307.45-.747.048-.89-.402-.144-.282-.34-.478-.574-.197-.235-.45 0-.369-.58 0 0-.65.092-.698-.32-.048-.411.402-.555.32-.713-.073-.127-.201-.214-.347-.234-.146-.02-.293.027-.4.129-.33.297-.353-.12-.272-.187.22-.317.608-.472.986-.392 0 0-.12-.148-.144-.163-.143-.11-.268-.071-.43-.11-.278-.062-.263-.54-.043-.66.392-.215-.082-.607-.393-.536l-.674.153c.182-.224.545-.956 1.081-.564.366.3.688.649.957 1.038 0 0 .923-.33 1.052.44.13.77 0 1.397.412 1.737.411.34 1.502.478 1.913.517-.019-.055-.046-.107-.08-.153l-.417-.651c-.158-.249-.373-.479.076-.689.168-.072.044-.215 0-.33-.143-.354-.478-.608-.478-1.043 0-.153-.191-.134-.306-.177-.602-.183-1.129-.556-1.502-1.062.272-.091.516.172.75 0 0-.163-.148-.192-.248-.259-.994-.592-1.75-1.515-2.134-2.607-.373-1.01-.823-1.971-1.875-2.469-.082-.033-.163-.138-.1-.186.449-.34-.03-.397-.173-.479-.775-.535-1.61-.978-2.488-1.32.077.21.263.297.407.416 2.555 2.143 3.483 4.89 2.636 8.071-.78 3.1-2.933 4.98-6.047 5.808-1 .259-2.024.139-3.033.273-3.574.478-6.976 3.435-7.866 6.932-.047.201-.09.407-.12.613.018-.438.073-.873.163-1.302.244-1.298.061-2.641-.521-3.827-1.038-1.627-.421-4.306-.421-4.306-1.205 1.452-1.774 3.329-1.579 5.205-1.435-3.033 1.24-5.573 2.574-6.597l.292-.096c-1.507 2.134-1.22 4.186-.168 6.277.177-.177.1-.373.087-.545-.067-.957-.278-1.914-.287-2.87-.07-.998.49-1.933 1.401-2.345.096-.048.196-.168.292-.038.096.129 0 .215-.067.306-.193.19-.412.35-.65.478-.57.379-.775 1.12-.479 1.737.168-.115 0-.263.043-.392.053-.264.029-.575.45-.541.148 0 .225-.11.253-.249.057-.194.178-.363.345-.478.115-.1.306-.105.282.062-.033.277.148.612-.177.842-.143.105-.282.301-.153.44.13.139.325.043.478-.105.06-.048.124-.09.192-.124.062.478-.263.564-.636.64.151.062.316.083.478.063.115 0 .2-.259.335-.043.057.095.134.2.086.31-.075.15-.244.228-.407.187-.052 0-.11-.067-.158 0 .378.292.804.1 1.115-.478.341-.639.286-1.417-.143-2-.134-.24-.278-.478-.412-.713-.076-.139-.191-.31 0-.42.174-.099.39-.086.55.033.584.382.795.335 1.158-.311.201-.354.33-.479.479.062.191-.2.26-.486.181-.751-.059-.252-.075-.513-.047-.77.028-.149.076-.302.22-.354.143-.053.22.09.267.205.048.115.173.12.244 0 .113-.15.21-.31.292-.478.244-.54.24-.54.861-.87.278.655-.32.994-.574 1.616h.03c.758-.41 1.43-.962 1.98-1.626.154-.2.29-.413.406-.637.29-.63.453-1.311.479-2.004.194.233.327.51.387.808.048.183.061.373.039.56-.026.247-.088.488-.182.718.106-.113.203-.233.292-.36.137-.203.248-.423.33-.655.174-.58.018-1.209-.407-1.64-.127-.135-.272-.251-.43-.345l-.053-.015.062.03c.797.346 1.433.982 1.78 1.779.446.933.566 1.99.34 3-.479 1.497-1.981 1.798-3.35 2.19-1.655.48-4.042 1.33-4.305 2.67 1.593-2.344 5.262-1.708 7.564-2.626 1.688-.68 2.392-2.053 2.53-3.751.053-.512.058-2.019.058-2.019 1.263 2.694.76 5.454-2.531 6.497-.925.228-1.865.388-2.813.478-3.306.55-5.655 2.407-7.2 5.344-.029.058-.05.12-.063.182 0 .024 0 .058.03.096.214-.11.296-.335.43-.507 1.708-2.406 4.479-3.833 7.43-3.828 2.193-.053 4.263-1.025 5.705-2.677 1.443-1.653 2.126-3.835 1.882-6.015-.097-.938-.542-1.806-1.248-2.43-1.254-1.053-3.35-1.077-4.746-.321-.694.378-1.215.956-2.034 1.08-.167.025-.363.13-.478-.08-.115-.211 0-.288.067-.412s.11-.215.225-.421l.555.282s-.268-.851 0-1.071c.268-.22 1.01-.383.507.344 0 0 .426-.454.617-.378.192.077.077.22.077.22.256-.007.488-.149.612-.373.505.108 1.017-.156 1.22-.631 0 0-.866.315-.957-.144-.09-.46 2.526-.813 3.66.622-.206-.258-.258-.55-.536-.77-.33-.247-.713-.411-1.12-.479-.752-.108-1.52-.02-2.229.254-1.148.397-1.258.24-1.267.186.019-.028.041-.053.067-.076.626-.225.956-.78 1.349-1.24.243-.244.623-.29.918-.11-.182-.406-.095-.52.283-.44 1.342.27 2.657.665 3.927 1.178 4.506 2.094 7.84 6.093 9.09 10.903-.006.085-.017.17-.033.253-.957-2.269-2.392-4.305-4.205-5.97.478.66 1.023 1.291 1.52 1.947 1.75 2.184 2.85 4.817 3.173 7.597.033.306.048.612.057.919C34.6 23 32.872 26.957 29.916 29.9c-.22.225-.45.44-.684.646l-.88.727zM3.086 24.74c-.384-.957-.677-1.949-.875-2.961C.857 14.845 3.086 9.2 8.64 4.86c.222-.19.515-.274.804-.23.59.051 1.185.043 1.775-.024l1.693-.162c-.242.462-.566.877-.957 1.224-.073.12-.2.197-.341.207-.141.01-.278-.05-.367-.159-.234-.21-.402-.478-.808-.12-.244.197-.747.063-1.125.182C8 6.25 6.856 7.11 6.038 8.243c-2.942 3.646-3.995 7.808-3.349 12.44.112.766.291 1.522.536 2.257.009.055.055.097.11.1-.507-2.98-.536-5.908.392-8.807-.024.343.03.686.158 1.005.225.507.718.87.818 1.435.1.565-.2 1.01-.387 1.464-.416 1-.957 2.143-.957 3.248 0 0 1.526-3.736 2.536-4.645.478-.435.167-.828-.149-1.163-.687-.614-1.063-1.504-1.023-2.425.01-.368.059-.733.143-1.091 0-.062.043-.12.062-.177.746-2.228 2.494-3.977 4.722-4.722.393-.127.796-.215 1.206-.263.186-.048.38-.057.57-.029-.345.328-.627.715-.833 1.144-.507 1.11-.436 1.564-.436 1.564s.307-.282.479-.177c-.077.45-.144.923-.24 1.387-.033.411-.326.754-.727.852-.368.105-.574.478-.775.804-.112.19-.307.315-.526.34-.665.129-1.316-.13-1.98-.039-.356.057-.674.256-.88.55-.208.295-.287.66-.22 1.015.042-.326.147-.479.396-.479.249 0 .067.273.187.373.105 0 .11-.081.134-.153.024-.072.105-.225.234-.191.13.033.081.172.072.277-.01.106-.067.287.1.412.264-.297.397-.723.823-.857.096-.028.182-.076.273 0 .09.077.072.201 0 .307-.139.268-.388.478-.249.87.072.196-.306.311-.55.479.655.024 1.09-.445 1.186-1.24-.021-.337.156-.657.455-.817.521-.273.478.291.689.444.081.058.086.11.057.158l-.162.134-.067.053-.149.13c-4.133 3.554-4.88 7.51-4.88 7.51.1-.392 1.369-1.789 1.369-1.789-1.66 4.306 1.626 8.52 1.626 8.52-.477-1.007-.75-2.1-.803-3.214 0-1.005.363-1.641.923-2.44.332-.476.558-1.018.66-1.589.058-.325.254-1.478-.033-1.765 1.084 1.24 1.253 3.033.42 4.454-1.363 2.67-.033 4.306-.033 4.306-.191-.91.263-2.665.263-2.665.036 1.34.801 2.553 1.995 3.162.708.713 1.54.866 2.603.163-.368.957 0 1.598.521 2.206.58.603.707 1.51.316 2.248-.095.168-.186.34-.402.383-.138-.096-.038-.206-.028-.306.116-.717-.15-1.443-.704-1.914-.448-.314-.663-.867-.545-1.402.048-.253 0-.354-.292-.282-.385.098-.792.072-1.162-.072-.115.082-.072.158-.048.23.148.387-.077.378-.335.306-.634-.198-1.205-.56-1.655-1.048-.096-.095-.168-.296-.33-.22-.163.077-.072.263-.053.397.057.35.137.695.239 1.034.134.34.24.69.316 1.048-.196-.149-.388-.297-.589-.436-1.013-.718-1.931-1.562-2.732-2.512-.918-1.155-1.677-2.427-2.258-3.784zM16.482 9.65c-.072.178-.1.37-.186.546-.211.417-.53.769-.924 1.02-1.04.584-2.264.755-3.425.478 1.004-.273 1.83-.985 2.248-1.938.546-1.435.933-2.526 2.727-3.095-.08.042-.156.093-.225.153-.186.138-.362.29-.526.454-.286.29-.514.63-.674 1.005-.158.373-.201.775-.321 1.158-.207.646-.594 1.22-1.115 1.655-.117.11-.258.191-.411.24 0 0 2.258-.288 2.832-1.675zm-5.11-1.674c.627-.196 1.206 0 1.833-.048.348-.048.683-.165.986-.344 0 0-.479.9-1.22.875-.742-.023-1.952-.244-2.627.67 0 0 .096-1.579 1.359-2.282 0 0 .22-.153.736.043-.695.23-1.279.714-1.636 1.354.072-.134.417-.215.565-.268h.005zm3.622-1.172c.38-.2.7-.5.924-.866-.087.144-.063.407-.163.58-.224.33-.548.579-.923.712-.165.078-.336.138-.512.182-.082.024-.632 0-.641 0 .181-.158.416-.263.588-.44.22-.227.34-.532.335-.847 0-.555.163-1.177.741-1.392-.511.181-.043 1.617-.354 2.071h.005zm-.397-3.727c-.057.163-.163.244-.325.177l-1.656-.397c.177-.232.47-.343.756-.287.345.062.685.163 1.024.258.1.034.268.053.196.25h.005zm-.56 1.029c.119.104.255.185.402.24-1.306-.594-2.741-.144-4.205-.48.531-.349.957-.626 1.536-.416.17.052.344.088.521.106.613.081 1.278-.015 1.746.55zm-.956 4.56c.3-.037.59-.127.856-.269.158-.086.588-.33.631-.54-.406 1.913-1.708 2.186-1.708 2.186s-.89-.024-.11-.206c.533-.197.958-.608 1.173-1.134 0 0-.292.479-1.302.421-.576-.043-1.154.073-1.67.335.14-.995 1.508-.722 2.149-.794h-.02zm2.545-1.718s-.11.028.205-.326c.194-.219.307-.497.321-.789 0-1.053.68-1.115.68-1.115-.206.149-.254.55-.254.904-.017.257-.089.506-.21.732.377 0 .904-.598.904-.598-.091.838-1.627 1.192-1.627 1.192h-.02zm1.588-3.603c0-.234.139-.363.359-.344.081.008.155.052.202.119.046.067.062.15.042.23 0 .206-.115.364-.335.387-.22.024-.263-.19-.249-.392h-.019zm.718.043c.047-.15.023-.315-.067-.445-.13-.118-.313-.157-.479-.1-.178.036-.344.12-.478.244.12-.14.275-.246.45-.306.19-.087.413-.049.563.096.15.145.196.366.116.56-.062.179-.181.334-.34.44.11-.149.197-.313.254-.489h-.02zm-1.196-1.004c-.676.331-1.462.357-2.158.071-.086-.033-.21-.038-.215-.158-.005-.12.115-.138.205-.157 1.638-.372 3.321-.495 4.995-.364.038 0 .072.043.134.081l-.775.503c-.08.054-.187.054-.268 0-.601-.292-1.305-.284-1.9.024h-.018z"/>
            <path fill="#E21624" d="M14.568 15.109s.957-1.78 2.637-2.35c1.679-.569 2.09-1.239 2.478-1.808 0 0 .478 1.55-1.55 3.019 0 0 2.97-.177 1.602-4.75-.218 1.244-1.085 2.278-2.272 2.712-1.99.67-2.737 2.66-2.895 3.177zM1.455 53.664c-.15-.07-.313-.107-.478-.105-.166 0-.33.038-.479.11-.14.073-.257.182-.34.316-.083.146-.124.311-.12.478v.929c-.004.167.037.333.12.478.08.138.198.25.34.32.148.075.313.113.479.11.166.003.33-.034.478-.11.14-.068.257-.174.34-.306.084-.144.126-.31.12-.478.001-.03-.011-.06-.034-.081-.02-.02-.048-.03-.077-.03h-.273c-.025-.006-.051-.006-.076 0-.021.023-.033.052-.034.082.005.117-.038.231-.12.316-.09.079-.209.12-.33.115-.123.008-.244-.036-.334-.12-.082-.082-.125-.195-.12-.31v-.958c-.006-.117.038-.231.12-.315.092-.082.212-.125.335-.12.12-.003.239.04.33.12.082.084.125.198.12.315 0 .03.012.06.033.082.021.018.048.028.076.028h.355l.023-.057v-.038c.008-.168-.034-.334-.12-.479-.083-.125-.198-.226-.334-.292zM3.656 53.674c-.149-.074-.313-.114-.479-.115-.166 0-.33.04-.478.115-.143.076-.262.19-.345.33-.08.146-.122.311-.12.479v.851c-.002.167.04.332.12.479.081.142.2.258.345.334l.033-.066-.033.066c.148.076.312.116.478.115.166 0 .33-.04.479-.115.142-.078.26-.194.34-.334.082-.146.125-.311.124-.479v-.851c0-.168-.042-.333-.125-.479-.081-.138-.199-.252-.34-.33zm-.034.813v.871c.005.128-.042.252-.129.345-.194.171-.486.171-.68 0-.085-.094-.13-.218-.124-.345v-.87c-.007-.129.038-.255.125-.35.09-.09.213-.136.34-.129.125-.003.247.043.339.13.088.093.135.22.13.348zM6.35 53.588h-.274c-.03-.002-.06.01-.08.033-.022.022-.034.051-.034.082v1.574l-.995-1.627c-.025-.034-.064-.055-.106-.057h-.268c-.03-.002-.06.01-.081.033-.02.023-.03.052-.029.082v2.435c-.001.03.01.059.029.081.023.02.052.03.081.029h.273c.03.001.06-.01.081-.029.021-.022.033-.05.034-.081v-1.58l1 1.632c.023.035.063.055.105.053h.263c.03.003.06-.008.081-.029.022-.021.032-.051.03-.081v-2.435c0-.03-.01-.06-.03-.082-.02-.023-.05-.035-.08-.033zM8.272 53.664c-.15-.07-.313-.106-.478-.105-.166 0-.33.037-.478.11-.142.07-.26.18-.34.316-.083.146-.124.311-.12.478v.929c-.004.167.037.333.12.478.077.14.196.252.34.32.148.076.312.113.478.11.166.003.33-.035.478-.11.14-.067.256-.173.335-.306.085-.144.127-.31.12-.478.004-.03-.007-.06-.029-.081-.02-.02-.048-.03-.076-.03h-.278c-.025-.007-.052-.007-.076 0-.026.02-.038.051-.034.082.004.118-.041.232-.124.316-.192.157-.468.157-.66 0-.083-.081-.127-.195-.12-.311v-.957c-.008-.117.036-.233.12-.316.09-.08.208-.123.33-.12.122-.007.241.036.33.12.083.084.128.198.124.316-.004.031.008.063.034.082.02.019.048.03.076.028h.359v-.1c.007-.168-.034-.334-.12-.479-.075-.123-.182-.224-.31-.292zM9.459 53.588h-.273c-.03-.002-.06.01-.081.033-.022.021-.033.052-.029.082v2.435c-.004.03.007.06.029.081.022.02.051.03.081.029h.273c.03.001.059-.009.081-.029.022-.02.033-.05.029-.081v-2.435c.004-.03-.007-.06-.029-.082-.02-.023-.05-.035-.081-.033zM11.636 53.588h-1.062c-.083-.002-.164.015-.24.048-.143.066-.258.182-.325.325-.03.076-.046.157-.048.24v1.435c.002.082.018.163.048.239.032.073.077.14.134.196.056.054.12.097.191.13.076.032.157.049.24.047h1.062c.033.002.066-.01.09-.034.025-.025.039-.06.039-.095v-.249c.001-.036-.013-.07-.038-.096-.024-.024-.057-.038-.091-.038h-1.062c-.028.003-.055-.008-.072-.029-.018-.02-.029-.045-.029-.071v-.479h1.163c.034.004.068-.008.09-.033.025-.026.039-.06.039-.096v-.249c0-.035-.014-.07-.038-.095-.024-.025-.057-.04-.091-.039h-1.163v-.478c0-.027.01-.053.029-.072.019-.02.045-.03.072-.029h1.062c.033 0 .065-.012.09-.033.025-.026.039-.06.039-.096v-.253c0-.035-.013-.068-.038-.091-.029-.013-.061-.015-.091-.005zM14.009 56.104l-.479-1.019c.131-.043.246-.125.33-.234.102-.138.154-.307.149-.478.002-.144-.033-.285-.1-.412-.067-.117-.165-.213-.283-.277-.128-.069-.271-.103-.416-.1h-.957c-.064 0-.115.05-.115.114v2.435c-.002.031.01.061.034.081.022.02.051.03.08.03h.274c.03 0 .058-.01.08-.03.02-.022.031-.051.03-.08v-.996h.416l.478 1.038c.01.02.025.039.043.053h.35c.026.003.052-.006.071-.024.022-.02.034-.047.034-.077v-.038l-.02.014zm-1.393-2.066h.517c.093-.004.183.03.248.096.066.066.1.156.097.248.004.09-.029.179-.091.244-.07.063-.16.096-.254.091h-.517v-.68zM15.688 53.67c-.148-.076-.312-.114-.478-.11-.166 0-.33.037-.479.11-.141.072-.259.183-.34.32-.083.145-.125.31-.12.478v.924c-.005.167.037.333.12.478.08.138.198.25.34.32l.034-.066-.034.067c.149.074.313.112.479.11.252.014.5-.072.688-.24.18-.185.273-.436.259-.693v-.479c0-.03-.013-.06-.034-.081-.022-.02-.051-.03-.081-.029h-.813c-.03-.001-.06.01-.082.029-.02.022-.033.05-.033.081v.225c.001.03.013.06.033.081.023.02.052.03.082.03h.42v.214c.008.107-.035.211-.114.283-.09.073-.205.11-.32.1-.127.007-.25-.036-.345-.12-.086-.082-.131-.197-.125-.315v-.957c-.005-.117.038-.232.12-.316.092-.081.212-.124.335-.12.12-.004.238.037.33.115.081.075.125.182.12.292v.034c-.002.03.009.059.028.081.023.02.052.03.082.029h.272c.03.001.06-.01.082-.029.02-.022.033-.05.033-.081 0-.155-.04-.307-.12-.44-.078-.14-.196-.253-.339-.326zM18.142 53.588H17.08c-.082-.001-.164.015-.239.048-.143.066-.259.182-.325.325-.03.076-.047.157-.048.24v1.435c.001.082.018.163.048.239.031.073.077.14.134.196.055.054.12.097.191.13.075.032.157.048.24.047h1.061c.034.003.067-.01.091-.034.025-.025.038-.06.038-.095v-.249c.002-.036-.012-.07-.038-.096-.023-.025-.056-.039-.09-.038H17.08c-.026.005-.052-.007-.067-.029-.021-.017-.034-.044-.033-.071v-.479h1.162c.034.005.069-.007.091-.033.025-.026.038-.06.038-.096v-.249c0-.035-.013-.07-.038-.095-.023-.026-.056-.04-.09-.039H16.96v-.478c0-.028.012-.054.033-.072.017-.02.041-.03.067-.029h1.062c.034 0 .066-.011.091-.033.025-.026.038-.06.038-.096v-.253c0-.072-.058-.13-.129-.13l.02.034zM21.472 53.956c-.068-.121-.17-.22-.292-.287-.13-.069-.274-.103-.42-.1h-.958c-.063 0-.114.051-.114.115v2.44c0 .03.012.059.033.08.022.02.052.031.081.03h.273c.03.003.06-.008.081-.03.022-.02.032-.05.03-.08v-.957h.568c.15.002.297-.031.431-.096.122-.064.224-.162.292-.282.072-.127.109-.27.105-.416 0-.146-.039-.29-.11-.417zm-1.296.067h.535c.098-.008.194.027.264.096.069.07.106.165.1.263.005.097-.031.19-.1.258-.071.068-.166.102-.264.096h-.535v-.713zM23.697 56.114l-.794-2.445c-.009-.023-.024-.043-.044-.057-.023-.007-.048-.007-.071 0h-.36c-.021-.007-.044-.007-.066 0-.021.014-.038.034-.048.057l-.785 2.44v.034c-.002.03.01.061.034.081.023.008.048.008.072 0h.292c.021.006.045.006.067 0 .02-.014.037-.034.047-.057l.115-.378h.919l.115.378c.01.023.026.043.047.057.022.006.046.006.067 0h.297c.023.008.048.008.072 0 .024-.02.036-.05.033-.081v-.034l-.01.005zm-.761-.722h-.655l.33-1.053.325 1.053zM25.429 53.588h-.335c-.02-.006-.042-.006-.062 0-.022.01-.04.026-.048.048l-.479.957-.478-.957c-.01-.02-.028-.037-.048-.048-.02-.006-.042-.006-.062 0h-.297c-.023-.008-.048-.008-.072 0-.02.02-.031.048-.033.076v.048l.741 1.397v1c0 .064.052.115.115.115h.273c.03 0 .06-.012.081-.033.02-.023.03-.052.029-.082v-1l.751-1.401v-.1l-.076-.034v.014zM27.792 53.588h-.268c-.04 0-.079.017-.105.048l-.574.86-.574-.855c-.023-.036-.063-.058-.106-.058h-.272c-.031-.002-.061.01-.082.034-.02.022-.033.05-.033.081v2.435c0 .03.012.06.033.081.023.02.052.03.082.03h.272c.03 0 .06-.01.082-.03.02-.022.03-.051.028-.08V54.53l.398.594c.025.031.064.05.105.052h.134c.044 0 .085-.021.11-.057l.387-.593v1.612c-.002.03.01.06.034.081.022.02.051.03.081.029h.268c.03.001.059-.009.081-.029.023-.02.036-.05.034-.081v-2.435c0-.064-.052-.115-.115-.115zM29.969 53.588H28.92c-.082 0-.164.015-.24.048-.07.033-.135.078-.19.134-.057.053-.101.118-.13.191-.032.076-.048.157-.048.24v1.435c0 .082.016.163.048.239.028.074.073.14.13.196.056.053.12.096.19.13.076.031.158.048.24.047h1.062c.036.005.071-.007.097-.033.025-.025.037-.06.032-.096v-.249c.003-.035-.009-.07-.033-.096-.026-.024-.06-.038-.096-.038h-1.062c-.026.003-.051-.008-.067-.029-.02-.018-.03-.044-.029-.071v-.479h1.158c.036.004.07-.008.096-.033.024-.026.036-.06.033-.096v-.249c.003-.035-.01-.07-.033-.095-.026-.025-.06-.039-.096-.039h-1.172v-.478c0-.054.042-.098.096-.1h1.062c.035 0 .068-.012.096-.034.023-.026.035-.06.033-.096v-.253c.003-.034-.01-.067-.033-.091-.03-.013-.065-.015-.096-.005zM32.27 53.588h-.249c-.035 0-.07.014-.095.038-.024.024-.037.057-.034.091v1.593l-.847-1.646c-.015-.02-.035-.038-.057-.052-.024-.007-.048-.007-.072 0h-.363c-.036 0-.07.014-.096.038-.024.024-.036.057-.034.091v2.392c-.004.036.008.071.033.097.025.025.061.037.097.032h.248c.035.003.07-.009.096-.033.025-.026.038-.06.038-.096V54.53l.857 1.646c.01.025.029.045.052.058.026.004.051.004.077 0h.349c.035.003.07-.01.096-.034.024-.026.038-.06.038-.096v-2.392c0-.034-.013-.067-.038-.09-.026-.024-.06-.036-.096-.034zM34.375 53.588h-1.717c-.036 0-.07.014-.096.038-.026.023-.039.057-.034.091v.24c-.004.035.008.07.034.095.027.022.06.034.096.034h.602v2.018c0 .036.014.07.039.096.024.024.057.036.09.034h.254c.035.002.07-.01.096-.034.021-.027.033-.06.033-.096V54.1h.603c.035 0 .069-.012.096-.034.024-.025.038-.06.038-.095v-.254c.001-.034-.013-.067-.038-.09-.025-.026-.06-.04-.096-.04zM36.36 55.128c-.077-.1-.174-.184-.287-.244-.136-.07-.277-.132-.42-.186-.168-.062-.288-.115-.364-.148-.057-.029-.107-.068-.148-.115-.032-.043-.048-.096-.043-.149-.007-.078.027-.154.09-.2.088-.058.192-.085.297-.077.13-.007.258.03.364.105.077.061.121.155.12.254v.067c-.002.03.008.059.028.081.022.02.051.032.081.034h.273c.029-.002.056-.014.077-.034.023-.02.035-.05.033-.081v-.072c.004-.148-.04-.294-.124-.416-.086-.122-.204-.218-.34-.278-.152-.063-.314-.095-.478-.095-.231-.01-.459.056-.646.191-.164.133-.256.335-.25.545-.003.137.037.271.116.383.073.1.168.181.277.24.138.07.28.132.426.186.12.046.236.099.35.158.063.028.12.07.167.124.03.042.046.092.048.144 0 .082-.037.159-.101.21-.094.067-.21.098-.325.086-.137.007-.272-.028-.388-.1-.078-.055-.124-.144-.124-.24v-.11c0-.063-.052-.114-.115-.114h-.292c-.03-.002-.06.01-.081.033-.021.022-.033.051-.034.082v.1c-.001.148.042.293.125.416.088.12.207.212.344.268.161.064.334.095.507.091.245.014.487-.057.684-.2.172-.135.27-.343.264-.56.002-.135-.036-.267-.11-.379zM.015 44.981L36.48 44.981 36.48 44.675.015 44.675M.015 44.067V38.03h1.368c.525-.016 1.048.045 1.555.181.407.117.785.321 1.105.599.649.569 1.017 1.392 1.01 2.254-.007.863-.39 1.68-1.048 2.238-.323.276-.7.482-1.105.607-.5.13-1.015.187-1.531.168l-1.354-.01zM1 43.211h.445c.371.009.742-.035 1.1-.13.291-.089.561-.235.795-.43.46-.407.723-.991.723-1.605s-.263-1.198-.723-1.605c-.551-.408-1.23-.604-1.914-.555H.981l.02 4.325zM15.894 42.589h-2.665l-.694 1.478h-1.01l2.92-6.147h.315l2.818 6.147h-1.029l-.655-1.478zm-.369-.866l-.957-2.076-.956 2.076h1.913zM23.879 41.039c-.005-.838.342-1.64.956-2.21.596-.603 1.411-.937 2.259-.924 1.744.01 3.156 1.423 3.167 3.167.01.845-.338 1.655-.957 2.23-1.21 1.184-3.131 1.23-4.397.105-.683-.593-1.06-1.464-1.028-2.368zm.928 0c-.023.924.52 1.768 1.369 2.132.849.363 1.834.173 2.487-.481.874-.914.874-2.354 0-3.268-.89-.88-2.321-.88-3.21 0-.435.433-.67 1.028-.646 1.64v-.023zM31.074 44.115L31.074 37.896 31.375 37.896 35.576 42.044 35.576 37.877 36.48 37.877 36.48 44.096 36.25 44.096 31.973 39.79 31.973 44.096zM8.713 41.958c.706-.13 1.287-.63 1.52-1.31.235-.678.085-1.43-.391-1.968-.637-.56-1.617-.636-2.421-.646H5.914v6.033h.885v-5.3h.727c.856 0 1.842.344 1.947 1.33.043.498-.259.961-.732 1.124-.46.158-.95.218-1.435.177v.2l2.44 2.47h1.153l-2.186-2.11zM22.821 43.847c-.616.211-1.262.324-1.913.335-.84.075-1.669-.222-2.27-.812-.6-.59-.91-1.415-.85-2.254 0-1.814 1.254-3.139 3.292-3.139.52-.013 1.036.083 1.516.282v.637c-.5-.18-1.028-.265-1.56-.25-.661-.052-1.313.189-1.782.658-.47.47-.71 1.121-.657 1.783 0 1.545.928 2.454 2.344 2.454.405.016.81-.039 1.196-.163v-1.975h-1.54v-.632h2.224v3.076zM.398 51.741H.015v-6.1h2.162c.462-.048.925.08 1.297.36.338.317.532.757.54 1.22.007.464-.174.91-.502 1.238-.383.287-.857.425-1.335.388H.397v2.894zm1.798-3.258c.38.033.757-.085 1.048-.33.255-.235.396-.568.388-.914.012-.382-.154-.748-.45-.99-.314-.197-.684-.283-1.052-.244H.398v2.478h1.798zM9.038 48.215L9.038 45.627 9.421 45.627 9.421 51.727 9.038 51.727 9.038 48.598 5.579 48.598 5.579 51.741 5.196 51.741 5.196 45.641 5.579 45.641 5.579 48.215zM16.88 48.641c-.022 1.673-1.391 3.014-3.064 3-1.673-.014-3.02-1.378-3.012-3.05.006-1.674 1.364-3.026 3.037-3.026 1.682.026 3.033 1.394 3.038 3.076zm-5.704 0c.027 1.469 1.234 2.64 2.703 2.622 1.469-.019 2.647-1.22 2.636-2.689-.01-1.468-1.205-2.653-2.674-2.65-1.481.026-2.667 1.236-2.665 2.717zM18.448 46.015L18.448 48.464 21.386 48.464 21.386 48.837 18.448 48.837 18.448 51.272 22.118 51.272 22.118 51.751 18.037 51.751 18.037 45.641 22.118 45.641 22.118 46.015zM30.227 51.741L29.835 51.741 29.835 45.632 30.227 45.632zM31.753 45.641L32.294 45.641 34.064 48.263 35.834 45.641 36.375 45.641 34.361 48.627 36.48 51.741 35.944 51.741 34.064 48.986 32.203 51.741 31.672 51.741 33.777 48.627zM28.074 51.717L23.907 46.455 23.907 51.669 23.568 51.669 23.568 45.56 27.735 50.77 27.735 45.641 28.074 45.641z"/>
        </g>
    </g>
</svg>
