<svg xmlns="http://www.w3.org/2000/svg" width="72" height="72" viewBox="0 0 72 72">
    <g fill="none" transform="translate(2.813 23.063)">
        <path fill="#474747" d="M42.064 8.533c.21 0 .419.023.624.068.211.046.42.104.624.174h2.408v.742h-1.614v.046c.176.202.315.435.41.686.082.25.123.512.124.776.016.643-.251 1.26-.731 1.688-.452.438-1.058.682-1.688.68 0 0-.787 0-.843.14 0 0-.737.642 0 .98.316.137.652.225.995.258l.112.007c.159.011.355.033.58.033h.146c.355.045.602.045.754.045.223.013.44.07.641.168.21.107.4.247.563.417.183.19.332.41.439.652.116.284.174.588.168.895.002.348-.071.693-.214 1.012-.154.328-.386.613-.674.832-.34.253-.72.443-1.125.563-.52.142-1.059.208-1.598.197-.806.053-1.61-.12-2.323-.5-.504-.306-.8-.863-.77-1.452-.017-.471.192-.922.562-1.215.407-.311.904-.483 1.417-.49v-.1c-.14-.051-.281-.108-.427-.175-.138-.06-.267-.14-.383-.236-.122-.105-.221-.233-.292-.377-.084-.175-.123-.369-.113-.563.003-.267.094-.526.259-.736.215-.247.485-.44.788-.563v-.113c-.41-.204-.763-.505-1.03-.877-.25-.364-.38-.796-.371-1.238-.02-.658.244-1.294.726-1.743.504-.463 1.171-.707 1.856-.68zm.371 7.78c-.703-.04-1.373.298-1.373 1.125.002.127.03.253.08.37.057.134.146.252.258.344.135.111.292.194.461.242.23.07.47.102.709.095.4.019.796-.096 1.125-.326.273-.242.434-.586.444-.95.022-.262-.085-.518-.287-.687-.2-.115-.427-.171-.658-.163-.253-.05-.506-.05-.759-.05zM28.705 6.26v1.98l-3.016 6.575h3.072v1.682h-5.625v-.731l3.673-7.498h-3.572V6.26h5.467zm3.2 2.666v7.571h-2.036V8.927h2.036zm4.883-.394c.694-.049 1.364.261 1.777.821.019.033.036.067.05.102.212.492.297 1.03.248 1.563v5.48h-2.182v-5.165c.005-.343.01-.9-.36-1.068-.135-.058-.282-.08-.428-.062-.125.007-.246.043-.354.107-.343.219-.343.82-.343 1.187v5h-2.183V8.646h2.183v.45c.446-.373 1.01-.572 1.592-.563zm5.225.821c-.138-.003-.273.036-.388.113-.115.082-.206.192-.264.32-.068.147-.113.302-.135.462-.028.182-.04.367-.04.551-.014.363.066.723.23 1.046.11.239.341.397.603.41.273.003.522-.155.635-.404.162-.314.24-.665.225-1.018.018-.373-.06-.745-.225-1.08-.119-.246-.368-.401-.64-.4zm-11.11-3.56c.267.001.521.116.698.315l.08.095c.149.199.228.442.224.692.006.297-.105.584-.31.799-.18.203-.442.316-.714.31-.266-.002-.52-.116-.697-.316-.4-.453-.4-1.133 0-1.586l.1-.09c.176-.139.393-.216.62-.22z"/>
        <path fill="#72C579" d="M66.01 8.764L63.145 17.2l-.197.563-.079.195c-.103.25-.196.462-.286.637-.134.252-.292.489-.473.709l-.134.144c-.189.182-.413.324-.659.418-.337.13-.696.193-1.057.186-.258 0-.516-.018-.771-.056h-.203v-1.434l.282.045c.169.026.34.038.512.033.296.022.59-.066.826-.247.228-.227.386-.514.456-.827l.101-.355-2.93-8.403h2.284l1.485 5.743 1.485-5.743h1.89l.331-.045zm-10.407-.079c.723-.03 1.431.21 1.986.675.561.543.852 1.308.793 2.087v5.512h-1.508v-.562c-.143.15-.308.28-.489.382-.4.224-.853.336-1.31.327-.346 0-.688-.066-1.008-.197-.304-.127-.576-.319-.798-.563-.224-.235-.398-.512-.512-.815l-.068-.206c-.08-.276-.12-.563-.118-.852-.008-.444.096-.884.304-1.277.216-.372.54-.67.928-.855.445-.22.938-.326 1.434-.31h1.62v-.562c.036-.35-.081-.698-.32-.956-.27-.219-.615-.328-.962-.304-.288-.014-.574.053-.827.192-.2.129-.34.33-.394.562l-.05.175H52.84v-.26c.024-.642.333-1.24.844-1.63.56-.393 1.234-.59 1.918-.563zM49 6.784c.891-.074 1.777.191 2.481.742l.138.163c.482.613.716 1.39.65 2.172.023.632-.11 1.26-.389 1.828-.263.492-.691.877-1.209 1.085l-.32.094c-.535.141-1.088.208-1.643.199v3.769h-2.149V6.784zm7.707 6.716l-1.25.017c-.26-.027-.518.079-.685.281-.15.229-.222.498-.209.77-.024.314.07.625.265.873l.079.079c.166.148.382.23.607.23.342 0 .661-.169.855-.45.237-.326.356-.723.338-1.125V13.5zm-7.858-5.07l-.141.008v2.953c.362.026.723-.064 1.03-.26.261-.312.38-.72.325-1.124.039-.432-.079-.863-.331-1.215-.272-.264-.647-.394-1.024-.354z"/>
        <path fill="#A8E2C1" d="M10.991 19.03c.01.027.02.053.034.078.053.124.123.24.208.343.072.1.153.192.242.276.18.168.383.31.602.422.124.059.252.11.382.152.329-.143.683-.218 1.041-.22.218.002.435.03.647.085.813-.443 1.282-1.329 1.192-2.25.056-1.06-.655-2.007-1.687-2.25-.15.02-.3.03-.45.033-.996 0-2.329-.399-2.813-1.378-.298-.63 0-1.333-.151-1.985-.146-.553-.48-1.036-.945-1.367-.412-.3-.909-.46-1.418-.456-.902-.035-1.736.481-2.106 1.304-.371.824-.206 1.79.418 2.442.42.46 1 .74 1.62.782h.299c.966.023 1.868.491 2.442 1.27.574.777.757 1.777.494 2.707l-.05.011z"/>
        <path fill="#93D9E5" d="M5.063 18.692c-.024-.142-.04-.284-.045-.428v-.101c-.003-1.095.575-2.11 1.518-2.666h.028c.457-.257.972-.393 1.497-.394.264 0 .287-.157.534-.095.93-.299 1.593-1.121 1.688-2.093.016-.64-.24-1.257-.707-1.696-.466-.44-1.097-.66-1.735-.605-1.32.055-2.345 1.167-2.295 2.487.085.997-.375 1.963-1.204 2.525-.849.456-1.833.124-2.654.687-.883.551-1.307 1.61-1.049 2.618.258 1.008 1.137 1.734 2.176 1.795 1.039.06 1.997-.557 2.371-1.528-.054-.165-.096-.334-.123-.506z"/>
        <path fill="#A8E2C1" d="M18.602 20.891c-.6.046-1.2-.083-1.727-.371-.423-.208-.778-.532-1.024-.934-.321-.489-.492-1.062-.49-1.648.001-.339.059-.675.17-.995-.522-.96-1.635-1.434-2.687-1.146-1.053.289-1.77 1.264-1.729 2.355-.016.905.511 1.732 1.339 2.098.27-.101.555-.16.843-.174 1.412-.094 2.648.935 2.813 2.34.13.68 0 1.4.383 2.047.43.743 1.222 1.201 2.08 1.204 1.278-.062 2.28-1.115 2.28-2.394 0-1.278-1.002-2.331-2.28-2.393l.029.011z"/>
        <path fill="#93D9E5" d="M7.875 10.35c-.637.066-1.28-.047-1.856-.326-.4-.235-.73-.573-.957-.979-.093-.192-.155-.397-.185-.607-.118-.52-.118-1.06 0-1.581-.425-1.143-1.641-1.782-2.824-1.485C.871 5.669.102 6.808.268 8.015.434 9.223 1.482 10.113 2.7 10.08c.579-.036 1.155.103 1.654.4.35.206.642.498.85.849.494.843.134 1.727.64 2.565.553.92 1.648 1.365 2.686 1.088 1.037-.277 1.766-1.207 1.786-2.28-.012-.636-.275-1.241-.733-1.682-.458-.441-1.072-.682-1.708-.67z"/>
        <path fill="#93D9E5" d="M7.695.062c-1.086.028-2.013.79-2.25 1.85-.096.507-.084 1.03-.174 1.536-.068.429-.236.835-.49 1.187-.257.352-.636.594-1.063.68-.374.03-.75.03-1.125 0-1.168.02-2.151.88-2.326 2.035C.093 8.505.78 9.617 1.89 9.979c1.1.338 2.287-.129 2.863-1.125.05-.09.085-.186.101-.287.02-.133.02-.267 0-.4-.099-.593-.03-1.203.197-1.76.235-.56.673-1.01 1.226-1.26.726-.31 1.57-.18 2.318-.445.89-.345 1.49-1.184 1.53-2.137.035-.662-.208-1.309-.67-1.784C8.991.306 8.351.045 7.688.061h.006z"/>
        <path fill="#A8E2C1" d="M18.456 10.412c-1.322.034-2.366 1.131-2.335 2.452.038.579-.1 1.155-.393 1.654-.212.347-.503.638-.85.85-.85.495-1.834.163-2.672.669-.735.485-1.152 1.328-1.091 2.206.06.878.59 1.656 1.384 2.035.318-.13.658-.196 1.001-.197.32 0 .636.06.934.175.484-.23.88-.614 1.125-1.092-.153-.375-.231-.776-.23-1.18-.038-1.255.736-2.39 1.917-2.813.213-.075.438-.111.664-.107H18c.583.098 1.181.03 1.727-.197.752-.442 1.207-1.254 1.192-2.126-.017-.636-.287-1.239-.749-1.675-.462-.437-1.079-.672-1.714-.654z"/>
        <path fill="#81D9B9" d="M15.373 17.927c0-.371.069-.74.203-1.086-.454-.717-1.25-1.144-2.099-1.125-.147.006-.293.023-.438.05-.142.031-.281.072-.416.125-.131.055-.257.121-.377.196-.12.073-.23.158-.332.254-.106.093-.202.197-.287.309-.086.111-.16.23-.225.354-.068.124-.124.254-.169.388-.041.14-.071.283-.09.428 0 .203 0 .41-.034.613-.003.096-.013.192-.028.287-.013.091-.032.181-.056.27-.057.178-.129.351-.214.518-.056.111-.118.22-.185.326-.526.903-1.51 1.44-2.554 1.395-.153-.005-.305-.018-.456-.04-.165.047-.323.113-.472.197-.742.45-1.187 1.26-1.17 2.127.032 1.338 1.144 2.397 2.483 2.365 1.34-.033 2.398-1.145 2.365-2.484-.034-.46.023-.923.17-1.36.303-1.154 1.35-1.955 2.542-1.947.361 0 .719.073 1.052.214.465-.228.845-.599 1.085-1.058-.198-.41-.3-.86-.298-1.316z"/>
        <ellipse cx="13.236" cy="17.893" fill="#81D9B9" rx="2.126" ry="2.188"/>
        <path fill="#93D9E5" d="M9 21.116c-.275.077-.559.117-.844.118h-.112c-1.692-.012-3.055-1.39-3.049-3.082v-.045-.09-.248c.006-.08.017-.158.034-.236.016-.1.039-.2.067-.298-.443-.794-1.29-1.278-2.2-1.254-.879-.015-1.696.453-2.128 1.22-.432.767-.408 1.708.06 2.453.47.744 1.309 1.172 2.187 1.113.59-.039 1.177.098 1.687.394.372.193.689.475.923.822.506.849.169 1.833.686 2.671.47.726 1.285 1.153 2.149 1.125 1.204 0 2.219-.9 2.362-2.096.144-1.196-.63-2.31-1.8-2.595L9 21.116z"/>
        <path fill="#81D9B9" d="M10.822 23.36c-.034-1.073-.779-1.993-1.822-2.25h-.068c-.073 0-.151.034-.225.051h-.663c-.145-.002-.29-.014-.433-.034-.164.044-.32.108-.467.192-.742.45-1.187 1.26-1.17 2.126.014.773.415 1.487 1.069 1.901l.095.062c.114.07.234.129.36.174h.056c.119.04.237.068.355.096h.107c.142.014.285.014.427 0 1.283-.017 2.329-1.035 2.38-2.317z"/>
        <ellipse cx="7.914" cy="12.701" fill="#81D9B9" rx="2.391" ry="2.351"/>
    </g>
</svg>
