
<svg xmlns="http://www.w3.org/2000/svg" width="32" height="32" viewBox="0 0 32 32">
    <g fill="none" fill-rule="evenodd" transform="translate(1)">
        <path fill="#85ACB0" fill-rule="nonzero" d="M4 1v30c0 .552.448 1 1 1h24c.552 0 1-.448 1-1V7.914c0-.265-.105-.52-.293-.707L22.793.293C22.605.105 22.35 0 22.086 0H5c-.552 0-1 .448-1 1z"/>
        <path fill="#FFF" fill-opacity=".56" d="M26 25c.552 0 1 .448 1 1s-.448 1-1 1H9c-.552 0-1-.448-1-1s.448-1 1-1h17zm0-6c.552 0 1 .448 1 1s-.448 1-1 1H9c-.552 0-1-.448-1-1s.448-1 1-1h17zm0-6c.552 0 1 .448 1 1s-.448 1-1 1H9c-.552 0-1-.448-1-1s.448-1 1-1h17zm-4-6c.552 0 1 .448 1 1s-.448 1-1 1H9c-.552 0-1-.448-1-1s.448-1 1-1h13z"/>
        <rect width="24" height="11" y="16" fill="#333" rx="1"/>
        <path fill="#FFF" fill-rule="nonzero" d="M5.904 24.584V22.36H7.4c.517 0 .917-.152 1.2-.456.283-.304.424-.712.424-1.224s-.141-.92-.424-1.224C8.317 19.152 7.917 19 7.4 19H5v5.584h.904zm1.44-3.016h-1.44v-1.776h1.44c.23 0 .408.06.536.18.128.12.192.292.192.516v.384c0 .224-.064.396-.192.516s-.307.18-.536.18zm4.648 3.016c.357 0 .681-.059.972-.176.29-.117.539-.292.744-.524.205-.232.364-.523.476-.872.112-.35.168-.756.168-1.22 0-.464-.056-.87-.168-1.22-.112-.35-.27-.64-.476-.872-.205-.232-.453-.407-.744-.524-.29-.117-.615-.176-.972-.176h-1.976v5.584h1.976zm0-.8H10.92V19.8h1.072c.416 0 .752.13 1.008.392.256.261.384.645.384 1.152v.896c0 .507-.128.89-.384 1.152-.256.261-.592.392-1.008.392zm4.392.8v-2.432h2.296v-.8h-2.296V19.8h2.584V19H15.48v5.584h.904z"/>
    </g>
</svg>
