<svg xmlns="http://www.w3.org/2000/svg" width="32" height="32"><g fill="none" fill-rule="evenodd" transform="translate(1)"><path fill="#85ACB0" fill-rule="nonzero" d="M4 1v30a1 1 0 001 1h24a1 1 0 001-1V7.914a.997.997 0 00-.293-.707L22.793.293A1 1 0 0022.086 0H5a1 1 0 00-1 1z"/><path fill="#FFF" fill-opacity=".56" d="M26 25a1 1 0 010 2H9a1 1 0 010-2h17zm0-6a1 1 0 010 2H9a1 1 0 010-2h17zm0-6a1 1 0 010 2H9a1 1 0 010-2h17zm-4-6a1 1 0 010 2H9a1 1 0 010-2h13z"/><rect width="24" height="11" y="16" fill="#333" rx="1"/><path fill="#FFF" fill-rule="nonzero" d="M5.904 24.584V22.36H7.4c.517 0 .917-.152 1.2-.456.283-.304.424-.712.424-1.224s-.141-.92-.424-1.224C8.317 19.152 7.917 19 7.4 19H5v5.584h.904zm1.44-3.016h-1.44v-1.776h1.44c.23 0 .408.06.536.18.128.12.192.292.192.516v.384c0 .224-.064.396-.192.516s-.307.18-.536.18zm4.648 3.016c.357 0 .681-.059.972-.176.29-.117.539-.292.744-.524a2.41 2.41 0 00.476-.872c.112-.35.168-.756.168-1.22 0-.464-.056-.87-.168-1.22-.112-.35-.27-.64-.476-.872a1.95 1.95 0 00-.744-.524 2.58 2.58 0 00-.972-.176h-1.976v5.584h1.976zm0-.8H10.92V19.8h1.072c.416 0 .752.13 1.008.392.256.261.384.645.384 1.152v.896c0 .507-.128.89-.384 1.152-.256.261-.592.392-1.008.392zm4.392.8v-2.432h2.296v-.8h-2.296V19.8h2.584V19H15.48v5.584h.904z"/></g></svg>