<svg xmlns="http://www.w3.org/2000/svg" width="16" height="16" viewBox="0 0 16 16" aria-labelledby='pink-right-diagonal-svg'>
    <title id='pink-right-diagonal-svg'>Pink right diagonal</title>
    <path fill="#FF444F" d="M12.95 17.95c-.553 0-1-.448-1-1V9.465l-8.193 8.192c-.39.39-1.023.39-1.414 0-.39-.39-.39-1.024 0-1.414l8.193-8.192H3.05c-.552 0-1-.448-1-1 0-.553.448-1 1-1h9.9l.11.005.01.001-.12-.007c.05 0 .099.004.147.011.03.005.06.01.088.017l.041.011c.022.006.044.013.065.021l.053.02c.02.01.039.018.057.028l.042.022.058.035.043.031c.016.011.031.024.046.036.019.016.036.031.053.048l.014.013.013.014c.017.017.032.034.047.052l-.06-.066c.036.036.068.074.097.113l.03.043.036.057.022.043c.01.018.019.038.027.057l.02.053c.009.021.016.043.022.065l.01.04c.008.03.013.06.018.089l.004.027c.004.04.007.08.007.12v9.9c0 .552-.448 1-1 1z"/>
</svg>
