<svg xmlns="http://www.w3.org/2000/svg" width="65" height="64" viewBox="0 0 65 64" aria-labelledby="portfolio-icon-title">
    <title id='portfolio-icon-title'>Portfolio icon</title>
    <g fill="none" fill-rule="nonzero">
        <path fill="#85ACB0" d="M25.615 56H2.97C2.437 56 2 55.556 2 55V3c0-.556.437-1 .97-1h51.2c.531 0 .968.444.968 1v19a1 1 0 0 0 2 0V3c0-1.653-1.325-3-2.969-3H2.97C1.326 0 0 1.347 0 3v52c0 1.653 1.326 3 2.97 3h22.645a1 1 0 1 0 0-2z"/>
        <path fill="#FF444F" d="M17.124 21.393a3.968 3.968 0 0 1-4.248 0 3.983 3.983 0 0 1-1.818-3.868.999.999 0 0 0-.88-1.112 1.01 1.01 0 0 0-1.13.864 5.96 5.96 0 0 0 2.73 5.789 6.025 6.025 0 0 0 6.444 0 5.96 5.96 0 0 0 2.73-5.789l-.061-.482-9.865-5.784a3.983 3.983 0 0 1 1.85-3.404 3.968 3.968 0 0 1 4.248 0 3.983 3.983 0 0 1 1.818 3.868.999.999 0 0 0 .88 1.112 1.01 1.01 0 0 0 1.13-.864 5.96 5.96 0 0 0-2.73-5.789 6.025 6.025 0 0 0-6.444 0 5.96 5.96 0 0 0-2.73 5.789l.061.482 9.865 5.784a3.983 3.983 0 0 1-1.85 3.404z"/>
        <path fill="#FF444F" d="M14 4v1.452a1 1 0 0 0 2 0V4a1 1 0 0 0-2 0zM14 24v1a1 1 0 0 0 2 0v-1a1 1 0 0 0-2 0z"/>
        <path fill="#85ACB0" d="M3 0h25.538a3 3 0 0 1 3 3v23a3 3 0 0 1-3 3H3a3 3 0 0 1-3-3V3a3 3 0 0 1 3-3zm0 2a1 1 0 0 0-1 1v23a1 1 0 0 0 1 1h25.538a1 1 0 0 0 1-1V3a1 1 0 0 0-1-1H3zM35 8h16.738a1 1 0 1 0 0-2H35a1 1 0 0 0 0 2zM35 15h16.738a1 1 0 1 0 0-2H35a1 1 0 0 0 0 2zM35 22h12.8a1 1 0 0 0 0-2H35a1 1 0 0 0 0 2zM4.972 36h17.723a1 1 0 1 0 0-2H4.972a1 1 0 0 0 0 2zM4.972 43h17.723a1 1 0 1 0 0-2H4.972a1 1 0 0 0 0 2zM4.972 50h12.8a1 1 0 0 0 0-2h-12.8a1 1 0 0 0 0 2z"/>
        <path fill="#85ACB0" d="M55.188 8h5.907c.532 0 .97.444.97 1v52c0 .556-.438 1-.97 1h-51.2c-.531 0-.969-.444-.969-1v-5h-2v5c0 1.653 1.326 3 2.97 3h51.2c1.643 0 2.969-1.347 2.969-3V9c0-1.653-1.326-3-2.97-3h-5.907v2z"/>
        <path fill="#FF444F" d="M32.97 38h1.968c1.644 0 2.97 1.347 2.97 3v17H30V41c0-1.653 1.326-3 2.97-3zM36 41c0-.556-.448-1-.992-1h-2.016A.996.996 0 0 0 32 41v15h4V41zM43.97 44h.984c1.643 0 2.97 1.347 2.97 3v11H41V47c0-1.653 1.326-3 2.97-3zM46 47c0-.556-.449-1-.995-1h-1.01A.997.997 0 0 0 43 47v9h3v-9zM54.004 37h1.992A3.002 3.002 0 0 1 59 40v18h-8V40c0-1.653 1.341-3 3.004-3zM57 40c0-.556-.448-1-.992-1h-2.016A.996.996 0 0 0 53 40v16h4V40z"/>
        <path fill="#0E0E0E" d="M47.182 37.221l6.115-4.25-1.142-1.642-6.114 4.25zM36.206 33.16l6.036 4.07 1.118-1.66-6.035-4.07z"/>
        <path fill="#0E0E0E" d="M34.51 35c1.644 0 2.97-1.347 2.97-3s-1.326-3-2.97-3c-1.643 0-2.968 1.347-2.968 3s1.325 3 2.969 3zm0-2c-.531 0-.968-.444-.968-1s.437-1 .969-1 .969.444.969 1-.437 1-.97 1zM44.97 40c1.643 0 2.968-1.347 2.968-3s-1.325-3-2.969-3C43.326 34 42 35.347 42 37s1.326 3 2.97 3zm0-2c-.533 0-.97-.444-.97-1s.437-1 .97-1c.531 0 .968.444.968 1s-.437 1-.969 1zM54.203 34c1.643 0 2.97-1.347 2.97-3s-1.327-3-2.97-3c-1.643 0-2.97 1.347-2.97 3s1.327 3 2.97 3zm0-2c-.532 0-.97-.444-.97-1s.438-1 .97-1 .97.444.97 1-.438 1-.97 1z"/>
        <path fill="#FF444F" d="M29.588 58h29.538a1 1 0 1 0 0-2H29.588a1 1 0 0 0 0 2z"/>
    </g>
</svg>
