<svg role="img" xmlns="http://www.w3.org/2000/svg" width="64" height="64" viewBox="0 0 64 64" aria-labelledby="predict-market-icon-title">
    <title id='predict-market-icon-title'>Predict market</title>
    <g fill="none" fill-rule="nonzero">
        <path fill="#85ACB0" d="M54 53.17v3.938a.992.992 0 0 1-1 .984H10c-.552 0-1 .441-1 .985s.448.985 1 .985h43c1.657 0 3-1.323 3-2.954v-3.939a.992.992 0 0 0-1-.984c-.552 0-1 .44-1 .984zM5 1.97h47c.552 0 1-.442 1-.985A.992.992 0 0 0 52 0H5c-.552 0-1 .44-1 .985 0 .543.448.984 1 .984z"/>
        <path fill="#85ACB0" d="M47 59.077v1.97a.992.992 0 0 1-1 .984H3c-.552 0-1-.441-1-.985V5.908a.992.992 0 0 0-1-.985c-.552 0-1 .44-1 .985v55.138C0 62.678 1.343 64 3 64h43c1.657 0 3-1.322 3-2.954v-1.97a.992.992 0 0 0-1-.984c-.552 0-1 .441-1 .985z"/>
        <path fill="#85ACB0" d="M5.5 0C2.494 0 0 2.041 0 4.668v53.857l.01.143c.036.24.092.478.168.71.306.94 1.67.9 1.92-.055.389-1.486 1.79-2.493 3.345-2.405h.116c1.551-.09 2.95.917 3.332 2.401.241.938 1.569 1.006 1.908.097.09-.244.155-.497.192-.755l.009-.136V4.668C11 2.044 8.5 0 5.5 0zM9 58.525h1l-.99-.135-.01.06v.075zM5.5 54.95A5.305 5.305 0 0 0 2 56.055V4.668C2 3.218 3.525 1.97 5.5 1.97c1.968 0 3.5 1.252 3.5 2.7v51.386a5.285 5.285 0 0 0-3.5-1.106zm-3.51 3.433l-.99.143h1v-.078a2.429 2.429 0 0 1-.01-.065zM13.76 55.138h28c.552 0 1-.44 1-.984a.992.992 0 0 0-1-.985h-28c-.552 0-1 .441-1 .985s.448.984 1 .984zM13.76 45.292h28c.552 0 1-.44 1-.984a.992.992 0 0 0-1-.985h-28c-.552 0-1 .44-1 .985 0 .543.448.984 1 .984zM13.76 50.215h11c.552 0 1-.44 1-.984a.992.992 0 0 0-1-.985h-11c-.552 0-1 .441-1 .985s.448.984 1 .984zM29 50.215h12.76c.552 0 1-.44 1-.984a.992.992 0 0 0-1-.985H29c-.552 0-1 .441-1 .985s.448.984 1 .984zM14 31.508V38.4c0 .544.448.985 1 .985s1-.441 1-.985v-6.892a.992.992 0 0 0-1-.985c-.552 0-1 .44-1 .985zM20 28.554V38.4c0 .544.448.985 1 .985s1-.441 1-.985v-9.846a.992.992 0 0 0-1-.985c-.552 0-1 .441-1 .985zM26 24.615V38.4c0 .544.448.985 1 .985s1-.441 1-.985V24.615a.992.992 0 0 0-1-.984c-.552 0-1 .44-1 .984zM32 17.723V38.4c0 .544.448.985 1 .985s1-.441 1-.985V17.723a.992.992 0 0 0-1-.985c-.552 0-1 .441-1 .985zM15.938 22.116l18.44-15.449a.974.974 0 0 0 .114-1.388 1.01 1.01 0 0 0-1.41-.111l-18.44 15.448a.974.974 0 0 0-.114 1.388 1.01 1.01 0 0 0 1.41.112z"/>
        <path fill="#85ACB0" d="M33.9 13.174l-1.39-.157.81-6.755-6.9-.295.06-1.379 8.4.365z"/>
        <path fill="#0E0E0E" d="M51 25.6c7.18 0 13-5.73 13-12.8S58.18 0 51 0 38 5.73 38 12.8s5.82 12.8 13 12.8zm0-1.97c-6.075 0-11-4.848-11-10.83S44.925 1.97 51 1.97 62 6.817 62 12.8s-4.925 10.83-11 10.83zM50 30.523h3c1.657 0 3 1.323 3 2.954v14.77c0 1.63-1.343 2.953-3 2.953h-3c-1.657 0-3-1.322-3-2.954v-14.77c0-1.63 1.343-2.953 3-2.953zm0 1.97c-.552 0-1 .44-1 .984v14.77c0 .543.448.984 1 .984h3c.552 0 1-.441 1-.985v-14.77a.992.992 0 0 0-1-.984h-3z"/>
        <path fill="#0E0E0E" d="M50.5 25.6v4.923c0 .544.448.985 1 .985s1-.441 1-.985V25.6a.992.992 0 0 0-1-.985c-.552 0-1 .441-1 .985z"/>
        <path fill="#FF444F" d="M51.5 18.708c-1.87 0-3.404-1.41-3.496-3.196a.994.994 0 0 0-1.049-.934.99.99 0 0 0-.948 1.033c.145 2.842 2.565 5.066 5.493 5.066 2.928 0 5.348-2.224 5.493-5.066l.031-.602-9.005-5.104a3.35 3.35 0 0 1 1.674-2.53 3.625 3.625 0 0 1 3.614 0c1.105.64 1.752 1.809 1.689 3.042a.99.99 0 0 0 .948 1.033.994.994 0 0 0 1.05-.934c.1-1.97-.93-3.83-2.673-4.839a5.652 5.652 0 0 0-5.642 0c-1.744 1.01-2.773 2.87-2.672 4.84l.027.535 8.88 5.034c-.35 1.505-1.75 2.622-3.414 2.622z"/>
        <path fill="#FF444F" d="M50.5 3.938v1.97c0 .543.448.984 1 .984s1-.44 1-.984v-1.97a.992.992 0 0 0-1-.984c-.552 0-1 .44-1 .984zM50.5 19.692v1.677c0 .544.448.984 1 .984s1-.44 1-.984v-1.677a.992.992 0 0 0-1-.984c-.552 0-1 .44-1 .984z"/>
    </g>
</svg>
