<svg xmlns="http://www.w3.org/2000/svg" width="64" height="64"><defs><linearGradient id="a" x1="21.875%" x2="78.125%" y1="100%" y2="0%"><stop offset="0%" stop-color="#FF444F"/><stop offset="100%" stop-color="#FF6444"/></linearGradient></defs><g fill="none" fill-rule="evenodd"><path d="M0 0h64v64H0z"/><path fill="url(#a)" d="M21 7a1 1 0 010 2H10v53h44V9H43a1 1 0 010-2h11a2 2 0 012 2v53a2 2 0 01-2 2H10a2 2 0 01-2-2V9a2 2 0 012-2zm4.26 36.328a1 1 0 111.48 1.344l-4.541 5a1 1 0 01-1.372.104l-2.458-2a1 1 0 011.262-1.552l1.724 1.403zM45 46a1 1 0 010 2H30a1 1 0 010-2zM20.613 32.21l.094.083 1.793 1.792 1.793-1.792a1 1 0 011.414 1.414L23.915 35.5l1.792 1.793a1 1 0 01.083 1.32l-.083.094a1 1 0 01-1.32.083l-.094-.083-1.793-1.792-1.793 1.792a1 1 0 01-1.414-1.414l1.792-1.793-1.792-1.793a1 1 0 01-.083-1.32l.083-.094a1 1 0 011.32-.083zM45 35a1 1 0 010 2H30a1 1 0 010-2zM25.26 21.328a1 1 0 111.48 1.344l-4.541 5a1 1 0 01-1.372.104l-2.458-2a1 1 0 011.262-1.552l1.724 1.403zM45 24a1 1 0 010 2H30a1 1 0 010-2zM32.016 0a4.455 4.455 0 014.21 3H39a1 1 0 011 1v4a1 1 0 01-1 1H25a1 1 0 01-1-1V4a1 1 0 011-1h2.805c.602-1.746 2.26-3 4.21-3zm0 2a2.455 2.455 0 00-2.32 1.653L29.23 5H26v2h12V5h-3.2l-.464-1.347A2.455 2.455 0 0032.016 2z"/></g></svg>