<svg role="img" xmlns="http://www.w3.org/2000/svg" width="65" height="64" viewBox="0 0 65 64" aria-labelledby="real-world-icon-title">
    <title id='real-world-icon-title'>Real world</title>
    <g fill="none" fill-rule="evenodd">
        <path d="M0 0h64v64H0z"/>
        <path fill="#85ACB0" fill-rule="nonzero" d="M36.967 5H8.037C6.36 5 5 6.321 5 7.95v35.046C5 43.551 5.463 44 6.033 44c.57 0 1.033-.45 1.033-1.004V7.951c0-.521.435-.943.971-.943h28.93c.57 0 1.033-.45 1.033-1.004C38 5.449 37.537 5 36.967 5z"/>
        <path fill="#85ACB0" fill-rule="nonzero" d="M0 6.017L.06 61.01C.06 62.66 1.378 64 3 64l52.06-.062c1.624 0 2.94-1.338 2.94-2.99V28c0-.562-.448-1.017-1-1.017s-1 .455-1 1.017v32.948c0 .528-.42.956-.94.956L3 61.966a.948.948 0 0 1-.94-.956L2 6.017C2 5.455 1.552 5 1 5s-1 .455-1 1.017z"/>
        <path fill="#0E0E0E" fill-rule="nonzero" d="M11 35h22.303a1 1 0 1 0 0-2H11a1 1 0 0 0 0 2zM11 42h35a1 1 0 0 0 0-2H11a1 1 0 0 0 0 2zM11 49h34.91a1 1 0 1 0 0-2H11a1 1 0 0 0 0 2zM28 56h17.455a1 1 0 0 0 0-2H28a1 1 0 0 0 0 2zM12.938 14h14.124C28.685 14 30 15.378 30 17.079v6.842c0 1.7-1.315 3.079-2.938 3.079H12.938C11.315 27 10 25.622 10 23.921V17.08c0-1.7 1.315-3.079 2.938-3.079zm.036 2c-.538 0-.974.465-.974 1.038v6.924c0 .573.436 1.038.974 1.038h14.052c.538 0 .974-.465.974-1.038v-6.924c0-.573-.436-1.038-.974-1.038H12.974z"/>
        <path fill="#FF444F" fill-rule="nonzero" d="M48.5 31C57.06 31 64 24.06 64 15.5 64 6.94 57.06 0 48.5 0 39.94 0 33 6.94 33 15.5 33 24.06 39.94 31 48.5 31zm0-2C41.044 29 35 22.956 35 15.5S41.044 2 48.5 2 62 8.044 62 15.5 55.956 29 48.5 29z"/>
        <path fill="#FF444F" fill-rule="nonzero" d="M49 31c5.165 0 9-7.014 9-15.5S54.165 0 49 0s-9 7.014-9 15.5S43.835 31 49 31zm0-2c-3.667 0-7-5.97-7-13.5S45.333 2 49 2s7 5.97 7 13.5S52.667 29 49 29z"/>
        <path fill="#FF444F" fill-rule="nonzero" d="M48 1.996v28.008c0 .55.448.996 1 .996s1-.446 1-.996V1.996A.998.998 0 0 0 49 1c-.552 0-1 .446-1 .996z"/>
        <path fill="#FF444F" fill-rule="nonzero" d="M35 17h27.152a1 1 0 0 0 0-2H35a1 1 0 0 0 0 2zM36.953 24h23.094c.526 0 .953-.448.953-1s-.427-1-.953-1H36.953c-.526 0-.953.448-.953 1s.427 1 .953 1zM35.992 10h25.016A.996.996 0 0 0 62 9c0-.552-.444-1-.992-1H35.992A.996.996 0 0 0 35 9c0 .552.444 1 .992 1z"/>
    </g>
</svg>
