<svg xmlns="http://www.w3.org/2000/svg" width="64" height="64"><defs><linearGradient id="a" x1="0%" y1="100%" y2="0%"><stop offset="0%" stop-color="#FF444F"/><stop offset="100%" stop-color="#FF6444"/></linearGradient></defs><g fill="none" fill-rule="evenodd"><path d="M0 0h64v64H0z"/><path fill="url(#a)" d="M13 14a1 1 0 010 2H4v39h2V20a2 2 0 012-2h5a1 1 0 010 2H8v35h18a1 1 0 01.832.445l1.704 2.556 6.928.01 1.703-2.564A1 1 0 0138 55h18V20h-5a1 1 0 010-2h5a2 2 0 012 2v35h2V16h-9a1 1 0 010-2h9c1.16 0 2 .816 2 2v39c1.153 0 2 .818 2 2v5c0 1.182-.847 2-2 2H2c-1.153 0-2-.818-2-2v-5c0-1.182.847-2 2-2V16c0-1.184.84-2 2-2zm12.465 43H2v5h60v-5H38.536l-1.703 2.566a1 1 0 01-.835.447l-8-.013a1 1 0 01-.83-.445L25.465 57zm10 1.012l-.298.448.835-.447-.538-.001zM48 39a1 1 0 011 1v7a1 1 0 01-1 1H16a1 1 0 01-1-1v-7a1 1 0 011-1h32zm-1 2H17v5h30v-5zM32 0c9.389 0 17 7.611 17 17s-7.611 17-17 17-17-7.611-17-17S22.611 0 32 0zm6.4 21H25.6a1.38 1.38 0 00-.6.12v9.15A14.935 14.935 0 0032 32c2.528 0 4.91-.626 7-1.73v-9.15a1.396 1.396 0 00-.6-.12zM32 2c-8.284 0-15 6.716-15 15a14.98 14.98 0 006 12.001v-8.078C23 19.713 24.237 19 25.6 19h3.083a6 6 0 116.633 0H38.4c1.363 0 2.6.714 2.6 1.923L41.001 29A14.977 14.977 0 0047 17c0-8.284-6.716-15-15-15zm0 8a4 4 0 100 8 4 4 0 000-8z"/></g></svg>