<svg xmlns="http://www.w3.org/2000/svg" width="65" height="64"><defs><linearGradient id="a" x1="0%" y1="98.471%" y2="1.529%"><stop offset="0%" stop-color="#FF444F"/><stop offset="100%" stop-color="#FF6444"/></linearGradient></defs><g fill="none" fill-rule="evenodd"><path d="M0 0h65v64H0z"/><path fill="url(#a)" d="M1.016 0H34.53c.215 0 .422.067.594.189l.1.08 15.234 14c.176.162.287.38.315.613l.007.118v21c0 .552-.454 1-1.015 1a1.01 1.01 0 01-1.01-.891L48.75 36V16.999L34.531 17a1.01 1.01 0 01-1.01-.891L33.517 16l-.001-14H2.031v60h29.453c.561 0 1.016.448 1.016 1 0 .515-.396.94-.905.994l-.11.006H1.014a1.01 1.01 0 01-1.009-.891L0 63V1C0 .485.396.06.905.006L1.015 0h33.516zm50.65 39.508l13.203 23c.382.667-.107 1.492-.885 1.492H36.562c-.792 0-1.279-.854-.867-1.52l14.219-23a1.024 1.024 0 011.751.028zm-.917 2.468L38.369 62h23.875L50.749 41.976zM50.78 58c.561 0 1.016.448 1.016 1s-.455 1-1.016 1c-.56 0-1.015-.448-1.015-1s.454-1 1.015-1zm0-12c.524 0 .955.39 1.01.891l.006.109v8c0 .552-.455 1-1.016 1a1.01 1.01 0 01-1.01-.891L49.767 55v-8c0-.552.454-1 1.015-1zm-39.61-5h19.3c.56 0 1.015.448 1.015 1 0 .515-.396.94-.905.994l-.11.006H11.172a1.008 1.008 0 01-1.016-1c0-.515.396-.94.905-.994l.11-.006H30.47zm0-9h27.423c.56 0 1.015.448 1.015 1 0 .515-.396.94-.905.994l-.11.006H11.172a1.008 1.008 0 01-1.016-1c0-.515.396-.94.905-.994l.11-.006h27.423zm0-8h27.423c.56 0 1.015.448 1.015 1 0 .515-.396.94-.905.994l-.11.006H11.172a1.008 1.008 0 01-1.016-1c0-.515.396-.94.905-.994l.11-.006h27.423zm0-8h11.173c.56 0 1.015.448 1.015 1 0 .515-.396.94-.905.994l-.11.006H11.172a1.008 1.008 0 01-1.016-1c0-.515.396-.94.905-.994l.11-.006h11.173zM35.547 3.301V15l12.731-.001L35.546 3.301z"/></g></svg>