<svg xmlns="http://www.w3.org/2000/svg" width="384" height="216" viewBox="0 0 384 216">
    <g fill="none" fill-rule="evenodd">
        <g>
            <g>
                <g>
                    <path fill-rule="nonzero" d="M0 0H384V216H0z" transform="translate(-120 -2778) translate(120 2678) translate(0 100)"/>
                    <g stroke="#FF444F" stroke-linecap="round" stroke-linejoin="round" stroke-width="2" transform="translate(-120 -2778) translate(120 2678) translate(0 100) translate(128 44)">
                        <path d="M77.146 63.027c2.413.056 4.34 2.028 4.339 4.442V81.92c-.003.923.627 1.727 1.523 1.946 3.36 1.073 6.779 1.949 10.24 2.624 3.675.704 7.3 1.645 10.854 2.816 2.04.759 3.4 2.7 3.418 4.876v18.535c-.294 4.185-6.49 8.627-7.117 15.283H77.07c-3.175-6.131-7.68-11.136-9.626-15.936l-.205-.397c-3.955-5.683-9.254-6.4-11.776-8.128-2.521-1.728-.64-10.24 5.556-7.475l8.73 4.237c.643.308 1.402.254 1.996-.143.594-.396.934-1.077.896-1.79V67.482c-.004-1.2.478-2.352 1.337-3.19.858-.84 2.02-1.296 3.22-1.265h-.051zM90.445 86.029L90.445 95.258M81.472 81.958L81.472 92.198M99.418 88.717L99.418 97.946M32 16.998c-5.009-.005-9.527 3.009-11.446 7.635-1.919 4.627-.86 9.954 2.68 13.495 3.543 3.542 8.87 4.6 13.496 2.681 4.626-1.92 7.64-6.437 7.635-11.446 0-3.28-1.303-6.424-3.622-8.743S35.28 16.998 32 16.998z"/>
                        <circle cx="31.962" cy="26.803" r="4.198"/>
                        <path d="M25.83 39.398v-2.65c0-3.173 2.574-5.746 5.748-5.746h.768c3.169.007 5.734 2.578 5.734 5.747v2.65M19.584 52.915L65.574 52.915M19.584 63.181L65.574 63.181"/>
                        <rect width="28.634" height="12.173" x="89.997" y="51.955" rx="5.568"/>
                        <path d="M72.077 75.878H16.973c-1.639 0-3.21-.651-4.367-1.811-1.158-1.16-1.806-2.733-1.803-4.371v-54.54c-.007-1.642.64-3.217 1.798-4.38 1.158-1.162 2.731-1.816 4.372-1.816H121.83c1.641 0 3.214.654 4.372 1.816 1.158 1.163 1.805 2.738 1.798 4.38v54.54c.003 1.638-.645 3.211-1.803 4.37-1.157 1.16-2.728 1.812-4.367 1.812H87.5"/>
                        <path d="M118.118 18.38l-7.91 7.911c-.408.41-.963.641-1.542.641-.58 0-1.134-.23-1.543-.64l-3.955-3.956M10.317 66.893H6.17c-3.408 0-6.17-2.762-6.17-6.17V6.17C0 2.762 2.762 0 6.17 0h98.457c3.408 0 6.17 2.762 6.17 6.17v2.79"/>
                    </g>
                </g>
            </g>
        </g>
    </g>
</svg>
