<svg xmlns="http://www.w3.org/2000/svg" width="64" height="64" viewBox="0 0 64 64" aria-labelledby="risk-diversification-icon-title">
    <title id='risk-diversification-icon-title'>Risk diversification</title>
    <g fill="none" fill-rule="nonzero">
        <path fill="#85ACB0" d="M41.512 62a15.067 15.067 0 0 1-3.648-2.95H18V61a1 1 0 0 0 1 1h22.512zM49 64H19a3 3 0 0 1-3-3v-1.95H9.166c-1.653 0-3.139-1.35-3.139-3V26.5a1 1 0 0 1 2 0v29.55c0 .5.55 1 1.139 1h27.175A14.93 14.93 0 0 1 34 49c0-8.284 6.716-15 15-15 1.664 0 3.264.27 4.76.771V16H40a3 3 0 0 1-3-3V1.999H14.76a1 1 0 0 1 0-2h23.176a2.988 2.988 0 0 1 1.981.737L41.405 2H61c1.652 0 3 1.32 3 2.957V49c0 8.284-6.716 15-15 15zm13-22.488V4.957C62 4.434 61.557 4 61 4H43.759l10.981 9.329a3 3 0 0 1 1.02 2.251v19.926c0 .033-.002.066-.005.098A15.068 15.068 0 0 1 62 41.512zM52.441 14L39 2.581V13a1 1 0 0 0 1 1h12.441zM49 62c7.18 0 13-5.82 13-13s-5.82-13-13-13-13 5.82-13 13 5.82 13 13 13z"/>
        <path fill="#85ACB0" d="M27 33H12a1 1 0 0 0 0 2h15a1 1 0 0 0 0-2zM31 39H12a1 1 0 0 0 0 2h19a1 1 0 0 0 0-2zM29 45H12a1 1 0 0 0 0 2h17a1 1 0 0 0 0-2zM25 51H12a1 1 0 0 0 0 2h13a1 1 0 0 0 0-2z"/>
        <path fill="#0E0E0E" d="M58.175 44.84a1.954 1.954 0 0 0-.039-2.896l-1.892-1.722a2.05 2.05 0 0 0-2.727-.008l-.161.15c-.322-.143-.65-.27-.985-.378A2.029 2.029 0 0 0 50.343 38h-2.695a2.03 2.03 0 0 0-1.943 1.442c-.297.112-.588.24-.871.383a2.01 2.01 0 0 0-2.936.085L40.3 41.659a2.185 2.185 0 0 0-.012 2.898l.075.08c-.143.324-.269.655-.378.992A2.029 2.029 0 0 0 38 47.657v2.705c0 .92.611 1.696 1.45 1.945.119.294.253.582.403.862a1.952 1.952 0 0 0 .047 2.886l1.896 1.715a2.05 2.05 0 0 0 2.725.007l.161-.148c.325.143.657.27.995.38A2.029 2.029 0 0 0 47.705 60h2.705a2.043 2.043 0 0 0 1.94-1.445c.295-.112.583-.239.864-.38a2.016 2.016 0 0 0 2.943-.082l1.548-1.768a2.17 2.17 0 0 0-.004-2.873l-.073-.081c.143-.324.27-.655.38-.99A2.04 2.04 0 0 0 60 50.36v-2.713a2.03 2.03 0 0 0-1.445-1.944 9.067 9.067 0 0 0-.38-.864zm-16.373 9.265a1 1 0 0 0 .163-1.299 6.876 6.876 0 0 1-.832-1.721 1 1 0 0 0-.952-.695h-.152a.029.029 0 0 1-.029-.028v-2.705c0-.016.013-.028.029-.028h.714a1 1 0 0 0 .973-.768 8.19 8.19 0 0 1 .73-1.936 1 1 0 0 0-.153-1.15l-.523-.562c-.042-.047-.042-.15.018-.218l1.598-1.75c.013-.014.016-.015.019-.015l.007.003.492.532a1 1 0 0 0 1.27.165 6.724 6.724 0 0 1 1.725-.78 1 1 0 0 0 .72-.96v-.161c0-.016.013-.029.029-.029h2.695c.016 0 .028.013.028.029v.714a1 1 0 0 0 .768.972c.67.16 1.316.406 1.924.73a1 1 0 0 0 1.15-.15l.648-.6a.064.064 0 0 1 .047.015l1.868 1.7-.537.49a1 1 0 0 0-.172 1.269c.338.54.602 1.124.784 1.735a1 1 0 0 0 .959.715h.161c.016 0 .029.013.029.029v2.704c0 .012-.017.029-.038.029h-.705a1 1 0 0 0-.97.756 9.019 9.019 0 0 1-.737 1.946 1 1 0 0 0 .145 1.129l.514.571a.17.17 0 0 1-.006.221l-1.546 1.766h-.01a.019.019 0 0 1-.014-.006l-.473-.522a1 1 0 0 0-1.27-.177 7.229 7.229 0 0 1-1.74.787 1 1 0 0 0-.712.958v.161c0 .012-.017.029-.038.029h-2.695a.029.029 0 0 1-.029-.029v-.714a1 1 0 0 0-.757-.97 9.095 9.095 0 0 1-1.956-.738 1 1 0 0 0-1.132.15l-.648.59c-.008.008-.035.008-.053-.008l-1.867-1.69.54-.486z"/>
        <path fill="#0E0E0E" d="M49 54a5 5 0 1 0 0-10 5 5 0 0 0 0 10zm0-2a3 3 0 1 1 0-6 3 3 0 0 1 0 6z"/>
        <path fill="#FF444F" d="M14.92 4h.16A2.92 2.92 0 0 1 18 6.92v8.16A2.92 2.92 0 0 1 15.08 18h-.16A2.92 2.92 0 0 1 12 15.08V6.92A2.92 2.92 0 0 1 14.92 4zm0 2a.92.92 0 0 0-.92.92v8.16c0 .508.412.92.92.92h.16a.92.92 0 0 0 .92-.92V6.92a.92.92 0 0 0-.92-.92h-.16z"/>
        <path fill="#FF444F" d="M15 30c8.284 0 15-6.716 15-15 0-8.284-6.716-15-15-15C6.716 0 0 6.716 0 15c0 8.284 6.716 15 15 15zm0-2C7.82 28 2 22.18 2 15S7.82 2 15 2s13 5.82 13 13-5.82 13-13 13z"/>
        <path fill="#FF444F" d="M15 26a3 3 0 1 0 0-6 3 3 0 0 0 0 6zm0-2a1 1 0 1 1 0-2 1 1 0 0 1 0 2z"/>
    </g>
</svg>
