<svg xmlns="http://www.w3.org/2000/svg" width="48" height="48"><defs><linearGradient id="a" x1="0%" y1="100%" y2="0%"><stop offset="0%" stop-color="#FF444F"/><stop offset="100%" stop-color="#FF6444"/></linearGradient></defs><path fill="url(#a)" fill-rule="evenodd" d="M36.75 22.5c5.538 0 9.153 4.669 9.683 10.5h.817c.414 0 .75-.027.75.375V47.25c0 .402-.336.75-.75.75h-21a.758.758 0 01-.75-.75v-13.5c0-.402.336-.75.75-.75h.818c.545-5.92 4.305-10.5 9.682-10.5zm9.75 12H27v12h19.5v-12zm-9 3.75a2.25 2.25 0 01.75 4.372v1.628a.75.75 0 01-1.493.102l-.007-.102v-1.628a2.25 2.25 0 01.75-4.372zm0 1.5a.75.75 0 100 1.5.75.75 0 000-1.5zM37.582 0C38.336 0 39 .61 39 1.5v18.75c0 .414-.317.75-.71.75-.39 0-.708-.336-.708-.75V1.5L1.5 1.565v36.692c0 .057 7.183.03 20.81-.007.392 0 .71.336.71.75s-.318.75-.71.75l-20.81.036c-.794 0-1.5-1.04-1.5-1.911V1.565C0 .675 1.115 0 1.87 0zm-.832 24c-4.547 0-7.666 3.886-8.176 9h1.497c.43-4.43 2.804-7.5 6.679-7.5 3.945 0 6.258 3.12 6.68 7.5h1.498c-.49-5.001-3.44-9-8.178-9zm0 3c-3.015 0-4.8 2.369-5.176 6h10.353c-.361-3.567-2.067-6-5.177-6zm-25.5-5.25a.75.75 0 01.75.75V27a.75.75 0 01-.75.75h-4.5A.75.75 0 016 27v-4.5a.75.75 0 01.75-.75h4.5zm-.75 1.5h-3v3h3v-3zM27 24a.75.75 0 010 1.5H15.75a.75.75 0 010-1.5zM11.25 9.75a.75.75 0 01.75.75V15a.75.75 0 01-.75.75h-4.5A.75.75 0 016 15v-4.5a.75.75 0 01.75-.75h4.5zm-.75 1.5h-3v3h3v-3zM27 12a.75.75 0 010 1.5H15.75a.75.75 0 010-1.5z"/></svg>