<svg xmlns="http://www.w3.org/2000/svg" width="64" height="64"><defs><linearGradient id="a" x1="12.309%" x2="87.691%" y1="100%" y2="0%"><stop offset="0%" stop-color="#FF444F"/><stop offset="100%" stop-color="#FF6444"/></linearGradient></defs><g fill="none" fill-rule="evenodd"><path d="M0 0h64v64H0z"/><path fill="url(#a)" d="M42.696 8.939a2 2 0 01-.037 1.192l-2.449 7.047c1.033.337 1.79 1.132 1.79 2.172 0 .381-.086.747-.244 1.078C49.846 28.064 53.95 34.633 54 40.198l-.002.744a10.73 10.73 0 01-.178 1.737c-.43 2.301-1.308 4.382-2.591 6.193-3.506 5.112-9.971 7.976-17.93 8.122l-.406.005h-.798l-.4-.005c-7.953-.146-14.418-3.01-17.915-8.11-1.292-1.824-2.17-3.904-2.6-6.205a10.678 10.678 0 01-.177-1.719L11 40.232c.048-5.443 3.933-11.81 11.59-19.181A2.278 2.278 0 0122 19.5c0-1.476 1.087-2.424 2.725-2.496l-2.384-6.873a2.048 2.048 0 01-.077-1.015l.04-.177c.272-.98 1.237-1.597 2.292-1.43l.17.04 4.025 1.12 3.71.838 3.659-.826 4.073-1.133a2 2 0 012.463 1.39zm-2.424 12.84l-.144.052a3.303 3.303 0 01-1.057.169H24.93c-.14 0-.276-.008-.41-.022C16.872 29.217 13.056 35.33 13 40.262l.001.636c.01.482.058.954.144 1.414.377 2.018 1.142 3.829 2.275 5.43 3.103 4.524 8.957 7.117 16.305 7.252l.381.005h.773l.388-.005c7.354-.135 13.208-2.728 16.32-7.266 1.124-1.587 1.889-3.398 2.266-5.416.086-.46.134-.932.144-1.432l.001-.652c-.055-4.944-3.941-11.123-11.727-18.45zm-12.44 15.345l.002.004v.01l-.001-.014zm3.132-3.895l.004-.115a1 1 0 011.996-.047l.003.117-.002.067c1.958.4 3.361 1.94 3.361 4.017a1 1 0 01-2 0c0-1.264-.968-2.12-2.393-2.12-1.186 0-1.862.435-2.05 1.328l5.317 2.895.027.015.048.03a.8.8 0 01.056.04l.033.026a.885.885 0 01.122.122l.03.038a.88.88 0 01.121.204l.013.03a.92.92 0 01.024.068l.014.05a.78.78 0 01.029.16.98.98 0 01.004.068v.027c0 2.097-1.213 3.474-3.134 3.812l-.004.116a1 1 0 01-1.996.047l-.003-.117.004-.073c-1.801-.402-2.863-1.889-2.863-3.994a1 1 0 012 0c0 1.416.624 2.103 1.894 2.103 1.186 0 1.862-.436 2.049-1.33l-5.316-2.893a1.019 1.019 0 01-.378-.36.996.996 0 01-.134-.375l-.006-.057-.001-.014v.01-.01l-.001-.002v.002l-.001-.045v.026-.026l-.001-.014v.014-.027c0-2.098 1.213-3.474 3.134-3.813zM39.071 19H24.93c-.725 0-.929.167-.929.5 0 .251.33.5.929.5h14.14c.605 0 .929-.321.929-.65 0-.107-.347-.35-.929-.35zm1.699-9.525l-4.122 1.145-4.148.937-4.197-.949-4.017-1.12-.056-.013 2.551 7.36.044.165h11.35l.063-.231 2.532-7.294z"/></g></svg>