<svg xmlns="http://www.w3.org/2000/svg" width="384" height="216" viewBox="0 0 384 216">
    <g fill="none" fill-rule="evenodd">
        <g>
            <g>
                <g>
                    <path fill-rule="nonzero" d="M0 0H384V216H0z" transform="translate(-528 -2778) translate(120 2678) translate(408 100)"/>
                    <g stroke="#FF444F" stroke-width="2">
                        <path stroke-linecap="round" stroke-linejoin="round" d="M103.68 0C90.955 0 80.64 10.315 80.64 23.04s10.315 23.04 23.04 23.04 23.04-10.315 23.04-23.04c0-6.11-2.427-11.97-6.748-16.292C115.65 2.428 109.79 0 103.68 0z" transform="translate(-528 -2778) translate(120 2678) translate(408 100) translate(128 44)"/>
                        <path d="M97.869 28.045c0 2.803 3.174 5.12 7.091 5.12 3.917 0 7.091-2.266 7.091-5.12 0-2.855-3.174-5.12-7.091-5.12-3.917 0-7.091-2.279-7.091-5.12 0-2.842 3.174-5.12 7.091-5.12 3.917 0 7.091 2.265 7.091 5.12M104.96 8.23L104.96 12.813M104.96 34.317L104.96 37.85" transform="translate(-528 -2778) translate(120 2678) translate(408 100) translate(128 44)"/>
                        <path stroke-linecap="round" stroke-linejoin="round" d="M122.15 85.555h.18c1.364-.819 2.444-.69 3.673.32.635.507 1.085 1.209 1.28 1.997.327 1.657.278 3.349-1.126 4.288h-.154l-40.525 31.424c-4.559 2.826-9.804 4.353-15.168 4.416l-48.192-6.106c-2.405-.269-4.836-.191-7.219.23V85.76l1.28-.538c1.51-.512 22.208-7.244 36.096-.576 8.526 4.122 18.147 5.41 27.456 3.674 1.798-.36 3.636-.485 5.466-.371 1.201.425 2.2 1.283 2.803 2.406.54 1.571.42 3.294-.333 4.775-2.56 2.035-9.651 6.22-23.232 6.259-1.906-.02-3.506 1.43-3.673 3.328-.057.972.29 1.924.959 2.631.669.708 1.6 1.108 2.573 1.106 11.981 0 22.375-3.545 28.16-7.308l29.696-15.59zM0 81.139H14.899V128H0zM84.088 10.637L16.563 10.637 16.563 67.046 111.437 67.046 111.437 52.237" transform="translate(-528 -2778) translate(120 2678) translate(408 100) translate(128 44)"/>
                        <path stroke-linecap="round" stroke-linejoin="round" d="M72.653 46.08c-.512 4.006-4.199 6.848-7.757 7.757v3.635h-6.208v-3.98c-3.107-1.136-5.708-3.341-7.334-6.222-.681-1.453-.139-3.187 1.25-3.992 1.389-.806 3.163-.418 4.087.895 1.562 2.56 3.994 4.096 6.221 3.725 1.728-.295 3.328-1.613 3.443-2.484.167-1.587 0-2.035-2.201-2.777-1.408-.474-2.56-.794-3.572-1.088-3.123-.909-5.593-1.6-7.488-4.48-2.6-4.045-1.459-9.43 2.56-12.07.894-.615 1.898-1.05 2.957-1.28V20.21h6.208v4.109c3.17 1.036 5.813 3.261 7.373 6.208.529 1.483-.134 3.128-1.544 3.83-1.41.7-3.121.238-3.986-1.078-.887-1.677-2.446-2.897-4.288-3.354-1.063-.37-2.23-.296-3.238.205-1.191.73-1.578 2.278-.87 3.482.588.909 1.152 1.126 4.019 1.945 1.088.295 2.278.666 3.84 1.165 1.817.563 7.168 2.432 6.528 9.357z" transform="translate(-528 -2778) translate(120 2678) translate(408 100) translate(128 44)"/>
                    </g>
                </g>
            </g>
        </g>
    </g>
</svg>
