<svg xmlns="http://www.w3.org/2000/svg" width="64" height="64"><g fill="none" fill-rule="evenodd"><path d="M0 0h64v64H0z"/><path fill="#85ACB0" fill-rule="nonzero" d="M10.105 11.538A29.863 29.863 0 002.032 32c0 16.551 13.417 29.968 29.968 29.968a29.863 29.863 0 0020.462-8.073L10.105 11.538zm1.433-1.433l42.357 42.357A29.863 29.863 0 0061.968 32C61.968 15.449 48.551 2.032 32 2.032a29.863 29.863 0 00-20.462 8.073zM32 64C14.327 64 0 49.673 0 32 0 14.327 14.327 0 32 0c17.673 0 32 14.327 32 32 0 17.673-14.327 32-32 32z"/><path fill="#FF444F" fill-rule="nonzero" d="M41.22 45.5H16.5a1 1 0 01-1-1v-9a1 1 0 011-1h13.72l-2-2H16.5a3 3 0 00-3 3v9a3 3 0 003 3h26.72l-2-2z"/><path fill="#000" fill-rule="nonzero" d="M31.5 35.78v6.72h2v-4.72z"/><path fill="#FF444F" fill-rule="nonzero" d="M38.67 34.5h8.83a1 1 0 011 1v8.83L50.11 46a3 3 0 00.39-1.45v-9a3 3 0 00-3-3H36.67l2 1.95z"/><path fill="#000" fill-rule="nonzero" d="M31.5 17.51v9.83l2 2V17.51l5.72 6.15 1.46-1.36-8.18-8.8-7.15 7.69 1.42 1.41z"/></g></svg>