<svg xmlns="http://www.w3.org/2000/svg" width="24" height="24" viewBox="0 0 24 24">
    <defs>
        <linearGradient id="sfufgywl9a" x1="0%" x2="100%" y1="87.806%" y2="12.194%">
            <stop offset="0%" stop-color="#FF444F"/>
            <stop offset="100%" stop-color="#FF6444"/>
        </linearGradient>
    </defs>
    <g fill="none" fill-rule="evenodd">
        <g fill="url(#sfufgywl9a)" fill-rule="nonzero" transform="translate(-24 -419)">
            <g>
                <g>
                    <g>
                        <g>
                            <path d="M8.757 15.774c.172.065.269.242.237.417l-.018.066-1.125 3c-.113.3-.517.322-.671.064l-.031-.064-.774-2.064-.774 2.064c-.113.3-.517.322-.671.064l-.031-.064-1.125-3c-.073-.194.025-.41.22-.483.193-.073.41.025.482.22l.773 2.062.775-2.063c.113-.3.517-.322.671-.064l.031.064.774 2.063.774-2.063c.073-.194.289-.292.483-.22zm6 0c.172.065.269.242.237.417l-.018.066-1.125 3c-.113.3-.517.322-.671.064l-.031-.064-.774-2.064-.774 2.064c-.113.3-.517.322-.671.064l-.031-.064-1.125-3c-.073-.194.025-.41.22-.483.193-.073.41.025.482.22l.773 2.062.775-2.063c.113-.3.517-.322.671-.064l.031.064.774 2.063.774-2.063c.073-.194.289-.292.483-.22zm6 0c.172.065.269.242.237.417l-.018.066-1.125 3c-.113.3-.517.322-.671.064l-.031-.064-.774-2.064-.774 2.064c-.113.3-.517.322-.671.064l-.031-.064-1.125-3c-.073-.194.025-.41.22-.483.193-.073.41.025.482.22l.773 2.062.775-2.063c.113-.3.517-.322.671-.064l.031.064.774 2.063.774-2.063c.073-.194.289-.292.483-.22zM12 4.5c2.485 0 4.5 2.015 4.5 4.5s-2.015 4.5-4.5 4.5S7.5 11.485 7.5 9 9.515 4.5 12 4.5zm0 .75C9.929 5.25 8.25 6.929 8.25 9c0 2.071 1.679 3.75 3.75 3.75 2.071 0 3.75-1.679 3.75-3.75 0-2.071-1.679-3.75-3.75-3.75zm2.89 2.36c.13.13.145.332.044.478l-.044.052-3 3c-.13.13-.332.145-.478.044l-.052-.044-1.5-1.5c-.147-.146-.147-.384 0-.53.13-.13.332-.145.478-.044l.052.044 1.235 1.235L14.36 7.61c.146-.147.384-.147.53 0z" transform="translate(0 48) translate(16 168) translate(0 196) translate(8 7)"/>
                        </g>
                    </g>
                </g>
            </g>
        </g>
    </g>
</svg>
