<?xml version="1.0" encoding="UTF-8"?>
<svg width="917px" height="392px" viewBox="0 0 917 392" version="1.1" xmlns="http://www.w3.org/2000/svg" xmlns:xlink="http://www.w3.org/1999/xlink">
    <!-- Generator: Sketch 55.1 (78136) - https://sketchapp.com -->
    <title>Illustration</title>
    <desc>Created with Sketch.</desc>
    <defs>
        <linearGradient x1="-1.79672771%" y1="43.2357274%" x2="82.3423639%" y2="43.2357274%" id="linearGradient-1">
            <stop stop-color="#FF444F" stop-opacity="0" offset="0%"></stop>
            <stop stop-color="#FF444F" stop-opacity="0.534839527" offset="67.3247466%"></stop>
            <stop stop-color="#FF444F" offset="100%"></stop>
        </linearGradient>
        <filter x="-115.3%" y="-109.6%" width="330.7%" height="319.1%" filterUnits="objectBoundingBox" id="filter-2">
            <feGaussianBlur stdDeviation="5.10510511" in="SourceGraphic"></feGaussianBlur>
        </filter>
        <filter x="0.0%" y="0.0%" width="100.0%" height="100.0%" filterUnits="objectBoundingBox" id="filter-3">
            <feGaussianBlur stdDeviation="0" in="SourceGraphic"></feGaussianBlur>
        </filter>
    </defs>
    <g id="Homepage" stroke="none" stroke-width="1" fill="none" fill-rule="evenodd">
        <g id="1.0---Homepage" transform="translate(0.000000, -428.000000)">
            <g id="Above-the-fold">
                <g id="Illustration" transform="translate(0.000000, 429.000000)">
                    <g id="Circle" transform="translate(526.000000, 0.000000)" stroke="#FFFFFF">
                        <g id="Group-14">
                            <circle id="Shape" opacity="0.1" cx="194" cy="194" r="36"></circle>
                            <circle id="Shape" opacity="0.08" cx="194" cy="194" r="60"></circle>
                            <circle id="Shape" opacity="0.07" cx="194" cy="194" r="82"></circle>
                            <circle id="Shape" opacity="0.06" cx="194" cy="194" r="104"></circle>
                            <circle id="Shape" opacity="0.04" cx="195" cy="195" r="129"></circle>
                            <circle id="Shape" opacity="0.04" cx="195" cy="195" r="161"></circle>
                            <circle id="Shape" opacity="0.02" cx="195" cy="195" r="195"></circle>
                        </g>
                    </g>
                    <path d="M0,141.989224 L189.441588,141.643529 L207,98 C254.024616,133.424552 277.603499,151.444211 277.73665,152.058977 L285.008378,185.000337 C285.208104,185.922486 286.024416,186.578381 286.965295,186.572691 L293.136257,186.572691 C293.716083,186.573919 294.267209,186.825903 294.64842,187.26408 L309.102924,203.991244 C309.364442,204.308873 309.526866,204.696733 309.569916,205.106388 L316.797168,272.215768 C316.910476,273.232197 317.76767,274 318.787442,274 L323.301695,274 C324.367072,274 325.244355,273.160535 325.291969,272.093102 L331.818733,133.358008 C331.871733,132.338896 332.67872,131.521871 333.694308,131.459102 C334.709895,131.396334 335.6108,132.107802 335.788162,133.112676 L344.483103,184.409311 C344.641269,185.375519 345.474859,186.084022 346.451139,186.082027 L386.301095,186.082027 C387.053139,186.07517 387.737102,185.643743 388.068992,184.966883 C390.070385,181.164241 396.6861,168.485051 396.6861,167.871722 C396.6861,167.258392 398.52071,149.549902 399.577001,139.312878 C399.676976,138.424196 400.351101,137.709045 401.230182,137.559086 C402.109263,137.409126 402.981225,137.860536 403.368529,138.666094 L407.037749,146.349438 C407.344723,146.992228 407.97013,147.422098 408.67863,147.477288 C409.38713,147.532479 410.071218,147.204615 410.473473,146.617073 L416.900168,137.305618 C417.372264,136.62716 418.211051,136.308711 419.012766,136.503561 C419.814482,136.698412 420.414865,137.366639 420.524913,138.186582 L424.41651,169.265652 C424.44324,169.462566 424.499469,169.654303 424.583293,169.834376 L429.408874,180.640123 C429.750404,181.417334 430.544911,181.892676 431.389067,181.824845 C432.233222,181.757014 432.942134,181.160867 433.155926,180.339034 L434.868229,173.926955 C435.078546,173.108955 435.779507,172.512305 436.61846,172.437179 C437.457412,172.362053 438.252678,172.824719 438.604162,173.592412 L443.718833,184.63234 C444.061882,185.31991 444.76462,185.752301 445.531205,185.747484 L472.972525,185.747484 C473.847868,185.746108 474.61956,185.1713 474.873848,184.331251 L487.838427,141.643529 C488.102572,140.726016 488.977693,140.12468 489.926183,140.208935 C490.874672,140.293191 491.630785,141.039431 491.730024,141.989224 L493.887081,160.567527 C493.990883,161.464769 494.679451,162.18196 495.56951,162.319895 C496.459568,162.457829 497.33186,161.982527 497.700846,161.158554 L502.393,150.598138 C502.592209,150.148937 502.948038,149.788101 503.393697,149.583356 L539.941354,133.045767 C540.506083,132.792139 541.156029,132.81475 541.701878,133.107013 C542.247727,133.399277 542.628093,133.928326 542.732186,134.540061 L545.322878,150.15208 C545.4034,150.622672 545.647656,151.049397 546.012246,151.356436 L565.459114,167.648693 C565.798718,167.935858 566.033418,168.328172 566.126245,168.763837 L568.238826,177.852263 C568.46359,178.74311 569.262825,179.36712 570.179065,179.36712 C571.095305,179.36712 571.894541,178.74311 572.119304,177.852263 L578.846208,151.746736 C579.080752,150.814881 579.947251,150.185416 580.903195,150.252443 L584.572416,150.497775 C585.646553,150.569536 586.584864,149.776285 586.696116,148.702392 L588.130447,134.395092 C588.208241,133.353427 589.073632,132.548076 590.115162,132.548076 C591.156692,132.548076 592.022083,133.353427 592.099877,134.395092 L592.978266,143.204731 C593.073853,144.110796 593.765925,144.838642 594.663791,144.977382 C595.561656,145.116121 596.440072,144.630949 596.80315,143.795758 L601.195095,133.659097 C601.508764,132.923534 602.232055,132.44872 603.029705,132.454741 L621.353569,132.454741 C621.78094,132.451756 622.196771,132.315338 622.543286,132.06444 L643.813645,116.44127 C643.927777,116.356449 644.032189,116.259211 644.124972,116.151332 L659.302202,98.9223536 C659.945124,98.1986756 661.011828,98.0391395 661.837299,98.5432045 L687.944357,114.66819 C688.402259,114.953819 688.726716,115.4118 688.844984,115.939455 L692.725463,133.335705 C692.736218,133.458133 692.736218,133.581274 692.725463,133.703702 L695.605245,221.454402 C695.604851,221.605617 695.627345,221.756016 695.671958,221.90046 L698.095867,231.278823 C698.329696,232.176936 699.147023,232.797111 700.072351,232.77855 C700.997679,232.75999 701.789627,232.107534 701.987464,231.200763 L707.769266,204.704936 C707.876816,204.261649 708.131725,203.868332 708.491991,203.589792 L720,194.590578" id="Path" stroke="url(#linearGradient-1)" stroke-width="2" stroke-linecap="round" stroke-linejoin="round"></path>
                    <ellipse id="Shape" fill="#FF444F" filter="url(#filter-2)" cx="720.328356" cy="192.991372" rx="6.63950561" ry="6.98895327"></ellipse>
                    <ellipse id="Shape" fill="#FF444F" filter="url(#filter-3)" cx="720.743325" cy="192.554562" rx="4.56466011" ry="4.80490537"></ellipse>
                </g>
            </g>
        </g>
    </g>
</svg>