<svg xmlns="http://www.w3.org/2000/svg" xmlns:xlink="http://www.w3.org/1999/xlink" width="618" height="603" viewBox="0 0 618 603">
    <defs>
        <linearGradient id="zugz720oyc" x1="52.903%" x2="51.246%" y1="13.751%" y2="93.774%">
            <stop offset="0%" stop-color="#444" stop-opacity="0"/>
            <stop offset="100%" stop-color="#303030"/>
        </linearGradient>
        <linearGradient id="rtw1a73a5f" x1="66.027%" x2="56.881%" y1="13.751%" y2="93.774%">
            <stop offset="0%" stop-color="#444" stop-opacity="0"/>
            <stop offset="100%" stop-color="#303030"/>
        </linearGradient>
        <filter id="isd5eoyf1a" width="173.6%" height="126.3%" x="-34.4%" y="-6.6%" filterUnits="objectBoundingBox">
            <feOffset dx="4" dy="30" in="SourceAlpha" result="shadowOffsetOuter1"/>
            <feGaussianBlur in="shadowOffsetOuter1" result="shadowBlurOuter1" stdDeviation="15"/>
            <feColorMatrix in="shadowBlurOuter1" values="0 0 0 0 0 0 0 0 0 0 0 0 0 0 0 0 0 0 0.2 0"/>
        </filter>
        <filter id="qga993yumd" width="131.3%" height="126.3%" x="-14.6%" y="-6.6%" filterUnits="objectBoundingBox">
            <feOffset dx="4" dy="30" in="SourceAlpha" result="shadowOffsetOuter1"/>
            <feGaussianBlur in="shadowOffsetOuter1" result="shadowBlurOuter1" stdDeviation="15"/>
            <feColorMatrix in="shadowBlurOuter1" values="0 0 0 0 0 0 0 0 0 0 0 0 0 0 0 0 0 0 0.2 0"/>
        </filter>
        <path id="3n5efe28db" d="M63.954 0h74.543c14.628 0 25.562 10.712 24.421 23.927l-35.32 409.146C126.458 446.288 113.674 457 99.046 457H24.503C9.875 457-1.06 446.288.082 433.073l35.32-409.146C36.542 10.712 49.326 0 63.954 0z"/>
        <path id="k7ufh09fxe" d="M238.933 86h294.572c14.624 0 25.554 10.712 24.413 23.927L522.61 519.073C521.47 532.288 508.69 543 494.067 543H199.495c-14.624 0-25.554-10.712-24.413-23.927l35.308-409.146C211.53 96.712 224.31 86 238.933 86z"/>
    </defs>
    <g fill="none" fill-rule="evenodd">
        <g fill-rule="nonzero">
            <g>
                <g>
                    <g opacity=".4" transform="translate(-37 -2994) translate(0 3269) translate(63 -275)">
                        <use fill="#000" filter="url(#isd5eoyf1a)" xlink:href="#3n5efe28db"/>
                        <use fill="url(#zugz720oyc)" xlink:href="#3n5efe28db"/>
                    </g>
                    <g opacity=".5" transform="translate(-37 -2994) translate(0 3269) translate(63 -275)">
                        <use fill="#000" filter="url(#qga993yumd)" xlink:href="#k7ufh09fxe"/>
                        <use fill="url(#rtw1a73a5f)" xlink:href="#k7ufh09fxe"/>
                    </g>
                </g>
            </g>
        </g>
    </g>
</svg>
