<svg xmlns="http://www.w3.org/2000/svg" xmlns:xlink="http://www.w3.org/1999/xlink" width="90" height="90" viewBox="0 0 90 90">
    <defs>
        <path id="fk9tx8vv0a" d="M0.001 0L68.246 0 68.246 68.245 0.001 68.245z"/>
    </defs>
    <g fill="none" fill-rule="evenodd">
        <g>
            <g>
                <g>
                    <path fill="#FFF" fill-rule="nonzero" stroke="#979797" d="M0 0H88V88H0z" opacity=".01" transform="translate(-1081 -3032) translate(120 2640) translate(962 393)"/>
                    <g transform="translate(-1081 -3032) translate(120 2640) translate(962 393)">
                        <mask id="d7cjql7a0b" fill="#fff">
                            <use xlink:href="#fk9tx8vv0a"/>
                        </mask>
                        <path fill="#85ACAF" d="M36.979 46.63v4.553h-5.683v-4.536c-4.186-.78-6.817-3.364-7.004-7.115h4.926c.241 1.97 2.227 3.237 5.099 3.237 2.647 0 4.522-1.284 4.522-3.112 0-1.557-1.214-2.444-4.202-3.114l-3.168-.677c-4.438-.927-6.616-3.238-6.616-6.95 0-3.714 2.474-6.39 6.413-7.27V17.06h5.682v4.592c3.845.857 6.406 3.479 6.53 7.006h-4.756c-.24-1.924-2.03-3.207-4.491-3.207-2.459 0-4.233 1.183-4.233 3.034 0 1.504 1.158 2.337 4.016 2.975l2.934.623c4.896 1.027 7.004 3.112 7.004 6.918 0 4.071-2.615 6.795-6.973 7.629zM0 34.123c0 18.845 15.276 34.123 34.122 34.123 18.845 0 34.123-15.278 34.123-34.123C68.246 15.278 52.968 0 34.123 0 15.277 0 .001 15.278.001 34.122z" mask="url(#d7cjql7a0b)"/>
                    </g>
                    <path fill="#FF444F" style="mix-blend-mode:multiply" d="M58.699 41.626L58.699 49.288 73.19 49.288 50.192 72.29 34.521 56.886 12.034 75.429 12.034 86.205 34.542 67.651 50.235 83.08 78.542 54.774 78.542 69.131 86.204 69.131 86.204 41.626z" transform="translate(-1081 -3032) translate(120 2640) translate(962 393)"/>
                </g>
            </g>
        </g>
    </g>
</svg>
