<svg xmlns="http://www.w3.org/2000/svg" xmlns:xlink="http://www.w3.org/1999/xlink" width="696" height="734"><defs><linearGradient id="c" x1="57.663%" x2="53.29%" y1="13.751%" y2="93.774%"><stop offset="0%" stop-color="#444" stop-opacity="0"/><stop offset="100%" stop-color="#303030"/></linearGradient><linearGradient id="f" x1="50%" x2="41.344%" y1="19.913%" y2="123.563%"><stop offset="0%" stop-color="#E3E0E0" stop-opacity="0"/><stop offset="100%" stop-color="#D1D1D1"/></linearGradient><linearGradient id="i" x1="50%" x2="48.209%" y1="15.263%" y2="134.934%"><stop offset="0%" stop-color="#E3E0E0" stop-opacity="0"/><stop offset="100%" stop-color="#D1D1D1"/></linearGradient><filter id="a" width="133.8%" height="119.6%" x="-15.8%" y="-4.9%" filterUnits="objectBoundingBox"><feOffset dx="4" dy="30" in="SourceAlpha" result="shadowOffsetOuter1"/><feGaussianBlur in="shadowOffsetOuter1" result="shadowBlurOuter1" stdDeviation="15"/><feColorMatrix in="shadowBlurOuter1" values="0 0 0 0 0 0 0 0 0 0 0 0 0 0 0 0 0 0 0.2 0"/></filter><filter id="d" width="143.8%" height="147.1%" x="-20.4%" y="-11.8%" filterUnits="objectBoundingBox"><feOffset dx="4" dy="30" in="SourceAlpha" result="shadowOffsetOuter1"/><feGaussianBlur in="shadowOffsetOuter1" result="shadowBlurOuter1" stdDeviation="15"/><feColorMatrix in="shadowBlurOuter1" values="0 0 0 0 0 0 0 0 0 0 0 0 0 0 0 0 0 0 0.1 0"/></filter><filter id="g" width="203.4%" height="147.1%" x="-48.3%" y="-11.8%" filterUnits="objectBoundingBox"><feOffset dx="4" dy="30" in="SourceAlpha" result="shadowOffsetOuter1"/><feGaussianBlur in="shadowOffsetOuter1" result="shadowBlurOuter1" stdDeviation="15"/><feColorMatrix in="shadowBlurOuter1" values="0 0 0 0 0 0 0 0 0 0 0 0 0 0 0 0 0 0 0.1 0"/></filter><path id="b" d="M357.467 0H605.32c17.719 0 30.963 14.36 29.581 32.073l-42.783 548.446c-1.382 17.713-16.866 32.072-34.585 32.072H309.68c-17.719 0-30.963-14.359-29.581-32.072l42.783-548.446C324.264 14.36 339.748 0 357.467 0z"/><path id="e" d="M47.996 107.296h200.493c15.379 0 26.752 12.41 25.402 27.717l-17.596 199.565c-1.35 15.308-14.911 27.718-30.29 27.718H25.51c-15.379 0-26.752-12.41-25.402-27.718l17.596-199.565c1.35-15.308 14.911-27.717 30.29-27.717z"/><path id="h" d="M68.672 418.296h42.989c15.275 0 26.572 12.41 25.231 27.717l-17.478 199.565c-1.34 15.308-14.81 27.718-30.086 27.718H46.339c-15.275 0-26.572-12.41-25.231-27.718l17.478-199.565c1.34-15.308 14.81-27.717 30.086-27.717z"/></defs><g fill-rule="nonzero" fill="none"><g opacity=".378" transform="translate(26.906 .704)"><use fill="#000" filter="url(#a)" xlink:href="#b"/><use fill="url(#c)" xlink:href="#b"/></g><g opacity=".101" transform="translate(26.906 .704)"><use fill="#000" filter="url(#d)" xlink:href="#e"/><use fill="url(#f)" xlink:href="#e"/></g><g opacity=".101" transform="translate(26.906 .704)"><use fill="#000" filter="url(#g)" xlink:href="#h"/><use fill="url(#i)" xlink:href="#h"/></g></g></svg>