<svg xmlns="http://www.w3.org/2000/svg" width="90" height="90" viewBox="0 0 90 90">
    <g fill="none" fill-rule="evenodd">
        <g>
            <g>
                <g>
                    <path fill="#FFF" fill-rule="nonzero" stroke="#979797" d="M0 0H88V88H0z" opacity=".01" transform="translate(-267 -2804) translate(120 2640) translate(148 165)"/>
                    <path fill="#85ACAF" d="M35.556 62.115l-6.002 6.239h14.225l-5.594-6.199c-.662-.85-1.941-.87-2.629-.04z" transform="translate(-267 -2804) translate(120 2640) translate(148 165)"/>
                    <path fill="#85ACAF" d="M45.566 56.015c.965.63 1.546 1.703 1.546 2.856v9.372h1.664c1.09 0 1.973.882 1.973 1.971 0 1.091-.884 1.973-1.973 1.973h-24.22c-1.089 0-1.972-.882-1.972-1.973 0-1.089.883-1.97 1.972-1.97h1.665V58.87c0-1.153.581-2.225 1.545-2.856l7.176-4.682-7.176-4.68c-.964-.631-1.545-1.706-1.545-2.857v-9.372h-1.665c-1.089 0-1.972-.884-1.972-1.973s.883-1.972 1.972-1.972h24.22c1.09 0 1.973.883 1.973 1.972 0 1.09-.884 1.973-1.973 1.973h-1.664v9.372c0 1.151-.581 2.226-1.546 2.856l-7.175 4.68 7.175 4.683zm-8.899-41.349C16.417 14.666.001 31.082.001 51.333c0 20.25 16.415 36.666 36.666 36.666 20.25 0 36.667-16.415 36.667-36.666 0-20.251-16.418-36.667-36.667-36.667z" transform="translate(-267 -2804) translate(120 2640) translate(148 165)"/>
                    <path fill="#FF444F" d="M88 22c0 12.15-9.85 22-22 22s-22-9.85-22-22S53.85 0 66 0s22 9.85 22 22z" style="mix-blend-mode:multiply" transform="translate(-267 -2804) translate(120 2640) translate(148 165)"/>
                    <path fill="#FFF" d="M77 19.25L68.75 19.25 68.75 11 63.25 11 63.25 19.25 55 19.25 55 24.75 63.25 24.75 63.25 33 68.75 33 68.75 24.75 77 24.75z" transform="translate(-267 -2804) translate(120 2640) translate(148 165)"/>
                </g>
            </g>
        </g>
    </g>
</svg>
