<?xml version="1.0" encoding="UTF-8"?>
<svg width="48px" height="48px" viewBox="0 0 48 48" version="1.1" xmlns="http://www.w3.org/2000/svg" xmlns:xlink="http://www.w3.org/1999/xlink" aria-labelledby="superor-trading-platform-icon-title">
    <title id='superior-trading-platform-icon-title'>Superior trading platform icon</title>
    <g id="icons/dtrader/trading_platform" stroke="none" stroke-width="1" fill="none" fill-rule="evenodd">
        <g>
            <path d="M46.1954887,12.1696719 L46.1954887,39.5226358 C46.1954887,40.6248078 45.3098482,41.5240997 44.2105263,41.5240997 L3.78947368,41.5240997 C2.69015183,41.5240997 1.80451128,40.6248078 1.80451128,39.5226358 L1.80451128,12.1696719 C1.80451128,11.0674999 2.69015183,10.168208 3.78947368,10.168208 L28.4030075,10.168208 C28.9013095,10.168208 29.3052632,9.7517174 29.3052632,9.23795017 C29.3052632,8.72418294 28.9013095,8.30769231 28.4030075,8.30769231 L3.78947368,8.30769231 C1.69966254,8.30769231 0,10.0335535 0,12.1696719 L0,39.5226358 C0,41.6587542 1.69966254,43.3846154 3.78947368,43.3846154 L44.2105263,43.3846154 C46.3003375,43.3846154 48,41.6587542 48,39.5226358 L48,12.1696719 C48,11.6559047 47.5960464,11.2394141 47.0977444,11.2394141 C46.5994423,11.2394141 46.1954887,11.6559047 46.1954887,12.1696719 Z" id="Path-2" fill="#85ACB0" fill-rule="nonzero"></path>
            <path d="M25.8813384,43.015504 L25.8813384,46.3384019 C25.8813384,46.7462759 26.2867377,47.0769231 26.786823,47.0769231 C27.2869084,47.0769231 27.6923077,46.7462759 27.6923077,46.3384019 L27.6923077,42.2769828 C27.6923077,41.8691087 27.2869084,41.5384615 26.786823,41.5384615 L22.1362539,41.5384615 C21.6361685,41.5384615 21.2307692,41.8691087 21.2307692,42.2769828 L21.2307692,46.3384019 C21.2307692,46.7462759 21.6361685,47.0769231 22.1362539,47.0769231 C22.6363392,47.0769231 23.0417385,46.7462759 23.0417385,46.3384019 L23.0417385,43.015504 L25.8813384,43.015504 Z" id="Path" fill="#85ACB0" fill-rule="nonzero"></path>
            <path d="M16.3569231,47.2 L32.2338462,47.2" id="Path" stroke="#85ACB0" stroke-width="2" stroke-linecap="round" stroke-linejoin="round"></path>
            <path d="M0.902255639,36 L47.0977444,36 C47.5960464,36 48,35.5867244 48,35.0769231 C48,34.5671218 47.5960464,34.1538462 47.0977444,34.1538462 L0.902255639,34.1538462 C0.403953609,34.1538462 0,34.5671218 0,35.0769231 C0,35.5867244 0.403953609,36 0.902255639,36 Z" id="Path" fill="#85ACB0" fill-rule="nonzero"></path>
            <path d="M16.6153846,24.9958367 L16.6153846,31.3118556 C16.6153846,31.861841 17.0286602,32.3076923 17.5384615,32.3076923 C18.0482628,32.3076923 18.4615385,31.861841 18.4615385,31.3118556 L18.4615385,24.9958367 C18.4615385,24.4458513 18.0482628,24 17.5384615,24 C17.0286602,24 16.6153846,24.4458513 16.6153846,24.9958367 Z" id="Path" fill="#85ACB0" fill-rule="nonzero"></path>
            <path d="M24,23.0738311 L24,31.3877073 C24,31.895801 24.4132756,32.3076923 24.9230769,32.3076923 C25.4328782,32.3076923 25.8461538,31.895801 25.8461538,31.3877073 L25.8461538,23.0738311 C25.8461538,22.5657375 25.4328782,22.1538462 24.9230769,22.1538462 C24.4132756,22.1538462 24,22.5657375 24,23.0738311 Z" id="Path" fill="#85ACB0" fill-rule="nonzero"></path>
            <path d="M20.3076923,19.3993937 L20.3076923,31.3698371 C20.3076923,31.8878002 20.7209679,32.3076923 21.2307692,32.3076923 C21.7405705,32.3076923 22.1538462,31.8878002 22.1538462,31.3698371 L22.1538462,19.3993937 C22.1538462,18.8814306 21.7405705,18.4615385 21.2307692,18.4615385 C20.7209679,18.4615385 20.3076923,18.8814306 20.3076923,19.3993937 Z" id="Path" fill="#85ACB0" fill-rule="nonzero"></path>
            <path d="M9.23076923,23.0844603 L9.23076923,31.3770782 C9.23076923,31.8910422 9.64404485,32.3076923 10.1538462,32.3076923 C10.6636475,32.3076923 11.0769231,31.8910422 11.0769231,31.3770782 L11.0769231,23.0844603 C11.0769231,22.5704963 10.6636475,22.1538462 10.1538462,22.1538462 C9.64404485,22.1538462 9.23076923,22.5704963 9.23076923,23.0844603 Z" id="Path-Copy-2" fill="#85ACB0" fill-rule="nonzero"></path>
            <path d="M5.53846154,25.8218462 L5.53846154,31.408923 C5.53846154,31.9052996 5.95173715,32.3076923 6.46153846,32.3076923 C6.97133977,32.3076923 7.38461538,31.9052996 7.38461538,31.408923 L7.38461538,25.8218462 C7.38461538,25.3254696 6.97133977,24.9230769 6.46153846,24.9230769 C5.95173715,24.9230769 5.53846154,25.3254696 5.53846154,25.8218462 Z" id="Path-Copy" fill="#85ACB0" fill-rule="nonzero"></path>
            <path d="M27.6923077,28.5577907 L27.6923077,31.4422093 C27.6923077,31.9202024 28.1055833,32.3076923 28.6153846,32.3076923 C29.1251859,32.3076923 29.5384615,31.9202024 29.5384615,31.4422093 L29.5384615,28.5577907 C29.5384615,28.0797976 29.1251859,27.6923077 28.6153846,27.6923077 C28.1055833,27.6923077 27.6923077,28.0797976 27.6923077,28.5577907 Z" id="Path" fill="#85ACB0" fill-rule="nonzero"></path>
            <path d="M12.9230769,18.4814702 L12.9230769,31.3646836 C12.9230769,31.8854929 13.3363525,32.3076923 13.8461538,32.3076923 C14.3559552,32.3076923 14.7692308,31.8854929 14.7692308,31.3646836 L14.7692308,18.4814702 C14.7692308,17.9606609 14.3559552,17.5384615 13.8461538,17.5384615 C13.3363525,17.5384615 12.9230769,17.9606609 12.9230769,18.4814702 Z" id="Path" fill="#85ACB0" fill-rule="nonzero"></path>
            <path d="M36.9230843,12.1566434 L36.9230843,5.53846154 C36.9230843,5.02866023 36.5098087,4.61538462 36.0000074,4.61538462 C35.4902061,4.61538462 35.0769305,5.02866023 35.0769305,5.53846154 L35.0769305,12.1566434 C35.0769305,12.6664447 35.4902061,13.0797203 36.0000074,13.0797203 C36.5098087,13.0797203 36.9230843,12.6664447 36.9230843,12.1566434 Z" id="Path" fill="#FF444F" fill-rule="nonzero"></path>
            <path d="M36.0000074,6.78245749 L38.1504337,8.72522649 C38.5287194,9.06698274 39.1124287,9.03736981 39.4541849,8.65908416 C39.7959412,8.2807985 39.7663282,7.6970892 39.3880426,7.35533295 L36.6188118,4.85351477 C36.2673675,4.5360079 35.7326473,4.5360079 35.3812029,4.85351477 L32.6119722,7.35533295 C32.2336865,7.6970892 32.2040736,8.2807985 32.5458298,8.65908416 C32.8875861,9.03736981 33.4712954,9.06698274 33.849581,8.72522649 L36.0000074,6.78245749 Z" id="Path" fill="#FF444F" fill-rule="nonzero"></path>
            <path d="M41.5384615,5.53846154 L41.5384615,12.1566434 C41.5384615,12.6664447 41.9517372,13.0797203 42.4615385,13.0797203 C42.9713398,13.0797203 43.3846154,12.6664447 43.3846154,12.1566434 L43.3846154,5.53846154 C43.3846154,5.02866023 42.9713398,4.61538462 42.4615385,4.61538462 C41.9517372,4.61538462 41.5384615,5.02866023 41.5384615,5.53846154 Z" id="Path" fill="#FF444F" fill-rule="nonzero"></path>
            <path d="M40.3111121,9.46889938 C39.9328265,9.12714313 39.3491172,9.15675606 39.0073609,9.53504172 C38.6656047,9.91332737 38.6952176,10.4970367 39.0735033,10.8387929 L41.842734,13.3406111 C42.1941783,13.658118 42.7288986,13.658118 43.0803429,13.3406111 L45.8495737,10.8387929 C46.2278593,10.4970367 46.2574723,9.91332737 45.915716,9.53504172 C45.5739597,9.15675606 44.9902505,9.12714313 44.6119648,9.46889938 L42.4615385,11.4116684 L40.3111121,9.46889938 Z" id="Path" fill="#FF444F" fill-rule="nonzero"></path>
            <path d="M43.737074,13.5759075 C41.8761652,15.5315681 39.1058276,16.1759799 36.6338442,15.2263419 C34.1658691,14.2782438 32.4444283,11.9139894 32.214606,9.1639268 C32.1713948,8.64685987 31.7447087,8.26518431 31.261576,8.31143057 C30.7784433,8.35767684 30.4218164,8.81433241 30.4650276,9.33139934 C30.7560682,12.8140019 32.93115,15.8012943 36.0404015,16.9957454 C39.1456448,18.1886566 42.6250398,17.3793102 44.9677864,14.9172781 C45.3138863,14.5535559 45.3189514,13.9584246 44.9790996,13.5880154 C44.6392478,13.2176061 44.083174,13.2121853 43.737074,13.5759075 Z" id="Path" fill="#000000" fill-rule="nonzero"></path>
            <path d="M34.7267662,4.01991844 C36.5738371,2.04931205 39.3226945,1.38783493 41.7869164,2.32287671 C44.2472243,3.25643336 45.9814545,5.61341414 46.2464002,8.37676944 C46.2965567,8.89989679 46.7287048,9.27993056 47.2116299,9.22559862 C47.694555,9.17126668 48.0453833,8.70314344 47.9952267,8.1800161 C47.6596582,4.68007155 45.4681836,1.7016531 42.3681733,0.525363215 C39.2720769,-0.649441529 35.8188701,0.181528173 33.4930061,2.66295026 C33.1470865,3.03200553 33.1428499,3.6349516 33.4835434,4.00966802 C33.8242368,4.38438443 34.3808466,4.3889737 34.7267662,4.01991844 Z" id="Path" fill="#000000" fill-rule="nonzero"></path>
            <path d="M33.2307692,19.3846154 C33.2307692,18.8748141 33.6440448,18.4615385 34.1538462,18.4615385 L43.3846154,18.4615385 C43.8944167,18.4615385 44.3076923,18.8748141 44.3076923,19.3846154 L44.3076923,31.3846154 C44.3076923,31.8944167 43.8944167,32.3076923 43.3846154,32.3076923 L34.1538462,32.3076923 C33.6440448,32.3076923 33.2307692,31.8944167 33.2307692,31.3846154 L33.2307692,19.3846154 Z M35.0769231,20.3076923 C35.0769231,24.8205128 35.0769231,28.2051282 35.0769231,30.4615385 L42.4615385,30.4615385 L42.4615385,20.3076923 L35.0769231,20.3076923 Z" id="Rectangle" fill="#85ACB0" fill-rule="nonzero"></path>
            <path d="M34.1538462,24.9230769 L42.4615385,24.9230769 C42.9469795,24.9230769 43.3405071,24.5098013 43.3405071,24 C43.3405071,23.8233867 42.7788054,23.0769231 42.4615385,23.0769231 L34.1538462,23.0769231 C33.6684052,23.0769231 33.2748775,23.4901987 33.2748775,24 C33.2748775,24.3398675 33.567867,24.6475598 34.1538462,24.9230769 Z" id="Path" fill="#85ACB0" fill-rule="nonzero"></path>
            <path d="M23.5716923,39.5703497 L25.0190769,39.5703497 C25.5288782,39.5703497 25.9421538,39.157074 25.9421538,38.6472727 C25.9421538,38.1374714 25.5288782,37.7241958 25.0190769,37.7241958 L23.5716923,37.7241958 C23.061891,37.7241958 22.6486154,38.1374714 22.6486154,38.6472727 C22.6486154,39.157074 23.061891,39.5703497 23.5716923,39.5703497 Z" id="Path" fill="#85ACB0" fill-rule="nonzero"></path>
        </g>
    </g>
</svg>