<svg xmlns="http://www.w3.org/2000/svg" width="231" height="145"><defs><linearGradient id="a" x1="0%" y1="1.48%" y2="84.465%"><stop offset="0%" stop-color="#FF6444"/><stop offset="100%" stop-color="#FF444F"/></linearGradient><linearGradient id="b" x1="0%" y1="4.847%" y2="82.073%"><stop offset="0%" stop-color="#FF6444"/><stop offset="100%" stop-color="#FF444F"/></linearGradient><linearGradient id="c" x1="136.345%" x2="-44.033%" y1="55.304%" y2="179.362%"><stop offset="0%" stop-color="#FF6444"/><stop offset="100%" stop-color="#FF444F"/></linearGradient><linearGradient id="d" x1="53.036%" x2="46.498%" y1="11.67%" y2="93.127%"><stop offset="0%" stop-color="#FF6444"/><stop offset="100%" stop-color="#FF444F"/></linearGradient></defs><g fill="none" fill-rule="evenodd"><path fill="#E5E5E5" fill-rule="nonzero" d="M55.941 144.4c-18.756 0-32.652-6.333-41.687-19C5.218 112.733.7 95 .7 72.2.7 49.4 5.218 31.667 14.254 19 23.289 6.333 37.185 0 55.94 0c18.757 0 32.653 6.333 41.69 19 9.035 12.667 13.553 30.4 13.553 53.2 0 22.8-4.518 40.533-13.553 53.2-9.036 12.667-22.932 19-41.688 19zm0-25.4c8.214 0 13.896-2.933 17.045-8.8 3.149-5.867 4.723-14.133 4.723-24.8V59c0-10.667-1.574-18.933-4.723-24.8-3.15-5.867-8.83-8.8-17.045-8.8-8.214 0-13.896 2.933-17.045 8.8-3.148 5.867-4.723 14.133-4.723 24.8v26.4c0 10.667 1.575 18.933 4.723 24.8 3.15 5.867 8.83 8.8 17.045 8.8zm95.696 23l48.054-115.2h-44.768v25.4h-26.08V2.4h101.446v26L184.084 142h-32.447z" opacity=".295"/><g transform="translate(25.7 53)"><path fill="url(#a)" fill-rule="nonzero" d="M64.087 0C65.144 0 66 .85 66 1.898v52.265c0 1.048-1.006 1.696-2.063 1.696h-34.03l-7.962 8.548c-.726.761-2.351.593-2.351.593s-1.032 0-1.032-1.016l.081-7.923H1.913A1.906 1.906 0 010 54.163V1.898C0 .85.856 0 1.913 0h62.174zM2.062 2.031V54.07h16.65c1.052 0 1.904.846 1.904 1.89v7.01l7.933-8.31c.36-.377.835-.83 1.357-.83h34.032V2.03H2.062z" transform="matrix(-1 0 0 1 66 0)"/><path fill="url(#b)" fill-rule="nonzero" d="M61.875 47.79c0 .53-.462.96-1.031.96-.57 0-1.032-.43-1.032-.96V4.968c-.569 0-1.03-.43-1.03-.96 0-.531.461-.961 1.03-.961 1.14 0 2.063.86 2.063 1.92V47.79zM3.094 30.469c0-.526.51-1.016 1.031-1.016.52 0 1.031.49 1.031 1.016V50.78h15.469c1.041 0 2.063.98 2.063 2.032v5.078c0 .677-.344 1.015-1.032 1.015-.687 0-1.031-.338-1.031-1.015v-5.078H5.156c-1.041 0-2.062-.981-2.062-2.032V30.47zM59.889 3.047c.527 0 .955.455.955 1.015 0 .561-.428 1.016-.955 1.016H24.674c-.528 0-.955-.455-.955-1.016 0-.56.427-1.015.955-1.015h35.215z" transform="matrix(-1 0 0 1 64.969 0)"/><ellipse cx="33" cy="38.086" fill="url(#c)" rx="1.031" ry="1.016"/><path fill="url(#d)" fill-rule="nonzero" d="M31.969 18.79v15.233c0 .561.461 1.016 1.031 1.016.57 0 1.031-.455 1.031-1.016V18.79c0-.56-.461-1.016-1.031-1.016-.57 0-1.031.455-1.031 1.016z"/></g></g></svg>