<svg xmlns="http://www.w3.org/2000/svg" width="152" height="58" viewBox="0 0 152 58" aria-labelledby="svg-icon">
    <title id='svg-icon'>SVG Icon</title>
    <path fill="#85ACB0" fill-rule="nonzero" d="M21.38 58c-4.948 0-9.144-.843-12.586-2.53C5.352 53.783 2.42 51.6 0 48.922l8.068-8.113c3.819 4.284 8.525 6.426 14.119 6.426 3.012 0 5.244-.615 6.696-1.847s2.179-2.865 2.179-4.9c0-1.554-.43-2.852-1.291-3.897-.86-1.044-2.609-1.754-5.244-2.128l-5.567-.723c-5.97-.75-10.34-2.544-13.11-5.383-2.77-2.838-4.156-6.614-4.156-11.327 0-2.517.484-4.82 1.452-6.908A15.3 15.3 0 0 1 7.301 4.74c1.802-1.5 4.008-2.665 6.616-3.495C16.526.415 19.497 0 22.832 0c4.25 0 7.988.67 11.215 2.008 3.227 1.34 5.997 3.294 8.31 5.865l-8.149 8.193c-1.345-1.553-2.972-2.825-4.881-3.815-1.91-.991-4.316-1.486-7.22-1.486-2.744 0-4.788.482-6.132 1.446-1.345.964-2.017 2.302-2.017 4.016 0 1.928.524 3.32 1.573 4.177 1.049.857 2.756 1.473 5.123 1.848l5.567.884c5.809.91 10.112 2.69 12.909 5.342 2.796 2.65 4.195 6.413 4.195 11.287 0 2.677-.484 5.14-1.452 7.39a15.84 15.84 0 0 1-4.236 5.784c-1.856 1.607-4.155 2.852-6.898 3.736C27.996 57.558 24.876 58 21.38 58zm45.18-.964L48.409.964h12.424l8.39 26.911 4.438 17.593h.242l4.276-17.593L86.57.964H98.59L80.276 57.036H66.561zm75.113-8.917h-.403c-.43 2.839-1.883 5.195-4.357 7.07-2.474 1.874-5.836 2.811-10.085 2.811-3.227 0-6.24-.616-9.036-1.848-2.797-1.231-5.244-3.052-7.342-5.462-2.098-2.41-3.738-5.41-4.921-8.997-1.184-3.589-1.775-7.74-1.775-12.452 0-4.713.618-8.89 1.855-12.532 1.237-3.642 2.972-6.694 5.204-9.158 2.232-2.463 4.908-4.338 8.028-5.623C121.96.643 125.43 0 129.248 0c5.056 0 9.413 1.084 13.07 3.253 3.658 2.17 6.535 5.423 8.633 9.76l-10.004 5.704a13.66 13.66 0 0 0-4.034-5.583c-1.829-1.526-4.384-2.29-7.665-2.29-3.818 0-6.857 1.099-9.116 3.295-2.26 2.195-3.389 5.65-3.389 10.362V33.5c0 4.659 1.13 8.1 3.389 10.322 2.259 2.223 5.298 3.334 9.116 3.334 1.506 0 2.932-.174 4.276-.522 1.345-.348 2.528-.884 3.55-1.607 1.022-.723 1.816-1.593 2.38-2.61.565-1.018.847-2.223.847-3.615v-2.812h-10.488V25.787H152v31.249h-10.327v-8.917z"/>
</svg>
