<svg xmlns="http://www.w3.org/2000/svg" width="154" height="102"><g fill="none" fill-rule="evenodd"><path d="M0 0h154v102H0z"/><path fill="#85ACB0" fill-rule="nonzero" d="M44.66 68c-2.93 0-5.415-.494-7.453-1.483-2.038-.99-3.774-2.269-5.207-3.838l4.777-4.757c2.261 2.512 5.048 3.768 8.36 3.768 1.783 0 3.105-.361 3.965-1.083.86-.722 1.29-1.68 1.29-2.873 0-.91-.255-1.672-.765-2.284-.51-.612-1.544-1.028-3.105-1.248l-3.296-.424c-3.535-.44-6.122-1.49-7.763-3.155-1.64-1.664-2.46-3.877-2.46-6.64 0-1.475.287-2.825.86-4.05a8.981 8.981 0 012.46-3.155c1.067-.879 2.373-1.561 3.917-2.048 1.545-.487 3.305-.73 5.28-.73 2.515 0 4.728.392 6.64 1.177 1.91.785 3.55 1.931 4.92 3.438l-4.825 4.803a9.653 9.653 0 00-2.89-2.237c-1.13-.58-2.556-.87-4.276-.87-1.624 0-2.834.282-3.63.847-.797.565-1.195 1.35-1.195 2.354 0 1.13.31 1.947.932 2.45.62.502 1.632.863 3.033 1.082l3.296.518c3.44.534 5.988 1.578 7.644 3.132 1.656 1.554 2.484 3.76 2.484 6.616 0 1.57-.287 3.014-.86 4.333a9.292 9.292 0 01-2.508 3.39c-1.099.942-2.46 1.672-4.084 2.19-1.625.518-3.472.777-5.542.777zm26.75-.565l-10.748-32.87h7.357l4.968 15.776 2.628 10.313h.143L78.29 50.34l4.968-15.776h7.118l-10.844 32.87H71.41zm44.475-5.227h-.239c-.254 1.664-1.114 3.045-2.58 4.144-1.464 1.099-3.455 1.648-5.97 1.648-1.911 0-3.695-.361-5.35-1.083-1.657-.722-3.106-1.79-4.348-3.202-1.242-1.413-2.213-3.171-2.914-5.275-.7-2.103-1.05-4.536-1.05-7.299 0-2.762.365-5.211 1.098-7.346.732-2.135 1.76-3.924 3.081-5.368a13.026 13.026 0 014.753-3.297c1.847-.753 3.902-1.13 6.163-1.13 2.993 0 5.573.636 7.739 1.907 2.165 1.272 3.869 3.179 5.111 5.722l-5.924 3.343a8.01 8.01 0 00-2.388-3.273c-1.083-.894-2.596-1.342-4.538-1.342-2.261 0-4.06.644-5.398 1.931s-2.007 3.312-2.007 6.075v5.274c0 2.731.669 4.748 2.007 6.051 1.337 1.303 3.137 1.955 5.398 1.955.891 0 1.735-.102 2.532-.306a6.393 6.393 0 002.101-.942 4.622 4.622 0 001.41-1.53c.334-.597.501-1.304.501-2.12v-1.648h-6.21v-5.98H122v18.318h-6.115v-5.227z"/></g></svg>