<svg xmlns="http://www.w3.org/2000/svg" width="48" height="48"><g fill="none"><path fill="#333" d="M21 36h6v3h10.5a1.5 1.5 0 011.5 1.5v3a1.5 1.5 0 01-1.5 1.5h-27A1.5 1.5 0 019 43.5v-3a1.5 1.5 0 011.5-1.5H21v-3z"/><g transform="translate(0 6)"><rect width="48" height="30" fill="#85ACB0" rx="3"/><path fill="#C9DBDC" d="M34.928 14.707L30.66 5.76l-.067-.12v-.037l-.076-.06-.36-.293H18.908c-.123.064-.232.15-.323.255l-6.533 9.015-.052.082v.901l4.275 9 .053.082H27.99l.09-.068.128-.15 6.427-9c.222-.309.257-.715.09-1.057l.203.397zM19.125 8.355l.473 1.043v.052c.192.35.56.565.96.563a1.096 1.096 0 001.087-1.066.958.958 0 00-.098-.427l-.57-1.26h6.57l-4.072 5.715-.473-1.043v-.052a1.069 1.069 0 00-.952-.555 1.067 1.067 0 00-1.08 1.058c0 .15.03.297.09.435l.57 1.26h-6.615l4.11-5.723zm.09 14.692l.855-1.282.038-.06c.088-.153.134-.326.134-.502a1.06 1.06 0 00-.502-.9 1.12 1.12 0 00-.585-.166 1.107 1.107 0 00-.915.48l-.885 1.328-2.723-5.723h6.615l-.84 1.253v.06a1.065 1.065 0 00.375 1.41c.17.105.364.163.563.165h.082c.342-.02.655-.197.848-.48l.398-.6.495-.75 2.722 5.707-6.675.06zm11.168-6.825h1.5l-4.163 5.753-2.752-5.768h1.575a1.064 1.064 0 00-.083-2.122h-1.117l4.14-5.775 2.752 5.775H30.3a1.067 1.067 0 00.082 2.13v.008z"/></g></g></svg>