<svg xmlns="http://www.w3.org/2000/svg" width="48" height="48" viewBox="0 0 48 48">
    <g fill="none">
        <path fill="#333" d="M21 36h6v3h10.5c.828 0 1.5.672 1.5 1.5v3c0 .828-.672 1.5-1.5 1.5h-27c-.828 0-1.5-.672-1.5-1.5v-3c0-.828.672-1.5 1.5-1.5H21v-3z"/>
        <g transform="translate(0 6)">
            <rect width="48" height="30" fill="#85ACB0" rx="3"/>
            <path fill="#C9DBDC" d="M34.928 14.707L30.66 5.76l-.067-.12v-.037l-.076-.06-.36-.293H18.908c-.123.064-.232.15-.323.255l-6.533 9.015-.052.082V15.503l4.275 9 .053.082H27.99l.09-.068.128-.15 6.427-9c.222-.309.257-.715.09-1.057l.203.397zM19.125 8.355l.473 1.043v.052c.192.35.56.565.96.563.59-.004 1.07-.475 1.087-1.066 0-.148-.032-.294-.098-.427l-.57-1.26h6.57l-4.072 5.715-.473-1.043v-.052c-.19-.347-.556-.56-.952-.555-.147-.002-.292.026-.428.083-.393.165-.65.548-.652.975 0 .15.03.297.09.435l.57 1.26h-6.615l4.11-5.723zm.09 14.692l.855-1.282.038-.06c.088-.153.134-.326.134-.502-.001-.367-.19-.707-.502-.9-.176-.108-.379-.166-.585-.166-.366-.001-.708.179-.915.48l-.885 1.328-2.723-5.723h6.615l-.84 1.253v.06c-.085.156-.128.332-.127.51.001.366.191.706.502.9.17.105.364.163.563.165h.082c.342-.02.655-.197.848-.48l.398-.6.495-.75 2.722 5.707-6.675.06zm11.168-6.825h1.5l-4.163 5.753-2.752-5.768h1.575c.553-.063.965-.542.943-1.099-.021-.557-.469-1.003-1.026-1.023h-1.117l4.14-5.775 2.752 5.775H30.3c-.38.015-.724.231-.902.568-.177.337-.161.743.042 1.065.203.322.562.512.942.497v.008z"/>
        </g>
    </g>
</svg>
