<svg xmlns="http://www.w3.org/2000/svg" width="64" height="64" viewBox="0 0 64 64">
    <g fill="#FF6444">
        <circle cx="32" cy="32" r="32" fill-opacity=".08"/>
        <rect width="16" height="8" x="29.214" y="18" fill-opacity=".48" rx="1"/>
        <path d="M25.214 18c1.11 0 2.08.402 2.599 1h1.401v6h-2.087l-2.266 2.268c-.39.39-1.024.39-1.414 0-.391-.39-.391-1.024 0-1.414l.852-.854h-5.085c-.552 0-1-.448-1-1v-5c0-.552.448-1 1-1h6z"/>
        <path fill-opacity=".48" d="M23.134 35.799l-7-12.124c-.276-.479-.112-1.09.366-1.366l5.196-3c.479-.276 1.09-.113 1.366.366l7 12.124c.276.478.113 1.09-.366 1.366l-5.196 3c-.478.276-1.09.112-1.366-.366z"/>
        <path d="M25.634 40.13c-.555-.962-.692-2.003-.433-2.751l-.7-1.214 5.195-3 1.044 1.807 3.097.83c.534.142.85.69.707 1.224-.143.534-.691.85-1.225.707l-1.165-.311 2.542 4.403c.276.479.113 1.09-.366 1.366l-4.33 2.5c-.478.276-1.09.113-1.366-.366l-3-5.196z"/>
        <path fill-opacity=".48" d="M41.794 33.201l-7 12.124c-.276.479-.887.642-1.366.366l-5.196-3c-.478-.276-.642-.887-.366-1.366l7-12.124c.276-.478.888-.642 1.366-.366l5.196 3c.479.276.643.888.366 1.366z"/>
        <path d="M44.294 28.87c-.555.962-1.388 1.601-2.165 1.751l-.7 1.214-5.197-3 1.044-1.807-.83-3.097c-.144-.534.173-1.082.706-1.225.534-.143 1.082.174 1.225.707l.313 1.165 2.542-4.403c.276-.479.888-.642 1.366-.366l4.33 2.5c.479.276.643.887.366 1.366l-3 5.196z"/>
    </g>
</svg>
