<svg xmlns="http://www.w3.org/2000/svg" width="64" height="64" viewBox="0 0 64 64" aria-labelledby="tfs-icon-title">
    <title id='tfs-icon-title'>Twenty four</title>
    <g fill="none" fill-rule="evenodd">
        <path d="M0 0h64v64H0z"/>
        <path fill="#85ACB0" fill-rule="nonzero" d="M56 32.5C56 19.519 45.476 9 32.5 9S9 19.519 9 32.5 19.524 56 32.5 56 56 45.481 56 32.5zm-2 0C54 44.372 44.376 54 32.5 54S11 44.372 11 32.5 20.624 11 32.5 11 54 20.628 54 32.5z"/>
        <path fill="#0E0E0E" fill-rule="nonzero" d="M34 15.667V13a1 1 0 0 0-2 0v2.667a1 1 0 0 0 2 0zM34 51.667V49a1 1 0 0 0-2 0v2.667a1 1 0 0 0 2 0zM44.707 20.485l1.778-1.778a1 1 0 0 0-1.414-1.414l-1.778 1.778a1 1 0 0 0 1.414 1.414zM18.707 46.485l1.778-1.778a1 1 0 0 0-1.414-1.414l-1.778 1.778a1 1 0 0 0 1.414 1.414zM49 33h2.667a1 1 0 0 0 0-2H49a1 1 0 0 0 0 2zM13 32h2.667a1 1 0 0 0 0-2H13a1 1 0 0 0 0 2zM44.293 44.707l1.778 1.778a1 1 0 0 0 1.414-1.414l-1.778-1.778a1 1 0 0 0-1.414 1.414zM18.293 18.707l1.778 1.778a1 1 0 0 0 1.414-1.414l-1.778-1.778a1 1 0 0 0-1.414 1.414z"/>
        <path fill="#FF444F" fill-rule="nonzero" d="M20.027 35.907V34.61l1.049-.889.693-.622c.335-.298.633-.635.889-1.004.175-.239.276-.523.293-.818a.72.72 0 0 0-.16-.489.622.622 0 0 0-.693-.124c-.338.16-.276.489-.32.8H20c.035-.164.06-.33.071-.498.031-.484.233-.94.569-1.289.407-.36.917-.585 1.458-.64a2.56 2.56 0 0 1 2.08.569c.84.89.84 2.283 0 3.173-.27.321-.568.619-.89.89-.106.106-.541.355-.666.452h2.667v1.778l-5.262.01zM28.667 36.111v-.889H26v-1.778L28.667 29h1.777v4.444h.89v1.778h-.89v.89h-1.777zm-.89-2.667h.89v-1.777l-.89 1.777zM33 36l3.556-7h1.777l-3.555 7zM40.222 36L42 31h-2v-2h4v2l-2 5z"/>
        <path fill="#85ACB0" fill-rule="nonzero" d="M6.33 47.41L1 46.681l1.964 2.602 5.33.716L9 44.602 7.036 42zM56.95 22l.728-5.398 5.322.75-1.95-2.613L55.728 14 55 19.398z"/>
        <path stroke="#85ACB0" stroke-linecap="round" stroke-width="2" d="M51.497 9.199A29.882 29.882 0 0 0 32 2C15.431 2 2 15.431 2 32a29.86 29.86 0 0 0 4.721 16.162m6.19 6.982A29.877 29.877 0 0 0 32 62c16.569 0 30-13.431 30-30a29.86 29.86 0 0 0-4.743-16.196"/>
    </g>
</svg>
