<svg xmlns="http://www.w3.org/2000/svg" width="328" height="132" viewBox="0 0 328 132">
    <g fill="none" fill-rule="evenodd">
        <path fill="#85ACB0" fill-opacity=".2" d="M52.321 103.173c1.27-.027 16.833-.086 37.364-.286 3.112-.03 6.339-.064 9.647-.101 39.35-.443 90.255-1.396 98.017-3.496 5.437-1.47 11.494-1.765 15.173-2.59 2.655-.594 7.884-22.098 10.298-25.397 1.362-1.862 5.87.375 7.689-2.611 5.531-9.083 9.92-20.82 10.597-21.36 2.18-1.743 7.649-9.73 11.565-13.96 5.277-5.7 20.47-13.06 25.37-13.06 3.587 0 7.826-.267 12.547-4.815 4.34-4.181 8.874-7.755 13.6-10.721v100.278H52.32"/>
        <path stroke="#85ACB0" stroke-linecap="round" stroke-width="2.216" d="M52.321 103.173c3.75-.078 129.559-.823 142.277-4.263 2.653-.717 6.857.263 10.128 0 3.432-.276 5.6-2.229 8.699-3.945 3.098-1.715 7.946-20.93 10.359-24.229 1.362-1.861 3.315.72 6.725-2.044 2.72-2.206 9.988-21.463 10.405-22.042 3.494-4.858 5.752-7.027 9.668-11.258 5.277-5.7 22.56-15.08 27.459-15.08 3.587 0 6.917-.418 12.547-4.815 4.776-3.73 9.309-6.372 13.6-7.928"/>
        <g fill="#85ACB0" font-family="IBMPlexSans, IBM Plex Sans" font-size="13.297">
            <text transform="translate(32.691 113.637)">
                <tspan x="6.663" y="14">2000</tspan>
            </text>
            <text transform="translate(32.691 113.637)">
                <tspan x="63.609" y="14">2005</tspan>
            </text>
            <text transform="translate(32.691 113.637)">
                <tspan x="128.992" y="14">2010</tspan>
            </text>
            <text transform="translate(32.691 113.637)">
                <tspan x="192.266" y="14">2015</tspan>
            </text>
            <text transform="translate(32.691 113.637)">
                <tspan x="255.539" y="14">2018</tspan>
            </text>
        </g>
        <g stroke-linecap="round" stroke-linejoin="round">
            <g stroke="#85ACB0">
                <path stroke-dasharray="3.491" stroke-width="1.164" d="M304.241 103.11V8.649"/>
                <path stroke-dasharray="3.191" stroke-width="1.064" d="M240.44 102.286V47.332"/>
            </g>
            <g stroke="#A6A8AB" stroke-dasharray="3.491" stroke-opacity=".45" stroke-width="1.108" opacity=".45">
                <path d="M53.804 8.09H304.79M53.804 50.198H304.79M53.804 91.198H304.79"/>
            </g>
        </g>
        <g fill="#85ACB0" transform="translate(50.633 4.216)">
            <ellipse cx="253.746" cy="3.353" rx="3.302" ry="3.353"/>
            <ellipse cx="190.473" cy="43.116" fill-rule="nonzero" rx="3.302" ry="3.353"/>
            <ellipse cx="126.672" cy="95.838" fill-rule="nonzero" rx="3.302" ry="3.353"/>
            <ellipse cx="61.64" cy="98.383" fill-rule="nonzero" rx="3.302" ry="3.353"/>
            <ellipse cx="3.302" cy="99.5" fill-rule="nonzero" rx="3.302" ry="3.353"/>
        </g>
        <g fill="#85ACB0" font-family="IBMPlexSans, IBM Plex Sans" font-size="9.973">
            <text transform="translate(0 2)">
                <tspan x="20.188" y="93.108">500M</tspan>
            </text>
            <text transform="translate(0 2)">
                <tspan x="20.188" y="52.108">750M</tspan>
            </text>
            <text transform="translate(0 2)">
                <tspan x="33.741" y="10">1B</tspan>
            </text>
        </g>
    </g>
</svg>
