<svg xmlns="http://www.w3.org/2000/svg" width="240" height="140"><style><![CDATA[.B{fill-rule:nonzero}.C{fill:#ff444f}.D{fill:#85acb0}.E{fill:#bccdce}.F{fill:#f1f1f1}.G{stroke-linecap:round}.H{stroke-linejoin:round}]]></style><g fill="none" fill-rule="evenodd"><g class="B"><path fill="#efefef" d="M38.176.347h146.27c3.26 0 5.894 2.635 5.964 5.964v132.4H32.28V6.3c0-3.26 2.636-5.895 5.896-5.964z"/><path d="M39.77 22.68l1.318 1.734-2.08 1.664h2.15c.623 0 1.178-.346 1.317-.97l.208-.763c.208-.694-.278-1.457-.97-1.665H39.77z" class="C"/><path fill="#aa212e" d="M41.09 24.413l-.97 1.734h-1.18z"/><path d="M44.14 22.68h1.318c.694-.14 1.387.416 1.526 1.1v.555c-.208.97-1.04 1.733-2.08 1.733h-1.388l.624-3.398zm.833 2.774c.624 0 1.1-.416 1.248-1.04.063-.263.012-.54-.14-.763-.208-.208-.416-.277-.693-.347h-.624l-.417 2.08.625.07zm3.05-2.774h2.636l-.14.694h-1.873l-.07.693h1.18l-.14.624h-1.1l-.138.763h1.873l-.14.694H47.47zm5.132 2.22c.486-.138.833-.554.97-1.1.063-.262.013-.54-.138-.762-.278-.278-.624-.347-.97-.347h-1.595l-.625 3.468h.763l.486-2.774h.763c.416 0 .555.208.485.485s-.347.555-.693.486h-.555l.832 1.803h.902l-.625-1.25zm1.942-2.22h.763l-.624 3.468h-.763zm1.387 0h.833l.416 2.427 1.318-2.427h.9l-2.01 3.468h-.624z" class="C"/><path fill="#231f20" d="M38.176.347h146.27c3.26 0 5.894 2.635 5.964 5.964v12H32.28v-12c0-3.26 2.636-5.895 5.896-5.964z"/><path fill="#e5e5e5" d="M190.4 36.203h-81.562a4 4 0 0 0-3.953 3.953v53.82a4 4 0 0 0 3.953 3.953h81.492l.07-61.726z"/><path fill="#e1f4f3" d="M110.86 34.192h111.938c2.21-.012 4.027 1.743 4.092 3.953v53.82c-.065 2.2-1.88 3.965-4.092 3.953H110.86c-2.21.012-4.027-1.743-4.092-3.953v-53.82c.07-2.15 1.872-3.953 4.092-3.953z"/></g><g stroke="#fff" class="G H"><path stroke-dasharray="0.9848387315869331,0.9848387315869331" stroke-width=".5" d="M120.916 43h.97m1.942 0h87.942m.97 0h1.04m-92.866 7.976h.97m1.942 0h87.942m.97 0h1.04m-92.866 7.976h.97m1.942 0h87.942m.97 0h1.04m-92.866 7.975h.97m1.942 0h87.942m.97 0h1.04m-92.866 7.56h.97m1.942 0h87.942m.97 0h1.04m-92.866 7.976h.97m1.942 0h87.942m.97 0h1.04"/><path d="M120.916 90.44h.97m1.942 0h87.942m.97 0h1.04" stroke-dasharray="1.782419256865978,1.782419256865978" stroke-width=".603" opacity=".42"/></g><path fill="#c7e5e5" d="M106.906 72c4.23 0 2.3-8.53 6.38-8.53 3.537 0 4.647 4.3 11.166 4.3 7.074 0 4.508-16.715 11.166-16.715s4.37 19.003 11.236 19.003c1.942 0 7.005-2.913 11.166-2.913 8.46 0 5.34-15.535 11.166-15.535 6.103 0 8.46-2.913 11.166-2.913 7.074 0 5.55 21.36 11.166 21.36 2.636 0 4.716-4.16 11.166-4.16 7.838 0 4.994-17.2 11.167-17.2 3.398 0 4.092 4.715 11.166 4.715h1.803v38.84c-.065 2.2-1.88 3.965-4.092 3.953h-111.8c-2.21.012-4.027-1.743-4.092-3.953l.07-20.252z" class="B"/><path stroke="#fff" stroke-width=".68" d="M106.768 72c4.23 0 2.288-8.53 6.38-8.53 3.537 0 4.717 4.3 11.236 4.3 7.143 0 4.577-16.715 11.235-16.715s4.3 19.003 11.236 19.003c1.942 0 7.005-2.913 11.235-2.913 8.53 0 5.34-15.535 11.236-15.535 6.172 0 8.53-2.913 11.235-2.913 7.144 0 5.55 21.36 11.236 21.36 2.635 0 4.716-4.16 11.235-4.16 7.837 0 4.994-17.2 11.236-17.2 3.467 0 4.092 4.715 11.235 4.715h1.803"/><g class="B"><g fill="#fff"><circle cx="131.181" cy="60.061" r="1"/><circle cx="142" cy="60.755" r="1"/><circle cx="152.819" cy="68.106" r="1"/><circle cx="163.431" cy="63.252" r="1"/><circle cx="174.181" cy="50.56" r="1"/><circle cx="184.931" cy="55.206" r="1"/><circle cx="196.305" cy="67.482" r="1"/><circle cx="207.748" cy="61.171" r="1"/></g><path d="M112.663 40.99h-1.734v-5.34h-.208v5.34h-1.595v8.322h1.595v2.012h.208V49.3h1.734zm19.558 17.2h-1.734v-4.23h-.208v4.23h-1.734v1.734h1.734v1.942h.208v-1.942h1.734zm-4.994-14.495h-1.664v-2.15h-.208v2.15H123.7V59.02h1.665v4.785h.208V59.02h1.664zm-4.854-3.884h-1.665v-1.665h-.208V39.8h-1.665v8.253h1.665v4.022h.208v-4.022h1.665zm-4.855-1.457h-1.665V36.62h-.208v1.734h-1.664v3.676h1.664v1.456h.208V42.03h1.665zm19.42 9.7h-1.595v-.416h-.277v.416H133.4V59.02h1.665v12.345h.277V59.02h1.595zm4.855 9.848h-1.595v-2.15h-.278v2.15h-1.595v6.034h1.595v3.26h.278v-3.26h1.595zm4.855.555h-1.595v-4.508h-.278v4.508h-1.595v10.75h1.595v5.965h.278v-5.965h1.595zm4.924-2.358h-1.665v-.97h-.346v.97h-1.595v5.965h1.595v8.46h.346v-8.46h1.665zm4.855 2.08h-1.665v-1.873h-.346v1.873h-1.596v10.82h1.596v6.588h.346v-6.59h1.665zm4.854 9.016h-1.664v-3.26h-.277v3.26h-1.665V68.8h1.665v2.15h.277V68.8h1.665zm4.855 0h-1.664v-2.01h-.277v2h-1.665v8.393h1.665v2.843h.277v-2.843h1.664zm4.855-2.22h-1.664v-5.062h-.278v5.062h-1.664v5.965h1.664v1.595h.278V70.95H171zm4.855-1.04h-1.664v-1.04h-.278v1.04h-1.664v2.01h1.664v1.526h.278v-1.526h1.664zm4.855-9.987h-1.595v-3.606h-.347v3.606h-1.664V64.57h1.664v2.012h.347V64.57h1.595zm4.855-5.27h-1.595v-3.052h-.347v3.052h-1.665V59.23h1.665v1.04h.347v-1.04h1.595zm4.855-3.537h-1.595v-2.427h-.347v2.427h-1.595v13.87h1.595v3.884h.347V59.02h1.595zm4.855-2.427h-1.596v-3.538h-.346v3.538h-1.596v5.964h1.596v1.665h.346v-1.665h1.596zm4.855 1.387h-1.596v-2.705h-.347V44.1h-1.595v2.01h1.595v2.566h.347V46.12h1.595zm4.924.346h-1.665v-1.733h-.347v1.733h-1.595v5.896h1.595v4.23h.347v-4.23h1.665zm4.854 2.36h-1.664v-2.012h-.347v2.012h-1.595v5.964h1.595v1.803h.347V52.78h1.664zm4.855 4.23h-1.664v-5.132h-.278v5.132h-1.664v10.542h1.664v2.566h.278v-2.566h1.664zm4.855 7.63h-1.664v-3.606h-.278v3.606h-1.664v10.61h1.664v2.567h.278v-2.567h1.664zm4.855-9.848h-1.665V45.15h-.277v3.676h-1.665v14.356h1.665v1.387h.277v-1.387h1.665z" class="D"/><g fill="#fff"><circle cx="40.811" cy="9.363" r="1.942"/><path d="M39.702 34.192H88.18c1.1 0 2 .832 2 1.942v94.114c0 1.1-.9 1.942-2 1.942H39.7c-1.1 0-2-.832-2-1.942V36.134c0-1.04.9-1.942 2-1.942z"/><circle cx="51.769" cy="9.363" r="1.942"/><circle cx="62.589" cy="9.363" r="1.942"/></g><path fill="#bbbdbf" d="M66.126 23.442h22.748c.555 0 .97.416.97.902 0 .554-.416.97-.9.97h-22.75c-.555 0-.97-.416-.97-.9v-.07c-.07-.485.346-.9.9-.9zm94.947 0h22.748c.555 0 .97.416.97.902 0 .554-.415.97-.9.97h-22.75c-.554 0-.97-.416-.97-.9v-.07c0-.485.347-.9.832-.97 0 .07 0 .07.07.07z"/><path fill="#e6e7e8" d="M32.28 49.45h45.497c2.295.007 4.155 1.866 4.162 4.16v32.46c-.007 2.296-1.866 4.155-4.162 4.162H32.28V49.45z"/><path fill="#e1f4f3" d="M17.37 48.48h58.396c2.295.007 4.154 1.866 4.16 4.16v31.487c-.007 2.295-1.865 4.154-4.16 4.162h-58.19c-2.295-.008-4.153-1.867-4.16-4.162V52.432c.068-2.22 1.802-3.953 3.952-3.953z"/><path fill="#83acb0" d="M19.31 51.253h5.133a.62.62 0 0 1 .624.624V57a.62.62 0 0 1-.624.624H19.3a.62.62 0 0 1-.624-.624v-5.133a.62.62 0 0 1 .624-.624z"/><path fill="#c7e5e5" d="M22.502 54.444h5.132a.62.62 0 0 1 .624.624V60.2a.62.62 0 0 1-.624.624h-5.132a.62.62 0 0 1-.625-.624v-5.132c0-.347.208-.624.555-.624h.07z"/><path d="M37.62 54.93h20.53c.485 0 .902.347.902.832v.07c0 .485-.347.9-.833.9H37.62c-.486 0-.902-.347-.902-.832v-.07a.92.92 0 0 1 .902-.901z" class="E"/></g><path d="M70.495 51.253c0 .694.555 1.25 1.25 1.318h1.248l-4.855 4.924v1.873l5.826-5.965v1.25c0 .693.555 1.248 1.248 1.317v-4.785l-4.716.07zm-5.548 8.184v1.387h1.803l1.318-1.387z" class="D"/><g class="B"><path d="M19.935 68.453h54.72a.8.8 0 1 1 0 1.665h-54.72a.8.8 0 1 1-.001-1.665z" class="E"/><path d="M19.52 68.453h26.562a.8.8 0 1 1 0 1.665H19.52a.8.8 0 1 1 0-1.665z" class="D"/></g><path stroke="#bbbdbf" stroke-width=".742" d="M19.103 66.373h10.195" class="G H"/><g class="B"><path d="M20.63 74.487H73.2c1.1 0 1.942.902 1.942 2.01v5.4c0 1.1-.902 1.942-1.942 2.01H20.63c-1.1 0-1.942-.9-1.942-2v-5.4c0-1.18.832-2.012 1.942-2.012z" class="E"/><path fill="#e6e7e8" d="M190.34 103.547H82.424a4 4 0 0 0-3.953 3.953v23.026a4 4 0 0 0 3.953 3.953H190.34v-30.932z"/><path fill="#fff" d="M84.644 132.884a4.5 4.5 0 0 1-4.509-4.508v-22.818c0-2.358 1.942-4.3 4.3-4.3h107.71a4.5 4.5 0 0 1 4.508 4.508v22.68a4.5 4.5 0 0 1-4.508 4.507h-107.5v-.07z"/><path fill="#e5e5e5" d="M192.144 101.535c2.295.008 4.153 1.867 4.16 4.162v22.68c-.007 2.295-1.865 4.153-4.16 4.16h-107.5c-2.295-.007-4.155-1.866-4.162-4.16v-22.818a4 4 0 0 1 3.953-3.953l107.71-.07zm0-.693H84.435a4.65 4.65 0 0 0-4.646 4.647v22.887c-.008 1.3.5 2.53 1.413 3.442s2.152 1.42 3.442 1.413h107.5c1.3.008 2.53-.5 3.44-1.413s1.42-2.152 1.413-3.442v-22.68a4.87 4.87 0 0 0-4.854-4.854z"/><path fill="#b9132d" d="M85.406 108.887H191.38a2.04 2.04 0 0 1 2.08 2.08v16.577a2.04 2.04 0 0 1-2.08 2.08H85.476a2.04 2.04 0 0 1-2.08-2.08V110.83c0-1.1.83-1.942 1.94-2.01 0 .07 0 .07.07.07z"/><path d="M83.395 127.613V110.83c0-1.1.902-2.01 2.01-2.01h66.026l6.936 9.5c.347.486.347 1.25 0 1.734l-6.936 9.502H85.406c-1.1 0-2-.832-2-1.942z" class="C"/><path d="M107.74 122.203v-7.282H111a5.31 5.31 0 0 1 1.456.208c.347.14.624.347.832.694s.347.693.347 1.1c0 .485-.14.9-.486 1.248-.416.416-.97.624-1.525.693.208.07.416.208.554.416.278.278.555.625.833.97l1.317 2.012h-1.248l-.97-1.526-.694-1.04a1.62 1.62 0 0 0-.486-.486c-.14-.07-.347-.14-.416-.208s-.347-.07-.486-.07h-1.1v3.26h-1.177zm.97-4.022h2.012c.347 0 .694-.07 1.04-.14a1.07 1.07 0 0 0 .555-.415c.14-.208.208-.416.208-.624a.99.99 0 0 0-.416-.833c-.376-.228-.808-.347-1.248-.346h-2.3l.14 2.358zm7.006-2.22v-1.04h.9v1.04h-.9zm0 6.242v-5.27h.9v5.27h-.9zm2.774-1.526l.9-.138c0 .277.14.624.416.832s.625.277.97.277c.347.07.625-.07.902-.277.208-.14.277-.347.347-.555 0-.208-.07-.347-.278-.416-.277-.14-.554-.208-.9-.347l-1.318-.416c-.208-.14-.416-.277-.555-.485a1.17 1.17 0 0 1-.208-.694c0-.208.07-.416.208-.624s.278-.347.416-.486.347-.208.555-.277c.278-.07.486-.14.763-.14a3.16 3.16 0 0 1 1.11.208c.277.07.555.278.693.486.14.277.278.555.347.832l-.902.14a.73.73 0 0 0-.346-.624c-.208-.14-.555-.278-.833-.278s-.624.07-.9.208c-.14.07-.278.278-.278.416s.07.208.14.347.207.208.346.278a3.38 3.38 0 0 0 .763.277l1.318.416c.208.07.416.278.554.416.14.208.208.486.208.763s-.07.624-.277.832a2.17 2.17 0 0 1-.763.625c-.353.142-.73.213-1.1.208-.554.07-1.1-.14-1.595-.416-.416-.417-.693-.902-.693-1.388zm9.78-.138l.9.138c-.138.486-.416.97-.832 1.25-.416.347-.97.485-1.526.416-.693 0-1.387-.208-1.872-.694-.486-.554-.763-1.248-.694-2-.07-.764.208-1.457.694-2.012.416-.486 1.1-.763 1.803-.763a2.41 2.41 0 0 1 1.734.693c.485.555.693 1.318.624 2.012v.277h-3.953c0 .486.208.97.485 1.318.278.277.694.485 1.1.416.277 0 .624-.07.832-.277.347-.07.624-.417.694-.763zm-2.913-1.387h2.913c0-.347-.14-.694-.347-1.04-.277-.347-.694-.486-1.1-.486a1.53 1.53 0 0 0-1.04.416c-.208.208-.416.624-.416 1.1z" class="F"/><path fill="#fff" d="M95.255 114.574c0 .694.555 1.25 1.248 1.25h1.18l-4.786 4.924v1.872l5.687-5.825v1.248c0 .693.555 1.248 1.248 1.318v-4.716h-4.577v-.07z"/></g><path d="M89.706 122.55v1.318H91.5l1.317-1.318z" class="F"/><g class="B"><path fill="#cfd1d2" d="M134.163 104.24l1.803 2.428H132.3zm-49.52-.416h43.97c.763 0 1.457.624 1.457 1.387v.278a1.42 1.42 0 0 1-1.456 1.456h-44.04a1.42 1.42 0 0 1-1.457-1.456v-.278c.07-.693.693-1.387 1.526-1.387z"/><path d="M174.11 121.163h-3.05v-.416l1.595-1.803c.208-.278.416-.486.485-.694a1.3 1.3 0 0 0 .139-.555c0-.208-.07-.416-.208-.624s-.347-.208-.555-.208c-.277 0-.555.07-.693.277a1.06 1.06 0 0 0-.278.694h-.624a1.41 1.41 0 0 1 .416-1.04c.278-.278.624-.417 1.1-.417a1.71 1.71 0 0 1 1.04.347c.278.208.347.555.347.902 0 .485-.278.97-.902 1.664l-1.248 1.318h2.358l.07.555zm3.4-3.398c0 .208-.07.416-.208.624s-.278.346-.486.416c.208.14.416.277.555.485a1.17 1.17 0 0 1 .208.694c0 .416-.14.693-.416.97-.3.227-.664.35-1.04.348-.417 0-.833-.14-1.04-.347-.278-.208-.417-.555-.417-.97 0-.278.07-.486.208-.694s.347-.346.555-.485c-.208-.07-.347-.278-.485-.416s-.21-.416-.21-.624c0-.417.14-.694.347-.902.278-.208.555-.347.97-.347s.763.14.97.347c.347.208.486.485.486.902zm-.486 2.15c0-.278-.07-.486-.277-.625a.88.88 0 0 0-.624-.277c-.278 0-.486.07-.625.208s-.208.347-.208.624.07.486.208.624.347.208.625.208.485-.07.624-.208c.208-.07.277-.277.277-.554zm-.9-2.983a.79.79 0 0 0-.763.763c0 .208.07.416.208.555a.79.79 0 0 0 .555.208c.208 0 .416-.07.554-.208a.79.79 0 0 0 .208-.555.79.79 0 0 0-.208-.555c-.138-.138-.277-.208-.554-.208zm2.357 3.953c0-.07 0-.208.07-.277s.14-.07.277-.07.208 0 .278.07.07.14.07.277c0 .07 0 .21-.07.278s-.14.07-.278.07-.208 0-.277-.07c-.07-.14-.07-.208-.07-.278zm4.44-3.12c0 .208-.07.416-.21.624s-.277.346-.485.416c.208.14.416.277.555.485s.208.416.208.694c0 .416-.14.693-.416.97-.3.227-.664.35-1.04.348-.417 0-.833-.14-1.04-.347-.277-.208-.416-.555-.416-.97 0-.278.07-.486.208-.694s.347-.346.555-.485c-.208-.07-.347-.278-.486-.416s-.208-.416-.208-.624c0-.417.14-.694.347-.902.277-.208.555-.347.97-.347s.764.14.972.347c.347.208.485.485.485.902zm-.486 2.15c0-.278-.07-.486-.278-.625a.88.88 0 0 0-.624-.277c-.277 0-.485.07-.624.208s-.208.347-.208.624.07.486.208.624.347.208.624.208.486-.07.624-.208c.21-.07.278-.277.278-.554zm-.902-2.983a.79.79 0 0 0-.763.763c0 .208.07.416.208.555a.79.79 0 0 0 .555.208c.208 0 .416-.07.555-.208a.79.79 0 0 0 .208-.555.79.79 0 0 0-.763-.763z" class="F"/></g></g></svg>