<svg role="img" xmlns="http://www.w3.org/2000/svg" width="240" height="140" viewBox="0 0 240 140" aria-labelledby="trade-icon-title">
    <title id='trade-icon-title'>Trade</title>
    <g fill="none" fill-rule="evenodd" transform="translate(13)">
        <path fill="#EFEFEF" fill-rule="nonzero" d="M25.176.347h146.27c3.259 0 5.894 2.635 5.964 5.964V138.71H19.28V6.31c0-3.26 2.636-5.895 5.896-5.964z"/>
        <g fill-rule="nonzero">
            <path fill="#FF444F" d="M26.771 22.679l1.318 1.734-2.08 1.664h2.15c.623 0 1.178-.346 1.317-.97l.208-.763c.208-.694-.278-1.457-.971-1.665H26.77z"/>
            <path fill="#AA212E" d="M28.089 24.413l-.971 1.734h-1.18z"/>
            <path fill="#FF444F" d="M31.14 22.679h1.318c.694-.139 1.387.416 1.526 1.11V24.344c-.208.97-1.04 1.733-2.08 1.733h-1.388l.624-3.398zm.833 2.774c.624 0 1.11-.416 1.248-1.04a.963.963 0 0 0-.139-.763c-.208-.208-.416-.277-.693-.347h-.624l-.417 2.08.625.07zM35.024 22.679h2.636l-.139.694h-1.873l-.069.693h1.18l-.14.624h-1.11l-.138.763h1.873l-.14.694H34.47zM40.156 24.898c.486-.138.833-.554.971-1.11a.963.963 0 0 0-.138-.762c-.278-.278-.624-.347-.971-.347h-1.595l-.625 3.468h.763l.486-2.774h.763c.416 0 .555.208.485.485-.07.277-.347.555-.693.486h-.555l.832 1.803h.902l-.625-1.249zM42.098 22.679h.763l-.624 3.468h-.763zM43.485 22.679h.833l.416 2.427 1.318-2.427h.901l-2.011 3.468h-.624z"/>
        </g>
        <path fill="#231F20" fill-rule="nonzero" d="M25.176.347h146.27c3.259 0 5.894 2.635 5.964 5.964V18.31H19.28V6.31c0-3.26 2.636-5.895 5.896-5.964z"/>
        <path fill="#E5E5E5" fill-rule="nonzero" d="M177.41 36.203H95.848c-2.15 0-3.953 1.803-3.953 3.953v53.82c0 2.15 1.803 3.953 3.953 3.953h81.492l.07-61.726z"/>
        <path fill="#E1F4F3" fill-rule="nonzero" d="M97.86 34.192h111.938a4.072 4.072 0 0 1 4.092 3.953v53.82a4.072 4.072 0 0 1-4.092 3.953H97.86a4.072 4.072 0 0 1-4.092-3.953v-53.82c.07-2.15 1.872-3.953 4.092-3.953z"/>
        <path stroke="#FFF" stroke-dasharray="0.9848387315869331,0.9848387315869331" stroke-linecap="round" stroke-linejoin="round" stroke-width=".5" d="M107.916 43h.971M110.829 43h87.942M199.742 43h1.04M107.916 50.976h.971M110.829 50.976h87.942M199.742 50.976h1.04M107.916 58.952h.971M110.829 58.952h87.942M199.742 58.952h1.04M107.916 66.927h.971M110.829 66.927h87.942M199.742 66.927h1.04M107.916 74.487h.971M110.829 74.487h87.942M199.742 74.487h1.04M107.916 82.463h.971M110.829 82.463h87.942M199.742 82.463h1.04"/>
        <g stroke="#FFF" stroke-dasharray="1.782419256865978,1.782419256865978" stroke-linecap="round" stroke-linejoin="round" stroke-width=".603" opacity=".42">
            <path d="M107.916 90.439h.971M110.829 90.439h87.942M199.742 90.439h1.04"/>
        </g>
        <path fill="#C7E5E5" fill-rule="nonzero" d="M93.906 71.99c4.231 0 2.29-8.53 6.381-8.53 3.537 0 4.647 4.3 11.166 4.3 7.074 0 4.508-16.715 11.166-16.715s4.37 19.003 11.236 19.003c1.942 0 7.005-2.913 11.166-2.913 8.461 0 5.34-15.535 11.166-15.535 6.103 0 8.461-2.913 11.166-2.913 7.074 0 5.549 21.361 11.166 21.361 2.636 0 4.716-4.16 11.166-4.16 7.838 0 4.994-17.2 11.167-17.2 3.398 0 4.092 4.715 11.166 4.715h1.803v38.839a4.072 4.072 0 0 1-4.092 3.953h-111.8a4.072 4.072 0 0 1-4.092-3.953l.07-20.252z"/>
        <path stroke="#FFF" stroke-width=".68" d="M93.768 71.99c4.23 0 2.288-8.53 6.38-8.53 3.537 0 4.717 4.3 11.236 4.3 7.143 0 4.577-16.715 11.235-16.715 6.658 0 4.3 19.003 11.236 19.003 1.942 0 7.005-2.913 11.235-2.913 8.531 0 5.34-15.535 11.236-15.535 6.172 0 8.53-2.913 11.235-2.913 7.144 0 5.549 21.361 11.236 21.361 2.635 0 4.716-4.16 11.235-4.16 7.837 0 4.994-17.2 11.236-17.2 3.467 0 4.092 4.715 11.235 4.715h1.803"/>
        <circle cx="118.181" cy="60.061" r="1" fill="#FFF" fill-rule="nonzero"/>
        <circle cx="129" cy="60.755" r="1" fill="#FFF" fill-rule="nonzero"/>
        <circle cx="139.819" cy="68.106" r="1" fill="#FFF" fill-rule="nonzero"/>
        <circle cx="150.431" cy="63.252" r="1" fill="#FFF" fill-rule="nonzero"/>
        <circle cx="161.181" cy="50.56" r="1" fill="#FFF" fill-rule="nonzero"/>
        <circle cx="171.931" cy="55.206" r="1" fill="#FFF" fill-rule="nonzero"/>
        <circle cx="183.305" cy="67.482" r="1" fill="#FFF" fill-rule="nonzero"/>
        <circle cx="194.748" cy="61.171" r="1" fill="#FFF" fill-rule="nonzero"/>
        <path fill="#85ACB0" fill-rule="nonzero" d="M99.663 40.989h-1.734v-5.34h-.208v5.34h-1.595v8.322h1.595v2.012h.208V49.31h1.734zM119.221 58.189h-1.734v-4.23h-.208v4.23h-1.734v1.734h1.734v1.942h.208v-1.942h1.734zM114.227 43.694h-1.664v-2.15h-.208v2.15h-1.665V59.02h1.665v4.785h.208v-4.785h1.664zM109.373 39.81h-1.665v-1.665h-.208v1.665h-1.665v8.253h1.665v4.022h.208v-4.022h1.665zM104.518 38.353h-1.665V36.62h-.208v1.734h-1.664v3.676h1.664v1.456h.208V42.03h1.665zM123.937 48.063h-1.595v-.416h-.277v.416H120.4V59.02h1.665v12.345h.277V59.021h1.595zM128.792 57.911h-1.595v-2.15h-.278v2.15h-1.595v6.034h1.595v3.26h.278v-3.26h1.595zM133.647 58.466h-1.595v-4.508h-.278v4.508h-1.595v10.75h1.595v5.965h.278v-5.965h1.595zM138.571 56.108h-1.665v-.97h-.346v.97h-1.595v5.965h1.595v8.46h.346v-8.46h1.665zM143.426 58.189h-1.665v-1.873h-.346v1.873h-1.596v10.82h1.596v6.588h.346v-6.589h1.665zM148.28 67.205h-1.664v-3.26h-.277v3.26h-1.665V68.8h1.665v2.15h.277V68.8h1.665zM153.135 67.205h-1.664v-2.011h-.277v2.01h-1.665v8.393h1.665v2.843h.277v-2.843h1.664zM157.99 64.985h-1.664v-5.062h-.278v5.062h-1.664v5.965h1.664v1.595h.278V70.95h1.664zM162.845 63.945h-1.664v-1.04h-.278v1.04h-1.664v2.011h1.664v1.526h.278v-1.526h1.664zM167.7 53.958h-1.595v-3.606h-.347v3.606h-1.664V64.57h1.664v2.012h.347v-2.012h1.595zM172.555 48.687h-1.595v-3.052h-.347v3.052h-1.665V59.23h1.665v1.04h.347v-1.04h1.595zM177.41 45.15h-1.595v-2.427h-.347v2.427h-1.595v13.871h1.595v3.884h.347V59.02h1.595zM182.265 42.723h-1.596v-3.538h-.346v3.538h-1.596v5.964h1.596v1.665h.346v-1.665h1.596zM187.12 44.11h-1.596v-2.705h-.347v2.705h-1.595v2.011h1.595v2.566h.347v-2.566h1.595zM192.044 44.456h-1.665v-1.733h-.347v1.733h-1.595v5.896h1.595v4.23h.347v-4.23h1.665zM196.898 46.815h-1.664v-2.012h-.347v2.012h-1.595v5.964h1.595v1.803h.347V52.78h1.664zM201.753 51.045h-1.664v-5.132h-.278v5.132h-1.664v10.542h1.664v2.566h.278v-2.566h1.664zM206.608 58.674h-1.664v-3.606h-.278v3.606h-1.664v10.611h1.664v2.567h.278v-2.567h1.664zM211.463 48.826h-1.665V45.15h-.277v3.676h-1.665v14.356h1.665v1.387h.277v-1.387h1.665z"/>
        <circle cx="27.811" cy="9.363" r="1.942" fill="#FFF" fill-rule="nonzero"/>
        <path fill="#FFF" fill-rule="nonzero" d="M26.702 34.192H75.18c1.11 0 2.01.832 2.01 1.942v94.114c0 1.11-.9 1.942-2.01 1.942H26.7c-1.11 0-2.01-.832-2.01-1.942V36.134c0-1.04.9-1.942 2.01-1.942z"/>
        <circle cx="38.769" cy="9.363" r="1.942" fill="#FFF" fill-rule="nonzero"/>
        <circle cx="49.589" cy="9.363" r="1.942" fill="#FFF" fill-rule="nonzero"/>
        <path fill="#BBBDBF" fill-rule="nonzero" d="M53.126 23.442h22.748c.555 0 .971.416.971.902 0 .554-.416.97-.901.97H53.195c-.555 0-.97-.416-.97-.901v-.07c-.07-.485.346-.901.9-.901zM148.073 23.442h22.748c.555 0 .97.416.97.902 0 .554-.415.97-.9.97h-22.75c-.554 0-.97-.416-.97-.901v-.07c0-.485.347-.901.832-.97 0 .069 0 .069.07.069z"/>
        <path fill="#E6E7E8" fill-rule="nonzero" d="M19.28 49.45h45.497a4.174 4.174 0 0 1 4.162 4.161V86.07a4.174 4.174 0 0 1-4.162 4.162H19.281V49.45z"/>
        <path fill="#E1F4F3" fill-rule="nonzero" d="M4.37 48.479h58.396a4.174 4.174 0 0 1 4.161 4.161v31.487a4.174 4.174 0 0 1-4.16 4.162H4.576a4.174 4.174 0 0 1-4.16-4.162V52.432c.068-2.22 1.802-3.953 3.952-3.953z"/>
        <path fill="#83ACB0" fill-rule="nonzero" d="M6.311 51.253h5.133c.346 0 .624.278.624.624v5.133a.622.622 0 0 1-.624.624H6.31a.622.622 0 0 1-.624-.624v-5.133c0-.346.278-.624.624-.624z"/>
        <path fill="#C7E5E5" fill-rule="nonzero" d="M9.502 54.444h5.132c.347 0 .624.277.624.624V60.2a.622.622 0 0 1-.624.624H9.502a.622.622 0 0 1-.625-.624v-5.132c0-.347.208-.624.555-.624h.07z"/>
        <path fill="#BCCDCE" fill-rule="nonzero" d="M24.621 54.929H45.15c.485 0 .902.347.902.832v.07c0 .485-.347.901-.833.901H24.621c-.486 0-.902-.347-.902-.832v-.07c0-.485.416-.901.902-.901z"/>
        <path fill="#85ACB0" d="M57.495 51.253c0 .694.555 1.249 1.249 1.318h1.248l-4.855 4.924v1.873l5.826-5.965v1.249c0 .693.555 1.248 1.248 1.317v-4.785l-4.716.07zM51.947 59.437v1.387h1.803l1.318-1.387z"/>
        <path fill="#BCCDCE" fill-rule="nonzero" d="M6.935 68.453h54.721c.486 0 .833.347.833.832 0 .486-.347.833-.833.833H6.936c-.486 0-.833-.347-.833-.833 0-.485.347-.832.832-.832z"/>
        <path fill="#85ACB0" fill-rule="nonzero" d="M6.52 68.453h26.562c.486 0 .833.347.833.832 0 .486-.347.833-.833.833H6.52c-.485 0-.832-.347-.832-.833 0-.485.347-.832.832-.832z"/>
        <path stroke="#BBBDBF" stroke-linecap="round" stroke-linejoin="round" stroke-width=".742" d="M6.103 66.373h10.195"/>
        <path fill="#BCCDCE" fill-rule="nonzero" d="M7.629 74.487H60.2c1.11 0 1.942.902 1.942 2.011v5.41c0 1.11-.902 1.942-1.942 2.011H7.629c-1.11 0-1.942-.901-1.942-2.01v-5.41c0-1.18.832-2.012 1.942-2.012z"/>
        <path fill="#E6E7E8" fill-rule="nonzero" d="M177.34 103.547H69.424c-2.15 0-3.953 1.803-3.953 3.953v23.026c0 2.15 1.803 3.953 3.953 3.953H177.34v-30.932z"/>
        <path fill="#FFF" fill-rule="nonzero" d="M71.644 132.884a4.5 4.5 0 0 1-4.509-4.508v-22.818c0-2.358 1.942-4.3 4.3-4.3h107.709a4.5 4.5 0 0 1 4.508 4.508v22.68a4.5 4.5 0 0 1-4.508 4.507h-107.5v-.07z"/>
        <path fill="#E5E5E5" fill-rule="nonzero" d="M179.144 101.535a4.174 4.174 0 0 1 4.16 4.162v22.679a4.174 4.174 0 0 1-4.16 4.161h-107.5a4.174 4.174 0 0 1-4.162-4.161v-22.818c0-2.15 1.803-3.953 3.953-3.953l107.709-.07zm0-.693H71.435a4.647 4.647 0 0 0-4.646 4.647v22.887a4.825 4.825 0 0 0 4.855 4.855h107.5a4.825 4.825 0 0 0 4.854-4.855v-22.68c0-2.635-2.15-4.854-4.854-4.854z"/>
        <path fill="#B9132D" fill-rule="nonzero" d="M72.406 108.887h105.975c1.179 0 2.08.902 2.08 2.08v16.577c0 1.179-.901 2.08-2.08 2.08H72.476c-1.18 0-2.08-.901-2.08-2.08v-16.715c0-1.11.831-1.942 1.941-2.011 0 .07 0 .07.07.07z"/>
        <path fill="#FF444F" fill-rule="nonzero" d="M70.395 127.613v-16.784c0-1.11.902-2.011 2.011-2.011h66.026l6.936 9.501c.347.486.347 1.249 0 1.734l-6.936 9.502H72.406c-1.11 0-2.01-.832-2.01-1.942z"/>
        <g fill="#F1F1F1" fill-rule="nonzero">
            <path d="M94.739 122.203v-7.282h3.26c.485 0 .97.07 1.456.208.347.139.624.347.832.694.208.346.347.693.347 1.11 0 .485-.139.9-.486 1.248-.416.416-.97.624-1.525.693.208.07.416.208.554.416.278.278.555.625.833.971l1.317 2.012h-1.248l-.97-1.526c-.209-.347-.417-.694-.694-1.04a1.62 1.62 0 0 0-.486-.486c-.139-.07-.347-.139-.416-.208-.07-.07-.347-.07-.486-.07h-1.11v3.26H94.74zm.97-4.022h2.012c.347 0 .694-.07 1.04-.14.208-.068.416-.207.555-.415.139-.208.208-.416.208-.624a.989.989 0 0 0-.416-.833 2.395 2.395 0 0 0-1.248-.346H95.57l.139 2.358zM102.715 115.961v-1.04h.901v1.04h-.901zm0 6.242v-5.27h.901v5.27h-.901zM105.489 120.677l.901-.138c0 .277.139.624.416.832.278.208.625.277.971.277.347.07.625-.069.902-.277.208-.139.277-.347.347-.555 0-.208-.07-.347-.278-.416-.277-.139-.554-.208-.901-.347a30.443 30.443 0 0 1-1.318-.416c-.208-.139-.416-.277-.555-.485a1.172 1.172 0 0 1-.208-.694c0-.208.07-.416.208-.624.139-.208.278-.347.416-.486.139-.138.347-.208.555-.277.278-.07.486-.139.763-.139.347 0 .763.07 1.11.208.277.07.555.278.693.486.139.277.278.555.347.832l-.902.139a.728.728 0 0 0-.346-.624c-.208-.14-.555-.278-.833-.278-.277 0-.624.07-.901.208-.139.07-.278.278-.278.416 0 .14.07.208.14.347.068.139.207.208.346.278.277.138.485.208.763.277.624.208 1.11.347 1.318.416.208.07.416.278.554.416.14.208.208.486.208.763 0 .278-.069.624-.277.832a2.168 2.168 0 0 1-.763.625 2.875 2.875 0 0 1-1.11.208c-.554.069-1.11-.14-1.595-.416-.416-.417-.693-.902-.693-1.388zM115.268 120.539l.901.138c-.138.486-.416.971-.832 1.249-.416.347-.97.485-1.526.416-.693 0-1.387-.208-1.872-.694-.486-.554-.763-1.248-.694-2.01-.07-.764.208-1.457.694-2.012.416-.486 1.11-.763 1.803-.763.624 0 1.248.208 1.734.693.485.555.693 1.318.624 2.012v.277h-3.953c0 .486.208.971.485 1.318.278.277.694.485 1.11.416.277 0 .624-.07.832-.277.347-.07.624-.417.694-.763zm-2.913-1.387h2.913c0-.347-.139-.694-.347-1.04-.277-.347-.694-.486-1.11-.486a1.53 1.53 0 0 0-1.04.416c-.208.208-.416.624-.416 1.11z"/>
        </g>
        <path fill="#FFF" fill-rule="nonzero" d="M82.255 114.574c0 .694.555 1.249 1.248 1.249h1.18l-4.786 4.924v1.872l5.687-5.825v1.248c0 .693.555 1.248 1.248 1.318v-4.716h-4.577v-.07z"/>
        <path fill="#F1F1F1" d="M76.706 122.55v1.318h1.804l1.317-1.318z"/>
        <path fill="#CFD1D2" fill-rule="nonzero" d="M121.163 104.24l1.803 2.428h-3.676zM71.644 103.824h43.97c.763 0 1.457.624 1.457 1.387v.278c0 .832-.624 1.456-1.456 1.456h-44.04c-.833 0-1.457-.624-1.457-1.456v-.278c.07-.693.693-1.387 1.526-1.387z"/>
        <g fill="#F1F1F1" fill-rule="nonzero">
            <path d="M161.111 121.163h-3.051v-.416l1.595-1.803c.208-.278.416-.486.485-.694.07-.139.139-.347.139-.555 0-.208-.07-.416-.208-.624-.139-.208-.347-.208-.555-.208-.277 0-.555.07-.693.277a1.06 1.06 0 0 0-.278.694h-.624c0-.416.139-.763.416-1.04.278-.278.624-.417 1.11-.417.416 0 .763.14 1.04.347.278.208.347.555.347.902 0 .485-.278.97-.902 1.664l-1.248 1.318h2.358l.07.555zM164.51 117.765c0 .208-.07.416-.208.624-.14.208-.278.346-.486.416.208.139.416.277.555.485.139.208.208.416.208.694 0 .416-.139.693-.416.97a1.704 1.704 0 0 1-1.04.348c-.417 0-.833-.14-1.04-.347-.278-.208-.417-.555-.417-.971 0-.278.07-.486.208-.694.139-.208.347-.346.555-.485-.208-.07-.347-.278-.485-.416-.14-.139-.209-.416-.209-.624 0-.417.14-.694.347-.902.278-.208.555-.347.971-.347.416 0 .763.139.971.347.347.208.486.485.486.902zm-.486 2.15c0-.278-.07-.486-.277-.625a.88.88 0 0 0-.624-.277c-.278 0-.486.07-.625.208-.138.139-.208.347-.208.624 0 .278.07.486.208.624.14.14.347.208.625.208.277 0 .485-.069.624-.208.208-.069.277-.277.277-.554zm-.901-2.983a.788.788 0 0 0-.555.208.788.788 0 0 0-.208.555c0 .208.069.416.208.555a.788.788 0 0 0 .555.208c.208 0 .416-.07.554-.208a.788.788 0 0 0 .208-.555.788.788 0 0 0-.208-.555c-.138-.138-.277-.208-.554-.208zM165.48 120.885c0-.069 0-.208.07-.277.07-.07.139-.07.277-.07.14 0 .208 0 .278.07.07.07.07.139.07.277 0 .07 0 .209-.07.278-.07.07-.139.07-.278.07-.138 0-.208 0-.277-.07-.07-.139-.07-.208-.07-.278zM169.92 117.765c0 .208-.07.416-.209.624-.138.208-.277.346-.485.416.208.139.416.277.555.485.138.208.208.416.208.694 0 .416-.139.693-.416.97a1.704 1.704 0 0 1-1.04.348c-.417 0-.833-.14-1.041-.347-.277-.208-.416-.555-.416-.971 0-.278.07-.486.208-.694.139-.208.347-.346.555-.485-.208-.07-.347-.278-.486-.416-.138-.139-.208-.416-.208-.624 0-.417.139-.694.347-.902.277-.208.555-.347.97-.347.417 0 .764.139.972.347.347.208.485.485.485.902zm-.486 2.15c0-.278-.07-.486-.278-.625a.88.88 0 0 0-.624-.277c-.277 0-.485.07-.624.208-.139.139-.208.347-.208.624 0 .278.07.486.208.624.139.14.347.208.624.208.278 0 .486-.069.624-.208.209-.069.278-.277.278-.554zm-.902-2.983a.788.788 0 0 0-.555.208.788.788 0 0 0-.208.555c0 .208.07.416.208.555a.788.788 0 0 0 .555.208c.208 0 .416-.07.555-.208a.788.788 0 0 0 .208-.555.788.788 0 0 0-.208-.555.788.788 0 0 0-.555-.208z"/>
        </g>
    </g>
</svg>
