<svg xmlns="http://www.w3.org/2000/svg" xmlns:xlink="http://www.w3.org/1999/xlink" width="513" height="296" viewBox="0 0 513 296" aria-labelledby="trade-what-you-want-icon-title">
    <title id='trade-what-you-want-icon-title'>Trade what you want</title>
    <defs>
        <filter id="twywa" width="112.7%" height="116%" x="-6.3%" y="-8%" filterUnits="objectBoundingBox">
            <feOffset dy="3" in="SourceAlpha" result="shadowOffsetOuter1"/>
            <feGaussianBlur in="shadowOffsetOuter1" result="shadowBlurOuter1" stdDeviation="2.5"/>
            <feColorMatrix in="shadowBlurOuter1" result="shadowMatrixOuter1" values="0 0 0 0 0 0 0 0 0 0 0 0 0 0 0 0 0 0 0.24 0"/>
            <feMerge>
                <feMergeNode in="shadowMatrixOuter1"/>
                <feMergeNode in="SourceGraphic"/>
            </feMerge>
        </filter>
        <path id="twywb" d="M3.463 0h216.45a3.463 3.463 0 0 1 3.464 3.463v63.204a3.463 3.463 0 0 1-3.464 3.463H3.463A3.463 3.463 0 0 1 0 66.667V3.463A3.463 3.463 0 0 1 3.463 0z"/>
        <rect id="twywd" width="20.779" height="20.779" rx="3.463"/>
        <rect id="twywf" width="20.779" height="20.779" rx="3.463"/>
        <rect id="twywh" width="20.779" height="20.779" rx="3.463"/>
        <rect id="twywj" width="20.779" height="20.779" rx="3.463"/>
        <path id="twywl" d="M3.463 0h216.45a3.463 3.463 0 0 1 3.464 3.463V31.17a3.463 3.463 0 0 1-3.464 3.463H3.463A3.463 3.463 0 0 1 0 31.169V3.463A3.463 3.463 0 0 1 3.463 0z"/>
        <rect id="twywn" width="20.779" height="20.779" rx="3.463"/>
        <rect id="twywp" width="20.779" height="20.779" rx="3.463"/>
        <rect id="twywr" width="259.475" height="275" rx="3.327"/>
        <filter id="twyws" width="110.8%" height="112.7%" x="-5.4%" y="-5.1%" filterUnits="objectBoundingBox">
            <feOffset dy="7" in="SourceAlpha" result="shadowOffsetOuter1"/>
            <feGaussianBlur in="shadowOffsetOuter1" result="shadowBlurOuter1" stdDeviation="3.5"/>
            <feColorMatrix in="shadowBlurOuter1" result="shadowMatrixOuter1" values="0 0 0 0 0 0 0 0 0 0 0 0 0 0 0 0 0 0 0.64 0"/>
            <feOffset in="SourceAlpha" result="shadowOffsetOuter2"/>
            <feGaussianBlur in="shadowOffsetOuter2" result="shadowBlurOuter2" stdDeviation="3.5"/>
            <feColorMatrix in="shadowBlurOuter2" result="shadowMatrixOuter2" values="0 0 0 0 0 0 0 0 0 0 0 0 0 0 0 0 0 0 0.64 0"/>
            <feMerge>
                <feMergeNode in="shadowMatrixOuter1"/>
                <feMergeNode in="shadowMatrixOuter2"/>
            </feMerge>
        </filter>
        <rect id="twywu" width="19.96" height="13.306" rx="1.663"/>
        <path id="twyww" d="M1.663 0h7.651v7.126H0V1.663C0 .745.745 0 1.663 0z"/>
    </defs>
    <g fill="none" fill-rule="evenodd">
        <g filter="url(#twywa)" transform="translate(257 45)">
            <rect width="251.082" height="200" fill="#F4F4F6" fill-rule="nonzero" rx="3.463"/>
            <text fill="#333" font-family="Roboto-Medium, Roboto" font-size="12.121" font-weight="400" transform="translate(14.719 13.853)">
                <tspan x="8.658" y="12.732">Up/Down</tspan>
            </text>
            <g transform="translate(13.853 40.693)">
                <mask id="twywc" fill="#fff">
                    <use xlink:href="#twywb"/>
                </mask>
                <g mask="url(#twywc)">
                    <g transform="translate(6.926)">
                        <rect width="209.524" height="34.632" fill="#E6E9E9" rx="3.463"/>
                        <path fill="#000" fill-opacity=".8" d="M195.671 23.377a6.06 6.06 0 1 0 0-12.122 6.06 6.06 0 0 0 0 12.122zm0-12.987a6.926 6.926 0 1 1 0 13.852 6.926 6.926 0 0 1 0-13.852zm0 6.06a.433.433 0 0 0-.433.433v3.463a.433.433 0 1 0 .866 0v-3.463a.433.433 0 0 0-.433-.433zm0-2.164a.65.65 0 1 0 0 1.298.65.65 0 0 0 0-1.298z"/>
                        <text fill="#333" font-family="Roboto-Regular, Roboto" font-size="12.121">
                            <tspan x="58.874" y="19.658">Rise/Fall</tspan>
                        </text>
                        <g transform="translate(31.169 6.926)">
                            <mask id="twywe" fill="#fff">
                                <use xlink:href="#twywd"/>
                            </mask>
                            <use fill="#F2F3F4" fill-rule="nonzero" xlink:href="#twywd"/>
                            <g fill-rule="nonzero" mask="url(#twywe)">
                                <path fill="#EF4852" d="M17.307 11.255c-.951 0-1.723.772-1.723 1.723v1.386L6.926 5.706V8.15l7.434 7.433h-1.385c-.95.002-1.72.773-1.72 1.723v.009h4.33c.956 0 1.731-.775 1.731-1.732v-4.329h-.009z"/>
                                <path fill="#85ACB0" d="M3.463 5.195V3.463h1.224l.508.508 1.224 1.224H3.463z"/>
                            </g>
                        </g>
                        <g transform="translate(6.926 6.926)">
                            <mask id="twywg" fill="#fff">
                                <use xlink:href="#twywf"/>
                            </mask>
                            <use fill="#F2F3F4" fill-rule="nonzero" xlink:href="#twywf"/>
                            <g fill-rule="nonzero" mask="url(#twywg)">
                                <path fill="#EF4852" d="M15.584 3.463h-4.329v.009c0 .951.772 1.723 1.723 1.723h1.386l-7.438 7.434v2.448l8.658-8.658v1.385c.002.95.773 1.72 1.723 1.72h.009v-4.33c0-.956-.775-1.73-1.732-1.73z"/>
                                <path fill="#85ACB0" d="M4.687 17.316H3.463v-1.732H6.42L5.195 16.81l-.508.507z"/>
                            </g>
                        </g>
                    </g>
                </g>
                <g mask="url(#twywc)">
                    <g transform="translate(6.926 35.498)">
                        <rect width="209.524" height="34.632" fill="#FFF" rx="3.463"/>
                        <text fill="#333" font-family="Roboto-Regular, Roboto" font-size="12.121">
                            <tspan x="58.874" y="19.658">Higher/Lower</tspan>
                        </text>
                        <g transform="translate(31.169 6.926)">
                            <mask id="twywi" fill="#fff">
                                <use xlink:href="#twywh"/>
                            </mask>
                            <use fill="#F2F3F4" fill-rule="nonzero" xlink:href="#twywh"/>
                            <g fill-rule="nonzero" mask="url(#twywi)">
                                <path fill="#85ACB0" d="M17.316 10.39H3.463V8.658h13.853z"/>
                                <path fill="#EF4852" d="M12.48 10.39l3.104 3.108v-1.385c.002-.302.084-.598.237-.858h1.495v3.464c0 .956-.775 1.731-1.732 1.731h-4.329c0-.959.77-1.73 1.72-1.731h1.385l-4.329-4.33h2.449zM6.419 4.329l3.463 3.463H7.434L6.06 6.42v1.373H4.329V4.33h2.09z"/>
                            </g>
                        </g>
                        <g transform="translate(6.926 6.926)">
                            <mask id="twywk" fill="#fff">
                                <use xlink:href="#twywj"/>
                            </mask>
                            <use fill="#F2F3F4" fill-rule="nonzero" xlink:href="#twywj"/>
                            <g fill-rule="nonzero" mask="url(#twywk)">
                                <path fill="#85ACB0" d="M17.316 12.12H3.463V10.39h13.853z"/>
                                <path fill="#EF4852" d="M6.06 12.987v1.373l1.374-1.373h2.448L6.42 16.45h-2.09v-3.463h1.732zm9.524-8.658c.957 0 1.732.775 1.732 1.732v3.466h-1.495a1.708 1.708 0 0 1-.237-.857V7.285l-3.1 3.105h-2.45l4.33-4.33h-1.386a1.723 1.723 0 0 1-1.723-1.722v-.009z"/>
                            </g>
                        </g>
                    </g>
                </g>
            </g>
            <g>
                <text fill="#333" font-family="Roboto-Medium, Roboto" font-size="12.121" font-weight="400" transform="translate(14.719 124.675)">
                    <tspan x="8.658" y="12.732">Touch/No Touch</tspan>
                </text>
                <g transform="translate(13.853 151.515)">
                    <mask id="twywm" fill="#fff">
                        <use xlink:href="#twywl"/>
                    </mask>
                    <use fill="#FFF" xlink:href="#twywl"/>
                    <g mask="url(#twywm)">
                        <g transform="translate(6.926)">
                            <rect width="209.524" height="34.632" fill="#D6DADB" fill-rule="nonzero" rx="3.463"/>
                            <text fill="#333" font-family="Roboto-Bold, Roboto" font-size="12.121" font-weight="bold">
                                <tspan x="58.874" y="19.658">Touch/No Touch</tspan>
                            </text>
                            <g transform="translate(31.169 6.926)">
                                <mask id="twywo" fill="#fff">
                                    <use xlink:href="#twywn"/>
                                </mask>
                                <use fill="#F2F3F4" fill-rule="nonzero" xlink:href="#twywn"/>
                                <g fill-rule="nonzero" mask="url(#twywo)">
                                    <path fill="#85ACB0" d="M6.419 15.584l-1.732 1.732H3.463v-1.732H6.42zm10.897-12.12v1.73H3.463v-1.73h13.853z"/>
                                    <path fill="#EF4852" d="M17.307 9.524c-.951 0-1.723.771-1.723 1.723v1.385L12.48 9.524a1.732 1.732 0 0 0-2.449 0l-3.105 3.105v2.448l4.33-4.329 3.104 3.105h-1.385c-.95.002-1.72.773-1.72 1.723v.008h4.33c.956 0 1.731-.775 1.731-1.731v-4.33h-.009z"/>
                                </g>
                            </g>
                            <g transform="translate(6.926 6.926)">
                                <mask id="twywq" fill="#fff">
                                    <use xlink:href="#twywp"/>
                                </mask>
                                <use fill="#F2F3F4" fill-rule="nonzero" xlink:href="#twywp"/>
                                <g fill-rule="nonzero" mask="url(#twywq)">
                                    <path fill="#85ACB0" d="M8.16 15.584L6.925 16.82l-.497.497H3.463v-1.732H8.16zm9.156-12.12v1.73H3.463v-1.73h13.853z"/>
                                    <path fill="#EF4852" d="M17.307 12.121h.009V6.926c0-.956-.775-1.731-1.732-1.731H10.39v.008c0 .952.771 1.723 1.723 1.723h2.25L8.659 12.63v2.456l6.926-6.934v2.25c.002.95.773 1.72 1.723 1.72z"/>
                                </g>
                            </g>
                        </g>
                    </g>
                </g>
            </g>
        </g>
        <g transform="translate(7 7)">
            <mask id="twywt" fill="#fff">
                <use xlink:href="#twywr"/>
            </mask>
            <use fill="#000" filter="url(#twyws)" xlink:href="#twywr"/>
            <use fill="#0E0E0E" xlink:href="#twywr"/>
            <g mask="url(#twywt)">
                <g transform="translate(7.396 259.475)">
                    <rect width="244.055" height="33.266" fill="#0E0E0E" fill-rule="nonzero" rx="3.327"/>
                    <path fill="#C2C2C2" fill-rule="nonzero" d="M233.539 17.515l2.696-2.524-3.73-.521-1.706-3.32-1.706 3.32-3.731.52 2.697 2.525-.646 3.615 3.386-1.71 3.385 1.71-.645-3.615zm-2.74 2.837l-3.363 1.698c-.626.316-1.036.021-.918-.64l.642-3.596-2.72-2.547c-.507-.475-.341-.94.351-1.037l3.76-.524 1.68-3.272c.314-.61.826-.602 1.135 0l1.681 3.272 3.76.524c.7.098.85.568.35 1.037l-2.72 2.547.642 3.595c.12.67-.3.953-.918.64l-3.362-1.697z"/>
                    <text fill="#C2C2C2" font-family="Roboto-Regular, Roboto" font-size="11.643">
                        <tspan x="46.572" y="19.316">EUR/JPY</tspan>
                    </text>
                    <g transform="translate(6.653 6.653)">
                        <g fill-rule="nonzero">
                            <path fill="#0D47A1" d="M18.465.01H1.495C.669.01 0 .69 0 1.53v10.247c0 .839.67 1.519 1.495 1.519h16.97c.825 0 1.495-.68 1.495-1.519V1.529c0-.838-.67-1.518-1.495-1.518z"/>
                            <path fill="#FFEB3B" d="M10.12 10.556l.138.42.436.004c.056 0 .08.073.034.107l-.35.264.131.422c.017.055-.044.1-.09.067l-.355-.258-.355.258c-.046.033-.107-.012-.09-.067l.132-.422-.351-.264c-.046-.034-.022-.107.034-.107l.436-.004.138-.42a.058.058 0 0 1 .112 0zM7.97 9.85l.139.42.436.004c.056 0 .08.074.034.108l-.35.263.131.422c.017.055-.044.1-.09.067l-.355-.258-.355.258c-.046.033-.107-.012-.09-.067l.131-.422-.35-.263c-.046-.034-.022-.108.034-.108l.436-.003.138-.42a.058.058 0 0 1 .112 0zm4.33 0a.058.058 0 0 1 .112 0l.138.42.436.004c.057 0 .08.074.035.108l-.351.263.131.422c.017.055-.044.1-.09.067l-.355-.258-.354.258c-.046.033-.108-.012-.09-.067l.13-.422-.35-.263c-.045-.034-.022-.108.035-.108l.436-.003zM14.039 8.2l.138.42.436.003c.056 0 .08.074.034.108l-.35.263.131.423c.017.054-.044.1-.09.066l-.355-.257-.355.257c-.046.034-.107-.012-.09-.066l.132-.423-.351-.263c-.046-.034-.022-.107.034-.108l.436-.003.138-.42a.058.058 0 0 1 .112 0zm-7.71-.026l.017.026.138.42.436.003c.045 0 .07.048.054.084l-.02.024-.35.263.131.423a.06.06 0 0 1-.061.077l-.029-.01-.355-.258-.354.257c-.037.027-.084.003-.092-.035l.001-.031.132-.423-.351-.263a.06.06 0 0 1 .005-.1l.03-.008.436-.003.138-.42a.059.059 0 0 1 .094-.026zm8.233-2.13l.138.42.436.004c.057 0 .08.073.035.107l-.351.264.131.422c.017.055-.044.1-.09.067l-.355-.258-.354.258c-.046.033-.108-.012-.09-.067l.131-.422-.35-.264c-.046-.034-.023-.107.034-.107l.436-.004.138-.42a.058.058 0 0 1 .111 0zm-8.883 0l.138.42.436.004c.057 0 .08.073.035.107l-.351.264.132.422c.017.055-.045.1-.09.067l-.355-.258-.355.258c-.046.033-.108-.012-.09-.067l.131-.422-.35-.264c-.046-.034-.023-.107.034-.107l.436-.004.138-.42a.058.058 0 0 1 .111 0zm.667-2.356l.138.42.436.003c.057 0 .08.074.035.108l-.351.263.131.423c.017.054-.044.1-.09.066l-.355-.257-.354.257c-.046.034-.108-.012-.09-.066l.13-.423-.35-.263c-.045-.034-.022-.107.034-.108l.437-.003.138-.42a.058.058 0 0 1 .111 0zm7.676-.026l.017.026.138.42.436.003c.045 0 .07.048.054.084l-.02.024-.35.263.131.423a.06.06 0 0 1-.061.077l-.03-.01-.354-.258-.355.257c-.036.027-.083.003-.091-.035l.001-.031.132-.423-.351-.263a.06.06 0 0 1 .005-.1l.03-.008.435-.003.138-.42a.059.059 0 0 1 .095-.026zm-1.609-1.626l.138.42.436.004c.057 0 .08.074.035.108l-.351.263.131.422c.017.055-.044.1-.09.067l-.355-.258-.354.258c-.046.033-.108-.012-.09-.067l.13-.422-.35-.263c-.045-.034-.022-.108.035-.108l.436-.003.138-.42a.059.059 0 0 1 .111 0zM7.954 2.01l.017.026.138.42.436.004c.045 0 .069.047.054.083l-.02.025-.35.263.131.422a.06.06 0 0 1-.062.078L8.27 3.32l-.355-.258-.355.258c-.037.027-.083.003-.092-.036l.002-.03.131-.423-.35-.263a.06.06 0 0 1 .004-.1l.03-.008.436-.003.138-.42a.059.059 0 0 1 .095-.027zm2.166-.478l.138.42.436.004c.056 0 .08.073.034.107l-.35.264.131.422c.017.055-.044.1-.09.067l-.355-.258-.355.258c-.046.033-.107-.012-.09-.067l.132-.422-.351-.264c-.046-.034-.022-.107.034-.107l.436-.004.138-.42a.058.058 0 0 1 .112 0z"/>
                        </g>
                        <rect width="19.128" height="12.475" x=".416" y=".416" stroke="#000" stroke-opacity=".04" stroke-width=".832" rx="1.663"/>
                        <rect width="19.128" height="12.475" x=".416" y=".416" stroke="#000" stroke-opacity=".04" stroke-width=".832" rx="1.663"/>
                        <g transform="translate(6.653 6.653)">
                            <g fill-rule="nonzero">
                                <path fill="#FFF" d="M18.465.01H1.495C.669.01 0 .69 0 1.53v10.247c0 .839.67 1.519 1.495 1.519h16.97c.825 0 1.495-.68 1.495-1.519V1.529c0-.838-.67-1.518-1.495-1.518z"/>
                                <ellipse cx="9.98" cy="6.653" fill="#ED293F" rx="3.785" ry="3.845"/>
                            </g>
                            <rect width="19.128" height="12.475" x=".416" y=".416" stroke="#000" stroke-opacity=".04" stroke-width=".832" rx="1.663"/>
                        </g>
                        <rect width="19.128" height="12.475" x="7.069" y="7.069" stroke="#000" stroke-opacity=".04" stroke-width=".832" rx="1.663"/>
                    </g>
                </g>
                <g transform="translate(7.396 226.209)">
                    <rect width="244.055" height="33.266" fill="#0E0E0E" fill-rule="nonzero" rx="3.327"/>
                    <path fill="#C2C2C2" fill-rule="nonzero" d="M233.539 17.515l2.696-2.524-3.73-.521-1.706-3.32-1.706 3.32-3.731.52 2.697 2.525-.646 3.615 3.386-1.71 3.385 1.71-.645-3.615zm-2.74 2.837l-3.363 1.698c-.626.316-1.036.021-.918-.64l.642-3.596-2.72-2.547c-.507-.475-.341-.94.351-1.037l3.76-.524 1.68-3.272c.314-.61.826-.602 1.135 0l1.681 3.272 3.76.524c.7.098.85.568.35 1.037l-2.72 2.547.642 3.595c.12.67-.3.953-.918.64l-3.362-1.697z"/>
                    <text fill="#C2C2C2" font-family="Roboto-Regular, Roboto" font-size="11.643">
                        <tspan x="46.572" y="19.316">EUR/GBP</tspan>
                    </text>
                    <g transform="translate(6.653 6.653)">
                        <g fill-rule="nonzero">
                            <path fill="#0D47A1" d="M18.465.01H1.495C.669.01 0 .69 0 1.53v10.247c0 .839.67 1.519 1.495 1.519h16.97c.825 0 1.495-.68 1.495-1.519V1.529c0-.838-.67-1.518-1.495-1.518z"/>
                            <path fill="#FFEB3B" d="M10.12 10.556l.138.42.436.004c.056 0 .08.073.034.107l-.35.264.131.422c.017.055-.044.1-.09.067l-.355-.258-.355.258c-.046.033-.107-.012-.09-.067l.132-.422-.351-.264c-.046-.034-.022-.107.034-.107l.436-.004.138-.42a.058.058 0 0 1 .112 0zM7.97 9.85l.139.42.436.004c.056 0 .08.074.034.108l-.35.263.131.422c.017.055-.044.1-.09.067l-.355-.258-.355.258c-.046.033-.107-.012-.09-.067l.131-.422-.35-.263c-.046-.034-.022-.108.034-.108l.436-.003.138-.42a.058.058 0 0 1 .112 0zm4.33 0a.058.058 0 0 1 .112 0l.138.42.436.004c.057 0 .08.074.035.108l-.351.263.131.422c.017.055-.044.1-.09.067l-.355-.258-.354.258c-.046.033-.108-.012-.09-.067l.13-.422-.35-.263c-.045-.034-.022-.108.035-.108l.436-.003zM14.039 8.2l.138.42.436.003c.056 0 .08.074.034.108l-.35.263.131.423c.017.054-.044.1-.09.066l-.355-.257-.355.257c-.046.034-.107-.012-.09-.066l.132-.423-.351-.263c-.046-.034-.022-.107.034-.108l.436-.003.138-.42a.058.058 0 0 1 .112 0zm-7.71-.026l.017.026.138.42.436.003c.045 0 .07.048.054.084l-.02.024-.35.263.131.423a.06.06 0 0 1-.061.077l-.029-.01-.355-.258-.354.257c-.037.027-.084.003-.092-.035l.001-.031.132-.423-.351-.263a.06.06 0 0 1 .005-.1l.03-.008.436-.003.138-.42a.059.059 0 0 1 .094-.026zm8.233-2.13l.138.42.436.004c.057 0 .08.073.035.107l-.351.264.131.422c.017.055-.044.1-.09.067l-.355-.258-.354.258c-.046.033-.108-.012-.09-.067l.131-.422-.35-.264c-.046-.034-.023-.107.034-.107l.436-.004.138-.42a.058.058 0 0 1 .111 0zm-8.883 0l.138.42.436.004c.057 0 .08.073.035.107l-.351.264.132.422c.017.055-.045.1-.09.067l-.355-.258-.355.258c-.046.033-.108-.012-.09-.067l.131-.422-.35-.264c-.046-.034-.023-.107.034-.107l.436-.004.138-.42a.058.058 0 0 1 .111 0zm.667-2.356l.138.42.436.003c.057 0 .08.074.035.108l-.351.263.131.423c.017.054-.044.1-.09.066l-.355-.257-.354.257c-.046.034-.108-.012-.09-.066l.13-.423-.35-.263c-.045-.034-.022-.107.034-.108l.437-.003.138-.42a.058.058 0 0 1 .111 0zm7.676-.026l.017.026.138.42.436.003c.045 0 .07.048.054.084l-.02.024-.35.263.131.423a.06.06 0 0 1-.061.077l-.03-.01-.354-.258-.355.257c-.036.027-.083.003-.091-.035l.001-.031.132-.423-.351-.263a.06.06 0 0 1 .005-.1l.03-.008.435-.003.138-.42a.059.059 0 0 1 .095-.026zm-1.609-1.626l.138.42.436.004c.057 0 .08.074.035.108l-.351.263.131.422c.017.055-.044.1-.09.067l-.355-.258-.354.258c-.046.033-.108-.012-.09-.067l.13-.422-.35-.263c-.045-.034-.022-.108.035-.108l.436-.003.138-.42a.059.059 0 0 1 .111 0zM7.954 2.01l.017.026.138.42.436.004c.045 0 .069.047.054.083l-.02.025-.35.263.131.422a.06.06 0 0 1-.062.078L8.27 3.32l-.355-.258-.355.258c-.037.027-.083.003-.092-.036l.002-.03.131-.423-.35-.263a.06.06 0 0 1 .004-.1l.03-.008.436-.003.138-.42a.059.059 0 0 1 .095-.027zm2.166-.478l.138.42.436.004c.056 0 .08.073.034.107l-.35.264.131.422c.017.055-.044.1-.09.067l-.355-.258-.355.258c-.046.033-.107-.012-.09-.067l.132-.422-.351-.264c-.046-.034-.022-.107.034-.107l.436-.004.138-.42a.058.058 0 0 1 .112 0z"/>
                        </g>
                        <rect width="19.128" height="12.475" x=".416" y=".416" stroke="#000" stroke-opacity=".04" stroke-width=".832" rx="1.663"/>
                        <rect width="19.128" height="12.475" x=".416" y=".416" stroke="#000" stroke-opacity=".04" stroke-width=".832" rx="1.663"/>
                        <g transform="translate(6.653 6.653)">
                            <g fill-rule="nonzero">
                                <path fill="#0D47A1" d="M18.465.01H1.495C.669.01 0 .69 0 1.53v10.247c0 .839.67 1.519 1.495 1.519h16.97c.825 0 1.495-.68 1.495-1.519V1.529c0-.838-.67-1.518-1.495-1.518z"/>
                                <path fill="#FFF" d="M19.939 1.278A1.502 1.502 0 0 0 18.465.011h-.39L11.7 4.254V.011H8.26v4.243L1.883.011h-.39C.755.01.14.559.022 1.278L5.47 4.905H0v3.496h5.47L.02 12.028c.119.72.733 1.267 1.475 1.267h.389l6.375-4.243v4.243H11.7V9.052l6.376 4.243h.389c.741 0 1.356-.548 1.474-1.267L14.489 8.4h5.47V4.905h-5.47l5.45-3.627z"/>
                                <path fill="#F44336" d="M11.012.01v5.594h8.948v2.098h-8.948v5.593H8.947V7.702H0V5.604h8.947V.011h2.065zM8.24 8.402L.967 13.198a1.49 1.49 0 0 1-.505-.324l-.102-.11 6.616-4.363H8.24zm5.263 0l6.26 4.128a1.52 1.52 0 0 1-.365.433l-.114.085L12.24 8.4h1.264zM.603.311l6.968 4.594H6.307L.157.85A1.52 1.52 0 0 1 .604.31zM18.981.104c.239.09.448.239.612.43l-6.628 4.371H11.7z"/>
                            </g>
                            <rect width="19.128" height="12.475" x=".416" y=".416" stroke="#000" stroke-opacity=".04" stroke-width=".832" rx="1.663"/>
                        </g>
                        <rect width="19.128" height="12.475" x="7.069" y="7.069" stroke="#000" stroke-opacity=".04" stroke-width=".832" rx="1.663"/>
                    </g>
                </g>
                <g transform="translate(7.396 192.943)">
                    <rect width="244.055" height="33.266" fill="#0E0E0E" fill-rule="nonzero" rx="3.327"/>
                    <path fill="#C2C2C2" fill-rule="nonzero" d="M233.539 17.515l2.696-2.524-3.73-.521-1.706-3.32-1.706 3.32-3.731.52 2.697 2.525-.646 3.615 3.386-1.71 3.385 1.71-.645-3.615zm-2.74 2.837l-3.363 1.698c-.626.316-1.036.021-.918-.64l.642-3.596-2.72-2.547c-.507-.475-.341-.94.351-1.037l3.76-.524 1.68-3.272c.314-.61.826-.602 1.135 0l1.681 3.272 3.76.524c.7.098.85.568.35 1.037l-2.72 2.547.642 3.595c.12.67-.3.953-.918.64l-3.362-1.697z"/>
                    <text fill="#C2C2C2" font-family="Roboto-Regular, Roboto" font-size="11.643">
                        <tspan x="46.572" y="19.316">EUR/CHF</tspan>
                    </text>
                    <g transform="translate(6.653 6.653)">
                        <g fill-rule="nonzero">
                            <path fill="#0D47A1" d="M18.465.01H1.495C.669.01 0 .69 0 1.53v10.247c0 .839.67 1.519 1.495 1.519h16.97c.825 0 1.495-.68 1.495-1.519V1.529c0-.838-.67-1.518-1.495-1.518z"/>
                            <path fill="#FFEB3B" d="M10.12 10.556l.138.42.436.004c.056 0 .08.073.034.107l-.35.264.131.422c.017.055-.044.1-.09.067l-.355-.258-.355.258c-.046.033-.107-.012-.09-.067l.132-.422-.351-.264c-.046-.034-.022-.107.034-.107l.436-.004.138-.42a.058.058 0 0 1 .112 0zM7.97 9.85l.139.42.436.004c.056 0 .08.074.034.108l-.35.263.131.422c.017.055-.044.1-.09.067l-.355-.258-.355.258c-.046.033-.107-.012-.09-.067l.131-.422-.35-.263c-.046-.034-.022-.108.034-.108l.436-.003.138-.42a.058.058 0 0 1 .112 0zm4.33 0a.058.058 0 0 1 .112 0l.138.42.436.004c.057 0 .08.074.035.108l-.351.263.131.422c.017.055-.044.1-.09.067l-.355-.258-.354.258c-.046.033-.108-.012-.09-.067l.13-.422-.35-.263c-.045-.034-.022-.108.035-.108l.436-.003zM14.039 8.2l.138.42.436.003c.056 0 .08.074.034.108l-.35.263.131.423c.017.054-.044.1-.09.066l-.355-.257-.355.257c-.046.034-.107-.012-.09-.066l.132-.423-.351-.263c-.046-.034-.022-.107.034-.108l.436-.003.138-.42a.058.058 0 0 1 .112 0zm-7.71-.026l.017.026.138.42.436.003c.045 0 .07.048.054.084l-.02.024-.35.263.131.423a.06.06 0 0 1-.061.077l-.029-.01-.355-.258-.354.257c-.037.027-.084.003-.092-.035l.001-.031.132-.423-.351-.263a.06.06 0 0 1 .005-.1l.03-.008.436-.003.138-.42a.059.059 0 0 1 .094-.026zm8.233-2.13l.138.42.436.004c.057 0 .08.073.035.107l-.351.264.131.422c.017.055-.044.1-.09.067l-.355-.258-.354.258c-.046.033-.108-.012-.09-.067l.131-.422-.35-.264c-.046-.034-.023-.107.034-.107l.436-.004.138-.42a.058.058 0 0 1 .111 0zm-8.883 0l.138.42.436.004c.057 0 .08.073.035.107l-.351.264.132.422c.017.055-.045.1-.09.067l-.355-.258-.355.258c-.046.033-.108-.012-.09-.067l.131-.422-.35-.264c-.046-.034-.023-.107.034-.107l.436-.004.138-.42a.058.058 0 0 1 .111 0zm.667-2.356l.138.42.436.003c.057 0 .08.074.035.108l-.351.263.131.423c.017.054-.044.1-.09.066l-.355-.257-.354.257c-.046.034-.108-.012-.09-.066l.13-.423-.35-.263c-.045-.034-.022-.107.034-.108l.437-.003.138-.42a.058.058 0 0 1 .111 0zm7.676-.026l.017.026.138.42.436.003c.045 0 .07.048.054.084l-.02.024-.35.263.131.423a.06.06 0 0 1-.061.077l-.03-.01-.354-.258-.355.257c-.036.027-.083.003-.091-.035l.001-.031.132-.423-.351-.263a.06.06 0 0 1 .005-.1l.03-.008.435-.003.138-.42a.059.059 0 0 1 .095-.026zm-1.609-1.626l.138.42.436.004c.057 0 .08.074.035.108l-.351.263.131.422c.017.055-.044.1-.09.067l-.355-.258-.354.258c-.046.033-.108-.012-.09-.067l.13-.422-.35-.263c-.045-.034-.022-.108.035-.108l.436-.003.138-.42a.059.059 0 0 1 .111 0zM7.954 2.01l.017.026.138.42.436.004c.045 0 .069.047.054.083l-.02.025-.35.263.131.422a.06.06 0 0 1-.062.078L8.27 3.32l-.355-.258-.355.258c-.037.027-.083.003-.092-.036l.002-.03.131-.423-.35-.263a.06.06 0 0 1 .004-.1l.03-.008.436-.003.138-.42a.059.059 0 0 1 .095-.027zm2.166-.478l.138.42.436.004c.056 0 .08.073.034.107l-.35.264.131.422c.017.055-.044.1-.09.067l-.355-.258-.355.258c-.046.033-.107-.012-.09-.067l.132-.422-.351-.264c-.046-.034-.022-.107.034-.107l.436-.004.138-.42a.058.058 0 0 1 .112 0z"/>
                        </g>
                        <rect width="19.128" height="12.475" x=".416" y=".416" stroke="#000" stroke-opacity=".04" stroke-width=".832" rx="1.663"/>
                        <rect width="19.128" height="12.475" x=".416" y=".416" stroke="#000" stroke-opacity=".04" stroke-width=".832" rx="1.663"/>
                        <g transform="translate(6.653 6.653)">
                            <g fill-rule="nonzero">
                                <path fill="#F44336" d="M18.465 13.295H1.495c-.826 0-1.495-.68-1.495-1.518V1.529C0 .691.67.011 1.495.011h16.97c.825 0 1.495.68 1.495 1.518v10.248c0 .839-.67 1.518-1.495 1.518z"/>
                                <path fill="#FFF" d="M13.765 5.255h-2.409V2.808a.347.347 0 0 0-.344-.35H8.947a.347.347 0 0 0-.344.35v2.447H6.194a.347.347 0 0 0-.344.35v2.097c0 .193.154.35.344.35h2.41v2.447c0 .193.153.35.343.35h2.065c.19 0 .344-.157.344-.35V8.052h2.41c.19 0 .343-.157.343-.35V5.604a.347.347 0 0 0-.344-.35z"/>
                            </g>
                            <rect width="19.128" height="12.475" x=".416" y=".416" stroke="#000" stroke-opacity=".04" stroke-width=".832" rx="1.663"/>
                        </g>
                        <rect width="19.128" height="12.475" x="7.069" y="7.069" stroke="#000" stroke-opacity=".04" stroke-width=".832" rx="1.663"/>
                    </g>
                </g>
                <g transform="translate(7.396 159.677)">
                    <rect width="244.055" height="33.266" fill="#0E0E0E" fill-rule="nonzero" rx="3.327"/>
                    <path fill="#C2C2C2" fill-rule="nonzero" d="M233.539 17.515l2.696-2.524-3.73-.521-1.706-3.32-1.706 3.32-3.731.52 2.697 2.525-.646 3.615 3.386-1.71 3.385 1.71-.645-3.615zm-2.74 2.837l-3.363 1.698c-.626.316-1.036.021-.918-.64l.642-3.596-2.72-2.547c-.507-.475-.341-.94.351-1.037l3.76-.524 1.68-3.272c.314-.61.826-.602 1.135 0l1.681 3.272 3.76.524c.7.098.85.568.35 1.037l-2.72 2.547.642 3.595c.12.67-.3.953-.918.64l-3.362-1.697z"/>
                    <text fill="#C2C2C2" font-family="Roboto-Regular, Roboto" font-size="11.643">
                        <tspan x="46.572" y="19.316">EUR/CAD</tspan>
                    </text>
                    <g transform="translate(6.653 6.653)">
                        <g fill-rule="nonzero">
                            <path fill="#0D47A1" d="M18.465.01H1.495C.669.01 0 .69 0 1.53v10.247c0 .839.67 1.519 1.495 1.519h16.97c.825 0 1.495-.68 1.495-1.519V1.529c0-.838-.67-1.518-1.495-1.518z"/>
                            <path fill="#FFEB3B" d="M10.12 10.556l.138.42.436.004c.056 0 .08.073.034.107l-.35.264.131.422c.017.055-.044.1-.09.067l-.355-.258-.355.258c-.046.033-.107-.012-.09-.067l.132-.422-.351-.264c-.046-.034-.022-.107.034-.107l.436-.004.138-.42a.058.058 0 0 1 .112 0zM7.97 9.85l.139.42.436.004c.056 0 .08.074.034.108l-.35.263.131.422c.017.055-.044.1-.09.067l-.355-.258-.355.258c-.046.033-.107-.012-.09-.067l.131-.422-.35-.263c-.046-.034-.022-.108.034-.108l.436-.003.138-.42a.058.058 0 0 1 .112 0zm4.33 0a.058.058 0 0 1 .112 0l.138.42.436.004c.057 0 .08.074.035.108l-.351.263.131.422c.017.055-.044.1-.09.067l-.355-.258-.354.258c-.046.033-.108-.012-.09-.067l.13-.422-.35-.263c-.045-.034-.022-.108.035-.108l.436-.003zM14.039 8.2l.138.42.436.003c.056 0 .08.074.034.108l-.35.263.131.423c.017.054-.044.1-.09.066l-.355-.257-.355.257c-.046.034-.107-.012-.09-.066l.132-.423-.351-.263c-.046-.034-.022-.107.034-.108l.436-.003.138-.42a.058.058 0 0 1 .112 0zm-7.71-.026l.017.026.138.42.436.003c.045 0 .07.048.054.084l-.02.024-.35.263.131.423a.06.06 0 0 1-.061.077l-.029-.01-.355-.258-.354.257c-.037.027-.084.003-.092-.035l.001-.031.132-.423-.351-.263a.06.06 0 0 1 .005-.1l.03-.008.436-.003.138-.42a.059.059 0 0 1 .094-.026zm8.233-2.13l.138.42.436.004c.057 0 .08.073.035.107l-.351.264.131.422c.017.055-.044.1-.09.067l-.355-.258-.354.258c-.046.033-.108-.012-.09-.067l.131-.422-.35-.264c-.046-.034-.023-.107.034-.107l.436-.004.138-.42a.058.058 0 0 1 .111 0zm-8.883 0l.138.42.436.004c.057 0 .08.073.035.107l-.351.264.132.422c.017.055-.045.1-.09.067l-.355-.258-.355.258c-.046.033-.108-.012-.09-.067l.131-.422-.35-.264c-.046-.034-.023-.107.034-.107l.436-.004.138-.42a.058.058 0 0 1 .111 0zm.667-2.356l.138.42.436.003c.057 0 .08.074.035.108l-.351.263.131.423c.017.054-.044.1-.09.066l-.355-.257-.354.257c-.046.034-.108-.012-.09-.066l.13-.423-.35-.263c-.045-.034-.022-.107.034-.108l.437-.003.138-.42a.058.058 0 0 1 .111 0zm7.676-.026l.017.026.138.42.436.003c.045 0 .07.048.054.084l-.02.024-.35.263.131.423a.06.06 0 0 1-.061.077l-.03-.01-.354-.258-.355.257c-.036.027-.083.003-.091-.035l.001-.031.132-.423-.351-.263a.06.06 0 0 1 .005-.1l.03-.008.435-.003.138-.42a.059.059 0 0 1 .095-.026zm-1.609-1.626l.138.42.436.004c.057 0 .08.074.035.108l-.351.263.131.422c.017.055-.044.1-.09.067l-.355-.258-.354.258c-.046.033-.108-.012-.09-.067l.13-.422-.35-.263c-.045-.034-.022-.108.035-.108l.436-.003.138-.42a.059.059 0 0 1 .111 0zM7.954 2.01l.017.026.138.42.436.004c.045 0 .069.047.054.083l-.02.025-.35.263.131.422a.06.06 0 0 1-.062.078L8.27 3.32l-.355-.258-.355.258c-.037.027-.083.003-.092-.036l.002-.03.131-.423-.35-.263a.06.06 0 0 1 .004-.1l.03-.008.436-.003.138-.42a.059.059 0 0 1 .095-.027zm2.166-.478l.138.42.436.004c.056 0 .08.073.034.107l-.35.264.131.422c.017.055-.044.1-.09.067l-.355-.258-.355.258c-.046.033-.107-.012-.09-.067l.132-.422-.351-.264c-.046-.034-.022-.107.034-.107l.436-.004.138-.42a.058.058 0 0 1 .112 0z"/>
                        </g>
                        <rect width="19.128" height="12.475" x=".416" y=".416" stroke="#000" stroke-opacity=".04" stroke-width=".832" rx="1.663"/>
                        <rect width="19.128" height="12.475" x=".416" y=".416" stroke="#000" stroke-opacity=".04" stroke-width=".832" rx="1.663"/>
                        <g transform="translate(6.653 6.653)">
                            <g fill-rule="nonzero">
                                <path fill="#FFF" d="M4.474.011h11.012v13.285H4.474z"/>
                                <path fill="#F44336" d="M4.474.01v13.285h-2.98c-.779 0-1.42-.606-1.488-1.38L0 11.777V1.529A1.51 1.51 0 0 1 1.359.017l.136-.006h2.979zm11.012 0h2.979c.78 0 1.42.607 1.488 1.381l.007.138v10.248a1.51 1.51 0 0 1-1.36 1.512l-.135.006h-2.98V.011h2.98zM9.98 2.545v.001l.56 1.065c.075.144.239.216.394.173l.53-.148-.346 2.048c-.03.173.185.276.298.142l.811-.965.083.38a.344.344 0 0 0 .432.26l.865-.255-.153 1.16a.35.35 0 0 0 .188.36l.468.238-2.042 1.185a.509.509 0 0 0-.219.615l.175.474-1.75-.151a.164.164 0 0 0-.177.17l.055 1.902h-.344l.055-1.903a.164.164 0 0 0-.176-.17l-1.75.152.174-.474a.509.509 0 0 0-.219-.615L5.85 7.003l.469-.238a.351.351 0 0 0 .187-.36l-.152-1.16.864.255a.344.344 0 0 0 .432-.26l.083-.38.812.965c.112.134.327.031.297-.142l-.346-2.048.53.148a.342.342 0 0 0 .395-.173l.559-1.064v-.002z"/>
                            </g>
                            <rect width="19.128" height="12.475" x=".416" y=".416" stroke="#000" stroke-opacity=".04" stroke-width=".832" rx="1.663"/>
                        </g>
                        <rect width="19.128" height="12.475" x="7.069" y="7.069" stroke="#000" stroke-opacity=".04" stroke-width=".832" rx="1.663"/>
                    </g>
                </g>
                <g transform="translate(7.396 126.41)">
                    <rect width="244.055" height="33.266" fill="#0E0E0E" fill-rule="nonzero" rx="3.327"/>
                    <path fill="#C2C2C2" fill-rule="nonzero" d="M233.539 17.515l2.696-2.524-3.73-.521-1.706-3.32-1.706 3.32-3.731.52 2.697 2.525-.646 3.615 3.386-1.71 3.385 1.71-.645-3.615zm-2.74 2.837l-3.363 1.698c-.626.316-1.036.021-.918-.64l.642-3.596-2.72-2.547c-.507-.475-.341-.94.351-1.037l3.76-.524 1.68-3.272c.314-.61.826-.602 1.135 0l1.681 3.272 3.76.524c.7.098.85.568.35 1.037l-2.72 2.547.642 3.595c.12.67-.3.953-.918.64l-3.362-1.697z"/>
                    <text fill="#C2C2C2" font-family="Roboto-Regular, Roboto" font-size="11.643">
                        <tspan x="46.572" y="19.316">EUR/AUD</tspan>
                    </text>
                    <g transform="translate(6.653 6.653)">
                        <g fill-rule="nonzero">
                            <path fill="#0D47A1" d="M18.465.01H1.495C.669.01 0 .69 0 1.53v10.247c0 .839.67 1.519 1.495 1.519h16.97c.825 0 1.495-.68 1.495-1.519V1.529c0-.838-.67-1.518-1.495-1.518z"/>
                            <path fill="#FFEB3B" d="M10.12 10.556l.138.42.436.004c.056 0 .08.073.034.107l-.35.264.131.422c.017.055-.044.1-.09.067l-.355-.258-.355.258c-.046.033-.107-.012-.09-.067l.132-.422-.351-.264c-.046-.034-.022-.107.034-.107l.436-.004.138-.42a.058.058 0 0 1 .112 0zM7.97 9.85l.139.42.436.004c.056 0 .08.074.034.108l-.35.263.131.422c.017.055-.044.1-.09.067l-.355-.258-.355.258c-.046.033-.107-.012-.09-.067l.131-.422-.35-.263c-.046-.034-.022-.108.034-.108l.436-.003.138-.42a.058.058 0 0 1 .112 0zm4.33 0a.058.058 0 0 1 .112 0l.138.42.436.004c.057 0 .08.074.035.108l-.351.263.131.422c.017.055-.044.1-.09.067l-.355-.258-.354.258c-.046.033-.108-.012-.09-.067l.13-.422-.35-.263c-.045-.034-.022-.108.035-.108l.436-.003zM14.039 8.2l.138.42.436.003c.056 0 .08.074.034.108l-.35.263.131.423c.017.054-.044.1-.09.066l-.355-.257-.355.257c-.046.034-.107-.012-.09-.066l.132-.423-.351-.263c-.046-.034-.022-.107.034-.108l.436-.003.138-.42a.058.058 0 0 1 .112 0zm-7.71-.026l.017.026.138.42.436.003c.045 0 .07.048.054.084l-.02.024-.35.263.131.423a.06.06 0 0 1-.061.077l-.029-.01-.355-.258-.354.257c-.037.027-.084.003-.092-.035l.001-.031.132-.423-.351-.263a.06.06 0 0 1 .005-.1l.03-.008.436-.003.138-.42a.059.059 0 0 1 .094-.026zm8.233-2.13l.138.42.436.004c.057 0 .08.073.035.107l-.351.264.131.422c.017.055-.044.1-.09.067l-.355-.258-.354.258c-.046.033-.108-.012-.09-.067l.131-.422-.35-.264c-.046-.034-.023-.107.034-.107l.436-.004.138-.42a.058.058 0 0 1 .111 0zm-8.883 0l.138.42.436.004c.057 0 .08.073.035.107l-.351.264.132.422c.017.055-.045.1-.09.067l-.355-.258-.355.258c-.046.033-.108-.012-.09-.067l.131-.422-.35-.264c-.046-.034-.023-.107.034-.107l.436-.004.138-.42a.058.058 0 0 1 .111 0zm.667-2.356l.138.42.436.003c.057 0 .08.074.035.108l-.351.263.131.423c.017.054-.044.1-.09.066l-.355-.257-.354.257c-.046.034-.108-.012-.09-.066l.13-.423-.35-.263c-.045-.034-.022-.107.034-.108l.437-.003.138-.42a.058.058 0 0 1 .111 0zm7.676-.026l.017.026.138.42.436.003c.045 0 .07.048.054.084l-.02.024-.35.263.131.423a.06.06 0 0 1-.061.077l-.03-.01-.354-.258-.355.257c-.036.027-.083.003-.091-.035l.001-.031.132-.423-.351-.263a.06.06 0 0 1 .005-.1l.03-.008.435-.003.138-.42a.059.059 0 0 1 .095-.026zm-1.609-1.626l.138.42.436.004c.057 0 .08.074.035.108l-.351.263.131.422c.017.055-.044.1-.09.067l-.355-.258-.354.258c-.046.033-.108-.012-.09-.067l.13-.422-.35-.263c-.045-.034-.022-.108.035-.108l.436-.003.138-.42a.059.059 0 0 1 .111 0zM7.954 2.01l.017.026.138.42.436.004c.045 0 .069.047.054.083l-.02.025-.35.263.131.422a.06.06 0 0 1-.062.078L8.27 3.32l-.355-.258-.355.258c-.037.027-.083.003-.092-.036l.002-.03.131-.423-.35-.263a.06.06 0 0 1 .004-.1l.03-.008.436-.003.138-.42a.059.059 0 0 1 .095-.027zm2.166-.478l.138.42.436.004c.056 0 .08.073.034.107l-.35.264.131.422c.017.055-.044.1-.09.067l-.355-.258-.355.258c-.046.033-.107-.012-.09-.067l.132-.422-.351-.264c-.046-.034-.022-.107.034-.107l.436-.004.138-.42a.058.058 0 0 1 .112 0z"/>
                        </g>
                        <rect width="19.128" height="12.475" x=".416" y=".416" stroke="#000" stroke-opacity=".04" stroke-width=".832" rx="1.663"/>
                        <rect width="19.128" height="12.475" x=".416" y=".416" stroke="#000" stroke-opacity=".04" stroke-width=".832" rx="1.663"/>
                        <g transform="translate(6.653 6.653)">
                            <path fill="#0D47A1" fill-rule="nonzero" d="M18.465 0H1.495C.669 0 0 .68 0 1.519v10.247c0 .839.67 1.519 1.495 1.519h16.97c.825 0 1.495-.68 1.495-1.519V1.52C19.96.679 19.29 0 18.465 0z"/>
                            <path fill="#FFF" fill-rule="nonzero" d="M.344 6.642h.598L4.13 4.521v2.121h1.72V4.521l3.188 2.121h.598c.19 0 .344-.156.344-.35v-.277l-2.735-1.82H9.98V2.447H7.245L9.98.627V.35A.347.347 0 0 0 9.636 0h-.598L5.85 2.122V0H4.13v2.122L1.046.07C.686.184.386.434.2.76l2.535 1.687H0v1.748h2.735L0 6.015v.278c0 .193.154.35.344.35zM5.094 8.548l.26.872.832-.337c.071-.03.136.053.092.117l-.508.75.778.45c.067.04.043.142-.033.147l-.894.064.138.899c.012.077-.081.122-.133.065l-.606-.67-.606.67c-.052.057-.145.012-.133-.065l.138-.9-.894-.063c-.076-.005-.1-.108-.033-.146l.778-.451-.508-.75c-.044-.064.02-.146.092-.117l.832.337.26-.872a.077.077 0 0 1 .148 0zm10.237 1.268l.127.425.407-.164c.035-.014.066.026.045.057l-.248.366.38.22c.032.02.02.07-.016.072l-.437.031.067.44c.006.037-.04.06-.065.031l-.296-.327-.296.327c-.025.028-.07.006-.065-.031l.067-.44-.436-.03c-.037-.003-.049-.054-.016-.072l.38-.22-.249-.367c-.02-.031.01-.071.046-.057l.406.164.127-.425a.038.038 0 0 1 .072 0zm.982-3.43c.013-.04.07-.04.082 0l.102.31.322.002c.042 0 .06.055.026.08l-.26.194.098.312c.012.04-.033.074-.067.05l-.262-.191-.262.19c-.034.025-.079-.009-.066-.05l.097-.31-.26-.195c-.033-.025-.015-.08.026-.08l.322-.002zm-3.81-.765l.126.425.407-.164c.034-.014.066.026.045.057l-.249.366.38.22c.033.02.022.07-.016.072l-.436.031.067.44c.006.037-.04.06-.065.031l-.296-.327-.296.327c-.025.028-.07.006-.065-.032l.067-.439-.436-.03c-.038-.003-.049-.054-.016-.072l.38-.22-.249-.367c-.02-.031.01-.071.045-.057l.407.164.127-.425a.038.038 0 0 1 .072 0zm5.505-1.399l.127.426.407-.165c.034-.014.066.026.045.058l-.249.366.38.22c.033.019.022.07-.016.072l-.436.03.067.44c.006.038-.04.06-.065.032l-.296-.328-.296.328c-.025.028-.07.006-.065-.032l.067-.44-.436-.03c-.038-.003-.049-.053-.016-.072l.38-.22-.249-.366c-.02-.032.01-.072.045-.058l.407.165.127-.426a.038.038 0 0 1 .072 0zm-2.677-1.867l.127.425.407-.164c.035-.014.066.026.045.057l-.248.366.38.22c.032.02.02.07-.016.072l-.437.03.067.44c.006.038-.04.06-.065.032l-.296-.327-.296.327c-.025.028-.07.006-.065-.032l.067-.44-.436-.03c-.037-.003-.049-.053-.016-.072l.38-.22-.249-.366c-.02-.031.01-.071.046-.057l.406.164.127-.425a.038.038 0 0 1 .072 0z"/>
                            <path fill="#F44336" fill-rule="nonzero" d="M5.506 0v2.797H9.98v1.049H5.506v2.796H4.474V3.846H0v-1.05h4.474V0h1.032zM4.12 4.195L.41 6.642H.343a.33.33 0 0 1-.253-.12l-.042-.06 3.439-2.267h.632zm2.632 0L9.974 6.32a.346.346 0 0 1-.195.288L6.12 4.195h.633zM.569.326l3.216 2.121h-.632L.321.58C.394.485.477.4.569.326zM9.636 0a.33.33 0 0 1 .25.118l.041.057-3.445 2.272H5.85L9.561 0h.075z"/>
                            <rect width="19.128" height="12.475" x=".416" y=".416" stroke="#000" stroke-opacity=".04" stroke-width=".832" rx="1.663"/>
                        </g>
                        <rect width="19.128" height="12.475" x="7.069" y="7.069" stroke="#000" stroke-opacity=".04" stroke-width=".832" rx="1.663"/>
                    </g>
                </g>
                <g transform="translate(7.396 93.145)">
                    <rect width="244.055" height="33.266" fill="#0E0E0E" fill-rule="nonzero" rx="3.327"/>
                    <path fill="#C2C2C2" fill-rule="nonzero" d="M233.539 17.515l2.696-2.524-3.73-.521-1.706-3.32-1.706 3.32-3.731.52 2.697 2.525-.646 3.615 3.386-1.71 3.385 1.71-.645-3.615zm-2.74 2.837l-3.363 1.698c-.626.316-1.036.021-.918-.64l.642-3.596-2.72-2.547c-.507-.475-.341-.94.351-1.037l3.76-.524 1.68-3.272c.314-.61.826-.602 1.135 0l1.681 3.272 3.76.524c.7.098.85.568.35 1.037l-2.72 2.547.642 3.595c.12.67-.3.953-.918.64l-3.362-1.697z"/>
                    <text fill="#C2C2C2" font-family="Roboto-Regular, Roboto" font-size="11.643">
                        <tspan x="46.572" y="19.316">AUD/USD</tspan>
                    </text>
                    <g transform="translate(6.653 6.653)">
                        <path fill="#0D47A1" fill-rule="nonzero" d="M18.465 0H1.495C.669 0 0 .68 0 1.519v10.247c0 .839.67 1.519 1.495 1.519h16.97c.825 0 1.495-.68 1.495-1.519V1.52C19.96.679 19.29 0 18.465 0z"/>
                        <path fill="#FFF" fill-rule="nonzero" d="M.344 6.642h.598L4.13 4.521v2.121h1.72V4.521l3.188 2.121h.598c.19 0 .344-.156.344-.35v-.277l-2.735-1.82H9.98V2.447H7.245L9.98.627V.35A.347.347 0 0 0 9.636 0h-.598L5.85 2.122V0H4.13v2.122L1.046.07C.686.184.386.434.2.76l2.535 1.687H0v1.748h2.735L0 6.015v.278c0 .193.154.35.344.35zM5.094 8.548l.26.872.832-.337c.071-.03.136.053.092.117l-.508.75.778.45c.067.04.043.142-.033.147l-.894.064.138.899c.012.077-.081.122-.133.065l-.606-.67-.606.67c-.052.057-.145.012-.133-.065l.138-.9-.894-.063c-.076-.005-.1-.108-.033-.146l.778-.451-.508-.75c-.044-.064.02-.146.092-.117l.832.337.26-.872a.077.077 0 0 1 .148 0zm10.237 1.268l.127.425.407-.164c.035-.014.066.026.045.057l-.248.366.38.22c.032.02.02.07-.016.072l-.437.031.067.44c.006.037-.04.06-.065.031l-.296-.327-.296.327c-.025.028-.07.006-.065-.031l.067-.44-.436-.03c-.037-.003-.049-.054-.016-.072l.38-.22-.249-.367c-.02-.031.01-.071.046-.057l.406.164.127-.425a.038.038 0 0 1 .072 0zm.982-3.43c.013-.04.07-.04.082 0l.102.31.322.002c.042 0 .06.055.026.08l-.26.194.098.312c.012.04-.033.074-.067.05l-.262-.191-.262.19c-.034.025-.079-.009-.066-.05l.097-.31-.26-.195c-.033-.025-.015-.08.026-.08l.322-.002zm-3.81-.765l.126.425.407-.164c.034-.014.066.026.045.057l-.249.366.38.22c.033.02.022.07-.016.072l-.436.031.067.44c.006.037-.04.06-.065.031l-.296-.327-.296.327c-.025.028-.07.006-.065-.032l.067-.439-.436-.03c-.038-.003-.049-.054-.016-.072l.38-.22-.249-.367c-.02-.031.01-.071.045-.057l.407.164.127-.425a.038.038 0 0 1 .072 0zm5.505-1.399l.127.426.407-.165c.034-.014.066.026.045.058l-.249.366.38.22c.033.019.022.07-.016.072l-.436.03.067.44c.006.038-.04.06-.065.032l-.296-.328-.296.328c-.025.028-.07.006-.065-.032l.067-.44-.436-.03c-.038-.003-.049-.053-.016-.072l.38-.22-.249-.366c-.02-.032.01-.072.045-.058l.407.165.127-.426a.038.038 0 0 1 .072 0zm-2.677-1.867l.127.425.407-.164c.035-.014.066.026.045.057l-.248.366.38.22c.032.02.02.07-.016.072l-.437.03.067.44c.006.038-.04.06-.065.032l-.296-.327-.296.327c-.025.028-.07.006-.065-.032l.067-.44-.436-.03c-.037-.003-.049-.053-.016-.072l.38-.22-.249-.366c-.02-.031.01-.071.046-.057l.406.164.127-.425a.038.038 0 0 1 .072 0z"/>
                        <path fill="#F44336" fill-rule="nonzero" d="M5.506 0v2.797H9.98v1.049H5.506v2.796H4.474V3.846H0v-1.05h4.474V0h1.032zM4.12 4.195L.41 6.642H.343a.33.33 0 0 1-.253-.12l-.042-.06 3.439-2.267h.632zm2.632 0L9.974 6.32a.346.346 0 0 1-.195.288L6.12 4.195h.633zM.569.326l3.216 2.121h-.632L.321.58C.394.485.477.4.569.326zM9.636 0a.33.33 0 0 1 .25.118l.041.057-3.445 2.272H5.85L9.561 0h.075z"/>
                        <rect width="19.128" height="12.475" x=".416" y=".416" stroke="#000" stroke-opacity=".04" stroke-width=".832" rx="1.663"/>
                        <rect width="19.128" height="12.475" x=".416" y=".416" stroke="#000" stroke-opacity=".04" stroke-width=".832" rx="1.663"/>
                        <g transform="translate(6.653 6.653)">
                            <mask id="twywv" fill="#fff">
                                <use xlink:href="#twywu"/>
                            </mask>
                            <use fill="#FFF" xlink:href="#twywu"/>
                            <path fill="#F44336" d="M19.96 12.215c0 .603-.489 1.091-1.092 1.091H1.091A1.091 1.091 0 0 1 0 12.216h19.96zm0-2.036v1.018H0V10.18h19.96zm0-2.035V9.16H0V8.144h19.96zm0-2.036v1.018H0V6.108h19.96zm0-2.036V5.09H0V4.072h19.96zm0-2.036v1.018H0V2.036h19.96zM18.942 0c.524 0 .956.397 1.012.907l.006.11H.572C.572.457 1.028 0 1.59 0h17.352z" mask="url(#twywv)"/>
                            <use fill="#0D47A1" xlink:href="#twyww"/>
                            <path fill="#F5F5F5" fill-rule="nonzero" d="M.91 5.67l.079.233h.245a.033.033 0 0 1 .02.06l-.2.147.076.234a.033.033 0 0 1-.052.036l-.2-.143-.199.143a.033.033 0 0 1-.05-.036l.08-.233-.199-.147a.033.033 0 0 1 .02-.06h.246l.08-.233c.004-.034.044-.034.053-.002zm7.514-.022c.013 0 .024.008.028.021l.079.234h.245a.033.033 0 0 1 .02.06l-.2.147.076.234a.033.033 0 0 1-.051.036l-.2-.143-.2.143a.033.033 0 0 1-.05-.036l.081-.233-.2-.147a.033.033 0 0 1 .02-.06h.246l.079-.233a.028.028 0 0 1 .027-.023zm-1.887 0c.013 0 .025.008.028.021l.079.234h.245a.033.033 0 0 1 .02.06l-.2.147.076.234a.033.033 0 0 1-.051.036l-.2-.143-.2.143a.033.033 0 0 1-.05-.036l.081-.233-.2-.147a.033.033 0 0 1 .02-.06h.246l.08-.233a.028.028 0 0 1 .026-.023zm-3.741.021l.079.234h.245a.033.033 0 0 1 .02.06l-.2.147.076.234a.033.033 0 0 1-.051.036l-.2-.143-.2.143a.033.033 0 0 1-.05-.036l.081-.233-.2-.147a.033.033 0 0 1 .02-.06h.247l.079-.233c0-.034.044-.034.054-.002zm1.887 0l.079.234h.245a.033.033 0 0 1 .02.06l-.2.147.076.234a.033.033 0 0 1-.051.036l-.2-.143-.2.143a.033.033 0 0 1-.05-.036l.08-.233-.199-.147a.033.033 0 0 1 .02-.06h.246l.08-.233c0-.034.044-.034.054-.002zm-2.83-.619l.08.235h.245a.033.033 0 0 1 .02.059l-.2.147.075.234a.033.033 0 0 1-.051.036l-.2-.143-.2.143a.033.033 0 0 1-.05-.036l.075-.234-.2-.147a.033.033 0 0 1 .02-.06h.253l.079-.234c.005-.031.045-.031.054 0zm5.64-.026a.03.03 0 0 1 .015.026l.08.235h.245a.033.033 0 0 1 .02.059l-.2.147.075.234a.033.033 0 0 1-.05.036l-.2-.143-.2.143a.033.033 0 0 1-.051-.036l.075-.234-.2-.147a.033.033 0 0 1 .02-.06h.246l.079-.234a.03.03 0 0 1 .046-.026zm-1.867.026l.08.235h.245a.033.033 0 0 1 .02.059l-.2.147.075.234a.033.033 0 0 1-.051.036l-.2-.143-.2.143a.033.033 0 0 1-.05-.036l.075-.234-.2-.147a.033.033 0 0 1 .02-.06h.246l.079-.234c.008-.031.052-.031.06 0zm-1.887 0l.08.235h.245a.033.033 0 0 1 .02.059l-.2.147.075.234a.033.033 0 0 1-.05.036l-.2-.143-.2.143a.033.033 0 0 1-.051-.036l.075-.234-.2-.147a.033.033 0 0 1 .02-.06h.253l.08-.234c0-.031.044-.031.053 0zm-.943-.599l.079.234h.245a.033.033 0 0 1 .02.06l-.2.146.076.235a.033.033 0 0 1-.051.036l-.2-.143-.2.143a.033.033 0 0 1-.05-.036l.074-.235-.2-.147a.033.033 0 0 1 .02-.059h.254l.079-.234c0-.027.044-.027.054 0zm5.656 0l.079.234h.245a.033.033 0 0 1 .02.06l-.2.146.076.235a.033.033 0 0 1-.051.036l-.2-.143-.2.143a.033.033 0 0 1-.05-.036l.074-.235-.2-.147a.033.033 0 0 1 .02-.059h.246l.08-.234c.011-.027.055-.027.06 0zm-7.543 0l.08.234h.245a.033.033 0 0 1 .02.06l-.2.146.076.235a.033.033 0 0 1-.052.036l-.2-.143-.199.143a.033.033 0 0 1-.05-.036l.074-.235-.2-.147a.033.033 0 0 1 .02-.059h.253l.08-.234c.004-.027.044-.027.053 0zm5.656 0l.079.234h.245a.033.033 0 0 1 .02.06l-.2.146.076.235a.033.033 0 0 1-.051.036l-.2-.143-.2.143a.033.033 0 0 1-.05-.036l.074-.235-.2-.147a.033.033 0 0 1 .02-.059h.246l.08-.234c.011-.027.055-.027.06 0zm-1.882 0l.079.234h.245a.033.033 0 0 1 .02.06l-.2.146.076.235a.033.033 0 0 1-.051.036l-.2-.143-.2.143a.033.033 0 0 1-.05-.036l.074-.235-.2-.147a.033.033 0 0 1 .02-.059h.253l.08-.234c0-.027.044-.027.054 0zm-2.83-.618l.08.234h.245a.033.033 0 0 1 .02.06l-.2.146.075.235a.033.033 0 0 1-.051.035l-.2-.143-.2.143a.033.033 0 0 1-.05-.035l.081-.233-.2-.147a.033.033 0 0 1 .02-.06h.247l.079-.234c.005-.033.045-.033.054-.001zm5.625-.03a.03.03 0 0 1 .03.03l.08.234h.245a.033.033 0 0 1 .02.06l-.2.146.075.235a.033.033 0 0 1-.05.035l-.2-.143-.2.143a.033.033 0 0 1-.051-.035l.075-.235-.2-.147a.033.033 0 0 1 .02-.059h.246l.079-.234a.03.03 0 0 1 .03-.03zm-1.852.03l.08.234h.245a.033.033 0 0 1 .02.06l-.2.146.075.235a.033.033 0 0 1-.051.035l-.2-.143-.2.143a.033.033 0 0 1-.05-.035l.075-.235-.2-.147a.033.033 0 0 1 .02-.059h.246l.079-.234c.008-.032.052-.032.06 0zm-1.887 0l.08.234h.245a.033.033 0 0 1 .02.06l-.2.146.075.235a.033.033 0 0 1-.05.035l-.2-.143-.2.143a.033.033 0 0 1-.051-.035l.082-.233-.2-.147a.033.033 0 0 1 .02-.06h.246l.08-.234c0-.033.044-.033.053-.001zm-.943-.596l.079.235h.245a.033.033 0 0 1 .02.059l-.2.147.076.234a.033.033 0 0 1-.051.036l-.2-.143-.2.143a.033.033 0 0 1-.05-.036l.081-.233-.2-.147a.033.033 0 0 1 .02-.059h.247l.079-.234c0-.033.044-.033.054-.002zm5.628-.02c.013-.001.024.008.028.02l.079.235h.245a.033.033 0 0 1 .02.059l-.2.147.076.234a.033.033 0 0 1-.051.036l-.2-.143-.2.143a.033.033 0 0 1-.05-.036l.081-.233-.2-.147a.033.033 0 0 1 .02-.059h.246l.079-.234a.028.028 0 0 1 .027-.023zm-1.89-.01a.03.03 0 0 1 .03.03l.08.235h.245a.033.033 0 0 1 .02.059l-.2.147.076.234a.033.033 0 0 1-.051.036l-.2-.143-.2.143a.033.033 0 0 1-.05-.036l.074-.234-.2-.147a.033.033 0 0 1 .02-.06h.246l.08-.234a.03.03 0 0 1 .03-.03zm-5.625.03l.08.235h.245a.033.033 0 0 1 .02.059l-.2.147.076.234a.033.033 0 0 1-.052.036l-.2-.143-.199.143a.033.033 0 0 1-.05-.036l.08-.233-.199-.147a.033.033 0 0 1 .02-.059h.246l.08-.234c.004-.033.044-.033.053-.002zm3.774 0l.079.235h.245a.033.033 0 0 1 .02.059l-.2.147.076.234a.033.033 0 0 1-.051.036l-.2-.143-.2.143a.033.033 0 0 1-.05-.036l.074-.234-.2-.147a.033.033 0 0 1 .02-.06h.253l.08-.234c0-.031.044-.031.054 0zm-2.83-.623l.08.234h.245a.033.033 0 0 1 .02.06l-.2.146.075.235a.033.033 0 0 1-.051.036l-.2-.143-.2.143a.033.033 0 0 1-.05-.036l.075-.235-.2-.147a.033.033 0 0 1 .02-.059h.253l.079-.234c.005-.027.045-.027.054 0zm3.773 0l.08.234h.245a.033.033 0 0 1 .02.06l-.2.146.075.235a.033.033 0 0 1-.051.036l-.2-.143-.2.143a.033.033 0 0 1-.05-.036l.075-.235-.2-.147a.033.033 0 0 1 .02-.059h.246l.079-.234c.008-.027.052-.027.06 0zm-1.887 0l.08.234h.245a.033.033 0 0 1 .02.06l-.2.146.075.235a.033.033 0 0 1-.05.036l-.2-.143-.2.143a.033.033 0 0 1-.051-.036l.075-.235-.2-.147a.033.033 0 0 1 .02-.059h.253l.08-.234c0-.027.044-.027.053 0zm3.77 0l.078.234h.246a.033.033 0 0 1 .02.06l-.2.146.075.235a.033.033 0 0 1-.05.036l-.2-.143-.2.143a.033.033 0 0 1-.051-.036l.075-.235-.2-.147a.033.033 0 0 1 .02-.059h.246l.079-.234c.012-.027.056-.027.061 0zm-2.826-.595l.079.234h.245a.033.033 0 0 1 .02.06l-.2.147.076.234a.033.033 0 0 1-.051.036l-.2-.143-.2.143a.033.033 0 0 1-.05-.036l.074-.234-.2-.147a.033.033 0 0 1 .02-.06h.253l.08-.234c0-.027.044-.027.054 0zm-3.774 0l.08.234h.245a.033.033 0 0 1 .02.06l-.2.147.076.234a.033.033 0 0 1-.052.036l-.2-.143-.199.143a.033.033 0 0 1-.05-.036l.074-.234-.2-.147a.033.033 0 0 1 .02-.06h.253l.08-.234c.004-.027.044-.027.053 0zm1.89 0l.079.234h.246a.033.033 0 0 1 .02.06l-.2.147.076.234a.033.033 0 0 1-.051.036l-.2-.143-.2.143a.033.033 0 0 1-.05-.036l.074-.234-.2-.147a.033.033 0 0 1 .02-.06h.246l.079-.234c.004-.027.048-.027.06 0zm3.766 0l.079.234h.245a.033.033 0 0 1 .02.06l-.2.147.076.234a.033.033 0 0 1-.051.036l-.2-.143-.2.143a.033.033 0 0 1-.05-.036l.074-.234-.2-.147a.033.033 0 0 1 .02-.06h.246l.08-.234c.011-.027.055-.027.06 0zm1.887 0l.079.234h.245a.033.033 0 0 1 .02.06l-.2.147.076.234a.033.033 0 0 1-.051.036l-.2-.143-.2.143a.033.033 0 0 1-.05-.036l.074-.234-.2-.147a.033.033 0 0 1 .02-.06h.246l.08-.234c.011-.027.055-.027.06 0zM5.626 1.4l.08.235h.245a.033.033 0 0 1 .02.059l-.2.147.075.234a.033.033 0 0 1-.051.036l-.2-.143-.2.143a.033.033 0 0 1-.05-.036l.075-.234-.2-.147a.033.033 0 0 1 .02-.06h.246l.079-.234c.008-.031.052-.031.06 0zm-1.887 0l.08.235h.245a.033.033 0 0 1 .02.059l-.2.147.075.234a.033.033 0 0 1-.05.036l-.2-.143-.2.143a.033.033 0 0 1-.051-.036l.082-.233-.2-.147a.033.033 0 0 1 .02-.059h.246l.08-.234c0-.033.044-.033.053-.002zm-1.886 0l.08.235h.245a.033.033 0 0 1 .02.059l-.2.147.075.234a.033.033 0 0 1-.051.036l-.2-.143-.2.143a.033.033 0 0 1-.05-.036l.081-.233-.2-.147a.033.033 0 0 1 .02-.059h.247l.079-.234c.005-.033.045-.033.054-.002zm5.64-.026a.03.03 0 0 1 .015.026l.08.235h.245a.033.033 0 0 1 .02.059l-.2.147.075.234a.033.033 0 0 1-.05.036l-.2-.143-.2.143a.033.033 0 0 1-.051-.036l.075-.234-.2-.147a.033.033 0 0 1 .02-.06h.246l.079-.234a.03.03 0 0 1 .046-.026zM.909.806l.08.234h.245a.033.033 0 0 1 .02.06l-.2.146.076.234a.033.033 0 0 1-.052.036l-.2-.143-.199.143a.033.033 0 0 1-.05-.036l.08-.233L.51 1.1a.033.033 0 0 1 .02-.059h.246l.08-.234C.86.774.9.774.909.806zm1.887 0l.079.234h.245a.033.033 0 0 1 .02.06l-.2.146.076.234a.033.033 0 0 1-.051.036l-.2-.143-.2.143a.033.033 0 0 1-.05-.036l.081-.233-.2-.147a.033.033 0 0 1 .02-.059h.247l.079-.234c0-.033.044-.033.054-.001zm1.887 0l.079.234h.245a.033.033 0 0 1 .02.06l-.2.146.076.234a.033.033 0 0 1-.051.036l-.2-.143-.2.143a.033.033 0 0 1-.05-.036l.074-.234-.2-.147a.033.033 0 0 1 .02-.06h.253l.08-.233c0-.032.044-.032.054 0zM6.549.779a.03.03 0 0 1 .016.027l.079.234h.245a.033.033 0 0 1 .02.06l-.2.146.076.234a.033.033 0 0 1-.051.036l-.2-.143-.2.143a.033.033 0 0 1-.05-.036l.074-.234-.2-.147a.033.033 0 0 1 .02-.06h.246l.08-.233a.03.03 0 0 1 .045-.027zm1.875.005c.013 0 .024.009.028.022l.079.234h.245a.033.033 0 0 1 .02.06l-.2.146.076.234a.033.033 0 0 1-.051.036l-.2-.143-.2.143a.033.033 0 0 1-.05-.036l.081-.233-.2-.147a.033.033 0 0 1 .02-.059h.246l.079-.234a.028.028 0 0 1 .027-.023z"/>
                            <rect width="19.128" height="12.475" x=".416" y=".416" stroke="#000" stroke-opacity=".04" stroke-width=".832" rx="1.663"/>
                        </g>
                        <rect width="19.128" height="12.475" x="7.069" y="7.069" stroke="#000" stroke-opacity=".04" stroke-width=".832" rx="1.663"/>
                    </g>
                </g>
                <g transform="translate(7.396 59.879)">
                    <rect width="244.055" height="33.266" fill="#323738" fill-rule="nonzero" rx="3.327"/>
                    <path fill="#C2C2C2" fill-rule="nonzero" d="M233.539 17.515l2.696-2.524-3.73-.521-1.706-3.32-1.706 3.32-3.731.52 2.697 2.525-.646 3.615 3.386-1.71 3.385 1.71-.645-3.615zm-2.74 2.837l-3.363 1.698c-.626.316-1.036.021-.918-.64l.642-3.596-2.72-2.547c-.507-.475-.341-.94.351-1.037l3.76-.524 1.68-3.272c.314-.61.826-.602 1.135 0l1.681 3.272 3.76.524c.7.098.85.568.35 1.037l-2.72 2.547.642 3.595c.12.67-.3.953-.918.64l-3.362-1.697z"/>
                    <text fill="#FFF" font-family="Roboto-Bold, Roboto" font-size="14" font-weight="bold">
                        <tspan x="46.572" y="18.949">AUD/JPY</tspan>
                    </text>
                    <g transform="translate(6.653 6.653)">
                        <path fill="#0D47A1" fill-rule="nonzero" d="M18.465 0H1.495C.669 0 0 .68 0 1.519v10.247c0 .839.67 1.519 1.495 1.519h16.97c.825 0 1.495-.68 1.495-1.519V1.52C19.96.679 19.29 0 18.465 0z"/>
                        <path fill="#FFF" fill-rule="nonzero" d="M.344 6.642h.598L4.13 4.521v2.121h1.72V4.521l3.188 2.121h.598c.19 0 .344-.156.344-.35v-.277l-2.735-1.82H9.98V2.447H7.245L9.98.627V.35A.347.347 0 0 0 9.636 0h-.598L5.85 2.122V0H4.13v2.122L1.046.07C.686.184.386.434.2.76l2.535 1.687H0v1.748h2.735L0 6.015v.278c0 .193.154.35.344.35zM5.094 8.548l.26.872.832-.337c.071-.03.136.053.092.117l-.508.75.778.45c.067.04.043.142-.033.147l-.894.064.138.899c.012.077-.081.122-.133.065l-.606-.67-.606.67c-.052.057-.145.012-.133-.065l.138-.9-.894-.063c-.076-.005-.1-.108-.033-.146l.778-.451-.508-.75c-.044-.064.02-.146.092-.117l.832.337.26-.872a.077.077 0 0 1 .148 0zm10.237 1.268l.127.425.407-.164c.035-.014.066.026.045.057l-.248.366.38.22c.032.02.02.07-.016.072l-.437.031.067.44c.006.037-.04.06-.065.031l-.296-.327-.296.327c-.025.028-.07.006-.065-.031l.067-.44-.436-.03c-.037-.003-.049-.054-.016-.072l.38-.22-.249-.367c-.02-.031.01-.071.046-.057l.406.164.127-.425a.038.038 0 0 1 .072 0zm.982-3.43c.013-.04.07-.04.082 0l.102.31.322.002c.042 0 .06.055.026.08l-.26.194.098.312c.012.04-.033.074-.067.05l-.262-.191-.262.19c-.034.025-.079-.009-.066-.05l.097-.31-.26-.195c-.033-.025-.015-.08.026-.08l.322-.002zm-3.81-.765l.126.425.407-.164c.034-.014.066.026.045.057l-.249.366.38.22c.033.02.022.07-.016.072l-.436.031.067.44c.006.037-.04.06-.065.031l-.296-.327-.296.327c-.025.028-.07.006-.065-.032l.067-.439-.436-.03c-.038-.003-.049-.054-.016-.072l.38-.22-.249-.367c-.02-.031.01-.071.045-.057l.407.164.127-.425a.038.038 0 0 1 .072 0zm5.505-1.399l.127.426.407-.165c.034-.014.066.026.045.058l-.249.366.38.22c.033.019.022.07-.016.072l-.436.03.067.44c.006.038-.04.06-.065.032l-.296-.328-.296.328c-.025.028-.07.006-.065-.032l.067-.44-.436-.03c-.038-.003-.049-.053-.016-.072l.38-.22-.249-.366c-.02-.032.01-.072.045-.058l.407.165.127-.426a.038.038 0 0 1 .072 0zm-2.677-1.867l.127.425.407-.164c.035-.014.066.026.045.057l-.248.366.38.22c.032.02.02.07-.016.072l-.437.03.067.44c.006.038-.04.06-.065.032l-.296-.327-.296.327c-.025.028-.07.006-.065-.032l.067-.44-.436-.03c-.037-.003-.049-.053-.016-.072l.38-.22-.249-.366c-.02-.031.01-.071.046-.057l.406.164.127-.425a.038.038 0 0 1 .072 0z"/>
                        <path fill="#F44336" fill-rule="nonzero" d="M5.506 0v2.797H9.98v1.049H5.506v2.796H4.474V3.846H0v-1.05h4.474V0h1.032zM4.12 4.195L.41 6.642H.343a.33.33 0 0 1-.253-.12l-.042-.06 3.439-2.267h.632zm2.632 0L9.974 6.32a.346.346 0 0 1-.195.288L6.12 4.195h.633zM.569.326l3.216 2.121h-.632L.321.58C.394.485.477.4.569.326zM9.636 0a.33.33 0 0 1 .25.118l.041.057-3.445 2.272H5.85L9.561 0h.075z"/>
                        <rect width="19.128" height="12.475" x=".416" y=".416" stroke="#000" stroke-opacity=".04" stroke-width=".832" rx="1.663"/>
                        <rect width="19.128" height="12.475" x=".416" y=".416" stroke="#000" stroke-opacity=".04" stroke-width=".832" rx="1.663"/>
                        <g transform="translate(6.653 6.653)">
                            <g fill-rule="nonzero">
                                <path fill="#FFF" d="M18.465.01H1.495C.669.01 0 .69 0 1.53v10.247c0 .839.67 1.519 1.495 1.519h16.97c.825 0 1.495-.68 1.495-1.519V1.529c0-.838-.67-1.518-1.495-1.518z"/>
                                <ellipse cx="9.98" cy="6.653" fill="#ED293F" rx="3.785" ry="3.845"/>
                            </g>
                            <rect width="19.128" height="12.475" x=".416" y=".416" stroke="#000" stroke-opacity=".04" stroke-width=".832" rx="1.663"/>
                        </g>
                        <rect width="19.128" height="12.475" x="7.069" y="7.069" stroke="#000" stroke-opacity=".04" stroke-width=".832" rx="1.663"/>
                    </g>
                </g>
                <g font-family="Roboto-Regular, Roboto" font-size="11.643">
                    <text fill="#6E6E6E" transform="translate(13.306 36.593)">
                        <tspan x="0" y="11">Major Pairs</tspan>
                    </text>
                </g>
                <g font-family="Roboto-Bold, Roboto" font-size="11.643" font-weight="bold">
                    <text fill="#FFF" transform="translate(13.306 13.306)">
                        <tspan x="0" y="11">Forex</tspan>
                    </text>
                </g>
            </g>
        </g>
    </g>
</svg>
