<svg xmlns="http://www.w3.org/2000/svg" width="328" height="132" viewBox="0 0 328 132">
    <g fill="none" fill-rule="evenodd">
        <g fill="#85ACB0" fill-rule="nonzero">
            <path d="M15.712 92.426H12.66l-.2 2.652h.07a2.19 2.19 0 0 1 .564-.558c.209-.14.497-.21.862-.21.3 0 .575.05.828.15.253.1.472.241.658.424.186.183.331.407.434.673.103.266.155.568.155.908 0 .339-.054.65-.16.932a2.023 2.023 0 0 1-1.202 1.202c-.289.113-.616.17-.982.17-.293 0-.55-.034-.773-.1a2.257 2.257 0 0 1-.593-.27 2.43 2.43 0 0 1-.454-.379 4.01 4.01 0 0 1-.354-.438l.628-.48c.087.14.178.267.274.38.097.113.203.21.32.289.116.08.25.141.403.185.153.043.336.064.549.064.479 0 .841-.126 1.087-.379.246-.252.369-.608.369-1.067v-.1c0-.458-.123-.814-.369-1.067-.246-.252-.608-.379-1.087-.379-.32 0-.57.059-.753.175a2.454 2.454 0 0 0-.494.414l-.708-.1.25-3.83h3.73v.739zm4.009 6.342c-.831 0-1.438-.315-1.82-.947-.383-.632-.574-1.516-.574-2.653s.191-2.021.574-2.653c.382-.631.989-.947 1.82-.947.83 0 1.437.316 1.82.947.382.632.573 1.516.573 2.653s-.191 2.021-.573 2.653c-.383.632-.99.947-1.82.947zm0-.728c.272 0 .505-.056.698-.17.193-.112.349-.272.468-.478.12-.206.208-.449.265-.728.056-.28.085-.588.085-.927V94.6c0-.34-.029-.649-.085-.928a2.382 2.382 0 0 0-.265-.728 1.296 1.296 0 0 0-.468-.479 1.358 1.358 0 0 0-.698-.17c-.273 0-.506.057-.698.17-.193.113-.35.273-.47.48-.119.205-.207.448-.263.727-.057.28-.085.589-.085.928v1.137c0 .339.028.648.085.927.056.28.144.522.264.728.12.206.276.366.469.479.192.113.425.17.698.17zm3.84-6.771h.797v4.677h.04l.788-.878 1.456-1.565h.967l-1.905 2.034L27.8 98.65h-.968l-1.705-2.623-.768.788v1.835h-.798v-7.38zM9.01 10H4.442v-.858l2.274-2.094c.326-.3.598-.617.818-.952.22-.336.329-.674.329-1.013v-.12c0-.385-.107-.697-.32-.937-.212-.24-.535-.359-.967-.359-.212 0-.399.03-.558.09-.16.06-.298.143-.414.25a1.392 1.392 0 0 0-.29.373 2.287 2.287 0 0 0-.184.464l-.748-.29c.067-.205.158-.406.274-.603a2.064 2.064 0 0 1 1.077-.893c.25-.092.544-.139.883-.139.34 0 .642.05.908.15.266.1.488.24.668.419.18.18.317.392.414.638.096.246.144.519.144.818 0 .272-.038.525-.114.758a2.952 2.952 0 0 1-.314.663 4.03 4.03 0 0 1-.484.613c-.19.2-.394.4-.613.599L5.35 9.262h3.66V10zm3.66.12c-.831 0-1.438-.316-1.82-.948-.383-.631-.574-1.516-.574-2.653 0-1.136.191-2.02.574-2.652.382-.632.989-.948 1.82-.948.83 0 1.438.316 1.82.948.382.631.573 1.516.573 2.652 0 1.137-.19 2.022-.573 2.653-.382.632-.99.948-1.82.948zm0-.728c.272 0 .505-.057.698-.17.193-.113.349-.272.469-.479.12-.206.207-.448.264-.728.056-.279.085-.588.085-.927V5.95c0-.34-.029-.648-.085-.928a2.382 2.382 0 0 0-.264-.728 1.296 1.296 0 0 0-.47-.478 1.358 1.358 0 0 0-.697-.17c-.273 0-.506.057-.698.17-.193.113-.35.272-.47.478-.119.207-.207.45-.263.728-.057.28-.085.589-.085.928v1.137c0 .339.028.648.085.927.056.28.144.522.264.728.12.207.276.366.469.48.192.112.425.169.698.169zm5.984.728c-.832 0-1.438-.316-1.82-.948-.383-.631-.574-1.516-.574-2.653 0-1.136.191-2.02.573-2.652.383-.632.99-.948 1.82-.948.832 0 1.438.316 1.82.948.383.631.574 1.516.574 2.652 0 1.137-.191 2.022-.573 2.653-.383.632-.99.948-1.82.948zm0-.728c.272 0 .505-.057.698-.17.192-.113.349-.272.468-.479.12-.206.208-.448.265-.728.056-.279.084-.588.084-.927V5.95c0-.34-.028-.648-.084-.928a2.382 2.382 0 0 0-.265-.728 1.296 1.296 0 0 0-.468-.478 1.358 1.358 0 0 0-.698-.17c-.273 0-.506.057-.699.17-.192.113-.349.272-.468.478-.12.207-.208.45-.265.728-.056.28-.084.589-.084.928v1.137c0 .339.028.648.084.927.057.28.145.522.265.728.12.207.276.366.468.48.193.112.426.169.699.169zm5.744-2.813l-.987 1.097V10h-.838V3.039h.838v3.7h.03l.997-1.207 2.104-2.493h1.027L24.976 6.02 27.75 10h-1.037l-2.314-3.42zM4.572 39.919v-.738h1.944v-5.605h-.07l-1.755 1.636-.488-.529 1.845-1.725h1.306v6.223H9.15v.738H4.572zm10.072-6.223h-3.051l-.2 2.653h.07a2.19 2.19 0 0 1 .563-.559c.21-.14.497-.21.863-.21.3 0 .575.05.828.15.253.1.472.241.658.424.186.183.33.407.434.673.103.266.155.569.155.908 0 .339-.054.65-.16.932a2.023 2.023 0 0 1-1.202 1.202c-.289.113-.616.17-.982.17-.293 0-.55-.034-.773-.1a2.257 2.257 0 0 1-.593-.27 2.43 2.43 0 0 1-.454-.378 4.01 4.01 0 0 1-.354-.44l.628-.478c.087.14.178.266.274.38.097.112.203.209.32.288.116.08.25.142.403.185.153.043.336.065.549.065.479 0 .84-.127 1.087-.38.246-.252.369-.608.369-1.066v-.1c0-.459-.123-.815-.37-1.067-.245-.253-.607-.38-1.086-.38-.32 0-.57.059-.753.175a2.454 2.454 0 0 0-.494.414l-.708-.1.25-3.83h3.73v.739zm4.01 6.343c-.832 0-1.438-.316-1.82-.948-.383-.631-.574-1.516-.574-2.653s.191-2.02.573-2.652c.383-.632.99-.948 1.82-.948.832 0 1.438.316 1.82.948.383.631.574 1.515.574 2.652 0 1.137-.191 2.022-.573 2.653-.383.632-.99.948-1.82.948zm0-.728c.272 0 .505-.057.698-.17.192-.113.349-.273.468-.479.12-.206.208-.448.265-.728.056-.279.084-.588.084-.927V35.87c0-.34-.028-.648-.084-.928a2.382 2.382 0 0 0-.265-.728 1.296 1.296 0 0 0-.468-.478 1.358 1.358 0 0 0-.698-.17c-.273 0-.506.057-.699.17-.192.113-.349.272-.468.478-.12.206-.208.45-.265.728-.056.28-.084.589-.084.928v1.137c0 .339.028.648.084.927.057.28.145.522.265.728.12.206.276.366.468.479.193.113.426.17.699.17zm5.744-2.813l-.987 1.097v2.324h-.838v-6.961h.838v3.7h.03l.997-1.207 2.104-2.493h1.027l-2.593 2.982 2.773 3.979h-1.037l-2.314-3.42zM4.572 68.73v-.738h1.944v-5.605h-.07l-1.755 1.635-.488-.528 1.845-1.725h1.306v6.223H9.15v.738H4.572zm8.098.12c-.831 0-1.438-.316-1.82-.948-.383-.632-.574-1.516-.574-2.653s.191-2.021.574-2.653c.382-.631.989-.947 1.82-.947.83 0 1.438.316 1.82.947.382.632.573 1.516.573 2.653s-.19 2.021-.573 2.653c-.382.632-.99.947-1.82.947zm0-.729c.272 0 .505-.056.698-.17.193-.112.349-.272.469-.478.12-.206.207-.449.264-.728.056-.28.085-.588.085-.927V64.68c0-.34-.029-.649-.085-.928a2.382 2.382 0 0 0-.264-.728 1.296 1.296 0 0 0-.47-.479 1.358 1.358 0 0 0-.697-.17c-.273 0-.506.057-.698.17-.193.114-.35.273-.47.48-.119.205-.207.448-.263.727-.057.28-.085.589-.085.928v1.137c0 .339.028.648.085.927.056.28.144.522.264.728.12.206.276.366.469.479.192.113.425.17.698.17zm5.984.728c-.832 0-1.438-.315-1.82-.947-.383-.632-.574-1.516-.574-2.653s.191-2.021.573-2.653c.383-.631.99-.947 1.82-.947.832 0 1.438.316 1.82.947.383.632.574 1.516.574 2.653s-.191 2.021-.573 2.653c-.383.632-.99.947-1.82.947zm0-.728c.272 0 .505-.056.698-.17.192-.112.349-.272.468-.478.12-.206.208-.449.265-.728.056-.28.084-.588.084-.927V64.68c0-.34-.028-.649-.084-.928a2.382 2.382 0 0 0-.265-.728 1.296 1.296 0 0 0-.468-.479 1.358 1.358 0 0 0-.698-.17c-.273 0-.506.057-.699.17-.192.114-.349.273-.468.48-.12.205-.208.448-.265.727-.056.28-.084.589-.084.928v1.137c0 .339.028.648.084.927.057.28.145.522.265.728.12.206.276.366.468.479.193.113.426.17.699.17zm5.744-2.812l-.987 1.097v2.324h-.838v-6.961h.838v3.7h.03l.997-1.207 2.104-2.493h1.027l-2.593 2.982 2.773 3.979h-1.037l-2.314-3.421z"/>
        </g>
        <g fill="#85ACB0" fill-rule="nonzero">
            <path d="M27.988 127.027h-6.09v-1.144l3.032-2.792a6.722 6.722 0 0 0 1.09-1.27c.293-.448.44-.897.44-1.35v-.16c0-.513-.143-.93-.426-1.25-.284-.318-.714-.478-1.29-.478-.284 0-.532.04-.745.12-.213.08-.397.19-.552.332a1.855 1.855 0 0 0-.385.499 3.05 3.05 0 0 0-.246.618l-.998-.385c.09-.275.211-.543.366-.805.155-.261.35-.494.585-.698.235-.204.519-.368.851-.492.333-.124.725-.186 1.177-.186.452 0 .855.066 1.21.2.355.132.652.319.891.558.24.24.423.523.552.85.128.329.193.692.193 1.091 0 .364-.051.7-.153 1.01-.102.311-.242.606-.42.885-.176.28-.391.552-.644.818-.253.266-.525.532-.818.798l-2.5 2.247h4.88v.984zm4.88.16c-1.108 0-1.917-.421-2.426-1.264-.51-.842-.765-2.02-.765-3.537 0-1.516.255-2.695.765-3.537.51-.842 1.318-1.263 2.426-1.263 1.109 0 1.918.421 2.427 1.263.51.842.765 2.021.765 3.537s-.255 2.695-.765 3.537c-.51.843-1.318 1.264-2.427 1.264zm0-.971c.364 0 .674-.075.931-.226.257-.15.466-.364.625-.638.16-.275.277-.599.353-.971a6.25 6.25 0 0 0 .113-1.237v-1.516a6.25 6.25 0 0 0-.113-1.236 3.176 3.176 0 0 0-.353-.971 1.728 1.728 0 0 0-.625-.638c-.257-.151-.567-.226-.93-.226-.364 0-.674.075-.931.226-.257.15-.466.363-.625.638-.16.275-.277.598-.353.97a6.25 6.25 0 0 0-.113 1.237v1.516c0 .452.038.865.113 1.237.076.372.193.696.353.97.16.275.368.488.625.639.257.15.567.226.93.226zm7.979.97c-1.108 0-1.917-.42-2.427-1.263-.51-.842-.764-2.02-.764-3.537 0-1.516.254-2.695.764-3.537.51-.842 1.319-1.263 2.427-1.263s1.917.421 2.427 1.263c.51.842.764 2.021.764 3.537s-.255 2.695-.764 3.537c-.51.843-1.319 1.264-2.427 1.264zm0-.97c.363 0 .674-.075.93-.226.258-.15.466-.364.626-.638.16-.275.277-.599.352-.971a6.25 6.25 0 0 0 .113-1.237v-1.516a6.25 6.25 0 0 0-.113-1.236 3.176 3.176 0 0 0-.352-.971 1.728 1.728 0 0 0-.625-.638c-.257-.151-.568-.226-.931-.226-.364 0-.674.075-.931.226-.257.15-.465.363-.625.638-.16.275-.277.598-.352.97a6.25 6.25 0 0 0-.113 1.237v1.516c0 .452.037.865.113 1.237.075.372.193.696.352.97.16.275.368.488.625.639.257.15.567.226.93.226zm7.978.97c-1.108 0-1.917-.42-2.427-1.263-.51-.842-.764-2.02-.764-3.537 0-1.516.255-2.695.764-3.537.51-.842 1.32-1.263 2.427-1.263 1.108 0 1.917.421 2.427 1.263.51.842.765 2.021.765 3.537s-.255 2.695-.765 3.537c-.51.843-1.319 1.264-2.427 1.264zm0-.97c.364 0 .674-.075.931-.226.257-.15.465-.364.625-.638.16-.275.277-.599.352-.971a6.25 6.25 0 0 0 .113-1.237v-1.516a6.25 6.25 0 0 0-.113-1.236 3.176 3.176 0 0 0-.352-.971 1.728 1.728 0 0 0-.625-.638c-.257-.151-.567-.226-.93-.226-.364 0-.674.075-.932.226-.257.15-.465.363-.625.638-.16.275-.277.598-.352.97a6.25 6.25 0 0 0-.113 1.237v1.516c0 .452.038.865.113 1.237.075.372.193.696.352.97.16.275.368.488.625.639.258.15.568.226.931.226zM94.23 127.027h-6.091v-1.144l3.032-2.792a6.722 6.722 0 0 0 1.09-1.27c.293-.448.439-.897.439-1.35v-.16c0-.513-.142-.93-.426-1.25-.283-.318-.713-.478-1.29-.478-.283 0-.531.04-.744.12-.213.08-.397.19-.552.332a1.855 1.855 0 0 0-.386.499 3.05 3.05 0 0 0-.246.618l-.997-.385c.089-.275.21-.543.366-.805.155-.261.35-.494.585-.698.235-.204.518-.368.85-.492.333-.124.726-.186 1.178-.186.452 0 .855.066 1.21.2.354.132.651.319.89.558.24.24.424.523.553.85.128.329.192.692.192 1.091 0 .364-.05.7-.153 1.01-.102.311-.241.606-.418.885-.178.28-.393.552-.645.818-.253.266-.526.532-.818.798l-2.5 2.247h4.88v.984zm4.88.16c-1.109 0-1.918-.421-2.428-1.264-.51-.842-.764-2.02-.764-3.537 0-1.516.255-2.695.764-3.537.51-.842 1.319-1.263 2.427-1.263s1.917.421 2.427 1.263c.51.842.765 2.021.765 3.537s-.255 2.695-.765 3.537c-.51.843-1.319 1.264-2.427 1.264zm0-.971c.363 0 .673-.075.93-.226.257-.15.465-.364.625-.638.16-.275.277-.599.352-.971a6.25 6.25 0 0 0 .113-1.237v-1.516a6.25 6.25 0 0 0-.113-1.236 3.176 3.176 0 0 0-.352-.971 1.728 1.728 0 0 0-.625-.638c-.257-.151-.567-.226-.93-.226-.364 0-.675.075-.932.226-.257.15-.465.363-.625.638-.16.275-.277.598-.352.97a6.25 6.25 0 0 0-.113 1.237v1.516c0 .452.038.865.113 1.237.075.372.193.696.352.97.16.275.368.488.625.639.257.15.568.226.931.226zm7.978.97c-1.109 0-1.917-.42-2.427-1.263-.51-.842-.765-2.02-.765-3.537 0-1.516.255-2.695.765-3.537.51-.842 1.318-1.263 2.427-1.263 1.108 0 1.917.421 2.426 1.263.51.842.765 2.021.765 3.537s-.255 2.695-.765 3.537c-.51.843-1.318 1.264-2.426 1.264zm0-.97c.363 0 .673-.075.93-.226.257-.15.466-.364.625-.638.16-.275.277-.599.353-.971a6.25 6.25 0 0 0 .113-1.237v-1.516a6.25 6.25 0 0 0-.113-1.236 3.176 3.176 0 0 0-.353-.971 1.728 1.728 0 0 0-.625-.638c-.257-.151-.567-.226-.93-.226-.364 0-.674.075-.931.226-.257.15-.466.363-.625.638-.16.275-.277.598-.353.97a6.25 6.25 0 0 0-.113 1.237v1.516c0 .452.038.865.113 1.237.076.372.193.696.353.97.16.275.368.488.625.639.257.15.567.226.93.226zm10.61-7.486h-4.068l-.266 3.537h.093c.222-.31.472-.559.751-.745.28-.186.663-.28 1.15-.28.4 0 .767.067 1.104.2a2.6 2.6 0 0 1 .878.565c.248.244.44.543.578.898.138.354.206.758.206 1.21 0 .452-.07.866-.212 1.243-.142.377-.348.7-.619.97-.27.271-.598.482-.984.633-.385.15-.822.226-1.31.226-.39 0-.733-.045-1.03-.133a3.01 3.01 0 0 1-.791-.36 3.24 3.24 0 0 1-.605-.505 5.346 5.346 0 0 1-.472-.585l.837-.638c.116.186.237.355.366.505.129.15.27.28.426.386.155.106.334.188.538.246.204.057.448.086.731.086.639 0 1.122-.168 1.45-.505.328-.337.492-.811.492-1.423v-.133c0-.611-.164-1.086-.492-1.423-.328-.336-.811-.505-1.45-.505-.425 0-.76.078-1.004.233-.243.155-.463.339-.658.552l-.944-.133.333-5.106h4.973v.984zM161.942 127.027h-6.09v-1.144l3.031-2.792a6.722 6.722 0 0 0 1.09-1.27c.293-.448.44-.897.44-1.35v-.16c0-.513-.142-.93-.426-1.25-.284-.318-.714-.478-1.29-.478-.283 0-.532.04-.744.12-.213.08-.397.19-.552.332a1.855 1.855 0 0 0-.386.499 3.05 3.05 0 0 0-.246.618l-.997-.385c.088-.275.21-.543.365-.805.156-.261.35-.494.586-.698.234-.204.518-.368.85-.492.333-.124.725-.186 1.177-.186.453 0 .856.066 1.21.2.355.132.652.319.891.558.24.24.424.523.552.85.129.329.193.692.193 1.091 0 .364-.051.7-.153 1.01-.102.311-.241.606-.419.885-.177.28-.392.552-.645.818-.252.266-.525.532-.817.798l-2.5 2.247h4.88v.984zm4.88.16c-1.108 0-1.917-.421-2.427-1.264-.51-.842-.764-2.02-.764-3.537 0-1.516.254-2.695.764-3.537.51-.842 1.319-1.263 2.427-1.263s1.917.421 2.427 1.263c.51.842.764 2.021.764 3.537s-.255 2.695-.764 3.537c-.51.843-1.319 1.264-2.427 1.264zm0-.971c.363 0 .674-.075.93-.226.258-.15.466-.364.626-.638.16-.275.277-.599.352-.971a6.25 6.25 0 0 0 .113-1.237v-1.516a6.25 6.25 0 0 0-.113-1.236 3.176 3.176 0 0 0-.352-.971 1.728 1.728 0 0 0-.625-.638c-.257-.151-.568-.226-.931-.226-.364 0-.674.075-.931.226-.257.15-.465.363-.625.638-.16.275-.277.598-.352.97a6.25 6.25 0 0 0-.113 1.237v1.516c0 .452.037.865.113 1.237.075.372.193.696.352.97.16.275.368.488.625.639.257.15.567.226.93.226zm5.16.811v-.984h2.592v-7.473h-.093l-2.34 2.18-.652-.704 2.46-2.3h1.742v8.297h2.394v.984h-6.104zm10.797.16c-1.108 0-1.917-.421-2.427-1.264-.51-.842-.765-2.02-.765-3.537 0-1.516.255-2.695.765-3.537.51-.842 1.319-1.263 2.427-1.263s1.917.421 2.426 1.263c.51.842.765 2.021.765 3.537s-.255 2.695-.765 3.537c-.51.843-1.318 1.264-2.426 1.264zm0-.971c.363 0 .673-.075.93-.226.258-.15.466-.364.625-.638.16-.275.277-.599.353-.971a6.25 6.25 0 0 0 .113-1.237v-1.516a6.25 6.25 0 0 0-.113-1.236 3.176 3.176 0 0 0-.353-.971 1.728 1.728 0 0 0-.625-.638c-.257-.151-.567-.226-.93-.226-.364 0-.674.075-.931.226-.257.15-.466.363-.625.638-.16.275-.277.598-.353.97a6.25 6.25 0 0 0-.113 1.237v1.516c0 .452.038.865.113 1.237.076.372.193.696.353.97.16.275.368.488.625.639.257.15.567.226.93.226zM228.182 127.027h-6.09v-1.144l3.032-2.792a6.722 6.722 0 0 0 1.09-1.27c.293-.448.44-.897.44-1.35v-.16c0-.513-.143-.93-.426-1.25-.284-.318-.714-.478-1.29-.478-.284 0-.532.04-.745.12-.213.08-.396.19-.552.332a1.855 1.855 0 0 0-.385.499 3.05 3.05 0 0 0-.246.618l-.998-.385c.09-.275.211-.543.366-.805.155-.261.35-.494.585-.698.235-.204.519-.368.851-.492.333-.124.725-.186 1.177-.186.452 0 .856.066 1.21.2.355.132.652.319.891.558.24.24.423.523.552.85.128.329.193.692.193 1.091 0 .364-.051.7-.153 1.01-.102.311-.242.606-.42.885-.176.28-.391.552-.644.818-.253.266-.525.532-.818.798l-2.5 2.247h4.88v.984zm4.88.16c-1.108 0-1.916-.421-2.426-1.264-.51-.842-.765-2.02-.765-3.537 0-1.516.255-2.695.765-3.537.51-.842 1.318-1.263 2.427-1.263 1.108 0 1.917.421 2.426 1.263.51.842.765 2.021.765 3.537s-.255 2.695-.765 3.537c-.51.843-1.318 1.264-2.426 1.264zm0-.971c.364 0 .674-.075.931-.226.257-.15.466-.364.625-.638.16-.275.277-.599.353-.971a6.25 6.25 0 0 0 .113-1.237v-1.516a6.25 6.25 0 0 0-.113-1.236 3.176 3.176 0 0 0-.353-.971 1.728 1.728 0 0 0-.625-.638c-.257-.151-.567-.226-.93-.226-.364 0-.674.075-.931.226-.257.15-.466.363-.625.638-.16.275-.277.598-.353.97a6.25 6.25 0 0 0-.113 1.237v1.516c0 .452.038.865.113 1.237.076.372.193.696.353.97.16.275.368.488.625.639.257.15.567.226.93.226zm5.16.811v-.984h2.593v-7.473h-.093l-2.34 2.18-.652-.704 2.46-2.3h1.742v8.297h2.393v.984h-6.103zm13.43-8.297h-4.069l-.266 3.537h.093c.222-.31.472-.559.752-.745.279-.186.662-.28 1.15-.28.399 0 .767.067 1.104.2a2.6 2.6 0 0 1 .877.565c.248.244.441.543.579.898.137.354.206.758.206 1.21 0 .452-.071.866-.213 1.243-.142.377-.348.7-.618.97-.27.271-.599.482-.984.633-.386.15-.823.226-1.31.226-.39 0-.734-.045-1.03-.133a3.01 3.01 0 0 1-.792-.36 3.24 3.24 0 0 1-.605-.505 5.346 5.346 0 0 1-.472-.585l.838-.638c.115.186.237.355.365.505.129.15.27.28.426.386.155.106.335.188.538.246.204.057.448.086.732.086.638 0 1.121-.168 1.45-.505.327-.337.491-.811.491-1.423v-.133c0-.611-.164-1.086-.492-1.423-.328-.336-.81-.505-1.45-.505-.425 0-.76.078-1.003.233-.244.155-.463.339-.658.552l-.944-.133.332-5.106h4.973v.984zM294.423 127.027h-6.09v-1.144l3.032-2.792a6.722 6.722 0 0 0 1.09-1.27c.293-.448.439-.897.439-1.35v-.16c0-.513-.142-.93-.426-1.25-.283-.318-.713-.478-1.29-.478-.283 0-.531.04-.744.12-.213.08-.397.19-.552.332a1.855 1.855 0 0 0-.386.499 3.05 3.05 0 0 0-.246.618l-.997-.385c.089-.275.21-.543.366-.805.155-.261.35-.494.585-.698.235-.204.519-.368.851-.492.332-.124.725-.186 1.177-.186.452 0 .855.066 1.21.2.354.132.651.319.89.558.24.24.424.523.553.85.128.329.192.692.192 1.091 0 .364-.05.7-.153 1.01-.101.311-.241.606-.418.885-.178.28-.393.552-.645.818-.253.266-.526.532-.818.798l-2.5 2.247h4.88v.984zm4.88.16c-1.108 0-1.917-.421-2.427-1.264-.51-.842-.764-2.02-.764-3.537 0-1.516.255-2.695.764-3.537.51-.842 1.32-1.263 2.427-1.263 1.108 0 1.917.421 2.427 1.263.51.842.765 2.021.765 3.537s-.255 2.695-.765 3.537c-.51.843-1.319 1.264-2.427 1.264zm0-.971c.364 0 .674-.075.931-.226.257-.15.465-.364.625-.638.16-.275.277-.599.352-.971a6.25 6.25 0 0 0 .113-1.237v-1.516a6.25 6.25 0 0 0-.113-1.236 3.176 3.176 0 0 0-.352-.971 1.728 1.728 0 0 0-.625-.638c-.257-.151-.567-.226-.93-.226-.364 0-.675.075-.932.226-.257.15-.465.363-.625.638-.16.275-.277.598-.352.97a6.25 6.25 0 0 0-.113 1.237v1.516c0 .452.038.865.113 1.237.075.372.193.696.352.97.16.275.368.488.625.639.257.15.568.226.931.226zm5.16.811v-.984h2.593v-7.473h-.094l-2.34 2.18-.651-.704 2.46-2.3h1.742v8.297h2.393v.984h-6.103zm10.797.16c-.532 0-.997-.07-1.396-.207a2.937 2.937 0 0 1-1.004-.565 2.322 2.322 0 0 1-.612-.85 2.725 2.725 0 0 1-.206-1.064c0-.639.173-1.144.519-1.516.345-.373.797-.634 1.356-.785v-.106a2.417 2.417 0 0 1-1.164-.818c-.288-.377-.432-.831-.432-1.363 0-.71.257-1.274.772-1.695.514-.422 1.236-.632 2.167-.632.93 0 1.653.21 2.167.632.515.42.772.986.772 1.695 0 .532-.144.986-.432 1.363-.289.377-.676.65-1.164.818v.106c.558.15 1.01.412 1.356.785.346.372.519.877.519 1.516 0 .38-.069.735-.206 1.063a2.322 2.322 0 0 1-.612.851c-.27.24-.605.428-1.004.565-.399.138-.864.207-1.396.207zm0-.971c.647 0 1.148-.144 1.503-.432.354-.288.531-.698.531-1.23v-.28c0-.531-.177-.941-.531-1.23-.355-.288-.856-.432-1.503-.432-.647 0-1.148.144-1.503.432-.354.289-.532.699-.532 1.23v.28c0 .532.178.942.532 1.23.355.288.856.432 1.503.432zm0-4.534c.585 0 1.028-.125 1.33-.373.301-.248.452-.611.452-1.09v-.2c0-.478-.15-.842-.452-1.09-.302-.248-.745-.372-1.33-.372-.585 0-1.028.124-1.33.372-.301.248-.452.612-.452 1.09v.2c0 .479.15.842.452 1.09.302.248.745.373 1.33.373z"/>
        </g>
        <path fill="#85ACB0" fill-opacity=".202" d="M37.425 106.425c11.323-1.21 64.228-6.448 65.647-6.456 11.68-.072 17.181 1.949 24.98 1.62 9.222-.387 12.142-4.185 19.558-4.871 7.415-.687 47.673.686 65.424-3.195 17.75-3.881 12.526-8.715 19.345-11.5 6.82-2.784 15.943-.135 22.568-4.118 6.625-3.984 3.116-9.066 11.544-12.45 8.428-3.385 13.284-4.652 17.307-8.037 2.163-1.82 3.714-16.571 12.728-36.493 1.444-3.19 3.274-7.743 8.181-13.168l-.397 98.668H37.425z"/>
        <path stroke="#85ACB0" stroke-linecap="round" stroke-width="2.216" d="M36.108 105.303c45-3.98 65.545-5.326 66.964-5.334 11.68-.072 17.181 1.949 24.98 1.62 9.222-.387 12.142-4.185 19.558-4.871 7.415-.687 47.673.686 65.424-3.195 17.75-3.881 12.526-8.715 19.345-11.5 6.82-2.784 15.943-.135 22.568-4.118 6.625-3.984 3.116-9.066 11.544-12.45 8.428-3.385 13.284-4.652 17.307-8.037 2.163-1.82 2.394-12.422 11.408-32.344 1.444-3.19 3.554-8.567 8.461-13.993"/>
        <g stroke-dasharray="3.491" stroke-linecap="round" stroke-linejoin="round">
            <g stroke-width="1.164">
                <path stroke="#85ACB0" d="M303.76 105.215l.55-97.477M236.105 105.215V82.493M170.061 105.215v-8.068"/>
                <path stroke="#393CCC" d="M102.917 105.215v-4.377"/>
            </g>
            <g stroke="#A6A8AB" stroke-opacity=".45" stroke-width="1.108" opacity=".45">
                <path d="M36.347 6.63H303.8M36.347 65.36H303.8M36.347 36.548H303.8M36.347 95.278H303.8"/>
            </g>
        </g>
        <g fill="#85ACB0" transform="translate(33.48 7.757)">
            <ellipse cx="3.945" cy="97.514" fill-rule="nonzero" rx="3.302" ry="3.324"/>
            <ellipse cx="69.438" cy="91.973" fill-rule="nonzero" rx="3.302" ry="3.324"/>
            <ellipse cx="136.582" cy="88.649" fill-rule="nonzero" rx="3.302" ry="3.324"/>
            <ellipse cx="202.625" cy="73.135" fill-rule="nonzero" rx="3.302" ry="3.324"/>
            <ellipse cx="270.239" cy="3.324" rx="3.302" ry="3.324"/>
        </g>
    </g>
</svg>
