<svg xmlns="http://www.w3.org/2000/svg" width="328" height="132" viewBox="0 0 328 132" aria-labelledby="trade-last-month-icon-title">
    <title id='trade-last-month-icon-title'>Trade last month icon</title>
    <g fill="none" fill-rule="evenodd">
        <g fill="#85ACB0" fill-rule="nonzero">
            <path d="M11.92 90.12H8.867l-.2 2.654h.07a2.19 2.19 0 0 1 .563-.559c.21-.14.497-.21.863-.21.3 0 .575.05.828.15.252.1.472.241.658.424.186.183.33.407.434.673.103.266.154.569.154.908 0 .339-.053.65-.16.932a2.023 2.023 0 0 1-1.2 1.202c-.29.113-.618.17-.983.17-.293 0-.55-.034-.773-.1a2.257 2.257 0 0 1-.594-.27 2.43 2.43 0 0 1-.453-.378 4.01 4.01 0 0 1-.354-.44l.628-.478c.086.14.178.266.274.379.097.113.203.21.32.29.116.079.25.14.403.184.153.043.336.065.549.065.478 0 .84-.127 1.087-.38.246-.252.369-.608.369-1.067v-.1c0-.458-.123-.814-.37-1.066-.245-.253-.608-.38-1.086-.38-.32 0-.57.059-.753.175a2.454 2.454 0 0 0-.494.414l-.708-.1.25-3.83h3.73v.739zm4.008 6.344c-.83 0-1.437-.316-1.82-.948-.382-.632-.573-1.516-.573-2.653s.191-2.02.573-2.653c.383-.631.99-.947 1.82-.947.832 0 1.438.316 1.82.947.383.632.574 1.516.574 2.653s-.191 2.021-.573 2.653c-.383.632-.99.948-1.82.948zm0-.728c.273 0 .506-.057.699-.17.192-.113.349-.273.468-.479.12-.206.208-.449.265-.728.056-.279.084-.588.084-.927v-1.137c0-.34-.028-.648-.084-.928a2.382 2.382 0 0 0-.265-.728 1.296 1.296 0 0 0-.468-.478 1.358 1.358 0 0 0-.699-.17c-.272 0-.505.057-.698.17-.192.113-.349.272-.468.478-.12.206-.208.45-.265.728-.056.28-.084.589-.084.928v1.137c0 .339.028.648.084.927.057.28.145.522.265.728.12.206.276.366.468.479.193.113.426.17.698.17zm5.984.728c-.83 0-1.438-.316-1.82-.948-.382-.632-.573-1.516-.573-2.653s.19-2.02.573-2.653c.382-.631.99-.947 1.82-.947.831 0 1.438.316 1.82.947.383.632.574 1.516.574 2.653s-.191 2.021-.574 2.653c-.382.632-.989.948-1.82.948zm0-.728c.273 0 .506-.057.698-.17.193-.113.35-.273.47-.479.119-.206.207-.449.263-.728.057-.279.085-.588.085-.927v-1.137c0-.34-.028-.648-.085-.928a2.382 2.382 0 0 0-.264-.728 1.296 1.296 0 0 0-.469-.478 1.358 1.358 0 0 0-.698-.17c-.272 0-.505.057-.698.17-.193.113-.349.272-.469.478-.12.206-.207.45-.264.728-.056.28-.085.589-.085.928v1.137c0 .339.029.648.085.927.057.28.145.522.264.728.12.206.276.366.47.479.192.113.425.17.697.17zm5.745-2.813l-.988 1.097v2.324h-.837v-6.961h.837v3.7h.03l.998-1.207 2.104-2.493h1.027l-2.593 2.982 2.773 3.979H29.97l-2.313-3.42zM17.636 68.641v-.738h1.944v-5.605h-.07l-1.755 1.636-.488-.529 1.845-1.725h1.306v6.223h1.795v.738h-4.577zm11.459-5.864h-.05l-.589 1.167-1.665 3.032-1.666-3.032-.588-1.167h-.05v5.864h-.818V61.68h1.117l1.995 3.75h.05l2.004-3.75h1.077v6.961h-.817v-5.864zM8.94 39.83v-.738h1.944v-5.604h-.07l-1.755 1.635-.489-.528 1.845-1.726h1.307v6.223h1.795v.738H8.939zm6.462.12c-.213 0-.368-.053-.464-.16a.6.6 0 0 1-.145-.418v-.13a.6.6 0 0 1 .145-.419c.096-.106.25-.16.464-.16.212 0 .367.054.463.16a.6.6 0 0 1 .145.419v.13a.6.6 0 0 1-.145.418c-.096.107-.25.16-.463.16zm6.322-6.343h-3.051l-.2 2.653h.07a2.19 2.19 0 0 1 .564-.558c.209-.14.497-.21.862-.21.3 0 .575.05.828.15a1.882 1.882 0 0 1 1.092 1.097c.103.266.155.568.155.907 0 .34-.054.65-.16.933a2.023 2.023 0 0 1-1.202 1.201c-.289.114-.616.17-.982.17-.293 0-.55-.033-.773-.1a2.257 2.257 0 0 1-.593-.269 2.43 2.43 0 0 1-.454-.379 4.01 4.01 0 0 1-.354-.439l.628-.478c.087.14.178.265.274.379.097.113.203.209.32.289.116.08.25.141.403.184.153.043.336.065.549.065.479 0 .841-.126 1.087-.379s.369-.608.369-1.067v-.1c0-.459-.123-.814-.369-1.067s-.608-.379-1.087-.379c-.32 0-.57.058-.753.175a2.454 2.454 0 0 0-.494.414l-.708-.1.25-3.83h3.73v.738zm7.37.36h-.05l-.588 1.166-1.665 3.032-1.666-3.032-.588-1.167h-.05v5.864h-.818v-6.96h1.117l1.995 3.75h.05l2.004-3.75h1.077v6.96h-.817v-5.864zM16.09 11.02h-4.568v-.858l2.274-2.094c.326-.3.598-.617.818-.953.22-.336.329-.673.329-1.012v-.12c0-.385-.107-.698-.32-.937-.212-.24-.534-.36-.967-.36-.212 0-.399.03-.558.09-.16.06-.298.143-.414.25a1.392 1.392 0 0 0-.29.374 2.287 2.287 0 0 0-.184.464l-.748-.29c.067-.206.158-.407.275-.603.116-.196.262-.37.438-.524.177-.153.39-.276.639-.369.249-.093.543-.14.882-.14.34 0 .642.05.908.15.266.1.488.24.668.42.18.179.317.391.414.637.096.246.144.52.144.818 0 .273-.038.525-.114.758a2.952 2.952 0 0 1-.314.663 4.03 4.03 0 0 1-.484.614c-.19.2-.394.399-.613.598l-1.875 1.686h3.66v.738zm3.66.12c-.831 0-1.438-.317-1.82-.948-.383-.632-.574-1.516-.574-2.653s.191-2.021.574-2.653c.382-.631.989-.947 1.82-.947.83 0 1.438.316 1.82.947.382.632.573 1.516.573 2.653s-.19 2.021-.573 2.653c-.382.631-.99.947-1.82.947zm0-.729c.272 0 .505-.056.698-.17.193-.112.349-.272.469-.478.12-.206.207-.449.264-.728.056-.28.085-.588.085-.928V6.971c0-.34-.029-.649-.085-.928a2.382 2.382 0 0 0-.264-.728 1.296 1.296 0 0 0-.47-.479 1.358 1.358 0 0 0-.697-.17c-.273 0-.505.057-.698.17-.193.113-.35.273-.469.479-.12.206-.208.449-.264.728-.057.28-.085.588-.085.928v1.136c0 .34.028.649.085.928.056.28.144.522.264.728.12.206.276.366.469.479.193.113.425.17.698.17zm9.345-5.256h-.05l-.589 1.167-1.665 3.032-1.666-3.032-.588-1.167h-.05v5.865h-.818V4.058h1.117l1.995 3.75h.05l2.004-3.75h1.077v6.962h-.817V5.155z"/>
        </g>
        <path fill="#85ACB0" fill-opacity=".2" d="M40.392 105.407c46.057-.701 128.79-5.274 136.009-5.975 7.219-.702 17.162-.264 34.442-4.23 17.28-3.967 10.44-11.015 17.61-13.676 11.342-4.21 17.69-36.786 26.237-36.786 8.547 0 2.087 4.195 10.326 3.745 5.447-.297 8.434-20.596 12.28-20.596 3.844 0 2.762 5.801 7.735 5.801 10.796 0 14.203-19.61 18.213-28.259l.873 99.976H40.392z"/>
        <path stroke="#85ACB0" stroke-linecap="round" stroke-width="2.216" d="M38.212 103.975c46.057-.701 130.97-3.842 138.189-4.543 7.219-.702 17.162-.264 34.442-4.23 17.28-3.967 10.44-11.015 17.61-13.676 11.342-4.21 17.69-36.786 26.237-36.786 8.547 0 2.087 4.195 10.326 3.745 5.447-.297 8.434-20.596 12.28-20.596 3.844 0 2.762 5.801 7.735 5.801 10.796 0 14.601-19.432 18.611-28.081"/>
        <g fill="#85ACB0" fill-rule="nonzero">
            <path d="M31.523 127.733h-6.09v-1.144l3.032-2.792a6.722 6.722 0 0 0 1.09-1.27c.293-.448.439-.898.439-1.35v-.16c0-.513-.142-.93-.426-1.25-.283-.318-.713-.478-1.29-.478-.283 0-.531.04-.744.12-.213.08-.397.19-.552.332a1.855 1.855 0 0 0-.386.499 3.05 3.05 0 0 0-.246.618l-.997-.385c.089-.275.21-.543.366-.805.155-.261.35-.494.585-.698.235-.204.518-.368.85-.492.333-.124.726-.186 1.178-.186.452 0 .855.066 1.21.2.354.132.651.318.89.558.24.24.424.523.553.85.128.329.192.692.192 1.091 0 .364-.05.7-.153 1.01-.102.311-.241.606-.418.885-.178.28-.393.552-.645.818-.253.266-.526.532-.818.798l-2.5 2.247h4.88v.984zm4.88.16c-1.108 0-1.917-.422-2.427-1.264-.51-.842-.764-2.021-.764-3.537s.255-2.695.764-3.537c.51-.842 1.319-1.263 2.427-1.263s1.917.42 2.427 1.263c.51.842.765 2.021.765 3.537s-.255 2.695-.765 3.537c-.51.842-1.319 1.263-2.427 1.263zm0-.971c.364 0 .674-.076.931-.226.257-.151.465-.364.625-.639.16-.274.277-.598.352-.97a6.25 6.25 0 0 0 .113-1.237v-1.516a6.25 6.25 0 0 0-.113-1.237 3.176 3.176 0 0 0-.352-.97 1.728 1.728 0 0 0-.625-.638c-.257-.151-.567-.227-.93-.227-.364 0-.675.076-.932.227-.257.15-.465.363-.625.638-.16.275-.277.598-.352.97a6.25 6.25 0 0 0-.113 1.237v1.516c0 .452.038.864.113 1.237.075.372.193.696.352.97.16.275.368.488.625.639.257.15.568.226.931.226zm7.979.97c-1.109 0-1.917-.42-2.427-1.263-.51-.842-.765-2.021-.765-3.537s.255-2.695.765-3.537c.51-.842 1.318-1.263 2.427-1.263 1.108 0 1.917.42 2.426 1.263.51.842.765 2.021.765 3.537s-.255 2.695-.765 3.537c-.51.842-1.318 1.263-2.426 1.263zm0-.97c.363 0 .673-.076.93-.226.257-.151.466-.364.625-.639.16-.274.277-.598.353-.97a6.25 6.25 0 0 0 .113-1.237v-1.516a6.25 6.25 0 0 0-.113-1.237 3.176 3.176 0 0 0-.353-.97 1.728 1.728 0 0 0-.625-.638c-.257-.151-.567-.227-.93-.227-.364 0-.674.076-.931.227-.257.15-.466.363-.625.638-.16.275-.277.598-.353.97a6.25 6.25 0 0 0-.113 1.237v1.516c0 .452.038.864.113 1.237.076.372.193.696.353.97.16.275.368.488.625.639.257.15.567.226.93.226zm7.978.97c-1.108 0-1.917-.42-2.427-1.263-.51-.842-.764-2.021-.764-3.537s.254-2.695.764-3.537c.51-.842 1.319-1.263 2.427-1.263s1.917.42 2.427 1.263c.51.842.764 2.021.764 3.537s-.255 2.695-.764 3.537c-.51.842-1.319 1.263-2.427 1.263zm0-.97c.363 0 .674-.076.93-.226.258-.151.466-.364.626-.639.16-.274.277-.598.352-.97a6.25 6.25 0 0 0 .113-1.237v-1.516a6.25 6.25 0 0 0-.113-1.237 3.176 3.176 0 0 0-.352-.97 1.728 1.728 0 0 0-.625-.638c-.257-.151-.568-.227-.931-.227-.364 0-.674.076-.93.227-.258.15-.466.363-.626.638-.16.275-.277.598-.352.97a6.25 6.25 0 0 0-.113 1.237v1.516c0 .452.037.864.113 1.237.075.372.193.696.352.97.16.275.368.488.625.639.257.15.567.226.93.226zM92.473 127.733h-6.09v-1.144l3.032-2.792a6.722 6.722 0 0 0 1.09-1.27c.293-.448.439-.898.439-1.35v-.16c0-.513-.142-.93-.426-1.25-.283-.318-.713-.478-1.29-.478-.283 0-.531.04-.744.12-.213.08-.397.19-.552.332a1.855 1.855 0 0 0-.386.499 3.05 3.05 0 0 0-.246.618l-.997-.385c.089-.275.21-.543.366-.805.155-.261.35-.494.585-.698.235-.204.519-.368.851-.492.332-.124.725-.186 1.177-.186.452 0 .855.066 1.21.2.354.132.651.318.89.558.24.24.424.523.553.85.128.329.192.692.192 1.091 0 .364-.05.7-.153 1.01-.101.311-.241.606-.418.885-.178.28-.393.552-.645.818-.253.266-.526.532-.818.798l-2.5 2.247h4.88v.984zm4.88.16c-1.108 0-1.917-.422-2.427-1.264-.51-.842-.764-2.021-.764-3.537s.255-2.695.764-3.537c.51-.842 1.32-1.263 2.427-1.263 1.108 0 1.917.42 2.427 1.263.51.842.765 2.021.765 3.537s-.255 2.695-.765 3.537c-.51.842-1.319 1.263-2.427 1.263zm0-.971c.364 0 .674-.076.931-.226.257-.151.465-.364.625-.639.16-.274.277-.598.352-.97a6.25 6.25 0 0 0 .113-1.237v-1.516a6.25 6.25 0 0 0-.113-1.237 3.176 3.176 0 0 0-.352-.97 1.728 1.728 0 0 0-.625-.638c-.257-.151-.567-.227-.93-.227-.364 0-.674.076-.932.227-.257.15-.465.363-.625.638-.16.275-.277.598-.352.97a6.25 6.25 0 0 0-.113 1.237v1.516c0 .452.038.864.113 1.237.075.372.193.696.352.97.16.275.368.488.625.639.258.15.568.226.931.226zm7.979.97c-1.109 0-1.917-.42-2.427-1.263-.51-.842-.765-2.021-.765-3.537s.255-2.695.765-3.537c.51-.842 1.318-1.263 2.427-1.263 1.108 0 1.917.42 2.426 1.263.51.842.765 2.021.765 3.537s-.255 2.695-.765 3.537c-.51.842-1.318 1.263-2.426 1.263zm0-.97c.363 0 .673-.076.93-.226.258-.151.466-.364.625-.639.16-.274.277-.598.353-.97a6.25 6.25 0 0 0 .113-1.237v-1.516a6.25 6.25 0 0 0-.113-1.237 3.176 3.176 0 0 0-.353-.97 1.728 1.728 0 0 0-.625-.638c-.257-.151-.567-.227-.93-.227-.364 0-.674.076-.931.227-.257.15-.466.363-.625.638-.16.275-.277.598-.353.97a6.25 6.25 0 0 0-.113 1.237v1.516c0 .452.038.864.113 1.237.076.372.193.696.353.97.16.275.368.488.625.639.257.15.567.226.93.226zm10.61-7.487h-4.068l-.266 3.537h.093c.222-.31.472-.558.751-.744.28-.186.663-.28 1.15-.28.4 0 .767.067 1.104.2a2.6 2.6 0 0 1 .878.565c.248.244.44.543.578.898.138.354.206.758.206 1.21 0 .452-.07.866-.212 1.243-.142.377-.348.7-.619.97-.27.271-.598.482-.984.632-.385.151-.822.226-1.31.226-.39 0-.733-.044-1.03-.133a3.01 3.01 0 0 1-.791-.359 3.24 3.24 0 0 1-.605-.505 5.346 5.346 0 0 1-.472-.585l.837-.638c.116.186.238.354.366.505.129.15.27.28.426.386.155.106.334.188.538.246.204.057.448.086.732.086.638 0 1.12-.168 1.449-.505.328-.337.492-.811.492-1.423v-.133c0-.612-.164-1.086-.492-1.423-.328-.337-.811-.505-1.45-.505-.425 0-.76.077-1.003.233-.244.155-.464.339-.659.551l-.944-.133.333-5.106h4.973v.984zM161.18 127.733h-6.09v-1.144l3.032-2.792a6.722 6.722 0 0 0 1.09-1.27c.293-.448.44-.898.44-1.35v-.16c0-.513-.143-.93-.426-1.25-.284-.318-.714-.478-1.29-.478-.284 0-.532.04-.745.12-.212.08-.396.19-.552.332a1.855 1.855 0 0 0-.385.499 3.05 3.05 0 0 0-.246.618l-.997-.385c.088-.275.21-.543.365-.805.155-.261.35-.494.585-.698.235-.204.519-.368.851-.492.333-.124.725-.186 1.177-.186.452 0 .856.066 1.21.2.355.132.652.318.891.558.24.24.423.523.552.85.128.329.193.692.193 1.091 0 .364-.051.7-.153 1.01-.102.311-.242.606-.419.885-.177.28-.392.552-.645.818-.253.266-.525.532-.818.798l-2.5 2.247h4.88v.984zm4.88.16c-1.108 0-1.916-.422-2.426-1.264-.51-.842-.765-2.021-.765-3.537s.255-2.695.765-3.537c.51-.842 1.318-1.263 2.427-1.263 1.108 0 1.917.42 2.426 1.263.51.842.765 2.021.765 3.537s-.255 2.695-.765 3.537c-.51.842-1.318 1.263-2.426 1.263zm0-.971c.364 0 .674-.076.931-.226.257-.151.466-.364.625-.639.16-.274.277-.598.353-.97a6.25 6.25 0 0 0 .113-1.237v-1.516a6.25 6.25 0 0 0-.113-1.237 3.176 3.176 0 0 0-.353-.97 1.728 1.728 0 0 0-.625-.638c-.257-.151-.567-.227-.93-.227-.364 0-.674.076-.931.227-.257.15-.466.363-.625.638-.16.275-.277.598-.353.97a6.25 6.25 0 0 0-.113 1.237v1.516c0 .452.038.864.113 1.237.076.372.193.696.353.97.16.275.368.488.625.639.257.15.567.226.93.226zm5.16.81v-.983h2.593v-7.473h-.093l-2.34 2.18-.652-.704 2.46-2.3h1.742v8.297h2.393v.984h-6.103zm10.797.16c-1.108 0-1.917-.42-2.426-1.263-.51-.842-.765-2.021-.765-3.537s.255-2.695.765-3.537c.51-.842 1.318-1.263 2.426-1.263s1.917.42 2.427 1.263c.51.842.765 2.021.765 3.537s-.255 2.695-.765 3.537c-.51.842-1.319 1.263-2.427 1.263zm0-.97c.364 0 .674-.076.931-.226.257-.151.466-.364.625-.639.16-.274.277-.598.353-.97a6.25 6.25 0 0 0 .113-1.237v-1.516a6.25 6.25 0 0 0-.113-1.237 3.176 3.176 0 0 0-.353-.97 1.728 1.728 0 0 0-.625-.638c-.257-.151-.567-.227-.93-.227-.364 0-.674.076-.931.227-.258.15-.466.363-.625.638-.16.275-.277.598-.353.97a6.25 6.25 0 0 0-.113 1.237v1.516c0 .452.038.864.113 1.237.076.372.193.696.353.97.16.275.367.488.625.639.257.15.567.226.93.226zM227.671 127.733h-6.09v-1.144l3.032-2.792a6.722 6.722 0 0 0 1.09-1.27c.293-.448.44-.898.44-1.35v-.16c0-.513-.143-.93-.426-1.25-.284-.318-.714-.478-1.29-.478-.284 0-.532.04-.745.12-.212.08-.396.19-.552.332a1.855 1.855 0 0 0-.385.499 3.05 3.05 0 0 0-.246.618l-.997-.385c.088-.275.21-.543.365-.805.155-.261.35-.494.585-.698.235-.204.519-.368.851-.492.333-.124.725-.186 1.177-.186.452 0 .856.066 1.21.2.355.132.652.318.891.558.24.24.423.523.552.85.128.329.193.692.193 1.091 0 .364-.051.7-.153 1.01-.102.311-.242.606-.419.885-.177.28-.392.552-.645.818-.253.266-.525.532-.818.798l-2.5 2.247h4.88v.984zm4.88.16c-1.108 0-1.916-.422-2.426-1.264-.51-.842-.765-2.021-.765-3.537s.255-2.695.765-3.537c.51-.842 1.318-1.263 2.427-1.263 1.108 0 1.917.42 2.426 1.263.51.842.765 2.021.765 3.537s-.255 2.695-.765 3.537c-.51.842-1.318 1.263-2.426 1.263zm0-.971c.364 0 .674-.076.931-.226.257-.151.466-.364.625-.639.16-.274.277-.598.353-.97a6.25 6.25 0 0 0 .113-1.237v-1.516a6.25 6.25 0 0 0-.113-1.237 3.176 3.176 0 0 0-.353-.97 1.728 1.728 0 0 0-.625-.638c-.257-.151-.567-.227-.93-.227-.364 0-.674.076-.931.227-.257.15-.466.363-.625.638-.16.275-.277.598-.353.97a6.25 6.25 0 0 0-.113 1.237v1.516c0 .452.038.864.113 1.237.076.372.193.696.353.97.16.275.368.488.625.639.257.15.567.226.93.226zm5.16.81v-.983h2.593v-7.473h-.093l-2.34 2.18-.652-.704 2.46-2.3h1.742v8.297h2.393v.984h-6.103zm13.43-8.297h-4.069l-.266 3.537h.093c.222-.31.472-.558.752-.744.279-.186.662-.28 1.15-.28.399 0 .767.067 1.104.2a2.6 2.6 0 0 1 .877.565c.248.244.441.543.579.898.137.354.206.758.206 1.21 0 .452-.071.866-.213 1.243-.142.377-.348.7-.618.97-.27.271-.599.482-.984.632-.386.151-.823.226-1.31.226-.39 0-.734-.044-1.03-.133a3.01 3.01 0 0 1-.792-.359 3.24 3.24 0 0 1-.605-.505 5.346 5.346 0 0 1-.472-.585l.838-.638c.115.186.237.354.365.505.129.15.27.28.426.386.155.106.335.188.539.246.203.057.447.086.73.086.64 0 1.122-.168 1.45-.505.328-.337.492-.811.492-1.423v-.133c0-.612-.164-1.086-.492-1.423-.328-.337-.81-.505-1.45-.505-.425 0-.76.077-1.003.233-.244.155-.463.339-.658.551l-.944-.133.332-5.106h4.973v.984zM294.162 127.733h-6.09v-1.144l3.032-2.792a6.722 6.722 0 0 0 1.09-1.27c.293-.448.44-.898.44-1.35v-.16c0-.513-.143-.93-.426-1.25-.284-.318-.714-.478-1.29-.478-.284 0-.532.04-.745.12-.212.08-.396.19-.552.332a1.855 1.855 0 0 0-.385.499 3.05 3.05 0 0 0-.246.618l-.997-.385c.088-.275.21-.543.365-.805.155-.261.35-.494.585-.698.235-.204.519-.368.851-.492.333-.124.725-.186 1.177-.186.452 0 .856.066 1.21.2.355.132.652.318.891.558.24.24.423.523.552.85.128.329.193.692.193 1.091 0 .364-.051.7-.153 1.01-.102.311-.242.606-.419.885-.177.28-.392.552-.645.818-.253.266-.525.532-.818.798l-2.5 2.247h4.88v.984zm4.88.16c-1.108 0-1.916-.422-2.426-1.264-.51-.842-.765-2.021-.765-3.537s.255-2.695.765-3.537c.51-.842 1.318-1.263 2.427-1.263 1.108 0 1.917.42 2.426 1.263.51.842.765 2.021.765 3.537s-.255 2.695-.765 3.537c-.51.842-1.318 1.263-2.426 1.263zm0-.971c.364 0 .674-.076.931-.226.257-.151.466-.364.625-.639.16-.274.277-.598.353-.97a6.25 6.25 0 0 0 .113-1.237v-1.516a6.25 6.25 0 0 0-.113-1.237 3.176 3.176 0 0 0-.353-.97 1.728 1.728 0 0 0-.625-.638c-.257-.151-.567-.227-.93-.227-.364 0-.674.076-.931.227-.257.15-.466.363-.625.638-.16.275-.277.598-.353.97a6.25 6.25 0 0 0-.113 1.237v1.516c0 .452.038.864.113 1.237.076.372.193.696.353.97.16.275.368.488.625.639.257.15.567.226.93.226zm5.16.81v-.983h2.593v-7.473h-.093l-2.34 2.18-.652-.704 2.46-2.3h1.742v8.297h2.393v.984h-6.103zm13.896-5.877a6.08 6.08 0 0 1-.306 1.948 7.372 7.372 0 0 1-.791 1.663c-.324.5-.68.944-1.07 1.33-.39.385-.772.697-1.144.937h-1.437c.497-.364.94-.718 1.33-1.064a8.05 8.05 0 0 0 1.024-1.084c.293-.376.54-.78.745-1.21a7.1 7.1 0 0 0 .492-1.456l-.067-.026a3.044 3.044 0 0 1-.857.95c-.35.253-.81.38-1.377.38a2.98 2.98 0 0 1-1.103-.2 2.416 2.416 0 0 1-.865-.572 2.692 2.692 0 0 1-.565-.897 3.237 3.237 0 0 1-.206-1.19c0-.453.073-.867.22-1.244.146-.377.354-.7.624-.97s.594-.481.971-.632c.377-.15.8-.226 1.27-.226.479 0 .91.082 1.297.246.385.164.713.399.984.705.27.305.476.68.618 1.123.142.443.213.94.213 1.49zm-3.099 1.423c.612 0 1.089-.168 1.43-.505.341-.337.512-.82.512-1.45v-.106c0-.63-.17-1.112-.512-1.45-.341-.336-.818-.505-1.43-.505-.611 0-1.088.169-1.43.506-.34.337-.511.82-.511 1.45v.106c0 .629.17 1.112.512 1.449.341.337.818.505 1.43.505z"/>
        </g>
        <g stroke-linecap="round" stroke-linejoin="round">
            <g stroke="#A6A8AB" stroke-dasharray="3.491" stroke-opacity=".45" stroke-width="1.108" opacity=".446">
                <path d="M38.81 7.805h264.85M38.81 64.319h264.85M38.81 35.508h264.85M38.81 92.022h264.85"/>
            </g>
            <g stroke="#85ACB0">
                <path stroke-dasharray="3.491" stroke-width="1.164" d="M303.088 105.35l.554-97.545"/>
                <path stroke-dasharray="3.191" stroke-width="1.064" d="M236.043 104.62V73.282M169.552 104.62v-4.95"/>
            </g>
        </g>
        <g fill="#85ACB0" transform="translate(36.57 3.354)">
            <ellipse cx="267.072" cy="4.354" rx="3.325" ry="3.324"/>
            <ellipse cx="199.451" cy="70.919" fill-rule="nonzero" rx="3.302" ry="3.324"/>
            <ellipse cx="132.96" cy="96.199" fill-rule="nonzero" rx="3.302" ry="3.324"/>
            <ellipse cx="65.36" cy="98.494" fill-rule="nonzero" rx="3.302" ry="3.324"/>
            <ellipse cx="3.302" cy="99.641" fill-rule="nonzero" rx="3.302" ry="3.324"/>
        </g>
    </g>
</svg>
