<svg xmlns="http://www.w3.org/2000/svg" width="30" height="30"><path fill="#85ACB0" d="M14.775 0C6.615 0 0 6.616 0 14.775c0 8.16 6.615 14.774 14.775 14.774s14.774-6.614 14.774-14.774C29.549 6.616 22.934 0 14.775 0zm7.443 11.796c.007.16.01.32.01.482 0 4.92-3.745 10.593-10.593 10.593A10.543 10.543 0 015.927 21.2c.292.034.588.051.888.051a7.47 7.47 0 004.625-1.593 3.728 3.728 0 01-3.478-2.586 3.7 3.7 0 001.68-.064 3.726 3.726 0 01-2.986-3.651v-.048a3.708 3.708 0 001.687.467 3.722 3.722 0 01-1.656-3.1 3.7 3.7 0 01.504-1.872 10.568 10.568 0 007.674 3.89 3.724 3.724 0 016.346-3.395 7.46 7.46 0 002.364-.904 3.733 3.733 0 01-1.638 2.06 7.444 7.444 0 002.139-.587 7.522 7.522 0 01-1.858 1.929z"/></svg>