<svg xmlns="http://www.w3.org/2000/svg" width="64" height="64"><defs><linearGradient id="a" x1="0%" y1="100%" y2="0%"><stop offset="0%" stop-color="#FF444F"/><stop offset="100%" stop-color="#FF6444"/></linearGradient></defs><g fill="none" fill-rule="evenodd"><path d="M0 0h64v64H0z"/><path fill="url(#a)" d="M29 14a1 1 0 01.117 1.993L29 16H3v39h2V20.008c0-1.054.816-1.917 1.85-1.995l.15-.005L29 18a1 1 0 01.117 1.993L29 20l-21.999.008L7 55h19a1 1 0 01.832.445l1.704 2.556 6.928.01 1.703-2.564A1 1 0 0138 55h19V38a1 1 0 011.993-.117L59 38v17h2V38a1 1 0 011.993-.117L63 38v17a.976.976 0 01-.026.225C63.6 55.547 64 56.187 64 57v5c0 1.182-.847 2-2 2H2c-1.153 0-2-.818-2-2v-5c0-.807.395-1.445 1.013-1.768a.75.75 0 01-.008-.073L1 55V16c0-1.13.765-1.925 1.844-1.995L3 14h26zm-3.535 43H2v5h60v-5H38.536l-1.703 2.566a1 1 0 01-.835.447l-8-.013a1 1 0 01-.83-.445L25.465 57zM48.5 0c7.962 0 14.06 5.919 14.477 15H63a1 1 0 011 1v18a1 1 0 01-1 1H33a1 1 0 01-1-1V16a1 1 0 011-1h2.02c.359-9.24 5.72-15 13.48-15zM62 17H34v16h28V17zm-14 2a4 4 0 011 7.874V30a1 1 0 01-1.993.117L47 30v-3.126A4.002 4.002 0 0148 19zm0 2a2 2 0 100 4 2 2 0 000-4zm.5-19c-6.607 0-11.14 4.835-11.48 13h2c.296-7.293 3.85-12 9.48-12 6.003 0 10.305 4.756 10.494 12h1.981C60.573 7.03 55.355 2 48.5 2zm0 3c-4.37 0-7.209 3.727-7.479 10h15.972c-.178-6.181-3.65-10-8.493-10zM22 10v2h-2v-2h2zm0-4v2h-2V6h2zm8-4v2h-2V2h2zm4 0v2h-2V2h2zM22 2v2h-2V2h2zm4 0v2h-2V2h2z"/></g></svg>