<svg xmlns="http://www.w3.org/2000/svg" width="250" height="64" viewBox="0 0 160 64"><g fill="none" fill-rule="evenodd"><path d="M0 0h160v64H0z"/><path d="M112 8h48v48h-48z"/><path fill="#333" fill-opacity=".56" fill-rule="nonzero" d="M136 8.303c13.255 0 24 10.746 24 24 0 13.255-10.745 24-24 24s-24-10.745-24-24c0-13.254 10.745-24 24-24zm0 1.847c-12.194 0-22.08 9.918-22.08 22.153 0 12.236 9.886 22.154 22.08 22.154 12.194 0 22.08-9.918 22.08-22.154 0-12.235-9.886-22.153-22.08-22.153z"/><path fill="#333" fill-opacity=".56" fill-rule="nonzero" d="M130.643 38.75v-2.21h-2.619V26h-4.07L121 30.019l1.699 1.37 2.512-3.398h.16v8.549h-3.327v2.21h8.599zm5.893 0c.766 0 1.45-.091 2.049-.274.6-.182 1.103-.432 1.511-.75a3.28 3.28 0 00.937-1.13c.216-.436.324-.913.324-1.43 0-.79-.229-1.434-.686-1.935-.457-.5-1.076-.85-1.854-1.05v-.142a3.618 3.618 0 001.548-1.024c.402-.459.603-1.048.603-1.766 0-.47-.096-.906-.288-1.306a2.836 2.836 0 00-.853-1.034c-.377-.288-.84-.512-1.39-.67-.55-.16-1.184-.239-1.901-.239-.717 0-1.35.08-1.901.238-.55.16-1.014.383-1.39.671a2.831 2.831 0 00-.854 1.034 2.99 2.99 0 00-.287 1.306c0 .718.2 1.307.602 1.766.402.46.918.8 1.549 1.024v.142c-.779.2-1.397.55-1.855 1.05-.457.5-.686 1.145-.686 1.934 0 .518.108.995.325 1.43.216.436.528.813.936 1.13.408.319.912.569 1.512.751.6.183 1.282.274 2.049.274zm0-7.438c-.525 0-.924-.13-1.197-.39-.274-.26-.41-.614-.41-1.065v-.277c0-.45.136-.805.41-1.065.273-.26.672-.39 1.197-.39.524 0 .924.13 1.197.39s.41.615.41 1.065v.277c0 .45-.137.806-.41 1.066-.273.26-.673.39-1.197.39zm0 5.313c-.52 0-.918-.126-1.194-.378-.276-.253-.413-.604-.413-1.055v-.322c0-.45.137-.802.413-1.054.276-.252.674-.379 1.194-.379.52 0 .918.127 1.193.379.276.252.414.604.414 1.054v.322c0 .451-.138.802-.414 1.055-.275.252-.673.378-1.193.378zm11.355 0v-3.218H151v-2.064h-3.109v-3.218h-2.354v3.218h-3.108v2.064h3.108v3.218h2.354z"/></g></svg>