<svg xmlns="http://www.w3.org/2000/svg" width="65" height="65" viewBox="0 0 65 65" aria-labelledby="volatility-indices-icon-title">
    <title id='volatility-indices-icon-title'>Volatility indices</title>
    <g fill="none" fill-rule="evenodd">
        <path d="M0 0h64v64H0z" opacity=".64"/>
        <g fill-rule="nonzero">
            <path fill="#FF444F" d="M63.046 22.419c.777 0 1.227-.894.772-1.534L49.77 1.392a.944.944 0 0 0-1.531 0L34.183 20.885c-.456.64-.006 1.534.771 1.534h6.927L37.15 40.501a.967.967 0 0 0 .721 1.155.952.952 0 0 0 1.138-.732l4.99-19.26a.963.963 0 0 0-.929-1.179h-6.25L49.005 3.593 61.18 20.485h-5.537a.963.963 0 0 0-.937 1.139l7.199 40.442H36.355a.96.96 0 0 0-.953.967.96.96 0 0 0 .953.967h26.69a.963.963 0 0 0 .938-1.139L56.784 22.42h6.262z"/>
            <path fill="#85ACB0" d="M17.5 32C26.06 32 33 25.06 33 16.5 33 7.94 26.06 1 17.5 1 8.94 1 2 7.94 2 16.5 2 25.06 8.94 32 17.5 32zm0-2C10.044 30 4 23.956 4 16.5S10.044 3 17.5 3 31 9.044 31 16.5 24.956 30 17.5 30z"/>
            <path fill="#0E0E0E" d="M17.001 25.98c-3.253-.25-5.854-2.933-5.995-6.102-.023-.524.402-.967.95-.99.547-.022 1.01.385 1.033.909.102 2.313 2.092 4.319 4.511 4.319 2.224 0 4.085-1.724 4.45-3.77l-10.456-5.891a.944.944 0 0 1-.488-.778c-.101-2.283 1.114-4.629 3.165-5.8A6.702 6.702 0 0 1 17 7.019V5.875c0-.504.448-.875 1-.875s1 .371 1 .875v1.293c.635.144 1.252.38 1.83.71 2.05 1.17 3.265 3.516 3.164 5.799-.023.524-.486.93-1.033.908-.548-.022-.973-.465-.95-.989.07-1.586-.774-3.274-2.198-4.087a4.69 4.69 0 0 0-4.626 0c-1.274.727-2.084 2.193-2.19 3.589l10.51 5.921a.94.94 0 0 1 .487.859c-.126 2.84-2.23 5.291-5.008 5.949.01.056.014.114.014.173v1c-.031.557-.474 1.002-1 1a.995.995 0 0 1-1-1v-1l.001-.02z"/>
            <path fill="#85ACB0" d="M23 62h8v-3.167c0-.46.448-.833 1-.833s1 .373 1 .833V62h3a1 1 0 0 0 1-1v-4a1 1 0 0 0-1-1H6a1 1 0 0 0-1 1v4a1 1 0 0 0 1 1h3v-3.167c0-.46.448-.833 1-.833s1 .373 1 .833V62h10v-3.167c0-.46.448-.833 1-.833s1 .373 1 .833V62zM6 54h30a3 3 0 0 1 3 3v4a3 3 0 0 1-3 3H6a3 3 0 0 1-3-3v-4a3 3 0 0 1 3-3z"/>
            <path fill="#85ACB0" d="M20 54h9v-3.167c0-.46.448-.833 1-.833s1 .373 1 .833V54h3a1 1 0 0 0 1-1v-4a1 1 0 0 0-1-1H4a1 1 0 0 0-1 1v4a1 1 0 0 0 1 1h3v-3.167c0-.46.448-.833 1-.833s1 .373 1 .833V54h9v-3.167c0-.46.448-.833 1-.833s1 .373 1 .833V54zM4 46h30a3 3 0 0 1 3 3v4a3 3 0 0 1-3 3H4a3 3 0 0 1-3-3v-4a3 3 0 0 1 3-3z"/>
            <path fill="#85ACB0" d="M11 46h10v-3.143c0-.473.448-.857 1-.857s1 .384 1 .857V46h8v-3.143c0-.473.448-.857 1-.857s1 .384 1 .857V46h3a1 1 0 0 0 1-1v-4a1 1 0 0 0-1-1H6a1 1 0 0 0-1 1v4a1 1 0 0 0 1 1h3v-3.143c0-.473.448-.857 1-.857s1 .384 1 .857V46zm-5-8h30a3 3 0 0 1 3 3v4a3 3 0 0 1-3 3H6a3 3 0 0 1-3-3v-4a3 3 0 0 1 3-3z"/>
            <path fill="#85ACB0" d="M9 38h9v-3.167c0-.46.448-.833 1-.833s1 .373 1 .833V38h9v-3.167c0-.46.448-.833 1-.833s1 .373 1 .833V38h3a1 1 0 0 0 1-1v-4a1 1 0 0 0-1-1H4a1 1 0 0 0-1 1v4a1 1 0 0 0 1 1h3v-3.167c0-.46.448-.833 1-.833s1 .373 1 .833V38zm-5-8h30a3 3 0 0 1 3 3v4a3 3 0 0 1-3 3H4a3 3 0 0 1-3-3v-4a3 3 0 0 1 3-3z"/>
        </g>
    </g>
</svg>
