<svg xmlns="http://www.w3.org/2000/svg" width="16" height="14" viewBox="0 0 16 14">
    <path fill="#F00" fill-rule="nonzero" d="M15.73 12.502L8.796.497a.997.997 0 0 0-1.725 0L.136 12.502C-.247 13.164.223 14 .99 14h13.87a.998.998 0 0 0 .87-1.498zM7.716 4.173a.903.903 0 0 1 1.028.488.77.77 0 0 1 .07.435c-.036.436-.053.872-.07 1.325-.035.68-.088 1.376-.122 2.056-.018.209-.018.418-.035.644a.658.658 0 0 1-.662.645.667.667 0 0 1-.662-.627C7.21 8.076 7.14 7.013 7.088 5.95l-.052-.854c0-.418.279-.818.68-.923zm.226 7.98a.878.878 0 0 1-.871-.889c0-.487.4-.888.888-.888s.872.4.872.906c-.018.47-.419.871-.889.871z"/>
</svg>
