<svg xmlns="http://www.w3.org/2000/svg" width="231" height="145"><defs><linearGradient id="a" x1="108.097%" x2="0%" y1="42.285%" y2="61.231%"><stop offset="0%" stop-color="#FF6444"/><stop offset="100%" stop-color="#FF444F"/></linearGradient><linearGradient id="b" x1="108.097%" x2="0%" y1="19.139%" y2="94.922%"><stop offset="0%" stop-color="#FF6444"/><stop offset="100%" stop-color="#FF444F"/></linearGradient><linearGradient id="c" x1="97.558%" x2="9.07%" y1="19.139%" y2="94.922%"><stop offset="0%" stop-color="#FF6444"/><stop offset="100%" stop-color="#FF444F"/></linearGradient><linearGradient id="d" x1="53.631%" x2="46.875%" y1="19.139%" y2="94.922%"><stop offset="0%" stop-color="#FF6444"/><stop offset="100%" stop-color="#FF444F"/></linearGradient><linearGradient id="e" x1="75.821%" x2="27.778%" y1="19.139%" y2="94.922%"><stop offset="0%" stop-color="#FF6444"/><stop offset="100%" stop-color="#FF444F"/></linearGradient><linearGradient id="f" x1="108.097%" x2="0%" y1="44.034%" y2="58.685%"><stop offset="0%" stop-color="#FF6444"/><stop offset="100%" stop-color="#FF444F"/></linearGradient></defs><g fill="none" fill-rule="evenodd"><path fill="#E5E5E5" fill-rule="nonzero" d="M54.5 144.4c-18.267 0-31.8-6.333-40.6-19S.7 95 .7 72.2C.7 49.4 5.1 31.667 13.9 19 22.7 6.333 36.233 0 54.5 0c18.267 0 31.8 6.333 40.6 19s13.2 30.4 13.2 53.2c0 22.8-4.4 40.533-13.2 53.2-8.8 12.667-22.333 19-40.6 19zm0-25.4c8 0 13.533-2.933 16.6-8.8 3.067-5.867 4.6-14.133 4.6-24.8V59c0-10.667-1.533-18.933-4.6-24.8-3.067-5.867-8.6-8.8-16.6-8.8-8 0-13.533 2.933-16.6 8.8-3.067 5.867-4.6 14.133-4.6 24.8v26.4c0 10.667 1.533 18.933 4.6 24.8 3.067 5.867 8.6 8.8 16.6 8.8zm78.8 23v-24.2h37.6V24.2h-1.8l-28.4 37.2-19.2-15 33.4-44h46v115.4h29.6V142h-97.2z" opacity=".295"/><g transform="translate(25 62)"><path stroke="url(#a)" stroke-dasharray="4" stroke-linecap="round" stroke-linejoin="round" stroke-width="2" d="M0 24c0 17.673 14.327 32 32 32 17.673 0 32-14.327 32-32"/><circle cx="32" cy="24" r="23" stroke="url(#b)" stroke-width="2"/><path stroke="url(#b)" stroke-linecap="round" stroke-linejoin="round" stroke-width="2" d="M57 1v5h-5"/><path fill="url(#c)" fill-rule="nonzero" d="M32 11a1 1 0 01.993.883L33 12v7l-.005.099A5.002 5.002 0 0132 29a4.981 4.981 0 01-3.323-1.264.943.943 0 01-.167.124l-.104.054-9 4a1 1 0 01-.916-1.774l.104-.054 8.885-3.948a5.002 5.002 0 013.526-7.039L31 19v-7a1 1 0 011-1zm0 10a3 3 0 100 6 3 3 0 000-6z"/><path stroke="url(#d)" stroke-linecap="round" stroke-width="2" d="M14.5 22.5v3" transform="rotate(-90 14.5 24)"/><path stroke="url(#d)" stroke-linecap="round" stroke-width="2" d="M50.5 22.5v3" transform="rotate(-90 50.5 24)"/><path stroke="url(#e)" stroke-linecap="round" stroke-width="2" d="M32 4v3m0 34v3"/></g><path stroke="url(#f)" stroke-linecap="round" stroke-linejoin="round" stroke-width="2" d="M0 23.964c1.5-5.5 7-20.5 25-23.5s28.5 9.5 29.5 10.5" transform="translate(25 54)"/></g></svg>