<svg xmlns="http://www.w3.org/2000/svg" width="231" height="145" viewBox="0 0 231 145" aria-labelledby="safety-priority">
    <title id='safety-priority'>Your safety, our priority</title>
    <defs>
        <linearGradient id="a" x1="93.816%" x2="26.675%" y1="17.201%" y2="82.588%">
            <stop offset="0%" stop-color="#FF6444"/>
            <stop offset="100%" stop-color="#FF444F"/>
        </linearGradient>
        <linearGradient id="b" x1="92.699%" x2="27.269%" y1="17.201%" y2="82.588%">
            <stop offset="0%" stop-color="#FF6444"/>
            <stop offset="100%" stop-color="#FF444F"/>
        </linearGradient>
        <linearGradient id="c" x1="104.098%" x2="3.442%" y1="19.139%" y2="94.922%">
            <stop offset="0%" stop-color="#FF6444"/>
            <stop offset="100%" stop-color="#FF444F"/>
        </linearGradient>
        <linearGradient id="d" x1="108.097%" x2="0%" y1="19.939%" y2="93.758%">
            <stop offset="0%" stop-color="#FF6444"/>
            <stop offset="100%" stop-color="#FF444F"/>
        </linearGradient>
        <linearGradient id="e" x1="108.097%" x2="0%" y1="34.917%" y2="71.955%">
            <stop offset="0%" stop-color="#FF6444"/>
            <stop offset="100%" stop-color="#FF444F"/>
        </linearGradient>
    </defs>
    <g fill="none" fill-rule="evenodd">
        <path fill="#E5E5E5" fill-rule="nonzero" d="M55.211 119c8.106 0 13.712-2.933 16.82-8.8 3.107-5.867 4.66-14.133 4.66-24.8V59c0-10.667-1.553-18.933-4.66-24.8-3.108-5.867-8.714-8.8-16.82-8.8s-13.712 2.933-16.82 8.8c-3.107 5.867-4.66 14.133-4.66 24.8v26.4c0 10.667 1.553 18.933 4.66 24.8 3.108 5.867 8.714 8.8 16.82 8.8zm0-119c18.508 0 32.22 6.333 41.137 19 8.916 12.667 13.374 30.4 13.374 53.2 0 22.8-4.458 40.533-13.374 53.2-8.917 12.667-22.629 19-41.137 19s-32.22-6.333-41.137-19C5.158 112.733.7 95 .7 72.2.7 49.4 5.158 31.667 14.074 19 22.991 6.333 36.703 0 55.211 0zm161.912 2.4c-8.646 6.133-16.414 11.967-23.304 17.5-6.89 5.533-12.868 11.1-17.934 16.7-5.066 5.6-9.254 11.3-12.564 17.1-3.31 5.8-5.64 12.033-6.991 18.7l1.824.6a55.769 55.769 0 0 1 4.357-7.8c1.688-2.533 3.782-4.767 6.282-6.7 2.499-1.933 5.437-3.5 8.814-4.7 3.378-1.2 7.296-1.8 11.754-1.8 5.809 0 11.246 1.033 16.313 3.1 5.066 2.067 9.456 4.967 13.171 8.7 3.716 3.733 6.62 8.3 8.714 13.7 2.094 5.4 3.141 11.367 3.141 17.9 0 7.2-1.25 13.8-3.749 19.8-2.5 6-6.08 11.167-10.74 15.5s-10.233 7.7-16.718 10.1c-6.485 2.4-13.78 3.6-21.886 3.6-8.375 0-15.873-1.3-22.493-3.9-6.62-2.6-12.192-6.333-16.718-11.2-4.526-4.867-7.97-10.7-10.335-17.5-2.364-6.8-3.546-14.4-3.546-22.8 0-9.733 1.52-18.967 4.56-27.7 3.04-8.733 6.957-16.8 11.753-24.2 4.796-7.4 10.2-14.033 16.211-19.9 6.012-5.867 12.057-10.8 18.137-14.8h41.947zM177.607 75c-6.754 0-12.023 1.833-15.806 5.5-3.782 3.667-5.674 8.9-5.674 15.7v3.6c0 6.8 1.892 12.033 5.674 15.7 3.783 3.667 9.052 5.5 15.806 5.5 6.755 0 12.024-1.833 15.807-5.5 3.782-3.667 5.674-8.9 5.674-15.7v-3.6c0-6.8-1.892-12.033-5.674-15.7-3.783-3.667-9.052-5.5-15.807-5.5z" opacity=".295"/>
        <g transform="translate(24.308 54)">
            <path d="M0 0h64.846v64H0z"/>
            <g fill-rule="nonzero">
                <path fill="url(#a)" d="M.583 11.128L28.999.936l28.283 10.18.026.67c.327 8.607-1.236 23.195-4.03 27.894a1.02 1.02 0 0 1-1.387.357.993.993 0 0 1-.361-1.369c2.408-4.049 3.913-17.199 3.786-25.557l-.013-.58-26.307-9.467L2.634 12.52l.043 1.573c.444 14.02 2.726 24.311 6.803 30.854l.22.347.551.84c4.56 6.858 8.513 10.185 16.362 13.525.514.22.751.808.53 1.315-.222.507-.818.74-1.332.522-8.55-3.64-12.807-7.37-17.82-15.127C3.393 39.25.949 28.01.612 12.627l-.028-1.499z" transform="translate(3.344)"/>
                <path fill="url(#b)" d="M4.636 13.342l24.358-8.858 24.24 8.845.025.669c.28 7.456-1.054 20.072-3.45 24.158-.281.478-.901.641-1.385.365a.993.993 0 0 1-.37-1.367c2.026-3.454 3.304-14.707 3.21-21.908l-.011-.508L28.99 6.616 6.687 14.727l.001.014c.28 12.708 2.227 21.984 5.793 27.806l.203.325.517.798c3.85 5.85 7.195 8.693 13.825 11.554.513.221.747.81.522 1.317a1.018 1.018 0 0 1-1.334.515c-7.312-3.155-10.96-6.396-15.245-13.119C7.04 37.772 4.954 28.06 4.662 14.78l-.026-1.437z" transform="translate(3.344)"/>
            </g>
            <path fill="url(#c)" fill-rule="nonzero" d="M32.423 15c3.357 0 6.08 2.686 6.08 6a5.961 5.961 0 0 1-2.317 4.713c3.732 1.473 6.37 5.076 6.37 9.287 0 .552-.455 1-1.014 1H23.304c-.56 0-1.013-.448-1.013-1 0-4.21 2.637-7.814 6.37-9.288A5.957 5.957 0 0 1 26.344 21c0-3.314 2.721-6 6.079-6zm0 12c-4.054 0-7.414 2.938-8.011 6.774L24.38 34h16.085l-.03-.226c-.586-3.756-3.819-6.651-7.76-6.77zm0-10c-2.238 0-4.053 1.79-4.053 4s1.815 4 4.053 4 4.053-1.79 4.053-4-1.815-4-4.053-4z"/>
            <ellipse cx="44.576" cy="50.826" stroke="url(#d)" stroke-width="2" rx="11.59" ry="11.426"/>
            <path stroke="url(#e)" stroke-linecap="round" stroke-linejoin="round" stroke-width="2" d="M39.124 51.477l3.597 3.107 7.195-7.544"/>
        </g>
    </g>
</svg>
