<svg xmlns="http://www.w3.org/2000/svg" width="230" height="145"><defs><linearGradient id="a" x1="93.816%" x2="26.675%" y1="17.201%" y2="82.588%"><stop offset="0%" stop-color="#FF6444"/><stop offset="100%" stop-color="#FF444F"/></linearGradient><linearGradient id="b" x1="92.699%" x2="27.269%" y1="17.201%" y2="82.588%"><stop offset="0%" stop-color="#FF6444"/><stop offset="100%" stop-color="#FF444F"/></linearGradient><linearGradient id="c" x1="104.098%" x2="3.442%" y1="19.139%" y2="94.922%"><stop offset="0%" stop-color="#FF6444"/><stop offset="100%" stop-color="#FF444F"/></linearGradient><linearGradient id="d" x1="108.097%" x2="0%" y1="19.939%" y2="93.758%"><stop offset="0%" stop-color="#FF6444"/><stop offset="100%" stop-color="#FF444F"/></linearGradient><linearGradient id="e" x1="108.097%" x2="0%" y1="34.917%" y2="71.955%"><stop offset="0%" stop-color="#FF6444"/><stop offset="100%" stop-color="#FF444F"/></linearGradient></defs><g fill="none" fill-rule="evenodd"><path fill="#E5E5E5" fill-rule="nonzero" d="M55.241 144.4c-18.756 0-32.652-6.333-41.687-19C4.518 112.733 0 95 0 72.2 0 49.4 4.518 31.667 13.554 19 22.589 6.333 36.485 0 55.24 0c18.757 0 32.653 6.333 41.69 19 9.035 12.667 13.553 30.4 13.553 53.2 0 22.8-4.518 40.533-13.553 53.2-9.036 12.667-22.932 19-41.688 19zm0-25.4c8.214 0 13.896-2.933 17.045-8.8 3.149-5.867 4.723-14.133 4.723-24.8V59c0-10.667-1.574-18.933-4.723-24.8-3.15-5.867-8.83-8.8-17.045-8.8-8.214 0-13.896 2.933-17.045 8.8-3.148 5.867-4.723 14.133-4.723 24.8v26.4c0 10.667 1.575 18.933 4.723 24.8 3.15 5.867 8.83 8.8 17.045 8.8zm95.696 23l48.054-115.2h-44.768v25.4h-26.08V2.4h101.446v26L183.384 142h-32.446z" opacity=".295"/><g transform="translate(22.608 53)"><path d="M0 3h64.846v64H0z"/><g fill-rule="nonzero"><path fill="url(#a)" d="M.583 11.128L28.999.936l28.283 10.18.026.67c.327 8.607-1.236 23.195-4.03 27.894a1.02 1.02 0 01-1.387.357.993.993 0 01-.361-1.369c2.408-4.049 3.913-17.199 3.786-25.557l-.013-.58-26.307-9.467L2.634 12.52l.043 1.573c.444 14.02 2.726 24.311 6.803 30.854l.22.347.551.84c4.56 6.858 8.513 10.185 16.362 13.525.514.22.751.808.53 1.315a1.02 1.02 0 01-1.332.522c-8.55-3.64-12.807-7.37-17.82-15.127C3.393 39.25.949 28.01.612 12.627l-.028-1.499z" transform="translate(3.344)"/><path fill="url(#b)" d="M4.636 13.342l24.358-8.858 24.24 8.845.025.669c.28 7.456-1.054 20.072-3.45 24.158a1.022 1.022 0 01-1.385.365.993.993 0 01-.37-1.367c2.026-3.454 3.304-14.707 3.21-21.908l-.011-.508L28.99 6.616 6.687 14.727l.001.014c.28 12.708 2.227 21.984 5.793 27.806l.203.325.517.798c3.85 5.85 7.195 8.693 13.825 11.554.513.221.747.81.522 1.317a1.018 1.018 0 01-1.334.515c-7.312-3.155-10.96-6.396-15.245-13.119C7.04 37.772 4.954 28.06 4.662 14.78l-.026-1.437z" transform="translate(3.344)"/></g><path fill="url(#c)" fill-rule="nonzero" d="M32.423 15c3.357 0 6.08 2.686 6.08 6a5.961 5.961 0 01-2.317 4.713c3.732 1.473 6.37 5.076 6.37 9.287 0 .552-.455 1-1.014 1H23.304c-.56 0-1.013-.448-1.013-1 0-4.21 2.637-7.814 6.37-9.288A5.957 5.957 0 0126.344 21c0-3.314 2.721-6 6.079-6zm0 12c-4.054 0-7.414 2.938-8.011 6.774L24.38 34h16.085l-.03-.226c-.586-3.756-3.819-6.651-7.76-6.77zm0-10c-2.238 0-4.053 1.79-4.053 4s1.815 4 4.053 4 4.053-1.79 4.053-4-1.815-4-4.053-4z"/><ellipse cx="44.576" cy="50.826" stroke="url(#d)" stroke-width="2" rx="11.59" ry="11.426"/><path stroke="url(#e)" stroke-linecap="round" stroke-linejoin="round" stroke-width="2" d="M39.124 51.477l3.597 3.107 7.195-7.544"/></g></g></svg>