<svg width="64" height="65" viewBox="0 0 64 65" fill="none" xmlns="http://www.w3.org/2000/svg">
<path fill-rule="evenodd" clip-rule="evenodd" d="M32.0005 64.9883C35.8234 64.9883 39.4898 64.3179 42.8884 63.0883L41.7991 55.0091C39.4877 58.1756 36.7877 60.129 33.9985 60.7621V49.0063C36.4477 49.05 38.8059 49.1734 41.0381 49.3652L40.491 45.3075C38.4026 45.1467 36.2297 45.0442 33.9985 45.0058V34.9887H47.9593C47.9157 36.0494 47.8377 37.0926 47.7274 38.1152L51.3855 40.9483C51.6893 39.0223 51.8848 37.0294 51.9623 34.9887H59.9297C59.6678 38.7005 58.6824 42.2124 57.1136 45.3845L60.3326 47.8775C62.6745 43.4302 64 38.3643 64 32.9888C64 15.3159 49.6733 0.989258 32.0005 0.989258C14.3276 0.989258 0.000976562 15.3159 0.000976562 32.9888C0.000976562 50.6616 14.3276 64.9883 32.0005 64.9883ZM29.9986 5.21631C26.7064 5.96508 23.5386 8.55341 20.9877 12.8049C20.3567 13.8566 19.7728 14.9971 19.2437 16.2156C22.5082 16.6353 26.1382 16.9021 29.9986 16.9711V5.21631ZM33.9985 5.21542V16.9712C37.858 16.9023 41.4897 16.6357 44.7573 16.2156C44.2282 14.9971 43.6443 13.8566 43.0133 12.8049C40.4614 8.55173 37.2921 5.96303 33.9985 5.21542ZM29.9986 20.9717C25.6654 20.8968 21.5466 20.5804 17.8378 20.0629C16.8381 23.3618 16.2034 27.0548 16.0417 30.9888H29.9986V20.9717ZM33.9985 30.9888V20.9717C38.3359 20.897 42.4556 20.5802 46.1632 20.0629C47.1629 23.3617 47.7975 27.0548 47.9593 30.9888H33.9985ZM29.9986 34.9887H16.0417C16.2034 38.9227 16.838 42.6157 17.8378 45.9146C21.5423 45.3977 25.6602 45.0807 29.9986 45.0058V34.9887ZM29.9986 49.0064C26.1425 49.0753 22.5118 49.3417 19.2437 49.7618C19.7728 50.9804 20.3567 52.1209 20.9877 53.1727C23.5386 57.4241 26.7064 60.0125 29.9986 60.7612V49.0064ZM13.8621 19.4008C12.829 22.9657 12.1948 26.8804 12.0387 30.9888H4.07124C4.40649 26.2385 5.92669 21.8154 8.33806 18.0132C9.97629 18.5371 11.8318 19.0026 13.8621 19.4008ZM12.0387 34.9887H4.07124C4.40649 39.7389 5.92663 44.162 8.33792 47.9641C9.97415 47.4408 11.8297 46.9752 13.862 46.5766C12.829 43.0117 12.1948 39.0971 12.0387 34.9887ZM55.663 18.0133C58.0743 21.8155 59.5945 26.2386 59.9297 30.9888H51.9623C51.8062 26.8804 51.1719 22.9657 50.1389 19.4008C52.1703 19.0024 54.0258 18.5369 55.663 18.0133ZM44.5168 7.93558C47.8045 9.58132 50.7233 11.8552 53.1156 14.5999C51.8198 14.9601 50.3831 15.2889 48.8262 15.5797C48.1308 13.8477 47.3325 12.2292 46.4432 10.7469C45.8474 9.75398 45.2041 8.81298 44.5168 7.93558ZM19.4842 58.042C18.7969 57.1646 18.1536 56.2236 17.5578 55.2306C16.6684 53.7484 15.8702 52.1298 15.1747 50.3977C13.6184 50.6884 12.1818 51.0173 10.8854 51.3776C13.2777 54.1223 16.1964 56.3962 19.4842 58.042ZM15.1747 15.5798C15.8702 13.8478 16.6684 12.2292 17.5578 10.7469C18.1536 9.75398 18.7969 8.81298 19.4842 7.93558C16.1964 9.58134 13.2776 11.8553 10.8853 14.6C12.1804 14.96 13.617 15.2889 15.1747 15.5798Z" fill="white"/>
<path d="M46.4876 59.8442L43.8333 40.1581L60.1152 52.7679L55.3208 55.2585L59.7968 62.8933L55.7588 64.9884L51.282 57.3551L46.4876 59.8442Z" fill="white"/>
</svg>
