<svg xmlns="http://www.w3.org/2000/svg" xmlns:xlink="http://www.w3.org/1999/xlink" width="240" height="140"><style><![CDATA[.B{fill:#ff9648}.C{fill:#ff7145}.D{fill:#ff444f}.E{fill-rule:nonzero}.F{fill:#c7e5e5}.G{stroke:#85acb0}.H{fill:#85acb0}.I{fill:#e6e7e8}.J{stroke-linecap:round}.K{stroke-linejoin:round}.L{stroke-width:1.05}.M{stroke-dasharray:3.11}]]></style><g fill="none" fill-rule="evenodd"><g class="E"><path stroke-width="1.003" d="M76.734 22.038l34.434-12.82a3 3 0 0 1 3.858 1.764l28.58 76.755a3 3 0 0 1-1.765 3.858l-34.433 12.82a3 3 0 0 1-3.858-1.764L74.97 25.896a3 3 0 0 1 1.765-3.858z" class="F G"/><path d="M96.115 60.966c-2.208-5.188-1.033-11.198 2.967-15.173s10.016-5.113 15.2-2.874 8.464 7.404 8.305 13.04-3.735 10.607-9.028 12.55c-6.896 2.696-14.677-.67-17.434-7.543zm24.518-9.236a12.49 12.49 0 0 0-15.823-7.838c-6.534 2.204-10.046 9.286-7.845 15.82a12.49 12.49 0 0 0 15.818 7.85l.488-.174a12.29 12.29 0 0 0 7.418-15.658h-.056zM99.87 58.542l1.866-.696c-.265-.903-.34-1.852-.223-2.786.112-.808.37-1.6.76-2.306l2.347 1.13a5.57 5.57 0 0 0-.536 1.65 4.54 4.54 0 0 0 .041 1.707l3.685-1.393c-.28-1.248-.187-2.55.265-3.747.418-.905 1.184-1.603 2.124-1.937a3.86 3.86 0 0 1 3.009 0c1.043.5 1.87 1.374 2.333 2.438l1.923-.697.842 2.25-1.908.697a6.38 6.38 0 0 1 .174 2.298c-.083.706-.3 1.4-.662 2.006l-2.354-1.163c.2-.354.332-.73.425-1.12.08-.46.08-.932 0-1.393l-3.392 1.28a7.11 7.11 0 0 1-.244 3.601 3.42 3.42 0 0 1-2.1 1.937 4.4 4.4 0 0 1-3.001.076c-1.117-.448-2.034-1.284-2.584-2.354l-1.965.745-.835-2.222zm11.402-5.607c-.356.105-.648.36-.8.697a3.17 3.17 0 0 0-.14 1.302l3.03-1.135a2.04 2.04 0 0 0-.975-.885 1.54 1.54 0 0 0-1.073 0l-.04.02zm-4.305 6.805a1.77 1.77 0 0 0 .76-.536 2.09 2.09 0 0 0 .264-1.393l-3.225 1.226a2 2 0 0 0 1.024.766c.398.116.826.08 1.198-.104l-.02.04z" class="H"/><path d="M108.37 85.358l5.623-81.442a3 3 0 0 1 3.2-2.786l36.526 2.522a3 3 0 0 1 2.786 3.2l-5.624 81.44a3 3 0 0 1-3.2 2.787l-36.525-2.522a3 3 0 0 1-2.786-3.2z" class="I"/><path d="M109.927 84.906l5.623-81.442a3 3 0 0 1 3.2-2.786L155.276 3.2a3 3 0 0 1 2.786 3.2l-5.624 81.44a3 3 0 0 1-3.2 2.786l-36.525-2.522a3 3 0 0 1-2.786-3.2z" class="F"/></g><path d="M109.993 83.948l5.49-79.527a3.96 3.96 0 0 1 4.223-3.677l34.6 2.4a3.96 3.96 0 0 1 3.679 4.223l-5.492 79.526a3.96 3.96 0 0 1-4.223 3.678l-34.6-2.4a3.96 3.96 0 0 1-3.678-4.223z" class="G"/><g class="E"><path d="M120.264 44.696a13.78 13.78 0 0 1 14.165-13.376 13.78 13.78 0 0 1 13.378 14.164 13.78 13.78 0 0 1-14.163 13.379h-.592a13.5 13.5 0 0 1-12.788-14.167zm26.12 1.817a12.5 12.5 0 0 0-11.109-13.741 12.5 12.5 0 0 0-13.743 11.105c-.73 6.862 4.24 13.015 11.102 13.746l.383.035a12.27 12.27 0 0 0 8.98-2.78c2.506-2.083 4.082-5.073 4.38-8.317l.006-.05zM124.645 44l2.006.14a6.27 6.27 0 0 1 2.577-4.417l1.658 2.006a6.31 6.31 0 0 0-1.17 1.268 4.83 4.83 0 0 0-.697 1.525l3.914.272c.272-1.247.898-2.4 1.804-3.288a3.67 3.67 0 0 1 2.73-.85 3.9 3.9 0 0 1 2.745 1.261 4.95 4.95 0 0 1 1.1 3.184l2.1.14-.18 2.4-2.04-.14a6.31 6.31 0 0 1-.795 2.16 5.24 5.24 0 0 1-1.393 1.553l-1.665-2.034a4.5 4.5 0 0 0 .85-.857 3.71 3.71 0 0 0 .613-1.232l-3.622-.258a7.14 7.14 0 0 1-1.734 3.12c-.744.666-1.738.98-2.73.864a4.3 4.3 0 0 1-2.787-1.184 4.98 4.98 0 0 1-1.393-3.204l-2.1-.153.2-2.264zm12.767-.4c-.364-.048-.73.06-1 .3a2.79 2.79 0 0 0-.662 1.135l3.225.216a2.2 2.2 0 0 0-.522-1.205c-.272-.244-.618-.4-.982-.4l-.05-.035zM130.67 48c.326.04.657-.02.947-.174.388-.252.676-.632.815-1.073l-3.448-.237a2.09 2.09 0 0 0 .613 1.136c.317.25.7.4 1.114.4l-.04-.042z" class="H"/><path d="M117.686 73.06l42.958-69.42a3 3 0 0 1 4.13-.972l31.134 19.267a3 3 0 0 1 .972 4.13l-42.958 69.42a3 3 0 0 1-4.13.972L118.66 77.19a3 3 0 0 1-.973-4.13z" class="I"/><path d="M118.986 73.424l42.958-69.42a3 3 0 0 1 4.13-.972l31.134 19.266a3 3 0 0 1 .972 4.13l-42.958 69.42a3 3 0 0 1-4.13.972L119.96 77.553a3 3 0 0 1-.973-4.13z" class="F"/></g><path d="M119.49 72.607L161.44 4.82a3.96 3.96 0 0 1 5.451-1.284l29.5 18.256a3.96 3.96 0 0 1 1.284 5.451L155.728 95.03a3.96 3.96 0 0 1-5.45 1.283L120.774 78.06a3.96 3.96 0 0 1-1.284-5.452z" class="G"/><g class="E"><g class="H"><path d="M146.905 42.703c3.753-6.6 12.152-8.934 18.77-5.2a13.78 13.78 0 0 1 5.211 18.763 13.78 13.78 0 0 1-18.756 5.233l-.515-.306a13.51 13.51 0 0 1-4.709-18.5zm22.3 13.792c3.85-5.732 2.326-13.5-3.406-17.35s-13.5-2.326-17.35 3.405-2.326 13.5 3.406 17.35c.153.105.3.202.453.293a12.28 12.28 0 0 0 16.897-3.692v-.006zM151.07 44.16l1.72 1.05a6.66 6.66 0 0 1 2.09-1.887 7.21 7.21 0 0 1 2.29-.808l.516 2.55c-.568.1-1.115.308-1.623.585a4.7 4.7 0 0 0-1.33 1.072l3.343 2.1a6.54 6.54 0 0 1 3.204-2.04c.96-.2 1.962-.012 2.786.522.9.5 1.578 1.367 1.852 2.375a5 5 0 0 1-.501 3.336l1.734 1.073-1.26 2.047-1.75-1.1a6.61 6.61 0 0 1-1.72 1.546 5.28 5.28 0 0 1-1.985.697l-.57-2.577a4.18 4.18 0 0 0 1.149-.363 3.63 3.63 0 0 0 1.128-.815l-3.127-1.915a7.28 7.28 0 0 1-3.023 2.006 3.48 3.48 0 0 1-2.786-.495 4.34 4.34 0 0 1-1.86-2.382c-.342-1.154-.246-2.395.272-3.482l-1.776-1.108 1.226-1.978zm11.472 5.613a1.27 1.27 0 0 0-1.03-.202 2.93 2.93 0 0 0-1.122.697l2.75 1.7a2.09 2.09 0 0 0 .105-1.303 1.53 1.53 0 0 0-.697-.871l-.007-.02zm-8.024.752a1.75 1.75 0 0 0 .948.258 1.88 1.88 0 0 0 1.163-.62l-2.926-1.8a2.09 2.09 0 0 0 0 1.288 1.81 1.81 0 0 0 .801.884h.014z"/><rect width="100.765" height="75.795" x="81.259" y="61.593" rx="10"/></g><path d="M184.462 88.57h-14.237c-5.9 0-10.685 4.283-10.685 9.597v2.786c0 5.287 4.792 9.598 10.685 9.598h14.237c2.51.12 4.65-1.808 4.792-4.318V92.825c-.17-2.487-2.302-4.38-4.792-4.256z" class="I"/></g><g stroke="#fff" class="J K L"><path d="M176.82 127.47H84.777" class="M"/><path d="M83.098 127.47h-1.693M181.87 71.7h-1.706"/><path d="M176.82 71.7H84.777" class="M"/><path d="M83.098 71.7h-1.693"/></g><g class="E"><path fill="#fff" d="M185.736 109.48H171.52c-6.087 0-11.032-4.458-11.032-9.94v-2.786c0-5.48 4.945-9.94 11.032-9.94h14.467c2.583.01 4.72 2.008 4.9 4.584v13.457a4.93 4.93 0 0 1-4.917 4.673l-.244-.048z"/><path fill="#e5e5e5" d="M185.987 87.12c2.405.002 4.398 1.864 4.562 4.263v13.43c-.137 2.424-2.14 4.32-4.57 4.325h-14.46c-5.892 0-10.684-4.304-10.684-9.6V96.76c0-5.314 4.785-9.6 10.684-9.6h14.467v-.05zm0-.647H171.52c-6.268 0-11.38 4.6-11.38 10.287v2.786c0 5.67 5.105 10.288 11.38 10.288h14.46a5.28 5.28 0 0 0 5.266-4.98v-13.52a5.29 5.29 0 0 0-5.259-4.875v.014z"/><g fill="#bccdce"><path d="M177.754 98.063c0 2.048-1.234 3.895-3.126 4.68s-4.07.35-5.52-1.098-1.88-3.627-1.097-5.52S170.643 93 172.69 93c1.343-.002 2.632.53 3.582 1.482s1.483 2.24 1.48 3.582z"/><rect width="76.018" height="47.684" x="13.084" y="91.85" rx="6"/></g><path fill="#353535" d="M13.084 121.076h76.018v9.403H13.084z"/><circle cx="79.705" cy="104.331" r="4.848" fill="#ffb700"/><path d="M69.21 104.33c-.015 1.975 1.164 3.764 2.985 4.53s3.924.358 5.326-1.034 1.826-3.492 1.073-5.318-2.533-3.018-4.508-3.018c-1.285-.013-2.522.487-3.437 1.39s-1.433 2.132-1.44 3.417v.034z" class="D"/><path fill="#fff" d="M20.125 114.48h9.355a1.1 1.1 0 0 1 1.1 1.1 1.11 1.11 0 0 1-1.1 1.108h-9.355c-.294 0-.575-.117-.783-.325s-.324-.5-.324-.783c.004-.61.498-1.1 1.107-1.1zm17.532 0h9.354a1.1 1.1 0 0 1 .781 1.883 1.1 1.1 0 0 1-.781.325h-9.354c-.61-.004-1.1-.5-1.1-1.108a1.1 1.1 0 0 1 1.1-1.1zm35.07 0h9.355a1.1 1.1 0 0 1 1.1 1.1 1.11 1.11 0 0 1-1.1 1.108h-9.355c-.294 0-.575-.117-.783-.325s-.324-.5-.324-.783c.004-.61.498-1.1 1.107-1.1zm-17.538 0h9.354c.6 0 1.104.49 1.108 1.1a1.11 1.11 0 0 1-1.108 1.108h-9.354c-.61-.004-1.1-.5-1.1-1.108a1.1 1.1 0 0 1 1.1-1.1z"/></g><g stroke="#fff" class="J K"><path d="M181.87 129.093h-1.706" class="L"/><path stroke-width="1.13" d="M194.136 127.56h-1.825"/></g><g class="E"><use xlink:href="#B" class="B"/><use xlink:href="#B" class="D"/><path d="M205.33 139.492h.933v-6.896h-.892zm2.13 0h.9v-6.86h-.9zm4.103-.16h.885v-6.714h-.885zm-2.075.077h.884V132.6h-.884zm11.57-.76l.905-.12v-5.997h-.905zm-4.145.383l.885-.056v-6.394h-.885zm6.234-.67l.892-.146v-5.635h-.892zm-4.158.502l.885-.084v-6.2h-.885zm-19.015.627h.906v-6.896h-.906zm-15.727-1.066l.884.118v-5.997h-.884zm-2.076-.376l.885.18v-5.648h-.885zm4.144.64l.892.09v-6.2h-.892zm7.426.572h.898v-6.715h-.9zm2.09.083h.884v-6.798h-.884zm2.04.07h.884v-6.854h-.884zm-9.466-.51l.885.07v-6.394h-.885z" class="C"/><path d="M227.527 132.526c0 1.463-10.796 2.647-23.988 2.647s-23.988-1.198-23.988-2.647 10.796-2.653 23.988-2.653 23.988 1.226 23.988 2.653z" class="B"/><g class="C"><ellipse cx="203.504" cy="132.526" rx="16.347" ry="1.811"/><path d="M187.624 132.944c1.727-.794 8.177-1.393 15.88-1.393s14.16.585 15.888 1.393c.3-.132.46-.278.46-.418 0-.996-7.32-1.8-16.348-1.8s-16.333.814-16.333 1.8c0 .14.174.286.453.418z"/></g><use xlink:href="#C" class="B"/><use xlink:href="#C" class="D"/><path d="M205.33 134.323h.933v-6.88h-.892zm2.13-.027h.9v-6.847h-.9zm4.103-.12h.885v-6.714h-.885zm-2.075.07h.884v-6.784h-.884zm11.57-.752l.905-.112v-6h-.905zm-4.145.383l.885-.07v-6.38h-.885zm6.234-.67l.892-.16v-5.62h-.892zm-4.158.488l.885-.084v-6.185h-.885zm-19.015.6h.906v-6.882h-.906zm-15.727-1.046l.884.133v-6h-.884zm-2.076-.354l.885.167v-5.6h-.885v5.433zm4.144.6l.892.097v-6.2h-.892zm7.426.6h.898v-6.715h-.9zm2.09.097h.884v-6.79h-.884zm2.04.056h.884V127.4h-.884zm-9.466-.516l.885.1v-6.393h-.885z" class="C"/><path d="M227.527 127.365c0 1.463-10.796 2.654-23.988 2.654s-23.988-1.205-23.988-2.654 10.796-2.66 23.988-2.66 23.988 1.225 23.988 2.66z" class="B"/><g class="C"><ellipse cx="203.504" cy="127.365" rx="16.347" ry="1.811"/><path d="M187.624 127.783c1.727-.787 8.177-1.393 15.88-1.393s14.16.592 15.888 1.393c.3-.132.46-.272.46-.418 0-1.003-7.32-1.8-16.348-1.8s-16.333.807-16.333 1.8c0 .133.174.286.453.418z"/></g><use xlink:href="#D" class="B"/><use xlink:href="#D" class="D"/><path d="M205.33 129.155h.933v-6.895h-.892zm2.13-.028h.9v-6.86h-.9zm4.103-.118h.885v-6.714h-.885zm-2.075.07h.884v-6.798h-.884zm11.57-.753l.905-.118v-5.997h-.905zm-4.145.37h.885V122.3h-.885zm6.234-.656l.892-.145v-5.635h-.892zm-4.158.502l.885-.083v-6.2h-.885zm-19.015.6h.906v-6.895h-.906zm-15.727-1.044l.884.118v-5.997h-.884zm-2.076-.37l.885.18v-5.648h-.885zm4.144.634l.892.098v-6.2h-.892zm7.426.58h.898v-6.722h-.9zm2.09.083h.884v-6.805h-.884zm2.04.07h.884v-6.86h-.884zm-9.466-.516l.885.07v-6.387h-.885z" class="C"/><ellipse cx="203.504" cy="122.197" rx="24.023" ry="2.654" class="B"/><g class="C"><ellipse cx="203.504" cy="122.197" rx="16.347" ry="1.811"/><path d="M187.624 122.587c1.727-.787 8.177-1.393 15.88-1.393s14.16.592 15.888 1.393c.3-.132.46-.272.46-.418 0-.996-7.32-1.8-16.348-1.8s-16.333.814-16.333 1.8c0 .16.174.314.453.418z"/></g><use xlink:href="#E" class="B"/><use xlink:href="#E" class="D"/><path d="M205.134 123.994h.885v-6.882h-.885zm2.076-.02h.898v-6.847h-.898zm4.158-.076h.892v-6.715h-.892zm-2.075 0h.89v-6.785h-.89zm11.576-.74l.898-.11v-5.997h-.898zm-4.152.397l.892-.076v-6.38h-.892zm6.24-.675l.885-.154V117.1h-.885zm-4.165.494l.892-.083V117.1h-.892zm-19.008.6h.9v-6.88h-.9zm-15.735-1.045l.885.133v-5.997h-.884zm-2.075-.34a7.76 7.76 0 0 1 .892.174v-5.642h-.892v5.468zm4.15.62l.885.1V117.1h-.885zm7.425.564h.9v-6.72h-.9zm2.083.126h.89V117.1h-.89zm2.076 0h.884v-6.847h-.885zm-9.438-.488l.89.084V117.1h-.89z" class="C"/><path d="M227.332 117.015c0 1.463-10.796 2.647-23.988 2.647s-23.98-1.198-23.98-2.647 10.788-2.668 23.98-2.668 23.988 1.22 23.988 2.668z" class="B"/><g class="C"><ellipse cx="203.309" cy="117.043" rx="16.347" ry="1.811"/><path d="M187.436 117.46c1.72-.793 8.177-1.392 15.873-1.392s14.168.585 15.895 1.393c.3-.133.453-.28.453-.418 0-1-7.314-1.81-16.348-1.81s-16.333.8-16.333 1.8c0 .14.153.286.46.42z"/></g><use xlink:href="#F" class="B"/><use xlink:href="#F" class="D"/><path d="M205.134 118.826h.885v-6.917h-.885zm2.076-.02h.898v-6.896h-.898zm4.158-.118h.892v-6.778h-.892zm-2.075.07h.89v-6.847h-.89zm11.576-.76l.898-.104v-5.997h-.898zm-4.152.397l.892-.07v-6.415h-.892zm6.24-.683l.885-.146v-5.656h-.885zm-4.165.502l.892-.084v-6.22h-.892zm-19.008.606h.9v-6.9h-.9zm-15.735-1.045l.885.12v-5.997h-.884zm-2.075-.376l.892.18v-5.67h-.892zm4.15.64l.885.1v-6.22h-.885zm7.425.57h.9v-6.7h-.9zm2.083.097h.89v-6.798h-.89zm2.076.063h.884v-6.86h-.885zm-9.438-.515l.89.07v-6.416h-.89z" class="C"/><path d="M227.332 111.9c0 1.462-10.796 2.646-23.988 2.646s-23.98-1.198-23.98-2.647 10.788-2.653 23.98-2.653 23.988 1.156 23.988 2.653z" class="B"/><g class="C"><ellipse cx="203.309" cy="111.875" rx="16.347" ry="1.811"/><path d="M187.436 112.306c1.72-.807 8.177-1.393 15.873-1.393s14.168.586 15.895 1.393c.3-.146.453-.292.453-.43 0-.996-7.314-1.804-16.348-1.804s-16.333.808-16.333 1.804c0 .14.153.264.46.43z"/></g><use xlink:href="#G" class="B"/><use xlink:href="#G" class="D"/><path d="M205.33 113.672h.933v-6.89h-.892zm2.13-.028h.9v-6.847h-.9zm4.103-.12h.885v-6.714h-.885zm-2.075.07h.884v-6.784h-.884zm11.57-.766l.905-.105v-5.997h-.905zm-4.145.397l.885-.07v-6.38h-.885zm7.126-2.842v-3.6h-.892v5.78l.892-.153v-2.013m-5.05 2.71l.885-.097v-6.185h-.885zm-19.015.537h.906v-6.882h-.906zm-15.727-1.03l.884.118v-6h-.884zm-2.076-.37a6.33 6.33 0 0 1 .885.167v-5.67h-.885v5.503zm4.144.634l.892.097v-6.2h-.892zm7.426.578h.898v-6.715h-.9zm2.09.084h.884v-6.8h-.884zm2.04.07h.884v-6.847h-.884zm-9.466-.502l.885.084v-6.394h-.885z" class="C"/><ellipse cx="203.504" cy="106.713" rx="24.023" ry="2.654" class="B"/><ellipse cx="203.504" cy="106.713" rx="16.347" ry="1.811" class="C"/><path fill="#ffb445" d="M187.624 107.1c1.727-.794 8.177-1.393 15.88-1.393s14.16.585 15.888 1.393c.3-.132.46-.278.46-.417 0-.996-7.32-1.81-16.348-1.81s-16.333.815-16.333 1.8c0 .168.174.314.453.418z"/></g></g><defs ><path id="B" d="M179.468 132.526v4.312c0 1.462 10.796 2.654 23.988 2.654s23.98-1.198 23.98-2.654v-4.312h-47.968z"/><path id="C" d="M179.468 127.365v4.277c0 1.462 10.796 2.66 23.988 2.66s23.98-1.198 23.98-2.66v-4.305l-47.968.028z"/><path id="D" d="M179.468 122.197v4.318c0 1.463 10.796 2.647 23.988 2.647s23.98-1.198 23.98-2.647v-4.318h-47.968z"/><path id="E" d="M179.287 117.015v4.304c0 1.477 10.796 2.66 23.988 2.66s23.988-1.198 23.988-2.66v-4.305h-47.976z"/><path id="F" d="M179.287 111.9v4.318c0 1.463 10.796 2.647 23.988 2.647s23.988-1.198 23.988-2.647v-4.32h-47.976z"/><path id="G" d="M179.468 106.74v4.305c0 1.476 10.796 2.66 23.988 2.66s23.98-1.198 23.98-2.66v-4.305h-47.968z"/></defs></svg>