<svg xmlns="http://www.w3.org/2000/svg" width="240" height="140" viewBox="0 0 240 140" aria-labelledby="withdraw-icon-title">
    <title id='withdraw-icon-title'>Withdraw icon</title>
    <g fill="none" fill-rule="evenodd" transform="translate(13)">
        <path fill="#C7E5E5" fill-rule="nonzero" stroke="#85ACB0" stroke-width="1.003" d="M63.734 22.038l34.434-12.82a3 3 0 0 1 3.858 1.764l28.579 76.755a3 3 0 0 1-1.765 3.858l-34.433 12.82a3 3 0 0 1-3.858-1.764l-28.58-76.755a3 3 0 0 1 1.765-3.858z"/>
        <path fill="#85ACB0" fill-rule="nonzero" d="M83.115 60.966a13.784 13.784 0 1 1 17.434 7.543c-6.896 2.696-14.677-.67-17.434-7.543zm24.518-9.236c-2.206-6.533-9.29-10.042-15.823-7.838-6.534 2.204-10.046 9.286-7.845 15.82 2.202 6.535 9.283 10.05 15.818 7.85l.488-.174c6.358-2.29 9.672-9.287 7.418-15.658h-.056z"/>
        <path fill="#85ACB0" fill-rule="nonzero" d="M86.87 58.542l1.866-.696a6.854 6.854 0 0 1-.223-2.786c.112-.808.37-1.59.76-2.306l2.347 1.129a5.572 5.572 0 0 0-.536 1.65 4.541 4.541 0 0 0 .041 1.707l3.685-1.393a6.554 6.554 0 0 1 .265-3.747 3.705 3.705 0 0 1 2.124-1.937 3.859 3.859 0 0 1 3.009 0 4.876 4.876 0 0 1 2.333 2.438l1.923-.697.842 2.25-1.908.697a6.38 6.38 0 0 1 .174 2.298 5.287 5.287 0 0 1-.662 2.006l-2.354-1.163c.19-.354.332-.73.425-1.121.08-.461.08-.932 0-1.393l-3.392 1.281a7.111 7.111 0 0 1-.244 3.601 3.427 3.427 0 0 1-2.09 1.937 4.402 4.402 0 0 1-3.001.076 4.994 4.994 0 0 1-2.584-2.354l-1.965.745-.835-2.222zm11.402-5.607a1.275 1.275 0 0 0-.801.697 3.17 3.17 0 0 0-.14 1.302l3.03-1.135a2.04 2.04 0 0 0-.975-.885 1.54 1.54 0 0 0-1.073 0l-.041.021zm-4.305 6.805a1.77 1.77 0 0 0 .76-.536 2.09 2.09 0 0 0 .264-1.393l-3.225 1.226c.248.36.608.63 1.024.766.398.116.826.08 1.198-.104l-.02.041z"/>
        <path fill="#E6E7E8" fill-rule="nonzero" d="M95.37 85.358l5.623-81.442a3 3 0 0 1 3.2-2.786l36.526 2.522a3 3 0 0 1 2.786 3.2l-5.624 81.441a3 3 0 0 1-3.2 2.787l-36.525-2.522a3 3 0 0 1-2.786-3.2z"/>
        <path fill="#C7E5E5" fill-rule="nonzero" d="M96.927 84.906l5.623-81.442a3 3 0 0 1 3.2-2.786L142.276 3.2a3 3 0 0 1 2.786 3.2l-5.624 81.441a3 3 0 0 1-3.2 2.786l-36.525-2.522a3 3 0 0 1-2.786-3.2z"/>
        <path stroke="#85ACB0" d="M96.993 83.948l5.491-79.527a3.96 3.96 0 0 1 4.223-3.677l34.61 2.39a3.96 3.96 0 0 1 3.679 4.223l-5.492 79.526a3.96 3.96 0 0 1-4.223 3.678l-34.61-2.39a3.96 3.96 0 0 1-3.678-4.223z"/>
        <path fill="#85ACB0" fill-rule="nonzero" d="M107.264 44.696c.218-7.606 6.56-13.594 14.165-13.376 7.606.217 13.595 6.559 13.378 14.164-.217 7.605-6.558 13.595-14.163 13.379h-.592c-7.443-.383-13.167-6.725-12.788-14.167zm26.12 1.817c.726-6.861-4.247-13.013-11.109-13.741-6.861-.728-13.014 4.243-13.743 11.105-.73 6.861 4.24 13.015 11.102 13.746l.383.035a12.273 12.273 0 0 0 13.36-11.096l.006-.049z"/>
        <path fill="#85ACB0" fill-rule="nonzero" d="M111.645 43.999l2.006.14a6.269 6.269 0 0 1 2.577-4.417l1.658 2.006a6.31 6.31 0 0 0-1.17 1.268c-.32.464-.555.98-.697 1.525l3.914.272a6.617 6.617 0 0 1 1.804-3.288 3.67 3.67 0 0 1 2.73-.85 3.9 3.9 0 0 1 2.745 1.261 4.945 4.945 0 0 1 1.1 3.184l2.09.139-.181 2.389-2.04-.14a6.31 6.31 0 0 1-.795 2.16 5.224 5.224 0 0 1-1.393 1.553l-1.665-2.034a4.5 4.5 0 0 0 .85-.857c.28-.369.487-.787.613-1.232l-3.622-.258a7.14 7.14 0 0 1-1.734 3.12 3.483 3.483 0 0 1-2.73.864 4.298 4.298 0 0 1-2.787-1.184 4.973 4.973 0 0 1-1.393-3.204l-2.09-.153.21-2.264zm12.767-.39a1.296 1.296 0 0 0-1.01.3c-.308.32-.535.709-.662 1.135l3.225.216a2.194 2.194 0 0 0-.522-1.205 1.616 1.616 0 0 0-.982-.411l-.05-.035zm-6.742 4.409c.326.04.657-.02.947-.174.388-.252.676-.632.815-1.073l-3.448-.237c.075.435.29.834.613 1.136.317.251.71.389 1.114.39l-.041-.042z"/>
        <path fill="#E6E7E8" fill-rule="nonzero" d="M104.686 73.059l42.958-69.42a3 3 0 0 1 4.13-.972l31.134 19.267a3 3 0 0 1 .972 4.13l-42.958 69.419a3 3 0 0 1-4.13.972L105.66 77.189a3 3 0 0 1-.973-4.13z"/>
        <path fill="#C7E5E5" fill-rule="nonzero" d="M105.986 73.424l42.958-69.42a3 3 0 0 1 4.13-.972l31.134 19.266a3 3 0 0 1 .972 4.13l-42.958 69.42a3 3 0 0 1-4.13.972L106.96 77.553a3 3 0 0 1-.973-4.13z"/>
        <path stroke="#85ACB0" d="M106.491 72.607L148.44 4.821a3.96 3.96 0 0 1 5.451-1.284l29.501 18.256a3.96 3.96 0 0 1 1.284 5.451l-41.948 67.787a3.96 3.96 0 0 1-5.45 1.283L107.774 78.06a3.96 3.96 0 0 1-1.284-5.452z"/>
        <path fill="#85ACB0" fill-rule="nonzero" d="M133.905 42.703c3.753-6.611 12.152-8.934 18.769-5.19 6.616 3.746 8.948 12.142 5.211 18.763-3.737 6.62-12.13 8.963-18.756 5.233l-.515-.306c-6.405-3.81-8.513-12.09-4.709-18.5zm22.289 13.792c3.85-5.732 2.326-13.5-3.406-17.35-5.732-3.85-13.5-2.326-17.35 3.405-3.85 5.732-2.326 13.5 3.406 17.35.153.105.3.202.453.293 5.69 3.618 13.234 1.97 16.897-3.692v-.006z"/>
        <path fill="#85ACB0" fill-rule="nonzero" d="M138.07 44.16l1.721 1.05a6.659 6.659 0 0 1 2.09-1.887 7.195 7.195 0 0 1 2.291-.808l.516 2.55a5.663 5.663 0 0 0-1.623.585 4.701 4.701 0 0 0-1.33 1.072l3.343 2.09a6.54 6.54 0 0 1 3.204-2.04 3.726 3.726 0 0 1 2.786.522 3.894 3.894 0 0 1 1.852 2.375 5.001 5.001 0 0 1-.501 3.336l1.734 1.073-1.26 2.047-1.749-1.1a6.624 6.624 0 0 1-1.72 1.546c-.608.363-1.283.6-1.985.697l-.571-2.577a4.18 4.18 0 0 0 1.149-.363 3.629 3.629 0 0 0 1.128-.815l-3.127-1.915a7.279 7.279 0 0 1-3.023 2.006 3.483 3.483 0 0 1-2.786-.495 4.34 4.34 0 0 1-1.86-2.382 4.876 4.876 0 0 1 .272-3.482l-1.776-1.108 1.226-1.978zm11.472 5.613a1.268 1.268 0 0 0-1.03-.202 2.932 2.932 0 0 0-1.122.697l2.751 1.7a2.09 2.09 0 0 0 .105-1.303 1.532 1.532 0 0 0-.697-.871l-.007-.02zm-8.024.752c.285.175.614.264.948.258.45-.06.863-.28 1.163-.62l-2.926-1.81a2.09 2.09 0 0 0 0 1.288c.16.377.442.689.801.884h.014z"/>
        <rect width="100.765" height="75.795" x="68.259" y="61.593" fill="#85ACB0" fill-rule="nonzero" rx="10"/>
        <path fill="#E6E7E8" fill-rule="nonzero" d="M171.462 88.57h-14.237c-5.9 0-10.685 4.283-10.685 9.597v2.786c0 5.287 4.792 9.598 10.685 9.598h14.237a4.583 4.583 0 0 0 4.792-4.318V92.825a4.576 4.576 0 0 0-4.792-4.256z"/>
        <path stroke="#FFF" stroke-dasharray="3.11" stroke-linecap="round" stroke-linejoin="round" stroke-width="1.05" d="M163.82 127.47H71.777"/>
        <path stroke="#FFF" stroke-linecap="round" stroke-linejoin="round" stroke-width="1.05" d="M70.098 127.47h-1.693M168.87 71.7h-1.706"/>
        <path stroke="#FFF" stroke-dasharray="3.11" stroke-linecap="round" stroke-linejoin="round" stroke-width="1.05" d="M163.82 71.7H71.777"/>
        <path stroke="#FFF" stroke-linecap="round" stroke-linejoin="round" stroke-width="1.05" d="M70.098 71.7h-1.693"/>
        <path fill="#FFF" fill-rule="nonzero" d="M172.736 109.479H158.52c-6.087 0-11.032-4.458-11.032-9.94v-2.786c0-5.481 4.945-9.94 11.032-9.94h14.467a4.945 4.945 0 0 1 4.91 4.584v13.457a4.931 4.931 0 0 1-4.917 4.673l-.244-.048z"/>
        <path fill="#E5E5E5" fill-rule="nonzero" d="M172.987 87.12a4.576 4.576 0 0 1 4.562 4.263v13.429a4.583 4.583 0 0 1-4.569 4.325h-14.46c-5.892 0-10.684-4.304-10.684-9.59V96.76c0-5.314 4.785-9.59 10.684-9.59h14.467v-.05zm0-.647H158.52c-6.268 0-11.38 4.61-11.38 10.287v2.786c0 5.67 5.105 10.288 11.38 10.288h14.46a5.28 5.28 0 0 0 5.266-4.98v-13.52a5.287 5.287 0 0 0-5.259-4.875v.014z"/>
        <path fill="#BCCDCE" fill-rule="nonzero" d="M164.754 98.063a5.064 5.064 0 1 1-5.063-5.064 5.057 5.057 0 0 1 5.063 5.064z"/>
        <rect width="76.018" height="47.684" x=".084" y="91.85" fill="#BCCDCE" fill-rule="nonzero" rx="6"/>
        <path fill="#353535" fill-rule="nonzero" d="M.084 121.076h76.018v9.403H.084z"/>
        <circle cx="66.705" cy="104.331" r="4.848" fill="#FFB700" fill-rule="nonzero"/>
        <path fill="#FF444F" fill-rule="nonzero" d="M56.209 104.331a4.876 4.876 0 1 0 4.876-4.84 4.827 4.827 0 0 0-4.876 4.806v.034z"/>
        <path fill="#FFF" fill-rule="nonzero" d="M7.125 114.48h9.355a1.1 1.1 0 0 1 1.1 1.1c0 .609-.491 1.104-1.1 1.108H7.125a1.107 1.107 0 0 1-1.107-1.108c.004-.609.498-1.1 1.107-1.1zM24.657 114.48h9.354a1.1 1.1 0 0 1 1.1 1.1 1.1 1.1 0 0 1-1.1 1.108h-9.354a1.107 1.107 0 0 1-1.1-1.108 1.1 1.1 0 0 1 1.1-1.1zM59.726 114.48h9.355a1.1 1.1 0 0 1 1.1 1.1c0 .609-.491 1.104-1.1 1.108h-9.355a1.107 1.107 0 0 1-1.107-1.108c.004-.609.498-1.1 1.107-1.1zM42.188 114.48h9.354c.61 0 1.104.491 1.108 1.1 0 .612-.496 1.108-1.108 1.108h-9.354a1.107 1.107 0 0 1-1.1-1.108 1.1 1.1 0 0 1 1.1-1.1z"/>
        <path stroke="#FFF" stroke-linecap="round" stroke-linejoin="round" stroke-width="1.05" d="M168.87 129.093h-1.706"/>
        <path stroke="#FFF" stroke-linecap="round" stroke-linejoin="round" stroke-width="1.13" d="M181.136 127.56h-1.825"/>
        <path fill="#FF9648" fill-rule="nonzero" d="M166.468 132.526v4.312c0 1.462 10.796 2.654 23.988 2.654s23.98-1.198 23.98-2.654v-4.312h-47.968z"/>
        <path fill="#FF444F" fill-rule="nonzero" d="M166.468 132.526v4.312c0 1.462 10.796 2.654 23.988 2.654s23.98-1.198 23.98-2.654v-4.312h-47.968z"/>
        <path fill="#FF7145" fill-rule="nonzero" d="M192.33 139.492h.933v-6.896h-.892zM194.46 139.492h.9v-6.861h-.9zM198.563 139.331h.885v-6.714h-.885zM196.488 139.408h.884v-6.798h-.884zM208.057 138.649l.905-.119v-5.997h-.905zM203.912 139.032l.885-.056v-6.394h-.885zM210.146 138.363l.892-.146v-5.635h-.892zM205.988 138.865l.885-.084v-6.199h-.885zM186.973 139.492h.906v-6.896h-.906zM171.246 138.426l.884.118v-5.997h-.884zM169.17 138.05l.885.18v-5.648h-.885zM173.314 138.69l.892.091v-6.199h-.892zM180.74 139.262h.898v-6.715h-.899zM182.829 139.345h.884v-6.798h-.884zM184.87 139.415h.884v-6.854h-.884zM175.404 138.906l.885.07v-6.394h-.885z"/>
        <path fill="#FF9648" fill-rule="nonzero" d="M214.527 132.526c0 1.463-10.796 2.647-23.988 2.647s-23.988-1.198-23.988-2.647c0-1.448 10.796-2.653 23.988-2.653s23.988 1.226 23.988 2.653z"/>
        <ellipse cx="190.504" cy="132.526" fill="#FF7145" fill-rule="nonzero" rx="16.347" ry="1.811"/>
        <path fill="#FF7145" fill-rule="nonzero" d="M174.624 132.944c1.727-.794 8.177-1.393 15.88-1.393 7.704 0 14.16.585 15.888 1.393.3-.132.46-.278.46-.418 0-.996-7.32-1.81-16.348-1.81-9.026 0-16.333.814-16.333 1.81 0 .14.174.286.453.418z"/>
        <path fill="#FF9648" fill-rule="nonzero" d="M166.468 127.365v4.277c0 1.462 10.796 2.66 23.988 2.66s23.98-1.198 23.98-2.66v-4.305l-47.968.028z"/>
        <path fill="#FF444F" fill-rule="nonzero" d="M166.468 127.365v4.277c0 1.462 10.796 2.66 23.988 2.66s23.98-1.198 23.98-2.66v-4.305l-47.968.028z"/>
        <path fill="#FF7145" fill-rule="nonzero" d="M192.33 134.323h.933v-6.881h-.892zM194.46 134.296h.9v-6.847h-.9zM198.563 134.177h.885v-6.714h-.885zM196.488 134.247h.884v-6.784h-.884zM208.057 133.495l.905-.112v-5.99h-.905zM203.912 133.878l.885-.07v-6.38h-.885zM210.146 133.209l.892-.16v-5.621h-.892zM205.988 133.697l.885-.084v-6.185h-.885zM186.973 134.296h.906v-6.882h-.906zM171.246 133.25l.884.133v-5.99h-.884zM169.17 132.896c.272.055.564.118.885.167v-5.6h-.885v5.433zM173.314 133.495l.892.097v-6.199h-.892zM180.74 134.094h.898v-6.715h-.899zM182.829 134.191h.884V127.4h-.884zM184.87 134.247h.884V127.4h-.884zM175.404 133.731l.885.09v-6.393h-.885z"/>
        <path fill="#FF9648" fill-rule="nonzero" d="M214.527 127.365c0 1.463-10.796 2.654-23.988 2.654s-23.988-1.205-23.988-2.654c0-1.449 10.796-2.66 23.988-2.66s23.988 1.225 23.988 2.66z"/>
        <ellipse cx="190.504" cy="127.365" fill="#FF7145" fill-rule="nonzero" rx="16.347" ry="1.811"/>
        <path fill="#FF7145" fill-rule="nonzero" d="M174.624 127.783c1.727-.787 8.177-1.393 15.88-1.393 7.704 0 14.16.592 15.888 1.393.3-.132.46-.272.46-.418 0-1.003-7.32-1.81-16.348-1.81-9.026 0-16.333.807-16.333 1.81 0 .133.174.286.453.418z"/>
        <path fill="#FF9648" fill-rule="nonzero" d="M166.468 122.197v4.318c0 1.463 10.796 2.647 23.988 2.647s23.98-1.198 23.98-2.647v-4.318h-47.968z"/>
        <path fill="#FF444F" fill-rule="nonzero" d="M166.468 122.197v4.318c0 1.463 10.796 2.647 23.988 2.647s23.98-1.198 23.98-2.647v-4.318h-47.968z"/>
        <path fill="#FF7145" fill-rule="nonzero" d="M192.33 129.155h.933v-6.895h-.892zM194.46 129.127h.9v-6.86h-.9zM198.563 129.009h.885v-6.714h-.885zM196.488 129.079h.884v-6.798h-.884zM208.057 128.326l.905-.118v-5.997h-.905zM203.912 128.696h.885V122.3h-.885zM210.146 128.04l.892-.145v-5.635h-.892zM205.988 128.542l.885-.083v-6.2h-.885zM186.973 129.141h.906v-6.895h-.906zM171.246 128.097l.884.118v-5.997h-.884zM169.17 127.727l.885.181v-5.648h-.885zM173.314 128.361l.892.098v-6.2h-.892zM180.74 128.94h.898v-6.722h-.899zM182.829 129.023h.884v-6.805h-.884zM184.87 129.093h.884v-6.861h-.884zM175.404 128.577l.885.07v-6.387h-.885z"/>
        <ellipse cx="190.504" cy="122.197" fill="#FF9648" fill-rule="nonzero" rx="24.023" ry="2.654"/>
        <ellipse cx="190.504" cy="122.197" fill="#FF7145" fill-rule="nonzero" rx="16.347" ry="1.811"/>
        <path fill="#FF7145" fill-rule="nonzero" d="M174.624 122.587c1.727-.787 8.177-1.393 15.88-1.393 7.704 0 14.16.592 15.888 1.393.3-.132.46-.272.46-.418 0-.996-7.32-1.81-16.348-1.81-9.026 0-16.333.814-16.333 1.81 0 .16.174.314.453.418z"/>
        <path fill="#FF9648" fill-rule="nonzero" d="M166.287 117.015v4.304c0 1.477 10.796 2.661 23.988 2.661s23.988-1.198 23.988-2.66v-4.305h-47.976z"/>
        <path fill="#FF444F" fill-rule="nonzero" d="M166.287 117.015v4.304c0 1.477 10.796 2.661 23.988 2.661s23.988-1.198 23.988-2.66v-4.305h-47.976z"/>
        <path fill="#FF7145" fill-rule="nonzero" d="M192.134 123.994h.885v-6.882h-.885zM194.21 123.973h.898v-6.847h-.898zM198.368 123.897h.892v-6.715h-.892zM196.293 123.897h.891v-6.785h-.891zM207.869 123.158l.898-.111v-5.997h-.898zM203.717 123.555l.892-.076v-6.38h-.892zM209.958 122.88l.885-.154V117.1h-.885zM205.793 123.374l.892-.083v-6.192h-.892zM186.785 123.973h.899v-6.881h-.899zM171.05 122.928l.885.133v-5.997h-.884zM168.975 122.587c.3.04.598.099.892.174v-5.642h-.892v5.468zM173.126 123.207l.885.09V117.1h-.885zM180.551 123.771h.899v-6.721h-.899zM182.634 123.897h.891v-6.798h-.891zM184.71 123.897h.884v-6.847h-.885zM175.272 123.409l.891.084v-6.394h-.891z"/>
        <path fill="#FF9648" fill-rule="nonzero" d="M214.332 117.015c0 1.463-10.796 2.647-23.988 2.647s-23.98-1.198-23.98-2.647c0-1.449 10.788-2.668 23.98-2.668s23.988 1.22 23.988 2.668z"/>
        <ellipse cx="190.309" cy="117.043" fill="#FF7145" fill-rule="nonzero" rx="16.347" ry="1.811"/>
        <path fill="#FF7145" fill-rule="nonzero" d="M174.436 117.46c1.72-.793 8.177-1.392 15.873-1.392 7.697 0 14.168.585 15.895 1.393.3-.133.453-.279.453-.418 0-1.01-7.314-1.811-16.348-1.811-9.033 0-16.333.8-16.333 1.81 0 .14.153.286.46.419z"/>
        <path fill="#FF9648" fill-rule="nonzero" d="M166.287 111.91v4.318c0 1.463 10.796 2.647 23.988 2.647s23.988-1.198 23.988-2.647v-4.319h-47.976z"/>
        <path fill="#FF444F" fill-rule="nonzero" d="M166.287 111.91v4.318c0 1.463 10.796 2.647 23.988 2.647s23.988-1.198 23.988-2.647v-4.319h-47.976z"/>
        <path fill="#FF7145" fill-rule="nonzero" d="M192.134 118.826h.885v-6.917h-.885zM194.21 118.805h.898v-6.896h-.898zM198.368 118.687h.892v-6.778h-.892zM196.293 118.756h.891v-6.847h-.891zM207.869 117.997l.898-.104v-5.997h-.898zM203.717 118.394l.892-.07v-6.415h-.892zM209.958 117.711l.885-.146v-5.656h-.885zM205.793 118.213l.892-.084v-6.22h-.892zM186.785 118.819h.899v-6.91h-.899zM171.05 117.774l.885.119v-5.997h-.884zM168.975 117.398l.892.181v-5.67h-.892zM173.126 118.039l.885.09v-6.22h-.885zM180.551 118.61h.899v-6.7h-.899zM182.634 118.707h.891v-6.798h-.891zM184.71 118.77h.884v-6.86h-.885zM175.272 118.255l.891.07v-6.416h-.891z"/>
        <path fill="#FF9648" fill-rule="nonzero" d="M214.332 111.91c0 1.462-10.796 2.646-23.988 2.646s-23.98-1.198-23.98-2.647c0-1.448 10.788-2.653 23.98-2.653s23.988 1.156 23.988 2.653z"/>
        <ellipse cx="190.309" cy="111.875" fill="#FF7145" fill-rule="nonzero" rx="16.347" ry="1.811"/>
        <path fill="#FF7145" fill-rule="nonzero" d="M174.436 112.306c1.72-.807 8.177-1.393 15.873-1.393 7.697 0 14.168.586 15.895 1.393.3-.146.453-.292.453-.431 0-.996-7.314-1.804-16.348-1.804-9.033 0-16.333.808-16.333 1.804 0 .139.153.264.46.431z"/>
        <path fill="#FF9648" fill-rule="nonzero" d="M166.468 106.741v4.305c0 1.476 10.796 2.66 23.988 2.66s23.98-1.198 23.98-2.66v-4.305h-47.968z"/>
        <path fill="#FF444F" fill-rule="nonzero" d="M166.468 106.741v4.305c0 1.476 10.796 2.66 23.988 2.66s23.98-1.198 23.98-2.66v-4.305h-47.968z"/>
        <path fill="#FF7145" fill-rule="nonzero" d="M192.33 113.672h.933v-6.889h-.892zM194.46 113.644h.9v-6.847h-.9zM198.563 113.525h.885v-6.714h-.885zM196.488 113.595h.884v-6.784h-.884zM208.057 112.829l.905-.105v-5.997h-.905zM203.912 113.226l.885-.07v-6.38h-.885zM211.038 110.384v-3.6h-.892v5.78l.892-.153v-2.013M205.988 113.107l.885-.097v-6.185h-.885zM186.973 113.644h.906v-6.882h-.906zM171.246 112.613l.884.118v-5.99h-.884zM169.17 112.244c.299.035.594.09.885.167v-5.67h-.885v5.503zM173.314 112.878l.892.097v-6.199h-.892zM180.74 113.456h.898v-6.715h-.899zM182.829 113.54h.884v-6.799h-.884zM184.87 113.609h.884v-6.847h-.884zM175.404 113.107l.885.084v-6.394h-.885z"/>
        <ellipse cx="190.504" cy="106.713" fill="#FF9648" fill-rule="nonzero" rx="24.023" ry="2.654"/>
        <ellipse cx="190.504" cy="106.713" fill="#FF7145" fill-rule="nonzero" rx="16.347" ry="1.811"/>
        <path fill="#FFB445" fill-rule="nonzero" d="M174.624 107.11c1.727-.794 8.177-1.393 15.88-1.393 7.704 0 14.16.585 15.888 1.393.3-.132.46-.278.46-.417 0-.996-7.32-1.811-16.348-1.811-9.026 0-16.333.815-16.333 1.81 0 .168.174.314.453.418z"/>
    </g>
</svg>
