<svg width="16" height="27" xmlns="http://www.w3.org/2000/svg"><g fill="none" fill-rule="evenodd"><path d="M-8-2h32v32H-8z"/><path d="M10.032 0a1.5 1.5 0 011.152.54l4.468 5.362c.225.27.348.61.348.96V17.5a1.5 1.5 0 01-1.5 1.5h-13A1.5 1.5 0 010 17.5v-16A1.5 1.5 0 011.5 0h8.532zM10 1H1.5a.5.5 0 00-.5.5v16a.5.5 0 00.5.5h13a.5.5 0 00.5-.5V7h-4.5a.5.5 0 01-.492-.41L10 6.5V1zm2.5 14a.5.5 0 110 1h-9a.5.5 0 110-1zm0-3a.5.5 0 110 1h-9a.5.5 0 110-1zm0-3a.5.5 0 110 1h-9a.5.5 0 110-1zM11 1.881V6h3.433L11 1.881zM1.58 26l.882-1.542h.018L3.386 26h1.056L3.08 23.852l1.29-2.04h-.984l-.828 1.416H2.54l-.816-1.416H.662l1.278 2.022L.596 26h.984zm5.928 0v-.81H5.912v-3.378H5V26h2.508zm2.028.072c.26 0 .492-.033.696-.099.204-.066.375-.159.513-.279.138-.12.243-.264.315-.432.072-.168.108-.352.108-.552 0-.364-.104-.645-.312-.843-.208-.198-.528-.331-.96-.399l-.414-.066c-.176-.028-.303-.074-.381-.138-.078-.064-.117-.168-.117-.312 0-.128.05-.228.15-.3.1-.072.252-.108.456-.108.216 0 .395.037.537.111.142.074.263.169.363.285l.606-.612a1.694 1.694 0 00-.618-.438c-.24-.1-.518-.15-.834-.15-.248 0-.469.031-.663.093a1.442 1.442 0 00-.492.261 1.142 1.142 0 00-.309.402 1.216 1.216 0 00-.108.516c0 .352.103.634.309.846.206.212.531.346.975.402l.414.054c.196.028.326.081.39.159a.444.444 0 01.096.291.457.457 0 01-.162.366c-.108.092-.274.138-.498.138a1.35 1.35 0 01-1.05-.48l-.6.606c.18.2.398.363.654.489s.568.189.936.189zM12.542 26l.882-1.542h.018L14.348 26h1.056l-1.362-2.148 1.29-2.04h-.984l-.828 1.416h-.018l-.816-1.416h-1.062l1.278 2.022L11.558 26h.984z" fill="#333" fill-rule="nonzero"/></g></svg>