<?xml version="1.0" encoding="UTF-8"?>
<svg width="16px" height="27px" viewBox="0 0 16 27" version="1.1" xmlns="http://www.w3.org/2000/svg" xmlns:xlink="http://www.w3.org/1999/xlink">
    <!-- Generator: Sketch 61.2 (89653) - https://sketch.com -->
    <title>icons/document/black copy</title>
    <desc>Created with Sketch.</desc>
    <g id="Page-1" stroke="none" stroke-width="1" fill="none" fill-rule="evenodd">
        <g id="Artboard-Copy-6" transform="translate(-84.000000, -942.000000)">
            <g id="icons/document/black" transform="translate(76.000000, 940.000000)">
                <polygon id="Path" points="0 0 32 0 32 32 0 32"></polygon>
                <path d="M18.0316251,2 C18.4767948,2 18.8989662,2.19773451 19.183957,2.5397234 L23.6523319,7.90177334 C23.8769757,8.17134584 24,8.51114518 24,8.86204994 L24,19.5 C24,20.3284271 23.3284271,21 22.5,21 L9.5,21 C8.67157288,21 8,20.3284271 8,19.5 L8,3.5 C8,2.67157288 8.67157288,2 9.5,2 L18.0316251,2 Z M18,3 L9.5,3 C9.22385763,3 9,3.22385763 9,3.5 L9,19.5 C9,19.7761424 9.22385763,20 9.5,20 L22.5,20 C22.7761424,20 23,19.7761424 23,19.5 L23,9 L18.5,9 C18.2545401,9 18.0503916,8.82312484 18.0080557,8.58987563 L18,8.5 L18,3 Z M20.5,17 C20.7761424,17 21,17.2238576 21,17.5 C21,17.7761424 20.7761424,18 20.5,18 L20.5,18 L11.5,18 C11.2238576,18 11,17.7761424 11,17.5 C11,17.2238576 11.2238576,17 11.5,17 L11.5,17 Z M20.5,14 C20.7761424,14 21,14.2238576 21,14.5 C21,14.7761424 20.7761424,15 20.5,15 L20.5,15 L11.5,15 C11.2238576,15 11,14.7761424 11,14.5 C11,14.2238576 11.2238576,14 11.5,14 L11.5,14 Z M20.5,11 C20.7761424,11 21,11.2238576 21,11.5 C21,11.7761424 20.7761424,12 20.5,12 L20.5,12 L11.5,12 C11.2238576,12 11,11.7761424 11,11.5 C11,11.2238576 11.2238576,11 11.5,11 L11.5,11 Z M19,3.881 L19,8 L22.433,8 L19,3.881 Z" id="Combined-Shape" fill="#333333" fill-rule="nonzero"></path>
                <path d="M9.58,28 L10.462,26.458 L10.48,26.458 L11.386,28 L12.442,28 L11.08,25.852 L12.37,23.812 L11.386,23.812 L10.558,25.228 L10.54,25.228 L9.724,23.812 L8.662,23.812 L9.94,25.834 L8.596,28 L9.58,28 Z M15.508,28 L15.508,27.19 L13.912,27.19 L13.912,23.812 L13,23.812 L13,28 L15.508,28 Z M17.536,28.072 C17.796,28.072 18.028,28.039 18.232,27.973 C18.436,27.907 18.607,27.814 18.745,27.694 C18.883,27.574 18.988,27.43 19.06,27.262 C19.132,27.094 19.168,26.91 19.168,26.71 C19.168,26.346 19.064,26.065 18.856,25.867 C18.648,25.669 18.328,25.536 17.896,25.468 L17.896,25.468 L17.482,25.402 C17.306,25.374 17.179,25.328 17.101,25.264 C17.023,25.2 16.984,25.096 16.984,24.952 C16.984,24.824 17.034,24.724 17.134,24.652 C17.234,24.58 17.386,24.544 17.59,24.544 C17.806,24.544 17.985,24.581 18.127,24.655 C18.269,24.729 18.39,24.824 18.49,24.94 L18.49,24.94 L19.096,24.328 C18.924,24.136 18.718,23.99 18.478,23.89 C18.238,23.79 17.96,23.74 17.644,23.74 C17.396,23.74 17.175,23.771 16.981,23.833 C16.787,23.895 16.623,23.982 16.489,24.094 C16.355,24.206 16.252,24.34 16.18,24.496 C16.108,24.652 16.072,24.824 16.072,25.012 C16.072,25.364 16.175,25.646 16.381,25.858 C16.587,26.07 16.912,26.204 17.356,26.26 L17.356,26.26 L17.77,26.314 C17.966,26.342 18.096,26.395 18.16,26.473 C18.224,26.551 18.256,26.648 18.256,26.764 C18.256,26.916 18.202,27.038 18.094,27.13 C17.986,27.222 17.82,27.268 17.596,27.268 C17.18,27.268 16.83,27.108 16.546,26.788 L16.546,26.788 L15.946,27.394 C16.126,27.594 16.344,27.757 16.6,27.883 C16.856,28.009 17.168,28.072 17.536,28.072 Z M20.542,28 L21.424,26.458 L21.442,26.458 L22.348,28 L23.404,28 L22.042,25.852 L23.332,23.812 L22.348,23.812 L21.52,25.228 L21.502,25.228 L20.686,23.812 L19.624,23.812 L20.902,25.834 L19.558,28 L20.542,28 Z" id="XLSX" fill="#333333" fill-rule="nonzero"></path>
            </g>
        </g>
    </g>
</svg>