<svg xmlns="http://www.w3.org/2000/svg" width="30" height="30"><path fill="#85ACB0" d="M11.639 16.019v-.905H8.466v.905h1.07v5.314h1.034v-5.314h1.069zm3.175-4.416a.471.471 0 00.335-.114.42.42 0 00.124-.32V8.417a.325.325 0 00-.126-.267.513.513 0 00-.332-.102.451.451 0 00-.306.102.334.334 0 00-.118.267v2.754c0 .138.036.245.11.32.072.076.179.113.314.113h-.001zm2.28 5.086a.9.9 0 00-.423.11c-.138.071-.27.18-.392.319v-2.004h-.927v6.219h.927v-.352a1.2 1.2 0 00.392.312c.14.066.3.1.48.1.271 0 .481-.086.623-.26.144-.174.217-.423.217-.747v-2.547c0-.376-.076-.662-.231-.857-.152-.195-.374-.294-.664-.294l-.002.001zm-.05 3.57c0 .148-.027.252-.08.317-.053.066-.135.097-.247.097a.543.543 0 01-.221-.05.738.738 0 01-.216-.161v-2.858a.626.626 0 01.188-.141.428.428 0 01.194-.046.36.36 0 01.286.118c.064.081.096.198.096.354v2.37zm-3.3-.027c-.086.098-.18.179-.284.244a.525.525 0 01-.256.096c-.087 0-.149-.024-.188-.072-.037-.048-.058-.127-.058-.235v-3.52h-.916v3.837c0 .274.054.476.16.615.11.136.268.204.48.204.172 0 .35-.047.534-.145.183-.1.358-.24.528-.426v.504h.918v-4.589h-.918v3.487zM14.775 0C6.615 0 0 6.615 0 14.775 0 22.936 6.615 29.55 14.775 29.55S29.55 22.936 29.55 14.775C29.55 6.615 22.934 0 14.775 0zm2.387 7.297h1.032v3.876c0 .12.023.206.066.258.042.054.113.083.21.083a.603.603 0 00.288-.107 1.4 1.4 0 00.318-.274V7.297h1.033v5.055h-1.034v-.558c-.169.19-.37.349-.594.47a1.303 1.303 0 01-.599.161c-.238 0-.418-.076-.54-.228-.12-.148-.18-.373-.18-.678V7.297zm-3.834 1.156c0-.39.138-.702.416-.936.279-.23.652-.348 1.122-.348.427 0 .776.123 1.05.367.272.244.408.56.408.947v2.61c0 .434-.134.772-.4 1.017-.268.245-.635.368-1.105.368-.451 0-.813-.126-1.084-.378-.27-.257-.407-.599-.407-1.028v-2.62zM10.515 5.5l.755 2.737h.074l.718-2.737h1.182L11.89 9.51v2.842h-1.163V9.636L9.344 5.502h1.171v-.001zm10.212 17.731H9.222A3.312 3.312 0 015.91 19.92v-2.662a3.31 3.31 0 013.312-3.312h11.506a3.31 3.31 0 013.31 3.312v2.662a3.311 3.311 0 01-3.311 3.312zm-.864-6.6c-.412 0-.744.124-1.004.376-.258.25-.39.576-.39.97v2.062c0 .444.12.79.355 1.041.236.252.56.378.97.378.458 0 .801-.118 1.03-.354.232-.24.345-.594.345-1.064v-.236h-.942v.21c0 .27-.032.444-.092.523-.06.078-.166.118-.318.118-.147 0-.25-.046-.312-.138-.06-.095-.088-.262-.088-.504v-.864h1.753v-1.172c0-.433-.111-.766-.337-1-.226-.23-.55-.347-.969-.347l-.001.001zm.362 1.804h-.81v-.464c0-.192.03-.331.093-.411.065-.086.168-.126.315-.126.138 0 .243.04.305.126.063.08.096.219.096.411v.464h.001z"/></svg>