<svg xmlns="http://www.w3.org/2000/svg" xmlns:xlink="http://www.w3.org/1999/xlink" width="124" height="84"><defs><path id="a" d="M0 0h124v84H0z"/></defs><g fill="none" fill-rule="evenodd"><mask id="b" fill="#fff"><use xlink:href="#a"/></mask><path fill="#BABABA" fill-rule="nonzero" d="M78.272 51.904c3.243 0 5.739-1.077 7.488-3.232 1.75-2.155 2.624-5.301 2.624-9.44 0-4.139-.875-7.285-2.624-9.44-1.75-2.155-4.245-3.232-7.488-3.232-3.243 0-5.739 1.077-7.488 3.232-1.75 2.155-2.624 5.301-2.624 9.44 0 4.139.875 7.285 2.624 9.44 1.75 2.155 4.245 3.232 7.488 3.232zM80.64 72l30.976-44.672h-4.928L75.712 72h4.928zm-2.368-23.424c-3.67 0-5.504-2.475-5.504-7.424v-3.84c0-4.95 1.835-7.424 5.504-7.424 3.67 0 5.504 2.475 5.504 7.424v3.84c0 4.95-1.835 7.424-5.504 7.424zm30.784 24.192c3.243 0 5.739-1.077 7.488-3.232 1.75-2.155 2.624-5.301 2.624-9.44 0-4.139-.875-7.285-2.624-9.44-1.75-2.155-4.245-3.232-7.488-3.232-3.243 0-5.739 1.077-7.488 3.232-1.75 2.155-2.624 5.301-2.624 9.44 0 4.139.875 7.285 2.624 9.44 1.75 2.155 4.245 3.232 7.488 3.232zm0-3.328c-3.67 0-5.504-2.475-5.504-7.424v-3.84c0-4.95 1.835-7.424 5.504-7.424 3.67 0 5.504 2.475 5.504 7.424v3.84c0 4.95-1.835 7.424-5.504 7.424z" mask="url(#b)"/><path fill="#333" fill-rule="nonzero" d="M32.2 79.248c9.499 0 16.536-3.293 21.112-9.88 4.576-6.587 6.864-15.808 6.864-27.664 0-11.856-2.288-21.077-6.864-27.664C48.736 7.453 41.699 4.16 32.2 4.16c-9.499 0-16.536 3.293-21.112 9.88-4.576 6.587-6.864 15.808-6.864 27.664 0 11.856 2.288 21.077 6.864 27.664 4.576 6.587 11.613 9.88 21.112 9.88zm0-13.208c-4.16 0-7.037-1.525-8.632-4.576-1.595-3.05-2.392-7.35-2.392-12.896V34.84c0-5.547.797-9.845 2.392-12.896 1.595-3.05 4.472-4.576 8.632-4.576 4.16 0 7.037 1.525 8.632 4.576 1.595 3.05 2.392 7.35 2.392 12.896v13.728c0 5.547-.797 9.845-2.392 12.896-1.595 3.05-4.472 4.576-8.632 4.576z" mask="url(#b)"/></g></svg>