<svg width="156" height="112" viewBox="0 0 156 112" fill="none" xmlns="http://www.w3.org/2000/svg">
<rect width="156" height="112" rx="16" fill="#F6F7F8"/>
<path d="M125.321 65.3512H127.344V57.4676L125.321 55.2191V65.3512Z" fill="black"/>
<path d="M135.973 46.7033V61.319L121.664 45.4165V65.3511H123.682V50.7309L138 66.6379V46.7033H135.973Z" fill="black"/>
<path d="M108.566 46.6943C103.423 46.6943 99.2418 50.8754 99.2418 56.0182C99.2418 61.161 103.423 65.3421 108.566 65.3421C113.709 65.3421 117.89 61.161 117.89 56.0182C117.89 50.8799 113.709 46.6943 108.566 46.6943ZM108.566 63.3328C104.534 63.3328 101.251 60.0548 101.251 56.0182C101.251 51.9816 104.529 48.7036 108.566 48.7036C112.598 48.7036 115.88 51.9816 115.88 56.0182C115.88 60.0503 112.598 63.3328 108.566 63.3328Z" fill="black"/>
<path d="M108.566 54.6771C107.825 54.6771 107.225 55.2777 107.225 56.0182C107.225 56.7586 107.825 57.3592 108.566 57.3592C109.306 57.3592 109.907 56.7586 109.907 56.0182C109.907 55.2777 109.306 54.6771 108.566 54.6771Z" fill="black"/>
<path d="M95.7334 52.4241C95.7334 49.2725 93.1868 46.7078 90.0578 46.7078H79.3929V65.3556H81.3841V48.7306H90.0578C92.0671 48.7306 93.7016 50.3877 93.7016 52.4241C93.7016 54.4514 92.0896 56.0994 90.0984 56.122L83.0231 56.1175V65.3556H85.0143V58.1403H89.6785L93.4894 65.3511H95.8057L91.8278 57.8558C94.126 57.0928 95.7334 54.8713 95.7334 52.4241Z" fill="black"/>
<path d="M66.3165 52.2479H64.3118V65.3375H66.3165V52.2479Z" fill="black"/>
<path d="M75.2973 46.7033H58.9568V48.708H75.2973V46.7033Z" fill="black"/>
<path d="M69.9378 52.2479H67.9331V65.3375H69.9378V52.2479Z" fill="black"/>
<path d="M45.1725 43.0098L18 38.0115L32.2997 73.9885L52.2208 49.7149L45.1725 43.0098ZM44.7391 45.2132L48.8976 49.164L37.5283 51.2229L44.7391 45.2132ZM35.0585 50.812L23.0751 40.8741L42.6575 44.4772L35.0585 50.812ZM34.2006 52.573L32.25 68.7238L21.716 42.2106L34.2006 52.573ZM36.0066 53.4263L48.595 51.1462L34.1599 68.7374L36.0066 53.4263Z" fill="black"/>
</svg>
