<svg width="156" height="112" viewBox="0 0 156 112" fill="none" xmlns="http://www.w3.org/2000/svg">
<rect width="156" height="112" rx="16" fill="#F6F7F8"/>
<path d="M51.8341 67.6704H56.3294V44.3828H51.8358L51.8341 67.6704Z" fill="#050505"/>
<path d="M79.5605 51.4025C79.5605 47.7947 77.5127 44.3822 71.1008 44.3822H59.0708V67.6708H63.5644V58.5204H69.6454L75.2658 67.6708H80.3542L74.3067 57.9302C78.1409 56.9451 79.5605 54.125 79.5605 51.4025ZM70.2423 55.2721H63.5667V47.7281H70.2736C73.6785 47.7281 74.8344 49.4011 74.8344 51.4335C74.8344 53.5015 73.6785 55.2721 70.2423 55.2721ZM80.9153 47.9922H89.4756V67.673H93.9693V47.9922H102.532V44.3822H80.9153V47.9922ZM49.7816 67.6708L45.2209 58.334L49.6632 55.6848L47.385 52.057L43.334 54.4733L38.8962 45.3828C38.6318 44.8343 38.2164 44.3712 37.6979 44.0471C37.1845 43.7283 36.5878 43.5664 35.9824 43.5818C35.3769 43.5972 34.7894 43.7891 34.293 44.1337C33.8094 44.471 33.4275 44.9328 33.1886 45.4694L24.293 63.7058L24.2728 63.7546C23.9837 64.4219 23.9224 65.1648 24.0984 65.8699C24.2744 66.5749 24.678 67.2035 25.2476 67.6597C25.8011 68.1126 26.4864 68.3772 27.2027 68.4148C27.919 68.4523 28.6286 68.2608 29.2271 67.8683L41.5164 60.544L44.9951 67.6708H49.7816ZM29.5825 62.674L36.0659 49.3856L39.6273 56.6832L29.5825 62.674ZM104.569 44.3822H111.213L117.558 60.6194C117.889 61.6356 118.088 62.1948 118.219 62.9802H118.287C118.416 62.1925 118.615 61.6046 118.98 60.6194L125.291 44.3822H132V67.6708H127.804V50.8123C127.804 49.8604 127.871 48.8442 127.969 47.9899H127.835C127.619 48.9177 127.332 49.8278 126.976 50.7124L120.301 67.6708H116.071L109.395 50.7146C109.074 49.8244 108.809 48.9151 108.602 47.9922H108.468C108.568 48.8131 108.635 49.765 108.635 50.8145V67.6708H104.569V44.3822Z" fill="#050505"/>
</svg>
