<svg width="156" height="112" viewBox="0 0 156 112" fill="none" xmlns="http://www.w3.org/2000/svg">
<rect width="156" height="112" rx="16" fill="#F6F7F8"/>
<path d="M25.9939 41.0607L18 64.5257H22.7112L24.9605 57.6868H31.4347L33.7447 64.5257H38.5471L30.5532 41.0607H25.9939ZM30.31 53.8266H26.1155L27.8784 48.6594C28 48.2947 28.1216 47.9604 28.2128 47.5956C28.3343 47.9604 28.4255 48.3251 28.5471 48.6898L30.31 53.8266Z" fill="black"/>
<path d="M46.4802 53.8874C44.3222 53.0363 44.079 52.6411 44.079 52.0029C44.079 51.2126 44.7477 50.7263 45.8115 50.7263C47.0881 50.7263 48.0608 51.243 48.5471 51.5165L49.459 52.094L50.6748 48.3858L50.1277 48.0211C49.0638 47.322 47.4833 46.9269 45.8419 46.9269C42.2553 46.9269 39.6413 49.2065 39.6413 52.3372C39.6413 55.2247 42.1945 56.7749 44.3526 57.5652C46.5106 58.3554 46.6626 58.9329 46.6626 59.6016C46.6626 60.8782 45.3252 61.0606 44.5046 61.0606C43.2584 61.0606 41.921 60.5439 41.1611 60.088L40.2492 59.5408L39.0334 63.3402L39.6109 63.6746C40.9179 64.4345 42.6808 64.8904 44.4438 64.8904C48.4255 64.8904 51.1003 62.6412 51.1003 59.3281C51.1003 55.9542 48.4559 54.5864 46.4802 53.8874Z" fill="black"/>
<path d="M58.1824 43.1579L53.7143 44.5257V47.2004H51.2827V51.0606H53.7143V58.7202C53.7143 60.8479 54.1398 62.398 55.0213 63.4011C55.8723 64.3433 57.2097 64.86 58.6991 64.86C60.0669 64.86 61.0395 64.5865 61.4955 64.4345L62.1034 64.2217L61.8602 60.3312L60.8268 60.6351C60.5228 60.7263 60.1581 60.7871 59.4286 60.7871C58.8815 60.7871 58.152 60.7871 58.152 58.5986V51.091H62.2249V47.2308H58.152L58.1824 43.1579Z" fill="black"/>
<path d="M73.1367 47.0484L72.3161 46.9572C72.0729 46.9268 71.8297 46.8964 71.5258 46.8964C70.0972 46.8964 68.7902 47.4739 67.8176 48.5074L67.7568 47.2308H63.5319L63.5927 48.1426C63.6838 49.48 63.7142 50.9998 63.7142 52.9451V64.5256H68.2431V55.3463C68.2431 54.9208 68.2735 54.4952 68.3343 54.1913C68.6686 52.398 69.7933 51.2733 71.313 51.2733C71.6778 51.2733 71.8905 51.2733 72.1033 51.3037L73.1367 51.5165V47.0484Z" fill="black"/>
<path d="M81.4346 46.8964C76.389 46.8964 72.8328 50.635 72.8328 56.015C72.8328 61.3949 76.2675 64.8904 81.1611 64.8904C85.3252 64.8904 89.7933 62.0332 89.7933 55.7414C89.7933 50.5439 86.3587 46.9268 81.4346 46.8964ZM85.2036 55.8326C85.2036 58.8417 83.5623 61.0606 81.3131 61.0606C79.0638 61.0606 77.4529 58.9025 77.4529 55.9238C77.4529 54.0089 78.2735 50.7262 81.3738 50.7262C84.383 50.7262 85.2036 54.0697 85.2036 55.8326Z" fill="black"/>
<path d="M104.687 42.9756C103.198 41.6382 100.948 40.9391 98.0304 40.9391C96.0547 40.9391 94.2006 41.0911 92.4984 41.3646L91.7994 41.4862V64.5257H96.2978V55.9847C96.7538 56.0151 97.2401 56.0455 97.696 56.0455C100.736 56.0455 103.319 55.1032 104.96 53.4011C106.237 52.0941 106.875 50.3312 106.875 48.1732C106.875 46.0759 106.085 44.2218 104.687 42.9756ZM102.346 48.3251C102.346 51.6078 99.4589 52.0941 97.7568 52.0941C97.1793 52.0941 96.693 52.0637 96.2978 52.0029V44.9209C96.7234 44.8601 97.3313 44.8297 98.0911 44.8297C100.036 44.8297 102.346 45.4376 102.346 48.3251Z" fill="black"/>
<path d="M120.675 59.9664V54.1001C120.675 49.4496 118.274 46.8964 113.897 46.8964C111.86 46.8964 109.763 47.4436 108.274 48.3858L107.696 48.7505L108.912 52.3372L109.824 51.6989C110.766 51.0606 112.103 50.6958 113.441 50.6958C114.353 50.6958 115.021 50.9086 115.447 51.3341C115.812 51.6989 116.024 52.2156 116.085 52.9147C112.559 53.0059 109.945 53.8569 108.365 55.4375C107.271 56.5317 106.723 57.9299 106.723 59.5712C106.723 62.2156 108.669 64.8904 112.346 64.8904C113.927 64.8904 115.416 64.3736 116.571 63.4922L116.693 64.5256H120.979L120.827 63.553C120.736 62.6411 120.675 61.4253 120.675 59.9664ZM113.106 61.1214C112.438 61.1214 111.313 60.8782 111.313 59.2673C111.313 58.6594 111.495 58.1426 111.891 57.7779C112.407 57.2612 113.593 56.6533 116.237 56.5925V58.4466C116.237 58.5682 116.237 58.8417 116.146 59.0849C115.842 59.9664 114.839 61.091 113.106 61.1214Z" fill="black"/>
<path d="M133.167 47.2005L129.884 56.927C129.793 57.1701 129.733 57.4133 129.641 57.6564C129.55 57.4133 129.459 57.1701 129.398 56.9573L125.812 47.1701H120.857L127.058 62.7324L127.088 62.7628C127.179 62.9756 127.21 63.0668 127.24 63.1276C127.21 63.2188 127.149 63.3707 127.088 63.4619C126.541 64.6169 125.751 65.6808 124.96 66.3191L124.93 66.3495C124.018 67.1093 123.106 67.4741 122.742 67.5653L121.951 67.8084L123.106 71.699L123.866 71.5774C124.322 71.4862 125.933 71.1215 127.757 69.5713C129.976 67.626 131.435 64.5257 133.35 59.4498L138 47.2005H133.167Z" fill="black"/>
<path d="M34.5653 47.5652C37.4832 44.5865 42.4377 42.7932 47.8176 42.7932C49.9149 42.7932 51.9513 43.0667 53.8966 43.5835L54.0486 43.6139L57.4832 42.5804L55.9331 42.0029C52.9848 40.8783 49.6109 40.3008 46.1155 40.3008C41.0699 40.3008 36.3282 41.5166 32.8328 43.7354L32.468 43.9786L33.927 48.2339L34.5653 47.5652Z" fill="#20D5B3"/>
</svg>
