<svg width="156" height="112" viewBox="0 0 156 112" fill="none" xmlns="http://www.w3.org/2000/svg">
<rect width="156" height="112" rx="16" fill="#F6F7F8"/>
<path d="M30.7233 61.4985L20 62.1702C20.3151 65.8525 21.667 68.8879 24.0555 71.2764C26.4439 73.6649 30.7399 74.8591 36.9433 74.8591C40.4763 74.8591 43.4039 74.3532 45.726 73.3414C48.0482 72.313 49.8561 70.8119 51.1499 68.8381C52.4437 66.8643 53.0905 64.708 53.0905 62.3693C53.0905 60.3789 52.6012 58.5792 51.6226 56.9703C50.6606 55.3614 49.1097 54.0179 46.97 52.9397C44.8469 51.845 41.3222 50.7669 36.396 49.7053C34.4056 49.2907 33.145 48.8428 32.6142 48.3618C32.0668 47.8974 31.7932 47.3749 31.7932 46.7943C31.7932 45.9982 32.1249 45.3264 32.7884 44.7791C33.4518 44.2151 34.4388 43.9331 35.7491 43.9331C37.3414 43.9331 38.5854 44.3063 39.4811 45.0527C40.3934 45.7991 40.9905 46.9934 41.2725 48.6355L51.8963 48.0135C51.4319 44.2317 49.9722 41.4783 47.5174 39.7533C45.0791 38.0117 41.5296 37.1409 36.8687 37.1409C33.0703 37.1409 30.0764 37.6219 27.887 38.5839C25.7141 39.5294 24.0803 40.8397 22.9856 42.515C21.9075 44.1736 21.3684 45.9401 21.3684 47.8144C21.3684 50.6674 22.43 53.0144 24.5531 54.8555C26.6596 56.6966 30.1843 58.1728 35.1271 59.2842C38.1459 59.9476 40.07 60.6526 40.8993 61.399C41.7286 62.1454 42.1433 62.9913 42.1433 63.9367C42.1433 64.9319 41.7037 65.811 40.8246 66.574C39.9621 67.3204 38.7264 67.6936 37.1175 67.6936C34.9612 67.6936 33.3026 66.9555 32.1415 65.4793C31.4283 64.567 30.9555 63.2401 30.7233 61.4985Z" fill="#303992"/>
<path fill-rule="evenodd" clip-rule="evenodd" d="M74.6759 37.7629H55.9411V74.2371H67.2616V60.7023H73.4319C77.9766 60.7023 81.352 59.6657 83.5581 57.5923C85.7807 55.519 86.892 52.6412 86.892 48.9589C86.892 45.3762 85.8719 42.6145 83.8317 40.6738C81.8081 38.7332 78.7562 37.7629 74.6759 37.7629ZM70.0233 53.3129H67.2616V45.1771H70.4711C72.5776 45.1771 74.0124 45.5752 74.7754 46.3714C75.5384 47.1675 75.9199 48.1379 75.9199 49.2824C75.9199 50.46 75.4803 51.4303 74.6012 52.1933C73.7221 52.9397 72.1961 53.3129 70.0233 53.3129Z" fill="#303992"/>
<path d="M136 37.7629H124.704V48.7599H129.481V40.7982L136 48.3197V37.7629Z" fill="#303992"/>
<path d="M136 57.1617L129.481 64.6831V56.7215H124.704V74.2371H136V57.1617Z" fill="#303992"/>
<path d="M89.7012 37.7627H119.906V46.5991H100.997V51.3472H118.537V58.4367H100.997V66.676H120.453V74.2369H89.7012V37.7627Z" fill="#F6861E"/>
</svg>
