<svg width="156" height="112" viewBox="0 0 156 112" fill="none" xmlns="http://www.w3.org/2000/svg">
<rect width="156" height="112" rx="16" fill="#F6F7F8"/>
<path fill-rule="evenodd" clip-rule="evenodd" d="M47.4928 34.175C53.193 34.175 58.6598 36.4395 62.6904 40.4701C66.7211 44.5008 68.9855 49.9675 68.9855 55.6678C68.9855 61.368 66.7211 66.8347 62.6904 70.8654C58.6598 74.8961 53.193 77.1605 47.4928 77.1605C41.7925 77.1605 36.3258 74.8961 32.2951 70.8654C28.2644 66.8347 26 61.368 26 55.6678C26 49.9675 28.2644 44.5008 32.2951 40.4701C36.3258 36.4395 41.7925 34.175 47.4928 34.175Z" fill="#F00F0F"/>
<path fill-rule="evenodd" clip-rule="evenodd" d="M43.7393 48.6525L43.5606 48.9206L43.65 49.1887L44.0968 49.278L45.1692 49.5461C45.348 49.6355 45.5267 49.9036 45.6161 50.1717L45.7054 51.4228L45.6161 53.8357L45.4373 56.8742C45.348 58.4828 45.1692 62.3256 44.8118 63.4874L44.2755 64.0236L43.4712 64.2023L42.935 64.2917L42.8457 64.6491C42.8457 64.7385 42.8457 64.8279 43.0244 64.9172L44.2755 64.8279H46.8672L48.2077 64.9172L48.3864 64.6491L48.2077 64.2917L47.314 64.2023L46.5991 64.0236L46.4204 63.6661C46.2416 63.2193 46.1523 62.415 46.2416 61.9681V58.8403L46.331 56.1593L46.5097 54.0145L46.5991 51.8697H46.6885C46.9566 52.4059 47.2247 52.9421 47.4034 53.657L48.2077 55.355L51.1568 61.6107L51.9611 63.398C52.2003 63.9218 52.4092 64.4588 52.5867 65.0066H53.0335L53.7484 63.4874L55.7145 59.3765L57.8593 55.1762L58.4849 53.9251C58.7941 53.2607 59.1219 52.605 59.4679 51.959L59.5573 62.1469V63.398C59.4679 63.5767 59.4679 63.8448 59.1998 63.9342C59.1105 64.1129 58.8424 64.2023 58.3955 64.2023L57.6806 64.2917L57.5912 64.6491L57.6806 64.9172L59.2892 64.8279H62.0596L63.5788 64.9172L63.7576 64.6491L63.6682 64.2917L62.8639 64.2023C62.5064 64.2023 62.2383 64.1129 62.0596 63.9342L61.7021 63.3086V62.2362L61.3446 54.7294V51.6016L61.5234 50.2611C61.5234 49.993 61.7021 49.7249 61.9702 49.5461C62.1489 49.4568 62.5958 49.278 63.132 49.278L63.5788 49.1887L63.6682 48.9206L63.5788 48.6525H59.5573C59.5573 49.1887 59.3786 49.8142 59.0211 50.5292L57.6806 53.2995L55.3571 57.9466C54.8209 59.2871 54.2847 60.4489 53.4803 61.7L51.7824 58.3041L49.012 52.674L48.029 50.4398C47.7609 49.7249 47.6715 49.0993 47.7609 48.6525H43.7393ZM33.0153 61.2532L32.9259 63.2193C32.8366 64.0236 32.3004 64.2917 31.4961 64.381L30.9599 64.4704C30.8705 64.5598 30.8705 64.9172 31.0492 65.096L34.0877 65.0066L37.3943 65.096L37.4837 64.7385L37.3943 64.4704L36.6794 64.381C36.1432 64.2917 35.7857 64.2023 35.607 64.0236H35.5176C35.3389 63.8448 35.2495 63.5767 35.1601 63.2193L35.0707 61.2532V58.9297L33.0153 58.8403V61.2532ZM30.8705 48.9206L30.9599 49.278L31.8535 49.3674C32.211 49.4568 32.4791 49.5461 32.6578 49.7249C32.8366 49.8142 32.9259 50.0823 33.0153 50.4398V57.0529H35.0707V50.1717L35.1601 49.5461C35.1601 49.4568 35.3389 49.278 35.5176 49.278H36.5006C37.7518 49.278 38.7348 49.6355 39.4497 50.3504C40.0753 51.0654 40.4328 52.0484 40.4328 53.2102C40.5221 54.2826 40.1647 55.1762 39.6285 55.9805C39.0923 56.6061 38.3773 57.0529 37.3943 57.321C34.2413 57.5622 31.0744 57.5622 27.9214 57.321L32.5685 58.1253C34.9104 58.3903 37.2818 58.1775 39.5391 57.4998L41.3264 56.4274C41.6839 56.1593 42.0414 55.7124 42.3988 55.1762C42.8235 54.1824 42.8954 53.0733 42.6028 52.0329C42.3102 50.9926 41.6706 50.0835 40.7902 49.4568C40.1647 49.0993 39.5391 48.8312 38.7348 48.6525L35.9644 48.4737H33.194L31.0492 48.6525L30.8705 48.9206Z" fill="white"/>
<path d="M75.3753 46.597L77.252 46.7758V49.993C77.252 51.5122 77.5201 51.7803 79.1287 51.8697L79.5755 52.3165L79.1287 52.5846H73.9454L73.4092 52.3165L73.7667 52.0484C75.1072 51.7803 75.3753 51.5122 75.3753 50.0823V46.597ZM131.14 51.4228L130.962 51.8697C129.978 52.674 128.37 52.9421 127.297 52.4059C126.583 52.0484 126.314 51.4228 126.314 50.4398V45.3459C126.314 44.0054 126.314 44.0054 124.885 43.916L125.421 43.3798C126.314 43.1117 126.94 42.4862 127.297 41.6819L127.655 41.3244L127.923 41.8606C127.923 43.0224 127.923 42.8436 129.085 42.8436H130.693C130.962 42.8436 131.14 42.8436 131.14 43.2905C131.14 43.6479 131.051 43.7373 130.693 43.7373H128.638C128.191 43.7373 127.923 43.916 127.923 44.2735C127.923 46.0608 127.923 48.0269 128.102 49.8142C128.191 51.2441 129.353 51.7803 130.693 51.1547C130.783 50.976 130.962 50.976 131.051 50.976L131.14 51.4228ZM93.1593 43.7373L95.8403 42.4862C95.8403 43.1117 95.8403 43.6479 96.019 44.1841C96.4659 43.7373 96.9127 43.5586 97.2702 43.2905C97.8064 43.0224 98.3426 42.8436 98.9681 42.8436C99.5937 42.8436 99.8618 43.5586 99.5937 44.1841C99.3256 44.7203 98.7894 44.8991 98.3426 44.7203C98.1638 44.7203 98.0745 44.5416 97.8957 44.4522C96.9127 43.916 96.1084 44.2735 96.1084 45.4353V50.976C96.1084 51.5122 96.4659 51.7803 96.9127 51.7803H97.5383L97.8957 52.0484L97.5383 52.3165C96.4659 52.3165 95.4828 52.3165 94.3211 52.1378C93.9636 52.1378 93.6955 52.3165 93.2487 52.1378L92.8912 51.8697C92.9806 51.7803 92.9806 51.6016 93.1593 51.6016C94.3211 51.2441 94.3211 51.2441 94.3211 50.0823V45.4353C94.3211 44.8097 94.3211 44.1841 93.5168 43.7373C93.4274 44.0054 93.2487 43.916 93.1593 43.7373ZM115.68 48.2056C115.68 45.1672 117.646 43.1117 120.327 42.8436C121.221 42.7543 122.025 42.8436 122.918 43.0224C123.723 43.1117 123.991 43.6479 123.812 44.2735C123.812 44.5416 123.723 44.8097 123.455 44.8097L122.918 44.5416C122.114 43.7373 121.221 43.2905 120.059 43.5586C119.344 43.6479 118.718 44.1841 118.182 44.8097C116.484 47.2226 117.914 50.976 120.774 51.2441C121.935 51.4228 122.829 51.1547 123.544 50.2611L124.08 49.993V50.6185C123.276 52.1378 121.399 52.7633 119.433 52.5846C117.646 52.3165 116.395 50.8866 115.948 49.1887L115.68 48.2056ZM111.748 46.3289H109.424C108.53 46.3289 108.53 46.3289 108.53 47.2226C108.62 49.4568 109.782 50.976 111.748 51.4228C112.731 51.5122 113.535 51.4228 114.25 50.6185L114.786 50.3504L114.697 50.976C113.803 52.4059 111.926 53.0314 110.139 52.674C108.53 52.3165 107.19 50.976 106.922 49.1887C106.654 47.2226 106.922 45.3459 108.53 43.916C110.05 42.4862 112.641 42.3968 113.892 43.6479L114.518 44.5416C115.054 45.8821 114.786 46.2396 113.535 46.2396L111.748 46.3289ZM108.709 45.614H112.373C112.641 45.614 113.267 45.3459 113.267 45.1672C113.267 44.8097 113.088 44.2735 112.909 44.0054C112.194 43.5586 111.48 43.5586 110.675 43.7373C109.692 44.0054 108.977 44.5416 108.709 45.614ZM86.278 46.3289C86.0993 46.3289 85.8312 46.597 85.8312 46.7758C85.3844 48.9206 87.0823 51.2441 89.4059 51.4228C90.2102 51.4228 90.9251 51.1547 91.6401 50.6185C91.7294 50.4398 91.9975 50.3504 92.2656 50.3504C92.2656 50.6185 92.2656 50.8866 92.0869 51.1547C91.5944 51.819 90.9131 52.3193 90.1319 52.5904C89.3507 52.8614 88.5059 52.8905 87.7079 52.674C86.0993 52.4059 85.0269 51.4228 84.4907 49.8142C83.597 47.1332 84.9375 44.1841 87.3504 43.1117C88.7803 42.5755 90.0314 42.5755 91.3719 43.6479C91.7294 43.916 91.9975 44.2735 92.0869 44.7203C92.6231 45.8821 92.2656 46.3289 91.1039 46.3289H86.278ZM86.0993 45.614H89.4952C89.7633 45.614 90.2995 45.3459 90.4783 45.1672C90.657 44.7203 90.4783 44.1841 89.9421 43.916C89.4059 43.6479 88.7803 43.5586 88.2441 43.6479C87.0823 43.6479 86.0993 44.7203 86.0993 45.614ZM119.433 65.9896H116.842C116.573 65.9896 116.216 66.1684 116.216 66.3471C116.127 68.4025 117.11 70.8154 119.969 70.9942C120.684 70.9942 121.399 70.7261 122.025 70.1899L122.65 69.8324L122.382 70.6367C121.882 71.2916 121.2 71.7849 120.421 72.055C119.643 72.3252 118.802 72.3603 118.003 72.1559C116.216 71.7985 115.322 70.6367 114.786 68.9387C114.161 66.079 115.59 63.2193 118.182 62.5043C119.969 61.9681 121.667 62.5043 122.382 63.9342L122.65 64.381C123.008 65.4534 122.829 65.8109 121.667 65.8109C120.952 65.9896 120.237 65.9896 119.433 65.9896ZM116.484 65.1853H120.059C120.327 65.1853 120.952 64.9172 120.952 64.8279C120.952 64.381 120.863 63.9342 120.595 63.6661C119.969 62.9512 119.165 62.9512 118.271 63.398C117.378 63.6661 116.752 64.1129 116.484 65.1853ZM128.995 69.8324L130.783 65.5428C131.051 65.096 131.14 64.6491 131.319 64.1129C131.408 63.6661 131.319 63.398 130.783 63.2193L130.247 63.1299L129.978 62.7724L130.247 62.5937H133.732C133.911 62.5937 134 62.7724 134 62.8618C133.911 62.9512 133.911 63.2193 133.732 63.2193C132.749 63.398 132.302 64.1129 131.945 64.9172L126.404 76.5349C125.868 77.5179 125.331 77.9648 124.616 77.786C124.08 77.6967 123.723 77.4286 123.723 76.8924C123.723 76.3562 123.991 75.9093 124.438 75.9093C125.6 75.9987 126.046 75.1944 126.404 74.4795L126.493 74.3007C127.566 72.7815 127.655 71.2623 126.94 69.5643C126.136 68.0451 125.6 66.3471 125.153 64.6491C124.885 63.9342 124.438 63.2193 123.544 63.1299L123.187 62.7724L123.544 62.5043H127.297L127.655 62.7724L127.297 63.1299C126.404 63.4874 126.404 63.4874 126.672 64.381L128.191 68.76C128.727 69.2068 128.817 69.4749 128.995 69.8324ZM102.9 67.2408C102.9 70.1899 101.024 72.2453 97.8957 72.424C95.2147 72.424 92.9806 70.3686 92.9806 67.5089C92.9806 64.5598 95.036 62.3256 98.0745 62.3256C100.845 62.3256 102.9 64.381 102.9 67.2408ZM95.036 67.3301C95.036 68.4919 95.3041 69.9218 96.4659 70.9942C97.5383 71.8878 99.0575 71.8878 99.9512 70.8154C101.381 69.0281 101.292 65.4534 99.5937 63.7555C99.3484 63.5067 99.052 63.3143 98.725 63.1913C98.398 63.0684 98.0482 63.0179 97.6998 63.0434C97.3514 63.0689 97.0126 63.1698 96.707 63.339C96.4014 63.5082 96.1362 63.7418 95.9297 64.0236C95.3041 64.9172 95.036 66.079 95.036 67.3301Z" fill="#F00F0F"/>
<path d="M100.666 43.916C100.755 43.7373 100.845 43.5586 101.113 43.5586C101.917 43.2905 102.007 42.7543 102.185 41.95C102.275 40.4307 102.543 38.9115 103.436 37.571C104.598 36.0517 106.296 35.2474 108.084 35.7836C108.53 35.873 108.977 36.1411 109.245 36.588C109.692 36.9454 109.513 37.3029 109.156 37.7497C108.709 38.1072 108.352 38.0178 107.994 37.7497L107.458 37.2135C106.296 36.3198 104.866 36.588 104.509 38.1072L103.973 40.5201V42.7543C103.973 43.2905 104.062 43.3798 104.598 43.3798H107.101C107.369 44.1841 107.19 44.2735 106.386 44.2735H104.509C104.33 44.2735 103.973 44.5416 103.973 44.8097V51.1547C103.973 51.7803 104.241 52.0484 104.866 52.1378H105.224L105.76 52.5846L105.224 52.7633H102.007C101.649 52.7633 101.381 52.9421 101.024 52.7633L100.666 52.5846L100.845 52.3165C102.007 51.8697 102.185 51.7803 102.185 50.6185V45.4353C102.185 44.5416 102.185 44.5416 101.292 44.5416H100.845L100.666 43.916ZM77.252 44.8991H75.3753V39.1796C75.3753 38.0178 75.1072 37.8391 73.9454 37.571C73.6773 37.571 73.5879 37.3029 73.3198 37.2135C73.5879 37.0348 73.6773 36.9454 73.9454 36.9454H80.3798C83.5077 37.2135 85.1163 39.8052 84.4013 42.5755C83.8651 44.2735 82.614 44.8991 81.1841 45.4353C78.9499 46.2396 76.8051 46.2396 74.571 45.8821L71.6218 45.4353H75.7327C77.0732 45.4353 78.3244 45.3459 79.5755 45.0778C81.631 44.7203 82.7034 43.0224 82.4353 40.9669C82.1672 38.6434 81.0054 37.571 78.6818 37.4816H78.5925C77.252 37.4816 77.252 37.4816 77.252 38.7328V44.8991ZM106.386 62.0575L106.564 63.6661C107.19 63.398 107.547 62.9512 108.084 62.8618C108.709 62.5937 109.513 62.3256 110.318 62.3256C111.926 62.3256 112.82 63.4874 112.82 65.1853V70.3686C112.82 71.0835 113.088 71.3516 113.892 71.5304L114.429 71.8878L113.892 72.1559H110.318L109.782 71.8878L110.318 71.5304C110.943 71.3516 111.211 70.9942 111.211 70.458V65.7215C111.211 64.2917 110.318 63.4874 108.888 63.6661C107.458 63.6661 106.654 64.381 106.654 65.8109V70.3686C106.654 71.2623 106.832 71.3516 107.726 71.6197L108.084 71.9772L107.726 72.2453H103.973C103.794 72.2453 103.705 72.1559 103.615 71.9772L103.794 71.6197C104.866 71.3516 104.866 71.2623 104.866 70.1899V65.2747C104.866 64.6491 104.777 64.2917 104.241 63.9342C103.794 63.6661 103.794 63.4874 104.33 63.2193L106.386 62.0575ZM89.2271 56.4274H92.6231L92.9806 56.6955L92.6231 57.0529H92.355C91.1039 57.321 90.8357 57.5891 90.8357 59.019L91.1039 70.1899C91.1039 71.0835 91.4613 71.5304 92.355 71.5304H92.6231L92.9806 71.7985L92.6231 71.9772H87.6185L87.1717 71.7985C87.3504 71.6197 87.4398 71.5304 87.6185 71.5304C89.0484 71.3516 89.0484 71.2623 89.0484 69.8324V59.7339L88.7803 59.6446C86.7249 63.7555 84.6694 68.0451 82.4353 72.2453C80.3798 67.8663 78.4137 63.7555 76.537 59.4658H76.3583C76.2689 60.8957 76.0902 62.2362 76.0902 63.6661L76.0008 69.2068V69.9218C76.0902 70.9942 76.3583 71.2623 77.4307 71.2623H77.6988L78.0563 71.5304L77.6988 71.7985H73.1411L72.7836 71.5304C72.873 71.3516 72.873 71.2623 73.0517 71.2623C74.571 70.8154 74.6603 70.7261 74.8391 69.2068L75.4646 58.7509C75.6434 57.2317 75.3753 57.2317 73.9454 56.7848L73.4092 56.4274C73.4986 56.2486 73.7667 56.1593 73.9454 56.1593H77.1626C78.3244 60.6276 81.0054 64.381 82.9715 68.6706C85.295 64.8279 87.6185 60.8064 89.2271 56.4274Z" fill="#F00F0F"/>
</svg>
