<svg width="128" height="81" viewBox="0 0 128 81" fill="none" xmlns="http://www.w3.org/2000/svg">
<g id="payment methods / payment method-przelewy24">
<g id="logo">
<path d="M99.0223 44.6394H96.3472C96.3472 44.6394 96.6225 42.3773 97.1143 41.2955C97.547 40.194 98.2158 39.4072 99.396 38.9744C100.557 38.5417 101.717 38.4433 104.018 38.404C106.34 38.3647 107.126 38.581 107.893 38.9154C108.641 39.2695 109.27 40.0563 109.447 40.7251C109.605 41.3938 109.388 43.5182 109.388 43.5182C109.388 43.5182 109.074 45.7016 108.247 46.8424C107.421 48.0029 105.336 48.534 105.336 48.534L101.501 49.5765C101.501 49.5765 99.8484 50.0093 99.3567 50.1863C98.6474 50.4396 98.5036 50.5769 98.39 50.6854C98.3712 50.7033 98.3533 50.7204 98.3338 50.7371C97.9011 51.0911 97.7831 52.173 97.7831 52.173L97.606 53.2155L107.756 53.1958L107.323 55.7529H94.4785C94.4785 55.7529 95.108 52.0353 95.226 51.5042C95.344 50.9534 95.6587 49.9306 96.4849 49.0258C97.311 48.1406 98.7666 47.7079 98.7666 47.7079L101.147 47.0194C101.147 47.0194 104.176 46.2523 105.061 45.9573C105.435 45.8392 106.064 45.5639 106.3 45.1508C106.556 44.6984 106.654 43.9706 106.654 43.9706L106.871 42.338C106.871 42.338 107.166 41.2561 106.025 41.1185C104.884 41.0004 104.471 40.9808 103.35 40.9414C102.622 40.9218 101.737 40.9414 101.029 41.0594C100.635 41.1381 100.301 41.2365 100.104 41.3545C99.4747 41.7086 99.1796 43.5969 99.1796 43.5969L99.0223 44.6394Z" fill="#B3B2B1"/>
<path fill-rule="evenodd" clip-rule="evenodd" d="M122.331 38.6401L120.522 49.4192H123L122.567 51.996H120.109L119.479 55.7923H116.804L117.433 51.996H108.759L109.211 49.3012L119.145 38.6401H122.331ZM112.28 49.4192H117.886L119.105 42.1413L112.28 49.4192Z" fill="#B3B2B1"/>
<path d="M76.4216 26.8382L79.5884 20.4848C79.5884 20.4848 86.5122 20.3471 92.4919 21.2716C98.4716 22.1961 103.94 23.6123 103.822 23.6713L88.6563 31.5983C88.6563 31.5983 85.1157 29.3559 80.7096 27.979C78.2312 27.2513 76.4216 26.8382 76.4216 26.8382Z" fill="#B3B2B1"/>
<path d="M56.3779 23.8484L57.0466 27.5464C57.0466 27.5464 60.0955 26.7399 63.7344 26.3072C68.4355 25.6581 73.4317 26.3465 73.4317 26.3465L75.32 20.6226C75.32 20.6226 69.6354 20.9963 65.3474 21.8028C61.0593 22.6092 56.3779 23.8484 56.3779 23.8484Z" fill="#B3B2B1"/>
<path d="M42.2549 33.6243L38.4586 31.0673C38.4586 31.0673 41.8812 29.1199 46.4642 27.2906C51.0277 25.481 53.4667 24.7139 53.4667 24.7139L54.2339 28.3331C54.2339 28.3331 49.8475 29.8084 47.3297 30.9886C44.7333 32.1098 42.2549 33.6243 42.2549 33.6243Z" fill="#B3B2B1"/>
<path d="M24.6896 40.0366H32.8723C32.8723 40.0366 34.7016 38.5613 35.9998 37.5975C37.2981 36.6534 39.6781 35.1388 39.6781 35.1388L35.0557 32.9751C35.0557 32.9751 31.1414 35.3945 29.4891 36.5353C27.8762 37.5975 24.6896 40.0366 24.6896 40.0366Z" fill="#B3B2B1"/>
<path d="M94.7146 35.8667L91.3904 33.3293L110.372 26.0317C112.87 27.1529 114.227 27.7627 116.647 29.3363C117.591 29.9461 118.85 30.9295 119.164 31.2443C120.03 32.1097 120.856 32.9359 121.308 33.7227C122.036 34.9816 122.095 35.8667 122.095 35.8667H94.7146Z" fill="#B3B2B1"/>
<path fill-rule="evenodd" clip-rule="evenodd" d="M18.2182 39.0927C18.5526 39.2304 18.8476 39.4074 19.064 39.6238C19.1794 39.7391 19.2736 39.8651 19.3699 39.9939C19.405 40.0407 19.4404 40.088 19.4771 40.1352C19.7721 40.6859 19.8311 41.2564 19.8311 41.6301C19.8311 41.9055 19.7918 42.0825 19.7918 42.0825C19.7918 42.0825 19.7721 42.2399 19.7328 42.4759C19.6738 43.0267 19.5164 44.0495 19.3787 44.8953C19.241 45.6821 19.0837 46.3115 19.0837 46.3115C19.0837 46.3115 18.6903 48.0228 17.274 48.7703C15.8578 49.5177 13.8515 49.4391 13.8515 49.4391L8.69795 49.4194L7.65544 55.7728H5L7.83247 38.6206H15.2677C15.2677 38.6206 15.4644 38.6206 15.7791 38.6403C16.1135 38.6599 16.5856 38.6993 17.0773 38.778C17.4707 38.8566 17.8641 38.955 18.2182 39.0927ZM16.4676 45.7018C16.7823 44.0692 17.0183 42.6923 17.0183 42.6529C17.0183 42.6494 17.0196 42.6391 17.0215 42.6231C17.0305 42.5487 17.0542 42.3517 17.038 42.1415C17.0183 41.9448 16.979 41.7284 16.8413 41.5711C16.743 41.4531 16.4282 41.3744 16.0348 41.3154C15.5628 41.2564 15.012 41.2367 14.5989 41.2367H13.9695L10.0748 41.217L9.13069 46.9213L13.4384 46.941C13.4384 46.941 14.4219 46.9803 15.3267 46.7836C15.8775 46.6656 16.3496 46.3312 16.4676 45.7018Z" fill="#D13239"/>
<path d="M39.4617 43.4005L29.7054 43.4202L29.312 45.8199H35.5474L27.7384 53.3141L27.3254 55.7729H37.3964L37.7898 53.3928H30.9446L39.1077 45.6232L39.4617 43.4005Z" fill="#D13239"/>
<path d="M52.6603 38.6207H55.2174L52.3652 55.7729H49.8081L52.6603 38.6207Z" fill="#D13239"/>
<path d="M68.7503 43.4005L66.2915 43.4202L67.5504 55.7729H70.5009L74.3169 47.1181L75.1824 55.7729H78.1918L83.6011 43.4005H81.044L77.287 52.1536L76.4019 43.4005H73.3727L69.6158 52.1143L68.7503 43.4005Z" fill="#D13239"/>
<path fill-rule="evenodd" clip-rule="evenodd" d="M47.9591 43.5186C47.251 43.2826 46.0118 43.2433 44.9496 43.2433C43.9268 43.2629 43.4744 43.3023 43.081 43.3809C43.081 43.3809 41.2714 43.6367 40.2485 44.9152C39.2257 46.1938 38.911 48.9672 38.911 48.9672C38.911 48.9672 38.3012 52.0357 38.4782 53.0586C38.6553 54.0814 38.97 55.0255 40.1305 55.478C41.291 55.9304 42.2745 55.9107 42.2745 55.9107C42.2745 55.9107 44.3399 56.0681 45.8938 55.714C47.4477 55.3599 48.2739 54.2584 48.2739 54.2584C48.2739 54.2584 48.6476 53.7863 48.9033 53.2159C49.1171 52.739 49.2071 52.3996 49.2424 52.2666C49.2493 52.2406 49.2541 52.2224 49.2574 52.2127L49.4147 51.544H46.7593C46.7593 51.544 46.6216 53.2946 45.1857 53.452C43.796 53.6042 43.0512 53.5539 42.7372 53.5326L42.7073 53.5306C42.6832 53.5289 42.6495 53.5279 42.6082 53.5268C42.1763 53.5144 40.9079 53.4779 41.0157 52.3111V52.2324C41.0747 50.7768 41.2517 50.4031 41.2517 50.4031L49.5721 50.3834L49.9261 48.3181C50.3785 45.9774 50.0835 44.2071 47.9591 43.5186ZM47.3887 48.0231H41.6844L41.9008 47.1182C41.9008 47.1182 42.0975 46.4101 42.4909 46.1151C42.8843 45.82 43.3957 45.761 43.8678 45.7217C44.3399 45.6823 45.5988 45.584 46.6413 45.8004C46.9756 45.8594 47.31 46.0561 47.3887 46.3511C47.6051 47.0002 47.3887 48.0231 47.3887 48.0231Z" fill="#D13239"/>
<path fill-rule="evenodd" clip-rule="evenodd" d="M60.6266 43.2433C61.6887 43.2433 62.928 43.2826 63.6361 43.5186C65.7801 44.2071 66.0555 45.997 65.6031 48.3378L65.249 50.4031L56.9286 50.4228C56.9286 50.4228 56.7516 50.7965 56.6926 52.2521V52.3308C56.5849 53.4976 57.8533 53.534 58.2851 53.5464C58.3265 53.5476 58.3601 53.5486 58.3842 53.5503C58.4334 53.5503 58.4952 53.5519 58.5707 53.554C58.9478 53.564 59.6663 53.5831 60.8626 53.452C62.2985 53.2946 62.4362 51.544 62.4362 51.544H65.0916L64.9343 52.2127C64.9311 52.2223 64.9264 52.2402 64.9195 52.2659C64.8843 52.3988 64.794 52.739 64.5802 53.2159C64.3245 53.7863 63.9508 54.2584 63.9508 54.2584C63.9508 54.2584 63.1247 55.3403 61.5707 55.714C60.0168 56.0681 57.9515 55.9107 57.9515 55.9107C57.9515 55.9107 56.968 55.9304 55.8074 55.478C54.6469 55.0255 54.3322 54.0814 54.1552 53.0586C53.9781 52.0357 54.5879 48.9672 54.5879 48.9672C54.5879 48.9672 54.9026 46.1938 55.9255 44.9152C56.9483 43.6367 58.7579 43.3809 58.7579 43.3809C59.1513 43.3023 59.6037 43.2629 60.6266 43.2433ZM57.3614 48.0231H63.0656C63.0656 48.0231 63.282 47.0002 63.0656 46.3511C62.987 46.0561 62.6526 45.8594 62.3182 45.8004C61.2757 45.584 60.0168 45.6823 59.5447 45.7217C59.0726 45.761 58.5612 45.82 58.1678 46.1151C57.7744 46.4101 57.5777 47.1182 57.5777 47.1182L57.3614 48.0231Z" fill="#D13239"/>
<path d="M86.5319 43.4203L88.1645 52.4685L92.7869 43.4203L95.3834 43.44L88.7153 56.3631C88.7153 56.3631 87.5154 58.7038 86.7679 59.2939C86.0205 59.884 85.5681 60.1594 84.9583 60.2184L84.813 60.2327C84.3038 60.283 84.0453 60.3086 83.5224 60.2184L82.893 60.1004L83.2864 57.799C83.2864 57.799 84.3289 57.9957 84.9386 57.74C85.5484 57.504 86.0401 56.4418 86.0401 56.4418L86.3549 55.9107L83.9355 43.381L86.5319 43.4203Z" fill="#D13239"/>
<path d="M23.6274 44.266C24.4536 43.8136 25.4371 43.4005 26.4599 43.4005H27.9548L27.5221 45.8002H26.1058C24.0798 45.8002 23.057 47.5115 22.8013 48.8884L21.6014 55.7139H18.8673L21.0507 43.4005H23.7651L23.6274 44.266Z" fill="#D13239"/>
</g>
</g>
</svg>
