<svg width="156" height="112" viewBox="0 0 156 112" fill="none" xmlns="http://www.w3.org/2000/svg">
<rect width="156" height="112" rx="16" fill="#F6F7F8"/>
<path d="M78 87.9973C95.6731 87.9973 110 73.671 110 55.9986C110 38.3263 95.6731 24 78 24C60.3269 24 46 38.3263 46 55.9986C46 73.671 60.3269 87.9973 78 87.9973Z" fill="url(#paint0_radial_16450_10906)"/>
<path d="M86.6306 48.1265H79.0553C79.0212 48.1265 78.9872 48.1217 78.9539 48.1286C77.7486 48.39 75.477 49.6221 75.4886 52.3132C75.4261 53.3485 75.8795 54.9966 78.0447 55.6836C78.0512 55.6836 83.4446 55.6836 83.4446 55.6836C83.6837 55.6836 85.1583 56.021 85.0604 58.5931C84.9615 61.1863 82.7507 61.5232 82.4326 61.8667H74.0655C73.8017 61.8667 73.5877 62.1182 73.5877 62.382C73.5877 62.6458 73.8017 62.8973 74.0655 62.8973H82.4786C82.5058 62.8973 82.5326 62.7715 82.5594 62.7667C83.708 62.5703 85.9082 61.392 86.0157 58.5736C86.1545 54.9286 83.5174 54.6985 83.4906 54.6967C83.4944 54.6957 78.1608 54.6813 78.1608 54.6813C76.3398 54.3481 76.4381 52.4148 76.4436 52.3307C76.4443 52.319 76.4446 52.3492 76.4446 52.3375C76.425 49.8963 78.7451 49.157 79.1116 49.157H86.6309C86.8948 49.157 87.1088 48.9056 87.1088 48.6418C87.1084 48.378 86.8944 48.1265 86.6306 48.1265Z" fill="white"/>
<path d="M98.1645 48.0726C98.1209 48.0602 98.0755 48.1265 98.0302 48.1265H92.3699C89.8077 48.1265 88.6504 51.0934 88.6027 51.2229C88.5948 51.2438 88.5889 51.2284 88.5838 51.2504C88.525 51.5159 87.1455 57.7553 87.1919 59.8153C87.2362 61.7534 89.21 62.4579 90.2474 62.5689C90.2645 62.5709 90.2817 62.5541 90.2992 62.5541H98.1683C98.4355 62.5541 98.6526 62.3061 98.6526 62.0388C98.6526 61.7716 98.4359 61.5236 98.1683 61.5236H90.3288C90.0825 61.5236 88.1949 61.2357 88.1609 59.7356C88.1427 58.9305 88.3718 57.3895 88.648 55.8327L99.5993 55.751C99.8329 55.7493 100.032 55.5854 100.072 55.3549C100.094 55.2347 100.586 52.4341 100.586 50.7547C100.585 48.7565 98.2634 48.1014 98.1645 48.0726ZM99.1837 54.7953L88.8256 54.8819C89.1437 53.1943 89.4673 51.811 89.5219 51.5626C89.6325 51.2861 90.5826 49.1567 92.3699 49.1567H97.9536C98.2559 49.1567 99.6168 49.6912 99.6168 50.8237C99.6168 52.0621 99.3194 53.9517 99.1837 54.7953Z" fill="white"/>
<path d="M74.048 51.0271C74.332 49.0942 71.8907 48.1265 71.4339 48.1265C71.4332 48.1265 71.4325 48.1265 71.4325 48.1265C69.4611 48.1265 66.4747 48.1942 66.1631 48.1835C66.1216 48.1791 66.0786 48.2065 66.0353 48.2131C64.8145 48.4075 63.1568 49.9797 62.6243 51.4341L62.6326 51.4441C62.5793 51.6062 62.5326 51.8563 62.4615 52.2321C62.3753 52.6866 62.2547 53.3375 62.1108 54.1162C61.8236 55.6723 61.4447 57.7481 61.0669 59.8229C60.3112 63.9721 59.5609 68.1213 59.5609 68.1213C59.5146 68.3772 59.6846 68.6225 59.9405 68.6689C59.9687 68.674 59.9968 68.6768 60.0247 68.6768C60.2479 68.6768 60.4465 68.5174 60.4874 68.2893C60.8048 66.5353 61.3252 63.6629 61.8466 60.7991C63.076 62.3501 64.6053 62.5129 64.6819 62.5201C64.7008 62.5222 64.7197 62.5235 64.7393 62.5218L69.5796 62.3834C69.6212 62.3824 69.6617 62.3758 69.7012 62.3638C71.9976 61.6751 72.688 59.3056 72.7165 59.2049C72.721 59.1881 72.7251 59.1709 72.7279 59.1534L74.0418 51.1054C74.0452 51.0882 74.0456 51.0442 74.048 51.0271ZM73.1081 51.0089L71.8038 58.97C71.7358 59.1833 71.1361 60.9139 69.4889 61.4436L64.7486 61.5789C64.5301 61.5483 63.051 61.2763 62.0926 59.4509C62.7906 55.6197 63.4316 52.128 63.5143 51.7574C63.9537 50.5771 65.3748 49.3089 66.1721 49.1725C66.3527 49.1835 66.5997 49.1838 66.9415 49.1845C67.4406 49.1852 68.1074 49.1848 68.7734 49.1835C69.8771 49.1818 70.9801 49.178 71.3253 49.1766C71.8846 49.1725 73.2442 50.1216 73.1081 51.0089Z" fill="white"/>
<path d="M52.2443 47.8531C52.9885 47.8531 53.5918 47.2094 53.5918 46.4155C53.5918 45.6215 52.9885 44.9779 52.2443 44.9779C51.5 44.9779 50.8967 45.6215 50.8967 46.4155C50.8967 47.2094 51.5 47.8531 52.2443 47.8531Z" fill="#FDB718"/>
<path d="M50.8836 41.8774C50.8836 41.2457 50.4992 40.715 49.9682 40.5223C49.5196 41.334 49.1049 42.1674 48.7267 43.0203C48.9528 43.2027 49.231 43.315 49.536 43.315C50.2804 43.315 50.8836 42.6713 50.8836 41.8774Z" fill="#FDB718"/>
<path d="M48.1627 46.4155C48.1627 46.0256 48.016 45.6728 47.7797 45.4138C47.5028 46.2053 47.2559 47.0104 47.0408 47.8287C47.677 47.7136 48.1627 47.1269 48.1627 46.4155Z" fill="#FDB718"/>
<path d="M52.4322 65.3671C53.1764 65.3671 53.7797 64.7234 53.7797 63.9295C53.7797 63.1355 53.1764 62.4919 52.4322 62.4919C51.6879 62.4919 51.0846 63.1355 51.0846 63.9295C51.0846 64.7234 51.6879 65.3671 52.4322 65.3671Z" fill="#FDB718"/>
<path d="M47.6719 63.9295C47.6719 63.3301 47.2545 62.8392 46.7135 62.7575C46.8667 63.4675 47.0422 64.1693 47.2418 64.8611C47.5018 64.6433 47.6719 64.3091 47.6719 63.9295Z" fill="#FDB718"/>
<path d="M50.8774 68.6173C50.8774 67.8235 50.2742 67.1798 49.5299 67.1798C48.9985 67.1798 48.5437 67.5106 48.3242 67.987C48.6031 68.6754 48.9047 69.3521 49.2293 70.0157C49.3262 70.0394 49.4261 70.0546 49.5299 70.0546C50.2739 70.0549 50.8774 69.4112 50.8774 68.6173Z" fill="#FDB718"/>
<path d="M53.1649 59.4622H50.4625C50.2873 59.1187 49.7854 58.5275 49.1864 58.5275C48.442 58.5275 47.8388 59.2022 47.8388 59.996C47.8388 60.7898 48.442 61.4614 49.1864 61.4614C49.7854 61.4614 50.2873 61.1794 50.4625 60.4924H53.5008L56.3351 55.3398H60.7062V54.6528H53.5406L50.5951 49.5002H46.6485C46.5785 49.8416 46.5153 50.1855 46.4558 50.5307H50.1667L52.5775 54.6528H46.0213C46.012 54.8812 46.0045 55.11 46 55.3398H55.5089L53.1649 59.4622Z" fill="#FDB718"/>
<path fill-rule="evenodd" clip-rule="evenodd" d="M65.6349 44.0041H64.2213V43.6606H65.6908L65.7146 43.6676L65.6661 43.8323C65.7146 43.6676 65.7146 43.6676 65.7146 43.6676L65.715 43.6677L65.7154 43.6678L65.7164 43.6681L65.7188 43.6689L65.7255 43.671C65.7307 43.6728 65.7375 43.6752 65.7456 43.6783C65.7618 43.6845 65.7834 43.6936 65.8086 43.7063C65.8583 43.7315 65.9243 43.7719 65.988 43.8335C66.1211 43.9624 66.2308 44.1723 66.1847 44.48L65.8896 46.545H64.1902L64.1613 46.5343L64.221 46.3732C64.1613 46.5343 64.1613 46.5343 64.1613 46.5343L64.1609 46.5342L64.1605 46.534L64.1594 46.5336L64.1565 46.5325L64.1479 46.529C64.141 46.5261 64.1317 46.5221 64.1204 46.5169C64.098 46.5065 64.0676 46.4912 64.0328 46.4702C63.964 46.4289 63.8736 46.3631 63.7952 46.2671C63.7158 46.1697 63.6482 46.0407 63.6299 45.8775C63.6116 45.7146 63.6439 45.5311 63.7424 45.3272L63.7513 45.3086L63.7644 45.2927L63.897 45.4018C63.7644 45.2927 63.7644 45.2927 63.7644 45.2927L63.7647 45.2924L63.765 45.2919L63.7661 45.2906L63.7696 45.2865C63.7726 45.283 63.7767 45.2781 63.782 45.2721C63.7924 45.2601 63.8074 45.2434 63.8262 45.2236C63.8634 45.1841 63.9167 45.131 63.9802 45.0775C64.0433 45.0243 64.1198 44.9678 64.2038 44.9238C64.2865 44.8806 64.3871 44.844 64.4951 44.844H64.498L65.7795 44.887L65.8447 44.4308L65.8449 44.4296C65.8735 44.2396 65.8088 44.1382 65.749 44.0803C65.7162 44.0485 65.6809 44.0267 65.6536 44.0129C65.6466 44.0093 65.6403 44.0064 65.6349 44.0041ZM65.7306 45.229L64.4928 45.1875C64.4608 45.188 64.4173 45.1998 64.363 45.2282C64.3085 45.2567 64.2531 45.2967 64.2017 45.3401C64.1507 45.383 64.107 45.4265 64.076 45.4594C64.0618 45.4744 64.0504 45.487 64.0425 45.496C63.9747 45.6436 63.9619 45.7559 63.9712 45.8392C63.981 45.9259 64.0162 45.9945 64.0613 46.0498C64.1074 46.1063 64.1634 46.1479 64.2098 46.1758C64.2283 46.187 64.2445 46.1955 64.2569 46.2015H65.5917L65.7306 45.229Z" fill="white"/>
<path fill-rule="evenodd" clip-rule="evenodd" d="M67.1201 43.6606H68.6058V44.0041H67.2067C67.1985 44.0092 67.189 44.0155 67.1783 44.0229C67.1372 44.0511 67.0799 44.0955 67.0188 44.1579C66.8972 44.2823 66.7613 44.4774 66.7065 44.7617L66.7041 44.7745L66.6998 44.7865L66.6993 44.7879L66.6972 44.7943C66.6952 44.8003 66.6921 44.8096 66.6883 44.822C66.6807 44.8467 66.6699 44.8836 66.658 44.9303C66.6343 45.024 66.6064 45.1558 66.5904 45.3078C66.56 45.5944 66.5736 45.933 66.7147 46.2228L66.7873 46.2389H68.1259V46.5824H66.7495L66.4886 46.5244L66.4509 46.4585C66.2258 46.0644 66.2129 45.6109 66.2488 45.2717C66.2669 45.0998 66.2983 44.9514 66.3251 44.8458C66.3385 44.7928 66.3509 44.7503 66.3601 44.7206C66.3647 44.7057 66.3685 44.694 66.3713 44.6858L66.3716 44.6848C66.4431 44.3277 66.6164 44.0781 66.7733 43.9177C66.8523 43.8369 66.9273 43.7786 66.9835 43.7399C67.0117 43.7205 67.0353 43.7059 67.0526 43.6959C67.0612 43.6909 67.0683 43.6869 67.0736 43.6841L67.0801 43.6806L67.0824 43.6795L67.0832 43.679L67.0836 43.6789C67.0836 43.6789 67.0839 43.6787 67.1607 43.8323L67.0836 43.6789L67.1201 43.6606Z" fill="white"/>
<path d="M69.2712 42.6371L69.6092 42.698L69.4204 43.7462C69.4579 43.7209 69.4979 43.6975 69.5405 43.6771L69.5679 43.664L69.5981 43.661L69.5992 43.6609L69.602 43.6607L69.6119 43.6598C69.6205 43.659 69.6328 43.658 69.6485 43.6567C69.6799 43.6543 69.7246 43.6511 69.7788 43.6482C69.8869 43.6424 70.034 43.6376 70.1883 43.6417C70.3413 43.6457 70.5081 43.6586 70.6529 43.6907C70.7254 43.7067 70.7976 43.7287 70.8619 43.7597C70.9141 43.785 70.9682 43.8197 71.0119 43.8685C71.0183 43.8727 71.0254 43.8775 71.0329 43.883C71.0629 43.9049 71.1012 43.9379 71.1386 43.9841C71.2156 44.0791 71.2829 44.2237 71.2747 44.4247L71.2743 44.4358L70.9361 46.4024L70.5975 46.3441L70.9318 44.4004C70.9338 44.2961 70.8997 44.2348 70.8717 44.2002C70.8561 44.1811 70.8407 44.1681 70.8303 44.1604C70.8252 44.1567 70.8215 44.1544 70.8199 44.1535L70.7828 44.1355L70.7573 44.0992C70.7559 44.0973 70.7457 44.0851 70.7124 44.069C70.6801 44.0534 70.6355 44.0386 70.5787 44.0261C70.4648 44.0009 70.3229 43.9888 70.1793 43.985C70.037 43.9813 69.8996 43.9858 69.7972 43.9912C69.7462 43.994 69.7043 43.9969 69.6753 43.9992L69.6629 44.0002C69.5586 44.0571 69.4695 44.1476 69.4023 44.2338C69.3668 44.2793 69.3396 44.3208 69.3214 44.3507L68.9304 46.4659L68.5924 46.405L69.2712 42.6371Z" fill="white"/>
<defs>
<radialGradient id="paint0_radial_16450_10906" cx="0" cy="0" r="1" gradientUnits="userSpaceOnUse" gradientTransform="translate(78.5722 55.8839) scale(31.9994)">
<stop offset="0.3155" stop-color="#2D5CA8"/>
<stop offset="0.5312" stop-color="#285496"/>
<stop offset="0.7289" stop-color="#1F4272"/>
<stop offset="1" stop-color="#0D2D4D"/>
</radialGradient>
</defs>
</svg>
