<svg xmlns="http://www.w3.org/2000/svg" width="64" height="64"><defs><linearGradient id="a" x1="50%" x2="50%" y1="0%" y2="100%"><stop offset="0%" stop-color="#FF6544"/><stop offset="100%" stop-color="#FF4449"/></linearGradient><linearGradient id="b" x1="50%" x2="50%" y1="0%" y2="100%"><stop offset="0%" stop-color="#FF6544"/><stop offset="100%" stop-color="#FF4449"/></linearGradient><linearGradient id="c" x1="50%" x2="50%" y1="0%" y2="100%"><stop offset="0%" stop-color="#FF6444"/><stop offset="100%" stop-color="#FF444F"/></linearGradient></defs><g fill="none" fill-rule="evenodd"><path d="M0 0h64v64H0z"/><path fill="url(#a)" fill-rule="nonzero" d="M52.622.382c.178.194.29.446.291.715l1.072 6.353a1.09 1.09 0 01-.906 1.252 1.1 1.1 0 01-1.268-.894l-.683-4.039-22.7 29.537a1.111 1.111 0 01-1.374.314l-.114-.066-12.506-8.23-12.587 11.39a1.112 1.112 0 01-1.557-.067 1.078 1.078 0 01.067-1.537l13.225-11.966a1.113 1.113 0 011.356-.103L27.3 31.176 49.576 2.19h-4.392a1.097 1.097 0 01-1.096-.97l-.007-.118c0-.6.494-1.087 1.103-1.087L51.62.013c.301-.049.601.042.836.219l.01.008a1.106 1.106 0 01.085.07z" transform="translate(5 18)"/><g transform="translate(23 9)"><rect width="1" height="22.4" x="4.1" y=".7" fill="#D8D8D8" stroke="url(#b)" stroke-width="1.4" rx=".5"/><path fill="url(#c)" fill-rule="nonzero" d="M4.4 3a4 4 0 110 8 4 4 0 010-8zm0 2a2 2 0 100 4 2 2 0 000-4z"/><circle cx="4.4" cy="7" r="2" fill="#FFF"/></g><g transform="matrix(1 0 0 -1 14 33)"><rect width="1" height="22.4" x="4.1" y=".7" fill="#D8D8D8" stroke="url(#b)" stroke-width="1.4" rx=".5"/><path fill="url(#c)" fill-rule="nonzero" d="M4.4 3a4 4 0 110 8 4 4 0 010-8zm0 2a2 2 0 100 4 2 2 0 000-4z"/><circle cx="4.4" cy="7" r="2" fill="#FFF"/></g><g transform="translate(5 9)"><rect width="1" height="22.4" x="4.1" y=".7" fill="#D8D8D8" stroke="url(#b)" stroke-width="1.4" rx=".5"/><path fill="url(#c)" fill-rule="nonzero" d="M4.4 3a4 4 0 110 8 4 4 0 010-8zm0 2a2 2 0 100 4 2 2 0 000-4z"/><circle cx="4.4" cy="7" r="2" fill="#FFF"/></g></g></svg>