<svg width="48" height="48" viewBox="0 0 48 48" fill="none" xmlns="http://www.w3.org/2000/svg">
<g id="icon">
<g id="icon_2">
<path d="M24 15C26.48 15 28.5 12.98 28.5 10.5C28.5 8.02 26.48 6 24 6C21.52 6 19.5 8.02 19.5 10.5C19.5 12.98 21.52 15 24 15ZM24 8C25.38 8 26.5 9.12 26.5 10.5C26.5 11.88 25.38 13 24 13C22.62 13 21.5 11.88 21.5 10.5C21.5 9.12 22.62 8 24 8Z" fill="#414652"/>
<path d="M27 16C26.45 16 26 16.45 26 17C26 17.55 26.45 18 27 18C28.1 18 29 18.9 29 20V23C29 23.55 28.55 24 28 24H20C19.45 24 19 23.55 19 23V20C19 18.9 19.9 18 21 18C21.55 18 22 17.55 22 17C22 16.45 21.55 16 21 16C18.79 16 17 17.79 17 20V23C17 24.65 18.35 26 20 26H28C29.65 26 31 24.65 31 23V20C31 17.79 29.21 16 27 16Z" fill="#414652"/>
<path d="M13 8.67C11.16 8.67 9.67 10.17 9.67 12C9.67 13.83 11.17 15.33 13 15.33C14.83 15.33 16.33 13.83 16.33 12C16.33 10.17 14.83 8.67 13 8.67ZM13 13.34C12.26 13.34 11.67 12.74 11.67 12.01C11.67 11.28 12.27 10.68 13 10.68C13.73 10.68 14.33 11.28 14.33 12.01C14.33 12.74 13.73 13.34 13 13.34Z" fill="#414652"/>
<path d="M10.33 24.34H14C14.55 24.34 15 23.89 15 23.34C15 22.79 14.55 22.34 14 22.34H10.33C10.15 22.34 10 22.19 10 22.01V20.01C10 19.46 10.45 19.01 11 19.01C11.55 19.01 12 18.56 12 18.01C12 17.46 11.55 17.01 11 17.01C9.35 17.01 8 18.36 8 20.01V22.01C8 23.3 9.05 24.34 10.33 24.34Z" fill="#414652"/>
<path d="M35 15.34C36.84 15.34 38.33 13.84 38.33 12.01C38.33 10.18 36.83 8.68 35 8.68C33.17 8.68 31.67 10.18 31.67 12.01C31.67 13.84 33.17 15.34 35 15.34ZM35 10.67C35.74 10.67 36.33 11.27 36.33 12C36.33 12.73 35.73 13.33 35 13.33C34.27 13.33 33.67 12.73 33.67 12C33.67 11.27 34.27 10.67 35 10.67Z" fill="#414652"/>
<path d="M36 18.01C36 18.56 36.45 19.01 37 19.01C37.55 19.01 38 19.46 38 20.01V22.01C38 22.19 37.85 22.34 37.67 22.34H34C33.45 22.34 33 22.79 33 23.34C33 23.89 33.45 24.34 34 24.34H37.67C38.96 24.34 40 23.29 40 22.01V20.01C40 18.36 38.65 17.01 37 17.01C36.45 17.01 36 17.46 36 18.01Z" fill="#414652"/>
<path d="M28.14 32.82L27.03 32.66C26.7 32.61 26.42 32.41 26.28 32.11L25.79 31.11C25.45 30.42 24.76 29.99 24 29.99C23.24 29.99 22.55 30.42 22.21 31.11L21.72 32.11C21.57 32.4 21.29 32.61 20.97 32.66L19.87 32.82C19.11 32.93 18.49 33.45 18.26 34.18C18.02 34.91 18.22 35.69 18.76 36.23L19.56 37.01C19.8 37.24 19.9 37.57 19.85 37.89L19.66 38.99C19.53 39.75 19.84 40.49 20.46 40.95C20.81 41.2 21.22 41.33 21.63 41.33C21.95 41.33 22.27 41.25 22.56 41.1L23.55 40.58C23.84 40.43 24.19 40.43 24.48 40.58L25.47 41.1C26.15 41.46 26.96 41.4 27.58 40.95C28.2 40.5 28.51 39.75 28.38 38.99L28.19 37.89C28.13 37.57 28.24 37.23 28.48 37.01L29.28 36.23C29.83 35.69 30.02 34.91 29.79 34.18C29.55 33.45 28.93 32.93 28.18 32.82H28.14ZM27.05 35.58C26.34 36.27 26.02 37.26 26.19 38.24L26.38 39.34L25.39 38.82C24.52 38.36 23.47 38.36 22.6 38.82L21.61 39.34L21.8 38.24C21.97 37.27 21.64 36.27 20.94 35.59L20.14 34.81L21.24 34.65C22.22 34.51 23.06 33.9 23.5 33.01L23.99 32L24.49 33.01C24.93 33.9 25.77 34.51 26.75 34.65L27.86 34.81L27.06 35.59L27.05 35.58Z" fill="#414652"/>
<path d="M39.9 32.46L38.09 32.2L37.28 30.56C36.94 29.88 35.82 29.88 35.49 30.56L34.68 32.2L32.87 32.46C32.49 32.51 32.18 32.78 32.06 33.14C31.94 33.5 32.04 33.9 32.31 34.17L33.62 35.45L33.31 37.26C33.25 37.64 33.4 38.01 33.71 38.24C34.02 38.46 34.43 38.49 34.76 38.32L36.38 37.47L38 38.32C38.15 38.4 38.31 38.44 38.46 38.44C38.67 38.44 38.87 38.38 39.05 38.25C39.36 38.03 39.51 37.65 39.45 37.27L39.14 35.46L40.45 34.18C40.72 33.91 40.82 33.52 40.7 33.16C40.58 32.8 40.27 32.53 39.89 32.48L39.9 32.46ZM37.15 35.61C36.66 35.4 36.1 35.4 35.61 35.61C35.65 35.08 35.48 34.55 35.13 34.15C35.65 34.03 36.1 33.7 36.38 33.24C36.66 33.7 37.11 34.02 37.63 34.15C37.28 34.55 37.11 35.08 37.15 35.61Z" fill="#414652"/>
<path d="M15.14 32.46L13.33 32.2L12.52 30.56C12.18 29.88 11.06 29.88 10.73 30.56L9.92 32.2L8.11 32.46C7.73 32.51 7.42 32.78 7.3 33.14C7.18 33.5 7.28 33.9 7.55 34.16L8.86 35.44L8.55 37.25C8.49 37.63 8.64 38 8.95 38.23C9.26 38.45 9.67 38.48 10 38.31L11.62 37.46L13.24 38.31C13.39 38.39 13.55 38.43 13.7 38.43C13.91 38.43 14.11 38.37 14.29 38.24C14.6 38.02 14.75 37.64 14.69 37.26L14.38 35.45L15.69 34.17C15.96 33.9 16.06 33.51 15.94 33.14C15.82 32.78 15.51 32.52 15.13 32.46H15.14ZM12.39 35.61C11.9 35.4 11.34 35.4 10.85 35.61C10.89 35.08 10.72 34.55 10.37 34.14C10.89 34.02 11.34 33.69 11.62 33.23C11.9 33.69 12.35 34.01 12.87 34.14C12.52 34.54 12.35 35.07 12.39 35.6V35.61Z" fill="#414652"/>
<path d="M5 24C5.55 24 6 23.55 6 23C6 22.45 5.55 22 5 22C3.35 22 2 23.35 2 25V34C2 35.65 3.35 37 5 37C5.55 37 6 36.55 6 36C6 35.45 5.55 35 5 35C4.45 35 4 34.55 4 34V25C4 24.45 4.45 24 5 24Z" fill="#414652"/>
<path d="M43 22C42.45 22 42 22.45 42 23C42 23.55 42.45 24 43 24C43.55 24 44 24.45 44 25V34C44 34.55 43.55 35 43 35C42.45 35 42 35.45 42 36C42 36.55 42.45 37 43 37C44.65 37 46 35.65 46 34V25C46 23.35 44.65 22 43 22Z" fill="#414652"/>
</g>
</g>
</svg>
