<svg width="48" height="48" viewBox="0 0 48 48" fill="none" xmlns="http://www.w3.org/2000/svg">
<path fill-rule="evenodd" clip-rule="evenodd" d="M8.99765 0H39.0023C43.9716 0 48 4.02838 48 8.99765V39.0023C48 43.9716 43.9716 48 39.0023 48H8.99765C4.02838 48 0 43.9716 0 39.0023V8.99765C0 4.02838 4.02838 0 8.99765 0" fill="#33658A"/>
<path d="M10.8783 24C10.679 24 10.4987 24.1183 10.4195 24.3012L6.30281 33.8012C6.15975 34.1314 6.40177 34.5 6.76159 34.5H24.7384C25.0982 34.5 25.3403 34.1314 25.1972 33.8012L21.0805 24.3012C21.0013 24.1183 20.821 24 20.6217 24H10.8783Z" fill="white"/>
<path d="M27.3783 24C27.179 24 26.9987 24.1183 26.9195 24.3012L22.8028 33.8012C22.6597 34.1314 22.9018 34.5 23.2616 34.5H41.2384C41.5982 34.5 41.8403 34.1314 41.6972 33.8012L37.5805 24.3012C37.5013 24.1183 37.321 24 37.1217 24H27.3783Z" fill="white"/>
<path d="M19.1283 13.5C18.929 13.5 18.7487 13.6183 18.6695 13.8012L14.5528 23.3012C14.4097 23.6314 14.6518 24 15.0116 24H32.9884C33.3482 24 33.5903 23.6314 33.4472 23.3012L29.3305 13.8012C29.2513 13.6183 29.071 13.5 28.8717 13.5H19.1283Z" fill="white"/>
</svg>
