<svg xmlns="http://www.w3.org/2000/svg" width="64" height="64" viewBox="0 0 64 64">
    <g fill="#FF6444">
        <circle cx="32" cy="32" r="32" fill-opacity=".08"/>
        <path fill-opacity=".48" d="M20.369 32.3l-3.063 7c-.11.253.005.547.258.658.063.028.132.042.2.042h13.471c.277 0 .5-.224.5-.5 0-.069-.014-.137-.041-.2l-3.063-7c-.08-.182-.26-.3-.458-.3h-7.346c-.199 0-.378.118-.458.3zM35.369 32.3l-3.063 7c-.11.253.005.547.258.658.063.028.132.042.2.042h13.471c.277 0 .5-.224.5-.5 0-.069-.014-.137-.041-.2l-3.063-7c-.08-.182-.26-.3-.458-.3h-7.346c-.199 0-.378.118-.458.3z"/>
        <path d="M27.369 24.3l-3.063 7c-.11.253.005.547.258.658.063.028.132.042.2.042h13.471c.277 0 .5-.224.5-.5 0-.069-.014-.137-.041-.2l-3.063-7c-.08-.182-.26-.3-.458-.3h-7.346c-.199 0-.378.118-.458.3z"/>
    </g>
</svg>
