<svg width="67" height="66" viewBox="0 0 67 66" fill="none" xmlns="http://www.w3.org/2000/svg">
<rect opacity="0.01" x="1.66016" y="1" width="64" height="64" fill="white" stroke="#979797" stroke-width="2"/>
<path fill-rule="evenodd" clip-rule="evenodd" d="M1.66016 24.9998V34.3198L8.58816 42.9265H15.5708L22.6788 52.0492L33.9135 32.9652L43.4042 44.6225H51.1362C51.8495 43.0598 53.5268 42.0305 55.4148 42.3265C57.0562 42.5838 58.4175 43.9132 58.7055 45.5478C59.1508 48.0785 57.2175 50.2758 54.7695 50.2758C53.1628 50.2758 51.7868 49.3225 51.1508 47.9558H41.8175L34.3548 38.7865L23.0628 57.9652L13.9415 46.2598H6.99216L1.66016 39.6372V59.6665C1.66016 62.6118 4.04816 64.9998 6.99349 64.9998H60.3268C63.2722 64.9998 65.6602 62.6118 65.6602 59.6665V24.9998C65.6602 22.0545 63.2722 19.6665 60.3268 19.6665H6.99349C4.04816 19.6665 1.66016 22.0545 1.66016 24.9998Z" fill="#85ACAF"/>
<g style="mix-blend-mode:multiply">
<path fill-rule="evenodd" clip-rule="evenodd" d="M49.6602 17C49.6602 25.836 42.4962 33 33.6602 33C24.8242 33 17.6602 25.836 17.6602 17C17.6602 8.164 24.8242 1 33.6602 1C42.4962 1 49.6602 8.164 49.6602 17Z" fill="#FF444F"/>
</g>
<path fill-rule="evenodd" clip-rule="evenodd" d="M31.3948 23.3352L25.6602 17.6006L28.0628 15.1966L31.3948 18.5286L39.2562 10.6646L41.6602 13.0686L31.3948 23.3352Z" fill="white"/>
</svg>
