<svg xmlns="http://www.w3.org/2000/svg" width="64" height="64"><g fill="none" fill-rule="evenodd"><circle cx="32" cy="32" r="32" fill="#FF6444" fill-opacity=".08" fill-rule="nonzero"/><g transform="translate(10 16)"><path fill="#FF6444" fill-opacity=".48" d="m40.578 2.112 1.844.776L33.7 23.602l-8.2-12.299-8 12-7.72-11.579L3.444 29.83l-1.888-.66L9.219 7.276l8.281 12.42 8-11.999 7.8 11.7z"/><path fill="#FF6444" fill-opacity=".48" d="M43.5 23h-2a.5.5 0 0 0 0 1h2a.5.5 0 0 0 0-1zm-4 0h-2a.5.5 0 0 0 0 1h2a.5.5 0 0 0 0-1zm-4 0h-2a.5.5 0 0 0 0 1h2a.5.5 0 0 0 0-1zm-4 0h-2a.5.5 0 0 0 0 1h2a.5.5 0 0 0 0-1zm-4 0h-2a.5.5 0 0 0 0 1h2a.5.5 0 0 0 0-1zm-4 0h-2a.5.5 0 0 0 0 1h2a.5.5 0 0 0 0-1zm-4 0h-2a.5.5 0 0 0 0 1h2a.5.5 0 0 0 0-1zm-4 0h-2a.5.5 0 0 0 0 1h2a.5.5 0 0 0 0-1zm-4 0h-2a.5.5 0 0 0 0 1h2a.5.5 0 0 0 0-1zm-4 0h-2a.5.5 0 0 0 0 1h2a.5.5 0 0 0 0-1zm-4 0h-2a.5.5 0 0 0 0 1h2a.5.5 0 0 0 0-1zm40-16h-2a.5.5 0 0 0 0 1h2a.5.5 0 0 0 0-1zm-4 0h-2a.5.5 0 0 0 0 1h2a.5.5 0 0 0 0-1zm-4 0h-2a.5.5 0 0 0 0 1h2a.5.5 0 0 0 0-1zm-4 0h-2a.5.5 0 0 0 0 1h2a.5.5 0 0 0 0-1zm-4 0h-2a.5.5 0 0 0 0 1h2a.5.5 0 0 0 0-1zm-4 0h-2a.5.5 0 0 0 0 1h2a.5.5 0 0 0 0-1zm-4 0h-2a.5.5 0 0 0 0 1h2a.5.5 0 0 0 0-1zm-4 0h-2a.5.5 0 0 0 0 1h2a.5.5 0 0 0 0-1zm-4 0h-2a.5.5 0 0 0 0 1h2a.5.5 0 0 0 0-1zm-4 0h-2a.5.5 0 0 0 0 1h2a.5.5 0 0 0 0-1zm-4 0h-2a.5.5 0 0 0 0 1h2a.5.5 0 0 0 0-1z"/><circle cx="41.5" cy="2.5" r="1.5" fill="#FFF" stroke="#FF6444" stroke-width="2"/><circle cx="33.5" cy="21.5" r="1.5" fill="#FFF" stroke="#FF6444" stroke-width="2"/><circle cx="25.5" cy="9.5" r="1.5" fill="#FFF" stroke="#FF6444" stroke-width="2"/><circle cx="17.5" cy="21.5" r="1.5" fill="#FFF" stroke="#FF6444" stroke-width="2"/><circle cx="9.5" cy="9.5" r="1.5" fill="#FFF" stroke="#FF6444" stroke-width="2"/><circle cx="2.5" cy="29.5" r="1.5" fill="#FFF" stroke="#FF6444" stroke-width="2"/></g></g></svg>