<svg width="32" height="32" viewBox="0 0 32 32" fill="none" xmlns="http://www.w3.org/2000/svg">
<path d="M0 6C0 2.68629 2.68629 0 6 0H26C29.3137 0 32 2.68629 32 6V26C32 29.3137 29.3137 32 26 32H6C2.68629 32 0 29.3137 0 26V6Z" fill="#33658A"/>
<path d="M15.9686 20.7484C13.4151 20.7484 11.3459 18.6792 11.3459 16.1258C11.3459 13.5723 13.4151 11.5031 15.9686 11.5031C17.3333 11.5031 18.6101 12.0755 19.4906 13.0881L22 10.9308C21.1195 9.87421 19.9748 9.12579 18.6981 8.68553V6H17.1572V8.24528C16.761 8.20126 16.3648 8.15723 15.9686 8.15723C15.5283 8.15723 15.1321 8.20126 14.6918 8.24528V6H13.1509V8.68553C10.1572 9.83019 8 12.7358 8 16.1258C8 19.5157 10.1572 22.4214 13.1509 23.566V26.2516H14.6918V23.9623C15.0881 24.0063 15.5283 24.0503 15.9686 24.0503C16.3648 24.0503 16.761 24.0063 17.1572 23.9623V26.2516H18.6981V23.6101C19.9748 23.1698 21.0755 22.3774 22 21.3648L19.4465 19.1635C18.566 20.1761 17.2893 20.7484 15.9686 20.7484Z" fill="white"/>
</svg>
