<svg width="32" height="32" viewBox="0 0 32 32" fill="none" xmlns="http://www.w3.org/2000/svg">
<path fill-rule="evenodd" clip-rule="evenodd" d="M14 32C21.732 32 28 25.732 28 18C28 10.268 21.732 4 14 4C6.26801 4 0 10.268 0 18C0 25.732 6.26801 32 14 32ZM20 18C20 21.3137 17.3137 24 14 24C10.6863 24 8 21.3137 8 18C8 14.6863 10.6863 12 14 12C17.3137 12 20 14.6863 20 18ZM24 18C24 23.5228 19.5228 28 14 28C8.47715 28 4 23.5228 4 18C4 12.4772 8.47715 8 14 8C19.5228 8 24 12.4772 24 18Z" fill="#85ACB0"/>
<g style="mix-blend-mode:multiply">
<path fill-rule="evenodd" clip-rule="evenodd" d="M28.5279 2.55376L28.3631 0.923955C28.3393 0.688401 28.2349 0.468304 28.0674 0.300893C27.6663 -0.100298 27.0158 -0.100298 26.6146 0.300893L23.3014 3.61416C23.0832 3.83232 22.9747 4.13698 23.0057 4.44394L23.2938 7.29255L12.3437 18.2426C11.9532 18.6332 11.9532 19.2663 12.3437 19.6569C12.7342 20.0474 13.3674 20.0474 13.7579 19.6569L24.708 8.70673L27.5565 8.99478C27.8635 9.02582 28.1681 8.91726 28.3863 8.6991L31.6995 5.38584C31.8669 5.21843 31.9714 4.99833 31.9952 4.76277C32.0523 4.19828 31.6409 3.6944 31.0765 3.63732L29.4467 3.4725C28.9611 3.4234 28.577 3.03938 28.5279 2.55376Z" fill="#FF444F"/>
</g>
</svg>
