<svg width="28" height="29" viewBox="0 0 28 29" fill="none" xmlns="http://www.w3.org/2000/svg">
<path fill-rule="evenodd" clip-rule="evenodd" d="M0 14.0015C0 6.26661 6.26514 0.00146484 14 0.00146484C16.9746 0.00146484 19.7336 0.932802 22.0014 2.51468C22.3034 2.72532 22.3774 3.14088 22.1668 3.44287C21.9561 3.74485 21.5406 3.8189 21.2386 3.60825C19.1864 2.17679 16.6921 1.3348 14 1.3348C7.00152 1.3348 1.33333 7.00299 1.33333 14.0015C1.33333 20.9999 7.00152 26.6681 14 26.6681C20.9985 26.6681 26.6667 20.9999 26.6667 14.0015C26.6667 11.3087 25.8309 8.82109 24.3999 6.76953C24.1892 6.46755 24.2633 6.05199 24.5653 5.84134C24.8672 5.6307 25.2828 5.70475 25.4935 6.00673C27.0758 8.27517 28 11.0276 28 14.0015C28 21.7363 21.7349 28.0015 14 28.0015C6.26514 28.0015 0 21.7363 0 14.0015Z" fill="#414652"/>
<path fill-rule="evenodd" clip-rule="evenodd" d="M3.17334 14.002C3.17334 8.02044 8.01848 3.17529 14 3.17529C16.0807 3.17529 18.028 3.76501 19.6765 4.78111C19.9899 4.9743 20.0874 5.385 19.8942 5.69843C19.701 6.01187 19.2903 6.10934 18.9769 5.91615C17.532 5.02558 15.8259 4.50863 14 4.50863C8.75486 4.50863 4.50667 8.75682 4.50667 14.002C4.50667 19.2471 8.75486 23.4953 14 23.4953C19.2452 23.4953 23.4933 19.2471 23.4933 14.002C23.4933 12.1765 22.9766 10.477 22.0858 9.03177C21.8926 8.71834 21.9901 8.30763 22.3035 8.11444C22.617 7.92125 23.0277 8.01872 23.2209 8.33215C24.2367 9.98026 24.8267 11.9208 24.8267 14.002C24.8267 19.9835 19.9815 24.8286 14 24.8286C8.01848 24.8286 3.17334 19.9835 3.17334 14.002Z" fill="#414652"/>
<path fill-rule="evenodd" clip-rule="evenodd" d="M6.34668 14.0005C6.34668 9.77231 9.77182 6.34717 14 6.34717C15.1745 6.34717 16.2779 6.61014 17.2705 7.07729C17.6037 7.23406 17.7467 7.63122 17.5899 7.96437C17.4331 8.29751 17.036 8.44049 16.7028 8.28371C15.8822 7.89753 14.9722 7.6805 14 7.6805C10.5082 7.6805 7.68001 10.5087 7.68001 14.0005C7.68001 17.4923 10.5082 20.3205 14 20.3205C17.4918 20.3205 20.32 17.4923 20.32 14.0005C20.32 13.0343 20.1027 12.1184 19.7176 11.3061C19.5599 10.9734 19.7017 10.5758 20.0344 10.4181C20.3671 10.2604 20.7647 10.4022 20.9224 10.7349C21.3906 11.7226 21.6533 12.8333 21.6533 14.0005C21.6533 18.2287 18.2282 21.6538 14 21.6538C9.77182 21.6538 6.34668 18.2287 6.34668 14.0005Z" fill="#414652"/>
<path fill-rule="evenodd" clip-rule="evenodd" d="M13.7909 9.95389C13.8315 9.58795 14.1611 9.32426 14.5271 9.36492C14.5917 9.3721 14.6489 9.37924 14.7015 9.38582L14.7028 9.38599C15.0682 9.43166 15.3273 9.76485 15.2816 10.1302C15.236 10.4955 14.9028 10.7547 14.5374 10.709C14.4837 10.7023 14.4347 10.6962 14.3798 10.6901C14.0139 10.6494 13.7502 10.3198 13.7909 9.95389Z" fill="#414652"/>
<path fill-rule="evenodd" clip-rule="evenodd" d="M12.5841 10.1998C12.7683 10.5187 12.6592 10.9264 12.3403 11.1106C11.3372 11.6902 10.6668 12.7687 10.6668 14C10.6668 15.8385 12.1617 17.3334 14.0002 17.3334C15.6051 17.3334 16.9444 16.2006 17.261 14.69C17.3365 14.3296 17.6899 14.0987 18.0502 14.1742C18.4106 14.2497 18.6415 14.6031 18.566 14.9634C18.1226 17.0794 16.2485 18.6667 14.0002 18.6667C11.4253 18.6667 9.3335 16.5749 9.3335 14C9.3335 12.2714 10.2764 10.7632 11.6733 9.95612C11.9921 9.77192 12.3999 9.88105 12.5841 10.1998Z" fill="#414652"/>
<path fill-rule="evenodd" clip-rule="evenodd" d="M17.8798 12.7243C18.2458 12.6836 18.5754 12.9473 18.616 13.3133C18.616 13.3133 18.6168 13.3196 18.6184 13.3297L18.6212 13.3477L18.6251 13.3728C18.6303 13.4074 18.6401 13.4747 18.6401 13.5535C18.6401 13.9217 18.3416 14.2202 17.9734 14.2202C17.6123 14.2202 17.3182 13.933 17.3071 13.5746L17.3068 13.5726L17.3004 13.5317C17.2976 13.5133 17.294 13.4886 17.2909 13.4605C17.2502 13.0946 17.5139 12.765 17.8798 12.7243Z" fill="#414652"/>
<path fill-rule="evenodd" clip-rule="evenodd" d="M25.3333 0.00146484C25.7015 0.00146484 26 0.299942 26 0.668132V2.66813C26 2.84494 25.9298 3.01451 25.8047 3.13954L14.4714 14.4729C14.2111 14.7332 13.7889 14.7332 13.5286 14.4729C13.2682 14.2125 13.2682 13.7904 13.5286 13.5301L24.6667 2.39199V0.668132C24.6667 0.299942 24.9651 0.00146484 25.3333 0.00146484Z" fill="#414652"/>
<path fill-rule="evenodd" clip-rule="evenodd" d="M24.6667 2.66813C24.6667 2.29994 24.9651 2.00147 25.3333 2.00147H27.3333C27.7015 2.00147 28 2.29994 28 2.66813C28 3.03632 27.7015 3.3348 27.3333 3.3348H25.3333C24.9651 3.3348 24.6667 3.03632 24.6667 2.66813Z" fill="#414652"/>
<path fill-rule="evenodd" clip-rule="evenodd" d="M14 12.0015C14.3682 12.0015 14.6667 12.2999 14.6667 12.6681V13.3348H15.3333C15.7015 13.3348 16 13.6333 16 14.0015C16 14.3697 15.7015 14.6681 15.3333 14.6681H14C13.6318 14.6681 13.3333 14.3697 13.3333 14.0015V12.6681C13.3333 12.2999 13.6318 12.0015 14 12.0015Z" fill="#414652"/>
</svg>
