<svg width="32" height="32" viewBox="0 0 32 32" fill="none" xmlns="http://www.w3.org/2000/svg">
<path d="M0 6C0 2.68629 2.68629 0 6 0H26C29.3137 0 32 2.68629 32 6V26C32 29.3137 29.3137 32 26 32H6C2.68629 32 0 29.3137 0 26V6Z" fill="#33658A"/>
<path d="M25.7087 8.94637L19.7087 4.58887H12.2913L6.29125 8.94637L4 16.0001L6.29125 23.0539L12.2913 27.4114H19.7087L25.7087 23.0539L28 16.0001L25.7087 8.94637ZM18.5613 25.6789H13.45V20.6501H18.5613V25.6789ZM13.45 18.9139V13.0901H18.5613V18.9139H13.45ZM13.45 6.32512H18.5613V11.3539H13.45V6.32512ZM20.2975 13.0901H25.2288L26.1737 16.0001L25.2288 18.9101H20.2975V13.0864V13.0901ZM24.6663 11.3539H20.2975V7.16137L24.2312 10.0189L24.6663 11.3539ZM11.7175 7.15387V11.3539H7.3375L7.7725 10.0189L11.7213 7.15012L11.7175 7.15387ZM6.77125 13.0901H11.7175V18.9139H6.77125L5.82625 16.0039L6.77125 13.0939V13.0901ZM7.33375 20.6501H11.7137V24.8501L7.765 21.9814L7.33375 20.6464V20.6501ZM20.2975 24.8426V20.6501H24.6663L24.2312 21.9851L20.2975 24.8426Z" fill="white"/>
</svg>
