<svg xmlns="http://www.w3.org/2000/svg" width="64" height="64"><g fill="#FF6444" fill-rule="evenodd"><circle cx="32" cy="32" r="32" fill-opacity=".08" fill-rule="nonzero"/><path fill-opacity=".48" d="M33.167 17c-7.71-.005-14.138 5.964-14.789 13.733h-1.662a.714.714 0 0 0-.62.362.729.729 0 0 0 0 .723l3.043 5.329a.714.714 0 0 0 1.24 0l3.042-5.329a.73.73 0 0 0 0-.724.714.714 0 0 0-.62-.362h-1.545c.579-5.554 4.84-9.987 10.315-10.728 5.475-.742 10.74 2.402 12.743 7.607s.223 11.12-4.307 14.316a11.864 11.864 0 0 1-14.773-.857 1.422 1.422 0 0 0-2.014.13 1.46 1.46 0 0 0 .116 2.038A14.696 14.696 0 0 0 33.158 47h.009C41.359 47 48 40.284 48 32c0-8.284-6.641-15-14.833-15z"/><path d="M34.666 30.786h-3.33a.898.898 0 0 1-.901-.897c0-.495.403-.897.9-.897h5.449c.667-.007 1.205-.548 1.205-1.213s-.538-1.205-1.205-1.212h-2.566V25.2A1.215 1.215 0 0 0 33 24c-.667 0-1.21.535-1.217 1.2v1.367h-.448A3.328 3.328 0 0 0 28 29.889a3.328 3.328 0 0 0 3.335 3.323h3.33a.897.897 0 0 1 0 1.794h-5.448c-.667.007-1.205.548-1.205 1.213s.538 1.206 1.205 1.213h2.566V38.8c.006.665.55 1.2 1.217 1.2s1.21-.535 1.217-1.2v-1.37h.448c1.842 0 3.335-1.487 3.335-3.322s-1.493-3.323-3.335-3.323z"/></g></svg>