<svg xmlns="http://www.w3.org/2000/svg" width="64" height="64" viewBox="0 0 64 64">
    <g fill="#FF6444" fill-rule="evenodd">
        <circle cx="32" cy="32" r="32" fill-opacity=".08" fill-rule="nonzero"/>
        <path fill-opacity=".48" d="M33.167 17c-7.71-.005-14.138 5.964-14.789 13.733h-1.662c-.256 0-.492.138-.62.362-.128.223-.128.5 0 .723l3.043 5.329c.128.224.364.362.62.362.255 0 .492-.138.62-.362l3.042-5.329c.128-.224.128-.5 0-.724-.128-.224-.364-.362-.62-.362h-1.545c.579-5.554 4.84-9.987 10.315-10.728 5.475-.742 10.74 2.402 12.743 7.607s.223 11.12-4.307 14.316c-4.53 3.196-10.634 2.842-14.773-.857-.593-.523-1.492-.465-2.014.13-.521.597-.47 1.506.116 2.038 2.708 2.427 6.203 3.765 9.822 3.762h.009C41.359 47 48 40.284 48 32c0-8.284-6.641-15-14.833-15z"/>
        <path d="M34.666 30.786h-3.33c-.498 0-.901-.401-.901-.897 0-.495.403-.897.9-.897h5.449c.667-.007 1.205-.548 1.205-1.213s-.538-1.205-1.205-1.212h-2.566V25.2c-.007-.665-.55-1.2-1.218-1.2-.667 0-1.21.535-1.217 1.2v1.367h-.448c-1.842 0-3.335 1.487-3.335 3.322 0 1.836 1.493 3.323 3.335 3.323h3.33c.494.006.89.406.89.897 0 .492-.396.892-.89.897h-5.448c-.667.007-1.205.548-1.205 1.213s.538 1.206 1.205 1.213h2.566V38.8c.006.665.55 1.2 1.217 1.2s1.21-.535 1.217-1.2V37.43h.448c1.842 0 3.335-1.487 3.335-3.322s-1.493-3.323-3.335-3.323z"/>
    </g>
</svg>
