<svg width="67" height="66" viewBox="0 0 67 66" fill="none" xmlns="http://www.w3.org/2000/svg">
<rect opacity="0.01" x="1.33008" y="1" width="64" height="64" fill="white" stroke="#979797" stroke-width="2"/>
<mask id="mask0_784_70119" style="mask-type:alpha" maskUnits="userSpaceOnUse" x="1" y="1" width="50" height="50">
<path fill-rule="evenodd" clip-rule="evenodd" d="M1.33008 1H50.9627V50.6324H1.33008V1Z" fill="white"/>
</mask>
<g mask="url(#mask0_784_70119)">
<path fill-rule="evenodd" clip-rule="evenodd" d="M28.2245 34.913V38.224H24.0919V34.9248C21.0474 34.3579 19.1339 32.4784 18.998 29.7499H22.5807C22.7558 31.1827 24.2003 32.1049 26.2888 32.1049C28.214 32.1049 29.5776 31.171 29.5776 29.8413C29.5776 28.7089 28.6947 28.0637 26.5213 27.5765L24.2173 27.0841C20.9899 26.4102 19.4056 24.7292 19.4056 22.0294C19.4056 19.3284 21.2054 17.3822 24.0697 16.7422V13.4077H28.2023V16.7475C30.9987 17.3705 32.8612 19.2774 32.9514 21.8427H29.4927C29.3177 20.4438 28.0155 19.5099 26.2261 19.5099C24.438 19.5099 23.1476 20.3707 23.1476 21.7173C23.1476 22.8105 23.99 23.4165 26.0681 23.8802L28.2023 24.3334C31.7628 25.0805 33.2962 26.5969 33.2962 29.3646C33.2962 32.3256 31.3945 34.307 28.2245 34.913ZM1.33008 25.8158C1.33008 39.521 12.44 50.6322 26.1464 50.6322C39.8515 50.6322 50.9627 39.521 50.9627 25.8158C50.9627 12.1107 39.8515 0.999512 26.1464 0.999512C12.44 0.999512 1.33008 12.1107 1.33008 25.8158Z" fill="#85ACAF"/>
</g>
<g style="mix-blend-mode:multiply">
<path fill-rule="evenodd" clip-rule="evenodd" d="M44.0184 31.2734V36.8454H54.5575L37.8313 53.5742L26.434 42.3716L10.0801 55.8573V63.694L26.4497 50.2005L37.8626 61.4214L58.4497 40.8356V51.2767H64.0216V31.2734H44.0184Z" fill="#FF444F"/>
</g>
</svg>
