<svg width="66" height="66" viewBox="0 0 66 66" fill="none" xmlns="http://www.w3.org/2000/svg">
<rect opacity="0.01" x="1" y="1" width="64" height="64" fill="white" stroke="#979797" stroke-width="1.33333"/>
<mask id="mask0_789_54923" style="mask-type:alpha" maskUnits="userSpaceOnUse" x="1" y="8" width="50" height="43">
<path fill-rule="evenodd" clip-rule="evenodd" d="M1 8.6073H50.3076V50.7646H1V8.6073Z" fill="white"/>
</mask>
<g mask="url(#mask0_789_54923)">
<path fill-rule="evenodd" clip-rule="evenodd" d="M47.848 38.118H47.1987V27.5206C47.1987 17.0913 38.7133 8.6073 28.284 8.6073H23.024C12.5947 8.6073 4.10933 17.0913 4.10933 27.5206V38.118H3.46C2.10133 38.118 1 39.2193 1 40.578V48.3046C1 49.6633 2.10133 50.7646 3.46 50.7646H8.44933V38.118H6.56933V27.5206C6.56933 18.4473 13.9507 11.066 23.024 11.066H28.284C37.3573 11.066 44.7387 18.4473 44.7387 27.5206V38.118H42.8587V50.7646H47.848C49.2067 50.7646 50.308 49.6633 50.308 48.3046V40.578C50.308 39.2193 49.2067 38.118 47.848 38.118Z" fill="#85ACAF"/>
</g>
<mask id="mask1_789_54923" style="mask-type:alpha" maskUnits="userSpaceOnUse" x="10" y="29" width="31" height="37">
<path fill-rule="evenodd" clip-rule="evenodd" d="M10.8984 29.6606H40.4118V65.0001H10.8984V29.6606Z" fill="white"/>
</mask>
<g mask="url(#mask1_789_54923)">
<path fill-rule="evenodd" clip-rule="evenodd" d="M37.9451 38.118V34.77C37.9451 30.0366 34.7144 29.7593 34.3451 29.7433L30.8038 29.6606V32.7926L29.9091 33.0473C23.6958 34.8153 16.5504 32.6926 13.3571 31.4753L13.3584 38.118H10.8998L10.8984 45.9046L18.4198 53.766H27.1584C27.8384 53.766 28.3878 54.3166 28.3878 54.9966C28.3878 55.6753 27.8384 56.226 27.1584 56.226H17.8958C17.5611 56.226 17.2384 56.0886 17.0064 55.846L10.8984 49.462V53.1246C10.8984 54.4286 11.4171 55.6806 12.3384 56.6033L19.2958 63.5593C20.2171 64.482 21.4691 65.0006 22.7731 65.0006H28.5358C29.8411 65.0006 31.0904 64.482 32.0144 63.5593L38.9704 56.6033C39.8931 55.6806 40.4118 54.4286 40.4118 53.1246V38.118H40.2424H37.9451Z" fill="#85ACAF"/>
</g>
<path fill-rule="evenodd" clip-rule="evenodd" d="M26.7 13.192L24.4307 13.204C15.648 13.2534 8.55469 20.3894 8.55469 29.1734V34.612C8.55469 36.1387 9.53469 37.4214 10.896 37.904V27.6867L12.6534 28.5187C12.7387 28.5587 21.212 32.4254 28.3414 30.9027V27.144L34.4134 27.284C36.4854 27.3334 40.4027 28.9614 40.4027 34.7707V37.9027H40.4107C41.772 37.4187 42.752 36.1334 42.752 34.6067V29.156C42.752 20.3054 35.5507 13.1427 26.7 13.192Z" fill="#85ACAF"/>
<g style="mix-blend-mode:multiply">
<path fill-rule="evenodd" clip-rule="evenodd" d="M49 1C40.164 1 33 8.16267 33 17C33 25.836 40.164 33 49 33C57.836 33 65 25.836 65 17C65 8.16267 57.836 1 49 1Z" fill="#FF444F"/>
</g>
<path fill-rule="evenodd" clip-rule="evenodd" d="M46.7344 23.6704L41 17.936L43.4032 15.5328L46.7344 18.864L54.5968 11L57 13.4032L46.7344 23.6704Z" fill="white"/>
</svg>
