<svg xmlns="http://www.w3.org/2000/svg" width="64" height="64" viewBox="0 0 64 64">
    <g fill="#FF6444" fill-rule="evenodd">
        <circle cx="32" cy="32" r="32" fill-opacity=".08" fill-rule="nonzero"/>
        <path fill-opacity=".48" d="M16 31v-9c0-2.21 1.79-4 4-4h14c2.21 0 4 1.79 4 4v9c0 2.21-1.79 4-4 4h-9l-3.232 3.878c-.19.228-.471.36-.768.36-.552 0-1-.448-1-1V35c-2.21 0-4-1.79-4-4z"/>
        <path d="M30 40c-2.21 0-4-1.79-4-4v-9c0-2.21 1.79-4 4-4h14c2.21 0 4 1.79 4 4v9c0 2.21-1.79 4-4 4v3.238c0 .552-.448 1-1 1-.297 0-.578-.132-.768-.36L39 40h-9z"/>
    </g>
</svg>
