<svg xmlns="http://www.w3.org/2000/svg" width="32" height="32" viewBox="0 0 32 32">
    <g fill="none">
        <rect width="32" height="32" fill="#FF6444" rx="2"/>
        <path fill="#FFF" fill-opacity=".56" d="M29 9c.552 0 1 .448 1 1v4.773c0 .552-.448 1-1 1-.245 0-.481-.09-.664-.252l-1.927-1.713-8.538 10.235c-.327.374-.873.447-1.284.19l-.1-.072-8.996-7.307-3.67 5.136c-.296.414-.851.535-1.288.298l-.107-.066c-.415-.297-.535-.852-.298-1.289l.066-.107 4.29-6c.31-.435.903-.543 1.344-.265l.1.07L17 22l7.915-9.52-1.95-1.733c-.412-.367-.45-.999-.082-1.411.19-.214.462-.336.747-.336H29z"/>
        <path fill="#333" d="M2 0h28c1.105 0 2 .895 2 2v2H0V2C0 .895.895 0 2 0z"/>
        <circle cx="3" cy="2" r="1" fill="#FFF" fill-opacity=".56"/>
        <circle cx="8" cy="2" r="1" fill="#FFF" fill-opacity=".56"/>
        <circle cx="13" cy="2" r="1" fill="#FFF" fill-opacity=".56"/>
    </g>
</svg>
