<svg xmlns="http://www.w3.org/2000/svg" width="32" height="32"><g fill="none"><rect width="32" height="32" fill="#FF6444" rx="2"/><path fill="#FFF" fill-opacity=".56" d="M29 9a1 1 0 0 1 1 1v4.773a1 1 0 0 1-1.664.748l-1.927-1.713-8.538 10.235a1.002 1.002 0 0 1-1.284.19l-.1-.072-8.996-7.307-3.67 5.136a1 1 0 0 1-1.288.298l-.107-.066a1 1 0 0 1-.298-1.289l.066-.107 4.29-6a.999.999 0 0 1 1.344-.265l.1.07L17 22l7.915-9.52-1.95-1.733A.999.999 0 0 1 23.63 9H29z"/><path fill="#333" d="M2 0h28a2 2 0 0 1 2 2v2H0V2a2 2 0 0 1 2-2z"/><circle cx="3" cy="2" r="1" fill="#FFF" fill-opacity=".56"/><circle cx="8" cy="2" r="1" fill="#FFF" fill-opacity=".56"/><circle cx="13" cy="2" r="1" fill="#FFF" fill-opacity=".56"/></g></svg>