<svg width="65" height="64" viewBox="0 0 65 64" fill="none" xmlns="http://www.w3.org/2000/svg">
<path fill-rule="evenodd" clip-rule="evenodd" d="M42.1873 40.5482C40.8194 40.5482 39.71 39.4388 39.71 38.0708C39.71 37.8362 39.7527 37.6135 39.8127 37.3988L33.7847 33.3015C33.3674 33.6228 32.8513 33.8188 32.2847 33.8188C31.8367 33.8188 31.4233 33.6908 31.0593 33.4842L24.654 39.2242C24.7847 39.5268 24.8607 39.8602 24.8607 40.2122C24.8607 41.5815 23.7514 42.6908 22.382 42.6908C21.0127 42.6908 19.9034 41.5815 19.9034 40.2122C19.9034 40.0815 19.922 39.9575 19.9407 39.8322L14.2127 36.8842C13.766 37.3215 13.154 37.5935 12.4793 37.5935C11.1087 37.5935 9.99935 36.4842 9.99935 35.1148C9.99935 33.7455 11.1087 32.6362 12.4793 32.6362C13.8473 32.6362 14.9567 33.7455 14.9567 35.1148C14.9567 35.2442 14.938 35.3695 14.9193 35.4948L20.6487 38.4442C21.0953 38.0055 21.706 37.7348 22.382 37.7348C22.8287 37.7348 23.2433 37.8615 23.606 38.0695L30.0127 32.3295C29.882 32.0255 29.806 31.6922 29.806 31.3415C29.806 29.9708 30.9153 28.8615 32.2847 28.8615C33.654 28.8615 34.7634 29.9708 34.7634 31.3415C34.7634 31.5762 34.7193 31.7988 34.6593 32.0135L40.6873 36.1095C41.1047 35.7895 41.6207 35.5908 42.1873 35.5908C43.5567 35.5908 44.666 36.7002 44.666 38.0708C44.666 39.4388 43.5567 40.5482 42.1873 40.5482ZM40.3275 56.4709H44.6648V43.6855H40.3275V56.4709ZM30.2181 56.4707H34.5554V37.8854H30.2181V56.4707ZM20.1087 56.4707H24.4461V46.1214H20.1087V56.4707ZM9.99935 56.4708H14.3367V40.7028H9.99935V56.4708ZM48.666 21.3335H5.99935C3.05402 21.3335 0.666016 23.7215 0.666016 26.6668V58.6668C0.666016 61.6122 3.05402 64.0002 5.99935 64.0002H48.666C51.6114 64.0002 53.9994 61.6122 53.9994 58.6668V26.6668C53.9994 23.7215 51.6114 21.3335 48.666 21.3335Z" fill="#85ACAF"/>
<g style="mix-blend-mode:multiply">
<path fill-rule="evenodd" clip-rule="evenodd" d="M48.666 0C39.83 0 32.666 7.164 32.666 16C32.666 24.836 39.83 32 48.666 32C57.502 32 64.666 24.836 64.666 16C64.666 7.164 57.502 0 48.666 0Z" fill="#FF444F"/>
</g>
<path fill-rule="evenodd" clip-rule="evenodd" d="M50.8736 14.5014C50.8736 15.4934 50.4896 16.4241 49.7896 17.1241C48.3923 18.5241 45.9443 18.5214 44.5443 17.1241C43.8456 16.4241 43.4603 15.4934 43.4603 14.5014C43.4603 13.5094 43.8456 12.5787 44.5443 11.8787C45.2443 11.1814 46.1763 10.7961 47.1683 10.7961C48.159 10.7961 49.0896 11.1801 49.7896 11.8787C50.4896 12.5787 50.8736 13.5094 50.8736 14.5014ZM52.645 18C54.265 15.4626 53.9223 12.0573 51.7677 9.90262C49.233 7.36662 45.1063 7.36529 42.569 9.90262C40.0317 12.4386 40.0317 16.5653 42.569 19.1013C44.721 21.2546 48.1277 21.5986 50.6664 19.9773L54.689 24L56.6664 22.0226L52.645 18Z" fill="white"/>
</svg>
