<svg xmlns="http://www.w3.org/2000/svg" width="64" height="64" viewBox="0 0 64 64">
    <g fill="#FF6444" fill-rule="evenodd">
        <circle cx="32" cy="32" r="32" fill-opacity=".08" fill-rule="nonzero"/>
        <path fill-opacity=".48" d="M31.375 38.82c.432-.345 1.06-.275 1.406.156l5.92 7.4c.141.177.218.397.218.624 0 .552-.447 1-1 1H26.081c-.227 0-.448-.077-.625-.22-.431-.344-.501-.973-.156-1.405l5.92-7.399c.045-.058.098-.11.155-.156zM47 34c.552 0 1 .448 1 1s-.448 1-1 1H17c-.552 0-1-.448-1-1s.448-1 1-1h30zm-7-18c4.418 0 8 3.582 8 8s-3.582 8-8 8-8-3.582-8-8 3.582-8 8-8z"/>
        <circle cx="20" cy="28" r="4"/>
    </g>
</svg>
