<svg width="66" height="66" viewBox="0 0 66 66" fill="none" xmlns="http://www.w3.org/2000/svg">
<rect opacity="0.01" x="1" y="1" width="64" height="64" stroke="#979797" stroke-width="1.33333"/>
<path fill-rule="evenodd" clip-rule="evenodd" d="M1 59.6666C1 62.6119 3.388 64.9999 6.33333 64.9999H49C51.9453 64.9999 54.3333 62.6119 54.3333 59.6666V56.5573H1V59.6666Z" fill="#85ACAF"/>
<mask id="mask0_789_54907" style="mask-type:alpha" maskUnits="userSpaceOnUse" x="1" y="19" width="54" height="36">
<path fill-rule="evenodd" clip-rule="evenodd" d="M1 19.4235H54.3332V54.3608H1V19.4235Z" fill="white"/>
</mask>
<g mask="url(#mask0_789_54907)">
<path fill-rule="evenodd" clip-rule="evenodd" d="M36.5078 41.382V49.3113H32.2024V41.382H27.8984L32.2024 35.6513L34.3558 32.786L36.5078 35.6513L40.8131 41.382H36.5078ZM23.1315 42.1328L20.9795 44.9982L18.8262 42.1342L14.5208 36.4035H18.8262V28.4742H23.1315V36.4035H27.4355L23.1315 42.1328ZM49 19.4235H6.33333C3.388 19.4235 1 21.8115 1 24.7568V54.3608H54.3333V24.7568C54.3333 21.8115 51.9453 19.4235 49 19.4235Z" fill="#85ACAF"/>
</g>
<g style="mix-blend-mode:multiply">
<path fill-rule="evenodd" clip-rule="evenodd" d="M47 1C37.0595 1 29 9.058 29 19C29 28.9405 37.0595 37 47 37C56.9405 37 65 28.9405 65 19C65 9.058 56.9405 1 47 1Z" fill="#FF444F"/>
</g>
<path fill-rule="evenodd" clip-rule="evenodd" d="M43.8358 13.4185C43.8358 12.0833 42.7536 11 41.4185 11C40.0822 11 39 12.0833 39 13.4185C39 14.7548 40.0822 15.8369 41.4185 15.8369C42.7536 15.8369 43.8358 14.7548 43.8358 13.4185ZM44.1518 26.9472H40.6328L50.7816 11H54.3018L44.1518 26.9472ZM50.1641 24.5816C50.1641 23.2464 51.2462 22.1631 52.5825 22.1631C53.9188 22.1631 55.001 23.2464 55.001 24.5816C55.001 25.9179 53.9188 27 52.5825 27C51.2462 27 50.1641 25.9179 50.1641 24.5816Z" fill="white"/>
</svg>
