<svg xmlns="http://www.w3.org/2000/svg" width="64" height="64"><g fill="none" fill-rule="evenodd"><circle cx="32" cy="32" r="32" fill="#FF6444" fill-opacity=".08" fill-rule="nonzero"/><path fill="#FCAC9C" d="M46 19a2 2 0 0 1 2 2v22a2 2 0 0 1-2 2H34v-5c0-2.21-1.79-4-4-4h-7c-2.21 0-4 1.79-4 4v5h-1a2 2 0 0 1-2-2V21a2 2 0 0 1 2-2h28zm-19.5 7c-2.485 0-4.5 2.239-4.5 5s2.015 5 4.5 5 4.5-2.239 4.5-5-2.015-5-4.5-5zM41 31h-5a1 1 0 0 0 0 2h5a1 1 0 0 0 0-2zm3-5h-8a1 1 0 0 0-1 1v1a1 1 0 0 0 1 1h8a1 1 0 0 0 1-1v-1a1 1 0 0 0-1-1z"/><path fill="#FF6444" d="M18 19h28a2 2 0 0 1 2 2v2H16v-2a2 2 0 0 1 2-2z"/></g></svg>