<svg xmlns="http://www.w3.org/2000/svg" width="64" height="64" viewBox="0 0 64 64">
    <g fill="none" fill-rule="evenodd">
        <circle cx="32" cy="32" r="32" fill="#FF6444" fill-opacity=".08" fill-rule="nonzero"/>
        <path fill="#FCAC9C" d="M46 19c1.105 0 2 .895 2 2v22c0 1.105-.895 2-2 2H34v-5c0-2.21-1.79-4-4-4h-7c-2.21 0-4 1.79-4 4v5h-1c-1.105 0-2-.895-2-2V21c0-1.105.895-2 2-2h28zm-19.5 7c-2.485 0-4.5 2.239-4.5 5s2.015 5 4.5 5 4.5-2.239 4.5-5-2.015-5-4.5-5zM41 31h-5c-.552 0-1 .448-1 1s.448 1 1 1h5c.552 0 1-.448 1-1s-.448-1-1-1zm3-5h-8c-.552 0-1 .448-1 1v1c0 .552.448 1 1 1h8c.552 0 1-.448 1-1v-1c0-.552-.448-1-1-1z"/>
        <path fill="#FF6444" d="M18 19h28c1.105 0 2 .895 2 2v2H16v-2c0-1.105.895-2 2-2z"/>
    </g>
</svg>
