<svg xmlns="http://www.w3.org/2000/svg" width="64" height="64"><defs><linearGradient id="a" x1="0%" x2="100%" y1="71.461%" y2="28.539%"><stop offset="0%" stop-color="#FF444F"/><stop offset="100%" stop-color="#FF6444"/></linearGradient></defs><g fill="none" fill-rule="evenodd"><path d="M0 0h64v64H0z"/><path fill="url(#a)" fill-rule="nonzero" d="M37 13c.351 0 .677.184.857.486L43 22.056l5.143-8.57a.997.997 0 0 1 .727-.477L49 13h10a1 1 0 0 1 .84 1.543L49.186 31.006l11.66 18.46a1.001 1.001 0 0 1-.73 1.528L60 51H50c-.342 0-.66-.175-.844-.463L43 40.862l-6.156 9.675a1.002 1.002 0 0 1-.717.455L36 51H26a1 1 0 0 1-.845-1.534l11.658-18.46-7.814-12.076L29 22a1 1 0 0 1-1 1H13v6h11a1 1 0 0 1 .993.883L25 30v8a1 1 0 0 1-1 1H13v11a1 1 0 0 1-.883.993L12 51H4a1 1 0 0 1-1-1V14a1 1 0 0 1 1-1zm-10 2H5v34h6V38a1 1 0 0 1 .883-.993L12 37h11v-6H12a1 1 0 0 1-.993-.883L11 30v-8a1 1 0 0 1 1-1h15v-6zm9.434 0H29v.25l9.84 15.207c.164.254.202.565.113.846l-.046.118-.062.113L27.813 49h7.638l6.705-10.537a1 1 0 0 1 1.613-.102l.075.102L50.548 49h7.638L47.155 31.534a1 1 0 0 1-.057-.965l.062-.112L57.161 15h-7.596l-5.708 9.514a.999.999 0 0 1-1.64.108l-.074-.108L36.434 15z"/></g></svg>