<svg xmlns="http://www.w3.org/2000/svg" width="64" height="64"><g fill="none" fill-rule="evenodd"><circle cx="32" cy="32" r="32" fill="#FF6444" fill-opacity=".08" fill-rule="nonzero"/><path fill="#FCAC9C" d="m37.795 16 .164.008 7.778.707a2 2 0 0 1 1.801 1.723l.016.174.354 7.425a2 2 0 0 1-3.98.362l-.016-.172-.138-2.91-5.884 5.885a12.058 12.058 0 0 0-2.784-2.873l6.017-6.017-3.526-.32a2 2 0 0 1-1.819-2.009l.008-.164A2 2 0 0 1 37.796 16z"/><path fill="#FF6444" d="M28 24c6.627 0 12 5.373 12 12s-5.373 12-12 12-12-5.373-12-12 5.373-12 12-12zm0 4c-.667 0-1.21.535-1.217 1.2v1.367h-.448A3.328 3.328 0 0 0 23 33.889a3.328 3.328 0 0 0 3.335 3.323h3.33a.897.897 0 0 1 0 1.794h-5.448c-.667.007-1.205.548-1.205 1.213s.538 1.206 1.205 1.213h2.566V42.8c.006.665.55 1.2 1.217 1.2s1.21-.535 1.217-1.2v-1.37h.448c1.842 0 3.335-1.487 3.335-3.322s-1.493-3.323-3.335-3.323h-3.33a.898.898 0 1 1 0-1.794h5.449c.667-.007 1.205-.548 1.205-1.213s-.538-1.205-1.205-1.212h-2.566V29.2A1.215 1.215 0 0 0 28 28z"/></g></svg>