<svg width="66" height="66" viewBox="0 0 66 66" fill="none" xmlns="http://www.w3.org/2000/svg">
<rect opacity="0.01" x="1" y="1" width="64" height="64" fill="white" stroke="#979797" stroke-width="1.33333"/>
<mask id="mask0_783_45603" style="mask-type:alpha" maskUnits="userSpaceOnUse" x="1" y="1" width="64" height="64">
<path fill-rule="evenodd" clip-rule="evenodd" d="M1 1H64.9996V64.9996H1V1Z" fill="white"/>
</mask>
<g mask="url(#mask0_783_45603)">
<path fill-rule="evenodd" clip-rule="evenodd" d="M35.2969 61.2396L35.4715 55.5502L37.8409 55.6236L37.9422 52.3049L41.4969 52.4129L41.6569 47.1982L44.1355 43.7142L46.5422 42.6022L50.3049 43.6662L52.5889 46.5822L57.0702 47.4315C57.0702 47.4315 51.0035 59.7582 35.2969 61.2396ZM26.1229 50.5236L24.2269 50.1023L22.5443 47.1556L24.4376 44.4183L26.0736 43.5169L27.3856 44.4183L27.8069 46.9449L28.0176 49.0489L26.1229 50.5236ZM17.9679 45.4169L19.4199 47.4155L17.6039 49.8675L12.3359 48.4142L5.16256 41.0582C4.61723 37.5622 4.41856 34.3142 4.41856 34.3142C4.4039 33.9382 4.39323 33.5609 4.39323 33.1822C4.39323 27.2542 6.12656 21.6182 9.4239 16.7649L10.9692 14.5195L13.8226 16.2329L14.8746 17.9169L17.8226 19.8129L19.7159 21.0755L20.3479 22.5489V24.6542C20.3479 26.1289 21.1906 32.8649 21.1906 32.8649L19.0852 35.8129L16.3479 37.7075C16.3479 37.7075 15.7159 38.7609 15.7159 39.8129V40.1622V40.2195V40.8662V43.6022L17.9679 45.4169ZM60.9227 32.9998L60.8667 34.4331C60.8373 35.1771 60.128 35.7038 59.408 35.5144L57.3493 34.9744L56.1493 32.9998H33V0.999756C22.7547 0.999756 13.64 5.82242 7.78267 13.3131C3.53733 18.7438 1 25.5731 1 32.9998C1 33.4931 1.016 33.9838 1.03867 34.4718C1.808 51.4611 15.8213 64.9998 33 64.9998C50.6733 64.9998 65 50.6731 65 32.9998H60.9227Z" fill="#85ACAF"/>
</g>
<g style="mix-blend-mode:multiply">
<path fill-rule="evenodd" clip-rule="evenodd" d="M58.6502 5.73309H47.6955L41.8809 15.7478H26.5022C25.9702 16.8811 24.8275 17.6718 23.4915 17.6718C21.6515 17.6718 20.1582 16.1798 20.1582 14.3384C20.1582 12.4971 21.6515 11.0051 23.4915 11.0051C24.8875 11.0051 26.0782 11.8651 26.5755 13.0811H40.3435L46.1595 3.06642H58.5849C59.0835 1.85442 60.2742 0.999756 61.6662 0.999756C63.5062 0.999756 64.9995 2.49176 64.9995 4.33309C64.9995 6.17442 63.5062 7.66642 61.6662 7.66642C60.3275 7.66642 59.1795 6.87176 58.6502 5.73309ZM56.3674 25.9827H50.2207V8.48674H56.3674V25.9827ZM41.5892 25.9828H47.7345V18.1734H41.5892V25.9828ZM39.105 25.984H33.0397V19.6267H39.105V25.984ZM64.9984 30.464H33.0397V27.8907H64.9984V30.464ZM58.8522 25.9828H64.9989V11.7561H58.8522V25.9828Z" fill="#FF444F"/>
</g>
</svg>
