<svg xmlns="http://www.w3.org/2000/svg" width="48" height="48"><defs><linearGradient id="a" x1="0%" x2="100%" y1="100%" y2="0%"><stop offset="0%" stop-color="#FF444F"/><stop offset="100%" stop-color="#FF6444"/></linearGradient></defs><path fill="url(#a)" d="M159 64a6 6 0 0 1 6 6v36a6 6 0 0 1-6 6h-36a6 6 0 0 1-6-6V70a6 6 0 0 1 6-6h36zm0 3h-36a3 3 0 0 0-2.992 2.776L120 70v36a3 3 0 0 0 2.776 2.992L123 109h36a3 3 0 0 0 2.992-2.776L162 106V70a3 3 0 0 0-2.776-2.992L159 67zm-29.61 9.39a1.335 1.335 0 0 1 1.886 0L141 86.115l9.724-9.723a1.332 1.332 0 0 1 1.996 1.76l-.11.125L142.885 88l9.723 9.724.111.125a1.334 1.334 0 0 1-1.996 1.76L141 89.886l-9.724 9.723a1.332 1.332 0 0 1-1.996-1.76l.11-.125L139.115 88l-9.723-9.724-.111-.125a1.334 1.334 0 0 1 .11-1.76z" transform="translate(-117 -64)"/></svg>