<svg xmlns="http://www.w3.org/2000/svg" width="48" height="49"><defs><linearGradient id="a" x1=".325%" x2="99.675%" y1="100%" y2="0%"><stop offset="0%" stop-color="#FF444F"/><stop offset="100%" stop-color="#FF6444"/></linearGradient></defs><path fill="url(#a)" d="M158 64.21c3.314 0 6 2.694 6 6.019v36.117c0 3.325-2.686 6.02-6 6.02h-36c-3.314 0-6-2.695-6-6.02V70.23c0-3.325 2.686-6.02 6-6.02h36zm0 3.009h-36a3.005 3.005 0 0 0-2.992 2.785l-.008.225v36.117a3.006 3.006 0 0 0 2.776 3.002l.224.008h36a3.005 3.005 0 0 0 2.992-2.785l.008-.225V70.23a3.006 3.006 0 0 0-2.776-3.002L158 67.22zm-25.5 36.118-.045-.001-.09-.006.135.007a1.37 1.37 0 0 1-.204-.015l-.067-.01a1.52 1.52 0 0 1-.593-.258l-.042-.032-.013-.01-.032-.027a1.308 1.308 0 0 1-.087-.08l-.023-.023-6-6.202a1.588 1.588 0 0 1 0-2.192 1.464 1.464 0 0 1 1.98-.13l.142.13L131 98.042v-10.21c0-.857.672-1.551 1.5-1.551.77 0 1.403.599 1.49 1.37l.01.18v10.211l3.44-3.554c.54-.56 1.39-.602 1.98-.13l.14.13c.541.559.583 1.438.125 2.046l-.124.146-6 6.202a1.786 1.786 0 0 1-.1.095l.1-.095c-.05.05-.1.097-.154.14l-.058.042-.053.037-.072.044-.038.02c-.03.016-.06.031-.091.045l-.042.018a1.17 1.17 0 0 1-.083.03l-.047.016a1.265 1.265 0 0 1-.088.024l-.048.01a1.836 1.836 0 0 1-.107.018l-.025.002c-.032.004-.065.006-.098.008h-.057zm15-31.102-.045.001c-.03 0-.06.003-.09.006l.135-.007c-.07 0-.137.005-.204.015l-.067.01a1.474 1.474 0 0 0-.593.258l-.042.032-.013.01-.032.026c-.03.026-.059.052-.087.08l-.023.023-6 6.202a1.59 1.59 0 0 0 0 2.193c.541.56 1.392.602 1.98.13l.142-.13L146 77.53v10.21c0 .857.672 1.55 1.5 1.55.77 0 1.403-.598 1.49-1.369l.01-.18V77.53l3.44 3.554c.54.56 1.39.602 1.98.13l.14-.13a1.588 1.588 0 0 0 .125-2.046l-.124-.147-6-6.202a1.766 1.766 0 0 0-.1-.094l.1.094c-.05-.05-.1-.096-.154-.138-.019-.015-.038-.03-.058-.043l-.053-.037-.072-.044-.038-.02a1.537 1.537 0 0 0-.091-.045l-.042-.018a1.177 1.177 0 0 0-.083-.031l-.047-.015a1.265 1.265 0 0 0-.088-.024l-.048-.01a1.836 1.836 0 0 0-.107-.018l-.025-.002c-.032-.004-.065-.006-.098-.008h-.057z" transform="translate(-116 -64)"/></svg>