<svg xmlns="http://www.w3.org/2000/svg" width="64" height="64"><g fill="#FF6444" fill-rule="evenodd"><circle cx="32" cy="32" r="32" fill-opacity=".08" fill-rule="nonzero"/><path fill-opacity=".48" d="M29.429 39H18.333A1.333 1.333 0 0 1 17 37.667V18.333c0-.736.597-1.333 1.333-1.333h29.334c.736 0 1.333.597 1.333 1.333v19.334c0 .736-.597 1.333-1.333 1.333H36.57L38 44h4.333c.369 0 .667.298.667.667v.666a.666.666 0 0 1-.667.667H23.667a.666.666 0 0 1-.667-.667v-.666c0-.369.298-.667.667-.667H28l1.429-5z"/><path fill-rule="nonzero" d="M17 36h32v1.667c0 .736-.597 1.333-1.333 1.333H18.333A1.333 1.333 0 0 1 17 37.667V36z"/><path d="M24 30a1 1 0 0 1 1 1v14a1 1 0 0 1-1 1h-8a1 1 0 0 1-1-1V31a1 1 0 0 1 1-1h8zm-4 12a1 1 0 1 0 0 2 1 1 0 0 0 0-2z"/></g></svg>