<svg width="49" height="48" viewBox="0 0 49 48" fill="none" xmlns="http://www.w3.org/2000/svg">
<path fill-rule="evenodd" clip-rule="evenodd" d="M25.332 39V34H27.332V39H25.332Z" fill="white"/>
<path fill-rule="evenodd" clip-rule="evenodd" d="M20.332 39C20.332 38.4477 20.7797 38 21.332 38H31.332C31.8843 38 32.332 38.4477 32.332 39C32.332 39.5523 31.8843 40 31.332 40H21.332C20.7797 40 20.332 39.5523 20.332 39Z" fill="white"/>
<path fill-rule="evenodd" clip-rule="evenodd" d="M45.332 16C45.8843 16 46.332 16.4477 46.332 17V30C46.332 32.7623 44.0943 35 41.332 35H21.332C20.7797 35 20.332 34.5523 20.332 34C20.332 33.4477 20.7797 33 21.332 33H41.332C42.9897 33 44.332 31.6577 44.332 30V17C44.332 16.4477 44.7797 16 45.332 16Z" fill="white"/>
<path fill-rule="evenodd" clip-rule="evenodd" d="M11.332 9.99999C9.67432 9.99999 8.33203 11.3423 8.33203 13V16C8.33203 16.5523 7.88432 17 7.33203 17C6.77975 17 6.33203 16.5523 6.33203 16V13C6.33203 10.2377 8.56975 7.99999 11.332 7.99999H32.332C32.8843 7.99999 33.332 8.44771 33.332 8.99999C33.332 9.55228 32.8843 9.99999 32.332 9.99999H11.332Z" fill="white"/>
<path fill-rule="evenodd" clip-rule="evenodd" d="M6.33203 39.8C6.33203 39.2477 6.77975 38.8 7.33203 38.8H13.332C13.8843 38.8 14.332 39.2477 14.332 39.8C14.332 40.3523 13.8843 40.8 13.332 40.8H7.33203C6.77975 40.8 6.33203 40.3523 6.33203 39.8Z" fill="white"/>
<path d="M14.332 21C15.432 21 16.332 21.9 16.332 23V41C16.332 42.1 15.432 43 14.332 43H6.33203C5.23203 43 4.33203 42.1 4.33203 41V23C4.33203 21.9 5.23203 21 6.33203 21H14.332ZM14.332 19H6.33203C4.12203 19 2.33203 20.79 2.33203 23V41C2.33203 43.21 4.12203 45 6.33203 45H14.332C16.542 45 18.332 43.21 18.332 41V23C18.332 20.79 16.542 19 14.332 19Z" fill="white"/>
<path fill-rule="evenodd" clip-rule="evenodd" d="M41.6483 2.05131C41.443 1.98291 41.2211 1.98289 41.0159 2.05129L41.0087 2.05367L40.985 2.0615L40.8916 2.09209C40.8101 2.11863 40.6918 2.15678 40.5465 2.20266C40.2555 2.29457 39.8584 2.41672 39.4323 2.53847C39.0044 2.66074 38.5567 2.77984 38.162 2.86755C37.7434 2.96056 37.4624 2.99999 37.332 2.99999C36.7797 2.99999 36.332 3.44771 36.332 3.99999V9.99999C36.332 10.828 36.7388 11.5468 37.1762 12.0934C37.6246 12.654 38.1978 13.1493 38.732 13.55C39.2721 13.955 39.8067 14.2887 40.2032 14.52C40.4025 14.6363 40.5694 14.7281 40.6879 14.7916C40.7473 14.8234 40.7947 14.8482 40.8281 14.8655L40.8676 14.8857L40.8791 14.8915L40.8827 14.8933L40.8839 14.894C40.8839 14.894 40.8848 14.8944 41.332 14L40.8839 14.894C41.1478 15.0259 41.4573 15.035 41.7281 14.9182C42.0456 14.7813 43.1207 14.2413 44.1342 13.4592C44.6427 13.0668 45.1719 12.5859 45.5817 12.0338C45.9881 11.4864 46.332 10.7936 46.332 9.99999V3.99999C46.332 3.44771 45.8843 2.99999 45.332 2.99999C45.2016 2.99999 44.9206 2.96056 44.5021 2.86755C44.1074 2.77984 43.6597 2.66074 43.2318 2.53847C42.8056 2.41672 42.4086 2.29457 42.1175 2.20266C41.9723 2.15678 41.854 2.11863 41.7725 2.09209L41.6791 2.0615L41.6554 2.05367L41.6483 2.05131ZM41.3529 12.8742C41.7478 12.6636 42.3444 12.3141 42.9123 11.8758C43.3401 11.5457 43.7153 11.1928 43.9758 10.8418C44.2398 10.4861 44.332 10.2064 44.332 9.99999V4.87586C44.2431 4.85801 44.1548 4.83915 44.0682 4.81993C43.6192 4.72014 43.1294 4.58925 42.6823 4.46151C42.2334 4.33326 41.818 4.20541 41.5153 4.10982C41.4486 4.08875 41.3872 4.06921 41.332 4.05154C41.2769 4.06921 41.2155 4.08875 41.1488 4.10982C40.8461 4.20541 40.4306 4.33326 39.9818 4.46151C39.5347 4.58925 39.0449 4.72014 38.5958 4.81993C38.5093 4.83915 38.421 4.85801 38.332 4.87586V9.99999C38.332 10.172 38.4252 10.4532 38.7379 10.844C39.0394 11.221 39.4663 11.6007 39.932 11.95C40.392 12.295 40.8574 12.5863 41.2109 12.7925C41.2608 12.8216 41.3082 12.8489 41.3529 12.8742Z" fill="white"/>
</svg>
