<svg xmlns="http://www.w3.org/2000/svg" width="64" height="64" viewBox="0 0 64 64">
    <g fill="#FF6444" fill-rule="evenodd">
        <circle cx="32" cy="32" r="32" fill-opacity=".08" fill-rule="nonzero"/>
        <path fill-opacity=".48" d="M29.429 39H18.333C17.597 39 17 38.403 17 37.667V18.333c0-.736.597-1.333 1.333-1.333h29.334c.736 0 1.333.597 1.333 1.333v19.334c0 .736-.597 1.333-1.333 1.333H36.57L38 44h4.333c.369 0 .667.298.667.667v.666c0 .369-.298.667-.667.667H23.667c-.369 0-.667-.298-.667-.667v-.666c0-.369.298-.667.667-.667H28l1.429-5z"/>
        <path fill-rule="nonzero" d="M17 36h32v1.667c0 .736-.597 1.333-1.333 1.333H18.333C17.597 39 17 38.403 17 37.667V36z"/>
        <path d="M24 30c.552 0 1 .448 1 1v14c0 .552-.448 1-1 1h-8c-.552 0-1-.448-1-1V31c0-.552.448-1 1-1h8zm-4 12c-.552 0-1 .448-1 1s.448 1 1 1 1-.448 1-1-.448-1-1-1z"/>
    </g>
</svg>
