<svg width="32" height="32" viewBox="0 0 32 32" fill="none" xmlns="http://www.w3.org/2000/svg">
<path fill-rule="evenodd" clip-rule="evenodd" d="M0.000243364 3.08696C0.000243364 2.53346 0.220117 2.00264 0.611497 1.61126C1.00288 1.21987 1.5337 1 2.0872 1H25.8994C26.4529 1 26.9837 1.21987 27.3751 1.61126C27.7665 2.00264 27.9863 2.53346 27.9863 3.08696V6.62087H0.000243364V3.08696ZM24.675 4.93739C24.8828 4.93739 25.0859 4.87578 25.2586 4.76036C25.4314 4.64494 25.566 4.48088 25.6455 4.28894C25.725 4.097 25.7458 3.88579 25.7053 3.68203C25.6647 3.47826 25.5647 3.29109 25.4178 3.14419C25.2709 2.99728 25.0837 2.89724 24.88 2.85671C24.6762 2.81617 24.465 2.83698 24.273 2.91648C24.0811 2.99599 23.917 3.13062 23.8016 3.30337C23.6862 3.47611 23.6246 3.6792 23.6246 3.88696C23.6264 4.16499 23.7377 4.43111 23.9343 4.62771C24.1309 4.82431 24.397 4.93557 24.675 4.93739ZM21.2872 4.93739C21.495 4.93739 21.698 4.87578 21.8708 4.76036C22.0435 4.64494 22.1782 4.48088 22.2577 4.28894C22.3372 4.097 22.358 3.88579 22.3174 3.68203C22.2769 3.47826 22.1769 3.29109 22.03 3.14419C21.8831 2.99728 21.6959 2.89724 21.4921 2.85671C21.2884 2.81617 21.0772 2.83698 20.8852 2.91648C20.6933 2.99599 20.5292 3.13062 20.4138 3.30337C20.2984 3.47611 20.2368 3.6792 20.2368 3.88696C20.2368 4.0249 20.2639 4.1615 20.3167 4.28894C20.3695 4.41639 20.4469 4.53218 20.5444 4.62973C20.642 4.72727 20.7578 4.80464 20.8852 4.85743C21.0127 4.91022 21.1493 4.93739 21.2872 4.93739ZM17.9063 4.93739C18.1141 4.93739 18.3172 4.87578 18.4899 4.76036C18.6627 4.64494 18.7973 4.48088 18.8768 4.28894C18.9563 4.097 18.9771 3.88579 18.9366 3.68203C18.896 3.47826 18.796 3.29109 18.6491 3.14419C18.5022 2.99728 18.315 2.89724 18.1113 2.85671C17.9075 2.81617 17.6963 2.83698 17.5043 2.91648C17.3124 2.99599 17.1483 3.13062 17.0329 3.30337C16.9175 3.47611 16.8559 3.6792 16.8559 3.88696C16.8577 4.16499 16.969 4.43111 17.1656 4.62771C17.3622 4.82431 17.6283 4.93557 17.9063 4.93739ZM0 15.6473V22.0155C0 22.569 0.219875 23.0998 0.611255 23.4912C1.00264 23.8826 1.53346 24.1024 2.08696 24.1024H25.8991C26.4526 24.1024 26.9834 23.8826 27.3748 23.4912C27.7662 23.0998 27.9861 22.569 27.9861 22.0155V7.58765H0V13.9807H2.95533L6.50933 18.542L12.1267 9L16.872 14.8287H20.738C21.0947 14.0473 21.9333 13.5327 22.8773 13.6807C23.698 13.8093 24.3787 14.474 24.5227 15.2913C24.7453 16.5567 23.7787 17.6553 22.5547 17.6553C21.7513 17.6553 21.0633 17.1787 20.7453 16.4953H16.0787L12.3473 11.9107L6.70133 21.5L2.14067 15.6473H0Z" fill="#85ACB0"/>
<g style="mix-blend-mode:multiply">
<path d="M31.8877 21.7302L31.8211 21.3092L30.5354 20.8795C30.4232 20.5322 30.2828 20.1919 30.1162 19.8674L30.7231 18.6554L30.474 18.3081C29.9689 17.6188 29.3655 17.0154 28.6797 16.5173L28.3341 16.2682L27.1221 16.8751C26.7959 16.7085 26.4574 16.5681 26.1101 16.4559L25.6821 15.1737L25.2646 15.1088C24.7998 15.0351 24.3982 15.0001 23.9982 15.0001C23.6089 15.0001 23.2054 15.0351 22.7301 15.1106L22.3091 15.1772L21.8812 16.4646C21.5269 16.5804 21.1866 16.7207 20.8691 16.8821L19.6588 16.2735L19.3133 16.5225C18.6257 17.0207 18.0224 17.6223 17.5207 18.3134L17.2717 18.6607L17.8785 19.8727C17.7137 20.1972 17.5733 20.5357 17.4611 20.883L16.1754 21.3092L16.1087 21.7302C16.0351 22.195 16 22.6089 16 23.0001C16 23.393 16.0351 23.8069 16.1087 24.2682L16.1754 24.6892L17.4611 25.1189C17.5733 25.4662 17.7137 25.8065 17.8803 26.1309L17.2769 27.3395L17.526 27.6832C17.7856 28.0446 18.0539 28.362 18.3451 28.655C18.617 28.9286 18.9344 29.1969 19.3151 29.4758L19.6606 29.7249L20.8709 29.118C21.1971 29.2846 21.5356 29.4267 21.8829 29.5372L22.3109 30.8247L22.7319 30.8913C23.1932 30.965 23.6071 31.0001 23.9982 31.0001C24.3894 31.0001 24.8033 30.965 25.2664 30.8913L25.6874 30.8247L26.1153 29.5372C26.4591 29.425 26.7976 29.2846 27.1256 29.1198L28.3376 29.7267L28.6832 29.4776C29.0603 29.2057 29.3778 28.9374 29.6531 28.6567C29.939 28.3708 30.2057 28.0516 30.4723 27.685L30.7213 27.3377L30.1144 26.1257C30.2811 25.8012 30.4214 25.4627 30.5337 25.1136L31.8193 24.6839L31.886 24.2629C31.9597 23.8016 31.9947 23.3877 31.9947 22.9965C32 22.6089 31.9649 22.1932 31.8877 21.7302Z" fill="#FF444F"/>
</g>
<path fill-rule="evenodd" clip-rule="evenodd" d="M24 21C22.8954 21 22 21.8954 22 23C22 24.1046 22.8954 25 24 25C25.1046 25 26 24.1046 26 23C26 21.8954 25.1046 21 24 21ZM20 23C20 20.7909 21.7909 19 24 19C26.2091 19 28 20.7909 28 23C28 25.2091 26.2091 27 24 27C21.7909 27 20 25.2091 20 23Z" fill="white"/>
</svg>
