<svg width="32" height="32" viewBox="0 0 32 32" fill="none" xmlns="http://www.w3.org/2000/svg">
<path d="M0 6C0 2.68629 2.68629 0 6 0H26C29.3137 0 32 2.68629 32 6V26C32 29.3137 29.3137 32 26 32H6C2.68629 32 0 29.3137 0 26V6Z" fill="#33658A"/>
<path d="M15.9274 25.2631C14.7847 25.2631 13.787 23.401 13.2531 20.6331L18.6022 20.6329C18.0677 23.4009 17.07 25.2631 15.9274 25.2631ZM14.1108 24.8562C12.6088 24.1633 11.351 22.6348 10.5786 20.6325L12.5029 20.6332C12.8627 22.4272 13.4249 23.9031 14.1108 24.8562ZM17.7446 24.8555C18.4302 23.9027 18.9923 22.4268 19.352 20.6326L21.2759 20.6334C20.5035 22.635 19.2461 24.1631 17.7446 24.8555ZM12.2276 24.4952C10.4073 23.701 8.89148 22.3389 7.90428 20.6327L9.76321 20.6329C10.334 22.2141 11.1878 23.5483 12.2276 24.4952ZM19.627 24.4948C20.6668 23.5482 21.5207 22.2142 22.0914 20.633L23.9501 20.6327C22.9632 22.3388 21.4474 23.7008 19.627 24.4948ZM7.82233 15.2283C8.20174 15.2283 8.59217 15.2474 8.9964 15.2854C8.98603 15.5219 8.98019 15.7601 8.98019 16.0002C8.98019 17.368 9.16966 18.672 9.51275 19.8602L7.50507 19.8613C6.96538 18.6859 6.66447 17.3782 6.66447 16.0002C6.66447 15.7804 6.67213 15.5624 6.68719 15.3464C7.0232 15.2691 7.40238 15.2283 7.82233 15.2283ZM9.76599 15.3779C10.4839 15.482 11.2468 15.6401 12.0683 15.8509L12.0678 16.0002C12.0678 17.3681 12.1731 18.6721 12.3637 19.8603L10.3124 19.8609C9.95266 18.6856 9.7521 17.378 9.7521 16.0002L9.75632 15.6545L9.76599 15.3779ZM12.8398 16.0592L13.2582 16.1802C13.8683 16.3603 14.4738 16.5531 15.2013 16.7976L15.5759 16.9244L17.9287 17.7348C18.2835 17.8556 18.6195 17.9688 18.9383 18.0745C18.8908 18.696 18.8224 19.2936 18.7355 19.8605L13.1199 19.8608C12.9426 18.7024 12.8426 17.4154 12.8398 16.0592ZM19.6835 18.3181C20.4967 18.5795 21.1862 18.7847 21.7856 18.9387C21.7154 19.2539 21.6341 19.5616 21.5425 19.8607L19.491 19.8609C19.5671 19.3862 19.6296 18.8931 19.6773 18.3848L19.6835 18.3181ZM22.5341 19.114C23.3603 19.286 24.0018 19.3372 24.5895 19.2872C24.5157 19.4816 24.4356 19.6728 24.3494 19.8607L22.3418 19.8608C22.4064 19.6369 22.4657 19.4089 22.5192 19.1772L22.5341 19.114ZM25.1903 16.0002C25.1903 16.294 25.1766 16.5846 25.1498 16.8713C24.4971 17.0209 23.8177 17.0243 22.8515 16.84C22.8664 16.5632 22.8745 16.283 22.8745 16.0002C22.8745 14.6327 22.6852 13.3292 22.3423 12.1412L24.3501 12.1402C24.8895 13.3152 25.1903 14.6226 25.1903 16.0002ZM22.1026 16.0002C22.1026 16.2254 22.0973 16.4488 22.0867 16.67C21.4503 16.5123 20.6997 16.2899 19.7884 15.9959C19.7879 14.6303 19.6824 13.328 19.4917 12.1409L21.5427 12.1406C21.9022 13.3155 22.1026 14.6228 22.1026 16.0002ZM19.0138 15.7407C18.7762 15.6622 18.5284 15.579 18.27 15.4914L17.8745 15.3566L16.1005 14.7442C15.1867 14.4305 14.472 14.1962 13.7749 13.9852L13.4768 13.8961L13.07 13.7783C13.0235 13.7651 12.9771 13.7521 12.931 13.7392C12.9775 13.1848 13.0406 12.6503 13.1187 12.1406L18.735 12.1405C18.9034 13.2414 19.0021 14.4585 19.0138 15.7407ZM12.1846 13.5403C11.436 13.35 10.7313 13.202 10.0611 13.0977C10.1331 12.7702 10.217 12.4507 10.3119 12.1405L12.3636 12.1405C12.2913 12.5914 12.2313 13.0589 12.1846 13.5403ZM9.29724 12.9944C8.78916 12.9407 8.29876 12.9126 7.82233 12.9126C7.60031 12.9126 7.38643 12.9232 7.18111 12.9438C7.27673 12.6699 7.38487 12.4019 7.50484 12.1403L9.51262 12.1407C9.43224 12.4192 9.36029 12.7039 9.29724 12.9944ZM12.2277 7.50565C11.1877 8.45239 10.3338 9.78664 9.76304 11.3681L7.90394 11.3686C8.89074 9.6623 10.4068 8.29981 12.2277 7.50565ZM14.1101 7.14489C13.4244 8.098 12.8623 9.5741 12.5027 11.3683L10.578 11.369C11.3504 9.36634 12.6082 7.83755 14.1101 7.14489ZM15.9274 6.7373C17.0702 6.7373 18.068 8.59997 18.6019 11.3685L13.252 11.3688C13.7865 8.60045 14.7844 6.7373 15.9274 6.7373ZM17.7446 7.14489C19.2465 7.83754 20.5043 9.36626 21.2766 11.3689L19.3527 11.3694C19.0036 9.62948 18.4643 8.18801 17.8063 7.23273L17.7446 7.14489ZM19.627 7.50565C21.4478 8.29977 22.9638 9.66216 23.951 11.3687L22.0919 11.3686C21.5364 9.82915 20.7126 8.52387 19.7102 7.58207L19.627 7.50565Z" fill="white"/>
<path d="M24.7456 13.6887C26.081 13.4832 27.4132 14.203 27.8536 15.2981C28.3525 16.5388 27.5633 17.7365 25.6871 18.2993L25.4838 18.3568C23.864 18.7862 22.3625 18.4726 17.9287 16.9626L15.5758 16.1522C14.6754 15.8455 13.97 15.6181 13.2582 15.408C11.1301 14.7797 9.383 14.4561 7.82231 14.4561C5.79198 14.4561 4.71438 15.409 4.77436 16.6648C4.83193 17.87 5.91434 18.8153 7.40731 18.7027C7.61986 18.6866 7.80517 18.8459 7.82121 19.0585C7.83726 19.271 7.67795 19.4563 7.4654 19.4724C5.54108 19.6176 4.08174 18.3431 4.00333 16.7016C3.92076 14.9731 5.37827 13.6842 7.82231 13.6842C9.36656 13.6842 11.0577 13.9795 13.0699 14.5499L13.4767 14.6677C14.2718 14.9024 15.0561 15.1573 16.1005 15.5158L17.8745 16.1282C22.5148 17.716 23.9513 18.0142 25.4653 17.56C26.9456 17.1159 27.4467 16.3553 27.1374 15.5861C26.8336 14.8306 25.8508 14.2996 24.863 14.4516C24.6523 14.484 24.4552 14.3395 24.4228 14.1288C24.3904 13.9181 24.5349 13.7211 24.7456 13.6887Z" fill="white"/>
</svg>
