<svg width="45" height="40" viewBox="0 0 45 40" fill="none" xmlns="http://www.w3.org/2000/svg">
<path fill-rule="evenodd" clip-rule="evenodd" d="M7.5 26C7.5 24.8977 8.39772 24 9.5 24H14.5C15.0523 24 15.5 24.4477 15.5 25C15.5 25.5523 15.0523 26 14.5 26H9.5V28H13.5C14.6023 28 15.5 28.8977 15.5 30V32C15.5 33.1023 14.6023 34 13.5 34H8.5C7.94772 34 7.5 33.5523 7.5 33C7.5 32.4477 7.94772 32 8.5 32H13.5V30H9.5C8.39772 30 7.5 29.1023 7.5 28V26Z" fill="white"/>
<path fill-rule="evenodd" clip-rule="evenodd" d="M11.5 22C12.0523 22 12.5 22.4477 12.5 23V25C12.5 25.5523 12.0523 26 11.5 26C10.9477 26 10.5 25.5523 10.5 25V23C10.5 22.4477 10.9477 22 11.5 22Z" fill="white"/>
<path fill-rule="evenodd" clip-rule="evenodd" d="M11.5 32C12.0523 32 12.5 32.4477 12.5 33V35C12.5 35.5523 12.0523 36 11.5 36C10.9477 36 10.5 35.5523 10.5 35V33C10.5 32.4477 10.9477 32 11.5 32Z" fill="white"/>
<path fill-rule="evenodd" clip-rule="evenodd" d="M11.5 20C6.52944 20 2.5 24.0294 2.5 29C2.5 33.9706 6.52944 38 11.5 38C16.4706 38 20.5 33.9706 20.5 29C20.5 24.0294 16.4706 20 11.5 20ZM0.5 29C0.5 22.9249 5.42487 18 11.5 18C17.5751 18 22.5 22.9249 22.5 29C22.5 35.0751 17.5751 40 11.5 40C5.42487 40 0.5 35.0751 0.5 29Z" fill="white"/>
<path fill-rule="evenodd" clip-rule="evenodd" d="M15.2304 14.4116C16.2823 14.1406 17.3761 14 18.5 14C25.6823 14 31.5 19.8177 31.5 27C31.5 32.8304 27.6531 37.7684 22.3674 39.4148C21.8401 39.579 21.2795 39.2847 21.1152 38.7574C20.951 38.2301 21.2453 37.6695 21.7726 37.5052C26.2469 36.1116 29.5 31.9296 29.5 27C29.5 20.9223 24.5777 16 18.5 16C17.5439 16 16.6177 16.1194 15.7296 16.3484C15.1948 16.4862 14.6495 16.1644 14.5116 15.6296C14.3738 15.0948 14.6956 14.5495 15.2304 14.4116Z" fill="white"/>
<path fill-rule="evenodd" clip-rule="evenodd" d="M22.5085 10.4232C24.4898 9.50214 26.6836 9 29 9C37.5743 9 44.5 16.2198 44.5 24.5C44.5 32.7741 38.0322 39.5188 29.8763 39.9784C29.3249 40.0095 28.8527 39.5877 28.8216 39.0363C28.7905 38.4849 29.2123 38.0127 29.7637 37.9816C36.8678 37.5812 42.5 31.7059 42.5 24.5C42.5 17.3002 36.4457 11 29 11C26.9764 11 25.0702 11.4379 23.3515 12.2368C22.8507 12.4696 22.256 12.2524 22.0232 11.7515C21.7904 11.2507 22.0076 10.656 22.5085 10.4232Z" fill="white"/>
<path fill-rule="evenodd" clip-rule="evenodd" d="M22.5 1C22.5 0.447715 22.9477 0 23.5 0H25.5C25.9045 0 26.2691 0.243642 26.4239 0.617317C26.5787 0.990991 26.4931 1.42111 26.2071 1.70711L20.2071 7.70711C19.8166 8.09763 19.1834 8.09763 18.7929 7.70711L17.5 6.41421L12.2071 11.7071C11.8166 12.0976 11.1834 12.0976 10.7929 11.7071L9.5 10.4142L4.20711 15.7071C3.81658 16.0976 3.18342 16.0976 2.79289 15.7071C2.40237 15.3166 2.40237 14.6834 2.79289 14.2929L8.79289 8.29289C9.18342 7.90237 9.81658 7.90237 10.2071 8.29289L11.5 9.58579L16.7929 4.29289C17.1834 3.90237 17.8166 3.90237 18.2071 4.29289L19.5 5.58579L23.1491 1.9367C22.7699 1.79458 22.5 1.42881 22.5 1Z" fill="white"/>
<path fill-rule="evenodd" clip-rule="evenodd" d="M25.5 0C26.0523 0 26.5 0.447715 26.5 1V3C26.5 3.55228 26.0523 4 25.5 4C24.9477 4 24.5 3.55228 24.5 3V1C24.5 0.447715 24.9477 0 25.5 0Z" fill="white"/>
</svg>
