<svg width="45" height="44" viewBox="0 0 45 44" fill="none" xmlns="http://www.w3.org/2000/svg">
<path d="M38.165 2C40.645 2 42.665 4.02 42.665 6.5C42.665 8.98 40.645 11 38.165 11C35.685 11 33.665 8.98 33.665 6.5C33.665 4.02 35.685 2 38.165 2ZM38.165 0C34.575 0 31.665 2.91 31.665 6.5C31.665 10.09 34.575 13 38.165 13C41.755 13 44.665 10.09 44.665 6.5C44.665 2.91 41.755 0 38.165 0Z" fill="white"/>
<path fill-rule="evenodd" clip-rule="evenodd" d="M38.9579 5.29289C39.3485 4.90237 39.9816 4.90237 40.3721 5.29289C40.7627 5.68342 40.7627 6.31658 40.3721 6.70711L38.3721 8.70711C37.9816 9.09763 37.3485 9.09763 36.9579 8.70711L35.9579 7.70711C35.5674 7.31658 35.5674 6.68342 35.9579 6.29289C36.3485 5.90237 36.9816 5.90237 37.3721 6.29289L37.665 6.58579L38.9579 5.29289Z" fill="white"/>
<path fill-rule="evenodd" clip-rule="evenodd" d="M16.665 12C11.1373 12 6.66504 16.4723 6.66504 22V34C6.66504 35.6577 8.00732 37 9.66504 37H20.665C21.2173 37 21.665 37.4477 21.665 38C21.665 38.5523 21.2173 39 20.665 39H9.66504C6.90275 39 4.66504 36.7623 4.66504 34H3.66504C2.01275 34 0.665039 32.6523 0.665039 31V26C0.665039 24.3477 2.01275 23 3.66504 23H4.66504V22C4.66504 15.3677 10.0328 10 16.665 10H21.665C28.2973 10 33.665 15.3677 33.665 22V23H34.665C36.3173 23 37.665 24.3477 37.665 26V31C37.665 32.6523 36.3173 34 34.665 34H32.665C32.1128 34 31.665 33.5523 31.665 33V22C31.665 16.4723 27.1928 12 21.665 12H16.665ZM33.665 32H34.665C35.2128 32 35.665 31.5477 35.665 31V26C35.665 25.4523 35.2128 25 34.665 25H33.665V32ZM4.66504 25H3.66504C3.11732 25 2.66504 25.4523 2.66504 26V31C2.66504 31.5477 3.11732 32 3.66504 32H4.66504V25ZM25.7038 25.0008C19.7644 24.7691 14.6905 23.18 10.6971 21.3747L25.7038 25.0008ZM10.6971 21.3747C11.0091 18.3517 13.5585 16 16.665 16H21.665C24.9828 16 27.665 18.6823 27.665 22V25.0268C27.0253 25.0353 26.3715 25.0267 25.7038 25.0008M27.665 27.027C26.9976 27.0354 26.318 27.0261 25.6262 26.9992C19.7612 26.7705 14.7101 25.2851 10.665 23.5463V34C10.665 34.5523 10.2173 35 9.66504 35C9.11275 35 8.66504 34.5523 8.66504 34V22C8.66504 17.5777 12.2428 14 16.665 14H21.665C26.0873 14 29.665 17.5777 29.665 22V25.995C29.6651 25.9988 29.6651 26.0026 29.665 26.0065V35C29.665 39.9723 25.6373 44 20.665 44H17.665C16.0236 44 14.4921 43.5608 13.1657 42.7964C12.6872 42.5207 12.5229 41.9092 12.7986 41.4307C13.0744 40.9522 13.6858 40.7878 14.1643 41.0636C15.198 41.6592 16.3865 42 17.665 42H20.665C24.5328 42 27.665 38.8677 27.665 35V27.027Z" fill="white"/>
</svg>
