<svg width="66" height="66" viewBox="0 0 66 66" fill="none" xmlns="http://www.w3.org/2000/svg">
<rect opacity="0.01" x="0.666016" y="1" width="64" height="64" fill="white" stroke="#979797" stroke-width="1.33333"/>
<mask id="mask0_789_54917" style="mask-type:alpha" maskUnits="userSpaceOnUse" x="0" y="1" width="51" height="50">
<path fill-rule="evenodd" clip-rule="evenodd" d="M0.666016 1H50.2987V50.6324H0.666016V1Z" fill="white"/>
</mask>
<g mask="url(#mask0_789_54917)">
<path fill-rule="evenodd" clip-rule="evenodd" d="M27.5591 34.9133V38.2243H23.4266V34.9251C20.382 34.3582 18.4685 32.4787 18.3327 29.7502H21.9154C22.0904 31.183 23.535 32.1051 25.6235 32.1051C27.5487 32.1051 28.9123 31.1713 28.9123 29.8416C28.9123 28.7092 28.0293 28.064 25.8559 27.5768L23.5519 27.0844C20.3245 26.4104 18.7402 24.7295 18.7402 22.0297C18.7402 19.3287 20.54 17.3825 23.4044 16.7425V13.408H27.5369V16.7478C30.3333 17.3708 32.1959 19.2777 32.286 21.8429H28.8274C28.6524 20.4441 27.3502 19.5102 25.5608 19.5102C23.7727 19.5102 22.4822 20.3709 22.4822 21.7176C22.4822 22.8108 23.3247 23.4168 25.4027 23.8805L27.5369 24.3337C31.0974 25.0808 32.6308 26.5972 32.6308 29.3649C32.6308 32.3259 30.7291 34.3073 27.5591 34.9133ZM0.666016 25.8162C0.666016 39.5213 11.7759 50.6325 25.4823 50.6325C39.1875 50.6325 50.2987 39.5213 50.2987 25.8162C50.2987 12.1111 39.1875 0.999878 25.4823 0.999878C11.7759 0.999878 0.666016 12.1111 0.666016 25.8162Z" fill="#85ACAF"/>
</g>
<g style="mix-blend-mode:multiply">
<path fill-rule="evenodd" clip-rule="evenodd" d="M43.3563 31.2734V36.8454H53.8954L37.1692 53.5742L25.7719 42.3716L9.41797 55.8573V63.694L25.7876 50.2005L37.2005 61.4214L57.7876 40.8356V51.2767H63.3595V31.2734H43.3563Z" fill="#FF444F"/>
</g>
</svg>
