<?xml version="1.0" encoding="UTF-8"?><svg id="Layer_2" xmlns="http://www.w3.org/2000/svg" xmlns:xlink="http://www.w3.org/1999/xlink" viewBox="0 0 199.11 32"><defs><style>.cls-1{clip-path:url(#clippath);}.cls-2{fill:none;}.cls-2,.cls-3,.cls-4{stroke-width:0px;}.cls-3{fill:#414652;}.cls-4{fill:#ff444f;}</style><clipPath id="clippath"><rect class="cls-2" width="199.11" height="32"/></clipPath></defs><g id="Layer_1-2"><g class="cls-1"><path class="cls-4" d="M15.55.81l-1.33,7.54h-4.61c-4.3,0-8.4,3.49-9.17,7.79l-.32,1.83c-.76,4.3,2.11,7.79,6.42,7.79h3.85c3.14,0,6.12-2.54,6.68-5.68L20.6,0l-5.06.81ZM12.28,19.37c-.17.97-1.04,1.76-2.01,1.76h-2.34c-1.93,0-3.23-1.57-2.89-3.51l.2-1.14c.34-1.93,2.19-3.51,4.12-3.51h4.04l-1.13,6.4ZM51.07,25.76l3.03-17.17h4.79l-3.03,17.17h-4.79,0ZM51.59,8.79c-.24,1.36-.48,2.72-.72,4.09-2.27-.7-4.61-.48-5.33-.34-.78,4.41-1.55,8.82-2.33,13.23h-4.79c.65-3.69,2.87-16.29,2.87-16.29,1.56-.65,5.38-1.95,10.3-.69ZM32.18,8.35h-3.73c-3.63,0-7.09,2.94-7.73,6.57l-.75,4.27c-.64,3.63,1.78,6.57,5.41,6.57h7.93l.81-4.61h-7.45c-1.21,0-2.02-.98-1.8-2.19l.02-.15h12.01l.69-3.89c.64-3.63-1.78-6.57-5.41-6.57h0ZM32.78,14.55l-.03.25h-7.14l.04-.22c.22-1.21,1.32-2.27,2.53-2.27h2.79c1.2,0,2.01,1.05,1.81,2.25ZM77.57,8.59c-1.63,4.34-5.37,11.72-9,17.17h-4.79c-1.66-5.19-2.74-12.41-2.94-17.17h4.79c.09,1.55.78,7.31,1.57,11.33,2.17-3.91,4.57-9.04,5.57-11.33h4.79Z"/><path class="cls-3" d="M88.99,25.96c-.13-.24-.25-.51-.38-.81-.13-.3-.24-.61-.32-.94-.46.44-1.08.88-1.87,1.32s-1.77.66-2.96.66c-.97,0-1.81-.16-2.52-.46-.71-.31-1.31-.74-1.78-1.29-.47-.55-.84-1.2-1.09-1.95-.26-.75-.41-1.57-.47-2.47-.09-1.48.07-2.92.48-4.33.41-1.41,1.08-2.66,2-3.76.92-1.1,2.11-1.99,3.57-2.67,1.45-.68,3.18-1.02,5.19-1.02.59,0,1.29.07,2.09.2.8.13,1.5.35,2.09.66l-1.9,10.37c-.08.51-.14.99-.19,1.45-.05.46-.06.95-.03,1.45.03.51.11,1.02.23,1.54.12.52.31,1.07.56,1.67l-2.68.4ZM83.92,23.58c.92,0,1.7-.2,2.34-.59.64-.4,1.18-.86,1.63-1.39,0-.37.01-.77.04-1.17.03-.41.08-.82.14-1.24l1.48-8.19c-.11-.04-.3-.08-.55-.1-.25-.02-.48-.03-.68-.03-1.25,0-2.37.24-3.36.73-.98.49-1.81,1.13-2.47,1.93-.67.8-1.16,1.74-1.48,2.81-.32,1.07-.44,2.18-.37,3.35.03.46.1.93.22,1.4.12.48.3.89.56,1.25.25.36.58.66.98.89.4.23.91.35,1.52.35ZM94.61,19.62c-.09-1.5.04-2.94.41-4.32.37-1.39.96-2.61,1.77-3.67.82-1.06,1.84-1.9,3.08-2.53,1.24-.63,2.68-.94,4.33-.94.73,0,1.42.05,2.09.15.67.1,1.31.29,1.92.58l-1,2.57c-.36-.2-.79-.35-1.27-.46-.48-.11-1.09-.16-1.84-.16-1.08,0-2.03.24-2.86.71-.83.47-1.52,1.1-2.08,1.88-.56.78-.96,1.68-1.22,2.71-.26,1.02-.35,2.09-.28,3.19.04.57.13,1.11.28,1.62.15.51.39.95.73,1.34.33.38.76.69,1.29.91.53.22,1.19.33,1.98.33.4,0,.81-.04,1.25-.12.44-.08.84-.17,1.21-.28.37-.11.69-.23.99-.35.29-.12.5-.24.62-.35l.43,2.61c-.4.26-1.04.52-1.9.77-.86.26-1.86.38-2.98.38-1.06,0-2-.16-2.84-.48-.84-.32-1.55-.77-2.13-1.35-.59-.58-1.05-1.28-1.38-2.08-.34-.8-.53-1.69-.59-2.66ZM119.56,25.96c-.12-.24-.25-.51-.38-.81-.13-.3-.24-.61-.32-.94-.46.44-1.08.88-1.87,1.32-.79.44-1.77.66-2.96.66-.97,0-1.81-.16-2.52-.46-.71-.31-1.31-.74-1.78-1.29-.47-.55-.84-1.2-1.09-1.95-.26-.75-.41-1.57-.47-2.47-.09-1.48.07-2.92.48-4.33.41-1.41,1.08-2.66,2-3.76.92-1.1,2.11-1.99,3.57-2.67,1.46-.68,3.18-1.02,5.19-1.02.59,0,1.29.07,2.09.2.8.13,1.5.35,2.09.66l-1.9,10.37c-.08.51-.14.99-.19,1.45-.05.46-.06.95-.03,1.45.03.51.11,1.02.23,1.54.12.52.31,1.07.57,1.67l-2.68.4ZM114.5,23.58c.92,0,1.7-.2,2.34-.59.64-.4,1.18-.86,1.63-1.39,0-.37.01-.77.04-1.17.03-.41.08-.82.14-1.24l1.48-8.19c-.11-.04-.3-.08-.55-.1-.25-.02-.48-.03-.68-.03-1.25,0-2.37.24-3.36.73-.98.49-1.81,1.13-2.47,1.93-.67.8-1.16,1.74-1.48,2.81-.32,1.07-.44,2.18-.37,3.35.03.46.1.93.22,1.4.12.48.3.89.56,1.25.25.36.58.66.98.89.4.23.91.35,1.52.35ZM138.53,22.36c.03.51.11,1.02.23,1.54.12.52.31,1.07.57,1.67l-2.68.4c-.27-.48-.5-1.07-.67-1.75-.46.44-1.08.88-1.87,1.32-.79.44-1.78.66-2.97.66-.97,0-1.81-.15-2.54-.45-.72-.3-1.33-.72-1.83-1.27-.5-.55-.88-1.21-1.14-1.96-.27-.76-.43-1.59-.48-2.49-.09-1.48.07-2.92.48-4.33.41-1.41,1.07-2.66,1.98-3.76.91-1.1,2.08-1.99,3.52-2.66,1.43-.67,3.13-1.01,5.09-1.01.24,0,.48.01.73.03.24.02.5.05.76.1l1.37-7.73,3.17-.53-3.47,19.32c-.08.51-.15.99-.21,1.45-.06.46-.08.95-.04,1.45ZM131.6,23.58c.92,0,1.7-.19,2.32-.58.63-.38,1.17-.83,1.62-1.34,0-.35.02-.73.05-1.14.03-.41.08-.85.16-1.34l1.47-8.26c-.2-.05-.42-.07-.66-.08-.24-.01-.48-.02-.7-.02-1.25,0-2.37.24-3.36.73-.98.48-1.81,1.13-2.47,1.95-.67.81-1.16,1.76-1.48,2.82-.32,1.07-.44,2.18-.37,3.35.03.51.12.99.26,1.45.14.46.34.87.6,1.24.26.37.61.66,1.03.88.42.22.93.33,1.52.33ZM149.23,26.19c-1.12,0-2.1-.16-2.93-.48-.84-.32-1.54-.76-2.13-1.32-.59-.56-1.03-1.21-1.34-1.96-.31-.75-.49-1.54-.54-2.38-.1-1.54.04-3.03.42-4.46.37-1.43.96-2.7,1.75-3.8.79-1.1,1.78-1.98,2.98-2.63,1.19-.65,2.57-.97,4.13-.97.9,0,1.69.12,2.35.35.66.23,1.21.55,1.64.94.43.4.76.85.99,1.37.23.52.36,1.05.4,1.6.06,1.03-.07,1.91-.4,2.63s-.79,1.31-1.38,1.8c-.59.48-1.28.86-2.09,1.12-.81.27-1.65.48-2.54.63s-1.78.26-2.69.31c-.91.05-1.77.1-2.58.15-.01.17-.01.32,0,.43l.02.26c.03.51.12.99.27,1.43.15.45.4.85.75,1.19.35.34.83.61,1.42.81.6.2,1.37.3,2.31.3.42,0,.85-.04,1.3-.12.45-.08.87-.17,1.27-.3.4-.12.76-.24,1.07-.36.31-.12.53-.24.66-.35l.43,2.61c-.43.24-1.12.5-2.08.78-.96.27-2.1.41-3.43.41ZM145.51,16.74c1.27-.04,2.43-.13,3.49-.25,1.05-.12,1.95-.33,2.7-.63.75-.3,1.33-.7,1.73-1.21.4-.51.57-1.17.52-1.98-.01-.2-.06-.41-.15-.63-.09-.22-.24-.42-.43-.61-.2-.19-.47-.34-.8-.46-.34-.12-.75-.18-1.23-.18-.77,0-1.48.16-2.13.49-.65.33-1.22.77-1.72,1.3-.49.54-.91,1.17-1.24,1.88-.33.71-.57,1.47-.72,2.26ZM176.75,8.22c.97,0,1.8.15,2.49.45.69.3,1.25.7,1.69,1.2.44.51.77,1.1.98,1.77.22.67.35,1.38.4,2.13.03.49.02,1.01-.02,1.57-.04.56-.12,1.11-.21,1.63l-1.57,8.78h-3.07l1.45-8.12c.08-.51.17-1.07.28-1.7.1-.63.14-1.25.1-1.86-.03-.42-.1-.82-.22-1.22-.12-.4-.31-.74-.56-1.02-.25-.28-.59-.52-1.02-.69-.43-.17-.95-.26-1.57-.26-.71,0-1.38.14-2.02.41-.64.27-1.18.56-1.6.84.06.31.12.61.17.91.05.3.09.59.1.88.03.51.02,1.02-.02,1.53-.05.52-.11,1.03-.19,1.53l-1.57,8.78h-3.07l1.45-8.12c.08-.51.17-1.08.26-1.72.09-.64.12-1.28.08-1.92-.03-.42-.1-.82-.21-1.2-.11-.38-.28-.72-.51-1.01-.23-.28-.52-.51-.88-.68-.36-.16-.82-.25-1.37-.25s-1.08.03-1.6.1c-.51.07-.94.15-1.29.26l-2.61,14.53h-3.07l2.95-16.51c.97-.31,2.04-.56,3.21-.74,1.17-.19,2.21-.28,3.14-.28s1.72.16,2.37.48c.66.32,1.19.74,1.6,1.27.21-.15.5-.33.88-.53.37-.2.8-.39,1.29-.56.49-.18,1.01-.33,1.59-.46.57-.13,1.17-.2,1.79-.2ZM190.64,22.99c.75-1.32,1.43-2.69,2.03-4.11.59-1.42,1.11-2.78,1.55-4.08.44-1.3.8-2.49,1.08-3.58.28-1.09.48-1.96.6-2.63h3.2c-.19.84-.47,1.88-.83,3.12-.36,1.24-.82,2.59-1.35,4.03-.54,1.44-1.15,2.92-1.84,4.42-.69,1.51-1.45,2.96-2.29,4.34-.64,1.03-1.29,2.01-1.93,2.92-.65.91-1.35,1.7-2.12,2.38-.76.67-1.62,1.2-2.56,1.59-.94.38-2.02.58-3.23.58-.62,0-1.19-.08-1.73-.23-.54-.15-.93-.32-1.19-.49l.9-2.51c.23.17.54.33.92.45.38.12.8.18,1.27.18,1.28,0,2.34-.31,3.2-.92.85-.62,1.65-1.43,2.38-2.44-.98-2.66-1.82-5.47-2.51-8.42-.7-2.95-1.2-5.94-1.49-8.98h3.14c.08.99.2,2.07.37,3.25.16,1.18.36,2.4.6,3.67.24,1.27.52,2.54.83,3.81.31,1.28.65,2.5,1.04,3.67Z"/></g></g></svg>