<svg width="891" height="406" viewBox="0 0 891 406" fill="none" xmlns="http://www.w3.org/2000/svg">
<path d="M227.43 90.37L214.97 161.03H171.72C131.37 161.03 92.91 193.72 85.78 234.07L82.76 251.24C75.67 291.59 102.59 324.28 142.93 324.28H179C208.41 324.28 236.42 300.47 241.59 271.07L274.81 82.75L227.43 90.37ZM196.74 264.4C195.15 273.48 186.97 280.88 177.89 280.88H155.98C137.84 280.88 125.71 266.16 128.89 247.99L130.78 237.28C134 219.14 151.3 204.39 169.44 204.39H207.33L196.74 264.4ZM560.51 324.27L588.89 163.27H633.78L605.4 324.27H560.48H560.51ZM565.36 165.13C563.11 177.9 560.85 190.67 558.6 203.44C537.33 196.83 515.39 198.94 508.65 200.28C501.37 241.62 494.08 282.97 486.79 324.31H441.87C447.97 289.72 468.81 171.59 468.81 171.59C483.42 165.54 519.3 153.26 565.36 165.13ZM383.35 161H348.41C314.36 161 281.9 188.58 275.9 222.63L268.84 262.65C262.84 296.7 285.55 324.28 319.6 324.28H393.93L401.56 281.01H331.7C320.36 281.01 312.77 271.83 314.79 260.45L315.02 259.09H427.64L434.07 222.62C440.07 188.57 417.36 160.99 383.31 160.99H383.35V161ZM389.02 219.18L388.76 221.5H321.79L322.15 219.44C324.17 208.1 334.52 198.12 345.89 198.12H372.05C383.29 198.13 390.88 207.94 389.02 219.18ZM764.01 163.27H808.93C793.63 203.96 758.56 273.16 724.59 324.27H679.67C664.08 275.63 654.01 207.87 652.09 163.27H697C697.81 177.82 704.32 231.77 711.75 269.46C732.13 232.79 754.6 184.68 763.97 163.27H764.01Z" fill="#FF444F"/>
</svg>
