<svg width="160" height="80" viewBox="0 0 160 80" fill="none" xmlns="http://www.w3.org/2000/svg">
<path fill-rule="evenodd" clip-rule="evenodd" d="M47.8199 43.297V43.2968V43.2967V43.2966V43.2965C47.8158 43.1189 47.8118 42.9414 47.8118 42.764V42.7517C47.8118 42.5848 47.8099 42.418 47.8081 42.2515V42.2514V42.2514V42.2513V42.2513C47.8022 41.7149 47.7964 41.1822 47.852 40.6652C47.8852 40.3937 48.0307 40.1473 48.2541 39.9828C48.5972 39.7692 48.9812 39.6256 49.3826 39.5606C50.2597 39.4182 50.8553 39.8797 51.0614 40.8493C51.3303 42.1213 51.3303 43.4339 51.0614 44.7057C50.8151 45.867 49.7269 46.2792 48.5331 45.6876C48.048 45.447 47.7364 45.123 47.7967 44.5363C47.8389 44.1257 47.8294 43.7114 47.8199 43.297ZM47.8926 47.8943C47.91 47.8729 47.9311 47.8471 47.955 47.8134C48.1963 47.9631 48.4376 48.118 48.6688 48.297C50.5387 49.5685 53.4716 49.1613 54.4192 46.6228C55.143 44.7106 55.1782 42.7296 54.8916 40.7658C54.7791 39.9131 54.5242 39.0839 54.1377 38.3111C53.1173 36.3645 50.7548 35.8809 48.7894 37.1255C48.5869 37.254 48.3892 37.3894 48.1461 37.5559L48.1461 37.5559C48.0362 37.6312 47.9171 37.7128 47.7841 37.803V32C47.5459 32.0947 47.3118 32.1874 47.0814 32.2788L47.0804 32.2791C46.0448 32.6896 45.0814 33.0714 44.1298 33.4728C44.0142 33.517 43.9439 33.7944 43.9439 33.9638V48.1472C43.9413 48.5991 44.1072 48.7143 44.5445 48.7143C45.0685 48.6995 45.5981 48.7045 46.1228 48.7094C46.3833 48.7118 46.6426 48.7143 46.8995 48.7143C47.2895 48.7143 47.4824 48.7143 47.5993 48.62C47.7137 48.5279 47.7553 48.3456 47.8378 47.985L47.8378 47.985L47.8394 47.9778C47.8456 47.952 47.8643 47.929 47.8926 47.8943ZM85.4808 37.2089L84.7643 37.6753C84.7377 37.5568 84.7223 37.436 84.7191 37.3145C84.802 36.8162 84.5811 36.6836 84.0907 36.7033C83.2027 36.7337 82.3147 36.7195 81.4267 36.7054L81.2935 36.7033C80.9343 36.6984 80.7908 36.8137 80.7908 37.1721C80.8009 40.8461 80.8009 44.5208 80.7908 48.1963C80.7908 48.6063 80.9642 48.7118 81.3513 48.7118C82.2686 48.6897 83.1835 48.6848 84.1008 48.7118C84.5585 48.7265 84.7168 48.5964 84.7168 48.1227C84.6949 46.0624 84.6949 44.0012 84.7168 41.9392C84.7186 41.4623 84.7897 40.9878 84.9277 40.5302C85.134 39.8748 85.6894 39.6121 86.5917 39.6293C87.2047 39.6097 87.7503 40.0071 87.9059 40.5867C88.0318 41.0307 88.0994 41.4885 88.1072 41.949C88.1271 44.011 88.1271 46.0715 88.1072 48.13C88.1019 48.5817 88.2603 48.7069 88.7001 48.7069C89.6177 48.6848 90.5348 48.6801 91.4498 48.7069C91.8844 48.7192 92 48.5743 92 48.157C91.9925 47.0607 91.9925 45.9608 91.9925 44.859V44.8556C91.9925 43.753 91.9925 42.6485 91.9849 41.544C91.9962 40.8869 91.9502 40.2297 91.8469 39.5802C91.6004 38.2203 91 37.0617 89.5222 36.6493C88.1582 36.2224 86.6691 36.4286 85.4808 37.2089ZM62.8882 48.0811L62.8879 48.0813C62.8111 48.1314 62.7365 48.1799 62.6628 48.2282C61.4476 49.0324 59.9117 49.2207 58.5309 48.7339C57.0732 48.2675 56.5052 47.0819 56.3117 45.7195C56.2052 44.8324 56.1564 43.9396 56.166 43.0463C56.1552 42.0159 56.1559 40.9849 56.1567 39.9539C56.1573 39.0518 56.1579 38.1497 56.1509 37.2482C56.1509 36.8432 56.2413 36.6714 56.6887 36.6836C57.6538 36.7106 58.6189 36.7033 59.584 36.6836C59.966 36.6836 60.0866 36.8113 60.0866 37.1746C60.0766 38.5477 60.0799 39.9219 60.0833 41.2957V41.296V41.2962V41.2965C60.085 41.983 60.0866 42.6694 60.0866 43.3556V43.9791C60.1243 45.1009 60.6773 45.7514 61.6223 45.7931C62.7155 45.8422 63.3288 45.3022 63.4393 44.1116C63.4822 43.6572 63.4783 43.198 63.4743 42.739V42.7389V42.7389V42.7388V42.7388C63.4732 42.6056 63.472 42.4724 63.472 42.3393V37.1648C63.472 36.7794 63.6027 36.6615 63.9747 36.6738C64.9398 36.691 65.9049 36.6885 66.87 36.6738C67.2268 36.6738 67.3726 36.799 67.3726 37.15V48.2184C67.3726 48.5866 67.2017 48.6848 66.87 48.6801C66.5592 48.6801 66.2483 48.6785 65.9375 48.6768C65.3159 48.6735 64.6943 48.6702 64.0727 48.6801C63.6505 48.6801 63.4067 48.594 63.4796 48.1227C63.465 47.9965 63.4336 47.8728 63.3866 47.7545C63.2041 47.8755 63.0417 47.9812 62.8882 48.0811ZM75.6639 44.4135V44.7474C75.6664 45.9011 74.8471 46.5099 73.4221 46.4217C72.5424 46.3528 71.9795 45.8029 71.9619 44.8799C71.9443 43.9572 72.4444 43.3604 73.3618 43.3163C73.8823 43.3045 74.4022 43.3555 74.9099 43.4685C75.5835 43.6059 75.6639 43.7412 75.6639 44.4135ZM69.9503 39.2286C70.0314 39.4278 70.1142 39.631 70.1975 39.8404C71.3242 39.29 72.5754 39.0274 73.8342 39.0769C75.3095 39.1309 76.0685 40.2137 75.5433 41.62C75.4063 41.5923 75.2711 41.556 75.1386 41.5123C74.021 41.0795 72.8003 40.9681 71.6201 41.1905C70.092 41.4482 68.9987 42.2168 68.584 43.7483C68.3606 44.603 68.3702 45.5002 68.6117 46.3506C68.9887 47.7986 69.9362 48.6528 71.4441 48.913C72.6839 49.1261 73.9597 48.847 74.9878 48.1374C75.1029 48.0645 75.2243 48.0019 75.354 47.935C75.4254 47.8982 75.4992 47.8601 75.5759 47.8182C75.6126 47.9046 75.6373 47.9955 75.6488 48.0885C75.5684 48.643 75.8901 48.7142 76.35 48.6995C77.1342 48.6725 77.9208 48.6651 78.705 48.6995C79.18 48.7191 79.3132 48.5645 79.3132 48.103C79.301 46.9804 79.3017 45.8577 79.3023 44.7346V44.7346V44.7345C79.303 43.5103 79.3036 42.2856 79.2878 41.0604C79.2735 40.4241 79.1893 39.7915 79.0365 39.1727C78.7552 37.9969 78.0038 37.1475 76.8125 36.8385C75.8976 36.6112 74.9589 36.4901 74.0152 36.4774C72.5221 36.4357 71.038 36.7172 69.6698 37.3022C69.5265 37.3635 69.338 37.6237 69.3707 37.7244C69.5411 38.2236 69.7402 38.7127 69.9502 39.2283L69.9503 39.2286ZM38.754 44.6959C38.7452 44.5849 38.7452 44.4733 38.754 44.3621C38.8585 43.9921 38.6361 43.6097 38.2573 43.5078C38.2046 43.4936 38.1503 43.4852 38.0955 43.4833C37.5991 43.3806 37.0944 43.3205 36.5875 43.3041C35.5822 43.3041 35.0218 43.9202 35.0796 44.8996C35.1374 45.8791 35.7506 46.4633 36.7534 46.4194C36.9328 46.4093 37.1115 46.3897 37.2887 46.3602C38.4323 46.1761 38.7514 45.8103 38.754 44.6959ZM38.6409 47.8134C38.5543 47.8654 38.4709 47.9162 38.3895 47.9658L38.3894 47.9659C38.1827 48.0918 37.989 48.2099 37.7889 48.3191C36.3362 49.1095 34.8333 49.2666 33.3479 48.4786C32.8395 48.1968 32.4165 47.7886 32.1214 47.2955C31.4976 46.1889 31.3486 44.8859 31.7068 43.6723C32.0988 42.1602 33.549 41.1709 35.3862 41.0948C36.3674 41.0251 37.3518 41.1692 38.2689 41.517C38.5655 41.6373 38.7565 41.5907 38.7489 41.2396C38.7535 40.9046 38.7298 40.5695 38.6786 40.2381C38.5378 39.5311 37.9824 39.1359 37.143 39.0844C35.9796 38.9852 34.8101 39.1877 33.7526 39.6711C33.3756 39.8503 33.2248 39.7275 33.1066 39.3937C32.9257 38.9027 32.7397 38.4118 32.5261 37.9208C32.3853 37.6042 32.4331 37.3882 32.7774 37.2949C33.7078 37.003 34.6543 36.762 35.6124 36.5732C36.9215 36.3513 38.2636 36.393 39.5557 36.6959C41.0375 37.0379 42.1358 38.2581 42.2926 39.7373C42.3607 40.2435 42.3959 40.7536 42.3982 41.2642C42.3982 43.5618 42.3982 45.8619 42.4108 48.162C42.4108 48.594 42.265 48.7143 41.8478 48.702C41.0159 48.6797 40.179 48.6824 39.3345 48.702C38.9198 48.702 38.666 48.6112 38.7238 48.1448C38.7453 48.0834 38.7194 48.0183 38.6845 47.9306C38.6706 47.8955 38.6552 47.8569 38.6409 47.8134ZM20.0126 33.1734V40.5989L20 40.6039V48.1276C20 48.4762 20.0503 48.702 20.5027 48.702H30.2164C30.5507 48.702 30.6738 48.5793 30.6738 48.2454C30.6537 47.4157 30.6362 46.5836 30.6738 45.7539C30.6965 45.2801 30.5155 45.1598 30.0581 45.1598C28.4069 45.1746 26.7557 45.1746 25.1019 45.1746C24.3103 45.177 24.3103 45.1746 24.3103 44.3768V33.2004C24.3103 32.5843 24.2901 32.5646 23.6417 32.5646H20.6509C20.0126 32.5646 20.0126 32.5744 20.0126 33.1734Z" fill="#414652"/>
<path fill-rule="evenodd" clip-rule="evenodd" d="M114.941 48.526C117.212 49.1499 119.353 48.9827 121.215 47.4032C123.223 45.6964 123.79 41.7513 120.952 39.9298C120.021 39.334 118.997 38.8857 117.971 38.4363C117.738 38.3343 117.505 38.2321 117.272 38.1282C117.189 38.0907 117.106 38.0536 117.023 38.0165C116.165 37.633 115.314 37.2527 114.627 36.5861C113.832 35.7923 113.622 34.5879 114.103 33.5743C114.657 32.429 115.679 32.117 116.828 32.132C118.522 32.1545 119.684 33.0877 120.437 34.51C120.748 35.0945 120.984 35.7247 121.221 36.3558C121.355 36.7136 121.489 37.0717 121.637 37.422C121.683 37.5284 121.786 37.6154 121.89 37.7023C121.939 37.7438 121.988 37.7852 122.031 37.8288C122.056 37.7734 122.089 37.7178 122.121 37.6622C122.19 37.5425 122.259 37.4231 122.259 37.3072C122.197 36.2011 122.111 35.0968 122.026 33.9928C122.012 33.8192 121.999 33.6456 121.986 33.472C121.948 32.9879 121.911 32.5013 121.84 32.0197C121.822 31.9325 121.753 31.8486 121.684 31.7643C121.651 31.7233 121.617 31.6821 121.589 31.6404C121.549 31.6751 121.499 31.7067 121.449 31.7383C121.351 31.8001 121.253 31.8624 121.218 31.9499C121.209 31.981 121.197 32.0112 121.183 32.0407C121.032 32.3523 120.656 32.4838 120.342 32.3341C120.086 32.253 119.835 32.1532 119.584 32.0532C119.395 31.9779 119.206 31.9026 119.014 31.8351C117.31 31.2312 115.654 31.2562 114.047 32.1345C111.815 33.3073 110.933 36.0376 112.062 38.2829C112.463 39.0564 113.11 39.6765 113.902 40.0471C114.782 40.4839 115.688 40.8643 116.593 41.2443C116.831 41.3441 117.068 41.4438 117.305 41.5445L117.335 41.5571C118.213 41.9294 119.09 42.3008 119.785 42.984C121.077 44.2566 120.944 47.1486 118.686 47.8823C116.69 48.536 114.755 47.9721 113.606 46.1505C112.805 44.8804 112.484 43.4681 112.25 42.0208C112.245 41.987 112.24 41.9514 112.235 41.9152C112.203 41.6688 112.166 41.3924 111.851 41.412C111.539 41.4314 111.549 41.6944 111.557 41.9265C111.559 41.9632 111.56 41.9992 111.56 42.0333V45.0526C111.56 45.4104 111.557 45.7681 111.555 46.1258C111.55 46.8408 111.545 47.5555 111.56 48.269C111.56 48.3768 111.637 48.4834 111.713 48.5896C111.748 48.6383 111.783 48.687 111.811 48.7356C111.934 48.6788 112.046 48.6004 112.14 48.5036C112.519 47.9496 112.705 47.8523 113.355 48.027C113.639 48.1 113.918 48.1949 114.198 48.2898C114.444 48.3734 114.691 48.4571 114.941 48.526ZM130.271 21.2002C134.131 23.908 137.056 27.7346 138.646 32.157C139.694 35.0527 140.142 38.1299 139.961 41.2024C139.832 43.3231 139.433 45.4194 138.774 47.4406C138.656 47.7974 138.478 47.8823 138.126 47.7974C137.612 47.6584 137.199 47.2784 137.02 46.7793L137.005 46.7454C136.52 45.6588 136.036 44.5721 135.572 43.4781C133.995 39.7534 132.419 36.0314 130.843 32.3117C130.822 32.2331 130.789 32.158 130.745 32.0896C130.66 31.9941 130.567 31.9071 130.474 31.8201C130.443 31.7911 130.412 31.7621 130.381 31.7328C130.341 31.7798 130.295 31.8226 130.249 31.8647C130.165 31.9433 130.082 32.0196 130.045 32.117C129.836 32.6519 129.634 33.19 129.432 33.728C129.201 34.3447 128.97 34.9613 128.727 35.573C128.655 35.7559 128.582 35.9388 128.509 36.1217C127.335 39.0756 126.16 42.0304 124.942 44.9653C124.618 45.638 124.227 46.2763 123.775 46.8717C123.457 47.3355 122.962 47.6502 122.405 47.7425C122.275 47.7485 122.147 47.7852 122.034 47.8498C121.914 47.9748 121.812 48.1158 121.732 48.269C121.767 48.2932 121.802 48.3234 121.838 48.3539C121.924 48.4276 122.012 48.5036 122.101 48.5036C122.406 48.5169 122.712 48.5125 123.017 48.508C123.17 48.5058 123.322 48.5036 123.474 48.5036C123.887 48.5036 124.301 48.5058 124.714 48.508C125.542 48.5125 126.37 48.5169 127.196 48.5036C127.315 48.5019 127.432 48.4347 127.549 48.3675C127.605 48.3357 127.66 48.3039 127.716 48.279C127.676 48.2348 127.638 48.1851 127.601 48.1353C127.516 48.0219 127.43 47.9083 127.317 47.8598C125.798 47.2312 125.419 46.4749 125.884 44.8829C126.022 44.407 126.185 43.9377 126.348 43.4692C126.409 43.2942 126.469 43.1192 126.529 42.9441C126.584 42.6813 126.83 42.5024 127.098 42.5299C127.807 42.5381 128.515 42.5375 129.224 42.5368C130.021 42.5361 130.819 42.5354 131.616 42.5473C131.827 42.5666 132.017 42.6803 132.133 42.8568C132.665 44.0121 133.174 45.1726 133.639 46.3502C134.018 47.2884 133.747 47.6876 132.763 47.8199C132.616 47.8246 132.471 47.8568 132.336 47.9147C132.232 47.9783 132.166 48.0881 132.158 48.2091C132.2 48.3349 132.29 48.439 132.409 48.4986C132.535 48.5315 132.667 48.5393 132.796 48.5211H137.76C137.881 48.5211 138.002 48.5284 138.158 48.538C138.224 48.542 138.297 48.5465 138.38 48.551C138.304 48.7262 138.234 48.894 138.167 49.0559C138.029 49.3875 137.901 49.6949 137.753 49.9933C135.376 54.7867 131.794 58.4174 126.96 60.748C123.195 62.5713 118.991 63.3101 114.825 62.8814C110.258 62.4587 105.924 60.6758 102.392 57.7661C102.14 57.5849 101.996 57.2892 102.01 56.9801V40.8505C102.01 40.2118 102.013 40.2118 102.678 40.2542C102.906 40.2666 103.135 40.2791 103.36 40.3141C105.09 40.5636 106.041 41.6241 106.121 43.3708C106.124 43.423 106.12 43.4819 106.117 43.5427C106.103 43.7986 106.087 44.0891 106.483 44.067C106.86 44.0481 106.842 43.7424 106.827 43.4764C106.824 43.4257 106.821 43.3764 106.821 43.3309V36.5936C106.821 36.5651 106.824 36.5349 106.827 36.5046C106.833 36.4314 106.839 36.3578 106.809 36.3066C106.698 36.133 106.577 35.9665 106.445 35.8076C106.412 35.8563 106.37 35.9054 106.328 35.9552C106.231 36.0686 106.131 36.1852 106.131 36.3066C106.079 37.155 105.916 37.9485 105.298 38.5848C104.472 39.4357 103.401 39.5181 102.309 39.5181C102.209 39.5181 102.023 39.2935 102.023 39.1737C102.001 37.061 102.001 34.9492 102.023 32.8382C102.068 32.673 102.198 32.544 102.364 32.4988C103.858 32.4614 105.341 32.5387 106.731 33.1676C108.287 33.8687 109.143 35.2012 109.876 36.641C109.916 36.765 109.973 36.8825 110.047 36.9903C110.17 37.0944 110.304 37.1855 110.446 37.2623C110.461 37.2127 110.482 37.1617 110.504 37.1109C110.55 37.0009 110.597 36.8913 110.576 36.7957C110.398 36.0047 110.192 35.2212 109.987 34.4377C109.92 34.1881 109.848 33.9402 109.777 33.6924C109.637 33.2094 109.498 32.7266 109.397 32.2318C109.306 31.7976 109.088 31.7328 108.712 31.7328C105.713 31.7645 102.708 31.7877 99.6963 31.8026C99.3316 31.8041 98.9668 31.7883 98.602 31.7725C98.3468 31.7614 98.0916 31.7504 97.8365 31.7452C97.6415 31.7293 97.4453 31.748 97.2568 31.8001C97.1285 31.8475 96.9681 32.0048 96.9631 32.1145C96.9581 32.2243 97.1137 32.389 97.2367 32.4439C97.4222 32.5033 97.6144 32.5395 97.8089 32.5512C98.71 32.686 98.9609 32.9779 98.9609 33.8687V54.0209L98.7474 54.108C98.5227 53.74 98.2932 53.3743 98.0637 53.0085C97.545 52.1816 97.026 51.3545 96.5616 50.4998C95.3114 48.1582 94.509 45.6066 94.1948 42.974C93.7862 39.8587 94.0219 36.6931 94.8875 33.6716C97.0673 25.9809 103.123 19.977 110.865 17.8315C113.958 16.9789 117.196 16.7793 120.372 17.2451C123.949 17.734 127.349 19.0924 130.271 21.2002ZM127.023 41.7389C127.743 39.8425 128.434 38.0209 129.124 36.1994L129.254 36.1894L131.689 41.7389H127.023Z" fill="#414652"/>
<path fill-rule="evenodd" clip-rule="evenodd" d="M37.6292 55.5156H36.6287V53.113H37.6292V55.5156ZM37.513 52.4082C37.4164 52.3448 37.28 52.3098 37.1383 52.3121C36.9971 52.3117 36.8618 52.3462 36.7636 52.4082C36.661 52.4673 36.6048 52.5508 36.61 52.637C36.6063 52.7231 36.6621 52.8061 36.7636 52.8659L36.7659 52.8672C36.9727 52.9926 37.3073 52.9922 37.513 52.8659C37.6142 52.8059 37.67 52.7231 37.6667 52.637C37.6685 52.5512 37.6131 52.4684 37.513 52.4082ZM23.4305 55.5156H24.4347V53.113H23.4305V55.5156ZM23.9458 52.3121C24.0879 52.3101 24.2248 52.3451 24.3219 52.4082C24.4211 52.4686 24.4757 52.5515 24.4723 52.637C24.4715 52.8151 24.2335 52.9592 23.9405 52.9588C23.8017 52.9585 23.6686 52.9249 23.5697 52.8659C23.4693 52.8054 23.4136 52.7228 23.4155 52.637C23.4117 52.551 23.4678 52.4677 23.5697 52.4082C23.6686 52.3464 23.8044 52.3119 23.9458 52.3121ZM22.8538 52.3165V52.9549H20.9531V53.5521H22.1567V54.1997H20.9531V55.5225H20.251V52.3191L22.8538 52.3165ZM25.953 53.1059C25.8387 53.1393 25.7279 53.1821 25.622 53.2343L25.6346 53.1198H24.9651V55.5224H25.622V54.1038C25.62 54.0832 25.62 54.0623 25.6218 54.0418C25.6391 53.8262 25.8447 53.6644 26.0809 53.6802C26.204 53.6738 26.3244 53.7155 26.4119 53.7946C26.4934 53.8816 26.5348 53.9939 26.5273 54.1081V55.5224H27.1993V54.1861V53.9321C27.1978 53.874 27.1927 53.8159 27.1842 53.7582C27.1759 53.715 27.1649 53.6722 27.1516 53.6299C27.1376 53.5917 27.121 53.5541 27.1015 53.5178C27.0268 53.3821 26.9099 53.2688 26.7655 53.1928C26.6133 53.1121 26.44 53.07 26.264 53.0718C26.1592 53.0709 26.0546 53.0823 25.953 53.1059ZM29.4084 54.4972C29.3131 54.4631 29.2161 54.4334 29.1175 54.408C29.0513 54.3915 28.9829 54.3831 28.9144 54.3828C28.7983 54.3776 28.6837 54.4071 28.5884 54.4675C28.5067 54.5192 28.4601 54.6059 28.4656 54.6963C28.4688 54.7883 28.5202 54.8734 28.6035 54.9251C28.6993 54.9929 28.8181 55.0274 28.9395 55.0235C29.1093 55.0217 29.2738 54.9695 29.4084 54.8748V54.4972ZM29.4084 55.5223V55.4102C29.206 55.5162 28.9769 55.5713 28.7439 55.5704C28.6193 55.5715 28.4954 55.5498 28.3803 55.5063C28.2725 55.4672 28.1745 55.4088 28.092 55.3347C28.01 55.259 27.9445 55.1695 27.8989 55.0716C27.8507 54.9675 27.8269 54.8551 27.8287 54.7421C27.8274 54.6272 27.8522 54.5137 27.9014 54.408C27.9498 54.3073 28.0208 54.2169 28.1095 54.1426C28.2038 54.0675 28.3126 54.0094 28.4305 53.971C28.5639 53.9305 28.7035 53.9105 28.8442 53.9115C28.9325 53.9112 29.0202 53.9176 29.1075 53.93C29.2096 53.9462 29.3099 53.9689 29.4084 53.9984V53.8405C29.4016 53.7664 29.3557 53.6998 29.2855 53.6623C29.1897 53.6138 29.0812 53.5907 28.9721 53.5959C28.8741 53.5962 28.7765 53.6069 28.6812 53.6277C28.5501 53.6611 28.4217 53.703 28.2976 53.7536L28.0468 53.3303C28.195 53.2467 28.3542 53.1806 28.5207 53.1335C28.6837 53.0909 28.8527 53.0703 29.0222 53.0719C29.1935 53.0676 29.364 53.0948 29.5237 53.1518C29.6652 53.2101 29.7885 53.2998 29.8823 53.4126C29.9199 53.4607 29.9525 53.5042 29.9801 53.5479C30.0069 53.5909 30.028 53.6371 30.0428 53.6849C30.0586 53.7382 30.0686 53.7925 30.0729 53.8474C30.0772 53.9167 30.0772 53.9863 30.0729 54.0556V55.5223H29.4084ZM31.8507 53.1059C31.7363 53.1393 31.6255 53.1821 31.5197 53.2343V53.1198H30.8502V55.5224H31.5197V54.1038C31.5177 54.0832 31.5177 54.0623 31.5194 54.0418C31.5367 53.8262 31.7424 53.6644 31.9786 53.6802C32.1017 53.6738 32.222 53.7155 32.3096 53.7946C32.3911 53.8816 32.4324 53.9939 32.4249 54.1081V55.5224H33.0869V54.1859V53.9321C33.0854 53.874 33.0804 53.8159 33.0718 53.7582C33.0636 53.715 33.0525 53.6722 33.0392 53.6299C33.0252 53.5917 33.0084 53.5541 32.9891 53.5178C32.9171 53.383 32.8038 53.2702 32.6631 53.1928C32.5109 53.1121 32.3376 53.07 32.1616 53.0718C32.0568 53.0709 31.9522 53.0823 31.8507 53.1059ZM35.5367 53.9596C35.471 53.8582 35.386 53.7683 35.286 53.6942C35.2017 53.6413 35.1022 53.6134 35.0001 53.6139C34.9219 53.6139 34.8452 53.6319 34.777 53.6667C34.7065 53.704 34.6453 53.7539 34.5964 53.8129C34.5423 53.8823 34.5024 53.9598 34.4786 54.0418C34.45 54.1326 34.4354 54.2266 34.4359 54.3211C34.4349 54.4156 34.4502 54.5099 34.4811 54.6003C34.5072 54.6824 34.5488 54.7598 34.6039 54.8291C34.6536 54.8909 34.7178 54.9419 34.792 54.9778C34.8635 55.0133 34.9437 55.0316 35.0252 55.0305C35.1393 55.0307 35.2504 54.9987 35.3437 54.9387C35.4492 54.8749 35.5357 54.7875 35.5944 54.685L36.0207 55.0785C35.9068 55.2323 35.7536 55.3588 35.5744 55.4469C35.3996 55.5334 35.204 55.5789 35.0051 55.5796C34.8188 55.5776 34.6358 55.5355 34.4711 55.4561C34.3005 55.3801 34.1521 55.2689 34.0373 55.1312C33.9472 55.0268 33.879 54.9081 33.8367 54.7811C33.792 54.6406 33.771 54.4948 33.774 54.3484C33.7532 54.0074 33.8843 53.6734 34.1376 53.4217C34.2519 53.3169 34.3873 53.2331 34.5362 53.1745C34.8567 53.0377 35.2298 53.0494 35.5392 53.2068C35.706 53.2883 35.8482 53.4061 35.953 53.55L35.5367 53.9596ZM39.5863 54.4972C39.461 54.454 39.3632 54.424 39.298 54.408C39.231 54.3915 39.1618 54.3833 39.0924 54.3828C38.9773 54.3778 38.8634 54.4073 38.7689 54.4675C38.6866 54.519 38.6392 54.6055 38.6435 54.6963C38.6468 54.7883 38.6982 54.8734 38.7814 54.9251C38.8775 54.9929 38.9963 55.0274 39.1174 55.0235C39.2874 55.0221 39.4519 54.9697 39.5863 54.8748V54.4972ZM39.5863 55.5223V55.4102C39.385 55.5162 39.1565 55.5713 38.9244 55.5704C38.7997 55.5718 38.6759 55.55 38.5608 55.5063C38.4519 55.4679 38.3531 55.4093 38.2699 55.3347C38.1879 55.2594 38.1232 55.17 38.0793 55.0716C38.0297 54.9677 38.0041 54.8553 38.0041 54.7421C38.0026 54.627 38.0282 54.513 38.0793 54.408C38.126 54.3064 38.1972 54.2158 38.2874 54.1426C38.3807 54.0664 38.4901 54.008 38.6084 53.971C38.7408 53.9302 38.88 53.9103 39.0196 53.9115C39.1036 53.9119 39.1874 53.9181 39.2704 53.93C39.3724 53.9456 39.473 53.9684 39.5713 53.9984V53.8405C39.5645 53.7664 39.5186 53.6998 39.4484 53.6621C39.3529 53.6135 39.2443 53.5904 39.135 53.5959C39.0369 53.5964 38.9394 53.6071 38.8441 53.6277C38.713 53.6611 38.5848 53.703 38.4605 53.7536L38.2097 53.3303C38.3579 53.2467 38.5171 53.1806 38.6836 53.1335C38.8466 53.0909 39.0156 53.0703 39.1851 53.0719C39.3564 53.0676 39.5272 53.0946 39.6866 53.1518C39.8281 53.2099 39.9514 53.2998 40.0452 53.4126C40.0828 53.4607 40.1154 53.5042 40.143 53.5479C40.1698 53.5909 40.1909 53.6371 40.2057 53.6849C40.2225 53.738 40.2335 53.7925 40.2383 53.8474V54.0556V55.5223H39.5863ZM41.0306 55.5224H41.6976V52.319L41.0306 52.5478V55.5224Z" fill="#414652"/>
<path fill-rule="evenodd" clip-rule="evenodd" d="M46.6501 52.9782C46.7943 53.034 46.9274 53.1114 47.0438 53.207L47.5603 52.7814C47.4026 52.6141 47.2065 52.4805 46.9861 52.3901C46.7644 52.3004 46.5242 52.2551 46.2815 52.2574C46.1042 52.2558 45.9277 52.278 45.7574 52.3238C45.6127 52.3636 45.4773 52.4281 45.3587 52.5137C45.2524 52.594 45.1669 52.6949 45.108 52.8089C45.0471 52.9292 45.0162 53.0606 45.0177 53.193C45.0172 53.3008 45.0378 53.4079 45.0779 53.5088C45.1123 53.5992 45.1672 53.6818 45.2384 53.7516C45.2845 53.793 45.3342 53.8312 45.3863 53.866C45.4437 53.9017 45.5049 53.9317 45.5694 53.9552C45.6511 53.987 45.7349 54.0145 45.8201 54.0376C45.8974 54.0583 45.9988 54.0815 46.1072 54.1063L46.2163 54.1314L46.3325 54.1585L46.3325 54.1585C46.4251 54.1801 46.5003 54.1977 46.5598 54.2092L46.7404 54.2504C46.7682 54.2557 46.795 54.2641 46.8206 54.2756L46.8582 54.2939C46.9455 54.3419 46.9966 54.4298 46.9911 54.5227C46.9901 54.5797 46.9711 54.6355 46.936 54.6829C46.8943 54.736 46.8414 54.781 46.7805 54.8156C46.7085 54.8561 46.6298 54.8863 46.5473 54.9048C46.4545 54.9257 46.3595 54.9357 46.2639 54.9346C46.0969 54.9357 45.9325 54.8986 45.785 54.827C45.6323 54.7531 45.5009 54.6472 45.4014 54.5179L44.8271 54.8865C44.9804 55.1037 45.192 55.2817 45.4415 55.4037C45.696 55.5274 45.9806 55.5913 46.269 55.589C46.451 55.589 46.632 55.5636 46.8056 55.5135C46.9746 55.4689 47.1335 55.3966 47.2745 55.3005C47.3244 55.268 47.371 55.2311 47.4139 55.1908C47.8116 54.8156 47.8008 54.2175 47.3898 53.8546C47.353 53.8227 47.3136 53.7937 47.272 53.7676C47.2298 53.7415 47.1852 53.7184 47.1391 53.6987C47.0816 53.6756 47.0232 53.655 46.9635 53.6372C46.8984 53.6189 46.8181 53.6006 46.7279 53.58L46.7279 53.58L46.7279 53.58L46.7278 53.58L46.7278 53.58L46.5473 53.5363L46.4445 53.5159L46.3793 53.5045L46.3116 53.4882C46.2805 53.4832 46.2523 53.4764 46.2273 53.4704C46.1959 53.4628 46.1695 53.4564 46.1486 53.4564L46.0533 53.4335L45.9881 53.4198L45.9104 53.3969C45.77 53.3626 45.6998 53.2917 45.6998 53.1818C45.7038 53.0933 45.7635 53.0148 45.8527 52.9805C45.9736 52.9244 46.1085 52.8974 46.2439 52.9027C46.3836 52.9018 46.522 52.9274 46.6501 52.9782ZM49.6942 53.7377C49.7717 53.8162 49.8138 53.9183 49.8121 54.0237H48.9695C48.9858 53.9132 49.0382 53.8093 49.12 53.7263C49.1962 53.6569 49.3008 53.6197 49.4084 53.6233C49.5174 53.6213 49.622 53.6631 49.6942 53.7377ZM49.0924 54.8729C48.9976 54.7715 48.9467 54.642 48.9495 54.5088H50.5041V54.2686C50.5049 54.1528 50.4941 54.0372 50.4715 53.9233C50.4505 53.824 50.4151 53.7279 50.3662 53.6373C50.2882 53.4691 50.1609 53.324 49.9976 53.2183C49.8449 53.1211 49.6624 53.0698 49.4761 53.0721C49.1611 53.0719 48.858 53.1815 48.6285 53.3787C48.3662 53.632 48.2311 53.9734 48.2549 54.3214C48.2521 54.4965 48.2802 54.6711 48.3377 54.8386C48.3845 54.9836 48.464 55.1184 48.5709 55.2342C48.6724 55.342 48.799 55.4273 48.942 55.4838C49.1007 55.5442 49.2714 55.5738 49.4435 55.5708C49.6054 55.5731 49.7662 55.5445 49.9149 55.4861C50.0751 55.4124 50.2188 55.3124 50.3386 55.1909L49.8597 54.8589C49.7461 54.9582 49.5957 55.0145 49.4384 55.017C49.305 55.0198 49.1777 54.9665 49.0924 54.8729ZM51.8131 53.1201V53.2917C51.8935 53.2212 51.9858 53.1633 52.0864 53.1201C52.1736 53.0867 52.2677 53.0704 52.3622 53.072C52.54 53.0734 52.7137 53.1201 52.8637 53.207L52.6581 53.8637C52.6054 53.8177 52.5452 53.7791 52.48 53.7493C52.4231 53.7244 52.3604 53.7118 52.297 53.7127C52.0814 53.7193 51.8945 53.8509 51.8331 54.0399C51.8228 54.0761 51.8153 54.1127 51.8105 54.1498V54.3188V55.5201H51.1435V53.1176L51.8131 53.1201ZM54.5413 54.6577L53.9195 53.1201H53.2098L54.1827 55.5227H54.9049L55.8803 53.1201H55.1632L54.5413 54.6577ZM56.3882 55.5158H57.4034V53.1132H56.3882V55.5158ZM56.9033 52.3123C57.0454 52.3098 57.1827 52.3446 57.2793 52.4084C57.3812 52.4679 57.4373 52.5512 57.4335 52.6373C57.4327 52.8153 57.1947 52.9594 56.9018 52.959C56.763 52.9588 56.6299 52.9251 56.531 52.8661C56.4291 52.8064 56.3731 52.7233 56.3769 52.6373C56.3716 52.551 56.428 52.4675 56.531 52.4084C56.6288 52.3471 56.763 52.3126 56.9033 52.3123ZM59.3305 53.6944C59.4301 53.7692 59.5148 53.8592 59.5813 53.9598L59.99 53.5502C59.8855 53.407 59.7443 53.2892 59.5788 53.207C59.413 53.1237 59.2265 53.0805 59.0372 53.0812C58.8794 53.0816 58.7237 53.1139 58.5808 53.1748C58.4311 53.2333 58.2952 53.3171 58.1796 53.4219C57.9263 53.6736 57.7952 54.0077 57.816 54.3486C57.8143 54.495 57.8353 54.6406 57.8787 54.7813C57.9223 54.9081 57.99 55.0264 58.0793 55.1314C58.1951 55.2682 58.3433 55.3792 58.5131 55.4563C58.6778 55.5357 58.8609 55.5778 59.0472 55.5799C59.2463 55.5794 59.4419 55.5339 59.6164 55.4471C59.7967 55.3595 59.9509 55.233 60.0652 55.0788L59.639 54.6852C59.5795 54.7872 59.4933 54.8744 59.3882 54.9389C59.2949 54.9987 59.1839 55.0307 59.0698 55.0307C58.9875 55.0321 58.9065 55.0138 58.8341 54.9781C58.7611 54.9415 58.6979 54.8907 58.6485 54.8293C58.5923 54.7607 58.5507 54.6831 58.5256 54.6005C58.4948 54.5101 58.4798 54.4159 58.4805 54.3214C58.479 54.2269 58.4933 54.1326 58.5231 54.042C58.5459 53.9596 58.5858 53.8818 58.641 53.8132C58.6889 53.7541 58.7496 53.7042 58.819 53.6669C58.8872 53.6322 58.9642 53.6141 59.0422 53.6141C59.145 53.6132 59.2458 53.6411 59.3305 53.6944ZM62.0914 54.0237C62.0931 53.9183 62.051 53.8162 61.9735 53.7377C61.9013 53.6631 61.7968 53.6213 61.6877 53.6233C61.5801 53.6203 61.476 53.6574 61.3993 53.7263C61.3173 53.8093 61.2657 53.9132 61.2514 54.0237H62.0914ZM61.2288 54.5088C61.226 54.642 61.2769 54.7715 61.3717 54.8729C61.4567 54.9665 61.5844 55.0198 61.7178 55.017C61.875 55.0152 62.0257 54.9587 62.139 54.8589L62.6205 55.1909C62.4991 55.312 62.3547 55.412 62.1942 55.4861C62.0455 55.5445 61.8848 55.5733 61.7228 55.5708C61.5508 55.5738 61.38 55.5442 61.2213 55.4838C61.0784 55.4273 60.9517 55.342 60.8502 55.2342C60.7433 55.1184 60.6639 54.9836 60.617 54.8386C60.5595 54.6711 60.5315 54.4965 60.5342 54.3214C60.5104 53.9734 60.6456 53.632 60.9078 53.3787C61.1383 53.1828 61.4407 53.0735 61.7554 53.0721C61.9417 53.0693 62.1242 53.1208 62.2769 53.2183C62.4399 53.324 62.5676 53.4691 62.6455 53.6373C62.6942 53.7279 62.7298 53.824 62.7509 53.9233C62.7747 54.037 62.7855 54.1528 62.7835 54.2686V54.5088H61.2288ZM64.3732 53.6143C64.6558 53.618 64.9329 53.6871 65.1781 53.8157L65.4289 53.3555C65.2616 53.2677 65.0853 53.1958 64.9023 53.1407C64.7396 53.0963 64.5706 53.075 64.4008 53.0766C64.2609 53.075 64.1215 53.0917 63.9871 53.1267C63.8727 53.1558 63.7649 53.2029 63.6686 53.2665C63.5833 53.3233 63.5131 53.3967 63.463 53.4816C63.4143 53.5686 63.3893 53.6651 63.3903 53.7631C63.39 53.8686 63.4191 53.9727 63.4755 54.0651C63.5309 54.1619 63.6119 54.2443 63.7112 54.3054L63.8115 54.3578C63.8514 54.3781 63.8935 54.3948 63.9369 54.4083L64.145 54.4722L64.481 54.566C64.4917 54.569 64.502 54.5719 64.5122 54.5747C64.5809 54.5938 64.6382 54.6098 64.6841 54.6257C64.7255 54.6397 64.7651 54.6582 64.802 54.6804C64.8273 54.6971 64.8466 54.7202 64.8572 54.7468C64.8657 54.7738 64.8699 54.8014 64.8697 54.8294C64.8717 54.8939 64.8338 54.9541 64.7719 54.9847C64.6894 55.0268 64.5954 55.0467 64.5011 55.0419C64.3436 55.0406 64.1872 55.0175 64.0372 54.9735C63.8752 54.9291 63.7195 54.8678 63.5733 54.7905L63.3226 55.3005C63.4825 55.3932 63.6566 55.4632 63.8391 55.5087C64.0297 55.5547 64.2263 55.5769 64.4234 55.5751C64.5926 55.579 64.7614 55.5607 64.9249 55.5202C65.0573 55.4806 65.1781 55.414 65.2784 55.3259C65.2803 55.3243 65.2822 55.3226 65.284 55.321C65.2894 55.3163 65.2947 55.3117 65.2997 55.3069C65.57 55.0584 65.5683 54.6571 65.296 54.4106C65.1448 54.2713 64.955 54.1727 64.7468 54.1246L64.4409 54.0445L64.2729 53.9988C64.2065 53.9855 64.1438 53.9589 64.0899 53.921C64.0588 53.888 64.0435 53.8452 64.0472 53.8017C64.0472 53.6761 64.1551 53.6143 64.3732 53.6143Z" fill="#414652"/>
<path fill-rule="evenodd" clip-rule="evenodd" d="M86.9708 55.5156H85.9739V53.113H86.9708V55.5156ZM86.8584 52.4082C86.7617 52.3448 86.6256 52.3098 86.4836 52.3121C86.3431 52.3126 86.2078 52.3471 86.1088 52.4082C86.0073 52.4677 85.9518 52.551 85.9552 52.637C85.9533 52.7228 86.0088 52.8054 86.1088 52.8659C86.2066 52.9274 86.3427 52.9617 86.4836 52.9597C86.6245 52.962 86.7606 52.9279 86.8584 52.8659C86.9596 52.8059 87.0154 52.7231 87.012 52.637C87.0139 52.5512 86.9584 52.4684 86.8584 52.4082ZM77.0159 53.1198H76.3689L76.3664 52.3142L75.6969 52.543V53.1198H75.2381V53.7285H75.6969V54.955C75.6952 55.0412 75.7142 55.1273 75.7521 55.2067C75.7875 55.2797 75.8396 55.3456 75.9051 55.3989C75.9733 55.4538 76.0525 55.4966 76.1383 55.5247C76.235 55.5554 76.3368 55.5709 76.4392 55.5705C76.5237 55.5714 76.6079 55.5622 76.6899 55.543C76.7704 55.5217 76.8479 55.4918 76.9206 55.4536L77.0159 54.8017C76.963 54.847 76.904 54.8863 76.8404 54.9181C76.7902 54.9396 76.7353 54.9506 76.6799 54.9504C76.5936 54.9554 76.5089 54.9273 76.4467 54.8726C76.3822 54.7852 76.3544 54.6795 76.3689 54.5749V53.7285H77.0159V53.1198ZM70.5766 54.1609L70.1654 53.2296L69.7541 54.1701L70.5766 54.1609ZM70.5014 52.3164L71.9557 55.5199H71.1859L70.865 54.7993H69.4633L69.1423 55.5199H68.375L69.8268 52.3164H70.5014ZM73.9517 55.4056C73.8436 55.4621 73.7293 55.5081 73.6107 55.5431C73.5091 55.5673 73.4048 55.5797 73.2997 55.5797C73.1232 55.5813 72.9497 55.5385 72.7982 55.4561C72.6525 55.3811 72.5347 55.2676 72.4597 55.1312C72.4377 55.0958 72.4209 55.058 72.4096 55.0191C72.395 54.9772 72.3842 54.9342 72.377 54.8907C72.3662 54.8342 72.3612 54.7768 72.3619 54.7191V54.4654V53.1291H73.0289V54.5409C73.0219 54.656 73.064 54.7692 73.1468 54.8566C73.2358 54.9365 73.3584 54.9775 73.4828 54.9688C73.6062 54.9747 73.7268 54.934 73.8163 54.8566C73.903 54.7727 73.9482 54.6603 73.9417 54.5452V53.1291H74.6137V55.5317H73.9467L73.9517 55.4056ZM78.4376 53.2343C78.544 53.1835 78.6548 53.1407 78.7686 53.1059C78.8634 53.0828 78.9612 53.0711 79.0595 53.0718C79.2305 53.072 79.3985 53.1141 79.546 53.1928C79.6909 53.2677 79.8075 53.3812 79.8794 53.5178C79.9 53.5537 79.9166 53.5914 79.9296 53.6299C79.9431 53.6722 79.9539 53.715 79.9622 53.7582C79.9705 53.8159 79.9757 53.874 79.9772 53.9321V54.1861V55.5224H79.3077V54.1081C79.3153 53.9939 79.2739 53.8816 79.1924 53.7946C79.1099 53.7171 78.9951 53.6754 78.8764 53.6802C78.7563 53.6756 78.6392 53.718 78.5555 53.7971C78.4722 53.8804 78.4289 53.991 78.4351 54.1038V55.5224H77.7656V52.5478L78.4351 52.319L78.4376 53.2343ZM81.4591 53.8405C81.5358 53.727 81.6714 53.6575 81.8179 53.6575H81.8229C81.8878 53.6579 81.9513 53.6753 82.0059 53.7078C82.0659 53.7437 82.1163 53.7913 82.1539 53.8474C82.1995 53.9112 82.2336 53.9817 82.2539 54.0556C82.28 54.1421 82.2928 54.2313 82.2918 54.321C82.2988 54.4885 82.2517 54.6537 82.1564 54.797C82.0869 54.9112 81.956 54.9828 81.8126 54.9846C81.6664 54.9851 81.5308 54.9144 81.4568 54.7993C81.3613 54.6537 81.3149 54.4858 81.3236 54.3165C81.3151 54.149 81.3625 53.9831 81.4591 53.8405ZM82.2665 53.1678C82.1276 53.1035 81.9736 53.0708 81.8179 53.0717C81.6569 53.0703 81.4982 53.1033 81.3537 53.1678C81.2116 53.2314 81.0852 53.3209 80.9829 53.4309C80.8735 53.5479 80.7888 53.682 80.7321 53.8268C80.6724 53.9874 80.6426 54.1561 80.6441 54.3256C80.6436 54.4915 80.6735 54.656 80.7321 54.813C80.7895 54.9574 80.8743 55.0915 80.9829 55.2089C81.0834 55.3196 81.208 55.4098 81.349 55.4743C81.6368 55.6027 81.9736 55.6027 82.2617 55.4743C82.4036 55.4104 82.5293 55.3201 82.6301 55.2089C82.7396 55.0922 82.8246 54.9578 82.8808 54.813C82.942 54.6549 82.9726 54.4885 82.9713 54.321C82.9726 54.1552 82.942 53.9899 82.8808 53.8339C82.8246 53.6874 82.7396 53.5518 82.6301 53.4335C82.5305 53.3227 82.4066 53.2323 82.2665 53.1678ZM84.3704 53.1198V53.2915C84.4507 53.221 84.5429 53.1631 84.6437 53.1198C84.731 53.0864 84.8248 53.0702 84.9193 53.0718C85.0971 53.0732 85.2709 53.1198 85.4208 53.2068L85.2179 53.8635C85.1638 53.8177 85.1031 53.7793 85.0374 53.7491C84.9817 53.7255 84.9206 53.7139 84.8594 53.7148C84.6437 53.7214 84.4569 53.8532 84.3955 54.0418C84.3847 54.0779 84.3779 54.1147 84.3754 54.1518C84.3719 54.2081 84.3719 54.2646 84.3754 54.3211V55.5224H83.7082V53.1198H84.3704ZM88.405 53.1198H89.0519V53.7285H88.405V54.5749C88.3909 54.6797 88.4198 54.7856 88.4852 54.8726C88.5464 54.9268 88.6304 54.9552 88.7159 54.9504C88.7713 54.9508 88.8262 54.9399 88.8764 54.9181C88.9406 54.8868 88.9995 54.8476 89.0519 54.8017L88.9591 55.4536C88.8856 55.4918 88.8072 55.5217 88.7259 55.543C88.6442 55.5625 88.5597 55.5716 88.4752 55.5705C88.3736 55.5709 88.2728 55.5556 88.1768 55.5247C88.09 55.4973 88.01 55.4542 87.9411 55.3989C87.8759 55.3456 87.8237 55.2797 87.7881 55.2067C87.7515 55.1268 87.7324 55.0412 87.733 54.955V53.7285H87.2766V53.1198H87.733V52.543L88.4025 52.3142L88.405 53.1198ZM90.975 54.685L90.2378 53.1198H89.5109L90.6368 55.5064L90.2632 56.4054H90.9703L92.3394 53.1198H91.617L90.975 54.685Z" fill="#414652"/>
</svg>
