<svg width="180" height="80" viewBox="0 0 180 80" fill="none" xmlns="http://www.w3.org/2000/svg">
<path d="M55.3945 20.2775L58.163 17.0205L58.4887 17.2648L55.6795 20.5218L55.3945 20.2775Z" fill="#414652"/>
<path d="M53.2783 14.4146C53.319 14.3739 53.3597 14.3332 53.4411 14.2925C53.5226 14.2518 53.5633 14.2925 53.604 14.2925C53.6447 14.3332 53.7261 14.3739 53.7261 14.4146C53.7261 14.4961 53.7261 14.5368 53.6854 14.6182C53.6447 14.6996 53.604 14.6996 53.5226 14.7403C53.4411 14.7403 53.4004 14.7403 53.3597 14.6996C53.319 14.6589 53.2783 14.6182 53.2376 14.5775C53.1969 14.5368 53.2376 14.4554 53.2783 14.4146Z" fill="#414652"/>
<path fill-rule="evenodd" clip-rule="evenodd" d="M54.988 17.8344C54.4588 17.5494 53.5224 17.1015 53.0746 17.7529C52.8303 18.1601 52.9524 18.5265 53.3595 18.7708C53.8481 19.1372 54.2552 18.8929 54.2552 18.8929C54.0924 19.1779 54.1331 19.3 54.2959 19.4222C54.4181 19.5036 54.7031 19.585 54.7031 19.585L54.7845 19.4222C54.7845 19.4222 54.6623 19.3814 54.5809 19.3407C54.4995 19.3 54.4588 19.2186 54.6623 18.9336L55.4766 17.7937C55.8837 17.2237 55.7616 16.8573 55.2323 16.4909C54.8659 16.2466 54.4181 16.2466 54.4181 16.2466L54.3366 16.4501C54.3366 16.4501 54.7845 16.4501 55.0695 16.6537C55.3952 16.898 55.4766 17.1423 55.1509 17.5901L54.988 17.8344ZM53.6445 18.6893C53.3595 18.4858 53.2781 18.2415 53.4817 17.9565C53.7667 17.5494 54.3774 17.7529 54.9066 18.0379L54.4181 18.73C54.4181 18.73 54.0109 18.9336 53.6445 18.6893Z" fill="#414652"/>
<path d="M53.1555 61.3563L53.359 61.5599C53.359 61.5192 53.3997 61.1528 53.8883 60.8271C54.3361 60.5421 54.784 60.5828 55.1097 61.1121L56.2089 62.7813L55.8425 63.0256L54.784 61.4378C54.499 61.0306 54.214 60.9492 53.8883 61.1528C53.4812 61.3971 53.4812 61.7635 53.4812 61.7635L54.7433 63.7177L54.3768 63.9212L52.7891 61.5192L53.1555 61.3563Z" fill="#414652"/>
<rect x="51.5244" y="17.6553" width="2.84982" height="0.407116" transform="rotate(-61.4641 51.5244 17.6553)" fill="#414652"/>
<path d="M51.0386 30.6997C51.2422 30.6997 51.4051 30.944 51.4051 31.2697C51.4051 31.5954 51.2422 31.8397 51.0386 31.8397C50.8351 31.8397 50.6722 31.5954 50.6722 31.2697C50.6315 30.944 50.8351 30.6997 51.0386 30.6997Z" fill="#414652"/>
<path fill-rule="evenodd" clip-rule="evenodd" d="M50.8758 62.4963C50.1837 62.8627 50.0209 63.5141 50.428 64.3691C50.8351 65.224 51.4458 65.5497 52.1786 65.1833C52.8707 64.8576 53.0336 64.1655 52.6265 63.3105C52.2193 62.4556 51.6087 62.1706 50.8758 62.4963ZM52.0565 64.9798C51.568 65.224 51.2015 64.939 50.8351 64.2062C50.4687 63.4327 50.5094 62.9848 50.998 62.7406C51.4865 62.4963 51.8529 62.7813 52.2193 63.5141C52.5858 64.2876 52.545 64.7355 52.0565 64.9798Z" fill="#414652"/>
<path d="M49.939 16.9391C49.2061 16.6541 48.9619 16.0434 49.369 15.107C49.7354 14.2113 50.3461 13.8856 51.1196 14.2113C51.5267 14.3742 51.771 14.7406 51.771 14.7406L51.6489 14.9442C51.6489 14.9442 51.4453 14.6185 51.0789 14.4556C50.5496 14.2113 50.1425 14.4556 49.8168 15.2699C49.4504 16.1248 49.654 16.5319 50.1018 16.6948C50.5496 16.8984 50.8753 16.6541 50.8753 16.6541L50.9975 16.8576C50.9975 16.8576 50.5904 17.2241 49.939 16.9391Z" fill="#414652"/>
<path d="M49.4097 66.2825L48.4326 63.5548L48.8397 63.4326L49.8168 66.1196L49.4097 66.2825Z" fill="#414652"/>
<path d="M48.5956 62.659C48.6363 62.7404 48.6363 62.7811 48.5956 62.8625C48.5549 62.9032 48.5142 62.944 48.4735 62.9847C48.4328 62.9847 48.3513 62.9847 48.3106 62.9847C48.2292 62.944 48.1885 62.9032 48.1885 62.8218C48.1885 62.7404 48.1885 62.6997 48.1885 62.6183C48.2292 62.5368 48.2699 62.5368 48.3106 62.4961C48.3513 62.4961 48.4328 62.4554 48.4735 62.4961C48.5142 62.5368 48.5549 62.5775 48.5956 62.659Z" fill="#414652"/>
<path d="M45.9492 15.5546L46.682 12.7861L47.0077 12.8676L46.967 13.1525C47.0077 13.1118 47.3334 12.9083 47.8627 13.0711C48.392 13.234 48.6362 13.6004 48.4734 14.1704L47.9441 16.0838L47.537 15.9617L48.0256 14.1296C48.1477 13.6411 47.9848 13.3968 47.6591 13.2747C47.2113 13.1525 46.9263 13.3561 46.9263 13.3561L46.3156 15.5953L45.9492 15.5546Z" fill="#414652"/>
<path d="M46.2345 66.8114L46.3159 66.5672C46.3159 66.5672 46.6416 66.8521 47.1301 66.73C47.578 66.6079 47.7001 66.3229 47.6187 66.0379C47.4151 65.3051 46.1937 65.9972 45.9495 65.0608C45.8273 64.5722 46.153 64.2058 46.6823 64.043C47.0894 63.9208 47.4558 64.0837 47.4558 64.0837V64.328C47.4558 64.328 47.0894 64.1651 46.7637 64.2873C46.3973 64.3687 46.2345 64.613 46.3159 64.8979C46.5194 65.6308 47.8222 64.9387 48.0665 65.9158C48.1887 66.3636 47.9851 66.8521 47.293 67.015C46.6009 67.1371 46.2345 66.8114 46.2345 66.8114Z" fill="#414652"/>
<path d="M44.2805 30.6997C44.484 30.6997 44.6469 30.944 44.6469 31.2697C44.6469 31.5954 44.484 31.8397 44.2805 31.8397C44.0769 31.8397 43.9141 31.5954 43.9141 31.2697C43.9141 30.944 44.0769 30.6997 44.2805 30.6997Z" fill="#414652"/>
<path fill-rule="evenodd" clip-rule="evenodd" d="M42.7742 14.4554C42.6928 14.9033 43.0185 15.229 43.507 15.2697C44.1177 15.3511 44.362 14.944 44.362 14.944C44.362 15.2697 44.4434 15.3511 44.647 15.3918C44.8098 15.4325 45.0948 15.3511 45.0948 15.3511V15.1476C45.0948 15.1476 44.9319 15.1883 44.8505 15.1883C44.8098 15.1883 44.7284 15.1068 44.7691 14.7811L44.9319 13.3969C45.0134 12.6641 44.7284 12.4198 44.1177 12.3384C43.7106 12.2977 43.3035 12.5012 43.3035 12.5012V12.7455C43.3035 12.7455 43.7106 12.542 44.0363 12.5827C44.4434 12.6234 44.6062 12.8269 44.5248 13.3562L44.4841 13.6412C43.9141 13.6412 42.8556 13.6819 42.7742 14.4554ZM43.6699 15.0254C43.3849 14.9847 43.1813 14.7811 43.222 14.4554C43.2627 13.9262 43.9141 13.8448 44.4434 13.8855L44.362 14.6997C44.362 14.6997 44.1177 15.0661 43.6699 15.0254Z" fill="#414652"/>
<path d="M44.728 66.6893C44.6059 65.9158 43.3031 66.4857 43.1402 65.5086C43.0588 65.0201 43.4252 64.6537 43.9545 64.613C44.3616 64.5316 44.728 64.7351 44.728 64.7351L44.6873 64.9794C44.6873 64.9794 44.3616 64.7758 43.9952 64.8573C43.6288 64.898 43.4252 65.1422 43.4659 65.3865C43.5881 66.16 44.9316 65.5901 45.0944 66.5672C45.1351 67.015 44.8909 67.4628 44.1988 67.585C43.5066 67.6664 43.2217 67.3 43.2217 67.3L43.3438 67.0964C43.3438 67.0964 43.6288 67.4221 44.1173 67.3814C44.6059 67.2593 44.7687 66.9743 44.728 66.6893Z" fill="#414652"/>
<path d="M41.5524 65.5088L41.5117 64.8981L41.7153 64.8574H41.9188L42.0817 67.7073L41.6339 67.748L41.5524 65.5088Z" fill="#414652"/>
<path d="M41.5121 64.2467C41.4714 64.206 41.4307 64.1245 41.4307 64.0838C41.4307 64.0024 41.4307 63.9617 41.5121 63.8803C41.5528 63.8395 41.5935 63.7988 41.6749 63.7988C41.7564 63.7988 41.7971 63.7988 41.8378 63.8395C41.8785 63.8803 41.9192 63.9617 41.9192 64.0431C41.9192 64.1245 41.9192 64.1652 41.8785 64.2467C41.8378 64.2874 41.7564 64.3281 41.7157 64.3281C41.6342 64.2874 41.5528 64.2874 41.5121 64.2467Z" fill="#414652"/>
<path d="M40.1275 15.1066H39.7204L39.6797 12.2567H40.0054L40.0461 12.5417C40.0868 12.501 40.2904 12.216 40.9011 12.1753C41.4303 12.1753 41.756 12.4603 41.7967 13.071L41.8374 15.0659H41.4303L41.3489 13.1524C41.3489 12.6638 41.1046 12.4603 40.7382 12.4603C40.2904 12.4603 40.0461 12.7453 40.0461 12.7453L40.1275 15.1066Z" fill="#414652"/>
<path d="M37.6442 11.4833C37.6849 11.4426 37.7257 11.4019 37.7664 11.4019H37.8071C37.8885 11.4019 37.9292 11.4019 37.9699 11.4426C38.0106 11.4833 38.0514 11.5647 38.0514 11.6054C38.0514 11.6868 38.0514 11.7276 38.0106 11.809C37.9699 11.8497 37.9292 11.8904 37.8478 11.8904C37.8071 11.8904 37.7257 11.8904 37.6849 11.8497C37.6442 11.809 37.6035 11.7276 37.6035 11.6868C37.6035 11.6054 37.6035 11.524 37.6442 11.4833Z" fill="#414652"/>
<path d="M38.1327 15.3105L37.7256 12.4606H37.9699L38.1734 12.4199L38.5398 15.2698L38.1327 15.3105Z" fill="#414652"/>
<path d="M37.5631 30.6997C37.7666 30.6997 37.9295 30.944 37.9295 31.2697C37.9295 31.5954 37.7666 31.8397 37.5631 31.8397C37.3595 31.8397 37.1967 31.5954 37.1967 31.2697C37.156 30.944 37.3188 30.6997 37.5631 30.6997Z" fill="#414652"/>
<path d="M36.7891 67.5447L37.0333 64.6948L37.359 64.7355L37.3997 65.0612C37.4405 65.0205 37.7254 64.7355 38.2547 64.7762C38.5804 64.817 38.7433 64.8984 38.8247 65.1834C38.9061 65.1019 39.1911 64.8577 39.6796 64.8984C40.0868 64.9391 40.2903 65.1427 40.2903 65.5905C40.2903 65.6312 40.2903 65.7126 40.2903 65.7533L40.1275 67.8297L39.7204 67.789L39.8832 65.7533C39.9239 65.3055 39.8018 65.1834 39.5168 65.1427C39.1504 65.1019 38.9061 65.3462 38.8654 65.4276C38.8654 65.5091 38.8654 65.5498 38.8654 65.6312L38.7025 67.7075L38.2954 67.6668L38.4583 65.6312C38.499 65.1834 38.3768 65.0612 38.0919 65.0205C37.7254 64.9798 37.4812 65.2241 37.4405 65.2648L37.2776 67.5854L36.7891 67.5447Z" fill="#414652"/>
<path d="M35.3234 15.8803L34.4277 12.2569L36.4226 11.8091L36.5041 12.0534L34.9163 12.4198L35.2827 13.8854L36.6262 13.5597L36.6669 13.804L35.3234 14.1297L35.7305 15.7989L35.3234 15.8803Z" fill="#414652"/>
<path d="M31.9033 66.3637L32.6769 63.5952L33.0026 63.6766L32.9618 64.0023C33.0026 63.9616 33.369 63.7174 33.8168 63.8802C34.1018 63.9616 34.2646 64.1245 34.3054 64.3688C34.3868 64.328 34.7125 64.1245 35.201 64.2466C35.6489 64.3688 35.8117 64.6537 35.6489 65.2237L35.0789 67.2593L34.6718 67.1372L35.201 65.1423C35.3232 64.6945 35.201 64.5723 34.9568 64.4909C34.5903 64.4095 34.3461 64.5723 34.2646 64.613C34.2646 64.6537 34.2239 64.7352 34.2239 64.8166L33.654 66.8522L33.2468 66.7301L33.7761 64.7352C33.8982 64.2873 33.7761 64.1652 33.5318 64.0838C33.1654 64.0023 32.8804 64.1652 32.8397 64.2059L32.229 66.4451L31.9033 66.3637Z" fill="#414652"/>
<path d="M30.8043 30.6997C31.0078 30.6997 31.2114 30.944 31.2114 31.2697C31.2114 31.5547 31.0893 31.7582 30.8857 31.8397C30.845 31.8397 30.845 31.8397 30.8043 31.8397C30.6007 31.8397 30.4379 31.5954 30.4379 31.2697C30.3971 30.944 30.6007 30.6997 30.8043 30.6997Z" fill="#414652"/>
<path fill-rule="evenodd" clip-rule="evenodd" d="M30.5607 14.5775C29.9093 14.9032 29.7465 15.636 30.1536 16.491C30.6014 17.3459 31.2121 17.5495 31.8635 17.2645C32.4742 16.9795 32.5149 16.4096 32.5149 16.4096L32.3114 16.3688C32.3114 16.3688 32.2707 16.8167 31.8228 17.0202C31.3343 17.2238 30.9271 17.061 30.5607 16.3281L32.1485 15.5546C32.1485 15.5546 32.1485 15.4732 32.0671 15.3103C31.7007 14.5368 31.1307 14.2925 30.5607 14.5775ZM30.4386 16.0839C30.1536 15.3917 30.235 14.9846 30.6422 14.7811C31.0493 14.6182 31.375 14.8218 31.6193 15.3917C31.6193 15.4325 31.66 15.4732 31.66 15.4732L30.4386 16.0839Z" fill="#414652"/>
<path fill-rule="evenodd" clip-rule="evenodd" d="M30.6014 62.6588C29.9093 62.3331 29.2986 62.6588 28.8915 63.5137C28.5251 64.3687 28.6472 65.0608 29.38 65.3865C30.0721 65.7122 30.6828 65.3865 31.09 64.5316C31.4971 63.6766 31.3342 62.9845 30.6014 62.6588ZM29.5022 65.1422C29.0136 64.9387 28.9729 64.4501 29.2986 63.7173C29.6243 62.9845 30.0314 62.6995 30.52 62.8623C31.0085 63.1066 31.0492 63.5952 30.7235 64.328C30.3978 65.1015 29.9907 65.3865 29.5022 65.1422Z" fill="#414652"/>
<path d="M27.14 16.9389C27.14 16.9389 27.1807 16.5318 27.6286 16.2061C28.0764 15.9211 28.5242 15.9618 28.8499 16.4911L29.9492 18.1603L29.6235 18.4046L28.565 16.7761C28.3207 16.3689 27.995 16.3282 27.71 16.5318C27.3029 16.7761 27.3029 17.1425 27.3029 17.1425L28.6057 19.0967L28.2393 19.3409L25.8779 15.799L26.2036 15.5547L27.14 16.9389Z" fill="#414652"/>
<path d="M26.2452 63.7174C25.3902 63.1474 25.2681 62.2518 25.8787 61.2747C26.5301 60.2568 27.4665 59.9719 28.2808 60.5011C28.7693 60.8268 29.0136 61.3561 29.0136 61.3561L28.81 61.5596C28.81 61.5596 28.5658 61.0304 28.1586 60.7454C27.548 60.3383 26.8558 60.5825 26.2859 61.4782C25.7159 62.3739 25.7973 63.066 26.4487 63.4731C27.0187 63.8395 27.6294 63.5546 27.6294 63.5546L27.6701 63.7988C27.6701 63.7988 26.978 64.1652 26.2452 63.7174Z" fill="#414652"/>
<path fill-rule="evenodd" clip-rule="evenodd" d="M19.0791 39.1679C19.0791 27.972 27.5066 18.7709 38.3768 17.5496C39.1911 17.4681 40.0053 17.3867 40.8603 17.3867C52.8704 17.3867 62.6414 27.117 62.6414 39.1679C62.6414 50.9338 53.2776 60.5419 41.5931 60.9083H40.8603C28.8501 60.9083 19.0791 51.1781 19.0791 39.1679ZM56.1682 29.519L41.0231 22.4351L25.5524 29.519H56.1682ZM54.2954 30.1704V29.7633H27.4252V30.1704H54.2954ZM41.8781 33.2646V32.4503V32.4096H46.5193V33.2239H46.1529V33.8346H45.6236L45.8679 46.4554C45.9086 46.5776 45.7458 46.6997 45.5829 46.6997C45.4201 46.6997 45.2572 46.5776 45.2572 46.4554L45.1758 33.8346H44.8094L44.9722 46.4554C45.0129 46.5776 44.8501 46.6997 44.6872 46.6997C44.4837 46.6997 44.3615 46.5776 44.3615 46.4554V33.8346H43.9951V46.4554C43.9951 46.5776 43.8323 46.6997 43.6694 46.6997C43.5066 46.6997 43.3844 46.5776 43.3844 46.4554L43.5473 33.8753H43.1809L43.0995 46.4961C43.0995 46.6183 42.9366 46.7404 42.7738 46.7404C42.6109 46.7404 42.4888 46.6183 42.4888 46.4961L42.733 33.8753H42.2445V33.2646H41.8781ZM48.5956 33.2646V32.4503H53.2369V33.2646H52.8704V33.8753H52.3412L52.5855 46.4961C52.6262 46.6183 52.4633 46.7404 52.3005 46.7404C52.1376 46.7404 51.9748 46.6183 51.9748 46.4961L51.8933 33.8753H51.5269L51.6898 46.4961C51.7305 46.6183 51.5676 46.7404 51.4048 46.7404C51.2012 46.7404 51.0791 46.6183 51.0791 46.4961V33.8753H50.7127V46.4961C50.7127 46.6183 50.5498 46.7404 50.387 46.7404C50.2241 46.7404 50.102 46.6183 50.102 46.4961L50.2649 33.8753H49.8984L49.817 46.4961C49.817 46.6183 49.6542 46.7404 49.4913 46.7404C49.3285 46.7404 49.2063 46.6183 49.2063 46.4961L49.4913 33.8753H48.9621V33.2646H48.5956ZM48.7992 46.7811H52.9926V47.1475H53.2369V47.7175H48.5549V47.1475H48.7992V46.7811ZM41.8374 47.1475V47.7175H46.5193V47.1475H46.275V46.7811H42.0816V47.1475H41.8374ZM39.5982 46.7811H35.4048V47.1475H35.1605V47.7175H39.8425V47.1475H39.5982V46.7811ZM36.0562 33.8753H35.5677V33.2646H35.2012V32.4503H39.9239V33.2646H39.5575V33.8753H39.0689L39.3132 46.4961C39.3539 46.6183 39.1911 46.7404 39.0282 46.7404C38.8654 46.7404 38.7025 46.6183 38.7025 46.4961L38.5804 33.8753H38.214L38.3768 46.4961C38.3768 46.6183 38.2547 46.7404 38.0918 46.7404C37.8883 46.7404 37.7661 46.6183 37.7661 46.4961V33.8753H37.3997V46.4961C37.3997 46.6183 37.2369 46.7404 37.074 46.7404C36.9112 46.7404 36.789 46.6183 36.789 46.4961L36.9519 33.8753H36.5855L36.4633 46.4961C36.4633 46.6183 36.3005 46.7404 36.1376 46.7404C35.9341 46.7404 35.8119 46.6183 35.8119 46.4961L36.0562 33.8753ZM33.2063 47.7582H28.5244H28.4837V47.1882H28.728V46.8218H32.9621V47.1882H33.2063V47.7582ZM28.0358 32.0432H30.8043H30.8857H37.5626H44.3208H51.0791H53.7254V30.4147H51.0791H44.3208H37.5626H30.8043H28.0358V32.0432ZM28.8908 33.2646H28.5244V32.4096H33.1656V33.2239H32.7992V33.8346H32.2699L32.5142 46.4554C32.5549 46.5776 32.3921 46.6997 32.2292 46.6997C32.0664 46.6997 31.9035 46.5776 31.9035 46.4554L31.8221 33.8346H31.4557L31.6185 46.4554C31.6593 46.5776 31.4964 46.6997 31.3336 46.6997C31.13 46.6997 31.0079 46.5776 31.0079 46.4554V33.8346H30.6414V46.4554C30.6414 46.5776 30.4786 46.6997 30.3157 46.6997C30.1529 46.6997 30.0308 46.5776 30.0308 46.4554L30.1936 33.8346H29.8272L29.7458 46.4554C29.7458 46.5776 29.5829 46.6997 29.4201 46.6997C29.2572 46.6997 29.1351 46.5776 29.1351 46.4554L29.4201 33.8753H28.8908V33.2646ZM26.7738 48.776V47.9618H54.9468V48.776H26.7738ZM56.2496 50.0381H25.4302V48.9796H56.2496V50.0381Z" fill="#414652"/>
<path d="M26.4894 20.8068L24.1688 18.2012L23.3953 18.934L23.2324 18.7304L25.1052 17.0205L25.3088 17.2241L24.4945 17.9162L26.8151 20.4811L26.4894 20.8068Z" fill="#414652"/>
<path fill-rule="evenodd" clip-rule="evenodd" d="M10.3262 39.6564C10.3262 56.4707 24.0056 70.1908 40.8605 70.1908C57.7155 70.1908 71.3949 56.4707 71.3949 39.6564C71.3949 22.8422 57.7155 9.12207 40.8605 9.12207C24.0463 9.12207 10.3262 22.8015 10.3262 39.6564ZM36.545 69.2137C22.0921 67.1373 10.9369 54.6386 10.9369 39.6157C10.9369 24.2264 22.6213 11.5241 37.6035 9.85489C38.662 9.73276 39.7613 9.69204 40.8605 9.69204C57.3491 9.69204 70.7842 23.1272 70.7842 39.6157C70.7842 56.1043 57.3491 69.5394 40.8605 69.5394C39.3949 69.5394 37.9699 69.4172 36.545 69.2137Z" fill="#414652"/>
<rect x="78.1943" y="9.1626" width="0.407125" height="61.8015" fill="#414652"/>
<path d="M92.6472 15.7582H89.6345V25.7327H87.2324V15.7582H84.2197V14.4961H92.6472V15.7582Z" fill="#414652"/>
<path d="M93.9092 12.8677L96.1891 12.7456V17.7125H96.2705C96.2705 17.7125 97.0033 16.939 98.5097 16.939C100.301 16.939 101.156 17.8347 101.156 19.911V25.7736H98.8761V20.0738C98.8761 18.6896 98.5504 18.3639 97.6954 18.3639C96.7183 18.3639 96.1891 18.9746 96.1891 18.9746V25.7329H93.9092V12.8677Z" fill="#414652"/>
<path fill-rule="evenodd" clip-rule="evenodd" d="M106.693 25.9769C108.932 25.9769 109.746 24.267 109.746 24.267L108.973 23.697C108.973 23.697 108.321 24.837 106.978 24.837C105.675 24.837 105.146 24.0635 105.105 21.9871H109.746C109.746 21.9871 109.868 21.58 109.868 20.8879C109.868 18.3637 108.647 16.9795 106.489 16.9795C104.209 16.9795 102.662 18.5673 102.662 21.6207C102.662 24.7149 104.25 25.9769 106.693 25.9769ZM107.751 20.8065H105.105C105.186 18.6487 105.593 18.038 106.489 18.038C107.425 18.038 107.751 18.6487 107.751 20.3993V20.8065Z" fill="#414652"/>
<path d="M91.5483 41.8552H87.6807V46.4557H85.3193V35.2598H92.159V36.5219H87.7214V40.6745H91.5891V41.8552H91.5483Z" fill="#414652"/>
<path fill-rule="evenodd" clip-rule="evenodd" d="M95.4973 34.2417C95.253 34.0382 94.9273 33.916 94.6016 33.916C94.2759 33.916 93.9502 33.9974 93.706 34.2824C93.421 34.5674 93.2988 34.8931 93.2988 35.2595C93.2988 35.6259 93.4617 35.9924 93.706 36.2366C93.9502 36.4402 94.2759 36.5623 94.6016 36.5623C94.9273 36.5623 95.253 36.4402 95.4973 36.2366C95.7416 35.9516 95.8637 35.5852 95.8637 35.2188C95.8637 34.8524 95.7416 34.5267 95.4973 34.2417ZM93.4617 37.8244V46.4555H95.7416V37.8244H93.4617Z" fill="#414652"/>
<path d="M97.8174 37.8247H99.6494L99.9344 38.5168H100.016C100.016 38.5168 100.667 37.6211 102.459 37.6211C104.209 37.6211 105.105 38.5168 105.105 40.5931V46.4557H102.825V41.0817C102.825 39.4939 102.499 39.0867 101.685 39.0867C100.667 39.0867 100.138 39.6974 100.138 39.6974V46.4557H97.8581V37.8247H97.8174Z" fill="#414652"/>
<path fill-rule="evenodd" clip-rule="evenodd" d="M110.235 37.6616C108.892 37.6616 107.548 38.3537 107.548 38.3537L107.833 39.4123C107.833 39.4123 109.054 38.7609 109.869 38.7609C110.846 38.7609 111.294 39.2087 111.294 40.7965V41.285C109.421 41.4479 106.53 42.0586 106.53 44.3385C106.53 45.7634 107.589 46.6184 109.177 46.6184C110.968 46.6184 111.456 45.5598 111.456 45.5598H111.538C111.66 46.2927 111.986 46.6184 112.678 46.6184C113.411 46.6184 114.591 46.252 114.591 46.252L114.51 45.3563C114.51 45.3563 114.144 45.4784 113.94 45.4784C113.777 45.4784 113.574 45.3156 113.574 44.5827V40.6743C113.574 38.3537 112.271 37.6616 110.235 37.6616ZM108.932 44.0942C108.932 42.8728 109.869 42.425 111.294 42.2621V44.542C111.294 44.542 110.887 45.4784 109.95 45.4784C109.339 45.4784 108.932 45.0306 108.932 44.0942Z" fill="#414652"/>
<path d="M115.976 37.8247H117.808L118.093 38.5168H118.174C118.174 38.5168 118.825 37.6211 120.617 37.6211C122.367 37.6211 123.263 38.5168 123.263 40.5931V46.4557H120.983V41.0817C120.983 39.4939 120.658 39.0867 119.843 39.0867C118.825 39.0867 118.296 39.6974 118.296 39.6974V46.4557H116.016V37.8247H115.976Z" fill="#414652"/>
<path d="M129.125 38.8014C127.904 38.8014 127.212 39.3714 127.212 42.1805C127.212 44.949 128.026 45.5189 129.085 45.5189C130.469 45.5189 131.039 44.3383 131.039 44.3383L131.853 44.8675C131.853 44.8675 131.202 46.6996 128.84 46.6996C126.194 46.6996 124.729 45.1525 124.729 42.2619C124.729 39.4528 126.276 37.7021 128.881 37.7021C130.062 37.7021 131.405 38.3943 131.405 38.3943L131.161 39.4935C131.161 39.4121 129.94 38.8014 129.125 38.8014Z" fill="#414652"/>
<path fill-rule="evenodd" clip-rule="evenodd" d="M134.989 34.2417C134.744 34.0382 134.419 33.916 134.093 33.916C133.767 33.916 133.441 33.9974 133.197 34.2824C132.912 34.5674 132.79 34.8931 132.79 35.2595C132.79 35.6259 132.953 35.9924 133.197 36.2366C133.441 36.4402 133.767 36.5623 134.093 36.5623C134.419 36.5623 134.744 36.4402 134.989 36.2366C135.233 35.9516 135.355 35.5852 135.355 35.2188C135.355 34.8524 135.233 34.5267 134.989 34.2417ZM132.953 37.8244V46.4555H135.233V37.8244H132.953Z" fill="#414652"/>
<path fill-rule="evenodd" clip-rule="evenodd" d="M140.484 37.6616C139.141 37.6616 137.797 38.3537 137.797 38.3537L138.082 39.4123C138.082 39.4123 139.303 38.7609 140.118 38.7609C141.095 38.7609 141.543 39.2087 141.543 40.7965V41.285C139.67 41.4479 136.779 42.0586 136.779 44.3385C136.779 45.7634 137.838 46.6184 139.426 46.6184C141.217 46.6184 141.706 45.5598 141.706 45.5598H141.787C141.909 46.2927 142.235 46.6184 142.927 46.6184C143.66 46.6184 144.84 46.252 144.84 46.252L144.759 45.3563C144.759 45.3563 144.393 45.4784 144.189 45.4784C144.026 45.4784 143.823 45.3156 143.823 44.5827V40.6743C143.823 38.3537 142.52 37.6616 140.484 37.6616ZM139.141 44.0942C139.141 42.8728 140.077 42.425 141.502 42.2621V44.542C141.502 44.542 141.095 45.4784 140.158 45.4784C139.548 45.4784 139.141 45.0306 139.141 44.0942Z" fill="#414652"/>
<path d="M148.464 46.4555H146.185V33.5904L148.464 33.4683V46.4555Z" fill="#414652"/>
<path d="M90.0007 57.0814C88.1279 57.0814 87.2322 58.2214 87.2322 61.5598C87.2322 64.8982 88.2093 66.0789 90.1228 66.0789C91.9549 66.0789 92.9727 64.4911 92.9727 64.4911L93.7462 65.3053C93.7462 65.3053 92.6877 67.3817 89.7971 67.3817C86.3366 67.3817 84.5859 65.1425 84.5859 61.6819C84.5859 58.1399 86.4587 55.8193 89.7157 55.8193C91.5071 55.8193 93.1763 56.715 93.1763 56.715L92.932 57.9771C92.932 57.9364 91.3035 57.0814 90.0007 57.0814Z" fill="#414652"/>
<path fill-rule="evenodd" clip-rule="evenodd" d="M94.4385 62.8628C94.4385 65.7534 95.8634 67.3819 98.469 67.3819C100.952 67.3819 102.5 65.7534 102.5 62.8628C102.5 59.9722 101.075 58.3438 98.469 58.3438C95.8634 58.3438 94.4385 59.9722 94.4385 62.8628ZM98.4283 66.242C97.2883 66.242 96.8812 65.387 96.8812 62.8628C96.8812 60.3794 97.3291 59.5244 98.4283 59.5244C99.5682 59.5244 99.9754 60.3794 99.9754 62.8628C99.9754 65.3463 99.5682 66.242 98.4283 66.242Z" fill="#414652"/>
<path d="M104.006 58.5471H105.838L106.123 59.3207H106.164C106.164 59.3207 106.978 58.3843 108.444 58.3843C109.38 58.3843 109.991 58.6693 110.357 59.28C110.438 59.1985 111.293 58.3843 112.8 58.3843C114.428 58.3843 115.08 59.1985 115.08 61.1527V67.1782H112.8V61.3156C112.8 60.0128 112.474 59.7685 111.904 59.7685C111.253 59.7685 110.805 60.2163 110.683 60.4199C110.683 60.6235 110.723 60.8677 110.723 61.112V67.1782H108.444V61.3156C108.444 60.0128 108.118 59.7685 107.548 59.7685C106.856 59.7685 106.408 60.2978 106.326 60.3792V67.1375H104.047V58.5471H104.006Z" fill="#414652"/>
<path d="M117.156 58.5471H118.988L119.273 59.3207H119.314C119.314 59.3207 120.128 58.3843 121.594 58.3843C122.53 58.3843 123.141 58.6693 123.507 59.28C123.589 59.1985 124.444 58.3843 125.95 58.3843C127.579 58.3843 128.23 59.1985 128.23 61.1527V67.1782H125.95V61.3156C125.95 60.0128 125.624 59.7685 125.054 59.7685C124.403 59.7685 123.955 60.2163 123.833 60.4199C123.833 60.6235 123.874 60.8677 123.874 61.112V67.1782H121.553V61.3156C121.553 60.0128 121.227 59.7685 120.658 59.7685C119.965 59.7685 119.518 60.2978 119.436 60.3792V67.1375H117.156V58.5471Z" fill="#414652"/>
<path fill-rule="evenodd" clip-rule="evenodd" d="M132.342 54.9644C132.098 54.7608 131.772 54.6387 131.446 54.6387C131.08 54.6387 130.754 54.7201 130.551 55.0051C130.266 55.2901 130.144 55.6158 130.144 55.9822C130.144 56.3486 130.306 56.715 130.551 56.9593C130.795 57.1628 131.121 57.285 131.446 57.285C131.772 57.285 132.098 57.1628 132.342 56.9593C132.586 56.6743 132.708 56.3079 132.708 55.9415C132.708 55.5751 132.586 55.2494 132.342 54.9644ZM130.306 58.5471V67.1781H132.586V58.5471H130.306Z" fill="#414652"/>
<path d="M134.663 65.1833C134.663 65.1833 135.436 66.2418 136.576 66.2418C137.472 66.2418 137.92 65.7125 137.92 65.0611C137.92 63.3105 134.378 63.8805 134.378 61.0713C134.378 59.28 135.843 58.3843 137.431 58.3843C138.652 58.3843 139.914 58.995 139.914 58.995L139.589 60.1349C139.589 60.1349 138.449 59.4835 137.635 59.4835C136.902 59.4835 136.495 59.8499 136.495 60.4199C136.495 62.1705 140.24 61.7634 140.24 64.5319C140.24 66.1604 139.141 67.341 136.983 67.341C134.703 67.341 133.93 66.0382 133.93 66.0382L134.663 65.1833Z" fill="#414652"/>
<path d="M141.869 65.1833C141.869 65.1833 142.642 66.2418 143.782 66.2418C144.678 66.2418 145.126 65.7125 145.126 65.0611C145.126 63.3105 141.584 63.8805 141.584 61.0713C141.584 59.28 143.049 58.3843 144.637 58.3843C145.858 58.3843 147.12 58.995 147.12 58.995L146.795 60.1349C146.795 60.1349 145.655 59.4835 144.841 59.4835C144.108 59.4835 143.701 59.8499 143.701 60.4199C143.701 62.1705 147.446 61.7634 147.446 64.5319C147.446 66.1604 146.347 67.341 144.189 67.341C141.909 67.341 141.136 66.0382 141.136 66.0382L141.869 65.1833Z" fill="#414652"/>
<path fill-rule="evenodd" clip-rule="evenodd" d="M151.111 54.9644C150.866 54.7608 150.541 54.6387 150.215 54.6387C149.848 54.6387 149.523 54.7201 149.319 55.0051C149.034 55.2901 148.912 55.6158 148.912 55.9822C148.912 56.3486 149.075 56.715 149.319 56.9593C149.564 57.1628 149.889 57.285 150.215 57.285C150.541 57.285 150.866 57.1628 151.111 56.9593C151.355 56.6743 151.477 56.3079 151.477 55.9415C151.477 55.5751 151.355 55.2494 151.111 54.9644ZM149.075 58.5471V67.1781H151.355V58.5471H149.075Z" fill="#414652"/>
<path fill-rule="evenodd" clip-rule="evenodd" d="M152.861 62.8628C152.861 65.7534 154.286 67.3819 156.892 67.3819C159.375 67.3819 160.922 65.7534 160.922 62.8628C160.922 59.9722 159.497 58.3438 156.892 58.3438C154.286 58.3438 152.861 59.9722 152.861 62.8628ZM156.892 66.242C155.752 66.242 155.345 65.387 155.345 62.8628C155.345 60.3794 155.752 59.5244 156.892 59.5244C158.032 59.5244 158.439 60.3794 158.439 62.8628C158.439 65.3463 158.032 66.242 156.892 66.242Z" fill="#414652"/>
<path d="M162.469 58.5473H164.301L164.586 59.2394H164.667C164.667 59.2394 165.319 58.3438 167.11 58.3438C168.861 58.3438 169.756 59.2394 169.756 61.3158V67.1784H167.476V61.8043C167.476 60.2165 167.151 59.8094 166.336 59.8094C165.319 59.8094 164.789 60.4201 164.789 60.4201V67.1784H162.509V58.5473H162.469Z" fill="#414652"/>
</svg>
