<svg width="160" height="80" viewBox="0 0 160 80" fill="none" xmlns="http://www.w3.org/2000/svg">
<path d="M33.4671 53.8971C33.3168 53.1516 33.0981 52.6556 32.8108 52.4092C32.5303 52.177 32.1026 52.0608 31.5277 52.0608H30.317V55.0054H30.5942C31.1208 55.0054 31.4663 54.8824 31.6307 54.6365C31.804 54.3751 31.8933 54.067 31.8867 53.7535H32.1746V56.617H31.8867C31.8951 56.2855 31.8099 55.9582 31.6407 55.673C31.4696 55.399 31.1208 55.2621 30.5942 55.2621H30.317V58.4022H31.3349V58.6588H28V58.4022H29.0159V52.0608H28V51.8042H33.6851L33.7569 53.8971H33.4671Z" fill="#414652"/>
<path d="M34.3271 58.6588V58.4022H35.343V52.0608H34.3271V51.8042H37.6727V52.0608H36.6561V58.4022H37.6727V58.6588H34.3271Z" fill="#414652"/>
<path d="M44.1905 52.0608V58.7924H43.8827L39.5319 52.2556V58.4022H40.5378V58.6588H38.1982V58.4022H39.2035V52.0608H38.1982V51.8042H40.8251L43.8628 56.2886V52.0608H42.8774V51.8042H45.2044V52.0608H44.1905Z" fill="#414652"/>
<path fill-rule="evenodd" clip-rule="evenodd" d="M48.2649 58.4021V58.6587H51.5074V58.4021H50.6969L48.3573 51.6499H47.9983L45.5457 58.4021H44.7246V58.6587H46.9V58.4021H45.8535L46.4898 56.5857H48.7164L49.322 58.4021H48.2649ZM46.6021 56.3291L47.6386 53.4663L48.5934 56.3291H46.6021Z" fill="#414652"/>
<path d="M57.7297 52.0608V58.7924H57.4212L53.0704 52.2556V58.4022H54.073V58.6588H51.7334V58.4022H52.7386V52.0608H51.7334V51.8042H54.3602L57.3972 56.2886V52.0608H56.4119V51.8042H58.7389V52.0608H57.7297Z" fill="#414652"/>
<path d="M63.8622 58.7206L63.4421 58.238C63.2059 58.4312 62.9352 58.5776 62.6442 58.6694C62.3386 58.7648 62.0203 58.8132 61.7002 58.8131C60.858 58.8131 60.1191 58.4571 59.4835 57.7453C58.8527 57.0736 58.5069 56.1835 58.5189 55.2621C58.5189 54.2772 58.8369 53.4289 59.4729 52.7171C60.1231 52.0079 60.8964 51.6522 61.7926 51.65C62.362 51.6377 62.9176 51.826 63.3623 52.1819L63.7612 51.751H63.9972V53.7316H63.6994C63.5549 53.0145 63.2936 52.5325 62.9155 52.2856C62.5731 52.0436 62.1653 51.9112 61.746 51.9059C61.1574 51.9059 60.7264 52.1112 60.4529 52.5216C60.1657 52.9458 60.0221 53.5375 60.0221 54.2967V56.165C60.0221 56.9446 60.169 57.5363 60.4629 57.9401C60.7567 58.3439 61.2048 58.5491 61.8072 58.5558C62.2236 58.5517 62.6273 58.4116 62.9567 58.1569C63.3113 57.8909 63.5883 57.3812 63.7878 56.6277H64.0856V58.7213L63.8622 58.7206Z" fill="#414652"/>
<path d="M64.4883 58.6588V58.4022H65.5042V52.0608H64.4883V51.8042H67.8351V52.0608H66.8186V58.4022H67.8351V58.6588H64.4883Z" fill="#414652"/>
<path fill-rule="evenodd" clip-rule="evenodd" d="M71.7327 58.4021V58.6587H74.9752V58.4021H74.1647L71.8245 51.6499H71.4654L69.0128 58.4021H68.1924V58.6587H70.3678V58.4021H69.3206L69.9569 56.5857H72.1841L72.7891 58.4021H71.7327ZM70.0699 56.3291L71.1064 53.4663L72.0605 56.3291H70.0699Z" fill="#414652"/>
<path d="M80.9273 58.6588H75.2422V58.4022H76.2581V52.0608H75.2422V51.8042H78.6289V52.0608H77.5612V58.4022H78.8849C79.5076 58.4022 79.9626 58.2209 80.2498 57.8583C80.5441 57.5037 80.7015 57.0009 80.7219 56.3498H81.0403L80.9273 58.6588Z" fill="#414652"/>
<path d="M88.8598 58.6588V58.4022H89.8757V52.1326L87.7808 58.6588H87.4317L85.3607 52.1326V58.4022H86.3766V58.6588H84.0264V58.4022H85.0423V52.0608H84.0264V51.8042H86.6738L88.1132 56.504L89.6011 51.8042H92.1974V52.0608H91.1815V58.4022H92.1974V58.6588H88.8598Z" fill="#414652"/>
<path fill-rule="evenodd" clip-rule="evenodd" d="M95.9586 58.4021V58.6587H99.2037V58.4021H98.3932L96.0516 51.6499H95.6926L93.2413 58.4021H92.4209V58.6587H94.5963V58.4021H93.5491L94.1827 56.5857H96.41L97.015 58.4021H95.9586ZM94.2964 56.3291L95.3323 53.4663L96.291 56.3291H94.2964Z" fill="#414652"/>
<path fill-rule="evenodd" clip-rule="evenodd" d="M104.716 58.6382C104.953 58.7388 105.208 58.7877 105.465 58.7818C105.778 58.7774 106.089 58.7361 106.393 58.6588V58.4228C106.25 58.4411 106.106 58.4515 105.962 58.454C105.85 58.4622 105.737 58.4444 105.633 58.4022C105.506 58.3355 105.415 58.2148 105.387 58.0737L105.377 57.5711C105.372 57.2811 105.343 56.9919 105.29 56.7068C105.242 56.4496 105.157 56.2006 105.038 55.9675C104.812 55.5243 104.272 55.214 103.417 55.0367C104.142 54.9272 104.686 54.7322 105.048 54.4516C105.393 54.1983 105.592 53.7918 105.58 53.3639C105.58 52.8103 105.388 52.4134 105.005 52.1732C104.636 51.9272 104.072 51.8042 103.312 51.8042H99.7002V52.0608H100.716V58.4022H99.7002V58.6588H103.035V58.4022H102.019V55.1291H102.551C103.051 55.1287 103.41 55.3099 103.628 55.673C103.739 55.8733 103.812 56.0924 103.844 56.3192C103.884 56.5723 103.915 56.863 103.936 57.1915L103.967 57.6329C104.067 58.1187 104.317 58.4538 104.716 58.6382ZM103.023 52.0608C103.448 52.0604 103.749 52.1732 103.926 52.3992H103.923C104.087 52.6186 104.169 52.9779 104.169 53.477C104.171 53.9552 104.068 54.3074 103.861 54.5334C103.655 54.7595 103.33 54.8725 102.887 54.8725H102.015V52.0608H103.023Z" fill="#414652"/>
<path fill-rule="evenodd" clip-rule="evenodd" d="M106.879 58.4022V58.6588H110.214V58.4022H109.198V52.0608H110.214V51.8042H106.879V52.0608H107.895V58.4022H106.879ZM110.891 58.4022V58.6588H114.073V58.4022H113.611L110.337 54.4131L112.571 52.0608H113.577V51.8042H111.001V52.0608H112.17L109.308 55.1085L111.955 58.4022H110.891Z" fill="#414652"/>
<path d="M120.239 58.6588H114.411V58.4022H115.427V52.0608H114.411V51.8042H120.062L120.134 53.6511H119.847C119.697 52.9943 119.478 52.5668 119.19 52.3687C118.903 52.1634 118.475 52.0608 117.908 52.0608H116.727V55.0054H117.005C117.524 55.0054 117.866 54.8824 118.031 54.6365C118.204 54.3751 118.294 54.0671 118.287 53.7535H118.574V56.617H118.287C118.295 56.2854 118.21 55.9582 118.041 55.673C117.87 55.399 117.525 55.2621 117.005 55.2621H116.727V58.4022H118.102C118.767 58.4022 119.229 58.2415 119.488 57.9201C119.747 57.5988 119.928 57.1097 120.032 56.4528H120.329L120.239 58.6588Z" fill="#414652"/>
<path d="M126.376 54.0002C126.259 53.1997 126.047 52.6798 125.74 52.4404C125.425 52.1873 125.038 52.0608 124.58 52.0608H124.314V58.4021H125.391V58.6587H121.934V58.4021H123.012V52.0608H122.725C122.266 52.0608 121.88 52.1838 121.565 52.4298C121.257 52.6829 121.045 53.2063 120.929 54.0002H120.601L120.714 51.8062H126.594L126.706 54.0002H126.376Z" fill="#414652"/>
<path d="M130.809 58.1767C130.405 58.6009 129.889 58.813 129.26 58.813C128.99 58.8187 128.722 58.7735 128.469 58.68C128.222 58.5917 127.993 58.4597 127.792 58.2904L127.3 58.7212H127.125V56.6781H127.423C127.513 57.1661 127.729 57.6222 128.048 58.0018C128.363 58.3715 128.777 58.5563 129.29 58.5563C129.696 58.5684 130.09 58.4209 130.388 58.1454C130.679 57.8885 130.844 57.5177 130.84 57.1296C130.84 56.6987 130.672 56.3807 130.337 56.1755C129.918 55.9386 129.47 55.7597 129.003 55.6436C128.36 55.4725 127.894 55.223 127.607 54.895C127.319 54.5599 127.176 54.122 127.176 53.5813C127.176 53.0201 127.35 52.5583 127.699 52.1957C128.053 51.8369 128.539 51.6401 129.043 51.6519C129.314 51.6498 129.583 51.6913 129.841 51.7749C130.091 51.8586 130.325 51.9865 130.53 52.1525L130.92 51.7536H131.115V53.693H130.786C130.738 53.2164 130.541 52.7672 130.222 52.4098C129.914 52.078 129.478 51.8948 129.025 51.9072C128.69 51.9018 128.366 52.027 128.122 52.2562C127.88 52.4646 127.741 52.7681 127.742 53.0873C127.742 53.4778 127.872 53.7308 128.132 53.8465C128.398 53.9768 128.785 54.1069 129.292 54.2368C130.092 54.4425 130.643 54.7126 130.944 55.0473C131.252 55.3965 131.406 55.8856 131.405 56.5146C131.404 57.2056 131.206 57.7596 130.809 58.1767Z" fill="#414652"/>
<path fill-rule="evenodd" clip-rule="evenodd" d="M49.7831 67.178V67.4346H53.0256V67.178H52.2151L49.8788 60.4258H49.5198L47.0672 67.178H46.2461V67.4346H48.4215V67.178H47.3717L48.0079 65.3616H50.2345L50.8402 67.178H49.7831ZM48.121 65.105L49.1568 62.2421L50.1115 65.105H48.121Z" fill="#414652"/>
<path d="M57.89 66.9526C57.4862 67.3768 56.9698 67.5888 56.3409 67.5888C56.0714 67.5945 55.8032 67.5494 55.5504 67.4559C55.3031 67.3676 55.0736 67.2356 54.8729 67.0663L54.3809 67.4971H54.2061V65.454H54.5039C54.5943 65.942 54.8099 66.3981 55.1295 66.7777C55.4447 67.1474 55.8586 67.3322 56.3715 67.3322C56.777 67.3443 57.1712 67.1968 57.4691 66.9213C57.7601 66.6644 57.9251 66.2936 57.9212 65.9054C57.9212 65.4746 57.7535 65.1566 57.4179 64.9514C56.9994 64.7148 56.5508 64.5359 56.0843 64.4195C55.4407 64.2484 54.9753 63.9989 54.6881 63.6709C54.4004 63.3358 54.2566 62.8979 54.2566 62.3571C54.2566 61.796 54.4312 61.3342 54.7805 60.9716C55.1341 60.6127 55.6204 60.4158 56.1241 60.4278C56.395 60.4257 56.6644 60.4672 56.922 60.5508C57.1722 60.6354 57.4052 60.7642 57.6101 60.931L57.9997 60.5321H58.1951V62.4715H57.8667C57.8188 61.9949 57.6212 61.5457 57.3023 61.1883C56.9942 60.8565 56.5582 60.6734 56.1055 60.6857C55.7705 60.6803 55.4464 60.8055 55.202 61.0348C54.9603 61.2431 54.8216 61.5467 54.8224 61.8658C54.8224 62.2563 54.9525 62.5094 55.2126 62.6251C55.5857 62.7922 55.974 62.9229 56.3721 63.0153C57.1726 63.221 57.7233 63.4912 58.0243 63.8258C58.3319 64.1751 58.4857 64.6642 58.4857 65.2931C58.4852 65.9823 58.2867 66.5355 57.89 66.9526Z" fill="#414652"/>
<path d="M63.308 66.9526C62.9042 67.3768 62.3876 67.5889 61.7582 67.5889C61.4889 67.5946 61.2209 67.5495 60.9683 67.4559C60.721 67.3678 60.4915 67.2358 60.2909 67.0663L59.7982 67.4971H59.624V65.454H59.9232C60.0139 65.942 60.2297 66.3982 60.5495 66.7777C60.8637 67.1474 61.2775 67.3322 61.7908 67.3322C62.1965 67.3443 62.5909 67.1968 62.8891 66.9213C63.1799 66.6643 63.3446 66.2936 63.3405 65.9055C63.3405 65.4746 63.173 65.1566 62.8379 64.9514C62.4192 64.7147 61.9703 64.5358 61.5036 64.4195C60.8604 64.2484 60.395 63.9989 60.1074 63.6709C59.8202 63.3358 59.6765 62.8979 59.6765 62.3572C59.6765 61.796 59.851 61.3342 60.1998 60.9716C60.5536 60.6126 61.0401 60.4157 61.5441 60.4278C61.8149 60.4257 62.0843 60.4673 62.3419 60.5508C62.5919 60.6355 62.8248 60.7643 63.0294 60.9311L63.4196 60.5321H63.6144V62.4715H63.286C63.2375 61.9951 63.04 61.5461 62.7216 61.1884C62.4125 60.8555 61.9748 60.6723 61.5208 60.6857C61.1859 60.6802 60.8621 60.8054 60.618 61.0348C60.3759 61.2429 60.2372 61.5466 60.2383 61.8658C60.2383 62.2563 60.3682 62.5094 60.6279 62.6251C61.0011 62.792 61.3893 62.9227 61.7874 63.0154C62.5879 63.221 63.1386 63.4912 63.4396 63.8258C63.7499 64.1751 63.9039 64.6642 63.9017 65.2931C63.9025 65.9824 63.7046 66.5355 63.308 66.9526Z" fill="#414652"/>
<path fill-rule="evenodd" clip-rule="evenodd" d="M68.1513 67.5908C68.9926 67.5908 69.7383 67.2316 70.3886 66.5131C71.0216 65.8345 71.3674 64.9372 71.3533 64.0093C71.3661 63.0784 71.0207 62.1782 70.3886 61.4948C69.7392 60.7834 68.9935 60.4277 68.1513 60.4277C67.303 60.4273 66.5573 60.7865 65.9141 61.5055C64.6379 62.9361 64.6424 65.0979 65.9248 66.5231C66.5608 67.2349 67.303 67.5908 68.1513 67.5908ZM69.4338 61.2202C69.7078 61.5899 69.8447 62.1131 69.8447 62.7899V65.2326C69.8363 65.9245 69.696 66.4477 69.4239 66.8023C69.1517 67.1569 68.7275 67.3342 68.1513 67.3342C67.5765 67.3355 67.1523 67.1582 66.8788 66.8023C66.6053 66.4464 66.4686 65.9232 66.4686 65.2326V62.7899C66.4699 62.0981 66.6067 61.5748 66.8788 61.2202C67.151 60.8656 67.5751 60.6884 68.1513 60.6884C68.7191 60.6884 69.1466 60.8656 69.4338 61.2202Z" fill="#414652"/>
<path d="M77.7867 67.4965L77.3659 67.0139C77.1299 67.2072 76.8591 67.3537 76.5681 67.4453C76.2625 67.5407 75.9441 67.5891 75.624 67.589C74.7818 67.589 74.043 67.233 73.4074 66.5212C72.7766 65.8495 72.4308 64.9594 72.4427 64.038C72.4427 63.0531 72.7607 62.2048 73.3967 61.493C74.047 60.7838 74.82 60.4281 75.7157 60.4259C76.2854 60.4135 76.8412 60.6017 77.2861 60.9577L77.685 60.5269H77.921V62.5075H77.6232C77.48 61.7904 77.2198 61.3083 76.8426 61.0615C76.5002 60.8195 76.0924 60.6871 75.6732 60.6818C75.0846 60.6818 74.6535 60.8871 74.38 61.2975C74.0928 61.7217 73.9492 62.3134 73.9492 63.0726V64.9409C73.9492 65.7205 74.0962 66.3122 74.39 66.716C74.6843 67.1264 75.1324 67.3317 75.7343 67.3317C76.1508 67.3276 76.5544 67.1875 76.8839 66.9327C77.2385 66.6668 77.5155 66.1571 77.7149 65.4036H78.0128V67.4972L77.7867 67.4965Z" fill="#414652"/>
<path d="M78.8539 67.4347V67.178H79.8684V60.8367H78.8525V60.5801H82.1981V60.8367H81.1822V67.178H82.1981V67.4347H78.8539Z" fill="#414652"/>
<path fill-rule="evenodd" clip-rule="evenodd" d="M86.5403 67.178V67.4346H89.7828V67.178H88.9723L86.6327 60.4258H86.2737L83.8211 67.178H83V67.4346H85.1754V67.178H84.1289L84.7652 65.3616H86.9918L87.5974 67.178H86.5403ZM84.8775 65.105L85.914 62.2421L86.8721 65.105H84.8775Z" fill="#414652"/>
<path d="M95.1502 62.776C95.0341 61.9756 94.822 61.4556 94.5139 61.2163C94.1988 60.9632 93.8123 60.8367 93.3544 60.8367H93.0885V67.178H94.1629V67.4346H90.7057V67.178H91.7834V60.8367H91.4962C91.0374 60.8367 90.6509 60.9597 90.3367 61.2057C90.0286 61.4587 89.8165 61.9822 89.7004 62.776H89.376L89.489 60.582H95.3689L95.4819 62.776H95.1502Z" fill="#414652"/>
<path d="M96.248 67.4347V67.178H97.2639V60.8367H96.248V60.5801H99.5936V60.8367H98.5777V67.178H99.5936V67.4347H96.248Z" fill="#414652"/>
<path fill-rule="evenodd" clip-rule="evenodd" d="M103.02 67.5908C103.862 67.5908 104.607 67.2316 105.258 66.5131C105.891 65.8345 106.237 64.9372 106.222 64.0093C106.235 63.0784 105.89 62.1782 105.258 61.4948C104.608 60.7834 103.863 60.4277 103.02 60.4277C102.172 60.4273 101.426 60.7865 100.783 61.5055C99.507 62.9361 99.5116 65.0979 100.794 66.5231C101.43 67.2349 102.172 67.5908 103.02 67.5908ZM104.303 61.2202C104.577 61.5899 104.714 62.1131 104.714 62.7899V65.2326C104.714 65.9169 104.574 66.4402 104.293 66.8023C104.021 67.1569 103.597 67.3342 103.02 67.3342C102.446 67.3355 102.021 67.1582 101.748 66.8023C101.474 66.4464 101.338 65.9232 101.338 65.2326V62.7899C101.337 62.0981 101.474 61.5748 101.748 61.2202C102.029 60.8656 102.453 60.6884 103.02 60.6884C103.588 60.6884 104.016 60.8656 104.303 61.2202Z" fill="#414652"/>
<path d="M112.431 60.8367V67.5683H112.123L107.772 61.0315V67.178H108.778V67.4347H106.438V67.178H107.444V60.8367H106.438V60.5801H109.065L112.103 65.0645V60.8367H111.117V60.5801H113.444V60.8367H112.431Z" fill="#414652"/>
<path d="M63.9025 73.8265L62.6147 77.4831H62.4498L61.1268 73.8265H60.666V73.6875H62.4259V73.8265H61.8514L62.7949 76.424L63.7356 73.8265H63.1585V73.6875H64.3632V73.8265H63.9025Z" fill="#414652"/>
<path fill-rule="evenodd" clip-rule="evenodd" d="M67.1391 77.2586V77.3969H68.8936V77.2586H68.4548L67.1916 73.606H66.9974L65.6678 77.2586H65.2236V77.3969H66.4004V77.2586H65.8346L66.1784 76.276H67.3831L67.7108 77.2586H67.1391ZM66.2395 76.137L66.8007 74.5879L67.3166 76.137H66.2395Z" fill="#414652"/>
<path d="M74.3661 73.8265V77.4678H74.1999L71.8463 73.9315V77.2557H72.3902V77.394H71.127V77.2557H71.6708V73.8265H71.127V73.6875H72.5484L74.1912 76.1135V73.8265H73.6594V73.6875H74.9226V73.8265H74.3661Z" fill="#414652"/>
<path d="M80.5061 73.8265V76.1867C80.5061 76.6454 80.3988 76.9747 80.1843 77.1746C79.9698 77.3745 79.6218 77.4765 79.1405 77.4805C78.656 77.4805 78.3063 77.3767 78.0913 77.1693C77.8764 76.9619 77.7691 76.6084 77.7696 76.1089V73.8265H77.2197V73.6875H79.0241V73.8265H78.4723V76.3575C78.4723 76.6833 78.5445 76.9202 78.689 77.0683C78.8335 77.2238 79.0594 77.3014 79.3665 77.301C79.6812 77.301 79.9199 77.2141 80.0826 77.0403C80.2452 76.8666 80.3283 76.6131 80.3319 76.2797V73.8265H79.7827V73.6875H81.0539V73.8265H80.5061Z" fill="#414652"/>
<path fill-rule="evenodd" clip-rule="evenodd" d="M84.5095 77.2586V77.3969H86.262V77.2586H85.8232L84.56 73.606H84.3652L83.0388 77.2586H82.5947V77.3969H83.7708V77.2586H83.2044L83.5488 76.276H84.7535L85.0813 77.2586H84.5095ZM83.61 76.137L84.1704 74.5879L84.687 76.137H83.61Z" fill="#414652"/>
<path d="M91.0379 74.8769C90.9749 74.4434 90.8601 74.162 90.6935 74.0326C90.5148 73.8933 90.293 73.8209 90.0665 73.8278H89.9223V77.2584H90.506V77.3967H88.6351V77.2584H89.2182V73.8265H89.0626C88.837 73.8192 88.6157 73.8897 88.4357 74.0259C88.269 74.1629 88.1542 74.4461 88.0913 74.8756H87.9131L87.9743 73.6875H91.1549L91.2161 74.8756L91.0379 74.8769Z" fill="#414652"/>
<path d="M96.8947 73.8265V76.1867C96.8947 76.6454 96.7875 76.9747 96.573 77.1746C96.3584 77.3745 96.0105 77.4765 95.5291 77.4805C95.0447 77.4805 94.695 77.3767 94.48 77.1693C94.265 76.9619 94.1576 76.6084 94.1576 76.1089V73.8265H93.6084V73.6875H95.4128V73.8265H94.863V76.3575C94.863 76.6833 94.9352 76.9202 95.0797 77.0683C95.2238 77.2238 95.4494 77.3014 95.7565 77.301C96.0712 77.301 96.3099 77.2141 96.4726 77.0403C96.6352 76.8666 96.7186 76.6131 96.7226 76.2797V73.8265H96.1727V73.6875H97.4446V73.8265H96.8947Z" fill="#414652"/>
<rect x="46.6201" y="70.3652" width="66.2681" height="0.139225" fill="#414652"/>
<circle cx="80.3941" cy="24.8159" r="16.4839" fill="#414652"/>
<path d="M63.2774 35.1459L62.3555 33.446L62.4303 33.4052L62.5906 33.7009L64.4373 32.698L64.2752 32.4051L64.3494 32.3643L65.2453 34.0126L64.7189 34.3254L64.6719 34.2392C64.8392 34.0915 64.9291 33.9593 64.9416 33.8426C64.954 33.7259 64.9163 33.5852 64.8283 33.4205L64.6418 33.0771L63.7839 33.5429L63.8281 33.6233C63.9103 33.7746 63.9981 33.8551 64.0979 33.8636C64.2013 33.8732 64.3052 33.8507 64.3953 33.799L64.4407 33.8828L63.6072 34.3361L63.5618 34.2528C63.6597 34.2029 63.7414 34.1263 63.7975 34.0319C63.8501 33.9389 63.8353 33.8167 63.7534 33.6652L63.7097 33.5848L62.7952 34.0812L63.0128 34.4812C63.1178 34.6746 63.2375 34.7836 63.372 34.8081C63.5065 34.8327 63.6776 34.8081 63.8854 34.7345L63.9324 34.8212L63.2774 35.1459Z" fill="#414652"/>
<path d="M65.9656 36.2508C66.1367 36.0661 66.2276 35.9112 66.2382 35.7862C66.2461 35.6655 66.1945 35.5284 66.0835 35.3737L65.8483 35.0484L65.055 35.619L65.1089 35.6938C65.2108 35.8351 65.3108 35.904 65.4086 35.9006C65.5123 35.8964 65.6123 35.8608 65.6953 35.7986L65.752 35.8757L64.9825 36.4304L64.9258 36.3534C65.0165 36.2913 65.0878 36.2049 65.1315 36.104C65.1716 36.0051 65.1408 35.8848 65.0392 35.7431L64.9853 35.6689L64.1444 36.2791L64.3411 36.5523L64.2725 36.6016L63.626 35.7057L63.6951 35.6558L63.8917 35.929L65.5962 34.6999L65.399 34.4268L65.4681 34.377L66.5696 35.9069L66.0211 36.3318L65.9656 36.2508Z" fill="#414652"/>
<path d="M67.3642 37.8198C67.513 37.6166 67.5857 37.4523 67.5823 37.3269C67.5767 37.2062 67.5098 37.0759 67.3818 36.9348L67.1115 36.6384L66.3902 37.2951L66.4519 37.3631C66.569 37.4916 66.6761 37.5482 66.7732 37.5331C66.876 37.5177 66.9715 37.471 67.0469 37.3994L67.1109 37.4697L66.4094 38.1094L66.3454 38.0391C66.4286 37.9673 66.4897 37.8734 66.5216 37.7683C66.5507 37.6652 66.5065 37.5492 66.389 37.4204L66.3273 37.3524L65.5578 38.0527L65.7844 38.3015L65.7215 38.3581L64.9775 37.5416L65.0404 37.485L65.2671 37.7337L66.8208 36.3171L66.5941 36.0684L66.657 36.0117L67.9252 37.4045L67.4282 37.889L67.3642 37.8198Z" fill="#414652"/>
<path d="M66.6201 39.2824L66.6768 39.2195L66.9267 39.4462L68.3342 37.8862L68.0843 37.6596L68.141 37.5967L68.9643 38.339L68.9076 38.4019L68.6577 38.1752L67.2502 39.7357L67.5001 39.9624L67.4434 40.0253L66.6201 39.2824Z" fill="#414652"/>
<path d="M69.0999 41.3295L69.084 41.1182C68.9827 41.1224 68.8816 41.1072 68.786 41.0734C68.6857 41.0385 68.5915 40.9882 68.5066 40.9244C68.2834 40.7578 68.158 40.517 68.1304 40.2019C68.0964 39.8987 68.1811 39.5942 68.3667 39.352C68.5481 39.0992 68.8193 38.9252 69.1248 38.8658C69.4132 38.8003 69.7157 38.865 69.9521 39.0426C70.0349 39.1022 70.1058 39.1767 70.1612 39.2624C70.2073 39.3341 70.2415 39.4128 70.2626 39.4953L70.4547 39.4608L70.517 39.5072L70.1244 40.0331L70.0456 39.9764C70.1499 39.7569 70.1765 39.5773 70.1255 39.4375C70.0826 39.3054 70.0006 39.1894 69.8903 39.1049C69.734 38.9882 69.5789 38.957 69.4251 39.0114C69.2648 39.0681 69.109 39.1956 68.9582 39.3973L68.5882 39.8931C68.4333 40.0997 68.355 40.286 68.3531 40.4518C68.3512 40.6176 68.4294 40.761 68.5877 40.8819C68.6991 40.9631 68.834 41.0057 68.9718 41.0031C69.1192 41.0031 69.2939 40.9229 69.496 40.7623L69.5747 40.819L69.1594 41.3749L69.0999 41.3295Z" fill="#414652"/>
<path d="M69.5449 41.5914L69.5891 41.5189L69.8764 41.694L70.9694 39.9L70.6816 39.7244L70.7258 39.6519L71.6726 40.2287L71.6284 40.3012L71.3411 40.1261L70.2481 41.9207L70.5354 42.0957L70.4912 42.1683L69.5449 41.5914Z" fill="#414652"/>
<path d="M72.7137 43.2741L70.9668 42.4513L71.0031 42.3743L71.3073 42.5176L72.2026 40.6171L71.8983 40.4721L71.9346 40.395L73.6288 41.1928L73.3897 41.7595L73.3036 41.7192C73.3512 41.5009 73.3459 41.3419 73.2877 41.2421C73.2311 41.1401 73.1177 41.0489 72.9477 40.9685L72.5936 40.8019L72.1783 41.6847L72.261 41.7238C72.417 41.7974 72.5369 41.809 72.6208 41.7583C72.7093 41.7048 72.7797 41.6258 72.8225 41.5317L72.9086 41.5719L72.5046 42.4304L72.4185 42.3896C72.4676 42.2912 72.4882 42.1811 72.478 42.0717C72.4648 41.9659 72.3804 41.8762 72.2247 41.8025L72.142 41.7634L71.6983 42.7018L72.1103 42.8961C72.309 42.9894 72.4701 43.0064 72.5936 42.9471C72.7171 42.8878 72.8405 42.7668 72.9636 42.5839L73.0531 42.6259L72.7137 43.2741Z" fill="#414652"/>
<path d="M75.8634 42.0315L75.1982 44.1603L75.1013 44.1303L74.3703 41.6331L73.7635 43.5773L74.0819 43.6764L74.0564 43.7574L73.3164 43.5268L73.3419 43.4458L73.6598 43.545L74.2859 41.5391L73.968 41.4399L73.9935 41.3589L74.8242 41.6184L75.3421 43.3364L75.7592 41.9992L75.4481 41.9017L75.473 41.8207L76.2096 42.0507L76.1847 42.1318L75.8634 42.0315Z" fill="#414652"/>
<path d="M77.5346 44.6142L77.427 44.4318C77.3381 44.4804 77.2408 44.5117 77.1403 44.5241C77.035 44.5366 76.9284 44.5332 76.8241 44.5139C76.5498 44.4629 76.3305 44.3024 76.1662 44.0323C76.0017 43.7751 75.9428 43.4643 76.0019 43.1648C76.0529 42.8579 76.2191 42.5821 76.4665 42.3936C76.6961 42.2073 76.9959 42.1313 77.2865 42.1856C77.3865 42.2029 77.4826 42.2384 77.5698 42.2905C77.6428 42.3347 77.7084 42.3901 77.7641 42.4548L77.9205 42.3414L77.9976 42.3556L77.8774 43.0004L77.7806 42.9829C77.7772 42.74 77.7216 42.5672 77.614 42.4644C77.5172 42.3647 77.3922 42.2969 77.2559 42.2701C77.0643 42.2342 76.9115 42.275 76.7974 42.3924C76.6834 42.5099 76.6008 42.6941 76.5498 42.9449L76.4365 43.5529C76.3893 43.8071 76.4016 44.0089 76.4733 44.1581C76.5451 44.3073 76.6786 44.4017 76.8739 44.4414C77.0092 44.4646 77.1484 44.4434 77.2706 44.3808C77.4028 44.315 77.5239 44.1656 77.6338 43.9326L77.7307 43.9507L77.6043 44.6306L77.5346 44.6142Z" fill="#414652"/>
<path d="M80.0952 42.6134L79.4356 43.6543L79.3699 44.6742L79.7467 44.6986L79.7411 44.7836L78.5738 44.7082L78.5795 44.6232L78.9393 44.6464L78.9999 43.7019L78.3619 42.5017L78.1143 42.4859L78.1194 42.4009L79.222 42.4723L79.2169 42.5567L78.8707 42.5346L79.3846 43.5455L79.9938 42.6071L79.6408 42.5839L79.6464 42.4995L80.3791 42.5465L80.3734 42.6315L80.0952 42.6134Z" fill="#414652"/>
<path d="M87.2802 41.8928C87.1522 41.6756 87.0296 41.5434 86.9125 41.4962C86.7954 41.449 86.649 41.4594 86.4734 41.5274L86.0954 41.6622L86.4173 42.5836L86.504 42.5535C86.669 42.4957 86.7635 42.4202 86.7873 42.3269C86.8129 42.2262 86.8072 42.12 86.7708 42.0226L86.8609 41.9914L87.1737 42.8867L87.0836 42.9185C87.05 42.8138 86.9876 42.7207 86.9034 42.6499C86.82 42.583 86.6959 42.5783 86.5312 42.6357L86.4445 42.6657L86.7884 43.6454L87.1063 43.5321L87.1341 43.6126L86.0903 43.9798L86.0626 43.8993L86.3799 43.786L85.6874 41.8028L85.3696 41.9161L85.3418 41.8362L87.1199 41.2129L87.3709 41.8594L87.2802 41.8928Z" fill="#414652"/>
<path fill-rule="evenodd" clip-rule="evenodd" d="M88.6804 42.8933L88.7161 42.9709L89.693 42.5227L89.6578 42.4456L89.4136 42.5589L87.7812 40.8438L87.6729 40.893L87.8599 43.2661L87.6123 43.3794L87.648 43.4565L88.3036 43.1579L88.2685 43.0808L87.9529 43.2242L87.8962 42.5895L88.5676 42.2836L88.9994 42.7482L88.6804 42.8933ZM87.8951 42.4978L87.8146 41.492L88.4951 42.2241L87.8951 42.4978Z" fill="#414652"/>
<path d="M90.0706 42.2949L90.0269 42.2218L90.3165 42.0518L89.2472 40.2437L88.9571 40.4137L88.9141 40.3406L89.8683 39.7739L89.9113 39.847L89.6218 40.017L90.691 41.8251L90.9811 41.6551L91.0242 41.7282L90.0706 42.2949Z" fill="#414652"/>
<path fill-rule="evenodd" clip-rule="evenodd" d="M92.857 40.4211C92.9397 40.3999 93.017 40.3612 93.0836 40.3077C93.165 40.245 93.2388 40.1729 93.3035 40.093L93.2564 40.0306C93.2221 40.064 93.186 40.0954 93.1482 40.1247C93.1204 40.1493 93.0872 40.1672 93.0513 40.1768C93.0042 40.1843 92.9562 40.1704 92.9204 40.1389L92.8179 40.008C92.7586 39.9327 92.6934 39.8622 92.6229 39.7972C92.5588 39.7388 92.4867 39.69 92.4087 39.6521C92.2603 39.5792 92.0552 39.6045 91.7934 39.7281C91.9634 39.5543 92.0686 39.3943 92.109 39.2481C92.1505 39.1115 92.1221 38.9632 92.0331 38.8515C91.9226 38.7047 91.7928 38.6384 91.6438 38.6509C91.4972 38.66 91.3233 38.74 91.1219 38.8911L90.166 39.6113L90.2176 39.6788L90.4839 39.4765L91.7486 41.1543L91.4795 41.3571L91.5305 41.4251L92.4172 40.7599L92.3662 40.6919L92.0971 40.8948L91.4449 40.0278L91.586 39.9213C91.7186 39.8221 91.8495 39.7983 91.9798 39.8505C92.049 39.8816 92.1119 39.925 92.1657 39.9785C92.2272 40.0374 92.2933 40.1083 92.364 40.191L92.4603 40.3043C92.5649 40.4067 92.7136 40.4504 92.857 40.4211ZM91.097 39.0164C91.2092 38.9314 91.3117 38.9013 91.4035 38.9257C91.4912 38.951 91.5845 39.0305 91.6835 39.1643C91.7787 39.2904 91.8217 39.4038 91.8126 39.5042C91.8036 39.6047 91.7401 39.6992 91.6223 39.7876L91.3916 39.9621L90.8312 39.2164L91.097 39.0164Z" fill="#414652"/>
<path d="M93.5388 36.7962L95.1412 38.3477L95.0698 38.4207L92.5115 37.9504L93.9745 39.367L94.2063 39.1273L94.2674 39.1868L93.728 39.7433L93.6674 39.6866L93.8991 39.4475L92.3896 37.9856L92.1573 38.2253L92.0967 38.1686L92.7018 37.5453L94.4692 37.8558L93.4628 36.8812L93.2362 37.1158L93.175 37.0591L93.7116 36.5044L93.7728 36.5611L93.5388 36.7962Z" fill="#414652"/>
<path d="M96.8652 36.143L95.6974 37.6809L95.6294 37.6293L95.8334 37.3613L94.1601 36.0909L93.9561 36.3589L93.8887 36.3074L95.0219 34.8154L95.524 35.1667L95.4673 35.2427C95.2641 35.1505 95.1075 35.1225 94.9976 35.1588C94.8876 35.1951 94.7743 35.2872 94.6576 35.4353L94.4213 35.747L95.1982 36.3357L95.2548 36.2626C95.3591 36.1255 95.3948 36.0105 95.363 35.9181C95.3287 35.8201 95.2655 35.7347 95.1817 35.6733L95.2384 35.5974L95.9937 36.1714L95.937 36.2473C95.8512 36.1784 95.7477 36.1352 95.6384 36.1227C95.5319 36.1132 95.4265 36.177 95.3223 36.3142L95.2656 36.3873L96.0946 37.0157L96.37 36.653C96.5025 36.4777 96.5526 36.3236 96.5201 36.1906C96.4876 36.0577 96.3949 35.9119 96.2419 35.7532L96.3014 35.675L96.8652 36.143Z" fill="#414652"/>
<path d="M97.6656 34.5329C97.7174 34.7194 97.6873 34.9191 97.5828 35.082C97.5393 35.1593 97.4817 35.2277 97.4128 35.2837C97.3455 35.3391 97.2687 35.3819 97.1862 35.4101L97.2253 35.6237L97.1952 35.673L96.6145 35.3256L96.6654 35.2412C96.8196 35.2985 96.9859 35.3147 97.1482 35.2882C97.445 35.2304 97.6404 34.945 97.5868 34.6474C97.5632 34.5211 97.4858 34.4113 97.3749 34.3465C97.2689 34.2737 97.1311 34.2663 97.0179 34.3272C96.8792 34.4057 96.7518 34.5027 96.6394 34.6156C96.4815 34.7694 96.3313 34.8593 96.1889 34.8854C96.0328 34.9073 95.874 34.8714 95.7424 34.7845C95.5933 34.7023 95.4835 34.5637 95.4376 34.3998C95.3953 34.2383 95.422 34.0665 95.5112 33.9255C95.5563 33.8478 95.6137 33.7779 95.6812 33.7187C95.7482 33.6616 95.825 33.6172 95.9079 33.5878L95.8603 33.4087L95.8937 33.3521L96.445 33.6818L96.3884 33.7753C96.2446 33.7084 96.0834 33.6886 95.9277 33.7187C95.7806 33.7501 95.6542 33.8434 95.5809 33.9748C95.5215 34.0687 95.5012 34.1822 95.5243 34.291C95.5419 34.3949 95.6039 34.4859 95.6942 34.5403C95.8076 34.6066 95.8994 34.6122 95.9776 34.5584C96.0896 34.481 96.1942 34.3931 96.2898 34.2961C96.4839 34.1034 96.6539 33.9927 96.7997 33.964C96.9456 33.9353 97.1108 33.9748 97.2955 34.0824C97.4734 34.178 97.6063 34.3399 97.6656 34.5329Z" fill="#414652"/>
<path d="M98.5351 32.7938C98.6051 32.9743 98.5948 33.1761 98.5068 33.3486C98.4704 33.4299 98.4191 33.5037 98.3555 33.5662C98.2941 33.628 98.2222 33.6783 98.143 33.7146L98.1997 33.9226L98.1753 33.9753L97.5633 33.6868L97.6053 33.5979C97.7642 33.6398 97.9313 33.6398 98.0903 33.5979C98.3791 33.5107 98.5451 33.2084 98.4637 32.9179C98.4274 32.7947 98.3396 32.6933 98.2229 32.6397C98.1101 32.578 97.9723 32.5841 97.8653 32.6556C97.7352 32.7475 97.6181 32.8567 97.5174 32.9803C97.3754 33.1487 97.2349 33.2528 97.0959 33.2925C96.9429 33.3298 96.7816 33.3096 96.6426 33.2358C96.4866 33.1686 96.3641 33.0416 96.3026 32.8834C96.2452 32.7267 96.255 32.5532 96.3298 32.404C96.3672 32.3221 96.4177 32.2469 96.4794 32.1813C96.5398 32.1182 96.6113 32.0665 96.6902 32.0289L96.6256 31.8555L96.6528 31.7988L97.2341 32.0725L97.1877 32.1705C97.038 32.118 96.8756 32.114 96.7236 32.1592C96.5803 32.2048 96.4637 32.3099 96.4034 32.4476C96.3546 32.5473 96.3464 32.6622 96.3808 32.7678C96.409 32.8697 96.4804 32.9542 96.5763 32.999C96.693 33.0541 96.7874 33.0509 96.8596 32.9893C96.963 32.901 97.0579 32.8031 97.1429 32.6969C97.3174 32.4854 97.4761 32.3583 97.6189 32.3156C97.7668 32.2731 97.9356 32.2958 98.1237 32.3847C98.3091 32.462 98.4568 32.6089 98.5351 32.7938Z" fill="#414652"/>
<path fill-rule="evenodd" clip-rule="evenodd" d="M62.9859 25.9561L63.0709 25.9504L63 24.8789L62.915 24.8846L62.9337 25.1526L60.7539 26.0773L60.7624 26.1963L63.0471 26.8565L63.0652 27.1279L63.1502 27.1222L63.1015 26.4026L63.0165 26.4088L63.0397 26.7545L62.4255 26.5845L62.375 25.8478L62.9621 25.607L62.9859 25.9561ZM62.3382 26.5522L61.3681 26.274L62.2923 25.8943L62.3382 26.5522Z" fill="#414652"/>
<path d="M63.1217 23.0765L62.9546 23.2069C63.0145 23.2887 63.0581 23.3812 63.0832 23.4794C63.1097 23.5822 63.1202 23.6885 63.1144 23.7945C63.0996 24.0729 62.9689 24.311 62.7223 24.509C62.4889 24.7059 62.1883 24.8047 61.8836 24.7844C61.5727 24.7739 61.2776 24.6449 61.0586 24.424C60.8456 24.2217 60.7315 23.9365 60.7464 23.6432C60.7495 23.5412 60.772 23.4408 60.8127 23.3474C60.8471 23.2692 60.8935 23.1969 60.9504 23.1332L60.815 22.9932L60.8189 22.915L61.474 22.9502L61.4689 23.0482C61.2286 23.0833 61.0645 23.161 60.9765 23.2811C60.8904 23.3901 60.8394 23.5227 60.8303 23.6613C60.8201 23.8562 60.8801 24.0013 61.0116 24.0999C61.1431 24.1985 61.3397 24.2602 61.5913 24.2738L62.2089 24.3061C62.4673 24.3205 62.6656 24.2827 62.8039 24.1928C62.9421 24.1029 63.0177 23.9582 63.0305 23.7588C63.036 23.6208 62.9962 23.4849 62.9172 23.3717C62.8356 23.2494 62.672 23.1487 62.4265 23.0697L62.4316 22.9711L63.124 23.008L63.1217 23.0765Z" fill="#414652"/>
<path d="M63.4548 21.0137L63.2735 21.123C63.3231 21.2115 63.3554 21.3086 63.3687 21.4092C63.3824 21.5143 63.3799 21.621 63.3613 21.7254C63.3137 22.0004 63.1556 22.2212 62.8871 22.3878C62.6318 22.5555 62.3214 22.6176 62.0212 22.5611C61.7138 22.5132 61.4362 22.3499 61.2449 22.1044C61.0565 21.8767 60.9776 21.5778 61.0291 21.2868C61.045 21.1859 61.0796 21.0889 61.1311 21.0006C61.1744 20.9271 61.2291 20.861 61.2931 20.8046L61.1753 20.6493L61.1889 20.5723L61.8348 20.6856L61.8178 20.7825C61.5753 20.7889 61.403 20.8456 61.301 20.9525C61.2026 21.0503 61.1362 21.1758 61.1107 21.3123C61.0774 21.5046 61.1197 21.657 61.2376 21.7696C61.3554 21.8821 61.5404 21.9628 61.7923 22.0115L62.402 22.118C62.6566 22.1622 62.8582 22.1481 63.0066 22.0755C63.1551 22.003 63.2476 21.8683 63.2843 21.6715C63.3063 21.5358 63.2835 21.3965 63.2191 21.2749C63.1522 21.1434 63.0011 21.0239 62.7658 20.9162L62.7828 20.8193L63.4661 20.9389L63.4548 21.0137Z" fill="#414652"/>
<path fill-rule="evenodd" clip-rule="evenodd" d="M63.8552 19.6971C63.9372 19.4308 63.8964 19.1596 63.7328 18.8834C63.5795 18.6191 63.3303 18.424 63.037 18.3383C62.7439 18.2426 62.4254 18.2629 62.1468 18.395C61.8586 18.5291 61.6731 18.7304 61.5904 18.999C61.5077 19.2676 61.5485 19.5388 61.7128 19.8127C62.0409 20.3548 62.7235 20.5644 63.2993 20.3C63.588 20.1644 63.7732 19.9634 63.8552 19.6971ZM61.9632 18.6681C62.1038 18.6177 62.2862 18.6251 62.5004 18.6913L63.2733 18.9299C63.4903 18.9968 63.6439 19.0965 63.7294 19.2166C63.815 19.3367 63.8303 19.488 63.7736 19.6699C63.7177 19.8516 63.6201 19.9685 63.4807 20.0207C63.3413 20.0728 63.1622 20.0651 62.9435 19.9974L62.17 19.7583C61.9513 19.6909 61.7989 19.5946 61.7133 19.475C61.6278 19.3554 61.613 19.2013 61.6686 19.0217C61.7241 18.8421 61.8227 18.7185 61.9632 18.6681Z" fill="#414652"/>
<path d="M62.9973 15.8562L64.309 16.4619C64.564 16.5798 64.7194 16.7241 64.7754 16.8948C64.8313 17.0656 64.7986 17.285 64.6773 17.5532C64.5527 17.823 64.4052 17.9909 64.2348 18.057C64.0644 18.1231 63.8404 18.0919 63.5628 17.9635L62.2924 17.3776L62.1513 17.683L62.0742 17.6473L62.5377 16.6444L62.6148 16.6801L62.4737 16.9855L63.8829 17.6371C64.0637 17.7204 64.2138 17.7414 64.3334 17.6989C64.4529 17.6564 64.56 17.5532 64.6371 17.3827C64.7142 17.2121 64.7306 17.0523 64.6756 16.9175C64.6207 16.7826 64.5005 16.6676 64.317 16.5832L62.9531 15.9525L62.812 16.2585L62.7349 16.2228L63.0613 15.5156L63.1384 15.5513L62.9973 15.8562Z" fill="#414652"/>
<path d="M64.5195 13.3773L66.3809 14.6058L66.3242 14.6908L63.7228 14.701L65.4227 15.8229L65.6057 15.5447L65.6771 15.5912L65.2499 16.2382L65.1819 16.1918L65.3655 15.9136L63.6117 14.7565L63.4253 15.0347L63.3545 14.9877L63.8339 14.2613L65.6278 14.2397L64.4589 13.468L64.2792 13.7405L64.2084 13.6935L64.6334 13.0498L64.7042 13.0963L64.5195 13.3773Z" fill="#414652"/>
<path d="M66.7683 11.682C66.5416 11.5358 66.3658 11.475 66.2408 11.4995C66.1043 11.5254 65.9813 11.5981 65.8928 11.7052L65.8362 11.7715L67.4137 13.1603L67.6494 12.8923L67.7129 12.949L66.9575 13.8102L66.8935 13.7536L67.1287 13.4856L65.5495 12.0996L65.4866 12.1715C65.3922 12.2726 65.3354 12.403 65.3256 12.541C65.3211 12.6724 65.405 12.8402 65.5772 13.0425L65.5058 13.1241L64.9834 12.6141L66.2685 11.1499L66.8397 11.6032L66.7683 11.682Z" fill="#414652"/>
<path fill-rule="evenodd" clip-rule="evenodd" d="M68.7266 11.8463L68.7833 11.9092L69.5789 11.1879L69.5222 11.1244L69.3233 11.3052L67.2466 10.168L67.1582 10.2479L68.0597 12.4515L67.858 12.634L67.9147 12.6968L68.4484 12.2129L68.3918 12.15L68.1345 12.3829L67.8869 11.7953L68.4331 11.2995L68.9862 11.6112L68.7266 11.8463ZM67.8569 11.7092L67.4744 10.776L68.3453 11.2667L67.8569 11.7092Z" fill="#414652"/>
<path fill-rule="evenodd" clip-rule="evenodd" d="M71.1582 9.90911C71.097 10.0768 70.9588 10.2342 70.7435 10.3811L69.7485 11.0611L69.7003 10.9908L69.9791 10.8016L68.7965 9.06426L68.5183 9.25069L68.4707 9.18042L69.4068 8.54353C69.6236 8.39545 69.8161 8.31782 69.9842 8.31064C70.1495 8.3022 70.306 8.38567 70.391 8.52766C70.4714 8.64344 70.4934 8.79003 70.4505 8.92431C70.391 9.09353 70.2871 9.24363 70.1496 9.35891C70.3169 9.26011 70.5078 9.20842 70.7021 9.20932C70.8565 9.21163 71.0004 9.2882 71.0885 9.41501C71.1945 9.55705 71.2208 9.7433 71.1582 9.90911ZM69.7417 8.55373C69.6493 8.52596 69.5473 8.55033 69.4368 8.62512L69.1535 8.81835L69.6986 9.61956L69.966 9.43768C70.0673 9.37924 70.1329 9.27435 70.1411 9.15776C70.1369 9.02355 70.0905 8.89408 70.0085 8.78775C69.9209 8.65856 69.8321 8.58055 69.7422 8.55373H69.7417ZM70.0136 9.5068C70.1413 9.41992 70.2601 9.39121 70.3701 9.42068C70.4804 9.45052 70.5861 9.53797 70.6874 9.68303C70.7687 9.78907 70.8191 9.91557 70.833 10.0485C70.8433 10.1495 70.7952 10.2476 70.7089 10.3012L70.3383 10.5539L69.7468 9.68869L70.0136 9.5068Z" fill="#414652"/>
<path d="M71.554 9.85972L71.5132 9.78549L71.8084 9.62343L70.797 7.78188L70.5017 7.94393L70.4609 7.86914L71.4321 7.33594L71.4729 7.41017L71.1783 7.57222L72.1897 9.41378L72.4849 9.25172L72.5257 9.32595L71.554 9.85972Z" fill="#414652"/>
<path d="M74.571 8.43062L72.8314 9.15421L72.7991 9.07545L73.1097 8.94626L72.3033 7.00668L71.9928 7.13587L71.96 7.05711L72.9958 6.62646L73.0286 6.70466L72.7022 6.84065L73.5114 8.7808L73.916 8.61081C74.1069 8.53148 74.2225 8.41816 74.2645 8.27083C74.3064 8.12351 74.2934 7.95125 74.2169 7.74953L74.3143 7.7093L74.571 8.43062Z" fill="#414652"/>
<path d="M74.8329 8.35768L74.808 8.27608L75.1304 8.17862L74.5235 6.16707L74.2011 6.26454L74.1768 6.18294L75.2381 5.86279L75.2624 5.94439L74.94 6.04128L75.5469 8.05339L75.8693 7.95593L75.8937 8.03696L74.8329 8.35768Z" fill="#414652"/>
<path d="M77.7464 6.07748C77.6592 5.82401 77.5581 5.66799 77.4433 5.60944C77.32 5.5454 77.1782 5.52694 77.0427 5.55731L76.9554 5.57374L77.3469 7.63798L77.6977 7.57169L77.713 7.65498L76.5877 7.86804L76.5712 7.78304L76.922 7.71675L76.531 5.65194L76.4375 5.67007C76.3008 5.69128 76.1755 5.75891 76.0828 5.86159C75.9978 5.96302 75.9615 6.14491 75.9723 6.41179L75.8658 6.43219L75.7666 5.7103L77.6807 5.34766L77.8507 6.05595L77.7464 6.07748Z" fill="#414652"/>
<path d="M80.291 5.25135L79.7527 6.36081L79.8026 7.38075L80.1794 7.36205L80.184 7.44705L79.0156 7.50371L79.0116 7.41872L79.3714 7.40115L79.3255 6.45714L78.5549 5.33634L78.3067 5.34824L78.3027 5.26325L79.4065 5.20942L79.4105 5.29441L79.0643 5.31141L79.6876 6.25769L80.1868 5.25645L79.8338 5.27401L79.8298 5.18902L80.563 5.15332L80.5676 5.23775L80.291 5.25135Z" fill="#414652"/>
<path d="M90.5245 10.6853L88.8994 9.6427L88.9453 9.5713L89.2286 9.75319L90.3619 7.98416L90.0786 7.80284L90.1245 7.73145L91.7003 8.74062L91.3903 9.26872L91.3099 9.21716C91.3852 9.0075 91.4011 8.84884 91.3563 8.74232C91.3116 8.63579 91.2118 8.5287 91.0538 8.4267L90.7245 8.21592L90.1976 9.03697L90.2752 9.08683C90.4197 9.17976 90.5375 9.20639 90.6271 9.16729C90.7211 9.12506 90.8001 9.05532 90.8537 8.96727L90.9336 9.01827L90.4237 9.81665L90.3432 9.76566C90.405 9.67463 90.4398 9.56795 90.4435 9.45797C90.4435 9.35145 90.3727 9.25115 90.2282 9.15823L90.1505 9.10893L89.5918 9.98721L89.9754 10.2331C90.1602 10.3521 90.3177 10.3899 90.448 10.3465C90.5783 10.303 90.7164 10.1991 90.8622 10.0348L90.945 10.0875L90.5245 10.6853Z" fill="#414652"/>
<path d="M91.7004 11.6435L91.757 11.5789L92.0233 11.8056L92.1741 10.8072L91.1598 11.0673L91.4652 11.3285L91.4085 11.3931L90.7705 10.8474L90.8272 10.7828L91.0703 10.9902L92.1831 10.6984L92.4024 9.36398L92.2035 9.19399L92.2602 9.12939L93.0846 9.83429L93.028 9.89888L92.7719 9.68016L92.6279 10.5811L93.5396 10.3363L93.2473 10.0864L93.3039 10.0218L93.9272 10.5562L93.8706 10.6213L93.6275 10.4134L92.6075 10.6837L92.4024 12.132L92.5968 12.2974L92.5401 12.362L91.7004 11.6435Z" fill="#414652"/>
<path fill-rule="evenodd" clip-rule="evenodd" d="M94.3235 12.8069C94.5037 13.0109 94.6882 13.1384 94.8771 13.1894C95.0567 13.2393 95.2494 13.1906 95.3837 13.0613C95.5316 12.9464 95.6054 12.7602 95.5763 12.5752C95.5465 12.3904 95.4358 12.1889 95.2443 11.9706L94.4946 11.1206L94.4306 11.1773L94.6527 11.43L93.0752 12.8177L92.8525 12.5644L92.7891 12.621L93.5365 13.471L93.6005 13.4143L93.3602 13.1412L94.0697 12.5179L94.3235 12.8069ZM95.2142 12.0691C95.3038 12.1711 95.3361 12.2726 95.31 12.374C95.2845 12.4749 95.2142 12.5763 95.0749 12.6987C94.9355 12.8211 94.8102 12.8885 94.7003 12.901C94.5923 12.9146 94.4924 12.8696 94.4006 12.7661L94.1337 12.4618L94.9377 11.7547L95.2142 12.0691Z" fill="#414652"/>
<path d="M95.2342 15.7539L94.1406 14.1622L94.2109 14.1141L94.4013 14.3917L96.1329 13.2018L95.9425 12.9241L96.0122 12.876L97.0735 14.4201L96.5828 14.7861L96.5261 14.7079C96.6773 14.5436 96.7528 14.4036 96.7528 14.288C96.7528 14.1724 96.7007 14.0363 96.5964 13.8795L96.3777 13.5571L95.5736 14.1095L95.6252 14.1849C95.7232 14.3271 95.8207 14.3974 95.9187 14.3963C96.0225 14.3945 96.1234 14.3611 96.2077 14.3005L96.2644 14.3793L95.4801 14.917L95.4235 14.8382C95.5154 14.7782 95.5886 14.6936 95.6348 14.594C95.6775 14.4958 95.6501 14.3757 95.5527 14.2336L95.5005 14.1583L94.6472 14.747L94.905 15.1221C95.0297 15.3034 95.1602 15.3994 95.2966 15.41C95.4331 15.4207 95.6008 15.3782 95.7997 15.2836L95.8564 15.3646L95.2342 15.7539Z" fill="#414652"/>
<path fill-rule="evenodd" clip-rule="evenodd" d="M96.1735 17.5288C96.1792 17.6138 96.2028 17.6966 96.2427 17.7719C96.2907 17.8632 96.3493 17.9486 96.4172 18.0263L96.4869 17.9911C96.46 17.9517 96.4355 17.9107 96.4138 17.8682C96.3944 17.8364 96.3828 17.8005 96.3798 17.7634C96.3807 17.7157 96.4029 17.671 96.4404 17.6415L96.5872 17.5639C96.6721 17.5191 96.7533 17.4674 96.8297 17.4092C96.8984 17.3567 96.9593 17.2947 97.0105 17.2251C97.1094 17.0921 97.1211 16.8856 97.0456 16.6057C97.1857 16.8044 97.3244 16.9366 97.4615 17.0024C97.5879 17.0667 97.7378 17.065 97.8627 16.9978C98.0228 16.9125 98.1118 16.7967 98.1296 16.6505C98.1473 16.5043 98.0995 16.319 97.9862 16.0946L97.4479 15.0254L97.372 15.0639L97.5238 15.3642L95.6471 16.3094L95.4959 16.0091L95.4199 16.047L95.9169 17.0341L95.9928 16.9956L95.8415 16.6953L96.8099 16.2074L96.8892 16.3655C96.964 16.5128 96.964 16.6465 96.8892 16.765C96.8463 16.8276 96.7923 16.8819 96.73 16.9253C96.6614 16.9752 96.5798 17.0262 96.4858 17.0828L96.36 17.1576C96.2402 17.2428 96.1704 17.3818 96.1735 17.5288ZM97.8678 16.0476C97.9307 16.1728 97.9426 16.2788 97.9023 16.3655C97.8615 16.4471 97.7618 16.5275 97.6202 16.5989C97.4785 16.6703 97.3589 16.6924 97.2615 16.6652C97.164 16.638 97.0819 16.5587 97.0161 16.4272L96.8858 16.1689L97.7176 15.7501L97.8678 16.0476Z" fill="#414652"/>
<path d="M98.5231 19.371C98.76 19.2471 98.899 19.1236 98.9402 19.0004C98.9844 18.8688 98.9812 18.7259 98.9311 18.5964L98.9016 18.5131L96.9184 19.2118L97.0368 19.5484L96.9569 19.5767L96.5762 18.4956L96.6561 18.4678L96.7751 18.8044L98.7583 18.1057L98.7265 18.0162C98.6849 17.884 98.599 17.7702 98.4835 17.6938C98.3701 17.6258 98.1837 17.6167 97.9231 17.6683L97.8868 17.5651L98.5855 17.3589L99.2325 19.1959L98.5571 19.4736L98.5231 19.371Z" fill="#414652"/>
<path d="M97.1572 20.257L97.24 20.2371L97.317 20.5646L99.362 20.0802L99.2844 19.7527L99.3671 19.7334L99.6226 20.81L99.5399 20.8298L99.4634 20.504L97.419 20.9879L97.4961 21.3154L97.4133 21.3353L97.1572 20.257Z" fill="#414652"/>
<path d="M97.8151 22.8877C97.6579 22.775 97.5561 22.6007 97.5352 22.4084C97.521 22.3201 97.5237 22.2299 97.5431 22.1426C97.5606 22.0575 97.5934 21.9763 97.64 21.9029L97.4757 21.7607L97.4678 21.704L98.1381 21.6105L98.1517 21.7086C97.9956 21.7603 97.8558 21.8519 97.746 21.9743C97.5507 22.2055 97.5775 22.5506 97.8061 22.7489C97.9038 22.8321 98.0327 22.8689 98.1596 22.8498C98.2876 22.8397 98.3995 22.7594 98.4497 22.6412C98.5083 22.493 98.5464 22.3374 98.5631 22.1789C98.5899 21.9601 98.6505 21.796 98.745 21.6865C98.8529 21.5713 98.9992 21.4998 99.1563 21.4853C99.3238 21.4556 99.4962 21.4946 99.6346 21.5935C99.7686 21.6931 99.8555 21.8436 99.8748 22.0094C99.888 22.0986 99.8867 22.1893 99.8709 22.278C99.8546 22.3639 99.8231 22.4462 99.7779 22.5211L99.927 22.6305L99.936 22.6945L99.2997 22.7835L99.2844 22.6752C99.4391 22.6381 99.578 22.5528 99.681 22.4316C99.7764 22.3151 99.8165 22.1629 99.791 22.0145C99.7778 21.9044 99.7218 21.8039 99.6351 21.7346C99.5558 21.6646 99.4498 21.6329 99.345 21.6479C99.2175 21.6655 99.1399 21.7199 99.1138 21.8106C99.0762 21.9401 99.0512 22.0729 99.039 22.2072C99.0084 22.4792 98.945 22.6722 98.8487 22.7863C98.7484 22.9036 98.5948 22.9761 98.3886 23.005C98.1604 23.0379 97.9692 22.9988 97.8151 22.8877Z" fill="#414652"/>
<path d="M97.7709 25.3254L97.7256 23.3949H97.8106L97.8185 23.7315L99.919 23.6828L99.9111 23.3462H99.9961L100.04 25.2195L99.4289 25.2574V25.1622C99.6453 25.1056 99.7847 25.0314 99.8488 24.9356C99.9128 24.8398 99.9451 24.6965 99.9406 24.5084L99.9315 24.1179L98.9557 24.1406V24.2324C98.9597 24.4024 99.0033 24.5157 99.0861 24.569C99.1737 24.6247 99.2764 24.652 99.3802 24.6472V24.7424L98.4322 24.7645V24.6693C98.542 24.6696 98.6497 24.6387 98.7427 24.5803C98.8322 24.5221 98.8749 24.4067 98.8708 24.2341V24.1423L97.831 24.1667L97.8417 24.62C97.8468 24.8398 97.9035 24.9911 98.0117 25.0733C98.12 25.1554 98.2837 25.2132 98.5024 25.2433V25.3419L97.7709 25.3254Z" fill="#414652"/>
<path fill-rule="evenodd" clip-rule="evenodd" d="M59.6456 26.9365C60.7015 37.6086 69.6693 45.7461 80.3934 45.7635C83.1943 45.77 85.9676 45.2111 88.5473 44.1203C98.4276 39.9505 103.543 28.9747 100.383 18.7267C97.2233 8.47863 86.8146 2.29002 76.3017 4.40865C65.7889 6.52729 58.5897 16.2644 59.6456 26.9365ZM59.8157 22.702C60.8656 12.1203 69.7597 4.05372 80.3934 4.03898V4.03785C83.1717 4.03275 85.9225 4.58838 88.481 5.67145C98.2764 9.8098 103.345 20.6948 100.208 30.8552C97.0713 41.0157 86.7484 47.1487 76.325 45.0448C65.9015 42.9408 58.7659 33.2838 59.8157 22.702Z" fill="#414652"/>
<path fill-rule="evenodd" clip-rule="evenodd" d="M58.6546 27.0387C59.7619 38.2197 69.1581 46.7445 80.3938 46.7618C83.3284 46.7682 86.2341 46.1824 88.9369 45.0393C99.288 40.6694 104.647 29.1695 101.335 18.4331C98.0228 7.69661 87.117 1.21394 76.1029 3.43472C65.0889 5.65549 57.5473 15.8577 58.6546 27.0387ZM58.9812 22.6146C60.0765 11.6067 69.3316 3.21779 80.3938 3.2059V3.20817C83.283 3.20254 86.1436 3.77994 88.8043 4.9058C98.9936 9.21296 104.264 20.5378 100.999 31.107C97.7328 41.6762 86.9924 48.0538 76.1494 45.8623C65.3064 43.6707 57.8858 33.6225 58.9812 22.6146Z" fill="#414652"/>
<path d="M91.5447 23.02H94.1733L94.6459 32.8794C94.6459 32.8794 92.2501 36.7892 90.9072 37.3927L91.5447 23.02Z" fill="white"/>
<path d="M90.4915 37.5031C90.4915 37.5031 90.3414 36.4406 89.003 36.6911C89.003 36.6911 88.7196 36.7993 88.5723 36.6531L87.9564 23.02H85.3221L84.7158 36.2372L84.509 36.2559C84.509 36.2559 84.3639 35.5193 83.4528 35.5828L83.2352 35.6032C83.1832 35.5569 83.1469 35.4954 83.1315 35.4275C83.1213 35.334 83.0074 35.0133 82.2408 34.8575L81.6917 22.978H79.0506L78.5741 34.0693C78.5741 34.0693 78.1599 33.9866 78.0641 34.4529C78.0641 34.4529 77.6289 34.3492 77.5253 34.4733C77.5253 34.4733 77.1422 34.7946 77.132 35.1051C77.132 35.1051 76.4379 35.0326 76.0446 35.602L75.6922 28.6217L75.4055 23.02H72.8556L72.1632 36.7461C72.1632 36.7461 71.2753 36.5812 70.3296 37.5031L70.04 37.7768C70.04 37.7768 72.4528 40.8762 78.8602 40.9533C85.2677 41.0304 87.8357 39.8438 89.1089 38.8352C90.3821 37.8266 90.4915 37.5031 90.4915 37.5031Z" fill="white"/>
<path d="M66.5619 23.02H69.186L69.8217 37.3949C69.8217 37.3949 67.1585 35.6848 66.0049 32.9809L66.5619 23.02Z" fill="white"/>
<path d="M65.6463 17.1752L80.4111 10.1167L94.6454 17.0466L95.3469 18.4264H64.9307L65.6463 17.1752Z" fill="white"/>
<path d="M95.5466 19.1025H64.9314C64.9314 19.1025 63.9772 21.8456 64.0962 22.4423H96.4209C96.4209 22.4423 95.9041 19.1025 95.5466 19.1025Z" fill="white"/>
<path opacity="0.48" fill-rule="evenodd" clip-rule="evenodd" d="M90.4913 30.7752C91.6642 28.0361 92.7748 21.776 90.0697 17.6395C90.0697 17.6395 80.5945 8.52867 73.3302 14.5656C73.3302 14.5656 69.2482 16.5777 68.9683 20.2109C68.6884 23.8442 68.6952 27.8457 72.4916 30.2046C72.4916 30.2046 77.1607 33.6804 82.0632 31.0517C82.0632 31.0517 84.7875 29.6012 85.514 27.142C85.514 27.142 87.1572 30.3095 81.6014 32.9551L75.96 36.2347C75.96 36.2347 83.8384 38.2094 84.0062 38.2094C84.1739 38.2094 89.3183 33.5143 90.4913 30.7752ZM71.989 23.6759C71.7091 21.1045 74.2232 17.5829 74.2232 17.5829V17.5835C74.2232 17.5835 78.1953 15.7385 82.1952 16.4825C86.1951 17.2265 87.3062 22.975 87.3062 22.975C86.0188 25.7957 83.0565 28.5387 83.0565 28.5387C80.5967 30.7186 76.4603 29.489 76.4603 29.489C71.793 27.4933 71.989 23.6759 71.989 23.6759Z" fill="white"/>
<path d="M82.0587 16.3196C82.0587 16.3196 82.0587 15.6261 82.1154 15.5587C82.1721 15.4912 82.3267 15.6839 82.3267 15.8091C82.3267 15.9343 82.1925 16.4256 82.1925 16.4834C82.1925 16.5412 82.1828 16.6279 82.2695 16.6857C82.3562 16.7435 82.4644 16.9571 82.4644 16.9571C82.4644 16.9571 82.397 17.0704 82.3511 17.0438C82.3052 17.0172 82.2072 16.7163 82.1301 16.7067C82.0531 16.697 81.3691 16.4851 81.3113 16.3791C81.2535 16.2732 81.2042 16.3179 81.4196 16.2975C81.6349 16.2771 82.0111 16.4908 82.0111 16.4908C82.0026 16.4444 81.9808 16.4014 81.9482 16.3672C81.8955 16.3145 81.3181 16.2726 81.2586 16.1672C81.1991 16.0618 81.0269 15.9638 81.1096 15.9037C81.1923 15.8437 81.4405 15.9938 81.4632 16.0012C81.4859 16.0086 81.7125 16.1973 81.776 16.1973C81.8394 16.1973 81.7193 16.0392 81.5233 15.9491C81.3272 15.859 80.9515 15.6227 80.9141 15.5451C80.8767 15.4674 81.0042 15.502 81.1023 15.5451C81.2003 15.5881 81.3657 15.693 81.4558 15.6856C81.5459 15.6782 81.3351 15.5383 81.2076 15.4992C81.0802 15.4601 80.5606 15.264 80.5532 15.1966C80.5458 15.1292 80.4251 15.0685 80.5532 15.0685C80.6812 15.0685 80.9068 15.1666 80.9816 15.2113C81.0564 15.2561 81.1096 15.3246 81.147 15.2867C81.1844 15.2487 81.0337 15.1439 80.8988 15.0685C80.764 14.9932 80.5787 14.9705 80.4943 14.9331C80.4098 14.8957 80.1543 14.8504 80.1769 14.7676C80.1996 14.6849 80.2143 14.6322 80.4552 14.7002C80.5459 14.7301 80.639 14.7527 80.7334 14.7676C80.7334 14.7676 80.5634 14.6169 80.4778 14.5569C80.3923 14.4968 79.7933 14.4741 79.7707 14.4668C79.748 14.4594 79.5298 14.3387 79.5372 14.3087C79.5446 14.2786 79.9662 14.2786 80.1469 14.3087C80.3277 14.3387 80.0863 14.1659 79.9203 14.1506C79.7542 14.1353 79.4165 14.0979 79.3638 14.0979C79.3111 14.0979 79.1457 13.9398 79.2732 13.8877C79.4007 13.8355 79.7928 13.9477 79.7928 13.9477C79.7928 13.9477 79.6494 13.8044 79.5893 13.797C79.5293 13.7896 78.9496 13.835 78.9196 13.7522C78.8896 13.6695 78.9196 13.6242 79.1003 13.6468C79.2155 13.6601 79.3319 13.658 79.4466 13.6406L79.3412 13.5641C79.2271 13.5894 79.109 13.5894 78.9949 13.5641C78.8369 13.5188 78.5416 13.4735 78.5586 13.4287C78.5756 13.3839 78.7394 13.346 78.9196 13.376C78.9959 13.3866 79.0716 13.4015 79.1462 13.4208C79.1462 13.4208 79.2063 13.376 79.0408 13.3233C78.8754 13.2706 78.468 13.2479 78.3847 13.2173C78.3014 13.1867 78.1138 13.1573 78.0759 13.0893C78.0379 13.0213 78.2039 12.9839 78.2867 13.0139C78.3773 13.0413 78.4705 13.059 78.5649 13.0666C78.5949 13.0666 78.2719 12.9238 78.2249 12.8184C78.1779 12.713 78.1269 12.5702 78.2175 12.6156C78.3082 12.6609 78.5932 12.9391 78.6538 13.0065C78.7145 13.074 78.5331 12.7431 78.5405 12.7057C78.5479 12.6683 78.6238 12.653 78.7513 12.8037C78.8788 12.9544 78.9394 13.1272 78.9779 13.172C79.0165 13.2168 79.1054 13.3148 79.0981 13.24C79.0907 13.1652 78.8799 12.9238 78.94 12.8258C79 12.7278 79.0754 12.8711 79.1666 13.0065C79.2579 13.142 79.2941 13.3902 79.3242 13.4429C79.3542 13.4956 79.4449 13.6536 79.4449 13.4729C79.4449 13.2921 79.2941 13.142 79.3848 13.0666C79.4755 12.9912 79.6539 13.4723 79.6477 13.6899L79.7531 13.8333C79.7638 13.7231 79.7689 13.6125 79.7684 13.5018C79.7684 13.3063 79.7078 13.2462 79.7684 13.2389C79.829 13.2315 79.9486 13.3363 79.9639 13.4797C79.9792 13.623 80.0313 13.9234 80.024 13.9897C80.0166 14.056 80.0766 14.1177 80.1067 14.095C80.1367 14.0724 80.0393 13.5533 80.1446 13.5613C80.25 13.5692 80.4076 13.644 80.4002 13.9069C80.3928 14.1698 80.3328 14.2469 80.4155 14.3036C80.4982 14.3602 80.4603 14.3036 80.4982 14.1081C80.5362 13.9126 80.6031 13.7165 80.6557 13.8446C80.7028 13.9852 80.7258 14.1327 80.7237 14.2809C80.7164 14.341 80.7464 14.6424 80.7764 14.6775C80.8065 14.7127 80.8439 14.8283 80.8592 14.6175C80.8745 14.4067 80.8291 14.1511 80.9266 14.1812C81.0241 14.2112 81.0547 14.7002 81.0473 14.745C81.0399 14.7897 81.032 15.0311 81.0773 15.0612C81.1227 15.0912 81.1753 15.1065 81.1827 15.0765C81.1901 15.0464 81.1448 14.5421 81.1974 14.5098C81.2501 14.4775 81.3782 14.5852 81.3782 14.6979C81.3782 14.8107 81.4082 15.2697 81.4082 15.315C81.4082 15.3603 81.4156 15.4878 81.4462 15.5026C81.4768 15.5173 81.491 15.5479 81.5136 15.3671C81.5363 15.1864 81.5289 14.8861 81.559 14.8781C81.589 14.8702 81.6944 14.8781 81.6944 14.9762C81.6944 15.0742 81.7244 15.3598 81.7318 15.5428C81.7391 15.7258 81.7244 15.859 81.7771 15.889C81.8298 15.919 81.8071 15.7309 81.8071 15.6482C81.8071 15.5655 81.7544 15.1892 81.8298 15.1892C81.9052 15.1892 81.9879 15.1818 81.9953 15.2793C82.0041 15.4799 82.0017 15.6808 81.9879 15.8811C81.9737 15.9491 81.8978 16.2964 82.0587 16.3196Z" fill="#414652"/>
<path d="M78.6027 16.3196C78.6027 16.3196 78.6027 15.626 78.546 15.5586C78.4893 15.4912 78.3341 15.6838 78.3341 15.809C78.3341 15.9343 78.4689 16.4255 78.4689 16.4833C78.4689 16.5411 78.4786 16.6278 78.3919 16.6856C78.3052 16.7434 78.1992 16.9553 78.1992 16.9553C78.1992 16.9553 78.2666 17.0687 78.3125 17.042C78.3584 17.0154 78.457 16.7145 78.5341 16.7049C78.6112 16.6952 79.2945 16.4833 79.3523 16.3774C79.4101 16.2714 79.4594 16.3162 79.2447 16.2958C79.0299 16.2754 78.6497 16.4907 78.6497 16.4907C78.6582 16.4443 78.6801 16.4013 78.7126 16.3672C78.7653 16.3145 79.3427 16.2725 79.4022 16.1671C79.4617 16.0618 79.6339 15.9637 79.5512 15.9037C79.4685 15.8436 79.2203 15.9938 79.1976 16.0011C79.175 16.0085 78.9483 16.1972 78.8848 16.1972C78.8214 16.1972 78.9415 16.0391 79.1376 15.949C79.3336 15.8589 79.7093 15.6226 79.7467 15.545C79.7841 15.4674 79.6566 15.5019 79.5586 15.545C79.4605 15.588 79.2957 15.6929 79.205 15.6855C79.1143 15.6781 79.3257 15.5382 79.4532 15.4991C79.5807 15.46 80.1003 15.2639 80.1082 15.1965C80.1161 15.1291 80.2357 15.0684 80.1082 15.0684C79.9807 15.0684 79.7546 15.1665 79.6793 15.2112C79.6039 15.256 79.5512 15.3246 79.5138 15.2866C79.4764 15.2486 79.6271 15.1438 79.762 15.0684C79.8968 14.9931 80.0821 14.9704 80.1666 14.933C80.251 14.8956 80.5065 14.8503 80.4839 14.7676C80.4612 14.6848 80.4465 14.6321 80.2057 14.7001C80.1149 14.7301 80.0219 14.7526 79.9274 14.7676C79.9274 14.7676 80.0974 14.6168 80.183 14.5568C80.2686 14.4967 80.8681 14.474 80.8902 14.4667C80.9123 14.4593 81.131 14.3386 81.1236 14.3086C81.1162 14.2786 80.6947 14.2786 80.5145 14.3086C80.3343 14.3386 80.5745 14.1658 80.7411 14.1505C80.9077 14.1352 81.2449 14.0978 81.2976 14.0978C81.3503 14.0978 81.5157 13.9397 81.3882 13.8876C81.2607 13.8355 80.8692 13.9476 80.8692 13.9476C80.8692 13.9476 81.012 13.8043 81.072 13.7969C81.1321 13.7896 81.7118 13.8349 81.7418 13.7522C81.7718 13.6694 81.7418 13.6241 81.561 13.6468C81.4459 13.66 81.3295 13.6579 81.2148 13.6405L81.3202 13.564C81.4342 13.5894 81.5524 13.5894 81.6664 13.564C81.8245 13.5187 82.1197 13.4734 82.1028 13.4286C82.0858 13.3838 81.922 13.3459 81.7418 13.3759C81.6655 13.3865 81.5898 13.4015 81.5152 13.4207C81.5152 13.4207 81.4551 13.3759 81.6205 13.3232C81.786 13.2705 82.1923 13.2479 82.275 13.2178C82.3577 13.1878 82.5459 13.1578 82.5838 13.0898C82.6218 13.0218 82.4558 12.9844 82.373 13.0144C82.2824 13.0418 82.1892 13.0595 82.0948 13.0671C82.0648 13.0671 82.3883 12.9243 82.4348 12.8189C82.4813 12.7135 82.5328 12.5707 82.4427 12.6161C82.3526 12.6614 82.0665 12.9396 82.0059 13.007C81.9452 13.0745 82.1265 12.7436 82.1192 12.7062C82.1118 12.6688 82.0365 12.6535 81.9084 12.8042C81.7803 12.9549 81.7203 13.1277 81.6817 13.1725C81.6432 13.2173 81.5537 13.3153 81.561 13.2405C81.5684 13.1657 81.7792 12.9243 81.7191 12.8263C81.6591 12.7283 81.5837 12.8716 81.4925 13.007C81.4013 13.1425 81.3644 13.3906 81.3344 13.4433C81.3044 13.496 81.2137 13.6541 81.2137 13.4734C81.2137 13.2926 81.3644 13.1425 81.2743 13.0671C81.1842 12.9917 81.0046 13.4728 81.0108 13.6904L80.9055 13.8338C80.8947 13.7236 80.8896 13.613 80.8902 13.5023C80.8902 13.3068 80.9508 13.2467 80.8902 13.2394C80.8295 13.232 80.71 13.3368 80.6947 13.4802C80.6794 13.6235 80.6272 13.9238 80.6346 13.9901C80.642 14.0564 80.5819 14.1182 80.5519 14.0955C80.5218 14.0729 80.6193 13.5538 80.5145 13.5618C80.4097 13.5697 80.251 13.6445 80.2584 13.9074C80.2657 14.1703 80.3264 14.2474 80.2436 14.3041C80.1609 14.3607 80.1983 14.3041 80.1603 14.1086C80.1224 13.9131 80.0555 13.717 80.0028 13.8451C79.9557 13.9857 79.9328 14.1332 79.9348 14.2814C79.9422 14.3415 79.9121 14.6429 79.8821 14.678C79.8521 14.7132 79.8147 14.8288 79.7994 14.618C79.7841 14.4072 79.8294 14.1516 79.732 14.1817C79.6345 14.2117 79.6039 14.7007 79.6113 14.7455C79.6186 14.7902 79.6266 15.0316 79.5812 15.0616C79.5359 15.0917 79.4838 15.107 79.4758 15.0769C79.4679 15.0469 79.5138 14.5426 79.4611 14.5103C79.4084 14.478 79.2804 14.5857 79.2804 14.6984C79.2804 14.8112 79.2503 15.2702 79.2503 15.3155C79.2503 15.3608 79.243 15.4883 79.2129 15.5031C79.1829 15.5178 79.1676 15.5484 79.1449 15.3676C79.1223 15.1869 79.1296 14.8866 79.0996 14.8786C79.0696 14.8707 78.9642 14.8786 78.9642 14.9766C78.9642 15.0747 78.9341 15.3603 78.9268 15.5433C78.9194 15.7263 78.9341 15.8595 78.8814 15.8895C78.8287 15.9195 78.8514 15.7314 78.8514 15.6487C78.8514 15.5659 78.9041 15.1897 78.8287 15.1897C78.7534 15.1897 78.6712 15.1823 78.6633 15.2798C78.6543 15.4804 78.657 15.6813 78.6712 15.8816C78.6871 15.949 78.7647 16.2963 78.6027 16.3196Z" fill="#414652"/>
<path d="M90.0693 37.915C90.0693 37.915 89.9855 37.1631 89.2069 37.1347C88.4283 37.1064 88.9236 37.0837 88.7825 37.1347C88.6414 37.1857 88.268 37.2118 88.1269 37.0061C87.9858 36.8004 87.4469 37.0061 87.4469 37.0061C87.4469 37.0061 87.3183 37.1092 87.0356 37.1194C86.7528 37.1296 86.7783 36.9495 86.3029 37.0554C85.8275 37.1614 85.8269 36.9886 85.7629 36.9126C85.6989 36.8367 85.2739 36.8469 85.0829 36.9126C84.892 36.9784 84.8642 36.8112 84.8512 36.7727C84.8382 36.7341 84.4659 36.8242 84.3758 36.7727C84.2857 36.7211 84.2625 36.6027 84.2341 36.5284C84.2058 36.4542 84.093 36.1318 83.1802 36.091C83.1802 36.091 83 36.091 82.987 35.8723C82.9739 35.6536 82.2028 35.4354 82.2028 35.4354C82.2028 35.4354 81.7528 35.3453 81.5341 35.3584C81.3154 35.3714 81.1375 35.024 81.1375 35.024C81.1375 35.024 80.9958 34.7022 80.3017 34.5866C80.3017 34.5866 80.1215 34.5736 80.0314 34.4455C79.9413 34.3174 79.8773 34.2398 79.7226 34.2523C79.5679 34.2647 79.1316 34.2523 79.0285 34.4223C78.9254 34.5923 78.9259 34.654 78.7327 34.6665C78.5395 34.679 78.2573 34.7311 78.2188 34.9623C78.2188 34.9623 77.3053 34.9623 77.3184 35.6694C77.0609 35.6309 76.7981 35.6809 76.5727 35.8111C76.1868 36.0298 76.3925 36.2225 75.9681 36.2355C75.5437 36.2485 75.1453 36.3381 75.1323 36.737C75.1323 36.737 74.5657 36.737 74.4643 36.814C74.3628 36.8911 74.2325 37.2107 74.1299 37.1869C74.0274 37.1631 73.8211 36.9812 73.7441 36.9942C73.667 37.0073 73.3582 36.9812 72.9853 37.341C72.7094 37.4623 72.4969 37.171 72.4969 37.171C72.4969 37.171 72.0079 37.107 71.6611 37.3257C71.3143 37.5444 70.7607 37.9428 70.7607 38.0453C70.7607 38.1479 72.5938 40.7686 77.8595 41.2009C83.1252 41.6332 87.7065 40.6422 90.0693 37.915Z" fill="#414652"/>
<path fill-rule="evenodd" clip-rule="evenodd" d="M64.0034 28.0756C65.5588 35.8948 72.421 41.5265 80.3934 41.5265C84.8279 41.5386 89.0829 39.7761 92.21 36.6319C97.8474 30.9946 98.7175 22.16 94.2882 15.5312C89.859 8.90233 81.364 6.32539 73.9984 9.37631C66.6328 12.4272 62.4481 20.2563 64.0034 28.0756ZM64.451 21.6462C65.963 14.0394 72.6378 8.55983 80.3934 8.55869C84.7073 8.54614 88.8469 10.2601 91.8893 13.3184C97.3742 18.8016 98.222 27.3958 93.9141 33.8451C89.6063 40.2943 81.3426 42.8024 74.1769 39.8355C67.0112 36.8686 62.9391 29.2531 64.451 21.6462Z" fill="#414652"/>
</svg>
