<svg width="64" height="63" viewBox="0 0 64 63" fill="none" xmlns="http://www.w3.org/2000/svg">
<path d="M2.99072 28.2445H1.99072V24.8104C1.99072 19.5355 6.28174 15.2445 11.5566 15.2445H19.4907V16.2445H11.5566C6.8335 16.2445 2.99072 20.0872 2.99072 24.8104V28.2445ZM1.9906 31.2445L2.9906 30.2445L2.99072 28.2445H2L1.9906 31.2445ZM1.9906 33.2445H2.9906V30.2445L1.9906 31.2445V33.2445ZM50.5 56.2445C48.0928 56.2445 45.707 56.9359 43.1807 57.6683C40.3154 58.4993 37.3516 59.3587 33.96 59.3587C30.8926 59.3587 28.9536 58.8089 27.0786 58.2777C25.0386 57.6995 22.9307 57.096 19.4795 57.2445C14.3093 57.4592 12.2748 61.6952 11.7015 63.2445H12.7642C13.3913 61.6878 15.2112 58.4228 19.5205 58.2445C22.812 58.0999 24.7515 58.6566 26.8062 59.2396C28.7466 59.7904 30.7534 60.3587 33.96 60.3587C37.4941 60.3587 40.5264 59.4798 43.459 58.6292C45.915 57.9173 48.2344 57.2445 50.5 57.2445C54.8675 57.2445 59.0462 58.756 64 62.1125V60.9198C59.1648 57.7492 54.8482 56.2445 50.5 56.2445ZM0.990601 28.2445L0 29.2445V31.2445H0.990601V28.2445ZM0 29.2445L0.990601 28.2445V27.2445H0V29.2445ZM42.6934 55.6741C39.8281 56.471 36.8662 57.3089 33.5078 57.2445C30.5156 57.1995 28.5708 56.7122 26.6899 56.2415C24.5171 55.6966 22.2739 55.139 18.4854 55.2445C12.0597 55.4325 9.52087 61.3833 8.8819 63.2445H9.93073C10.6456 61.271 12.9661 56.4066 18.5146 56.2445C22.1533 56.1302 24.2427 56.6595 26.4468 57.2113C28.3828 57.6956 30.3848 58.1976 33.4922 58.2445C36.9873 58.307 40.0264 57.4534 42.9619 56.637C45.5371 55.9212 47.9697 55.2445 50.5 55.2445C56.6858 55.2445 61.5283 58.4003 64 60.4263V59.1499C61.2709 57.0548 56.4966 54.2445 50.5 54.2445C47.833 54.2445 45.3369 54.9388 42.6934 55.6741ZM41.9854 40.8118L40.9961 40.6693C40.9766 40.7806 40.8389 41.3363 39.9902 41.3363C39.1416 41.3363 39.0039 40.7806 38.9844 40.6693L38.4902 40.7445L37.9951 40.8118C38.0674 41.3392 38.5771 42.3363 39.9902 42.3363C41.4043 42.3363 41.9141 41.3392 41.9854 40.8118ZM41.9902 48.2445C41.1953 48.2445 40.9902 47.6673 40.9697 47.6009L40.0088 47.8812C40.1426 48.3529 40.7285 49.2445 41.9902 49.2445C43.2529 49.2445 43.8379 48.3519 43.9717 47.8802L43.0107 47.6019C42.9902 47.6673 42.7852 48.2445 41.9902 48.2445ZM19.0005 7.72836L19.0078 7.49399L19.1924 7.34994C19.2925 7.27231 21.6074 5.48861 24.2383 5.26108C24.6134 4.7753 25.6899 3.4667 27.1249 2.40243C27.5268 1.78604 29.9734 -1.27774 37.9658 0.605308C37.9648 0.598968 38.0996 0.616058 38.3936 0.616058C38.9492 0.616058 40.0107 0.566248 41.3906 0.256678L41.7021 0.186366L41.8965 0.440268C41.9259 0.478598 42.5323 1.31888 41.9929 2.61178C46.9272 6.47098 47 13.3894 47 13.7445C47 14.845 46.1025 15.2445 45.5 15.2445H45.3486L45.3072 15.2169C45.6904 19.6248 47.907 23.4501 47.9307 23.491L48.3408 24.1888L47.5332 24.2435C47.4326 24.2503 47.332 24.2533 47.2314 24.2533C46.4755 24.2533 45.7452 24.0615 45.0905 23.8105C45.7274 28.934 47.8997 32.4417 47.9229 32.4779L48.2568 33.0081L47.666 33.2161C47.1064 33.4134 46.5371 33.4915 45.9844 33.4915C45.822 33.4915 45.6649 33.4738 45.506 33.4612C45.5256 34.7684 45.6121 38.4676 45.9961 45.2474C46.208 48.9896 45.5127 51.6546 43.8691 53.3939C43.7335 53.5374 43.5721 53.6499 43.4249 53.7796C43.7896 53.6809 44.1495 53.582 44.5029 53.4847C46.6367 52.8958 48.6514 52.3402 50.4736 52.2454C55.3416 51.9856 59.7653 53.6039 64 57.1205V58.4216C59.7702 54.692 55.3467 52.9826 50.5264 53.2435C48.8125 53.3333 46.9385 53.8499 44.7686 54.4486C42.7457 55.0062 40.5393 55.607 38.1177 55.9533C37.8876 55.988 37.6569 56.0187 37.4235 56.0458C37.189 56.0738 36.951 56.0965 36.7123 56.1189C36.5423 56.1335 36.3739 56.15 36.2032 56.1615C35.7968 56.1922 35.3836 56.2117 34.9651 56.2236C34.9434 56.2243 34.9219 56.2249 34.9001 56.2255C34.6807 56.2312 34.4659 56.2445 34.2432 56.2445C34.1838 56.2445 34.1258 56.2372 34.0665 56.2368C33.8779 56.2387 33.687 56.2445 33.5 56.2445C31.4758 56.2445 29.7379 56.038 28.2604 55.6501C27.2349 55.4751 26.2166 55.2865 25.2144 55.0911C21.77 54.4212 18.5156 53.7884 15.5757 54.2386C9.78229 55.1285 7.56171 61.0878 6.94165 63.2445H5.90613C6.46057 61.1841 8.79834 54.2687 15.4238 53.2503C18.345 52.802 21.4664 53.348 24.7608 53.9852C24.3417 53.6458 23.96 53.2811 23.6548 52.8656C21.5317 49.973 22.7397 46.1243 23.3203 44.2747C23.4038 44.0081 23.4736 43.7874 23.5151 43.6234C23.562 43.4359 23.5908 43.2259 23.6221 43.0072C23.6841 42.5722 23.775 42.0177 24.0318 41.517C24.9807 35.3906 21.1646 28.1009 20.1489 27.1004L19.813 26.7747C19.0171 26.0081 18.3301 25.346 18.395 24.5384C18.4316 24.0902 18.7075 23.6849 19.2153 23.3333C20.5257 22.4277 21.752 23.2144 22.2986 23.8313C22.4223 23.8236 22.5379 23.828 22.6387 23.8431C22.78 23.8646 22.9152 23.9119 23.0479 23.9661C23.167 22.5591 23.5938 20.94 24.2541 19.4584C23.4971 19.0081 22 17.967 22 16.7445C22 16.1575 22.1758 15.7259 22.522 15.4627C22.9971 15.1014 23.5698 15.245 23.6333 15.2625C25.9307 15.5218 26.7783 14.1204 26.9785 13.6956C26.8848 13.3148 26.5293 12.2445 25.5 12.2445C24.02 12.2445 22.8125 13.1351 22.8003 13.1439L22.5918 13.3001L22.3433 13.2191C20.5107 12.6136 20.1099 10.7323 20.0234 10.0282C18.9644 9.23324 18.998 7.7933 19.0005 7.72836ZM23.9776 32.6646C23.8282 31.421 23.7559 30.3272 23.7563 29.3639C23.4689 28.578 22.7201 27.9541 22.0532 27.4046C21.3096 26.7918 20.6675 26.263 20.6323 25.5311C20.6133 25.1346 20.7861 24.7513 21.1465 24.3909C21.1999 24.3375 21.2526 24.3093 21.3059 24.2649C20.9739 24.0006 20.4121 23.7209 19.7847 24.1556C19.6128 24.2742 19.4058 24.451 19.3921 24.619C19.3647 24.9544 19.9717 25.5389 20.5068 26.0545L20.8511 26.3885C21.5951 27.1215 22.9744 29.587 23.9776 32.6646ZM24.0515 26.3425C23.7131 25.7533 23.0568 24.918 22.4868 24.8314C22.3481 24.8109 22.1353 24.8162 21.8535 25.098C21.7485 25.203 21.625 25.3548 21.6313 25.4827C21.645 25.7728 22.1997 26.2298 22.689 26.6326C23.0582 26.9369 23.472 27.2786 23.8401 27.6767C23.8892 27.1981 23.9619 26.7575 24.0515 26.3425ZM24.4041 25.0892C24.9971 23.4224 25.9451 22.208 27.0435 20.8123C27.3799 20.3846 27.7339 19.9354 28.0991 19.4456C29.2456 17.9086 30.1168 15.6529 30.7481 13.5369C29.6523 14.8763 28.3822 15.9009 27.459 16.6453L27.3145 16.7625C25.3869 18.3186 24.0424 22.1262 24.0067 24.6378C24.1542 24.786 24.2852 24.9377 24.4041 25.0892ZM32.8276 38.1536C32.5146 37.4964 31.9839 37.1654 31.8535 37.1771C31.2269 37.6055 29.8978 38.8032 29.7197 38.9647C29.1262 39.8048 28.4791 40.4871 28.1176 40.8446C28.1734 40.8957 28.2336 40.9398 28.2854 40.9976C29.2296 40.4552 31.151 39.5212 32.6932 39.8263C33.1994 39.2076 33.0015 38.5182 32.8276 38.1536ZM28.9946 41.7482C29.8402 41.3765 31.17 40.9721 32.3853 41.3763C32.9901 41.5767 33.4813 41.9666 33.8784 42.5026C33.8937 42.445 33.9074 42.385 33.9072 42.3158C33.9063 41.9603 33.6504 41.5462 33.168 41.1185C32.2306 40.2882 30.2263 41.0819 28.9946 41.7482ZM28.7559 45.2445C28.7559 45.93 29.314 46.4886 30 46.4886C30.686 46.4886 31.2441 45.93 31.2441 45.2445C31.2441 44.5589 30.686 44.0003 30 44.0003C29.314 44.0003 28.7559 44.5589 28.7559 45.2445ZM30 35.7445C30 33.8411 28.3467 33.221 28.3301 33.2142L28.1465 33.098C27.5172 32.47 25.7859 32.8557 25.1887 33.0501L24.2477 33.536C24.8846 35.7313 25.298 38.1683 25.1486 40.4901C25.5059 40.3418 25.9393 40.2445 26.5 40.2445C26.7503 40.2445 26.9787 40.2843 27.1968 40.3422C28.0057 39.5976 30 37.406 30 35.7445ZM44.998 45.304C44.5983 38.2458 44.5193 34.4964 44.5038 33.3175C43.9743 33.1985 43.4994 33.0348 43.0989 32.8708L43.1846 33.0697L42.6357 33.2259C42.6064 33.2337 42.2109 33.3431 41.6582 33.3431C41.2002 33.3431 40.6357 33.2679 40.082 33.0003C39.2744 32.6087 37.1846 32.3197 36.4473 32.2415L36.0361 32.1981L35.9238 30.8734C35.798 29.4058 35.6702 27.9053 35.5881 26.2445H33.0742L33.0068 25.8245C32.9738 25.6212 32.9585 25.4417 32.9309 25.2458C32.2823 25.6781 31.5956 25.9243 31 26.0618V30.0492L27.5947 31.8076C28.0322 31.8786 28.4481 32.0275 28.7744 32.3167C29.2334 32.5159 31 33.4349 31 35.7445C31 36.0512 30.9528 36.3627 30.8706 36.6734C31.0401 36.5417 31.2026 36.4194 31.3389 36.3284C31.8643 35.9808 32.6123 36.2357 33.25 36.9827C33.9916 37.8527 34.3438 39.1428 33.634 40.2283C33.7002 40.2753 33.7695 40.315 33.832 40.3704C34.5547 41.0111 34.916 41.6751 34.9072 42.3421C34.8992 42.9235 34.6113 43.3231 34.4402 43.5102C34.4484 43.531 34.4598 43.5467 34.4678 43.5677C35.0312 45.0609 35.0361 46.2376 34.4824 47.0667C34.0488 47.7161 33.3857 47.971 32.9512 48.0706C32.7793 48.9915 32.1309 50.2445 30.5 50.2445C28.624 50.2445 27.978 48.64 27.8984 47.7913L28.8945 47.6976C28.9106 47.8538 29.0952 49.2445 30.5 49.2445C31.8818 49.2445 31.9922 47.7806 32.0005 47.6136L32.0229 47.1527L32.4834 47.1351C32.4883 47.1351 33.2695 47.0921 33.6553 46.5052C34.0098 45.9661 33.9668 45.0736 33.5322 43.9212C33.21 43.0677 32.7329 42.5462 32.0732 42.3265C30.9826 41.9599 29.6664 42.5127 29.0376 42.8356C29.0554 42.963 29.0706 43.0843 29.0795 43.203C29.3611 43.0754 29.6712 43.0003 30 43.0003C31.2373 43.0003 32.2441 44.0072 32.2441 45.2445C32.2441 46.4818 31.2373 47.4886 30 47.4886C28.7627 47.4886 27.7559 46.4818 27.7559 45.2445C27.7559 44.8209 27.8807 44.4287 28.0855 44.0903C28.1326 43.5567 28.114 42.307 27.5464 41.6683C27.293 41.3831 26.9507 41.2445 26.5 41.2445C24.8838 41.2445 24.7642 42.0853 24.6118 43.1488C24.5757 43.4027 24.5396 43.6468 24.4849 43.8656C24.4404 44.0443 24.3652 44.2845 24.2744 44.5745C23.7432 46.2669 22.6377 49.7894 24.4609 52.2738C25.2774 53.3851 26.6187 54.1762 28.4335 54.6649C30.2662 54.9773 32.1278 55.2158 34.0109 55.2343C35.0621 55.2227 36.0346 55.1832 36.8987 55.0991C36.9048 55.0985 36.9113 55.0982 36.9174 55.0975C39.9467 54.8003 41.8828 54.0401 43.1426 52.7064C44.5869 51.1781 45.1934 48.7572 44.998 45.304ZM44.0358 23.3313C43.5816 23.086 43.228 22.8534 42.9931 22.6857C42.4393 23.067 41.9084 23.3597 41.4183 23.5778C41.4102 27.2193 42.136 30.085 42.5953 31.5244C43.1166 31.8141 44.9644 32.7421 46.7422 32.4271C46.0432 31.1333 44.4761 27.7923 44.0358 23.3313ZM44.2695 14.525L44.0155 14.3557C44.1349 18.2794 44.9597 20.5452 44.9688 20.5697L45.0781 20.8636L44.8604 21.0907C44.5157 21.4494 44.1732 21.766 43.8358 22.0482C44.4423 22.4455 45.5058 23.0435 46.6465 23.2098C45.8959 21.7186 44.4126 18.3051 44.2695 14.525ZM40.4346 2.74545C41.8066 4.50717 43.2266 7.54574 43.0137 12.4857L45.6309 14.2303C45.8193 14.1932 46 14.0711 46 13.7445C46 13.3929 45.9277 6.10531 40.4346 2.74545ZM40.2225 1.48044C40.5483 1.64694 40.8549 1.82785 41.1501 2.01669C41.2373 1.72146 41.2367 1.48251 41.2021 1.31869C40.8495 1.38907 40.5283 1.43875 40.2225 1.48044ZM28.1262 2.7438C28.4482 3.12405 29.2145 3.89352 30.7118 4.78323C31.002 4.02047 31.3643 3.63931 31.8105 3.68832C32.4668 3.74203 32.7773 4.52865 32.9976 6.69369C33.0431 7.14212 33.0428 7.5704 33.0231 7.98947L33.0371 7.99154C33.0341 8.01181 33.0266 8.06186 33.015 8.13571C32.9681 8.8616 32.8392 9.54751 32.6327 10.1865C32.0689 12.8728 30.8874 17.3803 28.9009 20.0433C28.5298 20.5409 28.1709 20.9969 27.8291 21.431C25.6191 24.2386 24.2534 25.974 24.9121 32.0677L30 29.4398V26.2219C29.7982 26.2383 29.632 26.245 29.5503 26.245C29.5156 26.245 29.4937 26.2445 29.4854 26.2445L29.021 26.2308L29.0005 25.7664C28.8667 22.7611 29.8789 20.3988 30.9507 17.8978C32.1455 15.1092 33.5 11.9486 33.5 7.24447C33.5 3.035 31.4268 2.24887 31.3384 2.21762L31.6558 1.26938C31.772 1.30746 34.5 2.26059 34.5 7.24447C34.5 12.1536 33.1025 15.4144 31.8701 18.2913C30.8652 20.6361 29.9893 22.68 29.9883 25.2196C30.6481 25.1546 31.8607 24.916 32.7844 24.1007C32.4363 20.43 33.0923 18.0112 33.96 14.825L34.0176 14.6131C35.3818 9.60241 35.0068 5.83481 35.0029 5.79721L35.9971 5.69125C36.0146 5.85141 36.3994 9.67171 34.9824 14.8758L34.9248 15.0877C33.9922 18.514 33.3096 21.0194 33.9287 25.2445H35.546C35.5177 24.4536 35.5 23.6271 35.5 22.7445C35.5 20.7645 35.9043 18.5023 36.2959 16.3143C36.626 14.4642 36.9385 12.7171 37 11.224C37.1914 6.59262 36.5303 4.41635 36.5234 4.39486L37.4766 4.09311C37.5059 4.18637 38.1992 6.42953 38 11.265C37.9346 12.826 37.6172 14.6058 37.2803 16.4901C36.8965 18.6351 36.5 20.8529 36.5 22.7445C36.5 25.8944 36.7139 28.3822 36.9199 30.7879L36.9639 31.2962C37.79 31.4012 39.6367 31.6737 40.5176 32.0999C40.9717 32.3206 41.4512 32.3529 41.8096 32.3392C41.3703 31.1002 40.4711 28.0401 40.4268 23.948C39.5632 24.2092 38.9137 24.2479 38.625 24.2479C38.5332 24.2479 38.4775 24.244 38.4629 24.243L37.9033 24.201L38.0088 23.6502C40.2549 11.9329 38.0469 4.96908 38.0244 4.89975L38.9756 4.5892C39.0693 4.87533 41.208 11.6248 39.1084 23.2108C40.0234 23.0931 41.9199 22.6034 43.9287 20.6126C43.6725 19.7948 43.037 17.3808 43.0057 13.6825L41.9854 13.0023L42.001 12.7171C42.4593 4.39334 38.1323 1.81314 37.6719 1.56308C31.157 0.0664321 28.753 2.0328 28.1262 2.7438ZM20.0137 7.98959C20.0527 8.33725 20.1997 8.99301 20.7505 9.31181L20.9883 9.44951L20.9995 9.72541C21.0029 9.80401 21.0908 11.5677 22.437 12.1834C22.9214 11.8763 24.0894 11.2445 25.5 11.2445C27.1631 11.2445 27.8584 12.8275 27.9937 13.6649L28.0137 13.7879L27.9731 13.9066C27.6475 14.8573 26.29 16.5721 23.4424 16.241C23.3408 16.22 23.1978 16.2015 23.1255 16.2601C23.0469 16.3221 23 16.5033 23 16.7445C23 17.3087 23.8864 18.0629 24.6926 18.5563C25.2516 17.5185 25.9213 16.6018 26.686 15.9842L26.8315 15.867C28.3074 14.6771 30.7362 12.7186 31.6649 9.90311C31.8521 9.01138 31.9663 8.35019 32.0164 8.04379C32.0424 7.64029 32.0464 7.2272 32.0024 6.79526C31.9941 6.71292 31.9853 6.65011 31.9767 6.57376C29.286 5.31247 27.9601 4.08017 27.4077 3.44369C25.9404 4.61606 24.9165 6.02182 24.9053 6.03695L24.7646 6.23178L24.5249 6.24399C22.5371 6.34213 20.6304 7.55893 20.0137 7.98959ZM37.0459 37.1566C37.7305 37.1566 38.3525 36.7806 38.8936 36.0394L38.0869 35.4495C37.7441 35.9173 37.3955 36.1556 37.0488 36.1566H37.0459C36.5322 36.1566 36.0391 35.6458 35.8926 35.4476L35.0869 36.0394C35.1201 36.0853 35.916 37.1566 37.0459 37.1566ZM0 27.2445H0.990601L0.990723 24.6527C0.990723 18.9134 5.65967 14.2445 11.3984 14.2445H21.4907V13.2445H11.3984C5.17017 13.2445 0.0992432 18.2641 0 24.4696V27.2445ZM34.1104 28.62C34.1084 28.6263 33.9375 29.2445 33.4902 29.2445C33.0938 29.2445 32.9946 28.7244 32.9844 28.6654L32.4907 28.7445L31.9966 28.8197C32.0713 29.3123 32.4805 30.2445 33.4902 30.2445C34.4658 30.2445 34.9482 29.3797 35.0791 28.869L34.1104 28.62ZM36.9902 45.2445C38.332 45.2445 38.8779 44.3304 38.9795 43.847L38.0029 43.6331C37.9775 43.7347 37.8086 44.2445 36.9902 44.2445C36.1729 44.2445 36.0029 43.7347 35.9775 43.6322L35.001 43.848C35.1025 44.3304 35.6494 45.2445 36.9902 45.2445ZM37.4902 51.7445C36.3789 51.7445 35.9805 50.6312 35.9639 50.5833L35.0156 50.9027C35.041 50.9779 35.6514 52.7445 37.4902 52.7445C39.3291 52.7445 39.9395 50.9779 39.9648 50.9027L39.0166 50.5833C39 50.6312 38.6016 51.7445 37.4902 51.7445Z" fill="#85ACB0"/>
</svg>
