<svg xmlns="http://www.w3.org/2000/svg" width="64" height="64" viewBox="0 0 64 64">
    <g fill="none" fill-rule="evenodd">
        <path d="M0 1H64V65H0z" opacity=".401" />
        <path fill="#85ACB0" fill-rule="nonzero"
            d="M20.336.957l.262.053L26 2.09V5h-.5v2H27v3.691l1 .5v2.918l12 3V19h1v3h-1v2h1v2h.309L42 27.382V30h.39l.5 2h.5l.5 2h.551l.5 4h.483l.499 3h.937l1 3h1.03l1 4h1.576l.499 7h.476l.5 4H58v6H12v-7.707l.5-.501v-.601l.995-.499-.488-32.192h-.214L12 22.707V21H9v-3h2v-1h-1v-2h1v-1H9.382l-2.83-1.415L11.334 9h.459l.296-.296.557-1.113 1.585-.529L20.336.957zM32 59H13v5h26v-1h-4v-2h-3v-2zm11 4h-3v1h3v-1zm14-3H41v2h3v2h13v-4zm-17 1h-4v1h4v-1zm-3-2h-4v1h4v-1zm14-3.466l-13.666.935.126 1.53L38 58v1h13.933l-.375-3h-.524l-.033-.466zm-22.407.034l.407.814v.411l.5.5V58h6.956l-.13-1.573-7.733-.859zM16.5 21H13v1.294l.207.207h.785l.513 33.807-1.005.502v.398l-.5.499v.293l5.5.001v-.293l-.5-.5v-.5l-.49-.49L16 23.5v-1.707l.5-.501v-.293zm5.121-3.514l-.121.026v.782l.5.5v.5l.494.494 1.012 35.914-.506.505v.501l-.5.499V58h6v-.293l-.5-.5v-.588l-.447-.895-.052-.197L25.5 19v-.707l.5-.501v-.91l.996-1.993-3.093-.773c-.25 1.9-.995 3.047-2.282 3.37zM17.5 21.002v.705l-.5.499v1.27l1.49 32.307.51.51v.5l.5.5V58H21v-1h.5v-.207l.5-.501v-.5l.494-.494-.804-28.55-.08.064-2.387-2.983.557-.279-2.038-.815 1.059-1.588-1.301-.145zm33.18 30.033L37.004 52.45l.249 3.03 13.677-.943-.25-3.502zm-22.394.555l.162 2.956 7.796.873-.245-2.972-7.713-.857zm20.092-5.516L36.59 47.427l.33 4.025 13.688-1.415L50.534 49H49.11l-.732-2.926zm-20.342.957l.194 3.546 7.686.854-.326-3.955-7.554-.445zm-.273-4.986l.218 3.982 7.526.45-.33-3.996-7.414-.436zM45 41.551l-8.823.877.33 4.01 11.625-1.342-.024-.096h-.97l-1-3h-1.063l-.075-.449zm-17.51-4.45l.217 3.94 7.387.44-.247-3-7.356-1.38zm16.33.011l-7.977 1.26.252 3.065 8.74-.874-.26-1.563h-.517l-.237-1.888zm-16.546-3.968l.16 2.928 7.328 1.373-.25-3.023-7.238-1.278zM42.609 33h-.056l-7.036 1.406.244 2.966 7.937-1.253-.14-1.119h-.448l-.501-2zm-1.61-2.464l-5.767.412.202 2.454 6.453-1.29L41.609 31H41v-.464zm-13.917-.919l.137 2.502 7.21 1.272-.2-2.434-7.147-1.34zM40.69 27h-.15l-5.557.925.167 2.026 5.85-.417V27.62L40.69 27zm-13.8-.888l.136 2.477 7.118 1.334-.168-2.04-7.086-1.77zM39 24.047l-4.304.391.205 2.487L40 26.076V25h-1v-.953zM26.703 22.69l.13 2.377 7.056 1.763-.197-2.393-6.99-1.747zm-5.097 1.065l-.829.415.87 1.09-.041-1.505zM40 20.5h-5.628l.242 2.941L39 23.042V21h1v-.5zm-13.456-1.839l-.044.045v.267l.145 2.672 6.96 1.74-.24-2.904-6.821-1.82zm-6.64 2.608l.012.008-.658.987 2.332.933-.05-1.746-1.636-.182zm-.138-3.842L18 18.75v1.302l3.512.391-.006-.229-.506-.506v-.5l-.5-.5V17.59c-.258-.02-.503-.075-.734-.163zm-4.821.748l.032-.227c-.085.797-.402 1.484-.94 2.052H17v-1.14l-2.055-.685zM23 11.368l-11 6.418V19h-2v1h2.376l.1-.053c.969-.542 1.46-1.278 1.518-2.25L14 17.5v-.309l4.724-2.362.223.447c.565 1.13 1.333 1.514 2.432 1.239 1.008-.252 1.576-1.453 1.618-3.736L23 12.5v-1.132zm11.055 5.286l.234 2.845h4.71L39 17.891l-4.945-1.237zm-6.493-1.623l.385.193L27 17.117v.631l6.279 1.674-.25-3.024-5.467-1.367zm-9.263 1.128l-2.497 1.247 1.607.536 1.455-1.088c-.18-.17-.348-.37-.502-.597l-.063-.098zm4.248-7.132L12 13.821v2.807l11.424-6.662 2.576.643v-.72l-3.453-.862zM24 11.14v1.36c0 .209-.004.411-.012.607L27 13.86V11.89l-3-.75zM24.5 7h-2.415l-4.976 1.81L9.986 13h1.406l11.06-5.027L26 8.859V8h-1.5V7zm-3.836-4.957L14.77 7.937l-1.416.472-.407.815-.093.13-.647.646h-.54l-3.219 2.414.303.151 7.225-4.25L21.293 3H25v-.09l-4.336-.867zM24.5 4h-2.794l-3.26 3.26 3.383-1.23L22 6h2.5V4z" />
    </g>
</svg>