<svg width="64" height="64" viewBox="0 0 64 64" fill="none" xmlns="http://www.w3.org/2000/svg">
<path d="M27.8708 0.00183105C28.4409 0.00183105 28.9031 0.442658 28.9031 0.986446C28.9031 1.35059 28.6958 1.66856 28.3877 1.83891L28.3861 2.24479L33.7476 6.89414H34.0643V14.7711H35.0966V15.7557H34.0635V19.6941H39.2256V26.5864H39.0276L38.1977 28.1707L39.2119 55.2198C39.7754 55.4041 40.1922 55.8897 40.2508 56.475L40.2579 56.6172L40.257 57.1095H40.774C41.2205 57.1095 41.6228 57.2897 41.9054 57.5781L62.8807 54.1627L63.0544 55.1333L45.7486 57.9504L46.8957 58.0843L47.7733 58.1991L48.5985 58.3189C48.6872 58.3324 48.7749 58.3461 48.8616 58.3599L49.6137 58.486L50.0834 58.5725L50.5272 58.661L50.9444 58.7513L51.3344 58.8434L51.6966 58.9372C51.7546 58.953 51.8115 58.9688 51.8671 58.9847L52.1865 59.081C52.2374 59.0972 52.2869 59.1134 52.3353 59.1297L52.6106 59.2283C53.3048 59.4931 53.6772 59.7733 53.6772 60.0634C53.6772 60.1235 53.6613 60.1831 53.6297 60.2423L53.6816 60.3355C53.9407 60.8299 54.11 61.438 54.1939 62.1609L54.1934 62.0326H62.9676V63.0172H54.1934L54.1925 63.0054L53.2201 63.0298L53.2083 62.745C53.1612 61.9101 53.0085 61.2531 52.7583 60.7758L52.7839 60.8292C52.7286 60.8524 52.6708 60.8755 52.6106 60.8984L52.3353 60.997L52.0304 61.0941C51.9772 61.1101 51.9228 61.1261 51.8671 61.142L51.519 61.2366L51.1428 61.3296L50.7392 61.4208L50.3086 61.5102L49.8518 61.5978L49.3692 61.6833L48.8616 61.7669L48.0543 61.8883L47.1939 62.0048L46.2824 62.1161L45.6473 62.1874L44.655 62.2897L43.6169 62.3862L42.5351 62.4768L41.7905 62.5338L40.2481 62.6392L38.6385 62.7328L37.3902 62.795L36.1088 62.8499L34.7963 62.8975L33.4548 62.9375L31.6243 62.9786L30.2228 62.9999L28.3197 63.0153H26.3897L24.4865 62.9999L22.6232 62.9696L21.2546 62.9375L19.4722 62.8825L18.1699 62.8324L16.8993 62.775L15.2579 62.6875L13.6813 62.5879L12.1743 62.4768L11.0924 62.3862L10.0543 62.2897L9.06204 62.1874L7.81367 62.0425L6.93601 61.9277L6.11082 61.8079C6.02212 61.7943 5.93443 61.7806 5.84776 61.7669L5.09566 61.6408L4.62589 61.5542L4.18212 61.4658L3.76494 61.3754L3.37494 61.2833L3.01273 61.1895C2.95471 61.1738 2.89787 61.1579 2.84223 61.142L2.5228 61.0457C2.47199 61.0296 2.42239 61.0133 2.37403 60.997L2.09873 60.8984C1.89459 60.8206 1.71827 60.7414 1.57106 60.661C1.54325 60.6922 1.51754 60.7304 1.49373 60.7758C1.24357 61.2531 1.0908 61.9101 1.04369 62.745L1.03192 63.0298L0 63.0046C0.0297032 61.9004 0.216067 61.0116 0.570448 60.3355C0.727358 60.0362 0.953985 59.821 1.23418 59.6946C1.41104 59.5356 1.70247 59.3794 2.09873 59.2283L2.37403 59.1297L2.6789 59.0327C2.73214 59.0166 2.78659 59.0007 2.84223 58.9847L3.19033 58.8901L3.5665 58.7971L3.97017 58.7059L4.40072 58.6165L4.85756 58.529L5.34011 58.4434L5.84776 58.3599L6.65501 58.2385L7.51541 58.122L8.42694 58.0106L9.06204 57.9394L10.0543 57.8371L11.0924 57.7405L12.1743 57.6499L12.7804 57.6027C13.0639 57.3 13.4763 57.1095 13.9353 57.1095H14.4506L14.4514 56.6172C14.4514 55.9689 14.8894 55.4182 15.4984 55.2195L16.511 28.1717L15.68 26.5864H15.4837V19.6941H18.5796L18.5805 14.7711H21.6772V6.89414H21.9933L27.3538 2.24577L27.3535 1.8387C27.0456 1.6683 26.8385 1.35044 26.8385 0.986446C26.8385 0.442658 27.3007 0.00183105 27.8708 0.00183105ZM42.3215 58.6209L42.3224 59.9627L41.9223 60.0508C37.4107 61.0439 32.7266 61.5403 27.8708 61.5403C23.0188 61.5403 17.9957 61.0446 12.8018 60.0538L12.3869 59.9747L12.3861 58.6219L11.733 58.6739C11.5308 58.6908 11.3307 58.7081 11.1327 58.7257L9.97064 58.8352L8.8624 58.9526L7.94782 59.0606L7.08624 59.1732C5.55639 59.3839 4.30305 59.6166 3.37727 59.8622C3.22832 59.9017 3.08911 59.9413 2.96002 59.9806L2.70228 60.0634L2.774 60.0873C2.89289 60.1264 3.02208 60.1658 3.1612 60.2053L3.37727 60.2645C4.30305 60.5102 5.55639 60.7428 7.08624 60.9535L7.94782 61.0662L8.8624 61.1742L9.97064 61.2915L11.1327 61.4011C11.3307 61.4186 11.5308 61.4359 11.733 61.4528L12.97 61.5502L14.2531 61.6392L15.5791 61.7197L16.9448 61.7914C17.1755 61.8026 17.4078 61.8135 17.6416 61.8239L19.061 61.8822L20.5124 61.9313L21.9926 61.9709L23.4984 62.0009C24.0043 62.0093 24.5139 62.016 25.0268 62.0211L26.5745 62.0313C26.8339 62.0322 27.094 62.0326 27.3547 62.0326L28.9109 62.0275C29.4269 62.0241 29.9398 62.019 30.4493 62.0123L31.9668 61.9871C32.2178 61.9821 32.4678 61.9767 32.7167 61.9709L34.1969 61.9313L35.6483 61.8822L37.0678 61.8239C37.3015 61.8135 37.5338 61.8026 37.7646 61.7914L39.1303 61.7197L40.4562 61.6392L41.7393 61.5502L42.9763 61.4528C43.1785 61.4359 43.3786 61.4186 43.5766 61.4011L44.7387 61.2915L45.8469 61.1742L46.7615 61.0662L47.6231 60.9535C49.1529 60.7428 50.4063 60.5102 51.3321 60.2645C51.481 60.225 51.6202 60.1855 51.7493 60.1461L52.005 60.0634L51.9613 60.048C51.8455 60.0095 51.7195 59.9707 51.5839 59.9317L51.3731 59.8732C50.8795 59.7406 50.2902 59.6117 49.6133 59.4879L48.9076 59.3659L48.1452 59.2476C47.8818 59.2088 47.6093 59.1707 47.3279 59.1333L46.4575 59.0234C46.3082 59.0055 46.1566 58.9878 46.003 58.9702L44.9177 58.8532L43.7791 58.7439L42.5903 58.6423L42.3215 58.6209ZM40.774 58.0941H13.9353C13.6503 58.0941 13.4192 58.3146 13.4192 58.5864V59.1644L14.0277 59.2775C18.4525 60.0689 22.7472 60.4927 26.912 60.5492L27.8708 60.5557C32.6494 60.5557 37.2556 60.0675 41.6902 59.0914L41.2902 59.1752V58.5864C41.2902 58.3448 41.1076 58.1438 40.8668 58.1021L40.774 58.0941ZM38.7095 56.1249H15.9998C15.7148 56.1249 15.4837 56.3453 15.4837 56.6172V57.1095H39.2256V56.6172C39.2256 56.3755 39.0431 56.1745 38.8023 56.1328L38.7095 56.1249ZM37.1787 28.5557H17.5296L16.5335 55.1403H38.1748L37.1787 28.5557ZM21.1613 48.248C22.0164 48.248 22.7097 48.9092 22.7097 49.7249V52.1864H19.6129V49.7249C19.6129 48.9092 20.3061 48.248 21.1613 48.248ZM21.6774 49.2326H20.6452V51.2018H21.6774V49.2326ZM33.5484 39.3864C34.4035 39.3864 35.0968 40.0477 35.0968 40.8634V43.3249H32V40.8634C32 40.0477 32.6932 39.3864 33.5484 39.3864ZM34.0645 40.3711H33.0323V42.3403H34.0645V40.3711ZM22.1935 30.5249C23.0487 30.5249 23.7419 31.1861 23.7419 32.0018V34.4634H20.6452V32.0018C20.6452 31.1861 21.3384 30.5249 22.1935 30.5249ZM22.7097 31.5095H21.6774V33.4788H22.7097V31.5095ZM33.0312 26.5864H31.999V27.5711H33.0312V26.5864ZM35.0957 26.5864H34.0635V27.5711H35.0957V26.5864ZM37.8735 26.5864H36.128V27.5711H37.3572L37.8735 26.5864ZM18.5796 26.5864H16.8351L17.3511 27.5711H18.5796V26.5864ZM22.7086 26.5864H21.6764V27.5711H22.7086V26.5864ZM26.8377 26.5864H25.8054V27.5711H26.8377V26.5864ZM30.9667 26.5864H29.9345V27.5711H30.9667V26.5864ZM24.7732 26.5864H23.7409V27.5711H24.7732V26.5864ZM20.6441 26.5864H19.6119V27.5711H20.6441V26.5864ZM28.9022 26.5864H27.8699V27.5711H28.9022V26.5864ZM25.8063 23.6326L25.8054 20.6788H22.7086L22.7095 23.6326H21.6772L21.6764 20.6788H18.5805V23.6326H17.5482V20.6788H16.516V25.6018H18.5805V24.6172H19.6127V25.6018H23.7418V24.6172H25.8063V25.6018H28.9031V24.6172H30.9676V25.6018H35.0966V24.6172H36.1289V25.6018H38.1934V20.6788H37.1603L37.1611 23.6326H36.1289L36.128 20.6788H33.0312L33.0321 23.6326H31.9998L31.999 20.6788H28.9022L28.9031 23.6326H25.8063ZM27.8699 20.6788H26.8377L26.8385 22.648H27.8699V20.6788ZM33.0312 15.7557H22.7095L22.7086 19.6941H33.0312V15.7557ZM21.6772 15.7557H19.6127V19.6941H21.6772V15.7557ZM23.7409 7.87875H22.7086L22.7095 14.7711H23.7418L23.7409 7.87875ZM30.9667 7.87875H24.7732L24.774 14.7711H30.9676L30.9667 7.87875ZM33.0312 7.87875H31.999L31.9998 14.7711H33.0321L33.0312 7.87875ZM25.6258 5.07457L23.5272 6.89414H24.481L25.6258 5.07457ZM27.3538 4.2406L25.6846 6.89414H27.3538V4.2406ZM28.3861 4.23962V6.89414H30.0563L28.3861 4.23962ZM30.1151 5.07359L31.2599 6.89414H32.2137L30.1151 5.07359Z" fill="#85ACB0"/>
</svg>
