<svg width="49" height="49" viewBox="0 0 49 49" fill="none" xmlns="http://www.w3.org/2000/svg">
<path fill-rule="evenodd" clip-rule="evenodd" d="M9.33331 12.7891C7.67646 12.7891 6.33331 14.1322 6.33331 15.7891V32.7891C6.33331 34.4459 7.67646 35.7891 9.33331 35.7891H39.3333C40.9902 35.7891 42.3333 34.4459 42.3333 32.7891V15.7891C42.3333 14.1322 40.9902 12.7891 39.3333 12.7891H9.33331ZM4.33331 15.7891C4.33331 13.0276 6.57189 10.7891 9.33331 10.7891H39.3333C42.0947 10.7891 44.3333 13.0276 44.3333 15.7891V32.7891C44.3333 35.5505 42.0947 37.7891 39.3333 37.7891H25.3333V40.7891H29.3333C29.8856 40.7891 30.3333 41.2368 30.3333 41.7891C30.3333 42.3413 29.8856 42.7891 29.3333 42.7891H19.3333C18.781 42.7891 18.3333 42.3413 18.3333 41.7891C18.3333 41.2368 18.781 40.7891 19.3333 40.7891H23.3333V37.7891H9.33331C6.57189 37.7891 4.33331 35.5505 4.33331 32.7891V15.7891ZM34.3313 17.1953C34.3318 17.195 34.3315 17.1951 34.3304 17.1962L34.3283 17.1983L34.3262 17.1962C34.3252 17.1951 34.3249 17.195 34.3253 17.1953L34.3262 17.1962C34.3274 17.1966 34.3285 17.1966 34.3283 17.1966C34.3281 17.1966 34.3293 17.1966 34.3304 17.1962L34.3313 17.1953ZM28.3283 19.1983L28.9162 19.7862C29.6967 20.5667 30.9599 20.5667 31.7404 19.7862L34.3283 17.1983L35.6162 18.4862C36.0067 18.8767 36.6399 18.8767 37.0304 18.4862C37.4209 18.0956 37.4209 17.4625 37.0304 17.072L35.7404 15.782C34.9599 15.0014 33.6967 15.0014 32.9162 15.782L30.3283 18.3698L29.7404 17.782C28.9599 17.0014 27.6967 17.0014 26.9162 17.782L14.3283 30.3698L12.0404 28.082C11.6499 27.6914 11.0167 27.6914 10.6262 28.082C10.2357 28.4725 10.2357 29.1056 10.6262 29.4962L12.9162 31.7862C13.6967 32.5667 14.9599 32.5667 15.7404 31.7862L28.3283 19.1983ZM35.3333 21.7891C35.8856 21.7891 36.3333 22.2368 36.3333 22.7891V23.7891C36.3333 24.3413 35.8856 24.7891 35.3333 24.7891C34.781 24.7891 34.3333 24.3413 34.3333 23.7891V22.7891C34.3333 22.2368 34.781 21.7891 35.3333 21.7891ZM30.6262 23.082C31.0167 22.6914 31.6499 22.6914 32.0404 23.082L33.0404 24.082C33.4309 24.4725 33.4309 25.1056 33.0404 25.4962C32.6499 25.8867 32.0167 25.8867 31.6262 25.4962L30.6262 24.4962C30.2357 24.1056 30.2357 23.4725 30.6262 23.082ZM29.3333 27.7891C29.3333 27.2368 29.781 26.7891 30.3333 26.7891H31.3333C31.8856 26.7891 32.3333 27.2368 32.3333 27.7891C32.3333 28.3413 31.8856 28.7891 31.3333 28.7891H30.3333C29.781 28.7891 29.3333 28.3413 29.3333 27.7891ZM34.3333 27.7891C34.3333 27.2368 34.781 26.7891 35.3333 26.7891H38.3333C38.8856 26.7891 39.3333 27.2368 39.3333 27.7891C39.3333 28.3413 38.8856 28.7891 38.3333 28.7891H37.7475L39.0404 30.082C39.4309 30.4725 39.4309 31.1056 39.0404 31.4962C38.6499 31.8867 38.0167 31.8867 37.6262 31.4962L36.3333 30.2033V30.7891C36.3333 31.3413 35.8856 31.7891 35.3333 31.7891C34.781 31.7891 34.3333 31.3413 34.3333 30.7891V27.7891Z" fill="white"/>
</svg>
