<svg xmlns="http://www.w3.org/2000/svg" width="32" height="32" viewBox="0 0 32 32">
    <g fill="none" fill-rule="evenodd">
        <g>
            <g>
                <g>
                    <g>
                        <g>
                            <g>
                                <path d="M0 0H32V32H0z" transform="translate(-611 -1933) translate(0 1273) translate(324 458) translate(0 169) translate(146 33) translate(141)"/>
                                <g>
                                    <g fill-rule="nonzero">
                                        <g transform="translate(-611 -1933) translate(0 1273) translate(324 458) translate(0 169) translate(146 33) translate(141) translate(4 2) translate(0 6)">
                                            <path fill="#FFF" d="M22.203.013H1.797C.805.013 0 .831 0 1.84v12.322c0 1.008.805 1.826 1.797 1.826h20.406c.992 0 1.797-.818 1.797-1.826V1.839C24 .831 23.195.013 22.203.013z"/>
                                            <ellipse cx="12" cy="8" fill="#ED293F" rx="4.552" ry="4.624"/>
                                            <rect width="23" height="15" x=".5" y=".5" stroke="#000" stroke-opacity=".04" rx="1"/>
                                        </g>
                                    </g>
                                    <g transform="translate(-611 -1933) translate(0 1273) translate(324 458) translate(0 169) translate(146 33) translate(141) translate(4 2) translate(12)">
                                        <rect width="14" height="8" fill="#0E0E0E" rx="1"/>
                                        <path fill="#FFF" fill-rule="nonzero" d="M4.798 6v-.444H2.596l1.128-1.014c.132-.12.255-.24.369-.36.114-.12.211-.243.291-.369.08-.126.143-.259.189-.399.046-.14.069-.292.069-.456 0-.18-.029-.344-.087-.492-.058-.148-.141-.276-.249-.384-.108-.108-.242-.192-.402-.252-.16-.06-.342-.09-.546-.09-.204 0-.381.028-.531.084-.15.056-.278.13-.384.222-.106.092-.194.197-.264.315s-.125.239-.165.363l.45.174c.028-.1.065-.193.111-.279.046-.086.104-.161.174-.225.07-.064.153-.114.249-.15.096-.036.208-.054.336-.054.26 0 .454.072.582.216.128.144.192.332.192.564v.072c0 .204-.066.407-.198.609s-.296.393-.492.573L2.05 5.484V6h2.748zm3.6 0v-.444H6.196l1.128-1.014c.132-.12.255-.24.369-.36.114-.12.211-.243.291-.369.08-.126.143-.259.189-.399.046-.14.069-.292.069-.456 0-.18-.029-.344-.087-.492-.058-.148-.141-.276-.249-.384-.108-.108-.242-.192-.402-.252-.16-.06-.342-.09-.546-.09-.204 0-.381.028-.531.084-.15.056-.278.13-.384.222-.106.092-.194.197-.264.315s-.125.239-.165.363l.45.174c.028-.1.065-.193.111-.279.046-.086.104-.161.174-.225.07-.064.153-.114.249-.15.096-.036.208-.054.336-.054.26 0 .454.072.582.216.128.144.192.332.192.564v.072c0 .204-.066.407-.198.609s-.296.393-.492.573L5.65 5.484V6h2.748zm2.172.072c.22 0 .417-.034.591-.102.174-.068.322-.163.444-.285.122-.122.215-.268.279-.438.064-.17.096-.357.096-.561 0-.204-.031-.386-.093-.546-.062-.16-.149-.295-.261-.405-.112-.11-.244-.195-.396-.255-.152-.06-.318-.09-.498-.09-.22 0-.393.042-.519.126-.126.084-.239.196-.339.336h-.042l.12-1.596h1.836v-.444H9.544l-.15 2.304.426.06c.088-.096.187-.179.297-.249.11-.07.261-.105.453-.105.288 0 .506.076.654.228.148.152.222.366.222.642v.06c0 .276-.074.49-.222.642-.148.152-.366.228-.654.228-.128 0-.238-.013-.33-.039-.092-.026-.173-.063-.243-.111s-.134-.106-.192-.174c-.058-.068-.113-.144-.165-.228l-.378.288c.064.092.135.18.213.264.078.084.169.16.273.228.104.068.223.122.357.162.134.04.289.06.465.06z"/>
                                    </g>
                                </g>
                            </g>
                        </g>
                    </g>
                </g>
            </g>
        </g>
    </g>
</svg>
