<svg width="156" height="112" viewBox="0 0 156 112" fill="none" xmlns="http://www.w3.org/2000/svg">
<rect width="156" height="112" rx="16" fill="#F6F7F8"/>
<path d="M20 55.4974L29.2223 60.9537V51.3084V40.186L20 55.4974Z" fill="#828CAD"/>
<path d="M29.2227 40.186V51.3084V60.9537L38.4558 55.4974L29.2227 40.186Z" fill="#63688E"/>
<path d="M20 57.2532L29.2223 70.254V62.6969L20 57.2532Z" fill="#8A93B3"/>
<path d="M29.2227 62.6969V70.254L38.4558 57.2532L29.2227 62.6969Z" fill="#63688E"/>
<path opacity="0.6" d="M29.2223 51.3086L20 55.4976L29.2223 60.9539V55.4976V51.3086Z" fill="#63688E"/>
<path opacity="0.6" d="M29.2227 51.3086V55.4976V60.9539L38.4558 55.4976L29.2227 51.3086Z" fill="#474A75"/>
<path d="M67.5 45.75C67.9142 45.75 68.25 46.0858 68.25 46.5V53.7595C68.9912 53.1299 69.9512 52.75 71 52.75C73.3472 52.75 75.25 54.6528 75.25 57V61.5C75.25 61.9142 74.9142 62.25 74.5 62.25C74.0858 62.25 73.75 61.9142 73.75 61.5V57C73.75 55.4812 72.5188 54.25 71 54.25C69.4812 54.25 68.25 55.4812 68.25 57V61.5C68.25 61.9142 67.9142 62.25 67.5 62.25C67.0858 62.25 66.75 61.9142 66.75 61.5V46.5C66.75 46.0858 67.0858 45.75 67.5 45.75Z" fill="#63688E"/>
<path d="M125 52.75C123.951 52.75 122.991 53.1299 122.25 53.7595V53.5C122.25 53.0858 121.914 52.75 121.5 52.75C121.086 52.75 120.75 53.0858 120.75 53.5V61.5C120.75 61.9142 121.086 62.25 121.5 62.25C121.914 62.25 122.25 61.9142 122.25 61.5V57C122.25 55.4812 123.481 54.25 125 54.25C126.519 54.25 127.75 55.4812 127.75 57V61.5C127.75 61.9142 128.086 62.25 128.5 62.25C128.914 62.25 129.25 61.9142 129.25 61.5V57C129.25 55.4812 130.481 54.25 132 54.25C133.519 54.25 134.75 55.4812 134.75 57V61.5C134.75 61.9142 135.086 62.25 135.5 62.25C135.914 62.25 136.25 61.9142 136.25 61.5V57C136.25 54.6528 134.347 52.75 132 52.75C130.548 52.75 129.267 53.4778 128.5 54.5884C127.733 53.4778 126.452 52.75 125 52.75Z" fill="#63688E"/>
<path d="M110.75 53.5C110.75 53.0858 110.414 52.75 110 52.75C109.586 52.75 109.25 53.0858 109.25 53.5V58C109.25 60.3472 111.153 62.25 113.5 62.25C114.549 62.25 115.509 61.8701 116.25 61.2405V61.5C116.25 61.9142 116.586 62.25 117 62.25C117.414 62.25 117.75 61.9142 117.75 61.5V53.5C117.75 53.0858 117.414 52.75 117 52.75C116.586 52.75 116.25 53.0858 116.25 53.5V58C116.25 59.5188 115.019 60.75 113.5 60.75C111.981 60.75 110.75 59.5188 110.75 58V53.5Z" fill="#63688E"/>
<path d="M90.7501 53.5V56.4877L90.75 56.5041L90.7501 56.5141V61.5C90.7501 61.9142 91.0859 62.25 91.5001 62.25C91.9143 62.25 92.2501 61.9142 92.2501 61.5V56.5748L92.2571 56.5448C92.2722 56.4813 92.2976 56.3856 92.3366 56.2684C92.4155 56.0318 92.5457 55.7213 92.7492 55.416C93.1423 54.8263 93.8039 54.25 95.0001 54.25C95.4143 54.25 95.7501 53.9142 95.7501 53.5C95.7501 53.0858 95.4143 52.75 95.0001 52.75C93.7805 52.75 92.8879 53.1723 92.2501 53.7272V53.5C92.2501 53.0858 91.9143 52.75 91.5001 52.75C91.0859 52.75 90.7501 53.0858 90.7501 53.5Z" fill="#63688E"/>
<path d="M61.25 50.5C61.25 50.0858 60.9142 49.75 60.5 49.75C60.0858 49.75 59.75 50.0858 59.75 50.5V52.75H58C57.5858 52.75 57.25 53.0858 57.25 53.5C57.25 53.9142 57.5858 54.25 58 54.25H59.75V61.5C59.75 61.9142 60.0858 62.25 60.5 62.25C60.9142 62.25 61.25 61.9142 61.25 61.5V54.25H63C63.4142 54.25 63.75 53.9142 63.75 53.5C63.75 53.0858 63.4142 52.75 63 52.75H61.25V50.5Z" fill="#63688E"/>
<path fill-rule="evenodd" clip-rule="evenodd" d="M50.2527 52.81C49.1376 52.6311 47.9953 52.8552 47.0306 53.4423C46.0659 54.0295 45.3419 54.9411 44.9885 56.0137C44.6352 57.0863 44.6755 58.2497 45.1023 59.2952C45.5291 60.3408 46.3145 61.2001 47.3176 61.7189C48.3206 62.2378 49.4757 62.3823 50.5757 62.1266C51.6757 61.8708 52.6486 61.2315 53.3198 60.3234C53.566 59.9903 53.4956 59.5207 53.1625 59.2745C52.8294 59.0282 52.3598 59.0987 52.1136 59.4318C51.6543 60.0532 50.9886 60.4906 50.236 60.6656C49.4834 60.8405 48.6931 60.7417 48.0068 60.3866C47.3205 60.0316 46.7831 59.4437 46.4911 58.7283C46.4273 58.5722 46.3762 58.4123 46.3377 58.25H53.5C53.9142 58.25 54.25 57.9142 54.25 57.5C54.25 56.3707 53.8476 55.2783 53.1151 54.4188C52.3825 53.5593 51.3677 52.989 50.2527 52.81ZM52.6623 56.75H46.3377C46.359 56.6603 46.3842 56.5712 46.4132 56.483C46.655 55.7491 47.1503 55.1254 47.8104 54.7237C48.4705 54.322 49.2521 54.1686 50.015 54.2911C50.7779 54.4135 51.4723 54.8038 51.9735 55.3918C52.3097 55.7863 52.5443 56.2525 52.6623 56.75Z" fill="#63688E"/>
<path fill-rule="evenodd" clip-rule="evenodd" d="M81.0306 53.4423C81.9953 52.8552 83.1376 52.6311 84.2527 52.81C85.3677 52.989 86.3825 53.5593 87.1151 54.4188C87.8476 55.2783 88.25 56.3707 88.25 57.5V58.25H80.3377C80.3762 58.4123 80.4273 58.5722 80.4911 58.7283C80.7831 59.4437 81.3205 60.0316 82.0068 60.3866C82.6931 60.7417 83.4834 60.8405 84.236 60.6656C84.9886 60.4906 85.6543 60.0532 86.1136 59.4318C86.3598 59.0987 86.8294 59.0282 87.1625 59.2745C87.4956 59.5207 87.566 59.9903 87.3198 60.3234C86.6486 61.2315 85.6757 61.8708 84.5757 62.1266C83.4757 62.3823 82.3206 62.2378 81.3176 61.7189C80.3145 61.2001 79.5291 60.3408 79.1023 59.2952C78.6755 58.2497 78.6352 57.0863 78.9885 56.0137C79.3419 54.9411 80.0659 54.0295 81.0306 53.4423ZM80.3377 56.75H86.6623C86.5443 56.2525 86.3097 55.7863 85.9735 55.3918C85.4723 54.8038 84.7779 54.4135 84.015 54.2911C83.2521 54.1686 82.4705 54.322 81.8104 54.7237C81.1503 55.1254 80.655 55.7491 80.4132 56.483C80.3842 56.5712 80.359 56.6603 80.3377 56.75Z" fill="#63688E"/>
<path fill-rule="evenodd" clip-rule="evenodd" d="M103.253 52.81C102.138 52.6311 100.995 52.8552 100.031 53.4423C99.0659 54.0295 98.3419 54.9411 97.9885 56.0137C97.6352 57.0863 97.6755 58.2497 98.1023 59.2952C98.5291 60.3408 99.3145 61.2001 100.318 61.7189C101.321 62.2378 102.476 62.3823 103.576 62.1266C104.676 61.8708 105.649 61.2315 106.32 60.3234C106.566 59.9903 106.496 59.5207 106.162 59.2745C105.829 59.0282 105.36 59.0987 105.114 59.4318C104.654 60.0532 103.989 60.4906 103.236 60.6656C102.483 60.8405 101.693 60.7417 101.007 60.3866C100.32 60.0316 99.7831 59.4437 99.4911 58.7283C99.4273 58.5722 99.3762 58.4123 99.3377 58.25H107.25V57.5C107.25 56.3707 106.848 55.2783 106.115 54.4188C105.383 53.5593 104.368 52.989 103.253 52.81ZM105.662 56.75H99.3377C99.359 56.6603 99.3842 56.5712 99.4132 56.483C99.655 55.7491 100.15 55.1254 100.81 54.7237C101.47 54.322 102.252 54.1686 103.015 54.2911C103.778 54.4135 104.472 54.8038 104.973 55.3918C105.31 55.7863 105.544 56.2525 105.662 56.75Z" fill="#63688E"/>
</svg>
