<svg width="156" height="112" viewBox="0 0 156 112" fill="none" xmlns="http://www.w3.org/2000/svg">
<rect width="156" height="112" rx="16" fill="#F6F7F8"/>
<path d="M118.814 64.9723L113.28 79.5731C112.852 80.7596 112.148 81.8272 111.225 82.6877C110.339 83.5124 109.179 83.9798 107.968 84H107.581L106.537 83.913V80.4506L107.217 80.5138L107.747 80.5455H107.913C108.1 80.5455 108.286 80.5078 108.458 80.4348C108.66 80.3456 108.844 80.2226 109.004 80.0711C109.449 79.62 109.796 79.0817 110.023 78.4901L110.095 78.3083L104.316 64.9881H108.047L111.865 73.6838L115.154 64.9881H117.209L118.814 64.9723ZM101.818 65.8972C102.914 66.9554 103.491 68.4401 103.399 69.9605V78.419H100.561V76.8379H100.435C100.011 77.4477 99.4472 77.9466 98.7903 78.2925C98.0419 78.692 97.2037 78.8934 96.3555 78.8775C95.4561 78.8832 94.5679 78.6774 93.7626 78.2767C93.0348 77.9277 92.4208 77.3795 91.9919 76.6956C91.5633 75.9799 91.3442 75.1582 91.3595 74.3241C91.3135 73.0302 91.9041 71.7958 92.9405 71.0198C94.0843 70.1824 95.4763 69.7537 96.8931 69.8024C97.6159 69.7934 98.3374 69.8676 99.0433 70.0237C99.5589 70.1368 100.062 70.301 100.545 70.5138V69.8261C100.567 69.0446 100.226 68.2971 99.6203 67.8024C98.9518 67.26 98.109 66.9791 97.2488 67.0119C96.5744 67.0089 95.9085 67.1632 95.3041 67.4625C94.725 67.7325 94.2223 68.1428 93.8417 68.6561L91.8101 67.0751C92.4102 66.2469 93.2095 65.5834 94.1342 65.1462C95.1227 64.6811 96.2038 64.446 97.2962 64.4585C98.9306 64.3533 100.545 64.8669 101.818 65.8972ZM91.897 45.0514C93.7427 45.0817 95.4728 45.9555 96.5927 47.4229L96.6085 47.4625C99.2015 51.016 99.2015 55.8378 96.6085 59.3913C95.4886 60.8587 93.7585 61.7325 91.9128 61.7628C90.3234 61.7608 88.8116 61.0755 87.7626 59.8814V78.4743H83.9049V45.3518H87.7626V46.9328C88.808 45.7429 90.3131 45.0579 91.897 45.0514ZM95.0749 72.6087C94.5642 73.0133 94.2718 73.6332 94.2844 74.2846C94.2687 74.8784 94.5356 75.4445 95.0037 75.8103C95.5294 76.2231 96.1858 76.4334 96.8535 76.4032C97.5227 76.4242 98.1847 76.2601 98.7666 75.9289V75.9051C99.3184 75.5827 99.7742 75.1188 100.087 74.5613C100.401 74.0041 100.564 73.3747 100.561 72.7352C100.115 72.4909 99.6395 72.3049 99.146 72.1818C98.5902 72.0444 98.0188 71.9806 97.4464 71.9921C96.6086 71.9203 95.7716 72.138 95.0749 72.6087ZM69.1618 46.0158C70.3315 46.7056 71.2739 47.7223 71.8733 48.9407C72.5105 50.2441 72.8301 51.6798 72.8061 53.1304C72.8001 53.5011 72.7684 53.8709 72.7112 54.2372H60.3871C60.4259 55.5527 60.9964 56.7963 61.9682 57.6838C63.5992 59.0816 65.935 59.2971 67.7942 58.2213C68.5248 57.7672 69.1264 57.133 69.5413 56.3794L72.4741 57.7708C71.7642 59.0422 70.7445 60.1136 69.5097 60.8854C68.1876 61.673 66.6685 62.0679 65.1302 62.0237C63.6483 62.0402 62.1895 61.655 60.9089 60.9091C59.6707 60.1862 58.6559 59.1359 57.9761 57.8735C57.2616 56.5287 56.8998 55.0246 56.9247 53.502C56.9058 52.0194 57.2476 50.5544 57.9207 49.2332C58.572 47.9429 59.5575 46.8509 60.7745 46.0711C62.0277 45.2931 63.4817 44.9 64.9563 44.9407C66.431 44.8996 67.8878 45.272 69.1618 46.0158ZM79.7863 28V61.8656H75.6994V28H79.7863ZM44.2053 28.5138V44.5692L44.4108 44.419L44.6426 44.2893C45.6564 43.7477 46.7922 43.4707 47.9444 43.4862L48.1843 43.4844C49.9395 43.5042 51.6144 44.2426 52.814 45.5336C54.0331 46.9921 54.667 48.8515 54.5927 50.751V61.3518H50.6401V51.3518C50.6985 50.4791 50.434 49.6153 49.897 48.9249C49.6813 48.6725 49.4109 48.4725 49.1065 48.3399C48.6962 48.179 48.2587 48.0985 47.818 48.1028C46.8529 48.0794 45.9249 48.4743 45.2725 49.1858C44.476 50.2117 44.0849 51.4948 44.1737 52.7905V61.3518H40.2686V28.5138H44.2053ZM91.5729 47.7628C89.8417 47.7708 88.4978 50.2213 88.4978 53.3834C88.4978 56.5455 89.8417 59.0119 91.5729 59.0119C93.312 59.004 94.6559 56.5375 94.6559 53.3834C94.6559 50.2292 93.3041 47.7549 91.5729 47.7628ZM64.9326 47.9289C63.916 47.8996 62.9237 48.2426 62.1421 48.8933C61.3544 49.5982 60.8024 50.5282 60.561 51.5573L69.2804 51.581C69.2277 50.987 69.0441 50.4119 68.7429 49.8972C68.3985 49.3094 67.9013 48.8259 67.3041 48.498C66.5805 48.095 65.7603 47.8982 64.9326 47.9289Z" fill="black"/>
<path d="M78.5296 69.8497C79.4989 69.8497 80.2846 70.6354 80.2846 71.6047V71.6126C80.2846 72.5818 79.4989 73.3675 78.5296 73.3675H41.7549C40.7857 73.3675 40 72.5818 40 71.6126V71.6047C40 70.6354 40.7857 69.8497 41.7549 69.8497H78.5296ZM110.016 29.8497C113.447 29.8497 115.892 30.577 117.352 32.0315C118.776 33.3969 119.569 35.2922 119.541 37.2647C119.533 38.388 119.299 39.4981 118.854 40.5296C118.22 41.8607 117.296 43.033 116.15 43.9604C115.1 44.909 113.999 45.8009 112.854 46.6323L111.368 47.6442C106.704 50.8537 104.369 53.9762 104.364 57.0118V57.7548H120.174V61.0987H100.53V57.9367C100.599 56.0508 101.122 54.2094 102.055 52.5691C103.34 50.3301 105.09 48.392 107.186 46.8853L109.233 45.3043C111.974 43.1962 113.715 41.6152 114.458 40.5612C115.155 39.6138 115.536 38.4719 115.549 37.2964C115.533 36.1028 114.999 34.9751 114.087 34.2054C112.898 33.2392 111.387 32.759 109.858 32.8616C108.541 32.7736 107.233 33.1299 106.142 33.8734C105.417 34.3691 104.969 35.1779 104.933 36.0552V36.245H101.296V36.0473C101.31 34.9433 101.691 33.8753 102.379 33.0118C103.168 32.014 104.188 31.2242 105.352 30.7114C106.825 30.089 108.417 29.795 110.016 29.8497Z" fill="#A9C51A"/>
</svg>
