<svg width="156" height="112" viewBox="0 0 156 112" fill="none" xmlns="http://www.w3.org/2000/svg">
<rect width="156" height="112" rx="16" fill="#F6F7F8"/>
<path d="M38.6025 46.0263C40.5384 45.9977 42.4458 46.4994 44.1196 47.4756L42.4247 51.4831C41.2947 50.7901 40.0157 50.3833 38.6959 50.2974C38.2409 50.2643 37.789 50.3969 37.4244 50.6695C37.1185 50.9558 36.9573 51.3626 36.9829 51.7799C36.9694 52.2243 37.1035 52.6597 37.3656 53.0183C37.8477 53.5923 38.3961 54.1075 39.0002 54.552C39.9012 55.2224 40.6605 56.0631 41.2375 57.0258C41.7377 57.9267 41.9908 58.9451 41.9757 59.9756C42.0721 61.7338 41.3836 63.4437 40.0925 64.6445C38.6131 65.8407 36.7404 66.4448 34.8391 66.3394C33.9397 66.3469 33.0418 66.2399 32.1695 66.017C31.3936 65.8106 30.6599 65.4686 30 65.0076V60.289C30.7699 60.7907 31.597 61.1929 32.4663 61.4912C33.2798 61.7956 34.14 61.9613 35.0093 61.9839C35.5246 62.02 36.0353 61.8694 36.4496 61.559C36.7856 61.2607 36.9679 60.8238 36.9408 60.3734C36.9408 60.1383 36.8895 59.9063 36.7901 59.6954C36.6696 59.4664 36.5189 59.2525 36.3487 59.0596C36.1619 58.8397 35.6526 58.3817 34.8391 57.6615C33.9547 56.9625 33.212 56.0992 32.6546 55.1184C32.1845 54.207 31.9435 53.1961 31.9495 52.1701C31.9359 51.0537 32.2297 49.9539 32.7977 48.9912C33.3612 48.0496 34.1837 47.2903 35.1705 46.8067C36.2357 46.2779 37.4123 46.0112 38.6025 46.0263ZM75.762 46.0007C77.945 45.9796 80.0859 46.5943 81.9239 47.7724L80.0331 51.8899C79.3401 51.4469 78.6049 51.0718 77.8396 50.772C77.1767 50.5189 76.4731 50.3893 75.762 50.3908C74.8069 50.3848 73.8894 50.7675 73.2204 51.4499C72.431 52.2665 71.8495 53.2608 71.5255 54.3486C71.0932 55.6397 70.8777 56.9941 70.8898 58.3561C70.8175 59.3127 71.0706 60.2664 71.6099 61.0603C72.1191 61.669 72.886 61.9989 73.6784 61.9492C74.4031 61.9462 75.1262 61.8543 75.8313 61.678C76.7021 61.4325 77.5518 61.1176 78.3729 60.7379V65.0934C76.6042 65.9115 74.6773 66.3243 72.7293 66.3047C70.8069 66.4252 68.9297 65.693 67.5934 64.3055C66.3897 62.9752 65.7976 61.0845 65.7976 58.6363C65.7674 56.3749 66.2134 54.1316 67.1023 52.0526C67.8329 50.2296 69.0744 48.6583 70.6773 47.5253C72.1779 46.5099 73.9526 45.9781 75.762 46.0007ZM58.8131 46.3065L57.9664 50.6605H53.864L50.8223 66.035H45.816L48.8502 50.662H44.79L45.6382 46.3065H58.8146H58.8131ZM65.662 46.3065L61.7103 66.035H56.618L60.5758 46.305H65.6605L65.662 46.3065ZM94.2205 47.8402C95.4559 48.9445 96.1188 50.5566 96.0163 52.2123C96.1173 54.2311 95.3128 56.1881 93.8213 57.5515C92.1218 58.921 89.975 59.6095 87.7965 59.483H86.6952L85.4071 66.035H80.3977L84.3555 46.3065H89.1358C90.9588 46.1845 92.7667 46.7284 94.2205 47.8402ZM109.729 46.3065L111.296 66.035H106.415L106.27 62.3394H100.551L98.9391 66.035H93.7369L103.279 46.305H109.728L109.729 46.3065ZM119.27 46.3065L120.415 53.6194L124.415 46.305H130L122.16 58.3726L120.61 66.0004H115.593L117.135 58.3726L114.101 46.305H119.27V46.3065ZM105.94 49.4492C105.741 50.2161 105.481 50.9633 105.161 51.6865L102.356 58.1014H106.11L105.889 52.3825V51.221C105.889 50.543 105.889 49.9494 105.94 49.4492ZM89.288 50.6108H88.5257L87.6277 55.1697H88.4744C89.1901 55.1968 89.8801 54.909 90.3637 54.3817C90.8277 53.8198 91.0612 53.1011 91.0175 52.3735C91.0371 51.9034 90.8729 51.4439 90.5595 51.0929C90.2221 50.7614 89.7611 50.5867 89.288 50.6108Z" fill="#F25822"/>
</svg>
