<svg width="156" height="112" viewBox="0 0 156 112" fill="none" xmlns="http://www.w3.org/2000/svg">
<rect width="156" height="112" rx="16" fill="#F6F7F8"/>
<path d="M96.3094 47.4603C96.6925 47.4603 97.0739 47.5023 97.4479 47.5844C97.8329 47.6683 98.2142 47.7741 98.5864 47.9018H102.98V49.2557H100.035V49.3396C100.356 49.7081 100.61 50.1333 100.783 50.5912C100.933 51.0474 101.008 51.5254 101.009 52.0071C101.039 53.1802 100.551 54.306 99.6757 55.0869C98.851 55.886 97.7453 56.3312 96.5958 56.3276C96.5958 56.3276 95.1599 56.3276 95.0577 56.583C95.0577 56.583 93.713 57.7544 95.0577 58.3711C95.6343 58.621 96.2473 58.7816 96.8732 58.8418L97.0775 58.8546C97.3676 58.8746 97.7252 58.9148 98.1357 58.9148H98.4021C99.0498 58.9969 99.5005 58.9969 99.7778 58.9969C100.185 59.0206 100.581 59.1246 100.947 59.3034C101.331 59.4986 101.677 59.7541 101.975 60.0643C102.308 60.4109 102.58 60.8123 102.776 61.2539C102.987 61.772 103.093 62.3267 103.082 62.8868C103.086 63.5218 102.953 64.1512 102.692 64.7333C102.411 65.3317 101.987 65.8517 101.462 66.2513C100.842 66.7129 100.148 67.0596 99.4093 67.2785C98.4605 67.5376 97.4771 67.658 96.4937 67.6379C95.0231 67.7346 93.5561 67.419 92.2552 66.7257C91.3357 66.1673 90.7956 65.1511 90.8503 64.0764C90.8193 63.2171 91.2007 62.3942 91.8757 61.8596C92.6183 61.2922 93.5251 60.9783 94.4611 60.9656V60.7831C94.2057 60.6901 93.9484 60.5861 93.682 60.4638C93.4302 60.3544 93.1949 60.2084 92.9832 60.0332C92.7606 59.8417 92.58 59.6081 92.4505 59.3454C92.2972 59.0261 92.226 58.6721 92.2443 58.3182C92.2498 57.831 92.4158 57.3585 92.7169 56.9753C93.1091 56.5246 93.6018 56.1725 94.1546 55.9481V55.7419C93.4065 55.3697 92.7625 54.8205 92.2753 54.1418C91.8192 53.4776 91.582 52.6894 91.5984 51.883C91.5619 50.6824 92.0436 49.522 92.923 48.7028C93.8426 47.8581 95.0596 47.4129 96.3094 47.4621V47.4603ZM96.9863 61.6553C95.7036 61.5823 94.4812 62.199 94.4812 63.7079C94.4848 63.9396 94.5359 64.1695 94.6271 64.3829C94.7311 64.6274 94.8935 64.8427 95.0979 65.0106C95.3442 65.2131 95.6306 65.3645 95.939 65.4521C96.3586 65.5798 96.7965 65.6382 97.2326 65.6255C97.9624 65.6601 98.6849 65.4503 99.2852 65.0307C99.7833 64.5891 100.077 63.9615 100.095 63.2973C100.135 62.8193 99.9402 62.3522 99.5717 62.0439C99.2068 61.8341 98.7926 61.7319 98.3711 61.7465C97.9095 61.6553 97.4479 61.6553 96.9863 61.6553ZM71.9353 43.3131V46.9257L66.4325 58.9221H72.0375V61.991H61.7744V60.6572L68.476 46.9768H61.9587V43.3131H71.9335H71.9353ZM77.7738 48.1773V61.991H74.0591V48.1792H77.7738V48.1773ZM86.6831 47.4585C87.9493 47.3691 89.1718 47.9347 89.9253 48.9564C89.96 49.0166 89.991 49.0787 90.0165 49.1425C90.4033 50.0402 90.5584 51.0218 90.469 51.9943V61.9928H86.4879V52.569C86.497 51.9432 86.5061 50.9269 85.831 50.6204C85.5847 50.5146 85.3165 50.4744 85.0501 50.5073C84.8221 50.5201 84.6013 50.5857 84.4042 50.7025C83.7784 51.1021 83.7784 52.1986 83.7784 52.8682V61.991H79.7954V47.6665H83.7784V48.4875C84.5922 47.807 85.6212 47.4439 86.6831 47.4603V47.4585ZM96.2163 48.9564C95.9645 48.951 95.7182 49.0221 95.5084 49.1626C95.2986 49.3122 95.1325 49.5129 95.0267 49.7465C94.9027 50.0147 94.8206 50.2975 94.7804 50.5894C94.7293 50.9215 94.7074 51.259 94.7074 51.5947C94.6819 52.257 94.8278 52.9139 95.1271 53.5032C95.3278 53.9393 95.7492 54.2275 96.2273 54.2513C96.7254 54.2567 97.1797 53.9685 97.3859 53.5141C97.6814 52.9412 97.8237 52.3008 97.7964 51.6568C97.8292 50.9762 97.6869 50.2975 97.3859 49.6862C97.1687 49.2374 96.7144 48.9546 96.2181 48.9564H96.2163ZM75.9456 42.4611C76.4328 42.4629 76.8962 42.6727 77.2192 43.0358L77.3651 43.2091C77.637 43.5722 77.7811 44.0156 77.7738 44.4717C77.7848 45.0136 77.5823 45.5372 77.2082 45.9295C76.8798 46.2999 76.4018 46.5061 75.9055 46.4951C75.4202 46.4915 74.9567 46.2835 74.6338 45.9186C73.904 45.092 73.904 43.8514 74.6338 43.0248L74.8163 42.8606C75.1374 42.607 75.5333 42.4665 75.9475 42.4592L75.9456 42.4611Z" fill="#474747"/>
<path d="M140 47.879L134.773 63.2708L134.413 64.298L134.269 64.6538C134.081 65.11 133.911 65.4968 133.747 65.8161C133.503 66.2758 133.214 66.7083 132.884 67.1097L132.64 67.3724C132.295 67.7045 131.886 67.9635 131.437 68.135C130.822 68.3722 130.167 68.4872 129.509 68.4744C129.038 68.4744 128.567 68.4416 128.102 68.3722H127.732V65.7558L128.246 65.838C128.555 65.8854 128.867 65.9073 129.18 65.8982C129.72 65.9383 130.257 65.7777 130.687 65.4475C131.103 65.0333 131.392 64.5097 131.519 63.9386L131.704 63.2909L126.358 47.9592H130.525L133.235 58.4376L135.944 47.9592H139.392L139.996 47.8771L140 47.879ZM121.012 47.7348C122.331 47.6801 123.623 48.118 124.635 48.9664C125.659 49.9571 126.19 51.3529 126.082 52.7742V62.8311H123.331V61.8057C123.07 62.0794 122.769 62.3166 122.439 62.5027C121.709 62.9114 120.882 63.1157 120.049 63.0993C119.417 63.0993 118.793 62.9789 118.209 62.7399C117.655 62.5082 117.158 62.1578 116.753 61.7127C116.345 61.2839 116.027 60.7785 115.819 60.2257L115.695 59.8498C115.549 59.3462 115.476 58.8226 115.48 58.2953C115.465 57.4852 115.655 56.6824 116.035 55.9653C116.429 55.2866 117.02 54.7429 117.728 54.4054C118.54 54.004 119.439 53.8106 120.344 53.8398H123.3V52.8144C123.366 52.1758 123.152 51.5408 122.716 51.0701C122.223 50.6705 121.594 50.4716 120.961 50.5154C120.435 50.4899 119.914 50.6121 119.452 50.8657C119.087 51.1011 118.832 51.4678 118.733 51.8911L118.642 52.2104H115.971V51.7361C116.014 50.5647 116.578 49.4736 117.511 48.762C118.532 48.045 119.762 47.6856 121.01 47.7348H121.012ZM108.964 44.2664C110.59 44.1314 112.207 44.6149 113.491 45.6202L113.743 45.9176C114.622 47.036 115.049 48.4537 114.929 49.8805C114.971 51.0336 114.728 52.1794 114.219 53.2158C113.739 54.1134 112.958 54.8159 112.013 55.1954L111.429 55.3669C110.453 55.6242 109.444 55.7464 108.432 55.73V62.6067H104.511V44.2664H108.964ZM123.026 56.52L120.746 56.551C120.271 56.5018 119.8 56.6952 119.496 57.0637C119.222 57.4815 119.091 57.9723 119.114 58.4686C119.071 59.0415 119.242 59.609 119.598 60.0614L119.742 60.2056C120.045 60.4756 120.439 60.6252 120.85 60.6252C121.474 60.6252 122.056 60.3169 122.41 59.8042C122.842 59.2094 123.059 58.485 123.026 57.7516V56.52ZM108.689 47.2696L108.432 47.2842V52.672C109.092 52.7195 109.751 52.5553 110.311 52.1977C110.787 51.6284 111.004 50.884 110.904 50.1469C110.975 49.3587 110.76 48.5723 110.3 47.9301C109.804 47.4484 109.12 47.2112 108.432 47.2842L108.689 47.2696Z" fill="#72C579"/>
<path d="M39.6157 66.6111C39.6339 66.6603 39.6522 66.7078 39.6777 66.7534C39.7744 66.9796 39.9021 67.1913 40.0572 67.3792C40.1886 67.5616 40.3364 67.7295 40.4988 67.8828C40.8272 68.1893 41.1976 68.4484 41.5971 68.6527C41.8234 68.7604 42.0569 68.8534 42.2941 68.9301C42.8944 68.6691 43.5403 68.5323 44.1935 68.5287C44.5912 68.5323 44.9871 68.5834 45.3739 68.6837C46.8573 67.8755 47.713 66.2589 47.5488 64.5785C47.651 62.6445 46.3537 60.9167 44.4708 60.4733C44.1971 60.5098 43.9234 60.528 43.6498 60.5335C41.8325 60.5335 39.4004 59.8055 38.5173 58.0193C37.9736 56.8698 38.5173 55.5872 38.2418 54.3976C37.9754 53.3886 37.366 52.5073 36.5176 51.9034C35.7659 51.356 34.8591 51.0641 33.9304 51.0714C32.2847 51.0076 30.763 51.949 30.0879 53.4506C29.411 54.954 29.7121 56.7166 30.8506 57.9062C31.6169 58.7454 32.6751 59.2563 33.8063 59.333H34.3519C36.1144 59.3749 37.7601 60.2288 38.8074 61.6501C39.8547 63.0678 40.1886 64.8923 39.7087 66.5892L39.6175 66.6092L39.6157 66.6111Z" fill="#A8E2C1"/>
<path d="M28.8 65.9933C28.7562 65.7342 28.727 65.4751 28.7179 65.2124V65.0281C28.7124 63.0303 29.767 61.1783 31.4876 60.1639H31.5387C32.3725 59.695 33.3121 59.4469 34.27 59.445C34.7517 59.445 34.7937 59.1586 35.2443 59.2717C36.9411 58.7262 38.1508 57.2264 38.3241 55.4529C38.3533 54.2852 37.8863 53.1595 37.0342 52.3585C36.184 51.5557 35.0327 51.1543 33.8686 51.2547C31.4602 51.355 29.5901 53.3839 29.6813 55.7923C29.8364 57.6114 28.9971 59.3739 27.4845 60.3993C25.9355 61.2313 24.1401 60.6255 22.6422 61.6527C21.0311 62.6581 20.2575 64.5902 20.7282 66.4294C21.199 68.2685 22.8028 69.5931 24.6985 69.7044C26.5942 69.8139 28.3421 68.6882 29.0244 66.9165C28.9259 66.6155 28.8493 66.3071 28.8 65.9933Z" fill="#93D9E5"/>
<path d="M53.5023 70.0051C52.4075 70.089 51.3128 69.8537 50.3513 69.3282C49.5795 68.9487 48.9318 68.3576 48.483 67.6241C47.8973 66.7319 47.5853 65.6864 47.5889 64.6172C47.5908 63.9987 47.6966 63.3857 47.8991 62.8018C46.9467 61.0503 44.916 60.1854 42.9966 60.7109C41.0753 61.2382 39.7671 63.0171 39.8419 65.0077C39.8127 66.6589 40.7743 68.1678 42.285 68.8356C42.7776 68.6513 43.2976 68.5437 43.8231 68.5181C46.3993 68.3466 48.6545 70.2241 48.9555 72.7875C49.1927 74.0282 48.9555 75.3419 49.6543 76.5224C50.4389 77.878 51.8839 78.7137 53.4494 78.7191C55.7811 78.606 57.6093 76.6848 57.6093 74.3512C57.6093 72.0194 55.7811 70.0982 53.4494 69.985L53.5023 70.0051Z" fill="#A8E2C1"/>
<path d="M33.9301 50.7722C32.7679 50.8927 31.5947 50.6865 30.5437 50.1774C29.8139 49.7487 29.2118 49.132 28.7976 48.3912C28.628 48.0409 28.5148 47.6669 28.4601 47.2837C28.2448 46.335 28.2448 45.3497 28.4601 44.3991C27.6847 42.3137 25.466 41.1478 23.3076 41.6897C21.151 42.2316 19.7479 44.3097 20.0508 46.5119C20.3537 48.716 22.2658 50.3398 24.4881 50.2796C25.5445 50.2139 26.5954 50.4675 27.5059 51.0094C28.1445 51.3853 28.6772 51.9181 29.0567 52.5585C29.9581 54.0966 29.3012 55.7095 30.2244 57.2384C31.2334 58.917 33.2313 59.7289 35.1252 59.2235C37.0172 58.7181 38.3473 57.0213 38.3838 55.0636C38.3619 53.9032 37.8821 52.7993 37.0464 51.9947C36.2108 51.1901 35.0905 50.7504 33.9301 50.7722Z" fill="#93D9E5"/>
<path d="M33.6017 32.0031C31.6202 32.0542 29.9289 33.4445 29.4965 35.3785C29.3213 36.3035 29.3432 37.2578 29.179 38.181C29.0549 38.9637 28.7484 39.7045 28.285 40.3467C27.8161 40.989 27.1246 41.4305 26.3455 41.5874C25.6631 41.6422 24.9771 41.6422 24.2929 41.5874C22.1618 41.6239 20.3683 43.193 20.049 45.3004C19.7315 47.4077 20.985 49.4366 23.0102 50.0971C25.0172 50.7138 27.1829 49.8617 28.2339 48.0445C28.3251 47.8803 28.389 47.7051 28.4182 47.5208C28.4546 47.2782 28.4546 47.0337 28.4182 46.791C28.2375 45.7091 28.3634 44.5961 28.7776 43.5798C29.2064 42.5581 30.0055 41.737 31.0145 41.2809C32.3391 40.7153 33.879 40.9525 35.2438 40.469C36.8676 39.8395 37.9623 38.3087 38.0353 36.5699C38.0992 35.3621 37.6558 34.1816 36.8129 33.3149C35.9663 32.4483 34.7986 31.9721 33.5889 32.0013H33.5999L33.6017 32.0031Z" fill="#93D9E5"/>
<path d="M53.2358 50.8887C50.8237 50.9508 48.9189 52.9523 48.9755 55.3625C49.0448 56.4189 48.793 57.4698 48.2584 58.3803C47.8716 59.0134 47.3407 59.5444 46.7075 59.9312C45.1567 60.8343 43.3613 60.2286 41.8324 61.1518C40.4913 62.0367 39.7305 63.5748 39.8418 65.1767C39.9513 66.7787 40.9183 68.1982 42.367 68.8897C42.9472 68.6525 43.5675 68.5321 44.1933 68.5302C44.7772 68.5302 45.3537 68.6397 45.8974 68.8495C46.7805 68.4299 47.503 67.7293 47.9501 66.8571C47.6709 66.1729 47.5286 65.4413 47.5304 64.7042C47.4611 62.4144 48.8733 60.3435 51.0281 59.5717C51.4167 59.4349 51.8272 59.3692 52.2396 59.3765H52.4038C53.4675 59.5553 54.5586 59.4312 55.5548 59.0171C56.9268 58.2106 57.757 56.7291 57.7296 55.1381C57.6986 53.9777 57.206 52.8775 56.363 52.082C55.5201 51.2846 54.3943 50.8559 53.2358 50.8887Z" fill="#A8E2C1"/>
<path d="M47.6107 64.5972C47.6107 63.9203 47.7366 63.247 47.9811 62.6157C47.1527 61.3075 45.7004 60.5285 44.1513 60.5631C43.8831 60.5741 43.6168 60.6051 43.3522 60.6543C43.0931 60.7109 42.8395 60.7857 42.5932 60.8824C42.3542 60.9828 42.1243 61.1032 41.9053 61.24C41.6864 61.3732 41.4857 61.5283 41.2996 61.7035C41.1062 61.8731 40.931 62.0629 40.7759 62.2672C40.619 62.4698 40.484 62.6869 40.3654 62.9131C40.2414 63.1394 40.1392 63.3766 40.0571 63.6211C39.9823 63.8765 39.9275 64.1374 39.8929 64.402C39.8929 64.7723 39.8929 65.15 39.8308 65.5204C39.8254 65.6956 39.8071 65.8707 39.7797 66.0441C39.756 66.2101 39.7214 66.3743 39.6776 66.5367C39.5736 66.8614 39.4422 67.1771 39.2871 67.4818C39.1849 67.6843 39.0718 67.8832 38.9496 68.0766C37.9899 69.7242 36.1945 70.7039 34.2897 70.6218C34.0105 70.6127 33.7332 70.589 33.4577 70.5488C33.1566 70.6346 32.8684 70.755 32.5965 70.9083C31.2427 71.7293 30.4308 73.2072 30.4618 74.7891C30.5202 77.2303 32.5491 79.1625 34.9921 79.1041C37.437 79.0439 39.3674 77.015 39.3072 74.572C39.2451 73.7327 39.3491 72.8879 39.6174 72.0906C40.1702 69.9851 42.0805 68.5236 44.2553 68.5382C44.914 68.5382 45.5672 68.6714 46.1748 68.9287C47.0232 68.5127 47.7165 67.8358 48.1544 66.9983C47.7931 66.2502 47.607 65.4292 47.6107 64.5972Z" fill="#81D9B9"/>
<path d="M43.712 68.5281C45.8543 68.5281 47.591 66.7408 47.591 64.536C47.591 62.3313 45.8543 60.5439 43.712 60.5439C41.5697 60.5439 39.833 62.3313 39.833 64.536C39.833 66.7408 41.5697 68.5281 43.712 68.5281Z" fill="#81D9B9"/>
<path d="M35.9824 70.417C35.4807 70.5575 34.9625 70.6304 34.4425 70.6323H34.2382C31.151 70.6104 28.6642 68.0962 28.6751 65.009V64.9269V64.7627V64.3102C28.6861 64.1643 28.7061 64.022 28.7372 63.8796C28.7664 63.6972 28.8083 63.5147 28.8594 63.3359C28.0511 61.8872 26.5057 61.0042 24.8454 61.0479C23.2416 61.0206 21.751 61.8745 20.9628 63.2739C20.1746 64.6733 20.2184 66.3902 21.0723 67.7495C21.9298 69.107 23.4606 69.8879 25.0625 69.7802C26.139 69.7091 27.21 69.959 28.1405 70.4991C28.8193 70.8512 29.3976 71.3657 29.8246 71.9989C30.7478 73.5479 30.1329 75.3432 31.0762 76.8722C31.9338 78.1968 33.4208 78.9759 34.9972 78.9248C37.1939 78.9248 39.0458 77.2827 39.3067 75.1006C39.5695 72.9184 38.1573 70.8859 36.0226 70.3659L35.9824 70.417Z" fill="#93D9E5"/>
<path d="M39.3072 74.5095C39.2451 72.5518 37.8859 70.8732 35.9829 70.4043H35.8588C35.7256 70.4043 35.5833 70.4663 35.4483 70.4973H34.2386C33.974 70.4937 33.7095 70.4718 33.4486 70.4353C33.1493 70.5156 32.8647 70.6324 32.5965 70.7856C31.2427 71.6067 30.4308 73.0845 30.4618 74.6646C30.4873 76.075 31.219 77.3777 32.4122 78.1331L32.5856 78.2462C32.7936 78.3739 33.0125 78.4816 33.2424 78.5637H33.3446C33.5617 78.6366 33.777 78.6877 33.9923 78.7388H34.1875C34.4466 78.7644 34.7075 78.7644 34.9666 78.7388C37.3075 78.7078 39.216 76.8504 39.309 74.5113L39.3072 74.5095Z" fill="#81D9B9"/>
<path d="M34.0012 59.3517C36.4105 59.3517 38.3636 57.4312 38.3636 55.0622C38.3636 52.6932 36.4105 50.7727 34.0012 50.7727C31.5918 50.7727 29.6387 52.6932 29.6387 55.0622C29.6387 57.4312 31.5918 59.3517 34.0012 59.3517Z" fill="#81D9B9"/>
</svg>
