<svg width="156" height="112" viewBox="0 0 156 112" fill="none" xmlns="http://www.w3.org/2000/svg">
<rect width="156" height="112" rx="16" fill="#F6F7F8"/>
<path fill-rule="evenodd" clip-rule="evenodd" d="M128.163 49.2956C126.893 48.4489 124.96 48 122.435 48H115.817L113.351 61.1518H104.682L105.232 58.2021H110.503L111.121 54.8546H105.86L106.418 51.8808H111.8L112.52 48.0241H101.589L99.2496 60.4829H95.2498L97.597 48.0331H91.8602L89.5462 60.4814H85.6398L87.996 48.0331H82.2848L79.8187 61.1593H71.081L71.6323 58.2021H76.878L77.4957 54.8124H72.259L72.8195 51.8295H78.3016L78.9705 48.0331H44.9129L42.9725 58.4567L39.1174 48.0331H33.1848L30 64.9813H35.6599L37.6259 54.3032L41.338 64.9813H61.6246L64.0908 51.8205H67.2846L64.7943 64.9813H118.18L119.732 56.676L122.274 64.9813H127.943L125.35 58.2021L125.934 58.0755C127.125 57.8706 128.203 57.2469 128.978 56.3204C129.689 55.3322 130.047 54.1315 129.993 52.9142C130.079 51.468 129.38 50.085 128.163 49.2956ZM56.6938 61.1593H48.0314L48.5918 58.2021H54.0228L54.6419 54.8124H49.2607L49.7774 51.8551H58.4293L56.6923 61.1593H56.6938ZM123.494 55.4316C122.726 55.8775 121.838 56.0809 120.952 56.0161H119.826L120.672 51.4484H121.52C122.245 51.4032 122.97 51.5569 123.613 51.8973C124.163 52.2348 124.487 52.8449 124.46 53.4912C124.499 54.2595 124.133 54.9932 123.495 55.4226V55.4316H123.494Z" fill="#8DC640"/>
</svg>
