<svg width="156" height="112" viewBox="0 0 156 112" fill="none" xmlns="http://www.w3.org/2000/svg">
<rect width="156" height="112" rx="16" fill="#F6F7F8"/>
<path fill-rule="evenodd" clip-rule="evenodd" d="M21.4619 26H134.539V86H21.4619V26Z" fill="#FFCE00"/>
<path fill-rule="evenodd" clip-rule="evenodd" d="M60.9703 59.9779C59.0166 61.711 56.9279 63.2848 54.7241 64.6844C50.1752 67.6104 45.1001 70.0885 40.0647 72.0505C38.3957 72.7026 36.4211 73.0768 34.7577 72.2092C33.697 71.6297 32.9079 70.6533 32.5625 69.4931C32.2796 68.6368 32.1608 67.6274 31.9967 66.7372C30.7124 59.5186 31.2668 51.0978 32.7152 43.8962C33.0773 42.11 33.926 39.6944 35.8214 39.0536C36.7266 38.7474 37.7563 38.7644 38.6899 38.9629C38.9848 39.0294 39.2742 39.1185 39.5555 39.2294C45.7564 41.5373 51.3011 44.4293 56.5176 48.5291C57.9943 49.6859 59.6124 50.8937 60.9703 52.1866C61.8529 53.0315 62.6733 53.9898 62.8939 55.2316C62.9519 55.5705 62.9671 55.9153 62.9392 56.258C62.8829 56.9802 62.679 57.6831 62.3403 58.323C62.0016 58.9629 61.5353 59.5262 60.9703 59.9779Z" fill="#FEFEFE"/>
<path fill-rule="evenodd" clip-rule="evenodd" d="M33.7676 69.0904C34.2203 70.457 35.5725 72.4304 39.6008 70.8653C45.417 68.5971 54.1131 64.4463 60.1669 58.9799C60.1669 58.9799 61.5191 58.0386 61.6662 56.1616C61.8077 54.2903 60.3536 53.1619 55.7312 49.5327C51.1823 45.9546 46.0847 43.023 39.1086 40.4259C38.1922 40.0481 37.1753 39.9921 36.2231 40.2671C35.0406 40.664 34.3108 42.4162 33.96 44.1457C33.6262 45.7959 31.4706 56.5529 33.2471 66.5103C33.3716 67.2135 33.5526 68.444 33.7676 69.0904Z" fill="#FFB700"/>
<path fill-rule="evenodd" clip-rule="evenodd" d="M34.5484 42.1894C34.3447 42.8869 34.1749 43.7885 34.0788 44.9567L34.0844 44.9283C35.2669 44.5257 36.9473 44.3669 39.3349 44.6618C46.9503 45.6031 54.7693 49.907 59.007 52.4928L60.1555 53.1789C59.8133 52.8518 59.4604 52.536 59.0975 52.232L59.0183 52.1582L58.9731 52.1242C58.8885 52.054 58.8036 51.984 58.7185 51.9144L58.6732 51.8747L58.5883 51.801L58.5431 51.767L58.4978 51.7273L58.4016 51.6536L58.3564 51.6139L58.2658 51.5402L58.2149 51.5005L58.1187 51.4211L58.0735 51.3814L57.717 51.1035L57.6152 51.0185L57.5643 50.9788L57.5077 50.9334L57.4568 50.8937L57.4002 50.8484L57.2927 50.7633L57.1795 50.6726L57.1343 50.6385L57.1286 50.6329L56.9589 50.4968L56.9476 50.4911L56.8967 50.4514L56.7269 50.3153L56.6647 50.2643L56.6081 50.2189L56.5572 50.1849L56.5459 50.1736L56.4836 50.1225L56.4271 50.0772L56.3648 50.0318L56.3592 50.0261L56.3026 49.9808L56.2404 49.9297L56.1781 49.8844L56.1555 49.8617L56.1159 49.8333L56.0536 49.7823L55.9858 49.7369L55.9461 49.6972L55.9235 49.6859L55.8613 49.6349L55.7934 49.5838L55.7312 49.5327C51.1823 45.9546 46.0847 43.023 39.1086 40.4259C38.1925 40.0468 37.1751 39.9908 36.2231 40.2671L36.1778 40.2841H36.1665L36.1156 40.3068H36.1099L36.0646 40.3295H36.059C36.0438 40.3369 36.0287 40.3444 36.0137 40.3522L36.0024 40.3579C35.9872 40.3652 35.9721 40.3727 35.9572 40.3805L35.9515 40.3862L35.9119 40.4089L35.9006 40.4146L35.861 40.4372L35.8497 40.4486L35.8044 40.4713L35.7987 40.4769L35.7591 40.5053L35.7478 40.511L35.7082 40.5393L35.6969 40.5507L35.6573 40.5847H35.6516L35.612 40.6187L35.6064 40.6244L35.5611 40.6584L35.5554 40.6697L35.5158 40.7038L35.5102 40.7094L35.4706 40.7434L35.4649 40.7548C35.4516 40.7679 35.4384 40.7811 35.4253 40.7945L35.3348 40.8852L35.3291 40.8966L35.2895 40.9419L35.2839 40.9476L35.2499 40.9873L35.2443 40.9986L35.2103 41.0383L35.199 41.0497C35.1876 41.0647 35.1763 41.0798 35.1651 41.095V41.1007L35.1594 41.1064L35.1255 41.1461L35.1198 41.1631L35.0858 41.2084L35.0745 41.2198L35.0406 41.2708L34.5484 42.1894ZM34.6219 42.1214L34.6163 42.1271L34.5823 42.1838L34.5766 42.1894L34.5427 42.2405V42.2461L34.5088 42.3028L34.5031 42.3142L34.4692 42.3709L34.4635 42.3766L34.4409 42.4276L34.4295 42.4389L34.3673 42.5637L34.3617 42.5694V42.575L34.3334 42.6261L34.2994 42.6941L34.2938 42.7111L34.2655 42.7678L34.2598 42.7735L34.2315 42.8359L34.2259 42.8472L34.1976 42.9096L34.1919 42.9209L34.6219 42.1214Z" fill="#FFDF77"/>
<path fill-rule="evenodd" clip-rule="evenodd" d="M34.0844 44.9283C35.2669 44.5257 36.9473 44.3669 39.3349 44.6618C46.9503 45.6031 54.7693 49.907 59.007 52.4928C55.4596 62.7735 39.895 70.1282 39.895 70.1282C38.0336 68.2626 36.24 66.5274 34.5087 53.6609C33.9826 49.7483 33.9203 46.9413 34.0844 44.9283Z" fill="#FFCE00"/>
<path d="M70.317 40.9646C71.9917 40.7491 73.6834 40.7548 75.3694 40.7718C76.4953 40.8001 77.6552 41.0837 78.5661 41.7585C79.3355 42.3482 79.3695 43.4143 79.3242 44.2989C79.2507 45.7959 78.9565 47.4063 77.8475 48.5064C76.9003 49.4384 75.6525 50.0014 74.3284 50.0942C73.0837 50.2643 71.8163 50.3096 70.566 50.1339C70.2604 51.3473 69.9436 52.5552 69.706 53.7857C69.6437 54.1429 69.4966 54.5682 69.0949 54.6589C68.6253 54.744 68.1388 54.6419 67.6635 54.676C67.375 54.676 67.0694 54.7383 66.7979 54.6136C66.5433 54.4661 66.7017 54.1316 66.7073 53.8991L67.7653 48.7559C67.8615 48.2569 67.9464 47.7522 68.1218 47.2759C69.4797 47.2532 70.8375 47.2646 72.1897 47.2646C72.4104 47.2419 72.5971 47.3496 72.7838 47.4403C72.6989 47.8283 72.6478 48.223 72.631 48.6198C73.327 48.2342 73.921 47.6955 74.5377 47.2022C75.2336 46.6068 75.9352 46.017 76.5576 45.3479C75.6467 44.2025 74.7131 43.0797 73.7852 41.9456C73.5193 42.3255 73.6721 42.9549 73.2195 43.1874C72.5745 43.3292 71.9012 43.2271 71.2449 43.2328C70.4641 43.1874 69.6777 43.3462 68.9082 43.1534C68.9365 42.5467 68.9705 41.9002 69.2873 41.3729C69.5023 41.0326 69.9606 41.027 70.317 40.9646ZM81.2705 44.9793C82.5718 44.6561 83.9976 44.5257 85.2762 45.0304C85.605 45.1536 85.8984 45.3562 86.1304 45.6203C86.3623 45.8845 86.5256 46.2019 86.6058 46.5444C86.9113 47.7466 86.47 48.9544 86.3003 50.1509C86.1192 51.387 85.8873 52.6119 85.6779 53.8481C85.6157 54.2677 85.4233 54.7497 84.9594 54.8574C83.6807 55.192 82.3398 55.2884 81.0272 55.2033C80.0993 55.1126 79.047 54.9141 78.4756 54.1032C77.8985 53.3037 78.0399 52.249 78.2549 51.3473C78.3423 50.9036 78.5393 50.4889 78.8279 50.1412C79.1165 49.7935 79.4875 49.5238 79.907 49.357C80.9706 48.9771 82.1192 49.0168 83.2281 48.9487C83.5053 48.909 83.8391 48.9714 84.0768 48.7729C84.2578 48.3193 84.3201 47.7919 84.173 47.3213C83.9636 46.7939 83.313 46.7259 82.8207 46.7542C81.791 46.7485 80.8066 47.0604 79.8391 47.378C79.7259 46.8506 79.5618 46.2439 79.8787 45.7505C80.1786 45.2685 80.7613 45.1211 81.2705 44.9793ZM80.6142 51.5401C80.5124 51.9484 80.3653 52.4134 80.5633 52.816C81.0329 53.4001 81.8646 53.5078 82.5605 53.3887C82.9056 53.3377 83.4205 53.2583 83.4431 52.816C83.494 52.0902 83.7939 51.3814 83.6637 50.6499C82.8999 50.6102 82.1192 50.5818 81.3667 50.7463C80.9876 50.8313 80.7217 51.1772 80.6142 51.5401ZM90.5493 45.0701C92.2127 44.4576 94.0345 44.7071 95.7318 45.019C96.0487 45.1041 96.4277 45.1041 96.6767 45.3479C96.8521 45.5804 96.7672 45.8866 96.7276 46.1475C96.1449 49.3456 95.63 52.5608 94.9963 55.7477C94.7983 56.689 94.357 57.687 93.4744 58.1633C92.422 58.7474 91.1773 58.6737 90.0175 58.6964C88.9481 58.7134 87.7883 58.4752 87.0132 57.6984C86.8095 57.2164 87.1263 56.7344 87.2904 56.2977C87.5393 56.3091 87.7939 56.3261 88.0372 56.3941C89.2634 56.7355 90.5484 56.809 91.8053 56.6096C92.4729 56.4452 92.6031 55.6796 92.6596 55.0956C91.4772 55.26 90.2098 55.3394 89.1066 54.795C88.658 54.5763 88.274 54.2443 87.9922 53.8316C87.7105 53.419 87.5408 52.94 87.4997 52.4418C87.3696 50.6555 87.726 48.8523 88.3767 47.1908C88.5672 46.7027 88.8596 46.2609 89.2343 45.8951C89.609 45.5294 90.0573 45.2481 90.5493 45.0701ZM92.3372 46.6521C92.0027 46.7185 91.6847 46.8503 91.4012 47.04C91.1177 47.2298 90.8743 47.4737 90.6851 47.7579C90.3739 48.2456 90.2834 48.8296 90.1532 49.3853C89.9609 50.3777 89.7572 51.4041 89.9382 52.4191C90.0005 52.8557 90.4305 53.0825 90.8209 53.1733C91.5111 53.3264 92.2353 53.2356 92.9142 53.0598C93.1406 53.0145 93.1462 52.748 93.1971 52.5665C93.497 50.905 93.7629 49.2322 94.0628 47.5708C94.0854 47.3496 94.159 47.1058 94.0458 46.896C93.5366 46.6011 92.9086 46.5444 92.3372 46.6521ZM101.497 44.7355C102.527 44.5654 103.636 44.6674 104.564 45.1778C105.017 45.4472 105.396 45.8249 105.667 46.2771C105.939 46.7294 106.094 47.242 106.12 47.7692C106.182 48.9771 105.938 50.1792 105.644 51.3473C105.384 52.3227 104.971 53.3037 104.213 54.0012C102.912 55.2657 100.869 55.5322 99.1887 54.9708C98.7361 54.802 98.3325 54.5228 98.0144 54.1585C97.6963 53.7942 97.4738 53.3562 97.3669 52.8841C96.9256 51.268 97.2934 49.5611 97.7969 48.0074C98.0607 47.1776 98.5442 46.435 99.1958 45.8588C99.8474 45.2827 100.643 44.8944 101.497 44.7355ZM101.52 46.9357C101.194 47.0389 100.899 47.219 100.657 47.4607C100.416 47.7025 100.237 47.9989 100.134 48.3249C99.7772 49.3797 99.5678 50.4968 99.5622 51.6082C99.5791 52.0335 99.647 52.5268 100.009 52.8047C100.484 53.1789 101.141 53.1336 101.706 53.0315C102.255 52.9408 102.68 52.5155 102.912 52.0278C103.466 50.9107 103.653 49.6519 103.692 48.4213C103.721 47.9337 103.596 47.378 103.166 47.0944C102.691 46.7542 102.057 46.7826 101.52 46.9357ZM39.1143 50.7009L40.0591 47.8316H47.567C48.8287 47.8316 50.147 48.1605 51.1314 48.9827C51.8814 49.6135 52.3812 50.4926 52.5402 51.4608C52.9306 53.4965 52.3478 55.725 50.9051 57.2334C49.6038 58.634 47.7254 59.3712 45.847 59.564C44.2459 59.7114 42.6391 59.5923 41.0379 59.5243C40.574 61.3955 40.2006 63.2895 39.7706 65.1665C38.5598 65.1097 37.349 65.0417 36.1383 65.019C36.7267 62.0647 37.4113 59.1273 38.0053 56.173C40.0025 56.1503 42.0054 56.1673 44.0026 56.1616L44.0083 58.0159C45.6886 56.5869 47.3237 55.1069 48.9871 53.6666C47.7481 52.1015 46.492 50.5591 45.2643 48.9827C45.0963 49.5455 44.9434 50.1128 44.806 50.6839C42.9106 50.7122 41.0096 50.6839 39.1143 50.7009ZM77.2704 56.5813C78.3511 56.0312 79.6411 56.0426 80.7896 56.3601C80.8179 56.8648 80.8745 57.4602 80.5293 57.8685C79.9579 58.152 79.2394 57.9365 78.6792 58.2711C78.2436 58.6567 78.3341 59.3201 78.2549 59.8418C78.8603 59.9155 79.477 59.8475 80.0824 59.9836C80.1786 60.5109 80.2068 61.1517 79.8334 61.577C79.3016 61.9116 78.6283 61.7471 78.0342 61.8152C77.8815 62.042 77.7514 62.2858 77.7231 62.5637C77.2648 65.0984 76.8404 67.6331 76.3878 70.1679C76.1955 71.0355 75.9861 72.0051 75.2506 72.5779C74.4981 73.1676 73.4797 73.2016 72.5632 73.1733C72.1897 73.1279 71.7145 73.1676 71.4769 72.8103C71.3807 72.334 71.5447 71.8577 71.7088 71.4154C72.2237 71.3133 72.7668 71.4154 73.2704 71.2566C73.8079 71.0752 73.9154 70.4457 74.0116 69.9637C74.3623 67.7862 74.7527 65.6088 75.1374 63.4369C75.2167 62.9323 75.3638 62.4276 75.3355 61.9172C74.8376 61.7301 74.2039 61.8889 73.8192 61.4522C73.508 61.078 73.6495 60.5109 73.8644 60.1197C74.2944 59.6717 74.9734 60.0573 75.4995 59.8872C75.873 59.6717 75.8843 59.184 75.9635 58.8098C76.0993 57.9479 76.4614 57.0122 77.2704 56.5813ZM104.756 57.4942C104.858 57.0746 104.864 56.4962 105.316 56.2921C105.967 56.224 106.629 56.258 107.285 56.2524C107.557 57.0065 107.251 57.7834 107.064 58.5149C106.403 58.665 105.718 58.6824 105.05 58.5659C104.575 58.4469 104.705 57.8515 104.756 57.4942ZM68.0595 56.7173C69.689 56.4282 71.358 56.5189 72.9931 56.706C73.1968 56.7344 73.4005 56.7967 73.5985 56.8534C73.6947 57.3581 73.6891 57.9025 73.4571 58.3731C73.2987 58.702 72.897 58.7417 72.5745 58.7531C71.4882 58.7758 70.3962 58.7304 69.3099 58.7701C68.8177 58.7928 68.2236 58.9345 68.0256 59.4506C67.6578 60.3181 67.6182 61.2765 67.4711 62.2008L71.9182 62.1951C72.1614 62.1838 72.5688 62.2405 72.5349 62.5693C72.5349 62.9946 72.45 63.4143 72.3255 63.8169C72.2124 64.1458 71.8446 64.2762 71.5221 64.2592C70.2321 64.2648 68.9422 64.2478 67.6465 64.2648C67.3071 64.2251 66.9902 64.4746 66.9732 64.8262C66.8714 65.7108 66.5998 66.5954 66.6904 67.4914C66.73 67.9677 67.2448 68.1095 67.6409 68.1265C68.8969 68.1548 70.1529 68.1038 71.4033 68.1548C71.6862 68.1605 71.6409 68.5064 71.6918 68.7049C71.7597 69.2436 71.6183 70.0091 70.9733 70.0942C69.1402 70.2926 67.1882 70.6045 65.423 69.8843C64.58 69.5498 64.2009 68.6198 64.0991 67.7749C63.9803 67.0604 64.1726 66.3516 64.2915 65.6541C64.6083 63.8169 64.9308 61.9853 65.2703 60.1594C65.4287 59.3258 65.6833 58.4752 66.2377 57.8061C66.7073 57.2674 67.3467 56.8534 68.0595 56.7173ZM99.4377 58.2767C100.139 57.8628 100.988 57.8174 101.786 57.8515C101.808 58.5206 101.565 59.1614 101.599 59.8248C102.119 59.8985 102.663 59.8532 103.161 60.0403C103.477 60.182 103.421 60.5903 103.364 60.8682C103.268 61.2424 103.127 61.7811 102.64 61.7698C102.142 61.8832 101.288 61.5827 101.129 62.2688C100.83 63.7375 100.603 65.2288 100.343 66.7088C100.252 67.2249 100.162 67.7466 100.156 68.2682C100.688 68.4497 101.248 68.3987 101.791 68.359C102.261 69.0735 101.82 70.2132 100.92 70.2473C100.043 70.2416 99.0586 70.4117 98.3061 69.856C97.7403 69.442 97.6272 68.6708 97.7234 68.0187C97.9836 65.9773 98.4532 63.9643 98.6965 61.9172C98.1307 61.7698 97.4292 61.9002 96.9935 61.4352C96.7729 61.027 96.8012 60.4372 97.1237 60.0856C97.6725 59.7227 98.3797 60.0289 98.9624 59.8021C99.3472 59.3882 99.1039 58.719 99.4377 58.2767ZM83.5902 59.8815C84.569 59.7681 85.6553 59.6547 86.5266 60.2161C87.6695 60.9192 88.1334 62.3482 88.1051 63.6354C88.0712 64.3556 88.1391 65.1041 87.9128 65.8072C86.8944 66.0114 85.8477 65.8866 84.8123 65.9206C83.8222 65.9433 82.8264 65.8809 81.8363 65.9433C81.5534 66.6351 81.6779 67.5651 82.3511 67.9904C82.866 68.2399 83.4601 68.2002 84.0202 68.2002C85.0612 68.1889 86.0513 67.8373 87.0641 67.6445C87.0584 68.2853 87.2338 69.1415 86.6002 69.5498C85.9212 69.924 85.1574 70.1112 84.4106 70.3096C83.2901 70.6108 82.097 70.4687 81.0781 69.9127C80.6291 69.6896 80.241 69.3603 79.9472 68.9533C79.6535 68.5463 79.463 68.0737 79.3921 67.5764C79.1812 65.5937 79.5675 63.593 80.501 61.8322C81.1121 60.6981 82.3455 60.0346 83.5902 59.8815ZM83.0018 62.3369C82.47 62.7848 82.255 63.4766 82.1588 64.1458C83.3695 64.1571 84.5916 64.2081 85.8024 64.1117C85.9891 63.5674 85.9212 62.9493 85.5648 62.4956C84.9764 61.6961 83.7034 61.6961 83.0018 62.3369ZM90.2664 61.4749C91.0924 60.2841 92.5918 59.7397 94.0005 59.7965C94.7926 59.8305 95.6074 59.9836 96.3033 60.3862C96.8351 60.7207 96.456 61.4126 96.3825 61.8946C96.3485 62.3539 95.7771 62.2064 95.4659 62.2064C94.7361 62.2405 94.0741 61.6507 93.3442 61.8946C93.0407 61.9685 92.7589 62.1135 92.5219 62.3175C92.285 62.5215 92.0995 62.7788 91.9807 63.0684C91.4545 64.3329 91.2282 65.7222 91.2678 67.0888C91.2622 67.5141 91.4885 67.962 91.9241 68.0868C93.0104 68.4384 94.1194 67.9904 95.1887 67.7862C95.2283 68.376 95.3018 69.0168 94.9737 69.5441C94.6851 69.924 94.1816 70.0318 93.7346 70.0885C93.1575 70.1395 92.5804 70.2246 92.0033 70.2813C91.3182 70.2888 90.6495 70.0703 90.1005 69.6594C89.5515 69.2485 89.1525 68.668 88.9651 68.0074C88.7671 66.9357 88.8746 65.8299 89.0387 64.7638C89.265 63.6127 89.5988 62.4503 90.2664 61.4749ZM120.015 59.8758C120.966 59.7454 121.978 59.7454 122.884 60.114C123.399 60.3621 123.839 60.7436 124.158 61.2191C124.478 61.6946 124.665 62.2468 124.7 62.8188C124.819 64.2308 124.451 65.6144 124.066 66.9527C123.819 67.8786 123.289 68.7036 122.55 69.3116C121.904 69.7932 121.155 70.1173 120.363 70.2581C119.57 70.3988 118.756 70.3524 117.984 70.1225C117.09 69.9014 116.428 69.1472 116.026 68.3476C115.466 67.1455 115.783 65.7959 116.004 64.554C116.241 63.1874 116.756 61.7868 117.831 60.8568C118.451 60.3311 119.206 59.991 120.009 59.8758H120.015ZM120.264 61.9626C119.913 62.0484 119.588 62.221 119.32 62.4646C119.053 62.7083 118.85 63.0153 118.731 63.3576C118.357 64.3839 118.182 65.4727 118.108 66.5557C118.086 66.981 118.148 67.463 118.487 67.7522C119.116 68.2739 120.043 68.2456 120.739 67.894C121.277 67.6161 121.594 67.0547 121.724 66.482C121.967 65.416 122.357 64.3499 122.256 63.2328C122.239 62.8415 122.086 62.4333 121.752 62.2008C121.316 61.9172 120.762 61.8605 120.258 61.9626H120.264ZM104.439 60.0403C105.09 59.8248 105.808 59.8191 106.482 59.9382C106.855 59.9949 106.708 60.4542 106.702 60.7151C106.255 63.4766 105.724 66.2212 105.26 68.9771C105.192 69.408 105.175 70.0658 104.62 70.1452C104.042 70.2481 103.449 70.219 102.883 70.0601C102.731 69.7993 102.793 69.4817 102.827 69.2039C103.234 66.8052 103.641 64.4066 104.037 62.0023C104.151 61.3445 104.235 60.6811 104.439 60.0403ZM107.749 60.0686C107.907 59.9042 108.151 59.9155 108.36 59.8928C108.847 59.8815 109.339 59.8475 109.814 59.9722C110.069 60.0176 110.018 60.3578 110.069 60.5506C110.171 62.2008 110.227 63.8566 110.306 65.5124C110.357 66.465 110.363 67.4347 110.589 68.3646C111.251 67.7295 111.466 66.8052 111.817 65.9887C112.62 63.9983 113.378 61.9853 114.25 60.0233C114.951 59.8418 115.704 59.8418 116.417 59.9496C116.779 60.0403 116.592 60.4656 116.496 60.7037C115.24 63.4539 114.035 66.2268 112.762 68.9714C112.219 70.2076 110.617 70.5648 109.429 70.1565C108.818 69.9581 108.558 69.2889 108.501 68.6992C108.213 66.1248 107.964 63.5447 107.715 60.9646C107.698 60.6697 107.664 60.3578 107.749 60.0686Z" fill="black"/>
</svg>
