<svg width="156" height="112" viewBox="0 0 156 112" fill="none" xmlns="http://www.w3.org/2000/svg">
<rect width="156" height="112" rx="16" fill="#F6F7F8"/>
<path d="M78 53.9448C77.6477 54.4053 77.19 54.7744 76.6653 55.021C76.1405 55.2676 75.5643 55.3845 74.9849 55.3619C72.7839 55.3619 71.4271 54.0352 71.4271 51.8945C71.4271 49.7538 72.7538 48.4875 74.9548 48.4875C76.1608 48.4574 77.2764 49.0001 78 49.9347L78.2111 50.2363L81.4673 47.6734L81.2261 47.3719C80.4172 46.4921 79.4264 45.7991 78.3226 45.3409C77.2187 44.8827 76.0283 44.6703 74.8342 44.7187C70.1608 44.7187 67.1457 47.5528 67.1457 51.8945C67.1457 56.2363 70.1608 59.1307 74.8342 59.1307C77.5477 59.1307 79.6884 58.2262 81.2261 56.5076L81.4673 56.2061L78.2111 53.6433L78 53.9448ZM90.6935 44.7187C86.0804 44.7187 82.8543 47.6734 82.8543 51.9247C82.8543 56.1458 86.0804 59.1307 90.6935 59.1307C95.3065 59.1307 98.5327 56.176 98.5327 51.9247C98.5327 47.7036 95.3367 44.6885 90.6935 44.6885V44.7187ZM90.6935 55.392C88.5226 55.392 87.1357 54.0353 87.1357 51.9247C87.1357 49.8141 88.5829 48.4574 90.6935 48.4574C92.8643 48.4574 94.2814 49.8141 94.2814 51.9247C94.2814 54.0353 92.8643 55.392 90.6935 55.392ZM101.668 44.99H105.889V58.8594H101.668V44.99ZM118.884 51.7739L111.739 44.9599H109.508V58.8292H113.608V52.0754L120.724 58.8895H122.955V44.99H118.884V51.7739ZM133.176 50.1458C131.276 49.7538 130.372 49.5428 130.372 49.0001C130.372 48.3971 131.427 48.3368 131.879 48.3368C133.146 48.3368 134.412 48.6383 135.618 49.0905L135.92 49.2111L137.638 45.9247L137.307 45.7739C135.592 45.0464 133.741 44.6967 131.879 44.7488C128.201 44.7488 126.121 46.377 126.121 49.2714C126.121 52.4674 128.955 53.2513 131.608 53.7639C133.387 54.0654 133.719 54.3669 133.719 54.789C133.719 55.0001 133.719 55.6031 132.09 55.6031C130.583 55.5428 129.075 55.181 127.688 54.5177L127.387 54.3669L125.789 57.7136L126.09 57.8644C128.02 58.7689 130.1 59.191 132.211 59.1307C137.005 59.1307 138 56.6282 138 54.5177C138 51.5026 135.678 50.6282 133.176 50.1458ZM30.0905 62.387C31.5708 66.1246 34.3083 69.229 37.8313 71.1654C41.3543 73.1018 45.4423 73.7489 49.3912 72.9954C53.34 72.2419 56.9025 70.1348 59.4649 67.0372C62.0273 63.9396 63.4292 60.0453 63.4292 56.0252C63.4292 52.0051 62.0273 48.1108 59.4649 45.0132C56.9025 41.9156 53.34 39.8086 49.3912 39.055C45.4423 38.3015 41.3543 38.9486 37.8313 40.885C34.3083 42.8214 31.5708 45.9258 30.0905 49.6634V39.5327H18V72.4875H30.1206V62.387H30.0905ZM41.9397 45.0202H44.4422V47.1307C45.0754 47.0403 45.7387 46.98 46.3719 47.0101H46.9447V45.0202H49.4472V47.3719C51.3035 47.8241 52.9766 48.8343 54.2412 50.2664L50.804 52.98C50.3115 52.3226 49.6683 51.7932 48.9284 51.4364C48.1886 51.0796 47.3738 50.9058 46.5528 50.9297C43.4774 50.9297 41.5477 52.7388 41.5477 55.7538C41.5477 58.7689 43.4774 60.6684 46.5226 60.6684C47.3461 60.7007 48.1652 60.5339 48.9105 60.1823C49.6558 59.8306 50.3053 59.3044 50.804 58.6483L54.2412 61.3619C52.9817 62.815 51.2919 63.8289 49.4171 64.2564V66.4875H46.9447V64.588H46.402C45.7387 64.588 45.1055 64.5579 44.4724 64.4674V66.4875H41.9397V63.774C38.804 62.4473 36.9347 59.6433 36.9347 55.7538C36.9347 51.8644 38.804 49.1207 41.9397 47.794V45.0202ZM74.0201 67.1207C74.0201 65.191 75.5276 63.8041 77.4874 63.8041C77.9825 63.7871 78.475 63.8812 78.929 64.0794C79.3829 64.2777 79.7866 64.5751 80.1105 64.9498L79.1759 65.8242C78.9093 65.4926 78.5462 65.2521 78.1369 65.1361C77.7275 65.0201 77.2922 65.0343 76.8913 65.1768C76.4904 65.3193 76.1438 65.5829 75.8994 65.9312C75.6551 66.2795 75.5251 66.6952 75.5276 67.1207C75.5251 67.5461 75.6551 67.9618 75.8994 68.3102C76.1438 68.6585 76.4904 68.9221 76.8913 69.0646C77.2922 69.2071 77.7275 69.2213 78.1369 69.1053C78.5462 68.9893 78.9093 68.7488 79.1759 68.4172L80.1105 69.2915C79.4472 70.0453 78.4824 70.4674 77.4874 70.4071C75.4975 70.4071 74.0201 69.0503 74.0201 67.0905V67.1207ZM88.8543 70.3167L87.5879 68.5076H86.2311V70.3167H84.7538V63.9247H87.5276C89.2161 63.9247 90.3015 64.8292 90.3015 66.2463C90.3316 67.1508 89.8191 67.9348 88.9749 68.2664L90.4221 70.3167H88.8543ZM87.4372 65.1307H86.2311V67.3619H87.4372C88.3417 67.3619 88.794 66.9398 88.794 66.2463C88.794 65.5529 88.3417 65.1307 87.4372 65.1307ZM98.0804 68.0554V70.3167H96.603V68.0252L94.1306 63.9247H95.6985L97.4171 66.7589L99.1055 63.9247H100.583L98.0804 68.0554ZM110.322 66.2463C110.322 67.6634 109.236 68.5378 107.548 68.5378H106.251V70.3167H104.774V63.9247H107.548C109.236 63.9247 110.322 64.8292 110.322 66.2463ZM108.814 66.2463C108.814 65.5227 108.362 65.1307 107.457 65.1307H106.251V67.3317H107.457C108.362 67.3317 108.814 66.9398 108.814 66.2463ZM116.171 65.1307H114.121V63.9247H119.698V65.1307H117.648V70.3167H116.141L116.171 65.1307ZM123.618 67.1207C123.618 65.2212 125.126 63.8041 127.116 63.8041C129.136 63.8041 130.613 65.191 130.613 67.1207C130.613 69.0503 129.106 70.4373 127.116 70.4373C125.126 70.4373 123.618 69.0202 123.618 67.1207ZM129.136 67.1207C129.124 66.7312 128.998 66.3538 128.773 66.0352C128.549 65.7166 128.236 65.471 127.873 65.3287C127.51 65.1864 127.114 65.1538 126.733 65.2348C126.352 65.3158 126.003 65.507 125.729 65.7846C125.456 66.0622 125.27 66.4139 125.194 66.7962C125.119 67.1786 125.157 67.5746 125.305 67.9352C125.453 68.2958 125.703 68.6052 126.025 68.8248C126.347 69.0445 126.726 69.1649 127.116 69.1709C127.386 69.1796 127.655 69.1322 127.906 69.0318C128.157 68.9314 128.384 68.7802 128.574 68.5876C128.764 68.3951 128.912 68.1653 129.008 67.9129C129.105 67.6604 129.148 67.3907 129.136 67.1207Z" fill="black"/>
</svg>
