<svg width="156" height="112" viewBox="0 0 156 112" fill="none" xmlns="http://www.w3.org/2000/svg">
<rect width="156" height="112" rx="16" fill="#F6F7F8"/>
<path d="M42.659 63.6735C41.9063 63.6735 41.1505 63.6517 40.4072 63.6017C39.6233 63.5486 38.8425 63.4393 38.0742 63.2769V49.941C38.7051 49.8192 39.4078 49.738 40.1636 49.6756C40.9163 49.6131 41.619 49.585 42.2717 49.585C43.1493 49.585 43.952 49.6475 44.6859 49.7786C45.4199 49.9004 46.0507 50.1159 46.5817 50.4189C47.1126 50.725 47.528 51.1216 47.8247 51.6213C48.1214 52.121 48.2744 52.7331 48.2744 53.4546C48.2744 54.5539 47.7435 55.4191 46.6847 56.0531C47.5623 56.3779 48.1526 56.837 48.4681 57.3991C48.7835 57.9707 48.9459 58.6109 48.9459 59.323C48.9459 60.769 48.415 61.8496 47.3656 62.5742C46.2975 63.3175 44.7421 63.6735 42.659 63.6735ZM41.0912 55.1473H42.5997C43.5585 55.1473 44.2299 55.0255 44.6484 54.7819C45.0545 54.5383 45.2606 54.1417 45.2606 53.6014C45.2606 53.0423 45.0482 52.6551 44.6297 52.4302C44.2018 52.2053 43.5803 52.0929 42.7652 52.0929C42.4997 52.0929 42.2155 52.0929 41.9094 52.1023C41.6034 52.1116 41.3379 52.1241 41.0943 52.1522C41.0912 52.1522 41.0912 55.1473 41.0912 55.1473ZM41.0912 57.5116V61.0657C41.316 61.0969 41.5597 61.1157 41.8251 61.1282C42.0906 61.1407 42.3842 61.15 42.7027 61.15C43.6303 61.15 44.3736 61.0189 44.9451 60.7534C45.5167 60.4879 45.8009 60.0007 45.8009 59.2855C45.8009 58.6546 45.5667 58.1955 45.0888 57.9301C44.611 57.6552 43.927 57.5241 43.04 57.5241H41.0943V57.5116L41.0912 57.5116Z" fill="#4D4D4D"/>
<path d="M53.3558 50.0441C53.3558 50.5844 53.184 51.0123 52.8249 51.3277C52.4782 51.6432 52.0597 51.7962 51.5818 51.7962C51.1227 51.8024 50.6793 51.6369 50.3388 51.3277C49.9922 51.0123 49.8079 50.5938 49.8079 50.0441C49.8079 49.5038 49.9797 49.0759 50.3388 48.7605C50.6793 48.4544 51.1227 48.2858 51.5818 48.292C52.0409 48.2858 52.4844 48.4513 52.8249 48.7605C53.1809 49.0759 53.3558 49.5038 53.3558 50.0441ZM53.0716 63.5018H50.1171V53.0579H53.0716V63.5018Z" fill="#4D4D4D"/>
<path d="M54.6613 50.4595L57.6158 49.9816V53.0579H61.1699V55.5221H57.6158V59.1887C57.6158 59.8102 57.7282 60.3099 57.9406 60.6753C58.1529 61.0407 58.6027 61.2343 59.2648 61.2343C59.5927 61.2312 59.9207 61.2031 60.2423 61.1438C60.5578 61.0876 60.867 61.0064 61.1699 60.9002L61.5884 63.2019C61.2011 63.3581 60.8014 63.4861 60.3954 63.5798C59.9581 63.6829 59.4272 63.7422 58.7869 63.7422C57.9812 63.7422 57.3097 63.6298 56.7788 63.4174C56.2478 63.2051 55.82 62.899 55.5045 62.4992C55.1891 62.112 54.9642 61.6341 54.8424 61.0844C54.7112 60.4785 54.6457 59.8602 54.6488 59.2418V50.4595H54.6613Z" fill="#4D4D4D"/>
<path d="M61.5915 58.283C61.5853 57.5584 61.7102 56.837 61.9569 56.153C62.188 55.5065 62.5472 54.9131 63.0157 54.4103C63.4748 53.9106 64.0432 53.5233 64.7053 53.2297C65.3674 52.933 66.1201 52.7925 66.9665 52.7925C67.5255 52.7925 68.0346 52.8424 68.4937 52.9455C68.9559 53.0455 69.4056 53.1891 69.8398 53.3734L69.2276 55.7376C68.9278 55.6283 68.6217 55.5346 68.3094 55.4628C67.944 55.3784 67.5724 55.3378 67.1976 55.341C66.32 55.341 65.6704 55.6158 65.2425 56.1561C64.8146 56.6964 64.6022 57.4085 64.6022 58.2955C64.6022 59.2324 64.8052 59.9663 65.2019 60.4754C65.6079 60.9939 66.3137 61.25 67.31 61.25C67.6973 61.25 68.0814 61.2156 68.4625 61.1469C68.8497 61.0876 69.2307 60.9814 69.593 60.8315L70.0115 63.255C69.593 63.4237 69.162 63.5486 68.7185 63.6329C68.1533 63.7422 67.5817 63.7985 67.0071 63.7953C66.0483 63.7953 65.2331 63.6517 64.5429 63.3675C63.8496 63.0833 63.2905 62.696 62.8408 62.2056C62.391 61.7153 62.0756 61.1375 61.8726 60.4723C61.6852 59.7571 61.5915 59.0232 61.5915 58.283Z" fill="#4D4D4D"/>
<path d="M80.1899 58.2642C80.1899 59.0887 80.0681 59.8321 79.8338 60.516C79.5996 61.2 79.2529 61.7778 78.8063 62.2587C78.3503 62.7428 77.7975 63.1239 77.1854 63.38C76.5514 63.6454 75.8518 63.7766 75.0773 63.7766C74.3121 63.7766 73.6094 63.6454 72.9785 63.38C72.3633 63.127 71.8136 62.7428 71.3576 62.2587C70.9079 61.7809 70.5518 61.1906 70.3082 60.516C70.0521 59.8321 69.9303 59.0794 69.9303 58.2642C69.9303 57.4397 70.0615 56.6964 70.3176 56.0218C70.5737 55.3503 70.9297 54.7694 71.3857 54.301C71.8479 53.8231 72.4007 53.4421 73.016 53.1891C73.6469 52.9236 74.3308 52.7925 75.0742 52.7925C75.8268 52.7925 76.5202 52.9236 77.151 53.1891C77.7819 53.4546 78.3222 53.82 78.772 54.301C79.2342 54.7975 79.5933 55.3816 79.8213 56.0218C80.0587 56.6964 80.1899 57.4397 80.1899 58.2642ZM77.176 58.2642C77.176 57.346 76.9918 56.634 76.6264 56.1155C76.261 55.5971 75.7394 55.3316 75.0679 55.3316C74.3964 55.3316 73.8655 55.5971 73.5001 56.1155C73.1347 56.634 72.941 57.3585 72.941 58.2642C72.941 59.1824 73.1253 59.9039 73.5001 60.4348C73.8655 60.9751 74.3964 61.2406 75.0679 61.2406C75.7394 61.2406 76.2609 60.9751 76.6264 60.4348C76.9918 59.8945 77.176 59.1699 77.176 58.2642Z" fill="#4D4D4D"/>
<path d="M84.6154 50.0441C84.6154 50.5844 84.4436 51.0123 84.0845 51.3277C83.7378 51.6432 83.3193 51.7962 82.8414 51.7962C82.3823 51.8024 81.9389 51.6369 81.5984 51.3277C81.2518 51.0123 81.0675 50.5938 81.0675 50.0441C81.0675 49.5038 81.2393 49.0759 81.5984 48.7605C81.9389 48.4544 82.3823 48.2858 82.8414 48.292C83.3005 48.2858 83.744 48.4513 84.0845 48.7605C84.4405 49.0759 84.6154 49.5038 84.6154 50.0441ZM84.3406 63.5018H81.3861V53.0579H84.3406V63.5018Z" fill="#4D4D4D"/>
<path d="M86.0208 53.414C86.5205 53.2703 87.1732 53.1298 87.9665 53.008C88.791 52.8799 89.6249 52.8143 90.4619 52.8143C91.3489 52.8143 92.0828 52.9268 92.6731 53.161C93.2634 53.3952 93.7319 53.7201 94.0692 54.1386C94.4158 54.5664 94.6594 55.0661 94.8031 55.647C94.9468 56.2279 95.0155 56.8807 95.0155 57.5928V63.4924H92.061V57.9488C92.061 56.99 91.9392 56.3185 91.6831 55.9219C91.427 55.5252 90.9585 55.3316 90.2777 55.3316C90.0653 55.3316 89.8404 55.341 89.6062 55.3628C89.3719 55.3847 89.1564 55.4034 88.9753 55.4347V63.4924H86.0208L86.0208 53.414Z" fill="#4D4D4D"/>
<path d="M103.095 63.7766C100.853 63.7766 99.1536 63.1551 97.9825 61.9121C96.8113 60.6691 96.2304 58.9076 96.2304 56.6152C96.2304 55.4753 96.4146 54.4665 96.7707 53.5701C97.1267 52.6738 97.6171 51.9211 98.2386 51.309C98.8694 50.6906 99.6284 50.2128 100.459 49.9129C101.315 49.5975 102.252 49.4351 103.261 49.4351C103.841 49.4351 104.372 49.4757 104.85 49.5663C105.275 49.635 105.694 49.7349 106.103 49.863C106.409 49.9567 106.709 50.0722 106.999 50.2096C107.233 50.3314 107.405 50.422 107.517 50.4845L106.621 52.9799C106.15 52.7363 105.656 52.5457 105.144 52.4083C104.585 52.2459 103.941 52.1741 103.229 52.1741C102.755 52.1741 102.283 52.2553 101.833 52.4083C101.377 52.5707 100.965 52.8331 100.622 53.1735C100.275 53.5202 99.9907 53.9793 99.7752 54.5289C99.5628 55.088 99.4597 55.7626 99.4597 56.5559C99.4566 57.1524 99.5253 57.7489 99.6627 58.3298C99.8064 58.8795 100.028 59.348 100.334 59.7446C100.659 60.1537 101.078 60.4785 101.555 60.6909C102.055 60.9252 102.667 61.0376 103.379 61.0376C103.785 61.0376 104.188 61.0126 104.591 60.9564C104.916 60.9127 105.234 60.8502 105.55 60.7627C105.8 60.7003 106.046 60.6191 106.284 60.5191C106.496 60.4286 106.69 60.3349 106.855 60.263L107.711 62.7491C107.274 63.0145 106.662 63.2488 105.868 63.4611C105.06 63.6735 104.135 63.7766 103.095 63.7766Z" fill="#0AC18E"/>
<path d="M112.346 52.7831C113.223 52.7831 113.945 52.8862 114.526 53.0798C115.107 53.2734 115.575 53.5577 115.922 53.9356C116.278 54.3166 116.531 54.7788 116.665 55.2816C116.809 55.8126 116.878 56.4028 116.878 57.0431V63.1957C116.45 63.2863 115.869 63.3987 115.116 63.5205C114.363 63.6423 113.445 63.7141 112.377 63.7141C111.706 63.7141 111.093 63.6517 110.544 63.5299C109.994 63.4081 109.526 63.2144 109.129 62.949C108.735 62.6804 108.42 62.3181 108.211 61.8902C107.998 61.453 107.895 60.922 107.895 60.2818C107.895 59.6697 108.017 59.1606 108.261 58.7327C108.492 58.3173 108.829 57.9707 109.238 57.7239C109.644 57.4678 110.116 57.2867 110.644 57.1743C111.187 57.0587 111.74 57.0025 112.293 57.0025C112.68 57.0025 113.017 57.0243 113.311 57.0525C113.608 57.0837 113.851 57.1243 114.035 57.1836V56.9088C114.035 56.4091 113.882 56.0031 113.576 55.697C113.27 55.3909 112.742 55.2379 111.987 55.2379C111.49 55.2379 110.994 55.2754 110.5 55.3503C110.01 55.4222 109.582 55.5221 109.226 55.6564L108.848 53.2734C109.02 53.2235 109.235 53.161 109.488 53.1017C109.744 53.0392 110.028 52.9892 110.335 52.9393C110.641 52.8893 110.956 52.8581 111.293 52.8175C111.652 52.805 111.999 52.7831 112.346 52.7831ZM112.58 61.4311C112.877 61.4311 113.152 61.4217 113.414 61.4092C113.626 61.4061 113.836 61.3843 114.045 61.3468V59.1044C113.923 59.0731 113.748 59.0544 113.505 59.0232C113.289 58.9951 113.07 58.9826 112.852 58.9826C112.589 58.9857 112.327 59.0013 112.068 59.0325C111.824 59.0638 111.609 59.1231 111.428 59.2262C111.25 59.3105 111.1 59.4417 110.99 59.6041C110.881 59.7821 110.825 59.9851 110.828 60.1943C110.828 60.6534 110.981 60.9783 111.296 61.1532C111.612 61.3499 112.04 61.4311 112.58 61.4311Z" fill="#0AC18E"/>
<path d="M121.472 61.3811C122.012 61.3811 122.399 61.3312 122.624 61.2187C122.849 61.1157 122.961 60.9033 122.961 60.6066C122.961 60.3724 122.818 60.1569 122.524 59.9851C122.227 59.8008 121.79 59.6072 121.191 59.3854C120.731 59.2137 120.304 59.0388 119.929 58.8451C119.551 58.6609 119.226 58.4391 118.97 58.183C118.701 57.9207 118.495 57.6053 118.358 57.2555C118.214 56.8994 118.146 56.4715 118.146 55.9625C118.146 54.9849 118.511 54.2104 119.235 53.6389C119.96 53.0673 120.956 52.7831 122.231 52.7831C122.843 52.7831 123.452 52.8425 124.055 52.9549C124.635 53.0673 125.104 53.1891 125.441 53.3203L124.923 55.6221C124.554 55.494 124.183 55.3878 123.802 55.3066C123.355 55.2098 122.902 55.1598 122.446 55.163C121.519 55.163 121.059 55.419 121.059 55.9375C121.056 56.0468 121.078 56.153 121.122 56.2529C121.175 56.3591 121.256 56.4528 121.356 56.5184C121.512 56.6246 121.675 56.7152 121.846 56.7932C122.099 56.9182 122.362 57.0243 122.63 57.118C123.283 57.3616 123.811 57.5959 124.239 57.8301C124.667 58.0644 124.991 58.3205 125.238 58.5828C125.472 58.842 125.65 59.145 125.757 59.4791C125.86 59.8039 125.91 60.1912 125.91 60.6316C125.91 61.6591 125.522 62.4461 124.748 62.9646C123.973 63.4955 122.883 63.7579 121.469 63.7579C120.541 63.7579 119.766 63.6767 119.157 63.5236C118.545 63.3612 118.117 63.2269 117.874 63.127L118.374 60.7222C118.876 60.9189 119.395 61.0751 119.923 61.1906C120.429 61.3187 120.95 61.3811 121.472 61.3811Z" fill="#0AC18E"/>
<path d="M127.006 63.5018V48.5762L129.96 48.0984V53.1017C130.21 53.0236 130.466 52.958 130.726 52.908C131.022 52.8487 131.328 52.8175 131.631 52.8175C132.478 52.8175 133.18 52.9299 133.739 53.1641C134.298 53.3984 134.748 53.7232 135.085 54.1417C135.423 54.5696 135.657 55.0693 135.798 55.6502C135.941 56.2311 136.001 56.8838 136.001 57.5959V63.4955H133.046V57.9488C133.046 56.99 132.924 56.3185 132.681 55.9219C132.437 55.5252 131.978 55.3316 131.325 55.3316C131.075 55.3285 130.825 55.3535 130.582 55.4034C130.348 55.4534 130.145 55.494 129.96 55.5565V63.4924H127.006L127.006 63.5018Z" fill="#0AC18E"/>
<path d="M27.7923 63.9017C32.0958 63.9017 35.5845 60.4129 35.5845 56.1094C35.5845 51.8059 32.0958 48.3171 27.7923 48.3171C23.4887 48.3171 20 51.8059 20 56.1094C20 60.4129 23.4887 63.9017 27.7923 63.9017Z" fill="#0AC18E"/>
<path d="M30.2157 53.5013C29.8253 52.6143 28.929 52.43 27.8297 52.6112L27.4767 51.2463L26.6429 51.4618L26.9895 52.8267C26.7709 52.8829 26.546 52.9297 26.3243 52.9922L25.9745 51.6367L25.1406 51.8522L25.4935 53.2202C25.3155 53.2701 23.8164 53.6574 23.8164 53.6574L24.0475 54.5475C24.0475 54.5475 24.6597 54.3757 24.6534 54.3913C24.9907 54.3039 25.15 54.4726 25.2281 54.6318L26.1962 58.3796C26.2087 58.4889 26.19 58.6763 25.9558 58.7356C25.9683 58.7419 25.3499 58.8918 25.3499 58.8918L25.4404 59.9287C25.4404 59.9287 26.9239 59.5477 27.1207 59.5008L27.4799 60.8844L28.3106 60.6689L27.9546 59.276C28.1857 59.2229 28.4043 59.1666 28.6229 59.1104L28.979 60.4971L29.8129 60.2816L29.4568 58.9012C30.7373 58.5889 31.643 57.7831 31.4556 56.5463C31.3369 55.803 30.5249 55.1909 29.8472 55.1222C30.2626 54.7443 30.475 54.2071 30.2157 53.5013ZM29.816 56.7618C29.9815 57.9861 28.2825 58.136 27.7172 58.2828L27.2269 56.4526C27.7953 56.3058 29.538 55.6843 29.816 56.7618ZM28.7916 54.2727C28.9665 55.3595 27.5142 55.4876 27.0426 55.6094L26.596 53.9479C27.0676 53.8261 28.4355 53.2639 28.7916 54.2727Z" fill="white"/>
</svg>
