<svg width="156" height="112" viewBox="0 0 156 112" fill="none" xmlns="http://www.w3.org/2000/svg">
<rect width="156" height="112" rx="16" fill="#F6F7F8"/>
<path d="M48 24H112V88H48V24Z" fill="#FFC403"/>
<path d="M76.4488 52.2224V59.5278H74.4507V55.4302L73.1161 57.4049H72.0702L70.6029 55.4302V59.5278H68.7766V52.2224H70.6185L72.7259 55.0868L74.6146 52.2224H76.4488ZM77.0263 53.8771V52.2224H83.8478V53.8771H81.4595V59.5278H79.4224V53.8771H77.0263ZM91.3639 52.2224V59.5278H89.6859L86.2517 55.3522V59.5278H84.4254V52.2224H86.2439L89.5298 56.2498V52.2224H91.3639Z" fill="black"/>
<path d="M80 67.161C74.0995 67.161 68.5346 66.0605 64.3356 64.0546C59.9415 61.9551 57.522 59.0985 57.522 56C57.522 52.9015 59.9415 50.0449 64.3356 47.9454C68.5346 45.9395 74.0995 44.839 80 44.839C85.9005 44.839 91.4654 45.9395 95.6644 47.9454C100.059 50.0449 102.478 52.9015 102.478 56C102.478 59.0985 100.059 61.9551 95.6644 64.0546C91.4654 66.0605 85.9005 67.161 80 67.161ZM80 46.4859C74.3337 46.4859 69.0263 47.5317 65.0459 49.4361C61.2605 51.2468 59.1688 53.5805 59.1688 56.0078C59.1688 58.4351 61.2527 60.7688 65.0459 62.5717C69.0263 64.4761 74.3415 65.522 80 65.522C85.6585 65.522 90.9737 64.4761 94.9541 62.5717C98.7395 60.7688 100.831 58.4273 100.831 56.0078C100.831 53.5883 98.7473 51.2468 94.9541 49.4439C90.9737 47.5317 85.6663 46.4859 80 46.4859Z" fill="black"/>
</svg>
