<svg width="48" height="48" viewBox="0 0 48 48" fill="none" xmlns="http://www.w3.org/2000/svg">
<path d="M25.5 16.5C25.5 15.6716 26.1716 15 27 15C27.8284 15 28.5 15.6716 28.5 16.5V39C28.5 39.8284 27.8284 40.5 27 40.5C26.1716 40.5 25.5 39.8284 25.5 39V16.5Z" fill="#85ACB0"/>
<path d="M10.5 22.5V33L24 37.5V18L10.5 22.5Z" fill="#85ACB0"/>
<path d="M1.5 22.5C0.671573 22.5 0 23.1716 0 24V31.5C0 32.3284 0.671573 33 1.5 33H9V22.5H1.5Z" fill="#85ACB0"/>
<path d="M38.1712 22.342C38.9121 21.9715 39.2125 21.0705 38.842 20.3295C38.4715 19.5885 37.5705 19.2882 36.8295 19.6587L32.3295 21.9087C31.5885 22.2792 31.2882 23.1802 31.6587 23.9211C32.0292 24.6621 32.9302 24.9625 33.6712 24.592L38.1712 22.342Z" fill="#85ACB0"/>
<path d="M31.658 33.8295C31.2875 34.5705 31.5879 35.4715 32.3288 35.842L36.8288 38.092C37.5698 38.4625 38.4708 38.1621 38.8413 37.4212C39.2118 36.6802 38.9115 35.7792 38.1705 35.4087L33.6705 33.1587C32.9295 32.7882 32.0285 33.0885 31.658 33.8295Z" fill="#85ACB0"/>
<path d="M33 27C32.1716 27 31.5 27.6716 31.5 28.5C31.5 29.3284 32.1716 30 33 30H39C39.8284 30 40.5 29.3284 40.5 28.5C40.5 27.6716 39.8284 27 39 27H33Z" fill="#85ACB0"/>
<path d="M6 34.5H9L11.604 46.2181C11.8072 47.1325 11.1114 48 10.1746 48C9.4883 48 8.89407 47.5233 8.74519 46.8534L6 34.5Z" fill="#85ACB0"/>
<g style="mix-blend-mode:multiply">
<path fill-rule="evenodd" clip-rule="evenodd" d="M48.0003 10.5C48.0003 16.299 42.6277 21 36.0003 21H24.3911C23.0889 21 22.4053 19.4545 23.2812 18.491L25.6767 15.856C24.6118 14.2879 24.0003 12.4564 24.0003 10.5C24.0003 4.70101 29.3729 0 36.0003 0C42.6277 0 48.0003 4.70101 48.0003 10.5ZM30 12C30.8284 12 31.5 11.3284 31.5 10.5C31.5 9.67157 30.8284 9 30 9C29.1716 9 28.5 9.67157 28.5 10.5C28.5 11.3284 29.1716 12 30 12ZM37.5 10.5C37.5 11.3284 36.8284 12 36 12C35.1716 12 34.5 11.3284 34.5 10.5C34.5 9.67157 35.1716 9 36 9C36.8284 9 37.5 9.67157 37.5 10.5ZM42 12C42.8284 12 43.5 11.3284 43.5 10.5C43.5 9.67157 42.8284 9 42 9C41.1716 9 40.5 9.67157 40.5 10.5C40.5 11.3284 41.1716 12 42 12Z" fill="#FF444F"/>
</g>
<circle cx="30" cy="10.5" r="1.5" fill="white"/>
<circle cx="36" cy="10.5" r="1.5" fill="white"/>
<circle cx="42" cy="10.5" r="1.5" fill="white"/>
</svg>
