<svg width="49" height="49" viewBox="0 0 49 49" fill="none" xmlns="http://www.w3.org/2000/svg">
<rect opacity="0.01" width="48" height="48" fill="white" stroke="#979797"/>
<path fill-rule="evenodd" clip-rule="evenodd" d="M44.4902 36.4695V12.0865C44.4902 9.82951 42.7522 7.99951 40.6082 7.99951H7.64323C5.49923 7.99951 3.76123 9.82951 3.76123 12.0865V19.6005H14.0002C16.2092 19.6005 18.0002 21.3915 18.0002 23.6005V33.9715H41.6302V35.4295H27.0402V36.6795H20.9602V35.4295H18.0002V40.0375H43.9132H45.9572C47.0852 40.0375 48.0002 39.1225 48.0002 37.9945V36.4695H44.4902Z" fill="#85ACAF"/>
<path fill-rule="evenodd" clip-rule="evenodd" d="M8 45.1015C7.172 45.1015 6.5 44.4295 6.5 43.6015C6.5 42.7725 7.172 42.1015 8 42.1015C8.828 42.1015 9.5 42.7725 9.5 43.6015C9.5 44.4295 8.828 45.1015 8 45.1015ZM13.385 21.4365H2.615C1.171 21.4365 0 22.6075 0 24.0515V45.3845C0 46.8295 1.171 47.9995 2.615 47.9995H13.385C14.829 47.9995 16 46.8295 16 45.3845V24.0515C16 22.6075 14.829 21.4365 13.385 21.4365Z" fill="#85ACAF"/>
<g style="mix-blend-mode:multiply">
<path fill-rule="evenodd" clip-rule="evenodd" d="M24 4V20C24 22.209 25.791 24 28 24H44C46.209 24 48 22.209 48 20V4C48 1.791 46.209 0 44 0H28C25.791 0 24 1.791 24 4Z" fill="#FF444F"/>
</g>
<path fill-rule="evenodd" clip-rule="evenodd" d="M29.5293 17.1387C28.9243 17.1387 28.4333 17.6297 28.4333 18.2357C28.4333 18.8407 28.9243 19.3317 29.5293 19.3317C30.1354 19.3317 30.6264 18.8407 30.6264 18.2357C30.6264 17.6297 30.1354 17.1387 29.5293 17.1387Z" fill="white"/>
<path fill-rule="evenodd" clip-rule="evenodd" d="M29.5293 6.94385C28.9243 6.94385 28.4333 7.43485 28.4333 8.04085V13.5968C28.4333 14.2028 28.9243 14.6938 29.5293 14.6938C30.1354 14.6938 30.6264 14.2028 30.6264 13.5968V8.04085C30.6264 7.43485 30.1354 6.94385 29.5293 6.94385Z" fill="white"/>
<path fill-rule="evenodd" clip-rule="evenodd" d="M33.8439 17.1387C33.2379 17.1387 32.7458 17.6297 32.7458 18.2357C32.7458 18.8407 33.2379 19.3317 33.8439 19.3317C34.4489 19.3317 34.9399 18.8407 34.9399 18.2357C34.9399 17.6297 34.4489 17.1387 33.8439 17.1387Z" fill="white"/>
<path fill-rule="evenodd" clip-rule="evenodd" d="M33.8439 4.11621C33.2379 4.11621 32.7458 4.60721 32.7458 5.21321V13.5962C32.7458 14.2022 33.2379 14.6932 33.8439 14.6932C34.4489 14.6932 34.9399 14.2022 34.9399 13.5962V5.21321C34.9399 4.60721 34.4489 4.11621 33.8439 4.11621Z" fill="white"/>
<path fill-rule="evenodd" clip-rule="evenodd" d="M38.1563 17.1387C37.5513 17.1387 37.0603 17.6297 37.0603 18.2357C37.0603 18.8407 37.5513 19.3317 38.1563 19.3317C38.7623 19.3317 39.2543 18.8407 39.2543 18.2357C39.2543 17.6297 38.7623 17.1387 38.1563 17.1387Z" fill="white"/>
<path fill-rule="evenodd" clip-rule="evenodd" d="M38.1563 9.68555C37.5513 9.68555 37.0603 10.1765 37.0603 10.7825V13.5965C37.0603 14.2025 37.5513 14.6935 38.1563 14.6935C38.7623 14.6935 39.2543 14.2025 39.2543 13.5965V10.7825C39.2543 10.1765 38.7623 9.68555 38.1563 9.68555Z" fill="white"/>
<path fill-rule="evenodd" clip-rule="evenodd" d="M42.4708 17.1387C41.8648 17.1387 41.3738 17.6297 41.3738 18.2357C41.3738 18.8407 41.8648 19.3317 42.4708 19.3317C43.0758 19.3317 43.5668 18.8407 43.5668 18.2357C43.5668 17.6297 43.0758 17.1387 42.4708 17.1387Z" fill="white"/>
<path fill-rule="evenodd" clip-rule="evenodd" d="M42.4708 7.45557C41.8648 7.45557 41.3738 7.94657 41.3738 8.55257V13.5966C41.3738 14.2026 41.8648 14.6936 42.4708 14.6936C43.0758 14.6936 43.5668 14.2026 43.5668 13.5966V8.55257C43.5668 7.94657 43.0758 7.45557 42.4708 7.45557Z" fill="white"/>
</svg>
