<svg width="159" height="22" viewBox="0 0 159 22" fill="none" xmlns="http://www.w3.org/2000/svg">
<path d="M143.715 12.5635L137.827 0.356134H143.758L146.879 8.324L153.205 0.356134H158.861L148.484 12.5635L146.814 21.6439H142.045L143.715 12.5635Z" fill="#1A1A1A"/>
<path d="M111.127 0.356134H118.342L120.77 14.2473H120.831L128.4 0.356134H135.584L131.669 21.6439H126.9L129.902 5.31726H129.841L121.153 21.6439H117.515L115.045 5.31726H114.983L111.981 21.6439H107.212L111.127 0.356134Z" fill="#1A1A1A"/>
<path d="M70.2919 0.356134H77.4457C79.1781 0.356134 80.7837 0.546561 82.2626 0.927415C83.762 1.30827 85.0132 1.92966 86.0164 2.79159C87.0233 3.63348 87.7377 4.73595 88.1597 6.09901C88.602 7.46207 88.6443 9.11578 88.2868 11.0601C87.9698 12.784 87.3533 14.3074 86.4375 15.6304C85.5457 16.9333 84.4563 18.0358 83.1695 18.9378C81.8864 19.8198 80.4687 20.4913 78.9165 20.9523C77.3642 21.4134 75.7831 21.6439 74.173 21.6439H66.3772L70.2919 0.356134ZM71.9426 17.3142H74.4189C75.5195 17.3142 76.5588 17.2039 77.5369 16.9834C78.5353 16.7629 79.4271 16.4021 80.2122 15.901C81.001 15.3798 81.6646 14.7083 82.203 13.8865C82.7654 13.0446 83.1572 12.0223 83.3784 10.8196C83.5701 9.77726 83.5321 8.87524 83.2646 8.11353C83.0211 7.33177 82.6092 6.69034 82.0288 6.18921C81.4483 5.68809 80.7217 5.31726 79.8488 5.07672C78.9999 4.81613 78.0761 4.68584 77.0775 4.68584H74.2649L71.9426 17.3142Z" fill="#1A1A1A"/>
<path d="M39.3116 5.97312C38.9521 5.42114 38.4588 4.99731 37.8317 4.70161C37.2246 4.40591 36.4801 4.25806 35.5982 4.25806C34.7163 4.25806 33.8636 4.42563 33.0403 4.76075C32.2371 5.09588 31.4987 5.56899 30.8251 6.18011C30.1751 6.7715 29.6137 7.48118 29.1407 8.30914C28.6878 9.1371 28.3725 10.0341 28.1949 11C28.0136 11.9857 27.9972 12.8925 28.1456 13.7204C28.3177 14.5287 28.6181 15.2384 29.0469 15.8495C29.4793 16.4409 30.0255 16.9041 30.6855 17.2392C31.3655 17.5744 32.1264 17.7419 32.9682 17.7419C33.9303 17.7419 34.8185 17.5448 35.6326 17.1505C36.4467 16.7563 37.1595 16.2043 37.7711 15.4946L41.1522 18.3629C40.0218 19.6048 38.7108 20.5215 37.219 21.1129C35.7272 21.7043 34.2497 22 32.7865 22C31.1229 22 29.6366 21.7437 28.3278 21.2312C27.019 20.7186 25.9405 19.9892 25.0923 19.043C24.2477 18.0771 23.6598 16.914 23.3287 15.5538C23.0176 14.1935 23.0161 12.6756 23.3242 11C23.6324 9.32437 24.1921 7.80645 25.0035 6.44624C25.8349 5.08602 26.8487 3.9328 28.045 2.98656C29.2448 2.02061 30.5934 1.28136 32.0908 0.768816C33.5881 0.256272 35.1686 0 36.8322 0C37.4335 0 38.044 0.0591396 38.6637 0.177419C39.307 0.275985 39.9176 0.443548 40.4954 0.680107C41.0933 0.916666 41.6466 1.23208 42.1554 1.62634C42.6642 2.02061 43.0965 2.50358 43.4524 3.07527L39.3116 5.97312Z" fill="#1A1A1A"/>
<path d="M13.2696 0.356134H17.2134L22.7147 21.6439H17.3341L16.2986 17.1338H7.89143L5.25832 21.6439H0L13.2696 0.356134ZM13.9649 6.55002L10.1193 13.1649H15.4082L13.9649 6.55002Z" fill="#1A1A1A"/>
<path d="M54.8568 0.356134H58.8006L64.3019 21.6439H58.9213L57.8858 17.1338H49.4786L46.8455 21.6439H41.5872L54.8568 0.356134ZM55.5521 6.55002L51.7065 13.1649H56.9954L55.5521 6.55002Z" fill="#1A1A1A"/>
<path d="M92.4163 0.356134H108.865L108.119 4.52238H96.3926L95.6197 8.8409H103.089L102.342 13.0072H94.8743L94.0745 17.4776H105.801L105.056 21.6439H88.6072L92.4163 0.356134Z" fill="#1A1A1A"/>
</svg>
