<svg width="24" height="24" fill="none" xmlns="http://www.w3.org/2000/svg"><circle cx="12" cy="12" r="12" fill="#333"/><path d="m15.662 5.253-1.754-.003c-1.97 0-3.244 1.304-3.244 3.322v1.532H8.901a.276.276 0 0 0-.276.276v2.22c0 .151.124.274.276.274h1.763v5.6c0 .153.124.276.276.276h2.301a.276.276 0 0 0 .276-.275v-5.6h2.062a.275.275 0 0 0 .275-.276l.001-2.22a.275.275 0 0 0-.276-.275h-2.062V8.806c0-.624.149-.941.963-.941h1.182a.275.275 0 0 0 .275-.276v-2.06a.276.276 0 0 0-.275-.276z" fill="#fff"/></svg>