<svg width="11" height="10" viewBox="0 0 11 10" fill="none" xmlns="http://www.w3.org/2000/svg">
<path d="M0.896522 0.146447L5.04297 4.293L9.18941 0.146447C9.38468 -0.0488155 9.70126 -0.0488155 9.89652 0.146447C10.0918 0.341709 10.0918 0.658291 9.89652 0.853553L5.74997 5L9.89652 9.14645C10.0918 9.34171 10.0918 9.65829 9.89652 9.85355C9.70126 10.0488 9.38468 10.0488 9.18941 9.85355L5.04297 5.707L0.896522 9.85355C0.70126 10.0488 0.384678 10.0488 0.189415 9.85355C-0.00584678 9.65829 -0.00584678 9.34171 0.189415 9.14645L4.33597 5L0.189415 0.853553C-0.00584678 0.658291 -0.00584678 0.341709 0.189415 0.146447C0.384678 -0.0488155 0.70126 -0.0488155 0.896522 0.146447Z" fill="#333333"/>
</svg>
