<svg width="24" height="24" fill="none" xmlns="http://www.w3.org/2000/svg"><circle cx="12" cy="12" r="12" fill="#333"/><path fill-rule="evenodd" clip-rule="evenodd" d="M8.974 5.25h6.05a3.73 3.73 0 013.725 3.725v6.049a3.73 3.73 0 01-3.726 3.726H8.974a3.73 3.73 0 01-3.725-3.726V8.975A3.73 3.73 0 018.974 5.25zm6.05 12.302a2.53 2.53 0 002.528-2.527v-6.05a2.53 2.53 0 00-2.528-2.527h-6.05a2.53 2.53 0 00-2.527 2.528v6.049a2.53 2.53 0 002.528 2.527h6.049zM8.464 12A3.54 3.54 0 0112 8.464 3.54 3.54 0 0115.535 12 3.54 3.54 0 0112 15.536 3.54 3.54 0 018.464 12zm1.217 0A2.32 2.32 0 0012 14.318 2.32 2.32 0 0014.317 12a2.32 2.32 0 00-2.319-2.318A2.32 2.32 0 009.681 12zm5.447-4.265a.807.807 0 011.136 0 .807.807 0 010 1.137.811.811 0 01-.568.235.81.81 0 01-.568-.235.81.81 0 01-.236-.568c0-.212.086-.42.236-.569z" fill="#fff"/></svg>