<svg xmlns="http://www.w3.org/2000/svg" width="231" height="145"><defs><linearGradient id="a" x1="50%" x2="50%" y1="0%" y2="100%"><stop offset="0%" stop-color="#FF6444"/><stop offset="100%" stop-color="#FF444F"/></linearGradient><linearGradient id="b" x1="108.097%" x2="0%" y1="44.296%" y2="58.303%"><stop offset="0%" stop-color="#FF6444"/><stop offset="100%" stop-color="#FF444F"/></linearGradient><linearGradient id="c" x1="108.097%" x2="0%" y1="44.306%" y2="58.288%"><stop offset="0%" stop-color="#FF6444"/><stop offset="100%" stop-color="#FF444F"/></linearGradient><linearGradient id="d" x1="50%" x2="50%" y1="0%" y2="100%"><stop offset="0%" stop-color="#FF6444"/><stop offset="100%" stop-color="#FF444F"/></linearGradient><linearGradient id="e" x1="78.863%" x2="25.16%" y1="19.139%" y2="94.922%"><stop offset="0%" stop-color="#FF6444"/><stop offset="100%" stop-color="#FF444F"/></linearGradient></defs><g fill="none" fill-rule="evenodd"><path fill="#E5E5E5" fill-rule="nonzero" d="M55.211 144.4c-18.508 0-32.22-6.333-41.137-19C5.158 112.733.7 95 .7 72.2.7 49.4 5.158 31.667 14.074 19 22.991 6.333 36.703 0 55.211 0s32.22 6.333 41.137 19c8.916 12.667 13.374 30.4 13.374 53.2 0 22.8-4.458 40.533-13.374 53.2-8.917 12.667-22.629 19-41.137 19zm0-25.4c8.106 0 13.712-2.933 16.82-8.8 3.107-5.867 4.66-14.133 4.66-24.8V59c0-10.667-1.553-18.933-4.66-24.8-3.108-5.867-8.714-8.8-16.82-8.8s-13.712 2.933-16.82 8.8c-3.107 5.867-4.66 14.133-4.66 24.8v26.4c0 10.667 1.553 18.933 4.66 24.8 3.108 5.867 8.714 8.8 16.82 8.8zm166.573-90.4h-64.238l-3.04 44.2h1.621c1.351-3.333 2.871-6.367 4.56-9.1 1.688-2.733 3.681-5.067 5.978-7 2.296-1.933 5.066-3.433 8.308-4.5 3.242-1.067 7.093-1.6 11.55-1.6 6.08 0 11.754 1 17.023 3s9.862 4.9 13.78 8.7c3.917 3.8 7.025 8.467 9.321 14 2.297 5.533 3.445 11.767 3.445 18.7 0 7.067-1.182 13.633-3.546 19.7s-5.877 11.3-10.538 15.7c-4.66 4.4-10.368 7.833-17.123 10.3-6.755 2.467-14.455 3.7-23.101 3.7-6.89 0-12.97-.733-18.238-2.2-5.269-1.467-9.93-3.433-13.983-5.9-4.052-2.467-7.565-5.3-10.537-8.5-2.972-3.2-5.539-6.6-7.7-10.2l22.088-17.2c3.107 5.467 6.822 10.1 11.145 13.9 4.323 3.8 10.132 5.7 17.427 5.7 7.296 0 12.8-2.067 16.516-6.2 3.715-4.133 5.572-9.6 5.572-16.4v-1.6c0-6.4-1.89-11.467-5.674-15.2-3.782-3.733-8.983-5.6-15.603-5.6-5.539 0-10.098 1.1-13.678 3.3-3.58 2.2-6.316 4.367-8.208 6.5l-24.925-3.4 5.27-79h86.528v26.2z" opacity=".295"/><path fill="url(#a)" fill-rule="nonzero" d="M31.916 11c5.172 0 9.37 4.227 9.615 9.512.967.582 1.53 1.63 1.53 2.988 0 2.045-1.279 3.39-3.29 3.493a8.592 8.592 0 01-4.467 4.324c5.38 1.21 9.277 5.781 9.277 11.683v1H20.264v-1c0-5.673 3.602-10.117 8.659-11.528a8.594 8.594 0 01-4.86-4.48l.04.003c-2.035-.087-3.332-1.436-3.332-3.495 0-1.357.563-2.406 1.53-2.988.246-5.285 4.444-9.512 9.615-9.512zm.507 22c-5.203 0-9.579 3.883-10.132 9h20.264l-.088-.448C41.785 36.582 37.527 33 32.423 33zm-.507-16c-3.637 0-6.586 2.91-6.586 6.5s2.95 6.5 6.586 6.5a6.589 6.589 0 006.082-4h-3.549c-.56 0-1.013-.448-1.013-1 0-.513.391-.936.895-.993L34.45 24h4.034a6.37 6.37 0 00.02-.5c0-3.59-2.95-6.5-6.587-6.5zm-8.51 5.19l-.052.03c-.377.232-.557.653-.557 1.28 0 .655.196 1.085.609 1.31a8.455 8.455 0 010-2.62zm17.02 0l.01.054A8.46 8.46 0 0140.513 24h.474a2.41 2.41 0 00.047-.501c0-.655-.196-1.085-.608-1.31zM31.917 13c-3.576 0-6.592 2.609-7.391 6.135A8.632 8.632 0 0131.916 15a8.631 8.631 0 017.392 4.135C38.508 15.61 35.493 13 31.916 13z" transform="translate(25.321 54)"/><path stroke="url(#b)" stroke-linecap="round" stroke-linejoin="round" stroke-width="2" d="M5.797 20.7c1.24-4.46 5.789-16.618 20.702-19.04 14.913-2.422 23.62 7.718 24.45 8.53" transform="rotate(-3 1072.122 -445.495)"/><path stroke="url(#c)" stroke-linecap="round" stroke-linejoin="round" stroke-width="2" d="M16.255 57.006c1.225-4.46 5.73-16.62 20.616-18.998 14.888-2.378 23.617 7.803 24.448 8.618" transform="rotate(162 47.171 76.333)"/><path stroke="url(#d)" stroke-width="2" d="M2.413 13.286H1a1 1 0 01-1-1v-11a1 1 0 011-1h14.211a1 1 0 011 1v11a1 1 0 01-1 1H8.504a1 1 0 00-.687.273l-2.193 2.074a1 1 0 01-1.587-.29l-.724-1.493a1 1 0 00-.9-.564z" transform="translate(73.956 66.714)"/><path stroke="url(#e)" stroke-width="2" d="M11.924 52.36l5.458-1.435a1 1 0 00.657-1.38l-1.81-3.993a1 1 0 00-1.165-.554l-2.031.533a1 1 0 01-1.184-.6l-3.616-9.144a1 1 0 01.362-1.19l.743-.513a1 1 0 00.324-1.276L6.76 27.089a1 1 0 00-1.25-.48l-4.508 1.727a1 1 0 00-.549 1.356l10.31 22.122a1 1 0 001.161.545z" transform="translate(25.321 54)"/></g></svg>