<svg xmlns="http://www.w3.org/2000/svg" width="231" height="145"><defs><linearGradient id="a" x1="50%" x2="50%" y1="0%" y2="100%"><stop offset="0%" stop-color="#FF6444"/><stop offset="100%" stop-color="#FF444F"/></linearGradient><linearGradient id="b" x1="108.097%" x2="0%" y1="31.463%" y2="76.983%"><stop offset="0%" stop-color="#FF6444"/><stop offset="100%" stop-color="#FF444F"/></linearGradient><linearGradient id="c" x1="108.097%" x2="0%" y1="31.655%" y2="76.704%"><stop offset="0%" stop-color="#FF6444"/><stop offset="100%" stop-color="#FF444F"/></linearGradient><linearGradient id="d" x1="59.459%" x2="41.859%" y1="19.139%" y2="94.922%"><stop offset="0%" stop-color="#FF6444"/><stop offset="100%" stop-color="#FF444F"/></linearGradient><linearGradient id="e" x1="108.097%" x2="0%" y1="19.674%" y2="94.144%"><stop offset="0%" stop-color="#FF6444"/><stop offset="100%" stop-color="#FF444F"/></linearGradient></defs><g fill="none" fill-rule="evenodd"><path fill="#E5E5E5" fill-rule="nonzero" d="M54.972 119c8.07 0 13.652-2.933 16.746-8.8 3.093-5.867 4.64-14.133 4.64-24.8V59c0-10.667-1.547-18.933-4.64-24.8-3.094-5.867-8.676-8.8-16.746-8.8-8.07 0-13.652 2.933-16.746 8.8-3.093 5.867-4.64 14.133-4.64 24.8v26.4c0 10.667 1.547 18.933 4.64 24.8 3.094 5.867 8.676 8.8 16.746 8.8zm0-119C73.399 0 87.05 6.333 95.928 19c8.877 12.667 13.316 30.4 13.316 53.2 0 22.8-4.439 40.533-13.316 53.2-8.877 12.667-22.53 19-40.956 19-18.427 0-32.079-6.333-40.956-19C5.139 112.733.7 95 .7 72.2.7 49.4 5.139 31.667 14.016 19 22.893 6.333 36.545 0 54.972 0zM212.34 2.4V92h17.755v23.2H212.34V142h-28.85v-26.8h-61.94V89.6l54.878-87.2h35.912zm-28.85 31h-2.018L145.762 92h37.727V33.4z" opacity=".295"/><g transform="translate(25.213 54)"><path fill="url(#a)" fill-rule="nonzero" d="M42.368 63c-.476 0-.875-.327-.98-.767l-8.947 1.732a1.942 1.942 0 01-.859-.028l-18.821-4.903a1.959 1.959 0 01-.693-.338L.788 50.102A2.014 2.014 0 010 48.499v-4.62c0-.2.03-.399.087-.59a1.966 1.966 0 012.465-1.325l.264.09c.414.134 5.915 1.699 11.07 3.192l5.458 1.597c1.015-1.311 1.955-2.22 2.852-2.725.762-.43 2.99-1.124 6.807-2.13l1.612-.42 2.006-.51a1.94 1.94 0 01.68-.047l8.067.862a1.006 1.006 0 011-.873h3.027c0-.552.451-1 1.009-1h17.149c.557 0 1.008.448 1.008 1v22c0 .552-.451 1-1.008 1h-17.15a1.004 1.004 0 01-1.008-1h-3.027zm20.176-21H47.412v20h15.132V42zm-29.45 1.003l-2.047.52c-4.042 1.042-6.616 1.793-7.6 2.207l-.17.075-.124.064c-.65.367-1.444 1.142-2.346 2.326l.074.206c.429 1.132 1.001 1.6 1.793 1.6h9.859c.544 0 .986.45.986 1.002a.994.994 0 01-.986 1.002h-9.859c-1.767 0-3.04-1.13-3.73-3.156l-.014-.042c-.836-.249-1.785-.528-2.795-.823L2.248 43.97l-.276-.091v4.62l11.279 8.595 18.82 4.903 9.288-1.798V43.887l-8.265-.884zm12.3-.003h-2.017v18h2.018V43z"/><path stroke="url(#b)" stroke-linecap="round" stroke-linejoin="round" stroke-width="2" d="M5.044 43l3.026-4-1.009-5H0V23h7.061l1.261-4.329-4.438-6.224 7.212-7.355 6.658 4.526L22.193 8V0h10.088v8l5.447 1.618 5.548-4.526L50.44 13l-4.389 5.671L49.43 23h6.052v11h-7.06l-2.372 5.04L47.412 41"/><path stroke="url(#c)" stroke-linejoin="round" stroke-width="2" d="M27.741 14L41.36 35H14.123z"/><path stroke="url(#d)" stroke-linecap="round" stroke-width="2" d="M28.246 21v5"/><circle cx="28.246" cy="29" fill="url(#e)" stroke="url(#e)" stroke-width="2" r="1"/></g></g></svg>