<svg width="230" height="160" viewBox="0 0 230 160" fill="none" xmlns="http://www.w3.org/2000/svg">
<path opacity="0.295085" fill-rule="evenodd" clip-rule="evenodd" d="M13.3744 138.947C22.2908 152.983 36.0028 160 54.511 160C73.0192 160 86.7312 152.983 95.6476 138.947C104.564 124.912 109.022 105.263 109.022 80C109.022 54.7367 104.564 35.0878 95.6476 21.0526C86.7312 7.01747 73.0192 0 54.511 0C36.0028 0 22.2908 7.01747 13.3744 21.0526C4.45811 35.0878 0 54.7367 0 80C0 105.263 4.45811 124.912 13.3744 138.947ZM71.3304 122.105C68.2232 128.606 62.6168 131.856 54.511 131.856C46.4053 131.856 40.7988 128.606 37.6916 122.105C34.5844 115.605 33.0308 106.445 33.0308 94.626V65.374C33.0308 53.5549 34.5844 44.3952 37.6916 37.8947C40.7988 31.3942 46.4053 28.144 54.511 28.144C62.6168 28.144 68.2232 31.3942 71.3304 37.8947C74.4376 44.3952 75.9912 53.5549 75.9912 65.374V94.626C75.9912 106.445 74.4376 115.605 71.3304 122.105ZM176.907 160C168.532 160 161.034 158.56 154.414 155.679C147.794 152.798 142.222 148.661 137.696 143.269C133.17 137.876 129.725 131.413 127.361 123.878C124.997 116.343 123.815 107.922 123.815 98.615C123.815 87.83 125.335 77.5993 128.374 67.9224C131.414 58.2456 135.332 49.3075 140.128 41.108C144.924 32.9085 150.327 25.5587 156.339 19.0582C162.351 12.5577 168.396 7.09143 174.476 2.65928H216.423C207.777 9.45525 200.009 15.9187 193.119 22.0499C186.229 28.181 180.251 34.349 175.185 40.554C170.119 46.759 165.931 53.0748 162.621 59.5014C159.311 65.928 156.981 72.8347 155.63 80.2216L157.454 80.8864C158.67 77.9317 160.122 75.0508 161.811 72.2438C163.499 69.4367 165.593 66.9622 168.093 64.8199C170.592 62.6777 173.53 60.9418 176.907 59.6122C180.285 58.2825 184.203 57.6177 188.661 57.6177C194.47 57.6177 199.907 58.7627 204.974 61.0526C210.04 63.3426 214.43 66.5558 218.145 70.6925C221.861 74.8292 224.765 79.8892 226.859 85.8726C228.953 91.856 230 98.4672 230 105.706C230 113.684 228.75 120.997 226.251 127.645C223.752 134.294 220.172 140.018 215.511 144.82C210.85 149.621 205.278 153.352 198.793 156.011C192.308 158.67 185.013 160 176.907 160ZM161.101 127.978C164.884 132.041 170.153 134.072 176.907 134.072C183.662 134.072 188.931 132.041 192.714 127.978C196.496 123.915 198.388 118.116 198.388 110.582V106.593C198.388 99.0581 196.496 93.2595 192.714 89.1967C188.931 85.1339 183.662 83.1025 176.907 83.1025C170.153 83.1025 164.884 85.1339 161.101 89.1967C157.319 93.2595 155.427 99.0581 155.427 106.593V110.582C155.427 118.116 157.319 123.915 161.101 127.978Z" fill="#E5E5E5"/>
<path fill-rule="evenodd" clip-rule="evenodd" d="M53 40.5C70.6731 40.5 85 54.8269 85 72.5C85 80.7223 81.8989 88.2204 76.8025 93.8883L83.7071 100.793C84.0976 101.183 84.0976 101.817 83.7071 102.207C83.3466 102.568 82.7794 102.595 82.3871 102.29L82.2929 102.207L75.4194 95.3336C69.6457 101.003 61.7312 104.5 53 104.5C35.3269 104.5 21 90.1731 21 72.5C21 54.8269 35.3269 40.5 53 40.5ZM53 42.5C36.4315 42.5 23 55.9315 23 72.5C23 89.0685 36.4315 102.5 53 102.5C69.5685 102.5 83 89.0685 83 72.5C83 55.9315 69.5685 42.5 53 42.5ZM59.7344 58.1798C60.5354 59.4259 61 60.9087 61 62.5V66.5H65.0004C65.5133 66.5 65.9359 66.886 65.9937 67.3834L66.0004 67.5V68.5H73C73.5523 68.5 74 68.9477 74 69.5C74 70.0523 73.5523 70.5 73 70.5H66.0004V75.5H73C73.5523 75.5 74 75.9477 74 76.5C74 77.0523 73.5523 77.5 73 77.5H66.0004V82.5H73C73.5523 82.5 74 82.9477 74 83.5C74 84.0523 73.5523 84.5 73 84.5H65.8475C64.9509 90.3069 60.2114 94.8451 54.3088 95.435L54 95.4621L54.0004 68.5H54H52L52.0004 95.4621L51.6916 95.435C45.789 94.8451 41.0495 90.3069 40.1529 84.5H33C32.4477 84.5 32 84.0523 32 83.5C32 82.9477 32.4477 82.5 33 82.5H40V77.5H33C32.4477 77.5 32 77.0523 32 76.5C32 75.9477 32.4477 75.5 33 75.5H40V70.5H33C32.4477 70.5 32 70.0523 32 69.5C32 68.9477 32.4477 68.5 33 68.5H40V67.5L40.0067 67.3834C40.0645 66.886 40.4872 66.5 41 66.5H45V62.5C45 60.9087 45.4646 59.4259 46.2656 58.1798L42.2929 54.2071C41.9024 53.8166 41.9024 53.1834 42.2929 52.7929C42.6534 52.4324 43.2206 52.4047 43.6129 52.7097L43.7071 52.7929L47.554 56.6398C48.9821 55.3121 50.8962 54.5 53 54.5C55.1038 54.5 57.0179 55.3121 58.446 56.6398L62.2929 52.7929L62.3871 52.7097C62.7794 52.4047 63.3466 52.4324 63.7071 52.7929C64.0976 53.1834 64.0976 53.8166 63.7071 54.2071L59.7344 58.1798ZM54.0004 66.5H54H52H47V62.5L47.0041 62.2751C47.1224 59.0656 49.7616 56.5 53 56.5L53.2249 56.5041C56.4344 56.6224 59 59.2616 59 62.5V66.5H54.0004ZM50.0004 68.5H45H42.0004L42 82.5L42.0038 82.792C42.1307 87.6441 45.4108 91.7474 49.9079 93.0603L50.0014 93.086L50.0004 68.5ZM55.999 93.086L56 68.5H61H64L64.0004 82.5L63.9966 82.792C63.8697 87.6441 60.5897 91.7474 56.0925 93.0603L55.999 93.086Z" fill="url(#paint0_linear_2901_26295)"/>
<defs>
<linearGradient id="paint0_linear_2901_26295" x1="53" y1="136.5" x2="117" y2="72.5" gradientUnits="userSpaceOnUse">
<stop stop-color="#FF444F"/>
<stop offset="1" stop-color="#FF6444"/>
</linearGradient>
</defs>
</svg>
