<svg width="232" height="145" viewBox="0 0 232 145" xmlns="http://www.w3.org/2000/svg">
    <defs>
        <linearGradient x1="0%" y1="100%" x2="100%" y2="0%" id="a">
            <stop stop-color="#FF444F" offset="0%"/>
            <stop stop-color="#FF6444" offset="100%"/>
        </linearGradient>
    </defs>
    <g fill="none" fill-rule="evenodd">
        <path d="M55.655 145c-18.557 0-32.305-6.36-41.245-19.079C5.47 113.201 1 95.395 1 72.5s4.47-40.702 13.41-53.421C23.35 6.359 37.098 0 55.655 0c18.558 0 32.306 6.36 41.246 19.079 8.94 12.72 13.41 30.526 13.41 53.421s-4.47 40.702-13.41 53.421C87.961 138.641 74.213 145 55.655 145zm0-25.506c8.128 0 13.749-2.945 16.864-8.836 3.116-5.891 4.674-14.192 4.674-24.903v-26.51c0-10.71-1.558-19.012-4.674-24.903-3.115-5.891-8.736-8.836-16.864-8.836-8.127 0-13.748 2.945-16.863 8.836-3.116 5.891-4.674 14.192-4.674 24.903v26.51c0 10.71 1.558 19.012 4.674 24.903 3.115 5.891 8.736 8.836 16.863 8.836zM222.67 28.72H158.26l-3.047 44.383h1.625c1.355-3.347 2.879-6.393 4.572-9.137 1.693-2.745 3.69-5.088 5.994-7.03 2.302-1.94 5.08-3.447 8.33-4.518 3.25-1.071 7.111-1.607 11.581-1.607 6.096 0 11.785 1.004 17.067 3.013 5.283 2.008 9.888 4.92 13.817 8.736 3.928 3.816 7.043 8.502 9.346 14.058C229.849 82.173 231 88.433 231 95.395c0 7.096-1.185 13.69-3.556 19.782-2.37 6.091-5.892 11.347-10.565 15.765-4.673 4.418-10.396 7.866-17.169 10.343-6.772 2.477-14.493 3.715-23.162 3.715-6.908 0-13.004-.736-18.287-2.21-5.282-1.472-9.955-3.447-14.019-5.924-4.064-2.477-7.585-5.322-10.565-8.535-2.98-3.213-5.554-6.627-7.721-10.242l22.146-17.272c3.116 5.49 6.84 10.142 11.175 13.958 4.335 3.816 10.16 5.724 17.474 5.724s12.834-2.076 16.56-6.226c3.724-4.15 5.587-9.64 5.587-16.468v-1.607c0-6.427-1.897-11.514-5.69-15.263-3.792-3.749-9.007-5.623-15.644-5.623-5.554 0-10.126 1.104-13.715 3.313-3.59 2.21-6.333 4.385-8.229 6.527l-24.991-3.414 5.283-79.328h86.758v26.309z" fill="#E5E5E5" fill-rule="nonzero" opacity=".295"/>
        <path d="M32 0c17.673 0 32 14.327 32 32 0 8.222-3.101 15.72-8.198 21.388l6.905 6.905a1 1 0 0 1-1.32 1.497l-.094-.083-6.874-6.873C48.645 60.504 40.731 64 32 64 14.327 64 0 49.673 0 32 0 14.327 14.327 0 32 0zm0 2C15.431 2 2 15.431 2 32c0 16.569 13.431 30 30 30 16.569 0 30-13.431 30-30C62 15.431 48.569 2 32 2zm-9.387 10.21.094.083 3.847 3.847A7.972 7.972 0 0 1 32 14c2.104 0 4.018.812 5.446 2.14l3.847-3.847.094-.083a1 1 0 0 1 1.32 1.497l-3.972 3.973A7.963 7.963 0 0 1 40 22v4h4a1 1 0 0 1 .994.883L45 27v1h7a1 1 0 0 1 0 2h-7v5h7a1 1 0 0 1 0 2h-7v5h7a1 1 0 0 1 0 2h-7.153c-.896 5.807-5.636 10.345-11.538 10.935l-.309.027V28h-2v26.962l-.308-.027c-5.903-.59-10.642-5.128-11.539-10.934L12 44a1 1 0 0 1 0-2h7v-5h-7a1 1 0 0 1 0-2h7v-5h-7a1 1 0 0 1 0-2h7v-1l.007-.117A1 1 0 0 1 20 26h4v-4c0-1.591.465-3.074 1.265-4.32l-3.972-3.973a1 1 0 0 1 1.32-1.497zM43 28h-8l-.001 24.586.094-.026a11.01 11.01 0 0 0 7.904-10.268L43 42V28zm-14 0h-8v14l.004.292a11.01 11.01 0 0 0 7.904 10.268l.093.026V28zm3-12a6 6 0 0 0-5.996 5.775L26 22v4h12v-4a6 6 0 0 0-5.775-5.996L32 16z" transform="translate(25 52)" fill="url(#a)"/>
    </g>
</svg>
