<svg xmlns="http://www.w3.org/2000/svg" width="229" height="145"><defs><linearGradient id="a" x1="90.006%" x2="28.703%" y1="17.201%" y2="82.588%"><stop offset="0%" stop-color="#FF6444"/><stop offset="100%" stop-color="#FF444F"/></linearGradient><linearGradient id="b" x1="88.564%" x2="29.471%" y1="17.201%" y2="82.588%"><stop offset="0%" stop-color="#FF6444"/><stop offset="100%" stop-color="#FF444F"/></linearGradient><linearGradient id="c" x1="115.184%" x2="0%" y1="12.888%" y2="75.934%"><stop offset="0%" stop-color="#FF6444"/><stop offset="100%" stop-color="#FF444F"/></linearGradient><linearGradient id="d" x1="50%" x2="50%" y1="0%" y2="100%"><stop offset="0%" stop-color="#FF6444"/><stop offset="100%" stop-color="#FF444F"/></linearGradient><linearGradient id="e" x1="50%" x2="50%" y1="0%" y2="100%"><stop offset="0%" stop-color="#FF444F"/><stop offset="100%" stop-color="#FF6444"/></linearGradient><linearGradient id="f" x1="50%" x2="50%" y1="0%" y2="100%"><stop offset="0%" stop-color="#FF444F"/><stop offset="100%" stop-color="#FF6444"/></linearGradient><linearGradient id="g" x1="50%" x2="50%" y1="0%" y2="100%"><stop offset="0%" stop-color="#FF6444"/><stop offset="100%" stop-color="#FF444F"/></linearGradient><linearGradient id="h" x1="50%" x2="50%" y1="0%" y2="100%"><stop offset="0%" stop-color="#FF444F"/><stop offset="100%" stop-color="#FF6444"/></linearGradient></defs><g fill="none" fill-rule="evenodd"><path fill="#E5E5E5" fill-rule="nonzero" d="M54.179 119.494c8.056 0 13.628-2.945 16.716-8.836 3.089-5.891 4.633-14.192 4.633-24.903v-26.51c0-10.71-1.544-19.012-4.633-24.903-3.088-5.891-8.66-8.836-16.716-8.836-8.057 0-13.629 2.945-16.717 8.836-3.089 5.891-4.633 14.192-4.633 24.903v26.51c0 10.71 1.544 19.012 4.633 24.903 3.088 5.891 8.66 8.836 16.717 8.836zM54.179 0c18.395 0 32.023 6.36 40.885 19.079 8.862 12.72 13.293 30.526 13.293 53.421s-4.43 40.702-13.293 53.421C86.202 138.641 72.574 145 54.18 145c-18.396 0-32.024-6.36-40.886-19.079C4.43 113.201 0 95.395 0 72.5s4.43-40.702 13.293-53.421C22.155 6.359 35.783 0 54.179 0zm157.097 2.41v89.972H229v23.297h-17.724v26.911h-28.801v-26.911h-61.832V89.972L175.426 2.41h35.85zm-28.801 31.129h-2.014l-35.65 58.843h37.664V33.54z" opacity=".295"/><path fill="url(#a)" fill-rule="nonzero" d="M34.066 3.183l24.808 9.36c.197 8.25-1.24 21.81-3.57 25.92a1.01 1.01 0 00.398 1.386c.5.275 1.13.1 1.409-.392 2.643-4.66 4.121-19.125 3.812-27.659l-.024-.674L34.067 1 7.109 11.137l.012.714c.256 15.654 2.572 27.059 6.997 34.24 4.746 7.7 8.782 11.408 16.885 15.024a1.041 1.041 0 001.37-.507 1.013 1.013 0 00-.515-1.35c-7.706-3.438-11.432-6.861-15.97-14.224-4.06-6.588-6.297-17.174-6.666-31.732l-.018-.77 24.862-9.35z" transform="translate(23.7 54)"/><path fill="url(#b)" fill-rule="nonzero" d="M34.061 7.221l20.794 7.99.01.803v.82c-.042 7.092-1.21 17.22-3.004 20.44a1.053 1.053 0 00.38 1.418 1.002 1.002 0 001.385-.388c2.21-3.969 3.455-16.045 3.252-23.453l-.038-1.099L34.062 5l-22.89 8.766.012.734c.216 13.48 2.176 23.308 5.93 29.51 4.02 6.642 7.447 9.849 14.312 12.968a1.006 1.006 0 001.34-.528 1.05 1.05 0 00-.516-1.373c-6.475-2.942-9.597-5.862-13.41-12.163-3.39-5.602-5.271-14.609-5.595-26.997l-.017-.718L34.061 7.22z" transform="translate(23.7 54)"/><path fill="url(#c)" fill-rule="nonzero" d="M27.866 26.828a.898.898 0 00-1.21 0 .763.763 0 000 1.13L32.052 33 42.48 20.286a.765.765 0 00-.159-1.121.896.896 0 00-1.199.148L31.88 30.58l-4.014-3.752z" transform="translate(23.7 54)"/><path stroke="url(#d)" stroke-width="2" d="M35.531 49v14h20.344V49H35.531z" transform="translate(23.7 54)"/><path fill="url(#e)" fill-rule="nonzero" d="M55.86 49c0-6.607-4.315-11-10.157-11-5.71 0-10.156 4.303-10.156 11h2.031c0-5.746 3.264-9 8.125-9 5.02 0 8.125 3.38 8.125 9h2.031z" transform="translate(23.7 54)"/><path fill="url(#f)" fill-rule="nonzero" d="M51.797 48c0-4.301-2.698-7-6.094-7-3.346 0-6.094 2.648-6.094 7h2.032c0-3.693 2.03-5 4.062-5 2.031 0 4.063 1.374 4.063 5h2.03z" transform="translate(23.7 54)"/><g fill-rule="nonzero"><path fill="url(#g)" d="M3.047 0C4.73 0 6.094 1.343 6.094 3S4.73 6 3.047 6 0 4.657 0 3s1.364-3 3.047-3zm0 2c-.561 0-1.016.448-1.016 1s.455 1 1.016 1c.56 0 1.015-.448 1.015-1s-.454-1-1.015-1z" transform="translate(66.356 105)"/><path fill="url(#h)" d="M2.031 5.833v3.334c0 .46.455.833 1.016.833.56 0 1.015-.373 1.015-.833V5.833c0-.46-.454-.833-1.015-.833-.561 0-1.016.373-1.016.833z" transform="translate(66.356 105)"/></g></g></svg>