<svg xmlns="http://www.w3.org/2000/svg" width="45" height="44" fill="none"><path fill="#E22526" d="M.75 8.127A8.127 8.127 0 0 1 8.877 0h27.089a8.127 8.127 0 0 1 8.127 8.127v27.089a8.127 8.127 0 0 1-8.127 8.127H8.876A8.127 8.127 0 0 1 .75 35.216V8.126Z"/><path fill="#B51E1E" d="M8.877 0A8.127 8.127 0 0 0 .75 8.127v.236l40.518-6.395A8.095 8.095 0 0 0 35.966 0H8.876ZM42.104 2.8l-7.432 40.543h1.294a8.127 8.127 0 0 0 8.127-8.127V8.126c0-2.037-.75-3.899-1.989-5.325Z"/><path fill="#fff" d="M12.95 23.122c0-.72.113-1.397.34-2.029a4.87 4.87 0 0 1 1.025-1.669c.442-.48.98-.86 1.612-1.137.632-.278 1.352-.418 2.161-.418.531 0 1.018.051 1.46.152.443.089.873.221 1.29.398l-.588 2.257a7.1 7.1 0 0 0-.872-.266 4.556 4.556 0 0 0-1.062-.113c-.834 0-1.46.259-1.877.777-.405.518-.607 1.201-.607 2.048 0 .898.19 1.593.569 2.086.392.493 1.068.74 2.029.74a6.93 6.93 0 0 0 1.1-.095 4.674 4.674 0 0 0 1.08-.304l.399 2.314c-.33.139-.74.259-1.233.36a8.127 8.127 0 0 1-1.63.152c-.91 0-1.695-.133-2.352-.399-.657-.278-1.201-.65-1.63-1.118a4.51 4.51 0 0 1-.93-1.65 7.363 7.363 0 0 1-.284-2.086ZM31.893 14.968v2.522H27.93v10.62h-2.958V17.49h-3.963v-2.522h10.884Z"/></svg>