<svg xmlns="http://www.w3.org/2000/svg" width="160" height="23" fill="none"><path fill="#414652" fill-rule="evenodd" d="m13.21 1.982-1.068 6.05H8.44c-3.455 0-6.749 2.8-7.359 6.255l-.258 1.47c-.608 3.455 1.697 6.255 5.153 6.255h3.088c2.519 0 4.917-2.039 5.36-4.557L17.268 1.33l-4.059.653ZM10.58 16.884c-.136.778-.836 1.412-1.614 1.412H7.09c-1.553 0-2.592-1.261-2.32-2.817l.163-.917c.275-1.553 1.757-2.816 3.31-2.816h3.244l-.906 5.138Z" clip-rule="evenodd"/><path fill="#414652" d="M41.73 22.013h3.844l2.43-13.787h-3.843l-2.43 13.787ZM41.858 10.024l.001-.004.288-1.635c-3.944-1.016-7.016.035-8.267.553l-2.307 13.078h3.846l1.872-10.62c.578-.116 2.457-.296 4.278.27l.29-1.642Z"/><path fill="#414652" fill-rule="evenodd" d="M26.558 8.03h-2.99c-2.915 0-5.695 2.363-6.208 5.279l-.605 3.426c-.514 2.916 1.43 5.278 4.347 5.278h6.364l.653-3.705h-5.981c-.971 0-1.621-.786-1.448-1.76l.02-.116h9.644l.55-3.123c.514-2.916-1.43-5.278-4.346-5.278Zm.488 4.983-.022.2h-5.735l.031-.177c.173-.97 1.059-1.825 2.033-1.825h2.24c.962 0 1.612.84 1.453 1.802Z" clip-rule="evenodd"/><path fill="#414652" d="M54.685 17.32c1.746-3.14 3.67-7.26 4.472-9.094h3.85c-1.31 3.484-4.314 9.41-7.223 13.787h-3.847c-1.335-4.165-2.197-9.968-2.362-13.787h3.847c.07 1.246.627 5.866 1.264 9.094ZM67.018 15.028c0-1.081.17-2.096.512-3.044a7.306 7.306 0 0 1 1.536-2.503 7.163 7.163 0 0 1 2.418-1.706c.948-.418 2.029-.626 3.243-.626.796 0 1.526.076 2.19.227a9.922 9.922 0 0 1 1.934.598l-.882 3.384a10.694 10.694 0 0 0-1.308-.398 6.838 6.838 0 0 0-1.593-.17c-1.252 0-2.19.388-2.816 1.166-.607.777-.91 1.801-.91 3.072 0 1.346.284 2.389.853 3.129.588.739 1.602 1.109 3.044 1.109.511 0 1.061-.048 1.65-.142a7.022 7.022 0 0 0 1.62-.455l.598 3.47c-.493.208-1.11.388-1.849.54-.74.152-1.555.228-2.446.228-1.365 0-2.541-.2-3.527-.598-.986-.417-1.802-.976-2.446-1.678a6.766 6.766 0 0 1-1.394-2.474 11.04 11.04 0 0 1-.427-3.13ZM95.433 2.797V6.58H89.49v15.928H85.05V6.58h-5.944V2.797h16.326Z"/><path fill="#414652" d="M103.623 11.302c-.379-.095-.825-.19-1.337-.285a7.596 7.596 0 0 0-1.65-.17c-.265 0-.587.028-.967.085-.36.038-.635.085-.825.142v11.434h-4.238V8.343c.759-.265 1.65-.512 2.674-.74 1.043-.246 2.2-.369 3.47-.369.228 0 .503.02.825.057.322.019.645.057.967.114.323.038.645.095.967.17.323.057.598.133.825.228l-.711 3.499ZM110.623 19.55c.418 0 .816-.01 1.195-.028.379-.02.683-.048.91-.086v-3.214a7.79 7.79 0 0 0-.768-.114 8.55 8.55 0 0 0-.938-.056c-.399 0-.778.028-1.138.085a2.672 2.672 0 0 0-.91.256 1.585 1.585 0 0 0-.626.54c-.152.228-.228.512-.228.854 0 .663.218 1.128.655 1.393.455.247 1.071.37 1.848.37Zm-.341-12.401c1.252 0 2.294.142 3.129.426.834.285 1.498.693 1.991 1.223a4.427 4.427 0 0 1 1.081 1.935c.208.758.313 1.602.313 2.531v8.818c-.607.132-1.451.284-2.532.455-1.081.19-2.389.284-3.925.284-.967 0-1.849-.085-2.645-.256-.778-.17-1.451-.445-2.02-.825a3.941 3.941 0 0 1-1.308-1.536c-.304-.625-.455-1.393-.455-2.303 0-.873.17-1.612.512-2.22.36-.606.834-1.09 1.422-1.45a6.135 6.135 0 0 1 2.019-.768c.759-.17 1.546-.256 2.361-.256.55 0 1.034.029 1.451.086a5.77 5.77 0 0 1 1.052.17v-.398c0-.72-.218-1.299-.654-1.735-.436-.436-1.195-.654-2.276-.654-.72 0-1.431.057-2.133.17-.701.095-1.308.238-1.82.427l-.541-3.413c.247-.076.55-.152.911-.228.379-.095.787-.17 1.223-.227.436-.076.891-.133 1.365-.17.493-.058.986-.086 1.479-.086ZM122.818 14.914c0 1.308.294 2.36.882 3.157.588.797 1.46 1.195 2.617 1.195.379 0 .73-.01 1.052-.029.323-.038.588-.075.797-.113v-7.709c-.266-.17-.617-.313-1.053-.426a4.842 4.842 0 0 0-1.28-.171c-2.01 0-3.015 1.365-3.015 4.096Zm9.586 7.11c-.38.115-.816.228-1.309.342-.493.095-1.014.18-1.564.256-.531.076-1.081.133-1.65.17-.55.058-1.081.086-1.593.086-1.232 0-2.332-.18-3.299-.54-.967-.36-1.783-.873-2.446-1.536a7.049 7.049 0 0 1-1.536-2.446c-.342-.968-.512-2.048-.512-3.243 0-1.214.151-2.304.455-3.271.303-.986.739-1.82 1.308-2.503a5.626 5.626 0 0 1 2.077-1.564c.834-.36 1.782-.54 2.844-.54.588 0 1.109.056 1.564.17.474.114.949.275 1.423.483v-6.77l4.238-.682v21.589ZM134.239 15.141c0-1.327.199-2.484.597-3.47.417-1.005.958-1.84 1.621-2.503a6.728 6.728 0 0 1 2.276-1.507 7.277 7.277 0 0 1 2.674-.512c2.123 0 3.802.654 5.034 1.962 1.233 1.29 1.849 3.195 1.849 5.718 0 .246-.01.521-.028.824-.019.285-.038.54-.057.768h-9.614c.094.873.502 1.565 1.223 2.077.72.512 1.687.768 2.901.768.777 0 1.536-.067 2.275-.2.759-.151 1.375-.331 1.849-.54l.569 3.442a5.837 5.837 0 0 1-.91.341 9.953 9.953 0 0 1-1.28.285c-.455.095-.948.17-1.479.227a14.94 14.94 0 0 1-1.593.086c-1.346 0-2.522-.2-3.527-.598-.986-.398-1.811-.938-2.475-1.621a6.888 6.888 0 0 1-1.45-2.475c-.304-.948-.455-1.972-.455-3.072Zm9.955-1.62a3.967 3.967 0 0 0-.199-1.053 2.344 2.344 0 0 0-.484-.91 2.38 2.38 0 0 0-.824-.655c-.323-.17-.731-.256-1.224-.256-.474 0-.881.086-1.223.256-.341.152-.625.36-.853.626a3.038 3.038 0 0 0-.54.939 6.547 6.547 0 0 0-.256 1.052h5.603ZM159.155 11.302c-.379-.095-.825-.19-1.337-.285a7.596 7.596 0 0 0-1.65-.17c-.265 0-.587.028-.967.085a4.81 4.81 0 0 0-.825.142v11.434h-4.238V8.343c.759-.265 1.65-.512 2.674-.74 1.043-.246 2.2-.369 3.47-.369.228 0 .503.02.825.057.322.019.645.057.967.114.323.038.645.095.967.17.323.057.598.133.825.228l-.711 3.499Z"/></svg>