<svg width="32" height="32" fill="none" xmlns="http://www.w3.org/2000/svg"><path d="M2 11a9 9 0 1118 0 9 9 0 01-18 0z" fill="#171C21"/><path d="M15.483 7.276h-1.302l-2.057 2.036a1.602 1.602 0 01-2.248 0L7.818 7.276H6.517l2.708 2.68c.98.97 2.57.97 3.55 0l2.708-2.68zM6.5 14.73h1.302l2.074-2.053a1.602 1.602 0 012.248 0l2.074 2.052H15.5l-2.725-2.696c-.98-.97-2.57-.97-3.55 0L6.5 14.729z" fill="#fff"/><path d="M12 21a9 9 0 1118 0 9 9 0 01-18 0z" fill="#fff"/><path fill-rule="evenodd" clip-rule="evenodd" d="M20.62 12c-1.734.1-3.335.69-4.668 1.633h10.386A8.956 8.956 0 0021.671 12H20.62zm-6.428 3.266a8.985 8.985 0 00-1.067 1.633h16.041a8.973 8.973 0 00-1.068-1.633H14.192zm-2.155 4.915c.05-.56.15-1.106.298-1.633h17.317c.148.527.25 1.072.299 1.633H12.037zm.003 1.633c.053.561.158 1.107.308 1.633H29.64a8.897 8.897 0 00.308-1.633H12.041zm2.04 4.899a8.99 8.99 0 01-1.083-1.633H28.99a8.981 8.981 0 01-1.082 1.633H14.08zm6.533 3.256l.028.001.027.001a8.86 8.86 0 005.454-1.625H15.866a8.859 8.859 0 004.747 1.623z" fill="#F44336"/><path d="M20.808 12.005a8.991 8.991 0 00-8.77 8.178h8.77v-8.178z" fill="#283991"/><path d="M13.8 17.085l.137.421h.444l-.36.26.138.422-.36-.26-.358.26.137-.422-.36-.26h.445l.137-.421zM13.8 18.572l.137.422h.444l-.36.26.138.421-.36-.26-.358.26.137-.421-.36-.26h.445l.137-.422zM15.29 14.853l.138.421h.443l-.359.261.137.421-.358-.26-.36.26.138-.421-.36-.26h.444l.137-.422zM15.29 16.341l.138.421h.443l-.359.26.137.422-.358-.26-.36.26.138-.422-.36-.26h.444l.137-.421zM15.29 17.829l.138.421h.443l-.359.26.137.421-.358-.26-.36.26.138-.421-.36-.26h.444l.137-.421zM12.668 18.931l-.137-.421.359-.26h-.444l-.01-.03c-.049.15-.093.302-.133.456l.006-.005.359.26zM13.44 16.7l.36-.26.359.26-.138-.421.36-.26h-.444l-.137-.422-.138.421H13.5l-.09.139.169.122-.137.421zM15.29 14.208l.36.26-.138-.42.36-.261h-.257a8.943 8.943 0 00-.63.515l-.054.166.36-.26zM16.422 13.725l.36-.26.358.26-.137-.422.359-.26h-.444l-.018-.057c-.15.077-.3.157-.445.242l.104.075-.137.422zM16.781 14.11l.137.42h.444l-.359.261.137.421-.359-.26-.359.26.137-.421-.359-.26h.444l.137-.421zM16.781 15.597l.137.421h.444l-.359.26.137.422-.359-.26-.359.26.137-.421-.359-.26h.444l.137-.422zM16.781 17.085l.137.421h.444l-.359.26.137.422-.359-.26-.359.26.137-.422-.359-.26h.444l.137-.421zM16.781 18.572l.137.422h.444l-.359.26.137.421-.359-.26-.359.26.137-.421-.359-.26h.444l.137-.422zM18.272 13.366l.137.42h.444l-.359.261.137.421-.359-.26-.36.26.138-.42-.359-.261h.444l.137-.421zM18.272 14.853l.137.421h.444l-.359.261.137.421-.359-.26-.36.26.138-.421-.359-.26h.444l.137-.422zM18.272 16.341l.137.421h.444l-.359.26.137.422-.359-.26-.36.26.138-.422-.359-.26h.444l.137-.421zM18.272 17.829l.137.421h.444l-.359.26.137.421-.359-.26-.36.26.138-.421-.359-.26h.444l.137-.421zM19.763 12.622l.137.421h.444l-.36.26.138.422-.36-.26-.358.26.137-.422-.36-.26h.445l.137-.421zM19.763 14.11l.137.42h.444l-.36.261.138.421-.36-.26-.358.26.137-.421-.36-.26h.445l.137-.421zM19.763 15.597l.137.421h.444l-.36.26.138.422-.36-.26-.358.26.137-.421-.36-.26h.445l.137-.422zM19.763 17.085l.137.421h.444l-.36.26.138.422-.36-.26-.358.26.137-.422-.36-.26h.445l.137-.421zM19.763 18.572l.137.422h.444l-.36.26.138.421-.36-.26-.358.26.137-.421-.36-.26h.445l.137-.422z" fill="#EFEFEF"/></svg>