<svg width="45" height="37" viewBox="0 0 45 37" fill="none" xmlns="http://www.w3.org/2000/svg">
<path d="M1 32L2.68 30.32C3.42 29.58 4.62 29.54 5.41 30.23C7.14 31.74 8.87 33.25 10.59 34.77C11.38 35.46 12.58 35.42 13.32 34.68C16.74 31.26 20.16 27.84 23.58 24.42C24.36 23.64 25.63 23.64 26.41 24.42L31.58 29.59C32.36 30.37 33.63 30.37 34.41 29.59C36.41 27.59 38.41 25.59 40.41 23.59C40.79 23.21 41.29 23 41.82 23H42.99" stroke="white" stroke-width="2" stroke-linecap="round" stroke-linejoin="round"/>
<path d="M1 32.0002L3.09 28.0002C3.6 27.0302 4.78 26.6502 5.76 27.1402L10.52 29.5202C11.38 29.9502 12.42 29.7102 13 28.9502C14.83 26.5502 16.66 24.1602 18.5 21.7602L24.1 14.4402C24.64 13.7402 25.57 13.4702 26.39 13.7802L31.41 15.6602C32.33 16.0002 33.36 15.6302 33.85 14.7802C34.9 12.9402 35.95 11.1002 37.01 9.26023C38.15 7.18023 39.3 5.11023 40.44 3.03023C40.79 2.39023 41.46 1.99023 42.19 1.99023H43.01" stroke="white" stroke-width="2" stroke-linecap="round" stroke-linejoin="round"/>
<path fill-rule="evenodd" clip-rule="evenodd" d="M42.3827 8.07615C42.7564 8.23093 43 8.59557 43 9.00003V13C43 13.5523 42.5523 14 42 14C41.4477 14 41 13.5523 41 13V11C40.7441 11 40.4882 10.9024 40.2929 10.7071C39.9024 10.3166 39.9024 9.68345 40.2929 9.29292L41.2929 8.29292C41.5789 8.00692 42.009 7.92137 42.3827 8.07615Z" fill="white"/>
<path fill-rule="evenodd" clip-rule="evenodd" d="M41.2929 8.29292C41.6834 7.9024 42.3166 7.9024 42.7071 8.29292L43.7071 9.29292C44.0976 9.68345 44.0976 10.3166 43.7071 10.7071C43.3166 11.0977 42.6834 11.0977 42.2929 10.7071L41.2929 9.70714C40.9024 9.31661 40.9024 8.68345 41.2929 8.29292Z" fill="white"/>
<path d="M42 18C41.45 18 41 18.45 41 19C41 19.55 41.45 20 42 20C42.55 20 43 19.55 43 19C43 18.45 42.55 18 42 18Z" fill="white"/>
<path d="M42 15C41.45 15 41 15.45 41 16C41 16.55 41.45 17 42 17C42.55 17 43 16.55 43 16C43 15.45 42.55 15 42 15Z" fill="white"/>
</svg>
