<svg width="20" height="27" viewBox="0 0 20 27" fill="none" xmlns="http://www.w3.org/2000/svg">
<path fill-rule="evenodd" clip-rule="evenodd" d="M3.33333 1.33333C2.22876 1.33333 1.33333 2.22876 1.33333 3.33333V10.666H18.6667V3.33333C18.6667 2.22876 17.7712 1.33333 16.6667 1.33333H3.33333ZM20 3.33333C20 1.49238 18.5076 0 16.6667 0H3.33333C1.49238 0 0 1.49238 0 3.33333V23.3333C0 25.1743 1.49238 26.6667 3.33333 26.6667H16.6667C18.5076 26.6667 20 25.1743 20 23.3333V3.33333ZM18.6667 11.9994H1.33333V23.3333C1.33333 24.4379 2.22876 25.3333 3.33333 25.3333H16.6667C17.7712 25.3333 18.6667 24.4379 18.6667 23.3333V11.9994ZM13.3333 4.00065C13.3333 3.63246 13.6318 3.33398 14 3.33398H15.3333C15.7015 3.33398 16 3.63246 16 4.00065L16 5.33398C16 5.70217 15.7015 6.00065 15.3333 6.00065C15.0475 6.00065 14.8036 5.82072 14.7089 5.56792L12.4714 7.80539C12.2111 8.06574 11.7889 8.06574 11.5286 7.80539L10 6.27679L7.80474 8.47206C7.54439 8.73241 7.12228 8.73241 6.86193 8.47206L4.19526 5.80539C3.93491 5.54504 3.93491 5.12293 4.19526 4.86258C4.45561 4.60223 4.87772 4.60223 5.13807 4.86258L7.33333 7.05784L9.5286 4.86258C9.78895 4.60223 10.2111 4.60223 10.4714 4.86258L12 6.39118L13.7661 4.62512C13.5133 4.53037 13.3333 4.28652 13.3333 4.00065ZM5.99992 14C6.36811 14 6.66658 14.2985 6.66658 14.6667V15.334H7.99992C8.36811 15.334 8.66658 15.6325 8.66658 16.0007C8.66658 16.3688 8.36811 16.6673 7.99992 16.6673H4.66659V18.0007H7.33325C8.06811 18.0007 8.66658 18.5991 8.66658 19.334V20.6673C8.66658 21.4022 8.06811 22.0007 7.33325 22.0007H6.66658V22.666C6.66658 23.0342 6.36811 23.3327 5.99992 23.3327C5.63173 23.3327 5.33325 23.0342 5.33325 22.666V22.0007H3.99992C3.63173 22.0007 3.33325 21.7022 3.33325 21.334C3.33325 20.9658 3.63173 20.6673 3.99992 20.6673H5.9579C5.97179 20.6665 5.98581 20.666 5.99992 20.666C6.01403 20.666 6.02804 20.6665 6.04194 20.6673L7.33325 20.6673V19.334H4.66659C3.93173 19.334 3.33325 18.7355 3.33325 18.0007V16.6673C3.33325 15.9325 3.93173 15.334 4.66659 15.334H5.33325V14.6667C5.33325 14.2985 5.63173 14 5.99992 14ZM10.6667 14.6667C10.6667 14.2985 10.9651 14 11.3333 14H14.6667C15.0349 14 15.3333 14.2985 15.3333 14.6667C15.3333 15.0349 15.0349 15.3333 14.6667 15.3333H11.3333C10.9651 15.3333 10.6667 15.0349 10.6667 14.6667ZM10.6666 17.3327C10.6666 16.9645 10.9651 16.666 11.3333 16.666H16C16.3681 16.666 16.6666 16.9645 16.6666 17.3327C16.6666 17.7009 16.3681 17.9993 16 17.9993H11.3333C10.9651 17.9993 10.6666 17.7009 10.6666 17.3327ZM10.6666 20.0007C10.6666 19.6325 10.9651 19.334 11.3333 19.334H14C14.3681 19.334 14.6666 19.6325 14.6666 20.0007C14.6666 20.3688 14.3681 20.6673 14 20.6673H11.3333C10.9651 20.6673 10.6666 20.3688 10.6666 20.0007ZM10.6667 22.6667C10.6667 22.2985 10.9651 22 11.3333 22H15.3333C15.7015 22 16 22.2985 16 22.6667C16 23.0349 15.7015 23.3333 15.3333 23.3333H11.3333C10.9651 23.3333 10.6667 23.0349 10.6667 22.6667Z" fill="#414652"/>
</svg>
