<svg width="49" height="48" viewBox="0 0 49 48" fill="none" xmlns="http://www.w3.org/2000/svg">
<path fill-rule="evenodd" clip-rule="evenodd" d="M32.9941 8C32.9941 7.44772 33.4419 7 33.9941 7H35.2241C36.7731 7 37.7468 8.69168 36.9409 10.0257L35.7586 12H36.9941C37.5464 12 37.9941 12.4477 37.9941 13C37.9941 13.5523 37.5464 14 36.9941 14H33.9941C33.634 14 33.3017 13.8064 33.1241 13.4931C32.9466 13.1798 32.9512 12.7952 33.1362 12.4862L35.224 9H33.9941C33.4419 9 32.9941 8.55228 32.9941 8Z" fill="white"/>
<path fill-rule="evenodd" clip-rule="evenodd" d="M38.9941 7C39.5464 7 39.9941 7.44772 39.9941 8V9H41.9941C42.5464 9 42.9941 9.44772 42.9941 10V13C42.9941 13.5523 42.5464 14 41.9941 14C41.4419 14 40.9941 13.5523 40.9941 13V11H38.9941C38.4419 11 37.9941 10.5523 37.9941 10V8C37.9941 7.44772 38.4419 7 38.9941 7Z" fill="white"/>
<path fill-rule="evenodd" clip-rule="evenodd" d="M28.9941 5C28.9941 3.34772 30.3419 2 31.9941 2H43.9941C45.6464 2 46.9941 3.34772 46.9941 5V15C46.9941 16.6523 45.6464 18 43.9941 18H41.4084L37.7012 21.7071C37.4152 21.9931 36.9851 22.0787 36.6115 21.9239C36.2378 21.7691 35.9941 21.4045 35.9941 21V18H31.9941C30.3419 18 28.9941 16.6523 28.9941 15V5ZM31.9941 4C31.4464 4 30.9941 4.45228 30.9941 5V15C30.9941 15.5477 31.4464 16 31.9941 16H36.9941C37.5464 16 37.9941 16.4477 37.9941 17V18.5858L40.287 16.2929C40.4746 16.1054 40.7289 16 40.9941 16H43.9941C44.5419 16 44.9941 15.5477 44.9941 15V5C44.9941 4.45228 44.5419 4 43.9941 4H31.9941Z" fill="white"/>
<path fill-rule="evenodd" clip-rule="evenodd" d="M7.99414 25C6.33729 25 4.99414 26.3431 4.99414 28V41C4.99414 42.6569 6.33729 44 7.99414 44H29.9941C31.651 44 32.9941 42.6569 32.9941 41V28C32.9941 26.3431 31.651 25 29.9941 25H7.99414ZM2.99414 28C2.99414 25.2386 5.23272 23 7.99414 23H29.9941C32.7556 23 34.9941 25.2386 34.9941 28V41C34.9941 43.7614 32.7556 46 29.9941 46H7.99414C5.23272 46 2.99414 43.7614 2.99414 41V28Z" fill="white"/>
<path fill-rule="evenodd" clip-rule="evenodd" d="M9.99414 21C10.5464 21 10.9941 21.4477 10.9941 22V26C10.9941 26.5523 10.5464 27 9.99414 27C9.44186 27 8.99414 26.5523 8.99414 26V22C8.99414 21.4477 9.44186 21 9.99414 21Z" fill="white"/>
<path fill-rule="evenodd" clip-rule="evenodd" d="M25.9941 21C26.5464 21 26.9941 21.4477 26.9941 22V26C26.9941 26.5523 26.5464 27 25.9941 27C25.4419 27 24.9941 26.5523 24.9941 26V22C24.9941 21.4477 25.4419 21 25.9941 21Z" fill="white"/>
<path fill-rule="evenodd" clip-rule="evenodd" d="M17.9941 21C18.5464 21 18.9941 21.4477 18.9941 22V26C18.9941 26.5523 18.5464 27 17.9941 27C17.4419 27 16.9941 26.5523 16.9941 26V22C16.9941 21.4477 17.4419 21 17.9941 21Z" fill="white"/>
<path d="M9.99414 31C9.44414 31 8.99414 31.45 8.99414 32C8.99414 32.55 9.44414 33 9.99414 33C10.5441 33 10.9941 32.55 10.9941 32C10.9941 31.45 10.5441 31 9.99414 31Z" fill="white"/>
<path d="M15.9941 31C15.4441 31 14.9941 31.45 14.9941 32C14.9941 32.55 15.4441 33 15.9941 33C16.5441 33 16.9941 32.55 16.9941 32C16.9941 31.45 16.5441 31 15.9941 31Z" fill="white"/>
<path d="M21.9941 31C21.4441 31 20.9941 31.45 20.9941 32C20.9941 32.55 21.4441 33 21.9941 33C22.5441 33 22.9941 32.55 22.9941 32C22.9941 31.45 22.5441 31 21.9941 31Z" fill="white"/>
<path d="M27.9941 31C27.4441 31 26.9941 31.45 26.9941 32C26.9941 32.55 27.4441 33 27.9941 33C28.5441 33 28.9941 32.55 28.9941 32C28.9941 31.45 28.5441 31 27.9941 31Z" fill="white"/>
<path d="M9.99414 35C9.44414 35 8.99414 35.45 8.99414 36C8.99414 36.55 9.44414 37 9.99414 37C10.5441 37 10.9941 36.55 10.9941 36C10.9941 35.45 10.5441 35 9.99414 35Z" fill="white"/>
<path d="M15.9941 35C15.4441 35 14.9941 35.45 14.9941 36C14.9941 36.55 15.4441 37 15.9941 37C16.5441 37 16.9941 36.55 16.9941 36C16.9941 35.45 16.5441 35 15.9941 35Z" fill="white"/>
<path d="M21.9941 35C21.4441 35 20.9941 35.45 20.9941 36C20.9941 36.55 21.4441 37 21.9941 37C22.5441 37 22.9941 36.55 22.9941 36C22.9941 35.45 22.5441 35 21.9941 35Z" fill="white"/>
<path d="M27.9941 35C27.4441 35 26.9941 35.45 26.9941 36C26.9941 36.55 27.4441 37 27.9941 37C28.5441 37 28.9941 36.55 28.9941 36C28.9941 35.45 28.5441 35 27.9941 35Z" fill="white"/>
<path d="M9.99414 39C9.44414 39 8.99414 39.45 8.99414 40C8.99414 40.55 9.44414 41 9.99414 41C10.5441 41 10.9941 40.55 10.9941 40C10.9941 39.45 10.5441 39 9.99414 39Z" fill="white"/>
<path d="M15.9941 39C15.4441 39 14.9941 39.45 14.9941 40C14.9941 40.55 15.4441 41 15.9941 41C16.5441 41 16.9941 40.55 16.9941 40C16.9941 39.45 16.5441 39 15.9941 39Z" fill="white"/>
<path d="M21.9941 39C21.4441 39 20.9941 39.45 20.9941 40C20.9941 40.55 21.4441 41 21.9941 41C22.5441 41 22.9941 40.55 22.9941 40C22.9941 39.45 22.5441 39 21.9941 39Z" fill="white"/>
<path d="M27.9941 39C27.4441 39 26.9941 39.45 26.9941 40C26.9941 40.55 27.4441 41 27.9941 41C28.5441 41 28.9941 40.55 28.9941 40C28.9941 39.45 28.5441 39 27.9941 39Z" fill="white"/>
</svg>
