<svg width="80" height="80" viewBox="0 0 80 80" fill="none" xmlns="http://www.w3.org/2000/svg">
<rect width="80" height="80" rx="40" fill="#F9F9F9"/>
<g clip-path="url(#clip0_678_16801)">
<path d="M36 49V52H12V49H36ZM36 40V43H12V40H36ZM24 31V34H12V31H24Z" fill="#414652"/>
<path d="M21.6209 44.5L17.1209 49H12.8789L17.3789 44.5H21.6209ZM32.9999 28C34.6568 28 35.9999 29.3431 35.9999 31V38.5H35.9849C34.3387 38.5 33.0032 37.1672 32.9999 35.521V33.121L26.1209 40H21.8849L30.8849 31H28.4849C26.8363 31 25.4999 29.6636 25.4999 28.015V28H32.9999Z" fill="#FF444F"/>
</g>
<g clip-path="url(#clip1_678_16801)">
<path d="M56 46V49H44V46H56ZM68 37V40H44V37H68ZM68 28V31H44V28H68Z" fill="#414652"/>
<path d="M58.1209 40L64.9999 46.885V44.485C64.9999 42.8364 66.3363 41.5 67.9849 41.5H67.9999V49C67.9999 50.6569 66.6568 52 64.9999 52H57.4999V51.985C57.4999 50.3388 58.8327 49.0033 60.4789 49H62.8789L53.8789 40H58.1209ZM49.1209 31L53.6209 35.5H49.3789L44.8789 31H49.1209Z" fill="#FF444F"/>
</g>
<defs>
<clipPath id="clip0_678_16801">
<rect width="24" height="24" fill="white" transform="translate(12 28)"/>
</clipPath>
<clipPath id="clip1_678_16801">
<rect width="24" height="24" fill="white" transform="translate(44 28)"/>
</clipPath>
</defs>
</svg>
