<svg width="80" height="80" viewBox="0 0 80 80" fill="none" xmlns="http://www.w3.org/2000/svg">
<rect width="80" height="80" rx="40" fill="#F9F9F9"/>
<g clip-path="url(#clip0_678_16843)">
<path d="M52 49V52H28V49H52ZM50.5 32.5V47.5H47.5V32.5H50.5ZM52 28V31H28V28H52Z" fill="#414652"/>
<path d="M34.633 44.5L33.136 46L28 47.5V44.5H34.633ZM41.5 32.5C43.1569 32.5 44.5 33.8431 44.5 35.5L44.485 43C42.834 42.9917 41.5 41.651 41.5 40V37.621L35.5 43.6315V39.379L39.379 35.5H37C35.3452 35.4951 34.0049 34.1548 34 32.5H41.5Z" fill="#FF444F"/>
</g>
<defs>
<clipPath id="clip0_678_16843">
<rect width="24" height="24" fill="white" transform="translate(28 28)"/>
</clipPath>
</defs>
</svg>
