<svg width="49" height="48" viewBox="0 0 49 48" fill="none" xmlns="http://www.w3.org/2000/svg">
<path d="M27.332 5H39.332C41.542 5 43.332 6.79 43.332 9V23C43.332 25.21 41.542 27 39.332 27H24.332C23.782 27 23.332 26.55 23.332 26V9C23.332 6.79 25.122 5 27.332 5Z" stroke="white" stroke-width="2" stroke-linecap="round" stroke-linejoin="round"/>
<path d="M39.332 23V16" stroke="white" stroke-width="2" stroke-linecap="round" stroke-linejoin="round"/>
<path d="M35.332 23V21" stroke="white" stroke-width="2" stroke-linecap="round" stroke-linejoin="round"/>
<path d="M31.332 23V19" stroke="white" stroke-width="2" stroke-linecap="round" stroke-linejoin="round"/>
<path d="M27.332 23V17" stroke="white" stroke-width="2" stroke-linecap="round" stroke-linejoin="round"/>
<path d="M27.332 13L27.602 12.73C27.652 12.68 29.272 11.06 29.332 11C30.662 12.33 32.002 13.67 33.332 15L39.332 9H37.332" stroke="white" stroke-width="2" stroke-linecap="round" stroke-linejoin="round"/>
<path d="M39.332 9V11" stroke="white" stroke-width="2" stroke-linecap="round" stroke-linejoin="round"/>
<path d="M18.332 29H13.332C12.782 29 12.332 29.45 12.332 30V32C12.332 32.55 12.782 33 13.332 33H17.332C17.882 33 18.332 33.45 18.332 34V36C18.332 36.55 17.882 37 17.332 37H12.332" stroke="white" stroke-width="2" stroke-linecap="round" stroke-linejoin="round"/>
<path d="M15.332 29V27" stroke="white" stroke-width="2" stroke-linecap="round" stroke-linejoin="round"/>
<path d="M15.332 37V39" stroke="white" stroke-width="2" stroke-linecap="round" stroke-linejoin="round"/>
<path d="M19.332 23.83C18.112 23.29 16.752 23 15.332 23C9.81203 23 5.33203 27.48 5.33203 33C5.33203 38.52 9.81203 43 15.332 43C20.852 43 25.332 38.52 25.332 33C25.332 32.32 25.262 31.65 25.132 31" stroke="white" stroke-width="2" stroke-linecap="round" stroke-linejoin="round"/>
</svg>
