<svg xmlns="http://www.w3.org/2000/svg" width="80" height="80" viewBox="0 0 80 80">
    <g fill="none" fill-rule="evenodd">
        <circle cx="40" cy="40" r="40" fill="#F2F3F4"/>
        <g fill-rule="nonzero">
            <path fill="#FF444F" d="M23.25 11.982V15h-8.001L18 17.753c.56.56.875 1.319.875 2.11 0 .793-.315 1.552-.875 2.112l-.009.01L12 15.996l3.372-3.372c.182-.187.338-.396.465-.623l7.413-.018zM6.009.515l6.363 6.364c1.171 1.171 1.171 3.07 0 4.242l-6.363 6.365L6 17.475c-.56-.56-.875-1.319-.875-2.11 0-.792.315-1.552.875-2.111L8.751 10.5l-8.001.018V7.5h8.001L6 4.748c-.56-.56-.875-1.32-.875-2.112S5.44 1.085 6 .525l.009-.01zm11.98 4.5c.573.57.889 1.33.889 2.123 0 .705-.25 1.384-.7 1.919L18 9.25l-1.8 1.8c.166-.892-.08-1.806-.661-2.491l-.167-.181L15 8.006l2.99-2.991z" transform="translate(44 28)"/>
            <path fill="#85ACB0" d="M14.25 19.5V24h-3v-4.5h3zm0-19.5v4.5h-3V0h3z" transform="translate(44 28)"/>
        </g>
        <g fill-rule="nonzero">
            <path fill="#FF444F" d="M5.26 3.515l6.362 6.364c1.171 1.171 1.171 3.07 0 4.242l-6.363 6.365-.009-.011c-.56-.56-.875-1.319-.875-2.11 0-.792.315-1.552.875-2.111L8.001 13.5 0 13.518V10.5h8.001L5.25 7.748c-.56-.56-.875-1.32-.875-2.112s.315-1.551.875-2.111l.01-.01zm13.48 0l.01.01c.56.56.875 1.319.875 2.11 0 .792-.315 1.552-.875 2.111L15.999 10.5 24 10.482V13.5h-8.001l2.753 2.753c.56.56.875 1.319.875 2.11 0 .793-.315 1.552-.875 2.112l-.011.01-5.241-5.24 1.122-1.124c1.171-1.171 1.171-3.07 0-4.242L13.5 8.756l5.24-5.241z" transform="translate(12 28)"/>
            <path fill="#85ACB0" d="M13.5 18v6h-3v-6h3zm0-18v6h-3V0h3z" transform="translate(12 28)"/>
        </g>
    </g>
</svg>
