<svg xmlns="http://www.w3.org/2000/svg" width="80" height="80"><g fill="none" fill-rule="evenodd"><circle cx="40" cy="40" r="40" fill="#F2F3F4"/><g fill-rule="nonzero"><path fill="#85ACB0" d="M68 28v24h-3V28h3zm-6 0v12h-3V28h3zm-15.879 6 3 3H44v-3h2.121zM56 28v6h-3v-6h3zm-6 0v3h-3v-3h3z"/><path fill="#FF444F" d="M61.985 41.5A2.984 2.984 0 0 0 59 44.485v2.4l-9-9v4.236L56.879 49h-2.394a2.984 2.984 0 0 0-2.985 2.985V52H59a3 3 0 0 0 3-3v-7.5h-.015z"/></g><g fill-rule="nonzero"><path fill="#85ACB0" d="M18 49v3h-3v-3h3zm18-21v24h-3V28h3zm-6 12v12h-3V40h3zm-6 6v6h-3v-6h3zm-6.879-3-3 3H12v-3h5.121z"/><path fill="#FF444F" d="M27 28h-7.5v.015A2.984 2.984 0 0 0 22.485 31h2.4L18 37.879v4.242l9-9v2.4a2.985 2.985 0 0 0 2.985 2.979H30V31a3 3 0 0 0-3-3z"/></g></g></svg>