<svg xmlns="http://www.w3.org/2000/svg" width="80" height="80"><g fill="none" fill-rule="evenodd"><circle cx="40" cy="40" r="40" fill="#F2F3F4"/><g fill-rule="nonzero"><path fill="#85ACB0" d="M56 28v24h-3V28h3zm-6 21v3h-6v-3h6zm0-21v3h-6v-3h6zm18 0v3h-9v-3h9z"/><path fill="#FF444F" d="m57.5 39.385 7.5 7.5v-2.4a2.984 2.984 0 0 1 2.985-2.985H68V49a3 3 0 0 1-3 3h-7.5v-.015A2.985 2.985 0 0 1 60.479 49h2.4L57.5 43.627v-4.242zM52.121 34l.879.879v4.242L50.879 37H44v-3h8.121z"/></g><g fill-rule="nonzero"><path fill="#85ACB0" d="M18 49v3h-6v-3h6zm18 0v3h-9v-3h9zM24 28v24h-3V28h3zm-6 0v3h-6v-3h6z"/><path fill="#FF444F" d="M21 40.879v4.242l-.879.879H12v-3h6.879L21 40.879zM33 28a3 3 0 0 1 3 3v7.5h-.015A2.985 2.985 0 0 1 33 35.521v-2.4l-7.5 7.5v-4.242L30.885 31h-2.4a2.984 2.984 0 0 1-2.985-2.985V28z"/><path fill="#85ACB0" d="M22.5 43v.621l.621-.621z"/></g></g></svg>