<svg xmlns="http://www.w3.org/2000/svg" width="80" height="80"><g fill="none" fill-rule="evenodd"><circle cx="40" cy="40" r="40" fill="#F2F3F4"/><g fill-rule="nonzero"><path fill="#FF444F" d="M67.985 41.5A2.984 2.984 0 0 0 65 44.485v2.4l-15-15v4.236L62.879 49h-2.4a2.985 2.985 0 0 0-2.979 2.985V52H65a3 3 0 0 0 3-3v-7.5h-.015z"/><path fill="#85ACB0" d="M44 31v-3h2.121l.879.879L49.121 31H47z"/></g><g fill-rule="nonzero"><path fill="#FF444F" d="M33 28h-7.5v.015A2.984 2.984 0 0 0 28.485 31h2.4L18 43.879v4.242l15-15v2.4a2.985 2.985 0 0 0 2.985 2.979H36V31a3 3 0 0 0-3-3z"/><path fill="#85ACB0" d="M14.121 52H12v-3h5.121L15 51.121z"/></g></g></svg>