<svg xmlns="http://www.w3.org/2000/svg" width="80" height="80"><g fill="none" fill-rule="evenodd"><circle cx="40" cy="40" r="40" fill="#F2F3F4"/><g fill-rule="nonzero"><path fill="#85ACB0" d="M68 49v3H44v-3h24zm0-12v3H44v-3h24z"/><path fill="#FF444F" d="m56.621 41.5-4.5 4.5H44v-3h6.879l1.5-1.5h4.242zM65 28a3 3 0 0 1 3 3v4.5h-3v-2.379L61.127 37h-4.242l6-6h-2.4a2.984 2.984 0 0 1-2.985-2.985V28H65z"/></g><g fill-rule="nonzero"><path fill="#85ACB0" d="M36 49v3H12v-3h24zM21 37v6h-3v-6h3zm15-9v3H12v-3h24z"/><path fill="#FF444F" d="m29.793 32.638 5.307 5.303a2.997 2.997 0 0 1 0 4.243l-5.307 5.303-.012-.011a2.986 2.986 0 0 1 0-4.221l1.755-1.755H22.5v-3h8.912l-1.632-1.63a2.986 2.986 0 0 1 0-4.221l.012-.011zM16.5 38.5v3H12v-3h4.5z"/></g></g></svg>