<svg width="80" height="80" viewBox="0 0 80 80" fill="none" xmlns="http://www.w3.org/2000/svg">
<rect width="80" height="80" rx="40" fill="#F9F9F9"/>
<g clip-path="url(#clip0_678_16743)">
<path d="M36 49V52H12V49H36ZM21 37V43H18V37H21ZM36 28V31H12V28H36Z" fill="#414652"/>
<path d="M29.793 32.6382L35.1 37.9407C35.6629 38.5033 35.9791 39.2666 35.9791 40.0624C35.9791 40.8583 35.6629 41.6215 35.1 42.1842L29.793 47.4867L29.781 47.4762C28.6156 46.3105 28.6156 44.4208 29.781 43.2552L31.536 41.5002H22.5V38.5002H31.4115L29.781 36.8697C28.6156 35.704 28.6156 33.8143 29.781 32.6487L29.793 32.6382ZM16.5 38.5002V41.5002H12V38.5002H16.5Z" fill="#FF444F"/>
</g>
<g clip-path="url(#clip1_678_16743)">
<path d="M68 49V52H44V49H68ZM68 37V40H44V37H68Z" fill="#414652"/>
<path d="M56.621 41.5L52.121 46H44V43H50.879L52.379 41.5H56.621ZM65 28C66.6569 28 68 29.3431 68 31V35.5H65V33.121L61.127 37H56.885L62.885 31H60.485C58.8364 31 57.5 29.6636 57.5 28.015V28H65Z" fill="#FF444F"/>
</g>
<defs>
<clipPath id="clip0_678_16743">
<rect width="24" height="24" fill="white" transform="translate(12 28)"/>
</clipPath>
<clipPath id="clip1_678_16743">
<rect width="24" height="24" fill="white" transform="translate(44 28)"/>
</clipPath>
</defs>
</svg>
