<svg width="48" height="48" viewBox="0 0 48 48" fill="none" xmlns="http://www.w3.org/2000/svg">
<path d="M34.13 21.7C34.41 22.46 35.15 23 36 23C37.1 23 38 22.1 38 21C38 19.9 37.1 19 36 19C34.9 19 34 19.9 34 21C34 21.25 34.04 21.48 34.13 21.7Z" stroke="white" stroke-width="2" stroke-linecap="round" stroke-linejoin="round"/>
<path d="M13 35C14.1046 35 15 34.1046 15 33C15 31.8954 14.1046 31 13 31C11.8954 31 11 31.8954 11 33C11 34.1046 11.8954 35 13 35Z" stroke="white" stroke-width="2" stroke-linecap="round" stroke-linejoin="round"/>
<path d="M11.25 32.03C9.17 31.02 7.08 30.01 5 29" stroke="white" stroke-width="2" stroke-linecap="round" stroke-linejoin="round"/>
<path d="M34.2295 21.9299C27.7395 25.3099 21.2595 28.6899 14.7695 32.0699" stroke="white" stroke-width="2" stroke-linecap="round" stroke-linejoin="round"/>
<path d="M42.9991 24C41.2891 23.23 39.5791 22.47 37.8691 21.7" stroke="white" stroke-width="2" stroke-linecap="round" stroke-linejoin="round"/>
<path fill-rule="evenodd" clip-rule="evenodd" d="M19 3H9C7.9 3 7 3.9 7 5V21C7 22.1 7.9 23 9 23H12.46L16 26.54V23H19C20.1 23 21 22.1 21 21V5C21 3.9 20.1 3 19 3Z" stroke="white" stroke-width="2" stroke-linecap="round" stroke-linejoin="round"/>
<path d="M17 9H12C11.45 9 11 9.45 11 10V12C11 12.55 11.45 13 12 13H16C16.55 13 17 13.45 17 14V16C17 16.55 16.55 17 16 17H11" stroke="white" stroke-width="2" stroke-linecap="round" stroke-linejoin="round"/>
<path d="M14 9V7" stroke="white" stroke-width="2" stroke-linecap="round" stroke-linejoin="round"/>
<path d="M14 17V19" stroke="white" stroke-width="2" stroke-linecap="round" stroke-linejoin="round"/>
<path d="M13.4609 39V40C13.4609 41.1 14.3609 42 15.4609 42H23.0009L26.5409 45V42H34.0009C35.1009 42 36.0009 41.1 36.0009 40V27" stroke="white" stroke-width="2" stroke-linecap="round" stroke-linejoin="round"/>
</svg>
