<svg xmlns="http://www.w3.org/2000/svg" width="80" height="80"><g fill="none" fill-rule="evenodd"><circle cx="40" cy="40" r="40" fill="#F2F3F4"/><g fill-rule="nonzero"><path fill="#85ACB0" d="m49.121 49-3 3H44v-3h5.121zM68 28v3H44v-3h24z"/><path fill="#FF444F" d="M67.985 38.5A2.984 2.984 0 0 0 65 41.485v2.4L59.621 38.5a3 3 0 0 0-4.242 0L50 43.879v4.242l7.5-7.5L62.879 46h-2.4a2.985 2.985 0 0 0-2.979 2.985V49H65a3 3 0 0 0 3-3v-7.5h-.015z"/></g><g fill-rule="nonzero"><path fill="#85ACB0" d="M20.136 49 18 51.139l-.861.861H12v-3h8.136zM36 28v3H12v-3h24z"/><path fill="#FF444F" d="M35.985 43H36v-9a3 3 0 0 0-3-3h-9v.015A2.984 2.984 0 0 0 26.985 34h3.9L21 43.879v4.256L33 36.12v3.9A2.985 2.985 0 0 0 35.985 43z"/></g></g></svg>