<svg width="80" height="80" viewBox="0 0 80 80" fill="none" xmlns="http://www.w3.org/2000/svg">
<rect width="80" height="80" rx="40" fill="#F9F9F9"/>
<g clip-path="url(#clip0_678_16796)">
<path d="M20.136 49L18 51.139L17.139 52H12V49H20.136ZM36 28V31H12V28H36Z" fill="#414652"/>
<path d="M35.985 43H36V34C36 32.3431 34.6569 31 33 31H24V31.015C24 32.6636 25.3364 34 26.985 34H30.885L21 43.879V48.1345L33 36.121V40.021C33.0033 41.6672 34.3388 43 35.985 43Z" fill="#FF444F"/>
</g>
<g clip-path="url(#clip1_678_16796)">
<path d="M49.121 49L46.121 52H44V49H49.121ZM68 28V31H44V28H68Z" fill="#414652"/>
<path d="M67.985 38.5004C66.3364 38.5004 65 39.8369 65 41.4854V43.8854L59.621 38.5004C58.4495 37.3293 56.5505 37.3293 55.379 38.5004L50 43.8794V48.1214L57.5 40.6214L62.879 46.0004H60.479C58.8328 46.0037 57.5 47.3392 57.5 48.9854V49.0004H65C66.6569 49.0004 68 47.6573 68 46.0004V38.5004H67.985Z" fill="#FF444F"/>
</g>
<defs>
<clipPath id="clip0_678_16796">
<rect width="24" height="24" fill="white" transform="translate(12 28)"/>
</clipPath>
<clipPath id="clip1_678_16796">
<rect width="24" height="24" fill="white" transform="translate(44 28)"/>
</clipPath>
</defs>
</svg>
