<svg width="80" height="80" viewBox="0 0 80 80" fill="none" xmlns="http://www.w3.org/2000/svg">
<rect width="80" height="80" rx="40" fill="#F9F9F9"/>
<path d="M28.875 37.75H30V44.5H28.875V52H28.125V44.5H27V37.75H28.125V36.25H28.875V37.75Z" fill="#414652"/>
<path d="M34.5 36.25V41.5H33.375V44.5H32.625V41.5H31.5V36.25H34.5Z" fill="#414652"/>
<path d="M24.375 43V40H23.625V43H22.5V49H23.625V50.5H24.375V49H25.5V43H24.375Z" fill="#414652"/>
<path d="M19.875 39.25H21V43.75H19.875V49H19.125V43.75H18V39.25H19.125V37.75H19.875V39.25Z" fill="#414652"/>
<path d="M15.375 42.25H16.5V45.25H15.375V46.75H14.625V45.25H13.5V42.25H14.625V40.75H15.375V42.25Z" fill="#414652"/>
<path d="M28.5 31.75C28.5 29.6789 30.1789 28 32.25 28C34.3211 28 36 29.6789 36 31.75C36 33.8211 34.3211 35.5 32.25 35.5C30.1789 35.5 28.5 33.8211 28.5 31.75Z" fill="#FF444F"/>
<path d="M30.1893 33.2499V32.7054H31.0353V30.5994H30.9948L30.3558 31.4364L29.9238 31.0989L30.6753 30.1089H31.7103V32.7054H32.3763V33.2499H30.1893Z" fill="white"/>
<path d="M33.5761 33.3039C33.3481 33.3039 33.1561 33.2679 33.0001 33.1959C32.8441 33.1209 32.7046 33.0159 32.5816 32.8809L32.9731 32.4849C33.0571 32.5779 33.1501 32.6514 33.2521 32.7054C33.3541 32.7594 33.4696 32.7864 33.5986 32.7864C33.7306 32.7864 33.8221 32.7669 33.8731 32.7279C33.9241 32.6859 33.9496 32.6304 33.9496 32.5614C33.9496 32.4504 33.8701 32.3844 33.7111 32.3634L33.4546 32.3319C32.9236 32.2659 32.6581 32.0229 32.6581 31.6029C32.6581 31.4889 32.6791 31.3854 32.7211 31.2924C32.7661 31.1964 32.8276 31.1154 32.9056 31.0494C32.9866 30.9804 33.0826 30.9279 33.1936 30.8919C33.3076 30.8529 33.4351 30.8334 33.5761 30.8334C33.6991 30.8334 33.8071 30.8424 33.9001 30.8604C33.9961 30.8754 34.0801 30.8994 34.1521 30.9324C34.2271 30.9624 34.2946 31.0014 34.3546 31.0494C34.4176 31.0944 34.4791 31.1454 34.5391 31.2024L34.1566 31.5939C34.0816 31.5189 33.9961 31.4604 33.9001 31.4184C33.8071 31.3734 33.7111 31.3509 33.6121 31.3509C33.4981 31.3509 33.4171 31.3689 33.3691 31.4049C33.3211 31.4409 33.2971 31.4889 33.2971 31.5489C33.2971 31.6119 33.3136 31.6614 33.3466 31.6974C33.3826 31.7304 33.4486 31.7544 33.5446 31.7694L33.8101 31.8054C34.3291 31.8744 34.5886 32.1114 34.5886 32.5164C34.5886 32.6304 34.5646 32.7354 34.5166 32.8314C34.4686 32.9274 34.3996 33.0114 34.3096 33.0834C34.2226 33.1524 34.1161 33.2064 33.9901 33.2454C33.8671 33.2844 33.7291 33.3039 33.5761 33.3039Z" fill="white"/>
<path d="M12 29.5C12 28.6716 12.6716 28 13.5 28H21C21.8284 28 22.5 28.6716 22.5 29.5V34C22.5 34.8284 21.8284 35.5 21 35.5H13.5C12.6716 35.5 12 34.8284 12 34V29.5Z" fill="#0E0E0E"/>
<path d="M14.6484 34L16.0524 30.544H14.7444V31.306H13.9824V29.812H16.9464V30.592L15.5964 34H14.6484Z" fill="white"/>
<path d="M20.3821 30.598H18.4801L18.3901 31.924H18.4381C18.4781 31.824 18.5221 31.734 18.5701 31.654C18.6221 31.57 18.6821 31.5 18.7501 31.444C18.8181 31.384 18.9001 31.338 18.9961 31.306C19.0921 31.274 19.2061 31.258 19.3381 31.258C19.5181 31.258 19.6861 31.288 19.8421 31.348C19.9981 31.408 20.1341 31.496 20.2501 31.612C20.3661 31.724 20.4581 31.864 20.5261 32.032C20.5941 32.196 20.6281 32.382 20.6281 32.59C20.6281 32.802 20.5921 33 20.5201 33.184C20.4521 33.364 20.3481 33.52 20.2081 33.652C20.0721 33.784 19.9041 33.888 19.7041 33.964C19.5041 34.036 19.2761 34.072 19.0201 34.072C18.8161 34.072 18.6361 34.05 18.4801 34.006C18.3241 33.962 18.1861 33.904 18.0661 33.832C17.9461 33.756 17.8421 33.67 17.7541 33.574C17.6661 33.478 17.5901 33.376 17.5261 33.268L18.1801 32.752C18.2721 32.916 18.3821 33.056 18.5101 33.172C18.6381 33.284 18.8101 33.34 19.0261 33.34C19.2421 33.34 19.4041 33.278 19.5121 33.154C19.6241 33.03 19.6801 32.866 19.6801 32.662V32.614C19.6801 32.422 19.6241 32.27 19.5121 32.158C19.4001 32.046 19.2461 31.99 19.0501 31.99C18.8861 31.99 18.7501 32.024 18.6421 32.092C18.5381 32.156 18.4581 32.22 18.4021 32.284L17.6641 32.182L17.8201 29.812H20.3821V30.598Z" fill="white"/>
<path d="M60.875 37.75H62V44.5H60.875V52H60.125V44.5H59V37.75H60.125V36.25H60.875V37.75Z" fill="#414652"/>
<path d="M66.5 36.25V41.5H65.375V44.5H64.625V41.5H63.5V36.25H66.5Z" fill="#414652"/>
<path d="M56.375 43V40H55.625V43H54.5V49H55.625V50.5H56.375V49H57.5V43H56.375Z" fill="#414652"/>
<path d="M51.875 39.25H53V43.75H51.875V49H51.125V43.75H50V39.25H51.125V37.75H51.875V39.25Z" fill="#414652"/>
<path d="M47.375 42.25H48.5V45.25H47.375V46.75H46.625V45.25H45.5V42.25H46.625V40.75H47.375V42.25Z" fill="#414652"/>
<path d="M44 29.5C44 28.6716 44.6716 28 45.5 28H53C53.8284 28 54.5 28.6716 54.5 29.5V34C54.5 34.8284 53.8284 35.5 53 35.5H45.5C44.6716 35.5 44 34.8284 44 34V29.5Z" fill="#0E0E0E"/>
<path d="M46.2173 34.0002V33.2742H47.3453V30.4662H47.2913L46.4393 31.5822L45.8633 31.1322L46.8653 29.8122H48.2453V33.2742H49.1333V34.0002H46.2173Z" fill="white"/>
<path d="M51.0509 34.0722C50.5029 34.0722 50.0969 33.8822 49.8329 33.5022C49.5689 33.1222 49.4369 32.5902 49.4369 31.9062C49.4369 31.2222 49.5689 30.6902 49.8329 30.3102C50.0969 29.9302 50.5029 29.7402 51.0509 29.7402C51.5989 29.7402 52.0049 29.9302 52.2689 30.3102C52.5329 30.6902 52.6649 31.2222 52.6649 31.9062C52.6649 32.5902 52.5329 33.1222 52.2689 33.5022C52.0049 33.8822 51.5989 34.0722 51.0509 34.0722ZM51.0509 33.3102C51.2909 33.3102 51.4569 33.2222 51.5489 33.0462C51.6409 32.8702 51.6869 32.6222 51.6869 32.3022V31.5102C51.6869 31.1902 51.6409 30.9422 51.5489 30.7662C51.4569 30.5902 51.2909 30.5022 51.0509 30.5022C50.8109 30.5022 50.6449 30.5902 50.5529 30.7662C50.4609 30.9422 50.4149 31.1902 50.4149 31.5102V32.3022C50.4149 32.6222 50.4609 32.8702 50.5529 33.0462C50.6449 33.2222 50.8109 33.3102 51.0509 33.3102Z" fill="white"/>
</svg>
