<svg width="32" height="32" viewBox="0 0 32 32" fill="none" xmlns="http://www.w3.org/2000/svg">
<path fill-rule="evenodd" clip-rule="evenodd" d="M30.2553 6.33495C30.7522 6.83753 31.1102 7.46299 31.2938 8.14906C32.3507 12.452 32.1065 19.2478 31.3143 23.7168C31.1308 24.4029 30.7727 25.0284 30.2758 25.5309C29.7789 26.0335 29.1605 26.3956 28.4822 26.5813C25.9989 27.2663 16.0043 27.2663 16.0043 27.2663C16.0043 27.2663 6.00974 27.2663 3.52648 26.5813C2.84815 26.3956 2.22975 26.0335 1.73285 25.5309C1.23595 25.0284 0.877891 24.4029 0.694338 23.7168C-0.368741 19.4326 -0.077318 12.6326 0.673816 8.16982C0.857369 7.48375 1.21542 6.85828 1.71232 6.35571C2.20923 5.85314 2.82763 5.491 3.50596 5.30535C5.98921 4.62037 15.9838 4.59961 15.9838 4.59961C15.9838 4.59961 25.9784 4.59961 28.4617 5.28459C29.14 5.47024 29.7584 5.83238 30.2553 6.33495ZM21.094 15.933L12.8028 20.7901V11.0758L21.094 15.933Z" fill="#414652" fill-opacity="0.8"/>
</svg>
