<svg width="32" height="32" viewBox="0 0 32 32" fill="none" xmlns="http://www.w3.org/2000/svg">
<path d="M31.5166 2.94364C31.163 2.65635 30.6203 2.59496 30.3748 2.59987C29.2673 2.61952 27.5657 3.21129 19.384 6.6146C16.516 7.80552 10.7898 10.2733 2.2005 14.0155C0.805786 14.5704 0.0740509 15.1131 0.00775275 15.6434C-0.104552 16.5397 1.01596 16.8927 2.54394 17.3741C2.7532 17.44 2.9701 17.5084 3.19252 17.5808C4.69773 18.0695 6.72105 18.6416 7.772 18.6612C8.72719 18.6858 9.79041 18.2929 10.969 17.4826C18.9936 12.0682 23.136 9.32792 23.3963 9.26899C23.5804 9.22724 23.8358 9.17568 24.0077 9.32792C24.1796 9.48016 24.1624 9.76991 24.1452 9.84848C24.033 10.3214 19.6381 14.4083 17.354 16.5324C16.6375 17.1987 16.1287 17.6718 16.0249 17.7797C15.7948 18.0183 15.5604 18.2441 15.335 18.4612C13.9363 19.8082 12.8855 20.8203 15.3914 22.4697C16.5965 23.2645 17.5607 23.9214 18.5231 24.577C19.5705 25.2906 20.6158 26.0027 21.9672 26.8896C22.3132 27.1162 22.6435 27.3516 22.9653 27.5809C24.1848 28.45 25.2803 29.2307 26.6326 29.1044C27.4208 29.0332 28.2336 28.2941 28.6461 26.0842C29.6234 20.8663 31.5436 9.56119 31.9856 4.90067C32.0248 4.49306 31.9757 3.97004 31.9364 3.74168C31.9014 3.43247 31.7515 3.14769 31.5166 2.94364Z" fill="#414652" fill-opacity="0.8"/>
</svg>
