<svg width="117" height="22" viewBox="0 0 117 22" fill="none" xmlns="http://www.w3.org/2000/svg">
<g clip-path="url(#clip0_7369_137)">
<g clip-path="url(#clip1_7369_137)">
<path d="M12.9296 19.688C12.554 19.688 11.4437 19.7416 10.1373 20.368C8.83102 20.9943 7.79297 20.887 7.79297 20.887C9.0106 22.2393 11.3298 20.5925 12.9734 20.5925C14.617 20.5925 15.5795 21.8177 15.5795 21.8177C15.5083 19.849 13.3063 19.688 12.9307 19.688H12.9296Z" fill="#414652"/>
<path d="M10.9782 0.0416843C8.38744 -0.311999 7.09863 1.72797 7.09863 1.72797C9.90948 2.07837 10.9782 0.0416843 10.9782 0.0416843Z" fill="#414652"/>
<path d="M8.4086 2.84807C7.19207 2.32686 5.60323 2.65426 5.60323 2.65426C5.8726 2.38489 6.30622 1.76841 6.50222 1.25595C6.70917 0.717216 6.85043 0.218994 6.85043 0.218994C4.07133 1.16288 4.11185 3.53682 4.11185 3.53682C6.42338 4.47633 8.4086 2.84807 8.4086 2.84807Z" fill="#414652"/>
<path d="M2.18872 6.99048C5.05651 6.60614 5.72774 4.47199 5.72774 4.47199C4.39951 4.51032 3.12056 5.45092 3.12056 5.45092C3.12056 5.45092 3.38226 4.18073 3.38226 3.74492C3.38226 3.30911 3.12056 2.62036 3.12056 2.62036C2.94645 2.89192 1.94782 4.01648 1.8219 5.2374C1.73649 6.06521 1.85584 6.58533 1.94125 6.83499C1.97629 6.93792 2.08031 7.00471 2.18762 6.99048H2.18872Z" fill="#414652"/>
<path d="M1.2211 10.8733C1.29775 10.9938 1.45543 11.0299 1.57478 10.9511C1.93175 10.7168 2.65773 10.1977 3.15705 9.54731C3.84142 8.65599 3.94544 7.11752 3.94544 7.11752C2.7311 7.51829 1.79378 9.23633 1.79378 9.23633C1.7686 7.94205 1.14007 6.90619 0.860849 6.50651C0.809384 6.43315 0.6966 6.45505 0.675795 6.54265C0.563011 7.02226 0.314447 8.20266 0.405332 8.93959C0.491836 9.64148 0.978013 10.4846 1.2222 10.8723L1.2211 10.8733Z" fill="#414652"/>
<path d="M2.63127 14.8307C4.33289 12.8367 3.30688 10.2656 3.30688 10.2656C2.37395 11.2916 2.1648 13.0787 2.1648 13.0787C1.20887 11.2391 0 10.9927 0 10.9927C0.200384 11.2796 0.280318 12.6122 0.746785 13.3984C1.10704 14.0061 1.95347 14.6215 2.3192 14.8701C2.41775 14.9369 2.55352 14.9215 2.63127 14.8307Z" fill="#414652"/>
<path d="M5.30608 17.7301C5.72547 14.7024 3.94391 13.3972 3.94391 13.3972C3.55957 14.5415 4.03918 16.3427 4.03918 16.3427C3.0504 15.5303 1.96417 15.4142 1.4966 15.4065C1.4101 15.4054 1.35863 15.5029 1.409 15.573C1.66961 15.9343 2.09009 16.7621 2.89491 17.2888C3.59242 17.7465 4.50017 17.9239 4.96226 17.9885C5.1287 18.0115 5.28418 17.8965 5.30718 17.7312L5.30608 17.7301Z" fill="#414652"/>
<path d="M5.90633 15.9169C5.9775 17.4685 7.15353 18.7047 7.15353 18.7047C5.65338 18.2689 4.20361 18.8263 4.20361 18.8263C6.10124 20.8608 8.92851 19.7285 8.92851 19.7285C8.37116 16.7173 5.90742 15.9169 5.90742 15.9169H5.90633Z" fill="#414652"/>
<path d="M16.5226 1.72678C16.5226 1.72678 15.2338 -0.312101 12.6431 0.041582C12.6431 0.041582 13.7118 2.07827 16.5226 1.72787V1.72678Z" fill="#414652"/>
<path d="M18.0168 2.65316C18.0168 2.65316 16.428 2.32576 15.2114 2.84697C15.2114 2.84697 17.1956 4.47523 19.5082 3.53573C19.5082 3.53573 19.5487 1.16178 16.7696 0.217896C16.7696 0.217896 16.912 0.716117 17.1178 1.25485C17.3138 1.76731 17.7485 2.38379 18.0168 2.65316Z" fill="#414652"/>
<path d="M17.8922 4.47199C17.8922 4.47199 18.5634 6.60614 21.4312 6.99048C21.5396 7.00471 21.6426 6.93901 21.6776 6.83499C21.763 6.58533 21.8824 6.06521 21.797 5.2374C21.671 4.01648 20.6724 2.89192 20.4983 2.62036C20.4983 2.62036 20.2366 3.30802 20.2366 3.74492C20.2366 4.18182 20.4983 5.45092 20.4983 5.45092C20.4983 5.45092 19.2193 4.51032 17.8911 4.47199H17.8922Z" fill="#414652"/>
<path d="M19.6758 7.1185C19.6758 7.1185 19.7787 8.65587 20.4642 9.54829C20.9635 10.1987 21.6895 10.7177 22.0464 10.9521C22.1658 11.0298 22.3246 10.9948 22.4001 10.8743C22.6443 10.4878 23.1305 9.64356 23.217 8.94167C23.3079 8.20474 23.0593 7.02433 22.9465 6.54472C22.9257 6.45713 22.8129 6.43523 22.7615 6.50859C22.4812 6.90826 21.8537 7.94522 21.8285 9.23841C21.8285 9.23841 20.8912 7.51927 19.6769 7.1196L19.6758 7.1185Z" fill="#414652"/>
<path d="M21.4565 13.0787C21.4565 13.0787 21.2485 11.2927 20.3144 10.2656C20.3144 10.2656 19.2884 12.8367 20.99 14.8307C21.0678 14.9215 21.2036 14.9369 21.3021 14.8701C21.6678 14.6215 22.5143 14.0061 22.8745 13.3984C23.341 12.6122 23.4209 11.2796 23.6213 10.9927C23.6213 10.9927 22.4124 11.2391 21.4565 13.0787Z" fill="#414652"/>
<path d="M22.1234 15.4065C21.6558 15.4153 20.5696 15.5303 19.5808 16.3427C19.5808 16.3427 20.0604 14.5415 19.6761 13.3972C19.6761 13.3972 17.8945 14.7024 18.3139 17.7301C18.3369 17.8965 18.4924 18.0104 18.6588 17.9874C19.1209 17.9228 20.0287 17.7454 20.7262 17.2877C21.5299 16.7599 21.9515 15.9332 22.2121 15.5719C22.2625 15.5018 22.2121 15.4043 22.1245 15.4054L22.1234 15.4065Z" fill="#414652"/>
<path d="M16.4677 18.7058C16.4677 18.7058 17.6438 17.4685 17.7149 15.918C17.7149 15.918 15.2512 16.7184 14.6938 19.7296C14.6938 19.7296 17.5211 20.8619 19.4187 18.8274C19.4187 18.8274 17.969 18.27 16.4688 18.7058H16.4677Z" fill="#414652"/>
<path d="M28.8661 2.88635H27.3955V9.87131H28.8661V2.88635Z" fill="#414652"/>
<path d="M31.3387 6.04322L33.2134 9.87241H34.6095V2.88635H33.1291V6.71554L31.2544 2.88635H29.8682V9.87241H31.3387V6.04322Z" fill="#414652"/>
<path d="M39.148 2.88635L37.9205 7.6211L36.693 2.88635H35.1567L37.1146 9.87241H38.7352L40.6843 2.88635H39.148Z" fill="#414652"/>
<path d="M42.7015 6.98601H44.8094V5.65121H42.7015V4.231H44.9506V2.88635H41.231V9.87241H44.9594V8.52666H42.7015V6.98601Z" fill="#414652"/>
<path d="M49.6435 6.47248C49.3807 6.19216 48.9756 5.95893 48.4259 5.77168C48.0076 5.61619 47.7766 5.52641 47.7328 5.50122C47.4514 5.36435 47.3112 5.16834 47.3112 4.91321C47.3112 4.68326 47.378 4.50259 47.5127 4.37119C47.6474 4.24088 47.8423 4.17518 48.0985 4.17518C48.5978 4.17518 49.0796 4.31206 49.5417 4.58581L49.6917 3.15684C49.1486 2.90828 48.5858 2.78345 48.0054 2.78345C47.3309 2.78345 46.7955 2.97836 46.3991 3.36708C46.0027 3.7558 45.8045 4.27811 45.8045 4.93182C45.8045 5.64795 46.0761 6.17683 46.6192 6.51956C46.8623 6.66848 47.1908 6.8185 47.6025 6.96742C47.977 7.09772 48.2266 7.21817 48.3515 7.32657C48.4763 7.43607 48.5387 7.59594 48.5387 7.80728C48.5387 8.05036 48.4577 8.2387 48.2956 8.37229C48.1335 8.50588 47.9025 8.57268 47.6025 8.57268C47.0528 8.57268 46.4845 8.38543 45.8976 8.01204L45.7476 9.50671C46.3038 9.81768 46.9564 9.97317 47.7054 9.97317C48.4051 9.97317 48.9701 9.77717 49.4016 9.38516C49.833 8.99315 50.0476 8.45442 50.0476 7.77005C50.0476 7.17875 49.9129 6.74623 49.6446 6.47248H49.6435Z" fill="#414652"/>
<path d="M50.5239 4.231H52.2004V9.87241H53.6808V4.231H55.3485V2.88635H50.5239V4.231Z" fill="#414652"/>
<path d="M58.3831 2.78345C57.6089 2.78345 56.9935 3.02654 56.5369 3.51162C56.0814 3.99122 55.8525 4.64494 55.8525 5.47275V7.28387C55.8525 8.11168 56.0803 8.7654 56.5369 9.245C56.9924 9.73008 57.6078 9.97317 58.3831 9.97317C59.1583 9.97317 59.7726 9.73008 60.2292 9.245C60.6913 8.75335 60.9224 8.09964 60.9224 7.28387V5.47275C60.9224 4.65698 60.6913 4.00327 60.2292 3.51162C59.7737 3.02654 59.1583 2.78345 58.3831 2.78345ZM59.4135 7.24774C59.4135 7.69011 59.3215 8.03065 59.1375 8.27046C58.9536 8.51026 58.7017 8.62962 58.3831 8.62962C58.0644 8.62962 57.8126 8.50807 57.6286 8.26498C57.4447 8.0219 57.3527 7.68245 57.3527 7.24664V5.51874C57.3527 5.07636 57.4447 4.73473 57.6286 4.49164C57.8126 4.24855 58.0644 4.127 58.3831 4.127C58.7017 4.127 58.9536 4.24855 59.1375 4.49164C59.3215 4.73473 59.4135 5.07636 59.4135 5.51874V7.24664V7.24774Z" fill="#414652"/>
<path d="M52.5379 12.0647C51.7637 12.0647 51.1483 12.3078 50.6917 12.7929C50.2362 13.2725 50.0073 13.9262 50.0073 14.754V16.5651C50.0073 17.3929 50.2351 18.0466 50.6917 18.5263C51.1472 19.0113 51.7626 19.2544 52.5379 19.2544C53.3131 19.2544 53.9274 19.0113 54.384 18.5263C54.8461 18.0346 55.0771 17.3809 55.0771 16.5651V14.754C55.0771 13.9382 54.8461 13.2845 54.384 12.7929C53.9285 12.3078 53.3131 12.0647 52.5379 12.0647ZM53.5682 16.529C53.5682 16.9714 53.4763 17.3119 53.2923 17.5517C53.1083 17.7915 52.8565 17.9109 52.5379 17.9109C52.2192 17.9109 51.9674 17.7893 51.7834 17.5462C51.5994 17.3031 51.5075 16.9637 51.5075 16.5279V14.8C51.5075 14.3576 51.5994 14.016 51.7834 13.7729C51.9674 13.5298 52.2192 13.4083 52.5379 13.4083C52.8565 13.4083 53.1073 13.5298 53.2923 13.7729C53.4763 14.016 53.5682 14.3576 53.5682 14.8V16.5279V16.529Z" fill="#414652"/>
<path d="M65.324 6.96739C65.9361 6.61918 66.2427 6.03336 66.2427 5.21212V4.97888C66.2427 4.30656 66.0313 3.78972 65.6097 3.42837C65.1882 3.06703 64.6122 2.88635 63.8808 2.88635H61.7915V9.87131H63.2621V7.30356H63.8895L65.0327 9.87131H66.6062L65.3229 6.96739H65.324ZM64.7436 5.17489C64.7436 5.43002 64.6604 5.62493 64.495 5.75852C64.3297 5.89211 64.0965 5.9589 63.7964 5.9589H63.2621V4.231H63.7964C64.4272 4.231 64.7425 4.49271 64.7425 5.01502V5.17379L64.7436 5.17489Z" fill="#414652"/>
<path d="M69.8024 5.77278C69.3841 5.61729 69.153 5.5275 69.1092 5.50232C68.8278 5.36545 68.6877 5.16944 68.6877 4.91431C68.6877 4.68436 68.7545 4.50369 68.8892 4.37229C69.0238 4.24198 69.2187 4.17628 69.475 4.17628C69.9743 4.17628 70.4561 4.31316 70.9182 4.5869L71.0682 3.15794C70.5251 2.90938 69.9622 2.78455 69.3819 2.78455C68.7074 2.78455 68.1719 2.97945 67.7755 3.36818C67.3792 3.7569 67.181 4.27921 67.181 4.93292C67.181 5.64905 67.4525 6.17793 67.9956 6.52066C68.2387 6.66958 68.5672 6.8196 68.9789 6.96851C69.3534 7.09882 69.6031 7.21927 69.7279 7.32767C69.8527 7.43717 69.9152 7.59704 69.9152 7.80837C69.9152 8.05146 69.8341 8.2398 69.6721 8.37339C69.51 8.50698 69.279 8.57378 68.9789 8.57378C68.4293 8.57378 67.861 8.38653 67.274 8.01314L67.124 9.5078C67.6803 9.81878 68.3329 9.97427 69.0819 9.97427C69.7816 9.97427 70.3466 9.77827 70.778 9.38626C71.2094 8.99425 71.4241 8.45552 71.4241 7.77115C71.4241 7.17985 71.2894 6.74733 71.0211 6.47358C70.7583 6.19326 70.3532 5.96003 69.8035 5.77278H69.8024Z" fill="#414652"/>
<path d="M29.0228 12.1676H27.5522V19.1526H29.0228V12.1676Z" fill="#414652"/>
<path d="M33.3018 15.9957L31.4283 12.1676H30.042V19.1526H31.5126V15.3234L33.3861 19.1526H34.7822V12.1676H33.3018V15.9957Z" fill="#414652"/>
<path d="M43.6716 12.7085C43.2501 12.3472 42.6774 12.1665 41.9525 12.1665H39.7417V19.1515H41.2123V16.6209H41.9525C42.6774 16.6209 43.2501 16.4403 43.6716 16.0789C44.0932 15.7176 44.3045 15.1974 44.3045 14.5196V14.2579C44.3045 13.5856 44.0932 13.0688 43.6716 12.7074V12.7085ZM42.8044 14.4923C42.8044 14.7474 42.7212 14.9423 42.5558 15.0759C42.3905 15.2095 42.1573 15.2763 41.8583 15.2763H41.2123V13.5112H41.8583C42.1583 13.5112 42.3905 13.578 42.5558 13.7115C42.7212 13.8451 42.8044 14.04 42.8044 14.2952V14.4912V14.4923Z" fill="#414652"/>
<path d="M46.5287 16.2673H48.6365V14.9314H46.5287V13.5123H48.7778V12.1676H45.0581V19.1526H48.7866V17.8079H46.5287V16.2673Z" fill="#414652"/>
<path d="M60.0188 12.7085C59.5972 12.3472 59.0245 12.1665 58.2997 12.1665H56.0889V19.1515H57.5594V16.6209H58.2997C59.0245 16.6209 59.5972 16.4403 60.0188 16.0789C60.4404 15.7176 60.6517 15.1974 60.6517 14.5196V14.2579C60.6517 13.5856 60.4404 13.0688 60.0188 12.7074V12.7085ZM59.1516 14.4923C59.1516 14.7474 59.0683 14.9423 58.903 15.0759C58.7377 15.2095 58.5044 15.2763 58.2055 15.2763H57.5594V13.5112H58.2055C58.5055 13.5112 58.7377 13.578 58.903 13.7115C59.0683 13.8451 59.1516 14.04 59.1516 14.2952V14.4912V14.4923Z" fill="#414652"/>
<path d="M62.8726 12.1676H61.4009V19.1526H64.999V17.8079H62.8726V12.1676Z" fill="#414652"/>
<path d="M67.181 16.2673H69.29V14.9314H67.181V13.5123H69.4301V12.1676H65.7104V19.1526H69.4389V17.8079H67.181V16.2673Z" fill="#414652"/>
<path d="M99.8614 7.71753V10.7605H99.845C99.6796 10.5076 99.4661 10.317 99.2011 10.1878C98.9372 10.0586 98.6646 9.99402 98.3842 9.99402C98.082 9.99402 97.8083 10.0466 97.5641 10.1506C97.3199 10.2546 97.1108 10.3981 96.9378 10.5798C96.7647 10.7616 96.6301 10.9762 96.5337 11.2237C96.4373 11.4712 96.3892 11.7383 96.3892 12.0241C96.3892 12.3099 96.4373 12.5771 96.5337 12.8246C96.6301 13.072 96.7647 13.2867 96.9378 13.4684C97.1108 13.6502 97.3199 13.7926 97.5641 13.8977C97.8083 14.0017 98.082 14.0543 98.3842 14.0543C98.6646 14.0543 98.9372 13.9907 99.2011 13.8648C99.465 13.7378 99.6796 13.5517 99.845 13.3042H99.8614V13.9557H100.422V7.72081H99.8614V7.71753ZM99.8165 12.6373C99.742 12.8268 99.6391 12.991 99.5077 13.1279C99.3763 13.2659 99.2186 13.3743 99.0379 13.4542C98.8562 13.5341 98.6591 13.5736 98.4445 13.5736C98.2134 13.5736 98.0076 13.5341 97.8258 13.4542C97.644 13.3743 97.4918 13.2648 97.3681 13.1246C97.2444 12.9844 97.1491 12.8191 97.0834 12.6297C97.0177 12.4402 96.9848 12.2377 96.9848 12.023C96.9848 11.8084 97.0177 11.6069 97.0834 11.4164C97.1491 11.227 97.2444 11.0616 97.3681 10.9215C97.4918 10.7813 97.644 10.6696 97.8258 10.5875C98.0076 10.5054 98.2134 10.4638 98.4445 10.4638C98.6591 10.4638 98.8573 10.5032 99.0379 10.5831C99.2197 10.6631 99.3763 10.7726 99.5077 10.9127C99.6402 11.0529 99.7431 11.2182 99.8165 11.4077C99.8909 11.5971 99.9282 11.8019 99.9282 12.0219C99.9282 12.242 99.8909 12.4468 99.8165 12.6362V12.6373Z" fill="#414652"/>
<path d="M95.1934 7.71753H94.6328V13.9524H95.1934V7.71753Z" fill="#414652"/>
<path d="M86.1871 11.4208H87.5482V13.1936C87.3774 13.3042 87.1551 13.3939 86.8803 13.4662C86.6054 13.5374 86.3032 13.5735 85.9725 13.5735C85.598 13.5735 85.2619 13.5045 84.9618 13.3677C84.6618 13.2308 84.4078 13.0468 84.1986 12.8158C83.9895 12.5847 83.8285 12.3165 83.7157 12.0088C83.603 11.7011 83.5471 11.3781 83.5471 11.0375C83.5471 10.697 83.603 10.3729 83.7157 10.0663C83.8285 9.75856 83.9895 9.4881 84.1986 9.25487C84.4078 9.02163 84.6618 8.83658 84.9618 8.69861C85.2619 8.56174 85.598 8.49275 85.9725 8.49275C86.347 8.49275 86.6569 8.55188 86.9372 8.67014C87.2175 8.7884 87.4595 8.95484 87.6632 9.16946L88.076 8.75665C87.8285 8.50808 87.5318 8.31427 87.1858 8.17411C86.8398 8.03395 86.4324 7.96497 85.9649 7.96497C85.5301 7.96497 85.1283 8.04162 84.7571 8.19601C84.3859 8.3504 84.0639 8.56283 83.7924 8.83549C83.5197 9.10814 83.3073 9.43116 83.1529 9.80455C82.9985 10.179 82.9219 10.5886 82.9219 11.0331C82.9219 11.4777 82.9974 11.8883 83.1485 12.2617C83.2996 12.6362 83.5099 12.9581 83.7792 13.2308C84.0486 13.5034 84.3705 13.7159 84.7439 13.8703C85.1173 14.0236 85.5247 14.1013 85.9649 14.1013C86.3612 14.1013 86.7434 14.0542 87.1113 13.9611C87.4792 13.867 87.8231 13.7246 88.1417 13.5308V10.893H86.1871V11.4208Z" fill="#414652"/>
<path d="M92.8597 10.5711C92.6779 10.3893 92.4611 10.2481 92.2082 10.1462C91.9552 10.0444 91.6771 9.99402 91.3749 9.99402C91.0727 9.99402 90.8033 10.0444 90.5504 10.1462C90.2974 10.2481 90.0806 10.3893 89.8988 10.5711C89.7171 10.7528 89.5758 10.9675 89.474 11.2149C89.3721 11.4624 89.3218 11.7318 89.3218 12.023C89.3218 12.3143 89.3721 12.5837 89.474 12.8311C89.5758 13.0786 89.7171 13.2932 89.8988 13.475C90.0806 13.6568 90.2974 13.798 90.5504 13.8999C90.8033 14.0017 91.0781 14.0521 91.3749 14.0521C91.6716 14.0521 91.9552 14.0017 92.2082 13.8999C92.4611 13.798 92.6779 13.6568 92.8597 13.475C93.0415 13.2932 93.1827 13.0797 93.2846 12.8311C93.3864 12.5837 93.4368 12.3143 93.4368 12.023C93.4368 11.7318 93.3864 11.4624 93.2846 11.2149C93.1827 10.9675 93.0415 10.7528 92.8597 10.5711ZM92.7403 12.6286C92.6714 12.818 92.5739 12.9833 92.448 13.1235C92.3221 13.2637 92.1677 13.3743 91.9859 13.4531C91.8041 13.533 91.6016 13.5725 91.376 13.5725C91.1504 13.5725 90.9478 13.533 90.7694 13.4531C90.5909 13.3732 90.4387 13.2637 90.3117 13.1235C90.1846 12.9833 90.0872 12.818 90.0193 12.6286C89.9503 12.4391 89.9164 12.2366 89.9164 12.0219C89.9164 11.8073 89.9503 11.6058 90.0193 11.4153C90.0883 11.2259 90.1857 11.0605 90.3117 10.9204C90.4376 10.7802 90.5909 10.6685 90.7694 10.5864C90.9478 10.5043 91.1504 10.4627 91.376 10.4627C91.6016 10.4627 91.8052 10.5043 91.9859 10.5864C92.1677 10.6685 92.321 10.7802 92.448 10.9204C92.575 11.0605 92.6725 11.2259 92.7403 11.4153C92.8093 11.6048 92.8433 11.8073 92.8433 12.0219C92.8433 12.2366 92.8093 12.438 92.7403 12.6286Z" fill="#414652"/>
<path d="M77.5432 3.03528H76.8008V18.7824H77.5432V3.03528Z" fill="#414652"/>
</g>
</g>
<defs>
<clipPath id="clip0_7369_137">
<rect width="116.494" height="21.8188" fill="white"/>
</clipPath>
<clipPath id="clip1_7369_137">
<rect width="100.422" height="21.8188" fill="white"/>
</clipPath>
</defs>
</svg>
