<svg width="32" height="32" viewBox="0 0 32 32" fill="none" xmlns="http://www.w3.org/2000/svg">
<path d="M1.18451 6.93294H5.9266C6.58082 6.93294 7.11111 6.50312 7.11111 5.97285V2.5597C7.11111 2.02943 6.58082 1.59961 5.9266 1.59961H1.18451C0.530227 1.59961 0 2.02943 0 2.5597V5.97285C0 6.50312 0.530227 6.93294 1.18451 6.93294Z" fill="#414652" fill-opacity="0.8"/>
<path d="M1.18451 30.0441H5.9266C6.58082 30.0441 7.11111 29.595 7.11111 29.0411V11.4914C7.11111 10.9374 6.58082 10.4885 5.9266 10.4885H1.18451C0.530227 10.4885 0 10.9374 0 11.4914V29.0411C0 29.595 0.530227 30.0441 1.18451 30.0441Z" fill="#414652" fill-opacity="0.8"/>
<path d="M27.8788 9.47364C29.0103 9.98249 29.866 10.6317 30.4463 11.4211C31.0269 12.2109 31.4311 13.1069 31.6586 14.109C31.8861 15.111 32 16.546 32 18.4135V28.9779C32 29.5667 31.5382 30.044 30.9685 30.044H26.8389C26.2691 30.044 25.8074 29.5667 25.8074 28.9779V21.1012C25.8074 18.4895 25.6752 16.8003 25.4106 16.0335C25.1462 15.2665 24.7164 14.6708 24.1213 14.2456C23.5261 13.8203 22.8098 13.6077 21.9724 13.6077C20.8997 13.6077 19.9375 13.9115 19.0852 14.5189C18.2331 15.1263 17.6489 15.931 17.3332 16.9331C17.0173 17.9351 16.8594 19.7877 16.8594 22.4904V28.9779C16.8594 29.5667 16.3977 30.0441 15.8279 30.0441H11.6982C11.1285 30.0441 10.6667 29.5667 10.6667 28.9779V10.3234C10.6667 9.7346 11.1284 9.2574 11.6982 9.2574H15.3872C15.9569 9.2574 16.4188 9.7346 16.4188 10.3234V11.7446C16.4188 12.3334 16.6975 12.4286 17.0809 11.9932C19.0079 9.80474 21.3583 8.71072 24.1321 8.71072C25.4985 8.71072 26.7474 8.96515 27.8788 9.47364Z" fill="#414652" fill-opacity="0.8"/>
</svg>
