<svg width="32" height="32" viewBox="0 0 32 32" fill="none" xmlns="http://www.w3.org/2000/svg">
<rect width="32" height="32" rx="16" fill="#414652" fill-opacity="0.8"/>
<path d="M23.9531 14.1923C24.1107 14.1916 24.2682 14.1836 24.4251 14.1684H24.4278V10.9736C23.2297 10.886 22.1004 10.38 21.2376 9.544C20.3747 8.70803 19.8331 7.5953 19.7075 6.40039H16.9578L16.929 19.8047C16.929 21.4493 15.4769 22.7449 13.8325 22.7449C13.043 22.7449 12.2859 22.4313 11.7276 21.8729C11.1694 21.3146 10.8557 20.5573 10.8557 19.7677C10.8557 18.9781 11.1694 18.2209 11.7276 17.6625C12.2859 17.1042 13.043 16.7905 13.8325 16.7905C13.9241 16.7905 14.0126 16.8026 14.1012 16.8147C14.1318 16.8189 14.1623 16.8231 14.193 16.8268V13.9522C14.1646 13.9504 14.1362 13.9484 14.1078 13.9464C14.0166 13.9401 13.9254 13.9337 13.8325 13.9337C12.679 13.9337 11.5513 14.2758 10.5922 14.9168C9.633 15.5578 8.88543 16.4688 8.44398 17.5347C8.00253 18.6006 7.88702 19.7735 8.11207 20.9051C8.33712 22.0366 8.89262 23.076 9.70831 23.8918C10.524 24.7076 11.5633 25.2632 12.6947 25.4883C13.8261 25.7134 14.9988 25.5979 16.0645 25.1564C17.1303 24.7148 18.0412 23.9672 18.6821 23.0079C19.323 22.0486 19.6651 20.9208 19.6651 19.7671V11.8746C20.1312 12.5866 20.7673 13.1713 21.5159 13.576C22.2646 13.9806 23.1021 14.1924 23.9531 14.1923Z" fill="white"/>
</svg>
