<svg width="32" height="32" fill="none" xmlns="http://www.w3.org/2000/svg"><path d="M0 16C0 7.163 7.163 0 16 0s16 7.163 16 16-7.163 16-16 16S0 24.837 0 16Z" fill="#FAAF42"/><path d="M19.513 15.54c.206 0 .28.183.28.417v1.785h1.153v-.245h-.315V16.05a2.202 2.202 0 0 0-.036-.42.682.682 0 0 0-.701-.543.755.755 0 0 0-.7.448h-.013v-.398h-1.042v.237h.246v2.123h-.246v.245h1.326v-.245h-.241v-1.54c0-.235.083-.418.289-.418ZM14.16 15.54c.206 0 .282.183.282.417l-.002 1.785h1.154v-.245h-.318V16.05a2.194 2.194 0 0 0-.036-.42.684.684 0 0 0-.703-.543.75.75 0 0 0-.698.448h-.013v-.398h-1.041v.237h.246v2.123h-.246v.245h1.328v-.245h-.24v-1.54c0-.235.08-.418.287-.418ZM22.075 17.302v-1.928h.404v-.237h-.405v-.701h-.155c-.234.191-.516.41-.781.617l-.189.148v.173h.284v1.78c0 .421.241.619.655.619.353 0 .513-.097.513-.097v-.238a.518.518 0 0 1-.156.028c-.083 0-.17-.032-.17-.164ZM6.463 14.736a34.11 34.11 0 0 0-.934-.95v.35a2.914 2.914 0 0 0-.962-.157c-1.404 0-2.567 1.08-2.567 2.46s1.048 2.465 2.567 2.465c.85 0 1.533-.328 1.905-.831v-.235a1.917 1.917 0 0 1-1.381.578c-1.234 0-1.944-.88-1.944-1.976 0-1.095.749-1.981 1.944-1.981.528 0 1.096.238 1.372.523v-.246Z" fill="#231F20"/><path fill-rule="evenodd" clip-rule="evenodd" d="M17.171 17.289c.279 0 .464-.103.582-.24l.14.128c-.19.374-.516.614-1.032.614-.802 0-1.21-.596-1.21-1.348 0-.752.412-1.356 1.21-1.356s1.104.545 1.104 1.28c0 .045-.004.139-.009.185H16.54c.015.605.39.737.631.737Zm-.337-1.934c-.239 0-.294.258-.294.944h.592c-.009-.692-.06-.944-.299-.944ZM5.187 17.867c-.842 0-1.333-.64-1.333-1.427 0-.788.492-1.427 1.333-1.427s1.334.64 1.334 1.427-.491 1.427-1.334 1.427Zm0-2.581c-.275 0-.35.35-.35 1.146 0 .796.078 1.146.35 1.146.273 0 .35-.35.35-1.146 0-.796-.074-1.146-.35-1.146Z" fill="#231F20"/><path d="M8.116 15.54c.207 0 .282.183.282.417v1.785h1.156v-.245h-.317V16.05c0-.141-.012-.282-.036-.42a.682.682 0 0 0-.702-.543.755.755 0 0 0-.7.448h-.013v-.398H6.744v.237h.245v2.123h-.245v.245h1.325v-.245h-.243v-1.54c0-.235.083-.418.29-.418ZM11.913 14.83c-.301 0-.512-.151-.512-.384 0-.228.21-.38.512-.38.301 0 .513.148.513.38 0 .233-.212.384-.513.384ZM10.677 17.302v-1.928h.327v-.237h-.326v-.701h-.155c-.221.18-.484.386-.736.582l-.233.183v.173h.282v1.78c0 .42.241.619.654.619.353 0 .513-.097.513-.097v-.238a.517.517 0 0 1-.155.028c-.084 0-.17-.032-.17-.164ZM26.485 17.497h-.323v-3.322h-1.128v.237h.29v3.33h.88v.107H30v-.121h-3.515v-.231Z" fill="#231F20"/><path fill-rule="evenodd" clip-rule="evenodd" d="M23.945 17.43h.012l.002.312h1.073v-.245h-.27V16.03c0-.569-.382-.944-1.024-.944-.382 0-.79.184-1.056.59l.144.175a.773.773 0 0 1 .607-.304c.29 0 .487.168.487.484v.163s-.13-.054-.377-.054c-.602 0-.979.331-.979.853 0 .433.271.798.702.798.32 0 .525-.146.679-.361Zm-.205-1.034c.107 0 .159.032.181.056v.803a.265.265 0 0 1-.197.078c-.214 0-.29-.196-.29-.445 0-.25.055-.492.306-.492Z" fill="#231F20"/><path d="M11.248 17.497v.245h1.323v-.245h-.245v-2.36h-1.078v.237h.242v2.123h-.242ZM28.1 17.139l.358-.336.148.144-.385.32a.912.912 0 0 0-.072.138h-.284c.016-.103.161-.23.234-.266ZM26.908 14.995l-.294.08c-.066.024-.13.053-.191.087-.058.039-.126.103-.127.138l.25.057c.038-.042.079-.082.122-.118l.059-.027.209-.21a.024.024 0 0 0-.013-.008.025.025 0 0 0-.015 0Z" fill="#231F20"/><path d="M28.626 15.677a4.387 4.387 0 0 1-.431-.534c.085-.16.148-.584.108-.748a1.685 1.685 0 0 0-.18-.26l-.011-.011-.007-.008c-.047-.048-.137-.142-.185-.142-.01 0-.019.003-.027.008l.016.142c-.151.095-.35.225-.528.354 0 .05.005.127.007.154.028.023.06.041.093.053l.09-.018c.093-.02.215-.045.256-.04l-.215.318-.245.17-.308-.095a.053.053 0 0 0-.05.016l-.222.24a.063.063 0 0 0-.02.05l-.008.272s-.003.04-.003.087c0 .194.09.285.09.285l.147-.21a.693.693 0 0 1-.063-.151l.004-.233.144-.103.38.263c.06.108.13.21.207.305.065.08.395.297.555.39.02.1.046.197.078.293l.467.47-.277.34c-.097.06-.19.171-.183.274h.319l.036-.18.38-.415c.02-.023.02-.036.01-.068l-.11-.36c.054-.062.17-.215.17-.398 0-.249-.21-.358-.363-.438a.75.75 0 0 1-.122-.072ZM29.224 16.23a1.162 1.162 0 0 0-.09-.235s.017-.016.048.004l.23.151c.1.146.162.742.167.956a1.296 1.296 0 0 1-.312-.195l-.043-.681ZM25.459 19.232h-.12v.97h.192v-.731a.594.594 0 0 1 .287-.096c.094 0 .149.033.149.153v.673h.193v-.716c0-.212-.116-.268-.253-.268a.637.637 0 0 0-.377.137c-.004-.102-.024-.122-.071-.122Z" fill="#231F20"/><path fill-rule="evenodd" clip-rule="evenodd" d="M24.614 20.214c.268 0 .472-.186.472-.494s-.203-.503-.472-.503c-.268 0-.47.193-.47.503s.203.494.47.494Zm0-.144c-.164 0-.274-.117-.274-.351 0-.235.11-.36.274-.36.164 0 .276.127.276.36 0 .232-.108.351-.276.351Z" fill="#231F20"/><path d="M23.794 19.126a.111.111 0 0 0 .112-.108.114.114 0 0 0-.067-.108.112.112 0 0 0-.125.021.114.114 0 0 0 .08.195ZM23.886 20.203v-.826c0-.122-.01-.144-.084-.144h-.108v.97h.192ZM22.861 19.369h.119v.596c0 .18.1.251.266.251a.616.616 0 0 0 .157-.02v-.121h-.089c-.097 0-.14-.03-.14-.131v-.575h.218v-.133h-.22v-.263h-.193v.263h-.118v.133Z" fill="#231F20"/><path fill-rule="evenodd" clip-rule="evenodd" d="M22.243 20.217c.267 0 .47-.186.47-.494s-.203-.503-.47-.503c-.268 0-.472.193-.472.503s.203.494.472.494Zm0-.144c-.167 0-.277-.117-.277-.352 0-.234.11-.359.277-.359.166 0 .275.127.275.36 0 .232-.108.351-.275.351Z" fill="#231F20"/><path d="M20.251 20.205h.17v-1.062h.009l.372 1.058h.128l.379-1.058h.004v1.058h.204v-1.297h-.28l-.347.984h-.004l-.35-.984h-.285v1.301ZM18.75 19.235h-.121v.97h.192v-.734a.609.609 0 0 1 .29-.096c.093 0 .148.033.148.153v.673h.193v-.716c0-.212-.114-.268-.254-.268a.644.644 0 0 0-.377.137c-.004-.102-.025-.122-.072-.122v.003ZM18.21 19.124a.112.112 0 0 0 .114-.107.114.114 0 0 0-.227 0 .112.112 0 0 0 .113.107ZM18.304 20.202v-.825c0-.122-.008-.144-.084-.144h-.108v.97l.192-.001Z" fill="#231F20"/><path fill-rule="evenodd" clip-rule="evenodd" d="M17.383 19.754v-.067c0-.319-.152-.469-.413-.469s-.449.192-.449.503c0 .31.167.494.467.494.13.005.258-.03.366-.103v-.13h-.062a.428.428 0 0 1-.274.089c-.184 0-.29-.089-.3-.318h.665Zm-.412-.406c.136 0 .218.072.223.28h-.471c.021-.205.12-.28.248-.28Zm0 0Z" fill="#231F20"/><path d="m16.333 19.385.042.003v-.157a.153.153 0 0 0-.052-.007.378.378 0 0 0-.283.144c-.004-.114-.025-.134-.072-.134h-.12v.97h.192v-.71a.436.436 0 0 1 .293-.108ZM15.048 20.069c-.09 0-.153-.03-.153-.154v-.683h-.191v.722c0 .197.114.26.268.26a.65.65 0 0 0 .358-.122c.004.094.023.107.068.107h.124v-.97h-.192v.742a.591.591 0 0 1-.28.092l-.002.006ZM13.923 19.363h.119v.596c0 .18.1.252.267.252a.605.605 0 0 0 .156-.02v-.122h-.088c-.097 0-.143-.03-.143-.13v-.575h.22v-.134h-.22v-.263h-.193v.263h-.119l.001.133ZM13.203 20.063c-.09 0-.152-.03-.152-.154v-.677h-.193v.722c0 .197.116.26.27.26a.642.642 0 0 0 .356-.122c.006.094.026.107.07.107h.12v-.97h-.192v.742a.586.586 0 0 1-.279.092ZM12.09 20.198v-.555h.463v-.15h-.464v-.433h.609v-.156h-.812v1.297l.204-.003Z" fill="#231F20"/><path fill-rule="evenodd" clip-rule="evenodd" d="M11.14 19.753v-.017c.002-.014.002-.033.002-.05 0-.319-.153-.47-.413-.47-.259 0-.45.193-.45.504 0 .31.167.494.47.494a.616.616 0 0 0 .363-.1v-.132h-.063a.426.426 0 0 1-.274.089c-.184 0-.29-.089-.3-.318h.665Zm-.411-.409c.135 0 .219.072.222.281h-.472c.02-.206.12-.281.25-.281Z" fill="#231F20"/><path d="M9.4 19.029c0-.108-.015-.125-.088-.125h-.105v1.297H9.4v-.73a.59.59 0 0 1 .287-.096c.093 0 .15.033.15.153v.673h.19v-.716c0-.212-.114-.268-.252-.268a.639.639 0 0 0-.376.137v-.325ZM8.602 20.2v-1.144h.38v-.152h-.964v.152h.378V20.2h.206Z" fill="#231F20"/></svg>