<svg width="32" height="32" fill="none" xmlns="http://www.w3.org/2000/svg"><path d="M0 16C0 7.163 7.163 0 16 0s16 7.163 16 16-7.163 16-16 16S0 24.837 0 16Z" fill="#0079C1"/><path d="M12.884 6.054a.706.706 0 0 1 .27-.054h6.413l5.953 5.654H12.447V6.706a.708.708 0 0 1 .437-.652ZM25.946 12.88a.707.707 0 0 1 .054.271v6.415l-5.655 5.952V12.446h4.948a.706.706 0 0 1 .653.435ZM18.847 25.997a.703.703 0 0 0 .704-.707v-4.95H6.477l5.954 5.652h6.416v.005ZM6.053 19.113a.705.705 0 0 1-.053-.27v-6.414l5.655-5.953v13.073h-4.95a.705.705 0 0 1-.652-.436Z" fill="#fff"/></svg>