<svg width="32" height="32" fill="none" xmlns="http://www.w3.org/2000/svg"><path d="M0 16C0 7.163 7.163 0 16 0s16 7.163 16 16-7.163 16-16 16S0 24.837 0 16Z" fill="#3681DA"/><path d="M6.915 13.656v1.343h2.84v2.809h-2.84v3.327H4V10.832h6.197l.199 2.824h-3.48Z" fill="#fff"/><path fill-rule="evenodd" clip-rule="evenodd" d="M18.719 12.416c.967.987 1.45 2.179 1.45 3.575 0 1.406-.483 2.603-1.45 3.59-.968.987-2.134 1.48-3.5 1.48-1.377 0-2.549-.493-3.516-1.48-.967-.987-1.45-2.184-1.45-3.59 0-1.396.483-2.588 1.45-3.575.967-.988 2.14-1.481 3.516-1.481 1.366 0 2.532.493 3.5 1.48Zm-4.338 5.64c0 .229.084.428.254.597.17.17.374.255.613.255a.81.81 0 0 0 .606-.255.83.83 0 0 0 .247-.598v-4.173a.849.849 0 0 0-.247-.614.812.812 0 0 0-.606-.254.836.836 0 0 0-.613.254.835.835 0 0 0-.254.614v4.173Z" fill="#fff"/><path d="m23.253 18.555 1.465 2.61H28l-3.114-5.372 2.824-4.961h-3.19l-1.221 2.228-1.206-2.228h-3.297l2.885 4.991-3.053 5.343h3.206l1.419-2.61Z" fill="#fff"/></svg>