<svg width="32" height="32" fill="none" xmlns="http://www.w3.org/2000/svg"><g clip-path="url(#a)"><path d="M0 16C0 7.163 7.163 0 16 0s16 7.163 16 16-7.163 16-16 16S0 24.837 0 16Z" fill="url(#b)"/><circle cx="21" cy="16" r="16" fill="url(#c)"/><path d="M26.55 12.918a2.827 2.827 0 0 0-1.262-.098h.03c-1.456.35-2.38 2.2-2.706 3.207-1.414 4.407.87 4.064 1.257 4.006.025-.004.042-.007.05-.007l.956-3.056a.575.575 0 0 0-.444-.712h3.338a1.094 1.094 0 0 0-.75.762l-.963 3.05a1.811 1.811 0 0 0-.019.01c-.28.137-2.527 1.242-4.575.234-1.962-.969-1.58-4.594-.03-6.362 2.443-2.797 5.88-1.732 6.52-1.534l.048.015-.356 1.125a2.826 2.826 0 0 0-1.093-.64Z" fill="#fff"/><path fill-rule="evenodd" clip-rule="evenodd" d="M16.456 15.145c.95-2.343-.831-2.98-1.987-2.98H10.63a.537.537 0 0 1 .207.68L8.625 19.99a1.132 1.132 0 0 1-.625.625h3.125a.486.486 0 0 1-.331-.625l.812-2.581s3.75.5 4.869-2.294l-.019.031Zm-3.018-2.337c.406 0 1.53.056.806 2.187-.763 2.232-2.45 1.775-2.45 1.775l1.25-3.962h.393Z" fill="#fff"/><path fill-rule="evenodd" clip-rule="evenodd" d="M18.962 20.595h2.088A5.78 5.78 0 0 1 19 19.302c.448-.44.718-1.03.756-1.657h-1.081a.45.45 0 0 1 .206.375 1.381 1.381 0 0 1-.256.788 4.139 4.139 0 0 1-.794-1.788 6.679 6.679 0 0 0 1.5-.856 1.4 1.4 0 0 0 .544-1.019.944.944 0 0 0-.281-.668 1.481 1.481 0 0 0-1.325-.344c-.353.068-.681.23-.95.469a2.806 2.806 0 0 0-.719 2.006c-.005.079-.005.158 0 .237l-.1.038-.155.054c-.539.185-1.581.543-1.976 1.452a1.977 1.977 0 0 0-.119.7c-.003.306.079.607.238.869a1.788 1.788 0 0 0 1.68.775 3.982 3.982 0 0 0 1.982-.75c.238.235.5.444.781.625l.031-.013Zm-1.25-1.075a2.835 2.835 0 0 1-1.062.369.95.95 0 0 1-1.15-.994c0-.725.788-1.25 1.212-1.431.2.743.54 1.44 1 2.056Zm1.25-4.55a2.631 2.631 0 0 1-1.206 1.463 2.375 2.375 0 0 1 .3-1.481c.213-.325.494-.47.719-.394.223.074.207.228.188.406v.006Z" fill="#fff"/></g><defs><radialGradient id="b" cx="0" cy="0" r="1" gradientUnits="userSpaceOnUse" gradientTransform="matrix(5 22.50004 -9.9038 2.20084 6.5 8)"><stop stop-color="#D8F1FC"/><stop offset="1" stop-color="#0098DA"/></radialGradient><linearGradient id="c" x1="21" y1="0" x2="21" y2="32" gradientUnits="userSpaceOnUse"><stop stop-color="#0093D7"/><stop offset="1" stop-color="#002A78"/></linearGradient><clipPath id="a"><path d="M0 16C0 7.163 7.163 0 16 0s16 7.163 16 16-7.163 16-16 16S0 24.837 0 16Z" fill="#fff"/></clipPath></defs></svg>