<svg width="32" height="32" fill="none" xmlns="http://www.w3.org/2000/svg"><path d="M0 16C0 7.163 7.163 0 16 0s16 7.163 16 16-7.163 16-16 16S0 24.837 0 16Z" fill="#1942C8"/><path fill-rule="evenodd" clip-rule="evenodd" d="M22.41 12.278c1.67 1.363 3.832 3.69 3.568 6.358-.328 2.14-2.569 3.703-4.467 4.21a12.665 12.665 0 0 1-6.03.057c-.128.342-.256.756-.649.899a.856.856 0 0 1-.778-.121c-.563-.528-.107-1.542-.92-1.863a8.377 8.377 0 0 1-4.124-3.617.964.964 0 0 1 .2-.864 9.919 9.919 0 0 1 4.388-1.698c.092 0 .057-.093.128-.129.019-1.072.177-2.137.471-3.168a.286.286 0 0 1 .393-.093c.999.764.528 2.191.956 3.219 1.898.092 3.796.178 5.294 1.248a1.649 1.649 0 0 1 .471 1.663 1.385 1.385 0 0 1-1.17.813c-.328 0-.942 0-.906-.22.035-.222 1.106-.657.778-.993-.471-.485-2.855-.777-4.282-.956-.185-.036-.35 0-.35.214a21.761 21.761 0 0 0 .093 4.21.307.307 0 0 0 .214.214c2.583.421 5.316.186 7.336-1.298a3.09 3.09 0 0 0 1.07-3.026c-.813-3.268-4.224-5.237-7.028-6.508a19.744 19.744 0 0 0-8.977-1.64c-.514 0-1.334.213-1.334.399 0 .185.92.121.806.47-.114.35-1.056.143-1.334.05-.279-.092-.25-.484-.179-.713.714-1.241 2.669-1.341 3.568-1.391a20.08 20.08 0 0 1 12.787 4.281l.007-.007Zm-8.87 4.845c-1.262-.02-2.52.175-3.717.578-.235.086-.52.343-.342.65a6.023 6.023 0 0 0 1.77 1.512 6.668 6.668 0 0 0 2.218.942c.16-1.182.215-2.376.164-3.568-.07 0 0-.107-.092-.142v.028Z" fill="#fff"/></svg>