<svg xmlns="http://www.w3.org/2000/svg" width="231" height="145"><defs><linearGradient id="a" x1="50%" x2="50%" y1="0%" y2="100%"><stop offset="0%" stop-color="#FF6444"/><stop offset="100%" stop-color="#FF444F"/></linearGradient><linearGradient id="b" x1="108.097%" x2="0%" y1="37.034%" y2="68.874%"><stop offset="0%" stop-color="#FF6444"/><stop offset="100%" stop-color="#FF444F"/></linearGradient><linearGradient id="c" x1="108.097%" x2="0%" y1="28.494%" y2="81.304%"><stop offset="0%" stop-color="#FF6444"/><stop offset="100%" stop-color="#FF444F"/></linearGradient></defs><g fill="none" fill-rule="evenodd"><path fill="#E5E5E5" fill-rule="nonzero" d="M55.941 144.4c-18.756 0-32.652-6.333-41.687-19C5.218 112.733.7 95 .7 72.2.7 49.4 5.218 31.667 14.254 19 23.289 6.333 37.185 0 55.94 0c18.757 0 32.653 6.333 41.69 19 9.035 12.667 13.553 30.4 13.553 53.2 0 22.8-4.518 40.533-13.553 53.2-9.036 12.667-22.932 19-41.688 19zm0-25.4c8.214 0 13.896-2.933 17.045-8.8 3.149-5.867 4.723-14.133 4.723-24.8V59c0-10.667-1.574-18.933-4.723-24.8-3.15-5.867-8.83-8.8-17.045-8.8-8.214 0-13.896 2.933-17.045 8.8-3.148 5.867-4.723 14.133-4.723 24.8v26.4c0 10.667 1.575 18.933 4.723 24.8 3.15 5.867 8.83 8.8 17.045 8.8zM230.7 142H129.254v-27.4l44.151-36.8c3.97-3.333 7.325-6.367 10.063-9.1 2.738-2.733 4.963-5.4 6.674-8 1.711-2.6 2.943-5.167 3.696-7.7.753-2.533 1.13-5.267 1.13-8.2V42c0-2.667-.548-5-1.643-7s-2.533-3.667-4.313-5c-1.78-1.333-3.799-2.333-6.058-3-2.258-.667-4.552-1-6.879-1-3.423 0-6.4.533-8.933 1.6-2.533 1.067-4.723 2.5-6.571 4.3a24.675 24.675 0 00-4.621 6.2 34.214 34.214 0 00-2.875 7.5l-26.902-10c1.643-4.8 3.902-9.367 6.777-13.7 2.875-4.333 6.469-8.133 10.781-11.4 4.313-3.267 9.412-5.833 15.3-7.7C164.916.933 171.556 0 178.95 0c7.804 0 14.717 1.067 20.741 3.2 6.024 2.133 11.124 5.067 15.3 8.8 4.175 3.733 7.358 8.167 9.548 13.3 2.19 5.133 3.286 10.7 3.286 16.7s-1.027 11.467-3.08 16.4c-2.054 4.933-4.826 9.567-8.317 13.9-3.491 4.333-7.564 8.433-12.22 12.3a757.74 757.74 0 01-14.58 11.8l-26.696 20.4H230.7V142z" opacity=".295"/><g fill-rule="nonzero"><path fill="url(#a)" d="M48.34 6c1.09 0 1.972.895 1.972 2v18c0 .552-.441 1-.986 1a.993.993 0 01-.987-1V8H1.973v54h32.978c.545 0 .986.448.986 1s-.441 1-.986 1H1.973C.883 64 0 63.105 0 62V8c0-1.105.883-2 1.973-2zM31.83 40c.567 0 1.027.448 1.027 1s-.46 1-1.027 1H11.808a1.014 1.014 0 01-1.027-1c0-.552.46-1 1.027-1zm0-8c.567 0 1.027.448 1.027 1s-.46 1-1.027 1H12.321a1.014 1.014 0 01-1.026-1c0-.552.46-1 1.026-1zM54.38 0c1.156 0 2.093.838 2.093 1.871v26.194c0 .516-.469.935-1.047.935s-1.047-.419-1.047-.935V2.07H5.174v.619c0 .516-.469.935-1.047.935S3.08 3.206 3.08 2.69v-.82C3.08.838 4.018 0 5.174 0zM35.936 23c.568 0 1.027.448 1.027 1s-.46 1-1.026 1h-24.13a1.014 1.014 0 01-1.027-1c0-.552.46-1 1.027-1z" transform="translate(27.704 54)"/><path fill="url(#b)" d="M58.865 47.44l.053.086 5.573 10.347c.456.847.086 1.899-.826 2.35a1.967 1.967 0 01-1.328.148l-.164-.047-1.939-.66-1.19 2.325c-.447.873-1.552 1.257-2.47.859a1.71 1.71 0 01-.972-1.082l-.036-.146L53.307 50c-.091-.47.242-.93.744-1.028.466-.09.914.163 1.048.576l.026.098 2.259 11.621 1.19-2.324c.397-.776 1.32-1.173 2.176-.958l.15.044 1.939.659-5.573-10.346c-.228-.424-.043-.95.413-1.175.424-.209.933-.085 1.186.273zm-14.182.015c.214-.382.707-.558 1.15-.395.478.176.716.68.534 1.125l-4.46 10.872 1.859-.858.145-.06c.828-.302 1.788-.004 2.264.726l1.426 2.187 1.032-11.794.015-.1c.091-.424.51-.723.983-.682.51.045.888.467.846.944l-1.031 11.794-.02.148a1.71 1.71 0 01-.855 1.177c-.87.493-2.01.226-2.546-.595L44.6 59.757l-1.86.858-.157.064c-.428.152-.904.15-1.337-.01-.954-.352-1.432-1.36-1.067-2.25l4.46-10.872z" transform="translate(27.704 54)"/></g><path stroke="url(#c)" stroke-linejoin="round" stroke-width="2" d="M49.286 48l2.567 2 2.567-2h5.134v-4l3.08-3-3.08-3v-4H54.42l-2.567-2-2.567 2h-5.134v4l-3.08 3 3.08 3v4z" transform="translate(27.704 54)"/></g></svg>