<svg width="72" height="73" viewBox="0 0 72 73" fill="none" xmlns="http://www.w3.org/2000/svg">
<g clip-path="url(#clip0_1455_21116)">
<path d="M13.5 0.59082C6.04416 0.59082 0 6.63498 0 14.0908V14.4831L67.3076 3.85935C64.9434 1.82235 61.8655 0.59082 58.5 0.59082H13.5Z" fill="#E12E3A"/>
<path d="M68.6969 5.24326L56.3498 72.5908H58.5C65.9558 72.5908 72 66.5467 72 59.0908V14.0908C72 10.7063 70.7545 7.61267 68.6969 5.24326Z" fill="#E12E3A"/>
<path fill-rule="evenodd" clip-rule="evenodd" d="M56.3498 72.5908L13.5 72.5918C6.04416 72.5918 0 66.5477 0 59.0918V14.4831L67.3076 3.85935C67.8034 4.28654 68.2678 4.74915 68.6969 5.24326L56.3498 72.5908Z" fill="#FF444F"/>
<path d="M22.3624 43.4899C22.5934 43.5109 22.8559 43.5319 23.1499 43.5529C23.465 43.5529 23.8325 43.5529 24.2525 43.5529C26.7095 43.5529 28.526 42.9334 29.702 41.6944C30.8991 40.4554 31.4976 38.7438 31.4976 36.5598C31.4976 34.2708 30.9306 32.5383 29.7965 31.3622C28.6625 30.1862 26.867 29.5982 24.41 29.5982C24.074 29.5982 23.7275 29.6087 23.3705 29.6297C23.0134 29.6297 22.6774 29.6507 22.3624 29.6927V43.4899ZM36.5691 36.5598C36.5691 38.4498 36.2751 40.0984 35.6871 41.5054C35.0991 42.9124 34.2591 44.0779 33.1671 45.0019C32.0961 45.9259 30.7836 46.6189 29.2295 47.081C27.6755 47.543 25.9325 47.774 24.0005 47.774C23.1184 47.774 22.0894 47.732 20.9134 47.648C19.7374 47.585 18.5824 47.438 17.4484 47.207V25.9442C18.5824 25.7342 19.7584 25.5977 20.9764 25.5347C22.2154 25.4507 23.276 25.4087 24.158 25.4087C26.027 25.4087 27.7175 25.6187 29.2295 26.0387C30.7626 26.4587 32.0751 27.1202 33.1671 28.0232C34.2591 28.9262 35.0991 30.0812 35.6871 31.4882C36.2751 32.8953 36.5691 34.5858 36.5691 36.5598Z" fill="white"/>
<path d="M54.5517 25.6607V29.8502H47.9681V47.4905H43.054V29.8502H36.4704V25.6607H54.5517Z" fill="white"/>
</g>
<defs>
<clipPath id="clip0_1455_21116">
<rect width="72" height="72" fill="white" transform="translate(0 0.59082)"/>
</clipPath>
</defs>
</svg>
