<svg width="33" height="33" viewBox="0 0 33 33" fill="none" xmlns="http://www.w3.org/2000/svg">
<rect x="0.5" y="0.394531" width="32" height="32" rx="16" fill="#F9F9F9"/>
<g clip-path="url(#clip0_2591_35792)">
<path d="M21.2992 19.9947V21.1947H11.6992V19.9947H21.2992ZM20.6992 11.5947V19.3947H19.4992V11.5947H20.6992Z" fill="#414652"/>
<path d="M14.3524 18.1945L13.7536 18.7945L11.6992 19.3945V18.1945H14.3524ZM17.0992 13.3945C17.762 13.3945 18.2992 13.9318 18.2992 14.5945L18.2932 17.5945C17.6328 17.5912 17.0992 17.0549 17.0992 16.3945V15.4429L14.6992 17.8471V16.1461L16.2508 14.5945H15.2992C14.6373 14.5926 14.1012 14.0565 14.0992 13.3945H17.0992Z" fill="#FF444F"/>
</g>
<defs>
<clipPath id="clip0_2591_35792">
<rect width="9.6" height="9.6" fill="white" transform="translate(11.6992 11.5947)"/>
</clipPath>
</defs>
</svg>
