<svg width="342" height="228" viewBox="0 0 342 228" fill="none" xmlns="http://www.w3.org/2000/svg">
<g filter="url(#filter0_d_2591_24951)">
<rect x="7" y="6" width="328" height="213.697" rx="4.14138" fill="white"/>
</g>
<path d="M37.3706 26.9095C37.5376 27.2157 37.7278 27.596 37.9411 28.0506C38.1638 28.4959 38.3911 28.9829 38.623 29.5117C38.8642 30.0312 39.1007 30.5646 39.3327 31.1119C39.5646 31.6592 39.7826 32.1741 39.9867 32.6565C40.1908 32.1741 40.4088 31.6592 40.6407 31.1119C40.8726 30.5646 41.1045 30.0312 41.3364 29.5117C41.5776 28.9829 41.8049 28.4959 42.0183 28.0506C42.2409 27.596 42.4357 27.2157 42.6027 26.9095H44.5787C44.6714 27.5496 44.7549 28.2686 44.8291 29.0664C44.9126 29.8549 44.9822 30.6805 45.0379 31.5433C45.1028 32.3967 45.1585 33.2548 45.2049 34.1176C45.2605 34.9803 45.3069 35.792 45.344 36.5527H43.2289C43.2011 35.6158 43.164 34.5953 43.1176 33.4914C43.0712 32.3875 43.0016 31.2743 42.9089 30.1518C42.7419 30.5414 42.5563 30.9728 42.3522 31.4459C42.1482 31.919 41.9441 32.3921 41.74 32.8652C41.5452 33.3383 41.355 33.7929 41.1695 34.2289C40.9839 34.6556 40.8262 35.0221 40.6963 35.3282H39.1796C39.0497 35.0221 38.892 34.6556 38.7065 34.2289C38.5209 33.7929 38.3261 33.3383 38.122 32.8652C37.9272 32.3921 37.7278 31.919 37.5237 31.4459C37.3196 30.9728 37.1341 30.5414 36.9671 30.1518C36.8743 31.2743 36.8047 32.3875 36.7584 33.4914C36.712 34.5953 36.6749 35.6158 36.647 36.5527H34.5319C34.569 35.792 34.6108 34.9803 34.6572 34.1176C34.7128 33.2548 34.7685 32.3967 34.8241 31.5433C34.8891 30.6805 34.9587 29.8549 35.0329 29.0664C35.1164 28.2686 35.2045 27.5496 35.2973 26.9095H37.3706ZM49.9563 35.1056C50.1604 35.1056 50.3552 35.1009 50.5408 35.0916C50.7263 35.0824 50.8747 35.0685 50.9861 35.0499V33.4775C50.9026 33.4589 50.7773 33.4404 50.6103 33.4218C50.4434 33.4033 50.2903 33.394 50.1511 33.394C49.9563 33.394 49.7708 33.4079 49.5945 33.4357C49.4276 33.4543 49.2791 33.496 49.1493 33.561C49.0194 33.6259 48.9173 33.714 48.8431 33.8254C48.7689 33.9367 48.7318 34.0758 48.7318 34.2428C48.7318 34.5675 48.8385 34.7948 49.0518 34.9247C49.2745 35.0453 49.576 35.1056 49.9563 35.1056ZM49.7894 29.0386C50.4016 29.0386 50.9118 29.1081 51.32 29.2473C51.7282 29.3864 52.0529 29.5859 52.2941 29.8456C52.5446 30.1054 52.7208 30.4208 52.8229 30.7919C52.9249 31.1629 52.9759 31.5757 52.9759 32.0303V36.344C52.6791 36.4089 52.2662 36.4832 51.7375 36.5666C51.2087 36.6594 50.5686 36.7058 49.8172 36.7058C49.3441 36.7058 48.9127 36.6641 48.5231 36.5806C48.1427 36.4971 47.8134 36.3626 47.5351 36.177C47.2568 35.9822 47.0434 35.7317 46.895 35.4256C46.7466 35.1195 46.6724 34.7438 46.6724 34.2985C46.6724 33.8717 46.7558 33.51 46.9228 33.2131C47.0991 32.9162 47.331 32.6797 47.6186 32.5034C47.9062 32.3272 48.2355 32.2019 48.6066 32.1277C48.9776 32.0442 49.3626 32.0025 49.7615 32.0025C50.0305 32.0025 50.2671 32.0164 50.4712 32.0442C50.6846 32.0628 50.8562 32.0906 50.9861 32.1277V31.9329C50.9861 31.5804 50.8794 31.2974 50.666 31.0841C50.4526 30.8707 50.0816 30.764 49.5528 30.764C49.2003 30.764 48.8524 30.7919 48.5092 30.8475C48.1659 30.8939 47.8691 30.9635 47.6186 31.0562L47.3542 29.3864C47.4748 29.3493 47.6232 29.3122 47.7995 29.2751C47.985 29.2287 48.1845 29.1916 48.3978 29.1638C48.6112 29.1267 48.8338 29.0989 49.0658 29.0803C49.307 29.0525 49.5482 29.0386 49.7894 29.0386ZM54.7812 27.4105L56.8546 27.0765V29.2334H59.3454V30.9588H56.8546V33.5331C56.8546 33.9692 56.9288 34.317 57.0772 34.5768C57.2349 34.8365 57.5457 34.9664 58.0095 34.9664C58.2322 34.9664 58.4594 34.9479 58.6914 34.9107C58.9325 34.8644 59.1506 34.8041 59.3454 34.7298L59.6376 36.344C59.3871 36.4461 59.1088 36.5342 58.8027 36.6084C58.4965 36.6826 58.1208 36.7197 57.6755 36.7197C57.1097 36.7197 56.6412 36.6455 56.2701 36.4971C55.899 36.3394 55.6022 36.126 55.3795 35.857C55.1569 35.5787 54.9992 35.2447 54.9064 34.8551C54.8229 34.4655 54.7812 34.0341 54.7812 33.561V27.4105ZM60.4141 32.893C60.4141 32.3643 60.4976 31.868 60.6646 31.4041C60.8408 30.931 61.0913 30.5228 61.416 30.1796C61.7407 29.8271 62.135 29.5488 62.5988 29.3447C63.0626 29.1406 63.5914 29.0386 64.1851 29.0386C64.5747 29.0386 64.9319 29.0757 65.2566 29.1499C65.5813 29.2148 65.8967 29.3122 66.2028 29.4421L65.7714 31.098C65.5766 31.0238 65.3633 30.9588 65.1313 30.9032C64.8994 30.8475 64.6397 30.8197 64.3521 30.8197C63.7398 30.8197 63.2806 31.0099 62.9745 31.3902C62.6776 31.7706 62.5292 32.2715 62.5292 32.893C62.5292 33.5517 62.6684 34.0619 62.9467 34.4237C63.2342 34.7855 63.7306 34.9664 64.4356 34.9664C64.6861 34.9664 64.9551 34.9432 65.2427 34.8968C65.5302 34.8504 65.7946 34.7762 66.0358 34.6742L66.3281 36.3718C66.0869 36.4739 65.7854 36.562 65.4236 36.6362C65.0618 36.7104 64.6629 36.7475 64.2269 36.7475C63.5589 36.7475 62.9838 36.6501 62.5014 36.4553C62.019 36.2512 61.6201 35.9776 61.3047 35.6343C60.9985 35.2911 60.7713 34.8876 60.6228 34.4237C60.4837 33.9506 60.4141 33.4404 60.4141 32.893ZM67.7196 36.5527V26.0885L69.7929 25.7546V29.2612C69.9321 29.2148 70.1083 29.1731 70.3217 29.136C70.5443 29.0896 70.7577 29.0664 70.9618 29.0664C71.5555 29.0664 72.0472 29.1499 72.4368 29.3169C72.8357 29.4746 73.1511 29.7018 73.383 29.9987C73.6242 30.2956 73.7912 30.6481 73.884 31.0562C73.986 31.4644 74.037 31.919 74.037 32.4199V36.5527H71.9637V32.6704C71.9637 32.0025 71.8756 31.5294 71.6993 31.2511C71.5323 30.9728 71.2169 30.8336 70.7531 30.8336C70.5675 30.8336 70.3913 30.8522 70.2243 30.8893C70.0666 30.9171 69.9228 30.9496 69.7929 30.9867V36.5527H67.7196ZM75.5659 32.9487C75.5659 32.2993 75.6633 31.7335 75.8581 31.2511C76.0622 30.7594 76.3266 30.3512 76.6512 30.0265C76.9759 29.7018 77.347 29.456 77.7645 29.289C78.1912 29.122 78.6272 29.0386 79.0725 29.0386C80.1115 29.0386 80.9325 29.3586 81.5355 29.9987C82.1385 30.6295 82.4399 31.5618 82.4399 32.7956C82.4399 32.9162 82.4353 33.0508 82.426 33.1992C82.4168 33.3383 82.4075 33.4636 82.3982 33.5749H77.6949C77.7413 34.0016 77.9407 34.3402 78.2932 34.5907C78.6458 34.8412 79.1189 34.9664 79.7126 34.9664C80.0929 34.9664 80.464 34.9339 80.8258 34.869C81.1969 34.7948 81.4984 34.7067 81.7303 34.6046L82.0086 36.2883C81.8973 36.344 81.7488 36.3997 81.5633 36.4553C81.3778 36.511 81.169 36.5574 80.9371 36.5945C80.7145 36.6409 80.4733 36.678 80.2135 36.7058C79.9538 36.7336 79.694 36.7475 79.4343 36.7475C78.7756 36.7475 78.2005 36.6501 77.7088 36.4553C77.2264 36.2605 76.8229 35.9961 76.4982 35.6622C76.1828 35.3189 75.9462 34.9154 75.7885 34.4515C75.6401 33.9877 75.5659 33.4868 75.5659 32.9487ZM80.4362 32.1555C80.4269 31.9793 80.3944 31.8077 80.3388 31.6407C80.2924 31.4737 80.2135 31.3253 80.1022 31.1954C80.0002 31.0655 79.8656 30.9588 79.6987 30.8754C79.541 30.7919 79.3415 30.7501 79.1003 30.7501C78.8684 30.7501 78.6689 30.7919 78.502 30.8754C78.335 30.9496 78.1958 31.0516 78.0845 31.1815C77.9732 31.3114 77.8851 31.4644 77.8201 31.6407C77.7645 31.8077 77.7227 31.9793 77.6949 32.1555H80.4362ZM86.1412 35.0638C86.5215 35.0638 86.7905 35.0267 86.9482 34.9525C87.1059 34.8783 87.1848 34.7345 87.1848 34.5211C87.1848 34.3541 87.0828 34.2104 86.8787 34.0898C86.6746 33.9599 86.3638 33.8161 85.9464 33.6584C85.6217 33.5378 85.3248 33.4125 85.0558 33.2827C84.796 33.1528 84.5734 32.9997 84.3879 32.8235C84.2023 32.6379 84.0585 32.4199 83.9565 32.1695C83.8544 31.919 83.8034 31.6175 83.8034 31.265C83.8034 30.5785 84.0585 30.0358 84.5688 29.6369C85.079 29.238 85.7794 29.0386 86.6699 29.0386C87.1152 29.0386 87.542 29.0803 87.9501 29.1638C88.3583 29.238 88.683 29.3215 88.9242 29.4143L88.5624 31.0284C88.3212 30.9449 88.0568 30.8707 87.7692 30.8058C87.4909 30.7408 87.1755 30.7084 86.823 30.7084C86.1736 30.7084 85.8489 30.8893 85.8489 31.2511C85.8489 31.3346 85.8629 31.4088 85.8907 31.4737C85.9185 31.5386 85.9742 31.6036 86.0577 31.6685C86.1412 31.7242 86.2525 31.7891 86.3916 31.8633C86.5401 31.9283 86.7256 32.0025 86.9482 32.086C87.4028 32.253 87.7785 32.4199 88.0754 32.5869C88.3722 32.7446 88.6041 32.9209 88.7711 33.1157C88.9474 33.3012 89.068 33.51 89.1329 33.7419C89.2071 33.9738 89.2442 34.2428 89.2442 34.549C89.2442 35.2725 88.9706 35.8199 88.4232 36.1909C87.8852 36.562 87.1199 36.7475 86.1272 36.7475C85.4779 36.7475 84.9352 36.6919 84.4992 36.5806C84.0724 36.4692 83.7756 36.3765 83.6086 36.3023L83.9565 34.6185C84.309 34.7577 84.6708 34.869 85.0419 34.9525C85.4129 35.0267 85.7794 35.0638 86.1412 35.0638Z" fill="#414652"/>
<path d="M223.725 33.0471V33.8848H219.567V26.9738H220.534V33.0471H223.725ZM226.433 33.2166C226.653 33.2166 226.845 33.2133 227.012 33.2066C227.185 33.1933 227.327 33.1734 227.44 33.1468V31.6011C227.374 31.5678 227.264 31.5412 227.111 31.5213C226.965 31.4947 226.786 31.4814 226.573 31.4814C226.433 31.4814 226.284 31.4914 226.124 31.5113C225.971 31.5312 225.828 31.5745 225.695 31.6409C225.569 31.7008 225.463 31.7872 225.376 31.9002C225.29 32.0066 225.247 32.1495 225.247 32.3291C225.247 32.6615 225.353 32.8942 225.566 33.0271C225.778 33.1534 226.068 33.2166 226.433 33.2166ZM226.353 28.5694C226.726 28.5694 227.038 28.6193 227.291 28.719C227.55 28.8121 227.756 28.9484 227.909 29.1279C228.069 29.3007 228.182 29.5102 228.248 29.7561C228.315 29.9955 228.348 30.2614 228.348 30.5539V33.795C228.268 33.8083 228.155 33.8283 228.009 33.8548C227.869 33.8748 227.71 33.8947 227.53 33.9147C227.351 33.9346 227.155 33.9512 226.942 33.9645C226.736 33.9845 226.53 33.9945 226.324 33.9945C226.031 33.9945 225.762 33.9645 225.516 33.9047C225.27 33.8449 225.057 33.7518 224.878 33.6255C224.698 33.4925 224.558 33.3197 224.459 33.1069C224.359 32.8942 224.309 32.6382 224.309 32.339C224.309 32.0531 224.366 31.8072 224.479 31.6011C224.598 31.395 224.758 31.2287 224.957 31.1024C225.157 30.9761 225.389 30.883 225.655 30.8232C225.921 30.7634 226.201 30.7334 226.493 30.7334C226.586 30.7334 226.683 30.7401 226.782 30.7534C226.882 30.76 226.975 30.7733 227.062 30.7933C227.155 30.8066 227.234 30.8199 227.301 30.8332C227.367 30.8465 227.414 30.8564 227.44 30.8631V30.6038C227.44 30.4509 227.424 30.3013 227.391 30.155C227.357 30.0021 227.298 29.8692 227.211 29.7561C227.125 29.6365 227.005 29.5434 226.852 29.4769C226.706 29.4038 226.513 29.3672 226.274 29.3672C225.968 29.3672 225.699 29.3905 225.466 29.437C225.24 29.4769 225.07 29.5201 224.957 29.5667L224.848 28.7988C224.967 28.7456 225.167 28.6957 225.446 28.6492C225.725 28.596 226.028 28.5694 226.353 28.5694ZM231.095 33.2166C231.474 33.2166 231.753 33.1667 231.933 33.067C232.119 32.9673 232.212 32.8077 232.212 32.5883C232.212 32.3623 232.122 32.1828 231.943 32.0498C231.763 31.9169 231.467 31.7673 231.055 31.6011C230.856 31.5213 230.663 31.4415 230.477 31.3617C230.297 31.2753 230.141 31.1756 230.008 31.0625C229.875 30.9495 229.769 30.8132 229.689 30.6537C229.609 30.4941 229.569 30.298 229.569 30.0653C229.569 29.6066 229.739 29.2442 230.078 28.9783C230.417 28.7057 230.879 28.5694 231.464 28.5694C231.61 28.5694 231.757 28.5794 231.903 28.5993C232.049 28.6126 232.185 28.6326 232.312 28.6592C232.438 28.6791 232.548 28.7024 232.641 28.729C232.74 28.7556 232.817 28.7788 232.87 28.7988L232.701 29.5966C232.601 29.5434 232.445 29.4902 232.232 29.437C232.019 29.3772 231.763 29.3473 231.464 29.3473C231.205 29.3473 230.979 29.4005 230.786 29.5068C230.593 29.6066 230.497 29.7661 230.497 29.9855C230.497 30.0985 230.517 30.1983 230.557 30.2847C230.603 30.3711 230.67 30.4509 230.756 30.524C230.849 30.5905 230.962 30.6537 231.095 30.7135C231.228 30.7733 231.388 30.8365 231.574 30.903C231.82 30.9961 232.039 31.0891 232.232 31.1822C232.425 31.2686 232.588 31.3717 232.721 31.4914C232.86 31.611 232.967 31.7573 233.04 31.9302C233.113 32.0964 233.149 32.3025 233.149 32.5484C233.149 33.0271 232.97 33.3895 232.611 33.6355C232.258 33.8814 231.753 34.0044 231.095 34.0044C230.636 34.0044 230.277 33.9645 230.018 33.8848C229.759 33.8116 229.583 33.7551 229.489 33.7152L229.659 32.9174C229.765 32.9573 229.935 33.0172 230.168 33.0969C230.4 33.1767 230.709 33.2166 231.095 33.2166ZM235.207 28.6991H237.171V29.4769H235.207V31.8703C235.207 32.1296 235.227 32.3457 235.266 32.5185C235.306 32.6847 235.366 32.8177 235.446 32.9174C235.526 33.0105 235.625 33.077 235.745 33.1169C235.865 33.1568 236.004 33.1767 236.164 33.1767C236.443 33.1767 236.666 33.1468 236.832 33.087C237.005 33.0205 237.125 32.9739 237.191 32.9473L237.371 33.7152C237.278 33.7618 237.115 33.8183 236.882 33.8848C236.649 33.9579 236.383 33.9945 236.084 33.9945C235.732 33.9945 235.439 33.9512 235.207 33.8648C234.981 33.7717 234.798 33.6355 234.658 33.4559C234.518 33.2764 234.419 33.057 234.359 32.7978C234.306 32.5318 234.279 32.226 234.279 31.8803V27.253L235.207 27.0935V28.6991ZM244.01 29.796C243.897 29.703 243.734 29.6132 243.522 29.5268C243.309 29.4403 243.076 29.3971 242.823 29.3971C242.558 29.3971 242.328 29.447 242.135 29.5467C241.949 29.6398 241.796 29.7728 241.677 29.9456C241.557 30.1118 241.471 30.3113 241.417 30.544C241.364 30.7767 241.338 31.026 241.338 31.2919C241.338 31.8969 241.487 32.3656 241.786 32.698C242.086 33.0238 242.484 33.1867 242.983 33.1867C243.236 33.1867 243.445 33.1767 243.611 33.1568C243.784 33.1302 243.917 33.1036 244.01 33.077V29.796ZM244.01 26.3056L244.938 26.1461V33.7352C244.725 33.795 244.452 33.8548 244.12 33.9147C243.787 33.9745 243.405 34.0044 242.973 34.0044C242.574 34.0044 242.215 33.9413 241.896 33.815C241.577 33.6886 241.304 33.5091 241.078 33.2764C240.852 33.0437 240.676 32.7612 240.55 32.4288C240.43 32.0897 240.37 31.7108 240.37 31.2919C240.37 30.893 240.42 30.5273 240.52 30.1949C240.626 29.8625 240.779 29.5766 240.979 29.3373C241.178 29.098 241.421 28.9118 241.707 28.7788C241.999 28.6459 242.332 28.5794 242.704 28.5794C243.003 28.5794 243.266 28.6193 243.492 28.6991C243.724 28.7788 243.897 28.8553 244.01 28.9284V26.3056ZM247.459 33.8848H246.532V28.6991H247.459V33.8848ZM246.991 27.7616C246.824 27.7616 246.682 27.7084 246.562 27.6021C246.449 27.4891 246.392 27.3395 246.392 27.1533C246.392 26.9672 246.449 26.8209 246.562 26.7145C246.682 26.6015 246.824 26.545 246.991 26.545C247.157 26.545 247.297 26.6015 247.41 26.7145C247.529 26.8209 247.589 26.9672 247.589 27.1533C247.589 27.3395 247.529 27.4891 247.41 27.6021C247.297 27.7084 247.157 27.7616 246.991 27.7616ZM252.305 33.3662C252.226 33.4194 252.069 33.4892 251.837 33.5756C251.611 33.6554 251.345 33.6953 251.039 33.6953C250.726 33.6953 250.43 33.6454 250.151 33.5457C249.879 33.446 249.639 33.2931 249.433 33.087C249.227 32.8742 249.064 32.6116 248.945 32.2991C248.825 31.9867 248.765 31.6144 248.765 31.1822C248.765 30.8033 248.822 30.4575 248.935 30.1451C249.048 29.8259 249.211 29.5534 249.423 29.3273C249.643 29.0946 249.909 28.9151 250.221 28.7888C250.534 28.6558 250.886 28.5894 251.278 28.5894C251.71 28.5894 252.086 28.6226 252.405 28.6891C252.731 28.7489 253.003 28.8054 253.223 28.8586V33.4859C253.223 34.2837 253.017 34.8621 252.605 35.2211C252.192 35.5801 251.567 35.7596 250.73 35.7596C250.404 35.7596 250.095 35.733 249.802 35.6798C249.516 35.6266 249.267 35.5635 249.054 35.4903L249.224 34.6826C249.41 34.7557 249.636 34.8189 249.902 34.872C250.175 34.9319 250.457 34.9618 250.75 34.9618C251.301 34.9618 251.697 34.8521 251.936 34.6327C252.182 34.4133 252.305 34.0643 252.305 33.5856V33.3662ZM252.295 29.5168C252.202 29.4902 252.076 29.4669 251.916 29.447C251.763 29.4204 251.554 29.4071 251.288 29.4071C250.79 29.4071 250.404 29.57 250.131 29.8958C249.865 30.2215 249.732 30.6537 249.732 31.1922C249.732 31.4914 249.769 31.7473 249.842 31.9601C249.922 32.1728 250.025 32.349 250.151 32.4886C250.284 32.6282 250.434 32.7313 250.6 32.7978C250.773 32.8642 250.949 32.8975 251.129 32.8975C251.375 32.8975 251.601 32.8642 251.807 32.7978C252.013 32.7246 252.176 32.6415 252.295 32.5484V29.5168ZM255.747 33.8848H254.82V28.6991H255.747V33.8848ZM255.278 27.7616C255.112 27.7616 254.969 27.7084 254.85 27.6021C254.737 27.4891 254.68 27.3395 254.68 27.1533C254.68 26.9672 254.737 26.8209 254.85 26.7145C254.969 26.6015 255.112 26.545 255.278 26.545C255.445 26.545 255.584 26.6015 255.697 26.7145C255.817 26.8209 255.877 26.9672 255.877 27.1533C255.877 27.3395 255.817 27.4891 255.697 27.6021C255.584 27.7084 255.445 27.7616 255.278 27.7616ZM258.21 28.6991H260.174V29.4769H258.21V31.8703C258.21 32.1296 258.23 32.3457 258.269 32.5185C258.309 32.6847 258.369 32.8177 258.449 32.9174C258.529 33.0105 258.628 33.077 258.748 33.1169C258.868 33.1568 259.007 33.1767 259.167 33.1767C259.446 33.1767 259.669 33.1468 259.835 33.087C260.008 33.0205 260.128 32.9739 260.194 32.9473L260.374 33.7152C260.281 33.7618 260.118 33.8183 259.885 33.8848C259.652 33.9579 259.386 33.9945 259.087 33.9945C258.735 33.9945 258.442 33.9512 258.21 33.8648C257.984 33.7717 257.801 33.6355 257.661 33.4559C257.522 33.2764 257.422 33.057 257.362 32.7978C257.309 32.5318 257.282 32.226 257.282 31.8803V27.253L258.21 27.0935V28.6991ZM267.263 31.3019C267.263 30.6969 267.113 30.2315 266.814 29.9057C266.515 29.58 266.116 29.4171 265.617 29.4171C265.338 29.4171 265.118 29.427 264.959 29.447C264.806 29.4669 264.683 29.4902 264.59 29.5168V32.7878C264.703 32.8809 264.866 32.9706 265.079 33.057C265.291 33.1435 265.524 33.1867 265.777 33.1867C266.043 33.1867 266.269 33.1402 266.455 33.0471C266.648 32.9473 266.804 32.8144 266.923 32.6482C267.043 32.4753 267.13 32.2759 267.183 32.0498C267.236 31.8171 267.263 31.5678 267.263 31.3019ZM268.23 31.3019C268.23 31.6941 268.177 32.0565 268.07 32.3889C267.971 32.7213 267.821 33.0072 267.622 33.2465C267.422 33.4859 267.176 33.672 266.884 33.805C266.598 33.938 266.269 34.0044 265.896 34.0044C265.597 34.0044 265.331 33.9645 265.099 33.8848C264.872 33.805 264.703 33.7285 264.59 33.6554V35.7297H263.662V28.8586C263.882 28.8054 264.154 28.7489 264.48 28.6891C264.813 28.6226 265.195 28.5894 265.627 28.5894C266.026 28.5894 266.385 28.6525 266.704 28.7788C267.023 28.9052 267.296 29.0847 267.522 29.3173C267.748 29.55 267.921 29.8359 268.04 30.175C268.167 30.5074 268.23 30.883 268.23 31.3019ZM271.45 28.5894C271.529 28.5894 271.619 28.596 271.719 28.6093C271.825 28.6159 271.928 28.6292 272.028 28.6492C272.128 28.6625 272.218 28.6791 272.297 28.6991C272.384 28.7123 272.447 28.7256 272.487 28.7389L272.327 29.5467C272.254 29.5201 272.131 29.4902 271.958 29.457C271.792 29.4171 271.576 29.3971 271.31 29.3971C271.137 29.3971 270.964 29.4171 270.792 29.457C270.625 29.4902 270.516 29.5135 270.462 29.5268V33.8848H269.535V28.9184C269.754 28.8387 270.027 28.7655 270.353 28.6991C270.678 28.6259 271.044 28.5894 271.45 28.5894ZM273.093 31.3019C273.093 30.8431 273.159 30.4442 273.292 30.1052C273.425 29.7595 273.601 29.4736 273.821 29.2475C274.04 29.0215 274.293 28.852 274.579 28.7389C274.864 28.6259 275.157 28.5694 275.456 28.5694C276.154 28.5694 276.689 28.7888 277.062 29.2276C277.434 29.6597 277.62 30.3212 277.62 31.2121C277.62 31.252 277.62 31.3052 277.62 31.3717C277.62 31.4315 277.617 31.488 277.61 31.5412H274.06C274.1 32.0797 274.256 32.4886 274.529 32.7678C274.801 33.0471 275.227 33.1867 275.805 33.1867C276.131 33.1867 276.403 33.1601 276.623 33.1069C276.849 33.0471 277.018 32.9906 277.131 32.9374L277.261 33.7152C277.148 33.7751 276.949 33.8382 276.663 33.9047C276.384 33.9712 276.064 34.0044 275.705 34.0044C275.253 34.0044 274.861 33.938 274.529 33.805C274.203 33.6654 273.934 33.4759 273.721 33.2366C273.508 32.9972 273.349 32.7147 273.242 32.3889C273.142 32.0565 273.093 31.6941 273.093 31.3019ZM276.653 30.7933C276.659 30.3744 276.553 30.032 276.334 29.7661C276.121 29.4935 275.825 29.3572 275.446 29.3572C275.233 29.3572 275.044 29.4005 274.878 29.4869C274.718 29.5667 274.582 29.673 274.469 29.806C274.356 29.939 274.266 30.0919 274.2 30.2647C274.14 30.4376 274.1 30.6138 274.08 30.7933H276.653ZM282.303 29.796C282.19 29.703 282.027 29.6132 281.815 29.5268C281.602 29.4403 281.369 29.3971 281.116 29.3971C280.85 29.3971 280.621 29.447 280.428 29.5467C280.242 29.6398 280.089 29.7728 279.97 29.9456C279.85 30.1118 279.763 30.3113 279.71 30.544C279.657 30.7767 279.631 31.026 279.631 31.2919C279.631 31.8969 279.78 32.3656 280.079 32.698C280.378 33.0238 280.777 33.1867 281.276 33.1867C281.529 33.1867 281.738 33.1767 281.904 33.1568C282.077 33.1302 282.21 33.1036 282.303 33.077V29.796ZM282.303 26.3056L283.231 26.1461V33.7352C283.018 33.795 282.745 33.8548 282.413 33.9147C282.08 33.9745 281.698 34.0044 281.266 34.0044C280.867 34.0044 280.508 33.9413 280.189 33.815C279.87 33.6886 279.597 33.5091 279.371 33.2764C279.145 33.0437 278.969 32.7612 278.843 32.4288C278.723 32.0897 278.663 31.7108 278.663 31.2919C278.663 30.893 278.713 30.5273 278.813 30.1949C278.919 29.8625 279.072 29.5766 279.272 29.3373C279.471 29.098 279.714 28.9118 280 28.7788C280.292 28.6459 280.624 28.5794 280.997 28.5794C281.296 28.5794 281.559 28.6193 281.785 28.6991C282.017 28.7788 282.19 28.8553 282.303 28.9284V26.3056ZM285.752 33.8848H284.825V28.6991H285.752V33.8848ZM285.284 27.7616C285.117 27.7616 284.974 27.7084 284.855 27.6021C284.742 27.4891 284.685 27.3395 284.685 27.1533C284.685 26.9672 284.742 26.8209 284.855 26.7145C284.974 26.6015 285.117 26.545 285.284 26.545C285.45 26.545 285.589 26.6015 285.702 26.7145C285.822 26.8209 285.882 26.9672 285.882 27.1533C285.882 27.3395 285.822 27.4891 285.702 27.6021C285.589 27.7084 285.45 27.7616 285.284 27.7616ZM289.601 34.0044C289.182 34.0044 288.813 33.938 288.494 33.805C288.182 33.672 287.916 33.4859 287.696 33.2465C287.484 33.0072 287.324 32.7246 287.218 32.3989C287.111 32.0664 287.058 31.7008 287.058 31.3019C287.058 30.903 287.115 30.5373 287.228 30.2049C287.347 29.8725 287.513 29.5866 287.726 29.3473C287.939 29.1013 288.198 28.9118 288.504 28.7788C288.817 28.6392 289.162 28.5694 289.541 28.5694C289.774 28.5694 290.007 28.5894 290.239 28.6292C290.472 28.6691 290.695 28.7323 290.907 28.8187L290.698 29.6066C290.558 29.5401 290.396 29.4869 290.209 29.447C290.03 29.4071 289.837 29.3872 289.631 29.3872C289.112 29.3872 288.713 29.55 288.434 29.8758C288.162 30.2016 288.025 30.6769 288.025 31.3019C288.025 31.5811 288.055 31.8371 288.115 32.0698C288.182 32.3025 288.281 32.5019 288.414 32.6681C288.554 32.8343 288.73 32.964 288.943 33.057C289.156 33.1435 289.415 33.1867 289.721 33.1867C289.967 33.1867 290.189 33.1634 290.389 33.1169C290.588 33.0703 290.745 33.0205 290.858 32.9673L290.987 33.7452C290.934 33.7784 290.858 33.8116 290.758 33.8449C290.658 33.8715 290.545 33.8947 290.419 33.9147C290.292 33.9413 290.156 33.9612 290.01 33.9745C289.87 33.9945 289.734 34.0044 289.601 34.0044ZM292.851 28.6991H294.815V29.4769H292.851V31.8703C292.851 32.1296 292.87 32.3457 292.91 32.5185C292.95 32.6847 293.01 32.8177 293.09 32.9174C293.17 33.0105 293.269 33.077 293.389 33.1169C293.509 33.1568 293.648 33.1767 293.808 33.1767C294.087 33.1767 294.31 33.1468 294.476 33.087C294.649 33.0205 294.769 32.9739 294.835 32.9473L295.015 33.7152C294.921 33.7618 294.759 33.8183 294.526 33.8848C294.293 33.9579 294.027 33.9945 293.728 33.9945C293.376 33.9945 293.083 33.9512 292.851 33.8648C292.624 33.7717 292.442 33.6355 292.302 33.4559C292.162 33.2764 292.063 33.057 292.003 32.7978C291.95 32.5318 291.923 32.226 291.923 31.8803V27.253L292.851 27.0935V28.6991ZM296.923 33.8848H295.995V28.6991H296.923V33.8848ZM296.454 27.7616C296.288 27.7616 296.145 27.7084 296.025 27.6021C295.912 27.4891 295.856 27.3395 295.856 27.1533C295.856 26.9672 295.912 26.8209 296.025 26.7145C296.145 26.6015 296.288 26.545 296.454 26.545C296.62 26.545 296.76 26.6015 296.873 26.7145C296.993 26.8209 297.052 26.9672 297.052 27.1533C297.052 27.3395 296.993 27.4891 296.873 27.6021C296.76 27.7084 296.62 27.7616 296.454 27.7616ZM303.095 31.2919C303.095 31.7041 303.035 32.0764 302.916 32.4088C302.796 32.7412 302.626 33.0271 302.407 33.2665C302.194 33.5058 301.938 33.692 301.639 33.8249C301.34 33.9512 301.014 34.0144 300.662 34.0144C300.309 34.0144 299.984 33.9512 299.684 33.8249C299.385 33.692 299.126 33.5058 298.907 33.2665C298.694 33.0271 298.528 32.7412 298.408 32.4088C298.288 32.0764 298.228 31.7041 298.228 31.2919C298.228 30.8864 298.288 30.5174 298.408 30.185C298.528 29.8459 298.694 29.5567 298.907 29.3173C299.126 29.078 299.385 28.8952 299.684 28.7689C299.984 28.6359 300.309 28.5694 300.662 28.5694C301.014 28.5694 301.34 28.6359 301.639 28.7689C301.938 28.8952 302.194 29.078 302.407 29.3173C302.626 29.5567 302.796 29.8459 302.916 30.185C303.035 30.5174 303.095 30.8864 303.095 31.2919ZM302.128 31.2919C302.128 30.7069 301.995 30.2448 301.729 29.9057C301.469 29.56 301.114 29.3872 300.662 29.3872C300.21 29.3872 299.851 29.56 299.585 29.9057C299.325 30.2448 299.196 30.7069 299.196 31.2919C299.196 31.877 299.325 32.3423 299.585 32.6881C299.851 33.0271 300.21 33.1967 300.662 33.1967C301.114 33.1967 301.469 33.0271 301.729 32.6881C301.995 32.3423 302.128 31.877 302.128 31.2919ZM304.4 28.8486C304.613 28.7955 304.895 28.7389 305.248 28.6791C305.6 28.6193 306.005 28.5894 306.464 28.5894C306.876 28.5894 307.219 28.6492 307.491 28.7689C307.764 28.8819 307.98 29.0448 308.14 29.2575C308.306 29.4636 308.422 29.7129 308.489 30.0055C308.555 30.298 308.588 30.6204 308.588 30.9728V33.8848H307.661V31.1722C307.661 30.8531 307.638 30.5805 307.591 30.3545C307.551 30.1284 307.481 29.9456 307.382 29.806C307.282 29.6664 307.149 29.5667 306.983 29.5068C306.817 29.4403 306.61 29.4071 306.364 29.4071C306.265 29.4071 306.162 29.4104 306.055 29.4171C305.949 29.4237 305.846 29.4337 305.746 29.447C305.653 29.4536 305.567 29.4636 305.487 29.4769C305.414 29.4902 305.361 29.5002 305.327 29.5068V33.8848H304.4V28.8486ZM311.223 33.3462C311.223 33.5258 311.163 33.682 311.044 33.815C310.924 33.9479 310.761 34.0144 310.555 34.0144C310.349 34.0144 310.186 33.9479 310.066 33.815C309.947 33.682 309.887 33.5258 309.887 33.3462C309.887 33.1667 309.947 33.0105 310.066 32.8775C310.186 32.7446 310.349 32.6781 310.555 32.6781C310.761 32.6781 310.924 32.7446 311.044 32.8775C311.163 33.0105 311.223 33.1667 311.223 33.3462ZM311.223 29.3672C311.223 29.5467 311.163 29.703 311.044 29.8359C310.924 29.9689 310.761 30.0354 310.555 30.0354C310.349 30.0354 310.186 29.9689 310.066 29.8359C309.947 29.703 309.887 29.5467 309.887 29.3672C309.887 29.1877 309.947 29.0315 310.066 28.8985C310.186 28.7655 310.349 28.6991 310.555 28.6991C310.761 28.6991 310.924 28.7655 311.044 28.8985C311.163 29.0315 311.223 29.1877 311.223 29.3672ZM316.345 33.2066C316.936 33.2066 317.358 33.0903 317.611 32.8576C317.87 32.6249 318 32.3124 318 31.9202C318 31.6675 317.947 31.4548 317.84 31.2819C317.734 31.1091 317.594 30.9728 317.422 30.8731C317.249 30.7667 317.046 30.6936 316.813 30.6537C316.587 30.6071 316.354 30.5839 316.115 30.5839H315.876V29.8259H316.205C316.371 29.8259 316.541 29.8093 316.714 29.7761C316.893 29.7428 317.056 29.683 317.202 29.5966C317.348 29.5102 317.468 29.3938 317.561 29.2475C317.654 29.0946 317.701 28.9052 317.701 28.6791C317.701 28.493 317.668 28.3334 317.601 28.2004C317.535 28.0675 317.445 27.9578 317.332 27.8713C317.225 27.7849 317.099 27.7251 316.953 27.6918C316.813 27.6519 316.664 27.632 316.504 27.632C316.185 27.632 315.912 27.6785 315.686 27.7716C315.467 27.8647 315.281 27.9611 315.128 28.0608L314.769 27.3528C314.849 27.2996 314.948 27.2431 315.068 27.1832C315.194 27.1167 315.334 27.0569 315.487 27.0037C315.64 26.9505 315.803 26.9073 315.976 26.8741C316.155 26.8342 316.341 26.8142 316.534 26.8142C316.9 26.8142 317.215 26.8608 317.481 26.9539C317.747 27.0403 317.967 27.1666 318.14 27.3328C318.312 27.4924 318.442 27.6852 318.529 27.9112C318.615 28.1306 318.658 28.37 318.658 28.6292C318.658 28.9883 318.555 29.2974 318.349 29.5567C318.143 29.8093 317.894 30.0021 317.601 30.1351C317.781 30.1883 317.953 30.2647 318.12 30.3645C318.286 30.4642 318.429 30.5905 318.548 30.7434C318.675 30.8963 318.774 31.0725 318.848 31.272C318.927 31.4714 318.967 31.6941 318.967 31.9401C318.967 32.2393 318.914 32.5185 318.808 32.7778C318.708 33.0305 318.548 33.2498 318.329 33.436C318.116 33.6222 317.847 33.7684 317.521 33.8748C317.196 33.9812 316.81 34.0344 316.364 34.0344C316.192 34.0344 316.012 34.0211 315.826 33.9945C315.646 33.9679 315.477 33.9346 315.317 33.8947C315.158 33.8548 315.018 33.815 314.899 33.7751C314.779 33.7352 314.692 33.7019 314.639 33.6753L314.819 32.8676C314.932 32.9208 315.118 32.9906 315.377 33.077C315.643 33.1634 315.966 33.2066 316.345 33.2066Z" fill="#414652" fill-opacity="0.8"/>
<rect x="7.51245" y="56.8835" width="326.975" height="162.301" stroke="#ECECEC" stroke-width="1.0249"/>
<path d="M7 110.161H335" stroke="#ECECEC" stroke-width="1.0249"/>
<path d="M7 83.7549H335" stroke="#ECECEC" stroke-width="1.0249"/>
<path d="M7 136.566H335" stroke="#ECECEC" stroke-width="1.0249"/>
<path d="M7 162.973H335" stroke="#ECECEC" stroke-width="1.0249"/>
<path d="M7 189.379H335" stroke="#ECECEC" stroke-width="1.0249"/>
<path d="M62.178 56.3711L62.178 219.697" stroke="#ECECEC" stroke-width="1.0249"/>
<path d="M116.333 56.3711L116.333 219.697" stroke="#ECECEC" stroke-width="1.0249"/>
<path d="M170.489 56.3711L170.489 219.697" stroke="#ECECEC" stroke-width="1.0249"/>
<path d="M224.645 56.3711L224.645 219.697" stroke="#ECECEC" stroke-width="1.0249"/>
<path d="M278.801 56.3711L278.801 219.697" stroke="#ECECEC" stroke-width="1.0249"/>
<path d="M7 57.1348H335" stroke="#ECECEC" stroke-width="1.5302"/>
<rect x="117.327" y="13.9512" width="82.497" height="33.7939" rx="15.903" fill="#CC2E3D"/>
<path d="M149.817 34.7713V36.9023H142.454V25.8815H144.935V34.7713H149.817ZM159.08 32.7039C159.08 33.3613 158.985 33.9656 158.794 34.5169C158.603 35.0576 158.327 35.5241 157.967 35.9164C157.606 36.298 157.172 36.5949 156.663 36.8069C156.165 37.019 155.603 37.125 154.977 37.125C154.362 37.125 153.8 37.019 153.291 36.8069C152.793 36.5949 152.364 36.298 152.003 35.9164C151.643 35.5241 151.362 35.0576 151.16 34.5169C150.959 33.9656 150.858 33.3613 150.858 32.7039C150.858 32.0466 150.959 31.4476 151.16 30.9069C151.372 30.3662 151.659 29.905 152.019 29.5233C152.39 29.1417 152.825 28.8448 153.323 28.6328C153.832 28.4207 154.383 28.3147 154.977 28.3147C155.581 28.3147 156.133 28.4207 156.631 28.6328C157.14 28.8448 157.575 29.1417 157.935 29.5233C158.296 29.905 158.577 30.3662 158.778 30.9069C158.979 31.4476 159.08 32.0466 159.08 32.7039ZM156.663 32.7039C156.663 31.9724 156.514 31.3999 156.218 30.9864C155.931 30.5623 155.518 30.3503 154.977 30.3503C154.436 30.3503 154.018 30.5623 153.721 30.9864C153.424 31.3999 153.276 31.9724 153.276 32.7039C153.276 33.4355 153.424 34.0186 153.721 34.4533C154.018 34.8774 154.436 35.0894 154.977 35.0894C155.518 35.0894 155.931 34.8774 156.218 34.4533C156.514 34.0186 156.663 33.4355 156.663 32.7039ZM163.317 35.2007C163.752 35.2007 164.059 35.1583 164.239 35.0735C164.42 34.9887 164.51 34.8243 164.51 34.5805C164.51 34.3897 164.393 34.2253 164.16 34.0875C163.927 33.9391 163.571 33.7747 163.094 33.5945C162.723 33.4567 162.384 33.3136 162.077 33.1651C161.78 33.0167 161.525 32.8418 161.313 32.6403C161.101 32.4283 160.937 32.1791 160.82 31.8929C160.704 31.6066 160.645 31.2621 160.645 30.8592C160.645 30.0746 160.937 29.4544 161.52 28.9985C162.103 28.5427 162.904 28.3147 163.921 28.3147C164.43 28.3147 164.918 28.3624 165.384 28.4578C165.851 28.5427 166.222 28.6381 166.498 28.7441L166.084 30.5888C165.809 30.4934 165.506 30.4086 165.178 30.3344C164.86 30.2602 164.499 30.2231 164.096 30.2231C163.354 30.2231 162.983 30.4298 162.983 30.8433C162.983 30.9387 162.999 31.0235 163.031 31.0977C163.063 31.172 163.126 31.2462 163.222 31.3204C163.317 31.384 163.444 31.4582 163.603 31.543C163.773 31.6172 163.985 31.7021 164.239 31.7975C164.759 31.9883 165.188 32.1791 165.528 32.37C165.867 32.5502 166.132 32.7517 166.323 32.9743C166.524 33.1863 166.662 33.4249 166.736 33.6899C166.821 33.955 166.863 34.2624 166.863 34.6123C166.863 35.4393 166.551 36.0648 165.925 36.4889C165.31 36.9129 164.436 37.125 163.301 37.125C162.559 37.125 161.939 37.0614 161.44 36.9341C160.953 36.8069 160.614 36.7009 160.423 36.6161L160.82 34.6918C161.223 34.8509 161.637 34.9781 162.061 35.0735C162.485 35.1583 162.904 35.2007 163.317 35.2007ZM171.036 35.2007C171.47 35.2007 171.778 35.1583 171.958 35.0735C172.138 34.9887 172.228 34.8243 172.228 34.5805C172.228 34.3897 172.112 34.2253 171.878 34.0875C171.645 33.9391 171.29 33.7747 170.813 33.5945C170.442 33.4567 170.103 33.3136 169.795 33.1651C169.498 33.0167 169.244 32.8418 169.032 32.6403C168.82 32.4283 168.655 32.1791 168.539 31.8929C168.422 31.6066 168.364 31.2621 168.364 30.8592C168.364 30.0746 168.655 29.4544 169.239 28.9985C169.822 28.5427 170.622 28.3147 171.64 28.3147C172.149 28.3147 172.637 28.3624 173.103 28.4578C173.569 28.5427 173.941 28.6381 174.216 28.7441L173.803 30.5888C173.527 30.4934 173.225 30.4086 172.896 30.3344C172.578 30.2602 172.218 30.2231 171.815 30.2231C171.073 30.2231 170.702 30.4298 170.702 30.8433C170.702 30.9387 170.718 31.0235 170.749 31.0977C170.781 31.172 170.845 31.2462 170.94 31.3204C171.036 31.384 171.163 31.4582 171.322 31.543C171.491 31.6172 171.704 31.7021 171.958 31.7975C172.477 31.9883 172.907 32.1791 173.246 32.37C173.585 32.5502 173.85 32.7517 174.041 32.9743C174.243 33.1863 174.381 33.4249 174.455 33.6899C174.54 33.955 174.582 34.2624 174.582 34.6123C174.582 35.4393 174.269 36.0648 173.644 36.4889C173.029 36.9129 172.154 37.125 171.02 37.125C170.278 37.125 169.657 37.0614 169.159 36.9341C168.671 36.8069 168.332 36.7009 168.141 36.6161L168.539 34.6918C168.942 34.8509 169.355 34.9781 169.779 35.0735C170.203 35.1583 170.622 35.2007 171.036 35.2007Z" fill="white"/>
<path d="M55.7031 112.351L91.9819 144.654L129.752 112.351L168.515 144.654L209.267 112.351L277.352 136.206" stroke="#A8A8A8" stroke-width="2.98182"/>
<path d="M280.333 136.206C280.333 138.951 278.108 141.176 275.364 141.176C272.619 141.176 270.394 138.951 270.394 136.206C270.394 133.461 272.619 131.236 275.364 131.236C278.108 131.236 280.333 133.461 280.333 136.206Z" fill="#FF444F"/>
<path d="M283.268 123.071C283.268 122.211 283.387 121.453 283.626 120.797C283.865 120.132 284.201 119.574 284.636 119.123C285.079 118.671 285.611 118.33 286.233 118.1C286.863 117.862 287.571 117.738 288.354 117.73L288.444 118.726C287.941 118.735 287.481 118.79 287.064 118.893C286.655 118.995 286.288 119.157 285.965 119.378C285.641 119.6 285.368 119.889 285.147 120.247C284.925 120.596 284.759 121.031 284.648 121.551C284.87 121.448 285.117 121.363 285.39 121.295C285.671 121.227 285.96 121.193 286.259 121.193C286.761 121.193 287.187 121.27 287.536 121.423C287.886 121.576 288.171 121.781 288.393 122.036C288.614 122.283 288.772 122.573 288.866 122.905C288.968 123.229 289.019 123.57 289.019 123.928C289.019 124.251 288.963 124.584 288.853 124.924C288.742 125.265 288.572 125.576 288.342 125.857C288.12 126.138 287.835 126.368 287.485 126.547C287.136 126.726 286.723 126.816 286.246 126.816C285.275 126.816 284.533 126.483 284.022 125.819C283.52 125.154 283.268 124.239 283.268 123.071ZM286.131 122.164C285.833 122.164 285.556 122.194 285.3 122.254C285.045 122.305 284.789 122.386 284.533 122.496C284.525 122.59 284.516 122.688 284.508 122.79C284.508 122.884 284.508 122.978 284.508 123.071C284.508 123.446 284.533 123.8 284.584 124.132C284.636 124.464 284.725 124.758 284.853 125.014C284.989 125.261 285.168 125.461 285.39 125.614C285.611 125.759 285.892 125.832 286.233 125.832C286.514 125.832 286.753 125.772 286.949 125.653C287.145 125.534 287.306 125.38 287.434 125.193C287.562 125.005 287.651 124.805 287.703 124.592C287.762 124.371 287.792 124.158 287.792 123.953C287.792 123.374 287.651 122.931 287.37 122.624C287.098 122.317 286.685 122.164 286.131 122.164Z" fill="#414652"/>
<rect x="277.991" y="113.985" width="16.613" height="16.613" rx="8.30649" stroke="#414652" stroke-width="1.27792"/>
<path d="M36.7825 96.6858C37.9911 96.6858 38.5954 96.2723 38.5954 95.4454C38.5954 95.1909 38.5397 94.9762 38.4284 94.8013C38.3251 94.6184 38.1819 94.4634 37.999 94.3361C37.8162 94.201 37.6054 94.0857 37.3669 93.9902C37.1363 93.8948 36.8898 93.7994 36.6274 93.704C36.3253 93.6006 36.039 93.4853 35.7686 93.3581C35.4983 93.2229 35.2637 93.0679 35.0649 92.8929C34.8661 92.71 34.7071 92.4954 34.5878 92.2489C34.4765 92.0024 34.4209 91.7042 34.4209 91.3543C34.4209 90.6307 34.6674 90.0662 35.1604 89.6606C35.6533 89.2551 36.3332 89.0524 37.1999 89.0524C37.7009 89.0524 38.1541 89.108 38.5596 89.2193C38.9731 89.3227 39.2753 89.438 39.4661 89.5652L39.0964 90.5075C38.9294 90.4041 38.6789 90.3047 38.3449 90.2093C38.0189 90.1059 37.6373 90.0542 37.1999 90.0542C36.9773 90.0542 36.7705 90.0781 36.5797 90.1258C36.3889 90.1735 36.2219 90.2451 36.0788 90.3405C35.9356 90.4359 35.8203 90.5592 35.7329 90.7102C35.6533 90.8534 35.6136 91.0243 35.6136 91.2231C35.6136 91.4458 35.6573 91.6326 35.7448 91.7837C35.8323 91.9348 35.9555 92.07 36.1145 92.1892C36.2736 92.3005 36.4565 92.4039 36.6632 92.4993C36.8779 92.5948 37.1125 92.6902 37.3669 92.7856C37.7247 92.9287 38.0507 93.0718 38.3449 93.215C38.6471 93.3581 38.9055 93.5291 39.1202 93.7278C39.3429 93.9266 39.5138 94.1652 39.6331 94.4435C39.7524 94.7138 39.812 95.0438 39.812 95.4334C39.812 96.157 39.5456 96.7136 39.0129 97.1033C38.4881 97.4929 37.7446 97.6877 36.7825 97.6877C36.4565 97.6877 36.1543 97.6638 35.876 97.6161C35.6056 97.5764 35.3631 97.5287 35.1484 97.473C34.9337 97.4094 34.7469 97.3458 34.5878 97.2822C34.4368 97.2106 34.3175 97.151 34.23 97.1033L34.5759 96.1491C34.7588 96.2524 35.0371 96.3677 35.4108 96.495C35.7845 96.6222 36.2418 96.6858 36.7825 96.6858ZM42.1763 91.3066H44.526V92.2369H42.1763V95.0995C42.1763 95.4096 42.2001 95.668 42.2479 95.8748C42.2956 96.0735 42.3671 96.2326 42.4625 96.3518C42.558 96.4632 42.6772 96.5427 42.8204 96.5904C42.9635 96.6381 43.1305 96.662 43.3213 96.662C43.6553 96.662 43.9216 96.6262 44.1204 96.5546C44.3272 96.4751 44.4703 96.4194 44.5498 96.3876L44.7645 97.306C44.6532 97.3617 44.4584 97.4293 44.1801 97.5088C43.9018 97.5963 43.5837 97.64 43.2259 97.64C42.8045 97.64 42.4546 97.5883 42.1763 97.4849C41.9059 97.3736 41.6873 97.2106 41.5203 96.9959C41.3533 96.7812 41.234 96.5188 41.1625 96.2087C41.0989 95.8907 41.0671 95.5249 41.0671 95.1114V89.5772L42.1763 89.3863V91.3066ZM48.0367 96.7097C48.2991 96.7097 48.5297 96.7057 48.7285 96.6977C48.9352 96.6818 49.1062 96.658 49.2413 96.6262V94.7774C49.1618 94.7377 49.0306 94.7059 48.8477 94.682C48.6728 94.6502 48.4581 94.6343 48.2037 94.6343C48.0367 94.6343 47.8578 94.6462 47.6669 94.6701C47.4841 94.694 47.3131 94.7456 47.1541 94.8252C47.003 94.8967 46.8758 95.0001 46.7724 95.1353C46.669 95.2625 46.6173 95.4334 46.6173 95.6481C46.6173 96.0457 46.7446 96.324 46.999 96.483C47.2535 96.6341 47.5993 96.7097 48.0367 96.7097ZM47.9413 91.1516C48.3865 91.1516 48.7603 91.2112 49.0624 91.3305C49.3725 91.4418 49.619 91.6048 49.8019 91.8195C49.9928 92.0262 50.1279 92.2767 50.2074 92.5709C50.287 92.8572 50.3267 93.1752 50.3267 93.5251V97.4014C50.2313 97.4173 50.0961 97.4412 49.9212 97.473C49.7542 97.4969 49.5634 97.5207 49.3487 97.5446C49.134 97.5684 48.8994 97.5883 48.645 97.6042C48.3985 97.6281 48.152 97.64 47.9055 97.64C47.5556 97.64 47.2336 97.6042 46.9394 97.5326C46.6452 97.4611 46.3907 97.3498 46.176 97.1987C45.9613 97.0396 45.7944 96.8329 45.6751 96.5785C45.5558 96.324 45.4962 96.0179 45.4962 95.6601C45.4962 95.3181 45.5638 95.0239 45.6989 94.7774C45.8421 94.5309 46.0329 94.3322 46.2714 94.1811C46.51 94.03 46.7883 93.9187 47.1064 93.8471C47.4244 93.7756 47.7584 93.7398 48.1082 93.7398C48.2196 93.7398 48.3349 93.7477 48.4541 93.7636C48.5734 93.7716 48.6847 93.7875 48.7881 93.8113C48.8994 93.8272 48.9948 93.8431 49.0744 93.859C49.1539 93.8749 49.2095 93.8869 49.2413 93.8948V93.5847C49.2413 93.4018 49.2215 93.2229 49.1817 93.048C49.1419 92.8651 49.0704 92.7061 48.967 92.5709C48.8636 92.4278 48.7205 92.3164 48.5376 92.2369C48.3627 92.1495 48.1321 92.1057 47.8458 92.1057C47.4801 92.1057 47.158 92.1336 46.8797 92.1892C46.6094 92.2369 46.4066 92.2886 46.2714 92.3443L46.1402 91.4259C46.2834 91.3623 46.5219 91.3026 46.8559 91.247C47.1898 91.1834 47.5516 91.1516 47.9413 91.1516ZM54.4591 91.1754C54.5545 91.1754 54.6618 91.1834 54.7811 91.1993C54.9083 91.2072 55.0316 91.2231 55.1508 91.247C55.2701 91.2629 55.3775 91.2828 55.4729 91.3066C55.5762 91.3225 55.6518 91.3384 55.6995 91.3543L55.5087 92.3204C55.4212 92.2886 55.2741 92.2528 55.0673 92.2131C54.8686 92.1654 54.6101 92.1415 54.2921 92.1415C54.0853 92.1415 53.8786 92.1654 53.6719 92.2131C53.4731 92.2528 53.3419 92.2807 53.2783 92.2966V97.5088H52.169V91.569C52.4314 91.4736 52.7574 91.3861 53.1471 91.3066C53.5367 91.2191 53.974 91.1754 54.4591 91.1754ZM57.8075 91.3066H60.1572V92.2369H57.8075V95.0995C57.8075 95.4096 57.8314 95.668 57.8791 95.8748C57.9268 96.0735 57.9984 96.2326 58.0938 96.3518C58.1892 96.4632 58.3085 96.5427 58.4516 96.5904C58.5947 96.6381 58.7617 96.662 58.9526 96.662C59.2865 96.662 59.5529 96.6262 59.7517 96.5546C59.9584 96.4751 60.1016 96.4194 60.1811 96.3876L60.3958 97.306C60.2844 97.3617 60.0896 97.4293 59.8113 97.5088C59.533 97.5963 59.215 97.64 58.8571 97.64C58.4357 97.64 58.0858 97.5883 57.8075 97.4849C57.5372 97.3736 57.3185 97.2106 57.1515 96.9959C56.9846 96.7812 56.8653 96.5188 56.7937 96.2087C56.7301 95.8907 56.6983 95.5249 56.6983 95.1114V89.5772L57.8075 89.3863V91.3066Z" fill="#414652"/>
<path d="M64.1516 112.351C64.1516 116.742 60.5916 120.302 56.2001 120.302C51.8085 120.302 48.2485 116.742 48.2485 112.351C48.2485 107.959 51.8085 104.399 56.2001 104.399C60.5916 104.399 64.1516 107.959 64.1516 112.351Z" fill="#FF444F"/>
<path d="M251.541 155.157V146.892H256.586V147.882H252.698V150.339H256.157V151.305H252.698V154.167H256.884V155.157H251.541ZM258.283 149.134C258.538 149.07 258.876 149.003 259.297 148.931C259.718 148.86 260.204 148.824 260.752 148.824C261.245 148.824 261.655 148.895 261.981 149.039C262.307 149.174 262.565 149.369 262.756 149.623C262.955 149.869 263.094 150.168 263.173 150.518C263.253 150.867 263.293 151.253 263.293 151.674V155.157H262.183V151.913C262.183 151.531 262.156 151.205 262.1 150.935C262.052 150.665 261.969 150.446 261.849 150.279C261.73 150.112 261.571 149.993 261.372 149.921C261.174 149.842 260.927 149.802 260.633 149.802C260.514 149.802 260.39 149.806 260.263 149.814C260.136 149.822 260.013 149.834 259.893 149.85C259.782 149.858 259.679 149.869 259.583 149.885C259.496 149.901 259.432 149.913 259.392 149.921V155.157H258.283V149.134ZM269.14 150.267C269.004 150.156 268.81 150.048 268.555 149.945C268.301 149.842 268.022 149.79 267.72 149.79C267.402 149.79 267.128 149.85 266.897 149.969C266.675 150.08 266.492 150.239 266.349 150.446C266.206 150.645 266.102 150.883 266.039 151.162C265.975 151.44 265.943 151.738 265.943 152.056C265.943 152.78 266.122 153.34 266.48 153.738C266.838 154.128 267.315 154.322 267.911 154.322C268.213 154.322 268.464 154.31 268.663 154.287C268.869 154.255 269.028 154.223 269.14 154.191V150.267ZM269.14 146.092L270.249 145.902V154.978C269.994 155.05 269.668 155.121 269.271 155.193C268.873 155.265 268.416 155.3 267.899 155.3C267.422 155.3 266.993 155.225 266.611 155.074C266.229 154.923 265.903 154.708 265.633 154.43C265.363 154.151 265.152 153.813 265.001 153.416C264.858 153.01 264.786 152.557 264.786 152.056C264.786 151.579 264.846 151.142 264.965 150.744C265.092 150.347 265.275 150.005 265.514 149.718C265.752 149.432 266.043 149.209 266.384 149.05C266.734 148.891 267.132 148.812 267.577 148.812C267.935 148.812 268.249 148.86 268.519 148.955C268.798 149.05 269.004 149.142 269.14 149.229V146.092Z" fill="#414652"/>
<defs>
<filter id="filter0_d_2591_24951" x="0.0977015" y="0.478161" width="341.805" height="227.502" filterUnits="userSpaceOnUse" color-interpolation-filters="sRGB">
<feFlood flood-opacity="0" result="BackgroundImageFix"/>
<feColorMatrix in="SourceAlpha" type="matrix" values="0 0 0 0 0 0 0 0 0 0 0 0 0 0 0 0 0 0 127 0" result="hardAlpha"/>
<feOffset dy="1.38046"/>
<feGaussianBlur stdDeviation="3.45115"/>
<feComposite in2="hardAlpha" operator="out"/>
<feColorMatrix type="matrix" values="0 0 0 0 0 0 0 0 0 0 0 0 0 0 0 0 0 0 0.1 0"/>
<feBlend mode="normal" in2="BackgroundImageFix" result="effect1_dropShadow_2591_24951"/>
<feBlend mode="normal" in="SourceGraphic" in2="effect1_dropShadow_2591_24951" result="shape"/>
</filter>
</defs>
</svg>
