<svg width="342" height="228" viewBox="0 0 342 228" fill="none" xmlns="http://www.w3.org/2000/svg">
<g filter="url(#filter0_d_2591_25168)">
<rect x="6.99976" y="5.78809" width="328" height="213.697" rx="4.14138" fill="white"/>
</g>
<path d="M36.6331 31.5132C36.6331 31.9864 36.6888 32.4131 36.8001 32.7934C36.9207 33.1738 37.0877 33.5031 37.301 33.7814C37.5237 34.0504 37.7927 34.2592 38.1081 34.4076C38.4235 34.556 38.7853 34.6302 39.1935 34.6302C39.5924 34.6302 39.9496 34.556 40.265 34.4076C40.5897 34.2592 40.8587 34.0504 41.0721 33.7814C41.2947 33.5031 41.4617 33.1738 41.573 32.7934C41.6936 32.4131 41.7539 31.9864 41.7539 31.5132C41.7539 31.0401 41.6936 30.6134 41.573 30.233C41.4617 29.8434 41.2947 29.5141 41.0721 29.2451C40.8587 28.9668 40.5897 28.7534 40.265 28.605C39.9496 28.4565 39.5924 28.3823 39.1935 28.3823C38.7853 28.3823 38.4235 28.4612 38.1081 28.6189C37.7927 28.7673 37.5237 28.9807 37.301 29.259C37.0877 29.528 36.9207 29.8573 36.8001 30.247C36.6888 30.6273 36.6331 31.0494 36.6331 31.5132ZM43.9942 31.5132C43.9942 32.3389 43.869 33.0671 43.6185 33.6979C43.3773 34.3195 43.0434 34.8436 42.6166 35.2703C42.1899 35.6878 41.6797 36.0032 41.086 36.2166C40.5015 36.4299 39.8707 36.5366 39.1935 36.5366C38.5349 36.5366 37.9133 36.4299 37.3289 36.2166C36.7444 36.0032 36.2342 35.6878 35.7982 35.2703C35.3622 34.8436 35.019 34.3195 34.7685 33.6979C34.518 33.0671 34.3928 32.3389 34.3928 31.5132C34.3928 30.6876 34.5227 29.964 34.7824 29.3425C35.0422 28.7117 35.39 28.1829 35.826 27.7561C36.2713 27.3294 36.7815 27.0094 37.3567 26.796C37.9411 26.5826 38.5534 26.476 39.1935 26.476C39.8522 26.476 40.4737 26.5826 41.0581 26.796C41.6426 27.0094 42.1528 27.3294 42.5888 27.7561C43.0248 28.1829 43.3681 28.7117 43.6185 29.3425C43.869 29.964 43.9942 30.6876 43.9942 31.5132ZM47.6545 36.3418C47.1813 35.4141 46.699 34.3287 46.2073 33.0857C45.7249 31.8426 45.2657 30.4882 44.8297 29.0224H47.0283C47.121 29.3842 47.2277 29.7785 47.3483 30.2052C47.4782 30.6227 47.6081 31.0494 47.738 31.4854C47.8771 31.9121 48.0116 32.3296 48.1415 32.7378C48.2806 33.146 48.4152 33.517 48.545 33.851C48.6656 33.517 48.7955 33.146 48.9347 32.7378C49.0738 32.3296 49.2083 31.9121 49.3382 31.4854C49.4773 31.0494 49.6072 30.6227 49.7278 30.2052C49.8577 29.7785 49.969 29.3842 50.0618 29.0224H52.2047C51.7687 30.4882 51.3049 31.8426 50.8132 33.0857C50.3308 34.3287 49.8531 35.4141 49.3799 36.3418H47.6545ZM52.7771 32.7378C52.7771 32.0884 52.8745 31.5225 53.0693 31.0401C53.2734 30.5485 53.5378 30.1403 53.8625 29.8156C54.1872 29.4909 54.5582 29.2451 54.9757 29.0781C55.4024 28.9111 55.8384 28.8276 56.2837 28.8276C57.3227 28.8276 58.1437 29.1477 58.7467 29.7878C59.3497 30.4186 59.6512 31.3509 59.6512 32.5847C59.6512 32.7053 59.6465 32.8398 59.6373 32.9882C59.628 33.1274 59.6187 33.2526 59.6094 33.364H54.9061C54.9525 33.7907 55.1519 34.1293 55.5045 34.3798C55.857 34.6302 56.3301 34.7555 56.9238 34.7555C57.3041 34.7555 57.6752 34.723 58.037 34.6581C58.4081 34.5838 58.7096 34.4957 58.9415 34.3937L59.2198 36.0774C59.1085 36.1331 58.9601 36.1887 58.7745 36.2444C58.589 36.3001 58.3803 36.3464 58.1483 36.3835C57.9257 36.4299 57.6845 36.467 57.4247 36.4949C57.165 36.5227 56.9052 36.5366 56.6455 36.5366C55.9868 36.5366 55.4117 36.4392 54.92 36.2444C54.4376 36.0496 54.0341 35.7852 53.7094 35.4512C53.394 35.108 53.1574 34.7044 52.9997 34.2406C52.8513 33.7768 52.7771 33.2758 52.7771 32.7378ZM57.6474 31.9446C57.6381 31.7684 57.6056 31.5967 57.55 31.4297C57.5036 31.2628 57.4247 31.1143 57.3134 30.9845C57.2114 30.8546 57.0769 30.7479 56.9099 30.6644C56.7522 30.5809 56.5527 30.5392 56.3115 30.5392C56.0796 30.5392 55.8802 30.5809 55.7132 30.6644C55.5462 30.7386 55.407 30.8407 55.2957 30.9705C55.1844 31.1004 55.0963 31.2535 55.0313 31.4297C54.9757 31.5967 54.9339 31.7684 54.9061 31.9446H57.6474ZM65.6623 30.8592C65.4768 30.8128 65.2588 30.7665 65.0083 30.7201C64.7578 30.6644 64.4888 30.6366 64.2012 30.6366C64.0713 30.6366 63.9136 30.6505 63.7281 30.6783C63.5518 30.6969 63.4173 30.7201 63.3246 30.7479V36.3418H61.2512V29.4121C61.6223 29.2822 62.0583 29.1616 62.5592 29.0503C63.0694 28.9297 63.6353 28.8694 64.2569 28.8694C64.3682 28.8694 64.5027 28.8786 64.6604 28.8972C64.8181 28.9065 64.9758 28.925 65.1335 28.9529C65.2912 28.9714 65.4489 28.9992 65.6066 29.0363C65.7643 29.0642 65.8989 29.1013 66.0102 29.1477L65.6623 30.8592Z" fill="#414652"/>
<rect x="7.51221" y="56.6726" width="326.975" height="162.301" stroke="#ECECEC" stroke-width="1.0249"/>
<path d="M6.99976 109.95H335" stroke="#ECECEC" stroke-width="1.0249"/>
<path d="M6.99976 83.5439H335" stroke="#ECECEC" stroke-width="1.0249"/>
<path d="M6.99976 136.355H335" stroke="#ECECEC" stroke-width="1.0249"/>
<path d="M6.99976 162.762H335" stroke="#ECECEC" stroke-width="1.0249"/>
<path d="M6.99976 189.168H335" stroke="#ECECEC" stroke-width="1.0249"/>
<path d="M62.1777 56.1602L62.1777 219.486" stroke="#ECECEC" stroke-width="1.0249"/>
<path d="M116.333 56.1602L116.333 219.486" stroke="#ECECEC" stroke-width="1.0249"/>
<path d="M170.489 56.1602L170.489 219.486" stroke="#ECECEC" stroke-width="1.0249"/>
<path d="M224.645 56.1602L224.645 219.486" stroke="#ECECEC" stroke-width="1.0249"/>
<path d="M278.801 56.1602L278.801 219.486" stroke="#ECECEC" stroke-width="1.0249"/>
<path d="M6.99976 56.9229H335" stroke="#ECECEC" stroke-width="1.5302"/>
<path d="M36.8176 122.576L69.6176 150.406L94.4661 122.576L139.69 150.406L165.533 116.612L207.775 169.291L232.127 116.612L261.945 152.394L289.278 105.679" stroke="#A8A8A8" stroke-width="2.98182"/>
<path d="M26.8428 106.413C28.0514 106.413 28.6557 106 28.6557 105.173C28.6557 104.918 28.6 104.704 28.4887 104.529C28.3854 104.346 28.2422 104.191 28.0593 104.064C27.8765 103.928 27.6657 103.813 27.4272 103.718C27.1966 103.622 26.9501 103.527 26.6877 103.432C26.3856 103.328 26.0993 103.213 25.8289 103.086C25.5586 102.95 25.324 102.795 25.1252 102.62C24.9264 102.438 24.7674 102.223 24.6481 101.976C24.5368 101.73 24.4812 101.432 24.4812 101.082C24.4812 100.358 24.7277 99.7937 25.2207 99.3882C25.7136 98.9827 26.3935 98.7799 27.2602 98.7799C27.7612 98.7799 28.2144 98.8356 28.6199 98.9469C29.0334 99.0502 29.3356 99.1655 29.5264 99.2928L29.1567 100.235C28.9897 100.132 28.7392 100.032 28.4052 99.9368C28.0792 99.8335 27.6976 99.7818 27.2602 99.7818C27.0376 99.7818 26.8308 99.8056 26.64 99.8533C26.4492 99.9011 26.2822 99.9726 26.1391 100.068C25.9959 100.163 25.8806 100.287 25.7932 100.438C25.7136 100.581 25.6739 100.752 25.6739 100.951C25.6739 101.173 25.7176 101.36 25.8051 101.511C25.8926 101.662 26.0158 101.797 26.1748 101.917C26.3339 102.028 26.5168 102.131 26.7235 102.227C26.9382 102.322 27.1728 102.418 27.4272 102.513C27.785 102.656 28.111 102.799 28.4052 102.943C28.7074 103.086 28.9658 103.257 29.1805 103.455C29.4032 103.654 29.5741 103.893 29.6934 104.171C29.8127 104.441 29.8723 104.771 29.8723 105.161C29.8723 105.885 29.6059 106.441 29.0732 106.831C28.5484 107.22 27.8049 107.415 26.8428 107.415C26.5168 107.415 26.2146 107.391 25.9363 107.344C25.6659 107.304 25.4234 107.256 25.2087 107.201C24.994 107.137 24.8072 107.073 24.6481 107.01C24.4971 106.938 24.3778 106.879 24.2903 106.831L24.6362 105.877C24.8191 105.98 25.0974 106.095 25.4711 106.223C25.8448 106.35 26.3021 106.413 26.8428 106.413ZM32.2366 101.034H34.5863V101.964H32.2366V104.827C32.2366 105.137 32.2604 105.396 32.3082 105.602C32.3559 105.801 32.4274 105.96 32.5228 106.079C32.6183 106.191 32.7375 106.27 32.8807 106.318C33.0238 106.366 33.1908 106.389 33.3816 106.389C33.7156 106.389 33.982 106.354 34.1807 106.282C34.3875 106.203 34.5306 106.147 34.6101 106.115L34.8248 107.034C34.7135 107.089 34.5187 107.157 34.2404 107.236C33.9621 107.324 33.644 107.368 33.2862 107.368C32.8648 107.368 32.5149 107.316 32.2366 107.212C31.9662 107.101 31.7476 106.938 31.5806 106.723C31.4136 106.509 31.2943 106.246 31.2228 105.936C31.1592 105.618 31.1274 105.252 31.1274 104.839V99.3047L32.2366 99.1139V101.034ZM38.097 106.437C38.3594 106.437 38.59 106.433 38.7888 106.425C38.9955 106.409 39.1665 106.386 39.3016 106.354V104.505C39.2221 104.465 39.0909 104.433 38.908 104.41C38.7331 104.378 38.5184 104.362 38.264 104.362C38.097 104.362 37.9181 104.374 37.7272 104.398C37.5444 104.421 37.3734 104.473 37.2144 104.553C37.0633 104.624 36.9361 104.728 36.8327 104.863C36.7293 104.99 36.6776 105.161 36.6776 105.376C36.6776 105.773 36.8049 106.052 37.0593 106.211C37.3138 106.362 37.6597 106.437 38.097 106.437ZM38.0016 100.879C38.4469 100.879 38.8206 100.939 39.1227 101.058C39.4328 101.169 39.6793 101.332 39.8622 101.547C40.0531 101.754 40.1882 102.004 40.2677 102.298C40.3473 102.585 40.387 102.903 40.387 103.253V107.129C40.2916 107.145 40.1564 107.169 39.9815 107.201C39.8145 107.224 39.6237 107.248 39.409 107.272C39.1943 107.296 38.9597 107.316 38.7053 107.332C38.4588 107.356 38.2123 107.368 37.9658 107.368C37.6159 107.368 37.2939 107.332 36.9997 107.26C36.7055 107.189 36.451 107.077 36.2363 106.926C36.0216 106.767 35.8547 106.56 35.7354 106.306C35.6161 106.052 35.5565 105.745 35.5565 105.388C35.5565 105.046 35.6241 104.751 35.7592 104.505C35.9024 104.258 36.0932 104.06 36.3317 103.909C36.5703 103.758 36.8486 103.646 37.1667 103.575C37.4847 103.503 37.8187 103.467 38.1685 103.467C38.2799 103.467 38.3952 103.475 38.5144 103.491C38.6337 103.499 38.745 103.515 38.8484 103.539C38.9597 103.555 39.0551 103.571 39.1347 103.587C39.2142 103.602 39.2698 103.614 39.3016 103.622V103.312C39.3016 103.129 39.2818 102.95 39.242 102.776C39.2022 102.593 39.1307 102.434 39.0273 102.298C38.9239 102.155 38.7808 102.044 38.5979 101.964C38.423 101.877 38.1924 101.833 37.9061 101.833C37.5404 101.833 37.2183 101.861 36.94 101.917C36.6697 101.964 36.4669 102.016 36.3317 102.072L36.2005 101.153C36.3437 101.09 36.5822 101.03 36.9162 100.975C37.2501 100.911 37.6119 100.879 38.0016 100.879ZM44.5194 100.903C44.6148 100.903 44.7221 100.911 44.8414 100.927C44.9686 100.935 45.0919 100.951 45.2111 100.975C45.3304 100.99 45.4378 101.01 45.5332 101.034C45.6365 101.05 45.7121 101.066 45.7598 101.082L45.569 102.048C45.4815 102.016 45.3344 101.98 45.1276 101.941C44.9289 101.893 44.6704 101.869 44.3524 101.869C44.1456 101.869 43.9389 101.893 43.7322 101.941C43.5334 101.98 43.4022 102.008 43.3386 102.024V107.236H42.2293V101.297C42.4917 101.201 42.8177 101.114 43.2074 101.034C43.597 100.947 44.0343 100.903 44.5194 100.903ZM47.8678 101.034H50.2175V101.964H47.8678V104.827C47.8678 105.137 47.8917 105.396 47.9394 105.602C47.9871 105.801 48.0587 105.96 48.1541 106.079C48.2495 106.191 48.3688 106.27 48.5119 106.318C48.655 106.366 48.822 106.389 49.0129 106.389C49.3468 106.389 49.6132 106.354 49.812 106.282C50.0187 106.203 50.1619 106.147 50.2414 106.115L50.4561 107.034C50.3447 107.089 50.1499 107.157 49.8716 107.236C49.5933 107.324 49.2753 107.368 48.9174 107.368C48.496 107.368 48.1461 107.316 47.8678 107.212C47.5975 107.101 47.3788 106.938 47.2118 106.723C47.0449 106.509 46.9256 106.246 46.854 105.936C46.7904 105.618 46.7586 105.252 46.7586 104.839V99.3047L47.8678 99.1139V101.034Z" fill="#414652"/>
<path d="M45.3483 122.163C45.3483 126.555 41.7883 130.115 37.3968 130.115C33.0053 130.115 29.4453 126.555 29.4453 122.163C29.4453 117.772 33.0053 114.212 37.3968 114.212C41.7883 114.212 45.3483 117.772 45.3483 122.163Z" fill="#FF444F"/>
<rect x="100.43" y="13.7393" width="81.503" height="33.7939" rx="15.903" fill="#00A79E"/>
<path d="M132.952 26.8465C133.079 27.2811 133.217 27.7741 133.365 28.3254C133.524 28.8661 133.689 29.428 133.858 30.0112C134.039 30.5943 134.219 31.1774 134.399 31.7605C134.579 32.3436 134.754 32.8843 134.924 33.3826C135.062 32.8419 135.199 32.2535 135.337 31.6174C135.486 30.9812 135.624 30.3239 135.751 29.6454C135.878 28.9669 136 28.2936 136.117 27.6257C136.244 26.9472 136.36 26.2951 136.466 25.6696H139.043C138.672 27.5144 138.242 29.3856 137.755 31.2834C137.277 33.1812 136.758 34.9835 136.196 36.6904H133.922C133.551 35.6726 133.19 34.6071 132.84 33.4939C132.491 32.3701 132.146 31.2463 131.807 30.1225C131.468 31.2463 131.128 32.3701 130.789 33.4939C130.45 34.6071 130.095 35.6726 129.724 36.6904H127.449C126.887 34.9835 126.363 33.1812 125.875 31.2834C125.398 29.3856 124.974 27.5144 124.603 25.6696H127.29C127.396 26.2951 127.513 26.9472 127.64 27.6257C127.767 28.2936 127.9 28.9669 128.038 29.6454C128.176 30.3239 128.313 30.9812 128.451 31.6174C128.6 32.2535 128.748 32.8419 128.897 33.3826C129.087 32.8631 129.273 32.3118 129.453 31.7287C129.633 31.1456 129.808 30.5625 129.978 29.9794C130.148 29.3962 130.301 28.8343 130.439 28.2936C130.588 27.7529 130.72 27.2705 130.837 26.8465H132.952ZM142.847 36.6904H140.478V28.3254H142.847V36.6904ZM143.07 25.9082C143.07 26.3429 142.927 26.6874 142.641 26.9419C142.365 27.1857 142.036 27.3076 141.655 27.3076C141.273 27.3076 140.939 27.1857 140.653 26.9419C140.377 26.6874 140.239 26.3429 140.239 25.9082C140.239 25.4735 140.377 25.1342 140.653 24.8904C140.939 24.6359 141.273 24.5087 141.655 24.5087C142.036 24.5087 142.365 24.6359 142.641 24.8904C142.927 25.1342 143.07 25.4735 143.07 25.9082ZM145.075 28.6117C145.478 28.4951 145.997 28.389 146.633 28.2936C147.269 28.1876 147.937 28.1346 148.637 28.1346C149.347 28.1346 149.936 28.23 150.402 28.4209C150.879 28.6011 151.256 28.8608 151.531 29.2001C151.807 29.5394 152.003 29.9422 152.12 30.4087C152.236 30.8752 152.295 31.3947 152.295 31.9672V36.6904H149.925V32.2535C149.925 31.4901 149.824 30.9494 149.623 30.6314C149.422 30.3133 149.045 30.1543 148.494 30.1543C148.324 30.1543 148.144 30.1649 147.953 30.1861C147.762 30.1967 147.593 30.2126 147.444 30.2338V36.6904H145.075V28.6117ZM156.873 28.5163C156.873 29.375 156.841 30.1755 156.777 30.9176C156.714 31.6598 156.629 32.4125 156.523 33.1759H154.71C154.604 32.4125 154.514 31.6598 154.44 30.9176C154.376 30.1755 154.344 29.375 154.344 28.5163V25.6696H156.873V28.5163ZM157.079 35.4341C157.079 35.9006 156.926 36.261 156.618 36.5155C156.321 36.7699 155.982 36.8972 155.6 36.8972C155.219 36.8972 154.874 36.7699 154.567 36.5155C154.27 36.261 154.121 35.9006 154.121 35.4341C154.121 34.9676 154.27 34.6071 154.567 34.3527C154.874 34.0982 155.219 33.971 155.6 33.971C155.982 33.971 156.321 34.0982 156.618 34.3527C156.926 34.6071 157.079 34.9676 157.079 35.4341Z" fill="white"/>
<path d="M215.774 31.841V32.6787H211.615V25.7678H212.582V31.841H215.774ZM218.482 32.0106C218.701 32.0106 218.894 32.0072 219.06 32.0006C219.233 31.9873 219.376 31.9673 219.489 31.9407V30.395C219.422 30.3618 219.313 30.3352 219.16 30.3152C219.013 30.2886 218.834 30.2753 218.621 30.2753C218.482 30.2753 218.332 30.2853 218.172 30.3052C218.02 30.3252 217.877 30.3684 217.744 30.4349C217.617 30.4947 217.511 30.5812 217.425 30.6942C217.338 30.8006 217.295 30.9435 217.295 31.123C217.295 31.4554 217.401 31.6881 217.614 31.8211C217.827 31.9474 218.116 32.0106 218.482 32.0106ZM218.402 27.3634C218.774 27.3634 219.087 27.4132 219.339 27.5129C219.599 27.606 219.805 27.7423 219.958 27.9218C220.117 28.0947 220.23 28.3041 220.297 28.5501C220.363 28.7894 220.396 29.0554 220.396 29.3479V32.589C220.317 32.6023 220.204 32.6222 220.057 32.6488C219.918 32.6687 219.758 32.6887 219.579 32.7086C219.399 32.7286 219.203 32.7452 218.99 32.7585C218.784 32.7784 218.578 32.7884 218.372 32.7884C218.079 32.7884 217.81 32.7585 217.564 32.6987C217.318 32.6388 217.105 32.5457 216.926 32.4194C216.746 32.2865 216.607 32.1136 216.507 31.9009C216.407 31.6881 216.357 31.4321 216.357 31.133C216.357 30.8471 216.414 30.6011 216.527 30.395C216.647 30.1889 216.806 30.0227 217.006 29.8964C217.205 29.7701 217.438 29.677 217.704 29.6171C217.97 29.5573 218.249 29.5274 218.541 29.5274C218.635 29.5274 218.731 29.534 218.831 29.5473C218.93 29.554 219.023 29.5673 219.11 29.5872C219.203 29.6005 219.283 29.6138 219.349 29.6271C219.416 29.6404 219.462 29.6504 219.489 29.657V29.3977C219.489 29.2448 219.472 29.0952 219.439 28.949C219.406 28.7961 219.346 28.6631 219.259 28.5501C219.173 28.4304 219.053 28.3373 218.9 28.2709C218.754 28.1977 218.561 28.1612 218.322 28.1612C218.016 28.1612 217.747 28.1844 217.514 28.231C217.288 28.2709 217.119 28.3141 217.006 28.3606L216.896 27.5927C217.016 27.5395 217.215 27.4897 217.494 27.4431C217.774 27.3899 218.076 27.3634 218.402 27.3634ZM223.143 32.0106C223.522 32.0106 223.802 31.9607 223.981 31.861C224.167 31.7612 224.26 31.6017 224.26 31.3823C224.26 31.1562 224.171 30.9767 223.991 30.8438C223.812 30.7108 223.516 30.5612 223.103 30.395C222.904 30.3152 222.711 30.2354 222.525 30.1557C222.346 30.0692 222.189 29.9695 222.056 29.8565C221.923 29.7435 221.817 29.6072 221.737 29.4476C221.657 29.2881 221.618 29.0919 221.618 28.8592C221.618 28.4005 221.787 28.0382 222.126 27.7722C222.465 27.4996 222.927 27.3634 223.512 27.3634C223.659 27.3634 223.805 27.3733 223.951 27.3933C224.097 27.4066 224.234 27.4265 224.36 27.4531C224.486 27.4731 224.596 27.4963 224.689 27.5229C224.789 27.5495 224.865 27.5728 224.918 27.5927L224.749 28.3905C224.649 28.3373 224.493 28.2842 224.28 28.231C224.067 28.1711 223.812 28.1412 223.512 28.1412C223.253 28.1412 223.027 28.1944 222.834 28.3008C222.641 28.4005 222.545 28.5601 222.545 28.7795C222.545 28.8925 222.565 28.9922 222.605 29.0786C222.651 29.1651 222.718 29.2448 222.804 29.318C222.897 29.3845 223.01 29.4476 223.143 29.5074C223.276 29.5673 223.436 29.6304 223.622 29.6969C223.868 29.79 224.087 29.8831 224.28 29.9762C224.473 30.0626 224.636 30.1656 224.769 30.2853C224.908 30.405 225.015 30.5512 225.088 30.7241C225.161 30.8903 225.198 31.0964 225.198 31.3424C225.198 31.8211 225.018 32.1834 224.659 32.4294C224.307 32.6754 223.802 32.7984 223.143 32.7984C222.685 32.7984 222.326 32.7585 222.066 32.6787C221.807 32.6056 221.631 32.5491 221.538 32.5092L221.707 31.7114C221.814 31.7513 221.983 31.8111 222.216 31.8909C222.449 31.9707 222.758 32.0106 223.143 32.0106ZM227.255 27.493H229.22V28.2709H227.255V30.6643C227.255 30.9235 227.275 31.1396 227.315 31.3125C227.355 31.4787 227.414 31.6117 227.494 31.7114C227.574 31.8045 227.674 31.8709 227.793 31.9108C227.913 31.9507 228.053 31.9707 228.212 31.9707C228.492 31.9707 228.714 31.9407 228.88 31.8809C229.053 31.8144 229.173 31.7679 229.239 31.7413L229.419 32.5092C229.326 32.5557 229.163 32.6122 228.93 32.6787C228.698 32.7518 228.432 32.7884 228.133 32.7884C227.78 32.7884 227.488 32.7452 227.255 32.6588C227.029 32.5657 226.846 32.4294 226.706 32.2499C226.567 32.0704 226.467 31.851 226.407 31.5917C226.354 31.3258 226.327 31.0199 226.327 30.6742V26.047L227.255 25.8874V27.493ZM236.059 28.59C235.946 28.4969 235.783 28.4071 235.57 28.3207C235.357 28.2343 235.124 28.1911 234.872 28.1911C234.606 28.1911 234.377 28.2409 234.184 28.3407C233.998 28.4337 233.845 28.5667 233.725 28.7396C233.605 28.9058 233.519 29.1052 233.466 29.3379C233.413 29.5706 233.386 29.8199 233.386 30.0859C233.386 30.6909 233.536 31.1596 233.835 31.492C234.134 31.8177 234.533 31.9806 235.031 31.9806C235.284 31.9806 235.493 31.9707 235.66 31.9507C235.833 31.9241 235.965 31.8975 236.059 31.8709V28.59ZM236.059 25.0996L236.986 24.94V32.5291C236.773 32.589 236.501 32.6488 236.168 32.7086C235.836 32.7685 235.454 32.7984 235.021 32.7984C234.623 32.7984 234.264 32.7352 233.944 32.6089C233.625 32.4826 233.353 32.3031 233.127 32.0704C232.901 31.8377 232.724 31.5551 232.598 31.2227C232.478 30.8837 232.419 30.5047 232.419 30.0859C232.419 29.687 232.468 29.3213 232.568 28.9889C232.675 28.6565 232.827 28.3706 233.027 28.1312C233.226 27.8919 233.469 27.7057 233.755 27.5728C234.047 27.4398 234.38 27.3733 234.752 27.3733C235.051 27.3733 235.314 27.4132 235.54 27.493C235.773 27.5728 235.946 27.6492 236.059 27.7224V25.0996ZM239.508 32.6787H238.58V27.493H239.508V32.6787ZM239.039 26.5556C238.873 26.5556 238.73 26.5024 238.61 26.396C238.497 26.283 238.441 26.1334 238.441 25.9473C238.441 25.7611 238.497 25.6148 238.61 25.5085C238.73 25.3954 238.873 25.3389 239.039 25.3389C239.205 25.3389 239.345 25.3954 239.458 25.5085C239.578 25.6148 239.637 25.7611 239.637 25.9473C239.637 26.1334 239.578 26.283 239.458 26.396C239.345 26.5024 239.205 26.5556 239.039 26.5556ZM244.354 32.1601C244.274 32.2133 244.118 32.2831 243.885 32.3696C243.659 32.4493 243.393 32.4892 243.087 32.4892C242.775 32.4892 242.479 32.4394 242.2 32.3396C241.927 32.2399 241.688 32.087 241.482 31.8809C241.275 31.6682 241.113 31.4056 240.993 31.0931C240.873 30.7806 240.813 30.4083 240.813 29.9762C240.813 29.5972 240.87 29.2515 240.983 28.939C241.096 28.6199 241.259 28.3473 241.472 28.1213C241.691 27.8886 241.957 27.7091 242.269 27.5827C242.582 27.4498 242.934 27.3833 243.327 27.3833C243.759 27.3833 244.134 27.4165 244.453 27.483C244.779 27.5429 245.052 27.5994 245.271 27.6526V32.2798C245.271 33.0776 245.065 33.656 244.653 34.015C244.241 34.374 243.616 34.5535 242.778 34.5535C242.452 34.5535 242.143 34.527 241.851 34.4738C241.565 34.4206 241.315 34.3574 241.103 34.2843L241.272 33.4765C241.458 33.5496 241.684 33.6128 241.95 33.666C242.223 33.7258 242.505 33.7557 242.798 33.7557C243.35 33.7557 243.745 33.646 243.985 33.4267C244.231 33.2073 244.354 32.8582 244.354 32.3795V32.1601ZM244.344 28.3107C244.251 28.2842 244.124 28.2609 243.965 28.2409C243.812 28.2143 243.602 28.201 243.336 28.201C242.838 28.201 242.452 28.3639 242.18 28.6897C241.914 29.0155 241.781 29.4476 241.781 29.9861C241.781 30.2853 241.817 30.5413 241.89 30.754C241.97 30.9668 242.073 31.1429 242.2 31.2826C242.333 31.4222 242.482 31.5252 242.648 31.5917C242.821 31.6582 242.997 31.6914 243.177 31.6914C243.423 31.6914 243.649 31.6582 243.855 31.5917C244.061 31.5186 244.224 31.4355 244.344 31.3424V28.3107ZM247.795 32.6787H246.868V27.493H247.795V32.6787ZM247.327 26.5556C247.161 26.5556 247.018 26.5024 246.898 26.396C246.785 26.283 246.728 26.1334 246.728 25.9473C246.728 25.7611 246.785 25.6148 246.898 25.5085C247.018 25.3954 247.161 25.3389 247.327 25.3389C247.493 25.3389 247.633 25.3954 247.746 25.5085C247.865 25.6148 247.925 25.7611 247.925 25.9473C247.925 26.1334 247.865 26.283 247.746 26.396C247.633 26.5024 247.493 26.5556 247.327 26.5556ZM250.258 27.493H252.223V28.2709H250.258V30.6643C250.258 30.9235 250.278 31.1396 250.318 31.3125C250.358 31.4787 250.418 31.6117 250.497 31.7114C250.577 31.8045 250.677 31.8709 250.796 31.9108C250.916 31.9507 251.056 31.9707 251.215 31.9707C251.495 31.9707 251.717 31.9407 251.883 31.8809C252.056 31.8144 252.176 31.7679 252.242 31.7413L252.422 32.5092C252.329 32.5557 252.166 32.6122 251.933 32.6787C251.701 32.7518 251.435 32.7884 251.136 32.7884C250.783 32.7884 250.491 32.7452 250.258 32.6588C250.032 32.5657 249.849 32.4294 249.709 32.2499C249.57 32.0704 249.47 31.851 249.41 31.5917C249.357 31.3258 249.331 31.0199 249.331 30.6742V26.047L250.258 25.8874V27.493ZM259.311 30.0958C259.311 29.4908 259.161 29.0254 258.862 28.6997C258.563 28.3739 258.164 28.211 257.665 28.211C257.386 28.211 257.167 28.221 257.007 28.2409C256.854 28.2609 256.731 28.2842 256.638 28.3107V31.5817C256.751 31.6748 256.914 31.7646 257.127 31.851C257.34 31.9374 257.572 31.9806 257.825 31.9806C258.091 31.9806 258.317 31.9341 258.503 31.841C258.696 31.7413 258.852 31.6083 258.972 31.4421C259.092 31.2693 259.178 31.0698 259.231 30.8438C259.284 30.6111 259.311 30.3618 259.311 30.0958ZM260.278 30.0958C260.278 30.4881 260.225 30.8504 260.119 31.1828C260.019 31.5152 259.869 31.8011 259.67 32.0405C259.47 32.2798 259.224 32.466 258.932 32.5989C258.646 32.7319 258.317 32.7984 257.945 32.7984C257.645 32.7984 257.38 32.7585 257.147 32.6787C256.921 32.5989 256.751 32.5225 256.638 32.4493V34.5236H255.711V27.6526C255.93 27.5994 256.203 27.5429 256.529 27.483C256.861 27.4165 257.243 27.3833 257.675 27.3833C258.074 27.3833 258.433 27.4465 258.752 27.5728C259.072 27.6991 259.344 27.8786 259.57 28.1113C259.796 28.344 259.969 28.6299 260.089 28.9689C260.215 29.3013 260.278 29.677 260.278 30.0958ZM263.498 27.3833C263.578 27.3833 263.668 27.3899 263.767 27.4032C263.874 27.4099 263.977 27.4232 264.076 27.4431C264.176 27.4564 264.266 27.4731 264.346 27.493C264.432 27.5063 264.495 27.5196 264.535 27.5329L264.376 28.3407C264.302 28.3141 264.179 28.2842 264.007 28.2509C263.84 28.211 263.624 28.1911 263.358 28.1911C263.186 28.1911 263.013 28.211 262.84 28.2509C262.674 28.2842 262.564 28.3074 262.511 28.3207V32.6787H261.583V27.7124C261.803 27.6326 262.075 27.5595 262.401 27.493C262.727 27.4199 263.092 27.3833 263.498 27.3833ZM265.141 30.0958C265.141 29.6371 265.207 29.2382 265.34 28.8991C265.473 28.5534 265.65 28.2675 265.869 28.0415C266.088 27.8154 266.341 27.6459 266.627 27.5329C266.913 27.4199 267.205 27.3634 267.504 27.3634C268.202 27.3634 268.738 27.5827 269.11 28.0215C269.482 28.4537 269.668 29.1152 269.668 30.0061C269.668 30.046 269.668 30.0992 269.668 30.1656C269.668 30.2255 269.665 30.282 269.658 30.3352H266.108C266.148 30.8737 266.304 31.2826 266.577 31.5618C266.85 31.841 267.275 31.9806 267.853 31.9806C268.179 31.9806 268.452 31.954 268.671 31.9009C268.897 31.841 269.067 31.7845 269.18 31.7313L269.309 32.5092C269.196 32.569 268.997 32.6322 268.711 32.6987C268.432 32.7651 268.113 32.7984 267.754 32.7984C267.302 32.7984 266.909 32.7319 266.577 32.5989C266.251 32.4593 265.982 32.2698 265.769 32.0305C265.556 31.7912 265.397 31.5086 265.291 31.1828C265.191 30.8504 265.141 30.4881 265.141 30.0958ZM268.701 29.5872C268.708 29.1684 268.601 28.826 268.382 28.5601C268.169 28.2875 267.873 28.1512 267.494 28.1512C267.282 28.1512 267.092 28.1944 266.926 28.2808C266.766 28.3606 266.63 28.467 266.517 28.5999C266.404 28.7329 266.314 28.8858 266.248 29.0587C266.188 29.2315 266.148 29.4077 266.128 29.5872H268.701ZM274.351 28.59C274.238 28.4969 274.076 28.4071 273.863 28.3207C273.65 28.2343 273.417 28.1911 273.165 28.1911C272.899 28.1911 272.669 28.2409 272.477 28.3407C272.291 28.4337 272.138 28.5667 272.018 28.7396C271.898 28.9058 271.812 29.1052 271.759 29.3379C271.705 29.5706 271.679 29.8199 271.679 30.0859C271.679 30.6909 271.828 31.1596 272.128 31.492C272.427 31.8177 272.826 31.9806 273.324 31.9806C273.577 31.9806 273.786 31.9707 273.953 31.9507C274.125 31.9241 274.258 31.8975 274.351 31.8709V28.59ZM274.351 25.0996L275.279 24.94V32.5291C275.066 32.589 274.794 32.6488 274.461 32.7086C274.129 32.7685 273.746 32.7984 273.314 32.7984C272.915 32.7984 272.556 32.7352 272.237 32.6089C271.918 32.4826 271.646 32.3031 271.42 32.0704C271.194 31.8377 271.017 31.5551 270.891 31.2227C270.771 30.8837 270.712 30.5047 270.712 30.0859C270.712 29.687 270.761 29.3213 270.861 28.9889C270.967 28.6565 271.12 28.3706 271.32 28.1312C271.519 27.8919 271.762 27.7057 272.048 27.5728C272.34 27.4398 272.673 27.3733 273.045 27.3733C273.344 27.3733 273.607 27.4132 273.833 27.493C274.066 27.5728 274.238 27.6492 274.351 27.7224V25.0996ZM277.801 32.6787H276.873V27.493H277.801V32.6787ZM277.332 26.5556C277.166 26.5556 277.023 26.5024 276.903 26.396C276.79 26.283 276.734 26.1334 276.734 25.9473C276.734 25.7611 276.79 25.6148 276.903 25.5085C277.023 25.3954 277.166 25.3389 277.332 25.3389C277.498 25.3389 277.638 25.3954 277.751 25.5085C277.87 25.6148 277.93 25.7611 277.93 25.9473C277.93 26.1334 277.87 26.283 277.751 26.396C277.638 26.5024 277.498 26.5556 277.332 26.5556ZM281.649 32.7984C281.231 32.7984 280.862 32.7319 280.542 32.5989C280.23 32.466 279.964 32.2798 279.745 32.0405C279.532 31.8011 279.372 31.5186 279.266 31.1928C279.16 30.8604 279.106 30.4947 279.106 30.0958C279.106 29.6969 279.163 29.3313 279.276 28.9988C279.396 28.6664 279.562 28.3806 279.775 28.1412C279.987 27.8952 280.247 27.7057 280.552 27.5728C280.865 27.4332 281.211 27.3634 281.59 27.3634C281.822 27.3634 282.055 27.3833 282.288 27.4232C282.52 27.4631 282.743 27.5262 282.956 27.6127L282.746 28.4005C282.607 28.334 282.444 28.2808 282.258 28.2409C282.078 28.201 281.885 28.1811 281.679 28.1811C281.161 28.1811 280.762 28.344 280.483 28.6698C280.21 28.9955 280.074 29.4709 280.074 30.0958C280.074 30.3751 280.104 30.631 280.163 30.8637C280.23 31.0964 280.33 31.2959 280.463 31.4621C280.602 31.6283 280.778 31.7579 280.991 31.851C281.204 31.9374 281.463 31.9806 281.769 31.9806C282.015 31.9806 282.238 31.9574 282.437 31.9108C282.637 31.8643 282.793 31.8144 282.906 31.7612L283.036 32.5391C282.982 32.5723 282.906 32.6056 282.806 32.6388C282.706 32.6654 282.593 32.6887 282.467 32.7086C282.341 32.7352 282.205 32.7552 282.058 32.7685C281.919 32.7884 281.782 32.7984 281.649 32.7984ZM284.899 27.493H286.863V28.2709H284.899V30.6643C284.899 30.9235 284.919 31.1396 284.959 31.3125C284.999 31.4787 285.058 31.6117 285.138 31.7114C285.218 31.8045 285.318 31.8709 285.437 31.9108C285.557 31.9507 285.697 31.9707 285.856 31.9707C286.135 31.9707 286.358 31.9407 286.524 31.8809C286.697 31.8144 286.817 31.7679 286.883 31.7413L287.063 32.5092C286.97 32.5557 286.807 32.6122 286.574 32.6787C286.342 32.7518 286.076 32.7884 285.776 32.7884C285.424 32.7884 285.132 32.7452 284.899 32.6588C284.673 32.5657 284.49 32.4294 284.35 32.2499C284.211 32.0704 284.111 31.851 284.051 31.5917C283.998 31.3258 283.971 31.0199 283.971 30.6742V26.047L284.899 25.8874V27.493ZM288.971 32.6787H288.044V27.493H288.971V32.6787ZM288.502 26.5556C288.336 26.5556 288.193 26.5024 288.074 26.396C287.961 26.283 287.904 26.1334 287.904 25.9473C287.904 25.7611 287.961 25.6148 288.074 25.5085C288.193 25.3954 288.336 25.3389 288.502 25.3389C288.669 25.3389 288.808 25.3954 288.921 25.5085C289.041 25.6148 289.101 25.7611 289.101 25.9473C289.101 26.1334 289.041 26.283 288.921 26.396C288.808 26.5024 288.669 26.5556 288.502 26.5556ZM295.143 30.0859C295.143 30.4981 295.084 30.8704 294.964 31.2028C294.844 31.5352 294.675 31.8211 294.455 32.0604C294.243 32.2998 293.987 32.4859 293.687 32.6189C293.388 32.7452 293.062 32.8084 292.71 32.8084C292.358 32.8084 292.032 32.7452 291.733 32.6189C291.434 32.4859 291.174 32.2998 290.955 32.0604C290.742 31.8211 290.576 31.5352 290.456 31.2028C290.337 30.8704 290.277 30.4981 290.277 30.0859C290.277 29.6803 290.337 29.3113 290.456 28.9789C290.576 28.6398 290.742 28.3506 290.955 28.1113C291.174 27.872 291.434 27.6891 291.733 27.5628C292.032 27.4298 292.358 27.3634 292.71 27.3634C293.062 27.3634 293.388 27.4298 293.687 27.5628C293.987 27.6891 294.243 27.872 294.455 28.1113C294.675 28.3506 294.844 28.6398 294.964 28.9789C295.084 29.3113 295.143 29.6803 295.143 30.0859ZM294.176 30.0859C294.176 29.5008 294.043 29.0387 293.777 28.6997C293.518 28.354 293.162 28.1811 292.71 28.1811C292.258 28.1811 291.899 28.354 291.633 28.6997C291.374 29.0387 291.244 29.5008 291.244 30.0859C291.244 30.6709 291.374 31.1363 291.633 31.482C291.899 31.8211 292.258 31.9906 292.71 31.9906C293.162 31.9906 293.518 31.8211 293.777 31.482C294.043 31.1363 294.176 30.6709 294.176 30.0859ZM296.448 27.6426C296.661 27.5894 296.944 27.5329 297.296 27.4731C297.648 27.4132 298.054 27.3833 298.513 27.3833C298.925 27.3833 299.267 27.4431 299.54 27.5628C299.812 27.6758 300.028 27.8387 300.188 28.0515C300.354 28.2576 300.47 28.5069 300.537 28.7994C300.603 29.0919 300.637 29.4144 300.637 29.7667V32.6787H299.709V29.9662C299.709 29.6471 299.686 29.3745 299.639 29.1484C299.6 28.9224 299.53 28.7396 299.43 28.5999C299.33 28.4603 299.197 28.3606 299.031 28.3008C298.865 28.2343 298.659 28.201 298.413 28.201C298.313 28.201 298.21 28.2044 298.104 28.211C297.997 28.2177 297.894 28.2276 297.794 28.2409C297.701 28.2476 297.615 28.2576 297.535 28.2709C297.462 28.2842 297.409 28.2941 297.376 28.3008V32.6787H296.448V27.6426ZM303.272 32.1402C303.272 32.3197 303.212 32.4759 303.092 32.6089C302.972 32.7419 302.81 32.8084 302.603 32.8084C302.397 32.8084 302.234 32.7419 302.115 32.6089C301.995 32.4759 301.935 32.3197 301.935 32.1402C301.935 31.9607 301.995 31.8045 302.115 31.6715C302.234 31.5385 302.397 31.472 302.603 31.472C302.81 31.472 302.972 31.5385 303.092 31.6715C303.212 31.8045 303.272 31.9607 303.272 32.1402ZM303.272 28.1612C303.272 28.3407 303.212 28.4969 303.092 28.6299C302.972 28.7628 302.81 28.8293 302.603 28.8293C302.397 28.8293 302.234 28.7628 302.115 28.6299C301.995 28.4969 301.935 28.3407 301.935 28.1612C301.935 27.9817 301.995 27.8254 302.115 27.6924C302.234 27.5595 302.397 27.493 302.603 27.493C302.81 27.493 302.972 27.5595 303.092 27.6924C303.212 27.8254 303.272 27.9817 303.272 28.1612ZM308.124 28.4304C309.128 28.4703 309.862 28.6897 310.328 29.0886C310.8 29.4875 311.036 30.0293 311.036 30.7141C311.036 31.0199 310.982 31.3025 310.876 31.5618C310.776 31.8211 310.62 32.0438 310.407 32.2299C310.201 32.4161 309.939 32.5624 309.619 32.6687C309.3 32.7751 308.921 32.8283 308.483 32.8283C308.31 32.8283 308.134 32.815 307.954 32.7884C307.775 32.7618 307.608 32.7286 307.455 32.6887C307.303 32.6488 307.166 32.6089 307.047 32.569C306.927 32.5291 306.84 32.4959 306.787 32.4693L306.967 31.6615C307.08 31.7147 307.263 31.7845 307.515 31.8709C307.775 31.9574 308.09 32.0006 308.463 32.0006C308.762 32.0006 309.011 31.9673 309.211 31.9009C309.417 31.8344 309.583 31.7446 309.709 31.6316C309.836 31.5186 309.925 31.3889 309.978 31.2427C310.038 31.0898 310.068 30.9302 310.068 30.764C310.068 30.5113 310.025 30.2886 309.939 30.0958C309.852 29.8964 309.699 29.7302 309.48 29.5972C309.26 29.4642 308.968 29.3645 308.602 29.298C308.237 29.2249 307.775 29.1883 307.216 29.1883C307.256 28.8626 307.286 28.5567 307.306 28.2709C307.332 27.985 307.356 27.7057 307.376 27.4332C307.396 27.1606 307.412 26.8913 307.426 26.6254C307.439 26.3528 307.452 26.0669 307.465 25.7678H310.796V26.5556H308.273C308.267 26.6553 308.257 26.7916 308.243 26.9645C308.23 27.1307 308.217 27.3068 308.203 27.493C308.19 27.6725 308.177 27.8487 308.163 28.0215C308.15 28.1944 308.137 28.3307 308.124 28.4304Z" fill="#414652" fill-opacity="0.8"/>
<path d="M306.166 133.802C307.166 133.842 307.898 134.06 308.362 134.458C308.833 134.856 309.068 135.396 309.068 136.078C309.068 136.383 309.015 136.664 308.909 136.923C308.81 137.181 308.654 137.403 308.442 137.589C308.236 137.774 307.975 137.92 307.657 138.026C307.339 138.132 306.961 138.185 306.524 138.185C306.351 138.185 306.176 138.172 305.997 138.145C305.818 138.119 305.652 138.086 305.5 138.046C305.347 138.006 305.212 137.967 305.092 137.927C304.973 137.887 304.887 137.854 304.834 137.827L305.013 137.022C305.125 137.075 305.308 137.145 305.559 137.231C305.818 137.317 306.133 137.36 306.504 137.36C306.802 137.36 307.05 137.327 307.249 137.261C307.454 137.195 307.62 137.105 307.746 136.992C307.872 136.88 307.961 136.751 308.014 136.605C308.074 136.452 308.104 136.293 308.104 136.128C308.104 135.876 308.061 135.654 307.975 135.462C307.889 135.263 307.736 135.097 307.517 134.965C307.299 134.832 307.007 134.733 306.643 134.667C306.278 134.594 305.818 134.557 305.261 134.557C305.301 134.233 305.331 133.928 305.351 133.643C305.377 133.358 305.4 133.08 305.42 132.808C305.44 132.536 305.457 132.268 305.47 132.003C305.483 131.731 305.496 131.446 305.51 131.148H308.829V131.933H306.315C306.308 132.033 306.298 132.169 306.285 132.341C306.272 132.507 306.258 132.682 306.245 132.868C306.232 133.047 306.219 133.222 306.205 133.394C306.192 133.567 306.179 133.703 306.166 133.802Z" fill="#414652"/>
<path d="M304.585 162.488C304.711 162.196 304.884 161.858 305.102 161.474C305.321 161.083 305.566 160.682 305.838 160.271C306.116 159.86 306.411 159.456 306.722 159.059C307.04 158.661 307.358 158.303 307.676 157.985H308.561V162.358H309.376V163.114H308.561V164.873H307.667V163.114H304.585V162.488ZM307.667 159.078C307.468 159.29 307.266 159.529 307.06 159.794C306.861 160.052 306.666 160.324 306.474 160.609C306.282 160.894 306.099 161.186 305.927 161.484C305.761 161.782 305.612 162.073 305.48 162.358H307.667V159.078Z" fill="#414652"/>
<path d="M306.434 191.033C307.024 191.033 307.444 190.917 307.696 190.685C307.955 190.453 308.084 190.142 308.084 189.751C308.084 189.499 308.031 189.287 307.925 189.115C307.819 188.943 307.68 188.807 307.507 188.707C307.335 188.601 307.133 188.528 306.901 188.489C306.676 188.442 306.444 188.419 306.205 188.419H305.967V187.664H306.295C306.46 187.664 306.629 187.647 306.802 187.614C306.98 187.581 307.143 187.521 307.289 187.435C307.434 187.349 307.554 187.233 307.646 187.087C307.739 186.935 307.786 186.746 307.786 186.521C307.786 186.335 307.752 186.176 307.686 186.044C307.62 185.911 307.53 185.802 307.418 185.716C307.312 185.629 307.186 185.57 307.04 185.537C306.901 185.497 306.752 185.477 306.593 185.477C306.275 185.477 306.003 185.523 305.778 185.616C305.559 185.709 305.374 185.805 305.221 185.904L304.863 185.199C304.943 185.146 305.042 185.089 305.162 185.03C305.287 184.963 305.427 184.904 305.579 184.851C305.731 184.798 305.894 184.755 306.066 184.722C306.245 184.682 306.43 184.662 306.623 184.662C306.987 184.662 307.302 184.708 307.567 184.801C307.832 184.887 308.051 185.013 308.223 185.179C308.395 185.338 308.524 185.53 308.611 185.755C308.697 185.974 308.74 186.212 308.74 186.471C308.74 186.829 308.637 187.137 308.432 187.395C308.226 187.647 307.978 187.839 307.686 187.972C307.865 188.025 308.037 188.101 308.203 188.2C308.369 188.3 308.511 188.426 308.63 188.578C308.756 188.73 308.856 188.906 308.929 189.105C309.008 189.304 309.048 189.526 309.048 189.771C309.048 190.069 308.995 190.347 308.889 190.606C308.789 190.858 308.63 191.076 308.412 191.262C308.2 191.447 307.931 191.593 307.607 191.699C307.282 191.805 306.898 191.858 306.454 191.858C306.281 191.858 306.102 191.845 305.917 191.818C305.738 191.792 305.569 191.759 305.41 191.719C305.251 191.679 305.112 191.639 304.993 191.6C304.873 191.56 304.787 191.527 304.734 191.5L304.913 190.695C305.026 190.748 305.211 190.818 305.47 190.904C305.735 190.99 306.056 191.033 306.434 191.033Z" fill="#414652"/>
<path d="M304.814 109.431C304.814 108.762 304.907 108.172 305.092 107.662C305.278 107.145 305.54 106.711 305.877 106.36C306.222 106.009 306.636 105.744 307.12 105.565C307.61 105.379 308.16 105.283 308.77 105.277L308.839 106.052C308.448 106.058 308.091 106.101 307.766 106.181C307.448 106.261 307.163 106.386 306.911 106.559C306.659 106.731 306.447 106.956 306.275 107.235C306.103 107.506 305.974 107.844 305.887 108.248C306.06 108.169 306.252 108.103 306.464 108.05C306.683 107.997 306.908 107.97 307.14 107.97C307.531 107.97 307.862 108.03 308.134 108.149C308.405 108.268 308.627 108.427 308.8 108.626C308.972 108.818 309.094 109.044 309.167 109.302C309.247 109.554 309.287 109.819 309.287 110.097C309.287 110.349 309.244 110.607 309.157 110.872C309.071 111.137 308.939 111.379 308.76 111.598C308.588 111.817 308.366 111.996 308.094 112.135C307.822 112.274 307.501 112.343 307.13 112.343C306.374 112.343 305.798 112.085 305.4 111.568C305.009 111.051 304.814 110.339 304.814 109.431ZM307.04 108.725C306.808 108.725 306.593 108.749 306.394 108.795C306.196 108.835 305.997 108.898 305.798 108.984C305.791 109.057 305.785 109.133 305.778 109.213C305.778 109.285 305.778 109.358 305.778 109.431C305.778 109.723 305.798 109.998 305.838 110.256C305.877 110.515 305.947 110.743 306.046 110.942C306.152 111.134 306.292 111.29 306.464 111.409C306.636 111.522 306.855 111.578 307.12 111.578C307.339 111.578 307.524 111.532 307.676 111.439C307.829 111.346 307.955 111.227 308.054 111.081C308.154 110.935 308.223 110.78 308.263 110.614C308.309 110.442 308.332 110.276 308.332 110.117C308.332 109.666 308.223 109.322 308.004 109.083C307.792 108.845 307.471 108.725 307.04 108.725Z" fill="#FF444F"/>
<rect x="300.709" y="102.697" width="12.9212" height="12.9212" stroke="#FF444F" stroke-width="0.993939"/>
<path d="M305.808 86.3516C305.847 85.8215 305.94 85.2649 306.086 84.6817C306.238 84.092 306.424 83.5221 306.643 82.9722C306.861 82.4156 307.1 81.902 307.358 81.4316C307.623 80.9545 307.882 80.5668 308.133 80.2687H304.784V79.4636H309.167V80.2289C308.948 80.4807 308.707 80.8286 308.442 81.2725C308.177 81.7099 307.925 82.2035 307.686 82.7535C307.454 83.2969 307.252 83.88 307.08 84.5028C306.914 85.1191 306.812 85.7353 306.772 86.3516H305.808Z" fill="#414652"/>
<path d="M309.247 57.7265C309.247 58.0048 309.197 58.2633 309.098 58.5018C309.005 58.7337 308.863 58.9391 308.67 59.118C308.485 59.2903 308.25 59.4229 307.965 59.5156C307.68 59.615 307.352 59.6647 306.981 59.6647C306.55 59.6647 306.189 59.6051 305.897 59.4858C305.612 59.3599 305.384 59.2042 305.212 59.0187C305.039 58.8331 304.917 58.631 304.844 58.4124C304.771 58.1871 304.734 57.975 304.734 57.7762C304.734 57.5841 304.764 57.4018 304.824 57.2296C304.89 57.0507 304.973 56.885 305.072 56.7326C305.178 56.5802 305.298 56.4444 305.43 56.3251C305.569 56.1992 305.715 56.0898 305.868 55.9971C305.218 55.626 304.893 55.0793 304.893 54.3571C304.893 54.1053 304.943 53.8667 305.043 53.6414C305.142 53.4095 305.281 53.2074 305.46 53.0351C305.646 52.8629 305.868 52.727 306.126 52.6276C306.384 52.5216 306.673 52.4686 306.991 52.4686C307.362 52.4686 307.68 52.5249 307.945 52.6376C308.21 52.7502 308.425 52.896 308.591 53.0749C308.763 53.2472 308.886 53.4393 308.959 53.6514C309.038 53.8634 309.078 54.0688 309.078 54.2676C309.078 54.4598 309.048 54.642 308.988 54.8143C308.935 54.9799 308.859 55.1357 308.76 55.2814C308.667 55.4272 308.558 55.5564 308.432 55.6691C308.313 55.7817 308.187 55.8811 308.054 55.9673C308.836 56.3383 309.234 56.9248 309.247 57.7265ZM305.669 57.7862C305.669 57.9054 305.689 58.0313 305.728 58.1639C305.775 58.2898 305.851 58.409 305.957 58.5217C306.063 58.6277 306.199 58.7172 306.364 58.79C306.53 58.8629 306.739 58.8994 306.991 58.8994C307.216 58.8994 307.411 58.8663 307.577 58.8C307.749 58.7337 307.889 58.6509 307.995 58.5515C308.101 58.4455 308.18 58.3262 308.233 58.1937C308.286 58.0612 308.313 57.9253 308.313 57.7862C308.313 57.5741 308.273 57.3886 308.193 57.2296C308.114 57.0705 307.998 56.9314 307.845 56.8121C307.7 56.6928 307.521 56.5934 307.309 56.5139C307.103 56.4278 306.868 56.3549 306.603 56.2953C306.305 56.4609 306.073 56.6663 305.907 56.9115C305.748 57.1567 305.669 57.4482 305.669 57.7862ZM308.154 54.2577C308.154 54.1583 308.13 54.049 308.084 53.9297C308.044 53.8104 307.978 53.7011 307.885 53.6017C307.792 53.4957 307.673 53.4095 307.527 53.3433C307.382 53.2704 307.203 53.2339 306.991 53.2339C306.779 53.2339 306.596 53.2671 306.444 53.3333C306.298 53.3996 306.179 53.4857 306.086 53.5917C305.993 53.6911 305.924 53.8038 305.877 53.9297C305.838 54.049 305.818 54.1682 305.818 54.2875C305.818 54.4333 305.844 54.5791 305.897 54.7248C305.95 54.8706 306.033 55.0065 306.146 55.1324C306.258 55.2583 306.404 55.3709 306.583 55.4703C306.769 55.5697 306.987 55.6492 307.239 55.7088C307.517 55.5432 307.739 55.351 307.905 55.1324C308.071 54.9071 308.154 54.6155 308.154 54.2577Z" fill="#414652"/>
<defs>
<filter id="filter0_d_2591_25168" x="0.0974574" y="0.266247" width="341.805" height="227.502" filterUnits="userSpaceOnUse" color-interpolation-filters="sRGB">
<feFlood flood-opacity="0" result="BackgroundImageFix"/>
<feColorMatrix in="SourceAlpha" type="matrix" values="0 0 0 0 0 0 0 0 0 0 0 0 0 0 0 0 0 0 127 0" result="hardAlpha"/>
<feOffset dy="1.38046"/>
<feGaussianBlur stdDeviation="3.45115"/>
<feComposite in2="hardAlpha" operator="out"/>
<feColorMatrix type="matrix" values="0 0 0 0 0 0 0 0 0 0 0 0 0 0 0 0 0 0 0.1 0"/>
<feBlend mode="normal" in2="BackgroundImageFix" result="effect1_dropShadow_2591_25168"/>
<feBlend mode="normal" in="SourceGraphic" in2="effect1_dropShadow_2591_25168" result="shape"/>
</filter>
</defs>
</svg>
