<svg width="342" height="229" viewBox="0 0 342 229" fill="none" xmlns="http://www.w3.org/2000/svg">
<g filter="url(#filter0_d_2591_25103)">
<rect x="7" y="6.0918" width="328" height="213.696" rx="4.14137" fill="white"/>
</g>
<path d="M291.315 125.846C292.073 125.846 292.614 125.697 292.938 125.399C293.27 125.1 293.436 124.7 293.436 124.197C293.436 123.874 293.368 123.601 293.232 123.379C293.096 123.158 292.917 122.983 292.695 122.856C292.474 122.719 292.214 122.626 291.916 122.574C291.626 122.515 291.328 122.485 291.021 122.485H290.714V121.514H291.136C291.349 121.514 291.566 121.492 291.788 121.45C292.018 121.407 292.227 121.331 292.414 121.22C292.602 121.109 292.755 120.96 292.874 120.773C292.993 120.577 293.053 120.334 293.053 120.044C293.053 119.806 293.01 119.601 292.925 119.431C292.84 119.26 292.725 119.12 292.58 119.009C292.444 118.898 292.282 118.822 292.095 118.779C291.916 118.728 291.724 118.702 291.52 118.702C291.111 118.702 290.761 118.762 290.472 118.881C290.191 119 289.952 119.124 289.756 119.252L289.296 118.344C289.398 118.276 289.526 118.204 289.679 118.127C289.841 118.042 290.02 117.965 290.216 117.897C290.412 117.829 290.621 117.774 290.842 117.731C291.072 117.68 291.311 117.654 291.558 117.654C292.026 117.654 292.431 117.714 292.772 117.833C293.113 117.944 293.394 118.106 293.615 118.319C293.837 118.523 294.003 118.77 294.114 119.06C294.224 119.341 294.28 119.648 294.28 119.98C294.28 120.44 294.148 120.836 293.884 121.169C293.62 121.492 293.3 121.739 292.925 121.91C293.155 121.978 293.377 122.076 293.59 122.204C293.803 122.332 293.986 122.493 294.139 122.689C294.301 122.885 294.429 123.111 294.523 123.367C294.625 123.622 294.676 123.908 294.676 124.223C294.676 124.606 294.608 124.964 294.472 125.296C294.344 125.62 294.139 125.901 293.858 126.14C293.586 126.378 293.24 126.566 292.823 126.702C292.406 126.838 291.911 126.907 291.341 126.907C291.119 126.907 290.889 126.889 290.651 126.855C290.421 126.821 290.203 126.779 289.999 126.728C289.794 126.677 289.615 126.625 289.462 126.574C289.309 126.523 289.198 126.481 289.13 126.446L289.36 125.411C289.505 125.48 289.743 125.569 290.076 125.68C290.416 125.79 290.829 125.846 291.315 125.846Z" fill="#414652"/>
<rect x="283.954" y="114.075" width="16.613" height="16.6129" rx="8.30645" stroke="#414652" stroke-width="1.27792"/>
<path d="M36.6336 31.817C36.6336 32.2901 36.6893 32.7168 36.8006 33.0972C36.9212 33.4775 37.0882 33.8068 37.3015 34.0851C37.5242 34.3542 37.7932 34.5629 38.1086 34.7113C38.424 34.8597 38.7858 34.9339 39.194 34.9339C39.5929 34.9339 39.95 34.8597 40.2654 34.7113C40.5901 34.5629 40.8592 34.3542 41.0725 34.0851C41.2952 33.8068 41.4621 33.4775 41.5735 33.0972C41.6941 32.7168 41.7544 32.2901 41.7544 31.817C41.7544 31.3438 41.6941 30.9171 41.5735 30.5368C41.4621 30.1471 41.2952 29.8178 41.0725 29.5488C40.8592 29.2705 40.5901 29.0571 40.2654 28.9087C39.95 28.7603 39.5929 28.6861 39.194 28.6861C38.7858 28.6861 38.424 28.7649 38.1086 28.9226C37.7932 29.071 37.5242 29.2844 37.3015 29.5627C37.0882 29.8317 36.9212 30.1611 36.8006 30.5507C36.6893 30.931 36.6336 31.3531 36.6336 31.817ZM43.9947 31.817C43.9947 32.6426 43.8695 33.3708 43.619 34.0016C43.3778 34.6232 43.0438 35.1473 42.6171 35.574C42.1904 35.9915 41.6802 36.3069 41.0864 36.5203C40.502 36.7336 39.8712 36.8403 39.194 36.8403C38.5353 36.8403 37.9138 36.7336 37.3294 36.5203C36.7449 36.3069 36.2347 35.9915 35.7987 35.574C35.3627 35.1473 35.0194 34.6232 34.769 34.0016C34.5185 33.3708 34.3933 32.6426 34.3933 31.817C34.3933 30.9913 34.5231 30.2677 34.7829 29.6462C35.0426 29.0154 35.3905 28.4866 35.8265 28.0599C36.2718 27.6331 36.782 27.3131 37.3572 27.0997C37.9416 26.8864 38.5539 26.7797 39.194 26.7797C39.8526 26.7797 40.4742 26.8864 41.0586 27.0997C41.643 27.3131 42.1533 27.6331 42.5893 28.0599C43.0253 28.4866 43.3685 29.0154 43.619 29.6462C43.8695 30.2677 43.9947 30.9913 43.9947 31.817ZM47.4323 32.9302C47.4323 33.5703 47.5761 34.0851 47.8636 34.4747C48.1512 34.8644 48.578 35.0592 49.1438 35.0592C49.3294 35.0592 49.501 35.0545 49.6587 35.0453C49.8164 35.0267 49.9463 35.0082 50.0483 34.9896V31.2186C49.9184 31.1351 49.7468 31.0655 49.5335 31.0099C49.3294 30.9542 49.1206 30.9264 48.9073 30.9264C47.9239 30.9264 47.4323 31.5943 47.4323 32.9302ZM52.1217 36.409C51.9361 36.4646 51.7228 36.5203 51.4816 36.5759C51.2404 36.6223 50.9853 36.6641 50.7162 36.7012C50.4565 36.7383 50.1875 36.7661 49.9092 36.7847C49.6401 36.8125 49.3804 36.8264 49.1299 36.8264C48.5269 36.8264 47.9889 36.7383 47.5158 36.562C47.0427 36.3858 46.6438 36.1353 46.3191 35.8106C45.9944 35.4766 45.7439 35.0777 45.5676 34.6139C45.4007 34.1408 45.3172 33.612 45.3172 33.0276C45.3172 32.4339 45.3914 31.9005 45.5398 31.4273C45.6882 30.9449 45.9016 30.5368 46.1799 30.2028C46.4582 29.8688 46.7968 29.6137 47.1957 29.4375C47.6039 29.2612 48.0677 29.1731 48.5872 29.1731C48.8748 29.1731 49.1299 29.2009 49.3526 29.2566C49.5845 29.3122 49.8164 29.3911 50.0483 29.4931V26.1813L52.1217 25.8474V36.409ZM55.8303 32.9302C55.8303 33.5703 55.9741 34.0851 56.2616 34.4747C56.5492 34.8644 56.9759 35.0592 57.5418 35.0592C57.7274 35.0592 57.899 35.0545 58.0567 35.0453C58.2144 35.0267 58.3443 35.0082 58.4463 34.9896V31.2186C58.3164 31.1351 58.1448 31.0655 57.9315 31.0099C57.7274 30.9542 57.5186 30.9264 57.3053 30.9264C56.3219 30.9264 55.8303 31.5943 55.8303 32.9302ZM60.5197 36.409C60.3341 36.4646 60.1208 36.5203 59.8796 36.5759C59.6384 36.6223 59.3833 36.6641 59.1142 36.7012C58.8545 36.7383 58.5855 36.7661 58.3072 36.7847C58.0381 36.8125 57.7784 36.8264 57.5279 36.8264C56.9249 36.8264 56.3869 36.7383 55.9138 36.562C55.4406 36.3858 55.0417 36.1353 54.7171 35.8106C54.3924 35.4766 54.1419 35.0777 53.9656 34.6139C53.7987 34.1408 53.7152 33.612 53.7152 33.0276C53.7152 32.4339 53.7894 31.9005 53.9378 31.4273C54.0862 30.9449 54.2996 30.5368 54.5779 30.2028C54.8562 29.8688 55.1948 29.6137 55.5937 29.4375C56.0019 29.2612 56.4657 29.1731 56.9852 29.1731C57.2728 29.1731 57.5279 29.2009 57.7506 29.2566C57.9825 29.3122 58.2144 29.3911 58.4463 29.4931V26.1813L60.5197 25.8474V36.409Z" fill="#414652"/>
<rect x="7.51245" y="56.9763" width="326.975" height="162.3" stroke="#ECECEC" stroke-width="1.0249"/>
<path d="M7 110.254H335" stroke="#ECECEC" stroke-width="1.0249"/>
<path d="M7 83.8486H335" stroke="#ECECEC" stroke-width="1.0249"/>
<path d="M7 136.659H335" stroke="#ECECEC" stroke-width="1.0249"/>
<path d="M7 163.065H335" stroke="#ECECEC" stroke-width="1.0249"/>
<path d="M7 189.471H335" stroke="#ECECEC" stroke-width="1.0249"/>
<path d="M62.178 56.4639L62.178 219.789" stroke="#ECECEC" stroke-width="1.0249"/>
<path d="M116.333 56.4639L116.333 219.789" stroke="#ECECEC" stroke-width="1.0249"/>
<path d="M170.489 56.4639L170.489 219.789" stroke="#ECECEC" stroke-width="1.0249"/>
<path d="M224.645 56.4639L224.645 219.789" stroke="#ECECEC" stroke-width="1.0249"/>
<path d="M278.801 56.4639L278.801 219.789" stroke="#ECECEC" stroke-width="1.0249"/>
<path d="M7 57.2256H335" stroke="#ECECEC" stroke-width="1.5302"/>
<path d="M44.7698 175.558L92.4789 111.45L139.691 150.71L172.491 94.0557L217.715 150.71L249.521 111.45L277.849 138.286" stroke="#A8A8A8" stroke-width="2.98181"/>
<path d="M279.836 134.31C279.836 137.054 277.611 139.279 274.866 139.279C272.122 139.279 269.897 137.054 269.897 134.31C269.897 131.565 272.122 129.34 274.866 129.34C277.611 129.34 279.836 131.565 279.836 134.31Z" fill="#FF444F"/>
<path d="M265.392 154.255V145.989H270.437V146.979H266.549V149.436H270.008V150.402H266.549V153.265H270.736V154.255H265.392ZM272.135 148.232C272.389 148.168 272.727 148.1 273.148 148.029C273.57 147.957 274.055 147.922 274.603 147.922C275.096 147.922 275.506 147.993 275.832 148.136C276.158 148.271 276.416 148.466 276.607 148.721C276.806 148.967 276.945 149.265 277.025 149.615C277.104 149.965 277.144 150.351 277.144 150.772V154.255H276.035V151.011C276.035 150.629 276.007 150.303 275.951 150.033C275.904 149.762 275.82 149.544 275.701 149.377C275.582 149.21 275.422 149.09 275.224 149.019C275.025 148.939 274.778 148.9 274.484 148.9C274.365 148.9 274.242 148.904 274.114 148.911C273.987 148.919 273.864 148.931 273.745 148.947C273.633 148.955 273.53 148.967 273.435 148.983C273.347 148.999 273.284 149.011 273.244 149.019V154.255H272.135V148.232ZM282.991 149.365C282.856 149.253 282.661 149.146 282.407 149.043C282.152 148.939 281.874 148.888 281.572 148.888C281.254 148.888 280.979 148.947 280.749 149.067C280.526 149.178 280.343 149.337 280.2 149.544C280.057 149.742 279.953 149.981 279.89 150.259C279.826 150.538 279.794 150.836 279.794 151.154C279.794 151.877 279.973 152.438 280.331 152.836C280.689 153.225 281.166 153.42 281.762 153.42C282.065 153.42 282.315 153.408 282.514 153.384C282.721 153.352 282.88 153.321 282.991 153.289V149.365ZM282.991 145.19L284.1 144.999V154.076C283.846 154.148 283.52 154.219 283.122 154.291C282.725 154.362 282.267 154.398 281.751 154.398C281.273 154.398 280.844 154.322 280.462 154.171C280.081 154.02 279.755 153.806 279.484 153.527C279.214 153.249 279.003 152.911 278.852 152.514C278.709 152.108 278.637 151.655 278.637 151.154C278.637 150.677 278.697 150.239 278.816 149.842C278.944 149.444 279.127 149.102 279.365 148.816C279.604 148.53 279.894 148.307 280.236 148.148C280.586 147.989 280.983 147.91 281.428 147.91C281.786 147.91 282.1 147.957 282.371 148.053C282.649 148.148 282.856 148.24 282.991 148.327V145.19Z" fill="#414652"/>
<path d="M52.2243 175.061C52.2243 179.452 48.6643 183.012 44.2728 183.012C39.8813 183.012 36.3213 179.452 36.3213 175.061C36.3213 170.669 39.8813 167.109 44.2728 167.109C48.6643 167.109 52.2243 170.669 52.2243 175.061Z" fill="#FF444F"/>
<path d="M33.7187 197.165C34.9274 197.165 35.5317 196.752 35.5317 195.925C35.5317 195.67 35.476 195.456 35.3647 195.281C35.2613 195.098 35.1182 194.943 34.9353 194.816C34.7524 194.68 34.5417 194.565 34.3032 194.47C34.0726 194.374 33.8261 194.279 33.5637 194.183C33.2615 194.08 32.9753 193.965 32.7049 193.838C32.4346 193.702 32.2 193.547 32.0012 193.372C31.8024 193.19 31.6434 192.975 31.5241 192.728C31.4128 192.482 31.3571 192.184 31.3571 191.834C31.3571 191.11 31.6036 190.546 32.0966 190.14C32.5896 189.735 33.2695 189.532 34.1362 189.532C34.6371 189.532 35.0904 189.588 35.4959 189.699C35.9094 189.802 36.2115 189.918 36.4024 190.045L36.0326 190.987C35.8656 190.884 35.6152 190.784 35.2812 190.689C34.9552 190.585 34.5735 190.534 34.1362 190.534C33.9135 190.534 33.7068 190.558 33.516 190.605C33.3251 190.653 33.1582 190.725 33.015 190.82C32.8719 190.915 32.7566 191.039 32.6691 191.19C32.5896 191.333 32.5499 191.504 32.5499 191.703C32.5499 191.925 32.5936 192.112 32.6811 192.263C32.7685 192.414 32.8918 192.549 33.0508 192.669C33.2098 192.78 33.3927 192.883 33.5995 192.979C33.8142 193.074 34.0487 193.17 34.3032 193.265C34.661 193.408 34.987 193.551 35.2812 193.694C35.5834 193.838 35.8418 194.009 36.0565 194.207C36.2791 194.406 36.4501 194.645 36.5693 194.923C36.6886 195.193 36.7483 195.523 36.7483 195.913C36.7483 196.637 36.4819 197.193 35.9491 197.583C35.4243 197.972 34.6809 198.167 33.7187 198.167C33.3927 198.167 33.0906 198.143 32.8123 198.096C32.5419 198.056 32.2994 198.008 32.0847 197.952C31.87 197.889 31.6832 197.825 31.5241 197.762C31.373 197.69 31.2538 197.63 31.1663 197.583L31.5122 196.629C31.6951 196.732 31.9734 196.847 32.3471 196.974C32.7208 197.102 33.178 197.165 33.7187 197.165ZM39.1126 191.786H41.4622V192.716H39.1126V195.579C39.1126 195.889 39.1364 196.148 39.1841 196.354C39.2318 196.553 39.3034 196.712 39.3988 196.831C39.4942 196.943 39.6135 197.022 39.7566 197.07C39.8998 197.118 40.0667 197.141 40.2576 197.141C40.5915 197.141 40.8579 197.106 41.0567 197.034C41.2634 196.955 41.4066 196.899 41.4861 196.867L41.7008 197.786C41.5894 197.841 41.3946 197.909 41.1163 197.988C40.838 198.076 40.52 198.119 40.1621 198.119C39.7407 198.119 39.3909 198.068 39.1126 197.964C38.8422 197.853 38.6235 197.69 38.4566 197.475C38.2896 197.261 38.1703 196.998 38.0987 196.688C38.0351 196.37 38.0033 196.004 38.0033 195.591V190.057L39.1126 189.866V191.786ZM44.9729 197.189C45.2353 197.189 45.4659 197.185 45.6647 197.177C45.8714 197.161 46.0424 197.137 46.1776 197.106V195.257C46.0981 195.217 45.9669 195.185 45.784 195.162C45.609 195.13 45.3944 195.114 45.1399 195.114C44.9729 195.114 44.794 195.126 44.6032 195.15C44.4203 195.173 44.2493 195.225 44.0903 195.305C43.9392 195.376 43.812 195.48 43.7086 195.615C43.6053 195.742 43.5536 195.913 43.5536 196.128C43.5536 196.525 43.6808 196.804 43.9353 196.963C44.1897 197.114 44.5356 197.189 44.9729 197.189ZM44.8775 191.631C45.3228 191.631 45.6965 191.691 45.9987 191.81C46.3088 191.921 46.5553 192.084 46.7382 192.299C46.929 192.506 47.0642 192.756 47.1437 193.05C47.2232 193.337 47.263 193.655 47.263 194.005V197.881C47.1675 197.897 47.0324 197.921 46.8574 197.952C46.6905 197.976 46.4996 198 46.2849 198.024C46.0702 198.048 45.8357 198.068 45.5812 198.084C45.3347 198.108 45.0882 198.119 44.8417 198.119C44.4919 198.119 44.1698 198.084 43.8756 198.012C43.5814 197.941 43.327 197.829 43.1123 197.678C42.8976 197.519 42.7306 197.312 42.6113 197.058C42.4921 196.804 42.4324 196.497 42.4324 196.14C42.4324 195.798 42.5 195.503 42.6352 195.257C42.7783 195.01 42.9692 194.812 43.2077 194.661C43.4462 194.51 43.7245 194.398 44.0426 194.327C44.3607 194.255 44.6946 194.219 45.0445 194.219C45.1558 194.219 45.2711 194.227 45.3904 194.243C45.5097 194.251 45.621 194.267 45.7243 194.291C45.8357 194.307 45.9311 194.323 46.0106 194.339C46.0901 194.354 46.1458 194.366 46.1776 194.374V194.064C46.1776 193.881 46.1577 193.702 46.1179 193.527C46.0782 193.345 46.0066 193.186 45.9033 193.05C45.7999 192.907 45.6568 192.796 45.4739 192.716C45.2989 192.629 45.0683 192.585 44.7821 192.585C44.4163 192.585 44.0943 192.613 43.816 192.669C43.5456 192.716 43.3429 192.768 43.2077 192.824L43.0765 191.905C43.2196 191.842 43.4582 191.782 43.7921 191.726C44.1261 191.663 44.4879 191.631 44.8775 191.631ZM51.3953 191.655C51.4907 191.655 51.598 191.663 51.7173 191.679C51.8445 191.687 51.9678 191.703 52.0871 191.726C52.2063 191.742 52.3137 191.762 52.4091 191.786C52.5125 191.802 52.588 191.818 52.6357 191.834L52.4449 192.8C52.3574 192.768 52.2103 192.732 52.0036 192.693C51.8048 192.645 51.5464 192.621 51.2283 192.621C51.0216 192.621 50.8148 192.645 50.6081 192.693C50.4093 192.732 50.2781 192.76 50.2145 192.776V197.988H49.1053V192.049C49.3677 191.953 49.6937 191.866 50.0833 191.786C50.4729 191.699 50.9102 191.655 51.3953 191.655ZM54.7438 191.786H57.0934V192.716H54.7438V195.579C54.7438 195.889 54.7676 196.148 54.8153 196.354C54.863 196.553 54.9346 196.712 55.03 196.831C55.1254 196.943 55.2447 197.022 55.3878 197.07C55.531 197.118 55.6979 197.141 55.8888 197.141C56.2227 197.141 56.4891 197.106 56.6879 197.034C56.8946 196.955 57.0378 196.899 57.1173 196.867L57.332 197.786C57.2207 197.841 57.0258 197.909 56.7475 197.988C56.4692 198.076 56.1512 198.119 55.7934 198.119C55.3719 198.119 55.0221 198.068 54.7438 197.964C54.4734 197.853 54.2547 197.69 54.0878 197.475C53.9208 197.261 53.8015 196.998 53.7299 196.688C53.6663 196.37 53.6345 196.004 53.6345 195.591V190.057L54.7438 189.866V191.786Z" fill="#414652"/>
<rect x="127.267" y="14.043" width="81.503" height="33.7938" rx="15.903" fill="#00A79E"/>
<path d="M159.788 27.1502C159.915 27.5849 160.053 28.0779 160.202 28.6292C160.361 29.1699 160.525 29.7318 160.695 30.3149C160.875 30.898 161.055 31.4811 161.235 32.0642C161.416 32.6473 161.591 33.188 161.76 33.6863C161.898 33.1456 162.036 32.5572 162.174 31.9211C162.322 31.285 162.46 30.6276 162.587 29.9491C162.714 29.2706 162.836 28.5974 162.953 27.9294C163.08 27.2509 163.197 26.5989 163.303 25.9734H165.879C165.508 27.8181 165.079 29.6894 164.591 31.5871C164.114 33.4849 163.594 35.2872 163.032 36.9941H160.758C160.387 35.9763 160.027 34.9108 159.677 33.7976C159.327 32.6738 158.982 31.55 158.643 30.4262C158.304 31.55 157.965 32.6738 157.625 33.7976C157.286 34.9108 156.931 35.9763 156.56 36.9941H154.286C153.724 35.2872 153.199 33.4849 152.711 31.5871C152.234 29.6894 151.81 27.8181 151.439 25.9734H154.127C154.233 26.5989 154.349 27.2509 154.477 27.9294C154.604 28.5974 154.736 29.2706 154.874 29.9491C155.012 30.6276 155.15 31.285 155.288 31.9211C155.436 32.5572 155.585 33.1456 155.733 33.6863C155.924 33.1668 156.109 32.6155 156.29 32.0324C156.47 31.4493 156.645 30.8662 156.814 30.2831C156.984 29.7 157.138 29.1381 157.276 28.5974C157.424 28.0567 157.557 27.5743 157.673 27.1502H159.788ZM169.684 36.9941H167.314V28.6292H169.684V36.9941ZM169.906 26.2119C169.906 26.6466 169.763 26.9912 169.477 27.2456C169.201 27.4895 168.873 27.6114 168.491 27.6114C168.109 27.6114 167.775 27.4895 167.489 27.2456C167.213 26.9912 167.076 26.6466 167.076 26.2119C167.076 25.7772 167.213 25.438 167.489 25.1941C167.775 24.9397 168.109 24.8124 168.491 24.8124C168.873 24.8124 169.201 24.9397 169.477 25.1941C169.763 25.438 169.906 25.7772 169.906 26.2119ZM171.911 28.9154C172.314 28.7988 172.834 28.6928 173.47 28.5974C174.106 28.4913 174.774 28.4383 175.473 28.4383C176.184 28.4383 176.772 28.5337 177.239 28.7246C177.716 28.9048 178.092 29.1646 178.368 29.5038C178.643 29.8431 178.84 30.246 178.956 30.7125C179.073 31.1789 179.131 31.6984 179.131 32.271V36.9941H176.762V32.5572C176.762 31.7939 176.661 31.2532 176.459 30.9351C176.258 30.617 175.882 30.458 175.33 30.458C175.161 30.458 174.98 30.4686 174.79 30.4898C174.599 30.5004 174.429 30.5163 174.281 30.5375V36.9941H171.911V28.9154ZM183.709 28.82C183.709 29.6788 183.677 30.4792 183.614 31.2214C183.55 31.9635 183.465 32.7162 183.359 33.4796H181.546C181.44 32.7162 181.35 31.9635 181.276 31.2214C181.212 30.4792 181.18 29.6788 181.18 28.82V25.9734H183.709V28.82ZM183.916 35.7378C183.916 36.2043 183.762 36.5648 183.455 36.8192C183.158 37.0737 182.818 37.2009 182.437 37.2009C182.055 37.2009 181.711 37.0737 181.403 36.8192C181.106 36.5648 180.958 36.2043 180.958 35.7378C180.958 35.2713 181.106 34.9108 181.403 34.6564C181.711 34.402 182.055 34.2747 182.437 34.2747C182.818 34.2747 183.158 34.402 183.455 34.6564C183.762 34.9108 183.916 35.2713 183.916 35.7378Z" fill="white"/>
<defs>
<filter id="filter0_d_2591_25103" x="0.0977178" y="0.569971" width="341.805" height="227.501" filterUnits="userSpaceOnUse" color-interpolation-filters="sRGB">
<feFlood flood-opacity="0" result="BackgroundImageFix"/>
<feColorMatrix in="SourceAlpha" type="matrix" values="0 0 0 0 0 0 0 0 0 0 0 0 0 0 0 0 0 0 127 0" result="hardAlpha"/>
<feOffset dy="1.38046"/>
<feGaussianBlur stdDeviation="3.45114"/>
<feComposite in2="hardAlpha" operator="out"/>
<feColorMatrix type="matrix" values="0 0 0 0 0 0 0 0 0 0 0 0 0 0 0 0 0 0 0.1 0"/>
<feBlend mode="normal" in2="BackgroundImageFix" result="effect1_dropShadow_2591_25103"/>
<feBlend mode="normal" in="SourceGraphic" in2="effect1_dropShadow_2591_25103" result="shape"/>
</filter>
</defs>
</svg>
