<svg width="33" height="33" viewBox="0 0 33 33" fill="none" xmlns="http://www.w3.org/2000/svg">
<rect x="0.5" y="0.788086" width="32" height="32" rx="16" fill="#F9F9F9"/>
<g clip-path="url(#clip0_2591_25163)">
<path d="M8.56366 19.7879L7.36966 20.9879H5.65186L6.85186 19.7879H8.56366ZM13.7003 12.5879C14.363 12.5879 14.9003 13.1251 14.9003 13.7879V17.3879H14.8943C14.2348 17.3879 13.7003 16.8533 13.7003 16.1939V14.6339L10.1003 18.2459V16.5395L12.8519 13.7879H11.2943C10.6348 13.7879 10.1003 13.2533 10.1003 12.5939V12.5879H13.7003Z" fill="#FF444F"/>
<path d="M14.9003 18.5879H5.30029V19.7879H14.9003V18.5879Z" fill="#414652"/>
</g>
<g clip-path="url(#clip1_2591_25163)">
<path d="M22.9005 15.3299L26.5005 18.9419V17.3819C26.5005 16.7225 27.0351 16.1879 27.6945 16.1879H27.7005V19.7879C27.7005 20.4506 27.1633 20.9879 26.5005 20.9879H22.9005V20.9819C22.9005 20.3225 23.4351 19.7879 24.0945 19.7879H25.6521L22.9005 17.0363V15.3299ZM20.1699 12.5879L21.3639 13.7879H19.6521L18.4521 12.5879H20.1699Z" fill="#FF444F"/>
<path d="M27.7006 13.7881H18.1006V14.9881H27.7006V13.7881Z" fill="#414652"/>
</g>
<defs>
<clipPath id="clip0_2591_25163">
<rect width="9.6" height="9.6" fill="white" transform="translate(5.30005 11.9883)"/>
</clipPath>
<clipPath id="clip1_2591_25163">
<rect width="9.6" height="9.6" fill="white" transform="translate(18.1001 11.9883)"/>
</clipPath>
</defs>
</svg>
