<svg width="342" height="228" viewBox="0 0 342 228" fill="none" xmlns="http://www.w3.org/2000/svg">
<g filter="url(#filter0_d_2591_24981)">
<rect x="7" y="5.69727" width="328" height="213.697" rx="4.14138" fill="white"/>
</g>
<path d="M36.981 34.4828C37.083 34.4921 37.199 34.5013 37.3289 34.5106C37.468 34.5106 37.6304 34.5106 37.8159 34.5106C38.9013 34.5106 39.7037 34.2369 40.2232 33.6896C40.752 33.1423 41.0164 32.3862 41.0164 31.4214C41.0164 30.4103 40.7659 29.6449 40.265 29.1254C39.764 28.6059 38.9709 28.3462 37.8855 28.3462C37.7371 28.3462 37.584 28.3508 37.4263 28.3601C37.2686 28.3601 37.1201 28.3694 36.981 28.3879V34.4828ZM43.2567 31.4214C43.2567 32.2564 43.1269 32.9846 42.8671 33.6061C42.6074 34.2277 42.2363 34.7425 41.7539 35.1507C41.2808 35.5589 40.701 35.865 40.0145 36.0691C39.328 36.2732 38.558 36.3752 37.7046 36.3752C37.315 36.3752 36.8604 36.3567 36.3409 36.3196C35.8214 36.2917 35.3112 36.2268 34.8102 36.1248V26.732C35.3112 26.6393 35.8307 26.579 36.3687 26.5511C36.9161 26.514 37.3845 26.4955 37.7742 26.4955C38.5998 26.4955 39.3466 26.5882 40.0145 26.7738C40.6917 26.9593 41.2715 27.2515 41.7539 27.6504C42.2363 28.0493 42.6074 28.5596 42.8671 29.1811C43.1269 29.8026 43.2567 30.5494 43.2567 31.4214ZM47.0041 36.25H44.9308V28.9306H47.0041V36.25ZM47.199 26.8155C47.199 27.1959 47.0737 27.4974 46.8232 27.72C46.5821 27.9334 46.2945 28.0401 45.9605 28.0401C45.6265 28.0401 45.3343 27.9334 45.0839 27.72C44.8427 27.4974 44.7221 27.1959 44.7221 26.8155C44.7221 26.4352 44.8427 26.1383 45.0839 25.925C45.3343 25.7023 45.6265 25.591 45.9605 25.591C46.2945 25.591 46.5821 25.7023 46.8232 25.925C47.0737 26.1383 47.199 26.4352 47.199 26.8155ZM52.1258 25.4518C52.5154 25.4518 52.8726 25.4936 53.1973 25.5771C53.5219 25.6513 53.7724 25.7255 53.9487 25.7997L53.5451 27.4556C53.3596 27.3721 53.1555 27.3118 52.9329 27.2747C52.7195 27.2283 52.5201 27.2052 52.3345 27.2052C52.084 27.2052 51.8707 27.2423 51.6944 27.3165C51.5274 27.3814 51.3929 27.4742 51.2909 27.5948C51.1981 27.7154 51.1285 27.8592 51.0822 28.0261C51.045 28.1931 51.0265 28.374 51.0265 28.5688V28.9306H53.5869V30.6561H51.0265V36.25H48.9531V28.541C48.9531 27.5948 49.2175 26.8434 49.7463 26.2868C50.2844 25.7301 51.0775 25.4518 52.1258 25.4518ZM57.9562 25.4518C58.3459 25.4518 58.703 25.4936 59.0277 25.5771C59.3524 25.6513 59.6029 25.7255 59.7791 25.7997L59.3756 27.4556C59.1901 27.3721 58.986 27.3118 58.7633 27.2747C58.55 27.2283 58.3505 27.2052 58.165 27.2052C57.9145 27.2052 57.7011 27.2423 57.5249 27.3165C57.3579 27.3814 57.2234 27.4742 57.1213 27.5948C57.0286 27.7154 56.959 27.8592 56.9126 28.0261C56.8755 28.1931 56.8569 28.374 56.8569 28.5688V28.9306H59.4173V30.6561H56.8569V36.25H54.7836V28.541C54.7836 27.5948 55.048 26.8434 55.5767 26.2868C56.1148 25.7301 56.908 25.4518 57.9562 25.4518ZM60.1967 32.646C60.1967 31.9966 60.2941 31.4307 60.4889 30.9483C60.693 30.4567 60.9574 30.0485 61.2821 29.7238C61.6068 29.3991 61.9778 29.1533 62.3953 28.9863C62.822 28.8193 63.258 28.7358 63.7033 28.7358C64.7423 28.7358 65.5633 29.0559 66.1663 29.696C66.7693 30.3268 67.0708 31.2591 67.0708 32.4929C67.0708 32.6135 67.0661 32.748 67.0569 32.8964C67.0476 33.0356 67.0383 33.1608 67.029 33.2722H62.3257C62.3721 33.6989 62.5715 34.0375 62.9241 34.288C63.2766 34.5384 63.7497 34.6637 64.3434 34.6637C64.7238 34.6637 65.0948 34.6312 65.4566 34.5663C65.8277 34.4921 66.1292 34.4039 66.3611 34.3019L66.6394 35.9856C66.5281 36.0413 66.3797 36.0969 66.1941 36.1526C66.0086 36.2083 65.7999 36.2546 65.5679 36.2917C65.3453 36.3381 65.1041 36.3752 64.8443 36.4031C64.5846 36.4309 64.3249 36.4448 64.0651 36.4448C63.4065 36.4448 62.8313 36.3474 62.3396 36.1526C61.8572 35.9578 61.4537 35.6934 61.129 35.3594C60.8136 35.0162 60.577 34.6127 60.4193 34.1488C60.2709 33.685 60.1967 33.184 60.1967 32.646ZM65.067 31.8528C65.0577 31.6766 65.0252 31.5049 64.9696 31.338C64.9232 31.171 64.8443 31.0225 64.733 30.8927C64.631 30.7628 64.4965 30.6561 64.3295 30.5726C64.1718 30.4891 63.9723 30.4474 63.7311 30.4474C63.4992 30.4474 63.2998 30.4891 63.1328 30.5726C62.9658 30.6468 62.8267 30.7489 62.7153 30.8788C62.604 31.0086 62.5159 31.1617 62.4509 31.338C62.3953 31.5049 62.3535 31.6766 62.3257 31.8528H65.067ZM73.0819 30.7674C72.8964 30.721 72.6784 30.6747 72.4279 30.6283C72.1774 30.5726 71.9084 30.5448 71.6208 30.5448C71.4909 30.5448 71.3332 30.5587 71.1477 30.5865C70.9714 30.6051 70.8369 30.6283 70.7442 30.6561V36.25H68.6708V29.3203C69.0419 29.1904 69.4779 29.0698 69.9788 28.9585C70.489 28.8379 71.0549 28.7776 71.6765 28.7776C71.7878 28.7776 71.9223 28.7868 72.08 28.8054C72.2377 28.8147 72.3954 28.8332 72.5531 28.8611C72.7108 28.8796 72.8685 28.9074 73.0262 28.9445C73.1839 28.9724 73.3185 29.0095 73.4298 29.0559L73.0819 30.7674ZM76.6424 34.7611C77.0228 34.7611 77.2918 34.724 77.4495 34.6498C77.6072 34.5755 77.6861 34.4318 77.6861 34.2184C77.6861 34.0514 77.584 33.9076 77.3799 33.787C77.1759 33.6571 76.8651 33.5134 76.4476 33.3556C76.1229 33.2351 75.8261 33.1098 75.5571 32.9799C75.2973 32.8501 75.0747 32.697 74.8891 32.5207C74.7036 32.3352 74.5598 32.1172 74.4578 31.8667C74.3557 31.6163 74.3047 31.3148 74.3047 30.9622C74.3047 30.2758 74.5598 29.7331 75.07 29.3342C75.5803 28.9353 76.2806 28.7358 77.1712 28.7358C77.6165 28.7358 78.0432 28.7776 78.4514 28.8611C78.8596 28.9353 79.1843 29.0188 79.4255 29.1115L79.0637 30.7257C78.8225 30.6422 78.5581 30.568 78.2705 30.503C77.9922 30.4381 77.6768 30.4056 77.3243 30.4056C76.6749 30.4056 76.3502 30.5865 76.3502 30.9483C76.3502 31.0318 76.3641 31.106 76.392 31.171C76.4198 31.2359 76.4755 31.3008 76.5589 31.3658C76.6424 31.4214 76.7538 31.4864 76.8929 31.5606C77.0413 31.6255 77.2269 31.6997 77.4495 31.7832C77.9041 31.9502 78.2798 32.1172 78.5766 32.2842C78.8735 32.4419 79.1054 32.6181 79.2724 32.813C79.4487 32.9985 79.5693 33.2072 79.6342 33.4391C79.7084 33.6711 79.7455 33.9401 79.7455 34.2462C79.7455 34.9698 79.4719 35.5171 78.9245 35.8882C78.3865 36.2593 77.6211 36.4448 76.6285 36.4448C75.9792 36.4448 75.4365 36.3892 75.0005 36.2778C74.5737 36.1665 74.2769 36.0737 74.1099 35.9995L74.4578 34.3158C74.8103 34.4549 75.1721 34.5663 75.5431 34.6498C75.9142 34.724 76.2806 34.7611 76.6424 34.7611Z" fill="#414652"/>
<path d="M223.725 32.7443V33.582H219.567V26.6711H220.534V32.7443H223.725ZM226.433 32.9139C226.653 32.9139 226.845 32.9105 227.012 32.9039C227.185 32.8906 227.327 32.8707 227.44 32.8441V31.2983C227.374 31.2651 227.264 31.2385 227.111 31.2185C226.965 31.1919 226.786 31.1787 226.573 31.1787C226.433 31.1787 226.284 31.1886 226.124 31.2086C225.971 31.2285 225.828 31.2717 225.695 31.3382C225.569 31.398 225.463 31.4845 225.376 31.5975C225.29 31.7039 225.247 31.8468 225.247 32.0263C225.247 32.3587 225.353 32.5914 225.566 32.7244C225.778 32.8507 226.068 32.9139 226.433 32.9139ZM226.353 28.2667C226.726 28.2667 227.038 28.3165 227.291 28.4163C227.55 28.5093 227.756 28.6456 227.909 28.8251C228.069 28.998 228.182 29.2074 228.248 29.4534C228.315 29.6927 228.348 29.9587 228.348 30.2512V33.4923C228.268 33.5056 228.155 33.5255 228.009 33.5521C227.869 33.5721 227.71 33.592 227.53 33.6119C227.351 33.6319 227.155 33.6485 226.942 33.6618C226.736 33.6818 226.53 33.6917 226.324 33.6917C226.031 33.6917 225.762 33.6618 225.516 33.602C225.27 33.5421 225.057 33.4491 224.878 33.3227C224.698 33.1898 224.558 33.0169 224.459 32.8042C224.359 32.5914 224.309 32.3355 224.309 32.0363C224.309 31.7504 224.366 31.5044 224.479 31.2983C224.598 31.0922 224.758 30.926 224.957 30.7997C225.157 30.6734 225.389 30.5803 225.655 30.5205C225.921 30.4606 226.201 30.4307 226.493 30.4307C226.586 30.4307 226.683 30.4374 226.782 30.4507C226.882 30.4573 226.975 30.4706 227.062 30.4905C227.155 30.5038 227.234 30.5171 227.301 30.5304C227.367 30.5437 227.414 30.5537 227.44 30.5604V30.3011C227.44 30.1482 227.424 29.9986 227.391 29.8523C227.357 29.6994 227.298 29.5664 227.211 29.4534C227.125 29.3337 227.005 29.2407 226.852 29.1742C226.706 29.101 226.513 29.0645 226.274 29.0645C225.968 29.0645 225.699 29.0877 225.466 29.1343C225.24 29.1742 225.07 29.2174 224.957 29.2639L224.848 28.496C224.967 28.4429 225.167 28.393 225.446 28.3465C225.725 28.2933 226.028 28.2667 226.353 28.2667ZM231.095 32.9139C231.474 32.9139 231.753 32.864 231.933 32.7643C232.119 32.6646 232.212 32.505 232.212 32.2856C232.212 32.0596 232.122 31.8801 231.943 31.7471C231.763 31.6141 231.467 31.4645 231.055 31.2983C230.856 31.2185 230.663 31.1388 230.477 31.059C230.297 30.9726 230.141 30.8728 230.008 30.7598C229.875 30.6468 229.769 30.5105 229.689 30.3509C229.609 30.1914 229.569 29.9952 229.569 29.7626C229.569 29.3038 229.739 28.9415 230.078 28.6755C230.417 28.403 230.879 28.2667 231.464 28.2667C231.61 28.2667 231.757 28.2766 231.903 28.2966C232.049 28.3099 232.185 28.3298 232.312 28.3564C232.438 28.3764 232.548 28.3996 232.641 28.4262C232.74 28.4528 232.817 28.4761 232.87 28.496L232.701 29.2938C232.601 29.2407 232.445 29.1875 232.232 29.1343C232.019 29.0744 231.763 29.0445 231.464 29.0445C231.205 29.0445 230.979 29.0977 230.786 29.2041C230.593 29.3038 230.497 29.4634 230.497 29.6828C230.497 29.7958 230.517 29.8955 230.557 29.9819C230.603 30.0684 230.67 30.1482 230.756 30.2213C230.849 30.2878 230.962 30.3509 231.095 30.4108C231.228 30.4706 231.388 30.5338 231.574 30.6002C231.82 30.6933 232.039 30.7864 232.232 30.8795C232.425 30.9659 232.588 31.069 232.721 31.1886C232.86 31.3083 232.967 31.4546 233.04 31.6274C233.113 31.7936 233.149 31.9997 233.149 32.2457C233.149 32.7244 232.97 33.0867 232.611 33.3327C232.258 33.5787 231.753 33.7017 231.095 33.7017C230.636 33.7017 230.277 33.6618 230.018 33.582C229.759 33.5089 229.583 33.4524 229.489 33.4125L229.659 32.6147C229.765 32.6546 229.935 32.7144 230.168 32.7942C230.4 32.874 230.709 32.9139 231.095 32.9139ZM235.207 28.3963H237.171V29.1742H235.207V31.5676C235.207 31.8269 235.227 32.0429 235.266 32.2158C235.306 32.382 235.366 32.515 235.446 32.6147C235.526 32.7078 235.625 32.7743 235.745 32.8141C235.865 32.854 236.004 32.874 236.164 32.874C236.443 32.874 236.666 32.8441 236.832 32.7842C237.005 32.7177 237.125 32.6712 237.191 32.6446L237.371 33.4125C237.278 33.459 237.115 33.5155 236.882 33.582C236.649 33.6552 236.383 33.6917 236.084 33.6917C235.732 33.6917 235.439 33.6485 235.207 33.5621C234.981 33.469 234.798 33.3327 234.658 33.1532C234.518 32.9737 234.419 32.7543 234.359 32.495C234.306 32.2291 234.279 31.9233 234.279 31.5776V26.9503L235.207 26.7907V28.3963ZM244.01 29.4933C243.897 29.4002 243.734 29.3105 243.522 29.224C243.309 29.1376 243.076 29.0944 242.823 29.0944C242.558 29.0944 242.328 29.1443 242.135 29.244C241.949 29.3371 241.796 29.47 241.677 29.6429C241.557 29.8091 241.471 30.0085 241.417 30.2412C241.364 30.4739 241.338 30.7232 241.338 30.9892C241.338 31.5942 241.487 32.0629 241.786 32.3953C242.086 32.7211 242.484 32.884 242.983 32.884C243.236 32.884 243.445 32.874 243.611 32.854C243.784 32.8274 243.917 32.8009 244.01 32.7743V29.4933ZM244.01 26.0029L244.938 25.8434V33.4324C244.725 33.4923 244.452 33.5521 244.12 33.6119C243.787 33.6718 243.405 33.7017 242.973 33.7017C242.574 33.7017 242.215 33.6385 241.896 33.5122C241.577 33.3859 241.304 33.2064 241.078 32.9737C240.852 32.741 240.676 32.4585 240.55 32.126C240.43 31.787 240.37 31.408 240.37 30.9892C240.37 30.5903 240.42 30.2246 240.52 29.8922C240.626 29.5598 240.779 29.2739 240.979 29.0346C241.178 28.7952 241.421 28.6091 241.707 28.4761C241.999 28.3431 242.332 28.2766 242.704 28.2766C243.003 28.2766 243.266 28.3165 243.492 28.3963C243.724 28.4761 243.897 28.5526 244.01 28.6257V26.0029ZM247.459 33.582H246.532V28.3963H247.459V33.582ZM246.991 27.4589C246.824 27.4589 246.682 27.4057 246.562 27.2993C246.449 27.1863 246.392 27.0367 246.392 26.8506C246.392 26.6644 246.449 26.5182 246.562 26.4118C246.682 26.2988 246.824 26.2423 246.991 26.2423C247.157 26.2423 247.297 26.2988 247.41 26.4118C247.529 26.5182 247.589 26.6644 247.589 26.8506C247.589 27.0367 247.529 27.1863 247.41 27.2993C247.297 27.4057 247.157 27.4589 246.991 27.4589ZM252.305 33.0635C252.226 33.1166 252.069 33.1865 251.837 33.2729C251.611 33.3527 251.345 33.3926 251.039 33.3926C250.726 33.3926 250.43 33.3427 250.151 33.243C249.879 33.1432 249.639 32.9903 249.433 32.7842C249.227 32.5715 249.064 32.3089 248.945 31.9964C248.825 31.6839 248.765 31.3116 248.765 30.8795C248.765 30.5005 248.822 30.1548 248.935 29.8423C249.048 29.5232 249.211 29.2506 249.423 29.0246C249.643 28.7919 249.909 28.6124 250.221 28.4861C250.534 28.3531 250.886 28.2866 251.278 28.2866C251.71 28.2866 252.086 28.3199 252.405 28.3863C252.731 28.4462 253.003 28.5027 253.223 28.5559V33.1831C253.223 33.9809 253.017 34.5593 252.605 34.9183C252.192 35.2774 251.567 35.4569 250.73 35.4569C250.404 35.4569 250.095 35.4303 249.802 35.3771C249.516 35.3239 249.267 35.2607 249.054 35.1876L249.224 34.3798C249.41 34.453 249.636 34.5161 249.902 34.5693C250.175 34.6291 250.457 34.6591 250.75 34.6591C251.301 34.6591 251.697 34.5494 251.936 34.33C252.182 34.1106 252.305 33.7615 252.305 33.2829V33.0635ZM252.295 29.2141C252.202 29.1875 252.076 29.1642 251.916 29.1443C251.763 29.1177 251.554 29.1044 251.288 29.1044C250.79 29.1044 250.404 29.2673 250.131 29.593C249.865 29.9188 249.732 30.3509 249.732 30.8894C249.732 31.1886 249.769 31.4446 249.842 31.6573C249.922 31.8701 250.025 32.0463 250.151 32.1859C250.284 32.3255 250.434 32.4285 250.6 32.495C250.773 32.5615 250.949 32.5948 251.129 32.5948C251.375 32.5948 251.601 32.5615 251.807 32.495C252.013 32.4219 252.176 32.3388 252.295 32.2457V29.2141ZM255.747 33.582H254.82V28.3963H255.747V33.582ZM255.278 27.4589C255.112 27.4589 254.969 27.4057 254.85 27.2993C254.737 27.1863 254.68 27.0367 254.68 26.8506C254.68 26.6644 254.737 26.5182 254.85 26.4118C254.969 26.2988 255.112 26.2423 255.278 26.2423C255.445 26.2423 255.584 26.2988 255.697 26.4118C255.817 26.5182 255.877 26.6644 255.877 26.8506C255.877 27.0367 255.817 27.1863 255.697 27.2993C255.584 27.4057 255.445 27.4589 255.278 27.4589ZM258.21 28.3963H260.174V29.1742H258.21V31.5676C258.21 31.8269 258.23 32.0429 258.269 32.2158C258.309 32.382 258.369 32.515 258.449 32.6147C258.529 32.7078 258.628 32.7743 258.748 32.8141C258.868 32.854 259.007 32.874 259.167 32.874C259.446 32.874 259.669 32.8441 259.835 32.7842C260.008 32.7177 260.128 32.6712 260.194 32.6446L260.374 33.4125C260.281 33.459 260.118 33.5155 259.885 33.582C259.652 33.6552 259.386 33.6917 259.087 33.6917C258.735 33.6917 258.442 33.6485 258.21 33.5621C257.984 33.469 257.801 33.3327 257.661 33.1532C257.522 32.9737 257.422 32.7543 257.362 32.495C257.309 32.2291 257.282 31.9233 257.282 31.5776V26.9503L258.21 26.7907V28.3963ZM267.263 30.9991C267.263 30.3941 267.113 29.9288 266.814 29.603C266.515 29.2772 266.116 29.1143 265.617 29.1143C265.338 29.1143 265.118 29.1243 264.959 29.1443C264.806 29.1642 264.683 29.1875 264.59 29.2141V32.4851C264.703 32.5781 264.866 32.6679 265.079 32.7543C265.291 32.8407 265.524 32.884 265.777 32.884C266.043 32.884 266.269 32.8374 266.455 32.7443C266.648 32.6446 266.804 32.5116 266.923 32.3454C267.043 32.1726 267.13 31.9731 267.183 31.7471C267.236 31.5144 267.263 31.2651 267.263 30.9991ZM268.23 30.9991C268.23 31.3914 268.177 31.7537 268.07 32.0862C267.971 32.4186 267.821 32.7044 267.622 32.9438C267.422 33.1831 267.176 33.3693 266.884 33.5023C266.598 33.6352 266.269 33.7017 265.896 33.7017C265.597 33.7017 265.331 33.6618 265.099 33.582C264.872 33.5023 264.703 33.4258 264.59 33.3527V35.4269H263.662V28.5559C263.882 28.5027 264.154 28.4462 264.48 28.3863C264.813 28.3199 265.195 28.2866 265.627 28.2866C266.026 28.2866 266.385 28.3498 266.704 28.4761C267.023 28.6024 267.296 28.7819 267.522 29.0146C267.748 29.2473 267.921 29.5332 268.04 29.8723C268.167 30.2047 268.23 30.5803 268.23 30.9991ZM271.45 28.2866C271.529 28.2866 271.619 28.2933 271.719 28.3066C271.825 28.3132 271.928 28.3265 272.028 28.3465C272.128 28.3598 272.218 28.3764 272.297 28.3963C272.384 28.4096 272.447 28.4229 272.487 28.4362L272.327 29.244C272.254 29.2174 272.131 29.1875 271.958 29.1542C271.792 29.1143 271.576 29.0944 271.31 29.0944C271.137 29.0944 270.964 29.1143 270.792 29.1542C270.625 29.1875 270.516 29.2107 270.462 29.224V33.582H269.535V28.6157C269.754 28.5359 270.027 28.4628 270.353 28.3963C270.678 28.3232 271.044 28.2866 271.45 28.2866ZM273.093 30.9991C273.093 30.5404 273.159 30.1415 273.292 29.8024C273.425 29.4567 273.601 29.1709 273.821 28.9448C274.04 28.7188 274.293 28.5492 274.579 28.4362C274.864 28.3232 275.157 28.2667 275.456 28.2667C276.154 28.2667 276.689 28.4861 277.062 28.9249C277.434 29.357 277.62 30.0185 277.62 30.9094C277.62 30.9493 277.62 31.0025 277.62 31.069C277.62 31.1288 277.617 31.1853 277.61 31.2385H274.06C274.1 31.777 274.256 32.1859 274.529 32.4651C274.801 32.7443 275.227 32.884 275.805 32.884C276.131 32.884 276.403 32.8574 276.623 32.8042C276.849 32.7443 277.018 32.6878 277.131 32.6346L277.261 33.4125C277.148 33.4723 276.949 33.5355 276.663 33.602C276.384 33.6685 276.064 33.7017 275.705 33.7017C275.253 33.7017 274.861 33.6352 274.529 33.5023C274.203 33.3626 273.934 33.1732 273.721 32.9338C273.508 32.6945 273.349 32.4119 273.242 32.0862C273.142 31.7537 273.093 31.3914 273.093 30.9991ZM276.653 30.4905C276.659 30.0717 276.553 29.7293 276.334 29.4634C276.121 29.1908 275.825 29.0545 275.446 29.0545C275.233 29.0545 275.044 29.0977 274.878 29.1841C274.718 29.2639 274.582 29.3703 274.469 29.5033C274.356 29.6362 274.266 29.7891 274.2 29.962C274.14 30.1349 274.1 30.311 274.08 30.4905H276.653ZM282.303 29.4933C282.19 29.4002 282.027 29.3105 281.815 29.224C281.602 29.1376 281.369 29.0944 281.116 29.0944C280.85 29.0944 280.621 29.1443 280.428 29.244C280.242 29.3371 280.089 29.47 279.97 29.6429C279.85 29.8091 279.763 30.0085 279.71 30.2412C279.657 30.4739 279.631 30.7232 279.631 30.9892C279.631 31.5942 279.78 32.0629 280.079 32.3953C280.378 32.7211 280.777 32.884 281.276 32.884C281.529 32.884 281.738 32.874 281.904 32.854C282.077 32.8274 282.21 32.8009 282.303 32.7743V29.4933ZM282.303 26.0029L283.231 25.8434V33.4324C283.018 33.4923 282.745 33.5521 282.413 33.6119C282.08 33.6718 281.698 33.7017 281.266 33.7017C280.867 33.7017 280.508 33.6385 280.189 33.5122C279.87 33.3859 279.597 33.2064 279.371 32.9737C279.145 32.741 278.969 32.4585 278.843 32.126C278.723 31.787 278.663 31.408 278.663 30.9892C278.663 30.5903 278.713 30.2246 278.813 29.8922C278.919 29.5598 279.072 29.2739 279.272 29.0346C279.471 28.7952 279.714 28.6091 280 28.4761C280.292 28.3431 280.624 28.2766 280.997 28.2766C281.296 28.2766 281.559 28.3165 281.785 28.3963C282.017 28.4761 282.19 28.5526 282.303 28.6257V26.0029ZM285.752 33.582H284.825V28.3963H285.752V33.582ZM285.284 27.4589C285.117 27.4589 284.974 27.4057 284.855 27.2993C284.742 27.1863 284.685 27.0367 284.685 26.8506C284.685 26.6644 284.742 26.5182 284.855 26.4118C284.974 26.2988 285.117 26.2423 285.284 26.2423C285.45 26.2423 285.589 26.2988 285.702 26.4118C285.822 26.5182 285.882 26.6644 285.882 26.8506C285.882 27.0367 285.822 27.1863 285.702 27.2993C285.589 27.4057 285.45 27.4589 285.284 27.4589ZM289.601 33.7017C289.182 33.7017 288.813 33.6352 288.494 33.5023C288.182 33.3693 287.916 33.1831 287.696 32.9438C287.484 32.7044 287.324 32.4219 287.218 32.0961C287.111 31.7637 287.058 31.398 287.058 30.9991C287.058 30.6002 287.115 30.2346 287.228 29.9022C287.347 29.5698 287.513 29.2839 287.726 29.0445C287.939 28.7985 288.198 28.6091 288.504 28.4761C288.817 28.3365 289.162 28.2667 289.541 28.2667C289.774 28.2667 290.007 28.2866 290.239 28.3265C290.472 28.3664 290.695 28.4296 290.907 28.516L290.698 29.3038C290.558 29.2373 290.396 29.1841 290.209 29.1443C290.03 29.1044 289.837 29.0844 289.631 29.0844C289.112 29.0844 288.713 29.2473 288.434 29.5731C288.162 29.8988 288.025 30.3742 288.025 30.9991C288.025 31.2784 288.055 31.5343 288.115 31.767C288.182 31.9997 288.281 32.1992 288.414 32.3654C288.554 32.5316 288.73 32.6612 288.943 32.7543C289.156 32.8407 289.415 32.884 289.721 32.884C289.967 32.884 290.189 32.8607 290.389 32.8141C290.588 32.7676 290.745 32.7177 290.858 32.6646L290.987 33.4424C290.934 33.4757 290.858 33.5089 290.758 33.5421C290.658 33.5687 290.545 33.592 290.419 33.6119C290.292 33.6385 290.156 33.6585 290.01 33.6718C289.87 33.6917 289.734 33.7017 289.601 33.7017ZM292.851 28.3963H294.815V29.1742H292.851V31.5676C292.851 31.8269 292.87 32.0429 292.91 32.2158C292.95 32.382 293.01 32.515 293.09 32.6147C293.17 32.7078 293.269 32.7743 293.389 32.8141C293.509 32.854 293.648 32.874 293.808 32.874C294.087 32.874 294.31 32.8441 294.476 32.7842C294.649 32.7177 294.769 32.6712 294.835 32.6446L295.015 33.4125C294.921 33.459 294.759 33.5155 294.526 33.582C294.293 33.6552 294.027 33.6917 293.728 33.6917C293.376 33.6917 293.083 33.6485 292.851 33.5621C292.624 33.469 292.442 33.3327 292.302 33.1532C292.162 32.9737 292.063 32.7543 292.003 32.495C291.95 32.2291 291.923 31.9233 291.923 31.5776V26.9503L292.851 26.7907V28.3963ZM296.923 33.582H295.995V28.3963H296.923V33.582ZM296.454 27.4589C296.288 27.4589 296.145 27.4057 296.025 27.2993C295.912 27.1863 295.856 27.0367 295.856 26.8506C295.856 26.6644 295.912 26.5182 296.025 26.4118C296.145 26.2988 296.288 26.2423 296.454 26.2423C296.62 26.2423 296.76 26.2988 296.873 26.4118C296.993 26.5182 297.052 26.6644 297.052 26.8506C297.052 27.0367 296.993 27.1863 296.873 27.2993C296.76 27.4057 296.62 27.4589 296.454 27.4589ZM303.095 30.9892C303.095 31.4014 303.035 31.7737 302.916 32.1061C302.796 32.4385 302.626 32.7244 302.407 32.9637C302.194 33.2031 301.938 33.3892 301.639 33.5222C301.34 33.6485 301.014 33.7117 300.662 33.7117C300.309 33.7117 299.984 33.6485 299.684 33.5222C299.385 33.3892 299.126 33.2031 298.907 32.9637C298.694 32.7244 298.528 32.4385 298.408 32.1061C298.288 31.7737 298.228 31.4014 298.228 30.9892C298.228 30.5836 298.288 30.2146 298.408 29.8822C298.528 29.5432 298.694 29.254 298.907 29.0146C299.126 28.7753 299.385 28.5924 299.684 28.4661C299.984 28.3332 300.309 28.2667 300.662 28.2667C301.014 28.2667 301.34 28.3332 301.639 28.4661C301.938 28.5924 302.194 28.7753 302.407 29.0146C302.626 29.254 302.796 29.5432 302.916 29.8822C303.035 30.2146 303.095 30.5836 303.095 30.9892ZM302.128 30.9892C302.128 30.4041 301.995 29.9421 301.729 29.603C301.469 29.2573 301.114 29.0844 300.662 29.0844C300.21 29.0844 299.851 29.2573 299.585 29.603C299.325 29.9421 299.196 30.4041 299.196 30.9892C299.196 31.5742 299.325 32.0396 299.585 32.3853C299.851 32.7244 300.21 32.8939 300.662 32.8939C301.114 32.8939 301.469 32.7244 301.729 32.3853C301.995 32.0396 302.128 31.5742 302.128 30.9892ZM304.4 28.5459C304.613 28.4927 304.895 28.4362 305.248 28.3764C305.6 28.3165 306.005 28.2866 306.464 28.2866C306.876 28.2866 307.219 28.3465 307.491 28.4661C307.764 28.5791 307.98 28.742 308.14 28.9548C308.306 29.1609 308.422 29.4102 308.489 29.7027C308.555 29.9952 308.588 30.3177 308.588 30.6701V33.582H307.661V30.8695C307.661 30.5504 307.638 30.2778 307.591 30.0518C307.551 29.8257 307.481 29.6429 307.382 29.5033C307.282 29.3637 307.149 29.2639 306.983 29.2041C306.817 29.1376 306.61 29.1044 306.364 29.1044C306.265 29.1044 306.162 29.1077 306.055 29.1143C305.949 29.121 305.846 29.131 305.746 29.1443C305.653 29.1509 305.567 29.1609 305.487 29.1742C305.414 29.1875 305.361 29.1974 305.327 29.2041V33.582H304.4V28.5459ZM311.223 33.0435C311.223 33.223 311.163 33.3793 311.044 33.5122C310.924 33.6452 310.761 33.7117 310.555 33.7117C310.349 33.7117 310.186 33.6452 310.066 33.5122C309.947 33.3793 309.887 33.223 309.887 33.0435C309.887 32.864 309.947 32.7078 310.066 32.5748C310.186 32.4418 310.349 32.3754 310.555 32.3754C310.761 32.3754 310.924 32.4418 311.044 32.5748C311.163 32.7078 311.223 32.864 311.223 33.0435ZM311.223 29.0645C311.223 29.244 311.163 29.4002 311.044 29.5332C310.924 29.6662 310.761 29.7326 310.555 29.7326C310.349 29.7326 310.186 29.6662 310.066 29.5332C309.947 29.4002 309.887 29.244 309.887 29.0645C309.887 28.885 309.947 28.7287 310.066 28.5958C310.186 28.4628 310.349 28.3963 310.555 28.3963C310.761 28.3963 310.924 28.4628 311.044 28.5958C311.163 28.7287 311.223 28.885 311.223 29.0645ZM316.345 32.9039C316.936 32.9039 317.358 32.7876 317.611 32.5549C317.87 32.3222 318 32.0097 318 31.6174C318 31.3648 317.947 31.1521 317.84 30.9792C317.734 30.8063 317.594 30.6701 317.422 30.5703C317.249 30.464 317.046 30.3908 316.813 30.3509C316.587 30.3044 316.354 30.2811 316.115 30.2811H315.876V29.5232H316.205C316.371 29.5232 316.541 29.5066 316.714 29.4734C316.893 29.4401 317.056 29.3803 317.202 29.2938C317.348 29.2074 317.468 29.0911 317.561 28.9448C317.654 28.7919 317.701 28.6024 317.701 28.3764C317.701 28.1902 317.668 28.0307 317.601 27.8977C317.535 27.7647 317.445 27.655 317.332 27.5686C317.225 27.4822 317.099 27.4223 316.953 27.3891C316.813 27.3492 316.664 27.3293 316.504 27.3293C316.185 27.3293 315.912 27.3758 315.686 27.4689C315.467 27.5619 315.281 27.6584 315.128 27.7581L314.769 27.05C314.849 26.9968 314.948 26.9403 315.068 26.8805C315.194 26.814 315.334 26.7542 315.487 26.701C315.64 26.6478 315.803 26.6046 315.976 26.5713C316.155 26.5315 316.341 26.5115 316.534 26.5115C316.9 26.5115 317.215 26.558 317.481 26.6511C317.747 26.7376 317.967 26.8639 318.14 27.0301C318.312 27.1896 318.442 27.3824 318.529 27.6085C318.615 27.8279 318.658 28.0672 318.658 28.3265C318.658 28.6855 318.555 28.9947 318.349 29.254C318.143 29.5066 317.894 29.6994 317.601 29.8324C317.781 29.8855 317.953 29.962 318.12 30.0617C318.286 30.1615 318.429 30.2878 318.548 30.4407C318.675 30.5936 318.774 30.7698 318.848 30.9692C318.927 31.1687 318.967 31.3914 318.967 31.6374C318.967 31.9366 318.914 32.2158 318.808 32.4751C318.708 32.7277 318.548 32.9471 318.329 33.1333C318.116 33.3194 317.847 33.4657 317.521 33.5721C317.196 33.6784 316.81 33.7316 316.364 33.7316C316.192 33.7316 316.012 33.7183 315.826 33.6917C315.646 33.6651 315.477 33.6319 315.317 33.592C315.158 33.5521 315.018 33.5122 314.899 33.4723C314.779 33.4324 314.692 33.3992 314.639 33.3726L314.819 32.5648C314.932 32.618 315.118 32.6878 315.377 32.7743C315.643 32.8607 315.966 32.9039 316.345 32.9039Z" fill="#414652" fill-opacity="0.8"/>
<rect x="7.51245" y="56.5808" width="326.975" height="162.301" stroke="#ECECEC" stroke-width="1.0249"/>
<path d="M7 109.858H335" stroke="#ECECEC" stroke-width="1.0249"/>
<path d="M7 83.4521H335" stroke="#ECECEC" stroke-width="1.0249"/>
<path d="M7 136.264H335" stroke="#ECECEC" stroke-width="1.0249"/>
<path d="M7 162.671H335" stroke="#ECECEC" stroke-width="1.0249"/>
<path d="M7 189.076H335" stroke="#ECECEC" stroke-width="1.0249"/>
<path d="M62.178 56.0684L62.178 219.394" stroke="#ECECEC" stroke-width="1.0249"/>
<path d="M116.333 56.0684L116.333 219.394" stroke="#ECECEC" stroke-width="1.0249"/>
<path d="M170.489 56.0684L170.489 219.394" stroke="#ECECEC" stroke-width="1.0249"/>
<path d="M224.645 56.0684L224.645 219.394" stroke="#ECECEC" stroke-width="1.0249"/>
<path d="M278.801 56.0684L278.801 219.394" stroke="#ECECEC" stroke-width="1.0249"/>
<path d="M7 56.832H335" stroke="#ECECEC" stroke-width="1.5302"/>
<rect x="117.327" y="13.6484" width="81.503" height="33.7939" rx="15.903" fill="#00A79E"/>
<path d="M149.849 26.7556C149.976 27.1903 150.114 27.6833 150.262 28.2346C150.421 28.7753 150.586 29.3372 150.755 29.9203C150.935 30.5034 151.116 31.0866 151.296 31.6697C151.476 32.2528 151.651 32.7935 151.821 33.2918C151.959 32.7511 152.096 32.1627 152.234 31.5265C152.383 30.8904 152.521 30.2331 152.648 29.5546C152.775 28.876 152.897 28.2028 153.013 27.5349C153.141 26.8564 153.257 26.2043 153.363 25.5788H155.94C155.569 27.4236 155.139 29.2948 154.652 31.1926C154.174 33.0903 153.655 34.8927 153.093 36.5996H150.819C150.448 35.5818 150.087 34.5163 149.737 33.4031C149.388 32.2793 149.043 31.1555 148.704 30.0317C148.365 31.1555 148.025 32.2793 147.686 33.4031C147.347 34.5163 146.992 35.5818 146.62 36.5996H144.346C143.784 34.8927 143.26 33.0903 142.772 31.1926C142.295 29.2948 141.871 27.4236 141.5 25.5788H144.187C144.293 26.2043 144.41 26.8564 144.537 27.5349C144.664 28.2028 144.797 28.876 144.935 29.5546C145.073 30.2331 145.21 30.8904 145.348 31.5265C145.497 32.1627 145.645 32.7511 145.794 33.2918C145.984 32.7723 146.17 32.221 146.35 31.6379C146.53 31.0548 146.705 30.4716 146.875 29.8885C147.045 29.3054 147.198 28.7435 147.336 28.2028C147.485 27.6621 147.617 27.1797 147.734 26.7556H149.849ZM159.744 36.5996H157.375V28.2346H159.744V36.5996ZM159.967 25.8174C159.967 26.252 159.824 26.5966 159.538 26.8511C159.262 27.0949 158.933 27.2168 158.552 27.2168C158.17 27.2168 157.836 27.0949 157.55 26.8511C157.274 26.5966 157.136 26.252 157.136 25.8174C157.136 25.3827 157.274 25.0434 157.55 24.7996C157.836 24.5451 158.17 24.4179 158.552 24.4179C158.933 24.4179 159.262 24.5451 159.538 24.7996C159.824 25.0434 159.967 25.3827 159.967 25.8174ZM161.972 28.5209C162.375 28.4042 162.894 28.2982 163.53 28.2028C164.166 28.0968 164.834 28.0438 165.534 28.0438C166.244 28.0438 166.833 28.1392 167.299 28.33C167.776 28.5103 168.153 28.77 168.428 29.1093C168.704 29.4485 168.9 29.8514 169.017 30.3179C169.133 30.7844 169.192 31.3039 169.192 31.8764V36.5996H166.822V32.1627C166.822 31.3993 166.721 30.8586 166.52 30.5406C166.319 30.2225 165.942 30.0635 165.391 30.0635C165.221 30.0635 165.041 30.0741 164.85 30.0953C164.659 30.1059 164.49 30.1218 164.341 30.143V36.5996H161.972V28.5209ZM173.77 28.4255C173.77 29.2842 173.738 30.0847 173.674 30.8268C173.611 31.569 173.526 32.3217 173.42 33.085H171.607C171.501 32.3217 171.411 31.569 171.337 30.8268C171.273 30.0847 171.241 29.2842 171.241 28.4255V25.5788H173.77V28.4255ZM173.976 35.3433C173.976 35.8098 173.823 36.1702 173.515 36.4247C173.218 36.6791 172.879 36.8063 172.497 36.8063C172.116 36.8063 171.771 36.6791 171.464 36.4247C171.167 36.1702 171.018 35.8098 171.018 35.3433C171.018 34.8768 171.167 34.5163 171.464 34.2619C171.771 34.0074 172.116 33.8802 172.497 33.8802C172.879 33.8802 173.218 34.0074 173.515 34.2619C173.823 34.5163 173.976 34.8768 173.976 35.3433Z" fill="white"/>
<path d="M55.7031 116.024L91.9819 148.327L129.752 116.024L168.515 148.327L209.267 116.024L281.327 138.388" stroke="#A8A8A8" stroke-width="2.98182"/>
<path d="M284.309 138.885C284.309 141.629 282.084 143.854 279.339 143.854C276.595 143.854 274.37 141.629 274.37 138.885C274.37 136.14 276.595 133.915 279.339 133.915C282.084 133.915 284.309 136.14 284.309 138.885Z" fill="#FF444F"/>
<path d="M286.25 123.763C286.25 122.902 286.369 122.144 286.608 121.488C286.847 120.824 287.183 120.266 287.618 119.814C288.061 119.362 288.593 119.022 289.215 118.792C289.845 118.553 290.552 118.43 291.336 118.421L291.426 119.418C290.923 119.426 290.463 119.482 290.046 119.584C289.637 119.686 289.27 119.848 288.947 120.07C288.623 120.291 288.35 120.581 288.129 120.939C287.907 121.288 287.741 121.722 287.63 122.242C287.852 122.14 288.099 122.055 288.372 121.986C288.653 121.918 288.942 121.884 289.24 121.884C289.743 121.884 290.169 121.961 290.518 122.114C290.868 122.268 291.153 122.472 291.375 122.728C291.596 122.975 291.754 123.264 291.847 123.597C291.95 123.92 292.001 124.261 292.001 124.619C292.001 124.943 291.945 125.275 291.835 125.616C291.724 125.957 291.554 126.268 291.324 126.549C291.102 126.83 290.817 127.06 290.467 127.239C290.118 127.418 289.705 127.507 289.228 127.507C288.256 127.507 287.515 127.175 287.004 126.51C286.501 125.846 286.25 124.93 286.25 123.763ZM289.113 122.855C288.815 122.855 288.538 122.885 288.282 122.945C288.026 122.996 287.771 123.077 287.515 123.188C287.507 123.281 287.498 123.379 287.49 123.482C287.49 123.575 287.49 123.669 287.49 123.763C287.49 124.138 287.515 124.491 287.566 124.823C287.618 125.156 287.707 125.45 287.835 125.705C287.971 125.952 288.15 126.153 288.372 126.306C288.593 126.451 288.874 126.523 289.215 126.523C289.496 126.523 289.735 126.463 289.931 126.344C290.127 126.225 290.288 126.072 290.416 125.884C290.544 125.697 290.633 125.497 290.685 125.284C290.744 125.062 290.774 124.849 290.774 124.645C290.774 124.065 290.633 123.622 290.352 123.316C290.08 123.009 289.666 122.855 289.113 122.855Z" fill="#414652"/>
<rect x="280.972" y="114.676" width="16.613" height="16.613" rx="8.30649" stroke="#414652" stroke-width="1.27792"/>
<path d="M36.7825 101.353C37.9911 101.353 38.5954 100.939 38.5954 100.112C38.5954 99.8579 38.5397 99.6432 38.4284 99.4683C38.3251 99.2854 38.1819 99.1304 37.999 99.0031C37.8162 98.868 37.6054 98.7527 37.3669 98.6572C37.1363 98.5618 36.8898 98.4664 36.6274 98.371C36.3253 98.2676 36.039 98.1523 35.7686 98.0251C35.4983 97.8899 35.2637 97.7349 35.0649 97.5599C34.8661 97.377 34.7071 97.1624 34.5878 96.9159C34.4765 96.6694 34.4209 96.3712 34.4209 96.0213C34.4209 95.2977 34.6674 94.7332 35.1604 94.3276C35.6533 93.9221 36.3332 93.7193 37.1999 93.7193C37.7009 93.7193 38.1541 93.775 38.5596 93.8863C38.9731 93.9897 39.2753 94.105 39.4661 94.2322L39.0964 95.1745C38.9294 95.0711 38.6789 94.9717 38.3449 94.8763C38.0189 94.7729 37.6373 94.7212 37.1999 94.7212C36.9773 94.7212 36.7705 94.7451 36.5797 94.7928C36.3889 94.8405 36.2219 94.9121 36.0788 95.0075C35.9356 95.1029 35.8203 95.2262 35.7329 95.3772C35.6533 95.5204 35.6136 95.6913 35.6136 95.8901C35.6136 96.1128 35.6573 96.2996 35.7448 96.4507C35.8323 96.6018 35.9555 96.7369 36.1145 96.8562C36.2736 96.9675 36.4565 97.0709 36.6632 97.1663C36.8779 97.2617 37.1125 97.3572 37.3669 97.4526C37.7247 97.5957 38.0507 97.7388 38.3449 97.882C38.6471 98.0251 38.9055 98.196 39.1202 98.3948C39.3429 98.5936 39.5138 98.8322 39.6331 99.1105C39.7524 99.3808 39.812 99.7108 39.812 100.1C39.812 100.824 39.5456 101.381 39.0129 101.77C38.4881 102.16 37.7446 102.355 36.7825 102.355C36.4565 102.355 36.1543 102.331 35.876 102.283C35.6056 102.243 35.3631 102.196 35.1484 102.14C34.9337 102.076 34.7469 102.013 34.5878 101.949C34.4368 101.878 34.3175 101.818 34.23 101.77L34.5759 100.816C34.7588 100.919 35.0371 101.035 35.4108 101.162C35.7845 101.289 36.2418 101.353 36.7825 101.353ZM42.1763 95.9736H44.526V96.9039H42.1763V99.7665C42.1763 100.077 42.2001 100.335 42.2479 100.542C42.2956 100.741 42.3671 100.9 42.4625 101.019C42.558 101.13 42.6772 101.21 42.8204 101.257C42.9635 101.305 43.1305 101.329 43.3213 101.329C43.6553 101.329 43.9216 101.293 44.1204 101.222C44.3272 101.142 44.4703 101.086 44.5498 101.055L44.7645 101.973C44.6532 102.029 44.4584 102.096 44.1801 102.176C43.9018 102.263 43.5837 102.307 43.2259 102.307C42.8045 102.307 42.4546 102.255 42.1763 102.152C41.9059 102.041 41.6873 101.878 41.5203 101.663C41.3533 101.448 41.234 101.186 41.1625 100.876C41.0989 100.558 41.0671 100.192 41.0671 99.7784V94.2441L42.1763 94.0533V95.9736ZM48.0367 101.377C48.2991 101.377 48.5297 101.373 48.7285 101.365C48.9352 101.349 49.1062 101.325 49.2413 101.293V99.4444C49.1618 99.4047 49.0306 99.3729 48.8477 99.349C48.6728 99.3172 48.4581 99.3013 48.2037 99.3013C48.0367 99.3013 47.8578 99.3132 47.6669 99.3371C47.4841 99.3609 47.3131 99.4126 47.1541 99.4921C47.003 99.5637 46.8758 99.6671 46.7724 99.8023C46.669 99.9295 46.6173 100.1 46.6173 100.315C46.6173 100.713 46.7446 100.991 46.999 101.15C47.2535 101.301 47.5993 101.377 48.0367 101.377ZM47.9413 95.8185C48.3865 95.8185 48.7603 95.8782 49.0624 95.9975C49.3725 96.1088 49.619 96.2718 49.8019 96.4865C49.9928 96.6932 50.1279 96.9437 50.2074 97.2379C50.287 97.5241 50.3267 97.8422 50.3267 98.1921V102.068C50.2313 102.084 50.0961 102.108 49.9212 102.14C49.7542 102.164 49.5634 102.188 49.3487 102.212C49.134 102.235 48.8994 102.255 48.645 102.271C48.3985 102.295 48.152 102.307 47.9055 102.307C47.5556 102.307 47.2336 102.271 46.9394 102.2C46.6452 102.128 46.3907 102.017 46.176 101.866C45.9613 101.707 45.7944 101.5 45.6751 101.245C45.5558 100.991 45.4962 100.685 45.4962 100.327C45.4962 99.9851 45.5638 99.6909 45.6989 99.4444C45.8421 99.1979 46.0329 98.9992 46.2714 98.8481C46.51 98.697 46.7883 98.5857 47.1064 98.5141C47.4244 98.4425 47.7584 98.4068 48.1082 98.4068C48.2196 98.4068 48.3349 98.4147 48.4541 98.4306C48.5734 98.4386 48.6847 98.4545 48.7881 98.4783C48.8994 98.4942 48.9948 98.5101 49.0744 98.526C49.1539 98.5419 49.2095 98.5539 49.2413 98.5618V98.2517C49.2413 98.0688 49.2215 97.8899 49.1817 97.715C49.1419 97.5321 49.0704 97.3731 48.967 97.2379C48.8636 97.0948 48.7205 96.9834 48.5376 96.9039C48.3627 96.8165 48.1321 96.7727 47.8458 96.7727C47.4801 96.7727 47.158 96.8006 46.8797 96.8562C46.6094 96.9039 46.4066 96.9556 46.2714 97.0113L46.1402 96.0929C46.2834 96.0293 46.5219 95.9696 46.8559 95.914C47.1898 95.8504 47.5516 95.8185 47.9413 95.8185ZM54.4591 95.8424C54.5545 95.8424 54.6618 95.8504 54.7811 95.8663C54.9083 95.8742 55.0316 95.8901 55.1508 95.914C55.2701 95.9299 55.3775 95.9497 55.4729 95.9736C55.5762 95.9895 55.6518 96.0054 55.6995 96.0213L55.5087 96.9874C55.4212 96.9556 55.2741 96.9198 55.0673 96.8801C54.8686 96.8324 54.6101 96.8085 54.2921 96.8085C54.0853 96.8085 53.8786 96.8324 53.6719 96.8801C53.4731 96.9198 53.3419 96.9477 53.2783 96.9636V102.176H52.169V96.236C52.4314 96.1406 52.7574 96.0531 53.1471 95.9736C53.5367 95.8861 53.974 95.8424 54.4591 95.8424ZM57.8075 95.9736H60.1572V96.9039H57.8075V99.7665C57.8075 100.077 57.8314 100.335 57.8791 100.542C57.9268 100.741 57.9984 100.9 58.0938 101.019C58.1892 101.13 58.3085 101.21 58.4516 101.257C58.5947 101.305 58.7617 101.329 58.9526 101.329C59.2865 101.329 59.5529 101.293 59.7517 101.222C59.9584 101.142 60.1016 101.086 60.1811 101.055L60.3958 101.973C60.2844 102.029 60.0896 102.096 59.8113 102.176C59.533 102.263 59.215 102.307 58.8571 102.307C58.4357 102.307 58.0858 102.255 57.8075 102.152C57.5372 102.041 57.3185 101.878 57.1515 101.663C56.9846 101.448 56.8653 101.186 56.7937 100.876C56.7301 100.558 56.6983 100.192 56.6983 99.7784V94.2441L57.8075 94.0533V95.9736Z" fill="#414652"/>
<path d="M64.1516 117.018C64.1516 121.409 60.5916 124.969 56.2001 124.969C51.8085 124.969 48.2485 121.409 48.2485 117.018C48.2485 112.626 51.8085 109.066 56.2001 109.066C60.5916 109.066 64.1516 112.626 64.1516 117.018Z" fill="#FF444F"/>
<path d="M253.529 154.854V146.589H258.574V147.579H254.686V150.036H258.145V151.002H254.686V153.865H258.872V154.854H253.529ZM260.271 148.831C260.525 148.768 260.863 148.7 261.285 148.628C261.706 148.557 262.191 148.521 262.74 148.521C263.233 148.521 263.642 148.593 263.968 148.736C264.294 148.871 264.553 149.066 264.744 149.32C264.943 149.567 265.082 149.865 265.161 150.215C265.241 150.565 265.28 150.95 265.28 151.372V154.854H264.171V151.61C264.171 151.229 264.143 150.903 264.088 150.632C264.04 150.362 263.957 150.143 263.837 149.976C263.718 149.809 263.559 149.69 263.36 149.618C263.161 149.539 262.915 149.499 262.621 149.499C262.501 149.499 262.378 149.503 262.251 149.511C262.124 149.519 262 149.531 261.881 149.547C261.77 149.555 261.667 149.567 261.571 149.583C261.484 149.599 261.42 149.61 261.38 149.618V154.854H260.271V148.831ZM271.127 149.964C270.992 149.853 270.797 149.746 270.543 149.642C270.289 149.539 270.01 149.487 269.708 149.487C269.39 149.487 269.116 149.547 268.885 149.666C268.662 149.777 268.48 149.936 268.336 150.143C268.193 150.342 268.09 150.581 268.026 150.859C267.963 151.137 267.931 151.435 267.931 151.753C267.931 152.477 268.11 153.038 268.468 153.435C268.825 153.825 269.303 154.02 269.899 154.02C270.201 154.02 270.452 154.008 270.65 153.984C270.857 153.952 271.016 153.92 271.127 153.888V149.964ZM271.127 145.79L272.237 145.599V154.676C271.982 154.747 271.656 154.819 271.259 154.89C270.861 154.962 270.404 154.998 269.887 154.998C269.41 154.998 268.981 154.922 268.599 154.771C268.217 154.62 267.891 154.405 267.621 154.127C267.35 153.849 267.14 153.511 266.989 153.113C266.846 152.708 266.774 152.254 266.774 151.753C266.774 151.276 266.834 150.839 266.953 150.441C267.08 150.044 267.263 149.702 267.502 149.416C267.74 149.129 268.03 148.907 268.372 148.748C268.722 148.589 269.12 148.509 269.565 148.509C269.923 148.509 270.237 148.557 270.507 148.652C270.786 148.748 270.992 148.839 271.127 148.927V145.79Z" fill="#414652"/>
<defs>
<filter id="filter0_d_2591_24981" x="0.0977015" y="0.175427" width="341.805" height="227.502" filterUnits="userSpaceOnUse" color-interpolation-filters="sRGB">
<feFlood flood-opacity="0" result="BackgroundImageFix"/>
<feColorMatrix in="SourceAlpha" type="matrix" values="0 0 0 0 0 0 0 0 0 0 0 0 0 0 0 0 0 0 127 0" result="hardAlpha"/>
<feOffset dy="1.38046"/>
<feGaussianBlur stdDeviation="3.45115"/>
<feComposite in2="hardAlpha" operator="out"/>
<feColorMatrix type="matrix" values="0 0 0 0 0 0 0 0 0 0 0 0 0 0 0 0 0 0 0.1 0"/>
<feBlend mode="normal" in2="BackgroundImageFix" result="effect1_dropShadow_2591_24981"/>
<feBlend mode="normal" in="SourceGraphic" in2="effect1_dropShadow_2591_24981" result="shape"/>
</filter>
</defs>
</svg>
