<svg width="33" height="32" viewBox="0 0 33 32" fill="none" xmlns="http://www.w3.org/2000/svg">
<rect x="0.5" width="32" height="32" rx="16" fill="#F9F9F9"/>
<g clip-path="url(#clip0_2591_24917)">
<path d="M7.40449 12.6055L9.94909 15.1513C10.4176 15.6199 10.4176 16.3795 9.94909 16.8481L7.40389 19.3939L7.40029 19.3897C7.17613 19.1659 7.05017 18.8622 7.05017 18.5455C7.05017 18.2287 7.17613 17.925 7.40029 17.7013L8.50069 16.5997L5.30029 16.6069V15.3997H8.50069L7.40029 14.2987C7.1761 14.0748 7.05011 13.771 7.05011 13.4542C7.05011 13.1373 7.1761 12.8335 7.40029 12.6097L7.40449 12.6055ZM12.7961 12.6055L12.8003 12.6097C13.0245 12.8334 13.1504 13.1371 13.1504 13.4539C13.1504 13.7706 13.0245 14.0743 12.8003 14.2981L11.6999 15.3997L14.9003 15.3925V16.5997H11.6999L12.8009 17.7007C13.0251 17.9245 13.1511 18.2283 13.1511 18.5452C13.1511 18.862 13.0251 19.1658 12.8009 19.3897L12.7967 19.3939L10.7003 17.2975L11.1491 16.8481C11.6176 16.3795 11.6176 15.6199 11.1491 15.1513L10.7003 14.7019L12.7961 12.6055Z" fill="#FF444F"/>
<path d="M10.7002 18.4002V20.8002H9.50024V18.4002H10.7002ZM10.7002 11.2002V13.6002H9.50024V11.2002H10.7002Z" fill="#414652"/>
</g>
<g clip-path="url(#clip1_2591_24917)">
<path d="M27.4004 15.9933V17.2004H24.2L25.3004 18.3015C25.5246 18.5253 25.6506 18.8291 25.6506 19.146C25.6506 19.4628 25.5246 19.7666 25.3004 19.9905L25.2968 19.9947L22.9004 17.5982L24.2492 16.2494C24.3218 16.175 24.3844 16.0912 24.4352 16.0005L27.4004 15.9933ZM20.504 11.4062L23.0492 13.9521C23.5176 14.4207 23.5176 15.1803 23.0492 15.6489L20.504 18.1947L20.5004 18.1905C20.2762 17.9667 20.1503 17.663 20.1503 17.3463C20.1503 17.0295 20.2762 16.7258 20.5004 16.5021L21.6008 15.4005L18.4004 15.4077V14.2005H21.6008L20.5004 13.0995C20.2762 12.8756 20.1502 12.5718 20.1502 12.255C20.1502 11.9381 20.2762 11.6343 20.5004 11.4104L20.504 11.4062ZM25.2962 13.2063C25.5251 13.4343 25.6514 13.7384 25.6514 14.0556C25.6514 14.3375 25.5516 14.6091 25.3716 14.8232L25.3004 14.9007L24.5804 15.6207C24.6469 15.264 24.5483 14.8984 24.3159 14.6244L24.2492 14.5521L24.1004 14.4027L25.2962 13.2063Z" fill="#FF444F"/>
<path d="M23.8006 19.0002V20.8002H22.6006V19.0002H23.8006ZM23.8006 11.2002V13.0002H22.6006V11.2002H23.8006Z" fill="#414652"/>
</g>
<defs>
<clipPath id="clip0_2591_24917">
<rect width="9.6" height="9.6" fill="white" transform="translate(5.30005 11.2002)"/>
</clipPath>
<clipPath id="clip1_2591_24917">
<rect width="9.6" height="9.6" fill="white" transform="translate(18.1001 11.2002)"/>
</clipPath>
</defs>
</svg>
