<svg width="342" height="228" viewBox="0 0 342 228" fill="none" xmlns="http://www.w3.org/2000/svg">
<g filter="url(#filter0_d_2591_26910)">
<rect x="6.99951" y="5.69727" width="328" height="213.697" rx="4.14138" fill="white"/>
</g>
<path d="M34.81 36.251V26.6078H41.3223V28.4307H36.9808V30.3231H40.8353V32.1043H36.9808V34.4281H41.6423V36.251H34.81ZM43.1096 29.1821C43.4621 29.08 43.9167 28.9873 44.4733 28.9038C45.0299 28.811 45.6143 28.7646 46.2266 28.7646C46.8482 28.7646 47.363 28.8481 47.7712 29.0151C48.1886 29.1728 48.518 29.4001 48.7592 29.6969C49.0004 29.9938 49.172 30.3463 49.274 30.7545C49.3761 31.1627 49.4271 31.6172 49.4271 32.1182V36.251H47.3537V32.3686C47.3537 31.7007 47.2656 31.2276 47.0894 30.9493C46.9131 30.671 46.5838 30.5318 46.1014 30.5318C45.9529 30.5318 45.7952 30.5411 45.6283 30.5597C45.4613 30.569 45.3128 30.5829 45.183 30.6014V36.251H43.1096V29.1821ZM53.071 32.5356C53.071 33.1757 53.2148 33.6906 53.5024 34.0802C53.79 34.4698 54.2167 34.6646 54.7826 34.6646C54.9681 34.6646 55.1397 34.66 55.2974 34.6507C55.4551 34.6322 55.585 34.6136 55.6871 34.5951V30.8241C55.5572 30.7406 55.3856 30.671 55.1722 30.6153C54.9681 30.5597 54.7594 30.5318 54.546 30.5318C53.5627 30.5318 53.071 31.1998 53.071 32.5356ZM57.7604 36.0144C57.5749 36.0701 57.3615 36.1257 57.1203 36.1814C56.8791 36.2278 56.624 36.2695 56.355 36.3066C56.0952 36.3437 55.8262 36.3716 55.5479 36.3901C55.2789 36.418 55.0191 36.4319 54.7687 36.4319C54.1657 36.4319 53.6276 36.3437 53.1545 36.1675C52.6814 35.9912 52.2825 35.7408 51.9578 35.4161C51.6331 35.0821 51.3826 34.6832 51.2064 34.2194C51.0394 33.7462 50.9559 33.2175 50.9559 32.633C50.9559 32.0393 51.0301 31.5059 51.1786 31.0328C51.327 30.5504 51.5403 30.1422 51.8187 29.8083C52.097 29.4743 52.4356 29.2192 52.8345 29.0429C53.2426 28.8667 53.7065 28.7785 54.226 28.7785C54.5136 28.7785 54.7687 28.8064 54.9913 28.862C55.2232 28.9177 55.4551 28.9965 55.6871 29.0986V25.7868L57.7604 25.4528V36.0144ZM61.803 34.7621C62.1833 34.7621 62.4524 34.7249 62.6101 34.6507C62.7678 34.5765 62.8466 34.4327 62.8466 34.2194C62.8466 34.0524 62.7446 33.9086 62.5405 33.788C62.3364 33.6581 62.0256 33.5143 61.6082 33.3566C61.2835 33.236 60.9866 33.1108 60.7176 32.9809C60.4579 32.851 60.2352 32.698 60.0497 32.5217C59.8641 32.3362 59.7204 32.1182 59.6183 31.8677C59.5163 31.6172 59.4652 31.3157 59.4652 30.9632C59.4652 30.2767 59.7204 29.734 60.2306 29.3351C60.7408 28.9362 61.4412 28.7368 62.3318 28.7368C62.7771 28.7368 63.2038 28.7785 63.612 28.862C64.0201 28.9362 64.3448 29.0197 64.586 29.1125L64.2242 30.7267C63.983 30.6432 63.7186 30.569 63.4311 30.504C63.1528 30.4391 62.8374 30.4066 62.4848 30.4066C61.8355 30.4066 61.5108 30.5875 61.5108 30.9493C61.5108 31.0328 61.5247 31.107 61.5525 31.1719C61.5803 31.2369 61.636 31.3018 61.7195 31.3668C61.803 31.4224 61.9143 31.4874 62.0535 31.5616C62.2019 31.6265 62.3874 31.7007 62.6101 31.7842C63.0646 31.9512 63.4403 32.1182 63.7372 32.2852C64.0341 32.4429 64.266 32.6191 64.433 32.8139C64.6092 32.9995 64.7298 33.2082 64.7947 33.4401C64.869 33.672 64.9061 33.9411 64.9061 34.2472C64.9061 34.9708 64.6324 35.5181 64.0851 35.8892C63.547 36.2603 62.7817 36.4458 61.7891 36.4458C61.1397 36.4458 60.597 36.3901 60.161 36.2788C59.7343 36.1675 59.4374 36.0747 59.2704 36.0005L59.6183 34.3168C59.9708 34.4559 60.3326 34.5672 60.7037 34.6507C61.0748 34.7249 61.4412 34.7621 61.803 34.7621ZM71.7605 31.4224C71.7605 31.8955 71.8161 32.3223 71.9275 32.7026C72.0481 33.083 72.215 33.4123 72.4284 33.6906C72.651 33.9596 72.9201 34.1683 73.2355 34.3168C73.5509 34.4652 73.9127 34.5394 74.3209 34.5394C74.7198 34.5394 75.0769 34.4652 75.3923 34.3168C75.717 34.1683 75.986 33.9596 76.1994 33.6906C76.4221 33.4123 76.589 33.083 76.7004 32.7026C76.821 32.3223 76.8813 31.8955 76.8813 31.4224C76.8813 30.9493 76.821 30.5226 76.7004 30.1422C76.589 29.7526 76.4221 29.4233 76.1994 29.1542C75.986 28.8759 75.717 28.6626 75.3923 28.5142C75.0769 28.3657 74.7198 28.2915 74.3209 28.2915C73.9127 28.2915 73.5509 28.3704 73.2355 28.5281C72.9201 28.6765 72.651 28.8899 72.4284 29.1682C72.215 29.4372 72.0481 29.7665 71.9275 30.1561C71.8161 30.5365 71.7605 30.9586 71.7605 31.4224ZM79.1216 31.4224C79.1216 32.2481 78.9964 32.9763 78.7459 33.6071C78.5047 34.2286 78.1707 34.7528 77.744 35.1795C77.3173 35.597 76.807 35.9124 76.2133 36.1257C75.6289 36.3391 74.9981 36.4458 74.3209 36.4458C73.6622 36.4458 73.0407 36.3391 72.4562 36.1257C71.8718 35.9124 71.3616 35.597 70.9256 35.1795C70.4896 34.7528 70.1463 34.2286 69.8958 33.6071C69.6454 32.9763 69.5201 32.2481 69.5201 31.4224C69.5201 30.5968 69.65 29.8732 69.9098 29.2517C70.1695 28.6208 70.5174 28.0921 70.9534 27.6653C71.3987 27.2386 71.9089 26.9185 72.4841 26.7052C73.0685 26.4918 73.6808 26.3851 74.3209 26.3851C74.9795 26.3851 75.6011 26.4918 76.1855 26.7052C76.7699 26.9185 77.2802 27.2386 77.7162 27.6653C78.1522 28.0921 78.4954 28.6208 78.7459 29.2517C78.9964 29.8732 79.1216 30.5968 79.1216 31.4224ZM87.0399 36.0005C86.6873 36.1025 86.2328 36.1953 85.6762 36.2788C85.1196 36.3716 84.5351 36.418 83.9229 36.418C83.3013 36.418 82.7818 36.3345 82.3644 36.1675C81.9562 36.0005 81.6315 35.7686 81.3903 35.4717C81.1491 35.1656 80.9775 34.8038 80.8754 34.3863C80.7734 33.9689 80.7224 33.5097 80.7224 33.0087V28.9316H82.7957V32.7583C82.7957 33.4262 82.8839 33.9086 83.0601 34.2054C83.2364 34.5023 83.5657 34.6507 84.0481 34.6507C84.1965 34.6507 84.3542 34.6461 84.5212 34.6368C84.6882 34.6183 84.8366 34.5997 84.9665 34.5812V28.9316H87.0399V36.0005ZM88.9166 27.1087L90.9899 26.7748V28.9316H93.4807V30.6571H90.9899V33.2314C90.9899 33.6674 91.0641 34.0153 91.2126 34.275C91.3703 34.5348 91.681 34.6646 92.1449 34.6646C92.3675 34.6646 92.5948 34.6461 92.8267 34.609C93.0679 34.5626 93.2859 34.5023 93.4807 34.4281L93.7729 36.0422C93.5225 36.1443 93.2442 36.2324 92.938 36.3066C92.6319 36.3809 92.2562 36.418 91.8109 36.418C91.245 36.418 90.7765 36.3437 90.4055 36.1953C90.0344 36.0376 89.7375 35.8242 89.5149 35.5552C89.2923 35.2769 89.1346 34.943 89.0418 34.5533C88.9583 34.1637 88.9166 33.7323 88.9166 33.2592V27.1087ZM97.2703 34.7621C97.6507 34.7621 97.9197 34.7249 98.0774 34.6507C98.2351 34.5765 98.314 34.4327 98.314 34.2194C98.314 34.0524 98.2119 33.9086 98.0078 33.788C97.8037 33.6581 97.493 33.5143 97.0755 33.3566C96.7508 33.236 96.454 33.1108 96.1849 32.9809C95.9252 32.851 95.7025 32.698 95.517 32.5217C95.3315 32.3362 95.1877 32.1182 95.0856 31.8677C94.9836 31.6172 94.9326 31.3157 94.9326 30.9632C94.9326 30.2767 95.1877 29.734 95.6979 29.3351C96.2081 28.9362 96.9085 28.7368 97.7991 28.7368C98.2444 28.7368 98.6711 28.7785 99.0793 28.862C99.4875 28.9362 99.8122 29.0197 100.053 29.1125L99.6916 30.7267C99.4504 30.6432 99.186 30.569 98.8984 30.504C98.6201 30.4391 98.3047 30.4066 97.9522 30.4066C97.3028 30.4066 96.9781 30.5875 96.9781 30.9493C96.9781 31.0328 96.992 31.107 97.0198 31.1719C97.0477 31.2369 97.1033 31.3018 97.1868 31.3668C97.2703 31.4224 97.3816 31.4874 97.5208 31.5616C97.6692 31.6265 97.8548 31.7007 98.0774 31.7842C98.532 31.9512 98.9077 32.1182 99.2045 32.2852C99.5014 32.4429 99.7333 32.6191 99.9003 32.8139C100.077 32.9995 100.197 33.2082 100.262 33.4401C100.336 33.672 100.373 33.9411 100.373 34.2472C100.373 34.9708 100.1 35.5181 99.5524 35.8892C99.0144 36.2603 98.249 36.4458 97.2564 36.4458C96.607 36.4458 96.0643 36.3901 95.6283 36.2788C95.2016 36.1675 94.9047 36.0747 94.7378 36.0005L95.0856 34.3168C95.4382 34.4559 95.8 34.5672 96.171 34.6507C96.5421 34.7249 96.9085 34.7621 97.2703 34.7621ZM103.996 36.251H101.923V28.9316H103.996V36.251ZM104.191 26.8165C104.191 27.1969 104.066 27.4983 103.815 27.721C103.574 27.9344 103.287 28.041 102.953 28.041C102.619 28.041 102.326 27.9344 102.076 27.721C101.835 27.4983 101.714 27.1969 101.714 26.8165C101.714 26.4362 101.835 26.1393 102.076 25.9259C102.326 25.7033 102.619 25.592 102.953 25.592C103.287 25.592 103.574 25.7033 103.815 25.9259C104.066 26.1393 104.191 26.4362 104.191 26.8165ZM107.712 32.5356C107.712 33.1757 107.856 33.6906 108.144 34.0802C108.431 34.4698 108.858 34.6646 109.424 34.6646C109.61 34.6646 109.781 34.66 109.939 34.6507C110.097 34.6322 110.226 34.6136 110.328 34.5951V30.8241C110.199 30.7406 110.027 30.671 109.814 30.6153C109.61 30.5597 109.401 30.5318 109.187 30.5318C108.204 30.5318 107.712 31.1998 107.712 32.5356ZM112.402 36.0144C112.216 36.0701 112.003 36.1257 111.762 36.1814C111.521 36.2278 111.265 36.2695 110.996 36.3066C110.737 36.3437 110.468 36.3716 110.189 36.3901C109.92 36.418 109.661 36.4319 109.41 36.4319C108.807 36.4319 108.269 36.3437 107.796 36.1675C107.323 35.9912 106.924 35.7408 106.599 35.4161C106.275 35.0821 106.024 34.6832 105.848 34.2194C105.681 33.7462 105.597 33.2175 105.597 32.633C105.597 32.0393 105.672 31.5059 105.82 31.0328C105.968 30.5504 106.182 30.1422 106.46 29.8083C106.738 29.4743 107.077 29.2192 107.476 29.0429C107.884 28.8667 108.348 28.7785 108.867 28.7785C109.155 28.7785 109.41 28.8064 109.633 28.862C109.865 28.9177 110.097 28.9965 110.328 29.0986V25.7868L112.402 25.4528V36.0144ZM113.995 32.647C113.995 31.9976 114.093 31.4317 114.288 30.9493C114.492 30.4576 114.756 30.0495 115.081 29.7248C115.405 29.4001 115.776 29.1542 116.194 28.9873C116.621 28.8203 117.057 28.7368 117.502 28.7368C118.541 28.7368 119.362 29.0568 119.965 29.6969C120.568 30.3278 120.869 31.2601 120.869 32.4939C120.869 32.6145 120.865 32.749 120.856 32.8974C120.846 33.0366 120.837 33.1618 120.828 33.2731H116.124C116.171 33.6999 116.37 34.0385 116.723 34.2889C117.075 34.5394 117.548 34.6646 118.142 34.6646C118.522 34.6646 118.893 34.6322 119.255 34.5672C119.626 34.493 119.928 34.4049 120.16 34.3029L120.438 35.9866C120.327 36.0422 120.178 36.0979 119.993 36.1536C119.807 36.2092 119.599 36.2556 119.367 36.2927C119.144 36.3391 118.903 36.3762 118.643 36.404C118.383 36.4319 118.124 36.4458 117.864 36.4458C117.205 36.4458 116.63 36.3484 116.138 36.1536C115.656 35.9588 115.252 35.6944 114.928 35.3604C114.612 35.0172 114.376 34.6136 114.218 34.1498C114.07 33.686 113.995 33.185 113.995 32.647ZM118.866 31.8538C118.856 31.6775 118.824 31.5059 118.768 31.3389C118.722 31.1719 118.643 31.0235 118.532 30.8936C118.43 30.7638 118.295 30.6571 118.128 30.5736C117.97 30.4901 117.771 30.4484 117.53 30.4484C117.298 30.4484 117.098 30.4901 116.931 30.5736C116.764 30.6478 116.625 30.7499 116.514 30.8797C116.403 31.0096 116.315 31.1627 116.25 31.3389C116.194 31.5059 116.152 31.6775 116.124 31.8538H118.866Z" fill="#414652"/>
<rect x="7.51196" y="56.5818" width="326.975" height="162.301" stroke="#ECECEC" stroke-width="1.0249"/>
<path d="M6.99951 109.859H335" stroke="#ECECEC" stroke-width="1.0249"/>
<path d="M6.99951 83.4531H335" stroke="#ECECEC" stroke-width="1.0249"/>
<path d="M6.99951 136.265H335" stroke="#ECECEC" stroke-width="1.0249"/>
<path d="M6.99951 162.671H335" stroke="#ECECEC" stroke-width="1.0249"/>
<path d="M6.99951 189.077H335" stroke="#ECECEC" stroke-width="1.0249"/>
<path d="M62.1772 56.0693L62.1772 219.395" stroke="#ECECEC" stroke-width="1.0249"/>
<path d="M116.333 56.0693L116.333 219.395" stroke="#ECECEC" stroke-width="1.0249"/>
<path d="M170.488 56.0693L170.488 219.395" stroke="#ECECEC" stroke-width="1.0249"/>
<path d="M224.645 56.0693L224.645 219.395" stroke="#ECECEC" stroke-width="1.0249"/>
<path d="M278.801 56.0693L278.801 219.395" stroke="#ECECEC" stroke-width="1.0249"/>
<path d="M6.99951 56.832H335" stroke="#ECECEC" stroke-width="1.5302"/>
<path d="M271.843 56.0693L271.843 219.395" stroke="#7D7D7D" stroke-width="2.98182"/>
<path d="M40.7935 161.25L96.951 82.2314L135.349 172.691L172.49 115.451L215.727 161.25L240.575 134.91L271.884 208.959" stroke="#A8A8A8" stroke-width="3.97576"/>
<line x1="7.99365" y1="109.678" x2="334.468" y2="109.678" stroke="black" stroke-width="0.765102" stroke-dasharray="6.12 6.12"/>
<path d="M23.7381 93.2878H24.414L23.6785 96.2795H27.2467L27.9623 93.2878H28.6382L26.9982 100.176H26.3223L27.1175 96.866H23.5592L22.764 100.176H22.0882L23.7381 93.2878ZM29.8436 95.0371H30.4897L29.2472 100.176H28.6012L29.8436 95.0371ZM30.102 93.5363C30.102 93.364 30.1484 93.2348 30.2412 93.1486C30.3406 93.0559 30.4466 93.0095 30.5592 93.0095C30.6918 93.0095 30.7945 93.0525 30.8674 93.1387C30.9402 93.2182 30.9767 93.3242 30.9767 93.4568C30.9767 93.6158 30.9237 93.7384 30.8177 93.8245C30.7116 93.9106 30.6056 93.9537 30.4996 93.9537C30.3671 93.9537 30.2677 93.9173 30.2014 93.8444C30.1352 93.7649 30.102 93.6622 30.102 93.5363ZM35.0056 95.5838C34.7936 95.5308 34.5882 95.5043 34.3894 95.5043C33.9322 95.5043 33.5346 95.5838 33.1967 95.7428C32.8654 95.9018 32.5904 96.1073 32.3717 96.3591C32.153 96.6042 31.9907 96.8792 31.8847 97.184C31.7786 97.4822 31.7256 97.7704 31.7256 98.0488C31.7256 98.2277 31.7422 98.3999 31.7753 98.5656C31.8085 98.7246 31.8648 98.8638 31.9443 98.9831C32.0238 99.1023 32.1332 99.1984 32.2723 99.2713C32.4115 99.3376 32.5904 99.3707 32.809 99.3707C33.0343 99.3707 33.2662 99.3309 33.5048 99.2514C33.75 99.1653 33.9819 99.0526 34.2005 98.9135L35.0056 95.5838ZM30.5528 101.06C30.6919 101.173 30.8907 101.266 31.1492 101.339C31.4142 101.412 31.6759 101.448 31.9344 101.448C32.544 101.448 33.0111 101.309 33.3358 101.031C33.6671 100.752 33.8825 100.358 33.9819 99.8478L34.0316 99.5894C33.8328 99.7153 33.6207 99.8113 33.3955 99.8776C33.1702 99.9372 32.9449 99.9671 32.7196 99.9671C32.4346 99.9671 32.1862 99.9207 31.9741 99.8279C31.7687 99.7351 31.5997 99.6092 31.4672 99.4502C31.3347 99.2845 31.2353 99.0957 31.169 98.8837C31.1028 98.665 31.0696 98.4331 31.0696 98.1879C31.0696 97.8102 31.1359 97.4292 31.2684 97.0449C31.4076 96.6539 31.6196 96.3027 31.9045 95.9913C32.1895 95.6732 32.544 95.4148 32.9681 95.216C33.3988 95.0172 33.909 94.9178 34.4987 94.9178C34.7373 94.9178 34.9626 94.9443 35.1746 94.9974C35.3866 95.0437 35.5755 95.1133 35.7412 95.2061L34.6279 99.8378C34.5617 100.116 34.4755 100.388 34.3695 100.653C34.2635 100.918 34.1078 101.153 33.9024 101.359C33.697 101.564 33.422 101.73 33.0774 101.856C32.7395 101.981 32.3021 102.044 31.7654 102.044C31.6594 102.044 31.5401 102.034 31.4076 102.015C31.2751 102.001 31.1392 101.978 31.0001 101.945C30.8675 101.912 30.7383 101.872 30.6124 101.826C30.4865 101.786 30.3739 101.736 30.2745 101.677L30.5528 101.06ZM36.7988 100.176H36.1528L37.9618 92.5821L38.6376 92.4628L37.9816 95.1763C38.3991 95.004 38.7933 94.9178 39.1644 94.9178C39.3897 94.9178 39.5984 94.951 39.7906 95.0172C39.9828 95.0835 40.1517 95.1829 40.2975 95.3154C40.4433 95.4479 40.5559 95.6169 40.6355 95.8223C40.7216 96.0211 40.7647 96.2597 40.7647 96.538C40.7647 96.7102 40.7514 96.8892 40.7249 97.0747C40.6984 97.2536 40.662 97.4358 40.6156 97.6214L39.9993 100.176H39.3533L39.8999 97.8897C39.9529 97.6711 40.0026 97.4491 40.049 97.2238C40.0954 96.9985 40.1186 96.7831 40.1186 96.5777C40.1186 96.3789 40.0855 96.2133 40.0192 96.0808C39.9596 95.9416 39.8767 95.8323 39.7707 95.7528C39.6713 95.6666 39.5521 95.607 39.4129 95.5738C39.2738 95.5341 39.128 95.5142 38.9756 95.5142C38.7834 95.5142 38.5879 95.5341 38.3891 95.5738C38.197 95.6136 38.0148 95.6633 37.8425 95.7229L36.7988 100.176ZM46.851 93.8742H44.7438L44.873 93.2878H49.7732L49.634 93.8742H47.5269L46.0161 100.176H45.3402L46.851 93.8742ZM52.4469 95.5937C52.3277 95.5672 52.2183 95.5473 52.1189 95.5341C52.0196 95.5208 51.9168 95.5142 51.8108 95.5142C51.4 95.5142 51.0356 95.5937 50.7175 95.7528C50.3994 95.9118 50.1311 96.1205 49.9124 96.3789C49.6937 96.6374 49.5248 96.9322 49.4055 97.2635C49.2928 97.5949 49.2365 97.9328 49.2365 98.2774C49.2365 98.549 49.263 98.7776 49.316 98.9632C49.369 99.1421 49.4419 99.2879 49.5347 99.4005C49.6275 99.5065 49.7335 99.586 49.8528 99.6391C49.9787 99.6854 50.1112 99.7086 50.2503 99.7086C50.522 99.7086 50.7771 99.6457 51.0157 99.5198C51.2542 99.3873 51.4795 99.2017 51.6916 98.9632C51.6916 98.7843 51.7181 98.5789 51.7711 98.3469C51.8241 98.115 51.8738 97.9063 51.9202 97.7208L52.4469 95.5937ZM51.8705 100.235C51.8307 100.156 51.7943 100.066 51.7611 99.9671C51.7346 99.861 51.7147 99.755 51.7015 99.649C51.4696 99.8743 51.2244 100.04 50.966 100.146C50.7142 100.252 50.4524 100.305 50.1808 100.305C49.9687 100.305 49.7666 100.269 49.5745 100.196C49.3823 100.123 49.2133 100.01 49.0676 99.8577C48.9218 99.7053 48.8025 99.5098 48.7097 99.2713C48.6236 99.0261 48.5805 98.7379 48.5805 98.4066C48.5805 97.8765 48.6667 97.3961 48.8389 96.9654C49.0112 96.5346 49.2498 96.1702 49.5546 95.872C49.866 95.5672 50.2305 95.332 50.6479 95.1663C51.072 95.0007 51.5325 94.9178 52.0295 94.9178C52.4403 94.9178 52.8346 94.9874 53.2123 95.1266L52.4469 98.2177C52.4072 98.3834 52.3741 98.5391 52.3476 98.6849C52.321 98.8306 52.3078 98.9698 52.3078 99.1023C52.3078 99.2812 52.3244 99.4502 52.3575 99.6092C52.3906 99.7683 52.4503 99.9439 52.5364 100.136L51.8705 100.235ZM54.7972 95.2657C55.049 95.1663 55.324 95.0835 55.6222 95.0172C55.927 94.951 56.2252 94.9178 56.5167 94.9178C56.6691 94.9178 56.8149 94.9278 56.9541 94.9477C57.0932 94.9675 57.2257 95.0007 57.3516 95.0471L57.1827 95.6335C56.9243 95.554 56.6592 95.5142 56.3875 95.5142C56.2152 95.5142 56.043 95.5275 55.8707 95.554C55.6984 95.5805 55.5261 95.6202 55.3538 95.6732L54.2704 100.176H53.6244L54.7972 95.2657ZM61.2616 95.5838C61.0495 95.5308 60.8441 95.5043 60.6453 95.5043C60.1881 95.5043 59.7905 95.5838 59.4526 95.7428C59.1213 95.9018 58.8463 96.1073 58.6276 96.3591C58.409 96.6042 58.2466 96.8792 58.1406 97.184C58.0346 97.4822 57.9816 97.7704 57.9816 98.0488C57.9816 98.2277 57.9981 98.3999 58.0313 98.5656C58.0644 98.7246 58.1207 98.8638 58.2002 98.9831C58.2797 99.1023 58.3891 99.1984 58.5282 99.2713C58.6674 99.3376 58.8463 99.3707 59.065 99.3707C59.2902 99.3707 59.5222 99.3309 59.7607 99.2514C60.0059 99.1653 60.2378 99.0526 60.4565 98.9135L61.2616 95.5838ZM56.8087 101.06C56.9479 101.173 57.1466 101.266 57.4051 101.339C57.6701 101.412 57.9319 101.448 58.1903 101.448C58.7999 101.448 59.2671 101.309 59.5917 101.031C59.9231 100.752 60.1384 100.358 60.2378 99.8478L60.2875 99.5894C60.0887 99.7153 59.8767 99.8113 59.6514 99.8776C59.4261 99.9372 59.2008 99.9671 58.9755 99.9671C58.6906 99.9671 58.4421 99.9207 58.23 99.8279C58.0246 99.7351 57.8557 99.6092 57.7231 99.4502C57.5906 99.2845 57.4912 99.0957 57.425 98.8837C57.3587 98.665 57.3256 98.4331 57.3256 98.1879C57.3256 97.8102 57.3918 97.4292 57.5243 97.0449C57.6635 96.6539 57.8755 96.3027 58.1605 95.9913C58.4454 95.6732 58.7999 95.4148 59.224 95.216C59.6547 95.0172 60.1649 94.9178 60.7546 94.9178C60.9932 94.9178 61.2185 94.9443 61.4305 94.9974C61.6426 95.0437 61.8314 95.1133 61.9971 95.2061L60.8839 99.8378C60.8176 100.116 60.7315 100.388 60.6254 100.653C60.5194 100.918 60.3637 101.153 60.1583 101.359C59.9529 101.564 59.6779 101.73 59.3333 101.856C58.9954 101.981 58.558 102.044 58.0213 102.044C57.9153 102.044 57.796 102.034 57.6635 102.015C57.531 102.001 57.3951 101.978 57.256 101.945C57.1235 101.912 56.9942 101.872 56.8683 101.826C56.7424 101.786 56.6298 101.736 56.5304 101.677L56.8087 101.06ZM66.951 96.2398C66.951 96.6109 66.8582 96.9123 66.6727 97.1443C66.4938 97.3762 66.2387 97.5617 65.9074 97.7009C65.5827 97.8334 65.1884 97.9295 64.7246 97.9891C64.2674 98.0488 63.7571 98.0918 63.1939 98.1183V98.3271C63.1939 98.5192 63.2138 98.6981 63.2536 98.8638C63.2933 99.0294 63.3662 99.1752 63.4722 99.3011C63.5782 99.4204 63.724 99.5165 63.9096 99.5894C64.1017 99.6622 64.3469 99.6987 64.6451 99.6987C64.877 99.6987 65.1089 99.6656 65.3408 99.5993C65.5794 99.533 65.8047 99.4336 66.0167 99.3011L66.0863 99.8975C65.861 100.023 65.6125 100.119 65.3408 100.186C65.0691 100.259 64.7942 100.295 64.5159 100.295C64.1514 100.295 63.8433 100.249 63.5915 100.156C63.3463 100.063 63.1442 99.9339 62.9852 99.7683C62.8328 99.6026 62.7234 99.4038 62.6572 99.1719C62.5909 98.94 62.5578 98.6849 62.5578 98.4066C62.5578 97.9825 62.6207 97.5617 62.7466 97.1443C62.8792 96.7268 63.0713 96.3524 63.3231 96.0211C63.5749 95.6898 63.883 95.4248 64.2475 95.226C64.6186 95.0205 65.0393 94.9178 65.5098 94.9178C65.9736 94.9178 66.3281 95.0404 66.5733 95.2856C66.8251 95.5241 66.951 95.8422 66.951 96.2398ZM65.4502 95.5043C65.1851 95.5043 64.9366 95.5606 64.7047 95.6732C64.4728 95.7793 64.2641 95.925 64.0785 96.1106C63.893 96.2961 63.7306 96.5115 63.5915 96.7566C63.459 97.0018 63.3596 97.2602 63.2933 97.5319C63.8565 97.5186 64.3303 97.4822 64.7146 97.4226C65.099 97.3629 65.4071 97.2801 65.639 97.1741C65.8776 97.0681 66.0465 96.9422 66.1459 96.7964C66.2453 96.644 66.295 96.4717 66.295 96.2795C66.295 96.0211 66.2155 95.829 66.0565 95.7031C65.9041 95.5705 65.702 95.5043 65.4502 95.5043ZM68.8025 93.5263L69.4784 93.4071L69.0908 95.0371H70.8997L70.7705 95.5937H68.9516L68.3453 98.1084C68.3122 98.2277 68.2824 98.3569 68.2559 98.496C68.236 98.6285 68.226 98.7611 68.226 98.8936C68.226 99.1918 68.2989 99.4005 68.4447 99.5198C68.5905 99.6391 68.7727 99.6987 68.9914 99.6987C69.2034 99.6987 69.3856 99.6755 69.538 99.6291C69.6971 99.5827 69.8627 99.5198 70.035 99.4403L70.0946 100.027C69.9157 100.1 69.7136 100.163 69.4883 100.216C69.2697 100.269 69.051 100.295 68.8323 100.295C68.6601 100.295 68.4977 100.275 68.3453 100.235C68.1929 100.196 68.0571 100.129 67.9378 100.037C67.8252 99.9439 67.7324 99.8213 67.6595 99.6689C67.5932 99.5165 67.5601 99.3243 67.5601 99.0924C67.5601 98.8075 67.6065 98.4795 67.6993 98.1084L68.8025 93.5263Z" fill="#414652" fill-opacity="0.6"/>
<path d="M23.2369 197.651H23.9128L22.402 203.963H25.4534L25.3242 204.539H21.5969L23.2369 197.651ZM26.6535 202.889C26.6535 203.28 26.7628 203.575 26.9815 203.774C27.2001 203.973 27.4619 204.072 27.7667 204.072C28.0052 204.072 28.2504 204.012 28.5022 203.893C28.754 203.767 28.9826 203.582 29.188 203.336C29.4 203.085 29.5723 202.77 29.7048 202.392C29.844 202.014 29.9136 201.57 29.9136 201.06C29.9136 200.669 29.8042 200.374 29.5856 200.176C29.3669 199.977 29.1052 199.877 28.8004 199.877C28.5618 199.877 28.3166 199.94 28.0648 200.066C27.813 200.186 27.5811 200.371 27.3691 200.623C27.1637 200.868 26.9914 201.18 26.8522 201.557C26.7197 201.935 26.6535 202.379 26.6535 202.889ZM30.5696 201.011C30.5696 201.633 30.4801 202.173 30.3012 202.631C30.1289 203.088 29.9036 203.469 29.6253 203.774C29.3537 204.072 29.0488 204.294 28.7109 204.44C28.3796 204.585 28.0516 204.658 27.7269 204.658C27.495 204.658 27.273 204.622 27.061 204.549C26.8556 204.476 26.6733 204.367 26.5143 204.221C26.3553 204.075 26.2294 203.896 26.1366 203.684C26.0438 203.466 25.9975 203.214 25.9975 202.929C25.9975 202.306 26.0836 201.766 26.2559 201.309C26.4348 200.852 26.6601 200.474 26.9318 200.176C27.2101 199.877 27.5149 199.656 27.8462 199.51C28.1841 199.364 28.5154 199.291 28.8401 199.291C29.072 199.291 29.2907 199.328 29.4961 199.4C29.7082 199.473 29.8937 199.583 30.0527 199.728C30.2118 199.874 30.3377 200.056 30.4304 200.275C30.5232 200.487 30.5696 200.732 30.5696 201.011ZM32.7003 204.539H32.0244C31.8852 203.81 31.7726 203.012 31.6864 202.144C31.6069 201.276 31.5605 200.361 31.5473 199.4H32.1834C32.19 199.752 32.2033 200.136 32.2232 200.553C32.243 200.964 32.2695 201.375 32.3027 201.786C32.3358 202.197 32.3723 202.584 32.412 202.949C32.4518 203.313 32.4982 203.618 32.5512 203.863C32.7632 203.565 32.9786 203.234 33.1972 202.869C33.4225 202.505 33.6346 202.127 33.8333 201.736C34.0388 201.339 34.2276 200.941 34.3999 200.543C34.5788 200.146 34.7279 199.765 34.8472 199.4H35.5131C35.5131 199.725 35.5197 200.08 35.533 200.464C35.5529 200.848 35.5761 201.239 35.6026 201.637C35.6291 202.034 35.6589 202.425 35.692 202.81C35.7318 203.194 35.7748 203.545 35.8212 203.863C35.9803 203.684 36.1724 203.416 36.3977 203.058C36.6296 202.694 36.8615 202.299 37.0935 201.875C37.3254 201.445 37.5407 201.011 37.7395 200.573C37.9449 200.136 38.0973 199.745 38.1967 199.4H38.8329C38.6805 199.891 38.4817 200.394 38.2365 200.911C37.9913 201.421 37.7296 201.908 37.4513 202.372C37.1796 202.829 36.9079 203.25 36.6363 203.635C36.3646 204.012 36.126 204.314 35.9206 204.539H35.2447C35.1785 203.956 35.1155 203.326 35.0559 202.651C34.9963 201.975 34.9598 201.309 34.9466 200.653C34.814 200.964 34.6583 201.299 34.4794 201.657C34.3071 202.008 34.1216 202.359 33.9228 202.71C33.724 203.055 33.5186 203.386 33.3066 203.704C33.1011 204.022 32.899 204.301 32.7003 204.539ZM43.9429 198.237H41.8357L41.9649 197.651H46.8651L46.7259 198.237H44.6188L43.108 204.539H42.4321L43.9429 198.237ZM49.5388 199.957C49.4196 199.93 49.3102 199.911 49.2108 199.897C49.1114 199.884 49.0087 199.877 48.9027 199.877C48.4919 199.877 48.1274 199.957 47.8094 200.116C47.4913 200.275 47.223 200.484 47.0043 200.742C46.7856 201.001 46.6166 201.296 46.4974 201.627C46.3847 201.958 46.3284 202.296 46.3284 202.641C46.3284 202.912 46.3549 203.141 46.4079 203.326C46.4609 203.505 46.5338 203.651 46.6266 203.764C46.7194 203.87 46.8254 203.949 46.9446 204.002C47.0705 204.049 47.2031 204.072 47.3422 204.072C47.6139 204.072 47.869 204.009 48.1076 203.883C48.3461 203.751 48.5714 203.565 48.7834 203.326C48.7834 203.148 48.8099 202.942 48.863 202.71C48.916 202.478 48.9657 202.27 49.012 202.084L49.5388 199.957ZM48.9623 204.599C48.9226 204.519 48.8861 204.43 48.853 204.33C48.8265 204.224 48.8066 204.118 48.7934 204.012C48.5615 204.238 48.3163 204.403 48.0579 204.509C47.8061 204.615 47.5443 204.668 47.2726 204.668C47.0606 204.668 46.8585 204.632 46.6663 204.559C46.4742 204.486 46.3052 204.373 46.1594 204.221C46.0137 204.069 45.8944 203.873 45.8016 203.635C45.7155 203.389 45.6724 203.101 45.6724 202.77C45.6724 202.24 45.7585 201.759 45.9308 201.329C46.1031 200.898 46.3417 200.533 46.6465 200.235C46.9579 199.93 47.3223 199.695 47.7398 199.53C48.1639 199.364 48.6244 199.281 49.1214 199.281C49.5322 199.281 49.9265 199.351 50.3042 199.49L49.5388 202.581C49.4991 202.747 49.4659 202.902 49.4394 203.048C49.4129 203.194 49.3997 203.333 49.3997 203.466C49.3997 203.645 49.4162 203.813 49.4494 203.973C49.4825 204.132 49.5421 204.307 49.6283 204.499L48.9623 204.599ZM51.8891 199.629C52.1409 199.53 52.4159 199.447 52.7141 199.381C53.0189 199.314 53.3171 199.281 53.6086 199.281C53.761 199.281 53.9068 199.291 54.046 199.311C54.1851 199.331 54.3176 199.364 54.4435 199.41L54.2746 199.997C54.0161 199.917 53.7511 199.877 53.4794 199.877C53.3071 199.877 53.1348 199.891 52.9626 199.917C52.7903 199.944 52.618 199.984 52.4457 200.037L51.3623 204.539H50.7163L51.8891 199.629ZM58.3534 199.947C58.1414 199.894 57.936 199.868 57.7372 199.868C57.28 199.868 56.8824 199.947 56.5445 200.106C56.2132 200.265 55.9382 200.471 55.7195 200.722C55.5008 200.968 55.3385 201.242 55.2325 201.547C55.1265 201.845 55.0734 202.134 55.0734 202.412C55.0734 202.591 55.09 202.763 55.1231 202.929C55.1563 203.088 55.2126 203.227 55.2921 203.346C55.3716 203.466 55.481 203.562 55.6201 203.635C55.7593 203.701 55.9382 203.734 56.1568 203.734C56.3821 203.734 56.614 203.694 56.8526 203.615C57.0978 203.529 57.3297 203.416 57.5484 203.277L58.3534 199.947ZM53.9006 205.424C54.0397 205.536 54.2385 205.629 54.497 205.702C54.762 205.775 55.0237 205.811 55.2822 205.811C55.8918 205.811 56.3589 205.672 56.6836 205.394C57.0149 205.116 57.2303 204.721 57.3297 204.211L57.3794 203.953C57.1806 204.079 56.9686 204.175 56.7433 204.241C56.518 204.301 56.2927 204.33 56.0674 204.33C55.7825 204.33 55.534 204.284 55.3219 204.191C55.1165 204.098 54.9475 203.973 54.815 203.813C54.6825 203.648 54.5831 203.459 54.5168 203.247C54.4506 203.028 54.4174 202.796 54.4174 202.551C54.4174 202.173 54.4837 201.792 54.6162 201.408C54.7554 201.017 54.9674 200.666 55.2524 200.355C55.5373 200.037 55.8918 199.778 56.3159 199.579C56.7466 199.381 57.2568 199.281 57.8465 199.281C58.0851 199.281 58.3104 199.308 58.5224 199.361C58.7345 199.407 58.9233 199.477 59.089 199.569L57.9757 204.201C57.9095 204.479 57.8233 204.751 57.7173 205.016C57.6113 205.281 57.4556 205.516 57.2502 205.722C57.0448 205.927 56.7698 206.093 56.4252 206.219C56.0873 206.345 55.6499 206.408 55.1132 206.408C55.0072 206.408 54.8879 206.398 54.7554 206.378C54.6229 206.365 54.487 206.341 54.3479 206.308C54.2153 206.275 54.0861 206.235 53.9602 206.189C53.8343 206.149 53.7217 206.1 53.6223 206.04L53.9006 205.424ZM64.0429 200.603C64.0429 200.974 63.9501 201.276 63.7646 201.508C63.5857 201.739 63.3306 201.925 62.9993 202.064C62.6746 202.197 62.2803 202.293 61.8165 202.352C61.3593 202.412 60.849 202.455 60.2858 202.482V202.69C60.2858 202.882 60.3057 203.061 60.3454 203.227C60.3852 203.393 60.4581 203.538 60.5641 203.664C60.6701 203.784 60.8159 203.88 61.0014 203.953C61.1936 204.026 61.4388 204.062 61.737 204.062C61.9689 204.062 62.2008 204.029 62.4327 203.963C62.6713 203.896 62.8965 203.797 63.1086 203.664L63.1782 204.261C62.9529 204.387 62.7044 204.483 62.4327 204.549C62.161 204.622 61.886 204.658 61.6077 204.658C61.2433 204.658 60.9352 204.612 60.6834 204.519C60.4382 204.426 60.2361 204.297 60.0771 204.132C59.9247 203.966 59.8153 203.767 59.7491 203.535C59.6828 203.303 59.6497 203.048 59.6497 202.77C59.6497 202.346 59.7126 201.925 59.8385 201.508C59.9711 201.09 60.1632 200.716 60.415 200.384C60.6668 200.053 60.9749 199.788 61.3394 199.589C61.7104 199.384 62.1312 199.281 62.6017 199.281C63.0655 199.281 63.42 199.404 63.6652 199.649C63.917 199.887 64.0429 200.205 64.0429 200.603ZM62.542 199.868C62.277 199.868 62.0285 199.924 61.7966 200.037C61.5647 200.143 61.3559 200.288 61.1704 200.474C60.9849 200.659 60.8225 200.875 60.6834 201.12C60.5508 201.365 60.4515 201.624 60.3852 201.895C60.9484 201.882 61.4222 201.845 61.8065 201.786C62.1908 201.726 62.499 201.643 62.7309 201.537C62.9694 201.431 63.1384 201.305 63.2378 201.16C63.3372 201.007 63.3869 200.835 63.3869 200.643C63.3869 200.384 63.3074 200.192 63.1483 200.066C62.9959 199.934 62.7938 199.868 62.542 199.868ZM65.8944 197.89L66.5703 197.77L66.1827 199.4H67.9916L67.8624 199.957H66.0435L65.4372 202.472C65.4041 202.591 65.3743 202.72 65.3477 202.859C65.3279 202.992 65.3179 203.124 65.3179 203.257C65.3179 203.555 65.3908 203.764 65.5366 203.883C65.6824 204.002 65.8646 204.062 66.0833 204.062C66.2953 204.062 66.4775 204.039 66.6299 203.992C66.789 203.946 66.9546 203.883 67.1269 203.804L67.1865 204.39C67.0076 204.463 66.8055 204.526 66.5802 204.579C66.3616 204.632 66.1429 204.658 65.9242 204.658C65.752 204.658 65.5896 204.638 65.4372 204.599C65.2848 204.559 65.149 204.493 65.0297 204.4C64.917 204.307 64.8243 204.185 64.7514 204.032C64.6851 203.88 64.652 203.688 64.652 203.456C64.652 203.171 64.6984 202.843 64.7911 202.472L65.8944 197.89Z" fill="#414652" fill-opacity="0.6"/>
<line x1="6.99951" y1="188.484" x2="333.474" y2="188.484" stroke="black" stroke-width="0.765102" stroke-dasharray="6.12 6.12"/>
<rect x="143.169" y="13.6484" width="81.503" height="33.7939" rx="15.903" fill="#00A79E"/>
<path d="M175.691 26.7556C175.818 27.1903 175.956 27.6833 176.105 28.2346C176.264 28.7753 176.428 29.3372 176.598 29.9203C176.778 30.5034 176.958 31.0866 177.138 31.6697C177.318 32.2528 177.493 32.7935 177.663 33.2918C177.801 32.7511 177.939 32.1627 178.077 31.5265C178.225 30.8904 178.363 30.2331 178.49 29.5546C178.617 28.876 178.739 28.2028 178.856 27.5349C178.983 26.8564 179.1 26.2043 179.206 25.5788H181.782C181.411 27.4236 180.981 29.2948 180.494 31.1926C180.017 33.0903 179.497 34.8927 178.935 36.5996H176.661C176.29 35.5818 175.93 34.5163 175.58 33.4031C175.23 32.2793 174.885 31.1555 174.546 30.0317C174.207 31.1555 173.868 32.2793 173.528 33.4031C173.189 34.5163 172.834 35.5818 172.463 36.5996H170.189C169.627 34.8927 169.102 33.0903 168.614 31.1926C168.137 29.2948 167.713 27.4236 167.342 25.5788H170.03C170.136 26.2043 170.252 26.8564 170.379 27.5349C170.507 28.2028 170.639 28.876 170.777 29.5546C170.915 30.2331 171.053 30.8904 171.191 31.5265C171.339 32.1627 171.487 32.7511 171.636 33.2918C171.827 32.7723 172.012 32.221 172.192 31.6379C172.373 31.0548 172.548 30.4716 172.717 29.8885C172.887 29.3054 173.041 28.7435 173.178 28.2028C173.327 27.6621 173.459 27.1797 173.576 26.7556H175.691ZM185.587 36.5996H183.217V28.2346H185.587V36.5996ZM185.809 25.8174C185.809 26.252 185.666 26.5966 185.38 26.8511C185.104 27.0949 184.776 27.2168 184.394 27.2168C184.012 27.2168 183.678 27.0949 183.392 26.8511C183.116 26.5966 182.979 26.252 182.979 25.8174C182.979 25.3827 183.116 25.0434 183.392 24.7996C183.678 24.5451 184.012 24.4179 184.394 24.4179C184.776 24.4179 185.104 24.5451 185.38 24.7996C185.666 25.0434 185.809 25.3827 185.809 25.8174ZM187.814 28.5209C188.217 28.4042 188.736 28.2982 189.373 28.2028C190.009 28.0968 190.677 28.0438 191.376 28.0438C192.087 28.0438 192.675 28.1392 193.142 28.33C193.619 28.5103 193.995 28.77 194.271 29.1093C194.546 29.4485 194.742 29.8514 194.859 30.3179C194.976 30.7844 195.034 31.3039 195.034 31.8764V36.5996H192.664V32.1627C192.664 31.3993 192.564 30.8586 192.362 30.5406C192.161 30.2225 191.784 30.0635 191.233 30.0635C191.064 30.0635 190.883 30.0741 190.692 30.0953C190.502 30.1059 190.332 30.1218 190.184 30.143V36.5996H187.814V28.5209ZM199.612 28.4255C199.612 29.2842 199.58 30.0847 199.517 30.8268C199.453 31.569 199.368 32.3217 199.262 33.085H197.449C197.343 32.3217 197.253 31.569 197.179 30.8268C197.115 30.0847 197.083 29.2842 197.083 28.4255V25.5788H199.612V28.4255ZM199.819 35.3433C199.819 35.8098 199.665 36.1702 199.358 36.4247C199.061 36.6791 198.721 36.8063 198.34 36.8063C197.958 36.8063 197.613 36.6791 197.306 36.4247C197.009 36.1702 196.861 35.8098 196.861 35.3433C196.861 34.8768 197.009 34.5163 197.306 34.2619C197.613 34.0074 197.958 33.8802 198.34 33.8802C198.721 33.8802 199.061 34.0074 199.358 34.2619C199.665 34.5163 199.819 34.8768 199.819 35.3433Z" fill="white"/>
<path d="M21.8728 142.105C23.0814 142.105 23.6857 141.691 23.6857 140.864C23.6857 140.61 23.6301 140.395 23.5188 140.22C23.4154 140.037 23.2723 139.882 23.0894 139.755C22.9065 139.62 22.6958 139.505 22.4572 139.409C22.2266 139.314 21.9801 139.218 21.7177 139.123C21.4156 139.02 21.1293 138.904 20.859 138.777C20.5886 138.642 20.3541 138.487 20.1553 138.312C19.9565 138.129 19.7974 137.914 19.6782 137.668C19.5669 137.421 19.5112 137.123 19.5112 136.773C19.5112 136.05 19.7577 135.485 20.2507 135.08C20.7437 134.674 21.4235 134.471 22.2902 134.471C22.7912 134.471 23.2444 134.527 23.65 134.638C24.0634 134.742 24.3656 134.857 24.5564 134.984L24.1867 135.926C24.0197 135.823 23.7692 135.724 23.4353 135.628C23.1093 135.525 22.7276 135.473 22.2902 135.473C22.0676 135.473 21.8609 135.497 21.67 135.545C21.4792 135.592 21.3122 135.664 21.1691 135.759C21.026 135.855 20.9107 135.978 20.8232 136.129C20.7437 136.272 20.7039 136.443 20.7039 136.642C20.7039 136.865 20.7477 137.052 20.8351 137.203C20.9226 137.354 21.0458 137.489 21.2049 137.608C21.3639 137.719 21.5468 137.823 21.7535 137.918C21.9682 138.014 22.2028 138.109 22.4572 138.205C22.815 138.348 23.1411 138.491 23.4353 138.634C23.7374 138.777 23.9958 138.948 24.2105 139.147C24.4332 139.346 24.6041 139.584 24.7234 139.862C24.8427 140.133 24.9023 140.463 24.9023 140.852C24.9023 141.576 24.6359 142.133 24.1032 142.522C23.5784 142.912 22.8349 143.107 21.8728 143.107C21.5468 143.107 21.2446 143.083 20.9663 143.035C20.696 142.995 20.4534 142.948 20.2388 142.892C20.0241 142.828 19.8372 142.765 19.6782 142.701C19.5271 142.63 19.4078 142.57 19.3204 142.522L19.6662 141.568C19.8491 141.671 20.1274 141.787 20.5012 141.914C20.8749 142.041 21.3321 142.105 21.8728 142.105ZM27.2666 136.726H29.6163V137.656H27.2666V140.518C27.2666 140.829 27.2905 141.087 27.3382 141.294C27.3859 141.492 27.4575 141.652 27.5529 141.771C27.6483 141.882 27.7676 141.962 27.9107 142.009C28.0538 142.057 28.2208 142.081 28.4116 142.081C28.7456 142.081 29.012 142.045 29.2108 141.974C29.4175 141.894 29.5606 141.838 29.6402 141.807L29.8548 142.725C29.7435 142.781 29.5487 142.848 29.2704 142.928C28.9921 143.015 28.674 143.059 28.3162 143.059C27.8948 143.059 27.5449 143.007 27.2666 142.904C26.9963 142.793 26.7776 142.63 26.6106 142.415C26.4436 142.2 26.3244 141.938 26.2528 141.628C26.1892 141.31 26.1574 140.944 26.1574 140.53V134.996L27.2666 134.805V136.726ZM33.127 142.129C33.3894 142.129 33.62 142.125 33.8188 142.117C34.0255 142.101 34.1965 142.077 34.3317 142.045V140.196C34.2522 140.157 34.121 140.125 33.9381 140.101C33.7631 140.069 33.5484 140.053 33.294 140.053C33.127 140.053 32.9481 140.065 32.7573 140.089C32.5744 140.113 32.4034 140.165 32.2444 140.244C32.0933 140.316 31.9661 140.419 31.8627 140.554C31.7594 140.681 31.7077 140.852 31.7077 141.067C31.7077 141.465 31.8349 141.743 32.0893 141.902C32.3438 142.053 32.6897 142.129 33.127 142.129ZM33.0316 136.57C33.4769 136.57 33.8506 136.63 34.1528 136.749C34.4629 136.861 34.7094 137.024 34.8923 137.238C35.0831 137.445 35.2183 137.696 35.2978 137.99C35.3773 138.276 35.4171 138.594 35.4171 138.944V142.82C35.3216 142.836 35.1865 142.86 35.0115 142.892C34.8445 142.916 34.6537 142.94 34.439 142.964C34.2243 142.987 33.9898 143.007 33.7353 143.023C33.4888 143.047 33.2423 143.059 32.9958 143.059C32.6459 143.059 32.3239 143.023 32.0297 142.952C31.7355 142.88 31.4811 142.769 31.2664 142.618C31.0517 142.459 30.8847 142.252 30.7654 141.997C30.6461 141.743 30.5865 141.437 30.5865 141.079C30.5865 140.737 30.6541 140.443 30.7893 140.196C30.9324 139.95 31.1232 139.751 31.3618 139.6C31.6003 139.449 31.8786 139.338 32.1967 139.266C32.5147 139.194 32.8487 139.159 33.1986 139.159C33.3099 139.159 33.4252 139.167 33.5445 139.183C33.6637 139.191 33.7751 139.206 33.8784 139.23C33.9898 139.246 34.0852 139.262 34.1647 139.278C34.2442 139.294 34.2999 139.306 34.3317 139.314V139.004C34.3317 138.821 34.3118 138.642 34.272 138.467C34.2323 138.284 34.1607 138.125 34.0573 137.99C33.954 137.847 33.8108 137.735 33.628 137.656C33.453 137.568 33.2224 137.525 32.9362 137.525C32.5704 137.525 32.2484 137.553 31.9701 137.608C31.6997 137.656 31.497 137.708 31.3618 137.763L31.2306 136.845C31.3737 136.781 31.6123 136.722 31.9462 136.666C32.2802 136.602 32.642 136.57 33.0316 136.57ZM39.5494 136.594C39.6448 136.594 39.7522 136.602 39.8714 136.618C39.9986 136.626 40.1219 136.642 40.2412 136.666C40.3604 136.682 40.4678 136.702 40.5632 136.726C40.6666 136.741 40.7421 136.757 40.7898 136.773L40.599 137.739C40.5115 137.708 40.3644 137.672 40.1577 137.632C39.9589 137.584 39.7005 137.56 39.3824 137.56C39.1757 137.56 38.9689 137.584 38.7622 137.632C38.5634 137.672 38.4322 137.7 38.3686 137.716V142.928H37.2594V136.988C37.5218 136.893 37.8478 136.805 38.2374 136.726C38.627 136.638 39.0643 136.594 39.5494 136.594ZM42.8979 136.726H45.2475V137.656H42.8979V140.518C42.8979 140.829 42.9217 141.087 42.9694 141.294C43.0171 141.492 43.0887 141.652 43.1841 141.771C43.2795 141.882 43.3988 141.962 43.5419 142.009C43.6851 142.057 43.8521 142.081 44.0429 142.081C44.3769 142.081 44.6432 142.045 44.842 141.974C45.0488 141.894 45.1919 141.838 45.2714 141.807L45.4861 142.725C45.3748 142.781 45.18 142.848 44.9017 142.928C44.6234 143.015 44.3053 143.059 43.9475 143.059C43.526 143.059 43.1762 143.007 42.8979 142.904C42.6275 142.793 42.4089 142.63 42.2419 142.415C42.0749 142.2 41.9556 141.938 41.8841 141.628C41.8204 141.31 41.7886 140.944 41.7886 140.53V134.996L42.8979 134.805V136.726Z" fill="#414652"/>
<path d="M49.2419 157.77C49.2419 162.161 45.6819 165.721 41.2904 165.721C36.8989 165.721 33.3389 162.161 33.3389 157.77C33.3389 153.378 36.8989 149.818 41.2904 149.818C45.6819 149.818 49.2419 153.378 49.2419 157.77Z" fill="#FF444F"/>
<path d="M280.333 203.492C280.333 207.883 276.773 211.443 272.382 211.443C267.99 211.443 264.43 207.883 264.43 203.492C264.43 199.1 267.99 195.54 272.382 195.54C276.773 195.54 280.333 199.1 280.333 203.492Z" fill="#FF444F"/>
<path d="M288.317 206.54V198.274H293.362V199.264H289.474V201.721H292.933V202.688H289.474V205.55H293.66V206.54H288.317ZM295.059 200.517C295.314 200.453 295.652 200.386 296.073 200.314C296.494 200.242 296.979 200.207 297.528 200.207C298.021 200.207 298.431 200.278 298.757 200.421C299.083 200.557 299.341 200.751 299.532 201.006C299.731 201.252 299.87 201.55 299.949 201.9C300.029 202.25 300.069 202.636 300.069 203.057V206.54H298.959V203.296C298.959 202.914 298.932 202.588 298.876 202.318C298.828 202.047 298.745 201.829 298.625 201.662C298.506 201.495 298.347 201.376 298.148 201.304C297.949 201.224 297.703 201.185 297.409 201.185C297.29 201.185 297.166 201.189 297.039 201.197C296.912 201.205 296.789 201.216 296.669 201.232C296.558 201.24 296.455 201.252 296.359 201.268C296.272 201.284 296.208 201.296 296.168 201.304V206.54H295.059V200.517ZM305.916 201.65C305.78 201.539 305.586 201.431 305.331 201.328C305.077 201.224 304.798 201.173 304.496 201.173C304.178 201.173 303.904 201.232 303.673 201.352C303.451 201.463 303.268 201.622 303.125 201.829C302.981 202.028 302.878 202.266 302.814 202.544C302.751 202.823 302.719 203.121 302.719 203.439C302.719 204.163 302.898 204.723 303.256 205.121C303.614 205.51 304.091 205.705 304.687 205.705C304.989 205.705 305.24 205.693 305.438 205.669C305.645 205.638 305.804 205.606 305.916 205.574V201.65ZM305.916 197.475L307.025 197.284V206.361C306.77 206.433 306.444 206.504 306.047 206.576C305.649 206.647 305.192 206.683 304.675 206.683C304.198 206.683 303.769 206.608 303.387 206.457C303.005 206.305 302.679 206.091 302.409 205.812C302.139 205.534 301.928 205.196 301.777 204.799C301.634 204.393 301.562 203.94 301.562 203.439C301.562 202.962 301.622 202.525 301.741 202.127C301.868 201.729 302.051 201.387 302.29 201.101C302.528 200.815 302.818 200.592 303.16 200.433C303.51 200.274 303.908 200.195 304.353 200.195C304.711 200.195 305.025 200.242 305.295 200.338C305.574 200.433 305.78 200.525 305.916 200.612V197.475Z" fill="#414652"/>
<defs>
<filter id="filter0_d_2591_26910" x="0.0972133" y="0.175427" width="341.805" height="227.502" filterUnits="userSpaceOnUse" color-interpolation-filters="sRGB">
<feFlood flood-opacity="0" result="BackgroundImageFix"/>
<feColorMatrix in="SourceAlpha" type="matrix" values="0 0 0 0 0 0 0 0 0 0 0 0 0 0 0 0 0 0 127 0" result="hardAlpha"/>
<feOffset dy="1.38046"/>
<feGaussianBlur stdDeviation="3.45115"/>
<feComposite in2="hardAlpha" operator="out"/>
<feColorMatrix type="matrix" values="0 0 0 0 0 0 0 0 0 0 0 0 0 0 0 0 0 0 0.1 0"/>
<feBlend mode="normal" in2="BackgroundImageFix" result="effect1_dropShadow_2591_26910"/>
<feBlend mode="normal" in="SourceGraphic" in2="effect1_dropShadow_2591_26910" result="shape"/>
</filter>
</defs>
</svg>
