<svg width="342" height="228" viewBox="0 0 342 228" fill="none" xmlns="http://www.w3.org/2000/svg">
<g filter="url(#filter0_d_2591_26876)">
<rect x="6.99951" y="6" width="328" height="213.697" rx="4.14138" fill="white"/>
</g>
<path d="M34.81 36.5537V26.9105H41.3223V28.7334H36.9808V30.6259H40.8353V32.407H36.9808V34.7308H41.6423V36.5537H34.81ZM43.1096 29.4848C43.4621 29.3828 43.9167 29.29 44.4733 29.2065C45.0299 29.1137 45.6143 29.0674 46.2266 29.0674C46.8482 29.0674 47.363 29.1508 47.7712 29.3178C48.1886 29.4755 48.518 29.7028 48.7592 29.9997C49.0004 30.2965 49.172 30.649 49.274 31.0572C49.3761 31.4654 49.4271 31.92 49.4271 32.4209V36.5537H47.3537V32.6714C47.3537 32.0035 47.2656 31.5303 47.0894 31.252C46.9131 30.9737 46.5838 30.8346 46.1014 30.8346C45.9529 30.8346 45.7952 30.8439 45.6283 30.8624C45.4613 30.8717 45.3128 30.8856 45.183 30.9042V36.5537H43.1096V29.4848ZM53.071 32.8384C53.071 33.4785 53.2148 33.9933 53.5024 34.3829C53.79 34.7726 54.2167 34.9674 54.7826 34.9674C54.9681 34.9674 55.1397 34.9627 55.2974 34.9535C55.4551 34.9349 55.585 34.9164 55.6871 34.8978V31.1268C55.5572 31.0433 55.3856 30.9737 55.1722 30.9181C54.9681 30.8624 54.7594 30.8346 54.546 30.8346C53.5627 30.8346 53.071 31.5025 53.071 32.8384ZM57.7604 36.3172C57.5749 36.3728 57.3615 36.4285 57.1203 36.4841C56.8791 36.5305 56.624 36.5723 56.355 36.6094C56.0952 36.6465 55.8262 36.6743 55.5479 36.6929C55.2789 36.7207 55.0191 36.7346 54.7687 36.7346C54.1657 36.7346 53.6276 36.6465 53.1545 36.4702C52.6814 36.294 52.2825 36.0435 51.9578 35.7188C51.6331 35.3848 51.3826 34.9859 51.2064 34.5221C51.0394 34.049 50.9559 33.5202 50.9559 32.9358C50.9559 32.3421 51.0301 31.8086 51.1786 31.3355C51.327 30.8531 51.5403 30.445 51.8187 30.111C52.097 29.777 52.4356 29.5219 52.8345 29.3457C53.2426 29.1694 53.7065 29.0813 54.226 29.0813C54.5136 29.0813 54.7687 29.1091 54.9913 29.1648C55.2232 29.2204 55.4551 29.2993 55.6871 29.4013V26.0895L57.7604 25.7556V36.3172ZM61.803 35.0648C62.1833 35.0648 62.4524 35.0277 62.6101 34.9535C62.7678 34.8793 62.8466 34.7355 62.8466 34.5221C62.8466 34.3551 62.7446 34.2113 62.5405 34.0907C62.3364 33.9609 62.0256 33.8171 61.6082 33.6594C61.2835 33.5388 60.9866 33.4135 60.7176 33.2837C60.4579 33.1538 60.2352 33.0007 60.0497 32.8245C59.8641 32.6389 59.7204 32.4209 59.6183 32.1704C59.5163 31.92 59.4652 31.6185 59.4652 31.266C59.4652 30.5795 59.7204 30.0368 60.2306 29.6379C60.7408 29.239 61.4412 29.0395 62.3318 29.0395C62.7771 29.0395 63.2038 29.0813 63.612 29.1648C64.0201 29.239 64.3448 29.3225 64.586 29.4152L64.2242 31.0294C63.983 30.9459 63.7186 30.8717 63.4311 30.8068C63.1528 30.7418 62.8374 30.7093 62.4848 30.7093C61.8355 30.7093 61.5108 30.8902 61.5108 31.252C61.5108 31.3355 61.5247 31.4097 61.5525 31.4747C61.5803 31.5396 61.636 31.6046 61.7195 31.6695C61.803 31.7252 61.9143 31.7901 62.0535 31.8643C62.2019 31.9292 62.3874 32.0035 62.6101 32.0869C63.0646 32.2539 63.4403 32.4209 63.7372 32.5879C64.0341 32.7456 64.266 32.9219 64.433 33.1167C64.6092 33.3022 64.7298 33.5109 64.7947 33.7429C64.869 33.9748 64.9061 34.2438 64.9061 34.5499C64.9061 35.2735 64.6324 35.8208 64.0851 36.1919C63.547 36.563 62.7817 36.7485 61.7891 36.7485C61.1397 36.7485 60.597 36.6929 60.161 36.5815C59.7343 36.4702 59.4374 36.3775 59.2704 36.3032L59.6183 34.6195C59.9708 34.7587 60.3326 34.87 60.7037 34.9535C61.0748 35.0277 61.4412 35.0648 61.803 35.0648ZM73.152 36.6789C72.6232 36.6789 72.0944 36.6604 71.5657 36.6233C71.0462 36.5955 70.5035 36.5212 69.9376 36.4006V27.0497C70.3829 26.9662 70.8699 26.9059 71.3987 26.8688C71.9275 26.8224 72.4191 26.7992 72.8737 26.7992C73.486 26.7992 74.0472 26.8456 74.5574 26.9383C75.0769 27.0218 75.5222 27.1703 75.8933 27.3836C76.2644 27.597 76.5519 27.8799 76.756 28.2324C76.9694 28.5757 77.0761 29.0024 77.0761 29.5126C77.0761 30.2826 76.705 30.8902 75.9629 31.3355C76.5751 31.5674 76.9926 31.8829 77.2152 32.2818C77.4379 32.6807 77.5492 33.1306 77.5492 33.6315C77.5492 34.6427 77.1781 35.4034 76.436 35.9136C75.7031 36.4238 74.6084 36.6789 73.152 36.6789ZM72.0527 32.3513V34.8421C72.2104 34.8607 72.382 34.8746 72.5676 34.8839C72.7531 34.8932 72.9572 34.8978 73.1798 34.8978C73.8292 34.8978 74.3533 34.805 74.7522 34.6195C75.1511 34.434 75.3506 34.0907 75.3506 33.5898C75.3506 33.1445 75.1836 32.8291 74.8496 32.6436C74.5157 32.4487 74.0379 32.3513 73.4164 32.3513H72.0527ZM72.0527 30.6954H73.1102C73.7782 30.6954 74.2559 30.6119 74.5435 30.445C74.8311 30.2687 74.9749 29.9904 74.9749 29.6101C74.9749 29.2204 74.8265 28.9468 74.5296 28.7891C74.2327 28.6314 73.7967 28.5525 73.2216 28.5525C73.036 28.5525 72.8366 28.5571 72.6232 28.5664C72.4099 28.5664 72.2197 28.5757 72.0527 28.5942V30.6954ZM78.7998 32.9497C78.7998 32.3003 78.8972 31.7344 79.092 31.252C79.2961 30.7604 79.5605 30.3522 79.8852 30.0275C80.2099 29.7028 80.5809 29.457 80.9984 29.29C81.4251 29.123 81.8611 29.0395 82.3064 29.0395C83.3454 29.0395 84.1664 29.3596 84.7694 29.9997C85.3724 30.6305 85.6739 31.5628 85.6739 32.7966C85.6739 32.9172 85.6693 33.0517 85.66 33.2002C85.6507 33.3393 85.6414 33.4645 85.6321 33.5759H80.9288C80.9752 34.0026 81.1747 34.3412 81.5272 34.5917C81.8797 34.8421 82.3528 34.9674 82.9465 34.9674C83.3269 34.9674 83.6979 34.9349 84.0597 34.87C84.4308 34.7958 84.7323 34.7076 84.9642 34.6056L85.2425 36.2893C85.1312 36.345 84.9828 36.4006 84.7972 36.4563C84.6117 36.512 84.403 36.5583 84.1711 36.5955C83.9484 36.6418 83.7072 36.6789 83.4475 36.7068C83.1877 36.7346 82.928 36.7485 82.6682 36.7485C82.0096 36.7485 81.4344 36.6511 80.9427 36.4563C80.4603 36.2615 80.0568 35.9971 79.7321 35.6631C79.4167 35.3199 79.1802 34.9164 79.0224 34.4525C78.874 33.9887 78.7998 33.4877 78.7998 32.9497ZM83.6701 32.1565C83.6608 31.9803 83.6284 31.8086 83.5727 31.6417C83.5263 31.4747 83.4475 31.3263 83.3361 31.1964C83.2341 31.0665 83.0996 30.9598 82.9326 30.8763C82.7749 30.7928 82.5754 30.7511 82.3343 30.7511C82.1023 30.7511 81.9029 30.7928 81.7359 30.8763C81.5689 30.9505 81.4298 31.0526 81.3184 31.1825C81.2071 31.3123 81.119 31.4654 81.0541 31.6417C80.9984 31.8086 80.9567 31.9803 80.9288 32.1565H83.6701ZM87.2043 27.4115L89.2777 27.0775V29.2343H91.7685V30.9598H89.2777V33.5341C89.2777 33.9701 89.3519 34.318 89.5003 34.5778C89.658 34.8375 89.9688 34.9674 90.4327 34.9674C90.6553 34.9674 90.8826 34.9488 91.1145 34.9117C91.3557 34.8653 91.5737 34.805 91.7685 34.7308L92.0607 36.345C91.8103 36.447 91.532 36.5352 91.2258 36.6094C90.9197 36.6836 90.544 36.7207 90.0987 36.7207C89.5328 36.7207 89.0643 36.6465 88.6933 36.4981C88.3222 36.3403 88.0253 36.127 87.8027 35.858C87.58 35.5797 87.4223 35.2457 87.3296 34.8561C87.2461 34.4664 87.2043 34.0351 87.2043 33.562V27.4115ZM98.0457 32.3513C97.8601 33.0564 97.6607 33.7568 97.4473 34.4525C97.2432 35.1483 97.0252 35.8487 96.7933 36.5537H95.1791C95.0122 36.1641 94.8313 35.7002 94.6364 35.1622C94.4416 34.6241 94.2375 34.0397 94.0242 33.4089C93.8201 32.7688 93.6067 32.0962 93.3841 31.3912C93.1707 30.6769 92.962 29.9579 92.7579 29.2343H94.9426C95.0168 29.5683 95.0956 29.9347 95.1791 30.3336C95.2719 30.7233 95.3647 31.1268 95.4574 31.5443C95.5595 31.9617 95.6615 32.3838 95.7636 32.8105C95.8749 33.228 95.9862 33.6315 96.0975 34.0212C96.2181 33.613 96.3341 33.1955 96.4454 32.7688C96.566 32.3421 96.6773 31.9246 96.7794 31.5164C96.8907 31.099 96.9927 30.7001 97.0855 30.3197C97.1876 29.9301 97.2757 29.5683 97.3499 29.2343H98.8527C98.927 29.5683 99.0104 29.9301 99.1032 30.3197C99.196 30.7001 99.2934 31.099 99.3954 31.5164C99.4975 31.9246 99.6042 32.3421 99.7155 32.7688C99.8268 33.1955 99.9428 33.613 100.063 34.0212C100.175 33.6315 100.286 33.228 100.397 32.8105C100.509 32.3838 100.611 31.9617 100.703 31.5443C100.805 31.1268 100.898 30.7233 100.982 30.3336C101.075 29.9347 101.158 29.5683 101.232 29.2343H103.389C103.185 29.9579 102.972 30.6769 102.749 31.3912C102.536 32.0962 102.322 32.7688 102.109 33.4089C101.905 34.0397 101.701 34.6241 101.497 35.1622C101.302 35.7002 101.121 36.1641 100.954 36.5537H99.3398C99.1078 35.8487 98.8806 35.1483 98.6579 34.4525C98.4353 33.7568 98.2312 33.0564 98.0457 32.3513ZM103.994 32.9497C103.994 32.3003 104.091 31.7344 104.286 31.252C104.49 30.7604 104.755 30.3522 105.079 30.0275C105.404 29.7028 105.775 29.457 106.192 29.29C106.619 29.123 107.055 29.0395 107.5 29.0395C108.539 29.0395 109.36 29.3596 109.963 29.9997C110.566 30.6305 110.868 31.5628 110.868 32.7966C110.868 32.9172 110.863 33.0517 110.854 33.2002C110.845 33.3393 110.835 33.4645 110.826 33.5759H106.123C106.169 34.0026 106.369 34.3412 106.721 34.5917C107.074 34.8421 107.547 34.9674 108.141 34.9674C108.521 34.9674 108.892 34.9349 109.254 34.87C109.625 34.7958 109.926 34.7076 110.158 34.6056L110.437 36.2893C110.325 36.345 110.177 36.4006 109.991 36.4563C109.806 36.512 109.597 36.5583 109.365 36.5955C109.142 36.6418 108.901 36.6789 108.642 36.7068C108.382 36.7346 108.122 36.7485 107.862 36.7485C107.204 36.7485 106.628 36.6511 106.137 36.4563C105.654 36.2615 105.251 35.9971 104.926 35.6631C104.611 35.3199 104.374 34.9164 104.216 34.4525C104.068 33.9887 103.994 33.4877 103.994 32.9497ZM108.864 32.1565C108.855 31.9803 108.822 31.8086 108.767 31.6417C108.72 31.4747 108.642 31.3263 108.53 31.1964C108.428 31.0665 108.294 30.9598 108.127 30.8763C107.969 30.7928 107.769 30.7511 107.528 30.7511C107.296 30.7511 107.097 30.7928 106.93 30.8763C106.763 30.9505 106.624 31.0526 106.512 31.1825C106.401 31.3123 106.313 31.4654 106.248 31.6417C106.192 31.8086 106.151 31.9803 106.123 32.1565H108.864ZM112.12 32.9497C112.12 32.3003 112.217 31.7344 112.412 31.252C112.616 30.7604 112.881 30.3522 113.205 30.0275C113.53 29.7028 113.901 29.457 114.319 29.29C114.745 29.123 115.181 29.0395 115.627 29.0395C116.666 29.0395 117.487 29.3596 118.09 29.9997C118.693 30.6305 118.994 31.5628 118.994 32.7966C118.994 32.9172 118.99 33.0517 118.98 33.2002C118.971 33.3393 118.962 33.4645 118.952 33.5759H114.249C114.295 34.0026 114.495 34.3412 114.847 34.5917C115.2 34.8421 115.673 34.9674 116.267 34.9674C116.647 34.9674 117.018 34.9349 117.38 34.87C117.751 34.7958 118.053 34.7076 118.284 34.6056L118.563 36.2893C118.451 36.345 118.303 36.4006 118.118 36.4563C117.932 36.512 117.723 36.5583 117.491 36.5955C117.269 36.6418 117.027 36.6789 116.768 36.7068C116.508 36.7346 116.248 36.7485 115.988 36.7485C115.33 36.7485 114.755 36.6511 114.263 36.4563C113.781 36.2615 113.377 35.9971 113.052 35.6631C112.737 35.3199 112.5 34.9164 112.343 34.4525C112.194 33.9887 112.12 33.4877 112.12 32.9497ZM116.99 32.1565C116.981 31.9803 116.949 31.8086 116.893 31.6417C116.847 31.4747 116.768 31.3263 116.656 31.1964C116.554 31.0665 116.42 30.9598 116.253 30.8763C116.095 30.7928 115.896 30.7511 115.655 30.7511C115.423 30.7511 115.223 30.7928 115.056 30.8763C114.889 30.9505 114.75 31.0526 114.639 31.1825C114.527 31.3123 114.439 31.4654 114.374 31.6417C114.319 31.8086 114.277 31.9803 114.249 32.1565H116.99ZM120.594 29.4848C120.947 29.3828 121.401 29.29 121.958 29.2065C122.514 29.1137 123.099 29.0674 123.711 29.0674C124.333 29.0674 124.848 29.1508 125.256 29.3178C125.673 29.4755 126.003 29.7028 126.244 29.9997C126.485 30.2965 126.657 30.649 126.759 31.0572C126.861 31.4654 126.912 31.92 126.912 32.4209V36.5537H124.838V32.6714C124.838 32.0035 124.75 31.5303 124.574 31.252C124.398 30.9737 124.068 30.8346 123.586 30.8346C123.438 30.8346 123.28 30.8439 123.113 30.8624C122.946 30.8717 122.797 30.8856 122.668 30.9042V36.5537H120.594V29.4848Z" fill="#414652"/>
<rect x="7.51196" y="56.8835" width="326.975" height="162.301" stroke="#ECECEC" stroke-width="1.0249"/>
<path d="M6.99951 110.161H335" stroke="#ECECEC" stroke-width="1.0249"/>
<path d="M6.99951 83.7549H335" stroke="#ECECEC" stroke-width="1.0249"/>
<path d="M6.99951 136.566H335" stroke="#ECECEC" stroke-width="1.0249"/>
<path d="M6.99951 162.974H335" stroke="#ECECEC" stroke-width="1.0249"/>
<path d="M6.99951 189.379H335" stroke="#ECECEC" stroke-width="1.0249"/>
<path d="M62.1772 56.3711L62.1772 219.697" stroke="#ECECEC" stroke-width="1.0249"/>
<path d="M116.332 56.3711L116.332 219.697" stroke="#ECECEC" stroke-width="1.0249"/>
<path d="M170.488 56.3711L170.488 219.697" stroke="#ECECEC" stroke-width="1.0249"/>
<path d="M224.645 56.3711L224.645 219.697" stroke="#ECECEC" stroke-width="1.0249"/>
<path d="M278.801 56.3711L278.801 219.697" stroke="#ECECEC" stroke-width="1.0249"/>
<path d="M6.99951 57.1348H335" stroke="#ECECEC" stroke-width="1.5302"/>
<path d="M271.842 56.3711L271.842 219.697" stroke="#7D7D7D" stroke-width="2.98182"/>
<path d="M40.7935 161.551L96.951 82.5332L135.349 172.993L172.49 115.752L215.727 161.551L240.575 135.212L271.884 209.26" stroke="#A8A8A8" stroke-width="2.98182"/>
<line x1="7.99365" y1="109.981" x2="334.468" y2="109.981" stroke="black" stroke-width="0.765102" stroke-dasharray="6.12 6.12"/>
<path d="M23.7381 93.5905H24.414L23.6785 96.5823H27.2467L27.9623 93.5905H28.6382L26.9982 100.479H26.3223L27.1175 97.1687H23.5592L22.764 100.479H22.0882L23.7381 93.5905ZM29.8436 95.3398H30.4897L29.2472 100.479H28.6012L29.8436 95.3398ZM30.102 93.839C30.102 93.6667 30.1484 93.5375 30.2412 93.4514C30.3406 93.3586 30.4466 93.3122 30.5592 93.3122C30.6918 93.3122 30.7945 93.3553 30.8674 93.4414C30.9402 93.5209 30.9767 93.627 30.9767 93.7595C30.9767 93.9185 30.9237 94.0411 30.8177 94.1272C30.7116 94.2134 30.6056 94.2565 30.4996 94.2565C30.3671 94.2565 30.2677 94.22 30.2014 94.1471C30.1352 94.0676 30.102 93.9649 30.102 93.839ZM35.0056 95.8865C34.7936 95.8335 34.5882 95.807 34.3894 95.807C33.9322 95.807 33.5346 95.8865 33.1967 96.0455C32.8654 96.2046 32.5904 96.41 32.3717 96.6618C32.153 96.907 31.9907 97.1819 31.8847 97.4868C31.7786 97.7849 31.7256 98.0732 31.7256 98.3515C31.7256 98.5304 31.7422 98.7027 31.7753 98.8683C31.8085 99.0274 31.8648 99.1665 31.9443 99.2858C32.0238 99.4051 32.1332 99.5011 32.2723 99.574C32.4115 99.6403 32.5904 99.6734 32.809 99.6734C33.0343 99.6734 33.2662 99.6337 33.5048 99.5542C33.75 99.468 33.9819 99.3554 34.2005 99.2162L35.0056 95.8865ZM30.5528 101.363C30.6919 101.476 30.8907 101.569 31.1492 101.641C31.4142 101.714 31.6759 101.751 31.9344 101.751C32.544 101.751 33.0111 101.612 33.3358 101.333C33.6671 101.055 33.8825 100.661 33.9819 100.151L34.0316 99.8921C33.8328 100.018 33.6207 100.114 33.3955 100.18C33.1702 100.24 32.9449 100.27 32.7196 100.27C32.4346 100.27 32.1862 100.223 31.9741 100.131C31.7687 100.038 31.5997 99.912 31.4672 99.7529C31.3347 99.5873 31.2353 99.3984 31.169 99.1864C31.1028 98.9677 31.0696 98.7358 31.0696 98.4906C31.0696 98.1129 31.1359 97.7319 31.2684 97.3476C31.4076 96.9567 31.6196 96.6055 31.9045 96.294C32.1895 95.976 32.544 95.7175 32.9681 95.5188C33.3988 95.32 33.909 95.2206 34.4987 95.2206C34.7373 95.2206 34.9626 95.2471 35.1746 95.3001C35.3866 95.3465 35.5755 95.4161 35.7412 95.5088L34.6279 100.141C34.5617 100.419 34.4755 100.691 34.3695 100.956C34.2635 101.221 34.1078 101.456 33.9024 101.661C33.697 101.867 33.422 102.032 33.0774 102.158C32.7395 102.284 32.3021 102.347 31.7654 102.347C31.6594 102.347 31.5401 102.337 31.4076 102.317C31.2751 102.304 31.1392 102.281 31.0001 102.248C30.8675 102.215 30.7383 102.175 30.6124 102.128C30.4865 102.089 30.3739 102.039 30.2745 101.979L30.5528 101.363ZM36.7988 100.479H36.1528L37.9618 92.8848L38.6376 92.7655L37.9816 95.479C38.3991 95.3067 38.7933 95.2206 39.1644 95.2206C39.3897 95.2206 39.5984 95.2537 39.7906 95.32C39.9828 95.3862 40.1517 95.4856 40.2975 95.6182C40.4433 95.7507 40.5559 95.9196 40.6355 96.1251C40.7216 96.3238 40.7647 96.5624 40.7647 96.8407C40.7647 97.013 40.7514 97.1919 40.7249 97.3774C40.6984 97.5563 40.662 97.7386 40.6156 97.9241L39.9993 100.479H39.3533L39.8999 98.1925C39.9529 97.9738 40.0026 97.7518 40.049 97.5265C40.0954 97.3012 40.1186 97.0859 40.1186 96.8805C40.1186 96.6817 40.0855 96.516 40.0192 96.3835C39.9596 96.2443 39.8767 96.135 39.7707 96.0555C39.6713 95.9693 39.5521 95.9097 39.4129 95.8766C39.2738 95.8368 39.128 95.8169 38.9756 95.8169C38.7834 95.8169 38.5879 95.8368 38.3891 95.8766C38.197 95.9163 38.0148 95.966 37.8425 96.0257L36.7988 100.479ZM46.851 94.1769H44.7438L44.873 93.5905H49.7732L49.634 94.1769H47.5269L46.0161 100.479H45.3402L46.851 94.1769ZM52.4469 95.8965C52.3277 95.8699 52.2183 95.8501 52.1189 95.8368C52.0196 95.8236 51.9168 95.8169 51.8108 95.8169C51.4 95.8169 51.0356 95.8965 50.7175 96.0555C50.3994 96.2145 50.1311 96.4232 49.9124 96.6817C49.6937 96.9401 49.5248 97.235 49.4055 97.5663C49.2928 97.8976 49.2365 98.2355 49.2365 98.5801C49.2365 98.8518 49.263 99.0804 49.316 99.2659C49.369 99.4448 49.4419 99.5906 49.5347 99.7032C49.6275 99.8093 49.7335 99.8888 49.8528 99.9418C49.9787 99.9882 50.1112 100.011 50.2503 100.011C50.522 100.011 50.7771 99.9484 51.0157 99.8225C51.2542 99.69 51.4795 99.5045 51.6916 99.2659C51.6916 99.087 51.7181 98.8816 51.7711 98.6497C51.8241 98.4177 51.8738 98.209 51.9202 98.0235L52.4469 95.8965ZM51.8705 100.538C51.8307 100.459 51.7943 100.369 51.7611 100.27C51.7346 100.164 51.7147 100.058 51.7015 99.9517C51.4696 100.177 51.2244 100.343 50.966 100.449C50.7142 100.555 50.4524 100.608 50.1808 100.608C49.9687 100.608 49.7666 100.571 49.5745 100.498C49.3823 100.426 49.2133 100.313 49.0676 100.16C48.9218 100.008 48.8025 99.8126 48.7097 99.574C48.6236 99.3289 48.5805 99.0406 48.5805 98.7093C48.5805 98.1792 48.6667 97.6988 48.8389 97.2681C49.0112 96.8374 49.2498 96.4729 49.5546 96.1748C49.866 95.8699 50.2305 95.6347 50.6479 95.4691C51.072 95.3034 51.5325 95.2206 52.0295 95.2206C52.4403 95.2206 52.8346 95.2902 53.2123 95.4293L52.4469 98.5205C52.4072 98.6861 52.3741 98.8418 52.3476 98.9876C52.321 99.1334 52.3078 99.2725 52.3078 99.4051C52.3078 99.584 52.3244 99.7529 52.3575 99.912C52.3906 100.071 52.4503 100.247 52.5364 100.439L51.8705 100.538ZM54.7972 95.5685C55.049 95.4691 55.324 95.3862 55.6222 95.32C55.927 95.2537 56.2252 95.2206 56.5167 95.2206C56.6691 95.2206 56.8149 95.2305 56.9541 95.2504C57.0932 95.2703 57.2257 95.3034 57.3516 95.3498L57.1827 95.9362C56.9243 95.8567 56.6592 95.8169 56.3875 95.8169C56.2152 95.8169 56.043 95.8302 55.8707 95.8567C55.6984 95.8832 55.5261 95.923 55.3538 95.976L54.2704 100.479H53.6244L54.7972 95.5685ZM61.2616 95.8865C61.0495 95.8335 60.8441 95.807 60.6453 95.807C60.1881 95.807 59.7905 95.8865 59.4526 96.0455C59.1213 96.2046 58.8463 96.41 58.6276 96.6618C58.409 96.907 58.2466 97.1819 58.1406 97.4868C58.0346 97.7849 57.9816 98.0732 57.9816 98.3515C57.9816 98.5304 57.9981 98.7027 58.0313 98.8683C58.0644 99.0274 58.1207 99.1665 58.2002 99.2858C58.2797 99.4051 58.3891 99.5011 58.5282 99.574C58.6674 99.6403 58.8463 99.6734 59.065 99.6734C59.2902 99.6734 59.5222 99.6337 59.7607 99.5542C60.0059 99.468 60.2378 99.3554 60.4565 99.2162L61.2616 95.8865ZM56.8087 101.363C56.9479 101.476 57.1466 101.569 57.4051 101.641C57.6701 101.714 57.9319 101.751 58.1903 101.751C58.7999 101.751 59.2671 101.612 59.5917 101.333C59.9231 101.055 60.1384 100.661 60.2378 100.151L60.2875 99.8921C60.0887 100.018 59.8767 100.114 59.6514 100.18C59.4261 100.24 59.2008 100.27 58.9755 100.27C58.6906 100.27 58.4421 100.223 58.23 100.131C58.0246 100.038 57.8557 99.912 57.7231 99.7529C57.5906 99.5873 57.4912 99.3984 57.425 99.1864C57.3587 98.9677 57.3256 98.7358 57.3256 98.4906C57.3256 98.1129 57.3918 97.7319 57.5243 97.3476C57.6635 96.9567 57.8755 96.6055 58.1605 96.294C58.4454 95.976 58.7999 95.7175 59.224 95.5188C59.6547 95.32 60.1649 95.2206 60.7546 95.2206C60.9932 95.2206 61.2185 95.2471 61.4305 95.3001C61.6426 95.3465 61.8314 95.4161 61.9971 95.5088L60.8839 100.141C60.8176 100.419 60.7315 100.691 60.6254 100.956C60.5194 101.221 60.3637 101.456 60.1583 101.661C59.9529 101.867 59.6779 102.032 59.3333 102.158C58.9954 102.284 58.558 102.347 58.0213 102.347C57.9153 102.347 57.796 102.337 57.6635 102.317C57.531 102.304 57.3951 102.281 57.256 102.248C57.1235 102.215 56.9942 102.175 56.8683 102.128C56.7424 102.089 56.6298 102.039 56.5304 101.979L56.8087 101.363ZM66.951 96.5425C66.951 96.9136 66.8582 97.2151 66.6727 97.447C66.4938 97.6789 66.2387 97.8645 65.9074 98.0036C65.5827 98.1361 65.1884 98.2322 64.7246 98.2918C64.2674 98.3515 63.7571 98.3946 63.1939 98.4211V98.6298C63.1939 98.8219 63.2138 99.0009 63.2536 99.1665C63.2933 99.3322 63.3662 99.4779 63.4722 99.6038C63.5782 99.7231 63.724 99.8192 63.9096 99.8921C64.1017 99.965 64.3469 100.001 64.6451 100.001C64.877 100.001 65.1089 99.9683 65.3408 99.902C65.5794 99.8358 65.8047 99.7364 66.0167 99.6038L66.0863 100.2C65.861 100.326 65.6125 100.422 65.3408 100.488C65.0691 100.561 64.7942 100.598 64.5159 100.598C64.1514 100.598 63.8433 100.551 63.5915 100.459C63.3463 100.366 63.1442 100.237 62.9852 100.071C62.8328 99.9053 62.7234 99.7066 62.6572 99.4746C62.5909 99.2427 62.5578 98.9876 62.5578 98.7093C62.5578 98.2852 62.6207 97.8645 62.7466 97.447C62.8792 97.0295 63.0713 96.6552 63.3231 96.3238C63.5749 95.9925 63.883 95.7275 64.2475 95.5287C64.6186 95.3233 65.0393 95.2206 65.5098 95.2206C65.9736 95.2206 66.3281 95.3432 66.5733 95.5883C66.8251 95.8269 66.951 96.1449 66.951 96.5425ZM65.4502 95.807C65.1851 95.807 64.9366 95.8633 64.7047 95.976C64.4728 96.082 64.2641 96.2278 64.0785 96.4133C63.893 96.5988 63.7306 96.8142 63.5915 97.0594C63.459 97.3045 63.3596 97.563 63.2933 97.8346C63.8565 97.8214 64.3303 97.7849 64.7146 97.7253C65.099 97.6657 65.4071 97.5828 65.639 97.4768C65.8776 97.3708 66.0465 97.2449 66.1459 97.0991C66.2453 96.9467 66.295 96.7744 66.295 96.5823C66.295 96.3238 66.2155 96.1317 66.0565 96.0058C65.9041 95.8733 65.702 95.807 65.4502 95.807ZM68.8025 93.8291L69.4784 93.7098L69.0908 95.3398H70.8997L70.7705 95.8965H68.9516L68.3453 98.4111C68.3122 98.5304 68.2824 98.6596 68.2559 98.7988C68.236 98.9313 68.226 99.0638 68.226 99.1963C68.226 99.4945 68.2989 99.7032 68.4447 99.8225C68.5905 99.9418 68.7727 100.001 68.9914 100.001C69.2034 100.001 69.3856 99.9782 69.538 99.9318C69.6971 99.8855 69.8627 99.8225 70.035 99.743L70.0946 100.329C69.9157 100.402 69.7136 100.465 69.4883 100.518C69.2697 100.571 69.051 100.598 68.8323 100.598C68.6601 100.598 68.4977 100.578 68.3453 100.538C68.1929 100.498 68.0571 100.432 67.9378 100.339C67.8252 100.247 67.7324 100.124 67.6595 99.9716C67.5932 99.8192 67.5601 99.627 67.5601 99.3951C67.5601 99.1102 67.6065 98.7822 67.6993 98.4111L68.8025 93.8291Z" fill="#414652" fill-opacity="0.6"/>
<path d="M23.2369 197.955H23.9128L22.402 204.266H25.4534L25.3242 204.843H21.5969L23.2369 197.955ZM26.6535 203.193C26.6535 203.584 26.7628 203.879 26.9815 204.077C27.2001 204.276 27.4619 204.376 27.7667 204.376C28.0052 204.376 28.2504 204.316 28.5022 204.197C28.754 204.071 28.9826 203.885 29.188 203.64C29.4 203.388 29.5723 203.074 29.7048 202.696C29.844 202.318 29.9136 201.874 29.9136 201.364C29.9136 200.973 29.8042 200.678 29.5856 200.479C29.3669 200.281 29.1052 200.181 28.8004 200.181C28.5618 200.181 28.3166 200.244 28.0648 200.37C27.813 200.489 27.5811 200.675 27.3691 200.927C27.1637 201.172 26.9914 201.483 26.8522 201.861C26.7197 202.239 26.6535 202.683 26.6535 203.193ZM30.5696 201.314C30.5696 201.937 30.4801 202.477 30.3012 202.934C30.1289 203.392 29.9036 203.773 29.6253 204.077C29.3537 204.376 29.0488 204.598 28.7109 204.743C28.3796 204.889 28.0516 204.962 27.7269 204.962C27.495 204.962 27.273 204.926 27.061 204.853C26.8556 204.78 26.6733 204.67 26.5143 204.525C26.3553 204.379 26.2294 204.2 26.1366 203.988C26.0438 203.769 25.9975 203.518 25.9975 203.233C25.9975 202.61 26.0836 202.07 26.2559 201.612C26.4348 201.155 26.6601 200.778 26.9318 200.479C27.2101 200.181 27.5149 199.959 27.8462 199.813C28.1841 199.668 28.5154 199.595 28.8401 199.595C29.072 199.595 29.2907 199.631 29.4961 199.704C29.7082 199.777 29.8937 199.886 30.0527 200.032C30.2118 200.178 30.3377 200.36 30.4304 200.579C30.5232 200.791 30.5696 201.036 30.5696 201.314ZM32.7003 204.843H32.0244C31.8852 204.114 31.7726 203.315 31.6864 202.447C31.6069 201.579 31.5605 200.665 31.5473 199.704H32.1834C32.19 200.055 32.2033 200.44 32.2232 200.857C32.243 201.268 32.2695 201.679 32.3027 202.09C32.3358 202.5 32.3723 202.888 32.412 203.252C32.4518 203.617 32.4982 203.922 32.5512 204.167C32.7632 203.869 32.9786 203.537 33.1972 203.173C33.4225 202.809 33.6346 202.431 33.8333 202.04C34.0388 201.642 34.2276 201.245 34.3999 200.847C34.5788 200.45 34.7279 200.069 34.8472 199.704H35.5131C35.5131 200.029 35.5197 200.383 35.533 200.768C35.5529 201.152 35.5761 201.543 35.6026 201.94C35.6291 202.338 35.6589 202.729 35.692 203.113C35.7318 203.498 35.7748 203.849 35.8212 204.167C35.9803 203.988 36.1724 203.72 36.3977 203.362C36.6296 202.997 36.8615 202.603 37.0935 202.179C37.3254 201.748 37.5407 201.314 37.7395 200.877C37.9449 200.44 38.0973 200.049 38.1967 199.704H38.8329C38.6805 200.194 38.4817 200.698 38.2365 201.215C37.9913 201.725 37.7296 202.212 37.4513 202.676C37.1796 203.133 36.9079 203.554 36.6363 203.938C36.3646 204.316 36.126 204.617 35.9206 204.843H35.2447C35.1785 204.26 35.1155 203.63 35.0559 202.954C34.9963 202.278 34.9598 201.612 34.9466 200.956C34.814 201.268 34.6583 201.603 34.4794 201.96C34.3071 202.312 34.1216 202.663 33.9228 203.014C33.724 203.358 33.5186 203.69 33.3066 204.008C33.1011 204.326 32.899 204.604 32.7003 204.843ZM43.9429 198.541H41.8357L41.9649 197.955H46.8651L46.7259 198.541H44.6188L43.108 204.843H42.4321L43.9429 198.541ZM49.5388 200.261C49.4196 200.234 49.3102 200.214 49.2108 200.201C49.1114 200.188 49.0087 200.181 48.9027 200.181C48.4919 200.181 48.1274 200.261 47.8094 200.42C47.4913 200.579 47.223 200.788 47.0043 201.046C46.7856 201.304 46.6166 201.599 46.4974 201.931C46.3847 202.262 46.3284 202.6 46.3284 202.944C46.3284 203.216 46.3549 203.445 46.4079 203.63C46.4609 203.809 46.5338 203.955 46.6266 204.068C46.7194 204.174 46.8254 204.253 46.9446 204.306C47.0705 204.352 47.2031 204.376 47.3422 204.376C47.6139 204.376 47.869 204.313 48.1076 204.187C48.3461 204.054 48.5714 203.869 48.7834 203.63C48.7834 203.451 48.8099 203.246 48.863 203.014C48.916 202.782 48.9657 202.573 49.012 202.388L49.5388 200.261ZM48.9623 204.902C48.9226 204.823 48.8861 204.733 48.853 204.634C48.8265 204.528 48.8066 204.422 48.7934 204.316C48.5615 204.541 48.3163 204.707 48.0579 204.813C47.8061 204.919 47.5443 204.972 47.2726 204.972C47.0606 204.972 46.8585 204.936 46.6663 204.863C46.4742 204.79 46.3052 204.677 46.1594 204.525C46.0137 204.372 45.8944 204.177 45.8016 203.938C45.7155 203.693 45.6724 203.405 45.6724 203.074C45.6724 202.543 45.7585 202.063 45.9308 201.632C46.1031 201.202 46.3417 200.837 46.6465 200.539C46.9579 200.234 47.3223 199.999 47.7398 199.833C48.1639 199.668 48.6244 199.585 49.1214 199.585C49.5322 199.585 49.9265 199.654 50.3042 199.794L49.5388 202.885C49.4991 203.05 49.4659 203.206 49.4394 203.352C49.4129 203.498 49.3997 203.637 49.3997 203.769C49.3997 203.948 49.4162 204.117 49.4494 204.276C49.4825 204.435 49.5421 204.611 49.6283 204.803L48.9623 204.902ZM51.8891 199.933C52.1409 199.833 52.4159 199.75 52.7141 199.684C53.0189 199.618 53.3171 199.585 53.6086 199.585C53.761 199.585 53.9068 199.595 54.046 199.615C54.1851 199.635 54.3176 199.668 54.4435 199.714L54.2746 200.3C54.0161 200.221 53.7511 200.181 53.4794 200.181C53.3071 200.181 53.1348 200.194 52.9626 200.221C52.7903 200.247 52.618 200.287 52.4457 200.34L51.3623 204.843H50.7163L51.8891 199.933ZM58.3534 200.251C58.1414 200.198 57.936 200.171 57.7372 200.171C57.28 200.171 56.8824 200.251 56.5445 200.41C56.2132 200.569 55.9382 200.774 55.7195 201.026C55.5008 201.271 55.3385 201.546 55.2325 201.851C55.1265 202.149 55.0734 202.437 55.0734 202.716C55.0734 202.895 55.09 203.067 55.1231 203.233C55.1563 203.392 55.2126 203.531 55.2921 203.65C55.3716 203.769 55.481 203.865 55.6201 203.938C55.7593 204.005 55.9382 204.038 56.1568 204.038C56.3821 204.038 56.614 203.998 56.8526 203.918C57.0978 203.832 57.3297 203.72 57.5484 203.58L58.3534 200.251ZM53.9006 205.727C54.0397 205.84 54.2385 205.933 54.497 206.006C54.762 206.079 55.0237 206.115 55.2822 206.115C55.8918 206.115 56.3589 205.976 56.6836 205.698C57.0149 205.419 57.2303 205.025 57.3297 204.515L57.3794 204.256C57.1806 204.382 56.9686 204.478 56.7433 204.545C56.518 204.604 56.2927 204.634 56.0674 204.634C55.7825 204.634 55.534 204.588 55.3219 204.495C55.1165 204.402 54.9475 204.276 54.815 204.117C54.6825 203.952 54.5831 203.763 54.5168 203.551C54.4506 203.332 54.4174 203.1 54.4174 202.855C54.4174 202.477 54.4837 202.096 54.6162 201.712C54.7554 201.321 54.9674 200.97 55.2524 200.658C55.5373 200.34 55.8918 200.082 56.3159 199.883C56.7466 199.684 57.2568 199.585 57.8465 199.585C58.0851 199.585 58.3104 199.611 58.5224 199.664C58.7345 199.711 58.9233 199.78 59.089 199.873L57.9757 204.505C57.9095 204.783 57.8233 205.055 57.7173 205.32C57.6113 205.585 57.4556 205.82 57.2502 206.026C57.0448 206.231 56.7698 206.397 56.4252 206.523C56.0873 206.648 55.6499 206.711 55.1132 206.711C55.0072 206.711 54.8879 206.701 54.7554 206.682C54.6229 206.668 54.487 206.645 54.3479 206.612C54.2153 206.579 54.0861 206.539 53.9602 206.493C53.8343 206.453 53.7217 206.403 53.6223 206.344L53.9006 205.727ZM64.0429 200.907C64.0429 201.278 63.9501 201.579 63.7646 201.811C63.5857 202.043 63.3306 202.229 62.9993 202.368C62.6746 202.5 62.2803 202.596 61.8165 202.656C61.3593 202.716 60.849 202.759 60.2858 202.785V202.994C60.2858 203.186 60.3057 203.365 60.3454 203.531C60.3852 203.696 60.4581 203.842 60.5641 203.968C60.6701 204.087 60.8159 204.183 61.0014 204.256C61.1936 204.329 61.4388 204.366 61.737 204.366C61.9689 204.366 62.2008 204.333 62.4327 204.266C62.6713 204.2 62.8965 204.101 63.1086 203.968L63.1782 204.564C62.9529 204.69 62.7044 204.786 62.4327 204.853C62.161 204.926 61.886 204.962 61.6077 204.962C61.2433 204.962 60.9352 204.916 60.6834 204.823C60.4382 204.73 60.2361 204.601 60.0771 204.435C59.9247 204.27 59.8153 204.071 59.7491 203.839C59.6828 203.607 59.6497 203.352 59.6497 203.074C59.6497 202.649 59.7126 202.229 59.8385 201.811C59.9711 201.394 60.1632 201.019 60.415 200.688C60.6668 200.357 60.9749 200.092 61.3394 199.893C61.7104 199.688 62.1312 199.585 62.6017 199.585C63.0655 199.585 63.42 199.707 63.6652 199.953C63.917 200.191 64.0429 200.509 64.0429 200.907ZM62.542 200.171C62.277 200.171 62.0285 200.228 61.7966 200.34C61.5647 200.446 61.3559 200.592 61.1704 200.778C60.9849 200.963 60.8225 201.178 60.6834 201.424C60.5508 201.669 60.4515 201.927 60.3852 202.199C60.9484 202.186 61.4222 202.149 61.8065 202.09C62.1908 202.03 62.499 201.947 62.7309 201.841C62.9694 201.735 63.1384 201.609 63.2378 201.463C63.3372 201.311 63.3869 201.139 63.3869 200.947C63.3869 200.688 63.3074 200.496 63.1483 200.37C62.9959 200.238 62.7938 200.171 62.542 200.171ZM65.8944 198.193L66.5703 198.074L66.1827 199.704H67.9916L67.8624 200.261H66.0435L65.4372 202.775C65.4041 202.895 65.3743 203.024 65.3477 203.163C65.3279 203.296 65.3179 203.428 65.3179 203.561C65.3179 203.859 65.3908 204.068 65.5366 204.187C65.6824 204.306 65.8646 204.366 66.0833 204.366C66.2953 204.366 66.4775 204.342 66.6299 204.296C66.789 204.25 66.9546 204.187 67.1269 204.107L67.1865 204.694C67.0076 204.767 66.8055 204.83 66.5802 204.883C66.3616 204.936 66.1429 204.962 65.9242 204.962C65.752 204.962 65.5896 204.942 65.4372 204.902C65.2848 204.863 65.149 204.796 65.0297 204.704C64.917 204.611 64.8243 204.488 64.7514 204.336C64.6851 204.183 64.652 203.991 64.652 203.759C64.652 203.474 64.6984 203.146 64.7911 202.775L65.8944 198.193Z" fill="#414652" fill-opacity="0.6"/>
<line x1="6.99951" y1="188.786" x2="333.474" y2="188.786" stroke="black" stroke-width="0.765102" stroke-dasharray="6.12 6.12"/>
<rect x="143.169" y="13.9512" width="82.497" height="33.7939" rx="15.903" fill="#CC2E3D"/>
<path d="M175.659 34.7713V36.9023H168.296V25.8815H170.777V34.7713H175.659ZM184.922 32.7039C184.922 33.3613 184.827 33.9656 184.636 34.5169C184.445 35.0576 184.17 35.5241 183.809 35.9164C183.449 36.298 183.014 36.5949 182.505 36.8069C182.007 37.019 181.445 37.125 180.819 37.125C180.205 37.125 179.643 37.019 179.134 36.8069C178.635 36.5949 178.206 36.298 177.846 35.9164C177.485 35.5241 177.204 35.0576 177.003 34.5169C176.801 33.9656 176.701 33.3613 176.701 32.7039C176.701 32.0466 176.801 31.4476 177.003 30.9069C177.215 30.3662 177.501 29.905 177.861 29.5233C178.233 29.1417 178.667 28.8448 179.166 28.6328C179.674 28.4207 180.226 28.3147 180.819 28.3147C181.424 28.3147 181.975 28.4207 182.473 28.6328C182.982 28.8448 183.417 29.1417 183.777 29.5233C184.138 29.905 184.419 30.3662 184.62 30.9069C184.822 31.4476 184.922 32.0466 184.922 32.7039ZM182.505 32.7039C182.505 31.9724 182.357 31.3999 182.06 30.9864C181.774 30.5623 181.36 30.3503 180.819 30.3503C180.279 30.3503 179.86 30.5623 179.563 30.9864C179.266 31.3999 179.118 31.9724 179.118 32.7039C179.118 33.4355 179.266 34.0186 179.563 34.4533C179.86 34.8774 180.279 35.0894 180.819 35.0894C181.36 35.0894 181.774 34.8774 182.06 34.4533C182.357 34.0186 182.505 33.4355 182.505 32.7039ZM189.159 35.2007C189.594 35.2007 189.901 35.1583 190.082 35.0735C190.262 34.9887 190.352 34.8243 190.352 34.5805C190.352 34.3897 190.235 34.2253 190.002 34.0875C189.769 33.9391 189.414 33.7747 188.937 33.5945C188.566 33.4567 188.226 33.3136 187.919 33.1651C187.622 33.0167 187.368 32.8418 187.156 32.6403C186.944 32.4283 186.779 32.1791 186.663 31.8929C186.546 31.6066 186.488 31.2621 186.488 30.8592C186.488 30.0746 186.779 29.4544 187.362 28.9985C187.945 28.5427 188.746 28.3147 189.764 28.3147C190.273 28.3147 190.76 28.3624 191.227 28.4578C191.693 28.5427 192.064 28.6381 192.34 28.7441L191.926 30.5888C191.651 30.4934 191.349 30.4086 191.02 30.3344C190.702 30.2602 190.341 30.2231 189.939 30.2231C189.196 30.2231 188.825 30.4298 188.825 30.8433C188.825 30.9387 188.841 31.0235 188.873 31.0977C188.905 31.172 188.968 31.2462 189.064 31.3204C189.159 31.384 189.287 31.4582 189.446 31.543C189.615 31.6172 189.827 31.7021 190.082 31.7975C190.601 31.9883 191.031 32.1791 191.37 32.37C191.709 32.5502 191.974 32.7517 192.165 32.9743C192.366 33.1863 192.504 33.4249 192.578 33.6899C192.663 33.955 192.706 34.2624 192.706 34.6123C192.706 35.4393 192.393 36.0648 191.767 36.4889C191.153 36.9129 190.278 37.125 189.143 37.125C188.401 37.125 187.781 37.0614 187.283 36.9341C186.795 36.8069 186.456 36.7009 186.265 36.6161L186.663 34.6918C187.065 34.8509 187.479 34.9781 187.903 35.0735C188.327 35.1583 188.746 35.2007 189.159 35.2007ZM196.878 35.2007C197.313 35.2007 197.62 35.1583 197.8 35.0735C197.98 34.9887 198.071 34.8243 198.071 34.5805C198.071 34.3897 197.954 34.2253 197.721 34.0875C197.488 33.9391 197.132 33.7747 196.655 33.5945C196.284 33.4567 195.945 33.3136 195.637 33.1651C195.341 33.0167 195.086 32.8418 194.874 32.6403C194.662 32.4283 194.498 32.1791 194.381 31.8929C194.264 31.6066 194.206 31.2621 194.206 30.8592C194.206 30.0746 194.498 29.4544 195.081 28.9985C195.664 28.5427 196.464 28.3147 197.482 28.3147C197.991 28.3147 198.479 28.3624 198.945 28.4578C199.412 28.5427 199.783 28.6381 200.058 28.7441L199.645 30.5888C199.369 30.4934 199.067 30.4086 198.739 30.3344C198.42 30.2602 198.06 30.2231 197.657 30.2231C196.915 30.2231 196.544 30.4298 196.544 30.8433C196.544 30.9387 196.56 31.0235 196.592 31.0977C196.623 31.172 196.687 31.2462 196.782 31.3204C196.878 31.384 197.005 31.4582 197.164 31.543C197.334 31.6172 197.546 31.7021 197.8 31.7975C198.32 31.9883 198.749 32.1791 199.088 32.37C199.428 32.5502 199.693 32.7517 199.884 32.9743C200.085 33.1863 200.223 33.4249 200.297 33.6899C200.382 33.955 200.424 34.2624 200.424 34.6123C200.424 35.4393 200.112 36.0648 199.486 36.4889C198.871 36.9129 197.996 37.125 196.862 37.125C196.12 37.125 195.5 37.0614 195.001 36.9341C194.514 36.8069 194.174 36.7009 193.984 36.6161L194.381 34.6918C194.784 34.8509 195.197 34.9781 195.622 35.0735C196.046 35.1583 196.464 35.2007 196.878 35.2007Z" fill="white"/>
<path d="M21.8728 142.407C23.0814 142.407 23.6857 141.994 23.6857 141.167C23.6857 140.913 23.6301 140.698 23.5188 140.523C23.4154 140.34 23.2723 140.185 23.0894 140.058C22.9065 139.923 22.6958 139.807 22.4572 139.712C22.2266 139.617 21.9801 139.521 21.7177 139.426C21.4156 139.322 21.1293 139.207 20.859 139.08C20.5886 138.945 20.3541 138.79 20.1553 138.615C19.9565 138.432 19.7974 138.217 19.6782 137.971C19.5669 137.724 19.5112 137.426 19.5112 137.076C19.5112 136.352 19.7577 135.788 20.2507 135.382C20.7437 134.977 21.4235 134.774 22.2902 134.774C22.7912 134.774 23.2444 134.83 23.65 134.941C24.0634 135.044 24.3656 135.16 24.5564 135.287L24.1867 136.229C24.0197 136.126 23.7692 136.026 23.4353 135.931C23.1093 135.828 22.7276 135.776 22.2902 135.776C22.0676 135.776 21.8609 135.8 21.67 135.847C21.4792 135.895 21.3122 135.967 21.1691 136.062C21.026 136.158 20.9107 136.281 20.8232 136.432C20.7437 136.575 20.7039 136.746 20.7039 136.945C20.7039 137.167 20.7477 137.354 20.8351 137.505C20.9226 137.656 21.0458 137.792 21.2049 137.911C21.3639 138.022 21.5468 138.126 21.7535 138.221C21.9682 138.316 22.2028 138.412 22.4572 138.507C22.815 138.65 23.1411 138.794 23.4353 138.937C23.7374 139.08 23.9958 139.251 24.2105 139.45C24.4332 139.648 24.6041 139.887 24.7234 140.165C24.8427 140.436 24.9023 140.765 24.9023 141.155C24.9023 141.879 24.6359 142.435 24.1032 142.825C23.5784 143.215 22.8349 143.409 21.8728 143.409C21.5468 143.409 21.2446 143.386 20.9663 143.338C20.696 143.298 20.4534 143.25 20.2388 143.195C20.0241 143.131 19.8372 143.067 19.6782 143.004C19.5271 142.932 19.4078 142.873 19.3204 142.825L19.6662 141.871C19.8491 141.974 20.1274 142.089 20.5012 142.217C20.8749 142.344 21.3321 142.407 21.8728 142.407ZM27.2666 137.028H29.6163V137.959H27.2666V140.821C27.2666 141.131 27.2905 141.39 27.3382 141.596C27.3859 141.795 27.4575 141.954 27.5529 142.074C27.6483 142.185 27.7676 142.264 27.9107 142.312C28.0538 142.36 28.2208 142.384 28.4116 142.384C28.7456 142.384 29.012 142.348 29.2108 142.276C29.4175 142.197 29.5606 142.141 29.6402 142.109L29.8548 143.028C29.7435 143.083 29.5487 143.151 29.2704 143.23C28.9921 143.318 28.674 143.362 28.3162 143.362C27.8948 143.362 27.5449 143.31 27.2666 143.207C26.9963 143.095 26.7776 142.932 26.6106 142.718C26.4436 142.503 26.3244 142.241 26.2528 141.93C26.1892 141.612 26.1574 141.247 26.1574 140.833V135.299L27.2666 135.108V137.028ZM33.127 142.431C33.3894 142.431 33.62 142.427 33.8188 142.419C34.0255 142.404 34.1965 142.38 34.3317 142.348V140.499C34.2522 140.459 34.121 140.428 33.9381 140.404C33.7631 140.372 33.5484 140.356 33.294 140.356C33.127 140.356 32.9481 140.368 32.7573 140.392C32.5744 140.416 32.4034 140.467 32.2444 140.547C32.0933 140.618 31.9661 140.722 31.8627 140.857C31.7594 140.984 31.7077 141.155 31.7077 141.37C31.7077 141.767 31.8349 142.046 32.0893 142.205C32.3438 142.356 32.6897 142.431 33.127 142.431ZM33.0316 136.873C33.4769 136.873 33.8506 136.933 34.1528 137.052C34.4629 137.163 34.7094 137.326 34.8923 137.541C35.0831 137.748 35.2183 137.998 35.2978 138.293C35.3773 138.579 35.4171 138.897 35.4171 139.247V143.123C35.3216 143.139 35.1865 143.163 35.0115 143.195C34.8445 143.219 34.6537 143.242 34.439 143.266C34.2243 143.29 33.9898 143.31 33.7353 143.326C33.4888 143.35 33.2423 143.362 32.9958 143.362C32.6459 143.362 32.3239 143.326 32.0297 143.254C31.7355 143.183 31.4811 143.071 31.2664 142.92C31.0517 142.761 30.8847 142.555 30.7654 142.3C30.6461 142.046 30.5865 141.74 30.5865 141.382C30.5865 141.04 30.6541 140.746 30.7893 140.499C30.9324 140.253 31.1232 140.054 31.3618 139.903C31.6003 139.752 31.8786 139.64 32.1967 139.569C32.5147 139.497 32.8487 139.461 33.1986 139.461C33.3099 139.461 33.4252 139.469 33.5445 139.485C33.6637 139.493 33.7751 139.509 33.8784 139.533C33.9898 139.549 34.0852 139.565 34.1647 139.581C34.2442 139.597 34.2999 139.609 34.3317 139.617V139.306C34.3317 139.124 34.3118 138.945 34.272 138.77C34.2323 138.587 34.1607 138.428 34.0573 138.293C33.954 138.149 33.8108 138.038 33.628 137.959C33.453 137.871 33.2224 137.827 32.9362 137.827C32.5704 137.827 32.2484 137.855 31.9701 137.911C31.6997 137.959 31.497 138.01 31.3618 138.066L31.2306 137.148C31.3737 137.084 31.6123 137.024 31.9462 136.969C32.2802 136.905 32.642 136.873 33.0316 136.873ZM39.5494 136.897C39.6448 136.897 39.7522 136.905 39.8714 136.921C39.9986 136.929 40.1219 136.945 40.2412 136.969C40.3604 136.985 40.4678 137.004 40.5632 137.028C40.6666 137.044 40.7421 137.06 40.7898 137.076L40.599 138.042C40.5115 138.01 40.3644 137.975 40.1577 137.935C39.9589 137.887 39.7005 137.863 39.3824 137.863C39.1757 137.863 38.9689 137.887 38.7622 137.935C38.5634 137.975 38.4322 138.002 38.3686 138.018V143.23H37.2594V137.291C37.5218 137.195 37.8478 137.108 38.2374 137.028C38.627 136.941 39.0643 136.897 39.5494 136.897ZM42.8979 137.028H45.2475V137.959H42.8979V140.821C42.8979 141.131 42.9217 141.39 42.9694 141.596C43.0171 141.795 43.0887 141.954 43.1841 142.074C43.2795 142.185 43.3988 142.264 43.5419 142.312C43.6851 142.36 43.8521 142.384 44.0429 142.384C44.3769 142.384 44.6432 142.348 44.842 142.276C45.0488 142.197 45.1919 142.141 45.2714 142.109L45.4861 143.028C45.3748 143.083 45.18 143.151 44.9017 143.23C44.6234 143.318 44.3053 143.362 43.9475 143.362C43.526 143.362 43.1762 143.31 42.8979 143.207C42.6275 143.095 42.4089 142.932 42.2419 142.718C42.0749 142.503 41.9556 142.241 41.8841 141.93C41.8204 141.612 41.7886 141.247 41.7886 140.833V135.299L42.8979 135.108V137.028Z" fill="#414652"/>
<path d="M49.2419 158.073C49.2419 162.464 45.6819 166.024 41.2904 166.024C36.8989 166.024 33.3389 162.464 33.3389 158.073C33.3389 153.681 36.8989 150.121 41.2904 150.121C45.6819 150.121 49.2419 153.681 49.2419 158.073Z" fill="#FF444F"/>
<path d="M280.333 203.794C280.333 208.186 276.773 211.746 272.381 211.746C267.99 211.746 264.43 208.186 264.43 203.794C264.43 199.403 267.99 195.843 272.381 195.843C276.773 195.843 280.333 199.403 280.333 203.794Z" fill="#FF444F"/>
<path d="M288.316 206.843V198.577H293.362V199.567H289.473V202.024H292.932V202.99H289.473V205.853H293.66V206.843H288.316ZM295.059 200.82C295.313 200.756 295.651 200.688 296.072 200.617C296.494 200.545 296.979 200.509 297.528 200.509C298.021 200.509 298.43 200.581 298.756 200.724C299.082 200.859 299.341 201.054 299.531 201.309C299.73 201.555 299.869 201.853 299.949 202.203C300.028 202.553 300.068 202.939 300.068 203.36V206.843H298.959V203.599C298.959 203.217 298.931 202.891 298.875 202.621C298.828 202.35 298.744 202.132 298.625 201.965C298.506 201.798 298.347 201.678 298.148 201.607C297.949 201.527 297.703 201.487 297.408 201.487C297.289 201.487 297.166 201.491 297.039 201.499C296.911 201.507 296.788 201.519 296.669 201.535C296.557 201.543 296.454 201.555 296.359 201.571C296.271 201.587 296.208 201.599 296.168 201.607V206.843H295.059V200.82ZM305.915 201.953C305.78 201.841 305.585 201.734 305.331 201.631C305.076 201.527 304.798 201.476 304.496 201.476C304.178 201.476 303.903 201.535 303.673 201.654C303.45 201.766 303.267 201.925 303.124 202.132C302.981 202.33 302.878 202.569 302.814 202.847C302.75 203.125 302.719 203.424 302.719 203.742C302.719 204.465 302.897 205.026 303.255 205.423C303.613 205.813 304.09 206.008 304.687 206.008C304.989 206.008 305.239 205.996 305.438 205.972C305.645 205.94 305.804 205.908 305.915 205.877V201.953ZM305.915 197.778L307.024 197.587V206.664C306.77 206.735 306.444 206.807 306.046 206.879C305.649 206.95 305.191 206.986 304.675 206.986C304.198 206.986 303.768 206.91 303.386 206.759C303.005 206.608 302.679 206.394 302.408 206.115C302.138 205.837 301.927 205.499 301.776 205.101C301.633 204.696 301.562 204.243 301.562 203.742C301.562 203.265 301.621 202.827 301.741 202.43C301.868 202.032 302.051 201.69 302.289 201.404C302.528 201.118 302.818 200.895 303.16 200.736C303.51 200.577 303.907 200.497 304.353 200.497C304.71 200.497 305.024 200.545 305.295 200.641C305.573 200.736 305.78 200.827 305.915 200.915V197.778Z" fill="#414652"/>
<defs>
<filter id="filter0_d_2591_26876" x="0.0972133" y="0.478161" width="341.805" height="227.502" filterUnits="userSpaceOnUse" color-interpolation-filters="sRGB">
<feFlood flood-opacity="0" result="BackgroundImageFix"/>
<feColorMatrix in="SourceAlpha" type="matrix" values="0 0 0 0 0 0 0 0 0 0 0 0 0 0 0 0 0 0 127 0" result="hardAlpha"/>
<feOffset dy="1.38046"/>
<feGaussianBlur stdDeviation="3.45115"/>
<feComposite in2="hardAlpha" operator="out"/>
<feColorMatrix type="matrix" values="0 0 0 0 0 0 0 0 0 0 0 0 0 0 0 0 0 0 0.1 0"/>
<feBlend mode="normal" in2="BackgroundImageFix" result="effect1_dropShadow_2591_26876"/>
<feBlend mode="normal" in="SourceGraphic" in2="effect1_dropShadow_2591_26876" result="shape"/>
</filter>
</defs>
</svg>
