<svg width="342" height="228" viewBox="0 0 342 228" fill="none" xmlns="http://www.w3.org/2000/svg">
<g filter="url(#filter0_d_2587_24688)">
<rect x="7" y="5.69727" width="328" height="213.697" rx="4.14138" fill="white"/>
</g>
<path d="M34.8104 36.251V26.6078H41.2671V28.4307H36.9812V30.4484H40.794V32.2712H36.9812V36.251H34.8104ZM45.1189 34.8038C45.3229 34.8038 45.5178 34.7992 45.7033 34.7899C45.8888 34.7806 46.0373 34.7667 46.1486 34.7481V33.1757C46.0651 33.1572 45.9399 33.1386 45.7729 33.1201C45.6059 33.1015 45.4528 33.0922 45.3137 33.0922C45.1189 33.0922 44.9333 33.1062 44.7571 33.134C44.5901 33.1525 44.4417 33.1943 44.3118 33.2592C44.1819 33.3242 44.0799 33.4123 44.0056 33.5236C43.9314 33.6349 43.8943 33.7741 43.8943 33.9411C43.8943 34.2657 44.001 34.493 44.2144 34.6229C44.437 34.7435 44.7385 34.8038 45.1189 34.8038ZM44.9519 28.7368C45.5641 28.7368 46.0744 28.8064 46.4825 28.9455C46.8907 29.0847 47.2154 29.2841 47.4566 29.5439C47.7071 29.8036 47.8833 30.119 47.9854 30.4901C48.0874 30.8612 48.1384 31.274 48.1384 31.7286V36.0422C47.8416 36.1072 47.4288 36.1814 46.9 36.2649C46.3712 36.3577 45.7311 36.404 44.9797 36.404C44.5066 36.404 44.0752 36.3623 43.6856 36.2788C43.3052 36.1953 42.9759 36.0608 42.6976 35.8753C42.4193 35.6805 42.206 35.43 42.0575 35.1238C41.9091 34.8177 41.8349 34.442 41.8349 33.9967C41.8349 33.57 41.9184 33.2082 42.0854 32.9113C42.2616 32.6145 42.4935 32.3779 42.7811 32.2017C43.0687 32.0254 43.398 31.9002 43.7691 31.826C44.1402 31.7425 44.5251 31.7007 44.924 31.7007C45.1931 31.7007 45.4296 31.7146 45.6337 31.7425C45.8471 31.761 46.0187 31.7889 46.1486 31.826V31.6311C46.1486 31.2786 46.0419 30.9957 45.8285 30.7823C45.6152 30.569 45.2441 30.4623 44.7153 30.4623C44.3628 30.4623 44.0149 30.4901 43.6717 30.5458C43.3284 30.5921 43.0316 30.6617 42.7811 30.7545L42.5167 29.0847C42.6373 29.0476 42.7857 29.0105 42.962 28.9734C43.1475 28.927 43.347 28.8899 43.5604 28.862C43.7737 28.8249 43.9964 28.7971 44.2283 28.7785C44.4695 28.7507 44.7107 28.7368 44.9519 28.7368ZM52.9355 36.3901C52.3325 36.3809 51.8408 36.3159 51.4605 36.1953C51.0894 36.0747 50.7925 35.9077 50.5699 35.6944C50.3565 35.4717 50.2081 35.2073 50.1246 34.9012C50.0504 34.5858 50.0133 34.2333 50.0133 33.8437V25.7868L52.0867 25.4528V33.4262C52.0867 33.6117 52.1006 33.7787 52.1284 33.9271C52.1562 34.0756 52.2072 34.2008 52.2815 34.3029C52.365 34.4049 52.4809 34.4884 52.6293 34.5533C52.7778 34.6183 52.9772 34.66 53.2277 34.6786L52.9355 36.3901ZM57.3383 36.3901C56.7353 36.3809 56.2437 36.3159 55.8633 36.1953C55.4922 36.0747 55.1954 35.9077 54.9727 35.6944C54.7594 35.4717 54.6109 35.2073 54.5275 34.9012C54.4532 34.5858 54.4161 34.2333 54.4161 33.8437V25.7868L56.4895 25.4528V33.4262C56.4895 33.6117 56.5034 33.7787 56.5312 33.9271C56.5591 34.0756 56.6101 34.2008 56.6843 34.3029C56.7678 34.4049 56.8838 34.4884 57.0322 34.5533C57.1806 34.6183 57.3801 34.66 57.6305 34.6786L57.3383 36.3901Z" fill="#414652"/>
<rect x="7.51245" y="56.5818" width="326.975" height="162.301" stroke="#ECECEC" stroke-width="1.0249"/>
<path d="M7 109.859H335" stroke="#ECECEC" stroke-width="1.0249"/>
<path d="M7 83.4531H335" stroke="#ECECEC" stroke-width="1.0249"/>
<path d="M7 136.265H335" stroke="#ECECEC" stroke-width="1.0249"/>
<path d="M7 162.671H335" stroke="#ECECEC" stroke-width="1.0249"/>
<path d="M7 189.077H335" stroke="#ECECEC" stroke-width="1.0249"/>
<path d="M62.1779 56.0693L62.1779 219.395" stroke="#ECECEC" stroke-width="1.0249"/>
<path d="M116.333 56.0693L116.333 219.395" stroke="#ECECEC" stroke-width="1.0249"/>
<path d="M170.489 56.0693L170.489 219.395" stroke="#ECECEC" stroke-width="1.0249"/>
<path d="M224.645 56.0693L224.645 219.395" stroke="#ECECEC" stroke-width="1.0249"/>
<path d="M278.801 56.0693L278.801 219.395" stroke="#ECECEC" stroke-width="1.0249"/>
<path d="M7 56.832H335" stroke="#ECECEC" stroke-width="1.5302"/>
<path d="M62.6604 136.897L101.921 102.109L128.757 153.794L180.442 96.6428L209.266 161.249L255.982 88.1943" stroke="#A8A8A8" stroke-width="2.98182"/>
<line x1="7" y1="136.515" x2="333.474" y2="136.515" stroke="black" stroke-width="0.765102"/>
<path d="M297.051 143.571H294.944L295.073 142.985H299.974L299.834 143.571H297.727L296.216 149.873H295.541L297.051 143.571ZM302.647 145.291C302.528 145.264 302.419 145.245 302.319 145.231C302.22 145.218 302.117 145.211 302.011 145.211C301.6 145.211 301.236 145.291 300.918 145.45C300.6 145.609 300.331 145.818 300.113 146.076C299.894 146.335 299.725 146.629 299.606 146.961C299.493 147.292 299.437 147.63 299.437 147.975C299.437 148.246 299.463 148.475 299.516 148.66C299.569 148.839 299.642 148.985 299.735 149.098C299.828 149.204 299.934 149.283 300.053 149.336C300.179 149.383 300.312 149.406 300.451 149.406C300.722 149.406 300.978 149.343 301.216 149.217C301.455 149.085 301.68 148.899 301.892 148.66C301.892 148.482 301.918 148.276 301.971 148.044C302.024 147.812 302.074 147.604 302.121 147.418L302.647 145.291ZM302.071 149.933C302.031 149.853 301.995 149.764 301.962 149.664C301.935 149.558 301.915 149.452 301.902 149.346C301.67 149.572 301.425 149.737 301.166 149.843C300.915 149.949 300.653 150.002 300.381 150.002C300.169 150.002 299.967 149.966 299.775 149.893C299.583 149.82 299.414 149.707 299.268 149.555C299.122 149.403 299.003 149.207 298.91 148.969C298.824 148.723 298.781 148.435 298.781 148.104C298.781 147.574 298.867 147.093 299.039 146.663C299.212 146.232 299.45 145.867 299.755 145.569C300.066 145.264 300.431 145.029 300.848 144.864C301.272 144.698 301.733 144.615 302.23 144.615C302.641 144.615 303.035 144.685 303.413 144.824L302.647 147.915C302.608 148.081 302.574 148.236 302.548 148.382C302.521 148.528 302.508 148.667 302.508 148.8C302.508 148.979 302.525 149.147 302.558 149.307C302.591 149.466 302.651 149.641 302.737 149.833L302.071 149.933ZM304.998 144.963C305.249 144.864 305.524 144.781 305.823 144.715C306.127 144.648 306.426 144.615 306.717 144.615C306.87 144.615 307.015 144.625 307.154 144.645C307.294 144.665 307.426 144.698 307.552 144.744L307.383 145.331C307.125 145.251 306.86 145.211 306.588 145.211C306.416 145.211 306.243 145.225 306.071 145.251C305.899 145.278 305.726 145.317 305.554 145.371L304.471 149.873H303.825L304.998 144.963ZM311.462 145.281C311.25 145.228 311.044 145.202 310.846 145.202C310.388 145.202 309.991 145.281 309.653 145.44C309.322 145.599 309.047 145.805 308.828 146.056C308.609 146.301 308.447 146.576 308.341 146.881C308.235 147.179 308.182 147.468 308.182 147.746C308.182 147.925 308.198 148.097 308.232 148.263C308.265 148.422 308.321 148.561 308.401 148.68C308.48 148.8 308.589 148.896 308.729 148.969C308.868 149.035 309.047 149.068 309.265 149.068C309.491 149.068 309.723 149.028 309.961 148.949C310.206 148.863 310.438 148.75 310.657 148.611L311.462 145.281ZM307.009 150.758C307.148 150.87 307.347 150.963 307.605 151.036C307.87 151.109 308.132 151.145 308.391 151.145C309 151.145 309.467 151.006 309.792 150.728C310.123 150.45 310.339 150.055 310.438 149.545L310.488 149.287C310.289 149.413 310.077 149.509 309.852 149.575C309.626 149.635 309.401 149.664 309.176 149.664C308.891 149.664 308.642 149.618 308.43 149.525C308.225 149.432 308.056 149.307 307.924 149.147C307.791 148.982 307.692 148.793 307.625 148.581C307.559 148.362 307.526 148.13 307.526 147.885C307.526 147.507 307.592 147.126 307.725 146.742C307.864 146.351 308.076 146 308.361 145.689C308.646 145.371 309 145.112 309.424 144.913C309.855 144.715 310.365 144.615 310.955 144.615C311.194 144.615 311.419 144.642 311.631 144.695C311.843 144.741 312.032 144.811 312.197 144.903L311.084 149.535C311.018 149.813 310.932 150.085 310.826 150.35C310.72 150.615 310.564 150.85 310.359 151.056C310.153 151.261 309.878 151.427 309.534 151.553C309.196 151.679 308.758 151.742 308.222 151.742C308.116 151.742 307.996 151.732 307.864 151.712C307.731 151.699 307.596 151.675 307.456 151.642C307.324 151.609 307.195 151.569 307.069 151.523C306.943 151.483 306.83 151.434 306.731 151.374L307.009 150.758ZM317.151 145.937C317.151 146.308 317.059 146.61 316.873 146.842C316.694 147.073 316.439 147.259 316.108 147.398C315.783 147.531 315.389 147.627 314.925 147.686C314.468 147.746 313.958 147.789 313.394 147.816V148.024C313.394 148.216 313.414 148.395 313.454 148.561C313.494 148.727 313.567 148.872 313.673 148.998C313.779 149.118 313.924 149.214 314.11 149.287C314.302 149.36 314.547 149.396 314.845 149.396C315.077 149.396 315.309 149.363 315.541 149.297C315.78 149.23 316.005 149.131 316.217 148.998L316.287 149.595C316.061 149.721 315.813 149.817 315.541 149.883C315.27 149.956 314.995 149.992 314.716 149.992C314.352 149.992 314.044 149.946 313.792 149.853C313.547 149.76 313.345 149.631 313.186 149.466C313.033 149.3 312.924 149.101 312.858 148.869C312.791 148.637 312.758 148.382 312.758 148.104C312.758 147.68 312.821 147.259 312.947 146.842C313.08 146.424 313.272 146.05 313.524 145.718C313.775 145.387 314.083 145.122 314.448 144.923C314.819 144.718 315.24 144.615 315.71 144.615C316.174 144.615 316.529 144.738 316.774 144.983C317.025 145.221 317.151 145.539 317.151 145.937ZM315.651 145.202C315.385 145.202 315.137 145.258 314.905 145.371C314.673 145.477 314.464 145.622 314.279 145.808C314.093 145.993 313.931 146.209 313.792 146.454C313.659 146.699 313.56 146.957 313.494 147.229C314.057 147.216 314.531 147.179 314.915 147.12C315.299 147.06 315.607 146.977 315.839 146.871C316.078 146.765 316.247 146.639 316.346 146.494C316.446 146.341 316.495 146.169 316.495 145.977C316.495 145.718 316.416 145.526 316.257 145.4C316.104 145.268 315.902 145.202 315.651 145.202ZM319.003 143.224L319.679 143.104L319.291 144.734H321.1L320.971 145.291H319.152L318.546 147.806C318.513 147.925 318.483 148.054 318.456 148.193C318.436 148.326 318.426 148.458 318.426 148.591C318.426 148.889 318.499 149.098 318.645 149.217C318.791 149.336 318.973 149.396 319.192 149.396C319.404 149.396 319.586 149.373 319.738 149.326C319.897 149.28 320.063 149.217 320.235 149.138L320.295 149.724C320.116 149.797 319.914 149.86 319.689 149.913C319.47 149.966 319.251 149.992 319.033 149.992C318.86 149.992 318.698 149.972 318.546 149.933C318.393 149.893 318.257 149.827 318.138 149.734C318.026 149.641 317.933 149.519 317.86 149.366C317.794 149.214 317.76 149.022 317.76 148.79C317.76 148.505 317.807 148.177 317.9 147.806L319.003 143.224Z" fill="#414652" fill-opacity="0.6"/>
<path d="M245.514 73.3516V65.086H250.559V66.0759H246.671V68.5329H250.129V69.4991H246.671V72.3616H250.857V73.3516H245.514ZM252.256 67.3283C252.51 67.2647 252.848 67.1971 253.27 67.1255C253.691 67.054 254.176 67.0182 254.725 67.0182C255.218 67.0182 255.627 67.0897 255.953 67.2329C256.279 67.368 256.538 67.5629 256.729 67.8173C256.927 68.0638 257.067 68.362 257.146 68.7119C257.226 69.0617 257.265 69.4474 257.265 69.8688V73.3516H256.156V70.1073C256.156 69.7257 256.128 69.3997 256.073 69.1293C256.025 68.859 255.941 68.6403 255.822 68.4733C255.703 68.3063 255.544 68.1871 255.345 68.1155C255.146 68.036 254.9 67.9962 254.606 67.9962C254.486 67.9962 254.363 68.0002 254.236 68.0081C254.109 68.0161 253.985 68.028 253.866 68.0439C253.755 68.0519 253.651 68.0638 253.556 68.0797C253.469 68.0956 253.405 68.1075 253.365 68.1155V73.3516H252.256V67.3283ZM263.112 68.4614C262.977 68.3501 262.782 68.2427 262.528 68.1393C262.273 68.036 261.995 67.9843 261.693 67.9843C261.375 67.9843 261.101 68.0439 260.87 68.1632C260.647 68.2745 260.465 68.4336 260.321 68.6403C260.178 68.8391 260.075 69.0776 260.011 69.3559C259.948 69.6342 259.916 69.9324 259.916 70.2505C259.916 70.9741 260.095 71.5346 260.453 71.9322C260.81 72.3218 261.288 72.5167 261.884 72.5167C262.186 72.5167 262.437 72.5047 262.635 72.4809C262.842 72.4491 263.001 72.4173 263.112 72.3855V68.4614ZM263.112 64.2868L264.222 64.096V73.1727C263.967 73.2442 263.641 73.3158 263.244 73.3873C262.846 73.4589 262.389 73.4947 261.872 73.4947C261.395 73.4947 260.965 73.4192 260.584 73.2681C260.202 73.117 259.876 72.9023 259.606 72.624C259.335 72.3457 259.125 72.0078 258.974 71.6102C258.83 71.2047 258.759 70.7514 258.759 70.2505C258.759 69.7734 258.819 69.336 258.938 68.9385C259.065 68.5409 259.248 68.199 259.486 67.9127C259.725 67.6265 260.015 67.4038 260.357 67.2448C260.707 67.0858 261.105 67.0063 261.55 67.0063C261.908 67.0063 262.222 67.054 262.492 67.1494C262.77 67.2448 262.977 67.3362 263.112 67.4237V64.2868Z" fill="#414652"/>
<path d="M262.939 88.2787C262.939 92.6702 259.379 96.2302 254.988 96.2302C250.596 96.2302 247.036 92.6702 247.036 88.2787C247.036 83.8872 250.596 80.3271 254.988 80.3271C259.379 80.3271 262.939 83.8872 262.939 88.2787Z" fill="#FF444F"/>
<path d="M69.1212 137.891C69.1212 142.282 65.5612 145.842 61.1697 145.842C56.7782 145.842 53.2182 142.282 53.2182 137.891C53.2182 133.499 56.7782 129.939 61.1697 129.939C65.5612 129.939 69.1212 133.499 69.1212 137.891Z" fill="#FF444F"/>
<path d="M50.6157 159.995C51.8244 159.995 52.4287 159.582 52.4287 158.755C52.4287 158.5 52.373 158.286 52.2617 158.111C52.1583 157.928 52.0152 157.773 51.8323 157.646C51.6494 157.511 51.4387 157.395 51.2002 157.3C50.9696 157.204 50.7231 157.109 50.4607 157.014C50.1585 156.91 49.8723 156.795 49.6019 156.668C49.3316 156.532 49.097 156.377 48.8982 156.203C48.6994 156.02 48.5404 155.805 48.4211 155.558C48.3098 155.312 48.2541 155.014 48.2541 154.664C48.2541 153.94 48.5006 153.376 48.9936 152.97C49.4866 152.565 50.1665 152.362 51.0332 152.362C51.5341 152.362 51.9874 152.418 52.3929 152.529C52.8064 152.632 53.1085 152.748 53.2994 152.875L52.9296 153.817C52.7627 153.714 52.5122 153.614 52.1782 153.519C51.8522 153.415 51.4705 153.364 51.0332 153.364C50.8106 153.364 50.6038 153.388 50.413 153.435C50.2221 153.483 50.0552 153.555 49.912 153.65C49.7689 153.745 49.6536 153.869 49.5661 154.02C49.4866 154.163 49.4469 154.334 49.4469 154.533C49.4469 154.755 49.4906 154.942 49.5781 155.093C49.6655 155.244 49.7888 155.38 49.9478 155.499C50.1068 155.61 50.2897 155.713 50.4965 155.809C50.7112 155.904 50.9457 156 51.2002 156.095C51.558 156.238 51.884 156.381 52.1782 156.525C52.4804 156.668 52.7388 156.839 52.9535 157.037C53.1761 157.236 53.3471 157.475 53.4664 157.753C53.5856 158.023 53.6453 158.353 53.6453 158.743C53.6453 159.467 53.3789 160.023 52.8461 160.413C52.3213 160.802 51.5779 160.997 50.6157 160.997C50.2897 160.997 49.9876 160.973 49.7093 160.926C49.4389 160.886 49.1964 160.838 48.9817 160.783C48.767 160.719 48.5802 160.655 48.4211 160.592C48.27 160.52 48.1508 160.461 48.0633 160.413L48.4092 159.459C48.5921 159.562 48.8704 159.677 49.2441 159.805C49.6178 159.932 50.075 159.995 50.6157 159.995ZM56.0096 154.616H58.3592V155.547H56.0096V158.409C56.0096 158.719 56.0334 158.978 56.0811 159.184C56.1288 159.383 56.2004 159.542 56.2958 159.661C56.3912 159.773 56.5105 159.852 56.6536 159.9C56.7968 159.948 56.9638 159.972 57.1546 159.972C57.4886 159.972 57.7549 159.936 57.9537 159.864C58.1605 159.785 58.3036 159.729 58.3831 159.697L58.5978 160.616C58.4865 160.671 58.2917 160.739 58.0134 160.818C57.7351 160.906 57.417 160.95 57.0592 160.95C56.6377 160.95 56.2879 160.898 56.0096 160.795C55.7392 160.683 55.5206 160.52 55.3536 160.305C55.1866 160.091 55.0673 159.828 54.9958 159.518C54.9321 159.2 54.9003 158.834 54.9003 158.421V152.887L56.0096 152.696V154.616ZM61.87 160.019C62.1324 160.019 62.363 160.015 62.5617 160.007C62.7685 159.991 62.9394 159.968 63.0746 159.936V158.087C62.9951 158.047 62.8639 158.015 62.681 157.992C62.5061 157.96 62.2914 157.944 62.0369 157.944C61.87 157.944 61.6911 157.956 61.5002 157.98C61.3173 158.004 61.1464 158.055 60.9873 158.135C60.8363 158.206 60.709 158.31 60.6057 158.445C60.5023 158.572 60.4506 158.743 60.4506 158.958C60.4506 159.355 60.5778 159.634 60.8323 159.793C61.0867 159.944 61.4326 160.019 61.87 160.019ZM61.7745 154.461C62.2198 154.461 62.5936 154.521 62.8957 154.64C63.2058 154.751 63.4523 154.914 63.6352 155.129C63.826 155.336 63.9612 155.586 64.0407 155.88C64.1202 156.167 64.16 156.485 64.16 156.835V160.711C64.0646 160.727 63.9294 160.751 63.7545 160.783C63.5875 160.806 63.3967 160.83 63.182 160.854C62.9673 160.878 62.7327 160.898 62.4783 160.914C62.2318 160.938 61.9853 160.95 61.7388 160.95C61.3889 160.95 61.0669 160.914 60.7727 160.842C60.4785 160.771 60.224 160.659 60.0093 160.508C59.7946 160.349 59.6276 160.142 59.5084 159.888C59.3891 159.634 59.3295 159.327 59.3295 158.97C59.3295 158.628 59.397 158.334 59.5322 158.087C59.6753 157.841 59.8662 157.642 60.1047 157.491C60.3433 157.34 60.6216 157.228 60.9396 157.157C61.2577 157.085 61.5917 157.049 61.9415 157.049C62.0529 157.049 62.1681 157.057 62.2874 157.073C62.4067 157.081 62.518 157.097 62.6214 157.121C62.7327 157.137 62.8281 157.153 62.9076 157.169C62.9872 157.185 63.0428 157.196 63.0746 157.204V156.894C63.0746 156.711 63.0547 156.532 63.015 156.358C62.9752 156.175 62.9037 156.016 62.8003 155.88C62.6969 155.737 62.5538 155.626 62.3709 155.547C62.196 155.459 61.9654 155.415 61.6791 155.415C61.3134 155.415 60.9913 155.443 60.713 155.499C60.4427 155.547 60.2399 155.598 60.1047 155.654L59.9735 154.735C60.1167 154.672 60.3552 154.612 60.6892 154.557C61.0231 154.493 61.3849 154.461 61.7745 154.461ZM68.2923 154.485C68.3878 154.485 68.4951 154.493 68.6144 154.509C68.7416 154.517 68.8648 154.533 68.9841 154.557C69.1034 154.572 69.2107 154.592 69.3062 154.616C69.4095 154.632 69.4851 154.648 69.5328 154.664L69.3419 155.63C69.2545 155.598 69.1074 155.562 68.9006 155.523C68.7018 155.475 68.4434 155.451 68.1254 155.451C67.9186 155.451 67.7119 155.475 67.5051 155.523C67.3063 155.562 67.1751 155.59 67.1115 155.606V160.818H66.0023V154.879C66.2647 154.783 66.5907 154.696 66.9803 154.616C67.37 154.529 67.8073 154.485 68.2923 154.485ZM71.6408 154.616H73.9905V155.547H71.6408V158.409C71.6408 158.719 71.6647 158.978 71.7124 159.184C71.7601 159.383 71.8317 159.542 71.9271 159.661C72.0225 159.773 72.1418 159.852 72.2849 159.9C72.428 159.948 72.595 159.972 72.7858 159.972C73.1198 159.972 73.3862 159.936 73.585 159.864C73.7917 159.785 73.9348 159.729 74.0144 159.697L74.229 160.616C74.1177 160.671 73.9229 160.739 73.6446 160.818C73.3663 160.906 73.0482 160.95 72.6904 160.95C72.269 160.95 71.9191 160.898 71.6408 160.795C71.3705 160.683 71.1518 160.52 70.9848 160.305C70.8178 160.091 70.6986 159.828 70.627 159.518C70.5634 159.2 70.5316 158.834 70.5316 158.421V152.887L71.6408 152.696V154.616Z" fill="#414652"/>
<rect x="127.267" y="13.6484" width="82.497" height="33.7939" rx="15.903" fill="#CC2E3D"/>
<path d="M159.757 34.4686V36.5996H152.393V25.5788H154.874V34.4686H159.757ZM169.02 32.4012C169.02 33.0585 168.924 33.6628 168.733 34.2142C168.543 34.7549 168.267 35.2213 167.906 35.6136C167.546 35.9953 167.111 36.2922 166.602 36.5042C166.104 36.7162 165.542 36.8223 164.917 36.8223C164.302 36.8223 163.74 36.7162 163.231 36.5042C162.733 36.2922 162.303 35.9953 161.943 35.6136C161.582 35.2213 161.301 34.7549 161.1 34.2142C160.899 33.6628 160.798 33.0585 160.798 32.4012C160.798 31.7439 160.899 31.1449 161.1 30.6042C161.312 30.0635 161.598 29.6023 161.959 29.2206C162.33 28.8389 162.765 28.5421 163.263 28.33C163.772 28.118 164.323 28.012 164.917 28.012C165.521 28.012 166.072 28.118 166.571 28.33C167.08 28.5421 167.514 28.8389 167.875 29.2206C168.235 29.6023 168.516 30.0635 168.718 30.6042C168.919 31.1449 169.02 31.7439 169.02 32.4012ZM166.602 32.4012C166.602 31.6697 166.454 31.0972 166.157 30.6837C165.871 30.2596 165.457 30.0476 164.917 30.0476C164.376 30.0476 163.957 30.2596 163.66 30.6837C163.364 31.0972 163.215 31.6697 163.215 32.4012C163.215 33.1327 163.364 33.7159 163.66 34.1505C163.957 34.5746 164.376 34.7867 164.917 34.7867C165.457 34.7867 165.871 34.5746 166.157 34.1505C166.454 33.7159 166.602 33.1327 166.602 32.4012ZM173.257 34.898C173.691 34.898 173.999 34.8556 174.179 34.7708C174.359 34.6859 174.449 34.5216 174.449 34.2778C174.449 34.0869 174.333 33.9226 174.099 33.7848C173.866 33.6363 173.511 33.472 173.034 33.2918C172.663 33.154 172.324 33.0108 172.016 32.8624C171.719 32.714 171.465 32.539 171.253 32.3376C171.041 32.1256 170.876 31.8764 170.76 31.5902C170.643 31.3039 170.585 30.9593 170.585 30.5565C170.585 29.7719 170.876 29.1517 171.46 28.6958C172.043 28.2399 172.843 28.012 173.861 28.012C174.37 28.012 174.858 28.0597 175.324 28.1551C175.791 28.2399 176.162 28.3353 176.437 28.4414L176.024 30.2861C175.748 30.1907 175.446 30.1059 175.117 30.0317C174.799 29.9574 174.439 29.9203 174.036 29.9203C173.294 29.9203 172.923 30.1271 172.923 30.5406C172.923 30.636 172.939 30.7208 172.97 30.795C173.002 30.8692 173.066 30.9434 173.161 31.0176C173.257 31.0813 173.384 31.1555 173.543 31.2403C173.713 31.3145 173.925 31.3993 174.179 31.4947C174.698 31.6856 175.128 31.8764 175.467 32.0672C175.806 32.2475 176.071 32.4489 176.262 32.6716C176.464 32.8836 176.602 33.1221 176.676 33.3872C176.761 33.6522 176.803 33.9597 176.803 34.3096C176.803 35.1365 176.49 35.762 175.865 36.1861C175.25 36.6102 174.375 36.8223 173.241 36.8223C172.499 36.8223 171.878 36.7586 171.38 36.6314C170.892 36.5042 170.553 36.3982 170.362 36.3134L170.76 34.3891C171.163 34.5481 171.576 34.6753 172 34.7708C172.424 34.8556 172.843 34.898 173.257 34.898ZM180.975 34.898C181.41 34.898 181.717 34.8556 181.898 34.7708C182.078 34.6859 182.168 34.5216 182.168 34.2778C182.168 34.0869 182.051 33.9226 181.818 33.7848C181.585 33.6363 181.23 33.472 180.753 33.2918C180.381 33.154 180.042 33.0108 179.735 32.8624C179.438 32.714 179.183 32.539 178.971 32.3376C178.759 32.1256 178.595 31.8764 178.478 31.5902C178.362 31.3039 178.303 30.9593 178.303 30.5565C178.303 29.7719 178.595 29.1517 179.178 28.6958C179.761 28.2399 180.562 28.012 181.579 28.012C182.088 28.012 182.576 28.0597 183.043 28.1551C183.509 28.2399 183.88 28.3353 184.156 28.4414L183.742 30.2861C183.467 30.1907 183.164 30.1059 182.836 30.0317C182.518 29.9574 182.157 29.9203 181.754 29.9203C181.012 29.9203 180.641 30.1271 180.641 30.5406C180.641 30.636 180.657 30.7208 180.689 30.795C180.721 30.8692 180.784 30.9434 180.88 31.0176C180.975 31.0813 181.102 31.1555 181.261 31.2403C181.431 31.3145 181.643 31.3993 181.898 31.4947C182.417 31.6856 182.846 31.8764 183.186 32.0672C183.525 32.2475 183.79 32.4489 183.981 32.6716C184.182 32.8836 184.32 33.1221 184.394 33.3872C184.479 33.6522 184.522 33.9597 184.522 34.3096C184.522 35.1365 184.209 35.762 183.583 36.1861C182.968 36.6102 182.094 36.8223 180.959 36.8223C180.217 36.8223 179.597 36.7586 179.099 36.6314C178.611 36.5042 178.272 36.3982 178.081 36.3134L178.478 34.3891C178.881 34.5481 179.295 34.6753 179.719 34.7708C180.143 34.8556 180.562 34.898 180.975 34.898Z" fill="white"/>
<defs>
<filter id="filter0_d_2587_24688" x="0.0977015" y="0.175427" width="341.805" height="227.502" filterUnits="userSpaceOnUse" color-interpolation-filters="sRGB">
<feFlood flood-opacity="0" result="BackgroundImageFix"/>
<feColorMatrix in="SourceAlpha" type="matrix" values="0 0 0 0 0 0 0 0 0 0 0 0 0 0 0 0 0 0 127 0" result="hardAlpha"/>
<feOffset dy="1.38046"/>
<feGaussianBlur stdDeviation="3.45115"/>
<feComposite in2="hardAlpha" operator="out"/>
<feColorMatrix type="matrix" values="0 0 0 0 0 0 0 0 0 0 0 0 0 0 0 0 0 0 0.1 0"/>
<feBlend mode="normal" in2="BackgroundImageFix" result="effect1_dropShadow_2587_24688"/>
<feBlend mode="normal" in="SourceGraphic" in2="effect1_dropShadow_2587_24688" result="shape"/>
</filter>
</defs>
</svg>
