<svg width="342" height="229" viewBox="0 0 342 229" fill="none" xmlns="http://www.w3.org/2000/svg">
<g filter="url(#filter0_d_3842_61661)">
<rect x="7" y="6.39551" width="328" height="213.697" rx="4.14138" fill="white"/>
</g>
<path d="M40.627 27.306H42.7977V36.9492H40.627V32.8582H36.9812V36.9492H34.8104V27.306H36.9812V30.9935H40.627V27.306ZM46.9636 36.9492H44.8902V29.6298H46.9636V36.9492ZM47.1584 27.5147C47.1584 27.8951 47.0331 28.1966 46.7827 28.4192C46.5415 28.6326 46.2539 28.7393 45.9199 28.7393C45.586 28.7393 45.2937 28.6326 45.0433 28.4192C44.8021 28.1966 44.6815 27.8951 44.6815 27.5147C44.6815 27.1344 44.8021 26.8375 45.0433 26.6242C45.2937 26.4015 45.586 26.2902 45.9199 26.2902C46.2539 26.2902 46.5415 26.4015 46.7827 26.6242C47.0331 26.8375 47.1584 27.1344 47.1584 27.5147ZM50.6798 33.053C50.6798 34.2126 51.1483 34.7924 52.0852 34.7924C52.2986 34.7924 52.498 34.7645 52.6836 34.7089C52.8691 34.6532 53.0268 34.5883 53.1567 34.5141V31.2023C53.0546 31.1837 52.934 31.1698 52.7949 31.1605C52.6557 31.142 52.4934 31.1327 52.3079 31.1327C51.7605 31.1327 51.3523 31.3136 51.0833 31.6754C50.8143 32.0372 50.6798 32.4964 50.6798 33.053ZM55.23 36.0308C55.23 37.2275 54.9239 38.1135 54.3116 38.6886C53.7086 39.273 52.7717 39.5653 51.5008 39.5653C51.0555 39.5653 50.6102 39.5235 50.1649 39.44C49.7196 39.3658 49.3068 39.2638 48.9265 39.1339L49.2883 37.3945C49.6129 37.5244 49.9516 37.6264 50.3041 37.7006C50.6659 37.7749 51.074 37.812 51.5286 37.812C52.1223 37.812 52.5398 37.6821 52.781 37.4223C53.0314 37.1626 53.1567 36.8286 53.1567 36.4204V36.1561C52.934 36.2581 52.7021 36.337 52.4609 36.3926C52.229 36.439 51.9739 36.4622 51.6956 36.4622C50.6844 36.4622 49.9098 36.1653 49.3718 35.5716C48.8337 34.9686 48.5647 34.1291 48.5647 33.053C48.5647 32.5149 48.6482 32.0279 48.8151 31.5919C48.9821 31.1466 49.2233 30.7663 49.5387 30.4508C49.8634 30.1354 50.2577 29.8942 50.7215 29.7273C51.1854 29.551 51.7095 29.4629 52.2939 29.4629C52.5444 29.4629 52.7995 29.4768 53.0593 29.5046C53.3283 29.5232 53.5927 29.551 53.8524 29.5881C54.1122 29.6252 54.358 29.6716 54.5899 29.7273C54.8311 29.7736 55.0445 29.8247 55.23 29.8803V36.0308ZM57.1747 36.9492V26.485L59.248 26.1511V29.6577C59.3872 29.6113 59.5634 29.5695 59.7768 29.5324C59.9995 29.4861 60.2128 29.4629 60.4169 29.4629C61.0106 29.4629 61.5023 29.5464 61.8919 29.7133C62.2908 29.871 62.6062 30.0983 62.8381 30.3952C63.0793 30.692 63.2463 31.0446 63.3391 31.4527C63.4411 31.8609 63.4922 32.3155 63.4922 32.8164V36.9492H61.4188V33.0669C61.4188 32.399 61.3307 31.9258 61.1544 31.6475C60.9874 31.3692 60.672 31.2301 60.2082 31.2301C60.0226 31.2301 59.8464 31.2486 59.6794 31.2858C59.5217 31.3136 59.3779 31.3461 59.248 31.3832V36.9492H57.1747ZM65.021 33.3452C65.021 32.6958 65.1184 32.1299 65.3132 31.6475C65.5173 31.1559 65.7817 30.7477 66.1064 30.423C66.431 30.0983 66.8021 29.8525 67.2196 29.6855C67.6463 29.5185 68.0823 29.435 68.5276 29.435C69.5666 29.435 70.3876 29.7551 70.9906 30.3952C71.5936 31.026 71.8951 31.9583 71.8951 33.1921C71.8951 33.3127 71.8904 33.4472 71.8811 33.5957C71.8719 33.7348 71.8626 33.8601 71.8533 33.9714H67.15C67.1964 34.3981 67.3958 34.7367 67.7483 34.9872C68.1009 35.2377 68.574 35.3629 69.1677 35.3629C69.548 35.3629 69.9191 35.3304 70.2809 35.2655C70.652 35.1913 70.9535 35.1031 71.1854 35.0011L71.4637 36.6848C71.3524 36.7405 71.2039 36.7962 71.0184 36.8518C70.8329 36.9075 70.6241 36.9539 70.3922 36.991C70.1696 37.0373 69.9284 37.0745 69.6686 37.1023C69.4089 37.1301 69.1491 37.144 68.8894 37.144C68.2307 37.144 67.6556 37.0466 67.1639 36.8518C66.6815 36.657 66.278 36.3926 65.9533 36.0586C65.6379 35.7154 65.4013 35.3119 65.2436 34.848C65.0952 34.3842 65.021 33.8832 65.021 33.3452ZM69.8913 32.552C69.882 32.3758 69.8495 32.2042 69.7939 32.0372C69.7475 31.8702 69.6686 31.7218 69.5573 31.5919C69.4553 31.462 69.3208 31.3553 69.1538 31.2718C68.9961 31.1883 68.7966 31.1466 68.5554 31.1466C68.3235 31.1466 68.1241 31.1883 67.9571 31.2718C67.7901 31.3461 67.6509 31.4481 67.5396 31.578C67.4283 31.7078 67.3402 31.8609 67.2752 32.0372C67.2196 32.2042 67.1778 32.3758 67.15 32.552H69.8913ZM77.9062 31.4666C77.7206 31.4203 77.5026 31.3739 77.2522 31.3275C77.0017 31.2718 76.7327 31.244 76.4451 31.244C76.3152 31.244 76.1575 31.2579 75.972 31.2858C75.7957 31.3043 75.6612 31.3275 75.5684 31.3553V36.9492H73.4951V30.0195C73.8662 29.8896 74.3022 29.769 74.8031 29.6577C75.3133 29.5371 75.8792 29.4768 76.5008 29.4768C76.6121 29.4768 76.7466 29.4861 76.9043 29.5046C77.062 29.5139 77.2197 29.5324 77.3774 29.5603C77.5351 29.5788 77.6928 29.6067 77.8505 29.6438C78.0082 29.6716 78.1427 29.7087 78.2541 29.7551L77.9062 31.4666Z" fill="#414652"/>
<rect x="7.51242" y="57.2791" width="326.975" height="162.301" stroke="#ECECEC" stroke-width="1.0249"/>
<path d="M6.99997 110.557H335" stroke="#ECECEC" stroke-width="1.0249"/>
<path d="M6.99997 84.1504H335" stroke="#ECECEC" stroke-width="1.0249"/>
<path d="M6.99997 136.962H335" stroke="#ECECEC" stroke-width="1.0249"/>
<path d="M6.99997 163.368H335" stroke="#ECECEC" stroke-width="1.0249"/>
<path d="M6.99997 189.774H335" stroke="#ECECEC" stroke-width="1.0249"/>
<path d="M62.1779 56.7666L62.1779 220.092" stroke="#ECECEC" stroke-width="1.0249"/>
<path d="M116.333 56.7666L116.333 220.092" stroke="#ECECEC" stroke-width="1.0249"/>
<path d="M170.489 56.7666L170.489 220.092" stroke="#ECECEC" stroke-width="1.0249"/>
<path d="M224.645 56.7666L224.645 220.092" stroke="#ECECEC" stroke-width="1.0249"/>
<path d="M278.801 56.7666L278.801 220.092" stroke="#ECECEC" stroke-width="1.0249"/>
<path d="M7 57.5303H335" stroke="#ECECEC" stroke-width="1.5302"/>
<path d="M40.7938 179.838L96.4546 125.668L138.697 168.904L193.861 115.231L249.024 175.862L278.345 148.031" stroke="#A8A8A8" stroke-width="2.98182"/>
<line x1="7" y1="137.213" x2="333.474" y2="137.213" stroke="black" stroke-width="0.765102"/>
<path d="M297.051 144.27H294.944L295.073 143.683H299.974L299.834 144.27H297.727L296.216 150.571H295.541L297.051 144.27ZM302.647 145.989C302.528 145.963 302.419 145.943 302.319 145.93C302.22 145.916 302.117 145.91 302.011 145.91C301.6 145.91 301.236 145.989 300.918 146.148C300.6 146.307 300.331 146.516 300.113 146.774C299.894 147.033 299.725 147.328 299.606 147.659C299.493 147.99 299.437 148.328 299.437 148.673C299.437 148.945 299.463 149.173 299.516 149.359C299.569 149.538 299.642 149.683 299.735 149.796C299.828 149.902 299.934 149.982 300.053 150.035C300.179 150.081 300.312 150.104 300.451 150.104C300.722 150.104 300.978 150.041 301.216 149.915C301.455 149.783 301.68 149.597 301.892 149.359C301.892 149.18 301.918 148.974 301.971 148.742C302.024 148.511 302.074 148.302 302.121 148.116L302.647 145.989ZM302.071 150.631C302.031 150.551 301.995 150.462 301.962 150.363C301.935 150.257 301.915 150.151 301.902 150.045C301.67 150.27 301.425 150.435 301.166 150.541C300.915 150.647 300.653 150.701 300.381 150.701C300.169 150.701 299.967 150.664 299.775 150.591C299.583 150.518 299.414 150.406 299.268 150.253C299.122 150.101 299.003 149.905 298.91 149.667C298.824 149.422 298.781 149.133 298.781 148.802C298.781 148.272 298.867 147.792 299.039 147.361C299.212 146.93 299.45 146.566 299.755 146.268C300.066 145.963 300.431 145.727 300.848 145.562C301.272 145.396 301.733 145.313 302.23 145.313C302.641 145.313 303.035 145.383 303.413 145.522L302.647 148.613C302.608 148.779 302.574 148.935 302.548 149.08C302.521 149.226 302.508 149.365 302.508 149.498C302.508 149.677 302.525 149.846 302.558 150.005C302.591 150.164 302.651 150.339 302.737 150.532L302.071 150.631ZM304.998 145.661C305.249 145.562 305.524 145.479 305.823 145.413C306.127 145.346 306.426 145.313 306.717 145.313C306.87 145.313 307.015 145.323 307.154 145.343C307.294 145.363 307.426 145.396 307.552 145.443L307.383 146.029C307.125 145.949 306.86 145.91 306.588 145.91C306.416 145.91 306.243 145.923 306.071 145.949C305.899 145.976 305.726 146.016 305.554 146.069L304.471 150.571H303.825L304.998 145.661ZM311.462 145.979C311.25 145.926 311.044 145.9 310.846 145.9C310.388 145.9 309.991 145.979 309.653 146.138C309.322 146.297 309.047 146.503 308.828 146.755C308.609 147 308.447 147.275 308.341 147.58C308.235 147.878 308.182 148.166 308.182 148.444C308.182 148.623 308.198 148.795 308.232 148.961C308.265 149.12 308.321 149.259 308.401 149.379C308.48 149.498 308.589 149.594 308.729 149.667C308.868 149.733 309.047 149.766 309.265 149.766C309.491 149.766 309.723 149.726 309.961 149.647C310.206 149.561 310.438 149.448 310.657 149.309L311.462 145.979ZM307.009 151.456C307.148 151.569 307.347 151.661 307.605 151.734C307.87 151.807 308.132 151.844 308.391 151.844C309 151.844 309.467 151.704 309.792 151.426C310.123 151.148 310.339 150.754 310.438 150.243L310.488 149.985C310.289 150.111 310.077 150.207 309.852 150.273C309.626 150.333 309.401 150.363 309.176 150.363C308.891 150.363 308.642 150.316 308.43 150.223C308.225 150.131 308.056 150.005 307.924 149.846C307.791 149.68 307.692 149.491 307.625 149.279C307.559 149.061 307.526 148.829 307.526 148.583C307.526 148.206 307.592 147.825 307.725 147.44C307.864 147.049 308.076 146.698 308.361 146.387C308.646 146.069 309 145.81 309.424 145.612C309.855 145.413 310.365 145.313 310.955 145.313C311.194 145.313 311.419 145.34 311.631 145.393C311.843 145.439 312.032 145.509 312.197 145.602L311.084 150.233C311.018 150.512 310.932 150.783 310.826 151.048C310.72 151.313 310.564 151.549 310.359 151.754C310.153 151.959 309.878 152.125 309.534 152.251C309.196 152.377 308.758 152.44 308.222 152.44C308.116 152.44 307.996 152.43 307.864 152.41C307.731 152.397 307.596 152.374 307.456 152.341C307.324 152.307 307.195 152.268 307.069 152.221C306.943 152.181 306.83 152.132 306.731 152.072L307.009 151.456ZM317.151 146.635C317.151 147.006 317.059 147.308 316.873 147.54C316.694 147.772 316.439 147.957 316.108 148.096C315.783 148.229 315.389 148.325 314.925 148.385C314.468 148.444 313.958 148.487 313.394 148.514V148.723C313.394 148.915 313.414 149.094 313.454 149.259C313.494 149.425 313.567 149.571 313.673 149.697C313.779 149.816 313.924 149.912 314.11 149.985C314.302 150.058 314.547 150.094 314.845 150.094C315.077 150.094 315.309 150.061 315.541 149.995C315.78 149.929 316.005 149.829 316.217 149.697L316.287 150.293C316.061 150.419 315.813 150.515 315.541 150.581C315.27 150.654 314.995 150.691 314.716 150.691C314.352 150.691 314.044 150.644 313.792 150.551C313.547 150.459 313.345 150.329 313.186 150.164C313.033 149.998 312.924 149.799 312.858 149.567C312.791 149.335 312.758 149.08 312.758 148.802C312.758 148.378 312.821 147.957 312.947 147.54C313.08 147.122 313.272 146.748 313.524 146.417C313.775 146.085 314.083 145.82 314.448 145.621C314.819 145.416 315.24 145.313 315.71 145.313C316.174 145.313 316.529 145.436 316.774 145.681C317.025 145.92 317.151 146.238 317.151 146.635ZM315.651 145.9C315.385 145.9 315.137 145.956 314.905 146.069C314.673 146.175 314.464 146.321 314.279 146.506C314.093 146.692 313.931 146.907 313.792 147.152C313.659 147.397 313.56 147.656 313.494 147.927C314.057 147.914 314.531 147.878 314.915 147.818C315.299 147.758 315.607 147.676 315.839 147.57C316.078 147.464 316.247 147.338 316.346 147.192C316.446 147.039 316.495 146.867 316.495 146.675C316.495 146.417 316.416 146.224 316.257 146.099C316.104 145.966 315.902 145.9 315.651 145.9ZM319.003 143.922L319.679 143.803L319.291 145.433H321.1L320.971 145.989H319.152L318.546 148.504C318.513 148.623 318.483 148.752 318.456 148.892C318.436 149.024 318.426 149.157 318.426 149.289C318.426 149.587 318.499 149.796 318.645 149.915C318.791 150.035 318.973 150.094 319.192 150.094C319.404 150.094 319.586 150.071 319.738 150.025C319.897 149.978 320.063 149.915 320.235 149.836L320.295 150.422C320.116 150.495 319.914 150.558 319.689 150.611C319.47 150.664 319.251 150.691 319.033 150.691C318.86 150.691 318.698 150.671 318.546 150.631C318.393 150.591 318.257 150.525 318.138 150.432C318.026 150.339 317.933 150.217 317.86 150.064C317.794 149.912 317.76 149.72 317.76 149.488C317.76 149.203 317.807 148.875 317.9 148.504L319.003 143.922Z" fill="#414652" fill-opacity="0.6"/>
<path d="M286.794 149.523C286.794 153.914 283.234 157.474 278.842 157.474C274.451 157.474 270.891 153.914 270.891 149.523C270.891 145.131 274.451 141.571 278.842 141.571C283.234 141.571 286.794 145.131 286.794 149.523Z" fill="#FF444F"/>
<path d="M269.368 172.45V164.185H274.413V165.175H270.525V167.632H273.984V168.598H270.525V171.46H274.712V172.45H269.368ZM276.11 166.427C276.365 166.363 276.703 166.296 277.124 166.224C277.546 166.153 278.031 166.117 278.579 166.117C279.072 166.117 279.482 166.188 279.808 166.332C280.134 166.467 280.392 166.661 280.583 166.916C280.782 167.162 280.921 167.461 281.001 167.81C281.08 168.16 281.12 168.546 281.12 168.967V172.45H280.011V169.206C280.011 168.824 279.983 168.498 279.927 168.228C279.879 167.958 279.796 167.739 279.677 167.572C279.557 167.405 279.398 167.286 279.2 167.214C279.001 167.135 278.754 167.095 278.46 167.095C278.341 167.095 278.218 167.099 278.09 167.107C277.963 167.115 277.84 167.127 277.721 167.143C277.609 167.151 277.506 167.162 277.411 167.178C277.323 167.194 277.259 167.206 277.22 167.214V172.45H276.11V166.427ZM286.967 167.56C286.832 167.449 286.637 167.341 286.382 167.238C286.128 167.135 285.85 167.083 285.548 167.083C285.229 167.083 284.955 167.143 284.725 167.262C284.502 167.373 284.319 167.532 284.176 167.739C284.033 167.938 283.929 168.176 283.866 168.455C283.802 168.733 283.77 169.031 283.77 169.349C283.77 170.073 283.949 170.633 284.307 171.031C284.665 171.42 285.142 171.615 285.738 171.615C286.041 171.615 286.291 171.603 286.49 171.58C286.697 171.548 286.856 171.516 286.967 171.484V167.56ZM286.967 163.385L288.076 163.195V172.271C287.822 172.343 287.496 172.414 287.098 172.486C286.701 172.558 286.243 172.593 285.726 172.593C285.249 172.593 284.82 172.518 284.438 172.367C284.057 172.216 283.731 172.001 283.46 171.723C283.19 171.444 282.979 171.106 282.828 170.709C282.685 170.303 282.613 169.85 282.613 169.349C282.613 168.872 282.673 168.435 282.792 168.037C282.92 167.64 283.102 167.298 283.341 167.011C283.58 166.725 283.87 166.502 284.212 166.343C284.562 166.184 284.959 166.105 285.404 166.105C285.762 166.105 286.076 166.153 286.347 166.248C286.625 166.343 286.832 166.435 286.967 166.522V163.385Z" fill="#414652"/>
<path d="M47.2545 180.335C47.2545 184.727 43.6945 188.287 39.303 188.287C34.9115 188.287 31.3515 184.727 31.3515 180.335C31.3515 175.944 34.9115 172.384 39.303 172.384C43.6945 172.384 47.2545 175.944 47.2545 180.335Z" fill="#FF444F"/>
<path d="M28.749 202.44C29.9577 202.44 30.562 202.026 30.562 201.199C30.562 200.945 30.5063 200.73 30.395 200.555C30.2916 200.372 30.1485 200.217 29.9656 200.09C29.7827 199.955 29.572 199.84 29.3335 199.744C29.1029 199.649 28.8564 199.553 28.594 199.458C28.2918 199.355 28.0056 199.239 27.7352 199.112C27.4649 198.977 27.2303 198.822 27.0315 198.647C26.8327 198.464 26.6737 198.249 26.5544 198.003C26.4431 197.756 26.3874 197.458 26.3874 197.108C26.3874 196.385 26.6339 195.82 27.1269 195.415C27.6199 195.009 28.2998 194.806 29.1665 194.806C29.6674 194.806 30.1207 194.862 30.5262 194.973C30.9397 195.077 31.2418 195.192 31.4327 195.319L31.0629 196.261C30.896 196.158 30.6455 196.059 30.3115 195.963C29.9855 195.86 29.6038 195.808 29.1665 195.808C28.9439 195.808 28.7371 195.832 28.5463 195.88C28.3554 195.927 28.1885 195.999 28.0453 196.094C27.9022 196.19 27.7869 196.313 27.6994 196.464C27.6199 196.607 27.5802 196.778 27.5802 196.977C27.5802 197.2 27.6239 197.387 27.7114 197.538C27.7988 197.689 27.9221 197.824 28.0811 197.943C28.2401 198.054 28.423 198.158 28.6298 198.253C28.8445 198.349 29.079 198.444 29.3335 198.539C29.6913 198.683 30.0173 198.826 30.3115 198.969C30.6137 199.112 30.8721 199.283 31.0868 199.482C31.3094 199.681 31.4804 199.919 31.5997 200.197C31.7189 200.468 31.7786 200.798 31.7786 201.187C31.7786 201.911 31.5122 202.468 30.9794 202.857C30.4546 203.247 29.7112 203.442 28.749 203.442C28.423 203.442 28.1209 203.418 27.8426 203.37C27.5722 203.33 27.3297 203.283 27.115 203.227C26.9003 203.163 26.7135 203.1 26.5544 203.036C26.4033 202.965 26.2841 202.905 26.1966 202.857L26.5425 201.903C26.7254 202.006 27.0037 202.122 27.3774 202.249C27.7511 202.376 28.2083 202.44 28.749 202.44ZM34.1429 197.061H36.4925V197.991H34.1429V200.853C34.1429 201.163 34.1667 201.422 34.2144 201.629C34.2621 201.827 34.3337 201.986 34.4291 202.106C34.5245 202.217 34.6438 202.297 34.7869 202.344C34.9301 202.392 35.0971 202.416 35.2879 202.416C35.6219 202.416 35.8882 202.38 36.087 202.309C36.2938 202.229 36.4369 202.173 36.5164 202.142L36.7311 203.06C36.6198 203.116 36.425 203.183 36.1467 203.263C35.8684 203.35 35.5503 203.394 35.1925 203.394C34.771 203.394 34.4212 203.342 34.1429 203.239C33.8725 203.128 33.6539 202.965 33.4869 202.75C33.3199 202.535 33.2006 202.273 33.1291 201.963C33.0654 201.645 33.0336 201.279 33.0336 200.865V195.331L34.1429 195.14V197.061ZM40.0033 202.464C40.2657 202.464 40.4963 202.46 40.695 202.452C40.9018 202.436 41.0727 202.412 41.2079 202.38V200.531C41.1284 200.492 40.9972 200.46 40.8143 200.436C40.6394 200.404 40.4247 200.388 40.1702 200.388C40.0033 200.388 39.8244 200.4 39.6335 200.424C39.4506 200.448 39.2797 200.5 39.1206 200.579C38.9696 200.651 38.8423 200.754 38.739 200.889C38.6356 201.016 38.5839 201.187 38.5839 201.402C38.5839 201.8 38.7111 202.078 38.9656 202.237C39.22 202.388 39.5659 202.464 40.0033 202.464ZM39.9078 196.905C40.3531 196.905 40.7269 196.965 41.029 197.084C41.3391 197.196 41.5856 197.359 41.7685 197.573C41.9593 197.78 42.0945 198.031 42.174 198.325C42.2535 198.611 42.2933 198.929 42.2933 199.279V203.155C42.1979 203.171 42.0627 203.195 41.8878 203.227C41.7208 203.251 41.53 203.275 41.3153 203.298C41.1006 203.322 40.866 203.342 40.6116 203.358C40.3651 203.382 40.1186 203.394 39.8721 203.394C39.5222 203.394 39.2002 203.358 38.906 203.287C38.6118 203.215 38.3573 203.104 38.1426 202.953C37.9279 202.794 37.7609 202.587 37.6417 202.332C37.5224 202.078 37.4628 201.772 37.4628 201.414C37.4628 201.072 37.5303 200.778 37.6655 200.531C37.8086 200.285 37.9995 200.086 38.238 199.935C38.4766 199.784 38.7549 199.673 39.0729 199.601C39.391 199.529 39.725 199.494 40.0748 199.494C40.1862 199.494 40.3014 199.502 40.4207 199.518C40.54 199.525 40.6513 199.541 40.7547 199.565C40.866 199.581 40.9614 199.597 41.0409 199.613C41.1205 199.629 41.1761 199.641 41.2079 199.649V199.339C41.2079 199.156 41.188 198.977 41.1483 198.802C41.1085 198.619 41.037 198.46 40.9336 198.325C40.8302 198.182 40.6871 198.07 40.5042 197.991C40.3293 197.903 40.0987 197.86 39.8124 197.86C39.4467 197.86 39.1246 197.887 38.8463 197.943C38.576 197.991 38.3732 198.043 38.238 198.098L38.1068 197.18C38.25 197.116 38.4885 197.057 38.8225 197.001C39.1564 196.937 39.5182 196.905 39.9078 196.905ZM46.4256 196.929C46.5211 196.929 46.6284 196.937 46.7477 196.953C46.8749 196.961 46.9981 196.977 47.1174 197.001C47.2367 197.017 47.344 197.037 47.4395 197.061C47.5428 197.076 47.6184 197.092 47.6661 197.108L47.4752 198.074C47.3878 198.043 47.2407 198.007 47.0339 197.967C46.8351 197.919 46.5767 197.895 46.2587 197.895C46.0519 197.895 45.8452 197.919 45.6384 197.967C45.4396 198.007 45.3084 198.035 45.2448 198.05V203.263H44.1356V197.323C44.398 197.227 44.724 197.14 45.1136 197.061C45.5033 196.973 45.9406 196.929 46.4256 196.929ZM49.7741 197.061H52.1238V197.991H49.7741V200.853C49.7741 201.163 49.798 201.422 49.8457 201.629C49.8934 201.827 49.965 201.986 50.0604 202.106C50.1558 202.217 50.2751 202.297 50.4182 202.344C50.5613 202.392 50.7283 202.416 50.9191 202.416C51.2531 202.416 51.5195 202.38 51.7183 202.309C51.925 202.229 52.0681 202.173 52.1477 202.142L52.3623 203.06C52.251 203.116 52.0562 203.183 51.7779 203.263C51.4996 203.35 51.1815 203.394 50.8237 203.394C50.4023 203.394 50.0524 203.342 49.7741 203.239C49.5038 203.128 49.2851 202.965 49.1181 202.75C48.9511 202.535 48.8319 202.273 48.7603 201.963C48.6967 201.645 48.6649 201.279 48.6649 200.865V195.331L49.7741 195.14V197.061Z" fill="#414652"/>
<rect x="127.267" y="14.3467" width="82.497" height="33.7939" rx="15.903" fill="#CC2E3D"/>
<path d="M159.757 35.1668V37.2979H152.393V26.2771H154.874V35.1668H159.757ZM169.02 33.0995C169.02 33.7568 168.924 34.3611 168.733 34.9124C168.543 35.4531 168.267 35.9196 167.906 36.3119C167.546 36.6935 167.111 36.9904 166.602 37.2024C166.104 37.4145 165.542 37.5205 164.917 37.5205C164.302 37.5205 163.74 37.4145 163.231 37.2024C162.733 36.9904 162.303 36.6935 161.943 36.3119C161.582 35.9196 161.301 35.4531 161.1 34.9124C160.899 34.3611 160.798 33.7568 160.798 33.0995C160.798 32.4421 160.899 31.8431 161.1 31.3024C161.312 30.7617 161.598 30.3005 161.959 29.9188C162.33 29.5372 162.765 29.2403 163.263 29.0283C163.772 28.8162 164.323 28.7102 164.917 28.7102C165.521 28.7102 166.072 28.8162 166.571 29.0283C167.08 29.2403 167.514 29.5372 167.875 29.9188C168.235 30.3005 168.516 30.7617 168.718 31.3024C168.919 31.8431 169.02 32.4421 169.02 33.0995ZM166.602 33.0995C166.602 32.3679 166.454 31.7954 166.157 31.3819C165.871 30.9578 165.457 30.7458 164.917 30.7458C164.376 30.7458 163.957 30.9578 163.66 31.3819C163.364 31.7954 163.215 32.3679 163.215 33.0995C163.215 33.831 163.364 34.4141 163.66 34.8488C163.957 35.2729 164.376 35.4849 164.917 35.4849C165.457 35.4849 165.871 35.2729 166.157 34.8488C166.454 34.4141 166.602 33.831 166.602 33.0995ZM173.257 35.5962C173.691 35.5962 173.999 35.5538 174.179 35.469C174.359 35.3842 174.449 35.2199 174.449 34.976C174.449 34.7852 174.333 34.6208 174.099 34.483C173.866 34.3346 173.511 34.1703 173.034 33.99C172.663 33.8522 172.324 33.7091 172.016 33.5606C171.719 33.4122 171.465 33.2373 171.253 33.0358C171.041 32.8238 170.876 32.5747 170.76 32.2884C170.643 32.0021 170.585 31.6576 170.585 31.2547C170.585 30.4702 170.876 29.8499 171.46 29.394C172.043 28.9382 172.843 28.7102 173.861 28.7102C174.37 28.7102 174.858 28.7579 175.324 28.8533C175.791 28.9382 176.162 29.0336 176.437 29.1396L176.024 30.9843C175.748 30.8889 175.446 30.8041 175.117 30.7299C174.799 30.6557 174.439 30.6186 174.036 30.6186C173.294 30.6186 172.923 30.8253 172.923 31.2388C172.923 31.3342 172.939 31.419 172.97 31.4932C173.002 31.5675 173.066 31.6417 173.161 31.7159C173.257 31.7795 173.384 31.8537 173.543 31.9385C173.713 32.0127 173.925 32.0976 174.179 32.193C174.698 32.3838 175.128 32.5747 175.467 32.7655C175.806 32.9457 176.071 33.1472 176.262 33.3698C176.464 33.5818 176.602 33.8204 176.676 34.0854C176.761 34.3505 176.803 34.6579 176.803 35.0078C176.803 35.8348 176.49 36.4603 175.865 36.8844C175.25 37.3085 174.375 37.5205 173.241 37.5205C172.499 37.5205 171.878 37.4569 171.38 37.3297C170.892 37.2024 170.553 37.0964 170.362 37.0116L170.76 35.0873C171.163 35.2464 171.576 35.3736 172 35.469C172.424 35.5538 172.843 35.5962 173.257 35.5962ZM180.975 35.5962C181.41 35.5962 181.717 35.5538 181.898 35.469C182.078 35.3842 182.168 35.2199 182.168 34.976C182.168 34.7852 182.051 34.6208 181.818 34.483C181.585 34.3346 181.23 34.1703 180.753 33.99C180.381 33.8522 180.042 33.7091 179.735 33.5606C179.438 33.4122 179.183 33.2373 178.971 33.0358C178.759 32.8238 178.595 32.5747 178.478 32.2884C178.362 32.0021 178.303 31.6576 178.303 31.2547C178.303 30.4702 178.595 29.8499 179.178 29.394C179.761 28.9382 180.562 28.7102 181.579 28.7102C182.088 28.7102 182.576 28.7579 183.043 28.8533C183.509 28.9382 183.88 29.0336 184.156 29.1396L183.742 30.9843C183.467 30.8889 183.164 30.8041 182.836 30.7299C182.518 30.6557 182.157 30.6186 181.754 30.6186C181.012 30.6186 180.641 30.8253 180.641 31.2388C180.641 31.3342 180.657 31.419 180.689 31.4932C180.721 31.5675 180.784 31.6417 180.88 31.7159C180.975 31.7795 181.102 31.8537 181.261 31.9385C181.431 32.0127 181.643 32.0976 181.898 32.193C182.417 32.3838 182.846 32.5747 183.186 32.7655C183.525 32.9457 183.79 33.1472 183.981 33.3698C184.182 33.5818 184.32 33.8204 184.394 34.0854C184.479 34.3505 184.522 34.6579 184.522 35.0078C184.522 35.8348 184.209 36.4603 183.583 36.8844C182.968 37.3085 182.094 37.5205 180.959 37.5205C180.217 37.5205 179.597 37.4569 179.099 37.3297C178.611 37.2024 178.272 37.0964 178.081 37.0116L178.478 35.0873C178.881 35.2464 179.295 35.3736 179.719 35.469C180.143 35.5538 180.562 35.5962 180.975 35.5962Z" fill="white"/>
<defs>
<filter id="filter0_d_3842_61661" x="0.0977015" y="0.873669" width="341.805" height="227.502" filterUnits="userSpaceOnUse" color-interpolation-filters="sRGB">
<feFlood flood-opacity="0" result="BackgroundImageFix"/>
<feColorMatrix in="SourceAlpha" type="matrix" values="0 0 0 0 0 0 0 0 0 0 0 0 0 0 0 0 0 0 127 0" result="hardAlpha"/>
<feOffset dy="1.38046"/>
<feGaussianBlur stdDeviation="3.45115"/>
<feComposite in2="hardAlpha" operator="out"/>
<feColorMatrix type="matrix" values="0 0 0 0 0 0 0 0 0 0 0 0 0 0 0 0 0 0 0.1 0"/>
<feBlend mode="normal" in2="BackgroundImageFix" result="effect1_dropShadow_3842_61661"/>
<feBlend mode="normal" in="SourceGraphic" in2="effect1_dropShadow_3842_61661" result="shape"/>
</filter>
</defs>
</svg>
