<svg width="33" height="32" viewBox="0 0 33 32" fill="none" xmlns="http://www.w3.org/2000/svg">
<rect x="0.5" width="32" height="32" rx="16" fill="#F9F9F9"/>
<g clip-path="url(#clip0_2591_26838)">
<path d="M14.8988 19.6002V20.8002H5.29883V19.6002H14.8988ZM14.8988 11.2002V12.4002H5.29883V11.2002H14.8988Z" fill="#414652"/>
<path d="M14.5473 15.1516L12.5715 13.1758L12.5679 13.18C12.3438 13.4037 12.2178 13.7075 12.2178 14.0242C12.2178 14.3409 12.3438 14.6446 12.5679 14.8684L13.0989 15.4H8.89893V16.6H13.0989L12.5679 17.1316C12.3438 17.3553 12.2178 17.6591 12.2178 17.9758C12.2178 18.2925 12.3438 18.5962 12.5679 18.82L12.5715 18.8242L14.5473 16.8484C15.0158 16.3798 15.0158 15.6202 14.5473 15.1516Z" fill="#FF444F"/>
</g>
<g clip-path="url(#clip1_2591_26838)">
<path d="M27.7006 19.6V20.8H18.1006V19.6H27.7006ZM22.9006 16V17.2H18.1006V16H22.9006ZM27.7006 16V17.2H25.849L27.049 16H27.7006Z" fill="#414652"/>
<path d="M26.5007 13.3518L24.5249 11.376L24.5207 11.3802C24.0545 11.8464 24.0545 12.6023 24.5207 13.0686L25.0523 13.6002H21.7007V14.8002H25.0523L24.5207 15.3318C24.0545 15.798 24.0545 16.5539 24.5207 17.0202L24.5249 17.0244L26.5007 15.0486C26.9691 14.58 26.9691 13.8204 26.5007 13.3518Z" fill="#FF444F"/>
</g>
<defs>
<clipPath id="clip0_2591_26838">
<rect width="9.6" height="9.6" fill="white" transform="translate(5.2998 11.2002)"/>
</clipPath>
<clipPath id="clip1_2591_26838">
<rect width="9.6" height="9.6" fill="white" transform="translate(18.1001 11.2002)"/>
</clipPath>
</defs>
</svg>
