<svg width="342" height="228" viewBox="0 0 342 228" fill="none" xmlns="http://www.w3.org/2000/svg">
<g filter="url(#filter0_d_2591_30097)">
<rect x="7" y="5.69727" width="328" height="213.697" rx="4.14138" fill="white"/>
</g>
<path d="M41.2532 34.3863V36.251H34.8105V26.6078H36.9812V34.3863H41.2532ZM49.3584 32.5774C49.3584 33.1525 49.275 33.6813 49.108 34.1637C48.941 34.6368 48.6998 35.045 48.3844 35.3882C48.069 35.7222 47.6886 35.982 47.2433 36.1675C46.8073 36.353 46.3157 36.4458 45.7683 36.4458C45.2303 36.4458 44.7386 36.353 44.2933 36.1675C43.8573 35.982 43.4816 35.7222 43.1662 35.3882C42.8508 35.045 42.605 34.6368 42.4287 34.1637C42.2524 33.6813 42.1643 33.1525 42.1643 32.5774C42.1643 32.0022 42.2524 31.4781 42.4287 31.005C42.6142 30.5318 42.8647 30.1283 43.1801 29.7943C43.5048 29.4604 43.8851 29.2006 44.3212 29.0151C44.7664 28.8296 45.2488 28.7368 45.7683 28.7368C46.2971 28.7368 46.7795 28.8296 47.2155 29.0151C47.6608 29.2006 48.0411 29.4604 48.3566 29.7943C48.672 30.1283 48.9178 30.5318 49.0941 31.005C49.2703 31.4781 49.3584 32.0022 49.3584 32.5774ZM47.2433 32.5774C47.2433 31.9373 47.1135 31.4363 46.8537 31.0745C46.6032 30.7035 46.2414 30.5179 45.7683 30.5179C45.2952 30.5179 44.9288 30.7035 44.669 31.0745C44.4093 31.4363 44.2794 31.9373 44.2794 32.5774C44.2794 33.2175 44.4093 33.7277 44.669 34.108C44.9288 34.4791 45.2952 34.6646 45.7683 34.6646C46.2414 34.6646 46.6032 34.4791 46.8537 34.108C47.1135 33.7277 47.2433 33.2175 47.2433 32.5774ZM55.2543 32.0486C55.0688 32.7536 54.8694 33.454 54.656 34.1498C54.4519 34.8455 54.2339 35.5459 54.002 36.251H52.3878C52.2208 35.8614 52.0399 35.3975 51.8451 34.8595C51.6503 34.3214 51.4462 33.737 51.2329 33.1062C51.0288 32.4661 50.8154 31.7935 50.5928 31.0885C50.3794 30.3741 50.1707 29.6552 49.9666 28.9316H52.1513C52.2255 29.2656 52.3043 29.632 52.3878 30.0309C52.4806 30.4205 52.5734 30.8241 52.6661 31.2415C52.7682 31.659 52.8702 32.0811 52.9723 32.5078C53.0836 32.9253 53.1949 33.3288 53.3062 33.7184C53.4268 33.3102 53.5428 32.8928 53.6541 32.4661C53.7747 32.0393 53.886 31.6219 53.9881 31.2137C54.0994 30.7962 54.2014 30.3973 54.2942 30.017C54.3962 29.6274 54.4844 29.2656 54.5586 28.9316H56.0614C56.1356 29.2656 56.2191 29.6274 56.3119 30.017C56.4047 30.3973 56.5021 30.7962 56.6041 31.2137C56.7062 31.6219 56.8128 32.0393 56.9242 32.4661C57.0355 32.8928 57.1514 33.3102 57.272 33.7184C57.3834 33.3288 57.4947 32.9253 57.606 32.5078C57.7173 32.0811 57.8194 31.659 57.9121 31.2415C58.0142 30.8241 58.1069 30.4205 58.1904 30.0309C58.2832 29.632 58.3667 29.2656 58.4409 28.9316H60.5978C60.3937 29.6552 60.1803 30.3741 59.9577 31.0885C59.7443 31.7935 59.5309 32.4661 59.3176 33.1062C59.1135 33.737 58.9094 34.3214 58.7053 34.8595C58.5105 35.3975 58.3296 35.8614 58.1626 36.251H56.5484C56.3165 35.5459 56.0892 34.8455 55.8666 34.1498C55.644 33.454 55.4399 32.7536 55.2543 32.0486Z" fill="#414652"/>
<rect x="7.51245" y="56.5808" width="326.975" height="162.301" stroke="#ECECEC" stroke-width="1.0249"/>
<path d="M7 109.858H335" stroke="#ECECEC" stroke-width="1.0249"/>
<path d="M7 83.4521H335" stroke="#ECECEC" stroke-width="1.0249"/>
<path d="M7 136.264H335" stroke="#ECECEC" stroke-width="1.0249"/>
<path d="M7 162.671H335" stroke="#ECECEC" stroke-width="1.0249"/>
<path d="M7 189.076H335" stroke="#ECECEC" stroke-width="1.0249"/>
<path d="M62.1777 56.0684L62.1777 219.394" stroke="#ECECEC" stroke-width="1.0249"/>
<path d="M116.333 56.0684L116.333 219.394" stroke="#ECECEC" stroke-width="1.0249"/>
<path d="M170.489 56.0684L170.489 219.394" stroke="#ECECEC" stroke-width="1.0249"/>
<path d="M224.646 56.0684L224.645 219.394" stroke="#ECECEC" stroke-width="1.0249"/>
<path d="M278.801 56.0684L278.801 219.394" stroke="#ECECEC" stroke-width="1.0249"/>
<path d="M7 56.832H335" stroke="#ECECEC" stroke-width="1.5302"/>
<path d="M62.1641 136.898L114.843 102.11L163.049 143.855L200.819 102.11L274.37 167.71" stroke="#A8A8A8" stroke-width="2.98182"/>
<path d="M206.782 102.11C206.782 104.855 204.557 107.08 201.812 107.08C199.068 107.08 196.843 104.855 196.843 102.11C196.843 99.3656 199.068 97.1406 201.812 97.1406C204.557 97.1406 206.782 99.3656 206.782 102.11Z" fill="#53B9FF"/>
<path d="M168.018 144.85C168.018 147.594 165.793 149.819 163.049 149.819C160.304 149.819 158.079 147.594 158.079 144.85C158.079 142.105 160.304 139.88 163.049 139.88C165.793 139.88 168.018 142.105 168.018 144.85Z" fill="#53B9FF"/>
<path d="M119.315 102.11C119.315 104.855 117.09 107.08 114.346 107.08C111.601 107.08 109.376 104.855 109.376 102.11C109.376 99.3656 111.601 97.1406 114.346 97.1406C117.09 97.1406 119.315 99.3656 119.315 102.11Z" fill="#53B9FF"/>
<path d="M67.6308 135.904C67.6308 138.649 65.4058 140.874 62.6611 140.874C59.9164 140.874 57.6914 138.649 57.6914 135.904C57.6914 133.16 59.9164 130.935 62.6611 130.935C65.4058 130.935 67.6308 133.16 67.6308 135.904Z" fill="#53B9FF"/>
<rect x="127.267" y="13.6484" width="82.497" height="33.7939" rx="15.903" fill="#CC2E3D"/>
<path d="M159.756 34.4686V36.5996H152.393V25.5788H154.874V34.4686H159.756ZM169.02 32.4012C169.02 33.0585 168.924 33.6628 168.733 34.2142C168.542 34.7549 168.267 35.2213 167.906 35.6136C167.546 35.9953 167.111 36.2922 166.602 36.5042C166.104 36.7162 165.542 36.8223 164.917 36.8223C164.302 36.8223 163.74 36.7162 163.231 36.5042C162.733 36.2922 162.303 35.9953 161.943 35.6136C161.582 35.2213 161.301 34.7549 161.1 34.2142C160.898 33.6628 160.798 33.0585 160.798 32.4012C160.798 31.7439 160.898 31.1449 161.1 30.6042C161.312 30.0635 161.598 29.6023 161.959 29.2206C162.33 28.8389 162.764 28.5421 163.263 28.33C163.772 28.118 164.323 28.012 164.917 28.012C165.521 28.012 166.072 28.118 166.571 28.33C167.079 28.5421 167.514 28.8389 167.875 29.2206C168.235 29.6023 168.516 30.0635 168.717 30.6042C168.919 31.1449 169.02 31.7439 169.02 32.4012ZM166.602 32.4012C166.602 31.6697 166.454 31.0972 166.157 30.6837C165.871 30.2596 165.457 30.0476 164.917 30.0476C164.376 30.0476 163.957 30.2596 163.66 30.6837C163.363 31.0972 163.215 31.6697 163.215 32.4012C163.215 33.1327 163.363 33.7159 163.66 34.1505C163.957 34.5746 164.376 34.7867 164.917 34.7867C165.457 34.7867 165.871 34.5746 166.157 34.1505C166.454 33.7159 166.602 33.1327 166.602 32.4012ZM173.256 34.898C173.691 34.898 173.999 34.8556 174.179 34.7708C174.359 34.6859 174.449 34.5216 174.449 34.2778C174.449 34.0869 174.333 33.9226 174.099 33.7848C173.866 33.6363 173.511 33.472 173.034 33.2918C172.663 33.154 172.324 33.0108 172.016 32.8624C171.719 32.714 171.465 32.539 171.253 32.3376C171.041 32.1256 170.876 31.8764 170.76 31.5902C170.643 31.3039 170.585 30.9593 170.585 30.5565C170.585 29.7719 170.876 29.1517 171.459 28.6958C172.043 28.2399 172.843 28.012 173.861 28.012C174.37 28.012 174.857 28.0597 175.324 28.1551C175.79 28.2399 176.161 28.3353 176.437 28.4414L176.024 30.2861C175.748 30.1907 175.446 30.1059 175.117 30.0317C174.799 29.9574 174.439 29.9203 174.036 29.9203C173.294 29.9203 172.923 30.1271 172.923 30.5406C172.923 30.636 172.938 30.7208 172.97 30.795C173.002 30.8692 173.066 30.9434 173.161 31.0176C173.256 31.0813 173.384 31.1555 173.543 31.2403C173.712 31.3145 173.924 31.3993 174.179 31.4947C174.698 31.6856 175.128 31.8764 175.467 32.0672C175.806 32.2475 176.071 32.4489 176.262 32.6716C176.464 32.8836 176.601 33.1221 176.676 33.3872C176.76 33.6522 176.803 33.9597 176.803 34.3096C176.803 35.1365 176.49 35.762 175.865 36.1861C175.25 36.6102 174.375 36.8223 173.241 36.8223C172.498 36.8223 171.878 36.7586 171.38 36.6314C170.892 36.5042 170.553 36.3982 170.362 36.3134L170.76 34.3891C171.163 34.5481 171.576 34.6753 172 34.7708C172.424 34.8556 172.843 34.898 173.256 34.898ZM180.975 34.898C181.41 34.898 181.717 34.8556 181.897 34.7708C182.078 34.6859 182.168 34.5216 182.168 34.2778C182.168 34.0869 182.051 33.9226 181.818 33.7848C181.585 33.6363 181.23 33.472 180.752 33.2918C180.381 33.154 180.042 33.0108 179.735 32.8624C179.438 32.714 179.183 32.539 178.971 32.3376C178.759 32.1256 178.595 31.8764 178.478 31.5902C178.362 31.3039 178.303 30.9593 178.303 30.5565C178.303 29.7719 178.595 29.1517 179.178 28.6958C179.761 28.2399 180.562 28.012 181.579 28.012C182.088 28.012 182.576 28.0597 183.042 28.1551C183.509 28.2399 183.88 28.3353 184.156 28.4414L183.742 30.2861C183.467 30.1907 183.164 30.1059 182.836 30.0317C182.518 29.9574 182.157 29.9203 181.754 29.9203C181.012 29.9203 180.641 30.1271 180.641 30.5406C180.641 30.636 180.657 30.7208 180.689 30.795C180.721 30.8692 180.784 30.9434 180.88 31.0176C180.975 31.0813 181.102 31.1555 181.261 31.2403C181.431 31.3145 181.643 31.3993 181.897 31.4947C182.417 31.6856 182.846 31.8764 183.186 32.0672C183.525 32.2475 183.79 32.4489 183.981 32.6716C184.182 32.8836 184.32 33.1221 184.394 33.3872C184.479 33.6522 184.521 33.9597 184.521 34.3096C184.521 35.1365 184.209 35.762 183.583 36.1861C182.968 36.6102 182.094 36.8223 180.959 36.8223C180.217 36.8223 179.597 36.7586 179.098 36.6314C178.611 36.5042 178.272 36.3982 178.081 36.3134L178.478 34.3891C178.881 34.5481 179.295 34.6753 179.719 34.7708C180.143 34.8556 180.562 34.898 180.975 34.898Z" fill="white"/>
<path d="M240.087 26.6711V27.5088H237.913V33.582H236.946V27.5088H234.772V26.6711H240.087ZM241.976 33.582H241.049V28.3963H241.976V33.582ZM241.508 27.4589C241.341 27.4589 241.198 27.4057 241.079 27.2993C240.966 27.1863 240.909 27.0367 240.909 26.8506C240.909 26.6644 240.966 26.5182 241.079 26.4118C241.198 26.2988 241.341 26.2423 241.508 26.2423C241.674 26.2423 241.813 26.2988 241.926 26.4118C242.046 26.5182 242.106 26.6644 242.106 26.8506C242.106 27.0367 242.046 27.1863 241.926 27.2993C241.813 27.4057 241.674 27.4589 241.508 27.4589ZM245.825 33.7017C245.406 33.7017 245.037 33.6352 244.718 33.5023C244.406 33.3693 244.14 33.1831 243.92 32.9438C243.708 32.7044 243.548 32.4219 243.442 32.0961C243.335 31.7637 243.282 31.398 243.282 30.9991C243.282 30.6002 243.339 30.2346 243.452 29.9022C243.571 29.5698 243.737 29.2839 243.95 29.0445C244.163 28.7985 244.422 28.6091 244.728 28.4761C245.041 28.3365 245.386 28.2667 245.765 28.2667C245.998 28.2667 246.231 28.2866 246.463 28.3265C246.696 28.3664 246.919 28.4296 247.131 28.516L246.922 29.3038C246.782 29.2373 246.619 29.1841 246.433 29.1443C246.254 29.1044 246.061 29.0844 245.855 29.0844C245.336 29.0844 244.937 29.2473 244.658 29.5731C244.386 29.8988 244.249 30.3742 244.249 30.9991C244.249 31.2784 244.279 31.5343 244.339 31.767C244.406 31.9997 244.505 32.1992 244.638 32.3654C244.778 32.5316 244.954 32.6612 245.167 32.7543C245.38 32.8407 245.639 32.884 245.945 32.884C246.191 32.884 246.413 32.8607 246.613 32.8141C246.812 32.7676 246.969 32.7177 247.082 32.6646L247.211 33.4424C247.158 33.4757 247.082 33.5089 246.982 33.5421C246.882 33.5687 246.769 33.592 246.643 33.6119C246.516 33.6385 246.38 33.6585 246.234 33.6718C246.094 33.6917 245.958 33.7017 245.825 33.7017ZM250.082 30.7299C250.281 30.8828 250.491 31.0723 250.71 31.2983C250.936 31.5244 251.155 31.7704 251.368 32.0363C251.588 32.2956 251.794 32.5615 251.986 32.8341C252.179 33.1 252.342 33.3493 252.475 33.582H251.388C251.249 33.3493 251.086 33.1133 250.899 32.874C250.72 32.628 250.53 32.3953 250.331 32.1759C250.132 31.9499 249.929 31.7438 249.723 31.5576C249.517 31.3715 249.32 31.2152 249.134 31.0889V33.582H248.207V26.0029L249.134 25.8434V30.5703C249.294 30.4108 249.47 30.2346 249.663 30.0418C249.856 29.849 250.045 29.6529 250.231 29.4534C250.417 29.254 250.594 29.0645 250.76 28.885C250.926 28.6988 251.069 28.5359 251.189 28.3963H252.276C252.123 28.5625 251.957 28.7454 251.777 28.9448C251.598 29.1443 251.411 29.347 251.219 29.5531C251.026 29.7526 250.83 29.9554 250.63 30.1615C250.437 30.3609 250.255 30.5504 250.082 30.7299ZM259.325 30.9991C259.325 30.3941 259.176 29.9288 258.877 29.603C258.577 29.2772 258.178 29.1143 257.68 29.1143C257.401 29.1143 257.181 29.1243 257.022 29.1443C256.869 29.1642 256.746 29.1875 256.653 29.2141V32.4851C256.766 32.5781 256.929 32.6679 257.141 32.7543C257.354 32.8407 257.587 32.884 257.839 32.884C258.105 32.884 258.331 32.8374 258.518 32.7443C258.71 32.6446 258.867 32.5116 258.986 32.3454C259.106 32.1726 259.192 31.9731 259.246 31.7471C259.299 31.5144 259.325 31.2651 259.325 30.9991ZM260.293 30.9991C260.293 31.3914 260.239 31.7537 260.133 32.0862C260.033 32.4186 259.884 32.7044 259.684 32.9438C259.485 33.1831 259.239 33.3693 258.946 33.5023C258.66 33.6352 258.331 33.7017 257.959 33.7017C257.66 33.7017 257.394 33.6618 257.161 33.582C256.935 33.5023 256.766 33.4258 256.653 33.3527V35.4269H255.725V28.5559C255.945 28.5027 256.217 28.4462 256.543 28.3863C256.875 28.3199 257.258 28.2866 257.69 28.2866C258.089 28.2866 258.448 28.3498 258.767 28.4761C259.086 28.6024 259.359 28.7819 259.585 29.0146C259.811 29.2473 259.984 29.5332 260.103 29.8723C260.229 30.2047 260.293 30.5803 260.293 30.9991ZM263.512 28.2866C263.592 28.2866 263.682 28.2933 263.782 28.3066C263.888 28.3132 263.991 28.3265 264.091 28.3465C264.191 28.3598 264.28 28.3764 264.36 28.3963C264.447 28.4096 264.51 28.4229 264.55 28.4362L264.39 29.244C264.317 29.2174 264.194 29.1875 264.021 29.1542C263.855 29.1143 263.639 29.0944 263.373 29.0944C263.2 29.0944 263.027 29.1143 262.854 29.1542C262.688 29.1875 262.578 29.2107 262.525 29.224V33.582H261.598V28.6157C261.817 28.5359 262.09 28.4628 262.415 28.3963C262.741 28.3232 263.107 28.2866 263.512 28.2866ZM265.155 30.9991C265.155 30.5404 265.222 30.1415 265.355 29.8024C265.488 29.4567 265.664 29.1709 265.883 28.9448C266.103 28.7188 266.355 28.5492 266.641 28.4362C266.927 28.3232 267.22 28.2667 267.519 28.2667C268.217 28.2667 268.752 28.4861 269.124 28.9249C269.497 29.357 269.683 30.0185 269.683 30.9094C269.683 30.9493 269.683 31.0025 269.683 31.069C269.683 31.1288 269.68 31.1853 269.673 31.2385H266.123C266.163 31.777 266.319 32.1859 266.591 32.4651C266.864 32.7443 267.289 32.884 267.868 32.884C268.194 32.884 268.466 32.8574 268.686 32.8042C268.912 32.7443 269.081 32.6878 269.194 32.6346L269.324 33.4125C269.211 33.4723 269.011 33.5355 268.726 33.602C268.446 33.6685 268.127 33.7017 267.768 33.7017C267.316 33.7017 266.924 33.6352 266.591 33.5023C266.266 33.3626 265.996 33.1732 265.784 32.9338C265.571 32.6945 265.411 32.4119 265.305 32.0862C265.205 31.7537 265.155 31.3914 265.155 30.9991ZM268.716 30.4905C268.722 30.0717 268.616 29.7293 268.396 29.4634C268.184 29.1908 267.888 29.0545 267.509 29.0545C267.296 29.0545 267.107 29.0977 266.94 29.1841C266.781 29.2639 266.645 29.3703 266.532 29.5033C266.419 29.6362 266.329 29.7891 266.262 29.962C266.202 30.1349 266.163 30.311 266.143 30.4905H268.716ZM274.366 29.4933C274.253 29.4002 274.09 29.3105 273.877 29.224C273.665 29.1376 273.432 29.0944 273.179 29.0944C272.913 29.0944 272.684 29.1443 272.491 29.244C272.305 29.3371 272.152 29.47 272.032 29.6429C271.913 29.8091 271.826 30.0085 271.773 30.2412C271.72 30.4739 271.693 30.7232 271.693 30.9892C271.693 31.5942 271.843 32.0629 272.142 32.3953C272.441 32.7211 272.84 32.884 273.339 32.884C273.591 32.884 273.801 32.874 273.967 32.854C274.14 32.8274 274.273 32.8009 274.366 32.7743V29.4933ZM274.366 26.0029L275.293 25.8434V33.4324C275.081 33.4923 274.808 33.5521 274.476 33.6119C274.143 33.6718 273.761 33.7017 273.329 33.7017C272.93 33.7017 272.571 33.6385 272.252 33.5122C271.933 33.3859 271.66 33.2064 271.434 32.9737C271.208 32.741 271.032 32.4585 270.905 32.126C270.786 31.787 270.726 31.408 270.726 30.9892C270.726 30.5903 270.776 30.2246 270.876 29.8922C270.982 29.5598 271.135 29.2739 271.334 29.0346C271.534 28.7952 271.776 28.6091 272.062 28.4761C272.355 28.3431 272.687 28.2766 273.06 28.2766C273.359 28.2766 273.621 28.3165 273.847 28.3963C274.08 28.4761 274.253 28.5526 274.366 28.6257V26.0029ZM277.815 33.582H276.888V28.3963H277.815V33.582ZM277.346 27.4589C277.18 27.4589 277.037 27.4057 276.918 27.2993C276.805 27.1863 276.748 27.0367 276.748 26.8506C276.748 26.6644 276.805 26.5182 276.918 26.4118C277.037 26.2988 277.18 26.2423 277.346 26.2423C277.513 26.2423 277.652 26.2988 277.765 26.4118C277.885 26.5182 277.945 26.6644 277.945 26.8506C277.945 27.0367 277.885 27.1863 277.765 27.2993C277.652 27.4057 277.513 27.4589 277.346 27.4589ZM281.664 33.7017C281.245 33.7017 280.876 33.6352 280.557 33.5023C280.244 33.3693 279.978 33.1831 279.759 32.9438C279.546 32.7044 279.387 32.4219 279.28 32.0961C279.174 31.7637 279.121 31.398 279.121 30.9991C279.121 30.6002 279.177 30.2346 279.29 29.9022C279.41 29.5698 279.576 29.2839 279.789 29.0445C280.002 28.7985 280.261 28.6091 280.567 28.4761C280.879 28.3365 281.225 28.2667 281.604 28.2667C281.837 28.2667 282.069 28.2866 282.302 28.3265C282.535 28.3664 282.757 28.4296 282.97 28.516L282.761 29.3038C282.621 29.2373 282.458 29.1841 282.272 29.1443C282.093 29.1044 281.9 29.0844 281.694 29.0844C281.175 29.0844 280.776 29.2473 280.497 29.5731C280.224 29.8988 280.088 30.3742 280.088 30.9991C280.088 31.2784 280.118 31.5343 280.178 31.767C280.244 31.9997 280.344 32.1992 280.477 32.3654C280.617 32.5316 280.793 32.6612 281.006 32.7543C281.218 32.8407 281.478 32.884 281.783 32.884C282.029 32.884 282.252 32.8607 282.452 32.8141C282.651 32.7676 282.807 32.7177 282.92 32.6646L283.05 33.4424C282.997 33.4757 282.92 33.5089 282.821 33.5421C282.721 33.5687 282.608 33.592 282.482 33.6119C282.355 33.6385 282.219 33.6585 282.073 33.6718C281.933 33.6917 281.797 33.7017 281.664 33.7017ZM284.913 28.3963H286.878V29.1742H284.913V31.5676C284.913 31.8269 284.933 32.0429 284.973 32.2158C285.013 32.382 285.073 32.515 285.153 32.6147C285.232 32.7078 285.332 32.7743 285.452 32.8141C285.571 32.854 285.711 32.874 285.871 32.874C286.15 32.874 286.373 32.8441 286.539 32.7842C286.712 32.7177 286.831 32.6712 286.898 32.6446L287.077 33.4125C286.984 33.459 286.821 33.5155 286.589 33.582C286.356 33.6552 286.09 33.6917 285.791 33.6917C285.438 33.6917 285.146 33.6485 284.913 33.5621C284.687 33.469 284.504 33.3327 284.365 33.1532C284.225 32.9737 284.125 32.7543 284.066 32.495C284.012 32.2291 283.986 31.9233 283.986 31.5776V26.9503L284.913 26.7907V28.3963ZM288.985 33.582H288.058V28.3963H288.985V33.582ZM288.517 27.4589C288.351 27.4589 288.208 27.4057 288.088 27.2993C287.975 27.1863 287.918 27.0367 287.918 26.8506C287.918 26.6644 287.975 26.5182 288.088 26.4118C288.208 26.2988 288.351 26.2423 288.517 26.2423C288.683 26.2423 288.823 26.2988 288.936 26.4118C289.055 26.5182 289.115 26.6644 289.115 26.8506C289.115 27.0367 289.055 27.1863 288.936 27.2993C288.823 27.4057 288.683 27.4589 288.517 27.4589ZM295.158 30.9892C295.158 31.4014 295.098 31.7737 294.978 32.1061C294.859 32.4385 294.689 32.7244 294.47 32.9637C294.257 33.2031 294.001 33.3892 293.702 33.5222C293.403 33.6485 293.077 33.7117 292.724 33.7117C292.372 33.7117 292.046 33.6485 291.747 33.5222C291.448 33.3892 291.189 33.2031 290.969 32.9637C290.757 32.7244 290.59 32.4385 290.471 32.1061C290.351 31.7737 290.291 31.4014 290.291 30.9892C290.291 30.5836 290.351 30.2146 290.471 29.8822C290.59 29.5432 290.757 29.254 290.969 29.0146C291.189 28.7753 291.448 28.5924 291.747 28.4661C292.046 28.3332 292.372 28.2667 292.724 28.2667C293.077 28.2667 293.403 28.3332 293.702 28.4661C294.001 28.5924 294.257 28.7753 294.47 29.0146C294.689 29.254 294.859 29.5432 294.978 29.8822C295.098 30.2146 295.158 30.5836 295.158 30.9892ZM294.19 30.9892C294.19 30.4041 294.057 29.9421 293.792 29.603C293.532 29.2573 293.177 29.0844 292.724 29.0844C292.272 29.0844 291.913 29.2573 291.647 29.603C291.388 29.9421 291.259 30.4041 291.259 30.9892C291.259 31.5742 291.388 32.0396 291.647 32.3853C291.913 32.7244 292.272 32.8939 292.724 32.8939C293.177 32.8939 293.532 32.7244 293.792 32.3853C294.057 32.0396 294.19 31.5742 294.19 30.9892ZM296.463 28.5459C296.675 28.4927 296.958 28.4362 297.31 28.3764C297.663 28.3165 298.068 28.2866 298.527 28.2866C298.939 28.2866 299.282 28.3465 299.554 28.4661C299.827 28.5791 300.043 28.742 300.202 28.9548C300.369 29.1609 300.485 29.4102 300.551 29.7027C300.618 29.9952 300.651 30.3177 300.651 30.6701V33.582H299.724V30.8695C299.724 30.5504 299.7 30.2778 299.654 30.0518C299.614 29.8257 299.544 29.6429 299.444 29.5033C299.345 29.3637 299.212 29.2639 299.045 29.2041C298.879 29.1376 298.673 29.1044 298.427 29.1044C298.327 29.1044 298.224 29.1077 298.118 29.1143C298.012 29.121 297.909 29.131 297.809 29.1443C297.716 29.1509 297.629 29.1609 297.55 29.1742C297.476 29.1875 297.423 29.1974 297.39 29.2041V33.582H296.463V28.5459ZM303.286 33.0435C303.286 33.223 303.226 33.3793 303.106 33.5122C302.987 33.6452 302.824 33.7117 302.618 33.7117C302.412 33.7117 302.249 33.6452 302.129 33.5122C302.01 33.3793 301.95 33.223 301.95 33.0435C301.95 32.864 302.01 32.7078 302.129 32.5748C302.249 32.4418 302.412 32.3754 302.618 32.3754C302.824 32.3754 302.987 32.4418 303.106 32.5748C303.226 32.7078 303.286 32.864 303.286 33.0435ZM303.286 29.0645C303.286 29.244 303.226 29.4002 303.106 29.5332C302.987 29.6662 302.824 29.7326 302.618 29.7326C302.412 29.7326 302.249 29.6662 302.129 29.5332C302.01 29.4002 301.95 29.244 301.95 29.0645C301.95 28.885 302.01 28.7287 302.129 28.5958C302.249 28.4628 302.412 28.3963 302.618 28.3963C302.824 28.3963 302.987 28.4628 303.106 28.5958C303.226 28.7287 303.286 28.885 303.286 29.0645ZM306.552 31.1886C306.679 30.8961 306.852 30.557 307.071 30.1714C307.29 29.7792 307.536 29.3769 307.809 28.9648C308.088 28.5526 308.384 28.147 308.696 27.7481C309.016 27.3492 309.335 26.9902 309.654 26.6711H310.541V31.059H311.359V31.8169H310.541V33.582H309.644V31.8169H306.552V31.1886ZM309.644 27.768C309.444 27.9808 309.242 28.2201 309.036 28.4861C308.836 28.7454 308.64 29.0179 308.447 29.3038C308.254 29.5897 308.072 29.8822 307.899 30.1814C307.732 30.4806 307.583 30.7731 307.45 31.059H309.644V27.768Z" fill="#414652" fill-opacity="0.8"/>
<path d="M37.6328 122.698H35.5256L35.6548 122.112H40.555L40.4158 122.698H38.3087L36.7979 129H36.122L37.6328 122.698ZM40.9992 123.861H41.6453L40.4028 129H39.7568L40.9992 123.861ZM41.2576 122.36C41.2576 122.188 41.304 122.059 41.3968 121.973C41.4962 121.88 41.6022 121.834 41.7148 121.834C41.8474 121.834 41.9501 121.877 42.023 121.963C42.0959 122.042 42.1323 122.148 42.1323 122.281C42.1323 122.44 42.0793 122.563 41.9733 122.649C41.8673 122.735 41.7612 122.778 41.6552 122.778C41.5227 122.778 41.4233 122.741 41.357 122.669C41.2908 122.589 41.2576 122.486 41.2576 122.36ZM45.5947 128.752C45.4622 128.838 45.2568 128.92 44.9785 129C44.7068 129.08 44.402 129.119 44.064 129.119C43.461 129.119 43.0072 128.947 42.7023 128.602C42.3975 128.258 42.2451 127.784 42.2451 127.181C42.2451 126.731 42.3147 126.3 42.4539 125.889C42.593 125.472 42.7951 125.104 43.0602 124.786C43.3318 124.468 43.6632 124.216 44.0541 124.03C44.445 123.838 44.889 123.742 45.386 123.742C45.7305 123.742 46.0718 123.798 46.4097 123.911L46.1414 124.497C45.989 124.438 45.8366 124.398 45.6842 124.378C45.5384 124.352 45.3959 124.338 45.2568 124.338C44.9056 124.338 44.5842 124.415 44.2926 124.567C44.0077 124.713 43.7625 124.915 43.5571 125.173C43.3517 125.425 43.1927 125.72 43.08 126.058C42.9674 126.389 42.9111 126.74 42.9111 127.112C42.9111 127.549 43.0105 127.893 43.2093 128.145C43.4147 128.397 43.7394 128.523 44.1833 128.523C44.3225 128.523 44.4616 128.51 44.6008 128.483C44.7465 128.457 44.8791 128.427 44.9983 128.394C45.1176 128.354 45.2236 128.314 45.3164 128.274C45.4092 128.235 45.4787 128.198 45.5251 128.165L45.5947 128.752ZM48.4481 121.406L49.124 121.287L47.9809 126.038C48.2195 125.879 48.4613 125.7 48.7065 125.501C48.9583 125.296 49.1969 125.094 49.4222 124.895C49.6541 124.69 49.8628 124.497 50.0483 124.319C50.2339 124.133 50.3796 123.981 50.4857 123.861H51.2709C51.1516 124.014 50.9793 124.199 50.754 124.418C50.5354 124.637 50.3001 124.859 50.0483 125.084C49.8032 125.309 49.558 125.521 49.3128 125.72C49.0743 125.912 48.8755 126.055 48.7165 126.147C48.9417 126.32 49.1604 126.522 49.3725 126.754C49.5911 126.986 49.7899 127.231 49.9688 127.489C50.1477 127.748 50.3068 128.009 50.4459 128.274C50.5917 128.533 50.7043 128.775 50.7838 129H50.0881C49.7965 128.377 49.4652 127.844 49.0942 127.4C48.7231 126.949 48.3321 126.585 47.9213 126.306L47.2653 129H46.6192L48.4481 121.406ZM57.5172 123.116C57.3052 123.328 57.0402 123.52 56.7221 123.692C56.404 123.865 56.076 124.004 55.7381 124.11L55.6188 123.533C56.0031 123.394 56.3875 123.215 56.7718 122.997C57.1561 122.778 57.5371 122.483 57.9148 122.112H58.3919L56.742 129H56.1058L57.5172 123.116Z" fill="black"/>
<path d="M93.2939 83.9348H91.1868L91.316 83.3483H96.2161L96.0769 83.9348H93.9698L92.459 90.2363H91.7831L93.2939 83.9348ZM96.6603 85.0977H97.3064L96.064 90.2363H95.4179L96.6603 85.0977ZM96.9188 83.5968C96.9188 83.4245 96.9652 83.2953 97.0579 83.2092C97.1573 83.1164 97.2633 83.07 97.376 83.07C97.5085 83.07 97.6112 83.1131 97.6841 83.1992C97.757 83.2788 97.7934 83.3848 97.7934 83.5173C97.7934 83.6763 97.7404 83.7989 97.6344 83.8851C97.5284 83.9712 97.4224 84.0143 97.3163 84.0143C97.1838 84.0143 97.0844 83.9778 97.0182 83.9049C96.9519 83.8254 96.9188 83.7227 96.9188 83.5968ZM101.256 89.9878C101.123 90.074 100.918 90.1568 100.64 90.2363C100.368 90.3158 100.063 90.3556 99.7252 90.3556C99.1222 90.3556 98.6683 90.1833 98.3635 89.8388C98.0587 89.4942 97.9063 89.0204 97.9063 88.4174C97.9063 87.9668 97.9758 87.5361 98.115 87.1253C98.2541 86.7078 98.4562 86.3401 98.7213 86.022C98.993 85.704 99.3243 85.4522 99.7152 85.2666C100.106 85.0745 100.55 84.9784 101.047 84.9784C101.392 84.9784 101.733 85.0347 102.071 85.1474L101.803 85.7338C101.65 85.6741 101.498 85.6344 101.345 85.6145C101.2 85.588 101.057 85.5748 100.918 85.5748C100.567 85.5748 100.245 85.651 99.9538 85.8034C99.6688 85.9491 99.4237 86.1512 99.2183 86.4097C99.0128 86.6615 98.8538 86.9563 98.7412 87.2943C98.6285 87.6256 98.5722 87.9768 98.5722 88.3478C98.5722 88.7852 98.6716 89.1297 98.8704 89.3815C99.0758 89.6333 99.4005 89.7592 99.8444 89.7592C99.9836 89.7592 100.123 89.746 100.262 89.7195C100.408 89.693 100.54 89.6632 100.659 89.63C100.779 89.5903 100.885 89.5505 100.978 89.5108C101.07 89.471 101.14 89.4346 101.186 89.4014L101.256 89.9878ZM104.109 82.6426L104.785 82.5234L103.642 87.2744C103.881 87.1154 104.122 86.9364 104.368 86.7377C104.619 86.5322 104.858 86.3301 105.083 86.1314C105.315 85.9259 105.524 85.7338 105.709 85.5549C105.895 85.3693 106.041 85.2169 106.147 85.0977H106.932C106.813 85.2501 106.64 85.4356 106.415 85.6543C106.196 85.8729 105.961 86.0949 105.709 86.3202C105.464 86.5455 105.219 86.7575 104.974 86.9563C104.735 87.1485 104.537 87.291 104.378 87.3837C104.603 87.556 104.822 87.7581 105.034 87.99C105.252 88.2219 105.451 88.4671 105.63 88.7255C105.809 88.984 105.968 89.2457 106.107 89.5108C106.253 89.7692 106.365 90.011 106.445 90.2363H105.749C105.458 89.6135 105.126 89.08 104.755 88.6361C104.384 88.1855 103.993 87.8211 103.582 87.5428L102.926 90.2363H102.28L104.109 82.6426ZM113.705 89.6698L113.576 90.2363H109.729C109.809 89.7394 109.965 89.3087 110.197 88.9442C110.435 88.5798 110.707 88.2584 111.012 87.9801C111.316 87.7018 111.634 87.4467 111.966 87.2148C112.304 86.9828 112.612 86.7509 112.89 86.519C113.168 86.2871 113.397 86.0386 113.576 85.7735C113.761 85.5085 113.854 85.1971 113.854 84.8392C113.854 84.4682 113.752 84.1998 113.546 84.0341C113.347 83.8685 113.105 83.7857 112.821 83.7857C112.542 83.7857 112.257 83.8453 111.966 83.9646C111.674 84.0772 111.422 84.223 111.21 84.4019L110.992 83.8652C111.244 83.6598 111.542 83.4974 111.886 83.3781C112.237 83.2589 112.582 83.1992 112.92 83.1992C113.139 83.1992 113.344 83.2291 113.536 83.2887C113.735 83.3483 113.907 83.4411 114.053 83.567C114.205 83.6929 114.325 83.8552 114.411 84.054C114.504 84.2528 114.55 84.488 114.55 84.7597C114.55 85.0712 114.49 85.3561 114.371 85.6145C114.258 85.8663 114.109 86.1015 113.924 86.3202C113.745 86.5389 113.54 86.7443 113.308 86.9364C113.076 87.122 112.84 87.3009 112.602 87.4732C112.31 87.6918 112.045 87.8939 111.807 88.0795C111.568 88.2584 111.359 88.434 111.181 88.6063C111.008 88.7786 110.866 88.9508 110.753 89.1231C110.641 89.2954 110.561 89.4776 110.515 89.6698H113.705Z" fill="black"/>
<path d="M146.967 160.468H144.86L144.989 159.882H149.889L149.75 160.468H147.643L146.132 166.77H145.456L146.967 160.468ZM150.333 161.631H150.979L149.737 166.77H149.091L150.333 161.631ZM150.592 160.13C150.592 159.958 150.638 159.829 150.731 159.742C150.83 159.65 150.936 159.603 151.049 159.603C151.181 159.603 151.284 159.646 151.357 159.732C151.43 159.812 151.466 159.918 151.466 160.051C151.466 160.21 151.413 160.332 151.307 160.418C151.201 160.504 151.095 160.547 150.989 160.547C150.857 160.547 150.757 160.511 150.691 160.438C150.625 160.359 150.592 160.256 150.592 160.13ZM154.929 166.521C154.796 166.607 154.591 166.69 154.312 166.77C154.041 166.849 153.736 166.889 153.398 166.889C152.795 166.889 152.341 166.717 152.036 166.372C151.732 166.027 151.579 165.554 151.579 164.951C151.579 164.5 151.649 164.069 151.788 163.659C151.927 163.241 152.129 162.873 152.394 162.555C152.666 162.237 152.997 161.985 153.388 161.8C153.779 161.608 154.223 161.512 154.72 161.512C155.065 161.512 155.406 161.568 155.744 161.681L155.475 162.267C155.323 162.207 155.171 162.168 155.018 162.148C154.872 162.121 154.73 162.108 154.591 162.108C154.24 162.108 153.918 162.184 153.627 162.337C153.342 162.482 153.097 162.684 152.891 162.943C152.686 163.195 152.527 163.49 152.414 163.827C152.301 164.159 152.245 164.51 152.245 164.881C152.245 165.318 152.344 165.663 152.543 165.915C152.749 166.167 153.073 166.292 153.517 166.292C153.656 166.292 153.796 166.279 153.935 166.253C154.081 166.226 154.213 166.196 154.332 166.163C154.452 166.123 154.558 166.084 154.65 166.044C154.743 166.004 154.813 165.968 154.859 165.935L154.929 166.521ZM157.782 159.176L158.458 159.057L157.315 163.808C157.553 163.649 157.795 163.47 158.04 163.271C158.292 163.065 158.531 162.863 158.756 162.665C158.988 162.459 159.197 162.267 159.382 162.088C159.568 161.903 159.714 161.75 159.82 161.631H160.605C160.486 161.783 160.313 161.969 160.088 162.187C159.869 162.406 159.634 162.628 159.382 162.853C159.137 163.079 158.892 163.291 158.647 163.49C158.408 163.682 158.209 163.824 158.05 163.917C158.276 164.089 158.494 164.291 158.706 164.523C158.925 164.755 159.124 165 159.303 165.259C159.482 165.517 159.641 165.779 159.78 166.044C159.926 166.302 160.038 166.544 160.118 166.77H159.422C159.131 166.147 158.799 165.613 158.428 165.169C158.057 164.719 157.666 164.354 157.255 164.076L156.599 166.77H155.953L157.782 159.176ZM163.432 165.994C163.618 166.107 163.83 166.19 164.068 166.243C164.313 166.296 164.565 166.322 164.824 166.322C165.109 166.322 165.374 166.289 165.619 166.223C165.864 166.15 166.076 166.044 166.255 165.905C166.44 165.766 166.586 165.59 166.692 165.378C166.798 165.159 166.851 164.904 166.851 164.613C166.851 164.169 166.692 163.851 166.374 163.659C166.063 163.46 165.642 163.36 165.112 163.36L165.251 162.824H165.499C165.818 162.824 166.093 162.774 166.324 162.675C166.556 162.575 166.745 162.449 166.891 162.297C167.043 162.144 167.153 161.975 167.219 161.79C167.292 161.604 167.328 161.422 167.328 161.243C167.328 161.078 167.302 160.935 167.249 160.816C167.196 160.697 167.123 160.604 167.03 160.538C166.937 160.465 166.828 160.412 166.702 160.379C166.583 160.345 166.454 160.329 166.314 160.329C166.083 160.329 165.847 160.365 165.609 160.438C165.377 160.511 165.175 160.604 165.002 160.716L164.863 160.2C165.095 160.054 165.344 159.941 165.609 159.862C165.874 159.776 166.149 159.732 166.434 159.732C166.639 159.732 166.838 159.759 167.03 159.812C167.222 159.865 167.391 159.951 167.537 160.07C167.683 160.183 167.799 160.332 167.885 160.518C167.978 160.697 168.024 160.919 168.024 161.184C168.024 161.382 167.994 161.578 167.935 161.77C167.875 161.962 167.782 162.144 167.656 162.317C167.537 162.482 167.385 162.635 167.199 162.774C167.014 162.906 166.798 163.016 166.553 163.102C166.672 163.148 166.788 163.211 166.901 163.291C167.02 163.37 167.126 163.47 167.219 163.589C167.318 163.708 167.398 163.851 167.458 164.016C167.517 164.182 167.547 164.374 167.547 164.593C167.547 164.984 167.467 165.325 167.308 165.617C167.156 165.908 166.954 166.15 166.702 166.342C166.45 166.534 166.159 166.677 165.827 166.77C165.503 166.869 165.168 166.919 164.824 166.919C164.532 166.919 164.244 166.889 163.959 166.829C163.681 166.77 163.419 166.677 163.174 166.551L163.432 165.994Z" fill="black"/>
<path d="M192.26 83.3483L191.942 84.6504H189.924L188.583 90.2363H187.032L188.374 84.6504H186.356L186.674 83.3483H192.26ZM192.983 90.2363H191.512L192.755 85.0082H194.236L192.983 90.2363ZM193.699 84.3721C193.494 84.3721 193.308 84.3124 193.142 84.1932C192.977 84.0673 192.894 83.8784 192.894 83.6266C192.894 83.4875 192.92 83.3583 192.973 83.239C193.033 83.1131 193.109 83.0071 193.202 82.9209C193.295 82.8282 193.401 82.7553 193.52 82.7023C193.646 82.6493 193.778 82.6228 193.918 82.6228C194.123 82.6228 194.309 82.6857 194.474 82.8116C194.64 82.9309 194.723 83.1164 194.723 83.3682C194.723 83.5074 194.693 83.6399 194.633 83.7658C194.58 83.8851 194.507 83.9911 194.415 84.0838C194.322 84.17 194.213 84.2396 194.087 84.2926C193.967 84.3456 193.838 84.3721 193.699 84.3721ZM194.625 88.1491C194.625 87.6985 194.698 87.2744 194.844 86.8768C194.99 86.4792 195.199 86.1314 195.47 85.8332C195.742 85.535 196.07 85.2998 196.454 85.1275C196.845 84.9552 197.279 84.8691 197.756 84.8691C198.054 84.8691 198.32 84.8989 198.551 84.9585C198.79 85.0115 199.005 85.0844 199.197 85.1772L198.691 86.3301C198.558 86.2771 198.419 86.2308 198.273 86.191C198.134 86.1446 197.962 86.1214 197.756 86.1214C197.259 86.1214 196.868 86.2904 196.583 86.6283C196.298 86.9596 196.156 87.4135 196.156 87.99C196.156 88.328 196.229 88.603 196.375 88.815C196.52 89.0204 196.789 89.1231 197.18 89.1231C197.372 89.1231 197.557 89.1032 197.736 89.0635C197.915 89.0237 198.074 88.974 198.213 88.9144L198.323 90.0972C198.137 90.1701 197.932 90.233 197.707 90.286C197.488 90.3457 197.22 90.3755 196.901 90.3755C196.491 90.3755 196.143 90.3158 195.858 90.1966C195.573 90.0773 195.338 89.9183 195.152 89.7195C194.967 89.5141 194.831 89.2755 194.745 89.0038C194.665 88.7322 194.625 88.4472 194.625 88.1491ZM201.379 86.8967C201.776 86.5786 202.151 86.2539 202.502 85.9226C202.853 85.5913 203.155 85.2865 203.407 85.0082H205.076C204.705 85.419 204.318 85.8232 203.913 86.2208C203.516 86.6118 203.059 87.0292 202.542 87.4732C202.681 87.6455 202.82 87.8442 202.959 88.0695C203.105 88.2948 203.241 88.5301 203.367 88.7752C203.499 89.0204 203.619 89.2689 203.725 89.5207C203.837 89.7725 203.93 90.011 204.003 90.2363H202.353C202.293 90.064 202.217 89.8752 202.124 89.6698C202.038 89.4644 201.939 89.2623 201.826 89.0635C201.72 88.8581 201.607 88.6593 201.488 88.4671C201.369 88.275 201.25 88.1027 201.13 87.9503L200.574 90.2363H199.103L200.892 82.7619L202.432 82.5234L201.379 86.8967ZM210.889 85.0977C210.716 85.2633 210.534 85.4422 210.342 85.6344C210.156 85.8266 209.968 86.0287 209.775 86.2407C209.583 86.4461 209.394 86.6581 209.209 86.8768C209.03 87.0889 208.861 87.2976 208.702 87.503H210.312L210.889 85.0977ZM212.708 83.3483L211.704 87.503H212.429L212.141 88.6957H211.406L211.028 90.2363H209.616L209.984 88.6957H207.032L207.281 87.6024C207.493 87.3108 207.751 86.9828 208.056 86.6184C208.361 86.2473 208.692 85.8696 209.05 85.4853C209.408 85.101 209.779 84.7233 210.163 84.3522C210.547 83.9811 210.925 83.6465 211.296 83.3483H212.708Z" fill="black"/>
<path d="M235.994 181.749L235.676 183.051H233.658L232.316 188.637H230.766L232.107 183.051H230.09L230.408 181.749H235.994ZM236.717 188.637H235.246L236.488 183.409H237.969L236.717 188.637ZM237.432 182.772C237.227 182.772 237.041 182.713 236.876 182.594C236.71 182.468 236.627 182.279 236.627 182.027C236.627 181.888 236.654 181.759 236.707 181.639C236.766 181.513 236.843 181.407 236.935 181.321C237.028 181.229 237.134 181.156 237.253 181.103C237.379 181.05 237.512 181.023 237.651 181.023C237.856 181.023 238.042 181.086 238.208 181.212C238.373 181.331 238.456 181.517 238.456 181.769C238.456 181.908 238.426 182.04 238.367 182.166C238.314 182.285 238.241 182.391 238.148 182.484C238.055 182.57 237.946 182.64 237.82 182.693C237.701 182.746 237.572 182.772 237.432 182.772ZM238.359 186.549C238.359 186.099 238.432 185.675 238.577 185.277C238.723 184.88 238.932 184.532 239.204 184.234C239.475 183.935 239.803 183.7 240.188 183.528C240.579 183.356 241.013 183.269 241.49 183.269C241.788 183.269 242.053 183.299 242.285 183.359C242.523 183.412 242.739 183.485 242.931 183.578L242.424 184.731C242.291 184.678 242.152 184.631 242.007 184.591C241.867 184.545 241.695 184.522 241.49 184.522C240.993 184.522 240.602 184.691 240.317 185.029C240.032 185.36 239.889 185.814 239.889 186.39C239.889 186.728 239.962 187.003 240.108 187.215C240.254 187.421 240.522 187.524 240.913 187.524C241.105 187.524 241.291 187.504 241.47 187.464C241.649 187.424 241.808 187.374 241.947 187.315L242.056 188.498C241.871 188.57 241.665 188.633 241.44 188.686C241.221 188.746 240.953 188.776 240.635 188.776C240.224 188.776 239.876 188.716 239.591 188.597C239.306 188.478 239.071 188.319 238.886 188.12C238.7 187.914 238.564 187.676 238.478 187.404C238.399 187.133 238.359 186.848 238.359 186.549ZM245.112 185.297C245.51 184.979 245.884 184.654 246.235 184.323C246.587 183.992 246.888 183.687 247.14 183.409H248.81C248.439 183.819 248.051 184.224 247.647 184.621C247.249 185.012 246.792 185.43 246.275 185.874C246.414 186.046 246.553 186.245 246.693 186.47C246.838 186.695 246.974 186.93 247.1 187.176C247.233 187.421 247.352 187.669 247.458 187.921C247.571 188.173 247.663 188.411 247.736 188.637H246.086C246.027 188.464 245.95 188.276 245.858 188.07C245.772 187.865 245.672 187.663 245.56 187.464C245.454 187.258 245.341 187.06 245.222 186.868C245.102 186.675 244.983 186.503 244.864 186.351L244.307 188.637H242.836L244.625 181.162L246.166 180.924L245.112 185.297ZM251.273 187.106C251.504 187.245 251.753 187.351 252.018 187.424C252.283 187.497 252.538 187.533 252.783 187.533C253.26 187.533 253.625 187.444 253.877 187.265C254.128 187.086 254.254 186.808 254.254 186.43C254.254 186.271 254.211 186.129 254.125 186.003C254.039 185.87 253.9 185.761 253.708 185.675C253.516 185.582 253.257 185.512 252.932 185.466C252.614 185.413 252.223 185.387 251.76 185.387C251.978 184.77 252.187 184.151 252.386 183.528C252.585 182.898 252.76 182.305 252.913 181.749H256.59L256.292 182.981H253.837C253.771 183.22 253.698 183.462 253.618 183.707C253.545 183.945 253.479 184.147 253.419 184.313C253.817 184.346 254.158 184.422 254.443 184.542C254.735 184.654 254.973 184.8 255.159 184.979C255.351 185.158 255.493 185.363 255.586 185.595C255.679 185.821 255.725 186.062 255.725 186.321C255.725 186.692 255.662 187.03 255.537 187.335C255.417 187.639 255.235 187.898 254.99 188.11C254.745 188.322 254.44 188.488 254.075 188.607C253.711 188.72 253.29 188.776 252.813 188.776C252.674 188.776 252.515 188.766 252.336 188.746C252.157 188.726 251.972 188.696 251.779 188.657C251.594 188.623 251.408 188.577 251.223 188.517C251.044 188.458 250.878 188.388 250.726 188.309L251.273 187.106ZM263.116 181.52C262.739 181.931 262.394 182.365 262.083 182.822C261.771 183.273 261.503 183.743 261.277 184.234C261.052 184.724 260.877 185.231 260.751 185.754C260.625 186.271 260.562 186.798 260.562 187.335C260.562 187.752 260.602 188.166 260.681 188.577C260.761 188.981 260.886 189.392 261.059 189.81L259.965 190.476C259.667 189.979 259.449 189.465 259.309 188.935C259.177 188.405 259.111 187.858 259.111 187.295C259.111 186.699 259.184 186.105 259.329 185.516C259.482 184.926 259.69 184.356 259.956 183.806C260.227 183.25 260.549 182.723 260.92 182.226C261.297 181.722 261.711 181.265 262.162 180.854L263.116 181.52ZM267.238 187.325L266.92 188.637H262.328L263.978 181.749H265.528L264.187 187.325H267.238ZM270.06 188.776C269.709 188.776 269.404 188.723 269.145 188.617C268.887 188.511 268.672 188.362 268.499 188.17C268.334 187.977 268.208 187.752 268.122 187.494C268.036 187.229 267.993 186.937 267.993 186.619C267.993 186.221 268.055 185.824 268.181 185.426C268.314 185.029 268.506 184.671 268.758 184.353C269.01 184.035 269.318 183.776 269.682 183.578C270.047 183.372 270.464 183.269 270.935 183.269C271.279 183.269 271.581 183.322 271.839 183.428C272.104 183.534 272.319 183.684 272.485 183.876C272.657 184.068 272.787 184.297 272.873 184.562C272.959 184.82 273.002 185.108 273.002 185.426C273.002 185.824 272.939 186.221 272.813 186.619C272.687 187.017 272.502 187.374 272.257 187.692C272.011 188.011 271.703 188.272 271.332 188.478C270.968 188.676 270.544 188.776 270.06 188.776ZM270.795 184.522C270.577 184.522 270.385 184.585 270.219 184.711C270.053 184.837 269.914 184.996 269.801 185.188C269.689 185.38 269.603 185.592 269.543 185.824C269.49 186.049 269.464 186.265 269.464 186.47C269.464 186.808 269.517 187.07 269.623 187.255C269.729 187.434 269.921 187.524 270.199 187.524C270.418 187.524 270.61 187.461 270.776 187.335C270.941 187.209 271.08 187.05 271.193 186.858C271.306 186.665 271.388 186.457 271.441 186.231C271.501 185.999 271.531 185.781 271.531 185.575C271.531 185.237 271.478 184.979 271.372 184.8C271.266 184.615 271.074 184.522 270.795 184.522ZM277.4 185.575C277.274 185.847 277.131 186.125 276.972 186.41C276.82 186.689 276.661 186.964 276.495 187.235C276.336 187.5 276.18 187.755 276.028 188.001C275.876 188.239 275.74 188.451 275.621 188.637H274.468C274.415 188.358 274.358 188.027 274.299 187.643C274.246 187.258 274.193 186.841 274.14 186.39C274.087 185.933 274.037 185.453 273.99 184.949C273.951 184.439 273.921 183.925 273.901 183.409H275.352C275.352 183.647 275.352 183.906 275.352 184.184C275.359 184.462 275.365 184.75 275.372 185.049C275.385 185.347 275.402 185.652 275.422 185.963C275.442 186.274 275.468 186.583 275.501 186.887C275.667 186.609 275.829 186.321 275.988 186.023C276.154 185.718 276.31 185.416 276.455 185.118C276.608 184.813 276.747 184.515 276.873 184.224C277.005 183.932 277.121 183.66 277.221 183.409H278.453C278.453 183.886 278.46 184.419 278.473 185.009C278.493 185.599 278.536 186.225 278.602 186.887C278.781 186.589 278.947 186.284 279.099 185.973C279.252 185.655 279.391 185.343 279.517 185.039C279.649 184.734 279.765 184.442 279.865 184.164C279.971 183.886 280.063 183.634 280.143 183.409H281.713C281.581 183.74 281.422 184.114 281.236 184.532C281.057 184.943 280.849 185.377 280.61 185.834C280.372 186.291 280.103 186.758 279.805 187.235C279.507 187.712 279.176 188.18 278.811 188.637H277.658C277.579 188.093 277.519 187.573 277.479 187.076C277.439 186.579 277.413 186.079 277.4 185.575ZM281.814 186.589C281.814 186.165 281.887 185.754 282.033 185.357C282.186 184.959 282.398 184.608 282.669 184.303C282.941 183.992 283.269 183.743 283.653 183.558C284.044 183.366 284.475 183.269 284.945 183.269C285.177 183.269 285.393 183.303 285.591 183.369C285.79 183.435 285.963 183.531 286.108 183.657C286.261 183.783 286.377 183.939 286.456 184.124C286.542 184.303 286.585 184.509 286.585 184.74C286.585 185.112 286.503 185.426 286.337 185.685C286.171 185.943 285.939 186.155 285.641 186.321C285.35 186.48 285.002 186.596 284.598 186.669C284.193 186.742 283.753 186.778 283.276 186.778C283.322 187.056 283.421 187.255 283.574 187.374C283.733 187.487 283.981 187.543 284.319 187.543C284.531 187.543 284.747 187.527 284.965 187.494C285.184 187.454 285.389 187.398 285.582 187.325L285.691 188.488C285.505 188.561 285.267 188.627 284.975 188.686C284.69 188.746 284.379 188.776 284.041 188.776C283.63 188.776 283.282 188.72 282.997 188.607C282.719 188.488 282.49 188.329 282.311 188.13C282.139 187.931 282.013 187.699 281.934 187.434C281.854 187.169 281.814 186.887 281.814 186.589ZM284.707 184.442C284.369 184.442 284.071 184.565 283.812 184.81C283.561 185.049 283.395 185.367 283.315 185.764C283.726 185.751 284.057 185.718 284.309 185.665C284.561 185.605 284.757 185.536 284.896 185.456C285.035 185.377 285.128 185.29 285.174 185.198C285.22 185.105 285.244 185.012 285.244 184.919C285.244 184.601 285.065 184.442 284.707 184.442ZM288.487 187.583C288.824 187.583 289.056 187.537 289.182 187.444C289.308 187.345 289.371 187.239 289.371 187.126C289.371 187.053 289.358 186.99 289.331 186.937C289.312 186.884 289.275 186.834 289.222 186.788C289.169 186.742 289.096 186.695 289.003 186.649C288.911 186.596 288.791 186.536 288.646 186.47C288.48 186.397 288.324 186.321 288.178 186.241C288.033 186.155 287.903 186.056 287.791 185.943C287.685 185.824 287.599 185.691 287.532 185.546C287.473 185.393 287.443 185.214 287.443 185.009C287.443 184.472 287.638 184.048 288.029 183.737C288.427 183.425 289.003 183.269 289.759 183.269C290.117 183.269 290.435 183.309 290.713 183.389C290.991 183.468 291.217 183.554 291.389 183.647L290.882 184.75C290.743 184.678 290.564 184.608 290.345 184.542C290.127 184.475 289.911 184.442 289.699 184.442C289.606 184.442 289.514 184.449 289.421 184.462C289.335 184.469 289.252 184.489 289.172 184.522C289.099 184.555 289.04 184.601 288.993 184.661C288.947 184.721 288.924 184.8 288.924 184.9C288.924 185.032 288.974 185.131 289.073 185.198C289.179 185.264 289.325 185.343 289.51 185.436C289.769 185.562 289.984 185.678 290.156 185.784C290.329 185.89 290.464 186.003 290.564 186.122C290.67 186.241 290.746 186.377 290.792 186.53C290.839 186.682 290.862 186.861 290.862 187.066C290.862 187.278 290.816 187.487 290.723 187.692C290.637 187.898 290.498 188.08 290.305 188.239C290.113 188.398 289.868 188.527 289.57 188.627C289.272 188.726 288.914 188.776 288.496 188.776C288.238 188.776 288.003 188.759 287.791 188.726C287.585 188.693 287.403 188.653 287.244 188.607C287.085 188.554 286.949 188.501 286.837 188.448C286.731 188.395 286.648 188.352 286.588 188.319L287.095 187.186C287.208 187.252 287.383 187.335 287.622 187.434C287.86 187.533 288.149 187.583 288.487 187.583ZM293.013 182.107L294.554 181.868L294.176 183.409H295.826L295.528 184.621H293.888L293.45 186.45C293.41 186.602 293.384 186.745 293.371 186.877C293.364 187.01 293.381 187.126 293.42 187.225C293.467 187.318 293.543 187.391 293.649 187.444C293.755 187.497 293.901 187.524 294.086 187.524C294.245 187.524 294.398 187.51 294.544 187.484C294.696 187.451 294.848 187.408 295.001 187.355L295.11 188.488C294.911 188.561 294.696 188.623 294.464 188.676C294.232 188.729 293.957 188.756 293.639 188.756C293.182 188.756 292.827 188.69 292.576 188.557C292.324 188.418 292.145 188.233 292.039 188.001C291.933 187.762 291.886 187.49 291.9 187.186C291.913 186.881 291.959 186.559 292.039 186.221L293.013 182.107ZM299.536 182.107L301.076 181.868L300.699 183.409H302.349L302.05 184.621H300.41L299.973 186.45C299.933 186.602 299.907 186.745 299.893 186.877C299.887 187.01 299.903 187.126 299.943 187.225C299.99 187.318 300.066 187.391 300.172 187.444C300.278 187.497 300.424 187.524 300.609 187.524C300.768 187.524 300.921 187.51 301.066 187.484C301.219 187.451 301.371 187.408 301.524 187.355L301.633 188.488C301.434 188.561 301.219 188.623 300.987 188.676C300.755 188.729 300.48 188.756 300.162 188.756C299.705 188.756 299.35 188.69 299.098 188.557C298.847 188.418 298.668 188.233 298.562 188.001C298.456 187.762 298.409 187.49 298.422 187.186C298.436 186.881 298.482 186.559 298.562 186.221L299.536 182.107ZM303.72 188.637H302.249L303.492 183.409H304.973L303.72 188.637ZM304.436 182.772C304.231 182.772 304.045 182.713 303.879 182.594C303.714 182.468 303.631 182.279 303.631 182.027C303.631 181.888 303.657 181.759 303.71 181.639C303.77 181.513 303.846 181.407 303.939 181.321C304.032 181.229 304.138 181.156 304.257 181.103C304.383 181.05 304.515 181.023 304.655 181.023C304.86 181.023 305.046 181.086 305.211 181.212C305.377 181.331 305.46 181.517 305.46 181.769C305.46 181.908 305.43 182.04 305.37 182.166C305.317 182.285 305.244 182.391 305.152 182.484C305.059 182.57 304.949 182.64 304.824 182.693C304.704 182.746 304.575 182.772 304.436 182.772ZM305.362 186.549C305.362 186.099 305.435 185.675 305.581 185.277C305.727 184.88 305.935 184.532 306.207 184.234C306.479 183.935 306.807 183.7 307.191 183.528C307.582 183.356 308.016 183.269 308.493 183.269C308.791 183.269 309.056 183.299 309.288 183.359C309.527 183.412 309.742 183.485 309.934 183.578L309.428 184.731C309.295 184.678 309.156 184.631 309.01 184.591C308.871 184.545 308.699 184.522 308.493 184.522C307.996 184.522 307.605 184.691 307.32 185.029C307.035 185.36 306.893 185.814 306.893 186.39C306.893 186.728 306.966 187.003 307.112 187.215C307.257 187.421 307.526 187.524 307.917 187.524C308.109 187.524 308.294 187.504 308.473 187.464C308.652 187.424 308.811 187.374 308.95 187.315L309.06 188.498C308.874 188.57 308.669 188.633 308.444 188.686C308.225 188.746 307.956 188.776 307.638 188.776C307.228 188.776 306.88 188.716 306.595 188.597C306.31 188.478 306.075 188.319 305.889 188.12C305.704 187.914 305.568 187.676 305.482 187.404C305.402 187.133 305.362 186.848 305.362 186.549ZM312.116 185.297C312.513 184.979 312.888 184.654 313.239 184.323C313.59 183.992 313.892 183.687 314.143 183.409H315.813C315.442 183.819 315.055 184.224 314.65 184.621C314.253 185.012 313.796 185.43 313.279 185.874C313.418 186.046 313.557 186.245 313.696 186.47C313.842 186.695 313.978 186.93 314.104 187.176C314.236 187.421 314.355 187.669 314.462 187.921C314.574 188.173 314.667 188.411 314.74 188.637H313.09C313.03 188.464 312.954 188.276 312.861 188.07C312.775 187.865 312.676 187.663 312.563 187.464C312.457 187.258 312.344 187.06 312.225 186.868C312.106 186.675 311.987 186.503 311.867 186.351L311.311 188.637H309.84L311.629 181.162L313.169 180.924L312.116 185.297ZM314.477 189.8C314.855 189.395 315.199 188.968 315.511 188.517C315.829 188.06 316.097 187.586 316.316 187.096C316.541 186.599 316.717 186.092 316.842 185.575C316.968 185.052 317.031 184.522 317.031 183.985C317.031 183.568 316.992 183.157 316.912 182.753C316.833 182.342 316.707 181.928 316.534 181.51L317.628 180.844C317.926 181.341 318.141 181.855 318.274 182.385C318.413 182.915 318.482 183.462 318.482 184.025C318.482 184.621 318.406 185.214 318.254 185.804C318.108 186.394 317.899 186.967 317.628 187.524C317.363 188.073 317.041 188.597 316.664 189.094C316.292 189.598 315.882 190.055 315.431 190.466L314.477 189.8Z" fill="#FF444F"/>
<path d="M278.346 166.716C278.346 169.46 276.121 171.685 273.376 171.685C270.631 171.685 268.406 169.46 268.406 166.716C268.406 163.971 270.631 161.746 273.376 161.746C276.121 161.746 278.346 163.971 278.346 166.716Z" fill="#FF444F"/>
<defs>
<filter id="filter0_d_2591_30097" x="0.0977015" y="0.175427" width="341.805" height="227.502" filterUnits="userSpaceOnUse" color-interpolation-filters="sRGB">
<feFlood flood-opacity="0" result="BackgroundImageFix"/>
<feColorMatrix in="SourceAlpha" type="matrix" values="0 0 0 0 0 0 0 0 0 0 0 0 0 0 0 0 0 0 127 0" result="hardAlpha"/>
<feOffset dy="1.38046"/>
<feGaussianBlur stdDeviation="3.45115"/>
<feComposite in2="hardAlpha" operator="out"/>
<feColorMatrix type="matrix" values="0 0 0 0 0 0 0 0 0 0 0 0 0 0 0 0 0 0 0.1 0"/>
<feBlend mode="normal" in2="BackgroundImageFix" result="effect1_dropShadow_2591_30097"/>
<feBlend mode="normal" in="SourceGraphic" in2="effect1_dropShadow_2591_30097" result="shape"/>
</filter>
</defs>
</svg>
