<svg width="342" height="228" viewBox="0 0 342 228" fill="none" xmlns="http://www.w3.org/2000/svg">
<g filter="url(#filter0_d_2591_30065)">
<rect x="7" y="5.69727" width="328" height="213.697" rx="4.14138" fill="white"/>
</g>
<path d="M41.2532 34.3854V36.25H34.8105V26.6068H36.9812V34.3854H41.2532ZM49.3584 32.5764C49.3584 33.1516 49.275 33.6803 49.108 34.1627C48.941 34.6358 48.6998 35.044 48.3844 35.3873C48.069 35.7212 47.6886 35.981 47.2433 36.1665C46.8073 36.352 46.3157 36.4448 45.7683 36.4448C45.2303 36.4448 44.7386 36.352 44.2933 36.1665C43.8573 35.981 43.4816 35.7212 43.1662 35.3873C42.8508 35.044 42.605 34.6358 42.4287 34.1627C42.2524 33.6803 42.1643 33.1516 42.1643 32.5764C42.1643 32.0012 42.2524 31.4771 42.4287 31.004C42.6142 30.5309 42.8647 30.1273 43.1801 29.7934C43.5048 29.4594 43.8851 29.1997 44.3212 29.0141C44.7664 28.8286 45.2488 28.7358 45.7683 28.7358C46.2971 28.7358 46.7795 28.8286 47.2155 29.0141C47.6608 29.1997 48.0411 29.4594 48.3566 29.7934C48.672 30.1273 48.9178 30.5309 49.0941 31.004C49.2703 31.4771 49.3584 32.0012 49.3584 32.5764ZM47.2433 32.5764C47.2433 31.9363 47.1135 31.4354 46.8537 31.0736C46.6032 30.7025 46.2414 30.517 45.7683 30.517C45.2952 30.517 44.9288 30.7025 44.669 31.0736C44.4093 31.4354 44.2794 31.9363 44.2794 32.5764C44.2794 33.2165 44.4093 33.7267 44.669 34.1071C44.9288 34.4781 45.2952 34.6637 45.7683 34.6637C46.2414 34.6637 46.6032 34.4781 46.8537 34.1071C47.1135 33.7267 47.2433 33.2165 47.2433 32.5764ZM55.2543 32.0476C55.0688 32.7527 54.8694 33.4531 54.656 34.1488C54.4519 34.8446 54.2339 35.545 54.002 36.25H52.3878C52.2208 35.8604 52.0399 35.3965 51.8451 34.8585C51.6503 34.3204 51.4462 33.736 51.2329 33.1052C51.0288 32.4651 50.8154 31.7925 50.5928 31.0875C50.3794 30.3732 50.1707 29.6542 49.9666 28.9306H52.1513C52.2255 29.2646 52.3043 29.631 52.3878 30.0299C52.4806 30.4196 52.5734 30.8231 52.6661 31.2405C52.7682 31.658 52.8702 32.0801 52.9723 32.5068C53.0836 32.9243 53.1949 33.3278 53.3062 33.7174C53.4268 33.3093 53.5428 32.8918 53.6541 32.4651C53.7747 32.0383 53.886 31.6209 53.9881 31.2127C54.0994 30.7953 54.2014 30.3964 54.2942 30.016C54.3962 29.6264 54.4844 29.2646 54.5586 28.9306H56.0614C56.1356 29.2646 56.2191 29.6264 56.3119 30.016C56.4047 30.3964 56.5021 30.7953 56.6041 31.2127C56.7062 31.6209 56.8128 32.0383 56.9242 32.4651C57.0355 32.8918 57.1514 33.3093 57.272 33.7174C57.3834 33.3278 57.4947 32.9243 57.606 32.5068C57.7173 32.0801 57.8194 31.658 57.9121 31.2405C58.0142 30.8231 58.1069 30.4196 58.1904 30.0299C58.2832 29.631 58.3667 29.2646 58.4409 28.9306H60.5978C60.3937 29.6542 60.1803 30.3732 59.9577 31.0875C59.7443 31.7925 59.5309 32.4651 59.3176 33.1052C59.1135 33.736 58.9094 34.3204 58.7053 34.8585C58.5105 35.3965 58.3296 35.8604 58.1626 36.25H56.5484C56.3165 35.545 56.0892 34.8446 55.8666 34.1488C55.644 33.4531 55.4399 32.7527 55.2543 32.0476Z" fill="#414652"/>
<rect x="7.51245" y="56.5808" width="326.975" height="162.301" stroke="#ECECEC" stroke-width="1.0249"/>
<path d="M7 109.858H335" stroke="#ECECEC" stroke-width="1.0249"/>
<path d="M7 83.4521H335" stroke="#ECECEC" stroke-width="1.0249"/>
<path d="M7 136.264H335" stroke="#ECECEC" stroke-width="1.0249"/>
<path d="M7 162.671H335" stroke="#ECECEC" stroke-width="1.0249"/>
<path d="M7 189.076H335" stroke="#ECECEC" stroke-width="1.0249"/>
<path d="M62.1787 56.0684L62.1787 219.394" stroke="#ECECEC" stroke-width="1.0249"/>
<path d="M116.334 56.0684L116.334 219.394" stroke="#ECECEC" stroke-width="1.0249"/>
<path d="M170.489 56.0684L170.489 219.394" stroke="#ECECEC" stroke-width="1.0249"/>
<path d="M224.646 56.0684L224.645 219.394" stroke="#ECECEC" stroke-width="1.0249"/>
<path d="M278.801 56.0684L278.801 219.394" stroke="#ECECEC" stroke-width="1.0249"/>
<path d="M7 56.832H335" stroke="#ECECEC" stroke-width="1.5302"/>
<path d="M53.7148 112.049L114.842 146.339L156.091 98.6305L211.751 168.703L272.382 90.6789" stroke="#A8A8A8" stroke-width="2.98182"/>
<rect x="127.267" y="13.6484" width="81.503" height="33.7939" rx="15.903" fill="#00A79E"/>
<path d="M159.788 26.7556C159.915 27.1903 160.053 27.6833 160.202 28.2346C160.361 28.7753 160.525 29.3372 160.695 29.9203C160.875 30.5034 161.055 31.0866 161.235 31.6697C161.416 32.2528 161.591 32.7935 161.76 33.2918C161.898 32.7511 162.036 32.1627 162.174 31.5265C162.322 30.8904 162.46 30.2331 162.587 29.5546C162.714 28.876 162.836 28.2028 162.953 27.5349C163.08 26.8564 163.197 26.2043 163.303 25.5788H165.879C165.508 27.4236 165.079 29.2948 164.591 31.1926C164.114 33.0903 163.594 34.8927 163.032 36.5996H160.758C160.387 35.5818 160.027 34.5163 159.677 33.4031C159.327 32.2793 158.982 31.1555 158.643 30.0317C158.304 31.1555 157.965 32.2793 157.625 33.4031C157.286 34.5163 156.931 35.5818 156.56 36.5996H154.286C153.724 34.8927 153.199 33.0903 152.711 31.1926C152.234 29.2948 151.81 27.4236 151.439 25.5788H154.127C154.233 26.2043 154.349 26.8564 154.477 27.5349C154.604 28.2028 154.736 28.876 154.874 29.5546C155.012 30.2331 155.15 30.8904 155.288 31.5265C155.436 32.1627 155.585 32.7511 155.733 33.2918C155.924 32.7723 156.109 32.221 156.29 31.6379C156.47 31.0548 156.645 30.4716 156.814 29.8885C156.984 29.3054 157.138 28.7435 157.276 28.2028C157.424 27.6621 157.557 27.1797 157.673 26.7556H159.788ZM169.684 36.5996H167.314V28.2346H169.684V36.5996ZM169.906 25.8174C169.906 26.252 169.763 26.5966 169.477 26.8511C169.201 27.0949 168.873 27.2168 168.491 27.2168C168.109 27.2168 167.775 27.0949 167.489 26.8511C167.214 26.5966 167.076 26.252 167.076 25.8174C167.076 25.3827 167.214 25.0434 167.489 24.7996C167.775 24.5451 168.109 24.4179 168.491 24.4179C168.873 24.4179 169.201 24.5451 169.477 24.7996C169.763 25.0434 169.906 25.3827 169.906 25.8174ZM171.911 28.5209C172.314 28.4042 172.834 28.2982 173.47 28.2028C174.106 28.0968 174.774 28.0438 175.473 28.0438C176.184 28.0438 176.772 28.1392 177.239 28.33C177.716 28.5103 178.092 28.77 178.368 29.1093C178.643 29.4485 178.84 29.8514 178.956 30.3179C179.073 30.7844 179.131 31.3039 179.131 31.8764V36.5996H176.762V32.1627C176.762 31.3993 176.661 30.8586 176.459 30.5406C176.258 30.2225 175.882 30.0635 175.33 30.0635C175.161 30.0635 174.98 30.0741 174.79 30.0953C174.599 30.1059 174.429 30.1218 174.281 30.143V36.5996H171.911V28.5209ZM183.709 28.4255C183.709 29.2842 183.677 30.0847 183.614 30.8268C183.55 31.569 183.465 32.3217 183.359 33.085H181.546C181.44 32.3217 181.35 31.569 181.276 30.8268C181.212 30.0847 181.181 29.2842 181.181 28.4255V25.5788H183.709V28.4255ZM183.916 35.3433C183.916 35.8098 183.762 36.1702 183.455 36.4247C183.158 36.6791 182.819 36.8063 182.437 36.8063C182.055 36.8063 181.711 36.6791 181.403 36.4247C181.106 36.1702 180.958 35.8098 180.958 35.3433C180.958 34.8768 181.106 34.5163 181.403 34.2619C181.711 34.0074 182.055 33.8802 182.437 33.8802C182.819 33.8802 183.158 34.0074 183.455 34.2619C183.762 34.5163 183.916 34.8768 183.916 35.3433Z" fill="white"/>
<path d="M240.087 26.6711V27.5088H237.913V33.582H236.946V27.5088H234.772V26.6711H240.087ZM241.976 33.582H241.049V28.3963H241.976V33.582ZM241.508 27.4589C241.341 27.4589 241.198 27.4057 241.079 27.2993C240.966 27.1863 240.909 27.0367 240.909 26.8506C240.909 26.6644 240.966 26.5182 241.079 26.4118C241.198 26.2988 241.341 26.2423 241.508 26.2423C241.674 26.2423 241.813 26.2988 241.926 26.4118C242.046 26.5182 242.106 26.6644 242.106 26.8506C242.106 27.0367 242.046 27.1863 241.926 27.2993C241.813 27.4057 241.674 27.4589 241.508 27.4589ZM245.825 33.7017C245.406 33.7017 245.037 33.6352 244.718 33.5023C244.406 33.3693 244.14 33.1831 243.92 32.9438C243.708 32.7044 243.548 32.4219 243.442 32.0961C243.335 31.7637 243.282 31.398 243.282 30.9991C243.282 30.6002 243.339 30.2346 243.452 29.9022C243.571 29.5698 243.737 29.2839 243.95 29.0445C244.163 28.7985 244.422 28.6091 244.728 28.4761C245.041 28.3365 245.386 28.2667 245.765 28.2667C245.998 28.2667 246.231 28.2866 246.463 28.3265C246.696 28.3664 246.919 28.4296 247.131 28.516L246.922 29.3038C246.782 29.2373 246.619 29.1841 246.433 29.1443C246.254 29.1044 246.061 29.0844 245.855 29.0844C245.336 29.0844 244.937 29.2473 244.658 29.5731C244.386 29.8988 244.249 30.3742 244.249 30.9991C244.249 31.2784 244.279 31.5343 244.339 31.767C244.406 31.9997 244.505 32.1992 244.638 32.3654C244.778 32.5316 244.954 32.6612 245.167 32.7543C245.38 32.8407 245.639 32.884 245.945 32.884C246.191 32.884 246.413 32.8607 246.613 32.8141C246.812 32.7676 246.969 32.7177 247.082 32.6646L247.211 33.4424C247.158 33.4757 247.082 33.5089 246.982 33.5421C246.882 33.5687 246.769 33.592 246.643 33.6119C246.516 33.6385 246.38 33.6585 246.234 33.6718C246.094 33.6917 245.958 33.7017 245.825 33.7017ZM250.082 30.7299C250.281 30.8828 250.491 31.0723 250.71 31.2983C250.936 31.5244 251.155 31.7704 251.368 32.0363C251.588 32.2956 251.794 32.5615 251.986 32.8341C252.179 33.1 252.342 33.3493 252.475 33.582H251.388C251.249 33.3493 251.086 33.1133 250.899 32.874C250.72 32.628 250.53 32.3953 250.331 32.1759C250.132 31.9499 249.929 31.7438 249.723 31.5576C249.517 31.3715 249.32 31.2152 249.134 31.0889V33.582H248.207V26.0029L249.134 25.8434V30.5703C249.294 30.4108 249.47 30.2346 249.663 30.0418C249.856 29.849 250.045 29.6529 250.231 29.4534C250.417 29.254 250.594 29.0645 250.76 28.885C250.926 28.6988 251.069 28.5359 251.189 28.3963H252.276C252.123 28.5625 251.957 28.7454 251.777 28.9448C251.598 29.1443 251.411 29.347 251.219 29.5531C251.026 29.7526 250.83 29.9554 250.63 30.1615C250.437 30.3609 250.255 30.5504 250.082 30.7299ZM259.325 30.9991C259.325 30.3941 259.176 29.9288 258.877 29.603C258.577 29.2772 258.178 29.1143 257.68 29.1143C257.401 29.1143 257.181 29.1243 257.022 29.1443C256.869 29.1642 256.746 29.1875 256.653 29.2141V32.4851C256.766 32.5781 256.929 32.6679 257.141 32.7543C257.354 32.8407 257.587 32.884 257.839 32.884C258.105 32.884 258.331 32.8374 258.518 32.7443C258.71 32.6446 258.867 32.5116 258.986 32.3454C259.106 32.1726 259.192 31.9731 259.246 31.7471C259.299 31.5144 259.325 31.2651 259.325 30.9991ZM260.293 30.9991C260.293 31.3914 260.239 31.7537 260.133 32.0862C260.033 32.4186 259.884 32.7044 259.684 32.9438C259.485 33.1831 259.239 33.3693 258.946 33.5023C258.66 33.6352 258.331 33.7017 257.959 33.7017C257.66 33.7017 257.394 33.6618 257.161 33.582C256.935 33.5023 256.766 33.4258 256.653 33.3527V35.4269H255.725V28.5559C255.945 28.5027 256.217 28.4462 256.543 28.3863C256.875 28.3199 257.258 28.2866 257.69 28.2866C258.089 28.2866 258.448 28.3498 258.767 28.4761C259.086 28.6024 259.359 28.7819 259.585 29.0146C259.811 29.2473 259.984 29.5332 260.103 29.8723C260.229 30.2047 260.293 30.5803 260.293 30.9991ZM263.512 28.2866C263.592 28.2866 263.682 28.2933 263.782 28.3066C263.888 28.3132 263.991 28.3265 264.091 28.3465C264.191 28.3598 264.28 28.3764 264.36 28.3963C264.447 28.4096 264.51 28.4229 264.55 28.4362L264.39 29.244C264.317 29.2174 264.194 29.1875 264.021 29.1542C263.855 29.1143 263.639 29.0944 263.373 29.0944C263.2 29.0944 263.027 29.1143 262.854 29.1542C262.688 29.1875 262.578 29.2107 262.525 29.224V33.582H261.598V28.6157C261.817 28.5359 262.09 28.4628 262.415 28.3963C262.741 28.3232 263.107 28.2866 263.512 28.2866ZM265.155 30.9991C265.155 30.5404 265.222 30.1415 265.355 29.8024C265.488 29.4567 265.664 29.1709 265.883 28.9448C266.103 28.7188 266.355 28.5492 266.641 28.4362C266.927 28.3232 267.22 28.2667 267.519 28.2667C268.217 28.2667 268.752 28.4861 269.124 28.9249C269.497 29.357 269.683 30.0185 269.683 30.9094C269.683 30.9493 269.683 31.0025 269.683 31.069C269.683 31.1288 269.68 31.1853 269.673 31.2385H266.123C266.163 31.777 266.319 32.1859 266.591 32.4651C266.864 32.7443 267.289 32.884 267.868 32.884C268.194 32.884 268.466 32.8574 268.686 32.8042C268.912 32.7443 269.081 32.6878 269.194 32.6346L269.324 33.4125C269.211 33.4723 269.011 33.5355 268.726 33.602C268.446 33.6685 268.127 33.7017 267.768 33.7017C267.316 33.7017 266.924 33.6352 266.591 33.5023C266.266 33.3626 265.996 33.1732 265.784 32.9338C265.571 32.6945 265.411 32.4119 265.305 32.0862C265.205 31.7537 265.155 31.3914 265.155 30.9991ZM268.716 30.4905C268.722 30.0717 268.616 29.7293 268.396 29.4634C268.184 29.1908 267.888 29.0545 267.509 29.0545C267.296 29.0545 267.107 29.0977 266.94 29.1841C266.781 29.2639 266.645 29.3703 266.532 29.5033C266.419 29.6362 266.329 29.7891 266.262 29.962C266.202 30.1349 266.163 30.311 266.143 30.4905H268.716ZM274.366 29.4933C274.253 29.4002 274.09 29.3105 273.877 29.224C273.665 29.1376 273.432 29.0944 273.179 29.0944C272.913 29.0944 272.684 29.1443 272.491 29.244C272.305 29.3371 272.152 29.47 272.032 29.6429C271.913 29.8091 271.826 30.0085 271.773 30.2412C271.72 30.4739 271.693 30.7232 271.693 30.9892C271.693 31.5942 271.843 32.0629 272.142 32.3953C272.441 32.7211 272.84 32.884 273.339 32.884C273.591 32.884 273.801 32.874 273.967 32.854C274.14 32.8274 274.273 32.8009 274.366 32.7743V29.4933ZM274.366 26.0029L275.293 25.8434V33.4324C275.081 33.4923 274.808 33.5521 274.476 33.6119C274.143 33.6718 273.761 33.7017 273.329 33.7017C272.93 33.7017 272.571 33.6385 272.252 33.5122C271.933 33.3859 271.66 33.2064 271.434 32.9737C271.208 32.741 271.032 32.4585 270.905 32.126C270.786 31.787 270.726 31.408 270.726 30.9892C270.726 30.5903 270.776 30.2246 270.876 29.8922C270.982 29.5598 271.135 29.2739 271.334 29.0346C271.534 28.7952 271.776 28.6091 272.062 28.4761C272.355 28.3431 272.687 28.2766 273.06 28.2766C273.359 28.2766 273.621 28.3165 273.847 28.3963C274.08 28.4761 274.253 28.5526 274.366 28.6257V26.0029ZM277.815 33.582H276.888V28.3963H277.815V33.582ZM277.346 27.4589C277.18 27.4589 277.037 27.4057 276.918 27.2993C276.805 27.1863 276.748 27.0367 276.748 26.8506C276.748 26.6644 276.805 26.5182 276.918 26.4118C277.037 26.2988 277.18 26.2423 277.346 26.2423C277.513 26.2423 277.652 26.2988 277.765 26.4118C277.885 26.5182 277.945 26.6644 277.945 26.8506C277.945 27.0367 277.885 27.1863 277.765 27.2993C277.652 27.4057 277.513 27.4589 277.346 27.4589ZM281.664 33.7017C281.245 33.7017 280.876 33.6352 280.557 33.5023C280.244 33.3693 279.978 33.1831 279.759 32.9438C279.546 32.7044 279.387 32.4219 279.28 32.0961C279.174 31.7637 279.121 31.398 279.121 30.9991C279.121 30.6002 279.177 30.2346 279.29 29.9022C279.41 29.5698 279.576 29.2839 279.789 29.0445C280.002 28.7985 280.261 28.6091 280.567 28.4761C280.879 28.3365 281.225 28.2667 281.604 28.2667C281.837 28.2667 282.069 28.2866 282.302 28.3265C282.535 28.3664 282.757 28.4296 282.97 28.516L282.761 29.3038C282.621 29.2373 282.458 29.1841 282.272 29.1443C282.093 29.1044 281.9 29.0844 281.694 29.0844C281.175 29.0844 280.776 29.2473 280.497 29.5731C280.224 29.8988 280.088 30.3742 280.088 30.9991C280.088 31.2784 280.118 31.5343 280.178 31.767C280.244 31.9997 280.344 32.1992 280.477 32.3654C280.617 32.5316 280.793 32.6612 281.006 32.7543C281.218 32.8407 281.478 32.884 281.783 32.884C282.029 32.884 282.252 32.8607 282.452 32.8141C282.651 32.7676 282.807 32.7177 282.92 32.6646L283.05 33.4424C282.997 33.4757 282.92 33.5089 282.821 33.5421C282.721 33.5687 282.608 33.592 282.482 33.6119C282.355 33.6385 282.219 33.6585 282.073 33.6718C281.933 33.6917 281.797 33.7017 281.664 33.7017ZM284.913 28.3963H286.878V29.1742H284.913V31.5676C284.913 31.8269 284.933 32.0429 284.973 32.2158C285.013 32.382 285.073 32.515 285.153 32.6147C285.232 32.7078 285.332 32.7743 285.452 32.8141C285.571 32.854 285.711 32.874 285.871 32.874C286.15 32.874 286.373 32.8441 286.539 32.7842C286.712 32.7177 286.831 32.6712 286.898 32.6446L287.077 33.4125C286.984 33.459 286.821 33.5155 286.589 33.582C286.356 33.6552 286.09 33.6917 285.791 33.6917C285.438 33.6917 285.146 33.6485 284.913 33.5621C284.687 33.469 284.504 33.3327 284.365 33.1532C284.225 32.9737 284.125 32.7543 284.066 32.495C284.012 32.2291 283.986 31.9233 283.986 31.5776V26.9503L284.913 26.7907V28.3963ZM288.985 33.582H288.058V28.3963H288.985V33.582ZM288.517 27.4589C288.351 27.4589 288.208 27.4057 288.088 27.2993C287.975 27.1863 287.918 27.0367 287.918 26.8506C287.918 26.6644 287.975 26.5182 288.088 26.4118C288.208 26.2988 288.351 26.2423 288.517 26.2423C288.683 26.2423 288.823 26.2988 288.936 26.4118C289.055 26.5182 289.115 26.6644 289.115 26.8506C289.115 27.0367 289.055 27.1863 288.936 27.2993C288.823 27.4057 288.683 27.4589 288.517 27.4589ZM295.158 30.9892C295.158 31.4014 295.098 31.7737 294.978 32.1061C294.859 32.4385 294.689 32.7244 294.47 32.9637C294.257 33.2031 294.001 33.3892 293.702 33.5222C293.403 33.6485 293.077 33.7117 292.724 33.7117C292.372 33.7117 292.046 33.6485 291.747 33.5222C291.448 33.3892 291.189 33.2031 290.969 32.9637C290.757 32.7244 290.59 32.4385 290.471 32.1061C290.351 31.7737 290.291 31.4014 290.291 30.9892C290.291 30.5836 290.351 30.2146 290.471 29.8822C290.59 29.5432 290.757 29.254 290.969 29.0146C291.189 28.7753 291.448 28.5924 291.747 28.4661C292.046 28.3332 292.372 28.2667 292.724 28.2667C293.077 28.2667 293.403 28.3332 293.702 28.4661C294.001 28.5924 294.257 28.7753 294.47 29.0146C294.689 29.254 294.859 29.5432 294.978 29.8822C295.098 30.2146 295.158 30.5836 295.158 30.9892ZM294.19 30.9892C294.19 30.4041 294.057 29.9421 293.792 29.603C293.532 29.2573 293.177 29.0844 292.724 29.0844C292.272 29.0844 291.913 29.2573 291.647 29.603C291.388 29.9421 291.259 30.4041 291.259 30.9892C291.259 31.5742 291.388 32.0396 291.647 32.3853C291.913 32.7244 292.272 32.8939 292.724 32.8939C293.177 32.8939 293.532 32.7244 293.792 32.3853C294.057 32.0396 294.19 31.5742 294.19 30.9892ZM296.463 28.5459C296.675 28.4927 296.958 28.4362 297.31 28.3764C297.663 28.3165 298.068 28.2866 298.527 28.2866C298.939 28.2866 299.282 28.3465 299.554 28.4661C299.827 28.5791 300.043 28.742 300.202 28.9548C300.369 29.1609 300.485 29.4102 300.551 29.7027C300.618 29.9952 300.651 30.3177 300.651 30.6701V33.582H299.724V30.8695C299.724 30.5504 299.7 30.2778 299.654 30.0518C299.614 29.8257 299.544 29.6429 299.444 29.5033C299.345 29.3637 299.212 29.2639 299.045 29.2041C298.879 29.1376 298.673 29.1044 298.427 29.1044C298.327 29.1044 298.224 29.1077 298.118 29.1143C298.012 29.121 297.909 29.131 297.809 29.1443C297.716 29.1509 297.629 29.1609 297.55 29.1742C297.476 29.1875 297.423 29.1974 297.39 29.2041V33.582H296.463V28.5459ZM303.286 33.0435C303.286 33.223 303.226 33.3793 303.106 33.5122C302.987 33.6452 302.824 33.7117 302.618 33.7117C302.412 33.7117 302.249 33.6452 302.129 33.5122C302.01 33.3793 301.95 33.223 301.95 33.0435C301.95 32.864 302.01 32.7078 302.129 32.5748C302.249 32.4418 302.412 32.3754 302.618 32.3754C302.824 32.3754 302.987 32.4418 303.106 32.5748C303.226 32.7078 303.286 32.864 303.286 33.0435ZM303.286 29.0645C303.286 29.244 303.226 29.4002 303.106 29.5332C302.987 29.6662 302.824 29.7326 302.618 29.7326C302.412 29.7326 302.249 29.6662 302.129 29.5332C302.01 29.4002 301.95 29.244 301.95 29.0645C301.95 28.885 302.01 28.7287 302.129 28.5958C302.249 28.4628 302.412 28.3963 302.618 28.3963C302.824 28.3963 302.987 28.4628 303.106 28.5958C303.226 28.7287 303.286 28.885 303.286 29.0645ZM306.552 31.1886C306.679 30.8961 306.852 30.557 307.071 30.1714C307.29 29.7792 307.536 29.3769 307.809 28.9648C308.088 28.5526 308.384 28.147 308.696 27.7481C309.016 27.3492 309.335 26.9902 309.654 26.6711H310.541V31.059H311.359V31.8169H310.541V33.582H309.644V31.8169H306.552V31.1886ZM309.644 27.768C309.444 27.9808 309.242 28.2201 309.036 28.4861C308.836 28.7454 308.64 29.0179 308.447 29.3038C308.254 29.5897 308.072 29.8822 307.899 30.1814C307.732 30.4806 307.583 30.7731 307.45 31.059H309.644V27.768Z" fill="#414652" fill-opacity="0.8"/>
<path d="M218.709 168.703C218.709 171.448 216.484 173.673 213.739 173.673C210.995 173.673 208.77 171.448 208.77 168.703C208.77 165.958 210.995 163.733 213.739 163.733C216.484 163.733 218.709 165.958 218.709 168.703Z" fill="#FF444F"/>
<path d="M276.357 93.164C276.357 95.9087 274.132 98.1337 271.388 98.1337C268.643 98.1337 266.418 95.9087 266.418 93.164C266.418 90.4193 268.643 88.1943 271.388 88.1943C274.132 88.1943 276.357 90.4193 276.357 93.164Z" fill="#53B9FF"/>
<path d="M162.055 98.1338C162.055 100.878 159.83 103.103 157.085 103.103C154.34 103.103 152.115 100.878 152.115 98.1338C152.115 95.3891 154.34 93.1641 157.085 93.1641C159.83 93.1641 162.055 95.3891 162.055 98.1338Z" fill="#53B9FF"/>
<path d="M122.297 146.837C122.297 149.582 120.072 151.807 117.327 151.807C114.582 151.807 112.357 149.582 112.357 146.837C112.357 144.092 114.582 141.867 117.327 141.867C120.072 141.867 122.297 144.092 122.297 146.837Z" fill="#53B9FF"/>
<path d="M58.6845 113.043C58.6845 115.788 56.4595 118.013 53.7148 118.013C50.9701 118.013 48.7451 115.788 48.7451 113.043C48.7451 110.298 50.9701 108.073 53.7148 108.073C56.4595 108.073 58.6845 110.298 58.6845 113.043Z" fill="#53B9FF"/>
<path d="M22.7246 99.8381H20.6174L20.7466 99.2516H25.6468L25.5076 99.8381H23.4005L21.8897 106.14H21.2138L22.7246 99.8381ZM26.091 101.001H26.7371L25.4946 106.14H24.8486L26.091 101.001ZM26.3494 99.5001C26.3494 99.3279 26.3958 99.1986 26.4886 99.1125C26.588 99.0197 26.694 98.9733 26.8066 98.9733C26.9392 98.9733 27.0419 99.0164 27.1148 99.1026C27.1877 99.1821 27.2241 99.2881 27.2241 99.4206C27.2241 99.5796 27.1711 99.7022 27.0651 99.7884C26.959 99.8745 26.853 99.9176 26.747 99.9176C26.6145 99.9176 26.5151 99.8811 26.4488 99.8083C26.3826 99.7287 26.3494 99.626 26.3494 99.5001ZM30.6865 105.891C30.554 105.977 30.3486 106.06 30.0703 106.14C29.7986 106.219 29.4938 106.259 29.1558 106.259C28.5528 106.259 28.0989 106.087 27.7941 105.742C27.4893 105.398 27.3369 104.924 27.3369 104.321C27.3369 103.87 27.4065 103.439 27.5457 103.029C27.6848 102.611 27.8869 102.243 28.152 101.925C28.4236 101.607 28.7549 101.355 29.1459 101.17C29.5368 100.978 29.9808 100.882 30.4778 100.882C30.8223 100.882 31.1636 100.938 31.5015 101.051L31.2332 101.637C31.0808 101.577 30.9284 101.538 30.776 101.518C30.6302 101.491 30.4877 101.478 30.3486 101.478C29.9974 101.478 29.676 101.554 29.3844 101.707C29.0995 101.852 28.8543 102.055 28.6489 102.313C28.4435 102.565 28.2845 102.86 28.1718 103.198C28.0592 103.529 28.0029 103.88 28.0029 104.251C28.0029 104.688 28.1023 105.033 28.301 105.285C28.5065 105.537 28.8311 105.663 29.2751 105.663C29.4143 105.663 29.5534 105.649 29.6926 105.623C29.8383 105.596 29.9709 105.566 30.0901 105.533C30.2094 105.494 30.3154 105.454 30.4082 105.414C30.501 105.374 30.5705 105.338 30.6169 105.305L30.6865 105.891ZM33.5399 98.546L34.2158 98.4267L33.0727 103.178C33.3113 103.019 33.5531 102.84 33.7983 102.641C34.0501 102.436 34.2887 102.233 34.5139 102.035C34.7459 101.829 34.9546 101.637 35.1401 101.458C35.3257 101.273 35.4714 101.12 35.5775 101.001H36.3627C36.2434 101.153 36.0711 101.339 35.8458 101.558C35.6272 101.776 35.3919 101.998 35.1401 102.224C34.895 102.449 34.6498 102.661 34.4046 102.86C34.1661 103.052 33.9673 103.194 33.8083 103.287C34.0335 103.459 34.2522 103.661 34.4643 103.893C34.6829 104.125 34.8817 104.37 35.0606 104.629C35.2395 104.887 35.3986 105.149 35.5377 105.414C35.6835 105.672 35.7961 105.914 35.8756 106.14H35.1799C34.8883 105.517 34.557 104.983 34.1859 104.539C33.8149 104.089 33.4239 103.724 33.0131 103.446L32.3571 106.14H31.711L33.5399 98.546ZM42.609 100.256C42.397 100.468 42.1319 100.66 41.8139 100.832C41.4958 101.004 41.1678 101.143 40.8299 101.249L40.7106 100.673C41.0949 100.534 41.4793 100.355 41.8636 100.136C42.2479 99.9176 42.6289 99.6227 43.0066 99.2516H43.4837L41.8338 106.14H41.1976L42.609 100.256Z" fill="black"/>
<path d="M93.2939 157.487H91.1868L91.316 156.9H96.2161L96.0769 157.487H93.9698L92.459 163.788H91.7831L93.2939 157.487ZM96.6603 158.649H97.3064L96.064 163.788H95.4179L96.6603 158.649ZM96.9188 157.149C96.9188 156.976 96.9652 156.847 97.0579 156.761C97.1573 156.668 97.2633 156.622 97.376 156.622C97.5085 156.622 97.6112 156.665 97.6841 156.751C97.757 156.831 97.7934 156.937 97.7934 157.069C97.7934 157.228 97.7404 157.351 97.6344 157.437C97.5284 157.523 97.4224 157.566 97.3163 157.566C97.1838 157.566 97.0844 157.53 97.0182 157.457C96.9519 157.377 96.9188 157.274 96.9188 157.149ZM101.256 163.54C101.123 163.626 100.918 163.709 100.64 163.788C100.368 163.868 100.063 163.907 99.7252 163.907C99.1222 163.907 98.6683 163.735 98.3635 163.391C98.0587 163.046 97.9063 162.572 97.9063 161.969C97.9063 161.519 97.9758 161.088 98.115 160.677C98.2541 160.26 98.4562 159.892 98.7213 159.574C98.993 159.256 99.3243 159.004 99.7152 158.818C100.106 158.626 100.55 158.53 101.047 158.53C101.392 158.53 101.733 158.586 102.071 158.699L101.803 159.286C101.65 159.226 101.498 159.186 101.345 159.166C101.2 159.14 101.057 159.127 100.918 159.127C100.567 159.127 100.245 159.203 99.9538 159.355C99.6688 159.501 99.4237 159.703 99.2183 159.961C99.0128 160.213 98.8538 160.508 98.7412 160.846C98.6285 161.177 98.5722 161.529 98.5722 161.9C98.5722 162.337 98.6716 162.682 98.8704 162.933C99.0758 163.185 99.4005 163.311 99.8444 163.311C99.9836 163.311 100.123 163.298 100.262 163.271C100.408 163.245 100.54 163.215 100.659 163.182C100.779 163.142 100.885 163.102 100.978 163.063C101.07 163.023 101.14 162.986 101.186 162.953L101.256 163.54ZM104.109 156.194L104.785 156.075L103.642 160.826C103.881 160.667 104.122 160.488 104.368 160.289C104.619 160.084 104.858 159.882 105.083 159.683C105.315 159.478 105.524 159.286 105.709 159.107C105.895 158.921 106.041 158.769 106.147 158.649H106.932C106.813 158.802 106.64 158.987 106.415 159.206C106.196 159.425 105.961 159.647 105.709 159.872C105.464 160.097 105.219 160.309 104.974 160.508C104.735 160.7 104.537 160.843 104.378 160.935C104.603 161.108 104.822 161.31 105.034 161.542C105.252 161.774 105.451 162.019 105.63 162.277C105.809 162.536 105.968 162.797 106.107 163.063C106.253 163.321 106.365 163.563 106.445 163.788H105.749C105.458 163.165 105.126 162.632 104.755 162.188C104.384 161.737 103.993 161.373 103.582 161.095L102.926 163.788H102.28L104.109 156.194ZM113.705 163.222L113.576 163.788H109.729C109.809 163.291 109.965 162.86 110.197 162.496C110.435 162.132 110.707 161.81 111.012 161.532C111.316 161.254 111.634 160.998 111.966 160.767C112.304 160.535 112.612 160.303 112.89 160.071C113.168 159.839 113.397 159.59 113.576 159.325C113.761 159.06 113.854 158.749 113.854 158.391C113.854 158.02 113.752 157.752 113.546 157.586C113.347 157.42 113.105 157.337 112.821 157.337C112.542 157.337 112.257 157.397 111.966 157.516C111.674 157.629 111.422 157.775 111.21 157.954L110.992 157.417C111.244 157.212 111.542 157.049 111.886 156.93C112.237 156.811 112.582 156.751 112.92 156.751C113.139 156.751 113.344 156.781 113.536 156.84C113.735 156.9 113.907 156.993 114.053 157.119C114.205 157.245 114.325 157.407 114.411 157.606C114.504 157.805 114.55 158.04 114.55 158.311C114.55 158.623 114.49 158.908 114.371 159.166C114.258 159.418 114.109 159.653 113.924 159.872C113.745 160.091 113.54 160.296 113.308 160.488C113.076 160.674 112.84 160.853 112.602 161.025C112.31 161.244 112.045 161.446 111.807 161.631C111.568 161.81 111.359 161.986 111.181 162.158C111.008 162.33 110.866 162.503 110.753 162.675C110.641 162.847 110.561 163.029 110.515 163.222H113.705Z" fill="black"/>
<path d="M143.984 79.9592H141.877L142.006 79.3727H146.907L146.767 79.9592H144.66L143.149 86.2607H142.474L143.984 79.9592ZM147.351 81.1221H147.997L146.754 86.2607H146.108L147.351 81.1221ZM147.609 79.6212C147.609 79.4489 147.656 79.3197 147.748 79.2336C147.848 79.1408 147.954 79.0944 148.066 79.0944C148.199 79.0944 148.302 79.1375 148.375 79.2237C148.447 79.3032 148.484 79.4092 148.484 79.5417C148.484 79.7007 148.431 79.8233 148.325 79.9095C148.219 79.9956 148.113 80.0387 148.007 80.0387C147.874 80.0387 147.775 80.0022 147.709 79.9293C147.642 79.8498 147.609 79.7471 147.609 79.6212ZM151.946 86.0123C151.814 86.0984 151.608 86.1812 151.33 86.2607C151.058 86.3403 150.754 86.38 150.416 86.38C149.813 86.38 149.359 86.2077 149.054 85.8632C148.749 85.5186 148.597 85.0448 148.597 84.4418C148.597 83.9912 148.666 83.5605 148.805 83.1497C148.945 82.7323 149.147 82.3645 149.412 82.0464C149.683 81.7284 150.015 81.4766 150.406 81.291C150.797 81.0989 151.241 81.0028 151.738 81.0028C152.082 81.0028 152.423 81.0591 152.761 81.1718L152.493 81.7582C152.341 81.6986 152.188 81.6588 152.036 81.6389C151.89 81.6124 151.747 81.5992 151.608 81.5992C151.257 81.5992 150.936 81.6754 150.644 81.8278C150.359 81.9736 150.114 82.1757 149.909 82.4341C149.703 82.6859 149.544 82.9807 149.432 83.3187C149.319 83.65 149.263 84.0012 149.263 84.3723C149.263 84.8096 149.362 85.1542 149.561 85.406C149.766 85.6578 150.091 85.7837 150.535 85.7837C150.674 85.7837 150.813 85.7704 150.952 85.7439C151.098 85.7174 151.231 85.6876 151.35 85.6544C151.469 85.6147 151.575 85.5749 151.668 85.5352C151.761 85.4954 151.83 85.459 151.877 85.4258L151.946 86.0123ZM154.8 78.667L155.476 78.5478L154.333 83.2988C154.571 83.1398 154.813 82.9609 155.058 82.7621C155.31 82.5567 155.548 82.3546 155.774 82.1558C156.006 81.9504 156.214 81.7582 156.4 81.5793C156.585 81.3938 156.731 81.2413 156.837 81.1221H157.622C157.503 81.2745 157.331 81.46 157.106 81.6787C156.887 81.8973 156.652 82.1193 156.4 82.3446C156.155 82.5699 155.91 82.782 155.664 82.9807C155.426 83.1729 155.227 83.3154 155.068 83.4081C155.293 83.5804 155.512 83.7825 155.724 84.0144C155.943 84.2464 156.141 84.4915 156.32 84.75C156.499 85.0084 156.658 85.2701 156.797 85.5352C156.943 85.7936 157.056 86.0354 157.135 86.2607H156.44C156.148 85.6379 155.817 85.1045 155.446 84.6605C155.075 84.2099 154.684 83.8455 154.273 83.5672L153.617 86.2607H152.971L154.8 78.667ZM160.45 85.4855C160.635 85.5981 160.847 85.6809 161.086 85.734C161.331 85.787 161.583 85.8135 161.841 85.8135C162.126 85.8135 162.391 85.7803 162.636 85.7141C162.881 85.6412 163.094 85.5352 163.272 85.396C163.458 85.2569 163.604 85.0813 163.71 84.8692C163.816 84.6506 163.869 84.3954 163.869 84.1039C163.869 83.6599 163.71 83.3419 163.392 83.1497C163.08 82.9509 162.66 82.8515 162.129 82.8515L162.269 82.3148H162.517C162.835 82.3148 163.11 82.2651 163.342 82.1657C163.574 82.0663 163.763 81.9404 163.909 81.788C164.061 81.6356 164.17 81.4666 164.237 81.2811C164.309 81.0956 164.346 80.9133 164.346 80.7344C164.346 80.5688 164.319 80.4263 164.266 80.307C164.213 80.1878 164.14 80.095 164.048 80.0287C163.955 79.9559 163.846 79.9028 163.72 79.8697C163.6 79.8366 163.471 79.82 163.332 79.82C163.1 79.82 162.865 79.8565 162.626 79.9293C162.394 80.0022 162.192 80.095 162.02 80.2077L161.881 79.6908C162.113 79.545 162.361 79.4324 162.626 79.3529C162.891 79.2667 163.166 79.2237 163.451 79.2237C163.657 79.2237 163.856 79.2502 164.048 79.3032C164.24 79.3562 164.409 79.4423 164.555 79.5616C164.7 79.6742 164.816 79.8233 164.903 80.0089C164.995 80.1878 165.042 80.4098 165.042 80.6748C165.042 80.8736 165.012 81.0691 164.952 81.2612C164.893 81.4534 164.8 81.6356 164.674 81.8079C164.555 81.9736 164.402 82.126 164.217 82.2651C164.031 82.3976 163.816 82.507 163.571 82.5931C163.69 82.6395 163.806 82.7024 163.919 82.782C164.038 82.8615 164.144 82.9609 164.237 83.0801C164.336 83.1994 164.415 83.3419 164.475 83.5075C164.535 83.6732 164.565 83.8653 164.565 84.084C164.565 84.475 164.485 84.8162 164.326 85.1078C164.174 85.3993 163.972 85.6412 163.72 85.8333C163.468 86.0255 163.176 86.168 162.845 86.2607C162.52 86.3601 162.186 86.4098 161.841 86.4098C161.55 86.4098 161.261 86.38 160.976 86.3204C160.698 86.2607 160.436 86.168 160.191 86.0421L160.45 85.4855Z" fill="black"/>
<path d="M270.215 74.9894H268.108L268.237 74.403H273.137L272.998 74.9894H270.891L269.38 81.291H268.704L270.215 74.9894ZM273.581 76.1523H274.227L272.985 81.291H272.339L273.581 76.1523ZM273.84 74.6515C273.84 74.4792 273.886 74.35 273.979 74.2639C274.078 74.1711 274.184 74.1247 274.297 74.1247C274.429 74.1247 274.532 74.1678 274.605 74.2539C274.678 74.3334 274.714 74.4395 274.714 74.572C274.714 74.731 274.661 74.8536 274.555 74.9397C274.449 75.0259 274.343 75.069 274.237 75.069C274.105 75.069 274.005 75.0325 273.939 74.9596C273.873 74.8801 273.84 74.7774 273.84 74.6515ZM278.177 81.0425C278.044 81.1287 277.839 81.2115 277.56 81.291C277.289 81.3705 276.984 81.4103 276.646 81.4103C276.043 81.4103 275.589 81.238 275.284 80.8934C274.98 80.5489 274.827 80.0751 274.827 79.4721C274.827 79.0215 274.897 78.5908 275.036 78.18C275.175 77.7625 275.377 77.3948 275.642 77.0767C275.914 76.7587 276.245 76.5069 276.636 76.3213C277.027 76.1292 277.471 76.0331 277.968 76.0331C278.313 76.0331 278.654 76.0894 278.992 76.202L278.723 76.7885C278.571 76.7288 278.419 76.6891 278.266 76.6692C278.12 76.6427 277.978 76.6294 277.839 76.6294C277.488 76.6294 277.166 76.7056 276.875 76.858C276.59 77.0038 276.345 77.2059 276.139 77.4643C275.934 77.7161 275.775 78.011 275.662 78.349C275.549 78.6803 275.493 79.0315 275.493 79.4025C275.493 79.8399 275.592 80.1844 275.791 80.4362C275.997 80.688 276.321 80.8139 276.765 80.8139C276.904 80.8139 277.044 80.8007 277.183 80.7742C277.329 80.7477 277.461 80.7178 277.58 80.6847C277.7 80.645 277.806 80.6052 277.898 80.5654C277.991 80.5257 278.061 80.4892 278.107 80.4561L278.177 81.0425ZM281.03 73.6973L281.706 73.578L280.563 78.3291C280.802 78.17 281.043 77.9911 281.289 77.7923C281.54 77.5869 281.779 77.3848 282.004 77.186C282.236 76.9806 282.445 76.7885 282.63 76.6096C282.816 76.424 282.962 76.2716 283.068 76.1523H283.853C283.734 76.3048 283.561 76.4903 283.336 76.709C283.117 76.9276 282.882 77.1496 282.63 77.3749C282.385 77.6002 282.14 77.8122 281.895 78.011C281.656 78.2032 281.458 78.3456 281.298 78.4384C281.524 78.6107 281.742 78.8128 281.954 79.0447C282.173 79.2766 282.372 79.5218 282.551 79.7802C282.73 80.0387 282.889 80.3004 283.028 80.5654C283.174 80.8239 283.286 81.0657 283.366 81.291H282.67C282.379 80.6681 282.047 80.1347 281.676 79.6908C281.305 79.2402 280.914 78.8757 280.503 78.5974L279.847 81.291H279.201L281.03 73.6973ZM286.71 80.4959C286.902 80.6085 287.111 80.6947 287.336 80.7543C287.568 80.8139 287.8 80.8437 288.032 80.8437C288.297 80.8437 288.555 80.8073 288.807 80.7344C289.059 80.6615 289.281 80.5555 289.473 80.4163C289.672 80.2706 289.831 80.0883 289.95 79.8697C290.069 79.651 290.129 79.3959 290.129 79.1043C290.129 78.8592 290.083 78.6538 289.99 78.4881C289.904 78.3224 289.791 78.1833 289.652 78.0707C289.513 77.958 289.354 77.8719 289.175 77.8122C288.996 77.7526 288.82 77.7062 288.648 77.6731C288.476 77.6399 288.31 77.6201 288.151 77.6134C287.999 77.6068 287.873 77.6002 287.773 77.5936C287.879 77.2954 287.976 77.0171 288.062 76.7587C288.148 76.5002 288.231 76.2484 288.31 76.0033C288.39 75.7515 288.466 75.4963 288.539 75.2379C288.618 74.9795 288.695 74.7012 288.767 74.403H291.769L291.64 74.9696H289.215C289.168 75.122 289.115 75.2909 289.056 75.4765C289.003 75.662 288.946 75.8509 288.887 76.043C288.827 76.2352 288.764 76.424 288.698 76.6096C288.638 76.7885 288.585 76.9475 288.539 77.0867C288.877 77.1198 289.185 77.1827 289.463 77.2755C289.748 77.3616 289.99 77.4842 290.189 77.6433C290.394 77.8023 290.55 77.9978 290.656 78.2297C290.769 78.455 290.825 78.72 290.825 79.0248C290.825 79.429 290.749 79.7835 290.596 80.0883C290.444 80.3865 290.242 80.6383 289.99 80.8437C289.738 81.0425 289.443 81.1916 289.105 81.291C288.774 81.3904 288.429 81.4401 288.072 81.4401C287.793 81.4401 287.515 81.4103 287.237 81.3507C286.965 81.2976 286.7 81.2082 286.442 81.0823L286.71 80.4959Z" fill="black"/>
<path d="M164.43 184.73L164.112 186.032H162.094L160.753 191.618H159.202L160.544 186.032H158.526L158.844 184.73H164.43ZM165.153 191.618H163.682L164.925 186.39H166.406L165.153 191.618ZM165.869 185.754C165.663 185.754 165.478 185.694 165.312 185.575C165.147 185.449 165.064 185.26 165.064 185.008C165.064 184.869 165.09 184.74 165.143 184.621C165.203 184.495 165.279 184.389 165.372 184.303C165.465 184.21 165.571 184.137 165.69 184.084C165.816 184.031 165.948 184.005 166.088 184.005C166.293 184.005 166.479 184.068 166.644 184.193C166.81 184.313 166.893 184.498 166.893 184.75C166.893 184.889 166.863 185.022 166.803 185.148C166.75 185.267 166.677 185.373 166.585 185.466C166.492 185.552 166.382 185.621 166.257 185.674C166.137 185.727 166.008 185.754 165.869 185.754ZM166.795 189.531C166.795 189.08 166.868 188.656 167.014 188.259C167.16 187.861 167.368 187.513 167.64 187.215C167.912 186.917 168.24 186.682 168.624 186.509C169.015 186.337 169.449 186.251 169.926 186.251C170.224 186.251 170.489 186.281 170.721 186.34C170.96 186.393 171.175 186.466 171.367 186.559L170.86 187.712C170.728 187.659 170.589 187.613 170.443 187.573C170.304 187.526 170.132 187.503 169.926 187.503C169.429 187.503 169.038 187.672 168.753 188.01C168.468 188.341 168.326 188.795 168.326 189.372C168.326 189.71 168.399 189.985 168.545 190.197C168.69 190.402 168.959 190.505 169.35 190.505C169.542 190.505 169.727 190.485 169.906 190.445C170.085 190.406 170.244 190.356 170.383 190.296L170.493 191.479C170.307 191.552 170.102 191.615 169.876 191.668C169.658 191.727 169.389 191.757 169.071 191.757C168.661 191.757 168.313 191.698 168.028 191.578C167.743 191.459 167.508 191.3 167.322 191.101C167.137 190.896 167.001 190.657 166.915 190.386C166.835 190.114 166.795 189.829 166.795 189.531ZM173.549 188.279C173.946 187.96 174.321 187.636 174.672 187.304C175.023 186.973 175.325 186.668 175.576 186.39H177.246C176.875 186.801 176.488 187.205 176.083 187.603C175.686 187.994 175.229 188.411 174.712 188.855C174.851 189.027 174.99 189.226 175.129 189.451C175.275 189.677 175.411 189.912 175.537 190.157C175.669 190.402 175.788 190.651 175.894 190.903C176.007 191.154 176.1 191.393 176.173 191.618H174.523C174.463 191.446 174.387 191.257 174.294 191.052C174.208 190.846 174.109 190.644 173.996 190.445C173.89 190.24 173.777 190.041 173.658 189.849C173.539 189.657 173.42 189.485 173.3 189.332L172.744 191.618H171.273L173.062 184.144L174.602 183.905L173.549 188.279ZM183.059 186.479C182.886 186.645 182.704 186.824 182.512 187.016C182.326 187.208 182.138 187.41 181.945 187.623C181.753 187.828 181.564 188.04 181.379 188.259C181.2 188.471 181.031 188.679 180.872 188.885H182.482L183.059 186.479ZM184.878 184.73L183.874 188.885H184.599L184.311 190.078H183.575L183.198 191.618H181.786L182.154 190.078H179.202L179.451 188.984C179.663 188.693 179.921 188.365 180.226 188C180.531 187.629 180.862 187.251 181.22 186.867C181.578 186.483 181.949 186.105 182.333 185.734C182.717 185.363 183.095 185.028 183.466 184.73H184.878ZM191.553 184.502C191.175 184.912 190.83 185.346 190.519 185.804C190.208 186.254 189.939 186.725 189.714 187.215C189.489 187.705 189.313 188.212 189.187 188.736C189.061 189.253 188.998 189.779 188.998 190.316C188.998 190.734 189.038 191.148 189.118 191.559C189.197 191.963 189.323 192.374 189.495 192.791L188.402 193.457C188.104 192.96 187.885 192.446 187.746 191.916C187.613 191.386 187.547 190.84 187.547 190.276C187.547 189.68 187.62 189.087 187.766 188.497C187.918 187.907 188.127 187.338 188.392 186.788C188.664 186.231 188.985 185.704 189.356 185.207C189.734 184.704 190.148 184.246 190.599 183.836L191.553 184.502ZM195.674 190.306L195.356 191.618H190.764L192.414 184.73H193.965L192.623 190.306H195.674ZM198.496 191.757C198.145 191.757 197.84 191.704 197.582 191.598C197.324 191.492 197.108 191.343 196.936 191.151C196.77 190.959 196.644 190.734 196.558 190.475C196.472 190.21 196.429 189.919 196.429 189.6C196.429 189.203 196.492 188.805 196.618 188.408C196.75 188.01 196.943 187.652 197.194 187.334C197.446 187.016 197.754 186.758 198.119 186.559C198.483 186.354 198.901 186.251 199.371 186.251C199.716 186.251 200.017 186.304 200.276 186.41C200.541 186.516 200.756 186.665 200.922 186.857C201.094 187.049 201.223 187.278 201.309 187.543C201.395 187.801 201.438 188.09 201.438 188.408C201.438 188.805 201.376 189.203 201.25 189.6C201.124 189.998 200.938 190.356 200.693 190.674C200.448 190.992 200.14 191.254 199.769 191.459C199.404 191.658 198.98 191.757 198.496 191.757ZM199.232 187.503C199.013 187.503 198.821 187.566 198.655 187.692C198.49 187.818 198.351 187.977 198.238 188.169C198.125 188.361 198.039 188.573 197.98 188.805C197.927 189.031 197.9 189.246 197.9 189.451C197.9 189.789 197.953 190.051 198.059 190.237C198.165 190.415 198.357 190.505 198.636 190.505C198.854 190.505 199.046 190.442 199.212 190.316C199.378 190.19 199.517 190.031 199.63 189.839C199.742 189.647 199.825 189.438 199.878 189.213C199.938 188.981 199.967 188.762 199.967 188.557C199.967 188.219 199.914 187.96 199.808 187.782C199.702 187.596 199.51 187.503 199.232 187.503ZM205.836 188.557C205.71 188.829 205.568 189.107 205.409 189.392C205.256 189.67 205.097 189.945 204.932 190.217C204.773 190.482 204.617 190.737 204.465 190.982C204.312 191.221 204.176 191.433 204.057 191.618H202.904C202.851 191.34 202.795 191.009 202.735 190.624C202.682 190.24 202.629 189.822 202.576 189.372C202.523 188.915 202.473 188.434 202.427 187.931C202.387 187.42 202.357 186.907 202.338 186.39H203.789C203.789 186.629 203.789 186.887 203.789 187.165C203.795 187.444 203.802 187.732 203.809 188.03C203.822 188.328 203.838 188.633 203.858 188.944C203.878 189.256 203.905 189.564 203.938 189.869C204.103 189.591 204.266 189.302 204.425 189.004C204.59 188.699 204.746 188.398 204.892 188.1C205.044 187.795 205.184 187.497 205.309 187.205C205.442 186.914 205.558 186.642 205.657 186.39H206.89C206.89 186.867 206.896 187.401 206.91 187.99C206.93 188.58 206.973 189.206 207.039 189.869C207.218 189.571 207.383 189.266 207.536 188.954C207.688 188.636 207.827 188.325 207.953 188.02C208.086 187.715 208.202 187.424 208.301 187.145C208.407 186.867 208.5 186.615 208.579 186.39H210.15C210.017 186.721 209.858 187.096 209.673 187.513C209.494 187.924 209.285 188.358 209.047 188.815C208.808 189.272 208.54 189.74 208.242 190.217C207.943 190.694 207.612 191.161 207.248 191.618H206.095C206.015 191.075 205.955 190.555 205.916 190.058C205.876 189.561 205.849 189.06 205.836 188.557ZM210.251 189.571C210.251 189.147 210.324 188.736 210.47 188.338C210.622 187.941 210.834 187.589 211.106 187.285C211.377 186.973 211.705 186.725 212.09 186.539C212.481 186.347 212.911 186.251 213.382 186.251C213.614 186.251 213.829 186.284 214.028 186.35C214.227 186.417 214.399 186.513 214.545 186.639C214.697 186.764 214.813 186.92 214.893 187.106C214.979 187.285 215.022 187.49 215.022 187.722C215.022 188.093 214.939 188.408 214.773 188.666C214.608 188.925 214.376 189.137 214.078 189.302C213.786 189.461 213.438 189.577 213.034 189.65C212.63 189.723 212.189 189.759 211.712 189.759C211.758 190.038 211.858 190.237 212.01 190.356C212.169 190.469 212.418 190.525 212.756 190.525C212.968 190.525 213.183 190.508 213.402 190.475C213.62 190.435 213.826 190.379 214.018 190.306L214.127 191.469C213.942 191.542 213.703 191.608 213.412 191.668C213.127 191.727 212.815 191.757 212.477 191.757C212.067 191.757 211.719 191.701 211.434 191.588C211.155 191.469 210.927 191.31 210.748 191.111C210.576 190.912 210.45 190.681 210.37 190.415C210.291 190.15 210.251 189.869 210.251 189.571ZM213.143 187.424C212.805 187.424 212.507 187.546 212.249 187.791C211.997 188.03 211.831 188.348 211.752 188.746C212.163 188.732 212.494 188.699 212.746 188.646C212.998 188.587 213.193 188.517 213.332 188.438C213.471 188.358 213.564 188.272 213.611 188.179C213.657 188.086 213.68 187.994 213.68 187.901C213.68 187.583 213.501 187.424 213.143 187.424ZM216.923 190.565C217.261 190.565 217.493 190.518 217.619 190.425C217.745 190.326 217.808 190.22 217.808 190.107C217.808 190.034 217.794 189.972 217.768 189.919C217.748 189.866 217.712 189.816 217.659 189.769C217.606 189.723 217.533 189.677 217.44 189.63C217.347 189.577 217.228 189.518 217.082 189.451C216.916 189.378 216.761 189.302 216.615 189.223C216.469 189.137 216.34 189.037 216.227 188.925C216.121 188.805 216.035 188.673 215.969 188.527C215.909 188.375 215.879 188.196 215.879 187.99C215.879 187.454 216.075 187.029 216.466 186.718C216.863 186.407 217.44 186.251 218.195 186.251C218.553 186.251 218.871 186.291 219.149 186.37C219.428 186.45 219.653 186.536 219.825 186.629L219.318 187.732C219.179 187.659 219 187.589 218.782 187.523C218.563 187.457 218.348 187.424 218.136 187.424C218.043 187.424 217.95 187.43 217.857 187.444C217.771 187.45 217.688 187.47 217.609 187.503C217.536 187.536 217.476 187.583 217.43 187.642C217.384 187.702 217.36 187.782 217.36 187.881C217.36 188.013 217.41 188.113 217.509 188.179C217.616 188.245 217.761 188.325 217.947 188.418C218.205 188.544 218.421 188.66 218.593 188.766C218.765 188.872 218.901 188.984 219 189.103C219.106 189.223 219.183 189.359 219.229 189.511C219.275 189.663 219.299 189.842 219.299 190.048C219.299 190.26 219.252 190.469 219.159 190.674C219.073 190.879 218.934 191.062 218.742 191.221C218.55 191.38 218.305 191.509 218.006 191.608C217.708 191.708 217.35 191.757 216.933 191.757C216.675 191.757 216.439 191.741 216.227 191.708C216.022 191.674 215.84 191.635 215.681 191.588C215.522 191.535 215.386 191.482 215.273 191.429C215.167 191.376 215.084 191.333 215.025 191.3L215.532 190.167C215.644 190.233 215.82 190.316 216.058 190.415C216.297 190.515 216.585 190.565 216.923 190.565ZM221.449 185.088L222.99 184.849L222.612 186.39H224.262L223.964 187.603H222.324L221.887 189.431C221.847 189.584 221.821 189.726 221.807 189.859C221.801 189.991 221.817 190.107 221.857 190.207C221.903 190.3 221.98 190.372 222.086 190.425C222.192 190.478 222.337 190.505 222.523 190.505C222.682 190.505 222.834 190.492 222.98 190.465C223.133 190.432 223.285 190.389 223.437 190.336L223.547 191.469C223.348 191.542 223.133 191.605 222.901 191.658C222.669 191.711 222.394 191.737 222.076 191.737C221.618 191.737 221.264 191.671 221.012 191.539C220.76 191.399 220.581 191.214 220.475 190.982C220.369 190.743 220.323 190.472 220.336 190.167C220.349 189.862 220.396 189.541 220.475 189.203L221.449 185.088ZM227.972 185.088L229.513 184.849L229.135 186.39H230.785L230.487 187.603H228.847L228.41 189.431C228.37 189.584 228.343 189.726 228.33 189.859C228.323 189.991 228.34 190.107 228.38 190.207C228.426 190.3 228.502 190.372 228.608 190.425C228.714 190.478 228.86 190.505 229.046 190.505C229.205 190.505 229.357 190.492 229.503 190.465C229.655 190.432 229.808 190.389 229.96 190.336L230.069 191.469C229.871 191.542 229.655 191.605 229.423 191.658C229.191 191.711 228.916 191.737 228.598 191.737C228.141 191.737 227.787 191.671 227.535 191.539C227.283 191.399 227.104 191.214 226.998 190.982C226.892 190.743 226.846 190.472 226.859 190.167C226.872 189.862 226.919 189.541 226.998 189.203L227.972 185.088ZM232.157 191.618H230.686L231.928 186.39H233.409L232.157 191.618ZM232.872 185.754C232.667 185.754 232.482 185.694 232.316 185.575C232.15 185.449 232.067 185.26 232.067 185.008C232.067 184.869 232.094 184.74 232.147 184.621C232.207 184.495 232.283 184.389 232.375 184.303C232.468 184.21 232.574 184.137 232.694 184.084C232.819 184.031 232.952 184.005 233.091 184.005C233.297 184.005 233.482 184.068 233.648 184.193C233.813 184.313 233.896 184.498 233.896 184.75C233.896 184.889 233.866 185.022 233.807 185.148C233.754 185.267 233.681 185.373 233.588 185.466C233.495 185.552 233.386 185.621 233.26 185.674C233.141 185.727 233.012 185.754 232.872 185.754ZM233.799 189.531C233.799 189.08 233.872 188.656 234.017 188.259C234.163 187.861 234.372 187.513 234.644 187.215C234.915 186.917 235.243 186.682 235.628 186.509C236.019 186.337 236.453 186.251 236.93 186.251C237.228 186.251 237.493 186.281 237.725 186.34C237.963 186.393 238.179 186.466 238.371 186.559L237.864 187.712C237.732 187.659 237.592 187.613 237.447 187.573C237.307 187.526 237.135 187.503 236.93 187.503C236.433 187.503 236.042 187.672 235.757 188.01C235.472 188.341 235.329 188.795 235.329 189.372C235.329 189.71 235.402 189.985 235.548 190.197C235.694 190.402 235.962 190.505 236.353 190.505C236.545 190.505 236.731 190.485 236.91 190.445C237.089 190.406 237.248 190.356 237.387 190.296L237.496 191.479C237.311 191.552 237.105 191.615 236.88 191.668C236.661 191.727 236.393 191.757 236.075 191.757C235.664 191.757 235.316 191.698 235.031 191.578C234.746 191.459 234.511 191.3 234.326 191.101C234.14 190.896 234.004 190.657 233.918 190.386C233.839 190.114 233.799 189.829 233.799 189.531ZM240.552 188.279C240.95 187.96 241.324 187.636 241.675 187.304C242.027 186.973 242.328 186.668 242.58 186.39H244.25C243.879 186.801 243.491 187.205 243.087 187.603C242.689 187.994 242.232 188.411 241.715 188.855C241.854 189.027 241.994 189.226 242.133 189.451C242.278 189.677 242.414 189.912 242.54 190.157C242.673 190.402 242.792 190.651 242.898 190.903C243.011 191.154 243.103 191.393 243.176 191.618H241.526C241.467 191.446 241.391 191.257 241.298 191.052C241.212 190.846 241.112 190.644 241 190.445C240.894 190.24 240.781 190.041 240.662 189.849C240.542 189.657 240.423 189.485 240.304 189.332L239.747 191.618H238.276L240.065 184.144L241.606 183.905L240.552 188.279ZM242.913 192.781C243.291 192.377 243.636 191.949 243.947 191.499C244.265 191.042 244.534 190.568 244.752 190.078C244.977 189.581 245.153 189.074 245.279 188.557C245.405 188.033 245.468 187.503 245.468 186.967C245.468 186.549 245.428 186.138 245.349 185.734C245.269 185.323 245.143 184.909 244.971 184.492L246.064 183.826C246.362 184.323 246.578 184.836 246.71 185.366C246.849 185.896 246.919 186.443 246.919 187.006C246.919 187.603 246.843 188.196 246.69 188.785C246.545 189.375 246.336 189.948 246.064 190.505C245.799 191.055 245.478 191.578 245.1 192.075C244.729 192.579 244.318 193.036 243.868 193.447L242.913 192.781Z" fill="#FF444F"/>
<defs>
<filter id="filter0_d_2591_30065" x="0.0977015" y="0.175427" width="341.805" height="227.502" filterUnits="userSpaceOnUse" color-interpolation-filters="sRGB">
<feFlood flood-opacity="0" result="BackgroundImageFix"/>
<feColorMatrix in="SourceAlpha" type="matrix" values="0 0 0 0 0 0 0 0 0 0 0 0 0 0 0 0 0 0 127 0" result="hardAlpha"/>
<feOffset dy="1.38046"/>
<feGaussianBlur stdDeviation="3.45115"/>
<feComposite in2="hardAlpha" operator="out"/>
<feColorMatrix type="matrix" values="0 0 0 0 0 0 0 0 0 0 0 0 0 0 0 0 0 0 0.1 0"/>
<feBlend mode="normal" in2="BackgroundImageFix" result="effect1_dropShadow_2591_30065"/>
<feBlend mode="normal" in="SourceGraphic" in2="effect1_dropShadow_2591_30065" result="shape"/>
</filter>
</defs>
</svg>
