<svg width="342" height="228" viewBox="0 0 342 228" fill="none" xmlns="http://www.w3.org/2000/svg">
<g filter="url(#filter0_d_2591_34267)">
<rect x="7" y="6" width="328" height="213.697" rx="4.14138" fill="white"/>
</g>
<path d="M36.6334 31.7252C36.6334 32.1983 36.689 32.625 36.8003 33.0053C36.9209 33.3857 37.0879 33.715 37.3013 33.9933C37.5239 34.2623 37.793 34.4711 38.1084 34.6195C38.4238 34.7679 38.7856 34.8421 39.1938 34.8421C39.5927 34.8421 39.9498 34.7679 40.2652 34.6195C40.5899 34.4711 40.8589 34.2623 41.0723 33.9933C41.2949 33.715 41.4619 33.3857 41.5732 33.0053C41.6938 32.625 41.7541 32.1983 41.7541 31.7252C41.7541 31.252 41.6938 30.8253 41.5732 30.445C41.4619 30.0553 41.2949 29.726 41.0723 29.457C40.8589 29.1787 40.5899 28.9653 40.2652 28.8169C39.9498 28.6685 39.5927 28.5942 39.1938 28.5942C38.7856 28.5942 38.4238 28.6731 38.1084 28.8308C37.793 28.9792 37.5239 29.1926 37.3013 29.4709C37.0879 29.7399 36.9209 30.0693 36.8003 30.4589C36.689 30.8392 36.6334 31.2613 36.6334 31.7252ZM43.9945 31.7252C43.9945 32.5508 43.8692 33.279 43.6188 33.9098C43.3776 34.5314 43.0436 35.0555 42.6169 35.4822C42.1901 35.8997 41.6799 36.2151 41.0862 36.4285C40.5018 36.6418 39.871 36.7485 39.1938 36.7485C38.5351 36.7485 37.9136 36.6418 37.3291 36.4285C36.7447 36.2151 36.2345 35.8997 35.7985 35.4822C35.3624 35.0555 35.0192 34.5314 34.7687 33.9098C34.5183 33.279 34.393 32.5508 34.393 31.7252C34.393 30.8995 34.5229 30.1759 34.7826 29.5544C35.0424 28.9236 35.3903 28.3948 35.8263 27.9681C36.2716 27.5413 36.7818 27.2213 37.357 27.0079C37.9414 26.7946 38.5537 26.6879 39.1938 26.6879C39.8524 26.6879 40.4739 26.7946 41.0584 27.0079C41.6428 27.2213 42.153 27.5413 42.589 27.9681C43.0251 28.3948 43.3683 28.9236 43.6188 29.5544C43.8692 30.1759 43.9945 30.8995 43.9945 31.7252ZM45.6648 29.4848C46.0174 29.3828 46.4719 29.29 47.0285 29.2065C47.5851 29.1137 48.1696 29.0674 48.7818 29.0674C49.4034 29.0674 49.9182 29.1508 50.3264 29.3178C50.7439 29.4755 51.0732 29.7028 51.3144 29.9997C51.5556 30.2965 51.7272 30.649 51.8293 31.0572C51.9313 31.4654 51.9823 31.92 51.9823 32.4209V36.5537H49.909V32.6714C49.909 32.0035 49.8208 31.5303 49.6446 31.252C49.4683 30.9737 49.139 30.8346 48.6566 30.8346C48.5082 30.8346 48.3505 30.8439 48.1835 30.8624C48.0165 30.8717 47.8681 30.8856 47.7382 30.9042V36.5537H45.6648V29.4848ZM56.7812 36.6929C56.1782 36.6836 55.6865 36.6186 55.3062 36.4981C54.9351 36.3775 54.6383 36.2105 54.4156 35.9971C54.2023 35.7745 54.0538 35.5101 53.9703 35.2039C53.8961 34.8885 53.859 34.536 53.859 34.1464V26.0895L55.9324 25.7556V33.7289C55.9324 33.9145 55.9463 34.0815 55.9741 34.2299C56.0019 34.3783 56.053 34.5035 56.1272 34.6056C56.2107 34.7076 56.3266 34.7911 56.4751 34.8561C56.6235 34.921 56.8229 34.9627 57.0734 34.9813L56.7812 36.6929ZM64.6108 29.2343C64.1933 30.6444 63.7573 31.9663 63.3027 33.2002C62.8482 34.434 62.3519 35.6307 61.8138 36.7903C61.619 37.2077 61.4242 37.5602 61.2294 37.8478C61.0346 38.1447 60.8212 38.3859 60.5893 38.5714C60.3574 38.7662 60.093 38.9054 59.7961 38.9889C59.5085 39.0816 59.1699 39.128 58.7803 39.128C58.4556 39.128 58.1541 39.0955 57.8758 39.0306C57.6068 38.9749 57.3842 38.91 57.2079 38.8358L57.5697 37.1799C57.7831 37.2541 57.9732 37.3051 58.1402 37.333C58.3072 37.3608 58.4834 37.3747 58.669 37.3747C59.0401 37.3747 59.323 37.2727 59.5178 37.0686C59.7219 36.8738 59.8935 36.6001 60.0327 36.2476C59.5596 35.3199 59.0864 34.2809 58.6133 33.1306C58.1402 31.971 57.6949 30.6722 57.2775 29.2343H59.4761C59.5688 29.5961 59.6755 29.9904 59.7961 30.4171C59.926 30.8346 60.0605 31.2613 60.1997 31.6973C60.3388 32.1241 60.478 32.5415 60.6171 32.9497C60.7655 33.3579 60.9047 33.7289 61.0346 34.0629C61.1552 33.7289 61.2804 33.3579 61.4103 32.9497C61.5401 32.5415 61.6654 32.1241 61.786 31.6973C61.9159 31.2613 62.0365 30.8346 62.1478 30.4171C62.2684 29.9904 62.3751 29.5961 62.4678 29.2343H64.6108ZM72.9753 36.7485C72.2981 36.7485 71.7136 36.6558 71.222 36.4702C70.7303 36.2754 70.3221 36.011 69.9974 35.6771C69.682 35.3338 69.4455 34.9303 69.2878 34.4664C69.1393 33.9933 69.0651 33.4738 69.0651 32.9079V26.9105H71.2359V32.727C71.2359 33.1167 71.2776 33.4506 71.3611 33.7289C71.4539 33.998 71.5745 34.2206 71.7229 34.3969C71.8806 34.5638 72.0662 34.6844 72.2795 34.7587C72.5022 34.8329 72.7434 34.87 73.0031 34.87C73.5319 34.87 73.9586 34.7076 74.2833 34.3829C74.6173 34.0583 74.7842 33.5063 74.7842 32.727V26.9105H76.955V32.9079C76.955 33.4738 76.8762 33.9933 76.7185 34.4664C76.5608 34.9396 76.3196 35.3477 75.9949 35.691C75.6702 36.0249 75.2574 36.2847 74.7564 36.4702C74.2555 36.6558 73.6618 36.7485 72.9753 36.7485ZM83.593 32.9497C83.593 32.3096 83.4492 31.7994 83.1616 31.419C82.874 31.0294 82.4473 30.8346 81.8814 30.8346C81.6959 30.8346 81.5243 30.8439 81.3666 30.8624C81.2088 30.8717 81.079 30.8856 80.9769 30.9042V34.6473C81.1068 34.7308 81.2738 34.8004 81.4779 34.8561C81.6912 34.9117 81.9046 34.9396 82.118 34.9396C83.1013 34.9396 83.593 34.2763 83.593 32.9497ZM85.7081 32.894C85.7081 33.4599 85.6385 33.9748 85.4994 34.4386C85.3602 34.9024 85.1561 35.3013 84.8871 35.6353C84.6181 35.9693 84.2841 36.229 83.8852 36.4146C83.4863 36.6001 83.0271 36.6929 82.5076 36.6929C82.22 36.6929 81.951 36.665 81.7005 36.6094C81.45 36.5537 81.2088 36.4749 80.9769 36.3728V39.128H78.9036V29.4848C79.0891 29.4292 79.3025 29.3781 79.5437 29.3317C79.7849 29.2761 80.0353 29.2297 80.2951 29.1926C80.5641 29.1555 80.8331 29.1277 81.1022 29.1091C81.3805 29.0813 81.6449 29.0674 81.8953 29.0674C82.4983 29.0674 83.0364 29.1601 83.5095 29.3457C83.9826 29.5219 84.3815 29.777 84.7062 30.111C85.0309 30.4357 85.2767 30.8346 85.4437 31.3077C85.6199 31.7808 85.7081 32.3096 85.7081 32.894ZM89.4028 35.0648C89.7831 35.0648 90.0521 35.0277 90.2098 34.9535C90.3676 34.8793 90.4464 34.7355 90.4464 34.5221C90.4464 34.3551 90.3444 34.2113 90.1403 34.0907C89.9362 33.9609 89.6254 33.8171 89.208 33.6594C88.8833 33.5388 88.5864 33.4135 88.3174 33.2837C88.0576 33.1538 87.835 33.0007 87.6495 32.8245C87.4639 32.6389 87.3201 32.4209 87.2181 32.1704C87.116 31.92 87.065 31.6185 87.065 31.266C87.065 30.5795 87.3201 30.0368 87.8304 29.6379C88.3406 29.239 89.041 29.0395 89.9315 29.0395C90.3768 29.0395 90.8036 29.0813 91.2117 29.1648C91.6199 29.239 91.9446 29.3225 92.1858 29.4152L91.824 31.0294C91.5828 30.9459 91.3184 30.8717 91.0308 30.8068C90.7525 30.7418 90.4371 30.7093 90.0846 30.7093C89.4352 30.7093 89.1105 30.8902 89.1105 31.252C89.1105 31.3355 89.1245 31.4097 89.1523 31.4747C89.1801 31.5396 89.2358 31.6046 89.3193 31.6695C89.4028 31.7252 89.5141 31.7901 89.6532 31.8643C89.8017 31.9292 89.9872 32.0035 90.2098 32.0869C90.6644 32.2539 91.0401 32.4209 91.337 32.5879C91.6338 32.7456 91.8657 32.9219 92.0327 33.1167C92.209 33.3022 92.3296 33.5109 92.3945 33.7429C92.4687 33.9748 92.5058 34.2438 92.5058 34.5499C92.5058 35.2735 92.2322 35.8208 91.6849 36.1919C91.1468 36.563 90.3815 36.7485 89.3889 36.7485C88.7395 36.7485 88.1968 36.6929 87.7608 36.5815C87.334 36.4702 87.0372 36.3775 86.8702 36.3032L87.2181 34.6195C87.5706 34.7587 87.9324 34.87 88.3035 34.9535C88.6745 35.0277 89.041 35.0648 89.4028 35.0648Z" fill="#414652"/>
<rect x="7.51245" y="56.8835" width="326.975" height="162.301" stroke="#ECECEC" stroke-width="1.0249"/>
<path d="M7 110.161H335" stroke="#ECECEC" stroke-width="1.0249"/>
<path d="M7 83.7549H335" stroke="#ECECEC" stroke-width="1.0249"/>
<path d="M7 136.566H335" stroke="#ECECEC" stroke-width="1.0249"/>
<path d="M7 162.973H335" stroke="#ECECEC" stroke-width="1.0249"/>
<path d="M7 189.379H335" stroke="#ECECEC" stroke-width="1.0249"/>
<path d="M62.1777 56.3711L62.1777 219.697" stroke="#ECECEC" stroke-width="1.0249"/>
<path d="M116.334 56.3711L116.334 219.697" stroke="#ECECEC" stroke-width="1.0249"/>
<path d="M170.49 56.3711L170.49 219.697" stroke="#ECECEC" stroke-width="1.0249"/>
<path d="M224.646 56.3711L224.646 219.697" stroke="#ECECEC" stroke-width="1.0249"/>
<path d="M278.801 56.3711L278.801 219.697" stroke="#ECECEC" stroke-width="1.0249"/>
<path d="M7 57.1348H335" stroke="#ECECEC" stroke-width="1.5302"/>
<path d="M56.6973 168.012L111.861 155.587L138.2 110.86L182.928 90.9814L225.667 76.5693L280.334 127.26" stroke="#A8A8A8" stroke-width="2.98182"/>
<rect x="143.17" y="13.9512" width="82.497" height="33.7939" rx="15.903" fill="#CC2E3D"/>
<path d="M175.661 34.7713V36.9023H168.298V25.8815H170.779V34.7713H175.661ZM184.924 32.7039C184.924 33.3613 184.828 33.9656 184.638 34.5169C184.447 35.0576 184.171 35.5241 183.811 35.9164C183.45 36.298 183.016 36.5949 182.507 36.8069C182.008 37.019 181.446 37.125 180.821 37.125C180.206 37.125 179.644 37.019 179.135 36.8069C178.637 36.5949 178.207 36.298 177.847 35.9164C177.487 35.5241 177.206 35.0576 177.004 34.5169C176.803 33.9656 176.702 33.3613 176.702 32.7039C176.702 32.0466 176.803 31.4476 177.004 30.9069C177.216 30.3662 177.502 29.905 177.863 29.5233C178.234 29.1417 178.669 28.8448 179.167 28.6328C179.676 28.4207 180.227 28.3147 180.821 28.3147C181.425 28.3147 181.977 28.4207 182.475 28.6328C182.984 28.8448 183.418 29.1417 183.779 29.5233C184.139 29.905 184.42 30.3662 184.622 30.9069C184.823 31.4476 184.924 32.0466 184.924 32.7039ZM182.507 32.7039C182.507 31.9724 182.358 31.3999 182.061 30.9864C181.775 30.5623 181.362 30.3503 180.821 30.3503C180.28 30.3503 179.861 30.5623 179.565 30.9864C179.268 31.3999 179.119 31.9724 179.119 32.7039C179.119 33.4355 179.268 34.0186 179.565 34.4533C179.861 34.8774 180.28 35.0894 180.821 35.0894C181.362 35.0894 181.775 34.8774 182.061 34.4533C182.358 34.0186 182.507 33.4355 182.507 32.7039ZM189.161 35.2007C189.595 35.2007 189.903 35.1583 190.083 35.0735C190.263 34.9887 190.354 34.8243 190.354 34.5805C190.354 34.3897 190.237 34.2253 190.004 34.0875C189.77 33.9391 189.415 33.7747 188.938 33.5945C188.567 33.4567 188.228 33.3136 187.92 33.1651C187.624 33.0167 187.369 32.8418 187.157 32.6403C186.945 32.4283 186.781 32.1791 186.664 31.8929C186.547 31.6066 186.489 31.2621 186.489 30.8592C186.489 30.0746 186.781 29.4544 187.364 28.9985C187.947 28.5427 188.747 28.3147 189.765 28.3147C190.274 28.3147 190.762 28.3624 191.228 28.4578C191.695 28.5427 192.066 28.6381 192.341 28.7441L191.928 30.5888C191.652 30.4934 191.35 30.4086 191.021 30.3344C190.703 30.2602 190.343 30.2231 189.94 30.2231C189.198 30.2231 188.827 30.4298 188.827 30.8433C188.827 30.9387 188.843 31.0235 188.875 31.0977C188.906 31.172 188.97 31.2462 189.065 31.3204C189.161 31.384 189.288 31.4582 189.447 31.543C189.617 31.6172 189.829 31.7021 190.083 31.7975C190.603 31.9883 191.032 32.1791 191.371 32.37C191.711 32.5502 191.976 32.7517 192.166 32.9743C192.368 33.1863 192.506 33.4249 192.58 33.6899C192.665 33.955 192.707 34.2624 192.707 34.6123C192.707 35.4393 192.394 36.0648 191.769 36.4889C191.154 36.9129 190.279 37.125 189.145 37.125C188.403 37.125 187.783 37.0614 187.284 36.9341C186.797 36.8069 186.457 36.7009 186.266 36.6161L186.664 34.6918C187.067 34.8509 187.48 34.9781 187.904 35.0735C188.329 35.1583 188.747 35.2007 189.161 35.2007ZM196.879 35.2007C197.314 35.2007 197.621 35.1583 197.802 35.0735C197.982 34.9887 198.072 34.8243 198.072 34.5805C198.072 34.3897 197.955 34.2253 197.722 34.0875C197.489 33.9391 197.134 33.7747 196.657 33.5945C196.286 33.4567 195.946 33.3136 195.639 33.1651C195.342 33.0167 195.088 32.8418 194.876 32.6403C194.664 32.4283 194.499 32.1791 194.383 31.8929C194.266 31.6066 194.208 31.2621 194.208 30.8592C194.208 30.0746 194.499 29.4544 195.082 28.9985C195.665 28.5427 196.466 28.3147 197.484 28.3147C197.993 28.3147 198.48 28.3624 198.947 28.4578C199.413 28.5427 199.784 28.6381 200.06 28.7441L199.646 30.5888C199.371 30.4934 199.069 30.4086 198.74 30.3344C198.422 30.2602 198.061 30.2231 197.659 30.2231C196.916 30.2231 196.545 30.4298 196.545 30.8433C196.545 30.9387 196.561 31.0235 196.593 31.0977C196.625 31.172 196.689 31.2462 196.784 31.3204C196.879 31.384 197.007 31.4582 197.166 31.543C197.335 31.6172 197.547 31.7021 197.802 31.7975C198.321 31.9883 198.751 32.1791 199.09 32.37C199.429 32.5502 199.694 32.7517 199.885 32.9743C200.086 33.1863 200.224 33.4249 200.299 33.6899C200.383 33.955 200.426 34.2624 200.426 34.6123C200.426 35.4393 200.113 36.0648 199.487 36.4889C198.873 36.9129 197.998 37.125 196.863 37.125C196.121 37.125 195.501 37.0614 195.003 36.9341C194.515 36.8069 194.176 36.7009 193.985 36.6161L194.383 34.6918C194.785 34.8509 195.199 34.9781 195.623 35.0735C196.047 35.1583 196.466 35.2007 196.879 35.2007Z" fill="white"/>
<path d="M35.7898 151.353C36.9984 151.353 37.6027 150.939 37.6027 150.112C37.6027 149.858 37.5471 149.643 37.4358 149.468C37.3324 149.285 37.1893 149.13 37.0064 149.003C36.8235 148.868 36.6128 148.753 36.3742 148.657C36.1436 148.562 35.8971 148.466 35.6347 148.371C35.3326 148.268 35.0463 148.152 34.776 148.025C34.5056 147.89 34.271 147.735 34.0723 147.56C33.8735 147.377 33.7144 147.162 33.5952 146.916C33.4838 146.669 33.4282 146.371 33.4282 146.021C33.4282 145.298 33.6747 144.733 34.1677 144.328C34.6607 143.922 35.3405 143.719 36.2072 143.719C36.7082 143.719 37.1614 143.775 37.567 143.886C37.9804 143.99 38.2826 144.105 38.4734 144.232L38.1037 145.174C37.9367 145.071 37.6862 144.972 37.3523 144.876C37.0262 144.773 36.6446 144.721 36.2072 144.721C35.9846 144.721 35.7779 144.745 35.587 144.793C35.3962 144.841 35.2292 144.912 35.0861 145.007C34.943 145.103 34.8277 145.226 34.7402 145.377C34.6607 145.52 34.6209 145.691 34.6209 145.89C34.6209 146.113 34.6646 146.3 34.7521 146.451C34.8396 146.602 34.9628 146.737 35.1219 146.856C35.2809 146.968 35.4638 147.071 35.6705 147.166C35.8852 147.262 36.1198 147.357 36.3742 147.453C36.732 147.596 37.0581 147.739 37.3523 147.882C37.6544 148.025 37.9128 148.196 38.1275 148.395C38.3502 148.594 38.5211 148.832 38.6404 149.11C38.7597 149.381 38.8193 149.711 38.8193 150.1C38.8193 150.824 38.5529 151.381 38.0202 151.77C37.4954 152.16 36.7519 152.355 35.7898 152.355C35.4638 152.355 35.1616 152.331 34.8833 152.283C34.613 152.243 34.3704 152.196 34.1558 152.14C33.9411 152.076 33.7542 152.013 33.5952 151.949C33.4441 151.878 33.3248 151.818 33.2374 151.77L33.5832 150.816C33.7661 150.919 34.0444 151.035 34.4182 151.162C34.7919 151.289 35.2491 151.353 35.7898 151.353ZM41.1836 145.974H43.5333V146.904H41.1836V149.766C41.1836 150.077 41.2075 150.335 41.2552 150.542C41.3029 150.741 41.3745 150.9 41.4699 151.019C41.5653 151.13 41.6846 151.21 41.8277 151.257C41.9708 151.305 42.1378 151.329 42.3286 151.329C42.6626 151.329 42.929 151.293 43.1278 151.222C43.3345 151.142 43.4776 151.086 43.5571 151.055L43.7718 151.973C43.6605 152.029 43.4657 152.096 43.1874 152.176C42.9091 152.263 42.591 152.307 42.2332 152.307C41.8118 152.307 41.4619 152.255 41.1836 152.152C40.9133 152.041 40.6946 151.878 40.5276 151.663C40.3606 151.448 40.2414 151.186 40.1698 150.876C40.1062 150.558 40.0744 150.192 40.0744 149.778V144.244L41.1836 144.053V145.974ZM47.044 151.377C47.3064 151.377 47.537 151.373 47.7358 151.365C47.9425 151.349 48.1135 151.325 48.2487 151.293V149.444C48.1691 149.405 48.0379 149.373 47.8551 149.349C47.6801 149.317 47.4654 149.301 47.211 149.301C47.044 149.301 46.8651 149.313 46.6743 149.337C46.4914 149.361 46.3204 149.413 46.1614 149.492C46.0103 149.564 45.8831 149.667 45.7797 149.802C45.6763 149.929 45.6247 150.1 45.6247 150.315C45.6247 150.713 45.7519 150.991 46.0063 151.15C46.2608 151.301 46.6067 151.377 47.044 151.377ZM46.9486 145.819C47.3939 145.819 47.7676 145.878 48.0698 145.997C48.3799 146.109 48.6264 146.272 48.8092 146.486C49.0001 146.693 49.1353 146.944 49.2148 147.238C49.2943 147.524 49.334 147.842 49.334 148.192V152.068C49.2386 152.084 49.1034 152.108 48.9285 152.14C48.7615 152.164 48.5707 152.188 48.356 152.212C48.1413 152.235 47.9067 152.255 47.6523 152.271C47.4058 152.295 47.1593 152.307 46.9128 152.307C46.5629 152.307 46.2409 152.271 45.9467 152.2C45.6525 152.128 45.398 152.017 45.1834 151.866C44.9687 151.707 44.8017 151.5 44.6824 151.245C44.5631 150.991 44.5035 150.685 44.5035 150.327C44.5035 149.985 44.5711 149.691 44.7063 149.444C44.8494 149.198 45.0402 148.999 45.2788 148.848C45.5173 148.697 45.7956 148.586 46.1137 148.514C46.4317 148.443 46.7657 148.407 47.1156 148.407C47.2269 148.407 47.3422 148.415 47.4615 148.431C47.5807 148.439 47.6921 148.454 47.7954 148.478C47.9067 148.494 48.0022 148.51 48.0817 148.526C48.1612 148.542 48.2169 148.554 48.2487 148.562V148.252C48.2487 148.069 48.2288 147.89 48.189 147.715C48.1493 147.532 48.0777 147.373 47.9743 147.238C47.871 147.095 47.7278 146.983 47.545 146.904C47.37 146.816 47.1394 146.773 46.8532 146.773C46.4874 146.773 46.1654 146.801 45.8871 146.856C45.6167 146.904 45.4139 146.956 45.2788 147.011L45.1476 146.093C45.2907 146.029 45.5292 145.97 45.8632 145.914C46.1972 145.85 46.559 145.819 46.9486 145.819ZM53.4664 145.842C53.5618 145.842 53.6691 145.85 53.7884 145.866C53.9156 145.874 54.0389 145.89 54.1582 145.914C54.2774 145.93 54.3848 145.95 54.4802 145.974C54.5836 145.99 54.6591 146.005 54.7068 146.021L54.516 146.987C54.4285 146.956 54.2814 146.92 54.0747 146.88C53.8759 146.832 53.6175 146.809 53.2994 146.809C53.0927 146.809 52.8859 146.832 52.6792 146.88C52.4804 146.92 52.3492 146.948 52.2856 146.964V152.176H51.1763V146.236C51.4387 146.141 51.7648 146.053 52.1544 145.974C52.544 145.886 52.9813 145.842 53.4664 145.842ZM56.8149 145.974H59.1645V146.904H56.8149V149.766C56.8149 150.077 56.8387 150.335 56.8864 150.542C56.9341 150.741 57.0057 150.9 57.1011 151.019C57.1965 151.13 57.3158 151.21 57.4589 151.257C57.6021 151.305 57.769 151.329 57.9599 151.329C58.2938 151.329 58.5602 151.293 58.759 151.222C58.9658 151.142 59.1089 151.086 59.1884 151.055L59.4031 151.973C59.2918 152.029 59.097 152.096 58.8186 152.176C58.5403 152.263 58.2223 152.307 57.8645 152.307C57.443 152.307 57.0932 152.255 56.8149 152.152C56.5445 152.041 56.3258 151.878 56.1589 151.663C55.9919 151.448 55.8726 151.186 55.801 150.876C55.7374 150.558 55.7056 150.192 55.7056 149.778V144.244L56.8149 144.053V145.974Z" fill="#414652"/>
<path d="M63.1589 167.018C63.1589 171.409 59.5989 174.969 55.2074 174.969C50.8159 174.969 47.2559 171.409 47.2559 167.018C47.2559 162.626 50.8159 159.066 55.2074 159.066C59.5989 159.066 63.1589 162.626 63.1589 167.018Z" fill="#FF444F"/>
<path d="M296.27 132.297V124.031H301.315V125.021H297.427V127.478H300.886V128.444H297.427V131.307H301.613V132.297H296.27ZM303.012 126.274C303.267 126.21 303.605 126.142 304.026 126.071C304.447 125.999 304.933 125.963 305.481 125.963C305.974 125.963 306.384 126.035 306.71 126.178C307.036 126.313 307.294 126.508 307.485 126.763C307.684 127.009 307.823 127.307 307.902 127.657C307.982 128.007 308.022 128.393 308.022 128.814V132.297H306.912V129.053C306.912 128.671 306.885 128.345 306.829 128.075C306.781 127.804 306.698 127.586 306.578 127.419C306.459 127.252 306.3 127.132 306.101 127.061C305.903 126.981 305.656 126.942 305.362 126.942C305.243 126.942 305.119 126.946 304.992 126.953C304.865 126.961 304.742 126.973 304.622 126.989C304.511 126.997 304.408 127.009 304.312 127.025C304.225 127.041 304.161 127.053 304.121 127.061V132.297H303.012V126.274ZM313.869 127.407C313.733 127.295 313.539 127.188 313.284 127.085C313.03 126.981 312.751 126.93 312.449 126.93C312.131 126.93 311.857 126.989 311.626 127.109C311.404 127.22 311.221 127.379 311.078 127.586C310.935 127.784 310.831 128.023 310.768 128.301C310.704 128.58 310.672 128.878 310.672 129.196C310.672 129.919 310.851 130.48 311.209 130.878C311.567 131.267 312.044 131.462 312.64 131.462C312.942 131.462 313.193 131.45 313.392 131.426C313.598 131.394 313.757 131.363 313.869 131.331V127.407ZM313.869 123.232L314.978 123.041V132.118C314.723 132.19 314.397 132.261 314 132.333C313.602 132.404 313.145 132.44 312.628 132.44C312.151 132.44 311.722 132.364 311.34 132.213C310.958 132.062 310.632 131.848 310.362 131.569C310.092 131.291 309.881 130.953 309.73 130.555C309.587 130.15 309.515 129.697 309.515 129.196C309.515 128.719 309.575 128.281 309.694 127.884C309.821 127.486 310.004 127.144 310.243 126.858C310.481 126.572 310.772 126.349 311.113 126.19C311.463 126.031 311.861 125.952 312.306 125.952C312.664 125.952 312.978 125.999 313.248 126.095C313.527 126.19 313.733 126.282 313.869 126.369V123.232Z" fill="#414652"/>
<path d="M288.286 128.254C288.286 132.646 284.726 136.206 280.334 136.206C275.943 136.206 272.383 132.646 272.383 128.254C272.383 123.863 275.943 120.303 280.334 120.303C284.726 120.303 288.286 123.863 288.286 128.254Z" fill="#FF444F"/>
<defs>
<filter id="filter0_d_2591_34267" x="0.0977015" y="0.478161" width="341.805" height="227.502" filterUnits="userSpaceOnUse" color-interpolation-filters="sRGB">
<feFlood flood-opacity="0" result="BackgroundImageFix"/>
<feColorMatrix in="SourceAlpha" type="matrix" values="0 0 0 0 0 0 0 0 0 0 0 0 0 0 0 0 0 0 127 0" result="hardAlpha"/>
<feOffset dy="1.38046"/>
<feGaussianBlur stdDeviation="3.45115"/>
<feComposite in2="hardAlpha" operator="out"/>
<feColorMatrix type="matrix" values="0 0 0 0 0 0 0 0 0 0 0 0 0 0 0 0 0 0 0.1 0"/>
<feBlend mode="normal" in2="BackgroundImageFix" result="effect1_dropShadow_2591_34267"/>
<feBlend mode="normal" in="SourceGraphic" in2="effect1_dropShadow_2591_34267" result="shape"/>
</filter>
</defs>
</svg>
