<svg width="342" height="228" viewBox="0 0 342 228" fill="none" xmlns="http://www.w3.org/2000/svg">
<g filter="url(#filter0_d_2591_34322)">
<rect x="7" y="5.69727" width="328" height="213.697" rx="4.14138" fill="white"/>
</g>
<path d="M36.6334 31.4224C36.6334 31.8955 36.689 32.3223 36.8003 32.7026C36.9209 33.083 37.0879 33.4123 37.3013 33.6906C37.5239 33.9596 37.793 34.1683 38.1084 34.3168C38.4238 34.4652 38.7856 34.5394 39.1938 34.5394C39.5927 34.5394 39.9498 34.4652 40.2652 34.3168C40.5899 34.1683 40.8589 33.9596 41.0723 33.6906C41.2949 33.4123 41.4619 33.083 41.5732 32.7026C41.6938 32.3223 41.7541 31.8955 41.7541 31.4224C41.7541 30.9493 41.6938 30.5226 41.5732 30.1422C41.4619 29.7526 41.2949 29.4233 41.0723 29.1542C40.8589 28.8759 40.5899 28.6626 40.2652 28.5142C39.9498 28.3657 39.5927 28.2915 39.1938 28.2915C38.7856 28.2915 38.4238 28.3704 38.1084 28.5281C37.793 28.6765 37.5239 28.8899 37.3013 29.1682C37.0879 29.4372 36.9209 29.7665 36.8003 30.1561C36.689 30.5365 36.6334 30.9586 36.6334 31.4224ZM43.9945 31.4224C43.9945 32.2481 43.8692 32.9763 43.6188 33.6071C43.3776 34.2286 43.0436 34.7528 42.6169 35.1795C42.1901 35.597 41.6799 35.9124 41.0862 36.1257C40.5018 36.3391 39.871 36.4458 39.1938 36.4458C38.5351 36.4458 37.9136 36.3391 37.3291 36.1257C36.7447 35.9124 36.2345 35.597 35.7985 35.1795C35.3624 34.7528 35.0192 34.2286 34.7687 33.6071C34.5183 32.9763 34.393 32.2481 34.393 31.4224C34.393 30.5968 34.5229 29.8732 34.7826 29.2517C35.0424 28.6208 35.3903 28.0921 35.8263 27.6653C36.2716 27.2386 36.7818 26.9185 37.357 26.7052C37.9414 26.4918 38.5537 26.3851 39.1938 26.3851C39.8524 26.3851 40.4739 26.4918 41.0584 26.7052C41.6428 26.9185 42.153 27.2386 42.589 27.6653C43.0251 28.0921 43.3683 28.6208 43.6188 29.2517C43.8692 29.8732 43.9945 30.5968 43.9945 31.4224ZM45.6648 29.1821C46.0174 29.08 46.4719 28.9873 47.0285 28.9038C47.5851 28.811 48.1696 28.7646 48.7818 28.7646C49.4034 28.7646 49.9182 28.8481 50.3264 29.0151C50.7439 29.1728 51.0732 29.4001 51.3144 29.6969C51.5556 29.9938 51.7272 30.3463 51.8293 30.7545C51.9313 31.1627 51.9823 31.6172 51.9823 32.1182V36.251H49.909V32.3686C49.909 31.7007 49.8208 31.2276 49.6446 30.9493C49.4683 30.671 49.139 30.5318 48.6566 30.5318C48.5082 30.5318 48.3505 30.5411 48.1835 30.5597C48.0165 30.569 47.8681 30.5829 47.7382 30.6014V36.251H45.6648V29.1821ZM56.7812 36.3901C56.1782 36.3809 55.6865 36.3159 55.3062 36.1953C54.9351 36.0747 54.6383 35.9077 54.4156 35.6944C54.2023 35.4717 54.0538 35.2073 53.9703 34.9012C53.8961 34.5858 53.859 34.2333 53.859 33.8437V25.7868L55.9324 25.4528V33.4262C55.9324 33.6117 55.9463 33.7787 55.9741 33.9271C56.0019 34.0756 56.053 34.2008 56.1272 34.3029C56.2107 34.4049 56.3266 34.4884 56.4751 34.5533C56.6235 34.6183 56.8229 34.66 57.0734 34.6786L56.7812 36.3901ZM64.6108 28.9316C64.1933 30.3417 63.7573 31.6636 63.3027 32.8974C62.8482 34.1312 62.3519 35.3279 61.8138 36.4875C61.619 36.905 61.4242 37.2575 61.2294 37.5451C61.0346 37.8419 60.8212 38.0831 60.5893 38.2687C60.3574 38.4635 60.093 38.6026 59.7961 38.6861C59.5085 38.7789 59.1699 38.8253 58.7803 38.8253C58.4556 38.8253 58.1541 38.7928 57.8758 38.7279C57.6068 38.6722 57.3842 38.6073 57.2079 38.5331L57.5697 36.8772C57.7831 36.9514 57.9732 37.0024 58.1402 37.0302C58.3072 37.0581 58.4834 37.072 58.669 37.072C59.0401 37.072 59.323 36.9699 59.5178 36.7658C59.7219 36.571 59.8935 36.2974 60.0327 35.9448C59.5596 35.0172 59.0864 33.9782 58.6133 32.8278C58.1402 31.6683 57.6949 30.3695 57.2775 28.9316H59.4761C59.5688 29.2934 59.6755 29.6877 59.7961 30.1144C59.926 30.5318 60.0605 30.9586 60.1997 31.3946C60.3388 31.8213 60.478 32.2388 60.6171 32.647C60.7655 33.0551 60.9047 33.4262 61.0346 33.7602C61.1552 33.4262 61.2804 33.0551 61.4103 32.647C61.5401 32.2388 61.6654 31.8213 61.786 31.3946C61.9159 30.9586 62.0365 30.5318 62.1478 30.1144C62.2684 29.6877 62.3751 29.2934 62.4678 28.9316H64.6108ZM71.375 34.4838C71.4771 34.493 71.593 34.5023 71.7229 34.5116C71.8621 34.5116 72.0244 34.5116 72.2099 34.5116C73.2953 34.5116 74.0978 34.2379 74.6173 33.6906C75.146 33.1433 75.4104 32.3872 75.4104 31.4224C75.4104 30.4113 75.16 29.6459 74.659 29.1264C74.1581 28.6069 73.3649 28.3472 72.2795 28.3472C72.1311 28.3472 71.978 28.3518 71.8203 28.3611C71.6626 28.3611 71.5142 28.3704 71.375 28.3889V34.4838ZM77.6508 31.4224C77.6508 32.2573 77.5209 32.9856 77.2611 33.6071C77.0014 34.2286 76.6303 34.7435 76.1479 35.1517C75.6748 35.5599 75.095 35.866 74.4085 36.0701C73.7221 36.2742 72.9521 36.3762 72.0986 36.3762C71.709 36.3762 71.2544 36.3577 70.7349 36.3206C70.2154 36.2927 69.7052 36.2278 69.2043 36.1257V26.733C69.7052 26.6402 70.2247 26.5799 70.7628 26.5521C71.3101 26.515 71.7786 26.4965 72.1682 26.4965C72.9938 26.4965 73.7406 26.5892 74.4085 26.7748C75.0857 26.9603 75.6655 27.2525 76.1479 27.6514C76.6303 28.0503 77.0014 28.5605 77.2611 29.1821C77.5209 29.8036 77.6508 30.5504 77.6508 31.4224ZM86.1711 32.5774C86.1711 33.1525 86.0876 33.6813 85.9206 34.1637C85.7536 34.6368 85.5124 35.045 85.197 35.3882C84.8816 35.7222 84.5013 35.982 84.056 36.1675C83.62 36.353 83.1283 36.4458 82.581 36.4458C82.0429 36.4458 81.5513 36.353 81.106 36.1675C80.67 35.982 80.2943 35.7222 79.9788 35.3882C79.6634 35.045 79.4176 34.6368 79.2413 34.1637C79.0651 33.6813 78.977 33.1525 78.977 32.5774C78.977 32.0022 79.0651 31.4781 79.2413 31.005C79.4269 30.5318 79.6773 30.1283 79.9928 29.7943C80.3174 29.4604 80.6978 29.2006 81.1338 29.0151C81.5791 28.8296 82.0615 28.7368 82.581 28.7368C83.1098 28.7368 83.5921 28.8296 84.0282 29.0151C84.4734 29.2006 84.8538 29.4604 85.1692 29.7943C85.4846 30.1283 85.7304 30.5318 85.9067 31.005C86.083 31.4781 86.1711 32.0022 86.1711 32.5774ZM84.056 32.5774C84.056 31.9373 83.9261 31.4363 83.6664 31.0745C83.4159 30.7035 83.0541 30.5179 82.581 30.5179C82.1079 30.5179 81.7414 30.7035 81.4817 31.0745C81.2219 31.4363 81.0921 31.9373 81.0921 32.5774C81.0921 33.2175 81.2219 33.7277 81.4817 34.108C81.7414 34.4791 82.1079 34.6646 82.581 34.6646C83.0541 34.6646 83.4159 34.4791 83.6664 34.108C83.9261 33.7277 84.056 33.2175 84.056 32.5774ZM92.067 32.0486C91.8814 32.7536 91.682 33.454 91.4686 34.1498C91.2645 34.8455 91.0465 35.5459 90.8146 36.251H89.2005C89.0335 35.8614 88.8526 35.3975 88.6578 34.8595C88.463 34.3214 88.2589 33.737 88.0455 33.1062C87.8414 32.4661 87.628 31.7935 87.4054 31.0885C87.192 30.3741 86.9833 29.6552 86.7792 28.9316H88.9639C89.0381 29.2656 89.117 29.632 89.2005 30.0309C89.2932 30.4205 89.386 30.8241 89.4788 31.2415C89.5808 31.659 89.6828 32.0811 89.7849 32.5078C89.8962 32.9253 90.0075 33.3288 90.1189 33.7184C90.2395 33.3102 90.3554 32.8928 90.4667 32.4661C90.5873 32.0393 90.6987 31.6219 90.8007 31.2137C90.912 30.7962 91.0141 30.3973 91.1068 30.017C91.2089 29.6274 91.297 29.2656 91.3712 28.9316H92.8741C92.9483 29.2656 93.0318 29.6274 93.1245 30.017C93.2173 30.3973 93.3147 30.7962 93.4167 31.2137C93.5188 31.6219 93.6255 32.0393 93.7368 32.4661C93.8481 32.8928 93.9641 33.3102 94.0847 33.7184C94.196 33.3288 94.3073 32.9253 94.4186 32.5078C94.53 32.0811 94.632 31.659 94.7248 31.2415C94.8268 30.8241 94.9196 30.4205 95.0031 30.0309C95.0958 29.632 95.1793 29.2656 95.2535 28.9316H97.4104C97.2063 29.6552 96.9929 30.3741 96.7703 31.0885C96.5569 31.7935 96.3436 32.4661 96.1302 33.1062C95.9261 33.737 95.722 34.3214 95.5179 34.8595C95.3231 35.3975 95.1422 35.8614 94.9752 36.251H93.3611C93.1292 35.5459 92.9019 34.8455 92.6792 34.1498C92.4566 33.454 92.2525 32.7536 92.067 32.0486ZM98.5261 29.1821C98.8786 29.08 99.3332 28.9873 99.8898 28.9038C100.446 28.811 101.031 28.7646 101.643 28.7646C102.265 28.7646 102.78 28.8481 103.188 29.0151C103.605 29.1728 103.934 29.4001 104.176 29.6969C104.417 29.9938 104.588 30.3463 104.691 30.7545C104.793 31.1627 104.844 31.6172 104.844 32.1182V36.251H102.77V32.3686C102.77 31.7007 102.682 31.2276 102.506 30.9493C102.33 30.671 102 30.5318 101.518 30.5318C101.369 30.5318 101.212 30.5411 101.045 30.5597C100.878 30.569 100.729 30.5829 100.599 30.6014V36.251H98.5261V29.1821ZM108.821 34.7621C109.202 34.7621 109.471 34.7249 109.629 34.6507C109.786 34.5765 109.865 34.4327 109.865 34.2194C109.865 34.0524 109.763 33.9086 109.559 33.788C109.355 33.6581 109.044 33.5143 108.627 33.3566C108.302 33.236 108.005 33.1108 107.736 32.9809C107.476 32.851 107.254 32.698 107.068 32.5217C106.883 32.3362 106.739 32.1182 106.637 31.8677C106.535 31.6172 106.484 31.3157 106.484 30.9632C106.484 30.2767 106.739 29.734 107.249 29.3351C107.759 28.9362 108.46 28.7368 109.35 28.7368C109.796 28.7368 110.222 28.7785 110.63 28.862C111.039 28.9362 111.363 29.0197 111.605 29.1125L111.243 30.7267C111.002 30.6432 110.737 30.569 110.45 30.504C110.171 30.4391 109.856 30.4066 109.503 30.4066C108.854 30.4066 108.529 30.5875 108.529 30.9493C108.529 31.0328 108.543 31.107 108.571 31.1719C108.599 31.2369 108.654 31.3018 108.738 31.3668C108.821 31.4224 108.933 31.4874 109.072 31.5616C109.22 31.6265 109.406 31.7007 109.629 31.7842C110.083 31.9512 110.459 32.1182 110.756 32.2852C111.053 32.4429 111.284 32.6191 111.451 32.8139C111.628 32.9995 111.748 33.2082 111.813 33.4401C111.887 33.672 111.925 33.9411 111.925 34.2472C111.925 34.9708 111.651 35.5181 111.104 35.8892C110.566 36.2603 109.8 36.4458 108.808 36.4458C108.158 36.4458 107.615 36.3901 107.179 36.2788C106.753 36.1675 106.456 36.0747 106.289 36.0005L106.637 34.3168C106.989 34.4559 107.351 34.5672 107.722 34.6507C108.093 34.7249 108.46 34.7621 108.821 34.7621Z" fill="#414652"/>
<rect x="7.51245" y="56.5818" width="326.975" height="162.301" stroke="#ECECEC" stroke-width="1.0249"/>
<path d="M7 109.859H335" stroke="#ECECEC" stroke-width="1.0249"/>
<path d="M7 83.4531H335" stroke="#ECECEC" stroke-width="1.0249"/>
<path d="M7 136.265H335" stroke="#ECECEC" stroke-width="1.0249"/>
<path d="M7 162.671H335" stroke="#ECECEC" stroke-width="1.0249"/>
<path d="M7 189.077H335" stroke="#ECECEC" stroke-width="1.0249"/>
<path d="M62.1777 56.0693L62.1777 219.395" stroke="#ECECEC" stroke-width="1.0249"/>
<path d="M116.334 56.0693L116.334 219.395" stroke="#ECECEC" stroke-width="1.0249"/>
<path d="M170.49 56.0693L170.49 219.395" stroke="#ECECEC" stroke-width="1.0249"/>
<path d="M224.646 56.0693L224.646 219.395" stroke="#ECECEC" stroke-width="1.0249"/>
<path d="M278.801 56.0693L278.801 219.395" stroke="#ECECEC" stroke-width="1.0249"/>
<path d="M7 56.832H335" stroke="#ECECEC" stroke-width="1.5302"/>
<path d="M53.7148 89.1885L111.363 105.588L141.182 137.395L216.721 161.249L277.351 129.94" stroke="#A8A8A8" stroke-width="2.98182"/>
<rect x="143.17" y="13.6484" width="82.497" height="33.7939" rx="15.903" fill="#CC2E3D"/>
<path d="M175.661 34.4686V36.5996H168.298V25.5788H170.779V34.4686H175.661ZM184.924 32.4012C184.924 33.0585 184.828 33.6628 184.638 34.2142C184.447 34.7549 184.171 35.2213 183.811 35.6136C183.45 35.9953 183.016 36.2922 182.507 36.5042C182.008 36.7162 181.446 36.8223 180.821 36.8223C180.206 36.8223 179.644 36.7162 179.135 36.5042C178.637 36.2922 178.207 35.9953 177.847 35.6136C177.487 35.2213 177.206 34.7549 177.004 34.2142C176.803 33.6628 176.702 33.0585 176.702 32.4012C176.702 31.7439 176.803 31.1449 177.004 30.6042C177.216 30.0635 177.502 29.6023 177.863 29.2206C178.234 28.8389 178.669 28.5421 179.167 28.33C179.676 28.118 180.227 28.012 180.821 28.012C181.425 28.012 181.977 28.118 182.475 28.33C182.984 28.5421 183.418 28.8389 183.779 29.2206C184.139 29.6023 184.42 30.0635 184.622 30.6042C184.823 31.1449 184.924 31.7439 184.924 32.4012ZM182.507 32.4012C182.507 31.6697 182.358 31.0972 182.061 30.6837C181.775 30.2596 181.362 30.0476 180.821 30.0476C180.28 30.0476 179.861 30.2596 179.565 30.6837C179.268 31.0972 179.119 31.6697 179.119 32.4012C179.119 33.1327 179.268 33.7159 179.565 34.1505C179.861 34.5746 180.28 34.7867 180.821 34.7867C181.362 34.7867 181.775 34.5746 182.061 34.1505C182.358 33.7159 182.507 33.1327 182.507 32.4012ZM189.161 34.898C189.595 34.898 189.903 34.8556 190.083 34.7708C190.263 34.6859 190.354 34.5216 190.354 34.2778C190.354 34.0869 190.237 33.9226 190.004 33.7848C189.77 33.6363 189.415 33.472 188.938 33.2918C188.567 33.154 188.228 33.0108 187.92 32.8624C187.624 32.714 187.369 32.539 187.157 32.3376C186.945 32.1256 186.781 31.8764 186.664 31.5902C186.547 31.3039 186.489 30.9593 186.489 30.5565C186.489 29.7719 186.781 29.1517 187.364 28.6958C187.947 28.2399 188.747 28.012 189.765 28.012C190.274 28.012 190.762 28.0597 191.228 28.1551C191.695 28.2399 192.066 28.3353 192.341 28.4414L191.928 30.2861C191.652 30.1907 191.35 30.1059 191.021 30.0317C190.703 29.9574 190.343 29.9203 189.94 29.9203C189.198 29.9203 188.827 30.1271 188.827 30.5406C188.827 30.636 188.843 30.7208 188.875 30.795C188.906 30.8692 188.97 30.9434 189.065 31.0176C189.161 31.0813 189.288 31.1555 189.447 31.2403C189.617 31.3145 189.829 31.3993 190.083 31.4947C190.603 31.6856 191.032 31.8764 191.371 32.0672C191.711 32.2475 191.976 32.4489 192.166 32.6716C192.368 32.8836 192.506 33.1221 192.58 33.3872C192.665 33.6522 192.707 33.9597 192.707 34.3096C192.707 35.1365 192.394 35.762 191.769 36.1861C191.154 36.6102 190.279 36.8223 189.145 36.8223C188.403 36.8223 187.783 36.7586 187.284 36.6314C186.797 36.5042 186.457 36.3982 186.266 36.3134L186.664 34.3891C187.067 34.5481 187.48 34.6753 187.904 34.7708C188.329 34.8556 188.747 34.898 189.161 34.898ZM196.879 34.898C197.314 34.898 197.621 34.8556 197.802 34.7708C197.982 34.6859 198.072 34.5216 198.072 34.2778C198.072 34.0869 197.955 33.9226 197.722 33.7848C197.489 33.6363 197.134 33.472 196.657 33.2918C196.286 33.154 195.946 33.0108 195.639 32.8624C195.342 32.714 195.088 32.539 194.876 32.3376C194.664 32.1256 194.499 31.8764 194.383 31.5902C194.266 31.3039 194.208 30.9593 194.208 30.5565C194.208 29.7719 194.499 29.1517 195.082 28.6958C195.665 28.2399 196.466 28.012 197.484 28.012C197.993 28.012 198.48 28.0597 198.947 28.1551C199.413 28.2399 199.784 28.3353 200.06 28.4414L199.646 30.2861C199.371 30.1907 199.069 30.1059 198.74 30.0317C198.422 29.9574 198.061 29.9203 197.659 29.9203C196.916 29.9203 196.545 30.1271 196.545 30.5406C196.545 30.636 196.561 30.7208 196.593 30.795C196.625 30.8692 196.689 30.9434 196.784 31.0176C196.879 31.0813 197.007 31.1555 197.166 31.2403C197.335 31.3145 197.547 31.3993 197.802 31.4947C198.321 31.6856 198.751 31.8764 199.09 32.0672C199.429 32.2475 199.694 32.4489 199.885 32.6716C200.086 32.8836 200.224 33.1221 200.299 33.3872C200.383 33.6522 200.426 33.9597 200.426 34.3096C200.426 35.1365 200.113 35.762 199.487 36.1861C198.873 36.6102 197.998 36.8223 196.863 36.8223C196.121 36.8223 195.501 36.7586 195.003 36.6314C194.515 36.5042 194.176 36.3982 193.985 36.3134L194.383 34.3891C194.785 34.5481 195.199 34.6753 195.623 34.7708C196.047 34.8556 196.466 34.898 196.879 34.898Z" fill="white"/>
<path d="M34.7937 73.5227C36.0023 73.5227 36.6066 73.1092 36.6066 72.2823C36.6066 72.0278 36.551 71.8131 36.4397 71.6382C36.3363 71.4553 36.1932 71.3003 36.0103 71.173C35.8274 71.0379 35.6167 70.9226 35.3781 70.8272C35.1475 70.7317 34.901 70.6363 34.6386 70.5409C34.3365 70.4375 34.0502 70.3222 33.7799 70.195C33.5095 70.0598 33.275 69.9048 33.0762 69.7298C32.8774 69.547 32.7183 69.3323 32.5991 69.0858C32.4878 68.8393 32.4321 68.5411 32.4321 68.1912C32.4321 67.4676 32.6786 66.9031 33.1716 66.4976C33.6646 66.092 34.3444 65.8893 35.2111 65.8893C35.7121 65.8893 36.1653 65.9449 36.5709 66.0562C36.9843 66.1596 37.2865 66.2749 37.4773 66.4021L37.1076 67.3444C36.9406 67.241 36.6901 67.1416 36.3562 67.0462C36.0302 66.9428 35.6485 66.8912 35.2111 66.8912C34.9885 66.8912 34.7818 66.915 34.5909 66.9627C34.4001 67.0104 34.2331 67.082 34.09 67.1774C33.9469 67.2728 33.8316 67.3961 33.7441 67.5472C33.6646 67.6903 33.6248 67.8612 33.6248 68.06C33.6248 68.2827 33.6686 68.4695 33.756 68.6206C33.8435 68.7717 33.9667 68.9069 34.1258 69.0261C34.2848 69.1375 34.4677 69.2408 34.6744 69.3362C34.8891 69.4317 35.1237 69.5271 35.3781 69.6225C35.7359 69.7656 36.062 69.9088 36.3562 70.0519C36.6583 70.195 36.9167 70.366 37.1314 70.5648C37.3541 70.7635 37.525 71.0021 37.6443 71.2804C37.7636 71.5507 37.8232 71.8807 37.8232 72.2704C37.8232 72.9939 37.5568 73.5506 37.0241 73.9402C36.4993 74.3298 35.7558 74.5246 34.7937 74.5246C34.4677 74.5246 34.1655 74.5008 33.8872 74.453C33.6169 74.4133 33.3743 74.3656 33.1597 74.3099C32.945 74.2463 32.7581 74.1827 32.5991 74.1191C32.448 74.0475 32.3287 73.9879 32.2413 73.9402L32.5871 72.986C32.77 73.0894 33.0483 73.2047 33.4221 73.3319C33.7958 73.4591 34.253 73.5227 34.7937 73.5227ZM40.1875 68.1435H42.5372V69.0738H40.1875V71.9364C40.1875 72.2465 40.2114 72.5049 40.2591 72.7117C40.3068 72.9105 40.3784 73.0695 40.4738 73.1888C40.5692 73.3001 40.6885 73.3796 40.8316 73.4273C40.9747 73.475 41.1417 73.4989 41.3325 73.4989C41.6665 73.4989 41.9329 73.4631 42.1317 73.3915C42.3384 73.312 42.4815 73.2563 42.561 73.2245L42.7757 74.1429C42.6644 74.1986 42.4696 74.2662 42.1913 74.3457C41.913 74.4332 41.5949 74.4769 41.2371 74.4769C40.8157 74.4769 40.4658 74.4252 40.1875 74.3218C39.9172 74.2105 39.6985 74.0475 39.5315 73.8328C39.3645 73.6181 39.2453 73.3557 39.1737 73.0456C39.1101 72.7276 39.0783 72.3618 39.0783 71.9483V66.4141L40.1875 66.2232V68.1435ZM46.0479 73.5466C46.3103 73.5466 46.5409 73.5426 46.7397 73.5346C46.9464 73.5187 47.1174 73.4949 47.2526 73.4631V71.6144C47.1731 71.5746 47.0419 71.5428 46.859 71.5189C46.684 71.4871 46.4693 71.4712 46.2149 71.4712C46.0479 71.4712 45.869 71.4832 45.6782 71.507C45.4953 71.5309 45.3243 71.5826 45.1653 71.6621C45.0142 71.7336 44.887 71.837 44.7836 71.9722C44.6803 72.0994 44.6286 72.2704 44.6286 72.485C44.6286 72.8826 44.7558 73.1609 45.0102 73.32C45.2647 73.471 45.6106 73.5466 46.0479 73.5466ZM45.9525 67.9885C46.3978 67.9885 46.7715 68.0481 47.0737 68.1674C47.3838 68.2787 47.6303 68.4417 47.8132 68.6564C48.004 68.8631 48.1392 69.1136 48.2187 69.4078C48.2982 69.6941 48.338 70.0121 48.338 70.362V74.2384C48.2425 74.2543 48.1074 74.2781 47.9324 74.3099C47.7654 74.3338 47.5746 74.3576 47.3599 74.3815C47.1452 74.4053 46.9107 74.4252 46.6562 74.4411C46.4097 74.465 46.1632 74.4769 45.9167 74.4769C45.5668 74.4769 45.2448 74.4411 44.9506 74.3696C44.6564 74.298 44.4019 74.1867 44.1873 74.0356C43.9726 73.8766 43.8056 73.6698 43.6863 73.4154C43.567 73.1609 43.5074 72.8548 43.5074 72.497C43.5074 72.1551 43.575 71.8609 43.7102 71.6144C43.8533 71.3679 44.0441 71.1691 44.2827 71.018C44.5212 70.8669 44.7995 70.7556 45.1176 70.684C45.4356 70.6125 45.7696 70.5767 46.1195 70.5767C46.2308 70.5767 46.3461 70.5846 46.4654 70.6005C46.5846 70.6085 46.696 70.6244 46.7993 70.6482C46.9107 70.6642 47.0061 70.6801 47.0856 70.696C47.1651 70.7119 47.2208 70.7238 47.2526 70.7317V70.4216C47.2526 70.2387 47.2327 70.0598 47.1929 69.8849C47.1532 69.702 47.0816 69.543 46.9782 69.4078C46.8749 69.2647 46.7317 69.1534 46.5489 69.0738C46.3739 68.9864 46.1433 68.9426 45.8571 68.9426C45.4913 68.9426 45.1693 68.9705 44.891 69.0261C44.6206 69.0738 44.4179 69.1255 44.2827 69.1812L44.1515 68.2628C44.2946 68.1992 44.5331 68.1395 44.8671 68.0839C45.2011 68.0203 45.5629 67.9885 45.9525 67.9885ZM52.4703 68.0123C52.5657 68.0123 52.673 68.0203 52.7923 68.0362C52.9195 68.0441 53.0428 68.06 53.1621 68.0839C53.2813 68.0998 53.3887 68.1197 53.4841 68.1435C53.5875 68.1594 53.663 68.1753 53.7107 68.1912L53.5199 69.1573C53.4324 69.1255 53.2853 69.0898 53.0786 69.05C52.8798 69.0023 52.6214 68.9784 52.3033 68.9784C52.0966 68.9784 51.8898 69.0023 51.6831 69.05C51.4843 69.0898 51.3531 69.1176 51.2895 69.1335V74.3457H50.1802V68.4059C50.4426 68.3105 50.7687 68.223 51.1583 68.1435C51.5479 68.0561 51.9852 68.0123 52.4703 68.0123ZM55.8188 68.1435H58.1684V69.0738H55.8188V71.9364C55.8188 72.2465 55.8426 72.5049 55.8903 72.7117C55.938 72.9105 56.0096 73.0695 56.105 73.1888C56.2004 73.3001 56.3197 73.3796 56.4628 73.4273C56.606 73.475 56.773 73.4989 56.9638 73.4989C57.2978 73.4989 57.5641 73.4631 57.7629 73.3915C57.9697 73.312 58.1128 73.2563 58.1923 73.2245L58.407 74.1429C58.2957 74.1986 58.1009 74.2662 57.8226 74.3457C57.5443 74.4332 57.2262 74.4769 56.8684 74.4769C56.4469 74.4769 56.0971 74.4252 55.8188 74.3218C55.5484 74.2105 55.3298 74.0475 55.1628 73.8328C54.9958 73.6181 54.8765 73.3557 54.805 73.0456C54.7413 72.7276 54.7095 72.3618 54.7095 71.9483V66.4141L55.8188 66.2232V68.1435Z" fill="#414652"/>
<path d="M62.1628 89.1878C62.1628 93.5793 58.6028 97.1394 54.2113 97.1394C49.8198 97.1394 46.2598 93.5793 46.2598 89.1878C46.2598 84.7963 49.8198 81.2363 54.2113 81.2363C58.6028 81.2363 62.1628 84.7963 62.1628 89.1878Z" fill="#FF444F"/>
<path d="M296.268 131.994V123.729H301.313V124.719H297.425V127.176H300.884V128.142H297.425V131.004H301.611V131.994H296.268ZM303.01 125.971C303.265 125.907 303.603 125.84 304.024 125.768C304.446 125.697 304.931 125.661 305.479 125.661C305.972 125.661 306.382 125.732 306.708 125.875C307.034 126.011 307.292 126.205 307.483 126.46C307.682 126.706 307.821 127.005 307.9 127.354C307.98 127.704 308.02 128.09 308.02 128.511V131.994H306.911V128.75C306.911 128.368 306.883 128.042 306.827 127.772C306.779 127.502 306.696 127.283 306.577 127.116C306.457 126.949 306.298 126.83 306.099 126.758C305.901 126.679 305.654 126.639 305.36 126.639C305.241 126.639 305.117 126.643 304.99 126.651C304.863 126.659 304.74 126.671 304.62 126.687C304.509 126.694 304.406 126.706 304.31 126.722C304.223 126.738 304.159 126.75 304.12 126.758V131.994H303.01V125.971ZM313.867 127.104C313.732 126.993 313.537 126.885 313.282 126.782C313.028 126.679 312.75 126.627 312.447 126.627C312.129 126.627 311.855 126.687 311.624 126.806C311.402 126.917 311.219 127.076 311.076 127.283C310.933 127.482 310.829 127.72 310.766 127.999C310.702 128.277 310.67 128.575 310.67 128.893C310.67 129.617 310.849 130.177 311.207 130.575C311.565 130.964 312.042 131.159 312.638 131.159C312.94 131.159 313.191 131.147 313.39 131.123C313.596 131.092 313.755 131.06 313.867 131.028V127.104ZM313.867 122.929L314.976 122.739V131.815C314.722 131.887 314.395 131.958 313.998 132.03C313.6 132.101 313.143 132.137 312.626 132.137C312.149 132.137 311.72 132.062 311.338 131.911C310.956 131.76 310.63 131.545 310.36 131.267C310.09 130.988 309.879 130.65 309.728 130.253C309.585 129.847 309.513 129.394 309.513 128.893C309.513 128.416 309.573 127.979 309.692 127.581C309.819 127.183 310.002 126.842 310.241 126.555C310.479 126.269 310.77 126.046 311.112 125.887C311.461 125.728 311.859 125.649 312.304 125.649C312.662 125.649 312.976 125.697 313.246 125.792C313.525 125.887 313.732 125.979 313.867 126.066V122.929Z" fill="#414652"/>
<path d="M288.284 127.952C288.284 132.343 284.724 135.903 280.332 135.903C275.941 135.903 272.381 132.343 272.381 127.952C272.381 123.56 275.941 120 280.332 120C284.724 120 288.284 123.56 288.284 127.952Z" fill="#FF444F"/>
<defs>
<filter id="filter0_d_2591_34322" x="0.0977015" y="0.175427" width="341.805" height="227.502" filterUnits="userSpaceOnUse" color-interpolation-filters="sRGB">
<feFlood flood-opacity="0" result="BackgroundImageFix"/>
<feColorMatrix in="SourceAlpha" type="matrix" values="0 0 0 0 0 0 0 0 0 0 0 0 0 0 0 0 0 0 127 0" result="hardAlpha"/>
<feOffset dy="1.38046"/>
<feGaussianBlur stdDeviation="3.45115"/>
<feComposite in2="hardAlpha" operator="out"/>
<feColorMatrix type="matrix" values="0 0 0 0 0 0 0 0 0 0 0 0 0 0 0 0 0 0 0.1 0"/>
<feBlend mode="normal" in2="BackgroundImageFix" result="effect1_dropShadow_2591_34322"/>
<feBlend mode="normal" in="SourceGraphic" in2="effect1_dropShadow_2591_34322" result="shape"/>
</filter>
</defs>
</svg>
