<svg width="342" height="228" viewBox="0 0 342 228" fill="none" xmlns="http://www.w3.org/2000/svg">
<g filter="url(#filter0_d_2591_34295)">
<rect x="7" y="5.69727" width="328" height="213.697" rx="4.14138" fill="white"/>
</g>
<path d="M36.6334 31.4224C36.6334 31.8955 36.689 32.3223 36.8003 32.7026C36.9209 33.083 37.0879 33.4123 37.3013 33.6906C37.5239 33.9596 37.793 34.1683 38.1084 34.3168C38.4238 34.4652 38.7856 34.5394 39.1938 34.5394C39.5927 34.5394 39.9498 34.4652 40.2652 34.3168C40.5899 34.1683 40.8589 33.9596 41.0723 33.6906C41.2949 33.4123 41.4619 33.083 41.5732 32.7026C41.6938 32.3223 41.7541 31.8955 41.7541 31.4224C41.7541 30.9493 41.6938 30.5226 41.5732 30.1422C41.4619 29.7526 41.2949 29.4233 41.0723 29.1542C40.8589 28.8759 40.5899 28.6626 40.2652 28.5142C39.9498 28.3657 39.5927 28.2915 39.1938 28.2915C38.7856 28.2915 38.4238 28.3704 38.1084 28.5281C37.793 28.6765 37.5239 28.8899 37.3013 29.1682C37.0879 29.4372 36.9209 29.7665 36.8003 30.1561C36.689 30.5365 36.6334 30.9586 36.6334 31.4224ZM43.9945 31.4224C43.9945 32.2481 43.8692 32.9763 43.6188 33.6071C43.3776 34.2286 43.0436 34.7528 42.6169 35.1795C42.1901 35.597 41.6799 35.9124 41.0862 36.1257C40.5018 36.3391 39.871 36.4458 39.1938 36.4458C38.5351 36.4458 37.9136 36.3391 37.3291 36.1257C36.7447 35.9124 36.2345 35.597 35.7985 35.1795C35.3624 34.7528 35.0192 34.2286 34.7687 33.6071C34.5183 32.9763 34.393 32.2481 34.393 31.4224C34.393 30.5968 34.5229 29.8732 34.7826 29.2517C35.0424 28.6208 35.3903 28.0921 35.8263 27.6653C36.2716 27.2386 36.7818 26.9185 37.357 26.7052C37.9414 26.4918 38.5537 26.3851 39.1938 26.3851C39.8524 26.3851 40.4739 26.4918 41.0584 26.7052C41.6428 26.9185 42.153 27.2386 42.589 27.6653C43.0251 28.0921 43.3683 28.6208 43.6188 29.2517C43.8692 29.8732 43.9945 30.5968 43.9945 31.4224ZM45.6648 29.1821C46.0174 29.08 46.4719 28.9873 47.0285 28.9038C47.5851 28.811 48.1696 28.7646 48.7818 28.7646C49.4034 28.7646 49.9182 28.8481 50.3264 29.0151C50.7439 29.1728 51.0732 29.4001 51.3144 29.6969C51.5556 29.9938 51.7272 30.3463 51.8293 30.7545C51.9313 31.1627 51.9823 31.6172 51.9823 32.1182V36.251H49.909V32.3686C49.909 31.7007 49.8208 31.2276 49.6446 30.9493C49.4683 30.671 49.139 30.5318 48.6566 30.5318C48.5082 30.5318 48.3505 30.5411 48.1835 30.5597C48.0165 30.569 47.8681 30.5829 47.7382 30.6014V36.251H45.6648V29.1821ZM56.7812 36.3901C56.1782 36.3809 55.6865 36.3159 55.3062 36.1953C54.9351 36.0747 54.6383 35.9077 54.4156 35.6944C54.2023 35.4717 54.0538 35.2073 53.9703 34.9012C53.8961 34.5858 53.859 34.2333 53.859 33.8437V25.7868L55.9324 25.4528V33.4262C55.9324 33.6117 55.9463 33.7787 55.9741 33.9271C56.0019 34.0756 56.053 34.2008 56.1272 34.3029C56.2107 34.4049 56.3266 34.4884 56.4751 34.5533C56.6235 34.6183 56.8229 34.66 57.0734 34.6786L56.7812 36.3901ZM64.6108 28.9316C64.1933 30.3417 63.7573 31.6636 63.3027 32.8974C62.8482 34.1312 62.3519 35.3279 61.8138 36.4875C61.619 36.905 61.4242 37.2575 61.2294 37.5451C61.0346 37.8419 60.8212 38.0831 60.5893 38.2687C60.3574 38.4635 60.093 38.6026 59.7961 38.6861C59.5085 38.7789 59.1699 38.8253 58.7803 38.8253C58.4556 38.8253 58.1541 38.7928 57.8758 38.7279C57.6068 38.6722 57.3842 38.6073 57.2079 38.5331L57.5697 36.8772C57.7831 36.9514 57.9732 37.0024 58.1402 37.0302C58.3072 37.0581 58.4834 37.072 58.669 37.072C59.0401 37.072 59.323 36.9699 59.5178 36.7658C59.7219 36.571 59.8935 36.2974 60.0327 35.9448C59.5596 35.0172 59.0864 33.9782 58.6133 32.8278C58.1402 31.6683 57.6949 30.3695 57.2775 28.9316H59.4761C59.5688 29.2934 59.6755 29.6877 59.7961 30.1144C59.926 30.5318 60.0605 30.9586 60.1997 31.3946C60.3388 31.8213 60.478 32.2388 60.6171 32.647C60.7655 33.0551 60.9047 33.4262 61.0346 33.7602C61.1552 33.4262 61.2804 33.0551 61.4103 32.647C61.5401 32.2388 61.6654 31.8213 61.786 31.3946C61.9159 30.9586 62.0365 30.5318 62.1478 30.1144C62.2684 29.6877 62.3751 29.2934 62.4678 28.9316H64.6108ZM71.375 34.4838C71.4771 34.493 71.593 34.5023 71.7229 34.5116C71.8621 34.5116 72.0244 34.5116 72.2099 34.5116C73.2953 34.5116 74.0978 34.2379 74.6173 33.6906C75.146 33.1433 75.4104 32.3872 75.4104 31.4224C75.4104 30.4113 75.16 29.6459 74.659 29.1264C74.1581 28.6069 73.3649 28.3472 72.2795 28.3472C72.1311 28.3472 71.978 28.3518 71.8203 28.3611C71.6626 28.3611 71.5142 28.3704 71.375 28.3889V34.4838ZM77.6508 31.4224C77.6508 32.2573 77.5209 32.9856 77.2611 33.6071C77.0014 34.2286 76.6303 34.7435 76.1479 35.1517C75.6748 35.5599 75.095 35.866 74.4085 36.0701C73.7221 36.2742 72.9521 36.3762 72.0986 36.3762C71.709 36.3762 71.2544 36.3577 70.7349 36.3206C70.2154 36.2927 69.7052 36.2278 69.2043 36.1257V26.733C69.7052 26.6402 70.2247 26.5799 70.7628 26.5521C71.3101 26.515 71.7786 26.4965 72.1682 26.4965C72.9938 26.4965 73.7406 26.5892 74.4085 26.7748C75.0857 26.9603 75.6655 27.2525 76.1479 27.6514C76.6303 28.0503 77.0014 28.5605 77.2611 29.1821C77.5209 29.8036 77.6508 30.5504 77.6508 31.4224ZM86.1711 32.5774C86.1711 33.1525 86.0876 33.6813 85.9206 34.1637C85.7536 34.6368 85.5124 35.045 85.197 35.3882C84.8816 35.7222 84.5013 35.982 84.056 36.1675C83.62 36.353 83.1283 36.4458 82.581 36.4458C82.0429 36.4458 81.5513 36.353 81.106 36.1675C80.67 35.982 80.2943 35.7222 79.9788 35.3882C79.6634 35.045 79.4176 34.6368 79.2413 34.1637C79.0651 33.6813 78.977 33.1525 78.977 32.5774C78.977 32.0022 79.0651 31.4781 79.2413 31.005C79.4269 30.5318 79.6773 30.1283 79.9928 29.7943C80.3174 29.4604 80.6978 29.2006 81.1338 29.0151C81.5791 28.8296 82.0615 28.7368 82.581 28.7368C83.1098 28.7368 83.5921 28.8296 84.0282 29.0151C84.4734 29.2006 84.8538 29.4604 85.1692 29.7943C85.4846 30.1283 85.7304 30.5318 85.9067 31.005C86.083 31.4781 86.1711 32.0022 86.1711 32.5774ZM84.056 32.5774C84.056 31.9373 83.9261 31.4363 83.6664 31.0745C83.4159 30.7035 83.0541 30.5179 82.581 30.5179C82.1079 30.5179 81.7414 30.7035 81.4817 31.0745C81.2219 31.4363 81.0921 31.9373 81.0921 32.5774C81.0921 33.2175 81.2219 33.7277 81.4817 34.108C81.7414 34.4791 82.1079 34.6646 82.581 34.6646C83.0541 34.6646 83.4159 34.4791 83.6664 34.108C83.9261 33.7277 84.056 33.2175 84.056 32.5774ZM92.067 32.0486C91.8814 32.7536 91.682 33.454 91.4686 34.1498C91.2645 34.8455 91.0465 35.5459 90.8146 36.251H89.2005C89.0335 35.8614 88.8526 35.3975 88.6578 34.8595C88.463 34.3214 88.2589 33.737 88.0455 33.1062C87.8414 32.4661 87.628 31.7935 87.4054 31.0885C87.192 30.3741 86.9833 29.6552 86.7792 28.9316H88.9639C89.0381 29.2656 89.117 29.632 89.2005 30.0309C89.2932 30.4205 89.386 30.8241 89.4788 31.2415C89.5808 31.659 89.6828 32.0811 89.7849 32.5078C89.8962 32.9253 90.0075 33.3288 90.1189 33.7184C90.2395 33.3102 90.3554 32.8928 90.4667 32.4661C90.5873 32.0393 90.6987 31.6219 90.8007 31.2137C90.912 30.7962 91.0141 30.3973 91.1068 30.017C91.2089 29.6274 91.297 29.2656 91.3712 28.9316H92.8741C92.9483 29.2656 93.0318 29.6274 93.1245 30.017C93.2173 30.3973 93.3147 30.7962 93.4167 31.2137C93.5188 31.6219 93.6255 32.0393 93.7368 32.4661C93.8481 32.8928 93.9641 33.3102 94.0847 33.7184C94.196 33.3288 94.3073 32.9253 94.4186 32.5078C94.53 32.0811 94.632 31.659 94.7248 31.2415C94.8268 30.8241 94.9196 30.4205 95.0031 30.0309C95.0958 29.632 95.1793 29.2656 95.2535 28.9316H97.4104C97.2063 29.6552 96.9929 30.3741 96.7703 31.0885C96.5569 31.7935 96.3436 32.4661 96.1302 33.1062C95.9261 33.737 95.722 34.3214 95.5179 34.8595C95.3231 35.3975 95.1422 35.8614 94.9752 36.251H93.3611C93.1292 35.5459 92.9019 34.8455 92.6792 34.1498C92.4566 33.454 92.2525 32.7536 92.067 32.0486ZM98.5261 29.1821C98.8786 29.08 99.3332 28.9873 99.8898 28.9038C100.446 28.811 101.031 28.7646 101.643 28.7646C102.265 28.7646 102.78 28.8481 103.188 29.0151C103.605 29.1728 103.934 29.4001 104.176 29.6969C104.417 29.9938 104.588 30.3463 104.691 30.7545C104.793 31.1627 104.844 31.6172 104.844 32.1182V36.251H102.77V32.3686C102.77 31.7007 102.682 31.2276 102.506 30.9493C102.33 30.671 102 30.5318 101.518 30.5318C101.369 30.5318 101.212 30.5411 101.045 30.5597C100.878 30.569 100.729 30.5829 100.599 30.6014V36.251H98.5261V29.1821ZM108.821 34.7621C109.202 34.7621 109.471 34.7249 109.629 34.6507C109.786 34.5765 109.865 34.4327 109.865 34.2194C109.865 34.0524 109.763 33.9086 109.559 33.788C109.355 33.6581 109.044 33.5143 108.627 33.3566C108.302 33.236 108.005 33.1108 107.736 32.9809C107.476 32.851 107.254 32.698 107.068 32.5217C106.883 32.3362 106.739 32.1182 106.637 31.8677C106.535 31.6172 106.484 31.3157 106.484 30.9632C106.484 30.2767 106.739 29.734 107.249 29.3351C107.759 28.9362 108.46 28.7368 109.35 28.7368C109.796 28.7368 110.222 28.7785 110.63 28.862C111.039 28.9362 111.363 29.0197 111.605 29.1125L111.243 30.7267C111.002 30.6432 110.737 30.569 110.45 30.504C110.171 30.4391 109.856 30.4066 109.503 30.4066C108.854 30.4066 108.529 30.5875 108.529 30.9493C108.529 31.0328 108.543 31.107 108.571 31.1719C108.599 31.2369 108.654 31.3018 108.738 31.3668C108.821 31.4224 108.933 31.4874 109.072 31.5616C109.22 31.6265 109.406 31.7007 109.629 31.7842C110.083 31.9512 110.459 32.1182 110.756 32.2852C111.053 32.4429 111.284 32.6191 111.451 32.8139C111.628 32.9995 111.748 33.2082 111.813 33.4401C111.887 33.672 111.925 33.9411 111.925 34.2472C111.925 34.9708 111.651 35.5181 111.104 35.8892C110.566 36.2603 109.8 36.4458 108.808 36.4458C108.158 36.4458 107.615 36.3901 107.179 36.2788C106.753 36.1675 106.456 36.0747 106.289 36.0005L106.637 34.3168C106.989 34.4559 107.351 34.5672 107.722 34.6507C108.093 34.7249 108.46 34.7621 108.821 34.7621Z" fill="#414652"/>
<rect x="7.51245" y="56.5818" width="326.975" height="162.301" stroke="#ECECEC" stroke-width="1.0249"/>
<path d="M7 109.859H335" stroke="#ECECEC" stroke-width="1.0249"/>
<path d="M7 83.4531H335" stroke="#ECECEC" stroke-width="1.0249"/>
<path d="M7 136.265H335" stroke="#ECECEC" stroke-width="1.0249"/>
<path d="M7 162.671H335" stroke="#ECECEC" stroke-width="1.0249"/>
<path d="M7 189.077H335" stroke="#ECECEC" stroke-width="1.0249"/>
<path d="M62.1777 56.0693L62.1777 219.395" stroke="#ECECEC" stroke-width="1.0249"/>
<path d="M116.334 56.0693L116.334 219.395" stroke="#ECECEC" stroke-width="1.0249"/>
<path d="M170.49 56.0693L170.49 219.395" stroke="#ECECEC" stroke-width="1.0249"/>
<path d="M224.646 56.0693L224.646 219.395" stroke="#ECECEC" stroke-width="1.0249"/>
<path d="M278.801 56.0693L278.801 219.395" stroke="#ECECEC" stroke-width="1.0249"/>
<path d="M7 56.832H335" stroke="#ECECEC" stroke-width="1.5302"/>
<path d="M53.7168 89.1885L107.39 92.6673L135.717 124.473L188.396 143.855L227.656 175.661L276.359 185.601" stroke="#A8A8A8" stroke-width="2.98182"/>
<rect x="143.17" y="13.6484" width="81.503" height="33.7939" rx="15.903" fill="#00A79E"/>
<path d="M175.693 26.7556C175.82 27.1903 175.958 27.6833 176.106 28.2346C176.265 28.7753 176.429 29.3372 176.599 29.9203C176.779 30.5034 176.959 31.0866 177.14 31.6697C177.32 32.2528 177.495 32.7935 177.665 33.2918C177.802 32.7511 177.94 32.1627 178.078 31.5265C178.226 30.8904 178.364 30.2331 178.491 29.5546C178.619 28.876 178.741 28.2028 178.857 27.5349C178.984 26.8564 179.101 26.2043 179.207 25.5788H181.783C181.412 27.4236 180.983 29.2948 180.495 31.1926C180.018 33.0903 179.499 34.8927 178.937 36.5996H176.663C176.292 35.5818 175.931 34.5163 175.581 33.4031C175.231 32.2793 174.887 31.1555 174.548 30.0317C174.208 31.1555 173.869 32.2793 173.53 33.4031C173.19 34.5163 172.835 35.5818 172.464 36.5996H170.19C169.628 34.8927 169.103 33.0903 168.616 31.1926C168.139 29.2948 167.715 27.4236 167.343 25.5788H170.031C170.137 26.2043 170.254 26.8564 170.381 27.5349C170.508 28.2028 170.641 28.876 170.779 29.5546C170.916 30.2331 171.054 30.8904 171.192 31.5265C171.34 32.1627 171.489 32.7511 171.637 33.2918C171.828 32.7723 172.014 32.221 172.194 31.6379C172.374 31.0548 172.549 30.4716 172.719 29.8885C172.888 29.3054 173.042 28.7435 173.18 28.2028C173.328 27.6621 173.461 27.1797 173.577 26.7556H175.693ZM185.588 36.5996H183.219V28.2346H185.588V36.5996ZM185.811 25.8174C185.811 26.252 185.668 26.5966 185.381 26.8511C185.106 27.0949 184.777 27.2168 184.395 27.2168C184.014 27.2168 183.68 27.0949 183.393 26.8511C183.118 26.5966 182.98 26.252 182.98 25.8174C182.98 25.3827 183.118 25.0434 183.393 24.7996C183.68 24.5451 184.014 24.4179 184.395 24.4179C184.777 24.4179 185.106 24.5451 185.381 24.7996C185.668 25.0434 185.811 25.3827 185.811 25.8174ZM187.815 28.5209C188.218 28.4042 188.738 28.2982 189.374 28.2028C190.01 28.0968 190.678 28.0438 191.378 28.0438C192.088 28.0438 192.677 28.1392 193.143 28.33C193.62 28.5103 193.996 28.77 194.272 29.1093C194.548 29.4485 194.744 29.8514 194.861 30.3179C194.977 30.7844 195.035 31.3039 195.035 31.8764V36.5996H192.666V32.1627C192.666 31.3993 192.565 30.8586 192.364 30.5406C192.162 30.2225 191.786 30.0635 191.235 30.0635C191.065 30.0635 190.885 30.0741 190.694 30.0953C190.503 30.1059 190.333 30.1218 190.185 30.143V36.5996H187.815V28.5209ZM199.613 28.4255C199.613 29.2842 199.582 30.0847 199.518 30.8268C199.454 31.569 199.37 32.3217 199.264 33.085H197.451C197.345 32.3217 197.254 31.569 197.18 30.8268C197.117 30.0847 197.085 29.2842 197.085 28.4255V25.5788H199.613V28.4255ZM199.82 35.3433C199.82 35.8098 199.666 36.1702 199.359 36.4247C199.062 36.6791 198.723 36.8063 198.341 36.8063C197.96 36.8063 197.615 36.6791 197.307 36.4247C197.011 36.1702 196.862 35.8098 196.862 35.3433C196.862 34.8768 197.011 34.5163 197.307 34.2619C197.615 34.0074 197.96 33.8802 198.341 33.8802C198.723 33.8802 199.062 34.0074 199.359 34.2619C199.666 34.5163 199.82 34.8768 199.82 35.3433Z" fill="white"/>
<path d="M34.7956 73.5227C36.0043 73.5227 36.6086 73.1092 36.6086 72.2823C36.6086 72.0278 36.5529 71.8131 36.4416 71.6382C36.3382 71.4553 36.1951 71.3003 36.0122 71.173C35.8293 71.0379 35.6186 70.9226 35.3801 70.8272C35.1495 70.7317 34.903 70.6363 34.6406 70.5409C34.3384 70.4375 34.0522 70.3222 33.7818 70.195C33.5115 70.0598 33.2769 69.9048 33.0781 69.7298C32.8793 69.547 32.7203 69.3323 32.601 69.0858C32.4897 68.8393 32.434 68.5411 32.434 68.1912C32.434 67.4676 32.6805 66.9031 33.1735 66.4976C33.6665 66.092 34.3464 65.8893 35.2131 65.8893C35.714 65.8893 36.1673 65.9449 36.5728 66.0562C36.9863 66.1596 37.2884 66.2749 37.4793 66.4021L37.1095 67.3444C36.9426 67.241 36.6921 67.1416 36.3581 67.0462C36.0321 66.9428 35.6504 66.8912 35.2131 66.8912C34.9905 66.8912 34.7837 66.915 34.5929 66.9627C34.402 67.0104 34.2351 67.082 34.0919 67.1774C33.9488 67.2728 33.8335 67.3961 33.746 67.5472C33.6665 67.6903 33.6268 67.8612 33.6268 68.06C33.6268 68.2827 33.6705 68.4695 33.758 68.6206C33.8454 68.7717 33.9687 68.9069 34.1277 69.0261C34.2867 69.1375 34.4696 69.2408 34.6764 69.3362C34.8911 69.4317 35.1256 69.5271 35.3801 69.6225C35.7379 69.7656 36.0639 69.9088 36.3581 70.0519C36.6603 70.195 36.9187 70.366 37.1334 70.5648C37.356 70.7635 37.527 71.0021 37.6463 71.2804C37.7655 71.5507 37.8252 71.8807 37.8252 72.2704C37.8252 72.9939 37.5588 73.5506 37.026 73.9402C36.5012 74.3298 35.7578 74.5246 34.7956 74.5246C34.4696 74.5246 34.1675 74.5008 33.8892 74.453C33.6188 74.4133 33.3763 74.3656 33.1616 74.3099C32.9469 74.2463 32.7601 74.1827 32.601 74.1191C32.4499 74.0475 32.3307 73.9879 32.2432 73.9402L32.5891 72.986C32.772 73.0894 33.0503 73.2047 33.424 73.3319C33.7977 73.4591 34.2549 73.5227 34.7956 73.5227ZM40.1895 68.1435H42.5391V69.0738H40.1895V71.9364C40.1895 72.2465 40.2133 72.5049 40.261 72.7117C40.3087 72.9105 40.3803 73.0695 40.4757 73.1888C40.5711 73.3001 40.6904 73.3796 40.8335 73.4273C40.9767 73.475 41.1437 73.4989 41.3345 73.4989C41.6685 73.4989 41.9348 73.4631 42.1336 73.3915C42.3404 73.312 42.4835 73.2563 42.563 73.2245L42.7777 74.1429C42.6664 74.1986 42.4716 74.2662 42.1933 74.3457C41.915 74.4332 41.5969 74.4769 41.2391 74.4769C40.8176 74.4769 40.4678 74.4252 40.1895 74.3218C39.9191 74.2105 39.7005 74.0475 39.5335 73.8328C39.3665 73.6181 39.2472 73.3557 39.1757 73.0456C39.112 72.7276 39.0802 72.3618 39.0802 71.9483V66.4141L40.1895 66.2232V68.1435ZM46.0499 73.5466C46.3123 73.5466 46.5429 73.5426 46.7416 73.5346C46.9484 73.5187 47.1193 73.4949 47.2545 73.4631V71.6144C47.175 71.5746 47.0438 71.5428 46.8609 71.5189C46.686 71.4871 46.4713 71.4712 46.2168 71.4712C46.0499 71.4712 45.871 71.4832 45.6801 71.507C45.4972 71.5309 45.3263 71.5826 45.1672 71.6621C45.0162 71.7336 44.8889 71.837 44.7856 71.9722C44.6822 72.0994 44.6305 72.2704 44.6305 72.485C44.6305 72.8826 44.7577 73.1609 45.0122 73.32C45.2666 73.471 45.6125 73.5466 46.0499 73.5466ZM45.9544 67.9885C46.3997 67.9885 46.7735 68.0481 47.0756 68.1674C47.3857 68.2787 47.6322 68.4417 47.8151 68.6564C48.0059 68.8631 48.1411 69.1136 48.2206 69.4078C48.3001 69.6941 48.3399 70.0121 48.3399 70.362V74.2384C48.2445 74.2543 48.1093 74.2781 47.9344 74.3099C47.7674 74.3338 47.5766 74.3576 47.3619 74.3815C47.1472 74.4053 46.9126 74.4252 46.6582 74.4411C46.4117 74.465 46.1652 74.4769 45.9187 74.4769C45.5688 74.4769 45.2468 74.4411 44.9526 74.3696C44.6584 74.298 44.4039 74.1867 44.1892 74.0356C43.9745 73.8766 43.8075 73.6698 43.6883 73.4154C43.569 73.1609 43.5094 72.8548 43.5094 72.497C43.5094 72.1551 43.5769 71.8609 43.7121 71.6144C43.8552 71.3679 44.0461 71.1691 44.2846 71.018C44.5232 70.8669 44.8015 70.7556 45.1195 70.684C45.4376 70.6125 45.7716 70.5767 46.1214 70.5767C46.2328 70.5767 46.348 70.5846 46.4673 70.6005C46.5866 70.6085 46.6979 70.6244 46.8013 70.6482C46.9126 70.6642 47.008 70.6801 47.0875 70.696C47.1671 70.7119 47.2227 70.7238 47.2545 70.7317V70.4216C47.2545 70.2387 47.2346 70.0598 47.1949 69.8849C47.1551 69.702 47.0836 69.543 46.9802 69.4078C46.8768 69.2647 46.7337 69.1534 46.5508 69.0738C46.3759 68.9864 46.1453 68.9426 45.859 68.9426C45.4933 68.9426 45.1712 68.9705 44.8929 69.0261C44.6226 69.0738 44.4198 69.1255 44.2846 69.1812L44.1534 68.2628C44.2966 68.1992 44.5351 68.1395 44.8691 68.0839C45.203 68.0203 45.5648 67.9885 45.9544 67.9885ZM52.4722 68.0123C52.5677 68.0123 52.675 68.0203 52.7943 68.0362C52.9215 68.0441 53.0447 68.06 53.164 68.0839C53.2833 68.0998 53.3906 68.1197 53.4861 68.1435C53.5894 68.1594 53.665 68.1753 53.7127 68.1912L53.5218 69.1573C53.4344 69.1255 53.2873 69.0898 53.0805 69.05C52.8817 69.0023 52.6233 68.9784 52.3053 68.9784C52.0985 68.9784 51.8918 69.0023 51.685 69.05C51.4863 69.0898 51.3551 69.1176 51.2914 69.1335V74.3457H50.1822V68.4059C50.4446 68.3105 50.7706 68.223 51.1602 68.1435C51.5499 68.0561 51.9872 68.0123 52.4722 68.0123ZM55.8207 68.1435H58.1704V69.0738H55.8207V71.9364C55.8207 72.2465 55.8446 72.5049 55.8923 72.7117C55.94 72.9105 56.0116 73.0695 56.107 73.1888C56.2024 73.3001 56.3217 73.3796 56.4648 73.4273C56.6079 73.475 56.7749 73.4989 56.9657 73.4989C57.2997 73.4989 57.5661 73.4631 57.7649 73.3915C57.9716 73.312 58.1147 73.2563 58.1943 73.2245L58.4089 74.1429C58.2976 74.1986 58.1028 74.2662 57.8245 74.3457C57.5462 74.4332 57.2281 74.4769 56.8703 74.4769C56.4489 74.4769 56.099 74.4252 55.8207 74.3218C55.5504 74.2105 55.3317 74.0475 55.1647 73.8328C54.9977 73.6181 54.8785 73.3557 54.8069 73.0456C54.7433 72.7276 54.7115 72.3618 54.7115 71.9483V66.4141L55.8207 66.2232V68.1435Z" fill="#414652"/>
<path d="M62.1647 89.1878C62.1647 93.5793 58.6047 97.1394 54.2132 97.1394C49.8217 97.1394 46.2617 93.5793 46.2617 89.1878C46.2617 84.7963 49.8217 81.2363 54.2132 81.2363C58.6047 81.2363 62.1647 84.7963 62.1647 89.1878Z" fill="#FF444F"/>
<path d="M291.299 184.673V176.407H296.344V177.397H292.456V179.854H295.915V180.82H292.456V183.683H296.643V184.673H291.299ZM298.042 178.65C298.296 178.586 298.634 178.518 299.055 178.447C299.477 178.375 299.962 178.339 300.51 178.339C301.003 178.339 301.413 178.411 301.739 178.554C302.065 178.689 302.323 178.884 302.514 179.139C302.713 179.385 302.852 179.683 302.932 180.033C303.011 180.383 303.051 180.769 303.051 181.19V184.673H301.942V181.429C301.942 181.047 301.914 180.721 301.858 180.451C301.811 180.18 301.727 179.962 301.608 179.795C301.489 179.628 301.329 179.508 301.131 179.437C300.932 179.357 300.685 179.318 300.391 179.318C300.272 179.318 300.149 179.321 300.021 179.329C299.894 179.337 299.771 179.349 299.652 179.365C299.54 179.373 299.437 179.385 299.342 179.401C299.254 179.417 299.191 179.429 299.151 179.437V184.673H298.042V178.65ZM308.898 179.783C308.763 179.671 308.568 179.564 308.314 179.461C308.059 179.357 307.781 179.306 307.479 179.306C307.161 179.306 306.886 179.365 306.656 179.484C306.433 179.596 306.25 179.755 306.107 179.962C305.964 180.16 305.86 180.399 305.797 180.677C305.733 180.956 305.701 181.254 305.701 181.572C305.701 182.295 305.88 182.856 306.238 183.254C306.596 183.643 307.073 183.838 307.669 183.838C307.972 183.838 308.222 183.826 308.421 183.802C308.628 183.77 308.787 183.739 308.898 183.707V179.783ZM308.898 175.608L310.007 175.417V184.494C309.753 184.566 309.427 184.637 309.029 184.709C308.632 184.78 308.174 184.816 307.658 184.816C307.18 184.816 306.751 184.74 306.369 184.589C305.988 184.438 305.662 184.224 305.391 183.945C305.121 183.667 304.91 183.329 304.759 182.931C304.616 182.526 304.545 182.073 304.545 181.572C304.545 181.095 304.604 180.657 304.723 180.26C304.851 179.862 305.034 179.52 305.272 179.234C305.511 178.948 305.801 178.725 306.143 178.566C306.493 178.407 306.89 178.328 307.335 178.328C307.693 178.328 308.007 178.375 308.278 178.471C308.556 178.566 308.763 178.658 308.898 178.745V175.608Z" fill="#414652"/>
<path d="M283.315 180.63C283.315 185.022 279.755 188.582 275.364 188.582C270.972 188.582 267.412 185.022 267.412 180.63C267.412 176.239 270.972 172.679 275.364 172.679C279.755 172.679 283.315 176.239 283.315 180.63Z" fill="#FF444F"/>
<defs>
<filter id="filter0_d_2591_34295" x="0.0977015" y="0.175427" width="341.805" height="227.502" filterUnits="userSpaceOnUse" color-interpolation-filters="sRGB">
<feFlood flood-opacity="0" result="BackgroundImageFix"/>
<feColorMatrix in="SourceAlpha" type="matrix" values="0 0 0 0 0 0 0 0 0 0 0 0 0 0 0 0 0 0 127 0" result="hardAlpha"/>
<feOffset dy="1.38046"/>
<feGaussianBlur stdDeviation="3.45115"/>
<feComposite in2="hardAlpha" operator="out"/>
<feColorMatrix type="matrix" values="0 0 0 0 0 0 0 0 0 0 0 0 0 0 0 0 0 0 0.1 0"/>
<feBlend mode="normal" in2="BackgroundImageFix" result="effect1_dropShadow_2591_34295"/>
<feBlend mode="normal" in="SourceGraphic" in2="effect1_dropShadow_2591_34295" result="shape"/>
</filter>
</defs>
</svg>
