<svg width="342" height="228" viewBox="0 0 342 228" fill="none" xmlns="http://www.w3.org/2000/svg">
<g filter="url(#filter0_d_2599_38450)">
<rect x="7" y="6" width="328" height="213.697" rx="4.14138" fill="white"/>
</g>
<path d="M41.9619 26.9095V28.7602H39.0536V36.5527H36.8829V28.7602H33.9746V26.9095H41.9619ZM49.0177 32.8791C49.0177 33.4543 48.9343 33.9831 48.7673 34.4655C48.6003 34.9386 48.3591 35.3468 48.0437 35.69C47.7283 36.024 47.3479 36.2837 46.9026 36.4692C46.4666 36.6548 45.975 36.7475 45.4276 36.7475C44.8896 36.7475 44.3979 36.6548 43.9526 36.4692C43.5166 36.2837 43.1409 36.024 42.8255 35.69C42.5101 35.3468 42.2643 34.9386 42.088 34.4655C41.9117 33.9831 41.8236 33.4543 41.8236 32.8791C41.8236 32.304 41.9117 31.7798 42.088 31.3067C42.2735 30.8336 42.524 30.4301 42.8394 30.0961C43.1641 29.7621 43.5444 29.5024 43.9805 29.3169C44.4257 29.1313 44.9081 29.0386 45.4276 29.0386C45.9564 29.0386 46.4388 29.1313 46.8748 29.3169C47.3201 29.5024 47.7004 29.7621 48.0158 30.0961C48.3313 30.4301 48.5771 30.8336 48.7534 31.3067C48.9296 31.7798 49.0177 32.304 49.0177 32.8791ZM46.9026 32.8791C46.9026 32.239 46.7728 31.7381 46.513 31.3763C46.2625 31.0052 45.9007 30.8197 45.4276 30.8197C44.9545 30.8197 44.5881 31.0052 44.3283 31.3763C44.0686 31.7381 43.9387 32.239 43.9387 32.8791C43.9387 33.5192 44.0686 34.0295 44.3283 34.4098C44.5881 34.7809 44.9545 34.9664 45.4276 34.9664C45.9007 34.9664 46.2625 34.7809 46.513 34.4098C46.7728 34.0295 46.9026 33.5192 46.9026 32.8791ZM56.8718 36.3023C56.5192 36.4043 56.0647 36.4971 55.5081 36.5806C54.9515 36.6733 54.367 36.7197 53.7548 36.7197C53.1332 36.7197 52.6137 36.6362 52.1963 36.4692C51.7881 36.3023 51.4634 36.0703 51.2222 35.7735C50.981 35.4674 50.8094 35.1056 50.7073 34.6881C50.6053 34.2706 50.5543 33.8114 50.5543 33.3105V29.2334H52.6276V33.06C52.6276 33.728 52.7158 34.2104 52.892 34.5072C53.0683 34.8041 53.3976 34.9525 53.88 34.9525C54.0284 34.9525 54.1861 34.9479 54.3531 34.9386C54.5201 34.92 54.6685 34.9015 54.7984 34.8829V29.2334H56.8718V36.3023ZM58.4702 32.893C58.4702 32.3643 58.5536 31.868 58.7206 31.4041C58.8969 30.931 59.1474 30.5228 59.472 30.1796C59.7967 29.8271 60.191 29.5488 60.6548 29.3447C61.1187 29.1406 61.6474 29.0386 62.2412 29.0386C62.6308 29.0386 62.9879 29.0757 63.3126 29.1499C63.6373 29.2148 63.9527 29.3122 64.2589 29.4421L63.8275 31.098C63.6327 31.0238 63.4193 30.9588 63.1874 30.9032C62.9555 30.8475 62.6957 30.8197 62.4081 30.8197C61.7959 30.8197 61.3367 31.0099 61.0305 31.3902C60.7337 31.7706 60.5853 32.2715 60.5853 32.893C60.5853 33.5517 60.7244 34.0619 61.0027 34.4237C61.2903 34.7855 61.7866 34.9664 62.4916 34.9664C62.7421 34.9664 63.0111 34.9432 63.2987 34.8968C63.5863 34.8504 63.8507 34.7762 64.0919 34.6742L64.3841 36.3718C64.1429 36.4739 63.8414 36.562 63.4796 36.6362C63.1178 36.7104 62.7189 36.7475 62.2829 36.7475C61.615 36.7475 61.0398 36.6501 60.5574 36.4553C60.075 36.2512 59.6761 35.9776 59.3607 35.6343C59.0546 35.2911 58.8273 34.8876 58.6789 34.4237C58.5397 33.9506 58.4702 33.4404 58.4702 32.893ZM65.7756 36.5527V26.0885L67.849 25.7546V29.2612C67.9881 29.2148 68.1644 29.1731 68.3777 29.136C68.6004 29.0896 68.8137 29.0664 69.0178 29.0664C69.6115 29.0664 70.1032 29.1499 70.4928 29.3169C70.8917 29.4746 71.2072 29.7018 71.4391 29.9987C71.6803 30.2956 71.8472 30.6481 71.94 31.0562C72.0421 31.4644 72.0931 31.919 72.0931 32.4199V36.5527H70.0197V32.6704C70.0197 32.0025 69.9316 31.5294 69.7553 31.2511C69.5884 30.9728 69.2729 30.8336 68.8091 30.8336C68.6236 30.8336 68.4473 30.8522 68.2803 30.8893C68.1226 30.9171 67.9788 30.9496 67.849 30.9867V36.5527H65.7756Z" fill="#414652"/>
<rect x="7.51245" y="56.8845" width="326.975" height="162.301" stroke="#ECECEC" stroke-width="1.0249"/>
<path d="M7 110.162H335" stroke="#ECECEC" stroke-width="1.0249"/>
<path d="M7 83.7559H335" stroke="#ECECEC" stroke-width="1.0249"/>
<path d="M7 136.567H335" stroke="#ECECEC" stroke-width="1.0249"/>
<path d="M7 162.974H335" stroke="#ECECEC" stroke-width="1.0249"/>
<path d="M7 189.38H335" stroke="#ECECEC" stroke-width="1.0249"/>
<path d="M62.1768 56.3721L62.1767 219.698" stroke="#ECECEC" stroke-width="1.0249"/>
<path d="M116.333 56.3721L116.333 219.698" stroke="#ECECEC" stroke-width="1.0249"/>
<path d="M170.489 56.3721L170.489 219.698" stroke="#ECECEC" stroke-width="1.0249"/>
<path d="M224.646 56.3721L224.645 219.698" stroke="#ECECEC" stroke-width="1.0249"/>
<path d="M278.802 56.3721L278.802 219.698" stroke="#ECECEC" stroke-width="1.0249"/>
<path d="M7 57.1348H335" stroke="#ECECEC" stroke-width="1.5302"/>
<path d="M39.3037 178.946L91.4855 135.213L135.716 173.48L179.946 129.746L223.679 162.546L270.395 125.771" stroke="#A8A8A8" stroke-width="2.98182"/>
<path d="M271.843 56.3721L271.843 219.698" stroke="#7D7D7D" stroke-width="2.98182"/>
<line x1="7.99414" y1="109.981" x2="334.469" y2="109.981" stroke="black" stroke-width="0.765102"/>
<path d="M24.6269 94.1769H22.5198L22.649 93.5905H27.5491L27.41 94.1769H25.3028L23.792 100.479H23.1161L24.6269 94.1769ZM30.2229 95.8965C30.1036 95.8699 29.9943 95.8501 29.8949 95.8368C29.7955 95.8236 29.6928 95.8169 29.5868 95.8169C29.1759 95.8169 28.8115 95.8965 28.4934 96.0555C28.1754 96.2145 27.907 96.4232 27.6883 96.6817C27.4697 96.9401 27.3007 97.235 27.1814 97.5663C27.0688 97.8976 27.0125 98.2355 27.0125 98.5801C27.0125 98.8518 27.039 99.0804 27.092 99.2659C27.145 99.4448 27.2179 99.5906 27.3106 99.7032C27.4034 99.8093 27.5094 99.8888 27.6287 99.9418C27.7546 99.9882 27.8871 100.011 28.0263 100.011C28.298 100.011 28.5531 99.9484 28.7916 99.8225C29.0302 99.69 29.2554 99.5045 29.4675 99.2659C29.4675 99.087 29.494 98.8816 29.547 98.6497C29.6 98.4177 29.6497 98.209 29.6961 98.0235L30.2229 95.8965ZM29.6464 100.538C29.6066 100.459 29.5702 100.369 29.5371 100.27C29.5106 100.164 29.4907 100.058 29.4774 99.9517C29.2455 100.177 29.0003 100.343 28.7419 100.449C28.4901 100.555 28.2284 100.608 27.9567 100.608C27.7447 100.608 27.5426 100.571 27.3504 100.498C27.1582 100.426 26.9893 100.313 26.8435 100.16C26.6977 100.008 26.5784 99.8126 26.4857 99.574C26.3995 99.3289 26.3565 99.0406 26.3565 98.7093C26.3565 98.1792 26.4426 97.6988 26.6149 97.2681C26.7872 96.8374 27.0257 96.4729 27.3305 96.1748C27.642 95.8699 28.0064 95.6347 28.4239 95.4691C28.8479 95.3034 29.3085 95.2206 29.8054 95.2206C30.2163 95.2206 30.6105 95.2902 30.9882 95.4293L30.2229 98.5205C30.1831 98.6861 30.15 98.8418 30.1235 98.9876C30.097 99.1334 30.0837 99.2725 30.0837 99.4051C30.0837 99.584 30.1003 99.7529 30.1334 99.912C30.1666 100.071 30.2262 100.247 30.3123 100.439L29.6464 100.538ZM32.5732 95.5685C32.825 95.4691 33.0999 95.3862 33.3981 95.32C33.7029 95.2537 34.0011 95.2206 34.2927 95.2206C34.4451 95.2206 34.5909 95.2305 34.73 95.2504C34.8692 95.2703 35.0017 95.3034 35.1276 95.3498L34.9586 95.9362C34.7002 95.8567 34.4351 95.8169 34.1635 95.8169C33.9912 95.8169 33.8189 95.8302 33.6466 95.8567C33.4743 95.8832 33.3021 95.923 33.1298 95.976L32.0464 100.479H31.4003L32.5732 95.5685ZM39.0375 95.8865C38.8255 95.8335 38.62 95.807 38.4213 95.807C37.964 95.807 37.5665 95.8865 37.2285 96.0455C36.8972 96.2046 36.6222 96.41 36.4036 96.6618C36.1849 96.907 36.0225 97.1819 35.9165 97.4868C35.8105 97.7849 35.7575 98.0732 35.7575 98.3515C35.7575 98.5304 35.7741 98.7027 35.8072 98.8683C35.8403 99.0274 35.8966 99.1665 35.9762 99.2858C36.0557 99.4051 36.165 99.5011 36.3042 99.574C36.4433 99.6403 36.6222 99.6734 36.8409 99.6734C37.0662 99.6734 37.2981 99.6337 37.5366 99.5542C37.7818 99.468 38.0137 99.3554 38.2324 99.2162L39.0375 95.8865ZM34.5846 101.363C34.7238 101.476 34.9226 101.569 35.181 101.641C35.4461 101.714 35.7078 101.751 35.9662 101.751C36.5758 101.751 37.043 101.612 37.3677 101.333C37.699 101.055 37.9143 100.661 38.0137 100.151L38.0634 99.8921C37.8646 100.018 37.6526 100.114 37.4273 100.18C37.202 100.24 36.9767 100.27 36.7514 100.27C36.4665 100.27 36.218 100.223 36.006 100.131C35.8006 100.038 35.6316 99.912 35.4991 99.7529C35.3665 99.5873 35.2672 99.3984 35.2009 99.1864C35.1346 98.9677 35.1015 98.7358 35.1015 98.4906C35.1015 98.1129 35.1678 97.7319 35.3003 97.3476C35.4394 96.9567 35.6515 96.6055 35.9364 96.294C36.2213 95.976 36.5758 95.7175 36.9999 95.5188C37.4306 95.32 37.9408 95.2206 38.5306 95.2206C38.7691 95.2206 38.9944 95.2471 39.2065 95.3001C39.4185 95.3465 39.6074 95.4161 39.773 95.5088L38.6598 100.141C38.5935 100.419 38.5074 100.691 38.4014 100.956C38.2954 101.221 38.1396 101.456 37.9342 101.661C37.7288 101.867 37.4538 102.032 37.1093 102.158C36.7713 102.284 36.334 102.347 35.7973 102.347C35.6912 102.347 35.572 102.337 35.4394 102.317C35.3069 102.304 35.1711 102.281 35.0319 102.248C34.8994 102.215 34.7702 102.175 34.6443 102.128C34.5184 102.089 34.4057 102.039 34.3063 101.979L34.5846 101.363ZM44.7269 96.5425C44.7269 96.9136 44.6342 97.2151 44.4486 97.447C44.2697 97.6789 44.0146 97.8645 43.6833 98.0036C43.3586 98.1361 42.9644 98.2322 42.5005 98.2918C42.0433 98.3515 41.5331 98.3946 40.9699 98.4211V98.6298C40.9699 98.8219 40.9897 99.0009 41.0295 99.1665C41.0692 99.3322 41.1421 99.4779 41.2482 99.6038C41.3542 99.7231 41.5 99.8192 41.6855 99.8921C41.8777 99.965 42.1228 100.001 42.421 100.001C42.6529 100.001 42.8848 99.9683 43.1168 99.902C43.3553 99.8358 43.5806 99.7364 43.7926 99.6038L43.8622 100.2C43.6369 100.326 43.3884 100.422 43.1168 100.488C42.8451 100.561 42.5701 100.598 42.2918 100.598C41.9273 100.598 41.6192 100.551 41.3674 100.459C41.1223 100.366 40.9202 100.237 40.7611 100.071C40.6087 99.9053 40.4994 99.7066 40.4331 99.4746C40.3669 99.2427 40.3337 98.9876 40.3337 98.7093C40.3337 98.2852 40.3967 97.8645 40.5226 97.447C40.6551 97.0295 40.8473 96.6552 41.0991 96.3238C41.3509 95.9925 41.659 95.7275 42.0234 95.5287C42.3945 95.3233 42.8153 95.2206 43.2857 95.2206C43.7496 95.2206 44.1041 95.3432 44.3492 95.5883C44.601 95.8269 44.7269 96.1449 44.7269 96.5425ZM43.2261 95.807C42.961 95.807 42.7126 95.8633 42.4806 95.976C42.2487 96.082 42.04 96.2278 41.8545 96.4133C41.6689 96.5988 41.5066 96.8142 41.3674 97.0594C41.2349 97.3045 41.1355 97.563 41.0692 97.8346C41.6325 97.8214 42.1063 97.7849 42.4906 97.7253C42.8749 97.6657 43.183 97.5828 43.4149 97.4768C43.6535 97.3708 43.8225 97.2449 43.9219 97.0991C44.0212 96.9467 44.0709 96.7744 44.0709 96.5823C44.0709 96.3238 43.9914 96.1317 43.8324 96.0058C43.68 95.8733 43.4779 95.807 43.2261 95.807ZM46.5785 93.8291L47.2543 93.7098L46.8667 95.3398H48.6757L48.5465 95.8965H46.7276L46.1213 98.4111C46.0881 98.5304 46.0583 98.6596 46.0318 98.7988C46.0119 98.9313 46.002 99.0638 46.002 99.1963C46.002 99.4945 46.0749 99.7032 46.2206 99.8225C46.3664 99.9418 46.5486 100.001 46.7673 100.001C46.9794 100.001 47.1616 99.9782 47.314 99.9318C47.473 99.8855 47.6387 99.8225 47.811 99.743L47.8706 100.329C47.6917 100.402 47.4896 100.465 47.2643 100.518C47.0456 100.571 46.827 100.598 46.6083 100.598C46.436 100.598 46.2737 100.578 46.1213 100.538C45.9689 100.498 45.833 100.432 45.7137 100.339C45.6011 100.247 45.5083 100.124 45.4354 99.9716C45.3692 99.8192 45.336 99.627 45.336 99.3951C45.336 99.1102 45.3824 98.7822 45.4752 98.4111L46.5785 93.8291Z" fill="#414652" fill-opacity="0.6"/>
<rect x="143.17" y="13.9512" width="82.497" height="33.7939" rx="15.903" fill="#CC2E3D"/>
<path d="M175.66 34.7713V36.9023H168.297V25.8815H170.778V34.7713H175.66ZM184.923 32.7039C184.923 33.3613 184.827 33.9656 184.637 34.5169C184.446 35.0576 184.17 35.5241 183.81 35.9164C183.449 36.298 183.015 36.5949 182.506 36.8069C182.007 37.019 181.445 37.125 180.82 37.125C180.205 37.125 179.643 37.019 179.134 36.8069C178.636 36.5949 178.207 36.298 177.846 35.9164C177.486 35.5241 177.205 35.0576 177.003 34.5169C176.802 33.9656 176.701 33.3613 176.701 32.7039C176.701 32.0466 176.802 31.4476 177.003 30.9069C177.215 30.3662 177.501 29.905 177.862 29.5233C178.233 29.1417 178.668 28.8448 179.166 28.6328C179.675 28.4207 180.226 28.3147 180.82 28.3147C181.424 28.3147 181.976 28.4207 182.474 28.6328C182.983 28.8448 183.417 29.1417 183.778 29.5233C184.138 29.905 184.419 30.3662 184.621 30.9069C184.822 31.4476 184.923 32.0466 184.923 32.7039ZM182.506 32.7039C182.506 31.9724 182.357 31.3999 182.06 30.9864C181.774 30.5623 181.361 30.3503 180.82 30.3503C180.279 30.3503 179.86 30.5623 179.564 30.9864C179.267 31.3999 179.118 31.9724 179.118 32.7039C179.118 33.4355 179.267 34.0186 179.564 34.4533C179.86 34.8774 180.279 35.0894 180.82 35.0894C181.361 35.0894 181.774 34.8774 182.06 34.4533C182.357 34.0186 182.506 33.4355 182.506 32.7039ZM189.16 35.2007C189.595 35.2007 189.902 35.1583 190.082 35.0735C190.262 34.9887 190.353 34.8243 190.353 34.5805C190.353 34.3897 190.236 34.2253 190.003 34.0875C189.769 33.9391 189.414 33.7747 188.937 33.5945C188.566 33.4567 188.227 33.3136 187.919 33.1651C187.623 33.0167 187.368 32.8418 187.156 32.6403C186.944 32.4283 186.78 32.1791 186.663 31.8929C186.546 31.6066 186.488 31.2621 186.488 30.8592C186.488 30.0746 186.78 29.4544 187.363 28.9985C187.946 28.5427 188.746 28.3147 189.764 28.3147C190.273 28.3147 190.761 28.3624 191.227 28.4578C191.694 28.5427 192.065 28.6381 192.34 28.7441L191.927 30.5888C191.651 30.4934 191.349 30.4086 191.02 30.3344C190.702 30.2602 190.342 30.2231 189.939 30.2231C189.197 30.2231 188.826 30.4298 188.826 30.8433C188.826 30.9387 188.842 31.0235 188.874 31.0977C188.905 31.172 188.969 31.2462 189.064 31.3204C189.16 31.384 189.287 31.4582 189.446 31.543C189.616 31.6172 189.828 31.7021 190.082 31.7975C190.602 31.9883 191.031 32.1791 191.37 32.37C191.71 32.5502 191.975 32.7517 192.165 32.9743C192.367 33.1863 192.505 33.4249 192.579 33.6899C192.664 33.955 192.706 34.2624 192.706 34.6123C192.706 35.4393 192.393 36.0648 191.768 36.4889C191.153 36.9129 190.278 37.125 189.144 37.125C188.402 37.125 187.782 37.0614 187.283 36.9341C186.796 36.8069 186.456 36.7009 186.265 36.6161L186.663 34.6918C187.066 34.8509 187.479 34.9781 187.903 35.0735C188.328 35.1583 188.746 35.2007 189.16 35.2007ZM196.878 35.2007C197.313 35.2007 197.621 35.1583 197.801 35.0735C197.981 34.9887 198.071 34.8243 198.071 34.5805C198.071 34.3897 197.954 34.2253 197.721 34.0875C197.488 33.9391 197.133 33.7747 196.656 33.5945C196.285 33.4567 195.945 33.3136 195.638 33.1651C195.341 33.0167 195.087 32.8418 194.875 32.6403C194.663 32.4283 194.498 32.1791 194.382 31.8929C194.265 31.6066 194.207 31.2621 194.207 30.8592C194.207 30.0746 194.498 29.4544 195.081 28.9985C195.664 28.5427 196.465 28.3147 197.483 28.3147C197.992 28.3147 198.479 28.3624 198.946 28.4578C199.412 28.5427 199.783 28.6381 200.059 28.7441L199.646 30.5888C199.37 30.4934 199.068 30.4086 198.739 30.3344C198.421 30.2602 198.061 30.2231 197.658 30.2231C196.915 30.2231 196.544 30.4298 196.544 30.8433C196.544 30.9387 196.56 31.0235 196.592 31.0977C196.624 31.172 196.688 31.2462 196.783 31.3204C196.878 31.384 197.006 31.4582 197.165 31.543C197.334 31.6172 197.546 31.7021 197.801 31.7975C198.32 31.9883 198.75 32.1791 199.089 32.37C199.428 32.5502 199.693 32.7517 199.884 32.9743C200.085 33.1863 200.223 33.4249 200.298 33.6899C200.382 33.955 200.425 34.2624 200.425 34.6123C200.425 35.4393 200.112 36.0648 199.486 36.4889C198.872 36.9129 197.997 37.125 196.862 37.125C196.12 37.125 195.5 37.0614 195.002 36.9341C194.514 36.8069 194.175 36.7009 193.984 36.6161L194.382 34.6918C194.784 34.8509 195.198 34.9781 195.622 35.0735C196.046 35.1583 196.465 35.2007 196.878 35.2007Z" fill="white"/>
<path d="M18.8923 159.304C20.101 159.304 20.7053 158.89 20.7053 158.064C20.7053 157.809 20.6496 157.594 20.5383 157.419C20.4349 157.237 20.2918 157.082 20.1089 156.954C19.926 156.819 19.7153 156.704 19.4768 156.608C19.2462 156.513 18.9997 156.418 18.7373 156.322C18.4351 156.219 18.1489 156.103 17.8785 155.976C17.6082 155.841 17.3736 155.686 17.1748 155.511C16.976 155.328 16.817 155.114 16.6977 154.867C16.5864 154.621 16.5307 154.322 16.5307 153.972C16.5307 153.249 16.7772 152.684 17.2702 152.279C17.7632 151.873 18.4431 151.671 19.3098 151.671C19.8107 151.671 20.264 151.726 20.6695 151.837C21.083 151.941 21.3851 152.056 21.576 152.183L21.2062 153.126C21.0392 153.022 20.7888 152.923 20.4548 152.827C20.1288 152.724 19.7471 152.672 19.3098 152.672C19.0871 152.672 18.8804 152.696 18.6896 152.744C18.4987 152.792 18.3317 152.863 18.1886 152.959C18.0455 153.054 17.9302 153.177 17.8427 153.328C17.7632 153.472 17.7235 153.642 17.7235 153.841C17.7235 154.064 17.7672 154.251 17.8547 154.402C17.9421 154.553 18.0654 154.688 18.2244 154.807C18.3834 154.919 18.5663 155.022 18.7731 155.117C18.9877 155.213 19.2223 155.308 19.4768 155.404C19.8346 155.547 20.1606 155.69 20.4548 155.833C20.757 155.976 21.0154 156.147 21.2301 156.346C21.4527 156.545 21.6237 156.783 21.7429 157.062C21.8622 157.332 21.9219 157.662 21.9219 158.052C21.9219 158.775 21.6555 159.332 21.1227 159.721C20.5979 160.111 19.8545 160.306 18.8923 160.306C18.5663 160.306 18.2642 160.282 17.9859 160.234C17.7155 160.195 17.473 160.147 17.2583 160.091C17.0436 160.028 16.8567 159.964 16.6977 159.9C16.5466 159.829 16.4274 159.769 16.3399 159.721L16.6858 158.767C16.8687 158.871 17.147 158.986 17.5207 159.113C17.8944 159.24 18.3516 159.304 18.8923 159.304ZM24.2862 153.925H26.6358V154.855H24.2862V157.718C24.2862 158.028 24.31 158.286 24.3577 158.493C24.4054 158.692 24.477 158.851 24.5724 158.97C24.6678 159.081 24.7871 159.161 24.9302 159.209C25.0734 159.256 25.2403 159.28 25.4312 159.28C25.7651 159.28 26.0315 159.244 26.2303 159.173C26.437 159.093 26.5802 159.038 26.6597 159.006L26.8744 159.924C26.7631 159.98 26.5682 160.047 26.2899 160.127C26.0116 160.214 25.6936 160.258 25.3358 160.258C24.9143 160.258 24.5645 160.206 24.2862 160.103C24.0158 159.992 23.7971 159.829 23.6302 159.614C23.4632 159.399 23.3439 159.137 23.2723 158.827C23.2087 158.509 23.1769 158.143 23.1769 157.73V152.195L24.2862 152.004V153.925ZM30.1465 159.328C30.4089 159.328 30.6395 159.324 30.8383 159.316C31.0451 159.3 31.216 159.276 31.3512 159.244V157.396C31.2717 157.356 31.1405 157.324 30.9576 157.3C30.7827 157.268 30.568 157.252 30.3135 157.252C30.1465 157.252 29.9676 157.264 29.7768 157.288C29.5939 157.312 29.423 157.364 29.2639 157.443C29.1128 157.515 28.9856 157.618 28.8823 157.753C28.7789 157.881 28.7272 158.052 28.7272 158.266C28.7272 158.664 28.8544 158.942 29.1089 159.101C29.3633 159.252 29.7092 159.328 30.1465 159.328ZM30.0511 153.77C30.4964 153.77 30.8701 153.829 31.1723 153.949C31.4824 154.06 31.7289 154.223 31.9118 154.438C32.1026 154.644 32.2378 154.895 32.3173 155.189C32.3968 155.475 32.4366 155.793 32.4366 156.143V160.02C32.3412 160.036 32.206 160.059 32.0311 160.091C31.8641 160.115 31.6732 160.139 31.4585 160.163C31.2439 160.187 31.0093 160.206 30.7548 160.222C30.5083 160.246 30.2618 160.258 30.0153 160.258C29.6655 160.258 29.3434 160.222 29.0492 160.151C28.755 160.079 28.5006 159.968 28.2859 159.817C28.0712 159.658 27.9042 159.451 27.7849 159.197C27.6657 158.942 27.606 158.636 27.606 158.278C27.606 157.936 27.6736 157.642 27.8088 157.396C27.9519 157.149 28.1428 156.95 28.3813 156.799C28.6199 156.648 28.8982 156.537 29.2162 156.465C29.5343 156.394 29.8682 156.358 30.2181 156.358C30.3294 156.358 30.4447 156.366 30.564 156.382C30.6833 156.39 30.7946 156.406 30.898 156.429C31.0093 156.445 31.1047 156.461 31.1842 156.477C31.2637 156.493 31.3194 156.505 31.3512 156.513V156.203C31.3512 156.02 31.3313 155.841 31.2916 155.666C31.2518 155.483 31.1802 155.324 31.0769 155.189C30.9735 155.046 30.8304 154.935 30.6475 154.855C30.4726 154.768 30.242 154.724 29.9557 154.724C29.5899 154.724 29.2679 154.752 28.9896 154.807C28.7192 154.855 28.5165 154.907 28.3813 154.962L28.2501 154.044C28.3932 153.98 28.6318 153.921 28.9657 153.865C29.2997 153.802 29.6615 153.77 30.0511 153.77ZM36.5689 153.794C36.6643 153.794 36.7717 153.802 36.891 153.817C37.0182 153.825 37.1414 153.841 37.2607 153.865C37.38 153.881 37.4873 153.901 37.5827 153.925C37.6861 153.941 37.7616 153.957 37.8094 153.972L37.6185 154.939C37.5311 154.907 37.3839 154.871 37.1772 154.831C36.9784 154.784 36.72 154.76 36.4019 154.76C36.1952 154.76 35.9885 154.784 35.7817 154.831C35.5829 154.871 35.4517 154.899 35.3881 154.915V160.127H34.2789V154.187C34.5413 154.092 34.8673 154.004 35.2569 153.925C35.6465 153.837 36.0839 153.794 36.5689 153.794ZM39.9174 153.925H42.2671V154.855H39.9174V157.718C39.9174 158.028 39.9413 158.286 39.989 158.493C40.0367 158.692 40.1082 158.851 40.2037 158.97C40.2991 159.081 40.4184 159.161 40.5615 159.209C40.7046 159.256 40.8716 159.28 41.0624 159.28C41.3964 159.28 41.6628 159.244 41.8616 159.173C42.0683 159.093 42.2114 159.038 42.2909 159.006L42.5056 159.924C42.3943 159.98 42.1995 160.047 41.9212 160.127C41.6429 160.214 41.3248 160.258 40.967 160.258C40.5456 160.258 40.1957 160.206 39.9174 160.103C39.6471 159.992 39.4284 159.829 39.2614 159.614C39.0944 159.399 38.9752 159.137 38.9036 158.827C38.84 158.509 38.8082 158.143 38.8082 157.73V152.195L39.9174 152.004V153.925Z" fill="#414652"/>
<path d="M46.2614 174.969C46.2614 179.361 42.7014 182.921 38.3099 182.921C33.9184 182.921 30.3584 179.361 30.3584 174.969C30.3584 170.578 33.9184 167.018 38.3099 167.018C42.7014 167.018 46.2614 170.578 46.2614 174.969Z" fill="#FF444F"/>
<path d="M279.34 126.266C279.34 130.657 275.78 134.217 271.388 134.217C266.997 134.217 263.437 130.657 263.437 126.266C263.437 121.874 266.997 118.314 271.388 118.314C275.78 118.314 279.34 121.874 279.34 126.266Z" fill="#FF444F"/>
<path d="M286.328 124.345V116.079H291.374V117.069H287.485V119.526H290.944V120.492H287.485V123.355H291.672V124.345H286.328ZM293.071 118.321C293.325 118.258 293.663 118.19 294.085 118.119C294.506 118.047 294.991 118.011 295.54 118.011C296.033 118.011 296.442 118.083 296.768 118.226C297.094 118.361 297.353 118.556 297.544 118.81C297.742 119.057 297.882 119.355 297.961 119.705C298.041 120.055 298.08 120.441 298.08 120.862V124.345H296.971V121.101C296.971 120.719 296.943 120.393 296.888 120.122C296.84 119.852 296.756 119.633 296.637 119.466C296.518 119.299 296.359 119.18 296.16 119.109C295.961 119.029 295.715 118.989 295.421 118.989C295.301 118.989 295.178 118.993 295.051 119.001C294.924 119.009 294.8 119.021 294.681 119.037C294.57 119.045 294.466 119.057 294.371 119.073C294.283 119.089 294.22 119.101 294.18 119.109V124.345H293.071V118.321ZM303.927 119.455C303.792 119.343 303.597 119.236 303.343 119.133C303.088 119.029 302.81 118.977 302.508 118.977C302.19 118.977 301.916 119.037 301.685 119.156C301.462 119.268 301.279 119.427 301.136 119.633C300.993 119.832 300.89 120.071 300.826 120.349C300.763 120.627 300.731 120.926 300.731 121.244C300.731 121.967 300.91 122.528 301.267 122.925C301.625 123.315 302.102 123.51 302.699 123.51C303.001 123.51 303.251 123.498 303.45 123.474C303.657 123.442 303.816 123.41 303.927 123.379V119.455ZM303.927 115.28L305.037 115.089V124.166C304.782 124.237 304.456 124.309 304.058 124.381C303.661 124.452 303.204 124.488 302.687 124.488C302.21 124.488 301.78 124.412 301.399 124.261C301.017 124.11 300.691 123.895 300.421 123.617C300.15 123.339 299.94 123.001 299.789 122.603C299.645 122.198 299.574 121.745 299.574 121.244C299.574 120.767 299.633 120.329 299.753 119.932C299.88 119.534 300.063 119.192 300.301 118.906C300.54 118.62 300.83 118.397 301.172 118.238C301.522 118.079 301.92 117.999 302.365 117.999C302.723 117.999 303.037 118.047 303.307 118.143C303.585 118.238 303.792 118.329 303.927 118.417V115.28Z" fill="#414652"/>
<defs>
<filter id="filter0_d_2599_38450" x="0.0977015" y="0.478161" width="341.805" height="227.502" filterUnits="userSpaceOnUse" color-interpolation-filters="sRGB">
<feFlood flood-opacity="0" result="BackgroundImageFix"/>
<feColorMatrix in="SourceAlpha" type="matrix" values="0 0 0 0 0 0 0 0 0 0 0 0 0 0 0 0 0 0 127 0" result="hardAlpha"/>
<feOffset dy="1.38046"/>
<feGaussianBlur stdDeviation="3.45115"/>
<feComposite in2="hardAlpha" operator="out"/>
<feColorMatrix type="matrix" values="0 0 0 0 0 0 0 0 0 0 0 0 0 0 0 0 0 0 0.1 0"/>
<feBlend mode="normal" in2="BackgroundImageFix" result="effect1_dropShadow_2599_38450"/>
<feBlend mode="normal" in="SourceGraphic" in2="effect1_dropShadow_2599_38450" result="shape"/>
</filter>
</defs>
</svg>
