<svg width="33" height="32" viewBox="0 0 33 32" fill="none" xmlns="http://www.w3.org/2000/svg">
<rect x="0.5" width="32" height="32" rx="16" fill="#F9F9F9"/>
<g clip-path="url(#clip0_2470_23420)">
<path d="M13.6992 11.2002H10.6992V11.2062C10.6992 11.8656 11.2338 12.4002 11.8932 12.4002H12.8532L7.69922 17.5518V19.2486L13.6992 13.2486V14.2086C13.7005 14.8671 14.2347 15.4002 14.8932 15.4002H14.8992V12.4002C14.8992 11.7375 14.362 11.2002 13.6992 11.2002Z" fill="#FF444F"/>
<path d="M6.14762 20.7996H5.29922V19.5996H6.49922H7.34762L6.49922 20.448L6.14762 20.7996Z" fill="#414652"/>
</g>
<g clip-path="url(#clip1_2470_23420)">
<path d="M27.6944 16.5999C27.035 16.5999 26.5004 17.1345 26.5004 17.7939V18.7539L20.5004 12.7539V14.4483L25.652 19.5999H24.692C24.0335 19.6012 23.5004 20.1354 23.5004 20.7939V20.7999H26.5004C27.1631 20.7999 27.7004 20.2626 27.7004 19.5999V16.5999H27.6944Z" fill="#FF444F"/>
<path d="M18.1004 12.4002V11.2002H18.9488L19.3004 11.5518L20.1488 12.4002H19.3004H18.1004Z" fill="#414652"/>
</g>
<defs>
<clipPath id="clip0_2470_23420">
<rect width="9.6" height="9.6" fill="white" transform="translate(5.3 11.2002)"/>
</clipPath>
<clipPath id="clip1_2470_23420">
<rect width="9.6" height="9.6" fill="white" transform="translate(18.1 11.2002)"/>
</clipPath>
</defs>
</svg>
