<svg width="24" height="16" viewBox="0 0 24 16" fill="none" xmlns="http://www.w3.org/2000/svg">
<g clip-path="url(#clip0_1015_4470)">
<mask id="mask0_1015_4470" style="mask-type:alpha" maskUnits="userSpaceOnUse" x="0" y="0" width="24" height="16">
<path d="M21.7143 0H2.28571C1.02335 0 0 0.955126 0 2.13333V13.8667C0 15.0449 1.02335 16 2.28571 16H21.7143C22.9767 16 24 15.0449 24 13.8667V2.13333C24 0.955126 22.9767 0 21.7143 0Z" fill="white"/>
</mask>
<g mask="url(#mask0_1015_4470)">
<path d="M21.7143 0H2.28571C1.02335 0 0 0.955126 0 2.13333V13.8667C0 15.0449 1.02335 16 2.28571 16H21.7143C22.9767 16 24 15.0449 24 13.8667V2.13333C24 0.955126 22.9767 0 21.7143 0Z" fill="#FFBF00"/>
<path fill-rule="evenodd" clip-rule="evenodd" d="M2.28613 2.1333H5.7147V13.8666H2.28613V2.1333Z" fill="#00614A"/>
<path fill-rule="evenodd" clip-rule="evenodd" d="M5.71484 2.1333H9.14342V13.8666H5.71484V2.1333Z" fill="#FF6600"/>
<path fill-rule="evenodd" clip-rule="evenodd" d="M10.2861 2.1333H21.7147V13.8666H10.2861V2.1333Z" fill="#98232E"/>
<path fill-rule="evenodd" clip-rule="evenodd" d="M14.3259 11.3233L14.3921 11.2764L14.4196 11.3233C14.4573 11.3873 14.5613 11.3852 14.6299 11.3233L14.6836 11.2732L14.7293 11.3212C14.7864 11.3852 14.8939 11.3852 14.9624 11.3212C15.0127 11.2764 15.0196 11.2753 15.0516 11.3105C15.0699 11.3297 15.1259 11.3532 15.175 11.3606C15.2641 11.3756 15.2664 11.3745 15.3179 11.2774C15.3636 11.1964 15.3693 11.1644 15.359 11.0854C15.3521 11.0321 15.3441 10.9489 15.3419 10.8988C15.3396 10.807 15.3396 10.806 15.447 10.7601C15.5041 10.7345 15.5727 10.7004 15.599 10.6833C15.6413 10.6556 15.759 10.4838 15.759 10.4486C15.759 10.4401 15.7133 10.4273 15.6561 10.4188C15.4333 10.3868 15.3956 10.2374 15.5419 9.9601C15.7784 9.50997 15.9213 9.06943 15.9224 8.7889C15.9224 8.6641 15.9281 8.62143 15.9419 8.65023C15.9944 8.7601 15.8996 9.22623 15.7556 9.56223L15.6984 9.6977L15.7533 9.6817C15.783 9.67103 15.9624 9.57823 16.1499 9.47263C16.6641 9.18463 16.8413 9.12703 17.175 9.1441C17.4539 9.15903 17.5727 9.22623 17.7693 9.4833C17.8744 9.61877 17.975 9.71583 18.1579 9.85877C18.551 10.1638 18.567 10.1894 18.5853 10.5478C18.6047 10.9105 18.5967 10.9318 18.3739 10.9916C18.1853 11.0428 18.0653 11.1516 18.0344 11.3041C18.0184 11.3862 18.0539 11.3894 18.1487 11.3126L18.2173 11.2572L18.2493 11.3126C18.2904 11.3873 18.3773 11.3873 18.4493 11.3126L18.503 11.2593L18.5579 11.3126C18.6447 11.398 18.7601 11.3788 18.7922 11.27C18.7979 11.2508 18.815 11.2572 18.8493 11.2934C18.9121 11.3617 19.0733 11.3916 19.0916 11.3361C19.0984 11.3169 19.0847 11.2668 19.063 11.2252C18.9693 11.0502 18.9396 10.966 18.9373 10.871C18.9373 10.7388 18.9681 10.6748 19.0904 10.566C19.239 10.4348 19.2847 10.2673 19.1727 10.2673C19.1041 10.2673 19.0333 10.1894 18.9899 10.0646C18.8984 9.81397 18.9156 9.5313 19.0516 9.06197C19.1887 8.58197 19.2047 8.49663 19.2059 8.17663C19.2059 7.91743 19.2024 7.87263 19.1544 7.73077C19.1259 7.64543 19.0664 7.5153 19.0241 7.4449L18.9476 7.3169L19.047 7.21237C19.3521 6.89877 19.2904 6.38463 18.9213 6.18837C18.8104 6.1265 18.7819 6.12117 18.5853 6.12437C18.4664 6.12437 18.2881 6.14357 18.1853 6.16703C18.0801 6.18837 17.9041 6.20757 17.783 6.20757C17.591 6.20757 17.559 6.2033 17.4859 6.15423C17.4081 6.10303 17.3944 6.07957 17.3796 5.96223C17.3773 5.93663 17.3636 5.91317 17.3499 5.9089C17.3236 5.89823 17.2013 6.02623 17.1853 6.08597C17.1761 6.1137 17.1681 6.11157 17.143 6.0753C17.1259 6.04863 17.1019 5.98997 17.0893 5.94517C17.0584 5.82997 17.0961 5.7425 17.2036 5.6785L17.2893 5.62943L17.2413 5.59103C17.1384 5.5121 16.9636 5.56543 16.9007 5.6977C16.8824 5.7329 16.863 5.76383 16.8573 5.76383C16.8516 5.76383 16.8173 5.72863 16.7819 5.68597C16.6493 5.52597 16.695 5.28703 16.8733 5.21343C16.967 5.17503 17.0504 5.2049 17.0676 5.28277C17.0939 5.40223 17.1773 5.24543 17.1624 5.10357C17.151 5.0097 17.151 5.00543 17.2047 5.00543C17.2779 5.00543 17.4333 5.1249 17.4824 5.21877C17.5396 5.32543 17.5339 5.4961 17.471 5.62197L17.4253 5.72117L17.487 5.70623C17.5784 5.68277 17.6699 5.61023 17.7156 5.5249C17.7636 5.43317 17.7693 5.25503 17.727 5.15797C17.6847 5.06517 17.6893 5.0513 17.7499 5.0833C17.855 5.13663 17.9099 5.19423 17.9521 5.29663C17.991 5.3873 17.9933 5.4097 17.9727 5.50463C17.9613 5.5633 17.9327 5.6401 17.911 5.6753C17.8767 5.73183 17.8767 5.74143 17.903 5.74143C17.9521 5.74143 18.0573 5.68277 18.0939 5.63477C18.1121 5.60917 18.1396 5.54943 18.1544 5.49823L18.1807 5.40863L18.2116 5.4769C18.255 5.5729 18.3373 5.66143 18.4401 5.71583C18.551 5.77557 18.5967 5.77983 18.5396 5.72437C18.5007 5.68703 18.4287 5.4257 18.4504 5.40117C18.4619 5.38623 18.6127 5.52917 18.7819 5.71903C18.9441 5.90037 19.0447 5.95797 19.1933 5.95797C19.3841 5.95797 19.4939 5.75317 19.4104 5.5601C19.359 5.44703 19.2481 5.4321 19.1841 5.5281C19.1544 5.5729 19.1464 5.6081 19.1544 5.65397C19.1659 5.71157 19.1613 5.71797 19.1201 5.71797C19.063 5.71797 18.9556 5.63263 18.7636 5.4321C18.4699 5.1281 18.1121 4.86997 17.855 4.7761C17.6893 4.71423 17.3361 4.69077 17.1693 4.72917C16.9864 4.7697 16.7693 4.89983 16.6527 5.0385C16.4447 5.28383 16.4424 5.60917 16.6447 5.90677L16.7019 5.9921L16.663 6.06677C16.6059 6.1777 16.6104 6.32597 16.6744 6.43477C16.703 6.48277 16.7316 6.52223 16.7384 6.52223C16.7453 6.52223 16.7521 6.49023 16.7544 6.4529C16.7601 6.3569 16.7933 6.2929 16.8504 6.26837C16.9007 6.2449 16.9339 6.25557 17.1681 6.37077C17.4139 6.49343 17.8173 6.5009 18.247 6.3921C18.4584 6.3409 18.7064 6.3441 18.8161 6.40063C19.0161 6.50517 19.063 6.7761 18.9156 6.98197C18.8516 7.06943 18.7899 7.1057 18.5841 7.1761C18.4264 7.22943 18.3899 7.2337 18.0321 7.22943C17.727 7.22517 17.6173 7.23263 17.4927 7.26463C17.3579 7.29983 17.2756 7.30303 16.8779 7.2913L16.4184 7.27637L16.4699 7.3297C16.4973 7.35743 16.5384 7.3937 16.5579 7.40757C16.5921 7.43103 16.5921 7.43423 16.5396 7.4577C16.5087 7.47263 16.4424 7.4833 16.391 7.4833H16.2961L16.2847 7.58357C16.2779 7.63903 16.2779 7.7009 16.2847 7.72543C16.2961 7.76063 16.2927 7.7649 16.2619 7.7521C16.2436 7.74143 16.1887 7.72543 16.1407 7.71263C16.0927 7.69983 16.0287 7.6753 15.9979 7.6561C15.9453 7.6241 15.9407 7.6241 15.9201 7.66677C15.9041 7.70517 15.7441 7.85237 15.7201 7.85237C15.7167 7.85237 15.7121 7.82357 15.7087 7.78837C15.7087 7.75423 15.6859 7.66357 15.6584 7.58783C15.6333 7.51317 15.6059 7.42997 15.599 7.40437C15.5876 7.36597 15.5841 7.36383 15.5704 7.3937C15.5624 7.41183 15.5499 7.46303 15.543 7.50783C15.5373 7.5505 15.5133 7.62517 15.4904 7.66783L15.4493 7.74677L15.423 7.6785C15.3956 7.60597 15.3487 7.52917 15.3316 7.52917C15.3259 7.52917 15.3156 7.5537 15.3087 7.5825C15.2973 7.64117 15.1864 7.8065 15.1601 7.8065C15.1487 7.8065 15.1407 7.75957 15.1407 7.70303C15.1407 7.64543 15.1327 7.59957 15.1213 7.59957C15.1121 7.59957 15.103 7.61343 15.103 7.63157C15.103 7.67423 15.0081 7.80543 14.9773 7.80543C14.9624 7.80543 14.9407 7.82037 14.927 7.83957C14.8927 7.88863 14.8641 7.88223 14.8779 7.8289C14.8859 7.80223 14.8813 7.74357 14.8687 7.69557L14.8379 7.58357C14.8333 7.5665 14.8001 7.57077 14.7281 7.59957C14.6116 7.64543 14.5727 7.63797 14.6321 7.57823C14.655 7.5569 14.6893 7.48437 14.7064 7.4161C14.7247 7.34783 14.7521 7.2881 14.7681 7.28063C14.7887 7.27423 14.7876 7.28383 14.7624 7.32543C14.7453 7.3553 14.7304 7.39583 14.7304 7.41503C14.7304 7.43423 14.7156 7.47903 14.6996 7.51637C14.6836 7.55477 14.6733 7.58783 14.6767 7.59103C14.6813 7.59637 14.7247 7.5761 14.775 7.54623L14.8664 7.4929V7.5409C14.8664 7.56757 14.8779 7.6369 14.8893 7.69663L14.9144 7.8033L14.9761 7.7681C15.039 7.73183 15.0996 7.60277 15.0996 7.50357C15.0996 7.45237 15.1224 7.4609 15.1316 7.51423L15.1636 7.64223L15.191 7.7425L15.2333 7.6785C15.2561 7.6433 15.287 7.57503 15.2996 7.52597C15.3224 7.44277 15.3544 7.4065 15.3544 7.4673C15.3544 7.5121 15.4527 7.66997 15.471 7.65717C15.4801 7.65077 15.4984 7.59103 15.511 7.5249C15.5384 7.38623 15.5819 7.29237 15.6104 7.31157C15.6219 7.3201 15.6241 7.3329 15.6184 7.34357C15.6139 7.35423 15.6356 7.4449 15.6687 7.5441C15.703 7.6433 15.7373 7.74357 15.743 7.76597C15.7544 7.8033 15.7659 7.79797 15.8367 7.7201C15.8824 7.6721 15.9213 7.61877 15.9259 7.60063C15.9327 7.57503 15.943 7.5761 15.983 7.60703C16.0401 7.65183 16.2344 7.72437 16.2493 7.70517C16.255 7.69877 16.2607 7.63583 16.2607 7.5665L16.2641 7.4385L16.3213 7.45237C16.3521 7.4609 16.4161 7.45983 16.4641 7.45237L16.551 7.43637L16.4744 7.37023C16.4321 7.33397 16.3887 7.28703 16.3784 7.2657C16.367 7.24437 16.3281 7.22303 16.287 7.21983C16.1693 7.20703 15.9624 7.06303 15.9624 6.99583C15.9624 6.98197 15.991 7.0033 16.0264 7.04383C16.1041 7.1313 16.2116 7.18677 16.3053 7.18677H16.3761L16.3327 7.11637C16.3076 7.0737 16.2847 6.9969 16.279 6.93183C16.271 6.8305 16.2619 6.8145 16.1761 6.73983C16.1247 6.69503 16.0596 6.62783 16.0333 6.5905L15.9853 6.5233L15.9601 6.6033C15.9464 6.6481 15.9293 6.6833 15.9236 6.6833C15.9167 6.6833 15.8893 6.6577 15.8664 6.62677C15.8401 6.59477 15.8139 6.56917 15.8093 6.56917C15.8013 6.56917 15.7796 6.61183 15.7579 6.66517L15.7201 6.75797L15.6904 6.70463C15.6733 6.67263 15.6356 6.62143 15.6047 6.5873C15.5739 6.55103 15.5567 6.5233 15.5681 6.5233C15.5796 6.5233 15.6184 6.55957 15.6539 6.6033L15.719 6.68437L15.7453 6.62463C15.7601 6.5905 15.7659 6.5361 15.759 6.49237C15.7476 6.42837 15.7499 6.42623 15.7704 6.4657C15.7819 6.4913 15.8196 6.54037 15.8539 6.57237L15.9156 6.63637L15.9579 6.54037C16.0001 6.44437 16.0013 6.44437 16.0196 6.49983C16.0459 6.57663 16.231 6.7665 16.3887 6.8753C16.4116 6.89237 16.4024 6.83263 16.3579 6.6993C16.3464 6.6641 16.335 6.6001 16.335 6.55743C16.335 6.49343 16.3213 6.46463 16.255 6.40277C16.1613 6.31317 16.1316 6.25023 16.1133 6.10623C16.1064 6.04757 16.0904 5.9825 16.0767 5.96223C16.0573 5.93023 16.0539 5.94837 16.0596 6.0561C16.0619 6.13077 16.0539 6.22037 16.0413 6.25877L16.0184 6.32703L16.0001 6.26943C15.9887 6.23743 15.9464 6.1841 15.903 6.14677C15.8573 6.11157 15.8287 6.07637 15.8344 6.0689C15.8401 6.0625 15.8859 6.0945 15.9339 6.14143C16.0081 6.2129 16.0253 6.22037 16.0344 6.18943C16.0459 6.1521 16.0344 5.99103 16.0116 5.8801C16.0001 5.8225 16.0001 5.8225 16.0573 5.89077C16.0984 5.9441 16.1201 6.00383 16.1373 6.1105C16.1601 6.24597 16.1716 6.2705 16.2721 6.37717C16.3327 6.44437 16.3864 6.4945 16.3887 6.49023C16.3933 6.48597 16.4001 6.3153 16.4059 6.11157C16.4173 5.72223 16.4059 5.62943 16.3293 5.5089L16.2904 5.44703L16.351 5.3649C16.431 5.25823 16.4676 5.1729 16.4836 5.05557L16.4973 4.95957L16.4287 5.0417C16.3716 5.10783 16.3453 5.12277 16.2801 5.12277C16.215 5.12277 16.1887 5.10997 16.1464 5.0513C16.0939 4.98197 16.0001 4.91583 15.911 4.88277C15.8767 4.8721 15.8653 4.87637 15.8653 4.9041C15.8653 4.92543 15.8481 4.98303 15.8253 5.03423L15.7853 5.1281L15.7007 5.02357C15.6481 4.95957 15.5864 4.9105 15.5407 4.89557C15.423 4.85717 15.4173 4.86037 15.4173 4.97023C15.4173 5.13343 15.3601 5.16437 15.2573 5.05557C15.1807 4.97023 15.1156 4.95317 14.9681 4.97343L14.8539 4.98943L14.8767 5.05343C14.8927 5.10677 14.8881 5.1281 14.8516 5.1889C14.7921 5.28703 14.7144 5.3297 14.5956 5.3297C14.5407 5.3297 14.4721 5.34357 14.4424 5.3617C14.4139 5.3777 14.3419 5.39797 14.2824 5.40437C14.223 5.41183 14.1601 5.4257 14.1419 5.43317C14.1144 5.44597 14.111 5.4353 14.119 5.35637C14.1339 5.23477 14.0664 5.14623 13.959 5.14623C13.8219 5.14623 13.759 5.29877 13.8127 5.50037C13.8241 5.53877 13.8356 5.60063 13.8424 5.63583C13.8504 5.67317 13.911 5.77237 13.9887 5.8673C14.0619 5.95903 14.1304 6.05397 14.1419 6.0785C14.1533 6.10303 14.191 6.1425 14.2253 6.16597L14.2881 6.20863L14.2801 6.1265C14.271 6.03477 14.287 6.01983 14.3259 6.08383C14.3407 6.10837 14.3761 6.1457 14.4059 6.16917C14.4516 6.2033 14.4596 6.20437 14.4596 6.17343C14.4596 6.1521 14.4687 6.10943 14.4801 6.07317L14.503 6.00917L14.5373 6.09663C14.5579 6.14463 14.6241 6.2545 14.6836 6.34197C14.8001 6.5073 14.871 6.69397 14.8344 6.73663C14.8196 6.75477 14.7796 6.75263 14.6973 6.73237C14.6321 6.71743 14.5521 6.7089 14.519 6.71423C14.4504 6.7249 14.447 6.71423 14.4881 6.65023C14.5316 6.58303 14.5247 6.57237 14.439 6.57237C14.3396 6.57237 14.0939 6.51263 13.999 6.4657C13.9076 6.42303 13.8847 6.4337 13.8584 6.54037L13.8093 6.7377L13.783 6.84437L13.8824 6.8337C13.9373 6.82623 14.0081 6.81237 14.039 6.79957C14.071 6.7889 14.0996 6.7825 14.103 6.7857C14.1064 6.78997 14.0916 6.83263 14.0721 6.87957L14.0333 6.9649L14.0961 6.94997C14.1304 6.94143 14.1819 6.9201 14.2104 6.90303C14.2607 6.87317 14.2641 6.8753 14.3041 6.95317C14.3521 7.04917 14.391 7.04597 14.399 6.9425C14.4081 6.83797 14.4367 6.85397 14.4904 6.9937C14.5396 7.1281 14.5933 7.17503 14.6024 7.0961C14.6059 7.0705 14.6321 7.02677 14.663 7.0001C14.7236 6.94677 14.7693 6.96383 14.7944 7.04703C14.823 7.13237 14.7624 7.22197 14.5887 7.35423C14.2344 7.61877 14.031 7.98143 13.9716 8.44223C13.919 8.85823 14.0836 9.28917 14.4139 9.5985C14.5716 9.74783 14.823 9.9025 14.807 9.84383C14.7407 9.58997 14.743 9.10783 14.8116 9.0257C14.823 9.0129 14.8184 9.06303 14.8036 9.13663C14.7487 9.41183 14.7727 9.6305 14.9144 10.1436C15.0401 10.6086 15.0241 10.807 14.8436 10.9372C14.7864 10.9798 14.7476 10.9862 14.5921 10.9841C14.423 10.982 14.4047 10.9862 14.3499 11.0396C14.2973 11.0929 14.2299 11.2636 14.2299 11.3425C14.2299 11.3852 14.2676 11.3798 14.3441 11.3254L14.3259 11.3233ZM13.0459 10.47C13.0641 10.4412 13.0779 10.3953 13.0779 10.3686C13.0779 10.3281 13.0927 10.3174 13.1659 10.3046L13.2539 10.2897L13.1967 10.231C13.1259 10.1628 13.119 10.1094 13.1807 10.1094C13.2413 10.1094 13.3453 10.0305 13.3613 9.97077C13.3693 9.94517 13.3647 9.9089 13.3521 9.8897C13.3179 9.8417 13.2527 9.84917 13.2413 9.9025C13.2276 9.9601 13.207 9.96117 13.1579 9.9025C13.0847 9.81717 13.0824 9.63797 13.1544 9.53343C13.1864 9.48437 13.1864 9.4801 13.143 9.43103C13.0973 9.37557 13.063 9.26783 13.0859 9.24223C13.0927 9.23477 13.1293 9.24223 13.1659 9.25717C13.2207 9.2785 13.2424 9.28063 13.2641 9.25717C13.3327 9.19317 13.2584 9.10783 13.1499 9.12703C13.1076 9.1345 13.0904 9.12703 13.0836 9.0993C13.079 9.07797 13.0413 9.04917 12.9979 9.0353C12.9224 9.01183 12.9213 9.01397 12.9213 9.07797C12.9213 9.14943 12.887 9.1633 12.8264 9.11743C12.775 9.0801 12.7259 9.1089 12.7259 9.1761C12.7259 9.23797 12.7773 9.2689 12.8676 9.26143C12.9361 9.2561 12.9396 9.32117 12.8733 9.4129L12.8253 9.4801L12.863 9.5473C12.9201 9.6465 12.9144 9.81183 12.8516 9.89397L12.8059 9.95797L12.7739 9.90677C12.7304 9.8353 12.671 9.84063 12.6539 9.91743C12.6424 9.96757 12.6539 9.98997 12.703 10.0433C12.7373 10.0785 12.7864 10.1073 12.8127 10.1073C12.879 10.1073 12.8767 10.1713 12.8081 10.2374L12.7544 10.2886L12.839 10.3046C12.8847 10.3132 12.9213 10.3302 12.9213 10.342C12.9213 10.3846 12.9784 10.5212 12.9979 10.5212C13.0093 10.5212 13.0321 10.4998 13.047 10.471L13.0459 10.47ZM13.335 8.1553C13.5247 8.05183 13.5407 7.78837 13.3624 7.71797C13.2881 7.69023 13.2413 7.7073 13.2139 7.7681C13.191 7.8161 13.2059 7.9025 13.2367 7.9025C13.2459 7.9025 13.2539 7.91743 13.2539 7.93663C13.2539 8.02837 12.9647 8.06997 12.847 7.9953C12.8059 7.96863 12.7899 7.90143 12.8241 7.90143C12.847 7.90143 12.8664 7.83103 12.8539 7.78197C12.8356 7.71583 12.7807 7.69237 12.703 7.71797C12.5259 7.77557 12.5316 8.0337 12.711 8.14463C12.8596 8.23317 13.1841 8.2385 13.3373 8.1553H13.335ZM13.2173 7.95263C13.2287 7.94197 13.2241 7.92063 13.2059 7.9025C13.1659 7.86303 13.1681 7.80437 13.2116 7.73717C13.2459 7.68703 13.2493 7.61237 13.2607 6.8561C13.2801 5.5505 13.3579 4.57023 13.4607 4.33557C13.5019 4.2417 13.495 4.23957 13.3899 4.33023C13.2527 4.44543 13.1499 4.5969 13.0584 4.81023C12.8847 5.21557 12.8241 5.7617 12.8241 6.9265C12.8241 7.58783 12.8287 7.67317 12.8584 7.73717C12.8881 7.79477 12.8893 7.81717 12.8699 7.8801C12.8561 7.92063 12.8504 7.9601 12.8561 7.96543C12.895 8.01237 13.1761 8.00063 13.2184 7.95157L13.2173 7.95263Z" fill="#FFB700"/>
<path fill-rule="evenodd" clip-rule="evenodd" d="M11.4287 3.19971H12.5716V4.26637H11.4287V3.19971ZM19.4287 3.19971H20.5716V4.26637H19.4287V3.19971ZM11.4287 11.733H12.5716V12.7997H11.4287V11.733ZM19.4287 11.733H20.5716V12.7997H19.4287V11.733Z" fill="#DA8210"/>
<path d="M21.7141 0.533203H2.28557C1.3388 0.533203 0.571289 1.24955 0.571289 2.1332V13.8665C0.571289 14.7502 1.3388 15.4665 2.28557 15.4665H21.7141C22.6609 15.4665 23.4284 14.7502 23.4284 13.8665V2.1332C23.4284 1.24955 22.6609 0.533203 21.7141 0.533203Z" stroke="black" stroke-opacity="0.1" stroke-width="1.07619"/>
</g>
</g>
<defs>
<clipPath id="clip0_1015_4470">
<rect width="24" height="16" fill="white"/>
</clipPath>
</defs>
</svg>
