<?xml version="1.0" encoding="UTF-8"?>
<svg fill="none" viewBox="0 0 126 128" xmlns="http://www.w3.org/2000/svg">
<g clip-path="url(#c)">
<path d="m27.807-9.7656e-4 -5.4194 5.6896-15.041 15.551-4.9481 5.0562-0.34218 0.2461-2.0539 1.5474 3.61 3.2941 9.9361 9.6182 5.8991 5.7973-11.223 11.6 6.6807 0.3843 0.6821 0.0116 2.0827-0.0205 0.9108 1e-3 5.0017 0.1217 2.6328-0.0238 10.529 0.1355 2.376 0.0109 6.8494 0.0193 2.6142 0.0775 1.4397 0.0171 2.9378 0.0043 4.7675 0.0913 0.3251-0.0165 0.4147-0.0345 1.9989-0.1263 0.0027-2.5174-0.7107-16.237-0.4135-8.0665-0.7246-17.183-0.4665-8.2954-11.25 11.651-1.4507-1.3795-11.706-11.372-2.9552-2.8886-2.9865-2.7641zm19.26 24.383 7.3616-7.6348 0.2812 6.4885 0.4155 10.131 0.5195 10.285 0.479 11.274-3.6641-0.057-2.7279-0.0038-1.5922-0.0288-2.343-0.0684-2.8022-0.0132-6.6303-0.0161-10.388-0.132-1.9261 0.024-0.6212-0.0021-5.0064-0.1221-0.4908-0.0015 7.6344-7.8908-3.18-2.9105-15.536-15.128-0.36731-0.351 3.923-4.0108 17.59-18.221 7.273 7.1113 1.5964 1.541 6.4071 6.1962 3.7954 3.5411z" fill="url(#b)"/>
<path d="m115.71 105.78 4.947-5.052 0.342-0.246 2.049-1.5436-3.605-3.2979-9.936-9.6182-5.903-5.8001 11.224-11.597-6.785-0.3873-3.574 0.011-5.0356-0.1219-2.823 0.0194-10.938-0.136-8.1966-0.018-3.502-0.0934-0.8099-0.0077-3.0696-0.0049-4.7789-0.0927-0.3147 0.0174-0.4144 0.0351-1.9989 0.1262 0.0011 2.636 0.698 15.937 0.3959 7.6093 0.7532 17.862 0.4769 8.248 11.237-11.644 2.0344 1.942 9.8993 9.606 4.1794 4.092 2.9885 2.766 5.4169-5.691 15.042-15.556zm-48.245-21.2-0.5342-12.488 3.6665 0.0627 2.8052 0.0043 1.5151 0.0283 2.162 0.0648 1.7286 0.0142 6.8353 0.01 11.14 0.1382 2.844-0.0195 5.002 0.1216 0.494-8e-4 -7.6333 7.8937 3.1803 2.9105 7.681 7.525 8.218 7.9506-3.918 4.0096-16.892 17.486-0.702 0.737-15.272-14.846-3.7955-3.541-7.3626 7.632-0.7984-18.664-0.3627-7.0291z" fill="url(#a)"/>
</g>
<defs>
<linearGradient id="b" x1=".0029297" x2="60.471" y1="29.614" y2="29.614" gradientUnits="userSpaceOnUse">
<stop stop-color="#FF6444" offset="0"/>
<stop stop-color="#FF444F" offset="1"/>
</linearGradient>
<linearGradient id="a" x1="62.592" x2="123.05" y1="97.415" y2="97.415" gradientUnits="userSpaceOnUse">
<stop stop-color="#FF6444" offset="0"/>
<stop stop-color="#FF444F" offset="1"/>
</linearGradient>
<clipPath id="c">
<rect width="125.16" height="128" fill="#fff"/>
</clipPath>
</defs>
</svg>
