<?xml version="1.0" encoding="UTF-8"?>
<svg fill="none" viewBox="0 0 128 116" xmlns="http://www.w3.org/2000/svg">
<mask id="a" fill="white">
<path d="m104.2 59.662c-2.61 0.7963-5.3795 1.2247-8.2494 1.2247-12.07 0-22.37-7.5778-26.403-18.235h-53.546c-8.8366 0-16 7.1634-16 16v40.939c0 8.8366 7.1634 16 16 16h72.199c8.8365 0 16-7.163 16-16v-39.928z" clip-rule="evenodd" fill-rule="evenodd"/>
</mask>
<path d="m104.2 59.662h4v-5.4029l-5.168 1.5771 1.168 3.8258zm-34.652-17.011 3.7411-1.4156-0.9779-2.5844h-2.7632v4zm33.484 13.185c-2.235 0.6821-4.6115 1.0505-7.0814 1.0505v8c3.2699 0 6.4334-0.4884 9.4164-1.3989l-2.335-7.6516zm-7.0814 1.0505c-10.353 0-19.198-6.4975-22.662-15.651l-7.4823 2.8311c4.6018 12.162 16.357 20.82 30.144 20.82v-8zm-79.95-10.235h53.546v-8h-53.546v8zm-12 12c0-6.6274 5.3726-12 12-12v-8c-11.046 0-20 8.9543-20 20h8zm0 40.939v-40.939h-8v40.939h8zm12 12c-6.6274 0-12-5.372-12-12h-8c0 11.046 8.9543 20 20 20v-8zm72.199 0h-72.199v8h72.199v-8zm12-12c0 6.6276-5.3729 12-12 12v8c11.046 0 20-8.954 20-20h-8zm0-39.928v39.928h8v-39.928h-8z" fill="url(#e)" mask="url(#a)"/>
<path d="m50.863 99.028v-3.8121c-2.2459-0.1773-4.1372-0.724-5.6739-1.6401-1.5366-0.9161-2.8664-2.0391-3.9894-3.3689l3.2359-2.9255c0.9161 1.1229 1.906 2.0242 2.9699 2.7039 1.0934 0.6797 2.3493 1.1082 3.7677 1.2855v-9.9292c-3.1915-0.6797-5.4965-1.6992-6.9149-3.0586-1.4185-1.3889-2.1277-3.2063-2.1277-5.4522 0-2.3641 0.7831-4.2406 2.3493-5.6295s3.6939-2.2311 6.3831-2.5266v-3.8564h3.7677v3.8564c1.8913 0.1773 3.5314 0.6501 4.9203 1.4185 1.4185 0.7683 2.6448 1.8173 3.6791 3.1472l-3.2802 2.7039c-0.6501-0.857-1.4332-1.5662-2.3493-2.1277-0.8865-0.591-1.9651-0.99-3.2358-1.1968v9.087c1.7435 0.3841 3.1915 0.8422 4.344 1.3741s2.0834 1.1377 2.7926 1.8174c0.7388 0.6501 1.2707 1.4185 1.5958 2.305 0.325 0.857 0.4875 1.8617 0.4875 3.0142 0 2.3937-0.7831 4.3884-2.3493 5.9841-1.5366 1.5958-3.7382 2.571-6.6047 2.9256v3.9008h-3.7677zm8.0674-12.5c0-1.1229-0.325-2.039-0.9752-2.7483-0.6501-0.7387-1.8469-1.3298-3.5904-1.773v9.22c1.448-0.2365 2.5709-0.7684 3.3688-1.5958s1.1968-1.8617 1.1968-3.1029zm-12.19-13.919c0 1.2411 0.3546 2.1868 1.0638 2.8369 0.7388 0.6206 1.8617 1.1377 3.3688 1.5514v-8.422c-1.4184 0.2068-2.5118 0.6501-3.2801 1.3298-0.7684 0.6796-1.1525 1.5809-1.1525 2.7039z" fill="url(#d)"/>
<circle transform="rotate(-7.3713 98.824 29.177)" cx="98.824" cy="29.177" r="24.05" stroke="url(#c)" stroke-width="4"/>
<line x1="114.18" x2="84.174" y1="11.151" y2="47.429" stroke="url(#b)" stroke-width="4"/>
<defs>
<linearGradient id="e" x2="104.2" y1="79.121" y2="79.121" gradientUnits="userSpaceOnUse">
<stop stop-color="#FF6444" offset="0"/>
<stop stop-color="#FF444F" offset="1"/>
</linearGradient>
<linearGradient id="d" x1="41.2" x2="63.585" y1="79.923" y2="79.923" gradientUnits="userSpaceOnUse">
<stop stop-color="#FF6444" offset="0"/>
<stop stop-color="#FF444F" offset="1"/>
</linearGradient>
<linearGradient id="c" x1="72.774" x2="124.87" y1="29.177" y2="29.177" gradientUnits="userSpaceOnUse">
<stop stop-color="#FF6444" offset="0"/>
<stop stop-color="#FF444F" offset="1"/>
</linearGradient>
<linearGradient id="b" x1="112.26" x2="82.248" y1="9.5573" y2="45.835" gradientUnits="userSpaceOnUse">
<stop stop-color="#FF6444" offset="0"/>
<stop stop-color="#FF444F" offset="1"/>
</linearGradient>
</defs>
</svg>
