<svg fill="none" viewBox="0 0 104 129" xmlns="http://www.w3.org/2000/svg"><g clip-path="url(#a)"><mask id="b" x="44" y="75" width="58" height="53" style="mask-type:alpha" maskUnits="userSpaceOnUse"><path d="M44.539 75.84h56.882v51.532H44.539V75.84z" fill="#fff"/></mask><g mask="url(#b)"><path d="M90.146 123.66c4.093 0 6.14-2.759 6.14-8.28v-4.279c0-5.521-2.047-8.28-6.14-8.28s-6.139 2.759-6.139 8.28v4.279c0 5.521 2.046 8.28 6.139 8.28zm0 3.711c-3.619 0-6.402-1.202-8.35-3.603-1.952-2.402-2.928-5.91-2.928-10.526s.976-8.124 2.927-10.531c1.949-2.402 4.732-3.6 8.351-3.6 3.616 0 6.4 1.198 8.348 3.6 1.951 2.407 2.93 5.915 2.93 10.531s-.979 8.124-2.93 10.526c-1.949 2.401-4.732 3.603-8.348 3.603zm-37.186-.854 34.546-49.822h5.497l-34.546 49.822H52.96zm2.854-26.122c4.093 0 6.139-2.762 6.139-8.28v-4.282c0-5.522-2.046-8.28-6.14-8.28s-6.135 2.758-6.135 8.28v4.282c0 5.518 2.043 8.28 6.136 8.28zm0 3.707c-3.616 0-6.396-1.199-8.348-3.6-1.954-2.404-2.927-5.913-2.927-10.531 0-4.61.973-8.121 2.927-10.525 1.952-2.401 4.732-3.606 8.348-3.606 3.619 0 6.399 1.205 8.354 3.606 1.951 2.404 2.924 5.916 2.924 10.525 0 4.619-.973 8.127-2.924 10.531-1.955 2.401-4.736 3.6-8.354 3.6z" clip-rule="evenodd" fill="url(#c)" fill-rule="evenodd"/></g><path d="M34.639 99.262c-.404.015-.783.061-1.196.061-9.225 0-16.144-3.557-20.76-10.669-4.613-7.108-6.916-17.49-6.916-31.136V46.561c0-13.645 2.303-24.024 6.916-31.139 4.616-7.108 11.535-10.666 20.76-10.666s16.144 3.558 20.76 10.666c4.61 7.115 6.916 17.493 6.916 31.14v10.956c0 2.97-.132 5.757-.349 8.418 1.823.07 3.597.45 5.292 1.07.526-4.566.823-9.515.823-14.966 0-17.971-2.86-31.14-8.577-39.5C52.591 4.18 44.302 0 33.443 0S14.295 4.18 8.575 12.54C2.855 20.9.001 34.07.001 52.04s2.854 31.136 8.574 39.499c5.72 8.36 14.009 12.542 24.868 12.542.936 0 1.826-.074 2.725-.138a22.458 22.458 0 0 1-1.529-4.68z" clip-rule="evenodd" fill="url(#d)" fill-rule="evenodd"/></g><defs><linearGradient id="c" x1="44.539" x2="101.42" y1="101.61" y2="101.61" gradientUnits="userSpaceOnUse"><stop stop-color="#FF6444" offset="0"/><stop stop-color="#FF444F" offset="1"/></linearGradient><linearGradient id="d" x1="0" x2="66.885" y1="52.039" y2="52.039" gradientUnits="userSpaceOnUse"><stop stop-color="#FF6444" offset="0"/><stop stop-color="#FF444F" offset="1"/></linearGradient><clipPath id="a"><path fill="#fff" d="M0 0h104v128.47H0z"/></clipPath></defs></svg>