<?xml version="1.0" encoding="UTF-8"?>
<svg fill="none" viewBox="0 0 104 129" xmlns="http://www.w3.org/2000/svg">
<g clip-path="url(#d)">
<mask id="c" x="44" y="75" width="58" height="53" style="mask-type:alpha" maskUnits="userSpaceOnUse">
<path d="m44.539 75.84h56.882v51.532h-56.882v-51.532z" fill="#fff"/>
</mask>
<g mask="url(#c)">
<path d="m90.146 123.66c4.0927 0 6.1391-2.759 6.1391-8.28v-4.279c0-5.521-2.0464-8.28-6.1391-8.28s-6.139 2.759-6.139 8.28v4.279c0 5.521 2.0463 8.28 6.139 8.28zm0 3.711c-3.6186 0-6.4021-1.202-8.3506-3.603-1.9515-2.402-2.9273-5.91-2.9273-10.526s0.9758-8.124 2.9273-10.531c1.9485-2.402 4.732-3.6006 8.3506-3.6006 3.6156 0 6.3991 1.1986 8.3476 3.6006 1.9518 2.407 2.9308 5.915 2.9308 10.531s-0.979 8.124-2.9308 10.526c-1.9485 2.401-4.732 3.603-8.3476 3.603zm-37.186-0.854 34.546-49.822h5.4967l-34.546 49.822h-5.4967zm2.8539-26.122c4.0927 0 6.1391-2.762 6.1391-8.2802v-4.2823c0-5.5212-2.0464-8.2802-6.1391-8.2802s-6.136 2.759-6.136 8.2802v4.2823c0 5.5182 2.0433 8.2802 6.136 8.2802zm0 3.707c-3.6155 0-6.396-1.199-8.3475-3.6-1.9546-2.4041-2.9273-5.9126-2.9273-10.531 0-4.6096 0.9727-8.1212 2.9273-10.525 1.9515-2.4012 4.732-3.6064 8.3475-3.6064 3.6186 0 6.3991 1.2052 8.3536 3.6064 1.9516 2.4042 2.9243 5.9158 2.9243 10.525 0 4.6188-0.9727 8.1273-2.9243 10.531-1.9545 2.401-4.735 3.6-8.3536 3.6z" clip-rule="evenodd" fill="url(#b)" fill-rule="evenodd"/>
</g>
<path d="m34.639 99.262c-0.4038 0.0153-0.7831 0.0612-1.196 0.0612-9.2254 0-16.144-3.5575-20.76-10.669-4.6127-7.1087-6.916-17.49-6.916-31.136v-10.957c0-13.645 2.3033-24.024 6.916-31.139 4.6157-7.1087 11.535-10.666 20.76-10.666s16.144 3.5574 20.76 10.666c4.6097 7.1148 6.916 17.493 6.916 31.139v10.957c0 2.9701-0.1315 5.7567-0.3487 8.4179 1.8231 0.0703 3.5972 0.4496 5.2918 1.0706 0.5261-4.5668 0.8228-9.516 0.8228-14.967 0-17.971-2.86-31.139-8.5769-39.499-5.717-8.3598-14.006-12.541-24.865-12.541s-19.148 4.1814-24.868 12.541c-5.72 8.3597-8.5739 21.528-8.5739 39.499s2.8539 31.136 8.5739 39.499c5.72 8.3597 14.009 12.542 24.868 12.542 0.936 0 1.8261-0.074 2.7254-0.138-0.679-1.502-1.199-3.083-1.5294-4.6801z" clip-rule="evenodd" fill="url(#a)" fill-rule="evenodd"/>
</g>
<defs>
<linearGradient id="b" x1="44.539" x2="101.42" y1="101.61" y2="101.61" gradientUnits="userSpaceOnUse">
<stop stop-color="#FF6444" offset="0"/>
<stop stop-color="#FF444F" offset="1"/>
</linearGradient>
<linearGradient id="a" x1=".00048828" x2="66.885" y1="52.039" y2="52.039" gradientUnits="userSpaceOnUse">
<stop stop-color="#FF6444" offset="0"/>
<stop stop-color="#FF444F" offset="1"/>
</linearGradient>
<clipPath id="d">
<rect width="104" height="128.47" fill="#fff"/>
</clipPath>
</defs>
</svg>
