<svg width="128" height="80" viewBox="0 0 128 80" fill="none" xmlns="http://www.w3.org/2000/svg">
<path d="M93.7849 35.9234C98.3692 35.9234 102.085 32.2071 102.085 27.6228C102.085 23.0386 98.3692 19.3223 93.7849 19.3223C89.2007 19.3223 85.4844 23.0386 85.4844 27.6228C85.4844 32.2071 89.2007 35.9234 93.7849 35.9234Z" fill="url(#paint0_radial_2375_1975)"/>
<path d="M114.661 35.9234C119.245 35.9234 122.961 32.2071 122.961 27.6228C122.961 23.0386 119.245 19.3223 114.661 19.3223C110.077 19.3223 106.36 23.0386 106.36 27.6228C106.36 32.2071 110.077 35.9234 114.661 35.9234Z" fill="url(#paint1_radial_2375_1975)"/>
<path d="M72.7781 35.9234C77.3624 35.9234 81.0787 32.2071 81.0787 27.6228C81.0787 23.0386 77.3624 19.3223 72.7781 19.3223C68.1938 19.3223 64.4775 23.0386 64.4775 27.6228C64.4775 32.2071 68.1938 35.9234 72.7781 35.9234Z" fill="url(#paint2_radial_2375_1975)"/>
<path d="M81.0298 28.3594C81.0298 28.3594 79.7313 39.9739 92.6023 41.1279L91.4035 45.9951L85.7 47.396C85.7 47.396 84.3503 35.2603 73.3673 35.8879L74.5976 29.0907L81.0311 28.3594H81.0298Z" fill="#F79624"/>
<path d="M106.512 28.3594C106.512 28.3594 107.81 39.9739 94.9393 41.1279L96.1381 45.9951L101.842 47.396C101.842 47.396 103.191 35.2603 114.174 35.8879L112.944 29.0907L106.51 28.3594H106.512Z" fill="#8E4822"/>
<path d="M11.3941 46.4179C13.7128 46.4258 15.9882 46.4323 18.2636 46.4428C18.3016 46.4428 18.341 46.4848 18.3765 46.5058C18.2097 47.1558 18.0456 47.7991 17.8802 48.4412C17.8158 48.6906 17.7541 48.9414 17.6806 49.1895C17.6031 49.4482 17.4613 49.5309 17.1147 49.5322C14.9917 49.5322 12.8699 49.5322 10.7468 49.5335C10.5657 49.5335 10.3845 49.5506 10.1967 49.5611C9.942 50.664 9.56911 51.7065 9.35773 52.8711C10.1048 52.8803 10.7889 52.875 11.4729 52.875C12.1648 52.875 12.8568 52.875 13.55 52.875H17.6898C17.7305 53.2834 17.2303 55.308 16.9322 55.9854H5C6.42719 50.6351 7.84257 45.3281 9.25925 40.0146H20.9906C21.0575 40.4308 20.6794 41.9958 20.2383 43.146H19.7078C17.3235 43.146 14.9391 43.146 12.5548 43.146C12.4314 43.146 12.308 43.1381 12.1859 43.1499C11.9823 43.1696 11.8537 43.2733 11.8103 43.4873C11.767 43.6948 11.6935 43.8944 11.6436 44.1005C11.5044 44.6769 11.3731 45.2546 11.2313 45.8297C11.1893 46.0017 11.121 46.1684 11.0515 46.3772C11.1827 46.3942 11.2668 46.4061 11.3941 46.4179Z" fill="#AB5116"/>
<path d="M21.0339 55.1097C20.1831 54.3285 19.742 53.3792 19.5358 52.2829C19.4321 51.7328 19.3704 51.1866 19.4045 50.6364C19.5581 48.1628 20.5809 46.1382 22.5911 44.6559C23.1898 44.2147 23.8725 43.8891 24.5907 43.7119C25.3312 43.5307 26.098 43.4007 26.8687 43.5294C28.0346 43.7237 28.9931 44.2764 29.7152 45.2231C29.7415 45.2572 29.773 45.2861 29.8478 45.3688C29.9292 45.2388 30.0251 45.139 30.0579 45.0235C30.1446 44.7163 30.2194 44.4038 30.2706 44.0887C30.3061 43.8681 30.4466 43.7342 30.6264 43.7316C31.6519 43.7145 32.6786 43.7237 33.7552 43.7237C33.7552 43.9022 33.7828 44.0414 33.75 44.1648C33.6016 44.7202 33.4335 45.2703 33.276 45.8231C33.1972 46.1001 33.1263 46.3798 33.0515 46.6595C32.8099 47.5667 32.5631 48.4727 32.328 49.3825C32.1797 49.955 32.0589 50.5353 31.9092 51.1078C31.7595 51.6789 31.5849 52.2435 31.43 52.8133C31.3381 53.1494 31.2685 53.4921 31.1805 53.8296C31.0886 54.1814 30.9888 54.5307 30.8916 54.8812C30.8142 55.1583 30.7262 55.4327 30.6566 55.7123C30.4518 56.5356 30.2588 57.3627 30.05 58.186C29.8754 58.8766 29.6903 59.5646 29.4999 60.2526C29.4421 60.46 29.3043 60.5913 29.0679 60.59C28.0845 60.5887 27.1011 60.59 26.1203 60.59C25.9129 60.351 26.0284 60.1081 26.0849 59.8823C26.2464 59.2324 26.421 58.5864 26.5996 57.9418C26.7584 57.3706 26.9383 56.8047 27.0906 56.231C27.1983 55.8253 27.2744 55.4117 27.365 55.002C27.3335 54.9823 27.3007 54.9626 27.2692 54.9416C27.042 55.1005 26.8136 55.2567 26.5904 55.4182C25.5978 56.1351 24.4818 56.3675 23.2935 56.1798C22.4611 56.0485 21.6878 55.7255 21.0313 55.1123L21.0339 55.1097ZM27.3164 46.5767C27.172 46.5334 27.0276 46.4599 26.8819 46.452C26.0809 46.4139 25.3457 46.6227 24.7155 47.1256C23.3802 48.1904 22.8708 49.6018 23.0519 51.2732C23.1596 52.2698 23.9132 53.0943 24.8468 53.2413C25.9116 53.4094 26.8753 53.1442 27.6788 52.4181C28.3537 51.8102 28.7935 51.0618 29.0194 50.1651C29.2045 49.4311 29.2636 48.7221 28.9773 48.0171C28.6832 47.2897 28.1659 46.7908 27.3151 46.5754L27.3164 46.5767Z" fill="#AB5015"/>
<path d="M38.6473 45.1167C38.4373 45.8507 38.2442 46.5518 38.0631 47.2569C37.916 47.8293 37.79 48.4083 37.6416 48.9808C37.5549 49.3169 37.4197 49.6425 37.3449 49.9813C37.2083 50.6062 37.0035 51.2273 37.098 51.8824C37.1676 52.3669 37.4289 52.7109 37.8911 52.8974C39.2303 53.4344 40.4067 52.6938 40.9595 51.5791C41.2194 51.0553 41.3586 50.4697 41.5293 49.9038C41.7144 49.292 41.8759 48.6735 42.04 48.0565C42.1884 47.4971 42.321 46.9326 42.468 46.3732C42.623 45.7837 42.7779 45.1942 42.9499 44.6099C43.0392 44.3106 43.0011 43.9548 43.3333 43.7184C44.2839 43.7184 45.2673 43.7145 46.2507 43.721C46.5159 43.7224 46.5776 43.7906 46.529 44.0624C46.4568 44.4655 46.3557 44.8646 46.256 45.2638C46.164 45.6301 46.0538 45.9912 45.9579 46.3575C45.8739 46.6805 45.8082 47.01 45.7176 47.3317C45.6323 47.6376 45.5115 47.933 45.4314 48.2403C45.224 49.0477 45.0401 49.8631 44.8288 50.6693C44.6791 51.2404 44.49 51.7997 44.3364 52.3695C44.1867 52.9262 44.0594 53.4895 43.9202 54.0501C43.785 54.5937 43.651 55.1386 43.504 55.6795C43.4738 55.7924 43.3858 55.8883 43.3254 55.9907H39.9839C40.0299 55.6677 40.0732 55.3749 40.131 54.9653C39.917 55.0821 39.7962 55.1294 39.6964 55.2069C39.1489 55.6257 38.562 55.9933 37.8884 56.1338C36.2249 56.4791 34.413 56.0235 33.6567 54.1552C33.3377 53.3661 33.3075 52.5113 33.5228 51.6671C33.6095 51.327 33.6764 50.9831 33.7631 50.643C33.9994 49.7292 34.2463 48.8193 34.4813 47.9055C34.6297 47.3304 34.7531 46.7487 34.9041 46.175C35.0537 45.6012 35.2244 45.0327 35.3807 44.4602C35.4174 44.3276 35.4345 44.1898 35.4581 44.0545C35.4923 43.8615 35.6314 43.7329 35.7982 43.7302C36.8236 43.7158 37.8504 43.7224 38.8955 43.7224C39.0307 44.2449 38.7012 44.6428 38.6421 45.1167H38.6473Z" fill="#AB5015"/>
<path d="M72.0019 49.2762C71.8666 49.829 71.7458 50.3449 71.5883 50.8491C71.5581 50.9476 71.3926 51.0303 71.2732 51.0671C71.1458 51.1065 70.9988 51.0828 70.8609 51.0828C68.5383 51.0828 66.2143 51.0828 63.8917 51.0828H63.3534C63.1919 51.5765 63.3612 51.9599 63.5608 52.3105C63.8457 52.8094 64.2646 53.1324 64.8488 53.3017C66.0502 53.6497 67.1242 53.3937 68.1575 52.7766C68.2993 52.6925 68.4424 52.6111 68.6197 52.51C68.8048 52.7254 69.0031 52.9315 69.1724 53.1586C69.4718 53.5578 69.7422 53.9792 70.0495 54.3718C70.2031 54.5688 70.1663 54.6882 69.993 54.8261C69.4416 55.2659 68.8271 55.5889 68.1719 55.8423C66.8721 56.3465 65.5119 56.3754 64.1792 56.1574C62.563 55.8935 61.2408 55.0874 60.4898 53.5446C60.2351 53.0221 60.071 52.4746 59.983 51.8903C59.8635 51.1038 59.9147 50.3239 60.0289 49.5559C60.1629 48.6617 60.5016 47.8175 60.973 47.0468C61.6176 45.9951 62.454 45.1141 63.5372 44.4996C64.2895 44.0729 65.0707 43.7394 65.9504 43.62C66.4533 43.5517 66.9509 43.4637 67.4551 43.5031C68.9505 43.6213 70.2661 44.1359 71.1996 45.3675C71.65 45.9623 71.9152 46.6476 72.0176 47.4065C72.1003 48.0223 72.0977 48.625 72.0019 49.2736V49.2762ZM65.6878 48.9624C66.5334 48.9624 67.3776 48.9637 68.2231 48.9624C68.6039 48.9624 68.7707 48.839 68.8245 48.4845C68.898 48.0026 68.7812 47.5588 68.5396 47.1334C68.168 46.477 67.526 46.322 66.8734 46.2971C66.2997 46.2761 65.7351 46.4507 65.2204 46.7343C64.4576 47.1558 63.9586 47.8162 63.5726 48.5738C63.524 48.6696 63.5398 48.7983 63.5201 48.9611C64.2488 48.9611 64.9224 48.9611 65.6878 48.9611V48.9624Z" fill="#F79624"/>
<path d="M57.81 55.3106C57.7982 55.6126 57.6564 55.7465 57.4096 55.8423C56.4564 56.21 55.4664 56.2953 54.4685 56.1758C53.6965 56.0839 52.998 55.799 52.5175 55.1215C52.0789 54.5031 52.0041 53.8256 52.1407 53.1101C52.2168 52.7057 52.3245 52.3065 52.4282 51.9087C52.5949 51.2758 52.7761 50.6456 52.9416 50.0128C53.0912 49.4377 53.2252 48.8574 53.3748 48.2823C53.4628 47.9435 53.5744 47.61 53.665 47.2726C53.7031 47.1308 53.7136 46.9825 53.7451 46.7855H52.4426C52.4426 46.6122 52.4295 46.4796 52.4453 46.3522C52.5004 45.9098 53.0991 43.9718 53.2685 43.7H54.5998C54.8742 42.6917 55.1421 41.7096 55.4047 40.7432C55.8156 40.6238 58.3589 40.6014 58.884 40.7209C58.628 41.686 58.3733 42.6523 58.1015 43.6777C58.326 43.6882 58.4731 43.7 58.6214 43.7014C59.2674 43.704 59.9134 43.6974 60.5594 43.7053C60.8784 43.7092 60.9349 43.8143 60.8482 44.1031C60.734 44.4799 60.646 44.866 60.541 45.2454C60.4071 45.7259 60.2679 46.2052 60.1117 46.7501C59.1913 46.8144 58.242 46.7422 57.2665 46.7921C57.122 47.3593 56.9894 47.9173 56.8384 48.4687C56.6783 49.0504 56.4839 49.6228 56.3329 50.2071C56.1583 50.8846 56.0008 51.566 55.8629 52.2527C55.7868 52.6308 55.989 53.0575 56.5233 53.0917C57.1194 53.1297 57.6735 52.9683 58.2381 52.8422C58.2971 52.8291 58.3549 52.8146 58.4376 52.7949C58.4547 52.8632 58.4915 52.9223 58.4796 52.9709C58.3694 53.4094 58.2564 53.8493 58.133 54.2838C58.0385 54.6173 57.9256 54.9469 57.8113 55.3119L57.81 55.3106Z" fill="#F79624"/>
<path d="M74.398 45.1889C74.5661 44.5482 74.7315 43.9456 74.8917 43.3416C75.0401 42.7823 75.1819 42.2216 75.3276 41.661C75.4733 41.1004 75.6178 40.5411 75.7674 39.9817C75.8147 39.8058 75.8764 39.6338 75.9302 39.4592C76.2926 39.3056 78.8936 39.2767 79.3663 39.4316C79.3584 39.5419 79.3663 39.6653 79.3374 39.7782C79.1667 40.4373 78.9908 41.0964 78.8083 41.7529C78.6547 42.3057 78.4827 42.8545 78.329 43.4086C78.2358 43.7447 78.1636 44.0861 78.0809 44.4248C78.0047 44.7333 77.9299 45.0419 77.8498 45.3478C77.6804 45.9925 77.5124 46.6371 77.3338 47.2792C77.1802 47.8333 77.0108 48.3821 76.8572 48.9348C76.7679 49.2565 76.6957 49.5821 76.6104 49.9051C76.5145 50.2701 76.4134 50.6338 76.3123 50.9962C76.2388 51.2588 76.1561 51.5201 76.0891 51.7853C75.946 52.3577 75.8226 52.9354 75.6703 53.5053C75.518 54.0751 75.3407 54.6397 75.1753 55.2069C75.1582 55.2659 75.1504 55.3263 75.1398 55.388C75.0335 56.0156 75.0322 56.0183 74.4203 56.0183C73.6365 56.0183 72.8527 56.0183 72.0688 56.0183C71.9205 56.0183 71.7708 56.0051 71.5712 55.9959C71.6132 55.7163 71.6303 55.4734 71.6894 55.241C71.8535 54.5924 72.0294 53.9464 72.2093 53.3017C72.3695 52.7293 72.5507 52.1634 72.7043 51.5896C72.8579 51.0159 72.98 50.4329 73.131 49.8578C73.2781 49.2985 73.4501 48.7458 73.6037 48.1878C73.7481 47.6586 73.8807 47.1256 74.0225 46.5951C74.1433 46.1395 74.2693 45.6839 74.398 45.1903V45.1889Z" fill="#F79624"/>
<path d="M50.1331 43.7158C50.6859 43.7158 51.194 43.7316 51.7008 43.7105C52.0527 43.6961 52.0855 43.918 52.0199 44.157C51.8387 44.8292 51.6654 45.5041 51.4776 46.1763C51.2583 46.9641 51.0181 47.7453 50.8027 48.5344C50.6478 49.1055 50.531 49.6858 50.3787 50.2583C50.2277 50.8281 50.0517 51.3927 49.8915 51.9599C49.8088 52.2527 49.7406 52.5481 49.6618 52.8409C49.4885 53.4829 49.3099 54.125 49.1366 54.767C49.0618 55.0454 48.9895 55.325 48.9265 55.6073C48.8359 56.0091 48.8399 56.0143 48.4184 56.017C47.7724 56.0209 47.1278 56.017 46.4818 56.017C46.1457 56.017 45.8095 56.017 45.4235 56.017C45.4367 55.8345 45.4262 55.6835 45.4629 55.5443C45.6966 54.6462 45.9356 53.7495 46.1811 52.854C46.403 52.0479 46.6446 51.2456 46.8599 50.4382C47.0752 49.6294 47.2591 48.8114 47.4757 48.0026C47.6871 47.2096 47.926 46.4231 48.144 45.6314C48.2858 45.118 48.4302 44.6034 48.5392 44.0821C48.5956 43.8156 48.744 43.7224 48.9804 43.7184C49.3493 43.7105 49.7182 43.7158 50.1331 43.7158Z" fill="#AB5116"/>
<path d="M93.7708 57.6332C98.3551 57.6332 102.071 53.9169 102.071 49.3327C102.071 44.7484 98.3551 41.0321 93.7708 41.0321C89.1865 41.0321 85.4702 44.7484 85.4702 49.3327C85.4702 53.9169 89.1865 57.6332 93.7708 57.6332Z" fill="#8E4822"/>
<defs>
<radialGradient id="paint0_radial_2375_1975" cx="0" cy="0" r="1" gradientUnits="userSpaceOnUse" gradientTransform="translate(91.3927 24.2459) rotate(41.0995) scale(12.2834 13.6773)">
<stop stop-color="#F79624" stop-opacity="0.33"/>
<stop offset="0.257578" stop-color="#F79624"/>
<stop offset="0.789829" stop-color="#F79624"/>
</radialGradient>
<radialGradient id="paint1_radial_2375_1975" cx="0" cy="0" r="1" gradientUnits="userSpaceOnUse" gradientTransform="translate(112.269 24.2459) rotate(41.0995) scale(12.2834 13.6773)">
<stop stop-color="#8E4822" stop-opacity="0.53"/>
<stop offset="0.257578" stop-color="#8E4822"/>
<stop offset="0.789829" stop-color="#8E4822"/>
</radialGradient>
<radialGradient id="paint2_radial_2375_1975" cx="0" cy="0" r="1" gradientUnits="userSpaceOnUse" gradientTransform="translate(70.3859 24.2459) rotate(41.0995) scale(12.2834 13.6773)">
<stop stop-color="#F79624" stop-opacity="0.33"/>
<stop offset="0.257578" stop-color="#F79624"/>
<stop offset="0.789829" stop-color="#F79624"/>
</radialGradient>
</defs>
</svg>
