<svg width="128" height="80" viewBox="0 0 128 80" fill="none" xmlns="http://www.w3.org/2000/svg">
<path d="M15.0337 31.694H10.1357V48.7552H15.0337C16.205 48.8413 17.3814 48.6849 18.4895 48.2959C19.5976 47.9069 20.6137 47.2937 21.4742 46.4945C22.3347 45.6952 23.0212 44.7272 23.4909 43.6508C23.9605 42.5743 24.2032 41.4127 24.2038 40.2382C24.2038 35.2042 20.4215 31.694 15.0337 31.694ZM18.9249 44.4831C17.8636 45.4355 16.5303 45.8437 14.3806 45.8437H13.4827V34.6056H14.3806C16.5303 34.6056 17.8364 34.9865 18.9249 35.9661C19.5098 36.5134 19.9761 37.175 20.2949 37.9098C20.6138 38.6447 20.7783 39.4372 20.7783 40.2382C20.7783 41.0393 20.6138 41.8318 20.2949 42.5667C19.9761 43.3015 19.5098 43.9631 18.9249 44.5103V44.4831ZM25.7276 31.694H29.0473V48.728H25.7276V31.694ZM37.1562 38.2518C35.1698 37.5172 34.5711 37.0274 34.5711 36.075C34.5711 35.0137 35.6323 34.1974 37.0473 34.1974C38.0541 34.1974 38.8704 34.6328 39.7412 35.5852L41.4827 33.3267C40.0405 32.075 38.3262 31.4219 36.4759 31.4219C33.4827 31.4219 31.1698 33.5172 31.1698 36.3199C31.1698 38.66 32.231 39.8573 35.3602 40.9729C36.6391 41.4355 37.3194 41.7348 37.6459 41.9525C37.9538 42.1335 38.2089 42.392 38.3856 42.7024C38.5622 43.0128 38.6544 43.3641 38.6528 43.7212C38.6528 45.0818 37.5643 46.1158 36.0677 46.1158C34.4895 46.1158 33.2106 45.2995 32.4487 43.8301L30.2718 45.8981C31.8228 48.1566 33.6732 49.1634 36.1766 49.1634C39.6323 49.1634 42.0541 46.8505 42.0541 43.558C42.0541 40.8369 40.9657 39.6124 37.1562 38.2518ZM43.1153 40.2382C43.1042 41.4167 43.3295 42.5855 43.7779 43.6754C44.2262 44.7654 44.8886 45.7543 45.7257 46.5839C46.5629 47.4134 47.5579 48.0667 48.6518 48.5051C49.7458 48.9435 50.9166 49.1581 52.0949 49.1362C53.5371 49.1362 54.7616 48.8641 56.2582 48.1294V44.211C54.9521 45.5716 53.7548 46.0886 52.2582 46.0886C48.9113 46.0886 46.5439 43.6396 46.5439 40.211C46.5439 36.9457 48.9929 34.3607 52.0949 34.3607C53.7004 34.3607 54.8976 34.9049 56.2854 36.2654V32.3743C54.9207 31.6542 53.3936 31.2979 51.8511 31.3398C50.3087 31.3817 48.8031 31.8203 47.4795 32.6133C46.1559 33.4064 45.059 34.5271 44.2946 35.8675C43.5302 37.2078 43.124 38.7225 43.1153 40.2655V40.2382ZM82.6255 43.1498L78.0813 31.694H74.4351L81.6732 49.1906H83.4691L90.816 31.694H87.2242L82.6255 43.1498ZM92.3398 48.7552H101.755V45.8709H95.6596V41.2723H101.537V38.3607H95.6596V34.6056H101.755V31.694H92.3398V48.7552ZM114.898 36.728C114.898 33.5444 112.721 31.694 108.884 31.694H103.959V48.7552H107.279V41.8981H107.714L112.313 48.7552H116.394L111.034 41.5716C113.537 41.0546 114.898 39.3403 114.898 36.728ZM108.231 39.558H107.279V34.3879H108.285C110.353 34.3879 111.496 35.2586 111.496 36.9185C111.496 38.6328 110.353 39.558 108.231 39.558Z" fill="#231F20"/>
<path d="M66.4079 49.3539C71.4122 49.3539 75.4691 45.297 75.4691 40.2927C75.4691 35.2883 71.4122 31.2314 66.4079 31.2314C61.4035 31.2314 57.3466 35.2883 57.3466 40.2927C57.3466 45.297 61.4035 49.3539 66.4079 49.3539Z" fill="url(#paint0_linear_1615_3171)"/>
<path d="M66.4079 49.3539C71.4122 49.3539 75.4691 45.297 75.4691 40.2927C75.4691 35.2883 71.4122 31.2314 66.4079 31.2314C61.4035 31.2314 57.3466 35.2883 57.3466 40.2927C57.3466 45.297 61.4035 49.3539 66.4079 49.3539Z" fill="url(#paint1_linear_1615_3171)"/>
<path d="M117.02 32.347C117.02 32.0477 116.83 31.8844 116.476 31.8844H115.986V33.381H116.34V32.8096L116.748 33.381H117.183L116.694 32.7552C116.911 32.7008 117.02 32.5647 117.02 32.347ZM116.394 32.5375H116.34V32.1565H116.394C116.585 32.1565 116.666 32.211 116.666 32.347C116.666 32.4831 116.585 32.5375 116.394 32.5375Z" fill="#231F20"/>
<path d="M116.53 31.3402C116.189 31.3402 115.86 31.474 115.616 31.7131C115.372 31.9522 115.231 32.2775 115.224 32.6191C115.224 33.3538 115.823 33.9253 116.53 33.9253C116.877 33.9253 117.209 33.7877 117.454 33.5427C117.699 33.2978 117.836 32.9656 117.836 32.6191C117.836 32.2727 117.699 31.9405 117.454 31.6956C117.209 31.4506 116.877 31.313 116.53 31.313V31.3402ZM116.53 33.7076C116.391 33.7041 116.254 33.6731 116.126 33.6165C115.999 33.5599 115.884 33.4787 115.788 33.3776C115.692 33.2765 115.617 33.1575 115.567 33.0274C115.517 32.8972 115.493 32.7585 115.496 32.6191C115.496 32.0477 115.959 31.5579 116.53 31.5579C117.075 31.5579 117.564 32.0477 117.564 32.6464C117.564 33.2178 117.102 33.7076 116.53 33.7076Z" fill="#231F20"/>
<defs>
<linearGradient id="paint0_linear_1615_3171" x1="91.6389" y1="47.5308" x2="90.1653" y2="33.8441" gradientUnits="userSpaceOnUse">
<stop stop-color="#F89F21"/>
<stop offset="0.3" stop-color="#F79A23"/>
<stop offset="0.5" stop-color="#F78E22"/>
<stop offset="0.6" stop-color="#F68721"/>
<stop offset="0.7" stop-color="#F48220"/>
<stop offset="1" stop-color="#F27623"/>
</linearGradient>
<linearGradient id="paint1_linear_1615_3171" x1="85.6556" y1="47.3947" x2="83.7222" y2="24.96" gradientUnits="userSpaceOnUse">
<stop stop-color="#F68721" stop-opacity="0"/>
<stop offset="0.4" stop-color="#E27027" stop-opacity="0.3"/>
<stop offset="0.7" stop-color="#D4612C" stop-opacity="0.5"/>
<stop offset="1" stop-color="#D15D2D" stop-opacity="0.7"/>
</linearGradient>
</defs>
</svg>
