<svg width="68" height="68" viewBox="0 0 68 68" fill="none" xmlns="http://www.w3.org/2000/svg">
<g id="Group 4">
<path id="Circle_1_" d="M33.6839 67.3649C52.287 67.3649 67.3678 52.2847 67.3678 33.6824C67.3678 15.0801 52.287 0 33.6839 0C15.0808 0 0 15.0801 0 33.6824C0 52.2847 15.0808 67.3649 33.6839 67.3649Z" fill="url(#paint0_radial_2138_3872)"/>
<g id="PSE_1_">
<path id="Vector" d="M42.7683 25.3963H34.7944C34.7586 25.3963 34.7228 25.3912 34.6877 25.3984C33.4189 25.6736 31.0278 26.9706 31.0401 29.8032C30.9742 30.893 31.4515 32.6279 33.7306 33.3511C33.7375 33.3511 39.4147 33.3511 39.4147 33.3511C39.6663 33.3511 41.2186 33.7061 41.1155 36.4137C41.0114 39.1432 38.6843 39.4979 38.3494 39.8595H29.542C29.2643 39.8595 29.0391 40.1242 29.0391 40.4019C29.0391 40.6796 29.2643 40.9443 29.542 40.9443H38.3979C38.4265 40.9443 38.4547 40.8119 38.4829 40.8069C39.692 40.6001 42.0079 39.3598 42.1211 36.393C42.2672 32.5563 39.4913 32.314 39.4631 32.3122C39.4671 32.3111 33.8528 32.296 33.8528 32.296C31.9361 31.9452 32.0395 29.9102 32.0453 29.8217C32.046 29.8094 32.0463 29.8412 32.0463 29.8289C32.0257 27.2591 34.4679 26.481 34.8537 26.481H42.7687C43.0464 26.481 43.2717 26.2163 43.2717 25.9386C43.2713 25.6609 43.046 25.3963 42.7683 25.3963Z" fill="white"/>
<path id="Vector_2" d="M54.9096 25.3395C54.8637 25.3265 54.816 25.3963 54.7682 25.3963H48.8101C46.113 25.3963 44.8949 28.5193 44.8446 28.6556C44.8363 28.6776 44.8302 28.6614 44.8247 28.6845C44.7629 28.964 43.3108 35.5318 43.3596 37.7002C43.4062 39.7402 45.4839 40.4818 46.5759 40.5986C46.594 40.6008 46.612 40.5831 46.6305 40.5831H54.9136C55.1949 40.5831 55.4234 40.322 55.4234 40.0407C55.4234 39.7594 55.1953 39.4983 54.9136 39.4983H46.6616C46.4023 39.4983 44.4154 39.1953 44.3796 37.6163C44.3605 36.7688 44.6016 35.1467 44.8923 33.508L56.4199 33.4219C56.6658 33.4201 56.8755 33.2477 56.9178 33.005C56.9403 32.8785 57.458 29.9305 57.458 28.1627C57.4577 26.0594 55.0137 25.3699 54.9096 25.3395ZM55.9824 32.416L45.0793 32.5071C45.4141 30.7307 45.7547 29.2746 45.8122 29.0132C45.9286 28.7221 46.9288 26.4807 48.8101 26.4807H54.6876C55.0058 26.4807 56.4384 27.0433 56.4384 28.2354C56.4384 29.5389 56.1253 31.528 55.9824 32.416Z" fill="white"/>
<path id="Vector_3" d="M29.524 28.4497C29.823 26.4151 27.2532 25.3965 26.7723 25.3965C26.7716 25.3965 26.7709 25.3965 26.7709 25.3965C24.6958 25.3965 21.5522 25.4677 21.2242 25.4565C21.1805 25.4518 21.1353 25.4807 21.0897 25.4876C19.8047 25.6923 18.0597 27.3472 17.4992 28.8782L17.5079 28.8886C17.4518 29.0593 17.4027 29.3225 17.3278 29.7181C17.2371 30.1965 17.1101 30.8817 16.9586 31.7014C16.6564 33.3394 16.2575 35.5244 15.8598 37.7084C15.0643 42.0759 14.2746 46.4434 14.2746 46.4434C14.2258 46.7128 14.4048 46.971 14.6742 47.0198C14.7038 47.0252 14.7335 47.0281 14.7628 47.0281C14.9978 47.0281 15.2068 46.8604 15.2498 46.6203C15.5839 44.774 16.1317 41.7505 16.6806 38.736C17.9747 40.3685 19.5845 40.5399 19.6651 40.5475C19.685 40.5497 19.7049 40.5511 19.7255 40.5493L24.8205 40.4036C24.8643 40.4025 24.9069 40.3956 24.9485 40.383C27.3657 39.658 28.0925 37.1638 28.1225 37.0579C28.1272 37.0401 28.1315 37.0221 28.1344 37.0036L29.5175 28.5321C29.5211 28.514 29.5214 28.4678 29.524 28.4497ZM28.5347 28.4305L27.1618 36.8105C27.0902 37.0351 26.4589 38.8567 24.7251 39.4143L19.7352 39.5568C19.5053 39.5246 17.9483 39.2382 16.9395 37.3168C17.6742 33.284 18.3489 29.6086 18.4361 29.2184C18.8985 27.976 20.3944 26.641 21.2336 26.4975C21.4238 26.5091 21.6838 26.5094 22.0436 26.5102C22.569 26.5109 23.2708 26.5105 23.9719 26.5091C25.1337 26.5073 26.2947 26.5033 26.6581 26.5018C27.2467 26.4975 28.6779 27.4966 28.5347 28.4305Z" fill="white"/>
</g>
<g id="Figures">
<path id="Vector_4" d="M6.57278 25.108C7.35619 25.108 7.99127 24.4305 7.99127 23.5948C7.99127 22.759 7.35619 22.0815 6.57278 22.0815C5.78937 22.0815 5.1543 22.759 5.1543 23.5948C5.1543 24.4305 5.78937 25.108 6.57278 25.108Z" fill="#FDB718"/>
<path id="Vector_5" d="M5.14049 18.818C5.14049 18.1531 4.73588 17.5944 4.17687 17.3916C3.70465 18.246 3.26822 19.1232 2.87012 20.021C3.10804 20.213 3.40092 20.3313 3.722 20.3313C4.50555 20.3313 5.14049 19.6537 5.14049 18.818Z" fill="#FDB718"/>
<path id="Vector_6" d="M2.27663 23.5949C2.27663 23.1845 2.12223 22.8132 1.87347 22.5405C1.58203 23.3736 1.32205 24.2212 1.0957 25.0824C1.76535 24.9613 2.27663 24.3437 2.27663 23.5949Z" fill="#FDB718"/>
<path id="Vector_7" d="M6.77103 43.5435C7.55443 43.5435 8.18951 42.866 8.18951 42.0303C8.18951 41.1946 7.55443 40.5171 6.77103 40.5171C5.98762 40.5171 5.35254 41.1946 5.35254 42.0303C5.35254 42.866 5.98762 43.5435 6.77103 43.5435Z" fill="#FDB718"/>
<path id="Vector_8" d="M1.75979 42.0306C1.75979 41.3996 1.32047 40.8829 0.750977 40.7969C0.912242 41.5443 1.09701 42.283 1.30709 43.0112C1.58081 42.782 1.75979 42.4301 1.75979 42.0306Z" fill="#FDB718"/>
<path id="Vector_9" d="M5.13393 46.9649C5.13393 46.1293 4.49899 45.4517 3.71544 45.4517C3.15607 45.4517 2.67734 45.7999 2.44629 46.3014C2.73989 47.026 3.05736 47.7383 3.39906 48.4369C3.50102 48.4618 3.60624 48.4777 3.71544 48.4777C4.49863 48.4781 5.13393 47.8005 5.13393 46.9649Z" fill="#FDB718"/>
<path id="Vector_10" d="M7.54188 37.328H4.69731C4.5129 36.9665 3.98463 36.3442 3.35403 36.3442C2.57049 36.3442 1.93555 37.0543 1.93555 37.8899C1.93555 38.7255 2.57049 39.4324 3.35403 39.4324C3.98463 39.4324 4.5129 39.1356 4.69731 38.4124H7.0259H7.82753H7.8955L10.8789 32.9887H15.48V32.2655H7.93745L4.83688 26.8418H4.62066H3.82264H0.682667C0.608904 27.2012 0.542373 27.5632 0.479819 27.9265H4.38599L6.92357 32.2655H0.0224181C0.0126554 32.506 0.00470057 32.7468 0 32.9887H10.0093L7.54188 37.328Z" fill="#FDB718"/>
</g>
<g id="ach_1_">
<path id="Vector_11" d="M19.1803 20.876H20.7011C20.7011 20.876 21.1469 21.0072 21.0681 21.5315L20.7795 23.5506H19.1799C19.1799 23.5506 18.4719 23.2885 18.8389 22.528C18.8389 22.528 19.1734 22.1216 19.4685 22.1216L20.9336 22.1708" stroke="white" stroke-miterlimit="10"/>
<path id="Vector_12" d="M23.7958 20.876H22.2746C22.2746 20.876 21.7503 21.1381 21.6191 21.8201C21.6191 21.8201 21.2651 22.8166 21.6845 23.5506L21.8617 23.59H23.2907" stroke="white" stroke-miterlimit="10"/>
<path id="Vector_13" d="M24.6735 19.6499L24.4525 20.876L23.959 23.6161" stroke="white" stroke-miterlimit="10"/>
<path id="Vector_14" d="M24.3613 21.3862C24.3613 21.3862 24.5432 21.0264 24.8578 20.8756C24.8578 20.8756 26.0051 20.7643 26.2083 21.0528C26.2083 21.0528 26.4379 21.1642 26.4245 21.4921L26.0705 23.5506" stroke="white" stroke-miterlimit="10"/>
</g>
</g>
<defs>
<radialGradient id="paint0_radial_2138_3872" cx="0" cy="0" r="1" gradientUnits="userSpaceOnUse" gradientTransform="translate(34.2862 33.5617) scale(33.6832)">
<stop offset="0.3155" stop-color="#2D5CA8"/>
<stop offset="0.5312" stop-color="#285496"/>
<stop offset="0.7289" stop-color="#1F4272"/>
<stop offset="1" stop-color="#0D2D4D"/>
</radialGradient>
</defs>
</svg>
