<svg width="128" height="80" viewBox="0 0 128 80" fill="none" xmlns="http://www.w3.org/2000/svg">
<path d="M99 5H29V75H99V5Z" fill="white"/>
<path d="M95.5945 8.40543H32.4125V71.5874H95.5945V8.40543Z" fill="#FFCB05"/>
<path d="M93.617 39.8146C93.617 46.5591 80.359 52.0261 64.007 52.0261C47.6515 52.0261 34.3935 46.5591 34.3935 39.8146C34.3935 33.0701 47.6515 27.6066 64.007 27.6066C80.359 27.6066 93.617 33.0701 93.617 39.8146Z" fill="#00678F"/>
<path d="M45.0336 45.8415L48.0961 33.63H52.9891V40.742L56.2056 33.63H61.2561L58.1971 45.8415H54.9806L56.8146 37.9595L52.9891 45.8415H50.3921V37.9595L48.3971 45.8415H45.0336Z" fill="white"/>
<path d="M62.2463 45.9955L62.7048 44.2945H66.2257L65.7638 45.9955H62.2463Z" fill="#ED1D24"/>
<path d="M70.1249 45.8416L73.1839 33.6301H76.7049L78.2379 40.1261L79.9179 33.6301H83.1309L80.0719 45.8416H76.7049L75.0214 39.1951L73.3379 45.8416H70.1249Z" fill="white"/>
<path d="M62.2465 33.6301L61.48 36.7241H64.6965L62.964 43.4336H66.4815L68.2175 36.7241H71.4305L72.1935 33.6301H62.2465Z" fill="#FFCB05"/>
</svg>
