<svg width="120" height="34" viewBox="0 0 120 34" fill="none" xmlns="http://www.w3.org/2000/svg">
<g id="Group 2">
<path id="Vector" d="M84.2152 7.53272C82.428 7.53272 80.681 8.0627 79.1951 9.05565C77.7091 10.0486 76.551 11.4599 75.8672 13.1111C75.1834 14.7622 75.0046 16.5791 75.3535 18.3319C75.7023 20.0847 76.5631 21.6947 77.827 22.9582C79.0909 24.2217 80.7011 25.0821 82.454 25.4304C84.2069 25.7788 86.0237 25.5995 87.6747 24.9152C89.3257 24.2309 90.7367 23.0724 91.7292 21.5862C92.7217 20.1 93.2512 18.3528 93.2507 16.5657C93.2507 15.3792 93.017 14.2044 92.5629 13.1083C92.1088 12.0122 91.4432 11.0163 90.6041 10.1775C89.7651 9.33868 88.769 8.67337 87.6727 8.21957C86.5765 7.76577 85.4016 7.53238 84.2152 7.53272ZM84.2152 21.7024C83.2019 21.6994 82.2123 21.3962 81.3713 20.831C80.5302 20.2658 79.8755 19.4641 79.4899 18.5271C79.1042 17.5901 79.0049 16.5598 79.2044 15.5664C79.404 14.5729 79.8934 13.6609 80.611 12.9455C81.3286 12.2301 82.2421 11.7434 83.2361 11.5468C84.2301 11.3502 85.2601 11.4526 86.196 11.8411C87.1318 12.2296 87.9316 12.8867 88.4942 13.7294C89.0568 14.5721 89.3571 15.5626 89.3571 16.5759C89.3571 17.2504 89.224 17.9183 88.9654 18.5413C88.7068 19.1643 88.3278 19.7301 87.8501 20.2064C87.3725 20.6826 86.8055 21.0599 86.1818 21.3166C85.558 21.5734 84.8897 21.7045 84.2152 21.7024Z" fill="#1E2330"/>
<path id="Vector_2" d="M48.4775 7.53272C46.6903 7.53221 44.943 8.06177 43.4567 9.0544C41.9704 10.047 40.8119 11.4582 40.1277 13.1093C39.4435 14.7604 39.2644 16.5774 39.6129 18.3303C39.9615 20.0833 40.8221 21.6935 42.0859 22.9573C43.3497 24.2211 44.9599 25.0817 46.7129 25.4302C48.4658 25.7788 50.2828 25.5996 51.9339 24.9155C53.585 24.2313 54.9961 23.0728 55.9888 21.5865C56.9814 20.1002 57.511 18.3529 57.5105 16.5657C57.5098 14.1702 56.5579 11.873 54.864 10.1792C53.1702 8.4853 50.873 7.53339 48.4775 7.53272ZM48.4775 21.7024C47.4641 21.6999 46.4743 21.3971 45.6329 20.8322C44.7915 20.2674 44.1364 19.4659 43.7504 18.5289C43.3643 17.5919 43.2646 16.5615 43.4639 15.5679C43.6631 14.5743 44.1524 13.6621 44.8699 12.9464C45.5873 12.2307 46.5008 11.7437 47.4949 11.547C48.489 11.3502 49.5191 11.4525 50.4551 11.8409C51.3911 12.2292 52.191 12.8863 52.7538 13.7291C53.3165 14.5719 53.6169 15.5625 53.6169 16.5759C53.6169 17.2502 53.4839 17.9179 53.2254 18.5407C52.967 19.1635 52.5882 19.7292 52.1108 20.2055C51.6334 20.6817 51.0668 21.059 50.4433 21.3159C49.8198 21.5728 49.1518 21.7041 48.4775 21.7024Z" fill="#1E2330"/>
<path id="Vector_3" d="M74.1895 25.1526H58.915V22.1869L68.1428 11.6775H60.6863C60.2165 11.6775 59.766 11.4909 59.4338 11.1588C59.1016 10.8266 58.915 10.3761 58.915 9.90633V7.94287H74.1895V10.9803L64.5363 21.4282H72.4209C72.6534 21.4282 72.8836 21.474 73.0983 21.5631C73.3131 21.6521 73.5081 21.7826 73.6724 21.9471C73.8367 22.1116 73.9669 22.3069 74.0556 22.5218C74.1444 22.7367 74.1899 22.9669 74.1895 23.1994V25.1526Z" fill="#1E2330"/>
<path id="Vector_4" d="M114.276 25.186H110.175L106.794 15.0482L103.38 25.186H99.2788L93.5576 7.94287H96.3285C96.8356 7.9428 97.3296 8.10355 97.7395 8.40202C98.1495 8.70048 98.4542 9.12127 98.6098 9.60387L101.488 18.5292L105 7.94287H108.553L112.07 18.5625L114.948 9.60899C115.103 9.12592 115.408 8.70457 115.818 8.40562C116.228 8.10666 116.722 7.94553 117.229 7.94543H120L114.276 25.186Z" fill="#1E2330"/>
<path id="Vector_5" d="M31.9364 16.0812C31.5615 16.1283 31.1832 16.0246 30.8847 15.793C30.5862 15.5613 30.392 15.2205 30.3446 14.8457C30.0232 12.2939 28.9904 9.88393 27.3644 7.89119C25.7384 5.89844 23.5846 4.40322 21.1492 3.57636C18.7138 2.74949 16.0949 2.62431 13.5917 3.21512C11.0885 3.80593 8.80197 5.0889 6.99329 6.91748C6.72605 7.18451 6.36371 7.33452 5.98592 7.33452C5.60813 7.33452 5.2458 7.18451 4.97856 6.91748C4.71153 6.65024 4.56152 6.28791 4.56152 5.91012C4.56152 5.53233 4.71153 5.16999 4.97856 4.90275C7.1642 2.69791 9.9255 1.15171 12.9475 0.440495C15.9695 -0.270717 19.1306 -0.118306 22.0701 0.880345C25.0097 1.879 27.6095 3.68368 29.5728 6.08857C31.5362 8.49346 32.7842 11.4017 33.1745 14.4817C33.2216 14.8566 33.118 15.2349 32.8863 15.5334C32.6546 15.8319 32.3139 16.0261 31.939 16.0735L31.9364 16.0812Z" fill="url(#paint0_linear_2138_3852)"/>
<path id="Vector_6" d="M16.7347 21.8307C15.6938 21.8312 14.6761 21.523 13.8104 20.945C12.9446 20.3671 12.2697 19.5454 11.871 18.5839C11.4723 17.6224 11.3678 16.5642 11.5705 15.5432C11.7733 14.5223 12.2743 13.5843 13.0101 12.8481C13.746 12.1119 14.6837 11.6105 15.7045 11.4072C16.7254 11.204 17.7836 11.308 18.7453 11.7062C19.7071 12.1045 20.5291 12.779 21.1074 13.6444C21.6858 14.5099 21.9945 15.5274 21.9945 16.5683C21.9931 17.9631 21.4386 19.3004 20.4526 20.287C19.4665 21.2735 18.1295 21.8286 16.7347 21.8307ZM16.7347 14.1563C16.2576 14.1563 15.7913 14.2977 15.3946 14.5628C14.998 14.8278 14.6888 15.2045 14.5062 15.6452C14.3237 16.086 14.2759 16.571 14.369 17.0389C14.4621 17.5067 14.6918 17.9365 15.0291 18.2739C15.3664 18.6112 15.7962 18.8409 16.2641 18.934C16.732 19.027 17.217 18.9793 17.6577 18.7967C18.0985 18.6142 18.4752 18.305 18.7402 17.9083C19.0052 17.5117 19.1467 17.0453 19.1467 16.5683C19.146 15.9288 18.8917 15.3157 18.4395 14.8635C17.9873 14.4113 17.3742 14.1569 16.7347 14.1563Z" fill="url(#paint1_linear_2138_3852)"/>
<path id="Vector_7" d="M20.1405 7.284C20.1421 7.38667 20.1309 7.48914 20.1072 7.58903C20.0393 7.90845 19.8632 8.19462 19.6086 8.39918C19.3541 8.60375 19.0367 8.71415 18.7102 8.71174C18.6084 8.71193 18.507 8.70075 18.4077 8.67842C17.8609 8.56152 17.3033 8.50225 16.7442 8.50155C14.7391 8.51385 12.8028 9.23373 11.2767 10.5342C10.5744 11.1468 9.88487 11.862 9.22611 12.5566C8.88007 12.9181 8.53659 13.2744 8.20081 13.6204L3.16655 18.6444L1.40559 20.4054C1.31369 20.4986 1.19821 20.5651 1.07146 20.5978C0.944716 20.6305 0.811467 20.6282 0.685939 20.5911C0.56041 20.554 0.447314 20.4835 0.35872 20.3871C0.270127 20.2907 0.209363 20.1721 0.182914 20.0439C0.118832 19.7107 0.0624401 19.3749 0.0188646 19.034C-0.0263646 18.6825 0.00999808 18.3253 0.125131 17.9901C0.240264 17.655 0.431072 17.3508 0.68275 17.1013L3.14861 14.6329L6.17326 11.6057C6.50649 11.275 6.83459 10.9315 7.16268 10.5804C7.87527 9.83445 8.6058 9.0706 9.4081 8.37083C10.5548 7.38966 11.8878 6.65032 13.3273 6.19718C15.164 5.59984 17.1252 5.49467 19.0152 5.89215C19.334 5.9598 19.6199 6.13505 19.8247 6.38848C20.0296 6.64191 20.1411 6.95811 20.1405 7.284Z" fill="url(#paint2_linear_2138_3852)"/>
<path id="Vector_8" d="M16.7345 33.1371C13.8607 33.1274 11.0383 32.3745 8.54153 30.9516C6.04474 29.5287 3.95842 27.4842 2.4853 25.0167C2.32595 24.7451 2.26139 24.4283 2.30176 24.116C2.34213 23.8037 2.48514 23.5137 2.7083 23.2916L6.91974 19.0827C7.0864 18.9161 7.29177 18.7935 7.51746 18.7257C7.74315 18.658 7.98212 18.6472 8.21297 18.6945C8.44383 18.7417 8.65938 18.8454 8.84031 18.9964C9.02124 19.1474 9.16192 19.3408 9.24975 19.5595C9.9518 21.3076 11.2437 22.7548 12.9013 23.6499C14.5589 24.545 16.4776 24.8315 18.3244 24.4597C20.1712 24.0879 21.8295 23.0813 23.0116 21.6145C24.1938 20.1477 24.825 18.3134 24.796 16.4297C24.7919 16.14 24.7713 15.8508 24.7344 15.5634C24.5028 13.7338 23.6505 12.0392 22.3198 10.7624C22.0469 10.5009 21.889 10.1418 21.8809 9.76403C21.8727 9.38621 22.0149 9.02062 22.2763 8.74764C22.406 8.61273 22.5612 8.50476 22.7328 8.42992C22.9043 8.35508 23.089 8.31484 23.2762 8.3115C23.4633 8.30817 23.6493 8.34181 23.8235 8.41049C23.9976 8.47918 24.1565 8.58155 24.291 8.71176C26.0887 10.437 27.2419 12.7255 27.5592 15.1968C27.6192 15.6514 27.6483 16.1096 27.6463 16.5682C27.6453 18.9253 26.881 21.2187 25.4679 23.1053C24.0547 24.9918 22.0687 26.3701 19.8069 27.0338C17.5452 27.6975 15.1293 27.6109 12.9208 26.7871C10.7123 25.9633 8.82998 24.4465 7.55543 22.4637L5.53814 24.481C6.76296 26.2154 8.37403 27.6416 10.2443 28.647C12.1145 29.6524 14.1928 30.2095 16.3151 30.2744C18.4375 30.3393 20.5459 29.9101 22.4741 29.0208C24.4022 28.1315 26.0974 26.8064 27.4259 25.15C27.5433 25.0042 27.6883 24.883 27.8526 24.7932C28.017 24.7035 28.1973 24.647 28.3835 24.627C28.5696 24.607 28.7579 24.6239 28.9375 24.6767C29.1171 24.7295 29.2846 24.8171 29.4303 24.9347C29.576 25.0519 29.6972 25.1967 29.7869 25.3608C29.8766 25.5249 29.9331 25.705 29.9531 25.891C29.9731 26.0769 29.9562 26.265 29.9035 26.4444C29.8507 26.6238 29.7631 26.791 29.6457 26.9366C28.0972 28.8732 26.1325 30.4362 23.8973 31.5096C21.6622 32.583 19.214 33.1393 16.7345 33.1371Z" fill="url(#paint3_linear_2138_3852)"/>
</g>
<defs>
<linearGradient id="paint0_linear_2138_3852" x1="7.0061" y1="-5.12474" x2="34.2357" y2="25.7165" gradientUnits="userSpaceOnUse">
<stop stop-color="#00E587"/>
<stop offset="1" stop-color="#00B8AD"/>
</linearGradient>
<linearGradient id="paint1_linear_2138_3852" x1="1.70882" y1="-0.446659" x2="28.9409" y2="30.3945" gradientUnits="userSpaceOnUse">
<stop stop-color="#00E587"/>
<stop offset="1" stop-color="#00B8AD"/>
</linearGradient>
<linearGradient id="paint2_linear_2138_3852" x1="-0.445086" y1="1.45514" x2="26.787" y2="32.2963" gradientUnits="userSpaceOnUse">
<stop stop-color="#00E587"/>
<stop offset="1" stop-color="#00B8AD"/>
</linearGradient>
<linearGradient id="paint3_linear_2138_3852" x1="-0.408632" y1="1.42183" x2="26.8235" y2="32.263" gradientUnits="userSpaceOnUse">
<stop stop-color="#00E587"/>
<stop offset="1" stop-color="#00B8AD"/>
</linearGradient>
</defs>
</svg>
