<svg width="128" height="80" viewBox="0 0 128 80" fill="none" xmlns="http://www.w3.org/2000/svg">
<path fill-rule="evenodd" clip-rule="evenodd" d="M40.5216 23.1246H48.7608C51.3797 23.1246 53.5242 25.2692 53.5242 27.888V41.5862C53.5242 44.2071 51.3797 46.3516 48.7608 46.3516H40.5216C39.2595 46.3474 38.0504 45.8442 37.158 44.9518C36.2656 44.0594 35.7624 42.8503 35.7582 41.5882V27.888C35.7582 25.2672 37.9007 23.1226 40.5216 23.1226" fill="white"/>
<path fill-rule="evenodd" clip-rule="evenodd" d="M40.5216 23.1246H48.7608C51.3797 23.1246 53.5242 25.2692 53.5242 27.888L53.5243 41.5883C53.5243 44.2072 51.3797 46.3516 48.7608 46.3516H40.5216C39.2595 46.3474 38.0504 45.8442 37.158 44.9518C36.2656 44.0594 35.7624 42.8503 35.7582 41.5882V27.888C35.7582 25.2672 37.9007 23.1226 40.5216 23.1226V23.1246ZM51.7385 66.7984H37.5441C35.4693 66.7984 33.7712 65.1023 33.7712 63.0275V21.4366C33.7712 19.3638 35.4693 17.6657 37.5441 17.6657H51.7385C51.906 17.6657 52.0714 17.6757 52.2348 17.6976V14.6383C52.2328 13.7374 52.9703 13 53.8711 13C54.772 13 55.5094 13.7374 55.5094 14.6383V19.8003C55.5094 20.0275 55.4616 20.2467 55.3759 20.446C55.4636 20.7609 55.5094 21.0938 55.5094 21.4366V63.0275C55.5094 65.1003 53.8133 66.7984 51.7385 66.7984Z" fill="#DBE4C5"/>
<path fill-rule="evenodd" clip-rule="evenodd" d="M63.7127 26.2558C65.9469 25.9369 67.6629 26.5567 67.7805 30.0785C67.7068 33.2215 66.0366 34.0167 63.7107 33.8493L63.7127 26.2558ZM58.8457 23.9977L67.9041 23.9618C71.2066 24.3803 72.7332 26.8517 72.5937 30.4492C72.3426 34.0725 70.2878 35.8444 66.8557 36.1553L63.5672 36.0895L63.6609 46.0328H58.8457V23.9977ZM81.0064 23.7226L86.7424 23.6967L86.6985 26.1581L82.2062 26.1382C79.6152 26.6205 80.1952 29.3849 80.0696 31.3819L86.1126 31.2703L86.1325 34.2898L80.2789 34.23L80.251 41.5445C80.4802 43.4419 81.4787 44.3945 83.1628 44.5061L86.3816 44.4703L87.3622 44.4902L87.3303 46.7762L86.3258 46.8141L80.2131 46.7483C78.1065 46.6766 76.4064 45.6322 75.6231 42.3836L75.4717 28.191C75.5574 25.2812 77.4807 23.8542 81.0064 23.7226ZM88.847 29.9529C88.4863 25.1975 91.137 24.1212 94.3558 23.7485C98.1267 23.5253 100.494 25.0978 100.957 29.1098L96.5063 29.0979C96.2233 27.071 94.6488 26.2937 93.2098 27.2583C91.157 29.7695 97.5646 34.1921 99.4839 35.8324C102.806 38.4592 102.244 45.7379 97.1282 47.0872L94.009 47.1988C90.8401 47.2745 88.9547 45.2735 88.4086 41.5624L92.8929 41.4827C93.1381 43.0672 93.8137 44.0537 95.2507 43.982C97.4829 43.5575 98.0968 41.5923 96.5083 39.0831C93.1839 36.2609 89.2476 33.6121 88.847 29.9529ZM10 23.0051H14.7136L14.7634 24.468C17.6134 23.2363 19.76 22.3674 22.0101 24.3943C26.0341 22.4949 29.0755 22.7102 30.5842 26.2359L30.7955 46.0328H26.0421V27.1507C25.6893 25.5343 24.4097 25.2573 22.8651 25.3629V46.0308H18.0021V27.1507C17.6493 25.5343 16.3678 25.2573 14.8252 25.3629V46.0308H10V23.0051ZM108.491 27.9997C108.65 26.7022 109.072 26.1801 110.5 26.0405C111.946 26.0764 112.461 26.9115 112.56 28.199V31.7227H108.491V27.9997ZM103.602 46.6108H108.491V34.4532H112.56V46.6108H117.3V29.2434C117.204 25.7117 114.49 23.4994 110.649 23.4855C106.264 23.4456 103.765 25.5263 103.602 29.0461V46.6128" fill="#69AC22"/>
<path fill-rule="evenodd" clip-rule="evenodd" d="M39.553 32.3925C40.3702 34.2998 41.4783 35.1768 42.8216 35.2286C40.7269 36.7951 38.4568 37.7478 36.0931 38.3557C34.6103 38.26 33.1892 37.8814 31.812 37.5047C35.2939 36.8171 37.8908 35.1329 39.553 32.3925Z" fill="#7F1D1E"/>
<path fill-rule="evenodd" clip-rule="evenodd" d="M48.6851 27.4795L58.5109 32.4422C53.5083 39.0273 45.0678 39.1987 36.0791 38.3476C42.0881 36.8668 46.2496 33.1956 48.6851 27.4795Z" fill="#EC1D27"/>
</svg>
