<svg width="64" height="64" viewBox="0 0 64 64" fill="none" xmlns="http://www.w3.org/2000/svg">
<g id="Group">
<path id="Vector" d="M64 0H0V64H64V0Z" fill="#FF7900"/>
<g id="Group_2">
<path id="Vector_2" d="M25.1034 57.7921C24.2004 58.379 23.2071 58.6725 22.1686 58.6725C20.4981 58.6725 19.5273 57.5663 19.5273 56.0764C19.5273 54.0898 21.3559 53.0288 25.1259 52.5998V52.1032C25.1259 51.4485 24.6293 51.0873 23.7263 51.0873C22.8233 51.0873 22.0783 51.4485 21.5591 52.1032L19.9788 51.2002C20.8141 50.0489 22.0783 49.4619 23.7714 49.4619C26.0967 49.4619 27.406 50.4778 27.406 52.1032C27.406 52.1032 27.406 58.537 27.406 58.5596H25.3291L25.1034 57.7921ZM21.8074 55.9183C21.8074 56.5053 22.1912 57.0697 22.8684 57.0697C23.6134 57.0697 24.3132 56.7536 25.0356 56.1215V54.0221C22.8459 54.3155 21.8074 54.8573 21.8074 55.9183Z" fill="white"/>
<path id="Vector_3" d="M29.2344 49.9133L31.1758 49.6424L31.379 50.7034C32.4852 49.9133 33.343 49.4844 34.4492 49.4844C36.2778 49.4844 37.2259 50.4551 37.2259 52.374V58.5821H34.8781V52.7803C34.8781 51.6967 34.5846 51.2001 33.7494 51.2001C33.0495 51.2001 32.3497 51.5161 31.5596 52.1934V58.5821H29.2344V49.9133Z" fill="white"/>
<path id="Vector_4" d="M52.7575 58.7402C50.1388 58.7402 48.5586 57.0471 48.5586 54.1124C48.5586 51.155 50.1388 49.4619 52.7124 49.4619C55.2859 49.4619 56.821 51.0873 56.821 53.9995C56.821 54.1575 56.7985 54.3155 56.7985 54.451H50.8612C50.8838 56.1441 51.5836 56.9794 52.9607 56.9794C53.8411 56.9794 54.4281 56.6182 54.9699 55.8281L56.6856 56.7762C55.9406 58.063 54.5861 58.7402 52.7575 58.7402ZM54.5184 52.9385C54.5184 51.742 53.8411 51.0422 52.735 51.0422C51.6739 51.0422 51.0193 51.7194 50.929 52.9385H54.5184Z" fill="white"/>
<path id="Vector_5" d="M7.87868 58.8306C5.55346 58.8306 3.47656 57.3633 3.47656 54.135C3.47656 50.9068 5.57603 49.4395 7.87868 49.4395C10.2039 49.4395 12.2808 50.9068 12.2808 54.135C12.2808 57.3633 10.2039 58.8306 7.87868 58.8306ZM7.87868 51.4035C6.14041 51.4035 5.80178 52.9837 5.80178 54.1125C5.80178 55.2638 6.11783 56.8215 7.87868 56.8215C9.63953 56.8215 9.95558 55.2412 9.95558 54.1125C9.95558 52.9837 9.61695 51.4035 7.87868 51.4035Z" fill="white"/>
<path id="Vector_6" d="M13.8838 49.6651H16.1187V50.7035C16.5476 50.1392 17.5861 49.4619 18.5794 49.4619C18.6697 49.4619 18.7826 49.4619 18.8729 49.4845V51.6743C18.8277 51.6743 18.8051 51.6743 18.76 51.6743C17.7441 51.6743 16.6154 51.8323 16.2767 52.6224V58.537H13.8838V49.6651Z" fill="white"/>
<path id="Vector_7" d="M42.9602 56.6635C44.7436 56.6409 44.8791 54.8349 44.8791 53.661C44.8791 52.2614 44.2018 51.1326 42.9376 51.1326C42.1024 51.1326 41.1542 51.7421 41.1542 53.7513C41.1768 54.8575 41.2445 56.6635 42.9602 56.6635ZM47.1591 49.6427V58.0857C47.1591 59.5756 47.0463 62.0137 42.8022 62.0589C41.0413 62.0589 39.4385 61.3591 39.0999 59.8465L41.4025 59.4853C41.4928 59.9143 41.7637 60.3658 43.0731 60.3658C44.2921 60.3658 44.8791 59.7788 44.8791 58.4017V57.3633L44.8565 57.3407C44.4953 57.9954 43.9084 58.6275 42.5539 58.6275C40.477 58.6275 38.8516 57.1827 38.8516 54.1802C38.8516 51.2003 40.5447 49.5298 42.441 49.5298C44.2244 49.5298 44.8791 50.3425 45.0371 50.7714H45.0145L45.2177 49.7104H47.1591V49.6427Z" fill="white"/>
<path id="Vector_8" d="M57.7247 46.685H56.7992V49.236H56.3025V46.685H55.377V46.3013H57.7022V46.685H57.7247ZM61.5625 49.236H61.0658V46.7753H61.0433L60.0725 49.236H59.7565L58.7858 46.7753H58.7632V49.236H58.2665V46.3013H59.0115L59.8919 48.5362L60.7498 46.3013H61.4948V49.236H61.5625Z" fill="white"/>
</g>
</g>
</svg>
