<svg width="100" height="32" viewBox="0 0 100 32" fill="none" xmlns="http://www.w3.org/2000/svg">
<g id="Group 3">
<path id="Vector" d="M47.8257 23.0204C47.4518 23.2679 46.6856 23.48 45.8532 23.48C44.3253 23.48 43.638 22.3802 43.6665 21.1008C43.6906 20.0405 44.3953 18.839 46.3036 18.839L47.826 18.8383V23.0204H47.8257ZM46.2549 11.2611C44.4418 11.2611 42.8101 11.7417 41.1332 12.5223L40.7053 12.7291L41.7261 14.8648L42.3016 14.6097C43.4891 14.1114 44.7541 13.7775 45.8914 13.8221C47.2682 13.8758 47.8315 14.4675 47.8315 15.7024V16.427H45.5803C41.9617 16.427 39.7099 18.2253 39.6449 21.0175C39.6449 23.6709 42.0046 25.9551 45.2852 25.9551C47.9326 25.9551 50.1755 25.1498 51.6868 23.7306V16.1592C51.6868 12.4722 48.8792 11.2611 46.2549 11.2611ZM99.9997 23.4706V25.7098C99.9997 25.7098 99.1978 25.8534 98.5482 25.8534C95.515 25.8534 93.7042 24.5138 93.7042 21.3855V8.19222L97.5129 7.58394V21.6167C97.5129 22.7009 97.8451 23.3497 99.427 23.4652C99.6429 23.48 100 23.4704 100 23.4704L99.9997 23.4706ZM83.2939 16.809C83.3581 15.4349 83.9682 14.0224 85.4685 14.0224C87.157 14.0224 87.4061 15.7395 87.4061 16.809H83.2939ZM86.2898 23.4543C85.2484 23.4543 84.5456 23.134 84.0848 22.668C83.4011 21.9759 83.098 20.5528 83.1805 19.0399H91.3721V18.687C91.299 13.6599 89.4708 11.3698 85.4688 11.3698C81.002 11.3698 79.2623 15.2221 79.2297 18.8416C79.202 21.1315 80.1232 23.4369 81.8075 24.7502C82.8333 25.549 84.2558 25.9917 85.9044 25.9917C86.8027 25.9917 87.7416 25.8663 88.5977 25.618C90.2411 25.1405 91.4538 24.3158 91.4538 24.3158L90.3825 22.2489C90.1896 22.3854 88.549 23.4543 86.2898 23.4543ZM77.8938 23.4836V25.6906C77.8938 25.6906 77.1913 25.8214 76.4456 25.8214C73.3432 25.8214 71.492 24.417 71.492 21.4478V8.18988L75.3866 7.60341V11.5206H77.8927V14.1387H75.3866V21.5986C75.3866 22.5753 75.7082 23.4192 77.3416 23.4729C77.5625 23.4802 77.8526 23.48 77.8938 23.4836ZM54.5315 12.0941L58.3312 11.5128V25.6982H54.5315V12.0941ZM56.4702 5.84451C57.1312 5.84451 57.7427 6.08584 58.1919 6.52336C58.4106 6.73504 58.5816 6.98582 58.6948 7.26076C58.8079 7.5357 58.8608 7.82918 58.8504 8.12371C58.8504 9.3854 57.7903 10.3777 56.4365 10.3777C55.0851 10.3777 54.0233 9.38255 54.0233 8.10892C54.0233 6.86123 55.1214 5.84451 56.4702 5.84451ZM70.4681 11.7282L69.396 13.9817C69.396 13.9817 68.7837 13.798 67.841 13.8338C66.8212 13.8719 65.7486 14.2765 65.2437 14.7381V25.7083H61.3668L61.3696 14.0549C63.6779 11.7546 66.2391 11.2964 67.9077 11.2964C69.0597 11.2964 70.0515 11.5356 70.4681 11.7282ZM21.9899 0.375V0.414444H21.6536V0.453888H21.2749V0.493333H20.9386V0.532777H20.6441V0.571961H20.4337V0.611406H20.2237V0.65085H20.0133V0.690294H19.8032V0.729738H19.5928V0.769182H19.3827V0.808627H19.2568V0.848071H19.0885V0.887515H18.9202V0.926959H18.7522V0.966144H18.626V1.00559H18.4579V1.04503H18.2896V1.08448H18.1214V1.12392H17.9954V1.16336H17.8692V1.20281H17.743V1.24225H17.617V1.2817H17.4908V1.32114H17.3646V1.36033H17.2384V1.39977H17.1124V1.43921H16.9862V1.47866H16.86V1.5181H16.734V1.55755H16.6081V1.59699H16.4819V1.63644H16.3559V1.67588H16.2718V1.71532H16.1455V1.75451H16.0614V1.79395H15.9354V1.8334H15.8513V1.87284H15.7251V1.91229H15.5989V1.95173H15.515V1.99117H15.3888V2.03062H15.3046V2.07006H15.1784V2.10951H15.0945V2.14869H14.9683V2.18814H14.8842V2.22758H14.8V2.26702H14.7161V2.30647H14.5899V2.34591H14.5058V2.38536H14.4216V2.4248H14.3375V2.46424H14.2536V2.50369H14.1274V2.54287H14.0432V2.58232H13.9591V2.62176H13.8752V2.66121H13.7911V2.70065H13.6648V2.74009H13.5807V2.77954H13.4966V2.81898H13.4127V2.85843H13.3285V2.89787H13.2444V2.93706H13.1602V2.9765H13.0764V3.01594H12.9922V3.05539H12.9081V3.09483H12.8239V3.13428H12.7398V3.17372H12.6559V3.21317H12.5718V3.25261H12.4876V3.29205H12.4035V3.33124H12.3193V3.37068H12.2772V3.41013H12.1934V3.44957H12.1092V3.48902H12.0251V3.52846H11.9409V3.5679H11.8568V3.60735H11.7729V3.64679H11.7308V3.68598H11.6467V3.72542H11.5625V3.76486H11.4784V3.80431H11.4363V3.84375H11.3525V3.8832H11.2683V3.92264H11.1842V3.96209H11.1421V4.00153H11.0579V4.04097H10.9741V4.08016H10.8899V4.1196H10.8058V4.15905H10.7637V4.19849H10.6795V4.23794H10.5954V4.27738H10.5115V4.31682H10.4695V4.35627H10.3853V4.39571H10.3432V4.43516H10.2591V4.47434H10.217V4.51379H10.1331V4.55323H10.049V4.59267H10.0069V4.63212H9.92277V4.67156H9.8807V4.71101H9.79655V4.75045H9.71268V4.7899H9.67061V4.82934H9.58646V4.86852H9.54438V4.90797H9.46024V4.94741H9.41816V4.98686H9.33429V5.0263H9.25014V5.06574H9.20807V5.10519H9.12392V5.14463H9.08185V5.18408H8.9977V5.22352H8.95563V5.26271H8.87176V5.30215H8.82968V5.34159H8.78761V5.38104H8.70346V5.42048H8.66139V5.45993H8.57724V5.49937H8.53517V5.53882H8.4513V5.57826H8.40922V5.6177H8.36715V5.65689H8.283V5.69633H8.24093V5.73578H8.15678V5.77522H8.11471V5.81467H8.03084V5.85411H7.98876V5.89355H7.94669V5.933H7.86254V5.97244H7.82047V6.01189H7.73632V6.05107H7.69425V6.09052H7.65245V6.12996H7.5683V6.1694H7.52623V6.20885H7.48415V6.24829H7.40001V6.28774H7.35793V6.32718H7.31586V6.36662H7.27378V6.40607H7.18991V6.44525H7.14784V6.4847H7.10577V6.52414H7.02162V6.56359H6.97954V6.60303H6.93747V6.64247H6.8954V6.68192H6.81153V6.72136H6.76945V6.76081H6.72738V6.79999H6.64323V6.83944H6.60116V6.87888H6.55908V6.91832H6.47494V6.95777H6.43314V6.99721H6.39107V7.03666H6.34899V7.0761H6.30692V7.11554H6.26484V7.15499H6.1807V7.19417H6.13862V7.23362H6.09655V7.27306H6.05447V7.31251H6.01268V7.35195H5.9706V7.39139H5.88646V7.43084H5.84438V7.47028H5.80231V7.50973H5.76023V7.54917H5.71816V7.58836H5.67609V7.6278H5.59222V7.66724H5.55014V7.70669H5.50807V7.74613H5.46599V7.78558H5.42392V7.82502H5.38185V7.86447H5.2977V7.90391H5.25563V7.94335H5.21355V7.98254H5.17176V8.02198H5.12968V8.06143H5.08761V8.10087H5.04553V8.14032H5.00346V8.17976H4.96139V8.2192H4.91931V8.25865H4.87724V8.29809H4.83517V8.33754H4.79309V8.37672H4.75129V8.41617H4.70922V8.45561H4.66715V8.49505H4.62507V8.5345H4.583V8.57394H4.54093V8.61339H4.49885V8.65283H4.45678V8.69227H4.37263V8.73172H4.33083V8.7709H4.28876V8.81035H4.24669V8.84979H4.20461V8.88924H4.16254V8.92868H4.12046V8.96812H4.07839V9.00757H4.03632V9.04701H3.99424V9.08646H3.95217V9.16509H3.91037V9.20453H3.8683V9.24397H3.82622V9.28342H3.78415V9.32286H3.74208V9.36231H3.7V9.40175H3.65793V9.4412H3.61586V9.48064H3.57378V9.52008H3.53171V9.59871H3.48991V9.63816H3.44784V9.6776H3.40576V9.71704H3.36369V9.75649H3.32162V9.79593H3.27954V9.83538H3.23747V9.87482H3.19539V9.91401H3.15332V9.9929H3.11152V10.0323H3.06945V10.0718H3.02738V10.1112H2.9853V10.1507H2.94323V10.1901H2.90115V10.269H2.85908V10.3082H2.81701V10.3476H2.77493V10.4265H2.73286V10.466H2.69106V10.5054H2.64899V10.5449H2.60691V10.6237H2.56484V10.6632H2.52277V10.7024H2.48069V10.7813H2.43862V10.8207H2.39655V10.8601H2.35447V10.8996H2.3124V10.9785H2.2706V11.0179H2.22825V11.0574H2.18618V11.136H2.1441V11.1754H2.10203V11.2149H2.05996V11.2938H2.01788V11.3332H1.97636V11.4121H1.93429V11.4516H1.89221V11.4907H1.85042V11.5696H1.80834V11.6091H1.76599V11.688H1.72392V11.7274H1.68184V11.8063H1.63977V11.8849H1.5977V11.9244H1.55562V12.0033H1.51355V12.0427H1.47148V12.1216H1.42968V12.2005H1.3876V12.2399H1.34525V12.3185H1.30318V12.358H1.26111V12.4369H1.21903V12.5158H1.17696V12.5947H1.13489V12.6733H1.09337V12.7127H1.05129V12.7916H1.00949V12.8705H0.96742V12.9494H0.925347V13.028H0.882996V13.1069H0.840922V13.1858H0.798849V13.2647H0.756775V13.3436H0.714701V13.4222H0.672627V13.5405H0.630553V13.6194H0.588756V13.6983H0.546683V13.8164H0.504609V13.8953H0.462258V14.0136H0.420184V14.1319H0.378111V14.2106H0.336037V14.3683H0.293963V14.4867H0.252166V14.6048H0.210369V14.7625H0.168295V14.9597H0.126221V15.1173H0.0841476V15.3931H0.0420738V15.8662H0V16.2998H0.0420738V16.6943H0.0841476V16.8912H0.126221V17.0487H0.168295V17.2065H0.210092V17.3246H0.252166V17.4429H0.29424V17.5612H0.336314V17.6401H0.378387V17.7188H0.420461V17.7977H0.462535V17.8765H0.504609V17.9554H0.546683V18.0343H0.588756V18.1129H0.630553V18.1524H0.672627V18.2313H0.714701V18.2707H0.756775V18.3496H0.798849V18.3891H0.840922V18.4679H0.882996V18.5071H0.92507V18.5466H0.967144V18.586H1.00922V18.6255H1.05101V18.6649H1.09309V18.7044H1.13516V18.7438H1.17724V18.7832H1.21931V18.8227H1.26138V18.8621H1.30346V18.9013H1.34553V18.9408H1.3876V18.9802H1.42968V19.0196H1.47148V19.0591H1.51355V19.0985H1.55562V19.138H1.5977V19.1774H1.63977V19.2169H1.72392V19.2561H1.76599V19.2955H1.85014V19.3349H1.89194V19.3744H1.97608V19.4138H2.01816V19.4533H2.10231V19.4927H2.14438V19.5322H2.22853V19.5716H2.2706V19.611H2.35447V19.6502H2.39655V19.6897H2.48069V19.7291H2.56484V19.7686H2.69106V19.808H2.77493V19.8475H2.85908V19.8869H2.9853V19.9263H3.06945V19.9658H3.15332V20.0052H3.32162V20.0444H3.53198V20.0839H3.74208V20.1233H3.95245V20.1627H5.00346V20.1233H5.2977V20.0839H5.55014V20.0444H5.71816V20.0052H5.88646V19.9658H6.01268V19.9263H6.13862V19.8869H6.30692V19.8475H6.43314V19.808H6.51701V19.7686H6.64323V19.7291H6.72738V19.6897H6.81153V19.6502H6.93747V19.611H7.02162V19.5716H7.10577V19.5322H7.18991V19.4927H7.27378V19.4533H7.35793V19.4138H7.44208V19.3744H7.52623V19.3349H7.61037V19.2955H7.69425V19.2561H7.77839V19.2169H7.86254V19.1774H7.94669V19.138H7.98876V19.0985H8.07291V19.0591H8.11471V19.0196H8.19885V18.9802H8.283V18.9408H8.32508V18.9013H8.40922V18.8621H8.49337V18.8227H8.53517V18.7832H8.61932V18.7438H8.66139V18.7044H8.74554V18.6649H8.78761V18.6255H8.87176V18.586H8.91383V18.5466H8.9977V18.5071H9.03978V18.4679H9.12392V18.4285H9.166V18.3891H9.25014V18.3496H9.29222V18.3102H9.37609V18.2707H9.41816V18.2313H9.46024V18.1918H9.54438V18.1524H9.58646V18.1129H9.62853V18.0738H9.71268V18.0343H9.75475V17.9949H9.83862V17.9554H9.8807V17.916H9.92277V17.8765H10.0069V17.8371H10.049V17.7977H10.0911V17.7582H10.1749V17.7188H10.217V17.6796H10.2591V17.6401H10.3432V17.6007H10.3853V17.5612H10.4274V17.5218H10.5115V17.4824H10.5536V17.4429H10.5954V17.4035H10.6795V17.364H10.7216V17.3246H10.7637V17.2854H10.8058V17.246H10.8899V17.2065H10.932V17.1671H10.9741V17.1276H11.0579V17.0882H11.1V17.0487H11.1421V17.0093H11.2262V16.9698H11.2683V16.9304H11.3104V16.8912H11.3525V16.8518H11.4363V16.8123H11.4784V16.7729H11.5205V16.7334H11.6046V16.694H11.6467V16.6546H11.6888V16.6151H11.7729V16.5757H11.815V16.5362H11.8568V16.497H11.9409V16.4576H11.983V16.4181H12.0251V16.3787H12.1092V16.3393H12.1513V16.2998H12.1934V16.2604H12.2772V16.2209H12.3193V16.1815H12.4035V16.142H12.4455V16.1029H12.4876V16.0634H12.5718V16.024H12.6138V15.9845H12.6977V15.9451H12.7398V15.9056H12.8239V15.8662H12.866V15.8267H12.9501V15.7873H12.9922V15.7481H13.0764V15.7087H13.1182V15.6692H13.1602V15.6298H13.2444V15.5903H13.2865V15.5509H13.3706V15.5114H13.4127V15.472H13.4966V15.4326H13.5386V15.3931H13.6228V15.3539H13.6648V15.3145H13.749V15.275H13.7911V15.2356H13.8752V15.1962H13.917V15.1567H14.0012V15.1173H14.0432V15.0778H14.1274V15.0384H14.1695V14.9989H14.2536V14.9597H14.2957V14.9203H14.3375V14.8809H14.4216V14.8414H14.4637V14.802H14.5478V14.7625H14.5899V14.7231H14.6741V14.6836H14.7161V14.6442H14.8V14.6048H14.8421V14.5656H14.9262V14.5261H14.9683V14.4867H15.0525V14.4472H15.0945V14.4078H15.1784V14.3683H15.2205V14.3289H15.3046V14.2895H15.3467V14.25H15.4308V14.2106H15.4729V14.1714H15.5571V14.1319H15.5989V14.0925H15.683V14.0531H15.7251V14.0136H15.8092V13.9742H15.8513V13.9347H15.9354V13.8953H15.9775V13.8558H16.0614V13.8164H16.1035V13.7772H16.1876V13.7378H16.2297V13.6983H16.3138V13.6589H16.3559V13.6194H16.4398V13.58H16.4819V13.5405H16.566V13.5011H16.6081V13.4616H16.6922V13.4222H16.7764V13.383H16.8182V13.3436H16.9023V13.3041H16.9444V13.2647H17.0285V13.2252H17.0706V13.1858H17.1548V13.1464H17.1968V13.1069H17.2807V13.0675H17.3228V13.028H17.4069V12.9888H17.4911V12.9494H17.5331V12.9099H17.6173V12.8705H17.6591V12.8311H17.7432V12.7916H17.8274V12.7522H17.8695V12.7127H17.9536V12.6733H17.9957V12.6341H18.0796V12.5947H18.1216V12.5552H18.2058V12.5158H18.2899V12.4763H18.332V12.4369H18.4161V12.3974H18.5V12.358H18.5421V12.3185H18.6262V12.2791H18.7104V12.2399H18.7525V12.2005H18.8366V12.161H18.9205V12.1216H18.9625V12.0821H19.0467V12.0427H19.1308V12.0033H19.1729V11.9638H19.2571V11.9244H19.3409V11.8849H19.383V11.8457H19.4672V11.8063H19.5513V11.7668H19.6355V11.7274H19.6775V11.688H19.7614V11.6485H19.8455V11.6091H19.9297V11.5696H19.9718V11.5302H20.0559V11.4907H20.1398V11.4516H20.2239V11.4121H20.3081V11.3727H20.3502V11.3332H20.4343V11.2938H20.5184V11.2543H20.6023V11.2149H20.6865V11.1754H20.7706V11.136H20.8548V11.0966H20.9389V11.0574H21.0228V11.0179H21.1069V10.9785H21.1911V10.939H21.2752V10.8996H21.3594V10.8601H21.4012V10.8207H21.5274V10.7813H21.6115V10.7418H21.6957V10.7024H21.7798V10.6632H21.8637V10.6237H21.9899V10.5843H22.0741V10.5449H22.1582V10.5054H22.2421V10.466H22.3262V10.4265H22.4525V10.3871H22.5366V10.3476H22.6626V10.3082H22.7467V10.269H22.8729V10.2296H22.9991V10.1901H23.083V10.1507H23.2092V10.1112H23.2934V10.0718H23.4196V10.0323H23.5876V9.9929H23.7138V9.95345H23.8819V9.91401H24.0081V9.87482H24.1764V9.83538H24.3444V9.79593H24.5548V9.75649H24.8069V9.71704H25.0173V9.6776H25.732V9.63816H25.8161V9.6776H26.1945V9.71704H26.5308V9.75649H26.6571V9.79593H26.783V9.83538H26.9092V9.87482H26.9934V9.91401H27.1196V9.95345H27.2035V9.9929H27.2876V10.0323H27.3297V10.0718H27.4138V10.1112H27.498V10.1507H27.5401V10.1901H27.6239V10.2296H27.666V10.269H27.7502V10.3082H27.7922V10.3476H27.8343V10.3871H27.8764V10.4265H27.9185V10.466H27.9605V10.5054H28.0026V10.5449H28.0444V10.5843H28.0865V10.6237H28.1285V10.6632H28.1706V10.7024H28.2127V10.7813H28.2548V10.8207H28.2968V10.8601H28.3389V10.939H28.381V10.9785H28.4231V11.0574H28.4649V11.0966H28.5069V11.1754H28.549V11.2543H28.5911V11.2938H28.6332V11.3727H28.6752V11.4516H28.7173V11.5302H28.7594V11.6091H28.8015V11.7274H28.8435V11.8063H28.8853V11.9244H28.9274V12.0033H28.9695V12.1216H29.0115V12.2399H29.0536V12.3974H29.0957V12.5158H29.1378V12.6733H29.1798V12.9099H29.2219V13.1072H29.264V13.5405H29.3058V14.5261H29.264V14.8414H29.2219V15.1962H29.1798V15.3934H29.1378V15.5903H29.0957V15.7481H29.0536V15.9451H29.0115V16.1029H28.9695V16.2604H28.9274V16.3787H28.8853V16.497H28.8435V16.6151H28.8015V16.7729H28.7594V16.8912H28.7173V17.0093H28.6752V17.1276H28.6332V17.2065H28.5911V17.3246H28.549V17.4035H28.5069V17.5218H28.4649V17.6007H28.4231V17.7188H28.381V17.7977H28.3389V17.916H28.2968V17.9949H28.2548V18.0738H28.2127V18.1524H28.1706V18.2313H28.1285V18.3496H28.0865V18.4285H28.0444V18.5071H28.0026V18.586H27.9605V18.6649H27.9185V18.7044H27.8764V18.7832H27.8343V18.8621H27.7922V18.9408H27.7502V19.0196H27.7081V19.0591H27.666V19.138H27.6239V19.2169H27.5821V19.2561H27.5401V19.3349H27.498V19.4138H27.4559V19.4533H27.4138V19.5322H27.3718V19.611H27.3297V19.6502H27.2876V19.7291H27.2456V19.7686H27.2035V19.8475H27.1617V19.8869H27.1196V19.9658H27.0775V20.0052H27.0355V20.0839H26.9934V20.1233H26.9513V20.2022H26.9092V20.2416H26.8672V20.3205H26.8251V20.36H26.783V20.3994H26.7412V20.478H26.6991V20.5175H26.6571V20.5569H26.615V20.6358H26.5729V20.6753H26.5308V20.7147H26.4888V20.7936H26.4467V20.8328H26.4046V20.9117H26.3628V20.9511H26.3208V20.9906H26.2787V21.03H26.2366V21.1089H26.1945V21.1483H26.1525V21.1878H26.1104V21.227H26.0683V21.3059H26.0262V21.3453H25.9842V21.3847H25.9424V21.4242H25.9003V21.5031H25.8582V21.5425H25.8161V21.582H25.7741V21.6211H25.732V21.6606H25.6899V21.7395H25.6479V21.7789H25.6058V21.8184H25.5637V21.8578H25.5219V21.8973H25.4798V21.9761H25.4378V22.0153H25.3957V22.0548H25.3536V22.0942H25.3115V22.1337H25.2695V22.1731H25.2274V22.2125H25.1853V22.252H25.1432V22.3309H25.1014V22.3701H25.0594V22.4095H25.0173V22.449H24.9752V22.4884H24.9332V22.5278H24.8911V22.5673H24.849V22.6067H24.8069V22.6462H24.7649V22.7251H24.7228V22.7642H24.681V22.8037H24.6389V22.8431H24.5968V22.8826H24.5548V22.922H24.5127V22.9615H24.4706V23.0009H24.4285V23.0404H24.3865V23.0798H24.3444V23.1192H24.3023V23.1584H24.2605V23.1979H24.2185V23.2373H24.1764V23.2768H24.1343V23.3162H24.0922V23.3557H24.0502V23.3951H24.0081V23.4345H23.966V23.474H23.9239V23.5134H23.8819V23.5526H23.8401V23.5921H23.798V23.6315H23.7559V23.6709H23.7138V23.7104H23.6718V23.7498H23.6297V23.7893H23.5876V23.8287H23.5455V23.8682H23.5035V23.9076H23.4614V23.9468H23.4196V23.9862H23.3775V24.0257H23.3355V24.0651H23.2934V24.1046H23.2513V24.144H23.2092V24.1835H23.1672V24.2229H23.1251V24.2624H23.083V24.3018H23.0412V24.341H22.9991V24.3804H22.915V24.4199H22.8729V24.4593H22.8308V24.4988H22.7888V24.5382H22.7467V24.5776H22.7046V24.6171H22.6626V24.6565H22.6208V24.696H22.5787V24.7352H22.5366V24.7746H22.4525V24.814H22.4104V24.8535H22.3683V24.8929H22.3262V24.9324H22.2842V24.9718H22.2421V25.0113H22.2003V25.0507H22.1582V25.0902H22.0741V25.1293H22.032V25.1688H21.9899V25.2082H21.9479V25.2477H21.9058V25.2871H21.8637V25.3266H21.8216V25.366H21.7378V25.4055H21.6957V25.4449H21.6536V25.4841H21.6115V25.5235H21.5695V25.563H21.4853V25.6024H21.4432V25.6419H21.4012V25.6813H21.3594V25.7207H21.3173V25.7602H21.2332V25.7996H21.1911V25.8391H21.149V25.8783H21.1069V25.9177H21.0649V25.9572H20.9807V25.9966H20.9389V26.036H20.8968V26.0755H20.8548V26.1149H20.7706V26.1544H20.7285V26.1938H20.6865V26.2333H20.6444V26.2724H20.5602V26.3119H20.5184V26.3513H20.4764V26.3908H20.4343V26.4302H20.3502V26.4697H20.3081V26.5091H20.266V26.5486H20.2239V26.588H20.1398V26.6274H20.098V26.6666H20.0559V26.7061H19.9718V26.7455H19.9297V26.785H19.8876V26.8244H19.8035V26.8638H19.7614V26.9033H19.7196V26.9427H19.6355V26.9822H19.5934V27.0216H19.5513V27.0608H19.4672V27.1003H19.4251V27.1397H19.383V27.1791H19.2991V27.2186H19.2571V27.258H19.215V27.2975H19.1308V27.3369H19.0888V27.3764H19.0046V27.4158H18.9625V27.455H18.9205V27.4944H18.8366V27.5339H18.7945V27.5733H18.7104V27.6128H18.6683V27.6522H18.5842V27.6917H18.5421V27.7311H18.5V27.7705H18.4161V27.81H18.3741V27.8492H18.2899V27.8886H18.2478V27.9281H18.1637V27.9675H18.1216V28.007H18.0378V28.0464H17.9957V28.0858H17.9115V28.1253H17.8695V28.1647H17.7853V28.2042H17.7432V28.2434H17.6591V28.2828H17.6173V28.3222H17.5331V28.3617H17.449V28.4011H17.4069V28.4406H17.3228V28.48H17.2807V28.5195H17.1968V28.5589H17.1127V28.5981H17.0706V28.6375H16.9865V28.677H16.9444V28.7164H16.8602V28.7559H16.7764V28.7953H16.6922V28.8348H16.6502V28.8742H16.566V28.9136H16.4819V28.9531H16.4398V28.9923H16.3559V29.0317H16.2718V29.0712H16.1876V29.1106H16.1455V29.1501H16.0614V29.1895H15.9775V29.2289H15.8934V29.2684H15.8092V29.3078H15.7251V29.3473H15.683V29.3865H15.5989V29.4259H15.515V29.4653H15.4308V29.5048H15.3467V29.5442H15.2625V29.5837H15.1784V29.6231H15.0945V29.6626H15.0104V29.702H14.8842V29.7415H14.8V29.7806H14.7161V29.8201H14.632V29.8595H14.5478V29.899H14.4216V29.9384H14.3375V29.9779H14.2115V30.0173H14.1274V30.0568H14.0012V30.0962H13.8752V30.1356H13.7911V30.1748H13.6228V30.2143H13.4966V30.2537H13.3706V30.2932H13.2023V30.3326H12.9919V30.372H12.6977V30.4115H12.2772V30.372H12.1092V30.3326H11.983V30.2932H11.8989V30.2537H11.815V30.2143H11.7729V30.1748H11.7308V30.1356H11.6888V30.0962H11.6467V30.0173H11.6046V29.9384H11.5625V29.8595H11.5205V29.7415H11.4784V29.347H11.5205V29.1501H11.5625V29.0317H11.6046V28.9136H11.6467V28.8348H11.6888V28.7559H11.7308V28.677H11.7729V28.5981H11.815V28.5195H11.8568V28.4406H11.8989V28.4011H11.9409V28.3222H11.983V28.2434H12.0251V28.2042H12.0672V28.1253H12.1092V28.0858H12.1513V28.007H12.1934V27.9675H12.2354V27.8886H12.2772V27.8492H12.3193V27.81H12.3614V27.7311H12.4035V27.6917H12.4455V27.6522H12.4876V27.5733H12.5297V27.5339H12.5718V27.4944H12.6138V27.4158H12.6559V27.3764H12.6977V27.3369H12.7398V27.2975H12.7819V27.258H12.8239V27.1791H12.866V27.1397H12.9081V27.1003H12.9501V27.0608H12.9922V27.0216H13.0343V26.9822H13.0764V26.9033H13.1182V26.8638H13.1602V26.8244H13.2023V26.785H13.2444V26.7455H13.2865V26.7061H13.3285V26.6666H13.3706V26.6274H13.4127V26.588H13.4548V26.5486H13.4966V26.4697H13.5386V26.4302H13.5807V26.3908H13.6228V26.3513H13.6648V26.3119H13.7069V26.2724H13.749V26.2333H13.7911V26.1938H13.8331V26.1544H13.8752V26.1149H13.917V26.0755H13.9591V26.036H14.0012V25.9966H14.0432V25.9572H14.0853V25.9177H14.1274V25.8783H14.1695V25.8391H14.2115V25.7996H14.2536V25.7602H14.2957V25.7207H14.3375V25.6813H14.3796V25.6419H14.4216V25.6024H14.4637V25.563H14.5058V25.5235H14.5478V25.4841H14.5899V25.4449H14.632V25.4055H14.6741V25.366H14.7161V25.3266H14.7579V25.2871H14.8V25.2477H14.8421V25.2082H14.8842V25.1688H14.9262V25.1293H14.9683V25.0902H15.0104V25.0507H15.0525V25.0113H15.0945V24.9718H15.1366V24.9324H15.1784V24.8929H15.2205V24.8535H15.2625V24.814H15.3046V24.7746H15.3467V24.7352H15.3888V24.696H15.4308V24.6565H15.4729V24.6171H15.515V24.5776H15.5571V24.5382H15.5989V24.4988H15.6409V24.4593H15.683V24.4199H15.7251V24.3804H15.8092V24.341H15.8513V24.2624H15.8934V24.2229H15.9354V24.1835H15.9775V24.144H16.0193V24.1046H16.0614V24.0651H16.1035V24.0257H16.1455V23.9862H16.1876V23.9468H16.2297V23.9076H16.2718V23.8682H16.3138V23.7893H16.3559V23.7498H16.398V23.7104H16.4398V23.6709H16.4819V23.6315H16.5239V23.5921H16.566V23.5134H16.6081V23.474H16.6502V23.4345H16.6922V23.3557H16.7343V23.3162H16.7764V23.2768H16.8182V23.2373H16.8602V23.1584H16.9023V23.1192H16.9444V23.0404H16.9865V23.0009H17.0285V22.922H17.0706V22.8431H17.1127V22.8037H17.1548V22.7251H17.1968V22.6462H17.2386V22.6067H17.2807V22.4884H17.3228V22.3701H17.3649V22.252H17.4069V22.1731H17.449V21.582H17.4069V21.4242H17.3649V21.3059H17.3228V21.2664H17.2807V21.1878H17.2386V21.1483H17.1968V21.0694H17.1548V21.03H17.1127V20.9906H17.0706V20.9511H17.0285V20.9117H16.9865V20.8722H16.9444V20.8328H16.9023V20.7936H16.8602V20.7542H16.7764V20.7147H16.7343V20.6753H16.6502V20.6358H16.6081V20.5964H16.5239V20.5569H16.4398V20.5175H16.3559V20.478H16.2718V20.4386H16.1455V20.3994H16.0193V20.36H15.9354V20.3205H15.8092V20.2811H15.5989V20.2416H15.4308V20.2022H15.1784V20.1627H14.8V20.1233H14.7579V20.1627H14.0012V20.2022H13.749V20.2416H13.5386V20.2811H13.4127V20.3205H13.2865V20.36H13.1182V20.3994H12.9922V20.4386H12.9081V20.478H12.8239V20.5175H12.7398V20.5569H12.6138V20.5964H12.5297V20.6358H12.4455V20.6753H12.3614V20.7147H12.2772V20.7542H12.2354V20.7936H12.1513V20.8328H12.1092V20.8722H12.0251V20.9117H11.983V20.9511H11.8989V20.9906H11.8568V21.03H11.815V21.0694H11.7308V21.1089H11.6888V21.1483H11.6046V21.1878H11.5625V21.227H11.5205V21.2664H11.4784V21.3059H11.4363V21.3453H11.3945V21.3847H11.3104V21.4242H11.2683V21.4636H11.2262V21.5031H11.1842V21.5425H11.1421V21.582H11.1V21.6211H11.0579V21.6606H11.0159V21.7H10.9741V21.7395H10.932V21.7789H10.8899V21.8184H10.8478V21.8578H10.8058V21.8973H10.7637V21.9367H10.7216V21.9761H10.6795V22.0548H10.6375V22.0942H10.5954V22.1337H10.5536V22.1731H10.5115V22.2125H10.4695V22.2914H10.4274V22.3309H10.3853V22.3701H10.3432V22.4095H10.3012V22.449H10.2591V22.4884H10.217V22.5673H10.1749V22.6067H10.1331V22.6856H10.0911V22.7251H10.049V22.8037H10.0069V22.8431H9.96485V22.922H9.92277V22.9615H9.8807V23.0404H9.83862V23.0798H9.79655V23.1584H9.75475V23.1979H9.71268V23.2768H9.67061V23.3162H9.62853V23.3951H9.58646V23.4345H9.54438V23.5134H9.50231V23.5921H9.46024V23.6709H9.41816V23.7498H9.37609V23.8287H9.33429V23.9076H9.29222V23.9862H9.25014V24.0257H9.20807V24.1046H9.166V24.1835H9.12392V24.2624H9.08185V24.341H9.03978V24.4199H8.9977V24.4988H8.95563V24.5776H8.91383V24.6565H8.87176V24.7352H8.82968V24.8535H8.78761V24.9324H8.74554V25.0113H8.70346V25.1293H8.66139V25.2082H8.61932V25.2871H8.57724V25.4055H8.53517V25.4841H8.49337V25.563H8.4513V25.6813H8.40922V25.7602H8.36715V25.8783H8.32508V25.9966H8.283V26.1149H8.24093V26.2333H8.19885V26.3908H8.15678V26.5091H8.11471V26.6274H8.07291V26.785H8.03084V27.0608H7.98876V27.3369H7.94669V27.6522H7.90461V27.6917H7.94669V28.48H7.98876V28.6375H8.03084V28.7953H8.07291V28.9925H8.11471V29.1501H8.15678V29.2289H8.19885V29.3078H8.24093V29.4259H8.283V29.5048H8.32508V29.5837H8.36715V29.6626H8.40922V29.7415H8.4513V29.8201H8.49337V29.8595H8.53517V29.9384H8.57724V29.9779H8.61932V30.0568H8.66139V30.0962H8.70346V30.1356H8.74554V30.2143H8.78761V30.2537H8.82968V30.2932H8.87176V30.372H8.95563V30.4115H8.9977V30.4509H9.03978V30.4904H9.08185V30.5298H9.12392V30.569H9.166V30.6085H9.20807V30.6479H9.25014V30.6873H9.29222V30.7268H9.33429V30.7662H9.37609V30.8057H9.46024V30.8451H9.50231V30.8846H9.58646V30.924H9.62853V30.9632H9.71268V31.0026H9.75475V31.0421H9.83862V31.0815H9.8807V31.121H9.96485V31.1604H10.049V31.1999H10.1331V31.2393H10.217V31.2787H10.3432V31.3182H10.4695V31.3574H10.5954V31.3968H10.8058V31.4363H11.0579V31.4757H11.4787V31.5152H12.1513V31.4757H12.6559V31.4363H12.9501V31.3968H13.2023V31.3574H13.4127V31.3182H13.6231V31.2787H13.7911V31.2393H13.9591V31.1999H14.1274V31.1604H14.2536V31.121H14.3796V31.0815H14.5478V31.0421H14.6741V31.0026H14.8V30.9632H14.9262V30.924H15.0525V30.8846H15.1366V30.8451H15.2625V30.8057H15.3888V30.7662H15.4729V30.7268H15.5989V30.6873H15.683V30.6479H15.8092V30.6085H15.8934V30.569H16.0193V30.5298H16.1035V30.4904H16.1876V30.4509H16.2718V30.4115H16.398V30.372H16.4819V30.3326H16.566V30.2932H16.6502V30.2537H16.7343V30.2143H16.8182V30.1748H16.9023V30.1356H17.0285V30.0962H17.1127V30.0568H17.1968V30.0173H17.2807V29.9779H17.3649V29.9384H17.4069V29.899H17.4911V29.8595H17.5752V29.8201H17.6591V29.7806H17.7432V29.7415H17.8274V29.702H17.9115V29.6626H17.9957V29.6231H18.0378V29.5837H18.1216V29.5442H18.2058V29.5048H18.2899V29.4653H18.3741V29.4259H18.4161V29.3865H18.5V29.3473H18.5842V29.3078H18.6683V29.2684H18.7104V29.2289H18.7945V29.1895H18.8787V29.1501H18.9205V29.1106H19.0046V29.0712H19.0888V29.0317H19.1308V28.9923H19.215V28.9531H19.2991V28.9136H19.3409V28.8742H19.4251V28.8348H19.4672V28.7953H19.5513V28.7559H19.6355V28.7164H19.6775V28.677H19.7614V28.6375H19.8035V28.5981H19.8876V28.5589H19.9718V28.5195H20.0138V28.48H20.098V28.4406H20.1398V28.4011H20.2239V28.3617H20.266V28.3222H20.3502V28.2828H20.3922V28.2434H20.4764V28.2042H20.5184V28.1647H20.6023V28.1253H20.6444V28.0858H20.7285V28.0464H20.7706V28.007H20.8548V27.9675H20.8968V27.9281H20.9389V27.8886H21.0228V27.8492H21.0649V27.81H21.149V27.7705H21.1911V27.7311H21.2752V27.6917H21.3173V27.6522H21.4012V27.6128H21.4432V27.5733H21.4853V27.5339H21.5695V27.4944H21.6115V27.455H21.6536V27.4158H21.7378V27.3764H21.7798V27.3369H21.8637V27.2975H21.9058V27.258H21.9479V27.2186H22.032V27.1791H22.0741V27.1397H22.1161V27.1003H22.2003V27.0608H22.2421V27.0216H22.3262V26.9822H22.3683V26.9427H22.4104V26.9033H22.4945V26.8638H22.5366V26.8244H22.5787V26.785H22.6626V26.7455H22.7046V26.7061H22.7467V26.6666H22.7888V26.6274H22.8729V26.588H22.915V26.5486H22.9571V26.5091H23.0412V26.4697H23.083V26.4302H23.1251V26.3908H23.2092V26.3513H23.2513V26.3119H23.2934V26.2724H23.3355V26.2333H23.4196V26.1938H23.4614V26.1544H23.5035V26.1149H23.5876V26.0755H23.6297V26.036H23.6718V25.9966H23.7138V25.9572H23.798V25.9177H23.8401V25.8783H23.8819V25.8391H23.9239V25.7996H24.0081V25.7602H24.0502V25.7207H24.0922V25.6813H24.1343V25.6419H24.2185V25.6024H24.2605V25.563H24.3023V25.5235H24.3444V25.4841H24.3865V25.4449H24.4706V25.4055H24.5127V25.366H24.5548V25.3266H24.5968V25.2871H24.681V25.2477H24.7228V25.2082H24.7649V25.1688H24.8069V25.1293H24.849V25.0902H24.9332V25.0507H24.9752V25.0113H25.0173V24.9718H25.0594V24.9324H25.1014V24.8929H25.1853V24.8535H25.2274V24.814H25.2695V24.7746H25.3115V24.7352H25.3536V24.696H25.3957V24.6565H25.4798V24.6171H25.5219V24.5776H25.5637V24.5382H25.6058V24.4988H25.6479V24.4593H25.6899V24.4199H25.7741V24.3804H25.8161V24.341H25.8582V24.3018H25.9003V24.2624H25.9424V24.2229H25.9842V24.1835H26.0262V24.144H26.1104V24.1046H26.1525V24.0651H26.1945V24.0257H26.2366V23.9862H26.2787V23.9468H26.3208V23.9076H26.3628V23.8682H26.4046V23.8287H26.4467V23.7893H26.5308V23.7498H26.5729V23.7104H26.615V23.6709H26.6571V23.6315H26.6991V23.5921H26.7412V23.5526H26.783V23.5134H26.8251V23.474H26.8672V23.4345H26.9092V23.3951H26.9513V23.3557H26.9934V23.3162H27.0355V23.2768H27.0775V23.2373H27.1196V23.1979H27.1617V23.1584H27.2035V23.1192H27.2456V23.0798H27.2876V23.0404H27.3297V23.0009H27.3718V22.9615H27.4138V22.922H27.4559V22.8826H27.498V22.8431H27.5401V22.8037H27.5821V22.7642H27.6239V22.7251H27.666V22.6856H27.7081V22.6462H27.7502V22.6067H27.7922V22.5673H27.8343V22.5278H27.8764V22.4884H27.9185V22.449H27.9605V22.4095H28.0026V22.3701H28.0444V22.2914H28.0865V22.252H28.1285V22.2125H28.1706V22.1731H28.2127V22.1337H28.2548V22.0942H28.2968V22.0548H28.3389V22.0153H28.381V21.9761H28.4231V21.9367H28.4649V21.8578H28.5069V21.8184H28.549V21.7789H28.5911V21.7395H28.6332V21.7H28.6752V21.6606H28.7173V21.582H28.7594V21.5425H28.8015V21.5031H28.8435V21.4636H28.8853V21.4242H28.9274V21.3847H28.9695V21.3059H29.0115V21.2664H29.0536V21.227H29.0957V21.1878H29.1378V21.1483H29.1798V21.0694H29.2219V21.03H29.264V20.9906H29.3058V20.9117H29.3479V20.8722H29.3899V20.8328H29.432V20.7936H29.4741V20.7147H29.5162V20.6753H29.5582V20.6358H29.6003V20.5964H29.6424V20.5175H29.6844V20.478H29.7262V20.4386H29.7683V20.36H29.8104V20.3205H29.8525V20.2811H29.8945V20.2022H29.9366V20.1627H29.9787V20.1233H30.0208V20.0444H30.0628V20.0052H30.1046V19.9263H30.1467V19.8869H30.1888V19.8475H30.2309V19.7686H30.2729V19.7291H30.315V19.6502H30.3571V19.611H30.3991V19.5716H30.4412V19.4927H30.4833V19.4533H30.5251V19.3744H30.5672V19.3349H30.6092V19.2561H30.6513V19.2169H30.6934V19.138H30.7355V19.0985H30.7775V19.0196H30.8196V18.9802H30.8617V18.9013H30.9038V18.8621H30.9456V18.7832H30.9876V18.7044H31.0297V18.6649H31.0718V18.586H31.1138V18.5466H31.1559V18.4679H31.198V18.3891H31.2401V18.3496H31.2821V18.2707H31.3242V18.1918H31.366V18.1524H31.4081V18.0738H31.4502V17.9949H31.4922V17.9554H31.5343V17.8765H31.5764V17.7977H31.6185V17.7188H31.6605V17.6796H31.7026V17.6007H31.7447V17.5218H31.7865V17.4429H31.8286V17.364H31.8706V17.2854H31.9127V17.2065H31.9548V17.1671H31.9968V17.0882H32.0389V17.0093H32.081V16.9304H32.1231V16.8518H32.1651V16.7729H32.2069V16.694H32.249V16.6151H32.2911V16.5362H32.3332V16.4576H32.3752V16.3393H32.4173V16.2604H32.4594V16.1815H32.5015V16.1029H32.5435V16.024H32.5856V15.9451H32.6274V15.8662H32.6695V15.7481H32.7115V15.6692H32.7536V15.5509H32.7957V15.472H32.8378V15.3539H32.8798V15.275H32.9219V15.1567H32.964V15.0778H33.0061V14.9597H33.0479V14.8809H33.0899V14.7625H33.132V14.6442H33.1741V14.5261H33.2162V14.4078H33.2582V14.2895H33.3003V14.1714H33.3424V14.0531H33.3844V13.9347H33.4262V13.8164H33.4683V13.6589H33.5104V13.5011H33.5525V13.383H33.5945V13.2252H33.6366V13.0675H33.6787V12.9099H33.7208V12.7127H33.7628V12.5155H33.8049V12.3185H33.8467V12.1213H33.8888V11.8852H33.9309V11.5696H33.9729V11.2543H34.015V10.7418H34.0571V9.52008H34.015V8.7709H33.9729V8.45587H33.9309V8.21946H33.8888V7.9828H33.8467V7.74665H33.8049V7.50999H33.7628V7.31277H33.7208V7.19443H33.6787V7.07636H33.6366V6.91858H33.5945V6.80025H33.5525V6.68218H33.5104V6.5244H33.4683V6.40633H33.4262V6.288H33.3844V6.16966H33.3424V6.09077H33.3003V6.01215H33.2582V5.89381H33.2162V5.81492H33.1741V5.73604H33.132V5.65715H33.0899V5.53907H33.0479V5.46019H33.0061V5.3813H32.964V5.30241H32.9219V5.22378H32.8798V5.14489H32.8378V5.066H32.7957V5.02656H32.7536V4.94767H32.7115V4.90823H32.6695V4.8296H32.6274V4.75071H32.5856V4.71127H32.5435V4.63238H32.5015V4.55349H32.4594V4.51404H32.4173V4.43542H32.3752V4.39597H32.3332V4.31708H32.2911V4.27764H32.249V4.2382H32.2069V4.15931H32.1651V4.11986H32.1231V4.08042H32.081V4.04123H32.0389V3.96235H31.9968V3.9229H31.9548V3.88346H31.9127V3.84401H31.8706V3.76512H31.8286V3.72568H31.7865V3.68624H31.7447V3.64705H31.7026V3.60761H31.6605V3.52872H31.6185V3.48902H31.5764V3.44957H31.5343V3.41013H31.4922V3.37068H31.4502V3.33124H31.4081V3.29205H31.3242V3.25261H31.2821V3.21317H31.2401V3.17372H31.198V3.13428H31.1559V3.09483H31.1138V3.05539H31.0718V3.01594H31.0297V2.9765H30.9876V2.93706H30.9456V2.89787H30.9038V2.85843H30.8617V2.81898H30.8196V2.77954H30.7355V2.74009H30.6934V2.70065H30.6513V2.66121H30.5672V2.62176H30.5251V2.58232H30.4833V2.54287H30.3991V2.50369H30.3571V2.46399H30.315V2.42454H30.2309V2.3851H30.1888V2.34565H30.1467V2.30621H30.1046V2.26676H30.0208V2.22784H29.9366V2.18839H29.8945V2.14895H29.8104V2.10977H29.7262V2.07032H29.6844V2.03062H29.6003V1.99117H29.5582V1.95173H29.4741V1.91229H29.3899V1.87284H29.3479V1.8334H29.264V1.79395H29.1798V1.75451H29.0957V1.71532H29.0115V1.67588H28.9274V1.63618H28.8435V1.59673H28.7594V1.55729H28.6752V1.51784H28.5911V1.4784H28.5069V1.43896H28.4231V1.40003H28.3389V1.36059H28.2127V1.3214H28.1285V1.28196H28.0026V1.24251H27.9185V1.20281H27.7922V1.16336H27.666V1.12392H27.5821V1.08448H27.4559V1.04503H27.3297V1.00559H27.2035V0.966144H27.0775V0.926959H26.9092V0.887515H26.783V0.848071H26.6571V0.808367H26.4888V0.768923H26.3208V0.729479H26.1525V0.690035H25.9421V0.65059H25.7741V0.611406H25.5637V0.572221H25.3115V0.532777H25.0594V0.493333H24.8069V0.453888H24.4285V0.414444H24.0502V0.375H21.9899Z" fill="#E20010"/>
<path id="Vector_2" d="M11.6889 28.6771V28.756H11.731V28.6771H11.6889ZM11.6468 28.756V28.8349H11.6889V28.756H11.6468ZM11.6047 28.8349V28.9137H11.6468V28.8349H11.6047ZM11.5627 28.9532V29.0318H11.6047V28.9532H11.5627ZM11.5206 29.0713V29.1502H11.5627V29.0713H11.5206ZM11.4785 29.2685V29.3474H11.5206V29.2685H11.4785ZM11.731 28.5985V28.6771H11.773V28.5982L11.731 28.5985ZM12.0252 28.0859V28.1648H12.0673V28.0859H12.0252Z" fill="#D10010"/>
<path id="Vector_3" d="M12.0258 28.1255V28.1649H11.9837V28.2044H11.9416V28.283H11.8995V28.3619H11.8575V28.4013H11.8157V28.4802H11.7736V28.5591H11.7315V28.6377H11.7736V28.5983H11.8157V28.5197H11.8575V28.4408H11.8995V28.4013H11.9416V28.3225H11.9837V28.2436H12.0258V28.2044H12.0678V28.1255H12.0258ZM11.6895 28.6377V28.7166H11.7315V28.6772H11.7736V28.6377H11.6895Z" fill="#D10010"/>
</g>
</svg>
