<svg width="128" height="80" viewBox="0 0 128 80" fill="none" xmlns="http://www.w3.org/2000/svg">
<path d="M51.9848 14.0333C50.905 14.1809 49.8801 14.7237 49.1618 15.5331C48.5099 16.2684 48.1092 17.1902 48.0173 18.1661C47.9981 18.3589 47.9933 21.8893 47.9981 30.212L48.0077 41.9841L48.058 42.246C48.2337 43.2262 48.7242 44.1234 49.4558 44.8032C50.1875 45.483 51.121 45.9088 52.1165 46.0168C52.277 46.0359 56.0266 46.043 64.1293 46.043C74.521 46.043 75.9433 46.0383 76.1923 46.0073C77.2145 45.879 78.1642 45.4144 78.8901 44.6875C79.616 43.9606 80.0765 43.0132 80.1982 41.996C80.2174 41.8294 80.2221 38.5917 80.2174 29.8668L80.2102 17.9637L80.1455 17.678C79.9494 16.7396 79.4647 15.885 78.7587 15.2325C78.0526 14.58 77.16 14.1617 76.2043 14.0357C75.9673 14.0024 74.4612 14 64.0766 14C54.3218 14.0024 52.1788 14.0071 51.9848 14.0333ZM63.5307 19.1326C63.5762 19.1493 64.6752 19.8634 65.973 20.7181C68.6859 22.4988 68.6284 22.4559 68.8463 22.9035C69.0618 23.351 69.0426 22.3702 69.0354 32.4497L69.0283 41.3866L68.9684 41.5008C68.8932 41.6437 68.7726 41.7578 68.6253 41.8254C68.4781 41.893 68.3125 41.9103 68.1543 41.8746C68.0513 41.8508 67.5533 41.5318 65.451 40.1439C64.0335 39.2059 62.8339 38.4084 62.786 38.3703C62.731 38.3299 62.6663 38.237 62.6184 38.1418L62.5394 37.9823V28.8312C62.5394 20.0706 62.5418 19.673 62.5825 19.554C62.6167 19.4643 62.6685 19.3822 62.7348 19.3125C62.8011 19.2428 62.8806 19.1869 62.9687 19.1479C63.0569 19.109 63.152 19.0878 63.2484 19.0856C63.3449 19.0833 63.4408 19.1001 63.5307 19.135V19.1326ZM61.0884 20.9657C61.1554 21.0085 61.2153 21.0704 61.2512 21.1371L61.3063 21.2418V23.989C61.3063 26.6482 61.3039 26.7387 61.2608 26.8244C61.2009 26.9386 61.1004 27.0315 60.8657 27.1862C60.3725 27.5124 60.3078 27.5195 59.8433 27.291L57.6548 26.2292C56.6276 25.7317 55.7608 25.3008 55.7321 25.277C55.6577 25.2014 55.6081 25.1053 55.5897 25.0012C55.5714 24.8971 55.5851 24.7899 55.6291 24.6937C55.6722 24.6056 55.9284 24.408 58.1265 22.7678C58.9612 22.1358 59.8057 21.5167 60.6598 20.9109C60.7795 20.8633 60.9591 20.8871 61.0884 20.9657ZM28 52.4397C28 52.4564 32.9756 66.3187 33.0929 66.6282L33.1312 66.7282L34.2087 66.7234L35.2862 66.7163L37.8458 59.622C39.2537 55.7202 40.4102 52.504 40.4174 52.4731L40.4318 52.4207H38.3798L36.3828 58.1627C34.2015 64.4309 34.2231 64.3761 34.2111 64.3642C34.2015 64.3571 30.0353 52.4469 30.0353 52.4302C30.0353 52.4255 29.5779 52.4207 29.0176 52.4207C28.4573 52.4207 28 52.4302 28 52.4397ZM72.9431 59.5744V66.7306H74.715V63.9024C74.715 62.1169 74.7246 60.9766 74.7413 60.8028C74.8706 59.3983 75.5123 58.4698 76.6186 58.1032C77.0424 57.9604 77.72 57.9056 78.2013 57.9723C79.3817 58.1342 80.1168 58.9245 80.2461 60.1624C80.2605 60.3148 80.27 61.548 80.27 63.5667V66.7329H82.0419V63.4358C82.0419 61.3766 82.0323 60.0482 82.018 59.8958C81.9827 59.5275 81.9064 59.1642 81.7905 58.8126C81.2517 57.1843 79.8941 56.2559 78.0552 56.2559C76.6928 56.2559 75.6488 56.7439 74.9161 57.7223L74.727 57.9747L74.7198 55.1989L74.715 52.4231H72.9431V59.5744ZM44.4257 56.2701C43.3599 56.3676 42.3461 56.7731 41.5093 57.4366C40.9544 57.8842 40.4945 58.4368 40.1562 59.0625C39.8179 59.6881 39.608 60.3744 39.5387 61.0814C39.5052 61.417 39.5219 62.155 39.5746 62.4764C39.7519 63.6206 40.2989 64.6764 41.1331 65.4843C41.9672 66.2921 43.0431 66.8081 44.1982 66.9543C44.6756 67.0063 45.1573 67.0071 45.6349 66.9567C46.8536 66.7901 47.9359 66.2592 48.7811 65.4188C49.4191 64.7811 49.8845 63.9933 50.134 63.1287C50.5034 61.8347 50.3807 60.4508 49.7892 59.2411C49.5209 58.6883 49.1542 58.1883 48.7069 57.7652C48.3084 57.3745 47.8471 57.0526 47.3421 56.8129C46.578 56.4351 45.7339 56.2449 44.8806 56.2582C44.6771 56.2582 44.4712 56.2654 44.4257 56.2701ZM45.2206 57.9913C46.1305 58.0675 46.8728 58.4032 47.5049 59.0269C48.0364 59.5506 48.3453 60.1363 48.501 60.9004C48.5704 61.248 48.5776 61.9503 48.5153 62.2883C48.3669 63.0739 48.0317 63.7191 47.4881 64.2523C47.0362 64.6825 46.4823 64.992 45.8778 65.1523C45.2733 65.3125 44.6379 65.3182 44.0306 65.1689C42.3449 64.7713 41.2196 63.2453 41.2962 61.467C41.3393 60.491 41.6865 59.6863 42.3521 59.0245C42.9771 58.4056 43.7026 58.0723 44.5909 57.9913C44.8878 57.9675 44.9117 57.9675 45.2206 57.9913ZM66.6291 56.2892C65.4325 56.4272 64.317 56.9604 63.4613 57.8033C61.8498 59.4149 61.4476 61.9789 62.4795 64.0762C63.2721 65.6878 64.783 66.7353 66.6578 66.9686C67.0879 67.0063 67.5205 67.0071 67.9508 66.971C68.9469 66.852 69.8663 66.4782 70.6445 65.8783C70.9685 65.6153 71.2631 65.3184 71.5232 64.9927C71.7316 64.7213 71.9447 64.3737 71.9207 64.3499C71.9087 64.338 71.5735 64.1404 71.1713 63.9095C70.4601 63.4977 70.441 63.4905 70.4051 63.5382L70.2494 63.7715C70.1034 64.0024 69.6221 64.4856 69.3826 64.6428C68.9846 64.9056 68.5402 65.0913 68.0729 65.1903C67.867 65.2332 67.7568 65.2403 67.3282 65.2403C66.4954 65.2629 65.6813 64.9919 65.0301 64.4752C64.3789 63.9585 63.9326 63.2293 63.7701 62.4169C63.7023 61.9894 63.6862 61.5555 63.7222 61.1242C63.7871 60.5819 63.9757 60.0615 64.2736 59.6027C64.5716 59.144 64.971 58.7589 65.4414 58.477C65.9021 58.215 66.4131 58.0525 66.9412 58C67.4693 57.9475 68.0025 58.0062 68.5063 58.1723C68.9632 58.3203 69.3801 58.5703 69.725 58.9031C69.9463 59.106 70.133 59.3432 70.2781 59.6054L70.3715 59.7768L71.0994 59.3578C71.5017 59.1293 71.8345 58.9364 71.8393 58.9317C71.8609 58.9102 71.7148 58.646 71.5424 58.3865C70.8049 57.2867 69.646 56.5701 68.2142 56.3249C67.8358 56.2606 67.017 56.244 66.6291 56.2916V56.2892ZM87.98 56.2797C85.6934 56.5273 83.9622 57.9985 83.4067 60.1672C83.2814 60.6418 83.2226 61.1312 83.2319 61.6218C83.2295 62.3217 83.3133 62.8621 83.5193 63.4715C84.0867 65.1736 85.4276 66.3877 87.2234 66.8234C88.162 67.0543 89.2443 67.0567 90.1709 66.8353C91.0871 66.6258 91.9253 66.1638 92.5893 65.5022C92.8096 65.2879 93.2502 64.7499 93.2478 64.7047C93.2478 64.6975 92.9628 64.538 92.618 64.3404C92.2732 64.15 91.9356 63.9595 91.8662 63.919L91.7417 63.8476L91.6411 63.9929C91.2269 64.5999 90.4607 65.0784 89.625 65.2546C89.068 65.3556 88.4975 65.3588 87.9393 65.2641C86.45 65.007 85.3941 64.0214 85.0732 62.5907L85.0397 62.4431H93.674L93.6955 62.2574C93.7233 61.7997 93.7185 61.3407 93.6811 60.8838C93.5719 60.0895 93.305 59.3248 92.8958 58.6341C92.5881 58.1502 92.2087 57.7152 91.7704 57.3438C91.0977 56.8038 90.2945 56.4484 89.4406 56.313C89.1701 56.2654 88.2817 56.2463 87.98 56.2797ZM89.3568 57.9937C90.7216 58.2818 91.6603 59.3149 91.9165 60.8052L91.9332 60.8957H88.4829C85.2073 60.8957 85.0325 60.8957 85.0421 60.8528L85.0948 60.6219C85.2269 59.963 85.5566 59.3593 86.0404 58.8902C86.5242 58.4211 87.1394 58.1086 87.8053 57.9937C88.174 57.9247 88.186 57.9247 88.6744 57.9318C89.0144 57.939 89.1725 57.9509 89.3568 57.9913V57.9937ZM99.5786 56.3511C98.3526 56.4606 97.4452 57.0319 96.8992 58.0437L96.7915 58.2413V56.5177H95.0196V66.7306H96.7891L96.7987 63.7476C96.8083 60.5124 96.8011 60.6767 96.9399 60.1839C97.2752 58.984 98.2832 58.2461 99.672 58.1913L100 58.177V56.3273L99.8994 56.3297C99.842 56.332 99.6983 56.3416 99.5786 56.3535V56.3511ZM51.494 59.972C51.5036 63.4191 51.5036 63.431 51.5562 63.7167C51.6616 64.288 51.8124 64.7332 52.0399 65.1403C52.4757 65.9259 53.206 66.5211 54.0752 66.7948C54.8414 67.0377 55.8183 67.0662 56.618 66.8686C57.3986 66.6782 58.1026 66.214 58.5719 65.5855L58.761 65.3331L58.8137 65.2641V65.9949L58.8161 66.7282H60.588V56.5154H58.8161V59.3411C58.8161 61.0552 58.8065 62.2717 58.7922 62.4312C58.6724 63.7357 58.1433 64.6023 57.1975 65.0427C56.7545 65.2474 56.0865 65.3522 55.5286 65.3046C54.7863 65.2379 54.2284 64.9737 53.8285 64.5023C53.6297 64.2407 53.4782 63.9466 53.3808 63.6334C53.2635 63.2049 53.2611 63.1406 53.2611 59.7149V56.5177H51.4868L51.494 59.972Z" fill="#FF5F00"/>
</svg>
