<svg width="128" height="80" viewBox="0 0 128 80" fill="none" xmlns="http://www.w3.org/2000/svg">
<path fill-rule="evenodd" clip-rule="evenodd" d="M17.0983 29.3154L15.979 35.6634H12.0935C8.46852 35.6634 5.01336 38.6003 4.37297 42.2253L4.10191 43.7682C3.46451 47.3932 5.8831 50.3302 9.50805 50.3302H12.7487C15.3907 50.3302 17.9076 48.1914 18.3723 45.5495L21.3568 28.6309L17.0983 29.3154ZM14.3413 44.9507C14.1983 45.7669 13.4636 46.4311 12.6475 46.4311H10.6786C9.04935 46.4311 7.95919 45.1085 8.24512 43.4763L8.41491 42.5142C8.70382 40.8849 10.2586 39.5594 11.8879 39.5594H15.292L14.3413 44.9507Z" fill="#FF444F"/>
<path d="M47.0219 50.3312H51.0548L53.6044 35.867H49.5715L47.0219 50.3312Z" fill="#FF444F"/>
<path d="M47.1562 37.7526L47.1567 37.7493C47.2577 37.1774 47.3587 36.6055 47.4595 36.0336C43.3212 34.9673 40.0979 36.0704 38.7853 36.614C38.7853 36.614 36.9131 47.227 36.365 50.3346H40.4007C41.0556 46.6206 41.7106 42.9056 42.3646 39.1915C42.9702 39.0708 44.9415 38.8817 46.8521 39.4754C46.9533 38.9012 47.0547 38.3269 47.1562 37.7526Z" fill="#FF444F"/>
<path fill-rule="evenodd" clip-rule="evenodd" d="M31.1034 35.6619H27.967C24.908 35.6619 21.9921 38.1401 21.4529 41.1992L20.8185 44.7944C20.2793 47.8534 22.3197 50.3316 25.3787 50.3316H32.0567L32.7417 46.4445H26.4658C25.4472 46.4445 24.765 45.6194 24.9468 44.5978L24.9676 44.4756H35.0858L35.6637 41.1992C36.2027 38.1401 34.1625 35.6619 31.1034 35.6619ZM31.6157 40.8894L31.5919 41.0979H25.5753L25.608 40.9132C25.7896 39.8945 26.7191 38.998 27.7406 38.998H30.0907C31.1005 38.998 31.7826 39.8796 31.6157 40.8894Z" fill="#FF444F"/>
<path d="M60.6138 45.4074C62.445 42.113 64.4638 37.7907 65.305 35.867H69.3439C67.9691 39.5222 64.8184 45.7401 61.7664 50.3312H57.7305C56.3295 45.9616 55.4249 39.8732 55.2523 35.867H59.2883C59.3611 37.1738 59.9461 42.0211 60.6138 45.4074Z" fill="#FF444F"/>
<path d="M80.8046 29.9318C83.8883 29.9318 86.2557 30.4789 87.907 31.5731C89.5583 32.6475 90.3839 34.4181 90.3839 36.885C90.3839 39.3719 89.5483 41.1724 87.8772 42.2865C86.206 43.3807 83.8186 43.9278 80.715 43.9278H79.2528V50.8512H74.5974V30.469C75.612 30.27 76.6864 30.1308 77.8204 30.0512C78.9544 29.9716 79.9491 29.9318 80.8046 29.9318ZM81.103 33.9008C80.7648 33.9008 80.4266 33.9108 80.0884 33.9307C79.7701 33.9506 79.4915 33.9705 79.2528 33.9903V39.9588H80.715C82.3265 39.9588 83.5401 39.7399 84.3558 39.3022C85.1715 38.8646 85.5793 38.0489 85.5793 36.8552C85.5793 36.2782 85.4699 35.8008 85.2511 35.4228C85.0521 35.0448 84.7537 34.7463 84.3558 34.5275C83.9778 34.2888 83.5103 34.1296 82.9532 34.05C82.3962 33.9506 81.7794 33.9008 81.103 33.9008Z" fill="#414652"/>
<path d="M104.725 35.6018C104.725 36.3578 104.575 37.084 104.277 37.7803C103.979 38.4766 103.591 39.153 103.113 39.8096C102.636 40.4462 102.099 41.0629 101.502 41.6598C100.905 42.2566 100.318 42.8236 99.741 43.3608C99.4426 43.6393 99.1144 43.9576 98.7562 44.3157C98.418 44.6539 98.0898 45.0021 97.7715 45.3602C97.4531 45.7183 97.1647 46.0565 96.906 46.3748C96.6673 46.6733 96.5181 46.9219 96.4584 47.1209H105.351V50.8512H91.5643C91.5245 50.6323 91.5046 50.3538 91.5046 50.0156C91.5046 49.6774 91.5046 49.4386 91.5046 49.2994C91.5046 48.3444 91.6538 47.469 91.9522 46.6733C92.2706 45.8775 92.6784 45.1414 93.1758 44.4649C93.6731 43.7686 94.2302 43.122 94.8469 42.5252C95.4836 41.9284 96.1103 41.3315 96.727 40.7347C97.2045 40.2771 97.6521 39.8494 98.0699 39.4515C98.4877 39.0337 98.8557 38.6358 99.174 38.2578C99.4924 37.8599 99.741 37.4719 99.9201 37.0939C100.099 36.696 100.189 36.2981 100.189 35.9002C100.189 35.0249 99.94 34.4081 99.4426 34.05C98.9452 33.6919 98.3285 33.5129 97.5924 33.5129C97.0552 33.5129 96.5479 33.6024 96.0705 33.7815C95.6129 33.9406 95.1851 34.1396 94.7872 34.3783C94.4092 34.5971 94.081 34.8259 93.8025 35.0647C93.5239 35.2835 93.315 35.4626 93.1758 35.6018L90.9675 32.4982C91.8428 31.6826 92.8575 31.0161 94.0114 30.4988C95.1851 29.9617 96.4385 29.6931 97.7715 29.6931C98.985 29.6931 100.03 29.8323 100.905 30.1109C101.78 30.3894 102.496 30.7873 103.054 31.3046C103.63 31.8019 104.048 32.4187 104.307 33.1548C104.585 33.871 104.725 34.6867 104.725 35.6018Z" fill="#414652"/>
<path d="M113.986 29.9318C117.07 29.9318 119.438 30.4789 121.089 31.5731C122.74 32.6475 123.566 34.4181 123.566 36.885C123.566 39.3719 122.73 41.1724 121.059 42.2865C119.388 43.3807 117.001 43.9278 113.897 43.9278H112.435V50.8512H107.779V30.469C108.794 30.27 109.868 30.1308 111.002 30.0512C112.136 29.9716 113.131 29.9318 113.986 29.9318ZM114.285 33.9008C113.947 33.9008 113.608 33.9108 113.27 33.9307C112.952 33.9506 112.673 33.9705 112.435 33.9903V39.9588H113.897C115.508 39.9588 116.722 39.7399 117.538 39.3022C118.353 38.8646 118.761 38.0489 118.761 36.8552C118.761 36.2782 118.652 35.8008 118.433 35.4228C118.234 35.0448 117.936 34.7463 117.538 34.5275C117.16 34.2888 116.692 34.1296 116.135 34.05C115.578 33.9506 114.961 33.9008 114.285 33.9008Z" fill="#414652"/>
</svg>
