<svg width="128" height="80" viewBox="0 0 128 80" fill="none" xmlns="http://www.w3.org/2000/svg">
<rect width="128" height="80" fill="white"/>
<path d="M76.5618 51.294L76.9696 50.3529L76.3736 51.1999L75.7148 52.1409C75.4639 52.5487 75.0875 52.8938 74.711 53.3016C74.3296 53.7471 73.898 54.1471 73.4249 54.4936C72.923 54.8701 72.4524 55.3092 71.8564 55.5915L70.9467 56.0621L70.0057 56.4385C69.3577 56.6955 68.6849 56.8847 67.998 57.0032C67.3707 57.1914 66.6178 57.1914 65.9904 57.2855C65.3003 57.2541 64.6415 57.3169 63.9828 57.2227C63.3723 57.1882 62.7646 57.1148 62.1634 57.0032C61.536 56.9404 61.0341 56.7836 60.5322 56.6895L59.6539 56.4071L59.8421 56.2189C60.7481 55.278 61.5284 54.2235 62.1634 53.082C62.4065 52.649 62.6163 52.1981 62.7908 51.7332H61.3164C60.0052 51.8789 58.7187 52.1953 57.4894 52.6742C55.9303 53.2391 54.4534 54.0092 53.0977 54.9642L52.9722 55.0896C52.5525 55.384 52.2359 55.8028 52.067 56.2869C51.8982 56.7709 51.8856 57.2958 52.0312 57.7874C52.4204 59.1635 52.9678 60.4898 53.6624 61.7399C54.0315 62.3987 54.451 63.0279 54.9171 63.622C55.4147 64.2687 55.9829 64.8579 56.6111 65.3787C56.9247 64.5631 57.113 63.8103 57.2384 63.026C57.3802 62.3019 57.4642 61.5676 57.4894 60.8302C58.1481 60.9243 58.9951 61.0184 59.9362 61.0498C60.5636 61.0498 61.2223 61.0811 61.9438 61.0498C62.6794 61.019 63.4125 60.9457 64.1396 60.8302C64.9239 60.7675 65.7081 60.5165 66.4923 60.3597C67.2765 60.0773 68.0608 59.8891 68.8136 59.5127C69.5708 59.1964 70.2957 58.8077 70.9781 58.352C71.2918 58.1324 71.6369 57.9442 71.9192 57.6933L72.8289 56.9091C73.3935 56.4699 73.8327 55.8739 74.2719 55.3406C74.7424 54.8387 75.0874 54.3054 75.3698 53.7721C75.6521 53.2702 75.9658 52.8311 76.1226 52.4233L76.5932 51.294H76.5618Z" fill="#00B16F"/>
<path d="M76.5618 30.2453C76.1964 28.8506 75.67 27.5032 74.9934 26.23C74.6568 25.563 74.2688 24.9232 73.8327 24.3165C73.3553 23.6538 72.8084 23.0438 72.2015 22.4971C71.8251 23.2814 71.6369 24.0656 71.4487 24.8184C71.2918 25.5713 71.2291 26.2928 71.1664 27.0143C70.5076 26.8888 69.692 26.7947 68.7509 26.7006C68.1236 26.7006 67.4648 26.6378 66.7433 26.7006C65.9991 26.6989 65.2554 26.7407 64.5161 26.8261C63.7319 26.8888 62.9476 27.1084 62.1634 27.2339C61.3792 27.4848 60.595 27.6417 59.8107 27.9867C59.0451 28.2811 58.3098 28.6488 57.6149 29.0846C57.3012 29.3042 56.9248 29.4924 56.6425 29.712L55.7328 30.4649C55.1054 30.904 54.6662 31.5001 54.227 32.002C53.7942 32.459 53.4153 32.9642 53.0977 33.5077C52.7841 34.0096 52.4704 34.4488 52.3135 34.8879L51.8116 35.9858L51.4038 36.9269L52.0312 36.0799L52.6899 35.1389C52.9409 34.7624 53.3801 34.4488 53.7251 34.041C54.126 33.6008 54.579 33.2111 55.074 32.8803C55.5759 32.5039 56.0778 32.0961 56.6738 31.8137L57.5835 31.3746C57.8972 31.2177 58.2109 31.155 58.5246 31.0295C59.1747 30.7935 59.8475 30.6253 60.5322 30.5276C61.2223 30.3708 61.9125 30.3708 62.5712 30.308C63.2613 30.3708 63.9201 30.308 64.5788 30.4021C65.2062 30.4649 65.8336 30.559 66.3983 30.7158C66.9943 30.7786 67.5275 30.9668 68.0294 31.0923L68.8764 31.3746L68.6568 31.5314C68.0474 32.1417 67.4912 32.8028 66.9943 33.5077C66.7435 33.8774 66.5029 34.254 66.2728 34.637C66.0322 35.0605 65.8226 35.5008 65.6454 35.9545C66.1258 35.9869 66.6079 35.9869 67.0884 35.9545C68.4019 35.8732 69.6991 35.6201 70.9468 35.2016C72.4998 34.6636 73.9762 33.9254 75.3384 33.0058L75.5267 32.9117C75.9514 32.6277 76.2766 32.2178 76.4567 31.7397C76.6367 31.2615 76.6625 30.7389 76.5305 30.2453H76.5618Z" fill="#2491D5"/>
<path d="M49.2079 49.6628H12.8198C12.3372 49.6628 11.8745 49.8544 11.5333 50.1957C11.1921 50.5369 11.0004 50.9996 11.0004 51.4822C11.0004 51.9647 11.1921 52.4275 11.5333 52.7687C11.8745 53.1099 12.3372 53.3016 12.8198 53.3016H49.2079C49.6905 53.3016 50.1532 53.1099 50.4944 52.7687C50.8357 52.4275 51.0273 51.9647 51.0273 51.4822C51.0273 50.9996 50.8357 50.5369 50.4944 50.1957C50.1532 49.8544 49.6905 49.6628 49.2079 49.6628Z" fill="#2491D5"/>
<path d="M15.0784 46.5258C14.5959 46.5258 14.1331 46.7175 13.7919 47.0587C13.4507 47.3999 13.259 47.8627 13.259 48.3452C13.259 48.8278 13.4507 49.2905 13.7919 49.6317C14.1331 49.973 14.5959 50.1646 15.0784 50.1646H46.9494C47.4319 50.1646 47.8947 49.973 48.2359 49.6317C48.5771 49.2905 48.7688 48.8278 48.7688 48.3452C48.7688 47.8627 48.5771 47.3999 48.2359 47.0587C47.8947 46.7175 47.4319 46.5258 46.9494 46.5258H46.4475V30.1512H46.918C47.0375 30.1512 47.1558 30.1276 47.2662 30.0819C47.3765 30.0362 47.4768 29.9692 47.5613 29.8847C47.6458 29.8002 47.7128 29.6999 47.7585 29.5896C47.8042 29.4792 47.8277 29.3609 47.8277 29.2415C47.8277 29.122 47.8042 29.0037 47.7585 28.8933C47.7128 28.783 47.6458 28.6827 47.5613 28.5982C47.4768 28.5137 47.3765 28.4467 47.2662 28.401C47.1558 28.3553 47.0375 28.3317 46.918 28.3317H15.0784C14.9589 28.3317 14.8406 28.3553 14.7303 28.401C14.6199 28.4467 14.5196 28.5137 14.4351 28.5982C14.3507 28.6827 14.2837 28.783 14.2379 28.8933C14.1922 29.0037 14.1687 29.122 14.1687 29.2415C14.1687 29.3609 14.1922 29.4792 14.2379 29.5896C14.2837 29.6999 14.3507 29.8002 14.4351 29.8847C14.5196 29.9692 14.6199 30.0362 14.7303 30.0819C14.8406 30.1276 14.9589 30.1512 15.0784 30.1512H15.5176V46.5258H15.0784ZM42.8401 30.1512V46.5258H37.3818V30.1512H42.8401ZM33.743 30.1512V46.5258H28.2848V30.1512H33.743ZM19.1878 30.1512H24.646V46.5258H19.1878V30.1512ZM49.208 26.826C49.6443 26.8385 50.0706 26.6937 50.409 26.4181C50.7475 26.1424 50.9755 25.7543 51.0516 25.3245C51.1277 24.8946 51.0467 24.4518 50.8234 24.0767C50.6001 23.7017 50.2495 23.4194 49.8354 23.2813L31.7354 15.1567C31.499 15.0493 31.2423 14.9937 30.9825 14.9937C30.7228 14.9937 30.4661 15.0493 30.2297 15.1567L12.0356 23.3441C11.6535 23.5139 11.3415 23.8101 11.1522 24.183C10.9629 24.5558 10.9078 24.9825 10.9962 25.3912C11.0845 25.7999 11.311 26.1657 11.6374 26.427C11.9638 26.6883 12.3703 26.8292 12.7885 26.826H49.208Z" fill="#2491D5"/>
<path d="M116.15 61.1438H79.7614C79.2789 61.1438 78.8161 61.3355 78.4749 61.6767C78.1337 62.0179 77.942 62.4807 77.942 62.9632C77.942 63.4458 78.1337 63.9086 78.4749 64.2498C78.8161 64.591 79.2789 64.7826 79.7614 64.7826H116.15C116.632 64.7826 117.095 64.591 117.436 64.2498C117.777 63.9086 117.969 63.4458 117.969 62.9632C117.969 62.4807 117.777 62.0179 117.436 61.6767C117.095 61.3355 116.632 61.1438 116.15 61.1438Z" fill="#00B16F"/>
<path d="M82.02 58.0383C81.5375 58.0383 81.0747 58.23 80.7335 58.5712C80.3923 58.9124 80.2006 59.3752 80.2006 59.8577C80.2006 60.3403 80.3923 60.8031 80.7335 61.1443C81.0747 61.4855 81.5375 61.6771 82.02 61.6771H113.891C114.374 61.6771 114.836 61.4855 115.178 61.1443C115.519 60.8031 115.71 60.3403 115.71 59.8577C115.71 59.3752 115.519 58.9124 115.178 58.5712C114.836 58.23 114.374 58.0383 113.891 58.0383H113.42V41.6637H113.891C114.132 41.6637 114.364 41.5678 114.534 41.3972C114.705 41.2266 114.801 40.9952 114.801 40.754C114.801 40.5127 114.705 40.2813 114.534 40.1107C114.364 39.9401 114.132 39.8443 113.891 39.8443H82.0514C81.8101 39.8443 81.5787 39.9401 81.4081 40.1107C81.2375 40.2813 81.1417 40.5127 81.1417 40.754C81.1417 40.9952 81.2375 41.2266 81.4081 41.3972C81.5787 41.5678 81.8101 41.6637 82.0514 41.6637H82.4906V58.0383H82.02ZM109.813 41.6637V58.0383H104.355V41.6637H109.813ZM100.716 41.6637V58.0383H95.2578V41.6637H100.716ZM86.1608 41.6637H91.619V58.0383H86.1608V41.6637ZM79.7928 38.3072H116.181C116.617 38.3197 117.044 38.1749 117.382 37.8992C117.72 37.6236 117.949 37.2354 118.025 36.8056C118.101 36.3758 118.02 35.9329 117.796 35.5579C117.573 35.1828 117.222 34.9005 116.808 34.7625L98.7398 26.6379C98.5033 26.5304 98.2466 26.4748 97.9869 26.4748C97.7272 26.4748 97.4705 26.5304 97.234 26.6379L79.04 34.8252C78.6579 34.995 78.3459 35.2913 78.1566 35.6641C77.9673 36.0369 77.9122 36.4636 78.0005 36.8723C78.0889 37.281 78.3154 37.6468 78.6418 37.9081C78.9682 38.1695 79.3747 38.3104 79.7928 38.3072Z" fill="#00B16F"/>
</svg>
