<svg width="411" height="98" viewBox="0 0 411 98" fill="none" xmlns="http://www.w3.org/2000/svg">
<rect x="1" y="1.29297" width="409" height="95.2928" rx="6.74639" fill="white" stroke="#E5E5E5" stroke-width="0.843299"/>
<path d="M32.3976 33.6885V32.8148H34.6998V26.1797H34.6172L32.5393 28.116L31.9608 27.4902L34.1449 25.4478H35.6915V32.8148H37.8166V33.6885H32.3976ZM41.9796 33.8302C40.9957 33.8302 40.2756 33.4563 39.8191 32.7086C39.3704 31.9608 39.1461 30.914 39.1461 29.5681C39.1461 28.2222 39.3704 27.1754 39.8191 26.4277C40.2756 25.6799 40.9957 25.3061 41.9796 25.3061C42.9634 25.3061 43.6797 25.6799 44.1283 26.4277C44.5848 27.1754 44.8131 28.2222 44.8131 29.5681C44.8131 30.914 44.5848 31.9608 44.1283 32.7086C43.6797 33.4563 42.9634 33.8302 41.9796 33.8302ZM41.9796 32.9683C42.3023 32.9683 42.5778 32.9014 42.806 32.7676C43.0343 32.6338 43.2192 32.4449 43.3609 32.2009C43.5026 31.9569 43.6049 31.6696 43.6679 31.339C43.7387 31.0085 43.7741 30.6425 43.7741 30.2411V28.8952C43.7741 28.4938 43.7387 28.1278 43.6679 27.7972C43.6049 27.4666 43.5026 27.1793 43.3609 26.9353C43.2192 26.6913 43.0343 26.5024 42.806 26.3686C42.5778 26.2348 42.3023 26.1679 41.9796 26.1679C41.6569 26.1679 41.3814 26.2348 41.1532 26.3686C40.9249 26.5024 40.7399 26.6913 40.5983 26.9353C40.4566 27.1793 40.3503 27.4666 40.2795 27.7972C40.2165 28.1278 40.1851 28.4938 40.1851 28.8952V30.2411C40.1851 30.6425 40.2165 31.0085 40.2795 31.339C40.3503 31.6696 40.4566 31.9569 40.5983 32.2009C40.7399 32.4449 40.9249 32.6338 41.1532 32.7676C41.3814 32.9014 41.6569 32.9683 41.9796 32.9683ZM49.0587 33.8302C48.0748 33.8302 47.3547 33.4563 46.8982 32.7086C46.4495 31.9608 46.2252 30.914 46.2252 29.5681C46.2252 28.2222 46.4495 27.1754 46.8982 26.4277C47.3547 25.6799 48.0748 25.3061 49.0587 25.3061C50.0425 25.3061 50.7588 25.6799 51.2074 26.4277C51.6639 27.1754 51.8922 28.2222 51.8922 29.5681C51.8922 30.914 51.6639 31.9608 51.2074 32.7086C50.7588 33.4563 50.0425 33.8302 49.0587 33.8302ZM49.0587 32.9683C49.3814 32.9683 49.6569 32.9014 49.8851 32.7676C50.1134 32.6338 50.2983 32.4449 50.44 32.2009C50.5817 31.9569 50.684 31.6696 50.747 31.339C50.8178 31.0085 50.8532 30.6425 50.8532 30.2411V28.8952C50.8532 28.4938 50.8178 28.1278 50.747 27.7972C50.684 27.4666 50.5817 27.1793 50.44 26.9353C50.2983 26.6913 50.1134 26.5024 49.8851 26.3686C49.6569 26.2348 49.3814 26.1679 49.0587 26.1679C48.736 26.1679 48.4605 26.2348 48.2323 26.3686C48.004 26.5024 47.819 26.6913 47.6774 26.9353C47.5357 27.1793 47.4294 27.4666 47.3586 27.7972C47.2956 28.1278 47.2642 28.4938 47.2642 28.8952V30.2411C47.2642 30.6425 47.2956 31.0085 47.3586 31.339C47.4294 31.6696 47.5357 31.9569 47.6774 32.2009C47.819 32.4449 48.004 32.6338 48.2323 32.7676C48.4605 32.9014 48.736 32.9683 49.0587 32.9683Z" fill="#414652"/>
<path d="M77.1398 30.6661L75.2626 32.5905L74.6841 32.012L76.5613 30.0876L74.6841 28.1632L75.2626 27.5847L77.1398 29.5091L79.0169 27.5847L79.5954 28.1632L77.7183 30.0876L79.5954 32.012L79.0169 32.5905L77.1398 30.6661Z" fill="#414652"/>
<path d="M106.264 33.6885V32.071H102.286V31.1974L105.733 25.4478H107.209V31.2446H108.401V32.071H107.209V33.6885H106.264ZM103.218 31.2446H106.264V26.2152H106.205L103.218 31.2446ZM110.522 33.8302C110.27 33.8302 110.085 33.7672 109.967 33.6413C109.857 33.5153 109.801 33.35 109.801 33.1454V32.9919C109.801 32.7873 109.857 32.622 109.967 32.4961C110.085 32.3701 110.27 32.3072 110.522 32.3072C110.774 32.3072 110.955 32.3701 111.065 32.4961C111.183 32.622 111.242 32.7873 111.242 32.9919V33.1454C111.242 33.35 111.183 33.5153 111.065 33.6413C110.955 33.7672 110.774 33.8302 110.522 33.8302ZM115.675 33.8302C114.691 33.8302 113.971 33.4563 113.514 32.7086C113.065 31.9608 112.841 30.914 112.841 29.5681C112.841 28.2222 113.065 27.1754 113.514 26.4277C113.971 25.6799 114.691 25.3061 115.675 25.3061C116.658 25.3061 117.375 25.6799 117.823 26.4277C118.28 27.1754 118.508 28.2222 118.508 29.5681C118.508 30.914 118.28 31.9608 117.823 32.7086C117.375 33.4563 116.658 33.8302 115.675 33.8302ZM115.675 32.9683C115.997 32.9683 116.273 32.9014 116.501 32.7676C116.729 32.6338 116.914 32.4449 117.056 32.2009C117.198 31.9569 117.3 31.6696 117.363 31.339C117.434 31.0085 117.469 30.6425 117.469 30.2411V28.8952C117.469 28.4938 117.434 28.1278 117.363 27.7972C117.3 27.4666 117.198 27.1793 117.056 26.9353C116.914 26.6913 116.729 26.5024 116.501 26.3686C116.273 26.2348 115.997 26.1679 115.675 26.1679C115.352 26.1679 115.076 26.2348 114.848 26.3686C114.62 26.5024 114.435 26.6913 114.293 26.9353C114.152 27.1793 114.045 27.4666 113.975 27.7972C113.912 28.1278 113.88 28.4938 113.88 28.8952V30.2411C113.88 30.6425 113.912 31.0085 113.975 31.339C114.045 31.6696 114.152 31.9569 114.293 32.2009C114.435 32.4449 114.62 32.6338 114.848 32.7676C115.076 32.9014 115.352 32.9683 115.675 32.9683ZM122.754 33.8302C121.77 33.8302 121.05 33.4563 120.593 32.7086C120.145 31.9608 119.92 30.914 119.92 29.5681C119.92 28.2222 120.145 27.1754 120.593 26.4277C121.05 25.6799 121.77 25.3061 122.754 25.3061C123.738 25.3061 124.454 25.6799 124.902 26.4277C125.359 27.1754 125.587 28.2222 125.587 29.5681C125.587 30.914 125.359 31.9608 124.902 32.7086C124.454 33.4563 123.738 33.8302 122.754 33.8302ZM122.754 32.9683C123.076 32.9683 123.352 32.9014 123.58 32.7676C123.808 32.6338 123.993 32.4449 124.135 32.2009C124.277 31.9569 124.379 31.6696 124.442 31.339C124.513 31.0085 124.548 30.6425 124.548 30.2411V28.8952C124.548 28.4938 124.513 28.1278 124.442 27.7972C124.379 27.4666 124.277 27.1793 124.135 26.9353C123.993 26.6913 123.808 26.5024 123.58 26.3686C123.352 26.2348 123.076 26.1679 122.754 26.1679C122.431 26.1679 122.156 26.2348 121.927 26.3686C121.699 26.5024 121.514 26.6913 121.372 26.9353C121.231 27.1793 121.124 27.4666 121.054 27.7972C120.991 28.1278 120.959 28.4938 120.959 28.8952V30.2411C120.959 30.6425 120.991 31.0085 121.054 31.339C121.124 31.6696 121.231 31.9569 121.372 32.2009C121.514 32.4449 121.699 32.6338 121.927 32.7676C122.156 32.9014 122.431 32.9683 122.754 32.9683Z" fill="#414652"/>
<path d="M150.917 30.6661L149.04 32.5905L148.461 32.012L150.339 30.0876L148.461 28.1632L149.04 27.5847L150.917 29.5091L152.794 27.5847L153.373 28.1632L151.496 30.0876L153.373 32.012L152.794 32.5905L150.917 30.6661Z" fill="#414652"/>
<path d="M176.653 33.6885V32.8148H178.955V26.1797H178.873L176.795 28.116L176.216 27.4902L178.401 25.4478H179.947V32.8148H182.072V33.6885H176.653ZM184.299 32.3072C184.551 32.3072 184.732 32.3741 184.842 32.5079C184.96 32.6338 185.019 32.7991 185.019 33.0037V33.169C185.019 33.4917 184.925 33.8459 184.736 34.2316C184.547 34.6251 184.283 34.9675 183.945 35.2587H183.154C183.39 35.0068 183.579 34.7668 183.72 34.5385C183.87 34.3181 183.976 34.0702 184.039 33.7947C183.882 33.7554 183.764 33.6806 183.685 33.5704C183.614 33.4602 183.579 33.3264 183.579 33.169V33.0037C183.579 32.7991 183.634 32.6338 183.744 32.5079C183.862 32.3741 184.047 32.3072 184.299 32.3072ZM192.203 28.4701C192.203 29.0841 192.112 29.6626 191.931 30.2057C191.75 30.7409 191.514 31.2328 191.223 31.6814C190.94 32.1222 190.625 32.5157 190.278 32.862C189.932 33.2005 189.594 33.476 189.263 33.6885H187.988C188.429 33.3658 188.822 33.0509 189.169 32.744C189.515 32.437 189.818 32.1183 190.078 31.7877C190.337 31.4492 190.558 31.0911 190.739 30.7133C190.92 30.3276 191.065 29.8948 191.176 29.4146L191.117 29.391C190.92 29.7295 190.664 30.0128 190.349 30.2411C190.042 30.4615 189.637 30.5716 189.133 30.5716C188.779 30.5716 188.452 30.5126 188.153 30.3946C187.854 30.2765 187.598 30.1073 187.386 29.8869C187.173 29.6665 187.004 29.4028 186.878 29.0959C186.76 28.781 186.701 28.4269 186.701 28.0333C186.701 27.6319 186.764 27.2659 186.89 26.9353C187.024 26.5969 187.209 26.3096 187.445 26.0735C187.689 25.8295 187.976 25.6406 188.307 25.5068C188.645 25.373 189.023 25.3061 189.44 25.3061C189.865 25.3061 190.247 25.3809 190.585 25.5304C190.932 25.6721 191.223 25.8807 191.459 26.1561C191.703 26.4237 191.888 26.7543 192.014 27.1478C192.14 27.5414 192.203 27.9822 192.203 28.4701ZM189.452 29.7334C189.995 29.7334 190.416 29.5839 190.715 29.2848C191.022 28.9857 191.176 28.5567 191.176 27.9979V27.9034C191.176 27.3446 191.022 26.9157 190.715 26.6166C190.416 26.3175 189.995 26.1679 189.452 26.1679C188.909 26.1679 188.484 26.3175 188.177 26.6166C187.878 26.9157 187.728 27.3446 187.728 27.9034V27.9979C187.728 28.5567 187.878 28.9857 188.177 29.2848C188.484 29.5839 188.909 29.7334 189.452 29.7334ZM196.531 33.8302C195.547 33.8302 194.827 33.4563 194.371 32.7086C193.922 31.9608 193.698 30.914 193.698 29.5681C193.698 28.2222 193.922 27.1754 194.371 26.4277C194.827 25.6799 195.547 25.3061 196.531 25.3061C197.515 25.3061 198.231 25.6799 198.68 26.4277C199.136 27.1754 199.365 28.2222 199.365 29.5681C199.365 30.914 199.136 31.9608 198.68 32.7086C198.231 33.4563 197.515 33.8302 196.531 33.8302ZM196.531 32.9683C196.854 32.9683 197.129 32.9014 197.357 32.7676C197.586 32.6338 197.771 32.4449 197.912 32.2009C198.054 31.9569 198.156 31.6696 198.219 31.339C198.29 31.0085 198.326 30.6425 198.326 30.2411V28.8952C198.326 28.4938 198.29 28.1278 198.219 27.7972C198.156 27.4666 198.054 27.1793 197.912 26.9353C197.771 26.6913 197.586 26.5024 197.357 26.3686C197.129 26.2348 196.854 26.1679 196.531 26.1679C196.208 26.1679 195.933 26.2348 195.705 26.3686C195.476 26.5024 195.291 26.6913 195.15 26.9353C195.008 27.1793 194.902 27.4666 194.831 27.7972C194.768 28.1278 194.736 28.4938 194.736 28.8952V30.2411C194.736 30.6425 194.768 31.0085 194.831 31.339C194.902 31.6696 195.008 31.9569 195.15 32.2009C195.291 32.4449 195.476 32.6338 195.705 32.7676C195.933 32.9014 196.208 32.9683 196.531 32.9683ZM203.61 33.8302C202.626 33.8302 201.906 33.4563 201.45 32.7086C201.001 31.9608 200.777 30.914 200.777 29.5681C200.777 28.2222 201.001 27.1754 201.45 26.4277C201.906 25.6799 202.626 25.3061 203.61 25.3061C204.594 25.3061 205.31 25.6799 205.759 26.4277C206.215 27.1754 206.444 28.2222 206.444 29.5681C206.444 30.914 206.215 31.9608 205.759 32.7086C205.31 33.4563 204.594 33.8302 203.61 33.8302ZM203.61 32.9683C203.933 32.9683 204.208 32.9014 204.437 32.7676C204.665 32.6338 204.85 32.4449 204.991 32.2009C205.133 31.9569 205.235 31.6696 205.298 31.339C205.369 31.0085 205.405 30.6425 205.405 30.2411V28.8952C205.405 28.4938 205.369 28.1278 205.298 27.7972C205.235 27.4666 205.133 27.1793 204.991 26.9353C204.85 26.6913 204.665 26.5024 204.437 26.3686C204.208 26.2348 203.933 26.1679 203.61 26.1679C203.287 26.1679 203.012 26.2348 202.784 26.3686C202.555 26.5024 202.37 26.6913 202.229 26.9353C202.087 27.1793 201.981 27.4666 201.91 27.7972C201.847 28.1278 201.816 28.4938 201.816 28.8952V30.2411C201.816 30.6425 201.847 31.0085 201.91 31.339C201.981 31.6696 202.087 31.9569 202.229 32.2009C202.37 32.4449 202.555 32.6338 202.784 32.7676C203.012 32.9014 203.287 32.9683 203.61 32.9683Z" fill="#414652"/>
<path d="M228.2 35.4712L231.281 24.9519H232.131L229.05 35.4712H228.2Z" fill="#414652"/>
<path d="M269.014 26.3214H265.402L265.166 29.4619H265.248C265.445 29.1864 265.665 28.966 265.909 28.8007C266.161 28.6354 266.504 28.5528 266.937 28.5528C267.291 28.5528 267.617 28.6118 267.916 28.7299C268.216 28.8479 268.475 29.0172 268.696 29.2375C268.916 29.4501 269.085 29.7137 269.203 30.0286C269.329 30.3434 269.392 30.7015 269.392 31.1029C269.392 31.5043 269.329 31.8743 269.203 32.2127C269.077 32.5433 268.892 32.8306 268.648 33.0746C268.412 33.3107 268.121 33.4956 267.775 33.6294C267.436 33.7632 267.051 33.8302 266.618 33.8302C266.271 33.8302 265.964 33.7908 265.697 33.7121C265.437 33.6334 265.205 33.5271 265 33.3933C264.796 33.2595 264.615 33.11 264.457 32.9447C264.308 32.7794 264.17 32.6062 264.044 32.4252L264.788 31.8585C264.89 32.0238 264.996 32.1733 265.107 32.3072C265.225 32.441 265.351 32.5551 265.484 32.6495C265.626 32.744 265.787 32.8188 265.968 32.8738C266.149 32.9211 266.366 32.9447 266.618 32.9447C267.184 32.9447 267.613 32.7951 267.905 32.4961C268.196 32.197 268.341 31.7759 268.341 31.2328V31.1147C268.341 30.5716 268.196 30.1506 267.905 29.8515C267.613 29.5524 267.184 29.4028 266.618 29.4028C266.24 29.4028 265.941 29.4737 265.721 29.6153C265.508 29.7491 265.315 29.9105 265.142 30.0994L264.304 29.9813L264.599 25.4478H269.014V26.3214ZM273.756 33.8302C272.772 33.8302 272.052 33.4563 271.595 32.7086C271.147 31.9608 270.922 30.914 270.922 29.5681C270.922 28.2222 271.147 27.1754 271.595 26.4277C272.052 25.6799 272.772 25.3061 273.756 25.3061C274.74 25.3061 275.456 25.6799 275.905 26.4277C276.361 27.1754 276.589 28.2222 276.589 29.5681C276.589 30.914 276.361 31.9608 275.905 32.7086C275.456 33.4563 274.74 33.8302 273.756 33.8302ZM273.756 32.9683C274.079 32.9683 274.354 32.9014 274.582 32.7676C274.811 32.6338 274.996 32.4449 275.137 32.2009C275.279 31.9569 275.381 31.6696 275.444 31.339C275.515 31.0085 275.55 30.6425 275.55 30.2411V28.8952C275.55 28.4938 275.515 28.1278 275.444 27.7972C275.381 27.4666 275.279 27.1793 275.137 26.9353C274.996 26.6913 274.811 26.5024 274.582 26.3686C274.354 26.2348 274.079 26.1679 273.756 26.1679C273.433 26.1679 273.158 26.2348 272.929 26.3686C272.701 26.5024 272.516 26.6913 272.375 26.9353C272.233 27.1793 272.127 27.4666 272.056 27.7972C271.993 28.1278 271.961 28.4938 271.961 28.8952V30.2411C271.961 30.6425 271.993 31.0085 272.056 31.339C272.127 31.6696 272.233 31.9569 272.375 32.2009C272.516 32.4449 272.701 32.6338 272.929 32.7676C273.158 32.9014 273.433 32.9683 273.756 32.9683ZM280.835 33.8302C279.851 33.8302 279.131 33.4563 278.674 32.7086C278.226 31.9608 278.002 30.914 278.002 29.5681C278.002 28.2222 278.226 27.1754 278.674 26.4277C279.131 25.6799 279.851 25.3061 280.835 25.3061C281.819 25.3061 282.535 25.6799 282.984 26.4277C283.44 27.1754 283.668 28.2222 283.668 29.5681C283.668 30.914 283.44 31.9608 282.984 32.7086C282.535 33.4563 281.819 33.8302 280.835 33.8302ZM280.835 32.9683C281.158 32.9683 281.433 32.9014 281.661 32.7676C281.89 32.6338 282.075 32.4449 282.216 32.2009C282.358 31.9569 282.46 31.6696 282.523 31.339C282.594 31.0085 282.63 30.6425 282.63 30.2411V28.8952C282.63 28.4938 282.594 28.1278 282.523 27.7972C282.46 27.4666 282.358 27.1793 282.216 26.9353C282.075 26.6913 281.89 26.5024 281.661 26.3686C281.433 26.2348 281.158 26.1679 280.835 26.1679C280.512 26.1679 280.237 26.2348 280.009 26.3686C279.78 26.5024 279.595 26.6913 279.454 26.9353C279.312 27.1793 279.206 27.4666 279.135 27.7972C279.072 28.1278 279.04 28.4938 279.04 28.8952V30.2411C279.04 30.6425 279.072 31.0085 279.135 31.339C279.206 31.6696 279.312 31.9569 279.454 32.2009C279.595 32.4449 279.78 32.6338 280.009 32.7676C280.237 32.9014 280.512 32.9683 280.835 32.9683Z" fill="#414652"/>
<path d="M315.905 29.2966V28.4938H321.406V29.2966H315.905ZM315.905 31.6578V30.855H321.406V31.6578H315.905Z" fill="#414652"/>
<path d="M347.446 34.6566V33.6885C346.848 33.6491 346.341 33.5035 345.923 33.2516C345.514 32.9919 345.164 32.6692 344.873 32.2835L345.569 31.6578C345.821 31.9963 346.097 32.2678 346.396 32.4724C346.703 32.6692 347.057 32.7951 347.458 32.8502V29.816C346.648 29.635 346.053 29.3713 345.676 29.025C345.306 28.6708 345.121 28.1868 345.121 27.5729C345.121 27.258 345.176 26.9786 345.286 26.7346C345.404 26.4828 345.565 26.2663 345.77 26.0853C345.975 25.9043 346.219 25.7626 346.502 25.6603C346.785 25.5501 347.1 25.4792 347.446 25.4478V24.4797H348.178V25.436C348.714 25.4832 349.174 25.6209 349.56 25.8492C349.953 26.0696 350.292 26.3765 350.575 26.7701L349.855 27.3131C349.658 27.0377 349.422 26.8133 349.147 26.6402C348.871 26.4592 348.544 26.3411 348.167 26.286V29.0486L348.273 29.0723C349.091 29.2533 349.686 29.5209 350.056 29.8751C350.433 30.2214 350.622 30.7054 350.622 31.3272C350.622 32.0041 350.402 32.5511 349.961 32.9683C349.528 33.3776 348.934 33.6176 348.178 33.6885V34.6566H347.446ZM349.69 31.3863C349.69 30.9849 349.572 30.6779 349.335 30.4654C349.107 30.2529 348.718 30.0797 348.167 29.9459V32.8502C348.639 32.7873 349.009 32.6299 349.276 32.378C349.552 32.1183 349.69 31.7877 349.69 31.3863ZM346.053 27.502C346.053 27.9034 346.167 28.2065 346.396 28.4111C346.632 28.6079 346.986 28.7692 347.458 28.8952V26.286C347.033 26.3411 346.691 26.471 346.431 26.6756C346.179 26.8802 346.053 27.1557 346.053 27.502ZM352.354 33.6885V32.8148H354.656V26.1797H354.573L352.495 28.116L351.917 27.4902L354.101 25.4478H355.648V32.8148H357.773V33.6885H352.354ZM360 32.3072C360.251 32.3072 360.432 32.3741 360.543 32.5079C360.661 32.6338 360.72 32.7991 360.72 33.0037V33.169C360.72 33.4917 360.625 33.8459 360.436 34.2316C360.248 34.6251 359.984 34.9675 359.645 35.2587H358.854C359.091 35.0068 359.279 34.7668 359.421 34.5385C359.571 34.3181 359.677 34.0702 359.74 33.7947C359.582 33.7554 359.464 33.6806 359.386 33.5704C359.315 33.4602 359.279 33.3264 359.279 33.169V33.0037C359.279 32.7991 359.335 32.6338 359.445 32.5079C359.563 32.3741 359.748 32.3072 360 32.3072ZM367.49 26.3214H363.877L363.641 29.4619H363.724C363.921 29.1864 364.141 28.966 364.385 28.8007C364.637 28.6354 364.979 28.5528 365.412 28.5528C365.766 28.5528 366.093 28.6118 366.392 28.7299C366.691 28.8479 366.951 29.0172 367.171 29.2375C367.392 29.4501 367.561 29.7137 367.679 30.0286C367.805 30.3434 367.868 30.7015 367.868 31.1029C367.868 31.5043 367.805 31.8743 367.679 32.2127C367.553 32.5433 367.368 32.8306 367.124 33.0746C366.888 33.3107 366.597 33.4956 366.251 33.6294C365.912 33.7632 365.526 33.8302 365.094 33.8302C364.747 33.8302 364.44 33.7908 364.173 33.7121C363.913 33.6334 363.681 33.5271 363.476 33.3933C363.271 33.2595 363.09 33.11 362.933 32.9447C362.783 32.7794 362.646 32.6062 362.52 32.4252L363.264 31.8585C363.366 32.0238 363.472 32.1733 363.582 32.3072C363.7 32.441 363.826 32.5551 363.96 32.6495C364.102 32.744 364.263 32.8188 364.444 32.8738C364.625 32.9211 364.842 32.9447 365.094 32.9447C365.66 32.9447 366.089 32.7951 366.38 32.4961C366.672 32.197 366.817 31.7759 366.817 31.2328V31.1147C366.817 30.5716 366.672 30.1506 366.38 29.8515C366.089 29.5524 365.66 29.4028 365.094 29.4028C364.716 29.4028 364.417 29.4737 364.196 29.6153C363.984 29.7491 363.791 29.9105 363.618 30.0994L362.779 29.9813L363.075 25.4478H367.49V26.3214ZM374.982 33.6885H369.575V32.6731L372.267 30.1938C372.653 29.8397 372.975 29.4658 373.235 29.0723C373.495 28.6708 373.625 28.2694 373.625 27.868V27.7264C373.625 27.2698 373.499 26.8999 373.247 26.6166C372.995 26.3332 372.613 26.1915 372.102 26.1915C371.85 26.1915 371.63 26.227 371.441 26.2978C371.252 26.3686 371.086 26.467 370.945 26.593C370.811 26.7189 370.697 26.8684 370.602 27.0416C370.516 27.2069 370.445 27.3879 370.39 27.5847L369.504 27.2423C369.583 26.9983 369.689 26.7622 369.823 26.5339C369.965 26.2978 370.138 26.0892 370.343 25.9082C370.555 25.7272 370.807 25.5816 371.098 25.4714C371.397 25.3612 371.748 25.3061 372.149 25.3061C372.55 25.3061 372.909 25.3651 373.223 25.4832C373.538 25.6012 373.802 25.7665 374.014 25.979C374.227 26.1915 374.388 26.4434 374.498 26.7346C374.616 27.0259 374.676 27.3486 374.676 27.7027C374.676 28.0254 374.628 28.3245 374.534 28.6C374.447 28.8755 374.325 29.1392 374.168 29.391C374.01 29.635 373.818 29.8751 373.589 30.1112C373.369 30.3473 373.129 30.5834 372.869 30.8196L370.65 32.8148H374.982V33.6885ZM379.311 33.8302C378.327 33.8302 377.607 33.4563 377.15 32.7086C376.702 31.9608 376.477 30.914 376.477 29.5681C376.477 28.2222 376.702 27.1754 377.15 26.4277C377.607 25.6799 378.327 25.3061 379.311 25.3061C380.295 25.3061 381.011 25.6799 381.459 26.4277C381.916 27.1754 382.144 28.2222 382.144 29.5681C382.144 30.914 381.916 31.9608 381.459 32.7086C381.011 33.4563 380.295 33.8302 379.311 33.8302ZM379.311 32.9683C379.633 32.9683 379.909 32.9014 380.137 32.7676C380.365 32.6338 380.55 32.4449 380.692 32.2009C380.834 31.9569 380.936 31.6696 380.999 31.339C381.07 31.0085 381.105 30.6425 381.105 30.2411V28.8952C381.105 28.4938 381.07 28.1278 380.999 27.7972C380.936 27.4666 380.834 27.1793 380.692 26.9353C380.55 26.6913 380.365 26.5024 380.137 26.3686C379.909 26.2348 379.633 26.1679 379.311 26.1679C378.988 26.1679 378.713 26.2348 378.484 26.3686C378.256 26.5024 378.071 26.6913 377.929 26.9353C377.788 27.1793 377.681 27.4666 377.611 27.7972C377.548 28.1278 377.516 28.4938 377.516 28.8952V30.2411C377.516 30.6425 377.548 31.0085 377.611 31.339C377.681 31.6696 377.788 31.9569 377.929 32.2009C378.071 32.4449 378.256 32.6338 378.484 32.7676C378.713 32.9014 378.988 32.9683 379.311 32.9683Z" fill="#414652"/>
<path d="M176.661 76.8662V68.6255H179.943C180.683 68.6255 181.25 68.838 181.643 69.263C182.045 69.6802 182.245 70.2547 182.245 70.9867C182.245 71.7187 182.045 72.2972 181.643 72.7222C181.25 73.1394 180.683 73.348 179.943 73.348H177.653V76.8662H176.661ZM177.653 72.4743H179.943C180.337 72.4743 180.64 72.372 180.852 72.1673C181.073 71.9627 181.183 71.6715 181.183 71.2937V70.6798C181.183 70.302 181.073 70.0108 180.852 69.8061C180.64 69.6015 180.337 69.4992 179.943 69.4992H177.653V72.4743ZM183.611 76.8662V70.7742H184.556V71.8958H184.615C184.725 71.6046 184.922 71.3449 185.205 71.1166C185.488 70.8883 185.878 70.7742 186.374 70.7742H186.74V71.7187H186.185C185.673 71.7187 185.272 71.8171 184.981 72.0139C184.697 72.2028 184.556 72.4428 184.556 72.734V76.8662H183.611ZM188.418 69.3457C188.214 69.3457 188.064 69.2984 187.97 69.204C187.883 69.1017 187.84 68.9718 187.84 68.8144V68.6609C187.84 68.5035 187.883 68.3776 187.97 68.2831C188.064 68.1808 188.214 68.1296 188.418 68.1296C188.623 68.1296 188.769 68.1808 188.855 68.2831C188.95 68.3776 188.997 68.5035 188.997 68.6609V68.8144C188.997 68.9718 188.95 69.1017 188.855 69.204C188.769 69.2984 188.623 69.3457 188.418 69.3457ZM187.946 70.7742H188.891V76.8662H187.946V70.7742ZM193.164 77.0079C192.739 77.0079 192.358 76.9331 192.019 76.7836C191.681 76.634 191.394 76.4215 191.157 76.146C190.929 75.8706 190.752 75.536 190.626 75.1425C190.508 74.749 190.449 74.3082 190.449 73.8202C190.449 73.3322 190.508 72.8915 190.626 72.4979C190.752 72.1044 190.929 71.7699 191.157 71.4944C191.394 71.2189 191.681 71.0064 192.019 70.8569C192.358 70.7073 192.739 70.6325 193.164 70.6325C193.77 70.6325 194.255 70.7663 194.617 71.034C194.987 71.2937 195.262 71.6361 195.443 72.0611L194.652 72.4625C194.542 72.1477 194.361 71.9037 194.109 71.7305C193.857 71.5574 193.542 71.4708 193.164 71.4708C192.881 71.4708 192.633 71.518 192.421 71.6125C192.208 71.699 192.031 71.825 191.889 71.9903C191.748 72.1477 191.641 72.3405 191.571 72.5688C191.5 72.7891 191.464 73.0331 191.464 73.3007V74.3397C191.464 74.8749 191.606 75.3157 191.889 75.662C192.181 76.0004 192.606 76.1696 193.164 76.1696C193.928 76.1696 194.479 75.8155 194.817 75.1071L195.502 75.5675C195.305 76.0083 195.01 76.3585 194.617 76.6183C194.231 76.878 193.747 77.0079 193.164 77.0079ZM199.057 77.0079C198.639 77.0079 198.262 76.9331 197.923 76.7836C197.593 76.634 197.305 76.4215 197.061 76.146C196.825 75.8627 196.64 75.5282 196.506 75.1425C196.38 74.749 196.318 74.3082 196.318 73.8202C196.318 73.3401 196.38 72.9033 196.506 72.5097C196.64 72.1162 196.825 71.7817 197.061 71.5062C197.305 71.2229 197.593 71.0064 197.923 70.8569C198.262 70.7073 198.639 70.6325 199.057 70.6325C199.466 70.6325 199.832 70.7073 200.155 70.8569C200.477 71.0064 200.753 71.215 200.981 71.4826C201.209 71.7423 201.382 72.0532 201.5 72.4153C201.626 72.7773 201.689 73.1748 201.689 73.6077V74.0563H197.309V74.3397C197.309 74.5994 197.349 74.8434 197.427 75.0717C197.514 75.2921 197.632 75.4849 197.781 75.6502C197.939 75.8155 198.128 75.9453 198.348 76.0398C198.576 76.1342 198.832 76.1815 199.116 76.1815C199.501 76.1815 199.836 76.0909 200.119 75.9099C200.41 75.7289 200.635 75.4691 200.792 75.1307L201.465 75.6148C201.268 76.0319 200.961 76.3704 200.544 76.6301C200.127 76.882 199.631 77.0079 199.057 77.0079ZM199.057 71.4236C198.797 71.4236 198.561 71.4708 198.348 71.5652C198.136 71.6518 197.951 71.7777 197.793 71.943C197.644 72.1083 197.526 72.3051 197.439 72.5333C197.353 72.7537 197.309 72.9977 197.309 73.2653V73.348H200.674V73.2181C200.674 72.675 200.524 72.2421 200.225 71.9194C199.934 71.5888 199.545 71.4236 199.057 71.4236Z" fill="#999999"/>
<path d="M189.53 50.373V63.8658H188.687V50.373H189.53Z" fill="#E5E5E5"/>
<circle cx="189.108" cy="49.1082" r="1.6866" fill="#577A92" fill-opacity="0.04" stroke="#E5E5E5" stroke-width="0.843299"/>
<path d="M250.028 76.6973V68.4565H251.019V75.8236H254.526V76.6973H250.028ZM258.023 76.8389C257.606 76.8389 257.228 76.7642 256.89 76.6146C256.559 76.4651 256.272 76.2526 256.028 75.9771C255.792 75.6937 255.607 75.3592 255.473 74.9736C255.347 74.58 255.284 74.1393 255.284 73.6513C255.284 73.1712 255.347 72.7343 255.473 72.3408C255.607 71.9472 255.792 71.6127 256.028 71.3373C256.272 71.0539 256.559 70.8375 256.89 70.6879C257.228 70.5384 257.606 70.4636 258.023 70.4636C258.432 70.4636 258.798 70.5384 259.121 70.6879C259.444 70.8375 259.719 71.046 259.947 71.3136C260.176 71.5734 260.349 71.8843 260.467 72.2463C260.593 72.6084 260.656 73.0059 260.656 73.4388V73.8874H256.276V74.1707C256.276 74.4305 256.315 74.6745 256.394 74.9027C256.48 75.1231 256.598 75.3159 256.748 75.4812C256.905 75.6465 257.094 75.7764 257.315 75.8708C257.543 75.9653 257.799 76.0125 258.082 76.0125C258.468 76.0125 258.802 75.922 259.085 75.741C259.377 75.5599 259.601 75.3002 259.758 74.9618L260.431 75.4458C260.235 75.863 259.928 76.2014 259.511 76.4611C259.093 76.713 258.598 76.8389 258.023 76.8389ZM258.023 71.2546C257.763 71.2546 257.527 71.3018 257.315 71.3963C257.102 71.4829 256.917 71.6088 256.76 71.7741C256.61 71.9394 256.492 72.1361 256.405 72.3644C256.319 72.5848 256.276 72.8288 256.276 73.0964V73.179H259.64V73.0492C259.64 72.5061 259.491 72.0732 259.192 71.7505C258.901 71.4199 258.511 71.2546 258.023 71.2546ZM263.466 76.6973L261.329 70.6053H262.273L263.336 73.6277L263.997 75.7055H264.056L264.717 73.6277L265.803 70.6053H266.712L264.564 76.6973H263.466ZM270.129 76.8389C269.712 76.8389 269.334 76.7642 268.995 76.6146C268.665 76.4651 268.378 76.2526 268.134 75.9771C267.898 75.6937 267.713 75.3592 267.579 74.9736C267.453 74.58 267.39 74.1393 267.39 73.6513C267.39 73.1712 267.453 72.7343 267.579 72.3408C267.713 71.9472 267.898 71.6127 268.134 71.3373C268.378 71.0539 268.665 70.8375 268.995 70.6879C269.334 70.5384 269.712 70.4636 270.129 70.4636C270.538 70.4636 270.904 70.5384 271.227 70.6879C271.55 70.8375 271.825 71.046 272.053 71.3136C272.282 71.5734 272.455 71.8843 272.573 72.2463C272.699 72.6084 272.762 73.0059 272.762 73.4388V73.8874H268.382V74.1707C268.382 74.4305 268.421 74.6745 268.5 74.9027C268.586 75.1231 268.704 75.3159 268.854 75.4812C269.011 75.6465 269.2 75.7764 269.421 75.8708C269.649 75.9653 269.905 76.0125 270.188 76.0125C270.574 76.0125 270.908 75.922 271.191 75.741C271.483 75.5599 271.707 75.3002 271.864 74.9618L272.537 75.4458C272.341 75.863 272.034 76.2014 271.616 76.4611C271.199 76.713 270.703 76.8389 270.129 76.8389ZM270.129 71.2546C269.869 71.2546 269.633 71.3018 269.421 71.3963C269.208 71.4829 269.023 71.6088 268.866 71.7741C268.716 71.9394 268.598 72.1361 268.511 72.3644C268.425 72.5848 268.382 72.8288 268.382 73.0964V73.179H271.746V73.0492C271.746 72.5061 271.597 72.0732 271.298 71.7505C271.006 71.4199 270.617 71.2546 270.129 71.2546ZM274.318 76.6973V70.6053H275.263V71.7269H275.322C275.432 71.4356 275.629 71.1759 275.912 70.9477C276.195 70.7194 276.585 70.6053 277.081 70.6053H277.447V71.5498H276.892C276.38 71.5498 275.979 71.6482 275.688 71.8449C275.404 72.0338 275.263 72.2739 275.263 72.5651V76.6973H274.318ZM283.034 76.6973C282.68 76.6973 282.424 76.6028 282.267 76.4139C282.117 76.225 282.023 75.9889 281.984 75.7055H281.925C281.791 76.0833 281.57 76.3667 281.263 76.5556C280.956 76.7445 280.59 76.8389 280.165 76.8389C279.52 76.8389 279.016 76.6737 278.654 76.3431C278.3 76.0125 278.123 75.5639 278.123 74.9972C278.123 74.4226 278.332 73.9818 278.749 73.6749C279.174 73.3679 279.831 73.2144 280.72 73.2144H281.925V72.6123C281.925 72.1794 281.807 71.8489 281.57 71.6206C281.334 71.3924 280.972 71.2782 280.484 71.2782C280.114 71.2782 279.803 71.3609 279.552 71.5262C279.308 71.6914 279.103 71.9118 278.938 72.1873L278.371 71.656C278.536 71.3255 278.8 71.046 279.162 70.8178C279.524 70.5817 279.98 70.4636 280.531 70.4636C281.271 70.4636 281.846 70.6446 282.255 71.0067C282.664 71.3687 282.869 71.8725 282.869 72.5179V75.8708H283.566V76.6973H283.034ZM280.319 76.0361C280.555 76.0361 280.771 76.0086 280.968 75.9535C281.165 75.8984 281.334 75.8197 281.476 75.7174C281.618 75.615 281.728 75.497 281.807 75.3632C281.885 75.2294 281.925 75.0838 281.925 74.9263V73.9228H280.673C280.13 73.9228 279.733 74.0015 279.481 74.1589C279.237 74.3164 279.115 74.5446 279.115 74.8437V75.0916C279.115 75.3907 279.221 75.6229 279.433 75.7882C279.654 75.9535 279.949 76.0361 280.319 76.0361ZM290.049 77.3702C290.049 77.9999 289.801 78.4603 289.306 78.7515C288.818 79.0506 288.082 79.2002 287.098 79.2002C286.145 79.2002 285.461 79.0703 285.044 78.8106C284.626 78.5508 284.418 78.1809 284.418 77.7008C284.418 77.3702 284.504 77.1105 284.678 76.9216C284.851 76.7406 285.087 76.6068 285.386 76.5202V76.3903C285.024 76.2171 284.843 75.9338 284.843 75.5403C284.843 75.2333 284.941 75.0011 285.138 74.8437C285.335 74.6784 285.587 74.5564 285.894 74.4777V74.4305C285.532 74.2573 285.248 74.0094 285.044 73.6867C284.847 73.364 284.748 72.9901 284.748 72.5651C284.748 72.2581 284.803 71.9748 284.914 71.7151C285.024 71.4553 285.177 71.2349 285.374 71.0539C285.579 70.865 285.819 70.7194 286.094 70.6171C286.378 70.5148 286.692 70.4636 287.039 70.4636C287.472 70.4636 287.857 70.5423 288.196 70.6997V70.5935C288.196 70.3573 288.251 70.1645 288.361 70.015C288.471 69.8575 288.652 69.7788 288.904 69.7788H289.813V70.6053H288.656V70.9949C288.877 71.1838 289.046 71.412 289.164 71.6796C289.29 71.9394 289.353 72.2345 289.353 72.5651C289.353 72.8721 289.298 73.1554 289.187 73.4151C289.077 73.6749 288.92 73.8992 288.715 74.0881C288.518 74.2691 288.278 74.4108 287.995 74.5131C287.712 74.6154 287.397 74.6666 287.051 74.6666C286.854 74.6666 286.657 74.6469 286.46 74.6076C286.256 74.6627 286.071 74.7453 285.905 74.8555C285.74 74.9578 285.657 75.1034 285.657 75.2923C285.657 75.4734 285.744 75.5954 285.917 75.6583C286.09 75.7213 286.315 75.7528 286.59 75.7528H287.889C288.644 75.7528 289.191 75.8984 289.53 76.1896C289.876 76.4729 290.049 76.8665 290.049 77.3702ZM289.164 77.4411C289.164 77.1971 289.069 77.0003 288.881 76.8507C288.7 76.7091 288.373 76.6382 287.901 76.6382H285.87C285.492 76.8114 285.303 77.0869 285.303 77.4647C285.303 77.7323 285.402 77.9605 285.598 78.1494C285.803 78.3383 286.145 78.4328 286.626 78.4328H287.499C288.027 78.4328 288.436 78.3501 288.727 78.1848C289.018 78.0196 289.164 77.7716 289.164 77.4411ZM287.051 73.911C287.452 73.911 287.771 73.8166 288.007 73.6277C288.243 73.4309 288.361 73.1318 288.361 72.7304V72.3998C288.361 71.9984 288.243 71.7032 288.007 71.5143C287.771 71.3176 287.452 71.2192 287.051 71.2192C286.649 71.2192 286.33 71.3176 286.094 71.5143C285.858 71.7032 285.74 71.9984 285.74 72.3998V72.7304C285.74 73.1318 285.858 73.4309 286.094 73.6277C286.33 73.8166 286.649 73.911 287.051 73.911ZM293.372 76.8389C292.955 76.8389 292.577 76.7642 292.239 76.6146C291.908 76.4651 291.621 76.2526 291.377 75.9771C291.141 75.6937 290.956 75.3592 290.822 74.9736C290.696 74.58 290.633 74.1393 290.633 73.6513C290.633 73.1712 290.696 72.7343 290.822 72.3408C290.956 71.9472 291.141 71.6127 291.377 71.3373C291.621 71.0539 291.908 70.8375 292.239 70.6879C292.577 70.5384 292.955 70.4636 293.372 70.4636C293.782 70.4636 294.148 70.5384 294.47 70.6879C294.793 70.8375 295.068 71.046 295.297 71.3136C295.525 71.5734 295.698 71.8843 295.816 72.2463C295.942 72.6084 296.005 73.0059 296.005 73.4388V73.8874H291.625V74.1707C291.625 74.4305 291.664 74.6745 291.743 74.9027C291.83 75.1231 291.948 75.3159 292.097 75.4812C292.255 75.6465 292.444 75.7764 292.664 75.8708C292.892 75.9653 293.148 76.0125 293.431 76.0125C293.817 76.0125 294.152 75.922 294.435 75.741C294.726 75.5599 294.95 75.3002 295.108 74.9618L295.781 75.4458C295.584 75.863 295.277 76.2014 294.86 76.4611C294.443 76.713 293.947 76.8389 293.372 76.8389ZM293.372 71.2546C293.113 71.2546 292.876 71.3018 292.664 71.3963C292.451 71.4829 292.266 71.6088 292.109 71.7741C291.96 71.9394 291.841 72.1361 291.755 72.3644C291.668 72.5848 291.625 72.8288 291.625 73.0964V73.179H294.99V73.0492C294.99 72.5061 294.84 72.0732 294.541 71.7505C294.25 71.4199 293.86 71.2546 293.372 71.2546Z" fill="#999999"/>
<path d="M271.699 50.2041V63.6969H270.855V50.2041H271.699Z" fill="#E5E5E5"/>
<circle cx="271.277" cy="48.9393" r="1.6866" fill="#577A92" fill-opacity="0.04" stroke="#E5E5E5" stroke-width="0.843299"/>
<path d="M349.213 69.7552H349.154L348.458 71.1366L346.486 74.7256L344.515 71.1366L343.818 69.7552H343.759V76.6973H342.791V68.4565H344.113L346.474 72.8957H346.533L348.906 68.4565H350.182V76.6973H349.213V69.7552ZM356.705 76.6973C356.351 76.6973 356.095 76.6028 355.937 76.4139C355.788 76.225 355.693 75.9889 355.654 75.7055H355.595C355.461 76.0833 355.241 76.3667 354.934 76.5556C354.627 76.7445 354.261 76.8389 353.836 76.8389C353.19 76.8389 352.687 76.6737 352.325 76.3431C351.97 76.0125 351.793 75.5639 351.793 74.9972C351.793 74.4226 352.002 73.9818 352.419 73.6749C352.844 73.3679 353.501 73.2144 354.391 73.2144H355.595V72.6123C355.595 72.1794 355.477 71.8489 355.241 71.6206C355.005 71.3924 354.643 71.2782 354.155 71.2782C353.785 71.2782 353.474 71.3609 353.222 71.5262C352.978 71.6914 352.773 71.9118 352.608 72.1873L352.041 71.656C352.207 71.3255 352.47 71.046 352.832 70.8178C353.194 70.5817 353.651 70.4636 354.202 70.4636C354.942 70.4636 355.516 70.6446 355.926 71.0067C356.335 71.3687 356.539 71.8725 356.539 72.5179V75.8708H357.236V76.6973H356.705ZM353.989 76.0361C354.225 76.0361 354.442 76.0086 354.639 75.9535C354.835 75.8984 355.005 75.8197 355.146 75.7174C355.288 75.615 355.398 75.497 355.477 75.3632C355.556 75.2294 355.595 75.0838 355.595 74.9263V73.9228H354.343C353.8 73.9228 353.403 74.0015 353.151 74.1589C352.907 74.3164 352.785 74.5446 352.785 74.8437V75.0916C352.785 75.3907 352.891 75.6229 353.104 75.7882C353.324 75.9535 353.619 76.0361 353.989 76.0361ZM358.584 76.6973V70.6053H359.529V71.7269H359.588C359.698 71.4356 359.895 71.1759 360.178 70.9477C360.461 70.7194 360.851 70.6053 361.347 70.6053H361.713V71.5498H361.158C360.646 71.5498 360.245 71.6482 359.954 71.8449C359.67 72.0338 359.529 72.2739 359.529 72.5651V76.6973H358.584ZM367.778 77.3702C367.778 77.9999 367.53 78.4603 367.034 78.7515C366.546 79.0506 365.81 79.2002 364.827 79.2002C363.874 79.2002 363.189 79.0703 362.772 78.8106C362.355 78.5508 362.147 78.1809 362.147 77.7008C362.147 77.3702 362.233 77.1105 362.406 76.9216C362.579 76.7406 362.816 76.6068 363.115 76.5202V76.3903C362.753 76.2171 362.572 75.9338 362.572 75.5403C362.572 75.2333 362.67 75.0011 362.867 74.8437C363.063 74.6784 363.315 74.5564 363.622 74.4777V74.4305C363.26 74.2573 362.977 74.0094 362.772 73.6867C362.575 73.364 362.477 72.9901 362.477 72.5651C362.477 72.2581 362.532 71.9748 362.642 71.7151C362.753 71.4553 362.906 71.2349 363.103 71.0539C363.307 70.865 363.548 70.7194 363.823 70.6171C364.106 70.5148 364.421 70.4636 364.768 70.4636C365.2 70.4636 365.586 70.5423 365.925 70.6997V70.5935C365.925 70.3573 365.98 70.1645 366.09 70.015C366.2 69.8575 366.381 69.7788 366.633 69.7788H367.542V70.6053H366.385V70.9949C366.605 71.1838 366.775 71.412 366.893 71.6796C367.019 71.9394 367.082 72.2345 367.082 72.5651C367.082 72.8721 367.026 73.1554 366.916 73.4151C366.806 73.6749 366.649 73.8992 366.444 74.0881C366.247 74.2691 366.007 74.4108 365.724 74.5131C365.44 74.6154 365.126 74.6666 364.779 74.6666C364.583 74.6666 364.386 74.6469 364.189 74.6076C363.984 74.6627 363.799 74.7453 363.634 74.8555C363.469 74.9578 363.386 75.1034 363.386 75.2923C363.386 75.4734 363.473 75.5954 363.646 75.6583C363.819 75.7213 364.043 75.7528 364.319 75.7528H365.618C366.373 75.7528 366.92 75.8984 367.259 76.1896C367.605 76.4729 367.778 76.8665 367.778 77.3702ZM366.893 77.4411C366.893 77.1971 366.798 77.0003 366.609 76.8507C366.428 76.7091 366.102 76.6382 365.629 76.6382H363.599C363.221 76.8114 363.032 77.0869 363.032 77.4647C363.032 77.7323 363.13 77.9605 363.327 78.1494C363.532 78.3383 363.874 78.4328 364.354 78.4328H365.228C365.755 78.4328 366.165 78.3501 366.456 78.1848C366.747 78.0196 366.893 77.7716 366.893 77.4411ZM364.779 73.911C365.181 73.911 365.499 73.8166 365.736 73.6277C365.972 73.4309 366.09 73.1318 366.09 72.7304V72.3998C366.09 71.9984 365.972 71.7032 365.736 71.5143C365.499 71.3176 365.181 71.2192 364.779 71.2192C364.378 71.2192 364.059 71.3176 363.823 71.5143C363.587 71.7032 363.469 71.9984 363.469 72.3998V72.7304C363.469 73.1318 363.587 73.4309 363.823 73.6277C364.059 73.8166 364.378 73.911 364.779 73.911ZM369.352 69.1767C369.147 69.1767 368.998 69.1295 368.903 69.0351C368.817 68.9327 368.774 68.8029 368.774 68.6454V68.492C368.774 68.3346 368.817 68.2086 368.903 68.1142C368.998 68.0118 369.147 67.9607 369.352 67.9607C369.557 67.9607 369.702 68.0118 369.789 68.1142C369.883 68.2086 369.931 68.3346 369.931 68.492V68.6454C369.931 68.8029 369.883 68.9327 369.789 69.0351C369.702 69.1295 369.557 69.1767 369.352 69.1767ZM368.88 70.6053H369.824V76.6973H368.88V70.6053ZM371.831 76.6973V70.6053H372.776V71.597H372.823C372.973 71.2507 373.181 70.9752 373.449 70.7706C373.724 70.5659 374.09 70.4636 374.547 70.4636C375.176 70.4636 375.672 70.6682 376.034 71.0775C376.404 71.4789 376.589 72.0496 376.589 72.7894V76.6973H375.645V72.9547C375.645 71.8607 375.184 71.3136 374.263 71.3136C374.075 71.3136 373.89 71.3373 373.709 71.3845C373.535 71.4317 373.378 71.5025 373.236 71.597C373.095 71.6914 372.981 71.8134 372.894 71.963C372.815 72.1047 372.776 72.2739 372.776 72.4707V76.6973H371.831Z" fill="#999999"/>
<path d="M360.245 50.2041V63.6969H359.402V50.2041H360.245Z" fill="#E5E5E5"/>
<circle cx="359.824" cy="48.9393" r="1.6866" fill="#577A92" fill-opacity="0.04" stroke="#E5E5E5" stroke-width="0.843299"/>
<g clip-path="url(#clip0_3023_205715)">
<path d="M13.4354 76.8389C12.3886 76.8389 11.574 76.4848 10.9915 75.7764C10.4091 75.0601 10.1179 74.0094 10.1179 72.6241C10.1179 71.2389 10.4091 70.1763 10.9915 69.4365C11.574 68.6887 12.3886 68.3149 13.4354 68.3149C14.128 68.3149 14.7065 68.4723 15.1709 68.7871C15.6432 69.102 16.0092 69.5467 16.2689 70.1212L15.4661 70.6053C15.3008 70.1803 15.0489 69.8418 14.7105 69.5899C14.372 69.3302 13.947 69.2003 13.4354 69.2003C13.0812 69.2003 12.7624 69.2672 12.4791 69.401C12.2036 69.5348 11.9675 69.7277 11.7707 69.9795C11.5818 70.2235 11.4362 70.5187 11.3339 70.865C11.2316 71.2035 11.1804 71.5852 11.1804 72.0102V73.2381C11.1804 74.0881 11.3772 74.7532 11.7707 75.2333C12.1643 75.7134 12.7192 75.9535 13.4354 75.9535C13.9627 75.9535 14.4035 75.8197 14.7577 75.5521C15.1119 75.2766 15.3716 74.9145 15.5369 74.4659L16.3279 74.9618C16.0682 75.5442 15.6943 76.0046 15.2063 76.3431C14.7183 76.6737 14.128 76.8389 13.4354 76.8389ZM20.0716 76.8389C19.6623 76.8389 19.2884 76.7642 18.95 76.6146C18.6116 76.4651 18.3203 76.2526 18.0763 75.9771C17.8402 75.6937 17.6553 75.3592 17.5214 74.9736C17.3876 74.58 17.3207 74.1393 17.3207 73.6513C17.3207 73.1712 17.3876 72.7343 17.5214 72.3408C17.6553 71.9472 17.8402 71.6127 18.0763 71.3373C18.3203 71.0539 18.6116 70.8375 18.95 70.6879C19.2884 70.5384 19.6623 70.4636 20.0716 70.4636C20.4809 70.4636 20.8508 70.5384 21.1814 70.6879C21.5198 70.8375 21.811 71.0539 22.055 71.3373C22.299 71.6127 22.4879 71.9472 22.6217 72.3408C22.7555 72.7343 22.8224 73.1712 22.8224 73.6513C22.8224 74.1393 22.7555 74.58 22.6217 74.9736C22.4879 75.3592 22.299 75.6937 22.055 75.9771C21.811 76.2526 21.5198 76.4651 21.1814 76.6146C20.8508 76.7642 20.4809 76.8389 20.0716 76.8389ZM20.0716 76.0007C20.5832 76.0007 21.0003 75.8433 21.323 75.5285C21.6457 75.2136 21.8071 74.7335 21.8071 74.0881V73.2144C21.8071 72.569 21.6457 72.0889 21.323 71.7741C21.0003 71.4593 20.5832 71.3018 20.0716 71.3018C19.56 71.3018 19.1428 71.4593 18.8201 71.7741C18.4974 72.0889 18.3361 72.569 18.3361 73.2144V74.0881C18.3361 74.7335 18.4974 75.2136 18.8201 75.5285C19.1428 75.8433 19.56 76.0007 20.0716 76.0007ZM24.3758 76.6973V70.6053H25.3203V71.597H25.3675C25.517 71.2507 25.7256 70.9752 25.9932 70.7706C26.2687 70.5659 26.6347 70.4636 27.0912 70.4636C27.7209 70.4636 28.2167 70.6682 28.5788 71.0775C28.9487 71.4789 29.1337 72.0496 29.1337 72.7894V76.6973H28.1892V72.9547C28.1892 71.8607 27.7287 71.3136 26.8078 71.3136C26.6189 71.3136 26.434 71.3373 26.253 71.3845C26.0798 71.4317 25.9224 71.5025 25.7807 71.597C25.639 71.6914 25.5249 71.8134 25.4383 71.963C25.3596 72.1047 25.3203 72.2739 25.3203 72.4707V76.6973H24.3758ZM32.4318 76.6973C32.1013 76.6973 31.8494 76.6068 31.6762 76.4257C31.5109 76.2368 31.4283 75.9928 31.4283 75.6937V71.4317H30.4248V70.6053H30.9915C31.1961 70.6053 31.3339 70.5659 31.4047 70.4872C31.4834 70.4006 31.5228 70.255 31.5228 70.0504V68.917H32.3728V70.6053H33.7069V71.4317H32.3728V75.8708H33.6125V76.6973H32.4318ZM35.225 76.6973V70.6053H36.1695V71.7269H36.2285C36.3387 71.4356 36.5355 71.1759 36.8188 70.9477C37.1022 70.7194 37.4918 70.6053 37.9877 70.6053H38.3536V71.5498H37.7988C37.2872 71.5498 36.8857 71.6482 36.5945 71.8449C36.3112 72.0338 36.1695 72.2739 36.1695 72.5651V76.6973H35.225ZM43.9413 76.6973C43.5871 76.6973 43.3313 76.6028 43.1739 76.4139C43.0243 76.225 42.9299 75.9889 42.8905 75.7055H42.8315C42.6977 76.0833 42.4773 76.3667 42.1704 76.5556C41.8634 76.7445 41.4974 76.8389 41.0724 76.8389C40.427 76.8389 39.9233 76.6737 39.5612 76.3431C39.207 76.0125 39.0299 75.5639 39.0299 74.9972C39.0299 74.4226 39.2385 73.9818 39.6556 73.6749C40.0807 73.3679 40.7379 73.2144 41.6273 73.2144H42.8315V72.6123C42.8315 72.1794 42.7135 71.8489 42.4773 71.6206C42.2412 71.3924 41.8791 71.2782 41.3912 71.2782C41.0212 71.2782 40.7103 71.3609 40.4585 71.5262C40.2145 71.6914 40.0098 71.9118 39.8445 72.1873L39.2779 71.656C39.4431 71.3255 39.7068 71.046 40.0689 70.8178C40.4309 70.5817 40.8874 70.4636 41.4384 70.4636C42.1782 70.4636 42.7528 70.6446 43.1621 71.0067C43.5714 71.3687 43.776 71.8725 43.776 72.5179V75.8708H44.4726V76.6973H43.9413ZM41.2259 76.0361C41.462 76.0361 41.6784 76.0086 41.8752 75.9535C42.072 75.8984 42.2412 75.8197 42.3829 75.7174C42.5246 75.615 42.6347 75.497 42.7135 75.3632C42.7922 75.2294 42.8315 75.0838 42.8315 74.9263V73.9228H41.5801C41.037 73.9228 40.6395 74.0015 40.3876 74.1589C40.1436 74.3164 40.0216 74.5446 40.0216 74.8437V75.0916C40.0216 75.3907 40.1279 75.6229 40.3404 75.7882C40.5608 75.9535 40.8559 76.0361 41.2259 76.0361ZM48.0874 76.8389C47.6624 76.8389 47.2806 76.7642 46.9422 76.6146C46.6037 76.4651 46.3165 76.2526 46.0803 75.9771C45.8521 75.7016 45.675 75.3671 45.5491 74.9736C45.431 74.58 45.372 74.1393 45.372 73.6513C45.372 73.1633 45.431 72.7225 45.5491 72.329C45.675 71.9354 45.8521 71.6009 46.0803 71.3255C46.3165 71.05 46.6037 70.8375 46.9422 70.6879C47.2806 70.5384 47.6624 70.4636 48.0874 70.4636C48.6934 70.4636 49.1775 70.5974 49.5395 70.865C49.9095 71.1247 50.185 71.4671 50.366 71.8921L49.575 72.2936C49.4648 71.9787 49.2837 71.7347 49.0319 71.5616C48.78 71.3884 48.4652 71.3018 48.0874 71.3018C47.804 71.3018 47.5561 71.3491 47.3436 71.4435C47.1311 71.5301 46.954 71.656 46.8123 71.8213C46.6706 71.9787 46.5644 72.1716 46.4936 72.3998C46.4227 72.6202 46.3873 72.8642 46.3873 73.1318V74.1707C46.3873 74.706 46.529 75.1467 46.8123 75.493C47.1035 75.8315 47.5286 76.0007 48.0874 76.0007C48.8509 76.0007 49.4018 75.6465 49.7403 74.9381L50.425 75.3986C50.2282 75.8393 49.9331 76.1896 49.5395 76.4493C49.1539 76.7091 48.6698 76.8389 48.0874 76.8389ZM53.1042 76.6973C52.7736 76.6973 52.5217 76.6068 52.3486 76.4257C52.1833 76.2368 52.1007 75.9928 52.1007 75.6937V71.4317H51.0971V70.6053H51.6638C51.8685 70.6053 52.0062 70.5659 52.077 70.4872C52.1558 70.4006 52.1951 70.255 52.1951 70.0504V68.917H53.0452V70.6053H54.3793V71.4317H53.0452V75.8708H54.2848V76.6973H53.1042ZM60.5175 76.8389C59.9508 76.8389 59.4746 76.7327 59.0889 76.5202C58.7111 76.2998 58.3845 76.0086 58.109 75.6465L58.7819 75.1034C59.0181 75.4025 59.2817 75.6347 59.573 75.8C59.8642 75.9574 60.2026 76.0361 60.5883 76.0361C60.9897 76.0361 61.3006 75.9495 61.521 75.7764C61.7492 75.6032 61.8634 75.3592 61.8634 75.0444C61.8634 74.8083 61.7847 74.6076 61.6272 74.4423C61.4777 74.2691 61.2022 74.1511 60.8008 74.0881L60.3168 74.0173C60.0334 73.9779 59.7737 73.9189 59.5375 73.8402C59.3014 73.7536 59.0928 73.6434 58.9118 73.5096C58.7387 73.3679 58.6009 73.1948 58.4986 72.9901C58.4041 72.7855 58.3569 72.5415 58.3569 72.2581C58.3569 71.959 58.412 71.6993 58.5222 71.4789C58.6324 71.2507 58.7819 71.0618 58.9708 70.9122C59.1676 70.7627 59.3998 70.6525 59.6674 70.5817C59.935 70.503 60.2223 70.4636 60.5293 70.4636C61.0251 70.4636 61.4383 70.5502 61.7689 70.7233C62.1074 70.8965 62.4025 71.1366 62.6544 71.4435L62.0286 72.0102C61.8948 71.8213 61.6981 71.6521 61.4383 71.5025C61.1786 71.3451 60.852 71.2664 60.4584 71.2664C60.0649 71.2664 59.7658 71.353 59.5612 71.5262C59.3644 71.6914 59.266 71.9197 59.266 72.2109C59.266 72.51 59.3644 72.7265 59.5612 72.8603C59.7658 72.9941 60.057 73.0924 60.4348 73.1554L60.9071 73.2262C61.5839 73.3286 62.0641 73.5253 62.3474 73.8166C62.6308 74.0999 62.7724 74.4738 62.7724 74.9381C62.7724 75.5285 62.5717 75.9928 62.1703 76.3313C61.7689 76.6697 61.218 76.8389 60.5175 76.8389ZM64.913 69.1767C64.7083 69.1767 64.5588 69.1295 64.4643 69.0351C64.3777 68.9327 64.3344 68.8029 64.3344 68.6454V68.492C64.3344 68.3346 64.3777 68.2086 64.4643 68.1142C64.5588 68.0118 64.7083 67.9607 64.913 67.9607C65.1176 67.9607 65.2632 68.0118 65.3498 68.1142C65.4442 68.2086 65.4915 68.3346 65.4915 68.492V68.6454C65.4915 68.8029 65.4442 68.9327 65.3498 69.0351C65.2632 69.1295 65.1176 69.1767 64.913 69.1767ZM64.4407 70.6053H65.3852V76.6973H64.4407V70.6053ZM66.7783 76.6973V75.9063L70.2375 71.4317H66.8846V70.6053H71.3827V71.3136L67.8527 75.8708H71.4772V76.6973H66.7783ZM75.0439 76.8389C74.6267 76.8389 74.2489 76.7642 73.9105 76.6146C73.5799 76.4651 73.2926 76.2526 73.0486 75.9771C72.8125 75.6937 72.6275 75.3592 72.4937 74.9736C72.3678 74.58 72.3048 74.1393 72.3048 73.6513C72.3048 73.1712 72.3678 72.7343 72.4937 72.3408C72.6275 71.9472 72.8125 71.6127 73.0486 71.3373C73.2926 71.0539 73.5799 70.8375 73.9105 70.6879C74.2489 70.5384 74.6267 70.4636 75.0439 70.4636C75.4531 70.4636 75.8191 70.5384 76.1418 70.6879C76.4645 70.8375 76.74 71.046 76.9683 71.3136C77.1965 71.5734 77.3697 71.8843 77.4877 72.2463C77.6137 72.6084 77.6766 73.0059 77.6766 73.4388V73.8874H73.2965V74.1707C73.2965 74.4305 73.3359 74.6745 73.4146 74.9027C73.5012 75.1231 73.6192 75.3159 73.7688 75.4812C73.9262 75.6465 74.1151 75.7764 74.3355 75.8708C74.5637 75.9653 74.8195 76.0125 75.1029 76.0125C75.4886 76.0125 75.8231 75.922 76.1064 75.741C76.3976 75.5599 76.622 75.3002 76.7794 74.9618L77.4523 75.4458C77.2556 75.863 76.9486 76.2014 76.5314 76.4611C76.1143 76.713 75.6184 76.8389 75.0439 76.8389ZM75.0439 71.2546C74.7841 71.2546 74.548 71.3018 74.3355 71.3963C74.123 71.4829 73.938 71.6088 73.7806 71.7741C73.6311 71.9394 73.513 72.1361 73.4264 72.3644C73.3398 72.5848 73.2965 72.8288 73.2965 73.0964V73.179H76.6613V73.0492C76.6613 72.5061 76.5118 72.0732 76.2127 71.7505C75.9215 71.4199 75.5319 71.2546 75.0439 71.2546Z" fill="#999999"/>
<path d="M41.4781 50.2041V63.6969H40.6348V50.2041H41.4781Z" fill="#E5E5E5"/>
<circle cx="41.0565" cy="48.9393" r="1.6866" fill="#577A92" fill-opacity="0.04" stroke="#E5E5E5" stroke-width="0.843299"/>
</g>
<g clip-path="url(#clip1_3023_205715)">
<path d="M105.171 76.6973L102.432 68.4565H103.495L104.852 72.6123L105.762 75.7055H105.821L106.753 72.6123L108.123 68.4565H109.15L106.375 76.6973H105.171ZM112.339 76.8389C111.929 76.8389 111.556 76.7642 111.217 76.6146C110.879 76.4651 110.588 76.2526 110.344 75.9771C110.107 75.6937 109.922 75.3592 109.789 74.9736C109.655 74.58 109.588 74.1393 109.588 73.6513C109.588 73.1712 109.655 72.7343 109.789 72.3408C109.922 71.9472 110.107 71.6127 110.344 71.3373C110.588 71.0539 110.879 70.8375 111.217 70.6879C111.556 70.5384 111.929 70.4636 112.339 70.4636C112.748 70.4636 113.118 70.5384 113.449 70.6879C113.787 70.8375 114.078 71.0539 114.322 71.3373C114.566 71.6127 114.755 71.9472 114.889 72.3408C115.023 72.7343 115.09 73.1712 115.09 73.6513C115.09 74.1393 115.023 74.58 114.889 74.9736C114.755 75.3592 114.566 75.6937 114.322 75.9771C114.078 76.2526 113.787 76.4651 113.449 76.6146C113.118 76.7642 112.748 76.8389 112.339 76.8389ZM112.339 76.0007C112.85 76.0007 113.268 75.8433 113.59 75.5285C113.913 75.2136 114.074 74.7335 114.074 74.0881V73.2144C114.074 72.569 113.913 72.0889 113.59 71.7741C113.268 71.4593 112.85 71.3018 112.339 71.3018C111.827 71.3018 111.41 71.4593 111.087 71.7741C110.765 72.0889 110.603 72.569 110.603 73.2144V74.0881C110.603 74.7335 110.765 75.2136 111.087 75.5285C111.41 75.8433 111.827 76.0007 112.339 76.0007ZM117.646 76.6973C117.316 76.6973 117.064 76.6068 116.891 76.4257C116.726 76.2368 116.643 76.0007 116.643 75.7174V67.9607H117.587V75.8708H118.485V76.6973H117.646ZM123.614 75.7055H123.567C123.504 75.8472 123.425 75.9889 123.331 76.1306C123.244 76.2644 123.134 76.3864 123 76.4966C122.866 76.5989 122.705 76.6815 122.516 76.7445C122.327 76.8075 122.107 76.8389 121.855 76.8389C121.225 76.8389 120.725 76.6382 120.356 76.2368C119.986 75.8275 119.801 75.253 119.801 74.5131V70.6053H120.745V74.3478C120.745 75.4419 121.21 75.9889 122.138 75.9889C122.327 75.9889 122.508 75.9653 122.681 75.9181C122.862 75.8708 123.02 75.8 123.154 75.7055C123.295 75.6111 123.405 75.493 123.484 75.3514C123.571 75.2018 123.614 75.0247 123.614 74.8201V70.6053H124.559V76.6973H123.614V75.7055ZM126.57 76.6973V70.6053H127.514V71.597H127.562C127.632 71.4396 127.711 71.294 127.798 71.1602C127.892 71.0185 128.002 70.8965 128.128 70.7942C128.262 70.6919 128.416 70.6131 128.589 70.558C128.762 70.4951 128.966 70.4636 129.203 70.4636C129.604 70.4636 129.974 70.562 130.312 70.7588C130.651 70.9477 130.903 71.2625 131.068 71.7032H131.092C131.202 71.3727 131.406 71.0854 131.706 70.8414C132.012 70.5895 132.426 70.4636 132.945 70.4636C133.567 70.4636 134.051 70.6682 134.397 71.0775C134.752 71.4789 134.929 72.0496 134.929 72.7894V76.6973H133.984V72.9547C133.984 72.4116 133.878 72.0023 133.665 71.7269C133.453 71.4514 133.114 71.3136 132.65 71.3136C132.461 71.3136 132.28 71.3373 132.107 71.3845C131.942 71.4317 131.792 71.5025 131.658 71.597C131.524 71.6914 131.418 71.8134 131.34 71.963C131.261 72.1047 131.221 72.2739 131.221 72.4707V76.6973H130.277V72.9547C130.277 72.4116 130.171 72.0023 129.958 71.7269C129.746 71.4514 129.415 71.3136 128.966 71.3136C128.778 71.3136 128.597 71.3373 128.423 71.3845C128.25 71.4317 128.097 71.5025 127.963 71.597C127.829 71.6914 127.719 71.8134 127.632 71.963C127.554 72.1047 127.514 72.2739 127.514 72.4707V76.6973H126.57ZM139.168 76.8389C138.75 76.8389 138.373 76.7642 138.034 76.6146C137.704 76.4651 137.416 76.2526 137.172 75.9771C136.936 75.6937 136.751 75.3592 136.617 74.9736C136.492 74.58 136.429 74.1393 136.429 73.6513C136.429 73.1712 136.492 72.7343 136.617 72.3408C136.751 71.9472 136.936 71.6127 137.172 71.3373C137.416 71.0539 137.704 70.8375 138.034 70.6879C138.373 70.5384 138.75 70.4636 139.168 70.4636C139.577 70.4636 139.943 70.5384 140.266 70.6879C140.588 70.8375 140.864 71.046 141.092 71.3136C141.32 71.5734 141.493 71.8843 141.611 72.2463C141.737 72.6084 141.8 73.0059 141.8 73.4388V73.8874H137.42V74.1707C137.42 74.4305 137.46 74.6745 137.538 74.9027C137.625 75.1231 137.743 75.3159 137.893 75.4812C138.05 75.6465 138.239 75.7764 138.459 75.8708C138.687 75.9653 138.943 76.0125 139.227 76.0125C139.612 76.0125 139.947 75.922 140.23 75.741C140.521 75.5599 140.746 75.3002 140.903 74.9618L141.576 75.4458C141.379 75.863 141.072 76.2014 140.655 76.4611C140.238 76.713 139.742 76.8389 139.168 76.8389ZM139.168 71.2546C138.908 71.2546 138.672 71.3018 138.459 71.3963C138.247 71.4829 138.062 71.6088 137.904 71.7741C137.755 71.9394 137.637 72.1361 137.55 72.3644C137.464 72.5848 137.42 72.8288 137.42 73.0964V73.179H140.785V73.0492C140.785 72.5061 140.635 72.0732 140.336 71.7505C140.045 71.4199 139.656 71.2546 139.168 71.2546Z" fill="#999999"/>
<path d="M114.845 50.2041V63.6969H114.002V50.2041H114.845Z" fill="#E5E5E5"/>
<circle cx="114.424" cy="48.9393" r="1.6866" fill="#577A92" fill-opacity="0.04" stroke="#E5E5E5" stroke-width="0.843299"/>
</g>
<defs>
<clipPath id="clip0_3023_205715">
<rect width="89.3897" height="34.5753" fill="white" transform="translate(9.43311 46.8311)"/>
</clipPath>
<clipPath id="clip1_3023_205715">
<rect width="43.0082" height="34.5753" fill="white" transform="translate(102.196 46.8311)"/>
</clipPath>
</defs>
</svg>
