<svg width="411" height="115" viewBox="0 0 411 115" fill="none" xmlns="http://www.w3.org/2000/svg">
<rect x="1" y="0.87793" width="409" height="113" rx="8" fill="white" stroke="#E5E5E5"/>
<path d="M46.45 39.8779L50.188 31.1139H46.016V32.9339H44.966V30.1059H51.378V31.1419L47.71 39.8779H46.45ZM56.5945 40.0459C55.4279 40.0459 54.5739 39.6026 54.0325 38.7159C53.5005 37.8293 53.2345 36.5879 53.2345 34.9919C53.2345 33.3959 53.5005 32.1546 54.0325 31.2679C54.5739 30.3813 55.4279 29.9379 56.5945 29.9379C57.7612 29.9379 58.6105 30.3813 59.1425 31.2679C59.6839 32.1546 59.9545 33.3959 59.9545 34.9919C59.9545 36.5879 59.6839 37.8293 59.1425 38.7159C58.6105 39.6026 57.7612 40.0459 56.5945 40.0459ZM56.5945 39.0239C56.9772 39.0239 57.3039 38.9446 57.5745 38.7859C57.8452 38.6273 58.0645 38.4033 58.2325 38.1139C58.4005 37.8246 58.5219 37.4839 58.5965 37.0919C58.6805 36.6999 58.7225 36.2659 58.7225 35.7899V34.1939C58.7225 33.7179 58.6805 33.2839 58.5965 32.8919C58.5219 32.4999 58.4005 32.1593 58.2325 31.8699C58.0645 31.5806 57.8452 31.3566 57.5745 31.1979C57.3039 31.0393 56.9772 30.9599 56.5945 30.9599C56.2119 30.9599 55.8852 31.0393 55.6145 31.1979C55.3439 31.3566 55.1245 31.5806 54.9565 31.8699C54.7885 32.1593 54.6625 32.4999 54.5785 32.8919C54.5039 33.2839 54.4665 33.7179 54.4665 34.1939V35.7899C54.4665 36.2659 54.5039 36.6999 54.5785 37.0919C54.6625 37.4839 54.7885 37.8246 54.9565 38.1139C55.1245 38.4033 55.3439 38.6273 55.6145 38.7859C55.8852 38.9446 56.2119 39.0239 56.5945 39.0239Z" fill="#414652"/>
<path d="M88.668 39.0099V36.0839H85.938V35.1319H88.668V32.2059H89.732V35.1319H92.462V36.0839H89.732V39.0099H88.668Z" fill="#414652"/>
<path d="M125.462 39.8779H119.05V38.6739L122.242 35.7339C122.699 35.3139 123.082 34.8706 123.39 34.4039C123.698 33.9279 123.852 33.4519 123.852 32.9759V32.8079C123.852 32.2666 123.703 31.8279 123.404 31.4919C123.105 31.1559 122.653 30.9879 122.046 30.9879C121.747 30.9879 121.486 31.0299 121.262 31.1139C121.038 31.1979 120.842 31.3146 120.674 31.4639C120.515 31.6133 120.38 31.7906 120.268 31.9959C120.165 32.1919 120.081 32.4066 120.016 32.6399L118.966 32.2339C119.059 31.9446 119.185 31.6646 119.344 31.3939C119.512 31.1139 119.717 30.8666 119.96 30.6519C120.212 30.4373 120.511 30.2646 120.856 30.1339C121.211 30.0033 121.626 29.9379 122.102 29.9379C122.578 29.9379 123.003 30.0079 123.376 30.1479C123.749 30.2879 124.062 30.4839 124.314 30.7359C124.566 30.9879 124.757 31.2866 124.888 31.6319C125.028 31.9773 125.098 32.3599 125.098 32.7799C125.098 33.1626 125.042 33.5173 124.93 33.8439C124.827 34.1706 124.683 34.4833 124.496 34.7819C124.309 35.0713 124.081 35.3559 123.81 35.6359C123.549 35.9159 123.264 36.1959 122.956 36.4759L120.324 38.8419H125.462V39.8779ZM127.627 39.8779V38.8419H130.357V30.9739H130.259L127.795 33.2699L127.109 32.5279L129.699 30.1059H131.533V38.8419H134.053V39.8779H127.627ZM138.989 40.0459C137.822 40.0459 136.968 39.6026 136.427 38.7159C135.895 37.8293 135.629 36.5879 135.629 34.9919C135.629 33.3959 135.895 32.1546 136.427 31.2679C136.968 30.3813 137.822 29.9379 138.989 29.9379C140.156 29.9379 141.005 30.3813 141.537 31.2679C142.078 32.1546 142.349 33.3959 142.349 34.9919C142.349 36.5879 142.078 37.8293 141.537 38.7159C141.005 39.6026 140.156 40.0459 138.989 40.0459ZM138.989 39.0239C139.372 39.0239 139.698 38.9446 139.969 38.7859C140.24 38.6273 140.459 38.4033 140.627 38.1139C140.795 37.8246 140.916 37.4839 140.991 37.0919C141.075 36.6999 141.117 36.2659 141.117 35.7899V34.1939C141.117 33.7179 141.075 33.2839 140.991 32.8919C140.916 32.4999 140.795 32.1593 140.627 31.8699C140.459 31.5806 140.24 31.3566 139.969 31.1979C139.698 31.0393 139.372 30.9599 138.989 30.9599C138.606 30.9599 138.28 31.0393 138.009 31.1979C137.738 31.3566 137.519 31.5806 137.351 31.8699C137.183 32.1593 137.057 32.4999 136.973 32.8919C136.898 33.2839 136.861 33.7179 136.861 34.1939V35.7899C136.861 36.2659 136.898 36.6999 136.973 37.0919C137.057 37.4839 137.183 37.8246 137.351 38.1139C137.519 38.4033 137.738 38.6273 138.009 38.7859C138.28 38.9446 138.606 39.0239 138.989 39.0239Z" fill="#414652"/>
<path d="M171.971 39.0099V36.0839H169.241V35.1319H171.971V32.2059H173.035V35.1319H175.765V36.0839H173.035V39.0099H171.971Z" fill="#414652"/>
<path d="M218.158 39.8779V37.9599H213.44V36.9239L217.528 30.1059H219.278V36.9799H220.692V37.9599H219.278V39.8779H218.158ZM214.546 36.9799H218.158V31.0159H218.088L214.546 36.9799ZM228.765 39.8779H222.353V38.6739L225.545 35.7339C226.002 35.3139 226.385 34.8706 226.693 34.4039C227.001 33.9279 227.155 33.4519 227.155 32.9759V32.8079C227.155 32.2666 227.005 31.8279 226.707 31.4919C226.408 31.1559 225.955 30.9879 225.349 30.9879C225.05 30.9879 224.789 31.0299 224.565 31.1139C224.341 31.1979 224.145 31.3146 223.977 31.4639C223.818 31.6133 223.683 31.7906 223.571 31.9959C223.468 32.1919 223.384 32.4066 223.319 32.6399L222.269 32.2339C222.362 31.9446 222.488 31.6646 222.647 31.3939C222.815 31.1139 223.02 30.8666 223.263 30.6519C223.515 30.4373 223.813 30.2646 224.159 30.1339C224.513 30.0033 224.929 29.9379 225.405 29.9379C225.881 29.9379 226.305 30.0079 226.679 30.1479C227.052 30.2879 227.365 30.4839 227.617 30.7359C227.869 30.9879 228.06 31.2866 228.191 31.6319C228.331 31.9773 228.401 32.3599 228.401 32.7799C228.401 33.1626 228.345 33.5173 228.233 33.8439C228.13 34.1706 227.985 34.4833 227.799 34.7819C227.612 35.0713 227.383 35.3559 227.113 35.6359C226.851 35.9159 226.567 36.1959 226.259 36.4759L223.627 38.8419H228.765V39.8779ZM233.897 40.0459C232.731 40.0459 231.877 39.6026 231.335 38.7159C230.803 37.8293 230.537 36.5879 230.537 34.9919C230.537 33.3959 230.803 32.1546 231.335 31.2679C231.877 30.3813 232.731 29.9379 233.897 29.9379C235.064 29.9379 235.913 30.3813 236.445 31.2679C236.987 32.1546 237.257 33.3959 237.257 34.9919C237.257 36.5879 236.987 37.8293 236.445 38.7159C235.913 39.6026 235.064 40.0459 233.897 40.0459ZM233.897 39.0239C234.28 39.0239 234.607 38.9446 234.877 38.7859C235.148 38.6273 235.367 38.4033 235.535 38.1139C235.703 37.8246 235.825 37.4839 235.899 37.0919C235.983 36.6999 236.025 36.2659 236.025 35.7899V34.1939C236.025 33.7179 235.983 33.2839 235.899 32.8919C235.825 32.4999 235.703 32.1593 235.535 31.8699C235.367 31.5806 235.148 31.3566 234.877 31.1979C234.607 31.0393 234.28 30.9599 233.897 30.9599C233.515 30.9599 233.188 31.0393 232.917 31.1979C232.647 31.3566 232.427 31.5806 232.259 31.8699C232.091 32.1593 231.965 32.4999 231.881 32.8919C231.807 33.2839 231.769 33.7179 231.769 34.1939V35.7899C231.769 36.2659 231.807 36.6999 231.881 37.0919C231.965 37.4839 232.091 37.8246 232.259 38.1139C232.427 38.4033 232.647 38.6273 232.917 38.7859C233.188 38.9446 233.515 39.0239 233.897 39.0239Z" fill="#414652"/>
<path d="M275.241 34.6699V33.7179H281.765V34.6699H275.241ZM275.241 37.4699V36.5179H281.765V37.4699H275.241Z" fill="#414652"/>
<path d="M311.005 41.0259V39.8779C310.295 39.8313 309.693 39.6586 309.199 39.3599C308.713 39.0519 308.298 38.6693 307.953 38.2119L308.779 37.4699C309.077 37.8713 309.404 38.1933 309.759 38.4359C310.123 38.6693 310.543 38.8186 311.019 38.8839V35.2859C310.057 35.0713 309.353 34.7586 308.905 34.3479C308.466 33.9279 308.247 33.3539 308.247 32.6259C308.247 32.2526 308.312 31.9213 308.443 31.6319C308.583 31.3333 308.774 31.0766 309.017 30.8619C309.259 30.6473 309.549 30.4793 309.885 30.3579C310.221 30.2273 310.594 30.1433 311.005 30.1059V28.9579H311.873V30.0919C312.507 30.1479 313.053 30.3113 313.511 30.5819C313.977 30.8433 314.379 31.2073 314.715 31.6739L313.861 32.3179C313.627 31.9913 313.347 31.7253 313.021 31.5199C312.694 31.3053 312.307 31.1653 311.859 31.0999V34.3759L311.985 34.4039C312.955 34.6186 313.66 34.9359 314.099 35.3559C314.547 35.7666 314.771 36.3406 314.771 37.0779C314.771 37.8806 314.509 38.5293 313.987 39.0239C313.473 39.5093 312.769 39.7939 311.873 39.8779V41.0259H311.005ZM313.665 37.1479C313.665 36.6719 313.525 36.3079 313.245 36.0559C312.974 35.8039 312.512 35.5986 311.859 35.4399V38.8839C312.419 38.8093 312.857 38.6226 313.175 38.3239C313.501 38.0159 313.665 37.6239 313.665 37.1479ZM309.353 32.5419C309.353 33.0179 309.488 33.3773 309.759 33.6199C310.039 33.8533 310.459 34.0446 311.019 34.1939V31.0999C310.515 31.1653 310.109 31.3193 309.801 31.5619C309.502 31.8046 309.353 32.1313 309.353 32.5419ZM318.042 39.8779L321.78 31.1139H317.608V32.9339H316.558V30.1059H322.97V31.1419L319.302 39.8779H318.042ZM328.186 40.0459C327.02 40.0459 326.166 39.6026 325.624 38.7159C325.092 37.8293 324.826 36.5879 324.826 34.9919C324.826 33.3959 325.092 32.1546 325.624 31.2679C326.166 30.3813 327.02 29.9379 328.186 29.9379C329.353 29.9379 330.202 30.3813 330.734 31.2679C331.276 32.1546 331.546 33.3959 331.546 34.9919C331.546 36.5879 331.276 37.8293 330.734 38.7159C330.202 39.6026 329.353 40.0459 328.186 40.0459ZM328.186 39.0239C328.569 39.0239 328.896 38.9446 329.166 38.7859C329.437 38.6273 329.656 38.4033 329.824 38.1139C329.992 37.8246 330.114 37.4839 330.188 37.0919C330.272 36.6999 330.314 36.2659 330.314 35.7899V34.1939C330.314 33.7179 330.272 33.2839 330.188 32.8919C330.114 32.4999 329.992 32.1593 329.824 31.8699C329.656 31.5806 329.437 31.3566 329.166 31.1979C328.896 31.0393 328.569 30.9599 328.186 30.9599C327.804 30.9599 327.477 31.0393 327.206 31.1979C326.936 31.3566 326.716 31.5806 326.548 31.8699C326.38 32.1593 326.254 32.4999 326.17 32.8919C326.096 33.2839 326.058 33.7179 326.058 34.1939V35.7899C326.058 36.2659 326.096 36.6999 326.17 37.0919C326.254 37.4839 326.38 37.8246 326.548 38.1139C326.716 38.4033 326.936 38.6273 327.206 38.7859C327.477 38.9446 327.804 39.0239 328.186 39.0239ZM336.581 40.0459C335.414 40.0459 334.56 39.6026 334.019 38.7159C333.487 37.8293 333.221 36.5879 333.221 34.9919C333.221 33.3959 333.487 32.1546 334.019 31.2679C334.56 30.3813 335.414 29.9379 336.581 29.9379C337.748 29.9379 338.597 30.3813 339.129 31.2679C339.67 32.1546 339.941 33.3959 339.941 34.9919C339.941 36.5879 339.67 37.8293 339.129 38.7159C338.597 39.6026 337.748 40.0459 336.581 40.0459ZM336.581 39.0239C336.964 39.0239 337.29 38.9446 337.561 38.7859C337.832 38.6273 338.051 38.4033 338.219 38.1139C338.387 37.8246 338.508 37.4839 338.583 37.0919C338.667 36.6999 338.709 36.2659 338.709 35.7899V34.1939C338.709 33.7179 338.667 33.2839 338.583 32.8919C338.508 32.4999 338.387 32.1593 338.219 31.8699C338.051 31.5806 337.832 31.3566 337.561 31.1979C337.29 31.0393 336.964 30.9599 336.581 30.9599C336.198 30.9599 335.872 31.0393 335.601 31.1979C335.33 31.3566 335.111 31.5806 334.943 31.8699C334.775 32.1593 334.649 32.4999 334.565 32.8919C334.49 33.2839 334.453 33.7179 334.453 34.1939V35.7899C334.453 36.2659 334.49 36.6999 334.565 37.0919C334.649 37.4839 334.775 37.8246 334.943 38.1139C335.111 38.4033 335.33 38.6273 335.601 38.7859C335.872 38.9446 336.198 39.0239 336.581 39.0239Z" fill="#414652"/>
<path d="M213.462 90H207.05V88.796L210.242 85.856C210.699 85.436 211.082 84.9927 211.39 84.526C211.698 84.05 211.852 83.574 211.852 83.098V82.93C211.852 82.3887 211.703 81.95 211.404 81.614C211.105 81.278 210.653 81.11 210.046 81.11C209.747 81.11 209.486 81.152 209.262 81.236C209.038 81.32 208.842 81.4367 208.674 81.586C208.515 81.7353 208.38 81.9127 208.268 82.118C208.165 82.314 208.081 82.5287 208.016 82.762L206.966 82.356C207.059 82.0667 207.185 81.7867 207.344 81.516C207.512 81.236 207.717 80.9887 207.96 80.774C208.212 80.5593 208.511 80.3867 208.856 80.256C209.211 80.1253 209.626 80.06 210.102 80.06C210.578 80.06 211.003 80.13 211.376 80.27C211.749 80.41 212.062 80.606 212.314 80.858C212.566 81.11 212.757 81.4087 212.888 81.754C213.028 82.0993 213.098 82.482 213.098 82.902C213.098 83.2847 213.042 83.6393 212.93 83.966C212.827 84.2927 212.683 84.6053 212.496 84.904C212.309 85.1933 212.081 85.478 211.81 85.758C211.549 86.038 211.264 86.318 210.956 86.598L208.324 88.964H213.462V90ZM220.083 90C219.691 90 219.392 89.8927 219.187 89.678C218.991 89.454 218.893 89.174 218.893 88.838V79.64H220.013V89.02H221.077V90H220.083ZM225.438 90.168C224.952 90.168 224.509 90.0793 224.108 89.902C223.706 89.7247 223.361 89.4727 223.072 89.146C222.792 88.81 222.572 88.4133 222.414 87.956C222.255 87.4893 222.176 86.9667 222.176 86.388C222.176 85.8187 222.255 85.3007 222.414 84.834C222.572 84.3673 222.792 83.9707 223.072 83.644C223.361 83.308 223.706 83.0513 224.108 82.874C224.509 82.6967 224.952 82.608 225.438 82.608C225.923 82.608 226.362 82.6967 226.754 82.874C227.155 83.0513 227.5 83.308 227.79 83.644C228.079 83.9707 228.303 84.3673 228.462 84.834C228.62 85.3007 228.7 85.8187 228.7 86.388C228.7 86.9667 228.62 87.4893 228.462 87.956C228.303 88.4133 228.079 88.81 227.79 89.146C227.5 89.4727 227.155 89.7247 226.754 89.902C226.362 90.0793 225.923 90.168 225.438 90.168ZM225.438 89.174C226.044 89.174 226.539 88.9873 226.922 88.614C227.304 88.2407 227.496 87.6713 227.496 86.906V85.87C227.496 85.1047 227.304 84.5353 226.922 84.162C226.539 83.7887 226.044 83.602 225.438 83.602C224.831 83.602 224.336 83.7887 223.954 84.162C223.571 84.5353 223.38 85.1047 223.38 85.87V86.906C223.38 87.6713 223.571 88.2407 223.954 88.614C224.336 88.9873 224.831 89.174 225.438 89.174ZM232.138 90C231.746 90 231.447 89.8927 231.242 89.678C231.046 89.454 230.948 89.1647 230.948 88.81V83.756H229.758V82.776H230.43C230.672 82.776 230.836 82.7293 230.92 82.636C231.013 82.5333 231.06 82.3607 231.06 82.118V80.774H232.068V82.776H233.65V83.756H232.068V89.02H233.538V90H232.138ZM237.62 90.168C236.948 90.168 236.383 90.042 235.926 89.79C235.478 89.5287 235.09 89.1833 234.764 88.754L235.562 88.11C235.842 88.4647 236.154 88.74 236.5 88.936C236.845 89.1227 237.246 89.216 237.704 89.216C238.18 89.216 238.548 89.1133 238.81 88.908C239.08 88.7027 239.216 88.4133 239.216 88.04C239.216 87.76 239.122 87.522 238.936 87.326C238.758 87.1207 238.432 86.9807 237.956 86.906L237.382 86.822C237.046 86.7753 236.738 86.7053 236.458 86.612C236.178 86.5093 235.93 86.3787 235.716 86.22C235.51 86.052 235.347 85.8467 235.226 85.604C235.114 85.3613 235.058 85.072 235.058 84.736C235.058 84.3813 235.123 84.0733 235.254 83.812C235.384 83.5413 235.562 83.3173 235.786 83.14C236.019 82.9627 236.294 82.832 236.612 82.748C236.929 82.6547 237.27 82.608 237.634 82.608C238.222 82.608 238.712 82.7107 239.104 82.916C239.505 83.1213 239.855 83.406 240.154 83.77L239.412 84.442C239.253 84.218 239.02 84.0173 238.712 83.84C238.404 83.6533 238.016 83.56 237.55 83.56C237.083 83.56 236.728 83.6627 236.486 83.868C236.252 84.064 236.136 84.3347 236.136 84.68C236.136 85.0347 236.252 85.2913 236.486 85.45C236.728 85.6087 237.074 85.7253 237.522 85.8L238.082 85.884C238.884 86.0053 239.454 86.2387 239.79 86.584C240.126 86.92 240.294 87.3633 240.294 87.914C240.294 88.614 240.056 89.1647 239.58 89.566C239.104 89.9673 238.45 90.168 237.62 90.168Z" fill="#999999"/>
<path d="M228 58.8779V74.8779H227V58.8779H228Z" fill="#E5E5E5"/>
<circle cx="227.5" cy="57.3779" r="2" fill="#577A92" fill-opacity="0.04" stroke="#E5E5E5"/>
<path d="M292.592 81.264V90H291.416V81.264H288.308V80.228H295.7V81.264H292.592ZM299.016 90.168C298.53 90.168 298.087 90.0793 297.686 89.902C297.284 89.7247 296.939 89.4727 296.65 89.146C296.37 88.81 296.15 88.4133 295.992 87.956C295.833 87.4893 295.754 86.9667 295.754 86.388C295.754 85.8187 295.833 85.3007 295.992 84.834C296.15 84.3673 296.37 83.9707 296.65 83.644C296.939 83.308 297.284 83.0513 297.686 82.874C298.087 82.6967 298.53 82.608 299.016 82.608C299.501 82.608 299.94 82.6967 300.332 82.874C300.733 83.0513 301.078 83.308 301.368 83.644C301.657 83.9707 301.881 84.3673 302.04 84.834C302.198 85.3007 302.278 85.8187 302.278 86.388C302.278 86.9667 302.198 87.4893 302.04 87.956C301.881 88.4133 301.657 88.81 301.368 89.146C301.078 89.4727 300.733 89.7247 300.332 89.902C299.94 90.0793 299.501 90.168 299.016 90.168ZM299.016 89.174C299.622 89.174 300.117 88.9873 300.5 88.614C300.882 88.2407 301.074 87.6713 301.074 86.906V85.87C301.074 85.1047 300.882 84.5353 300.5 84.162C300.117 83.7887 299.622 83.602 299.016 83.602C298.409 83.602 297.914 83.7887 297.532 84.162C297.149 84.5353 296.958 85.1047 296.958 85.87V86.906C296.958 87.6713 297.149 88.2407 297.532 88.614C297.914 88.9873 298.409 89.174 299.016 89.174ZM305.716 90C305.324 90 305.025 89.8927 304.82 89.678C304.624 89.454 304.526 89.1647 304.526 88.81V83.756H303.336V82.776H304.008C304.25 82.776 304.414 82.7293 304.498 82.636C304.591 82.5333 304.638 82.3607 304.638 82.118V80.774H305.646V82.776H307.228V83.756H305.646V89.02H307.116V90H305.716ZM314.278 90C313.858 90 313.555 89.888 313.368 89.664C313.191 89.44 313.079 89.16 313.032 88.824H312.962C312.803 89.272 312.542 89.608 312.178 89.832C311.814 90.056 311.38 90.168 310.876 90.168C310.111 90.168 309.513 89.972 309.084 89.58C308.664 89.188 308.454 88.656 308.454 87.984C308.454 87.3027 308.701 86.78 309.196 86.416C309.7 86.052 310.479 85.87 311.534 85.87H312.962V85.156C312.962 84.6427 312.822 84.2507 312.542 83.98C312.262 83.7093 311.833 83.574 311.254 83.574C310.815 83.574 310.447 83.672 310.148 83.868C309.859 84.064 309.616 84.3253 309.42 84.652L308.748 84.022C308.944 83.63 309.257 83.2987 309.686 83.028C310.115 82.748 310.657 82.608 311.31 82.608C312.187 82.608 312.869 82.8227 313.354 83.252C313.839 83.6813 314.082 84.2787 314.082 85.044V89.02H314.908V90H314.278ZM311.058 89.216C311.338 89.216 311.595 89.1833 311.828 89.118C312.061 89.0527 312.262 88.9593 312.43 88.838C312.598 88.7167 312.729 88.5767 312.822 88.418C312.915 88.2593 312.962 88.0867 312.962 87.9V86.71H311.478C310.834 86.71 310.363 86.8033 310.064 86.99C309.775 87.1767 309.63 87.4473 309.63 87.802V88.096C309.63 88.4507 309.756 88.726 310.008 88.922C310.269 89.118 310.619 89.216 311.058 89.216ZM317.696 90C317.304 90 317.006 89.8927 316.8 89.678C316.604 89.454 316.506 89.174 316.506 88.838V79.64H317.626V89.02H318.69V90H317.696ZM323.629 90V82.776H324.749V83.952H324.805C324.889 83.7653 324.983 83.5927 325.085 83.434C325.197 83.266 325.328 83.1213 325.477 83C325.636 82.8787 325.818 82.7853 326.023 82.72C326.229 82.6453 326.471 82.608 326.751 82.608C327.227 82.608 327.666 82.7247 328.067 82.958C328.469 83.182 328.767 83.5553 328.963 84.078H328.991C329.122 83.686 329.365 83.3453 329.719 83.056C330.083 82.7573 330.573 82.608 331.189 82.608C331.927 82.608 332.501 82.8507 332.911 83.336C333.331 83.812 333.541 84.4887 333.541 85.366V90H332.421V85.562C332.421 84.918 332.295 84.4327 332.043 84.106C331.791 83.7793 331.39 83.616 330.839 83.616C330.615 83.616 330.401 83.644 330.195 83.7C329.999 83.756 329.822 83.84 329.663 83.952C329.505 84.064 329.379 84.2087 329.285 84.386C329.192 84.554 329.145 84.7547 329.145 84.988V90H328.025V85.562C328.025 84.918 327.899 84.4327 327.647 84.106C327.395 83.7793 327.003 83.616 326.471 83.616C326.247 83.616 326.033 83.644 325.827 83.7C325.622 83.756 325.44 83.84 325.281 83.952C325.123 84.064 324.992 84.2087 324.889 84.386C324.796 84.554 324.749 84.7547 324.749 84.988V90H323.629ZM341.102 90C340.682 90 340.379 89.888 340.192 89.664C340.015 89.44 339.903 89.16 339.856 88.824H339.786C339.627 89.272 339.366 89.608 339.002 89.832C338.638 90.056 338.204 90.168 337.7 90.168C336.935 90.168 336.337 89.972 335.908 89.58C335.488 89.188 335.278 88.656 335.278 87.984C335.278 87.3027 335.525 86.78 336.02 86.416C336.524 86.052 337.303 85.87 338.358 85.87H339.786V85.156C339.786 84.6427 339.646 84.2507 339.366 83.98C339.086 83.7093 338.657 83.574 338.078 83.574C337.639 83.574 337.271 83.672 336.972 83.868C336.683 84.064 336.44 84.3253 336.244 84.652L335.572 84.022C335.768 83.63 336.081 83.2987 336.51 83.028C336.939 82.748 337.481 82.608 338.134 82.608C339.011 82.608 339.693 82.8227 340.178 83.252C340.663 83.6813 340.906 84.2787 340.906 85.044V89.02H341.732V90H341.102ZM337.882 89.216C338.162 89.216 338.419 89.1833 338.652 89.118C338.885 89.0527 339.086 88.9593 339.254 88.838C339.422 88.7167 339.553 88.5767 339.646 88.418C339.739 88.2593 339.786 88.0867 339.786 87.9V86.71H338.302C337.658 86.71 337.187 86.8033 336.888 86.99C336.599 87.1767 336.454 87.4473 336.454 87.802V88.096C336.454 88.4507 336.58 88.726 336.832 88.922C337.093 89.118 337.443 89.216 337.882 89.216ZM343.331 90V82.776H344.451V84.106H344.521C344.651 83.7607 344.885 83.4527 345.221 83.182C345.557 82.9113 346.019 82.776 346.607 82.776H347.041V83.896H346.383C345.776 83.896 345.3 84.0127 344.955 84.246C344.619 84.47 344.451 84.7547 344.451 85.1V90H343.331ZM354.233 90.798C354.233 91.5447 353.939 92.0907 353.351 92.436C352.772 92.7907 351.9 92.968 350.733 92.968C349.604 92.968 348.792 92.814 348.297 92.506C347.802 92.198 347.555 91.7593 347.555 91.19C347.555 90.798 347.658 90.49 347.863 90.266C348.068 90.0513 348.348 89.8927 348.703 89.79V89.636C348.274 89.4307 348.059 89.0947 348.059 88.628C348.059 88.264 348.176 87.9887 348.409 87.802C348.642 87.606 348.941 87.4613 349.305 87.368V87.312C348.876 87.1067 348.54 86.8127 348.297 86.43C348.064 86.0473 347.947 85.604 347.947 85.1C347.947 84.736 348.012 84.4 348.143 84.092C348.274 83.784 348.456 83.5227 348.689 83.308C348.932 83.084 349.216 82.9113 349.543 82.79C349.879 82.6687 350.252 82.608 350.663 82.608C351.176 82.608 351.634 82.7013 352.035 82.888V82.762C352.035 82.482 352.1 82.2533 352.231 82.076C352.362 81.8893 352.576 81.796 352.875 81.796H353.953V82.776H352.581V83.238C352.842 83.462 353.043 83.7327 353.183 84.05C353.332 84.358 353.407 84.708 353.407 85.1C353.407 85.464 353.342 85.8 353.211 86.108C353.08 86.416 352.894 86.682 352.651 86.906C352.418 87.1207 352.133 87.2887 351.797 87.41C351.461 87.5313 351.088 87.592 350.677 87.592C350.444 87.592 350.21 87.5687 349.977 87.522C349.734 87.5873 349.515 87.6853 349.319 87.816C349.123 87.9373 349.025 88.11 349.025 88.334C349.025 88.5487 349.128 88.6933 349.333 88.768C349.538 88.8427 349.804 88.88 350.131 88.88H351.671C352.567 88.88 353.216 89.0527 353.617 89.398C354.028 89.734 354.233 90.2007 354.233 90.798ZM353.183 90.882C353.183 90.5927 353.071 90.3593 352.847 90.182C352.632 90.014 352.245 89.93 351.685 89.93H349.277C348.829 90.1353 348.605 90.462 348.605 90.91C348.605 91.2273 348.722 91.498 348.955 91.722C349.198 91.946 349.604 92.058 350.173 92.058H351.209C351.834 92.058 352.32 91.96 352.665 91.764C353.01 91.568 353.183 91.274 353.183 90.882ZM350.677 86.696C351.153 86.696 351.531 86.584 351.811 86.36C352.091 86.1267 352.231 85.772 352.231 85.296V84.904C352.231 84.428 352.091 84.078 351.811 83.854C351.531 83.6207 351.153 83.504 350.677 83.504C350.201 83.504 349.823 83.6207 349.543 83.854C349.263 84.078 349.123 84.428 349.123 84.904V85.296C349.123 85.772 349.263 86.1267 349.543 86.36C349.823 86.584 350.201 86.696 350.677 86.696ZM356.1 81.082C355.857 81.082 355.68 81.026 355.568 80.914C355.465 80.7927 355.414 80.6387 355.414 80.452V80.27C355.414 80.0833 355.465 79.934 355.568 79.822C355.68 79.7007 355.857 79.64 356.1 79.64C356.342 79.64 356.515 79.7007 356.618 79.822C356.73 79.934 356.786 80.0833 356.786 80.27V80.452C356.786 80.6387 356.73 80.7927 356.618 80.914C356.515 81.026 356.342 81.082 356.1 81.082ZM355.54 82.776H356.66V90H355.54V82.776ZM359.04 90V82.776H360.16V83.952H360.216C360.393 83.5413 360.64 83.2147 360.958 82.972C361.284 82.7293 361.718 82.608 362.26 82.608C363.006 82.608 363.594 82.8507 364.024 83.336C364.462 83.812 364.682 84.4887 364.682 85.366V90H363.562V85.562C363.562 84.2647 363.016 83.616 361.924 83.616C361.7 83.616 361.48 83.644 361.266 83.7C361.06 83.756 360.874 83.84 360.706 83.952C360.538 84.064 360.402 84.2087 360.3 84.386C360.206 84.554 360.16 84.7547 360.16 84.988V90H359.04Z" fill="#999999"/>
<path d="M327 58.8779V74.8779H326V58.8779H327Z" fill="#E5E5E5"/>
<circle cx="326.5" cy="57.3779" r="2" fill="#577A92" fill-opacity="0.04" stroke="#E5E5E5"/>
<g clip-path="url(#clip0_3023_205973)">
<path d="M35.232 89V87.964H37.962V80.096H37.864L35.4 82.392L34.714 81.65L37.304 79.228H39.138V87.964H41.658V89H35.232ZM48.0831 89C47.6911 89 47.3925 88.8927 47.1871 88.678C46.9911 88.454 46.8931 88.174 46.8931 87.838V78.64H48.0131V88.02H49.0771V89H48.0831ZM53.4376 89.168C52.9522 89.168 52.5089 89.0793 52.1076 88.902C51.7062 88.7247 51.3609 88.4727 51.0716 88.146C50.7916 87.81 50.5722 87.4133 50.4136 86.956C50.2549 86.4893 50.1756 85.9667 50.1756 85.388C50.1756 84.8187 50.2549 84.3007 50.4136 83.834C50.5722 83.3673 50.7916 82.9707 51.0716 82.644C51.3609 82.308 51.7062 82.0513 52.1076 81.874C52.5089 81.6967 52.9522 81.608 53.4376 81.608C53.9229 81.608 54.3616 81.6967 54.7536 81.874C55.1549 82.0513 55.5002 82.308 55.7896 82.644C56.0789 82.9707 56.3029 83.3673 56.4616 83.834C56.6202 84.3007 56.6996 84.8187 56.6996 85.388C56.6996 85.9667 56.6202 86.4893 56.4616 86.956C56.3029 87.4133 56.0789 87.81 55.7896 88.146C55.5002 88.4727 55.1549 88.7247 54.7536 88.902C54.3616 89.0793 53.9229 89.168 53.4376 89.168ZM53.4376 88.174C54.0442 88.174 54.5389 87.9873 54.9216 87.614C55.3042 87.2407 55.4956 86.6713 55.4956 85.906V84.87C55.4956 84.1047 55.3042 83.5353 54.9216 83.162C54.5389 82.7887 54.0442 82.602 53.4376 82.602C52.8309 82.602 52.3362 82.7887 51.9536 83.162C51.5709 83.5353 51.3796 84.1047 51.3796 84.87V85.906C51.3796 86.6713 51.5709 87.2407 51.9536 87.614C52.3362 87.9873 52.8309 88.174 53.4376 88.174ZM60.1376 89C59.7456 89 59.4469 88.8927 59.2416 88.678C59.0456 88.454 58.9476 88.1647 58.9476 87.81V82.756H57.7576V81.776H58.4296C58.6722 81.776 58.8356 81.7293 58.9196 81.636C59.0129 81.5333 59.0596 81.3607 59.0596 81.118V79.774H60.0676V81.776H61.6496V82.756H60.0676V88.02H61.5376V89H60.1376Z" fill="#999999"/>
<path d="M52 57.8779V73.8779H51V57.8779H52Z" fill="#E5E5E5"/>
<circle cx="51.5" cy="56.3779" r="2" fill="#577A92" fill-opacity="0.04" stroke="#E5E5E5"/>
</g>
<path d="M120.462 90H114.05V88.796L117.242 85.856C117.699 85.436 118.082 84.9927 118.39 84.526C118.698 84.05 118.852 83.574 118.852 83.098V82.93C118.852 82.3887 118.703 81.95 118.404 81.614C118.105 81.278 117.653 81.11 117.046 81.11C116.747 81.11 116.486 81.152 116.262 81.236C116.038 81.32 115.842 81.4367 115.674 81.586C115.515 81.7353 115.38 81.9127 115.268 82.118C115.165 82.314 115.081 82.5287 115.016 82.762L113.966 82.356C114.059 82.0667 114.185 81.7867 114.344 81.516C114.512 81.236 114.717 80.9887 114.96 80.774C115.212 80.5593 115.511 80.3867 115.856 80.256C116.211 80.1253 116.626 80.06 117.102 80.06C117.578 80.06 118.003 80.13 118.376 80.27C118.749 80.41 119.062 80.606 119.314 80.858C119.566 81.11 119.757 81.4087 119.888 81.754C120.028 82.0993 120.098 82.482 120.098 82.902C120.098 83.2847 120.042 83.6393 119.93 83.966C119.827 84.2927 119.683 84.6053 119.496 84.904C119.309 85.1933 119.081 85.478 118.81 85.758C118.549 86.038 118.264 86.318 117.956 86.598L115.324 88.964H120.462V90ZM127.083 90C126.691 90 126.392 89.8927 126.187 89.678C125.991 89.454 125.893 89.174 125.893 88.838V79.64H127.013V89.02H128.077V90H127.083ZM132.438 90.168C131.952 90.168 131.509 90.0793 131.108 89.902C130.706 89.7247 130.361 89.4727 130.072 89.146C129.792 88.81 129.572 88.4133 129.414 87.956C129.255 87.4893 129.176 86.9667 129.176 86.388C129.176 85.8187 129.255 85.3007 129.414 84.834C129.572 84.3673 129.792 83.9707 130.072 83.644C130.361 83.308 130.706 83.0513 131.108 82.874C131.509 82.6967 131.952 82.608 132.438 82.608C132.923 82.608 133.362 82.6967 133.754 82.874C134.155 83.0513 134.5 83.308 134.79 83.644C135.079 83.9707 135.303 84.3673 135.462 84.834C135.62 85.3007 135.7 85.8187 135.7 86.388C135.7 86.9667 135.62 87.4893 135.462 87.956C135.303 88.4133 135.079 88.81 134.79 89.146C134.5 89.4727 134.155 89.7247 133.754 89.902C133.362 90.0793 132.923 90.168 132.438 90.168ZM132.438 89.174C133.044 89.174 133.539 88.9873 133.922 88.614C134.304 88.2407 134.496 87.6713 134.496 86.906V85.87C134.496 85.1047 134.304 84.5353 133.922 84.162C133.539 83.7887 133.044 83.602 132.438 83.602C131.831 83.602 131.336 83.7887 130.954 84.162C130.571 84.5353 130.38 85.1047 130.38 85.87V86.906C130.38 87.6713 130.571 88.2407 130.954 88.614C131.336 88.9873 131.831 89.174 132.438 89.174ZM139.138 90C138.746 90 138.447 89.8927 138.242 89.678C138.046 89.454 137.948 89.1647 137.948 88.81V83.756H136.758V82.776H137.43C137.672 82.776 137.836 82.7293 137.92 82.636C138.013 82.5333 138.06 82.3607 138.06 82.118V80.774H139.068V82.776H140.65V83.756H139.068V89.02H140.538V90H139.138ZM144.62 90.168C143.948 90.168 143.383 90.042 142.926 89.79C142.478 89.5287 142.09 89.1833 141.764 88.754L142.562 88.11C142.842 88.4647 143.154 88.74 143.5 88.936C143.845 89.1227 144.246 89.216 144.704 89.216C145.18 89.216 145.548 89.1133 145.81 88.908C146.08 88.7027 146.216 88.4133 146.216 88.04C146.216 87.76 146.122 87.522 145.936 87.326C145.758 87.1207 145.432 86.9807 144.956 86.906L144.382 86.822C144.046 86.7753 143.738 86.7053 143.458 86.612C143.178 86.5093 142.93 86.3787 142.716 86.22C142.51 86.052 142.347 85.8467 142.226 85.604C142.114 85.3613 142.058 85.072 142.058 84.736C142.058 84.3813 142.123 84.0733 142.254 83.812C142.384 83.5413 142.562 83.3173 142.786 83.14C143.019 82.9627 143.294 82.832 143.612 82.748C143.929 82.6547 144.27 82.608 144.634 82.608C145.222 82.608 145.712 82.7107 146.104 82.916C146.505 83.1213 146.855 83.406 147.154 83.77L146.412 84.442C146.253 84.218 146.02 84.0173 145.712 83.84C145.404 83.6533 145.016 83.56 144.55 83.56C144.083 83.56 143.728 83.6627 143.486 83.868C143.252 84.064 143.136 84.3347 143.136 84.68C143.136 85.0347 143.252 85.2913 143.486 85.45C143.728 85.6087 144.074 85.7253 144.522 85.8L145.082 85.884C145.884 86.0053 146.454 86.2387 146.79 86.584C147.126 86.92 147.294 87.3633 147.294 87.914C147.294 88.614 147.056 89.1647 146.58 89.566C146.104 89.9673 145.45 90.168 144.62 90.168Z" fill="#999999"/>
<path d="M135 58.8779V74.8779H134V58.8779H135Z" fill="#E5E5E5"/>
<circle cx="134.5" cy="57.3779" r="2" fill="#577A92" fill-opacity="0.04" stroke="#E5E5E5"/>
<defs>
<clipPath id="clip0_3023_205973">
<rect width="106" height="41" fill="white" transform="translate(18 53.8779)"/>
</clipPath>
</defs>
</svg>
