<svg width="411" height="115" viewBox="0 0 411 115" fill="none" xmlns="http://www.w3.org/2000/svg">
<rect x="1" y="1" width="409" height="113" rx="8" fill="white" stroke="#E5E5E5"/>
<path d="M30.214 40.168C29.71 40.168 29.2527 40.084 28.842 39.916C28.4407 39.7387 28.0953 39.4913 27.806 39.174C27.526 38.8473 27.3113 38.4507 27.162 37.984C27.0127 37.5173 26.938 36.9947 26.938 36.416C26.938 35.688 27.0453 35.0067 27.26 34.372C27.4747 33.728 27.75 33.1447 28.086 32.622C28.4313 32.09 28.8093 31.6233 29.22 31.222C29.6307 30.8113 30.032 30.48 30.424 30.228H31.936C31.4133 30.6107 30.9467 30.984 30.536 31.348C30.1253 31.712 29.766 32.0947 29.458 32.496C29.15 32.888 28.8887 33.3127 28.674 33.77C28.4593 34.218 28.2867 34.7267 28.156 35.296L28.226 35.324C28.4593 34.9227 28.758 34.5913 29.122 34.33C29.4953 34.0593 29.9807 33.924 30.578 33.924C30.998 33.924 31.3853 33.994 31.74 34.134C32.0947 34.274 32.398 34.4747 32.65 34.736C32.902 34.9973 33.098 35.3147 33.238 35.688C33.3873 36.0613 33.462 36.4767 33.462 36.934C33.462 37.41 33.3827 37.8487 33.224 38.25C33.0747 38.642 32.8553 38.9827 32.566 39.272C32.286 39.552 31.9453 39.7713 31.544 39.93C31.1427 40.0887 30.6993 40.168 30.214 40.168ZM30.2 39.146C30.844 39.146 31.3433 38.9687 31.698 38.614C32.062 38.2593 32.244 37.7507 32.244 37.088V36.976C32.244 36.3133 32.062 35.8047 31.698 35.45C31.3433 35.0953 30.844 34.918 30.2 34.918C29.556 34.918 29.052 35.0953 28.688 35.45C28.3333 35.8047 28.156 36.3133 28.156 36.976V37.088C28.156 37.7507 28.3333 38.2593 28.688 38.614C29.052 38.9687 29.556 39.146 30.2 39.146ZM38.6085 40.168C38.1045 40.168 37.6472 40.084 37.2365 39.916C36.8352 39.7387 36.4899 39.4913 36.2005 39.174C35.9205 38.8473 35.7059 38.4507 35.5565 37.984C35.4072 37.5173 35.3325 36.9947 35.3325 36.416C35.3325 35.688 35.4399 35.0067 35.6545 34.372C35.8692 33.728 36.1445 33.1447 36.4805 32.622C36.8259 32.09 37.2039 31.6233 37.6145 31.222C38.0252 30.8113 38.4265 30.48 38.8185 30.228H40.3305C39.8079 30.6107 39.3412 30.984 38.9305 31.348C38.5199 31.712 38.1605 32.0947 37.8525 32.496C37.5445 32.888 37.2832 33.3127 37.0685 33.77C36.8539 34.218 36.6812 34.7267 36.5505 35.296L36.6205 35.324C36.8539 34.9227 37.1525 34.5913 37.5165 34.33C37.8899 34.0593 38.3752 33.924 38.9725 33.924C39.3925 33.924 39.7799 33.994 40.1345 34.134C40.4892 34.274 40.7925 34.4747 41.0445 34.736C41.2965 34.9973 41.4925 35.3147 41.6325 35.688C41.7819 36.0613 41.8565 36.4767 41.8565 36.934C41.8565 37.41 41.7772 37.8487 41.6185 38.25C41.4692 38.642 41.2499 38.9827 40.9605 39.272C40.6805 39.552 40.3399 39.7713 39.9385 39.93C39.5372 40.0887 39.0939 40.168 38.6085 40.168ZM38.5945 39.146C39.2385 39.146 39.7379 38.9687 40.0925 38.614C40.4565 38.2593 40.6385 37.7507 40.6385 37.088V36.976C40.6385 36.3133 40.4565 35.8047 40.0925 35.45C39.7379 35.0953 39.2385 34.918 38.5945 34.918C37.9505 34.918 37.4465 35.0953 37.0825 35.45C36.7279 35.8047 36.5505 36.3133 36.5505 36.976V37.088C36.5505 37.7507 36.7279 38.2593 37.0825 38.614C37.4465 38.9687 37.9505 39.146 38.5945 39.146ZM44.6931 40.168C44.3944 40.168 44.1751 40.0933 44.0351 39.944C43.9044 39.7947 43.8391 39.5987 43.8391 39.356V39.174C43.8391 38.9313 43.9044 38.7353 44.0351 38.586C44.1751 38.4367 44.3944 38.362 44.6931 38.362C44.9917 38.362 45.2064 38.4367 45.3371 38.586C45.4771 38.7353 45.5471 38.9313 45.5471 39.174V39.356C45.5471 39.5987 45.4771 39.7947 45.3371 39.944C45.2064 40.0933 44.9917 40.168 44.6931 40.168ZM50.8175 40.168C50.3135 40.168 49.8562 40.084 49.4455 39.916C49.0442 39.7387 48.6988 39.4913 48.4095 39.174C48.1295 38.8473 47.9148 38.4507 47.7655 37.984C47.6162 37.5173 47.5415 36.9947 47.5415 36.416C47.5415 35.688 47.6488 35.0067 47.8635 34.372C48.0782 33.728 48.3535 33.1447 48.6895 32.622C49.0348 32.09 49.4128 31.6233 49.8235 31.222C50.2342 30.8113 50.6355 30.48 51.0275 30.228H52.5395C52.0168 30.6107 51.5502 30.984 51.1395 31.348C50.7288 31.712 50.3695 32.0947 50.0615 32.496C49.7535 32.888 49.4922 33.3127 49.2775 33.77C49.0628 34.218 48.8902 34.7267 48.7595 35.296L48.8295 35.324C49.0628 34.9227 49.3615 34.5913 49.7255 34.33C50.0988 34.0593 50.5842 33.924 51.1815 33.924C51.6015 33.924 51.9888 33.994 52.3435 34.134C52.6982 34.274 53.0015 34.4747 53.2535 34.736C53.5055 34.9973 53.7015 35.3147 53.8415 35.688C53.9908 36.0613 54.0655 36.4767 54.0655 36.934C54.0655 37.41 53.9862 37.8487 53.8275 38.25C53.6782 38.642 53.4588 38.9827 53.1695 39.272C52.8895 39.552 52.5488 39.7713 52.1475 39.93C51.7462 40.0887 51.3028 40.168 50.8175 40.168ZM50.8035 39.146C51.4475 39.146 51.9468 38.9687 52.3015 38.614C52.6655 38.2593 52.8475 37.7507 52.8475 37.088V36.976C52.8475 36.3133 52.6655 35.8047 52.3015 35.45C51.9468 35.0953 51.4475 34.918 50.8035 34.918C50.1595 34.918 49.6555 35.0953 49.2915 35.45C48.9368 35.8047 48.7595 36.3133 48.7595 36.976V37.088C48.7595 37.7507 48.9368 38.2593 49.2915 38.614C49.6555 38.9687 50.1595 39.146 50.8035 39.146ZM57.448 40L61.186 31.236H57.014V33.056H55.964V30.228H62.376V31.264L58.708 40H57.448Z" fill="#414652"/>
<path d="M91.668 39.132V36.206H88.938V35.254H91.668V32.328H92.732V35.254H95.462V36.206H92.732V39.132H91.668Z" fill="#414652"/>
<path d="M126.25 40V38.082H121.532V37.046L125.62 30.228H127.37V37.102H128.784V38.082H127.37V40H126.25ZM122.638 37.102H126.25V31.138H126.18L122.638 37.102ZM133.595 40.168C132.428 40.168 131.574 39.7247 131.033 38.838C130.501 37.9513 130.235 36.71 130.235 35.114C130.235 33.518 130.501 32.2767 131.033 31.39C131.574 30.5033 132.428 30.06 133.595 30.06C134.761 30.06 135.611 30.5033 136.143 31.39C136.684 32.2767 136.955 33.518 136.955 35.114C136.955 36.71 136.684 37.9513 136.143 38.838C135.611 39.7247 134.761 40.168 133.595 40.168ZM133.595 39.146C133.977 39.146 134.304 39.0667 134.575 38.908C134.845 38.7493 135.065 38.5253 135.233 38.236C135.401 37.9467 135.522 37.606 135.597 37.214C135.681 36.822 135.723 36.388 135.723 35.912V34.316C135.723 33.84 135.681 33.406 135.597 33.014C135.522 32.622 135.401 32.2813 135.233 31.992C135.065 31.7027 134.845 31.4787 134.575 31.32C134.304 31.1613 133.977 31.082 133.595 31.082C133.212 31.082 132.885 31.1613 132.615 31.32C132.344 31.4787 132.125 31.7027 131.957 31.992C131.789 32.2813 131.663 32.622 131.579 33.014C131.504 33.406 131.467 33.84 131.467 34.316V35.912C131.467 36.388 131.504 36.822 131.579 37.214C131.663 37.606 131.789 37.9467 131.957 38.236C132.125 38.5253 132.344 38.7493 132.615 38.908C132.885 39.0667 133.212 39.146 133.595 39.146ZM141.989 40.168C140.822 40.168 139.968 39.7247 139.427 38.838C138.895 37.9513 138.629 36.71 138.629 35.114C138.629 33.518 138.895 32.2767 139.427 31.39C139.968 30.5033 140.822 30.06 141.989 30.06C143.156 30.06 144.005 30.5033 144.537 31.39C145.078 32.2767 145.349 33.518 145.349 35.114C145.349 36.71 145.078 37.9513 144.537 38.838C144.005 39.7247 143.156 40.168 141.989 40.168ZM141.989 39.146C142.372 39.146 142.698 39.0667 142.969 38.908C143.24 38.7493 143.459 38.5253 143.627 38.236C143.795 37.9467 143.916 37.606 143.991 37.214C144.075 36.822 144.117 36.388 144.117 35.912V34.316C144.117 33.84 144.075 33.406 143.991 33.014C143.916 32.622 143.795 32.2813 143.627 31.992C143.459 31.7027 143.24 31.4787 142.969 31.32C142.698 31.1613 142.372 31.082 141.989 31.082C141.606 31.082 141.28 31.1613 141.009 31.32C140.738 31.4787 140.519 31.7027 140.351 31.992C140.183 32.2813 140.057 32.622 139.973 33.014C139.898 33.406 139.861 33.84 139.861 34.316V35.912C139.861 36.388 139.898 36.822 139.973 37.214C140.057 37.606 140.183 37.9467 140.351 38.236C140.519 38.5253 140.738 38.7493 141.009 38.908C141.28 39.0667 141.606 39.146 141.989 39.146Z" fill="#414652"/>
<path d="M178.971 39.132V36.206H176.241V35.254H178.971V32.328H180.035V35.254H182.765V36.206H180.035V39.132H178.971Z" fill="#414652"/>
<path d="M216.943 40V38.964H219.673V31.096H219.575L217.111 33.392L216.425 32.65L219.015 30.228H220.849V38.964H223.369V40H216.943ZM228.305 40.168C227.139 40.168 226.285 39.7247 225.743 38.838C225.211 37.9513 224.945 36.71 224.945 35.114C224.945 33.518 225.211 32.2767 225.743 31.39C226.285 30.5033 227.139 30.06 228.305 30.06C229.472 30.06 230.321 30.5033 230.853 31.39C231.395 32.2767 231.665 33.518 231.665 35.114C231.665 36.71 231.395 37.9513 230.853 38.838C230.321 39.7247 229.472 40.168 228.305 40.168ZM228.305 39.146C228.688 39.146 229.015 39.0667 229.285 38.908C229.556 38.7493 229.775 38.5253 229.943 38.236C230.111 37.9467 230.233 37.606 230.307 37.214C230.391 36.822 230.433 36.388 230.433 35.912V34.316C230.433 33.84 230.391 33.406 230.307 33.014C230.233 32.622 230.111 32.2813 229.943 31.992C229.775 31.7027 229.556 31.4787 229.285 31.32C229.015 31.1613 228.688 31.082 228.305 31.082C227.923 31.082 227.596 31.1613 227.325 31.32C227.055 31.4787 226.835 31.7027 226.667 31.992C226.499 32.2813 226.373 32.622 226.289 33.014C226.215 33.406 226.177 33.84 226.177 34.316V35.912C226.177 36.388 226.215 36.822 226.289 37.214C226.373 37.606 226.499 37.9467 226.667 38.236C226.835 38.5253 227.055 38.7493 227.325 38.908C227.596 39.0667 227.923 39.146 228.305 39.146ZM236.7 40.168C235.533 40.168 234.679 39.7247 234.138 38.838C233.606 37.9513 233.34 36.71 233.34 35.114C233.34 33.518 233.606 32.2767 234.138 31.39C234.679 30.5033 235.533 30.06 236.7 30.06C237.867 30.06 238.716 30.5033 239.248 31.39C239.789 32.2767 240.06 33.518 240.06 35.114C240.06 36.71 239.789 37.9513 239.248 38.838C238.716 39.7247 237.867 40.168 236.7 40.168ZM236.7 39.146C237.083 39.146 237.409 39.0667 237.68 38.908C237.951 38.7493 238.17 38.5253 238.338 38.236C238.506 37.9467 238.627 37.606 238.702 37.214C238.786 36.822 238.828 36.388 238.828 35.912V34.316C238.828 33.84 238.786 33.406 238.702 33.014C238.627 32.622 238.506 32.2813 238.338 31.992C238.17 31.7027 237.951 31.4787 237.68 31.32C237.409 31.1613 237.083 31.082 236.7 31.082C236.317 31.082 235.991 31.1613 235.72 31.32C235.449 31.4787 235.23 31.7027 235.062 31.992C234.894 32.2813 234.768 32.622 234.684 33.014C234.609 33.406 234.572 33.84 234.572 34.316V35.912C234.572 36.388 234.609 36.822 234.684 37.214C234.768 37.606 234.894 37.9467 235.062 38.236C235.23 38.5253 235.449 38.7493 235.72 38.908C235.991 39.0667 236.317 39.146 236.7 39.146ZM245.095 40.168C243.928 40.168 243.074 39.7247 242.533 38.838C242.001 37.9513 241.735 36.71 241.735 35.114C241.735 33.518 242.001 32.2767 242.533 31.39C243.074 30.5033 243.928 30.06 245.095 30.06C246.261 30.06 247.111 30.5033 247.643 31.39C248.184 32.2767 248.455 33.518 248.455 35.114C248.455 36.71 248.184 37.9513 247.643 38.838C247.111 39.7247 246.261 40.168 245.095 40.168ZM245.095 39.146C245.477 39.146 245.804 39.0667 246.075 38.908C246.345 38.7493 246.565 38.5253 246.733 38.236C246.901 37.9467 247.022 37.606 247.097 37.214C247.181 36.822 247.223 36.388 247.223 35.912V34.316C247.223 33.84 247.181 33.406 247.097 33.014C247.022 32.622 246.901 32.2813 246.733 31.992C246.565 31.7027 246.345 31.4787 246.075 31.32C245.804 31.1613 245.477 31.082 245.095 31.082C244.712 31.082 244.385 31.1613 244.115 31.32C243.844 31.4787 243.625 31.7027 243.457 31.992C243.289 32.2813 243.163 32.622 243.079 33.014C243.004 33.406 242.967 33.84 242.967 34.316V35.912C242.967 36.388 243.004 36.822 243.079 37.214C243.163 37.606 243.289 37.9467 243.457 38.236C243.625 38.5253 243.844 38.7493 244.115 38.908C244.385 39.0667 244.712 39.146 245.095 39.146Z" fill="#414652"/>
<path d="M282.241 34.792V33.84H288.765V34.792H282.241ZM282.241 37.592V36.64H288.765V37.592H282.241Z" fill="#414652"/>
<path d="M318.098 41.148V40C317.389 39.9533 316.787 39.7807 316.292 39.482C315.807 39.174 315.392 38.7913 315.046 38.334L315.872 37.592C316.171 37.9933 316.498 38.3153 316.852 38.558C317.216 38.7913 317.636 38.9407 318.112 39.006V35.408C317.151 35.1933 316.446 34.8807 315.998 34.47C315.56 34.05 315.34 33.476 315.34 32.748C315.34 32.3747 315.406 32.0433 315.536 31.754C315.676 31.4553 315.868 31.1987 316.11 30.984C316.353 30.7693 316.642 30.6013 316.978 30.48C317.314 30.3493 317.688 30.2653 318.098 30.228V29.08H318.966V30.214C319.601 30.27 320.147 30.4333 320.604 30.704C321.071 30.9653 321.472 31.3293 321.808 31.796L320.954 32.44C320.721 32.1133 320.441 31.8473 320.114 31.642C319.788 31.4273 319.4 31.2873 318.952 31.222V34.498L319.078 34.526C320.049 34.7407 320.754 35.058 321.192 35.478C321.64 35.8887 321.864 36.4627 321.864 37.2C321.864 38.0027 321.603 38.6513 321.08 39.146C320.567 39.6313 319.862 39.916 318.966 40V41.148H318.098ZM320.758 37.27C320.758 36.794 320.618 36.43 320.338 36.178C320.068 35.926 319.606 35.7207 318.952 35.562V39.006C319.512 38.9313 319.951 38.7447 320.268 38.446C320.595 38.138 320.758 37.746 320.758 37.27ZM316.446 32.664C316.446 33.14 316.582 33.4993 316.852 33.742C317.132 33.9753 317.552 34.1667 318.112 34.316V31.222C317.608 31.2873 317.202 31.4413 316.894 31.684C316.596 31.9267 316.446 32.2533 316.446 32.664ZM323.918 40V38.964H326.648V31.096H326.55L324.086 33.392L323.4 32.65L325.99 30.228H327.824V38.964H330.344V40H323.918ZM332.984 38.362C333.283 38.362 333.497 38.4413 333.628 38.6C333.768 38.7493 333.838 38.9453 333.838 39.188V39.384C333.838 39.7667 333.726 40.1867 333.502 40.644C333.278 41.1107 332.965 41.5167 332.564 41.862H331.626C331.906 41.5633 332.13 41.2787 332.298 41.008C332.475 40.7467 332.601 40.4527 332.676 40.126C332.489 40.0793 332.349 39.9907 332.256 39.86C332.172 39.7293 332.13 39.5707 332.13 39.384V39.188C332.13 38.9453 332.195 38.7493 332.326 38.6C332.466 38.4413 332.685 38.362 332.984 38.362ZM340.145 40V38.082H335.427V37.046L339.515 30.228H341.265V37.102H342.679V38.082H341.265V40H340.145ZM336.533 37.102H340.145V31.138H340.075L336.533 37.102ZM347.503 40.168C346.999 40.168 346.542 40.084 346.131 39.916C345.73 39.7387 345.384 39.4913 345.095 39.174C344.815 38.8473 344.6 38.4507 344.451 37.984C344.302 37.5173 344.227 36.9947 344.227 36.416C344.227 35.688 344.334 35.0067 344.549 34.372C344.764 33.728 345.039 33.1447 345.375 32.622C345.72 32.09 346.098 31.6233 346.509 31.222C346.92 30.8113 347.321 30.48 347.713 30.228H349.225C348.702 30.6107 348.236 30.984 347.825 31.348C347.414 31.712 347.055 32.0947 346.747 32.496C346.439 32.888 346.178 33.3127 345.963 33.77C345.748 34.218 345.576 34.7267 345.445 35.296L345.515 35.324C345.748 34.9227 346.047 34.5913 346.411 34.33C346.784 34.0593 347.27 33.924 347.867 33.924C348.287 33.924 348.674 33.994 349.029 34.134C349.384 34.274 349.687 34.4747 349.939 34.736C350.191 34.9973 350.387 35.3147 350.527 35.688C350.676 36.0613 350.751 36.4767 350.751 36.934C350.751 37.41 350.672 37.8487 350.513 38.25C350.364 38.642 350.144 38.9827 349.855 39.272C349.575 39.552 349.234 39.7713 348.833 39.93C348.432 40.0887 347.988 40.168 347.503 40.168ZM347.489 39.146C348.133 39.146 348.632 38.9687 348.987 38.614C349.351 38.2593 349.533 37.7507 349.533 37.088V36.976C349.533 36.3133 349.351 35.8047 348.987 35.45C348.632 35.0953 348.133 34.918 347.489 34.918C346.845 34.918 346.341 35.0953 345.977 35.45C345.622 35.8047 345.445 36.3133 345.445 36.976V37.088C345.445 37.7507 345.622 38.2593 345.977 38.614C346.341 38.9687 346.845 39.146 347.489 39.146ZM355.898 40.168C355.394 40.168 354.936 40.084 354.526 39.916C354.124 39.7387 353.779 39.4913 353.49 39.174C353.21 38.8473 352.995 38.4507 352.846 37.984C352.696 37.5173 352.622 36.9947 352.622 36.416C352.622 35.688 352.729 35.0067 352.944 34.372C353.158 33.728 353.434 33.1447 353.77 32.622C354.115 32.09 354.493 31.6233 354.904 31.222C355.314 30.8113 355.716 30.48 356.108 30.228H357.62C357.097 30.6107 356.63 30.984 356.22 31.348C355.809 31.712 355.45 32.0947 355.142 32.496C354.834 32.888 354.572 33.3127 354.358 33.77C354.143 34.218 353.97 34.7267 353.84 35.296L353.91 35.324C354.143 34.9227 354.442 34.5913 354.806 34.33C355.179 34.0593 355.664 33.924 356.262 33.924C356.682 33.924 357.069 33.994 357.424 34.134C357.778 34.274 358.082 34.4747 358.334 34.736C358.586 34.9973 358.782 35.3147 358.922 35.688C359.071 36.0613 359.146 36.4767 359.146 36.934C359.146 37.41 359.066 37.8487 358.908 38.25C358.758 38.642 358.539 38.9827 358.25 39.272C357.97 39.552 357.629 39.7713 357.228 39.93C356.826 40.0887 356.383 40.168 355.898 40.168ZM355.884 39.146C356.528 39.146 357.027 38.9687 357.382 38.614C357.746 38.2593 357.928 37.7507 357.928 37.088V36.976C357.928 36.3133 357.746 35.8047 357.382 35.45C357.027 35.0953 356.528 34.918 355.884 34.918C355.24 34.918 354.736 35.0953 354.372 35.45C354.017 35.8047 353.84 36.3133 353.84 36.976V37.088C353.84 37.7507 354.017 38.2593 354.372 38.614C354.736 38.9687 355.24 39.146 355.884 39.146ZM361.982 40.168C361.683 40.168 361.464 40.0933 361.324 39.944C361.193 39.7947 361.128 39.5987 361.128 39.356V39.174C361.128 38.9313 361.193 38.7353 361.324 38.586C361.464 38.4367 361.683 38.362 361.982 38.362C362.281 38.362 362.495 38.4367 362.626 38.586C362.766 38.7353 362.836 38.9313 362.836 39.174V39.356C362.836 39.5987 362.766 39.7947 362.626 39.944C362.495 40.0933 362.281 40.168 361.982 40.168ZM368.107 40.168C367.603 40.168 367.145 40.084 366.735 39.916C366.333 39.7387 365.988 39.4913 365.699 39.174C365.419 38.8473 365.204 38.4507 365.055 37.984C364.905 37.5173 364.831 36.9947 364.831 36.416C364.831 35.688 364.938 35.0067 365.153 34.372C365.367 33.728 365.643 33.1447 365.979 32.622C366.324 32.09 366.702 31.6233 367.113 31.222C367.523 30.8113 367.925 30.48 368.317 30.228H369.829C369.306 30.6107 368.839 30.984 368.429 31.348C368.018 31.712 367.659 32.0947 367.351 32.496C367.043 32.888 366.781 33.3127 366.567 33.77C366.352 34.218 366.179 34.7267 366.049 35.296L366.119 35.324C366.352 34.9227 366.651 34.5913 367.015 34.33C367.388 34.0593 367.873 33.924 368.471 33.924C368.891 33.924 369.278 33.994 369.633 34.134C369.987 34.274 370.291 34.4747 370.543 34.736C370.795 34.9973 370.991 35.3147 371.131 35.688C371.28 36.0613 371.355 36.4767 371.355 36.934C371.355 37.41 371.275 37.8487 371.117 38.25C370.967 38.642 370.748 38.9827 370.459 39.272C370.179 39.552 369.838 39.7713 369.437 39.93C369.035 40.0887 368.592 40.168 368.107 40.168ZM368.093 39.146C368.737 39.146 369.236 38.9687 369.591 38.614C369.955 38.2593 370.137 37.7507 370.137 37.088V36.976C370.137 36.3133 369.955 35.8047 369.591 35.45C369.236 35.0953 368.737 34.918 368.093 34.918C367.449 34.918 366.945 35.0953 366.581 35.45C366.226 35.8047 366.049 36.3133 366.049 36.976V37.088C366.049 37.7507 366.226 38.2593 366.581 38.614C366.945 38.9687 367.449 39.146 368.093 39.146ZM374.737 40L378.475 31.236H374.303V33.056H373.253V30.228H379.665V31.264L375.997 40H374.737Z" fill="#414652"/>
<path d="M223.972 81.264H219.688L219.408 84.988H219.506C219.739 84.6613 220.001 84.4 220.29 84.204C220.589 84.008 220.995 83.91 221.508 83.91C221.928 83.91 222.315 83.98 222.67 84.12C223.025 84.26 223.333 84.4607 223.594 84.722C223.855 84.974 224.056 85.2867 224.196 85.66C224.345 86.0333 224.42 86.458 224.42 86.934C224.42 87.41 224.345 87.8487 224.196 88.25C224.047 88.642 223.827 88.9827 223.538 89.272C223.258 89.552 222.913 89.7713 222.502 89.93C222.101 90.0887 221.643 90.168 221.13 90.168C220.719 90.168 220.355 90.1213 220.038 90.028C219.73 89.9347 219.455 89.8087 219.212 89.65C218.969 89.4913 218.755 89.314 218.568 89.118C218.391 88.922 218.227 88.7167 218.078 88.502L218.96 87.83C219.081 88.026 219.207 88.2033 219.338 88.362C219.478 88.5207 219.627 88.656 219.786 88.768C219.954 88.88 220.145 88.9687 220.36 89.034C220.575 89.09 220.831 89.118 221.13 89.118C221.802 89.118 222.311 88.9407 222.656 88.586C223.001 88.2313 223.174 87.732 223.174 87.088V86.948C223.174 86.304 223.001 85.8047 222.656 85.45C222.311 85.0953 221.802 84.918 221.13 84.918C220.682 84.918 220.327 85.002 220.066 85.17C219.814 85.3287 219.585 85.52 219.38 85.744L218.386 85.604L218.736 80.228H223.972V81.264ZM231.083 90C230.691 90 230.392 89.8927 230.187 89.678C229.991 89.454 229.893 89.174 229.893 88.838V79.64H231.013V89.02H232.077V90H231.083ZM236.438 90.168C235.952 90.168 235.509 90.0793 235.108 89.902C234.706 89.7247 234.361 89.4727 234.072 89.146C233.792 88.81 233.572 88.4133 233.414 87.956C233.255 87.4893 233.176 86.9667 233.176 86.388C233.176 85.8187 233.255 85.3007 233.414 84.834C233.572 84.3673 233.792 83.9707 234.072 83.644C234.361 83.308 234.706 83.0513 235.108 82.874C235.509 82.6967 235.952 82.608 236.438 82.608C236.923 82.608 237.362 82.6967 237.754 82.874C238.155 83.0513 238.5 83.308 238.79 83.644C239.079 83.9707 239.303 84.3673 239.462 84.834C239.62 85.3007 239.7 85.8187 239.7 86.388C239.7 86.9667 239.62 87.4893 239.462 87.956C239.303 88.4133 239.079 88.81 238.79 89.146C238.5 89.4727 238.155 89.7247 237.754 89.902C237.362 90.0793 236.923 90.168 236.438 90.168ZM236.438 89.174C237.044 89.174 237.539 88.9873 237.922 88.614C238.304 88.2407 238.496 87.6713 238.496 86.906V85.87C238.496 85.1047 238.304 84.5353 237.922 84.162C237.539 83.7887 237.044 83.602 236.438 83.602C235.831 83.602 235.336 83.7887 234.954 84.162C234.571 84.5353 234.38 85.1047 234.38 85.87V86.906C234.38 87.6713 234.571 88.2407 234.954 88.614C235.336 88.9873 235.831 89.174 236.438 89.174ZM243.138 90C242.746 90 242.447 89.8927 242.242 89.678C242.046 89.454 241.948 89.1647 241.948 88.81V83.756H240.758V82.776H241.43C241.672 82.776 241.836 82.7293 241.92 82.636C242.013 82.5333 242.06 82.3607 242.06 82.118V80.774H243.068V82.776H244.65V83.756H243.068V89.02H244.538V90H243.138ZM248.62 90.168C247.948 90.168 247.383 90.042 246.926 89.79C246.478 89.5287 246.09 89.1833 245.764 88.754L246.562 88.11C246.842 88.4647 247.154 88.74 247.5 88.936C247.845 89.1227 248.246 89.216 248.704 89.216C249.18 89.216 249.548 89.1133 249.81 88.908C250.08 88.7027 250.216 88.4133 250.216 88.04C250.216 87.76 250.122 87.522 249.936 87.326C249.758 87.1207 249.432 86.9807 248.956 86.906L248.382 86.822C248.046 86.7753 247.738 86.7053 247.458 86.612C247.178 86.5093 246.93 86.3787 246.716 86.22C246.51 86.052 246.347 85.8467 246.226 85.604C246.114 85.3613 246.058 85.072 246.058 84.736C246.058 84.3813 246.123 84.0733 246.254 83.812C246.384 83.5413 246.562 83.3173 246.786 83.14C247.019 82.9627 247.294 82.832 247.612 82.748C247.929 82.6547 248.27 82.608 248.634 82.608C249.222 82.608 249.712 82.7107 250.104 82.916C250.505 83.1213 250.855 83.406 251.154 83.77L250.412 84.442C250.253 84.218 250.02 84.0173 249.712 83.84C249.404 83.6533 249.016 83.56 248.55 83.56C248.083 83.56 247.728 83.6627 247.486 83.868C247.252 84.064 247.136 84.3347 247.136 84.68C247.136 85.0347 247.252 85.2913 247.486 85.45C247.728 85.6087 248.074 85.7253 248.522 85.8L249.082 85.884C249.884 86.0053 250.454 86.2387 250.79 86.584C251.126 86.92 251.294 87.3633 251.294 87.914C251.294 88.614 251.056 89.1647 250.58 89.566C250.104 89.9673 249.45 90.168 248.62 90.168Z" fill="#999999"/>
<path d="M244 59V75H243V59H244Z" fill="#E5E5E5"/>
<circle cx="243.5" cy="57.5" r="2" fill="#577A92" fill-opacity="0.04" stroke="#E5E5E5"/>
<path d="M311.592 82.264V91H310.416V82.264H307.308V81.228H314.7V82.264H311.592ZM318.016 91.168C317.53 91.168 317.087 91.0793 316.686 90.902C316.284 90.7247 315.939 90.4727 315.65 90.146C315.37 89.81 315.15 89.4133 314.992 88.956C314.833 88.4893 314.754 87.9667 314.754 87.388C314.754 86.8187 314.833 86.3007 314.992 85.834C315.15 85.3673 315.37 84.9707 315.65 84.644C315.939 84.308 316.284 84.0513 316.686 83.874C317.087 83.6967 317.53 83.608 318.016 83.608C318.501 83.608 318.94 83.6967 319.332 83.874C319.733 84.0513 320.078 84.308 320.368 84.644C320.657 84.9707 320.881 85.3673 321.04 85.834C321.198 86.3007 321.278 86.8187 321.278 87.388C321.278 87.9667 321.198 88.4893 321.04 88.956C320.881 89.4133 320.657 89.81 320.368 90.146C320.078 90.4727 319.733 90.7247 319.332 90.902C318.94 91.0793 318.501 91.168 318.016 91.168ZM318.016 90.174C318.622 90.174 319.117 89.9873 319.5 89.614C319.882 89.2407 320.074 88.6713 320.074 87.906V86.87C320.074 86.1047 319.882 85.5353 319.5 85.162C319.117 84.7887 318.622 84.602 318.016 84.602C317.409 84.602 316.914 84.7887 316.532 85.162C316.149 85.5353 315.958 86.1047 315.958 86.87V87.906C315.958 88.6713 316.149 89.2407 316.532 89.614C316.914 89.9873 317.409 90.174 318.016 90.174ZM324.716 91C324.324 91 324.025 90.8927 323.82 90.678C323.624 90.454 323.526 90.1647 323.526 89.81V84.756H322.336V83.776H323.008C323.25 83.776 323.414 83.7293 323.498 83.636C323.591 83.5333 323.638 83.3607 323.638 83.118V81.774H324.646V83.776H326.228V84.756H324.646V90.02H326.116V91H324.716ZM333.278 91C332.858 91 332.555 90.888 332.368 90.664C332.191 90.44 332.079 90.16 332.032 89.824H331.962C331.803 90.272 331.542 90.608 331.178 90.832C330.814 91.056 330.38 91.168 329.876 91.168C329.111 91.168 328.513 90.972 328.084 90.58C327.664 90.188 327.454 89.656 327.454 88.984C327.454 88.3027 327.701 87.78 328.196 87.416C328.7 87.052 329.479 86.87 330.534 86.87H331.962V86.156C331.962 85.6427 331.822 85.2507 331.542 84.98C331.262 84.7093 330.833 84.574 330.254 84.574C329.815 84.574 329.447 84.672 329.148 84.868C328.859 85.064 328.616 85.3253 328.42 85.652L327.748 85.022C327.944 84.63 328.257 84.2987 328.686 84.028C329.115 83.748 329.657 83.608 330.31 83.608C331.187 83.608 331.869 83.8227 332.354 84.252C332.839 84.6813 333.082 85.2787 333.082 86.044V90.02H333.908V91H333.278ZM330.058 90.216C330.338 90.216 330.595 90.1833 330.828 90.118C331.061 90.0527 331.262 89.9593 331.43 89.838C331.598 89.7167 331.729 89.5767 331.822 89.418C331.915 89.2593 331.962 89.0867 331.962 88.9V87.71H330.478C329.834 87.71 329.363 87.8033 329.064 87.99C328.775 88.1767 328.63 88.4473 328.63 88.802V89.096C328.63 89.4507 328.756 89.726 329.008 89.922C329.269 90.118 329.619 90.216 330.058 90.216ZM336.696 91C336.304 91 336.006 90.8927 335.8 90.678C335.604 90.454 335.506 90.174 335.506 89.838V80.64H336.626V90.02H337.69V91H336.696ZM342.629 91V83.776H343.749V84.952H343.805C343.889 84.7653 343.983 84.5927 344.085 84.434C344.197 84.266 344.328 84.1213 344.477 84C344.636 83.8787 344.818 83.7853 345.023 83.72C345.229 83.6453 345.471 83.608 345.751 83.608C346.227 83.608 346.666 83.7247 347.067 83.958C347.469 84.182 347.767 84.5553 347.963 85.078H347.991C348.122 84.686 348.365 84.3453 348.719 84.056C349.083 83.7573 349.573 83.608 350.189 83.608C350.927 83.608 351.501 83.8507 351.911 84.336C352.331 84.812 352.541 85.4887 352.541 86.366V91H351.421V86.562C351.421 85.918 351.295 85.4327 351.043 85.106C350.791 84.7793 350.39 84.616 349.839 84.616C349.615 84.616 349.401 84.644 349.195 84.7C348.999 84.756 348.822 84.84 348.663 84.952C348.505 85.064 348.379 85.2087 348.285 85.386C348.192 85.554 348.145 85.7547 348.145 85.988V91H347.025V86.562C347.025 85.918 346.899 85.4327 346.647 85.106C346.395 84.7793 346.003 84.616 345.471 84.616C345.247 84.616 345.033 84.644 344.827 84.7C344.622 84.756 344.44 84.84 344.281 84.952C344.123 85.064 343.992 85.2087 343.889 85.386C343.796 85.554 343.749 85.7547 343.749 85.988V91H342.629ZM360.102 91C359.682 91 359.379 90.888 359.192 90.664C359.015 90.44 358.903 90.16 358.856 89.824H358.786C358.627 90.272 358.366 90.608 358.002 90.832C357.638 91.056 357.204 91.168 356.7 91.168C355.935 91.168 355.337 90.972 354.908 90.58C354.488 90.188 354.278 89.656 354.278 88.984C354.278 88.3027 354.525 87.78 355.02 87.416C355.524 87.052 356.303 86.87 357.358 86.87H358.786V86.156C358.786 85.6427 358.646 85.2507 358.366 84.98C358.086 84.7093 357.657 84.574 357.078 84.574C356.639 84.574 356.271 84.672 355.972 84.868C355.683 85.064 355.44 85.3253 355.244 85.652L354.572 85.022C354.768 84.63 355.081 84.2987 355.51 84.028C355.939 83.748 356.481 83.608 357.134 83.608C358.011 83.608 358.693 83.8227 359.178 84.252C359.663 84.6813 359.906 85.2787 359.906 86.044V90.02H360.732V91H360.102ZM356.882 90.216C357.162 90.216 357.419 90.1833 357.652 90.118C357.885 90.0527 358.086 89.9593 358.254 89.838C358.422 89.7167 358.553 89.5767 358.646 89.418C358.739 89.2593 358.786 89.0867 358.786 88.9V87.71H357.302C356.658 87.71 356.187 87.8033 355.888 87.99C355.599 88.1767 355.454 88.4473 355.454 88.802V89.096C355.454 89.4507 355.58 89.726 355.832 89.922C356.093 90.118 356.443 90.216 356.882 90.216ZM362.331 91V83.776H363.451V85.106H363.521C363.651 84.7607 363.885 84.4527 364.221 84.182C364.557 83.9113 365.019 83.776 365.607 83.776H366.041V84.896H365.383C364.776 84.896 364.3 85.0127 363.955 85.246C363.619 85.47 363.451 85.7547 363.451 86.1V91H362.331ZM373.233 91.798C373.233 92.5447 372.939 93.0907 372.351 93.436C371.772 93.7907 370.9 93.968 369.733 93.968C368.604 93.968 367.792 93.814 367.297 93.506C366.802 93.198 366.555 92.7593 366.555 92.19C366.555 91.798 366.658 91.49 366.863 91.266C367.068 91.0513 367.348 90.8927 367.703 90.79V90.636C367.274 90.4307 367.059 90.0947 367.059 89.628C367.059 89.264 367.176 88.9887 367.409 88.802C367.642 88.606 367.941 88.4613 368.305 88.368V88.312C367.876 88.1067 367.54 87.8127 367.297 87.43C367.064 87.0473 366.947 86.604 366.947 86.1C366.947 85.736 367.012 85.4 367.143 85.092C367.274 84.784 367.456 84.5227 367.689 84.308C367.932 84.084 368.216 83.9113 368.543 83.79C368.879 83.6687 369.252 83.608 369.663 83.608C370.176 83.608 370.634 83.7013 371.035 83.888V83.762C371.035 83.482 371.1 83.2533 371.231 83.076C371.362 82.8893 371.576 82.796 371.875 82.796H372.953V83.776H371.581V84.238C371.842 84.462 372.043 84.7327 372.183 85.05C372.332 85.358 372.407 85.708 372.407 86.1C372.407 86.464 372.342 86.8 372.211 87.108C372.08 87.416 371.894 87.682 371.651 87.906C371.418 88.1207 371.133 88.2887 370.797 88.41C370.461 88.5313 370.088 88.592 369.677 88.592C369.444 88.592 369.21 88.5687 368.977 88.522C368.734 88.5873 368.515 88.6853 368.319 88.816C368.123 88.9373 368.025 89.11 368.025 89.334C368.025 89.5487 368.128 89.6933 368.333 89.768C368.538 89.8427 368.804 89.88 369.131 89.88H370.671C371.567 89.88 372.216 90.0527 372.617 90.398C373.028 90.734 373.233 91.2007 373.233 91.798ZM372.183 91.882C372.183 91.5927 372.071 91.3593 371.847 91.182C371.632 91.014 371.245 90.93 370.685 90.93H368.277C367.829 91.1353 367.605 91.462 367.605 91.91C367.605 92.2273 367.722 92.498 367.955 92.722C368.198 92.946 368.604 93.058 369.173 93.058H370.209C370.834 93.058 371.32 92.96 371.665 92.764C372.01 92.568 372.183 92.274 372.183 91.882ZM369.677 87.696C370.153 87.696 370.531 87.584 370.811 87.36C371.091 87.1267 371.231 86.772 371.231 86.296V85.904C371.231 85.428 371.091 85.078 370.811 84.854C370.531 84.6207 370.153 84.504 369.677 84.504C369.201 84.504 368.823 84.6207 368.543 84.854C368.263 85.078 368.123 85.428 368.123 85.904V86.296C368.123 86.772 368.263 87.1267 368.543 87.36C368.823 87.584 369.201 87.696 369.677 87.696ZM375.1 82.082C374.857 82.082 374.68 82.026 374.568 81.914C374.465 81.7927 374.414 81.6387 374.414 81.452V81.27C374.414 81.0833 374.465 80.934 374.568 80.822C374.68 80.7007 374.857 80.64 375.1 80.64C375.342 80.64 375.515 80.7007 375.618 80.822C375.73 80.934 375.786 81.0833 375.786 81.27V81.452C375.786 81.6387 375.73 81.7927 375.618 81.914C375.515 82.026 375.342 82.082 375.1 82.082ZM374.54 83.776H375.66V91H374.54V83.776ZM378.04 91V83.776H379.16V84.952H379.216C379.393 84.5413 379.64 84.2147 379.958 83.972C380.284 83.7293 380.718 83.608 381.26 83.608C382.006 83.608 382.594 83.8507 383.024 84.336C383.462 84.812 383.682 85.4887 383.682 86.366V91H382.562V86.562C382.562 85.2647 382.016 84.616 380.924 84.616C380.7 84.616 380.48 84.644 380.266 84.7C380.06 84.756 379.874 84.84 379.706 84.952C379.538 85.064 379.402 85.2087 379.3 85.386C379.206 85.554 379.16 85.7547 379.16 85.988V91H378.04Z" fill="#999999"/>
<path d="M349 59V75H348V59H349Z" fill="#E5E5E5"/>
<circle cx="348.5" cy="57.5" r="2" fill="#577A92" fill-opacity="0.04" stroke="#E5E5E5"/>
<path d="M41.232 90V88.964H43.962V81.096H43.864L41.4 83.392L40.714 82.65L43.304 80.228H45.138V88.964H47.658V90H41.232ZM54.0831 90C53.6911 90 53.3925 89.8927 53.1871 89.678C52.9911 89.454 52.8931 89.174 52.8931 88.838V79.64H54.0131V89.02H55.0771V90H54.0831ZM59.4376 90.168C58.9522 90.168 58.5089 90.0793 58.1076 89.902C57.7062 89.7247 57.3609 89.4727 57.0716 89.146C56.7916 88.81 56.5722 88.4133 56.4136 87.956C56.2549 87.4893 56.1756 86.9667 56.1756 86.388C56.1756 85.8187 56.2549 85.3007 56.4136 84.834C56.5722 84.3673 56.7916 83.9707 57.0716 83.644C57.3609 83.308 57.7062 83.0513 58.1076 82.874C58.5089 82.6967 58.9522 82.608 59.4376 82.608C59.9229 82.608 60.3616 82.6967 60.7536 82.874C61.1549 83.0513 61.5002 83.308 61.7896 83.644C62.0789 83.9707 62.3029 84.3673 62.4616 84.834C62.6202 85.3007 62.6996 85.8187 62.6996 86.388C62.6996 86.9667 62.6202 87.4893 62.4616 87.956C62.3029 88.4133 62.0789 88.81 61.7896 89.146C61.5002 89.4727 61.1549 89.7247 60.7536 89.902C60.3616 90.0793 59.9229 90.168 59.4376 90.168ZM59.4376 89.174C60.0442 89.174 60.5389 88.9873 60.9216 88.614C61.3042 88.2407 61.4956 87.6713 61.4956 86.906V85.87C61.4956 85.1047 61.3042 84.5353 60.9216 84.162C60.5389 83.7887 60.0442 83.602 59.4376 83.602C58.8309 83.602 58.3362 83.7887 57.9536 84.162C57.5709 84.5353 57.3796 85.1047 57.3796 85.87V86.906C57.3796 87.6713 57.5709 88.2407 57.9536 88.614C58.3362 88.9873 58.8309 89.174 59.4376 89.174ZM66.1376 90C65.7456 90 65.4469 89.8927 65.2416 89.678C65.0456 89.454 64.9476 89.1647 64.9476 88.81V83.756H63.7576V82.776H64.4296C64.6722 82.776 64.8356 82.7293 64.9196 82.636C65.0129 82.5333 65.0596 82.3607 65.0596 82.118V80.774H66.0676V82.776H67.6496V83.756H66.0676V89.02H67.5376V90H66.1376Z" fill="#999999"/>
<path d="M58 59V75H57V59H58Z" fill="#E5E5E5"/>
<circle cx="57.5" cy="57.5" r="2" fill="#577A92" fill-opacity="0.04" stroke="#E5E5E5"/>
<path d="M129.25 91V89.082H124.532V88.046L128.62 81.228H130.37V88.102H131.784V89.082H130.37V91H129.25ZM125.638 88.102H129.25V82.138H129.18L125.638 88.102ZM138.083 91C137.691 91 137.392 90.8927 137.187 90.678C136.991 90.454 136.893 90.174 136.893 89.838V80.64H138.013V90.02H139.077V91H138.083ZM143.438 91.168C142.952 91.168 142.509 91.0793 142.108 90.902C141.706 90.7247 141.361 90.4727 141.072 90.146C140.792 89.81 140.572 89.4133 140.414 88.956C140.255 88.4893 140.176 87.9667 140.176 87.388C140.176 86.8187 140.255 86.3007 140.414 85.834C140.572 85.3673 140.792 84.9707 141.072 84.644C141.361 84.308 141.706 84.0513 142.108 83.874C142.509 83.6967 142.952 83.608 143.438 83.608C143.923 83.608 144.362 83.6967 144.754 83.874C145.155 84.0513 145.5 84.308 145.79 84.644C146.079 84.9707 146.303 85.3673 146.462 85.834C146.62 86.3007 146.7 86.8187 146.7 87.388C146.7 87.9667 146.62 88.4893 146.462 88.956C146.303 89.4133 146.079 89.81 145.79 90.146C145.5 90.4727 145.155 90.7247 144.754 90.902C144.362 91.0793 143.923 91.168 143.438 91.168ZM143.438 90.174C144.044 90.174 144.539 89.9873 144.922 89.614C145.304 89.2407 145.496 88.6713 145.496 87.906V86.87C145.496 86.1047 145.304 85.5353 144.922 85.162C144.539 84.7887 144.044 84.602 143.438 84.602C142.831 84.602 142.336 84.7887 141.954 85.162C141.571 85.5353 141.38 86.1047 141.38 86.87V87.906C141.38 88.6713 141.571 89.2407 141.954 89.614C142.336 89.9873 142.831 90.174 143.438 90.174ZM150.138 91C149.746 91 149.447 90.8927 149.242 90.678C149.046 90.454 148.948 90.1647 148.948 89.81V84.756H147.758V83.776H148.43C148.672 83.776 148.836 83.7293 148.92 83.636C149.013 83.5333 149.06 83.3607 149.06 83.118V81.774H150.068V83.776H151.65V84.756H150.068V90.02H151.538V91H150.138ZM155.62 91.168C154.948 91.168 154.383 91.042 153.926 90.79C153.478 90.5287 153.09 90.1833 152.764 89.754L153.562 89.11C153.842 89.4647 154.154 89.74 154.5 89.936C154.845 90.1227 155.246 90.216 155.704 90.216C156.18 90.216 156.548 90.1133 156.81 89.908C157.08 89.7027 157.216 89.4133 157.216 89.04C157.216 88.76 157.122 88.522 156.936 88.326C156.758 88.1207 156.432 87.9807 155.956 87.906L155.382 87.822C155.046 87.7753 154.738 87.7053 154.458 87.612C154.178 87.5093 153.93 87.3787 153.716 87.22C153.51 87.052 153.347 86.8467 153.226 86.604C153.114 86.3613 153.058 86.072 153.058 85.736C153.058 85.3813 153.123 85.0733 153.254 84.812C153.384 84.5413 153.562 84.3173 153.786 84.14C154.019 83.9627 154.294 83.832 154.612 83.748C154.929 83.6547 155.27 83.608 155.634 83.608C156.222 83.608 156.712 83.7107 157.104 83.916C157.505 84.1213 157.855 84.406 158.154 84.77L157.412 85.442C157.253 85.218 157.02 85.0173 156.712 84.84C156.404 84.6533 156.016 84.56 155.55 84.56C155.083 84.56 154.728 84.6627 154.486 84.868C154.252 85.064 154.136 85.3347 154.136 85.68C154.136 86.0347 154.252 86.2913 154.486 86.45C154.728 86.6087 155.074 86.7253 155.522 86.8L156.082 86.884C156.884 87.0053 157.454 87.2387 157.79 87.584C158.126 87.92 158.294 88.3633 158.294 88.914C158.294 89.614 158.056 90.1647 157.58 90.566C157.104 90.9673 156.45 91.168 155.62 91.168Z" fill="#999999"/>
<path d="M140 59V75H139V59H140Z" fill="#E5E5E5"/>
<circle cx="139.5" cy="57.5" r="2" fill="#577A92" fill-opacity="0.04" stroke="#E5E5E5"/>
</svg>
