<svg width="64" height="65" fill="none" xmlns="http://www.w3.org/2000/svg"><g clip-path="url(#a)"><path d="m34.783 34.573-6.54-.39-3.019 3.172a8.348 8.348 0 0 1-5.746 2.463 8.045 8.045 0 0 1-2.379-.376 9.643 9.643 0 0 1-3.409-1.92l-.946-.904.863-.974 8.348-9.461-8.348-7.22L0 34.322l12.396 10.406h.835a3.826 3.826 0 0 1 2.032.849 3.686 3.686 0 0 1 1.321 2.574l1.086-1.294a3.743 3.743 0 0 1 6.413 3.659 3.87 3.87 0 0 1 .974-.14c.88 0 1.733.311 2.407.877a3.7 3.7 0 0 1 1.322 2.546 3.632 3.632 0 0 1-.25 1.684 3.81 3.81 0 0 1 .876-.125c.839.005 1.65.3 2.296.834a3.547 3.547 0 0 1 .431 5.01l-1.071 1.293h2.782a3.423 3.423 0 0 0 2.547-1.183l1.488-1.794a2.685 2.685 0 0 0 3.687-.487l1.698-2.073.598.431a1.99 1.99 0 0 0 2.782-.417l2.046-2.477 1.474 1.085a2.435 2.435 0 0 0 3.381-.473l1.545-1.99a1.85 1.85 0 0 0-.306-2.56L34.783 34.574Z" fill="#85ACB0"/><path d="M14.72 49.945a2.407 2.407 0 0 0-.305-3.38 2.365 2.365 0 0 0-1.53-.557 2.392 2.392 0 0 0-1.851.862l-.835 1.002-.751.932a2.407 2.407 0 0 0 .292 3.34 2.38 2.38 0 0 0 3.38-.293l.738-.862.863-1.044Zm7.694.825a2.407 2.407 0 0 0-.292-3.354 2.42 2.42 0 0 0-2.56-.33 2.384 2.384 0 0 0-.821.636l-3.645 4.355-1.294 1.53a2.407 2.407 0 0 0 .306 3.382 2.42 2.42 0 0 0 3.38-.292l1.253-1.517 3.673-4.41Zm4.216 1.474a2.365 2.365 0 0 0-1.531-.557 2.395 2.395 0 0 0-1.85.863l-3.145 3.756-.849 1.016a2.393 2.393 0 0 0 .223 3.38 2.379 2.379 0 0 0 3.38-.291l.836-1.002 3.172-3.785a2.407 2.407 0 0 0-.237-3.38Zm4.23 4.906a2.212 2.212 0 0 0-3.103.264l-2.532 3.075-.084.11a2.199 2.199 0 0 0 .362 2.992 2.14 2.14 0 0 0 1.391.515 2.17 2.17 0 0 0 1.698-.793l.71-.849 1.822-2.17a2.198 2.198 0 0 0-.264-3.145ZM64 28.312 47.82 15.86l-6.484 8.64-10.727-1.016h-.765a8.181 8.181 0 0 0-6.15 2.783L14.61 36.563a8.112 8.112 0 0 0 3.478 1.725c.457.107.923.163 1.392.167a7.054 7.054 0 0 0 4.8-2.032l3.45-3.631 5.245.32 2.783.167 15.026 11.743 6.957-8.696L64 28.312Z" fill="#85ACB0"/><path d="M47.305 33.501c9.22 0 16.695-7.475 16.695-16.695C64 7.584 56.526.11 47.305.11S30.609 7.585 30.609 16.805c0 9.221 7.475 16.696 16.696 16.696Z" fill="#FF444F" style="mix-blend-mode:multiply"/><path d="m44.94 23.414-5.983-5.983 2.504-2.504 3.478 3.478 8.21-8.209 2.503 2.505L44.94 23.414Z" fill="#fff"/></g><defs><clipPath id="a"><path fill="#fff" transform="translate(0 .11)" d="M0 0h64v64H0z"/></clipPath></defs></svg>