<svg width="64" height="65" fill="none" xmlns="http://www.w3.org/2000/svg"><g clip-path="url(#a)"><path d="M6.372 20.982V35.52a20.87 20.87 0 0 0 7.082 15.513v-.71a7.305 7.305 0 0 1 7.29-7.29h4.912a7.304 7.304 0 0 1 7.29 7.29v.696A20.967 20.967 0 0 0 40 35.52V20.983l-16.807-5.774-16.82 5.774Zm23.332 12.521a6.497 6.497 0 1 1-12.994 0 6.497 6.497 0 0 1 12.994 0Z" fill="#85ACB0"/><path d="M23.193 8.458 0 16.5v19.019a27.826 27.826 0 0 0 15.402 24.556l7.791 4.035 7.777-4.035A27.825 27.825 0 0 0 46.372 35.52V16.5L23.193 8.459Zm19.13 27.06a23.777 23.777 0 0 1-13.217 20.954l-5.913 3.06-5.927-3.06A23.792 23.792 0 0 1 4.063 35.519V19.393l19.13-6.636 19.13 6.636V35.52Z" fill="#85ACB0"/><path d="M47.304 33.501C56.525 33.501 64 26.026 64 16.806 64 7.584 56.525.11 47.304.11c-9.22 0-16.695 7.475-16.695 16.695 0 9.221 7.475 16.696 16.695 16.696Z" fill="#FF444F" style="mix-blend-mode:multiply"/><path d="m44.94 23.414-5.983-5.982 2.504-2.505 3.478 3.479 8.209-8.21 2.504 2.505L44.94 23.414Z" fill="#fff"/></g><defs><clipPath id="a"><path fill="#fff" transform="translate(0 .11)" d="M0 0h64v64H0z"/></clipPath></defs></svg>