<svg width="64" height="65" fill="none" xmlns="http://www.w3.org/2000/svg"><path d="M32 21.703a10.796 10.796 0 1 0-10.797-10.797 10.784 10.784 0 0 0 10.796 10.797Zm15.636 29.885a2.574 2.574 0 0 1 2.115-1.78l3.117-.501 1.39-2.88a2.588 2.588 0 0 1 1.56-1.392v-1.182A17.864 17.864 0 0 0 38.035 26.03h-12.02A17.878 17.878 0 0 0 8.136 43.908v1.197a2.574 2.574 0 0 1 1.517 1.322l1.391 2.88 3.172.459a2.573 2.573 0 0 1 2.143 1.822 2.603 2.603 0 0 1-.654 2.672L13.98 55.9h36.104l-1.725-1.683a2.602 2.602 0 0 1-.724-2.63Z" fill="#85ACB0"/><path d="M11.477 55.901c.04-.132.106-.255.195-.361l2.782-2.658a.737.737 0 0 0-.417-1.266l-3.757-.556a.723.723 0 0 1-.57-.404L8.18 47.54l-.14-.292a.75.75 0 0 0-1.39 0l-1.67 3.408a.723.723 0 0 1-.57.404l-3.771.528a.737.737 0 0 0-.418 1.267l2.783 2.657a.793.793 0 0 1 .209.668l-.696 3.756a.751.751 0 0 0 .737.877.654.654 0 0 0 .348-.098l3.353-1.739a.793.793 0 0 1 .71 0l3.353 1.767a.654.654 0 0 0 .348.098.751.751 0 0 0 .737-.905l-.64-3.756a.766.766 0 0 1 .014-.279Zm52.299-3.019a.737.737 0 0 0-.417-1.266l-3.757-.556a.722.722 0 0 1-.57-.404l-1.67-3.408a.75.75 0 0 0-1.391 0l-.125.25-1.545 3.158a.723.723 0 0 1-.57.404l-3.645.528a.737.737 0 0 0-.418 1.267l2.783 2.657c.089.106.155.23.195.362.02.1.02.205 0 .306l-.752 3.756a.751.751 0 0 0 .738.877.654.654 0 0 0 .348-.098l3.353-1.767a.807.807 0 0 1 .71 0l3.352 1.767a.654.654 0 0 0 .348.098.751.751 0 0 0 .738-.877l-.64-3.756a.792.792 0 0 1 .208-.668l2.727-2.63Z" fill="#85ACB0"/><path d="m46.746 43.567-8.208-1.197a1.71 1.71 0 0 1-1.308-.946l-3.673-7.457a1.739 1.739 0 0 0-3.117 0l-3.673 7.457a1.711 1.711 0 0 1-1.308.946l-8.208 1.197a1.74 1.74 0 0 0-.96 2.963l5.968 5.816a1.74 1.74 0 0 1 .501 1.53l-1.391 8.209a1.725 1.725 0 0 0 2.518 1.822l7.346-3.867a1.738 1.738 0 0 1 1.614 0l7.346 3.867a1.724 1.724 0 0 0 2.519-1.822l-1.392-8.209a1.739 1.739 0 0 1 .501-1.53l5.941-5.816a1.74 1.74 0 0 0-1.016-2.963Z" fill="#FF444F" style="mix-blend-mode:multiply"/></svg>